<?xml version="1.0" encoding="UTF-8" standalone="no"?>
<svg xmlns:ffdec="https://www.free-decompiler.com/flash" xmlns:xlink="http://www.w3.org/1999/xlink" ffdec:objectType="shape" height="28.9px" width="13.4px" xmlns="http://www.w3.org/2000/svg">
  <g transform="matrix(1.0, 0.0, 0.0, 1.0, 8.8, 26.15)">
    <path d="M1.1 -25.55 L1.0 -25.55 0.9 -25.5 0.85 -25.45 0.75 -25.35 0.65 -25.25 0.65 -25.15 0.6 -25.1 0.6 -25.0 0.55 -24.9 0.6 -24.8 0.65 -24.6 0.65 -24.5 0.7 -24.4 0.7 -23.95 0.7 -23.0 0.7 -22.35 0.65 -22.25 0.65 -22.15 0.6 -22.05 0.55 -22.0 0.55 -21.5 0.55 -20.95 0.55 -20.65 0.5 -20.6 0.5 -20.5 0.45 -20.4 0.45 -19.9 0.45 -19.25 0.35 -18.9 0.35 -18.8 0.35 -18.7 0.35 -18.4 0.35 -18.15 0.35 -18.05 0.25 -17.95 0.25 -17.85 0.2 -17.75 0.2 -17.65 0.2 -17.3 0.2 -17.0 0.25 -16.9 0.25 -16.85 0.3 -16.75 0.35 -16.65 0.35 -16.25 0.3 -15.7 0.4 -15.4 0.45 -14.95 0.45 -14.3 0.5 -13.9 0.5 -13.85 0.55 -13.75 0.55 -13.65 0.55 -13.55 0.55 -13.15 0.6 -12.9 0.6 -12.8 0.65 -12.7 0.7 -12.6 0.7 -12.5 0.75 -12.4 0.75 -12.35 0.85 -12.15 0.9 -12.05 0.95 -11.95 0.95 -11.85 0.95 -11.75 0.95 -11.65 1.05 -11.4 1.25 -11.0 1.4 -10.85 1.45 -10.75 1.45 -10.65 1.5 -10.55 1.5 -10.45 1.55 -10.35 1.65 -10.25 1.75 -10.15 1.75 -10.1 1.85 -9.9 1.9 -9.8 1.95 -9.7 1.95 -9.6 1.95 -9.5 2.0 -9.4 2.0 -9.35 2.05 -9.25 2.15 -9.15 2.25 -9.05 2.3 -8.95 2.4 -8.85 2.4 -8.75 2.5 -8.65 2.55 -8.55 2.75 -8.3 2.95 -7.85 3.1 -7.55 3.2 -7.45 3.2 -7.35 3.2 -7.25 3.25 -7.1 3.35 -6.9 3.4 -6.8 3.45 -6.7 3.45 -6.6 3.5 -6.5 3.55 -6.4 3.55 -6.35 3.55 -6.25 3.6 -6.15 3.6 -6.05 3.65 -5.95 3.85 -5.6 3.9 -5.4 3.95 -5.3 3.95 -5.2 3.95 -5.1 3.95 -5.0 4.0 -4.9 4.0 -4.85 4.1 -4.75 4.1 -4.65 4.1 -4.55 4.1 -4.45 4.15 -4.35 4.15 -4.25 4.2 -4.15 4.2 -4.0 4.2 -3.7 4.25 -3.5 4.3 -3.4 4.35 -2.95 4.35 -2.5 4.4 -2.3 4.45 -2.1 4.45 -1.8 4.45 -1.65 4.45 -1.55 4.5 -1.45 4.5 -1.35 4.55 -1.25 4.6 -1.15 4.6 -0.7 4.6 0.4 4.5 1.35 4.45 1.45 4.45 1.55 4.45 1.65 4.4 1.75 4.3 2.0 4.25 2.2 4.2 2.3 4.2 2.4 4.2 2.5 4.15 2.65 4.15 2.7 Q3.85 2.9 3.2 2.15 L3.2 2.1 3.2 1.9 3.15 1.8 3.1 1.7 3.05 1.6 3.0 1.5 2.95 1.4 2.85 1.3 2.8 1.25 2.8 1.15 2.8 1.05 2.75 0.95 2.7 0.85 2.7 0.75 2.7 0.65 2.7 0.6 2.65 0.5 2.65 0.4 2.6 0.3 2.55 0.2 2.55 0.1 2.55 0.0 2.55 -0.1 2.35 -0.45 2.1 -0.95 1.95 -1.2 1.85 -1.3 1.8 -1.4 1.7 -1.6 1.65 -1.65 1.65 -1.75 1.55 -1.85 1.45 -1.95 1.35 -2.05 1.3 -2.15 1.25 -2.25 1.2 -2.3 1.1 -2.4 1.0 -2.5 0.95 -2.6 0.9 -2.7 0.85 -2.8 0.75 -2.9 0.65 -3.0 0.55 -3.1 0.55 -3.15 0.5 -3.25 0.4 -3.35 0.35 -3.45 0.25 -3.55 0.2 -3.65 0.15 -3.75 0.1 -3.85 0.0 -3.9 -0.05 -4.0 -0.1 -4.1 -0.15 -4.2 -0.25 -4.3 -0.35 -4.4 -0.4 -4.5 -0.45 -4.55 -0.5 -4.65 -0.7 -4.85 -0.95 -5.05 -1.1 -5.15 -1.1 -5.25 -1.15 -5.35 -2.0 -6.15 -2.65 -6.85 -2.7 -6.9 -2.75 -7.0 -2.95 -7.2 -3.15 -7.4 -3.3 -7.5 -3.35 -7.6 -3.4 -7.65 -3.6 -7.85 -3.75 -8.05 -3.85 -8.15 -3.9 -8.25 -3.95 -8.3 -4.0 -8.4 -4.1 -8.5 -4.5 -8.9 -4.7 -9.05 -4.7 -9.15 -4.75 -9.25 -4.85 -9.35 -4.95 -9.45 -5.0 -9.55 -5.05 -9.65 -5.1 -9.75 -5.2 -9.8 -5.25 -9.9 -5.3 -10.0 -5.4 -10.2 -5.45 -10.3 -5.5 -10.4 -5.6 -10.5 -6.05 -10.95 -6.25 -11.15 -6.55 -11.2 -6.55 -11.25 -6.6 -11.35 -6.65 -11.4 -6.75 -11.5 -6.8 -11.6 -6.8 -11.7 -6.85 -11.8 -6.85 -11.9 -6.95 -12.0 -7.05 -12.1 -7.15 -12.15 -7.25 -12.25 -7.3 -12.35 -7.35 -12.45 -7.4 -12.55 -7.5 -12.65 -7.55 -12.75 -7.6 -12.8 -7.65 -12.9 -7.75 -13.0 -7.8 -13.1 -7.85 -13.2 -7.9 -13.3 -7.9 -13.4 -7.9 -13.5 -7.95 -13.6 -7.95 -13.65 -8.05 -13.85 -8.15 -14.05 -8.15 -14.15 -8.15 -14.25 -8.2 -14.35 -8.3 -14.5 -8.35 -14.6 -8.4 -14.7 -8.5 -14.8 -8.55 -14.9 -8.55 -15.0 -8.6 -15.05 -8.65 -15.15 -8.65 -15.25 -8.65 -15.35 -8.7 -15.45 -8.7 -15.55 -8.75 -15.65 -8.8 -15.75 -8.8 -15.8 -8.8 -16.65 -8.8 -17.9 -8.8 -18.7 -8.8 -18.9 -8.75 -19.0 -8.7 -19.1 -8.65 -19.2 -8.65 -19.3 -8.65 -19.4 -8.65 -19.5 -8.6 -19.6 -8.55 -19.65 -8.5 -19.75 -8.45 -19.85 -8.4 -19.95 -8.35 -20.05 -8.25 -20.15 -8.15 -20.25 -8.05 -20.35 -8.0 -20.4 -7.95 -20.5 -7.9 -20.6 -7.8 -20.7 -7.75 -20.8 -7.65 -21.0 -7.55 -21.15 -7.5 -21.25 -7.4 -21.35 -7.35 -21.45 -7.3 -21.55 -7.25 -21.65 -7.15 -21.75 -7.0 -21.8 -6.85 -21.9 -6.7 -22.05 -6.6 -22.05 -6.4 -22.15 -6.25 -22.25 -6.15 -22.3 -6.05 -22.4 -5.95 -22.5 -5.85 -22.6 -5.75 -22.7 -5.6 -22.8 -5.45 -22.85 -5.4 -22.9 -5.25 -22.95 -5.2 -23.05 -3.6 -23.5 -3.4 -23.55 -3.0 -23.75 -2.85 -23.8 -2.55 -23.95 -2.25 -24.25 -2.05 -24.45 -2.0 -24.55 -1.95 -24.65 -1.9 -24.75 -1.9 -24.85 -1.95 -24.9 -1.95 -25.0 -1.9 -25.05 -1.55 -25.45 -1.5 -25.6 -0.4 -25.9 -0.35 -25.9 -0.3 -25.95 0.35 -26.15 Q0.85 -26.15 1.1 -25.55 M2.05 -3.1 L3.25 -0.95 3.65 -0.2 3.6 -0.8 Q3.5 -3.15 2.3 -6.0 L0.3 -11.0 Q-0.8 -14.15 -0.8 -16.2 L-0.65 -18.7 -0.55 -19.9 -0.3 -24.25 -0.4 -24.15 -2.35 -23.4 -4.55 -22.6 -6.2 -21.45 -7.25 -19.45 -7.5 -18.7 -7.65 -17.5 Q-7.65 -15.35 -5.95 -12.65 -4.55 -10.4 -2.1 -7.9 L0.3 -5.55 Q1.7 -4.05 2.05 -3.1" fill="#000000" fill-rule="evenodd" stroke="none"/>
  </g>
</svg>
