<?xml version="1.0" encoding="UTF-8" standalone="no"?>
<svg xmlns:ffdec="https://www.free-decompiler.com/flash" xmlns:xlink="http://www.w3.org/1999/xlink" ffdec:objectType="shape" height="24.0px" width="128.5px" xmlns="http://www.w3.org/2000/svg">
  <g transform="matrix(1.0, 0.0, 0.0, 1.0, 63.45, 11.4)">
    <path d="M5.9 -9.1 L6.25 -9.0 Q11.05 -10.2 13.8 -6.8 14.15 -6.35 14.0 -5.7 13.8 -4.8 13.0 -4.4 L12.45 -2.85 Q11.85 -0.6 12.1 1.65 L12.35 3.45 12.65 3.9 12.85 4.55 12.85 4.7 13.05 4.85 13.2 5.05 13.4 5.35 14.25 6.0 14.6 5.85 14.95 5.5 15.25 5.2 Q14.4 1.2 15.25 -2.85 15.7 -5.0 15.75 -7.3 15.75 -8.35 16.8 -8.65 L17.35 -8.85 Q20.3 -7.4 22.35 -4.7 23.0 -3.8 23.8 -3.25 21.65 -5.8 23.05 -8.25 23.4 -8.8 24.1 -8.8 27.2 -8.75 30.05 -7.9 L30.15 -8.2 Q30.7 -9.25 31.85 -9.3 32.95 -9.1 33.9 -8.5 L34.7 -8.9 36.25 -9.3 Q40.5 -9.8 40.75 -6.5 41.1 -7.25 42.1 -7.7 L43.8 -8.25 Q46.75 -8.75 48.8 -7.5 L49.9 -7.95 52.45 -8.1 Q53.15 -8.55 53.95 -8.65 L61.15 -8.3 Q62.7 -8.2 62.7 -6.6 L62.65 -6.45 62.45 -5.95 61.95 -5.3 62.3 -4.65 Q63.0 -1.65 61.9 1.0 L61.75 1.3 Q61.7 2.1 61.0 2.9 60.6 3.4 60.05 3.55 63.8 3.75 65.05 7.4 65.0 9.15 63.2 9.15 58.2 9.15 53.5 10.45 L49.9 10.25 Q48.4 9.6 48.75 7.9 49.05 6.25 50.5 5.35 L50.65 1.05 51.0 -3.95 50.35 -4.05 49.35 -3.05 49.35 -1.25 Q49.05 0.6 49.15 2.5 49.3 7.0 47.0 10.5 45.65 12.65 43.0 12.0 41.6 11.65 40.35 11.1 37.8 11.55 36.1 9.6 34.75 8.1 34.35 6.25 L33.75 5.35 33.45 4.65 Q32.05 0.65 32.8 -3.4 L32.55 -3.6 Q31.65 -3.25 30.95 -2.6 L31.3 0.6 31.55 3.95 Q33.05 7.6 30.7 10.4 30.3 10.85 29.7 10.7 26.9 9.85 25.0 7.6 L22.25 3.95 19.35 1.25 19.35 1.75 19.35 5.7 Q22.4 9.5 17.9 11.05 14.4 12.25 12.8 10.4 8.75 11.3 5.4 9.55 L5.0 9.25 4.45 9.65 2.4 10.15 -5.6 10.5 Q-6.55 10.6 -6.8 9.7 -7.4 7.2 -4.85 5.8 L-3.35 4.6 -3.55 3.95 Q-4.45 1.6 -4.25 -1.0 L-4.15 -3.25 -4.15 -3.3 -5.05 -3.3 -5.2 -3.1 Q-6.9 -0.6 -9.85 -1.05 L-9.85 -1.0 Q-8.95 2.15 -9.1 5.3 -8.7 7.05 -9.6 8.4 L-10.15 10.3 -10.4 10.8 -10.65 11.7 Q-10.9 12.55 -11.85 12.6 -16.15 10.6 -18.55 6.3 L-19.8 4.3 -20.95 2.35 Q-21.75 2.0 -22.2 1.4 L-22.2 1.5 -22.1 1.65 -20.9 3.1 Q-20.5 3.5 -20.35 4.05 -17.1 8.15 -21.55 10.15 -23.65 11.1 -26.15 10.85 -28.5 10.6 -28.25 8.25 -28.15 7.2 -27.65 6.3 L-29.45 8.2 Q-30.9 9.5 -32.75 10.1 -39.5 12.35 -44.1 7.15 -44.55 9.35 -47.1 9.7 -53.9 10.7 -60.05 8.5 -61.3 8.1 -61.9 6.9 -63.9 3.15 -63.3 -1.2 -63.0 -3.15 -62.25 -4.9 -60.0 -10.05 -54.15 -10.6 L-49.55 -10.9 -49.05 -11.15 -48.3 -11.35 -48.3 -11.4 Q-46.25 -11.1 -44.8 -9.65 -44.35 -9.15 -44.35 -8.45 L-44.45 -8.3 -44.5 -8.15 -44.1 -6.45 Q-41.9 -8.85 -38.5 -9.1 -34.15 -10.0 -30.4 -7.95 L-28.55 -6.6 Q-27.7 -8.0 -26.3 -7.3 -25.55 -8.4 -23.8 -8.65 -19.0 -8.5 -16.7 -4.1 -15.4 -1.6 -13.7 0.7 L-13.75 -1.05 -13.75 -1.35 -13.8 -2.3 -13.8 -3.1 -15.7 -4.45 Q-17.75 -5.5 -16.25 -7.2 -15.75 -7.8 -15.05 -7.8 -13.25 -8.15 -11.55 -7.8 L-11.55 -7.85 Q-10.55 -8.75 -9.2 -8.5 -5.4 -7.8 -1.7 -8.65 L3.85 -8.45 4.25 -8.85 5.2 -9.3 5.9 -9.1 M2.8 -1.6 L2.8 -1.4 2.85 0.35 Q2.95 1.75 2.55 3.05 L2.55 3.2 2.55 3.55 2.55 3.85 2.55 4.5 2.55 4.65 Q4.35 5.75 5.15 7.6 5.55 6.85 6.55 6.5 L6.35 4.0 5.75 -0.75 4.4 -0.55 Q3.3 -0.55 2.8 -1.6 M40.1 -1.4 Q39.85 0.05 40.2 1.45 L40.25 2.4 40.6 3.2 40.95 4.5 41.4 5.5 43.05 2.55 43.6 1.35 42.65 -3.6 Q41.25 -3.45 40.75 -4.8 L40.7 -5.05 40.05 -3.6 Q40.3 -2.65 40.1 -1.4 M58.7 3.5 L58.65 3.5 58.65 3.55 58.65 3.6 59.0 3.6 58.7 3.5 M54.9 0.5 L54.7 0.05 54.6 0.05 54.35 4.55 54.35 6.0 Q55.0 6.25 54.9 5.8 L54.9 1.8 54.9 0.5 M-53.0 -5.25 L-53.6 -5.25 Q-55.8 -2.95 -54.5 0.05 L-52.85 3.55 -52.3 3.75 -51.55 3.85 Q-48.9 1.85 -46.6 2.85 -47.3 0.5 -46.6 -1.9 L-46.7 -1.9 Q-46.9 -1.75 -47.15 -1.9 -50.1 -3.25 -52.8 -5.2 L-53.0 -5.25 M-58.85 -2.55 Q-59.4 -0.65 -59.4 1.3 L-59.5 2.6 -59.25 3.55 -59.25 3.85 -58.5 5.1 -58.3 5.4 Q-57.2 5.85 -56.05 5.7 -57.95 2.6 -58.5 -1.05 L-58.85 -2.55 M-36.95 -2.5 L-37.45 -1.2 -37.7 -0.75 -37.85 0.05 -38.0 0.4 -38.0 1.5 -38.0 2.15 -37.1 3.25 -36.95 3.35 Q-35.9 2.0 -35.75 0.35 L-35.45 -0.6 -35.45 -1.1 -35.45 -1.4 -36.0 -2.05 -36.05 -2.2 Q-36.45 -2.6 -36.95 -2.5 M-32.5 -4.05 Q-31.95 -3.25 -31.75 -2.25 -30.1 0.4 -30.35 3.55 L-30.35 3.5 Q-29.45 1.9 -29.35 0.05 L-29.5 -0.55 -29.6 -1.05 -29.75 -1.5 -30.8 -2.85 -31.95 -4.55 -33.55 -5.2 -32.5 -4.05 M-23.85 5.85 L-23.85 6.8 -23.85 7.1 -22.85 7.25 -23.8 5.85 -23.85 5.85 M-42.85 1.6 L-43.1 1.5 Q-42.45 3.2 -41.5 4.35 L-41.75 3.6 Q-42.5 2.6 -42.85 1.6" fill="#4b4b4b" fill-opacity="0.47058824" fill-rule="evenodd" stroke="none"/>
  </g>
</svg>
