<?xml version="1.0" encoding="UTF-8" standalone="no"?>
<svg xmlns:ffdec="https://www.free-decompiler.com/flash" xmlns:xlink="http://www.w3.org/1999/xlink" ffdec:objectType="shape" height="21.0px" width="20.35px" xmlns="http://www.w3.org/2000/svg">
  <g transform="matrix(1.0, 0.0, 0.0, 1.0, -69.9, 9.3)">
    <path d="M69.95 -6.1 L69.95 -6.3 Q69.95 -7.5 70.65 -8.35 L71.4 -8.8 Q71.8 -9.25 72.45 -9.3 L73.35 -9.25 73.6 -9.3 Q74.45 -9.3 75.15 -8.8 L75.7 -8.3 83.75 -4.65 85.65 -3.35 Q87.15 -2.75 88.35 -1.8 L88.5 -1.85 Q89.7 -1.9 90.15 -0.85 L90.25 -0.25 89.75 0.35 89.25 1.5 88.65 2.2 Q82.9 6.95 76.4 10.5 L74.5 11.25 73.45 11.55 72.25 11.4 Q71.7 11.2 71.45 10.9 70.65 10.8 70.3 10.0 69.9 9.0 69.9 7.95 69.85 4.9 70.15 1.85 L70.15 -1.1 69.95 -5.7 69.95 -6.1 M86.65 -0.35 L86.45 -0.45 86.35 -0.5 86.25 -0.55 85.0 -1.35 84.0 -2.1 83.8 -2.15 83.55 -2.35 83.55 -2.4 83.35 -2.55 83.0 -2.7 82.9 -2.75 82.85 -2.8 82.15 -3.35 81.8 -3.5 80.95 -4.0 80.7 -4.1 80.65 -4.15 80.6 -4.2 79.4 -4.7 78.1 -5.3 77.65 -5.55 77.6 -5.6 77.4 -5.7 77.1 -6.0 76.55 -6.25 Q76.35 -6.4 76.1 -6.5 L75.9 -6.55 75.3 -6.85 74.9 -7.15 Q74.35 -7.55 73.65 -7.5 73.5 -7.85 73.0 -7.8 L72.7 -7.65 72.6 -7.5 72.5 -7.4 72.45 -7.3 72.4 -7.25 72.3 -7.05 72.05 -6.8 71.9 -5.25 72.2 -2.45 72.15 -1.2 72.2 0.0 72.15 1.6 72.2 6.7 72.15 6.75 72.15 7.05 72.25 7.35 72.25 7.45 72.25 7.75 72.25 8.0 72.45 9.05 72.65 9.05 72.75 9.05 72.85 9.3 72.9 9.45 Q74.75 9.45 76.25 8.35 L76.75 8.0 76.8 8.0 77.2 7.7 Q78.0 7.15 78.85 6.75 L79.1 6.55 80.2 6.0 84.4 3.7 84.45 3.65 84.5 3.6 84.55 3.55 84.75 3.45 86.35 2.25 86.75 1.8 87.1 1.55 87.2 1.4 87.3 1.3 87.3 1.25 87.4 1.2 87.65 0.95 87.65 0.8 87.7 0.75 87.7 0.6 87.7 0.45 87.55 0.15 Q87.3 -0.45 86.7 -0.4 L86.65 -0.35 M74.95 -3.8 L75.05 -3.75 74.95 -3.65 74.95 -3.8" fill="#4b4b4b" fill-opacity="0.47058824" fill-rule="evenodd" stroke="none"/>
    <path d="M72.3 -7.05 L72.4 -7.25 72.45 -7.3 72.5 -7.4 72.6 -7.5 72.7 -7.65 73.0 -7.8 Q73.5 -7.85 73.65 -7.5 74.35 -7.55 74.9 -7.15 L75.3 -6.85 75.9 -6.55 76.1 -6.5 Q76.35 -6.4 76.55 -6.25 L77.1 -6.0 77.4 -5.7 77.6 -5.6 77.65 -5.55 78.1 -5.3 79.4 -4.7 80.6 -4.2 80.65 -4.15 80.7 -4.1 80.95 -4.0 81.8 -3.5 82.15 -3.35 82.85 -2.8 82.9 -2.75 83.0 -2.7 83.35 -2.55 83.55 -2.4 83.55 -2.35 83.8 -2.15 84.0 -2.1 85.0 -1.35 86.25 -0.55 86.35 -0.5 86.45 -0.45 86.65 -0.35 86.85 -0.25 87.2 -0.05 87.35 0.15 87.4 0.45 87.3 0.55 87.2 0.65 87.2 0.6 87.15 0.45 87.1 0.4 87.05 0.35 86.8 0.25 86.5 0.25 86.4 0.25 86.4 0.3 86.35 0.25 86.0 0.15 85.95 0.15 85.8 0.2 Q85.25 0.05 84.8 -0.3 L84.7 -0.35 83.0 -1.4 82.3 -1.8 82.15 -1.9 82.05 -2.0 81.3 -2.4 81.1 -2.55 78.8 -3.75 78.35 -4.1 78.25 -4.1 78.05 -4.15 77.65 -4.45 77.45 -4.6 77.4 -4.65 77.2 -4.7 74.55 -6.1 73.9 -6.55 73.55 -6.7 73.25 -6.6 73.2 -6.35 73.15 -5.9 73.2 -5.65 73.1 -2.6 73.1 4.4 73.0 6.15 Q72.95 6.7 73.35 6.95 L73.3 7.25 73.3 7.55 73.3 8.05 Q73.5 8.6 73.15 9.0 L73.05 9.0 72.9 8.95 72.85 9.0 72.75 9.05 72.65 9.05 72.45 9.05 72.25 8.0 72.25 7.75 72.25 7.45 72.25 7.35 72.15 7.05 72.15 6.75 72.2 6.7 72.15 1.6 72.2 0.0 72.25 -1.8 72.3 -4.0 72.25 -4.95 Q72.15 -5.4 72.2 -5.9 L72.2 -6.45 72.2 -6.5 72.25 -6.55 72.3 -6.6 72.25 -6.75 72.3 -7.05" fill="#333333" fill-rule="evenodd" stroke="none"/>
    <path d="M72.2 0.0 L72.15 -1.2 72.2 -2.45 71.9 -5.25 72.05 -6.8 72.3 -7.05 72.25 -6.75 72.3 -6.6 72.25 -6.55 72.2 -6.5 72.2 -6.45 72.2 -5.9 Q72.15 -5.4 72.25 -4.95 L72.3 -4.0 72.25 -1.8 72.2 0.0 M73.3 7.55 L73.3 7.25 73.35 6.95 Q72.95 6.7 73.0 6.15 L73.1 4.4 73.1 -2.6 73.2 -5.65 73.15 -5.9 73.2 -6.35 73.25 -6.6 73.55 -6.7 73.9 -6.55 74.55 -6.1 77.2 -4.7 77.4 -4.65 77.45 -4.6 77.65 -4.45 78.05 -4.15 78.25 -4.1 78.35 -4.1 78.8 -3.75 81.1 -2.55 81.3 -2.4 82.05 -2.0 82.15 -1.9 82.3 -1.8 83.0 -1.4 84.7 -0.35 84.8 -0.3 Q85.25 0.05 85.8 0.2 L85.95 0.15 86.0 0.15 86.35 0.25 86.4 0.3 86.3 0.3 86.3 0.35 86.1 0.2 86.0 0.2 85.85 0.3 85.7 0.5 85.6 0.55 85.15 0.85 84.05 1.4 83.4 1.8 83.25 1.85 83.1 1.95 80.6 3.6 Q79.95 3.9 79.4 4.35 L79.35 4.35 Q79.05 4.45 78.85 4.65 L78.75 4.7 78.4 4.9 Q77.4 5.35 76.45 5.9 L75.85 6.15 75.75 6.2 75.55 6.35 75.5 6.35 74.9 6.7 73.95 7.25 73.75 7.3 73.6 7.45 73.35 7.5 73.3 7.55 M74.95 -3.8 L74.95 -3.65 75.05 -3.75 74.95 -3.8 M73.95 8.15 L73.85 8.25 73.85 8.15 73.95 8.15" fill="#666666" fill-rule="evenodd" stroke="none"/>
    <path d="M86.65 -0.35 L86.7 -0.4 Q87.3 -0.45 87.55 0.15 L87.7 0.45 87.7 0.6 87.7 0.75 87.65 0.8 87.65 0.95 87.4 1.2 87.3 1.25 87.3 1.3 87.2 1.4 87.1 1.55 86.75 1.8 86.35 2.25 84.75 3.45 84.55 3.55 84.5 3.6 84.45 3.65 84.4 3.7 80.2 6.0 79.1 6.55 78.85 6.75 Q78.0 7.15 77.2 7.7 L76.8 8.0 76.75 8.0 76.25 8.35 Q74.75 9.45 72.9 9.45 L72.85 9.3 72.75 9.05 72.85 9.0 72.9 8.95 73.05 9.0 73.15 9.0 Q73.5 8.6 73.3 8.05 L73.3 7.55 73.35 7.5 73.6 7.45 73.75 7.3 73.95 7.25 74.9 6.7 75.5 6.35 75.55 6.35 75.75 6.2 75.85 6.15 76.45 5.9 Q77.4 5.35 78.4 4.9 L78.75 4.7 78.85 4.65 Q79.05 4.45 79.35 4.35 L79.4 4.35 Q79.95 3.9 80.6 3.6 L83.1 1.95 83.25 1.85 83.4 1.8 84.05 1.4 85.15 0.85 85.6 0.55 85.7 0.5 85.85 0.3 86.0 0.2 86.1 0.2 86.3 0.35 86.3 0.3 86.4 0.3 86.4 0.25 86.5 0.25 86.8 0.25 87.05 0.35 87.1 0.4 87.15 0.45 87.2 0.6 87.2 0.65 87.3 0.55 87.4 0.45 87.35 0.15 87.2 -0.05 86.85 -0.25 86.65 -0.35 M73.95 8.15 L73.85 8.15 73.85 8.25 73.95 8.15" fill="#797979" fill-rule="evenodd" stroke="none"/>
  </g>
</svg>
