<?xml version="1.0" encoding="UTF-8" standalone="no"?>
<svg xmlns:ffdec="https://www.free-decompiler.com/flash" xmlns:xlink="http://www.w3.org/1999/xlink" ffdec:objectType="shape" height="36.0px" width="38.25px" xmlns="http://www.w3.org/2000/svg">
  <g transform="matrix(1.0, 0.0, 0.0, 1.0, 19.75, 19.3)">
    <path d="M-1.6 -9.1 L-1.3 -9.0 -0.75 -8.7 -0.6 -8.5 -0.5 -8.3 -0.4 -8.1 -0.3 -7.95 -0.25 -7.55 -0.25 -7.0 -0.25 -6.05 0.95 -5.2 1.95 -3.75 2.0 -2.8 2.0 -1.1 2.0 -0.55 2.0 -0.4 1.65 -0.7 1.25 -1.25 1.0 -1.6 0.75 -2.0 0.0 -2.5 -0.75 -2.75 -0.95 -2.9 -1.0 -3.05 -1.0 -4.0 -1.0 -4.55 -1.0 -4.95 -0.9 -5.15 -0.8 -5.3 -0.75 -5.5 -0.75 -6.25 -0.75 -6.8 -0.8 -7.2 -0.9 -7.35 -1.0 -7.55 -1.1 -7.75 -1.25 -7.95 -1.8 -8.25 -2.05 -8.35 -2.0 -8.45 -1.85 -8.7 -1.8 -8.75 -1.75 -8.9 -1.65 -9.05 -1.6 -9.1 M3.45 3.8 L3.75 4.0 3.9 4.2 4.15 4.55 4.35 4.95 4.7 5.5 4.7 5.7 4.75 5.9 4.75 6.05 4.75 6.25 4.8 6.45 4.85 6.65 4.75 6.5 4.55 5.75 4.2 5.2 3.9 4.8 3.75 4.45 3.45 3.8" fill="#533f11" fill-opacity="0.49803922" fill-rule="evenodd" stroke="none"/>
    <path d="M-11.75 3.85 L-11.75 3.7 -11.7 3.5 -11.6 3.3 -11.45 2.95 -11.25 2.55 -11.25 2.4 -11.25 2.2 -11.25 2.0 -11.2 1.8 -11.2 1.65 -11.05 1.45 -11.0 1.25 -10.85 0.9 -10.75 0.5 -10.75 0.3 -10.75 0.15 -10.75 -0.25 -10.75 -0.8 -10.6 -1.2 -10.45 -1.55 -10.25 -2.1 -10.25 -2.5 -10.25 -2.85 -10.2 -3.45 -10.2 -3.6 -9.9 -4.2 -9.55 -5.1 -9.25 -5.7 -9.25 -5.85 -9.25 -6.05 -9.25 -6.25 -9.25 -6.45 -9.25 -6.6 -9.2 -6.8 -9.1 -7.0 -9.0 -7.2 -8.75 -7.55 -8.75 -7.75 -8.7 -7.95 -8.7 -8.1 -8.25 -9.05 -7.7 -10.75 -7.55 -11.1 -7.4 -11.3 -7.25 -11.5 -7.0 -11.7 -6.85 -11.85 -6.75 -12.05 -6.7 -12.25 -6.55 -12.6 -6.4 -12.8 -6.25 -13.0 -6.15 -13.2 -6.05 -13.35 -6.0 -13.55 -6.0 -13.75 -6.0 -13.95 -6.0 -14.1 -5.95 -14.3 -5.85 -14.5 -5.75 -14.7 -5.75 -14.85 -5.7 -15.05 -5.6 -15.25 -5.5 -15.45 -5.4 -15.6 -5.3 -15.8 -5.25 -16.0 -5.25 -16.2 -5.25 -16.35 -5.0 -16.95 -4.0 -17.8 -3.95 -18.0 -3.85 -18.2 -3.8 -18.35 -3.6 -18.55 -3.25 -18.9 -2.85 -19.1 -2.6 -19.15 -2.25 -19.2 -2.25 -19.25 0.85 -19.05 0.9 -19.1 1.15 -19.15 1.5 -19.2 1.5 -19.25 2.1 -19.15 2.8 -18.85 3.0 -18.7 3.15 -18.5 3.25 -18.3 3.35 -18.1 3.45 -17.95 3.5 -17.75 3.5 -17.55 3.5 -17.5 3.85 -16.8 4.05 -16.45 4.2 -16.25 4.2 -16.05 4.25 -15.85 4.5 -15.5 4.6 -15.3 4.8 -14.95 4.95 -14.75 4.95 -14.55 5.0 -14.35 5.0 -14.2 5.0 -14.0 5.0 -13.8 5.35 -12.85 6.05 -11.4 6.2 -11.0 6.2 -10.8 6.25 -10.6 8.0 -6.5 10.0 -1.6 11.15 2.1 13.1 6.65 13.2 6.8 13.25 7.0 13.25 7.2 13.25 7.35 Q15.65 7.5 17.75 8.75 L17.9 8.95 18.0 9.15 18.1 9.3 18.2 9.5 18.2 9.7 18.25 9.9 18.25 10.05 18.4 10.45 18.5 10.8 18.5 11.0 18.5 11.2 18.5 11.4 18.5 11.55 18.5 11.75 18.45 11.95 18.3 12.3 18.1 12.7 17.9 13.05 17.75 13.2 17.15 13.75 16.25 14.75 15.95 14.95 15.0 15.35 13.4 15.65 Q9.7 17.2 5.65 16.45 L3.9 15.95 3.15 15.65 2.95 15.45 1.95 14.4 Q1.35 13.5 1.25 12.45 L1.15 12.25 0.95 11.9 0.75 11.5 0.55 11.15 0.55 10.95 0.5 10.75 0.5 10.55 0.5 10.4 0.45 10.2 0.3 9.8 0.1 9.45 -0.2 8.9 -0.2 8.7 -0.25 8.5 -0.25 8.3 -0.25 8.15 -0.3 7.95 -0.45 7.55 -0.6 7.2 -0.75 6.85 -1.1 6.65 -1.3 6.45 -1.75 7.15 -2.5 8.7 -2.7 9.05 -2.75 9.45 -2.85 9.8 -3.2 10.4 -3.25 11.15 -3.25 12.45 -3.25 13.2 Q-3.65 14.7 -5.15 14.85 L-5.4 14.9 -6.1 15.2 Q-8.0 15.6 -9.85 15.2 L-13.75 15.3 -16.25 15.25 -17.25 14.8 -18.35 14.6 -19.1 14.4 -19.3 14.2 -19.45 14.0 -19.55 13.8 -19.7 13.65 -19.75 13.25 -19.75 12.9 -19.7 12.3 -19.7 12.15 Q-19.3 11.4 -18.6 11.0 -17.8 10.55 -17.1 9.9 L-14.15 7.35 -12.75 6.0 -12.75 6.65 -12.75 7.2 -12.75 7.55 -12.85 7.75 -12.95 7.95 -13.0 8.15 -13.0 8.3 -13.0 8.5 -13.05 8.7 -14.0 8.95 -15.1 9.4 -15.3 9.55 -15.5 9.75 -15.65 9.95 -15.8 10.15 -15.85 10.3 -15.95 10.5 -16.0 10.7 -16.0 10.9 -16.0 11.05 -16.0 11.25 -15.95 11.45 -15.95 11.65 -15.8 11.8 -15.7 12.0 -15.55 12.2 -15.35 12.4 Q-14.35 13.0 -13.2 12.75 -11.55 12.35 -10.3 11.25 L-10.3 11.3 -10.2 11.5 -10.05 11.7 -9.85 11.9 -9.5 12.05 -8.75 12.25 -8.4 12.15 -7.7 11.85 -7.3 11.5 -7.25 11.3 -7.15 11.1 -7.05 10.95 -7.0 10.75 -7.0 10.55 -7.0 10.4 -6.9 10.2 -6.8 10.0 -6.8 9.8 -6.75 9.6 -6.75 9.45 -6.6 9.25 -6.5 9.05 -6.4 8.85 -6.3 8.7 -6.25 8.5 -5.7 7.75 -5.55 7.4 -5.45 7.0 -4.85 6.2 -4.65 5.85 -4.5 5.5 -4.05 4.95 -3.9 4.55 -3.75 4.2 -3.5 4.0 -3.35 3.8 -3.25 3.6 -3.15 3.45 -3.05 3.25 -3.05 3.05 -3.0 2.85 -3.0 2.7 -3.0 2.5 -3.05 2.3 -3.15 2.15 -3.25 1.95 -3.3 1.9 -2.5 1.3 -1.55 1.2 -1.35 1.35 -0.55 2.25 -0.7 2.4 -0.7 2.55 -0.75 3.15 -0.75 3.5 -0.7 3.9 -0.45 4.25 0.05 5.15 0.45 5.75 0.6 6.1 1.5 8.0 2.2 9.5 2.25 9.7 2.25 9.85 2.3 10.05 2.4 10.25 2.5 10.45 2.5 10.6 2.55 10.8 2.75 11.2 3.25 11.75 3.65 12.15 Q4.25 12.5 5.0 12.5 L5.25 12.5 5.35 12.55 6.15 13.15 Q9.45 13.5 12.55 12.5 L12.5 12.5 11.75 12.3 11.4 12.15 11.15 12.2 10.75 12.25 10.4 12.15 9.65 11.9 9.45 11.7 9.3 11.5 9.05 11.15 9.05 10.95 9.0 10.75 9.0 10.55 8.85 10.4 8.6 10.0 8.3 9.65 8.3 9.45 8.25 9.25 8.25 9.05 8.15 8.9 8.0 8.7 7.8 8.3 7.75 8.1 7.75 7.95 7.35 7.2 6.4 5.5 Q5.65 4.25 5.05 2.9 L5.05 2.7 4.75 1.95 4.45 1.35 4.25 0.8 4.25 0.65 4.2 0.45 4.05 0.25 3.8 -0.1 3.8 -0.3 3.5 -1.05 3.2 -1.65 3.0 -2.2 3.0 -2.35 3.0 -2.55 2.45 -3.7 Q1.95 -5.0 1.8 -6.35 1.65 -7.85 0.8 -9.1 L0.8 -9.3 0.75 -9.7 0.75 -10.05 0.75 -10.25 0.75 -10.45 0.7 -10.6 0.7 -10.65 0.9 -10.4 2.15 -8.85 2.4 -8.65 2.5 -8.5 2.8 -7.9 3.35 -6.8 3.75 -6.05 3.75 -5.9 3.8 -5.7 4.1 -5.15 4.75 -3.8 5.2 -2.85 5.25 -2.7 5.25 -2.5 5.3 -2.3 5.3 -2.1 5.45 -1.95 5.55 -1.75 5.7 -1.55 5.75 -1.35 5.85 -0.8 6.25 -0.05 6.5 0.5 6.5 0.7 6.55 0.9 6.65 1.05 6.7 1.25 6.75 1.45 6.75 2.4 6.75 3.3 6.8 3.9 6.95 4.05 7.0 4.25 7.0 4.65 7.0 4.8 7.0 5.0 7.05 5.2 7.05 5.4 7.35 5.95 7.55 6.3 7.75 6.7 7.75 6.9 7.75 7.05 7.8 7.25 7.9 7.45 7.95 7.65 8.35 8.2 8.55 8.55 8.75 8.95 8.75 9.1 8.8 9.3 9.1 9.9 9.7 10.8 10.15 11.4 10.5 11.55 11.25 11.75 11.65 11.7 11.9 11.65 12.0 11.55 12.2 11.45 12.5 11.25 12.65 11.05 12.75 10.85 12.85 10.7 12.95 10.5 12.95 10.3 13.0 10.1 13.0 9.95 13.0 9.75 13.0 9.55 12.85 9.2 12.1 7.45 11.3 6.2 11.1 5.45 10.8 4.65 10.5 4.15 10.5 3.75 10.5 3.55 10.5 3.4 10.45 3.2 10.45 3.0 10.35 2.8 10.25 2.65 10.25 1.9 10.25 1.3 10.25 0.75 10.2 0.55 10.15 0.4 10.05 0.2 10.0 0.0 10.0 -0.2 10.0 -0.35 9.95 -0.55 9.95 -0.75 9.65 -1.3 9.45 -1.7 9.25 -2.05 9.25 -2.25 9.2 -2.45 9.1 -2.6 9.0 -2.8 8.95 -3.0 8.85 -3.2 8.75 -3.35 8.7 -3.55 8.7 -3.75 8.45 -4.3 7.8 -5.6 7.3 -6.55 7.1 -7.3 6.8 -8.1 6.5 -8.6 6.45 -8.8 6.45 -9.0 6.25 -9.35 6.0 -9.75 5.65 -10.1 5.25 -10.85 5.0 -11.25 4.65 -11.6 4.5 -11.8 4.45 -12.0 4.25 -12.2 4.05 -12.35 3.8 -12.55 3.7 -12.75 3.55 -12.95 3.2 -13.3 3.0 -13.5 2.65 -13.85 2.4 -14.25 1.8 -15.2 1.25 -15.95 1.05 -16.1 0.35 -16.4 -0.25 -16.5 -0.25 -16.45 -0.6 -16.4 -0.85 -16.35 -1.25 -16.15 -1.5 -16.0 -1.8 -15.6 -1.85 -15.45 -1.95 -15.25 -2.0 -15.05 -2.0 -14.9 -2.3 -14.4 -2.5 -14.0 -2.75 -13.6 -3.2 -13.2 -3.65 -12.5 -4.3 -11.95 -4.8 -11.35 -4.95 -11.0 -5.0 -10.8 -5.0 -10.65 -5.05 -10.45 -5.55 -9.3 -7.35 -5.15 Q-8.25 -2.65 -9.5 -0.3 L-9.5 -0.1 -9.5 0.05 -9.5 0.25 -9.6 0.65 -9.65 0.8 -9.7 1.0 -9.75 1.2 -11.6 3.65 -11.75 3.85 M14.35 11.2 L14.2 11.15 13.95 11.7 13.75 12.0 14.65 11.3 14.35 11.2" fill="#575757" fill-opacity="0.49019608" fill-rule="evenodd" stroke="none"/>
    <path d="M-12.75 6.0 L-12.75 5.7 -11.75 3.85 -11.6 3.65 -9.75 1.2 -9.7 1.0 -9.65 0.8 -9.6 0.65 -9.5 0.25 -9.5 0.05 -9.5 -0.1 -9.5 -0.3 Q-8.25 -2.65 -7.35 -5.15 L-5.55 -9.3 -5.05 -10.45 -5.0 -10.65 -5.0 -10.8 -4.95 -11.0 -4.8 -11.35 -4.3 -11.95 -3.65 -12.5 -3.2 -13.2 -2.75 -13.6 -2.5 -14.0 -2.3 -14.4 -2.0 -14.9 -2.0 -15.05 -1.95 -15.25 -1.85 -15.45 -1.8 -15.6 -1.5 -16.0 -1.25 -16.15 -0.85 -16.35 -0.6 -16.4 -0.25 -16.45 -0.25 -16.5 0.35 -16.4 1.05 -16.1 1.25 -15.95 1.8 -15.2 2.4 -14.25 2.65 -13.85 3.0 -13.5 3.2 -13.3 3.55 -12.95 3.7 -12.75 3.8 -12.55 4.05 -12.35 4.25 -12.2 4.45 -12.0 4.5 -11.8 4.65 -11.6 5.0 -11.25 5.25 -10.85 5.65 -10.1 6.0 -9.75 6.25 -9.35 6.45 -9.0 6.45 -8.8 6.5 -8.6 6.8 -8.1 7.1 -7.3 7.3 -6.55 7.8 -5.6 8.45 -4.3 8.7 -3.75 8.7 -3.55 8.75 -3.35 8.85 -3.2 8.95 -3.0 9.0 -2.8 9.1 -2.6 9.2 -2.45 9.25 -2.25 9.25 -2.05 9.45 -1.7 9.65 -1.3 9.95 -0.75 9.95 -0.55 10.0 -0.35 10.0 -0.2 10.0 0.0 10.05 0.2 10.15 0.4 10.2 0.55 10.25 0.75 10.25 1.3 10.25 1.9 10.25 2.65 10.35 2.8 10.45 3.0 10.45 3.2 10.5 3.4 10.5 3.55 10.5 3.75 10.5 4.15 10.8 4.65 11.1 5.45 11.3 6.2 12.1 7.45 12.85 9.2 13.0 9.55 13.0 9.75 13.0 9.95 13.0 10.1 12.95 10.3 12.95 10.5 12.85 10.7 12.75 10.85 12.65 11.05 12.5 11.25 12.2 11.45 12.0 11.55 11.9 11.65 11.65 11.7 11.25 11.75 10.5 11.55 10.15 11.4 9.7 10.8 9.1 9.9 8.8 9.3 8.75 9.1 8.75 8.95 8.55 8.55 8.35 8.2 7.95 7.65 7.9 7.45 7.8 7.25 7.75 7.05 7.75 6.9 7.75 6.7 7.55 6.3 7.35 5.95 7.05 5.4 7.05 5.2 7.0 5.0 7.0 4.8 7.0 4.65 7.0 4.25 6.95 4.05 6.8 3.9 6.75 3.3 6.75 2.4 6.75 1.45 6.7 1.25 6.65 1.05 6.55 0.9 6.5 0.7 6.5 0.5 6.25 -0.05 5.85 -0.8 5.75 -1.35 5.7 -1.55 5.55 -1.75 5.45 -1.95 5.3 -2.1 5.3 -2.3 5.25 -2.5 5.25 -2.7 5.2 -2.85 4.75 -3.8 4.1 -5.15 3.8 -5.7 3.75 -5.9 3.75 -6.05 3.35 -6.8 2.8 -7.9 2.5 -8.5 2.4 -8.65 2.15 -8.85 0.9 -10.4 0.7 -10.65 0.1 -11.4 0.0 -11.25 -0.25 -11.05 -0.5 -10.85 -1.05 -9.95 -1.6 -9.1 -1.65 -9.05 -1.75 -8.9 -1.8 -8.75 -1.85 -8.7 -2.0 -8.45 -2.05 -8.35 -1.8 -8.25 -1.25 -7.95 -1.1 -7.75 -1.0 -7.55 -0.9 -7.35 -0.8 -7.2 -0.75 -6.8 -0.75 -6.25 -0.75 -5.5 -0.8 -5.3 -0.9 -5.15 -1.0 -4.95 -1.0 -4.55 -1.0 -4.0 -1.0 -3.05 -0.95 -2.9 -0.75 -2.75 0.0 -2.5 0.75 -2.0 1.0 -1.6 1.25 -1.25 1.65 -0.7 2.0 -0.4 2.1 -0.3 2.55 0.25 2.75 0.8 2.75 1.0 2.75 1.2 2.75 1.4 2.75 1.55 2.75 1.75 2.7 1.95 2.6 2.1 2.55 2.25 3.0 2.95 3.45 3.8 3.75 4.45 3.9 4.8 4.2 5.2 4.55 5.75 4.75 6.5 4.85 6.65 4.95 6.8 5.2 7.25 5.75 8.55 5.95 9.15 6.05 9.3 6.25 9.5 6.4 9.7 6.5 9.9 6.6 10.05 6.7 10.25 6.7 10.45 6.75 10.65 6.75 10.8 6.75 11.0 6.7 11.2 6.6 11.35 6.5 11.55 6.45 11.75 Q6.0 12.35 5.25 12.5 L5.0 12.5 Q4.25 12.5 3.65 12.15 L3.25 11.75 2.75 11.2 2.55 10.8 2.5 10.6 2.5 10.45 2.4 10.25 2.3 10.05 2.25 9.85 2.25 9.7 2.2 9.5 1.5 8.0 0.6 6.1 0.45 5.75 0.05 5.15 -0.45 4.25 -0.7 3.9 -0.75 3.5 -0.75 3.15 -0.7 2.55 -0.7 2.4 -0.55 2.25 -1.35 1.35 -1.55 1.2 -2.5 1.3 -3.3 1.9 -3.25 1.95 -3.15 2.15 -3.05 2.3 -3.0 2.5 -3.0 2.7 -3.0 2.85 -3.05 3.05 -3.05 3.25 -3.15 3.45 -3.25 3.6 -3.35 3.8 -3.5 4.0 -3.75 4.2 -3.9 4.55 -4.05 4.95 -4.5 5.5 -4.65 5.85 -4.85 6.2 -5.45 7.0 -5.55 7.4 -5.7 7.75 -6.25 8.5 -6.3 8.7 -6.4 8.85 -6.5 9.05 -6.6 9.25 -6.75 9.45 -6.75 9.6 -6.8 9.8 -6.8 10.0 -6.9 10.2 -7.0 10.4 -7.0 10.55 -7.0 10.75 -7.05 10.95 -7.15 11.1 -7.25 11.3 -7.3 11.5 -7.7 11.85 -8.4 12.15 -8.75 12.25 -9.5 12.05 -9.85 11.9 -10.05 11.7 -10.2 11.5 -10.3 11.3 -10.3 11.25 Q-11.55 12.35 -13.2 12.75 -14.35 13.0 -15.35 12.4 L-15.55 12.2 -15.7 12.0 -15.8 11.8 -15.95 11.65 -15.95 11.45 -16.0 11.25 -16.0 11.05 -16.0 10.9 -16.0 10.7 -15.95 10.5 -15.85 10.3 -15.8 10.15 -15.65 9.95 -15.5 9.75 -15.3 9.55 -15.1 9.4 -14.0 8.95 -13.05 8.7 -13.0 8.5 -13.0 8.3 -13.0 8.15 -12.95 7.95 -12.85 7.75 -12.75 7.55 -12.75 7.2 -12.75 6.65 -12.75 6.0" fill="#575757" fill-opacity="0.54509807" fill-rule="evenodd" stroke="none"/>
  </g>
</svg>
