<?xml version="1.0" encoding="UTF-8" standalone="no"?>
<svg xmlns:ffdec="https://www.free-decompiler.com/flash" xmlns:xlink="http://www.w3.org/1999/xlink" ffdec:objectType="shape" height="36.9px" width="40.55px" xmlns="http://www.w3.org/2000/svg">
  <g transform="matrix(1.0, 0.0, 0.0, 1.0, 46.6, 17.65)">
    <path d="M-23.7 -13.55 Q-29.1 -13.35 -34.55 -13.75 L-34.55 -13.7 -34.9 -13.65 -35.1 -13.6 -35.55 -13.75 -35.9 -13.7 -36.1 -13.6 -36.4 -13.5 -37.85 -12.0 -40.4 -8.45 -40.85 -8.05 -41.15 -7.65 -41.25 -7.5 Q-42.3 -7.15 -42.65 -6.15 -43.05 -5.1 -42.25 -4.3 L-41.3 -4.1 Q-40.35 -4.05 -39.55 -4.6 L-39.0 -5.4 -38.4 -4.7 -37.95 -3.85 -37.75 -3.6 Q-34.3 -0.65 -31.8 3.4 L-28.3 7.35 Q-26.8 9.0 -26.15 10.9 L-25.8 11.4 -25.8 11.55 -25.85 11.85 -25.85 11.95 -25.85 12.3 -25.75 12.35 -25.45 11.8 -25.25 10.95 Q-23.9 8.7 -22.1 6.85 L-20.55 5.3 -20.5 5.1 -20.5 4.95 -17.7 1.75 -16.4 0.25 Q-16.15 -0.9 -15.4 -1.75 L-14.15 -2.95 -13.95 -3.3 -13.4 -4.0 -13.15 -4.25 -12.85 -4.35 -12.7 -4.4 -13.05 -3.2 Q-13.0 -2.5 -12.5 -2.05 L-12.1 -1.9 -11.55 -1.75 Q-10.05 -2.1 -9.7 -3.65 -9.5 -4.75 -9.85 -5.75 L-10.1 -6.45 Q-9.6 -5.45 -9.55 -4.4 -9.5 -3.35 -9.9 -2.25 L-10.2 -2.1 -11.05 -1.75 -11.15 -1.75 -12.35 -0.45 -12.5 -0.25 -12.7 0.15 -12.9 0.5 -13.15 0.7 -13.4 0.9 Q-13.85 2.0 -14.7 2.9 L-15.65 4.25 -20.05 9.25 -21.8 11.4 -23.05 13.8 -24.25 15.3 -24.5 15.5 -24.95 15.65 -25.3 15.75 -25.85 15.6 -26.25 15.45 -26.55 15.05 Q-28.5 15.0 -29.65 12.75 L-30.15 11.95 -30.25 11.75 -30.3 11.55 -30.35 11.4 -32.85 8.35 -34.15 6.85 -34.35 6.65 -36.05 4.25 -36.95 3.5 -37.6 2.75 -37.7 2.55 -37.75 2.4 -37.8 2.2 -39.2 -0.05 -40.4 -1.55 -40.65 -2.15 -40.75 -2.3 -41.4 -2.65 -42.25 -3.05 -42.65 -3.65 -42.8 -4.35 -42.8 -4.4 -42.85 -4.5 -42.9 -4.55 Q-43.2 -7.5 -40.55 -9.45 -38.8 -10.8 -37.65 -12.7 L-36.8 -13.55 -36.8 -13.75 -36.75 -13.95 -36.65 -14.1 -36.55 -14.3 -36.4 -14.5 -36.2 -14.65 -35.85 -14.85 -35.3 -14.95 -35.3 -15.0 -25.0 -13.7 -23.7 -13.55" fill="#33270a" fill-opacity="0.49803922" fill-rule="evenodd" stroke="none"/>
    <path d="M-39.0 -5.4 L-39.55 -4.6 Q-40.35 -4.05 -41.3 -4.1 L-42.25 -4.3 Q-43.05 -5.1 -42.65 -6.15 -42.3 -7.15 -41.25 -7.5 L-41.15 -7.65 -40.85 -8.05 -40.4 -8.45 -37.85 -12.0 -36.4 -13.5 -36.1 -13.6 -35.9 -13.7 -35.55 -13.75 -35.1 -13.6 -34.9 -13.65 -34.55 -13.7 -34.55 -13.75 Q-29.1 -13.35 -23.7 -13.55 L-21.4 -13.7 -19.15 -13.75 -17.4 -13.75 -17.3 -13.85 -17.05 -14.0 -16.3 -14.2 -16.3 -14.25 Q-15.3 -13.6 -14.45 -12.85 -11.5 -10.25 -10.1 -6.45 L-9.85 -5.75 Q-9.5 -4.75 -9.7 -3.65 -10.05 -2.1 -11.55 -1.75 L-12.1 -1.9 -12.5 -2.05 Q-13.0 -2.5 -13.05 -3.2 L-12.7 -4.4 -12.65 -4.5 -12.55 -4.7 -12.55 -4.85 -12.55 -5.05 Q-13.3 -7.45 -15.15 -9.3 L-16.8 -10.9 -23.8 -10.25 -25.75 -10.3 -30.9 -10.6 -34.5 -10.95 -34.9 -10.25 -35.25 -9.7 Q-36.3 -9.1 -36.85 -8.0 -37.15 -7.4 -37.75 -7.05 L-37.8 -6.9 -38.05 -6.5 -38.3 -6.1 -38.95 -5.55 -39.0 -5.4" fill="#33270a" fill-rule="evenodd" stroke="none"/>
    <path d="M-44.9 -9.6 L-44.35 -10.35 -44.3 -10.55 -44.25 -10.75 -44.15 -10.95 -42.4 -13.1 Q-39.4 -16.85 -34.95 -17.65 L-24.75 -17.65 -20.15 -16.75 -16.5 -16.05 Q-14.45 -15.85 -12.75 -14.8 L-12.6 -14.6 -12.5 -14.45 -12.4 -14.25 -12.35 -13.9 Q-11.1 -12.5 -10.25 -10.8 L-9.7 -10.4 -8.5 -9.15 -7.9 -8.2 -7.8 -8.0 -7.65 -7.7 -7.55 -7.25 -7.4 -7.05 -6.45 -5.95 -6.35 -5.85 Q-6.05 -5.5 -6.05 -5.0 L-6.05 -4.65 -6.1 -4.45 Q-6.2 -4.0 -6.5 -3.7 -7.0 -3.3 -7.5 -3.25 -7.9 -1.9 -8.8 -0.75 L-10.85 1.2 -14.85 6.7 -16.4 9.25 -16.7 9.45 -17.2 9.85 -17.4 10.0 Q-19.6 13.75 -22.75 16.65 -23.95 17.75 -25.55 18.25 L-25.9 18.25 -26.1 18.65 -26.25 18.8 -26.5 19.0 -26.75 19.1 -27.3 19.25 -27.85 19.1 -28.25 18.95 -34.95 11.2 Q-36.7 9.15 -37.6 6.55 L-37.8 6.35 -37.9 6.2 -38.0 6.0 -38.05 5.8 -38.1 5.65 Q-40.2 2.7 -42.55 -0.1 -43.95 -1.85 -45.85 -3.0 L-46.05 -3.55 -46.0 -4.25 -46.05 -5.4 -46.3 -5.7 -46.6 -6.45 Q-46.65 -7.05 -46.3 -7.55 L-46.0 -7.95 -44.9 -9.6 M-23.7 -13.55 L-25.0 -13.7 -35.3 -15.0 -35.3 -14.95 -35.85 -14.85 -36.2 -14.65 -36.4 -14.5 -36.55 -14.3 -36.65 -14.1 -36.75 -13.95 -36.8 -13.75 -36.8 -13.55 -37.65 -12.7 Q-38.8 -10.8 -40.55 -9.45 -43.2 -7.5 -42.9 -4.55 L-42.85 -4.5 -42.9 -4.45 -42.8 -4.35 -42.65 -3.65 -42.25 -3.05 -41.4 -2.65 -40.75 -2.3 -40.65 -2.15 -40.4 -1.55 -39.2 -0.05 -37.8 2.2 -37.75 2.4 -37.7 2.55 -37.6 2.75 -36.95 3.5 -36.05 4.25 -34.35 6.65 -34.15 6.85 -33.25 8.35 -32.85 8.35 -30.35 11.4 -30.3 11.55 -30.25 11.75 -30.15 11.95 -29.65 12.75 Q-28.5 15.0 -26.55 15.05 L-26.25 15.45 -25.85 15.6 -25.3 15.75 -24.95 15.65 -24.5 15.5 -24.25 15.3 -23.05 13.8 -21.8 11.4 -20.05 9.25 -15.65 4.25 -14.7 2.9 Q-13.85 2.0 -13.4 0.9 L-13.15 0.7 -12.9 0.5 -12.7 0.15 -12.5 -0.25 -12.35 -0.45 -11.15 -1.75 -11.05 -1.75 -10.2 -2.1 -9.9 -2.25 Q-9.5 -3.35 -9.55 -4.4 -9.6 -5.45 -10.1 -6.45 -11.5 -10.25 -14.45 -12.85 L-14.8 -13.4 Q-15.4 -14.15 -16.3 -14.25 L-16.8 -14.25 -19.15 -13.75 -21.4 -13.7 -23.7 -13.55" fill="#575757" fill-opacity="0.49019608" fill-rule="evenodd" stroke="none"/>
  </g>
</svg>
