<?xml version="1.0" encoding="UTF-8" standalone="no"?>
<svg xmlns:ffdec="https://www.free-decompiler.com/flash" xmlns:xlink="http://www.w3.org/1999/xlink" ffdec:objectType="shape" height="17.2px" width="16.8px" xmlns="http://www.w3.org/2000/svg">
  <g transform="matrix(1.0, 0.0, 0.0, 1.0, 8.5, 8.65)">
    <path d="M2.5 -7.05 L2.45 -7.05 2.4 -7.0 2.35 -6.9 2.35 -6.85 2.35 -6.7 2.35 -6.6 2.4 -6.45 2.55 -6.05 2.55 -5.9 2.25 -6.3 2.2 -6.3 2.15 -6.4 1.9 -6.45 1.65 -6.45 1.5 -6.4 1.5 -6.3 1.45 -6.25 1.45 -6.15 1.45 -6.0 1.45 -5.9 1.5 -5.85 1.55 -5.75 1.55 -5.7 1.55 -5.6 1.55 -5.45 1.6 -5.35 1.55 -5.2 1.55 -5.1 1.55 -5.05 1.55 -4.95 1.6 -4.85 1.75 -4.5 Q1.75 -3.2 1.9 -1.9 L2.05 0.9 Q1.9 3.45 1.25 5.85 L1.1 5.75 1.05 5.65 1.0 5.6 1.0 5.5 1.0 5.4 0.95 5.35 0.9 5.25 0.8 5.2 0.65 5.15 0.45 5.2 0.4 5.25 0.35 5.35 0.35 5.4 0.25 5.5 0.2 5.65 0.2 5.75 0.2 5.8 0.15 5.9 0.15 5.95 0.05 6.0 0.05 6.1 0.0 6.15 0.0 6.6 0.0 7.1 0.0 7.55 -0.4 7.6 -0.6 7.55 -0.9 6.95 -1.3 5.7 -1.25 5.65 -1.35 5.5 -1.45 5.5 -1.55 5.4 -1.65 5.35 -2.15 4.2 -2.75 2.95 -2.85 0.55 -2.95 0.05 -3.05 -1.1 -2.9 -0.5 -2.8 -0.25 -2.7 -1.4 -2.3 -3.55 -2.3 -3.75 -2.1 -4.9 -2.1 -4.95 -1.95 -5.6 -1.75 -6.35 -1.7 -6.45 -1.7 -6.55 -1.7 -6.65 -1.6 -6.9 -1.35 -7.35 -1.35 -7.45 -1.25 -7.45 -0.95 -7.55 -0.9 -7.55 -0.8 -7.55 -0.65 -7.55 -0.55 -7.45 -0.5 -7.4 0.1 -7.45 2.5 -7.05 M1.15 7.55 L1.2 7.45 1.35 7.3 1.75 7.45 1.9 7.4 2.15 7.2 2.3 7.05 2.35 7.1 2.4 7.25 2.4 7.3 2.4 7.4 2.55 7.45 2.7 7.5 2.8 7.45 2.9 7.45 2.95 7.4 2.95 7.3 3.1 7.0 3.15 6.8 3.35 6.75 3.45 6.65 3.5 6.55 3.6 6.4 3.7 6.3 3.7 6.4 3.7 6.45 3.75 6.55 3.75 6.6 3.8 6.65 3.9 6.75 4.1 6.8 4.15 6.8 4.25 6.8 Q3.3 7.4 2.25 7.7 L1.15 7.55 M4.4 6.65 L4.45 6.55 4.5 6.4 4.5 6.35 4.55 6.3 4.7 5.95 4.8 5.75 5.0 5.75 5.3 5.75 5.4 5.7 5.5 5.6 5.7 5.25 6.1 4.45 6.45 3.45 6.6 3.4 6.7 3.4 6.75 3.35 6.8 3.25 6.85 3.15 6.85 3.1 6.9 2.5 Q7.0 1.6 7.25 0.8 L7.4 -0.65 7.3 -0.8 7.2 -0.9 7.15 -1.0 7.1 -1.55 6.95 -2.2 6.8 -3.15 6.75 -3.4 6.6 -3.85 Q7.8 -2.0 7.8 0.25 7.8 3.45 5.55 5.7 L4.4 6.65 M6.1 -4.6 L5.95 -4.6 5.9 -4.55 5.8 -4.55 5.8 -4.5 5.7 -4.6 5.7 -4.7 5.6 -4.75 5.35 -5.05 4.8 -5.4 4.5 -6.1 5.55 -5.2 6.1 -4.6 M3.7 -6.55 L3.6 -6.45 3.5 -6.4 3.45 -6.3 3.45 -6.25 3.45 -6.15 3.45 -6.05 3.45 -5.9 3.4 -5.9 3.4 -5.95 3.3 -6.25 3.2 -6.5 3.2 -6.55 3.2 -6.65 3.1 -6.85 3.7 -6.55 M3.35 -1.75 L3.55 -0.3 3.45 1.45 3.35 0.1 3.35 -1.75 M5.45 3.9 L5.25 4.55 5.15 4.65 5.3 4.1 5.4 3.85 5.4 3.9 5.45 3.9 M0.7 6.75 L0.7 6.6 0.8 6.65 0.75 6.85 0.7 6.75 M4.2 2.05 L4.25 2.3 4.25 2.6 4.25 3.0 4.1 3.15 4.0 3.45 4.0 3.55 4.0 3.65 4.0 3.8 4.0 3.85 3.95 3.9 3.85 4.0 4.0 3.1 4.1 1.85 4.2 2.05 M-1.95 -7.2 L-1.75 -7.2 -1.9 -6.9 Q-1.9 -6.65 -2.05 -6.55 L-2.05 -6.6 -1.95 -7.2 M-0.85 -6.25 L-0.75 -6.35 -0.7 -6.4 -0.7 -6.8 -0.95 -6.4 -0.95 -6.3 -0.95 -6.25 -0.9 -6.15 -0.9 -6.25 -0.85 -6.25 M-6.3 -3.9 L-6.35 -3.85 -6.6 -3.3 -6.7 -3.25 -7.0 -2.35 -7.25 -1.45 -7.25 -0.3 -7.15 0.8 -7.3 0.8 -7.5 0.85 -7.55 0.9 -7.55 0.95 -7.6 0.25 Q-7.6 -2.05 -6.3 -3.9 M-7.5 1.7 L-6.2 4.25 -5.75 5.25 Q-7.1 3.7 -7.5 1.7 M-2.55 7.4 L-2.95 5.7 -2.8 5.8 -2.7 5.95 -2.65 6.0 -2.4 6.55 -2.15 6.95 -2.15 7.05 -2.15 7.1 -2.15 7.2 -2.15 7.25 -2.1 7.3 -2.0 7.4 -1.8 7.45 -2.55 7.4 M-1.5 1.35 L-1.45 0.2 -1.45 -0.5 -1.5 1.35 M-1.3 -1.85 L-1.15 -1.8 -1.0 -1.85 -0.95 -1.9 -0.85 -2.0 -0.85 -2.1 -0.8 -2.15 -0.75 -3.0 -0.85 -3.7 -1.25 -2.0 -1.3 -1.85 M-5.25 -1.2 L-5.25 -2.0 -5.15 -2.0 -4.9 -1.95 -4.95 -1.55 -5.05 -1.05 -5.05 -0.95 -5.1 -0.65 -5.15 -0.5 -5.25 -1.2 M-3.35 7.2 L-3.45 7.1 -3.65 6.7 -3.9 6.25 -3.8 6.25 -3.65 6.2 -3.55 6.3 -3.45 6.8 -3.35 7.2" fill="#515151" fill-rule="evenodd" stroke="none"/>
    <path d="M-0.95 -7.55 L-1.25 -7.45 -1.35 -7.45 -1.35 -7.35 -1.6 -6.9 -1.7 -6.65 -1.7 -6.55 -1.7 -6.45 -1.75 -6.35 -1.95 -5.6 -2.1 -4.95 -2.1 -4.9 -2.3 -3.75 -2.3 -3.55 -2.7 -1.4 -2.8 -0.25 -2.9 -0.5 -3.05 -1.1 -2.95 0.05 -2.85 0.55 -2.75 2.95 -2.15 4.2 -1.65 5.35 -1.55 5.4 -1.45 5.5 -1.35 5.5 -1.25 5.65 -1.3 5.7 -0.9 6.95 -0.6 7.55 -1.55 7.45 -1.75 7.45 -1.8 7.45 -2.0 7.4 -2.1 7.3 -2.15 7.25 -2.15 7.2 -2.15 7.1 -2.15 7.05 -2.15 6.95 -2.4 6.55 -2.65 6.0 -2.7 5.95 -2.8 5.8 -2.95 5.7 -2.55 7.4 -3.9 7.3 -4.0 7.3 -5.4 6.0 -5.75 5.25 -6.2 4.25 -7.5 1.7 -7.65 1.45 -7.65 1.4 -7.65 1.3 -7.65 1.15 -7.65 1.05 -7.65 1.0 -7.55 0.95 -7.55 0.9 -7.5 0.85 -7.3 0.8 -7.15 0.8 -7.25 -0.3 -7.25 -1.45 -7.0 -2.35 -6.7 -3.25 -6.6 -3.3 -6.35 -3.85 -6.3 -3.9 -6.25 -4.05 -6.05 -4.55 -5.95 -4.55 -5.85 -4.55 -5.8 -4.65 -5.7 -4.75 -5.5 -5.35 -5.1 -6.0 -5.05 -6.0 -4.75 -6.1 -4.75 -6.25 -4.65 -6.5 -4.65 -6.55 -4.5 -6.7 -4.35 -6.8 -4.3 -6.8 -4.15 -6.85 -4.0 -6.8 -3.9 -6.8 -3.85 -6.9 -3.8 -7.0 -3.65 -7.15 -3.6 -7.2 -3.45 -7.2 -3.3 -7.2 -3.2 -7.1 -3.15 -7.05 -3.1 -6.95 -3.05 -6.95 -2.9 -7.45 -2.4 -8.1 -2.25 -8.1 -2.1 -8.1 -2.0 -8.0 -1.95 -7.95 -1.9 -7.3 -1.95 -7.2 -2.05 -6.6 -2.05 -6.55 Q-1.9 -6.65 -1.9 -6.9 L-1.75 -7.2 -1.55 -7.5 -1.5 -7.55 -1.35 -7.55 -1.2 -7.55 -1.0 -7.55 -0.95 -7.55 M-0.85 -6.25 L-0.9 -6.25 -0.9 -6.15 -0.95 -6.25 -0.95 -6.3 -0.95 -6.4 -0.7 -6.8 -0.7 -6.4 -0.75 -6.35 -0.85 -6.25 M-5.25 -1.2 L-5.15 -0.5 -5.1 -0.65 -5.05 -0.95 -5.05 -1.05 -4.95 -1.55 -4.9 -1.95 -5.15 -2.0 -5.25 -2.0 -5.25 -1.2 M-1.3 -1.85 L-1.25 -2.0 -0.85 -3.7 -0.75 -3.0 -0.8 -2.15 -0.85 -2.1 -0.85 -2.0 -0.95 -1.9 -1.0 -1.85 -1.15 -1.8 -1.3 -1.85 M-1.5 1.35 L-1.45 -0.5 -1.45 0.2 -1.5 1.35 M-3.45 7.1 L-3.35 7.25 -3.35 7.2 -3.45 6.8 -3.55 6.3 -3.65 6.2 -3.8 6.25 -3.9 6.25 -3.65 6.7 -3.45 7.1" fill="#666666" fill-rule="evenodd" stroke="none"/>
    <path d="M0.0 7.55 L0.0 7.1 0.0 6.6 0.0 6.15 0.05 6.1 0.05 6.0 0.15 5.95 0.15 5.9 0.2 5.8 0.2 5.75 0.2 5.65 0.25 5.5 0.35 5.4 0.35 5.35 0.4 5.25 0.45 5.2 0.65 5.15 0.8 5.2 0.9 5.25 0.95 5.35 1.0 5.4 1.0 5.5 1.0 5.6 1.05 5.65 1.1 5.75 1.25 5.85 Q1.9 3.45 2.05 0.9 L1.9 -1.9 Q1.75 -3.2 1.75 -4.5 L1.6 -4.85 1.55 -4.95 1.55 -5.05 1.55 -5.1 1.55 -5.2 1.6 -5.35 1.55 -5.45 1.55 -5.6 1.55 -5.7 1.55 -5.75 1.5 -5.85 1.45 -5.9 1.45 -6.0 1.45 -6.15 1.45 -6.25 1.5 -6.3 1.5 -6.4 1.65 -6.45 1.9 -6.45 2.15 -6.4 2.2 -6.3 2.25 -6.3 2.55 -5.9 2.55 -6.05 2.4 -6.45 2.35 -6.6 2.35 -6.7 2.35 -6.85 2.35 -6.9 2.4 -7.0 2.45 -7.05 2.5 -7.05 2.55 -7.1 2.7 -7.15 2.85 -7.1 2.95 -7.05 3.0 -6.95 3.1 -6.85 3.2 -6.65 3.2 -6.55 3.2 -6.5 3.3 -6.25 3.4 -5.95 3.4 -5.9 3.45 -5.9 3.45 -6.05 3.45 -6.15 3.45 -6.25 3.45 -6.3 3.5 -6.4 3.6 -6.45 3.7 -6.55 3.75 -6.55 3.9 -6.6 4.0 -6.6 4.1 -6.55 4.25 -6.5 4.5 -6.1 4.8 -5.4 5.35 -5.05 5.6 -4.75 5.7 -4.7 5.7 -4.6 5.8 -4.5 5.8 -4.55 5.9 -4.55 5.95 -4.6 6.1 -4.6 6.2 -4.55 6.35 -4.5 6.6 -3.9 6.6 -3.85 6.75 -3.4 6.8 -3.15 6.95 -2.2 7.1 -1.55 7.15 -1.0 7.2 -0.9 7.3 -0.8 7.4 -0.65 7.25 0.8 Q7.0 1.6 6.9 2.5 L6.85 3.1 6.85 3.15 6.8 3.25 6.75 3.35 6.7 3.4 6.6 3.4 6.45 3.45 6.1 4.45 5.7 5.25 5.5 5.6 5.4 5.7 5.3 5.75 5.0 5.75 4.8 5.75 4.7 5.95 4.55 6.3 4.5 6.35 4.5 6.4 4.45 6.55 4.4 6.65 4.35 6.7 4.25 6.75 4.25 6.8 4.15 6.8 4.1 6.8 3.9 6.75 3.8 6.65 3.75 6.6 3.75 6.55 3.7 6.45 3.7 6.4 3.7 6.3 3.6 6.4 3.5 6.55 3.45 6.65 3.35 6.75 3.15 6.8 3.1 7.0 2.95 7.3 2.95 7.4 2.9 7.45 2.8 7.45 2.7 7.5 2.55 7.45 2.4 7.4 2.4 7.3 2.4 7.25 2.35 7.1 2.3 7.05 2.15 7.2 1.9 7.4 1.75 7.45 1.35 7.3 1.2 7.45 1.15 7.55 0.65 7.5 0.0 7.55 M3.35 -1.75 L3.35 0.1 3.45 1.45 3.55 -0.3 3.35 -1.75 M5.45 3.9 L5.4 3.9 5.4 3.85 5.3 4.1 5.15 4.65 5.25 4.55 5.45 3.9 M4.2 2.05 L4.1 1.85 4.0 3.1 3.85 4.0 3.95 3.9 4.0 3.85 4.0 3.8 4.0 3.65 4.0 3.55 4.0 3.45 4.1 3.15 4.25 3.0 4.25 2.6 4.25 2.3 4.2 2.05 M0.7 6.75 L0.75 6.85 0.8 6.65 0.7 6.6 0.7 6.75" fill="#454545" fill-rule="evenodd" stroke="none"/>
    <path d="M5.95 -2.85 L3.3 -5.15 Q1.8 -6.1 0.1 -6.65 -1.25 -6.85 -2.35 -6.15 L-2.95 -6.45 -3.2 -6.3 -3.65 -6.05 -4.45 -5.5 Q-4.7 -5.3 -4.8 -5.25 L-6.15 -3.3 Q-6.7 -2.2 -6.6 -1.05 L-6.15 0.8 -4.35 4.55 -3.4 5.95 2.2 6.05 3.2 5.6 Q4.4 5.05 5.0 4.1 5.4 3.4 5.9 2.85 L5.95 -2.85 M5.15 -6.7 L5.15 -6.65 6.05 -5.6 6.9 -4.5 7.65 -3.0 8.25 -1.15 8.25 0.1 8.25 1.05 Q8.45 2.5 7.95 3.85 L7.85 4.05 Q7.3 5.3 6.35 6.3 5.75 6.45 5.3 6.8 L3.95 7.55 1.05 8.45 -2.2 8.2 -3.45 7.7 -4.05 7.5 -6.3 5.2 Q-7.4 3.7 -8.1 1.85 -8.75 0.15 -8.4 -1.65 L-7.9 -2.9 -7.05 -4.55 Q-6.3 -6.2 -4.8 -7.25 L-4.45 -7.5 -3.7 -7.9 -0.05 -8.65 3.05 -8.0 3.8 -7.85 Q4.75 -7.55 5.15 -6.7" fill="#000000" fill-rule="evenodd" stroke="none"/>
  </g>
</svg>
