<?xml version="1.0" encoding="UTF-8" standalone="no"?>
<svg xmlns:ffdec="https://www.free-decompiler.com/flash" xmlns:xlink="http://www.w3.org/1999/xlink" ffdec:objectType="shape" height="268.1px" width="9.15px" xmlns="http://www.w3.org/2000/svg">
  <g transform="matrix(1.0, 0.0, 0.0, 1.0, 4.55, -9.0)">
    <path d="M0.85 11.0 L0.75 10.85 Q0.5 10.15 0.55 9.45 L0.6 9.0 2.4 9.0 2.4 9.35 2.4 9.8 2.4 10.25 2.45 10.4 2.55 10.5 2.6 10.65 2.6 10.7 2.6 10.85 2.6 10.95 2.6 11.0 0.85 11.0 2.6 11.0 2.6 11.1 2.55 11.15 2.75 11.2 Q4.7 12.2 4.45 13.95 L4.45 14.0 Q4.35 14.95 3.7 15.8 L3.7 15.9 3.75 16.15 3.65 16.5 3.6 16.6 3.15 17.1 2.45 17.75 1.95 17.85 1.45 17.85 1.45 17.95 1.5 18.15 1.55 18.25 1.6 18.4 1.7 18.5 1.7 19.45 1.75 19.75 2.7 20.15 3.2 20.65 3.25 20.85 3.25 21.1 3.25 21.3 3.55 21.75 3.9 22.45 3.9 22.6 3.9 22.7 3.9 22.85 3.9 22.9 3.9 23.05 Q4.3 23.75 4.3 24.55 L4.05 26.15 3.35 26.65 2.7 27.0 2.6 27.05 2.5 27.1 2.15 27.15 1.9 27.1 1.75 27.0 1.5 26.95 1.45 26.9 1.45 27.0 1.6 27.3 1.7 27.45 1.7 27.65 1.7 28.05 1.8 28.15 1.9 28.25 1.95 28.35 1.95 28.8 1.95 29.3 1.9 29.4 1.8 29.55 1.7 29.65 1.7 30.3 1.7 30.4 1.95 30.4 Q5.05 31.4 4.5 34.05 4.3 35.05 4.4 36.0 L4.3 36.1 4.25 36.2 4.15 36.35 4.15 36.45 4.15 36.55 4.1 36.7 4.05 36.8 3.8 37.05 3.4 37.4 3.2 37.65 3.05 37.7 2.75 37.85 2.4 37.95 2.2 37.9 1.95 37.85 2.0 38.0 2.1 38.1 2.15 38.25 2.25 39.6 Q2.35 40.6 1.95 41.5 L2.35 41.6 2.95 41.8 3.7 42.85 Q4.05 43.4 3.9 44.0 L4.0 44.1 4.1 44.25 4.15 44.35 4.25 45.1 Q4.3 45.7 3.9 46.2 L3.9 46.4 3.9 46.75 3.85 47.0 3.35 47.45 2.9 48.15 2.0 48.6 2.3 50.25 Q2.35 51.0 2.0 51.65 2.75 51.65 3.15 52.05 L3.65 52.5 3.95 55.2 3.8 57.4 3.65 57.5 3.5 57.65 3.15 57.85 3.0 57.95 3.0 58.0 2.8 58.2 2.4 58.5 2.3 58.55 1.95 58.6 1.5 58.5 1.55 58.65 1.6 58.75 1.7 58.85 1.7 59.0 1.7 59.1 1.7 59.2 Q2.05 59.6 2.0 60.15 L2.0 60.5 1.95 61.5 1.9 61.65 1.8 61.75 1.75 61.85 1.95 61.85 2.35 61.9 2.65 62.15 3.05 62.75 3.05 62.95 3.15 63.05 3.2 63.15 3.25 63.3 3.35 63.9 3.7 65.05 3.7 65.15 Q4.35 66.2 3.55 67.2 2.8 68.05 1.7 68.7 L1.6 68.75 1.05 68.75 1.05 68.8 1.05 69.15 1.0 69.9 1.45 69.95 2.55 70.1 2.75 70.2 2.95 70.3 3.15 70.4 3.15 70.55 3.2 70.65 3.25 70.8 3.25 70.9 3.25 71.05 3.6 71.7 3.75 73.2 3.7 73.45 3.8 73.55 3.9 73.65 3.9 73.8 3.9 74.1 3.9 74.8 3.8 75.3 3.65 75.4 3.55 75.5 3.4 75.65 3.35 75.75 2.45 76.4 2.2 76.7 2.25 77.05 2.0 78.1 1.95 78.2 2.0 79.05 Q2.05 79.65 1.7 80.2 L1.7 80.7 1.95 80.65 2.4 80.65 2.75 80.7 Q4.7 81.8 4.45 83.55 4.35 84.5 3.7 85.35 L3.7 85.45 3.75 85.7 3.65 86.05 3.6 86.15 3.15 86.6 2.45 87.35 1.95 87.4 1.45 87.4 1.45 87.5 1.5 87.7 1.55 87.8 1.6 87.95 1.7 88.05 1.7 89.0 1.75 89.35 Q2.3 89.4 2.7 89.7 L3.2 90.15 3.25 90.4 3.25 90.65 3.25 90.85 3.55 91.35 3.9 92.0 3.9 92.15 3.9 92.25 3.9 92.35 3.9 92.5 3.9 92.6 Q4.3 93.3 4.3 94.1 L4.05 95.7 3.35 96.2 2.6 96.6 2.5 96.65 2.15 96.7 1.9 96.6 1.75 96.6 1.5 96.5 1.4 96.4 1.3 96.25 1.25 96.15 1.25 96.2 1.3 96.25 1.45 96.55 1.6 96.85 1.7 97.0 1.7 97.25 1.7 97.55 1.8 97.7 1.9 97.8 1.95 97.95 1.95 98.4 1.95 98.85 1.9 98.95 1.8 99.05 1.7 99.2 1.7 99.9 1.7 100.0 1.95 99.95 Q5.05 100.95 4.5 103.65 4.3 104.55 4.4 105.55 L4.3 105.7 4.25 105.8 4.15 105.9 4.15 106.0 4.15 106.15 4.1 106.25 4.05 106.35 3.8 106.6 3.4 106.95 3.2 107.15 3.05 107.3 2.75 107.4 2.4 107.5 2.2 107.5 1.95 107.45 2.0 107.55 2.1 107.7 2.15 107.8 2.25 109.2 Q2.35 110.15 1.95 111.05 L2.35 111.1 2.95 111.35 3.7 112.4 Q4.05 112.95 3.9 113.55 L4.0 113.65 4.1 113.8 4.15 113.9 4.25 114.7 3.9 115.75 3.9 116.0 3.9 116.3 3.85 116.55 3.35 117.0 2.9 117.7 Q2.5 118.05 2.0 118.2 L2.3 119.85 Q2.35 120.55 2.0 121.2 2.75 121.25 3.15 121.65 L3.65 122.1 3.95 124.75 3.8 126.95 3.65 127.05 3.5 127.2 3.15 127.4 3.0 127.55 2.8 127.75 2.4 128.1 2.3 128.1 1.95 128.15 1.5 128.05 1.5 128.1 1.55 128.2 1.6 128.3 1.7 128.45 1.7 128.55 1.7 128.65 1.7 128.75 Q2.05 129.2 2.0 129.7 L1.95 131.1 1.9 131.2 1.8 131.3 1.75 131.4 1.95 131.4 2.35 131.45 2.65 131.75 3.05 132.3 3.05 132.5 3.15 132.6 3.2 132.75 3.25 132.85 3.35 133.45 3.7 134.6 3.7 134.7 Q4.35 135.75 3.55 136.75 2.8 137.6 1.7 138.25 L1.6 138.3 1.05 138.35 1.05 138.7 1.0 139.45 1.45 139.5 2.55 139.65 2.75 139.8 2.95 139.85 3.15 140.0 3.15 140.1 3.2 140.2 3.25 140.35 3.25 140.45 3.25 140.55 3.6 141.25 3.75 142.75 3.7 143.0 3.8 143.1 3.9 143.25 3.9 143.35 3.9 143.7 3.9 144.0 4.45 144.0 Q4.35 144.95 3.7 145.8 L3.7 145.9 3.75 146.15 3.65 146.5 3.6 146.6 3.15 147.1 2.45 147.75 1.95 147.85 1.45 147.85 1.45 147.95 1.5 148.15 1.55 148.25 1.6 148.4 1.7 148.5 1.7 149.45 1.75 149.75 2.7 150.15 3.2 150.65 3.25 150.85 3.25 151.1 3.25 151.3 3.55 151.75 3.9 152.45 3.9 152.6 3.9 152.7 3.9 152.85 3.9 152.9 3.9 153.05 Q4.3 153.75 4.3 154.55 L4.05 156.15 3.35 156.65 2.7 157.0 2.6 157.05 2.5 157.1 2.15 157.15 1.9 157.1 1.75 157.0 1.5 156.95 1.45 156.9 1.45 157.0 1.6 157.3 1.7 157.45 1.7 157.65 1.7 158.05 1.8 158.15 1.9 158.25 1.95 158.35 1.95 158.8 1.95 159.3 1.9 159.4 1.8 159.55 1.7 159.65 1.7 160.3 1.7 160.4 1.95 160.4 Q5.05 161.4 4.5 164.05 4.3 165.05 4.4 166.0 L4.3 166.1 4.25 166.2 4.15 166.35 4.15 166.45 4.15 166.55 4.1 166.7 4.05 166.8 3.8 167.05 3.4 167.4 3.2 167.65 3.05 167.7 2.75 167.85 2.4 167.95 2.2 167.9 1.95 167.85 2.0 168.0 2.1 168.1 2.15 168.25 2.25 169.6 Q2.35 170.6 1.95 171.5 L2.35 171.6 2.95 171.8 3.7 172.85 Q4.05 173.4 3.9 174.0 L4.0 174.1 4.1 174.25 4.15 174.35 4.25 175.1 Q4.3 175.7 3.9 176.2 L3.9 176.4 3.9 176.75 3.85 177.0 3.35 177.45 2.9 178.15 2.0 178.6 2.3 180.25 Q2.35 181.0 2.0 181.65 2.75 181.65 3.15 182.05 L3.65 182.5 3.95 185.2 3.8 187.4 3.65 187.5 3.5 187.65 3.15 187.85 3.0 187.95 3.0 188.0 2.8 188.2 2.4 188.5 2.3 188.55 1.95 188.6 1.5 188.5 1.55 188.65 1.6 188.75 1.7 188.85 1.7 189.0 1.7 189.1 1.7 189.2 Q2.05 189.6 2.0 190.15 L2.0 190.5 1.95 191.5 1.9 191.65 1.8 191.75 1.75 191.85 1.95 191.85 2.35 191.9 2.65 192.15 3.05 192.75 3.05 192.95 3.15 193.05 3.2 193.15 3.25 193.3 3.35 193.9 3.7 195.05 3.7 195.15 Q4.35 196.2 3.55 197.2 2.8 198.05 1.7 198.7 L1.6 198.75 1.05 198.75 1.05 198.8 1.05 199.15 1.0 199.9 1.45 199.95 2.55 200.1 2.75 200.2 2.95 200.3 3.15 200.4 3.15 200.55 3.2 200.65 3.25 200.8 3.25 200.9 3.25 201.05 3.6 201.7 3.75 203.2 3.7 203.45 3.8 203.55 3.9 203.65 3.9 203.8 3.9 204.1 3.9 204.8 3.8 205.3 3.65 205.4 3.55 205.5 3.4 205.65 3.35 205.75 2.45 206.4 2.2 206.7 2.25 207.05 2.0 208.1 1.95 208.2 2.0 209.05 Q2.05 209.65 1.7 210.2 L1.7 210.7 1.95 210.65 2.4 210.65 2.75 210.7 Q4.7 211.8 4.45 213.55 4.35 214.5 3.7 215.35 L3.7 215.45 3.75 215.7 3.65 216.05 3.6 216.15 3.15 216.6 2.45 217.35 1.95 217.4 1.45 217.4 1.45 217.5 1.5 217.7 1.55 217.8 1.6 217.95 1.7 218.05 1.7 219.0 1.75 219.35 Q2.3 219.4 2.7 219.7 L3.2 220.15 3.25 220.4 3.25 220.65 3.25 220.85 3.55 221.35 3.9 222.0 3.9 222.15 3.9 222.25 3.9 222.35 3.9 222.5 3.9 222.6 Q4.3 223.3 4.3 224.1 L4.05 225.7 3.35 226.2 2.6 226.6 2.5 226.65 2.15 226.7 1.9 226.6 1.75 226.6 1.5 226.5 1.4 226.4 1.3 226.25 1.25 226.15 1.25 226.2 1.3 226.25 1.45 226.55 1.6 226.85 1.7 227.0 1.7 227.25 1.7 227.55 1.8 227.7 1.9 227.8 1.95 227.95 1.95 228.4 1.95 228.85 1.9 228.95 1.8 229.05 1.7 229.2 1.7 229.9 1.7 230.0 1.95 229.95 Q5.05 230.95 4.5 233.65 4.3 234.55 4.4 235.55 L4.3 235.7 4.25 235.8 4.15 235.9 4.15 236.0 4.15 236.15 4.1 236.25 4.05 236.35 3.8 236.6 3.4 236.95 3.2 237.15 3.05 237.3 2.75 237.4 2.4 237.5 2.2 237.5 1.95 237.45 2.0 237.55 2.1 237.7 2.15 237.8 2.25 239.2 Q2.35 240.15 1.95 241.05 L2.35 241.1 2.95 241.35 3.7 242.4 Q4.05 242.95 3.9 243.55 L4.0 243.65 4.1 243.8 4.15 243.9 4.25 244.7 3.9 245.75 3.9 246.0 3.9 246.3 3.85 246.55 3.35 247.0 2.9 247.7 Q2.5 248.05 2.0 248.2 L2.3 249.85 Q2.35 250.55 2.0 251.2 2.75 251.25 3.15 251.65 L3.65 252.1 3.95 254.75 3.8 256.95 3.65 257.05 3.5 257.2 3.15 257.4 3.0 257.55 2.8 257.75 2.4 258.1 2.3 258.1 1.95 258.15 1.5 258.05 1.5 258.1 1.55 258.2 1.6 258.3 1.7 258.45 1.7 258.55 1.7 258.65 1.7 258.75 Q2.05 259.2 2.0 259.7 L1.95 261.1 1.9 261.2 1.8 261.3 1.75 261.4 1.95 261.4 2.35 261.45 2.65 261.75 3.05 262.3 3.05 262.5 3.15 262.6 3.2 262.75 3.25 262.85 3.35 263.45 3.7 264.6 3.7 264.7 Q4.35 265.75 3.55 266.75 2.8 267.6 1.7 268.25 L1.6 268.3 1.05 268.35 1.05 268.7 1.0 269.45 1.45 269.5 2.55 269.65 2.75 269.8 2.95 269.85 3.15 270.0 3.15 270.1 3.2 270.2 3.25 270.35 3.25 270.45 3.25 270.55 3.6 271.25 3.75 272.75 3.7 273.0 3.8 273.1 3.9 273.25 3.9 273.35 3.9 273.7 3.9 274.4 3.8 274.85 3.65 274.95 3.55 275.05 3.4 275.2 3.35 275.3 2.45 275.95 1.0 277.05 0.6 277.1 0.15 277.0 -0.05 276.95 -0.25 276.7 -0.3 276.6 -0.3 276.35 -0.25 276.15 0.1 275.9 0.65 275.45 2.1 274.25 2.15 274.15 2.15 274.05 2.15 273.9 2.1 273.8 2.0 273.7 1.95 273.55 1.95 273.1 2.0 272.05 1.95 271.75 1.8 271.5 1.75 271.35 1.6 271.15 1.5 270.9 1.05 270.8 0.6 270.7 0.5 270.65 0.45 270.7 0.35 270.8 0.15 270.9 0.1 271.0 0.1 271.05 0.05 271.15 -0.05 271.2 -0.3 271.25 -0.9 271.25 -1.0 271.25 -1.2 271.15 -1.55 270.95 -1.65 270.9 -1.75 271.05 -1.85 271.2 -2.0 271.3 Q-2.4 271.9 -2.35 272.6 L-2.3 273.85 -2.3 273.95 -2.2 274.2 -1.75 274.8 -1.65 274.9 -1.4 274.95 -0.55 275.05 -0.35 275.15 -0.25 275.3 -0.1 275.35 -0.1 275.6 -0.15 275.9 -0.25 276.1 -0.4 276.2 -0.95 276.35 -2.1 276.3 -2.3 276.15 -2.55 276.05 -2.85 275.9 -3.1 275.7 -3.75 275.15 -3.8 275.0 -3.85 274.9 -3.85 274.75 -3.85 274.65 -3.95 274.55 -4.05 274.4 -4.1 274.3 -4.1 274.2 -4.1 274.05 -4.1 273.85 -4.1 273.7 -4.15 273.6 -4.25 273.5 -4.3 273.4 -4.3 273.25 -4.3 273.05 -4.1 272.7 -4.1 272.35 -4.1 271.65 -4.1 271.45 -4.05 271.3 -3.95 271.2 -3.85 271.05 -3.85 270.95 -3.85 270.85 -3.8 270.7 -3.7 270.6 -3.4 270.35 -3.35 270.15 -3.0 269.7 -3.0 269.55 -3.0 269.1 -2.9 268.3 -2.85 268.2 -3.05 267.75 -3.8 266.9 -4.0 266.4 -4.5 265.65 -4.55 265.5 -4.55 263.65 -4.5 261.1 Q-3.8 260.6 -2.85 260.4 L-2.3 260.35 -1.85 260.35 -1.45 260.4 -1.45 259.85 -1.45 258.9 -1.2 258.25 -1.2 258.1 -1.2 258.0 -1.2 257.9 -1.2 257.8 -1.45 257.85 -2.1 257.75 -2.45 257.5 -2.85 257.1 -3.05 256.95 -3.25 256.85 -3.35 256.7 -3.4 256.6 -3.4 256.5 -3.4 256.4 -3.4 256.25 -3.65 255.8 -3.65 255.1 -3.6 255.0 -3.45 254.9 -3.4 254.75 -3.4 254.4 -3.4 253.85 -3.45 253.7 -3.6 253.6 -3.65 253.45 -3.65 253.25 -3.65 252.9 -3.65 252.8 -3.75 252.7 -3.8 252.55 -3.85 252.45 -3.85 252.1 -3.75 251.5 Q-3.35 251.2 -2.75 251.05 L-2.4 250.95 -2.1 250.95 -2.1 250.9 -1.85 250.95 -1.65 250.95 -1.6 249.05 -1.6 247.65 -1.85 247.65 -2.05 247.65 -2.55 247.6 -2.7 247.5 -2.9 247.35 -3.1 247.1 -3.4 246.55 Q-3.75 246.15 -3.7 245.6 L-3.65 245.15 Q-4.0 244.45 -3.95 243.65 L-3.85 241.2 -3.75 241.1 -3.35 240.65 -3.0 240.35 -2.85 240.3 -2.55 240.3 -2.55 240.25 -1.65 240.3 -1.45 240.3 -1.45 239.4 -1.45 237.3 -1.85 237.25 -3.1 236.3 -3.6 235.85 -3.65 234.5 -3.65 232.85 -3.75 232.75 -3.8 232.6 -3.85 232.5 -3.85 231.6 -3.85 230.65 -3.85 230.55 -3.2 229.95 -2.4 229.65 -2.1 229.65 -2.1 229.6 -1.85 229.65 -1.85 227.55 -1.85 227.1 -1.95 227.1 -3.3 226.95 -3.6 226.85 -3.9 226.55 -4.1 225.9 -4.15 225.85 -4.25 225.7 -4.3 225.55 -4.3 224.65 -4.3 223.85 -4.3 223.6 -4.25 223.5 -4.15 223.4 -4.1 223.25 -4.1 223.15 -4.1 223.0 -4.15 222.9 -4.25 222.8 -4.3 222.7 -4.3 222.45 -4.3 222.1 -4.3 221.85 -4.55 221.4 -4.55 220.7 Q-4.05 220.0 -3.05 219.6 L-2.2 219.3 -1.85 219.3 -1.85 218.1 -1.85 216.8 -2.55 216.75 Q-3.75 216.15 -3.95 215.25 L-4.1 214.2 -4.05 214.1 -3.95 213.95 -3.85 213.85 -3.85 212.35 -3.85 210.85 -3.75 210.7 -3.55 210.5 -3.4 210.4 -2.4 210.1 -2.1 210.05 -1.7 210.1 -1.55 210.15 -1.55 210.1 Q-1.45 209.3 -1.85 208.6 L-1.85 207.4 -2.5 207.4 -3.0 207.35 Q-3.05 207.25 -3.2 207.25 L-3.75 207.0 -3.9 206.85 -4.0 206.75 -4.1 205.35 -4.1 204.75 -4.1 204.65 -4.1 204.5 -4.1 204.25 -4.1 204.2 -4.15 204.05 -4.25 203.95 -4.3 203.8 -4.3 203.7 -4.3 203.55 -4.3 203.5 -4.3 203.4 -4.3 203.15 -4.3 202.85 -4.3 202.6 -4.4 202.45 -4.5 202.25 -4.55 201.9 -4.55 201.55 -4.5 201.45 -4.4 201.35 -4.3 201.2 -4.3 201.1 -4.3 200.95 -4.3 200.85 -4.25 200.75 -4.2 200.65 -4.1 200.5 -3.75 200.3 -3.4 200.1 -3.3 200.05 -3.0 200.0 -3.0 199.55 -2.9 198.75 -2.85 198.6 -3.05 198.15 -3.8 197.35 -4.0 196.85 -4.5 196.05 -4.55 195.95 -4.55 194.1 -4.5 191.55 Q-3.8 191.05 -2.85 190.85 L-2.3 190.75 -1.85 190.8 -1.45 190.85 -1.45 190.5 -1.45 190.3 -1.45 189.35 -1.2 188.65 -1.2 188.55 -1.2 188.45 -1.2 188.35 -1.2 188.25 -1.45 188.3 -2.1 188.2 -2.35 188.0 -2.45 187.95 -2.85 187.5 -3.05 187.4 -3.25 187.25 -3.35 187.15 -3.4 187.05 -3.4 186.95 -3.4 186.85 -3.4 186.7 -3.65 186.2 -3.65 185.55 -3.6 185.45 -3.45 185.3 -3.4 185.2 -3.4 184.85 -3.4 184.25 -3.45 184.2 -3.6 184.05 -3.65 183.95 -3.65 183.7 -3.65 183.35 -3.65 183.25 -3.75 183.15 -3.8 183.0 -3.85 182.9 -3.85 182.5 -3.75 181.95 Q-3.35 181.65 -2.75 181.5 L-2.4 181.4 -2.1 181.35 -1.85 181.35 -1.65 181.4 -1.6 179.5 -1.6 178.05 -1.85 178.1 -2.05 178.1 -2.55 178.05 -2.7 177.9 -2.9 177.8 -3.1 177.55 -3.4 177.0 Q-3.75 176.55 -3.7 176.05 L-3.65 175.6 Q-4.0 174.9 -3.95 174.1 L-3.85 171.65 -3.75 171.55 -3.35 171.1 -3.0 170.8 -2.85 170.75 -2.55 170.7 -1.65 170.75 -1.45 170.75 -1.45 169.85 -1.45 167.75 -1.85 167.7 -3.1 166.75 -3.6 166.3 -3.65 164.95 -3.65 163.3 -3.75 163.2 -3.8 163.05 -3.85 162.95 -3.85 162.05 -3.85 161.1 -3.85 161.0 -3.2 160.4 -2.4 160.1 -2.1 160.1 -1.85 160.1 -1.85 158.05 -1.85 157.55 -1.85 157.5 -1.9 157.55 -1.95 157.55 -3.3 157.4 -3.6 157.3 -3.85 157.0 -3.9 156.95 -4.1 156.4 -4.15 156.25 -4.25 156.15 -4.3 156.0 -4.3 155.1 -4.3 154.3 -4.3 154.05 -4.25 153.95 -4.15 153.8 -4.1 153.7 -4.1 153.6 -4.1 153.45 -4.15 153.35 -4.25 153.25 -4.3 153.15 -4.3 152.9 -4.3 152.55 -4.3 152.3 -4.55 151.85 -4.55 151.15 Q-4.05 150.45 -3.05 150.1 L-2.2 149.75 -1.85 149.75 -1.85 148.5 -1.85 147.25 -2.55 147.2 Q-3.75 146.6 -3.95 145.65 L-4.1 144.65 -4.05 144.55 -4.0 144.5 -4.05 144.4 -4.1 144.3 -4.1 144.2 -4.1 144.05 -4.1 143.85 -4.1 143.7 -4.15 143.6 -4.25 143.5 -4.3 143.4 -4.3 143.25 -4.3 143.05 -4.1 142.7 -4.1 142.35 -4.1 141.65 -4.1 141.45 -4.05 141.3 -3.95 141.2 -3.85 141.05 -3.85 140.95 -3.85 140.85 -3.8 140.7 -3.7 140.6 -3.4 140.35 -3.35 140.15 -3.0 139.7 -3.0 139.55 -3.0 139.1 -2.9 138.3 -2.85 138.2 -3.05 137.75 -3.8 136.9 -4.0 136.4 -4.5 135.65 -4.55 135.5 -4.55 133.65 -4.5 131.1 Q-3.8 130.6 -2.85 130.4 L-2.3 130.35 -1.85 130.35 -1.45 130.4 -1.45 129.85 -1.45 128.9 -1.2 128.25 -1.2 128.1 -1.2 128.0 -1.2 127.9 -1.2 127.8 -1.45 127.85 -2.1 127.75 -2.45 127.5 -2.85 127.1 -3.05 126.95 -3.25 126.85 -3.35 126.7 -3.4 126.6 -3.4 126.5 -3.4 126.4 -3.4 126.25 -3.65 125.8 -3.65 125.1 -3.6 125.0 -3.45 124.9 -3.4 124.75 -3.4 124.4 -3.4 123.85 -3.45 123.7 -3.6 123.6 -3.65 123.45 -3.65 123.25 -3.65 122.9 -3.65 122.8 -3.75 122.7 -3.8 122.55 -3.85 122.45 -3.85 122.1 -3.75 121.5 Q-3.35 121.2 -2.75 121.05 L-2.4 120.95 -2.1 120.95 -2.1 120.9 -1.85 120.95 -1.65 120.95 -1.6 119.05 -1.6 117.65 -1.85 117.65 -2.05 117.65 -2.55 117.6 -2.7 117.5 -2.9 117.35 -3.1 117.1 -3.4 116.55 Q-3.75 116.15 -3.7 115.6 L-3.65 115.15 Q-4.0 114.45 -3.95 113.65 L-3.85 111.2 -3.75 111.1 -3.35 110.65 -3.0 110.35 -2.85 110.3 -2.55 110.3 -2.55 110.25 -1.65 110.3 -1.45 110.3 -1.45 109.4 -1.45 107.3 -1.85 107.25 -3.1 106.3 -3.6 105.85 -3.65 104.5 -3.65 102.85 -3.75 102.75 -3.8 102.6 -3.85 102.5 -3.85 101.6 -3.85 100.65 -3.85 100.55 -3.2 99.95 -2.4 99.65 -2.1 99.65 -2.1 99.6 -1.85 99.65 -1.85 97.55 -1.85 97.1 -1.95 97.1 -3.3 96.95 -3.6 96.85 -3.9 96.55 -4.1 95.9 -4.15 95.85 -4.25 95.7 -4.3 95.55 -4.3 94.65 -4.3 93.85 -4.3 93.6 -4.25 93.5 -4.15 93.4 -4.1 93.25 -4.1 93.15 -4.1 93.0 -4.15 92.9 -4.25 92.8 -4.3 92.7 -4.3 92.45 -4.3 92.1 -4.3 91.85 -4.55 91.4 -4.55 90.7 Q-4.05 90.0 -3.05 89.6 L-2.2 89.3 -1.85 89.3 -1.85 88.1 -1.85 86.8 -2.55 86.75 Q-3.75 86.15 -3.95 85.25 L-4.1 84.2 -4.05 84.1 -3.95 83.95 -3.85 83.85 -3.85 82.35 -3.85 80.85 -3.75 80.7 -3.55 80.5 -3.4 80.4 -2.4 80.1 -2.1 80.05 -1.7 80.1 -1.55 80.15 -1.55 80.1 Q-1.45 79.3 -1.85 78.6 L-1.85 77.4 -2.5 77.4 -3.0 77.35 Q-3.05 77.25 -3.2 77.25 L-3.75 77.0 -3.9 76.85 -4.0 76.75 -4.1 75.35 -4.1 74.75 -4.1 74.65 -4.1 74.5 -4.1 74.25 -4.1 74.2 -4.15 74.05 -4.25 73.95 -4.3 73.8 -4.3 73.7 -4.3 73.55 -4.3 73.5 -4.3 73.4 -4.3 73.15 -4.3 72.85 -4.3 72.6 -4.4 72.45 -4.5 72.25 -4.55 71.9 -4.55 71.55 -4.5 71.45 -4.4 71.35 -4.3 71.2 -4.3 71.1 -4.3 70.95 -4.3 70.85 -4.25 70.75 -4.2 70.65 -4.1 70.5 -3.75 70.3 -3.4 70.1 -3.3 70.05 -3.0 70.0 -3.0 69.55 -2.9 68.75 -2.85 68.6 -3.05 68.15 -3.8 67.35 -4.0 66.85 -4.5 66.05 -4.55 65.95 -4.55 64.1 -4.5 61.55 Q-3.8 61.05 -2.85 60.85 L-2.3 60.75 -1.85 60.8 -1.45 60.85 -1.45 60.5 -1.45 60.3 -1.45 59.35 -1.2 58.65 -1.2 58.55 -1.2 58.45 -1.2 58.35 -1.2 58.25 -1.45 58.3 -2.1 58.2 -2.35 58.0 -2.45 57.95 -2.85 57.5 -3.05 57.4 -3.25 57.25 -3.35 57.15 -3.4 57.05 -3.4 56.95 -3.4 56.85 -3.4 56.7 -3.65 56.2 -3.65 55.55 -3.6 55.45 -3.45 55.3 -3.4 55.2 -3.4 54.85 -3.4 54.25 -3.45 54.2 -3.6 54.05 -3.65 53.95 -3.65 53.7 -3.65 53.35 -3.65 53.25 -3.75 53.15 -3.8 53.0 -3.85 52.9 -3.85 52.5 -3.75 51.95 Q-3.35 51.65 -2.75 51.5 L-2.4 51.4 -2.1 51.35 -1.85 51.35 -1.65 51.4 -1.6 49.5 -1.6 48.05 -1.85 48.1 -2.05 48.1 -2.55 48.05 -2.7 47.9 -2.9 47.8 -3.1 47.55 -3.4 47.0 Q-3.75 46.55 -3.7 46.05 L-3.65 45.6 Q-4.0 44.9 -3.95 44.1 L-3.85 41.65 -3.75 41.55 -3.35 41.1 -3.0 40.8 -2.85 40.75 -2.55 40.7 -1.65 40.75 -1.45 40.75 -1.45 39.85 -1.45 37.75 -1.85 37.7 -3.1 36.75 -3.6 36.3 -3.65 34.95 -3.65 33.3 -3.75 33.2 -3.8 33.05 -3.85 32.95 -3.85 32.05 -3.85 31.1 -3.85 31.0 -3.2 30.4 -2.4 30.1 -2.1 30.1 -1.85 30.1 -1.85 28.05 -1.85 27.55 -1.85 27.5 -1.9 27.55 -1.95 27.55 -3.3 27.4 -3.6 27.3 -3.85 27.0 -3.9 26.95 -4.1 26.4 -4.15 26.25 -4.25 26.15 -4.3 26.0 -4.3 25.1 -4.3 24.3 -4.3 24.05 -4.25 23.95 -4.15 23.8 -4.1 23.7 -4.1 23.6 -4.1 23.45 -4.15 23.35 -4.25 23.25 -4.3 23.15 -4.3 22.9 -4.3 22.55 -4.3 22.3 -4.55 21.85 -4.55 21.15 Q-4.05 20.45 -3.05 20.1 L-2.2 19.75 -1.85 19.75 -1.85 18.5 -1.85 17.25 -2.55 17.2 Q-3.75 16.6 -3.95 15.65 L-4.1 14.65 -4.05 14.55 -3.95 14.4 -3.85 14.3 -3.85 14.0 -3.85 12.8 -3.85 11.25 -3.75 11.2 -3.6 11.0 -3.55 10.95 -3.4 10.8 -2.4 10.55 -2.1 10.45 -2.0 10.5 -2.1 9.6 -2.05 9.2 -2.6 9.1 -3.0 9.0 -0.2 9.0 -0.25 9.05 -0.2 9.85 Q-0.1 10.5 -0.6 11.0 L-0.7 11.05 -0.7 11.4 -0.3 11.9 -0.2 12.1 Q0.1 12.45 0.45 12.1 L0.6 11.9 0.6 11.8 0.7 11.65 0.85 11.55 0.85 11.35 0.85 11.1 0.85 11.0 M-3.6 11.0 L-0.6 11.0 -3.6 11.0 M0.45 15.9 L0.6 15.9 0.85 15.95 0.95 16.05 1.05 16.3 1.05 16.55 1.15 16.65 1.25 16.75 1.35 16.65 1.6 16.4 1.8 16.05 1.95 15.8 1.95 15.75 1.95 15.6 1.95 15.35 1.95 15.25 2.0 15.15 2.1 15.05 2.3 14.8 2.4 14.65 2.4 14.1 2.4 14.0 2.4 13.15 2.4 12.95 2.35 12.85 2.25 12.7 2.0 12.5 1.85 12.35 1.5 12.25 1.45 12.2 0.85 12.9 0.0 12.9 -0.5 12.9 -0.75 12.85 -0.8 12.85 -0.9 12.75 -1.0 12.65 -1.0 12.5 -1.05 12.45 -1.2 12.3 -1.35 12.2 -1.4 12.05 -1.45 11.85 -1.6 11.65 -2.1 11.95 -2.0 13.7 -1.95 14.0 -2.3 15.2 -2.2 15.3 -2.1 15.55 -2.1 15.65 -1.45 16.05 -1.0 15.95 -0.7 15.9 0.45 15.9 M0.75 18.75 L0.75 18.7 0.6 18.6 0.6 18.5 0.6 18.15 0.6 18.05 0.45 17.9 0.4 17.8 0.4 17.45 0.4 17.0 0.35 16.85 0.15 16.65 0.1 16.6 -0.45 16.55 -0.85 16.7 -0.9 16.95 -1.0 17.4 -0.9 17.5 -0.7 17.7 -0.75 17.85 -1.0 18.05 -1.0 19.35 -0.95 20.0 -0.9 20.05 -0.7 20.25 -0.7 20.4 -0.75 20.5 -0.8 20.55 -0.7 20.65 -0.7 20.85 -0.7 21.3 -0.4 21.65 Q-0.25 21.85 0.05 21.9 L0.55 21.5 0.85 21.05 0.85 21.0 0.6 20.95 0.45 20.7 0.4 20.45 0.4 20.25 0.45 20.1 0.55 20.0 0.7 19.9 0.8 19.85 0.85 19.8 0.85 19.75 0.85 18.85 0.75 18.75 M0.65 25.25 L0.9 25.6 1.0 25.7 1.05 25.85 1.05 26.05 1.2 26.3 1.25 26.45 1.25 26.4 1.45 26.15 1.55 26.0 1.7 25.75 2.0 25.65 2.3 25.55 2.45 24.85 2.4 23.7 2.25 23.45 2.2 23.25 2.15 23.0 1.95 22.7 1.6 22.1 1.5 21.85 1.5 21.65 1.3 21.85 1.15 22.05 1.0 22.2 0.85 22.3 0.45 22.55 0.4 22.6 0.15 22.65 -0.3 22.7 -1.1 22.2 -1.15 22.1 -1.8 21.25 -2.2 21.35 -2.6 21.55 -2.6 22.0 -2.55 22.7 -2.45 22.85 -2.35 22.95 -2.3 23.05 -2.25 23.6 -2.55 24.45 -2.55 24.65 -2.55 25.25 -2.55 25.4 -2.3 26.05 -2.3 26.15 -1.85 26.2 -1.7 26.25 -1.65 26.15 -1.65 26.05 -1.65 25.95 -1.45 25.8 -1.45 25.7 -1.45 25.6 -1.45 25.45 -0.95 25.15 -0.7 25.0 -0.3 24.8 Q0.35 24.8 0.6 25.2 L0.65 25.25 M0.8 27.7 L0.7 27.65 0.6 27.5 0.6 27.4 0.6 27.3 0.6 27.15 0.5 27.05 0.45 27.0 0.4 26.95 0.4 26.85 0.4 26.7 0.4 26.6 0.2 26.25 0.1 26.0 -0.2 25.8 -0.3 25.75 Q-0.7 26.0 -0.7 26.3 L-1.0 26.7 -1.0 26.75 -1.0 26.85 -1.0 27.0 -1.0 28.75 -1.0 29.9 -0.6 30.7 -0.5 31.3 -0.6 31.55 -0.5 31.65 0.45 31.55 0.55 31.45 0.6 31.2 0.7 31.1 0.85 31.0 0.85 30.1 0.85 29.35 0.9 29.25 1.05 29.15 1.05 28.9 1.05 28.55 0.95 28.45 0.85 28.35 0.85 28.1 0.85 27.8 0.85 27.75 0.8 27.7 M0.75 36.1 L0.85 36.1 1.1 36.15 1.2 36.3 1.35 36.6 1.5 36.85 1.5 36.9 Q1.6 36.75 1.8 36.7 L2.3 36.2 2.4 36.1 2.4 36.0 2.4 35.9 2.4 35.75 2.45 35.65 2.55 35.55 2.45 35.45 2.4 35.3 2.4 33.95 2.4 32.2 2.3 32.05 2.2 31.95 2.1 31.85 1.95 31.8 1.5 31.65 1.45 31.65 1.45 31.75 1.0 32.05 0.65 32.3 -0.5 32.35 Q-1.15 32.15 -1.65 31.75 L-1.95 31.5 -2.1 31.55 -2.1 31.9 -2.1 32.45 -2.1 32.55 -2.0 32.7 -1.9 32.8 -1.85 32.9 -1.85 34.15 -1.85 35.6 -0.9 36.45 -0.7 36.3 -0.3 36.05 0.75 36.1 M1.05 38.1 L0.85 37.85 0.6 37.5 0.6 37.4 0.6 37.25 0.6 37.15 0.45 36.95 0.4 36.8 -0.05 36.75 -0.1 36.75 -0.3 37.1 -0.3 37.2 -0.3 37.3 -0.5 37.55 -0.5 40.8 -0.5 42.45 -0.3 42.7 -0.1 42.85 0.55 42.5 0.6 42.45 0.7 42.35 0.8 42.15 0.85 41.9 1.0 41.65 1.05 41.55 1.05 41.4 1.05 41.35 1.25 41.1 1.25 40.95 1.25 39.35 1.25 39.25 1.25 38.45 1.05 38.1 M0.3 46.25 L0.6 46.3 0.85 46.35 1.45 47.25 1.5 47.15 1.5 47.0 1.55 46.9 1.65 46.8 1.85 46.55 2.1 46.35 2.15 46.1 2.25 45.75 2.4 45.5 2.4 45.3 2.4 44.95 2.4 44.75 2.35 44.6 2.25 44.5 2.15 44.35 2.15 44.15 2.15 43.65 2.15 43.45 1.9 43.1 1.5 42.7 1.4 42.75 0.45 43.55 0.15 43.6 -0.3 43.6 -0.55 43.55 -1.15 43.1 -1.35 42.85 -1.45 42.75 -1.45 41.9 -1.65 41.95 -2.0 42.0 -2.1 43.15 -2.1 44.8 -2.1 44.9 -2.0 45.05 -1.9 45.15 -1.85 45.25 -1.85 45.35 -1.85 45.75 -1.85 46.2 -1.75 46.3 -1.7 46.4 -1.65 46.65 -1.5 46.75 -1.3 46.85 -1.2 46.95 -1.1 46.85 -0.35 46.45 -0.3 46.4 0.15 46.25 0.3 46.25 M0.85 48.65 L0.6 48.5 0.5 48.4 0.4 48.2 Q0.35 48.0 0.45 47.85 0.5 47.75 0.65 47.7 L0.6 47.55 0.15 47.0 -0.2 47.2 -0.5 47.45 -0.5 47.55 -0.5 47.7 -0.65 47.8 -0.7 47.9 -0.7 50.0 -0.7 51.4 -0.65 51.5 -0.5 51.6 -0.5 51.75 -0.5 51.85 -0.3 52.05 -0.05 52.3 0.6 52.0 0.95 51.65 1.25 51.15 1.25 50.1 1.25 49.3 1.2 49.2 1.1 49.05 1.05 48.95 1.05 48.8 1.05 48.7 0.85 48.65 M2.0 53.55 L1.9 53.05 1.7 53.05 1.05 52.95 0.85 52.85 0.5 52.95 0.4 53.0 0.15 53.0 -0.55 53.0 -1.1 52.5 -1.2 52.35 -1.4 52.45 -1.8 52.7 -1.8 54.1 -1.65 55.6 -1.7 55.7 -1.8 55.85 -1.85 55.9 -1.75 56.15 -1.45 56.55 -1.3 56.6 -1.25 56.75 -1.2 56.85 -1.2 57.0 -1.1 57.05 -1.0 57.0 -0.7 56.9 -0.05 56.9 0.2 57.0 0.65 57.15 1.0 57.5 1.1 57.6 1.2 57.5 1.25 57.35 1.3 57.25 1.45 57.15 1.6 57.0 Q1.85 56.9 2.05 56.75 L2.25 56.0 2.15 54.6 2.1 54.5 2.0 54.35 1.95 54.25 1.95 54.0 2.0 53.55 M0.35 62.25 L0.5 62.15 0.8 61.95 0.8 61.9 0.85 61.65 1.0 61.4 1.05 61.3 1.05 60.5 1.05 60.25 1.05 59.7 0.9 59.55 0.85 59.45 0.85 59.2 0.85 59.0 0.5 58.25 Q0.45 58.05 0.2 58.05 L-0.05 58.2 -0.2 58.3 -0.3 58.75 -0.5 59.1 -0.5 60.4 -0.5 60.5 -0.5 61.2 -0.15 61.75 0.05 62.1 0.1 62.2 0.35 62.3 0.35 62.25 M0.85 63.2 L0.6 63.1 0.4 63.0 0.3 62.9 0.25 62.9 -0.3 62.85 -0.55 62.85 -0.7 62.7 -0.85 62.5 -1.0 62.35 -1.0 62.25 -1.0 62.15 -1.1 62.05 -1.2 61.9 -1.2 61.8 -1.2 61.75 Q-1.5 62.05 -2.0 62.1 -2.45 62.15 -2.75 62.35 L-2.75 63.85 Q-2.85 65.0 -2.55 66.05 L-2.35 66.3 -2.1 66.65 -2.1 65.85 -2.05 65.75 -1.75 65.5 -1.45 65.4 -0.5 65.4 -0.25 65.5 0.4 65.9 0.45 65.9 0.7 66.15 0.8 66.3 0.85 66.4 0.85 66.5 0.9 66.6 1.05 66.7 1.05 66.85 1.05 66.95 1.05 67.1 1.15 67.2 1.3 67.05 2.15 66.15 2.15 66.05 2.15 65.9 2.15 65.8 2.05 65.65 2.0 65.6 2.0 65.35 1.95 65.2 1.9 65.1 1.8 64.95 1.7 64.9 1.7 64.75 1.7 64.65 1.7 64.4 1.7 64.3 1.6 64.2 1.55 64.05 1.5 63.95 1.5 63.85 1.5 63.7 1.4 63.65 1.35 63.45 1.25 63.3 1.25 63.25 1.05 63.25 0.85 63.2 M0.15 67.0 L-0.25 66.4 -0.4 66.2 -1.2 66.05 -1.2 67.8 -1.15 67.8 -0.95 68.6 -1.0 68.85 -1.05 69.0 -1.1 69.1 -1.2 69.2 -1.05 69.45 -1.0 69.55 -1.0 69.85 0.1 69.95 0.15 69.75 0.15 69.3 0.15 69.0 0.0 68.75 -0.05 68.6 0.2 68.3 0.15 68.1 0.15 68.0 0.4 67.8 0.4 67.7 0.4 67.55 0.3 67.5 0.15 67.35 0.15 67.1 0.15 67.0 M0.4 74.55 L0.7 74.8 1.0 75.1 1.1 75.35 1.15 75.45 1.3 75.85 1.45 76.05 1.5 76.15 1.55 76.15 1.9 75.9 2.55 75.4 2.4 75.4 2.0 75.3 1.7 75.2 1.6 75.1 1.55 74.9 1.5 74.5 1.5 74.25 1.4 74.2 1.25 73.95 1.25 73.6 1.25 73.25 1.25 72.7 1.2 72.55 1.1 72.45 1.05 72.3 1.05 72.2 1.05 71.95 1.05 71.75 1.05 71.5 0.85 71.4 0.7 71.3 0.45 71.2 0.4 71.2 -1.7 71.25 -2.55 71.35 -2.55 71.4 -2.55 71.55 -2.6 71.65 -2.6 71.8 -2.6 71.9 -2.5 72.35 -2.55 73.05 -2.55 73.15 -2.45 73.3 -2.3 73.7 -2.25 74.5 -2.25 74.55 -2.3 76.05 -2.2 76.15 -2.05 76.2 -1.85 76.25 -1.85 75.5 -1.75 75.35 -1.65 75.3 -1.65 75.25 -1.65 75.1 -1.6 74.8 -1.65 74.55 -1.5 74.45 -1.5 74.4 -1.2 74.1 -1.0 74.0 -0.3 74.05 0.0 74.1 0.3 74.45 0.4 74.55 M0.45 77.55 L0.5 77.45 0.6 77.35 0.6 77.2 0.4 76.65 0.4 76.6 0.4 76.15 0.4 75.9 -0.25 74.95 -0.3 74.85 -0.7 74.75 -0.7 74.8 -0.7 74.85 -0.7 75.2 -0.7 75.45 -0.75 75.45 -0.85 75.55 -1.0 75.65 -1.0 76.8 -1.0 77.5 -1.0 78.45 Q-0.6 79.3 -0.7 80.2 L-0.7 81.0 -0.3 81.45 -0.2 81.7 Q0.1 82.0 0.45 81.7 L0.6 81.45 0.6 81.35 0.7 81.2 0.85 81.1 0.85 80.85 0.85 80.4 0.85 79.95 0.9 79.85 1.05 79.75 1.05 78.65 1.05 78.1 1.25 77.9 1.25 77.75 1.25 77.35 1.0 77.5 0.6 77.55 0.45 77.55 M0.45 85.45 L0.6 85.45 0.85 85.5 0.95 85.65 1.05 85.85 1.05 86.05 1.15 86.2 1.25 86.3 1.35 86.2 Q1.45 86.05 1.6 86.0 L1.8 85.65 1.95 85.4 1.95 85.3 1.95 85.15 1.95 84.9 1.95 84.8 2.0 84.7 2.1 84.55 2.3 84.35 2.4 84.25 2.4 83.65 2.4 82.75 2.4 82.5 2.35 82.4 2.25 82.3 2.0 82.05 1.85 81.95 1.5 81.8 1.45 81.75 0.85 82.45 0.0 82.5 -0.5 82.45 -0.75 82.45 -0.8 82.4 -0.9 82.3 -1.0 82.2 -1.0 82.05 -1.05 81.95 -1.2 81.85 -1.35 81.75 -1.4 81.6 -1.45 81.4 -1.6 81.2 -2.1 81.5 -2.0 83.25 Q-1.9 84.0 -2.3 84.75 L-2.2 84.85 -2.1 85.1 -2.1 85.2 -1.45 85.65 -1.0 85.5 -0.7 85.45 0.45 85.45 M0.75 88.25 L0.6 88.15 0.6 88.05 0.6 87.7 0.6 87.6 0.45 87.5 0.4 87.35 0.4 87.0 0.4 86.55 0.35 86.45 0.15 86.2 0.1 86.15 Q-0.05 85.9 -0.45 86.15 L-0.85 86.25 -0.9 86.45 -1.0 86.95 -0.9 87.05 -0.7 87.3 -0.75 87.4 -1.0 87.65 -1.0 88.9 -0.95 89.55 -0.9 89.6 -0.7 89.85 -0.7 89.95 -0.75 90.05 -0.8 90.1 -0.7 90.15 -0.7 90.4 -0.7 90.85 -0.4 91.2 0.05 91.5 0.55 91.05 0.85 90.6 0.85 90.55 0.6 90.5 0.45 90.25 0.4 90.0 0.4 89.75 0.45 89.7 0.55 89.55 0.7 89.45 0.8 89.4 0.85 89.4 0.85 89.3 0.85 88.4 0.75 88.25 M0.65 94.8 L0.9 95.15 1.0 95.3 1.05 95.35 1.05 95.6 1.2 95.85 1.25 96.0 1.25 95.9 1.45 95.7 1.55 95.55 1.7 95.35 2.0 95.2 2.3 95.1 2.45 94.4 2.4 93.25 2.25 93.0 2.2 92.8 2.15 92.55 1.95 92.2 1.6 91.65 1.5 91.4 1.5 91.2 1.3 91.4 1.15 91.65 1.0 91.75 0.85 91.85 0.45 92.1 0.4 92.15 0.15 92.2 -0.3 92.2 -1.1 91.75 -1.15 91.65 -1.8 90.8 -2.2 90.95 -2.6 91.1 -2.6 91.6 -2.55 92.25 -2.45 92.35 -2.35 92.5 -2.3 92.6 -2.25 93.15 Q-2.2 93.65 -2.55 94.0 L-2.55 94.2 -2.55 94.8 -2.55 94.95 -2.3 95.6 -2.3 95.7 -1.85 95.75 -1.7 95.8 -1.65 95.7 -1.65 95.6 -1.65 95.5 -1.45 95.35 -1.45 95.25 -1.45 95.15 -1.45 95.05 -0.95 94.75 -0.7 94.55 -0.3 94.4 Q0.35 94.4 0.6 94.75 L0.65 94.8 M0.8 97.25 L0.7 97.15 0.6 97.1 0.6 96.95 0.6 96.85 0.6 96.7 0.5 96.6 0.4 96.5 0.4 96.4 0.4 96.25 0.4 96.15 0.2 95.8 0.1 95.55 -0.2 95.35 -0.3 95.3 Q-0.7 95.55 -0.7 95.9 L-1.0 96.25 -1.0 96.4 -1.0 98.3 -1.0 99.45 -0.6 100.3 -0.5 100.85 -0.6 101.1 -0.5 101.2 0.45 101.1 0.55 101.0 0.6 100.8 0.7 100.65 0.85 100.55 0.85 99.6 0.85 98.9 0.9 98.8 1.05 98.7 1.05 98.45 1.05 98.1 0.95 98.0 0.85 97.9 0.85 97.65 0.85 97.35 0.85 97.3 0.8 97.25 M0.75 105.7 L0.85 105.7 1.1 105.7 1.2 105.85 1.35 106.15 1.5 106.4 1.5 106.45 Q1.6 106.3 1.8 106.25 L2.3 105.8 2.4 105.7 2.4 105.55 2.4 105.45 2.4 105.35 2.45 105.2 2.55 105.1 2.45 104.95 2.4 104.9 2.4 103.45 2.4 101.75 2.3 101.65 2.2 101.5 2.1 101.4 1.95 101.35 1.5 101.2 1.45 101.2 1.45 101.25 1.0 101.65 0.65 101.85 -0.5 101.95 -1.65 101.3 -1.95 101.05 -2.1 101.1 -2.1 101.4 -2.1 102.0 -2.1 102.15 -2.0 102.25 -1.9 102.35 -1.85 102.45 -1.85 103.75 -1.85 105.15 -0.9 106.05 -0.7 105.85 -0.3 105.65 0.75 105.7 M1.05 107.65 L0.85 107.4 0.6 107.05 0.6 106.95 0.6 106.85 0.6 106.7 0.45 106.45 0.4 106.35 -0.05 106.3 -0.1 106.3 -0.3 106.6 -0.3 106.65 -0.3 106.75 -0.3 106.85 -0.5 107.1 -0.5 110.4 -0.5 112.0 -0.5 112.05 -0.3 112.2 -0.1 112.45 0.55 112.05 0.6 112.0 0.7 111.9 0.8 111.65 0.85 111.45 1.0 111.2 1.05 111.1 1.05 111.0 1.05 110.85 1.25 110.65 1.25 110.55 1.25 108.9 1.25 108.8 1.25 107.95 1.05 107.65 M0.3 115.85 L0.6 115.85 0.85 115.9 1.45 116.8 1.5 116.7 1.5 116.6 1.55 116.45 1.65 116.35 1.85 116.15 2.1 115.9 2.15 115.7 2.25 115.3 2.4 115.05 2.4 114.85 2.4 114.5 2.4 114.25 2.35 114.2 2.25 114.05 2.15 113.95 2.15 113.7 2.15 113.25 2.15 113.0 1.9 112.65 1.5 112.2 1.4 112.35 0.45 113.1 0.15 113.15 -0.3 113.2 -0.55 113.1 -1.15 112.7 -1.35 112.45 -1.45 112.3 -1.45 111.45 -1.65 111.5 -2.0 111.6 -2.1 112.75 -2.1 114.35 -2.1 114.45 -2.0 114.6 -1.9 114.7 -1.85 114.8 -1.85 114.9 -1.85 115.3 -1.85 115.75 -1.75 115.85 -1.7 116.0 -1.65 116.2 -1.5 116.3 -1.3 116.45 -1.2 116.5 -1.1 116.4 -0.35 116.0 -0.3 116.0 0.15 115.85 0.3 115.85 M0.85 118.2 L0.6 118.1 0.5 117.95 0.4 117.75 Q0.35 117.55 0.45 117.4 0.5 117.35 0.65 117.25 L0.6 117.1 0.15 116.55 -0.2 116.8 -0.5 117.0 -0.5 117.1 -0.5 117.25 -0.65 117.35 -0.7 117.5 -0.7 119.55 -0.7 120.95 -0.65 121.05 -0.5 121.2 -0.5 121.3 -0.5 121.4 -0.3 121.65 -0.05 121.85 0.6 121.6 0.95 121.2 1.25 120.7 1.25 119.7 1.25 118.85 1.2 118.75 1.1 118.6 1.05 118.5 1.05 118.4 1.05 118.3 0.85 118.2 M0.85 122.4 L0.5 122.5 0.4 122.55 0.15 122.55 -0.55 122.55 -1.1 122.05 -1.2 121.9 -1.4 122.0 -1.8 122.25 -1.8 123.65 -1.65 125.15 -1.7 125.25 -1.8 125.35 -1.85 125.5 -1.75 125.7 -1.45 126.05 -1.3 126.15 -1.25 126.3 -1.2 126.4 -1.2 126.55 -1.1 126.6 -1.0 126.55 -0.7 126.45 -0.05 126.45 0.2 126.55 0.65 126.7 1.0 127.05 1.1 127.2 1.1 127.15 1.2 127.0 1.25 126.95 1.3 126.8 1.45 126.7 1.6 126.6 Q1.85 126.45 2.05 126.35 L2.25 125.5 2.15 124.15 2.1 124.05 2.0 123.9 1.95 123.8 1.95 123.55 2.0 123.1 1.9 122.6 1.7 122.6 1.05 122.5 0.85 122.4 M0.2 127.6 L-0.05 127.75 -0.2 127.85 -0.3 128.3 -0.5 128.65 -0.5 129.95 -0.5 130.7 -0.15 131.3 0.05 131.65 0.1 131.75 0.35 131.8 0.5 131.65 0.8 131.5 0.8 131.45 0.85 131.2 1.0 130.95 1.05 130.85 1.05 129.8 1.05 129.2 0.9 129.1 0.85 129.0 0.85 128.75 0.85 128.55 0.5 127.8 Q0.45 127.65 0.2 127.6 M0.85 132.75 L0.6 132.7 0.4 132.6 0.3 132.45 0.25 132.45 -0.3 132.45 -0.55 132.4 -0.7 132.3 -0.85 132.05 -1.0 131.95 -1.0 131.9 -1.0 131.8 -1.0 131.7 -1.1 131.6 -1.2 131.45 -1.2 131.35 -1.2 131.3 Q-1.5 131.6 -2.0 131.65 L-2.75 131.95 -2.75 133.4 Q-2.85 134.55 -2.55 135.65 L-2.35 135.85 -2.1 136.2 -2.1 135.4 -2.05 135.3 -1.75 135.05 -1.45 134.95 -0.5 134.95 -0.25 135.05 0.4 135.45 0.45 135.5 0.7 135.7 0.8 135.85 0.85 135.95 0.85 136.05 0.9 136.15 1.05 136.3 1.05 136.4 1.05 136.5 1.05 136.65 1.15 136.75 1.3 136.65 2.15 135.7 2.15 135.6 2.15 135.5 2.15 135.35 2.05 135.25 2.0 135.15 2.0 134.9 1.95 134.8 1.9 134.65 1.8 134.55 1.7 134.4 1.7 134.35 1.7 134.2 1.7 133.95 1.7 133.85 1.6 133.75 1.55 133.65 1.5 133.5 1.5 133.4 1.5 133.25 1.4 133.15 1.35 133.05 1.25 132.85 1.25 132.8 1.05 132.75 0.85 132.75 M0.15 136.55 L-0.25 135.95 -0.4 135.75 -1.2 135.65 -1.2 137.35 -1.15 137.35 -0.95 138.2 -1.0 138.4 -1.05 138.5 -1.1 138.65 -1.2 138.75 -1.05 139.0 -1.0 139.1 -1.0 140.0 -1.0 140.5 Q-0.3 140.45 -0.05 139.95 L-0.05 139.9 0.0 139.85 0.05 139.7 0.15 139.35 0.15 138.9 0.15 138.5 0.0 138.3 -0.05 138.2 0.2 137.9 0.15 137.65 0.15 137.55 0.4 137.35 0.4 137.3 0.4 137.15 0.3 137.0 0.15 136.9 0.15 136.65 0.15 136.55 M0.45 145.9 L0.6 145.9 0.85 145.95 0.95 146.05 1.05 146.3 1.05 146.55 1.15 146.65 1.25 146.75 1.35 146.65 1.6 146.4 1.8 146.05 1.95 145.8 1.95 145.75 1.95 145.6 1.95 145.35 1.95 145.25 2.0 145.15 2.1 145.05 2.3 144.8 2.4 144.65 2.4 144.1 2.4 144.0 2.15 144.0 2.15 143.9 2.1 143.8 2.0 143.7 1.95 143.55 1.95 143.1 2.0 142.05 1.95 141.75 1.8 141.5 1.75 141.35 1.6 141.15 1.5 140.9 1.05 140.8 0.6 140.7 0.5 140.65 0.45 140.7 0.35 140.8 0.15 140.9 0.1 141.0 0.1 141.05 0.05 141.15 -0.05 141.2 -0.3 141.25 -0.9 141.25 -1.0 141.25 -1.2 141.15 -1.55 140.95 -1.65 140.9 -1.75 141.05 -1.85 141.2 -2.0 141.3 Q-2.4 141.9 -2.35 142.6 L-2.3 143.85 -2.3 143.95 -2.25 144.0 -1.95 144.0 -2.0 144.55 -2.3 145.2 -2.2 145.3 -2.1 145.55 -2.1 145.65 -1.45 146.05 -1.0 145.95 -0.7 145.9 -0.15 145.9 0.1 145.9 0.45 145.9 M0.75 148.75 L0.75 148.7 0.6 148.6 0.6 148.5 0.6 148.15 0.6 148.05 0.45 147.9 0.4 147.8 0.4 147.45 0.4 147.1 0.4 147.0 0.35 146.85 0.15 146.65 0.1 146.6 -0.3 146.5 -0.45 146.55 -0.85 146.7 -0.9 146.95 -1.0 147.4 -0.9 147.5 -0.7 147.7 -0.75 147.85 -1.0 148.05 -1.0 149.35 -0.95 150.0 -0.9 150.05 -0.7 150.25 -0.7 150.4 -0.75 150.5 -0.8 150.55 -0.7 150.65 -0.7 150.85 -0.7 151.3 -0.4 151.65 Q-0.25 151.85 0.05 151.9 L0.55 151.5 0.85 151.05 0.85 151.0 0.6 150.95 0.45 150.7 0.4 150.45 0.4 150.25 0.45 150.1 0.55 150.0 0.7 149.9 0.8 149.85 0.85 149.8 0.85 149.75 0.85 148.85 0.75 148.75 M0.65 155.25 L0.9 155.6 1.0 155.7 1.05 155.85 1.05 156.05 1.2 156.3 1.25 156.45 1.25 156.4 1.45 156.15 1.55 156.0 1.7 155.75 2.0 155.65 2.3 155.55 2.45 154.85 2.4 153.7 2.25 153.45 2.2 153.25 2.15 153.0 1.95 152.7 1.6 152.1 1.5 151.85 1.5 151.65 1.3 151.85 1.15 152.05 1.0 152.2 0.85 152.3 0.45 152.55 0.4 152.6 0.15 152.65 -0.3 152.7 -1.1 152.2 -1.15 152.1 -1.8 151.25 -2.2 151.35 -2.6 151.55 -2.6 152.0 -2.55 152.7 -2.45 152.85 -2.35 152.95 -2.3 153.05 -2.25 153.6 -2.55 154.45 -2.55 154.65 -2.55 155.25 -2.55 155.4 -2.3 156.05 -2.3 156.15 -1.85 156.2 -1.7 156.25 -1.65 156.15 -1.65 156.05 -1.65 155.95 -1.45 155.8 -1.45 155.7 -1.45 155.6 -1.45 155.45 -0.95 155.15 -0.7 155.0 -0.3 154.8 Q0.35 154.8 0.6 155.2 L0.65 155.25 M0.8 157.7 L0.7 157.65 0.6 157.5 0.6 157.4 0.6 157.3 0.6 157.15 0.5 157.05 0.4 156.95 0.4 156.85 0.4 156.7 0.4 156.6 0.2 156.25 0.1 156.0 -0.2 155.8 -0.3 155.75 Q-0.7 156.0 -0.7 156.3 L-1.0 156.7 -1.0 156.75 -1.0 156.85 -1.0 157.0 -1.0 158.75 -1.0 159.9 -0.6 160.7 -0.5 161.3 -0.6 161.55 -0.5 161.65 0.45 161.55 0.55 161.45 0.6 161.2 0.7 161.1 0.85 161.0 0.85 160.1 0.85 159.35 0.9 159.25 1.05 159.15 1.05 158.9 1.05 158.55 0.95 158.45 0.85 158.35 0.85 158.1 0.85 157.8 0.85 157.75 0.8 157.7 M0.75 166.1 L0.85 166.1 1.1 166.15 1.2 166.3 1.35 166.6 1.5 166.85 1.5 166.9 Q1.6 166.75 1.8 166.7 L2.3 166.2 2.4 166.1 2.4 166.0 2.4 165.9 2.4 165.75 2.45 165.65 2.55 165.55 2.45 165.45 2.4 165.3 2.4 163.95 2.4 162.2 2.3 162.05 2.2 161.95 2.1 161.85 1.95 161.8 1.5 161.65 1.45 161.65 1.45 161.75 1.0 162.05 0.65 162.3 -0.5 162.35 Q-1.15 162.15 -1.65 161.75 L-1.95 161.5 -2.1 161.55 -2.1 161.9 -2.1 162.45 -2.1 162.55 -2.0 162.7 -1.9 162.8 -1.85 162.9 -1.85 164.15 -1.85 165.6 -0.9 166.45 -0.7 166.3 -0.3 166.05 0.75 166.1 M1.05 168.1 L0.85 167.85 0.6 167.5 0.6 167.4 0.6 167.25 0.6 167.15 0.45 166.95 0.4 166.8 -0.05 166.75 -0.1 166.75 -0.3 167.1 -0.3 167.2 -0.3 167.3 -0.5 167.55 -0.5 170.8 -0.5 172.45 -0.3 172.7 -0.1 172.85 0.55 172.5 0.6 172.45 0.7 172.35 0.8 172.15 0.85 171.9 1.0 171.65 1.05 171.55 1.05 171.4 1.05 171.35 1.25 171.1 1.25 170.95 1.25 169.35 1.25 169.25 1.25 168.45 1.05 168.1 M0.3 176.25 L0.6 176.3 0.85 176.35 1.45 177.25 1.5 177.15 1.5 177.0 1.55 176.9 1.65 176.8 1.85 176.55 2.1 176.35 2.15 176.1 2.25 175.75 2.4 175.5 2.4 175.3 2.4 174.95 2.4 174.75 2.35 174.6 2.25 174.5 2.15 174.35 2.15 174.15 2.15 173.65 2.15 173.45 1.9 173.1 1.5 172.7 1.4 172.75 0.45 173.55 0.15 173.6 -0.3 173.6 -0.55 173.55 -1.15 173.1 -1.35 172.85 -1.45 172.75 -1.45 171.9 -1.65 171.95 -2.0 172.0 -2.1 173.15 -2.1 174.8 -2.1 174.9 -2.0 175.05 -1.9 175.15 -1.85 175.25 -1.85 175.35 -1.85 175.75 -1.85 176.2 -1.75 176.3 -1.7 176.4 -1.65 176.65 -1.5 176.75 -1.3 176.85 -1.2 176.95 -1.1 176.85 -0.35 176.45 -0.3 176.4 0.15 176.25 0.3 176.25 M0.85 178.65 L0.6 178.5 0.5 178.4 0.4 178.2 Q0.35 178.0 0.45 177.85 0.5 177.75 0.65 177.7 L0.6 177.55 0.15 177.0 -0.2 177.2 -0.5 177.45 -0.5 177.55 -0.5 177.7 -0.65 177.8 -0.7 177.9 -0.7 180.0 -0.7 181.4 -0.65 181.5 -0.5 181.6 -0.5 181.75 -0.5 181.85 -0.3 182.05 -0.05 182.3 0.6 182.0 0.95 181.65 1.25 181.15 1.25 180.1 1.25 179.3 1.2 179.2 1.1 179.05 1.05 178.95 1.05 178.8 1.05 178.7 0.85 178.65 M2.0 183.55 L1.9 183.05 1.7 183.05 1.05 182.95 0.85 182.85 0.5 182.95 0.4 183.0 0.15 183.0 -0.55 183.0 -1.1 182.5 -1.2 182.35 -1.4 182.45 -1.8 182.7 -1.8 184.1 -1.65 185.6 -1.7 185.7 -1.8 185.85 -1.85 185.9 -1.75 186.15 -1.45 186.55 -1.3 186.6 -1.25 186.75 -1.2 186.85 -1.2 187.0 -1.1 187.05 -1.0 187.0 -0.7 186.9 -0.05 186.9 0.2 187.0 0.65 187.15 1.0 187.5 1.1 187.6 1.2 187.5 1.25 187.35 1.3 187.25 1.45 187.15 1.6 187.0 Q1.85 186.9 2.05 186.75 L2.25 186.0 2.15 184.6 2.1 184.5 2.0 184.35 1.95 184.25 1.95 184.0 2.0 183.55 M0.35 192.25 L0.5 192.15 0.8 191.95 0.8 191.9 0.85 191.65 1.0 191.4 1.05 191.3 1.05 190.5 1.05 190.25 1.05 189.7 0.9 189.55 0.85 189.45 0.85 189.2 0.85 189.0 0.5 188.25 Q0.45 188.05 0.2 188.05 L-0.05 188.2 -0.2 188.3 -0.3 188.75 -0.5 189.1 -0.5 190.4 -0.5 190.5 -0.5 191.2 -0.15 191.75 0.05 192.1 0.1 192.2 0.35 192.3 0.35 192.25 M0.85 193.2 L0.6 193.1 0.4 193.0 0.3 192.9 0.25 192.9 -0.3 192.85 -0.55 192.85 -0.7 192.7 -0.85 192.5 -1.0 192.35 -1.0 192.25 -1.0 192.15 -1.1 192.05 -1.2 191.9 -1.2 191.8 -1.2 191.75 Q-1.5 192.05 -2.0 192.1 -2.45 192.15 -2.75 192.35 L-2.75 193.85 Q-2.85 195.0 -2.55 196.05 L-2.35 196.3 -2.1 196.65 -2.1 195.85 -2.05 195.75 -1.75 195.5 -1.45 195.4 -0.5 195.4 -0.25 195.5 0.4 195.9 0.45 195.9 0.7 196.15 0.8 196.3 0.85 196.4 0.85 196.5 0.9 196.6 1.05 196.7 1.05 196.85 1.05 196.95 1.05 197.1 1.15 197.2 1.3 197.05 2.15 196.15 2.15 196.05 2.15 195.9 2.15 195.8 2.05 195.65 2.0 195.6 2.0 195.35 1.95 195.2 1.9 195.1 1.8 194.95 1.7 194.9 1.7 194.75 1.7 194.65 1.7 194.4 1.7 194.3 1.6 194.2 1.55 194.05 1.5 193.95 1.5 193.85 1.5 193.7 1.4 193.65 1.35 193.45 1.25 193.3 1.25 193.25 1.05 193.25 0.85 193.2 M0.15 197.0 L-0.25 196.4 -0.4 196.2 -1.2 196.05 -1.2 197.8 -1.15 197.8 -0.95 198.6 -1.0 198.85 -1.05 199.0 -1.1 199.1 -1.2 199.2 -1.05 199.45 -1.0 199.55 -1.0 199.85 0.1 199.95 0.15 199.75 0.15 199.3 0.15 199.0 0.0 198.75 -0.05 198.6 0.2 198.3 0.15 198.1 0.15 198.0 0.4 197.8 0.4 197.7 0.4 197.55 0.3 197.5 0.15 197.35 0.15 197.1 0.15 197.0 M0.4 204.55 L0.7 204.8 1.0 205.1 1.1 205.35 1.15 205.45 1.3 205.85 1.45 206.05 1.5 206.15 1.55 206.15 1.9 205.9 2.55 205.4 2.4 205.4 2.0 205.3 1.7 205.2 1.6 205.1 1.55 204.9 1.5 204.5 1.5 204.25 1.4 204.2 1.25 203.95 1.25 203.6 1.25 203.25 1.25 202.7 1.2 202.55 1.1 202.45 1.05 202.3 1.05 202.2 1.05 201.95 1.05 201.75 1.05 201.5 0.85 201.4 0.7 201.3 0.45 201.2 0.4 201.2 -1.7 201.25 -2.55 201.35 -2.55 201.4 -2.55 201.55 -2.6 201.65 -2.6 201.8 -2.6 201.9 -2.5 202.35 -2.55 203.05 -2.55 203.15 -2.45 203.3 -2.3 203.7 -2.25 204.5 -2.25 204.55 -2.3 206.05 -2.2 206.15 -2.05 206.2 -1.85 206.25 -1.85 205.5 -1.75 205.35 -1.65 205.3 -1.65 205.25 -1.65 205.1 -1.6 204.8 -1.65 204.55 -1.5 204.45 -1.5 204.4 -1.2 204.1 -1.0 204.0 -0.3 204.05 0.0 204.1 0.3 204.45 0.4 204.55 M0.45 207.55 L0.5 207.45 0.6 207.35 0.6 207.2 0.4 206.65 0.4 206.6 0.4 206.15 0.4 205.9 -0.25 204.95 -0.3 204.85 -0.7 204.75 -0.7 204.8 -0.7 204.85 -0.7 205.2 -0.7 205.45 -0.75 205.45 -0.85 205.55 -1.0 205.65 -1.0 206.8 -1.0 207.5 -1.0 208.45 Q-0.6 209.3 -0.7 210.2 L-0.7 211.0 -0.3 211.45 -0.2 211.7 Q0.1 212.0 0.45 211.7 L0.6 211.45 0.6 211.35 0.7 211.2 0.85 211.1 0.85 210.85 0.85 210.4 0.85 209.95 0.9 209.85 1.05 209.75 1.05 208.65 1.05 208.1 1.25 207.9 1.25 207.75 1.25 207.35 1.0 207.5 0.6 207.55 0.45 207.55 M0.45 215.45 L0.6 215.45 0.85 215.5 0.95 215.65 1.05 215.85 1.05 216.05 1.15 216.2 1.25 216.3 1.35 216.2 Q1.45 216.05 1.6 216.0 L1.8 215.65 1.95 215.4 1.95 215.3 1.95 215.15 1.95 214.9 1.95 214.8 2.0 214.7 2.1 214.55 2.3 214.35 2.4 214.25 2.4 213.65 2.4 212.75 2.4 212.5 2.35 212.4 2.25 212.3 2.0 212.05 1.85 211.95 1.5 211.8 1.45 211.75 0.85 212.45 0.0 212.5 -0.5 212.45 -0.75 212.45 -0.8 212.4 -0.9 212.3 -1.0 212.2 -1.0 212.05 -1.05 211.95 -1.2 211.85 -1.35 211.75 -1.4 211.6 -1.45 211.4 -1.6 211.2 -2.1 211.5 -2.0 213.25 Q-1.9 214.0 -2.3 214.75 L-2.2 214.85 -2.1 215.1 -2.1 215.2 -1.45 215.65 -1.0 215.5 -0.7 215.45 0.45 215.45 M0.75 218.25 L0.6 218.15 0.6 218.05 0.6 217.7 0.6 217.6 0.45 217.5 0.4 217.35 0.4 217.0 0.4 216.55 0.35 216.45 0.15 216.2 0.1 216.15 Q-0.05 215.9 -0.45 216.15 L-0.85 216.25 -0.9 216.45 -1.0 216.95 -0.9 217.05 -0.7 217.3 -0.75 217.4 -1.0 217.65 -1.0 218.9 -0.95 219.55 -0.9 219.6 -0.7 219.85 -0.7 219.95 -0.75 220.05 -0.8 220.1 -0.7 220.15 -0.7 220.4 -0.7 220.85 -0.4 221.2 0.05 221.5 0.55 221.05 0.85 220.6 0.85 220.55 0.6 220.5 0.45 220.25 0.4 220.0 0.4 219.75 0.45 219.7 0.55 219.55 0.7 219.45 0.8 219.4 0.85 219.4 0.85 219.3 0.85 218.4 0.75 218.25 M0.85 221.85 L0.45 222.1 0.4 222.15 0.15 222.2 -0.3 222.2 -1.1 221.75 -1.15 221.65 -1.8 220.8 -2.2 220.95 -2.6 221.1 -2.6 221.6 -2.55 222.25 -2.45 222.35 -2.35 222.5 -2.3 222.6 -2.25 223.15 Q-2.2 223.65 -2.55 224.0 L-2.55 224.2 -2.55 224.8 -2.55 224.95 -2.3 225.6 -2.3 225.7 -1.85 225.75 -1.7 225.8 -1.65 225.7 -1.65 225.6 -1.65 225.5 -1.45 225.35 -1.45 225.25 -1.45 225.15 -1.45 225.05 -0.95 224.75 -0.7 224.55 -0.3 224.4 Q0.35 224.4 0.6 224.75 L0.65 224.8 0.9 225.15 1.0 225.3 1.05 225.35 1.05 225.6 1.2 225.85 1.25 226.0 1.25 225.9 1.45 225.7 1.55 225.55 1.7 225.35 2.0 225.2 2.3 225.1 2.45 224.4 2.4 223.25 2.25 223.0 2.2 222.8 2.15 222.55 1.95 222.2 1.6 221.65 1.5 221.4 1.5 221.2 1.3 221.4 1.15 221.65 1.0 221.75 0.85 221.85 M0.8 227.25 L0.7 227.15 0.6 227.1 0.6 226.95 0.6 226.85 0.6 226.7 0.5 226.6 0.4 226.5 0.4 226.4 0.4 226.25 0.4 226.15 0.2 225.8 0.1 225.55 -0.2 225.35 -0.3 225.3 Q-0.7 225.55 -0.7 225.9 L-1.0 226.25 -1.0 226.4 -1.0 228.3 -1.0 229.45 -0.6 230.3 -0.5 230.85 -0.6 231.1 -0.5 231.2 0.45 231.1 0.55 231.0 0.6 230.8 0.7 230.65 0.85 230.55 0.85 229.6 0.85 228.9 0.9 228.8 1.05 228.7 1.05 228.45 1.05 228.1 0.95 228.0 0.85 227.9 0.85 227.65 0.85 227.35 0.85 227.3 0.8 227.25 M0.75 235.7 L0.85 235.7 1.1 235.7 1.2 235.85 1.35 236.15 1.5 236.4 1.5 236.45 Q1.6 236.3 1.8 236.25 L2.3 235.8 2.4 235.7 2.4 235.55 2.4 235.45 2.4 235.35 2.45 235.2 2.55 235.1 2.45 234.95 2.4 234.9 2.4 233.45 2.4 231.75 2.3 231.65 2.2 231.5 2.1 231.4 1.95 231.35 1.5 231.2 1.45 231.2 1.45 231.25 1.0 231.65 0.65 231.85 -0.5 231.95 -1.65 231.3 -1.95 231.05 -2.1 231.1 -2.1 231.4 -2.1 232.0 -2.1 232.15 -2.0 232.25 -1.9 232.35 -1.85 232.45 -1.85 233.75 -1.85 235.15 -0.9 236.05 -0.7 235.85 -0.3 235.65 0.75 235.7 M1.05 237.65 L0.85 237.4 0.6 237.05 0.6 236.95 0.6 236.85 0.6 236.7 0.45 236.45 0.4 236.35 -0.05 236.3 -0.1 236.3 -0.3 236.6 -0.3 236.65 -0.3 236.75 -0.3 236.85 -0.5 237.1 -0.5 240.4 -0.5 242.0 -0.5 242.05 -0.3 242.2 -0.1 242.45 0.55 242.05 0.6 242.0 0.7 241.9 0.8 241.65 0.85 241.45 1.0 241.2 1.05 241.1 1.05 241.0 1.05 240.85 1.25 240.65 1.25 240.55 1.25 238.9 1.25 238.8 1.25 237.95 1.05 237.65 M0.3 245.85 L0.6 245.85 0.85 245.9 1.45 246.8 1.5 246.7 1.5 246.6 1.55 246.45 1.65 246.35 1.85 246.15 2.1 245.9 2.15 245.7 2.25 245.3 2.4 245.05 2.4 244.85 2.4 244.5 2.4 244.25 2.35 244.2 2.25 244.05 2.15 243.95 2.15 243.7 2.15 243.25 2.15 243.0 1.9 242.65 1.5 242.2 1.4 242.35 0.45 243.1 0.15 243.15 -0.3 243.2 -0.55 243.1 -1.15 242.7 -1.35 242.45 -1.45 242.3 -1.45 241.45 -1.65 241.5 -2.0 241.6 -2.1 242.75 -2.1 244.35 -2.1 244.45 -2.0 244.6 -1.9 244.7 -1.85 244.8 -1.85 244.9 -1.85 245.3 -1.85 245.75 -1.75 245.85 -1.7 246.0 -1.65 246.2 -1.5 246.3 -1.3 246.45 -1.2 246.5 -1.1 246.4 -0.35 246.0 -0.3 246.0 0.15 245.85 0.3 245.85 M0.85 248.2 L0.6 248.1 0.5 247.95 0.4 247.75 Q0.35 247.55 0.45 247.4 0.5 247.35 0.65 247.25 L0.6 247.1 0.15 246.55 -0.2 246.8 -0.5 247.0 -0.5 247.1 -0.5 247.25 -0.65 247.35 -0.7 247.5 -0.7 249.55 -0.7 250.95 -0.65 251.05 -0.5 251.2 -0.5 251.3 -0.5 251.4 -0.3 251.65 -0.05 251.85 0.6 251.6 0.95 251.2 1.25 250.7 1.25 249.7 1.25 248.85 1.2 248.75 1.1 248.6 1.05 248.5 1.05 248.4 1.05 248.3 0.85 248.2 M0.85 252.4 L0.5 252.5 0.4 252.55 0.15 252.55 -0.55 252.55 -1.1 252.05 -1.2 251.9 -1.4 252.0 -1.8 252.25 -1.8 253.65 -1.65 255.15 -1.7 255.25 -1.8 255.35 -1.85 255.5 -1.75 255.7 -1.45 256.05 -1.3 256.15 -1.25 256.3 -1.2 256.4 -1.2 256.55 -1.1 256.6 -1.0 256.55 -0.7 256.45 -0.05 256.45 0.2 256.55 0.65 256.7 1.0 257.05 1.1 257.2 1.1 257.15 1.2 257.0 1.25 256.95 1.3 256.8 1.45 256.7 1.6 256.6 Q1.85 256.45 2.05 256.35 L2.25 255.5 2.15 254.15 2.1 254.05 2.0 253.9 1.95 253.8 1.95 253.55 2.0 253.1 1.9 252.6 1.7 252.6 1.05 252.5 0.85 252.4 M0.2 257.6 L-0.05 257.75 -0.2 257.85 -0.3 258.3 -0.5 258.65 -0.5 259.95 -0.5 260.7 -0.15 261.3 0.05 261.65 0.1 261.75 0.35 261.8 0.5 261.65 0.8 261.5 0.8 261.45 0.85 261.2 1.0 260.95 1.05 260.85 1.05 259.8 1.05 259.2 0.9 259.1 0.85 259.0 0.85 258.75 0.85 258.55 0.5 257.8 Q0.45 257.65 0.2 257.6 M0.85 262.75 L0.6 262.7 0.4 262.6 0.3 262.45 0.25 262.45 -0.3 262.45 -0.55 262.4 -0.7 262.3 -0.85 262.05 -1.0 261.95 -1.0 261.9 -1.0 261.8 -1.0 261.7 -1.1 261.6 -1.2 261.45 -1.2 261.35 -1.2 261.3 Q-1.5 261.6 -2.0 261.65 L-2.75 261.95 -2.75 263.4 Q-2.85 264.55 -2.55 265.65 L-2.35 265.85 -2.1 266.2 -2.1 265.4 -2.05 265.3 -1.75 265.05 -1.45 264.95 -0.5 264.95 -0.25 265.05 0.4 265.45 0.45 265.5 0.7 265.7 0.8 265.85 0.85 265.95 0.85 266.05 0.9 266.15 1.05 266.3 1.05 266.4 1.05 266.5 1.05 266.65 1.15 266.75 1.3 266.65 2.15 265.7 2.15 265.6 2.15 265.5 2.15 265.35 2.05 265.25 2.0 265.15 2.0 264.9 1.95 264.8 1.9 264.65 1.8 264.55 1.7 264.4 1.7 264.35 1.7 264.2 1.7 263.95 1.7 263.85 1.6 263.75 1.55 263.65 1.5 263.5 1.5 263.4 1.5 263.25 1.4 263.15 1.35 263.05 1.25 262.85 1.25 262.8 1.05 262.75 0.85 262.75 M0.15 266.55 L-0.25 265.95 -0.4 265.75 -1.2 265.65 -1.2 267.35 -1.15 267.35 -0.95 268.2 -1.0 268.4 -1.05 268.5 -1.1 268.65 -1.2 268.75 -1.05 269.0 -1.0 269.1 -1.0 270.0 -1.0 270.5 Q-0.3 270.45 -0.05 269.95 L-0.05 269.9 0.0 269.85 0.05 269.7 0.15 269.35 0.15 268.9 0.15 268.5 0.0 268.3 -0.05 268.2 0.2 267.9 0.15 267.65 0.15 267.55 0.4 267.35 0.4 267.3 0.4 267.15 0.3 267.0 0.15 266.9 0.15 266.65 0.15 266.55" fill="#000000" fill-rule="evenodd" stroke="none"/>
    <path d="M1.9 27.1 L1.6 27.3 1.45 27.0 1.45 26.9 1.5 26.95 1.75 27.0 1.9 27.1 M1.9 96.6 L1.6 96.85 1.45 96.55 1.3 96.25 1.25 96.2 1.25 96.15 1.3 96.25 1.4 96.4 1.5 96.5 1.75 96.6 1.9 96.6 M1.9 157.1 L1.6 157.3 1.45 157.0 1.45 156.9 1.5 156.95 1.75 157.0 1.9 157.1 M1.9 226.6 L1.6 226.85 1.45 226.55 1.3 226.25 1.25 226.2 1.25 226.15 1.3 226.25 1.4 226.4 1.5 226.5 1.75 226.6 1.9 226.6 M0.1 275.9 L-0.15 275.9 -0.1 275.6 -0.1 275.35 -0.25 275.3 -0.35 275.15 -0.55 275.05 -1.4 274.95 -1.65 274.9 -1.75 274.8 -2.2 274.2 -2.3 273.95 -2.3 273.85 -2.35 272.6 Q-2.4 271.9 -2.0 271.3 L-1.85 271.2 -1.75 271.05 -1.65 270.9 -1.55 270.95 -1.2 271.15 -1.0 271.25 -0.9 271.25 -0.95 271.3 -1.1 271.45 -1.3 272.7 Q-1.35 273.55 -1.0 274.3 L-0.7 274.4 Q0.0 274.65 0.65 274.4 1.2 274.0 1.25 273.45 1.4 272.9 1.05 272.45 L0.95 271.75 Q0.85 271.3 0.35 271.05 L0.1 271.0 0.15 270.9 0.35 270.8 0.45 270.7 0.5 270.65 0.6 270.7 1.05 270.8 1.5 270.9 1.6 271.15 1.75 271.35 1.8 271.5 1.95 271.75 2.0 272.05 1.95 273.1 1.95 273.55 2.0 273.7 2.1 273.8 2.15 273.9 2.15 274.05 2.15 274.15 2.1 274.25 0.65 275.45 0.1 275.9 M-1.45 258.9 L-1.45 257.85 -1.2 257.8 -1.2 257.9 -1.2 258.0 -1.2 258.1 -1.2 258.25 -1.45 258.9 M-1.45 189.35 L-1.45 188.3 -1.2 188.25 -1.2 188.35 -1.2 188.45 -1.2 188.55 -1.2 188.65 -1.45 189.35 M-1.85 157.55 L-1.9 157.55 -1.85 157.5 -1.85 157.55 M-1.45 128.9 L-1.45 127.85 -1.2 127.8 -1.2 127.9 -1.2 128.0 -1.2 128.1 -1.2 128.25 -1.45 128.9 M-1.45 59.35 L-1.45 58.3 -1.2 58.25 -1.2 58.35 -1.2 58.45 -1.2 58.55 -1.2 58.65 -1.45 59.35 M-1.85 27.55 L-1.9 27.55 -1.85 27.5 -1.85 27.55 M-0.2 9.0 L0.45 9.0 0.5 11.0 0.5 11.1 0.5 11.3 0.85 11.35 0.85 11.55 0.7 11.65 0.6 11.8 0.6 11.9 0.45 12.1 Q0.1 12.45 -0.2 12.1 L-0.3 11.9 -0.7 11.4 -0.7 11.05 -0.6 11.0 Q-0.1 10.5 -0.2 9.85 L-0.25 9.05 -0.2 9.0 M0.0 12.9 L0.85 12.9 1.45 12.2 1.5 12.25 1.85 12.35 2.0 12.5 2.25 12.7 2.35 12.85 2.4 12.95 2.4 13.15 2.4 14.0 2.4 14.1 2.4 14.65 2.3 14.8 2.1 15.05 2.0 15.15 1.95 15.25 1.95 15.35 1.95 15.6 1.95 15.75 1.95 15.8 1.8 16.05 1.6 16.4 1.35 16.65 1.25 16.75 1.15 16.65 1.05 16.55 1.05 16.3 0.95 16.05 0.85 15.95 0.6 15.9 0.45 15.9 Q0.9 15.45 0.8 14.8 L0.65 14.0 0.45 13.2 0.1 13.0 0.0 12.9 M-1.0 15.95 L-1.45 16.05 -2.1 15.65 -2.1 15.55 -2.2 15.3 -2.3 15.2 -1.95 14.0 -2.0 13.7 -2.1 11.95 -1.6 11.65 -1.45 11.85 -1.4 12.05 -1.35 12.2 -1.2 12.3 -1.05 12.45 -1.0 12.5 -1.0 12.65 -0.9 12.75 -0.8 12.85 -0.95 12.9 -1.2 13.0 Q-1.5 13.45 -1.45 14.0 L-1.45 14.95 -1.35 15.05 -1.25 15.2 -1.2 15.3 -1.2 15.45 -1.1 15.75 -1.0 15.95 M0.8 19.85 L0.7 19.9 0.55 20.0 0.45 20.1 0.4 20.25 0.4 20.45 0.45 20.7 0.6 20.95 0.85 21.0 0.85 21.05 0.55 21.5 0.05 21.9 Q-0.25 21.85 -0.4 21.65 L-0.7 21.3 -0.7 20.85 -0.7 20.65 -0.8 20.55 -0.75 20.5 -0.7 20.4 -0.7 20.25 -0.9 20.05 -0.95 20.0 -1.0 19.35 -1.0 18.05 -0.75 17.85 -0.7 17.7 -0.9 17.5 -1.0 17.4 -0.9 16.95 -0.85 16.7 -0.45 16.55 0.1 16.6 0.15 16.65 0.35 16.85 0.4 17.0 0.4 17.45 0.4 17.8 0.45 17.9 0.6 18.05 0.6 18.15 0.6 18.5 0.6 18.6 0.75 18.7 0.75 18.75 0.8 19.85 M0.85 22.3 L1.0 22.2 1.15 22.05 1.3 21.85 1.5 21.65 1.5 21.85 1.6 22.1 1.95 22.7 2.15 23.0 2.2 23.25 2.25 23.45 2.4 23.7 2.45 24.85 2.3 25.55 2.0 25.65 1.7 25.75 1.55 26.0 1.45 26.15 1.25 26.4 1.25 26.45 1.2 26.3 1.05 26.05 1.05 25.85 1.0 25.7 0.9 25.6 0.65 25.25 0.95 23.85 Q0.9 23.15 1.0 22.45 L0.85 22.35 0.85 22.3 M-0.95 25.15 L-1.45 25.45 -1.45 25.6 -1.45 25.7 -1.45 25.8 -1.65 25.95 -1.65 26.05 -1.65 26.15 -1.7 26.25 -1.85 26.2 -2.3 26.15 -2.3 26.05 -2.55 25.4 -2.55 25.25 -2.55 24.65 -2.55 24.45 -2.25 23.6 -2.3 23.05 -2.35 22.95 -2.45 22.85 -2.55 22.7 -2.6 22.0 -2.6 21.55 -2.2 21.35 -1.8 21.25 -1.15 22.1 -1.1 22.2 -1.25 22.3 -1.5 23.8 -1.3 24.8 -1.05 25.05 -0.95 25.15 M0.85 27.8 L0.85 28.1 0.85 28.35 0.95 28.45 1.05 28.55 1.05 28.9 1.05 29.15 0.9 29.25 0.85 29.35 0.85 30.1 0.85 31.0 0.7 31.1 0.6 31.2 0.55 31.45 0.45 31.55 -0.5 31.65 -0.6 31.55 -0.5 31.3 -0.6 30.7 -1.0 29.9 -1.0 28.75 -1.0 27.0 -1.0 26.85 -1.0 26.75 -1.0 26.7 -0.7 26.3 Q-0.7 26.0 -0.3 25.75 L-0.2 25.8 0.1 26.0 0.2 26.25 0.4 26.6 0.4 26.7 0.4 26.85 0.4 26.95 0.45 27.0 0.5 27.05 0.6 27.15 0.6 27.3 0.6 27.4 0.6 27.5 0.7 27.65 0.8 27.7 0.85 27.8 M-0.7 36.3 L-0.9 36.45 -1.85 35.6 -1.85 34.15 -1.85 32.9 -1.9 32.8 -2.0 32.7 -2.1 32.55 -2.1 32.45 -2.1 31.9 -2.1 31.55 -1.95 31.5 -1.65 31.75 Q-1.15 32.15 -0.5 32.35 L0.65 32.3 1.0 32.05 1.45 31.75 1.45 31.65 1.5 31.65 1.95 31.8 2.1 31.85 2.2 31.95 2.3 32.05 2.4 32.2 2.4 33.95 2.4 35.3 2.45 35.45 2.55 35.55 2.45 35.65 2.4 35.75 2.4 35.9 2.4 36.0 2.4 36.1 2.3 36.2 1.8 36.7 Q1.6 36.75 1.5 36.9 L1.5 36.85 1.35 36.6 1.2 36.3 1.1 36.15 0.85 36.1 0.75 36.1 0.85 36.0 1.05 34.95 Q1.2 34.35 0.85 33.8 L0.85 33.7 0.85 33.35 0.8 33.1 0.65 33.0 0.5 32.9 0.35 32.75 -0.05 32.7 -0.5 32.75 -0.7 32.85 -0.85 33.0 -1.1 33.25 -1.2 33.35 -1.2 34.5 -1.1 35.9 -0.75 36.2 -0.7 36.3 M-0.5 42.45 L-0.5 40.8 -0.5 37.55 -0.3 37.3 -0.3 37.2 -0.3 37.1 -0.1 36.75 -0.05 36.75 0.4 36.8 0.45 36.95 0.6 37.15 0.6 37.25 0.6 37.4 0.6 37.5 0.85 37.85 1.05 38.1 1.05 38.6 1.25 39.25 1.25 39.35 1.25 40.95 1.25 41.1 1.05 41.35 1.05 41.4 1.05 41.55 1.0 41.65 0.85 41.9 0.8 42.15 0.7 42.35 0.6 42.45 -0.3 42.4 -0.3 42.45 -0.5 42.45 M0.3 46.25 L0.4 46.2 0.7 45.95 0.85 45.85 Q1.15 45.2 1.1 44.55 L1.05 43.75 1.2 43.6 1.3 43.5 1.4 43.3 1.45 43.05 1.45 42.85 1.4 42.75 1.5 42.7 1.9 43.1 2.15 43.45 2.15 43.65 2.15 44.15 2.15 44.35 2.25 44.5 2.35 44.6 2.4 44.75 2.4 44.95 2.4 45.3 2.4 45.5 2.25 45.75 2.15 46.1 2.1 46.35 1.85 46.55 1.65 46.8 1.55 46.9 1.5 47.0 1.5 47.15 1.45 47.25 0.85 46.35 0.6 46.3 0.3 46.25 M-1.15 43.1 L-1.35 44.35 -1.0 46.2 -0.7 46.3 -0.3 46.4 -0.35 46.45 -1.1 46.85 -1.2 46.95 -1.3 46.85 -1.5 46.75 -1.65 46.65 -1.7 46.4 -1.75 46.3 -1.85 46.2 -1.85 45.75 -1.85 45.35 -1.85 45.25 -1.9 45.15 -2.0 45.05 -2.1 44.9 -2.1 44.8 -2.1 43.15 -2.0 42.0 -1.65 41.95 -1.45 41.9 -1.45 42.75 -1.35 42.85 -1.15 43.1 M0.6 52.0 L-0.05 52.3 -0.3 52.05 -0.5 51.85 -0.5 51.75 -0.5 51.6 -0.65 51.5 -0.7 51.4 -0.7 50.0 -0.7 47.9 -0.65 47.8 -0.5 47.7 -0.5 47.55 -0.5 47.45 -0.2 47.2 0.15 47.0 0.6 47.55 0.65 47.7 Q0.5 47.75 0.45 47.85 0.35 48.0 0.4 48.2 L0.5 48.4 0.6 48.5 0.85 48.65 0.9 49.85 Q0.95 50.7 0.6 51.45 L0.6 51.8 0.6 52.0 M2.0 53.55 L1.95 54.0 1.95 54.25 2.0 54.35 2.1 54.5 2.15 54.6 2.25 56.0 2.05 56.75 Q1.85 56.9 1.6 57.0 L1.45 57.15 1.3 57.25 1.25 57.35 1.2 57.5 1.1 57.6 1.0 57.5 0.65 57.15 0.2 57.0 -0.05 56.9 -0.7 56.9 -1.0 57.0 -1.1 57.05 -1.2 57.0 -1.2 56.85 -1.25 56.75 -1.3 56.6 -1.45 56.55 -1.75 56.15 -1.85 55.9 -1.8 55.85 -1.7 55.7 -1.65 55.6 -1.8 54.1 -1.8 52.7 -1.4 52.45 -1.2 52.35 -1.1 52.5 -0.55 53.0 0.15 53.0 0.4 53.0 0.5 52.95 0.85 52.85 1.05 52.95 1.7 53.05 1.9 53.05 2.0 53.55 M1.45 53.95 L1.3 53.8 1.2 53.7 1.0 53.6 0.55 53.45 0.45 53.35 0.3 53.25 0.1 53.15 -0.3 53.05 -0.8 53.2 -1.05 53.3 -1.3 54.8 -1.05 56.15 -0.85 56.25 0.15 56.6 0.65 56.45 0.85 56.35 1.0 56.0 1.05 55.3 1.05 54.85 1.2 54.75 1.3 54.65 1.35 54.5 1.45 54.4 1.45 54.15 1.45 53.95 M0.1 62.2 L0.05 62.1 -0.15 61.75 -0.5 61.2 -0.5 60.5 -0.5 60.4 -0.5 59.1 -0.3 58.75 -0.2 58.3 -0.05 58.2 0.2 58.05 Q0.45 58.05 0.5 58.25 L0.85 59.0 0.85 59.2 0.85 59.45 0.9 59.55 1.05 59.7 1.05 60.25 1.05 60.5 1.05 61.3 1.0 61.4 0.85 61.65 0.8 61.9 0.8 61.95 0.5 62.15 0.35 62.25 0.35 62.2 0.1 62.2 M-1.0 62.35 L-1.1 62.45 -1.2 62.8 -1.3 63.0 -1.45 63.15 -1.6 63.25 -1.75 63.4 -1.9 64.2 -1.8 64.9 -1.45 65.4 -1.75 65.5 -2.05 65.75 -2.1 65.85 -2.1 66.65 -2.35 66.3 -2.55 66.05 Q-2.85 65.0 -2.75 63.85 L-2.75 62.35 Q-2.45 62.15 -2.0 62.1 -1.5 62.05 -1.2 61.75 L-1.2 61.8 -1.2 61.9 -1.1 62.05 -1.0 62.15 -1.0 62.25 -1.0 62.35 M0.4 65.9 L0.55 65.8 Q1.2 65.25 1.1 64.55 L0.85 63.2 1.05 63.25 1.25 63.25 1.25 63.3 1.35 63.45 1.4 63.65 1.5 63.7 1.5 63.85 1.5 63.95 1.55 64.05 1.6 64.2 1.7 64.3 1.7 64.4 1.7 64.65 1.7 64.75 1.7 64.9 1.8 64.95 1.9 65.1 1.95 65.2 2.0 65.35 2.0 65.6 2.05 65.65 2.15 65.8 2.15 65.9 2.15 66.05 2.15 66.15 1.3 67.05 1.15 67.2 1.05 67.1 1.05 66.95 1.05 66.85 1.05 66.7 0.9 66.6 0.85 66.5 0.85 66.4 0.8 66.3 0.7 66.15 0.45 65.9 0.4 65.9 M-1.5 74.4 L-1.5 74.45 -1.65 74.55 -1.6 74.8 -1.65 75.1 -1.65 75.25 -1.65 75.3 -1.75 75.35 -1.85 75.5 -1.85 76.25 -2.05 76.2 -2.2 76.15 -2.3 76.05 -2.25 74.55 -2.25 74.5 -2.3 73.7 -2.45 73.3 -2.55 73.15 -2.55 73.05 -2.5 72.35 -2.6 71.9 -2.6 71.8 -2.6 71.65 -2.55 71.55 -2.55 71.4 -2.55 71.35 -1.7 71.25 0.4 71.2 0.45 71.2 0.7 71.3 0.85 71.4 1.05 71.5 1.05 71.75 1.05 71.95 1.05 72.2 1.05 72.3 1.1 72.45 1.2 72.55 1.25 72.7 1.25 73.25 1.25 73.6 1.25 73.95 1.4 74.2 1.5 74.25 1.5 74.5 1.55 74.9 1.6 75.1 1.7 75.2 2.0 75.3 2.4 75.4 2.55 75.4 1.9 75.9 1.55 76.15 1.5 76.15 1.45 76.05 1.3 75.85 1.15 75.45 1.1 75.35 1.0 75.1 0.7 74.8 0.4 74.55 Q0.8 74.05 0.8 73.45 0.8 72.65 -0.1 72.1 L-0.5 72.05 -1.0 72.0 -1.0 72.05 -1.1 72.05 -1.3 72.05 -1.45 72.1 -1.7 72.3 -1.8 72.4 -1.85 72.5 -1.85 72.65 -1.85 73.3 -1.65 73.65 -1.65 73.9 -1.55 74.35 -1.5 74.4 M0.15 67.0 L0.15 67.1 0.15 67.35 0.3 67.5 0.4 67.55 0.4 67.7 0.4 67.8 0.15 68.0 0.15 68.1 0.2 68.3 -0.05 68.6 0.0 68.75 0.15 69.0 0.15 69.3 0.15 69.75 0.1 69.95 -1.0 69.85 -1.0 69.55 -1.05 69.45 -1.2 69.2 -1.1 69.1 -1.05 69.0 -1.0 68.85 -0.95 68.6 -1.15 67.8 -1.2 67.8 -1.2 66.05 -0.4 66.2 -0.25 66.4 0.15 67.0 M-0.3 74.85 L-0.25 74.95 0.4 75.9 0.4 76.15 0.4 76.6 0.4 76.65 0.6 77.2 0.6 77.35 0.5 77.45 0.45 77.55 0.4 77.65 0.5 80.7 0.5 80.85 0.85 80.85 0.85 81.1 0.7 81.2 0.6 81.35 0.6 81.45 0.45 81.7 Q0.1 82.0 -0.2 81.7 L-0.3 81.45 -0.7 81.0 -0.7 80.2 Q-0.6 79.3 -1.0 78.45 L-1.0 77.5 -1.0 76.8 -1.0 75.65 -0.85 75.55 -0.75 75.45 -0.7 75.45 -0.7 75.2 -0.7 74.85 -0.7 74.8 -0.3 74.85 M0.0 82.5 L0.85 82.45 1.45 81.75 1.5 81.8 1.85 81.95 2.0 82.05 2.25 82.3 2.35 82.4 2.4 82.5 2.4 82.75 2.4 83.65 2.4 84.25 2.3 84.35 2.1 84.55 2.0 84.7 1.95 84.8 1.95 84.9 1.95 85.15 1.95 85.3 1.95 85.4 1.8 85.65 1.6 86.0 Q1.45 86.05 1.35 86.2 L1.25 86.3 1.15 86.2 1.05 86.05 1.05 85.85 0.95 85.65 0.85 85.5 0.6 85.45 0.45 85.45 Q0.9 84.95 0.8 84.4 L0.45 82.75 0.1 82.55 0.0 82.5 M-1.0 85.5 L-1.45 85.65 -2.1 85.2 -2.1 85.1 -2.2 84.85 -2.3 84.75 Q-1.9 84.0 -2.0 83.25 L-2.1 81.5 -1.6 81.2 -1.45 81.4 -1.4 81.6 -1.35 81.75 -1.2 81.85 -1.05 81.95 -1.0 82.05 -1.0 82.2 -0.9 82.3 -0.8 82.4 -0.95 82.45 -1.2 82.5 Q-1.5 83.0 -1.45 83.6 L-1.45 84.5 -1.35 84.6 -1.25 84.75 -1.2 84.85 -1.2 84.95 -1.1 85.3 -1.0 85.5 M0.8 89.4 L0.7 89.45 0.55 89.55 0.45 89.7 0.4 89.75 0.4 90.0 0.45 90.25 0.6 90.5 0.85 90.55 0.85 90.6 0.55 91.05 0.05 91.5 -0.4 91.2 -0.7 90.85 -0.7 90.4 -0.7 90.15 -0.8 90.1 -0.75 90.05 -0.7 89.95 -0.7 89.85 -0.9 89.6 -0.95 89.55 -1.0 88.9 -1.0 87.65 -0.75 87.4 -0.7 87.3 -0.9 87.05 -1.0 86.95 -0.9 86.45 -0.85 86.25 -0.45 86.15 Q-0.05 85.9 0.1 86.15 L0.15 86.2 0.35 86.45 0.4 86.55 0.4 87.0 0.4 87.35 0.45 87.5 0.6 87.6 0.6 87.7 0.6 88.05 0.6 88.15 0.75 88.25 0.8 89.4 M0.65 94.8 L0.95 93.4 Q0.9 92.7 1.0 92.0 L0.85 91.9 0.85 91.85 1.0 91.75 1.15 91.65 1.3 91.4 1.5 91.2 1.5 91.4 1.6 91.65 1.95 92.2 2.15 92.55 2.2 92.8 2.25 93.0 2.4 93.25 2.45 94.4 2.3 95.1 2.0 95.2 1.7 95.35 1.55 95.55 1.45 95.7 1.25 95.9 1.25 96.0 1.2 95.85 1.05 95.6 1.05 95.35 1.0 95.3 0.9 95.15 0.65 94.8 M-1.1 91.75 L-1.25 91.8 -1.5 93.3 -1.3 94.4 -1.05 94.6 -0.95 94.75 -1.45 95.05 -1.45 95.15 -1.45 95.25 -1.45 95.35 -1.65 95.5 -1.65 95.6 -1.65 95.7 -1.7 95.8 -1.85 95.75 -2.3 95.7 -2.3 95.6 -2.55 94.95 -2.55 94.8 -2.55 94.2 -2.55 94.0 Q-2.2 93.65 -2.25 93.15 L-2.3 92.6 -2.35 92.5 -2.45 92.35 -2.55 92.25 -2.6 91.6 -2.6 91.1 -2.2 90.95 -1.8 90.8 -1.15 91.65 -1.1 91.75 M0.85 97.35 L0.85 97.65 0.85 97.9 0.95 98.0 1.05 98.1 1.05 98.45 1.05 98.7 0.9 98.8 0.85 98.9 0.85 99.6 0.85 100.55 0.7 100.65 0.6 100.8 0.55 101.0 0.45 101.1 -0.5 101.2 -0.6 101.1 -0.5 100.85 -0.6 100.3 -1.0 99.45 -1.0 98.3 -1.0 96.4 -1.0 96.25 -0.7 95.9 Q-0.7 95.55 -0.3 95.3 L-0.2 95.35 0.1 95.55 0.2 95.8 0.4 96.15 0.4 96.25 0.4 96.4 0.4 96.5 0.5 96.6 0.6 96.7 0.6 96.85 0.6 96.95 0.6 97.1 0.7 97.15 0.8 97.25 0.85 97.35 M-0.7 105.85 L-0.9 106.05 -1.85 105.15 -1.85 103.75 -1.85 102.45 -1.9 102.35 -2.0 102.25 -2.1 102.15 -2.1 102.0 -2.1 101.4 -2.1 101.1 -1.95 101.05 -1.65 101.3 -0.5 101.95 0.65 101.85 1.0 101.65 1.45 101.25 1.45 101.2 1.5 101.2 1.95 101.35 2.1 101.4 2.2 101.5 2.3 101.65 2.4 101.75 2.4 103.45 2.4 104.9 2.45 104.95 2.55 105.1 2.45 105.2 2.4 105.35 2.4 105.45 2.4 105.55 2.4 105.7 2.3 105.8 1.8 106.25 Q1.6 106.3 1.5 106.45 L1.5 106.4 1.35 106.15 1.2 105.85 1.1 105.7 0.85 105.7 0.75 105.7 0.85 105.55 1.05 104.5 Q1.2 103.9 0.85 103.35 L0.85 103.25 0.85 102.9 0.8 102.65 0.65 102.55 0.5 102.45 0.35 102.3 -0.05 102.25 -0.5 102.35 -0.7 102.45 -0.85 102.55 -1.1 102.75 -1.2 102.9 -1.2 104.05 -1.1 105.45 -0.75 105.75 -0.7 105.85 M-0.5 112.05 L-0.5 112.0 -0.5 110.4 -0.5 107.1 -0.3 106.85 -0.3 106.75 -0.3 106.65 -0.3 106.6 -0.1 106.3 -0.05 106.3 0.4 106.35 0.45 106.45 0.6 106.7 0.6 106.85 0.6 106.95 0.6 107.05 0.85 107.4 1.05 107.65 1.05 108.1 1.25 108.8 1.25 108.9 1.25 110.55 1.25 110.65 1.05 110.85 1.05 111.0 1.05 111.1 1.0 111.2 0.85 111.45 0.8 111.65 0.7 111.9 0.6 112.0 -0.3 112.0 -0.5 112.05 M0.3 115.85 L0.4 115.75 0.7 115.5 0.85 115.35 1.1 114.1 1.05 113.3 1.2 113.2 1.3 113.1 1.4 112.85 1.45 112.6 1.45 112.35 1.4 112.35 1.5 112.2 1.9 112.65 2.15 113.0 2.15 113.25 2.15 113.7 2.15 113.95 2.25 114.05 2.35 114.2 2.4 114.25 2.4 114.5 2.4 114.85 2.4 115.05 2.25 115.3 2.15 115.7 2.1 115.9 1.85 116.15 1.65 116.35 1.55 116.45 1.5 116.6 1.5 116.7 1.45 116.8 0.85 115.9 0.6 115.85 0.3 115.85 M-1.15 112.7 L-1.35 113.95 -1.0 115.75 -0.7 115.85 -0.3 116.0 -0.35 116.0 -1.1 116.4 -1.2 116.5 -1.3 116.45 -1.5 116.3 -1.65 116.2 -1.7 116.0 -1.75 115.85 -1.85 115.75 -1.85 115.3 -1.85 114.9 -1.85 114.8 -1.9 114.7 -2.0 114.6 -2.1 114.45 -2.1 114.35 -2.1 112.75 -2.0 111.6 -1.65 111.5 -1.45 111.45 -1.45 112.3 -1.35 112.45 -1.15 112.7 M0.6 121.6 L-0.05 121.85 -0.3 121.65 -0.5 121.4 -0.5 121.3 -0.5 121.2 -0.65 121.05 -0.7 120.95 -0.7 119.55 -0.7 117.5 -0.65 117.35 -0.5 117.25 -0.5 117.1 -0.5 117.0 -0.2 116.8 0.15 116.55 0.6 117.1 0.65 117.25 Q0.5 117.35 0.45 117.4 0.35 117.55 0.4 117.75 L0.5 117.95 0.6 118.1 0.85 118.2 0.9 119.4 Q0.95 120.25 0.6 121.05 L0.6 121.35 0.6 121.6 M0.85 122.4 L1.05 122.5 1.7 122.6 1.9 122.6 2.0 123.1 1.95 123.55 1.95 123.8 2.0 123.9 2.1 124.05 2.15 124.15 2.25 125.5 2.05 126.35 Q1.85 126.45 1.6 126.6 L1.45 126.7 1.3 126.8 1.25 126.95 1.2 127.0 1.1 127.15 1.1 127.2 1.0 127.05 0.65 126.7 0.2 126.55 -0.05 126.45 -0.7 126.45 -1.0 126.55 -1.1 126.6 -1.2 126.55 -1.2 126.4 -1.25 126.3 -1.3 126.15 -1.45 126.05 -1.75 125.7 -1.85 125.5 -1.8 125.35 -1.7 125.25 -1.65 125.15 -1.8 123.65 -1.8 122.25 -1.4 122.0 -1.2 121.9 -1.1 122.05 -0.55 122.55 0.15 122.55 0.4 122.55 0.5 122.5 0.85 122.4 M0.45 122.9 L0.3 122.8 0.1 122.7 -0.3 122.6 -0.8 122.75 -1.05 122.85 -1.3 124.35 -1.05 125.7 -0.85 125.85 0.15 126.15 0.65 126.0 0.85 125.9 1.0 125.55 1.05 124.9 1.05 124.4 1.2 124.3 1.3 124.2 1.35 124.05 1.45 123.95 1.45 123.7 1.45 123.45 1.3 123.4 1.2 123.25 1.0 123.15 0.55 123.0 0.45 122.9 M0.2 127.6 Q0.45 127.65 0.5 127.8 L0.85 128.55 0.85 128.75 0.85 129.0 0.9 129.1 1.05 129.2 1.05 129.8 1.05 130.85 1.0 130.95 0.85 131.2 0.8 131.45 0.8 131.5 0.5 131.65 0.35 131.8 0.1 131.75 0.05 131.65 -0.15 131.3 -0.5 130.7 -0.5 129.95 -0.5 128.65 -0.3 128.3 -0.2 127.85 -0.05 127.75 0.2 127.6 M-1.0 131.9 L-1.1 132.0 -1.2 132.35 -1.3 132.6 -1.45 132.7 -1.6 132.85 -1.75 132.9 -1.9 133.75 -1.8 134.4 Q-1.5 134.65 -1.45 134.95 L-1.75 135.05 -2.05 135.3 -2.1 135.4 -2.1 136.2 -2.35 135.85 -2.55 135.65 Q-2.85 134.55 -2.75 133.4 L-2.75 131.95 -2.0 131.65 Q-1.5 131.6 -1.2 131.3 L-1.2 131.35 -1.2 131.45 -1.1 131.6 -1.0 131.7 -1.0 131.8 -1.0 131.9 M0.4 135.45 L0.55 135.35 Q1.2 134.8 1.1 134.1 L0.85 132.75 1.05 132.75 1.25 132.8 1.25 132.85 1.35 133.05 1.4 133.15 1.5 133.25 1.5 133.4 1.5 133.5 1.55 133.65 1.6 133.75 1.7 133.85 1.7 133.95 1.7 134.2 1.7 134.35 1.7 134.4 1.8 134.55 1.9 134.65 1.95 134.8 2.0 134.9 2.0 135.15 2.05 135.25 2.15 135.35 2.15 135.5 2.15 135.6 2.15 135.7 1.3 136.65 1.15 136.75 1.05 136.65 1.05 136.5 1.05 136.4 1.05 136.3 0.9 136.15 0.85 136.05 0.85 135.95 0.8 135.85 0.7 135.7 0.45 135.5 0.4 135.45 M0.15 136.55 L0.15 136.65 0.15 136.9 0.3 137.0 0.4 137.15 0.4 137.3 0.4 137.35 0.15 137.55 0.15 137.65 0.2 137.9 -0.05 138.2 0.0 138.3 0.15 138.5 0.15 138.9 0.15 139.35 0.05 139.7 0.0 139.85 -0.05 139.9 -0.05 139.95 Q-0.3 140.45 -1.0 140.5 L-1.0 140.0 -1.0 139.1 -1.05 139.0 -1.2 138.75 -1.1 138.65 -1.05 138.5 -1.0 138.4 -0.95 138.2 -1.15 137.35 -1.2 137.35 -1.2 135.65 -0.4 135.75 -0.25 135.95 0.15 136.55 M0.1 141.0 L0.15 140.9 0.35 140.8 0.45 140.7 0.5 140.65 0.6 140.7 1.05 140.8 1.5 140.9 1.6 141.15 1.75 141.35 1.8 141.5 1.95 141.75 2.0 142.05 1.95 143.1 1.95 143.55 2.0 143.7 2.1 143.8 2.15 143.9 2.15 144.0 2.4 144.0 2.4 144.1 2.4 144.65 2.3 144.8 2.1 145.05 2.0 145.15 1.95 145.25 1.95 145.35 1.95 145.6 1.95 145.75 1.95 145.8 1.8 146.05 1.6 146.4 1.35 146.65 1.25 146.75 1.15 146.65 1.05 146.55 1.05 146.3 0.95 146.05 0.85 145.95 0.6 145.9 0.45 145.9 0.8 145.35 0.8 144.8 0.7 144.35 0.65 144.0 1.05 144.0 1.25 143.45 Q1.4 142.9 1.05 142.45 L0.95 141.75 Q0.85 141.3 0.35 141.05 L0.1 141.0 M-1.0 145.95 L-1.45 146.05 -2.1 145.65 -2.1 145.55 -2.2 145.3 -2.3 145.2 -2.0 144.55 -1.95 144.0 -2.25 144.0 -2.3 143.95 -2.3 143.85 -2.35 142.6 Q-2.4 141.9 -2.0 141.3 L-1.85 141.2 -1.75 141.05 -1.65 140.9 -1.55 140.95 -1.2 141.15 -1.0 141.25 -0.9 141.25 -0.95 141.3 -1.1 141.45 -1.3 142.7 -1.1 144.0 -1.45 144.0 -1.45 144.95 -1.35 145.05 -1.25 145.2 -1.2 145.3 -1.2 145.45 -1.1 145.75 -1.0 145.95 M0.8 149.85 L0.7 149.9 0.55 150.0 0.45 150.1 0.4 150.25 0.4 150.45 0.45 150.7 0.6 150.95 0.85 151.0 0.85 151.05 0.55 151.5 0.05 151.9 Q-0.25 151.85 -0.4 151.65 L-0.7 151.3 -0.7 150.85 -0.7 150.65 -0.8 150.55 -0.75 150.5 -0.7 150.4 -0.7 150.25 -0.9 150.05 -0.95 150.0 -1.0 149.35 -1.0 148.05 -0.75 147.85 -0.7 147.7 -0.9 147.5 -1.0 147.4 -0.9 146.95 -0.85 146.7 -0.45 146.55 -0.3 146.5 0.1 146.6 0.15 146.65 0.35 146.85 0.4 147.0 0.4 147.1 0.4 147.45 0.4 147.8 0.45 147.9 0.6 148.05 0.6 148.15 0.6 148.5 0.6 148.6 0.75 148.7 0.75 148.75 0.8 149.85 M0.85 152.3 L1.0 152.2 1.15 152.05 1.3 151.85 1.5 151.65 1.5 151.85 1.6 152.1 1.95 152.7 2.15 153.0 2.2 153.25 2.25 153.45 2.4 153.7 2.45 154.85 2.3 155.55 2.0 155.65 1.7 155.75 1.55 156.0 1.45 156.15 1.25 156.4 1.25 156.45 1.2 156.3 1.05 156.05 1.05 155.85 1.0 155.7 0.9 155.6 0.65 155.25 0.95 153.85 Q0.9 153.15 1.0 152.45 L0.85 152.35 0.85 152.3 M-0.95 155.15 L-1.45 155.45 -1.45 155.6 -1.45 155.7 -1.45 155.8 -1.65 155.95 -1.65 156.05 -1.65 156.15 -1.7 156.25 -1.85 156.2 -2.3 156.15 -2.3 156.05 -2.55 155.4 -2.55 155.25 -2.55 154.65 -2.55 154.45 -2.25 153.6 -2.3 153.05 -2.35 152.95 -2.45 152.85 -2.55 152.7 -2.6 152.0 -2.6 151.55 -2.2 151.35 -1.8 151.25 -1.15 152.1 -1.1 152.2 -1.25 152.3 -1.5 153.8 -1.3 154.8 -1.05 155.05 -0.95 155.15 M0.85 157.8 L0.85 158.1 0.85 158.35 0.95 158.45 1.05 158.55 1.05 158.9 1.05 159.15 0.9 159.25 0.85 159.35 0.85 160.1 0.85 161.0 0.7 161.1 0.6 161.2 0.55 161.45 0.45 161.55 -0.5 161.65 -0.6 161.55 -0.5 161.3 -0.6 160.7 -1.0 159.9 -1.0 158.75 -1.0 157.0 -1.0 156.85 -1.0 156.75 -1.0 156.7 -0.7 156.3 Q-0.7 156.0 -0.3 155.75 L-0.2 155.8 0.1 156.0 0.2 156.25 0.4 156.6 0.4 156.7 0.4 156.85 0.4 156.95 0.5 157.05 0.6 157.15 0.6 157.3 0.6 157.4 0.6 157.5 0.7 157.65 0.8 157.7 0.85 157.8 M-0.7 166.3 L-0.9 166.45 -1.85 165.6 -1.85 164.15 -1.85 162.9 -1.9 162.8 -2.0 162.7 -2.1 162.55 -2.1 162.45 -2.1 161.9 -2.1 161.55 -1.95 161.5 -1.65 161.75 Q-1.15 162.15 -0.5 162.35 L0.65 162.3 1.0 162.05 1.45 161.75 1.45 161.65 1.5 161.65 1.95 161.8 2.1 161.85 2.2 161.95 2.3 162.05 2.4 162.2 2.4 163.95 2.4 165.3 2.45 165.45 2.55 165.55 2.45 165.65 2.4 165.75 2.4 165.9 2.4 166.0 2.4 166.1 2.3 166.2 1.8 166.7 Q1.6 166.75 1.5 166.9 L1.5 166.85 1.35 166.6 1.2 166.3 1.1 166.15 0.85 166.1 0.75 166.1 0.85 166.0 1.05 164.95 Q1.2 164.35 0.85 163.8 L0.85 163.7 0.85 163.35 0.8 163.1 0.65 163.0 0.5 162.9 0.35 162.75 -0.05 162.7 -0.5 162.75 -0.7 162.85 -0.85 163.0 -1.1 163.25 -1.2 163.35 -1.2 164.5 -1.1 165.9 -0.75 166.2 -0.7 166.3 M-0.5 172.45 L-0.5 170.8 -0.5 167.55 -0.3 167.3 -0.3 167.2 -0.3 167.1 -0.1 166.75 -0.05 166.75 0.4 166.8 0.45 166.95 0.6 167.15 0.6 167.25 0.6 167.4 0.6 167.5 0.85 167.85 1.05 168.1 1.05 168.6 1.25 169.25 1.25 169.35 1.25 170.95 1.25 171.1 1.05 171.35 1.05 171.4 1.05 171.55 1.0 171.65 0.85 171.9 0.8 172.15 0.7 172.35 0.6 172.45 -0.3 172.4 -0.3 172.45 -0.5 172.45 M0.3 176.25 L0.4 176.2 0.7 175.95 0.85 175.85 Q1.15 175.2 1.1 174.55 L1.05 173.75 1.2 173.6 1.3 173.5 1.4 173.3 1.45 173.05 1.45 172.85 1.4 172.75 1.5 172.7 1.9 173.1 2.15 173.45 2.15 173.65 2.15 174.15 2.15 174.35 2.25 174.5 2.35 174.6 2.4 174.75 2.4 174.95 2.4 175.3 2.4 175.5 2.25 175.75 2.15 176.1 2.1 176.35 1.85 176.55 1.65 176.8 1.55 176.9 1.5 177.0 1.5 177.15 1.45 177.25 0.85 176.35 0.6 176.3 0.3 176.25 M-1.15 173.1 L-1.35 174.35 -1.0 176.2 -0.7 176.3 -0.3 176.4 -0.35 176.45 -1.1 176.85 -1.2 176.95 -1.3 176.85 -1.5 176.75 -1.65 176.65 -1.7 176.4 -1.75 176.3 -1.85 176.2 -1.85 175.75 -1.85 175.35 -1.85 175.25 -1.9 175.15 -2.0 175.05 -2.1 174.9 -2.1 174.8 -2.1 173.15 -2.0 172.0 -1.65 171.95 -1.45 171.9 -1.45 172.75 -1.35 172.85 -1.15 173.1 M0.6 182.0 L-0.05 182.3 -0.3 182.05 -0.5 181.85 -0.5 181.75 -0.5 181.6 -0.65 181.5 -0.7 181.4 -0.7 180.0 -0.7 177.9 -0.65 177.8 -0.5 177.7 -0.5 177.55 -0.5 177.45 -0.2 177.2 0.15 177.0 0.6 177.55 0.65 177.7 Q0.5 177.75 0.45 177.85 0.35 178.0 0.4 178.2 L0.5 178.4 0.6 178.5 0.85 178.65 0.9 179.85 Q0.95 180.7 0.6 181.45 L0.6 181.8 0.6 182.0 M1.45 183.95 L1.3 183.8 1.2 183.7 1.0 183.6 0.55 183.45 0.45 183.35 0.3 183.25 0.1 183.15 -0.3 183.05 -0.8 183.2 -1.05 183.3 -1.3 184.8 -1.05 186.15 -0.85 186.25 0.15 186.6 0.65 186.45 0.85 186.35 1.0 186.0 1.05 185.3 1.05 184.85 1.2 184.75 1.3 184.65 1.35 184.5 1.45 184.4 1.45 184.15 1.45 183.95 M0.1 192.2 L0.05 192.1 -0.15 191.75 -0.5 191.2 -0.5 190.5 -0.5 190.4 -0.5 189.1 -0.3 188.75 -0.2 188.3 -0.05 188.2 0.2 188.05 Q0.45 188.05 0.5 188.25 L0.85 189.0 0.85 189.2 0.85 189.45 0.9 189.55 1.05 189.7 1.05 190.25 1.05 190.5 1.05 191.3 1.0 191.4 0.85 191.65 0.8 191.9 0.8 191.95 0.5 192.15 0.35 192.25 0.35 192.2 0.1 192.2 M2.0 183.55 L1.95 184.0 1.95 184.25 2.0 184.35 2.1 184.5 2.15 184.6 2.25 186.0 2.05 186.75 Q1.85 186.9 1.6 187.0 L1.45 187.15 1.3 187.25 1.25 187.35 1.2 187.5 1.1 187.6 1.0 187.5 0.65 187.15 0.2 187.0 -0.05 186.9 -0.7 186.9 -1.0 187.0 -1.1 187.05 -1.2 187.0 -1.2 186.85 -1.25 186.75 -1.3 186.6 -1.45 186.55 -1.75 186.15 -1.85 185.9 -1.8 185.85 -1.7 185.7 -1.65 185.6 -1.8 184.1 -1.8 182.7 -1.4 182.45 -1.2 182.35 -1.1 182.5 -0.55 183.0 0.15 183.0 0.4 183.0 0.5 182.95 0.85 182.85 1.05 182.95 1.7 183.05 1.9 183.05 2.0 183.55 M-1.0 192.35 L-1.1 192.45 -1.2 192.8 -1.3 193.0 -1.45 193.15 -1.6 193.25 -1.75 193.4 -1.9 194.2 -1.8 194.9 -1.45 195.4 -1.75 195.5 -2.05 195.75 -2.1 195.85 -2.1 196.65 -2.35 196.3 -2.55 196.05 Q-2.85 195.0 -2.75 193.85 L-2.75 192.35 Q-2.45 192.15 -2.0 192.1 -1.5 192.05 -1.2 191.75 L-1.2 191.8 -1.2 191.9 -1.1 192.05 -1.0 192.15 -1.0 192.25 -1.0 192.35 M0.4 195.9 L0.55 195.8 Q1.2 195.25 1.1 194.55 L0.85 193.2 1.05 193.25 1.25 193.25 1.25 193.3 1.35 193.45 1.4 193.65 1.5 193.7 1.5 193.85 1.5 193.95 1.55 194.05 1.6 194.2 1.7 194.3 1.7 194.4 1.7 194.65 1.7 194.75 1.7 194.9 1.8 194.95 1.9 195.1 1.95 195.2 2.0 195.35 2.0 195.6 2.05 195.65 2.15 195.8 2.15 195.9 2.15 196.05 2.15 196.15 1.3 197.05 1.15 197.2 1.05 197.1 1.05 196.95 1.05 196.85 1.05 196.7 0.9 196.6 0.85 196.5 0.85 196.4 0.8 196.3 0.7 196.15 0.45 195.9 0.4 195.9 M-1.5 204.4 L-1.5 204.45 -1.65 204.55 -1.6 204.8 -1.65 205.1 -1.65 205.25 -1.65 205.3 -1.75 205.35 -1.85 205.5 -1.85 206.25 -2.05 206.2 -2.2 206.15 -2.3 206.05 -2.25 204.55 -2.25 204.5 -2.3 203.7 -2.45 203.3 -2.55 203.15 -2.55 203.05 -2.5 202.35 -2.6 201.9 -2.6 201.8 -2.6 201.65 -2.55 201.55 -2.55 201.4 -2.55 201.35 -1.7 201.25 0.4 201.2 0.45 201.2 0.7 201.3 0.85 201.4 1.05 201.5 1.05 201.75 1.05 201.95 1.05 202.2 1.05 202.3 1.1 202.45 1.2 202.55 1.25 202.7 1.25 203.25 1.25 203.6 1.25 203.95 1.4 204.2 1.5 204.25 1.5 204.5 1.55 204.9 1.6 205.1 1.7 205.2 2.0 205.3 2.4 205.4 2.55 205.4 1.9 205.9 1.55 206.15 1.5 206.15 1.45 206.05 1.3 205.85 1.15 205.45 1.1 205.35 1.0 205.1 0.7 204.8 0.4 204.55 Q0.8 204.05 0.8 203.45 0.8 202.65 -0.1 202.1 L-0.5 202.05 -1.0 202.0 -1.0 202.05 -1.1 202.05 -1.3 202.05 -1.45 202.1 -1.7 202.3 -1.8 202.4 -1.85 202.5 -1.85 202.65 -1.85 203.3 -1.65 203.65 -1.65 203.9 -1.55 204.35 -1.5 204.4 M0.15 197.0 L0.15 197.1 0.15 197.35 0.3 197.5 0.4 197.55 0.4 197.7 0.4 197.8 0.15 198.0 0.15 198.1 0.2 198.3 -0.05 198.6 0.0 198.75 0.15 199.0 0.15 199.3 0.15 199.75 0.1 199.95 -1.0 199.85 -1.0 199.55 -1.05 199.45 -1.2 199.2 -1.1 199.1 -1.05 199.0 -1.0 198.85 -0.95 198.6 -1.15 197.8 -1.2 197.8 -1.2 196.05 -0.4 196.2 -0.25 196.4 0.15 197.0 M-0.3 204.85 L-0.25 204.95 0.4 205.9 0.4 206.15 0.4 206.6 0.4 206.65 0.6 207.2 0.6 207.35 0.5 207.45 0.45 207.55 0.4 207.65 0.5 210.7 0.5 210.85 0.85 210.85 0.85 211.1 0.7 211.2 0.6 211.35 0.6 211.45 0.45 211.7 Q0.1 212.0 -0.2 211.7 L-0.3 211.45 -0.7 211.0 -0.7 210.2 Q-0.6 209.3 -1.0 208.45 L-1.0 207.5 -1.0 206.8 -1.0 205.65 -0.85 205.55 -0.75 205.45 -0.7 205.45 -0.7 205.2 -0.7 204.85 -0.7 204.8 -0.3 204.85 M0.0 212.5 L0.85 212.45 1.45 211.75 1.5 211.8 1.85 211.95 2.0 212.05 2.25 212.3 2.35 212.4 2.4 212.5 2.4 212.75 2.4 213.65 2.4 214.25 2.3 214.35 2.1 214.55 2.0 214.7 1.95 214.8 1.95 214.9 1.95 215.15 1.95 215.3 1.95 215.4 1.8 215.65 1.6 216.0 Q1.45 216.05 1.35 216.2 L1.25 216.3 1.15 216.2 1.05 216.05 1.05 215.85 0.95 215.65 0.85 215.5 0.6 215.45 0.45 215.45 Q0.9 214.95 0.8 214.4 L0.45 212.75 0.1 212.55 0.0 212.5 M-1.0 215.5 L-1.45 215.65 -2.1 215.2 -2.1 215.1 -2.2 214.85 -2.3 214.75 Q-1.9 214.0 -2.0 213.25 L-2.1 211.5 -1.6 211.2 -1.45 211.4 -1.4 211.6 -1.35 211.75 -1.2 211.85 -1.05 211.95 -1.0 212.05 -1.0 212.2 -0.9 212.3 -0.8 212.4 -0.95 212.45 -1.2 212.5 Q-1.5 213.0 -1.45 213.6 L-1.45 214.5 -1.35 214.6 -1.25 214.75 -1.2 214.85 -1.2 214.95 -1.1 215.3 -1.0 215.5 M0.8 219.4 L0.7 219.45 0.55 219.55 0.45 219.7 0.4 219.75 0.4 220.0 0.45 220.25 0.6 220.5 0.85 220.55 0.85 220.6 0.55 221.05 0.05 221.5 -0.4 221.2 -0.7 220.85 -0.7 220.4 -0.7 220.15 -0.8 220.1 -0.75 220.05 -0.7 219.95 -0.7 219.85 -0.9 219.6 -0.95 219.55 -1.0 218.9 -1.0 217.65 -0.75 217.4 -0.7 217.3 -0.9 217.05 -1.0 216.95 -0.9 216.45 -0.85 216.25 -0.45 216.15 Q-0.05 215.9 0.1 216.15 L0.15 216.2 0.35 216.45 0.4 216.55 0.4 217.0 0.4 217.35 0.45 217.5 0.6 217.6 0.6 217.7 0.6 218.05 0.6 218.15 0.75 218.25 0.8 219.4 M0.65 224.8 L0.95 223.4 Q0.9 222.7 1.0 222.0 L0.85 221.9 0.85 221.85 1.0 221.75 1.15 221.65 1.3 221.4 1.5 221.2 1.5 221.4 1.6 221.65 1.95 222.2 2.15 222.55 2.2 222.8 2.25 223.0 2.4 223.25 2.45 224.4 2.3 225.1 2.0 225.2 1.7 225.35 1.55 225.55 1.45 225.7 1.25 225.9 1.25 226.0 1.2 225.85 1.05 225.6 1.05 225.35 1.0 225.3 0.9 225.15 0.65 224.8 M-1.1 221.75 L-1.25 221.8 -1.5 223.3 -1.3 224.4 -1.05 224.6 -0.95 224.75 -1.45 225.05 -1.45 225.15 -1.45 225.25 -1.45 225.35 -1.65 225.5 -1.65 225.6 -1.65 225.7 -1.7 225.8 -1.85 225.75 -2.3 225.7 -2.3 225.6 -2.55 224.95 -2.55 224.8 -2.55 224.2 -2.55 224.0 Q-2.2 223.65 -2.25 223.15 L-2.3 222.6 -2.35 222.5 -2.45 222.35 -2.55 222.25 -2.6 221.6 -2.6 221.1 -2.2 220.95 -1.8 220.8 -1.15 221.65 -1.1 221.75 M0.85 227.35 L0.85 227.65 0.85 227.9 0.95 228.0 1.05 228.1 1.05 228.45 1.05 228.7 0.9 228.8 0.85 228.9 0.85 229.6 0.85 230.55 0.7 230.65 0.6 230.8 0.55 231.0 0.45 231.1 -0.5 231.2 -0.6 231.1 -0.5 230.85 -0.6 230.3 -1.0 229.45 -1.0 228.3 -1.0 226.4 -1.0 226.25 -0.7 225.9 Q-0.7 225.55 -0.3 225.3 L-0.2 225.35 0.1 225.55 0.2 225.8 0.4 226.15 0.4 226.25 0.4 226.4 0.4 226.5 0.5 226.6 0.6 226.7 0.6 226.85 0.6 226.95 0.6 227.1 0.7 227.15 0.8 227.25 0.85 227.35 M-0.7 235.85 L-0.9 236.05 -1.85 235.15 -1.85 233.75 -1.85 232.45 -1.9 232.35 -2.0 232.25 -2.1 232.15 -2.1 232.0 -2.1 231.4 -2.1 231.1 -1.95 231.05 -1.65 231.3 -0.5 231.95 0.65 231.85 1.0 231.65 1.45 231.25 1.45 231.2 1.5 231.2 1.95 231.35 2.1 231.4 2.2 231.5 2.3 231.65 2.4 231.75 2.4 233.45 2.4 234.9 2.45 234.95 2.55 235.1 2.45 235.2 2.4 235.35 2.4 235.45 2.4 235.55 2.4 235.7 2.3 235.8 1.8 236.25 Q1.6 236.3 1.5 236.45 L1.5 236.4 1.35 236.15 1.2 235.85 1.1 235.7 0.85 235.7 0.75 235.7 0.85 235.55 1.05 234.5 Q1.2 233.9 0.85 233.35 L0.85 233.25 0.85 232.9 0.8 232.65 0.65 232.55 0.5 232.45 0.35 232.3 -0.05 232.25 -0.5 232.35 -0.7 232.45 -0.85 232.55 -1.1 232.75 -1.2 232.9 -1.2 234.05 -1.1 235.45 -0.75 235.75 -0.7 235.85 M-0.5 242.05 L-0.5 242.0 -0.5 240.4 -0.5 237.1 -0.3 236.85 -0.3 236.75 -0.3 236.65 -0.3 236.6 -0.1 236.3 -0.05 236.3 0.4 236.35 0.45 236.45 0.6 236.7 0.6 236.85 0.6 236.95 0.6 237.05 0.85 237.4 1.05 237.65 1.05 238.1 1.25 238.8 1.25 238.9 1.25 240.55 1.25 240.65 1.05 240.85 1.05 241.0 1.05 241.1 1.0 241.2 0.85 241.45 0.8 241.65 0.7 241.9 0.6 242.0 -0.3 242.0 -0.5 242.05 M0.3 245.85 L0.4 245.75 0.7 245.5 0.85 245.35 1.1 244.1 1.05 243.3 1.2 243.2 1.3 243.1 1.4 242.85 1.45 242.6 1.45 242.35 1.4 242.35 1.5 242.2 1.9 242.65 2.15 243.0 2.15 243.25 2.15 243.7 2.15 243.95 2.25 244.05 2.35 244.2 2.4 244.25 2.4 244.5 2.4 244.85 2.4 245.05 2.25 245.3 2.15 245.7 2.1 245.9 1.85 246.15 1.65 246.35 1.55 246.45 1.5 246.6 1.5 246.7 1.45 246.8 0.85 245.9 0.6 245.85 0.3 245.85 M-1.15 242.7 L-1.35 243.95 -1.0 245.75 -0.7 245.85 -0.3 246.0 -0.35 246.0 -1.1 246.4 -1.2 246.5 -1.3 246.45 -1.5 246.3 -1.65 246.2 -1.7 246.0 -1.75 245.85 -1.85 245.75 -1.85 245.3 -1.85 244.9 -1.85 244.8 -1.9 244.7 -2.0 244.6 -2.1 244.45 -2.1 244.35 -2.1 242.75 -2.0 241.6 -1.65 241.5 -1.45 241.45 -1.45 242.3 -1.35 242.45 -1.15 242.7 M0.6 251.6 L-0.05 251.85 -0.3 251.65 -0.5 251.4 -0.5 251.3 -0.5 251.2 -0.65 251.05 -0.7 250.95 -0.7 249.55 -0.7 247.5 -0.65 247.35 -0.5 247.25 -0.5 247.1 -0.5 247.0 -0.2 246.8 0.15 246.55 0.6 247.1 0.65 247.25 Q0.5 247.35 0.45 247.4 0.35 247.55 0.4 247.75 L0.5 247.95 0.6 248.1 0.85 248.2 0.9 249.4 Q0.95 250.25 0.6 251.05 L0.6 251.35 0.6 251.6 M0.85 252.4 L1.05 252.5 1.7 252.6 1.9 252.6 2.0 253.1 1.95 253.55 1.95 253.8 2.0 253.9 2.1 254.05 2.15 254.15 2.25 255.5 2.05 256.35 Q1.85 256.45 1.6 256.6 L1.45 256.7 1.3 256.8 1.25 256.95 1.2 257.0 1.1 257.15 1.1 257.2 1.0 257.05 0.65 256.7 0.2 256.55 -0.05 256.45 -0.7 256.45 -1.0 256.55 -1.1 256.6 -1.2 256.55 -1.2 256.4 -1.25 256.3 -1.3 256.15 -1.45 256.05 -1.75 255.7 -1.85 255.5 -1.8 255.35 -1.7 255.25 -1.65 255.15 -1.8 253.65 -1.8 252.25 -1.4 252.0 -1.2 251.9 -1.1 252.05 -0.55 252.55 0.15 252.55 0.4 252.55 0.5 252.5 0.85 252.4 M0.45 252.9 L0.3 252.8 0.1 252.7 -0.3 252.6 -0.8 252.75 -1.05 252.85 -1.3 254.35 -1.05 255.7 -0.85 255.85 0.15 256.15 0.65 256.0 0.85 255.9 1.0 255.55 1.05 254.9 1.05 254.4 1.2 254.3 1.3 254.2 1.35 254.05 1.45 253.95 1.45 253.7 1.45 253.45 1.3 253.4 1.2 253.25 1.0 253.15 0.55 253.0 0.45 252.9 M0.2 257.6 Q0.45 257.65 0.5 257.8 L0.85 258.55 0.85 258.75 0.85 259.0 0.9 259.1 1.05 259.2 1.05 259.8 1.05 260.85 1.0 260.95 0.85 261.2 0.8 261.45 0.8 261.5 0.5 261.65 0.35 261.8 0.1 261.75 0.05 261.65 -0.15 261.3 -0.5 260.7 -0.5 259.95 -0.5 258.65 -0.3 258.3 -0.2 257.85 -0.05 257.75 0.2 257.6 M-1.0 261.9 L-1.1 262.0 -1.2 262.35 -1.3 262.6 -1.45 262.7 -1.6 262.85 -1.75 262.9 -1.9 263.75 -1.8 264.4 Q-1.5 264.65 -1.45 264.95 L-1.75 265.05 -2.05 265.3 -2.1 265.4 -2.1 266.2 -2.35 265.85 -2.55 265.65 Q-2.85 264.55 -2.75 263.4 L-2.75 261.95 -2.0 261.65 Q-1.5 261.6 -1.2 261.3 L-1.2 261.35 -1.2 261.45 -1.1 261.6 -1.0 261.7 -1.0 261.8 -1.0 261.9 M0.4 265.45 L0.55 265.35 Q1.2 264.8 1.1 264.1 L0.85 262.75 1.05 262.75 1.25 262.8 1.25 262.85 1.35 263.05 1.4 263.15 1.5 263.25 1.5 263.4 1.5 263.5 1.55 263.65 1.6 263.75 1.7 263.85 1.7 263.95 1.7 264.2 1.7 264.35 1.7 264.4 1.8 264.55 1.9 264.65 1.95 264.8 2.0 264.9 2.0 265.15 2.05 265.25 2.15 265.35 2.15 265.5 2.15 265.6 2.15 265.7 1.3 266.65 1.15 266.75 1.05 266.65 1.05 266.5 1.05 266.4 1.05 266.3 0.9 266.15 0.85 266.05 0.85 265.95 0.8 265.85 0.7 265.7 0.45 265.5 0.4 265.45 M0.15 266.55 L0.15 266.65 0.15 266.9 0.3 267.0 0.4 267.15 0.4 267.3 0.4 267.35 0.15 267.55 0.15 267.65 0.2 267.9 -0.05 268.2 0.0 268.3 0.15 268.5 0.15 268.9 0.15 269.35 0.05 269.7 0.0 269.85 -0.05 269.9 -0.05 269.95 Q-0.3 270.45 -1.0 270.5 L-1.0 270.0 -1.0 269.1 -1.05 269.0 -1.2 268.75 -1.1 268.65 -1.05 268.5 -1.0 268.4 -0.95 268.2 -1.15 267.35 -1.2 267.35 -1.2 265.65 -0.4 265.75 -0.25 265.95 0.15 266.55 M0.5 11.0 L-0.6 11.0 0.5 11.0" fill="#999999" fill-rule="evenodd" stroke="none"/>
    <path d="M0.0 12.9 L0.1 13.0 0.45 13.2 0.65 14.0 0.8 14.8 Q0.9 15.45 0.45 15.9 L-0.7 15.9 -1.0 15.95 -1.1 15.75 -1.2 15.45 -1.2 15.3 -1.25 15.2 -1.35 15.05 -1.45 14.95 -1.45 14.0 Q-1.5 13.45 -1.2 13.0 L-0.95 12.9 -0.8 12.85 -0.75 12.85 -0.5 12.9 0.0 12.9 M0.85 22.3 L0.85 22.35 1.0 22.45 Q0.9 23.15 0.95 23.85 L0.65 25.25 0.6 25.2 Q0.35 24.8 -0.3 24.8 L-0.7 25.0 -0.95 25.15 -1.05 25.05 -1.3 24.8 -1.5 23.8 -1.25 22.3 -1.1 22.2 -0.3 22.7 0.15 22.65 0.4 22.6 0.45 22.55 0.85 22.3 M-0.7 36.3 L-0.75 36.2 -1.1 35.9 -1.2 34.5 -1.2 33.35 -1.1 33.25 -0.85 33.0 -0.7 32.85 -0.5 32.75 -0.05 32.7 0.35 32.75 0.5 32.9 0.65 33.0 0.8 33.1 0.85 33.35 0.85 33.7 0.85 33.8 Q1.2 34.35 1.05 34.95 L0.85 36.0 0.75 36.1 -0.3 36.05 -0.7 36.3 M-0.5 42.45 L-0.3 42.45 -0.3 42.4 0.6 42.45 0.55 42.5 -0.1 42.85 -0.3 42.7 -0.5 42.45 M1.4 42.75 L1.45 42.85 1.45 43.05 1.4 43.3 1.3 43.5 1.2 43.6 1.05 43.75 1.1 44.55 Q1.15 45.2 0.85 45.85 L0.7 45.95 0.4 46.2 0.3 46.25 0.15 46.25 -0.3 46.4 -0.7 46.3 -1.0 46.2 -1.35 44.35 -1.15 43.1 -0.55 43.55 -0.3 43.6 0.15 43.6 0.45 43.55 1.4 42.75 M1.45 53.95 L1.45 54.15 1.45 54.4 1.35 54.5 1.3 54.65 1.2 54.75 1.05 54.85 1.05 55.3 1.0 56.0 0.85 56.35 0.65 56.45 0.15 56.6 -0.85 56.25 -1.05 56.15 -1.3 54.8 -1.05 53.3 -0.8 53.2 -0.3 53.05 0.1 53.15 0.3 53.25 0.45 53.35 0.55 53.45 1.0 53.6 1.2 53.7 1.3 53.8 1.45 53.95 M0.1 62.2 L0.35 62.2 0.35 62.25 0.35 62.3 0.1 62.2 M-1.0 62.35 L-0.85 62.5 -0.7 62.7 -0.55 62.85 -0.3 62.85 0.25 62.9 0.3 62.9 0.4 63.0 0.6 63.1 0.85 63.2 1.1 64.55 Q1.2 65.25 0.55 65.8 L0.4 65.9 -0.25 65.5 -0.5 65.4 -1.45 65.4 -1.8 64.9 -1.9 64.2 -1.75 63.4 -1.6 63.25 -1.45 63.15 -1.3 63.0 -1.2 62.8 -1.1 62.45 -1.0 62.35 M-1.5 74.4 L-1.55 74.35 -1.65 73.9 -1.65 73.65 -1.85 73.3 -1.85 72.65 -1.85 72.5 -1.8 72.4 -1.7 72.3 -1.45 72.1 -1.3 72.05 -1.1 72.05 -1.0 72.05 -1.0 72.0 -0.5 72.05 -0.1 72.1 Q0.8 72.65 0.8 73.45 0.8 74.05 0.4 74.55 L0.3 74.45 0.0 74.1 -0.3 74.05 -1.0 74.0 -1.2 74.1 -1.5 74.4 M-0.7 74.8 L-0.7 74.75 -0.3 74.85 -0.7 74.8 M0.0 82.5 L0.1 82.55 0.45 82.75 0.8 84.4 Q0.9 84.95 0.45 85.45 L-0.7 85.45 -1.0 85.5 -1.1 85.3 -1.2 84.95 -1.2 84.85 -1.25 84.75 -1.35 84.6 -1.45 84.5 -1.45 83.6 Q-1.5 83.0 -1.2 82.5 L-0.95 82.45 -0.8 82.4 -0.75 82.45 -0.5 82.45 0.0 82.5 M0.85 91.85 L0.85 91.9 1.0 92.0 Q0.9 92.7 0.95 93.4 L0.65 94.8 0.6 94.75 Q0.35 94.4 -0.3 94.4 L-0.7 94.55 -0.95 94.75 -1.05 94.6 -1.3 94.4 -1.5 93.3 -1.25 91.8 -1.1 91.75 -0.3 92.2 0.15 92.2 0.4 92.15 0.45 92.1 0.85 91.85 M-0.7 105.85 L-0.75 105.75 -1.1 105.45 -1.2 104.05 -1.2 102.9 -1.1 102.75 -0.85 102.55 -0.7 102.45 -0.5 102.35 -0.05 102.25 0.35 102.3 0.5 102.45 0.65 102.55 0.8 102.65 0.85 102.9 0.85 103.25 0.85 103.35 Q1.2 103.9 1.05 104.5 L0.85 105.55 0.75 105.7 -0.3 105.65 -0.7 105.85 M-0.5 112.05 L-0.3 112.0 0.6 112.0 0.55 112.05 -0.1 112.45 -0.3 112.2 -0.5 112.05 M1.4 112.35 L1.45 112.35 1.45 112.6 1.4 112.85 1.3 113.1 1.2 113.2 1.05 113.3 1.1 114.1 0.85 115.35 0.7 115.5 0.4 115.75 0.3 115.85 0.15 115.85 -0.3 116.0 -0.7 115.85 -1.0 115.75 -1.35 113.95 -1.15 112.7 -0.55 113.1 -0.3 113.2 0.15 113.15 0.45 113.1 1.4 112.35 M0.45 122.9 L0.55 123.0 1.0 123.15 1.2 123.25 1.3 123.4 1.45 123.45 1.45 123.7 1.45 123.95 1.35 124.05 1.3 124.2 1.2 124.3 1.05 124.4 1.05 124.9 1.0 125.55 0.85 125.9 0.65 126.0 0.15 126.15 -0.85 125.85 -1.05 125.7 -1.3 124.35 -1.05 122.85 -0.8 122.75 -0.3 122.6 0.1 122.7 0.3 122.8 0.45 122.9 M-1.0 131.9 L-1.0 131.95 -0.85 132.05 -0.7 132.3 -0.55 132.4 -0.3 132.45 0.25 132.45 0.3 132.45 0.4 132.6 0.6 132.7 0.85 132.75 1.1 134.1 Q1.2 134.8 0.55 135.35 L0.4 135.45 -0.25 135.05 -0.5 134.95 -1.45 134.95 Q-1.5 134.65 -1.8 134.4 L-1.9 133.75 -1.75 132.9 -1.6 132.85 -1.45 132.7 -1.3 132.6 -1.2 132.35 -1.1 132.0 -1.0 131.9 M0.45 145.9 L0.1 145.9 -0.15 145.9 -0.7 145.9 -1.0 145.95 -1.1 145.75 -1.2 145.45 -1.2 145.3 -1.25 145.2 -1.35 145.05 -1.45 144.95 -1.45 144.0 -1.1 144.0 -1.3 142.7 -1.1 141.45 -0.95 141.3 -0.9 141.25 -0.3 141.25 -0.05 141.2 0.05 141.15 0.1 141.05 0.1 141.0 0.35 141.05 Q0.85 141.3 0.95 141.75 L1.05 142.45 Q1.4 142.9 1.25 143.45 L1.05 144.0 0.65 144.0 0.7 144.35 0.8 144.8 0.8 145.35 0.45 145.9 M0.85 152.3 L0.85 152.35 1.0 152.45 Q0.9 153.15 0.95 153.85 L0.65 155.25 0.6 155.2 Q0.35 154.8 -0.3 154.8 L-0.7 155.0 -0.95 155.15 -1.05 155.05 -1.3 154.8 -1.5 153.8 -1.25 152.3 -1.1 152.2 -0.3 152.7 0.15 152.65 0.4 152.6 0.45 152.55 0.85 152.3 M-0.7 166.3 L-0.75 166.2 -1.1 165.9 -1.2 164.5 -1.2 163.35 -1.1 163.25 -0.85 163.0 -0.7 162.85 -0.5 162.75 -0.05 162.7 0.35 162.75 0.5 162.9 0.65 163.0 0.8 163.1 0.85 163.35 0.85 163.7 0.85 163.8 Q1.2 164.35 1.05 164.95 L0.85 166.0 0.75 166.1 -0.3 166.05 -0.7 166.3 M-0.5 172.45 L-0.3 172.45 -0.3 172.4 0.6 172.45 0.55 172.5 -0.1 172.85 -0.3 172.7 -0.5 172.45 M1.4 172.75 L1.45 172.85 1.45 173.05 1.4 173.3 1.3 173.5 1.2 173.6 1.05 173.75 1.1 174.55 Q1.15 175.2 0.85 175.85 L0.7 175.95 0.4 176.2 0.3 176.25 0.15 176.25 -0.3 176.4 -0.7 176.3 -1.0 176.2 -1.35 174.35 -1.15 173.1 -0.55 173.55 -0.3 173.6 0.15 173.6 0.45 173.55 1.4 172.75 M1.45 183.95 L1.45 184.15 1.45 184.4 1.35 184.5 1.3 184.65 1.2 184.75 1.05 184.85 1.05 185.3 1.0 186.0 0.85 186.35 0.65 186.45 0.15 186.6 -0.85 186.25 -1.05 186.15 -1.3 184.8 -1.05 183.3 -0.8 183.2 -0.3 183.05 0.1 183.15 0.3 183.25 0.45 183.35 0.55 183.45 1.0 183.6 1.2 183.7 1.3 183.8 1.45 183.95 M0.1 192.2 L0.35 192.2 0.35 192.25 0.35 192.3 0.1 192.2 M-1.0 192.35 L-0.85 192.5 -0.7 192.7 -0.55 192.85 -0.3 192.85 0.25 192.9 0.3 192.9 0.4 193.0 0.6 193.1 0.85 193.2 1.1 194.55 Q1.2 195.25 0.55 195.8 L0.4 195.9 -0.25 195.5 -0.5 195.4 -1.45 195.4 -1.8 194.9 -1.9 194.2 -1.75 193.4 -1.6 193.25 -1.45 193.15 -1.3 193.0 -1.2 192.8 -1.1 192.45 -1.0 192.35 M-1.5 204.4 L-1.55 204.35 -1.65 203.9 -1.65 203.65 -1.85 203.3 -1.85 202.65 -1.85 202.5 -1.8 202.4 -1.7 202.3 -1.45 202.1 -1.3 202.05 -1.1 202.05 -1.0 202.05 -1.0 202.0 -0.5 202.05 -0.1 202.1 Q0.8 202.65 0.8 203.45 0.8 204.05 0.4 204.55 L0.3 204.45 0.0 204.1 -0.3 204.05 -1.0 204.0 -1.2 204.1 -1.5 204.4 M-0.7 204.8 L-0.7 204.75 -0.3 204.85 -0.7 204.8 M0.0 212.5 L0.1 212.55 0.45 212.75 0.8 214.4 Q0.9 214.95 0.45 215.45 L-0.7 215.45 -1.0 215.5 -1.1 215.3 -1.2 214.95 -1.2 214.85 -1.25 214.75 -1.35 214.6 -1.45 214.5 -1.45 213.6 Q-1.5 213.0 -1.2 212.5 L-0.95 212.45 -0.8 212.4 -0.75 212.45 -0.5 212.45 0.0 212.5 M0.85 221.85 L0.85 221.9 1.0 222.0 Q0.9 222.7 0.95 223.4 L0.65 224.8 0.6 224.75 Q0.35 224.4 -0.3 224.4 L-0.7 224.55 -0.95 224.75 -1.05 224.6 -1.3 224.4 -1.5 223.3 -1.25 221.8 -1.1 221.75 -0.3 222.2 0.15 222.2 0.4 222.15 0.45 222.1 0.85 221.85 M-0.7 235.85 L-0.75 235.75 -1.1 235.45 -1.2 234.05 -1.2 232.9 -1.1 232.75 -0.85 232.55 -0.7 232.45 -0.5 232.35 -0.05 232.25 0.35 232.3 0.5 232.45 0.65 232.55 0.8 232.65 0.85 232.9 0.85 233.25 0.85 233.35 Q1.2 233.9 1.05 234.5 L0.85 235.55 0.75 235.7 -0.3 235.65 -0.7 235.85 M-0.5 242.05 L-0.3 242.0 0.6 242.0 0.55 242.05 -0.1 242.45 -0.3 242.2 -0.5 242.05 M1.4 242.35 L1.45 242.35 1.45 242.6 1.4 242.85 1.3 243.1 1.2 243.2 1.05 243.3 1.1 244.1 0.85 245.35 0.7 245.5 0.4 245.75 0.3 245.85 0.15 245.85 -0.3 246.0 -0.7 245.85 -1.0 245.75 -1.35 243.95 -1.15 242.7 -0.55 243.1 -0.3 243.2 0.15 243.15 0.45 243.1 1.4 242.35 M0.45 252.9 L0.55 253.0 1.0 253.15 1.2 253.25 1.3 253.4 1.45 253.45 1.45 253.7 1.45 253.95 1.35 254.05 1.3 254.2 1.2 254.3 1.05 254.4 1.05 254.9 1.0 255.55 0.85 255.9 0.65 256.0 0.15 256.15 -0.85 255.85 -1.05 255.7 -1.3 254.35 -1.05 252.85 -0.8 252.75 -0.3 252.6 0.1 252.7 0.3 252.8 0.45 252.9 M-1.0 261.9 L-1.0 261.95 -0.85 262.05 -0.7 262.3 -0.55 262.4 -0.3 262.45 0.25 262.45 0.3 262.45 0.4 262.6 0.6 262.7 0.85 262.75 1.1 264.1 Q1.2 264.8 0.55 265.35 L0.4 265.45 -0.25 265.05 -0.5 264.95 -1.45 264.95 Q-1.5 264.65 -1.8 264.4 L-1.9 263.75 -1.75 262.9 -1.6 262.85 -1.45 262.7 -1.3 262.6 -1.2 262.35 -1.1 262.0 -1.0 261.9 M0.1 271.0 L0.35 271.05 Q0.85 271.3 0.95 271.75 L1.05 272.45 Q1.4 272.9 1.25 273.45 1.2 274.0 0.65 274.4 0.0 274.65 -0.7 274.4 L-1.0 274.3 Q-1.35 273.55 -1.3 272.7 L-1.1 271.45 -0.95 271.3 -0.9 271.25 -0.3 271.25 -0.05 271.2 0.05 271.15 0.1 271.05 0.1 271.0" fill="#666666" fill-rule="evenodd" stroke="none"/>
  </g>
</svg>
