<?xml version="1.0" encoding="UTF-8" standalone="no"?>
<svg xmlns:ffdec="https://www.free-decompiler.com/flash" xmlns:xlink="http://www.w3.org/1999/xlink" ffdec:objectType="shape" height="12.45px" width="22.0px" xmlns="http://www.w3.org/2000/svg">
  <g transform="matrix(1.0, 0.0, 0.0, 1.0, 11.0, 8.35)">
    <path d="M-9.95 -5.9 Q-10.2 -6.2 -10.05 -6.6 L-10.0 -6.85 -10.0 -7.25 -10.0 -7.3 -9.9 -7.35 -9.8 -7.35 -9.7 -7.35 -9.6 -7.35 -9.5 -7.35 -9.45 -7.3 -8.8 -7.15 -8.5 -7.05 -5.25 -6.5 -4.4 -6.4 -0.25 -6.05 3.25 -6.2 4.45 -6.35 5.05 -6.35 5.65 -6.45 6.2 -6.55 6.35 -6.55 6.6 -6.65 6.7 -6.65 6.75 -6.7 6.85 -6.7 6.85 -6.75 7.3 -6.85 7.45 -6.85 8.9 -7.25 8.95 -7.25 9.1 -7.3 9.2 -7.3 9.25 -7.35 9.35 -7.35 9.4 -7.4 9.5 -7.4 9.6 -7.4 9.75 -7.35 9.8 -7.25 9.85 -7.25 9.95 -7.25 10.0 -7.25 10.0 -7.2 10.05 -7.15 10.05 -7.0 10.0 -6.95 10.0 -6.85 10.05 -6.8 10.1 -6.0 10.05 -5.6 10.05 -5.55 10.0 -5.55 10.0 -5.9 8.45 -5.9 8.45 -5.95 8.3 -5.9 -7.95 -5.9 -8.05 -5.95 -8.15 -5.9 -9.95 -5.9 M9.3 -6.75 L9.35 -6.7 9.4 -6.65 9.4 -6.75 9.3 -6.75" fill="#33ccff" fill-opacity="0.49803922" fill-rule="evenodd" stroke="none"/>
    <path d="M10.0 -5.55 L10.0 4.1 -10.0 4.1 -10.0 -5.9 -9.95 -5.9 -8.15 -5.9 -7.95 -5.9 8.3 -5.9 8.45 -5.9 10.0 -5.9 10.0 -5.55" fill="#33ccff" fill-opacity="0.49803922" fill-rule="evenodd" stroke="none"/>
    <path d="M10.5 -7.85 Q6.1 -5.85 0.0 -5.85 -6.1 -5.85 -10.5 -7.85" fill="none" stroke="#000000" stroke-linecap="round" stroke-linejoin="round" stroke-width="1.0"/>
  </g>
</svg>
