<?xml version="1.0" encoding="UTF-8" standalone="no"?>
<svg xmlns:ffdec="https://www.free-decompiler.com/flash" xmlns:xlink="http://www.w3.org/1999/xlink" ffdec:objectType="shape" height="22.5px" width="21.8px" xmlns="http://www.w3.org/2000/svg">
  <g transform="matrix(1.0, 0.0, 0.0, 1.0, 11.3, 15.0)">
    <path d="M-9.3 -12.65 L-9.3 -12.7 -9.25 -12.75 -9.25 -12.8 -9.2 -12.85 -9.2 -13.0 -9.15 -13.05 -9.15 -13.1 -8.85 -13.3 -8.4 -13.3 -8.3 -13.3 -8.15 -13.35 -8.05 -13.4 -7.95 -13.45 -7.95 -13.6 -7.9 -13.75 -7.75 -13.9 -7.65 -14.0 -7.45 -14.1 -7.35 -14.1 -5.95 -13.45 -5.1 -12.95 -5.0 -12.85 -5.0 -12.8 -4.95 -12.7 -4.9 -12.65 -4.5 -12.45 -4.15 -12.3 Q-3.0 -11.95 -2.0 -11.45 -1.5 -11.25 -1.1 -10.85 L9.9 -10.85 9.9 7.5 9.8 7.5 -8.55 -10.9 -8.65 -11.0 -8.8 -11.05 -8.9 -11.1 -9.0 -11.15 -9.05 -11.2 -9.1 -11.25 -9.65 -11.6 -9.95 -12.0 -9.95 -12.1 -9.95 -12.15 -9.95 -12.25 -9.95 -12.35 -9.75 -12.55 -9.3 -12.65" fill="#33ccff" fill-opacity="0.49803922" fill-rule="evenodd" stroke="none"/>
    <path d="M10.0 -11.5 Q7.4 -10.75 4.4 -10.75 -2.25 -10.75 -7.05 -14.5 -8.8 -13.15 -10.8 -12.25" fill="none" stroke="#000000" stroke-linecap="round" stroke-linejoin="round" stroke-width="1.0"/>
  </g>
</svg>
