<?xml version="1.0" encoding="UTF-8" standalone="no"?>
<svg xmlns:ffdec="https://www.free-decompiler.com/flash" xmlns:xlink="http://www.w3.org/1999/xlink" ffdec:objectType="shape" height="22.5px" width="20.15px" xmlns="http://www.w3.org/2000/svg">
  <g transform="matrix(1.0, 0.0, 0.0, 1.0, 9.75, 15.0)">
    <path d="M0.85 -13.75 L1.2 -13.65 1.3 -13.5 1.45 -13.45 1.65 -13.35 1.75 -13.25 1.75 -13.2 1.8 -13.2 1.9 -13.1 2.0 -13.1 Q3.25 -13.1 4.3 -12.5 L5.0 -12.05 5.45 -11.75 5.45 -11.7 5.5 -11.65 5.5 -11.6 5.8 -11.4 6.05 -11.3 6.1 -11.25 6.15 -11.2 6.4 -11.15 6.85 -11.1 7.25 -10.9 7.3 -10.85 9.9 -10.85 9.9 7.5 9.8 7.5 -8.5 -10.85 -5.9 -10.85 -5.9 -10.9 -5.85 -10.95 -5.75 -11.1 -5.6 -11.2 -5.35 -11.25 -5.15 -11.45 -4.65 -11.6 -4.55 -11.6 -4.5 -11.6 -4.0 -11.9 -3.35 -11.8 -3.3 -11.85 -3.25 -11.9 -3.2 -11.95 -2.7 -12.05 -2.35 -12.0 -2.3 -12.05 -2.2 -12.2 -2.1 -12.3 -2.0 -12.35 -1.85 -12.4 -1.75 -12.4 -1.65 -12.65 -1.25 -12.95 -1.05 -13.0 -0.95 -13.0 -0.85 -12.95 -0.7 -13.0 -0.65 -13.05 -0.5 -13.3 -0.1 -13.45 -0.1 -13.65 -0.05 -13.7 0.05 -13.85 0.2 -13.9 0.45 -13.95 0.65 -13.9 0.85 -13.75" fill="#33ccff" fill-opacity="0.49803922" fill-rule="evenodd" stroke="none"/>
    <path d="M8.75 -10.75 L9.05 -10.85 Q9.3 -11.0 9.45 -10.7 L9.55 -10.75 9.9 -10.65 8.75 -10.75" fill="#ff4d00" fill-rule="evenodd" stroke="none"/>
    <path d="M9.9 -10.65 L8.75 -10.75 Q6.25 -11.4 4.0 -12.5 L3.4 -12.7 0.6 -14.5 Q-3.6 -11.25 -9.25 -10.8" fill="none" stroke="#000000" stroke-linecap="round" stroke-linejoin="round" stroke-width="1.0"/>
  </g>
</svg>
