<?xml version="1.0" encoding="UTF-8" standalone="no"?>
<svg xmlns:ffdec="https://www.free-decompiler.com/flash" xmlns:xlink="http://www.w3.org/1999/xlink" ffdec:objectType="shape" height="22.5px" width="20.4px" xmlns="http://www.w3.org/2000/svg">
  <g transform="matrix(1.0, 0.0, 0.0, 1.0, 9.9, 15.0)">
    <path d="M2.0 -12.5 L2.3 -12.35 2.5 -12.45 2.9 -12.5 2.95 -12.65 3.05 -12.8 3.1 -13.0 3.2 -13.15 3.6 -13.3 3.7 -13.3 3.8 -13.3 3.8 -13.4 3.9 -13.5 4.0 -13.65 4.3 -13.8 4.4 -13.8 4.65 -13.75 4.85 -13.65 4.95 -13.7 5.2 -13.8 5.3 -13.8 5.5 -13.75 5.75 -13.6 5.8 -13.5 5.85 -13.35 5.85 -13.25 5.85 -13.2 5.9 -13.2 6.0 -13.2 6.25 -13.15 6.45 -13.0 6.45 -12.95 6.5 -12.95 6.5 -12.9 6.55 -12.85 6.65 -12.85 6.85 -13.0 7.7 -12.95 7.9 -12.7 8.1 -12.65 8.2 -12.6 8.25 -12.55 8.35 -12.45 8.5 -12.3 8.6 -12.25 8.8 -12.15 8.95 -12.0 9.15 -11.95 9.25 -11.8 9.25 -11.75 9.3 -11.7 9.35 -11.65 9.4 -11.6 9.55 -11.5 9.8 -11.4 9.85 -11.3 9.9 -11.05 9.9 -10.85 9.9 -10.8 9.95 -10.75 9.95 -10.55 9.95 -10.25 9.95 -10.05 9.95 -9.95 9.9 -9.95 9.9 7.5 9.8 7.5 -8.5 -10.85 -1.6 -10.85 -0.6 -11.3 Q0.15 -11.55 0.8 -11.95 L1.15 -12.05 1.25 -12.05 1.3 -12.25 1.45 -12.4 2.0 -12.5" fill="#33ccff" fill-opacity="0.49803922" fill-rule="evenodd" stroke="none"/>
    <path d="M10.0 -11.85 Q7.25 -12.7 4.95 -14.5 0.15 -10.75 -6.5 -10.75 L-9.4 -11.0" fill="none" stroke="#000000" stroke-linecap="round" stroke-linejoin="round" stroke-width="1.0"/>
  </g>
</svg>
