<?xml version="1.0" encoding="UTF-8" standalone="no"?>
<svg xmlns:ffdec="https://www.free-decompiler.com/flash" xmlns:xlink="http://www.w3.org/1999/xlink" ffdec:objectType="shape" height="245.5px" width="154.65px" xmlns="http://www.w3.org/2000/svg">
  <g transform="matrix(1.0, 0.0, 0.0, 1.0, 65.9, 265.45)">
    <path d="M34.75 -201.55 Q42.05 -190.4 42.05 -179.35 42.05 -164.3 27.15 -142.7 10.75 -119.05 -10.25 -108.85 L-9.1 -107.15 Q-8.5 -106.1 -8.5 -104.8 -8.5 -102.85 -10.25 -101.45 -12.05 -100.1 -14.65 -100.1 -23.2 -100.1 -29.85 -112.8 -32.6 -117.95 -37.55 -132.75 -40.15 -140.55 -46.6 -153.1 -52.1 -164.0 -52.1 -164.95 -52.1 -181.45 -46.15 -193.5 -42.75 -200.5 -33.2 -211.75 -24.05 -222.55 -20.6 -230.1 -15.05 -242.3 -15.7 -259.2 -13.7 -269.7 -6.3 -262.55 -1.1 -257.5 2.2 -250.5 3.3 -245.6 8.3 -238.4 L16.65 -226.8 Q30.15 -208.5 34.75 -201.55" fill="#00b3ff" fill-rule="evenodd" stroke="none"/>
    <path d="M10.25 -188.8 Q12.3 -191.05 14.3 -191.05 18.05 -191.05 19.75 -188.6 20.7 -187.25 20.7 -186.0 20.7 -182.65 13.95 -172.3 6.85 -161.4 3.25 -161.4 -1.5 -161.4 -5.75 -170.7 -9.55 -179.05 -9.55 -185.5 L-9.4 -186.0 Q-9.5 -186.55 -10.65 -186.55 -13.05 -186.55 -14.55 -183.2 L-16.9 -175.85 Q-20.45 -165.15 -29.25 -165.15 -36.05 -165.15 -37.55 -174.4 -38.35 -179.0 -37.75 -183.8 L-38.0 -188.05 Q-38.15 -191.35 -37.55 -193.3 -36.65 -196.25 -31.7 -198.0 -28.35 -199.2 -26.6 -199.2 -24.55 -199.2 -23.3 -197.45 L-22.3 -195.45 Q-21.8 -195.8 -18.95 -199.25 L-13.55 -205.0 Q-5.9 -211.65 -1.5 -204.55 1.35 -196.0 3.15 -192.15 5.75 -186.55 7.85 -186.55 8.25 -186.55 10.25 -188.8 M0.05 -131.75 Q0.75 -134.7 4.4 -134.7 7.8 -134.7 8.65 -131.6 L8.8 -128.5 Q8.8 -124.2 1.45 -115.45 -5.45 -107.3 -7.0 -107.3 -22.9 -107.3 -28.85 -117.15 -31.75 -121.95 -31.75 -128.05 -31.75 -134.15 -31.2 -135.5 -29.45 -140.1 -22.75 -134.25 L-20.95 -135.65 Q-19.75 -136.2 -18.45 -136.2 -17.5 -136.2 -16.6 -135.4 -15.7 -134.6 -14.8 -134.6 -13.85 -134.6 -12.7 -135.4 -11.6 -136.2 -10.65 -136.2 -6.45 -136.2 -5.35 -132.6 -4.8 -128.65 -4.0 -127.85 L0.0 -128.05 0.05 -131.75 M44.4 -91.95 Q44.4 -89.65 42.6 -88.55 41.45 -87.85 35.7 -85.85 36.55 -83.2 36.05 -81.6 35.25 -79.25 31.55 -78.25 L32.1 -77.4 Q32.5 -76.7 32.5 -75.55 32.5 -74.7 32.1 -73.6 31.45 -71.95 30.25 -71.6 L34.65 -67.15 Q36.25 -65.45 36.25 -63.55 36.25 -62.6 35.5 -61.05 34.75 -59.5 34.75 -58.55 34.75 -57.9 33.85 -56.8 L31.55 -53.8 34.35 -50.75 Q35.5 -49.45 35.5 -48.0 35.5 -46.65 27.4 -39.1 18.65 -31.0 14.7 -31.0 8.6 -31.0 4.4 -40.55 2.3 -45.35 1.4 -50.3 1.4 -53.15 5.85 -54.2 10.3 -55.25 10.3 -57.9 10.3 -58.85 9.55 -59.95 8.8 -61.1 8.8 -62.05 8.8 -66.0 12.4 -68.9 16.0 -71.75 16.0 -73.85 L13.9 -76.8 Q11.8 -79.7 11.8 -80.8 11.8 -84.15 15.0 -84.9 L13.9 -87.2 Q13.2 -88.55 13.2 -89.7 13.2 -91.35 14.45 -92.7 16.35 -94.75 20.05 -93.65 L19.95 -95.3 Q19.95 -100.25 22.65 -99.5 L25.6 -98.35 Q27.7 -97.55 29.25 -97.55 30.2 -97.55 31.25 -98.35 32.35 -99.15 33.25 -99.15 39.15 -99.15 42.35 -95.65 44.4 -93.4 44.4 -91.95 M68.5 -51.6 Q69.55 -50.7 70.5 -50.7 72.1 -50.7 77.8 -57.05 83.25 -61.5 85.1 -53.5 85.1 -50.95 86.95 -46.15 88.75 -41.4 88.75 -39.65 88.75 -37.7 83.25 -32.75 77.7 -27.8 77.7 -24.35 77.7 -21.7 75.65 -20.7 74.1 -19.95 70.55 -19.95 59.75 -19.95 55.5 -26.25 53.25 -29.6 53.25 -34.0 53.25 -37.0 58.25 -44.6 63.5 -52.55 66.55 -52.55 67.45 -52.55 68.5 -51.6 M-31.0 -85.75 Q-31.0 -84.8 -31.75 -83.25 -32.5 -81.7 -32.5 -80.8 -32.5 -78.9 -34.15 -77.2 L-38.5 -72.75 Q-36.7 -71.3 -36.65 -69.35 L-36.45 -66.05 Q-33.1 -66.1 -31.7 -63.8 L-31.0 -61.4 Q-31.0 -59.9 -35.0 -56.05 -36.6 -54.5 -38.1 -53.5 -37.75 -52.9 -37.75 -52.5 -37.75 -50.65 -39.05 -49.4 -41.25 -47.3 -46.65 -47.3 -53.7 -47.3 -57.75 -54.55 -60.75 -59.95 -60.75 -65.15 -60.75 -65.95 -59.75 -67.6 L-57.35 -71.25 Q-58.6 -72.15 -64.1 -75.25 -65.9 -76.3 -65.9 -78.55 -65.9 -80.3 -62.55 -83.55 -59.2 -86.75 -55.15 -88.95 -50.6 -91.45 -47.75 -91.1 -46.35 -90.95 -45.5 -90.05 L-42.5 -90.65 Q-38.05 -91.15 -34.6 -89.75 -31.0 -88.3 -31.0 -85.75" fill="#8adcff" fill-rule="evenodd" stroke="none"/>
  </g>
</svg>
