<?xml version="1.0" encoding="UTF-8" standalone="no"?>
<svg xmlns:ffdec="https://www.free-decompiler.com/flash" xmlns:xlink="http://www.w3.org/1999/xlink" ffdec:objectType="shape" height="218.2px" width="98.15px" xmlns="http://www.w3.org/2000/svg">
  <g transform="matrix(1.0, 0.0, 0.0, 1.0, 68.5, 300.05)">
    <path d="M1.65 -217.8 L2.8 -215.75 3.45 -215.05 3.9 -214.3 4.2 -213.7 4.65 -212.95 5.3 -212.25 5.75 -211.55 6.05 -210.9 6.5 -210.2 7.1 -209.45 7.35 -208.8 7.4 -208.1 7.65 -207.4 8.35 -206.05 8.8 -205.3 9.25 -204.6 9.8 -203.25 10.15 -202.5 10.45 -201.85 10.9 -201.15 11.55 -200.45 12.05 -199.75 12.1 -199.1 12.25 -198.35 12.5 -197.7 13.2 -197.0 13.9 -196.3 Q14.15 -195.15 14.65 -194.15 L16.25 -191.5 17.35 -190.05 18.1 -188.7 19.1 -186.6 19.7 -185.2 20.15 -184.5 20.85 -183.8 21.55 -183.1 22.05 -181.75 22.4 -181.0 22.75 -180.35 23.15 -179.6 23.85 -178.95 24.45 -178.45 24.55 -178.25 25.2 -177.5 25.7 -176.85 25.85 -176.15 26.0 -174.75 26.2 -174.1 26.6 -173.35 26.8 -172.65 26.85 -172.0 26.9 -171.3 27.1 -170.6 27.35 -169.95 27.65 -169.15 27.75 -168.5 27.75 -167.8 27.75 -165.05 27.85 -162.95 28.0 -162.25 28.3 -161.6 28.7 -160.85 28.7 -160.2 28.7 -159.5 28.95 -158.8 29.15 -158.1 29.4 -157.4 29.65 -156.7 29.65 -153.25 29.65 -148.4 29.65 -145.6 29.2 -144.9 28.95 -144.2 28.7 -143.5 28.7 -142.8 28.65 -142.15 28.45 -141.45 27.0 -138.7 25.85 -135.9 25.25 -134.5 24.55 -133.8 23.85 -133.1 23.4 -132.4 23.1 -131.75 22.7 -131.0 22.0 -130.3 21.55 -129.6 21.25 -128.95 20.85 -128.25 20.15 -127.55 19.7 -126.8 19.4 -126.2 19.0 -125.45 18.3 -124.75 17.6 -124.05 17.15 -123.35 16.85 -122.7 16.45 -122.0 15.75 -121.3 15.05 -120.6 14.35 -119.9 14.1 -119.2 13.45 -117.8 13.15 -117.15 12.75 -116.45 12.05 -115.75 11.35 -115.05 10.65 -114.35 10.4 -113.65 10.2 -112.95 9.5 -112.25 8.8 -111.55 8.1 -110.9 7.7 -110.15 7.45 -109.5 7.4 -108.8 Q6.95 -107.55 5.85 -106.65 L4.4 -105.3 3.7 -104.65 3.3 -103.9 2.95 -103.25 2.55 -102.55 1.85 -101.85 -0.95 -99.05 -2.3 -97.7 -2.55 -97.0 -2.8 -96.3 Q-6.45 -92.45 -10.45 -89.1 -14.15 -86.0 -17.35 -82.4 L-17.5 -81.85 Q-18.35 -82.15 -18.95 -82.55 L-19.65 -82.8 -19.7 -82.85 -20.1 -83.6 -20.3 -84.25 -20.35 -84.95 -20.65 -85.6 -21.0 -86.35 -21.3 -87.05 -22.7 -88.4 -25.45 -91.2 -26.85 -92.6 -27.25 -93.3 -27.6 -93.95 -28.0 -94.65 -29.4 -96.05 -32.2 -98.85 -33.55 -100.25 -33.85 -100.9 -34.25 -101.6 -34.7 -102.3 -35.65 -103.0 -36.6 -103.7 -42.45 -109.4 -47.65 -114.3 -48.85 -116.1 -48.9 -116.2 -49.3 -116.9 -49.55 -117.15 -50.55 -118.65 -51.05 -119.7 -52.4 -122.55 -52.8 -123.85 -53.75 -125.9 Q-55.5 -129.15 -56.85 -132.65 -57.8 -135.15 -58.35 -137.75 L-59.35 -139.75 -61.55 -143.85 Q-62.15 -144.85 -62.05 -146.05 L-63.0 -148.15 Q-64.35 -151.15 -65.35 -154.4 L-66.65 -158.55 -66.65 -159.25 -66.65 -159.95 -66.7 -160.65 -66.9 -161.35 -67.15 -162.0 -67.6 -162.9 -67.6 -164.1 -67.6 -169.0 -67.6 -171.75 -67.85 -172.45 -68.05 -173.15 -68.3 -173.85 -68.5 -174.55 -68.5 -178.0 -68.5 -185.65 -68.5 -186.25 -68.3 -186.55 -68.05 -187.25 -67.85 -187.95 -67.6 -188.65 -67.6 -192.1 -67.6 -195.6 -67.6 -197.7 -67.35 -198.35 -67.15 -199.05 -66.9 -199.75 -66.65 -200.45 -66.65 -201.15 -66.65 -201.85 -66.6 -202.55 -66.4 -203.2 -65.95 -203.95 -65.8 -205.3 -65.75 -206.7 -64.85 -209.25 -64.75 -209.45 -64.4 -210.2 -64.1 -210.85 -63.95 -211.6 -63.9 -211.9 -63.65 -212.6 -63.45 -213.0 -63.2 -213.65 -63.0 -214.35 -62.95 -214.5 -62.35 -216.15 -62.25 -216.45 -62.2 -216.6 -61.15 -219.45 -60.7 -220.6 -59.9 -222.65 -59.25 -224.05 -58.6 -224.8 -58.1 -225.45 -57.85 -226.15 -57.65 -226.85 -57.4 -227.55 -56.95 -228.25 -56.5 -228.95 -56.05 -229.65 -55.8 -230.3 -55.6 -231.0 -55.45 -231.65 -55.1 -232.4 -54.8 -233.05 -54.15 -233.8 -53.45 -234.5 -52.8 -235.2 -52.5 -235.85 -52.15 -236.6 Q-51.95 -236.9 -51.9 -237.25 L-51.85 -237.95 -50.6 -240.8 -48.45 -244.95 -47.45 -247.0 -46.8 -247.7 -46.3 -248.35 -45.85 -249.05 -45.6 -249.75 -45.35 -250.45 -45.15 -251.15 -44.45 -251.85 -44.15 -252.5 -43.75 -253.25 -43.25 -253.9 -42.6 -254.6 -42.3 -255.3 -41.95 -256.05 -41.7 -256.7 -41.65 -257.4 -41.0 -258.8 -40.7 -259.45 -40.35 -260.2 -40.05 -260.85 -39.85 -261.6 -39.8 -262.25 -39.4 -263.0 -39.1 -263.65 -38.95 -264.35 -38.9 -265.05 -38.45 -265.75 -38.2 -266.45 -38.0 -267.15 -37.95 -267.8 -37.25 -269.2 -36.15 -271.3 -35.45 -272.7 -35.2 -273.35 -35.2 -274.05 -35.2 -274.75 -34.95 -275.45 -34.7 -276.15 -34.5 -276.85 -34.25 -277.55 -34.25 -279.6 -34.2 -281.7 -33.95 -283.05 -33.55 -283.8 -33.4 -284.5 -33.3 -285.15 -33.05 -285.85 -32.65 -286.55 -32.45 -287.25 -32.4 -287.95 -32.4 -288.65 -32.2 -289.35 -31.95 -290.05 -31.7 -290.75 -31.5 -291.45 -31.5 -292.1 -31.5 -292.8 -31.5 -293.5 -31.05 -294.25 -30.8 -294.9 -30.55 -295.6 -30.55 -299.05 -30.55 -300.05 -29.05 -298.85 Q-27.45 -297.35 -26.1 -295.0 L-25.55 -294.8 Q-23.8 -293.9 -22.35 -292.55 L-22.3 -292.1 -22.2 -291.45 -22.15 -290.75 -22.0 -290.05 -21.7 -289.35 -21.3 -288.65 -21.3 -287.95 -21.3 -287.25 -21.05 -286.55 -20.85 -285.85 -20.6 -285.2 -20.35 -284.5 -20.35 -283.8 -20.35 -283.1 -20.3 -282.4 -20.15 -281.7 -19.85 -281.05 -19.45 -280.3 -19.45 -279.6 -19.4 -278.95 -19.2 -278.25 -18.55 -276.85 -18.0 -275.5 -17.7 -274.75 -17.6 -274.05 -17.6 -273.35 -17.6 -272.7 -17.6 -272.0 -17.6 -271.3 -17.6 -270.6 -17.35 -269.9 -17.15 -269.2 -16.9 -268.5 -16.65 -267.8 -16.65 -267.1 -16.65 -266.45 -16.65 -265.75 -16.6 -265.05 -16.45 -264.35 -15.8 -262.95 -15.5 -262.25 -15.25 -261.6 -14.8 -260.85 -14.8 -260.2 -14.8 -259.5 -14.6 -258.8 -14.35 -258.1 -14.1 -257.4 -13.9 -256.7 -13.9 -256.0 -13.85 -255.35 -13.6 -254.65 -13.2 -253.95 -13.0 -253.25 -12.9 -252.55 -12.7 -251.85 -12.25 -251.15 -12.1 -250.45 -12.05 -249.75 -12.0 -249.1 -11.8 -248.35 -11.55 -247.7 -11.2 -246.95 -11.1 -246.3 -11.1 -245.6 -11.1 -244.9 -11.05 -244.2 -10.9 -243.5 -10.4 -242.85 -9.7 -242.1 -9.05 -241.45 -8.35 -240.75 -8.1 -240.05 -7.15 -237.95 -6.6 -236.55 -6.5 -235.85 -5.55 -233.7 -3.8 -230.25 -2.55 -228.25 -2.3 -227.55 -2.1 -226.85 -1.85 -226.15 -1.85 -225.45 -1.8 -224.75 -1.6 -224.05 Q-0.85 -223.1 -0.4 -222.0 L1.65 -217.8 M13.25 -178.4 L-5.55 -214.25 Q-18.3 -238.35 -24.3 -253.65 -26.7 -259.75 -28.4 -265.2 L-29.45 -262.4 Q-32.8 -253.5 -42.0 -235.15 -51.05 -216.95 -54.5 -207.75 -60.2 -192.5 -60.2 -180.7 L-59.95 -174.9 -60.15 -174.3 -60.2 -173.6 -60.2 -172.9 -60.2 -172.2 -59.95 -171.5 -59.7 -170.85 -59.5 -170.15 -59.45 -170.0 -59.25 -168.6 -59.25 -168.05 -59.2 -167.35 -59.05 -166.65 -58.85 -166.4 Q-57.7 -160.0 -55.5 -153.55 L-55.5 -153.5 -55.3 -152.8 -55.15 -152.6 -54.75 -151.45 -54.7 -150.7 -54.55 -148.6 -54.3 -147.25 -53.95 -146.5 -53.75 -145.8 -53.65 -145.15 -53.45 -144.45 -53.0 -143.75 -52.85 -143.05 -52.8 -142.35 -52.7 -141.65 -52.55 -140.95 -51.85 -139.6 -51.2 -138.2 -51.0 -137.5 -50.95 -136.8 -50.6 -136.15 -49.45 -134.05 -48.9 -132.6 -48.6 -131.95 -43.7 -126.9 -40.95 -124.3 -40.55 -123.6 -40.25 -122.95 -39.8 -122.2 -38.45 -120.85 -37.75 -120.15 -37.05 -119.45 -36.8 -118.75 -36.6 -118.05 -35.9 -117.35 -35.2 -116.65 -34.9 -116.0 -34.3 -114.55 -34.0 -113.9 -33.55 -113.2 -32.85 -112.5 -28.7 -108.35 -26.6 -106.25 -25.65 -105.7 -18.3 -97.45 -16.3 -95.25 -14.05 -97.7 0.55 -111.4 Q21.8 -131.9 21.8 -152.45 21.8 -160.6 13.25 -178.4" fill="#000000" fill-rule="evenodd" stroke="none"/>
  </g>
</svg>
