<?xml version="1.0" encoding="UTF-8" standalone="no"?>
<svg xmlns:ffdec="https://www.free-decompiler.com/flash" xmlns:xlink="http://www.w3.org/1999/xlink" ffdec:objectType="shape" height="220.25px" width="108.3px" xmlns="http://www.w3.org/2000/svg">
  <g transform="matrix(1.0, 0.0, 0.0, 1.0, 66.35, 303.2)">
    <path d="M0.9 -241.65 L1.6 -240.95 2.65 -238.85 Q3.35 -237.05 4.35 -235.4 L5.55 -233.35 6.25 -232.65 6.7 -231.9 7.35 -230.55 7.65 -229.85 7.85 -229.15 9.95 -227.1 11.35 -225.7 12.05 -225.0 Q12.5 -223.55 13.3 -222.25 L14.75 -219.4 15.3 -218.05 15.95 -217.35 16.65 -216.65 16.9 -215.95 17.15 -215.25 17.8 -214.55 18.3 -213.9 19.05 -211.85 20.35 -209.0 21.05 -207.65 21.7 -206.9 22.2 -206.25 22.3 -205.55 22.45 -204.85 22.7 -204.15 23.4 -203.45 24.05 -202.75 24.35 -202.1 24.95 -200.65 25.25 -200.0 25.7 -199.3 26.4 -198.6 26.8 -197.9 27.15 -197.25 27.55 -196.5 27.7 -195.8 27.85 -195.15 28.0 -194.45 28.5 -193.75 29.15 -193.05 29.6 -192.35 29.9 -191.7 30.3 -190.95 31.0 -190.25 32.15 -188.2 Q33.75 -185.15 34.8 -181.9 35.7 -178.95 37.95 -176.95 L37.95 -176.85 38.25 -175.5 38.9 -173.35 39.4 -172.0 39.8 -171.3 39.85 -171.25 39.85 -171.05 40.1 -170.4 40.5 -169.65 40.7 -168.95 40.75 -168.3 40.8 -167.6 40.95 -166.9 41.25 -166.2 41.65 -165.5 41.65 -164.8 41.65 -164.1 41.65 -160.85 41.9 -153.95 Q42.1 -151.3 40.95 -149.05 L40.8 -147.7 40.75 -146.3 40.75 -144.9 40.75 -144.2 40.25 -142.8 39.6 -140.75 39.1 -139.35 38.9 -138.65 38.9 -137.95 38.8 -137.3 38.4 -136.55 37.75 -135.9 37.3 -135.15 37.1 -134.5 37.05 -133.8 36.35 -132.4 35.7 -131.0 35.4 -130.3 35.2 -129.65 35.2 -128.95 35.2 -128.25 35.15 -127.55 34.95 -126.85 34.45 -126.2 33.8 -125.45 33.55 -124.75 33.3 -124.1 32.85 -123.4 31.25 -121.95 30.55 -121.3 29.85 -120.6 28.55 -119.8 Q26.85 -118.65 25.45 -117.15 L24.05 -115.75 23.65 -115.0 23.35 -114.35 22.9 -113.65 21.55 -112.25 20.15 -110.9 19.45 -110.2 19.0 -109.45 18.7 -108.8 18.3 -108.1 17.6 -107.4 17.15 -106.7 16.85 -106.05 16.45 -105.3 15.75 -104.65 15.05 -103.95 14.45 -103.2 14.1 -102.55 13.55 -101.95 12.25 -101.15 11.55 -100.45 10.9 -99.75 10.45 -99.05 10.3 -98.7 10.2 -99.05 9.45 -99.7 8.35 -100.45 6.5 -100.9 6.45 -100.8 5.1 -100.6 4.4 -100.45 0.7 -97.55 Q-0.6 -96.5 -2.1 -95.85 L-3.0 -95.1 -3.7 -94.45 -4.4 -93.75 -6.0 -93.25 -6.7 -93.0 -7.4 -92.6 -8.8 -91.2 -9.5 -90.5 -10.2 -89.8 -10.6 -89.1 -10.9 -88.4 -11.1 -87.75 -11.1 -87.05 -11.05 -86.35 -10.9 -85.65 -10.65 -84.95 -10.15 -84.3 -9.45 -83.6 -8.75 -83.0 Q-11.7 -83.3 -12.85 -85.0 -14.3 -83.2 -16.8 -82.95 L-16.75 -83.55 -16.75 -84.95 -16.95 -85.6 -17.35 -86.35 -17.55 -87.05 -17.65 -87.7 -17.85 -88.4 -18.3 -89.1 -18.45 -89.8 -18.6 -90.5 -18.8 -91.2 -19.2 -91.9 -19.4 -92.6 -19.5 -93.25 -19.7 -93.95 -20.15 -94.65 -20.3 -95.4 -20.45 -96.05 -20.65 -96.75 -21.05 -97.45 -21.2 -98.15 -21.3 -100.25 -21.35 -101.6 -21.55 -102.3 -21.95 -103.05 -22.15 -103.7 -22.2 -104.4 -22.5 -105.05 -22.85 -105.8 -23.1 -106.5 -23.15 -107.15 -23.45 -107.85 -23.8 -108.6 -24.0 -109.25 -24.1 -109.95 -25.05 -112.0 -26.8 -116.15 -27.8 -118.3 -27.85 -118.95 -28.0 -119.65 -28.3 -120.35 -28.7 -121.05 -28.75 -121.75 -28.95 -122.45 -29.65 -123.85 Q-32.8 -129.95 -35.55 -136.25 -38.1 -141.95 -40.95 -147.45 L-41.65 -148.15 -41.7 -148.85 -41.9 -149.55 -42.6 -150.9 Q-45.55 -156.3 -48.15 -161.8 -50.25 -166.4 -51.85 -171.05 L-52.55 -172.45 -53.2 -173.85 -53.5 -174.5 -53.95 -175.25 -54.65 -175.9 -54.7 -176.6 -54.9 -177.3 -55.35 -178.0 -55.5 -178.7 -55.6 -179.4 -55.85 -180.05 -56.25 -180.8 -56.45 -181.5 -56.5 -182.15 -56.55 -182.85 -56.7 -183.55 -57.0 -184.25 -57.4 -184.95 -57.5 -185.6 -58.15 -187.7 -58.85 -189.1 -59.25 -189.8 -59.3 -190.5 -59.5 -191.2 -59.9 -191.9 -60.5 -193.25 -60.85 -194.0 -61.1 -194.65 -61.1 -195.35 -61.15 -196.05 -61.35 -196.75 -62.7 -199.45 Q-63.85 -202.6 -65.15 -205.75 L-65.5 -206.65 Q-66.35 -213.05 -66.35 -220.0 -66.35 -225.7 -64.45 -232.5 L-63.9 -232.4 -62.05 -232.85 Q-60.5 -233.5 -59.6 -234.85 L-58.4 -236.4 -57.85 -237.05 -57.65 -237.75 -57.45 -238.45 -57.4 -239.1 -57.0 -239.85 -56.3 -241.2 -55.95 -241.85 -55.55 -242.6 -54.9 -243.3 -53.75 -244.7 -53.3 -245.4 -53.0 -246.05 -52.85 -246.75 -52.8 -247.45 -51.2 -250.25 -48.6 -255.85 -47.2 -259.25 -46.55 -260.0 -46.05 -260.65 -45.85 -261.35 -45.6 -262.05 -45.35 -262.7 -44.9 -263.4 -43.5 -264.8 -42.85 -265.55 -42.35 -266.2 -41.9 -267.6 -41.35 -268.95 -41.0 -269.7 -40.75 -270.35 -40.05 -271.1 Q-39.25 -272.0 -38.85 -273.1 L-38.15 -274.5 -37.75 -275.25 -37.05 -275.9 -36.35 -276.6 -35.95 -277.35 -35.6 -278.0 -35.2 -278.7 -33.85 -280.15 Q-32.8 -281.35 -32.15 -282.85 L-31.5 -284.25 -30.8 -285.0 -30.35 -285.65 -29.9 -286.35 -29.65 -287.05 -28.25 -288.4 -22.5 -293.8 -16.35 -299.35 Q-12.55 -301.1 -11.25 -299.0 -9.8 -301.05 -8.0 -302.35 L-6.4 -303.2 -6.55 -301.15 -6.8 -299.8 -7.2 -299.05 -7.3 -298.35 -7.4 -296.3 -7.4 -294.9 -7.4 -294.2 -7.65 -293.5 -7.85 -292.8 -8.1 -292.1 -8.35 -291.45 -8.35 -287.95 -8.35 -281.0 -8.35 -276.15 -8.1 -275.45 -7.85 -274.75 -7.65 -274.05 -7.4 -273.35 -7.4 -269.9 -7.15 -266.45 -6.7 -265.05 Q-6.3 -263.35 -6.4 -261.55 L-6.4 -258.1 -6.25 -256.7 -5.95 -256.05 -5.55 -255.3 -5.5 -254.65 -5.35 -253.95 -5.1 -253.25 -4.6 -252.75 -4.55 -252.1 -4.4 -251.4 -3.15 -248.65 -1.7 -245.8 -0.95 -244.45 -0.25 -243.75 0.2 -243.05 0.5 -242.4 0.9 -241.65 M27.0 -181.55 Q23.15 -188.6 9.6 -208.9 -2.5 -226.95 -7.8 -238.3 -15.7 -255.35 -15.7 -270.55 L-15.15 -278.55 Q-14.65 -286.05 -14.65 -289.6 L-14.6 -290.25 -17.4 -286.9 -27.8 -273.6 -29.65 -274.05 -29.65 -273.95 -31.0 -273.75 -31.7 -273.6 -32.35 -273.1 -35.2 -270.35 -36.6 -269.0 Q-37.05 -267.55 -37.85 -266.3 L-38.95 -264.15 -39.35 -263.4 -40.05 -262.75 -40.5 -262.0 -41.15 -260.65 -41.45 -259.95 -41.65 -259.25 -43.75 -257.15 -45.15 -255.8 -45.85 -255.1 Q-46.3 -253.65 -47.1 -252.35 L-48.55 -249.5 -49.1 -248.15 -49.75 -247.45 -50.4 -246.7 -50.7 -246.05 -50.85 -245.35 -50.95 -244.65 -51.35 -243.95 -51.6 -243.3 -51.85 -242.6 -52.55 -241.9 -53.15 -241.15 -53.45 -240.5 -53.65 -239.8 -53.8 -239.15 -54.15 -238.4 -54.85 -237.75 -55.3 -237.0 -55.5 -236.35 -55.55 -235.65 -56.5 -233.55 -57.8 -230.75 -58.35 -229.4 -58.35 -225.25 -58.35 -220.35 -58.35 -216.9 -58.1 -216.2 -57.85 -215.5 -57.65 -214.8 -57.4 -214.1 -57.4 -212.75 -57.4 -210.65 -57.35 -209.25 -57.2 -208.55 -56.9 -207.9 -56.2 -206.5 -55.8 -205.8 -55.35 -205.1 -54.6 -203.0 Q-53.9 -200.85 -52.85 -198.8 L-51.85 -196.75 -51.8 -196.05 -51.6 -195.4 -51.15 -194.65 -51.0 -193.95 -50.95 -193.3 -50.85 -192.6 -50.7 -191.9 -50.0 -190.5 -49.35 -189.1 -49.15 -188.4 -49.1 -187.75 -48.8 -187.05 -48.0 -185.6 -47.65 -184.95 -47.2 -184.25 -47.2 -184.0 -47.15 -183.35 -47.0 -182.65 -45.6 -179.85 -44.15 -177.1 -43.5 -175.7 -43.45 -175.0 -43.3 -174.3 -43.05 -173.6 -42.35 -172.9 -41.65 -172.2 -41.45 -171.5 -41.15 -170.85 -40.75 -170.15 -40.7 -169.45 -40.5 -168.75 -40.25 -168.05 -39.55 -166.7 -39.1 -165.95 -38.65 -165.25 -37.75 -162.5 Q-36.8 -159.65 -35.4 -157.05 -34.45 -155.35 -34.25 -153.45 L-34.0 -152.8 -33.55 -152.1 -33.1 -151.4 -32.4 -149.3 -31.25 -146.5 -30.55 -145.15 -30.5 -144.45 -30.35 -143.75 -30.05 -143.05 -29.35 -141.7 -28.95 -140.95 -28.45 -140.25 -27.6 -137.5 -26.1 -133.25 -25.0 -131.25 -24.95 -130.55 -24.75 -129.85 -24.5 -129.2 -24.1 -128.45 -24.1 -127.75 -24.0 -127.1 -23.85 -126.4 -23.55 -125.7 -23.2 -124.95 -22.9 -124.3 -22.7 -123.6 -21.3 -122.2 -20.6 -121.55 -20.2 -121.25 -18.2 -115.9 Q-12.6 -100.5 -11.7 -91.6 -9.85 -93.85 -6.0 -97.05 L10.65 -110.8 Q34.9 -132.65 34.9 -155.55 34.9 -166.8 27.0 -181.55" fill="#000000" fill-rule="evenodd" stroke="none"/>
  </g>
</svg>
