<?xml version="1.0" encoding="UTF-8" standalone="no"?>
<svg xmlns:ffdec="https://www.free-decompiler.com/flash" xmlns:xlink="http://www.w3.org/1999/xlink" ffdec:objectType="shape" height="20.7px" width="7.8px" xmlns="http://www.w3.org/2000/svg">
  <g transform="matrix(1.0, 0.0, 0.0, 1.0, 3.5, 24.35)">
    <path d="M1.35 -22.85 L1.6 -21.9 1.0 -21.25 Q0.4 -20.75 0.2 -20.75 -0.1 -20.75 -0.25 -20.95 L-0.4 -21.1 -1.3 -21.0 -2.15 -20.85 Q-3.1 -20.8 -3.1 -21.6 L-2.7 -22.6 Q-2.2 -23.35 -1.7 -23.0 L-1.5 -23.75 Q-1.35 -24.35 -0.8 -24.35 -0.05 -24.35 0.15 -23.95 L0.2 -23.35 Q0.95 -23.4 1.35 -22.85 M2.8 -15.3 L3.15 -15.45 Q3.7 -15.45 4.05 -14.7 L4.3 -13.85 3.9 -12.4 Q3.4 -11.05 2.8 -11.05 1.95 -11.05 1.7 -11.35 L0.85 -11.9 Q1.05 -11.05 0.4 -10.85 L-1.15 -10.95 -2.75 -11.65 Q-3.5 -12.15 -3.5 -12.55 -3.5 -13.25 -2.65 -13.8 -1.85 -14.35 -0.75 -14.35 -0.3 -14.35 -0.1 -14.55 L0.2 -14.95 Q0.5 -15.55 1.35 -15.55 L2.05 -15.55 Q2.45 -15.45 2.45 -15.05 L2.8 -15.3 M0.0 -3.8 L-0.2 -4.4 -0.1 -4.9 Q0.1 -5.25 0.5 -5.25 0.9 -5.25 1.05 -4.95 L1.1 -4.6 0.9 -3.9 0.45 -3.65 Q0.2 -3.6 0.0 -3.8" fill="#8adcff" fill-rule="evenodd" stroke="none"/>
  </g>
</svg>
