<?xml version="1.0" encoding="UTF-8" standalone="no"?>
<svg xmlns:ffdec="https://www.free-decompiler.com/flash" xmlns:xlink="http://www.w3.org/1999/xlink" ffdec:objectType="shape" height="246.95px" width="149.8px" xmlns="http://www.w3.org/2000/svg">
  <g transform="matrix(1.0, 0.0, 0.0, 1.0, 63.75, 114.7)">
    <path d="M24.3 -109.7 Q31.6 -118.95 38.65 -111.05 41.05 -108.3 42.85 -104.2 44.4 -100.75 44.4 -99.35 44.4 -98.15 43.45 -96.4 42.5 -94.6 42.5 -93.45 42.5 -92.25 34.45 -85.85 25.4 -78.6 19.8 -78.6 14.95 -78.6 6.4 -89.5 6.4 -91.35 7.7 -92.0 L10.9 -92.75 Q16.3 -93.6 18.5 -97.85 19.4 -99.55 20.45 -103.25 21.15 -105.7 24.3 -109.7 M71.7 -59.1 Q63.3 -59.1 59.05 -63.7 56.9 -66.05 56.4 -68.6 56.4 -70.85 58.2 -72.0 60.45 -73.4 65.65 -73.5 65.7 -77.15 68.9 -80.75 71.8 -84.05 75.9 -85.7 80.1 -87.45 82.9 -86.35 86.05 -85.1 86.05 -80.5 86.05 -77.5 80.7 -68.6 74.95 -59.1 71.7 -59.1 M0.95 123.25 Q-1.35 128.05 -9.8 130.6 -15.3 132.25 -19.0 132.25 -26.1 132.25 -25.85 124.9 -25.8 122.65 -25.0 119.7 L-24.2 116.95 -24.7 115.4 -25.05 115.55 -26.8 115.65 Q-34.15 115.65 -37.9 110.2 -40.6 106.3 -40.6 101.75 -40.6 88.55 -25.75 94.9 -18.3 98.1 -10.65 103.9 L-3.7 102.35 Q2.25 100.8 3.2 100.8 7.0 100.8 20.3 113.25 20.3 116.1 18.65 119.55 16.6 123.95 13.4 123.95 12.2 123.95 11.2 123.05 10.2 122.15 9.0 122.15 8.5 122.15 8.0 122.75 L7.05 123.85 Q5.4 125.15 0.95 123.25 M-50.35 -104.35 Q-45.8 -102.95 -42.4 -99.85 -38.8 -96.55 -38.8 -93.3 -38.8 -91.25 -41.05 -88.6 L-44.85 -84.65 -41.45 -82.15 Q-39.75 -80.8 -39.75 -79.55 -39.75 -76.95 -44.6 -74.1 -49.55 -71.25 -54.15 -71.25 -59.25 -71.25 -61.2 -72.45 -62.9 -73.45 -62.9 -75.85 -62.9 -77.35 -61.8 -78.85 L-58.15 -83.2 Q-62.05 -84.35 -63.2 -86.2 -63.75 -87.05 -63.75 -88.9 L-61.95 -97.6 Q-61.95 -102.75 -58.35 -104.4 -55.2 -105.85 -50.35 -104.35" fill="#8adcff" fill-rule="evenodd" stroke="none"/>
  </g>
</svg>
