<?xml version="1.0" encoding="UTF-8" standalone="no"?>
<svg xmlns:ffdec="https://www.free-decompiler.com/flash" xmlns:xlink="http://www.w3.org/1999/xlink" ffdec:objectType="shape" height="263.3px" width="169.3px" xmlns="http://www.w3.org/2000/svg">
  <g transform="matrix(1.0, 0.0, 0.0, 1.0, 77.65, 111.55)">
    <path d="M54.25 -111.25 Q58.3 -110.15 58.3 -105.65 58.3 -103.45 53.2 -98.8 48.3 -94.35 46.55 -94.15 L46.3 -94.3 Q46.05 -94.2 46.05 -92.7 46.05 -92.2 48.5 -89.3 50.9 -86.45 50.9 -84.75 50.9 -83.25 50.0 -82.0 48.7 -80.15 45.8 -79.3 48.05 -75.85 48.05 -71.0 48.05 -66.45 47.35 -65.4 45.8 -62.9 39.3 -62.9 34.95 -62.9 29.35 -65.65 23.75 -68.4 17.55 -68.4 14.5 -68.4 13.4 -71.05 12.85 -72.35 12.9 -73.85 12.9 -78.05 17.9 -82.35 22.9 -86.7 22.9 -88.55 22.9 -89.75 21.6 -91.75 20.3 -93.75 20.3 -94.5 20.3 -96.2 21.7 -97.6 23.15 -99.0 24.9 -99.0 26.5 -99.0 29.65 -96.75 32.85 -94.45 33.95 -94.4 33.05 -95.55 32.75 -96.25 32.4 -97.2 32.4 -98.9 32.4 -102.0 36.45 -105.4 40.2 -108.6 45.35 -110.35 50.7 -112.15 54.25 -111.25 M74.1 -68.4 Q74.1 -71.15 75.9 -72.2 77.45 -73.15 81.3 -73.15 87.45 -73.15 90.0 -71.05 91.65 -69.7 91.65 -67.55 L90.7 -58.15 Q90.7 -56.45 89.3 -55.05 87.85 -53.65 86.05 -53.65 81.1 -53.65 77.1 -61.0 75.1 -64.7 74.1 -68.4 M6.4 135.15 Q-0.65 142.25 -4.5 142.25 L-5.25 143.75 Q-6.05 145.65 -7.1 147.0 -10.7 151.75 -17.45 151.75 -18.65 151.75 -24.0 145.25 -28.75 139.5 -31.35 135.6 -32.5 133.75 -34.65 127.35 -36.9 120.7 -36.9 118.5 -36.9 111.6 -27.5 116.1 -25.0 117.35 -20.0 120.15 -15.8 122.4 -14.25 122.4 L-8.45 118.55 -2.7 114.7 Q2.2 114.7 2.75 118.15 3.05 120.1 2.95 124.45 L4.75 123.1 Q6.3 122.15 7.8 122.15 10.95 122.15 12.25 124.35 12.9 125.5 12.9 126.8 12.9 128.55 6.4 135.15 M-49.0 -78.1 Q-49.0 -75.25 -52.9 -72.2 -57.7 -68.4 -64.8 -68.4 -67.4 -68.4 -72.8 -77.2 L-77.65 -86.05 Q-77.65 -90.5 -73.25 -90.95 L-74.35 -92.0 Q-74.9 -92.85 -74.9 -94.4 -74.9 -96.55 -72.7 -98.5 -70.55 -100.4 -67.6 -101.0 -60.05 -102.55 -57.35 -95.1 -56.25 -92.6 -52.05 -85.15 -49.0 -79.7 -49.0 -78.1" fill="#8adcff" fill-rule="evenodd" stroke="none"/>
  </g>
</svg>
