<?xml version="1.0" encoding="UTF-8" standalone="no"?>
<svg xmlns:ffdec="https://www.free-decompiler.com/flash" xmlns:xlink="http://www.w3.org/1999/xlink" ffdec:objectType="shape" height="56.5px" width="75.1px" xmlns="http://www.w3.org/2000/svg">
  <g transform="matrix(1.0, 0.0, 0.0, 1.0, 55.3, -105.95)">
    <path d="M19.35 157.9 Q18.65 159.1 16.6 160.55 L5.7 161.65 1.75 162.45 Q-1.25 162.45 -3.4 157.45 -4.95 153.85 -4.95 152.2 L-4.6 150.45 Q-4.0 148.7 -2.7 147.6 L11.5 147.25 Q16.25 143.35 18.45 148.7 19.8 152.0 19.8 156.0 19.8 157.1 19.35 157.9 M-25.5 131.8 Q-24.45 134.3 -24.45 136.3 -24.45 137.75 -24.6 138.05 L-24.9 138.8 -26.1 139.05 -28.7 139.25 Q-38.15 139.25 -42.4 134.85 -44.85 132.3 -44.85 130.0 -44.85 127.7 -42.6 127.4 L-27.75 128.25 Q-26.55 129.45 -25.5 131.8" fill="#c7fafe" fill-opacity="0.72156864" fill-rule="evenodd" stroke="none"/>
    <path d="M-29.8 148.45 Q-28.0 150.15 -28.0 152.8 -28.0 155.4 -29.05 157.3 -30.5 159.8 -33.35 159.8 -37.35 159.8 -38.8 157.15 -39.5 155.95 -39.5 154.25 -39.5 150.6 -37.7 148.6 -36.15 146.85 -33.75 146.85 -31.45 146.85 -29.8 148.45 M-46.9 114.6 Q-47.65 116.35 -50.45 116.35 -53.4 116.35 -54.65 113.15 L-55.3 109.95 Q-55.3 105.3 -50.9 106.05 -46.55 106.75 -46.55 111.0 -46.55 113.8 -46.9 114.6" fill="#c7fafe" fill-opacity="0.72156864" fill-rule="evenodd" stroke="none"/>
  </g>
</svg>
