<?xml version="1.0" encoding="UTF-8" standalone="no"?>
<svg xmlns:ffdec="https://www.free-decompiler.com/flash" xmlns:xlink="http://www.w3.org/1999/xlink" ffdec:objectType="shape" height="30.7px" width="43.3px" xmlns="http://www.w3.org/2000/svg">
  <g transform="matrix(1.0, 0.0, 0.0, 1.0, 17.1, -129.0)">
    <path d="M8.15 142.1 L10.25 143.9 12.45 145.35 Q18.55 133.35 22.9 141.5 26.2 147.8 26.2 155.8 26.2 157.55 25.7 158.35 L23.95 159.7 17.45 159.7 Q8.5 156.45 2.3 154.85 L0.55 154.3 0.35 153.5 Q0.35 151.15 2.9 147.6 5.25 144.3 8.15 142.1 M-5.7 140.5 Q-6.5 141.15 -8.75 141.15 -17.1 141.15 -17.1 133.7 L-16.85 129.55 Q-13.3 127.75 -8.95 131.85 -4.95 135.6 -4.95 138.3 -4.95 139.9 -5.7 140.5" fill="#c7fafe" fill-opacity="0.72156864" fill-rule="evenodd" stroke="none"/>
  </g>
</svg>
