<?xml version="1.0" encoding="UTF-8" standalone="no"?>
<svg xmlns:ffdec="https://www.free-decompiler.com/flash" xmlns:xlink="http://www.w3.org/1999/xlink" ffdec:objectType="shape" height="31.85px" width="22.55px" xmlns="http://www.w3.org/2000/svg">
  <g transform="matrix(1.0, 0.0, 0.0, 1.0, 10.8, -127.15)">
    <path d="M2.45 136.4 Q6.0 137.05 8.65 141.0 11.75 145.6 11.75 152.45 L11.5 155.6 Q10.8 157.2 7.35 159.0 L-3.65 159.0 Q-6.35 158.65 -7.35 156.9 -8.05 155.7 -8.05 153.65 -8.05 147.2 -6.45 143.05 -7.8 141.7 -9.05 138.75 L-10.8 133.95 Q-10.8 130.7 -8.75 128.75 -6.8 127.0 -4.15 127.15 -1.45 127.3 0.4 129.5 2.45 132.0 2.45 136.2 L2.45 136.4" fill="#c7fafe" fill-opacity="0.72156864" fill-rule="evenodd" stroke="none"/>
  </g>
</svg>
