<?xml version="1.0" encoding="UTF-8" standalone="no"?>
<svg xmlns:ffdec="https://www.free-decompiler.com/flash" xmlns:xlink="http://www.w3.org/1999/xlink" ffdec:objectType="shape" height="34.6px" width="80.85px" xmlns="http://www.w3.org/2000/svg">
  <g transform="matrix(1.0, 0.0, 0.0, 1.0, 57.1, -129.0)">
    <path d="M9.35 147.8 L9.35 147.6 Q9.35 143.75 11.6 143.5 13.6 143.3 16.55 145.85 19.45 148.4 21.5 152.05 23.75 156.05 23.75 159.45 23.75 161.1 23.0 162.25 22.1 163.6 20.3 163.6 L19.1 163.55 18.4 163.6 10.05 163.6 Q8.05 162.1 7.15 158.6 6.65 156.6 6.65 155.05 6.65 147.65 7.45 146.7 8.1 145.95 9.35 147.8 M-2.05 147.55 Q-1.15 147.95 -1.15 149.15 -1.15 151.15 -3.0 152.0 L-5.1 152.45 Q-17.55 152.45 -20.8 148.75 -21.9 147.45 -22.05 145.5 L-21.95 142.5 Q-21.95 137.9 -19.0 133.9 -16.1 130.0 -12.45 129.2 -8.45 128.3 -5.9 132.0 -2.95 136.3 -2.95 145.9 -2.95 147.1 -2.05 147.55" fill="#c7fafe" fill-opacity="0.72156864" fill-rule="evenodd" stroke="none"/>
    <path d="M-43.45 141.8 Q-44.75 143.2 -48.55 143.2 -54.05 143.2 -56.15 139.25 -57.1 135.6 -57.1 136.05 -57.1 130.9 -54.85 129.6 -52.95 128.5 -49.9 130.2 -47.25 131.7 -45.0 134.5 -42.75 137.25 -42.75 139.05 -42.75 140.95 -43.45 141.8" fill="#c7fafe" fill-opacity="0.72156864" fill-rule="evenodd" stroke="none"/>
  </g>
</svg>
