<?xml version="1.0" encoding="UTF-8" standalone="no"?>
<svg xmlns:ffdec="https://www.free-decompiler.com/flash" xmlns:xlink="http://www.w3.org/1999/xlink" ffdec:objectType="shape" height="38.45px" width="113.2px" xmlns="http://www.w3.org/2000/svg">
  <g transform="matrix(1.0, 0.0, 0.0, 1.0, 75.6, -125.15)">
    <path d="M37.6 157.7 Q37.6 160.7 37.15 161.55 35.95 163.6 31.35 163.6 L27.3 163.3 19.35 162.65 Q16.7 161.95 16.1 160.85 15.9 160.45 15.9 158.75 15.9 155.2 18.45 151.75 22.55 146.2 31.35 146.5 34.8 148.0 36.45 151.8 37.6 154.55 37.6 157.7 M-20.8 130.05 Q-18.1 125.15 -13.4 125.15 -5.35 125.15 -2.0 132.0 -0.3 135.45 -0.2 139.15 L-0.2 143.7 Q-1.0 146.85 -5.1 146.85 -14.1 146.85 -19.4 142.3 -21.05 140.85 -22.15 139.1 L-22.9 137.6 Q-22.9 133.8 -20.8 130.05" fill="#c7fafe" fill-opacity="0.72156864" fill-rule="evenodd" stroke="none"/>
    <path d="M-66.15 159.75 Q-67.65 162.65 -69.8 162.65 -73.1 162.65 -74.65 158.7 L-75.6 154.6 Q-75.6 150.3 -70.25 151.35 -64.95 152.35 -64.95 155.65 -64.95 157.5 -66.15 159.75" fill="#c7fafe" fill-opacity="0.72156864" fill-rule="evenodd" stroke="none"/>
  </g>
</svg>
