<?xml version="1.0" encoding="UTF-8" standalone="no"?>
<svg xmlns:ffdec="https://www.free-decompiler.com/flash" xmlns:xlink="http://www.w3.org/1999/xlink" ffdec:objectType="shape" height="39.8px" width="19.65px" xmlns="http://www.w3.org/2000/svg">
  <g transform="matrix(1.0, 0.0, 0.0, 1.0, 7.1, -125.6)">
    <path d="M8.05 148.3 Q9.2 149.6 10.2 151.4 12.55 155.45 12.55 159.1 L12.5 162.95 Q11.7 165.4 7.7 165.4 L6.6 165.4 5.9 165.4 Q4.4 165.4 3.15 164.65 0.25 163.55 -1.25 160.85 L-2.3 157.8 -2.45 156.6 Q-2.45 148.85 -0.1 146.2 L-0.05 146.2 Q-2.4 142.0 -5.15 139.85 -7.1 138.25 -7.1 134.75 -7.1 132.55 -5.65 130.0 -4.2 127.4 -2.3 126.3 2.7 123.35 4.35 133.2 5.35 137.85 7.0 142.1 8.05 144.7 8.05 148.2 L8.05 148.3" fill="#c7fafe" fill-opacity="0.72156864" fill-rule="evenodd" stroke="none"/>
  </g>
</svg>
