<?xml version="1.0" encoding="UTF-8" standalone="no"?>
<svg xmlns:ffdec="https://www.free-decompiler.com/flash" xmlns:xlink="http://www.w3.org/1999/xlink" ffdec:objectType="shape" height="90.45px" width="54.8px" xmlns="http://www.w3.org/2000/svg">
  <g transform="matrix(1.0, 0.0, 0.0, 1.0, 20.1, -75.45)">
    <path d="M5.5 81.75 L5.45 81.7 5.45 81.65 5.5 81.75 M-16.3 131.6 L-16.3 131.55 -16.25 131.6 -16.3 131.6" fill="#ff0200" fill-rule="evenodd" stroke="none"/>
    <path d="M22.85 80.25 Q23.5 81.45 23.5 82.7 L22.95 89.4 22.7 91.9 Q25.2 93.3 26.0 96.5 L26.75 101.0 27.5 106.4 Q27.5 107.2 26.8 108.2 25.85 109.5 24.3 109.5 21.25 109.5 20.6 106.1 L20.6 105.55 20.15 107.9 21.35 108.7 Q24.9 111.55 26.0 115.5 L29.0 127.5 Q30.4 133.4 31.9 151.35 31.9 152.65 31.1 153.6 L31.1 153.8 30.9 155.0 29.95 154.1 Q28.2 152.7 27.5 149.85 L27.1 147.2 27.0 146.6 26.1 141.1 23.9 129.0 21.4 118.5 Q21.0 112.75 17.65 112.95 16.3 113.0 15.35 114.1 14.3 115.25 14.3 116.8 L14.9 119.75 Q14.3 120.8 14.3 121.9 L14.4 122.35 14.0 122.75 Q11.5 121.95 10.35 123.2 L10.2 123.35 Q8.85 123.1 7.95 122.4 9.55 120.2 11.3 113.8 13.0 107.65 13.4 104.95 15.1 99.55 17.1 90.95 17.1 90.05 16.75 89.35 18.15 85.15 18.4 82.5 21.1 82.55 22.3 81.1 L22.85 80.25 M13.45 140.1 Q11.7 140.8 8.95 140.8 L0.3 141.9 Q-6.0 141.9 -8.0 139.3 L-8.45 138.55 Q-3.3 137.85 2.2 134.3 8.3 130.35 8.3 128.15 8.3 127.2 7.9 126.45 L9.6 126.3 11.6 133.65 13.45 140.1" fill="#007bb0" fill-rule="evenodd" stroke="none"/>
    <path d="M4.3 123.0 Q3.7 122.55 3.4 121.85 L3.1 120.05 4.35 115.7 4.0 114.85 3.9 112.45 Q3.9 110.3 5.3 104.95 6.7 99.55 6.7 95.05 6.7 93.9 8.0 88.55 L9.6 82.4 Q6.75 83.2 5.5 81.75 L5.45 81.65 Q4.7 80.75 4.7 79.25 4.7 75.55 13.9 75.45 17.65 75.4 20.25 76.3 23.1 77.25 23.1 78.95 L22.85 80.25 22.3 81.1 Q21.1 82.55 18.4 82.5 18.15 85.15 16.75 89.35 17.1 90.05 17.1 90.95 15.1 99.55 13.4 104.95 13.0 107.65 11.3 113.8 9.55 120.2 7.95 122.4 7.1 123.5 6.3 123.5 5.05 123.5 4.3 123.0 M30.9 155.0 Q32.3 156.5 32.3 158.3 32.3 159.8 31.5 161.0 30.1 163.1 26.7 163.1 24.3 163.1 23.0 162.15 21.65 161.2 21.45 159.35 21.85 154.9 21.6 153.5 L20.7 149.9 Q20.0 148.3 19.55 145.8 L18.6 137.15 Q17.45 134.9 16.3 130.9 L14.55 122.9 14.4 122.35 14.3 121.9 Q14.3 120.8 14.9 119.75 L14.3 116.8 Q14.3 115.25 15.35 114.1 16.3 113.0 17.65 112.95 21.0 112.75 21.4 118.5 L23.9 129.0 26.1 141.1 27.0 146.6 27.1 147.2 27.5 149.85 Q28.2 152.7 29.95 154.1 L30.9 155.0 M-8.45 138.55 L-10.9 138.7 Q-12.35 138.7 -13.1 138.0 -15.25 137.6 -16.3 136.6 -17.3 135.7 -17.3 134.05 -17.3 132.8 -16.5 131.8 L-16.3 131.6 -16.25 131.6 Q-15.45 130.7 -14.1 130.7 L-12.0 131.25 -9.45 129.25 Q-8.95 127.6 -7.4 127.3 L-6.35 126.6 Q-4.0 125.15 -0.9 124.4 L-0.7 124.35 -0.15 124.25 2.15 123.9 Q6.15 123.5 7.15 125.55 L7.9 126.45 Q8.3 127.2 8.3 128.15 8.3 130.35 2.2 134.3 -3.3 137.85 -8.45 138.55" fill="#009cdf" fill-rule="evenodd" stroke="none"/>
    <path d="M4.3 123.0 L3.3 123.1 Q0.45 123.1 -0.5 117.7 L-0.9 112.15 Q-0.9 107.8 1.7 94.0 L2.5 89.45 Q2.95 86.75 3.6 85.0 4.45 82.8 5.45 81.7 L5.5 81.75 Q6.75 83.2 9.6 82.4 L8.0 88.55 Q6.7 93.9 6.7 95.05 6.7 99.55 5.3 104.95 3.9 110.3 3.9 112.45 L4.0 114.85 4.35 115.7 3.1 120.05 3.4 121.85 Q3.7 122.55 4.3 123.0 M23.0 162.15 Q22.25 162.7 21.1 162.7 17.85 162.7 16.3 155.3 15.1 146.65 14.5 144.1 L13.45 140.1 11.6 133.65 9.6 126.3 9.5 125.65 Q9.5 124.2 10.2 123.35 L10.35 123.2 Q11.5 121.95 14.0 122.75 L14.5 122.9 14.55 122.9 16.3 130.9 Q17.45 134.9 18.6 137.15 L19.55 145.8 Q20.0 148.3 20.7 149.9 L21.6 153.5 Q21.85 154.9 21.45 159.35 21.65 161.2 23.0 162.15 M-16.3 131.55 L-16.5 129.45 Q-16.5 127.3 -14.05 125.1 -11.85 123.15 -8.7 122.05 -5.5 120.95 -3.35 121.45 -0.9 122.0 -0.9 124.4 -4.0 125.15 -6.35 126.6 L-7.4 127.3 Q-8.95 127.6 -9.45 129.25 L-12.0 131.25 -14.1 130.7 Q-15.45 130.7 -16.25 131.6 L-16.3 131.55" fill="#00c3ff" fill-rule="evenodd" stroke="none"/>
    <path d="M20.0 85.9 L20.2 85.6 20.3 85.3 20.3 85.0 20.4 84.7 20.6 84.4 20.7 84.1 20.7 83.8 20.8 83.5 21.0 83.2 21.1 82.9 21.1 82.6 21.2 82.3 21.4 82.0 21.5 81.7 21.5 81.4 21.5 81.1 21.5 80.8 21.6 80.5 21.7 80.2 21.9 79.9 22.2 79.6 22.6 79.3 23.5 79.1 23.9 79.1 24.7 79.3 25.2 79.6 25.5 79.9 25.6 80.2 25.8 80.5 25.9 80.8 25.9 81.1 25.9 81.4 25.9 81.7 25.8 82.0 25.7 82.3 25.5 82.6 25.5 82.9 25.4 83.2 25.3 83.5 25.1 83.8 25.1 84.1 25.0 84.4 24.9 84.7 24.7 85.0 24.7 85.3 24.6 85.6 24.5 85.9 24.3 86.2 24.3 86.5 24.2 86.8 24.1 87.1 23.9 87.4 23.9 87.7 23.9 88.0 23.9 88.3 23.9 88.6 23.9 88.9 23.8 89.2 24.3 89.3 24.8 89.6 25.1 89.9 25.2 90.2 25.4 90.5 25.5 90.8 25.7 91.1 25.8 91.4 25.9 91.7 25.9 92.0 26.1 92.3 26.2 92.6 26.3 92.9 26.3 93.2 26.5 93.5 26.6 93.8 26.7 94.1 26.7 94.4 26.7 94.7 26.7 95.0 26.8 95.3 26.9 95.6 27.0 95.9 27.1 96.2 27.1 96.5 27.2 96.8 27.3 97.1 27.4 97.4 27.5 97.7 27.5 98.0 27.5 98.3 27.5 98.6 27.5 98.9 27.5 99.2 27.5 99.5 27.6 99.8 27.8 100.1 27.9 100.4 27.9 100.7 27.9 101.0 28.0 101.3 28.1 101.6 28.2 101.9 28.3 102.2 28.3 102.5 28.3 102.8 28.3 103.1 28.3 103.4 28.3 103.7 28.3 104.0 28.3 104.3 28.3 104.6 28.4 104.9 28.5 105.2 28.6 105.5 28.7 105.8 28.7 106.1 28.7 106.4 28.7 106.7 28.7 107.0 28.8 107.3 28.9 107.6 29.0 107.9 29.1 108.2 29.1 108.5 29.1 108.8 29.1 109.1 29.1 109.4 29.1 109.7 29.1 110.0 29.1 110.3 29.1 110.6 29.1 110.9 29.1 111.2 29.1 111.5 29.1 111.8 29.1 112.1 29.1 112.4 29.1 112.7 29.0 113.0 28.8 113.3 28.7 113.6 28.7 113.9 28.7 114.2 28.7 114.5 28.7 114.8 28.7 115.1 28.7 115.4 28.6 115.7 28.4 116.0 28.3 116.3 28.0 116.6 27.5 116.9 27.5 117.0 27.5 117.3 27.5 117.6 27.7 117.9 27.8 118.2 27.9 118.5 27.9 118.8 28.1 119.1 28.2 119.4 28.3 119.7 28.3 120.0 28.3 120.3 28.3 120.6 28.3 120.9 28.3 121.2 28.3 121.4 28.4 121.7 28.5 122.0 28.6 122.3 28.7 122.6 28.7 122.9 28.7 123.2 28.7 123.5 28.7 123.8 28.8 124.1 28.9 124.4 29.0 124.7 29.1 125.0 29.2 125.3 29.3 125.6 29.4 125.9 29.5 126.2 29.5 126.5 29.5 126.8 29.5 127.1 29.5 127.4 29.5 127.7 29.5 128.0 29.7 128.3 29.8 128.6 30.0 128.9 30.1 129.2 30.2 129.5 30.3 129.8 30.3 130.1 30.3 130.4 30.3 130.7 30.3 131.0 30.3 131.3 30.3 131.6 30.5 131.9 30.6 132.2 30.7 132.5 30.7 132.8 30.9 133.1 31.0 133.4 31.2 133.7 31.3 134.0 31.4 134.3 31.5 134.6 31.5 134.9 31.5 135.2 31.5 135.5 31.5 135.8 31.6 136.1 31.7 136.4 31.9 136.7 32.0 137.0 32.2 137.3 32.3 137.6 32.3 137.9 32.4 138.2 32.6 138.5 32.7 138.8 32.7 139.1 32.7 139.4 32.7 139.7 32.7 140.0 32.7 140.3 32.7 140.6 32.7 140.9 32.7 141.2 32.9 141.5 33.0 141.8 33.1 142.1 33.1 142.4 33.1 142.7 33.2 143.0 33.4 143.3 33.5 143.6 33.5 143.9 33.6 144.2 33.8 144.5 33.9 144.8 33.9 145.1 33.9 145.4 33.9 145.7 33.9 146.0 33.9 146.3 33.9 146.6 34.0 146.9 34.1 147.2 34.2 147.5 34.3 147.8 34.3 148.1 34.3 148.4 34.3 148.7 34.3 149.0 34.4 149.3 34.5 149.6 34.6 149.9 34.7 150.2 34.7 150.5 34.7 150.8 34.7 151.1 34.7 151.4 34.7 151.7 34.7 152.0 34.7 152.3 34.7 152.6 34.7 152.9 34.7 153.2 34.7 153.5 34.7 153.8 34.7 154.1 34.7 154.4 34.7 154.7 34.7 155.0 34.7 155.3 34.7 155.6 34.7 155.9 34.7 156.2 34.7 156.5 34.6 156.8 34.5 157.1 34.3 157.4 34.3 157.7 34.3 158.0 34.3 158.3 34.3 158.6 34.3 158.9 34.3 159.2 34.2 159.5 34.1 159.8 34.0 160.1 33.9 160.4 33.9 160.7 33.9 161.0 33.8 161.3 33.6 161.6 33.5 161.9 33.3 162.2 33.2 162.5 33.0 162.8 32.7 163.1 32.4 163.4 32.1 163.7 31.8 164.0 31.5 164.3 31.2 164.6 30.9 164.9 30.6 165.2 30.2 165.5 30.0 165.7 29.7 165.8 29.1 165.9 23.1 165.9 22.2 165.7 21.9 165.5 21.0 165.3 20.4 165.0 19.9 164.7 19.2 164.4 18.9 164.1 18.4 163.8 17.9 163.5 17.6 163.2 17.3 162.9 17.0 162.6 16.8 162.3 16.7 162.0 16.5 161.7 16.2 161.4 15.9 161.1 15.7 160.8 15.6 160.5 15.4 160.2 15.2 159.9 15.1 159.6 15.1 159.3 15.1 159.0 15.0 158.7 14.9 158.4 14.8 158.1 14.7 157.8 14.6 157.5 14.5 157.2 14.4 156.9 14.2 156.6 14.0 156.3 13.9 156.0 13.7 155.7 13.6 155.4 13.5 155.1 13.5 154.8 13.5 154.5 13.4 154.2 13.2 153.9 13.1 153.6 13.1 153.3 13.1 153.0 13.0 152.7 12.9 152.4 12.8 152.1 12.7 151.8 12.6 151.5 12.5 151.2 12.4 150.9 12.3 150.6 12.2 150.3 12.1 150.0 12.0 149.7 11.9 149.4 11.8 149.1 11.7 148.8 11.6 148.5 11.5 148.2 11.4 147.9 11.3 147.6 11.2 147.3 11.1 147.0 11.1 146.7 11.1 146.4 10.9 146.1 10.8 145.8 10.7 145.5 10.7 145.2 10.7 144.9 10.65 144.7 10.3 144.9 9.7 145.2 9.3 145.4 8.7 145.5 1.1 145.5 0.2 145.3 -1.3 145.1 -2.2 144.9 -2.9 144.7 -3.8 144.5 -4.1 144.3 -5.0 144.1 -5.6 143.8 -5.9 143.6 -6.1 143.5 -7.0 143.3 -7.7 143.1 -8.6 142.9 -9.3 142.7 -10.2 142.5 -10.9 142.3 -11.8 142.1 -12.1 141.9 -13.0 141.7 -13.7 141.5 -14.6 141.3 -14.9 141.1 -15.8 140.9 -16.5 140.7 -17.4 140.5 -17.8 140.2 -18.1 139.9 -18.4 139.6 -18.7 139.3 -19.0 139.0 -19.3 138.7 -19.5 138.4 -19.6 138.1 -19.8 137.8 -20.0 137.5 -20.1 137.2 -20.1 136.9 -20.1 136.6 -20.1 136.3 -20.1 136.0 -20.1 135.7 -20.1 135.4 -20.1 135.1 -20.1 134.8 -20.1 134.5 -20.1 134.2 -20.1 133.9 -20.1 133.6 -20.1 133.3 -20.1 133.0 -20.1 132.7 -20.1 132.4 -20.1 132.1 -20.1 131.8 -20.1 131.5 -20.1 131.2 -20.1 130.9 -20.1 130.6 -20.0 130.3 -19.8 130.0 -19.7 129.7 -19.7 129.4 -19.7 129.1 -19.7 128.8 -19.7 128.5 -19.7 128.2 -19.6 127.9 -19.4 127.6 -19.3 127.3 -19.3 127.0 -19.3 126.7 -19.2 126.4 -19.1 126.1 -18.9 125.8 -18.9 125.5 -18.8 125.2 -18.7 124.9 -18.5 124.6 -18.4 124.3 -18.2 124.0 -17.9 123.7 -17.6 123.4 -17.4 123.1 -17.3 122.8 -17.2 122.5 -17.1 122.2 -16.9 121.9 -16.6 121.6 -16.3 121.3 -16.0 121.0 -15.7 120.7 -15.2 120.4 -14.6 120.1 -13.7 120.0 -13.7 119.9 -6.1 119.9 -5.3 120.1 -4.1 120.3 -3.3 120.5 -2.65 120.55 -2.8 120.3 -2.9 120.0 -2.9 119.7 -2.9 119.4 -2.9 119.1 -2.9 118.8 -3.1 118.5 -3.2 118.2 -3.3 117.9 -3.3 117.6 -3.3 117.3 -3.3 117.0 -3.3 116.7 -3.3 116.4 -3.3 116.1 -3.3 115.8 -3.3 115.5 -3.3 115.2 -3.3 114.9 -3.3 114.6 -3.3 114.3 -3.3 114.0 -3.3 113.7 -3.3 113.4 -3.3 113.1 -3.3 112.8 -3.3 112.5 -3.3 112.2 -3.2 111.9 -3.0 111.6 -2.9 111.3 -2.9 111.0 -2.9 110.7 -2.9 110.4 -2.9 110.1 -2.9 109.8 -2.9 109.5 -2.9 109.2 -2.8 108.9 -2.7 108.6 -2.6 108.3 -2.5 108.0 -2.5 107.7 -2.5 107.4 -2.5 107.1 -2.5 106.8 -2.4 106.5 -2.3 106.2 -2.2 105.9 -2.1 105.6 -2.1 105.3 -2.1 105.0 -2.0 104.7 -1.8 104.4 -1.7 104.1 -1.7 103.8 -1.7 103.5 -1.7 103.2 -1.7 102.9 -1.7 102.6 -1.6 102.3 -1.4 102.0 -1.3 101.7 -1.3 101.4 -1.3 101.1 -1.3 100.8 -1.3 100.5 -1.3 100.2 -1.3 99.9 -1.2 99.6 -1.1 99.3 -0.9 99.0 -0.9 98.7 -0.9 98.4 -0.9 98.1 -0.9 97.8 -0.9 97.5 -0.9 97.2 -0.8 96.9 -0.7 96.6 -0.6 96.3 -0.5 96.0 -0.5 95.7 -0.5 95.4 -0.5 95.1 -0.5 94.8 -0.4 94.5 -0.3 94.2 -0.2 93.9 -0.1 93.6 0.0 93.3 0.1 93.0 0.2 92.7 0.3 92.4 0.3 92.1 0.3 91.8 0.3 91.5 0.3 91.2 0.3 90.9 0.3 90.6 0.4 90.3 0.6 90.0 0.7 89.7 0.7 89.4 0.7 89.1 0.7 88.8 0.8 88.5 0.9 88.2 1.0 87.9 1.1 87.6 1.1 87.3 1.1 87.0 1.2 86.7 1.4 86.4 1.5 86.1 1.5 85.8 1.5 85.5 1.5 85.2 1.6 84.9 1.7 84.6 1.8 84.3 1.9 84.0 1.9 83.7 1.9 83.4 2.0 83.1 2.2 82.8 2.3 82.5 2.3 82.2 2.3 81.9 2.3 81.6 2.4 81.3 2.5 81.0 2.6 80.7 2.7 80.4 2.7 80.1 2.7 79.8 2.8 79.5 3.0 79.2 3.3 78.9 3.6 78.6 4.1 78.4 4.7 78.4 4.7 78.3 5.5 78.5 6.0 78.8 6.3 79.1 6.4 79.4 6.6 79.7 6.7 80.0 6.7 80.3 6.7 80.6 6.7 80.9 6.7 81.2 6.7 81.5 6.7 81.8 6.6 82.1 6.4 82.4 6.3 82.7 6.3 83.0 6.3 83.3 6.2 83.6 6.1 83.9 6.0 84.2 5.9 84.5 5.9 84.8 5.9 85.1 5.9 85.4 5.8 85.7 5.6 86.0 5.5 86.3 5.5 86.6 5.5 86.9 5.5 87.2 5.4 87.5 5.3 87.8 5.2 88.1 5.1 88.4 5.1 88.7 5.1 89.0 5.0 89.3 4.8 89.6 4.7 89.9 4.7 90.2 4.7 90.5 4.6 90.8 4.5 91.1 4.4 91.4 4.3 91.7 4.3 92.0 4.3 92.3 4.3 92.6 4.3 92.9 4.3 93.2 4.3 93.5 4.3 93.8 4.2 94.1 4.0 94.4 3.9 94.7 3.9 95.0 3.8 95.3 3.6 95.6 3.5 95.9 3.5 96.2 3.5 96.5 3.5 96.8 3.5 97.1 3.5 97.4 3.4 97.7 3.2 98.0 3.1 98.3 3.1 98.6 3.1 98.9 3.1 99.2 3.1 99.5 3.1 99.8 3.1 100.1 3.0 100.4 2.9 100.7 2.7 101.0 2.7 101.3 2.7 101.6 2.7 101.9 2.7 102.2 2.7 102.5 2.7 102.8 2.6 103.1 2.5 103.4 2.4 103.7 2.3 104.0 2.3 104.3 2.3 104.6 2.3 104.9 2.3 105.2 2.2 105.5 2.1 105.8 2.0 106.1 1.9 106.4 1.9 106.7 1.8 107.0 1.6 107.3 1.5 107.6 1.5 107.9 1.5 108.2 1.5 108.5 1.5 108.8 1.5 109.1 1.5 109.4 1.4 109.7 1.2 110.0 1.1 110.3 1.1 110.6 1.1 110.9 1.1 111.2 1.1 111.5 1.1 111.8 1.1 112.1 1.1 112.4 1.1 112.7 1.1 113.0 1.0 113.3 0.8 113.6 0.7 113.9 0.7 114.2 0.7 114.5 0.7 114.8 0.7 115.1 0.7 115.4 0.7 115.7 0.7 116.0 0.7 116.3 0.7 116.6 0.8 116.9 0.9 117.2 1.0 117.5 1.1 117.8 1.1 118.1 1.1 118.4 1.1 118.7 1.2 119.0 1.4 119.3 1.5 119.6 1.5 119.9 1.8 120.2 2.0 120.5 2.2 120.8 2.6 121.1 3.0 121.4 3.5 121.7 4.3 121.9 5.1 122.1 5.5 122.3 6.3 122.5 8.2 122.5 8.5 122.4 9.1 122.3 9.6 122.45 10.0 122.2 10.3 121.9 10.6 121.6 10.8 121.3 10.9 121.0 11.1 120.7 11.4 120.4 11.5 120.1 11.5 119.8 11.6 119.5 11.8 119.2 11.9 118.9 11.9 118.6 12.0 118.3 12.2 118.0 12.3 117.7 12.3 117.4 12.4 117.1 12.6 116.8 12.7 116.5 12.7 116.2 12.8 115.9 13.0 115.6 13.1 115.3 13.1 115.0 13.1 114.7 13.2 114.4 13.3 114.1 13.5 113.8 13.5 113.5 13.6 113.2 13.7 112.9 13.9 112.6 13.9 112.3 14.0 112.0 14.1 111.7 14.3 111.4 14.4 111.1 14.6 110.8 14.7 110.5 14.7 110.2 14.8 109.9 15.0 109.6 15.1 109.3 15.1 109.0 15.1 108.7 15.2 108.4 15.3 108.1 15.5 107.8 15.5 107.5 15.5 107.2 15.5 106.9 15.5 106.6 15.6 106.3 15.8 106.0 15.9 105.7 15.9 105.4 15.9 105.1 15.9 104.8 16.0 104.5 16.1 104.2 16.2 103.9 16.3 103.6 16.4 103.3 16.5 103.0 16.6 102.7 16.7 102.4 16.7 102.1 16.7 101.8 16.7 101.5 16.8 101.2 16.9 100.9 17.1 100.6 17.1 100.3 17.2 100.0 17.3 99.7 17.5 99.4 17.5 99.1 17.5 98.8 17.5 98.5 17.5 98.2 17.6 97.9 17.8 97.6 17.9 97.3 17.9 97.0 17.9 96.7 17.9 96.4 17.9 96.1 17.9 95.8 18.0 95.5 18.2 95.2 18.3 94.9 18.3 94.6 18.3 94.3 18.4 94.0 18.5 93.7 18.7 93.4 18.7 93.1 18.7 92.8 18.7 92.5 18.7 92.2 18.8 91.9 19.0 91.6 19.1 91.3 19.1 91.0 19.1 90.7 19.1 90.4 19.2 90.1 19.3 89.8 19.4 89.5 19.5 89.2 19.5 88.9 19.5 88.6 19.6 88.3 19.8 88.0 19.9 87.7 19.9 87.4 19.9 87.1 19.9 86.8 19.9 86.5 19.9 86.2 20.0 85.9 M22.6 94.95 L22.4 95.2 22.3 95.5 22.3 95.8 22.3 96.1 22.2 96.4 22.1 96.7 21.9 97.0 21.9 97.3 21.9 97.6 21.9 97.9 21.9 98.1 22.4 98.4 22.7 98.7 22.8 99.0 23.0 99.3 23.1 99.6 23.1 99.9 23.1 100.2 23.1 100.5 23.1 100.8 23.3 101.1 23.4 101.4 23.5 101.7 23.5 102.0 23.5 102.3 23.5 102.6 23.6 102.9 23.7 103.2 23.8 103.5 23.9 103.8 24.0 104.1 24.1 104.4 24.2 104.7 24.3 105.0 24.3 104.9 24.3 104.6 24.3 104.3 24.3 104.0 24.3 103.7 24.3 103.4 24.2 103.1 24.1 102.8 24.0 102.5 23.9 102.2 23.9 101.9 23.9 101.6 23.7 101.3 23.6 101.0 23.5 100.7 23.5 100.4 23.5 100.1 23.5 99.8 23.5 99.5 23.5 99.2 23.5 98.9 23.5 98.6 23.4 98.3 23.3 98.0 23.2 97.7 23.1 97.4 23.0 97.1 22.9 96.8 22.8 96.5 22.7 96.2 22.7 95.9 22.7 95.6 22.7 95.3 22.6 95.0 22.6 94.95 M24.3 105.5 L24.3 105.6 24.3 105.9 24.4 106.2 24.6 106.5 24.7 106.8 24.7 106.7 24.7 106.4 24.5 106.1 24.4 105.8 24.3 105.5 M20.3 107.4 L20.3 107.1 20.3 106.8 20.3 106.5 20.3 106.2 20.2 105.9 20.1 105.6 20.1 105.5 20.0 105.7 19.9 106.0 19.9 106.3 19.9 106.6 19.8 106.9 19.7 107.2 19.5 107.5 19.5 107.8 19.5 108.1 19.5 108.4 19.5 108.7 19.4 109.0 19.2 109.3 19.1 109.6 19.1 109.9 19.1 110.2 19.0 110.5 18.9 110.8 18.7 111.1 18.7 111.4 18.7 111.7 18.6 112.0 18.5 112.3 18.3 112.6 18.1 112.9 17.9 113.2 17.9 113.5 17.9 113.8 17.8 114.1 17.6 114.4 17.5 114.7 17.5 115.0 17.4 115.3 17.2 115.6 17.1 115.9 17.1 116.2 17.0 116.5 16.9 116.8 16.7 117.1 16.7 117.4 16.7 117.7 16.6 118.0 16.5 118.3 16.3 118.6 16.3 118.9 16.2 119.2 16.1 119.5 15.9 119.8 15.9 120.1 15.8 120.4 15.7 120.7 15.5 121.0 15.4 121.3 15.3 121.6 15.1 121.9 15.0 122.2 14.8 122.5 14.6 122.8 14.5 123.1 14.3 123.4 14.2 123.7 14.0 124.0 13.9 124.3 13.6 124.6 13.2 124.9 13.0 125.2 12.6 125.5 12.1 125.8 11.5 126.1 11.5 126.4 11.5 126.7 11.5 127.0 11.5 127.3 11.5 127.6 11.5 127.9 11.5 128.2 11.5 128.5 11.5 128.8 11.5 129.1 11.5 129.4 11.6 129.7 11.7 130.0 11.8 130.3 11.9 130.6 11.9 130.9 11.9 131.2 11.9 131.5 11.9 131.8 11.9 132.1 11.9 132.4 11.9 132.7 12.0 133.0 12.2 133.3 12.3 133.6 12.3 133.9 12.4 134.2 12.6 134.5 12.7 134.8 12.7 135.1 12.7 135.4 12.7 135.7 12.7 136.0 12.9 136.3 13.0 136.6 13.1 136.9 13.1 137.2 13.1 137.5 13.1 137.8 13.1 138.1 13.1 138.3 13.2 138.5 13.3 138.7 13.35 138.8 13.4 138.9 13.5 139.2 13.5 139.3 13.5 139.5 13.5 139.6 13.7 139.9 13.8 140.2 13.9 140.5 13.9 140.8 13.9 141.1 13.9 141.4 14.0 141.7 14.1 142.0 14.2 142.3 14.3 142.6 14.4 142.9 14.5 143.2 14.6 143.5 14.7 143.8 14.7 144.1 14.7 144.4 14.9 144.7 15.0 145.0 15.1 145.3 15.1 145.6 15.1 145.9 15.2 146.2 15.4 146.5 15.5 146.8 15.5 147.1 15.6 147.4 15.8 147.7 15.9 148.0 15.9 148.3 16.0 148.6 16.2 148.9 16.3 149.2 16.3 149.5 16.4 149.8 16.6 150.1 16.7 150.4 16.7 150.7 16.8 151.0 17.0 151.3 17.1 151.6 17.1 151.9 17.1 152.2 17.2 152.5 17.3 152.8 17.4 153.1 17.5 153.4 17.5 153.7 17.6 154.0 17.9 154.3 18.0 154.6 18.2 154.9 18.3 155.2 18.3 155.5 18.4 155.8 18.6 156.1 18.7 156.4 18.9 156.7 19.0 157.0 19.1 157.3 19.1 157.6 19.1 157.9 19.2 158.2 19.4 158.5 19.5 158.8 19.7 159.1 19.8 159.4 20.1 159.7 20.4 160.0 20.7 160.3 21.0 160.6 21.5 160.9 22.1 161.2 22.5 161.4 22.7 161.5 23.5 161.7 28.1 161.7 28.4 161.4 29.0 161.1 29.2 160.8 29.3 160.5 29.6 160.2 29.8 159.9 29.9 159.6 29.9 159.3 29.9 159.0 30.0 158.7 30.2 158.4 30.3 158.1 30.3 157.8 30.3 157.5 30.3 157.2 30.3 156.9 30.3 156.6 30.3 156.3 30.4 156.0 30.5 155.7 30.7 155.4 30.7 155.1 30.7 154.8 30.7 154.5 30.7 154.2 30.7 153.9 30.7 153.6 30.7 153.3 30.7 153.0 30.7 152.7 30.7 152.4 30.7 152.1 30.7 151.8 30.7 151.5 30.7 151.2 30.5 150.9 30.4 150.6 30.3 150.3 30.3 150.0 30.3 149.7 30.3 149.4 30.3 149.1 30.3 148.8 30.1 148.5 30.0 148.2 29.9 147.9 29.9 147.6 29.9 147.3 29.9 147.0 29.9 146.7 29.9 146.4 29.9 146.1 29.8 145.8 29.6 145.5 29.5 145.2 29.5 144.9 29.4 144.6 29.2 144.3 29.1 144.0 29.1 143.7 29.1 143.4 29.0 143.1 28.9 142.8 28.8 142.5 28.7 142.2 28.7 141.9 28.7 141.6 28.7 141.3 28.7 141.0 28.7 140.7 28.7 140.4 28.7 140.1 28.6 139.8 28.4 139.5 28.3 139.2 28.3 138.9 28.2 138.6 28.0 138.3 27.9 138.0 27.7 137.7 27.6 137.4 27.5 137.1 27.5 136.8 27.5 136.5 27.5 136.2 27.4 135.9 27.3 135.6 27.2 135.3 27.1 135.0 27.0 134.7 26.9 134.4 26.8 134.1 26.7 133.8 26.6 133.5 26.5 133.2 26.4 132.9 26.3 132.6 26.3 132.3 26.3 132.0 26.3 131.7 26.3 131.4 26.2 131.1 26.1 130.8 26.0 130.5 25.9 130.2 25.8 129.9 25.7 129.6 25.6 129.3 25.5 129.0 25.5 128.7 25.5 128.4 25.5 128.1 25.5 127.8 25.5 127.5 25.5 127.2 25.3 126.9 25.2 126.6 25.1 126.3 25.1 126.0 24.9 125.7 24.8 125.4 24.7 125.1 24.7 124.8 24.7 124.5 24.7 124.2 24.6 123.9 24.5 123.6 24.4 123.3 24.3 123.0 24.3 122.7 24.3 122.4 24.1 122.1 24.0 121.8 23.9 121.5 23.7 121.2 23.6 120.9 23.5 120.6 23.5 120.3 23.5 120.0 23.5 119.7 23.5 119.4 23.55 119.25 23.5 119.1 23.5 118.8 23.5 118.5 23.5 118.2 23.4 117.9 23.3 117.6 23.2 117.3 23.1 117.0 23.1 116.7 23.1 116.4 22.9 116.1 22.8 115.8 22.7 115.5 22.7 115.2 22.7 114.9 22.7 114.6 22.6 114.3 22.5 114.0 22.4 113.7 22.2 113.4 22.0 113.1 21.9 112.8 21.9 112.5 21.8 112.2 21.6 111.9 21.5 111.6 21.5 111.3 21.5 111.0 21.5 110.7 21.5 110.4 21.3 110.1 21.2 109.8 21.1 109.5 20.9 109.2 20.8 108.9 20.7 108.6 20.6 108.3 20.5 108.0 20.4 107.7 20.3 107.4 M5.9 126.7 L5.0 126.5 4.7 126.3 3.8 126.1 3.1 125.9 2.2 125.7 1.6 125.4 1.1 125.1 0.8 124.8 0.4 124.6 -0.1 124.7 -3.7 124.7 -4.6 124.5 -5.7 124.3 -6.6 124.1 -13.1 124.1 -13.5 124.4 -13.7 124.7 -13.8 125.0 -14.0 125.3 -14.2 125.6 -14.5 125.9 -14.7 126.2 -14.8 126.5 -14.9 126.8 -15.0 127.1 -15.1 127.4 -15.2 127.7 -15.3 128.0 -15.3 128.3 -15.3 128.6 -15.4 128.9 -15.6 129.2 -15.7 129.5 -15.7 129.8 -15.7 130.1 -15.7 130.4 -15.7 130.7 -15.7 131.0 -15.8 131.3 -16.0 131.6 -16.1 131.9 -16.1 132.2 -16.1 132.5 -16.1 132.8 -16.1 133.1 -16.1 133.4 -16.1 133.7 -16.1 134.0 -16.1 134.3 -16.1 134.6 -16.1 134.9 -16.1 135.2 -16.1 135.5 -16.0 135.8 -15.8 136.1 -15.6 136.4 -15.4 136.6 -15.3 136.7 -14.5 136.9 -14.1 137.1 -13.3 137.3 -12.5 137.5 -11.7 137.7 -11.3 137.9 -10.5 138.1 -9.7 138.3 -8.9 138.5 -8.1 138.7 -7.3 138.9 -6.1 139.1 -5.3 139.3 -4.7 139.6 -4.3 139.8 -4.1 139.9 -3.3 140.1 -2.7 140.4 -2.3 140.6 -1.3 140.7 -0.5 140.9 1.1 141.1 1.9 141.3 8.1 141.3 8.3 141.0 8.4 140.7 8.6 140.4 8.9 140.1 9.1 139.8 9.15 139.65 9.1 139.5 9.1 139.2 9.1 138.9 9.1 138.6 9.1 138.3 9.1 138.0 8.9 137.7 8.8 137.4 8.7 137.1 8.7 136.8 8.7 136.5 8.7 136.2 8.6 135.9 8.5 135.6 8.4 135.3 8.3 135.0 8.3 134.7 8.3 134.4 8.1 134.1 8.0 133.8 7.9 133.5 7.9 133.2 7.9 132.9 7.9 132.6 7.9 132.3 7.9 132.0 7.9 131.7 7.9 131.4 7.8 131.1 7.7 130.8 7.6 130.5 7.5 130.2 7.5 129.9 7.5 129.6 7.5 129.3 7.5 129.0 7.5 128.7 7.5 128.4 7.5 128.1 7.5 127.8 7.5 127.5 7.5 127.2 7.5 126.9 7.45 126.7 5.9 126.7" fill="#000000" fill-rule="evenodd" stroke="none"/>
  </g>
</svg>
