<?xml version="1.0" encoding="UTF-8" standalone="no"?>
<svg xmlns:ffdec="https://www.free-decompiler.com/flash" xmlns:xlink="http://www.w3.org/1999/xlink" ffdec:objectType="shape" height="23.75px" width="66.2px" xmlns="http://www.w3.org/2000/svg">
  <g transform="matrix(1.0, 0.0, 0.0, 1.0, 33.65, 10.65)">
    <path d="M9.0 -9.4 L17.35 -9.4 17.55 -9.4 17.7 -9.35 17.8 -9.3 17.9 -9.3 20.5 -9.25 20.7 -9.2 20.85 -9.2 24.25 -9.15 24.45 -9.15 24.6 -9.1 24.8 -9.05 24.95 -8.95 25.05 -8.85 25.15 -8.75 25.25 -8.65 25.3 -8.55 25.35 -8.45 25.4 -8.4 25.45 -8.3 25.5 -8.2 25.55 -8.1 25.6 -8.0 25.6 -7.9 25.65 -7.8 25.7 -7.7 25.7 -7.65 25.75 -7.55 25.75 -7.45 25.75 -7.35 25.75 -7.25 25.75 -7.15 25.75 -7.05 25.75 -6.95 25.75 -6.9 25.75 -6.8 25.75 -6.7 25.75 -6.6 25.75 -6.5 25.75 -6.4 25.75 -6.3 25.75 -6.2 25.75 -6.15 25.75 -6.05 25.75 -5.95 25.75 -5.85 25.75 -5.75 25.75 -5.65 25.75 -5.55 25.75 -5.45 25.75 -5.4 25.75 -5.3 25.75 -5.2 25.75 -5.1 25.75 -5.0 25.75 -4.9 25.75 -4.8 25.75 -4.7 25.75 -4.65 25.75 -4.55 25.75 -4.45 25.75 -4.35 25.75 -4.25 25.75 -4.15 25.75 -4.05 25.75 -3.95 25.75 -3.9 25.75 -3.8 25.75 -3.7 25.75 -3.6 25.75 -3.5 25.75 -3.4 25.75 -3.3 25.75 -3.2 25.75 -3.15 25.7 -3.05 25.7 -2.95 25.65 -2.85 25.6 -2.75 25.6 -2.65 25.55 -2.55 25.45 -2.45 25.35 -2.4 25.3 -2.3 25.2 -2.2 25.15 -2.1 25.1 -2.0 25.0 -1.9 24.9 -1.8 24.85 -1.7 24.75 -1.65 24.6 -1.55 24.5 -1.45 24.35 -1.4 24.3 -1.35 24.1 -1.3 23.9 -1.2 23.8 -1.15 23.7 -1.1 23.6 -1.05 23.45 -1.05 23.3 -1.0 23.2 -0.95 23.05 -0.95 22.85 -0.9 21.1 -0.85 21.1 -0.75 21.05 -0.65 21.05 -0.55 21.0 -0.45 20.95 -0.4 20.9 -0.3 20.85 -0.2 20.8 -0.1 20.7 0.0 20.6 0.1 20.45 0.2 20.3 0.25 20.2 0.3 20.05 0.3 19.85 0.35 17.1 0.35 16.9 0.3 16.75 0.3 15.35 0.25 15.15 0.2 15.0 0.2 14.85 0.15 14.8 0.1 13.75 0.1 13.55 0.05 13.4 0.05 11.35 0.0 11.15 -0.05 11.0 -0.05 10.85 -0.1 10.8 -0.15 7.35 -0.15 7.3 -0.1 7.2 -0.05 7.05 -0.05 6.85 0.0 6.2 0.05 6.05 0.05 5.85 0.1 1.85 0.1 1.65 0.05 1.5 0.05 1.3 -0.05 1.1 -0.15 1.0 -0.2 0.9 -0.3 0.85 -0.4 0.8 -0.5 0.7 -0.6 0.7 -0.7 0.65 -0.8 0.6 -0.9 0.55 -0.95 0.4 -1.05 0.3 -1.15 0.25 -1.25 0.2 -1.35 0.1 -1.45 0.1 -1.55 0.05 -1.65 0.05 -1.7 0.0 -1.8 0.0 -1.9 0.0 -2.0 0.0 -2.1 0.0 -2.2 0.0 -2.3 0.0 -2.4 0.05 -2.45 0.05 -2.55 0.1 -2.65 0.1 -2.75 0.15 -2.85 0.2 -2.95 0.25 -3.05 0.3 -3.15 0.4 -3.2 0.45 -3.3 0.6 -3.4 0.7 -3.5 0.9 -3.6 1.05 -3.7 1.2 -3.8 1.3 -3.9 1.45 -3.95 1.55 -4.05 1.6 -4.05 1.8 -4.15 1.95 -4.2 2.05 -4.3 2.1 -4.3 2.25 -4.35 2.4 -4.4 2.6 -4.45 2.8 -4.55 2.95 -4.65 3.15 -4.7 3.3 -4.7 3.5 -4.75 3.7 -4.8 3.8 -4.8 3.9 -4.85 4.05 -4.9 4.1 -4.9 4.25 -4.95 4.4 -4.95 4.6 -5.0 4.85 -5.05 4.95 -5.15 5.05 -5.15 5.15 -5.2 5.35 -5.25 5.55 -5.3 5.65 -5.35 5.8 -5.4 6.0 -5.4 6.35 -5.45 6.45 -5.55 6.55 -5.55 6.65 -5.6 6.8 -5.65 7.05 -5.7 7.2 -5.8 7.4 -5.85 7.55 -5.9 7.7 -5.9 7.8 -5.95 7.65 -5.95 7.55 -6.0 7.4 -6.05 7.25 -6.05 7.05 -6.15 6.85 -6.2 6.8 -6.3 6.65 -6.3 6.45 -6.4 6.3 -6.45 6.15 -6.45 6.1 -6.5 5.75 -6.45 5.6 -6.4 5.55 -6.35 5.45 -6.3 5.3 -6.3 5.1 -6.25 3.85 -6.25 3.65 -6.3 3.5 -6.3 3.3 -6.4 3.1 -6.45 3.0 -6.55 2.9 -6.65 2.9 -6.7 -3.15 -6.7 -3.3 -6.7 -3.5 -6.65 -4.35 -6.65 -4.45 -6.6 -4.55 -6.55 -4.7 -6.55 -4.9 -6.5 -5.4 -6.45 -5.55 -6.45 -5.75 -6.4 -5.95 -6.4 -6.05 -6.35 -6.15 -6.3 -6.3 -6.3 -6.5 -6.25 -7.45 -6.2 -7.6 -6.15 -7.7 -6.1 -7.8 -6.05 -7.95 -6.05 -8.15 -6.0 -8.3 -5.95 -8.45 -5.95 -8.65 -5.9 -9.35 -5.9 -9.45 -5.85 -9.55 -5.8 -9.7 -5.8 -9.9 -5.75 -10.15 -5.7 -10.3 -5.7 -10.5 -5.65 -10.7 -5.65 -10.8 -5.6 -10.9 -5.55 -11.05 -5.55 -11.25 -5.5 -11.9 -5.45 -12.05 -5.45 -12.25 -5.4 -12.45 -5.4 -12.55 -5.35 -12.65 -5.3 -12.8 -5.3 -13.0 -5.25 -13.35 -5.2 -13.45 -5.15 -13.55 -5.1 -13.65 -5.05 -13.8 -5.05 -14.0 -5.0 -14.9 -4.95 -15.05 -4.95 -15.25 -4.9 -15.55 -4.85 -15.7 -4.8 -15.8 -4.75 -15.9 -4.7 -16.05 -4.7 -16.25 -4.65 -17.2 -4.6 -17.4 -4.5 -17.55 -4.4 -17.7 -4.35 -17.8 -4.3 -17.95 -4.3 -18.15 -4.25 -18.8 -4.2 -19.05 -4.15 -19.2 -4.1 -19.3 -4.05 -19.4 -4.05 -19.55 -4.0 -19.65 -3.95 -19.9 -3.9 -20.15 -3.8 -20.3 -3.7 -20.45 -3.65 -20.65 -3.55 -20.8 -3.55 -21.1 -3.45 -21.2 -3.4 -21.4 -3.3 -21.55 -3.2 -21.75 -3.15 -21.9 -3.05 -22.05 -3.0 -22.2 -2.95 -22.35 -2.85 -22.5 -2.75 -22.65 -2.65 -22.8 -2.55 -22.95 -2.45 -23.1 -2.4 -23.2 -2.3 -23.35 -2.2 -23.55 -2.1 -23.65 -2.0 -23.75 -1.9 -23.85 -1.8 -23.95 -1.7 -24.05 -1.65 -24.2 -1.55 -24.4 -1.45 -24.55 -1.45 -24.75 -1.4 -25.0 -1.4 -25.2 -1.45 -25.35 -1.45 -25.55 -1.55 -25.7 -1.65 -25.85 -1.7 -25.95 -1.8 -26.0 -1.9 -26.05 -2.0 -26.15 -2.1 -26.15 -2.2 -26.2 -2.3 -26.2 -2.4 -26.25 -2.45 -26.25 -2.55 -26.25 -2.65 -26.25 -2.75 -26.25 -2.85 -26.25 -2.95 -26.25 -3.05 -26.25 -3.15 -26.25 -3.2 -26.25 -3.3 -26.25 -3.4 -26.25 -3.5 -26.25 -3.6 -26.25 -3.7 -26.25 -3.8 -26.25 -3.9 -26.25 -3.95 -26.25 -4.05 -26.25 -4.15 -26.25 -4.25 -26.25 -4.35 -26.25 -4.45 -26.25 -4.55 -26.25 -4.65 -26.25 -4.7 -26.25 -4.8 -26.25 -4.9 -26.25 -5.0 -26.25 -5.1 -26.25 -5.2 -26.25 -5.3 -26.25 -5.4 -26.25 -5.45 -26.25 -5.55 -26.2 -5.65 -26.2 -5.75 -26.2 -5.85 -26.15 -5.95 -26.15 -6.05 -26.15 -6.15 -26.15 -6.2 -26.15 -6.3 -26.1 -6.4 -26.05 -6.5 -26.05 -6.6 -26.0 -6.7 -26.0 -6.8 -26.0 -6.9 -26.0 -6.95 -26.0 -7.05 -26.0 -7.15 -26.0 -7.25 -26.0 -7.35 -26.0 -7.45 -26.0 -7.55 -26.0 -7.65 -25.95 -7.7 -25.95 -7.8 -25.9 -7.9 -25.9 -8.0 -25.8 -8.1 -25.7 -8.2 -25.65 -8.3 -25.55 -8.4 -25.4 -8.45 -25.3 -8.55 -25.2 -8.55 -25.1 -8.6 -24.95 -8.65 -24.75 -8.65 -24.65 -8.65 -24.45 -8.65 -24.3 -8.6 -24.15 -8.55 -23.95 -8.45 -23.85 -8.35 -23.75 -8.25 -23.65 -8.15 -23.6 -8.05 -23.55 -7.95 -23.5 -7.9 -23.45 -7.8 -23.45 -7.7 -23.45 -7.6 -23.4 -7.5 -23.4 -7.4 -23.4 -7.3 -23.45 -7.2 -23.45 -7.15 -23.45 -7.05 -23.5 -6.95 -23.5 -6.85 -23.5 -6.75 -23.5 -6.65 -23.5 -6.55 -23.5 -6.45 -23.5 -6.4 -23.5 -6.3 -23.5 -6.2 -23.5 -6.1 -23.5 -6.0 -23.55 -5.9 -23.55 -5.8 -23.6 -5.7 -23.65 -5.65 -23.65 -5.55 -23.7 -5.45 -23.7 -5.35 -23.7 -5.25 -23.75 -5.15 -23.75 -5.05 -23.65 -5.05 -23.45 -5.15 -23.25 -5.25 -23.15 -5.3 -22.95 -5.4 -22.75 -5.45 -22.65 -5.55 -22.5 -5.65 -22.35 -5.75 -22.2 -5.8 -22.1 -5.85 -22.0 -5.9 -21.9 -5.9 -21.75 -5.95 -21.6 -5.95 -21.4 -6.0 -21.2 -6.05 -21.05 -6.15 -20.85 -6.25 -20.7 -6.3 -20.6 -6.35 -20.45 -6.4 -20.25 -6.4 -20.05 -6.45 -19.95 -6.55 -19.9 -6.55 -19.75 -6.6 -19.6 -6.65 -19.4 -6.65 -19.25 -6.7 -19.1 -6.7 -18.9 -6.75 -18.4 -6.8 -18.15 -6.9 -17.9 -7.0 -17.7 -7.05 -17.6 -7.1 -17.45 -7.15 -17.25 -7.15 -16.35 -7.2 -16.2 -7.3 -16.15 -7.3 -16.0 -7.35 -15.85 -7.4 -15.65 -7.4 -15.35 -7.45 -15.2 -7.45 -15.0 -7.5 -14.15 -7.55 -13.95 -7.65 -13.9 -7.65 -13.75 -7.7 -13.6 -7.7 -13.4 -7.75 -13.2 -7.8 -13.15 -7.8 -13.0 -7.85 -12.85 -7.9 -12.65 -7.9 -12.35 -7.95 -12.2 -7.95 -12.0 -8.0 -11.55 -8.05 -11.45 -8.05 -11.35 -8.1 -11.2 -8.15 -11.0 -8.15 -10.6 -8.2 -10.45 -8.2 -10.25 -8.25 -10.05 -8.3 -9.95 -8.3 -9.85 -8.35 -9.7 -8.4 -9.5 -8.4 -8.45 -8.45 -8.3 -8.55 -8.2 -8.55 -8.1 -8.6 -8.0 -8.65 -7.9 -8.65 -7.75 -8.7 -7.6 -8.7 -7.4 -8.75 -6.55 -8.8 -6.45 -8.8 -6.35 -8.85 -6.2 -8.9 -6.0 -8.9 -5.75 -8.95 -5.6 -8.95 -5.4 -9.0 -5.05 -9.05 -4.95 -9.05 -4.85 -9.1 -4.7 -9.15 -4.5 -9.15 -3.6 -9.2 -3.45 -9.2 -3.25 -9.2 -3.25 -9.25 5.25 -9.25 5.45 -9.2 5.6 -9.2 6.0 -9.15 6.15 -9.15 6.2 -9.15 6.35 -9.15 7.65 -9.2 7.8 -9.2 8.0 -9.25 8.45 -9.3 8.55 -9.3 8.65 -9.35 8.8 -9.4 9.0 -9.4 M8.45 -3.45 L8.25 -3.4 22.7 -3.45 22.8 -3.55 22.85 -3.55 23.05 -3.65 23.15 -3.7 23.2 -3.8 23.25 -3.9 23.25 -4.0 23.25 -4.1 23.25 -4.2 23.25 -4.3 23.25 -4.4 23.25 -4.45 23.25 -4.55 23.25 -4.65 23.25 -4.75 23.25 -4.85 23.25 -4.95 23.25 -5.05 23.25 -5.15 23.25 -5.2 23.25 -5.3 23.25 -5.4 23.25 -5.5 23.25 -5.6 23.25 -5.7 23.25 -5.8 23.25 -5.9 23.25 -5.95 23.25 -6.05 23.25 -6.15 23.25 -6.25 23.25 -6.35 23.25 -6.45 23.25 -6.55 23.25 -6.65 20.5 -6.65 20.3 -6.7 20.15 -6.7 17.75 -6.75 17.55 -6.8 17.4 -6.8 17.3 -6.85 17.2 -6.9 11.25 -6.9 11.3 -6.8 11.3 -6.7 11.3 -6.6 11.35 -6.5 11.35 -6.4 11.35 -6.3 11.35 -6.2 11.35 -6.15 11.35 -6.05 11.35 -5.95 11.35 -5.85 11.35 -5.75 11.35 -5.65 11.3 -5.55 11.3 -5.45 11.3 -5.4 11.25 -5.3 11.2 -5.2 11.15 -5.1 11.1 -5.0 11.0 -4.9 10.9 -4.8 10.8 -4.7 10.7 -4.65 10.55 -4.55 10.3 -4.45 10.2 -4.35 10.1 -4.25 9.95 -4.15 9.8 -4.1 9.6 -4.05 9.5 -3.95 9.35 -3.9 9.3 -3.85 9.2 -3.8 9.0 -3.75 8.85 -3.65 8.7 -3.55 8.55 -3.5 8.45 -3.45 M29.15 -8.3 L29.2 -8.2 29.25 -8.15 29.3 -8.05 29.35 -7.95 29.4 -7.85 29.45 -7.75 29.45 -7.65 29.55 -7.55 29.6 -7.45 29.65 -7.4 29.7 -7.3 29.7 -7.2 29.8 -7.1 29.85 -7.0 29.9 -6.9 29.95 -6.8 30.0 -6.7 30.05 -6.65 30.05 -6.55 30.1 -6.45 30.1 -6.35 30.2 -6.25 30.25 -6.15 30.3 -6.05 30.25 -5.95 30.25 -5.9 30.25 -5.8 30.25 -5.7 30.25 -5.6 30.25 -5.5 30.25 -5.4 30.25 -5.3 30.25 -5.2 30.25 -5.15 30.25 -5.05 30.25 -4.95 30.25 -4.85 30.25 -4.75 30.3 -4.65 30.3 -4.55 30.35 -4.45 30.35 -4.4 30.35 -4.3 30.35 -4.2 30.4 -4.1 30.45 -4.0 30.45 -3.9 30.5 -3.8 30.5 -3.7 30.5 -3.65 30.5 -3.55 30.5 -3.45 30.5 -3.35 30.5 -3.25 30.5 -3.15 30.5 -3.05 30.5 -2.95 30.5 -2.9 30.5 -2.8 30.55 -2.7 30.55 -2.6 30.6 -2.5 30.6 -2.4 30.6 -2.3 30.6 -2.2 30.6 -2.15 30.65 -2.05 30.7 -1.95 30.7 -1.85 30.75 -1.75 30.75 -1.65 30.75 -1.55 30.75 -1.45 30.75 -1.4 30.75 -1.3 30.75 -1.2 30.75 -1.1 30.75 -1.0 30.75 -0.9 30.75 -0.8 30.8 -0.7 30.8 -0.65 30.8 -0.55 30.85 -0.45 30.85 -0.35 30.85 -0.25 30.85 -0.15 30.85 -0.05 30.85 0.05 30.85 0.1 30.9 0.2 30.95 0.3 30.95 0.4 31.0 0.5 31.0 0.6 31.0 0.7 31.0 0.8 31.0 0.85 31.0 0.95 31.0 1.05 31.05 1.15 31.05 1.25 31.1 1.35 31.1 1.45 31.1 1.55 31.1 1.6 31.15 1.7 31.2 1.8 31.2 1.9 31.3 2.0 31.3 2.1 31.35 2.2 31.35 2.3 31.35 2.35 31.3 2.45 31.3 2.55 31.25 2.65 31.25 2.75 31.25 2.85 31.25 2.95 31.25 3.05 31.25 3.1 31.25 3.2 31.25 3.3 31.25 3.4 31.25 3.5 31.25 3.6 31.25 3.7 31.25 3.8 31.25 3.85 31.25 3.95 31.25 4.05 31.25 4.15 31.25 4.25 31.25 4.35 31.25 4.45 31.25 4.55 31.25 4.6 31.25 4.7 31.25 4.8 31.25 4.9 31.25 5.0 31.25 5.1 31.25 5.2 31.25 5.3 31.25 5.35 31.25 5.45 31.25 5.55 31.25 5.65 31.25 5.75 31.25 5.85 31.25 5.95 31.3 6.05 31.3 6.1 31.35 6.2 31.35 6.3 31.45 6.4 31.5 6.5 31.55 6.6 31.65 6.7 31.8 6.8 31.95 6.85 32.15 6.95 32.3 6.95 32.5 7.0 32.55 7.0 32.5 7.05 32.5 7.15 32.5 7.25 32.45 7.35 32.45 7.45 32.4 7.55 32.35 7.6 32.35 7.7 32.35 7.8 32.35 7.9 32.35 8.0 32.35 8.1 32.35 8.2 32.35 8.3 32.35 8.35 32.35 8.45 32.35 8.55 32.35 8.65 32.35 8.75 32.35 8.85 32.35 8.95 32.35 9.05 32.35 9.1 32.35 9.2 32.35 9.3 32.35 9.4 32.35 9.5 32.35 9.6 32.3 9.7 32.3 9.8 32.3 9.85 32.25 9.95 32.25 10.05 32.25 10.15 32.2 10.25 32.2 10.35 32.15 10.45 32.1 10.55 32.05 10.6 32.05 10.7 32.0 10.8 31.95 10.9 31.9 11.0 31.85 11.1 31.8 11.2 31.7 11.3 31.6 11.35 31.55 11.45 31.45 11.55 31.35 11.65 31.25 11.75 31.15 11.85 31.05 11.95 30.95 12.05 30.8 12.1 30.6 12.2 30.55 12.3 30.45 12.4 30.35 12.5 30.2 12.6 30.05 12.65 29.85 12.7 29.7 12.8 29.55 12.8 29.35 12.85 29.1 12.85 28.9 12.8 28.8 12.85 28.7 12.9 28.6 12.95 28.45 12.95 28.25 13.0 25.5 13.0 25.3 12.95 25.15 12.95 25.05 12.9 24.95 12.85 24.6 12.85 24.4 12.8 24.25 12.8 22.25 12.75 22.05 12.7 21.9 12.7 21.8 12.65 21.7 12.6 20.1 12.6 19.9 12.55 19.75 12.55 19.6 12.55 19.35 12.55 19.2 12.55 19.0 12.6 12.85 12.6 12.65 12.55 12.5 12.55 7.85 12.5 7.65 12.45 7.5 12.45 7.35 12.4 7.3 12.35 -2.3 12.35 -5.8 12.45 -7.35 12.45 -7.4 12.45 -7.55 12.45 -7.75 12.5 -10.8 12.55 -10.95 12.55 -11.15 12.6 -20.95 12.6 -21.05 12.65 -21.15 12.7 -21.3 12.7 -21.5 12.75 -25.55 12.8 -25.7 12.8 -25.9 12.85 -26.15 12.85 -26.2 12.9 -26.3 12.95 -26.45 12.95 -26.65 13.0 -28.05 13.05 -28.2 13.05 -28.4 13.1 -28.9 13.1 -29.1 13.05 -29.25 13.05 -29.45 12.95 -29.65 13.05 -29.8 13.05 -30.0 13.1 -30.2 13.05 -30.35 13.05 -30.55 12.95 -30.7 12.85 -30.85 12.8 -30.95 12.7 -31.0 12.6 -31.05 12.5 -31.75 12.5 -31.95 12.45 -32.1 12.45 -32.3 12.35 -32.45 12.3 -32.6 12.2 -32.7 12.1 -32.75 12.0 -32.9 11.9 -32.95 11.8 -33.05 11.7 -33.1 11.6 -33.15 11.55 -33.2 11.45 -33.2 11.35 -33.25 11.25 -33.3 11.15 -33.3 11.05 -33.35 10.95 -33.4 10.85 -33.45 10.8 -33.55 10.7 -33.55 10.6 -33.6 10.5 -33.65 10.4 -33.65 10.3 -33.65 10.2 -33.65 10.1 -33.65 10.05 -33.65 9.95 -33.65 9.85 -33.65 9.75 -33.65 9.65 -33.65 9.55 -33.65 9.45 -33.65 9.35 -33.65 9.3 -33.65 9.2 -33.65 9.1 -33.65 9.0 -33.65 8.9 -33.65 8.8 -33.65 8.7 -33.65 8.6 -33.65 8.55 -33.65 8.45 -33.65 8.35 -33.65 8.25 -33.65 8.15 -33.65 8.05 -33.65 7.95 -33.65 7.85 -33.65 7.8 -33.65 7.7 -33.6 7.6 -33.55 7.5 -33.55 7.4 -33.5 7.3 -33.5 7.2 -33.5 7.1 -33.5 7.05 -33.45 6.95 -33.45 6.85 -33.4 6.75 -33.4 6.65 -33.35 6.55 -33.3 6.45 -33.25 6.35 -33.25 6.3 -33.2 6.2 -33.2 6.1 -33.15 6.05 -33.15 5.95 -33.1 5.9 -33.05 5.8 -32.95 5.8 -32.75 5.85 -32.55 5.8 -32.4 5.8 -32.3 5.75 -32.2 5.7 -32.1 5.65 -31.95 5.55 -31.9 5.45 -31.8 5.35 -31.7 5.3 -31.65 5.2 -31.65 5.1 -31.6 5.0 -31.55 4.9 -31.55 4.8 -31.5 4.7 -31.5 4.6 -31.5 4.55 -31.5 4.45 -31.5 4.35 -31.5 4.25 -31.5 4.15 -31.5 4.05 -31.5 3.95 -31.5 3.85 -31.5 3.8 -31.5 3.7 -31.5 3.6 -31.5 3.5 -31.5 3.4 -31.5 3.3 -31.5 3.2 -31.5 3.1 -31.5 3.05 -31.5 2.95 -31.5 2.85 -31.5 2.75 -31.5 2.65 -31.5 2.55 -31.5 2.45 -31.5 2.35 -31.5 2.3 -31.5 2.2 -31.5 2.1 -31.5 2.0 -31.5 1.9 -31.5 1.8 -31.5 1.7 -31.5 1.6 -31.5 1.55 -31.5 1.45 -31.5 1.35 -31.5 1.25 -31.5 1.15 -31.5 1.05 -31.5 0.95 -31.5 0.85 -31.5 0.8 -31.5 0.7 -31.5 0.6 -31.5 0.5 -31.5 0.4 -31.5 0.3 -31.5 0.2 -31.5 0.1 -31.5 0.05 -31.5 -0.05 -31.45 -0.15 -31.45 -0.25 -31.4 -0.35 -31.4 -0.45 -31.4 -0.55 -31.4 -0.65 -31.4 -0.7 -31.4 -0.8 -31.4 -0.9 -31.4 -1.0 -31.4 -1.1 -31.4 -1.2 -31.4 -1.3 -31.4 -1.4 -31.4 -1.45 -31.4 -1.55 -31.4 -1.65 -31.4 -1.75 -31.4 -1.85 -31.4 -1.95 -31.4 -2.05 -31.4 -2.15 -31.4 -2.2 -31.4 -2.3 -31.4 -2.4 -31.4 -2.5 -31.4 -2.6 -31.4 -2.7 -31.4 -2.8 -31.35 -2.85 -31.3 -2.95 -31.25 -3.05 -31.2 -3.15 -31.1 -3.2 -31.05 -3.3 -30.95 -3.4 -30.95 -3.5 -30.9 -3.6 -30.9 -3.7 -30.85 -3.8 -30.8 -3.9 -30.8 -3.95 -30.85 -4.05 -30.9 -4.15 -30.9 -4.25 -30.9 -4.35 -30.9 -4.45 -30.85 -4.55 -30.8 -4.65 -30.8 -4.7 -30.7 -4.8 -30.65 -4.9 -30.65 -5.0 -30.6 -5.1 -30.55 -5.2 -30.5 -5.3 -30.45 -5.4 -30.45 -5.45 -30.4 -5.55 -30.4 -5.65 -30.35 -5.75 -30.3 -5.85 -30.3 -5.95 -30.25 -6.05 -30.2 -6.15 -30.2 -6.2 -30.2 -6.3 -30.15 -6.4 -30.15 -6.5 -30.05 -6.6 -30.05 -6.7 -30.0 -6.8 -29.95 -6.9 -29.95 -6.95 -29.9 -7.05 -29.9 -7.15 -29.9 -7.25 -29.9 -7.35 -29.9 -7.45 -29.85 -7.55 -29.8 -7.65 -29.8 -7.7 -29.75 -7.8 -29.7 -7.9 -29.7 -8.0 -29.65 -8.1 -29.65 -8.2 -29.65 -8.3 -29.65 -8.4 -29.55 -8.45 -29.45 -8.55 -29.4 -8.65 -29.4 -8.75 -29.35 -8.85 -29.3 -8.95 -29.3 -9.05 -29.25 -9.15 -29.2 -9.2 -29.15 -9.3 -29.05 -9.4 -29.05 -9.5 -29.0 -9.6 -28.95 -9.7 -28.95 -9.8 -28.9 -9.9 -28.9 -9.95 -28.85 -10.05 -28.8 -10.15 -28.75 -10.25 -28.7 -10.35 -28.7 -10.45 -28.65 -10.55 -28.55 -10.65 -28.5 -10.65 -28.5 -10.55 -28.5 -10.45 -28.5 -10.4 -28.55 -10.3 -28.55 -10.2 -28.6 -10.1 -28.65 -10.0 -28.65 -9.9 -28.7 -9.8 -28.8 -9.7 -28.8 -9.65 -28.8 -9.55 -28.8 -9.45 -28.75 -9.35 -28.75 -9.25 -28.75 -9.15 -28.75 -9.05 -28.75 -8.95 -28.75 -8.9 -28.75 -8.8 -28.75 -8.7 -28.75 -8.6 -28.75 -8.5 -28.75 -8.4 -28.75 -8.3 -28.75 -8.2 -28.75 -8.15 -28.75 -8.05 -28.75 -7.95 -28.75 -7.85 -28.7 -7.75 -28.7 -7.65 -28.65 -7.55 -28.65 -7.45 -28.6 -7.4 -28.55 -7.3 -28.55 -7.2 -28.55 -7.1 -28.5 -7.0 -28.5 -6.9 -28.45 -6.8 -28.4 -6.7 -28.35 -6.65 -28.3 -6.55 -28.3 -6.45 -28.3 -6.35 -28.25 -6.25 -28.25 -6.15 -28.2 -6.05 -28.2 -5.95 -28.15 -5.9 -28.15 -5.8 -28.15 -5.7 -28.15 -5.6 -28.15 -5.5 -28.15 -5.4 -28.15 -5.3 -28.15 -5.2 -28.15 -5.15 -28.15 -5.05 -28.15 -4.95 -28.15 -4.85 -28.15 -4.75 -28.15 -4.65 -28.15 -4.55 -28.15 -4.45 -28.15 -4.4 -28.15 -4.3 -28.2 -4.2 -28.2 -4.1 -28.25 -4.0 -28.25 -3.9 -28.25 -3.8 -28.25 -3.7 -28.25 -3.65 -28.25 -3.55 -28.25 -3.45 -28.25 -3.35 -28.25 -3.25 -28.25 -3.15 -28.25 -3.05 -28.3 -2.95 -28.3 -2.9 -28.3 -2.8 -28.35 -2.7 -28.4 -2.6 -28.4 -2.5 -28.4 -2.4 -28.45 -2.3 -28.45 -2.2 -28.45 -2.15 -28.5 -2.05 -28.55 -1.95 -28.6 -1.85 -28.65 -1.75 -28.7 -1.65 -28.75 -1.55 -28.8 -1.45 -28.8 -1.4 -28.8 -1.3 -28.85 -1.2 -28.9 -1.1 -28.95 -1.0 -29.0 -0.9 -29.05 -0.8 -29.15 -0.7 -29.15 -0.65 -29.2 -0.55 -29.2 -0.45 -29.25 -0.35 -29.3 -0.25 -29.3 -0.15 -29.3 -0.1 -29.3 -0.05 -29.25 0.05 -29.2 0.1 -29.2 0.2 -29.2 0.3 -29.15 0.4 -29.15 0.5 -29.15 0.6 -29.15 0.7 -29.15 0.8 -29.15 0.85 -29.15 0.95 -29.15 1.05 -29.15 1.15 -29.15 1.25 -29.15 1.35 -29.15 1.45 -29.15 1.55 -29.15 1.6 -28.9 1.45 Q-27.65 0.7 -27.65 2.3 L-27.75 2.85 -27.95 2.8 -28.15 2.8 -28.3 2.8 -29.25 3.0 -29.25 3.05 -29.25 3.1 -29.25 3.2 -29.25 3.3 -29.25 3.4 -29.25 3.5 -29.25 3.6 -29.25 3.7 -29.25 3.8 -29.25 3.85 -29.25 3.95 -29.25 4.05 -29.25 4.15 -29.25 4.25 -29.25 4.35 -29.25 4.45 -29.25 4.55 -29.25 4.6 -29.25 4.7 -29.25 4.8 -29.25 4.9 -29.25 5.0 -29.25 5.1 -29.25 5.2 -29.3 5.3 -29.3 5.35 -29.3 5.45 -29.35 5.55 -29.4 5.65 -29.45 5.75 -29.5 5.85 -29.6 5.95 -29.65 6.0 -29.65 6.1 -29.65 6.2 -29.65 6.3 -29.6 6.35 -29.55 6.45 -29.55 6.55 -29.55 6.65 -29.5 6.75 -29.5 6.85 -29.5 6.95 -29.2 6.95 -28.75 7.0 -28.9 7.4 -29.1 7.8 -27.6 8.85 -27.15 9.1 -25.8 9.1 -25.1 9.0 -23.9 9.05 -23.05 8.65 -22.55 8.45 Q-22.1 8.45 -21.9 8.7 L-21.35 8.55 Q-20.85 8.55 -20.6 9.05 L-20.55 9.1 -17.05 8.3 Q-15.6 8.3 -15.2 8.85 L-15.15 9.0 -15.1 9.0 -13.25 9.0 -13.1 9.0 -10.4 8.85 Q-6.55 8.7 -4.4 8.85 L-8.25 8.85 -8.45 8.85 -8.6 8.9 -8.7 8.95 -8.8 8.95 -9.75 9.0 -9.95 9.05 -10.1 9.05 -10.9 9.1 -11.1 9.1 -11.25 9.15 -11.4 9.2 -11.45 9.2 -12.65 9.25 -12.15 9.25 -11.95 9.3 -11.8 9.3 -10.4 9.35 -10.2 9.35 -10.05 9.4 -9.95 9.45 -9.9 9.45 -9.5 9.5 -9.3 9.55 -9.15 9.55 -6.9 9.6 -6.7 9.6 -6.55 9.65 -6.45 9.7 -6.4 9.7 -5.9 9.75 -5.7 9.8 -5.55 9.8 -4.85 9.8 -4.7 9.8 -4.5 9.75 -3.95 9.7 -3.9 9.7 -3.75 9.65 -3.6 9.6 -3.4 9.6 -2.5 9.55 -2.35 9.55 -2.15 9.5 3.1 9.5 7.95 9.5 10.8 9.45 10.85 9.45 11.0 9.4 11.15 9.35 11.35 9.35 13.4 9.3 13.55 9.3 13.75 9.25 14.2 9.2 14.3 9.2 14.4 9.15 14.55 9.1 14.75 9.1 15.5 9.05 15.55 9.05 15.35 9.0 14.6 8.95 14.55 8.95 14.45 8.9 14.3 8.85 14.1 8.85 13.85 8.8 13.7 8.8 13.5 8.75 6.3 8.75 6.65 8.7 7.9 8.5 12.35 7.85 Q23.75 6.3 23.75 7.85 L23.75 7.95 26.5 7.8 28.6 7.8 28.9 7.8 29.25 7.75 29.25 7.7 29.15 7.7 28.95 7.6 28.8 7.55 28.65 7.45 28.55 7.35 28.5 7.25 28.45 7.15 28.35 7.05 28.35 6.95 28.3 6.85 28.3 6.8 28.25 6.7 28.25 6.6 28.25 6.5 28.25 6.4 28.25 6.3 28.25 6.2 28.25 6.1 28.25 6.05 28.25 5.95 28.25 5.85 28.25 5.75 28.25 5.65 28.3 5.55 28.3 5.45 28.35 5.35 28.35 5.3 28.35 5.2 28.4 5.1 28.45 5.0 28.45 4.9 28.55 4.8 28.6 4.7 28.65 4.6 28.7 4.55 28.7 4.5 28.8 4.45 28.7 4.35 28.7 4.25 28.65 4.15 28.6 4.05 28.6 3.95 28.6 3.85 28.6 3.8 28.6 3.7 28.6 3.6 28.6 3.5 28.6 3.4 28.6 3.3 28.65 3.2 28.7 3.1 28.7 3.05 28.8 2.95 28.85 2.85 28.9 2.75 29.0 2.65 29.0 2.6 29.05 2.55 29.05 2.45 29.1 2.35 29.1 2.25 29.2 2.15 29.25 2.05 29.3 1.95 29.35 1.85 29.35 1.8 29.35 1.7 29.35 1.6 29.35 1.5 29.4 1.4 29.45 1.3 29.5 1.2 29.55 1.1 29.6 1.05 29.6 0.95 29.6 0.85 29.6 0.75 29.6 0.65 29.6 0.55 29.65 0.45 29.7 0.35 29.7 0.3 29.7 0.2 29.7 0.1 29.65 0.0 29.6 -0.1 29.6 -0.2 29.55 -0.3 29.5 -0.4 29.45 -0.45 29.4 -0.55 29.35 -0.65 29.35 -0.75 29.3 -0.85 29.2 -0.95 29.2 -1.05 29.15 -1.15 29.1 -1.2 29.1 -1.3 29.1 -1.4 29.1 -1.5 29.05 -1.6 29.05 -1.7 29.0 -1.8 28.95 -1.9 28.9 -1.95 28.85 -2.05 28.8 -2.15 28.75 -2.25 28.7 -2.35 28.6 -2.45 28.6 -2.55 28.55 -2.65 28.5 -2.7 28.45 -2.8 28.35 -2.9 28.35 -3.0 28.3 -3.1 28.3 -3.2 28.25 -3.3 28.25 -3.4 28.2 -3.45 28.15 -3.55 28.1 -3.65 28.1 -3.75 28.1 -3.85 28.1 -3.95 28.1 -4.05 28.1 -4.15 28.1 -4.2 28.1 -4.3 28.1 -4.4 28.1 -4.5 28.1 -4.6 28.1 -4.7 28.1 -4.8 28.1 -4.9 28.1 -4.95 28.1 -5.05 28.1 -5.15 28.1 -5.25 28.1 -5.35 28.1 -5.45 28.1 -5.55 28.1 -5.65 28.1 -5.7 28.1 -5.8 28.1 -5.9 28.1 -6.0 28.1 -6.1 28.1 -6.2 28.1 -6.3 28.15 -6.4 28.2 -6.45 28.2 -6.55 28.3 -6.65 28.35 -6.75 28.4 -6.85 28.45 -6.95 28.5 -7.05 28.55 -7.15 28.6 -7.2 28.6 -7.3 28.7 -7.4 28.7 -7.5 28.75 -7.6 28.8 -7.7 28.8 -7.8 28.85 -7.9 28.85 -7.95 28.85 -8.05 28.85 -8.15 28.85 -8.25 28.85 -8.35 28.85 -8.45 28.85 -8.55 28.9 -8.65 28.95 -8.7 29.0 -8.6 29.05 -8.5 29.1 -8.4 29.15 -8.3 M25.25 9.35 L25.45 9.35 25.6 9.4 25.8 9.45 25.9 9.5 28.75 9.5 28.95 9.55 29.05 9.55 29.3 9.45 29.35 9.35 29.35 9.3 29.35 9.2 27.0 9.25 26.8 9.3 26.65 9.3 24.95 9.35 25.25 9.35 M6.3 8.75 L1.7 9.45 -3.25 8.95 -4.4 8.85 -0.35 8.8 -0.2 8.8 0.0 8.75 6.3 8.75" fill="#000000" fill-opacity="0.29803923" fill-rule="evenodd" stroke="none"/>
    <path d="M3.7 -2.15 Q4.3 -0.75 4.2 0.6 L4.2 0.95 -1.65 0.95 -1.8 0.95 -2.15 0.95 -4.3 0.95 -4.35 0.9 -4.6 0.6 -4.65 0.15 -4.3 -0.75 -4.3 -0.9 -4.3 -1.1 -4.3 -1.3 -4.15 -1.65 -3.45 -3.3 -3.05 -4.25 -3.05 -4.45 -2.85 -5.15 -2.5 -6.05 -2.4 -6.25 -2.1 -6.6 -1.65 -7.0 -1.4 -7.05 -1.05 -7.1 Q1.5 -7.55 2.45 -5.35 L3.25 -3.6 Q3.3 -2.85 3.7 -2.15" fill="#ffcc00" fill-rule="evenodd" stroke="none"/>
  </g>
</svg>
