<?xml version="1.0" encoding="UTF-8" standalone="no"?>
<svg xmlns:ffdec="https://www.free-decompiler.com/flash" xmlns:xlink="http://www.w3.org/1999/xlink" ffdec:objectType="shape" height="8.9px" width="60.5px" xmlns="http://www.w3.org/2000/svg">
  <g transform="matrix(1.0, 0.0, 0.0, 1.0, 30.85, 7.95)">
    <path d="M3.5 -6.8 L3.6 -6.6 3.7 -6.4 3.75 -6.25 3.75 -6.15 11.85 -6.15 19.8 -6.55 19.9 -6.45 20.2 -6.25 29.65 -6.25 29.6 -6.15 29.3 -5.8 29.1 -5.65 29.3 -5.3 29.3 -5.15 29.25 -4.95 29.15 -4.75 29.05 -4.55 Q28.7 -4.25 28.2 -4.25 L21.4 -4.25 Q15.8 -3.65 10.2 -4.3 L-3.05 -4.35 -3.25 -4.15 -3.5 -4.1 -3.95 -4.0 -4.5 -4.1 -4.7 -4.3 -4.7 -4.35 -22.95 -4.45 -24.4 -4.5 -24.95 -4.55 -25.05 -4.6 -25.8 -4.65 -26.1 -4.75 -26.15 -4.9 -28.05 -5.1 -28.95 -5.3 -29.05 -5.4 -29.2 -5.85 -29.2 -6.0 -29.2 -6.15 -29.1 -6.35 -29.0 -6.55 -28.7 -6.7 -28.4 -6.85 -28.05 -6.95 -25.2 -6.9 -23.95 -6.45 -23.45 -6.4 -16.75 -6.35 -16.7 -6.55 -16.5 -6.7 -16.2 -6.85 -15.85 -6.9 -15.85 -6.95 -10.7 -6.85 Q-10.05 -6.8 -9.4 -6.4 L-9.25 -6.25 -4.75 -6.25 -4.4 -6.65 -3.55 -7.4 -3.3 -7.65 Q-3.15 -7.7 -3.05 -7.8 L-2.5 -7.8 -2.5 -7.85 1.5 -7.65 Q2.65 -7.4 3.5 -6.8 M4.1 -2.8 Q10.2 -2.4 16.25 -2.6 L16.3 -2.6 15.9 -1.65 15.8 -1.3 16.05 -1.3 16.2 -1.4 16.3 -1.55 16.4 -1.8 16.55 -2.05 16.8 -2.1 17.35 -2.4 17.4 -2.55 17.4 -2.75 17.6 -2.85 17.85 -3.05 18.1 -3.2 18.55 -3.25 20.2 -3.45 20.2 -3.55 25.4 -3.4 Q26.75 -3.4 27.4 -2.6 L27.5 -2.5 28.2 -2.25 28.7 -2.1 28.9 -1.95 29.1 -1.8 29.25 -1.55 29.3 -1.4 29.3 -1.25 29.3 -1.1 29.15 -0.75 28.9 -0.35 28.75 -0.25 25.8 0.1 25.85 0.2 25.9 0.45 25.9 0.6 25.9 0.8 25.85 0.95 15.9 0.95 10.85 0.7 10.55 0.6 10.5 0.45 10.4 0.2 10.4 0.1 9.75 0.15 9.2 -0.05 8.8 -0.35 8.7 -0.5 Q6.75 -1.4 4.35 -0.55 L3.75 -0.65 3.5 -0.9 3.15 -1.25 3.0 -1.4 2.95 -1.55 2.95 -1.8 2.95 -2.05 3.05 -2.1 3.15 -2.3 3.5 -2.6 3.65 -2.65 4.1 -2.75 4.1 -2.8 M-30.7 -0.9 L-27.55 -1.5 -27.8 -1.55 -27.9 -1.8 -28.05 -2.15 -27.85 -2.85 -27.6 -3.05 -27.35 -3.15 -26.85 -3.25 -19.5 -3.2 -19.0 -3.1 -18.8 -2.9 -18.6 -2.8 -18.4 -2.4 -18.4 -2.25 -18.4 -2.15 -10.4 -3.0 -9.0 -2.9 Q-8.4 -2.9 -7.95 -2.55 L-7.9 -2.4 -1.95 -2.6 -1.75 -2.4 -1.55 -2.25 -1.4 -2.05 -1.35 -1.75 -1.35 -1.55 -1.4 -1.35 -1.45 -1.15 -1.55 -1.05 Q-4.7 0.0 -8.35 0.45 L-10.95 0.7 -11.3 0.95 -27.4 0.95 Q-28.3 0.5 -29.7 0.45 L-30.65 0.4 -30.75 0.15 -30.85 -0.25 -30.7 -0.9" fill="#ffcc00" fill-rule="evenodd" stroke="none"/>
  </g>
</svg>
