<?xml version="1.0" encoding="UTF-8" standalone="no"?>
<svg xmlns:ffdec="https://www.free-decompiler.com/flash" xmlns:xlink="http://www.w3.org/1999/xlink" ffdec:objectType="shape" height="23.35px" width="61.95px" xmlns="http://www.w3.org/2000/svg">
  <g transform="matrix(1.0, 0.0, 0.0, 1.0, 31.55, 12.05)">
    <path d="M2.0 -0.65 L2.6 -0.75 2.6 -0.6 2.0 -0.65 M29.7 0.8 L29.6 0.95 28.75 0.95 28.75 0.05 28.9 -0.05 28.95 0.0 29.1 0.0 29.0 0.1 29.0 0.2 29.4 0.55 29.4 0.15 29.7 0.05 29.7 0.8 M27.85 0.35 L27.9 0.25 28.05 0.35 27.85 0.35 M16.4 0.35 Q16.45 0.2 16.65 0.15 16.75 0.45 17.6 0.45 L18.15 0.4 18.25 0.45 Q18.75 0.45 18.9 0.1 L24.15 -0.05 24.65 0.1 24.1 0.0 23.9 0.0 21.35 0.35 21.3 0.45 21.15 0.45 16.4 0.35 M14.15 0.4 L14.05 0.35 13.65 0.25 14.0 0.1 14.15 0.4 M10.15 0.45 Q10.15 -0.05 10.8 -0.05 L11.35 0.1 11.0 0.1 10.45 0.25 10.15 0.65 10.15 0.45 M3.75 0.05 L3.65 0.0 3.65 -0.15 3.75 0.05 M1.45 0.25 L0.85 0.35 0.75 0.45 0.7 0.45 -0.55 0.45 1.2 0.2 1.45 0.25 M-26.5 0.45 L-26.4 0.25 -26.35 -0.2 -26.05 0.0 -25.65 -0.05 -25.1 0.0 -23.05 -0.25 -22.4 -0.35 -20.9 -0.5 -20.85 -0.5 -18.5 -0.25 -18.25 -0.3 -18.15 0.15 -19.6 0.35 -19.75 0.45 -19.8 0.45 Q-22.15 0.65 -24.65 0.35 L-24.8 0.35 -24.9 0.35 -25.0 0.4 -26.5 0.45 M-29.0 0.95 L-29.3 0.95 -29.3 0.9 -29.3 0.8 -29.4 0.6 -29.5 0.35 -29.5 0.15 -29.5 0.05 -29.6 0.0 -29.5 -0.05 Q-29.45 0.2 -28.65 0.25 L-29.0 0.85 -29.0 0.95 M-28.6 0.2 L-28.6 0.1 -28.25 0.0 -28.15 0.25 -28.6 0.2 M-27.05 0.15 L-26.8 0.1 -26.75 0.1 -26.75 0.2 -27.05 0.15 M-16.2 -0.5 L-16.25 -0.5 -16.2 -0.65 -16.2 -0.5 M-10.5 -0.3 L-10.45 -0.4 -10.4 -0.4 -10.5 -0.3 M-11.15 -0.15 L-11.15 -0.05 -11.05 -0.05 -11.3 0.0 -11.6 -0.15 -11.3 -0.15 -11.15 -0.15 M-3.6 -0.25 L-3.0 -0.3 -2.15 -0.35 -3.0 -0.05 -3.6 -0.05 -3.6 -0.25 M-5.75 0.45 L-5.2 -0.2 -4.75 -0.25 -4.8 0.35 -4.8 0.45 -5.75 0.45 M-10.45 0.95 L-10.65 0.95 -10.45 0.8 -10.4 0.7 -10.45 0.85 -10.45 0.95 M-7.45 0.25 L-7.2 -0.15 -6.8 0.25 -7.45 0.25" fill="#504627" fill-rule="evenodd" stroke="none"/>
    <path d="M28.05 0.35 L28.15 0.4 28.15 0.45 Q28.15 0.8 28.4 0.95 L28.05 0.95 28.05 0.8 28.1 0.75 28.1 0.7 28.15 0.65 28.15 0.6 28.1 0.6 27.95 0.5 27.7 0.5 27.75 0.65 27.75 0.7 27.7 0.75 27.7 0.8 27.65 0.85 27.45 0.9 27.25 0.95 26.85 0.95 27.15 0.45 27.35 0.45 27.85 0.35 28.05 0.35 M14.65 0.8 L15.1 0.85 Q15.9 0.85 16.4 0.35 L21.15 0.45 21.3 0.45 21.35 0.35 23.9 0.0 24.1 0.0 24.65 0.1 24.75 0.15 25.5 0.45 25.65 0.45 25.7 0.65 25.85 0.85 24.3 0.9 24.1 0.9 24.0 0.85 23.9 0.9 23.85 0.9 15.65 0.85 15.55 0.9 15.5 0.9 15.15 0.9 14.75 0.85 14.7 0.85 14.65 0.8 M8.8 0.45 L8.75 0.45 8.8 0.5 Q8.6 0.8 8.75 0.95 L7.5 0.95 7.5 0.8 7.55 0.75 7.55 0.7 7.65 0.65 7.65 0.6 7.55 0.6 7.45 0.5 7.15 0.5 7.3 0.65 7.3 0.7 7.25 0.75 7.15 0.8 7.1 0.85 6.95 0.9 6.75 0.95 6.35 0.95 6.1 0.95 5.9 0.95 5.4 0.85 3.85 0.9 3.65 0.9 3.5 0.85 3.35 0.9 3.3 0.9 -3.0 0.9 -0.55 0.45 0.7 0.45 0.75 0.45 0.85 0.35 1.45 0.25 2.65 0.45 Q3.3 0.45 3.5 0.1 L3.65 0.0 3.75 0.05 3.75 0.1 Q4.3 0.6 5.2 0.6 L5.7 0.25 6.2 0.25 6.9 0.35 8.85 0.25 8.8 0.45 M-18.15 0.15 Q-17.8 0.75 -17.15 0.75 -16.8 0.75 -16.6 0.45 L-16.45 0.45 -14.35 0.45 -12.9 0.45 Q-12.45 0.45 -12.05 0.95 L-12.95 0.95 -12.95 0.8 -12.95 0.7 -12.9 0.65 -12.9 0.6 -12.95 0.6 -13.0 0.5 -13.3 0.5 -13.15 0.65 -13.15 0.7 -13.2 0.75 -13.3 0.8 -13.4 0.85 -13.45 0.9 -13.7 0.95 -14.5 0.95 -15.1 0.85 -16.65 0.9 -16.9 0.9 -17.05 0.85 -17.1 0.9 -17.15 0.9 -25.3 0.85 -25.35 0.9 -25.45 0.9 -25.75 0.9 -26.2 0.85 -26.3 0.85 -26.3 0.8 -26.55 0.8 -26.6 0.75 -26.75 0.75 -26.75 0.7 -26.8 0.7 -27.2 0.65 -27.75 0.6 -27.85 0.6 -27.85 0.7 -27.85 0.75 -27.95 0.95 -29.0 0.95 -29.0 0.85 -28.65 0.25 -28.6 0.25 -28.6 0.2 -28.15 0.25 -27.1 0.15 -27.05 0.15 -26.75 0.2 -26.75 0.7 -26.5 0.45 -25.0 0.4 -24.9 0.35 -24.8 0.35 -24.65 0.35 Q-22.15 0.65 -19.8 0.45 L-19.75 0.45 -19.6 0.35 -18.15 0.15 M-4.8 0.45 L-4.3 0.9 -4.85 0.85 -5.0 0.9 -5.05 0.9 -5.3 0.9 -5.65 0.85 -5.75 0.85 -5.8 0.8 -6.05 0.8 -6.2 0.75 -8.55 0.65 -9.2 0.6 -9.25 0.6 -9.25 0.75 -9.35 0.95 -10.45 0.95 -10.45 0.85 -10.4 0.7 Q-9.75 0.2 -9.2 0.2 L-7.95 0.45 Q-7.65 0.45 -7.45 0.25 L-6.8 0.25 Q-6.6 0.45 -6.25 0.45 L-5.75 0.45 -4.8 0.45" fill="#635830" fill-rule="evenodd" stroke="none"/>
    <path d="M28.05 0.95 L27.25 0.95 27.45 0.9 27.65 0.85 27.7 0.8 27.7 0.75 27.75 0.7 27.75 0.65 27.7 0.5 27.95 0.5 28.1 0.6 28.15 0.6 28.15 0.65 28.1 0.7 28.1 0.75 28.05 0.8 28.05 0.95 M25.85 0.85 L26.05 0.95 11.05 0.95 11.15 0.75 11.15 0.6 11.35 0.6 11.95 0.65 14.45 0.75 14.5 0.8 14.65 0.8 14.7 0.85 14.75 0.85 15.15 0.9 15.5 0.9 15.55 0.9 15.65 0.85 23.85 0.9 23.9 0.9 24.0 0.85 24.1 0.9 24.3 0.9 25.85 0.85 M-3.0 0.9 L3.3 0.9 3.35 0.9 3.5 0.85 3.65 0.9 3.85 0.9 5.4 0.85 5.9 0.95 -3.6 0.95 -3.0 0.9 M6.75 0.95 L6.95 0.9 7.1 0.85 7.15 0.8 7.25 0.75 7.3 0.7 7.3 0.65 7.15 0.5 7.45 0.5 7.55 0.6 7.65 0.6 7.65 0.65 7.55 0.7 7.55 0.75 7.5 0.8 7.5 0.95 6.75 0.95 M-12.95 0.95 L-13.7 0.95 -13.45 0.9 -13.4 0.85 -13.3 0.8 -13.2 0.75 -13.15 0.7 -13.15 0.65 -13.3 0.5 -13.0 0.5 -12.95 0.6 -12.9 0.6 -12.9 0.65 -12.95 0.7 -12.95 0.8 -12.95 0.95 M-14.5 0.95 L-27.95 0.95 -27.85 0.75 -27.85 0.7 -27.85 0.6 -27.75 0.6 -27.2 0.65 -26.8 0.7 -26.75 0.7 -26.75 0.75 -26.6 0.75 -26.55 0.8 -26.3 0.8 -26.3 0.85 -26.2 0.85 -25.75 0.9 -25.45 0.9 -25.35 0.9 -25.3 0.85 -17.15 0.9 -17.1 0.9 -17.05 0.85 -16.9 0.9 -16.65 0.9 -15.1 0.85 -14.5 0.95 M-4.3 0.9 L-4.0 0.95 -9.35 0.95 -9.25 0.75 -9.25 0.6 -9.2 0.6 -8.55 0.65 -6.2 0.75 -6.05 0.8 -5.8 0.8 -5.75 0.85 -5.65 0.85 -5.3 0.9 -5.05 0.9 -5.0 0.9 -4.85 0.85 -4.3 0.9" fill="#706436" fill-rule="evenodd" stroke="none"/>
    <path d="M8.8 0.5 L8.75 0.45 8.8 0.45 8.8 0.5" fill="#8b8b8b" fill-rule="evenodd" stroke="none"/>
    <path d="M2.45 -10.35 L3.25 -10.35 3.65 -10.25 3.7 -10.2 3.75 -10.15 3.75 -10.1 3.75 -10.0 3.75 -9.95 3.75 -9.85 3.75 -9.8 3.7 -9.65 3.65 -9.65 3.5 -9.55 3.35 -9.55 3.25 -9.55 3.2 -9.65 3.15 -9.8 3.1 -9.85 3.0 -9.95 3.0 -10.0 2.95 -10.05 2.85 -10.1 2.7 -10.25 2.45 -10.35 M2.05 -9.5 L1.65 -9.5 0.2 -9.5 0.3 -9.6 0.35 -9.65 1.9 -9.65 2.0 -9.6 2.05 -9.5 M-4.85 -9.45 L-5.0 -9.5 -5.0 -9.55 -5.05 -9.6 -5.05 -9.65 -5.1 -9.65 -5.1 -9.75 -5.15 -9.8 -5.15 -9.85 -5.15 -9.95 -5.1 -10.0 -5.1 -10.05 -5.05 -10.1 -4.25 -10.3 -4.15 -10.3 -1.8 -10.3 -1.9 -10.25 -1.9 -10.15 -2.15 -10.2 -2.5 -10.2 -4.55 -10.25 -4.65 -10.2 -4.75 -10.2 -4.8 -10.15 -4.9 -10.05 -5.0 -10.05 -5.0 -10.0 -5.05 -9.95 -5.05 -9.65 -5.0 -9.6 -4.9 -9.55 -4.9 -9.5 -4.85 -9.45 M-8.6 -9.65 L-8.75 -9.65 -8.8 -9.6 -8.85 -9.55 -8.95 -9.5 -9.05 -9.45 -9.2 -9.5 -9.4 -9.55 -9.5 -9.65 -9.55 -9.65 -14.35 -9.65 -14.35 -9.75 -14.45 -9.8 -14.5 -9.9 -14.5 -10.0 -14.55 -10.1 -14.55 -10.15 -14.5 -10.2 -14.5 -10.3 -14.45 -10.3 -14.1 -10.45 -12.5 -10.55 -11.0 -10.45 -11.0 -10.55 -10.95 -10.65 -9.95 -10.85 -9.55 -10.8 -6.5 -11.05 -5.65 -11.05 -5.35 -10.85 -5.3 -10.85 -5.3 -10.7 -5.25 -10.65 -5.25 -10.55 -5.3 -10.4 -5.3 -10.3 -5.35 -10.3 -5.4 -10.25 -5.45 -10.2 -8.55 -9.95 -8.55 -9.9 -8.55 -9.8 -8.6 -9.65 M16.3 -9.45 L16.2 -9.5 16.1 -9.55 15.9 -9.65 15.9 -10.1 16.1 -10.25 16.7 -10.6 16.75 -10.6 17.35 -10.85 20.05 -10.6 20.6 -10.55 21.05 -10.45 21.85 -10.25 21.9 -10.2 21.9 -10.1 22.0 -10.05 22.0 -9.85 21.9 -9.8 21.9 -9.65 21.85 -9.65 21.75 -9.55 21.55 -9.5 19.2 -9.85 17.35 -9.95 17.25 -9.9 16.8 -9.65 16.4 -9.5 16.3 -9.45" fill="#999999" fill-rule="evenodd" stroke="none"/>
    <path d="M9.5 -10.1 L9.5 -10.0 9.45 -9.9 9.45 -9.85 9.2 -9.65 9.05 -9.6 6.05 -9.65 5.8 -9.75 5.75 -9.8 5.7 -9.85 5.7 -10.2 6.6 -10.4 7.4 -10.3 8.85 -10.3 9.1 -10.35 9.2 -10.4 9.35 -10.35 9.45 -10.3 9.45 -10.25 9.5 -10.2 9.5 -10.1 M2.45 -10.35 L2.7 -10.25 2.85 -10.1 2.95 -10.05 3.0 -10.0 3.0 -9.95 3.1 -9.85 3.15 -9.8 3.2 -9.65 3.25 -9.55 3.25 -9.5 3.25 -9.35 3.25 -9.2 3.1 -9.15 3.0 -9.0 2.95 -9.0 2.7 -9.0 2.6 -9.0 2.5 -9.1 2.5 -9.15 2.4 -9.2 2.3 -9.35 2.25 -9.35 2.1 -9.5 2.05 -9.5 2.0 -9.6 1.9 -9.65 0.35 -9.65 0.3 -9.6 0.2 -9.5 0.2 -9.45 0.05 -9.35 -0.15 -9.3 -4.85 -9.45 -4.9 -9.5 -4.9 -9.55 -5.0 -9.6 -5.05 -9.65 -5.05 -9.95 -5.0 -10.0 -5.0 -10.05 -4.9 -10.05 -4.8 -10.15 -4.75 -10.2 -4.65 -10.2 -4.55 -10.25 -2.5 -10.2 -2.15 -10.2 -1.9 -10.15 -1.9 -10.25 -1.8 -10.3 -1.7 -10.3 -1.7 -10.35 -1.65 -10.4 -1.6 -10.45 -1.55 -10.45 -1.4 -10.55 1.8 -10.4 2.1 -10.4 2.45 -10.35 M-5.15 -9.85 L-5.2 -9.8 -5.25 -9.75 -5.3 -9.75 -6.05 -9.65 -8.6 -9.65 -8.55 -9.8 -8.55 -9.9 -8.55 -9.95 -5.45 -10.2 -5.4 -10.25 -5.35 -10.3 -5.3 -10.3 -5.3 -10.4 -5.25 -10.55 -5.25 -10.65 -5.3 -10.7 -5.25 -10.8 -4.8 -10.8 -4.35 -10.65 -4.3 -10.6 -4.3 -10.4 -4.25 -10.35 -4.25 -10.3 -5.05 -10.1 -5.1 -10.05 -5.1 -10.0 -5.15 -9.95 -5.15 -9.85 M-14.35 -9.75 L-16.65 -9.8 -16.8 -9.85 -16.8 -9.9 -16.9 -9.95 -16.95 -10.0 -16.95 -10.1 -17.05 -10.15 -17.05 -10.3 -16.95 -10.3 -16.95 -10.35 -16.8 -10.4 -16.55 -10.6 -10.95 -10.65 -11.0 -10.55 -11.0 -10.45 -12.5 -10.55 -14.1 -10.45 -14.45 -10.3 -14.5 -10.3 -14.5 -10.2 -14.55 -10.15 -14.55 -10.1 -14.5 -10.0 -14.5 -9.9 -14.45 -9.8 -14.35 -9.75 M29.35 -1.1 L29.35 -1.15 29.4 -1.2 29.4 -1.0 29.35 -1.1" fill="#cccccc" fill-rule="evenodd" stroke="none"/>
    <path d="M27.6 -8.3 L27.6 -8.2 27.6 -8.15 27.55 -8.3 27.6 -8.3 M29.45 1.25 L29.45 1.35 29.45 1.45 29.5 1.6 29.5 1.7 29.6 1.8 29.6 1.9 29.6 2.0 28.9 2.0 28.75 1.9 28.75 1.7 28.65 1.7 28.7 1.65 28.75 1.45 28.75 1.25 29.15 1.25 29.3 1.25 29.45 1.25 M-27.95 -0.5 L-27.95 -0.55 -27.95 -0.65 -27.95 -0.7 -27.95 -0.8 -27.95 -0.9 -27.95 -1.0 -27.9 -0.9 -27.9 -0.8 -27.9 -0.7 -27.9 -0.65 -27.9 -0.55 -27.9 -0.45 -27.9 -0.35 -27.9 -0.25 -27.9 -0.15 -27.95 -0.25 -27.95 -0.35 -27.95 -0.45 -27.95 -0.5 M4.15 -9.75 L4.15 -9.6 4.15 -9.2 Q4.2 -8.85 4.85 -8.85 L5.35 -8.95 5.35 -8.9 5.35 -8.4 5.2 -8.4 Q4.75 -8.4 4.35 -7.55 L4.35 -7.45 4.25 -7.7 4.05 -7.8 4.0 -7.85 4.0 -8.1 4.0 -8.8 3.65 -9.75 4.15 -9.75 M5.35 -6.15 L5.4 -6.05 5.45 -5.8 Q5.7 -5.35 6.25 -5.35 L8.25 -5.3 8.15 -5.1 7.75 -4.5 7.65 -4.9 Q7.45 -5.2 7.1 -5.2 6.65 -5.2 5.95 -4.5 L5.45 -3.75 5.25 -5.1 5.35 -6.15 M9.5 -5.2 L11.1 -5.15 12.05 -4.95 11.45 -4.5 11.0 -4.5 10.95 -4.5 10.4 -4.7 9.85 -4.55 9.85 -4.5 9.6 -4.5 9.5 -5.2 M14.2 -5.4 L14.5 -5.8 14.65 -6.35 14.7 -7.1 14.7 -7.2 14.95 -8.1 15.0 -9.15 16.05 -8.9 15.9 -8.65 Q15.55 -7.45 15.5 -6.15 L15.55 -5.7 15.65 -5.65 15.75 -5.55 15.8 -5.45 15.8 -5.4 15.8 -5.3 15.8 -5.2 15.8 -5.1 15.8 -5.0 15.8 -4.9 15.8 -4.85 16.75 -4.85 17.1 -4.9 17.2 -4.95 17.35 -4.95 19.6 -4.95 20.05 -4.95 20.6 -4.95 19.35 -4.95 19.2 -4.95 19.1 -4.9 19.05 -4.85 18.95 -4.75 18.9 -4.65 18.85 -4.55 18.85 -4.45 18.85 -4.4 18.9 -4.3 19.0 -4.2 17.35 -4.2 17.15 -4.15 17.1 -4.15 17.0 -4.15 16.85 -4.1 16.8 -4.05 16.7 -4.0 16.55 -3.9 16.35 -3.85 16.3 -3.8 16.2 -3.8 16.15 -3.9 16.1 -3.95 15.95 -4.05 15.75 -4.15 15.5 -4.15 15.35 -4.1 15.2 -4.05 15.1 -3.95 15.05 -3.85 14.9 -3.75 14.6 -3.65 14.45 -3.6 14.35 -3.55 14.3 -3.5 14.05 -3.4 14.1 -3.45 14.05 -3.55 14.05 -3.6 14.2 -3.7 14.25 -3.75 14.3 -3.8 14.35 -3.9 14.45 -3.95 14.55 -3.95 14.7 -4.05 14.7 -4.0 14.8 -4.05 14.85 -4.15 14.75 -4.15 14.6 -4.2 14.4 -4.25 14.3 -4.35 14.3 -4.45 14.3 -4.55 14.3 -4.65 14.35 -4.7 14.45 -4.8 14.6 -4.8 14.95 -4.85 15.2 -4.9 15.2 -4.95 15.2 -5.05 15.2 -5.15 15.2 -5.25 15.2 -5.35 15.2 -5.45 15.0 -5.1 14.7 -5.1 14.25 -5.05 14.25 -5.1 14.2 -5.4 M14.7 -10.15 L16.55 -10.15 16.6 -10.1 16.2 -9.85 16.2 -9.75 14.7 -10.15 M18.95 -9.35 L19.2 -9.35 19.25 -9.3 18.95 -9.35 M24.95 -5.05 L25.35 -5.05 26.0 -5.05 26.15 -5.0 26.25 -4.9 26.3 -4.8 26.5 -5.05 26.5 -5.1 26.55 -5.1 26.6 -5.2 26.7 -5.3 26.8 -5.4 26.85 -5.45 26.95 -5.45 27.05 -5.5 27.25 -5.5 27.25 -5.55 27.3 -5.5 27.3 -5.45 27.3 -5.35 27.3 -5.25 27.3 -5.15 27.3 -5.05 27.3 -4.95 27.3 -4.9 27.3 -4.8 27.35 -4.75 27.3 -4.7 27.3 -4.6 27.3 -4.5 27.3 -4.4 27.3 -4.3 27.3 -4.2 27.3 -4.15 27.3 -4.05 27.3 -3.95 27.3 -3.85 27.25 -3.75 27.2 -3.65 27.15 -3.55 27.1 -3.45 27.05 -3.55 27.0 -3.65 26.95 -3.7 26.8 -3.8 26.7 -3.9 26.6 -4.0 26.55 -4.1 26.45 -4.2 26.35 -4.3 26.2 -4.4 26.1 -4.45 25.95 -4.55 25.75 -4.65 25.05 -4.65 25.05 -4.7 25.05 -4.8 25.05 -4.9 25.0 -4.95 24.95 -5.05 M11.55 -9.85 L10.65 -9.8 11.35 -9.95 11.45 -9.9 11.55 -9.85 M2.85 -9.65 L2.9 -9.75 2.95 -9.75 2.85 -9.65 M3.25 -4.8 L3.15 -3.6 2.85 -3.6 2.2 -3.7 Q2.15 -4.1 1.6 -4.1 L0.45 -3.9 Q0.05 -3.9 -0.35 -4.65 L0.05 -4.75 0.4 -4.75 0.85 -4.9 1.6 -4.75 2.1 -4.85 2.45 -4.9 3.25 -4.8 M4.2 -2.15 Q4.3 -1.95 4.85 -1.95 L4.9 -1.95 4.9 -1.75 5.1 -1.1 5.1 -1.05 5.1 -0.9 4.7 -0.8 4.75 -1.1 4.5 -1.65 4.2 -2.1 4.2 -2.15 M-0.9 -3.55 L-1.65 -3.55 -0.9 -3.9 -0.9 -3.55 M-6.3 -3.0 L-6.5 -3.1 -6.5 -3.15 -6.7 -3.2 -6.7 -3.25 Q-6.8 -3.45 -7.0 -3.45 -6.5 -3.65 -6.8 -4.25 L-6.85 -4.35 -7.0 -4.4 -7.0 -4.5 -7.25 -4.6 -7.2 -4.65 -6.8 -4.75 -6.75 -4.8 -6.75 -4.25 -6.3 -3.35 -6.3 -3.0 M-9.75 -4.3 L-10.1 -4.3 -9.8 -4.45 -9.75 -4.4 -9.75 -4.3 M-8.75 -4.35 L-8.4 -4.4 -8.75 -4.3 -8.75 -4.35 M-5.05 -4.95 L-4.8 -5.05 -4.35 -4.95 -4.25 -5.1 -4.1 -4.95 -3.5 -4.95 -3.15 -4.75 -2.7 -4.65 Q-2.6 -4.5 -2.25 -4.45 L-2.1 -4.45 -2.5 -4.15 -4.0 -4.05 -5.0 -4.1 -5.05 -4.95 M-5.3 0.0 L-5.75 0.45 -5.85 0.45 -6.5 0.4 Q-6.1 0.35 -5.95 0.1 L-5.75 0.15 -5.45 -0.05 -5.35 -0.05 -5.3 0.0 M-13.4 -3.2 L-14.45 -3.25 -14.25 -3.35 -13.8 -3.35 -13.4 -3.2 M-18.0 -0.4 L-17.8 -0.65 -17.8 -0.4 -17.8 -0.35 -18.0 -0.4 M-26.1 0.75 L-26.15 0.8 -26.2 0.8 -26.3 0.85 -26.5 0.85 -26.7 0.85 -26.9 0.85 -27.0 0.85 -27.2 0.85 -27.4 0.8 -27.5 0.7 -27.6 0.6 -27.7 0.5 -27.7 0.45 -27.65 0.5 -27.4 0.55 -27.25 0.55 -27.15 0.45 -27.05 0.35 -27.0 0.3 -26.95 0.25 -26.95 0.3 -26.95 0.35 -26.95 0.45 -26.85 0.55 -26.7 0.65 -26.5 0.7 -26.25 0.7 -26.05 0.65 -25.9 0.55 -25.85 0.45 -25.8 0.35 -25.8 0.3 -25.75 0.3 -25.8 0.35 -25.8 0.45 -25.9 0.55 -25.95 0.6 -26.05 0.7 -26.1 0.75 M-4.35 1.6 L-4.3 1.6 -4.15 1.7 -4.15 1.85 -4.2 1.85 -11.3 2.05 -13.6 2.05 -13.6 1.95 -13.55 1.85 -13.5 1.7 -13.4 1.6 -13.25 1.6 -13.2 1.5 -13.1 1.5 -12.7 1.6 -12.45 1.65 -8.35 1.65 -8.2 1.6 -7.5 1.4 -7.5 1.3 -5.55 1.45 -4.35 1.6 M13.2 -4.1 L13.05 -4.25 13.2 -4.4 13.2 -4.1 M14.05 0.2 L14.2 0.15 14.35 0.05 14.4 -0.05 14.45 -0.15 14.45 -0.2 14.45 -0.3 14.45 -0.4 14.45 -0.5 14.45 -0.6 14.45 -0.7 14.45 -0.8 14.45 -0.9 14.45 -0.95 14.5 -1.05 14.55 -1.15 14.55 -1.25 14.55 -1.35 14.55 -1.45 14.55 -1.55 14.6 -1.65 14.65 -1.7 14.7 -1.8 14.7 -1.9 14.8 -2.0 14.8 -2.1 14.85 -2.2 14.9 -2.3 14.95 -2.4 14.95 -2.45 14.95 -2.55 14.95 -2.65 15.05 -2.75 15.25 -2.8 15.3 -2.85 15.35 -2.8 15.35 -2.7 15.35 -2.65 15.35 -2.55 15.35 -2.45 15.35 -2.35 15.35 -2.25 15.35 -2.15 15.35 -2.05 15.35 -1.95 15.35 -1.9 15.35 -1.8 15.35 -1.7 15.35 -1.6 15.35 -1.5 15.35 -1.4 15.35 -1.3 15.35 -1.2 15.35 -1.15 15.35 -1.05 15.35 -0.95 15.35 -0.85 15.35 -0.75 15.35 -0.65 15.35 -0.55 15.35 -0.45 15.35 -0.4 15.35 -0.3 15.35 -0.2 15.35 -0.1 15.35 0.0 15.35 0.1 15.4 0.2 15.45 0.3 15.55 0.35 15.55 0.45 15.55 0.55 15.35 0.55 15.15 0.5 14.95 0.45 14.85 0.45 14.75 0.35 14.7 0.35 14.6 0.35 14.5 0.4 14.35 0.4 14.15 0.35 14.05 0.25 14.05 0.2 M25.5 -9.35 L25.55 -9.35 25.65 -9.3 25.65 -9.2 25.8 -9.1 26.0 -8.85 26.0 -8.7 25.45 -9.15 24.45 -9.5 24.85 -9.5 24.95 -9.45 25.1 -9.45 25.45 -9.4 25.5 -9.35 M23.2 -9.65 L23.7 -9.65 23.8 -9.6 23.2 -9.65 M27.1 1.1 L27.15 1.2 27.25 1.3 27.2 1.3 27.1 1.2 27.05 1.15 27.1 1.1 M26.45 -4.65 L26.4 -4.6 26.45 -4.65 M8.35 2.25 L10.45 2.3 12.1 2.25 13.15 2.25 11.5 2.35 8.8 2.45 8.4 2.3 8.35 2.25 M-25.7 -9.95 L-25.7 -10.0 -25.4 -10.05 -25.25 -10.05 -25.15 -10.15 -22.65 -10.15 -22.8 -10.1 -22.95 -10.05 -25.7 -9.95 M-16.65 -10.05 L-16.55 -10.05 -16.55 -9.95 -16.6 -9.95 -16.65 -10.05 M-22.7 -8.75 L-22.8 -8.8 -23.0 -8.9 -23.2 -8.9 -23.25 -8.95 -23.4 -8.95 -23.6 -9.0 -22.65 -9.05 -22.5 -9.05 -17.2 -9.05 -17.2 -8.95 -17.25 -8.85 -17.3 -8.75 -17.3 -8.65 -17.4 -8.55 -17.45 -8.45 -17.55 -8.4 -17.55 -8.45 -17.55 -8.55 -17.55 -8.65 -17.6 -8.7 -17.65 -8.8 -17.8 -8.9 -18.0 -8.95 -18.25 -8.95 -18.65 -8.95 -18.8 -8.95 -18.9 -8.9 -19.0 -8.9 -19.15 -8.85 -19.3 -8.8 -22.5 -8.75 -22.7 -8.75 M-26.45 -8.7 L-26.45 -8.6 -26.45 -8.5 -26.45 -8.4 -26.45 -8.3 -26.45 -8.2 -26.45 -8.15 -26.45 -8.05 -26.45 -7.95 -26.45 -7.85 -26.45 -7.75 -26.45 -7.65 -26.45 -7.55 -26.45 -7.45 -26.45 -7.4 -26.45 -7.3 -26.45 -7.2 -26.45 -7.1 -26.45 -7.0 -26.45 -6.9 -26.45 -6.8 -26.45 -6.7 -26.45 -6.65 -26.45 -6.55 -26.45 -6.45 -26.45 -6.35 -26.45 -6.25 -26.45 -6.15 -26.45 -6.05 -26.45 -5.95 -26.45 -5.9 -26.45 -5.8 -26.45 -5.7 -26.45 -5.6 -26.45 -5.5 -26.4 -5.4 -26.4 -5.3 -26.4 -5.2 -26.4 -5.15 -26.4 -5.05 -26.4 -4.95 -26.4 -4.85 -26.4 -4.75 -26.4 -4.65 -26.4 -4.55 -26.4 -4.45 -26.4 -4.4 -26.35 -4.3 -26.25 -4.2 -26.3 -4.2 -26.35 -4.1 -26.4 -4.0 -26.4 -3.9 -26.4 -3.8 -26.4 -3.7 -26.4 -3.65 -26.4 -3.55 -26.4 -3.45 -26.4 -3.35 -26.4 -3.25 -26.4 -3.15 -26.4 -3.05 -26.4 -2.95 -26.4 -2.9 -26.4 -2.8 -26.4 -2.7 -26.4 -2.6 -26.4 -2.5 -26.4 -2.4 -26.4 -2.3 -26.4 -2.2 -26.4 -2.15 -26.4 -2.05 -26.4 -1.95 -26.4 -1.85 -26.4 -1.75 -26.45 -1.75 -26.45 -1.85 -26.45 -1.95 -26.45 -2.05 -26.45 -2.15 -26.45 -2.2 -26.45 -2.3 -26.45 -2.4 -26.45 -2.5 -26.45 -2.6 -26.45 -2.7 -26.45 -2.8 -26.45 -2.9 -26.45 -2.95 -26.45 -3.05 -26.55 -3.15 -26.55 -3.25 -26.55 -3.35 -26.6 -3.45 -26.65 -3.55 -26.7 -3.65 -26.7 -3.7 -26.7 -3.8 -26.7 -3.9 -26.7 -4.0 -26.7 -4.1 -26.7 -4.2 -26.7 -4.3 -26.7 -4.4 -26.7 -4.45 -26.7 -4.55 -26.7 -4.65 -26.7 -4.75 -26.7 -4.85 -26.7 -4.95 -26.7 -5.05 -26.7 -5.15 -26.7 -5.2 -26.7 -5.3 -26.7 -5.4 -26.7 -5.5 -26.7 -5.6 -26.7 -5.7 -26.7 -5.8 -26.7 -5.9 -26.7 -5.95 -26.7 -6.05 -26.7 -6.15 -26.7 -6.25 -26.7 -6.35 -26.7 -6.45 -26.7 -6.55 -26.7 -6.65 -26.7 -6.7 -26.7 -6.8 -26.7 -6.9 -26.7 -7.0 -26.7 -7.1 -26.7 -7.2 -26.7 -7.3 -26.7 -7.4 -26.7 -7.45 -26.7 -7.55 -26.7 -7.65 -26.7 -7.75 -26.65 -7.85 -26.6 -7.95 -26.55 -8.05 -26.55 -8.15 -26.55 -8.2 -26.55 -8.3 -26.55 -8.4 -26.55 -8.5 -26.55 -8.6 -26.55 -8.65 -26.5 -8.7 -26.45 -8.7 M-25.45 -3.9 L-25.45 -3.95 -25.45 -4.05 -25.25 -4.05 -25.3 -4.0 -25.45 -3.9 M-19.55 -4.4 L-18.15 -4.45 -18.0 -4.45 -17.95 -4.5 -17.85 -4.55 -17.8 -4.65 -17.7 -4.75 -17.7 -4.85 -17.7 -4.95 -17.65 -4.95 -17.5 -4.85 -17.4 -4.75 -17.35 -4.65 -17.3 -4.55 -17.25 -4.45 -17.25 -4.4 -17.2 -4.3 -17.2 -4.2 -17.2 -4.15 -17.25 -4.1 -17.3 -4.0 -17.3 -3.9 -17.4 -3.8 -17.45 -3.7 -17.55 -3.65 -17.65 -3.55 -17.7 -3.6 -17.8 -3.7 -17.8 -3.8 -17.85 -3.9 -17.9 -3.95 -18.05 -4.05 -18.2 -4.15 -18.4 -4.2 -18.45 -4.25 -18.55 -4.3 -18.75 -4.4 -19.55 -4.4 M-19.95 -7.7 L-20.05 -7.65 -20.25 -7.65 -23.0 -7.65 -23.2 -7.65 -23.3 -7.7 -23.85 -7.7 -22.4 -7.7 -22.25 -7.7 -19.95 -7.7 M-7.65 -9.15 L-7.5 -9.15 -7.5 -9.0 -7.4 -8.85 -7.3 -8.8 -7.3 -8.45 -7.25 -8.05 Q-7.0 -7.3 -7.25 -6.55 L-7.25 -6.8 Q-7.25 -8.5 -7.75 -8.9 L-7.85 -9.0 -7.8 -9.1 -7.65 -9.15 M-7.3 -6.4 L-7.4 -6.15 -7.45 -5.8 -7.75 -5.6 -7.95 -5.8 -7.95 -5.85 -7.8 -5.95 -7.3 -6.4 M-9.35 -5.6 L-9.3 -5.55 -9.55 -5.6 -9.35 -5.6 M-10.4 -5.4 L-10.8 -5.35 -11.15 -5.3 -11.15 -5.4 -11.3 -5.5 -11.45 -5.6 -11.5 -5.65 -11.6 -5.65 -11.65 -5.65 Q-11.65 -5.6 -11.75 -5.6 L-11.9 -5.55 -11.95 -5.5 -12.05 -5.5 -13.0 -5.65 -13.05 -5.8 -12.15 -5.85 -10.1 -5.6 -9.8 -5.6 -10.4 -5.4 M-13.65 -5.65 L-13.8 -5.6 -13.9 -5.65 -13.65 -5.65 M-15.6 -4.65 L-15.9 -4.65 -15.9 -4.6 -16.1 -5.15 -15.1 -5.1 -15.05 -5.15 -15.0 -5.15 -15.0 -5.1 -15.6 -4.65 M-15.9 -4.6 L-15.6 -4.55 -15.7 -4.35 -15.85 -4.3 -15.9 -4.6 M-16.7 -5.8 L-16.6 -5.6 -16.7 -5.6 -16.75 -5.6 -16.7 -5.8 M-12.95 -4.45 L-13.45 -4.45 -13.7 -4.5 -13.15 -4.5 -13.05 -4.5 -12.95 -4.5 -12.95 -4.45 M-17.05 0.0 L-17.05 -0.15 -16.9 -0.05 -17.05 0.0 M-6.2 -7.1 L-6.05 -7.1 -5.95 -7.1 -6.1 -6.7 -5.95 -6.3 -6.2 -6.3 -6.2 -7.0 -6.2 -7.1 M-5.7 -9.45 L-6.5 -10.15 -6.2 -10.15 -6.15 -10.1 -5.9 -10.05 -5.5 -10.0 -5.4 -9.95 -5.7 -9.45 M-23.5 1.7 L-22.6 1.65 -22.65 1.7 -22.65 1.85 -22.65 1.95 -22.65 2.0 -22.6 2.05 -26.1 2.05 -26.2 2.05 -26.6 1.95 -23.5 1.7 M-26.75 2.0 L-26.75 2.05 -27.1 2.05 -27.1 2.0 -26.75 2.0" fill="#cccccc" fill-rule="evenodd" stroke="none"/>
    <path d="M28.2 -5.55 L28.25 -5.45 28.3 -5.4 28.3 -5.3 28.3 -5.2 28.3 -5.1 28.3 -5.0 28.3 -4.9 28.25 -4.95 28.2 -5.05 28.2 -5.15 28.2 -5.25 28.2 -5.35 28.2 -5.45 28.2 -5.55 M29.6 2.0 L29.6 2.05 28.9 2.05 28.9 2.0 29.6 2.0 M-0.4 -11.65 L-0.15 -11.7 0.5 -11.65 -0.4 -11.65 M4.15 -9.75 L4.8 -9.75 4.85 -9.7 5.0 -9.7 5.5 -9.65 5.4 -9.55 5.35 -8.95 4.85 -8.85 Q4.2 -8.85 4.15 -9.2 L4.15 -9.6 4.15 -9.75 M5.35 -8.4 L5.3 -8.3 Q5.0 -7.2 5.35 -6.15 L5.25 -5.1 5.45 -3.75 5.95 -4.5 Q6.65 -5.2 7.1 -5.2 7.45 -5.2 7.65 -4.9 L7.75 -4.5 8.15 -5.1 8.25 -5.3 9.5 -5.2 9.6 -4.5 8.95 -4.55 7.95 -4.5 Q6.4 -4.4 5.55 -3.2 L5.2 -2.5 5.1 -2.5 5.05 -2.4 4.9 -1.95 4.85 -1.95 Q4.3 -1.95 4.2 -2.15 L4.2 -2.4 4.15 -2.65 4.15 -2.85 4.3 -3.3 4.2 -3.55 4.0 -3.65 3.7 -3.7 3.5 -3.7 3.45 -3.7 3.45 -3.65 3.35 -3.65 3.25 -3.6 3.15 -3.6 3.25 -4.8 4.0 -5.2 4.2 -5.65 4.2 -6.15 4.35 -6.8 4.35 -7.45 4.35 -7.55 Q4.75 -8.4 5.2 -8.4 L5.35 -8.4 M12.05 -4.95 L12.65 -5.05 13.05 -5.1 Q13.7 -5.1 14.2 -5.4 L14.25 -5.1 14.25 -5.05 14.7 -5.1 15.0 -5.1 14.95 -4.85 14.6 -4.8 14.45 -4.8 14.35 -4.7 14.3 -4.65 14.3 -4.55 14.3 -4.45 14.3 -4.35 14.4 -4.25 14.6 -4.2 14.75 -4.15 14.7 -4.05 14.55 -3.95 14.45 -3.95 14.35 -3.9 14.3 -3.8 14.25 -3.75 14.2 -3.7 14.05 -3.6 14.0 -3.75 13.3 -4.0 13.2 -4.0 13.2 -4.1 13.2 -4.4 13.05 -4.25 12.75 -4.3 12.35 -4.35 12.05 -4.35 11.45 -4.5 12.05 -4.95 M15.0 -9.15 L14.85 -9.65 14.7 -9.8 14.6 -9.85 14.5 -9.95 14.25 -10.1 14.1 -10.15 14.7 -10.15 16.2 -9.75 16.15 -9.75 Q16.1 -9.45 16.2 -9.15 L16.05 -8.9 15.0 -9.15 M17.2 -8.65 L17.15 -9.15 18.0 -9.15 18.65 -9.3 18.25 -8.9 17.4 -8.65 17.2 -8.65 M24.9 -5.1 L24.95 -5.05 25.0 -4.95 25.05 -4.9 25.05 -4.8 25.05 -4.7 25.05 -4.65 25.75 -4.65 25.95 -4.55 26.1 -4.45 26.2 -4.4 26.35 -4.3 26.45 -4.2 26.55 -4.1 26.6 -4.0 26.7 -3.9 26.8 -3.8 26.95 -3.7 27.0 -3.65 27.05 -3.55 27.1 -3.45 27.15 -3.55 27.2 -3.65 27.25 -3.75 27.3 -3.85 27.3 -3.95 27.3 -4.05 27.3 -4.15 27.3 -4.2 27.3 -4.3 27.3 -4.4 27.3 -4.5 27.3 -4.6 27.3 -4.7 27.35 -4.75 27.35 -4.7 27.35 -4.6 27.35 -4.5 27.35 -4.4 27.35 -4.3 27.35 -4.2 27.35 -4.15 27.35 -4.05 27.4 -3.95 27.5 -3.85 27.55 -3.75 27.55 -3.65 27.55 -3.55 27.55 -3.45 27.55 -3.4 27.55 -3.3 27.55 -3.2 27.6 -3.1 27.6 -3.0 27.6 -2.9 27.65 -2.8 27.7 -2.7 27.8 -2.65 27.8 -2.55 27.8 -2.45 27.8 -2.35 27.8 -2.25 27.8 -2.15 27.8 -2.05 27.8 -1.95 27.8 -1.9 27.8 -1.8 27.8 -1.7 27.8 -1.6 27.8 -1.5 27.8 -1.4 27.8 -1.3 27.8 -1.2 27.8 -1.15 27.8 -1.05 27.8 -0.95 27.8 -0.85 27.8 -0.75 27.8 -0.65 27.8 -0.55 27.8 -0.45 27.8 -0.4 27.8 -0.3 27.8 -0.2 27.8 -0.1 27.8 0.0 27.8 0.1 27.75 0.2 27.65 0.3 27.6 0.35 27.6 0.45 27.6 0.55 27.55 0.65 27.45 0.75 27.4 0.85 27.35 0.95 27.35 1.05 27.35 1.1 27.4 1.2 27.5 1.3 27.6 1.4 27.75 1.45 27.6 1.45 27.35 1.4 27.25 1.3 27.15 1.2 27.1 1.1 27.2 1.05 27.25 0.95 27.3 0.85 27.3 0.8 27.3 0.7 27.3 0.6 27.3 0.5 27.3 0.4 27.3 0.3 27.3 0.2 27.3 0.1 27.3 0.05 27.3 -0.05 27.3 -0.15 27.3 -0.25 27.3 -0.35 27.3 -0.45 27.3 -0.55 27.3 -0.65 27.3 -0.7 27.3 -0.8 27.3 -0.9 27.3 -1.0 27.3 -1.1 27.25 -1.2 27.2 -1.3 27.2 -1.4 27.2 -1.45 27.2 -1.55 27.2 -1.65 27.1 -1.75 27.05 -1.85 27.0 -1.95 26.95 -2.05 26.9 -2.15 26.85 -2.2 26.8 -2.3 26.7 -2.4 26.65 -2.5 26.55 -2.6 26.45 -2.7 26.45 -2.8 26.45 -2.9 26.45 -2.95 26.45 -3.05 26.45 -3.15 26.45 -3.25 26.55 -3.35 26.55 -3.45 26.55 -3.55 26.55 -3.65 26.5 -3.7 26.45 -3.8 26.3 -3.9 26.1 -3.95 25.95 -3.95 25.85 -3.9 25.8 -3.85 25.7 -3.75 25.6 -3.65 25.45 -3.7 25.3 -3.8 25.1 -3.9 25.05 -3.9 24.95 -3.95 24.8 -4.05 24.6 -4.15 23.3 -4.15 23.25 -4.2 23.1 -4.2 19.0 -4.2 18.9 -4.3 18.85 -4.4 18.85 -4.45 18.85 -4.55 18.9 -4.65 18.95 -4.75 19.05 -4.85 19.1 -4.9 19.2 -4.95 19.35 -4.95 20.6 -4.95 21.25 -5.0 23.2 -5.05 23.35 -5.1 23.5 -5.15 23.9 -5.15 24.0 -5.15 24.1 -5.15 24.2 -5.2 24.25 -5.2 24.35 -5.2 24.6 -5.2 24.8 -5.15 24.9 -5.1 M26.7 -5.3 L26.7 -5.35 27.2 -6.6 27.2 -8.3 26.9 -8.8 26.9 -8.9 26.95 -8.9 27.05 -8.8 27.05 -8.7 27.1 -8.65 27.15 -8.55 27.25 -8.45 27.35 -8.35 27.55 -8.3 27.6 -8.15 27.55 -8.15 27.4 -8.05 27.3 -7.95 27.3 -7.9 27.3 -7.8 27.3 -7.7 27.3 -7.6 27.3 -7.5 27.3 -7.4 27.3 -7.3 27.3 -7.2 27.3 -7.15 27.3 -7.05 27.3 -6.95 27.3 -6.85 27.3 -6.75 27.3 -6.65 27.3 -6.55 27.3 -6.45 27.3 -6.4 27.3 -6.3 27.3 -6.2 27.3 -6.1 27.3 -6.0 27.3 -5.9 27.3 -5.8 27.3 -5.7 27.3 -5.65 27.3 -5.55 27.3 -5.5 27.25 -5.55 27.25 -5.5 27.05 -5.5 26.95 -5.45 26.85 -5.45 26.8 -5.4 26.7 -5.3 M10.65 -9.8 L10.3 -9.65 10.15 -10.15 10.05 -10.25 11.35 -9.95 10.65 -9.8 M-0.35 -4.65 Q0.05 -3.9 0.45 -3.9 L1.6 -4.1 Q2.15 -4.1 2.2 -3.7 L0.7 -3.75 0.05 -3.65 -0.5 -3.55 -0.9 -3.55 -0.9 -3.9 -1.65 -3.55 -2.6 -3.55 -3.1 -3.35 -3.3 -3.3 -4.05 -3.15 -3.9 -3.4 -4.0 -3.75 -4.2 -3.9 Q-4.3 -4.05 -4.55 -4.05 L-5.2 -3.75 -5.35 -3.2 -5.55 -2.4 -5.65 -1.55 -5.75 -1.55 -5.85 -1.5 -5.85 -1.75 -5.85 -2.1 Q-5.75 -2.55 -5.9 -2.85 L-6.2 -3.0 -6.3 -3.0 -6.3 -3.35 -6.75 -4.25 -6.75 -4.8 -6.6 -4.9 -6.5 -4.95 -6.45 -5.2 -6.4 -5.3 -6.1 -5.6 -6.05 -5.5 Q-5.8 -5.15 -5.45 -5.2 L-5.3 -5.1 -5.05 -4.95 -5.0 -4.1 -4.0 -4.05 -2.5 -4.15 -2.1 -4.45 Q-1.7 -4.5 -1.6 -4.65 L-0.65 -4.75 -0.55 -4.7 -0.35 -4.65 M-7.0 -4.4 L-7.25 -4.45 -7.4 -4.45 -7.45 -4.4 -7.5 -4.4 -8.75 -4.3 -9.05 -4.3 -9.75 -4.3 -9.75 -4.4 -9.4 -4.4 -9.25 -4.45 -8.75 -4.35 -8.75 -4.3 -8.4 -4.4 -8.35 -4.45 -8.25 -4.45 -7.95 -4.5 -7.75 -4.55 -7.25 -4.6 -7.0 -4.5 -7.0 -4.4 M-10.1 -4.3 L-10.45 -4.35 -10.1 -4.45 -9.9 -4.45 -9.8 -4.45 -10.1 -4.3 M-11.1 -3.15 Q-11.65 -2.8 -12.05 -2.8 L-13.4 -3.2 -13.8 -3.35 -11.9 -3.45 Q-11.6 -3.25 -11.1 -3.15 M6.45 -1.8 L6.45 -1.85 6.5 -1.95 6.65 -2.05 6.8 -2.25 6.85 -2.4 6.9 -2.4 6.95 -2.5 7.75 -2.5 Q7.15 -1.8 6.7 -1.8 L6.45 -1.8 M13.55 -2.3 L13.55 -2.4 13.55 -2.45 13.55 -2.55 13.55 -2.65 13.55 -2.75 13.55 -2.85 13.55 -2.95 13.55 -3.05 13.55 -3.15 13.65 -3.2 13.8 -3.3 14.05 -3.4 14.3 -3.5 14.35 -3.55 14.45 -3.6 14.6 -3.65 14.9 -3.75 15.05 -3.85 15.1 -3.95 15.2 -4.05 15.35 -4.1 15.5 -4.15 15.75 -4.15 15.95 -4.05 16.1 -3.95 16.15 -3.9 16.2 -3.8 16.3 -3.8 16.35 -3.85 16.55 -3.9 16.7 -4.0 16.8 -4.05 16.85 -4.1 17.0 -4.15 17.1 -4.15 16.85 -4.05 16.75 -3.95 16.65 -3.9 16.6 -3.8 16.55 -3.7 16.55 -3.6 16.45 -3.5 16.35 -3.4 16.3 -3.3 16.25 -3.2 16.15 -3.15 16.1 -3.05 16.05 -2.95 16.05 -2.85 16.05 -2.75 16.05 -2.65 16.05 -2.55 16.05 -2.45 16.05 -2.4 16.05 -2.3 16.05 -2.2 16.05 -2.1 16.05 -2.0 16.05 -1.9 16.05 -1.8 16.05 -1.7 16.05 -1.65 16.05 -1.55 16.05 -1.45 16.05 -1.35 16.05 -1.25 16.05 -1.15 16.05 -1.05 16.05 -0.95 16.1 -0.9 16.1 -0.8 16.1 -0.7 16.1 -0.6 16.1 -0.5 16.1 -0.4 16.1 -0.3 16.1 -0.2 16.1 -0.15 16.1 -0.05 16.1 0.05 16.1 0.15 16.1 0.25 16.1 0.35 16.1 0.45 16.1 0.55 16.1 0.6 16.15 0.7 16.25 0.8 16.1 0.8 16.0 0.8 15.8 0.75 15.65 0.65 15.55 0.55 15.55 0.45 15.55 0.35 15.45 0.3 15.4 0.2 15.35 0.1 15.35 0.0 15.35 -0.1 15.35 -0.2 15.35 -0.3 15.35 -0.4 15.35 -0.45 15.35 -0.55 15.35 -0.65 15.35 -0.75 15.35 -0.85 15.35 -0.95 15.35 -1.05 15.35 -1.15 15.35 -1.2 15.35 -1.3 15.35 -1.4 15.35 -1.5 15.35 -1.6 15.35 -1.7 15.35 -1.8 15.35 -1.9 15.35 -1.95 15.35 -2.05 15.35 -2.15 15.35 -2.25 15.35 -2.35 15.35 -2.45 15.35 -2.55 15.35 -2.65 15.35 -2.7 15.35 -2.8 15.3 -2.85 15.25 -2.8 15.05 -2.75 14.95 -2.65 14.95 -2.55 14.95 -2.45 14.95 -2.4 14.9 -2.3 14.85 -2.2 14.8 -2.1 14.8 -2.0 14.7 -1.9 14.7 -1.8 14.65 -1.7 14.6 -1.65 14.55 -1.55 14.55 -1.45 14.55 -1.35 14.55 -1.25 14.55 -1.15 14.5 -1.05 14.45 -0.95 14.45 -0.9 14.45 -0.8 14.45 -0.7 14.45 -0.6 14.45 -0.5 14.45 -0.4 14.45 -0.3 14.45 -0.2 14.45 -0.15 14.4 -0.05 14.35 0.05 14.2 0.15 14.05 0.2 14.0 0.2 13.8 0.15 13.65 0.05 13.55 -0.05 13.55 -0.15 13.55 -0.2 13.55 -0.3 13.55 -0.4 13.55 -0.5 13.55 -0.6 13.55 -0.7 13.55 -0.8 13.55 -0.9 13.55 -0.95 13.55 -1.05 13.55 -1.15 13.55 -1.25 13.55 -1.35 13.55 -1.45 13.55 -1.55 13.55 -1.65 13.55 -1.7 13.55 -1.8 13.55 -1.9 13.55 -2.0 13.55 -2.1 13.55 -2.2 13.55 -2.3 M10.95 -4.5 L9.85 -4.5 9.85 -4.55 10.4 -4.7 10.95 -4.5 M4.2 -2.1 L4.5 -1.65 4.75 -1.1 4.7 -0.8 4.4 -0.8 4.3 -1.4 4.2 -2.1 M24.55 -3.05 L19.05 -3.0 19.0 -2.95 18.85 -2.95 18.6 -2.95 18.35 -3.0 18.25 -3.1 18.2 -3.15 17.45 -3.15 17.5 -3.2 23.05 -3.25 23.1 -3.2 23.25 -3.2 24.3 -3.15 24.35 -3.1 24.55 -3.05 M26.45 -4.65 L26.4 -4.6 26.45 -4.65 M26.3 0.75 L26.35 0.75 26.35 0.8 26.35 0.85 26.4 0.95 26.35 0.9 26.25 0.8 26.3 0.75 M26.25 2.1 L26.2 2.2 26.2 2.25 25.0 2.35 23.0 2.45 21.05 2.4 18.85 2.25 19.9 2.25 20.1 2.25 20.75 2.25 20.8 2.25 22.95 2.25 23.0 2.2 23.05 2.1 23.05 2.05 24.4 2.05 24.6 2.0 26.2 2.0 25.85 2.05 25.2 2.05 25.5 2.1 26.1 2.1 26.3 2.05 26.25 2.1 M11.5 2.35 L13.65 2.45 13.8 2.55 13.8 2.65 13.8 2.75 13.8 2.8 13.75 2.85 13.75 2.95 13.7 2.95 8.6 2.8 8.15 2.7 1.05 2.05 6.8 2.05 6.95 2.15 8.15 2.25 8.35 2.25 8.4 2.3 8.8 2.45 11.5 2.35 M8.35 2.0 Q12.95 1.7 17.4 2.05 L8.2 2.05 8.25 2.0 8.35 2.0 M-25.7 -9.95 L-22.95 -10.05 -22.8 -10.1 -22.65 -10.15 -19.0 -10.15 -18.3 -10.15 -18.2 -10.1 -18.0 -10.05 -16.65 -10.05 -16.6 -9.95 -25.75 -9.95 -25.7 -9.95 M-22.65 -9.05 L-23.6 -9.0 -23.4 -8.95 -23.25 -8.95 -23.2 -8.9 -23.0 -8.9 -22.8 -8.8 -22.7 -8.75 -24.65 -8.7 -24.9 -8.65 -25.05 -8.6 -25.2 -8.55 -25.3 -8.45 -25.3 -8.35 -25.4 -8.4 -25.4 -8.35 -25.65 -8.3 -25.75 -8.2 -25.85 -8.15 -25.9 -8.05 -25.9 -7.95 -25.9 -7.85 -25.9 -7.75 -25.9 -7.65 -25.9 -7.55 -25.9 -7.45 -25.9 -7.4 -25.9 -7.3 -25.9 -7.2 -25.9 -7.1 -25.9 -7.0 -25.9 -6.9 -25.85 -6.8 -25.8 -6.7 -25.7 -6.65 -25.7 -6.55 -25.7 -6.45 -25.7 -6.35 -25.7 -6.25 -25.7 -6.15 -25.7 -6.05 -25.7 -5.95 -25.7 -5.9 -25.7 -5.8 -25.7 -5.7 -25.7 -5.6 -25.7 -5.5 -25.7 -5.4 -25.7 -5.3 -25.7 -5.2 -25.7 -5.15 -25.7 -5.05 -25.6 -4.95 -25.45 -4.85 -25.25 -4.8 -19.9 -4.8 -19.75 -4.8 -19.65 -4.9 -18.75 -4.95 -18.6 -4.95 -18.55 -5.0 -18.0 -5.05 -17.85 -5.05 -17.8 -5.1 -17.75 -5.15 -17.7 -5.05 -17.7 -4.95 -17.7 -4.85 -17.7 -4.75 -17.8 -4.65 -17.85 -4.55 -17.95 -4.5 -18.0 -4.45 -18.15 -4.45 -19.55 -4.4 -20.4 -4.4 -24.65 -4.4 -24.65 -4.35 -24.8 -4.35 -24.95 -4.3 -25.05 -4.2 -25.2 -4.1 -25.25 -4.05 -25.45 -4.05 -25.45 -3.95 -25.45 -3.9 -25.6 -3.8 -25.7 -3.7 -25.7 -3.65 -25.8 -3.55 -25.85 -3.45 -25.9 -3.35 -25.9 -3.25 -25.9 -3.15 -25.9 -3.05 -25.9 -2.95 -25.9 -2.9 -25.9 -2.8 -25.9 -2.7 -25.9 -2.6 -25.9 -2.5 -25.9 -2.4 -25.9 -2.3 -25.9 -2.2 -25.9 -2.15 -25.9 -2.05 -25.9 -1.95 -25.9 -1.85 -25.9 -1.75 -25.9 -1.65 -25.9 -1.55 -25.9 -1.45 -25.9 -1.4 -25.9 -1.3 -25.9 -1.2 -25.9 -1.1 -25.9 -1.0 -25.9 -0.9 -25.9 -0.8 -25.9 -0.7 -25.9 -0.65 -25.9 -0.55 -25.9 -0.45 -25.9 -0.35 -25.9 -0.25 -25.9 -0.15 -25.9 -0.05 -25.9 0.05 -25.9 0.1 -25.85 0.2 -25.75 0.3 -25.8 0.3 -25.8 0.35 -25.85 0.45 -25.9 0.55 -26.05 0.65 -26.25 0.7 -26.5 0.7 -26.7 0.65 -26.85 0.55 -26.95 0.45 -26.95 0.35 -26.95 0.3 -26.95 0.25 -26.95 0.2 -26.95 0.1 -26.95 0.0 -26.95 -0.1 -26.95 -0.2 -26.95 -0.3 -26.95 -0.4 -26.95 -0.45 -26.95 -0.55 -26.95 -0.65 -26.95 -0.75 -26.95 -0.85 -26.95 -0.95 -26.95 -1.05 -26.95 -1.15 -27.0 -1.2 -27.05 -1.3 -27.05 -1.4 -27.05 -1.5 -27.05 -1.6 -27.05 -1.7 -27.05 -1.8 -27.05 -1.9 -27.05 -1.95 -27.05 -2.05 -27.05 -2.15 -27.05 -2.25 -27.05 -2.35 -27.05 -2.45 -27.05 -2.55 -27.1 -2.65 -27.15 -2.7 -27.2 -2.8 -27.2 -2.9 -27.2 -3.0 -27.2 -3.1 -27.2 -3.2 -27.2 -3.3 -27.2 -3.4 -27.2 -3.45 -27.2 -3.55 -27.2 -3.65 -27.2 -3.75 -27.25 -3.85 -27.3 -3.95 -27.3 -4.05 -27.3 -4.15 -27.3 -4.2 -27.3 -4.3 -27.3 -4.4 -27.3 -4.5 -27.3 -4.6 -27.3 -4.7 -27.3 -4.8 -27.3 -4.9 -27.3 -4.95 -27.3 -5.05 -27.3 -5.15 -27.3 -5.25 -27.3 -5.35 -27.3 -5.45 -27.3 -5.55 -27.3 -5.65 -27.3 -5.7 -27.3 -5.8 -27.3 -5.9 -27.3 -6.0 -27.3 -6.1 -27.3 -6.2 -27.3 -6.3 -27.3 -6.4 -27.3 -6.45 -27.3 -6.55 -27.3 -6.65 -27.3 -6.75 -27.3 -6.85 -27.3 -6.95 -27.3 -7.05 -27.3 -7.15 -27.3 -7.2 -27.3 -7.3 -27.3 -7.4 -27.3 -7.5 -27.3 -7.6 -27.3 -7.7 -27.25 -7.8 -27.2 -7.9 -27.2 -7.95 -27.2 -8.05 -27.15 -8.15 -27.05 -8.25 -27.05 -8.35 -26.9 -8.45 -26.8 -8.55 -26.65 -8.65 -26.55 -8.65 -26.55 -8.6 -26.55 -8.5 -26.55 -8.4 -26.55 -8.3 -26.55 -8.2 -26.55 -8.15 -26.55 -8.05 -26.6 -7.95 -26.65 -7.85 -26.7 -7.75 -26.7 -7.65 -26.7 -7.55 -26.7 -7.45 -26.7 -7.4 -26.7 -7.3 -26.7 -7.2 -26.7 -7.1 -26.7 -7.0 -26.7 -6.9 -26.7 -6.8 -26.7 -6.7 -26.7 -6.65 -26.7 -6.55 -26.7 -6.45 -26.7 -6.35 -26.7 -6.25 -26.7 -6.15 -26.7 -6.05 -26.7 -5.95 -26.7 -5.9 -26.7 -5.8 -26.7 -5.7 -26.7 -5.6 -26.7 -5.5 -26.7 -5.4 -26.7 -5.3 -26.7 -5.2 -26.7 -5.15 -26.7 -5.05 -26.7 -4.95 -26.7 -4.85 -26.7 -4.75 -26.7 -4.65 -26.7 -4.55 -26.7 -4.45 -26.7 -4.4 -26.7 -4.3 -26.7 -4.2 -26.7 -4.1 -26.7 -4.0 -26.7 -3.9 -26.7 -3.8 -26.7 -3.7 -26.7 -3.65 -26.65 -3.55 -26.6 -3.45 -26.55 -3.35 -26.55 -3.25 -26.55 -3.15 -26.45 -3.05 -26.45 -2.95 -26.45 -2.9 -26.45 -2.8 -26.45 -2.7 -26.45 -2.6 -26.45 -2.5 -26.45 -2.4 -26.45 -2.3 -26.45 -2.2 -26.45 -2.15 -26.45 -2.05 -26.45 -1.95 -26.45 -1.85 -26.45 -1.75 -26.4 -1.75 -26.4 -1.85 -26.4 -1.95 -26.4 -2.05 -26.4 -2.15 -26.4 -2.2 -26.4 -2.3 -26.4 -2.4 -26.4 -2.5 -26.4 -2.6 -26.4 -2.7 -26.4 -2.8 -26.4 -2.9 -26.4 -2.95 -26.4 -3.05 -26.4 -3.15 -26.4 -3.25 -26.4 -3.35 -26.4 -3.45 -26.4 -3.55 -26.4 -3.65 -26.4 -3.7 -26.4 -3.8 -26.4 -3.9 -26.4 -4.0 -26.35 -4.1 -26.3 -4.2 -26.25 -4.2 -26.35 -4.3 -26.4 -4.4 -26.4 -4.45 -26.4 -4.55 -26.4 -4.65 -26.4 -4.75 -26.4 -4.85 -26.4 -4.95 -26.4 -5.05 -26.4 -5.15 -26.4 -5.2 -26.4 -5.3 -26.4 -5.4 -26.45 -5.5 -26.45 -5.6 -26.45 -5.7 -26.45 -5.8 -26.45 -5.9 -26.45 -5.95 -26.45 -6.05 -26.45 -6.15 -26.45 -6.25 -26.45 -6.35 -26.45 -6.45 -26.45 -6.55 -26.45 -6.65 -26.45 -6.7 -26.45 -6.8 -26.45 -6.9 -26.45 -7.0 -26.45 -7.1 -26.45 -7.2 -26.45 -7.3 -26.45 -7.4 -26.45 -7.45 -26.45 -7.55 -26.45 -7.65 -26.45 -7.75 -26.45 -7.85 -26.45 -7.95 -26.45 -8.05 -26.45 -8.15 -26.45 -8.2 -26.45 -8.3 -26.45 -8.4 -26.45 -8.5 -26.45 -8.6 -26.45 -8.7 -26.35 -8.8 -26.3 -8.9 -26.2 -9.0 -26.2 -9.05 -22.65 -9.05 M-18.25 -8.95 L-18.0 -8.95 -17.8 -8.9 -17.65 -8.8 -17.6 -8.7 -17.55 -8.65 -17.55 -8.55 -17.55 -8.45 -17.55 -8.4 -17.55 -8.35 -17.65 -8.25 -17.7 -8.15 -17.8 -8.1 -17.85 -8.05 -18.05 -8.0 -18.15 -7.95 -18.35 -7.9 -18.45 -7.8 -18.55 -7.75 -18.6 -7.7 -18.75 -7.7 -19.95 -7.7 -22.25 -7.7 -22.4 -7.7 -19.0 -7.8 -18.85 -7.8 -18.8 -7.85 -18.7 -7.9 -18.5 -7.95 -18.45 -8.0 -18.25 -8.05 -18.1 -8.05 -18.05 -8.1 -17.95 -8.15 -17.9 -8.25 -17.8 -8.35 -17.8 -8.45 -17.8 -8.55 -17.8 -8.65 -17.85 -8.7 -17.9 -8.8 -18.05 -8.9 -18.25 -8.95 M-13.5 -9.15 L-13.05 -9.2 -9.9 -9.35 -10.85 -8.9 Q-11.45 -8.55 -11.9 -8.55 -12.7 -8.55 -13.1 -8.85 L-13.5 -9.15 M-14.25 -10.0 L-14.2 -10.05 -14.15 -10.05 -14.25 -10.0 M-9.75 -9.35 L-7.95 -9.35 -7.65 -9.15 -7.8 -9.1 -7.85 -9.0 Q-8.0 -8.85 -8.25 -8.85 L-8.3 -8.8 -8.75 -8.65 Q-9.05 -8.65 -9.25 -8.95 -9.4 -9.35 -9.75 -9.35 M-9.3 -5.55 L-9.25 -5.4 -10.15 -5.4 -10.4 -5.4 -9.8 -5.6 -9.55 -5.6 -9.3 -5.55 M-12.05 -5.5 L-12.15 -5.5 -12.4 -5.5 -12.4 -5.4 -12.5 -5.5 -12.9 -5.5 -12.95 -5.55 -13.0 -5.65 -12.05 -5.5 M-16.1 -6.95 L-16.15 -7.3 -16.0 -8.0 -15.85 -7.85 -16.1 -6.95 M-15.6 -8.65 L-15.6 -8.7 -15.4 -8.7 -15.6 -8.65 M-17.1 -9.05 L-16.55 -9.05 -16.75 -8.8 -16.8 -8.8 -16.8 -8.65 -17.1 -8.8 -17.15 -8.85 -17.15 -8.9 -17.2 -8.95 -17.1 -9.05 M-15.6 -4.65 L-15.0 -5.1 -14.95 -4.9 -14.5 -4.6 -13.7 -4.5 -13.45 -4.45 -12.95 -4.45 -14.1 -4.3 -15.05 -4.35 -15.7 -4.35 -15.6 -4.55 -15.6 -4.65 M-16.1 -5.15 L-15.9 -4.6 -15.85 -4.3 -16.25 -4.0 -16.25 -3.75 -16.65 -3.3 -16.8 -3.15 -16.8 -3.1 -17.4 -3.75 -17.4 -3.8 -17.3 -3.9 -17.3 -4.0 -17.25 -4.1 -17.2 -4.15 -17.05 -4.3 -16.95 -4.65 -16.8 -5.8 -16.8 -6.0 -16.75 -5.85 -16.7 -5.8 -16.75 -5.6 -16.7 -5.6 -16.6 -5.6 -16.1 -5.15 M-12.95 -4.5 L-12.7 -4.45 -12.95 -4.45 -12.95 -4.5 M-6.2 -7.1 L-6.2 -8.2 -6.2 -8.3 -6.25 -8.4 -6.3 -8.65 -6.3 -8.8 -6.4 -9.3 -6.4 -9.35 -6.45 -9.4 -6.5 -9.45 -6.6 -9.65 -6.75 -9.75 Q-7.0 -10.15 -7.7 -10.25 L-6.9 -10.25 -6.8 -10.2 -6.65 -10.2 -6.5 -10.15 -5.7 -9.45 -5.75 -9.15 -5.9 -7.35 -5.95 -7.1 -6.05 -7.1 -6.2 -7.1 M-6.2 -6.3 L-5.95 -6.3 -5.85 -6.15 -5.95 -6.05 -6.05 -5.95 -6.1 -5.9 -6.2 -6.05 -6.2 -6.3 M-5.95 0.1 Q-5.85 -0.05 -6.1 -0.55 L-6.05 -0.75 -6.05 -0.8 -5.75 -0.5 -5.75 -0.35 -5.7 -0.3 -5.45 -0.05 -5.75 0.15 -5.95 0.1 M-11.3 2.05 L-3.0 2.05 -2.1 2.0 -2.15 2.05 0.1 2.05 -2.25 2.25 -3.55 2.35 -9.8 2.65 -10.65 2.7 -13.4 2.7 -15.8 2.65 -15.9 2.65 -16.55 2.65 -18.55 2.5 -19.8 2.4 -19.75 2.35 -19.7 2.25 -19.5 2.15 -19.35 2.15 -18.75 2.05 -13.6 2.05 -11.3 2.05 M-26.6 1.95 L-26.75 1.9 -26.75 2.0 -27.1 2.0 -27.1 2.05 -27.95 2.05 -28.45 2.05 -28.45 2.0 -28.45 1.85 -28.45 1.8 -28.35 1.7 -27.55 1.6 -26.75 1.55 -26.75 1.3 -26.7 1.3 -26.15 1.3 -23.85 1.4 Q-23.6 1.4 -23.5 1.6 L-23.5 1.7 -26.6 1.95" fill="#999999" fill-rule="evenodd" stroke="none"/>
    <path d="M17.3 0.8 L17.45 0.85 17.25 0.85 17.3 0.8 M18.55 0.85 L18.7 0.8 18.8 0.7 18.85 0.65 18.85 0.85 18.55 0.85 M19.35 0.85 L19.6 0.8 19.8 0.85 19.35 0.85 M-17.2 -8.95 L-17.2 -9.05 -17.1 -9.05 -17.2 -8.95" fill="#006600" fill-rule="evenodd" stroke="none"/>
    <path d="M15.8 -5.2 L16.7 -4.9 16.75 -4.85 15.8 -4.85 15.8 -4.9 15.8 -5.0 15.8 -5.1 15.8 -5.2 M19.6 -4.95 Q19.9 -5.2 19.7 -5.65 L19.55 -5.8 19.3 -5.9 Q19.8 -6.15 19.85 -5.3 L20.05 -5.3 20.05 -5.15 20.05 -5.05 20.05 -4.95 19.6 -4.95 M15.0 -5.1 L15.2 -5.45 15.2 -5.35 15.2 -5.25 15.2 -5.15 15.2 -5.05 15.2 -4.95 15.2 -4.9 14.95 -4.85 15.0 -5.1 M14.75 -4.15 L14.85 -4.15 14.8 -4.05 14.7 -4.0 14.7 -4.05 14.75 -4.15 M24.0 -5.15 L24.25 -5.2 24.2 -5.2 24.1 -5.15 24.0 -5.15" fill="#009900" fill-rule="evenodd" stroke="none"/>
    <path d="M0.5 -11.65 L8.75 -11.65 8.95 -11.55 9.05 -11.5 10.25 -11.45 10.4 -11.45 10.45 -11.4 11.0 -11.4 11.2 -11.3 11.3 -11.25 12.35 -11.2 12.5 -11.2 12.55 -11.15 16.85 -11.15 17.05 -11.05 17.15 -11.0 21.6 -10.95 21.75 -10.95 21.8 -10.9 22.25 -10.9 22.4 -10.85 22.55 -10.85 23.05 -10.8 23.15 -10.7 23.2 -10.65 25.3 -10.6 25.7 -10.45 26.0 -10.3 26.15 -10.2 26.25 -10.2 26.4 -10.2 26.45 -10.15 26.75 -10.15 26.95 -10.05 27.1 -9.95 27.2 -9.9 27.3 -9.9 27.45 -9.8 27.6 -9.7 27.65 -9.65 27.7 -9.55 27.75 -9.45 27.8 -9.35 27.9 -9.25 27.95 -9.15 28.05 -9.05 28.05 -8.95 28.05 -8.9 28.05 -8.8 28.05 -8.7 28.05 -8.6 27.95 -8.5 27.9 -8.4 27.8 -8.35 27.75 -8.3 27.6 -8.3 27.55 -8.3 27.35 -8.35 27.25 -8.45 27.15 -8.55 27.1 -8.65 27.05 -8.7 27.05 -8.8 26.95 -8.9 26.9 -8.9 26.9 -8.8 27.2 -8.3 27.2 -6.6 26.7 -5.35 26.7 -5.3 26.6 -5.2 26.55 -5.1 26.5 -5.1 26.5 -5.05 26.3 -4.8 26.25 -4.9 26.15 -5.0 26.0 -5.05 25.35 -5.05 24.95 -5.05 24.9 -5.1 24.9 -5.15 25.0 -5.3 25.2 -5.4 25.3 -6.05 25.25 -6.7 25.2 -7.4 25.1 -8.15 25.05 -8.15 Q24.8 -8.2 24.7 -8.4 L24.65 -8.45 23.85 -8.65 22.85 -8.8 22.65 -8.85 22.3 -8.85 Q21.9 -8.9 21.55 -9.1 L19.8 -9.15 19.25 -9.3 19.2 -9.35 18.95 -9.35 18.7 -9.35 18.65 -9.3 18.0 -9.15 17.15 -9.15 17.2 -8.65 16.9 -8.15 16.65 -7.05 Q16.6 -6.55 16.7 -6.0 L17.05 -5.85 17.2 -5.8 18.85 -5.85 19.3 -5.9 19.55 -5.8 19.7 -5.65 Q19.9 -5.2 19.6 -4.95 L17.35 -4.95 17.2 -4.95 17.1 -4.9 16.75 -4.85 16.7 -4.9 15.8 -5.2 15.8 -5.3 15.8 -5.4 15.8 -5.45 15.75 -5.55 15.65 -5.65 15.55 -5.7 15.5 -6.15 Q15.55 -7.45 15.9 -8.65 L16.05 -8.9 16.2 -9.15 Q16.1 -9.45 16.15 -9.75 L16.2 -9.75 16.2 -9.85 16.6 -10.1 16.55 -10.15 14.7 -10.15 14.1 -10.15 14.25 -10.1 14.5 -9.95 14.6 -9.85 14.7 -9.8 14.85 -9.65 15.0 -9.15 14.95 -8.1 14.7 -7.2 14.7 -7.1 14.65 -6.35 14.5 -5.8 14.2 -5.4 Q13.7 -5.1 13.05 -5.1 L12.65 -5.05 12.05 -4.95 11.1 -5.15 9.5 -5.2 8.25 -5.3 6.25 -5.35 Q5.7 -5.35 5.45 -5.8 L5.4 -6.05 5.35 -6.15 Q5.0 -7.2 5.3 -8.3 L5.35 -8.4 5.35 -8.9 5.35 -8.95 5.4 -9.55 5.5 -9.65 5.0 -9.7 4.85 -9.7 4.8 -9.75 4.15 -9.75 3.65 -9.75 4.0 -8.8 4.0 -8.1 4.0 -7.85 4.05 -7.8 4.25 -7.7 4.35 -7.45 4.35 -6.8 4.2 -6.15 4.2 -5.65 4.0 -5.2 3.25 -4.8 2.45 -4.9 2.1 -4.85 1.6 -4.75 0.85 -4.9 0.4 -4.75 0.05 -4.75 -0.35 -4.65 -0.55 -4.7 -0.65 -4.75 -1.6 -4.65 Q-1.7 -4.5 -2.1 -4.45 L-2.25 -4.45 Q-2.6 -4.5 -2.7 -4.65 L-3.15 -4.75 -3.5 -4.95 -4.1 -4.95 -4.25 -5.1 -4.35 -4.95 -4.8 -5.05 -5.05 -4.95 -5.3 -5.1 -5.45 -5.2 Q-5.8 -5.15 -6.05 -5.5 L-6.1 -5.6 -6.4 -5.3 -6.45 -5.2 -6.5 -4.95 -6.6 -4.9 -6.75 -4.8 -6.8 -4.75 -7.2 -4.65 -7.25 -4.6 -7.75 -4.55 -7.95 -4.5 -8.25 -4.45 -8.35 -4.45 -8.4 -4.4 -8.75 -4.35 -9.25 -4.45 -9.4 -4.4 -9.75 -4.4 -9.8 -4.45 -9.9 -4.45 -10.1 -4.45 -10.45 -4.35 -10.1 -4.3 -9.75 -4.3 -9.05 -4.3 -8.75 -4.3 -7.5 -4.4 -7.45 -4.4 -7.4 -4.45 -7.25 -4.45 -7.0 -4.4 -6.85 -4.35 -6.8 -4.25 Q-6.5 -3.65 -7.0 -3.45 -6.8 -3.45 -6.7 -3.25 L-6.7 -3.2 -6.5 -3.15 -6.5 -3.1 -6.3 -3.0 -6.2 -3.0 -5.9 -2.85 Q-5.75 -2.55 -5.85 -2.1 L-5.85 -1.75 -5.85 -1.5 -5.75 -1.55 -5.65 -1.55 -5.55 -2.4 -5.35 -3.2 -5.2 -3.75 -4.55 -4.05 Q-4.3 -4.05 -4.2 -3.9 L-4.0 -3.75 -3.9 -3.4 -4.05 -3.15 -3.3 -3.3 -3.1 -3.35 -2.6 -3.55 -1.65 -3.55 -0.9 -3.55 -0.5 -3.55 0.05 -3.65 0.7 -3.75 2.2 -3.7 2.85 -3.6 3.15 -3.6 3.25 -3.6 3.35 -3.65 3.45 -3.65 3.45 -3.7 3.5 -3.7 3.7 -3.7 4.0 -3.65 4.2 -3.55 4.3 -3.3 4.15 -2.85 4.15 -2.65 4.2 -2.4 4.2 -2.15 4.2 -2.1 4.3 -1.4 4.4 -0.8 4.7 -0.8 5.1 -0.9 5.1 -1.05 5.1 -1.1 4.9 -1.75 4.9 -1.95 5.05 -2.4 5.1 -2.5 5.2 -2.5 5.55 -3.2 Q6.4 -4.4 7.95 -4.5 L8.95 -4.55 9.6 -4.5 9.85 -4.5 10.95 -4.5 11.0 -4.5 11.45 -4.5 12.05 -4.35 12.35 -4.35 12.75 -4.3 13.05 -4.25 13.2 -4.1 13.2 -4.0 13.3 -4.0 14.0 -3.75 14.05 -3.6 14.05 -3.55 14.1 -3.45 14.05 -3.4 13.8 -3.3 13.65 -3.2 13.55 -3.15 13.55 -3.05 13.55 -2.95 13.55 -2.85 13.55 -2.75 13.55 -2.65 13.55 -2.55 13.55 -2.45 13.55 -2.4 13.55 -2.3 13.3 -2.4 13.2 -2.55 7.75 -2.5 6.95 -2.5 6.9 -2.4 6.85 -2.4 6.8 -2.25 6.65 -2.05 6.5 -1.95 6.45 -1.85 6.45 -1.8 6.4 -1.75 6.4 -1.55 6.4 -1.5 Q6.95 -0.75 6.35 -0.55 L6.25 -0.4 6.2 -0.4 Q5.75 -0.5 5.6 -0.15 L5.55 0.0 5.55 0.1 5.55 0.2 5.4 0.35 5.4 0.4 4.5 0.4 4.15 0.0 3.35 -0.4 3.3 -0.55 3.25 -0.6 3.2 -0.75 3.15 -0.8 3.0 -1.25 2.65 -1.85 0.75 -2.25 0.35 -2.3 0.05 -2.5 -4.0 -2.3 -4.3 -2.6 -4.3 -2.85 -4.35 -2.8 -4.4 -2.65 -4.6 -0.55 Q-4.6 0.15 -5.3 0.0 L-5.35 -0.05 -5.45 -0.05 -5.7 -0.3 -5.75 -0.35 -5.75 -0.5 -6.05 -0.8 -6.05 -0.75 -6.1 -0.55 Q-5.85 -0.05 -5.95 0.1 -6.1 0.35 -6.5 0.4 L-6.9 0.15 -7.25 -0.2 -7.5 -0.4 -7.5 -0.55 -7.45 -2.5 Q-8.6 -2.55 -9.75 -3.0 L-9.95 -3.15 -10.7 -3.15 -11.1 -3.15 Q-11.6 -3.25 -11.9 -3.45 L-13.8 -3.35 -14.25 -3.35 -14.45 -3.25 -14.75 -3.2 -15.6 -3.05 -15.6 -3.0 -15.7 -2.9 -15.7 -2.85 -15.75 -2.8 -15.85 -2.65 -15.9 -1.75 -15.85 -1.3 Q-15.75 -1.05 -15.9 -0.75 L-15.9 -0.3 -16.1 -0.3 -16.9 -0.05 -17.05 -0.15 -17.05 0.0 -17.05 0.1 -17.2 0.15 -17.25 0.15 -17.35 0.15 -17.4 0.15 -17.65 0.1 -17.65 -0.05 -17.7 -0.15 -17.75 -0.25 -17.8 -0.35 -17.8 -0.4 -17.8 -0.65 -17.8 -1.8 -17.95 -1.85 -18.1 -1.95 -18.2 -2.05 -18.3 -2.15 -18.35 -2.2 -18.4 -2.3 -18.4 -2.4 -18.4 -2.5 -18.4 -2.6 -18.45 -2.7 -18.45 -2.8 -18.45 -2.9 -18.55 -2.95 -18.6 -3.05 -18.65 -3.15 -18.7 -3.25 -18.95 -3.35 -19.05 -3.4 -24.4 -3.4 -24.5 -3.3 -24.7 -3.25 -24.8 -3.15 -24.85 -3.05 -24.9 -2.95 -24.95 -2.9 -24.95 -2.8 -24.95 -2.7 -24.95 -2.6 -24.95 -2.5 -24.95 -2.4 -24.95 -2.3 -24.95 -2.2 -24.95 -2.15 -24.95 -2.05 -24.95 -1.95 -24.95 -1.85 -24.95 -1.75 -24.95 -1.65 -24.95 -1.55 -24.95 -1.45 -24.95 -1.4 -24.95 -1.3 -24.95 -1.2 -24.95 -1.1 -24.95 -1.0 -24.95 -0.9 -24.95 -0.8 -24.95 -0.7 -24.95 -0.65 -24.95 -0.55 -24.95 -0.45 -24.95 -0.35 -24.95 -0.25 -24.95 -0.15 -24.95 -0.05 -24.95 0.05 -24.95 0.1 -25.0 0.2 -25.05 0.3 -25.2 0.4 -25.4 0.45 -25.45 0.45 -25.65 0.4 -25.75 0.3 -25.85 0.2 -25.9 0.1 -25.9 0.05 -25.9 -0.05 -25.9 -0.15 -25.9 -0.25 -25.9 -0.35 -25.9 -0.45 -25.9 -0.55 -25.9 -0.65 -25.9 -0.7 -25.9 -0.8 -25.9 -0.9 -25.9 -1.0 -25.9 -1.1 -25.9 -1.2 -25.9 -1.3 -25.9 -1.4 -25.9 -1.45 -25.9 -1.55 -25.9 -1.65 -25.9 -1.75 -25.9 -1.85 -25.9 -1.95 -25.9 -2.05 -25.9 -2.15 -25.9 -2.2 -25.9 -2.3 -25.9 -2.4 -25.9 -2.5 -25.9 -2.6 -25.9 -2.7 -25.9 -2.8 -25.9 -2.9 -25.9 -2.95 -25.9 -3.05 -25.9 -3.15 -25.9 -3.25 -25.9 -3.35 -25.85 -3.45 -25.8 -3.55 -25.7 -3.65 -25.7 -3.7 -25.6 -3.8 -25.45 -3.9 -25.3 -4.0 -25.25 -4.05 -25.2 -4.1 -25.05 -4.2 -24.95 -4.3 -24.8 -4.35 -24.65 -4.35 -24.65 -4.4 -20.4 -4.4 -19.55 -4.4 -18.75 -4.4 -18.55 -4.3 -18.45 -4.25 -18.4 -4.2 -18.2 -4.15 -18.05 -4.05 -17.9 -3.95 -17.85 -3.9 -17.8 -3.8 -17.8 -3.7 -17.7 -3.6 -17.65 -3.55 -17.55 -3.65 -17.45 -3.7 -17.4 -3.8 -17.4 -3.75 -16.8 -3.1 -16.8 -3.15 -16.65 -3.3 -16.25 -3.75 -16.25 -4.0 -15.85 -4.3 -15.7 -4.35 -15.05 -4.35 -14.1 -4.3 -12.95 -4.45 -12.7 -4.45 -12.95 -4.5 -13.05 -4.5 -13.15 -4.5 -13.7 -4.5 -14.5 -4.6 -14.95 -4.9 -15.0 -5.1 -15.0 -5.15 -15.05 -5.15 -15.1 -5.1 -16.1 -5.15 -16.6 -5.6 -16.7 -5.8 -16.75 -5.85 -16.8 -6.0 -16.8 -5.8 -16.95 -4.65 -17.05 -4.3 -17.2 -4.15 -17.2 -4.2 -17.2 -4.3 -17.25 -4.4 -17.25 -4.45 -17.3 -4.55 -17.35 -4.65 -17.4 -4.75 -17.5 -4.85 -17.65 -4.95 -17.7 -4.95 -17.7 -5.05 -17.75 -5.15 -17.8 -5.1 -17.85 -5.05 -18.0 -5.05 -18.55 -5.0 -18.6 -4.95 -18.75 -4.95 -19.65 -4.9 -19.75 -4.8 -19.9 -4.8 -25.25 -4.8 -25.45 -4.85 -25.6 -4.95 -25.7 -5.05 -25.7 -5.15 -25.7 -5.2 -25.7 -5.3 -25.7 -5.4 -25.7 -5.5 -25.7 -5.6 -25.7 -5.7 -25.7 -5.8 -25.7 -5.9 -25.7 -5.95 -25.7 -6.05 -25.7 -6.15 -25.7 -6.25 -25.7 -6.35 -25.7 -6.45 -25.7 -6.55 -25.7 -6.65 -25.8 -6.7 -25.85 -6.8 -25.9 -6.9 -25.9 -7.0 -25.9 -7.1 -25.9 -7.2 -25.9 -7.3 -25.9 -7.4 -25.9 -7.45 -25.9 -7.55 -25.9 -7.65 -25.9 -7.75 -25.9 -7.85 -25.9 -7.95 -25.9 -8.05 -25.85 -8.15 -25.75 -8.2 -25.65 -8.3 -25.4 -8.35 -25.4 -8.4 -25.3 -8.35 -25.3 -8.45 -25.2 -8.55 -25.05 -8.6 -24.9 -8.65 -24.65 -8.7 -22.7 -8.75 -22.5 -8.75 -19.3 -8.8 -19.15 -8.85 -19.0 -8.9 -18.9 -8.9 -18.8 -8.95 -18.65 -8.95 -18.25 -8.95 -18.05 -8.9 -17.9 -8.8 -17.85 -8.7 -17.8 -8.65 -17.8 -8.55 -17.8 -8.45 -17.8 -8.35 -17.9 -8.25 -17.95 -8.15 -18.05 -8.1 -18.1 -8.05 -18.25 -8.05 -18.45 -8.0 -18.5 -7.95 -18.7 -7.9 -18.8 -7.85 -18.85 -7.8 -19.0 -7.8 -22.4 -7.7 -23.85 -7.7 -24.5 -7.7 -24.65 -7.65 -24.75 -7.55 -24.9 -7.55 -24.95 -7.55 -24.95 -7.45 -24.95 -7.4 -24.9 -7.3 -24.85 -7.2 -24.8 -7.1 -24.8 -7.0 -24.8 -6.9 -24.8 -6.8 -24.8 -6.7 -24.8 -6.65 -24.8 -6.55 -24.8 -6.45 -24.8 -6.35 -24.8 -6.25 -24.8 -6.15 -24.8 -6.05 -24.8 -5.95 -24.8 -5.9 -24.8 -5.8 -20.2 -5.8 -20.05 -5.85 -19.9 -5.9 -18.95 -5.9 -18.9 -5.95 -18.75 -5.95 -18.15 -5.95 -18.0 -7.3 -18.1 -7.65 -18.15 -7.95 -18.05 -8.0 -17.85 -8.05 -17.8 -8.1 -17.7 -8.15 -17.65 -8.25 -17.55 -8.35 -17.55 -8.4 -17.45 -8.45 -17.4 -8.55 -17.3 -8.65 -17.3 -8.75 -17.25 -8.85 -17.2 -8.95 -17.15 -8.9 -17.15 -8.85 -17.1 -8.8 -16.8 -8.65 -16.8 -8.8 -16.75 -8.8 -16.55 -9.05 -17.1 -9.05 -17.2 -9.05 -22.5 -9.05 -22.65 -9.05 -26.2 -9.05 -26.2 -9.0 -26.3 -8.9 -26.35 -8.8 -26.45 -8.7 -26.5 -8.7 -26.55 -8.65 -26.65 -8.65 -26.8 -8.55 -26.9 -8.45 -27.05 -8.35 -27.05 -8.25 -27.15 -8.15 -27.2 -8.05 -27.2 -7.95 -27.2 -7.9 -27.25 -7.8 -27.3 -7.7 -27.3 -7.6 -27.3 -7.5 -27.3 -7.4 -27.3 -7.3 -27.3 -7.2 -27.3 -7.15 -27.3 -7.05 -27.3 -6.95 -27.3 -6.85 -27.3 -6.75 -27.3 -6.65 -27.3 -6.55 -27.3 -6.45 -27.3 -6.4 -27.3 -6.3 -27.3 -6.2 -27.3 -6.1 -27.3 -6.0 -27.3 -5.9 -27.3 -5.8 -27.3 -5.7 -27.3 -5.65 -27.3 -5.55 -27.3 -5.45 -27.3 -5.35 -27.3 -5.25 -27.3 -5.15 -27.3 -5.05 -27.3 -4.95 -27.3 -4.9 -27.3 -4.8 -27.3 -4.7 -27.3 -4.6 -27.3 -4.5 -27.3 -4.4 -27.3 -4.3 -27.3 -4.2 -27.3 -4.15 -27.3 -4.05 -27.3 -3.95 -27.25 -3.85 -27.2 -3.75 -27.2 -3.65 -27.2 -3.55 -27.2 -3.45 -27.2 -3.4 -27.2 -3.3 -27.2 -3.2 -27.2 -3.1 -27.2 -3.0 -27.2 -2.9 -27.2 -2.8 -27.15 -2.7 -27.1 -2.65 -27.05 -2.55 -27.05 -2.45 -27.05 -2.35 -27.05 -2.25 -27.05 -2.15 -27.05 -2.05 -27.05 -1.95 -27.05 -1.9 -27.05 -1.8 -27.05 -1.7 -27.05 -1.6 -27.05 -1.5 -27.05 -1.4 -27.05 -1.3 -27.0 -1.2 -26.95 -1.15 -26.95 -1.05 -26.95 -0.95 -26.95 -0.85 -26.95 -0.75 -26.95 -0.65 -26.95 -0.55 -26.95 -0.45 -26.95 -0.4 -26.95 -0.3 -26.95 -0.2 -26.95 -0.1 -26.95 0.0 -26.95 0.1 -26.95 0.2 -26.95 0.25 -27.0 0.3 -27.05 0.35 -27.15 0.45 -27.25 0.55 -27.4 0.55 -27.65 0.5 -27.7 0.45 -27.75 0.4 -27.85 0.3 -27.9 0.2 -27.9 0.1 -27.9 0.05 -27.9 -0.05 -27.9 -0.15 -27.9 -0.25 -27.9 -0.35 -27.9 -0.45 -27.9 -0.55 -27.9 -0.65 -27.9 -0.7 -27.9 -0.8 -27.9 -0.9 -27.95 -1.0 -27.95 -1.1 -27.95 -1.2 -27.95 -1.3 -27.95 -1.4 -27.95 -1.45 -27.95 -1.55 -27.95 -1.65 -27.95 -1.75 -27.95 -1.85 -27.95 -1.95 -27.95 -2.05 -27.95 -2.15 -28.05 -2.2 -28.1 -2.3 -28.15 -2.4 -28.15 -2.5 -28.15 -2.6 -28.15 -2.7 -28.15 -2.8 -28.15 -2.9 -28.15 -2.95 -28.15 -3.05 -28.15 -3.15 -28.15 -3.25 -28.15 -3.35 -28.2 -3.45 -28.2 -3.55 -28.2 -3.65 -28.2 -3.7 -28.2 -3.8 -28.2 -3.9 -28.2 -4.0 -28.2 -4.1 -28.2 -4.2 -28.2 -4.3 -28.2 -4.4 -28.2 -4.45 -28.2 -4.55 -28.2 -4.65 -28.2 -4.75 -28.2 -4.85 -28.2 -4.95 -28.2 -5.05 -28.2 -5.15 -28.2 -5.2 -28.2 -5.3 -28.2 -5.4 -28.2 -5.5 -28.2 -5.6 -28.2 -5.7 -28.2 -5.8 -28.2 -5.9 -28.2 -5.95 -28.2 -6.05 -28.2 -6.15 -28.2 -6.25 -28.2 -6.35 -28.2 -6.45 -28.2 -6.55 -28.2 -6.65 -28.2 -6.7 -28.4 -6.75 -28.5 -6.85 -28.6 -6.95 -28.65 -7.05 -28.65 -7.15 -28.65 -7.2 -28.65 -7.3 -28.65 -7.4 -28.65 -7.5 -28.65 -7.6 -28.65 -7.7 -28.65 -7.8 -28.6 -7.9 -28.5 -7.95 -28.45 -8.05 -28.4 -8.15 -28.4 -8.25 -28.4 -8.35 -28.35 -8.45 -28.3 -8.55 -28.2 -8.65 -28.2 -8.7 -28.2 -8.8 -28.15 -8.9 -28.05 -9.0 -28.0 -9.1 -27.95 -9.2 -27.95 -9.3 -27.95 -9.4 -27.9 -9.45 -27.9 -9.55 -27.85 -9.65 -27.8 -9.75 -27.75 -9.85 -27.7 -9.95 -27.7 -10.05 -27.7 -10.15 -27.6 -10.2 -27.45 -10.3 -27.35 -10.4 -27.3 -10.5 -27.2 -10.6 -27.15 -10.65 -27.05 -10.7 -26.9 -10.7 -26.7 -10.8 -26.55 -10.85 -26.4 -10.9 -25.95 -10.9 -25.9 -10.95 -25.7 -11.0 -25.65 -11.05 -25.55 -11.1 -25.4 -11.15 -18.0 -11.15 -17.8 -11.05 -17.7 -11.0 -10.7 -11.05 -10.55 -11.1 -10.4 -11.15 -8.15 -11.15 -8.05 -11.2 -7.9 -11.2 -7.35 -11.2 -7.3 -11.3 -7.15 -11.35 -7.0 -11.35 -7.0 -11.4 -6.8 -11.3 -6.7 -11.25 -5.7 -11.3 -5.55 -11.35 -5.4 -11.4 -2.4 -11.4 -2.3 -11.45 -2.15 -11.45 -1.7 -11.55 -1.55 -11.6 -1.4 -11.6 -1.4 -11.65 -0.4 -11.65 0.5 -11.65 M27.6 -8.15 L27.75 -8.2 27.95 -8.15 28.1 -8.05 28.15 -7.95 28.2 -7.9 28.2 -7.8 28.2 -7.7 28.2 -7.6 28.2 -7.5 28.2 -7.4 28.2 -7.3 28.2 -7.2 28.2 -7.15 28.2 -7.05 28.2 -6.95 28.2 -6.85 28.2 -6.75 28.2 -6.65 28.2 -6.55 28.2 -6.45 28.2 -6.4 28.2 -6.3 28.2 -6.2 28.2 -6.1 28.2 -6.0 28.2 -5.9 28.2 -5.8 28.2 -5.7 28.2 -5.65 28.2 -5.55 28.2 -5.45 28.2 -5.35 28.2 -5.25 28.2 -5.15 28.2 -5.05 28.25 -4.95 28.3 -4.9 28.3 -4.8 28.3 -4.7 28.3 -4.5 28.35 -4.4 28.45 -4.3 28.45 -4.2 28.45 -4.15 28.45 -4.05 28.45 -3.95 28.45 -3.85 28.45 -3.75 28.45 -3.65 28.55 -3.55 28.55 -3.45 28.55 -3.4 28.6 -3.3 28.65 -3.2 28.7 -3.1 28.7 -3.0 28.7 -2.9 28.7 -2.8 28.7 -2.7 28.7 -2.65 28.7 -2.55 28.7 -2.45 28.7 -2.35 28.7 -2.25 28.7 -2.15 28.7 -2.05 28.7 -1.95 28.7 -1.9 28.7 -1.8 28.7 -1.7 28.7 -1.6 28.7 -1.5 28.7 -1.4 28.7 -1.3 28.7 -1.2 28.7 -1.15 28.7 -1.05 28.7 -0.95 28.7 -0.85 28.7 -0.75 28.7 -0.65 28.7 -0.55 28.7 -0.45 28.7 -0.4 28.7 -0.3 28.7 -0.2 28.7 -0.1 28.7 0.0 28.7 0.1 28.7 0.2 28.7 0.3 28.7 0.35 28.7 0.45 28.7 0.55 28.7 0.65 28.6 0.75 28.6 0.85 28.7 0.85 28.8 0.85 28.95 0.95 29.15 1.05 29.3 1.05 29.5 1.1 29.5 1.15 29.45 1.25 29.3 1.25 29.15 1.25 28.75 1.25 28.75 1.45 28.7 1.65 28.65 1.7 28.75 1.7 28.75 1.9 28.9 2.0 28.9 2.05 29.6 2.05 29.6 2.1 29.6 2.85 29.6 3.0 29.15 3.0 26.7 3.3 26.0 3.55 24.4 3.5 24.2 3.5 12.15 3.5 11.85 3.55 Q9.6 3.85 7.75 3.1 -1.2 3.3 -10.15 3.0 L-18.75 2.85 -25.7 2.8 -26.5 2.95 -26.75 3.0 -26.8 3.0 -26.8 3.05 -28.15 2.8 -29.0 2.9 -29.0 2.6 -29.0 2.05 -29.0 1.85 -29.1 1.65 -29.15 1.55 -29.2 1.45 -29.25 1.35 -29.3 1.3 -29.3 1.2 -29.3 1.0 -29.3 0.95 -28.6 0.95 -27.6 0.95 -26.75 0.95 -26.75 1.05 -26.6 0.95 -9.35 1.05 -8.95 1.05 -4.35 1.6 -5.55 1.45 -7.5 1.3 -7.5 1.4 -8.2 1.6 -8.35 1.65 -12.45 1.65 -12.7 1.6 -13.1 1.5 -13.2 1.5 -13.25 1.6 -13.4 1.6 -13.5 1.7 -13.55 1.85 -13.6 1.95 -13.6 2.05 -18.75 2.05 -19.35 2.15 -19.5 2.15 -19.7 2.25 -19.75 2.35 -19.8 2.4 -18.55 2.5 -16.55 2.65 -15.9 2.65 -15.8 2.65 -13.4 2.7 -10.65 2.7 -9.8 2.65 -3.55 2.35 -2.25 2.25 0.1 2.05 -2.15 2.05 -2.1 2.0 -3.0 2.05 -11.3 2.05 -4.2 1.85 -4.15 1.85 -3.9 1.9 -3.85 1.45 -3.85 1.4 -3.5 0.95 -3.3 0.95 -3.0 0.9 -1.9 0.8 -1.4 0.75 3.25 0.8 5.55 0.8 6.2 0.8 6.4 0.8 13.7 0.85 16.3 0.85 16.25 0.8 16.15 0.7 16.1 0.6 16.1 0.55 16.1 0.45 16.1 0.35 16.1 0.25 16.1 0.15 16.1 0.05 16.1 -0.05 16.1 -0.15 16.1 -0.2 16.1 -0.3 16.1 -0.4 16.1 -0.5 16.1 -0.6 16.1 -0.7 16.1 -0.8 16.1 -0.9 16.05 -0.95 16.05 -1.05 16.05 -1.15 16.05 -1.25 16.05 -1.35 16.05 -1.45 16.05 -1.55 16.05 -1.65 16.05 -1.7 16.05 -1.8 16.05 -1.9 16.05 -2.0 16.05 -2.1 16.05 -2.2 16.05 -2.3 16.05 -2.4 16.05 -2.45 16.05 -2.55 16.05 -2.65 16.05 -2.75 16.05 -2.85 16.05 -2.95 16.1 -3.05 16.15 -3.15 16.25 -3.2 16.3 -3.3 16.35 -3.4 16.45 -3.5 16.55 -3.6 16.55 -3.7 16.6 -3.8 16.65 -3.9 16.75 -3.95 16.85 -4.05 17.1 -4.15 17.15 -4.15 17.35 -4.2 19.0 -4.2 23.1 -4.2 23.25 -4.2 23.3 -4.15 24.6 -4.15 24.8 -4.05 24.95 -3.95 25.05 -3.9 25.1 -3.9 25.3 -3.8 25.45 -3.7 25.6 -3.65 25.7 -3.75 25.8 -3.85 25.85 -3.9 25.95 -3.95 26.1 -3.95 26.3 -3.9 26.45 -3.8 26.5 -3.7 26.55 -3.65 26.55 -3.55 26.55 -3.45 26.55 -3.35 26.45 -3.25 26.45 -3.15 26.45 -3.05 26.45 -2.95 26.45 -2.9 26.45 -2.8 26.45 -2.7 26.55 -2.6 26.65 -2.5 26.7 -2.4 26.8 -2.3 26.85 -2.2 26.9 -2.15 26.95 -2.05 27.0 -1.95 27.05 -1.85 27.1 -1.75 27.2 -1.65 27.2 -1.55 27.2 -1.45 27.2 -1.4 27.2 -1.3 27.25 -1.2 27.3 -1.1 27.3 -1.0 27.3 -0.9 27.3 -0.8 27.3 -0.7 27.3 -0.65 27.3 -0.55 27.3 -0.45 27.3 -0.35 27.3 -0.25 27.3 -0.15 27.3 -0.05 27.3 0.05 27.3 0.1 27.3 0.2 27.3 0.3 27.3 0.4 27.3 0.5 27.3 0.6 27.3 0.7 27.3 0.8 27.3 0.85 27.25 0.95 27.2 1.05 27.1 1.1 27.05 1.15 27.1 1.2 27.2 1.3 27.25 1.3 27.35 1.4 27.6 1.45 27.75 1.45 27.6 1.4 27.5 1.3 27.4 1.2 27.35 1.1 27.35 1.05 27.35 0.95 27.4 0.85 27.45 0.75 27.55 0.65 27.6 0.55 27.6 0.45 27.6 0.35 27.65 0.3 27.75 0.2 27.8 0.1 27.8 0.0 27.8 -0.1 27.8 -0.2 27.8 -0.3 27.8 -0.4 27.8 -0.45 27.8 -0.55 27.8 -0.65 27.8 -0.75 27.8 -0.85 27.8 -0.95 27.8 -1.05 27.8 -1.15 27.8 -1.2 27.8 -1.3 27.8 -1.4 27.8 -1.5 27.8 -1.6 27.8 -1.7 27.8 -1.8 27.8 -1.9 27.8 -1.95 27.8 -2.05 27.8 -2.15 27.8 -2.25 27.8 -2.35 27.8 -2.45 27.8 -2.55 27.8 -2.65 27.7 -2.7 27.65 -2.8 27.6 -2.9 27.6 -3.0 27.6 -3.1 27.55 -3.2 27.55 -3.3 27.55 -3.4 27.55 -3.45 27.55 -3.55 27.55 -3.65 27.55 -3.75 27.5 -3.85 27.4 -3.95 27.35 -4.05 27.35 -4.15 27.35 -4.2 27.35 -4.3 27.35 -4.4 27.35 -4.5 27.35 -4.6 27.35 -4.7 27.35 -4.75 27.3 -4.8 27.3 -4.9 27.3 -4.95 27.3 -5.05 27.3 -5.15 27.3 -5.25 27.3 -5.35 27.3 -5.45 27.3 -5.5 27.3 -5.55 27.3 -5.65 27.3 -5.7 27.3 -5.8 27.3 -5.9 27.3 -6.0 27.3 -6.1 27.3 -6.2 27.3 -6.3 27.3 -6.4 27.3 -6.45 27.3 -6.55 27.3 -6.65 27.3 -6.75 27.3 -6.85 27.3 -6.95 27.3 -7.05 27.3 -7.15 27.3 -7.2 27.3 -7.3 27.3 -7.4 27.3 -7.5 27.3 -7.6 27.3 -7.7 27.3 -7.8 27.3 -7.9 27.3 -7.95 27.4 -8.05 27.55 -8.15 27.6 -8.15 M10.3 -9.65 L9.55 -9.4 6.9 -9.35 6.85 -9.3 6.4 -9.2 6.45 -8.45 6.25 -7.55 6.2 -7.0 6.4 -6.35 6.45 -6.25 10.9 -6.15 11.9 -6.15 Q12.4 -6.0 13.0 -6.15 L13.5 -6.25 13.65 -7.05 13.75 -7.7 13.8 -8.8 13.95 -8.85 13.95 -8.95 13.5 -9.4 11.75 -9.85 11.7 -9.85 11.55 -9.85 11.45 -9.9 11.35 -9.95 10.05 -10.25 10.15 -10.15 10.3 -9.65 M2.9 -9.75 L2.75 -9.75 2.8 -9.6 2.85 -9.65 2.95 -9.75 2.9 -9.75 M0.75 -9.15 L-0.3 -9.1 -0.9 -9.1 -2.6 -9.15 -4.65 -9.2 -4.65 -9.15 -4.75 -8.8 -4.8 -8.8 -4.65 -8.5 Q-4.6 -8.2 -4.8 -8.05 L-4.8 -6.85 -4.8 -6.8 Q-4.4 -6.8 -4.25 -6.6 L-4.2 -6.55 -3.8 -6.3 -3.75 -6.25 -3.7 -6.15 -3.05 -6.05 -2.95 -5.95 -2.95 -5.9 -2.85 -5.9 -2.85 -5.85 -2.2 -5.6 -2.15 -5.55 -2.1 -5.55 -1.15 -5.8 -0.55 -5.9 -0.2 -5.85 0.75 -5.95 1.4 -5.8 2.0 -5.85 2.2 -6.15 2.05 -6.15 2.05 -6.25 2.0 -7.35 2.0 -8.65 1.8 -8.85 1.75 -8.9 1.55 -9.1 0.75 -9.15 M20.6 -4.95 L20.05 -4.95 20.05 -5.05 20.05 -5.15 20.05 -5.3 20.05 -5.35 20.1 -5.4 20.2 -5.55 20.35 -5.6 20.55 -5.6 23.6 -5.3 23.9 -5.15 23.5 -5.15 23.35 -5.1 23.2 -5.05 21.25 -5.0 20.6 -4.95 M17.45 -3.15 L17.4 -3.05 17.35 -2.95 17.2 -2.85 17.1 -2.75 17.05 -2.65 17.0 -2.55 16.95 -2.45 16.95 -2.4 16.95 -2.3 16.95 -2.2 16.95 -2.1 16.95 -2.0 16.95 -1.9 16.95 -1.8 16.95 -1.7 16.95 -1.65 16.95 -1.55 16.95 -1.45 17.0 -1.35 17.05 -1.25 17.05 -1.15 17.05 -1.05 17.05 -0.95 17.05 -0.9 17.05 -0.8 17.05 -0.7 17.05 -0.6 17.05 -0.5 17.05 -0.4 17.05 -0.3 17.05 -0.2 17.05 -0.15 17.05 -0.05 17.05 0.05 17.05 0.15 17.05 0.25 17.05 0.35 17.05 0.45 17.05 0.55 17.05 0.6 17.0 0.7 16.95 0.8 16.9 0.85 17.25 0.85 17.45 0.85 17.65 0.95 17.8 0.95 18.0 1.0 18.2 0.95 18.35 0.95 18.55 0.85 18.85 0.85 19.35 0.85 19.8 0.85 20.0 0.95 20.15 0.95 20.35 1.0 24.85 1.0 25.05 0.95 25.2 0.95 25.3 0.9 25.35 0.85 25.5 0.8 25.6 0.8 26.1 0.8 25.85 0.75 25.8 0.7 25.75 0.65 25.65 0.55 25.6 0.45 25.6 0.35 25.6 0.3 25.6 0.2 25.6 0.1 25.55 0.0 25.55 -0.1 25.55 -0.2 25.55 -0.3 25.55 -0.4 25.55 -0.45 25.55 -0.55 25.55 -0.65 25.55 -0.75 25.55 -0.85 25.55 -0.95 25.55 -1.05 25.55 -1.15 25.55 -1.2 25.55 -1.3 25.55 -1.4 25.55 -1.5 25.55 -1.6 25.55 -1.7 25.55 -1.8 25.55 -1.9 25.55 -1.95 25.55 -2.05 25.55 -2.15 25.45 -2.2 25.4 -2.3 25.35 -2.4 25.35 -2.5 25.25 -2.6 25.15 -2.7 25.1 -2.75 25.05 -2.8 24.85 -2.85 24.7 -2.95 24.6 -3.0 24.55 -3.05 24.35 -3.1 24.3 -3.15 23.25 -3.2 23.1 -3.2 23.05 -3.25 17.5 -3.2 17.45 -3.15 M25.5 -9.35 L25.45 -9.4 25.1 -9.45 24.95 -9.45 24.85 -9.5 24.45 -9.5 25.45 -9.15 26.0 -8.7 26.0 -8.85 25.8 -9.1 25.65 -9.2 25.65 -9.3 25.55 -9.35 25.5 -9.35 M23.2 -9.65 L23.8 -9.6 23.7 -9.65 23.2 -9.65 M26.3 0.75 L26.25 0.8 26.35 0.9 26.4 0.95 26.35 0.85 26.35 0.8 26.35 0.75 26.3 0.75 M26.25 2.1 L26.3 2.05 26.1 2.1 25.5 2.1 25.2 2.05 25.85 2.05 26.2 2.0 24.6 2.0 24.4 2.05 23.05 2.05 23.05 2.1 23.0 2.2 22.95 2.25 20.8 2.25 20.75 2.25 20.1 2.25 19.9 2.25 18.85 2.25 21.05 2.4 23.0 2.45 25.0 2.35 26.2 2.25 26.2 2.2 26.25 2.1 M8.35 2.25 L8.15 2.25 6.95 2.15 6.8 2.05 1.05 2.05 8.15 2.7 8.6 2.8 13.7 2.95 13.75 2.95 13.75 2.85 13.8 2.8 13.8 2.75 13.8 2.65 13.8 2.55 13.65 2.45 11.5 2.35 13.15 2.25 12.1 2.25 10.45 2.3 8.35 2.25 M8.35 2.0 L8.25 2.0 8.2 2.05 17.4 2.05 Q12.95 1.7 8.35 2.0 M-22.65 -10.15 L-25.15 -10.15 -25.25 -10.05 -25.4 -10.05 -25.7 -10.0 -25.7 -9.95 -25.75 -9.95 -16.6 -9.95 -16.55 -9.95 -16.55 -10.05 -16.65 -10.05 -18.0 -10.05 -18.2 -10.1 -18.3 -10.15 -19.0 -10.15 -22.65 -10.15 M-14.25 -10.0 L-14.15 -10.05 -14.2 -10.05 -14.25 -10.0 M-9.9 -9.35 L-13.05 -9.2 -13.5 -9.15 -14.2 -9.1 -15.15 -8.8 Q-15.3 -8.7 -15.4 -8.7 L-15.6 -8.7 -15.6 -8.65 -15.65 -8.55 -15.8 -8.3 -15.85 -8.2 -16.0 -8.0 -16.15 -7.3 -16.1 -6.95 -16.05 -6.7 -16.05 -6.65 -15.9 -6.55 -15.9 -6.4 -15.85 -6.3 -15.85 -6.25 -15.8 -6.25 -15.7 -6.15 -15.65 -6.05 -15.65 -6.0 -15.15 -5.95 -15.05 -5.95 -14.85 -5.85 -14.35 -5.65 -14.25 -5.6 -14.1 -5.65 -13.95 -5.65 -13.9 -5.65 -13.8 -5.6 -13.65 -5.65 -13.4 -5.85 -13.05 -5.8 -13.0 -5.65 -12.95 -5.55 -12.9 -5.5 -12.5 -5.5 -12.4 -5.4 -12.4 -5.5 -12.15 -5.5 -12.05 -5.5 -11.95 -5.5 -11.9 -5.55 -11.75 -5.6 Q-11.65 -5.6 -11.65 -5.65 L-11.6 -5.65 -11.5 -5.65 -11.45 -5.6 -11.3 -5.5 -11.15 -5.4 -11.15 -5.3 -10.8 -5.35 -10.4 -5.4 -10.15 -5.4 -9.25 -5.4 -9.3 -5.55 -9.35 -5.6 -9.35 -6.0 -9.25 -6.15 -9.2 -6.25 -9.1 -6.25 -9.0 -6.25 -8.95 -6.25 Q-8.35 -6.15 -7.95 -5.85 L-7.95 -5.8 -7.75 -5.6 -7.45 -5.8 -7.4 -6.15 -7.3 -6.4 -7.25 -6.55 Q-7.0 -7.3 -7.25 -8.05 L-7.3 -8.45 -7.3 -8.8 -7.4 -8.85 -7.5 -9.0 -7.5 -9.15 -7.65 -9.15 -7.95 -9.35 -9.75 -9.35 -9.9 -9.35 M-6.5 -10.15 L-6.65 -10.2 -6.8 -10.2 -6.9 -10.25 -7.7 -10.25 Q-7.0 -10.15 -6.75 -9.75 L-6.6 -9.65 -6.5 -9.45 -6.45 -9.4 -6.4 -9.35 -6.4 -9.3 -6.3 -8.8 -6.3 -8.65 -6.25 -8.4 -6.2 -8.3 -6.2 -8.2 -6.2 -7.1 -6.2 -7.0 -6.2 -6.3 -6.2 -6.05 -6.1 -5.9 -6.05 -5.95 -5.95 -6.05 -5.85 -6.15 -5.95 -6.3 -6.1 -6.7 -5.95 -7.1 -5.9 -7.35 -5.75 -9.15 -5.7 -9.45 -5.4 -9.95 -5.5 -10.0 -5.9 -10.05 -6.15 -10.1 -6.2 -10.15 -6.5 -10.15 M-4.3 -2.9 L-4.2 -3.0 -4.3 -3.0 -4.3 -2.9 M-26.6 1.95 L-26.2 2.05 -26.1 2.05 -22.6 2.05 -22.65 2.0 -22.65 1.95 -22.65 1.85 -22.65 1.7 -22.6 1.65 -23.5 1.7 -23.5 1.6 Q-23.6 1.4 -23.85 1.4 L-26.15 1.3 -26.7 1.3 -26.75 1.3 -26.75 1.55 -27.55 1.6 -28.35 1.7 -28.45 1.8 -28.45 1.85 -28.45 2.0 -28.45 2.05 -27.95 2.05 -27.1 2.05 -26.75 2.05 -26.75 2.0 -26.75 1.9 -26.6 1.95" fill="#666666" fill-rule="evenodd" stroke="none"/>
    <path d="M28.6 0.75 L28.65 0.8 28.7 0.85 28.6 0.85 28.6 0.75 M-27.6 0.95 L-28.2 0.5 Q-28.45 0.2 -28.3 -0.3 -28.2 -0.5 -27.95 -0.5 L-27.95 -0.45 -27.95 -0.35 -27.95 -0.25 -27.9 -0.15 -27.9 -0.05 -27.9 0.05 -27.9 0.1 -27.9 0.2 -27.85 0.3 -27.75 0.4 -27.7 0.45 -27.7 0.5 -27.6 0.6 -27.5 0.7 -27.4 0.8 -27.2 0.85 -27.0 0.85 -26.9 0.85 -26.7 0.85 -26.5 0.85 -26.3 0.85 -26.6 0.95 -26.75 1.05 -26.75 0.95 -27.6 0.95 M-5.75 0.45 L-5.25 0.35 Q-4.9 0.0 -4.35 0.0 L-4.15 0.15 -4.05 0.6 -4.25 0.95 -7.55 0.95 -7.75 0.95 Q-8.3 0.5 -8.35 -0.05 L-8.3 -0.3 -8.25 -0.4 -8.0 -0.5 -8.0 -0.55 -7.9 -0.55 -7.5 -0.4 -7.25 -0.2 -6.9 0.15 -6.5 0.4 -5.85 0.45 -5.75 0.45 M-15.9 -0.3 L-15.7 -0.15 Q-15.55 0.15 -15.75 0.45 L-16.15 0.75 -16.25 0.8 -16.55 0.95 -18.1 0.95 -18.25 0.9 -18.55 0.65 -18.7 0.0 -18.5 -0.35 -18.2 -0.4 -18.0 -0.4 -17.8 -0.35 -17.75 -0.25 -17.7 -0.15 -17.65 -0.05 -17.65 0.1 -17.4 0.15 -17.35 0.15 -17.25 0.15 -17.2 0.15 -17.05 0.1 -17.05 0.0 -16.9 -0.05 -16.1 -0.3 -15.9 -0.3 M-25.45 0.45 L-25.6 0.5 -26.1 0.75 -26.05 0.7 -25.95 0.6 -25.9 0.55 -25.8 0.45 -25.8 0.35 -25.75 0.3 -25.65 0.4 -25.45 0.45 M3.25 0.8 L3.1 0.6 2.8 0.4 2.75 -0.15 2.85 -0.3 3.0 -0.4 3.15 -0.4 3.25 -0.4 3.35 -0.4 4.15 0.0 4.5 0.4 5.4 0.4 5.4 0.35 5.55 0.2 5.55 0.1 5.55 0.0 5.6 -0.15 Q5.75 -0.5 6.2 -0.4 L6.25 -0.4 6.45 -0.25 Q6.7 0.45 6.4 0.8 L6.2 0.8 5.55 0.8 3.25 0.8 M13.7 0.85 Q13.4 0.45 13.45 -0.05 L13.55 -0.15 13.55 -0.05 13.65 0.05 13.8 0.15 14.0 0.2 14.05 0.2 14.05 0.25 14.15 0.35 14.35 0.4 14.5 0.4 14.6 0.35 14.7 0.35 14.75 0.35 14.85 0.45 14.95 0.45 15.15 0.5 15.35 0.55 15.55 0.55 15.65 0.65 15.8 0.75 16.0 0.8 16.1 0.8 16.25 0.8 16.3 0.85 13.7 0.85 M17.05 0.6 L17.15 0.7 17.3 0.8 17.25 0.85 16.9 0.85 16.95 0.8 17.0 0.7 17.05 0.6 M25.6 0.8 L25.7 0.75 25.8 0.7 25.85 0.75 26.1 0.8 25.6 0.8" fill="#000000" fill-rule="evenodd" stroke="none"/>
    <path d="M-8.0 0.15 L-8.25 0.0 -8.8 -0.05 -8.9 -0.05 -8.95 -0.05 -9.05 0.0 -9.2 0.1 -9.2 0.15 Q-9.3 -0.05 -9.5 -0.05 L-9.6 -0.05 -9.9 -0.15 -9.3 -0.6 -9.2 -0.6 -8.95 -0.65 -8.35 -0.5 -8.05 -0.35 -8.0 -0.15 -7.95 0.1 -7.95 0.2 -8.0 0.15 M-20.1 -0.55 L-21.05 -0.55 -21.0 -0.6 -20.85 -0.6 -20.7 -0.65 -20.1 -0.55 M15.0 0.35 L15.0 0.25 14.65 0.1 14.25 0.15 14.15 0.15 13.75 0.1 13.6 0.1 12.65 0.25 12.6 0.25 12.6 0.2 12.6 0.1 12.55 0.0 12.5 -0.05 12.15 -0.3 11.5 -0.15 11.4 -0.15 10.7 -0.35 8.45 -0.35 7.75 -0.2 7.55 -0.15 7.1 -0.15 6.8 0.0 6.65 -0.05 6.2 0.15 5.4 0.15 5.4 0.1 5.4 -0.05 5.4 -0.2 5.4 -0.5 5.45 -0.55 5.7 -0.8 6.05 -1.05 6.2 -1.05 6.4 -1.1 7.4 -1.0 10.0 -0.75 10.5 -0.6 13.4 -0.4 13.6 -0.25 13.75 0.1 15.0 0.0 15.5 0.25 15.0 0.35 M15.9 0.2 L17.7 0.1 17.75 0.15 17.65 0.15 17.65 0.2 16.2 0.15 15.9 0.2 M19.2 0.1 L19.35 0.1 19.25 0.25 19.2 0.25 19.2 0.1 M24.75 -0.25 L25.1 -0.2 25.0 -0.2 25.0 -0.15 24.8 -0.15 24.75 -0.25 M25.85 -0.05 L26.35 0.0 26.75 0.25 26.9 0.75 26.8 0.75 26.75 0.7 26.7 0.6 26.35 0.35 Q26.2 0.1 25.85 -0.05 M-7.8 0.25 L-7.25 0.2 -7.25 0.35 -7.5 0.35 -7.55 0.35 -7.75 0.25 -7.8 0.25" fill="#333333" fill-opacity="0.45882353" fill-rule="evenodd" stroke="none"/>
    <path d="M3.65 0.1 L3.15 -0.15 2.8 -0.05 2.6 -0.15 1.15 -0.2 -3.05 0.1 Q-3.55 0.15 -3.85 0.45 L-3.9 0.35 Q-4.1 0.1 -4.3 0.15 L-4.8 0.35 -5.3 0.45 -6.1 0.85 -6.25 0.85 -7.0 0.85 -7.0 0.8 -7.25 0.75 -7.4 0.7 Q-7.55 0.45 -7.75 0.45 L-8.0 0.2 -8.0 0.15 -7.95 0.2 -7.8 0.25 -7.75 0.25 -7.55 0.35 -7.5 0.35 -7.25 0.35 -7.25 0.2 Q-6.25 -0.75 -4.65 -0.2 L-4.0 0.1 -3.15 0.1 -2.6 -0.05 -1.45 0.0 -0.15 -0.4 0.9 -1.05 1.1 -1.05 1.25 -1.1 Q2.3 -1.15 3.1 -0.55 L3.8 0.0 4.5 -0.05 5.35 0.15 5.4 0.15 6.2 0.15 6.1 0.2 5.7 0.65 5.55 0.65 5.4 0.45 Q5.1 0.1 4.65 0.1 L3.65 0.1 M-17.05 0.45 L-17.95 0.35 -18.0 0.1 -18.0 -0.05 -17.3 0.4 -17.05 0.35 -17.05 0.45 M-26.4 0.1 L-26.5 0.1 -26.5 0.15 -26.75 0.3 -26.75 -0.6 -27.25 -0.55 -27.35 -0.55 -27.25 -0.6 -27.05 -0.6 -26.8 -0.65 -26.6 -0.6 -26.25 -0.5 -25.45 -0.4 Q-26.05 -0.3 -26.4 0.1 M7.55 0.95 L7.65 0.9 7.95 0.95 7.55 0.95 M15.55 0.95 L15.15 0.75 15.05 0.6 15.0 0.45 15.0 0.35 15.5 0.25 15.9 0.2 16.2 0.15 17.65 0.2 15.75 0.95 15.55 0.95 M26.9 0.75 L27.85 0.75 27.0 0.95 26.8 0.75 26.9 0.75" fill="#333333" fill-opacity="0.67058825" fill-rule="evenodd" stroke="none"/>
    <path d="M-9.2 0.15 L-9.25 0.2 -9.25 0.25 -9.3 0.2 -9.35 0.15 -9.35 0.1 -9.5 -0.05 Q-9.3 -0.05 -9.2 0.15 M-10.15 -0.05 L-10.95 0.15 -11.45 0.25 -12.6 0.45 -14.15 0.15 -14.35 0.0 -14.7 -0.15 -14.8 -0.15 -14.95 -0.05 -15.0 -0.05 -15.1 0.0 Q-15.7 -0.15 -16.25 0.35 L-17.05 0.45 -17.05 0.35 -17.05 0.15 -16.95 0.1 -16.7 -0.2 -16.35 -0.4 -16.2 -0.4 -16.05 -0.4 -13.9 -0.4 -10.15 -0.05 M-22.45 -0.55 L-24.9 -0.5 -25.35 -0.2 -25.45 -0.2 -25.95 -0.15 -26.1 -0.05 -26.4 0.1 Q-26.05 -0.3 -25.45 -0.4 L-23.95 -0.55 -22.45 -0.55 M-27.65 -0.4 L-27.85 -0.3 -28.45 -0.15 -28.45 -0.2 -28.6 -0.3 -28.75 -0.35 -28.85 -0.35 -28.75 -0.4 -28.6 -0.4 -28.35 -0.4 -27.95 -0.4 -27.65 -0.4 M5.55 0.65 L4.35 0.65 4.2 0.6 4.15 0.5 3.9 0.45 3.8 0.4 3.75 0.2 3.65 0.1 4.65 0.1 Q5.1 0.1 5.4 0.45 L5.55 0.65" fill="#333333" fill-opacity="0.8509804" fill-rule="evenodd" stroke="none"/>
    <path d="M-8.0 0.15 L-8.0 0.2 -7.75 0.45 Q-7.55 0.45 -7.4 0.7 L-7.25 0.75 -7.0 0.8 -7.0 0.85 -6.25 0.85 -6.1 0.85 -5.3 0.45 -4.8 0.35 -4.3 0.15 Q-4.1 0.1 -3.9 0.35 L-3.85 0.45 Q-3.55 0.15 -3.05 0.1 L1.15 -0.2 2.6 -0.15 2.8 -0.05 3.15 -0.15 3.65 0.1 3.75 0.2 3.8 0.4 3.9 0.45 4.15 0.5 4.2 0.6 4.35 0.65 5.55 0.65 5.7 0.65 6.1 0.2 6.2 0.15 6.65 -0.05 6.8 0.0 7.1 -0.15 7.55 -0.15 7.75 -0.2 8.45 -0.35 10.7 -0.35 11.4 -0.15 11.5 -0.15 12.15 -0.3 12.5 -0.05 12.55 0.0 12.6 0.1 12.6 0.2 12.6 0.25 12.65 0.25 13.6 0.1 13.75 0.1 14.15 0.15 14.25 0.15 14.65 0.1 15.0 0.25 15.0 0.35 15.0 0.45 15.05 0.6 15.15 0.75 15.55 0.95 7.95 0.95 7.65 0.9 7.55 0.95 -20.45 0.95 -24.1 0.95 -29.3 0.95 -29.3 0.9 -29.3 0.8 -29.4 0.6 -29.5 0.35 -29.5 0.15 -29.5 0.05 -29.6 -0.05 -29.65 -0.15 -29.75 -0.2 -29.25 -0.4 -28.85 -0.35 -28.75 -0.35 -28.6 -0.3 -28.45 -0.2 -28.45 -0.15 -27.85 -0.3 -27.65 -0.4 -27.6 -0.4 -27.45 -0.55 -27.35 -0.55 -27.25 -0.55 -26.75 -0.6 -26.75 0.3 -26.5 0.15 -26.5 0.1 -26.4 0.1 -26.1 -0.05 -25.95 -0.15 -25.45 -0.2 -25.35 -0.2 -24.9 -0.5 -22.45 -0.55 -21.05 -0.55 -20.1 -0.55 -19.95 -0.55 -19.7 -0.55 -19.0 -0.55 -18.85 -0.55 -18.8 -0.6 -18.75 -0.6 -18.45 -0.55 -18.35 -0.55 -18.1 -0.4 -18.0 -0.05 -18.0 0.1 -17.95 0.35 -17.05 0.45 -16.25 0.35 Q-15.7 -0.15 -15.1 0.0 L-15.0 -0.05 -14.95 -0.05 -14.8 -0.15 -14.7 -0.15 -14.35 0.0 -14.15 0.15 -12.6 0.45 -11.45 0.25 -10.95 0.15 -10.15 -0.05 -10.05 -0.15 -9.9 -0.15 -9.6 -0.05 -9.5 -0.05 -9.35 0.1 -9.35 0.15 -9.3 0.2 -9.25 0.25 -9.25 0.2 -9.2 0.15 -9.2 0.1 -9.05 0.0 -8.95 -0.05 -8.9 -0.05 -8.8 -0.05 -8.25 0.0 -8.0 0.15 M17.75 0.15 L17.8 0.1 17.9 0.1 18.0 -0.05 18.1 -0.15 18.15 -0.3 18.25 -0.35 18.35 -0.4 18.5 -0.4 18.85 -0.35 19.05 -0.2 19.2 0.1 19.2 0.25 19.25 0.25 19.35 0.1 20.55 -0.35 21.1 -0.4 24.4 -0.4 24.75 -0.25 24.8 -0.15 25.0 -0.15 25.0 -0.2 25.1 -0.2 25.2 -0.3 25.3 -0.35 25.45 -0.35 25.85 -0.05 Q26.2 0.1 26.35 0.35 L26.7 0.6 26.75 0.7 26.8 0.75 27.0 0.95 27.85 0.75 28.1 0.65 28.15 0.6 28.75 0.45 28.75 -0.2 28.85 -0.2 29.2 -0.05 29.35 0.0 29.5 -0.15 29.65 -0.2 29.7 -0.2 29.7 0.8 29.6 0.95 27.0 0.95 24.15 0.95 23.05 0.95 15.75 0.95 17.65 0.2 17.65 0.15 17.75 0.15 M-28.6 -0.4 L-28.6 -0.6 -27.95 -0.4 -28.35 -0.4 -28.6 -0.4" fill="#000000" fill-rule="evenodd" stroke="none"/>
    <path d="M-28.55 2.85 L-29.0 2.9 -29.0 2.6 -29.0 2.05 -29.0 1.85 -29.1 1.65 -29.15 1.55 -29.2 1.45 -29.25 0.9 -29.2 0.4 -29.25 -0.15 -29.25 -0.25 -29.3 -0.35 -29.35 -0.45 -28.6 -0.7 -28.6 -0.8 -28.65 -0.85 -28.75 -0.95 -28.85 -1.05 -28.9 -1.15 -28.9 -1.2 -28.95 -1.3 -28.95 -1.4 -28.95 -1.5 -28.95 -1.6 -28.95 -1.7 -28.9 -1.8 -28.8 -1.9 -28.65 -1.95 -28.65 -2.0 -28.65 -2.1 -28.65 -2.2 -28.65 -2.3 -28.65 -2.4 -28.65 -2.45 -28.65 -2.55 -28.65 -2.65 -28.65 -2.75 -28.65 -2.85 -28.65 -2.95 -28.65 -3.05 -28.65 -3.15 -28.65 -3.2 -28.65 -3.3 -28.65 -3.4 -28.65 -3.5 -28.65 -3.6 -28.65 -3.7 -28.65 -3.8 -28.65 -3.9 -28.65 -3.95 -28.65 -4.05 -28.65 -4.15 -28.65 -4.6 -28.7 -4.7 -28.7 -4.8 -28.8 -4.9 -28.85 -4.95 -28.9 -5.05 -28.9 -5.15 -28.9 -5.25 -28.9 -5.35 -28.9 -5.45 -28.95 -5.55 -28.95 -5.65 -28.95 -5.7 -28.95 -5.8 -29.0 -5.9 -29.05 -6.0 -29.1 -6.1 -29.15 -6.2 -29.15 -6.3 -29.15 -6.4 -29.15 -6.45 -29.2 -6.55 -29.2 -6.65 -29.2 -6.75 -29.25 -6.85 -29.35 -6.95 -29.4 -7.05 -29.4 -7.15 -29.4 -7.2 -29.4 -7.3 -29.4 -7.4 -29.4 -7.5 -29.4 -7.6 -29.45 -7.7 -29.45 -7.8 -29.45 -7.9 -29.45 -7.95 -29.45 -8.05 -29.45 -8.15 -29.45 -8.25 -29.45 -8.35 -29.45 -8.45 -29.45 -8.55 -29.45 -8.65 -29.45 -8.7 -29.45 -8.8 -29.45 -8.9 -29.45 -9.0 -29.45 -9.1 -29.45 -9.2 -29.45 -9.3 -29.45 -9.4 -29.45 -9.45 -29.45 -9.55 -29.45 -9.65 -29.45 -9.75 -29.45 -9.85 -29.4 -9.95 -29.3 -10.05 -29.2 -10.15 -29.2 -10.2 -29.15 -10.3 -29.1 -10.4 -29.05 -10.5 -28.95 -10.6 -28.95 -10.7 -28.9 -10.8 -28.85 -10.9 -28.75 -10.95 -28.65 -11.05 -28.6 -11.15 -28.55 -11.25 -28.45 -11.35 -28.35 -11.45 -28.3 -11.55 -28.2 -11.65 -28.1 -11.7 -27.95 -11.8 -27.75 -11.9 -27.15 -11.9 -27.05 -11.95 -26.9 -11.95 -26.8 -11.95 -26.65 -11.95 -26.4 -11.95 -25.9 -11.95 -25.75 -11.95 -25.5 -11.95 -18.9 -11.95 -18.75 -11.95 -18.7 -11.9 -17.55 -11.9 -17.55 -11.95 -17.55 -12.05 -17.5 -12.05 -17.45 -11.9 -14.25 -11.9 -14.05 -11.8 -14.0 -11.8 -4.8 -11.85 -0.75 -11.7 0.1 -11.85 2.75 -11.85 3.5 -11.85 3.75 -11.95 7.4 -11.95 7.5 -11.95 9.35 -11.95 9.55 -11.9 10.5 -11.95 22.8 -11.95 23.05 -11.85 23.2 -11.85 24.1 -11.7 25.85 -11.6 25.85 -11.65 25.95 -11.75 26.05 -11.8 26.1 -11.85 26.25 -11.85 26.25 -11.9 27.35 -11.9 27.55 -11.8 27.65 -11.75 28.25 -11.7 28.45 -11.65 28.6 -11.55 28.7 -11.45 28.8 -11.4 28.85 -11.3 28.95 -11.2 29.05 -11.1 29.15 -11.0 29.25 -10.9 29.35 -10.8 29.45 -10.7 29.5 -10.65 29.55 -10.55 29.55 -10.45 29.55 -10.35 29.6 -10.25 29.7 -10.15 29.7 -10.05 29.7 -9.95 29.8 -9.9 29.85 -9.8 29.9 -9.7 29.95 -9.6 29.95 -9.5 29.95 -9.4 29.95 -9.3 29.95 -9.2 29.95 -9.15 29.95 -9.05 29.95 -8.95 29.95 -8.85 29.95 -8.75 29.95 -8.65 29.95 -8.55 29.95 -8.45 29.95 -8.4 29.95 -8.3 29.95 -8.2 29.95 -8.1 29.95 -8.0 29.95 -7.9 29.95 -7.8 29.95 -7.7 29.95 -7.65 29.95 -7.55 29.95 -7.45 29.95 -7.35 29.95 -7.25 29.95 -7.15 29.95 -7.05 29.95 -6.95 29.95 -6.9 29.9 -6.8 29.85 -6.7 29.8 -6.6 29.8 -6.5 29.7 -6.4 29.7 -6.3 29.7 -6.2 29.7 -6.15 29.65 -6.05 29.6 -5.95 29.55 -5.85 29.45 -5.75 29.45 -5.65 29.45 -5.55 29.45 -5.45 29.45 -5.4 29.4 -5.3 29.35 -5.2 29.3 -5.1 29.3 -5.0 29.2 -4.9 29.15 -4.8 29.25 -3.9 Q28.95 -4.05 28.75 -4.15 L28.9 -3.65 29.5 -2.85 29.7 -2.4 29.25 -1.2 29.3 -1.15 29.35 -1.15 29.35 -1.1 29.4 -1.0 29.65 -0.7 29.6 -0.7 29.4 -0.55 29.35 -0.45 29.3 -0.4 29.3 -0.2 29.25 0.1 29.25 0.35 29.25 0.45 29.4 0.85 29.4 1.1 29.45 1.25 29.45 1.35 29.45 1.45 29.4 1.35 29.35 1.25 29.25 1.15 29.15 1.05 29.05 0.95 28.85 0.85 28.7 0.8 28.55 0.8 28.35 0.75 25.5 0.75 25.5 0.6 25.55 0.45 25.5 0.45 24.75 0.15 24.65 0.1 24.15 -0.05 18.9 0.1 18.8 0.3 18.6 0.25 16.7 0.25 16.65 0.15 16.6 0.1 16.6 0.0 16.8 0.0 16.85 -0.05 16.8 -0.1 16.65 -0.2 16.55 -0.3 16.55 -0.4 16.55 -0.45 16.55 -0.55 16.55 -0.65 16.55 -0.75 16.55 -0.85 16.55 -0.95 16.55 -1.05 16.55 -1.15 16.55 -1.2 16.55 -1.3 16.55 -1.4 16.55 -1.5 16.55 -1.6 16.6 -1.7 16.6 -1.8 16.6 -1.9 16.6 -1.95 16.65 -2.05 16.7 -2.15 16.75 -2.25 16.8 -2.35 16.8 -2.45 16.8 -2.55 16.8 -2.65 16.8 -2.7 16.8 -2.8 16.8 -2.9 16.85 -3.0 16.85 -3.1 16.85 -3.2 16.85 -3.3 16.85 -3.4 16.9 -3.45 17.0 -3.55 17.1 -3.65 17.35 -3.7 22.6 -3.7 22.75 -3.7 22.8 -3.65 24.0 -3.65 24.2 -3.55 24.3 -3.5 24.35 -3.45 24.5 -3.45 24.55 -3.4 25.1 -3.4 25.3 -3.3 25.45 -3.2 25.55 -3.15 25.6 -3.05 25.65 -2.95 25.7 -2.85 25.7 -2.75 25.8 -2.65 25.8 -2.55 25.8 -2.45 25.8 -2.4 25.8 -2.3 25.8 -2.2 25.8 -2.1 25.8 -2.0 25.8 -1.9 25.8 -1.8 25.8 -1.7 25.8 -1.65 25.85 -1.55 25.9 -1.45 25.95 -1.35 25.95 -1.25 25.95 -1.15 25.95 -1.05 25.95 -1.0 26.1 -1.0 26.3 -1.05 26.45 -1.05 26.55 -1.1 26.6 -1.15 26.75 -1.2 26.85 -1.3 26.95 -1.4 27.0 -1.4 26.7 -0.55 26.2 0.1 26.5 0.2 26.65 0.25 28.15 0.35 28.3 -0.4 28.25 -0.55 28.15 -1.35 28.7 -2.4 Q28.7 -2.8 28.1 -2.9 27.4 -3.1 27.4 -3.55 L28.05 -5.1 27.9 -6.85 27.9 -8.1 27.9 -8.3 27.85 -8.35 27.85 -8.4 27.85 -8.65 27.85 -8.7 Q27.55 -9.5 26.7 -10.0 L25.25 -10.3 23.45 -10.45 20.6 -10.55 20.05 -10.6 17.35 -10.85 16.75 -10.6 16.7 -10.6 14.5 -10.65 9.1 -10.7 9.05 -10.7 8.3 -10.65 4.5 -10.6 Q4.35 -10.45 4.2 -10.45 L1.8 -10.4 -1.4 -10.55 -1.55 -10.45 -1.6 -10.45 -1.65 -10.4 -1.7 -10.35 -1.7 -10.3 -1.8 -10.3 -4.1 -10.4 -4.3 -10.4 -4.3 -10.6 -4.35 -10.65 -4.5 -10.65 -4.6 -10.55 -4.75 -10.55 -9.65 -10.5 -9.75 -10.45 -9.9 -10.45 -15.65 -10.45 -15.9 -10.5 -16.0 -10.6 -16.55 -10.6 -16.8 -10.4 -18.8 -10.15 -18.95 -10.15 Q-18.75 -10.35 -18.8 -10.75 L-25.05 -10.75 -25.1 -10.7 -25.25 -10.7 -25.9 -10.65 -26.05 -10.55 -26.15 -10.45 -26.3 -10.35 -26.6 -10.25 -26.7 -10.15 -26.75 -10.05 -26.8 -9.95 -26.9 -9.9 -27.0 -9.8 -27.05 -9.7 -27.05 -9.6 -27.05 -9.5 -27.15 -9.4 -27.2 -9.3 -27.25 -9.2 -27.3 -9.15 -27.3 -9.05 -27.3 -8.95 -27.3 -8.85 -27.3 -8.75 -27.3 -8.65 -27.3 -8.55 -27.3 -8.45 -27.3 -8.4 -27.35 -8.3 -27.4 -8.2 -27.45 -8.1 -27.45 -8.0 -27.45 -7.9 -27.45 -7.8 -27.45 -7.7 -27.45 -7.65 -27.45 -7.55 -27.45 -7.45 -27.45 -7.35 -27.45 -7.25 -27.45 -7.15 -27.45 -7.05 -27.45 -6.95 -27.45 -6.9 -27.5 -6.8 -27.55 -6.7 -27.55 -6.6 -27.55 -6.5 -27.55 -6.4 -27.55 -6.3 -27.55 -6.2 -27.55 -6.15 -27.55 -6.05 -27.55 -5.95 -27.55 -5.85 -27.55 -5.75 -27.55 -5.65 -27.55 -5.55 -27.55 -5.45 -27.55 -5.4 -27.55 -5.3 -27.55 -5.2 -27.55 -4.95 -27.5 -4.85 -27.45 -4.75 -27.45 -4.65 -27.45 -4.55 -27.45 -4.45 -27.45 -4.4 -27.5 -4.3 -27.55 -4.2 -27.65 -4.15 -27.7 -4.05 -27.7 -3.95 -27.7 -3.9 -27.7 -3.8 -27.7 -3.7 -27.7 -3.6 -27.7 -3.5 -27.7 -3.4 -27.7 -3.3 -27.7 -3.2 -27.7 -3.15 -27.7 -3.05 -27.7 -2.95 -27.7 -2.85 -27.7 -2.75 -27.7 -2.65 -27.7 -2.55 -27.7 -2.45 -27.7 -2.4 -27.7 -2.3 -27.7 -2.2 -27.7 -2.1 -27.7 -2.0 -27.7 -1.9 -27.7 -1.8 -27.7 -1.7 -27.7 -1.35 -27.65 -1.25 -27.55 -1.15 -27.55 -1.05 -27.55 -0.95 -27.55 -0.9 -26.75 -0.9 -26.75 0.1 -26.8 0.1 -27.1 0.15 -27.35 0.2 -27.35 0.75 Q-27.65 1.8 -28.75 1.7 L-28.75 1.85 -28.65 1.95 -28.65 2.05 -28.65 2.1 -28.0 2.5 -28.05 2.5 -28.15 2.6 -28.25 2.7 -28.35 2.7 -28.4 2.75 -28.55 2.8 -28.55 2.85 M-4.65 0.85 L-9.0 0.85 -8.95 0.25 -9.2 0.2 Q-9.75 0.2 -10.4 0.7 L-10.45 0.8 -10.5 0.85 -12.15 0.85 Q-12.5 0.45 -12.9 0.45 L-14.35 0.45 -15.05 0.45 -15.15 0.75 -15.2 0.85 -16.15 0.8 -16.3 0.8 -16.5 0.75 -19.6 0.75 -19.5 0.25 Q-18.9 -0.25 -18.25 0.25 L-16.65 0.35 -16.75 -0.05 -16.4 -0.5 -16.25 -0.5 -16.2 -0.5 -16.2 -0.65 -16.2 -1.35 -16.05 -2.75 -16.1 -2.9 Q-16.1 -3.45 -15.6 -3.4 L-13.15 -3.2 -10.05 -3.4 Q-8.45 -3.4 -7.8 -2.9 L-7.55 -2.85 -7.2 -2.3 -7.2 -0.35 -7.2 -0.15 -7.45 0.25 -7.45 0.35 Q-6.95 0.45 -6.6 0.7 -5.45 0.85 -4.6 0.3 L-4.6 -0.3 -4.6 -1.4 -4.6 -1.85 -4.75 -1.9 -4.85 -1.95 -4.9 -2.05 -5.0 -2.05 -5.0 -2.15 -5.0 -2.25 -5.0 -2.3 -4.9 -2.35 -4.85 -2.4 -4.8 -2.5 -4.7 -2.55 -4.55 -2.6 -4.3 -2.6 -4.3 -2.55 -4.25 -2.6 -4.2 -2.7 -4.2 -2.75 -4.1 -2.85 -3.85 -2.85 -3.75 -2.9 -3.5 -2.9 -3.2 -2.95 -3.1 -3.0 -2.75 -3.1 -1.5 -3.15 -1.4 -3.25 -1.2 -3.25 0.0 -3.25 0.2 -3.2 0.35 -3.1 0.45 -3.1 0.85 -3.05 1.1 -3.0 1.2 -2.95 1.7 -2.9 3.05 -2.85 3.25 -2.85 3.45 -2.85 3.55 -2.75 3.65 -2.7 3.7 -2.6 3.75 -2.55 3.75 -2.4 3.75 -2.35 3.75 -2.25 3.75 -2.1 3.75 -2.05 3.75 -1.95 3.75 -1.9 3.75 -1.8 3.8 -1.75 3.85 -1.65 3.9 -1.55 4.0 -1.5 4.0 -1.4 4.0 -1.3 4.1 -1.2 4.15 -1.2 4.15 -1.1 4.2 -1.05 4.2 -0.95 4.25 -0.9 4.35 -0.8 4.35 -0.75 4.4 -0.7 4.4 -0.6 4.4 -0.45 4.4 -0.3 4.35 -0.25 4.35 -0.15 4.25 -0.05 4.2 0.0 4.15 0.05 4.0 0.1 3.75 0.1 3.85 0.2 4.1 0.45 4.35 0.6 2.7 0.6 2.75 0.25 2.75 0.2 2.7 0.1 2.7 0.05 2.7 -0.25 2.7 -0.4 2.7 -0.55 2.7 -0.65 2.7 -1.15 2.7 -1.8 2.65 -1.9 2.6 -1.95 2.5 -1.9 2.45 -1.9 -0.1 -1.85 -0.35 -1.9 -0.45 -1.95 -3.25 -1.95 -3.5 -2.0 -3.55 -2.0 -3.5 -1.65 -3.5 -1.55 -3.5 -0.9 -3.5 -0.75 -3.5 -0.3 -3.3 -0.25 -3.2 -0.15 -3.2 -0.05 -3.1 0.15 -3.1 0.25 -3.1 0.4 -3.1 0.45 -3.2 0.6 -3.2 0.65 -4.0 0.65 -4.0 0.7 -4.2 0.7 -4.4 0.75 -4.65 0.8 -4.65 0.85 M29.2 2.6 L29.2 2.7 29.2 2.8 29.2 2.9 29.2 3.0 29.25 3.05 29.45 3.1 29.6 3.2 29.65 3.3 29.7 3.35 29.7 3.45 29.7 3.55 29.7 3.65 29.7 3.75 29.7 3.85 29.7 3.95 29.7 4.05 29.7 4.1 29.7 4.2 29.7 4.3 29.7 4.4 29.7 4.5 29.7 4.6 29.7 4.7 29.7 4.8 29.7 4.85 29.7 4.95 29.7 5.05 29.7 5.15 29.7 5.25 29.7 5.35 29.7 5.45 29.7 5.55 29.7 5.6 29.7 5.7 29.7 5.8 29.7 5.9 29.7 6.0 29.7 6.1 29.7 6.2 29.7 6.3 29.7 6.35 29.7 6.45 29.7 6.55 29.7 6.65 29.6 6.75 29.55 6.85 29.45 6.9 29.4 6.95 29.25 6.95 29.05 6.9 28.9 6.8 28.8 6.7 28.75 6.65 28.7 6.6 28.65 6.55 28.6 6.45 28.6 6.35 28.55 6.25 28.55 6.15 28.5 6.05 28.4 5.95 28.35 5.85 28.35 5.8 28.35 5.7 28.35 5.6 28.35 5.5 28.35 5.4 28.35 5.3 28.35 5.2 28.35 5.1 28.35 5.05 28.35 4.95 28.35 4.85 28.35 4.75 28.35 4.65 28.35 4.55 28.35 4.45 28.35 4.35 28.35 4.3 28.3 4.2 28.3 4.1 28.3 4.0 28.3 3.9 28.3 3.8 28.3 3.7 28.3 3.6 28.3 3.55 28.3 3.45 28.3 3.35 28.3 3.25 28.3 3.15 28.3 3.05 28.3 2.95 28.3 2.85 28.3 2.8 28.3 2.7 28.3 2.6 28.35 2.5 28.45 2.4 28.55 2.35 28.6 2.3 28.75 2.3 28.95 2.35 29.1 2.45 29.15 2.55 29.2 2.6 M-29.2 6.7 L-29.25 6.7 -29.4 6.7 -29.65 6.65 -29.75 6.55 -29.85 6.45 -29.9 6.35 -29.9 6.3 -29.9 6.2 -29.9 6.1 -29.9 6.0 -29.9 5.9 -29.9 5.8 -29.9 5.7 -29.9 5.6 -29.9 5.55 -29.9 5.45 -29.9 5.35 -29.9 5.25 -29.9 5.15 -29.9 5.05 -29.9 4.95 -29.9 4.85 -29.9 4.8 -29.9 4.7 -29.9 4.6 -29.9 4.5 -29.9 4.4 -29.9 4.3 -29.9 4.2 -29.9 4.1 -29.9 4.05 -29.9 3.95 -29.9 3.85 -29.9 3.75 -29.9 3.65 -29.9 3.55 -29.9 3.45 -29.9 3.35 -29.85 3.3 -29.75 3.2 -29.65 3.1 -29.4 3.05 -29.2 3.1 -29.05 3.2 -29.0 3.3 -28.95 3.35 -28.95 3.45 -28.95 3.55 -28.95 3.65 -28.95 3.75 -28.95 3.85 -28.95 3.95 -28.95 4.05 -28.95 4.1 -28.95 4.2 -28.95 4.3 -28.95 4.4 -28.95 4.5 -28.95 4.55 -28.95 4.6 -28.95 4.7 -28.95 4.8 -28.95 4.85 -28.95 4.95 -28.95 5.05 -28.95 5.15 -28.95 5.25 -28.95 5.35 -28.95 5.45 -28.95 5.55 -28.95 5.6 -28.95 5.7 -28.95 5.8 -28.95 5.9 -28.9 6.0 -28.8 6.1 -28.8 6.2 -28.8 6.25 -28.8 6.35 -28.85 6.45 -28.9 6.55 -28.95 6.6 -29.05 6.65 -29.2 6.7 M-25.25 -8.15 L-25.15 -8.2 -25.05 -8.3 -24.95 -8.4 -24.05 -8.55 -21.25 -8.8 -18.75 -8.65 -18.25 -8.35 -18.15 -8.15 -17.95 -6.95 Q-17.8 -6.4 -17.95 -6.15 L-17.95 -6.1 -17.95 -6.0 -17.95 -5.95 Q-18.05 -5.35 -18.55 -5.35 L-18.65 -5.2 -18.65 -5.25 -18.65 -5.35 -18.7 -5.35 -18.75 -5.3 -18.95 -5.25 -19.1 -5.15 -19.2 -5.1 -19.25 -5.05 -19.4 -5.05 -22.0 -5.0 -22.0 -4.95 -22.05 -4.9 -22.1 -4.9 -22.2 -5.0 -22.95 -5.0 -23.0 -4.95 -23.15 -4.95 -25.25 -4.95 -25.45 -5.0 -25.65 -5.1 -25.7 -5.15 -25.75 -5.2 -25.95 -5.25 -26.1 -5.35 -26.2 -5.45 -26.2 -5.55 -26.2 -5.65 -26.2 -5.7 -26.2 -5.8 -26.2 -5.9 -26.2 -6.0 -26.2 -6.1 -26.2 -6.15 -26.3 -6.15 -26.25 -6.35 -26.2 -6.4 -26.2 -6.45 -26.2 -6.55 -26.2 -6.65 -26.2 -6.75 -26.2 -6.85 -26.2 -6.95 -26.2 -7.05 -26.2 -7.15 -26.2 -7.2 -26.15 -7.3 -26.05 -7.4 -25.95 -7.5 -25.95 -7.6 -25.9 -7.65 -25.9 -7.7 -25.8 -7.8 -25.65 -7.85 -25.5 -7.95 -25.4 -8.05 -25.25 -8.15 M-24.6 -7.05 L-24.75 -7.05 -25.05 -6.95 -25.15 -6.9 -25.2 -6.8 -25.3 -6.7 -25.3 -6.6 -25.3 -6.5 -25.3 -6.4 -25.3 -6.3 -25.3 -6.2 -25.3 -6.15 -25.15 -6.05 -25.05 -5.95 -23.4 -5.9 -23.3 -5.95 -23.15 -5.95 -19.7 -6.05 -19.55 -6.1 -19.4 -6.15 -19.2 -6.25 -19.1 -6.35 -18.9 -6.45 -18.85 -6.5 -18.85 -6.55 -18.9 -6.65 -18.95 -6.7 -18.95 -7.0 -19.05 -7.65 -19.8 -7.9 -19.8 -7.85 -19.8 -7.75 -19.9 -7.65 -19.95 -7.55 -20.05 -7.5 -20.1 -7.45 -20.25 -7.45 -21.0 -7.4 -21.1 -7.3 -21.25 -7.3 -23.2 -7.25 -23.25 -7.2 -23.4 -7.2 -24.5 -7.15 -24.6 -7.05 M-25.65 -3.95 L-25.45 -4.0 -25.4 -4.05 -25.3 -4.1 -25.15 -4.15 -23.7 -4.15 -23.65 -4.2 -23.5 -4.2 -18.4 -4.2 -18.2 -4.15 -18.05 -4.05 -17.9 -3.95 -17.85 -3.9 -17.8 -3.8 -17.75 -3.7 -17.7 -3.6 -17.7 -3.5 -17.65 -3.4 -17.55 -3.3 -17.55 -3.2 -17.55 -3.15 -17.55 -3.05 -17.55 -2.95 -17.55 -2.85 -17.55 -2.75 -17.55 -2.65 -17.55 -2.55 -17.55 -2.45 -17.55 -2.4 -17.55 -2.3 -17.55 -2.2 -17.55 -2.1 -17.65 -2.0 -17.65 -1.9 Q-17.65 -0.5 -18.25 -0.3 L-18.5 -0.25 -20.85 -0.5 -20.9 -0.5 -22.4 -0.35 -23.05 -0.25 -25.1 0.0 -25.65 -0.05 -26.05 0.0 -26.35 -0.2 -26.7 -1.9 -26.6 -3.15 Q-26.45 -3.5 -25.9 -3.7 L-25.9 -3.75 -25.8 -3.85 -25.7 -3.9 -25.65 -3.95 M-25.6 -1.75 L-25.15 -1.55 Q-25.15 -1.05 -24.75 -1.05 L-23.1 -1.35 Q-22.3 -1.55 -20.25 -1.35 L-18.75 -1.35 -18.7 -1.55 -18.7 -2.05 -19.35 -2.15 -19.25 -2.25 -19.15 -2.35 -19.05 -2.45 -19.0 -2.55 -18.95 -2.65 -18.9 -2.7 -18.8 -2.8 -18.8 -2.9 -18.75 -3.0 -18.7 -3.1 -18.7 -3.15 -18.65 -3.15 -18.65 -3.25 -23.45 -3.25 -23.5 -3.2 -23.65 -3.2 -25.0 -3.15 -24.95 -3.1 -24.9 -3.0 -24.8 -2.9 -24.7 -2.8 -24.65 -2.7 -25.45 -2.9 -25.65 -1.95 -25.6 -1.75 M-21.35 -1.85 L-20.9 -1.85 -21.25 -1.8 -21.4 -1.8 -21.35 -1.85 M-10.15 -9.35 L-8.3 -9.2 -7.9 -9.0 -7.75 -8.9 Q-7.25 -8.5 -7.25 -6.8 -7.25 -6.15 -7.8 -5.95 -8.35 -5.6 -10.1 -5.6 L-12.15 -5.85 -14.8 -5.6 Q-16.0 -5.6 -16.2 -6.6 L-16.2 -7.55 -16.2 -8.85 -12.4 -9.15 -10.15 -9.35 M-15.15 -8.15 L-15.15 -6.6 -14.25 -6.6 -14.1 -6.8 -13.0 -6.85 -10.1 -6.6 -8.4 -6.9 -8.35 -6.85 -8.3 -7.0 -8.5 -8.3 -15.1 -8.35 -15.15 -8.15 M-15.05 -0.55 L-13.45 -0.55 -11.65 -0.3 -11.6 -0.15 -11.3 0.0 -11.05 -0.05 -10.5 -0.3 -10.4 -0.4 -10.3 -0.4 -8.25 -0.75 -8.2 -2.05 Q-8.45 -2.4 -10.05 -2.4 L-13.15 -2.15 -15.1 -2.3 -15.1 -1.5 -15.1 -0.65 -15.05 -0.6 -15.05 -0.55 M-5.05 -9.65 L-5.05 -9.6 -5.0 -9.55 -5.0 -9.5 -4.85 -9.45 -0.15 -9.3 0.05 -9.35 0.2 -9.45 0.2 -9.5 1.65 -9.5 2.5 -9.1 2.6 -9.0 2.8 -8.8 3.1 -8.45 Q3.3 -8.0 3.3 -6.4 L3.3 -5.9 Q3.25 -5.4 2.6 -5.4 L-1.2 -5.6 -3.65 -5.4 Q-4.35 -5.4 -4.85 -6.15 L-5.15 -6.9 -5.25 -8.3 -5.2 -9.3 -5.15 -9.5 -5.05 -9.65 M-3.5 -6.45 L-0.3 -6.6 2.3 -6.6 2.3 -6.7 Q2.3 -7.9 1.75 -8.3 0.45 -9.1 -4.15 -8.8 L-4.2 -8.15 Q-4.15 -6.45 -3.5 -6.45 M9.05 -9.6 L9.2 -9.65 9.45 -9.85 11.95 -9.9 Q13.4 -10.0 13.75 -9.45 L13.8 -9.4 13.95 -9.35 13.8 -8.3 Q13.8 -7.65 14.2 -7.0 L14.5 -6.4 Q14.5 -5.95 13.95 -5.95 L13.75 -5.95 12.55 -6.15 10.0 -5.95 8.8 -5.8 6.45 -5.35 Q5.95 -5.35 5.8 -6.05 L5.75 -6.3 5.75 -6.85 5.75 -7.2 Q5.75 -8.95 6.05 -9.65 L9.05 -9.6 M6.85 -8.2 L6.85 -6.6 13.0 -7.2 12.7 -8.95 10.8 -8.85 6.9 -9.1 6.85 -8.2 M6.9 -1.55 L6.85 -1.25 6.85 -0.75 7.4 -0.75 8.35 -1.0 9.5 -0.65 9.85 -0.9 10.8 -1.1 12.05 -0.9 13.1 -0.9 13.1 -1.1 13.4 -1.0 12.35 -2.75 Q12.05 -2.4 12.1 -2.15 L11.35 -2.05 7.1 -1.85 6.9 -1.55 M5.75 -0.9 L5.85 -2.05 Q6.2 -2.9 6.9 -2.9 L8.6 -2.75 12.05 -3.25 12.15 -3.25 13.5 -3.2 Q15.0 -2.75 15.0 -2.25 15.0 -1.55 14.05 -1.95 L14.0 -1.85 14.45 -0.55 14.1 -0.05 14.0 0.1 13.95 0.2 14.0 0.25 13.25 0.25 13.25 0.3 13.05 0.3 12.9 0.3 12.7 0.35 12.75 0.25 11.9 0.15 11.45 0.1 11.35 0.1 10.8 -0.05 Q10.15 -0.05 10.15 0.45 L10.0 0.85 9.85 0.85 9.65 0.85 9.6 0.9 9.1 0.45 8.6 0.0 8.35 0.1 8.35 0.2 8.35 0.35 8.3 0.4 7.95 0.75 7.75 1.0 7.65 0.9 7.55 0.8 7.35 0.7 7.2 0.65 7.05 0.6 6.85 0.6 6.1 0.6 6.7 0.25 Q6.15 0.2 5.9 -0.05 L5.75 -0.35 5.75 -0.9 M16.95 -9.3 L18.55 -9.15 20.85 -9.2 23.55 -9.4 Q25.6 -9.2 26.1 -7.8 L26.25 -6.55 26.0 -5.05 Q25.65 -4.5 24.9 -4.5 L24.3 -4.5 24.1 -4.5 23.05 -4.65 22.1 -4.9 22.05 -4.9 21.5 -4.85 21.5 -4.9 20.85 -4.95 20.7 -4.95 20.6 -5.0 18.1 -5.0 18.15 -4.9 18.25 -4.8 18.35 -4.7 18.3 -4.65 18.05 -4.55 17.95 -4.5 Q17.3 -4.55 17.05 -4.9 L16.9 -5.4 Q16.9 -5.9 17.35 -5.95 L17.4 -5.95 17.5 -5.95 20.6 -5.95 20.75 -5.95 20.85 -5.9 21.45 -5.9 22.05 -5.95 22.75 -5.9 23.85 -5.6 24.9 -5.5 25.25 -6.55 24.95 -7.3 24.0 -8.1 22.05 -8.35 17.2 -8.1 17.2 -7.0 17.3 -6.25 17.65 -6.15 16.8 -5.55 16.6 -5.15 Q16.3 -5.4 16.25 -5.8 L16.15 -7.8 16.15 -8.65 16.25 -9.15 16.7 -9.35 16.95 -9.3 M17.7 -2.35 L17.7 -2.25 17.7 -2.15 17.7 -2.05 17.7 -1.95 17.7 -1.9 17.65 -1.8 17.6 -1.7 17.55 -1.6 17.55 -1.5 17.55 -1.4 17.5 -1.3 17.45 -1.2 17.45 -1.15 17.45 -1.05 17.45 -0.95 17.45 -0.85 17.45 -0.75 17.45 -0.65 17.45 -0.55 17.45 -0.45 17.45 -0.4 17.4 -0.3 17.4 -0.25 18.25 -0.25 18.45 -0.3 18.6 -0.3 18.7 -0.35 18.8 -0.4 18.9 -0.4 18.95 -0.3 19.45 -0.45 19.85 -0.5 20.05 -0.55 20.2 -0.55 20.3 -0.6 20.35 -0.65 20.6 -0.65 20.8 -0.7 20.95 -0.7 21.1 -0.8 21.3 -0.85 21.35 -0.9 21.6 -0.9 21.8 -0.95 21.95 -0.95 22.75 -1.0 22.95 -1.05 23.1 -1.05 23.2 -1.1 23.35 -1.15 23.6 -1.2 24.1 -1.2 24.15 -1.2 24.7 -1.05 24.95 -0.95 24.9 -1.05 24.85 -1.15 24.85 -1.25 24.85 -1.35 24.85 -1.45 24.85 -1.55 24.85 -1.65 24.85 -1.7 24.85 -1.8 24.85 -1.9 24.85 -2.0 24.85 -2.1 24.85 -2.2 24.8 -2.3 24.8 -2.4 24.5 -2.45 24.35 -2.45 24.3 -2.5 24.0 -2.55 23.8 -2.6 23.7 -2.65 22.6 -2.7 22.45 -2.7 22.35 -2.75 17.8 -2.7 17.8 -2.65 17.75 -2.55 17.7 -2.45 17.7 -2.35 M28.6 -9.9 L28.6 -9.85 28.9 -8.55 28.95 -8.1 28.95 -8.0 28.95 -7.5 28.95 -7.3 29.05 -7.4 29.05 -7.45 29.05 -7.55 29.05 -7.65 29.05 -7.75 29.05 -7.85 29.05 -7.95 29.05 -8.05 29.05 -8.15 29.05 -8.2 29.05 -8.3 29.05 -8.4 29.05 -8.5 29.05 -8.6 29.05 -8.7 29.05 -8.8 29.05 -8.9 29.05 -8.95 29.05 -9.05 29.0 -9.15 28.95 -9.25 28.85 -9.35 28.8 -9.45 28.8 -9.55 28.8 -9.65 28.7 -9.7 28.65 -9.8 28.6 -9.9 M29.25 2.9 L29.25 2.85 29.35 2.75 29.4 2.65 29.45 2.55 29.45 2.9 29.45 3.0 29.35 3.0 29.25 2.9" fill="#000000" fill-rule="evenodd" stroke="none"/>
    <path d="M-28.0 2.5 L-27.9 2.4 -27.7 2.35 -27.5 2.3 -20.9 2.3 -20.7 2.35 -20.55 2.35 -16.75 2.4 -16.55 2.45 -16.35 2.5 -15.2 2.55 -15.2 2.65 -15.2 2.75 -15.2 2.85 -15.2 2.95 -15.15 3.05 -15.15 3.1 -15.05 3.2 -15.0 3.3 -14.95 3.35 -15.75 3.35 -15.75 3.4 -15.9 3.4 -16.05 3.45 -16.75 3.55 -16.9 3.55 -16.95 3.6 -18.0 3.6 -18.15 3.65 -18.3 3.7 -19.5 3.8 -19.65 3.8 -24.75 3.8 -24.9 3.8 -24.95 3.85 -26.0 3.85 -26.15 3.9 -26.3 3.95 -26.4 4.05 -26.45 4.15 -26.55 4.25 -26.6 4.35 -26.65 4.45 -26.65 4.55 -26.65 4.6 -26.6 4.7 -26.5 4.8 -26.4 4.9 -26.15 4.95 -26.0 4.95 -25.85 4.95 -25.75 4.85 -24.9 4.8 -24.75 4.8 -24.7 4.75 -15.9 4.7 -15.75 4.7 -15.7 4.65 -15.6 4.6 -15.55 4.5 -15.45 4.4 -15.45 4.35 -14.2 4.35 -14.2 4.45 -14.2 4.55 -14.2 4.6 -14.2 4.7 -14.1 4.8 -13.95 4.9 -13.75 4.95 -13.1 4.95 -13.15 5.0 -13.2 5.1 -13.2 5.2 -13.2 5.3 -13.2 5.35 -13.2 5.45 -13.1 5.55 -12.95 5.65 -12.75 5.7 -9.4 5.7 -9.25 5.7 -9.1 5.6 -7.25 5.55 -7.1 5.55 -7.0 5.5 -6.4 5.45 -6.25 5.45 -6.15 5.35 -3.75 5.3 -3.6 5.3 -3.55 5.25 -3.45 5.2 -3.4 5.1 -3.3 5.0 -3.3 4.95 3.1 4.95 3.25 4.95 3.3 4.9 3.4 4.85 3.45 4.75 3.55 4.65 3.55 4.55 3.55 4.45 15.35 4.45 15.55 4.4 15.75 4.35 21.1 4.3 21.3 4.25 21.45 4.2 22.85 4.2 23.05 4.15 23.25 4.1 25.25 4.05 25.45 4.0 25.6 3.95 25.75 3.95 25.95 3.9 26.15 3.85 26.85 3.85 27.05 3.9 27.25 3.95 27.45 3.9 27.6 3.85 27.65 3.85 27.75 3.8 27.85 3.7 27.95 3.6 28.05 3.5 28.1 3.4 28.1 3.3 28.15 3.2 28.2 3.1 28.2 3.05 28.2 2.95 28.2 2.85 28.2 2.75 28.15 2.65 28.1 2.55 28.1 2.45 28.05 2.35 28.0 2.3 27.9 2.2 27.8 2.1 27.65 2.0 27.45 1.95 27.35 1.95 27.35 1.85 27.45 1.8 27.5 1.7 27.6 1.6 27.7 1.5 27.85 1.4 28.05 1.35 28.25 1.35 28.25 1.3 28.45 1.35 28.65 1.4 28.8 1.5 28.9 1.6 29.0 1.7 29.05 1.8 29.1 1.85 29.1 1.95 29.15 2.05 29.2 2.15 29.2 2.25 29.2 2.35 29.2 2.45 29.2 2.55 29.2 2.6 29.15 2.55 29.1 2.45 28.95 2.35 28.75 2.3 28.6 2.3 28.55 2.35 28.45 2.4 28.35 2.5 28.3 2.6 28.3 2.7 28.3 2.8 28.3 2.85 28.3 2.95 28.3 3.05 28.3 3.15 28.3 3.25 28.3 3.35 28.3 3.45 28.3 3.55 28.3 3.6 28.3 3.7 28.3 3.8 28.3 3.9 28.3 4.0 28.3 4.1 28.3 4.2 28.35 4.3 28.35 4.35 28.35 4.45 28.35 4.55 28.35 4.65 28.35 4.75 28.35 4.85 28.35 4.95 28.35 5.05 28.35 5.1 28.35 5.2 28.35 5.3 28.35 5.4 28.35 5.5 28.35 5.6 28.35 5.7 28.35 5.8 28.35 5.85 28.4 5.95 28.5 6.05 28.55 6.15 28.55 6.25 28.6 6.35 28.6 6.45 28.65 6.55 28.7 6.6 28.75 6.65 28.75 6.75 28.7 6.85 28.65 6.95 28.6 7.05 28.55 7.1 28.45 7.2 28.3 7.3 28.2 7.35 28.05 7.4 27.85 7.45 27.7 7.4 27.7 7.45 27.75 7.55 27.8 7.65 27.8 7.75 27.8 7.85 27.75 7.95 27.7 8.05 27.7 8.1 27.65 8.2 27.6 8.3 27.5 8.4 27.35 8.5 27.25 8.6 27.05 8.65 26.85 8.7 23.35 8.7 23.2 8.75 22.95 8.8 22.85 8.85 22.7 8.9 22.5 8.95 21.6 8.95 21.45 9.0 21.25 9.05 18.75 9.05 18.55 9.0 18.35 8.95 18.2 8.85 18.1 8.75 18.0 8.65 17.95 8.55 17.85 8.45 17.85 8.35 17.8 8.3 17.8 8.2 17.8 8.1 17.0 8.1 23.25 8.05 23.45 8.0 23.65 7.95 23.8 7.85 23.9 7.75 24.0 7.65 24.05 7.55 24.1 7.45 24.1 7.35 24.15 7.3 24.2 7.2 24.2 7.1 24.2 7.0 24.15 6.9 24.1 6.8 24.1 6.7 24.05 6.6 24.0 6.55 23.9 6.45 23.8 6.35 23.65 6.25 23.45 6.2 23.25 6.15 14.1 6.15 13.9 6.2 13.7 6.25 13.5 6.3 13.3 6.35 13.15 6.35 12.35 6.4 12.15 6.45 11.95 6.5 8.0 6.5 7.8 6.45 7.6 6.4 5.7 6.35 5.7 6.3 5.75 6.2 5.8 6.1 5.85 6.0 5.9 5.95 4.85 5.95 4.65 5.9 4.45 5.85 3.5 5.8 3.3 5.75 3.15 5.7 -5.8 5.7 -5.95 5.75 -6.15 5.8 -7.6 5.85 -7.8 5.9 -8.0 5.95 -9.95 5.95 -10.15 5.9 -10.9 5.85 -11.05 5.85 -11.25 5.8 -15.1 5.75 -15.3 5.7 -15.5 5.65 -16.9 5.6 -17.05 5.6 -17.25 5.55 -18.85 5.5 -19.05 5.45 -19.25 5.4 -22.05 5.35 -22.2 5.35 -22.4 5.3 -22.85 5.25 -23.05 5.2 -23.25 5.15 -27.5 5.15 -27.5 5.2 -27.7 5.2 -27.9 5.25 -28.05 5.35 -28.15 5.45 -28.25 5.55 -28.3 5.6 -28.4 5.7 -28.4 5.8 -28.45 5.9 -28.45 6.0 -28.45 6.1 -28.45 6.2 -28.45 6.3 -28.4 6.35 -28.4 6.4 -28.45 6.4 -28.65 6.35 -28.8 6.25 -28.8 6.2 -28.8 6.1 -28.9 6.0 -28.95 5.9 -28.95 5.8 -28.95 5.7 -28.95 5.6 -28.95 5.55 -28.95 5.45 -28.95 5.35 -28.95 5.25 -28.95 5.15 -28.95 5.05 -28.95 4.95 -28.95 4.85 -28.95 4.8 -28.95 4.7 -28.95 4.6 -28.95 4.55 -28.85 4.45 -28.75 4.35 -28.7 4.35 -28.75 4.3 -28.8 4.2 -28.9 4.1 -28.9 4.05 -28.95 3.95 -28.95 3.85 -28.95 3.75 -28.95 3.65 -28.95 3.55 -28.95 3.45 -28.9 3.35 -28.9 3.3 -28.85 3.2 -28.8 3.1 -28.7 3.0 -28.65 2.9 -28.55 2.85 -28.55 2.8 -28.4 2.75 -28.35 2.7 -28.25 2.7 -28.15 2.6 -28.05 2.5 -28.0 2.5 M12.55 2.5 L12.7 2.4 12.9 2.35 13.1 2.35 13.1 2.3 15.5 2.3 15.7 2.35 15.85 2.35 18.75 2.4 15.6 2.4 15.4 2.45 15.2 2.5 12.55 2.5 M7.65 8.4 L7.5 8.45 6.45 8.45 6.3 8.5 6.1 8.55 5.9 8.6 5.7 8.65 5.5 8.7 4.2 8.7 4.05 8.75 3.85 8.8 3.5 8.85 3.3 8.9 3.15 8.95 3.1 8.95 2.95 9.0 2.75 9.05 2.5 9.1 2.3 9.15 2.1 9.2 1.7 9.2 1.55 9.25 1.3 9.3 1.2 9.35 1.05 9.4 0.85 9.45 -2.4 9.45 -2.6 9.4 -2.8 9.35 -5.4 9.3 -5.6 9.25 -5.75 9.2 -6.75 9.2 -6.95 9.15 -7.15 9.1 -11.9 9.05 -12.1 9.0 -12.25 8.95 -13.5 8.95 -13.7 8.9 -13.9 8.85 -14.5 8.8 -14.7 8.75 -14.85 8.7 -15.75 8.7 -15.95 8.65 -16.15 8.6 -17.75 8.55 -17.95 8.5 -18.1 8.45 -20.9 8.45 -21.1 8.4 -21.3 8.35 -27.85 8.35 -28.05 8.4 -28.25 8.45 -28.75 8.45 -28.95 8.4 -29.15 8.35 -29.3 8.25 -29.4 8.15 -29.5 8.05 -29.55 7.95 -29.65 7.85 -29.65 7.8 -29.7 7.7 -29.7 7.6 -29.7 7.5 -29.7 7.4 -29.7 7.3 -29.65 7.2 -29.65 7.1 -29.55 7.05 -29.5 6.95 -29.4 6.85 -29.3 6.75 -29.2 6.7 -29.05 6.65 -28.95 6.6 -28.7 6.55 -28.6 6.45 -28.45 6.45 -28.4 6.45 -28.3 6.55 -28.25 6.65 -28.15 6.75 -28.05 6.85 -27.9 6.95 -27.7 7.0 -27.5 7.05 -23.4 7.1 -23.2 7.15 -23.0 7.2 -22.5 7.2 -22.35 7.25 -22.15 7.3 -19.3 7.35 -19.1 7.4 -18.9 7.45 -17.35 7.45 -17.2 7.5 -17.0 7.55 -15.65 7.6 -15.45 7.65 -15.25 7.7 -11.35 7.7 -11.2 7.75 -11.0 7.8 -10.3 7.85 -10.1 7.9 -9.9 7.95 -8.35 7.95 -8.2 8.0 -8.0 8.05 3.6 8.1 3.8 8.15 4.0 8.2 5.15 8.2 5.3 8.25 5.5 8.3 7.35 8.35 7.55 8.4 7.65 8.4 M26.8 5.85 L26.75 5.9 26.6 6.0 26.5 6.1 26.25 6.2 26.1 6.3 26.0 6.35 25.95 6.35 25.85 6.4 25.95 6.45 26.15 6.5 26.3 6.6 26.5 6.65 26.7 6.7 26.9 6.75 26.95 6.8 26.9 6.7 26.9 6.6 26.9 6.5 26.9 6.4 26.85 6.3 26.85 6.2 26.8 6.1 26.8 6.05 26.8 5.95 26.8 5.85" fill="#999999" fill-rule="evenodd" stroke="none"/>
    <path d="M-15.2 2.55 L-15.15 2.45 -15.15 2.35 -15.05 2.3 -15.0 2.2 -14.9 2.1 -14.8 2.0 -14.65 1.9 -14.45 1.85 -14.25 1.85 -14.25 1.8 -14.05 1.85 -13.9 1.85 -13.4 1.9 -13.2 1.95 -13.0 2.0 -7.5 2.05 -7.35 2.1 -7.35 2.05 -7.35 1.95 -7.3 1.85 -7.3 1.8 -7.25 1.7 -7.2 1.6 -7.15 1.5 -7.05 1.4 -6.95 1.3 -6.8 1.2 -6.65 1.15 -6.6 1.1 -6.45 1.1 -6.25 1.05 -5.8 1.0 -5.6 0.95 -5.4 0.9 -5.0 0.85 -4.85 0.85 -4.65 0.85 -4.65 0.8 -4.4 0.75 -4.2 0.7 -4.0 0.7 -4.0 0.65 -3.2 0.65 -2.75 0.65 -2.55 0.7 -2.35 0.75 -2.2 0.85 -2.1 0.95 -2.0 1.05 -1.95 1.1 -1.9 1.2 -1.9 1.3 -1.85 1.4 -1.8 1.5 -1.8 1.6 -1.8 1.7 -1.85 1.8 -1.9 1.85 -1.9 1.95 -1.95 2.05 -2.0 2.15 -2.1 2.25 -2.2 2.35 -2.2 2.4 -0.15 2.4 0.05 2.45 0.25 2.5 12.55 2.5 15.2 2.5 15.4 2.45 15.6 2.4 18.75 2.4 19.35 2.4 21.0 2.35 21.15 2.35 21.35 2.3 22.7 2.25 22.9 2.2 23.1 2.15 25.0 2.1 25.2 2.05 25.35 2.0 25.4 1.95 25.55 1.95 25.75 1.9 27.25 1.9 27.35 1.95 27.45 1.95 27.65 2.0 27.8 2.1 27.9 2.2 28.0 2.3 28.05 2.35 28.1 2.45 28.1 2.55 28.15 2.65 28.2 2.75 28.2 2.85 28.2 2.95 28.2 3.05 28.2 3.1 28.15 3.2 28.1 3.3 28.1 3.4 28.05 3.5 27.95 3.6 27.85 3.7 27.75 3.8 27.65 3.85 27.6 3.85 27.45 3.9 27.25 3.95 27.05 3.9 26.85 3.85 26.15 3.85 25.95 3.9 25.75 3.95 25.6 3.95 25.45 4.0 25.25 4.05 23.25 4.1 23.05 4.15 22.85 4.2 21.45 4.2 21.3 4.25 21.1 4.3 15.75 4.35 15.55 4.4 15.35 4.45 3.55 4.45 3.55 4.35 3.5 4.3 3.45 4.2 3.3 4.1 3.1 4.05 -6.05 4.05 -6.7 4.05 -6.7 3.95 -6.7 3.85 -6.75 3.8 -6.8 3.7 -6.95 3.6 -7.15 3.55 -7.85 3.5 -7.95 3.45 -8.15 3.35 -14.95 3.35 -15.0 3.3 -15.05 3.2 -15.15 3.1 -15.15 3.05 -15.2 2.95 -15.2 2.85 -15.2 2.75 -15.2 2.65 -15.2 2.55 M17.0 8.1 L14.4 8.1 14.2 8.15 14.0 8.2 13.6 8.2 13.45 8.25 13.25 8.3 12.5 8.35 12.3 8.4 12.1 8.45 7.75 8.45 7.65 8.4 7.55 8.4 7.35 8.35 5.5 8.3 5.3 8.25 5.15 8.2 4.0 8.2 3.8 8.15 3.6 8.1 -8.0 8.05 -8.2 8.0 -8.35 7.95 -9.9 7.95 -10.1 7.9 -10.3 7.85 -11.0 7.8 -11.2 7.75 -11.35 7.7 -15.25 7.7 -15.45 7.65 -15.65 7.6 -17.0 7.55 -17.2 7.5 -17.35 7.45 -18.9 7.45 -19.1 7.4 -19.3 7.35 -22.15 7.3 -22.35 7.25 -22.5 7.2 -23.0 7.2 -23.2 7.15 -23.4 7.1 -27.5 7.05 -27.7 7.0 -27.9 6.95 -28.05 6.85 -28.15 6.75 -28.25 6.65 -28.3 6.55 -28.4 6.45 -28.4 6.4 -28.4 6.35 -28.45 6.3 -28.45 6.2 -28.45 6.1 -28.45 6.0 -28.45 5.9 -28.4 5.8 -28.4 5.7 -28.3 5.6 -28.25 5.55 -28.15 5.45 -28.05 5.35 -27.9 5.25 -27.7 5.2 -27.5 5.2 -27.5 5.15 -23.25 5.15 -23.05 5.2 -22.85 5.25 -22.4 5.3 -22.2 5.35 -22.05 5.35 -19.25 5.4 -19.05 5.45 -18.85 5.5 -17.25 5.55 -17.05 5.6 -16.9 5.6 -15.5 5.65 -15.3 5.7 -15.1 5.75 -11.25 5.8 -11.05 5.85 -10.9 5.85 -10.15 5.9 -9.95 5.95 -9.75 6.0 -8.25 6.05 -8.05 6.1 -7.9 6.1 3.75 6.15 3.95 6.2 4.15 6.25 5.35 6.3 5.55 6.35 5.7 6.35 7.6 6.4 7.8 6.45 8.0 6.5 11.95 6.5 12.15 6.45 12.35 6.4 13.15 6.35 13.3 6.35 13.5 6.3 13.7 6.25 13.9 6.2 14.1 6.15 23.25 6.15 23.45 6.2 23.65 6.25 23.8 6.35 23.9 6.45 24.0 6.55 24.05 6.6 24.1 6.7 24.1 6.8 24.15 6.9 24.2 7.0 24.2 7.1 24.2 7.2 24.15 7.3 24.1 7.35 24.1 7.45 24.05 7.55 24.0 7.65 23.9 7.75 23.8 7.85 23.65 7.95 23.45 8.0 23.25 8.05 17.0 8.1" fill="#666666" fill-rule="evenodd" stroke="none"/>
    <path d="M3.55 4.45 L3.55 4.55 3.55 4.65 3.45 4.75 3.4 4.85 3.3 4.9 3.25 4.95 3.1 4.95 -3.3 4.95 -3.3 5.0 -3.4 5.1 -3.45 5.2 -3.55 5.25 -3.6 5.3 -3.75 5.3 -6.15 5.35 -6.25 5.45 -6.4 5.45 -7.0 5.5 -7.1 5.55 -7.25 5.55 -9.1 5.6 -9.25 5.7 -9.4 5.7 -12.75 5.7 -12.95 5.65 -13.1 5.55 -13.2 5.45 -13.2 5.35 -13.2 5.3 -13.2 5.2 -13.2 5.1 -13.15 5.0 -13.1 4.95 -13.75 4.95 -13.95 4.9 -14.1 4.8 -14.2 4.7 -14.2 4.6 -14.2 4.55 -14.2 4.45 -14.2 4.35 -15.45 4.35 -15.45 4.4 -15.55 4.5 -15.6 4.6 -15.7 4.65 -15.75 4.7 -15.9 4.7 -24.7 4.75 -24.75 4.8 -24.9 4.8 -25.75 4.85 -25.85 4.95 -26.0 4.95 -26.15 4.95 -26.4 4.9 -26.5 4.8 -26.6 4.7 -26.65 4.6 -26.65 4.55 -26.65 4.45 -26.6 4.35 -26.55 4.25 -26.45 4.15 -26.4 4.05 -26.3 3.95 -26.15 3.9 -26.0 3.85 -24.95 3.85 -24.9 3.8 -24.75 3.8 -19.65 3.8 -19.5 3.8 -18.3 3.7 -18.15 3.65 -18.0 3.6 -16.95 3.6 -16.9 3.55 -16.75 3.55 -16.05 3.45 -15.9 3.4 -15.75 3.4 -15.75 3.35 -14.95 3.35 -8.15 3.35 -7.95 3.45 -7.85 3.5 -7.15 3.55 -6.95 3.6 -6.8 3.7 -6.75 3.8 -6.7 3.85 -6.7 3.95 -6.7 4.05 -6.05 4.05 3.1 4.05 3.3 4.1 3.45 4.2 3.5 4.3 3.55 4.35 3.55 4.45" fill="#cccccc" fill-rule="evenodd" stroke="none"/>
    <path d="M29.4 -9.4 L29.4 -5.75 Q29.35 -4.4 28.7 -4.4 27.9 -4.4 27.9 -5.55 L28.05 -7.1 27.75 -9.75 Q27.75 -10.65 28.6 -10.45 29.4 -10.25 29.4 -9.4" fill="#000000" fill-rule="evenodd" stroke="none"/>
    <path d="M2.0 -0.45 L8.4 -0.6 10.7 -0.6 13.05 -0.6 13.55 -0.6 13.45 -0.55 13.4 -0.45 26.8 -0.5 26.8 -0.6 26.8 -0.7 26.8 -0.8 26.8 -0.9 26.8 -0.95 26.8 -1.05 26.8 -1.15 26.8 -1.25 26.8 -1.35 26.85 -1.45 26.85 -1.55 26.9 -1.65 26.95 -1.7 27.05 -1.8 27.15 -1.9 27.25 -2.0 27.35 -2.1 27.45 -2.2 27.65 -2.25 27.85 -2.25 27.85 -2.3 29.0 -2.3 29.2 -2.25 29.35 -2.2 29.5 -2.1 29.6 -2.0 29.65 -1.9 29.7 -1.8 29.75 -1.7 29.75 -1.65 29.8 -1.55 29.85 -1.45 29.85 -1.35 29.85 -1.25 29.85 -1.15 29.9 -1.05 29.95 -0.95 30.0 -0.9 30.0 -0.8 30.05 -0.7 30.1 -0.6 30.1 -0.5 30.1 -0.4 Q30.5 -0.15 30.35 1.25 L30.35 2.55 Q30.05 3.35 28.55 3.4 L27.95 3.5 Q27.3 3.5 27.15 3.25 L27.0 3.35 27.0 3.3 27.0 3.25 25.45 3.25 25.4 3.3 25.15 3.35 25.05 3.4 25.0 3.45 24.85 3.45 21.1 3.45 20.85 3.4 20.8 3.35 16.6 3.3 16.35 3.25 -20.8 3.25 -24.1 3.35 -25.0 3.35 -25.2 3.35 -25.35 3.4 -25.4 3.45 -29.15 3.9 -29.1 3.65 -29.3 3.65 Q-30.75 3.65 -30.85 3.15 L-30.75 2.2 -30.95 0.75 -30.75 -0.05 Q-29.25 -1.95 -28.15 -1.1 L-27.55 -0.15 -24.9 -0.3 -22.55 -0.3 -20.05 -0.4 -17.3 -0.4 -14.35 -0.45 -11.15 -0.45 -9.45 -0.45 -7.75 -0.5 -5.85 -0.5 -4.05 -0.5 -2.1 -0.5 -0.1 -0.5 2.0 -0.45 M-29.5 7.65 L-29.5 7.75 -29.45 7.8 -29.55 7.9 -29.55 8.0 -29.6 8.1 -29.65 8.2 -29.65 8.25 -29.5 8.2 -28.05 8.15 -27.85 8.1 -27.65 8.1 -27.65 8.05 -16.0 8.05 -15.8 8.1 -15.65 8.15 -15.5 8.25 -11.35 8.25 -11.15 8.25 -10.6 8.25 -7.25 8.4 -3.6 8.6 0.5 8.75 4.2 8.75 5.75 8.55 9.95 8.25 11.2 8.2 12.45 8.15 12.85 8.1 14.3 8.1 14.45 8.05 16.05 8.25 19.05 8.4 19.15 8.4 Q22.1 8.75 24.8 8.45 L28.45 8.3 28.4 7.6 28.35 7.15 28.2 7.1 27.85 7.1 5.35 7.5 -15.2 7.5 -17.75 7.65 -17.8 7.6 -18.0 7.6 -20.05 7.55 -20.2 7.55 -20.4 7.5 -20.9 7.45 -20.95 7.45 -21.05 7.4 -21.2 7.35 -21.4 7.35 -22.55 7.3 -22.7 7.3 -22.9 7.25 -27.95 7.25 -28.1 7.25 -28.4 7.25 -28.4 7.3 -28.6 7.3 -28.75 7.3 -28.9 7.35 -28.95 7.35 -29.05 7.45 -29.5 7.45 -29.5 7.65 M-5.9 1.4 L-7.5 1.4 -9.0 1.4 -11.3 1.4 -13.4 1.35 -16.05 1.1 Q-16.6 1.1 -16.7 1.4 L-19.85 1.45 -20.7 1.45 -21.6 1.45 -21.95 1.5 -26.0 1.55 -26.65 1.5 -27.4 1.6 -27.8 1.6 -27.8 1.7 -27.75 1.75 -27.9 1.8 -27.55 1.85 Q-7.2 1.9 -2.7 2.05 L-2.6 2.25 18.2 2.25 18.3 2.35 21.0 2.35 21.2 2.45 21.3 2.5 24.7 2.45 24.85 2.4 25.0 2.35 25.1 2.35 25.2 2.3 25.35 2.3 27.0 2.2 27.0 2.1 27.0 2.0 27.0 1.9 27.0 1.8 27.05 1.7 27.1 1.6 27.15 1.55 27.2 1.45 27.2 1.35 27.25 1.25 27.25 1.15 27.25 1.1 27.1 1.1 12.6 1.1 12.65 1.2 12.7 1.3 10.0 1.3 6.8 1.3 5.4 1.3 4.5 1.25 1.2 1.4 0.4 1.4 -1.2 1.4 -5.9 1.4 M-15.85 5.8 L-3.6 5.7 7.15 5.8 7.25 6.15 7.25 6.3 8.6 6.25 22.95 6.0 28.35 6.05 28.35 5.95 Q28.35 5.4 28.9 5.45 29.45 5.5 30.0 6.1 L30.15 6.45 30.25 6.75 30.25 6.95 30.25 7.55 30.2 8.25 Q30.2 8.95 29.8 9.55 29.15 10.65 27.85 10.65 27.4 10.65 27.35 10.4 L27.3 10.1 28.25 9.35 2.75 10.25 Q-8.0 9.45 -17.2 9.8 L-17.1 9.7 -17.0 9.6 -27.4 9.7 -27.55 9.75 -27.75 9.8 -28.95 9.8 -28.9 9.85 -28.85 9.95 -28.8 10.05 -28.75 10.15 -28.7 10.25 -28.7 10.35 -28.7 10.45 -28.7 10.55 -28.75 10.6 -28.75 10.7 -28.8 10.8 -28.85 10.9 -28.9 11.0 -29.0 11.1 -29.15 11.2 -29.3 11.25 -29.5 11.3 -29.65 11.3 -29.85 11.25 -30.05 11.2 -30.15 11.1 -30.25 11.0 -30.35 10.9 -30.45 10.85 -30.65 10.8 -30.8 10.7 -30.9 10.6 -31.0 10.5 -31.1 10.4 -31.15 10.3 -31.15 10.2 -31.2 10.1 -31.3 10.05 -31.4 9.95 -31.4 9.85 -31.45 9.75 -31.45 9.65 -31.5 9.55 -31.55 9.45 -31.55 9.35 -31.55 9.3 -31.55 9.2 -31.55 9.1 -31.55 9.0 -31.55 8.9 -31.55 8.8 -31.55 8.7 -31.55 8.6 -31.55 8.55 -31.55 8.45 -31.55 8.35 -31.55 8.25 -31.55 8.15 -31.55 8.05 -31.55 7.95 -31.55 7.85 -31.55 7.8 -31.55 7.7 -31.55 7.6 -31.55 7.5 -31.55 7.4 -31.55 7.3 -31.55 7.2 -31.55 7.1 -31.55 7.05 -31.55 6.95 -31.55 6.85 -31.55 6.75 -31.5 6.65 -31.5 6.55 -31.45 6.45 -31.4 6.35 -31.3 6.3 -31.2 6.2 -31.05 6.1 -30.95 6.1 -30.75 6.1 -30.75 6.05 -30.55 6.1 -30.4 6.15 -30.3 6.2 -30.15 6.15 -29.7 6.1 Q-29.15 5.65 -28.6 5.95 L-28.45 6.0 -26.5 5.95 -26.35 5.95 -26.15 6.0 -25.15 6.0 -24.95 5.95 -24.8 5.95 -23.95 5.95 -23.95 5.85 -22.55 5.85 -22.55 5.9 -20.35 5.85 -18.8 5.85 -16.25 5.85 -16.05 5.8 -15.9 5.8 -15.85 5.8 M-29.35 1.6 L-29.25 1.8 -28.85 1.75 -29.35 1.6 M28.15 1.5 L28.15 1.2 27.95 1.2 27.9 1.4 28.15 1.5 M18.05 2.05 L18.1 2.1 17.5 2.1 17.7 2.05 17.85 2.05 18.05 2.05" fill="#000000" fill-rule="evenodd" stroke="none"/>
    <path d="M-29.05 7.45 L-29.2 7.55 -29.3 7.6 -29.4 7.7 -29.4 7.75 -29.5 7.65 -29.5 7.45 -29.05 7.45" fill="#009900" fill-rule="evenodd" stroke="none"/>
  </g>
</svg>
