<?xml version="1.0" encoding="UTF-8" standalone="no"?>
<svg xmlns:ffdec="https://www.free-decompiler.com/flash" xmlns:xlink="http://www.w3.org/1999/xlink" ffdec:objectType="shape" height="26.95px" width="13.5px" xmlns="http://www.w3.org/2000/svg">
  <g transform="matrix(1.0, 0.0, 0.0, 1.0, 8.05, 25.5)">
    <path d="M2.9 -15.35 Q3.8 -12.65 3.8 -11.75 4.3 -11.45 4.6 -10.55 L4.65 -10.6 Q5.3 -10.6 5.45 -10.15 L5.45 -9.7 Q5.45 -8.25 4.4 -5.95 L2.05 -1.9 Q0.7 0.05 -0.3 0.8 L-0.5 0.95 -0.55 1.0 -1.3 1.45 Q-1.65 1.35 -1.65 0.65 L-1.4 -0.4 Q-1.1 -1.3 -1.1 -2.25 -1.1 -3.7 -2.75 -6.65 -3.35 -6.9 -4.15 -9.0 L-4.6 -9.65 -6.95 -13.2 Q-8.05 -14.85 -8.05 -15.25 -8.05 -16.85 -7.7 -17.5 L-7.05 -18.7 -6.3 -20.55 -3.65 -23.45 Q-1.4 -25.5 -0.95 -25.5 -0.4 -25.5 -0.2 -25.15 L-0.15 -24.8 -0.35 -24.5 0.15 -23.55 0.4 -21.6 Q0.45 -20.95 1.05 -20.0 L1.75 -18.7 1.9 -18.3 2.9 -15.35 M-0.1 -16.95 L-0.3 -17.35 -0.3 -17.0 -0.1 -16.95" fill="#00b3ff" fill-rule="evenodd" stroke="none"/>
  </g>
</svg>
