<?xml version="1.0" encoding="UTF-8" standalone="no"?>
<svg xmlns:ffdec="https://www.free-decompiler.com/flash" xmlns:xlink="http://www.w3.org/1999/xlink" ffdec:objectType="shape" height="29.75px" width="14.6px" xmlns="http://www.w3.org/2000/svg">
  <g transform="matrix(1.0, 0.0, 0.0, 1.0, 8.45, 26.25)">
    <path d="M0.0 -24.4 L0.05 -24.3 0.05 -24.2 0.1 -23.9 0.1 -23.75 0.1 -23.65 0.15 -23.55 0.2 -23.45 0.2 -23.35 0.25 -23.25 0.3 -23.15 0.3 -23.05 0.35 -23.0 0.35 -22.9 0.4 -22.8 0.45 -22.7 0.45 -22.6 0.6 -22.35 0.8 -21.75 0.95 -21.5 0.95 -21.4 1.0 -21.3 1.0 -21.2 1.05 -21.1 1.1 -21.0 1.1 -20.9 1.2 -20.75 2.0 -19.05 2.15 -18.7 2.75 -17.55 2.8 -17.45 2.85 -17.35 2.85 -17.25 2.95 -17.1 3.7 -15.6 4.2 -14.35 4.3 -14.15 4.4 -14.0 4.4 -13.9 4.5 -13.8 4.6 -13.7 4.6 -13.6 4.6 -13.5 4.65 -13.4 4.7 -13.35 4.7 -13.25 4.75 -13.15 4.8 -13.05 4.8 -12.95 4.85 -12.85 4.85 -12.75 4.85 -12.65 4.9 -12.6 4.95 -12.5 4.95 -12.4 5.05 -12.1 5.15 -11.9 5.2 -11.85 5.2 -11.75 5.25 -11.65 5.3 -11.55 5.35 -11.35 5.4 -11.25 5.45 -11.15 5.45 -11.1 5.45 -11.0 5.5 -10.9 5.65 -10.55 6.0 -9.65 6.05 -9.55 6.15 -7.75 5.9 -6.05 5.85 -6.1 5.6 -6.0 5.25 -5.75 5.1 -5.55 5.0 -5.45 5.0 -5.35 4.95 -5.25 4.95 -5.15 4.9 -5.05 4.8 -4.9 4.75 -4.8 4.7 -4.7 4.6 -4.6 4.45 -4.4 4.4 -4.3 4.35 -4.25 4.35 -4.15 4.35 -4.05 4.1 -3.65 3.75 -2.9 3.55 -2.45 3.5 -2.35 3.4 -2.25 3.4 -2.15 3.35 -2.05 3.3 -2.0 3.25 -1.9 3.05 -1.7 3.0 -1.6 2.9 -1.5 2.85 -1.35 2.8 -1.15 2.75 -1.05 2.7 -0.95 2.6 -0.85 2.45 -0.6 2.35 -0.4 2.3 -0.3 2.2 -0.2 2.1 -0.1 2.05 0.0 2.0 0.1 1.95 0.15 1.75 0.35 1.55 0.75 1.45 0.9 1.35 1.0 1.3 1.1 1.25 1.2 1.2 1.3 1.0 1.5 0.25 2.2 -0.6 2.95 -1.3 2.9 -1.7 3.35 -1.95 3.5 -1.9 3.2 -1.9 3.0 -1.85 2.9 -1.8 2.85 -1.8 2.55 -1.8 2.35 -1.8 2.25 -1.75 2.15 -1.75 2.1 -1.7 2.0 -1.65 1.9 -1.65 1.4 -1.65 0.5 -1.65 -0.15 -1.7 -0.25 -1.75 -0.35 -1.75 -0.45 -1.8 -0.55 -1.8 -1.0 -1.85 -1.5 -1.9 -1.65 -1.95 -2.15 -1.95 -2.6 -1.95 -2.8 -2.0 -2.9 -2.05 -3.0 -2.05 -3.05 -2.1 -3.15 -2.1 -3.25 -2.2 -3.35 -2.2 -3.4 -2.2 -3.5 -2.35 -3.9 -2.55 -4.25 -2.65 -4.45 -2.75 -4.55 -2.85 -4.65 -2.85 -4.75 -2.9 -4.85 -3.0 -4.9 -3.15 -5.2 -3.4 -5.65 -3.55 -5.95 -3.65 -6.05 -3.7 -6.15 -3.8 -6.35 -3.85 -6.4 -3.85 -6.5 -4.15 -6.8 -4.35 -7.0 -4.45 -7.1 -4.6 -7.45 -4.8 -7.85 -4.85 -8.0 -4.95 -8.1 -5.05 -8.2 -5.1 -8.3 -5.1 -8.4 -5.2 -8.5 -5.25 -8.55 -5.35 -8.85 -5.55 -9.25 -5.65 -9.4 -5.75 -9.5 -5.8 -9.6 -5.8 -9.7 -5.85 -9.8 -5.85 -9.9 -5.95 -10.0 -6.05 -10.1 -6.1 -10.15 -6.15 -10.35 -6.2 -10.45 -6.25 -10.55 -6.35 -10.65 -6.4 -10.75 -6.45 -10.8 -6.5 -10.9 -6.55 -11.0 -6.55 -11.1 -6.6 -11.2 -6.65 -11.3 -6.75 -11.4 -6.8 -11.5 -6.85 -11.55 -6.9 -11.65 -7.0 -11.75 -7.15 -12.05 -7.5 -12.9 -7.9 -13.55 -7.9 -13.6 -7.95 -13.75 -8.05 -14.05 -8.1 -14.25 -8.15 -14.35 -8.2 -14.35 -8.2 -14.45 -8.25 -14.55 -8.3 -14.65 -8.3 -14.75 -8.3 -14.8 -8.35 -14.9 -8.35 -15.0 -8.4 -15.1 -8.4 -15.2 -8.4 -15.3 -8.4 -15.75 -8.45 -16.65 -8.35 -17.35 -8.3 -17.5 -8.3 -17.7 -8.3 -17.9 -8.3 -18.0 -8.25 -18.15 -8.15 -18.45 -8.1 -18.65 -8.05 -18.7 -8.05 -18.75 -8.05 -18.85 -8.05 -18.9 -8.0 -19.0 -7.9 -19.1 -7.85 -19.2 -7.8 -19.3 -7.8 -19.4 -7.7 -19.6 -7.6 -19.75 -7.6 -19.85 -7.55 -19.95 -7.55 -20.05 -7.55 -20.15 -7.55 -20.25 -7.5 -20.35 -7.45 -20.4 -7.35 -20.5 -7.35 -20.6 -7.3 -20.7 -7.25 -20.8 -7.0 -21.0 -6.9 -21.1 -6.85 -21.15 -6.65 -21.3 -6.25 -21.65 -6.05 -21.8 -6.0 -21.95 -5.95 -22.0 -5.9 -22.1 -5.7 -22.3 -5.5 -22.5 -5.45 -22.55 -5.35 -22.65 -5.3 -22.75 -5.25 -22.85 -5.2 -22.95 -5.1 -23.05 -5.1 -23.1 -4.75 -23.3 -4.25 -23.7 -4.05 -23.95 -3.95 -23.9 -3.7 -23.85 -3.65 -23.85 -3.5 -23.85 -3.4 -23.9 -2.9 -24.3 -2.5 -24.5 -2.4 -24.6 -2.3 -24.7 -2.2 -24.8 -2.0 -24.85 -1.9 -24.9 -1.8 -24.95 -1.6 -25.15 -1.5 -25.25 -1.4 -25.35 -1.35 -25.4 -1.35 -25.5 -1.3 -25.6 -1.3 -25.7 -1.3 -25.8 -1.3 -25.85 -1.25 -25.9 -1.15 -26.0 -1.1 -26.05 -1.05 -26.0 -0.55 -26.25 -0.55 -26.15 -0.55 -26.0 -0.5 -25.9 -0.45 -25.8 -0.45 -25.7 -0.4 -25.6 -0.4 -25.5 -0.35 -25.4 -0.3 -25.35 -0.3 -25.25 -0.25 -25.15 -0.2 -25.05 -0.2 -24.95 -0.15 -24.85 -0.15 -24.75 -0.1 -24.65 -0.05 -24.55 -0.05 -24.5 0.0 -24.4 M0.0 -21.05 L-0.05 -21.1 -0.35 -21.8 -1.2 -25.1 -2.0 -24.35 -4.25 -22.5 Q-6.3 -20.65 -7.05 -18.7 L-7.5 -16.45 Q-7.5 -14.95 -6.45 -12.95 L-4.1 -9.25 Q-2.45 -6.8 -1.75 -5.3 -0.7 -3.0 -0.7 -0.95 L-0.75 0.15 -0.8 1.65 -0.85 1.75 -0.45 1.3 0.95 -0.5 1.2 -0.45 1.4 -0.5 1.5 -0.5 1.55 -0.6 1.95 -0.95 2.15 -1.15 2.3 -1.5 2.45 -1.8 2.5 -1.9 2.6 -2.0 2.65 -2.1 2.75 -2.25 2.8 -2.35 2.8 -2.45 3.1 -2.75 3.3 -2.9 3.4 -3.0 3.55 -3.4 3.75 -3.75 3.85 -3.95 3.9 -4.05 4.0 -4.15 4.05 -4.25 4.05 -4.35 4.1 -4.4 4.15 -4.5 4.15 -4.6 4.2 -4.7 4.3 -4.8 4.35 -4.9 4.4 -5.0 4.45 -5.1 4.45 -5.15 4.5 -5.25 4.6 -5.35 4.65 -5.45 4.7 -5.55 4.7 -5.65 4.85 -5.9 5.0 -6.3 5.1 -6.5 5.1 -7.05 5.1 -7.7 5.1 -8.15 5.05 -8.25 5.0 -8.35 5.0 -8.45 4.95 -8.55 4.95 -8.75 4.95 -9.0 4.95 -9.2 4.9 -9.3 4.9 -9.4 4.8 -9.55 4.75 -9.65 4.65 -9.75 4.55 -10.05 4.35 -10.6 4.2 -10.9 4.2 -11.0 4.15 -11.05 4.1 -11.15 4.1 -11.25 4.1 -11.35 4.05 -11.45 4.05 -11.55 3.95 -11.75 3.85 -11.9 3.85 -12.0 3.85 -12.1 3.8 -12.2 3.7 -12.4 3.65 -12.5 3.55 -12.6 3.55 -12.7 3.55 -12.8 3.35 -13.15 3.15 -13.55 3.05 -13.75 3.05 -13.85 3.05 -13.9 3.0 -14.0 2.9 -14.1 2.8 -14.2 2.8 -14.3 2.75 -14.4 2.7 -14.5 2.7 -14.6 2.65 -14.65 2.65 -14.75 2.55 -14.95 2.5 -15.05 2.4 -15.15 2.3 -15.5 2.0 -16.25 1.8 -16.75 1.8 -16.8 1.75 -16.9 1.65 -17.0 1.55 -17.3 1.4 -17.65 1.3 -17.85 1.3 -17.95 1.3 -18.05 1.25 -18.15 1.15 -18.3 1.1 -18.4 1.05 -18.5 1.0 -18.7 0.95 -18.9 0.7 -19.45 0.55 -19.75 0.55 -19.85 0.55 -19.9 0.5 -20.0 0.45 -20.1 0.45 -20.2 0.45 -20.3 0.4 -20.4 0.4 -20.5 0.35 -20.6 0.3 -20.65 0.25 -20.75 0.1 -20.95 0.0 -21.05" fill="#000000" fill-rule="evenodd" stroke="none"/>
  </g>
</svg>
