<?xml version="1.0" encoding="UTF-8" standalone="no"?>
<svg xmlns:ffdec="https://www.free-decompiler.com/flash" xmlns:xlink="http://www.w3.org/1999/xlink" ffdec:objectType="shape" height="5.85px" width="9.75px" xmlns="http://www.w3.org/2000/svg">
  <g transform="matrix(1.0, 0.0, 0.0, 1.0, 6.65, 9.5)">
    <path d="M0.8 -9.15 L2.85 -9.1 2.9 -9.0 2.95 -8.9 3.0 -8.8 3.05 -8.75 3.05 -8.65 3.05 -8.55 3.1 -8.45 3.1 -8.35 3.1 -8.25 3.05 -8.15 3.05 -8.05 3.05 -8.0 3.0 -7.9 2.95 -7.8 2.9 -7.7 2.85 -7.6 2.75 -7.5 2.7 -7.4 2.6 -7.3 2.5 -7.25 2.4 -7.15 2.3 -7.05 2.2 -6.95 2.15 -6.85 2.1 -6.75 2.0 -6.65 1.9 -6.55 1.85 -6.5 1.75 -6.4 1.7 -6.3 1.6 -6.2 1.5 -6.1 1.35 -6.0 1.25 -5.9 1.15 -5.8 1.05 -5.75 0.95 -5.65 0.75 -5.45 0.6 -5.35 0.5 -5.25 0.35 -5.15 0.3 -5.05 0.2 -5.0 0.1 -4.9 0.05 -4.8 -0.05 -4.7 -0.15 -4.6 -0.25 -4.5 -0.4 -4.4 -0.55 -4.3 -0.7 -4.25 -0.8 -4.15 -0.9 -4.05 -1.0 -3.95 -1.15 -3.85 -1.25 -3.75 -1.35 -3.65 -1.4 -3.75 -1.45 -3.8 -1.55 -3.9 -1.65 -4.0 -1.65 -4.1 -1.7 -4.2 -1.8 -4.3 -1.9 -4.4 -1.95 -4.5 -2.05 -4.55 -2.1 -4.65 -2.15 -4.75 -2.25 -4.85 -2.35 -4.95 -2.5 -5.05 -2.65 -5.15 -2.75 -5.25 -2.8 -5.3 -2.9 -5.4 -3.0 -5.5 -3.1 -5.6 -3.0 -5.7 -2.9 -5.8 -2.7 -5.9 -2.55 -6.0 -2.45 -6.05 -2.35 -6.15 -2.2 -6.25 -2.05 -6.35 -1.95 -6.45 -1.9 -6.55 -1.8 -6.65 -1.7 -6.75 -1.6 -6.8 -1.55 -6.9 -1.4 -7.0 -1.3 -7.1 -1.15 -7.2 -1.05 -7.3 -1.0 -7.4 -0.95 -7.5 -0.85 -7.55 -0.8 -7.65 -0.65 -7.75 -0.5 -7.85 -0.35 -7.95 -0.25 -8.05 -0.15 -8.15 -0.05 -8.25 0.05 -8.3 0.1 -8.4 0.2 -8.5 0.25 -8.6 0.3 -8.7 0.55 -8.9 0.75 -9.1 0.8 -9.15 M-4.7 -9.3 L-4.6 -9.2 -4.5 -9.1 -4.45 -9.0 -4.4 -8.9 -4.35 -8.8 -4.3 -8.75 -4.3 -8.65 -4.3 -8.55 -4.25 -8.45 -4.25 -8.35 -4.25 -8.25 -4.25 -8.15 -4.25 -8.05 -4.25 -8.0 -4.3 -7.9 -4.3 -7.8 -4.35 -7.7 -4.4 -7.6 -4.4 -7.5 -4.45 -7.4 -4.55 -7.3 -4.65 -7.25 -4.7 -7.15 -4.75 -7.1 -4.85 -7.2 -5.25 -7.55 -5.5 -7.85 -5.55 -7.95 -5.7 -8.05 -5.9 -8.25 -5.95 -8.3 -6.05 -8.4 -6.15 -8.5 -6.25 -8.6 -6.4 -8.7 -6.65 -8.85 -6.65 -8.9 -6.6 -9.0 -6.55 -9.05 -6.45 -9.15 -6.4 -9.25 -6.25 -9.35 -6.1 -9.45 -6.0 -9.5 -5.95 -9.5 -4.9 -9.45 -4.8 -9.4 -4.7 -9.3" fill="#9fffff" fill-opacity="0.18431373" fill-rule="evenodd" stroke="none"/>
  </g>
</svg>
