<?xml version="1.0" encoding="UTF-8" standalone="no"?>
<svg xmlns:ffdec="https://www.free-decompiler.com/flash" xmlns:xlink="http://www.w3.org/1999/xlink" ffdec:objectType="shape" height="18.8px" width="20.55px" xmlns="http://www.w3.org/2000/svg">
  <g transform="matrix(1.0, 0.0, 0.0, 1.0, 10.3, 9.6)">
    <path d="M-6.6 -6.25 L-6.65 -6.3 -6.75 -6.4 -6.8 -6.45 -6.95 -6.55 -7.05 -6.65 -7.1 -6.75 -7.2 -6.85 -7.3 -6.95 -7.4 -7.05 -7.5 -7.15 -7.55 -7.25 -7.65 -7.3 -7.75 -7.4 -7.8 -7.5 -7.85 -7.6 -7.95 -7.7 -8.05 -7.8 -8.15 -7.9 -8.3 -8.0 -8.4 -8.05 -8.45 -8.15 -8.5 -8.25 -8.6 -8.35 -8.7 -8.45 -8.75 -8.55 -8.8 -8.65 -8.85 -8.75 -8.9 -8.8 -9.0 -8.9 -9.05 -9.0 -9.1 -9.1 -9.2 -9.2 -8.75 -9.3 -5.65 -9.3 -5.5 -9.3 -3.85 -9.25 -3.3 -9.15 -2.75 -9.1 -2.55 -9.05 -2.4 -9.05 1.05 -9.05 1.2 -9.05 1.4 -9.1 1.7 -9.15 1.75 -9.15 2.25 -9.25 3.25 -9.35 3.7 -9.4 3.75 -9.4 4.05 -9.45 4.65 -9.55 4.8 -9.55 5.0 -9.6 8.15 -9.55 9.2 -9.4 9.35 -9.3 9.45 -9.2 9.55 -9.1 9.65 -9.0 9.7 -8.9 9.75 -8.8 9.8 -8.75 9.85 -8.65 9.85 -8.55 9.85 -8.45 9.9 -8.35 9.9 -8.25 9.9 -8.15 9.85 -8.05 9.85 -8.0 9.85 -7.9 9.8 -7.8 9.75 -7.75 9.8 -7.7 9.9 -7.6 10.0 -7.5 10.05 -7.4 10.1 -7.3 10.15 -7.25 10.2 -7.15 10.2 -7.05 10.2 -6.95 10.25 -6.85 10.25 -6.75 10.25 -6.65 10.2 -6.55 10.2 -6.5 10.2 -6.4 10.15 -6.3 10.1 -6.2 10.05 -6.1 10.0 -6.0 9.9 -5.9 9.85 -5.8 9.8 -5.85 9.7 -5.95 9.6 -6.05 9.45 -6.15 8.9 -6.25 4.3 -6.2 4.0 -6.15 3.95 -6.15 3.3 -6.1 1.7 -5.9 1.6 -5.9 -2.05 -5.9 -2.15 -5.9 -2.4 -5.95 -4.0 -6.1 -4.3 -6.15 -4.85 -6.25 -6.6 -6.25" fill="#bae4e3" fill-opacity="0.33333334" fill-rule="evenodd" stroke="none"/>
    <path d="M9.85 -5.8 L9.9 -5.75 9.95 -5.65 10.0 -5.55 10.05 -5.5 10.1 -5.4 10.1 -5.3 10.1 -5.2 10.15 -5.1 10.15 -5.0 10.15 -4.9 10.1 -4.8 10.1 -4.75 10.1 -4.65 10.05 -4.55 10.0 -4.45 9.95 -4.35 9.9 -4.25 9.8 -4.15 9.7 -4.05 9.6 -4.0 9.45 -3.9 9.25 -3.85 8.9 -3.8 5.0 -3.75 4.95 -3.7 4.0 -3.5 2.7 -3.5 2.6 -3.45 2.35 -3.4 -2.5 -3.4 -3.05 -3.5 -3.65 -3.5 -3.7 -3.55 -3.9 -3.65 -4.0 -3.75 -4.15 -3.85 -4.3 -3.95 -4.4 -4.05 -4.45 -4.15 -4.55 -4.25 -4.6 -4.3 -4.65 -4.4 -4.75 -4.5 -4.85 -4.6 -5.0 -4.7 -5.2 -4.8 -5.3 -4.9 -5.45 -5.0 -5.55 -5.05 -5.65 -5.15 -5.75 -5.25 -5.8 -5.35 -5.9 -5.45 -6.05 -5.55 -6.15 -5.65 -6.25 -5.75 -6.3 -5.8 -6.4 -5.9 -6.45 -6.0 -6.5 -6.1 -6.55 -6.2 -6.6 -6.25 -4.85 -6.25 -4.3 -6.15 -4.0 -6.1 -2.4 -5.95 -2.15 -5.9 -2.05 -5.9 1.6 -5.9 1.7 -5.9 3.3 -6.1 3.95 -6.15 4.0 -6.15 4.3 -6.2 8.9 -6.25 9.45 -6.15 9.6 -6.05 9.7 -5.95 9.8 -5.85 9.85 -5.8" fill="#bae4e3" fill-opacity="0.07450981" fill-rule="evenodd" stroke="none"/>
    <path d="M-10.1 8.45 L-10.0 8.5 -9.85 8.6 -9.8 8.7 -9.7 8.8 -9.65 8.9 -9.5 9.0 -9.4 9.1 -9.3 9.2 -9.45 9.15 -9.8 9.0 -9.95 8.9 -10.05 8.85 -10.1 8.75 -10.15 8.65 -10.25 8.55 -10.25 8.45 -10.3 8.35 -10.3 8.3 -10.25 8.35 -10.1 8.45 M-2.25 4.4 L-2.4 4.3 -2.45 4.25 -2.25 4.3 -2.15 4.35 -2.05 4.35 -2.0 4.4 -2.0 4.5 -1.9 4.6 -1.85 4.7 -1.9 4.7 -2.0 4.6 -2.1 4.5 -2.25 4.4 M10.2 6.1 L10.2 6.2 10.2 6.3 10.25 6.4 10.25 6.5 10.25 6.6 10.2 6.7 10.2 6.75 10.2 6.85 10.15 6.95 10.1 7.05 10.05 7.15 10.0 7.25 10.0 7.3 10.0 7.35 10.05 7.45 10.1 7.55 10.1 7.65 10.15 7.75 10.15 7.85 10.15 7.95 10.15 8.0 10.1 8.1 10.1 8.2 10.05 8.3 10.0 8.4 10.0 8.5 9.95 8.6 9.85 8.7 9.75 8.75 9.7 8.85 9.55 8.95 9.45 9.0 9.35 9.05 9.25 9.1 8.9 9.15 8.75 9.15 8.45 9.1 8.45 9.0 8.35 8.9 8.35 8.8 8.25 8.7 8.25 8.6 8.2 8.5 8.1 8.45 8.05 8.35 8.0 8.25 8.0 8.15 7.95 8.05 7.85 7.95 7.75 7.85 7.7 7.75 7.6 7.7 7.5 7.6 7.45 7.5 7.4 7.4 7.1 7.1 6.9 6.95 6.65 6.75 6.3 6.55 6.25 6.45 6.15 6.35 6.05 6.25 5.95 6.2 5.85 6.1 5.75 6.0 5.65 5.9 5.5 5.8 5.3 5.7 5.2 5.6 5.05 5.5 4.95 5.4 4.85 5.35 4.75 5.25 4.65 5.15 4.35 4.95 4.1 4.75 4.0 4.7 3.75 4.5 3.9 4.5 4.25 4.55 4.35 4.6 4.45 4.6 8.95 4.7 9.1 4.7 9.25 4.75 9.45 4.85 9.55 4.95 9.65 5.05 9.75 5.15 9.8 5.25 9.85 5.35 9.9 5.45 9.95 5.5 9.95 5.6 9.95 5.7 10.0 5.75 10.05 5.85 10.1 5.95 10.15 6.0 10.2 6.1" fill="#3352cc" fill-opacity="0.1882353" fill-rule="evenodd" stroke="none"/>
  </g>
</svg>
