<?xml version="1.0" encoding="UTF-8" standalone="no"?>
<svg xmlns:ffdec="https://www.free-decompiler.com/flash" xmlns:xlink="http://www.w3.org/1999/xlink" ffdec:objectType="shape" height="22.35px" width="21.35px" xmlns="http://www.w3.org/2000/svg">
  <g transform="matrix(1.0, 0.0, 0.0, 1.0, 10.5, 11.6)">
    <path d="M9.85 -11.25 L10.0 -11.15 10.15 -11.05 10.25 -10.95 10.35 -10.85 10.4 -10.75 10.45 -10.65 10.5 -10.55 10.55 -10.5 10.55 -10.4 10.55 -10.3 10.6 -10.2 10.6 -10.1 10.6 -10.0 10.55 -9.9 10.55 -9.8 10.55 -9.75 10.5 -9.65 10.45 -9.55 10.4 -9.45 10.35 -9.35 10.25 -9.25 10.15 -9.15 10.0 -9.05 9.85 -9.0 9.7 -8.9 9.35 -8.9 6.3 -8.9 5.95 -9.0 5.6 -9.0 5.4 -9.05 5.25 -9.05 -4.55 -9.05 -4.7 -9.05 -6.45 -9.0 -6.4 -8.95 -6.25 -8.85 -5.95 -8.55 -5.6 -8.2 -5.15 -7.75 -4.75 -7.35 -4.7 -7.25 -4.6 -7.15 -4.5 -7.05 -4.4 -7.0 -4.3 -6.9 -4.2 -6.8 -4.15 -6.7 -4.1 -6.6 -3.9 -6.4 -3.7 -6.25 -3.45 -5.95 -3.15 -5.65 -3.05 -5.55 -3.0 -5.5 -2.95 -5.4 -2.9 -5.3 -2.8 -5.2 -2.7 -5.1 -2.65 -5.0 -2.55 -4.9 -2.35 -4.8 -2.25 -4.7 -2.15 -4.65 -2.05 -4.55 -1.95 -4.45 -1.85 -4.35 -1.75 -4.25 -1.7 -4.15 -1.6 -4.05 -1.5 -3.95 -1.4 -3.9 -1.3 -3.8 -1.2 -3.7 -1.15 -3.6 -1.15 -3.5 -1.0 -3.4 -0.9 -3.3 -0.8 -3.25 -0.7 -3.15 -0.5 -2.95 -0.4 -2.85 -0.35 -2.75 -0.3 -2.65 -0.2 -2.55 -0.15 -2.5 -0.05 -2.4 0.05 -2.3 0.15 -2.2 0.35 -2.0 0.45 -1.9 0.5 -1.8 0.55 -1.75 0.6 -1.65 0.7 -1.55 0.8 -1.45 0.9 -1.35 1.0 -1.25 1.05 -1.15 1.1 -1.05 1.15 -1.0 1.25 -0.9 1.35 -0.8 1.4 -0.7 1.5 -0.6 1.6 -0.5 1.7 -0.4 1.8 -0.3 1.85 -0.25 1.95 -0.15 2.05 -0.05 2.15 0.05 2.25 0.15 2.3 0.25 2.4 0.35 2.5 0.45 2.6 0.5 2.7 0.6 2.8 0.7 2.85 0.8 2.9 0.9 3.1 1.1 3.3 1.25 3.45 1.45 3.75 1.75 3.8 1.85 3.9 1.95 4.05 2.0 4.2 2.1 4.3 2.2 4.5 2.4 4.55 2.5 4.6 2.6 4.7 2.7 4.8 2.75 4.9 2.85 5.05 2.95 5.15 3.05 5.35 3.25 5.4 3.35 5.5 3.45 5.6 3.5 5.7 3.6 5.8 3.7 6.1 3.9 6.2 4.0 6.3 4.1 6.4 4.2 6.5 4.3 6.6 4.35 6.7 4.45 6.8 4.55 6.85 4.65 7.0 4.75 7.2 4.95 7.35 5.1 7.65 5.4 7.95 5.7 8.0 5.75 8.05 5.85 8.1 5.95 8.2 6.05 8.25 6.15 8.35 6.25 8.45 6.35 8.55 6.45 8.6 6.5 8.7 6.6 8.8 6.7 8.85 6.8 8.95 6.9 9.0 7.0 9.1 7.1 9.2 7.2 9.3 7.25 9.35 7.35 9.45 7.45 9.55 7.55 9.6 7.65 9.7 7.75 9.8 7.85 9.85 7.95 9.9 8.0 9.95 8.1 10.0 8.2 10.05 8.3 10.05 8.35 10.1 8.35 10.25 8.45 10.4 8.55 10.5 8.65 10.6 8.75 10.65 8.85 10.7 8.95 10.75 9.0 10.8 9.1 10.8 9.2 10.8 9.3 10.85 9.4 10.85 9.5 10.85 9.6 10.8 9.7 10.8 9.75 10.8 9.85 10.75 9.95 10.7 10.05 10.65 10.15 10.6 10.25 10.5 10.35 10.4 10.4 10.25 10.5 10.1 10.6 9.95 10.65 9.8 10.7 9.6 10.75 9.4 10.7 9.25 10.65 9.05 10.6 8.85 10.5 8.75 10.4 8.65 10.35 8.6 10.25 8.55 10.15 8.45 10.05 8.45 9.95 8.4 9.9 8.3 9.85 7.85 9.7 7.75 9.6 7.65 9.5 7.6 9.4 7.55 9.3 7.45 9.2 7.4 9.1 7.35 9.0 7.25 8.95 7.15 8.85 7.05 8.75 6.95 8.65 6.9 8.55 6.8 8.45 6.7 8.35 6.6 8.25 6.55 8.2 6.45 8.1 6.4 8.0 6.35 7.9 6.2 7.8 6.15 7.7 6.05 7.6 6.0 7.5 5.9 7.45 5.8 7.35 5.75 7.25 5.7 7.15 5.6 7.05 5.55 6.95 5.45 6.85 5.3 6.75 5.1 6.7 5.0 6.6 4.9 6.5 4.85 6.4 4.8 6.3 4.7 6.2 4.55 6.1 4.45 6.0 4.35 5.95 4.25 5.85 4.15 5.75 4.1 5.65 3.95 5.55 3.9 5.45 3.75 5.35 3.6 5.25 3.5 5.15 3.4 5.1 3.35 5.0 3.25 4.9 3.1 4.8 3.05 4.7 2.95 4.6 2.85 4.5 2.75 4.45 2.65 4.35 2.55 4.25 2.5 4.15 2.35 4.05 2.2 3.95 2.05 3.85 1.95 3.75 1.85 3.7 1.8 3.6 1.7 3.5 1.7 3.4 1.6 3.3 1.55 3.2 1.45 3.1 1.35 3.0 1.25 2.95 1.15 2.85 0.95 2.65 0.85 2.55 0.8 2.45 0.7 2.35 0.6 2.3 0.5 2.2 0.4 2.1 0.3 2.0 0.25 1.9 0.2 1.8 0.1 1.7 0.05 1.6 0.0 1.5 -0.15 1.45 -0.25 1.35 -0.35 1.25 -0.4 1.15 -0.45 1.05 -0.55 0.95 -0.7 0.85 -0.8 0.75 -0.9 0.7 -0.95 0.6 -1.05 0.5 -1.05 0.4 -1.15 0.3 -1.2 0.2 -1.3 0.1 -1.4 0.0 -1.45 -0.05 -1.55 -0.15 -1.65 -0.25 -1.65 -0.35 -1.8 -0.45 -1.85 -0.55 -1.95 -0.65 -2.05 -0.75 -2.15 -0.8 -2.2 -0.9 -2.3 -1.0 -2.3 -1.1 -2.4 -1.2 -2.55 -1.3 -2.7 -1.4 -2.8 -1.5 -2.9 -1.55 -3.0 -1.65 -3.1 -1.75 -3.15 -1.85 -3.2 -1.95 -3.3 -2.05 -3.35 -2.15 -3.4 -2.25 -3.6 -2.4 -3.8 -2.6 -4.05 -2.8 -4.3 -3.0 -4.4 -3.05 -4.45 -3.15 -4.55 -3.25 -4.65 -3.35 -4.7 -3.45 -4.8 -3.55 -4.85 -3.65 -4.9 -3.75 -5.0 -3.8 -5.1 -3.9 -5.2 -4.0 -5.3 -4.1 -5.4 -4.2 -5.45 -4.3 -5.55 -4.4 -5.65 -4.5 -5.75 -4.55 -5.85 -4.65 -5.9 -4.75 -6.05 -4.85 -6.15 -4.95 -6.2 -5.05 -6.3 -5.15 -6.4 -5.25 -6.45 -5.3 -6.6 -5.4 -6.7 -5.5 -6.75 -5.6 -6.8 -5.7 -6.9 -5.8 -6.95 -5.9 -7.05 -6.0 -7.15 -6.05 -7.25 -6.15 -7.35 -6.25 -7.4 -6.35 -7.55 -6.45 -7.6 -6.55 -7.7 -6.65 -7.8 -6.7 -7.95 -6.8 -8.1 -6.9 -8.2 -7.0 -8.25 -7.1 -8.4 -7.2 -8.45 -7.3 -8.55 -7.4 -8.65 -7.5 -8.75 -7.55 -8.85 -7.65 -8.9 -7.75 -8.95 -7.85 -9.05 -7.95 -9.1 -8.05 -9.2 -8.15 -9.3 -8.25 -9.4 -8.3 -9.5 -8.4 -9.6 -8.5 -9.65 -8.6 -9.7 -8.7 -9.8 -8.8 -9.95 -8.9 -10.05 -9.0 -10.15 -9.05 -10.2 -9.15 -10.3 -9.25 -10.3 -9.35 -10.35 -9.45 -10.4 -9.55 -10.4 -9.65 -10.45 -9.75 -10.45 -9.8 -10.5 -9.9 -10.5 -10.0 -10.5 -10.1 -10.5 -10.2 -10.5 -10.3 -10.5 -10.4 -10.5 -10.5 -10.45 -10.55 -10.45 -10.65 -10.4 -10.75 -10.4 -10.85 -10.3 -10.95 -10.2 -11.05 -10.15 -11.15 -10.05 -11.25 -9.9 -11.3 -9.8 -11.4 -9.7 -11.4 -9.6 -11.45 -9.45 -11.5 -9.25 -11.5 -9.05 -11.5 -8.9 -11.45 -8.7 -11.4 -8.45 -11.45 -5.25 -11.55 -5.1 -11.55 -4.9 -11.6 5.5 -11.55 6.95 -11.4 7.05 -11.4 9.5 -11.3 9.85 -11.25" fill="#000000" fill-rule="evenodd" stroke="none"/>
  </g>
</svg>
