<?xml version="1.0" encoding="UTF-8" standalone="no"?>
<svg xmlns:ffdec="https://www.free-decompiler.com/flash" xmlns:xlink="http://www.w3.org/1999/xlink" ffdec:objectType="shape" height="4.5px" width="54.1px" xmlns="http://www.w3.org/2000/svg">
  <g transform="matrix(1.0, 0.0, 0.0, 1.0, 24.05, 12.3)">
    <path d="M5.35 -10.1 L5.35 -10.0 5.35 -9.9 5.35 -9.8 5.35 -9.7 5.35 -9.65 5.35 -9.55 5.3 -9.45 5.25 -9.35 5.2 -9.25 5.1 -9.15 5.0 -9.05 4.85 -8.95 4.8 -8.9 4.7 -8.8 4.6 -8.7 4.55 -8.7 4.45 -8.65 4.3 -8.6 4.15 -8.5 4.05 -8.45 3.9 -8.4 3.8 -8.3 3.7 -8.2 3.65 -8.2 3.45 -8.15 3.35 -8.05 3.3 -8.05 3.0 -7.95 2.8 -7.95 0.7 -8.05 0.55 -8.15 0.45 -8.2 0.3 -8.25 0.1 -8.3 0.0 -8.4 -0.1 -8.5 -0.2 -8.6 -0.3 -8.7 -0.45 -8.8 -0.55 -8.9 -0.65 -8.95 -0.8 -9.05 -0.95 -9.15 -1.1 -9.25 -1.2 -9.35 -1.3 -9.45 -1.35 -9.5 -1.55 -9.55 -1.65 -9.65 -1.75 -9.75 -1.85 -9.85 -1.9 -9.95 -1.9 -10.05 -1.95 -10.15 -1.95 -10.2 -1.95 -10.3 -1.95 -10.4 -1.95 -10.5 -1.9 -10.6 -1.9 -10.7 -1.85 -10.8 -1.8 -10.9 -1.7 -10.95 -1.7 -11.05 -1.6 -11.15 -1.5 -11.25 -1.4 -11.35 -1.25 -11.45 -1.2 -11.55 -1.15 -11.65 -1.05 -11.7 -0.95 -11.8 -0.95 -11.9 -0.85 -12.0 -0.75 -12.1 -0.65 -12.2 -0.45 -12.25 -0.25 -12.25 -0.25 -12.3 1.0 -12.25 1.3 -12.2 2.5 -12.2 2.7 -12.15 2.85 -12.1 2.95 -12.05 3.05 -12.0 3.15 -11.95 3.25 -11.95 3.45 -11.9 3.6 -11.85 3.75 -11.75 3.9 -11.65 4.0 -11.55 4.1 -11.45 4.2 -11.4 4.3 -11.3 4.35 -11.2 4.45 -11.1 4.45 -11.0 4.5 -10.95 4.55 -10.9 4.7 -10.85 4.85 -10.75 5.0 -10.65 5.1 -10.55 5.2 -10.45 5.25 -10.4 5.3 -10.3 5.35 -10.2 5.35 -10.1 M17.95 -9.35 L18.05 -9.35 18.15 -9.4 18.35 -9.45 18.8 -9.5 18.95 -9.6 19.2 -9.7 19.3 -9.8 19.35 -9.85 19.45 -9.85 19.6 -9.95 19.85 -10.05 19.95 -10.1 20.05 -10.1 20.15 -10.15 20.35 -10.2 20.45 -10.2 20.55 -10.25 20.75 -10.25 20.75 -10.3 23.0 -10.25 23.7 -10.15 23.85 -10.1 23.95 -10.05 24.05 -10.0 24.2 -9.95 24.45 -9.85 24.75 -9.8 24.95 -9.75 25.05 -9.7 26.7 -9.75 26.85 -9.85 27.05 -9.9 27.55 -9.95 28.7 -10.1 28.9 -10.15 29.1 -10.2 29.25 -10.2 29.45 -10.15 29.6 -10.1 29.75 -10.0 29.85 -9.9 29.9 -9.8 29.95 -9.7 30.0 -9.65 30.0 -9.55 30.05 -9.45 30.05 -9.35 30.0 -9.25 29.95 -9.15 29.95 -9.05 29.85 -8.95 29.8 -8.9 29.7 -8.8 29.55 -8.7 29.4 -8.6 29.3 -8.55 29.2 -8.5 28.05 -8.45 27.95 -8.4 27.65 -8.35 27.55 -8.3 27.45 -8.25 26.85 -8.15 23.85 -8.3 23.7 -8.4 23.6 -8.45 23.4 -8.5 23.2 -8.55 23.1 -8.65 22.9 -8.65 22.8 -8.7 21.05 -8.7 20.95 -8.65 20.75 -8.6 20.65 -8.55 20.55 -8.5 20.3 -8.45 20.15 -8.35 19.45 -8.0 18.15 -7.9 17.95 -7.95 17.85 -8.05 17.75 -8.15 17.65 -8.25 17.6 -8.35 17.6 -8.45 17.55 -8.55 17.55 -8.65 17.55 -8.7 17.55 -8.8 17.6 -8.9 17.6 -9.0 17.7 -9.1 17.8 -9.2 17.85 -9.3 17.95 -9.35 M-21.15 -9.95 L-19.65 -9.95 -19.45 -9.9 -19.3 -9.85 -19.2 -9.8 -19.05 -9.75 -18.95 -9.7 -18.75 -9.7 -18.55 -9.65 -18.4 -9.6 -16.65 -9.5 -16.45 -9.5 -16.3 -9.45 -16.15 -9.35 -16.05 -9.25 -16.0 -9.15 -15.95 -9.05 -15.9 -8.95 -15.9 -8.9 -15.9 -8.8 -15.9 -8.7 -15.9 -8.6 -15.95 -8.5 -15.95 -8.4 -16.05 -8.3 -16.1 -8.2 -16.2 -8.1 -16.3 -8.05 -16.35 -8.05 -16.65 -8.0 -18.95 -8.05 -19.15 -8.05 -19.2 -8.15 -19.35 -8.15 -19.45 -8.2 -19.55 -8.2 -19.7 -8.25 -19.9 -8.3 -20.9 -8.3 -21.05 -8.25 -21.25 -8.25 -21.6 -8.2 -21.7 -8.15 -22.0 -8.1 -22.1 -8.05 -22.2 -8.0 -23.25 -8.0 -23.65 -8.05 -23.75 -8.15 -23.85 -8.25 -23.95 -8.35 -23.95 -8.45 -24.0 -8.55 -24.05 -8.65 -24.05 -8.7 -24.05 -8.8 -24.05 -8.9 -24.05 -9.0 -24.0 -9.1 -24.0 -9.2 -23.95 -9.3 -23.9 -9.4 -23.8 -9.45 -23.7 -9.55 -23.55 -9.65 -23.45 -9.65 -23.25 -9.7 -23.05 -9.65 -22.9 -9.6 -22.65 -9.6 -22.45 -9.65 -22.2 -9.7 -21.55 -9.85 -21.35 -9.9 -21.15 -9.9 -21.15 -9.95" fill="#cccccc" fill-rule="evenodd" stroke="none"/>
  </g>
</svg>
