<?xml version="1.0" encoding="UTF-8" standalone="no"?>
<svg xmlns:ffdec="https://www.free-decompiler.com/flash" xmlns:xlink="http://www.w3.org/1999/xlink" ffdec:objectType="shape" height="5.5px" width="29.0px" xmlns="http://www.w3.org/2000/svg">
  <g transform="matrix(1.0, 0.0, 0.0, 1.0, 14.25, 13.75)">
    <path d="M12.0 -13.25 L12.6 -13.05 13.5 -12.75 14.1 -12.5 14.5 -12.15 14.75 -11.75 14.75 -11.4 14.6 -11.0 14.35 -10.65 14.0 -10.4 13.5 -10.25 12.0 -10.25 11.25 -10.5 11.0 -10.75 10.25 -11.0 10.0 -11.25 9.25 -11.5 8.85 -11.9 8.75 -12.25 8.75 -12.65 8.75 -13.0 9.1 -13.4 9.5 -13.65 9.95 -13.7 10.0 -13.75 10.5 -13.75 12.0 -13.25 M-14.25 -10.0 L-13.9 -10.4 -13.5 -10.65 -13.0 -10.75 -10.75 -11.05 -10.0 -11.25 -9.5 -11.25 -8.9 -11.0 -8.5 -10.65 -8.25 -10.25 -8.25 -9.9 -8.4 -9.5 -8.65 -9.15 -9.0 -8.75 -9.25 -8.5 -9.5 -8.4 -10.0 -8.25 -13.0 -8.25 -13.75 -8.5 -14.15 -8.9 -14.25 -9.25 -14.25 -9.65 -14.25 -10.0" fill="#cccccc" fill-rule="evenodd" stroke="none"/>
  </g>
</svg>
