<?xml version="1.0" encoding="UTF-8" standalone="no"?>
<svg xmlns:ffdec="https://www.free-decompiler.com/flash" xmlns:xlink="http://www.w3.org/1999/xlink" ffdec:objectType="shape" height="4.95px" width="53.5px" xmlns="http://www.w3.org/2000/svg">
  <g transform="matrix(1.0, 0.0, 0.0, 1.0, 23.7, 13.1)">
    <path d="M0.75 -13.1 L1.25 -13.05 1.8 -12.95 2.1 -12.95 2.3 -12.85 2.45 -12.8 2.6 -12.7 2.7 -12.6 2.7 -12.45 2.7 -12.3 2.7 -12.05 2.7 -11.75 2.7 -11.65 2.9 -11.6 3.15 -11.55 3.45 -11.45 3.7 -11.4 4.05 -11.3 4.4 -11.3 4.75 -11.2 5.1 -11.15 5.25 -11.1 5.4 -11.0 5.6 -11.0 5.6 -10.9 5.65 -10.8 5.65 -10.55 5.65 -10.35 5.65 -10.25 5.6 -10.2 5.5 -10.15 5.4 -10.05 5.15 -9.95 5.0 -9.8 4.8 -9.7 4.8 -9.6 4.8 -9.55 4.8 -9.45 4.75 -9.4 4.75 -9.3 4.55 -9.25 4.4 -9.15 4.25 -9.1 3.9 -9.05 3.4 -8.95 2.9 -8.95 2.2 -8.9 1.6 -8.95 0.95 -8.95 0.5 -9.05 0.15 -9.1 -0.1 -9.15 -0.25 -9.25 -0.35 -9.3 -0.4 -9.4 -0.4 -9.45 -0.4 -9.6 -0.4 -9.8 -0.4 -10.0 -0.4 -10.05 -0.35 -10.15 -0.25 -10.2 0.0 -10.25 0.0 -10.35 0.1 -10.45 0.1 -10.55 -0.35 -10.55 -0.7 -10.65 -0.95 -10.7 -1.1 -10.8 -1.25 -10.8 -1.5 -10.9 -1.8 -11.0 -1.95 -11.0 -2.1 -11.1 -2.2 -11.15 -2.45 -11.2 -2.45 -11.3 -2.55 -11.3 -2.55 -11.55 -2.55 -11.85 -2.55 -12.25 -2.55 -12.6 -2.55 -12.7 -2.45 -12.7 -2.35 -12.8 -2.2 -12.85 -1.95 -12.95 -1.6 -12.95 -1.2 -13.05 -0.5 -13.1 0.1 -13.1 0.75 -13.1 M20.2 -10.95 L20.3 -11.05 20.35 -11.15 20.45 -11.2 20.55 -11.2 20.65 -11.25 20.85 -11.3 21.0 -11.25 21.2 -11.2 21.35 -11.1 21.5 -11.0 21.6 -10.9 21.65 -10.8 21.7 -10.7 21.75 -10.65 21.8 -10.55 21.85 -10.45 21.85 -10.35 21.85 -10.25 21.9 -10.15 21.95 -10.05 22.05 -9.95 22.1 -9.9 22.15 -9.8 22.3 -9.8 22.35 -9.9 22.45 -9.95 22.55 -10.05 22.7 -10.1 22.85 -10.2 23.05 -10.3 23.1 -10.4 23.2 -10.45 23.3 -10.55 23.4 -10.65 23.55 -10.75 23.7 -10.85 23.85 -10.95 24.05 -11.0 24.25 -11.0 24.5 -11.0 24.7 -11.0 24.85 -10.95 25.0 -10.85 25.1 -10.75 25.15 -10.65 25.2 -10.55 26.0 -10.5 26.3 -10.45 27.7 -10.5 27.8 -10.6 27.85 -10.7 27.9 -10.8 27.95 -10.9 28.05 -10.95 28.05 -11.05 28.15 -11.15 28.25 -11.25 28.35 -11.35 28.45 -11.45 28.55 -11.55 28.6 -11.6 28.7 -11.6 28.8 -11.65 29.0 -11.65 29.0 -11.7 29.2 -11.65 29.35 -11.6 29.5 -11.5 29.6 -11.4 29.65 -11.3 29.7 -11.2 29.75 -11.15 29.75 -11.05 29.8 -10.95 29.8 -10.85 29.8 -10.75 29.8 -10.65 29.75 -10.55 29.7 -10.45 29.65 -10.4 29.6 -10.3 29.55 -10.2 29.45 -10.1 29.4 -10.0 29.35 -9.9 29.25 -9.8 29.15 -9.7 28.95 -9.55 28.7 -9.25 28.6 -9.15 27.85 -8.9 25.9 -8.9 25.8 -8.95 25.55 -8.95 25.45 -8.9 24.85 -8.9 24.45 -8.95 24.35 -9.05 24.25 -9.15 24.15 -9.2 24.05 -9.15 23.95 -9.05 23.75 -8.85 23.5 -8.65 23.35 -8.55 23.3 -8.45 23.2 -8.35 23.1 -8.3 22.75 -8.2 Q22.2 -8.05 21.65 -8.2 L21.2 -8.3 21.1 -8.4 21.0 -8.5 20.9 -8.6 20.85 -8.7 20.8 -8.8 20.75 -8.9 20.75 -8.95 20.7 -9.05 20.6 -9.15 20.55 -9.25 20.55 -9.35 20.45 -9.45 20.4 -9.55 20.35 -9.65 20.35 -9.7 20.3 -9.8 20.3 -9.9 20.25 -10.0 20.15 -10.1 20.1 -10.2 20.1 -10.3 20.05 -10.4 20.05 -10.45 20.05 -10.55 20.05 -10.65 20.1 -10.75 20.1 -10.85 20.2 -10.95 M-20.4 -10.85 L-20.25 -10.75 -20.15 -10.65 -20.0 -10.55 -19.7 -10.5 -19.6 -10.55 -19.55 -10.65 -19.45 -10.7 -19.35 -10.8 -19.2 -10.9 -19.1 -10.9 -18.9 -10.9 -18.3 -10.9 -18.15 -10.85 -18.0 -10.75 -17.9 -10.65 -17.85 -10.55 -17.75 -10.45 -17.65 -10.4 -17.6 -10.3 -17.55 -10.2 -17.45 -10.1 -17.45 -10.0 -17.4 -9.9 -17.4 -9.8 -17.4 -9.7 -17.4 -9.65 -17.4 -9.55 -17.45 -9.45 -17.5 -9.35 -17.55 -9.25 -17.65 -9.15 -17.8 -9.05 -17.95 -9.0 -18.15 -9.0 -18.25 -9.0 -18.45 -9.0 -18.65 -9.05 -18.75 -9.05 -18.9 -9.0 -19.05 -8.9 -19.25 -8.9 -20.2 -8.95 -20.45 -9.0 -20.65 -9.05 -20.7 -9.15 -20.85 -9.15 -21.05 -9.2 -21.15 -9.3 -21.2 -9.4 -21.35 -9.4 -21.45 -9.45 -21.7 -9.45 -21.8 -9.4 -22.1 -9.35 -22.2 -9.3 -22.3 -9.25 -22.5 -9.2 -22.7 -9.15 -22.9 -9.15 -23.1 -9.15 -23.3 -9.2 -23.4 -9.3 -23.5 -9.4 -23.6 -9.5 -23.65 -9.6 -23.65 -9.7 -23.7 -9.8 -23.7 -9.9 -23.7 -9.95 -23.7 -10.05 -23.7 -10.15 -23.65 -10.25 -23.65 -10.35 -23.55 -10.45 -23.45 -10.55 -23.4 -10.65 -23.3 -10.7 -23.2 -10.7 -23.1 -10.75 -22.85 -10.8 -22.7 -10.9 -22.6 -10.9 -22.4 -10.95 -22.3 -10.95 -22.2 -11.0 -22.0 -11.0 -22.0 -11.05 -21.15 -11.0 -20.75 -10.95 -20.55 -10.9 -20.4 -10.85" fill="#cccccc" fill-rule="evenodd" stroke="none"/>
  </g>
</svg>
