<?xml version="1.0" encoding="UTF-8" standalone="no"?>
<svg xmlns:ffdec="https://www.free-decompiler.com/flash" xmlns:xlink="http://www.w3.org/1999/xlink" ffdec:objectType="shape" height="13.05px" width="105.4px" xmlns="http://www.w3.org/2000/svg">
  <g transform="matrix(1.0, 0.0, 0.0, 1.0, 49.3, 19.55)">
    <path d="M2.3 -19.5 L2.45 -19.45 2.6 -19.35 2.75 -19.25 2.85 -19.15 2.9 -19.05 2.95 -18.95 3.0 -18.9 3.0 -18.8 3.05 -18.7 3.1 -18.6 3.1 -18.5 3.2 -18.4 3.25 -18.3 3.3 -18.2 3.35 -18.15 3.4 -18.05 3.45 -17.95 3.5 -17.85 3.55 -17.75 3.6 -17.65 3.7 -17.55 3.8 -17.45 3.9 -17.4 4.05 -17.3 4.15 -17.2 4.2 -17.1 4.3 -17.0 4.3 -16.9 4.35 -16.8 4.35 -16.7 4.35 -16.65 4.35 -16.55 4.35 -16.45 4.35 -16.35 4.35 -16.25 4.3 -16.15 4.3 -16.05 4.2 -15.95 4.15 -15.9 4.05 -15.8 3.9 -15.7 3.75 -15.6 3.65 -15.55 3.45 -15.45 3.3 -15.4 3.3 -15.3 3.35 -15.2 3.35 -15.1 3.35 -15.0 3.35 -14.9 3.35 -14.8 3.35 -14.7 3.35 -14.65 3.35 -14.55 3.6 -14.45 3.75 -14.35 3.85 -14.25 3.95 -14.15 4.0 -14.05 4.05 -13.95 4.1 -13.9 4.1 -13.8 4.1 -13.7 4.1 -13.6 4.1 -13.5 4.1 -13.4 4.1 -13.3 4.05 -13.2 4.0 -13.15 3.95 -13.05 3.75 -12.85 3.5 -12.65 2.95 -12.4 2.8 -12.3 2.7 -12.2 2.65 -12.2 2.45 -12.15 2.35 -12.05 2.2 -12.0 1.6 -12.0 1.2 -12.05 1.1 -12.15 1.0 -12.25 0.9 -12.35 0.85 -12.45 0.85 -12.55 0.8 -12.65 -0.85 -12.8 -1.05 -12.8 -1.15 -12.9 -1.25 -13.0 -1.35 -13.1 -1.4 -13.2 -1.4 -13.3 -1.45 -13.4 -1.45 -13.45 -1.45 -13.55 -1.45 -13.65 -1.4 -13.75 -1.4 -13.85 -1.3 -13.95 -1.2 -14.05 -1.15 -14.15 -1.05 -14.2 -0.95 -14.3 -0.85 -14.4 -0.7 -14.5 -0.7 -14.6 -0.7 -14.7 -0.7 -14.8 -1.25 -14.9 -1.45 -14.9 -1.65 -14.95 -1.75 -15.05 -1.85 -15.15 -1.95 -15.25 -1.95 -15.35 -2.0 -15.45 -2.05 -15.55 -2.05 -15.65 -2.05 -15.7 -2.05 -15.8 -2.0 -15.9 -1.95 -16.0 -1.9 -16.1 -1.8 -16.2 -1.7 -16.3 -1.65 -16.35 -1.25 -16.45 0.3 -16.4 0.45 -16.35 0.6 -16.25 0.75 -16.2 0.95 -16.2 1.05 -16.2 1.15 -16.25 1.4 -16.3 1.55 -16.4 1.7 -16.45 1.85 -16.55 1.95 -16.6 2.05 -16.6 2.15 -16.65 2.3 -16.7 2.2 -16.8 2.1 -16.9 2.1 -17.0 2.05 -17.1 2.05 -17.2 1.95 -17.3 1.9 -17.4 1.85 -17.45 1.8 -17.55 1.75 -17.65 1.65 -17.75 1.6 -17.85 1.6 -17.95 1.55 -18.05 1.55 -18.15 1.45 -18.2 1.35 -18.3 1.35 -18.4 1.3 -18.5 1.3 -18.6 1.3 -18.7 1.3 -18.8 1.3 -18.9 1.35 -18.95 1.35 -19.05 1.4 -19.15 1.5 -19.25 1.6 -19.35 1.7 -19.45 1.9 -19.5 2.1 -19.5 2.1 -19.55 2.3 -19.5 M20.2 -11.35 L20.3 -11.45 20.35 -11.55 20.5 -11.65 20.6 -11.75 20.8 -11.9 20.85 -12.0 20.85 -12.1 20.95 -12.2 21.05 -12.3 21.1 -12.4 21.2 -12.45 21.3 -12.55 21.4 -12.65 21.7 -12.85 21.8 -12.95 21.95 -13.15 22.15 -13.3 22.3 -13.35 22.45 -13.45 22.55 -13.55 22.6 -13.6 22.7 -13.6 22.8 -13.65 23.0 -13.65 23.0 -13.7 23.1 -13.7 23.3 -13.65 23.45 -13.6 23.6 -13.5 23.7 -13.4 23.8 -13.3 23.85 -13.2 23.95 -13.15 24.0 -13.05 24.05 -12.95 24.1 -12.85 24.2 -12.75 24.2 -12.65 24.3 -12.55 24.35 -12.45 24.4 -12.4 24.45 -12.3 24.55 -12.2 24.6 -12.1 24.7 -12.0 24.7 -11.9 24.8 -11.8 24.85 -11.7 24.9 -11.65 24.95 -11.55 25.0 -11.45 25.05 -11.35 25.1 -11.25 25.2 -11.15 25.25 -11.05 25.3 -10.95 25.35 -10.9 25.4 -10.8 25.45 -10.7 25.5 -10.65 25.65 -10.65 25.85 -10.7 26.0 -10.7 26.15 -10.75 26.3 -10.8 26.4 -10.9 26.55 -11.0 26.7 -11.1 26.95 -11.2 27.05 -11.3 27.1 -11.4 27.2 -11.45 27.3 -11.45 27.4 -11.5 27.6 -11.55 27.75 -11.55 27.95 -11.5 28.1 -11.45 28.25 -11.35 28.35 -11.25 28.4 -11.15 28.45 -11.05 28.5 -10.95 28.5 -10.9 28.55 -10.8 28.55 -10.7 28.5 -10.6 28.45 -10.5 28.45 -10.4 28.35 -10.3 28.3 -10.2 28.2 -10.15 28.1 -10.05 27.9 -9.85 27.6 -9.65 27.3 -9.45 27.1 -9.3 26.95 -9.25 26.75 -9.2 26.55 -9.2 26.25 -9.1 26.15 -9.05 25.1 -9.0 24.7 -9.05 24.6 -9.15 24.5 -9.25 24.4 -9.35 24.3 -9.45 24.2 -9.55 24.15 -9.65 24.1 -9.7 24.1 -9.8 24.05 -9.9 24.0 -10.0 23.9 -10.1 23.85 -10.2 23.8 -10.3 23.75 -10.4 23.7 -10.45 23.6 -10.55 23.6 -10.65 23.55 -10.75 23.55 -10.85 23.45 -10.95 23.35 -11.05 23.3 -11.15 23.25 -11.2 23.2 -11.3 23.1 -11.4 23.1 -11.5 23.05 -11.6 22.95 -11.7 22.8 -11.7 22.7 -11.6 22.6 -11.5 22.5 -11.4 22.35 -11.3 22.25 -11.2 22.2 -11.15 22.15 -11.05 22.1 -10.95 22.0 -10.85 21.9 -10.75 21.85 -10.65 21.75 -10.55 21.6 -10.45 21.55 -10.4 21.5 -10.3 21.45 -10.2 21.35 -10.1 21.3 -10.0 21.3 -9.9 21.2 -9.8 21.15 -9.7 21.05 -9.6 20.95 -9.55 20.9 -9.55 20.8 -9.5 20.6 -9.45 20.4 -9.5 20.2 -9.55 20.1 -9.65 20.0 -9.75 19.9 -9.85 19.85 -9.95 19.85 -10.05 19.8 -10.15 19.8 -10.2 19.8 -10.3 19.8 -10.4 19.8 -10.5 19.8 -10.6 19.85 -10.7 19.85 -10.8 19.9 -10.9 19.95 -10.95 20.05 -11.05 20.1 -11.15 20.1 -11.25 20.2 -11.35 M50.45 -8.15 L50.6 -8.1 54.2 -8.1 54.4 -8.15 55.35 -8.15 55.5 -8.15 55.7 -8.1 55.85 -8.0 55.95 -7.9 56.0 -7.8 56.0 -7.7 56.1 -7.65 56.1 -7.55 56.1 -7.45 56.1 -7.35 56.1 -7.25 56.05 -7.15 56.0 -7.05 55.95 -6.95 55.9 -6.9 55.8 -6.8 55.7 -6.7 55.65 -6.7 55.5 -6.65 55.35 -6.65 54.95 -6.55 54.75 -6.5 54.6 -6.5 50.15 -6.55 49.95 -6.55 44.85 -6.65 44.45 -6.7 44.35 -6.8 44.25 -6.9 44.15 -7.0 44.1 -7.1 44.1 -7.2 44.05 -7.3 44.05 -7.4 44.05 -7.45 44.05 -7.55 44.1 -7.65 44.1 -7.75 44.2 -7.85 44.25 -7.95 44.35 -8.05 44.45 -8.1 44.55 -8.1 44.65 -8.15 44.85 -8.15 44.85 -8.2 50.25 -8.15 50.45 -8.15 M-44.65 -8.75 L-44.45 -8.75 -44.35 -8.7 -42.95 -8.65 -42.8 -8.6 -42.7 -8.55 -42.55 -8.5 -42.45 -8.45 -42.4 -8.45 -42.2 -8.4 -42.05 -8.35 -41.9 -8.25 -41.8 -8.2 -41.7 -8.15 -41.55 -8.1 -41.45 -8.05 -41.3 -8.0 -41.15 -7.95 -41.0 -7.85 -40.9 -7.75 -40.85 -7.65 -40.8 -7.55 -40.75 -7.45 -40.75 -7.4 -40.7 -7.3 -40.7 -7.2 -40.75 -7.1 -40.8 -7.0 -40.8 -6.9 -40.9 -6.8 -40.95 -6.7 -41.05 -6.6 -41.15 -6.55 -41.3 -6.5 -41.5 -6.5 -41.75 -6.5 -41.95 -6.5 -42.15 -6.55 -42.3 -6.65 -42.4 -6.7 -42.6 -6.75 -42.8 -6.8 -42.95 -6.9 -43.15 -6.95 -43.35 -7.0 -43.55 -7.05 -44.85 -7.15 -44.95 -7.2 -45.1 -7.2 -45.4 -7.15 -48.2 -7.2 -48.4 -7.2 -48.5 -7.3 -48.55 -7.4 -48.7 -7.4 -48.9 -7.45 -49.0 -7.55 -49.1 -7.65 -49.2 -7.75 -49.2 -7.85 -49.25 -7.95 -49.3 -8.05 -49.3 -8.15 -49.3 -8.2 -49.3 -8.3 -49.25 -8.4 -49.2 -8.5 -49.15 -8.6 -49.05 -8.7 -48.95 -8.8 -48.9 -8.85 -48.8 -8.85 -48.7 -8.9 -48.5 -8.9 -48.5 -8.95 -48.4 -8.95 -48.2 -8.9 -48.05 -8.85 -47.8 -8.75 -45.7 -8.7 -45.4 -8.75 -44.65 -8.75 M-21.75 -12.55 L-21.3 -12.6 -21.15 -12.7 -20.95 -12.8 -20.9 -12.85 -20.8 -12.85 -20.7 -12.9 -20.5 -12.95 -20.4 -12.95 -20.2 -12.9 -20.05 -12.85 -19.9 -12.75 -19.8 -12.65 -19.7 -12.55 -19.65 -12.45 -19.55 -12.4 -19.45 -12.4 -19.4 -12.45 -19.35 -12.55 -19.25 -12.65 -19.15 -12.75 -19.05 -12.85 -18.95 -12.95 -18.9 -13.05 -18.8 -13.1 -18.7 -13.1 -18.6 -13.15 -18.4 -13.15 -18.4 -13.2 -17.75 -13.2 -17.55 -13.15 -17.4 -13.1 -17.25 -13.0 -17.15 -12.9 -17.1 -12.8 -17.0 -12.7 -16.9 -12.65 -16.8 -12.55 -16.7 -12.45 -16.55 -12.35 -16.4 -12.35 -16.3 -12.45 -16.1 -12.5 -15.9 -12.55 -15.75 -12.55 -15.55 -12.5 -15.4 -12.45 -15.25 -12.35 -15.15 -12.25 -15.1 -12.15 -15.05 -12.05 -15.0 -11.95 -15.0 -11.9 -14.95 -11.8 -14.95 -11.7 -15.0 -11.6 -15.05 -11.5 -15.05 -11.4 -15.15 -11.3 -15.2 -11.2 -15.25 -11.15 -15.25 -11.05 -15.3 -10.95 -15.35 -10.85 -15.4 -10.75 -15.45 -10.65 -15.45 -10.55 -15.55 -10.45 -15.6 -10.4 -15.7 -10.3 -15.8 -10.2 -15.85 -10.2 -16.15 -10.15 -16.45 -10.2 -16.9 -10.3 -17.0 -10.4 -17.1 -10.5 -17.2 -10.6 -17.25 -10.7 -17.4 -10.8 -17.45 -10.9 -17.55 -10.95 -17.65 -11.05 -17.7 -11.15 -17.85 -11.25 -17.95 -11.35 -18.05 -11.45 -18.15 -11.45 -18.2 -11.35 -18.2 -11.25 -18.3 -11.15 -18.3 -11.05 -18.4 -10.95 -18.45 -10.9 -18.55 -10.8 -18.65 -10.7 -18.7 -10.6 -18.8 -10.5 -18.9 -10.4 -19.05 -10.3 -19.2 -10.25 -19.4 -10.25 -19.65 -10.25 -19.85 -10.25 -20.05 -10.3 -20.15 -10.4 -20.25 -10.5 -20.35 -10.6 -20.45 -10.7 -20.55 -10.8 -20.6 -10.9 -20.65 -10.95 -20.7 -11.0 -21.75 -11.0 -22.15 -11.05 -22.25 -11.15 -22.35 -11.25 -22.45 -11.35 -22.45 -11.45 -22.5 -11.55 -22.55 -11.65 -22.55 -11.7 -22.55 -11.8 -22.55 -11.9 -22.5 -12.0 -22.45 -12.1 -22.4 -12.2 -22.3 -12.3 -22.2 -12.4 -22.15 -12.45 -22.05 -12.45 -21.95 -12.5 -21.75 -12.55" fill="#cccccc" fill-rule="evenodd" stroke="none"/>
  </g>
</svg>
