<?xml version="1.0" encoding="UTF-8" standalone="no"?>
<svg xmlns:ffdec="https://www.free-decompiler.com/flash" xmlns:xlink="http://www.w3.org/1999/xlink" ffdec:objectType="shape" height="3.5px" width="74.5px" xmlns="http://www.w3.org/2000/svg">
  <g transform="matrix(1.0, 0.0, 0.0, 1.0, 35.25, 12.75)">
    <path d="M38.6 -11.5 L39.0 -11.15 39.25 -10.75 39.25 -10.4 39.1 -10.0 38.85 -9.65 38.5 -9.4 38.0 -9.25 35.0 -9.25 34.25 -9.5 33.85 -9.9 33.75 -10.25 33.75 -10.65 33.75 -11.0 34.1 -11.4 34.5 -11.65 34.95 -11.7 35.0 -11.75 38.0 -11.75 38.6 -11.5 M-33.0 -12.75 L-32.4 -12.5 -32.0 -12.15 -31.75 -11.75 -31.75 -11.4 -31.9 -11.0 -32.15 -10.65 -32.5 -10.4 -33.0 -10.25 -34.0 -10.25 -34.75 -10.5 -35.15 -10.9 -35.25 -11.25 -35.25 -11.65 -35.25 -12.0 -34.9 -12.4 -34.5 -12.65 -34.05 -12.7 -34.0 -12.75 -33.0 -12.75" fill="#cccccc" fill-rule="evenodd" stroke="none"/>
  </g>
</svg>
