<?xml version="1.0" encoding="UTF-8" standalone="no"?>
<svg xmlns:ffdec="https://www.free-decompiler.com/flash" xmlns:xlink="http://www.w3.org/1999/xlink" ffdec:objectType="shape" height="13.55px" width="105.05px" xmlns="http://www.w3.org/2000/svg">
  <g transform="matrix(1.0, 0.0, 0.0, 1.0, 50.95, 22.05)">
    <path d="M19.75 -15.65 L19.8 -15.75 19.85 -15.85 19.95 -15.95 20.05 -16.05 20.1 -16.1 20.2 -16.1 20.3 -16.15 20.5 -16.15 20.5 -16.2 20.85 -16.2 21.05 -16.15 21.2 -16.1 21.35 -16.0 21.45 -15.9 21.55 -15.8 21.65 -15.7 21.8 -15.65 21.9 -15.55 21.95 -15.45 22.1 -15.35 22.2 -15.25 22.25 -15.15 22.3 -15.05 22.35 -14.95 22.45 -14.95 22.55 -15.05 22.55 -15.15 22.6 -15.25 22.7 -15.35 22.8 -15.45 22.85 -15.55 22.95 -15.6 23.05 -15.6 23.15 -15.65 23.35 -15.7 23.75 -15.7 23.95 -15.65 24.1 -15.6 24.25 -15.55 24.3 -15.55 24.4 -15.65 24.5 -15.75 24.6 -15.85 24.8 -15.9 25.05 -15.95 26.1 -16.05 26.3 -16.0 26.45 -15.95 26.6 -15.85 26.7 -15.8 26.85 -15.8 27.05 -15.75 27.2 -15.7 27.35 -15.6 27.45 -15.5 27.5 -15.4 27.55 -15.3 27.6 -15.2 27.6 -15.15 27.6 -15.05 27.6 -14.95 27.6 -14.75 27.6 -14.45 27.6 -14.2 27.6 -13.9 27.6 -13.55 27.6 -13.45 27.6 -13.35 27.55 -13.25 27.55 -13.15 27.45 -13.05 27.4 -12.95 27.3 -12.85 27.2 -12.8 27.15 -12.8 27.0 -12.75 26.85 -12.7 26.65 -12.75 26.45 -12.8 26.35 -12.9 26.25 -13.0 26.15 -13.1 26.1 -13.2 26.05 -13.3 26.0 -13.4 26.0 -13.45 25.95 -13.55 25.95 -13.65 25.95 -13.75 25.95 -13.85 25.95 -13.95 25.9 -14.05 25.85 -14.15 25.85 -14.2 25.8 -14.3 25.75 -14.4 25.6 -14.4 25.5 -14.3 25.4 -14.2 25.3 -14.15 25.2 -14.05 25.1 -13.95 25.0 -13.85 24.9 -13.75 24.8 -13.7 24.7 -13.65 24.5 -13.65 23.9 -13.7 23.7 -13.7 23.6 -13.7 23.55 -13.65 23.5 -13.55 23.5 -13.45 23.45 -13.35 23.4 -13.25 23.35 -13.15 23.25 -13.05 23.15 -12.95 23.05 -12.85 22.95 -12.8 22.9 -12.8 22.8 -12.75 22.6 -12.75 22.15 -12.75 21.95 -12.8 21.85 -12.9 21.75 -13.0 21.65 -13.1 21.6 -13.2 21.6 -13.3 21.55 -13.4 21.45 -13.45 21.35 -13.55 21.25 -13.65 21.15 -13.75 21.1 -13.85 21.1 -13.95 21.05 -14.05 21.0 -14.15 20.95 -14.2 20.85 -14.3 20.75 -14.4 20.65 -14.5 20.55 -14.6 20.3 -14.65 20.1 -14.7 20.0 -14.8 19.9 -14.9 19.8 -15.0 19.8 -15.1 19.75 -15.2 19.7 -15.3 19.7 -15.4 19.7 -15.45 19.7 -15.55 19.75 -15.65 M5.85 -20.15 L5.85 -20.05 5.85 -19.95 5.85 -19.85 5.85 -19.75 5.8 -19.65 5.8 -19.55 5.7 -19.45 5.65 -19.4 5.55 -19.3 5.45 -19.2 5.4 -19.2 5.3 -19.15 5.1 -19.15 4.75 -19.05 4.7 -18.95 4.65 -18.9 4.6 -18.8 4.55 -18.7 4.55 -18.6 4.5 -18.5 4.45 -18.4 4.45 -18.3 4.35 -18.2 4.35 -18.15 4.35 -18.05 4.3 -17.95 4.25 -17.85 4.2 -17.75 4.1 -17.65 4.1 -17.55 4.05 -17.45 4.0 -17.4 3.95 -17.3 3.85 -17.2 3.75 -17.1 3.65 -17.05 3.55 -17.0 3.35 -17.0 3.25 -17.0 3.05 -17.0 2.85 -17.05 2.75 -17.15 2.65 -17.25 2.55 -17.35 2.45 -17.45 2.35 -17.55 2.3 -17.65 2.25 -17.7 2.25 -17.8 2.2 -17.9 2.2 -18.0 2.15 -18.1 2.15 -18.05 2.1 -17.95 2.1 -17.85 2.05 -17.75 2.05 -17.65 2.0 -17.55 1.95 -17.45 1.9 -17.4 1.85 -17.3 1.85 -17.2 1.85 -17.1 1.8 -17.0 1.8 -16.9 1.7 -16.8 1.65 -16.7 1.55 -16.65 1.45 -16.55 1.35 -16.45 1.3 -16.45 1.2 -16.4 1.0 -16.4 0.8 -16.4 0.6 -16.45 0.35 -16.55 0.25 -16.65 0.15 -16.75 0.05 -16.85 -0.05 -16.95 -0.1 -17.05 -0.15 -17.15 -0.15 -17.2 -0.2 -17.3 -0.2 -17.4 -0.3 -17.5 -0.35 -17.6 -0.4 -17.7 -0.45 -17.8 -0.45 -17.9 -0.55 -17.95 -0.65 -18.05 -0.65 -18.15 -0.7 -18.25 -0.7 -18.35 -0.75 -18.45 -0.8 -18.55 -0.85 -18.65 -0.9 -18.7 -0.95 -18.8 -1.0 -18.9 -1.1 -19.0 -1.15 -19.1 -1.15 -19.2 -1.2 -19.3 -1.25 -19.2 -1.3 -19.15 -1.3 -19.05 -1.35 -18.95 -1.4 -18.85 -1.45 -18.75 -1.45 -18.65 -1.55 -18.55 -1.6 -18.45 -1.7 -18.4 -1.75 -18.3 -1.8 -18.2 -1.85 -18.1 -1.9 -18.0 -2.0 -17.9 -2.15 -17.8 -2.3 -17.75 -2.45 -17.65 -2.65 -17.65 -2.85 -17.65 -3.05 -17.7 -3.15 -17.8 -3.25 -17.9 -3.35 -18.0 -3.4 -18.1 -3.4 -18.2 -3.45 -18.3 -3.45 -18.4 -3.45 -18.45 -3.45 -18.55 -3.45 -18.65 -3.45 -18.85 -3.45 -18.95 -3.45 -19.15 -3.4 -19.2 -3.4 -19.3 -3.35 -19.4 -3.3 -19.5 -3.2 -19.6 -3.2 -19.7 -3.2 -19.8 -3.15 -19.9 -3.15 -19.95 -3.1 -20.05 -3.0 -20.15 -2.95 -20.25 -2.9 -20.35 -2.9 -20.45 -2.85 -20.55 -2.8 -20.65 -2.7 -20.7 -2.65 -20.8 -2.6 -20.9 -2.5 -21.0 -2.4 -21.1 -2.3 -21.2 -2.25 -21.3 -2.2 -21.4 -2.15 -21.45 -2.15 -21.55 -2.1 -21.65 -2.0 -21.75 -1.9 -21.85 -1.8 -21.95 -1.6 -22.0 -1.4 -22.0 -1.4 -22.05 -1.25 -22.05 -1.05 -22.0 -0.9 -21.95 -0.75 -21.85 -0.65 -21.75 -0.6 -21.65 -0.5 -21.55 -0.4 -21.45 -0.35 -21.4 -0.3 -21.3 -0.25 -21.2 -0.2 -21.1 -0.2 -21.0 -0.2 -20.9 -0.15 -20.8 -0.15 -20.7 -0.05 -20.65 0.05 -20.55 0.1 -20.45 0.15 -20.35 0.2 -20.25 0.25 -20.15 0.3 -20.05 0.35 -19.95 0.35 -19.9 0.35 -19.8 0.4 -19.7 0.45 -19.6 0.55 -19.5 0.6 -19.4 0.65 -19.3 0.7 -19.2 0.75 -19.1 0.8 -19.05 0.8 -19.1 0.8 -19.2 0.8 -19.3 0.8 -19.4 0.8 -19.45 0.8 -19.55 0.8 -19.65 0.85 -19.75 0.85 -19.85 0.95 -19.95 0.95 -20.05 1.0 -20.15 1.05 -20.2 1.05 -20.3 1.05 -20.4 1.05 -20.5 1.05 -20.6 1.05 -20.7 1.05 -20.8 1.05 -20.9 1.1 -20.95 1.1 -21.05 1.15 -21.15 1.2 -21.25 1.25 -21.35 1.25 -21.45 1.3 -21.55 1.35 -21.65 1.45 -21.7 1.55 -21.8 1.7 -21.9 1.8 -21.9 2.0 -21.95 2.2 -21.9 2.35 -21.85 2.5 -21.75 2.6 -21.65 2.65 -21.55 2.7 -21.45 2.75 -21.4 2.8 -21.3 2.85 -21.2 2.9 -21.1 2.95 -21.0 3.0 -20.9 3.0 -20.8 3.05 -20.7 3.05 -20.65 3.05 -20.55 3.1 -20.45 3.2 -20.35 3.2 -20.25 3.25 -20.15 3.3 -20.1 3.35 -20.15 3.35 -20.2 3.4 -20.3 3.5 -20.4 3.6 -20.5 3.7 -20.6 4.1 -20.65 5.3 -20.65 5.45 -20.6 5.6 -20.5 5.7 -20.4 5.75 -20.3 5.8 -20.2 5.85 -20.15 M49.85 -10.9 L51.0 -10.95 51.15 -11.0 51.6 -11.1 52.0 -11.2 52.3 -11.25 52.5 -11.25 52.5 -11.3 53.35 -11.25 53.5 -11.25 53.7 -11.2 53.85 -11.1 53.95 -11.0 54.0 -10.9 54.0 -10.8 54.1 -10.7 54.1 -10.65 54.1 -10.55 54.1 -10.45 54.1 -10.35 54.05 -10.25 54.0 -10.15 53.95 -10.05 53.9 -9.95 53.8 -9.85 53.7 -9.8 53.65 -9.8 53.5 -9.75 53.35 -9.75 52.8 -9.7 52.7 -9.65 52.5 -9.6 52.2 -9.55 52.0 -9.5 51.85 -9.5 51.4 -9.45 51.25 -9.4 50.2 -9.3 50.0 -9.25 49.85 -9.2 49.8 -9.2 49.7 -9.15 49.4 -9.1 49.3 -9.05 49.2 -9.0 48.5 -9.0 48.1 -9.05 48.0 -9.15 47.75 -9.2 47.55 -9.25 47.35 -9.3 47.2 -9.4 47.1 -9.3 47.05 -9.3 46.9 -9.2 46.75 -9.15 46.5 -8.95 46.25 -8.75 45.75 -8.5 45.6 -8.5 44.55 -8.5 44.35 -8.55 44.25 -8.65 44.15 -8.75 43.95 -8.8 43.85 -8.9 43.75 -9.0 43.65 -9.1 43.4 -9.15 43.2 -9.2 43.1 -9.3 43.0 -9.4 42.9 -9.5 42.85 -9.6 42.85 -9.7 42.8 -9.8 42.8 -9.9 42.8 -9.95 42.8 -10.05 42.85 -10.15 42.85 -10.25 42.95 -10.35 43.0 -10.45 43.1 -10.55 43.2 -10.6 43.3 -10.6 43.4 -10.65 43.6 -10.7 44.0 -10.7 44.2 -10.65 44.35 -10.6 44.5 -10.5 44.6 -10.4 44.75 -10.3 44.9 -10.2 45.05 -10.15 45.2 -10.1 45.25 -10.15 45.45 -10.2 45.5 -10.3 45.6 -10.4 45.75 -10.45 45.9 -10.55 46.05 -10.6 46.2 -10.7 46.35 -10.8 46.45 -10.85 46.55 -10.85 46.9 -11.0 47.75 -11.0 47.95 -10.95 48.1 -10.85 48.25 -10.8 48.45 -10.75 48.6 -10.7 48.8 -10.65 49.0 -10.7 49.2 -10.75 49.35 -10.8 49.45 -10.85 49.55 -10.85 49.85 -10.9 M-50.7 -10.2 L-50.65 -10.3 -50.55 -10.35 -50.45 -10.35 -50.35 -10.4 -49.45 -10.5 -49.3 -10.6 -49.1 -10.65 -48.9 -10.65 -48.9 -10.7 -47.5 -10.7 -47.3 -10.65 -47.15 -10.6 -47.0 -10.5 -46.9 -10.45 -46.7 -10.4 -46.55 -10.35 -46.4 -10.25 -46.35 -10.2 -46.2 -10.15 -46.05 -10.1 -37.3 -10.0 -37.15 -9.95 -37.0 -9.85 -36.9 -9.75 -36.85 -9.65 -36.8 -9.55 -36.75 -9.45 -36.75 -9.4 -36.7 -9.3 -36.7 -9.2 -36.75 -9.1 -36.8 -9.0 -36.8 -8.9 -36.9 -8.8 -36.95 -8.7 -37.05 -8.6 -37.15 -8.55 -37.5 -8.5 -46.6 -8.55 -46.8 -8.55 -46.95 -8.65 -47.05 -8.7 -47.1 -8.75 -47.3 -8.8 -47.4 -8.9 -47.45 -8.9 -47.65 -8.95 -47.9 -9.05 -48.55 -9.05 -48.7 -9.0 -48.85 -8.95 -49.25 -8.85 -50.55 -8.95 -50.65 -9.05 -50.75 -9.15 -50.85 -9.25 -50.9 -9.35 -50.9 -9.45 -50.95 -9.55 -50.95 -9.65 -50.95 -9.7 -50.95 -9.8 -50.9 -9.9 -50.9 -10.0 -50.8 -10.1 -50.7 -10.2 M-20.3 -16.6 L-20.2 -16.65 -20.0 -16.65 -20.0 -16.7 -19.8 -16.65 -19.65 -16.6 -19.5 -16.5 -19.4 -16.4 -19.35 -16.3 -19.3 -16.2 -19.25 -16.15 -19.25 -16.05 -19.2 -16.0 -18.9 -15.95 -18.7 -15.9 -18.55 -15.85 -18.4 -15.75 -18.3 -15.7 -18.2 -15.7 -18.1 -15.8 -18.0 -15.9 -17.9 -16.0 -17.8 -16.1 -17.6 -16.15 -17.4 -16.2 -17.25 -16.2 -17.05 -16.15 -16.9 -16.1 -16.75 -16.0 -16.65 -15.9 -16.6 -15.8 -16.55 -15.7 -16.45 -15.7 -16.35 -15.8 -16.2 -15.9 -16.1 -15.9 -15.9 -15.95 -15.75 -15.95 -15.55 -15.9 -15.4 -15.85 -15.25 -15.75 -15.15 -15.65 -15.1 -15.55 -15.05 -15.45 -15.0 -15.4 -15.0 -15.3 -14.95 -15.2 -14.9 -15.1 -14.8 -15.0 -14.8 -14.9 -14.7 -14.8 -14.65 -14.7 -14.55 -14.65 -14.5 -14.6 -14.25 -14.55 -14.05 -14.5 -13.9 -14.45 -13.75 -14.35 -13.65 -14.25 -13.6 -14.15 -13.55 -14.05 -13.5 -13.95 -13.5 -13.9 -13.45 -13.8 -13.45 -13.7 -13.5 -13.6 -13.55 -13.5 -13.55 -13.4 -13.65 -13.3 -13.7 -13.2 -13.8 -13.15 -13.9 -13.05 -14.0 -12.95 -14.1 -12.85 -14.2 -12.8 -14.3 -12.75 -14.9 -12.75 -15.3 -12.8 -15.4 -12.9 -15.5 -13.0 -15.6 -13.1 -15.65 -13.2 -15.7 -13.2 -15.85 -13.1 -15.95 -13.05 -16.05 -13.0 -16.25 -13.0 -16.4 -13.0 -16.8 -13.05 -16.9 -13.15 -17.0 -13.25 -17.1 -13.35 -17.15 -13.45 -17.2 -13.55 -17.25 -13.65 -17.3 -13.55 -17.4 -13.45 -17.45 -13.4 -17.55 -13.3 -17.65 -13.2 -17.7 -13.2 -17.8 -13.15 -18.0 -13.15 -18.35 -13.15 -18.55 -13.2 -18.65 -13.3 -18.75 -13.4 -18.85 -13.5 -18.95 -13.5 -18.95 -13.4 -19.05 -13.3 -19.1 -13.2 -19.2 -13.15 -19.3 -13.05 -19.4 -12.95 -19.45 -12.95 -19.55 -12.9 -19.75 -12.9 -19.95 -12.9 -20.15 -12.95 -20.25 -13.05 -20.35 -13.15 -20.45 -13.25 -20.45 -13.35 -20.5 -13.45 -20.55 -13.55 -20.55 -13.65 -20.55 -13.7 -20.55 -13.8 -20.55 -14.0 -20.55 -14.2 -20.55 -14.4 -20.55 -14.45 -20.55 -14.55 -20.65 -14.65 -20.65 -14.75 -20.7 -14.85 -20.7 -14.95 -20.7 -15.05 -20.7 -15.15 -20.7 -15.2 -20.7 -15.3 -20.75 -15.4 -20.75 -15.5 -20.75 -15.6 -20.8 -15.7 -20.8 -15.8 -20.8 -15.9 -20.8 -15.95 -20.8 -16.05 -20.75 -16.15 -20.7 -16.25 -20.65 -16.35 -20.55 -16.45 -20.45 -16.55 -20.4 -16.6 -20.3 -16.6" fill="#cccccc" fill-rule="evenodd" stroke="none"/>
  </g>
</svg>
