<?xml version="1.0" encoding="UTF-8" standalone="no"?>
<svg xmlns:ffdec="https://www.free-decompiler.com/flash" xmlns:xlink="http://www.w3.org/1999/xlink" ffdec:objectType="shape" height="14.05px" width="99.8px" xmlns="http://www.w3.org/2000/svg">
  <g transform="matrix(1.0, 0.0, 0.0, 1.0, 44.95, 25.05)">
    <path d="M18.55 -19.55 L18.6 -19.6 18.7 -19.6 18.8 -19.65 19.0 -19.7 19.1 -19.7 19.3 -19.65 19.45 -19.6 19.6 -19.5 19.7 -19.4 19.8 -19.3 19.85 -19.2 19.9 -19.15 19.95 -19.05 20.0 -18.95 20.05 -18.85 20.05 -18.75 20.15 -18.75 20.25 -18.85 20.35 -18.95 20.45 -19.05 20.55 -19.15 20.6 -19.2 20.65 -19.3 20.75 -19.4 20.85 -19.5 20.95 -19.6 21.1 -19.7 21.2 -19.8 21.3 -19.9 21.45 -19.95 21.55 -20.05 21.7 -20.1 21.85 -20.2 22.05 -20.25 22.25 -20.25 22.25 -20.3 22.85 -20.25 23.0 -20.25 23.2 -20.2 23.35 -20.1 23.5 -20.0 23.6 -19.9 23.65 -19.8 23.7 -19.7 23.75 -19.65 23.8 -19.55 23.85 -19.45 23.95 -19.35 23.95 -19.25 24.0 -19.15 24.05 -19.05 24.1 -18.95 24.1 -18.9 24.15 -18.8 24.25 -18.75 24.3 -18.8 24.4 -18.9 24.5 -19.0 24.6 -19.1 24.85 -19.2 25.0 -19.3 25.1 -19.35 25.2 -19.35 25.55 -19.5 26.7 -19.5 26.85 -19.45 27.0 -19.35 27.1 -19.25 27.15 -19.15 27.2 -19.05 27.25 -18.95 27.25 -18.9 27.3 -18.8 27.3 -18.7 27.25 -18.6 27.2 -18.5 27.2 -18.4 27.1 -18.3 27.05 -18.2 26.95 -18.1 26.85 -18.05 26.8 -18.05 26.7 -18.0 26.5 -18.0 26.05 -17.95 25.95 -17.9 25.8 -17.85 25.65 -17.75 25.6 -17.65 25.5 -17.55 25.35 -17.5 25.1 -17.4 25.05 -17.3 25.0 -17.2 24.95 -17.1 24.9 -17.0 24.85 -16.9 24.75 -16.8 24.6 -16.75 24.45 -16.65 24.25 -16.65 24.0 -16.65 23.8 -16.65 23.6 -16.7 23.5 -16.8 23.4 -16.9 23.3 -17.0 23.3 -17.1 23.2 -17.2 23.1 -17.3 23.05 -17.4 23.0 -17.45 22.95 -17.55 22.85 -17.65 22.8 -17.75 22.8 -17.85 22.75 -17.95 22.7 -18.05 22.65 -18.15 22.6 -18.2 22.6 -18.3 22.55 -18.4 22.5 -18.5 22.4 -18.6 22.35 -18.65 22.25 -18.55 22.15 -18.45 22.05 -18.4 21.95 -18.3 21.85 -18.2 21.65 -18.0 21.6 -17.9 21.5 -17.8 21.45 -17.7 21.4 -17.65 21.35 -17.55 21.3 -17.45 21.25 -17.35 21.2 -17.25 21.1 -17.15 20.95 -17.05 20.9 -16.95 20.85 -16.9 20.8 -16.8 20.75 -16.7 20.7 -16.6 20.65 -16.5 20.6 -16.4 20.55 -16.3 20.45 -16.2 20.4 -16.15 20.3 -16.05 20.2 -15.95 20.15 -15.95 20.05 -15.9 19.85 -15.9 19.75 -15.9 19.55 -15.9 19.35 -15.95 19.25 -16.05 19.15 -16.15 19.05 -16.25 19.05 -16.35 19.0 -16.45 18.95 -16.55 18.9 -16.65 18.85 -16.7 18.85 -16.8 18.8 -16.9 18.8 -17.0 18.8 -17.1 18.75 -17.2 18.7 -17.3 18.7 -17.4 18.7 -17.45 18.7 -17.55 18.7 -17.65 18.65 -17.75 18.6 -17.85 18.6 -17.95 18.55 -18.05 18.55 -18.15 18.5 -18.2 18.45 -18.3 18.35 -18.4 18.3 -18.5 18.3 -18.6 18.25 -18.7 18.2 -18.8 18.2 -18.9 18.2 -18.95 18.2 -19.05 18.25 -19.15 18.3 -19.25 18.35 -19.35 18.45 -19.45 18.55 -19.55 M5.65 -24.05 L5.7 -23.95 5.75 -23.9 5.75 -23.8 5.8 -23.7 5.8 -23.6 5.8 -23.5 5.8 -23.4 5.75 -23.3 5.7 -23.2 5.65 -23.15 5.6 -23.05 5.55 -22.95 5.5 -22.85 5.45 -22.75 5.45 -22.65 5.35 -22.55 5.3 -22.45 5.2 -22.4 5.1 -22.3 5.05 -22.2 4.95 -22.1 4.9 -22.0 4.85 -21.9 4.75 -21.8 4.65 -21.7 4.55 -21.65 4.5 -21.55 4.45 -21.45 4.4 -21.35 4.35 -21.25 4.25 -21.15 4.1 -21.05 3.95 -21.0 3.8 -20.9 2.75 -20.9 2.35 -21.0 2.1 -21.05 2.0 -21.15 1.9 -21.25 1.7 -21.3 1.6 -21.4 1.5 -21.5 1.4 -21.6 1.35 -21.7 1.3 -21.7 1.3 -21.6 1.25 -21.5 1.2 -21.4 1.2 -21.3 1.1 -21.2 1.05 -21.15 0.95 -21.05 0.85 -20.95 0.8 -20.95 0.7 -20.9 0.5 -20.9 0.35 -20.9 0.15 -20.9 -0.05 -20.95 -0.15 -21.05 -0.25 -21.15 -0.35 -21.25 -0.45 -21.35 -0.45 -21.45 -0.55 -21.55 -0.6 -21.65 -0.65 -21.7 -0.7 -21.8 -0.75 -21.9 -0.8 -22.0 -0.85 -22.1 -0.9 -22.2 -0.95 -22.3 -0.95 -22.2 -0.95 -22.1 -1.0 -22.0 -1.05 -21.9 -1.05 -21.8 -1.15 -21.7 -1.2 -21.65 -1.3 -21.55 -1.4 -21.45 -1.45 -21.45 -1.55 -21.4 -1.75 -21.4 -1.95 -21.4 -2.15 -21.45 -2.25 -21.55 -2.35 -21.65 -2.45 -21.75 -2.45 -21.85 -2.55 -21.95 -2.65 -22.05 -2.7 -22.15 -2.8 -22.2 -2.9 -22.3 -2.9 -22.4 -2.95 -22.5 -2.95 -22.6 -2.95 -22.7 -3.05 -22.8 -3.15 -22.9 -3.15 -22.95 -3.2 -23.05 -3.25 -23.15 -3.35 -23.25 -3.45 -23.35 -3.55 -23.45 -3.65 -23.55 -3.7 -23.65 -3.75 -23.7 -3.75 -23.8 -3.8 -23.9 -3.8 -24.0 -3.8 -24.1 -3.75 -24.2 -3.75 -24.3 -3.7 -24.4 -3.65 -24.45 -3.55 -24.55 -3.45 -24.65 -3.3 -24.7 -3.2 -24.75 -3.0 -24.8 -2.9 -24.8 -2.7 -24.75 -2.55 -24.7 -2.4 -24.6 -2.25 -24.5 -2.2 -24.45 -2.15 -24.55 -2.1 -24.65 -2.05 -24.7 -1.95 -24.8 -1.85 -24.9 -1.7 -24.95 -1.6 -25.0 -1.4 -25.0 -1.4 -25.05 -1.25 -25.05 -1.05 -25.0 -0.9 -24.95 -0.65 -24.85 -0.5 -24.75 -0.4 -24.65 -0.35 -24.55 -0.3 -24.45 -0.25 -24.4 -0.25 -24.3 -0.2 -24.2 -0.15 -24.1 -0.05 -24.0 -0.05 -23.9 0.0 -23.8 0.05 -23.7 0.1 -23.65 0.2 -23.55 0.2 -23.45 0.3 -23.4 0.4 -23.4 0.55 -23.45 0.85 -23.5 1.6 -23.5 1.8 -23.5 1.95 -23.45 2.1 -23.35 2.2 -23.25 2.25 -23.15 2.4 -23.05 2.5 -22.95 2.6 -22.9 2.65 -22.8 2.7 -22.7 2.75 -22.6 2.85 -22.5 3.1 -22.5 3.2 -22.6 3.3 -22.7 3.35 -22.8 3.45 -22.9 3.55 -22.95 3.65 -23.05 3.75 -23.15 3.8 -23.25 3.85 -23.35 3.95 -23.45 3.95 -23.55 4.0 -23.65 4.05 -23.7 4.05 -23.8 4.15 -23.9 4.25 -24.0 4.35 -24.1 4.45 -24.2 4.55 -24.3 4.6 -24.35 4.7 -24.35 4.8 -24.4 5.0 -24.45 5.2 -24.4 5.35 -24.35 5.5 -24.25 5.6 -24.15 5.65 -24.05 M52.25 -14.25 L52.45 -14.2 52.6 -14.1 52.7 -14.0 52.75 -13.9 52.9 -13.8 53.0 -13.7 53.1 -13.7 53.15 -13.8 53.25 -13.9 53.35 -14.0 53.45 -14.1 53.7 -14.2 53.9 -14.25 54.1 -14.3 54.25 -14.25 54.45 -14.2 54.6 -14.1 54.7 -14.0 54.75 -13.9 54.75 -13.8 54.85 -13.7 54.85 -13.65 54.85 -13.55 54.85 -13.45 54.85 -13.35 54.85 -13.25 54.8 -13.15 54.75 -13.05 54.7 -12.95 54.65 -12.9 54.3 -12.6 53.9 -12.25 53.25 -11.75 53.15 -11.7 53.0 -11.65 52.85 -11.65 52.65 -11.65 52.45 -11.7 52.35 -11.8 52.25 -11.9 52.15 -12.0 52.05 -12.1 52.0 -12.2 51.95 -12.3 51.9 -12.4 51.85 -12.45 51.75 -12.55 51.75 -12.65 51.55 -12.7 51.45 -12.65 51.15 -12.6 51.05 -12.55 50.85 -12.45 50.7 -12.4 50.6 -12.3 50.5 -12.2 50.4 -12.1 50.25 -12.0 50.2 -11.9 50.15 -11.8 50.05 -11.7 49.95 -11.65 49.85 -11.55 49.75 -11.45 49.65 -11.35 49.5 -11.25 49.4 -11.2 49.1 -11.15 48.75 -11.15 48.35 -11.2 48.2 -11.3 48.1 -11.4 48.0 -11.5 47.9 -11.6 47.85 -11.7 47.75 -11.8 47.75 -11.9 47.7 -11.95 47.6 -12.05 47.6 -12.15 47.55 -12.25 47.5 -12.35 47.45 -12.4 47.35 -12.3 47.35 -12.2 47.35 -12.15 47.35 -12.05 47.25 -11.95 47.25 -11.85 47.25 -11.75 47.25 -11.65 47.25 -11.55 47.2 -11.45 47.15 -11.4 47.1 -11.3 47.0 -11.2 46.9 -11.1 46.8 -11.05 46.7 -11.0 46.5 -11.0 46.35 -11.0 46.15 -11.0 45.95 -11.05 45.85 -11.15 45.75 -11.25 45.65 -11.35 45.6 -11.45 45.6 -11.55 45.55 -11.65 45.5 -11.7 45.5 -11.8 45.45 -11.9 45.45 -12.1 45.45 -12.2 45.45 -12.3 45.45 -12.45 45.45 -12.65 45.45 -12.85 45.5 -12.95 45.5 -13.05 45.55 -13.15 45.55 -13.2 45.55 -13.3 45.55 -13.4 45.55 -13.5 45.6 -13.6 45.6 -13.7 45.65 -13.8 45.7 -13.9 45.8 -13.95 45.9 -14.05 46.0 -14.15 46.05 -14.25 46.05 -14.35 46.1 -14.45 46.1 -14.55 46.15 -14.65 46.2 -14.7 46.2 -14.8 46.25 -14.9 46.25 -15.0 46.35 -15.1 46.45 -15.2 46.5 -15.3 46.6 -15.35 46.7 -15.35 46.8 -15.4 47.0 -15.4 47.0 -15.45 47.1 -15.45 47.25 -15.4 47.45 -15.35 47.6 -15.25 47.7 -15.15 47.75 -15.05 47.85 -14.95 47.9 -14.9 47.95 -14.8 48.0 -14.7 48.0 -14.6 48.1 -14.5 48.15 -14.4 48.2 -14.3 48.25 -14.2 48.25 -14.15 48.3 -14.05 48.35 -13.95 48.45 -13.85 48.5 -13.75 48.6 -13.65 48.65 -13.55 48.7 -13.45 48.75 -13.4 48.75 -13.3 48.85 -13.2 48.9 -13.1 48.95 -13.05 49.05 -13.05 49.15 -13.15 49.25 -13.25 49.35 -13.35 49.45 -13.45 49.6 -13.55 49.7 -13.65 49.8 -13.7 49.9 -13.8 50.05 -13.85 50.2 -13.95 50.35 -14.05 50.45 -14.1 50.85 -14.2 52.1 -14.3 52.25 -14.25 M-42.8 -16.25 L-42.65 -16.2 -42.5 -16.1 -42.4 -16.0 -42.35 -15.9 -42.3 -15.9 -42.1 -15.9 -41.9 -15.95 -41.75 -15.95 -41.55 -15.9 -41.4 -15.85 -41.25 -15.75 -41.15 -15.65 -41.05 -15.55 -40.95 -15.45 -40.9 -15.4 -40.85 -15.3 -40.8 -15.2 -40.75 -15.1 -40.7 -15.0 -40.7 -14.9 -40.7 -14.8 -40.65 -14.7 -40.65 -14.65 -40.6 -14.55 -40.55 -14.45 -40.45 -14.35 -40.45 -14.25 -40.4 -14.15 -40.35 -14.05 -40.3 -13.95 -40.2 -13.9 -40.15 -13.8 -40.1 -13.8 -39.9 -13.8 -39.7 -13.75 -39.55 -13.7 -39.4 -13.6 -39.3 -13.5 -39.25 -13.4 -39.2 -13.3 -39.15 -13.2 -39.15 -13.15 -39.15 -13.05 -39.15 -12.95 -39.15 -12.85 -39.15 -12.75 -39.15 -12.65 -39.15 -12.55 -39.15 -12.4 -39.15 -12.3 -39.15 -12.2 -39.2 -12.1 -39.25 -12.0 -39.3 -11.9 -39.4 -11.8 -39.55 -11.75 -39.7 -11.65 -39.9 -11.65 -40.0 -11.65 -40.2 -11.65 -40.4 -11.7 -40.55 -11.8 -40.65 -11.9 -40.75 -12.0 -40.85 -12.1 -40.9 -12.2 -40.95 -12.3 -41.0 -12.4 -41.05 -12.45 -41.3 -12.55 -41.4 -12.65 -41.5 -12.75 -41.6 -12.85 -41.65 -12.95 -41.75 -13.0 -41.85 -12.95 -41.95 -12.9 -42.15 -12.9 -42.25 -12.9 -42.45 -12.9 -42.65 -12.95 -42.75 -13.05 -42.85 -13.15 -42.85 -13.1 -42.9 -13.0 -42.9 -12.9 -42.9 -12.8 -42.9 -12.7 -42.95 -12.65 -42.95 -12.55 -42.95 -12.45 -42.95 -12.35 -42.95 -12.25 -42.95 -12.15 -43.0 -12.05 -43.05 -11.95 -43.1 -11.9 -43.15 -11.8 -43.2 -11.7 -43.35 -11.6 -43.45 -11.55 -43.55 -11.5 -43.75 -11.5 -43.9 -11.5 -44.1 -11.5 -44.3 -11.55 -44.4 -11.65 -44.5 -11.75 -44.6 -11.85 -44.65 -11.95 -44.65 -12.05 -44.7 -12.15 -44.7 -12.2 -44.7 -12.3 -44.7 -12.4 -44.7 -12.5 -44.7 -12.6 -44.75 -12.7 -44.8 -12.8 -44.85 -12.9 -44.9 -12.95 -44.9 -13.05 -44.95 -13.15 -44.95 -13.25 -44.95 -13.35 -44.9 -13.45 -44.9 -13.55 -44.85 -13.65 -44.8 -13.7 -44.7 -13.8 -44.6 -13.9 -44.45 -13.95 -44.35 -14.05 -44.3 -14.15 -44.3 -14.2 -44.3 -14.3 -44.3 -14.4 -44.3 -14.5 -44.3 -14.6 -44.25 -14.7 -44.25 -14.8 -44.2 -14.9 -44.2 -14.95 -44.2 -15.05 -44.2 -15.15 -44.2 -15.25 -44.2 -15.35 -44.2 -15.55 -44.2 -15.65 -44.15 -15.7 -44.15 -15.8 -44.1 -15.9 -44.0 -16.0 -43.9 -16.1 -43.8 -16.2 -43.6 -16.25 -43.4 -16.25 -43.4 -16.3 -43.0 -16.25 -42.8 -16.25 M-20.55 -18.7 L-20.45 -18.8 -20.4 -18.9 -20.3 -18.95 -20.2 -18.95 -20.1 -19.0 -19.9 -19.05 -19.75 -19.05 -19.55 -19.0 -19.4 -18.95 -19.25 -18.85 -19.15 -18.75 -19.1 -18.7 -19.05 -18.7 -19.05 -18.8 -19.0 -18.9 -18.95 -19.0 -18.95 -19.1 -18.95 -19.2 -18.95 -19.3 -18.9 -19.4 -18.9 -19.45 -18.85 -19.55 -18.8 -19.65 -18.75 -19.75 -18.7 -19.85 -18.65 -19.95 -18.55 -20.05 -18.45 -20.15 -18.4 -20.2 -18.3 -20.2 -18.2 -20.25 -18.0 -20.3 -17.9 -20.3 -17.7 -20.25 -17.55 -20.2 -17.4 -20.1 -17.3 -20.0 -17.25 -19.9 -17.2 -19.85 -17.05 -19.9 -16.95 -19.95 -16.85 -20.05 -16.75 -20.15 -16.65 -20.25 -16.4 -20.45 -16.2 -20.55 -16.15 -20.65 -16.05 -20.7 -15.95 -20.7 -15.85 -20.75 -15.7 -20.8 -15.55 -20.9 -15.45 -20.9 -15.25 -20.95 -15.05 -20.95 -14.95 -21.0 -14.75 -21.0 -14.75 -21.05 -14.4 -21.0 -14.2 -21.0 -14.05 -20.95 -13.9 -20.85 -13.75 -20.75 -13.65 -20.65 -13.6 -20.55 -13.55 -20.45 -13.5 -20.4 -13.5 -20.3 -13.45 -20.2 -13.45 -20.1 -13.4 -20.0 -13.3 -19.9 -13.2 -19.8 -13.15 -19.7 -13.05 -19.7 -12.95 -19.8 -12.8 -19.9 -12.7 -19.9 -12.5 -19.95 -12.25 -19.95 -12.05 -19.9 -11.9 -19.85 -11.75 -19.75 -11.65 -19.65 -11.6 -19.55 -11.55 -19.45 -11.5 -19.4 -11.5 -19.3 -11.45 -19.2 -11.45 -19.1 -11.5 -19.0 -11.55 -18.9 -11.55 -18.8 -11.65 -18.7 -11.7 -18.65 -11.8 -18.55 -11.95 -18.45 -11.95 -18.35 -12.0 -18.25 -12.05 -18.15 -12.05 -18.05 -12.15 -17.95 -12.15 -17.9 -12.15 -17.8 -12.2 -17.7 -12.25 -17.6 -12.3 -17.5 -12.4 -17.4 -12.55 -17.3 -12.7 -17.25 -12.9 -17.25 -13.0 -17.25 -13.2 -17.25 -13.4 -17.3 -13.5 -17.4 -13.6 -17.5 -13.7 -17.6 -13.8 -17.7 -13.85 -17.8 -13.9 -17.9 -13.95 -17.95 -14.05 -18.05 -14.15 -18.15 -14.15 -18.25 -14.2 -18.35 -14.3 -18.45 -14.35 -18.55 -14.4 -18.65 -14.45 -18.7 -14.55 -18.8 -14.65 -18.9 -14.75 -19.0 -14.85 -19.1 -14.9 -19.2 -14.9 -19.3 -15.0 -19.35 -15.1 -19.3 -15.2 -19.25 -15.4 -19.2 -15.5 -19.1 -15.65 -19.0 -15.75 -18.9 -15.85 -18.8 -15.95 -18.7 -16.05 -18.65 -16.15 -18.55 -16.2 -18.45 -16.2 -18.35 -16.25 -18.25 -16.3 -18.15 -16.3 -18.05 -16.4 -17.95 -16.45 -17.9 -16.5 -17.8 -16.55 -17.7 -16.6 -17.6 -16.65 -17.5 -16.75 -17.4 -16.9 -17.3 -17.05 -17.25 -17.25 -17.25 -17.4 -17.25 -17.6 -17.25 -17.8 -17.3 -17.85 -17.25 -17.9 -17.15 -17.9 -17.05 -17.95 -16.95 -17.95 -16.9 -18.0 -16.8 -18.0 -16.7 -18.05 -16.6 -18.1 -16.5 -18.15 -16.4 -18.2 -16.3 -18.25 -16.2 -18.35 -16.15 -18.45 -16.05 -18.55 -15.95 -18.6 -15.95 -18.7 -15.9 -18.9 -15.9 -19.0 -15.9 -19.2 -15.9 -19.4 -15.95 -19.55 -16.05 -19.65 -16.15 -19.75 -16.25 -19.85 -16.35 -19.9 -16.45 -19.9 -16.55 -19.95 -16.65 -19.95 -16.7 -19.95 -16.8 -20.0 -16.8 -20.1 -16.7 -20.2 -16.65 -20.25 -16.55 -20.3 -16.45 -20.35 -16.35 -20.4 -16.25 -20.5 -16.15 -20.65 -16.05 -20.8 -16.0 -21.0 -16.0 -21.15 -16.0 -21.35 -16.0 -21.55 -16.05 -21.65 -16.15 -21.75 -16.25 -21.85 -16.35 -21.9 -16.45 -21.9 -16.55 -21.95 -16.65 -21.95 -16.7 -21.95 -16.8 -21.95 -16.9 -21.9 -17.0 -21.9 -17.1 -21.8 -17.2 -21.7 -17.3 -21.65 -17.4 -21.55 -17.45 -21.45 -17.55 -21.45 -17.65 -21.4 -17.75 -21.4 -17.85 -21.3 -17.95 -21.2 -18.05 -21.15 -18.1 -21.0 -18.2 -20.95 -18.3 -20.85 -18.4 -20.75 -18.5 -20.65 -18.6 -20.55 -18.7" fill="#cccccc" fill-rule="evenodd" stroke="none"/>
  </g>
</svg>
