<?xml version="1.0" encoding="UTF-8" standalone="no"?>
<svg xmlns:ffdec="https://www.free-decompiler.com/flash" xmlns:xlink="http://www.w3.org/1999/xlink" ffdec:objectType="shape" height="18.85px" width="166.4px" xmlns="http://www.w3.org/2000/svg">
  <g transform="matrix(1.0, 0.0, 0.0, 1.0, 81.2, 25.85)">
    <path d="M0.85 -25.8 L1.35 -25.75 1.7 -25.7 1.85 -25.6 2.05 -25.55 2.2 -25.45 2.3 -25.35 2.3 -25.3 2.2 -25.2 2.1 -25.15 2.05 -25.05 1.85 -25.0 1.85 -24.9 1.85 -24.65 1.85 -24.55 2.05 -24.45 2.1 -24.35 2.2 -24.3 2.3 -24.25 2.45 -24.25 2.55 -24.15 2.7 -24.1 2.9 -24.05 3.05 -23.95 3.05 -23.9 3.15 -23.8 3.3 -23.75 3.45 -23.7 3.45 -23.65 3.55 -23.55 3.7 -23.5 3.9 -23.45 3.9 -23.4 4.0 -23.3 4.0 -23.25 4.15 -23.2 4.25 -23.15 4.3 -23.05 4.4 -23.0 4.4 -22.9 4.4 -22.8 4.4 -22.65 4.4 -22.55 4.4 -22.4 4.3 -22.35 4.3 -22.3 4.15 -22.25 4.0 -22.15 3.8 -22.05 3.45 -22.05 2.95 -22.0 2.45 -21.95 1.8 -21.95 1.35 -21.95 0.75 -21.95 0.1 -21.95 -0.35 -22.05 -0.7 -22.05 -0.95 -22.15 -1.1 -22.25 -1.2 -22.3 -1.25 -22.35 -1.25 -22.4 -1.25 -22.5 -1.25 -22.55 -1.2 -22.6 -1.1 -22.65 -1.1 -22.7 -1.2 -22.8 -1.25 -22.9 -1.25 -23.0 -1.5 -23.05 -1.6 -23.15 -1.7 -23.2 -1.7 -23.3 -1.8 -23.4 -2.05 -23.45 -2.05 -23.5 -2.1 -23.55 -2.2 -23.65 -2.45 -23.7 -2.55 -23.75 -2.8 -23.8 -2.9 -23.9 -2.95 -23.95 -2.95 -24.05 -3.2 -24.1 -3.3 -24.15 -3.4 -24.25 -3.4 -24.3 -3.4 -24.6 -3.4 -24.9 -3.4 -25.2 -3.4 -25.35 -3.3 -25.45 -3.2 -25.45 -2.95 -25.55 -2.6 -25.6 -2.35 -25.7 -2.05 -25.75 -1.6 -25.8 -0.95 -25.85 -0.35 -25.85 0.35 -25.85 0.85 -25.8 M19.65 -20.2 L19.9 -20.25 20.2 -20.35 20.45 -20.35 20.8 -20.45 21.05 -20.45 21.5 -20.5 22.1 -20.5 22.75 -20.5 23.25 -20.45 23.75 -20.35 24.1 -20.35 24.3 -20.25 24.45 -20.2 24.6 -20.15 24.6 -20.1 24.7 -20.0 24.7 -19.9 24.7 -19.8 24.7 -19.75 24.7 -19.65 24.6 -19.65 24.55 -19.6 24.45 -19.5 24.3 -19.4 24.3 -19.25 24.3 -19.15 24.1 -19.05 24.05 -19.0 23.85 -18.9 23.85 -18.85 23.85 -18.7 23.85 -18.55 23.85 -18.35 23.85 -18.15 24.05 -18.1 24.1 -18.05 24.2 -17.95 24.45 -17.85 24.7 -17.65 24.95 -17.5 25.15 -17.45 25.3 -17.35 25.45 -17.35 25.55 -17.25 25.8 -17.15 25.95 -17.1 26.3 -17.1 26.4 -17.0 26.65 -16.95 26.75 -16.85 26.8 -16.8 26.8 -16.75 27.05 -16.7 Q27.05 -16.65 27.15 -16.65 L27.25 -16.55 27.25 -16.5 27.25 -16.4 27.25 -16.25 27.5 -16.2 27.6 -16.1 27.65 -16.05 27.65 -15.9 27.65 -15.7 27.65 -15.5 27.65 -15.2 27.65 -15.1 27.6 -15.05 27.5 -14.95 27.4 -14.9 27.15 -14.8 27.05 -14.8 26.8 -14.7 26.75 -14.65 26.4 -14.6 25.95 -14.55 25.8 -14.45 25.45 -14.4 25.15 -14.35 24.8 -14.25 24.45 -14.15 24.2 -14.15 23.95 -14.1 23.6 -14.1 22.95 -14.1 22.35 -14.1 21.65 -14.15 21.25 -14.2 20.9 -14.3 20.65 -14.4 20.45 -14.4 20.4 -14.5 20.3 -14.55 20.3 -14.65 20.3 -14.7 20.4 -14.8 20.45 -14.85 20.75 -14.95 20.8 -15.0 21.05 -15.05 21.15 -15.1 21.3 -15.2 21.5 -15.25 21.75 -15.3 22.1 -15.4 22.4 -15.4 22.4 -15.55 22.4 -15.65 22.4 -15.7 22.15 -15.8 22.1 -15.8 22.0 -15.9 22.0 -16.05 22.0 -16.15 22.0 -16.25 21.9 -16.35 21.65 -16.35 21.55 -16.45 21.25 -16.5 21.05 -16.55 20.8 -16.65 20.8 -16.75 20.75 -16.8 Q20.65 -16.8 20.65 -16.85 L20.4 -16.9 20.3 -16.95 20.05 -17.0 19.95 -17.1 19.8 -17.1 19.65 -17.2 19.45 -17.3 19.35 -17.35 19.1 -17.4 19.1 -17.45 19.05 -17.55 18.95 -17.6 18.7 -17.65 18.7 -17.7 18.6 -17.8 18.6 -17.95 18.6 -18.4 18.6 -18.75 18.6 -19.15 18.6 -19.2 18.7 -19.25 18.7 -19.3 18.95 -19.35 19.05 -19.45 19.05 -19.75 19.05 -19.85 19.1 -19.9 19.2 -19.95 19.45 -20.0 19.45 -20.1 19.55 -20.15 19.65 -20.2 M51.7 -13.35 L52.35 -13.35 52.9 -13.3 53.4 -13.25 53.7 -13.2 53.9 -13.1 54.05 -13.05 54.25 -12.95 54.3 -12.85 54.3 -12.8 54.3 -12.7 54.25 -12.7 54.25 -12.6 54.05 -12.5 53.9 -12.45 53.8 -12.4 53.8 -12.35 53.65 -12.3 53.45 -12.25 53.45 -12.05 53.45 -11.85 53.45 -11.65 53.65 -11.6 53.8 -11.55 54.05 -11.45 Q54.05 -11.4 54.15 -11.4 L54.25 -11.3 54.3 -11.3 54.5 -11.2 54.55 -11.15 54.75 -11.1 54.9 -11.0 55.1 -11.0 55.1 -10.9 55.15 -10.8 55.15 -10.65 55.15 -10.55 55.1 -10.55 55.0 -10.45 54.75 -10.35 54.65 -10.3 54.3 -10.25 54.0 -10.2 53.55 -10.15 52.6 -10.0 52.2 -9.95 51.6 -9.85 50.95 -9.8 50.5 -9.7 50.25 -9.7 49.6 -9.55 48.65 -9.4 48.3 -9.3 47.8 -9.25 47.3 -9.2 46.6 -9.15 46.0 -9.2 45.35 -9.25 44.9 -9.3 44.6 -9.4 44.35 -9.45 44.15 -9.45 44.1 -9.55 44.0 -9.6 44.0 -9.7 44.0 -9.8 44.0 -9.85 44.1 -9.95 44.15 -10.0 44.35 -10.05 44.6 -10.15 44.9 -10.2 45.6 -10.3 46.55 -10.55 46.85 -10.55 47.45 -10.65 47.9 -10.7 48.3 -10.8 49.0 -10.8 49.05 -10.9 49.0 -11.0 48.65 -11.0 48.4 -11.1 48.3 -11.15 48.2 -11.2 48.2 -11.4 48.2 -11.75 48.2 -12.1 48.2 -12.4 48.2 -12.45 48.3 -12.5 48.3 -12.6 48.55 -12.7 48.65 -12.7 48.75 -12.8 48.75 -12.85 49.0 -12.95 49.05 -12.95 49.25 -13.05 49.4 -13.1 49.65 -13.2 50.0 -13.25 50.4 -13.3 51.1 -13.35 51.7 -13.35 M66.5 -7.0 L66.1 -7.1 65.75 -7.15 65.5 -7.2 65.3 -7.25 65.25 -7.35 65.15 -7.4 65.15 -7.5 65.15 -7.6 65.25 -7.65 65.3 -7.7 65.55 -7.75 65.9 -7.85 66.15 -7.9 66.5 -7.95 66.75 -8.0 67.2 -8.0 67.75 -8.0 82.55 -8.0 83.25 -8.0 83.75 -7.95 84.25 -7.9 84.6 -7.85 84.75 -7.75 84.95 -7.7 85.1 -7.65 85.1 -7.6 85.2 -7.5 85.2 -7.45 85.1 -7.4 85.05 -7.3 84.95 -7.25 84.7 -7.15 84.5 -7.15 84.1 -7.1 83.85 -7.0 83.6 -7.0 82.55 -7.0 67.2 -7.0 66.5 -7.0 M-81.15 -7.7 L-81.2 -7.7 -81.2 -7.8 -81.2 -7.85 -81.2 -7.95 -81.15 -8.0 Q-81.05 -8.0 -81.05 -8.05 L-80.8 -8.1 -80.45 -8.2 -80.2 -8.25 -79.85 -8.3 -79.6 -8.3 -79.2 -8.35 -78.6 -8.35 -62.1 -8.35 -61.4 -8.35 -60.9 -8.3 -60.4 -8.25 -60.05 -8.2 -59.9 -8.1 -59.75 -8.0 -59.55 -8.0 -59.55 -7.9 -59.5 -7.85 -59.5 -7.75 -59.55 -7.7 -59.65 -7.65 -59.75 -7.6 -60.0 -7.5 -60.15 -7.45 -60.6 -7.4 -60.85 -7.35 -61.1 -7.35 -62.1 -7.3 -79.2 -7.35 -79.85 -7.35 -80.3 -7.4 -80.65 -7.45 -80.9 -7.55 -81.05 -7.6 -81.15 -7.7 M-49.75 -12.45 L-49.6 -12.5 -49.4 -12.6 -49.3 -12.7 -49.05 -12.7 -49.0 -12.75 -48.75 -12.85 -48.55 -12.95 -48.2 -12.95 -48.15 -13.0 -47.9 -13.1 -47.8 -13.15 -47.65 -13.25 -47.45 -13.3 -47.2 -13.35 -46.95 -13.45 -46.8 -13.45 -46.6 -13.55 -46.35 -13.6 -46.0 -13.7 -45.7 -13.75 -45.35 -13.8 -45.1 -13.85 -44.75 -13.9 -44.5 -13.95 -44.1 -13.95 -43.5 -13.95 -42.8 -13.95 -42.3 -13.9 -41.8 -13.85 -41.45 -13.8 -41.3 -13.75 -41.1 -13.65 -40.95 -13.55 -40.85 -13.45 -40.85 -13.4 -40.85 -13.3 -40.95 -13.25 -40.95 -13.2 -41.1 -13.1 -41.3 -13.1 -41.45 -13.0 -41.8 -12.95 -42.15 -12.9 -42.3 -12.85 -42.55 -12.75 Q-42.55 -12.7 -42.65 -12.7 L-43.0 -12.65 -43.15 -12.55 -43.4 -12.45 -43.5 -12.4 -43.8 -12.35 -44.0 -12.35 -44.25 -12.25 -44.35 -12.25 -44.5 -12.1 -44.65 -12.05 -44.75 -12.0 -44.75 -11.95 -44.9 -11.85 -45.1 -11.8 -45.1 -11.75 -45.1 -11.65 -45.1 -11.6 -44.75 -11.55 -44.4 -11.5 -44.1 -11.4 -43.9 -11.3 -43.5 -11.3 -43.15 -11.25 -42.8 -11.15 -42.65 -11.1 -42.4 -11.0 -42.3 -11.0 -42.15 -10.9 -41.95 -10.8 -41.8 -10.8 -41.8 -10.7 -41.7 -10.65 -41.7 -10.55 -41.55 -10.55 -41.45 -10.5 -41.35 -10.4 -41.3 -10.35 -41.3 -10.25 -41.3 -10.15 -41.3 -10.05 -41.3 -10.0 -41.3 -9.8 -41.45 -9.7 -41.55 -9.65 -41.8 -9.55 -41.9 -9.5 -42.15 -9.45 -42.2 -9.4 -42.55 -9.35 -43.0 -9.3 -43.4 -9.2 -43.5 -9.1 -43.8 -9.05 -44.15 -9.0 -44.5 -8.95 -44.75 -8.85 -45.0 -8.85 -45.35 -8.85 -46.0 -8.85 -46.6 -8.85 -47.3 -8.85 -47.7 -8.95 -48.05 -9.0 -48.3 -9.1 -48.5 -9.15 -48.55 -9.2 -48.65 -9.3 -48.65 -9.45 -48.65 -9.55 -48.5 -9.65 -48.3 -9.7 -48.05 -9.75 -47.7 -9.85 -47.4 -9.95 -47.05 -10.0 -46.8 -10.05 -46.85 -10.1 -46.85 -10.2 -46.95 -10.25 -46.95 -10.3 -47.05 -10.35 -47.2 -10.4 -47.4 -10.5 -47.65 -10.55 -47.9 -10.6 -48.2 -10.65 -48.55 -10.7 -49.15 -10.85 -49.5 -10.95 -49.75 -11.0 -49.85 -11.1 -50.0 -11.15 -50.15 -11.15 -50.25 -11.25 -50.35 -11.3 -50.35 -11.4 -50.35 -11.55 -50.35 -11.75 -50.35 -12.0 -50.35 -12.15 -50.25 -12.25 -50.0 -12.35 -49.9 -12.4 -49.75 -12.45 M-23.25 -18.7 L-23.2 -18.75 -23.2 -18.8 -22.95 -18.85 -22.85 -18.95 -22.65 -19.05 -22.5 -19.05 -22.25 -19.15 -22.0 -19.2 -21.85 -19.25 -21.55 -19.3 -21.15 -19.45 -20.75 -19.6 -20.65 -19.65 -20.4 -19.7 -20.2 -19.75 -19.95 -19.85 -19.7 -19.9 -19.35 -19.95 -19.05 -20.0 -18.7 -20.1 -18.25 -20.15 -17.85 -20.15 -17.25 -20.2 -16.6 -20.15 -16.05 -20.15 -15.55 -20.05 -15.25 -19.95 -15.05 -19.9 -14.9 -19.85 -14.7 -19.8 -14.7 -19.75 -14.65 -19.65 -14.7 -19.5 -14.8 -19.5 -14.9 -19.4 -15.15 -19.35 -15.3 -19.3 -15.65 -19.2 -15.75 -19.15 -16.0 -19.05 -16.15 -19.05 -16.4 -19.0 -16.85 -18.8 -17.25 -18.7 -17.25 -18.65 -17.45 -18.55 -17.6 -18.5 -17.75 -18.45 -17.85 -18.4 -18.0 -18.3 -18.2 -18.2 -18.25 -18.15 -18.45 -18.05 -18.45 -17.9 -18.45 -17.8 -18.45 -17.75 -18.45 -17.65 -18.45 -17.6 -18.25 -17.55 -18.1 -17.5 -17.75 -17.45 -17.6 -17.35 -17.15 -17.35 -16.85 -17.25 -16.75 -17.15 -16.5 -17.1 -16.4 -17.05 -16.15 -16.95 -16.05 -16.9 -15.9 -16.85 -15.75 -16.8 -15.55 -16.75 -15.25 -16.7 -15.05 -16.65 -14.9 -16.5 -14.7 -16.5 -14.65 -16.4 -14.4 -16.35 -14.3 -16.25 -14.05 -16.25 -13.95 -16.15 -13.85 -16.05 -13.8 -16.05 -13.8 -15.85 -13.6 -15.8 -13.45 -15.7 -13.45 -15.65 -13.35 -15.6 -13.35 -15.5 -13.35 -15.4 -13.35 -15.3 -13.35 -15.2 -13.45 -15.1 -13.45 -15.05 -13.6 -15.0 -13.8 -14.95 -13.95 -14.9 -14.05 -14.8 -14.2 -14.75 -14.3 -14.65 -14.4 -14.65 -14.45 -14.55 -14.7 -14.5 -14.8 -14.45 -15.05 -14.4 -15.15 -14.3 -15.5 -14.25 -15.9 -14.15 -16.15 -14.1 -16.6 -14.1 -17.25 -14.1 -17.85 -14.1 -18.55 -14.15 -18.95 -14.2 -19.3 -14.3 -19.55 -14.4 -19.7 -14.4 -19.8 -14.5 -19.9 -14.55 -19.9 -14.65 -19.9 -14.7 -19.9 -14.8 -19.9 -14.85 -19.8 -14.95 -19.8 -15.0 -19.55 -15.05 -19.45 -15.1 -19.35 -15.2 -19.35 -15.25 -19.1 -15.3 -19.05 -15.4 -18.95 -15.4 -19.05 -15.5 -19.05 -15.55 -19.05 -15.65 -19.05 -15.7 -19.3 -15.8 -19.35 -15.8 -19.45 -15.9 -19.55 -15.95 Q-19.7 -15.95 -19.8 -16.05 L-19.95 -16.05 -20.2 -16.15 -20.3 -16.2 -20.65 -16.25 -20.8 -16.35 -21.05 -16.35 -21.15 -16.45 -21.5 -16.5 -21.85 -16.55 -22.1 -16.65 -22.25 -16.75 -22.35 -16.8 -22.4 -16.85 -22.5 -16.9 -22.85 -16.95 -23.2 -17.0 -23.35 -17.1 -23.6 -17.1 -23.6 -17.2 -23.7 -17.3 -23.7 -17.4 -23.7 -17.65 -23.7 -17.95 -23.7 -18.2 -23.7 -18.45 -23.6 -18.5 -23.6 -18.55 -23.35 -18.6 -23.25 -18.7" fill="#cccccc" fill-rule="evenodd" stroke="none"/>
  </g>
</svg>
