<?xml version="1.0" encoding="UTF-8" standalone="no"?>
<svg xmlns:ffdec="https://www.free-decompiler.com/flash" xmlns:xlink="http://www.w3.org/1999/xlink" ffdec:objectType="shape" height="19.15px" width="230.7px" xmlns="http://www.w3.org/2000/svg">
  <g transform="matrix(1.0, 0.0, 0.0, 1.0, 118.45, 26.3)">
    <path d="M21.5 -25.8 L21.9 -25.85 22.35 -25.85 22.95 -25.85 23.35 -25.85 24.05 -25.85 24.55 -25.8 25.05 -25.75 25.4 -25.7 25.55 -25.6 25.7 -25.55 25.9 -25.45 25.95 -25.35 25.95 -25.3 25.9 -25.2 25.8 -25.15 25.7 -25.05 25.55 -25.0 25.55 -24.75 25.55 -24.55 25.55 -24.3 25.7 -24.25 25.9 -24.25 25.9 -24.15 25.95 -24.1 25.95 -23.9 25.95 -23.55 25.95 -23.2 25.95 -22.8 25.95 -22.65 25.9 -22.6 25.9 -22.55 25.7 -22.5 25.55 -22.4 25.4 -22.35 25.05 -22.3 24.7 -22.25 24.3 -22.15 24.05 -22.1 23.6 -22.05 22.95 -22.05 22.35 -22.05 21.65 -22.1 21.25 -22.2 20.9 -22.25 20.65 -22.35 20.45 -22.4 20.4 -22.45 20.3 -22.55 20.3 -22.7 20.3 -22.8 20.4 -22.9 20.45 -22.9 20.65 -22.95 20.75 -23.05 20.75 -23.2 20.75 -23.35 20.75 -23.55 20.75 -23.75 20.65 -23.75 20.4 -23.85 20.4 -23.95 20.3 -24.0 20.3 -24.2 20.3 -24.5 20.3 -24.85 20.3 -25.25 20.3 -25.45 20.4 -25.45 20.4 -25.5 20.65 -25.6 20.8 -25.6 21.15 -25.7 21.5 -25.8 M52.9 -20.75 L53.4 -20.75 53.7 -20.65 53.9 -20.6 54.05 -20.55 54.25 -20.45 54.25 -20.35 54.3 -20.35 54.3 -20.25 54.25 -20.2 54.15 -20.15 54.05 -20.1 53.8 -20.0 53.65 -19.95 53.2 -19.9 52.95 -19.85 52.8 -19.85 52.2 -19.8 52.05 -19.75 51.95 -19.65 51.7 -19.65 51.5 -19.5 51.25 -19.5 51.25 -19.4 51.1 -19.35 50.95 -19.3 50.75 -19.2 50.5 -19.15 50.4 -19.05 50.35 -19.05 50.1 -19.0 50.1 -18.9 50.0 -18.8 49.9 -18.8 49.65 -18.7 49.65 -18.65 49.65 -18.55 49.65 -18.45 49.65 -18.25 49.65 -18.05 49.65 -17.95 49.9 -17.9 50.0 -17.8 50.25 -17.75 50.35 -17.65 50.4 -17.6 50.5 -17.55 50.85 -17.5 50.95 -17.45 51.2 -17.35 51.25 -17.35 51.35 -17.25 51.35 -17.15 51.6 -17.1 51.7 -17.05 51.95 -16.95 52.05 -16.9 52.35 -16.85 52.55 -16.8 52.8 -16.75 52.9 -16.7 52.95 -16.65 53.05 -16.5 53.05 -16.4 53.3 -16.35 53.4 -16.25 53.45 -16.25 53.45 -16.15 53.45 -16.05 53.65 -16.05 53.8 -15.95 53.8 -15.9 53.9 -15.85 53.9 -15.7 53.9 -15.5 53.9 -15.2 53.9 -14.9 53.9 -14.65 53.8 -14.65 53.8 -14.55 53.65 -14.5 53.45 -14.45 53.45 -14.3 53.45 -14.2 53.4 -14.15 53.3 -14.1 53.2 -14.1 52.95 -14.0 52.8 -13.95 52.35 -13.85 52.1 -13.8 51.85 -13.8 51.5 -13.8 50.85 -13.75 50.4 -13.75 49.15 -13.8 48.75 -13.9 48.4 -13.95 48.15 -14.05 47.95 -14.1 47.8 -14.15 47.8 -14.25 47.8 -14.35 47.8 -14.4 47.9 -14.45 47.95 -14.55 48.2 -14.6 48.2 -14.7 48.3 -14.8 48.4 -14.8 48.55 -14.9 48.65 -14.95 48.65 -15.05 48.65 -15.25 48.65 -15.4 48.65 -15.5 Q48.55 -15.5 48.55 -15.55 L48.4 -15.6 48.3 -15.65 48.2 -15.7 48.2 -15.85 47.95 -15.9 47.9 -15.95 47.8 -16.05 47.8 -16.1 47.8 -16.2 47.55 -16.25 47.3 -16.35 47.1 -16.35 46.95 -16.4 46.85 -16.5 46.6 -16.55 46.6 -16.65 46.55 -16.7 46.45 -16.75 46.2 -16.8 46.1 -16.85 45.75 -16.95 45.6 -17.0 45.35 -17.1 Q45.25 -17.1 45.25 -17.15 L45.2 -17.25 44.9 -17.35 44.85 -17.45 Q44.75 -17.45 44.75 -17.5 L44.5 -17.6 44.5 -17.65 44.4 -17.7 44.4 -17.85 44.4 -18.05 44.4 -18.35 44.4 -18.65 44.4 -18.9 44.4 -19.0 44.5 -19.05 44.6 -19.1 44.85 -19.15 44.85 -19.25 44.85 -19.3 44.9 -19.35 45.0 -19.4 45.2 -19.5 45.25 -19.6 45.35 -19.65 45.6 -19.75 45.85 -19.8 46.1 -19.9 46.3 -19.9 46.45 -20.0 46.6 -20.1 46.7 -20.15 46.95 -20.2 47.05 -20.25 47.3 -20.35 47.45 -20.35 47.8 -20.45 48.15 -20.5 48.4 -20.55 48.75 -20.65 49.4 -20.75 49.85 -20.8 50.25 -20.85 50.85 -20.85 51.7 -20.85 52.35 -20.85 52.9 -20.75 M73.25 -12.45 L73.25 -12.5 73.5 -12.6 73.7 -12.7 74.05 -12.7 74.35 -12.75 74.8 -12.85 75.2 -12.85 75.8 -12.85 76.5 -12.85 77.0 -12.8 77.5 -12.7 77.85 -12.7 78.0 -12.6 78.15 -12.5 78.35 -12.45 78.35 -12.4 78.45 -12.35 78.45 -12.25 78.45 -12.05 78.45 -11.75 78.45 -11.45 78.45 -11.3 78.6 -11.3 78.75 -11.2 78.85 -11.15 79.1 -11.1 79.2 -11.0 79.45 -11.0 79.55 -10.9 79.7 -10.8 79.85 -10.8 Q79.95 -10.7 80.05 -10.7 L80.05 -10.65 80.1 -10.55 80.3 -10.55 80.45 -10.45 80.45 -10.35 80.55 -10.3 80.55 -10.15 80.55 -10.0 80.55 -9.85 80.55 -9.7 80.45 -9.7 80.35 -9.6 80.3 -9.55 80.05 -9.45 79.85 -9.45 79.55 -9.4 79.2 -9.3 78.85 -9.25 78.45 -9.15 77.85 -9.1 77.5 -9.05 77.15 -8.95 76.75 -8.9 76.5 -8.85 76.05 -8.85 75.4 -8.85 74.95 -8.85 73.7 -8.85 73.25 -8.95 72.95 -9.0 Q72.75 -9.05 72.7 -9.1 L72.5 -9.15 72.4 -9.2 72.35 -9.3 72.35 -9.45 72.4 -9.55 72.5 -9.6 72.75 -9.65 73.1 -9.7 73.35 -9.75 73.7 -9.85 74.35 -10.0 74.95 -10.1 74.95 -10.2 Q74.85 -10.2 74.85 -10.25 L74.8 -10.3 74.55 -10.35 74.45 -10.4 74.2 -10.5 74.1 -10.55 73.95 -10.6 73.75 -10.65 73.6 -10.7 73.5 -10.8 73.25 -10.85 73.25 -10.95 73.2 -11.0 73.2 -11.15 73.2 -11.55 73.2 -11.95 73.2 -12.35 73.2 -12.4 73.25 -12.45 M100.6 -7.15 L100.35 -7.15 94.65 -7.25 94.0 -7.25 93.55 -7.35 93.25 -7.4 93.0 -7.45 92.8 -7.5 92.75 -7.6 Q92.65 -7.6 92.65 -7.65 L92.65 -7.75 92.65 -7.85 92.75 -7.9 92.8 -8.0 93.05 -8.0 93.4 -8.1 93.65 -8.2 94.0 -8.25 94.25 -8.25 94.65 -8.25 95.25 -8.3 101.2 -8.25 102.3 -8.25 102.45 -8.25 102.95 -8.2 110.3 -8.2 110.85 -8.1 111.35 -8.05 111.7 -8.0 111.85 -7.95 112.0 -7.85 112.2 -7.8 112.2 -7.7 112.25 -7.7 112.25 -7.6 112.2 -7.55 112.1 -7.45 112.0 -7.4 111.75 -7.35 111.6 -7.3 111.15 -7.25 110.9 -7.15 110.65 -7.15 109.65 -7.15 102.95 -7.15 101.6 -7.15 101.0 -7.15 100.6 -7.15 M-114.4 -7.25 L-114.7 -7.25 -115.4 -7.2 -115.8 -7.2 -117.1 -7.25 -117.5 -7.35 -117.85 -7.4 -118.1 -7.45 -118.3 -7.5 -118.35 -7.6 -118.45 -7.65 -118.45 -7.75 -118.45 -7.85 -118.35 -7.9 -118.3 -8.0 -118.0 -8.0 -117.7 -8.1 -117.45 -8.2 -117.1 -8.25 -116.65 -8.3 -116.0 -8.35 -115.4 -8.35 -98.9 -8.35 -98.2 -8.35 -97.7 -8.3 -97.2 -8.25 -96.85 -8.2 -96.7 -8.1 -96.55 -8.0 -96.35 -8.0 -96.35 -7.9 -96.3 -7.85 -96.3 -7.75 -96.35 -7.7 -96.45 -7.65 -96.55 -7.6 -96.8 -7.5 -96.95 -7.45 -97.4 -7.4 -97.65 -7.35 -97.9 -7.35 -98.9 -7.3 -114.15 -7.25 -114.4 -7.25 M-70.55 -12.45 L-70.75 -12.35 -70.9 -12.3 -70.9 -12.25 -71.0 -12.15 -71.0 -12.05 -70.75 -11.95 -70.3 -11.85 -69.9 -11.85 -69.7 -11.75 -69.45 -11.75 -69.35 -11.65 -69.05 -11.6 -68.8 -11.55 -68.45 -11.45 -68.35 -11.4 -68.1 -11.3 -68.0 -11.3 -67.95 -11.2 -67.95 -11.0 -67.95 -10.8 -67.95 -10.7 -68.0 -10.65 -68.0 -10.55 -68.2 -10.55 -68.35 -10.45 -68.55 -10.35 -68.85 -10.3 -69.2 -10.25 -69.55 -10.2 -69.9 -10.15 -70.15 -10.05 -70.45 -10.0 -70.75 -9.95 -71.4 -9.8 -72.4 -9.6 -72.65 -9.55 -72.95 -9.55 -73.25 -9.55 -73.95 -9.5 -74.55 -9.55 -75.2 -9.55 -75.65 -9.65 -75.95 -9.7 -76.25 -9.75 -76.4 -9.8 -76.5 -9.85 -76.55 -10.0 -76.55 -10.05 -76.55 -10.15 -76.55 -10.2 -76.5 -10.25 -76.4 -10.35 -76.25 -10.4 -75.95 -10.5 -75.65 -10.55 -74.95 -10.65 -74.05 -10.8 -73.7 -10.9 -73.85 -11.0 -74.1 -11.0 -74.35 -11.1 -74.8 -11.15 -75.15 -11.25 -75.4 -11.3 -75.55 -11.3 -75.7 -11.4 -75.8 -11.5 -76.05 -11.55 -76.15 -11.6 -76.4 -11.65 -76.5 -11.75 -76.55 -11.8 -76.55 -12.05 -76.55 -12.25 -76.55 -12.35 -76.5 -12.35 -76.5 -12.4 -76.25 -12.45 -76.15 -12.55 -76.05 -12.65 -76.05 -12.7 -75.8 -12.75 -75.7 -12.85 -75.7 -12.95 -75.65 -13.0 -75.55 -13.1 -75.3 -13.1 -75.3 -13.2 -75.2 -13.25 -75.15 -13.3 -74.85 -13.4 -74.55 -13.45 -74.3 -13.55 -73.95 -13.55 -73.6 -13.65 -73.25 -13.75 -72.65 -13.8 -72.25 -13.8 -72.0 -13.85 -71.55 -13.85 -71.0 -13.9 -70.3 -13.85 -69.8 -13.8 -69.3 -13.75 -68.95 -13.7 -68.8 -13.6 -68.6 -13.55 -68.45 -13.5 -68.45 -13.45 -68.35 -13.35 -68.35 -13.3 -68.45 -13.25 -68.55 -13.2 -68.6 -13.1 -68.85 -13.05 -69.05 -12.95 -69.35 -12.95 -69.7 -12.85 -70.05 -12.8 -70.15 -12.7 -70.2 -12.7 -70.3 -12.6 -70.55 -12.45 M-44.1 -20.2 L-44.5 -20.15 -44.9 -20.1 -45.2 -20.0 -45.25 -19.95 -45.5 -19.9 -45.7 -19.85 -45.75 -19.75 -46.0 -19.7 -46.2 -19.65 -46.35 -19.6 Q-46.45 -19.5 -46.55 -19.5 L-46.8 -19.45 -46.8 -19.3 -46.8 -19.2 -46.8 -19.05 -46.8 -18.75 -46.8 -18.6 -46.6 -18.55 -46.35 -18.5 -46.0 -18.45 -45.95 -18.4 -45.7 -18.3 -45.5 -18.2 -45.2 -18.2 -45.1 -18.1 -44.85 -18.05 -44.65 -17.95 -44.35 -17.95 -44.25 -17.85 -44.0 -17.8 -43.9 -17.7 -43.65 -17.65 -43.55 -17.6 -43.4 -17.55 -43.25 -17.45 -43.05 -17.4 -43.0 -17.35 -42.7 -17.3 -42.65 -17.2 -42.55 -17.1 -42.3 -17.0 -42.2 -16.95 -42.15 -16.9 -42.15 -16.8 -42.15 -16.55 -42.15 -16.35 -42.15 -16.05 -42.15 -15.9 -42.2 -15.8 -42.4 -15.7 -42.55 -15.65 -42.7 -15.55 -42.8 -15.5 -43.0 -15.4 -43.05 -15.4 -43.15 -15.3 -43.25 -15.25 -43.5 -15.2 -43.65 -15.1 -44.1 -15.05 -44.35 -15.0 -44.6 -15.0 -44.9 -14.95 -45.6 -14.95 -46.2 -14.95 -46.85 -15.0 -47.3 -15.05 -47.65 -15.1 -47.9 -15.2 -48.05 -15.25 -48.15 -15.3 -48.2 -15.4 -48.2 -15.5 -48.2 -15.6 -48.2 -15.85 -48.15 -15.9 -48.05 -15.95 -47.8 -16.05 -47.7 -16.05 -47.45 -16.15 -47.4 -16.25 -47.4 -16.4 -47.4 -16.5 -47.4 -16.65 -47.45 -16.7 -47.7 -16.75 -47.8 -16.8 -48.05 -16.85 -48.2 -16.95 -48.3 -17.05 -48.55 -17.1 -48.75 -17.15 -49.0 -17.25 -49.05 -17.35 -49.3 -17.35 -49.4 -17.45 -49.6 -17.5 -49.9 -17.55 -50.15 -17.6 -50.25 -17.65 -50.4 -17.75 -50.75 -17.8 -51.1 -17.9 -51.25 -17.95 -51.5 -18.0 -51.6 -18.05 -51.85 -18.15 -51.95 -18.2 -52.05 -18.25 -52.05 -18.45 -52.05 -18.8 -52.05 -19.2 -52.05 -19.5 -52.05 -19.65 -51.95 -19.75 Q-51.85 -19.75 -51.85 -19.8 L-51.6 -19.85 -51.5 -19.9 -51.25 -19.95 -51.2 -20.05 -51.0 -20.15 -50.75 -20.2 -50.7 -20.25 -50.4 -20.3 -50.25 -20.35 -50.15 -20.45 -49.9 -20.5 -49.75 -20.55 -49.6 -20.6 -49.4 -20.65 -49.3 -20.75 -49.0 -20.8 -48.65 -20.85 -48.3 -20.95 -47.7 -20.95 -47.3 -21.05 -47.05 -21.05 -46.6 -21.1 -46.0 -21.1 -45.35 -21.1 -44.85 -21.05 -44.35 -20.95 -44.0 -20.9 -43.8 -20.85 -43.65 -20.75 -43.5 -20.75 -43.5 -20.65 -43.4 -20.6 -43.4 -20.55 -43.5 -20.45 -43.55 -20.35 -43.65 -20.35 -43.9 -20.25 -44.1 -20.2 M-19.45 -25.35 L-19.45 -25.85 -19.35 -25.9 -19.35 -26.0 -19.1 -26.0 -18.95 -26.05 -18.6 -26.1 -18.25 -26.2 -17.85 -26.3 -17.45 -26.3 -16.85 -26.3 -16.4 -26.3 -15.75 -26.3 -15.25 -26.2 -14.7 -26.15 -14.4 -26.05 -14.2 -26.0 -14.05 -26.0 -13.85 -25.9 -13.85 -25.85 -13.8 -25.8 -13.8 -25.7 -13.85 -25.6 -13.95 -25.6 -14.05 -25.5 -14.2 -25.45 -14.2 -25.35 -14.2 -25.2 -14.2 -25.0 -14.2 -24.75 -14.2 -24.6 -13.95 -24.5 -13.85 -24.4 -13.6 -24.35 -13.55 -24.3 -13.45 -24.25 -13.35 -24.2 -13.35 -24.15 -13.35 -24.05 -13.35 -23.95 -13.35 -23.85 -13.35 -23.75 -13.2 -23.65 -13.05 -23.65 -13.05 -23.55 -12.95 -23.5 -12.95 -23.45 -12.75 -23.35 -12.7 -23.3 -12.6 -23.2 -12.5 -23.2 -12.25 -23.05 -12.1 -22.9 -12.1 -22.8 -12.1 -22.7 -12.1 -22.6 -12.1 -22.45 -12.1 -22.4 -12.2 -22.35 -12.25 -22.25 -12.35 -22.2 -12.6 -22.1 -12.75 -22.05 -13.1 -22.05 -13.45 -21.95 -13.8 -21.9 -14.2 -21.8 -14.45 -21.8 -14.9 -21.75 -15.55 -21.75 -16.15 -21.75 -16.85 -21.8 -17.25 -21.9 -17.6 -21.95 -17.85 -22.0 -18.0 -22.05 -18.1 -22.1 -18.2 -22.2 -18.2 -22.4 -18.1 -22.55 -18.0 -22.55 -17.85 -22.6 -17.7 -22.65 -17.75 -22.75 -17.75 -22.85 -17.75 -22.9 -17.85 -22.95 -18.1 -23.05 -18.2 -23.15 -18.25 -23.2 -18.55 -23.3 -18.6 -23.4 -18.6 -23.5 -18.6 -23.6 -18.6 -23.65 -18.6 -23.75 -18.6 -23.8 -18.6 -23.9 -18.7 -24.0 -18.95 -24.05 -19.05 -24.1 -19.3 -24.15 -19.35 -24.25 -19.45 -24.3 -19.45 -24.6 -19.45 -24.9 -19.45 -25.35" fill="#cccccc" fill-rule="evenodd" stroke="none"/>
  </g>
</svg>
