<?xml version="1.0" encoding="UTF-8" standalone="no"?>
<svg xmlns:ffdec="https://www.free-decompiler.com/flash" xmlns:xlink="http://www.w3.org/1999/xlink" ffdec:objectType="shape" height="14.5px" width="221.85px" xmlns="http://www.w3.org/2000/svg">
  <g transform="matrix(1.0, 0.0, 0.0, 1.0, 114.55, 26.7)">
    <path d="M74.5 -24.95 L74.7 -24.75 74.8 -24.55 74.9 -24.35 75.0 -24.2 75.0 -24.0 75.05 -23.8 75.05 -23.45 75.05 -23.05 75.05 -22.5 75.05 -21.75 75.05 -21.2 75.15 -21.15 75.4 -21.2 76.0 -21.25 77.15 -21.25 77.45 -21.1 77.75 -20.95 77.95 -20.75 78.15 -20.55 78.3 -20.35 78.5 -20.2 78.7 -20.0 78.8 -19.8 78.9 -19.6 79.0 -19.45 79.2 -19.25 79.3 -19.05 79.4 -18.85 79.5 -18.7 79.5 -18.5 79.55 -18.3 79.55 -18.1 79.5 -17.95 79.45 -17.75 79.4 -17.55 79.25 -17.35 79.15 -17.2 78.9 -17.0 78.75 -16.85 78.65 -16.8 78.4 -16.75 78.0 -16.7 77.4 -16.75 77.0 -16.85 76.75 -17.05 76.55 -17.25 76.4 -17.45 76.05 -17.55 75.8 -17.35 75.55 -17.2 75.2 -17.0 75.0 -16.8 74.7 -16.65 74.4 -16.5 74.0 -16.45 73.5 -16.45 73.15 -16.5 72.75 -16.6 72.5 -16.8 72.3 -17.0 72.15 -17.2 72.05 -17.35 72.0 -17.55 71.95 -17.75 71.95 -18.85 71.95 -20.75 71.95 -22.6 71.95 -23.35 71.95 -23.95 72.0 -24.1 72.0 -24.3 72.15 -24.5 72.25 -24.7 72.45 -24.85 72.65 -25.05 72.9 -25.2 73.15 -25.25 73.5 -25.3 73.9 -25.25 74.2 -25.1 74.5 -24.95 M50.2 -26.65 L50.35 -26.6 50.5 -26.5 50.6 -26.4 50.7 -26.3 50.75 -26.2 50.85 -26.15 50.95 -26.05 51.1 -25.95 51.25 -25.9 51.35 -25.95 51.4 -26.05 51.5 -26.15 51.6 -26.25 51.7 -26.35 51.95 -26.45 52.35 -26.5 52.95 -26.5 53.1 -26.45 53.25 -26.35 53.35 -26.25 53.4 -26.2 53.5 -26.15 53.7 -26.1 54.35 -26.05 54.5 -26.0 54.7 -25.95 54.95 -25.95 55.15 -26.0 55.35 -26.05 55.5 -26.0 55.7 -25.95 55.85 -25.85 55.95 -25.75 56.0 -25.65 56.0 -25.55 56.1 -25.45 56.1 -25.4 56.1 -25.3 56.1 -25.2 56.1 -25.1 56.1 -25.0 56.1 -24.9 56.1 -24.8 56.05 -24.7 56.0 -24.65 55.95 -24.55 55.85 -24.45 55.75 -24.35 55.65 -24.3 55.5 -24.25 54.6 -24.25 54.2 -24.3 54.1 -24.4 53.35 -24.5 52.95 -24.55 52.85 -24.65 52.8 -24.65 52.6 -24.7 52.5 -24.65 52.35 -24.55 52.15 -24.45 52.05 -24.4 51.95 -24.3 51.85 -24.2 51.8 -24.2 51.5 -24.15 50.8 -24.2 50.6 -24.2 50.45 -24.3 50.35 -24.4 50.25 -24.5 50.15 -24.6 49.95 -24.8 49.8 -24.85 49.75 -24.75 49.7 -24.65 49.6 -24.55 49.45 -24.5 49.25 -24.4 49.1 -24.4 48.9 -24.4 48.7 -24.45 48.6 -24.55 48.5 -24.65 48.4 -24.75 48.35 -24.85 48.35 -24.95 48.3 -25.05 48.3 -25.15 48.3 -25.2 48.3 -25.3 48.3 -25.4 48.3 -25.5 48.3 -25.6 48.3 -25.7 48.3 -25.8 48.35 -25.9 48.35 -25.95 48.4 -26.05 48.5 -26.15 48.6 -26.25 48.7 -26.35 48.75 -26.45 48.85 -26.55 48.95 -26.6 49.05 -26.6 49.15 -26.65 49.35 -26.65 49.35 -26.7 50.0 -26.7 50.2 -26.65 M100.75 -18.55 L101.15 -18.5 101.45 -18.35 101.75 -18.2 101.95 -18.0 102.05 -17.8 102.3 -17.6 102.5 -17.45 102.7 -17.25 102.9 -17.05 103.25 -16.7 103.3 -16.5 103.45 -16.3 103.65 -16.3 103.8 -16.5 104.0 -16.7 104.25 -16.85 104.65 -17.0 105.0 -17.05 105.5 -17.05 105.9 -17.0 106.2 -16.85 106.5 -16.7 106.7 -16.5 106.8 -16.3 106.9 -16.1 107.0 -15.95 107.05 -15.75 107.2 -15.55 107.25 -15.35 107.3 -15.2 107.3 -15.0 107.3 -14.8 107.3 -14.6 107.3 -14.45 107.3 -14.25 107.3 -14.05 107.3 -13.85 107.3 -13.7 107.25 -13.5 107.25 -13.3 107.15 -13.1 107.05 -12.95 106.95 -12.75 106.75 -12.55 106.45 -12.4 106.15 -12.25 105.75 -12.2 105.4 -12.25 105.0 -12.35 104.75 -12.55 104.55 -12.7 104.4 -12.55 104.15 -12.5 103.75 -12.45 103.5 -12.45 103.15 -12.5 102.75 -12.6 102.5 -12.8 102.3 -13.0 102.15 -13.2 101.75 -13.35 101.5 -13.55 101.3 -13.75 101.15 -13.95 100.95 -14.1 100.8 -14.3 100.75 -14.5 100.65 -14.7 100.45 -14.85 100.3 -15.05 100.2 -15.25 99.9 -15.45 99.5 -15.6 99.25 -15.8 99.05 -16.0 98.9 -16.2 98.8 -16.35 98.75 -16.55 98.7 -16.75 98.7 -16.95 98.7 -17.1 98.7 -17.3 98.75 -17.5 98.8 -17.7 98.95 -17.85 99.15 -18.05 99.3 -18.25 99.5 -18.35 99.65 -18.45 99.9 -18.5 100.25 -18.55 100.75 -18.55 M-108.35 -16.3 L-108.2 -16.5 -108.0 -16.6 -107.85 -16.7 -107.6 -16.75 -107.25 -16.8 -106.5 -16.8 -106.1 -16.75 -105.8 -16.6 -105.5 -16.45 -105.3 -16.25 -105.1 -16.05 -105.0 -15.85 -104.75 -15.7 -104.55 -15.5 -104.45 -15.3 -104.35 -15.1 -104.25 -14.95 -104.25 -14.75 -104.2 -14.55 -104.2 -14.35 -104.2 -14.2 -104.25 -14.0 -104.25 -13.8 -104.35 -13.6 -104.45 -13.45 -104.55 -13.25 -104.75 -13.05 -105.05 -12.9 -105.35 -12.75 -105.75 -12.7 -106.1 -12.75 -106.5 -12.85 -106.7 -13.0 -106.85 -13.05 -107.3 -13.0 -107.5 -12.85 -110.75 -12.6 -113.75 -13.1 -114.0 -13.3 -114.2 -13.5 -114.35 -13.7 -114.45 -13.85 -114.5 -14.05 -114.55 -14.25 -114.55 -14.45 -114.55 -14.6 -114.55 -14.8 -114.5 -15.0 -114.45 -15.2 -114.3 -15.35 -114.1 -15.55 -113.95 -15.75 -113.75 -15.85 -113.6 -15.9 -113.0 -16.0 -112.05 -16.0 -111.2 -15.85 -108.85 -15.95 -108.55 -16.1 -108.35 -16.3 M-50.65 -26.4 L-50.55 -26.45 -50.45 -26.45 -50.35 -26.5 -50.15 -26.55 -49.8 -26.6 -49.6 -26.65 -49.4 -26.65 -49.4 -26.7 -48.15 -26.65 -47.95 -26.65 -47.8 -26.6 -46.15 -26.5 -45.95 -26.5 -45.8 -26.45 -45.65 -26.35 -45.5 -26.25 -45.4 -26.15 -45.35 -26.05 -45.25 -26.0 -45.1 -26.0 -44.9 -26.05 -44.7 -26.0 -44.55 -25.95 -44.4 -25.85 -44.3 -25.75 -44.25 -25.65 -44.2 -25.55 -44.15 -25.45 -44.15 -25.4 -44.15 -25.3 -44.15 -25.2 -44.15 -25.1 -44.15 -25.0 -44.2 -24.9 -44.2 -24.8 -44.3 -24.7 -44.35 -24.65 -44.45 -24.55 -44.6 -24.45 -44.75 -24.35 -44.85 -24.3 -44.95 -24.25 -45.65 -24.25 -45.85 -24.25 -46.05 -24.3 -46.15 -24.4 -46.25 -24.5 -46.35 -24.6 -46.4 -24.7 -46.45 -24.8 -46.55 -24.9 -46.65 -24.95 -48.0 -25.0 -48.4 -25.05 -49.15 -25.05 -49.3 -25.0 -49.5 -25.0 -50.35 -25.0 -50.55 -25.05 -50.65 -25.15 -50.75 -25.25 -50.85 -25.35 -50.9 -25.45 -50.9 -25.55 -50.95 -25.65 -50.95 -25.7 -50.95 -25.8 -50.95 -25.9 -50.9 -26.0 -50.9 -26.1 -50.8 -26.2 -50.7 -26.3 -50.65 -26.4 M-74.9 -22.35 L-74.5 -22.3 -74.1 -22.25 -73.8 -22.1 -73.5 -21.95 -73.3 -21.75 -73.2 -21.55 -73.1 -21.35 -73.0 -21.2 -73.0 -21.0 -72.95 -20.8 -72.95 -20.6 -72.95 -20.45 -73.0 -20.25 -73.0 -20.05 -73.1 -19.85 -73.2 -19.7 -73.3 -19.5 -73.5 -19.3 -73.75 -19.1 -73.85 -18.95 -74.1 -18.75 -74.25 -18.6 -74.4 -18.55 -74.6 -18.5 -75.0 -18.45 -75.85 -18.55 -76.25 -18.6 -76.5 -18.8 -76.7 -19.0 -76.85 -19.2 -77.05 -19.35 -77.3 -19.5 -77.5 -19.3 -77.8 -19.15 -78.1 -19.0 -78.5 -18.95 -79.0 -18.95 -79.35 -19.0 -79.75 -19.1 -80.0 -19.3 -80.2 -19.5 -80.35 -19.7 -80.45 -19.85 -80.5 -20.05 -80.55 -20.25 -80.55 -20.45 -80.55 -20.6 -80.55 -20.8 -80.5 -21.0 -80.45 -21.2 -80.3 -21.35 -80.1 -21.55 -79.95 -21.75 -79.6 -21.95 -79.3 -22.1 -79.1 -22.3 -78.95 -22.5 -78.75 -22.7 -78.55 -22.85 -78.35 -23.05 -78.2 -23.25 -78.0 -23.35 -77.85 -23.45 -77.6 -23.5 -77.25 -23.55 -76.75 -23.55 -76.35 -23.5 -76.05 -23.35 -75.75 -23.2 -75.55 -23.0 -75.35 -22.8 -75.2 -22.6 -75.0 -22.45 -74.9 -22.35" fill="#cccccc" fill-rule="evenodd" stroke="none"/>
  </g>
</svg>
