<?xml version="1.0" encoding="UTF-8" standalone="no"?>
<svg xmlns:ffdec="https://www.free-decompiler.com/flash" xmlns:xlink="http://www.w3.org/1999/xlink" ffdec:objectType="shape" height="5.65px" width="218.6px" xmlns="http://www.w3.org/2000/svg">
  <g transform="matrix(1.0, 0.0, 0.0, 1.0, 114.3, 25.3)">
    <path d="M102.75 -25.3 L103.15 -25.25 103.45 -25.1 103.75 -24.95 103.95 -24.75 104.05 -24.55 104.15 -24.35 104.25 -24.2 104.25 -24.0 104.3 -23.8 104.3 -23.6 104.3 -23.45 104.3 -23.25 104.3 -23.05 104.25 -22.85 104.2 -22.7 104.05 -22.5 104.0 -22.3 103.8 -22.1 103.7 -21.95 103.55 -21.75 103.5 -21.55 103.3 -21.35 103.15 -21.2 102.95 -21.0 102.55 -20.65 102.15 -20.3 101.5 -20.25 Q98.05 -20.2 94.65 -20.3 L94.25 -20.35 94.0 -20.55 93.8 -20.75 93.65 -20.95 93.55 -21.1 93.5 -21.3 93.45 -21.5 93.45 -21.7 93.45 -21.85 93.45 -22.05 93.5 -22.25 93.55 -22.45 93.7 -22.6 93.9 -22.8 94.05 -23.0 94.25 -23.1 94.65 -23.2 100.75 -23.45 100.95 -23.6 101.15 -23.8 101.2 -24.0 101.25 -24.2 101.3 -24.35 101.4 -24.55 101.55 -24.75 101.75 -24.95 102.0 -25.1 102.4 -25.25 102.75 -25.3 M-106.0 -21.7 L-106.0 -21.5 -105.95 -21.3 -105.95 -21.1 -106.0 -20.95 -106.05 -20.75 -106.1 -20.55 -106.25 -20.35 -106.35 -20.2 -106.6 -20.0 -106.75 -19.85 -107.15 -19.75 -109.85 -19.8 -111.0 -20.1 -111.25 -20.3 -111.5 -20.5 -111.85 -20.7 -112.05 -20.85 -112.25 -21.05 -112.5 -21.25 -112.75 -21.4 -112.8 -21.45 -113.1 -21.5 -113.5 -21.6 -113.75 -21.8 -113.95 -22.0 -114.1 -22.2 -114.2 -22.35 -114.25 -22.55 -114.3 -22.75 -114.3 -22.95 -114.3 -23.1 -114.3 -23.3 -114.25 -23.5 -114.2 -23.7 -114.05 -23.85 -113.85 -24.05 -113.7 -24.25 -113.5 -24.35 -113.35 -24.45 -113.1 -24.5 -112.75 -24.55 -112.0 -24.55 -111.6 -24.5 -111.3 -24.35 -110.65 -23.95 -110.2 -23.65 -109.6 -23.25 -109.45 -23.1 -109.35 -23.1 -109.1 -23.0 -108.9 -22.95 -108.75 -22.85 -107.5 -22.8 -107.1 -22.75 -106.8 -22.6 -106.5 -22.45 -106.3 -22.25 -106.2 -22.05 -106.1 -21.85 -106.0 -21.7" fill="#cccccc" fill-rule="evenodd" stroke="none"/>
  </g>
</svg>
