<?xml version="1.0" encoding="UTF-8" standalone="no"?>
<svg xmlns:ffdec="https://www.free-decompiler.com/flash" xmlns:xlink="http://www.w3.org/1999/xlink" ffdec:objectType="shape" height="6.5px" width="219.5px" xmlns="http://www.w3.org/2000/svg">
  <g transform="matrix(1.0, 0.0, 0.0, 1.0, 115.75, 30.25)">
    <path d="M102.5 -29.75 L103.1 -29.5 103.5 -29.15 103.75 -28.75 103.75 -28.4 103.75 -28.0 103.6 -27.65 103.5 -27.25 103.25 -26.9 103.1 -26.5 102.85 -26.15 102.75 -25.75 102.5 -25.4 102.25 -25.0 101.85 -24.65 101.5 -24.25 101.25 -24.0 100.95 -23.9 100.5 -23.75 99.0 -23.75 98.25 -24.0 98.0 -24.25 97.25 -24.5 96.85 -24.9 96.6 -25.25 96.1 -25.65 95.25 -26.0 94.85 -26.4 94.5 -26.75 94.25 -27.15 94.25 -27.5 94.25 -27.9 94.5 -28.25 94.75 -28.5 95.0 -28.6 95.5 -28.75 96.0 -28.75 96.6 -28.5 97.0 -28.25 97.6 -28.0 98.0 -27.75 98.6 -27.5 99.0 -27.15 99.25 -26.75 100.0 -26.75 100.25 -27.15 100.25 -27.5 100.6 -27.9 101.0 -28.25 101.25 -28.65 101.25 -29.0 101.6 -29.4 102.0 -29.65 102.45 -29.7 102.5 -29.75 M-115.65 -28.4 L-115.75 -28.75 -115.75 -29.15 -115.75 -29.5 -115.4 -29.9 -115.0 -30.15 -114.5 -30.2 -114.5 -30.25 -108.0 -30.25 -107.4 -30.0 -107.0 -29.75 -106.4 -29.5 -104.5 -29.25 -103.9 -29.0 -103.5 -28.65 -103.25 -28.25 -103.25 -27.9 -103.4 -27.5 -103.65 -27.15 -104.0 -26.9 -104.5 -26.75 -107.0 -26.75 -107.75 -27.0 -108.0 -27.25 -108.75 -27.5 -114.5 -27.75 -115.25 -28.0 -115.65 -28.4" fill="#cccccc" fill-rule="evenodd" stroke="none"/>
  </g>
</svg>
