<?xml version="1.0" encoding="UTF-8" standalone="no"?>
<svg xmlns:ffdec="https://www.free-decompiler.com/flash" xmlns:xlink="http://www.w3.org/1999/xlink" ffdec:objectType="shape" height="2.35px" width="20.35px" xmlns="http://www.w3.org/2000/svg">
  <g transform="matrix(1.0, 0.0, 0.0, 1.0, 11.65, -1.3)">
    <path d="M5.05 1.3 L6.85 1.3 6.9 1.4 8.05 2.85 8.7 3.6 8.7 3.65 4.25 3.65 4.25 3.2 Q4.25 2.85 4.55 2.55 L4.55 2.5 4.3 2.0 Q4.3 1.5 4.55 1.4 L5.05 1.3" fill="#8300ae" fill-rule="evenodd" stroke="none"/>
    <path d="M5.05 1.3 L4.55 1.4 Q4.3 1.5 4.3 2.0 L4.55 2.5 4.55 2.55 Q4.25 2.85 4.25 3.2 L4.25 3.65 -6.15 3.6 -6.2 3.65 -7.2 3.65 -7.2 3.55 Q-7.2 3.35 -7.35 3.1 L-7.3 2.85 -7.35 2.4 -7.8 2.05 Q-7.8 1.85 -7.95 1.6 L-8.35 1.3 5.05 1.3" fill="#75009b" fill-rule="evenodd" stroke="none"/>
    <path d="M-7.2 3.65 L-11.65 3.65 -11.65 3.35 -10.0 1.75 -9.65 1.3 -8.35 1.3 -7.95 1.6 Q-7.8 1.85 -7.8 2.05 L-7.35 2.4 -7.3 2.85 -7.35 3.1 Q-7.2 3.35 -7.2 3.55 L-7.2 3.65" fill="#660088" fill-rule="evenodd" stroke="none"/>
  </g>
</svg>
