<?xml version="1.0" encoding="UTF-8" standalone="no"?>
<svg xmlns:ffdec="https://www.free-decompiler.com/flash" xmlns:xlink="http://www.w3.org/1999/xlink" ffdec:objectType="shape" height="13.3px" width="13.0px" xmlns="http://www.w3.org/2000/svg">
  <g transform="matrix(1.0, 0.0, 0.0, 1.0, 6.3, 6.55)">
    <path d="M0.55 -4.5 L0.7 -4.4 0.55 -4.3 0.45 -4.2 0.35 -4.15 0.35 -4.05 0.3 -3.95 0.3 -3.85 0.25 -3.75 0.25 -3.65 0.25 -3.55 0.3 -3.45 0.35 -3.4 0.4 -3.3 0.55 -3.2 0.45 -3.2 0.25 -3.1 0.1 -3.0 -0.05 -2.9 -0.15 -2.8 -0.2 -2.7 -0.25 -2.65 -0.25 -2.55 -0.25 -2.45 -0.2 -2.35 -0.2 -2.25 -0.15 -2.2 -0.15 -2.15 0.0 -2.05 0.25 -2.0 0.5 -2.05 0.6 -2.15 0.65 -2.15 0.7 -2.05 0.85 -1.95 1.05 -1.9 1.1 -1.8 1.15 -1.7 1.2 -1.65 1.3 -1.55 1.35 -1.45 1.45 -1.35 1.55 -1.25 1.6 -1.15 1.6 -1.05 1.6 -0.95 1.6 -0.8 1.55 -0.65 1.5 -0.15 Q1.25 1.45 0.65 1.7 L0.55 1.7 0.3 2.15 0.2 2.25 0.0 2.25 -0.2 2.3 -0.25 2.3 -0.4 2.35 -0.6 2.35 -0.7 2.45 -0.85 2.55 -1.0 2.6 -1.0 2.55 -1.05 2.45 -1.1 2.35 -1.15 2.25 -1.3 2.15 -1.45 2.05 -1.65 2.0 -1.65 2.05 -1.7 1.95 -1.85 1.85 -1.9 1.75 -2.0 1.7 -1.5 1.0 -0.95 -0.15 -0.9 -0.3 Q-0.65 -0.85 -0.55 -1.75 L-0.5 -2.05 -0.5 -2.25 -0.5 -3.05 -0.5 -3.25 -1.65 -3.05 -2.55 -2.4 -2.75 -2.25 -2.8 -2.2 -3.0 -1.9 -3.65 -0.3 -3.6 -0.15 -3.15 1.95 -3.15 2.2 -3.0 2.4 -2.9 2.4 -2.85 2.5 -2.8 2.6 -2.65 2.7 -2.5 2.8 -2.45 2.8 -2.55 2.85 -2.6 2.95 -2.7 3.05 -2.75 3.15 -2.8 3.15 -2.85 3.2 -2.9 3.25 -2.95 3.35 -2.95 3.45 -2.95 3.5 -3.25 3.1 -3.65 2.55 -3.65 2.5 -4.45 0.45 -4.5 0.35 -4.5 0.25 -4.5 0.2 -4.5 0.0 -4.5 -0.15 -4.15 -1.6 Q-3.45 -2.8 -1.55 -4.3 L0.05 -4.55 0.55 -4.5 M-1.65 3.35 L-1.65 3.45 -1.65 3.55 -1.65 3.65 -1.8 3.75 -1.85 3.8 -1.85 3.75 -1.8 3.65 -1.75 3.55 -1.7 3.45 -1.65 3.35" fill="#ffcc00" fill-rule="evenodd" stroke="none"/>
    <path d="M1.0 -4.45 L0.8 -4.45 0.7 -4.4 0.55 -4.5 1.0 -4.45 M-2.0 1.7 L-2.05 1.65 -2.25 1.6 -2.5 1.6 -2.75 1.65 -2.9 1.75 -2.95 1.85 -2.95 1.95 -3.0 2.05 -3.0 2.1 -3.0 2.2 -2.95 2.3 -2.9 2.4 -3.0 2.4 -3.15 2.2 -3.15 1.95 -3.6 -0.15 -3.65 -0.3 -3.0 -1.9 -2.8 -2.2 -2.75 -2.25 -2.55 -2.4 -1.65 -3.05 -0.5 -3.25 -0.5 -3.05 -0.5 -2.25 -0.5 -2.05 -0.55 -1.75 Q-0.65 -0.85 -0.9 -0.3 L-0.95 -0.15 -1.5 1.0 -2.0 1.7 M1.4 -4.3 L1.35 -4.35 1.5 -4.3 1.4 -4.3 M1.6 -4.25 L3.35 -2.8 3.0 -3.1 2.45 -3.7 1.85 -4.1 1.6 -4.25 M3.5 2.15 L3.6 2.2 3.5 2.4 3.35 2.45 3.45 2.2 3.5 2.15" fill="#ffcc33" fill-rule="evenodd" stroke="none"/>
    <path d="M0.7 -4.4 L0.8 -4.45 1.0 -4.45 1.35 -4.35 1.4 -4.3 1.45 -4.25 1.5 -4.15 1.55 -4.05 1.6 -3.95 1.6 -3.9 1.6 -3.8 1.65 -3.7 1.7 -3.6 1.7 -3.5 1.75 -3.4 1.75 -3.3 1.75 -3.2 1.8 -3.2 1.95 -3.1 2.0 -3.0 2.05 -2.9 2.15 -2.8 2.2 -2.7 2.3 -2.65 2.35 -2.55 2.4 -2.45 2.45 -2.35 2.45 -2.3 2.5 -2.25 2.5 -2.2 2.6 -2.15 2.7 -2.05 2.75 -1.95 2.8 -1.85 2.85 -1.75 2.85 -1.65 2.9 -1.55 2.95 -1.45 2.95 -1.4 2.95 -1.3 3.0 -1.2 3.0 -1.1 3.0 -1.0 3.0 -0.9 3.0 -0.85 3.05 -0.75 3.1 -0.65 3.1 -0.55 3.2 -0.45 3.2 -0.4 3.25 -0.3 3.25 -0.2 3.25 -0.1 3.25 0.0 3.25 0.1 3.25 0.2 3.25 0.3 3.25 0.35 3.25 0.45 3.25 0.55 3.25 0.65 3.25 0.75 3.25 0.85 3.25 0.95 3.25 1.05 3.25 1.1 3.25 1.2 3.25 1.25 3.3 1.35 3.35 1.45 3.35 1.55 3.35 1.6 3.3 1.7 3.3 1.8 3.25 1.9 3.2 2.0 3.15 2.1 3.1 2.2 3.05 2.3 3.05 2.35 2.95 2.45 2.95 2.55 2.85 2.65 2.85 2.75 2.8 2.85 2.7 2.95 2.6 3.05 2.55 3.1 2.45 3.2 2.35 3.3 2.25 3.4 2.15 3.5 2.05 3.6 1.95 3.7 1.8 3.8 1.7 3.85 1.7 3.95 1.6 4.05 1.55 4.15 1.45 4.2 1.25 4.25 1.1 4.25 0.85 4.2 0.85 4.25 0.85 4.35 0.85 4.45 0.85 4.55 0.85 4.6 0.85 4.7 -1.05 4.7 -1.25 4.65 -1.4 4.6 -1.5 4.55 -2.95 3.5 -2.95 3.45 -2.95 3.35 -2.9 3.25 -2.85 3.2 -2.8 3.15 -2.75 3.15 -2.7 3.05 -2.6 2.95 -2.55 2.85 -2.45 2.8 -2.5 2.8 -2.65 2.7 -2.8 2.6 -2.85 2.5 -2.9 2.4 -2.95 2.3 -3.0 2.2 -3.0 2.1 -3.0 2.05 -2.95 1.95 -2.95 1.85 -2.9 1.75 -2.75 1.65 -2.5 1.6 -2.25 1.6 -2.05 1.65 -2.0 1.7 -1.9 1.75 -1.85 1.85 -1.7 1.95 -1.65 2.05 -1.65 2.0 -1.45 2.05 -1.3 2.15 -1.15 2.25 -1.1 2.35 -1.05 2.45 -1.0 2.55 -1.0 2.6 -0.85 2.55 -0.7 2.45 -0.6 2.35 -0.4 2.35 -0.25 2.3 -0.2 2.3 0.0 2.25 0.2 2.25 0.3 2.25 0.35 2.25 0.5 2.15 0.6 2.05 0.65 2.0 0.65 1.95 0.8 1.85 0.85 1.8 0.95 1.7 1.05 1.6 1.05 1.5 1.1 1.4 1.1 1.3 1.15 1.2 1.2 1.1 1.3 1.05 1.3 0.95 1.35 0.85 1.4 0.75 1.45 0.65 1.5 0.55 1.5 0.45 1.5 0.35 1.55 0.3 1.55 0.2 1.55 0.1 1.6 0.0 1.6 -0.1 1.6 -0.2 1.6 -0.3 1.6 -0.4 1.7 -0.45 1.75 -0.55 1.7 -0.6 1.65 -0.7 1.6 -0.8 1.6 -0.95 1.6 -1.05 1.6 -1.15 1.55 -1.25 1.45 -1.35 1.35 -1.45 1.3 -1.55 1.2 -1.65 1.15 -1.7 1.1 -1.8 1.05 -1.9 0.85 -1.95 0.7 -2.05 0.65 -2.15 0.6 -2.15 0.5 -2.05 0.25 -2.0 0.0 -2.05 -0.15 -2.15 -0.15 -2.2 -0.2 -2.25 -0.2 -2.35 -0.25 -2.45 -0.25 -2.55 -0.25 -2.65 -0.2 -2.7 -0.15 -2.8 -0.05 -2.9 0.1 -3.0 0.25 -3.1 0.45 -3.2 0.55 -3.2 0.4 -3.3 0.35 -3.4 0.3 -3.45 0.25 -3.55 0.25 -3.65 0.25 -3.75 0.3 -3.85 0.3 -3.95 0.35 -4.05 0.35 -4.15 0.45 -4.2 0.55 -4.3 0.7 -4.4 M-0.3 4.15 L-0.5 4.25 -0.5 4.3 -0.4 4.3 -0.4 4.25 -0.2 4.3 -0.15 4.35 -0.15 4.3 -0.15 4.2 -0.15 4.15 -0.3 4.15 M-1.65 3.35 L-1.7 3.45 -1.75 3.55 -1.8 3.65 -1.85 3.75 -1.85 3.8 -1.8 3.75 -1.65 3.65 -1.65 3.55 -1.65 3.45 -1.65 3.35" fill="#dfb300" fill-rule="evenodd" stroke="none"/>
    <path d="M2.35 -6.35 L2.45 -6.3 2.6 -6.25 2.8 -6.15 2.85 -6.15 3.0 -6.05 3.2 -6.0 3.4 -5.9 3.55 -5.8 3.7 -5.75 3.75 -5.7 3.8 -5.65 3.85 -5.55 4.0 -5.45 4.15 -5.35 4.25 -5.25 4.3 -5.15 4.35 -5.05 4.4 -5.0 4.45 -4.9 4.55 -4.8 4.6 -4.7 4.7 -4.6 4.75 -4.5 4.8 -4.4 4.95 -4.3 5.0 -4.2 5.1 -4.1 5.1 -4.0 5.2 -3.9 5.25 -3.8 5.35 -3.75 5.4 -3.65 5.45 -3.55 5.5 -3.45 5.55 -3.35 5.6 -3.25 5.6 -3.15 5.7 -3.05 5.75 -3.0 5.8 -2.9 5.85 -2.8 5.95 -2.7 6.0 -2.6 6.0 -2.5 6.05 -2.4 6.1 -2.3 6.15 -2.25 6.2 -2.15 6.25 -2.05 6.35 -1.95 6.4 -1.85 6.45 -1.75 6.5 -1.65 6.55 -1.55 6.6 -1.5 6.65 -1.4 6.7 -1.3 6.7 -1.2 6.7 -1.1 6.7 -1.0 6.7 -0.9 6.7 -0.8 6.7 -0.75 6.7 -0.65 6.7 -0.55 6.7 -0.45 6.7 -0.35 6.7 -0.25 6.7 -0.15 6.7 -0.05 6.7 0.0 6.7 0.1 6.7 0.2 6.7 0.3 6.7 0.4 6.7 0.5 6.7 0.6 6.7 0.7 6.7 0.75 6.7 0.85 6.7 0.95 6.7 1.05 6.65 1.15 6.6 1.25 6.6 1.35 6.5 1.45 6.45 1.5 6.45 1.6 6.45 1.7 6.45 1.8 6.4 1.9 6.35 2.0 6.35 2.1 6.25 2.2 6.2 2.25 6.2 2.35 6.2 2.45 6.15 2.55 6.1 2.65 6.1 2.75 6.0 2.85 5.95 2.95 5.9 3.0 5.85 3.1 5.75 3.2 5.7 3.3 5.65 3.4 5.6 3.5 5.55 3.6 5.5 3.7 5.45 3.75 5.4 3.85 5.35 3.95 5.3 4.05 5.25 4.15 5.2 4.25 5.1 4.35 5.05 4.45 4.95 4.5 4.85 4.6 4.75 4.7 4.65 4.8 4.5 4.9 4.4 5.0 4.25 5.1 4.1 5.2 3.95 5.25 3.9 5.3 3.95 5.35 3.8 5.45 3.7 5.55 3.65 5.65 3.6 5.75 3.5 5.85 3.45 5.95 3.35 6.0 3.2 6.1 3.0 6.2 2.9 6.3 2.75 6.4 2.6 6.5 2.4 6.55 2.25 6.6 2.2 6.6 2.1 6.7 1.9 6.75 1.7 6.75 -0.35 6.75 -0.55 6.75 -0.65 6.7 -1.25 6.7 -1.45 6.65 -1.65 6.6 -1.75 6.5 -1.8 6.5 -2.0 6.45 -2.25 6.35 -2.4 6.25 -2.75 6.25 -2.95 6.25 -3.15 6.2 -3.4 6.1 -3.55 6.0 -3.7 5.9 -3.8 5.8 -3.9 5.7 -4.0 5.6 -4.05 5.5 -4.15 5.45 -4.25 5.35 -4.35 5.25 -4.45 5.15 -4.5 5.05 -4.5 4.95 -4.55 4.85 -4.75 4.75 -4.8 4.7 -4.9 4.6 -5.0 4.5 -5.0 4.4 -5.05 4.3 -5.15 4.2 -5.2 4.1 -5.25 4.0 -5.25 3.95 -5.3 3.85 -5.35 3.75 -5.45 3.65 -5.5 3.55 -5.5 3.45 -5.55 3.35 -5.6 3.25 -5.65 3.2 -5.75 3.1 -5.75 3.0 -5.8 2.9 -5.8 2.8 -5.8 2.7 -5.8 2.6 -5.85 2.5 -5.85 2.45 -5.9 2.35 -5.9 2.25 -5.9 2.15 -5.95 2.05 -6.0 1.95 -6.05 1.85 -6.1 1.75 -6.1 1.7 -6.15 1.6 -6.15 1.5 -6.15 1.4 -6.15 1.3 -6.15 1.2 -6.2 1.1 -6.25 1.0 -6.25 0.95 -6.3 0.85 -6.3 0.75 -6.3 0.65 -6.3 0.55 -6.3 0.45 -6.3 0.35 -6.3 0.25 -6.3 0.2 -6.3 0.1 -6.3 0.0 -6.3 -0.1 -6.3 -0.2 -6.3 -0.3 -6.3 -0.4 -6.3 -0.5 -6.3 -0.55 -6.3 -0.65 -6.3 -0.75 -6.3 -0.85 -6.3 -0.95 -6.3 -1.05 -6.3 -1.15 -6.3 -1.25 -6.3 -1.3 -6.3 -1.4 -6.3 -1.5 -6.3 -1.6 -6.3 -1.7 -6.3 -1.8 -6.3 -1.9 -6.3 -2.0 -6.25 -2.05 -6.25 -2.15 -6.2 -2.25 -6.1 -2.35 -6.05 -2.45 -6.0 -2.55 -6.0 -2.65 -5.95 -2.75 -5.9 -2.8 -5.8 -2.9 -5.8 -3.0 -5.75 -3.1 -5.65 -3.2 -5.6 -3.3 -5.55 -3.4 -5.5 -3.5 -5.5 -3.55 -5.45 -3.65 -5.35 -3.75 -5.3 -3.85 -5.25 -3.95 -5.15 -4.05 -5.05 -4.15 -5.0 -4.25 -4.9 -4.3 -4.8 -4.4 -4.7 -4.5 -4.6 -4.6 -4.55 -4.7 -4.5 -4.8 -4.45 -4.9 -4.4 -5.0 -4.3 -5.05 -4.2 -5.15 -4.05 -5.25 -3.9 -5.3 -3.8 -5.4 -3.75 -5.5 -3.65 -5.55 -3.55 -5.65 -3.4 -5.75 -3.25 -5.8 -3.0 -5.9 -2.9 -5.95 -2.8 -6.0 -2.7 -6.0 -2.5 -6.05 -2.4 -6.05 -2.3 -6.1 -2.1 -6.15 -1.9 -6.2 -1.7 -6.25 -1.5 -6.3 -1.05 -6.3 -0.95 -6.35 -0.75 -6.35 -0.75 -6.4 -0.5 -6.4 -0.35 -6.35 -0.3 -6.4 -0.25 -6.45 -0.15 -6.5 -0.05 -6.5 0.15 -6.5 0.15 -6.55 1.4 -6.55 1.6 -6.5 1.75 -6.45 2.15 -6.4 2.25 -6.4 2.35 -6.35 M1.0 -4.45 L0.55 -4.5 0.05 -4.55 -1.55 -4.3 Q-3.45 -2.8 -4.15 -1.6 L-4.5 -0.15 -4.5 0.0 -4.5 0.2 -4.5 0.25 -4.5 0.35 -4.45 0.45 -3.65 2.5 -3.65 2.55 -3.25 3.1 -2.95 3.5 -1.5 4.55 -1.4 4.6 -1.25 4.65 -1.05 4.7 0.85 4.7 1.2 4.7 1.3 4.65 1.5 4.6 1.65 4.6 Q3.55 3.1 4.25 1.9 L4.6 0.45 4.6 0.3 4.6 0.0 4.55 -0.15 3.75 -2.2 3.75 -2.25 3.35 -2.8 1.6 -4.25 1.5 -4.3 1.35 -4.35 1.0 -4.45" fill="#000000" fill-rule="evenodd" stroke="none"/>
    <path d="M1.6 -0.8 L1.65 -0.7 1.7 -0.6 1.75 -0.55 1.7 -0.45 1.6 -0.4 1.6 -0.3 1.6 -0.2 1.6 -0.1 1.6 0.0 1.55 0.1 1.55 0.2 1.55 0.3 1.5 0.35 1.5 0.45 1.5 0.55 1.45 0.65 1.4 0.75 1.35 0.85 1.3 0.95 1.3 1.05 1.2 1.1 1.15 1.2 1.1 1.3 1.1 1.4 1.05 1.5 1.05 1.6 0.95 1.7 0.85 1.8 0.8 1.85 0.65 1.95 0.65 2.0 0.6 2.05 0.5 2.15 0.35 2.25 0.3 2.25 0.2 2.25 0.3 2.15 0.55 1.7 0.65 1.7 Q1.25 1.45 1.5 -0.15 L1.55 -0.65 1.6 -0.8 M0.85 4.7 L0.85 4.6 0.85 4.55 0.85 4.45 0.85 4.35 0.85 4.25 0.85 4.2 1.1 4.25 1.25 4.25 1.45 4.2 1.55 4.15 1.6 4.05 1.7 3.95 1.7 3.85 1.8 3.8 1.95 3.7 2.05 3.6 2.15 3.5 2.25 3.4 2.35 3.3 2.45 3.2 2.55 3.1 2.6 3.05 2.7 2.95 2.8 2.85 2.85 2.75 2.85 2.65 2.95 2.55 2.95 2.45 3.05 2.35 3.05 2.3 3.1 2.2 3.15 2.1 3.2 2.0 3.25 1.9 3.3 1.8 3.3 1.7 3.35 1.6 3.35 1.55 3.35 1.45 3.3 1.35 3.25 1.25 3.25 1.2 3.25 1.1 3.25 1.05 3.25 0.95 3.25 0.85 3.25 0.75 3.25 0.65 3.25 0.55 3.25 0.45 3.25 0.35 3.25 0.3 3.25 0.2 3.25 0.1 3.25 0.0 3.25 -0.1 3.25 -0.2 3.25 -0.3 3.2 -0.4 3.2 -0.45 3.1 -0.55 3.1 -0.65 3.05 -0.75 3.0 -0.85 3.0 -0.9 3.0 -1.0 3.0 -1.1 3.0 -1.2 2.95 -1.3 2.95 -1.4 2.95 -1.45 2.9 -1.55 2.85 -1.65 2.85 -1.75 2.8 -1.85 2.75 -1.95 2.7 -2.05 2.6 -2.15 2.5 -2.2 2.5 -2.25 2.45 -2.3 2.45 -2.35 2.4 -2.45 2.35 -2.55 2.3 -2.65 2.2 -2.7 2.15 -2.8 2.05 -2.9 2.0 -3.0 1.95 -3.1 1.8 -3.2 1.75 -3.2 1.75 -3.3 1.75 -3.4 1.7 -3.5 1.7 -3.6 1.65 -3.7 1.6 -3.8 1.6 -3.9 1.6 -3.95 1.55 -4.05 1.5 -4.15 1.45 -4.25 1.4 -4.3 1.5 -4.3 1.6 -4.25 1.85 -4.1 2.45 -3.7 3.0 -3.1 3.35 -2.8 3.75 -2.25 3.75 -2.2 4.55 -0.15 4.6 0.0 4.6 0.3 4.6 0.45 4.25 1.9 Q3.55 3.1 1.65 4.6 L1.5 4.6 1.3 4.65 1.2 4.7 0.85 4.7 M-0.3 4.15 L-0.15 4.15 -0.15 4.2 -0.15 4.3 -0.15 4.35 -0.2 4.3 -0.4 4.25 -0.4 4.3 -0.5 4.3 -0.5 4.25 -0.3 4.15 M3.5 2.15 L3.45 2.2 3.35 2.45 3.5 2.4 3.6 2.2 3.5 2.15" fill="#ff9900" fill-rule="evenodd" stroke="none"/>
  </g>
</svg>
