<?xml version="1.0" encoding="UTF-8" standalone="no"?>
<svg xmlns:ffdec="https://www.free-decompiler.com/flash" xmlns:xlink="http://www.w3.org/1999/xlink" ffdec:objectType="shape" height="18.9px" width="57.3px" xmlns="http://www.w3.org/2000/svg">
  <g transform="matrix(1.0, 0.0, 0.0, 1.0, 28.05, -4.55)">
    <path d="M29.0 4.55 Q28.95 5.2 29.25 5.5 L29.25 7.4 Q28.85 8.35 28.6 9.6 L27.65 12.6 27.0 13.5 22.6 19.85 Q21.3 21.95 20.1 22.5 L17.35 23.4 16.55 23.2 3.75 22.5 -2.75 23.45 -6.5 23.0 -17.75 22.9 -20.6 22.5 -21.0 22.55 Q-21.05 19.55 -22.2 17.55 -24.3 14.45 -26.0 11.0 L-26.9 8.15 Q-27.35 6.8 -28.05 5.95 L-27.55 5.15 -27.35 5.15 Q-26.25 5.4 -25.5 7.3 L-24.3 10.65 Q-23.35 10.9 -23.05 11.7 L-22.5 13.5 -22.15 14.95 Q-21.4 15.05 -20.95 16.9 L-19.35 20.9 Q-18.5 20.3 -15.35 19.95 L-11.75 19.6 -8.0 19.6 -7.75 19.7 -3.3 19.7 -3.0 19.6 17.6 19.6 18.7 19.95 19.3 18.45 Q20.1 16.45 21.25 14.75 L21.65 14.25 22.55 14.25 23.4 13.1 24.05 12.25 22.45 12.25 22.7 11.9 Q24.15 9.35 25.55 7.55 27.3 5.35 29.0 4.55" fill="#000000" fill-opacity="0.3372549" fill-rule="evenodd" stroke="none"/>
  </g>
</svg>
