<?xml version="1.0" encoding="UTF-8" standalone="no"?>
<svg xmlns:ffdec="https://www.free-decompiler.com/flash" xmlns:xlink="http://www.w3.org/1999/xlink" ffdec:objectType="shape" height="60.05px" width="60.15px" xmlns="http://www.w3.org/2000/svg">
  <g transform="matrix(1.0, 0.0, 0.0, 1.0, 30.05, 30.0)">
    <path d="M21.8 -26.85 L21.9 -26.75 22.0 -26.65 22.15 -26.6 22.25 -26.5 22.4 -26.45 22.6 -26.35 22.7 -26.25 22.7 -26.15 22.7 -26.05 22.8 -25.95 22.85 -25.9 22.95 -25.8 23.1 -25.65 23.15 -25.6 23.25 -25.5 23.3 -25.45 23.45 -25.3 23.55 -25.2 23.8 -24.95 23.9 -24.85 24.0 -24.75 24.1 -24.65 24.3 -24.55 24.35 -24.5 24.45 -24.4 24.5 -24.25 24.65 -24.2 24.75 -24.1 24.9 -24.05 24.95 -23.9 25.05 -23.8 25.2 -23.65 25.4 -23.55 25.5 -23.45 25.5 -23.35 25.6 -23.25 25.7 -23.15 25.85 -23.1 25.95 -23.0 25.95 -22.9 26.0 -22.75 26.1 -22.65 26.25 -22.5 26.35 -22.4 26.45 -22.3 26.5 -22.25 26.55 -22.1 26.6 -22.05 26.7 -21.95 26.8 -21.85 26.85 -21.7 26.95 -21.6 27.0 -21.45 27.05 -21.4 27.15 -21.3 27.2 -21.15 27.25 -21.1 27.25 -21.0 27.35 -20.9 27.45 -20.8 27.55 -20.7 27.6 -20.65 27.6 -20.55 27.7 -20.45 27.7 -20.35 Q27.8 -20.25 27.85 -20.3 L27.95 -20.2 28.1 -20.05 28.1 -19.95 28.15 -19.9 28.25 -19.8 28.25 -19.7 28.25 -19.6 28.35 -19.5 28.45 -19.4 28.45 -19.3 28.55 -19.2 28.6 -19.15 28.65 -19.0 28.7 -18.95 28.75 -18.8 28.9 -18.65 29.0 -18.55 29.05 -18.5 29.05 -18.3 29.15 -18.2 29.2 -18.15 29.25 -18.0 29.25 -17.9 29.35 -17.8 29.35 -17.7 29.4 -17.65 29.5 -17.55 29.6 -17.45 29.6 -17.35 29.6 -17.25 29.7 -17.15 29.75 -17.1 29.75 -17.0 29.75 -16.9 29.8 -16.75 29.85 -16.7 29.95 -16.6 29.95 -16.5 29.95 -16.4 29.9 -16.25 29.95 -16.1 29.9 -15.95 29.9 -15.85 29.95 -15.7 29.9 -15.55 29.95 -15.4 29.9 -15.25 29.9 -15.15 29.9 -14.95 29.95 -14.9 30.05 -14.8 30.0 -14.75 30.05 -14.6 30.1 -14.55 30.0 -14.45 30.0 -14.35 29.95 -14.2 29.85 -14.1 29.7 -13.95 29.65 -13.9 29.5 -13.75 29.45 -13.7 29.25 -13.7 Q29.15 -13.6 29.05 -13.6 L28.95 -13.5 28.85 -13.4 28.7 -13.35 28.6 -13.35 28.4 -13.25 28.25 -13.2 28.05 -13.2 27.9 -13.15 27.6 -13.05 27.5 -12.95 27.45 -12.9 27.35 -12.9 27.15 -12.8 27.1 -12.75 27.0 -12.75 26.85 -12.7 26.7 -12.65 26.6 -12.65 26.4 -12.55 26.3 -12.45 26.25 -12.4 26.15 -12.4 26.0 -12.35 25.75 -12.3 25.5 -12.15 25.35 -12.1 25.3 -12.05 25.15 -12.0 25.1 -11.95 24.85 -11.9 24.65 -11.8 24.55 -11.7 24.5 -11.75 24.35 -11.7 24.2 -11.65 23.95 -11.6 23.9 -11.55 23.65 -11.5 23.5 -11.35 23.4 -11.25 23.25 -11.2 23.15 -11.1 23.0 -11.05 22.8 -11.05 22.6 -10.95 22.45 -10.9 22.35 -10.8 22.25 -10.7 22.15 -10.6 22.0 -10.55 21.75 -10.5 21.6 -10.45 21.4 -10.45 21.35 -10.4 21.1 -10.45 20.95 -10.5 20.8 -10.55 20.65 -10.7 20.6 -10.75 20.6 -10.85 20.5 -10.95 20.5 -11.05 20.45 -11.2 20.35 -11.3 20.2 -11.45 19.95 -11.7 19.85 -11.8 19.85 -11.9 19.75 -12.0 19.8 -12.05 19.8 -12.15 19.8 -12.35 19.8 -12.45 19.75 -12.5 19.7 -12.65 19.65 -12.7 19.65 -12.8 19.55 -12.9 19.5 -13.05 19.45 -13.1 19.35 -13.2 19.3 -13.25 19.2 -13.35 19.15 -13.5 19.1 -13.55 19.05 -13.7 19.05 -13.8 19.0 -13.85 18.85 -14.0 18.75 -14.1 18.75 -14.2 18.65 -14.3 18.6 -14.45 18.45 -14.6 18.35 -14.7 18.25 -14.8 17.9 -15.15 17.8 -15.25 17.75 -15.3 17.7 -15.45 17.7 -15.55 17.65 -15.6 17.6 -15.75 17.5 -15.85 17.4 -15.95 17.3 -16.05 17.2 -16.15 16.95 -16.4 16.85 -16.5 16.8 -16.55 16.7 -16.65 16.6 -16.75 16.55 -16.8 16.5 -16.95 16.4 -17.05 16.4 -17.15 16.35 -17.2 16.2 -17.35 16.05 -17.5 15.95 -17.6 15.85 -17.7 15.75 -17.8 15.55 -17.9 15.4 -17.95 15.3 -18.05 15.2 -18.15 15.05 -18.3 14.95 -18.4 14.8 -18.45 14.6 -18.55 14.4 -18.65 14.25 -18.8 14.15 -18.8 14.0 -18.85 13.75 -18.9 13.55 -19.0 13.05 -19.0 12.8 -19.05 12.6 -19.05 12.45 -19.1 12.25 -19.2 12.05 -19.3 11.95 -19.4 11.85 -19.5 11.85 -19.6 11.8 -19.65 11.75 -19.8 11.75 -19.9 11.65 -20.0 11.7 -20.05 11.65 -20.2 11.6 -20.25 11.65 -20.3 11.6 -20.45 11.65 -20.6 11.6 -20.75 11.65 -20.9 11.65 -21.0 11.65 -21.1 11.65 -21.2 11.75 -21.3 11.7 -21.35 11.75 -21.5 11.75 -21.6 11.8 -21.65 11.8 -21.75 11.9 -21.85 12.0 -21.95 12.05 -22.0 12.15 -22.1 12.2 -22.25 12.25 -22.3 12.3 -22.45 12.25 -22.5 12.35 -22.6 12.35 -22.7 12.35 -22.8 12.35 -22.9 12.4 -22.95 12.4 -23.05 12.5 -23.15 12.6 -23.25 12.7 -23.35 12.8 -23.45 12.9 -23.55 13.0 -23.55 13.1 -23.65 13.25 -23.6 13.4 -23.75 13.45 -23.9 13.55 -24.0 13.6 -24.05 13.75 -24.1 13.9 -24.25 14.0 -24.35 14.0 -24.45 14.1 -24.55 14.1 -24.65 14.2 -24.75 14.3 -24.85 14.4 -24.95 14.5 -25.05 14.55 -25.2 14.7 -25.35 14.85 -25.5 14.9 -25.55 15.0 -25.65 15.0 -25.75 15.1 -25.85 15.15 -25.9 15.2 -26.05 15.25 -26.1 15.3 -26.25 15.4 -26.35 15.5 -26.45 15.45 -26.5 15.6 -26.65 15.7 -26.75 15.85 -26.9 15.8 -26.95 15.9 -27.05 15.95 -27.2 16.05 -27.3 16.05 -27.4 16.1 -27.55 16.2 -27.65 16.25 -27.7 16.3 -27.85 16.25 -27.9 16.3 -28.05 16.5 -28.25 16.6 -28.35 16.7 -28.45 16.85 -28.5 17.05 -28.5 17.05 -28.6 17.15 -28.5 17.2 -28.55 17.2 -28.65 17.3 -28.75 17.4 -28.85 17.55 -28.9 17.6 -28.95 17.7 -28.95 17.9 -28.95 18.2 -28.95 18.2 -29.05 18.35 -29.0 18.5 -28.95 18.7 -28.85 18.8 -28.75 18.85 -28.7 19.0 -28.55 19.15 -28.5 19.35 -28.4 19.45 -28.3 Q19.55 -28.2 19.6 -28.25 L19.8 -28.15 19.95 -28.1 20.1 -27.95 20.15 -27.9 20.3 -27.75 20.45 -27.7 20.55 -27.6 20.75 -27.5 20.95 -27.4 21.05 -27.3 21.25 -27.2 21.35 -27.1 21.5 -27.05 21.65 -26.9 21.8 -26.85 M20.55 -25.6 L20.35 -25.8 Q20.25 -25.8 20.15 -25.9 L20.0 -26.05 19.8 -26.15 19.65 -26.2 19.55 -26.3 19.45 -26.4 19.25 -26.4 19.15 -26.5 19.05 -26.6 18.95 -26.7 18.75 -26.8 18.65 -26.9 18.5 -26.95 18.3 -27.05 18.2 -27.15 18.0 -27.25 17.85 -27.3 17.8 -27.25 17.75 -27.1 17.7 -27.05 17.7 -26.95 17.6 -26.85 17.6 -26.75 17.5 -26.65 17.45 -26.6 17.45 -26.5 17.5 -26.35 17.4 -26.25 17.3 -26.15 17.25 -26.0 17.25 -25.9 17.15 -25.8 17.05 -25.7 16.9 -25.55 16.8 -25.45 16.8 -25.35 16.7 -25.25 16.6 -25.15 16.55 -25.1 16.5 -24.95 16.4 -24.85 16.4 -24.75 16.35 -24.7 16.25 -24.6 16.15 -24.5 16.1 -24.45 16.0 -24.35 15.9 -24.25 15.9 -24.15 15.8 -24.05 15.65 -23.9 15.6 -23.85 15.6 -23.75 15.5 -23.65 15.4 -23.55 15.35 -23.5 15.25 -23.4 15.15 -23.3 15.15 -23.2 15.05 -23.1 14.95 -23.0 14.8 -22.95 14.7 -22.85 14.7 -22.75 14.55 -22.6 14.5 -22.55 14.35 -22.5 14.3 -22.35 14.3 -22.25 14.2 -22.15 14.2 -22.05 14.1 -21.95 14.0 -21.85 13.95 -21.8 13.95 -21.7 13.85 -21.6 13.85 -21.5 13.8 -21.45 13.65 -21.3 13.55 -21.2 13.45 -21.1 13.3 -20.95 13.2 -20.85 13.25 -20.8 13.2 -20.65 13.45 -20.6 13.65 -20.6 13.95 -20.6 14.1 -20.55 14.25 -20.5 14.5 -20.45 Q14.6 -20.35 14.8 -20.35 L14.95 -20.3 15.05 -20.2 15.2 -20.05 15.35 -20.0 15.55 -19.9 15.7 -19.75 15.85 -19.6 16.0 -19.55 16.3 -19.45 16.4 -19.35 16.6 -19.25 16.75 -19.2 16.85 -19.1 16.85 -19.0 16.9 -18.85 17.05 -18.8 17.25 -18.7 17.3 -18.65 17.35 -18.5 17.45 -18.4 17.5 -18.35 17.7 -18.25 17.8 -18.15 17.85 -18.0 17.9 -17.95 18.0 -17.85 18.05 -17.7 18.15 -17.6 18.2 -17.45 18.15 -17.4 18.3 -17.25 18.3 -17.15 18.35 -17.1 18.45 -17.0 18.55 -16.9 18.65 -16.8 18.75 -16.7 18.85 -16.6 19.0 -16.45 19.1 -16.35 19.2 -16.25 19.35 -16.1 19.45 -16.0 19.55 -15.9 19.55 -15.8 19.65 -15.7 Q19.75 -15.6 19.8 -15.65 L19.95 -15.5 19.95 -15.4 19.95 -15.3 20.05 -15.2 20.1 -15.15 20.2 -15.05 20.2 -14.95 20.3 -14.85 20.35 -14.7 20.4 -14.65 20.4 -14.55 20.5 -14.45 20.65 -14.3 20.75 -14.2 20.75 -14.1 20.75 -14.0 20.85 -13.9 20.9 -13.85 21.0 -13.75 21.0 -13.65 21.1 -13.55 21.2 -13.45 21.2 -13.35 21.3 -13.25 21.35 -13.2 21.35 -13.0 21.4 -12.85 21.35 -12.7 21.35 -12.6 21.35 -12.5 21.55 -12.4 21.65 -12.4 21.8 -12.45 21.95 -12.5 22.1 -12.55 22.25 -12.6 22.4 -12.65 22.5 -12.75 22.7 -12.85 22.85 -12.9 23.15 -13.0 Q23.25 -13.0 23.35 -13.1 L23.45 -13.2 23.6 -13.25 23.85 -13.3 Q23.95 -13.3 24.05 -13.4 L24.2 -13.45 24.35 -13.5 24.55 -13.6 24.7 -13.65 24.9 -13.75 25.05 -13.8 25.2 -13.85 25.45 -13.9 25.55 -14.0 25.7 -14.05 25.75 -14.1 25.9 -14.15 26.15 -14.2 26.25 -14.3 26.45 -14.3 26.65 -14.4 26.8 -14.45 26.95 -14.6 27.1 -14.65 27.3 -14.65 27.55 -14.7 27.65 -14.8 27.75 -14.8 27.9 -14.85 28.05 -14.9 28.15 -15.0 28.25 -15.1 28.35 -15.1 28.3 -15.15 28.4 -15.25 28.35 -15.3 28.3 -15.45 28.35 -15.5 28.3 -15.65 28.35 -15.7 28.35 -15.8 28.3 -15.95 28.35 -16.0 28.3 -16.15 28.2 -16.25 28.2 -16.35 28.15 -16.5 28.05 -16.6 28.0 -16.75 28.0 -16.85 27.9 -16.95 27.85 -17.0 27.8 -17.15 27.7 -17.25 27.75 -17.3 27.7 -17.45 27.65 -17.5 27.55 -17.6 27.5 -17.65 27.45 -17.8 27.35 -17.9 27.4 -17.95 27.3 -18.05 27.3 -18.15 27.25 -18.2 27.2 -18.35 27.1 -18.45 27.0 -18.55 26.9 -18.65 26.8 -18.75 26.8 -18.85 26.7 -18.95 26.65 -19.0 26.55 -19.1 26.45 -19.2 26.4 -19.25 26.3 -19.35 26.3 -19.45 26.25 -19.6 26.2 -19.65 26.2 -19.75 26.1 -19.85 26.05 -19.9 25.9 -20.05 25.9 -20.15 25.85 -20.2 25.75 -20.3 25.65 -20.4 25.6 -20.45 25.55 -20.6 25.5 -20.65 25.45 -20.8 25.4 -20.85 25.3 -20.95 25.2 -21.05 25.1 -21.15 25.1 -21.25 25.0 -21.35 24.85 -21.5 24.75 -21.6 24.7 -21.75 24.65 -21.8 24.65 -21.9 24.5 -22.05 24.45 -22.1 24.35 -22.2 24.25 -22.3 24.15 -22.4 23.75 -22.8 23.55 -22.9 23.4 -22.95 23.3 -23.05 23.2 -23.15 23.2 -23.25 23.2 -23.35 23.15 -23.4 23.0 -23.45 22.85 -23.5 22.7 -23.55 22.55 -23.7 22.45 -23.8 22.5 -23.85 22.4 -23.95 22.4 -24.05 22.3 -24.15 22.2 -24.25 22.1 -24.35 22.0 -24.45 21.85 -24.5 21.75 -24.6 21.65 -24.7 21.6 -24.85 21.55 -24.9 21.5 -25.05 21.45 -25.1 21.3 -25.15 21.15 -25.2 21.05 -25.3 20.9 -25.45 20.95 -25.5 20.75 -25.6 20.55 -25.6 M21.15 11.5 L21.6 11.45 21.65 11.5 21.85 11.5 22.0 11.65 22.15 11.7 22.3 11.85 22.35 12.0 22.4 12.05 22.55 12.1 22.7 12.25 22.95 12.3 23.05 12.4 23.15 12.5 23.25 12.6 23.4 12.65 23.55 12.7 23.65 12.8 23.7 12.85 23.9 12.95 24.05 13.0 24.15 13.1 24.25 13.2 24.4 13.35 24.5 13.45 24.7 13.45 24.9 13.55 25.05 13.7 25.15 13.8 25.35 13.8 25.55 13.9 25.75 13.9 25.9 14.05 26.0 14.15 26.15 14.2 26.35 14.3 26.45 14.4 26.6 14.55 26.75 14.6 26.8 14.65 27.0 14.65 27.15 14.8 27.3 14.85 27.45 14.9 27.55 15.0 27.65 15.1 27.8 15.25 27.95 15.3 28.05 15.4 28.15 15.5 28.35 15.6 28.45 15.7 28.55 15.8 28.6 15.85 28.75 16.0 28.8 16.05 28.9 16.15 29.0 16.25 29.1 16.35 29.1 16.45 29.15 16.5 29.25 16.6 29.25 16.7 29.35 16.8 29.35 16.9 29.35 17.0 29.4 17.05 29.3 17.15 29.45 17.2 29.55 17.3 29.55 17.4 29.6 17.55 29.7 17.65 29.7 17.75 29.75 17.9 29.7 17.95 29.6 18.05 29.6 18.15 29.6 18.25 29.5 18.35 29.4 18.45 29.3 18.55 29.25 18.6 29.25 18.7 29.15 18.8 29.1 18.95 29.05 19.0 29.05 19.1 28.95 19.2 28.9 19.25 28.85 19.4 28.9 19.45 28.8 19.55 28.75 19.6 28.7 19.75 28.6 19.85 28.5 19.95 28.45 20.0 28.4 20.15 28.3 20.25 28.25 20.3 28.15 20.4 28.15 20.5 28.05 20.6 28.0 20.65 28.0 20.75 27.95 20.9 27.9 20.95 27.8 21.05 27.7 21.15 27.7 21.25 27.6 21.35 27.6 21.45 27.55 21.5 27.45 21.6 27.45 21.7 27.35 21.8 27.25 21.9 27.2 21.95 27.15 22.1 27.15 22.2 27.1 22.25 26.95 22.4 27.0 22.45 26.9 22.55 26.8 22.65 26.7 22.75 26.65 22.8 26.6 22.95 26.55 23.0 26.45 23.1 26.35 23.2 26.25 23.3 26.1 23.45 26.05 23.5 25.95 23.6 25.85 23.7 25.75 23.8 25.65 23.9 25.6 23.95 25.4 24.05 25.3 24.15 25.2 24.25 25.1 24.35 24.9 24.45 24.8 24.55 24.65 24.7 24.55 24.8 24.35 25.0 24.2 25.05 24.2 25.15 24.1 25.25 24.0 25.35 23.9 25.45 23.75 25.5 23.7 25.65 23.6 25.75 23.45 25.9 23.35 26.0 23.25 26.1 23.15 26.2 23.05 26.3 22.9 26.35 22.8 26.45 22.7 26.55 22.6 26.65 22.55 26.7 22.4 26.75 22.25 26.8 22.3 26.85 22.15 27.0 22.05 27.1 21.95 27.1 21.85 27.2 21.65 27.3 21.55 27.4 21.45 27.5 21.4 27.45 21.3 27.55 21.1 27.55 20.85 27.5 20.7 27.45 20.55 27.6 Q20.45 27.7 20.3 27.75 L20.15 27.8 19.95 27.9 19.85 28.0 19.75 28.1 19.55 28.2 19.35 28.3 19.25 28.4 19.1 28.45 18.9 28.55 18.85 28.6 18.7 28.65 18.55 28.8 18.45 28.9 18.35 29.0 18.2 29.05 18.0 29.15 17.9 29.25 17.7 29.35 17.5 29.35 17.4 29.45 17.25 29.6 17.2 29.65 17.0 29.75 16.8 29.85 16.7 29.95 16.55 30.0 16.45 30.0 16.3 30.05 16.2 30.05 16.0 30.05 15.85 30.0 15.7 29.95 15.6 29.85 15.55 29.9 15.4 29.85 15.2 29.95 15.05 29.9 14.85 29.8 14.7 29.75 14.6 29.65 14.5 29.55 14.5 29.45 14.4 29.35 14.45 29.3 14.4 29.15 14.35 29.1 14.3 28.95 14.35 28.9 14.25 28.8 14.15 28.7 14.2 28.65 14.15 28.5 14.1 28.45 14.0 28.35 13.95 28.2 13.85 28.1 13.9 27.95 13.85 27.8 13.85 27.7 13.8 27.55 13.85 27.5 13.8 27.35 13.75 27.3 13.65 27.2 13.65 27.1 13.6 27.05 13.5 26.95 13.5 26.85 13.4 26.75 13.4 26.65 13.35 26.6 13.3 26.45 13.2 26.35 13.15 26.3 13.1 26.15 13.0 26.05 12.95 26.0 12.85 25.9 12.85 25.8 12.75 25.7 12.7 25.65 12.7 25.55 12.6 25.45 12.55 25.4 12.5 25.25 12.4 25.15 12.3 25.05 12.3 24.95 12.2 24.85 12.1 24.75 12.1 24.65 12.0 24.55 11.85 24.4 11.75 24.3 11.75 24.2 11.65 24.1 11.55 24.0 11.55 23.9 11.5 23.85 11.4 23.75 11.3 23.65 11.25 23.6 11.15 23.5 11.2 23.35 11.15 23.2 11.05 23.1 10.95 23.0 10.9 22.95 10.85 22.8 10.85 22.7 10.75 22.6 10.7 22.55 10.7 22.45 10.6 22.35 10.6 22.25 10.55 22.2 10.6 22.05 10.55 21.9 10.65 21.8 10.55 21.7 10.55 21.6 10.6 21.45 10.55 21.4 10.5 21.25 10.5 21.15 10.55 21.1 10.5 20.95 10.6 20.85 10.6 20.75 10.7 20.65 10.85 20.5 10.95 20.4 11.1 20.35 11.2 20.25 11.3 20.15 11.45 20.1 11.55 20.0 11.65 19.9 11.85 19.8 11.95 19.7 12.05 19.6 12.15 19.5 12.2 19.45 12.35 19.4 12.45 19.4 12.6 19.35 12.9 19.25 13.0 19.15 13.1 19.05 13.2 18.95 13.3 18.85 13.45 18.8 13.65 18.7 13.75 18.6 13.85 18.5 14.0 18.45 14.1 18.35 14.25 18.3 14.35 18.2 14.45 18.1 14.65 18.0 14.75 17.9 14.85 17.8 15.0 17.65 15.1 17.65 15.2 17.65 15.4 17.55 15.5 17.45 15.65 17.3 15.8 17.15 16.05 17.1 16.15 17.0 16.3 16.85 16.35 16.8 16.45 16.7 16.6 16.55 16.75 16.4 16.8 16.35 16.95 16.2 17.05 16.1 17.2 16.05 17.2 15.95 17.3 15.85 17.4 15.75 17.5 15.65 17.6 15.55 17.65 15.5 17.75 15.4 17.75 15.3 17.85 15.2 17.95 15.1 18.15 15.0 18.2 14.95 18.3 14.85 18.4 14.75 18.4 14.65 18.4 14.55 18.5 14.45 18.75 14.2 18.9 14.05 18.95 13.9 19.05 13.8 19.2 13.65 19.25 13.5 19.25 13.4 19.3 13.35 19.3 13.25 19.4 13.15 19.5 13.05 19.6 12.95 19.65 12.9 19.7 12.75 19.75 12.6 19.8 12.55 19.75 12.5 19.85 12.4 19.85 12.3 19.95 12.2 19.95 12.1 19.95 12.0 20.05 11.9 20.15 11.8 20.3 11.75 20.5 11.65 20.65 11.6 20.75 11.6 20.95 11.5 21.1 11.55 21.1 11.45 21.15 11.5 M26.7 16.55 L26.55 16.4 26.45 16.3 26.35 16.2 26.3 16.15 26.05 16.1 25.95 16.0 25.85 15.9 25.7 15.85 25.6 15.75 25.4 15.75 25.3 15.65 25.2 15.55 25.0 15.45 24.9 15.35 24.8 15.35 24.7 15.35 24.45 15.3 24.3 15.25 24.2 15.15 24.1 15.05 23.95 15.0 23.8 14.85 23.65 14.8 23.45 14.7 23.35 14.6 23.15 14.5 23.05 14.4 22.9 14.35 22.85 14.3 22.7 14.25 22.5 14.05 22.3 13.95 22.2 13.85 22.05 13.7 21.9 13.65 21.75 13.6 21.55 13.5 21.45 13.4 21.3 13.35 21.2 13.45 21.25 13.5 21.2 13.65 21.15 13.7 21.05 13.8 21.05 13.9 20.95 14.0 20.85 14.1 20.7 14.25 20.65 14.4 20.55 14.5 20.5 14.65 20.35 14.7 20.25 14.8 20.2 14.95 20.2 15.05 20.15 15.1 20.1 15.25 19.95 15.4 19.85 15.5 19.7 15.65 19.6 15.75 19.5 15.85 19.45 16.0 19.4 16.05 19.3 16.15 19.2 16.25 19.1 16.35 19.05 16.4 19.0 16.55 18.95 16.6 18.85 16.7 18.75 16.8 18.6 16.95 18.55 17.0 18.45 17.1 18.35 17.2 18.3 17.25 18.15 17.4 18.0 17.55 17.9 17.65 17.8 17.75 17.7 17.85 17.6 17.95 17.5 18.05 17.4 18.15 17.25 18.2 17.15 18.3 17.05 18.4 16.85 18.5 16.75 18.6 16.65 18.7 16.6 18.75 16.45 18.9 16.35 19.0 16.25 19.0 16.1 19.05 15.9 19.15 15.85 19.2 15.65 19.3 15.55 19.4 15.35 19.5 15.25 19.6 15.1 19.65 14.9 19.75 14.8 19.85 14.65 20.0 14.5 20.15 14.3 20.25 14.1 20.35 13.95 20.4 13.8 20.55 13.6 20.65 13.45 20.7 13.35 20.8 13.1 21.05 13.0 21.15 12.85 21.2 12.6 21.25 12.5 21.35 12.4 21.45 12.35 21.5 12.2 21.65 12.25 21.7 12.3 21.85 12.25 21.9 12.35 22.0 12.3 22.05 12.4 22.15 12.4 22.25 12.5 22.35 12.55 22.5 12.7 22.65 12.8 22.75 12.95 22.9 13.0 23.05 13.05 23.1 13.05 23.2 13.15 23.3 13.15 23.4 13.25 23.5 13.4 23.65 13.45 23.8 13.5 23.85 13.6 23.95 13.7 24.05 13.8 24.15 13.8 24.25 13.9 24.35 14.05 24.5 14.05 24.6 14.15 24.7 14.15 24.8 14.25 24.9 14.35 25.0 14.4 25.05 14.45 25.2 14.45 25.3 14.55 25.4 14.6 25.45 14.7 25.55 14.75 25.6 14.8 25.75 14.8 25.85 14.9 25.95 14.95 26.0 15.0 26.15 15.05 26.2 15.05 26.3 15.1 26.45 15.15 26.5 15.25 26.6 15.3 26.65 15.3 26.75 15.35 26.9 15.35 27.0 15.4 27.05 15.4 27.15 15.4 27.25 15.45 27.3 15.4 27.45 15.5 27.55 15.6 27.65 15.65 27.8 15.65 27.9 15.7 28.05 15.8 28.15 15.8 28.25 15.85 28.4 15.9 28.35 16.1 28.25 16.25 28.2 16.3 28.15 16.5 28.05 16.7 27.95 16.8 27.85 16.9 27.85 16.95 27.8 17.2 27.75 17.3 27.65 17.4 27.55 17.5 27.45 17.7 27.35 17.8 27.25 17.9 27.15 18.05 27.1 18.25 27.0 18.35 26.9 18.5 26.85 18.65 26.8 18.75 26.7 18.9 26.65 19.05 26.5 19.2 26.45 19.3 26.35 19.5 26.25 19.7 26.15 19.8 26.05 19.95 25.9 20.0 25.75 20.1 25.65 20.1 25.55 20.15 25.5 20.3 25.35 20.4 25.25 20.65 25.2 20.8 25.05 20.9 24.95 21.0 24.85 21.1 24.75 21.2 24.65 21.3 24.55 21.4 24.45 21.6 24.35 21.65 24.3 21.75 24.2 21.8 24.15 22.0 24.15 22.1 24.05 22.25 23.9 22.35 23.8 22.45 23.7 22.6 23.65 22.6 23.55 22.7 23.45 22.75 23.4 22.8 23.25 22.9 23.15 23.15 22.9 23.25 22.8 23.35 22.7 23.45 22.6 23.6 22.55 23.7 22.45 23.8 22.35 23.9 22.25 24.0 22.15 24.0 22.05 24.05 21.9 24.1 21.85 24.2 21.75 24.3 21.65 24.35 21.5 24.35 21.4 24.45 21.3 24.45 21.2 24.55 21.1 24.65 21.0 24.75 20.9 24.8 20.85 24.8 20.75 24.95 20.6 25.0 20.55 25.15 20.5 25.2 20.35 25.3 20.25 25.25 20.2 25.35 20.1 25.35 20.0 25.45 19.9 25.55 19.8 25.65 19.7 25.75 19.6 25.75 19.5 25.8 19.45 25.9 19.35 26.0 19.25 26.25 19.0 26.3 18.85 26.45 18.7 26.55 18.6 26.55 18.5 26.65 18.4 26.65 18.3 26.75 18.2 26.8 18.15 26.85 18.0 26.85 17.9 27.0 17.75 27.05 17.6 27.1 17.55 27.1 17.45 27.2 17.35 27.2 17.25 27.3 17.15 27.25 17.1 27.4 16.95 27.3 16.95 27.15 16.9 26.95 16.8 26.85 16.7 26.7 16.55 M-15.95 -29.8 L-15.85 -29.9 -15.7 -29.95 -15.5 -29.95 -15.35 -30.0 -15.2 -29.95 -15.0 -29.95 -14.85 -29.8 -14.75 -29.7 -14.65 -29.7 -14.5 -29.65 -14.35 -29.5 -14.25 -29.4 -14.2 -29.35 -14.1 -29.25 -14.1 -29.15 -14.1 -29.05 -14.0 -28.95 -13.95 -28.9 -13.85 -28.8 -13.75 -28.7 -13.75 -28.6 -13.7 -28.45 -13.6 -28.35 -13.65 -28.2 -13.65 -28.1 -13.6 -28.05 -13.5 -27.95 -13.4 -27.85 -13.45 -27.8 -13.35 -27.6 -13.25 -27.5 -13.15 -27.4 -13.15 -27.3 -13.05 -27.2 -13.0 -27.05 -13.05 -27.0 -12.95 -26.9 -12.85 -26.8 -12.8 -26.75 -12.75 -26.6 -12.7 -26.55 -12.65 -26.4 -12.5 -26.25 -12.5 -26.15 -12.45 -26.1 -12.4 -25.95 -12.35 -25.9 -12.3 -25.75 -12.25 -25.7 -12.15 -25.6 -12.05 -25.5 -12.05 -25.4 -12.05 -25.3 -11.9 -25.25 -11.85 -25.1 -11.7 -24.95 -11.6 -24.85 -11.6 -24.75 -11.5 -24.65 -11.45 -24.6 -11.4 -24.45 -11.35 -24.4 -11.35 -24.3 -11.25 -24.2 -11.15 -24.1 -11.15 -24.0 -11.05 -23.9 -10.9 -23.75 -10.85 -23.6 -10.75 -23.5 -10.7 -23.45 -10.6 -23.35 -10.6 -23.25 -10.55 -23.2 -10.5 -23.05 -10.4 -22.95 -10.35 -22.9 -10.25 -22.8 -10.25 -22.7 -10.2 -22.55 -10.1 -22.45 -9.95 -22.3 -10.0 -22.25 -9.9 -22.15 -9.95 -22.0 -9.85 -21.9 -9.85 -21.7 -9.8 -21.55 -9.9 -21.45 -9.85 -21.4 -9.95 -21.3 -9.95 -21.2 -10.0 -21.05 -10.1 -20.95 -10.25 -20.9 -10.4 -20.85 -10.65 -20.8 -10.75 -20.8 -10.85 -20.7 -11.0 -20.65 -11.15 -20.6 -11.3 -20.45 -11.45 -20.4 -11.65 -20.3 -11.7 -20.25 -11.8 -20.25 -11.95 -20.1 -12.1 -20.05 -12.3 -19.95 -12.4 -19.85 -12.5 -19.75 -12.7 -19.65 -12.9 -19.65 -13.05 -19.5 -13.15 -19.4 -13.25 -19.3 -13.45 -19.2 -13.6 -19.15 -13.75 -19.0 -13.8 -18.95 -13.9 -18.85 -14.0 -18.75 -14.15 -18.7 -14.25 -18.6 -14.4 -18.45 -14.55 -18.4 -14.65 -18.3 -14.75 -18.2 -14.85 -18.1 -14.9 -18.05 -15.05 -17.9 -15.2 -17.75 -15.3 -17.65 -15.4 -17.55 -15.5 -17.45 -15.6 -17.35 -15.7 -17.25 -15.75 -17.2 -15.8 -17.05 -15.9 -16.95 -15.9 -16.85 -16.0 -16.75 -16.15 -16.7 -16.3 -16.55 -16.35 -16.5 -16.45 -16.4 -16.55 -16.3 -16.55 -16.2 -16.65 -16.1 -16.75 -16.0 -16.8 -15.95 -16.9 -15.85 -17.0 -15.75 -17.05 -15.7 -17.05 -15.6 -17.1 -15.45 -17.25 -15.3 -17.35 -15.2 -17.5 -15.05 -17.6 -14.95 -17.75 -14.8 -17.95 -14.6 -18.1 -14.45 -18.15 -14.4 -18.25 -14.3 -18.3 -14.15 -18.4 -14.05 -18.4 -13.95 -18.45 -13.9 -18.5 -13.75 -18.55 -13.7 -18.65 -13.6 -18.75 -13.5 -18.85 -13.4 -18.95 -13.3 -19.05 -13.2 -19.0 -13.15 -19.05 -13.0 -19.15 -12.9 -19.2 -12.75 -19.2 -12.65 -19.3 -12.55 -19.3 -12.45 -19.4 -12.35 -19.5 -12.25 -19.55 -12.1 -19.55 -12.0 -19.65 -11.9 -19.75 -11.8 -19.75 -11.7 -19.85 -11.6 -19.95 -11.5 -20.1 -11.45 -20.25 -11.3 -20.45 -11.3 -20.75 -11.3 -20.9 -11.35 -21.1 -11.45 -21.2 -11.55 -21.3 -11.65 -21.45 -11.8 -21.55 -11.9 -21.65 -12.0 -21.75 -12.1 -21.85 -12.2 -21.95 -12.3 -22.05 -12.4 -22.3 -12.55 -22.45 -12.6 -22.6 -12.65 -22.7 -12.75 -22.85 -12.8 -23.0 -12.85 -23.1 -12.95 -23.2 -13.05 -23.45 -13.2 -23.55 -13.3 -23.7 -13.35 -23.8 -13.45 -23.9 -13.55 -24.05 -13.6 -24.25 -13.7 -24.45 -13.8 -24.55 -13.9 -24.7 -14.05 -24.85 -14.1 -25.0 -14.25 -25.2 -14.35 -25.35 -14.5 -25.5 -14.55 -25.6 -14.65 -25.7 -14.75 -25.75 -14.8 -25.95 -14.9 -26.1 -14.95 -26.2 -15.05 -26.3 -15.15 -26.3 -15.25 -26.4 -15.35 -26.55 -15.4 -26.65 -15.5 -26.8 -15.65 -26.9 -15.75 -27.05 -15.8 -27.25 -15.9 -27.4 -16.05 -27.45 -16.2 -27.45 -16.3 -27.5 -16.35 -27.65 -16.5 -27.85 -16.5 -27.95 -16.6 -28.05 -16.7 -28.15 -16.8 -28.2 -16.85 -28.3 -16.95 -28.3 -17.05 -28.35 -17.2 -28.4 -17.35 -28.3 -17.45 -28.35 -17.5 -28.4 -17.65 -28.35 -17.7 -28.45 -17.8 -28.6 -17.95 -28.55 -18.0 -28.6 -18.15 -28.6 -18.25 -28.65 -18.3 -28.65 -18.4 -28.65 -18.5 -28.6 -18.65 -28.45 -18.8 -28.45 -18.9 -28.4 -18.95 -28.25 -19.1 -28.2 -19.15 -28.2 -19.25 -28.1 -19.35 -28.0 -19.45 -27.95 -19.5 -27.9 -19.65 -27.9 -19.75 -27.85 -19.8 -27.85 -19.9 -27.75 -20.0 -27.5 -20.25 -27.45 -20.4 -27.45 -20.5 -27.35 -20.6 -27.25 -20.7 -27.2 -20.85 -27.1 -20.95 -27.0 -21.05 -27.0 -21.15 -26.9 -21.25 -26.9 -21.35 -26.8 -21.45 -26.65 -21.6 -26.5 -21.75 -26.45 -21.9 -26.45 -22.0 -26.4 -22.05 -26.3 -22.15 -26.3 -22.25 -26.25 -22.4 -26.2 -22.45 -26.1 -22.55 -26.0 -22.65 -25.9 -22.75 -25.75 -22.9 -25.65 -23.0 -25.55 -23.1 -25.5 -23.15 -25.4 -23.25 -25.4 -23.35 -25.4 -23.45 -25.3 -23.55 -25.2 -23.65 -25.2 -23.75 -25.1 -23.85 -25.0 -23.95 -24.9 -24.05 -24.8 -24.15 -24.7 -24.25 -24.6 -24.35 -24.25 -24.7 -24.15 -24.8 -24.05 -24.9 -23.95 -25.0 -23.9 -25.05 -23.75 -25.2 -23.6 -25.35 -23.5 -25.35 -23.35 -25.4 -23.2 -25.45 -23.1 -25.55 -23.0 -25.65 -22.9 -25.75 -22.8 -25.85 -22.7 -25.95 -22.65 -26.0 -22.5 -26.15 -22.45 -26.2 -22.3 -26.35 -22.2 -26.45 -22.1 -26.55 -21.95 -26.6 -21.85 -26.7 -21.65 -26.8 -21.55 -26.9 -21.45 -27.0 -21.35 -27.1 -21.25 -27.2 -21.15 -27.2 -21.05 -27.2 -20.85 -27.3 -20.75 -27.4 -20.5 -27.45 -20.4 -27.55 -20.35 -27.6 -20.25 -27.7 Q-20.2 -27.65 -20.1 -27.75 L-19.95 -27.8 -19.85 -27.9 -19.7 -28.05 -19.6 -28.05 -19.45 -28.1 -19.3 -28.15 -19.25 -28.2 -19.1 -28.25 -18.95 -28.3 -18.85 -28.4 -18.8 -28.45 -18.55 -28.5 -18.35 -28.6 -18.15 -28.6 -18.0 -28.75 -17.95 -28.8 -17.8 -28.95 -17.65 -29.0 -17.5 -29.05 -17.4 -29.15 -17.1 -29.15 -16.95 -29.3 -16.8 -29.35 -16.75 -29.4 -16.65 -29.4 -16.5 -29.55 -16.35 -29.6 -16.15 -29.6 -16.05 -29.7 -15.95 -29.8 M-16.1 -27.95 L-16.3 -27.85 -16.4 -27.75 -16.5 -27.65 -16.75 -27.6 -16.85 -27.5 -17.05 -27.4 -17.2 -27.35 -17.3 -27.25 -17.45 -27.2 -17.5 -27.15 -17.7 -27.15 -17.8 -27.05 -17.85 -27.0 -18.0 -26.95 -18.2 -26.85 -18.35 -26.8 -18.55 -26.7 -18.7 -26.65 -18.9 -26.55 -19.0 -26.45 -19.1 -26.35 -19.35 -26.3 -19.45 -26.2 -19.6 -26.15 -19.75 -26.0 -19.85 -25.9 -20.1 -25.85 -20.25 -25.8 -20.4 -25.65 -20.5 -25.55 -20.65 -25.5 Q-20.75 -25.4 -20.85 -25.4 L-20.95 -25.3 -21.1 -25.15 -21.25 -25.1 -21.35 -25.0 -21.55 -24.9 -21.6 -24.85 -21.7 -24.75 -21.8 -24.65 -21.9 -24.55 -22.05 -24.5 -22.1 -24.35 -22.25 -24.2 -22.45 -24.1 -22.55 -24.0 -22.7 -23.85 -22.75 -23.8 -22.85 -23.7 -22.95 -23.6 -23.05 -23.5 -23.15 -23.4 -23.4 -23.15 -23.5 -23.05 -23.6 -22.95 -23.7 -22.85 -23.75 -22.8 -23.8 -22.65 -23.85 -22.6 -23.95 -22.5 -24.05 -22.4 -24.15 -22.3 -24.25 -22.2 -24.25 -22.1 -24.35 -22.0 -24.45 -21.9 -24.45 -21.8 -24.55 -21.7 -24.6 -21.65 -24.7 -21.55 -24.7 -21.45 -24.8 -21.35 -24.9 -21.25 -25.0 -21.15 -25.0 -21.05 -25.05 -21.0 -25.15 -20.9 -25.15 -20.8 -25.25 -20.7 -25.4 -20.55 -25.45 -20.4 -25.6 -20.25 -25.65 -20.1 -25.75 -20.0 -25.8 -19.95 -25.9 -19.85 -25.95 -19.8 -25.95 -19.7 -26.0 -19.55 -26.05 -19.5 -26.1 -19.35 -26.15 -19.3 -26.25 -19.2 -26.35 -19.1 -26.35 -19.0 -26.4 -18.95 -26.5 -18.85 -26.6 -18.75 -26.7 -18.65 -26.75 -18.5 -26.8 -18.45 -26.9 -18.35 -27.0 -18.25 -27.0 -18.15 -27.05 -18.1 -26.95 -18.0 -26.9 -17.95 -26.75 -17.8 -26.6 -17.75 -26.5 -17.65 -26.45 -17.5 -26.3 -17.45 -26.2 -17.35 -26.15 -17.2 -26.05 -17.1 -25.9 -17.05 -25.8 -16.95 -25.65 -16.9 -25.55 -16.8 -25.45 -16.7 -25.35 -16.6 -25.2 -16.45 -25.05 -16.4 -24.95 -16.3 -24.95 -16.2 -24.8 -16.15 -24.65 -16.0 -24.55 -15.9 -24.5 -15.85 -24.4 -15.75 -24.25 -15.8 -24.1 -15.65 -23.95 -15.6 -23.85 -15.5 -23.75 -15.4 -23.7 -15.35 -23.55 -15.2 -23.45 -15.1 -23.2 -15.05 -23.0 -14.95 -22.95 -14.9 -22.8 -14.85 -22.7 -14.75 -22.55 -14.7 -22.4 -14.65 -22.25 -14.5 -22.15 -14.4 -22.05 -14.3 -21.95 -14.2 -21.85 -14.1 -21.6 -14.05 -21.35 -13.9 -21.2 -13.85 -21.0 -13.75 -20.9 -13.65 -20.8 -13.55 -20.75 -13.5 -20.65 -13.6 -20.55 -13.8 -20.6 -13.85 -20.5 -13.95 -20.35 -14.1 -20.25 -14.2 -20.25 -14.3 -20.15 -14.4 -20.1 -14.55 -19.95 -14.7 -19.85 -14.8 -19.75 -14.9 -19.6 -15.05 -19.5 -15.15 -19.5 -15.25 -19.5 -15.35 -19.4 -15.45 -19.3 -15.55 -19.3 -15.65 -19.2 -15.75 -19.1 -15.85 -18.95 -16.0 -18.85 -16.1 -18.8 -16.15 -18.75 -16.3 -18.6 -16.45 -18.4 -16.55 -18.3 -16.65 -18.3 -16.75 -18.2 -16.85 -18.1 -16.95 -18.0 -17.05 -18.0 -17.15 -17.9 -17.25 -17.8 -17.35 -17.7 -17.45 -17.6 -17.55 -17.45 -17.7 -17.35 -17.8 -17.25 -17.9 -17.2 -17.95 -17.1 -18.05 -17.1 -18.15 -17.1 -18.25 -17.05 -18.4 -17.0 -18.45 -16.9 -18.55 -16.8 -18.65 -16.6 -18.75 -16.6 -18.85 -16.5 -18.95 -16.35 -19.1 -16.15 -19.2 -16.0 -19.25 -15.9 -19.35 -15.75 -19.5 -15.7 -19.55 -15.55 -19.6 -15.4 -19.75 -15.3 -19.85 -15.2 -19.95 -15.1 -20.05 -15.05 -20.1 -14.95 -20.2 -14.85 -20.3 -14.75 -20.4 -14.45 -20.5 -14.35 -20.6 -14.25 -20.7 -14.15 -20.8 -14.05 -20.9 -13.95 -21.0 -13.8 -21.05 -13.55 -21.1 -13.45 -21.2 -13.3 -21.25 -13.2 -21.35 -13.0 -21.45 -12.85 -21.6 -12.7 -21.65 -12.55 -21.7 -12.4 -21.85 -12.25 -21.9 -12.1 -21.95 -11.9 -22.05 -11.8 -22.15 -11.85 -22.2 -11.95 -22.3 -11.95 -22.4 -12.05 -22.5 -12.1 -22.55 -12.15 -22.7 -12.25 -22.8 -12.3 -22.85 -12.35 -23.0 -12.45 -23.1 -12.5 -23.15 -12.6 -23.25 -12.7 -23.35 -12.7 -23.45 -12.85 -23.6 -12.9 -23.75 -13.0 -23.85 -12.95 -23.9 -13.1 -24.05 -13.25 -24.1 -13.3 -24.15 -13.4 -24.25 -13.45 -24.4 -13.45 -24.5 -13.5 -24.55 -13.5 -24.65 -13.6 -24.75 -13.7 -24.85 -13.8 -24.95 -13.8 -25.05 -13.85 -25.2 -13.95 -25.3 -14.1 -25.45 -14.15 -25.6 -14.15 -25.7 -14.2 -25.75 -14.2 -25.85 -14.3 -25.95 -14.4 -26.05 -14.45 -26.2 -14.5 -26.25 -14.55 -26.4 -14.6 -26.45 -14.7 -26.55 -14.7 -26.65 -14.7 -26.75 -14.8 -26.85 -14.95 -27.0 -14.95 -27.1 -15.05 -27.2 -15.05 -27.3 -15.15 -27.4 -15.15 -27.5 -15.2 -27.55 -15.2 -27.75 -15.2 -27.85 -15.3 -27.95 -15.35 -28.0 -15.4 -28.15 -15.45 -28.2 -15.55 -28.1 -15.7 -28.05 -15.9 -27.95 -16.1 -27.95 M-20.0 11.15 L-20.0 11.25 -19.95 11.3 -19.9 11.45 -19.75 11.6 -19.65 11.7 -19.55 11.8 -19.45 11.9 -19.35 12.0 -19.25 12.1 -19.25 12.2 -19.2 12.25 -19.1 12.35 -19.1 12.45 -19.05 12.6 -18.95 12.7 -18.8 12.85 -18.8 12.95 -18.75 13.0 -18.65 13.1 -18.55 13.2 -18.45 13.3 -18.45 13.4 -18.35 13.5 -18.3 13.55 -18.25 13.7 -18.2 13.75 -18.15 13.9 -18.0 14.05 -17.9 14.15 -17.85 14.3 -17.8 14.35 -17.7 14.45 -17.6 14.55 -17.5 14.65 -17.45 14.7 -17.35 14.8 -17.35 14.9 -17.2 15.05 -17.05 15.2 -17.0 15.25 -16.9 15.35 -16.8 15.45 -16.7 15.55 -16.65 15.6 -16.5 15.65 -16.35 15.8 -16.25 15.9 -16.15 16.0 -16.1 16.05 -15.95 16.2 -15.8 16.35 -15.7 16.45 -15.65 16.5 -15.55 16.6 -15.45 16.7 -15.3 16.85 -15.2 16.95 -15.05 17.0 -14.95 17.1 -14.85 17.2 -14.8 17.25 -14.65 17.4 -14.5 17.45 -14.4 17.55 -14.2 17.65 -14.0 17.85 -13.85 17.9 -13.65 18.0 -13.55 18.1 -13.45 18.2 -13.4 18.25 -13.3 18.35 -13.25 18.4 -13.1 18.45 -12.9 18.55 -12.8 18.65 -12.7 18.75 -12.45 18.8 -12.25 18.9 -12.15 19.0 -12.15 19.1 -12.05 19.2 -11.85 19.3 -11.75 19.4 -11.7 19.45 -11.6 19.55 -11.6 19.65 -11.55 19.8 -11.5 19.95 -11.5 20.05 -11.5 20.15 -11.5 20.25 -11.55 20.3 -11.6 20.45 -11.55 20.5 -11.55 20.6 -11.45 20.7 -11.5 20.75 -11.45 20.9 -11.5 21.05 -11.5 21.15 -11.5 21.25 -11.55 21.3 -11.6 21.45 -11.6 21.55 -11.7 21.65 -11.75 21.8 -11.75 21.9 -11.8 22.05 -11.85 22.1 -11.95 22.2 -12.0 22.25 -12.1 22.35 -12.1 22.45 -12.2 22.55 -12.25 22.7 -12.4 22.85 -12.5 22.95 -12.55 23.0 -12.6 23.15 -12.65 23.2 -12.65 23.3 -12.75 23.4 -12.85 23.5 -12.9 23.55 -13.0 23.65 -13.1 23.75 -13.1 23.85 -13.15 24.0 -13.1 24.05 -13.2 24.15 -13.25 24.2 -13.3 24.35 -13.35 24.4 -13.4 24.55 -13.5 24.65 -13.55 24.8 -13.65 24.9 -13.65 25.0 -13.65 25.1 -13.7 25.15 -13.75 25.3 -13.8 25.35 -13.85 25.5 -13.9 25.55 -14.0 25.65 -14.1 25.75 -14.1 25.85 -14.1 25.95 -14.15 26.0 -14.2 26.15 -14.25 26.2 -14.25 26.3 -14.3 26.45 -14.35 26.5 -14.45 26.6 -14.5 26.65 -14.6 26.75 -14.7 26.85 -14.8 26.95 -14.8 27.05 -14.9 27.15 -14.9 27.25 -15.0 27.35 -15.1 27.45 -15.2 27.55 -15.35 27.7 -15.45 27.8 -15.45 27.9 -15.55 28.0 -15.55 28.1 -15.65 28.2 -15.75 28.3 -15.8 28.35 -16.0 28.45 -16.15 28.5 -16.2 28.55 -16.3 28.65 -16.4 28.75 -16.5 28.85 -16.6 28.85 -16.75 28.9 -16.95 28.9 -17.2 28.95 -17.35 28.9 -17.55 28.8 -17.8 28.75 -18.0 28.65 -18.1 28.55 -18.35 28.5 -18.45 28.4 -18.6 28.25 -18.8 28.25 -19.0 28.15 -19.2 28.15 -19.4 27.95 -19.7 27.85 -19.75 27.8 -20.0 27.75 -20.15 27.7 -20.45 27.6 -20.55 27.5 -20.65 27.4 -20.8 27.35 -20.95 27.3 -21.25 27.2 -21.35 27.1 -21.5 27.05 -21.65 26.9 -21.8 26.85 -21.9 26.75 -22.0 26.65 -22.2 26.55 -22.3 26.45 -22.6 26.35 -22.7 26.25 -22.85 26.1 -23.05 26.0 -23.15 25.9 -23.3 25.75 -23.35 25.7 -23.45 25.6 -23.55 25.5 -23.65 25.4 -23.75 25.3 -24.0 25.05 -24.15 24.9 -24.2 24.85 -24.3 24.75 -24.4 24.65 -24.5 24.55 -24.6 24.45 -24.75 24.3 -24.85 24.2 -24.95 24.1 -25.05 24.0 -25.15 23.9 -25.2 23.85 -25.35 23.7 -25.5 23.55 -25.6 23.45 -25.6 23.35 -25.7 23.25 -25.75 23.2 -25.9 23.05 -25.95 23.0 -26.05 22.9 -26.05 22.8 -26.25 22.7 -26.3 22.65 -26.4 22.55 -26.45 22.4 -26.5 22.35 -26.5 22.15 -26.65 22.1 -26.75 22.0 -26.85 21.9 -26.9 21.75 -26.95 21.7 -27.0 21.55 -27.05 21.4 -27.15 21.3 -27.2 21.25 -27.15 21.1 -27.25 21.0 -27.3 20.95 -27.4 20.85 -27.4 20.75 -27.5 20.65 -27.5 20.55 -27.55 20.5 -27.6 20.35 -27.7 20.25 -27.75 20.2 -27.8 20.05 -27.85 20.0 -27.95 19.9 -28.0 19.85 -27.95 19.7 -28.0 19.65 -28.15 19.5 -28.25 19.4 -28.25 19.3 -28.35 19.2 -28.45 19.1 -28.5 18.95 -28.6 18.85 -28.6 18.75 -28.65 18.7 -28.75 18.6 -28.85 18.5 -28.95 18.4 -29.05 18.3 -29.1 18.25 -29.15 18.1 -29.1 18.05 -29.15 17.9 -29.2 17.85 -29.3 17.75 -29.3 17.65 -29.4 17.55 -29.5 17.45 -29.6 17.35 -29.6 17.25 -29.65 17.2 -29.65 17.1 -29.65 17.0 -29.7 16.95 -29.8 16.85 -29.8 16.75 -29.85 16.6 -29.9 16.55 -29.9 16.45 -29.95 16.4 -29.95 16.2 -30.05 16.1 -29.95 16.0 -30.0 15.85 -30.0 15.75 -30.05 15.6 -30.0 15.45 -30.0 15.15 -29.95 15.1 -30.0 14.95 -30.0 14.85 -29.9 14.75 -29.85 14.7 -29.75 14.6 -29.65 14.5 -29.55 14.4 -29.55 14.3 -29.55 14.2 -29.45 14.1 -29.35 14.0 -29.2 13.95 -29.1 13.85 -29.05 13.7 -28.9 13.55 -28.75 13.5 -28.5 13.35 -28.4 13.25 -28.3 13.15 -28.1 13.05 -27.85 13.0 -27.75 12.9 -27.65 12.9 -27.5 12.85 -27.4 12.85 -27.25 12.8 -27.15 12.7 -27.0 12.55 -26.8 12.55 -26.6 12.45 -26.4 12.35 -26.3 12.35 -26.25 12.3 -26.15 12.2 -25.95 12.2 -25.65 12.2 -25.35 12.1 -25.15 11.9 -24.9 11.85 -24.8 11.85 -24.75 11.8 -24.65 11.7 -24.45 11.7 -24.35 11.6 -24.15 11.5 -24.05 11.4 -23.95 11.3 -23.85 11.2 -23.65 11.1 -23.4 10.85 -23.3 10.75 -23.15 10.7 -23.1 10.55 -23.0 10.45 -22.95 10.4 -22.8 10.25 -22.65 10.2 -22.55 10.1 -22.35 10.0 -22.2 9.95 -22.15 9.9 -21.95 9.9 -21.9 9.85 -21.55 9.9 -21.4 9.95 -21.2 9.95 -21.1 10.05 -20.95 10.2 -20.9 10.25 -20.9 10.35 -20.8 10.45 -20.85 10.5 -20.65 10.5 -20.55 10.6 -20.35 10.7 -20.25 10.8 -20.2 10.85 -20.15 11.0 -20.1 11.05 -20.0 11.15 M-20.2 13.75 L-20.3 13.65 -20.4 13.55 -20.4 13.45 -20.5 13.35 -20.65 13.2 -20.75 13.1 -20.85 13.0 -20.95 12.9 -21.0 12.85 -20.95 12.7 -21.0 12.65 -21.15 12.5 -21.25 12.4 -21.45 12.4 -21.55 12.5 -21.75 12.6 -21.85 12.7 -21.95 12.8 -21.95 12.9 -22.05 13.0 -22.2 13.05 -22.3 13.15 -22.35 13.2 -22.7 13.25 -22.85 13.4 -22.95 13.5 -23.1 13.65 -23.25 13.7 -23.5 13.65 -23.65 13.8 -23.75 13.9 -23.85 14.0 -23.95 14.0 -24.1 14.05 -24.35 14.1 -24.5 14.15 -24.7 14.25 -24.85 14.3 -24.9 14.35 -25.1 14.35 -25.15 14.4 -25.35 14.4 -25.4 14.45 -25.5 14.45 -25.55 14.5 -25.8 14.55 -25.9 14.65 -25.95 14.6 -26.1 14.65 -26.25 14.7 -26.45 14.7 -26.65 14.8 -26.75 14.8 -26.9 14.85 -27.05 14.9 -27.2 14.95 -27.25 15.0 -27.5 15.05 -27.75 15.3 -27.85 15.4 -27.85 15.5 -27.85 15.6 -27.8 15.65 -27.8 15.75 -27.85 15.9 -27.8 15.95 -27.9 16.05 -27.9 16.15 -27.95 16.2 -28.1 16.35 -28.0 16.45 -27.85 16.6 -27.85 16.7 -27.85 16.8 -27.8 16.85 -27.7 16.95 -27.75 17.0 -27.75 17.1 -27.7 17.15 -27.65 17.3 -27.6 17.35 -27.5 17.45 -27.4 17.55 -27.3 17.65 -27.25 17.7 -27.2 17.85 -27.2 17.95 -27.15 18.0 -27.05 18.1 -27.05 18.2 -26.95 18.3 -26.95 18.4 -26.85 18.5 -26.75 18.6 -26.7 18.65 -26.6 18.75 -26.55 18.9 -26.45 19.0 -26.4 19.15 -26.4 19.25 -26.3 19.35 -26.3 19.45 -26.2 19.55 -26.1 19.65 -26.15 19.7 -26.05 19.8 -26.0 19.85 -25.95 20.0 -25.85 20.1 -25.85 20.3 -25.75 20.4 -25.7 20.45 -25.6 20.55 -25.6 20.65 -25.5 20.75 -25.35 20.9 -25.3 21.05 -25.2 21.15 -25.15 21.3 -25.15 21.4 -25.05 21.5 -24.9 21.55 -24.75 21.7 -24.7 21.75 -24.7 21.85 -24.6 21.95 -24.6 22.05 -24.4 22.25 -24.3 22.35 -24.25 22.4 -24.2 22.55 -24.2 22.65 -24.1 22.75 -24.0 22.85 -23.75 23.1 -23.65 23.2 -23.55 23.3 -23.5 23.35 -23.4 23.45 -23.25 23.6 -23.1 23.75 -23.0 23.85 -22.9 23.95 -22.8 24.05 -22.7 24.15 -22.65 24.2 -22.55 24.3 -22.4 24.45 -22.2 24.65 -21.95 24.7 -21.85 24.8 -21.75 24.9 -21.55 25.0 -21.4 25.05 -21.3 25.15 -21.1 25.25 -21.0 25.35 -20.9 25.45 -20.85 25.5 -20.7 25.55 Q-20.65 25.5 -20.55 25.6 L-20.45 25.7 -20.3 25.75 -20.1 25.85 -19.9 25.95 -19.8 26.05 -19.7 26.15 -19.35 26.2 -19.15 26.2 -18.95 26.3 -18.8 26.35 -18.7 26.45 -18.6 26.55 -18.45 26.6 -18.35 26.6 -18.25 26.7 -18.05 26.7 -17.9 26.75 -17.75 26.8 -17.55 26.9 -17.5 26.95 -17.35 27.1 -17.2 27.15 -17.05 27.3 -16.85 27.1 -16.8 26.95 -16.75 26.9 -16.7 26.75 -16.7 26.65 -16.65 26.6 -16.55 26.5 -16.45 26.4 -16.35 26.3 -16.25 26.2 -16.15 26.1 -16.1 26.05 -16.1 25.85 -16.0 25.75 -15.75 25.5 -15.65 25.4 -15.6 25.25 -15.65 25.2 -15.6 25.05 -15.55 25.0 -15.45 24.9 -15.35 24.8 -15.35 24.7 -15.35 24.6 -15.3 24.55 -15.2 24.45 -15.2 24.35 -15.1 24.25 -15.1 24.15 -15.05 24.1 -15.0 23.95 -14.9 23.85 -14.9 23.75 -14.8 23.65 -14.8 23.55 -14.75 23.5 -14.75 23.4 -14.65 23.3 -14.65 23.2 -14.55 23.1 -14.5 23.05 -14.5 22.95 -14.35 22.8 -14.3 22.75 -14.3 22.65 -14.2 22.55 -14.15 22.4 -14.05 22.3 -13.95 22.2 -13.85 22.1 -13.75 22.0 -13.75 21.9 -13.7 21.85 -13.65 21.7 -13.55 21.6 -13.5 21.55 -13.5 21.45 -13.45 21.3 -13.45 21.2 -13.55 21.1 -13.65 21.0 -13.65 20.9 -13.7 20.85 -13.7 20.75 -13.7 20.65 -13.7 20.45 -13.7 20.35 -13.7 20.25 -13.65 20.2 -13.8 20.05 -13.85 20.0 -14.0 19.85 -14.05 19.8 -14.25 19.7 -14.35 19.6 -14.4 19.55 -14.55 19.4 -14.7 19.35 -14.8 19.25 -15.0 19.15 -15.1 19.05 -15.3 18.95 -15.5 18.75 -15.75 18.7 -15.85 18.6 -15.95 18.5 -16.1 18.35 -16.2 18.25 -16.3 18.15 -16.4 18.05 -16.5 17.95 -16.6 17.85 -16.7 17.75 -16.95 17.5 -17.15 17.4 -17.25 17.3 -17.35 17.2 -17.45 17.1 -17.55 17.0 -17.65 16.9 -17.7 16.85 -17.85 16.7 -18.1 16.45 -18.2 16.35 -18.3 16.25 -18.4 16.15 -18.5 16.05 -18.55 16.0 -18.7 15.85 -18.8 15.75 -18.9 15.65 -18.95 15.5 -19.1 15.35 -19.2 15.25 -19.3 15.15 -19.4 15.05 -19.5 14.95 -19.55 14.9 -19.55 14.8 -19.6 14.65 -19.65 14.6 -19.75 14.5 -19.8 14.35 -19.85 14.2 -19.95 14.1 -20.0 14.05 -20.05 13.9 -20.2 13.75" fill="#000000" fill-rule="evenodd" stroke="none"/>
    <path d="M20.55 -25.6 L20.75 -25.6 20.95 -25.5 20.9 -25.45 21.05 -25.3 21.15 -25.2 21.3 -25.15 21.45 -25.1 21.5 -25.05 21.55 -24.9 21.6 -24.85 21.65 -24.7 21.75 -24.6 21.85 -24.5 22.0 -24.45 22.1 -24.35 22.2 -24.25 22.3 -24.15 22.4 -24.05 22.4 -23.95 22.5 -23.85 22.45 -23.8 22.55 -23.7 22.7 -23.55 22.85 -23.5 23.0 -23.45 23.15 -23.4 23.2 -23.35 23.2 -23.25 23.2 -23.15 23.3 -23.05 23.4 -22.95 23.55 -22.9 23.75 -22.8 24.15 -22.4 24.25 -22.3 24.35 -22.2 24.45 -22.1 24.5 -22.05 24.65 -21.9 24.65 -21.8 24.7 -21.75 24.75 -21.6 24.85 -21.5 25.0 -21.35 25.1 -21.25 25.1 -21.15 25.2 -21.05 25.3 -20.95 25.4 -20.85 25.45 -20.8 25.5 -20.65 25.55 -20.6 25.6 -20.45 25.65 -20.4 25.75 -20.3 25.85 -20.2 25.9 -20.15 25.9 -20.05 26.05 -19.9 26.1 -19.85 26.2 -19.75 26.2 -19.65 26.25 -19.6 26.3 -19.45 26.3 -19.35 26.4 -19.25 26.45 -19.2 26.55 -19.1 26.65 -19.0 26.7 -18.95 26.8 -18.85 26.8 -18.75 26.9 -18.65 27.0 -18.55 27.1 -18.45 27.2 -18.35 27.25 -18.2 27.3 -18.15 27.3 -18.05 27.4 -17.95 27.35 -17.9 27.45 -17.8 27.5 -17.65 27.55 -17.6 27.65 -17.5 27.7 -17.45 27.75 -17.3 27.7 -17.25 27.8 -17.15 27.85 -17.0 27.9 -16.95 28.0 -16.85 28.0 -16.75 28.05 -16.6 28.15 -16.5 28.2 -16.35 28.2 -16.25 28.3 -16.15 28.35 -16.0 28.3 -15.95 28.35 -15.8 28.35 -15.7 28.3 -15.65 28.35 -15.5 28.3 -15.45 28.35 -15.3 28.4 -15.25 28.3 -15.15 28.35 -15.1 28.25 -15.1 28.15 -15.0 28.05 -14.9 27.9 -14.85 27.75 -14.8 27.65 -14.8 27.55 -14.7 27.3 -14.65 27.1 -14.65 26.95 -14.6 26.8 -14.45 26.65 -14.4 26.45 -14.3 26.25 -14.3 26.15 -14.2 25.9 -14.15 25.75 -14.1 25.7 -14.05 25.55 -14.0 25.45 -13.9 25.2 -13.85 25.05 -13.8 24.9 -13.75 24.7 -13.65 24.55 -13.6 24.35 -13.5 24.2 -13.45 24.05 -13.4 Q23.95 -13.3 23.85 -13.3 L23.6 -13.25 23.45 -13.2 23.35 -13.1 Q23.25 -13.0 23.15 -13.0 L22.85 -12.9 22.7 -12.85 22.5 -12.75 22.4 -12.65 22.25 -12.6 22.1 -12.55 21.95 -12.5 21.8 -12.45 21.65 -12.4 21.55 -12.4 21.35 -12.5 21.35 -12.6 21.35 -12.7 21.4 -12.85 21.35 -13.0 21.35 -13.2 21.3 -13.25 21.2 -13.35 21.2 -13.45 21.1 -13.55 21.0 -13.65 21.0 -13.75 20.9 -13.85 20.85 -13.9 20.75 -14.0 20.75 -14.1 20.75 -14.2 20.65 -14.3 20.5 -14.45 20.4 -14.55 20.4 -14.65 20.35 -14.7 20.3 -14.85 20.2 -14.95 20.2 -15.05 20.1 -15.15 20.05 -15.2 19.95 -15.3 19.95 -15.4 19.95 -15.5 19.8 -15.65 Q19.75 -15.6 19.65 -15.7 L19.55 -15.8 19.55 -15.9 19.45 -16.0 19.35 -16.1 19.2 -16.25 19.1 -16.35 19.0 -16.45 18.85 -16.6 18.75 -16.7 18.65 -16.8 18.55 -16.9 18.45 -17.0 18.35 -17.1 18.3 -17.15 18.3 -17.25 18.15 -17.4 18.2 -17.45 18.15 -17.6 18.05 -17.7 18.0 -17.85 17.9 -17.95 17.85 -18.0 17.8 -18.15 17.7 -18.25 17.5 -18.35 17.45 -18.4 17.35 -18.5 17.3 -18.65 17.25 -18.7 17.05 -18.8 16.9 -18.85 16.85 -19.0 16.85 -19.1 16.75 -19.2 16.6 -19.25 16.4 -19.35 16.3 -19.45 16.0 -19.55 15.85 -19.6 15.7 -19.75 15.55 -19.9 15.35 -20.0 15.2 -20.05 15.05 -20.2 14.95 -20.3 14.8 -20.35 Q14.6 -20.35 14.5 -20.45 L14.25 -20.5 14.1 -20.55 13.95 -20.6 13.65 -20.6 13.45 -20.6 13.2 -20.65 13.25 -20.8 13.2 -20.85 13.3 -20.95 13.45 -21.1 13.55 -21.2 13.65 -21.3 13.8 -21.45 13.85 -21.5 13.85 -21.6 13.95 -21.7 13.95 -21.8 14.0 -21.85 14.1 -21.95 14.2 -22.05 14.2 -22.15 14.3 -22.25 14.3 -22.35 14.35 -22.5 14.5 -22.55 14.55 -22.6 14.7 -22.75 14.7 -22.85 14.8 -22.95 14.95 -23.0 15.05 -23.1 15.15 -23.2 15.15 -23.3 15.25 -23.4 15.35 -23.5 15.4 -23.55 15.5 -23.65 15.6 -23.75 15.6 -23.85 15.65 -23.9 15.8 -24.05 15.9 -24.15 15.9 -24.25 16.0 -24.35 16.1 -24.45 16.15 -24.5 16.25 -24.6 16.35 -24.7 16.4 -24.75 16.4 -24.85 16.5 -24.95 16.55 -25.1 16.6 -25.15 16.7 -25.25 16.8 -25.35 16.8 -25.45 16.9 -25.55 17.05 -25.7 17.15 -25.8 17.25 -25.9 17.25 -26.0 17.3 -26.15 17.4 -26.25 17.5 -26.35 17.45 -26.5 17.45 -26.6 17.5 -26.65 17.6 -26.75 17.6 -26.85 17.7 -26.95 17.7 -27.05 17.75 -27.1 17.8 -27.25 17.85 -27.3 18.0 -27.25 18.2 -27.15 18.3 -27.05 18.5 -26.95 18.65 -26.9 18.75 -26.8 18.95 -26.7 19.05 -26.6 19.15 -26.5 19.25 -26.4 19.45 -26.4 19.55 -26.3 19.65 -26.2 19.8 -26.15 20.0 -26.05 20.15 -25.9 Q20.25 -25.8 20.35 -25.8 L20.55 -25.6 M26.7 16.55 L26.85 16.7 26.95 16.8 27.15 16.9 27.3 16.95 27.4 16.95 27.25 17.1 27.3 17.15 27.2 17.25 27.2 17.35 27.1 17.45 27.1 17.55 27.05 17.6 27.0 17.75 26.85 17.9 26.85 18.0 26.8 18.15 26.75 18.2 26.65 18.3 26.65 18.4 26.55 18.5 26.55 18.6 26.45 18.7 26.3 18.85 26.25 19.0 26.0 19.25 25.9 19.35 25.8 19.45 25.75 19.5 25.75 19.6 25.65 19.7 25.55 19.8 25.45 19.9 25.35 20.0 25.35 20.1 25.25 20.2 25.3 20.25 25.2 20.35 25.15 20.5 25.0 20.55 24.95 20.6 24.8 20.75 24.8 20.85 24.75 20.9 24.65 21.0 24.55 21.1 24.45 21.2 24.45 21.3 24.35 21.4 24.35 21.5 24.3 21.65 24.2 21.75 24.1 21.85 24.05 21.9 24.0 22.05 24.0 22.15 23.9 22.25 23.8 22.35 23.7 22.45 23.6 22.55 23.45 22.6 23.35 22.7 23.25 22.8 23.15 22.9 22.9 23.15 22.8 23.25 22.75 23.4 22.7 23.45 22.6 23.55 22.6 23.65 22.45 23.7 22.35 23.8 22.25 23.9 22.1 24.05 22.0 24.15 21.8 24.15 21.75 24.2 21.65 24.3 21.6 24.35 21.4 24.45 21.3 24.55 21.2 24.65 21.1 24.75 21.0 24.85 20.9 24.95 20.8 25.05 20.65 25.2 20.4 25.25 20.3 25.35 20.15 25.5 20.1 25.55 20.1 25.65 20.0 25.75 19.95 25.9 19.8 26.05 19.7 26.15 19.5 26.25 19.3 26.35 19.2 26.45 19.05 26.5 18.9 26.65 18.75 26.7 18.65 26.8 18.5 26.85 18.35 26.9 18.25 27.0 18.05 27.1 17.9 27.15 17.8 27.25 17.7 27.35 17.5 27.45 17.4 27.55 17.3 27.65 17.2 27.75 16.95 27.8 16.9 27.85 16.8 27.85 16.7 27.95 16.5 28.05 16.3 28.15 16.25 28.2 16.1 28.25 15.9 28.35 15.85 28.4 15.8 28.25 15.8 28.15 15.7 28.05 15.65 27.9 15.65 27.8 15.6 27.65 15.5 27.55 15.4 27.45 15.45 27.3 15.4 27.25 15.4 27.15 15.4 27.05 15.35 27.0 15.35 26.9 15.3 26.75 15.3 26.65 15.25 26.6 15.15 26.5 15.1 26.45 15.05 26.3 15.05 26.2 15.0 26.15 14.95 26.0 14.9 25.95 14.8 25.85 14.8 25.75 14.75 25.6 14.7 25.55 14.6 25.45 14.55 25.4 14.45 25.3 14.45 25.2 14.4 25.05 14.35 25.0 14.25 24.9 14.15 24.8 14.15 24.7 14.05 24.6 14.05 24.5 13.9 24.35 13.8 24.25 13.8 24.15 13.7 24.05 13.6 23.95 13.5 23.85 13.45 23.8 13.4 23.65 13.25 23.5 13.15 23.4 13.15 23.3 13.05 23.2 13.05 23.1 13.0 23.05 12.95 22.9 12.8 22.75 12.7 22.65 12.55 22.5 12.5 22.35 12.4 22.25 12.4 22.15 12.3 22.05 12.35 22.0 12.25 21.9 12.3 21.85 12.25 21.7 12.2 21.65 12.35 21.5 12.4 21.45 12.5 21.35 12.6 21.25 12.85 21.2 13.0 21.15 13.1 21.05 13.35 20.8 13.45 20.7 13.6 20.65 13.8 20.55 13.95 20.4 14.1 20.35 14.3 20.25 14.5 20.15 14.65 20.0 14.8 19.85 14.9 19.75 15.1 19.65 15.25 19.6 15.35 19.5 15.55 19.4 15.65 19.3 15.85 19.2 15.9 19.15 16.1 19.05 16.25 19.0 16.35 19.0 16.45 18.9 16.6 18.75 16.65 18.7 16.75 18.6 16.85 18.5 17.05 18.4 17.15 18.3 17.25 18.2 17.4 18.15 17.5 18.05 17.6 17.95 17.7 17.85 17.8 17.75 17.9 17.65 18.0 17.55 18.15 17.4 18.3 17.25 18.35 17.2 18.45 17.1 18.55 17.0 18.6 16.95 18.75 16.8 18.85 16.7 18.95 16.6 19.0 16.55 19.05 16.4 19.1 16.35 19.2 16.25 19.3 16.15 19.4 16.05 19.45 16.0 19.5 15.85 19.6 15.75 19.7 15.65 19.85 15.5 19.95 15.4 20.1 15.25 20.15 15.1 20.2 15.05 20.2 14.95 20.25 14.8 20.35 14.7 20.5 14.65 20.55 14.5 20.65 14.4 20.7 14.25 20.85 14.1 20.95 14.0 21.05 13.9 21.05 13.8 21.15 13.7 21.2 13.65 21.25 13.5 21.2 13.45 21.3 13.35 21.45 13.4 21.55 13.5 21.75 13.6 21.9 13.65 22.05 13.7 22.2 13.85 22.3 13.95 22.5 14.05 22.7 14.25 22.85 14.3 22.9 14.35 23.05 14.4 23.15 14.5 23.35 14.6 23.45 14.7 23.65 14.8 23.8 14.85 23.95 15.0 24.1 15.05 24.2 15.15 24.3 15.25 24.45 15.3 24.7 15.35 24.8 15.35 24.9 15.35 25.0 15.45 25.2 15.55 25.3 15.65 25.4 15.75 25.6 15.75 25.7 15.85 25.85 15.9 25.95 16.0 26.05 16.1 26.3 16.15 26.35 16.2 26.45 16.3 26.55 16.4 26.7 16.55 M-16.1 -27.95 L-15.9 -27.95 -15.7 -28.05 -15.55 -28.1 -15.45 -28.2 -15.4 -28.15 -15.35 -28.0 -15.3 -27.95 -15.2 -27.85 -15.2 -27.75 -15.2 -27.55 -15.15 -27.5 -15.15 -27.4 -15.05 -27.3 -15.05 -27.2 -14.95 -27.1 -14.95 -27.0 -14.8 -26.85 -14.7 -26.75 -14.7 -26.65 -14.7 -26.55 -14.6 -26.45 -14.55 -26.4 -14.5 -26.25 -14.45 -26.2 -14.4 -26.05 -14.3 -25.95 -14.2 -25.85 -14.2 -25.75 -14.15 -25.7 -14.15 -25.6 -14.1 -25.45 -13.95 -25.3 -13.85 -25.2 -13.8 -25.05 -13.8 -24.95 -13.7 -24.85 -13.6 -24.75 -13.5 -24.65 -13.5 -24.55 -13.45 -24.5 -13.45 -24.4 -13.4 -24.25 -13.3 -24.15 -13.25 -24.1 -13.1 -24.05 -12.95 -23.9 -13.0 -23.85 -12.9 -23.75 -12.85 -23.6 -12.7 -23.45 -12.7 -23.35 -12.6 -23.25 -12.5 -23.15 -12.45 -23.1 -12.35 -23.0 -12.3 -22.85 -12.25 -22.8 -12.15 -22.7 -12.1 -22.55 -12.05 -22.5 -11.95 -22.4 -11.95 -22.3 -11.85 -22.2 -11.8 -22.15 -11.9 -22.05 -12.1 -21.95 -12.25 -21.9 -12.4 -21.85 -12.55 -21.7 -12.7 -21.65 -12.85 -21.6 -13.0 -21.45 -13.2 -21.35 -13.3 -21.25 -13.45 -21.2 -13.55 -21.1 -13.8 -21.05 -13.95 -21.0 -14.05 -20.9 -14.15 -20.8 -14.25 -20.7 -14.35 -20.6 -14.45 -20.5 -14.75 -20.4 -14.85 -20.3 -14.95 -20.2 -15.05 -20.1 -15.1 -20.05 -15.2 -19.95 -15.3 -19.85 -15.4 -19.75 -15.55 -19.6 -15.7 -19.55 -15.75 -19.5 -15.9 -19.35 -16.0 -19.25 -16.15 -19.2 -16.35 -19.1 -16.5 -18.95 -16.6 -18.85 -16.6 -18.75 -16.8 -18.65 -16.9 -18.55 -17.0 -18.45 -17.05 -18.4 -17.1 -18.25 -17.1 -18.15 -17.1 -18.05 -17.2 -17.95 -17.25 -17.9 -17.35 -17.8 -17.45 -17.7 -17.6 -17.55 -17.7 -17.45 -17.8 -17.35 -17.9 -17.25 -18.0 -17.15 -18.0 -17.05 -18.1 -16.95 -18.2 -16.85 -18.3 -16.75 -18.3 -16.65 -18.4 -16.55 -18.6 -16.45 -18.75 -16.3 -18.8 -16.15 -18.85 -16.1 -18.95 -16.0 -19.1 -15.85 -19.2 -15.75 -19.3 -15.65 -19.3 -15.55 -19.4 -15.45 -19.5 -15.35 -19.5 -15.25 -19.5 -15.15 -19.6 -15.05 -19.75 -14.9 -19.85 -14.8 -19.95 -14.7 -20.1 -14.55 -20.15 -14.4 -20.25 -14.3 -20.25 -14.2 -20.35 -14.1 -20.5 -13.95 -20.6 -13.85 -20.55 -13.8 -20.65 -13.6 -20.75 -13.5 -20.8 -13.55 -20.9 -13.65 -21.0 -13.75 -21.2 -13.85 -21.35 -13.9 -21.6 -14.05 -21.85 -14.1 -21.95 -14.2 -22.05 -14.3 -22.15 -14.4 -22.25 -14.5 -22.4 -14.65 -22.55 -14.7 -22.7 -14.75 -22.8 -14.85 -22.95 -14.9 -23.0 -14.95 -23.2 -15.05 -23.45 -15.1 -23.55 -15.2 -23.7 -15.35 -23.75 -15.4 -23.85 -15.5 -23.95 -15.6 -24.1 -15.65 -24.25 -15.8 -24.4 -15.75 -24.5 -15.85 -24.55 -15.9 -24.65 -16.0 -24.8 -16.15 -24.95 -16.2 -24.95 -16.3 -25.05 -16.4 -25.2 -16.45 -25.35 -16.6 -25.45 -16.7 -25.55 -16.8 -25.65 -16.9 -25.8 -16.95 -25.9 -17.05 -26.05 -17.1 -26.15 -17.2 -26.2 -17.35 -26.3 -17.45 -26.45 -17.5 -26.5 -17.65 -26.6 -17.75 -26.75 -17.8 -26.9 -17.95 -26.95 -18.0 -27.05 -18.1 -27.0 -18.15 -27.0 -18.25 -26.9 -18.35 -26.8 -18.45 -26.75 -18.5 -26.7 -18.65 -26.6 -18.75 -26.5 -18.85 -26.4 -18.95 -26.35 -19.0 -26.35 -19.1 -26.25 -19.2 -26.15 -19.3 -26.1 -19.35 -26.05 -19.5 -26.0 -19.55 -25.95 -19.7 -25.95 -19.8 -25.9 -19.85 -25.8 -19.95 -25.75 -20.0 -25.65 -20.1 -25.6 -20.25 -25.45 -20.4 -25.4 -20.55 -25.25 -20.7 -25.15 -20.8 -25.15 -20.9 -25.05 -21.0 -25.0 -21.05 -25.0 -21.15 -24.9 -21.25 -24.8 -21.35 -24.7 -21.45 -24.7 -21.55 -24.6 -21.65 -24.55 -21.7 -24.45 -21.8 -24.45 -21.9 -24.35 -22.0 -24.25 -22.1 -24.25 -22.2 -24.15 -22.3 -24.05 -22.4 -23.95 -22.5 -23.85 -22.6 -23.8 -22.65 -23.75 -22.8 -23.7 -22.85 -23.6 -22.95 -23.5 -23.05 -23.4 -23.15 -23.15 -23.4 -23.05 -23.5 -22.95 -23.6 -22.85 -23.7 -22.75 -23.8 -22.7 -23.85 -22.55 -24.0 -22.45 -24.1 -22.25 -24.2 -22.1 -24.35 -22.05 -24.5 -21.9 -24.55 -21.8 -24.65 -21.7 -24.75 -21.6 -24.85 -21.55 -24.9 -21.35 -25.0 -21.25 -25.1 -21.1 -25.15 -20.95 -25.3 -20.85 -25.4 Q-20.75 -25.4 -20.65 -25.5 L-20.5 -25.55 -20.4 -25.65 -20.25 -25.8 -20.1 -25.85 -19.85 -25.9 -19.75 -26.0 -19.6 -26.15 -19.45 -26.2 -19.35 -26.3 -19.1 -26.35 -19.0 -26.45 -18.9 -26.55 -18.7 -26.65 -18.55 -26.7 -18.35 -26.8 -18.2 -26.85 -18.0 -26.95 -17.85 -27.0 -17.8 -27.05 -17.7 -27.15 -17.5 -27.15 -17.45 -27.2 -17.3 -27.25 -17.2 -27.35 -17.05 -27.4 -16.85 -27.5 -16.75 -27.6 -16.5 -27.65 -16.4 -27.75 -16.3 -27.85 -16.1 -27.95 M-20.2 13.75 L-20.05 13.9 -20.0 14.05 -19.95 14.1 -19.85 14.2 -19.8 14.35 -19.75 14.5 -19.65 14.6 -19.6 14.65 -19.55 14.8 -19.55 14.9 -19.5 14.95 -19.4 15.05 -19.3 15.15 -19.2 15.25 -19.1 15.35 -18.95 15.5 -18.9 15.65 -18.8 15.75 -18.7 15.85 -18.55 16.0 -18.5 16.05 -18.4 16.15 -18.3 16.25 -18.2 16.35 -18.1 16.45 -17.85 16.7 -17.7 16.85 -17.65 16.9 -17.55 17.0 -17.45 17.1 -17.35 17.2 -17.25 17.3 -17.15 17.4 -16.95 17.5 -16.7 17.75 -16.6 17.85 -16.5 17.95 -16.4 18.05 -16.3 18.15 -16.2 18.25 -16.1 18.35 -15.95 18.5 -15.85 18.6 -15.75 18.7 -15.5 18.75 -15.3 18.95 -15.1 19.05 -15.0 19.15 -14.8 19.25 -14.7 19.35 -14.55 19.4 -14.4 19.55 -14.35 19.6 -14.25 19.7 -14.05 19.8 -14.0 19.85 -13.85 20.0 -13.8 20.05 -13.65 20.2 -13.7 20.25 -13.7 20.35 -13.7 20.45 -13.7 20.65 -13.7 20.75 -13.7 20.85 -13.65 20.9 -13.65 21.0 -13.55 21.1 -13.45 21.2 -13.45 21.3 -13.5 21.45 -13.5 21.55 -13.55 21.6 -13.65 21.7 -13.7 21.85 -13.75 21.9 -13.75 22.0 -13.85 22.1 -13.95 22.2 -14.05 22.3 -14.15 22.4 -14.2 22.55 -14.3 22.65 -14.3 22.75 -14.35 22.8 -14.5 22.95 -14.5 23.05 -14.55 23.1 -14.65 23.2 -14.65 23.3 -14.75 23.4 -14.75 23.5 -14.8 23.55 -14.8 23.65 -14.9 23.75 -14.9 23.85 -15.0 23.95 -15.05 24.1 -15.1 24.15 -15.1 24.25 -15.2 24.35 -15.2 24.45 -15.3 24.55 -15.35 24.6 -15.35 24.7 -15.35 24.8 -15.45 24.9 -15.55 25.0 -15.6 25.05 -15.65 25.2 -15.6 25.25 -15.65 25.4 -15.75 25.5 -16.0 25.75 -16.1 25.85 -16.1 26.05 -16.15 26.1 -16.25 26.2 -16.35 26.3 -16.45 26.4 -16.55 26.5 -16.65 26.6 -16.7 26.65 -16.7 26.75 -16.75 26.9 -16.8 26.95 -16.85 27.1 -17.05 27.3 -17.2 27.15 -17.35 27.1 -17.5 26.95 -17.55 26.9 -17.75 26.8 -17.9 26.75 -18.05 26.7 -18.25 26.7 -18.35 26.6 -18.45 26.6 -18.6 26.55 -18.7 26.45 -18.8 26.35 -18.95 26.3 -19.15 26.2 -19.35 26.2 -19.7 26.15 -19.8 26.05 -19.9 25.95 -20.1 25.85 -20.3 25.75 -20.45 25.7 -20.55 25.6 Q-20.65 25.5 -20.7 25.55 L-20.85 25.5 -20.9 25.45 -21.0 25.35 -21.1 25.25 -21.3 25.15 -21.4 25.05 -21.55 25.0 -21.75 24.9 -21.85 24.8 -21.95 24.7 -22.2 24.65 -22.4 24.45 -22.55 24.3 -22.65 24.2 -22.7 24.15 -22.8 24.05 -22.9 23.95 -23.0 23.85 -23.1 23.75 -23.25 23.6 -23.4 23.45 -23.5 23.35 -23.55 23.3 -23.65 23.2 -23.75 23.1 -24.0 22.85 -24.1 22.75 -24.2 22.65 -24.2 22.55 -24.25 22.4 -24.3 22.35 -24.4 22.25 -24.6 22.05 -24.6 21.95 -24.7 21.85 -24.7 21.75 -24.75 21.7 -24.9 21.55 -25.05 21.5 -25.15 21.4 -25.15 21.3 -25.2 21.15 -25.3 21.05 -25.35 20.9 -25.5 20.75 -25.6 20.65 -25.6 20.55 -25.7 20.45 -25.75 20.4 -25.85 20.3 -25.85 20.1 -25.95 20.0 -26.0 19.85 -26.05 19.8 -26.15 19.7 -26.1 19.65 -26.2 19.55 -26.3 19.45 -26.3 19.35 -26.4 19.25 -26.4 19.15 -26.45 19.0 -26.55 18.9 -26.6 18.75 -26.7 18.65 -26.75 18.6 -26.85 18.5 -26.95 18.4 -26.95 18.3 -27.05 18.2 -27.05 18.1 -27.15 18.0 -27.2 17.95 -27.2 17.85 -27.25 17.7 -27.3 17.65 -27.4 17.55 -27.5 17.45 -27.6 17.35 -27.65 17.3 -27.7 17.15 -27.75 17.1 -27.75 17.0 -27.7 16.95 -27.8 16.85 -27.85 16.8 -27.85 16.7 -27.85 16.6 -28.0 16.45 -28.1 16.35 -27.95 16.2 -27.9 16.15 -27.9 16.05 -27.8 15.95 -27.85 15.9 -27.8 15.75 -27.8 15.65 -27.85 15.6 -27.85 15.5 -27.85 15.4 -27.75 15.3 -27.5 15.05 -27.25 15.0 -27.2 14.95 -27.05 14.9 -26.9 14.85 -26.75 14.8 -26.65 14.8 -26.45 14.7 -26.25 14.7 -26.1 14.65 -25.95 14.6 -25.9 14.65 -25.8 14.55 -25.55 14.5 -25.5 14.45 -25.4 14.45 -25.35 14.4 -25.15 14.4 -25.1 14.35 -24.9 14.35 -24.85 14.3 -24.7 14.25 -24.5 14.15 -24.35 14.1 -24.1 14.05 -23.95 14.0 -23.85 14.0 -23.75 13.9 -23.65 13.8 -23.5 13.65 -23.25 13.7 -23.1 13.65 -22.95 13.5 -22.85 13.4 -22.7 13.25 -22.35 13.2 -22.3 13.15 -22.2 13.05 -22.05 13.0 -21.95 12.9 -21.95 12.8 -21.85 12.7 -21.75 12.6 -21.55 12.5 -21.45 12.4 -21.25 12.4 -21.15 12.5 -21.0 12.65 -20.95 12.7 -21.0 12.85 -20.95 12.9 -20.85 13.0 -20.75 13.1 -20.65 13.2 -20.5 13.35 -20.4 13.45 -20.4 13.55 -20.3 13.65 -20.2 13.75" fill="#999999" fill-rule="evenodd" stroke="none"/>
  </g>
</svg>
