<?xml version="1.0" encoding="UTF-8" standalone="no"?>
<svg xmlns:ffdec="https://www.free-decompiler.com/flash" xmlns:xlink="http://www.w3.org/1999/xlink" ffdec:objectType="shape" height="17.0px" width="55.45px" xmlns="http://www.w3.org/2000/svg">
  <g transform="matrix(1.0, 0.0, 0.0, 1.0, 27.1, -4.0)">
    <path d="M-21.65 12.3 Q-20.3 14.1 -20.3 15.05 L-20.3 15.3 -20.25 15.35 -20.15 15.95 -18.6 19.05 9.05 19.05 9.35 19.15 12.0 19.2 12.3 19.3 17.55 19.3 Q17.75 18.6 19.0 16.8 L19.9 15.5 Q20.1 14.65 20.9 13.35 L22.4 10.8 Q23.8 7.4 24.85 6.35 L22.15 6.0 19.45 5.9 18.65 7.0 Q17.4 8.6 16.85 8.6 L16.5 8.6 16.45 8.6 14.95 8.85 9.5 8.7 8.4 8.8 -0.55 8.7 -6.45 9.1 -12.3 8.9 -12.5 8.95 -15.1 8.95 Q-17.25 8.95 -17.65 8.55 L-18.0 7.6 -18.2 7.3 -18.5 6.9 -19.05 6.2 -24.55 6.15 -24.05 7.15 -23.95 7.15 -22.95 8.8 -23.0 8.75 -23.2 8.9 -23.15 9.05 -23.15 9.35 -23.15 9.4 Q-22.15 11.0 -21.65 12.25 L-21.7 12.25 -21.65 12.3 M-17.8 20.95 L-18.75 20.95 -20.05 20.7 -20.2 20.35 -21.0 17.85 Q-21.55 17.65 -21.9 16.35 L-21.95 15.9 -22.3 15.2 -23.7 12.25 -23.95 12.25 -25.4 9.45 -25.4 9.2 -25.65 8.45 -25.6 8.1 -27.1 4.65 -19.55 4.65 -18.5 4.6 -18.4 4.6 -17.3 5.05 -17.25 5.3 -17.1 5.65 -16.85 6.3 -16.4 6.85 0.85 6.85 1.35 6.85 1.65 6.75 13.9 6.7 16.75 6.4 17.75 5.45 17.9 5.25 18.1 4.85 18.2 4.85 18.75 4.4 Q18.95 4.1 19.4 4.1 L27.25 4.1 27.9 4.0 Q28.35 4.0 28.35 4.5 28.35 5.65 23.8 12.25 L20.85 17.0 19.9 18.6 19.6 19.25 18.35 21.0 15.6 20.95 14.3 20.75 5.75 20.7 4.25 20.5 -0.3 20.5 -2.15 20.7 -9.55 20.75 -11.45 20.95 -16.25 20.95 -17.8 20.9 -17.8 20.95" fill="#000000" fill-rule="evenodd" stroke="none"/>
    <path d="M-21.65 12.25 Q-22.15 11.0 -23.15 9.4 L-23.15 9.35 -23.15 9.05 -23.2 8.9 -23.0 8.75 -22.95 8.8 -23.95 7.15 -24.05 7.15 -24.55 6.15 -19.05 6.2 -18.5 6.9 -18.2 7.3 -18.0 7.6 -17.65 8.55 Q-17.25 8.95 -15.1 8.95 L-12.5 8.95 -12.3 8.9 -6.45 9.1 -0.55 8.7 8.4 8.8 9.5 8.7 14.95 8.85 16.45 8.6 16.5 8.6 16.85 8.6 Q17.4 8.6 18.65 7.0 L19.45 5.9 22.15 6.0 24.85 6.35 Q23.8 7.4 22.4 10.8 L20.9 13.35 Q20.1 14.65 19.9 15.5 L19.0 16.8 Q17.75 18.6 17.55 19.3 L12.3 19.3 12.0 19.2 9.35 19.15 9.05 19.05 -18.6 19.05 -20.15 15.95 -20.25 15.35 -20.3 15.3 -20.3 15.05 Q-20.3 14.1 -21.65 12.3 L-21.65 12.25 M-16.25 20.95 L-17.8 20.95 -17.8 20.9 -16.25 20.95 M-17.1 12.25 L-17.0 12.35 -16.5 12.35 -16.45 12.25 -17.1 12.25" fill="#cccccc" fill-rule="evenodd" stroke="none"/>
  </g>
</svg>
