<?xml version="1.0" encoding="UTF-8" standalone="no"?>
<svg xmlns:ffdec="https://www.free-decompiler.com/flash" xmlns:xlink="http://www.w3.org/1999/xlink" ffdec:objectType="shape" height="7.5px" width="38.3px" xmlns="http://www.w3.org/2000/svg">
  <g transform="matrix(1.0, 0.0, 0.0, 1.0, 19.0, -10.05)">
    <path d="M19.2 10.6 L19.3 11.35 17.8 14.25 17.95 14.25 17.7 14.75 17.3 15.35 16.6 16.55 16.6 16.7 16.35 17.2 15.8 17.55 11.0 17.55 7.95 17.2 3.25 17.1 2.95 17.05 -5.7 17.05 -6.0 17.1 -13.5 17.2 -15.8 17.35 Q-16.3 17.35 -16.4 17.05 L-17.15 16.3 -18.3 14.35 -18.95 12.25 -18.9 11.85 -19.0 11.55 Q-19.0 10.1 -18.35 10.55 L-18.15 10.4 -17.35 10.05 18.4 10.05 Q19.05 10.1 19.2 10.6 M3.45 15.55 L8.25 15.55 11.35 15.9 14.75 15.9 Q14.85 15.25 15.5 14.15 L16.5 12.55 17.15 11.6 -16.95 11.7 -17.3 11.8 -17.0 12.25 -17.2 12.25 Q-15.6 14.45 -15.6 15.55 L-15.7 16.0 -15.7 16.05 -13.75 15.55 -6.05 15.55 -5.75 15.45 3.15 15.45 3.45 15.55" fill="#000000" fill-rule="evenodd" stroke="none"/>
  </g>
</svg>
