<?xml version="1.0" encoding="UTF-8" standalone="no"?>
<svg xmlns:ffdec="https://www.free-decompiler.com/flash" xmlns:xlink="http://www.w3.org/1999/xlink" ffdec:objectType="shape" height="64.45px" width="63.25px" xmlns="http://www.w3.org/2000/svg">
  <g transform="matrix(1.0, 0.0, 0.0, 1.0, 31.55, 32.15)">
    <path d="M3.95 -29.9 L4.1 -29.9 4.15 -29.85 4.25 -29.8 4.4 -29.75 4.55 -29.65 4.65 -29.65 4.75 -29.6 4.9 -29.45 5.05 -29.4 5.15 -29.3 5.25 -29.15 5.35 -29.15 5.35 -29.1 5.4 -29.1 5.45 -29.0 5.45 -29.05 5.55 -28.9 5.65 -28.8 5.7 -28.65 5.7 -28.5 5.75 -28.4 5.75 -28.25 5.75 -28.15 5.7 -28.05 5.7 -27.95 5.7 -27.9 5.7 -27.8 5.7 -27.7 5.65 -27.65 5.6 -27.6 5.55 -27.5 5.5 -27.4 5.5 -27.35 5.45 -27.25 5.45 -27.15 5.45 -27.1 5.4 -27.0 5.4 -26.9 5.4 -26.8 5.35 -26.7 5.35 -26.6 5.3 -26.55 5.25 -26.45 5.2 -26.4 5.15 -26.35 5.15 -26.25 5.15 -26.2 4.95 -26.25 4.9 -26.25 4.7 -26.25 4.6 -26.3 4.45 -26.3 4.35 -26.3 4.2 -26.35 4.05 -26.4 3.9 -26.4 3.8 -26.4 3.65 -26.4 3.6 -26.4 3.45 -26.45 3.35 -26.55 3.25 -26.6 3.15 -26.6 3.0 -26.6 2.9 -26.6 2.8 -26.6 2.7 -26.55 2.55 -26.6 2.4 -26.6 2.3 -26.65 2.2 -26.7 2.1 -26.7 2.05 -26.7 1.9 -26.7 1.8 -26.7 1.7 -26.7 1.6 -26.65 1.55 -26.6 1.45 -26.6 1.35 -26.6 1.25 -26.6 1.15 -26.6 1.1 -26.6 0.9 -26.6 0.85 -26.6 0.75 -26.7 0.6 -26.8 0.45 -26.8 0.35 -26.8 0.25 -26.8 0.1 -26.8 0.05 -26.8 -0.1 -26.8 -0.2 -26.8 -0.3 -26.8 -0.45 -26.8 -0.55 -26.8 -0.65 -26.8 -0.75 -26.8 -0.85 -26.8 -1.0 -26.8 -1.1 -26.8 -1.2 -26.8 -1.3 -26.8 -1.45 -26.8 -1.5 -26.8 -1.6 -26.75 -1.7 -26.75 -1.8 -26.75 -1.9 -26.7 -1.95 -26.65 -2.05 -26.65 -2.15 -26.6 -2.2 -26.6 -2.3 -26.6 -2.45 -26.6 -2.55 -26.6 -2.65 -26.6 -2.75 -26.65 -2.85 -26.75 -2.95 -26.85 -3.0 -27.0 -3.1 -27.1 -3.1 -27.25 -3.1 -27.35 -3.15 -27.4 -3.25 -27.6 -3.25 -27.75 -3.3 -27.9 -3.3 -28.0 -3.3 -28.15 -3.4 -28.35 -3.4 -28.45 -3.4 -28.55 -3.45 -28.65 -3.5 -28.9 -3.5 -29.0 -3.55 -29.1 -3.65 -29.25 -3.7 -29.4 -3.7 -29.45 -3.7 -29.6 -3.65 -29.65 -3.6 -29.75 -3.55 -29.8 -3.5 -29.9 -3.45 -29.9 -3.4 -29.95 -3.3 -30.0 -3.25 -30.05 -3.15 -30.1 -3.05 -30.1 -2.95 -30.1 -2.85 -30.05 -2.75 -30.05 -2.75 -30.0 -2.65 -30.0 -2.55 -30.05 -2.45 -30.05 -2.35 -30.05 -2.25 -30.1 -2.2 -30.1 -2.1 -30.15 -2.0 -30.2 -1.95 -30.2 -1.85 -30.2 -1.75 -30.2 -1.7 -30.25 -1.55 -30.25 -1.45 -30.25 -1.35 -30.25 -1.2 -30.25 -1.15 -30.25 -1.05 -30.3 -0.95 -30.35 -0.85 -30.35 -0.8 -30.4 -0.7 -30.4 -0.55 -30.4 -0.45 -30.4 -0.35 -30.4 -0.2 -30.35 -0.15 -30.4 0.0 -30.4 0.1 -30.4 0.2 -30.4 0.3 -30.45 0.4 -30.45 0.5 -30.45 0.6 -30.4 0.75 -30.4 0.85 -30.4 1.0 -30.4 1.1 -30.4 1.2 -30.4 1.35 -30.35 1.5 -30.3 1.6 -30.35 1.7 -30.35 1.8 -30.35 1.95 -30.25 2.1 -30.25 2.2 -30.25 2.35 -30.25 2.4 -30.25 2.55 -30.25 2.65 -30.25 2.75 -30.25 2.9 -30.25 3.0 -30.2 3.15 -30.2 3.4 -30.1 3.5 -30.05 3.65 -30.0 3.75 -29.95 3.85 -29.95 3.95 -29.9 M3.5 -28.9 L3.4 -28.9 3.3 -28.9 3.15 -28.95 2.95 -29.0 2.85 -29.0 2.7 -29.05 2.55 -29.1 2.4 -29.15 2.3 -29.15 2.15 -29.2 2.0 -29.3 1.85 -29.3 1.75 -29.3 1.65 -29.3 1.55 -29.3 1.4 -29.3 1.35 -29.3 1.15 -29.35 1.05 -29.4 0.95 -29.4 0.85 -29.45 0.75 -29.45 0.65 -29.45 0.6 -29.4 0.45 -29.4 Q0.35 -29.4 0.35 -29.45 L0.2 -29.45 0.1 -29.45 0.0 -29.4 -0.05 -29.4 -0.15 -29.35 -0.2 -29.35 -0.35 -29.35 -0.45 -29.3 -0.5 -29.3 -0.6 -29.25 -0.7 -29.2 -0.75 -29.15 -0.85 -29.1 -0.95 -29.0 -0.95 -28.95 -1.0 -28.9 -1.05 -28.85 -1.1 -28.75 -1.1 -28.65 -1.1 -28.5 -1.05 -28.4 -1.0 -28.25 -0.95 -28.15 -0.85 -28.0 -0.7 -27.9 -0.55 -27.9 -0.45 -27.85 -0.3 -27.85 -0.2 -27.85 -0.15 -27.9 -0.05 -27.9 0.0 -27.95 0.05 -28.0 0.15 -28.0 0.3 -28.0 0.4 -28.0 0.5 -28.05 0.6 -28.05 0.75 -28.0 0.9 -27.95 1.05 -27.9 1.1 -27.9 1.25 -27.9 1.35 -27.9 1.45 -27.9 1.6 -27.9 1.7 -27.9 1.8 -27.85 1.85 -27.85 2.05 -27.8 2.15 -27.75 2.35 -27.7 2.45 -27.7 2.6 -27.65 2.75 -27.6 2.85 -27.55 2.9 -27.55 3.1 -27.45 3.25 -27.4 3.35 -27.4 3.45 -27.4 3.65 -27.35 3.7 -27.4 3.8 -27.4 3.9 -27.45 3.9 -27.5 4.0 -27.55 4.1 -27.6 4.1 -27.65 4.15 -27.7 4.15 -27.8 4.2 -27.9 4.25 -27.95 4.25 -28.1 4.2 -28.2 4.15 -28.4 4.05 -28.5 3.9 -28.65 3.75 -28.7 3.65 -28.8 3.6 -28.85 3.5 -28.9 M29.1 -3.1 L29.25 -3.15 29.45 -3.2 29.55 -3.2 29.6 -3.2 29.65 -3.25 29.85 -3.35 29.95 -3.4 30.05 -3.4 30.15 -3.4 30.25 -3.35 30.35 -3.3 30.35 -3.25 30.45 -3.2 30.5 -3.15 30.55 -3.1 30.6 -3.0 30.65 -2.9 30.65 -2.85 30.65 -2.75 30.65 -2.65 30.65 -2.55 30.65 -2.45 30.6 -2.4 30.6 -2.35 30.65 -2.25 30.65 -2.15 30.65 -2.05 30.65 -1.95 30.65 -1.85 30.7 -1.8 30.75 -1.7 30.75 -1.6 30.8 -1.55 30.8 -1.45 30.85 -1.35 30.85 -1.25 30.85 -1.15 30.85 -1.05 30.85 -0.9 30.85 -0.85 30.9 -0.75 30.9 -0.65 30.9 -0.55 30.95 -0.5 30.95 -0.35 30.95 -0.25 30.95 -0.15 30.95 -0.05 30.9 0.1 30.95 0.15 30.95 0.3 30.95 0.4 30.95 0.5 31.0 0.6 31.0 0.7 31.0 0.8 30.95 0.95 30.95 1.05 30.95 1.2 30.95 1.3 30.95 1.4 30.95 1.5 30.9 1.7 30.9 1.8 30.9 1.9 30.9 2.0 30.9 2.1 30.85 2.25 30.85 2.4 30.85 2.5 30.85 2.65 30.85 2.7 30.85 2.85 30.85 2.95 30.85 3.05 30.85 3.2 30.8 3.3 30.75 3.5 30.65 3.7 30.65 3.8 30.6 4.0 30.55 4.05 30.55 4.15 30.45 4.25 30.45 4.4 30.4 4.45 30.35 4.55 30.35 4.7 30.25 4.85 30.2 4.95 30.2 5.0 30.15 5.05 30.05 5.2 29.95 5.35 29.85 5.45 29.85 5.5 29.7 5.55 29.7 5.65 29.65 5.65 29.65 5.7 29.6 5.75 29.6 5.8 29.5 5.85 29.35 5.95 29.25 6.0 29.1 6.05 28.95 6.05 28.85 6.05 28.75 6.05 28.6 6.05 28.55 6.05 28.45 6.0 28.35 6.0 28.3 6.0 28.2 5.95 28.15 5.9 28.1 5.85 28.0 5.8 27.9 5.8 27.8 5.8 27.75 5.8 27.65 5.75 27.55 5.7 27.5 5.7 27.35 5.7 27.3 5.65 27.2 5.65 27.1 5.6 27.05 5.55 27.0 5.5 26.9 5.5 26.8 5.5 26.8 5.45 26.8 5.25 26.8 5.2 26.8 5.0 26.85 4.9 26.85 4.75 26.85 4.65 26.9 4.5 27.0 4.35 27.0 4.25 27.0 4.1 27.0 4.0 27.0 3.9 27.05 3.75 27.1 3.65 27.15 3.55 27.15 3.45 27.15 3.3 27.15 3.25 27.15 3.1 27.1 3.0 27.15 2.85 27.2 2.7 27.25 2.6 27.3 2.5 27.3 2.45 27.3 2.35 27.3 2.2 27.3 2.1 27.3 2.0 27.25 1.95 27.2 1.85 27.2 1.75 27.2 1.7 27.2 1.55 27.2 1.45 27.2 1.4 27.2 1.2 27.2 1.15 27.3 1.05 27.35 0.9 27.35 0.75 27.35 0.7 27.35 0.55 27.35 0.4 27.35 0.35 27.35 0.2 27.35 0.1 27.35 0.0 27.35 -0.1 27.35 -0.25 27.35 -0.35 27.35 -0.45 27.35 -0.55 27.35 -0.7 27.35 -0.8 27.35 -0.85 27.35 -1.0 27.35 -1.1 27.35 -1.2 27.3 -1.3 27.3 -1.4 27.3 -1.5 27.3 -1.6 27.25 -1.65 27.25 -1.75 27.2 -1.85 27.2 -1.9 27.15 -2.0 27.15 -2.15 27.15 -2.25 27.2 -2.35 27.25 -2.4 27.3 -2.55 27.45 -2.65 27.55 -2.7 27.7 -2.8 27.9 -2.8 28.0 -2.85 28.15 -2.9 28.35 -2.95 28.45 -3.0 28.6 -3.0 28.7 -3.0 28.9 -3.1 29.05 -3.1 29.1 -3.1 M28.7 -0.6 L28.6 -0.55 28.5 -0.35 28.45 -0.25 28.4 -0.1 28.4 0.0 28.4 0.1 28.45 0.15 28.45 0.25 28.55 0.3 28.6 0.4 28.6 0.45 28.6 0.6 28.6 0.7 28.6 0.8 28.6 0.9 28.6 1.05 28.55 1.2 28.5 1.35 28.5 1.45 28.5 1.55 28.5 1.7 28.5 1.75 28.5 1.9 28.45 2.0 28.4 2.1 28.4 2.2 28.35 2.35 28.35 2.45 28.3 2.65 28.3 2.75 28.25 2.9 28.15 3.05 28.1 3.15 28.1 3.25 28.05 3.4 28.0 3.55 28.0 3.65 28.0 3.75 27.95 3.95 28.0 4.0 28.0 4.1 28.05 4.2 28.1 4.25 28.1 4.3 28.15 4.4 28.25 4.4 28.3 4.5 28.35 4.5 28.45 4.5 28.55 4.55 28.65 4.55 28.8 4.5 28.95 4.45 29.1 4.35 29.2 4.25 29.2 4.2 29.3 4.05 29.35 4.0 29.4 3.9 29.45 3.8 29.5 3.7 29.5 3.6 29.55 3.45 29.6 3.25 29.6 3.15 29.6 3.0 29.65 2.85 29.7 2.7 29.75 2.6 29.8 2.45 29.85 2.3 29.85 2.2 29.85 2.05 29.85 1.95 29.85 1.85 29.85 1.7 29.85 1.65 29.9 1.45 30.0 1.35 30.0 1.25 30.05 1.2 30.05 1.05 30.05 0.95 30.0 0.9 30.0 0.75 30.05 0.65 30.05 0.5 30.05 0.4 30.0 0.3 29.95 0.25 29.9 0.15 29.9 0.1 29.9 -0.05 29.85 -0.1 29.85 -0.2 29.85 -0.3 29.8 -0.35 29.75 -0.45 29.55 -0.65 29.45 -0.7 29.4 -0.75 29.35 -0.8 29.2 -0.8 29.1 -0.8 28.95 -0.75 28.85 -0.7 28.7 -0.6 M2.65 27.15 L2.75 27.3 2.8 27.4 2.8 27.55 2.8 27.6 2.85 27.7 2.95 27.85 3.0 28.05 3.05 28.15 3.05 28.3 3.05 28.4 3.1 28.6 3.1 28.75 3.1 28.85 3.15 28.95 3.25 29.15 3.25 29.25 3.25 29.3 3.3 29.35 3.35 29.55 3.4 29.65 3.4 29.75 3.4 29.85 3.35 29.95 3.3 30.05 3.3 30.1 3.25 30.15 3.15 30.2 3.1 30.25 3.05 30.3 2.95 30.35 2.85 30.4 2.8 30.4 2.65 30.4 2.55 30.35 2.5 30.35 2.45 30.3 2.35 30.3 2.3 30.35 2.15 30.35 2.05 30.35 2.0 30.4 1.9 30.4 1.8 30.4 1.75 30.45 1.65 30.45 1.55 30.5 1.5 30.5 1.4 30.55 1.25 30.55 1.2 30.55 1.05 30.55 0.95 30.55 0.85 30.55 0.75 30.6 0.7 30.65 0.55 30.65 0.5 30.65 0.4 30.65 0.25 30.65 0.2 30.65 0.05 30.65 -0.05 30.65 -0.15 30.65 -0.25 30.65 -0.4 30.65 -0.5 30.65 -0.55 30.7 -0.7 30.7 -0.8 30.7 -0.9 30.65 -1.05 30.65 -1.15 30.65 -1.3 30.65 -1.35 30.65 -1.5 30.65 -1.65 30.65 -1.8 30.6 -1.85 30.65 -2.0 30.65 -2.05 30.65 -2.25 30.55 -2.35 30.55 -2.5 30.55 -2.6 30.55 -2.7 30.55 -2.8 30.55 -2.95 30.55 -3.05 30.55 -3.15 30.55 -3.3 30.5 -3.45 30.45 -3.65 30.4 -3.8 30.35 -3.95 30.3 -4.05 30.25 -4.1 30.25 -4.25 30.15 -4.35 30.15 -4.4 30.1 -4.55 30.1 -4.65 30.05 -4.85 29.95 -4.9 29.9 -4.95 29.9 -5.05 29.85 -5.15 29.75 -5.35 29.65 -5.4 29.6 -5.45 29.6 -5.55 29.4 -5.6 29.4 -5.6 29.35 -5.65 29.35 -5.7 29.3 -5.75 29.35 -5.85 29.2 -5.9 29.1 -5.95 28.95 -6.0 28.8 -6.05 28.65 -6.05 28.55 -6.05 28.45 -6.0 28.35 -6.0 28.25 -5.95 28.15 -5.95 28.1 -5.95 28.0 -5.9 27.9 -5.9 27.85 -5.85 27.8 -5.8 27.7 -5.8 27.6 -5.75 27.55 -5.75 27.45 -5.7 27.35 -5.65 27.3 -5.65 27.2 -5.65 27.05 -5.6 27.0 -5.6 26.9 -5.6 26.8 -5.55 26.75 -5.5 26.7 -5.45 26.6 -5.45 26.5 -5.4 26.5 -5.25 26.55 -5.15 26.55 -5.0 26.55 -4.85 26.55 -4.75 26.55 -4.6 26.55 -4.5 26.6 -4.35 26.7 -4.2 26.7 -4.1 26.7 -3.95 26.7 -3.85 26.7 -3.75 26.75 -3.6 26.8 -3.55 26.85 -3.4 26.85 -3.3 26.85 -3.2 26.85 -3.05 26.85 -3.0 26.8 -2.8 26.85 -2.7 26.9 -2.55 26.95 -2.5 27.0 -2.4 27.0 -2.3 27.0 -2.2 27.0 -2.05 27.0 -2.0 27.0 -1.9 26.95 -1.8 26.9 -1.75 26.9 -1.65 26.9 -1.55 26.9 -1.45 26.9 -1.35 26.9 -1.2 26.9 -1.1 26.9 -1.05 27.0 -0.85 27.05 -0.75 27.05 -0.65 27.05 -0.5 27.05 -0.4 27.05 -0.3 27.05 -0.2 27.05 -0.05 27.05 0.0 27.05 0.15 27.05 0.25 27.05 0.35 27.05 0.5 27.05 0.55 27.05 0.75 27.05 0.8 27.05 0.9 27.05 1.0 27.05 1.15 27.05 1.25 27.05 1.3 27.05 1.45 27.05 1.5 27.05 1.6 27.0 1.7 26.95 1.75 26.95 1.85 26.9 1.95 26.9 2.05 26.85 2.15 26.85 2.3 26.85 2.35 26.9 2.45 26.95 2.55 27.05 2.65 27.15 M0.75 28.55 L0.65 28.4 0.55 28.3 0.4 28.2 0.25 28.15 0.15 28.1 0.0 28.1 -0.05 28.1 -0.15 28.15 -0.25 28.15 -0.25 28.25 -0.35 28.3 -0.45 28.3 -0.55 28.3 -0.7 28.3 -0.8 28.35 -0.85 28.35 -1.05 28.3 -1.2 28.25 -1.3 28.2 -1.4 28.2 -1.55 28.2 -1.65 28.2 -1.75 28.2 -1.85 28.2 -2.0 28.15 -2.05 28.1 -2.15 28.1 -2.3 28.1 -2.45 28.05 -2.6 28.0 -2.75 28.0 -2.85 27.95 -3.05 27.85 -3.1 27.85 -3.2 27.85 -3.35 27.75 -3.55 27.7 -3.6 27.7 -3.75 27.7 -3.9 27.65 -4.0 27.7 -4.1 27.7 -4.15 27.75 -4.2 27.8 -4.3 27.85 -4.35 27.85 -4.35 27.95 -4.45 28.0 -4.45 28.1 -4.5 28.15 -4.55 28.25 -4.55 28.35 -4.5 28.5 -4.4 28.65 -4.35 28.8 -4.2 28.9 -4.15 28.9 -4.05 29.0 -3.95 29.1 -3.85 29.1 -3.8 29.15 -3.65 29.2 -3.6 29.2 -3.4 29.25 -3.25 29.3 -3.1 29.3 -3.0 29.35 -2.8 29.35 -2.7 29.4 -2.55 29.45 -2.45 29.5 -2.3 29.6 -2.15 29.6 -2.05 29.6 -1.95 29.6 -1.8 29.6 -1.7 29.6 -1.6 29.6 -1.45 29.6 -1.3 29.7 -1.25 29.7 -1.15 29.75 -1.05 29.75 -0.95 29.75 -0.85 29.7 -0.75 29.7 -0.6 29.75 -0.5 29.75 -0.4 29.75 -0.25 29.7 -0.25 29.65 -0.15 29.6 -0.05 29.6 0.05 29.6 0.15 29.6 0.25 29.6 0.3 29.55 0.4 29.5 0.5 29.45 0.55 29.35 0.65 29.3 0.7 29.25 0.75 29.15 0.75 29.1 0.8 29.05 0.8 28.9 0.8 28.8 0.75 28.65 0.75 28.55 M-26.2 -5.15 L-26.15 -5.1 -26.05 -5.1 -26.0 -5.1 -26.0 -5.05 -26.05 -4.9 -26.05 -4.8 -26.05 -4.65 -26.1 -4.5 -26.1 -4.4 -26.1 -4.25 -26.15 -4.15 -26.2 -3.95 -26.2 -3.85 -26.2 -3.7 -26.2 -3.6 -26.2 -3.5 -26.25 -3.4 -26.35 -3.25 -26.4 -3.2 -26.4 -3.05 -26.4 -2.95 -26.4 -2.85 -26.4 -2.7 -26.35 -2.65 -26.4 -2.45 -26.45 -2.35 -26.45 -2.2 -26.5 -2.15 -26.5 -2.05 -26.5 -1.95 -26.5 -1.85 -26.5 -1.7 -26.5 -1.65 -26.45 -1.55 -26.45 -1.45 -26.45 -1.4 -26.45 -1.3 -26.45 -1.15 -26.45 -1.0 -26.45 -0.85 -26.45 -0.75 -26.5 -0.65 -26.6 -0.5 -26.6 -0.4 -26.6 -0.3 -26.6 -0.15 -26.6 -0.05 -26.6 0.05 -26.6 0.15 -26.6 0.3 -26.6 0.4 -26.6 0.5 -26.6 0.65 -26.6 0.7 -26.6 0.85 -26.6 0.9 -26.6 1.1 -26.6 1.15 -26.6 1.25 -26.6 1.4 -26.6 1.5 -26.6 1.6 -26.55 1.65 -26.55 1.8 -26.55 1.9 -26.5 1.95 -26.45 2.05 -26.45 2.15 -26.45 2.2 -26.45 2.3 -26.4 2.4 -26.4 2.5 -26.4 2.65 -26.45 2.7 -26.45 2.8 -26.55 2.95 -26.7 3.0 -26.8 3.1 -26.95 3.2 -27.05 3.2 -27.2 3.2 -27.4 3.3 -27.55 3.35 -27.7 3.4 -27.8 3.4 -27.95 3.4 -28.15 3.45 -28.25 3.45 -28.35 3.45 -28.5 3.5 -28.7 3.6 -28.8 3.6 -28.9 3.65 -29.05 3.7 -29.2 3.75 -29.25 3.75 -29.4 3.75 -29.5 3.7 -29.55 3.7 -29.6 3.65 -29.7 3.6 -29.75 3.5 -29.75 3.45 -29.8 3.4 -29.85 3.3 -29.9 3.2 -29.9 3.15 -29.9 3.0 -29.85 2.95 -29.85 2.85 -29.8 2.8 -29.8 2.7 -29.85 2.65 -29.85 2.5 -29.85 2.45 -29.9 2.35 -29.9 2.25 -29.95 2.15 -30.0 2.1 -30.0 2.0 -30.05 1.9 -30.05 1.85 -30.05 1.75 -30.05 1.65 -30.05 1.55 -30.05 1.4 -30.05 1.3 -30.05 1.2 -30.1 1.15 -30.15 1.05 -30.15 0.9 -30.2 0.9 -30.2 0.75 -30.2 0.65 -30.2 0.55 -30.2 0.4 -30.15 0.3 -30.2 0.2 -30.2 0.1 -30.2 -0.05 -30.2 -0.1 -30.25 -0.2 -30.25 -0.35 -30.25 -0.4 -30.2 -0.55 -30.2 -0.65 -30.2 -0.8 -30.2 -0.9 -30.2 -1.0 -30.2 -1.15 -30.15 -1.3 -30.1 -1.4 -30.15 -1.5 -30.15 -1.65 -30.15 -1.7 -30.05 -1.9 -30.05 -2.0 -30.05 -2.15 -30.05 -2.25 -30.05 -2.35 -30.05 -2.45 -30.05 -2.6 -30.05 -2.65 -30.05 -2.8 -30.05 -2.95 -30.0 -3.1 -29.9 -3.3 -29.85 -3.45 -29.8 -3.6 -29.75 -3.7 -29.75 -3.75 -29.7 -3.9 -29.7 -4.0 -29.65 -4.05 -29.6 -4.2 -29.55 -4.3 -29.5 -4.45 -29.45 -4.55 -29.45 -4.6 -29.4 -4.7 -29.25 -4.8 -29.2 -4.95 -29.1 -5.05 -29.1 -5.1 -28.95 -5.2 -28.95 -5.25 -28.9 -5.25 -28.9 -5.3 -28.8 -5.35 -28.85 -5.4 -28.75 -5.5 -28.6 -5.55 -28.5 -5.6 -28.3 -5.65 -28.2 -5.7 -28.05 -5.7 -28.0 -5.7 -27.85 -5.65 -27.75 -5.65 -27.7 -5.6 -27.6 -5.6 -27.5 -5.6 -27.45 -5.55 -27.4 -5.5 -27.3 -5.5 -27.2 -5.45 -27.15 -5.45 -27.05 -5.4 -26.95 -5.4 -26.9 -5.35 -26.8 -5.3 -26.7 -5.3 -26.6 -5.3 -26.5 -5.25 -26.45 -5.25 -26.35 -5.2 -26.25 -5.2 -26.2 -5.15 M-27.35 -3.95 L-27.4 -4.0 -27.5 -4.0 -27.5 -4.1 -27.6 -4.1 -27.7 -4.15 -27.75 -4.2 -27.9 -4.2 -28.0 -4.15 -28.2 -4.05 -28.3 -3.95 -28.45 -3.85 -28.45 -3.8 -28.5 -3.7 -28.6 -3.6 -28.65 -3.5 -28.7 -3.45 -28.75 -3.3 -28.75 -3.2 -28.75 -3.05 -28.8 -2.9 -28.8 -2.75 -28.85 -2.65 -28.9 -2.45 -28.95 -2.35 -29.0 -2.2 -29.0 -2.1 -29.1 -1.9 -29.1 -1.8 -29.1 -1.65 -29.1 -1.6 -29.1 -1.45 -29.1 -1.35 -29.1 -1.25 -29.15 -1.1 -29.25 -0.95 -29.25 -0.9 -29.25 -0.8 -29.25 -0.65 -29.25 -0.6 -29.25 -0.5 -29.25 -0.4 -29.25 -0.25 -29.25 -0.1 -29.25 -0.05 -29.25 0.1 -29.2 0.15 -29.15 0.2 -29.15 0.3 -29.15 0.4 -29.1 0.5 -29.1 0.6 -29.05 0.65 -29.0 0.75 -29.0 0.85 -28.9 0.9 -28.8 1.0 -28.75 1.05 -28.7 1.1 -28.65 1.15 -28.55 1.15 -28.45 1.15 -28.3 1.15 -28.2 1.15 -28.05 1.1 -27.95 1.0 -27.8 0.9 -27.75 0.75 -27.7 0.65 -27.65 0.5 -27.65 0.4 -27.65 0.3 -27.7 0.2 -27.7 0.15 -27.75 0.1 -27.8 0.0 -27.8 -0.1 -27.8 -0.2 -27.8 -0.35 -27.85 -0.4 -27.85 -0.5 -27.8 -0.65 -27.75 -0.85 -27.75 -0.95 -27.75 -1.05 -27.75 -1.15 -27.75 -1.3 -27.75 -1.4 -27.75 -1.5 -27.7 -1.65 -27.65 -1.7 -27.65 -1.8 -27.6 -1.95 -27.55 -2.1 -27.5 -2.25 -27.5 -2.4 -27.5 -2.5 -27.4 -2.65 -27.35 -2.75 -27.35 -2.85 -27.25 -3.0 -27.2 -3.2 -27.2 -3.25 -27.2 -3.4 -27.2 -3.55 -27.2 -3.65 -27.2 -3.7 -27.25 -3.8 -27.3 -3.85 -27.35 -3.95" fill="#8300ae" fill-rule="evenodd" stroke="none"/>
    <path d="M3.5 -28.9 L3.6 -28.85 3.65 -28.8 3.75 -28.7 3.9 -28.65 4.05 -28.5 4.15 -28.4 4.2 -28.2 4.25 -28.1 4.25 -27.95 4.2 -27.9 4.15 -27.8 4.15 -27.7 4.1 -27.65 4.1 -27.6 4.0 -27.55 3.9 -27.5 3.9 -27.45 3.8 -27.4 3.7 -27.4 3.65 -27.35 3.45 -27.4 3.35 -27.4 3.25 -27.4 3.1 -27.45 2.9 -27.55 2.85 -27.55 2.75 -27.6 2.6 -27.65 2.45 -27.7 2.35 -27.7 2.15 -27.75 2.05 -27.8 1.85 -27.85 1.8 -27.85 1.7 -27.9 1.6 -27.9 1.45 -27.9 1.35 -27.9 1.25 -27.9 1.1 -27.9 1.05 -27.9 0.9 -27.95 0.75 -28.0 0.6 -28.05 0.5 -28.05 0.4 -28.0 0.3 -28.0 0.15 -28.0 0.05 -28.0 0.0 -27.95 -0.05 -27.9 -0.15 -27.9 -0.2 -27.85 -0.3 -27.85 -0.45 -27.85 -0.55 -27.9 -0.7 -27.9 -0.85 -28.0 -0.95 -28.15 -1.0 -28.25 -1.05 -28.4 -1.1 -28.5 -1.1 -28.65 -1.1 -28.75 -1.05 -28.85 -1.0 -28.9 -0.95 -28.95 -0.95 -29.0 -0.85 -29.1 -0.75 -29.15 -0.7 -29.2 -0.6 -29.25 -0.5 -29.3 -0.45 -29.3 -0.35 -29.35 -0.2 -29.35 -0.15 -29.35 -0.05 -29.4 0.0 -29.4 0.1 -29.45 0.2 -29.45 0.35 -29.45 Q0.35 -29.4 0.45 -29.4 L0.6 -29.4 0.65 -29.45 0.75 -29.45 0.85 -29.45 0.95 -29.4 1.05 -29.4 1.15 -29.35 1.35 -29.3 1.4 -29.3 1.55 -29.3 1.65 -29.3 1.75 -29.3 1.85 -29.3 2.0 -29.3 2.15 -29.2 2.3 -29.15 2.4 -29.15 2.55 -29.1 2.7 -29.05 2.85 -29.0 2.95 -29.0 3.15 -28.95 3.3 -28.9 3.4 -28.9 3.5 -28.9 M28.7 -0.6 L28.85 -0.7 28.95 -0.75 29.1 -0.8 29.2 -0.8 29.35 -0.8 29.4 -0.75 29.45 -0.7 29.55 -0.65 29.75 -0.45 29.8 -0.35 29.85 -0.3 29.85 -0.2 29.85 -0.1 29.9 -0.05 29.9 0.1 29.9 0.15 29.95 0.25 30.0 0.3 30.05 0.4 30.05 0.5 30.05 0.65 30.0 0.75 30.0 0.9 30.05 0.95 30.05 1.05 30.05 1.2 30.0 1.25 30.0 1.35 29.9 1.45 29.85 1.65 29.85 1.7 29.85 1.85 29.85 1.95 29.85 2.05 29.85 2.2 29.85 2.3 29.8 2.45 29.75 2.6 29.7 2.7 29.65 2.85 29.6 3.0 29.6 3.15 29.6 3.25 29.55 3.45 29.5 3.6 29.5 3.7 29.45 3.8 29.4 3.9 29.35 4.0 29.3 4.05 29.2 4.2 29.2 4.25 29.1 4.35 28.95 4.45 28.8 4.5 28.65 4.55 28.55 4.55 28.45 4.5 28.35 4.5 28.3 4.5 28.25 4.4 28.15 4.4 28.1 4.3 28.1 4.25 28.05 4.2 28.0 4.1 28.0 4.0 27.95 3.95 28.0 3.75 28.0 3.65 28.0 3.55 28.05 3.4 28.1 3.25 28.1 3.15 28.15 3.05 28.25 2.9 28.3 2.75 28.3 2.65 28.35 2.45 28.35 2.35 28.4 2.2 28.4 2.1 28.45 2.0 28.5 1.9 28.5 1.75 28.5 1.7 28.5 1.55 28.5 1.45 28.5 1.35 28.55 1.2 28.6 1.05 28.6 0.9 28.6 0.8 28.6 0.7 28.6 0.6 28.6 0.45 28.6 0.4 28.55 0.3 28.45 0.25 28.45 0.15 28.4 0.1 28.4 0.0 28.4 -0.1 28.45 -0.25 28.5 -0.35 28.6 -0.55 28.7 -0.6 M0.75 28.55 L0.75 28.65 0.8 28.8 0.8 28.9 0.8 29.05 0.75 29.1 0.75 29.15 0.7 29.25 0.65 29.3 0.55 29.35 0.5 29.45 0.4 29.5 0.3 29.55 0.25 29.6 0.15 29.6 0.05 29.6 -0.05 29.6 -0.15 29.6 -0.25 29.65 -0.25 29.7 -0.4 29.75 -0.5 29.75 -0.6 29.75 -0.75 29.7 -0.85 29.7 -0.95 29.75 -1.05 29.75 -1.15 29.75 -1.25 29.7 -1.3 29.7 -1.45 29.6 -1.6 29.6 -1.7 29.6 -1.8 29.6 -1.95 29.6 -2.05 29.6 -2.15 29.6 -2.3 29.6 -2.45 29.5 -2.55 29.45 -2.7 29.4 -2.8 29.35 -3.0 29.35 -3.1 29.3 -3.25 29.3 -3.4 29.25 -3.6 29.2 -3.65 29.2 -3.8 29.15 -3.85 29.1 -3.95 29.1 -4.05 29.0 -4.15 28.9 -4.2 28.9 -4.35 28.8 -4.4 28.65 -4.5 28.5 -4.55 28.35 -4.55 28.25 -4.5 28.15 -4.45 28.1 -4.45 28.0 -4.35 27.95 -4.35 27.85 -4.3 27.85 -4.2 27.8 -4.15 27.75 -4.1 27.7 -4.0 27.7 -3.9 27.65 -3.75 27.7 -3.6 27.7 -3.55 27.7 -3.35 27.75 -3.2 27.85 -3.1 27.85 -3.05 27.85 -2.85 27.95 -2.75 28.0 -2.6 28.0 -2.45 28.05 -2.3 28.1 -2.15 28.1 -2.05 28.1 -2.0 28.15 -1.85 28.2 -1.75 28.2 -1.65 28.2 -1.55 28.2 -1.4 28.2 -1.3 28.2 -1.2 28.25 -1.05 28.3 -0.85 28.35 -0.8 28.35 -0.7 28.3 -0.55 28.3 -0.45 28.3 -0.35 28.3 -0.25 28.25 -0.25 28.15 -0.15 28.15 -0.05 28.1 0.0 28.1 0.15 28.1 0.25 28.15 0.4 28.2 0.55 28.3 0.65 28.4 0.75 28.55 M-27.35 -3.95 L-27.3 -3.85 -27.25 -3.8 -27.2 -3.7 -27.2 -3.65 -27.2 -3.55 -27.2 -3.4 -27.2 -3.25 -27.2 -3.2 -27.25 -3.0 -27.35 -2.85 -27.35 -2.75 -27.4 -2.65 -27.5 -2.5 -27.5 -2.4 -27.5 -2.25 -27.55 -2.1 -27.6 -1.95 -27.65 -1.8 -27.65 -1.7 -27.7 -1.65 -27.75 -1.5 -27.75 -1.4 -27.75 -1.3 -27.75 -1.15 -27.75 -1.05 -27.75 -0.95 -27.75 -0.85 -27.8 -0.65 -27.85 -0.5 -27.85 -0.4 -27.8 -0.35 -27.8 -0.2 -27.8 -0.1 -27.8 0.0 -27.75 0.1 -27.7 0.15 -27.7 0.2 -27.65 0.3 -27.65 0.4 -27.65 0.5 -27.7 0.65 -27.75 0.75 -27.8 0.9 -27.95 1.0 -28.05 1.1 -28.2 1.15 -28.3 1.15 -28.45 1.15 -28.55 1.15 -28.65 1.15 -28.7 1.1 -28.75 1.05 -28.8 1.0 -28.9 0.9 -29.0 0.85 -29.0 0.75 -29.05 0.65 -29.1 0.6 -29.1 0.5 -29.15 0.4 -29.15 0.3 -29.15 0.2 -29.2 0.15 -29.25 0.1 -29.25 -0.05 -29.25 -0.1 -29.25 -0.25 -29.25 -0.4 -29.25 -0.5 -29.25 -0.6 -29.25 -0.65 -29.25 -0.8 -29.25 -0.9 -29.25 -0.95 -29.15 -1.1 -29.1 -1.25 -29.1 -1.35 -29.1 -1.45 -29.1 -1.6 -29.1 -1.65 -29.1 -1.8 -29.1 -1.9 -29.0 -2.1 -29.0 -2.2 -28.95 -2.35 -28.9 -2.45 -28.85 -2.65 -28.8 -2.75 -28.8 -2.9 -28.75 -3.05 -28.75 -3.2 -28.75 -3.3 -28.7 -3.45 -28.65 -3.5 -28.6 -3.6 -28.5 -3.7 -28.45 -3.8 -28.45 -3.85 -28.3 -3.95 -28.2 -4.05 -28.0 -4.15 -27.9 -4.2 -27.75 -4.2 -27.7 -4.15 -27.6 -4.1 -27.5 -4.1 -27.5 -4.0 -27.4 -4.0 -27.35 -3.95" fill="#a800df" fill-rule="evenodd" stroke="none"/>
    <path d="M5.2 -31.25 L5.3 -31.25 5.4 -31.25 5.55 -31.25 5.65 -31.2 5.8 -31.2 5.95 -31.25 6.05 -31.25 6.2 -31.25 6.3 -31.2 6.45 -31.2 6.55 -31.2 6.6 -31.1 6.7 -31.05 6.75 -31.0 6.8 -30.9 6.85 -30.85 6.95 -30.75 6.95 -30.7 7.0 -30.6 7.1 -30.5 7.2 -30.4 7.3 -30.3 7.4 -30.2 7.5 -30.15 7.55 -30.1 7.5 -30.1 7.5 -29.95 7.5 -29.8 7.45 -29.65 7.4 -29.5 7.35 -29.45 7.3 -29.3 7.15 -29.1 7.05 -28.95 6.95 -28.8 6.9 -28.6 6.9 -28.4 6.85 -28.25 6.75 -28.05 6.65 -27.85 6.55 -27.7 6.5 -27.55 6.4 -27.35 6.4 -27.2 6.35 -27.0 6.2 -26.8 6.15 -26.6 6.05 -26.4 6.05 -26.25 6.0 -26.1 6.0 -25.95 5.95 -25.75 5.8 -25.5 5.75 -25.3 5.75 -25.2 5.7 -25.25 5.6 -25.25 5.45 -25.25 5.3 -25.25 5.2 -25.25 5.05 -25.3 4.95 -25.3 4.85 -25.35 4.8 -25.4 4.65 -25.4 4.55 -25.45 4.45 -25.45 4.3 -25.45 4.25 -25.5 4.15 -25.55 4.05 -25.55 3.9 -25.6 3.85 -25.65 3.7 -25.65 3.6 -25.7 3.5 -25.7 3.35 -25.7 3.25 -25.7 3.1 -25.7 2.95 -25.7 2.85 -25.75 2.75 -25.75 2.6 -25.75 2.5 -25.75 2.4 -25.8 2.3 -25.8 2.2 -25.85 2.05 -25.85 1.95 -25.85 1.8 -25.9 1.7 -25.9 1.55 -25.9 1.45 -25.9 1.3 -25.9 1.15 -25.9 1.05 -25.9 0.9 -25.9 0.75 -25.9 0.65 -25.9 0.5 -25.9 0.35 -25.9 0.25 -25.9 0.1 -25.9 -0.05 -25.9 -0.15 -25.9 -0.3 -25.9 -0.45 -25.9 -0.55 -25.9 -0.7 -25.9 -0.85 -25.9 -0.95 -25.9 -1.1 -25.9 -1.25 -25.9 -1.4 -25.85 -1.6 -25.8 -1.7 -25.8 -1.85 -25.75 -2.05 -25.75 -2.25 -25.65 -2.4 -25.6 -2.55 -25.6 -2.7 -25.6 -2.8 -25.6 -2.95 -25.6 -3.15 -25.55 -3.3 -25.5 -3.5 -25.5 -3.6 -25.5 -3.7 -25.55 -3.85 -25.55 -3.95 -25.55 -4.15 -25.5 -4.35 -25.4 -4.45 -25.35 -4.6 -25.5 -4.6 -25.6 -4.6 -25.75 -4.65 -25.8 -4.65 -25.95 -4.7 -26.0 -4.75 -26.1 -4.85 -26.15 -4.85 -26.3 -4.9 -26.35 -4.9 -26.5 -4.95 -26.6 -4.95 -26.7 -5.0 -26.8 -5.0 -26.9 -5.05 -27.0 -5.1 -27.1 -5.15 -27.2 -5.15 -27.3 -5.15 -27.45 -5.15 -27.55 -5.2 -27.65 -5.2 -27.8 -5.25 -27.9 -5.25 -28.0 -5.2 -28.2 -5.2 -28.3 -5.2 -28.45 -5.25 -28.55 -5.25 -28.65 -5.25 -28.8 -5.3 -28.85 -5.35 -28.95 -5.35 -29.1 -5.35 -29.2 -5.4 -29.35 -5.4 -29.45 -5.4 -29.6 -5.4 -29.75 -5.4 -29.85 -5.4 -29.95 -5.4 -30.1 -5.45 -30.15 -5.5 -30.25 -5.5 -30.4 -5.55 -30.5 -5.55 -30.6 -5.6 -30.7 -5.6 -30.85 -5.6 -30.9 -5.4 -30.95 -5.25 -31.0 -5.05 -31.05 -4.85 -31.1 -4.65 -31.2 -4.5 -31.2 -4.35 -31.25 -4.15 -31.3 -3.95 -31.35 -3.75 -31.45 -3.6 -31.45 -3.45 -31.5 -3.25 -31.55 -3.05 -31.65 -2.95 -31.7 -2.85 -31.75 -2.65 -31.8 -2.45 -31.85 -2.3 -31.9 -2.15 -31.9 -2.0 -31.95 -1.85 -31.9 -1.75 -31.9 -1.6 -31.95 -1.4 -32.0 -1.15 -32.1 -0.95 -32.15 -0.85 -32.15 -0.7 -32.15 -0.6 -32.15 -0.45 -32.15 -0.3 -32.15 -0.2 -32.1 -0.1 -32.1 0.0 -32.05 0.15 -32.05 0.25 -32.05 0.4 -32.05 0.5 -32.0 0.6 -32.0 0.7 -31.95 0.8 -31.95 0.95 -31.95 1.05 -31.9 1.2 -31.9 1.3 -31.9 1.4 -31.85 1.55 -31.85 1.65 -31.85 1.8 -31.85 1.9 -31.85 2.0 -31.8 2.2 -31.85 2.3 -31.8 2.4 -31.8 2.5 -31.8 2.6 -31.75 2.75 -31.75 2.85 -31.75 3.0 -31.75 3.1 -31.7 3.2 -31.65 3.3 -31.65 3.4 -31.6 3.5 -31.6 3.6 -31.55 3.75 -31.55 3.9 -31.55 4.0 -31.55 4.1 -31.5 4.15 -31.45 4.3 -31.45 4.4 -31.4 4.5 -31.4 4.65 -31.4 4.75 -31.4 4.9 -31.4 5.0 -31.35 5.1 -31.3 5.2 -31.25 M3.95 -29.9 L3.85 -29.95 3.75 -29.95 3.65 -30.0 3.5 -30.05 3.4 -30.1 3.15 -30.2 3.0 -30.2 2.9 -30.25 2.75 -30.25 2.65 -30.25 2.55 -30.25 2.4 -30.25 2.35 -30.25 2.2 -30.25 2.1 -30.25 1.95 -30.25 1.8 -30.35 1.7 -30.35 1.6 -30.35 1.5 -30.3 1.35 -30.35 1.2 -30.4 1.1 -30.4 1.0 -30.4 0.85 -30.4 0.75 -30.4 0.6 -30.4 0.5 -30.45 0.4 -30.45 0.3 -30.45 0.2 -30.4 0.1 -30.4 0.0 -30.4 -0.15 -30.4 -0.2 -30.35 -0.35 -30.4 -0.45 -30.4 -0.55 -30.4 -0.7 -30.4 -0.8 -30.4 -0.85 -30.35 -0.95 -30.35 -1.05 -30.3 -1.15 -30.25 -1.2 -30.25 -1.35 -30.25 -1.45 -30.25 -1.55 -30.25 -1.7 -30.25 -1.75 -30.2 -1.85 -30.2 -1.95 -30.2 -2.0 -30.2 -2.1 -30.15 -2.2 -30.1 -2.25 -30.1 -2.35 -30.05 -2.45 -30.05 -2.55 -30.05 -2.65 -30.0 -2.75 -30.0 -2.75 -30.05 -2.85 -30.05 -2.95 -30.1 -3.05 -30.1 -3.15 -30.1 -3.25 -30.05 -3.3 -30.0 -3.4 -29.95 -3.45 -29.9 -3.5 -29.9 -3.55 -29.8 -3.6 -29.75 -3.65 -29.65 -3.7 -29.6 -3.7 -29.45 -3.7 -29.4 -3.65 -29.25 -3.55 -29.1 -3.5 -29.0 -3.5 -28.9 -3.45 -28.65 -3.4 -28.55 -3.4 -28.45 -3.4 -28.35 -3.3 -28.15 -3.3 -28.0 -3.3 -27.9 -3.25 -27.75 -3.25 -27.6 -3.15 -27.4 -3.1 -27.35 -3.1 -27.25 -3.1 -27.1 -3.0 -27.0 -2.95 -26.85 -2.85 -26.75 -2.75 -26.65 -2.65 -26.6 -2.55 -26.6 -2.45 -26.6 -2.3 -26.6 -2.2 -26.6 -2.15 -26.6 -2.05 -26.65 -1.95 -26.65 -1.9 -26.7 -1.8 -26.75 -1.7 -26.75 -1.6 -26.75 -1.5 -26.8 -1.45 -26.8 -1.3 -26.8 -1.2 -26.8 -1.1 -26.8 -1.0 -26.8 -0.85 -26.8 -0.75 -26.8 -0.65 -26.8 -0.55 -26.8 -0.45 -26.8 -0.3 -26.8 -0.2 -26.8 -0.1 -26.8 0.05 -26.8 0.1 -26.8 0.25 -26.8 0.35 -26.8 0.45 -26.8 0.6 -26.8 0.75 -26.7 0.85 -26.6 0.9 -26.6 1.1 -26.6 1.15 -26.6 1.25 -26.6 1.35 -26.6 1.45 -26.6 1.55 -26.6 1.6 -26.65 1.7 -26.7 1.8 -26.7 1.9 -26.7 2.05 -26.7 2.1 -26.7 2.2 -26.7 2.3 -26.65 2.4 -26.6 2.55 -26.6 2.7 -26.55 2.8 -26.6 2.9 -26.6 3.0 -26.6 3.15 -26.6 3.25 -26.6 3.35 -26.55 3.45 -26.45 3.6 -26.4 3.65 -26.4 3.8 -26.4 3.9 -26.4 4.05 -26.4 4.2 -26.35 4.35 -26.3 4.45 -26.3 4.6 -26.3 4.7 -26.25 4.9 -26.25 4.95 -26.25 5.15 -26.2 5.15 -26.25 5.15 -26.35 5.2 -26.4 5.25 -26.45 5.3 -26.55 5.35 -26.6 5.35 -26.7 5.4 -26.8 5.4 -26.9 5.4 -27.0 5.45 -27.1 5.45 -27.15 5.45 -27.25 5.5 -27.35 5.5 -27.4 5.55 -27.5 5.6 -27.6 5.65 -27.65 5.7 -27.7 5.7 -27.8 5.7 -27.9 5.7 -27.95 5.7 -28.05 5.75 -28.15 5.75 -28.25 5.75 -28.4 5.7 -28.5 5.7 -28.65 5.65 -28.8 5.55 -28.9 5.45 -29.05 5.45 -29.0 5.4 -29.1 5.35 -29.1 5.35 -29.15 5.25 -29.15 5.15 -29.3 5.05 -29.4 4.9 -29.45 4.75 -29.6 4.65 -29.65 4.55 -29.65 4.4 -29.75 4.25 -29.8 4.15 -29.85 4.1 -29.9 3.95 -29.9 M29.6 -5.25 L29.75 -5.3 29.85 -5.3 29.95 -5.3 30.1 -5.3 30.1 -5.25 30.15 -5.2 30.25 -5.1 30.35 -5.0 30.45 -4.95 30.55 -4.9 30.65 -4.85 30.7 -4.8 30.7 -4.75 30.75 -4.65 30.75 -4.55 30.8 -4.45 30.8 -4.3 30.8 -4.2 30.8 -4.05 30.8 -3.9 30.8 -3.75 30.8 -3.65 30.8 -3.5 30.85 -3.4 30.85 -3.3 30.85 -3.15 30.85 -3.0 30.85 -2.9 30.85 -2.75 30.9 -2.65 30.9 -2.55 30.95 -2.45 31.0 -2.35 31.05 -2.3 31.05 -2.15 31.1 -2.05 31.1 -1.95 31.1 -1.85 31.15 -1.75 31.2 -1.65 31.2 -1.55 31.25 -1.45 31.3 -1.35 31.35 -1.3 31.4 -1.2 31.45 -1.1 31.45 -0.95 31.45 -0.85 31.5 -0.75 31.5 -0.65 31.5 -0.5 31.5 -0.4 31.55 -0.25 31.6 -0.2 31.6 -0.05 31.6 0.1 31.6 0.2 31.6 0.3 31.65 0.45 31.65 0.5 31.65 0.65 31.65 0.8 31.65 0.95 31.65 1.1 31.65 1.2 31.7 1.3 31.65 1.45 31.65 1.6 31.65 1.75 31.65 1.85 31.7 1.95 31.7 2.1 31.65 2.25 31.65 2.4 31.65 2.5 31.65 2.65 31.65 2.7 31.65 2.75 31.55 2.95 31.5 3.1 31.5 3.25 31.5 3.4 31.45 3.6 31.4 3.75 31.35 3.95 31.3 4.15 31.2 4.35 31.15 4.5 31.15 4.7 31.1 4.85 31.1 5.0 31.1 5.15 31.05 5.3 31.05 5.45 31.05 5.55 31.1 5.65 31.05 5.85 31.0 6.0 30.95 6.2 30.9 6.35 30.9 6.55 30.8 6.75 30.8 6.9 30.8 6.95 30.75 6.95 30.6 7.1 30.5 7.25 30.4 7.2 30.3 7.15 30.15 7.15 30.05 7.15 29.95 7.1 29.85 7.05 29.75 7.05 29.65 7.0 29.55 6.95 29.45 6.95 29.35 6.9 29.25 6.9 29.15 6.85 29.05 6.8 28.9 6.8 28.8 6.8 28.7 6.75 28.65 6.7 28.55 6.65 28.45 6.6 28.4 6.55 28.3 6.5 28.2 6.45 28.1 6.45 28.0 6.4 27.9 6.4 27.75 6.4 27.7 6.35 27.6 6.3 27.5 6.25 27.4 6.2 27.3 6.15 27.2 6.15 27.1 6.1 26.95 6.1 26.85 6.1 26.7 6.1 26.65 6.05 26.55 6.0 26.45 5.95 26.35 5.9 26.25 5.9 26.25 5.85 26.2 5.75 26.15 5.65 26.15 5.55 26.1 5.45 26.0 5.4 25.95 5.3 25.9 5.25 25.9 5.2 25.9 5.1 25.9 4.95 25.9 4.85 25.9 4.7 25.9 4.6 25.9 4.45 25.9 4.3 25.9 4.15 25.9 4.05 25.9 3.95 25.9 3.75 25.9 3.65 25.9 3.5 25.9 3.35 25.9 3.25 25.95 3.15 26.05 3.0 26.1 2.9 26.15 2.7 26.15 2.6 26.15 2.4 26.2 2.2 26.2 2.1 26.25 1.95 26.25 1.8 26.25 1.65 26.25 1.5 26.25 1.4 26.25 1.25 26.25 1.1 26.25 1.0 26.25 0.85 26.25 0.7 26.25 0.6 26.2 0.5 26.2 0.4 26.15 0.3 26.15 0.2 26.15 0.05 26.15 -0.05 26.1 -0.2 26.1 -0.3 26.05 -0.4 26.05 -0.5 26.05 -0.65 26.05 -0.8 26.0 -0.9 26.0 -1.0 26.0 -1.15 25.95 -1.25 25.95 -1.35 25.95 -1.45 25.9 -1.6 25.9 -1.7 25.9 -1.8 25.85 -1.95 25.85 -2.05 25.8 -2.15 25.8 -2.3 25.8 -2.4 25.8 -2.55 25.8 -2.7 25.8 -2.8 25.8 -2.95 25.8 -3.1 25.8 -3.2 25.8 -3.35 25.8 -3.5 25.8 -3.6 25.8 -3.75 25.8 -3.85 25.8 -4.0 25.9 -4.15 26.1 -4.35 26.15 -4.4 26.2 -4.4 26.3 -4.4 26.5 -4.5 26.55 -4.55 26.75 -4.65 26.85 -4.7 27.0 -4.7 27.05 -4.75 27.15 -4.75 27.3 -4.8 27.35 -4.8 27.5 -4.8 27.65 -4.85 27.8 -4.95 27.9 -4.95 28.1 -4.95 28.2 -5.0 28.3 -5.0 28.4 -5.0 28.55 -5.0 28.65 -5.05 28.8 -5.05 28.95 -5.1 29.1 -5.15 29.25 -5.2 29.35 -5.25 29.5 -5.25 29.6 -5.25 M29.1 -3.1 L29.05 -3.1 28.9 -3.1 28.7 -3.0 28.6 -3.0 28.45 -3.0 28.35 -2.95 28.15 -2.9 28.0 -2.85 27.9 -2.8 27.7 -2.8 27.55 -2.7 27.45 -2.65 27.3 -2.55 27.25 -2.4 27.2 -2.35 27.15 -2.25 27.15 -2.15 27.15 -2.0 27.2 -1.9 27.2 -1.85 27.25 -1.75 27.25 -1.65 27.3 -1.6 27.3 -1.5 27.3 -1.4 27.3 -1.3 27.35 -1.2 27.35 -1.1 27.35 -1.0 27.35 -0.85 27.35 -0.8 27.35 -0.7 27.35 -0.55 27.35 -0.45 27.35 -0.35 27.35 -0.25 27.35 -0.1 27.35 0.0 27.35 0.1 27.35 0.2 27.35 0.35 27.35 0.4 27.35 0.55 27.35 0.7 27.35 0.75 27.35 0.9 27.3 1.05 27.2 1.15 27.2 1.2 27.2 1.4 27.2 1.45 27.2 1.55 27.2 1.7 27.2 1.75 27.2 1.85 27.25 1.95 27.3 2.0 27.3 2.1 27.3 2.2 27.3 2.35 27.3 2.45 27.3 2.5 27.25 2.6 27.2 2.7 27.15 2.85 27.1 3.0 27.15 3.1 27.15 3.25 27.15 3.3 27.15 3.45 27.15 3.55 27.1 3.65 27.05 3.75 27.0 3.9 27.0 4.0 27.0 4.1 27.0 4.25 27.0 4.35 26.9 4.5 26.85 4.65 26.85 4.75 26.85 4.9 26.8 5.0 26.8 5.2 26.8 5.25 26.8 5.45 26.8 5.5 26.9 5.5 27.0 5.5 27.05 5.55 27.1 5.6 27.2 5.65 27.3 5.65 27.35 5.7 27.5 5.7 27.55 5.7 27.65 5.75 27.75 5.8 27.8 5.8 27.9 5.8 28.0 5.8 28.1 5.85 28.15 5.9 28.2 5.95 28.3 6.0 28.35 6.0 28.45 6.0 28.55 6.05 28.6 6.05 28.75 6.05 28.85 6.05 28.95 6.05 29.1 6.05 29.25 6.0 29.35 5.95 29.5 5.85 29.6 5.8 29.6 5.75 29.65 5.7 29.65 5.65 29.7 5.65 29.7 5.55 29.85 5.5 29.85 5.45 29.95 5.35 30.05 5.2 30.15 5.05 30.2 5.0 30.2 4.95 30.25 4.85 30.35 4.7 30.35 4.55 30.4 4.45 30.45 4.4 30.45 4.25 30.55 4.15 30.55 4.05 30.6 4.0 30.65 3.8 30.65 3.7 30.75 3.5 30.8 3.3 30.85 3.2 30.85 3.05 30.85 2.95 30.85 2.85 30.85 2.7 30.85 2.65 30.85 2.5 30.85 2.4 30.85 2.25 30.9 2.1 30.9 2.0 30.9 1.9 30.9 1.8 30.9 1.7 30.95 1.5 30.95 1.4 30.95 1.3 30.95 1.2 30.95 1.05 30.95 0.95 31.0 0.8 31.0 0.7 31.0 0.6 30.95 0.5 30.95 0.4 30.95 0.3 30.95 0.15 30.9 0.1 30.95 -0.05 30.95 -0.15 30.95 -0.25 30.95 -0.35 30.95 -0.5 30.9 -0.55 30.9 -0.65 30.9 -0.75 30.85 -0.85 30.85 -0.9 30.85 -1.05 30.85 -1.15 30.85 -1.25 30.85 -1.35 30.8 -1.45 30.8 -1.55 30.75 -1.6 30.75 -1.7 30.7 -1.8 30.65 -1.85 30.65 -1.95 30.65 -2.05 30.65 -2.15 30.65 -2.25 30.6 -2.35 30.6 -2.4 30.65 -2.45 30.65 -2.55 30.65 -2.65 30.65 -2.75 30.65 -2.85 30.65 -2.9 30.6 -3.0 30.55 -3.1 30.5 -3.15 30.45 -3.2 30.35 -3.25 30.35 -3.3 30.25 -3.35 30.15 -3.4 30.05 -3.4 29.95 -3.4 29.85 -3.35 29.65 -3.25 29.6 -3.2 29.55 -3.2 29.45 -3.2 29.25 -3.15 29.1 -3.1 M5.3 29.1 L5.3 29.2 5.3 29.3 5.35 29.45 5.35 29.6 5.35 29.65 5.35 29.8 5.35 29.95 5.4 30.1 5.4 30.2 5.4 30.3 5.4 30.4 5.4 30.55 5.4 30.65 5.4 30.75 5.4 30.9 5.45 31.05 5.55 31.15 5.6 31.3 5.65 31.4 5.6 31.4 5.4 31.4 5.25 31.5 5.05 31.5 4.9 31.55 4.7 31.65 4.6 31.7 4.45 31.75 4.3 31.8 4.1 31.85 3.9 31.95 3.7 32.0 3.55 32.0 3.4 32.05 3.2 32.1 3.05 32.1 2.95 32.1 2.8 32.1 2.65 32.1 2.45 32.2 2.3 32.2 2.2 32.2 2.05 32.2 1.9 32.2 1.7 32.25 1.55 32.25 1.45 32.25 1.35 32.3 1.3 32.25 1.2 32.2 1.1 32.15 1.05 32.1 0.95 32.05 0.85 32.0 0.75 32.0 0.65 31.95 0.5 31.95 0.35 31.95 0.2 32.0 0.1 32.0 -0.1 32.0 -0.2 32.0 -0.35 32.0 -0.45 32.0 -0.65 32.05 -0.85 32.1 -0.95 32.1 -1.1 32.1 -1.25 32.1 -1.35 32.1 -1.5 32.1 -1.6 32.05 -1.7 32.05 -1.8 32.0 -1.9 31.95 -2.0 31.95 -2.1 31.9 -2.2 31.9 -2.35 31.9 -2.45 31.85 -2.55 31.8 -2.65 31.8 -2.75 31.75 -2.85 31.75 -3.0 31.75 -3.1 31.7 -3.2 31.7 -3.3 31.65 -3.4 31.65 -3.5 31.6 -3.6 31.55 -3.75 31.55 -3.9 31.55 -4.0 31.55 -4.15 31.55 -4.25 31.5 -4.35 31.5 -4.45 31.5 -4.55 31.45 -4.65 31.4 -4.75 31.4 -4.9 31.4 -5.05 31.4 -5.15 31.4 -5.25 31.35 -5.4 31.35 -5.5 31.35 -5.65 31.35 -5.75 31.35 -5.8 31.3 -5.9 31.25 -6.0 31.2 -6.1 31.15 -6.2 31.1 -6.25 31.1 -6.35 31.05 -6.5 31.05 -6.55 30.95 -6.65 30.95 -6.7 30.85 -6.8 30.8 -6.9 30.75 -6.9 30.65 -6.95 30.55 -6.95 30.45 -7.0 30.35 -7.0 30.25 -7.05 30.15 -7.05 30.0 -7.1 29.9 -7.1 29.8 -7.1 29.7 -6.85 29.45 -6.75 29.3 -6.65 29.15 -6.55 29.05 -6.55 29.0 -6.45 28.85 -6.4 28.75 -6.35 28.6 -6.3 28.45 -6.2 28.25 -6.15 28.1 -6.1 28.05 -6.05 27.9 -5.95 27.7 -5.9 27.6 -5.8 27.5 -5.8 27.35 -5.75 27.2 -5.75 27.05 -5.75 26.95 -5.7 26.75 -5.6 26.55 -5.6 26.4 -5.55 26.2 -5.45 26.05 -5.4 25.9 -5.4 25.8 -5.3 25.75 -5.15 25.75 -4.95 25.65 -4.8 25.6 -4.65 25.5 -4.55 25.45 -4.45 25.4 -4.3 25.4 -4.15 25.4 -4.05 25.4 -3.9 25.4 -3.75 25.4 -3.65 25.4 -3.5 25.4 -3.35 25.4 -3.2 25.4 -3.1 25.4 -3.05 25.4 -2.8 25.45 -2.75 25.45 -2.65 25.5 -2.55 25.5 -2.4 25.5 -2.3 25.55 -2.2 25.55 -2.0 25.5 -1.9 25.55 -1.8 25.55 -1.7 25.6 -1.6 25.6 -1.45 25.6 -1.35 25.6 -1.2 25.6 -1.05 25.6 -0.85 25.55 -0.7 25.55 -0.6 25.55 -0.45 25.55 0.5 25.5 0.55 25.5 0.65 25.5 0.75 25.5 0.85 25.55 1.0 25.55 1.15 25.55 1.3 25.5 1.45 25.5 1.5 25.5 1.65 25.45 1.75 25.45 1.8 25.45 1.9 25.4 2.0 25.35 2.05 25.35 2.15 25.3 2.2 25.3 2.3 25.3 2.4 25.3 2.5 25.3 2.6 25.3 2.7 25.3 2.8 25.3 2.85 25.25 2.95 25.25 3.05 25.2 3.1 25.15 3.15 25.1 3.2 25.2 3.3 25.25 3.35 25.3 3.4 25.4 3.5 25.45 3.55 25.5 3.65 25.55 3.75 25.6 3.85 25.6 3.95 25.65 4.1 25.65 4.2 25.65 4.2 25.7 4.25 25.75 4.3 25.75 4.35 25.8 4.4 25.85 4.4 25.9 4.45 26.05 4.55 26.2 4.6 26.3 4.65 26.45 4.7 26.55 4.75 26.7 4.8 26.75 4.8 26.85 4.85 27.0 4.85 27.05 4.85 27.2 4.85 27.35 4.95 27.55 5.0 27.6 5.0 27.8 5.05 27.9 5.05 28.0 5.05 28.1 5.05 28.25 5.1 28.35 5.1 28.5 5.1 28.65 5.15 28.8 5.25 28.95 5.3 29.1 M2.65 27.15 L2.55 27.05 2.45 26.95 2.35 26.9 2.3 26.85 2.15 26.85 2.05 26.85 1.95 26.9 1.85 26.9 1.75 26.95 1.7 26.95 1.6 27.0 1.5 27.05 1.45 27.05 1.3 27.05 1.25 27.05 1.15 27.05 1.0 27.05 0.9 27.05 0.8 27.05 0.75 27.05 0.55 27.05 0.5 27.05 0.35 27.05 0.25 27.05 0.15 27.05 0.0 27.05 -0.05 27.05 -0.2 27.05 -0.3 27.05 -0.4 27.05 -0.5 27.05 -0.65 27.05 -0.75 27.05 -0.85 27.05 -1.05 27.0 -1.1 26.9 -1.2 26.9 -1.35 26.9 -1.45 26.9 -1.55 26.9 -1.65 26.9 -1.75 26.9 -1.8 26.9 -1.9 26.95 -2.0 27.0 -2.05 27.0 -2.2 27.0 -2.3 27.0 -2.4 27.0 -2.5 27.0 -2.55 26.95 -2.7 26.9 -2.8 26.85 -3.0 26.8 -3.05 26.85 -3.2 26.85 -3.3 26.85 -3.4 26.85 -3.55 26.85 -3.6 26.8 -3.75 26.75 -3.85 26.7 -3.95 26.7 -4.1 26.7 -4.2 26.7 -4.35 26.7 -4.5 26.6 -4.6 26.55 -4.75 26.55 -4.85 26.55 -5.0 26.55 -5.15 26.55 -5.25 26.55 -5.4 26.5 -5.45 26.5 -5.45 26.6 -5.5 26.7 -5.55 26.75 -5.6 26.8 -5.6 26.9 -5.6 27.0 -5.65 27.05 -5.65 27.2 -5.65 27.3 -5.7 27.35 -5.75 27.45 -5.75 27.55 -5.8 27.6 -5.8 27.7 -5.85 27.8 -5.9 27.85 -5.9 27.9 -5.95 28.0 -5.95 28.1 -5.95 28.15 -6.0 28.25 -6.0 28.35 -6.05 28.45 -6.05 28.55 -6.05 28.65 -6.0 28.8 -5.95 28.95 -5.9 29.1 -5.85 29.2 -5.75 29.35 -5.7 29.3 -5.65 29.35 -5.6 29.35 -5.6 29.4 -5.55 29.4 -5.45 29.6 -5.4 29.6 -5.35 29.65 -5.15 29.75 -5.05 29.85 -4.95 29.9 -4.9 29.9 -4.85 29.95 -4.65 30.05 -4.55 30.1 -4.4 30.1 -4.35 30.15 -4.25 30.15 -4.1 30.25 -4.05 30.25 -3.95 30.3 -3.8 30.35 -3.65 30.4 -3.45 30.45 -3.3 30.5 -3.15 30.55 -3.05 30.55 -2.95 30.55 -2.8 30.55 -2.7 30.55 -2.6 30.55 -2.5 30.55 -2.35 30.55 -2.25 30.55 -2.05 30.65 -2.0 30.65 -1.85 30.65 -1.8 30.6 -1.65 30.65 -1.5 30.65 -1.35 30.65 -1.3 30.65 -1.15 30.65 -1.05 30.65 -0.9 30.65 -0.8 30.7 -0.7 30.7 -0.55 30.7 -0.5 30.65 -0.4 30.65 -0.25 30.65 -0.15 30.65 -0.05 30.65 0.05 30.65 0.2 30.65 0.25 30.65 0.4 30.65 0.5 30.65 0.55 30.65 0.7 30.65 0.75 30.6 0.85 30.55 0.95 30.55 1.05 30.55 1.2 30.55 1.25 30.55 1.4 30.55 1.5 30.5 1.55 30.5 1.65 30.45 1.75 30.45 1.8 30.4 1.9 30.4 2.0 30.4 2.05 30.35 2.15 30.35 2.3 30.35 2.35 30.3 2.45 30.3 2.5 30.35 2.55 30.35 2.65 30.4 2.8 30.4 2.85 30.4 2.95 30.35 3.05 30.3 3.1 30.25 3.15 30.2 3.25 30.15 3.3 30.1 3.3 30.05 3.35 29.95 3.4 29.85 3.4 29.75 3.4 29.65 3.35 29.55 3.3 29.35 3.25 29.3 3.25 29.25 3.25 29.15 3.15 28.95 3.1 28.85 3.1 28.75 3.1 28.6 3.05 28.4 3.05 28.3 3.05 28.15 3.0 28.05 2.95 27.85 2.85 27.7 2.8 27.6 2.8 27.55 2.8 27.4 2.75 27.3 2.65 27.15 M-30.4 -7.45 L-30.4 -7.55 -30.3 -7.55 -30.15 -7.55 -30.05 -7.5 -29.95 -7.5 -29.9 -7.45 -29.8 -7.4 -29.7 -7.35 -29.6 -7.3 -29.5 -7.3 -29.4 -7.3 -29.25 -7.25 -29.15 -7.25 -29.05 -7.2 -28.95 -7.15 -28.85 -7.15 -28.75 -7.1 -28.65 -7.05 -28.6 -7.0 -28.5 -6.95 -28.4 -6.95 -28.3 -6.9 -28.25 -6.85 -28.15 -6.8 -28.05 -6.75 -27.9 -6.75 -27.8 -6.75 -27.7 -6.7 -27.6 -6.7 -27.5 -6.65 -27.4 -6.6 -27.3 -6.55 -27.2 -6.55 -27.1 -6.5 -27.05 -6.45 -26.9 -6.4 -26.85 -6.35 -26.75 -6.35 -26.65 -6.3 -26.55 -6.25 -26.45 -6.2 -26.35 -6.15 -26.25 -6.15 -26.15 -6.1 -26.05 -6.1 -25.95 -6.05 -25.9 -6.0 -25.75 -5.95 -25.65 -5.95 -25.55 -5.95 -25.4 -5.95 -25.25 -5.95 -25.15 -5.95 -25.2 -5.8 -25.2 -5.6 -25.25 -5.4 -25.3 -5.25 -25.35 -5.1 -25.4 -4.95 -25.45 -4.8 -25.5 -4.65 -25.5 -4.45 -25.5 -4.35 -25.55 -4.15 -25.6 -4.0 -25.6 -3.85 -25.6 -3.7 -25.65 -3.5 -25.7 -3.35 -25.65 -3.25 -25.7 -3.1 -25.65 -3.0 -25.65 -2.85 -25.65 -2.75 -25.6 -2.65 -25.6 -2.5 -25.6 -2.4 -25.6 -2.25 -25.6 -2.15 -25.55 -2.05 -25.55 -1.95 -25.5 -1.8 -25.5 -1.7 -25.5 -1.55 -25.5 -1.45 -25.5 -1.3 -25.45 -1.2 -25.45 -1.1 -25.4 -1.0 -25.35 -0.9 -25.4 -0.75 -25.35 -0.65 -25.35 -0.5 -25.35 -0.4 -25.3 -0.3 -25.3 -0.2 -25.3 -0.05 -25.25 0.05 -25.25 0.15 -25.25 0.3 -25.2 0.4 -25.25 0.55 -25.25 0.7 -25.25 0.85 -25.3 1.0 -25.3 1.15 -25.3 1.25 -25.3 1.45 -25.35 1.6 -25.35 1.75 -25.4 1.9 -25.4 2.05 -25.45 2.2 -25.45 2.4 -25.45 2.5 -25.45 2.6 -25.4 2.75 -25.4 2.85 -25.35 2.95 -25.35 3.05 -25.3 3.15 -25.3 3.3 -25.3 3.4 -25.25 3.5 -25.2 3.6 -25.2 3.7 -25.2 3.8 -25.2 3.95 -25.15 4.05 -25.15 4.15 -25.1 4.3 -25.05 4.35 -25.0 4.45 -25.15 4.5 -25.35 4.7 -25.4 4.75 -25.45 4.75 -25.55 4.8 -25.7 4.9 -25.8 4.95 -25.95 4.95 -26.15 5.0 -26.35 5.1 -26.55 5.1 -26.7 5.15 -26.85 5.15 -27.0 5.2 -27.15 5.2 -27.3 5.25 -27.5 5.25 -27.65 5.3 -27.8 5.3 -27.9 5.3 -28.1 5.35 -28.25 5.4 -28.4 5.4 -28.5 5.4 -28.65 5.4 -28.8 5.4 -28.9 5.4 -29.05 5.4 -29.2 5.45 -29.4 5.5 -29.55 5.5 -29.7 5.5 -29.8 5.5 -29.95 5.5 -30.1 5.5 -30.25 5.5 -30.3 5.45 -30.35 5.35 -30.35 5.25 -30.4 5.15 -30.45 5.05 -30.5 4.95 -30.5 4.85 -30.5 4.75 -30.55 4.65 -30.6 4.55 -30.65 4.45 -30.7 4.35 -30.7 4.25 -30.75 4.15 -30.8 4.1 -30.85 4.0 -30.9 3.9 -30.95 3.85 -31.0 3.75 -31.05 3.7 -31.1 3.6 -31.1 3.45 -31.1 3.35 -31.15 3.25 -31.15 3.15 -31.2 3.05 -31.25 2.95 -31.3 2.85 -31.35 2.8 -31.4 2.7 -31.4 2.6 -31.45 2.45 -31.45 2.35 -31.45 2.25 -31.5 2.15 -31.5 2.0 -31.5 1.9 -31.55 1.8 -31.55 1.65 -31.55 1.5 -31.55 1.4 -31.55 1.25 -31.55 1.1 -31.5 0.95 -31.5 0.85 -31.55 0.7 -31.45 0.5 -31.45 0.35 -31.45 0.25 -31.45 0.1 -31.4 -0.05 -31.4 -0.2 -31.4 -0.35 -31.4 -0.45 -31.4 -0.6 -31.4 -0.75 -31.4 -0.85 -31.4 -1.0 -31.4 -1.15 -31.4 -1.25 -31.4 -1.4 -31.4 -1.55 -31.4 -1.65 -31.4 -1.8 -31.4 -1.95 -31.35 -2.1 -31.35 -2.25 -31.35 -2.35 -31.4 -2.5 -31.4 -2.6 -31.35 -2.75 -31.3 -2.95 -31.3 -3.1 -31.3 -3.2 -31.3 -3.35 -31.25 -3.55 -31.25 -3.7 -31.2 -3.85 -31.2 -4.0 -31.2 -4.15 -31.15 -4.3 -31.1 -4.45 -31.1 -4.65 -31.05 -4.8 -31.0 -5.0 -30.95 -5.2 -30.85 -5.4 -30.8 -5.6 -30.75 -5.8 -30.65 -6.0 -30.6 -6.15 -30.6 -6.3 -30.55 -6.5 -30.5 -6.7 -30.45 -6.9 -30.4 -7.05 -30.4 -7.2 -30.4 -7.3 -30.4 -7.45 M-26.2 -5.15 L-26.25 -5.2 -26.35 -5.2 -26.45 -5.25 -26.5 -5.25 -26.6 -5.3 -26.7 -5.3 -26.8 -5.3 -26.9 -5.35 -26.95 -5.4 -27.05 -5.4 -27.15 -5.45 -27.2 -5.45 -27.3 -5.5 -27.4 -5.5 -27.45 -5.55 -27.5 -5.6 -27.6 -5.6 -27.7 -5.6 -27.75 -5.65 -27.85 -5.65 -28.0 -5.7 -28.05 -5.7 -28.2 -5.7 -28.3 -5.65 -28.5 -5.6 -28.6 -5.55 -28.75 -5.5 -28.85 -5.4 -28.8 -5.35 -28.9 -5.3 -28.9 -5.25 -28.95 -5.25 -28.95 -5.2 -29.1 -5.1 -29.1 -5.05 -29.2 -4.95 -29.25 -4.8 -29.4 -4.7 -29.45 -4.6 -29.45 -4.55 -29.5 -4.45 -29.55 -4.3 -29.6 -4.2 -29.65 -4.05 -29.7 -4.0 -29.7 -3.9 -29.75 -3.75 -29.75 -3.7 -29.8 -3.6 -29.85 -3.45 -29.9 -3.3 -30.0 -3.1 -30.05 -2.95 -30.05 -2.8 -30.05 -2.65 -30.05 -2.6 -30.05 -2.45 -30.05 -2.35 -30.05 -2.25 -30.05 -2.15 -30.05 -2.0 -30.05 -1.9 -30.15 -1.7 -30.15 -1.65 -30.15 -1.5 -30.1 -1.4 -30.15 -1.3 -30.2 -1.15 -30.2 -1.0 -30.2 -0.9 -30.2 -0.8 -30.2 -0.65 -30.2 -0.55 -30.25 -0.4 -30.25 -0.35 -30.25 -0.2 -30.2 -0.1 -30.2 -0.05 -30.2 0.1 -30.2 0.2 -30.15 0.3 -30.2 0.4 -30.2 0.55 -30.2 0.65 -30.2 0.75 -30.2 0.9 -30.15 0.9 -30.15 1.05 -30.1 1.15 -30.05 1.2 -30.05 1.3 -30.05 1.4 -30.05 1.55 -30.05 1.65 -30.05 1.75 -30.05 1.85 -30.05 1.9 -30.0 2.0 -30.0 2.1 -29.95 2.15 -29.9 2.25 -29.9 2.35 -29.85 2.45 -29.85 2.5 -29.85 2.65 -29.8 2.7 -29.8 2.8 -29.85 2.85 -29.85 2.95 -29.9 3.0 -29.9 3.15 -29.9 3.2 -29.85 3.3 -29.8 3.4 -29.75 3.45 -29.75 3.5 -29.7 3.6 -29.6 3.65 -29.55 3.7 -29.5 3.7 -29.4 3.75 -29.25 3.75 -29.2 3.75 -29.05 3.7 -28.9 3.65 -28.8 3.6 -28.7 3.6 -28.5 3.5 -28.35 3.45 -28.25 3.45 -28.15 3.45 -27.95 3.4 -27.8 3.4 -27.7 3.4 -27.55 3.35 -27.4 3.3 -27.2 3.2 -27.05 3.2 -26.95 3.2 -26.8 3.1 -26.7 3.0 -26.55 2.95 -26.45 2.8 -26.45 2.7 -26.4 2.65 -26.4 2.5 -26.4 2.4 -26.45 2.3 -26.45 2.2 -26.45 2.15 -26.45 2.05 -26.5 1.95 -26.55 1.9 -26.55 1.8 -26.55 1.65 -26.6 1.6 -26.6 1.5 -26.6 1.4 -26.6 1.25 -26.6 1.15 -26.6 1.1 -26.6 0.9 -26.6 0.85 -26.6 0.7 -26.6 0.65 -26.6 0.5 -26.6 0.4 -26.6 0.3 -26.6 0.15 -26.6 0.05 -26.6 -0.05 -26.6 -0.15 -26.6 -0.3 -26.6 -0.4 -26.6 -0.5 -26.5 -0.65 -26.45 -0.75 -26.45 -0.85 -26.45 -1.0 -26.45 -1.15 -26.45 -1.3 -26.45 -1.4 -26.45 -1.45 -26.45 -1.55 -26.5 -1.65 -26.5 -1.7 -26.5 -1.85 -26.5 -1.95 -26.5 -2.05 -26.5 -2.15 -26.45 -2.2 -26.45 -2.35 -26.4 -2.45 -26.35 -2.65 -26.4 -2.7 -26.4 -2.85 -26.4 -2.95 -26.4 -3.05 -26.4 -3.2 -26.35 -3.25 -26.25 -3.4 -26.2 -3.5 -26.2 -3.6 -26.2 -3.7 -26.2 -3.85 -26.2 -3.95 -26.15 -4.15 -26.1 -4.25 -26.1 -4.4 -26.1 -4.5 -26.05 -4.65 -26.05 -4.8 -26.05 -4.9 -26.0 -5.05 -26.0 -5.1 -26.05 -5.1 -26.15 -5.1 -26.2 -5.15" fill="#700095" fill-rule="evenodd" stroke="none"/>
  </g>
</svg>
