<?xml version="1.0" encoding="UTF-8" standalone="no"?>
<svg xmlns:ffdec="https://www.free-decompiler.com/flash" xmlns:xlink="http://www.w3.org/1999/xlink" ffdec:objectType="shape" height="15.55px" width="133.5px" xmlns="http://www.w3.org/2000/svg">
  <g transform="matrix(1.0, 0.0, 0.0, 1.0, -47.65, -0.05)">
    <path d="M173.35 3.4 L175.65 0.05 181.15 0.05 181.15 14.7 175.1 14.7 175.1 12.95 173.35 15.6 171.6 12.95 171.6 14.7 165.55 14.7 165.55 11.45 164.6 12.55 Q162.65 14.55 159.95 14.7 L158.95 14.7 Q156.2 14.55 154.25 12.55 L153.35 11.5 153.35 14.7 147.45 14.7 Q144.7 14.55 142.75 12.55 L141.85 11.45 141.85 11.7 Q141.85 12.95 140.95 13.85 140.15 14.6 139.15 14.7 L138.5 14.7 Q137.45 14.6 136.65 13.85 135.8 12.95 135.8 11.7 135.8 10.75 136.3 10.05 135.05 10.65 133.6 10.65 L130.85 10.65 130.85 14.7 98.65 14.7 Q95.75 14.55 93.65 12.6 92.45 11.55 91.85 10.25 L91.85 14.7 79.65 14.7 79.7 13.15 Q79.55 10.5 78.3 9.2 L77.65 8.7 77.65 14.7 59.6 14.7 59.6 12.7 57.55 15.5 55.5 12.7 55.5 14.7 49.05 14.7 49.05 6.05 47.65 6.05 47.65 0.05 54.95 0.05 55.15 0.4 55.3 0.5 57.6 3.55 60.15 0.05 72.85 0.05 Q75.8 0.1 78.3 1.2 L79.7 1.9 79.7 0.05 91.85 0.05 91.85 4.5 Q92.45 3.2 93.65 2.2 L93.65 2.15 Q95.9 0.1 99.0 0.05 L110.8 0.05 110.8 8.7 118.65 8.7 118.65 0.05 133.75 0.05 Q135.95 0.1 137.55 1.55 139.3 3.15 139.3 5.35 139.3 7.35 137.95 8.8 L138.8 8.7 Q140.05 8.7 140.9 9.55 140.6 8.55 140.6 7.35 140.6 4.4 142.8 2.2 144.85 0.1 147.7 0.05 L153.35 0.05 153.35 3.3 154.3 2.2 Q156.35 0.1 159.2 0.05 L159.6 0.05 Q162.55 0.1 164.6 2.2 L165.55 3.3 165.5 0.05 171.05 0.05 171.3 0.4 171.4 0.5 173.35 3.4 M180.1 1.1 L176.2 1.1 173.35 5.4 170.45 1.1 166.65 1.1 166.65 13.65 170.5 13.65 170.5 9.4 173.35 13.65 176.2 9.4 176.2 13.65 180.1 13.65 180.1 1.1 M159.45 4.95 Q160.4 4.95 161.15 5.65 161.85 6.4 161.85 7.35 161.85 8.35 161.15 9.1 160.45 9.8 159.45 9.8 158.45 9.8 157.75 9.1 157.05 8.35 157.05 7.35 157.05 6.4 157.75 5.65 158.45 4.95 159.45 4.95 M165.65 7.35 Q165.65 4.8 163.8 2.95 162.05 1.1 159.45 1.1 156.85 1.1 155.0 2.95 153.2 4.8 153.2 7.35 153.2 10.0 155.0 11.8 156.85 13.65 159.45 13.65 162.05 13.65 163.8 11.8 165.65 9.95 165.65 7.35 M152.25 4.95 L152.25 1.1 147.95 1.1 Q145.35 1.1 143.5 2.95 141.7 4.8 141.7 7.35 141.7 10.0 143.5 11.8 145.35 13.65 147.95 13.65 L152.25 13.65 152.25 9.8 147.95 9.8 Q146.95 9.8 146.25 9.1 145.55 8.35 145.55 7.35 145.55 6.4 146.25 5.65 146.95 4.95 147.95 4.95 L152.25 4.95 M160.75 7.35 Q160.75 6.85 160.35 6.45 159.95 6.05 159.45 6.05 158.9 6.05 158.55 6.45 158.15 6.85 158.15 7.35 158.15 7.9 158.55 8.3 L158.55 8.35 Q158.9 8.7 159.45 8.7 159.95 8.7 160.35 8.3 L160.4 8.3 Q160.75 7.9 160.75 7.35 M152.2 8.7 L152.1 7.35 152.2 6.05 147.95 6.05 Q147.4 6.05 147.05 6.45 146.65 6.85 146.65 7.35 146.65 7.9 147.05 8.3 L147.05 8.35 Q147.4 8.7 147.95 8.7 L152.2 8.7 M132.75 4.4 Q134.0 4.4 134.0 5.35 134.0 6.35 132.75 6.35 L129.75 6.35 129.75 4.4 132.75 4.4 M138.2 5.35 Q138.2 3.6 136.85 2.35 135.5 1.1 133.6 1.1 L125.55 1.1 125.55 13.65 129.75 13.65 129.75 9.6 133.6 9.6 Q135.5 9.6 136.85 8.35 138.2 7.1 138.2 5.35 M137.45 10.3 Q136.9 10.9 136.9 11.7 136.9 12.5 137.45 13.05 138.0 13.65 138.8 13.65 139.6 13.65 140.15 13.05 140.7 12.5 140.7 11.7 140.7 10.9 140.15 10.3 139.6 9.75 138.8 9.75 138.0 9.75 137.45 10.3 M124.0 13.65 L124.0 1.1 119.75 1.1 119.75 13.65 124.0 13.65 M109.75 9.8 L109.75 1.1 105.55 1.1 105.55 13.65 118.15 13.65 118.15 9.8 109.75 9.8 M104.4 8.7 L104.4 6.05 99.2 6.05 Q98.55 6.05 98.1 6.5 97.7 6.85 97.7 7.35 97.7 7.9 98.1 8.3 98.55 8.7 99.2 8.7 L104.4 8.7 M103.95 4.95 L103.95 1.1 99.2 1.1 Q96.4 1.1 94.4 2.95 92.35 4.8 92.35 7.35 92.35 10.0 94.4 11.8 96.35 13.65 99.2 13.65 L103.95 13.65 103.95 9.8 99.2 9.8 Q98.1 9.8 97.35 9.1 96.55 8.35 96.55 7.35 96.55 6.4 97.35 5.65 98.1 5.0 99.2 4.95 L103.95 4.95 M90.8 1.1 L86.6 1.1 86.6 13.65 90.8 13.65 90.8 1.1 M85.0 13.65 L85.0 1.1 80.75 1.1 80.75 4.4 Q80.0 3.15 77.85 2.2 75.35 1.1 72.4 1.1 L72.35 1.1 72.35 13.65 76.55 13.65 76.55 7.3 Q77.9 7.3 79.0 8.35 80.75 10.05 80.75 13.65 L85.0 13.65 M65.0 1.1 L60.75 1.1 57.6 5.35 54.4 1.1 48.7 1.1 48.7 4.95 50.2 4.95 50.2 13.65 54.4 13.65 54.4 9.4 57.6 13.65 60.75 9.4 60.75 13.65 65.0 13.65 65.0 1.1 M70.75 1.1 L66.55 1.1 66.55 13.65 70.75 13.65 70.75 1.1" fill="#ffffff" fill-rule="evenodd" stroke="none"/>
    <path d="M180.1 1.1 L180.1 13.65 176.2 13.65 176.2 9.4 173.35 13.65 170.5 9.4 170.5 13.65 166.65 13.65 166.65 1.1 170.45 1.1 173.35 5.4 176.2 1.1 180.1 1.1" fill="url(#gradient0)" fill-rule="evenodd" stroke="none"/>
    <path d="M165.65 7.35 Q165.65 9.95 163.8 11.8 162.05 13.65 159.45 13.65 156.85 13.65 155.0 11.8 153.2 10.0 153.2 7.35 153.2 4.8 155.0 2.95 156.85 1.1 159.45 1.1 162.05 1.1 163.8 2.95 165.65 4.8 165.65 7.35 M159.45 4.95 Q158.45 4.95 157.75 5.65 157.05 6.4 157.05 7.35 157.05 8.35 157.75 9.1 158.45 9.8 159.45 9.8 160.45 9.8 161.15 9.1 161.85 8.35 161.85 7.35 161.85 6.4 161.15 5.65 160.4 4.95 159.45 4.95" fill="url(#gradient1)" fill-rule="evenodd" stroke="none"/>
    <path d="M152.25 4.95 L147.95 4.95 Q146.95 4.95 146.25 5.65 145.55 6.4 145.55 7.35 145.55 8.35 146.25 9.1 146.95 9.8 147.95 9.8 L152.25 9.8 152.25 13.65 147.95 13.65 Q145.35 13.65 143.5 11.8 141.7 10.0 141.7 7.35 141.7 4.8 143.5 2.95 145.35 1.1 147.95 1.1 L152.25 1.1 152.25 4.95 M137.45 10.3 Q138.0 9.75 138.8 9.75 139.6 9.75 140.15 10.3 140.7 10.9 140.7 11.7 140.7 12.5 140.15 13.05 139.6 13.65 138.8 13.65 138.0 13.65 137.45 13.05 136.9 12.5 136.9 11.7 136.9 10.9 137.45 10.3" fill="url(#gradient2)" fill-rule="evenodd" stroke="none"/>
    <path d="M138.2 5.35 Q138.2 7.1 136.85 8.35 135.5 9.6 133.6 9.6 L129.75 9.6 129.75 13.65 125.55 13.65 125.55 1.1 133.6 1.1 Q135.5 1.1 136.85 2.35 138.2 3.6 138.2 5.35 M132.75 4.4 L129.75 4.4 129.75 6.35 132.75 6.35 Q134.0 6.35 134.0 5.35 134.0 4.4 132.75 4.4" fill="url(#gradient3)" fill-rule="evenodd" stroke="none"/>
    <path d="M124.0 13.65 L119.75 13.65 119.75 1.1 124.0 1.1 124.0 13.65" fill="url(#gradient4)" fill-rule="evenodd" stroke="none"/>
    <path d="M103.95 4.95 L99.2 4.95 Q98.1 5.0 97.35 5.65 96.55 6.4 96.55 7.35 96.55 8.35 97.35 9.1 98.1 9.8 99.2 9.8 L103.95 9.8 103.95 13.65 99.2 13.65 Q96.35 13.65 94.4 11.8 92.35 10.0 92.35 7.35 92.35 4.8 94.4 2.95 96.4 1.1 99.2 1.1 L103.95 1.1 103.95 4.95" fill="url(#gradient5)" fill-rule="evenodd" stroke="none"/>
    <path d="M109.75 9.8 L118.15 9.8 118.15 13.65 105.55 13.65 105.55 1.1 109.75 1.1 109.75 9.8" fill="url(#gradient6)" fill-rule="evenodd" stroke="none"/>
    <path d="M90.8 1.1 L90.8 13.65 86.6 13.65 86.6 1.1 90.8 1.1" fill="url(#gradient7)" fill-rule="evenodd" stroke="none"/>
    <path d="M85.0 13.65 L80.75 13.65 Q80.75 10.05 79.0 8.35 77.9 7.3 76.55 7.3 L76.55 13.65 72.35 13.65 72.35 1.1 72.4 1.1 Q75.35 1.1 77.85 2.2 80.0 3.15 80.75 4.4 L80.75 1.1 85.0 1.1 85.0 13.65" fill="url(#gradient8)" fill-rule="evenodd" stroke="none"/>
    <path d="M70.75 1.1 L70.75 13.65 66.55 13.65 66.55 1.1 70.75 1.1" fill="url(#gradient9)" fill-rule="evenodd" stroke="none"/>
    <path d="M65.0 1.1 L65.0 13.65 60.75 13.65 60.75 9.4 57.6 13.65 54.4 9.4 54.4 13.65 50.2 13.65 50.2 4.95 48.7 4.95 48.7 1.1 54.4 1.1 57.6 5.35 60.75 1.1 65.0 1.1" fill="url(#gradient10)" fill-rule="evenodd" stroke="none"/>
  </g>
  <defs>
    <linearGradient gradientTransform="matrix(0.0, 0.0076, -0.0076, 0.0, 173.35, 7.35)" gradientUnits="userSpaceOnUse" id="gradient0" spreadMethod="pad" x1="-819.2" x2="819.2">
      <stop offset="0.0" stop-color="#ff9900"/>
      <stop offset="1.0" stop-color="#cc0000"/>
    </linearGradient>
    <linearGradient gradientTransform="matrix(0.0, 0.0076, -0.0076, 0.0, 159.45, 7.35)" gradientUnits="userSpaceOnUse" id="gradient1" spreadMethod="pad" x1="-819.2" x2="819.2">
      <stop offset="0.0" stop-color="#ff9900"/>
      <stop offset="1.0" stop-color="#cc0000"/>
    </linearGradient>
    <linearGradient gradientTransform="matrix(0.0, 0.0076, -0.0076, 0.0, 147.0, 7.35)" gradientUnits="userSpaceOnUse" id="gradient2" spreadMethod="pad" x1="-819.2" x2="819.2">
      <stop offset="0.0" stop-color="#ff9900"/>
      <stop offset="1.0" stop-color="#cc0000"/>
    </linearGradient>
    <linearGradient gradientTransform="matrix(0.0, 0.0076, -0.0076, 0.0, 131.9, 7.35)" gradientUnits="userSpaceOnUse" id="gradient3" spreadMethod="pad" x1="-819.2" x2="819.2">
      <stop offset="0.0" stop-color="#ff9900"/>
      <stop offset="1.0" stop-color="#cc0000"/>
    </linearGradient>
    <linearGradient gradientTransform="matrix(0.0, 0.0076, -0.0076, 0.0, 121.85, 7.35)" gradientUnits="userSpaceOnUse" id="gradient4" spreadMethod="pad" x1="-819.2" x2="819.2">
      <stop offset="0.0" stop-color="#ff9900"/>
      <stop offset="1.0" stop-color="#cc0000"/>
    </linearGradient>
    <linearGradient gradientTransform="matrix(0.0, 0.0076, -0.0076, 0.0, 98.15, 7.35)" gradientUnits="userSpaceOnUse" id="gradient5" spreadMethod="pad" x1="-819.2" x2="819.2">
      <stop offset="0.0" stop-color="#ff9900"/>
      <stop offset="1.0" stop-color="#cc0000"/>
    </linearGradient>
    <linearGradient gradientTransform="matrix(0.0, 0.0076, -0.0076, 0.0, 111.9, 7.35)" gradientUnits="userSpaceOnUse" id="gradient6" spreadMethod="pad" x1="-819.2" x2="819.2">
      <stop offset="0.0" stop-color="#ff9900"/>
      <stop offset="1.0" stop-color="#cc0000"/>
    </linearGradient>
    <linearGradient gradientTransform="matrix(0.0, 0.0076, -0.0076, 0.0, 88.65, 7.35)" gradientUnits="userSpaceOnUse" id="gradient7" spreadMethod="pad" x1="-819.2" x2="819.2">
      <stop offset="0.0" stop-color="#ff9900"/>
      <stop offset="1.0" stop-color="#cc0000"/>
    </linearGradient>
    <linearGradient gradientTransform="matrix(0.0, 0.0076, -0.0076, 0.0, 78.65, 7.35)" gradientUnits="userSpaceOnUse" id="gradient8" spreadMethod="pad" x1="-819.2" x2="819.2">
      <stop offset="0.0" stop-color="#ff9900"/>
      <stop offset="1.0" stop-color="#cc0000"/>
    </linearGradient>
    <linearGradient gradientTransform="matrix(0.0, 0.0076, -0.0076, 0.0, 68.65, 7.35)" gradientUnits="userSpaceOnUse" id="gradient9" spreadMethod="pad" x1="-819.2" x2="819.2">
      <stop offset="0.0" stop-color="#ff9900"/>
      <stop offset="1.0" stop-color="#cc0000"/>
    </linearGradient>
    <linearGradient gradientTransform="matrix(0.0, 0.0076, -0.0076, 0.0, 56.85, 7.35)" gradientUnits="userSpaceOnUse" id="gradient10" spreadMethod="pad" x1="-819.2" x2="819.2">
      <stop offset="0.0" stop-color="#ff9900"/>
      <stop offset="1.0" stop-color="#cc0000"/>
    </linearGradient>
  </defs>
</svg>
