<?xml version="1.0" encoding="UTF-8" standalone="no"?>
<svg xmlns:ffdec="https://www.free-decompiler.com/flash" xmlns:xlink="http://www.w3.org/1999/xlink" ffdec:objectType="shape" height="11.35px" width="31.1px" xmlns="http://www.w3.org/2000/svg">
  <g transform="matrix(1.0, 0.0, 0.0, 1.0, 15.85, 11.85)">
    <path d="M10.0 -11.35 L10.2 -11.35 10.35 -11.3 12.85 -11.2 13.05 -11.15 13.2 -11.1 13.35 -11.05 13.55 -11.0 13.8 -10.9 13.95 -10.8 14.05 -10.7 14.15 -10.6 14.25 -10.5 14.35 -10.4 14.45 -10.35 14.5 -10.25 14.55 -10.15 14.65 -10.05 14.7 -9.95 14.75 -9.85 14.8 -9.75 14.85 -9.65 14.9 -9.6 15.0 -9.5 15.05 -9.4 15.05 -9.3 15.1 -9.2 15.15 -9.1 15.15 -9.0 15.15 -8.9 15.15 -8.85 15.15 -8.75 15.2 -8.65 15.25 -8.55 15.25 -8.45 15.25 -8.35 15.25 -8.25 15.25 -8.1 15.25 -8.0 15.25 -7.8 15.25 -7.6 15.25 -7.4 15.25 -7.35 15.25 -7.15 15.25 -7.05 15.2 -6.95 15.15 -6.85 15.15 -6.75 15.1 -6.65 15.05 -6.6 15.0 -6.5 14.9 -6.4 14.9 -6.3 14.85 -6.2 14.8 -6.1 14.8 -6.0 14.75 -5.9 14.7 -5.85 14.65 -5.75 14.55 -5.65 14.45 -5.55 14.35 -5.45 14.3 -5.35 14.3 -5.25 14.25 -5.15 14.2 -5.1 14.15 -5.0 14.05 -4.9 14.0 -4.8 14.0 -4.7 13.9 -4.6 13.8 -4.5 13.75 -4.4 13.7 -4.35 13.65 -4.25 13.55 -4.15 13.45 -4.05 13.4 -3.95 13.3 -3.85 13.25 -3.75 13.2 -3.65 13.15 -3.6 13.05 -3.5 13.0 -3.45 12.95 -3.4 12.9 -3.35 12.85 -3.25 12.8 -3.15 12.75 -3.1 12.65 -3.0 12.6 -2.9 12.55 -2.8 12.5 -2.7 12.5 -2.6 12.4 -2.5 12.25 -2.35 12.15 -2.25 11.95 -2.05 11.75 -1.85 11.7 -1.8 11.65 -1.75 11.6 -1.7 11.55 -1.65 11.5 -1.55 11.45 -1.45 11.35 -1.35 11.25 -1.25 11.1 -1.15 10.95 -1.1 10.85 -1.05 10.7 -1.05 10.55 -1.0 10.45 -0.95 10.2 -0.9 10.05 -0.85 9.95 -0.8 9.6 -0.75 9.45 -0.7 8.55 -0.65 8.45 -0.6 8.2 -0.55 8.0 -0.5 5.4 -0.55 4.85 -0.7 4.8 -0.75 4.75 -0.75 4.55 -0.8 4.4 -0.8 4.3 -0.85 3.1 -0.95 2.75 -0.95 -3.6 -1.0 -3.75 -1.0 -4.1 -0.95 -4.2 -0.9 -4.3 -0.85 -4.4 -0.8 -4.75 -0.75 -5.3 -0.7 -5.7 -0.65 -6.25 -0.55 -10.1 -0.55 -10.65 -0.7 -10.75 -0.8 -10.9 -0.9 -11.0 -1.0 -11.05 -1.0 -11.4 -1.15 -11.5 -1.2 -11.65 -1.3 -11.8 -1.4 -11.9 -1.5 -12.05 -1.6 -12.1 -1.7 -12.2 -1.8 -12.35 -1.9 -12.5 -2.0 -12.6 -2.05 -12.7 -2.15 -12.75 -2.25 -12.8 -2.35 -12.9 -2.45 -12.9 -2.5 -13.1 -2.7 -13.2 -2.8 -13.3 -2.9 -13.35 -3.0 -13.4 -3.1 -13.45 -3.15 -13.55 -3.25 -13.6 -3.35 -13.65 -3.45 -13.7 -3.55 -13.8 -3.65 -13.85 -3.75 -13.9 -3.85 -13.95 -3.9 -14.0 -4.0 -14.05 -4.1 -14.1 -4.2 -14.15 -4.3 -14.2 -4.4 -14.25 -4.5 -14.3 -4.6 -14.4 -4.65 -14.45 -4.75 -14.5 -4.85 -14.55 -4.95 -14.6 -5.05 -14.65 -5.15 -14.75 -5.25 -14.8 -5.35 -14.9 -5.4 -14.95 -5.5 -15.0 -5.6 -15.05 -5.7 -15.1 -5.8 -15.25 -5.9 -15.3 -6.0 -15.4 -6.1 -15.45 -6.15 -15.55 -6.25 -15.6 -6.35 -15.65 -6.45 -15.7 -6.55 -15.75 -6.65 -15.8 -6.75 -15.8 -6.85 -15.85 -6.9 -15.85 -7.0 -15.85 -7.1 -15.85 -7.2 -15.85 -7.3 -15.85 -7.4 -15.85 -7.5 -15.85 -7.6 -15.8 -7.65 -15.8 -7.75 -15.75 -7.85 -15.7 -7.95 -15.75 -8.05 -15.75 -8.15 -15.75 -8.25 -15.75 -8.35 -15.75 -8.5 -15.75 -8.7 -15.75 -9.0 -15.75 -9.1 -15.7 -9.15 -15.7 -9.25 -15.65 -9.35 -15.6 -9.45 -15.55 -9.55 -15.5 -9.65 -15.45 -9.75 -15.4 -9.85 -15.35 -9.9 -15.3 -10.0 -15.25 -10.1 -15.2 -10.2 -15.1 -10.3 -15.0 -10.35 -15.0 -10.4 -14.95 -10.5 -14.85 -10.6 -14.8 -10.65 -14.75 -10.75 -14.7 -10.85 -14.6 -10.95 -14.45 -11.05 -14.3 -11.15 -14.1 -11.25 -14.0 -11.35 -13.85 -11.4 -13.8 -11.4 -13.7 -11.45 -13.35 -11.5 -13.05 -11.55 -12.6 -11.65 -12.55 -11.65 -12.3 -11.7 -11.6 -11.8 -11.45 -11.85 -11.25 -11.85 -9.85 -11.85 -9.3 -11.75 -8.5 -11.75 -8.15 -11.7 -7.25 -11.65 -6.7 -11.55 -6.6 -11.45 -4.85 -11.6 -4.4 -11.55 -1.5 -11.5 -1.4 -11.5 -1.3 -11.45 0.35 -11.45 0.55 -11.45 0.8 -11.35 0.9 -11.45 1.05 -11.55 1.2 -11.6 1.4 -11.7 1.55 -11.7 1.75 -11.75 3.25 -11.75 3.6 -11.7 7.85 -11.65 8.2 -11.6 8.3 -11.55 8.35 -11.55 9.45 -11.45 9.6 -11.45 9.9 -11.35 10.0 -11.35" fill="#929292" fill-rule="evenodd" stroke="none"/>
  </g>
</svg>
