<?xml version="1.0" encoding="UTF-8" standalone="no"?>
<svg xmlns:ffdec="https://www.free-decompiler.com/flash" xmlns:xlink="http://www.w3.org/1999/xlink" ffdec:objectType="shape" height="22.0px" width="20.75px" xmlns="http://www.w3.org/2000/svg">
  <g transform="matrix(1.0, 0.0, 0.0, 1.0, 10.5, 16.0)">
    <path d="M2.95 -12.75 L3.2 -12.95 3.45 -13.1 3.8 -13.3 4.25 -13.5 4.55 -13.7 4.95 -13.85 5.45 -13.95 5.5 -14.0 5.65 -14.1 5.8 -14.3 6.0 -14.5 6.2 -14.7 6.4 -14.85 6.55 -15.05 6.75 -15.25 6.95 -15.45 7.15 -15.6 7.3 -15.8 7.65 -15.95 8.0 -15.95 8.0 -16.0 8.5 -16.0 9.0 -15.85 9.3 -15.7 9.5 -15.5 9.55 -15.3 9.7 -15.1 9.75 -14.95 9.75 -14.75 9.75 -14.55 9.75 -14.35 9.75 -14.2 9.75 -14.0 9.75 -13.8 9.75 -13.6 9.75 -13.45 9.75 -13.25 9.75 -13.05 9.75 -12.85 9.75 -12.7 9.75 -12.5 9.75 -12.3 9.75 -12.1 9.75 -11.95 9.75 -11.75 9.8 -11.55 9.95 -11.35 10.0 -11.2 10.0 -11.0 10.0 -10.8 10.0 -10.6 10.0 -10.45 10.0 -10.25 10.0 -10.05 10.0 -9.85 10.0 -9.7 10.0 -9.5 10.0 -9.3 10.0 -9.1 10.0 -8.95 10.0 -8.75 10.0 -8.55 10.0 -8.35 10.0 -8.2 10.0 -8.0 10.0 -7.8 10.05 -7.6 10.15 -7.45 10.2 -7.25 10.25 -7.05 10.25 -6.85 10.25 -6.7 10.25 -6.5 10.25 -6.3 10.25 -6.1 10.25 -5.95 10.25 -5.75 10.25 -5.55 10.25 -5.35 10.25 -5.2 10.25 -5.0 10.25 -4.8 10.25 -4.6 10.25 -4.45 10.25 -4.25 10.25 -4.05 10.25 -3.85 10.25 -3.7 10.25 -3.5 10.25 -3.3 10.25 -3.1 10.25 -2.95 10.2 -2.75 10.15 -2.55 10.05 -2.35 9.95 -2.2 9.9 -2.15 9.9 1.05 9.95 1.1 9.95 3.95 9.9 4.0 9.9 4.7 9.85 4.75 9.85 4.95 9.8 5.0 9.55 5.15 9.5 5.25 9.3 5.45 9.0 5.65 8.5 5.75 -3.75 5.9 -4.25 6.0 -9.25 6.0 -9.8 5.9 -10.05 5.7 -10.25 5.5 -10.35 5.3 -10.45 5.15 -10.5 4.95 -10.5 4.75 -10.5 4.55 -10.5 4.4 -10.5 4.2 -10.45 4.0 -10.3 3.8 -10.3 1.7 -10.25 1.65 -10.25 1.55 -10.2 1.5 -10.2 1.45 -10.15 1.4 -10.15 0.35 -10.1 0.3 -10.1 -0.1 -10.05 -0.15 -10.1 -0.2 -10.1 -0.6 -10.15 -0.65 -10.15 -2.75 -10.2 -2.8 -10.25 -2.85 -10.25 -2.95 -10.3 -3.0 -10.3 -4.9 -10.2 -5.0 -9.8 -5.1 -9.55 -5.2 -9.45 -5.25 -9.2 -5.35 -8.95 -5.55 -8.55 -5.7 -8.45 -5.75 -8.2 -5.85 -7.95 -6.05 -7.7 -6.25 -7.3 -6.45 -6.95 -6.6 -6.55 -6.8 -6.2 -7.0 -5.8 -7.1 -5.45 -7.25 -5.35 -7.3 -5.25 -7.5 -5.05 -7.7 -4.85 -7.85 -4.7 -8.05 -4.3 -8.25 -4.05 -8.45 Q-3.95 -8.55 -3.8 -8.6 L-3.45 -8.8 -3.0 -9.0 -2.7 -9.2 -2.35 -9.35 -2.2 -9.55 -2.0 -9.75 -1.7 -9.95 -1.3 -10.1 -0.95 -10.3 -0.75 -10.5 -0.45 -10.7 -0.1 -10.85 0.05 -11.05 0.5 -11.25 0.8 -11.45 1.2 -11.6 1.55 -11.8 1.75 -12.0 2.05 -12.2 2.4 -12.35 2.55 -12.55 2.95 -12.75" fill="#000000" fill-rule="evenodd" stroke="none"/>
  </g>
</svg>
