<?xml version="1.0" encoding="UTF-8" standalone="no"?>
<svg xmlns:ffdec="https://www.free-decompiler.com/flash" xmlns:xlink="http://www.w3.org/1999/xlink" ffdec:objectType="shape" height="6.0px" width="1.55px" xmlns="http://www.w3.org/2000/svg">
  <g transform="matrix(1.0, 0.0, 0.0, 1.0, 26.6, -10.3)">
    <path d="M-25.15 14.95 L-25.15 15.05 -25.1 15.15 -25.05 15.25 -25.05 16.0 -25.05 16.3 -25.1 16.2 -25.1 16.1 -25.1 16.0 -25.1 15.9 -25.1 15.8 -25.1 15.7 -25.15 15.6 -25.15 15.55 -25.2 15.45 -25.2 15.35 -25.2 15.25 -25.2 15.15 -25.2 15.05 -25.2 14.95 -25.2 14.85 -25.15 14.95 M-25.25 14.5 L-25.2 14.6 -25.2 14.7 -25.2 14.8 -25.25 14.7 -25.3 14.6 -25.3 14.5 -25.35 14.4 -25.25 14.5 M-26.55 10.3 L-26.55 10.55 -26.55 11.05 -26.6 10.95 -26.6 10.85 -26.6 10.75 -26.6 10.65 -26.6 10.55 -26.6 10.45 -26.6 10.35 -26.55 10.3" fill="#ffffff" fill-rule="evenodd" stroke="none"/>
  </g>
</svg>
