<?xml version="1.0" encoding="UTF-8" standalone="no"?>
<svg xmlns:ffdec="https://www.free-decompiler.com/flash" xmlns:xlink="http://www.w3.org/1999/xlink" ffdec:objectType="shape" height="1.8px" width="18.8px" xmlns="http://www.w3.org/2000/svg">
  <g transform="matrix(1.0, 0.0, 0.0, 1.0, 9.75, -1.15)">
    <path d="M9.05 1.4 L9.0 1.45 8.95 1.5 8.9 1.5 8.85 1.55 8.8 1.6 8.75 1.65 8.7 1.7 8.65 1.75 8.6 1.8 8.55 1.8 8.5 1.85 8.45 1.9 8.45 1.95 8.4 2.0 8.35 2.05 8.3 2.1 8.25 2.1 8.2 2.15 8.2 2.2 8.15 2.25 8.0 2.4 7.95 2.4 7.9 2.45 7.85 2.5 7.85 2.55 7.8 2.6 7.8 2.65 7.75 2.7 7.7 2.7 7.6 2.8 7.55 2.85 7.5 2.85 7.4 2.95 -8.15 2.95 -8.2 2.9 -8.25 2.85 -8.25 2.8 -8.3 2.8 -8.3 2.75 -8.35 2.7 -8.4 2.65 -8.45 2.65 -8.45 2.6 -8.5 2.55 -8.55 2.5 -8.6 2.5 -8.6 2.45 -8.65 2.4 -8.7 2.35 -8.75 2.35 -8.75 2.3 -8.8 2.25 -8.85 2.2 -8.9 2.2 -8.9 2.15 -8.95 2.1 -9.0 2.05 -9.05 2.05 -9.05 2.0 -9.15 1.95 -9.2 1.9 -9.25 1.9 -9.3 1.85 -9.35 1.8 -9.4 1.75 -9.45 1.75 -9.5 1.7 -9.5 1.65 -9.55 1.6 -9.6 1.6 -9.7 1.5 -9.75 1.45 -9.75 1.15 9.05 1.15 9.05 1.4" fill="#ffffff" fill-rule="evenodd" stroke="none"/>
  </g>
</svg>
