<?xml version="1.0" encoding="UTF-8" standalone="no"?>
<svg xmlns:ffdec="https://www.free-decompiler.com/flash" xmlns:xlink="http://www.w3.org/1999/xlink" ffdec:objectType="shape" height="22.9px" width="22.9px" xmlns="http://www.w3.org/2000/svg">
  <g transform="matrix(1.0, 0.0, 0.0, 1.0, 11.45, 11.45)">
    <path d="M-5.0 9.95 L-5.15 9.95 -7.7 9.95 -7.85 9.9 -8.2 9.75 -5.8 9.8 -5.0 9.95 M-4.25 10.0 L-3.95 9.95 -3.8 9.95 -4.25 10.0" fill="#0098e1" fill-opacity="0.32941177" fill-rule="evenodd" stroke="none"/>
    <path d="M-9.9 -6.2 L-9.95 -6.25 -10.0 -6.35 -10.05 -6.45 -10.15 -6.55 -10.15 -6.65 -10.2 -6.75 -10.25 -6.8 -10.25 -6.9 -10.25 -7.0 -10.25 -7.1 -10.25 -7.2 -10.25 -7.3 -10.25 -7.4 -10.2 -7.5 -10.15 -7.55 -10.15 -7.65 -10.05 -7.75 -10.0 -7.85 -10.0 -7.9 -10.0 -8.0 -10.0 -8.1 -10.0 -8.2 -10.0 -8.3 -10.0 -8.4 -9.95 -8.5 -9.9 -8.55 -9.9 -8.65 -9.8 -8.75 -9.75 -8.85 -9.7 -8.95 -9.6 -9.05 -9.5 -9.15 -9.3 -9.2 -8.75 -9.3 -5.65 -9.3 -5.5 -9.3 -3.85 -9.25 -3.3 -9.15 -2.75 -9.1 -2.55 -9.05 -2.4 -9.05 1.05 -9.05 1.2 -9.05 1.4 -9.1 1.7 -9.15 1.75 -9.15 2.25 -9.25 3.25 -9.35 3.7 -9.4 3.75 -9.4 4.05 -9.45 4.65 -9.55 4.8 -9.55 5.0 -9.6 8.15 -9.55 9.2 -9.4 9.35 -9.3 9.45 -9.2 9.55 -9.1 9.65 -9.0 9.7 -8.9 9.75 -8.8 9.8 -8.75 9.85 -8.65 9.85 -8.55 9.85 -8.45 9.9 -8.35 9.9 -8.25 9.9 -8.15 9.85 -8.05 9.85 -8.0 9.85 -7.9 9.8 -7.8 9.75 -7.75 9.8 -7.7 9.9 -7.6 10.0 -7.5 10.05 -7.4 10.1 -7.3 10.15 -7.25 10.2 -7.15 10.2 -7.05 10.2 -6.95 10.25 -6.85 10.25 -6.75 10.25 -6.65 10.2 -6.55 10.2 -6.5 10.2 -6.4 10.15 -6.3 10.1 -6.2 10.05 -6.1 10.0 -6.0 10.0 -5.95 9.9 -6.05 9.85 -6.15 9.75 -6.25 9.65 -6.35 9.5 -6.45 9.35 -6.55 9.2 -6.65 8.65 -6.75 4.8 -6.75 1.65 -6.75 -0.5 -6.8 -0.65 -6.8 -0.85 -6.85 -1.25 -6.9 -1.3 -6.9 -3.1 -7.05 -6.85 -7.1 -7.05 -7.05 -8.25 -7.0 -8.45 -6.95 -8.8 -6.85 -9.0 -6.8 -9.1 -6.7 -9.2 -6.6 -9.2 -6.55 -9.35 -6.55 -9.5 -6.5 -9.6 -6.45 -9.75 -6.35 -9.9 -6.25 -9.9 -6.2" fill="#bae4e3" fill-opacity="0.3137255" fill-rule="evenodd" stroke="none"/>
    <path d="M-9.85 4.6 L-9.85 4.7 -9.8 4.75 -9.8 4.85 -9.75 4.95 -9.75 5.05 -9.65 5.15 -9.6 5.25 -9.55 5.35 -9.45 5.4 -9.3 5.5 -9.15 5.6 -8.95 5.65 -8.8 5.7 -8.6 5.75 -8.4 5.7 -8.25 5.7 -6.95 5.7 -6.0 5.85 -3.45 5.95 -3.3 5.95 -3.1 6.0 -2.65 6.0 -2.1 6.1 -0.85 6.2 -0.3 6.25 0.05 6.35 4.75 6.35 5.1 6.35 5.2 6.3 5.25 6.25 5.4 6.2 5.9 6.15 6.1 6.1 6.35 6.05 6.45 6.0 7.1 5.95 7.7 5.85 7.95 5.8 8.0 5.75 8.4 5.75 8.6 5.7 8.75 5.65 8.95 5.6 9.15 5.6 9.5 5.6 9.7 5.5 9.85 5.45 9.9 5.45 9.95 5.5 9.95 5.6 9.95 5.7 10.0 5.75 10.05 5.85 10.1 5.95 10.15 6.0 10.2 6.1 10.2 6.2 10.2 6.3 10.25 6.4 10.25 6.5 10.25 6.6 10.2 6.7 10.2 6.75 10.2 6.85 10.15 6.95 10.1 7.05 10.05 7.15 10.0 7.25 10.0 7.3 10.0 7.35 10.05 7.45 10.1 7.55 10.0 7.5 9.85 7.45 Q9.05 7.3 8.2 7.45 L8.05 7.45 3.6 7.45 3.45 7.45 -3.55 7.35 -3.65 7.35 -4.1 7.25 -6.75 7.25 -8.25 7.2 -8.4 7.2 -8.6 7.15 -9.0 7.15 -9.2 7.2 -9.35 7.2 -9.45 7.25 -9.55 7.3 -9.6 7.3 -9.75 7.35 -9.8 7.35 -10.0 7.45 -10.1 7.55 -10.2 7.65 -10.25 7.75 -10.3 7.85 -10.35 7.9 -10.35 7.8 -10.3 7.7 -10.3 7.6 -10.25 7.5 -10.25 7.45 -10.15 7.35 -10.1 7.25 -10.05 7.15 -9.95 7.1 -10.0 7.05 -10.0 6.95 -10.05 6.85 -10.05 6.75 -10.2 6.65 -10.3 6.6 -10.35 6.5 -10.4 6.4 -10.5 6.3 -10.5 6.2 -10.55 6.1 -10.55 6.0 -10.6 5.95 -10.6 5.85 -10.6 5.75 -10.6 5.65 -10.6 5.55 -10.55 5.45 -10.55 5.35 -10.5 5.25 -10.5 5.2 -10.4 5.1 -10.35 5.0 -10.3 4.9 -10.2 4.8 -10.05 4.7 -9.9 4.6 -9.85 4.6" fill="#3352cc" fill-opacity="0.16862746" fill-rule="evenodd" stroke="none"/>
    <path d="M10.15 -5.3 L10.2 -5.25 10.2 -5.15 10.2 -5.05 10.25 -4.95 10.25 -4.85 10.25 -4.75 10.25 -4.65 10.2 -4.55 10.2 -4.5 10.2 -4.4 10.15 -4.3 10.1 -4.2 10.05 -4.1 10.0 -4.0 9.9 -3.9 9.8 -3.8 9.7 -3.75 9.7 -3.65 9.65 -3.55 9.6 -3.45 9.55 -3.35 9.5 -3.25 9.4 -3.15 9.3 -3.05 9.2 -3.0 9.0 -2.9 8.85 -2.85 8.5 -2.8 0.05 -2.8 -0.1 -2.8 -3.75 -2.9 -4.25 -2.95 -4.3 -2.95 -7.95 -3.1 -8.2 -3.1 -8.15 -3.2 -8.05 -3.3 -8.0 -3.4 -7.95 -3.5 -7.9 -3.55 -7.85 -3.65 -7.8 -3.75 -7.8 -3.85 -7.65 -3.9 -7.5 -3.9 -7.4 -3.95 -7.3 -4.0 -3.65 -4.05 -3.5 -4.05 -0.05 -4.15 0.2 -4.2 0.25 -4.2 3.85 -4.25 8.1 -4.2 8.2 -4.2 8.45 -4.15 8.9 -4.15 9.25 -4.15 9.35 -4.2 9.45 -4.25 9.55 -4.3 9.7 -4.4 9.75 -4.5 9.85 -4.55 9.95 -4.65 10.0 -4.75 10.0 -4.85 10.05 -4.95 10.1 -5.05 10.1 -5.15 10.15 -5.25 10.15 -5.3" fill="#bae4e3" fill-opacity="0.14901961" fill-rule="evenodd" stroke="none"/>
    <path d="M10.0 -5.95 L10.0 -5.9 10.05 -5.8 10.1 -5.7 10.1 -5.6 10.15 -5.5 10.15 -5.4 10.15 -5.3 10.15 -5.25 10.1 -5.15 10.1 -5.05 10.05 -4.95 10.0 -4.85 10.0 -4.75 9.95 -4.65 9.85 -4.55 9.75 -4.5 9.7 -4.4 9.55 -4.3 9.45 -4.25 9.35 -4.2 9.25 -4.15 8.9 -4.15 8.45 -4.15 8.2 -4.2 8.1 -4.2 3.85 -4.25 0.25 -4.2 0.2 -4.2 -0.05 -4.15 -3.5 -4.05 -3.65 -4.05 -7.3 -4.0 -7.4 -3.95 -7.5 -3.9 -7.65 -3.9 -7.8 -3.85 -7.8 -3.75 -7.85 -3.65 -7.9 -3.55 -7.95 -3.5 -8.0 -3.4 -8.05 -3.3 -8.15 -3.2 -8.2 -3.1 -8.25 -3.1 -8.4 -3.0 -8.55 -2.95 -8.65 -2.9 -8.8 -2.9 -9.0 -2.85 -9.2 -2.9 -9.35 -2.9 -9.55 -3.0 -9.75 -3.05 -9.85 -3.15 -9.95 -3.25 -10.0 -3.35 -10.05 -3.45 -10.15 -3.55 -10.15 -3.65 -10.2 -3.75 -10.25 -3.8 -10.25 -3.9 -10.25 -4.1 -10.25 -4.3 -10.25 -4.65 -10.25 -5.15 -10.25 -5.5 -10.25 -5.6 -10.25 -5.7 -10.2 -5.8 -10.15 -5.9 -10.1 -6.0 -10.05 -6.05 -9.95 -6.15 -9.9 -6.2 -9.9 -6.25 -9.75 -6.35 -9.6 -6.45 -9.5 -6.5 -9.35 -6.55 -9.2 -6.55 -9.2 -6.6 -9.1 -6.7 -9.0 -6.8 -8.8 -6.85 -8.45 -6.95 -8.25 -7.0 -7.05 -7.05 -6.85 -7.1 -3.1 -7.05 -1.3 -6.9 -1.25 -6.9 -0.85 -6.85 -0.65 -6.8 -0.5 -6.8 1.65 -6.75 4.8 -6.75 8.65 -6.75 9.2 -6.65 9.35 -6.55 9.5 -6.45 9.65 -6.35 9.75 -6.25 9.85 -6.15 9.9 -6.05 10.0 -5.95" fill="#bae4e3" fill-opacity="0.22745098" fill-rule="evenodd" stroke="none"/>
    <path d="M9.9 5.45 L9.85 5.45 9.7 5.5 9.5 5.6 9.15 5.6 8.95 5.6 8.75 5.65 8.6 5.7 8.4 5.75 8.0 5.75 7.95 5.8 7.7 5.85 7.1 5.95 6.45 6.0 6.35 6.05 6.1 6.1 5.9 6.15 5.4 6.2 5.25 6.25 5.2 6.3 5.1 6.35 4.75 6.35 0.05 6.35 -0.3 6.25 -0.85 6.2 -2.1 6.1 -2.65 6.0 -3.1 6.0 -3.3 5.95 -3.45 5.95 -6.0 5.85 -6.95 5.7 -8.25 5.7 -8.4 5.7 -8.6 5.75 -8.8 5.7 -8.95 5.65 -9.15 5.6 -9.3 5.5 -9.45 5.4 -9.55 5.35 -9.6 5.25 -9.65 5.15 -9.75 5.05 -9.75 4.95 -9.8 4.85 -9.8 4.75 -9.85 4.7 -9.85 4.6 -9.85 4.5 -9.85 4.4 -9.85 4.3 -9.85 4.2 -9.8 4.1 -9.8 4.0 -9.75 3.95 -9.75 3.85 -9.65 3.75 -9.6 3.65 -9.55 3.55 -9.45 3.45 -9.3 3.35 -9.3 3.3 -9.2 3.2 -9.05 3.1 -8.9 3.05 -8.65 2.95 -8.55 2.85 -8.5 2.85 -8.35 2.8 -8.2 2.75 -8.05 2.75 -7.95 2.7 -7.8 2.7 -7.6 2.65 -1.1 2.7 -0.75 2.7 1.75 2.75 2.1 2.8 2.2 2.85 4.35 3.05 4.45 3.1 4.5 3.1 9.35 3.2 9.5 3.2 9.7 3.25 9.85 3.35 9.95 3.45 10.05 3.55 10.15 3.65 10.2 3.75 10.25 3.85 10.3 3.95 10.35 4.0 10.35 4.1 10.35 4.2 10.4 4.3 10.4 4.4 10.4 4.5 10.35 4.6 10.35 4.7 10.35 4.75 10.3 4.85 10.25 4.95 10.2 5.05 10.15 5.15 10.05 5.25 9.95 5.35 9.9 5.45" fill="#3352cc" fill-opacity="0.08627451" fill-rule="evenodd" stroke="none"/>
    <path d="M-9.45 7.25 L-9.35 7.2 -9.2 7.2 -9.0 7.15 -8.6 7.15 -8.4 7.2 -8.25 7.2 -6.75 7.25 -9.25 7.25 -9.45 7.25 M-8.2 9.75 L-8.8 9.7 -8.95 9.7 -9.05 9.7 -4.55 9.8 -4.5 9.8 -4.0 9.85 2.9 9.95 3.05 9.95 4.35 10.0 4.25 10.0 3.75 10.1 -1.6 10.1 -2.05 10.05 -3.7 9.95 -3.8 9.95 -3.95 9.95 -4.25 10.0 -5.0 9.95 -5.8 9.8 -8.2 9.75" fill="#3352cc" fill-opacity="0.23529412" fill-rule="evenodd" stroke="none"/>
    <path d="M-10.35 7.9 L-10.3 7.85 -10.25 7.75 -10.2 7.65 -10.1 7.55 -10.0 7.45 -9.8 7.35 -9.75 7.35 -9.6 7.3 -9.55 7.3 -9.45 7.25 -9.25 7.25 -6.75 7.25 -4.1 7.25 -3.65 7.35 -3.55 7.35 3.45 7.45 3.6 7.45 8.05 7.45 8.2 7.45 Q9.05 7.3 9.85 7.45 L10.0 7.5 10.1 7.55 10.2 7.6 10.3 7.7 10.4 7.8 10.5 7.9 10.55 8.0 10.6 8.1 10.65 8.2 10.7 8.25 10.7 8.35 10.7 8.45 10.75 8.55 10.75 8.65 10.75 8.75 10.7 8.85 10.7 8.95 10.7 9.0 10.65 9.1 10.6 9.2 10.55 9.3 10.5 9.4 10.4 9.5 10.3 9.6 10.2 9.65 10.0 9.75 9.85 9.8 8.45 9.95 8.25 10.0 4.35 10.0 3.05 9.95 2.9 9.95 -4.0 9.85 -4.5 9.8 -4.55 9.8 -9.05 9.7 -9.45 9.65 -9.8 9.6 -10.0 9.5 -10.1 9.4 -10.2 9.35 -10.25 9.25 -10.3 9.15 -10.4 9.05 -10.4 8.95 -10.45 8.85 -10.5 8.75 -10.5 8.7 -10.5 8.6 -10.5 8.5 -10.5 8.4 -10.5 8.3 -10.5 8.2 -10.45 8.1 -10.4 8.0 -10.4 7.95 -10.35 7.9" fill="#3352cc" fill-opacity="0.30588236" fill-rule="evenodd" stroke="none"/>
    <path d="M10.0 -10.0 L10.0 10.0 -10.0 10.0 -10.0 -10.0 10.0 -10.0" fill="#d7ffff" fill-opacity="0.29411766" fill-rule="evenodd" stroke="none"/>
    <path d="M10.0 10.0 L9.95 10.0 9.95 9.95 10.0 9.85 10.0 10.0" fill="#d7ffff" fill-opacity="0.29411766" fill-rule="evenodd" stroke="none"/>
    <path d="M-10.0 -10.0 L10.0 -10.0 M9.95 10.0 L10.0 10.0 M9.95 10.0 L-10.0 10.0" fill="none" stroke="#000000" stroke-linecap="round" stroke-linejoin="round" stroke-width="2.9000000000000004"/>
  </g>
</svg>
