<?xml version="1.0" encoding="UTF-8" standalone="no"?>
<svg xmlns:ffdec="https://www.free-decompiler.com/flash" xmlns:xlink="http://www.w3.org/1999/xlink" ffdec:objectType="shape" height="52.5px" width="46.5px" xmlns="http://www.w3.org/2000/svg">
  <g transform="matrix(1.0, 0.0, 0.0, 1.0, 26.5, 51.0)">
    <path d="M7.75 -50.4 L8.6 -50.65 9.25 -50.9 10.0 -50.9 10.0 -51.0 10.5 -51.0 11.5 -50.75 12.1 -50.4 12.5 -50.0 12.6 -49.65 12.85 -49.25 13.0 -48.9 13.0 -48.5 13.0 -48.15 13.1 -47.75 13.25 -47.4 13.35 -47.0 13.5 -46.65 13.5 -46.25 13.5 -45.9 13.5 -45.5 13.5 -45.15 13.5 -44.75 13.5 -44.4 13.5 -44.0 13.75 -43.9 14.5 -44.0 15.5 -43.75 16.1 -43.4 16.5 -43.0 16.6 -42.65 16.85 -42.25 17.0 -41.9 17.0 -41.5 17.0 -41.15 17.0 -40.75 17.0 -40.4 17.0 -40.0 17.0 -39.65 17.0 -39.25 17.0 -38.9 17.0 -38.5 17.0 -38.15 17.0 -37.75 17.0 -37.5 17.5 -37.5 18.5 -37.25 19.1 -36.9 19.5 -36.5 19.6 -36.15 19.85 -35.75 20.0 -35.4 20.0 -35.0 20.0 -34.65 20.0 -34.25 20.0 -33.9 20.0 -33.5 20.0 -33.15 20.0 -32.75 20.0 -32.4 20.0 -32.0 20.0 -31.65 20.0 -31.25 20.0 -30.9 20.0 -30.5 20.0 -30.15 20.0 -29.75 20.0 -29.4 20.0 -29.0 20.0 -28.65 20.0 -28.25 20.0 -27.9 20.0 -27.5 20.0 -27.15 20.0 -26.75 20.0 -26.4 20.0 -26.0 20.0 -25.65 20.0 -25.25 20.0 -24.9 20.0 -24.5 20.0 -24.15 20.0 -23.75 20.0 -23.4 20.0 -23.0 20.0 -22.65 20.0 -22.25 20.0 -21.9 20.0 -21.5 20.0 -21.15 20.0 -20.75 20.0 -20.4 20.0 -20.0 20.0 -19.65 20.0 -19.25 20.0 -18.9 20.0 -18.5 20.0 -18.15 20.0 -17.75 20.0 -17.4 20.0 -17.0 20.0 -16.65 20.0 -16.25 20.0 -15.9 20.0 -15.5 20.0 -15.15 20.0 -14.75 20.0 -14.4 20.0 -14.0 20.0 -13.65 20.0 -13.25 20.0 -12.9 20.0 -12.5 20.0 -12.15 20.0 -11.75 20.0 -11.4 20.0 -11.0 19.85 -10.65 19.75 -10.25 19.6 -9.9 19.5 -9.5 19.5 -9.15 19.5 -8.75 19.5 -8.4 19.5 -8.0 19.5 -7.65 19.35 -7.25 19.25 -6.9 19.0 -6.5 19.0 -6.15 19.0 -5.75 19.0 -5.4 19.0 -5.0 19.0 -4.65 19.0 -4.25 19.0 -3.9 19.0 -3.5 19.0 -3.15 19.0 -2.75 18.85 -2.4 18.75 -2.0 18.5 -1.65 18.25 -1.25 17.75 -0.9 17.25 -0.65 16.5 -0.5 16.0 -0.5 14.85 -0.75 14.35 -1.15 14.0 -1.5 13.75 -1.9 13.6 -2.25 13.5 -2.65 13.5 -3.0 13.5 -3.4 13.5 -3.75 13.35 -4.15 13.0 -4.5 12.6 -4.9 12.25 -5.25 12.1 -5.65 12.0 -6.0 12.0 -6.4 12.0 -6.75 12.0 -7.15 12.0 -7.5 12.0 -7.9 11.35 -8.25 10.85 -8.65 10.5 -9.0 10.25 -9.4 10.1 -9.75 10.0 -10.15 10.0 -10.5 10.0 -10.9 10.0 -11.25 10.0 -11.65 10.0 -12.0 10.0 -12.4 10.0 -12.75 10.0 -13.15 10.0 -13.5 10.0 -13.9 10.0 -14.25 10.0 -14.65 10.1 -15.0 10.35 -15.4 10.5 -15.75 10.5 -16.15 10.5 -16.5 10.5 -16.9 10.5 -17.25 10.5 -17.65 10.5 -18.0 10.5 -18.4 10.6 -18.75 10.75 -19.15 10.85 -19.5 11.0 -19.9 11.0 -20.25 11.0 -20.65 10.75 -20.9 10.25 -20.65 9.5 -20.5 8.35 -20.75 7.85 -21.15 7.5 -21.5 7.25 -21.9 7.1 -22.25 7.0 -22.65 7.0 -23.0 7.0 -23.4 7.0 -23.75 7.0 -24.15 7.0 -24.5 7.0 -24.9 7.0 -25.25 7.0 -25.65 6.85 -26.0 6.6 -26.4 6.25 -26.75 6.1 -27.15 6.0 -27.5 6.0 -27.9 6.0 -28.25 6.0 -28.65 6.0 -29.0 6.0 -29.4 6.0 -29.75 5.85 -30.15 5.5 -30.5 5.1 -30.9 4.75 -31.25 4.6 -31.65 4.5 -32.0 4.5 -32.4 4.5 -32.75 4.5 -33.15 4.5 -33.5 4.5 -33.9 4.5 -34.25 4.5 -34.65 4.5 -35.0 4.5 -35.4 4.5 -35.75 4.5 -36.15 4.5 -36.4 1.5 -36.25 0.5 -36.0 -2.0 -35.75 -3.0 -35.5 -4.6 -35.4 -4.0 -35.25 -3.4 -34.9 -3.0 -34.5 -2.9 -34.15 -2.65 -33.75 -2.5 -33.4 -2.5 -33.0 -2.5 -32.65 -2.5 -32.25 -2.65 -31.9 -2.75 -31.5 -3.0 -31.15 -3.0 -30.75 -3.0 -30.4 -3.0 -30.0 -3.0 -29.65 -3.0 -29.25 -3.0 -28.9 -3.0 -28.5 -3.0 -28.15 -3.0 -27.75 -3.0 -27.4 -3.0 -27.0 -3.0 -26.65 -3.0 -26.25 -3.0 -25.9 -3.0 -25.5 -3.0 -25.15 -3.0 -24.75 -3.0 -24.4 -3.15 -24.0 -3.25 -23.65 -3.4 -23.25 -3.5 -22.9 -3.5 -22.5 -3.5 -22.15 -3.5 -21.75 -3.5 -21.4 -3.5 -21.0 -3.5 -20.65 -3.65 -20.25 -3.75 -19.9 -4.0 -19.5 -4.0 -19.15 -4.0 -18.75 -4.0 -18.4 -4.15 -18.0 -4.25 -17.65 -4.4 -17.25 -4.65 -16.9 -5.15 -16.5 -5.4 -16.25 -5.75 -16.15 -6.5 -16.0 -7.0 -16.0 -8.15 -16.25 -8.65 -16.65 -9.0 -17.0 -9.0 -16.9 -9.0 -16.5 -9.0 -16.15 -9.0 -15.75 -9.0 -15.4 -9.15 -15.0 -9.25 -14.65 -9.4 -14.25 -9.65 -13.9 -9.75 -13.5 -10.0 -13.15 -10.0 -12.75 -10.15 -12.4 -10.25 -12.0 -10.5 -11.65 -10.65 -11.25 -10.9 -10.9 -11.0 -10.5 -11.25 -10.15 -11.4 -9.75 -11.65 -9.4 -12.0 -9.0 -12.0 -8.65 -12.0 -8.25 -12.15 -7.9 -12.25 -7.5 -12.5 -7.15 -12.65 -6.75 -12.9 -6.4 -13.0 -6.0 -13.0 -5.65 -13.15 -5.25 -13.4 -4.9 -13.5 -4.5 -13.9 -4.15 -14.0 -3.75 -14.0 -3.4 -14.15 -3.0 -14.25 -2.65 -14.4 -2.25 -14.65 -1.9 -15.0 -1.5 -15.25 -1.15 -15.4 -0.75 -15.65 -0.4 -15.75 0.0 -16.0 0.35 -16.25 0.75 -16.75 1.1 -17.25 1.35 -18.0 1.5 -19.15 1.25 -19.65 0.85 -20.0 0.5 -20.25 0.1 -20.4 -0.25 -20.5 -0.65 -20.5 -1.0 -20.5 -1.4 -20.5 -1.5 -20.75 -1.9 -20.9 -2.25 -21.0 -2.65 -21.0 -3.0 -21.0 -3.4 -21.0 -3.75 -21.0 -4.0 -21.4 -4.4 -21.75 -4.75 -21.9 -5.15 -22.0 -5.5 -22.0 -5.9 -22.0 -6.25 -22.0 -6.65 -22.0 -7.0 -22.0 -7.4 -22.0 -7.75 -22.0 -8.15 -22.0 -8.5 -22.0 -8.9 -22.0 -9.25 -22.0 -9.65 -21.9 -10.0 -21.65 -10.4 -21.5 -10.75 -21.5 -11.15 -21.5 -11.5 -21.5 -11.9 -21.5 -12.25 -21.5 -12.65 -21.5 -13.0 -21.5 -13.4 -21.5 -13.75 -21.5 -14.15 -21.5 -14.5 -21.4 -14.9 -21.25 -15.25 -21.0 -15.65 -20.9 -16.0 -20.75 -16.4 -21.15 -16.75 -21.65 -17.15 -22.0 -17.5 -22.25 -17.9 -22.4 -18.25 -22.5 -18.65 -22.5 -19.0 -22.5 -19.4 -22.5 -19.75 -22.5 -20.15 -22.5 -20.5 -22.5 -20.9 -22.4 -21.25 -22.25 -21.65 -22.15 -22.0 -22.0 -22.4 -21.9 -22.75 -21.75 -23.15 -21.5 -23.5 -21.15 -23.9 -21.0 -24.25 -21.0 -24.65 -21.0 -25.0 -20.9 -25.4 -20.75 -25.75 -20.4 -26.15 -20.15 -26.5 -20.0 -26.9 -19.9 -27.25 -19.75 -27.65 -19.65 -28.0 -19.5 -28.4 -19.4 -28.75 -19.4 -29.15 -20.0 -29.5 -20.4 -29.9 -20.75 -30.25 -21.15 -30.65 -21.4 -31.0 -21.5 -31.4 -21.5 -31.75 -21.5 -32.15 -21.5 -32.5 -21.5 -32.9 -21.5 -33.25 -21.5 -33.65 -21.65 -34.0 -22.4 -34.4 -23.15 -34.75 -23.9 -35.15 -24.5 -35.5 -25.4 -35.9 -25.75 -36.25 -26.15 -36.65 -26.4 -37.0 -26.5 -37.4 -26.5 -37.75 -26.5 -38.15 -26.5 -38.5 -26.4 -38.9 -26.25 -39.25 -25.9 -39.65 -25.5 -40.0 -25.15 -40.25 -24.75 -40.4 -24.0 -40.5 -20.75 -40.75 -20.5 -41.15 -20.5 -41.5 -20.5 -41.9 -20.4 -42.25 -20.25 -42.65 -20.15 -43.0 -20.0 -43.4 -19.9 -43.75 -19.75 -44.15 -19.65 -44.5 -19.5 -44.9 -19.5 -45.25 -19.5 -45.65 -19.5 -46.0 -19.4 -46.4 -19.25 -46.75 -18.9 -47.15 -18.65 -47.5 -18.5 -47.9 -18.4 -48.25 -18.25 -48.65 -18.0 -49.0 -17.65 -49.4 -17.25 -49.75 -16.9 -50.15 -16.25 -50.4 -15.5 -50.5 -14.5 -50.25 -13.9 -49.9 -13.5 -49.5 -13.4 -49.15 -13.15 -48.75 -13.05 -48.5 -12.9 -48.65 -12.25 -48.9 -11.4 -49.15 -11.15 -49.4 -10.75 -49.75 -10.4 -50.15 -10.0 -50.5 -9.65 -50.75 -9.25 -50.9 -8.5 -50.9 -8.5 -51.0 -7.5 -50.75 -6.9 -50.4 -6.5 -50.0 -6.4 -49.65 -6.15 -49.25 -6.05 -49.0 -2.0 -49.0 -0.5 -49.0 6.15 -49.0 6.25 -49.25 6.6 -49.65 7.0 -50.0 7.35 -50.25 7.75 -50.4 M-5.5 -40.75 L-3.65 -40.75 -3.75 -40.9 -4.5 -41.0 -5.5 -41.2 -5.5 -41.0 -5.5 -40.75" fill="#66637a" fill-rule="evenodd" stroke="none"/>
  </g>
</svg>
