<?xml version="1.0" encoding="UTF-8" standalone="no"?>
<svg xmlns:ffdec="https://www.free-decompiler.com/flash" xmlns:xlink="http://www.w3.org/1999/xlink" ffdec:objectType="shape" height="46.85px" width="17.05px" xmlns="http://www.w3.org/2000/svg">
  <g transform="matrix(1.0, 0.0, 0.0, 1.0, 10.65, -10.8)">
    <path d="M-6.05 11.5 Q-5.1 11.5 -4.6 11.05 L-0.5 10.95 0.2 10.85 0.45 10.8 2.4 10.9 2.65 10.9 4.55 10.9 4.65 11.95 4.4 14.65 4.25 15.65 3.75 20.6 2.9 26.5 1.75 32.25 1.15 38.5 1.15 32.65 0.45 26.75 -0.25 20.85 -0.7 15.75 -0.2 15.7 Q-0.65 14.8 -0.9 13.2 L-1.0 13.25 -1.6 13.4 -2.65 13.05 -3.25 12.35 -4.1 12.95 -5.85 13.4 Q-7.55 13.4 -9.0 12.0 L-9.3 11.7 -9.6 11.35 -7.55 11.1 -7.3 11.05 -6.8 11.05 -6.4 11.35 -6.15 11.5 -6.05 11.5 M0.2 48.45 L0.05 50.75 -0.35 47.05 0.2 48.45 M-4.65 20.35 L-4.9 22.85 -4.75 24.55 -4.9 26.4 -5.25 28.05 -5.5 25.25 Q-5.5 22.8 -5.0 21.0 L-4.65 19.4 -4.65 20.35 M-6.25 32.25 L-6.35 32.8 -6.4 32.15 -6.25 32.25" fill="#b9dbdf" fill-opacity="0.21568628" fill-rule="evenodd" stroke="none"/>
    <path d="M1.15 38.5 L1.15 45.6 Q1.9 46.9 1.9 48.25 1.9 49.15 0.85 49.15 L0.2 48.45 -0.35 47.05 Q-1.9 42.55 -4.65 28.25 L-4.65 20.35 -4.65 19.4 -5.0 21.0 Q-5.5 22.8 -5.5 25.25 L-5.25 28.05 -5.1 28.95 -4.75 30.95 Q-4.6 32.4 -5.75 32.4 L-6.25 32.25 -6.4 32.15 Q-7.9 31.0 -8.4 24.4 L-8.65 16.65 Q-9.95 16.55 -10.4 15.2 L-10.65 13.75 Q-10.65 12.75 -9.8 12.05 L-9.3 11.7 -9.0 12.0 Q-7.55 13.4 -5.85 13.4 L-4.1 12.95 -3.25 12.35 -2.65 13.05 -1.6 13.4 -1.0 13.25 -0.9 13.2 Q-0.65 14.8 -0.2 15.7 L-0.7 15.75 -0.25 20.85 0.45 26.75 1.15 32.65 1.15 38.5 M-6.4 11.35 L-6.05 11.5 -6.15 11.5 -6.4 11.35" fill="#e9f4f5" fill-opacity="0.3882353" fill-rule="evenodd" stroke="none"/>
    <path d="M6.4 10.9 L6.4 11.95 6.2 13.85 6.1 14.3 6.15 15.05 0.75 56.9 0.6 56.9 Q0.4 57.65 -0.25 57.65 -1.2 57.65 -3.15 40.25 L-4.0 32.3 Q-5.25 38.5 -6.0 38.9 L-6.8 38.6 -6.8 38.4 -7.0 38.4 Q-7.8 38.4 -8.9 26.85 L-9.75 17.3 Q-10.15 16.65 -10.4 14.9 L-10.65 12.35 -10.6 11.35 -9.55 11.35 -9.45 11.5 Q-8.25 13.5 -8.25 16.1 -7.0 19.65 -7.0 24.5 L-6.35 32.8 -6.15 31.75 -4.9 26.4 -4.75 24.55 -4.9 22.85 Q-4.9 20.3 -4.3 19.65 -4.1 18.65 -3.45 19.5 -2.5 20.85 -2.5 22.2 L-2.75 25.2 0.05 50.75 0.65 43.35 1.75 32.25 2.9 26.5 3.75 20.6 4.25 15.0 Q4.1 14.65 4.25 14.15 L4.3 13.5 Q4.4 12.3 4.7 12.1 L5.25 10.9 6.4 10.9" fill="#000000" fill-rule="evenodd" stroke="none"/>
  </g>
</svg>
