<?xml version="1.0" encoding="UTF-8" standalone="no"?>
<svg xmlns:ffdec="https://www.free-decompiler.com/flash" xmlns:xlink="http://www.w3.org/1999/xlink" ffdec:objectType="shape" height="46.45px" width="14.55px" xmlns="http://www.w3.org/2000/svg">
  <g transform="matrix(1.0, 0.0, 0.0, 1.0, 4.4, -12.45)">
    <path d="M8.6 13.3 L8.65 13.9 8.6 15.05 8.65 15.3 8.65 15.1 8.65 15.45 8.9 16.75 Q8.9 19.05 8.1 25.5 7.25 32.3 6.75 33.15 L5.85 32.85 5.0 24.9 3.45 39.85 Q1.75 54.0 1.0 56.9 L0.65 56.8 0.25 57.15 -0.55 56.85 -0.9 53.65 -0.25 53.9 Q0.15 53.45 0.85 49.3 L1.5 43.75 Q1.5 40.55 0.95 35.5 L0.0 27.0 -0.5 18.5 -0.75 17.05 -0.5 17.15 -0.15 17.1 Q-0.55 16.2 -0.65 14.25 L-0.45 12.9 -0.4 12.75 7.9 12.65 8.4 12.6 8.6 13.3 M5.45 16.7 L5.05 17.05 4.45 20.95 4.55 21.6 Q5.9 28.65 6.75 28.65 7.55 28.65 7.65 27.7 L7.65 26.3 Q7.65 22.05 6.0 17.15 L6.1 17.15 5.45 16.7 M-2.65 36.7 Q-4.15 20.75 -4.15 18.25 L-4.05 16.8 -4.15 16.15 -3.95 15.6 -3.9 15.15 Q-3.9 14.7 -3.4 14.35 L-3.1 14.7 -3.15 15.9 Q-3.15 18.5 -2.75 21.35 -2.4 24.25 -2.4 27.95 -2.4 31.5 -2.65 33.25 L-2.65 36.7 M-1.1 51.8 L-1.4 49.25 -0.85 49.55 -1.1 51.8" fill="#b9dbdf" fill-opacity="0.21568628" fill-rule="evenodd" stroke="none"/>
    <path d="M8.65 15.1 L8.65 15.3 8.6 15.05 8.65 13.9 8.6 13.3 8.65 14.7 8.65 15.1 M-0.45 12.9 L-0.65 14.25 Q-0.55 16.2 -0.15 17.1 L-0.5 17.15 -0.75 17.05 -0.5 18.5 0.0 27.0 0.95 35.5 Q1.5 40.55 1.5 43.75 L0.85 49.3 Q0.15 53.45 -0.25 53.9 L-0.9 53.65 -1.05 53.6 -1.15 52.0 -1.1 51.8 -0.85 49.55 -1.4 49.25 Q-2.1 48.65 -2.35 47.15 -2.45 44.4 -2.65 43.75 L-2.65 36.7 -2.65 33.25 Q-2.4 31.5 -2.4 27.95 -2.4 24.25 -2.75 21.35 -3.15 18.5 -3.15 15.9 L-3.1 14.7 -3.4 14.35 -4.4 13.25 -4.35 12.8 -0.75 12.75 -0.45 12.9 M5.45 16.7 L6.1 17.15 6.0 17.15 Q7.65 22.05 7.65 26.3 L7.65 27.7 Q7.55 28.65 6.75 28.65 5.9 28.65 4.55 21.6 L4.45 20.95 5.05 17.05 5.45 16.7" fill="#e9f4f5" fill-opacity="0.3882353" fill-rule="evenodd" stroke="none"/>
    <path d="M8.45 12.55 L10.0 12.45 10.15 12.45 10.15 13.15 10.15 14.35 10.15 14.45 10.15 15.05 Q10.15 17.2 9.2 24.6 8.2 32.7 7.5 34.15 L7.4 34.1 7.4 35.05 Q7.4 36.15 6.5 36.15 5.75 36.15 4.85 31.0 L3.45 41.15 Q1.4 55.45 0.5 58.4 L-0.05 58.2 Q-0.3 58.7 -1.0 58.9 L-1.8 58.6 Q-2.0 53.3 -3.15 37.4 -4.15 23.95 -4.15 16.25 -4.15 13.15 -3.8 12.8 L-3.6 12.8 Q-3.4 12.95 -3.05 13.95 -2.0 17.25 -2.0 21.85 L-1.75 33.65 -0.85 45.2 -0.1 54.85 0.6 48.85 1.75 37.85 Q2.0 32.6 3.75 25.4 L3.95 24.7 3.6 22.0 Q3.6 17.3 4.7 19.95 L5.25 21.45 5.4 22.0 6.15 26.1 6.75 29.8 7.1 27.45 7.75 22.0 Q7.95 17.95 8.85 15.1 8.4 14.85 8.3 14.2 L8.25 13.15 8.3 12.6 8.45 12.55" fill="#000000" fill-rule="evenodd" stroke="none"/>
  </g>
</svg>
