<?xml version="1.0" encoding="UTF-8" standalone="no"?>
<svg xmlns:ffdec="https://www.free-decompiler.com/flash" xmlns:xlink="http://www.w3.org/1999/xlink" ffdec:objectType="shape" height="142.0px" width="292.5px" xmlns="http://www.w3.org/2000/svg">
  <g transform="matrix(1.0, 0.0, 0.0, 1.0, 160.85, 47.55)">
    <path d="M121.45 83.0 L121.6 82.6 121.85 82.25 122.2 81.85 122.45 81.5 122.6 81.1 122.85 80.75 122.95 80.35 123.2 80.0 123.35 79.6 123.6 79.25 123.7 78.85 124.1 78.5 124.5 78.15 124.95 77.75 125.7 77.5 126.45 77.45 126.45 77.35 126.8 77.4 126.8 77.45 126.9 77.65 126.9 77.7 127.0 77.7 127.0 77.65 127.5 77.65 127.9 77.7 128.3 77.8 128.55 78.0 128.8 78.2 129.0 78.4 129.2 78.55 129.4 78.75 129.55 78.95 129.75 79.15 129.95 79.3 130.05 79.5 130.2 79.7 130.25 79.9 130.45 80.05 130.55 80.25 130.7 80.45 130.75 80.65 130.8 80.8 130.9 81.0 130.9 81.2 130.9 81.4 130.95 81.55 131.05 81.75 131.2 81.95 131.25 82.15 131.3 82.3 131.4 82.5 131.4 82.7 131.4 82.9 131.45 83.05 131.55 83.25 131.55 83.45 131.65 83.65 131.65 83.8 131.65 84.0 131.65 84.2 131.65 84.4 131.65 84.55 131.65 84.75 131.65 84.95 131.55 85.15 131.5 85.3 131.45 85.5 131.4 85.7 131.25 85.9 131.05 86.05 130.8 86.25 130.55 86.45 130.15 86.55 129.75 86.65 129.25 86.65 129.15 86.65 129.05 86.65 128.8 86.7 128.25 86.75 127.9 86.8 127.55 86.9 127.3 86.95 127.05 87.05 126.7 87.25 126.3 87.45 126.05 87.65 125.9 87.8 125.7 88.0 125.55 88.2 125.4 88.4 125.25 88.55 125.2 88.75 125.0 88.95 124.9 89.15 124.7 89.3 124.55 89.5 124.45 89.7 124.4 89.9 124.3 90.05 124.3 90.25 124.2 90.45 124.15 90.65 124.0 90.8 123.95 91.0 123.75 91.2 123.65 91.4 123.45 91.55 123.2 91.75 123.05 91.95 122.9 92.15 122.75 92.3 122.7 92.5 122.65 92.7 122.5 92.9 122.4 93.05 122.2 93.25 122.05 93.45 121.9 93.65 121.7 93.8 121.45 94.0 121.3 94.2 121.15 94.4 120.65 94.45 119.95 94.25 119.5 93.85 119.1 93.5 118.7 93.1 118.6 92.75 118.45 92.35 118.35 92.0 118.35 91.6 118.35 91.25 118.35 90.85 118.35 90.5 118.35 90.1 118.35 89.75 118.35 89.35 118.35 89.0 118.45 88.6 118.6 88.25 118.7 87.85 118.85 87.5 118.95 87.1 119.1 86.75 119.2 86.35 119.6 86.0 119.85 85.6 120.1 85.25 120.2 84.85 120.6 84.5 120.85 84.1 121.1 83.75 121.2 83.35 121.45 83.0 M1.05 40.1 L1.05 40.3 1.05 40.45 1.05 40.65 1.05 40.85 1.05 41.05 1.05 41.2 1.05 41.4 1.05 41.6 1.05 41.8 1.0 41.95 0.95 42.15 0.8 42.35 0.75 42.55 0.6 42.7 0.55 42.9 0.45 43.1 0.45 43.15 0.35 43.15 0.05 43.2 -0.3 43.35 -0.7 43.45 -1.05 43.6 -1.45 43.7 -1.7 43.8 -1.8 43.85 -2.05 43.95 -2.3 44.15 -2.65 44.35 -2.95 44.45 -3.2 44.55 -3.3 44.6 -3.55 44.7 -3.95 44.9 -4.3 45.1 -4.7 45.2 -4.95 45.3 -5.05 45.35 -5.3 45.45 -5.5 45.65 -5.95 45.7 -6.15 45.9 -6.2 45.95 -6.55 46.1 -6.95 46.2 -7.2 46.3 -7.3 46.35 -7.55 46.45 -7.8 46.65 -8.15 46.85 -8.45 46.95 -8.8 47.1 -9.2 47.2 -9.45 47.3 -10.85 47.3 -11.1 47.15 -11.4 46.95 -11.65 46.8 -11.95 46.6 -12.2 46.4 -12.4 46.2 -12.6 46.05 -12.75 45.85 -12.95 45.65 -13.15 45.45 -13.4 45.3 -13.7 45.1 -13.95 44.9 -14.15 44.7 -14.4 44.55 -14.5 44.35 -14.7 44.15 -14.9 43.95 -15.15 43.8 -15.4 43.65 -15.45 43.55 -15.5 43.35 -15.6 43.15 -15.7 42.95 -15.85 42.8 -15.9 42.6 -15.95 42.4 -16.1 42.2 -16.15 42.05 -16.25 41.85 -16.45 41.65 -16.6 41.45 -16.65 41.3 -16.75 41.1 -16.95 40.9 -17.1 40.7 -17.15 40.55 -17.25 40.35 -17.35 40.15 -17.45 39.95 -17.6 39.8 -17.75 39.6 -17.85 39.4 -17.95 39.2 -18.0 39.05 -18.15 38.85 -18.2 38.65 -18.35 38.45 -18.4 38.3 -18.5 38.1 -18.7 37.9 -18.85 37.7 -18.85 37.55 -18.9 37.35 -18.95 37.15 -19.1 36.95 -19.15 36.8 -19.25 36.6 -19.45 36.4 -19.6 36.2 -19.65 36.05 -19.75 35.85 -19.7 35.7 -19.65 35.55 -19.45 35.35 -19.4 35.3 -19.35 35.2 -19.15 35.05 -19.1 34.95 -18.9 34.8 -18.7 34.6 -18.5 34.45 -18.4 34.4 -18.15 34.35 -17.75 34.2 -17.4 34.1 -17.35 34.1 -16.95 34.2 -16.65 34.3 -16.25 34.35 -15.7 34.4 -15.5 34.45 -15.4 34.55 -15.2 34.7 -14.95 34.9 -14.85 35.1 -14.65 35.3 -14.45 35.45 -14.25 35.65 -14.1 35.85 -13.9 36.05 -13.7 36.2 -13.45 36.4 -13.1 36.6 -12.7 36.7 -12.45 36.8 -12.35 36.85 -12.1 36.95 -11.7 37.15 -11.35 37.35 -10.95 37.45 -10.6 37.6 -10.2 37.7 -9.9 37.8 -9.55 37.85 -9.45 37.9 -9.2 37.95 -8.8 38.1 -8.45 38.2 -8.15 38.3 -7.75 38.35 -4.75 38.35 -4.4 38.3 -4.05 38.2 -3.8 38.15 -3.25 38.1 -2.9 38.05 -2.55 37.95 -2.2 37.9 -1.8 38.1 -1.45 38.2 -1.2 38.3 -0.95 38.4 -0.55 38.6 -0.2 38.7 0.0 38.85 0.3 39.05 0.55 39.2 0.8 39.4 0.85 39.45 0.95 39.55 1.0 39.7 1.05 39.9 1.05 40.1 M-44.85 74.25 L-44.85 74.2 -39.1 74.2 -38.7 74.25 -38.45 74.3 -38.35 74.4 -35.75 74.45 -35.4 74.5 -35.15 74.55 -35.0 74.65 -34.5 74.7 -34.15 74.75 -33.85 74.9 -33.45 75.05 -33.15 75.25 -32.9 75.45 -32.7 75.65 -32.5 75.8 -32.4 76.0 -32.15 76.2 -32.0 76.4 -31.9 76.55 -31.85 76.75 -31.75 76.95 -31.7 77.15 -31.7 77.3 -31.7 77.5 -31.7 77.7 -31.7 77.9 -31.7 78.05 -31.75 78.25 -31.75 78.45 -31.9 78.65 -31.95 78.8 -32.1 79.0 -32.25 79.2 -32.6 79.4 -32.9 79.5 -33.25 79.55 -35.5 79.55 -35.9 79.5 -36.15 79.45 -36.25 79.4 -36.4 79.45 -36.65 79.5 -36.95 79.65 -37.0 79.7 -37.2 79.85 -37.4 79.95 -37.7 80.05 -37.9 80.25 -38.1 80.45 -38.25 80.65 -38.45 80.8 -38.7 81.0 -38.85 81.15 -38.95 81.2 -39.2 81.25 -39.55 81.3 -39.65 81.5 -39.7 81.7 -39.85 81.9 -39.9 82.05 -40.05 82.25 -40.1 82.45 -40.3 82.65 -40.45 82.8 -40.7 83.0 -40.85 83.15 -40.95 83.2 -41.2 83.25 -41.6 83.3 -41.85 83.3 -42.2 83.25 -42.6 83.15 -42.85 82.95 -43.05 82.75 -43.2 82.55 -43.3 82.4 -43.4 82.2 -43.55 82.0 -43.7 81.8 -43.8 81.65 -43.95 81.45 -44.3 81.25 -44.45 81.05 -44.65 80.9 -44.8 80.7 -44.85 80.5 -44.95 80.3 -45.15 80.15 -45.25 80.05 -45.45 80.0 -45.85 79.9 -46.2 79.7 -46.55 79.5 -46.7 79.3 -46.9 79.15 -46.95 79.05 -47.1 78.95 -47.3 78.75 -47.45 78.55 -47.55 78.4 -47.6 78.2 -47.65 78.0 -47.65 77.8 -47.65 77.65 -47.65 77.45 -47.65 77.25 -47.65 77.05 -47.65 76.9 -47.65 76.7 -47.65 76.5 -47.6 76.3 -47.55 76.15 -47.45 75.95 -47.35 75.75 -47.3 75.55 -47.15 75.4 -46.95 75.2 -46.8 75.0 -46.6 74.9 -46.45 74.8 -46.2 74.75 -45.9 74.65 -45.7 74.45 -45.45 74.3 -45.2 74.25 -44.85 74.25 M-156.95 73.75 L-156.6 73.7 -156.25 73.7 -156.25 73.65 -153.25 73.65 -152.85 73.7 -152.45 73.8 -152.1 74.0 -151.8 74.15 -151.6 74.2 -151.2 74.3 -150.85 74.5 -150.5 74.65 -150.1 74.7 -149.7 74.8 -149.45 74.9 -147.55 74.8 -147.45 74.75 -147.1 74.7 -146.75 74.65 -143.9 74.55 -143.8 74.55 -143.6 74.55 -143.5 74.65 -143.25 74.85 -142.9 75.0 -142.6 75.2 -142.35 75.4 -142.15 75.6 -142.05 75.75 -141.9 75.95 -141.75 76.15 -141.55 76.35 -141.4 76.5 -141.35 76.7 -141.3 76.9 -141.15 77.1 -141.1 77.25 -141.05 77.45 -141.05 77.65 -141.05 77.85 -141.05 78.0 -141.1 78.2 -141.15 78.4 -141.25 78.6 -141.3 78.75 -141.4 78.95 -141.55 79.15 -141.65 79.35 -141.85 79.55 -142.25 79.65 -142.5 79.7 -142.8 79.8 -143.15 79.85 -143.5 79.9 -143.85 80.05 -144.25 80.15 -144.5 80.2 -146.3 80.3 -146.55 80.35 -146.8 80.3 -147.1 80.2 -147.35 80.15 -147.65 80.1 -148.05 80.05 -149.8 80.05 -149.8 80.1 -150.15 80.1 -150.5 80.15 -150.75 80.2 -150.85 80.3 -151.15 80.35 -151.5 80.4 -151.75 80.45 -152.0 80.6 -152.35 80.8 -152.75 80.95 -153.0 81.15 -153.15 81.35 -153.3 81.55 -153.4 81.7 -153.55 81.9 -153.6 82.1 -153.65 82.3 -153.75 82.45 -153.8 82.65 -153.8 82.7 -153.9 82.85 -154.1 83.05 -154.3 83.2 -154.6 83.4 -155.0 83.6 -155.15 83.7 -155.4 83.8 -155.8 83.85 -158.8 83.85 -159.15 83.8 -159.55 83.65 -159.9 83.45 -160.25 83.3 -160.4 83.1 -160.6 82.9 -160.75 82.7 -160.8 82.55 -160.85 82.35 -160.85 82.15 -160.85 81.95 -160.85 81.8 -160.85 81.6 -160.85 81.4 -160.85 81.2 -160.85 81.05 -160.85 80.85 -160.85 80.65 -160.85 80.45 -160.85 80.3 -160.85 80.1 -160.85 79.9 -160.85 79.7 -160.8 79.55 -160.75 79.35 -160.6 79.15 -160.6 78.95 -160.55 78.75 -160.5 78.6 -160.35 78.4 -160.3 78.2 -160.15 78.0 -160.1 77.85 -160.0 77.65 -159.9 77.45 -159.85 77.25 -159.8 77.1 -159.75 76.9 -159.65 76.7 -159.6 76.5 -159.55 76.35 -159.5 76.15 -159.4 75.95 -159.25 75.75 -159.05 75.6 -158.8 75.4 -158.75 75.25 -158.6 75.05 -158.5 74.9 -158.3 74.7 -158.1 74.5 -157.8 74.3 -157.6 74.25 -157.45 74.05 -157.2 73.9 -156.95 73.75" fill="#ffffff" fill-rule="evenodd" stroke="none"/>
    <path d="M11.9 -46.75 L12.0 -46.55 12.05 -46.35 12.2 -46.2 12.2 -46.0 12.25 -45.8 12.25 -45.6 12.2 -45.45 12.15 -45.25 12.05 -45.05 12.0 -44.85 11.95 -44.7 11.9 -44.5 11.8 -44.3 11.7 -44.1 11.55 -43.95 11.4 -43.75 11.2 -43.55 11.0 -43.35 10.8 -43.2 10.65 -43.0 10.45 -42.8 10.15 -42.6 9.8 -42.5 9.45 -42.45 4.45 -42.35 4.3 -42.3 4.05 -42.25 3.7 -42.2 3.25 -42.05 2.9 -41.85 2.55 -41.75 2.2 -41.7 1.7 -41.6 1.55 -41.55 1.3 -41.5 0.95 -41.45 -1.55 -41.35 -1.7 -41.3 -1.95 -41.25 -2.3 -41.2 -2.8 -41.1 -2.95 -41.05 -3.2 -41.0 -3.55 -40.95 -4.3 -40.85 -4.45 -40.8 -4.7 -40.75 -5.1 -40.6 -5.45 -40.45 -5.7 -40.25 -5.8 -40.1 -5.95 -40.05 -6.2 -40.0 -6.5 -39.85 -6.75 -39.7 -7.1 -39.5 -7.3 -39.3 -7.5 -39.1 -7.75 -38.95 -8.1 -38.75 -8.3 -38.6 -8.45 -38.55 -8.7 -38.5 -9.05 -38.45 -12.3 -38.45 -12.7 -38.5 -13.05 -38.6 -13.45 -38.8 -14.3 -38.95 -14.7 -39.0 -14.95 -39.05 -15.05 -39.1 -15.3 -39.2 -15.7 -39.25 -15.95 -39.3 -16.05 -39.35 -16.3 -39.45 -16.7 -39.5 -16.95 -39.55 -17.05 -39.6 -20.05 -39.7 -20.45 -39.75 -20.8 -39.85 -21.05 -40.05 -21.25 -40.25 -21.45 -40.45 -21.6 -40.6 -21.8 -40.8 -22.0 -41.0 -22.2 -41.2 -22.35 -41.35 -22.5 -41.55 -22.75 -41.75 -22.95 -41.95 -23.1 -42.1 -23.25 -42.3 -23.3 -42.5 -23.35 -42.7 -23.35 -42.85 -23.35 -43.05 -23.35 -43.25 -23.35 -43.45 -23.3 -43.6 -23.3 -43.8 -23.2 -44.0 -23.05 -44.2 -22.85 -44.35 -22.7 -44.55 -22.45 -44.7 -22.2 -44.75 -21.8 -44.8 -18.95 -44.95 -18.55 -45.1 -18.2 -45.25 -17.8 -45.3 -16.55 -45.35 -16.45 -45.45 -16.2 -45.5 -15.8 -45.55 -14.55 -45.6 -14.45 -45.7 -14.2 -45.75 -13.8 -45.85 -13.45 -46.0 -13.05 -46.05 -11.8 -46.1 -11.7 -46.2 -11.45 -46.25 -11.05 -46.3 -9.55 -46.35 -9.45 -46.45 -9.2 -46.5 -8.8 -46.55 -6.8 -46.6 -6.7 -46.7 -6.45 -46.75 -6.05 -46.8 -4.3 -46.85 -4.2 -46.95 -3.95 -47.0 -3.55 -47.05 -3.3 -47.1 -3.2 -47.2 -2.95 -47.25 -2.55 -47.3 -0.8 -47.35 -0.7 -47.45 -0.45 -47.5 -0.05 -47.5 -0.05 -47.55 9.45 -47.55 9.8 -47.5 10.05 -47.45 10.2 -47.35 10.7 -47.3 11.05 -47.25 11.4 -47.1 11.7 -46.95 11.9 -46.75" fill="#ffffff" fill-rule="evenodd" stroke="none"/>
  </g>
</svg>
