<?xml version="1.0" encoding="UTF-8" standalone="no"?>
<svg xmlns:ffdec="https://www.free-decompiler.com/flash" xmlns:xlink="http://www.w3.org/1999/xlink" ffdec:objectType="shape" height="53.1px" width="43.2px" xmlns="http://www.w3.org/2000/svg">
  <g transform="matrix(1.0, 0.0, 0.0, 1.0, 21.2, 26.6)">
    <path d="M-12.55 -6.25 L-12.5 -6.3 -12.4 -6.4 -12.3 -6.45 -12.3 -6.4 -12.4 -6.3 -12.55 -6.25 M-11.4 14.15 L-11.5 14.05 -11.5 14.0 -11.35 14.05 -11.3 14.1 -11.25 14.2 -11.35 14.25 -11.4 14.15" fill="#a77a30" fill-rule="evenodd" stroke="none"/>
    <path d="M20.05 -24.15 L20.05 -23.6 20.0 -23.7 19.95 -23.8 19.9 -23.9 19.9 -23.95 19.95 -24.0 20.0 -24.1 20.05 -24.15 M20.2 22.2 L20.2 22.25 20.2 22.35 20.1 22.45 20.1 22.35 20.15 22.25 20.2 22.2 M-14.9 -2.65 L-14.9 -2.7 -14.9 -2.8 -14.9 -2.9 -14.9 -2.95 -14.75 -2.85 -14.8 -2.85 -14.85 -2.75 -14.9 -2.65 M-17.25 -4.8 L-17.2 -4.75 -17.2 -4.65 -17.2 -4.6 -17.25 -4.7 -17.25 -4.8 M-3.9 -9.15 L-3.9 -9.25 -3.9 -9.3 -3.85 -9.25 -3.75 -9.15 -3.9 -9.15 M-9.9 7.65 L-10.0 7.55 -10.15 7.45 -10.0 7.45 -9.95 7.45 -9.9 7.55 -9.9 7.65 M3.0 -12.0 L3.1 -12.0 3.05 -11.9 3.05 -11.8 3.05 -11.7 3.0 -11.7 1.7 -11.75 1.75 -11.85 1.85 -11.95 1.85 -12.05 1.95 -12.0 3.0 -12.0" fill="#a37830" fill-rule="evenodd" stroke="none"/>
    <path d="M-14.9 -2.5 L-14.9 -2.65 -14.85 -2.75 -14.8 -2.85 -14.75 -2.85 -14.7 -2.85 -14.75 -2.85 -14.75 -2.75 -14.8 -2.65 -14.8 -2.55 -14.9 -2.5 M10.1 10.55 L10.05 10.6 9.95 10.7 9.95 10.6 10.1 10.55 M-5.15 19.75 L-5.15 19.65 -5.2 19.55 -5.05 19.55 -5.1 19.65 -5.15 19.75 M-14.7 11.6 L-14.7 11.55 -14.7 11.45 -14.7 11.35 -14.65 11.25 -14.65 11.2 -14.65 11.1 -14.6 11.0 -14.55 10.9 -14.55 10.95 -14.55 11.05 -14.55 11.15 -14.6 11.25 -14.65 11.35 -14.65 11.45 -14.65 11.5 -14.7 11.6 M-13.65 10.15 L-13.65 10.1 -13.65 10.15 M-4.95 -1.1 L-4.85 -1.15 -4.7 -1.25 -4.55 -1.3 -4.4 -1.4 -4.3 -1.5 -4.2 -1.6 -2.25 -1.6 -2.05 -1.5 -1.8 -1.45 -1.6 -1.4 -1.35 -1.4 -1.3 -1.35 -1.15 -1.3 -0.9 -1.2 -0.7 -1.1 -0.45 -1.05 -0.3 -1.0 -0.25 -0.95 -0.15 -0.85 0.05 -0.75 0.25 -0.65 0.25 -0.55 0.35 -0.5 0.45 -0.4 0.5 -0.3 0.6 -0.2 0.8 -0.1 1.05 -0.05 1.25 0.0 1.45 -0.05 1.65 -0.1 1.85 -0.2 1.9 -0.25 1.95 -0.2 2.0 -0.15 2.05 -0.1 2.05 0.0 2.05 0.1 2.05 0.2 2.05 0.25 2.05 0.35 2.05 0.45 2.05 0.55 2.1 0.65 2.1 0.75 2.15 0.85 2.2 0.95 2.2 1.0 2.25 1.1 2.3 1.2 2.35 1.3 2.35 1.4 2.4 1.5 2.45 1.6 2.2 1.65 2.1 1.55 1.95 1.45 1.8 1.35 1.7 1.25 1.6 1.2 1.5 1.1 1.3 1.0 1.1 0.95 0.95 0.9 0.75 0.85 0.7 0.75 0.7 0.65 0.65 0.55 0.6 0.45 0.5 0.35 0.45 0.25 0.35 0.2 0.25 0.1 0.05 0.0 -0.2 -0.1 -0.4 -0.15 -0.55 -0.2 -0.7 -0.25 -0.9 -0.3 -1.1 -0.35 -2.35 -0.35 -2.35 -0.3 -2.55 -0.3 -2.7 -0.3 -2.85 -0.25 -3.0 -0.15 -3.15 -0.05 -3.3 0.05 -3.5 0.15 -3.65 0.25 -3.75 0.35 -3.8 0.45 -3.9 0.5 -4.0 0.6 -4.1 0.7 -4.2 0.8 -4.25 0.9 -4.3 1.0 -4.3 1.1 -4.4 1.2 -4.5 1.25 -4.55 1.35 -4.65 1.45 -4.7 1.55 -4.75 1.65 -4.8 1.75 -4.9 1.85 -4.95 1.95 -5.0 2.0 -5.05 2.1 -5.05 2.2 -5.15 2.3 -5.2 2.4 -5.25 2.5 -5.3 2.6 -5.3 2.7 -5.35 2.75 -5.4 2.85 -5.5 2.95 -5.5 3.05 -5.55 2.95 -5.65 2.85 -5.7 2.75 -5.8 2.7 -5.9 2.6 -6.1 2.5 -6.3 2.45 -6.5 2.4 -6.7 2.45 -6.75 2.45 -6.65 2.35 -6.5 2.25 -6.35 2.2 -6.2 2.1 -6.1 2.0 -6.0 1.95 -5.9 1.85 -5.85 1.75 -5.8 1.65 -5.75 1.55 -5.75 1.45 -5.7 1.35 -5.65 1.25 -5.65 1.2 -5.65 1.1 -5.65 1.0 -5.65 0.9 -5.65 0.8 -5.65 0.7 -5.65 0.6 -5.7 0.5 -5.75 0.45 -5.75 0.35 -5.8 0.25 -5.85 0.15 -5.9 0.05 -6.0 -0.05 -6.05 -0.1 -6.0 -0.2 -5.9 -0.3 -5.9 -0.4 -5.8 -0.5 -5.75 -0.55 -5.55 -0.65 -5.4 -0.75 -5.3 -0.85 -5.25 -0.95 -5.15 -1.0 -5.05 -1.05 -4.95 -1.1 M0.2 5.3 L0.2 5.35 0.1 5.45 0.05 5.55 0.0 5.65 -0.05 5.75 -0.5 5.75 -0.45 5.7 -0.4 5.65 -0.35 5.65 -0.2 5.6 -0.1 5.55 0.0 5.45 0.1 5.35 0.2 5.3 M8.35 18.45 L8.4 18.5 8.5 18.6 8.6 18.7 8.8 18.75 8.8 18.85 8.8 18.95 8.7 18.95 8.65 18.9 8.6 18.8 8.5 18.7 8.4 18.6 8.3 18.5 8.35 18.45 M7.5 8.75 L7.55 8.65 7.75 8.75 7.5 8.8 7.5 8.75 M-5.35 5.7 L-5.3 5.75 -5.25 5.85 -5.2 5.95 -5.15 6.05 -5.05 6.15 -4.95 6.25 -4.85 6.35 -4.8 6.45 -4.75 6.5 -4.65 6.6 -4.55 6.7 -4.5 6.8 -4.4 6.9 -4.25 7.0 -4.05 7.1 -3.9 7.2 -3.75 7.25 -3.65 7.35 -3.5 7.45 -3.4 7.55 -3.5 7.6 -3.55 7.7 -3.75 7.75 -3.95 7.85 -4.2 7.9 -4.45 8.0 -4.65 8.1 -4.7 8.0 -4.75 7.95 -4.75 7.85 -4.75 7.75 -4.75 7.65 -4.75 7.55 -4.75 7.45 -4.75 7.35 -4.75 7.25 -4.8 7.2 -4.8 7.1 -4.85 7.0 -4.9 6.9 -4.95 6.8 -5.0 6.7 -5.05 6.6 -5.1 6.5 -5.15 6.45 -5.15 6.35 -5.2 6.25 -5.25 6.15 -5.25 6.05 -5.3 5.95 -5.3 5.85 -5.35 5.75 -5.4 5.7 -5.4 5.65 -5.35 5.7 M-5.7 4.35 L-5.7 4.45 -5.7 4.55 -5.7 4.65 -5.7 4.75 -5.7 4.85 -5.7 4.95 -5.7 5.0 -5.75 4.95 -5.75 4.85 -5.8 4.75 -5.8 4.65 -5.85 4.55 -5.8 4.45 -5.7 4.35" fill="#bd8b37" fill-rule="evenodd" stroke="none"/>
    <path d="M-5.15 -1.0 L-5.1 -1.05 -4.95 -1.1 -5.05 -1.05 -5.15 -1.0 M1.95 -0.2 L2.05 -0.2 2.05 -0.1 2.0 -0.15 1.95 -0.2 M-6.75 2.45 L-6.85 2.45 -6.95 2.5 -7.05 2.55 -7.05 2.5 -7.05 2.4 -7.1 2.3 -7.15 2.2 -7.25 2.1 -7.25 2.05 -7.25 1.95 -7.25 1.8 -7.2 1.7 -7.15 1.6 -7.15 1.5 -7.1 1.4 -7.05 1.3 -7.05 1.2 -7.0 1.1 -7.0 1.0 -6.95 0.95 -6.9 0.85 -6.8 0.75 -6.75 0.65 -6.65 0.55 -6.65 0.5 -6.6 0.45 -6.5 0.35 -6.4 0.25 -6.3 0.15 -6.25 0.05 -6.15 0.0 -6.05 -0.1 -6.0 -0.05 -5.9 0.05 -5.85 0.15 -5.8 0.25 -5.75 0.35 -5.75 0.45 -5.7 0.5 -5.65 0.6 -5.65 0.7 -5.65 0.8 -5.65 0.9 -5.65 1.0 -5.65 1.1 -5.65 1.2 -5.65 1.25 -5.7 1.35 -5.75 1.45 -5.75 1.55 -5.8 1.65 -5.85 1.75 -5.9 1.85 -6.0 1.95 -6.1 2.0 -6.2 2.1 -6.35 2.2 -6.5 2.25 -6.65 2.35 -6.75 2.45 M5.9 -6.2 L5.5 -6.2 5.5 -6.15 5.35 -6.15 5.15 -6.25 4.95 -6.3 4.75 -6.35 3.75 -6.35 3.55 -6.3 3.3 -6.25 2.95 -6.25 2.95 -6.3 2.95 -6.4 3.0 -6.5 3.0 -6.55 3.05 -6.55 3.25 -6.5 3.5 -6.5 3.7 -6.55 3.9 -6.6 4.85 -6.6 5.8 -6.6 6.05 -6.55 6.25 -6.5 7.25 -6.45 7.3 -6.4 7.3 -6.3 7.3 -6.2 7.3 -6.1 7.3 -6.0 7.3 -5.9 7.3 -5.8 7.3 -5.75 7.3 -5.65 7.3 -5.55 7.3 -5.45 7.2 -5.4 7.0 -5.45 6.95 -5.45 6.9 -5.55 6.85 -5.65 6.75 -5.75 6.7 -5.8 6.6 -5.9 6.5 -6.0 6.3 -6.1 6.1 -6.15 5.9 -6.2 M4.45 -2.85 L4.45 -2.75 4.35 -2.65 4.3 -2.55 4.25 -2.5 4.2 -2.4 4.15 -2.3 4.05 -2.2 4.0 -2.1 3.95 -2.0 3.95 -1.9 3.9 -1.8 3.85 -1.75 3.8 -1.7 3.75 -1.75 3.7 -1.75 3.7 -1.85 3.75 -1.95 3.85 -2.05 3.85 -2.15 3.9 -2.25 4.0 -2.3 4.1 -2.4 4.15 -2.5 4.2 -2.6 4.25 -2.7 4.35 -2.8 4.35 -2.9 4.4 -3.0 4.45 -3.05 4.5 -3.05 4.5 -2.95 4.45 -2.85" fill="#b48434" fill-rule="evenodd" stroke="none"/>
    <path d="M17.2 24.45 L17.2 24.55 17.2 24.75 17.15 24.85 17.1 24.95 17.05 25.0 17.05 25.1 17.0 25.2 16.95 25.3 16.95 25.4 16.95 25.5 16.95 25.6 16.95 25.7 16.95 25.85 16.9 25.95 16.85 26.05 16.8 26.15 16.7 26.25 16.65 26.35 16.45 26.4 16.3 26.5 16.1 26.5 15.9 26.5 15.7 26.4 15.55 26.35 15.45 26.25 15.4 26.15 15.3 26.05 15.25 25.95 15.25 25.85 15.2 25.75 15.15 25.7 15.15 25.6 15.1 25.5 15.05 25.4 15.05 25.3 14.7 25.2 14.45 25.15 12.6 24.85 3.15 24.85 1.0 25.2 -2.65 25.1 -3.05 25.0 -3.45 24.9 -3.65 24.85 -4.05 24.75 -4.45 24.65 -4.55 24.65 -10.9 24.55 -11.55 24.75 -12.2 24.9 Q-13.4 25.15 -14.55 24.9 L-14.65 24.95 -14.9 25.15 -14.95 25.2 -15.05 25.25 -15.2 25.35 -15.3 25.45 -15.35 25.45 -15.45 25.5 -15.65 25.5 -15.85 25.5 -16.0 25.4 -16.2 25.35 -16.3 25.25 -16.35 25.15 -16.45 25.05 -16.5 24.95 -16.5 24.65 -16.55 24.1 -16.6 24.0 -16.7 23.9 -16.7 23.85 -16.9 23.9 -16.95 23.9 -17.4 24.0 -17.6 24.0 -17.7 23.95 -17.75 23.95 -17.85 24.0 -18.05 24.0 -18.25 24.1 -18.25 24.05 -18.25 23.95 -18.25 23.85 -18.25 23.75 -18.25 23.7 -18.25 23.6 -18.25 23.5 -18.25 23.4 -18.25 23.3 -18.2 23.2 -18.15 23.1 -18.15 23.0 -18.15 22.95 -18.15 22.85 -18.15 22.75 -18.15 22.7 -18.05 22.75 -17.8 22.8 -17.6 22.85 -17.4 22.8 -17.25 22.75 -17.1 22.7 -16.95 22.6 -16.85 22.5 -16.75 22.45 -16.7 22.35 -16.65 22.25 -16.6 22.15 -16.55 22.05 -16.55 21.95 -16.5 21.85 -16.5 21.75 -16.5 21.7 -16.5 21.6 -16.5 21.5 -16.5 21.4 -16.5 21.3 -16.5 21.2 -16.5 21.1 -16.5 21.0 -16.5 20.95 -16.5 20.85 -16.5 20.75 -16.45 20.65 -16.45 20.55 -16.4 20.45 -16.4 20.35 -16.4 20.25 -16.4 20.2 -16.4 20.1 -16.4 20.0 -16.4 19.9 -16.4 19.8 -16.4 19.7 -16.4 19.6 -16.4 19.5 -16.4 19.45 -16.4 19.35 -16.4 19.25 -16.4 19.15 -16.4 19.05 -16.4 18.95 -16.4 18.85 -16.35 18.75 -16.3 18.7 -16.3 18.6 -16.25 18.5 -16.25 18.4 -16.25 18.3 -16.25 18.2 -16.25 18.1 -16.25 18.0 -16.25 17.95 -16.25 17.85 -16.25 17.75 -16.25 17.65 -16.25 17.55 -16.25 17.45 -16.25 17.35 -16.25 17.25 -16.25 17.2 -16.25 17.1 -16.25 17.0 -16.25 16.9 -16.25 16.8 -16.25 16.7 -16.25 16.6 -16.25 16.5 -16.25 16.45 -16.25 16.35 -16.25 16.25 -16.25 16.15 -16.25 16.05 -16.25 15.95 -16.25 15.85 -16.25 15.75 -16.25 15.7 -16.25 15.6 -16.25 15.5 -16.25 15.4 -16.25 15.3 -16.25 15.2 -16.25 15.1 -16.25 15.0 -16.25 14.95 -16.25 14.85 -16.25 14.75 -16.25 14.65 -16.25 14.55 -16.25 14.45 -16.25 14.35 -16.25 14.25 -16.25 14.2 -16.25 14.1 -16.25 14.0 -16.25 13.9 -16.25 13.8 -16.25 13.7 -16.25 13.6 -16.25 13.5 -16.25 13.45 -16.25 13.35 -16.25 13.25 -16.25 13.15 -16.25 13.05 -16.25 12.95 -16.25 12.85 -16.25 12.75 -16.25 12.7 -16.25 12.6 -16.25 12.5 -16.2 12.4 -16.2 12.3 -16.15 12.2 -16.15 12.1 -16.15 12.0 -16.15 11.95 -16.1 11.85 -16.05 11.75 -16.05 11.65 -16.05 11.55 -16.0 11.45 -16.0 11.35 -16.0 11.25 -16.0 11.2 -16.0 11.1 -16.0 11.0 -16.0 10.9 -16.0 10.8 -16.0 10.7 -15.95 10.6 -15.9 10.5 -15.9 10.45 -15.9 10.35 -15.9 10.25 -15.9 10.15 -15.9 10.05 -15.9 9.95 -15.9 9.85 -15.85 9.75 -15.8 9.7 -15.8 9.6 -15.75 9.5 -15.75 9.4 -15.75 9.3 -15.75 9.2 -15.75 9.1 -15.75 9.0 -15.75 8.95 -15.75 8.85 -15.7 8.75 -15.65 8.65 -15.6 8.55 -15.55 8.45 -15.55 8.35 -15.5 8.25 -15.5 8.2 -15.5 8.1 -15.5 8.0 -15.45 7.9 -15.45 7.8 -15.4 7.7 -15.4 7.6 -15.4 7.5 -15.4 7.45 -15.4 7.35 -15.4 7.25 -15.4 7.15 -15.4 7.05 -15.4 6.95 -15.4 6.85 -15.35 6.75 -15.3 6.7 -15.3 6.6 -15.25 6.5 -15.25 6.4 -15.25 6.3 -15.2 6.2 -15.15 6.1 -15.15 6.0 -15.15 5.95 -15.15 5.85 -15.15 5.75 -15.15 5.65 -15.15 5.55 -15.15 5.45 -15.15 5.35 -15.15 5.25 -15.15 5.2 -15.15 5.1 -15.15 5.0 -15.1 4.9 -15.05 4.8 -15.05 4.7 -15.0 4.6 -15.0 4.5 -15.0 4.45 -15.0 4.35 -15.0 4.25 -15.0 4.15 -15.0 4.05 -15.0 3.95 -14.95 3.85 -14.9 3.75 -14.9 3.7 -14.9 3.6 -14.9 3.5 -14.9 3.4 -14.9 3.3 -14.9 3.2 -14.9 3.1 -14.9 3.0 -14.85 2.95 -14.8 2.85 -14.8 2.75 -14.8 2.65 -14.75 2.55 -14.75 2.45 -14.75 2.35 -14.75 2.25 -14.75 2.2 -14.75 2.1 -14.75 2.0 -14.75 1.9 -14.75 1.8 -14.75 1.7 -14.75 1.6 -14.75 1.5 -14.75 1.45 -14.75 1.35 -14.75 1.25 -14.75 1.15 -14.75 1.05 -14.75 0.95 -14.75 0.85 -14.75 0.75 -14.75 0.7 -14.75 0.6 -14.75 0.5 -14.75 0.4 -14.75 0.3 -14.75 0.2 -14.55 0.25 -14.5 0.25 -14.4 0.35 -14.0 0.45 -13.8 0.5 -13.15 0.6 -13.15 0.7 -13.15 0.8 -13.15 0.9 -13.15 1.0 -13.15 1.1 -13.15 1.2 -13.15 1.25 -13.2 1.35 -13.25 1.45 -13.25 1.55 -13.3 1.65 -13.3 2.3 -13.3 3.05 -13.3 3.7 -13.3 4.25 -13.3 4.65 -13.25 4.75 -13.3 4.85 -13.3 4.95 -13.3 5.05 -13.35 5.15 -13.4 5.25 -13.4 5.35 -13.4 5.45 -13.4 5.5 -13.4 5.6 -13.35 5.7 -13.3 5.8 -13.3 5.9 -13.2 6.0 -13.1 6.1 -13.0 6.2 -13.15 6.25 -13.25 6.35 -13.3 6.45 -13.4 6.5 -13.5 6.6 -13.6 6.7 -13.7 6.8 -13.75 6.9 -13.8 7.0 -13.8 7.1 -13.8 7.2 -13.85 7.25 -13.85 7.35 -13.85 7.45 -13.85 7.55 -13.8 7.65 -13.8 7.75 -13.75 7.85 -13.75 7.95 -13.65 8.0 -13.55 8.1 -13.55 8.2 -13.55 8.25 -13.6 8.35 -13.6 8.45 -13.65 8.55 -13.65 8.85 -13.65 9.3 -13.65 9.85 -13.65 10.1 -13.65 10.15 -13.8 10.15 -14.0 10.2 -14.15 10.3 -14.25 10.4 -14.35 10.5 -14.45 10.6 -14.5 10.7 -14.5 10.75 -14.55 10.85 -14.55 10.9 -14.6 11.0 -14.65 11.1 -14.65 11.2 -14.65 11.25 -14.7 11.35 -14.7 11.45 -14.7 11.55 -14.7 11.6 -14.75 11.7 -14.8 11.8 -14.85 11.9 -14.9 12.0 -14.9 12.1 -14.9 12.2 -14.95 12.25 -15.0 12.35 -15.0 12.45 -15.05 12.55 -15.05 12.65 -15.05 12.75 -15.05 12.85 -15.1 12.95 -15.15 13.0 -15.15 13.2 -15.15 13.6 -15.15 13.85 -15.15 14.15 -15.15 14.35 -15.15 14.5 -15.15 14.6 -15.1 14.7 -15.05 14.8 -15.05 14.9 -14.95 15.0 -14.85 15.1 -14.75 15.2 -14.55 15.25 -14.35 15.25 -14.15 15.25 -14.05 15.2 -13.95 15.15 -13.85 15.05 -13.75 14.95 -13.7 14.85 -13.65 14.75 -13.6 14.7 -13.55 14.6 -13.55 14.5 -13.5 14.5 -13.4 14.6 -13.15 14.85 -12.95 15.05 -12.75 15.25 -12.65 15.35 -12.4 15.45 -12.35 15.45 -12.35 15.55 -12.35 15.65 -12.3 15.75 -12.3 15.85 -12.25 15.95 -12.25 16.0 -12.15 16.1 -12.05 16.2 -12.0 16.3 -11.9 16.4 -11.7 16.5 -11.45 16.55 -11.25 16.6 -8.85 16.65 -8.75 16.75 -8.65 16.85 -8.45 16.9 -8.35 17.0 -8.25 17.1 -8.05 17.15 -7.9 17.2 -7.85 17.25 -7.75 17.35 -7.55 17.4 -7.4 17.45 -7.3 17.5 -7.15 17.6 -7.2 17.65 -7.25 17.75 -7.3 17.85 -7.3 17.95 -7.3 18.0 -7.35 18.1 -7.35 18.2 -7.35 18.3 -7.35 18.4 -7.3 18.5 -7.3 18.6 -7.25 18.7 -7.25 18.75 -7.15 18.85 -7.05 18.95 -7.0 19.05 -6.9 19.15 -6.7 19.25 -6.5 19.3 -6.4 19.35 -6.3 19.4 -6.05 19.45 -5.85 19.5 -5.2 19.55 -5.15 19.65 -5.15 19.75 -5.15 19.85 -5.15 19.95 -5.2 20.0 -5.2 20.1 -5.2 20.2 -5.2 20.3 -5.15 20.4 -5.15 20.5 -5.1 20.6 -5.05 20.7 -5.0 20.75 -4.9 20.85 -4.8 20.95 -4.75 21.05 -4.55 21.15 -4.3 21.2 -4.1 21.25 -2.4 21.25 -2.35 21.35 -2.3 21.45 -2.3 21.55 -2.2 21.65 -2.1 21.75 -2.0 21.85 -1.8 21.85 0.8 21.9 0.9 22.0 1.0 22.1 1.2 22.15 1.65 22.15 1.85 22.15 1.95 22.1 2.0 22.1 2.1 22.0 2.3 21.95 2.5 21.95 2.7 21.9 2.85 21.85 3.5 21.75 3.7 21.75 3.8 21.7 4.85 21.65 4.95 21.6 5.05 21.55 5.45 21.45 5.75 21.45 5.95 21.4 6.05 21.35 6.15 21.3 6.35 21.25 6.5 21.15 6.75 21.1 7.4 21.0 7.7 20.95 7.95 20.9 8.05 20.85 8.15 20.8 8.55 20.7 9.15 20.5 9.6 20.4 9.75 20.35 9.85 20.25 10.0 20.2 10.2 20.1 10.25 20.1 10.35 20.0 10.5 19.95 10.65 19.85 10.75 19.75 10.8 19.65 10.85 19.55 10.9 19.45 10.9 19.35 10.95 19.25 10.95 19.2 10.95 19.1 10.95 19.0 10.95 18.9 10.95 18.8 10.9 18.7 10.85 18.6 10.8 18.5 10.75 18.45 10.7 18.35 10.6 18.25 10.6 18.15 10.5 18.05 10.45 17.95 10.35 17.85 10.1 17.7 9.9 17.5 9.6 17.3 9.4 17.2 9.15 17.0 9.05 16.95 8.95 16.85 8.85 16.75 8.75 16.65 8.6 16.55 8.7 16.55 8.85 16.5 9.0 16.45 9.25 16.35 9.45 16.3 9.65 16.25 9.9 16.15 10.4 16.1 10.6 16.05 10.85 16.0 11.1 15.95 11.25 15.85 11.45 15.8 11.6 15.75 11.9 15.75 12.8 15.75 12.95 15.8 13.15 15.85 13.4 15.85 13.6 15.8 13.75 15.75 13.9 15.7 14.05 15.6 14.15 15.5 14.25 15.45 14.3 15.35 14.35 15.25 14.4 15.15 14.45 15.05 14.45 14.95 14.5 14.85 14.5 14.75 14.5 14.7 14.45 14.6 14.45 14.5 14.45 14.4 14.4 14.3 14.35 14.2 14.25 14.1 14.2 14.0 14.1 13.95 14.0 13.85 13.8 13.75 13.6 13.7 13.45 13.65 13.35 13.6 13.2 13.6 13.0 13.55 12.5 13.55 12.35 13.45 12.4 13.35 12.7 13.3 12.85 13.25 13.0 13.2 13.15 13.1 13.25 13.0 13.35 12.95 13.4 12.85 13.45 12.75 13.5 12.65 13.5 12.55 13.55 12.45 13.6 12.35 13.6 12.25 13.6 12.2 13.55 12.1 13.55 12.0 13.5 11.9 13.5 11.8 13.45 11.7 13.35 11.6 13.3 11.5 13.2 11.45 13.1 11.35 12.9 11.25 12.7 11.2 12.5 11.15 10.0 11.1 9.85 11.1 9.85 11.0 9.9 10.9 9.95 10.8 9.95 10.7 10.05 10.6 10.1 10.55 10.2 10.5 10.4 10.5 10.6 10.45 10.75 10.45 10.9 10.35 11.2 10.3 11.35 10.25 12.4 10.25 12.6 10.2 12.8 10.15 13.15 10.1 13.35 10.05 13.5 10.0 13.65 9.95 13.9 9.85 14.05 9.75 14.15 9.7 14.25 9.6 14.3 9.5 14.35 9.4 14.4 9.3 14.45 9.2 14.45 9.1 14.5 9.0 14.5 8.95 14.5 8.85 14.45 8.75 14.45 8.65 14.45 8.55 14.4 8.45 14.35 8.35 14.25 8.25 14.2 8.2 14.1 8.1 14.0 8.0 13.8 7.9 13.6 7.85 13.4 7.8 12.3 7.75 12.1 7.7 11.9 7.65 11.75 7.6 11.6 7.6 11.4 7.55 10.9 7.5 10.85 7.5 10.85 7.45 10.9 7.35 10.95 7.25 10.95 7.15 10.95 7.05 10.95 6.95 11.0 6.85 11.0 6.75 11.0 6.7 11.1 6.6 11.1 6.5 11.15 6.4 11.2 6.3 11.2 6.2 11.2 6.1 11.15 6.0 11.15 5.95 11.1 5.85 11.05 5.75 11.0 5.65 10.9 5.55 10.75 5.45 10.7 5.45 10.7 5.4 10.7 5.3 10.75 5.2 10.75 5.1 10.75 5.0 10.75 4.95 10.7 4.85 10.7 4.75 10.7 4.65 10.65 4.55 10.6 4.45 10.5 4.35 10.45 4.25 10.35 4.2 10.25 4.1 10.05 4.0 9.85 3.95 9.7 3.85 9.8 3.75 9.9 3.7 10.0 3.6 10.05 3.5 10.1 3.4 10.15 3.3 13.75 3.25 13.95 3.2 14.1 3.2 14.25 3.1 14.4 3.0 14.5 2.95 14.6 2.85 14.65 2.75 14.7 2.65 14.75 2.55 14.75 2.45 14.8 2.35 14.85 2.25 14.85 2.2 14.85 2.1 14.8 2.0 14.8 1.9 14.75 1.8 14.75 1.7 14.7 1.6 14.6 1.5 14.55 1.45 14.45 1.35 14.6 1.25 14.75 1.2 14.9 1.1 15.0 1.0 15.1 0.95 15.15 0.85 15.2 0.75 15.25 0.65 15.25 0.55 15.3 0.45 15.35 0.35 15.35 0.25 15.35 0.2 15.3 0.1 15.3 0.0 15.25 -0.1 15.25 -0.2 15.2 -0.3 15.1 -0.4 15.05 -0.5 14.95 -0.55 14.85 -0.65 14.65 -0.75 14.45 -0.8 14.25 -0.85 12.05 -0.9 12.1 -1.0 12.1 -1.05 12.1 -1.15 12.05 -1.25 12.05 -1.35 12.0 -1.45 12.75 -1.5 12.95 -1.55 13.15 -1.6 14.0 -1.65 14.2 -1.7 14.35 -1.75 14.5 -1.8 14.65 -1.9 14.75 -2.0 14.85 -2.05 14.9 -2.15 14.95 -2.25 15.0 -2.35 15.0 -2.45 15.05 -2.55 15.1 -2.65 15.1 -2.75 15.1 -2.8 15.05 -2.9 15.05 -3.0 15.0 -3.1 15.0 -3.2 14.95 -3.3 14.85 -3.4 14.8 -3.5 14.7 -3.55 14.6 -3.65 14.4 -3.75 14.2 -3.8 14.0 -3.85 13.55 -3.9 13.6 -4.0 13.6 -4.05 13.6 -4.15 13.55 -4.25 13.55 -4.35 13.5 -4.45 13.5 -4.55 13.45 -4.65 13.35 -4.75 13.3 -4.8 13.2 -4.9 13.1 -5.0 12.9 -5.1 12.7 -5.15 12.55 -5.2 12.55 -5.25 12.55 -5.35 12.55 -5.4 13.15 -5.4 13.35 -5.45 13.5 -5.5 13.9 -5.5 14.1 -5.55 14.3 -5.6 14.5 -5.7 14.9 -5.75 15.1 -5.8 15.3 -5.85 15.5 -5.95 15.7 -6.05 15.9 -6.15 16.1 -6.25 16.3 -6.3 16.45 -6.4 16.5 -6.5 16.6 -6.6 16.7 -6.7 16.7 -6.8 16.75 -6.9 16.85 -7.0 16.9 -7.05 16.95 -7.15 16.95 -7.25 16.95 -7.35 17.0 -7.45 17.0 -7.55 17.0 -7.65 16.95 -7.75 16.95 -7.8 16.9 -7.9 16.85 -8.0 16.8 -8.1 16.75 -8.2 16.65 -8.3 16.55 -8.4 16.4 -8.5 16.25 -8.55 16.0 -8.65 15.8 -8.75 15.6 -8.8 15.4 -8.85 15.1 -8.9 15.1 -9.0 15.1 -9.1 15.1 -9.2 15.05 -9.3 15.05 -9.4 15.0 -9.5 14.95 -9.55 14.95 -9.65 14.85 -9.75 14.8 -9.85 14.75 -9.95 14.65 -10.05 14.55 -10.15 14.4 -10.25 14.2 -10.3 14.1 -10.4 13.9 -10.5 13.7 -10.55 13.6 -10.55 13.6 -10.6 13.6 -10.7 13.55 -10.8 13.55 -10.9 13.5 -11.0 13.45 -11.05 13.45 -11.15 13.35 -11.25 13.25 -11.35 13.2 -11.45 13.05 -11.55 12.9 -11.65 12.8 -11.75 12.65 -11.8 12.5 -11.9 12.3 -12.0 12.1 -12.05 11.95 -12.1 11.85 -12.15 12.0 -12.25 12.15 -12.3 12.3 -12.4 12.4 -12.5 12.6 -12.55 12.75 -12.55 12.85 -12.6 12.95 -12.65 13.1 -12.75 13.4 -12.85 13.6 -12.95 13.75 -13.05 14.0 -13.15 14.15 -13.25 14.3 -13.3 14.45 -13.4 14.6 -13.5 14.7 -13.6 14.75 -13.7 14.85 -13.8 14.85 -13.9 14.9 -14.0 14.95 -14.05 14.95 -14.15 15.0 -14.25 15.0 -14.35 15.0 -14.45 15.0 -14.55 15.0 -14.65 15.0 -14.75 15.0 -14.8 14.95 -14.9 14.95 -15.0 14.95 -15.1 14.9 -15.2 14.85 -15.3 14.75 -15.4 14.7 -15.5 14.6 -15.55 14.5 -15.65 14.3 -15.75 14.1 -15.8 13.9 -15.85 13.35 -15.9 13.15 -16.0 12.95 -16.05 12.75 -16.1 12.5 -16.15 12.35 -16.15 12.15 -16.2 11.3 -16.25 11.1 -16.3 10.9 -16.35 10.25 -16.4 10.25 -16.45 10.25 -16.55 10.3 -16.65 10.35 -16.75 10.35 -16.8 10.35 -16.9 10.3 -17.0 10.3 -17.1 10.25 -17.2 10.25 -17.3 10.2 -17.4 10.1 -17.5 10.05 -17.55 9.95 -17.65 9.85 -17.75 9.65 -17.85 9.45 -17.9 9.25 -17.95 0.45 -18.0 0.2 -18.05 0.0 -18.1 -2.65 -18.15 -2.8 -18.15 -3.0 -18.2 -4.95 -18.25 -5.15 -18.3 -5.35 -18.35 -6.0 -18.35 -6.0 -18.3 -6.2 -18.3 -6.35 -18.3 -6.5 -18.25 -6.65 -18.15 -6.75 -18.05 -6.85 -17.95 -6.95 -17.85 -7.0 -17.75 -7.05 -17.65 -7.05 -17.55 -7.05 -17.5 -7.1 -17.4 -7.1 -17.3 -7.1 -17.2 -7.1 -17.1 -7.05 -17.0 -7.05 -16.9 -7.0 -16.8 -7.0 -16.75 -6.9 -16.65 -6.8 -16.55 -6.75 -16.45 -6.65 -16.35 -6.45 -16.25 -6.2 -16.2 -6.0 -16.15 -5.7 -16.1 -5.55 -16.05 -5.8 -16.0 -6.6 -15.95 -6.8 -15.9 -6.95 -15.9 -7.05 -15.85 -7.2 -15.8 -7.45 -15.75 -7.65 -15.65 -7.75 -15.55 -7.8 -15.5 -7.9 -15.4 -8.0 -15.3 -8.0 -15.2 -8.05 -15.1 -8.85 -15.1 -8.85 -15.05 -9.05 -15.05 -9.3 -15.0 -9.5 -14.95 -9.7 -14.9 -9.85 -14.9 -10.35 -14.85 -10.55 -14.8 -10.7 -14.8 -10.85 -14.75 -11.0 -14.65 -11.1 -14.55 -11.2 -14.45 -11.3 -14.35 -11.4 -14.25 -11.45 -14.15 -11.5 -14.05 -11.55 -14.0 -11.55 -13.9 -11.6 -13.8 -11.6 -13.7 -11.6 -13.6 -11.6 -13.5 -11.6 -13.4 -11.6 -13.3 -11.6 -13.25 -11.55 -13.15 -11.55 -13.05 -11.55 -12.95 -11.5 -12.85 -11.45 -12.75 -11.35 -12.65 -11.25 -12.55 -11.15 -12.5 -11.0 -12.4 -11.0 -12.3 -11.05 -12.2 -11.2 -12.1 -11.3 -12.0 -11.4 -11.9 -11.6 -11.85 -11.8 -11.8 -11.95 -11.8 -12.1 -11.75 -12.25 -11.65 -12.35 -11.55 -12.45 -11.45 -12.55 -11.35 -12.6 -11.25 -12.65 -11.15 -12.65 -11.05 -12.7 -11.0 -12.75 -10.9 -12.85 -10.8 -12.95 -10.7 -13.05 -10.6 -13.1 -10.5 -13.15 -10.4 -13.15 -10.3 -13.15 -10.25 -13.2 -10.15 -13.2 -10.05 -13.2 -9.95 -13.2 -9.85 -13.15 -9.75 -13.15 -9.65 -13.1 -9.55 -13.05 -9.5 -13.0 -9.4 -12.9 -9.3 -12.8 -9.2 -12.75 -9.1 -12.55 -9.0 -12.3 -8.95 -12.1 -8.9 -10.75 -8.9 -10.8 -8.85 -10.85 -8.8 -10.95 -8.7 -11.0 -8.6 -11.05 -8.5 -11.05 -8.4 -11.05 -8.3 -11.1 -8.25 -11.1 -8.15 -11.1 -8.05 -11.1 -7.95 -11.05 -7.85 -11.05 -7.75 -11.0 -7.65 -11.0 -7.55 -11.15 -7.45 -11.3 -7.35 -11.45 -7.25 -11.55 -7.15 -11.65 -7.05 -11.75 -7.0 -11.8 -6.9 -12.0 -6.8 -12.1 -6.7 -12.2 -6.6 -12.3 -6.5 -12.3 -6.45 -12.4 -6.4 -12.5 -6.3 -12.55 -6.25 -12.6 -6.25 -12.7 -6.15 -13.0 -5.85 -13.2 -5.7 -13.5 -5.5 -13.65 -5.3 -13.75 -5.2 -13.85 -5.1 -14.05 -5.0 -14.25 -4.95 -14.45 -4.9 -14.6 -4.9 -14.75 -4.8 -14.9 -4.75 -14.95 -4.7 -14.95 -4.75 -15.0 -4.85 -15.0 -4.95 -15.0 -5.05 -15.0 -5.15 -15.0 -5.25 -15.0 -5.3 -15.05 -5.4 -15.05 -5.5 -15.05 -5.6 -15.1 -5.7 -15.15 -5.8 -15.15 -5.9 -15.15 -6.0 -15.15 -6.05 -15.15 -6.15 -15.15 -6.25 -15.15 -6.35 -15.15 -6.45 -15.15 -6.55 -15.15 -6.65 -15.2 -6.75 -15.25 -6.8 -15.25 -6.9 -15.25 -7.0 -15.25 -7.1 -15.25 -7.2 -15.25 -7.3 -15.25 -7.4 -15.25 -7.5 -15.25 -7.55 -15.25 -7.65 -15.25 -7.75 -15.25 -7.85 -15.3 -7.95 -15.3 -8.05 -15.35 -8.15 -15.4 -8.25 -15.4 -8.3 -15.4 -8.4 -15.4 -8.5 -15.4 -8.6 -15.4 -8.7 -15.4 -8.8 -15.4 -8.9 -15.4 -9.0 -15.4 -9.05 -15.4 -9.15 -15.4 -9.25 -15.4 -9.35 -15.4 -9.45 -15.4 -9.55 -15.4 -9.65 -15.4 -9.75 -15.4 -9.8 -15.4 -9.9 -15.4 -10.0 -15.4 -10.1 -15.4 -10.2 -15.4 -10.3 -15.4 -10.4 -15.4 -10.5 -15.4 -10.55 -15.4 -10.65 -15.4 -10.75 -15.4 -10.85 -15.4 -10.95 -15.4 -11.05 -15.4 -11.15 -15.4 -11.25 -15.4 -11.3 -15.4 -11.4 -15.4 -11.5 -15.4 -11.6 -15.4 -11.7 -15.4 -11.8 -15.4 -11.9 -15.4 -12.0 -15.4 -12.05 -15.4 -12.15 -15.4 -12.25 -15.4 -12.35 -15.4 -12.45 -15.4 -12.55 -15.4 -12.65 -15.4 -12.75 -15.4 -12.8 -15.4 -12.9 -15.4 -13.0 -15.4 -13.1 -15.4 -13.2 -15.4 -13.3 -15.4 -13.4 -15.4 -13.5 -15.4 -13.55 -15.4 -13.65 -15.4 -13.75 -15.4 -13.85 -15.4 -13.95 -15.4 -14.05 -15.4 -14.15 -15.4 -14.25 -15.4 -14.3 -15.4 -14.4 -15.45 -14.5 -15.45 -14.6 -15.5 -14.7 -15.5 -14.8 -15.5 -14.9 -15.5 -15.0 -15.5 -15.05 -15.5 -15.15 -15.5 -15.25 -15.5 -15.35 -15.5 -15.45 -15.5 -15.55 -15.5 -15.65 -15.5 -15.75 -15.5 -15.8 -15.5 -15.9 -15.5 -16.0 -15.5 -16.1 -15.5 -16.2 -15.5 -16.3 -15.5 -16.4 -15.5 -16.5 -15.5 -16.55 -15.5 -16.65 -15.5 -16.75 -15.5 -16.85 -15.5 -16.95 -15.5 -17.05 -15.5 -17.15 -15.5 -17.25 -15.55 -17.3 -15.55 -17.4 -15.6 -17.5 -15.65 -17.6 -15.65 -17.7 -15.65 -17.8 -15.65 -17.9 -15.65 -18.0 -15.65 -18.05 -15.65 -18.15 -15.7 -18.25 -15.7 -18.35 -15.75 -18.45 -15.75 -18.55 -15.75 -18.65 -15.75 -18.75 -15.75 -18.8 -15.75 -18.9 -15.8 -19.0 -15.8 -19.1 -15.8 -19.2 -15.85 -19.3 -15.9 -19.4 -15.9 -19.5 -15.9 -19.55 -15.8 -19.65 -15.75 -19.75 -15.65 -19.85 -15.55 -19.95 -15.55 -20.05 -15.45 -20.15 -15.4 -20.25 -15.3 -20.3 -15.25 -20.4 -15.15 -20.5 -15.05 -20.6 -15.0 -20.7 -14.9 -20.8 -14.9 -20.9 -14.85 -21.0 -14.75 -21.05 -14.65 -21.15 -14.6 -21.25 -14.55 -21.35 -14.4 -21.45 -14.25 -21.55 -14.1 -21.65 -14.0 -21.75 -13.9 -21.8 -13.85 -21.9 -13.8 -22.0 -13.75 -22.1 -13.75 -22.2 -13.7 -22.25 -9.2 -22.25 -9.05 -22.2 -8.85 -22.15 -8.2 -22.1 -7.95 -22.05 -7.75 -22.0 -5.2 -22.0 -5.05 -21.95 -4.85 -21.9 0.5 -21.9 0.7 -21.95 0.85 -22.0 3.15 -22.0 3.35 -22.05 3.5 -22.05 3.65 -22.15 3.95 -22.2 4.1 -22.25 8.0 -22.25 8.2 -22.3 8.4 -22.35 9.75 -22.4 9.95 -22.45 10.1 -22.5 13.75 -22.5 13.8 -22.4 13.9 -22.3 14.0 -22.25 14.1 -22.15 14.25 -22.05 14.35 -21.95 14.55 -21.85 14.8 -21.8 14.8 -21.7 14.8 -21.6 14.85 -21.5 14.85 -21.4 14.9 -21.3 14.95 -21.25 15.0 -21.15 15.1 -21.05 15.2 -20.95 15.25 -20.85 15.45 -20.75 15.7 -20.7 15.9 -20.65 16.45 -20.6 16.7 -20.55 16.9 -20.5 17.0 -20.5 17.05 -20.45 17.05 -20.4 17.1 -20.3 17.1 -20.2 17.1 -20.1 17.15 -20.0 17.15 -19.9 17.15 -19.8 17.15 -19.75 17.15 -19.65 17.15 -19.55 17.15 -19.45 17.15 -19.35 17.15 -19.25 17.15 -19.15 17.15 -19.05 17.15 -19.0 17.15 -18.9 17.15 -18.8 17.15 -18.7 17.15 -18.6 17.15 -18.5 17.15 -18.4 17.15 -18.3 17.15 -18.25 17.15 -18.15 17.15 -18.05 17.15 -17.95 17.15 -17.85 17.15 -17.75 17.15 -17.65 17.15 -17.55 17.15 -17.5 17.15 -17.4 17.15 -17.3 17.15 -17.2 17.15 -17.1 17.15 -17.0 17.15 -16.9 17.15 -16.8 17.15 -16.75 17.15 -16.65 17.15 -16.55 17.15 -16.45 17.15 -16.35 17.15 -16.25 17.15 -16.15 17.15 -16.05 17.15 -16.0 17.15 -15.9 17.15 -15.8 17.15 -15.7 17.15 -15.6 17.15 -15.5 17.15 -15.4 17.15 -15.3 17.15 -15.25 17.15 -15.15 17.15 -15.05 17.15 -14.95 17.15 -14.85 17.15 -14.75 17.15 -14.65 17.15 -14.55 17.15 -14.5 17.15 -14.4 17.15 -14.3 17.15 -14.2 17.15 -14.1 17.15 -14.0 17.15 -13.9 17.15 -13.8 17.15 -13.75 17.15 -13.65 17.15 -13.55 17.15 -13.45 17.15 -13.35 17.2 -13.25 17.2 -13.15 17.25 -13.05 17.25 -13.0 17.3 -12.9 17.3 -12.8 17.3 -12.7 17.35 -12.6 17.35 -12.5 17.4 -12.4 17.4 -12.3 17.4 -12.25 17.4 -12.15 17.4 -12.05 17.4 -11.95 17.4 -11.85 17.45 -11.75 17.45 -11.65 17.5 -11.55 17.5 -11.5 17.55 -11.4 17.55 -11.3 17.55 -11.2 17.55 -11.1 17.55 -11.0 17.55 -10.9 17.55 -10.8 17.55 -10.75 17.55 -10.65 17.55 -10.55 17.55 -10.45 17.55 -10.35 17.55 -10.25 17.55 -10.15 17.6 -10.05 17.6 -10.0 17.65 -9.9 17.65 -9.8 17.65 -9.7 17.65 -9.6 17.65 -9.5 17.65 -9.4 17.65 -9.3 17.65 -9.25 17.65 -9.15 17.65 -9.05 17.65 -8.95 17.65 -8.85 17.65 -8.75 17.65 -8.65 17.65 -8.55 17.65 -8.5 17.65 -8.4 17.65 -8.3 17.65 -8.2 17.65 -8.1 17.65 -8.0 17.65 -7.9 17.65 -7.8 17.65 -7.75 17.65 -7.65 17.65 -7.55 17.65 -7.45 17.65 -7.35 17.65 -7.25 17.65 -7.15 17.65 -7.05 17.65 -7.0 17.65 -6.9 17.65 -6.8 17.65 -6.7 17.65 -6.6 17.65 -6.5 17.65 -6.4 17.65 -6.3 17.65 -6.25 17.65 -6.15 17.65 -6.05 17.65 -5.95 17.65 -5.85 17.65 -5.75 17.65 -5.65 17.65 -5.55 17.65 -5.5 17.65 -5.4 17.65 -5.3 17.65 -5.2 17.65 -5.1 17.65 -5.0 17.65 -4.9 17.65 -4.8 17.65 -4.75 17.65 -4.65 17.65 -4.55 17.65 -4.45 17.65 -4.35 17.65 -4.25 17.65 -4.15 17.65 -4.05 17.65 -4.0 17.65 -3.9 17.65 -3.8 17.65 -3.7 17.65 -3.6 17.65 -3.5 17.65 -3.4 17.65 -3.3 17.65 -3.25 17.65 -3.15 17.65 -3.05 17.65 -2.95 17.65 -2.85 17.65 -2.75 17.65 -2.65 17.65 -2.55 17.65 -2.5 17.65 -2.4 17.65 -2.3 17.65 -2.2 17.65 -2.1 17.65 -2.0 17.65 -1.9 17.65 -1.8 17.65 -1.75 17.65 -1.65 17.65 -1.55 17.65 -1.45 17.65 -1.35 17.65 -1.25 17.65 -1.15 17.65 -1.05 17.65 -1.0 17.65 -0.9 17.65 -0.8 17.65 -0.7 17.65 -0.6 17.65 -0.5 17.65 -0.4 17.65 -0.3 17.65 -0.25 17.65 -0.15 17.65 -0.05 17.65 0.05 17.65 0.15 17.65 0.25 17.65 0.35 17.65 0.45 17.65 0.5 17.65 0.6 17.65 0.7 17.65 0.8 17.65 0.9 17.65 1.0 17.65 1.1 17.65 1.2 17.65 1.25 17.65 1.35 17.65 1.45 17.65 1.55 17.65 1.65 17.65 1.75 17.65 1.85 17.65 1.95 17.65 2.0 17.65 2.1 17.65 2.2 17.65 2.3 17.65 2.4 17.65 2.5 17.65 2.6 17.65 2.7 17.65 2.75 17.65 2.85 17.65 2.95 17.65 3.05 17.65 3.15 17.65 3.25 17.65 3.35 17.65 3.45 17.65 3.5 17.65 3.6 17.65 3.7 17.65 3.8 17.65 3.9 17.65 4.0 17.65 4.1 17.65 4.2 17.65 4.25 17.65 4.35 17.65 4.45 17.65 4.55 17.65 4.65 17.65 4.75 17.65 4.85 17.65 4.95 17.65 5.0 17.65 5.1 17.65 5.2 17.65 5.3 17.65 5.4 17.65 5.5 17.65 5.6 17.65 5.7 17.65 5.75 17.65 5.85 17.65 5.95 17.65 6.05 17.65 6.15 17.65 6.25 17.65 6.35 17.65 6.45 17.65 6.5 17.65 6.6 17.65 6.7 17.65 6.8 17.65 6.9 17.65 7.0 17.65 7.1 17.65 7.2 17.65 7.25 17.65 7.35 17.65 7.45 17.65 7.55 17.65 7.65 17.65 7.75 17.65 7.85 17.65 7.95 17.65 8.0 17.65 8.1 17.65 8.2 17.65 8.3 17.65 8.4 17.6 8.5 17.6 8.6 17.6 8.7 17.55 8.75 17.55 8.85 17.55 8.95 17.55 9.05 17.55 9.15 17.55 9.25 17.55 9.35 17.55 9.45 17.55 9.5 17.55 9.6 17.55 9.7 17.55 9.8 17.55 9.9 17.55 10.0 17.55 10.1 17.55 10.2 17.55 10.25 17.55 10.35 17.5 10.45 17.5 10.55 17.45 10.65 17.45 10.75 17.4 10.85 17.4 10.95 17.4 11.0 17.35 11.1 17.35 11.2 17.3 11.3 17.3 11.4 17.3 11.5 17.3 11.6 17.3 11.7 17.3 11.75 17.3 11.85 17.3 11.95 17.3 12.05 17.3 12.15 17.3 12.25 17.3 12.35 17.3 12.45 17.3 12.5 17.25 12.6 17.25 12.7 17.2 12.8 17.2 12.9 17.15 13.0 17.15 13.1 17.15 13.2 17.15 13.25 17.1 13.35 17.1 13.45 17.05 13.55 17.05 13.65 17.05 13.75 17.05 13.85 17.05 13.95 17.05 14.0 17.05 14.1 17.05 14.2 17.05 14.3 17.05 14.4 17.05 14.5 17.05 14.6 17.05 14.7 17.05 14.75 17.05 14.85 17.05 14.95 17.05 15.05 17.05 15.15 17.05 15.25 17.05 15.35 17.05 15.45 17.05 15.5 17.05 15.6 17.05 15.7 17.05 15.8 17.05 15.9 17.05 16.0 17.05 16.1 17.05 16.2 17.05 16.25 17.05 16.35 17.05 16.45 17.05 16.55 17.05 16.65 17.05 16.75 17.05 16.85 17.05 16.95 17.05 17.0 17.05 17.1 17.05 17.2 17.05 17.3 17.05 17.4 17.05 17.5 17.05 17.6 17.05 17.7 17.05 17.75 17.05 17.85 17.05 17.95 17.05 18.05 17.05 18.15 17.05 18.25 17.05 18.35 17.05 18.45 17.05 18.5 17.05 18.6 17.05 18.7 17.05 18.8 17.05 18.9 17.05 19.0 17.05 19.1 17.05 19.2 17.05 19.25 17.05 19.35 17.05 19.45 17.05 19.55 17.05 19.65 17.05 19.75 17.05 19.85 17.05 19.95 17.05 20.0 17.05 20.1 17.05 20.2 17.05 20.3 17.05 20.4 17.05 20.5 17.05 20.6 17.05 20.7 17.05 20.75 17.05 20.85 17.05 20.95 17.05 21.05 17.05 21.15 17.05 21.25 17.05 21.35 17.1 21.45 17.1 21.5 17.15 21.6 17.2 21.7 17.2 21.8 17.25 21.9 17.3 22.0 17.3 22.1 17.25 22.2 17.25 22.25 17.2 22.35 17.2 22.45 17.15 22.55 17.15 22.65 17.15 22.75 17.15 22.85 17.15 22.95 17.15 23.0 17.1 23.1 17.1 23.2 17.05 23.3 17.05 23.4 17.05 23.5 17.05 23.6 17.05 23.7 17.05 23.75 17.05 23.85 17.05 23.95 17.05 24.05 17.1 24.15 17.1 24.25 17.15 24.35 17.2 24.45" fill="#6e8697" fill-rule="evenodd" stroke="none"/>
    <path d="M-18.25 24.1 L-18.25 24.15 -18.25 24.25 -18.25 24.35 -18.3 24.45 -18.3 24.5 -18.35 24.6 -18.4 24.7 -18.4 24.8 -18.5 24.9 -18.55 25.0 -18.65 25.1 -18.8 25.2 -18.9 25.25 -19.0 25.25 -19.15 25.3 -19.35 25.35 -19.5 25.35 -19.7 25.3 -19.95 25.25 -20.15 25.15 -20.25 25.05 -20.3 24.95 -20.4 24.85 -20.5 24.75 -20.5 24.7 -20.55 24.6 -20.65 24.55 -20.75 24.45 -20.8 24.35 -20.9 24.25 -21.0 24.2 -21.0 24.1 -21.05 24.0 -21.05 23.9 -21.1 23.8 -21.1 23.7 -21.1 23.6 -21.1 23.5 -21.1 23.45 -21.1 23.35 -21.1 23.25 -21.1 23.15 -21.1 23.05 -21.1 22.95 -21.1 22.85 -21.1 22.75 -21.1 22.7 -21.1 22.6 -21.1 22.5 -21.1 22.4 -21.1 22.3 -21.1 22.2 -21.1 22.1 -21.1 22.0 -21.1 21.95 -21.1 21.85 -21.1 21.75 -21.1 21.65 -21.1 21.55 -21.1 21.45 -21.15 21.35 -21.15 21.25 -21.2 21.2 -21.2 21.1 -21.2 21.0 -21.2 20.9 -21.2 20.8 -21.2 20.7 -21.2 20.6 -21.2 20.5 -21.2 20.45 -21.2 20.35 -21.2 20.25 -21.2 20.15 -21.2 20.05 -21.2 19.95 -21.2 19.85 -21.2 19.75 -21.2 19.7 -21.2 19.6 -21.2 19.5 -21.2 19.4 -21.2 19.3 -21.2 19.2 -21.2 19.1 -21.2 19.0 -21.2 18.95 -21.2 18.85 -21.2 18.75 -21.2 18.65 -21.2 18.55 -21.2 18.45 -21.2 18.35 -21.2 18.25 -21.2 18.2 -21.2 18.1 -21.2 18.0 -21.2 17.9 -21.2 17.8 -21.2 17.7 -21.2 17.6 -21.2 17.5 -21.2 17.45 -21.2 17.35 -21.2 17.25 -21.2 17.15 -21.2 17.05 -21.2 16.95 -21.2 16.85 -21.2 16.75 -21.2 16.7 -21.2 16.6 -21.2 16.5 -21.15 16.4 -21.15 16.3 -21.1 16.2 -21.1 16.1 -21.1 16.0 -21.1 15.95 -21.1 15.85 -21.1 15.75 -21.1 15.65 -21.1 15.55 -21.1 15.45 -21.1 15.35 -21.1 15.25 -21.05 15.2 -21.05 15.1 -21.05 15.0 -21.0 14.9 -20.95 14.8 -20.95 14.7 -20.95 14.6 -20.95 14.5 -20.95 14.45 -20.95 14.35 -20.95 14.25 -20.9 14.15 -20.9 14.05 -20.85 13.95 -20.85 13.85 -20.8 13.75 -20.8 13.7 -20.8 13.6 -20.75 13.5 -20.7 13.4 -20.7 13.3 -20.7 13.2 -20.7 13.1 -20.7 13.0 -20.65 12.95 -20.65 12.85 -20.65 12.75 -20.6 12.65 -20.6 12.55 -20.6 12.45 -20.6 12.35 -20.6 12.25 -20.6 12.2 -20.6 12.1 -20.6 12.0 -20.55 11.9 -20.55 11.8 -20.5 11.7 -20.5 11.6 -20.45 11.5 -20.4 11.45 -20.4 11.35 -20.4 11.25 -20.35 11.15 -20.35 11.05 -20.35 10.95 -20.35 10.85 -20.35 10.75 -20.35 10.7 -20.35 10.6 -20.35 10.5 -20.35 10.4 -20.35 10.3 -20.3 10.2 -20.3 10.1 -20.25 10.0 -20.25 9.95 -20.2 9.85 -20.2 9.75 -20.2 9.65 -20.2 9.55 -20.2 9.45 -20.2 9.35 -20.15 9.25 -20.15 9.2 -20.15 9.1 -20.1 9.0 -20.1 8.9 -20.1 8.8 -20.05 8.7 -20.05 8.6 -20.0 8.5 -20.0 8.45 -19.95 8.35 -19.95 8.25 -19.95 8.15 -19.95 8.05 -19.95 7.95 -19.95 7.85 -19.9 7.75 -19.9 7.7 -19.9 7.6 -19.85 7.5 -19.85 7.4 -19.85 7.3 -19.85 7.2 -19.85 7.1 -19.8 7.0 -19.8 6.95 -19.8 6.85 -19.75 6.75 -19.7 6.65 -19.65 6.55 -19.65 6.45 -19.6 6.35 -19.6 6.25 -19.6 6.2 -19.6 6.1 -19.6 6.0 -19.6 5.9 -19.6 5.8 -19.6 5.7 -19.55 5.6 -19.55 5.5 -19.5 5.45 -19.5 5.35 -19.45 5.25 -19.45 5.15 -19.45 5.05 -19.45 4.95 -19.4 4.85 -19.4 4.75 -19.35 4.7 -19.35 4.6 -19.35 4.5 -19.35 4.4 -19.35 4.3 -19.35 4.2 -19.3 4.1 -19.3 4.0 -19.25 3.95 -19.25 3.85 -19.2 3.75 -19.2 3.65 -19.2 3.55 -19.2 3.45 -19.2 3.35 -19.2 3.25 -19.2 3.2 -19.2 3.1 -19.2 3.0 -19.2 2.9 -19.2 2.8 -19.2 2.7 -19.15 2.6 -19.15 2.5 -19.1 2.45 -19.1 2.35 -19.1 2.25 -19.1 2.15 -19.1 2.05 -19.1 1.95 -19.1 1.85 -19.1 1.75 -19.1 1.7 -19.1 1.6 -19.1 1.5 -19.1 1.4 -19.1 1.3 -19.1 1.2 -19.1 1.1 -19.1 1.0 -19.1 0.95 -19.1 0.85 -19.1 0.75 -19.1 0.65 -19.1 0.55 -19.1 0.45 -19.1 0.35 -19.1 0.25 -19.1 0.2 -19.1 0.1 -19.1 0.0 -19.1 -0.1 -19.1 -0.2 -19.1 -0.3 -19.1 -0.4 -19.1 -0.5 -19.1 -0.55 -19.1 -0.65 -19.1 -0.75 -19.1 -0.85 -19.1 -0.95 -19.1 -1.05 -19.1 -1.15 -19.1 -1.25 -19.1 -1.3 -19.1 -1.4 -19.1 -1.5 -19.1 -1.6 -19.1 -1.7 -19.1 -1.8 -19.1 -1.9 -19.1 -2.0 -19.1 -2.05 -19.1 -2.15 -19.1 -2.25 -19.1 -2.35 -19.1 -2.45 -19.1 -2.55 -19.1 -2.65 -19.1 -2.75 -19.1 -2.8 -19.1 -2.9 -19.15 -3.0 -19.15 -3.1 -19.2 -3.2 -19.2 -3.3 -19.2 -3.4 -19.2 -3.5 -19.25 -3.55 -19.25 -3.65 -19.3 -3.75 -19.3 -3.85 -19.35 -3.95 -19.35 -4.05 -19.35 -4.15 -19.4 -4.25 -19.4 -4.3 -19.45 -4.4 -19.45 -4.5 -19.45 -4.6 -19.45 -4.7 -19.45 -4.8 -19.45 -4.9 -19.45 -5.0 -19.45 -5.05 -19.45 -5.15 -19.45 -5.25 -19.45 -5.35 -19.45 -5.45 -19.45 -5.55 -19.45 -5.65 -19.45 -5.75 -19.45 -5.8 -19.45 -5.9 -19.45 -6.0 -19.45 -6.1 -19.45 -6.2 -19.45 -6.3 -19.45 -6.4 -19.45 -6.5 -19.45 -6.55 -19.45 -6.65 -19.45 -6.75 -19.45 -6.85 -19.45 -6.95 -19.45 -7.05 -19.45 -7.15 -19.4 -7.25 -19.4 -7.3 -19.4 -7.4 -19.35 -7.5 -19.35 -7.6 -19.35 -7.7 -19.35 -7.8 -19.35 -7.9 -19.35 -8.0 -19.35 -8.05 -19.35 -8.15 -19.35 -8.25 -19.35 -8.35 -19.35 -8.45 -19.35 -8.55 -19.35 -8.65 -19.35 -8.75 -19.35 -8.8 -19.35 -8.9 -19.35 -9.0 -19.35 -9.1 -19.35 -9.2 -19.35 -9.3 -19.35 -9.4 -19.35 -9.5 -19.3 -9.55 -19.3 -9.65 -19.3 -9.75 -19.25 -9.85 -19.2 -9.95 -19.2 -10.05 -19.2 -10.15 -19.2 -10.25 -19.2 -10.3 -19.2 -10.4 -19.2 -10.5 -19.2 -10.6 -19.2 -10.7 -19.2 -10.8 -19.2 -10.9 -19.2 -11.0 -19.2 -11.05 -19.2 -11.15 -19.2 -11.25 -19.2 -11.35 -19.2 -11.45 -19.2 -11.55 -19.2 -11.65 -19.2 -11.75 -19.2 -11.8 -19.2 -11.9 -19.2 -12.0 -19.2 -12.1 -19.2 -12.2 -19.2 -12.3 -19.2 -12.4 -19.2 -12.5 -19.2 -12.55 -19.2 -12.65 -19.2 -12.75 -19.2 -12.85 -19.2 -12.95 -19.2 -13.05 -19.2 -13.15 -19.2 -13.25 -19.2 -13.3 -19.2 -13.4 -19.2 -13.5 -19.2 -13.6 -19.2 -13.7 -19.2 -13.8 -19.2 -13.9 -19.2 -14.0 -19.2 -14.05 -19.2 -14.15 -19.2 -14.25 -19.2 -14.35 -19.2 -14.45 -19.2 -14.55 -19.2 -14.65 -19.15 -14.75 -19.15 -14.8 -19.15 -14.9 -19.1 -15.0 -19.1 -15.1 -19.1 -15.2 -19.1 -15.3 -19.1 -15.4 -19.1 -15.5 -19.1 -15.55 -19.1 -15.65 -19.1 -15.75 -19.1 -15.85 -19.1 -15.95 -19.1 -16.05 -19.1 -16.15 -19.1 -16.25 -19.1 -16.3 -19.1 -16.4 -19.1 -16.5 -19.1 -16.6 -19.1 -16.7 -19.1 -16.8 -19.1 -16.9 -19.1 -17.0 -19.1 -17.05 -19.1 -17.15 -19.1 -17.25 -19.1 -17.35 -19.1 -17.45 -19.1 -17.55 -19.1 -17.65 -19.1 -17.75 -19.1 -17.8 -19.1 -17.9 -19.1 -18.0 -19.1 -18.1 -19.1 -18.2 -19.1 -18.3 -19.1 -18.4 -19.1 -18.5 -19.1 -18.55 -19.1 -18.65 -19.1 -18.75 -19.1 -18.85 -19.1 -18.95 -19.1 -19.05 -19.1 -19.15 -19.1 -19.25 -19.1 -19.3 -19.1 -19.4 -19.1 -19.5 -19.1 -19.6 -19.1 -19.7 -19.1 -19.8 -19.05 -19.9 -19.05 -20.0 -19.0 -20.05 -19.0 -20.15 -18.95 -20.25 -18.95 -20.35 -18.95 -20.45 -18.95 -20.55 -18.95 -20.65 -18.95 -20.75 -18.95 -20.8 -18.95 -20.9 -18.95 -21.0 -18.95 -21.1 -18.95 -21.2 -18.95 -21.3 -18.95 -21.4 -18.95 -21.5 -18.95 -21.55 -18.95 -21.65 -18.95 -21.75 -18.95 -21.85 -18.95 -21.95 -18.95 -22.05 -18.95 -22.15 -18.95 -22.25 -18.95 -22.3 -18.95 -22.4 -18.95 -22.5 -18.95 -22.6 -18.95 -22.7 -18.95 -22.8 -18.95 -22.9 -18.95 -23.0 -18.95 -23.05 -18.95 -23.15 -18.95 -23.25 -18.95 -23.35 -18.95 -23.45 -18.95 -23.55 -18.95 -23.65 -18.9 -23.75 -18.9 -23.8 -18.9 -23.9 -18.85 -24.0 -18.85 -24.1 -18.85 -24.2 -18.85 -24.3 -18.85 -24.35 -19.0 -24.45 -19.05 -24.55 -19.15 -24.65 -19.25 -24.75 -19.3 -24.8 -19.35 -24.9 -19.4 -25.0 -19.4 -25.1 -19.45 -25.2 -19.45 -25.3 -19.45 -25.4 -19.45 -25.5 -19.4 -25.55 -19.4 -25.65 -19.4 -25.75 -19.35 -25.85 -19.3 -25.95 -19.2 -26.05 -19.1 -26.15 -19.0 -26.25 -18.85 -26.3 -18.7 -26.4 -18.55 -26.4 -18.35 -26.45 -10.3 -26.5 -10.05 -26.55 -9.85 -26.55 -9.85 -26.6 0.4 -26.6 0.6 -26.55 0.8 -26.5 2.0 -26.45 2.2 -26.4 2.35 -26.4 3.4 -26.35 3.6 -26.3 3.8 -26.25 11.8 -26.25 12.05 -26.3 12.25 -26.35 19.5 -26.35 19.7 -26.3 19.9 -26.25 20.1 -26.15 20.2 -26.05 20.3 -26.0 20.35 -25.9 20.45 -25.8 20.5 -25.7 20.5 -25.6 20.55 -25.5 20.55 -25.4 20.6 -25.3 20.6 -25.25 20.6 -25.15 20.6 -25.05 20.55 -24.95 20.55 -24.85 20.5 -24.75 20.5 -24.65 20.45 -24.55 20.35 -24.5 20.3 -24.4 20.2 -24.3 20.1 -24.2 20.05 -24.15 20.0 -24.1 19.95 -24.0 19.9 -23.95 19.9 -23.9 19.95 -23.8 20.0 -23.7 20.05 -23.6 20.1 -23.5 20.15 -23.4 20.2 -23.3 20.2 -23.25 20.25 -23.15 20.25 -23.05 20.25 -22.95 20.25 -22.85 20.25 -22.75 20.25 -22.65 20.25 -22.55 20.25 -22.5 20.25 -22.4 20.25 -22.3 20.25 -22.2 20.25 -22.1 20.25 -22.0 20.25 -21.9 20.25 -21.8 20.25 -21.75 20.25 -21.65 20.25 -21.55 20.25 -21.45 20.25 -21.35 20.25 -21.25 20.2 -21.15 20.2 -21.05 20.15 -21.0 20.1 -20.9 20.1 -20.8 20.05 -20.7 20.05 -20.6 20.05 -20.5 20.1 -20.4 20.1 -20.3 20.1 -20.25 20.15 -20.15 20.2 -20.05 20.2 -19.95 20.25 -19.85 20.25 -19.75 20.25 -19.65 20.25 -19.55 20.25 -19.5 20.25 -19.4 20.25 -19.3 20.25 -19.2 20.25 -19.1 20.25 -19.0 20.25 -18.9 20.25 -18.8 20.25 -18.75 20.25 -18.65 20.25 -18.55 20.25 -18.45 20.25 -18.35 20.25 -18.25 20.25 -18.15 20.25 -18.05 20.25 -18.0 20.25 -17.9 20.25 -17.8 20.25 -17.7 20.25 -17.6 20.25 -17.5 20.25 -17.4 20.25 -17.3 20.25 -17.25 20.25 -17.15 20.25 -17.05 20.25 -16.95 20.3 -16.85 20.3 -16.75 20.35 -16.65 20.35 -16.55 20.35 -16.5 20.35 -16.4 20.35 -16.3 20.35 -16.2 20.35 -16.1 20.35 -16.0 20.4 -15.9 20.45 -15.8 20.45 -15.75 20.5 -15.65 20.5 -15.55 20.5 -15.45 20.5 -15.35 20.5 -15.25 20.5 -15.15 20.5 -15.05 20.5 -15.0 20.5 -14.9 20.5 -14.8 20.5 -14.7 20.5 -14.6 20.5 -14.5 20.55 -14.4 20.55 -14.3 20.6 -14.25 20.6 -14.15 20.6 -14.05 20.6 -13.95 20.6 -13.85 20.6 -13.75 20.6 -13.65 20.6 -13.55 20.6 -13.5 20.6 -13.4 20.6 -13.3 20.6 -13.2 20.6 -13.1 20.6 -13.0 20.6 -12.9 20.6 -12.8 20.6 -12.75 20.6 -12.65 20.6 -12.55 20.6 -12.45 20.6 -12.35 20.6 -12.25 20.55 -12.15 20.55 -12.05 20.5 -12.0 20.5 -11.9 20.5 -11.8 20.5 -11.7 20.5 -11.6 20.5 -11.5 20.5 -11.4 20.5 -11.3 20.5 -11.25 20.5 -11.15 20.5 -11.05 20.5 -10.95 20.5 -10.85 20.5 -10.75 20.5 -10.65 20.5 -10.55 20.5 -10.5 20.5 -10.4 20.5 -10.3 20.5 -10.2 20.5 -10.1 20.5 -10.0 20.5 -9.9 20.5 -9.8 20.5 -9.75 20.5 -9.65 20.5 -9.55 20.5 -9.45 20.5 -9.35 20.5 -9.25 20.5 -9.15 20.5 -9.05 20.5 -9.0 20.5 -8.9 20.5 -8.8 20.5 -8.7 20.5 -8.6 20.5 -8.5 20.5 -8.4 20.5 -8.3 20.5 -8.25 20.5 -8.15 20.5 -8.05 20.5 -7.95 20.5 -7.85 20.5 -7.75 20.5 -7.65 20.5 -7.55 20.5 -7.5 20.5 -7.4 20.5 -7.3 20.5 -7.2 20.5 -7.1 20.5 -7.0 20.5 -6.9 20.5 -6.8 20.5 -6.75 20.5 -6.65 20.5 -6.55 20.5 -6.45 20.5 -6.35 20.5 -6.25 20.5 -6.15 20.5 -6.05 20.5 -6.0 20.5 -5.9 20.5 -5.8 20.5 -5.7 20.5 -5.6 20.5 -5.5 20.5 -5.4 20.5 -5.3 20.5 -5.25 20.5 -5.15 20.45 -5.05 20.45 -4.95 20.4 -4.85 20.35 -4.75 20.35 -4.65 20.35 -4.55 20.35 -4.5 20.35 -4.4 20.35 -4.3 20.35 -4.2 20.35 -4.1 20.35 -4.0 20.35 -3.9 20.35 -3.8 20.35 -3.75 20.35 -3.65 20.35 -3.55 20.35 -3.45 20.35 -3.35 20.35 -3.25 20.35 -3.2 20.5 -3.2 20.7 -3.15 20.9 -3.1 21.1 -3.0 21.2 -2.9 21.3 -2.8 21.35 -2.75 21.45 -2.65 21.5 -2.55 21.5 -2.45 21.55 -2.35 21.55 -2.25 21.6 -2.15 21.6 -2.05 21.6 -2.0 21.6 -1.9 21.65 -1.8 21.7 -1.7 21.7 -1.6 21.7 -1.5 21.75 -1.4 21.75 -1.3 21.75 -1.25 21.75 -1.15 21.75 -1.05 21.75 -0.95 21.75 -0.85 21.75 -0.75 21.75 -0.65 21.75 -0.55 21.75 -0.5 21.8 -0.4 21.8 -0.3 21.85 -0.2 21.85 -0.1 21.85 0.0 21.85 0.1 21.85 0.2 21.85 0.25 21.85 0.35 21.85 0.45 21.9 0.55 21.95 0.65 21.95 0.75 21.95 0.85 22.0 0.95 22.0 1.0 22.0 1.1 22.0 1.2 22.0 1.3 22.0 1.4 22.0 1.5 22.0 1.6 22.0 1.7 22.0 1.75 22.0 1.85 22.0 1.95 22.0 2.05 22.0 2.15 22.0 2.25 22.0 2.35 22.0 2.45 22.0 2.5 22.0 2.6 22.0 2.7 22.0 2.8 22.0 2.9 22.0 3.0 22.0 3.1 22.0 3.2 22.0 3.25 22.0 3.35 22.0 3.45 22.0 3.55 22.0 3.65 22.0 3.75 22.0 3.85 22.0 3.95 22.0 4.0 22.0 4.1 22.0 4.2 21.95 4.3 21.95 4.4 21.95 4.5 21.9 4.6 21.85 4.7 21.85 4.75 21.85 4.85 21.85 4.95 21.85 5.05 21.85 5.15 21.85 5.25 21.85 5.35 21.85 5.45 21.85 5.5 21.85 5.6 21.85 5.7 21.85 5.8 21.85 5.9 21.85 6.0 21.85 6.1 21.85 6.2 21.85 6.25 21.85 6.35 21.85 6.45 21.8 6.55 21.8 6.65 21.75 6.75 21.75 6.85 21.75 6.95 21.75 7.0 21.75 7.1 21.75 7.2 21.75 7.3 21.75 7.4 21.75 7.5 21.75 7.6 21.75 7.7 21.75 7.75 21.75 7.85 21.7 7.95 21.7 8.05 21.65 8.15 21.6 8.25 21.6 8.35 21.6 8.45 21.6 8.5 21.6 8.6 21.6 8.7 21.6 8.8 21.6 8.9 21.6 9.0 21.6 9.1 21.6 9.2 21.6 9.25 21.6 9.35 21.6 9.45 21.6 9.55 21.6 9.65 21.6 9.75 21.55 9.85 21.55 9.95 21.5 10.0 21.5 10.1 21.5 10.2 21.5 10.3 21.5 10.4 21.5 10.5 21.5 10.6 21.5 10.7 21.5 10.75 21.5 10.85 21.5 10.95 21.5 11.05 21.5 11.15 21.5 11.25 21.5 11.35 21.45 11.45 21.45 11.5 21.4 11.6 21.35 11.7 21.35 11.8 21.35 11.9 21.35 12.0 21.35 12.1 21.35 12.2 21.35 12.25 21.35 12.35 21.35 12.45 21.35 12.55 21.35 12.65 21.35 12.75 21.3 12.85 21.3 12.95 21.25 13.0 21.25 13.1 21.25 13.2 21.25 13.3 21.25 13.4 21.25 13.5 21.2 13.6 21.2 13.7 21.15 13.75 21.1 13.85 21.1 13.95 21.1 14.5 21.1 14.6 21.1 14.7 21.1 15.05 21.1 15.15 21.1 15.25 21.1 15.35 21.1 15.45 21.1 15.5 21.1 15.6 21.1 15.7 21.1 15.8 21.1 15.9 21.1 16.0 21.1 16.1 21.1 16.2 21.1 16.25 21.1 16.35 21.1 16.45 21.1 16.55 21.1 16.65 21.1 16.75 21.1 16.85 21.1 16.95 21.1 17.0 21.1 17.1 21.1 17.2 21.1 17.3 21.1 17.4 21.1 17.5 21.1 17.6 21.1 17.7 21.1 17.75 21.1 17.85 21.1 17.95 21.1 18.05 21.1 18.15 21.1 18.25 21.1 18.35 21.1 18.45 21.1 18.5 21.1 18.6 21.1 18.7 21.1 18.8 21.1 18.9 21.1 19.0 21.1 19.1 21.1 19.2 21.1 19.25 21.1 19.35 21.1 19.45 21.1 19.55 21.1 19.65 21.1 19.75 21.1 19.85 21.05 19.95 21.05 20.0 21.0 20.1 20.95 20.2 20.95 20.3 20.9 20.4 20.85 20.5 20.8 20.6 20.8 20.7 20.75 20.75 20.7 20.85 20.7 20.95 20.65 21.05 20.6 21.15 20.55 21.25 20.5 21.35 20.5 21.45 20.45 21.5 20.4 21.6 20.35 21.7 20.35 21.8 20.25 21.9 20.25 22.0 20.2 22.1 20.2 22.2 20.15 22.25 20.1 22.35 20.1 22.45 20.0 22.55 19.95 22.65 19.95 22.75 19.95 22.85 19.9 22.95 19.85 23.0 19.85 23.1 19.8 23.2 19.75 23.3 19.75 23.4 19.7 23.5 19.65 23.6 19.6 23.7 19.5 23.75 19.45 23.85 19.35 23.95 19.3 24.0 19.25 24.1 19.25 24.2 19.2 24.25 19.1 24.35 19.1 24.45 19.0 24.55 18.95 24.65 18.85 24.75 18.7 24.85 18.6 24.9 18.5 24.95 18.35 24.95 18.15 25.0 17.95 24.95 17.7 24.9 17.5 24.8 17.45 24.7 17.35 24.6 17.25 24.5 17.2 24.45 17.15 24.35 17.1 24.25 17.1 24.15 17.05 24.05 17.05 23.95 17.05 23.85 17.05 23.75 17.05 23.7 17.05 23.6 17.05 23.5 17.05 23.4 17.05 23.3 17.1 23.2 17.1 23.1 17.15 23.0 17.15 22.95 17.15 22.85 17.15 22.75 17.15 22.65 17.15 22.55 17.2 22.45 17.2 22.35 17.25 22.25 17.25 22.2 17.3 22.1 17.3 22.0 17.25 21.9 17.2 21.8 17.2 21.7 17.15 21.6 17.1 21.5 17.1 21.45 17.05 21.35 17.05 21.25 17.05 21.15 17.05 21.05 17.05 20.95 17.05 20.85 17.05 20.75 17.05 20.7 17.05 20.6 17.05 20.5 17.05 20.4 17.05 20.3 17.05 20.2 17.05 20.1 17.05 20.0 17.05 19.95 17.05 19.85 17.05 19.75 17.05 19.65 17.05 19.55 17.05 19.45 17.05 19.35 17.05 19.25 17.05 19.2 17.05 19.1 17.05 19.0 17.05 18.9 17.05 18.8 17.05 18.7 17.05 18.6 17.05 18.5 17.05 18.45 17.05 18.35 17.05 18.25 17.05 18.15 17.05 18.05 17.05 17.95 17.05 17.85 17.05 17.75 17.05 17.7 17.05 17.6 17.05 17.5 17.05 17.4 17.05 17.3 17.05 17.2 17.05 17.1 17.05 17.0 17.05 16.95 17.05 16.85 17.05 16.75 17.05 16.65 17.05 16.55 17.05 16.45 17.05 16.35 17.05 16.25 17.05 16.2 17.05 16.1 17.05 16.0 17.05 15.9 17.05 15.8 17.05 15.7 17.05 15.6 17.05 15.5 17.05 15.45 17.05 15.35 17.05 15.25 17.05 15.15 17.05 15.05 17.05 14.95 17.05 14.85 17.05 14.75 17.05 14.7 17.05 14.6 17.05 14.5 17.05 14.4 17.05 14.3 17.05 14.2 17.05 14.1 17.05 14.0 17.05 13.95 17.05 13.85 17.05 13.75 17.05 13.65 17.05 13.55 17.1 13.45 17.1 13.35 17.15 13.25 17.15 13.2 17.15 13.1 17.15 13.0 17.2 12.9 17.2 12.8 17.25 12.7 17.25 12.6 17.3 12.5 17.3 12.45 17.3 12.35 17.3 12.25 17.3 12.15 17.3 12.05 17.3 11.95 17.3 11.85 17.3 11.75 17.3 11.7 17.3 11.6 17.3 11.5 17.3 11.4 17.3 11.3 17.35 11.2 17.35 11.1 17.4 11.0 17.4 10.95 17.4 10.85 17.45 10.75 17.45 10.65 17.5 10.55 17.5 10.45 17.55 10.35 17.55 10.25 17.55 10.2 17.55 10.1 17.55 10.0 17.55 9.9 17.55 9.8 17.55 9.7 17.55 9.6 17.55 9.5 17.55 9.45 17.55 9.35 17.55 9.25 17.55 9.15 17.55 9.05 17.55 8.95 17.55 8.85 17.55 8.75 17.6 8.7 17.6 8.6 17.6 8.5 17.65 8.4 17.65 8.3 17.65 8.2 17.65 8.1 17.65 8.0 17.65 7.95 17.65 7.85 17.65 7.75 17.65 7.65 17.65 7.55 17.65 7.45 17.65 7.35 17.65 7.25 17.65 7.2 17.65 7.1 17.65 7.0 17.65 6.9 17.65 6.8 17.65 6.7 17.65 6.6 17.65 6.5 17.65 6.45 17.65 6.35 17.65 6.25 17.65 6.15 17.65 6.05 17.65 5.95 17.65 5.85 17.65 5.75 17.65 5.7 17.65 5.6 17.65 5.5 17.65 5.4 17.65 5.3 17.65 5.2 17.65 5.1 17.65 5.0 17.65 4.95 17.65 4.85 17.65 4.75 17.65 4.65 17.65 4.55 17.65 4.45 17.65 4.35 17.65 4.25 17.65 4.2 17.65 4.1 17.65 4.0 17.65 3.9 17.65 3.8 17.65 3.7 17.65 3.6 17.65 3.5 17.65 3.45 17.65 3.35 17.65 3.25 17.65 3.15 17.65 3.05 17.65 2.95 17.65 2.85 17.65 2.75 17.65 2.7 17.65 2.6 17.65 2.5 17.65 2.4 17.65 2.3 17.65 2.2 17.65 2.1 17.65 2.0 17.65 1.95 17.65 1.85 17.65 1.75 17.65 1.65 17.65 1.55 17.65 1.45 17.65 1.35 17.65 1.25 17.65 1.2 17.65 1.1 17.65 1.0 17.65 0.9 17.65 0.8 17.65 0.7 17.65 0.6 17.65 0.5 17.65 0.45 17.65 0.35 17.65 0.25 17.65 0.15 17.65 0.05 17.65 -0.05 17.65 -0.15 17.65 -0.25 17.65 -0.3 17.65 -0.4 17.65 -0.5 17.65 -0.6 17.65 -0.7 17.65 -0.8 17.65 -0.9 17.65 -1.0 17.65 -1.05 17.65 -1.15 17.65 -1.25 17.65 -1.35 17.65 -1.45 17.65 -1.55 17.65 -1.65 17.65 -1.75 17.65 -1.8 17.65 -1.9 17.65 -2.0 17.65 -2.1 17.65 -2.2 17.65 -2.3 17.65 -2.4 17.65 -2.5 17.65 -2.55 17.65 -2.65 17.65 -2.75 17.65 -2.85 17.65 -2.95 17.65 -3.05 17.65 -3.15 17.65 -3.25 17.65 -3.3 17.65 -3.4 17.65 -3.5 17.65 -3.6 17.65 -3.7 17.65 -3.8 17.65 -3.9 17.65 -4.0 17.65 -4.05 17.65 -4.15 17.65 -4.25 17.65 -4.35 17.65 -4.45 17.65 -4.55 17.65 -4.65 17.65 -4.75 17.65 -4.8 17.65 -4.9 17.65 -5.0 17.65 -5.1 17.65 -5.2 17.65 -5.3 17.65 -5.4 17.65 -5.5 17.65 -5.55 17.65 -5.65 17.65 -5.75 17.65 -5.85 17.65 -5.95 17.65 -6.05 17.65 -6.15 17.65 -6.25 17.65 -6.3 17.65 -6.4 17.65 -6.5 17.65 -6.6 17.65 -6.7 17.65 -6.8 17.65 -6.9 17.65 -7.0 17.65 -7.05 17.65 -7.15 17.65 -7.25 17.65 -7.35 17.65 -7.45 17.65 -7.55 17.65 -7.65 17.65 -7.75 17.65 -7.8 17.65 -7.9 17.65 -8.0 17.65 -8.1 17.65 -8.2 17.65 -8.3 17.65 -8.4 17.65 -8.5 17.65 -8.55 17.65 -8.65 17.65 -8.75 17.65 -8.85 17.65 -8.95 17.65 -9.05 17.65 -9.15 17.65 -9.25 17.65 -9.3 17.65 -9.4 17.65 -9.5 17.65 -9.6 17.65 -9.7 17.65 -9.8 17.65 -9.9 17.6 -10.0 17.6 -10.05 17.55 -10.15 17.55 -10.25 17.55 -10.35 17.55 -10.45 17.55 -10.55 17.55 -10.65 17.55 -10.75 17.55 -10.8 17.55 -10.9 17.55 -11.0 17.55 -11.1 17.55 -11.2 17.55 -11.3 17.55 -11.4 17.5 -11.5 17.5 -11.55 17.45 -11.65 17.45 -11.75 17.4 -11.85 17.4 -11.95 17.4 -12.05 17.4 -12.15 17.4 -12.25 17.4 -12.3 17.4 -12.4 17.35 -12.5 17.35 -12.6 17.3 -12.7 17.3 -12.8 17.3 -12.9 17.25 -13.0 17.25 -13.05 17.2 -13.15 17.2 -13.25 17.15 -13.35 17.15 -13.45 17.15 -13.55 17.15 -13.65 17.15 -13.75 17.15 -13.8 17.15 -13.9 17.15 -14.0 17.15 -14.1 17.15 -14.2 17.15 -14.3 17.15 -14.4 17.15 -14.5 17.15 -14.55 17.15 -14.65 17.15 -14.75 17.15 -14.85 17.15 -14.95 17.15 -15.05 17.15 -15.15 17.15 -15.25 17.15 -15.3 17.15 -15.4 17.15 -15.5 17.15 -15.6 17.15 -15.7 17.15 -15.8 17.15 -15.9 17.15 -16.0 17.15 -16.05 17.15 -16.15 17.15 -16.25 17.15 -16.35 17.15 -16.45 17.15 -16.55 17.15 -16.65 17.15 -16.75 17.15 -16.8 17.15 -16.9 17.15 -17.0 17.15 -17.1 17.15 -17.2 17.15 -17.3 17.15 -17.4 17.15 -17.5 17.15 -17.55 17.15 -17.65 17.15 -17.75 17.15 -17.85 17.15 -17.95 17.15 -18.05 17.15 -18.15 17.15 -18.25 17.15 -18.3 17.15 -18.4 17.15 -18.5 17.15 -18.6 17.15 -18.7 17.15 -18.8 17.15 -18.9 17.15 -19.0 17.15 -19.05 17.15 -19.15 17.15 -19.25 17.15 -19.35 17.15 -19.45 17.15 -19.55 17.15 -19.65 17.15 -19.75 17.15 -19.8 17.15 -19.9 17.15 -20.0 17.1 -20.1 17.1 -20.2 17.1 -20.3 17.05 -20.4 17.05 -20.45 17.0 -20.5 16.9 -20.5 16.7 -20.55 16.45 -20.6 15.9 -20.65 15.7 -20.7 15.45 -20.75 15.25 -20.85 15.2 -20.95 15.1 -21.05 15.0 -21.15 14.95 -21.25 14.9 -21.3 14.85 -21.4 14.85 -21.5 14.8 -21.6 14.8 -21.7 14.8 -21.8 14.55 -21.85 14.35 -21.95 14.25 -22.05 14.1 -22.15 14.0 -22.25 13.9 -22.3 13.8 -22.4 13.75 -22.5 10.1 -22.5 9.95 -22.45 9.75 -22.4 8.4 -22.35 8.2 -22.3 8.0 -22.25 4.1 -22.25 3.95 -22.2 3.65 -22.15 3.5 -22.05 3.35 -22.05 3.15 -22.0 0.85 -22.0 0.7 -21.95 0.5 -21.9 -4.85 -21.9 -5.05 -21.95 -5.2 -22.0 -7.75 -22.0 -7.95 -22.05 -8.2 -22.1 -8.85 -22.15 -9.05 -22.2 -9.2 -22.25 -13.7 -22.25 -13.75 -22.2 -13.75 -22.1 -13.8 -22.0 -13.85 -21.9 -13.9 -21.8 -14.0 -21.75 -14.1 -21.65 -14.25 -21.55 -14.4 -21.45 -14.55 -21.35 -14.6 -21.25 -14.65 -21.15 -14.75 -21.05 -14.85 -21.0 -14.9 -20.9 -14.9 -20.8 -15.0 -20.7 -15.05 -20.6 -15.15 -20.5 -15.25 -20.4 -15.3 -20.3 -15.4 -20.25 -15.45 -20.15 -15.55 -20.05 -15.55 -19.95 -15.65 -19.85 -15.75 -19.75 -15.8 -19.65 -15.9 -19.55 -15.9 -19.5 -15.9 -19.4 -15.85 -19.3 -15.8 -19.2 -15.8 -19.1 -15.8 -19.0 -15.75 -18.9 -15.75 -18.8 -15.75 -18.75 -15.75 -18.65 -15.75 -18.55 -15.75 -18.45 -15.7 -18.35 -15.7 -18.25 -15.65 -18.15 -15.65 -18.05 -15.65 -18.0 -15.65 -17.9 -15.65 -17.8 -15.65 -17.7 -15.65 -17.6 -15.6 -17.5 -15.55 -17.4 -15.55 -17.3 -15.5 -17.25 -15.5 -17.15 -15.5 -17.05 -15.5 -16.95 -15.5 -16.85 -15.5 -16.75 -15.5 -16.65 -15.5 -16.55 -15.5 -16.5 -15.5 -16.4 -15.5 -16.3 -15.5 -16.2 -15.5 -16.1 -15.5 -16.0 -15.5 -15.9 -15.5 -15.8 -15.5 -15.75 -15.5 -15.65 -15.5 -15.55 -15.5 -15.45 -15.5 -15.35 -15.5 -15.25 -15.5 -15.15 -15.5 -15.05 -15.5 -15.0 -15.5 -14.9 -15.5 -14.8 -15.5 -14.7 -15.45 -14.6 -15.45 -14.5 -15.4 -14.4 -15.4 -14.3 -15.4 -14.25 -15.4 -14.15 -15.4 -14.05 -15.4 -13.95 -15.4 -13.85 -15.4 -13.75 -15.4 -13.65 -15.4 -13.55 -15.4 -13.5 -15.4 -13.4 -15.4 -13.3 -15.4 -13.2 -15.4 -13.1 -15.4 -13.0 -15.4 -12.9 -15.4 -12.8 -15.4 -12.75 -15.4 -12.65 -15.4 -12.55 -15.4 -12.45 -15.4 -12.35 -15.4 -12.25 -15.4 -12.15 -15.4 -12.05 -15.4 -12.0 -15.4 -11.9 -15.4 -11.8 -15.4 -11.7 -15.4 -11.6 -15.4 -11.5 -15.4 -11.4 -15.4 -11.3 -15.4 -11.25 -15.4 -11.15 -15.4 -11.05 -15.4 -10.95 -15.4 -10.85 -15.4 -10.75 -15.4 -10.65 -15.4 -10.55 -15.4 -10.5 -15.4 -10.4 -15.4 -10.3 -15.4 -10.2 -15.4 -10.1 -15.4 -10.0 -15.4 -9.9 -15.4 -9.8 -15.4 -9.75 -15.4 -9.65 -15.4 -9.55 -15.4 -9.45 -15.4 -9.35 -15.4 -9.25 -15.4 -9.15 -15.4 -9.05 -15.4 -9.0 -15.4 -8.9 -15.4 -8.8 -15.4 -8.7 -15.4 -8.6 -15.4 -8.5 -15.4 -8.4 -15.4 -8.3 -15.4 -8.25 -15.35 -8.15 -15.3 -8.05 -15.3 -7.95 -15.25 -7.85 -15.25 -7.75 -15.25 -7.65 -15.25 -7.55 -15.25 -7.5 -15.25 -7.4 -15.25 -7.3 -15.25 -7.2 -15.25 -7.1 -15.25 -7.0 -15.25 -6.9 -15.25 -6.8 -15.2 -6.75 -15.15 -6.65 -15.15 -6.55 -15.15 -6.45 -15.15 -6.35 -15.15 -6.25 -15.15 -6.15 -15.15 -6.05 -15.15 -6.0 -15.15 -5.9 -15.15 -5.8 -15.1 -5.7 -15.05 -5.6 -15.05 -5.5 -15.05 -5.4 -15.0 -5.3 -15.0 -5.25 -15.0 -5.15 -15.0 -5.05 -15.0 -4.95 -15.0 -4.85 -14.95 -4.75 -14.95 -4.7 -15.0 -4.65 -15.1 -4.55 -15.2 -4.45 -15.25 -4.35 -15.3 -4.25 -15.3 -4.15 -15.3 -4.05 -15.35 -4.0 -15.35 -3.9 -15.35 -3.8 -15.35 -3.7 -15.3 -3.6 -15.3 -3.5 -15.25 -3.4 -15.25 -3.3 -15.15 -3.25 -15.05 -3.15 -15.0 -3.05 -14.9 -2.95 -14.9 -2.9 -14.9 -2.8 -14.9 -2.7 -14.9 -2.65 -14.9 -2.5 -14.95 -2.4 -15.0 -2.3 -15.0 -2.2 -15.05 -2.1 -15.05 -1.9 -15.05 -1.8 -15.05 -1.75 -15.05 -1.65 -15.05 -1.55 -15.05 -1.45 -15.05 -1.35 -15.05 -1.3 -15.15 -1.25 -15.2 -1.15 -15.25 -1.05 -15.25 -0.95 -15.3 -0.85 -15.3 -0.75 -15.3 -0.65 -15.3 -0.55 -15.3 -0.5 -15.25 -0.4 -15.25 -0.3 -15.2 -0.2 -15.1 -0.1 -15.0 0.0 -14.9 0.1 -14.75 0.2 -14.75 0.3 -14.75 0.4 -14.75 0.5 -14.75 0.6 -14.75 0.7 -14.75 0.75 -14.75 0.85 -14.75 0.95 -14.75 1.05 -14.75 1.15 -14.75 1.25 -14.75 1.35 -14.75 1.45 -14.75 1.5 -14.75 1.6 -14.75 1.7 -14.75 1.8 -14.75 1.9 -14.75 2.0 -14.75 2.1 -14.75 2.2 -14.75 2.25 -14.75 2.35 -14.75 2.45 -14.75 2.55 -14.8 2.65 -14.8 2.75 -14.8 2.85 -14.85 2.95 -14.9 3.0 -14.9 3.1 -14.9 3.2 -14.9 3.3 -14.9 3.4 -14.9 3.5 -14.9 3.6 -14.9 3.7 -14.9 3.75 -14.95 3.85 -15.0 3.95 -15.0 4.05 -15.0 4.15 -15.0 4.25 -15.0 4.35 -15.0 4.45 -15.0 4.5 -15.0 4.6 -15.05 4.7 -15.05 4.8 -15.1 4.9 -15.15 5.0 -15.15 5.1 -15.15 5.2 -15.15 5.25 -15.15 5.35 -15.15 5.45 -15.15 5.55 -15.15 5.65 -15.15 5.75 -15.15 5.85 -15.15 5.95 -15.15 6.0 -15.15 6.1 -15.2 6.2 -15.25 6.3 -15.25 6.4 -15.25 6.5 -15.3 6.6 -15.3 6.7 -15.35 6.75 -15.4 6.85 -15.4 6.95 -15.4 7.05 -15.4 7.15 -15.4 7.25 -15.4 7.35 -15.4 7.45 -15.4 7.5 -15.4 7.6 -15.4 7.7 -15.45 7.8 -15.45 7.9 -15.5 8.0 -15.5 8.1 -15.5 8.2 -15.5 8.25 -15.55 8.35 -15.55 8.45 -15.6 8.55 -15.65 8.65 -15.7 8.75 -15.75 8.85 -15.75 8.95 -15.75 9.0 -15.75 9.1 -15.75 9.2 -15.75 9.3 -15.75 9.4 -15.75 9.5 -15.8 9.6 -15.8 9.7 -15.85 9.75 -15.9 9.85 -15.9 9.95 -15.9 10.05 -15.9 10.15 -15.9 10.25 -15.9 10.35 -15.9 10.45 -15.9 10.5 -15.95 10.6 -16.0 10.7 -16.0 10.8 -16.0 10.9 -16.0 11.0 -16.0 11.1 -16.0 11.2 -16.0 11.25 -16.0 11.35 -16.0 11.45 -16.05 11.55 -16.05 11.65 -16.05 11.75 -16.1 11.85 -16.15 11.95 -16.15 12.0 -16.15 12.1 -16.15 12.2 -16.2 12.3 -16.2 12.4 -16.25 12.5 -16.25 12.6 -16.25 12.7 -16.25 12.75 -16.25 12.85 -16.25 12.95 -16.25 13.05 -16.25 13.15 -16.25 13.25 -16.25 13.35 -16.25 13.45 -16.25 13.5 -16.25 13.6 -16.25 13.7 -16.25 13.8 -16.25 13.9 -16.25 14.0 -16.25 14.1 -16.25 14.2 -16.25 14.25 -16.25 14.35 -16.25 14.45 -16.25 14.55 -16.25 14.65 -16.25 14.75 -16.25 14.85 -16.25 14.95 -16.25 15.0 -16.25 15.1 -16.25 15.2 -16.25 15.3 -16.25 15.4 -16.25 15.5 -16.25 15.6 -16.25 15.7 -16.25 15.75 -16.25 15.85 -16.25 15.95 -16.25 16.05 -16.25 16.15 -16.25 16.25 -16.25 16.35 -16.25 16.45 -16.25 16.5 -16.25 16.6 -16.25 16.7 -16.25 16.8 -16.25 16.9 -16.25 17.0 -16.25 17.1 -16.25 17.2 -16.25 17.25 -16.25 17.35 -16.25 17.45 -16.25 17.55 -16.25 17.65 -16.25 17.75 -16.25 17.85 -16.25 17.95 -16.25 18.0 -16.25 18.1 -16.25 18.2 -16.25 18.3 -16.25 18.4 -16.25 18.5 -16.3 18.6 -16.3 18.7 -16.35 18.75 -16.4 18.85 -16.4 18.95 -16.4 19.05 -16.4 19.15 -16.4 19.25 -16.4 19.35 -16.4 19.45 -16.4 19.5 -16.4 19.6 -16.4 19.7 -16.4 19.8 -16.4 19.9 -16.4 20.0 -16.4 20.1 -16.4 20.2 -16.4 20.25 -16.4 20.35 -16.4 20.45 -16.45 20.55 -16.45 20.65 -16.5 20.75 -16.5 20.85 -16.5 20.95 -16.5 21.0 -16.5 21.1 -16.5 21.2 -16.5 21.3 -16.5 21.4 -16.5 21.5 -16.5 21.6 -16.5 21.7 -16.5 21.75 -16.5 21.85 -16.55 21.95 -16.55 22.05 -16.6 22.15 -16.65 22.25 -16.7 22.35 -16.75 22.45 -16.85 22.5 -16.95 22.6 -17.1 22.7 -17.25 22.75 -17.4 22.8 -17.6 22.85 -17.8 22.8 -18.05 22.75 -18.15 22.7 -18.15 22.75 -18.15 22.85 -18.15 22.95 -18.15 23.0 -18.15 23.1 -18.2 23.2 -18.25 23.3 -18.25 23.4 -18.25 23.5 -18.25 23.6 -18.25 23.7 -18.25 23.75 -18.25 23.85 -18.25 23.95 -18.25 24.05 -18.25 24.1 M-17.25 -4.8 L-17.25 -4.7 -17.2 -4.6 -17.2 -4.65 -17.2 -4.75 -17.25 -4.8 M-9.95 7.45 L-10.05 7.35 -10.05 7.25 -10.1 7.2 -10.15 7.1 -10.2 7.0 -10.25 6.9 -10.3 6.8 -10.3 6.7 -10.3 6.6 -10.35 6.5 -10.35 6.45 -10.35 6.35 -10.4 6.25 -10.4 6.15 -10.45 6.05 -10.5 5.95 -10.5 5.2 -10.5 4.5 -10.5 3.95 -10.5 3.5 -10.5 3.2 -10.5 3.1 -10.5 3.0 -10.55 2.95 -10.55 2.85 -10.55 2.75 -10.55 2.65 -10.55 2.55 -10.55 2.45 -10.6 2.35 -10.6 2.25 -10.65 2.2 -10.7 2.15 -10.65 2.05 -10.6 1.95 -10.6 1.85 -10.55 1.75 -10.55 1.7 -10.5 1.6 -10.5 1.5 -10.45 1.4 -10.4 1.3 -10.35 1.2 -10.35 1.1 -10.3 1.0 -10.25 0.95 -10.25 0.85 -10.15 0.75 -10.15 0.65 -10.1 0.55 -10.05 0.45 -10.0 0.35 -9.95 0.25 -9.9 0.2 -9.85 0.1 -9.75 0.0 -9.7 -0.1 -9.65 -0.2 -9.55 -0.3 -9.5 -0.4 -9.45 -0.5 -9.4 -0.55 -9.3 -0.65 -9.25 -0.75 -9.15 -0.85 -9.0 -1.05 -8.9 -1.15 -8.8 -1.25 -8.7 -1.3 -8.65 -1.4 -8.55 -1.5 -8.5 -1.6 -8.45 -1.7 -8.35 -1.8 -8.25 -1.9 -8.15 -2.0 -8.05 -2.05 -7.95 -2.15 -7.85 -2.25 -7.75 -2.35 -7.7 -2.45 -7.6 -2.55 -7.55 -2.6 -7.5 -2.65 -7.4 -2.75 -7.3 -2.8 -7.25 -2.9 -7.15 -3.0 -7.05 -3.1 -6.95 -3.2 -6.8 -3.3 -6.65 -3.4 -6.55 -3.5 -6.35 -3.55 -6.15 -3.65 -5.95 -3.75 -5.75 -3.85 -5.65 -3.9 -5.55 -4.0 -5.5 -4.05 -5.4 -4.15 -5.25 -4.25 -5.2 -4.25 -5.05 -4.35 -4.8 -4.4 -4.6 -4.4 -4.6 -4.45 -4.5 -4.45 -3.95 -4.45 -3.85 -4.5 -3.7 -4.55 -3.55 -4.55 -3.35 -4.6 -2.85 -4.65 -2.7 -4.65 -2.5 -4.7 -2.2 -4.75 -1.95 -4.8 -1.75 -4.85 -0.95 -4.9 -0.8 -4.9 -0.6 -4.95 -0.6 -5.05 -0.55 -5.15 -0.55 -5.25 -0.5 -5.3 -0.5 -5.4 -0.45 -5.5 -0.4 -5.6 -0.4 -5.7 -0.35 -5.8 -0.35 -5.9 -0.3 -6.0 -0.3 -6.05 -0.3 -6.15 -0.25 -6.25 -0.2 -6.35 -0.15 -6.45 -0.1 -6.55 -0.05 -6.65 -0.05 -6.75 0.0 -6.8 0.05 -6.9 0.1 -7.0 0.15 -7.1 0.2 -7.2 0.25 -7.3 0.25 -7.4 0.35 -7.5 0.35 -7.55 0.35 -7.65 0.4 -7.75 0.45 -7.85 0.45 -7.95 0.5 -8.05 0.5 -8.15 0.55 -8.25 0.55 -8.3 0.55 -8.4 0.55 -8.5 0.6 -8.6 0.6 -8.7 0.65 -8.8 0.7 -8.9 0.75 -9.0 0.85 -9.05 0.95 -9.15 1.0 -9.25 1.2 -9.35 1.45 -9.4 1.65 -9.45 4.3 -9.5 4.45 -9.5 4.7 -9.55 4.9 -9.6 5.05 -9.65 5.2 -9.65 5.4 -9.65 5.4 -9.7 9.75 -9.7 9.95 -9.65 10.15 -9.6 10.35 -9.5 10.5 -9.4 10.6 -9.3 10.7 -9.25 10.75 -9.15 10.85 -9.05 10.9 -8.95 10.95 -8.85 10.95 -8.75 11.0 -8.65 11.1 -8.55 11.1 -8.5 11.15 -8.4 11.2 -8.3 11.2 -8.2 11.25 -8.1 11.25 -8.0 11.25 -7.9 11.35 -7.8 11.35 -7.75 11.4 -7.65 11.45 -7.55 11.45 -7.45 11.5 -7.35 11.5 -7.25 11.5 -7.15 11.5 -7.05 11.55 -7.0 11.6 -6.9 11.6 -6.8 11.6 -6.7 11.6 -6.6 11.6 -6.5 11.6 -6.4 11.6 -6.3 11.6 -6.25 11.6 -6.15 11.6 -6.05 11.6 -5.95 11.6 -5.85 11.6 -5.75 11.6 -5.65 11.6 -5.55 11.6 -5.5 11.6 -5.4 11.6 -5.3 11.6 -5.2 11.6 -5.1 11.6 -5.0 11.6 -4.9 11.6 -4.8 11.6 -4.75 11.6 -4.65 11.6 -4.55 11.6 -4.45 11.6 -4.35 11.6 -4.25 11.6 -4.15 11.6 -4.05 11.6 -4.0 11.6 -3.9 11.6 -3.8 11.6 -3.7 11.6 -3.6 11.6 -3.5 11.6 -3.4 11.6 -3.3 11.6 -3.25 11.6 -3.15 11.6 -3.05 11.6 -2.95 11.6 -2.85 11.6 -2.75 11.6 -2.65 11.6 -2.55 11.6 -2.5 11.6 -2.4 11.6 -2.3 11.6 -2.2 11.6 -2.1 11.6 -2.0 11.6 -1.9 11.6 -1.8 11.6 -1.75 11.6 -1.65 11.6 -1.55 11.6 -1.45 11.6 -1.35 11.6 -1.25 11.6 -1.15 11.6 -1.05 11.6 -1.0 11.6 -0.9 11.6 -0.8 11.6 -0.7 11.6 -0.6 11.6 -0.5 11.6 -0.4 11.6 -0.3 11.6 -0.25 11.6 -0.15 11.6 -0.05 11.55 0.05 11.55 0.15 11.5 0.25 11.5 0.35 11.5 0.45 11.5 0.5 11.5 0.6 11.5 0.7 11.5 0.8 11.45 0.9 11.45 1.0 11.45 1.1 11.4 1.2 11.35 1.25 11.25 1.35 11.2 1.45 11.1 1.55 11.0 1.65 10.85 1.75 10.7 1.85 10.6 1.9 10.5 1.95 10.35 1.95 10.1 2.0 9.9 2.1 9.75 2.2 9.6 2.2 9.4 2.25 9.25 2.25 9.1 2.3 8.9 2.35 8.75 2.45 8.6 2.45 8.4 2.5 8.25 2.6 8.25 2.65 8.15 2.55 8.0 2.45 7.85 2.4 7.65 2.35 7.65 2.4 7.45 2.4 7.35 2.45 7.25 2.45 7.2 2.5 7.1 2.6 7.0 2.7 7.0 2.75 6.95 2.7 6.75 2.7 6.75 2.75 6.75 2.85 6.75 2.95 6.75 3.05 6.75 3.15 6.75 3.25 6.7 3.35 6.7 4.0 6.7 4.75 6.7 5.5 6.7 6.0 6.7 6.1 6.6 6.2 6.55 6.25 6.5 6.35 6.5 6.45 6.45 6.55 6.4 6.65 6.35 6.75 6.35 6.85 6.35 6.95 6.35 7.0 6.3 7.1 6.25 7.2 6.25 7.3 6.2 7.4 6.15 7.5 6.1 7.6 6.1 7.7 6.1 7.75 6.05 7.85 6.0 7.95 6.0 8.05 5.95 8.15 5.9 8.25 5.8 8.35 5.75 8.45 5.7 8.5 5.65 8.6 5.6 8.7 5.5 8.8 5.4 8.9 5.3 9.0 5.25 9.1 5.25 9.2 5.2 9.25 5.15 9.35 5.1 9.45 5.0 9.55 4.9 9.65 4.8 9.75 4.75 9.85 4.75 9.95 4.7 10.0 4.65 10.1 4.6 10.15 4.4 10.1 4.25 10.1 4.25 10.15 4.05 10.15 3.95 10.2 3.85 10.2 3.75 10.25 3.7 10.35 3.6 10.45 3.45 10.55 3.3 10.6 3.15 10.65 3.0 10.75 2.95 10.85 2.75 10.95 2.6 11.05 2.45 11.1 2.35 11.15 2.2 11.25 2.0 11.35 1.85 11.45 1.7 11.55 1.55 11.6 1.45 11.7 1.35 11.75 1.25 11.85 1.1 11.95 1.0 11.95 0.8 12.0 0.7 12.0 0.55 12.1 0.45 12.2 0.2 12.25 0.1 12.25 -0.05 12.35 -0.2 12.4 -0.4 12.45 -0.55 12.55 -0.65 12.55 -0.75 12.6 -0.95 12.7 -1.05 12.65 -4.5 12.65 -4.65 12.55 -4.8 12.5 -5.0 12.45 -5.3 12.4 -5.4 12.4 -5.55 12.35 -5.65 12.25 -5.8 12.2 -5.95 12.1 -6.1 12.0 -6.25 11.9 -6.35 11.8 -6.5 11.7 -6.65 11.65 -6.8 11.65 -6.8 11.6 -6.9 11.5 -7.0 11.4 -7.1 11.3 -7.15 11.2 -7.2 11.1 -7.25 11.0 -7.3 10.95 -7.4 10.85 -7.45 10.75 -7.5 10.65 -7.55 10.55 -7.6 10.45 -7.65 10.35 -7.7 10.25 -7.75 10.2 -7.85 10.1 -7.95 10.0 -8.05 9.9 -8.15 9.8 -8.2 9.7 -8.3 9.6 -8.35 9.5 -8.4 9.45 -8.45 9.35 -8.5 9.25 -8.6 9.15 -8.75 9.05 -8.8 8.95 -8.85 8.85 -8.9 8.75 -9.0 8.7 -9.15 8.5 -9.35 8.3 -9.55 8.1 -9.65 8.0 -9.8 7.85 -9.85 7.75 -9.9 7.65 -9.9 7.55 -9.95 7.45 M-4.95 -1.1 L-5.1 -1.05 -5.15 -1.0 -5.25 -0.95 -5.3 -0.85 -5.4 -0.75 -5.55 -0.65 -5.75 -0.55 -5.8 -0.5 -5.9 -0.4 -5.9 -0.3 -6.0 -0.2 -6.05 -0.1 -6.15 0.0 -6.25 0.05 -6.3 0.15 -6.4 0.25 -6.5 0.35 -6.6 0.45 -6.65 0.5 -6.65 0.55 -6.75 0.65 -6.8 0.75 -6.9 0.85 -6.95 0.95 -7.0 1.0 -7.0 1.1 -7.05 1.2 -7.05 1.3 -7.1 1.4 -7.15 1.5 -7.15 1.6 -7.2 1.7 -7.25 1.8 -7.25 1.95 -7.25 2.05 -7.25 2.1 -7.15 2.2 -7.1 2.3 -7.05 2.4 -7.05 2.5 -7.05 2.55 -6.95 2.5 -6.85 2.45 -6.75 2.45 -6.7 2.45 -6.5 2.4 -6.3 2.45 -6.1 2.5 -5.9 2.6 -5.8 2.7 -5.7 2.75 -5.65 2.85 -5.55 2.95 -5.5 3.05 -5.5 2.95 -5.4 2.85 -5.35 2.75 -5.3 2.7 -5.3 2.6 -5.25 2.5 -5.2 2.4 -5.15 2.3 -5.05 2.2 -5.05 2.1 -5.0 2.0 -4.95 1.95 -4.9 1.85 -4.8 1.75 -4.75 1.65 -4.7 1.55 -4.65 1.45 -4.55 1.35 -4.5 1.25 -4.4 1.2 -4.3 1.1 -4.3 1.0 -4.25 0.9 -4.2 0.8 -4.1 0.7 -4.0 0.6 -3.9 0.5 -3.8 0.45 -3.75 0.35 -3.65 0.25 -3.5 0.15 -3.3 0.05 -3.15 -0.05 -3.0 -0.15 -2.85 -0.25 -2.7 -0.3 -2.55 -0.3 -2.35 -0.3 -2.35 -0.35 -1.1 -0.35 -0.9 -0.3 -0.7 -0.25 -0.55 -0.2 -0.4 -0.15 -0.2 -0.1 0.05 0.0 0.25 0.1 0.35 0.2 0.45 0.25 0.5 0.35 0.6 0.45 0.65 0.55 0.7 0.65 0.7 0.75 0.75 0.85 0.95 0.9 1.1 0.95 1.3 1.0 1.5 1.1 1.6 1.2 1.7 1.25 1.8 1.35 1.95 1.45 2.1 1.55 2.2 1.65 2.45 1.6 2.4 1.5 2.35 1.4 2.35 1.3 2.3 1.2 2.25 1.1 2.2 1.0 2.2 0.95 2.15 0.85 2.1 0.75 2.1 0.65 2.05 0.55 2.05 0.45 2.05 0.35 2.05 0.25 2.05 0.2 2.05 0.1 2.05 0.0 2.05 -0.1 2.05 -0.2 1.95 -0.2 1.9 -0.25 1.85 -0.2 1.65 -0.1 1.45 -0.05 1.25 0.0 1.05 -0.05 0.8 -0.1 0.6 -0.2 0.5 -0.3 0.45 -0.4 0.35 -0.5 0.25 -0.55 0.25 -0.65 0.05 -0.75 -0.15 -0.85 -0.25 -0.95 -0.3 -1.0 -0.45 -1.05 -0.7 -1.1 -0.9 -1.2 -1.15 -1.3 -1.3 -1.35 -1.35 -1.4 -1.6 -1.4 -1.8 -1.45 -2.05 -1.5 -2.25 -1.6 -4.2 -1.6 -4.3 -1.5 -4.4 -1.4 -4.55 -1.3 -4.7 -1.25 -4.85 -1.15 -4.95 -1.1 M5.9 -6.2 L6.1 -6.15 6.3 -6.1 6.5 -6.0 6.6 -5.9 6.7 -5.8 6.75 -5.75 6.85 -5.65 6.9 -5.55 6.95 -5.45 7.0 -5.45 7.2 -5.4 7.3 -5.45 7.3 -5.55 7.3 -5.65 7.3 -5.75 7.3 -5.8 7.3 -5.9 7.3 -6.0 7.3 -6.1 7.3 -6.2 7.3 -6.3 7.3 -6.4 7.25 -6.45 6.25 -6.5 6.05 -6.55 5.8 -6.6 4.85 -6.6 3.9 -6.6 3.7 -6.55 3.5 -6.5 3.25 -6.5 3.05 -6.55 3.0 -6.55 3.0 -6.5 2.95 -6.4 2.95 -6.3 2.95 -6.25 3.3 -6.25 3.55 -6.3 3.75 -6.35 4.75 -6.35 4.95 -6.3 5.15 -6.25 5.35 -6.15 5.5 -6.15 5.5 -6.2 5.9 -6.2 M4.45 -2.85 L4.5 -2.95 4.5 -3.05 4.45 -3.05 4.4 -3.0 4.35 -2.9 4.35 -2.8 4.25 -2.7 4.2 -2.6 4.15 -2.5 4.1 -2.4 4.0 -2.3 3.9 -2.25 3.85 -2.15 3.85 -2.05 3.75 -1.95 3.7 -1.85 3.7 -1.75 3.75 -1.75 3.8 -1.7 3.85 -1.75 3.9 -1.8 3.95 -1.9 3.95 -2.0 4.0 -2.1 4.05 -2.2 4.15 -2.3 4.2 -2.4 4.25 -2.5 4.3 -2.55 4.35 -2.65 4.45 -2.75 4.45 -2.85 M0.2 5.3 L0.25 5.25 0.35 5.15 0.45 5.05 0.5 4.95 0.55 4.85 0.6 4.75 0.65 4.7 0.7 4.6 0.7 4.5 0.75 4.4 0.75 4.3 0.75 4.2 0.75 4.1 0.75 4.0 0.75 3.85 0.75 3.75 0.75 3.65 0.75 3.55 0.7 3.45 0.65 3.35 0.65 3.25 0.6 3.2 0.55 3.1 0.5 3.0 0.4 2.9 0.25 2.8 0.1 2.75 0.05 2.7 0.0 2.65 -0.15 2.55 -0.3 2.5 -0.5 2.45 -0.75 2.45 -0.9 2.45 -1.25 2.4 -2.1 2.35 -2.1 2.4 -2.3 2.4 -2.5 2.45 -2.65 2.55 -2.8 2.6 -2.9 2.7 -3.0 2.75 -3.05 2.85 -3.15 2.95 -3.25 3.05 -3.25 3.15 -3.35 3.25 -3.45 3.35 -3.5 3.45 -3.5 3.5 -3.55 3.6 -3.55 3.8 -3.55 4.1 -3.55 4.25 -3.55 4.35 -3.55 4.55 -3.55 4.75 -3.55 4.85 -3.5 4.95 -3.5 5.0 -3.45 5.1 -3.4 5.2 -3.3 5.3 -3.2 5.4 -3.1 5.5 -3.0 5.6 -2.55 5.7 -2.5 5.7 -2.45 5.8 -2.35 5.9 -2.25 6.0 -2.15 6.1 -1.75 6.15 -1.3 6.15 -1.2 6.1 -1.15 6.1 -1.05 6.0 -0.9 5.95 -0.7 5.85 -0.65 5.85 -0.55 5.8 -0.5 5.75 -0.05 5.75 0.0 5.65 0.05 5.55 0.1 5.45 0.2 5.35 0.2 5.3 M-5.7 4.35 L-5.8 4.45 -5.85 4.55 -5.8 4.65 -5.8 4.75 -5.75 4.85 -5.75 4.95 -5.7 5.0 -5.7 4.95 -5.7 4.85 -5.7 4.75 -5.7 4.65 -5.7 4.55 -5.7 4.45 -5.7 4.35 M-5.35 5.7 L-5.4 5.65 -5.4 5.7 -5.35 5.75 -5.3 5.85 -5.3 5.95 -5.25 6.05 -5.25 6.15 -5.2 6.25 -5.15 6.35 -5.15 6.45 -5.1 6.5 -5.05 6.6 -5.0 6.7 -4.95 6.8 -4.9 6.9 -4.85 7.0 -4.8 7.1 -4.8 7.2 -4.75 7.25 -4.75 7.35 -4.75 7.45 -4.75 7.55 -4.75 7.65 -4.75 7.75 -4.75 7.85 -4.75 7.95 -4.7 8.0 -4.65 8.1 -4.45 8.0 -4.2 7.9 -3.95 7.85 -3.75 7.75 -3.55 7.7 -3.5 7.6 -3.4 7.55 -3.5 7.45 -3.65 7.35 -3.75 7.25 -3.9 7.2 -4.05 7.1 -4.25 7.0 -4.4 6.9 -4.5 6.8 -4.55 6.7 -4.65 6.6 -4.75 6.5 -4.8 6.45 -4.85 6.35 -4.95 6.25 -5.05 6.15 -5.15 6.05 -5.2 5.95 -5.25 5.85 -5.3 5.75 -5.35 5.7" fill="#5e7180" fill-rule="evenodd" stroke="none"/>
    <path d="M-14.75 0.2 L-14.9 0.1 -15.0 0.0 -15.1 -0.1 -15.2 -0.2 -15.25 -0.3 -15.25 -0.4 -15.3 -0.5 -15.3 -0.55 -15.3 -0.65 -15.3 -0.75 -15.3 -0.85 -15.25 -0.95 -15.25 -1.05 -15.2 -1.15 -15.15 -1.25 -15.05 -1.3 -15.05 -1.35 -15.05 -1.45 -15.05 -1.55 -15.05 -1.65 -15.05 -1.75 -15.05 -1.8 -15.05 -1.9 -15.05 -2.1 -15.0 -2.2 -15.0 -2.3 -14.95 -2.4 -14.9 -2.5 -14.8 -2.55 -14.8 -2.65 -14.75 -2.75 -14.75 -2.85 -14.7 -2.85 -14.75 -2.85 -14.9 -2.95 -15.0 -3.05 -15.05 -3.15 -15.15 -3.25 -15.25 -3.3 -15.25 -3.4 -15.3 -3.5 -15.3 -3.6 -15.35 -3.7 -15.35 -3.8 -15.35 -3.9 -15.35 -4.0 -15.3 -4.05 -15.3 -4.15 -15.3 -4.25 -15.25 -4.35 -15.2 -4.45 -15.1 -4.55 -15.0 -4.65 -14.95 -4.7 -14.9 -4.75 -14.75 -4.8 -14.6 -4.9 -14.45 -4.9 -14.25 -4.95 -14.05 -5.0 -13.85 -5.1 -13.75 -5.2 -13.65 -5.3 -13.5 -5.5 -13.2 -5.7 -13.0 -5.85 -12.7 -6.15 -12.6 -6.25 -12.55 -6.25 -12.4 -6.3 -12.3 -6.4 -12.3 -6.45 -12.3 -6.5 -12.2 -6.6 -12.1 -6.7 -12.0 -6.8 -11.8 -6.9 -11.75 -7.0 -11.65 -7.05 -11.55 -7.15 -11.45 -7.25 -11.3 -7.35 -11.15 -7.45 -11.0 -7.55 -11.0 -7.65 -11.05 -7.75 -11.05 -7.85 -11.1 -7.95 -11.1 -8.05 -11.1 -8.15 -11.1 -8.25 -11.05 -8.3 -11.05 -8.4 -11.05 -8.5 -11.0 -8.6 -10.95 -8.7 -10.85 -8.8 -10.8 -8.85 -10.75 -8.9 -12.1 -8.9 -12.3 -8.95 -12.55 -9.0 -12.75 -9.1 -12.8 -9.2 -12.9 -9.3 -13.0 -9.4 -13.05 -9.5 -13.1 -9.55 -13.15 -9.65 -13.15 -9.75 -13.2 -9.85 -13.2 -9.95 -13.2 -10.05 -13.2 -10.15 -13.15 -10.25 -13.15 -10.3 -13.15 -10.4 -13.1 -10.5 -13.05 -10.6 -12.95 -10.7 -12.85 -10.8 -12.75 -10.9 -12.7 -11.0 -12.65 -11.05 -12.65 -11.15 -12.6 -11.25 -12.55 -11.35 -12.45 -11.45 -12.35 -11.55 -12.25 -11.65 -12.1 -11.75 -11.95 -11.8 -11.8 -11.8 -11.6 -11.85 -11.4 -11.9 -11.3 -12.0 -11.2 -12.1 -11.05 -12.2 -11.0 -12.3 -11.0 -12.4 -11.15 -12.5 -11.25 -12.55 -11.35 -12.65 -11.45 -12.75 -11.5 -12.85 -11.55 -12.95 -11.55 -13.05 -11.55 -13.15 -11.6 -13.25 -11.6 -13.3 -11.6 -13.4 -11.6 -13.5 -11.6 -13.6 -11.6 -13.7 -11.6 -13.8 -11.55 -13.9 -11.55 -14.0 -11.5 -14.05 -11.45 -14.15 -11.4 -14.25 -11.3 -14.35 -11.2 -14.45 -11.1 -14.55 -11.0 -14.65 -10.85 -14.75 -10.7 -14.8 -10.55 -14.8 -10.35 -14.85 -9.85 -14.9 -9.7 -14.9 -9.5 -14.95 -9.3 -15.0 -9.05 -15.05 -8.85 -15.05 -8.85 -15.1 -8.05 -15.1 -8.0 -15.2 -8.0 -15.3 -7.9 -15.4 -7.8 -15.5 -7.75 -15.55 -7.65 -15.65 -7.45 -15.75 -7.2 -15.8 -7.05 -15.85 -6.95 -15.9 -6.8 -15.9 -6.6 -15.95 -5.8 -16.0 -5.55 -16.05 -5.7 -16.1 -6.0 -16.15 -6.2 -16.2 -6.45 -16.25 -6.65 -16.35 -6.75 -16.45 -6.8 -16.55 -6.9 -16.65 -7.0 -16.75 -7.0 -16.8 -7.05 -16.9 -7.05 -17.0 -7.1 -17.1 -7.1 -17.2 -7.1 -17.3 -7.1 -17.4 -7.05 -17.5 -7.05 -17.55 -7.05 -17.65 -7.0 -17.75 -6.95 -17.85 -6.85 -17.95 -6.75 -18.05 -6.65 -18.15 -6.5 -18.25 -6.35 -18.3 -6.2 -18.3 -6.0 -18.3 -6.0 -18.35 -5.35 -18.35 -5.15 -18.3 -4.95 -18.25 -3.0 -18.2 -2.8 -18.15 -2.65 -18.15 0.0 -18.1 0.2 -18.05 0.45 -18.0 9.25 -17.95 9.45 -17.9 9.65 -17.85 9.85 -17.75 9.95 -17.65 10.05 -17.55 10.1 -17.5 10.2 -17.4 10.25 -17.3 10.25 -17.2 10.3 -17.1 10.3 -17.0 10.35 -16.9 10.35 -16.8 10.35 -16.75 10.3 -16.65 10.25 -16.55 10.25 -16.45 10.25 -16.4 10.9 -16.35 11.1 -16.3 11.3 -16.25 12.15 -16.2 12.35 -16.15 12.5 -16.15 12.75 -16.1 12.95 -16.05 13.15 -16.0 13.35 -15.9 13.9 -15.85 14.1 -15.8 14.3 -15.75 14.5 -15.65 14.6 -15.55 14.7 -15.5 14.75 -15.4 14.85 -15.3 14.9 -15.2 14.95 -15.1 14.95 -15.0 14.95 -14.9 15.0 -14.8 15.0 -14.75 15.0 -14.65 15.0 -14.55 15.0 -14.45 15.0 -14.35 15.0 -14.25 14.95 -14.15 14.95 -14.05 14.9 -14.0 14.85 -13.9 14.85 -13.8 14.75 -13.7 14.7 -13.6 14.6 -13.5 14.45 -13.4 14.3 -13.3 14.15 -13.25 14.0 -13.15 13.75 -13.05 13.6 -12.95 13.4 -12.85 13.1 -12.75 12.95 -12.65 12.85 -12.6 12.75 -12.55 12.6 -12.55 12.4 -12.5 12.3 -12.4 12.15 -12.3 12.0 -12.25 11.85 -12.15 11.95 -12.1 12.1 -12.05 12.3 -12.0 12.5 -11.9 12.65 -11.8 12.8 -11.75 12.9 -11.65 13.05 -11.55 13.2 -11.45 13.25 -11.35 13.35 -11.25 13.45 -11.15 13.45 -11.05 13.5 -11.0 13.55 -10.9 13.55 -10.8 13.6 -10.7 13.6 -10.6 13.6 -10.55 13.7 -10.55 13.9 -10.5 14.1 -10.4 14.2 -10.3 14.4 -10.25 14.55 -10.15 14.65 -10.05 14.75 -9.95 14.8 -9.85 14.85 -9.75 14.95 -9.65 14.95 -9.55 15.0 -9.5 15.05 -9.4 15.05 -9.3 15.1 -9.2 15.1 -9.1 15.1 -9.0 15.1 -8.9 15.4 -8.85 15.6 -8.8 15.8 -8.75 16.0 -8.65 16.25 -8.55 16.4 -8.5 16.55 -8.4 16.65 -8.3 16.75 -8.2 16.8 -8.1 16.85 -8.0 16.9 -7.9 16.95 -7.8 16.95 -7.75 17.0 -7.65 17.0 -7.55 17.0 -7.45 16.95 -7.35 16.95 -7.25 16.95 -7.15 16.9 -7.05 16.85 -7.0 16.75 -6.9 16.7 -6.8 16.7 -6.7 16.6 -6.6 16.5 -6.5 16.45 -6.4 16.3 -6.3 16.1 -6.25 15.9 -6.15 15.7 -6.05 15.5 -5.95 15.3 -5.85 15.1 -5.8 14.9 -5.75 14.5 -5.7 14.3 -5.6 14.1 -5.55 13.9 -5.5 13.5 -5.5 13.35 -5.45 13.15 -5.4 12.55 -5.4 12.55 -5.35 12.55 -5.25 12.55 -5.2 12.7 -5.15 12.9 -5.1 13.1 -5.0 13.2 -4.9 13.3 -4.8 13.35 -4.75 13.45 -4.65 13.5 -4.55 13.5 -4.45 13.55 -4.35 13.55 -4.25 13.6 -4.15 13.6 -4.05 13.6 -4.0 13.55 -3.9 14.0 -3.85 14.2 -3.8 14.4 -3.75 14.6 -3.65 14.7 -3.55 14.8 -3.5 14.85 -3.4 14.95 -3.3 15.0 -3.2 15.0 -3.1 15.05 -3.0 15.05 -2.9 15.1 -2.8 15.1 -2.75 15.1 -2.65 15.05 -2.55 15.0 -2.45 15.0 -2.35 14.95 -2.25 14.9 -2.15 14.85 -2.05 14.75 -2.0 14.65 -1.9 14.5 -1.8 14.35 -1.75 14.2 -1.7 14.0 -1.65 13.15 -1.6 12.95 -1.55 12.75 -1.5 12.0 -1.45 12.05 -1.35 12.05 -1.25 12.1 -1.15 12.1 -1.05 12.1 -1.0 12.05 -0.9 14.25 -0.85 14.45 -0.8 14.65 -0.75 14.85 -0.65 14.95 -0.55 15.05 -0.5 15.1 -0.4 15.2 -0.3 15.25 -0.2 15.25 -0.1 15.3 0.0 15.3 0.1 15.35 0.2 15.35 0.25 15.35 0.35 15.3 0.45 15.25 0.55 15.25 0.65 15.2 0.75 15.15 0.85 15.1 0.95 15.0 1.0 14.9 1.1 14.75 1.2 14.6 1.25 14.45 1.35 14.55 1.45 14.6 1.5 14.7 1.6 14.75 1.7 14.75 1.8 14.8 1.9 14.8 2.0 14.85 2.1 14.85 2.2 14.85 2.25 14.8 2.35 14.75 2.45 14.75 2.55 14.7 2.65 14.65 2.75 14.6 2.85 14.5 2.95 14.4 3.0 14.25 3.1 14.1 3.2 13.95 3.2 13.75 3.25 10.15 3.3 10.1 3.4 10.05 3.5 10.0 3.6 9.9 3.7 9.8 3.75 9.7 3.85 9.85 3.95 10.05 4.0 10.25 4.1 10.35 4.2 10.45 4.25 10.5 4.35 10.6 4.45 10.65 4.55 10.7 4.65 10.7 4.75 10.7 4.85 10.75 4.95 10.75 5.0 10.75 5.1 10.75 5.2 10.7 5.3 10.7 5.4 10.7 5.45 10.75 5.45 10.9 5.55 11.0 5.65 11.05 5.75 11.1 5.85 11.15 5.95 11.15 6.0 11.2 6.1 11.2 6.2 11.2 6.3 11.15 6.4 11.1 6.5 11.1 6.6 11.0 6.7 11.0 6.75 11.0 6.85 10.95 6.95 10.95 7.05 10.95 7.15 10.95 7.25 10.9 7.35 10.85 7.45 10.85 7.5 10.9 7.5 11.4 7.55 11.6 7.6 11.75 7.6 11.9 7.65 12.1 7.7 12.3 7.75 13.4 7.8 13.6 7.85 13.8 7.9 14.0 8.0 14.1 8.1 14.2 8.2 14.25 8.25 14.35 8.35 14.4 8.45 14.45 8.55 14.45 8.65 14.45 8.75 14.5 8.85 14.5 8.95 14.5 9.0 14.45 9.1 14.45 9.2 14.4 9.3 14.35 9.4 14.3 9.5 14.25 9.6 14.15 9.7 14.05 9.75 13.9 9.85 13.65 9.95 13.5 10.0 13.35 10.05 13.15 10.1 12.8 10.15 12.6 10.2 12.4 10.25 11.35 10.25 11.2 10.3 10.9 10.35 10.75 10.45 10.6 10.45 10.4 10.5 10.2 10.5 10.1 10.55 9.95 10.6 9.95 10.7 9.95 10.8 9.9 10.9 9.85 11.0 9.85 11.1 10.0 11.1 12.5 11.15 12.7 11.2 12.9 11.25 13.1 11.35 13.2 11.45 13.3 11.5 13.35 11.6 13.45 11.7 13.5 11.8 13.5 11.9 13.55 12.0 13.55 12.1 13.6 12.2 13.6 12.25 13.6 12.35 13.55 12.45 13.5 12.55 13.5 12.65 13.45 12.75 13.4 12.85 13.35 12.95 13.25 13.0 13.15 13.1 13.0 13.2 12.85 13.25 12.7 13.3 12.4 13.35 12.35 13.45 12.5 13.55 13.0 13.55 13.2 13.6 13.35 13.6 13.45 13.65 13.6 13.7 13.8 13.75 14.0 13.85 14.1 13.95 14.2 14.0 14.25 14.1 14.35 14.2 14.4 14.3 14.45 14.4 14.45 14.5 14.45 14.6 14.5 14.7 14.5 14.75 14.5 14.85 14.45 14.95 14.45 15.05 14.4 15.15 14.35 15.25 14.3 15.35 14.25 15.45 14.15 15.5 14.05 15.6 13.9 15.7 13.75 15.75 13.6 15.8 13.4 15.85 13.15 15.85 12.95 15.8 12.8 15.75 11.9 15.75 11.6 15.75 11.45 15.8 11.25 15.85 11.1 15.95 10.85 16.0 10.6 16.05 10.4 16.1 9.9 16.15 9.65 16.25 9.45 16.3 9.25 16.35 9.0 16.45 8.85 16.5 8.7 16.55 8.6 16.55 8.75 16.65 8.85 16.75 8.95 16.85 9.05 16.95 9.15 17.0 9.4 17.2 9.6 17.3 9.9 17.5 10.1 17.7 10.35 17.85 10.45 17.95 10.5 18.05 10.6 18.15 10.6 18.25 10.7 18.35 10.75 18.45 10.8 18.5 10.85 18.6 10.9 18.7 10.95 18.8 10.95 18.9 10.95 19.0 10.95 19.1 10.95 19.2 10.95 19.25 10.9 19.35 10.9 19.45 10.85 19.55 10.8 19.65 10.75 19.75 10.65 19.85 10.5 19.95 10.35 20.0 10.25 20.1 10.2 20.1 10.0 20.2 9.85 20.25 9.75 20.35 9.6 20.4 9.15 20.5 8.55 20.7 8.15 20.8 8.05 20.85 7.95 20.9 7.7 20.95 7.4 21.0 6.75 21.1 6.5 21.15 6.35 21.25 6.15 21.3 6.05 21.35 5.95 21.4 5.75 21.45 5.45 21.45 5.05 21.55 4.95 21.6 4.85 21.65 3.8 21.7 3.7 21.75 3.5 21.75 2.85 21.85 2.7 21.9 2.5 21.95 2.3 21.95 2.1 22.0 2.0 22.1 1.95 22.1 1.85 22.15 1.65 22.15 1.2 22.15 1.0 22.1 0.9 22.0 0.8 21.9 -1.8 21.85 -2.0 21.85 -2.1 21.75 -2.2 21.65 -2.3 21.55 -2.3 21.45 -2.35 21.35 -2.4 21.25 -4.1 21.25 -4.3 21.2 -4.55 21.15 -4.75 21.05 -4.8 20.95 -4.9 20.85 -5.0 20.75 -5.05 20.7 -5.1 20.6 -5.15 20.5 -5.15 20.4 -5.2 20.3 -5.2 20.2 -5.2 20.1 -5.2 20.0 -5.15 19.95 -5.15 19.85 -5.15 19.75 -5.1 19.65 -5.05 19.55 -5.2 19.55 -5.85 19.5 -6.05 19.45 -6.3 19.4 -6.4 19.35 -6.5 19.3 -6.7 19.25 -6.9 19.15 -7.0 19.05 -7.05 18.95 -7.15 18.85 -7.25 18.75 -7.25 18.7 -7.3 18.6 -7.3 18.5 -7.35 18.4 -7.35 18.3 -7.35 18.2 -7.35 18.1 -7.3 18.0 -7.3 17.95 -7.3 17.85 -7.25 17.75 -7.2 17.65 -7.15 17.6 -7.3 17.5 -7.4 17.45 -7.55 17.4 -7.75 17.35 -7.85 17.25 -7.9 17.2 -8.05 17.15 -8.25 17.1 -8.35 17.0 -8.45 16.9 -8.65 16.85 -8.75 16.75 -8.85 16.65 -11.25 16.6 -11.45 16.55 -11.7 16.5 -11.9 16.4 -12.0 16.3 -12.05 16.2 -12.15 16.1 -12.25 16.0 -12.25 15.95 -12.3 15.85 -12.3 15.75 -12.35 15.65 -12.35 15.55 -12.35 15.45 -12.4 15.45 -12.65 15.35 -12.75 15.25 -12.95 15.05 -13.15 14.85 -13.4 14.6 -13.5 14.5 -13.55 14.5 -13.55 14.6 -13.6 14.7 -13.65 14.75 -13.7 14.85 -13.75 14.95 -13.85 15.05 -13.95 15.15 -14.05 15.2 -14.15 15.25 -14.35 15.25 -14.55 15.25 -14.75 15.2 -14.85 15.1 -14.95 15.0 -15.05 14.9 -15.05 14.8 -15.1 14.7 -15.15 14.6 -15.15 14.5 -15.15 14.35 -15.15 14.15 -15.15 13.85 -15.15 13.6 -15.15 13.2 -15.15 13.0 -15.1 12.95 -15.05 12.85 -15.05 12.75 -15.05 12.65 -15.05 12.55 -15.0 12.45 -15.0 12.35 -14.95 12.25 -14.9 12.2 -14.9 12.1 -14.9 12.0 -14.85 11.9 -14.8 11.8 -14.75 11.7 -14.7 11.6 -14.65 11.5 -14.65 11.45 -14.65 11.35 -14.6 11.25 -14.55 11.15 -14.55 11.05 -14.55 10.95 -14.55 10.9 -14.55 10.85 -14.5 10.75 -14.5 10.7 -14.45 10.6 -14.35 10.5 -14.25 10.4 -14.15 10.3 -14.0 10.2 -13.8 10.15 -13.65 10.15 -13.65 10.1 -13.65 9.85 -13.65 9.3 -13.65 8.85 -13.65 8.55 -13.6 8.45 -13.6 8.35 -13.55 8.25 -13.55 8.2 -13.55 8.1 -13.65 8.0 -13.75 7.95 -13.75 7.85 -13.8 7.75 -13.8 7.65 -13.85 7.55 -13.85 7.45 -13.85 7.35 -13.85 7.25 -13.8 7.2 -13.8 7.1 -13.8 7.0 -13.75 6.9 -13.7 6.8 -13.6 6.7 -13.5 6.6 -13.4 6.5 -13.3 6.45 -13.25 6.35 -13.15 6.25 -13.0 6.2 -13.1 6.1 -13.2 6.0 -13.3 5.9 -13.3 5.8 -13.35 5.7 -13.4 5.6 -13.4 5.5 -13.4 5.45 -13.4 5.35 -13.4 5.25 -13.35 5.15 -13.3 5.05 -13.3 4.95 -13.3 4.85 -13.25 4.75 -13.3 4.65 -13.3 4.25 -13.3 3.7 -13.3 3.05 -13.3 2.3 -13.3 1.65 -13.25 1.55 -13.25 1.45 -13.2 1.35 -13.15 1.25 -13.15 1.2 -13.15 1.1 -13.15 1.0 -13.15 0.9 -13.15 0.8 -13.15 0.7 -13.15 0.6 -13.8 0.5 -14.0 0.45 -14.4 0.35 -14.5 0.25 -14.55 0.25 -14.75 0.2 M-3.9 -9.15 L-3.75 -9.15 -3.85 -9.25 -3.9 -9.3 -3.9 -9.25 -3.9 -9.15 M-9.9 7.65 L-9.85 7.75 -9.8 7.85 -9.65 8.0 -9.55 8.1 -9.35 8.3 -9.15 8.5 -9.0 8.7 -8.9 8.75 -8.85 8.85 -8.8 8.95 -8.75 9.05 -8.6 9.15 -8.5 9.25 -8.45 9.35 -8.4 9.45 -8.35 9.5 -8.3 9.6 -8.2 9.7 -8.15 9.8 -8.05 9.9 -7.95 10.0 -7.85 10.1 -7.75 10.2 -7.7 10.25 -7.65 10.35 -7.6 10.45 -7.55 10.55 -7.5 10.65 -7.45 10.75 -7.4 10.85 -7.3 10.95 -7.25 11.0 -7.2 11.1 -7.15 11.2 -7.1 11.3 -7.0 11.4 -6.9 11.5 -6.8 11.6 -6.8 11.65 -6.65 11.65 -6.5 11.7 -6.35 11.8 -6.25 11.9 -6.1 12.0 -5.95 12.1 -5.8 12.2 -5.65 12.25 -5.55 12.35 -5.4 12.4 -5.3 12.4 -5.0 12.45 -4.8 12.5 -4.65 12.55 -4.5 12.65 -1.05 12.65 -0.95 12.7 -0.75 12.6 -0.65 12.55 -0.55 12.55 -0.4 12.45 -0.2 12.4 -0.05 12.35 0.1 12.25 0.2 12.25 0.45 12.2 0.55 12.1 0.7 12.0 0.8 12.0 1.0 11.95 1.1 11.95 1.25 11.85 1.35 11.75 1.45 11.7 1.55 11.6 1.7 11.55 1.85 11.45 2.0 11.35 2.2 11.25 2.35 11.15 2.45 11.1 2.6 11.05 2.75 10.95 2.95 10.85 3.0 10.75 3.15 10.65 3.3 10.6 3.45 10.55 3.6 10.45 3.7 10.35 3.75 10.25 3.85 10.2 3.95 10.2 4.05 10.15 4.25 10.15 4.25 10.1 4.4 10.1 4.6 10.15 4.65 10.1 4.7 10.0 4.75 9.95 4.75 9.85 4.8 9.75 4.9 9.65 5.0 9.55 5.1 9.45 5.15 9.35 5.2 9.25 5.25 9.2 5.25 9.1 5.3 9.0 5.4 8.9 5.5 8.8 5.6 8.7 5.65 8.6 5.7 8.5 5.75 8.45 5.8 8.35 5.9 8.25 5.95 8.15 6.0 8.05 6.0 7.95 6.05 7.85 6.1 7.75 6.1 7.7 6.1 7.6 6.15 7.5 6.2 7.4 6.25 7.3 6.25 7.2 6.3 7.1 6.35 7.0 6.35 6.95 6.35 6.85 6.35 6.75 6.4 6.65 6.45 6.55 6.5 6.45 6.5 6.35 6.55 6.25 6.6 6.2 6.7 6.1 6.7 6.0 6.7 5.5 6.7 4.75 6.7 4.0 6.7 3.35 6.75 3.25 6.75 3.15 6.75 3.05 6.75 2.95 6.75 2.85 6.75 2.75 6.75 2.7 6.95 2.7 7.0 2.75 7.0 2.7 7.1 2.6 7.2 2.5 7.25 2.45 7.35 2.45 7.45 2.4 7.65 2.4 7.65 2.35 7.85 2.4 8.0 2.45 8.15 2.55 8.25 2.65 8.25 2.6 8.4 2.5 8.6 2.45 8.75 2.45 8.9 2.35 9.1 2.3 9.25 2.25 9.4 2.25 9.6 2.2 9.75 2.2 9.9 2.1 10.1 2.0 10.35 1.95 10.5 1.95 10.6 1.9 10.7 1.85 10.85 1.75 11.0 1.65 11.1 1.55 11.2 1.45 11.25 1.35 11.35 1.25 11.4 1.2 11.45 1.1 11.45 1.0 11.45 0.9 11.5 0.8 11.5 0.7 11.5 0.6 11.5 0.5 11.5 0.45 11.5 0.35 11.5 0.25 11.55 0.15 11.55 0.05 11.6 -0.05 11.6 -0.15 11.6 -0.25 11.6 -0.3 11.6 -0.4 11.6 -0.5 11.6 -0.6 11.6 -0.7 11.6 -0.8 11.6 -0.9 11.6 -1.0 11.6 -1.05 11.6 -1.15 11.6 -1.25 11.6 -1.35 11.6 -1.45 11.6 -1.55 11.6 -1.65 11.6 -1.75 11.6 -1.8 11.6 -1.9 11.6 -2.0 11.6 -2.1 11.6 -2.2 11.6 -2.3 11.6 -2.4 11.6 -2.5 11.6 -2.55 11.6 -2.65 11.6 -2.75 11.6 -2.85 11.6 -2.95 11.6 -3.05 11.6 -3.15 11.6 -3.25 11.6 -3.3 11.6 -3.4 11.6 -3.5 11.6 -3.6 11.6 -3.7 11.6 -3.8 11.6 -3.9 11.6 -4.0 11.6 -4.05 11.6 -4.15 11.6 -4.25 11.6 -4.35 11.6 -4.45 11.6 -4.55 11.6 -4.65 11.6 -4.75 11.6 -4.8 11.6 -4.9 11.6 -5.0 11.6 -5.1 11.6 -5.2 11.6 -5.3 11.6 -5.4 11.6 -5.5 11.6 -5.55 11.6 -5.65 11.6 -5.75 11.6 -5.85 11.6 -5.95 11.6 -6.05 11.6 -6.15 11.6 -6.25 11.6 -6.3 11.6 -6.4 11.6 -6.5 11.6 -6.6 11.6 -6.7 11.6 -6.8 11.6 -6.9 11.55 -7.0 11.5 -7.05 11.5 -7.15 11.5 -7.25 11.5 -7.35 11.45 -7.45 11.45 -7.55 11.4 -7.65 11.35 -7.75 11.35 -7.8 11.25 -7.9 11.25 -8.0 11.25 -8.1 11.2 -8.2 11.2 -8.3 11.15 -8.4 11.1 -8.5 11.1 -8.55 11.0 -8.65 10.95 -8.75 10.95 -8.85 10.9 -8.95 10.85 -9.05 10.75 -9.15 10.7 -9.25 10.6 -9.3 10.5 -9.4 10.35 -9.5 10.15 -9.6 9.95 -9.65 9.75 -9.7 5.4 -9.7 5.4 -9.65 5.2 -9.65 5.05 -9.65 4.9 -9.6 4.7 -9.55 4.45 -9.5 4.3 -9.5 1.65 -9.45 1.45 -9.4 1.2 -9.35 1.0 -9.25 0.95 -9.15 0.85 -9.05 0.75 -9.0 0.7 -8.9 0.65 -8.8 0.6 -8.7 0.6 -8.6 0.55 -8.5 0.55 -8.4 0.55 -8.3 0.55 -8.25 0.5 -8.15 0.5 -8.05 0.45 -7.95 0.45 -7.85 0.4 -7.75 0.35 -7.65 0.35 -7.55 0.35 -7.5 0.25 -7.4 0.25 -7.3 0.2 -7.2 0.15 -7.1 0.1 -7.0 0.05 -6.9 0.0 -6.8 -0.05 -6.75 -0.05 -6.65 -0.1 -6.55 -0.15 -6.45 -0.2 -6.35 -0.25 -6.25 -0.3 -6.15 -0.3 -6.05 -0.3 -6.0 -0.35 -5.9 -0.35 -5.8 -0.4 -5.7 -0.4 -5.6 -0.45 -5.5 -0.5 -5.4 -0.5 -5.3 -0.55 -5.25 -0.55 -5.15 -0.6 -5.05 -0.6 -4.95 -0.8 -4.9 -0.95 -4.9 -1.75 -4.85 -1.95 -4.8 -2.2 -4.75 -2.5 -4.7 -2.7 -4.65 -2.85 -4.65 -3.35 -4.6 -3.55 -4.55 -3.7 -4.55 -3.85 -4.5 -3.95 -4.45 -4.5 -4.45 -4.6 -4.45 -4.6 -4.4 -4.8 -4.4 -5.05 -4.35 -5.2 -4.25 -5.25 -4.25 -5.4 -4.15 -5.5 -4.05 -5.55 -4.0 -5.65 -3.9 -5.75 -3.85 -5.95 -3.75 -6.15 -3.65 -6.35 -3.55 -6.55 -3.5 -6.65 -3.4 -6.8 -3.3 -6.95 -3.2 -7.05 -3.1 -7.15 -3.0 -7.25 -2.9 -7.3 -2.8 -7.4 -2.75 -7.5 -2.65 -7.55 -2.6 -7.6 -2.55 -7.7 -2.45 -7.75 -2.35 -7.85 -2.25 -7.95 -2.15 -8.05 -2.05 -8.15 -2.0 -8.25 -1.9 -8.35 -1.8 -8.45 -1.7 -8.5 -1.6 -8.55 -1.5 -8.65 -1.4 -8.7 -1.3 -8.8 -1.25 -8.9 -1.15 -9.0 -1.05 -9.15 -0.85 -9.25 -0.75 -9.3 -0.65 -9.4 -0.55 -9.45 -0.5 -9.5 -0.4 -9.55 -0.3 -9.65 -0.2 -9.7 -0.1 -9.75 0.0 -9.85 0.1 -9.9 0.2 -9.95 0.25 -10.0 0.35 -10.05 0.45 -10.1 0.55 -10.15 0.65 -10.15 0.75 -10.25 0.85 -10.25 0.95 -10.3 1.0 -10.35 1.1 -10.35 1.2 -10.4 1.3 -10.45 1.4 -10.5 1.5 -10.5 1.6 -10.55 1.7 -10.55 1.75 -10.6 1.85 -10.6 1.95 -10.65 2.05 -10.7 2.15 -10.65 2.2 -10.6 2.25 -10.6 2.35 -10.55 2.45 -10.55 2.55 -10.55 2.65 -10.55 2.75 -10.55 2.85 -10.55 2.95 -10.5 3.0 -10.5 3.1 -10.5 3.2 -10.5 3.5 -10.5 3.95 -10.5 4.5 -10.5 5.2 -10.5 5.95 -10.45 6.05 -10.4 6.15 -10.4 6.25 -10.35 6.35 -10.35 6.45 -10.35 6.5 -10.3 6.6 -10.3 6.7 -10.3 6.8 -10.25 6.9 -10.2 7.0 -10.15 7.1 -10.1 7.2 -10.05 7.25 -10.05 7.35 -9.95 7.45 -10.0 7.45 -10.15 7.45 -10.0 7.55 -9.9 7.65 M3.0 -12.0 L1.95 -12.0 1.85 -12.05 1.85 -11.95 1.75 -11.85 1.7 -11.75 3.0 -11.7 3.05 -11.7 3.05 -11.8 3.05 -11.9 3.1 -12.0 3.0 -12.0 M-0.5 5.75 L-0.55 5.8 -0.65 5.85 -0.7 5.85 -0.9 5.95 -1.05 6.0 -1.15 6.1 -1.2 6.1 -1.3 6.15 -1.75 6.15 -2.15 6.1 -2.25 6.0 -2.35 5.9 -2.45 5.8 -2.5 5.7 -2.55 5.7 -3.0 5.6 -3.1 5.5 -3.2 5.4 -3.3 5.3 -3.4 5.2 -3.45 5.1 -3.5 5.0 -3.5 4.95 -3.55 4.85 -3.55 4.75 -3.55 4.55 -3.55 4.35 -3.55 4.25 -3.55 4.1 -3.55 3.8 -3.55 3.6 -3.5 3.5 -3.5 3.45 -3.45 3.35 -3.35 3.25 -3.25 3.15 -3.25 3.05 -3.15 2.95 -3.05 2.85 -3.0 2.75 -2.9 2.7 -2.8 2.6 -2.65 2.55 -2.5 2.45 -2.3 2.4 -2.1 2.4 -2.1 2.35 -1.25 2.4 -0.9 2.45 -0.75 2.45 -0.5 2.45 -0.3 2.5 -0.15 2.55 0.0 2.65 0.05 2.7 0.1 2.75 0.25 2.8 0.4 2.9 0.5 3.0 0.55 3.1 0.6 3.2 0.65 3.25 0.65 3.35 0.7 3.45 0.75 3.55 0.75 3.65 0.75 3.75 0.75 3.85 0.75 4.0 0.75 4.1 0.75 4.2 0.75 4.3 0.75 4.4 0.7 4.5 0.7 4.6 0.65 4.7 0.6 4.75 0.55 4.85 0.5 4.95 0.45 5.05 0.35 5.15 0.25 5.25 0.2 5.3 0.1 5.35 0.0 5.45 -0.1 5.55 -0.2 5.6 -0.35 5.65 -0.4 5.65 -0.45 5.7 -0.5 5.75 M7.5 8.75 L7.5 8.8 7.75 8.75 7.55 8.65 7.5 8.75 M8.35 18.45 L8.3 18.5 8.4 18.6 8.5 18.7 8.6 18.8 8.65 18.9 8.7 18.95 8.8 18.95 8.8 18.85 8.8 18.75 8.6 18.7 8.5 18.6 8.4 18.5 8.35 18.45 M-11.4 14.15 L-11.35 14.25 -11.25 14.2 -11.3 14.1 -11.35 14.05 -11.5 14.0 -11.5 14.05 -11.4 14.15" fill="#709aad" fill-rule="evenodd" stroke="none"/>
  </g>
</svg>
