<?xml version="1.0" encoding="UTF-8" standalone="no"?>
<svg xmlns:ffdec="https://www.free-decompiler.com/flash" xmlns:xlink="http://www.w3.org/1999/xlink" ffdec:objectType="shape" height="55.8px" width="273.6px" xmlns="http://www.w3.org/2000/svg">
  <g transform="matrix(1.0, 0.0, 0.0, 1.0, -42.95, 86.55)">
    <path d="M42.95 -30.75 L42.95 -86.55 316.55 -86.55 316.55 -30.75 42.95 -30.75 M145.35 -71.1 L145.6 -70.8 146.5 -70.4 147.55 -70.1 148.35 -69.95 149.25 -70.1 Q151.45 -70.45 152.45 -72.5 L153.1 -74.25 153.1 -74.7 153.1 -75.55 153.05 -76.05 152.95 -76.45 152.85 -76.95 152.6 -77.35 152.35 -77.75 152.1 -78.25 150.25 -79.5 148.35 -80.0 148.35 -79.95 Q146.6 -80.0 145.3 -78.85 L144.1 -77.55 143.9 -77.05 143.8 -76.65 143.65 -76.15 143.65 -75.75 143.65 -75.25 143.65 -74.85 143.65 -74.4 143.65 -73.95 144.15 -72.65 144.4 -72.25 143.15 -72.95 141.25 -73.5 141.25 -73.45 Q138.95 -73.45 137.4 -71.6 L136.7 -70.25 136.6 -69.8 136.55 -69.35 136.5 -68.9 136.5 -68.45 136.5 -68.05 137.05 -66.75 Q137.3 -66.25 137.65 -65.85 L138.45 -64.9 139.35 -64.45 140.4 -64.15 141.25 -64.0 142.15 -64.15 143.45 -64.7 144.7 -65.5 145.55 -66.85 145.9 -67.75 146.0 -68.15 146.0 -68.6 146.0 -69.05 145.95 -69.5 145.8 -69.95 145.7 -70.4 145.45 -70.8 145.35 -71.1 M169.75 -72.7 L170.45 -73.95 170.8 -74.85 170.95 -75.25 170.95 -75.75 170.95 -76.15 170.85 -76.65 170.75 -77.05 170.65 -77.55 170.4 -77.95 170.15 -78.35 169.9 -78.85 Q169.15 -79.65 168.1 -80.1 L166.2 -80.6 166.2 -80.55 Q163.8 -80.55 162.3 -78.7 L161.6 -77.35 161.55 -76.95 161.5 -76.45 161.45 -76.05 161.45 -75.55 161.45 -75.15 161.95 -73.85 162.05 -73.75 161.75 -73.35 161.0 -72.0 160.95 -71.6 160.9 -71.1 160.85 -70.7 160.85 -70.25 160.85 -69.8 161.35 -68.5 161.95 -67.6 162.8 -66.65 163.7 -66.25 164.75 -65.95 165.6 -65.8 166.5 -65.95 167.8 -66.5 169.05 -67.25 169.85 -68.6 170.2 -69.5 170.35 -69.95 170.35 -70.4 170.35 -70.8 170.25 -71.3 170.15 -71.7 170.05 -72.2 169.8 -72.6 169.75 -72.7 M128.95 -80.3 L128.9 -79.9 128.85 -79.45 128.8 -79.0 128.8 -78.55 128.8 -78.1 129.3 -76.8 129.9 -75.9 130.75 -74.95 131.65 -74.55 132.7 -74.25 133.55 -74.1 134.45 -74.25 135.75 -74.8 137.0 -75.55 137.8 -76.95 138.15 -77.8 138.3 -78.25 138.3 -78.7 138.3 -79.15 138.25 -79.6 138.1 -80.0 138.0 -80.5 137.75 -80.9 137.5 -81.35 137.3 -81.8 135.45 -83.05 133.55 -83.6 133.55 -83.5 Q131.2 -83.5 129.7 -81.7 L128.95 -80.3 M131.75 -50.65 L130.55 -50.95 130.55 -50.9 Q128.25 -50.9 126.7 -49.05 L126.0 -47.65 125.95 -47.25 125.9 -46.8 125.8 -46.35 125.8 -45.9 125.8 -45.5 126.35 -44.15 126.95 -43.3 127.8 -42.35 128.65 -41.9 129.75 -41.6 130.55 -41.45 131.45 -41.6 Q132.15 -41.8 132.75 -42.15 L134.0 -42.95 134.85 -44.3 135.2 -45.2 135.3 -45.6 135.3 -46.05 135.3 -46.5 135.25 -46.95 135.15 -47.4 135.0 -47.85 134.85 -48.2 135.1 -48.15 135.9 -47.95 136.8 -48.15 138.1 -48.7 139.35 -49.45 140.2 -50.8 140.55 -51.7 140.65 -52.15 140.65 -52.6 140.65 -53.0 140.6 -53.5 140.5 -53.9 140.35 -54.4 140.15 -54.8 139.9 -55.2 139.65 -55.7 137.8 -56.95 135.9 -57.45 135.9 -57.4 Q133.6 -57.4 132.05 -55.55 L131.35 -54.2 131.3 -53.8 131.2 -53.3 131.15 -52.9 131.15 -52.4 131.15 -52.0 131.7 -50.7 131.75 -50.65 M132.3 -65.95 L132.15 -66.35 132.05 -66.85 131.8 -67.25 131.6 -67.65 131.35 -68.15 129.5 -69.4 127.6 -69.95 127.6 -69.85 Q125.3 -69.85 123.75 -68.05 123.25 -67.4 123.05 -66.65 L122.95 -66.25 122.9 -65.8 122.85 -65.35 122.85 -64.9 122.85 -64.45 123.4 -63.15 124.0 -62.25 124.8 -61.3 125.7 -60.9 126.75 -60.6 127.6 -60.45 128.5 -60.6 Q129.2 -60.8 129.8 -61.15 L131.05 -61.9 131.9 -63.3 132.25 -64.15 132.35 -64.6 132.35 -65.05 132.35 -65.5 132.3 -65.95 M154.65 -54.1 L155.5 -53.9 156.4 -54.1 157.7 -54.6 158.95 -55.4 159.75 -56.75 160.15 -57.65 160.25 -58.05 160.25 -58.55 160.25 -58.95 160.2 -59.45 160.05 -59.85 159.95 -60.3 159.7 -60.75 159.45 -61.15 159.25 -61.6 157.4 -62.85 155.5 -63.4 155.5 -63.35 Q153.1 -63.35 151.65 -61.5 L151.05 -60.35 150.8 -60.75 150.55 -61.15 150.35 -61.6 Q149.55 -62.45 148.5 -62.85 L146.6 -63.4 146.6 -63.35 Q144.3 -63.35 142.75 -61.5 L142.0 -60.15 141.95 -59.7 141.9 -59.25 141.85 -58.85 141.85 -58.35 141.85 -57.95 142.4 -56.65 142.95 -55.75 143.8 -54.8 144.7 -54.4 144.85 -54.3 145.35 -53.05 145.95 -52.2 146.75 -51.25 147.65 -50.8 148.75 -50.5 149.55 -50.35 Q152.65 -50.6 154.25 -53.25 L154.65 -54.1 M110.1 -78.1 L109.4 -76.75 109.3 -76.35 109.25 -75.85 109.2 -75.45 109.2 -74.95 109.2 -74.55 109.75 -73.25 110.35 -72.35 111.15 -71.4 112.05 -71.0 113.1 -70.7 113.95 -70.5 114.85 -70.7 116.15 -71.25 117.4 -72.0 118.25 -73.35 118.6 -74.25 118.7 -74.7 118.7 -75.15 118.7 -75.55 118.65 -76.05 118.5 -76.45 118.4 -76.95 118.15 -77.35 117.95 -77.75 117.7 -78.25 115.85 -79.5 113.95 -80.0 113.95 -79.95 Q111.65 -79.95 110.1 -78.1 M90.55 -74.45 L90.9 -75.15 91.3 -76.05 91.4 -76.45 91.4 -76.95 91.4 -77.35 91.35 -77.8 91.2 -78.25 91.1 -78.7 90.85 -79.15 90.65 -79.55 90.4 -80.0 88.55 -81.25 86.65 -81.8 86.65 -81.75 Q84.35 -81.75 82.8 -79.9 L82.1 -78.55 82.0 -78.1 81.95 -77.65 81.9 -77.25 81.9 -76.75 81.9 -76.35 82.45 -75.05 Q82.7 -74.55 83.05 -74.15 L83.85 -73.2 84.75 -72.8 85.6 -72.55 85.05 -71.4 85.0 -71.0 84.95 -70.5 84.85 -70.1 84.85 -69.65 84.85 -69.2 85.4 -67.9 86.0 -67.0 86.85 -66.05 87.7 -65.65 88.8 -65.35 89.6 -65.2 90.5 -65.35 91.8 -65.9 93.05 -66.65 93.9 -68.05 94.25 -68.9 94.35 -69.35 94.35 -69.8 94.35 -70.25 94.3 -70.7 94.2 -71.1 94.05 -71.6 93.85 -72.0 93.6 -72.4 93.35 -72.9 91.5 -74.15 90.55 -74.45 M100.9 -61.1 L100.9 -61.5 100.9 -61.9 100.85 -62.4 100.7 -62.8 100.6 -63.3 100.35 -63.7 100.1 -64.1 99.9 -64.6 98.05 -65.85 96.15 -66.35 96.15 -66.3 Q93.85 -66.3 92.3 -64.45 91.8 -63.8 91.6 -63.1 L91.5 -62.7 91.45 -62.2 91.4 -61.8 91.4 -61.3 91.4 -60.9 91.95 -59.6 92.55 -58.7 93.35 -57.75 94.25 -57.35 94.45 -57.3 94.35 -57.05 94.35 -56.7 93.9 -56.95 92.0 -57.45 92.0 -57.4 Q89.7 -57.4 88.15 -55.55 L87.4 -54.2 87.35 -53.8 87.3 -53.3 87.25 -52.9 87.25 -52.4 87.25 -52.0 87.8 -50.7 88.35 -49.8 89.2 -48.85 Q89.6 -48.6 90.1 -48.45 L91.15 -48.15 92.0 -47.95 92.9 -48.15 Q93.6 -48.35 94.2 -48.7 L95.45 -49.45 96.25 -50.8 96.6 -51.7 96.75 -52.15 96.75 -52.6 96.75 -52.8 97.2 -52.6 98.3 -52.3 99.1 -52.15 100.0 -52.3 Q100.7 -52.5 101.3 -52.85 L102.55 -53.6 103.4 -54.95 103.75 -55.85 103.85 -56.3 103.85 -56.75 103.85 -57.15 103.8 -57.65 103.7 -58.05 103.55 -58.55 103.35 -58.95 103.1 -59.35 102.85 -59.85 101.0 -61.1 100.9 -61.1 M102.1 -50.6 L100.9 -50.95 100.9 -50.9 Q98.6 -50.9 97.05 -49.05 96.55 -48.4 96.35 -47.65 L96.25 -47.25 96.2 -46.8 96.15 -46.35 96.15 -45.9 96.15 -45.5 96.7 -44.15 97.3 -43.3 98.1 -42.35 99.0 -41.9 100.05 -41.6 100.9 -41.45 101.8 -41.6 Q102.5 -41.8 103.1 -42.15 L104.35 -42.95 105.15 -44.3 105.5 -45.2 105.65 -45.6 105.65 -45.8 105.7 -45.8 106.2 -45.05 107.0 -44.1 107.9 -43.7 108.95 -43.4 109.8 -43.2 110.7 -43.4 112.0 -43.95 113.25 -44.7 114.05 -46.05 114.45 -46.95 114.55 -47.4 114.55 -47.85 114.55 -48.25 114.5 -48.75 114.35 -49.15 114.25 -49.65 114.0 -50.05 113.75 -50.45 113.55 -50.95 111.8 -52.15 111.65 -52.4 111.4 -52.85 111.15 -53.3 Q110.4 -54.15 109.4 -54.6 L106.85 -55.1 105.95 -54.9 Q104.15 -54.6 102.95 -53.2 L102.25 -51.85 102.2 -51.4 102.15 -50.95 102.1 -50.6 M115.6 -60.55 L116.35 -60.45 117.2 -60.6 Q117.95 -60.8 118.5 -61.15 L119.75 -61.9 120.6 -63.3 120.95 -64.15 121.05 -64.6 121.05 -65.05 121.05 -65.5 121.0 -65.95 120.9 -66.35 120.8 -66.85 120.55 -67.25 120.3 -67.65 120.05 -68.15 118.25 -69.4 116.35 -69.95 116.35 -69.85 Q114.95 -69.85 113.85 -69.2 L113.35 -69.35 113.35 -69.3 112.4 -69.15 112.35 -69.35 110.5 -70.6 108.6 -71.1 108.6 -71.05 Q106.85 -71.1 105.5 -69.95 L104.35 -68.6 104.15 -68.15 104.05 -67.75 103.85 -67.25 103.85 -66.85 103.85 -66.35 103.85 -65.95 103.85 -65.5 103.85 -65.05 104.4 -63.75 105.0 -62.85 105.8 -61.9 106.7 -61.5 107.8 -61.2 108.6 -61.05 109.5 -61.2 110.05 -61.3 110.55 -60.75 111.45 -60.3 112.55 -60.0 113.35 -59.85 114.25 -60.0 115.55 -60.55 115.6 -60.55 M160.85 -43.75 Q158.5 -43.75 157.0 -41.9 L156.25 -40.55 156.2 -40.15 156.15 -39.65 156.1 -39.25 156.1 -38.75 156.1 -38.35 156.6 -37.05 157.2 -36.15 158.05 -35.2 158.95 -34.8 160.0 -34.5 160.85 -34.3 161.75 -34.5 163.05 -35.05 164.3 -35.8 165.1 -37.15 165.45 -38.05 165.6 -38.5 165.6 -38.95 165.6 -39.35 165.55 -39.85 165.4 -40.25 165.3 -40.75 165.05 -41.15 164.8 -41.55 164.6 -42.05 Q163.8 -42.85 162.75 -43.3 L160.85 -43.8 160.85 -43.75 M226.05 -81.7 L226.0 -82.0 225.95 -82.4 225.85 -82.85 225.6 -83.3 225.35 -83.7 225.1 -84.15 Q224.35 -85.0 223.25 -85.4 L221.35 -85.95 221.35 -85.9 Q219.0 -85.9 217.5 -84.05 L216.8 -82.7 216.75 -82.25 216.7 -81.8 216.65 -81.4 216.65 -80.9 216.65 -80.5 217.15 -79.2 217.45 -78.65 216.9 -78.1 216.2 -76.75 216.15 -76.35 216.1 -75.85 216.05 -75.45 216.05 -74.95 216.05 -74.55 216.55 -73.25 217.15 -72.35 218.0 -71.4 218.9 -71.0 219.9 -70.7 220.8 -70.5 221.65 -70.7 Q222.4 -70.9 223.0 -71.25 L224.2 -72.0 224.4 -72.3 231.05 -72.0 Q231.45 -71.75 231.95 -71.6 L232.95 -71.3 233.85 -71.1 235.75 -71.7 237.1 -72.5 237.6 -72.9 237.8 -73.35 238.05 -73.8 238.3 -74.25 238.45 -74.7 238.45 -75.1 238.6 -75.55 238.6 -76.05 238.6 -76.45 Q237.35 -80.6 232.9 -81.15 L226.05 -81.7 M206.35 -73.1 L206.5 -72.95 207.3 -72.0 Q207.7 -71.75 208.2 -71.6 L209.2 -71.3 210.1 -71.1 211.0 -71.3 Q211.7 -71.45 212.3 -71.85 L213.55 -72.6 214.35 -73.95 214.75 -74.85 214.85 -75.25 214.85 -75.75 214.85 -76.15 214.75 -76.65 214.65 -77.05 214.55 -77.55 214.3 -77.95 214.05 -78.35 213.85 -78.85 212.0 -80.1 210.1 -80.6 210.1 -80.55 209.15 -80.45 209.1 -80.6 Q208.3 -81.45 207.25 -81.85 L205.35 -82.4 205.35 -82.35 Q203.0 -82.35 201.5 -80.5 L200.8 -79.15 200.7 -78.7 200.65 -78.25 200.6 -77.8 200.6 -77.35 200.6 -76.95 201.15 -75.65 201.75 -74.75 202.55 -73.8 203.45 -73.35 204.45 -73.1 205.35 -72.9 206.25 -73.1 206.35 -73.1 M217.7 -60.75 L218.25 -61.6 218.7 -62.5 218.9 -63.0 219.0 -63.4 219.0 -63.9 219.0 -64.3 218.9 -64.75 218.8 -65.2 218.7 -65.65 218.45 -66.05 218.25 -66.5 218.0 -66.95 217.5 -67.4 Q216.5 -68.35 215.15 -68.5 L213.05 -68.75 212.2 -68.55 Q210.4 -68.25 209.2 -66.85 L208.5 -65.5 207.45 -64.45 206.7 -63.1 206.65 -62.7 206.6 -62.2 206.55 -61.8 206.55 -61.3 206.55 -60.9 207.05 -59.6 207.65 -58.7 208.5 -57.75 209.4 -57.35 210.4 -57.05 211.3 -56.85 212.2 -57.05 Q212.85 -57.25 213.4 -57.55 L213.35 -57.45 213.25 -57.05 213.05 -56.6 213.05 -56.15 213.05 -55.7 213.05 -55.25 213.05 -54.8 213.05 -54.4 213.6 -53.05 214.2 -52.2 215.0 -51.25 215.9 -50.8 216.9 -50.5 217.8 -50.35 219.6 -50.75 219.6 -50.65 219.6 -50.25 220.15 -48.9 Q220.35 -48.45 220.7 -48.05 L221.55 -47.1 Q221.95 -46.85 222.45 -46.65 L223.45 -46.35 224.35 -46.2 225.25 -46.35 226.55 -46.9 226.6 -46.9 227.05 -46.35 227.5 -45.9 Q229.8 -44.6 232.4 -45.05 233.9 -45.35 234.9 -46.5 L235.45 -47.4 235.9 -48.25 236.1 -48.75 236.2 -49.15 236.2 -49.65 236.2 -50.05 236.1 -50.5 236.05 -50.95 235.9 -51.4 235.7 -51.85 235.45 -52.25 235.2 -52.7 234.75 -53.15 Q233.7 -54.1 232.35 -54.25 L230.3 -54.5 229.4 -54.3 228.1 -53.9 226.25 -55.15 224.35 -55.7 224.35 -55.65 223.7 -55.55 223.75 -56.15 223.75 -56.6 223.65 -57.05 223.55 -57.45 223.45 -57.95 223.2 -58.35 223.0 -58.75 222.75 -59.25 Q221.95 -60.1 220.9 -60.5 L219.0 -61.05 217.7 -60.75 M213.05 -51.55 L213.05 -51.45 Q210.7 -51.45 209.2 -49.65 L208.5 -48.25 208.45 -47.85 208.4 -47.4 208.3 -46.95 208.3 -46.5 208.3 -46.05 208.85 -44.75 209.45 -43.9 210.3 -42.95 Q210.7 -42.7 211.15 -42.5 L212.2 -42.2 213.05 -42.05 213.95 -42.2 Q214.65 -42.4 215.25 -42.75 L216.5 -43.5 217.35 -44.9 217.7 -45.8 217.8 -46.2 217.8 -46.65 217.8 -47.1 217.7 -47.55 217.65 -47.95 217.5 -48.45 217.3 -48.85 217.05 -49.3 216.8 -49.75 214.95 -51.0 213.05 -51.55 M244.0 -64.0 L242.85 -64.65 240.95 -65.2 240.95 -65.1 Q239.2 -65.2 237.85 -64.0 L236.7 -62.7 236.5 -62.2 236.4 -61.8 236.2 -61.3 236.2 -60.9 236.2 -60.45 236.2 -60.0 236.2 -59.55 236.2 -59.15 236.75 -57.8 237.35 -56.95 238.15 -56.0 239.05 -55.55 240.05 -55.25 240.95 -55.1 241.85 -55.25 Q244.05 -55.65 245.05 -57.65 L245.7 -59.45 245.7 -59.7 Q245.75 -59.65 245.9 -59.55 246.3 -59.3 246.8 -59.15 L247.8 -58.85 248.65 -58.65 249.55 -58.85 250.85 -59.35 252.1 -60.15 252.95 -61.5 253.3 -62.4 253.4 -62.75 253.9 -63.1 254.75 -64.45 255.1 -65.35 255.2 -65.8 255.2 -66.25 255.2 -66.65 255.1 -67.15 255.05 -67.55 254.9 -68.05 254.65 -68.45 254.45 -68.85 254.2 -69.35 Q253.4 -70.15 252.35 -70.6 L250.45 -71.1 250.45 -71.05 Q248.1 -71.05 246.6 -69.2 246.1 -68.55 245.9 -67.85 L245.85 -67.45 245.85 -67.2 244.8 -66.25 244.1 -64.9 244.05 -64.45 244.0 -64.0 M170.4 -54.9 L170.5 -54.8 Q172.85 -53.5 175.45 -53.95 176.9 -54.25 177.95 -55.4 L178.45 -56.3 178.65 -56.6 178.65 -56.15 179.2 -54.85 179.75 -53.95 180.6 -53.0 181.5 -52.6 182.5 -52.3 183.4 -52.15 184.3 -52.3 Q185.0 -52.5 185.6 -52.85 L186.85 -53.6 187.65 -54.95 188.0 -55.85 188.15 -56.3 188.15 -56.4 188.75 -56.3 189.6 -56.5 Q190.5 -56.8 191.35 -57.3 L192.1 -57.75 192.6 -57.65 193.5 -57.45 194.35 -57.65 Q195.1 -57.8 195.7 -58.2 L196.9 -58.95 197.75 -60.3 198.1 -61.2 198.25 -61.6 198.25 -62.1 198.25 -62.5 198.1 -63.0 198.05 -63.4 197.95 -63.9 197.7 -64.3 197.45 -64.7 197.2 -65.2 Q196.45 -66.0 195.4 -66.45 L193.5 -66.95 193.5 -66.9 191.6 -66.55 191.5 -66.95 191.4 -67.45 191.15 -67.85 190.95 -68.25 190.7 -68.75 188.85 -70.05 186.35 -70.5 186.35 -70.45 185.55 -70.3 183.55 -69.65 182.4 -68.25 181.95 -67.4 181.6 -66.55 181.6 -66.05 181.6 -65.65 181.65 -65.2 181.75 -64.7 181.8 -64.3 181.95 -63.9 182.2 -63.4 182.4 -63.0 182.7 -62.15 183.05 -61.55 Q180.9 -61.45 179.55 -59.7 L179.2 -59.2 179.2 -59.45 179.05 -59.85 178.95 -60.3 178.7 -60.75 178.45 -61.15 178.25 -61.6 177.75 -62.05 Q176.8 -62.95 175.5 -63.1 174.85 -63.7 174.0 -64.05 L172.1 -64.6 172.1 -64.55 Q170.35 -64.6 169.05 -63.4 L167.85 -62.1 167.65 -61.6 167.55 -61.2 167.35 -60.75 167.35 -60.3 167.35 -59.85 167.35 -59.45 167.35 -58.95 167.35 -58.55 167.9 -57.25 168.5 -56.35 169.35 -55.4 170.2 -54.95 170.4 -54.9 M180.55 -51.6 L178.65 -52.15 178.65 -52.05 Q176.25 -52.05 174.8 -50.25 L174.05 -48.85 174.0 -48.45 173.95 -47.95 173.9 -47.55 173.9 -47.1 173.9 -46.65 174.45 -45.35 175.0 -44.45 175.85 -43.5 176.75 -43.1 177.75 -42.8 178.65 -42.65 179.55 -42.8 180.85 -43.35 182.1 -44.1 182.9 -45.5 183.25 -46.35 183.4 -46.8 183.4 -47.25 183.4 -47.65 183.25 -48.15 183.2 -48.55 183.1 -49.05 182.85 -49.45 182.6 -49.85 182.4 -50.35 180.55 -51.6 M271.7 -74.75 L272.75 -76.5 Q273.5 -78.1 273.6 -79.9 L273.6 -80.3 273.5 -80.8 273.4 -81.2 273.3 -81.7 273.05 -82.1 272.85 -82.5 272.6 -83.0 270.75 -84.3 268.25 -84.75 268.25 -84.7 Q265.85 -84.7 264.15 -82.8 L263.5 -81.85 262.45 -82.45 260.55 -83.0 260.55 -82.95 Q258.15 -82.95 256.7 -81.1 L255.95 -79.7 255.9 -79.3 255.85 -78.85 255.8 -78.4 255.8 -77.95 255.8 -77.55 256.35 -76.2 256.9 -75.35 257.75 -74.4 Q258.15 -74.15 258.65 -73.95 L258.45 -73.5 258.35 -73.1 258.15 -72.6 258.15 -72.2 258.15 -71.7 258.15 -71.3 258.15 -70.8 258.15 -70.4 258.7 -69.1 259.3 -68.2 260.15 -67.25 261.0 -66.85 262.05 -66.55 262.9 -66.35 263.8 -66.55 Q265.35 -66.8 266.3 -67.85 L266.8 -67.75 267.65 -67.55 268.55 -67.75 269.85 -68.25 271.1 -69.05 271.95 -70.4 272.3 -71.3 272.4 -71.7 272.4 -72.2 272.4 -72.6 272.3 -73.1 272.25 -73.5 272.1 -73.95 271.9 -74.4 271.7 -74.75 M289.35 -75.75 L289.1 -76.15 288.85 -76.6 288.6 -77.05 Q287.5 -78.35 285.75 -78.6 L283.1 -78.85 280.9 -78.2 Q279.65 -77.6 279.0 -76.45 L278.55 -75.55 278.45 -75.15 278.4 -74.7 278.35 -74.25 278.35 -73.8 278.35 -73.35 278.7 -72.5 279.2 -71.6 279.9 -70.7 280.3 -70.25 Q282.85 -68.85 285.85 -69.4 287.3 -69.7 288.3 -70.8 L288.85 -71.7 289.35 -72.6 289.5 -73.1 289.65 -73.5 289.65 -73.95 289.65 -74.4 289.5 -74.85 289.45 -75.25 289.35 -75.75 M189.6 -53.3 L189.5 -52.9 189.35 -52.4 189.35 -52.0 189.35 -51.55 189.35 -51.1 189.35 -50.65 189.35 -50.25 189.85 -48.9 190.45 -48.05 191.3 -47.1 Q191.7 -46.85 192.15 -46.65 L193.2 -46.35 194.05 -46.2 194.95 -46.35 Q197.15 -46.7 198.15 -48.75 L198.8 -50.5 198.8 -50.95 198.8 -51.85 198.7 -52.3 198.65 -52.7 198.5 -53.2 198.3 -53.6 198.05 -54.0 197.8 -54.5 Q197.05 -55.35 195.95 -55.75 L194.05 -56.3 194.05 -56.2 Q192.3 -56.3 191.0 -55.1 L189.8 -53.8 189.6 -53.3 M268.85 -58.25 L269.45 -60.0 269.45 -60.45 269.4 -61.3 269.35 -61.8 269.25 -62.2 269.15 -62.7 268.9 -63.1 268.7 -63.5 268.45 -64.0 266.6 -65.25 264.7 -65.8 264.7 -65.7 Q262.9 -65.8 261.6 -64.6 L260.45 -63.3 260.25 -62.8 260.15 -62.4 259.95 -61.9 259.95 -61.5 259.95 -61.05 259.95 -60.6 259.95 -60.15 259.95 -59.7 260.5 -58.4 261.1 -57.55 261.15 -57.45 260.7 -56.6 260.65 -56.15 260.55 -54.3 260.55 -53.55 Q259.35 -53.05 258.45 -52.0 L257.75 -50.65 257.7 -50.25 257.65 -49.75 257.6 -49.35 257.6 -48.85 257.6 -48.45 258.1 -47.15 258.7 -46.25 259.55 -45.3 Q259.95 -45.05 260.45 -44.9 L261.45 -44.6 262.35 -44.4 263.2 -44.6 264.5 -45.1 264.95 -45.35 265.6 -45.2 266.5 -45.0 268.1 -45.5 Q270.3 -46.3 271.35 -48.45 271.75 -49.3 271.8 -50.25 L271.8 -50.65 271.75 -50.9 271.8 -51.1 271.8 -51.55 271.75 -52.4 271.7 -52.9 271.65 -53.3 271.5 -53.8 271.3 -54.2 271.05 -54.6 270.8 -55.1 270.05 -55.8 270.0 -55.8 270.0 -55.85 269.75 -56.75 269.5 -57.15 269.25 -57.6 269.05 -58.05 268.85 -58.25 M250.45 -58.65 L250.45 -58.6 Q248.1 -58.6 246.6 -56.75 246.1 -56.1 245.9 -55.4 L245.85 -54.95 245.75 -54.5 245.7 -54.1 245.7 -53.6 245.7 -53.2 246.25 -51.9 Q246.5 -51.4 246.85 -51.0 L247.65 -50.05 248.55 -49.65 249.55 -49.35 250.45 -49.15 251.35 -49.35 252.65 -49.85 253.9 -50.65 254.75 -52.0 255.1 -52.9 255.2 -53.3 255.2 -53.8 255.2 -54.2 255.1 -54.7 255.05 -55.1 254.9 -55.55 254.65 -56.0 254.45 -56.4 254.2 -56.85 Q253.4 -57.7 252.35 -58.1 L250.45 -58.65" fill="#66ccff" fill-rule="evenodd" stroke="none"/>
    <path d="M145.35 -71.1 L145.45 -70.8 145.7 -70.4 145.8 -69.95 145.95 -69.5 146.0 -69.05 146.0 -68.6 146.0 -68.15 145.9 -67.75 145.55 -66.85 144.7 -65.5 143.45 -64.7 142.15 -64.15 141.25 -64.0 140.4 -64.15 139.35 -64.45 138.45 -64.9 137.65 -65.85 Q137.3 -66.25 137.05 -66.75 L136.5 -68.05 136.5 -68.45 136.5 -68.9 136.55 -69.35 136.6 -69.8 136.7 -70.25 137.4 -71.6 Q138.95 -73.45 141.25 -73.45 L141.25 -73.5 143.15 -72.95 144.4 -72.25 144.75 -71.75 145.35 -71.1 M162.05 -73.75 L161.95 -73.85 161.45 -75.15 161.45 -75.55 161.45 -76.05 161.5 -76.45 161.55 -76.95 161.6 -77.35 162.3 -78.7 Q163.8 -80.55 166.2 -80.55 L166.2 -80.6 168.1 -80.1 Q169.15 -79.65 169.9 -78.85 L170.15 -78.35 170.4 -77.95 170.65 -77.55 170.75 -77.05 170.85 -76.65 170.95 -76.15 170.95 -75.75 170.95 -75.25 170.8 -74.85 170.45 -73.95 169.75 -72.7 169.55 -73.0 169.35 -73.5 167.5 -74.75 165.6 -75.25 165.6 -75.2 Q163.45 -75.2 162.05 -73.75 M151.05 -60.35 L151.65 -61.5 Q153.1 -63.35 155.5 -63.35 L155.5 -63.4 157.4 -62.85 159.25 -61.6 159.45 -61.15 159.7 -60.75 159.95 -60.3 160.05 -59.85 160.2 -59.45 160.25 -58.95 160.25 -58.55 160.25 -58.05 160.15 -57.65 159.75 -56.75 158.95 -55.4 157.7 -54.6 156.4 -54.1 155.5 -53.9 154.65 -54.1 154.9 -55.55 154.9 -56.0 154.85 -56.45 154.75 -56.85 154.6 -57.35 154.35 -57.75 154.15 -58.2 153.9 -58.65 Q153.1 -59.5 152.05 -59.9 L151.1 -60.2 151.05 -60.3 151.05 -60.35 M85.6 -72.55 L84.75 -72.8 83.85 -73.2 83.05 -74.15 Q82.7 -74.55 82.45 -75.05 L81.9 -76.35 81.9 -76.75 81.9 -77.25 81.95 -77.65 82.0 -78.1 82.1 -78.55 82.8 -79.9 Q84.35 -81.75 86.65 -81.75 L86.65 -81.8 88.55 -81.25 90.4 -80.0 90.65 -79.55 90.85 -79.15 91.1 -78.7 91.2 -78.25 91.35 -77.8 91.4 -77.35 91.4 -76.95 91.4 -76.45 91.3 -76.05 90.9 -75.15 90.55 -74.45 89.6 -74.7 89.6 -74.6 Q87.3 -74.6 85.75 -72.8 L85.6 -72.55 M96.75 -52.8 L96.75 -52.6 96.75 -52.15 96.6 -51.7 96.25 -50.8 95.45 -49.45 94.2 -48.7 Q93.6 -48.35 92.9 -48.15 L92.0 -47.95 91.15 -48.15 90.1 -48.45 Q89.6 -48.6 89.2 -48.85 L88.35 -49.8 87.8 -50.7 87.25 -52.0 87.25 -52.4 87.25 -52.9 87.3 -53.3 87.35 -53.8 87.4 -54.2 88.15 -55.55 Q89.7 -57.4 92.0 -57.4 L92.0 -57.45 93.9 -56.95 94.35 -56.7 94.35 -56.6 94.35 -56.15 94.9 -54.85 95.5 -53.95 96.35 -53.0 96.75 -52.8 M111.8 -52.15 L113.55 -50.95 113.75 -50.45 114.0 -50.05 114.25 -49.65 114.35 -49.15 114.5 -48.75 114.55 -48.25 114.55 -47.85 114.55 -47.4 114.45 -46.95 114.05 -46.05 113.25 -44.7 112.0 -43.95 110.7 -43.4 109.8 -43.2 108.95 -43.4 107.9 -43.7 107.0 -44.1 106.2 -45.05 105.7 -45.8 108.35 -45.7 Q109.85 -45.95 110.85 -47.1 L111.4 -47.95 111.9 -48.85 112.05 -49.35 112.15 -50.25 112.15 -50.65 112.1 -51.1 112.0 -51.55 111.9 -52.0 111.8 -52.15 M113.85 -69.2 Q114.95 -69.85 116.35 -69.85 L116.35 -69.95 118.25 -69.4 120.05 -68.15 120.3 -67.65 120.55 -67.25 120.8 -66.85 120.9 -66.35 121.0 -65.95 121.05 -65.5 121.05 -65.05 121.05 -64.6 120.95 -64.15 120.6 -63.3 119.75 -61.9 118.5 -61.15 Q117.95 -60.8 117.2 -60.6 L116.35 -60.45 115.6 -60.55 116.8 -61.3 117.65 -62.7 118.0 -63.6 118.1 -64.0 118.1 -64.45 118.1 -64.9 118.05 -65.35 117.95 -65.8 117.8 -66.25 117.55 -66.65 117.35 -67.1 117.1 -67.55 115.25 -68.8 113.85 -69.2 M160.85 -43.75 L160.85 -43.8 162.75 -43.3 Q163.8 -42.85 164.6 -42.05 L164.8 -41.55 165.05 -41.15 165.3 -40.75 165.4 -40.25 165.55 -39.85 165.6 -39.35 165.6 -38.95 165.6 -38.5 165.45 -38.05 165.1 -37.15 164.3 -35.8 163.05 -35.05 161.75 -34.5 160.85 -34.3 160.0 -34.5 158.95 -34.8 158.05 -35.2 157.2 -36.15 156.6 -37.05 156.1 -38.35 156.1 -38.75 156.1 -39.25 156.15 -39.65 156.2 -40.15 156.25 -40.55 157.0 -41.9 Q158.5 -43.75 160.85 -43.75 M226.05 -81.7 L232.9 -81.15 Q237.35 -80.6 238.6 -76.45 L238.6 -76.05 238.6 -75.55 238.45 -75.1 238.45 -74.7 238.3 -74.25 238.05 -73.8 237.8 -73.35 237.6 -72.9 237.1 -72.5 235.75 -71.7 233.85 -71.1 232.95 -71.3 231.95 -71.6 Q231.45 -71.75 231.05 -72.0 L224.4 -72.3 225.05 -73.35 225.4 -74.25 225.55 -74.7 225.55 -75.15 225.55 -75.55 225.4 -76.05 225.35 -76.45 225.25 -76.95 225.0 -77.35 224.75 -77.75 224.7 -77.8 224.8 -77.95 225.65 -79.3 226.0 -80.2 226.1 -80.6 226.1 -81.1 226.1 -81.5 226.05 -81.7 M209.15 -80.45 L210.1 -80.55 210.1 -80.6 212.0 -80.1 213.85 -78.85 214.05 -78.35 214.3 -77.95 214.55 -77.55 214.65 -77.05 214.75 -76.65 214.85 -76.15 214.85 -75.75 214.85 -75.25 214.75 -74.85 214.35 -73.95 213.55 -72.6 212.3 -71.85 Q211.7 -71.45 211.0 -71.3 L210.1 -71.1 209.2 -71.3 208.2 -71.6 Q207.7 -71.75 207.3 -72.0 L206.5 -72.95 206.35 -73.1 207.55 -73.6 208.8 -74.4 209.6 -75.75 210.0 -76.65 210.1 -77.05 210.1 -77.55 210.1 -77.95 210.0 -78.4 209.9 -78.85 209.8 -79.3 209.55 -79.7 209.35 -80.15 209.15 -80.45 M217.7 -60.75 L219.0 -61.05 220.9 -60.5 Q221.95 -60.1 222.75 -59.25 L223.0 -58.75 223.2 -58.35 223.45 -57.95 223.55 -57.45 223.65 -57.05 223.75 -56.6 223.75 -56.15 223.7 -55.55 Q221.8 -55.4 220.5 -53.8 L219.75 -52.4 219.7 -52.0 219.65 -51.55 219.6 -51.1 219.6 -50.75 217.8 -50.35 216.9 -50.5 215.9 -50.8 215.0 -51.25 214.2 -52.2 213.6 -53.05 213.05 -54.4 213.05 -54.8 213.05 -55.25 213.05 -55.7 213.05 -56.15 213.05 -56.6 213.25 -57.05 213.35 -57.45 213.4 -57.55 Q212.85 -57.25 212.2 -57.05 L211.3 -56.85 210.4 -57.05 209.4 -57.35 208.5 -57.75 207.65 -58.7 207.05 -59.6 206.55 -60.9 206.55 -61.3 206.55 -61.8 206.6 -62.2 206.65 -62.7 206.7 -63.1 207.45 -64.45 208.5 -65.5 208.45 -65.05 208.4 -64.6 208.3 -64.15 208.3 -63.7 208.3 -63.3 208.65 -62.4 209.15 -61.5 209.85 -60.6 210.3 -60.15 Q212.6 -58.85 215.2 -59.3 216.7 -59.6 217.7 -60.75 M228.1 -53.9 L229.4 -54.3 230.3 -54.5 232.35 -54.25 Q233.7 -54.1 234.75 -53.15 L235.2 -52.7 235.45 -52.25 235.7 -51.85 235.9 -51.4 236.05 -50.95 236.1 -50.5 236.2 -50.05 236.2 -49.65 236.2 -49.15 236.1 -48.75 235.9 -48.25 235.45 -47.4 234.9 -46.5 Q233.9 -45.35 232.4 -45.05 229.8 -44.6 227.5 -45.9 L227.05 -46.35 226.6 -46.9 227.8 -47.65 228.6 -49.05 228.95 -49.95 229.1 -50.35 229.1 -50.8 229.1 -51.25 228.95 -51.7 228.9 -52.15 228.8 -52.6 228.55 -53.0 228.3 -53.45 228.1 -53.9 M245.7 -59.7 L245.7 -59.45 245.05 -57.65 Q244.05 -55.65 241.85 -55.25 L240.95 -55.1 240.05 -55.25 239.05 -55.55 238.15 -56.0 237.35 -56.95 236.75 -57.8 236.2 -59.15 236.2 -59.55 236.2 -60.0 236.2 -60.45 236.2 -60.9 236.2 -61.3 236.4 -61.8 236.5 -62.2 236.7 -62.7 237.85 -64.0 Q239.2 -65.2 240.95 -65.1 L240.95 -65.2 242.85 -64.65 244.0 -64.0 243.95 -63.6 243.95 -63.1 243.95 -62.7 244.45 -61.4 Q244.7 -60.9 245.05 -60.5 L245.7 -59.7 M188.15 -56.4 L188.15 -56.75 188.15 -57.15 188.0 -57.65 187.95 -58.05 187.85 -58.55 187.6 -58.95 187.35 -59.35 187.15 -59.85 185.3 -61.1 183.4 -61.6 183.4 -61.55 183.05 -61.55 182.7 -62.15 182.4 -63.0 182.2 -63.4 181.95 -63.9 181.8 -64.3 181.75 -64.7 181.65 -65.2 181.6 -65.65 181.6 -66.05 181.6 -66.55 181.95 -67.4 182.4 -68.25 183.55 -69.65 185.55 -70.3 186.35 -70.45 186.35 -70.5 188.85 -70.05 190.7 -68.75 190.95 -68.25 191.15 -67.85 191.4 -67.45 191.5 -66.95 191.6 -66.55 Q190.45 -66.05 189.6 -65.05 L188.9 -63.7 188.85 -63.3 188.8 -62.8 188.75 -62.4 188.75 -61.9 188.75 -61.5 189.25 -60.2 Q189.5 -59.7 189.85 -59.3 L190.7 -58.35 Q191.1 -58.1 191.6 -57.95 L192.1 -57.75 191.35 -57.3 Q190.5 -56.8 189.6 -56.5 L188.75 -56.3 188.15 -56.4 M189.6 -53.3 L189.8 -53.8 191.0 -55.1 Q192.3 -56.3 194.05 -56.2 L194.05 -56.3 195.95 -55.75 Q197.05 -55.35 197.8 -54.5 L198.05 -54.0 198.3 -53.6 198.5 -53.2 198.65 -52.7 198.7 -52.3 198.8 -51.85 198.8 -50.95 198.8 -50.5 198.15 -48.75 Q197.15 -46.7 194.95 -46.35 L194.05 -46.2 193.2 -46.35 192.15 -46.65 Q191.7 -46.85 191.3 -47.1 L190.45 -48.05 189.85 -48.9 189.35 -50.25 189.35 -50.65 189.35 -51.1 189.35 -51.55 189.35 -52.0 189.35 -52.4 189.5 -52.9 189.6 -53.3 M289.35 -75.75 L289.45 -75.25 289.5 -74.85 289.65 -74.4 289.65 -73.95 289.65 -73.5 289.5 -73.1 289.35 -72.6 288.85 -71.7 288.3 -70.8 Q287.3 -69.7 285.85 -69.4 282.85 -68.85 280.3 -70.25 L279.9 -70.7 279.2 -71.6 278.7 -72.5 278.35 -73.35 278.35 -73.8 278.35 -74.25 278.4 -74.7 278.45 -75.15 278.55 -75.55 279.0 -76.45 Q279.65 -77.6 280.9 -78.2 L283.1 -78.85 285.75 -78.6 Q287.5 -78.35 288.6 -77.05 L288.85 -76.6 289.1 -76.15 289.35 -75.75 M263.5 -81.85 L264.15 -82.8 Q265.85 -84.7 268.25 -84.7 L268.25 -84.75 270.75 -84.3 272.6 -83.0 272.85 -82.5 273.05 -82.1 273.3 -81.7 273.4 -81.2 273.5 -80.8 273.6 -80.3 273.6 -79.9 Q273.5 -78.1 272.75 -76.5 L271.7 -74.75 271.65 -74.8 271.4 -75.25 269.55 -76.5 267.65 -77.05 267.65 -77.0 Q265.9 -77.0 264.6 -75.9 L264.8 -76.35 265.15 -77.25 265.3 -77.65 265.3 -78.1 265.3 -78.55 265.15 -79.0 265.1 -79.45 265.0 -79.9 264.75 -80.3 264.5 -80.75 264.3 -81.2 263.5 -81.85 M266.3 -67.85 Q265.35 -66.8 263.8 -66.55 L262.9 -66.35 262.05 -66.55 261.0 -66.85 260.15 -67.25 259.3 -68.2 258.7 -69.1 258.15 -70.4 258.15 -70.8 258.15 -71.3 258.15 -71.7 258.15 -72.2 258.15 -72.6 258.35 -73.1 258.45 -73.5 258.65 -73.95 259.65 -73.65 260.55 -73.5 261.45 -73.65 Q262.15 -73.85 262.75 -74.2 L263.5 -74.6 263.1 -73.8 263.05 -73.35 263.0 -72.9 262.9 -72.5 262.9 -72.0 262.9 -71.6 263.45 -70.3 264.05 -69.4 264.9 -68.45 265.75 -68.05 266.3 -67.85 M268.85 -58.25 L269.05 -58.05 269.25 -57.6 269.5 -57.15 269.75 -56.75 270.0 -55.85 270.0 -55.8 268.95 -56.35 267.6 -56.7 Q268.3 -57.3 268.8 -58.25 L268.85 -58.25 M271.75 -50.9 L271.8 -50.65 271.8 -50.25 Q271.75 -49.3 271.35 -48.45 270.3 -46.3 268.1 -45.5 L266.5 -45.0 265.6 -45.2 264.95 -45.35 265.75 -45.9 266.4 -46.9 267.05 -46.8 267.95 -46.95 Q270.15 -47.3 271.1 -49.35 L271.75 -50.9 M260.55 -53.55 L260.55 -54.3 260.65 -56.15 260.7 -56.6 261.15 -57.45 261.9 -56.6 262.8 -56.15 263.8 -55.85 264.1 -55.8 264.0 -55.7 262.8 -54.4 262.6 -53.9 262.6 -53.85 262.35 -53.9 262.35 -53.85 260.55 -53.55" fill="#55c8ff" fill-rule="evenodd" stroke="none"/>
    <path d="M169.75 -72.7 L169.8 -72.6 170.05 -72.2 170.15 -71.7 170.25 -71.3 170.35 -70.8 170.35 -70.4 170.35 -69.95 170.2 -69.5 169.85 -68.6 169.05 -67.25 167.8 -66.5 166.5 -65.95 165.6 -65.8 164.75 -65.95 163.7 -66.25 162.8 -66.65 161.95 -67.6 161.35 -68.5 160.85 -69.8 160.85 -70.25 160.85 -70.7 160.9 -71.1 160.95 -71.6 161.0 -72.0 161.75 -73.35 162.05 -73.75 Q163.45 -75.2 165.6 -75.2 L165.6 -75.25 167.5 -74.75 169.35 -73.5 169.55 -73.0 169.75 -72.7 M128.95 -80.3 L129.7 -81.7 Q131.2 -83.5 133.55 -83.5 L133.55 -83.6 135.45 -83.05 137.3 -81.8 137.5 -81.35 137.75 -80.9 138.0 -80.5 138.1 -80.0 138.25 -79.6 138.3 -79.15 138.3 -78.7 138.3 -78.25 138.15 -77.8 137.8 -76.95 137.0 -75.55 135.75 -74.8 134.45 -74.25 133.55 -74.1 132.7 -74.25 131.65 -74.55 130.75 -74.95 129.9 -75.9 129.3 -76.8 128.8 -78.1 128.8 -78.55 128.8 -79.0 128.85 -79.45 128.9 -79.9 128.95 -80.3 M131.75 -50.65 L131.7 -50.7 131.15 -52.0 131.15 -52.4 131.15 -52.9 131.2 -53.3 131.3 -53.8 131.35 -54.2 132.05 -55.55 Q133.6 -57.4 135.9 -57.4 L135.9 -57.45 137.8 -56.95 139.65 -55.7 139.9 -55.2 140.15 -54.8 140.35 -54.4 140.5 -53.9 140.6 -53.5 140.65 -53.0 140.65 -52.6 140.65 -52.15 140.55 -51.7 140.2 -50.8 139.35 -49.45 138.1 -48.7 136.8 -48.15 135.9 -47.95 135.1 -48.15 134.85 -48.2 134.8 -48.25 134.55 -48.7 134.3 -49.15 132.45 -50.4 131.75 -50.65 M144.85 -54.3 L144.7 -54.4 143.8 -54.8 142.95 -55.75 142.4 -56.65 141.85 -57.95 141.85 -58.35 141.85 -58.85 141.9 -59.25 141.95 -59.7 142.0 -60.15 142.75 -61.5 Q144.3 -63.35 146.6 -63.35 L146.6 -63.4 148.5 -62.85 Q149.55 -62.45 150.35 -61.6 L150.55 -61.15 150.8 -60.75 151.05 -60.35 151.05 -60.3 151.1 -60.2 150.15 -60.45 150.15 -60.35 Q147.7 -60.35 146.05 -58.5 145.35 -57.65 145.0 -56.6 L144.95 -56.15 144.85 -55.7 144.8 -55.25 144.8 -54.8 144.8 -54.4 144.85 -54.3 M94.45 -57.3 L94.25 -57.35 93.35 -57.75 92.55 -58.7 91.95 -59.6 91.4 -60.9 91.4 -61.3 91.4 -61.8 91.45 -62.2 91.5 -62.7 91.6 -63.1 Q91.8 -63.8 92.3 -64.45 93.85 -66.3 96.15 -66.3 L96.15 -66.35 98.05 -65.85 99.9 -64.6 100.1 -64.1 100.35 -63.7 100.6 -63.3 100.7 -62.8 100.85 -62.4 100.9 -61.9 100.9 -61.5 100.9 -61.1 99.1 -61.6 99.1 -61.55 Q96.8 -61.55 95.25 -59.7 L94.55 -58.35 94.5 -57.95 94.45 -57.45 94.45 -57.3 M102.1 -50.6 L102.15 -50.95 102.2 -51.4 102.25 -51.85 102.95 -53.2 Q104.15 -54.6 105.95 -54.9 L106.85 -55.1 109.4 -54.6 Q110.4 -54.15 111.15 -53.3 L111.4 -52.85 111.65 -52.4 111.8 -52.15 111.9 -52.0 112.0 -51.55 112.1 -51.1 112.15 -50.65 112.15 -50.25 112.05 -49.35 111.9 -48.85 111.4 -47.95 110.85 -47.1 Q109.85 -45.95 108.35 -45.7 L105.7 -45.8 105.65 -45.8 105.65 -46.05 105.65 -46.5 105.6 -46.95 105.45 -47.4 105.35 -47.85 105.1 -48.25 104.85 -48.7 104.65 -49.15 102.8 -50.4 102.1 -50.6 M110.05 -61.3 L109.5 -61.2 108.6 -61.05 107.8 -61.2 106.7 -61.5 105.8 -61.9 105.0 -62.85 104.4 -63.75 103.85 -65.05 103.85 -65.5 103.85 -65.95 103.85 -66.35 103.85 -66.85 103.85 -67.25 104.05 -67.75 104.15 -68.15 104.35 -68.6 105.5 -69.95 Q106.85 -71.1 108.6 -71.05 L108.6 -71.1 110.5 -70.6 112.35 -69.35 112.4 -69.15 Q110.75 -68.85 109.5 -67.45 L108.8 -66.05 108.75 -65.65 108.65 -65.2 108.6 -64.75 108.6 -64.3 108.6 -63.9 109.15 -62.55 109.75 -61.7 110.05 -61.3 M217.45 -78.65 L217.15 -79.2 216.65 -80.5 216.65 -80.9 216.65 -81.4 216.7 -81.8 216.75 -82.25 216.8 -82.7 217.5 -84.05 Q219.0 -85.9 221.35 -85.9 L221.35 -85.95 223.25 -85.4 Q224.35 -85.0 225.1 -84.15 L225.35 -83.7 225.6 -83.3 225.85 -82.85 225.95 -82.4 226.0 -82.0 226.05 -81.7 226.1 -81.5 226.1 -81.1 226.1 -80.6 226.0 -80.2 225.65 -79.3 224.8 -77.95 224.7 -77.8 224.5 -78.25 222.7 -79.5 220.8 -80.0 220.8 -79.95 Q218.8 -79.95 217.45 -78.65 M208.5 -65.5 L209.2 -66.85 Q210.4 -68.25 212.2 -68.55 L213.05 -68.75 215.15 -68.5 Q216.5 -68.35 217.5 -67.4 L218.0 -66.95 218.25 -66.5 218.45 -66.05 218.7 -65.65 218.8 -65.2 218.9 -64.75 219.0 -64.3 219.0 -63.9 219.0 -63.4 218.9 -63.0 218.7 -62.5 218.25 -61.6 217.7 -60.75 Q216.7 -59.6 215.2 -59.3 212.6 -58.85 210.3 -60.15 L209.85 -60.6 209.15 -61.5 208.65 -62.4 208.3 -63.3 208.3 -63.7 208.3 -64.15 208.4 -64.6 208.45 -65.05 208.5 -65.5 M213.05 -51.55 L214.95 -51.0 216.8 -49.75 217.05 -49.3 217.3 -48.85 217.5 -48.45 217.65 -47.95 217.7 -47.55 217.8 -47.1 217.8 -46.65 217.8 -46.2 217.7 -45.8 217.35 -44.9 216.5 -43.5 215.25 -42.75 Q214.65 -42.4 213.95 -42.2 L213.05 -42.05 212.2 -42.2 211.15 -42.5 Q210.7 -42.7 210.3 -42.95 L209.45 -43.9 208.85 -44.75 208.3 -46.05 208.3 -46.5 208.3 -46.95 208.4 -47.4 208.45 -47.85 208.5 -48.25 209.2 -49.65 Q210.7 -51.45 213.05 -51.45 L213.05 -51.55 M245.85 -67.2 L245.85 -67.45 245.9 -67.85 Q246.1 -68.55 246.6 -69.2 248.1 -71.05 250.45 -71.05 L250.45 -71.1 252.35 -70.6 Q253.4 -70.15 254.2 -69.35 L254.45 -68.85 254.65 -68.45 254.9 -68.05 255.05 -67.55 255.1 -67.15 255.2 -66.65 255.2 -66.25 255.2 -65.8 255.1 -65.35 254.75 -64.45 253.9 -63.1 253.4 -62.75 253.4 -62.8 253.4 -63.3 253.4 -63.7 253.3 -64.15 253.25 -64.6 253.15 -65.05 252.9 -65.5 252.65 -65.9 252.4 -66.35 Q251.65 -67.2 250.55 -67.6 L248.65 -68.15 248.65 -68.1 Q247.0 -68.1 245.85 -67.2 M170.4 -54.9 L171.3 -54.7 172.1 -54.5 173.0 -54.7 Q175.2 -55.05 176.2 -57.05 L176.85 -58.85 176.85 -59.25 176.85 -60.15 176.8 -60.6 176.7 -61.05 176.55 -61.5 176.35 -61.9 176.1 -62.35 175.85 -62.8 175.5 -63.1 Q176.8 -62.95 177.75 -62.05 L178.25 -61.6 178.45 -61.15 178.7 -60.75 178.95 -60.3 179.05 -59.85 179.2 -59.45 179.2 -59.2 179.55 -59.7 Q180.9 -61.45 183.05 -61.55 L183.4 -61.55 183.4 -61.6 185.3 -61.1 187.15 -59.85 187.35 -59.35 187.6 -58.95 187.85 -58.55 187.95 -58.05 188.0 -57.65 188.15 -57.15 188.15 -56.75 188.15 -56.4 188.15 -56.3 188.0 -55.85 187.65 -54.95 186.85 -53.6 185.6 -52.85 Q185.0 -52.5 184.3 -52.3 L183.4 -52.15 182.5 -52.3 181.5 -52.6 180.6 -53.0 179.75 -53.95 179.2 -54.85 178.65 -56.15 178.65 -56.6 178.45 -56.3 177.95 -55.4 Q176.9 -54.25 175.45 -53.95 172.85 -53.5 170.5 -54.8 L170.4 -54.9 M271.7 -74.75 L271.9 -74.4 272.1 -73.95 272.25 -73.5 272.3 -73.1 272.4 -72.6 272.4 -72.2 272.4 -71.7 272.3 -71.3 271.95 -70.4 271.1 -69.05 269.85 -68.25 268.55 -67.75 267.65 -67.55 266.8 -67.75 266.3 -67.85 265.75 -68.05 264.9 -68.45 264.05 -69.4 263.45 -70.3 262.9 -71.6 262.9 -72.0 262.9 -72.5 263.0 -72.9 263.05 -73.35 263.1 -73.8 263.5 -74.6 262.75 -74.2 Q262.15 -73.85 261.45 -73.65 L260.55 -73.5 259.65 -73.65 258.65 -73.95 Q258.15 -74.15 257.75 -74.4 L256.9 -75.35 256.35 -76.2 255.8 -77.55 255.8 -77.95 255.8 -78.4 255.85 -78.85 255.9 -79.3 255.95 -79.7 256.7 -81.1 Q258.15 -82.95 260.55 -82.95 L260.55 -83.0 262.45 -82.45 263.5 -81.85 264.3 -81.2 264.5 -80.75 264.75 -80.3 265.0 -79.9 265.1 -79.45 265.15 -79.0 265.3 -78.55 265.3 -78.1 265.3 -77.65 265.15 -77.25 264.8 -76.35 264.6 -75.9 Q265.9 -77.0 267.65 -77.0 L267.65 -77.05 269.55 -76.5 271.4 -75.25 271.65 -74.8 271.7 -74.75 M264.95 -45.35 L264.5 -45.1 263.2 -44.6 262.35 -44.4 261.45 -44.6 260.45 -44.9 Q259.95 -45.05 259.55 -45.3 L258.7 -46.25 258.1 -47.15 257.6 -48.45 257.6 -48.85 257.6 -49.35 257.65 -49.75 257.7 -50.25 257.75 -50.65 258.45 -52.0 Q259.35 -53.05 260.55 -53.55 L262.35 -53.85 262.35 -53.9 262.6 -53.85 262.5 -53.5 262.35 -53.0 262.35 -52.6 262.35 -52.15 262.35 -51.7 262.35 -51.25 262.35 -50.8 262.85 -49.5 263.45 -48.6 264.3 -47.65 265.15 -47.25 266.2 -46.95 266.4 -46.9 265.75 -45.9 264.95 -45.35 M250.45 -58.65 L252.35 -58.1 Q253.4 -57.7 254.2 -56.85 L254.45 -56.4 254.65 -56.0 254.9 -55.55 255.05 -55.1 255.1 -54.7 255.2 -54.2 255.2 -53.8 255.2 -53.3 255.1 -52.9 254.75 -52.0 253.9 -50.65 252.65 -49.85 251.35 -49.35 250.45 -49.15 249.55 -49.35 248.55 -49.65 247.65 -50.05 246.85 -51.0 Q246.5 -51.4 246.25 -51.9 L245.7 -53.2 245.7 -53.6 245.7 -54.1 245.75 -54.5 245.85 -54.95 245.9 -55.4 Q246.1 -56.1 246.6 -56.75 248.1 -58.6 250.45 -58.6 L250.45 -58.65" fill="#22b7ff" fill-rule="evenodd" stroke="none"/>
    <path d="M144.4 -72.25 L144.15 -72.65 143.65 -73.95 143.65 -74.4 143.65 -74.85 143.65 -75.25 143.65 -75.75 143.65 -76.15 143.8 -76.65 143.9 -77.05 144.1 -77.55 145.3 -78.85 Q146.6 -80.0 148.35 -79.95 L148.35 -80.0 150.25 -79.5 152.1 -78.25 152.35 -77.75 152.6 -77.35 152.85 -76.95 152.95 -76.45 153.05 -76.05 153.1 -75.55 153.1 -74.7 153.1 -74.25 152.45 -72.5 Q151.45 -70.45 149.25 -70.1 L148.35 -69.95 147.55 -70.1 146.5 -70.4 145.6 -70.8 145.35 -71.1 144.75 -71.75 144.4 -72.25 M132.3 -65.95 L132.35 -65.5 132.35 -65.05 132.35 -64.6 132.25 -64.15 131.9 -63.3 131.05 -61.9 129.8 -61.15 Q129.2 -60.8 128.5 -60.6 L127.6 -60.45 126.75 -60.6 125.7 -60.9 124.8 -61.3 124.0 -62.25 123.4 -63.15 122.85 -64.45 122.85 -64.9 122.85 -65.35 122.9 -65.8 122.95 -66.25 123.05 -66.65 Q123.25 -67.4 123.75 -68.05 125.3 -69.85 127.6 -69.85 L127.6 -69.95 129.5 -69.4 131.35 -68.15 131.6 -67.65 131.8 -67.25 132.05 -66.85 132.15 -66.35 132.3 -65.95 M134.85 -48.2 L135.0 -47.85 135.15 -47.4 135.25 -46.95 135.3 -46.5 135.3 -46.05 135.3 -45.6 135.2 -45.2 134.85 -44.3 134.0 -42.95 132.75 -42.15 Q132.15 -41.8 131.45 -41.6 L130.55 -41.45 129.75 -41.6 128.65 -41.9 127.8 -42.35 126.95 -43.3 126.35 -44.15 125.8 -45.5 125.8 -45.9 125.8 -46.35 125.9 -46.8 125.95 -47.25 126.0 -47.65 126.7 -49.05 Q128.25 -50.9 130.55 -50.9 L130.55 -50.95 131.75 -50.65 132.45 -50.4 134.3 -49.15 134.55 -48.7 134.8 -48.25 134.85 -48.2 M154.65 -54.1 L154.25 -53.25 Q152.65 -50.6 149.55 -50.35 L148.75 -50.5 147.65 -50.8 146.75 -51.25 145.95 -52.2 145.35 -53.05 144.85 -54.3 144.8 -54.4 144.8 -54.8 144.8 -55.25 144.85 -55.7 144.95 -56.15 145.0 -56.6 Q145.35 -57.65 146.05 -58.5 147.7 -60.35 150.15 -60.35 L150.15 -60.45 151.1 -60.2 152.05 -59.9 Q153.1 -59.5 153.9 -58.65 L154.15 -58.2 154.35 -57.75 154.6 -57.35 154.75 -56.85 154.85 -56.45 154.9 -56.0 154.9 -55.55 154.65 -54.1 M110.1 -78.1 Q111.65 -79.95 113.95 -79.95 L113.95 -80.0 115.85 -79.5 117.7 -78.25 117.95 -77.75 118.15 -77.35 118.4 -76.95 118.5 -76.45 118.65 -76.05 118.7 -75.55 118.7 -75.15 118.7 -74.7 118.6 -74.25 118.25 -73.35 117.4 -72.0 116.15 -71.25 114.85 -70.7 113.95 -70.5 113.1 -70.7 112.05 -71.0 111.15 -71.4 110.35 -72.35 109.75 -73.25 109.2 -74.55 109.2 -74.95 109.2 -75.45 109.25 -75.85 109.3 -76.35 109.4 -76.75 110.1 -78.1 M90.55 -74.45 L91.5 -74.15 93.35 -72.9 93.6 -72.4 93.85 -72.0 94.05 -71.6 94.2 -71.1 94.3 -70.7 94.35 -70.25 94.35 -69.8 94.35 -69.35 94.25 -68.9 93.9 -68.05 93.05 -66.65 91.8 -65.9 90.5 -65.35 89.6 -65.2 88.8 -65.35 87.7 -65.65 86.85 -66.05 86.0 -67.0 85.4 -67.9 84.85 -69.2 84.85 -69.65 84.85 -70.1 84.95 -70.5 85.0 -71.0 85.05 -71.4 85.6 -72.55 85.75 -72.8 Q87.3 -74.6 89.6 -74.6 L89.6 -74.7 90.55 -74.45 M100.9 -61.1 L101.0 -61.1 102.85 -59.85 103.1 -59.35 103.35 -58.95 103.55 -58.55 103.7 -58.05 103.8 -57.65 103.85 -57.15 103.85 -56.75 103.85 -56.3 103.75 -55.85 103.4 -54.95 102.55 -53.6 101.3 -52.85 Q100.7 -52.5 100.0 -52.3 L99.1 -52.15 98.3 -52.3 97.2 -52.6 96.75 -52.8 96.35 -53.0 95.5 -53.95 94.9 -54.85 94.35 -56.15 94.35 -56.6 94.35 -56.7 94.35 -57.05 94.45 -57.3 94.45 -57.45 94.5 -57.95 94.55 -58.35 95.25 -59.7 Q96.8 -61.55 99.1 -61.55 L99.1 -61.6 100.9 -61.1 M105.65 -45.8 L105.65 -45.6 105.5 -45.2 105.15 -44.3 104.35 -42.95 103.1 -42.15 Q102.5 -41.8 101.8 -41.6 L100.9 -41.45 100.05 -41.6 99.0 -41.9 98.1 -42.35 97.3 -43.3 96.7 -44.15 96.15 -45.5 96.15 -45.9 96.15 -46.35 96.2 -46.8 96.25 -47.25 96.35 -47.65 Q96.55 -48.4 97.05 -49.05 98.6 -50.9 100.9 -50.9 L100.9 -50.95 102.1 -50.6 102.8 -50.4 104.65 -49.15 104.85 -48.7 105.1 -48.25 105.35 -47.85 105.45 -47.4 105.6 -46.95 105.65 -46.5 105.65 -46.05 105.65 -45.8 M115.6 -60.55 L115.55 -60.55 114.25 -60.0 113.35 -59.85 112.55 -60.0 111.45 -60.3 110.55 -60.75 110.05 -61.3 109.75 -61.7 109.15 -62.55 108.6 -63.9 108.6 -64.3 108.6 -64.75 108.65 -65.2 108.75 -65.65 108.8 -66.05 109.5 -67.45 Q110.75 -68.85 112.4 -69.15 L113.35 -69.3 113.35 -69.35 113.85 -69.2 115.25 -68.8 117.1 -67.55 117.35 -67.1 117.55 -66.65 117.8 -66.25 117.95 -65.8 118.05 -65.35 118.1 -64.9 118.1 -64.45 118.1 -64.0 118.0 -63.6 117.65 -62.7 116.8 -61.3 115.6 -60.55 M224.4 -72.3 L224.2 -72.0 223.0 -71.25 Q222.4 -70.9 221.65 -70.7 L220.8 -70.5 219.9 -70.7 218.9 -71.0 218.0 -71.4 217.15 -72.35 216.55 -73.25 216.05 -74.55 216.05 -74.95 216.05 -75.45 216.1 -75.85 216.15 -76.35 216.2 -76.75 216.9 -78.1 217.45 -78.65 Q218.8 -79.95 220.8 -79.95 L220.8 -80.0 222.7 -79.5 224.5 -78.25 224.7 -77.8 224.75 -77.75 225.0 -77.35 225.25 -76.95 225.35 -76.45 225.4 -76.05 225.55 -75.55 225.55 -75.15 225.55 -74.7 225.4 -74.25 225.05 -73.35 224.4 -72.3 M206.35 -73.1 L206.25 -73.1 205.35 -72.9 204.45 -73.1 203.45 -73.35 202.55 -73.8 201.75 -74.75 201.15 -75.65 200.6 -76.95 200.6 -77.35 200.6 -77.8 200.65 -78.25 200.7 -78.7 200.8 -79.15 201.5 -80.5 Q203.0 -82.35 205.35 -82.35 L205.35 -82.4 207.25 -81.85 Q208.3 -81.45 209.1 -80.6 L209.15 -80.45 209.35 -80.15 209.55 -79.7 209.8 -79.3 209.9 -78.85 210.0 -78.4 210.1 -77.95 210.1 -77.55 210.1 -77.05 210.0 -76.65 209.6 -75.75 208.8 -74.4 207.55 -73.6 206.35 -73.1 M223.7 -55.55 L224.35 -55.65 224.35 -55.7 226.25 -55.15 228.1 -53.9 228.3 -53.45 228.55 -53.0 228.8 -52.6 228.9 -52.15 228.95 -51.7 229.1 -51.25 229.1 -50.8 229.1 -50.35 228.95 -49.95 228.6 -49.05 227.8 -47.65 226.6 -46.9 226.55 -46.9 225.25 -46.35 224.35 -46.2 223.45 -46.35 222.45 -46.65 Q221.95 -46.85 221.55 -47.1 L220.7 -48.05 Q220.35 -48.45 220.15 -48.9 L219.6 -50.25 219.6 -50.65 219.6 -50.75 219.6 -51.1 219.65 -51.55 219.7 -52.0 219.75 -52.4 220.5 -53.8 Q221.8 -55.4 223.7 -55.55 M244.0 -64.0 L244.05 -64.45 244.1 -64.9 244.8 -66.25 245.85 -67.2 Q247.0 -68.1 248.65 -68.1 L248.65 -68.15 250.55 -67.6 Q251.65 -67.2 252.4 -66.35 L252.65 -65.9 252.9 -65.5 253.15 -65.05 253.25 -64.6 253.3 -64.15 253.4 -63.7 253.4 -63.3 253.4 -62.8 253.4 -62.75 253.3 -62.4 252.95 -61.5 252.1 -60.15 250.85 -59.35 249.55 -58.85 248.65 -58.65 247.8 -58.85 246.8 -59.15 Q246.3 -59.3 245.9 -59.55 245.75 -59.65 245.7 -59.7 L245.05 -60.5 Q244.7 -60.9 244.45 -61.4 L243.95 -62.7 243.95 -63.1 243.95 -63.6 244.0 -64.0 M175.5 -63.1 L175.85 -62.8 176.1 -62.35 176.35 -61.9 176.55 -61.5 176.7 -61.05 176.8 -60.6 176.85 -60.15 176.85 -59.25 176.85 -58.85 176.2 -57.05 Q175.2 -55.05 173.0 -54.7 L172.1 -54.5 171.3 -54.7 170.4 -54.9 170.2 -54.95 169.35 -55.4 168.5 -56.35 167.9 -57.25 167.35 -58.55 167.35 -58.95 167.35 -59.45 167.35 -59.85 167.35 -60.3 167.35 -60.75 167.55 -61.2 167.65 -61.6 167.85 -62.1 169.05 -63.4 Q170.35 -64.6 172.1 -64.55 L172.1 -64.6 174.0 -64.05 Q174.85 -63.7 175.5 -63.1 M191.6 -66.55 L193.5 -66.9 193.5 -66.95 195.4 -66.45 Q196.45 -66.0 197.2 -65.2 L197.45 -64.7 197.7 -64.3 197.95 -63.9 198.05 -63.4 198.1 -63.0 198.25 -62.5 198.25 -62.1 198.25 -61.6 198.1 -61.2 197.75 -60.3 196.9 -58.95 195.7 -58.2 Q195.1 -57.8 194.35 -57.65 L193.5 -57.45 192.6 -57.65 192.1 -57.75 191.6 -57.95 Q191.1 -58.1 190.7 -58.35 L189.85 -59.3 Q189.5 -59.7 189.25 -60.2 L188.75 -61.5 188.75 -61.9 188.75 -62.4 188.8 -62.8 188.85 -63.3 188.9 -63.7 189.6 -65.05 Q190.45 -66.05 191.6 -66.55 M180.55 -51.6 L182.4 -50.35 182.6 -49.85 182.85 -49.45 183.1 -49.05 183.2 -48.55 183.25 -48.15 183.4 -47.65 183.4 -47.25 183.4 -46.8 183.25 -46.35 182.9 -45.5 182.1 -44.1 180.85 -43.35 179.55 -42.8 178.65 -42.65 177.75 -42.8 176.75 -43.1 175.85 -43.5 175.0 -44.45 174.45 -45.35 173.9 -46.65 173.9 -47.1 173.9 -47.55 173.95 -47.95 174.0 -48.45 174.05 -48.85 174.8 -50.25 Q176.25 -52.05 178.65 -52.05 L178.65 -52.15 180.55 -51.6 M261.15 -57.45 L261.1 -57.55 260.5 -58.4 259.95 -59.7 259.95 -60.15 259.95 -60.6 259.95 -61.05 259.95 -61.5 259.95 -61.9 260.15 -62.4 260.25 -62.8 260.45 -63.3 261.6 -64.6 Q262.9 -65.8 264.7 -65.7 L264.7 -65.8 266.6 -65.25 268.45 -64.0 268.7 -63.5 268.9 -63.1 269.15 -62.7 269.25 -62.2 269.35 -61.8 269.4 -61.3 269.45 -60.45 269.45 -60.0 268.85 -58.25 268.8 -58.25 Q268.3 -57.3 267.6 -56.7 L268.95 -56.35 270.0 -55.8 270.05 -55.8 270.8 -55.1 271.05 -54.6 271.3 -54.2 271.5 -53.8 271.65 -53.3 271.7 -52.9 271.75 -52.4 271.8 -51.55 271.8 -51.1 271.75 -50.9 271.1 -49.35 Q270.15 -47.3 267.95 -46.95 L267.05 -46.8 266.4 -46.9 266.2 -46.95 265.15 -47.25 264.3 -47.65 263.45 -48.6 262.85 -49.5 262.35 -50.8 262.35 -51.25 262.35 -51.7 262.35 -52.15 262.35 -52.6 262.35 -53.0 262.5 -53.5 262.6 -53.85 262.6 -53.9 262.8 -54.4 264.0 -55.7 264.1 -55.8 263.8 -55.85 262.8 -56.15 261.9 -56.6 261.15 -57.45" fill="#84d7ff" fill-rule="evenodd" stroke="none"/>
  </g>
</svg>
