<?xml version="1.0" encoding="UTF-8" standalone="no"?>
<svg xmlns:ffdec="https://www.free-decompiler.com/flash" xmlns:xlink="http://www.w3.org/1999/xlink" ffdec:objectType="shape" height="8.65px" width="21.15px" xmlns="http://www.w3.org/2000/svg">
  <g transform="matrix(1.0, 0.0, 0.0, 1.0, 10.65, 8.35)">
    <path d="M7.5 -6.4 L9.55 -6.25 10.2 -6.15 10.25 -6.15 10.25 -6.1 10.3 -6.1 10.3 -5.85 10.25 -5.85 10.2 -5.8 10.0 -5.75 10.1 -5.65 Q10.55 -4.35 9.9 -3.2 9.9 -3.1 9.8 -3.15 L9.7 -3.15 9.25 -2.95 8.9 -3.1 Q8.6 -3.05 8.35 -3.25 L8.15 -3.4 7.9 -3.5 7.7 -3.65 7.45 -3.55 7.1 -3.55 6.25 -3.45 6.05 -3.7 6.0 -3.65 5.9 -3.5 5.85 -3.45 Q5.25 -3.05 4.9 -3.65 L4.8 -4.05 Q4.2 -3.6 3.85 -4.25 L3.75 -4.7 Q3.35 -4.1 2.75 -4.5 2.5 -4.65 2.5 -4.9 2.15 -4.85 1.9 -5.05 L1.75 -5.3 1.7 -5.3 1.7 -5.25 1.65 -5.2 1.65 -5.15 Q1.4 -4.9 1.1 -4.95 L0.8 -5.2 0.25 -5.25 -0.05 -5.4 -0.05 -5.35 -0.1 -5.35 -0.15 -5.25 -0.15 -5.2 -0.45 -5.0 -0.7 -4.95 Q-0.9 -4.3 -1.55 -4.15 -1.85 -4.1 -2.0 -4.4 L-2.05 -4.5 -2.65 -4.5 -2.9 -4.8 -3.3 -4.55 -3.75 -4.5 Q-4.1 -3.7 -4.85 -3.9 L-5.15 -4.25 -5.3 -4.15 -5.35 -4.05 -5.4 -3.95 -5.6 -3.8 -5.85 -3.75 Q-6.0 -3.35 -6.35 -3.25 -6.8 -3.15 -7.0 -3.5 L-7.45 -3.55 -7.6 -3.65 Q-7.8 -3.45 -8.1 -3.5 L-8.45 -3.75 -8.7 -3.6 -9.0 -3.6 Q-9.7 -3.0 -9.95 -3.9 L-10.05 -4.4 Q-10.2 -5.3 -9.5 -5.55 L-8.75 -5.7 -8.7 -5.7 -9.45 -5.75 -9.5 -5.8 -9.55 -5.8 -9.85 -5.85 -9.9 -5.9 -9.9 -5.95 -10.0 -6.0 -10.0 -6.1 -9.9 -6.15 -6.55 -6.2 -5.5 -6.2 -4.65 -6.25 -0.75 -6.95 -0.55 -7.0 -0.5 -7.0 -0.05 -7.15 0.0 -7.15 0.1 -7.2 0.15 -7.25 0.3 -7.25 0.4 -7.25 0.45 -7.25 1.2 -7.55 1.3 -7.65 1.35 -7.65 1.45 -7.7 1.55 -7.7 1.8 -7.6 1.95 -7.5 2.3 -7.4 2.45 -7.3 2.5 -7.25 2.55 -7.25 2.6 -7.2 2.7 -7.2 2.7 -7.15 2.85 -7.15 2.95 -7.1 3.35 -6.95 4.0 -6.85 4.05 -6.9 4.55 -6.75 4.6 -6.75 4.85 -6.75 5.7 -6.55 6.7 -6.4 6.9 -6.35 7.05 -6.4 7.2 -6.4 7.5 -6.4 M-5.65 -5.5 L-5.45 -5.75 -7.45 -5.75 -8.1 -5.7 -7.9 -5.55 -7.55 -5.65 -7.15 -5.5 -6.7 -5.65 -6.35 -5.5 -6.0 -5.55 -5.65 -5.5 M-4.25 -5.85 L-4.35 -5.85 -4.3 -5.8 -4.3 -5.75 -4.15 -5.85 -4.25 -5.85" fill="#666666" fill-rule="evenodd" stroke="none"/>
    <path d="M3.55 -5.4 L3.7 -5.2 Q4.15 -5.15 4.4 -4.75 L4.45 -4.55 4.85 -4.55 5.1 -4.45 6.0 -4.4 6.1 -4.3 7.05 -4.35 7.1 -4.25 7.4 -4.2 7.55 -4.1 8.1 -4.3 8.35 -4.25 Q8.55 -4.85 9.15 -4.6 L9.35 -4.45 9.55 -3.75 9.55 -3.2 9.75 -3.15 9.95 -3.0 10.1 -1.75 10.1 -1.0 10.05 -0.75 9.95 -0.95 9.85 -1.05 9.85 -0.95 9.85 -0.7 9.8 -0.6 9.8 -0.5 9.8 -0.4 9.8 -0.25 9.8 -0.15 9.8 -0.1 9.75 -0.05 9.75 0.05 9.7 0.1 9.65 0.1 9.6 0.15 9.5 0.25 9.45 0.25 9.4 0.3 9.3 0.3 9.2 0.3 9.1 0.25 9.0 0.2 8.9 0.1 8.75 0.1 8.45 0.0 8.35 -0.05 8.25 -0.15 8.2 -0.1 8.1 -0.05 7.8 -0.05 7.6 -0.15 7.5 -0.25 7.45 -0.35 7.35 -0.45 7.35 -0.5 7.3 -0.55 7.3 -0.8 7.3 -0.9 7.3 -0.95 7.25 -1.0 7.25 -1.05 7.2 -1.0 7.15 -1.0 7.15 -0.95 7.1 -0.9 7.1 -0.85 7.05 -0.8 7.05 -0.75 7.0 -0.7 7.0 -0.65 6.95 -0.6 6.9 -0.55 6.85 -0.5 6.75 -0.5 6.7 -0.45 6.6 -0.45 6.45 -0.5 6.25 -0.55 6.15 -0.65 6.1 -0.6 6.0 -0.55 5.95 -0.5 5.9 -0.5 5.55 -0.45 5.15 -0.8 5.15 -0.85 5.1 -0.9 5.1 -1.1 5.05 -1.15 5.05 -1.2 5.0 -1.2 4.95 -1.1 4.85 -0.95 4.8 -0.9 4.75 -0.85 4.65 -0.85 4.6 -0.8 4.5 -0.8 4.4 -0.8 4.3 -0.85 4.2 -0.9 4.05 -1.05 3.95 -1.2 3.9 -1.25 3.9 -1.35 3.85 -1.4 3.85 -1.65 3.85 -1.75 3.85 -1.85 3.8 -1.9 3.75 -1.95 3.75 -1.85 3.7 -1.8 3.7 -1.7 3.65 -1.6 3.55 -1.45 3.35 -1.25 3.25 -1.2 3.2 -1.15 3.1 -1.15 3.0 -1.2 2.9 -1.2 2.8 -1.25 2.75 -1.3 2.65 -1.4 2.65 -1.45 2.6 -1.5 2.55 -1.65 2.5 -1.85 2.5 -2.1 2.5 -2.25 2.45 -2.2 2.4 -2.2 2.3 -2.1 2.2 -2.05 2.05 -2.0 1.7 -2.05 1.6 -2.1 1.5 -2.2 1.5 -2.25 1.45 -2.3 1.45 -2.35 1.4 -2.4 1.4 -2.45 1.4 -2.55 1.35 -2.6 1.35 -2.65 1.3 -2.7 1.3 -2.75 1.25 -2.8 1.25 -2.85 1.2 -2.9 1.2 -2.8 1.1 -2.65 0.85 -2.5 0.65 -2.45 0.5 -2.5 0.3 -2.55 0.25 -2.6 0.15 -2.7 0.15 -2.75 0.1 -2.8 0.1 -2.85 0.05 -2.9 0.0 -2.9 0.0 -2.85 -0.05 -2.8 -0.1 -2.7 -0.2 -2.6 -0.25 -2.55 -0.25 -2.4 -0.3 -2.35 -0.3 -2.3 -0.35 -2.25 -0.35 -2.2 -0.3 -2.15 -0.4 -2.15 -0.45 -2.1 -0.5 -2.05 -0.6 -2.0 -0.65 -1.95 -0.75 -1.95 -0.8 -1.9 -0.9 -1.9 -1.0 -1.95 -1.1 -1.95 -1.2 -2.0 -1.25 -2.05 -1.35 -2.15 -1.4 -2.15 -1.5 -2.1 -1.55 -2.05 -1.6 -2.05 -1.65 -2.0 -1.75 -2.0 -1.85 -2.0 -1.95 -2.05 -2.05 -2.1 -2.15 -2.2 -2.15 -2.25 -2.2 -2.3 -2.2 -2.35 -2.25 -2.3 -2.3 -2.3 -2.3 -2.25 -2.4 -2.15 -2.5 -2.1 -2.6 -2.05 -2.7 -2.05 -2.75 -2.05 -2.85 -2.05 -2.95 -2.1 -3.0 -2.05 -3.0 -1.95 -3.05 -1.9 -3.05 -1.85 -3.1 -1.8 -3.1 -1.75 -3.2 -1.65 -3.25 -1.6 -3.35 -1.6 -3.5 -1.55 -3.8 -1.6 -3.9 -1.65 -4.0 -1.75 -4.0 -1.8 -4.05 -1.85 -4.05 -1.9 -4.1 -1.9 -4.2 -1.9 -4.3 -1.85 -4.35 -1.8 -4.45 -1.75 -4.55 -1.7 -4.7 -1.65 -4.95 -1.7 -5.05 -1.7 -5.1 -1.65 -5.3 -1.4 Q-5.6 -1.15 -6.0 -1.15 L-6.1 -1.2 -6.15 -1.15 -6.2 -1.1 -6.2 -1.05 -6.3 -0.95 -6.35 -0.9 -6.4 -0.85 -6.5 -0.85 -6.55 -0.8 -6.65 -0.8 -6.75 -0.8 -6.85 -0.85 -6.95 -0.9 -7.0 -0.95 -7.1 -1.05 -7.1 -1.1 -7.15 -1.15 -7.15 -1.1 -7.2 -1.05 -7.2 -0.95 -7.25 -0.85 -7.3 -0.75 -7.45 -0.6 -7.75 -0.45 -7.8 -0.4 -7.9 -0.4 -8.0 -0.4 -8.3 -0.2 -8.9 -0.25 -8.95 -0.25 -9.0 -0.2 -9.1 -0.1 -9.3 0.0 -9.35 0.05 -9.45 0.05 -9.5 0.05 -9.6 0.05 -9.7 0.0 -9.8 -0.05 -9.9 -0.15 -9.9 -0.2 -9.95 -0.25 -9.95 -0.3 -10.0 -0.35 -10.0 -0.45 -10.0 -0.55 -10.0 -0.7 -10.0 -0.9 -10.0 -0.95 -9.95 -1.0 -10.0 -1.0 -10.05 -1.25 -10.0 -3.05 -9.9 -3.55 Q-9.35 -4.15 -8.6 -3.8 L-8.2 -3.9 -7.95 -3.9 -7.65 -4.35 -7.25 -4.35 Q-7.0 -4.7 -6.6 -4.65 L-6.3 -4.45 -6.3 -4.4 -6.25 -4.35 -6.05 -4.3 -5.75 -4.3 Q-5.5 -4.7 -5.05 -4.55 L-4.85 -4.4 -4.85 -4.35 -4.8 -4.3 -4.35 -4.4 -4.2 -4.4 Q-4.0 -4.8 -3.55 -4.65 L-3.35 -4.5 -3.35 -4.45 -3.3 -4.4 -3.1 -4.45 -2.95 -4.45 -2.5 -5.05 -2.05 -5.15 Q-1.85 -5.5 -1.45 -5.45 L-1.15 -5.35 Q-1.0 -5.95 -0.45 -6.05 L0.0 -5.9 0.1 -5.95 0.3 -5.95 0.45 -6.1 0.8 -6.25 1.05 -6.15 1.2 -6.05 1.3 -5.8 1.3 -5.4 1.3 -5.35 1.4 -5.35 1.5 -5.3 Q1.8 -5.65 2.2 -5.55 L2.4 -5.4 2.4 -5.35 2.45 -5.3 2.45 -5.2 2.5 -5.15 Q2.85 -5.95 3.55 -5.4 M-8.15 -2.1 L-8.2 -2.05 -8.15 -2.1 M-4.4 -3.35 L-4.55 -3.4 -4.4 -3.25 -4.35 -3.3 -4.4 -3.35" fill="#333333" fill-rule="evenodd" stroke="none"/>
    <path d="M8.95 -5.85 L9.25 -5.9 9.6 -5.8 9.7 -5.85 10.0 -5.75 8.95 -5.85" fill="#000000" fill-rule="evenodd" stroke="none"/>
    <path d="M10.0 -5.75 L8.95 -5.85 4.6 -6.75 4.05 -6.9 Q2.7 -7.3 1.5 -7.85 -2.9 -5.85 -9.0 -5.85 L-10.15 -5.85" fill="none" stroke="#000000" stroke-linecap="round" stroke-linejoin="round" stroke-width="1.0"/>
  </g>
</svg>
