<?xml version="1.0" encoding="UTF-8" standalone="no"?>
<svg xmlns:ffdec="https://www.free-decompiler.com/flash" xmlns:xlink="http://www.w3.org/1999/xlink" ffdec:objectType="shape" height="9.2px" width="22.0px" xmlns="http://www.w3.org/2000/svg">
  <g transform="matrix(1.0, 0.0, 0.0, 1.0, 11.0, 8.35)">
    <path d="M5.8 -6.6 L6.4 -6.55 6.6 -6.65 6.75 -6.65 6.75 -6.7 6.85 -6.7 6.85 -6.75 7.3 -6.85 7.45 -6.85 7.75 -6.9 7.95 -7.25 8.45 -7.35 8.65 -7.2 8.7 -7.15 8.85 -7.2 8.85 -7.3 9.0 -7.45 9.15 -7.55 9.25 -7.55 9.35 -7.6 Q10.5 -7.6 10.4 -6.35 L10.45 -5.85 Q10.65 -4.7 9.5 -4.7 9.2 -4.05 8.45 -4.3 L8.0 -4.6 7.95 -4.5 7.9 -4.45 7.85 -4.35 7.55 -4.15 7.45 -4.15 7.2 -3.7 6.6 -3.6 Q6.2 -3.35 5.85 -3.75 L5.75 -4.15 5.6 -4.15 5.45 -4.15 5.2 -3.65 Q5.0 -3.35 4.6 -3.4 4.2 -2.85 3.65 -3.3 L3.5 -3.55 3.45 -3.3 3.3 -2.95 3.25 -2.9 3.2 -2.85 3.2 -2.75 3.15 -2.65 2.5 -2.5 2.2 -2.7 1.35 -2.75 1.25 -3.15 0.5 -3.05 0.3 -3.35 -0.15 -3.2 -0.35 -3.25 Q-0.9 -2.5 -1.35 -3.25 L-1.45 -3.7 Q-1.6 -3.5 -1.95 -3.45 -2.25 -3.4 -2.45 -3.65 L-2.9 -3.6 -3.2 -3.7 -3.55 -3.3 -4.1 -3.35 -4.25 -3.35 -4.75 -2.95 -5.15 -3.1 -6.0 -3.15 -6.2 -3.4 -7.1 -3.45 -7.2 -3.8 -7.45 -3.95 -7.6 -4.1 -7.85 -4.25 -7.9 -4.35 -8.4 -4.4 -8.5 -4.5 -8.7 -4.5 Q-9.45 -4.2 -10.05 -4.65 L-10.25 -4.9 -10.3 -5.75 Q-10.75 -6.65 -10.0 -6.9 L-10.0 -7.25 -10.0 -7.3 -9.9 -7.35 -9.8 -7.35 -9.7 -7.35 -9.65 -7.35 -9.45 -7.4 -9.05 -7.2 -8.8 -7.15 -8.5 -7.05 -5.25 -6.5 -4.4 -6.4 -0.25 -6.05 3.25 -6.2 4.45 -6.35 5.05 -6.35 5.6 -6.45 5.8 -6.6 M4.1 -5.7 L4.0 -5.7 4.05 -5.65 4.1 -5.7 M3.45 -5.65 L2.5 -5.6 2.7 -5.5 2.9 -5.25 3.45 -5.65 M0.85 -5.55 L0.9 -5.65 0.45 -5.65 0.55 -5.65 0.85 -5.55 M-5.1 -5.6 L-4.8 -5.5 -4.6 -5.3 -4.6 -5.25 -4.5 -5.25 Q-4.3 -5.6 -3.9 -5.55 -3.7 -5.55 -3.55 -5.35 L-3.05 -5.3 -2.9 -5.25 -2.2 -5.45 -1.9 -5.4 -1.5 -5.7 -2.95 -5.7 -4.4 -5.75 -5.0 -5.75 -5.0 -5.7 -5.1 -5.65 -5.1 -5.6 M-5.45 -5.6 L-5.5 -5.6 -5.45 -5.6 M-6.0 -5.65 L-6.35 -5.75 -6.55 -5.75 -6.65 -5.75 -6.7 -5.75 -6.65 -5.7 -6.35 -5.65 -6.15 -5.65 -6.0 -5.65 M-0.1 -5.45 L0.35 -5.65 -0.1 -5.7 -0.65 -5.75 -0.7 -5.75 -0.8 -5.75 -0.9 -5.7 -1.05 -5.7 -1.25 -5.7 -1.1 -5.65 -0.8 -5.4 -0.3 -5.5 -0.1 -5.45" fill="#666666" fill-rule="evenodd" stroke="none"/>
    <path d="M3.3 -3.15 L3.5 -3.0 Q3.7 -3.5 4.2 -3.35 L4.35 -3.25 Q4.45 -3.8 4.9 -4.05 L5.45 -3.95 5.5 -3.8 5.55 -3.65 5.55 -3.55 6.05 -4.6 6.9 -4.7 6.9 -4.65 6.95 -4.6 7.3 -4.65 7.6 -4.65 8.2 -5.1 8.5 -5.1 8.6 -5.35 8.85 -5.6 8.95 -5.65 9.05 -5.65 9.35 -5.55 9.5 -5.45 9.55 -5.3 9.6 -5.0 10.15 -5.0 10.35 -4.9 10.5 -4.05 10.25 -3.85 10.1 -3.5 10.05 -3.4 10.0 -3.45 10.0 -3.35 10.0 -3.0 10.0 -2.75 10.0 -2.7 9.95 -2.65 9.95 -2.6 9.9 -2.55 9.9 -2.5 9.75 -2.35 9.75 -2.3 9.7 -2.25 9.7 -2.15 9.65 -2.15 9.65 -2.1 9.6 -2.05 9.6 -2.0 9.55 -1.95 9.55 -1.7 9.5 -1.65 9.5 -1.55 9.45 -1.5 9.35 -1.4 9.3 -1.4 9.25 -1.35 9.2 -1.35 9.15 -1.3 9.05 -1.3 9.0 -1.3 8.9 -1.3 8.8 -1.35 8.7 -1.4 8.6 -1.5 8.6 -1.55 8.55 -1.6 8.55 -1.65 8.5 -1.65 8.4 -1.65 8.35 -1.6 8.2 -1.5 8.05 -1.35 8.0 -1.3 8.0 -1.25 7.95 -1.2 7.9 -1.1 7.8 -1.0 7.8 -0.9 7.75 -0.9 7.75 -0.85 7.7 -0.8 7.7 -0.75 7.6 -0.65 7.5 -0.6 7.4 -0.55 7.3 -0.55 7.25 -0.55 7.15 -0.55 7.05 -0.6 6.95 -0.65 6.85 -0.75 6.85 -0.8 6.8 -0.8 6.75 -0.75 6.75 -0.7 6.7 -0.65 6.65 -0.55 6.6 -0.45 6.55 -0.4 6.55 -0.35 6.5 -0.3 6.5 -0.25 6.45 -0.2 6.4 -0.15 6.35 -0.1 6.25 -0.1 6.2 -0.05 6.1 -0.05 6.05 -0.05 5.95 -0.05 5.85 -0.1 5.75 -0.15 5.6 -0.3 5.55 -0.25 5.55 -0.2 5.5 -0.15 5.45 -0.1 5.4 -0.05 5.4 0.0 5.35 0.05 5.35 0.1 5.3 0.1 5.3 0.2 5.25 0.3 5.2 0.45 5.15 0.5 5.15 0.55 4.9 0.8 4.85 0.8 4.75 0.85 4.65 0.85 4.55 0.8 4.45 0.8 4.35 0.75 4.25 0.65 4.25 0.6 4.2 0.55 4.2 0.5 4.15 0.45 4.15 0.3 4.1 0.25 4.1 0.2 4.0 0.2 3.9 0.2 3.7 0.1 3.55 -0.05 3.55 -0.1 3.5 -0.15 3.4 -0.15 3.35 -0.1 3.35 0.0 3.3 0.05 3.3 0.1 3.25 0.15 3.25 0.25 3.15 0.35 3.1 0.45 3.0 0.6 2.85 0.65 2.65 0.7 2.45 0.65 2.25 0.6 2.15 0.5 2.15 0.45 2.1 0.4 2.1 0.35 2.05 0.35 2.05 0.0 2.0 0.0 1.95 0.05 1.85 0.05 1.8 0.05 1.7 0.05 1.6 0.0 1.5 -0.05 1.4 -0.15 1.35 -0.1 1.25 -0.05 1.15 0.1 1.05 0.25 0.95 0.3 0.9 0.35 0.85 0.4 0.75 0.4 0.7 0.45 0.6 0.45 0.5 0.45 0.4 0.4 0.3 0.35 0.25 0.3 0.15 0.2 0.15 0.15 0.1 0.15 0.05 0.2 -0.1 0.25 -0.1 0.3 -0.25 0.3 -0.4 0.35 -0.45 0.35 -0.55 0.35 -0.65 0.3 -0.75 0.3 -0.8 0.35 -0.9 0.35 -0.95 0.35 -1.05 0.3 -1.15 0.3 -1.25 0.25 -1.4 0.1 -1.4 0.05 -1.45 0.0 -1.45 -0.05 -1.5 -0.1 -1.6 -0.05 -1.65 -0.05 -1.85 0.0 -2.0 -0.05 -2.2 -0.1 -2.25 -0.15 -2.35 -0.25 -2.35 -0.3 -2.45 -0.3 -2.5 -0.3 -2.6 -0.3 -2.7 -0.3 -2.7 -0.25 -2.75 -0.2 -2.85 -0.1 -2.9 -0.05 -3.0 0.0 -3.1 0.0 -3.25 0.05 -3.45 0.0 -3.65 -0.05 -3.75 -0.15 -3.75 -0.2 -3.8 -0.25 -3.8 -0.3 -3.85 -0.35 -3.85 -0.4 -3.9 -0.4 -3.9 -0.5 -3.95 -0.55 -3.95 -0.65 -4.0 -0.65 -4.0 -0.55 -4.05 -0.5 -4.1 -0.35 -4.2 -0.25 -4.5 0.05 -4.6 0.15 -4.65 0.15 -4.75 0.2 -4.85 0.2 -4.95 0.2 -5.05 0.15 -5.15 0.1 -5.25 0.0 -5.25 -0.05 -5.3 -0.1 -5.3 -0.15 -5.35 -0.15 -5.35 -0.45 -5.4 -0.5 -5.45 -0.5 -5.5 -0.45 -5.55 -0.4 -5.55 -0.35 -5.6 -0.3 -5.6 -0.25 -5.7 -0.15 -5.75 -0.1 -5.85 -0.05 -5.9 -0.05 -6.1 0.0 -6.25 -0.05 -6.45 -0.1 -6.5 -0.15 -6.6 -0.25 -6.6 -0.3 -6.65 -0.35 -6.65 -0.45 -6.7 -0.5 -6.7 -0.55 -6.8 -0.5 -6.8 -0.45 -6.9 -0.4 -7.05 -0.25 -7.1 -0.25 -7.25 -0.2 -7.45 -0.25 -7.65 -0.3 -7.75 -0.4 -7.75 -0.45 -7.8 -0.5 -7.9 -0.55 -7.95 -0.5 -8.0 -0.5 -8.25 -0.45 Q-8.5 -0.5 -8.7 -0.65 L-8.85 -0.85 -8.85 -0.9 -8.9 -0.9 -8.9 -1.0 -8.95 -1.1 -8.95 -1.25 -9.0 -1.25 -9.05 -1.2 -9.15 -1.2 -9.2 -1.2 -9.3 -1.2 -9.4 -1.25 -9.5 -1.3 -9.6 -1.4 -9.6 -1.45 -9.65 -1.5 -9.65 -1.55 -9.7 -1.6 -9.7 -1.65 -9.7 -1.75 -9.7 -1.95 -9.7 -2.25 -9.7 -2.45 -9.7 -2.5 -9.75 -2.55 -9.75 -2.65 -9.75 -2.75 -9.75 -2.9 -9.75 -2.95 -9.8 -3.0 -9.8 -3.05 -9.85 -3.1 -9.85 -3.45 -9.8 -3.45 -10.05 -3.75 -10.05 -4.15 Q-10.05 -4.8 -9.45 -4.9 -8.95 -5.3 -8.6 -4.75 L-8.5 -4.6 -8.15 -4.5 -8.0 -4.35 -7.7 -4.4 -7.45 -4.3 -6.75 -4.4 -6.6 -4.3 -6.55 -4.1 -6.5 -3.85 -6.5 -3.8 -5.95 -3.85 -5.75 -3.7 -5.75 -3.65 -5.7 -3.65 -5.7 -3.6 -5.2 -3.7 -5.0 -3.65 -4.4 -3.6 -4.25 -3.5 -4.15 -3.25 -4.15 -2.85 -3.75 -2.95 -3.45 -2.95 -3.45 -3.1 -3.4 -3.15 -2.45 -3.2 -2.35 -3.1 Q-2.4 -3.7 -1.85 -3.9 L-1.4 -3.75 -1.3 -3.3 -1.3 -2.85 Q-1.2 -3.4 -0.6 -3.4 L-0.3 -3.25 -0.25 -3.1 -0.15 -2.95 -0.15 -2.9 0.6 -3.0 0.75 -2.9 1.2 -2.9 1.4 -2.75 1.45 -2.6 1.5 -2.5 1.5 -2.4 Q1.55 -2.95 1.95 -3.3 2.3 -3.65 2.65 -3.3 L2.65 -3.25 2.7 -3.2 2.7 -3.15 3.3 -3.15 M0.85 -1.4 L0.9 -1.45 0.8 -1.45 0.8 -1.35 0.85 -1.4 M-8.35 -2.35 L-8.3 -2.3 -8.3 -2.2 -8.25 -2.15 -8.25 -2.05 -8.2 -2.0 -8.2 -1.95 -8.1 -1.85 -8.1 -1.9 -8.05 -1.95 -8.05 -2.0 -8.0 -2.05 -8.0 -2.1 -7.95 -2.15 -7.9 -2.2 -8.05 -2.25 -8.3 -2.35 -8.35 -2.35 M-1.2 -2.05 L-1.6 -2.15 -1.6 -2.0 -1.55 -2.0 -1.45 -2.05 -1.35 -2.05 -1.25 -2.05 -1.15 -2.0 -1.05 -1.95 -0.9 -1.8 -0.95 -1.9 -1.2 -2.05 M-0.85 -1.7 L-0.9 -1.8 -0.9 -1.75 -0.85 -1.7" fill="#333333" fill-rule="evenodd" stroke="none"/>
    <path d="M10.5 -7.85 Q6.1 -5.85 0.0 -5.85 -6.1 -5.85 -10.5 -7.85" fill="none" stroke="#000000" stroke-linecap="round" stroke-linejoin="round" stroke-width="1.0"/>
  </g>
</svg>
