<?xml version="1.0" encoding="UTF-8" standalone="no"?>
<svg xmlns:ffdec="https://www.free-decompiler.com/flash" xmlns:xlink="http://www.w3.org/1999/xlink" ffdec:objectType="shape" height="6.85px" width="17.85px" xmlns="http://www.w3.org/2000/svg">
  <g transform="matrix(1.0, 0.0, 0.0, 1.0, 9.35, 0.25)">
    <path d="M-9.05 2.3 L-9.05 2.15 -8.75 1.55 Q-7.65 -0.6 -7.4 -0.05 L1.85 -0.1 2.3 -0.15 3.05 -0.25 6.25 -0.2 6.4 -0.2 6.45 -0.15 6.5 -0.1 6.5 -0.05 6.55 0.0 6.55 0.05 6.6 0.2 6.6 0.35 Q6.65 -1.2 8.05 1.65 L8.05 1.75 8.05 1.85 7.1 4.05 Q6.45 6.15 6.05 6.15 5.85 6.15 5.8 6.0 L-3.5 6.0 -3.55 5.95 -3.65 5.85 -3.7 5.8 -5.0 5.75 -5.95 5.9 -6.1 5.9 Q-6.1 6.25 -6.45 6.25 -6.95 6.25 -7.75 4.25 L-8.8 2.55 -9.05 2.3 M6.75 0.8 L6.6 0.45 6.6 0.5 6.65 0.65 6.65 0.8 6.65 0.85 6.45 1.45 6.45 1.55 6.4 1.6 5.95 2.35 5.85 2.55 5.45 3.1 5.45 3.25 5.75 3.6 5.55 3.9 5.55 3.95 5.2 4.0 1.25 4.1 -2.6 4.05 -3.25 4.05 -4.35 4.05 -5.25 4.05 -5.65 4.05 -5.8 4.05 -5.85 4.0 -5.9 3.95 -6.0 3.65 -6.0 3.6 -7.0 2.3 -7.6 1.05 -7.95 1.55 -8.25 2.05 Q-7.6 2.85 -6.45 5.1 L-6.4 5.2 -6.1 5.15 -3.45 5.25 5.9 5.25 6.05 4.8 6.15 4.5 6.2 4.45 6.6 3.4 7.2 2.2 7.35 1.9 7.35 1.85 7.0 1.25 6.75 0.8 M5.85 0.8 L5.95 0.55 0.25 0.65 0.15 0.6 -0.5 0.45 -6.2 0.45 -6.35 0.45 -6.4 0.5 -6.45 0.55 -6.5 0.6 -6.5 0.65 -7.05 0.65 -6.65 1.65 -5.65 2.75 -5.4 3.35 1.2 3.35 2.6 3.35 2.75 3.25 4.1 2.9 4.85 3.0 Q5.0 2.3 5.7 1.25 L5.9 1.0 5.85 0.8" fill="#000000" fill-rule="evenodd" stroke="none"/>
    <path d="M-3.7 5.8 L-3.65 5.85 -4.6 5.8 -3.7 5.8 M6.65 0.65 L6.75 0.8 6.65 0.85 6.65 0.8 6.65 0.65 M6.2 4.45 L6.15 4.5 6.05 4.8 5.85 4.45 6.0 4.45 6.2 4.45 M-6.4 5.2 L-6.45 5.1 -6.35 5.0 -6.4 5.2 M5.55 3.95 L5.6 3.95 5.6 4.05 5.55 3.95 M3.85 4.65 L4.9 4.5 5.0 4.65 3.85 4.65 M-4.85 4.1 L-5.15 4.15 -5.2 4.1 -4.85 4.1" fill="#f49300" fill-rule="evenodd" stroke="none"/>
    <path d="M8.05 1.85 Q8.5 1.85 8.5 2.25 L8.3 2.5 8.05 2.75 7.95 3.25 7.6 4.3 7.1 5.55 6.8 6.0 6.8 6.05 6.5 6.5 0.9 6.5 -4.55 6.6 -4.65 6.6 -7.15 6.5 -7.6 6.3 -7.9 5.75 -7.75 5.55 -8.0 5.25 -8.7 4.4 -9.05 3.55 -9.35 2.7 Q-9.35 2.35 -9.05 2.3 L-8.8 2.55 -7.75 4.25 Q-6.95 6.25 -6.45 6.25 -6.1 6.25 -6.1 5.9 L-5.95 5.9 -3.55 5.95 -3.5 6.0 5.8 6.0 Q5.85 6.15 6.05 6.15 6.45 6.15 7.1 4.05 L8.05 1.85 M6.75 0.8 L7.0 1.25 7.35 1.85 7.35 1.9 7.2 2.2 6.6 3.4 6.2 4.45 6.0 4.45 5.85 4.45 5.6 4.2 5.6 4.05 5.6 3.95 5.55 3.9 5.75 3.6 5.45 3.25 5.45 3.1 5.85 2.55 5.95 2.35 6.4 1.6 6.45 1.55 6.45 1.45 6.65 0.85 6.75 0.8" fill="#aeaeae" fill-rule="evenodd" stroke="none"/>
    <path d="M6.05 4.8 L5.9 5.25 -3.45 5.25 -6.1 5.15 -6.4 5.2 -6.35 5.0 -6.2 4.5 -5.85 4.05 -5.8 4.05 -5.65 4.05 -5.25 4.05 -5.2 4.1 -5.15 4.15 -4.85 4.1 -4.35 4.05 -3.25 4.05 -3.0 4.1 -2.75 4.1 -2.6 4.05 1.25 4.1 5.2 4.0 5.55 3.95 5.6 4.05 5.6 4.2 5.85 4.45 6.05 4.8 M3.85 4.65 L5.0 4.65 4.9 4.5 3.85 4.65" fill="#c1c1c1" fill-rule="evenodd" stroke="none"/>
    <path d="M-6.45 5.1 Q-7.6 2.85 -8.25 2.05 L-7.95 1.55 -7.6 1.05 -7.0 2.3 -6.0 3.6 -6.0 3.65 -5.9 3.95 -5.85 4.0 -5.85 4.05 -6.2 4.5 -6.35 5.0 -6.45 5.1" fill="#ffffff" fill-rule="evenodd" stroke="none"/>
  </g>
</svg>
