<?xml version="1.0" encoding="UTF-8" standalone="no"?>
<svg xmlns:ffdec="https://www.free-decompiler.com/flash" xmlns:xlink="http://www.w3.org/1999/xlink" ffdec:objectType="shape" height="9.8px" width="20.9px" xmlns="http://www.w3.org/2000/svg">
  <g transform="matrix(1.0, 0.0, 0.0, 1.0, 10.5, 9.3)">
    <path d="M9.45 -6.8 L9.5 -6.8 9.6 -6.85 9.7 -6.9 9.8 -6.9 9.9 -6.9 9.9 -4.85 9.5 -4.55 8.95 -4.65 8.6 -4.65 8.4 -4.6 8.4 -4.55 8.35 -4.5 8.3 -4.4 8.3 -4.35 8.25 -4.15 8.1 -3.85 Q7.8 -3.55 7.4 -3.7 L7.3 -3.75 Q7.0 -3.4 6.6 -3.55 L6.35 -3.75 6.0 -3.8 5.8 -3.9 4.85 -3.85 4.75 -4.25 4.75 -4.45 4.25 -3.85 Q3.85 -3.65 3.6 -4.0 L3.25 -4.0 2.95 -4.0 Q2.85 -3.5 2.3 -3.5 2.0 -3.45 1.85 -3.7 L1.15 -3.6 1.0 -3.7 0.95 -3.65 0.85 -3.5 0.85 -3.45 Q0.2 -2.95 -0.2 -3.65 L-0.25 -3.95 Q-0.65 -3.8 -0.9 -4.15 L-1.0 -4.3 Q-1.25 -3.65 -1.95 -3.8 L-2.25 -4.1 -2.35 -4.2 Q-2.75 -4.25 -3.05 -4.55 L-3.15 -4.75 Q-3.5 -4.2 -4.1 -4.45 L-4.35 -4.6 Q-4.75 -4.5 -5.1 -4.8 -5.5 -4.55 -5.9 -4.8 L-5.95 -4.85 -6.45 -4.7 -6.65 -4.75 Q-6.8 -4.6 -7.0 -4.6 L-7.2 -4.6 -7.5 -4.5 -7.75 -4.45 -8.1 -4.2 -8.35 -4.15 -8.6 -4.0 -8.9 -4.05 -10.0 -4.1 -10.0 -6.65 -9.9 -6.7 -8.3 -6.75 -8.15 -6.9 -7.95 -6.9 -7.75 -6.9 -7.7 -6.85 -7.6 -6.85 -7.45 -6.85 Q-7.15 -7.25 -6.6 -7.25 L-6.3 -7.2 -6.25 -7.25 -6.25 -7.3 -6.2 -7.3 -6.1 -7.35 -6.05 -7.35 -5.95 -7.4 -5.75 -7.5 -5.7 -7.55 -5.65 -7.55 -5.55 -7.55 -5.25 -7.5 -5.15 -7.5 -4.85 -7.4 -4.8 -7.4 -4.1 -7.25 -3.85 -7.15 -3.8 -7.15 -3.65 -7.15 -3.6 -7.1 -3.5 -7.05 -2.75 -6.9 -2.5 -6.85 -2.45 -6.8 -2.4 -6.8 -2.35 -6.75 -2.3 -6.75 -2.15 -6.75 -2.1 -6.7 -2.05 -6.7 -2.05 -6.65 -1.8 -6.6 -1.65 -6.6 -1.6 -6.6 -1.55 -6.55 -0.8 -6.5 -0.65 -6.5 -0.6 -6.45 -0.55 -6.45 0.15 -6.35 0.25 -6.35 0.3 -6.3 Q3.35 -5.8 6.5 -6.25 L8.15 -6.45 9.05 -6.65 9.45 -6.8 M4.35 -5.7 L2.65 -5.7 2.7 -5.6 2.7 -5.55 3.15 -5.55 3.35 -5.45 4.0 -5.4 4.1 -5.35 4.35 -5.7 M1.65 -5.75 L1.0 -5.85 1.0 -5.65 0.9 -5.6 -0.05 -5.6 0.25 -5.5 0.4 -5.4 0.45 -5.3 0.5 -5.15 0.5 -5.1 1.05 -5.55 1.55 -5.65 1.65 -5.75 M6.7 -5.55 L6.9 -5.6 6.95 -5.65 6.3 -5.75 6.2 -5.85 6.2 -5.9 5.5 -5.85 5.55 -5.8 6.3 -5.7 6.35 -5.6 6.7 -5.55 M-1.7 -5.6 L-1.6 -5.4 -1.45 -5.6 -1.7 -5.6" fill="#fe8001" fill-rule="evenodd" stroke="none"/>
    <path d="M2.65 -3.75 L2.7 -3.7 2.75 -3.6 Q2.85 -4.2 3.45 -4.25 L3.85 -4.05 3.85 -4.0 3.9 -3.95 3.9 -3.9 3.95 -3.85 4.45 -3.85 4.65 -3.7 4.7 -3.65 4.75 -3.5 4.75 -3.35 Q5.0 -3.8 5.45 -3.65 L5.65 -3.5 5.7 -3.3 5.8 -3.0 Q5.8 -3.65 6.25 -4.1 L6.8 -4.2 Q7.05 -4.7 7.55 -4.5 L7.75 -4.4 8.2 -4.45 8.4 -4.4 Q8.55 -5.35 9.35 -5.0 L9.6 -4.6 9.6 -4.45 9.7 -4.35 9.9 -4.2 9.9 -1.65 9.7 -1.6 9.65 -1.55 9.65 -1.5 9.6 -1.45 9.6 -1.4 Q9.45 -1.25 9.3 -1.25 L9.05 -1.2 Q9.05 -0.6 8.6 -0.3 L8.05 -0.25 7.75 0.0 7.45 0.1 6.35 0.05 6.25 -0.25 Q5.85 0.3 5.15 0.0 L5.05 -0.05 Q4.6 0.95 3.9 0.15 L3.75 -0.15 3.75 -0.4 3.15 -0.55 3.0 -0.75 Q2.7 -0.3 2.2 -0.55 L2.1 -0.65 2.0 -0.5 1.9 -0.3 1.0 -0.2 Q0.5 0.8 -0.2 0.0 L-0.3 -0.15 Q-1.0 0.35 -1.25 -0.5 L-1.3 -0.8 -2.35 -0.85 -2.4 -0.85 -3.5 -0.8 -3.55 -0.85 Q-4.15 -0.15 -4.8 -0.85 L-4.95 -1.35 Q-5.35 -0.7 -5.9 -1.15 L-6.05 -1.3 -6.3 -1.25 -6.6 -1.25 Q-6.85 -0.8 -7.3 -0.85 L-7.55 -0.95 -7.65 -0.95 -7.9 -0.9 -8.3 -0.6 -8.6 -0.6 -8.6 -0.55 -8.65 -0.5 -8.65 -0.45 -9.35 -0.3 -9.45 -0.35 -10.0 -0.55 -10.0 -3.8 -9.65 -3.7 -9.45 -4.45 -8.95 -4.75 -8.4 -5.1 -8.05 -4.95 -7.9 -4.95 -7.7 -5.0 Q-7.45 -5.4 -6.95 -5.25 L-6.75 -5.15 Q-6.6 -5.8 -6.0 -5.55 L-5.8 -5.4 -5.65 -5.7 -5.25 -5.95 -4.95 -5.85 -4.85 -5.75 -4.75 -5.4 -4.8 -4.95 -4.75 -5.0 -4.75 -5.1 Q-4.45 -5.55 -4.0 -5.3 L-3.85 -5.2 -3.75 -4.05 -3.8 -3.35 -3.4 -4.55 -3.05 -4.7 -2.75 -4.5 -2.75 -4.45 -2.7 -4.4 -2.7 -4.35 -2.65 -4.3 Q-2.65 -4.9 -2.05 -4.85 L-1.75 -4.7 -1.65 -4.5 -1.55 -4.1 Q-1.4 -4.6 -0.85 -4.55 L-0.55 -4.4 -0.5 -4.2 -0.45 -3.9 Q-0.35 -4.3 0.1 -4.3 L0.5 -4.15 0.55 -4.0 0.6 -3.8 0.6 -3.75 Q1.0 -4.55 1.65 -3.95 L1.75 -3.75 2.45 -3.95 2.65 -3.8 2.65 -3.75" fill="#ff4d00" fill-rule="evenodd" stroke="none"/>
    <path d="M9.9 -6.2 L5.0 -5.85 Q-1.1 -5.85 -5.5 -7.85 -7.55 -6.9 -10.0 -6.4" fill="none" stroke="#000000" stroke-linecap="round" stroke-linejoin="round" stroke-width="1.0"/>
    <path d="M9.9 -7.35 L9.9 -6.05 9.4 -6.05 9.25 -6.0 8.4 -5.75 8.3 -5.75 8.2 -5.8 8.1 -5.85 8.05 -5.9 8.0 -5.95 7.95 -6.0 4.3 -6.05 3.5 -6.05 0.3 -6.15 -0.05 -6.2 -1.0 -6.4 -1.4 -6.5 -1.65 -6.55 -2.05 -6.7 -2.55 -6.8 -3.0 -6.9 -3.2 -7.0 -3.45 -7.05 -3.65 -7.1 -3.75 -7.15 -3.8 -7.2 -3.85 -7.25 -3.9 -7.25 -4.0 -7.3 -4.1 -7.35 -4.2 -7.4 -4.3 -7.45 -4.35 -7.5 -4.65 -7.6 -4.9 -7.75 -5.05 -7.8 -5.1 -7.85 -5.2 -7.9 -5.3 -7.95 -5.35 -8.0 -5.4 -8.05 -5.55 -8.1 -5.7 -8.2 -5.85 -8.1 -5.95 -8.1 -5.95 -8.05 -6.1 -7.9 -6.15 -7.85 -6.15 -7.8 -6.25 -7.7 -6.3 -7.65 -6.35 -7.6 -6.45 -7.55 -6.7 -7.45 -6.95 -7.35 -7.55 -7.05 -7.6 -7.0 -7.7 -7.0 -7.85 -6.9 -8.05 -6.85 -8.35 -6.75 -8.45 -6.7 -8.55 -6.65 -8.6 -6.65 -8.65 -6.6 -8.7 -6.6 -8.8 -6.6 -9.1 -6.55 -9.25 -6.4 -9.3 -6.4 -9.35 -6.35 -9.5 -6.35 -9.7 -6.3 -9.85 -6.3 -9.9 -6.25 -9.95 -6.25 -10.0 -6.25 -10.0 -7.25 -9.75 -7.3 -9.45 -7.5 -8.85 -7.6 -8.65 -7.7 -8.45 -7.8 -8.3 -7.8 -8.15 -7.9 -7.7 -8.1 -7.45 -8.25 -7.15 -8.4 -7.0 -8.45 -6.9 -8.6 -6.65 -8.8 -6.45 -8.95 -6.35 -9.05 -6.3 -9.1 -6.2 -9.15 -6.1 -9.2 -5.9 -9.3 -5.8 -9.3 -5.7 -9.3 -5.6 -9.25 -5.5 -9.2 -5.45 -9.2 -5.35 -9.2 -5.25 -9.15 -5.1 -9.05 -5.05 -9.0 -4.85 -8.95 -4.75 -8.9 -4.65 -8.8 -4.65 -8.75 -4.55 -8.7 -4.5 -8.65 -4.4 -8.6 -4.25 -8.55 -4.1 -8.45 -3.95 -8.4 -3.85 -8.35 -3.75 -8.3 -3.7 -8.3 -3.6 -8.25 -3.5 -8.25 -3.4 -8.2 -3.3 -8.15 -3.2 -8.05 -3.15 -8.05 -2.95 -8.0 -2.65 -7.9 -2.35 -7.75 -1.8 -7.7 -1.5 -7.6 -1.45 -7.6 -1.35 -7.55 -1.3 -7.5 -1.2 -7.5 -1.15 -7.45 -0.7 -7.4 -0.55 -7.35 -0.15 -7.3 0.15 -7.25 0.45 -7.1 8.95 -7.0 9.05 -7.05 9.1 -7.05 9.2 -7.1 9.25 -7.15 9.3 -7.15 9.45 -7.2 9.8 -7.3 9.9 -7.35" fill="#000000" fill-rule="evenodd" stroke="none"/>
  </g>
</svg>
