<?xml version="1.0" encoding="UTF-8" standalone="no"?>
<svg xmlns:ffdec="https://www.free-decompiler.com/flash" xmlns:xlink="http://www.w3.org/1999/xlink" ffdec:objectType="shape" height="14.45px" width="20.35px" xmlns="http://www.w3.org/2000/svg">
  <g transform="matrix(1.0, 0.0, 0.0, 1.0, 9.5, 16.6)">
    <path d="M10.3 -12.65 L10.3 -12.45 10.15 -12.4 10.05 -12.3 9.95 -11.5 9.95 -11.4 Q10.1 -10.2 9.65 -9.0 9.3 -7.9 8.85 -8.95 L8.7 -9.1 8.35 -9.1 8.05 -9.4 Q7.65 -9.3 7.35 -9.8 L7.25 -10.1 Q6.8 -10.0 6.45 -10.8 L6.4 -10.9 6.15 -10.9 Q6.0 -10.9 5.85 -11.05 L5.8 -11.05 5.45 -11.05 5.4 -11.05 5.35 -11.15 4.15 -11.05 4.1 -11.05 4.1 -11.3 4.0 -11.3 3.9 -11.15 3.75 -11.15 3.65 -11.15 3.4 -10.5 3.15 -9.65 Q2.8 -8.95 2.4 -9.5 L2.35 -9.65 Q1.85 -8.4 1.35 -9.3 L1.2 -9.65 Q0.8 -8.3 0.15 -8.95 L-0.05 -9.0 Q-0.45 -7.55 -1.05 -8.6 L-1.2 -8.95 Q-1.55 -8.25 -2.05 -8.8 L-2.2 -9.1 Q-2.65 -8.3 -3.2 -8.7 L-3.25 -8.8 Q-3.6 -8.5 -3.9 -8.7 L-4.05 -8.8 -4.1 -8.6 -4.2 -8.4 -4.65 -8.15 -9.5 -13.4 -8.25 -12.9 -6.7 -12.3 -4.1 -12.4 -3.75 -12.4 -2.35 -12.55 2.25 -13.6 2.35 -13.7 3.25 -13.85 4.05 -15.2 4.3 -15.35 4.6 -15.65 4.8 -15.85 Q5.25 -15.85 5.4 -15.05 L5.45 -15.05 5.55 -15.05 5.65 -14.95 5.7 -14.95 Q5.95 -15.25 6.3 -15.2 L6.5 -14.95 6.95 -14.85 7.15 -14.55 7.2 -14.4 7.2 -14.25 7.3 -14.15 Q7.45 -13.95 7.7 -13.95 L7.9 -13.8 9.8 -13.1 10.25 -12.75 10.3 -12.65 M-5.35 -11.6 L-7.15 -11.75 -7.2 -11.6 -7.05 -11.5 -6.8 -11.4 -6.8 -11.3 -6.75 -11.3 Q-6.4 -11.5 -6.05 -10.9 L-5.8 -10.3 -5.5 -11.5 -5.35 -11.6" fill="#fe8001" fill-rule="evenodd" stroke="none"/>
    <path d="M4.75 -12.45 Q4.95 -13.25 5.45 -13.1 L5.7 -12.9 5.8 -13.1 5.9 -13.25 6.05 -13.25 6.15 -13.35 6.45 -13.15 6.6 -13.0 6.7 -12.4 6.7 -11.6 6.9 -11.6 7.2 -11.4 Q7.95 -12.65 8.25 -10.8 L8.4 -9.8 8.4 -9.4 8.7 -9.3 8.75 -9.3 9.1 -9.9 9.2 -10.0 9.3 -10.0 Q10.4 -9.5 10.15 -7.2 L9.95 -4.8 10.0 -4.65 10.05 -3.85 Q10.45 -2.15 9.4 -2.15 9.05 -2.05 9.0 -2.7 8.1 -2.6 8.1 -4.35 L8.1 -5.05 Q7.65 -5.15 7.45 -5.85 L7.4 -5.95 Q6.95 -4.85 6.45 -5.95 L6.35 -6.2 Q6.1 -6.2 5.95 -6.65 L5.8 -6.9 Q5.55 -6.65 5.35 -6.65 L4.95 -6.65 Q4.5 -5.55 3.95 -6.4 L3.85 -6.85 Q3.45 -4.75 2.6 -5.75 L2.45 -5.95 2.05 -5.5 1.75 -5.5 Q1.3 -3.6 0.6 -5.15 L0.55 -5.25 0.2 -5.15 0.0 -5.15 Q-0.4 -4.05 -0.95 -4.75 L-1.0 -4.8 -1.25 -4.4 -4.7 -8.2 Q-4.25 -9.35 -3.65 -8.6 L-3.6 -8.4 -3.3 -8.6 -2.95 -8.7 -2.35 -8.8 -2.15 -8.8 Q-2.0 -9.45 -1.7 -9.5 L-1.35 -9.5 Q-1.0 -10.8 -0.35 -10.5 L-0.15 -10.35 0.25 -10.5 0.5 -10.35 Q0.8 -11.05 1.2 -10.8 L1.4 -10.5 1.45 -10.3 1.45 -10.2 1.5 -10.0 1.9 -10.1 2.15 -10.2 Q2.25 -11.7 3.0 -11.95 3.25 -12.1 3.45 -11.7 L3.55 -11.15 3.55 -11.05 Q3.8 -11.95 4.4 -12.45 L4.75 -12.45 M-4.8 -8.3 L-4.8 -8.25 -5.1 -8.6 -4.8 -8.3" fill="#ff4d00" fill-rule="evenodd" stroke="none"/>
    <path d="M10.1 -13.0 Q7.5 -13.95 5.35 -15.85 0.8 -11.85 -5.5 -11.85 L-8.25 -12.1" fill="none" stroke="#000000" stroke-linecap="round" stroke-linejoin="round" stroke-width="1.5"/>
  </g>
</svg>
