<?xml version="1.0" encoding="UTF-8" standalone="no"?>
<svg xmlns:ffdec="https://www.free-decompiler.com/flash" xmlns:xlink="http://www.w3.org/1999/xlink" ffdec:objectType="shape" height="14.15px" width="34.95px" xmlns="http://www.w3.org/2000/svg">
  <g transform="matrix(1.0, 0.0, 0.0, 1.0, 19.35, 0.15)">
    <path d="M13.4 2.05 L13.6 2.6 14.5 4.65 15.2 5.85 15.6 6.6 Q15.6 6.95 15.2 6.95 14.85 6.95 14.4 6.3 L14.05 5.65 13.5 5.0 Q13.05 4.75 12.95 4.4 L12.1 2.9 11.25 1.65 9.75 2.0 8.75 2.05 Q8.3 2.05 8.15 1.8 L8.05 1.5 Q8.05 1.2 8.4 1.1 L9.75 0.9 9.95 0.85 12.3 0.75 12.55 1.2 13.05 1.6 13.4 2.05 M-8.95 2.0 L-10.1 2.05 -12.35 1.9 -12.35 2.1 -12.85 2.95 -13.45 4.2 -13.7 5.35 Q-14.05 6.2 -14.5 6.2 L-14.85 6.1 -16.9 10.1 -17.9 12.45 Q-18.65 14.0 -18.95 14.0 -19.35 14.0 -19.35 13.55 L-18.25 10.85 -16.45 7.25 -15.95 6.4 -16.1 6.05 -13.6 0.9 -13.7 0.45 -13.45 0.1 -12.85 -0.1 Q-12.4 -0.3 -12.15 0.45 L-10.6 1.05 -9.75 1.1 Q-9.25 1.05 -8.95 1.3 L-8.7 1.65 -8.95 2.0" fill="#000000" fill-rule="evenodd" stroke="none"/>
  </g>
</svg>
