<?xml version="1.0" encoding="UTF-8" standalone="no"?>
<svg xmlns:ffdec="https://www.free-decompiler.com/flash" xmlns:xlink="http://www.w3.org/1999/xlink" ffdec:objectType="shape" height="317.35px" width="213.15px" xmlns="http://www.w3.org/2000/svg">
  <g transform="matrix(1.0, 0.0, 0.0, 1.0, 107.85, 226.1)">
    <path d="M4.65 -226.1 Q23.5 -212.7 34.65 -192.2 45.5 -172.35 50.5 -149.75 55.45 -127.75 58.4 -105.3 60.3 -91.15 58.25 -77.9 L60.85 -80.75 Q64.95 -84.5 67.55 -89.45 69.45 -93.1 70.35 -97.1 71.05 -100.25 72.05 -103.3 L72.8 -103.95 73.7 -104.35 75.05 -104.6 75.05 -104.7 76.0 -104.6 77.55 -104.1 78.5 -103.5 79.0 -102.85 79.5 -102.15 79.2 -99.6 79.4 -99.5 80.35 -98.85 80.85 -98.2 Q84.05 -81.85 91.85 -66.55 99.75 -51.1 102.7 -34.25 105.7 -17.25 105.25 0.5 104.95 11.9 100.0 20.3 L100.7 20.4 Q94.55 38.75 82.05 55.1 59.7 84.35 23.8 89.55 -10.85 94.6 -39.85 84.8 L-39.85 84.1 -39.8 83.45 -39.8 83.4 Q-59.65 77.2 -74.75 60.5 -101.3 31.1 -105.15 -7.6 -106.65 -22.6 -107.0 -37.65 -106.25 -28.4 -104.95 -19.2 -103.85 -17.4 -102.35 -16.0 -105.55 -30.15 -107.1 -44.4 -109.15 -62.95 -105.65 -81.65 -102.15 -100.4 -99.5 -119.6 -97.6 -133.35 -98.45 -146.65 L-97.95 -147.25 -97.3 -147.75 -96.8 -147.95 -96.25 -148.0 -96.1 -148.2 -95.45 -148.7 -94.95 -148.85 -93.6 -149.05 -93.6 -149.2 Q-86.4 -141.6 -80.8 -131.5 -75.2 -121.5 -71.25 -110.95 L-65.9 -96.55 Q-60.3 -106.55 -55.85 -116.85 -51.7 -126.3 -49.3 -136.25 -47.25 -144.65 -47.7 -152.9 L-47.2 -153.55 -46.25 -154.1 -44.5 -154.6 -44.45 -154.75 -43.55 -154.65 -42.55 -154.4 -42.55 -154.5 -42.35 -155.2 -41.9 -155.9 -41.4 -156.55 -40.75 -156.95 -38.95 -157.4 -38.9 -157.5 Q-29.8 -153.5 -25.5 -142.7 -21.65 -133.0 -17.45 -123.45 -13.5 -114.5 -8.2 -106.25 -6.1 -116.1 1.1 -124.3 14.8 -139.95 11.75 -161.05 9.4 -177.6 3.75 -193.25 -0.9 -206.1 -0.45 -219.6 L0.05 -220.25 1.0 -220.8 0.95 -221.25 0.95 -221.95 0.95 -222.6 1.05 -223.3 1.65 -224.7 2.35 -225.35 Q2.8 -225.65 3.3 -225.75 L4.65 -226.0 4.65 -226.1 M88.95 -147.15 L90.6 -146.85 Q93.55 -144.45 93.8 -140.6 94.1 -134.85 92.7 -129.55 91.15 -123.9 87.05 -119.85 82.2 -115.05 76.0 -115.35 L75.15 -116.1 74.65 -116.75 74.4 -117.45 74.2 -118.15 74.15 -118.6 72.35 -119.2 Q71.85 -119.4 71.35 -119.75 70.1 -121.65 70.15 -123.95 70.2 -128.75 72.0 -133.2 73.7 -137.45 76.45 -141.15 79.95 -145.8 85.25 -147.35 L88.95 -147.15 M82.15 -136.5 Q80.8 -134.55 80.0 -132.4 L78.5 -128.2 Q77.7 -125.9 78.3 -123.95 79.9 -123.2 81.9 -125.0 83.85 -126.75 84.85 -129.15 85.75 -131.25 86.0 -133.45 L86.35 -137.6 Q86.45 -138.45 85.75 -138.3 83.35 -138.35 82.15 -136.5 M4.3 -113.4 Q-2.05 -105.85 -1.35 -95.95 -1.05 -91.15 -5.55 -89.85 L-7.35 -90.45 -8.25 -91.1 -9.25 -91.25 Q-15.6 -97.1 -18.55 -105.6 -21.7 -114.6 -25.75 -123.1 L-34.3 -140.25 Q-37.05 -145.7 -40.25 -150.5 -39.55 -141.6 -41.95 -132.7 -44.85 -122.15 -49.5 -111.95 -54.2 -101.8 -60.45 -92.25 -62.1 -89.7 -62.7 -87.0 -61.6 -82.65 -62.05 -78.65 L-61.15 -76.45 -61.45 -75.75 -61.9 -75.1 Q-62.55 -74.35 -63.35 -73.9 L-67.6 -73.75 -68.55 -74.35 Q-69.7 -77.25 -70.1 -80.1 -73.15 -84.35 -74.05 -91.15 -75.4 -101.45 -79.8 -110.95 -84.4 -121.0 -90.6 -130.05 -90.9 -119.75 -93.35 -109.5 -97.8 -91.0 -99.7 -72.0 -101.6 -52.75 -97.35 -33.8 -94.0 -19.15 -95.9 -6.7 L-96.55 -6.65 -94.7 4.0 Q-88.3 36.1 -63.2 59.3 -46.75 74.55 -26.15 81.35 L-26.0 82.05 -25.95 82.3 Q5.65 84.05 36.25 78.65 41.45 77.75 46.45 74.8 83.45 53.0 93.15 16.0 L93.6 16.7 94.25 17.6 Q96.75 4.5 97.2 -9.0 97.75 -25.55 93.75 -41.05 89.25 -58.55 80.2 -74.5 76.45 -81.05 75.25 -88.0 L73.4 -84.65 Q70.4 -79.65 66.65 -74.95 63.55 -71.15 59.3 -69.5 L57.5 -70.1 56.6 -70.7 56.1 -71.35 55.9 -72.05 55.6 -73.4 55.95 -74.2 55.6 -74.15 54.7 -74.2 52.9 -74.7 Q52.35 -74.95 51.9 -75.3 52.3 -91.0 50.3 -107.15 47.8 -127.2 43.6 -146.85 38.85 -168.9 28.0 -188.55 19.8 -203.45 7.15 -214.6 11.25 -199.75 16.0 -184.95 21.75 -167.05 19.45 -148.05 17.15 -128.75 4.3 -113.4 M-46.15 -215.4 Q-40.9 -212.0 -40.45 -204.55 -40.0 -196.8 -41.5 -188.7 -43.0 -180.6 -40.9 -172.55 -39.35 -166.55 -37.05 -160.75 L-37.35 -160.1 -37.8 -159.4 -39.3 -158.3 Q-40.4 -157.75 -41.65 -157.9 -43.1 -158.1 -44.45 -158.7 L-45.75 -161.6 Q-54.8 -157.65 -61.0 -169.5 -65.95 -179.0 -65.45 -190.5 -65.05 -199.7 -61.9 -208.0 -58.6 -216.65 -50.05 -219.6 L-49.1 -219.55 Q-48.3 -219.4 -47.55 -219.05 L-46.65 -218.4 -45.7 -217.05 -45.4 -216.35 -46.15 -215.4 M-53.65 -204.1 Q-57.3 -197.45 -57.55 -189.25 -57.85 -179.75 -51.65 -172.8 -49.5 -170.35 -47.8 -167.8 L-48.4 -170.45 Q-49.75 -177.55 -48.95 -185.1 -48.2 -192.65 -48.3 -200.4 -48.4 -205.3 -50.5 -209.35 L-53.65 -204.1" fill="#000000" fill-rule="evenodd" stroke="none"/>
  </g>
</svg>
