<?xml version="1.0" encoding="UTF-8" standalone="no"?>
<svg xmlns:ffdec="https://www.free-decompiler.com/flash" xmlns:xlink="http://www.w3.org/1999/xlink" ffdec:objectType="shape" height="99.6px" width="101.6px" xmlns="http://www.w3.org/2000/svg">
  <g transform="matrix(1.0, 0.0, 0.0, 1.0, 51.75, -84.5)">
    <path d="M-9.3 100.6 L-9.25 100.4 -9.15 100.1 -9.05 99.8 -8.85 99.5 -8.55 99.2 -8.25 98.9 -7.85 98.6 -7.45 98.4 -7.25 98.3 -6.75 98.2 -6.15 98.1 -5.55 98.2 -4.85 98.4 -4.35 98.7 -3.95 99.0 -3.65 99.3 -3.5 99.5 -3.45 99.3 -3.45 99.0 -3.35 98.7 -3.35 98.4 -3.25 98.1 -3.15 97.8 -3.05 97.5 -2.85 97.2 -2.65 96.9 -2.35 96.6 -2.05 96.3 -1.45 96.0 -0.75 95.8 -0.15 95.75 -0.15 95.7 0.45 95.8 1.15 96.0 1.65 96.3 2.05 96.6 2.35 96.8 2.75 96.7 3.35 96.4 4.05 96.2 4.65 96.1 5.05 96.1 5.65 96.2 6.35 96.4 6.95 96.7 7.55 97.0 7.95 97.3 8.25 97.6 8.55 97.9 8.85 98.2 9.15 98.5 9.45 98.8 9.55 98.7 10.15 98.4 10.85 98.2 11.45 98.1 12.05 98.2 12.75 98.4 13.25 98.7 13.65 99.0 13.95 99.3 14.15 99.6 14.35 99.9 14.45 100.2 14.65 100.5 14.75 100.8 14.8 100.9 14.85 101.0 14.95 101.3 14.95 101.4 15.05 101.7 15.15 102.0 15.25 102.3 15.25 102.6 15.35 102.9 14.85 103.0 14.15 103.2 13.55 103.5 13.45 103.6 13.25 103.4 12.85 103.1 12.35 102.8 11.65 102.6 11.05 102.5 11.05 102.55 10.45 102.6 9.75 102.8 9.55 102.9 9.25 102.7 8.75 102.4 8.05 102.2 7.45 102.1 7.05 102.1 6.45 102.2 5.95 102.3 5.75 102.4 5.35 102.6 4.95 102.9 4.65 102.9 4.45 102.6 4.35 102.3 4.15 102.0 3.95 101.7 3.65 101.4 3.25 101.1 2.75 100.8 2.05 100.6 1.45 100.5 1.05 100.5 1.05 100.55 0.45 100.6 -0.05 100.7 -0.25 100.8 -0.65 101.0 -1.05 101.3 -1.35 101.6 -1.65 101.9 -1.85 102.2 -1.95 102.5 -2.05 102.8 -2.25 103.1 -2.35 103.4 -2.45 103.7 -2.55 104.0 -2.55 104.3 -2.55 104.6 -2.55 104.9 -2.55 105.1 -2.65 104.8 -2.85 104.5 -3.15 104.2 -3.55 103.9 -4.05 103.6 -4.75 103.4 -5.2 103.35 -5.25 103.2 -5.45 102.9 -5.55 102.6 -5.75 102.3 -5.85 102.0 -6.05 101.7 -6.35 101.4 -6.75 101.1 -7.25 100.8 -7.95 100.6 -8.55 100.5 -8.95 100.5 -8.95 100.55 -9.3 100.6 M17.7 102.2 L17.65 102.1 17.45 101.8 17.35 101.5 17.15 101.2 17.05 100.9 16.85 100.6 16.75 100.3 16.55 100.0 16.45 99.7 16.35 99.4 16.25 99.1 16.15 98.8 16.05 98.5 15.85 98.2 15.75 97.9 15.55 97.6 15.45 97.3 15.25 97.0 15.15 96.7 14.95 96.4 14.85 96.1 14.75 95.8 14.65 95.5 14.65 95.2 14.65 94.9 14.65 94.6 14.65 94.3 14.75 94.0 14.85 93.7 14.95 93.4 15.15 93.1 15.45 92.8 15.75 92.5 16.15 92.2 16.55 92.0 16.75 91.9 17.25 91.8 17.85 91.75 17.85 91.7 18.45 91.8 19.15 92.0 19.65 92.3 20.05 92.6 20.35 92.9 20.65 93.2 20.85 93.5 21.05 93.8 21.15 94.1 21.25 94.4 21.35 94.7 21.55 94.9 22.25 94.9 22.85 95.0 23.55 95.2 24.05 95.5 23.95 95.5 23.55 95.7 23.05 96.0 22.75 96.3 22.45 96.6 22.25 96.9 22.05 97.2 21.95 97.5 21.95 97.8 21.85 98.1 21.65 98.4 21.55 98.7 21.55 99.0 21.45 99.3 21.45 99.6 21.45 99.9 21.45 100.2 21.45 100.5 21.55 100.8 21.55 101.1 21.65 101.4 21.85 101.7 22.05 102.0 22.15 102.1 17.85 102.1 17.85 102.15 17.7 102.2 M-0.95 151.0 L-1.15 150.8 -1.35 150.6 -1.35 150.5 -1.35 150.3 -0.95 150.4 -0.95 150.7 -0.95 151.0 M-37.75 99.1 L-37.65 98.8 -37.55 98.5 -37.45 98.2 -37.25 97.9 -36.95 97.6 -36.65 97.3 -36.55 97.0 -36.55 96.7 -36.35 96.1 -36.15 95.5 -35.85 94.6 -35.45 93.4 -35.25 92.8 -35.05 92.2 -34.75 91.3 -34.35 90.1 -34.25 89.8 -34.05 89.5 -33.95 89.2 -33.75 88.9 -33.65 88.6 -33.45 88.3 -33.35 88.0 -33.25 87.7 -33.15 87.4 -33.05 87.1 -32.85 86.8 -32.65 86.5 -32.35 86.2 -32.05 85.9 -31.45 85.6 -30.75 85.4 -30.15 85.3 -29.55 85.4 -29.05 85.3 -28.65 85.0 -28.25 84.8 -28.05 84.7 -27.55 84.6 -26.95 84.55 -26.95 84.5 -26.55 84.5 -25.95 84.6 -25.25 84.8 -24.75 85.1 -24.35 85.4 -24.05 85.7 -23.85 86.0 -23.75 86.3 -23.55 86.5 -23.55 86.55 -23.15 86.6 -22.55 86.5 -21.95 86.6 -21.25 86.8 -20.75 87.1 -20.35 87.4 -20.05 87.7 -19.85 88.0 -19.75 88.3 -19.55 88.6 -19.45 88.9 -19.45 89.2 -19.35 89.5 -19.35 89.8 -19.35 90.1 -19.35 90.4 -19.35 90.7 -19.35 91.0 -19.35 91.3 -19.35 91.6 -19.35 91.9 -19.45 92.2 -19.55 92.5 -19.65 92.8 -19.65 93.1 -19.85 93.7 -20.05 94.3 -20.2 94.75 -20.05 94.9 -19.75 95.2 -19.6 95.4 -19.55 95.4 -18.85 95.6 -18.15 95.7 -17.75 95.7 -17.15 95.8 -16.45 96.0 -15.95 96.3 -15.55 96.6 -15.25 96.9 -15.05 97.2 -14.95 97.5 -14.75 97.8 -14.65 98.1 -14.65 98.4 -14.55 98.7 -14.55 99.3 -14.55 100.15 -14.25 100.0 -13.55 99.8 -12.95 99.7 -12.55 99.7 -11.95 99.8 -11.25 100.0 -10.75 100.3 -10.35 100.6 -10.15 100.8 -10.45 100.9 -10.95 101.2 -11.25 101.5 -11.55 101.8 -11.85 102.1 -12.05 102.4 -12.25 102.7 -12.35 103.0 -12.45 103.3 -12.55 103.6 -12.55 103.9 -12.55 104.2 -12.55 104.5 -12.65 104.8 -12.75 105.1 -12.85 105.4 -12.85 105.7 -12.95 106.0 -13.05 106.3 -13.05 106.6 -13.15 106.9 -13.25 107.2 -13.25 107.5 -13.35 107.8 -13.45 108.1 -13.55 108.4 -13.65 108.7 -13.75 109.0 -13.85 109.3 -13.95 109.6 -14.05 109.9 -14.15 110.2 -14.15 110.5 -14.25 110.8 -14.35 111.1 -14.45 111.4 -14.45 111.7 -14.55 112.0 -14.65 112.3 -14.75 112.6 -14.75 112.9 -14.85 113.2 -14.95 113.5 -15.05 113.8 -15.05 114.1 -15.15 114.4 -15.25 114.7 -15.25 115.0 -15.35 115.3 -15.45 115.6 -15.45 115.9 -15.55 116.2 -15.65 116.5 -15.65 116.8 -15.75 117.1 -15.85 117.4 -15.85 117.7 -15.95 118.0 -15.95 118.3 -16.05 118.6 -16.15 118.9 -16.15 119.2 -16.25 119.5 -16.25 119.8 -16.25 119.9 -16.45 119.9 -16.65 120.0 -17.05 120.2 -17.45 120.5 -17.75 120.8 -18.05 121.1 -18.25 121.4 -18.35 121.7 -18.45 122.0 -18.55 122.3 -18.55 122.6 -18.65 122.9 -18.95 123.8 -19.25 124.7 -19.55 125.6 -19.75 126.2 -19.85 126.5 -19.95 126.8 -20.05 127.1 -20.05 127.4 -20.15 127.7 -20.15 128.0 -20.15 128.3 -20.15 128.6 -20.25 128.9 -20.35 129.2 -20.95 129.3 -21.55 129.4 -22.05 129.5 -22.25 129.6 -22.65 129.8 -23.05 130.1 -23.35 130.4 -23.65 130.7 -23.85 131.0 -23.95 131.3 -24.05 131.6 -24.15 131.9 -24.15 130.8 -24.15 123.9 -24.15 117.0 -24.15 110.7 -24.25 110.4 -24.45 110.1 -24.55 109.95 -24.55 109.9 -24.65 109.6 -24.85 109.3 -25.05 109.0 -25.45 108.7 -26.15 108.5 -26.45 108.55 -26.45 108.5 -26.35 108.2 -26.25 107.9 -26.15 107.6 -26.15 107.3 -26.15 107.0 -26.15 106.7 -26.25 106.4 -26.25 106.1 -26.35 105.8 -26.55 105.5 -26.65 105.2 -26.85 104.9 -27.15 104.6 -27.45 104.3 -27.75 104.0 -28.05 103.7 -28.45 103.4 -29.05 103.1 -29.65 102.8 -30.35 102.6 -30.55 102.55 -30.85 102.4 -31.55 102.2 -32.15 102.1 -32.95 102.1 -32.95 102.15 -33.55 102.2 -34.25 102.4 -34.85 102.7 -35.15 103.0 -35.45 103.3 -35.65 103.6 -35.85 103.9 -36.05 104.2 -36.25 104.5 -36.45 104.8 -36.65 105.1 -36.85 105.4 -36.95 105.7 -37.15 106.0 -37.25 106.3 -37.35 106.6 -37.45 106.9 -37.55 107.2 -37.65 107.5 -37.75 107.8 -37.85 108.1 -37.95 108.4 -38.05 108.7 -38.25 109.0 -38.35 109.3 -38.55 109.6 -38.75 109.9 -38.95 110.2 -39.15 110.5 -39.2 110.6 -39.55 110.6 -40.05 110.7 -40.25 110.8 -40.65 111.0 -41.05 111.3 -41.35 111.6 -41.65 111.9 -41.85 112.2 -41.95 112.5 -42.05 112.8 -42.15 113.1 -42.15 113.4 -42.15 113.7 -42.25 114.0 -42.45 114.3 -42.65 114.6 -42.75 114.9 -42.85 115.2 -42.95 115.5 -43.05 115.8 -43.15 116.1 -43.25 116.4 -43.35 116.7 -43.35 117.0 -43.55 117.3 -43.75 117.6 -43.85 117.9 -43.95 118.2 -44.05 118.5 -44.15 118.8 -44.25 119.1 -44.35 119.4 -44.35 119.7 -44.45 120.0 -44.55 120.3 -44.65 120.6 -44.85 120.9 -45.05 121.2 -45.25 121.5 -45.45 121.8 -45.35 121.5 -45.15 121.2 -45.05 120.9 -44.95 120.6 -44.95 120.3 -44.95 120.0 -44.85 119.7 -44.65 119.4 -44.55 119.1 -44.55 118.8 -44.55 118.5 -44.45 118.2 -44.25 117.9 -44.15 117.6 -43.95 117.3 -43.85 117.0 -43.65 116.7 -43.55 116.4 -43.45 116.1 -43.35 115.8 -43.35 115.5 -43.35 115.2 -43.25 114.9 -43.15 114.6 -43.05 114.3 -42.95 114.0 -42.75 113.7 -42.55 113.1 -42.25 112.2 -41.95 111.3 -41.65 110.4 -41.35 109.5 -41.15 108.9 -41.05 108.6 -40.85 108.3 -40.75 108.0 -40.55 107.7 -40.45 107.4 -40.25 107.1 -40.05 106.5 -39.85 105.9 -39.65 105.3 -39.45 104.7 -39.25 104.1 -39.05 103.5 -38.95 103.2 -38.75 102.9 -38.65 102.6 -38.55 102.3 -38.55 102.0 -38.55 101.7 -38.45 101.4 -38.25 101.1 -38.15 100.8 -38.15 100.5 -38.05 100.2 -37.95 99.9 -37.85 99.6 -37.75 99.3 -37.75 99.1 M41.2 134.1 L40.85 134.2 40.45 134.4 40.15 134.7 37.35 134.7 36.65 134.5 36.35 134.4 35.95 134.2 35.35 133.9 35.15 133.6 34.95 133.3 34.65 133.0 34.15 132.7 33.95 132.4 33.75 132.1 33.45 131.8 33.25 131.5 33.2 131.35 33.25 131.2 33.15 130.9 32.65 130.6 32.45 130.3 32.35 130.0 32.05 129.7 31.75 129.4 31.35 129.1 30.65 128.9 30.55 128.8 30.45 128.5 30.25 128.2 30.05 127.9 29.95 127.6 29.85 127.3 29.75 127.0 29.65 126.7 29.55 126.4 29.45 126.1 29.25 125.8 29.15 125.5 29.05 125.2 29.05 124.9 28.95 124.6 28.85 124.3 28.75 124.0 28.65 123.7 28.45 123.4 28.35 123.1 28.15 122.5 27.95 121.9 27.75 121.3 27.95 121.5 28.25 121.8 28.45 122.1 28.55 122.4 28.75 122.7 29.05 123.0 29.35 123.3 29.65 123.6 29.95 123.9 30.05 124.2 30.25 124.5 30.45 124.8 30.75 125.1 30.85 125.4 31.05 125.7 31.25 126.0 31.55 126.3 31.85 126.6 32.25 126.9 32.45 127.2 32.75 127.5 33.05 127.8 33.35 128.1 33.65 128.4 33.95 128.7 34.05 129.0 34.25 129.3 34.45 129.6 34.75 129.9 35.65 130.8 36.55 131.7 37.15 132.3 37.75 132.9 38.05 133.2 38.35 133.5 38.95 133.8 39.65 134.0 40.25 134.1 41.2 134.1 M10.25 179.2 L9.95 179.0 9.45 178.7 9.15 178.4 8.95 178.1 8.85 177.8 8.65 177.5 8.65 177.45 9.25 177.6 9.85 177.7 10.25 177.65 10.25 177.7 10.25 178.6 10.25 179.2 M-2.55 145.55 Q-3.25 145.4 -3.8 145.05 L-3.65 144.8 -3.45 144.5 -3.25 144.2 -3.15 143.9 -3.05 143.6 -2.95 143.3 -2.95 143.0 -2.85 142.7 -2.75 142.4 -2.65 142.1 -2.55 141.8 -2.55 141.2 -2.55 140.9 -2.55 140.85 -2.15 140.9 -2.15 141.1 -2.15 141.4 -2.25 141.7 -2.25 142.0 -2.35 142.3 -2.35 142.6 -2.45 142.9 -2.45 143.2 -2.45 143.5 -2.55 143.8 -2.55 144.1 -2.55 144.4 -2.55 144.7 -2.55 145.0 -2.55 145.3 -2.55 145.55 M-4.75 145.75 L-4.85 145.9 -4.95 146.2 -4.95 146.4 -5.15 146.2 -5.45 146.0 -5.05 145.9 -4.75 145.75 M-17.15 180.7 L-17.45 180.7 -18.05 180.55 -18.05 180.5 -17.75 180.2 -17.55 180.0 -17.45 180.3 -17.25 180.6 -17.15 180.7 M-24.15 157.2 L-24.25 156.9 -24.35 156.6 -24.55 156.3 -24.55 155.4 -24.55 153.0 -24.55 150.6 -24.55 150.05 -24.25 150.2 -24.15 150.25 -24.15 150.6 -24.15 155.1 -24.15 157.2 M-44.2 135.95 L-44.3 135.95 -44.45 135.9 -44.65 135.8 -45.05 135.8 -45.35 135.7 -44.75 135.6 -44.35 135.5 -44.35 135.6 -44.25 135.9 -44.2 135.95 M-46.7 135.4 L-46.95 135.3 -47.35 135.1 -47.4 134.95 -47.25 135.1 -46.7 135.4 M-48.5 131.95 L-48.55 131.8 -48.55 131.5 -48.55 131.4 -48.45 131.7 -48.45 131.8 -48.5 131.95 M-47.75 127.7 L-47.75 127.6 -47.6 127.4 -47.65 127.5 -47.75 127.7 M-46.35 124.1 L-46.25 123.9 -46.2 123.8 -46.15 123.7 -46.05 123.5 -45.95 123.3 -45.85 123.0 -45.85 123.3 -45.95 123.6 -46.05 123.9 -46.15 124.2 -46.25 124.5 -46.35 124.8 -46.45 125.1 -46.55 125.3 -46.55 125.2 -46.55 124.9 -46.45 124.6 -46.45 124.3 -46.35 124.1 M-45.75 122.7 L-45.75 122.5 -45.75 122.4 -45.55 122.1 -45.65 122.4 -45.75 122.7 M26.15 108.5 L26.35 108.7 26.65 109.0 26.7 109.05 26.75 109.2 26.95 109.5 27.15 109.8 27.35 110.1 27.55 110.4 27.75 110.7 27.95 111.0 28.25 111.3 28.45 111.6 28.65 111.9 28.85 112.2 29.15 112.5 29.35 112.8 29.55 113.1 29.75 113.4 30.05 113.7 30.25 114.0 30.45 114.3 30.65 114.6 30.95 114.9 31.25 115.2 31.35 115.3 31.55 115.6 31.6 115.75 31.25 115.4 30.65 114.8 30.05 114.2 29.75 113.9 29.45 113.6 29.15 113.3 29.05 113.0 28.95 112.7 28.75 112.4 28.65 112.1 28.45 111.8 28.15 111.5 27.85 111.2 27.55 110.9 27.45 110.6 27.25 110.3 27.05 110.0 26.75 109.7 26.65 109.4 26.45 109.1 26.35 108.8 26.15 108.5 M-46.85 125.9 L-46.85 125.8 -46.7 125.6 -46.75 125.7 -46.85 125.9 M-47.0 126.2 L-47.05 126.3 -47.15 126.5 -47.15 126.4 -47.0 126.2 M-47.3 126.8 L-47.35 126.9 -47.45 127.1 -47.45 127.0 -47.3 126.8" fill="#ff0200" fill-rule="evenodd" stroke="none"/>
    <path d="M24.05 95.5 L24.45 95.4 25.05 95.35 25.05 95.3 25.45 95.4 25.45 95.6 25.55 95.9 25.75 96.2 25.95 96.5 26.25 96.8 26.55 97.1 26.75 97.4 26.85 97.7 27.05 98.0 27.35 98.3 27.55 98.6 27.65 98.9 27.85 99.2 28.15 99.5 28.35 99.8 28.45 100.1 28.65 100.4 28.75 100.7 28.95 101.0 29.05 101.3 29.15 101.6 29.35 101.9 29.65 102.2 29.85 102.5 29.95 102.8 30.15 103.1 30.45 103.4 30.65 103.7 30.65 104.0 30.75 104.3 30.95 104.6 31.05 104.9 31.15 105.2 31.35 105.5 31.65 105.8 31.85 106.1 31.95 106.4 32.15 106.7 32.35 107.0 32.45 107.3 32.65 107.6 32.95 107.9 33.05 108.2 33.05 108.5 33.15 108.8 33.35 109.1 33.55 109.4 33.65 109.7 33.85 110.0 33.95 110.3 34.15 110.6 34.25 110.9 34.25 111.2 34.35 111.5 34.55 111.8 34.75 112.1 35.05 112.4 35.35 112.7 35.45 113.0 35.45 113.3 35.55 113.6 35.75 113.9 35.95 114.2 36.05 114.5 36.25 114.8 36.55 115.1 36.85 115.4 37.05 115.7 37.15 116.0 37.35 116.3 37.55 116.6 37.65 116.9 37.85 117.2 37.95 117.5 38.15 117.8 38.35 118.1 38.65 118.4 38.75 118.7 38.95 119.0 39.15 119.3 39.45 119.6 39.55 119.9 39.75 120.2 39.95 120.5 40.25 120.8 40.35 121.1 40.55 121.4 40.65 121.7 40.75 122.0 40.95 122.3 41.25 122.6 41.55 122.9 41.85 123.2 41.95 123.5 42.15 123.8 42.25 124.1 42.25 124.4 42.35 124.7 42.55 125.0 42.65 125.3 42.75 125.6 42.95 125.9 43.15 126.2 43.25 126.5 43.45 126.8 43.55 127.1 43.75 127.4 43.85 127.7 43.95 128.0 44.15 128.3 44.35 128.6 44.45 128.9 44.65 129.2 44.65 129.5 44.75 129.8 44.85 130.1 44.95 130.4 44.75 130.7 44.65 131.0 44.65 130.9 44.65 130.6 44.65 130.3 44.55 130.0 44.55 129.7 44.45 129.4 44.25 129.1 44.15 128.8 43.95 128.5 43.65 128.2 43.25 127.9 42.75 127.6 42.05 127.4 41.45 127.3 41.15 127.3 40.95 127.1 40.65 126.8 40.35 126.5 40.05 126.2 39.75 125.9 39.55 125.6 39.45 125.3 39.25 125.0 38.95 124.7 38.65 124.4 38.35 124.1 38.05 123.8 37.75 123.5 37.55 123.2 37.45 122.9 37.25 122.6 36.95 122.3 36.65 122.0 36.25 121.7 36.05 121.4 35.75 121.1 35.55 120.8 35.45 120.5 35.25 120.2 34.95 119.9 34.65 119.6 34.35 119.3 34.25 119.0 34.05 118.7 33.85 118.4 33.55 118.1 33.25 117.8 32.95 117.5 32.75 117.2 32.55 116.9 32.35 116.6 32.15 116.3 31.85 116.0 31.6 115.75 31.55 115.6 31.35 115.3 31.25 115.2 30.95 114.9 30.65 114.6 30.45 114.3 30.25 114.0 30.05 113.7 29.75 113.4 29.55 113.1 29.35 112.8 29.15 112.5 28.85 112.2 28.65 111.9 28.45 111.6 28.25 111.3 27.95 111.0 27.75 110.7 27.55 110.4 27.35 110.1 27.15 109.8 26.95 109.5 26.75 109.2 26.7 109.05 26.65 109.0 26.35 108.7 26.15 108.5 26.05 108.2 25.85 107.9 25.85 107.6 25.85 107.3 25.75 107.0 25.75 106.7 25.85 106.4 25.85 106.1 25.85 106.0 25.85 105.8 25.85 105.7 25.85 105.4 25.75 105.1 25.65 104.8 25.55 104.5 25.45 104.2 25.25 103.9 25.05 103.6 24.75 103.3 24.45 103.0 24.05 102.7 23.55 102.4 22.85 102.2 22.25 102.1 22.15 102.1 22.05 102.0 21.85 101.7 21.65 101.4 21.55 101.1 21.55 100.8 21.45 100.5 21.45 100.2 21.45 99.9 21.45 99.6 21.45 99.3 21.55 99.0 21.55 98.7 21.65 98.4 21.85 98.1 21.95 97.8 21.95 97.5 22.05 97.2 22.25 96.9 22.45 96.6 22.75 96.3 23.05 96.0 23.55 95.7 23.95 95.5 24.05 95.5 M36.35 107.7 L36.55 107.9 36.85 108.2 37.05 108.5 37.15 108.8 37.35 109.1 37.45 109.4 37.65 109.7 37.75 110.0 38.05 110.3 38.25 110.6 38.45 110.9 38.65 111.2 38.85 111.5 39.05 111.8 39.25 112.1 39.45 112.4 39.65 112.7 39.75 113.0 39.95 113.3 40.15 113.6 40.35 113.9 40.55 114.2 40.65 114.5 40.85 114.8 41.05 115.1 41.25 115.4 41.45 115.7 41.55 116.0 41.75 116.3 41.85 116.6 42.05 116.9 42.15 117.2 42.35 117.5 42.45 117.8 42.65 118.1 42.75 118.4 42.55 118.2 42.45 117.9 42.35 117.6 42.05 117.3 41.75 117.0 41.45 116.7 41.35 116.4 41.15 116.1 40.95 115.8 40.85 115.5 40.75 115.2 40.45 114.9 40.25 114.6 40.25 114.3 40.15 114.0 39.95 113.7 39.75 113.4 39.35 113.1 39.15 112.8 38.85 112.5 38.65 112.2 38.65 111.9 38.55 111.6 38.35 111.3 38.15 111.0 37.95 110.7 37.75 110.4 37.55 110.1 37.35 109.8 37.25 109.5 37.15 109.2 36.95 108.9 36.85 108.6 36.65 108.3 36.55 108.0 36.35 107.7 M45.45 122.8 L45.55 122.9 45.75 123.2 45.95 123.5 46.25 123.8 46.65 124.1 47.05 124.4 47.35 124.7 47.65 125.0 47.95 125.3 48.25 125.6 48.55 125.9 48.85 126.2 49.15 126.5 49.35 126.8 49.45 127.1 49.65 127.4 49.75 127.7 49.75 128.0 49.85 128.3 49.85 128.6 49.85 128.9 49.85 129.2 49.75 129.5 49.65 129.8 49.55 130.1 49.45 130.4 49.25 130.7 49.05 131.0 48.75 131.3 48.35 131.6 48.15 131.7 48.25 131.4 48.25 131.1 48.25 130.8 48.25 130.5 48.25 130.2 48.25 129.9 48.25 129.6 48.15 129.3 48.05 129.0 47.85 128.7 47.85 128.4 47.75 128.1 47.65 127.8 47.45 127.5 47.35 127.2 47.15 126.9 46.95 126.6 46.85 126.3 46.75 126.0 46.55 125.7 46.45 125.4 46.25 125.1 46.15 124.8 45.95 124.5 45.85 124.2 45.85 123.9 45.75 123.6 45.55 123.3 45.45 123.0 45.45 122.8 M17.45 109.2 L17.45 109.3 17.55 109.6 17.75 109.9 17.85 110.2 17.85 110.5 17.85 110.8 17.85 111.1 17.85 111.4 17.85 111.7 17.85 112.0 17.95 112.3 18.15 112.6 18.25 112.9 18.25 113.2 18.25 113.5 18.25 113.8 18.25 114.1 18.25 114.4 18.25 114.7 18.35 115.0 18.45 115.3 18.55 115.6 18.65 115.9 18.65 116.2 18.65 116.5 18.65 116.8 18.65 117.1 18.65 117.4 18.65 117.7 18.65 118.0 18.65 118.3 18.55 118.6 18.45 118.9 18.35 119.2 18.25 119.5 18.25 120.4 18.25 121.3 18.25 122.2 18.25 123.1 18.25 124.0 18.25 124.6 18.25 124.9 18.35 125.2 18.55 125.5 18.65 125.8 18.65 127.0 18.65 128.2 18.65 129.4 18.65 130.6 18.65 131.5 18.65 132.1 18.75 132.4 18.95 132.7 19.05 133.0 19.05 133.3 19.05 133.6 19.05 133.9 19.05 134.2 19.05 134.5 19.05 134.8 19.15 135.1 19.25 135.4 19.45 135.7 19.45 136.0 19.45 136.3 19.45 136.6 19.45 136.9 19.45 137.2 19.45 137.5 19.55 137.8 19.65 138.1 19.75 138.4 19.85 138.7 19.85 139.3 19.85 139.9 19.85 140.2 19.85 140.5 19.85 140.8 19.85 141.1 19.85 141.4 19.85 141.7 19.95 142.0 20.15 142.3 20.25 142.6 20.25 143.5 20.25 145.3 20.25 147.1 20.25 148.9 20.25 150.7 20.25 151.9 20.35 152.2 20.45 152.5 20.65 152.8 20.65 153.1 20.65 155.8 20.65 158.5 20.65 161.2 20.65 163.9 20.65 165.7 20.55 166.0 20.35 166.3 20.25 166.6 20.25 167.5 20.25 168.7 20.25 169.4 20.25 170.05 20.25 170.3 20.25 171.5 20.25 172.7 20.25 173.9 20.25 174.8 20.25 175.4 20.05 175.7 19.95 176.0 19.75 176.3 19.55 176.6 19.45 176.9 19.45 177.2 19.45 177.5 19.45 177.8 19.15 178.1 18.95 178.4 18.75 178.7 18.65 179.0 18.35 179.3 18.05 179.6 17.05 179.9 11.75 179.9 10.85 179.6 10.45 179.3 10.25 179.2 10.25 178.6 10.25 177.7 10.25 177.65 10.45 177.6 11.15 177.4 11.65 177.1 12.05 176.8 12.35 176.5 12.55 176.2 12.65 175.9 12.85 175.6 12.95 175.3 12.95 175.0 13.05 174.7 13.05 172.9 13.05 171.1 13.05 170.8 13.05 170.2 13.05 169.6 13.05 169.3 13.05 169.0 13.05 168.7 13.05 168.4 13.05 168.1 13.05 167.8 13.05 167.5 13.05 166.6 13.05 166.0 13.15 165.7 13.15 165.4 13.25 165.1 13.25 164.8 13.35 164.5 13.35 164.2 13.45 163.9 13.45 163.6 13.55 163.3 13.55 163.0 13.55 162.7 13.65 162.4 13.65 162.1 13.65 161.8 13.75 161.5 13.75 161.2 13.85 160.9 13.85 160.6 13.85 160.0 13.85 159.4 13.85 158.8 13.85 158.2 13.85 157.9 13.85 157.6 13.85 157.3 13.85 157.0 13.75 156.7 13.65 156.4 13.55 156.1 13.45 155.8 13.25 155.5 13.05 155.2 13.05 154.9 13.05 154.0 13.05 153.1 13.05 152.75 13.55 152.6 14.05 152.3 14.45 152.0 14.75 151.7 14.95 151.4 15.05 151.1 15.25 150.8 15.35 150.5 15.35 150.2 15.45 149.9 15.45 149.6 15.45 149.3 15.35 149.0 15.25 148.7 15.15 148.4 15.05 148.1 15.05 142.1 15.05 136.1 15.05 130.4 15.05 124.7 15.05 120.5 14.95 120.2 14.95 119.9 14.85 119.6 14.85 119.3 14.85 119.0 14.75 118.7 14.75 118.4 14.75 118.1 14.65 117.8 14.65 117.5 14.65 117.2 14.65 116.9 14.65 116.6 14.65 116.3 14.65 116.0 14.65 115.7 14.65 115.4 14.55 115.1 14.55 114.8 14.45 114.5 14.35 114.2 14.35 113.9 14.25 113.6 14.25 113.3 14.25 113.0 14.25 112.7 14.25 112.4 14.25 112.1 14.25 111.8 14.25 111.5 14.25 110.9 14.25 109.95 14.45 110.0 15.05 110.1 15.65 110.0 16.15 109.9 16.35 109.8 16.75 109.6 17.15 109.3 17.45 109.2 M-4.95 146.4 L-4.95 146.5 -4.95 146.8 -4.85 147.1 -4.65 147.4 -4.55 147.7 -4.55 148.0 -4.55 148.3 -4.55 148.6 -4.55 148.9 -4.55 149.2 -4.55 149.5 -4.55 149.8 -4.75 150.1 -4.85 150.4 -4.95 150.7 -4.95 151.0 -4.95 151.3 -4.95 151.6 -4.95 151.9 -4.95 152.2 -4.95 152.5 -5.05 152.8 -5.25 153.1 -5.35 153.4 -5.35 154.0 -5.35 154.6 -5.35 155.2 -5.35 155.5 -5.35 155.8 -5.35 156.1 -5.35 156.4 -5.45 156.7 -5.65 157.0 -5.75 157.3 -5.75 157.6 -5.75 157.9 -5.75 158.2 -5.75 158.5 -5.75 158.8 -5.75 159.1 -5.75 159.4 -5.95 159.7 -6.05 160.0 -6.15 160.3 -6.15 160.6 -6.15 160.9 -6.15 161.2 -6.25 161.5 -6.45 161.8 -6.55 162.1 -6.55 162.4 -6.55 162.7 -6.55 163.0 -6.55 163.3 -6.55 163.6 -6.65 163.9 -6.85 164.2 -6.95 164.5 -6.95 164.8 -6.95 165.1 -6.95 165.4 -6.95 165.7 -6.95 166.0 -7.05 166.3 -7.25 166.6 -7.35 166.9 -7.35 167.2 -7.45 167.5 -7.65 167.8 -7.75 168.1 -7.75 168.4 -7.75 168.7 -7.75 169.0 -7.95 169.3 -8.05 169.6 -8.25 169.9 -8.45 170.2 -8.55 170.5 -8.75 170.8 -8.85 171.1 -8.95 171.4 -9.15 171.7 -9.25 172.0 -9.45 172.3 -9.65 172.6 -9.75 172.9 -9.85 173.2 -10.05 173.5 -10.15 173.8 -10.15 174.1 -10.25 174.4 -10.45 174.7 -10.55 175.0 -10.75 175.3 -10.85 175.6 -11.05 175.9 -11.25 176.2 -11.35 176.5 -11.35 176.8 -11.45 177.1 -11.75 177.4 -11.95 177.7 -12.05 178.0 -12.25 178.3 -12.45 178.6 -12.85 178.9 -13.15 179.2 -13.45 179.5 -13.75 179.8 -14.05 180.1 -14.35 180.4 -14.95 180.7 -17.15 180.7 -17.25 180.6 -17.45 180.3 -17.55 180.0 -17.45 179.9 -17.25 179.6 -17.05 179.3 -16.85 179.0 -16.75 178.7 -16.65 178.4 -16.55 178.1 -16.45 177.8 -16.35 177.5 -16.25 177.2 -16.15 176.9 -16.15 176.3 -16.15 176.0 -16.15 175.7 -16.15 175.55 -16.05 175.4 -15.95 175.1 -15.85 174.8 -15.75 174.5 -15.25 174.2 -14.75 173.9 -14.35 173.6 -14.05 173.3 -13.85 173.0 -13.75 172.7 -13.55 172.4 -13.45 172.1 -13.45 171.8 -13.35 171.5 -13.35 171.2 -13.35 170.9 -13.35 170.6 -13.25 170.3 -13.15 170.0 -13.05 169.7 -12.95 169.4 -12.95 169.1 -12.85 168.8 -12.75 168.5 -12.75 168.2 -12.65 167.9 -12.65 167.6 -12.55 167.3 -12.45 167.0 -12.35 166.7 -12.25 166.4 -12.15 166.1 -12.15 165.8 -12.15 165.5 -12.15 165.2 -12.15 164.9 -12.05 164.6 -12.05 164.3 -11.95 164.0 -11.95 163.7 -11.85 163.4 -11.85 163.1 -11.75 162.8 -11.75 162.5 -11.65 162.2 -11.65 161.9 -11.55 161.6 -11.55 161.3 -11.45 161.0 -11.45 160.7 -11.35 160.4 -11.35 160.1 -11.25 159.8 -11.25 159.5 -11.15 159.2 -11.15 158.9 -11.05 158.6 -11.05 158.3 -10.95 158.0 -10.95 157.7 -10.85 157.4 -10.85 157.1 -10.75 156.8 -10.75 156.5 -10.65 156.2 -10.65 155.9 -10.55 155.6 -10.55 155.3 -10.55 155.0 -10.55 154.7 -10.55 154.4 -10.55 154.1 -10.55 153.8 -10.55 153.5 -10.55 153.2 -10.55 152.9 -10.45 152.6 -10.45 152.3 -10.35 152.0 -10.35 151.7 -10.25 151.4 -10.15 151.1 -10.15 150.8 -10.15 150.5 -10.15 150.2 -10.15 149.9 -10.15 149.6 -9.85 149.3 -9.35 149.0 -9.05 148.7 -8.85 148.4 -8.65 148.1 -8.45 147.8 -8.35 147.5 -8.25 147.2 -8.15 146.9 -8.05 146.6 -7.85 146.3 -7.75 146.0 -7.45 145.8 -6.75 146.0 -6.15 146.1 -5.55 146.0 -5.45 146.0 -5.15 146.2 -4.95 146.4 M-27.85 110.1 L-27.85 110.3 -27.95 110.6 -28.05 110.9 -28.15 111.2 -28.25 111.5 -28.45 111.8 -28.55 112.1 -28.75 112.4 -28.85 112.7 -28.95 113.0 -29.05 113.3 -29.15 113.6 -29.25 113.9 -29.35 114.2 -29.45 114.5 -29.55 114.8 -29.55 115.1 -29.65 115.4 -29.75 115.7 -29.95 116.0 -30.05 116.3 -30.25 116.6 -30.35 116.9 -30.55 117.2 -30.65 117.5 -30.75 117.8 -30.85 118.1 -30.95 118.4 -30.95 118.7 -31.05 119.0 -31.15 119.3 -31.25 119.6 -31.25 119.9 -31.35 120.2 -31.45 120.5 -31.55 120.8 -31.65 121.1 -31.85 121.4 -31.95 121.7 -32.15 122.0 -32.25 122.3 -32.45 122.6 -32.65 123.2 -32.95 124.1 -33.25 125.0 -33.55 125.9 -33.85 126.8 -34.05 127.4 -34.15 127.7 -34.15 128.0 -34.15 128.3 -34.15 128.6 -34.15 128.9 -34.35 129.2 -34.4 129.35 -34.55 129.3 -35.35 129.5 -35.75 129.8 -35.95 130.1 -36.05 130.4 -36.15 130.7 -36.15 131.0 -36.15 131.3 -36.25 131.6 -36.45 131.9 -36.55 132.2 -36.85 132.5 -37.05 132.8 -37.25 133.1 -37.35 133.4 -37.65 133.7 -37.95 134.0 -38.25 134.3 -38.55 134.6 -38.75 134.9 -38.95 135.2 -39.55 135.4 -39.75 135.5 -40.15 135.7 -40.75 136.0 -41.75 136.1 -44.2 135.95 -44.25 135.9 -44.35 135.6 -44.35 135.5 -44.05 135.4 -43.55 135.1 -43.15 134.8 -42.85 134.5 -42.65 134.2 -42.55 133.9 -42.35 133.6 -42.15 133.3 -42.05 133.0 -41.95 132.7 -41.85 132.4 -41.75 132.1 -41.65 131.8 -41.55 131.5 -41.45 131.2 -41.35 130.9 -41.15 130.6 -40.95 130.3 -40.75 130.0 -40.65 129.7 -40.45 129.4 -40.35 129.1 -40.25 128.8 -40.15 128.5 -40.15 128.2 -40.15 127.9 -40.25 127.6 -40.25 127.3 -40.3 127.15 -40.25 127.0 -40.15 126.7 -40.05 126.4 -39.95 126.1 -39.85 125.8 -39.85 125.5 -39.75 125.2 -39.65 124.9 -39.55 124.6 -39.35 124.3 -39.15 124.0 -39.05 123.7 -39.0 123.65 -38.75 123.6 -38.05 123.4 -37.55 123.1 -37.15 122.8 -36.85 122.5 -36.65 122.2 -36.55 121.9 -36.35 121.6 -36.25 121.3 -36.25 121.0 -36.05 120.7 -35.95 120.4 -35.85 120.1 -35.75 119.8 -35.65 119.5 -35.55 119.2 -35.45 118.9 -35.35 118.6 -35.25 118.3 -35.05 118.0 -34.85 117.7 -34.65 117.4 -34.55 117.1 -34.35 116.8 -34.25 116.5 -34.25 116.2 -34.05 115.9 -34.05 115.6 -33.95 115.3 -33.85 115.0 -33.75 114.7 -33.75 114.4 -33.65 114.1 -33.55 113.8 -33.35 113.5 -33.15 113.2 -33.05 112.9 -32.85 112.6 -32.65 112.3 -32.55 112.0 -32.5 111.95 -32.25 111.9 -31.85 111.7 -31.35 111.4 -31.05 111.1 -30.85 110.8 -30.65 110.5 -29.95 110.4 -29.35 110.5 -28.75 110.4 -28.25 110.3 -28.05 110.2 -27.85 110.1" fill="#990000" fill-rule="evenodd" stroke="none"/>
    <path d="M15.35 102.9 L15.65 102.8 16.35 102.5 16.75 102.3 17.25 102.2 17.7 102.2 17.85 102.15 17.85 102.1 22.15 102.1 22.25 102.1 22.85 102.2 23.55 102.4 24.05 102.7 24.45 103.0 24.75 103.3 25.05 103.6 25.25 103.9 25.45 104.2 25.55 104.5 25.65 104.8 25.75 105.1 25.85 105.4 25.85 105.7 25.85 105.8 25.85 106.0 25.85 106.1 25.85 106.4 25.75 106.7 25.75 107.0 25.85 107.3 25.85 107.6 25.85 107.9 26.05 108.2 26.15 108.5 26.35 108.8 26.45 109.1 26.65 109.4 26.75 109.7 27.05 110.0 27.25 110.3 27.45 110.6 27.55 110.9 27.85 111.2 28.15 111.5 28.45 111.8 28.65 112.1 28.75 112.4 28.95 112.7 29.05 113.0 29.15 113.3 29.45 113.6 29.75 113.9 30.05 114.2 30.65 114.8 31.25 115.4 31.6 115.75 31.85 116.0 32.15 116.3 32.35 116.6 32.55 116.9 32.75 117.2 32.95 117.5 33.25 117.8 33.55 118.1 33.85 118.4 34.05 118.7 34.25 119.0 34.35 119.3 34.65 119.6 34.95 119.9 35.25 120.2 35.45 120.5 35.55 120.8 35.75 121.1 36.05 121.4 36.25 121.7 36.65 122.0 36.95 122.3 37.25 122.6 37.45 122.9 37.55 123.2 37.75 123.5 38.05 123.8 38.35 124.1 38.65 124.4 38.95 124.7 39.25 125.0 39.45 125.3 39.55 125.6 39.75 125.9 40.05 126.2 40.35 126.5 40.65 126.8 40.95 127.1 41.15 127.3 41.45 127.3 42.05 127.4 42.75 127.6 43.25 127.9 43.65 128.2 43.95 128.5 44.15 128.8 44.25 129.1 44.45 129.4 44.55 129.7 44.55 130.0 44.65 130.3 44.65 130.6 44.65 130.9 44.65 131.0 44.35 131.3 44.15 131.6 43.95 131.9 43.85 132.2 43.55 132.5 43.25 132.8 42.95 133.1 42.45 133.4 41.95 133.7 41.55 134.0 41.2 134.1 40.25 134.1 39.65 134.0 38.95 133.8 38.35 133.5 38.05 133.2 37.75 132.9 37.15 132.3 36.55 131.7 35.65 130.8 34.75 129.9 34.45 129.6 34.25 129.3 34.05 129.0 33.95 128.7 33.65 128.4 33.35 128.1 33.05 127.8 32.75 127.5 32.45 127.2 32.25 126.9 31.85 126.6 31.55 126.3 31.25 126.0 31.05 125.7 30.85 125.4 30.75 125.1 30.45 124.8 30.25 124.5 30.05 124.2 29.95 123.9 29.65 123.6 29.35 123.3 29.05 123.0 28.75 122.7 28.55 122.4 28.45 122.1 28.25 121.8 27.95 121.5 27.75 121.3 27.55 120.7 27.35 120.1 27.25 119.8 27.15 119.5 26.95 119.2 26.85 118.9 26.75 118.6 26.65 118.3 26.55 118.0 26.45 117.7 26.35 117.4 26.25 117.1 26.15 116.8 25.95 116.5 25.85 116.2 25.65 115.9 25.45 115.6 25.25 115.3 25.15 115.0 24.95 114.4 24.75 113.8 24.55 113.2 24.35 112.6 24.25 112.3 24.15 112.0 24.05 111.7 23.85 111.4 23.75 111.1 23.65 110.8 23.55 110.5 23.45 110.2 23.45 109.9 23.45 109.6 23.35 109.3 23.25 109.0 23.05 108.7 22.85 108.4 22.65 108.1 22.65 107.8 22.65 107.5 22.55 107.2 22.35 106.9 22.15 106.6 21.75 106.3 21.05 106.1 20.65 106.1 20.65 106.15 19.85 106.3 19.45 106.6 19.05 106.5 19.05 106.55 18.45 106.6 18.25 106.7 17.95 106.9 17.75 107.2 17.55 107.5 17.45 107.8 17.45 108.1 17.45 108.4 17.45 108.7 17.45 109.0 17.45 109.2 17.15 109.3 16.75 109.6 16.35 109.8 16.15 109.9 15.65 110.0 15.05 110.1 14.45 110.0 14.25 109.95 14.25 110.9 14.25 111.5 14.25 111.8 14.25 112.1 14.25 112.4 14.25 112.7 14.25 113.0 14.25 113.3 14.25 113.6 14.35 113.9 14.35 114.2 14.45 114.5 14.55 114.8 14.55 115.1 14.65 115.4 14.65 115.7 14.65 116.0 14.65 116.3 14.65 116.6 14.65 116.9 14.65 117.2 14.65 117.5 14.65 117.8 14.75 118.1 14.75 118.4 14.75 118.7 14.85 119.0 14.85 119.3 14.85 119.6 14.95 119.9 14.95 120.2 15.05 120.5 15.05 124.7 15.05 130.4 15.05 136.1 15.05 142.1 15.05 148.1 15.15 148.4 15.25 148.7 15.35 149.0 15.45 149.3 15.45 149.6 15.45 149.9 15.35 150.2 15.35 150.5 15.25 150.8 15.05 151.1 14.95 151.4 14.75 151.7 14.45 152.0 14.05 152.3 13.55 152.6 13.05 152.75 13.05 153.1 13.05 154.0 13.05 154.9 13.05 155.2 13.25 155.5 13.45 155.8 13.55 156.1 13.65 156.4 13.75 156.7 13.85 157.0 13.85 157.3 13.85 157.6 13.85 157.9 13.85 158.2 13.85 158.8 13.85 159.4 13.85 160.0 13.85 160.6 13.85 160.9 13.75 161.2 13.75 161.5 13.65 161.8 13.65 162.1 13.65 162.4 13.55 162.7 13.55 163.0 13.55 163.3 13.45 163.6 13.45 163.9 13.35 164.2 13.35 164.5 13.25 164.8 13.25 165.1 13.15 165.4 13.15 165.7 13.05 166.0 13.05 166.6 13.05 167.5 13.05 167.8 13.05 168.1 13.05 168.4 13.05 168.7 13.05 169.0 13.05 169.3 13.05 169.6 13.05 170.2 13.05 170.8 13.05 171.1 13.05 172.9 13.05 174.7 12.95 175.0 12.95 175.3 12.85 175.6 12.65 175.9 12.55 176.2 12.35 176.5 12.05 176.8 11.65 177.1 11.15 177.4 10.45 177.6 10.25 177.65 9.85 177.7 9.25 177.6 8.65 177.45 8.65 177.2 8.55 176.9 8.45 176.6 8.25 176.3 8.25 176.0 8.15 175.7 8.05 175.4 7.85 175.1 7.75 174.8 7.55 174.5 7.45 174.2 7.45 173.9 7.45 173.6 7.35 173.3 7.25 173.0 7.05 172.7 6.95 172.4 6.75 172.1 6.65 171.8 6.65 171.5 6.65 171.2 6.65 170.9 6.65 170.6 6.65 170.3 6.55 170.0 6.35 169.7 6.25 169.4 6.25 169.1 6.25 168.8 6.15 168.5 6.05 168.2 5.85 167.9 5.85 167.6 5.75 167.3 5.65 167.0 5.55 166.7 5.45 166.4 5.45 166.1 5.45 165.8 5.45 165.5 5.45 165.2 5.45 164.9 5.45 164.6 5.45 164.3 5.45 164.0 5.35 163.7 5.25 163.4 5.05 163.1 5.05 162.8 4.95 162.5 4.85 162.2 4.65 161.9 4.65 161.6 4.65 161.3 4.55 161.0 4.45 160.7 4.35 160.4 4.25 160.1 4.25 159.8 4.25 159.5 4.25 159.2 4.15 158.9 4.05 158.6 3.95 158.3 3.85 158.0 3.85 157.7 3.85 157.4 3.85 157.1 3.85 156.8 3.75 156.5 3.65 156.2 3.55 155.9 3.45 155.6 3.45 155.3 3.45 155.0 3.45 154.7 3.45 154.4 3.45 154.1 3.35 153.8 3.25 153.5 3.15 153.2 3.05 152.9 3.05 152.6 3.05 152.3 3.05 152.0 2.95 151.7 2.85 151.4 2.7 151.2 2.65 151.1 2.65 150.8 2.55 150.5 2.45 150.2 2.25 149.9 2.25 149.6 2.15 149.3 2.05 149.0 1.85 148.7 1.85 148.4 1.85 148.1 1.85 147.8 1.85 147.5 1.75 147.2 1.55 146.9 1.35 146.6 1.05 146.4 1.05 146.2 1.05 145.45 0.4 145.55 Q-1.3 145.85 -2.55 145.55 L-2.55 145.3 -2.55 145.0 -2.55 144.7 -2.55 144.4 -2.55 144.1 -2.55 143.8 -2.45 143.5 -2.45 143.2 -2.45 142.9 -2.35 142.6 -2.35 142.3 -2.25 142.0 -2.25 141.7 -2.15 141.4 -2.15 141.1 -2.15 140.9 -2.55 140.85 -2.55 140.9 -2.55 141.2 -2.55 141.8 -2.65 142.1 -2.75 142.4 -2.85 142.7 -2.95 143.0 -2.95 143.3 -3.05 143.6 -3.15 143.9 -3.25 144.2 -3.45 144.5 -3.65 144.8 -3.8 145.05 -3.85 145.0 -3.95 145.0 -4.15 145.1 -4.45 145.3 -4.65 145.6 -4.75 145.75 -5.05 145.9 -5.45 146.0 -5.55 146.0 -6.15 146.1 -6.75 146.0 -7.45 145.8 -7.75 146.0 -7.85 146.3 -8.05 146.6 -8.15 146.9 -8.25 147.2 -8.35 147.5 -8.45 147.8 -8.65 148.1 -8.85 148.4 -9.05 148.7 -9.35 149.0 -9.85 149.3 -10.15 149.6 -10.15 149.9 -10.15 150.2 -10.15 150.5 -10.15 150.8 -10.15 151.1 -10.25 151.4 -10.35 151.7 -10.35 152.0 -10.45 152.3 -10.45 152.6 -10.55 152.9 -10.55 153.2 -10.55 153.5 -10.55 153.8 -10.55 154.1 -10.55 154.4 -10.55 154.7 -10.55 155.0 -10.55 155.3 -10.55 155.6 -10.65 155.9 -10.65 156.2 -10.75 156.5 -10.75 156.8 -10.85 157.1 -10.85 157.4 -10.95 157.7 -10.95 158.0 -11.05 158.3 -11.05 158.6 -11.15 158.9 -11.15 159.2 -11.25 159.5 -11.25 159.8 -11.35 160.1 -11.35 160.4 -11.45 160.7 -11.45 161.0 -11.55 161.3 -11.55 161.6 -11.65 161.9 -11.65 162.2 -11.75 162.5 -11.75 162.8 -11.85 163.1 -11.85 163.4 -11.95 163.7 -11.95 164.0 -12.05 164.3 -12.05 164.6 -12.15 164.9 -12.15 165.2 -12.15 165.5 -12.15 165.8 -12.15 166.1 -12.25 166.4 -12.35 166.7 -12.45 167.0 -12.55 167.3 -12.65 167.6 -12.65 167.9 -12.75 168.2 -12.75 168.5 -12.85 168.8 -12.95 169.1 -12.95 169.4 -13.05 169.7 -13.15 170.0 -13.25 170.3 -13.35 170.6 -13.35 170.9 -13.35 171.2 -13.35 171.5 -13.45 171.8 -13.45 172.1 -13.55 172.4 -13.75 172.7 -13.85 173.0 -14.05 173.3 -14.35 173.6 -14.75 173.9 -15.25 174.2 -15.75 174.5 -15.85 174.8 -15.95 175.1 -16.05 175.4 -16.15 175.55 -16.15 175.7 -16.15 176.0 -16.15 176.3 -16.15 176.9 -16.25 177.2 -16.35 177.5 -16.45 177.8 -16.55 178.1 -16.65 178.4 -16.75 178.7 -16.85 179.0 -17.05 179.3 -17.25 179.6 -17.45 179.9 -17.55 180.0 -17.75 180.2 -18.05 180.5 -18.05 180.55 -18.15 180.5 -18.95 180.3 -19.25 180.0 -19.85 179.7 -20.25 179.4 -20.55 179.1 -20.65 178.8 -20.85 178.5 -21.05 178.2 -21.35 177.9 -21.45 177.6 -21.65 177.3 -21.75 177.0 -21.75 176.7 -21.85 176.4 -22.05 176.1 -22.25 175.8 -22.35 175.5 -22.45 175.2 -22.55 174.9 -22.65 174.6 -22.75 174.3 -22.85 174.0 -22.95 173.7 -22.95 173.4 -22.95 173.1 -23.05 172.8 -23.25 172.5 -23.35 172.2 -23.35 171.9 -23.35 171.6 -23.35 171.3 -23.45 171.0 -23.55 170.7 -23.65 170.4 -23.75 170.1 -23.75 169.5 -23.75 167.7 -23.75 165.9 -23.75 164.1 -23.75 162.3 -23.75 161.1 -23.85 160.8 -24.05 160.5 -24.15 160.2 -24.15 159.6 -24.15 159.0 -24.15 158.4 -24.15 158.1 -24.15 157.8 -24.15 157.5 -24.15 157.2 -24.15 155.1 -24.15 150.6 -24.15 150.25 -24.25 150.2 -24.55 150.05 -24.55 148.2 -24.55 145.8 -24.55 144.0 -24.35 143.7 -24.25 143.4 -24.15 143.1 -24.15 137.7 -24.15 132.2 -24.15 131.9 -24.05 131.6 -23.95 131.3 -23.85 131.0 -23.65 130.7 -23.35 130.4 -23.05 130.1 -22.65 129.8 -22.25 129.6 -22.05 129.5 -21.55 129.4 -20.95 129.3 -20.35 129.2 -20.25 128.9 -20.15 128.6 -20.15 128.3 -20.15 128.0 -20.15 127.7 -20.05 127.4 -20.05 127.1 -19.95 126.8 -19.85 126.5 -19.75 126.2 -19.55 125.6 -19.25 124.7 -18.95 123.8 -18.65 122.9 -18.55 122.6 -18.55 122.3 -18.45 122.0 -18.35 121.7 -18.25 121.4 -18.05 121.1 -17.75 120.8 -17.45 120.5 -17.05 120.2 -16.65 120.0 -16.45 119.9 -16.25 119.9 -16.25 119.8 -16.25 119.5 -16.15 119.2 -16.15 118.9 -16.05 118.6 -15.95 118.3 -15.95 118.0 -15.85 117.7 -15.85 117.4 -15.75 117.1 -15.65 116.8 -15.65 116.5 -15.55 116.2 -15.45 115.9 -15.45 115.6 -15.35 115.3 -15.25 115.0 -15.25 114.7 -15.15 114.4 -15.05 114.1 -15.05 113.8 -14.95 113.5 -14.85 113.2 -14.75 112.9 -14.75 112.6 -14.65 112.3 -14.55 112.0 -14.45 111.7 -14.45 111.4 -14.35 111.1 -14.25 110.8 -14.15 110.5 -14.15 110.2 -14.05 109.9 -13.95 109.6 -13.85 109.3 -13.75 109.0 -13.65 108.7 -13.55 108.4 -13.45 108.1 -13.35 107.8 -13.25 107.5 -13.25 107.2 -13.15 106.9 -13.05 106.6 -13.05 106.3 -12.95 106.0 -12.85 105.7 -12.85 105.4 -12.75 105.1 -12.65 104.8 -12.55 104.5 -12.55 104.2 -12.55 103.9 -12.55 103.6 -12.45 103.3 -12.35 103.0 -12.25 102.7 -12.05 102.4 -11.85 102.1 -11.55 101.8 -11.25 101.5 -10.95 101.2 -10.45 100.9 -10.15 100.8 -10.05 100.7 -9.55 100.6 -9.3 100.6 -8.95 100.55 -8.95 100.5 -8.55 100.5 -7.95 100.6 -7.25 100.8 -6.75 101.1 -6.35 101.4 -6.05 101.7 -5.85 102.0 -5.75 102.3 -5.55 102.6 -5.45 102.9 -5.25 103.2 -5.2 103.35 -4.75 103.4 -4.05 103.6 -3.55 103.9 -3.15 104.2 -2.85 104.5 -2.65 104.8 -2.55 105.1 -2.55 104.9 -2.55 104.6 -2.55 104.3 -2.55 104.0 -2.45 103.7 -2.35 103.4 -2.25 103.1 -2.05 102.8 -1.95 102.5 -1.85 102.2 -1.65 101.9 -1.35 101.6 -1.05 101.3 -0.65 101.0 -0.25 100.8 -0.05 100.7 0.45 100.6 1.05 100.55 1.05 100.5 1.45 100.5 2.05 100.6 2.75 100.8 3.25 101.1 3.65 101.4 3.95 101.7 4.15 102.0 4.35 102.3 4.45 102.6 4.65 102.9 4.95 102.9 5.35 102.6 5.75 102.4 5.95 102.3 6.45 102.2 7.05 102.1 7.45 102.1 8.05 102.2 8.75 102.4 9.25 102.7 9.55 102.9 9.75 102.8 10.45 102.6 11.05 102.55 11.05 102.5 11.65 102.6 12.35 102.8 12.85 103.1 13.25 103.4 13.45 103.6 13.55 103.5 14.15 103.2 14.85 103.0 15.35 102.9 M-26.45 108.55 L-26.75 108.6 -27.15 108.8 -27.45 109.1 -27.65 109.4 -27.75 109.7 -27.85 110.0 -27.85 110.1 -28.05 110.2 -28.25 110.3 -28.75 110.4 -29.35 110.5 -29.95 110.4 -30.65 110.5 -30.85 110.8 -31.05 111.1 -31.35 111.4 -31.85 111.7 -32.25 111.9 -32.5 111.95 -32.55 112.0 -32.65 112.3 -32.85 112.6 -33.05 112.9 -33.15 113.2 -33.35 113.5 -33.55 113.8 -33.65 114.1 -33.75 114.4 -33.75 114.7 -33.85 115.0 -33.95 115.3 -34.05 115.6 -34.05 115.9 -34.25 116.2 -34.25 116.5 -34.35 116.8 -34.55 117.1 -34.65 117.4 -34.85 117.7 -35.05 118.0 -35.25 118.3 -35.35 118.6 -35.45 118.9 -35.55 119.2 -35.65 119.5 -35.75 119.8 -35.85 120.1 -35.95 120.4 -36.05 120.7 -36.25 121.0 -36.25 121.3 -36.35 121.6 -36.55 121.9 -36.65 122.2 -36.85 122.5 -37.15 122.8 -37.55 123.1 -38.05 123.4 -38.75 123.6 -39.0 123.65 -39.05 123.7 -39.15 124.0 -39.35 124.3 -39.55 124.6 -39.65 124.9 -39.75 125.2 -39.85 125.5 -39.85 125.8 -39.95 126.1 -40.05 126.4 -40.15 126.7 -40.25 127.0 -40.3 127.15 -40.25 127.3 -40.25 127.6 -40.15 127.9 -40.15 128.2 -40.15 128.5 -40.25 128.8 -40.35 129.1 -40.45 129.4 -40.65 129.7 -40.75 130.0 -40.95 130.3 -41.15 130.6 -41.35 130.9 -41.45 131.2 -41.55 131.5 -41.65 131.8 -41.75 132.1 -41.85 132.4 -41.95 132.7 -42.05 133.0 -42.15 133.3 -42.35 133.6 -42.55 133.9 -42.65 134.2 -42.85 134.5 -43.15 134.8 -43.55 135.1 -44.05 135.4 -44.35 135.5 -44.75 135.6 -45.35 135.7 -46.25 135.5 -46.7 135.4 -47.25 135.1 -47.4 134.95 -47.45 134.8 -47.65 134.5 -47.75 134.2 -47.75 133.9 -47.75 133.6 -47.85 133.3 -47.95 133.0 -48.15 132.7 -48.25 132.4 -48.45 132.1 -48.5 131.95 -48.45 131.8 -48.45 131.7 -48.55 131.4 -48.55 131.2 -48.55 131.1 -48.55 130.9 -48.55 130.8 -48.55 130.6 -48.55 130.5 -48.55 130.3 -48.35 130.0 -48.25 129.7 -48.15 129.4 -48.15 129.1 -48.15 128.8 -48.05 128.5 -47.85 128.2 -47.75 127.9 -47.75 127.7 -47.65 127.5 -47.6 127.4 -47.55 127.25 -47.55 127.2 -47.45 127.1 -47.35 126.9 -47.3 126.8 -47.25 126.6 -47.15 126.5 -47.05 126.3 -47.0 126.2 -46.95 126.0 -46.85 125.9 -46.75 125.7 -46.7 125.6 -46.65 125.4 -46.55 125.3 -46.45 125.1 -46.35 124.8 -46.25 124.5 -46.15 124.2 -46.05 123.9 -45.95 123.6 -45.85 123.3 -45.85 123.0 -45.75 122.7 -45.65 122.4 -45.55 122.1 -45.45 121.8 -45.25 121.5 -45.05 121.2 -44.85 120.9 -44.65 120.6 -44.55 120.3 -44.45 120.0 -44.35 119.7 -44.35 119.4 -44.25 119.1 -44.15 118.8 -44.05 118.5 -43.95 118.2 -43.85 117.9 -43.75 117.6 -43.55 117.3 -43.35 117.0 -43.35 116.7 -43.25 116.4 -43.15 116.1 -43.05 115.8 -42.95 115.5 -42.85 115.2 -42.75 114.9 -42.65 114.6 -42.45 114.3 -42.25 114.0 -42.15 113.7 -42.15 113.4 -42.15 113.1 -42.05 112.8 -41.95 112.5 -41.85 112.2 -41.65 111.9 -41.35 111.6 -41.05 111.3 -40.65 111.0 -40.25 110.8 -40.05 110.7 -39.55 110.6 -39.2 110.6 -39.15 110.5 -38.95 110.2 -38.75 109.9 -38.55 109.6 -38.35 109.3 -38.25 109.0 -38.05 108.7 -37.95 108.4 -37.85 108.1 -37.75 107.8 -37.65 107.5 -37.55 107.2 -37.45 106.9 -37.35 106.6 -37.25 106.3 -37.15 106.0 -36.95 105.7 -36.85 105.4 -36.65 105.1 -36.45 104.8 -36.25 104.5 -36.05 104.2 -35.85 103.9 -35.65 103.6 -35.45 103.3 -35.15 103.0 -34.85 102.7 -34.25 102.4 -33.55 102.2 -32.95 102.15 -32.95 102.1 -32.15 102.1 -31.55 102.2 -30.85 102.4 -30.55 102.55 -30.35 102.6 -29.65 102.8 -29.05 103.1 -28.45 103.4 -28.05 103.7 -27.75 104.0 -27.45 104.3 -27.15 104.6 -26.85 104.9 -26.65 105.2 -26.55 105.5 -26.35 105.8 -26.25 106.1 -26.25 106.4 -26.15 106.7 -26.15 107.0 -26.15 107.3 -26.15 107.6 -26.25 107.9 -26.35 108.2 -26.45 108.5 -26.45 108.55 M-3.45 112.8 L-3.65 113.1 -3.75 113.4 -3.75 113.7 -3.75 114.0 -3.75 114.2 -3.45 112.95 -3.3 112.65 -3.45 112.8" fill="#ce0000" fill-rule="evenodd" stroke="none"/>
    <path d="M25.45 95.4 L25.45 95.3 25.45 95.0 25.55 94.7 25.75 94.4 25.95 94.1 26.25 93.9 26.45 93.8 27.05 93.75 27.05 93.7 27.45 93.7 28.15 93.9 28.55 94.2 28.85 94.5 29.0 94.6 29.35 94.7 29.85 95.0 30.15 95.3 30.45 95.6 30.65 95.9 30.85 96.2 31.05 96.5 31.15 96.8 31.35 97.1 31.45 97.4 31.65 97.7 31.75 97.9 29.7 95.6 29.75 95.7 29.95 96.0 30.05 96.3 30.15 96.6 30.45 96.9 30.75 97.2 30.85 97.5 30.95 97.8 31.15 98.1 31.35 98.4 31.45 98.7 31.65 99.0 31.75 99.3 31.95 99.6 32.05 99.9 32.25 100.2 32.55 100.5 32.75 100.8 33.05 101.1 33.25 101.4 33.35 101.7 33.55 102.0 33.65 102.3 33.75 102.6 33.85 102.9 33.95 103.2 34.05 103.5 34.25 103.8 34.55 104.1 34.75 104.4 34.85 104.7 34.95 105.0 35.25 105.3 35.55 105.6 35.65 105.9 35.75 106.2 35.95 106.5 36.15 106.8 36.25 107.1 36.25 107.4 36.35 107.7 36.55 108.0 36.65 108.3 36.85 108.6 36.95 108.9 37.15 109.2 37.25 109.5 37.35 109.8 37.55 110.1 37.75 110.4 37.95 110.7 38.15 111.0 38.35 111.3 38.55 111.6 38.65 111.9 38.65 112.2 38.85 112.5 39.15 112.8 39.35 113.1 39.75 113.4 39.95 113.7 40.15 114.0 40.25 114.3 40.25 114.6 40.45 114.9 40.75 115.2 40.85 115.5 40.95 115.8 41.15 116.1 41.35 116.4 41.45 116.7 41.75 117.0 42.05 117.3 42.35 117.6 42.45 117.9 42.55 118.2 42.75 118.4 42.85 118.5 43.15 118.8 43.25 119.1 43.35 119.4 43.45 119.7 43.55 120.0 43.85 120.3 44.15 120.6 44.45 120.9 44.75 121.2 44.85 121.5 44.95 121.8 45.15 122.1 45.35 122.4 45.45 122.7 45.45 122.8 45.45 123.0 45.55 123.3 45.75 123.6 45.85 123.9 45.85 124.2 45.95 124.5 46.15 124.8 46.25 125.1 46.45 125.4 46.55 125.7 46.75 126.0 46.85 126.3 46.95 126.6 47.15 126.9 47.35 127.2 47.45 127.5 47.65 127.8 47.75 128.1 47.85 128.4 47.85 128.7 48.05 129.0 48.15 129.3 48.25 129.6 48.25 129.9 48.25 130.2 48.25 130.5 48.25 130.8 48.25 131.1 48.25 131.4 48.15 131.7 48.05 132.0 47.85 132.3 47.75 132.6 47.55 132.9 47.35 133.2 47.15 133.5 46.95 133.8 46.75 134.1 46.55 134.4 46.15 134.7 45.95 135.0 45.65 135.3 45.35 135.6 44.95 135.9 44.35 136.2 43.75 136.5 43.45 136.8 42.95 137.1 42.35 137.4 41.75 137.7 41.45 137.9 41.25 138.0 40.65 138.1 37.05 138.1 36.25 137.9 35.45 137.7 34.65 137.5 34.25 137.2 33.85 136.9 33.25 136.6 32.95 136.3 32.65 136.0 32.45 135.7 32.05 135.4 31.85 135.2 32.3 136.5 32.25 136.5 31.45 136.3 31.05 136.0 30.75 135.7 30.55 135.4 30.35 135.1 30.25 134.8 29.95 134.5 29.75 134.2 29.55 133.9 29.45 133.6 29.25 133.3 29.15 133.0 28.95 132.7 28.75 132.4 28.65 132.1 28.55 131.8 28.35 131.5 28.25 131.2 28.05 130.9 27.85 130.6 27.75 130.3 27.45 130.0 27.25 129.7 27.15 129.4 26.95 129.1 26.75 128.8 26.65 128.5 26.65 128.2 26.65 127.9 26.55 127.6 26.45 127.3 26.25 127.0 26.15 126.7 25.95 126.4 25.85 126.1 25.85 125.8 25.85 125.5 25.75 125.2 25.65 124.9 25.55 124.6 25.35 124.3 25.25 124.0 25.15 123.7 25.05 123.4 24.85 122.8 24.65 122.2 24.45 121.6 24.25 121.0 24.15 120.7 23.95 120.4 23.85 120.1 23.75 119.8 23.65 119.5 23.55 119.2 23.45 118.9 23.35 118.6 23.25 118.3 23.15 118.0 22.95 117.7 22.75 117.4 22.55 117.1 22.35 116.8 22.25 116.5 22.15 116.2 21.95 115.6 21.85 115.3 21.85 115.4 21.85 115.7 21.85 116.3 21.85 116.9 21.85 117.5 21.85 118.1 21.85 118.7 21.85 119.0 21.75 119.3 21.65 119.6 21.55 119.9 21.45 120.2 21.45 120.5 21.45 120.8 21.45 121.4 21.45 122.0 21.45 122.6 21.45 123.2 21.45 123.8 21.55 124.1 21.75 124.4 21.85 124.7 21.85 125.3 21.85 126.2 21.85 127.4 21.85 128.6 21.85 129.8 21.85 131.0 21.95 131.3 22.15 131.6 22.25 131.9 22.25 132.2 22.25 132.5 22.25 132.8 22.25 133.1 22.25 133.4 22.25 133.7 22.25 134.0 22.35 134.3 22.45 134.6 22.55 134.9 22.65 135.2 22.65 135.5 22.65 135.8 22.65 136.1 22.65 136.4 22.65 136.7 22.65 137.0 22.85 137.3 22.95 137.6 23.05 137.9 23.05 138.2 23.05 138.5 23.05 138.8 23.05 139.1 23.05 139.4 23.05 139.7 23.05 140.0 23.05 140.3 23.05 140.6 23.15 140.9 23.35 141.2 23.45 141.5 23.45 142.7 23.45 144.5 23.45 146.3 23.45 148.1 23.45 149.9 23.45 151.1 23.65 151.4 23.75 151.7 23.85 152.0 23.85 154.1 23.85 157.1 23.85 160.1 23.85 163.1 23.85 166.1 23.85 166.7 23.75 167.0 23.7 167.1 23.75 167.2 23.85 167.5 23.85 167.8 23.85 168.1 23.85 168.4 23.85 168.7 23.85 169.0 23.85 169.3 23.75 169.6 23.65 169.9 23.55 170.2 23.45 170.5 23.45 171.1 23.45 171.5 23.45 172.0 23.45 172.7 23.45 173.2 23.45 173.9 23.45 174.4 23.45 175.6 23.45 176.5 23.35 176.8 23.25 177.1 23.15 177.4 22.95 177.7 22.85 178.0 22.65 178.3 22.65 178.6 22.55 178.9 22.45 179.2 22.25 179.5 22.15 179.8 21.95 180.1 21.75 180.4 21.65 180.7 21.55 181.0 21.25 181.3 20.95 181.6 20.65 181.9 20.35 182.2 19.75 182.5 19.15 182.8 18.55 183.1 17.85 183.3 13.85 183.3 12.25 183.3 11.05 183.3 10.25 183.1 9.65 182.8 9.15 182.5 8.85 182.2 8.25 181.9 7.65 181.6 7.15 181.3 6.85 181.0 6.55 180.7 6.35 180.4 6.25 180.1 6.15 179.8 5.95 179.5 5.85 179.2 5.65 178.9 5.55 178.6 5.45 178.3 5.45 178.0 5.25 177.7 5.15 177.4 4.95 177.1 4.75 176.8 4.65 176.5 4.65 176.2 4.55 175.9 4.35 175.6 4.25 175.3 4.25 175.0 4.15 174.7 3.95 174.4 3.85 174.1 3.85 173.8 3.75 173.5 3.55 173.2 3.45 172.9 3.45 172.6 3.45 172.3 3.45 172.0 3.45 171.7 3.45 171.4 3.35 171.1 3.15 170.8 3.05 170.5 3.05 170.2 3.05 169.9 3.05 169.6 2.85 169.3 2.75 169.0 2.65 168.7 2.65 168.4 2.65 168.1 2.45 167.8 2.35 167.5 2.25 167.2 2.25 166.9 2.25 166.6 2.25 166.3 2.25 166.0 2.25 165.7 2.25 165.4 2.15 165.1 1.95 164.8 1.85 164.5 1.85 164.2 1.85 163.9 1.85 163.6 1.65 163.3 1.55 163.0 1.45 162.7 1.45 162.4 1.45 162.1 1.35 161.8 1.15 161.5 1.05 161.2 1.05 160.9 1.05 160.6 1.05 160.3 1.05 160.0 1.05 159.7 0.85 159.4 0.75 159.1 0.65 158.8 0.65 158.5 0.65 158.2 0.65 157.9 0.65 157.6 0.65 157.3 0.45 157.0 0.35 156.7 0.25 156.4 0.25 156.1 0.25 155.8 0.25 155.5 0.25 155.2 0.25 154.9 0.25 154.6 0.15 154.3 -0.05 154.0 -0.15 153.7 -0.15 153.4 -0.15 153.1 -0.15 152.8 -0.35 152.5 -0.45 152.2 -0.65 151.9 -0.85 151.6 -0.95 151.3 -0.95 151.0 -0.95 150.7 -0.95 150.4 -1.35 150.3 -1.35 150.5 -1.35 150.6 -1.45 150.8 -1.55 151.1 -1.65 151.4 -1.75 151.7 -1.75 152.0 -1.75 152.3 -1.75 152.6 -1.75 152.9 -1.75 153.2 -1.75 153.5 -1.85 153.8 -2.05 154.1 -2.15 154.4 -2.15 154.7 -2.15 155.0 -2.15 155.3 -2.15 155.6 -2.15 155.9 -2.15 156.2 -2.15 156.5 -2.15 156.8 -2.15 157.1 -2.25 157.4 -2.35 157.7 -2.55 158.0 -2.55 158.3 -2.55 158.6 -2.55 158.9 -2.55 159.2 -2.55 159.5 -2.55 159.8 -2.55 160.1 -2.65 160.4 -2.75 160.7 -2.85 161.0 -2.95 161.3 -2.95 161.6 -2.95 161.9 -2.95 162.2 -3.05 162.5 -3.15 162.8 -3.35 163.1 -3.35 163.4 -3.35 163.7 -3.35 164.0 -3.35 164.3 -3.35 164.6 -3.45 164.9 -3.55 165.2 -3.75 165.5 -3.75 165.8 -3.75 166.1 -3.75 166.4 -3.75 166.7 -3.75 167.0 -3.85 167.3 -3.95 167.6 -4.15 167.9 -4.25 168.2 -4.35 168.5 -4.55 168.8 -4.55 169.1 -4.55 169.4 -4.55 169.7 -4.65 170.0 -4.75 170.3 -4.85 170.6 -5.05 170.9 -5.15 171.2 -5.35 171.5 -5.55 171.8 -5.75 172.1 -5.85 172.4 -5.95 172.7 -6.05 173.0 -6.25 173.3 -6.35 173.6 -6.55 173.9 -6.65 174.2 -6.85 174.5 -6.95 174.8 -6.95 175.1 -7.05 175.4 -7.25 175.7 -7.45 176.0 -7.55 176.3 -7.65 176.6 -7.85 176.9 -7.95 177.2 -8.15 177.5 -8.15 177.8 -8.25 178.1 -8.35 178.4 -8.55 178.7 -8.75 179.0 -9.05 179.3 -9.15 179.6 -9.35 179.9 -9.45 180.2 -9.65 180.5 -9.85 180.8 -10.05 181.1 -10.45 181.4 -10.75 181.7 -11.05 182.0 -11.45 182.3 -11.95 182.6 -12.25 182.9 -12.55 183.2 -13.05 183.5 -13.65 183.8 -13.95 184.0 -14.55 184.1 -17.75 184.1 -18.55 183.9 -19.35 183.7 -20.15 183.5 -20.75 183.2 -21.35 182.9 -21.95 182.6 -22.25 182.3 -22.55 182.0 -22.85 181.7 -23.15 181.4 -23.45 181.1 -23.65 180.8 -23.75 180.5 -23.95 180.2 -24.25 179.9 -24.45 179.6 -24.55 179.3 -24.55 179.0 -24.65 178.7 -24.85 178.4 -24.95 178.1 -24.95 177.8 -25.05 177.5 -25.25 177.2 -25.35 176.9 -25.45 176.6 -25.65 176.3 -25.75 176.0 -25.75 175.7 -25.85 175.4 -26.05 175.1 -26.15 174.8 -26.15 174.5 -26.15 174.2 -26.25 173.9 -26.45 173.6 -26.55 173.3 -26.55 173.0 -26.55 172.7 -26.55 172.4 -26.55 172.1 -26.65 171.8 -26.85 171.5 -26.95 171.2 -26.95 170.0 -26.95 168.2 -26.95 166.4 -26.95 164.6 -26.95 162.8 -26.95 162.2 -27.05 161.9 -27.25 161.6 -27.35 161.3 -27.35 161.0 -27.35 160.7 -27.35 160.1 -27.35 159.5 -27.35 158.9 -27.35 158.3 -27.35 158.0 -27.55 157.7 -27.65 157.4 -27.75 157.1 -27.75 155.0 -27.75 152.0 -27.75 149.0 -27.75 146.0 -27.75 143.3 -27.65 143.0 -27.45 142.7 -27.35 142.4 -27.35 136.4 -27.35 129.5 -27.35 122.6 -27.35 118.0 -27.45 118.3 -27.55 118.6 -27.65 118.9 -27.75 119.2 -27.85 119.5 -27.95 119.8 -27.95 120.1 -28.05 120.4 -28.15 120.7 -28.25 121.0 -28.35 121.3 -28.45 121.6 -28.55 121.9 -28.65 122.2 -28.75 122.5 -28.95 122.8 -29.05 123.1 -29.25 123.4 -29.35 123.7 -29.55 124.0 -29.65 124.3 -29.85 124.9 -30.05 125.5 -30.35 126.4 -30.65 127.3 -30.85 127.9 -30.95 128.2 -30.95 128.5 -30.95 128.8 -30.95 129.1 -30.95 129.4 -31.05 129.7 -31.15 130.0 -31.25 130.3 -31.45 130.6 -31.55 130.9 -31.65 131.2 -31.75 131.5 -31.85 131.8 -31.95 132.1 -32.15 132.4 -32.15 132.7 -32.15 133.0 -32.25 133.3 -32.35 133.6 -32.55 133.9 -32.55 134.2 -32.65 134.5 -32.75 134.8 -32.95 135.1 -33.25 135.4 -33.55 135.7 -33.75 135.9 -33.95 136.0 -34.55 136.1 -35.25 136.1 -35.45 136.4 -35.75 136.7 -36.05 137.0 -36.25 137.3 -36.55 137.6 -36.85 137.9 -37.25 138.2 -37.85 138.5 -38.15 138.7 -38.35 138.8 -39.25 139.0 -39.85 139.3 -40.15 139.5 -40.35 139.6 -40.95 139.7 -41.75 139.7 -42.55 139.5 -45.35 139.3 -46.15 139.1 -46.55 138.9 -47.35 138.7 -47.75 138.5 -48.55 138.3 -49.15 138.0 -49.65 137.7 -49.95 137.4 -50.25 137.1 -50.45 136.8 -50.55 136.5 -50.55 136.2 -50.65 135.9 -50.85 135.6 -50.95 135.3 -50.95 135.0 -51.05 134.7 -51.25 134.4 -51.35 134.1 -51.35 133.8 -51.45 133.5 -51.65 133.2 -51.75 132.9 -51.75 132.6 -51.75 132.3 -51.75 131.7 -51.75 131.1 -51.75 130.5 -51.75 129.9 -51.75 129.3 -51.75 129.0 -51.65 128.7 -51.45 128.4 -51.35 128.1 -51.35 127.8 -51.25 127.5 -51.05 127.2 -50.95 126.9 -50.95 126.6 -50.95 126.4 -50.95 126.3 -50.95 126.1 -50.95 126.0 -50.95 125.7 -50.85 125.4 -50.65 125.1 -50.35 124.8 -50.15 124.6 -50.05 124.5 -49.85 124.3 -49.75 124.0 -49.75 123.7 -49.65 123.4 -49.45 123.1 -49.35 122.8 -49.15 122.5 -49.05 122.2 -48.95 121.9 -48.85 121.6 -48.75 121.3 -48.65 121.0 -48.55 120.7 -48.45 120.4 -48.35 120.1 -48.15 119.8 -48.15 119.5 -48.15 119.2 -48.15 118.9 -48.05 118.6 -47.85 118.3 -47.75 118.0 -47.75 117.7 -47.65 117.4 -47.45 117.1 -47.35 116.8 -47.15 116.5 -47.05 116.2 -46.85 115.9 -46.75 115.6 -46.55 115.3 -46.55 115.0 -46.55 114.7 -46.55 114.4 -46.45 114.1 -46.35 113.8 -46.25 113.5 -46.15 113.2 -45.95 112.9 -45.85 112.6 -45.65 112.3 -45.55 112.0 -45.35 111.4 -45.05 110.5 -44.75 109.6 -44.45 108.7 -44.15 107.8 -43.95 107.2 -43.75 106.9 -43.65 106.6 -43.45 106.3 -43.35 106.0 -43.15 105.4 -42.95 104.8 -42.75 104.2 -42.55 103.6 -42.35 103.0 -42.15 102.4 -41.95 102.1 -41.85 101.8 -41.75 101.5 -41.75 101.2 -41.75 100.9 -41.65 100.6 -41.45 100.3 -41.35 100.0 -41.35 99.7 -41.35 99.4 -41.25 99.1 -41.05 98.8 -40.95 98.5 -40.85 98.2 -40.65 97.9 -40.35 97.6 -39.95 97.4 -39.35 97.35 -39.35 97.3 -38.65 97.5 -38.25 97.8 -38.05 98.1 -37.85 98.4 -37.75 98.7 -37.75 99.0 -37.75 99.1 -37.75 99.3 -37.85 99.6 -37.95 99.9 -38.05 100.2 -38.15 100.5 -38.15 100.8 -38.25 101.1 -38.45 101.4 -38.55 101.7 -38.55 102.0 -38.55 102.3 -38.65 102.6 -38.75 102.9 -38.95 103.2 -39.05 103.5 -39.25 104.1 -39.45 104.7 -39.65 105.3 -39.85 105.9 -40.05 106.5 -40.25 107.1 -40.45 107.4 -40.55 107.7 -40.75 108.0 -40.85 108.3 -41.05 108.6 -41.15 108.9 -41.35 109.5 -41.65 110.4 -41.95 111.3 -42.25 112.2 -42.55 113.1 -42.75 113.7 -42.95 114.0 -43.05 114.3 -43.15 114.6 -43.25 114.9 -43.35 115.2 -43.35 115.5 -43.35 115.8 -43.45 116.1 -43.55 116.4 -43.65 116.7 -43.85 117.0 -43.95 117.3 -44.15 117.6 -44.25 117.9 -44.45 118.2 -44.55 118.5 -44.55 118.8 -44.55 119.1 -44.65 119.4 -44.85 119.7 -44.95 120.0 -44.95 120.3 -44.95 120.6 -45.05 120.9 -45.15 121.2 -45.35 121.5 -45.45 121.8 -45.55 122.1 -45.75 122.4 -45.75 122.5 -45.75 122.7 -45.85 123.0 -45.95 123.3 -46.05 123.5 -46.15 123.6 -46.2 123.8 -46.25 123.9 -46.35 124.1 -46.45 124.2 -46.55 124.5 -46.55 124.8 -46.65 125.1 -46.85 125.4 -46.95 125.7 -47.15 126.0 -47.35 126.3 -47.35 126.6 -47.45 126.9 -47.55 127.2 -47.55 127.25 -47.65 127.4 -47.75 127.35 -47.75 127.6 -47.75 127.7 -47.75 127.9 -47.85 128.2 -48.05 128.5 -48.15 128.8 -48.15 129.1 -48.15 129.4 -48.25 129.7 -48.35 130.0 -48.55 130.3 -48.55 130.5 -48.55 130.6 -48.55 130.8 -48.55 130.9 -48.55 131.1 -48.55 131.2 -48.55 131.4 -48.55 131.5 -48.55 131.8 -48.5 131.95 -48.45 132.1 -48.25 132.4 -48.15 132.7 -47.95 133.0 -47.85 133.3 -47.75 133.6 -47.75 133.9 -47.75 134.2 -47.65 134.5 -47.45 134.8 -47.4 134.95 -47.35 135.1 -46.95 135.3 -46.7 135.4 -46.25 135.5 -45.35 135.7 -45.05 135.8 -44.65 135.9 -44.3 135.95 -44.2 135.95 -41.75 136.1 -40.75 136.0 -40.15 135.7 -39.75 135.5 -39.55 135.4 -38.95 135.2 -38.75 134.9 -38.55 134.6 -38.25 134.3 -37.95 134.0 -37.65 133.7 -37.35 133.4 -37.25 133.1 -37.05 132.8 -36.85 132.5 -36.55 132.2 -36.45 131.9 -36.25 131.6 -36.15 131.3 -36.15 131.0 -36.15 130.7 -36.05 130.4 -35.95 130.1 -35.75 129.8 -35.35 129.5 -34.55 129.3 -34.4 129.35 -34.35 129.2 -34.15 128.9 -34.15 128.6 -34.15 128.3 -34.15 128.0 -34.15 127.7 -34.05 127.4 -33.85 126.8 -33.55 125.9 -33.25 125.0 -32.95 124.1 -32.65 123.2 -32.45 122.6 -32.25 122.3 -32.15 122.0 -31.95 121.7 -31.85 121.4 -31.65 121.1 -31.55 120.8 -31.45 120.5 -31.35 120.2 -31.25 119.9 -31.25 119.6 -31.15 119.3 -31.05 119.0 -30.95 118.7 -30.95 118.4 -30.85 118.1 -30.75 117.8 -30.65 117.5 -30.55 117.2 -30.35 116.9 -30.25 116.6 -30.05 116.3 -29.95 116.0 -29.75 115.7 -29.65 115.4 -29.55 115.1 -29.55 114.8 -29.45 114.5 -29.35 114.2 -29.25 113.9 -29.15 113.6 -29.05 113.3 -28.95 113.0 -28.85 112.7 -28.75 112.4 -28.55 112.1 -28.45 111.8 -28.25 111.5 -28.15 111.2 -28.05 110.9 -27.95 110.6 -27.85 110.3 -27.85 110.1 -27.85 110.0 -27.75 109.7 -27.65 109.4 -27.45 109.1 -27.15 108.8 -26.75 108.6 -26.45 108.55 -26.15 108.5 -25.45 108.7 -25.05 109.0 -24.85 109.3 -24.65 109.6 -24.55 109.9 -24.55 109.95 -24.45 110.1 -24.25 110.4 -24.15 110.7 -24.15 117.0 -24.15 123.9 -24.15 130.8 -24.15 131.9 -24.15 132.2 -24.15 137.7 -24.15 143.1 -24.25 143.4 -24.35 143.7 -24.55 144.0 -24.55 145.8 -24.55 148.2 -24.55 150.05 -24.55 150.6 -24.55 153.0 -24.55 155.4 -24.55 156.3 -24.35 156.6 -24.25 156.9 -24.15 157.2 -24.15 157.5 -24.15 157.8 -24.15 158.1 -24.15 158.4 -24.15 159.0 -24.15 159.6 -24.15 160.2 -24.05 160.5 -23.85 160.8 -23.75 161.1 -23.75 162.3 -23.75 164.1 -23.75 165.9 -23.75 167.7 -23.75 169.5 -23.75 170.1 -23.65 170.4 -23.55 170.7 -23.45 171.0 -23.35 171.3 -23.35 171.6 -23.35 171.9 -23.35 172.2 -23.25 172.5 -23.05 172.8 -22.95 173.1 -22.95 173.4 -22.95 173.7 -22.85 174.0 -22.75 174.3 -22.65 174.6 -22.55 174.9 -22.45 175.2 -22.35 175.5 -22.25 175.8 -22.05 176.1 -21.85 176.4 -21.75 176.7 -21.75 177.0 -21.65 177.3 -21.45 177.6 -21.35 177.9 -21.05 178.2 -20.85 178.5 -20.65 178.8 -20.55 179.1 -20.25 179.4 -19.85 179.7 -19.25 180.0 -18.95 180.3 -18.15 180.5 -18.05 180.55 -17.45 180.7 -17.15 180.7 -14.95 180.7 -14.35 180.4 -14.05 180.1 -13.75 179.8 -13.45 179.5 -13.15 179.2 -12.85 178.9 -12.45 178.6 -12.25 178.3 -12.05 178.0 -11.95 177.7 -11.75 177.4 -11.45 177.1 -11.35 176.8 -11.35 176.5 -11.25 176.2 -11.05 175.9 -10.85 175.6 -10.75 175.3 -10.55 175.0 -10.45 174.7 -10.25 174.4 -10.15 174.1 -10.15 173.8 -10.05 173.5 -9.85 173.2 -9.75 172.9 -9.65 172.6 -9.45 172.3 -9.25 172.0 -9.15 171.7 -8.95 171.4 -8.85 171.1 -8.75 170.8 -8.55 170.5 -8.45 170.2 -8.25 169.9 -8.05 169.6 -7.95 169.3 -7.75 169.0 -7.75 168.7 -7.75 168.4 -7.75 168.1 -7.65 167.8 -7.45 167.5 -7.35 167.2 -7.35 166.9 -7.25 166.6 -7.05 166.3 -6.95 166.0 -6.95 165.7 -6.95 165.4 -6.95 165.1 -6.95 164.8 -6.95 164.5 -6.85 164.2 -6.65 163.9 -6.55 163.6 -6.55 163.3 -6.55 163.0 -6.55 162.7 -6.55 162.4 -6.55 162.1 -6.45 161.8 -6.25 161.5 -6.15 161.2 -6.15 160.9 -6.15 160.6 -6.15 160.3 -6.05 160.0 -5.95 159.7 -5.75 159.4 -5.75 159.1 -5.75 158.8 -5.75 158.5 -5.75 158.2 -5.75 157.9 -5.75 157.6 -5.75 157.3 -5.65 157.0 -5.45 156.7 -5.35 156.4 -5.35 156.1 -5.35 155.8 -5.35 155.5 -5.35 155.2 -5.35 154.6 -5.35 154.0 -5.35 153.4 -5.25 153.1 -5.05 152.8 -4.95 152.5 -4.95 152.2 -4.95 151.9 -4.95 151.6 -4.95 151.3 -4.95 151.0 -4.95 150.7 -4.85 150.4 -4.75 150.1 -4.55 149.8 -4.55 149.5 -4.55 149.2 -4.55 148.9 -4.55 148.6 -4.55 148.3 -4.55 148.0 -4.55 147.7 -4.65 147.4 -4.85 147.1 -4.95 146.8 -4.95 146.5 -4.95 146.4 -4.95 146.2 -4.85 145.9 -4.75 145.75 -4.65 145.6 -4.45 145.3 -4.15 145.1 -3.95 145.0 -3.85 145.0 -3.8 145.05 Q-3.25 145.4 -2.55 145.55 -1.3 145.85 0.4 145.55 L1.05 145.45 1.05 146.2 1.05 146.4 1.35 146.6 1.55 146.9 1.75 147.2 1.85 147.5 1.85 147.8 1.85 148.1 1.85 148.4 1.85 148.7 2.05 149.0 2.15 149.3 2.25 149.6 2.25 149.9 2.45 150.2 2.55 150.5 2.65 150.8 2.65 151.1 2.7 151.2 2.85 151.4 2.95 151.7 3.05 152.0 3.05 152.3 3.05 152.6 3.05 152.9 3.15 153.2 3.25 153.5 3.35 153.8 3.45 154.1 3.45 154.4 3.45 154.7 3.45 155.0 3.45 155.3 3.45 155.6 3.55 155.9 3.65 156.2 3.75 156.5 3.85 156.8 3.85 157.1 3.85 157.4 3.85 157.7 3.85 158.0 3.95 158.3 4.05 158.6 4.15 158.9 4.25 159.2 4.25 159.5 4.25 159.8 4.25 160.1 4.35 160.4 4.45 160.7 4.55 161.0 4.65 161.3 4.65 161.6 4.65 161.9 4.85 162.2 4.95 162.5 5.05 162.8 5.05 163.1 5.25 163.4 5.35 163.7 5.45 164.0 5.45 164.3 5.45 164.6 5.45 164.9 5.45 165.2 5.45 165.5 5.45 165.8 5.45 166.1 5.45 166.4 5.55 166.7 5.65 167.0 5.75 167.3 5.85 167.6 5.85 167.9 6.05 168.2 6.15 168.5 6.25 168.8 6.25 169.1 6.25 169.4 6.35 169.7 6.55 170.0 6.65 170.3 6.65 170.6 6.65 170.9 6.65 171.2 6.65 171.5 6.65 171.8 6.75 172.1 6.95 172.4 7.05 172.7 7.25 173.0 7.35 173.3 7.45 173.6 7.45 173.9 7.45 174.2 7.55 174.5 7.75 174.8 7.85 175.1 8.05 175.4 8.15 175.7 8.25 176.0 8.25 176.3 8.45 176.6 8.55 176.9 8.65 177.2 8.65 177.45 8.65 177.5 8.85 177.8 8.95 178.1 9.15 178.4 9.45 178.7 9.95 179.0 10.25 179.2 10.45 179.3 10.85 179.6 11.75 179.9 17.05 179.9 18.05 179.6 18.35 179.3 18.65 179.0 18.75 178.7 18.95 178.4 19.15 178.1 19.45 177.8 19.45 177.5 19.45 177.2 19.45 176.9 19.55 176.6 19.75 176.3 19.95 176.0 20.05 175.7 20.25 175.4 20.25 174.8 20.25 173.9 20.25 172.7 20.25 171.5 20.25 170.3 20.25 170.05 20.25 169.4 20.25 168.7 20.25 167.5 20.25 166.6 20.35 166.3 20.55 166.0 20.65 165.7 20.65 163.9 20.65 161.2 20.65 158.5 20.65 155.8 20.65 153.1 20.65 152.8 20.45 152.5 20.35 152.2 20.25 151.9 20.25 150.7 20.25 148.9 20.25 147.1 20.25 145.3 20.25 143.5 20.25 142.6 20.15 142.3 19.95 142.0 19.85 141.7 19.85 141.4 19.85 141.1 19.85 140.8 19.85 140.5 19.85 140.2 19.85 139.9 19.85 139.3 19.85 138.7 19.75 138.4 19.65 138.1 19.55 137.8 19.45 137.5 19.45 137.2 19.45 136.9 19.45 136.6 19.45 136.3 19.45 136.0 19.45 135.7 19.25 135.4 19.15 135.1 19.05 134.8 19.05 134.5 19.05 134.2 19.05 133.9 19.05 133.6 19.05 133.3 19.05 133.0 18.95 132.7 18.75 132.4 18.65 132.1 18.65 131.5 18.65 130.6 18.65 129.4 18.65 128.2 18.65 127.0 18.65 125.8 18.55 125.5 18.35 125.2 18.25 124.9 18.25 124.6 18.25 124.0 18.25 123.1 18.25 122.2 18.25 121.3 18.25 120.4 18.25 119.5 18.35 119.2 18.45 118.9 18.55 118.6 18.65 118.3 18.65 118.0 18.65 117.7 18.65 117.4 18.65 117.1 18.65 116.8 18.65 116.5 18.65 116.2 18.65 115.9 18.55 115.6 18.45 115.3 18.35 115.0 18.25 114.7 18.25 114.4 18.25 114.1 18.25 113.8 18.25 113.5 18.25 113.2 18.25 112.9 18.15 112.6 17.95 112.3 17.85 112.0 17.85 111.7 17.85 111.4 17.85 111.1 17.85 110.8 17.85 110.5 17.85 110.2 17.75 109.9 17.55 109.6 17.45 109.3 17.45 109.2 17.45 109.0 17.45 108.7 17.45 108.4 17.45 108.1 17.45 107.8 17.55 107.5 17.75 107.2 17.95 106.9 18.25 106.7 18.45 106.6 19.05 106.55 19.05 106.5 19.45 106.6 19.85 106.3 20.65 106.15 20.65 106.1 21.05 106.1 21.75 106.3 22.15 106.6 22.35 106.9 22.55 107.2 22.65 107.5 22.65 107.8 22.65 108.1 22.85 108.4 23.05 108.7 23.25 109.0 23.35 109.3 23.45 109.6 23.45 109.9 23.45 110.2 23.55 110.5 23.65 110.8 23.75 111.1 23.85 111.4 24.05 111.7 24.15 112.0 24.25 112.3 24.35 112.6 24.55 113.2 24.75 113.8 24.95 114.4 25.15 115.0 25.25 115.3 25.45 115.6 25.65 115.9 25.85 116.2 25.95 116.5 26.15 116.8 26.25 117.1 26.35 117.4 26.45 117.7 26.55 118.0 26.65 118.3 26.75 118.6 26.85 118.9 26.95 119.2 27.15 119.5 27.25 119.8 27.35 120.1 27.55 120.7 27.75 121.3 27.95 121.9 28.15 122.5 28.35 123.1 28.45 123.4 28.65 123.7 28.75 124.0 28.85 124.3 28.95 124.6 29.05 124.9 29.05 125.2 29.15 125.5 29.25 125.8 29.45 126.1 29.55 126.4 29.65 126.7 29.75 127.0 29.85 127.3 29.95 127.6 30.05 127.9 30.25 128.2 30.45 128.5 30.55 128.8 30.65 128.9 31.35 129.1 31.75 129.4 32.05 129.7 32.35 130.0 32.45 130.3 32.65 130.6 32.95 130.9 33.15 131.2 33.2 131.35 33.25 131.5 33.45 131.8 33.75 132.1 33.95 132.4 34.15 132.7 34.65 133.0 34.95 133.3 35.15 133.6 35.35 133.9 35.95 134.2 36.35 134.4 36.65 134.5 37.35 134.7 40.15 134.7 40.45 134.4 40.85 134.2 41.2 134.1 41.55 134.0 41.95 133.7 42.45 133.4 42.95 133.1 43.25 132.8 43.55 132.5 43.85 132.2 43.95 131.9 44.15 131.6 44.35 131.3 44.65 131.0 44.75 130.7 44.95 130.4 44.85 130.1 44.75 129.8 44.65 129.5 44.65 129.2 44.45 128.9 44.35 128.6 44.15 128.3 43.95 128.0 43.85 127.7 43.75 127.4 43.55 127.1 43.45 126.8 43.25 126.5 43.15 126.2 42.95 125.9 42.75 125.6 42.65 125.3 42.55 125.0 42.35 124.7 42.25 124.4 42.25 124.1 42.15 123.8 41.95 123.5 41.85 123.2 41.55 122.9 41.25 122.6 40.95 122.3 40.75 122.0 40.65 121.7 40.55 121.4 40.35 121.1 40.25 120.8 39.95 120.5 39.75 120.2 39.55 119.9 39.45 119.6 39.15 119.3 38.95 119.0 38.75 118.7 38.65 118.4 38.35 118.1 38.15 117.8 37.95 117.5 37.85 117.2 37.65 116.9 37.55 116.6 37.35 116.3 37.15 116.0 37.05 115.7 36.85 115.4 36.55 115.1 36.25 114.8 36.05 114.5 35.95 114.2 35.75 113.9 35.55 113.6 35.45 113.3 35.45 113.0 35.35 112.7 35.05 112.4 34.75 112.1 34.55 111.8 34.35 111.5 34.25 111.2 34.25 110.9 34.15 110.6 33.95 110.3 33.85 110.0 33.65 109.7 33.55 109.4 33.35 109.1 33.15 108.8 33.05 108.5 33.05 108.2 32.95 107.9 32.65 107.6 32.45 107.3 32.35 107.0 32.15 106.7 31.95 106.4 31.85 106.1 31.65 105.8 31.35 105.5 31.15 105.2 31.05 104.9 30.95 104.6 30.75 104.3 30.65 104.0 30.65 103.7 30.45 103.4 30.15 103.1 29.95 102.8 29.85 102.5 29.65 102.2 29.35 101.9 29.15 101.6 29.05 101.3 28.95 101.0 28.75 100.7 28.65 100.4 28.45 100.1 28.35 99.8 28.15 99.5 27.85 99.2 27.65 98.9 27.55 98.6 27.35 98.3 27.05 98.0 26.85 97.7 26.75 97.4 26.55 97.1 26.25 96.8 25.95 96.5 25.75 96.2 25.55 95.9 25.45 95.6 25.45 95.4 M21.45 114.2 L21.55 114.3 21.45 114.1 21.45 114.2 M-3.45 112.8 L-3.3 112.65 -3.45 112.95 -3.75 114.2 -3.75 114.0 -3.75 113.7 -3.75 113.4 -3.65 113.1 -3.45 112.8" fill="#000000" fill-rule="evenodd" stroke="none"/>
  </g>
</svg>
