<?xml version="1.0" encoding="UTF-8" standalone="no"?>
<svg xmlns:ffdec="https://www.free-decompiler.com/flash" xmlns:xlink="http://www.w3.org/1999/xlink" ffdec:objectType="shape" height="63.2px" width="107.1px" xmlns="http://www.w3.org/2000/svg">
  <g transform="matrix(1.0, 0.0, 0.0, 1.0, 54.5, -19.8)">
    <path d="M52.1 37.9 Q52.05 42.7 47.7 46.3 43.1 50.05 36.3 50.45 29.1 50.8 23.7 47.25 18.05 43.5 18.1 37.9 18.05 32.25 23.7 28.5 29.1 24.95 36.3 25.35 43.1 25.7 47.7 29.45 52.05 33.0 52.1 37.9" fill="url(#gradient0)" fill-rule="evenodd" stroke="none"/>
    <path d="M-15.7 23.9 Q-8.2 28.4 -8.15 35.7 -8.2 43.2 -16.15 48.4 -23.9 53.5 -34.0 53.0 -43.4 52.55 -49.2 47.5 -54.6 42.8 -53.95 36.5 -53.3 30.35 -47.25 25.8 -41.05 21.1 -32.2 20.4 -22.75 19.7 -15.7 23.9" fill="url(#gradient1)" fill-rule="evenodd" stroke="none"/>
    <path d="M52.1 37.9 Q52.05 42.7 47.7 46.3 43.1 50.05 36.3 50.45 29.1 50.8 23.7 47.25 18.05 43.5 18.1 37.9 18.05 32.25 23.7 28.5 29.1 24.95 36.3 25.35 43.1 25.7 47.7 29.45 52.05 33.0 52.1 37.9 M-15.7 23.9 Q-8.2 28.4 -8.15 35.7 -8.2 43.2 -16.15 48.4 -23.9 53.5 -34.0 53.0 -43.4 52.55 -49.2 47.5 -54.6 42.8 -53.95 36.5 -53.3 30.35 -47.25 25.8 -41.05 21.1 -32.2 20.4 -22.75 19.7 -15.7 23.9 Z" fill="none" stroke="#000000" stroke-linecap="round" stroke-linejoin="round" stroke-width="1.0"/>
    <path d="M28.05 39.3 Q28.45 37.1 31.2 36.9 39.6 40.7 29.8 41.3 27.65 41.4 28.05 39.3 M29.1 76.7 Q24.75 82.25 16.45 82.8 -14.7 85.0 -33.9 62.9 -34.6 62.15 -32.85 61.55 L-31.8 61.25 Q-4.3 80.95 29.0 75.8 29.9 75.7 29.1 76.7 M-30.55 39.85 Q-30.35 36.5 -26.0 35.95 -18.2 41.2 -29.1 41.35 -30.6 41.4 -30.55 39.85" fill="#000000" fill-rule="evenodd" stroke="none"/>
  </g>
  <defs>
    <radialGradient cx="0" cy="0" gradientTransform="matrix(0.0274, 0.0, 0.0, 0.0219, 30.0, 39.75)" gradientUnits="userSpaceOnUse" id="gradient0" r="819.2" spreadMethod="pad">
      <stop offset="0.0" stop-color="#ffff00"/>
      <stop offset="1.0" stop-color="#ff9900"/>
    </radialGradient>
    <radialGradient cx="0" cy="0" gradientTransform="matrix(0.0283, 0.0, 0.0, 0.0226, -31.1, 36.65)" gradientUnits="userSpaceOnUse" id="gradient1" r="819.2" spreadMethod="pad">
      <stop offset="0.0" stop-color="#ffff00"/>
      <stop offset="1.0" stop-color="#ff9900"/>
    </radialGradient>
  </defs>
</svg>
