<?xml version="1.0" encoding="UTF-8" standalone="no"?>
<svg xmlns:ffdec="https://www.free-decompiler.com/flash" xmlns:xlink="http://www.w3.org/1999/xlink" ffdec:objectType="shape" height="282.15px" width="207.1px" xmlns="http://www.w3.org/2000/svg">
  <g transform="matrix(1.0, 0.0, 0.0, 1.0, 106.05, 218.4)">
    <path d="M52.7 -75.4 Q50.1 -78.1 45.9 -80.35 44.15 -81.3 42.75 -81.45 45.65 -101.2 43.55 -122.3 41.1 -146.65 27.6 -165.2 26.6 -165.15 26.3 -164.25 23.8 -157.2 23.2 -148.9 17.5 -147.75 15.55 -141.45 L10.25 -124.25 10.3 -124.5 Q17.35 -155.0 17.45 -185.0 17.45 -187.15 20.0 -187.2 44.3 -162.85 45.6 -125.4 L45.6 -124.8 Q56.1 -106.8 53.8 -80.85 53.5 -77.7 52.7 -75.4 M7.65 -115.9 L-1.7 -86.95 -2.8 -87.2 -3.1 -87.1 Q-3.4 -87.95 -4.0 -88.4 -5.85 -94.6 0.95 -103.85 5.05 -109.45 7.65 -115.9 M-14.15 -93.65 L-15.6 -94.35 Q-21.5 -105.15 -28.0 -114.8 L-29.0 -114.25 Q-31.65 -111.0 -31.35 -106.95 L-32.8 -108.4 -33.2 -108.1 -35.3 -108.5 Q-35.4 -109.3 -35.95 -109.95 -36.9 -111.1 -37.4 -110.45 -51.15 -92.1 -59.95 -69.95 -60.9 -70.65 -62.4 -70.8 L-65.3 -66.05 Q-66.75 -67.5 -66.05 -70.8 -60.65 -97.95 -48.65 -119.45 -46.5 -123.25 -42.25 -124.55 L-30.4 -128.0 Q-21.6 -115.9 -15.85 -99.9 -14.6 -96.5 -14.15 -93.65 M-73.55 -74.95 Q-78.8 -85.55 -86.8 -92.8 L-87.75 -92.35 Q-90.9 -90.55 -91.45 -86.8 -94.05 -68.85 -94.6 -50.2 L-97.15 -64.8 Q-97.65 -67.6 -96.4 -69.85 -91.4 -78.8 -96.4 -84.0 L-98.05 -82.8 -94.9 -100.9 Q-93.95 -105.95 -88.8 -106.4 -77.3 -93.95 -73.55 -74.95 M-99.55 -35.35 L-96.85 -24.4 Q-95.05 -17.6 -90.0 -14.7 -88.8 -14.05 -88.95 -15.15 L-90.85 -27.4 -90.15 -26.75 -89.55 -22.35 -88.9 -19.6 -88.6 -12.9 -88.2 -9.45 Q-90.0 -9.85 -91.45 -8.7 -92.65 -7.8 -92.3 -7.0 -90.5 -3.0 -89.05 1.5 L-88.65 6.05 Q-89.25 5.55 -89.9 3.85 -97.25 -15.5 -99.55 -35.35 M82.65 13.5 Q84.2 13.85 85.8 13.05 87.45 12.25 86.65 11.45 L84.0 8.75 Q87.25 8.75 87.8 5.55 L88.5 1.3 90.65 2.0 Q89.2 11.85 86.65 21.35 86.25 22.95 85.25 20.5 83.8 17.05 82.65 13.5 M91.4 -3.55 L89.45 -5.2 91.75 -21.7 92.65 -30.45 Q92.95 -16.7 91.4 -3.55 M89.1 -61.95 L87.3 -63.55 Q86.55 -68.2 84.95 -72.2 L86.05 -72.4 Q87.8 -67.4 89.1 -61.95 M81.7 -82.85 Q79.65 -84.45 76.8 -85.6 67.0 -75.55 63.05 -62.6 L61.4 -66.3 Q59.95 -69.45 62.7 -72.45 70.7 -81.1 78.4 -88.8 L81.7 -82.85 M31.05 -68.55 L31.1 -68.6 31.15 -68.6 31.05 -68.55 M-83.7 -64.95 L-83.6 -65.5 -79.6 -58.35 -80.05 -58.25 Q-81.7 -61.7 -83.7 -64.95" fill="#ff0800" fill-rule="evenodd" stroke="none"/>
    <path d="M-31.35 -106.95 L-31.2 -105.5 -31.3 -105.7 Q-31.8 -107.45 -33.2 -108.1 L-32.8 -108.4 -31.35 -106.95 M-88.9 -19.6 L-88.0 -17.7 -87.6 -17.05 -87.7 -11.85 -88.15 -9.45 -88.2 -9.45 -88.6 -12.9 -88.9 -19.6 M31.05 -68.55 Q27.55 -54.65 13.35 -63.45 7.3 -67.2 7.9 -74.75 8.25 -78.8 9.8 -81.5 L9.5 -82.1 9.7 -82.7 Q20.75 -113.55 29.2 -144.5 33.75 -140.95 32.5 -132.8 31.35 -132.25 31.3 -131.5 30.65 -106.9 33.0 -81.4 L31.65 -81.6 Q32.65 -76.35 31.35 -69.95 L31.1 -68.6 31.05 -68.55 M66.8 -15.95 Q66.45 -16.0 65.9 -16.4 61.5 -19.7 60.9 -26.35 59.4 -42.5 68.85 -53.55 L68.0 -54.95 Q71.9 -60.25 74.6 -66.9 L77.3 -63.25 77.75 -59.4 78.45 -55.45 78.75 -58.6 Q78.8 -59.15 79.6 -59.2 85.8 -51.85 84.5 -40.9 L84.95 -41.8 85.05 -40.9 Q83.7 -31.5 80.7 -22.3 L80.55 -22.7 79.9 -25.85 78.7 -23.65 Q74.1 -15.55 69.8 -23.55 68.55 -25.8 67.55 -28.15 67.0 -22.9 67.25 -17.4 L67.25 -16.85 Q67.3 -15.95 66.8 -15.95 M17.15 -84.8 Q15.35 -77.5 16.45 -70.1 16.8 -67.6 19.15 -66.7 18.2 -67.6 17.3 -69.45 16.5 -71.0 16.3 -73.3 15.4 -82.75 20.25 -88.15 18.3 -88.1 17.05 -86.25 17.45 -85.9 17.15 -84.8 M21.9 -66.15 L22.4 -66.1 22.5 -66.6 21.9 -66.15 M73.95 -27.35 L74.0 -27.1 74.1 -27.4 73.95 -27.35 M-79.6 -58.35 L-79.2 -58.4 Q-76.5 -56.25 -74.4 -53.85 L-73.25 -55.35 Q-72.7 -55.95 -72.0 -56.0 -60.8 -44.25 -63.9 -29.75 -62.0 -24.55 -63.35 -17.65 -65.3 -7.85 -74.95 -4.3 -84.35 -0.8 -86.45 -11.85 -87.6 -17.75 -85.95 -21.6 -87.9 -24.75 -87.95 -29.1 -88.0 -34.4 -85.35 -37.7 L-86.3 -50.05 Q-85.25 -57.5 -83.7 -64.95 -81.7 -61.7 -80.05 -58.25 L-79.6 -58.35 M-55.55 -64.8 Q-53.95 -66.55 -52.8 -69.1 -54.5 -63.9 -51.6 -60.1 L-53.3 -58.75 -54.55 -57.5 Q-53.35 -62.3 -55.55 -64.8 M-30.9 -92.7 L-30.4 -91.35 -28.8 -93.2 Q-24.65 -88.4 -22.4 -83.05 L-22.3 -84.1 -20.9 -81.8 -21.65 -81.05 Q-18.0 -70.3 -21.7 -57.25 -24.5 -47.4 -35.45 -49.2 -51.5 -51.75 -47.45 -63.05 L-47.85 -62.8 Q-42.55 -80.2 -30.9 -92.7 M-41.0 -59.4 L-41.2 -58.2 Q-41.45 -56.8 -39.6 -56.45 L-40.9 -59.15 -41.0 -59.4 M-72.65 -15.2 L-72.6 -15.1 -72.45 -15.25 -72.65 -15.2 M-72.45 -24.35 Q-73.15 -24.65 -73.9 -25.3 L-74.3 -21.9 -72.45 -24.35 M-80.7 -3.6 L-80.45 -3.55 -80.25 -0.6 -80.65 -0.85 -80.7 -3.6" fill="#ff4a00" fill-rule="evenodd" stroke="none"/>
    <path d="M10.25 -124.25 L15.55 -141.45 Q17.5 -147.75 23.2 -148.9 23.8 -157.2 26.3 -164.25 26.6 -165.15 27.6 -165.2 41.1 -146.65 43.55 -122.3 45.65 -101.2 42.75 -81.45 44.15 -81.3 45.9 -80.35 50.1 -78.1 52.7 -75.4 55.3 -72.75 56.35 -69.65 L62.95 -62.15 63.05 -62.6 Q67.0 -75.55 76.8 -85.6 79.65 -84.45 81.7 -82.85 85.95 -79.5 86.55 -74.05 86.7 -72.85 86.05 -72.4 L84.95 -72.2 Q86.55 -68.2 87.3 -63.55 L89.1 -61.95 Q92.25 -58.65 92.65 -53.1 93.45 -41.8 92.65 -30.45 L91.75 -21.7 89.45 -5.2 91.4 -3.55 Q94.5 -0.95 97.95 1.4 98.8 2.0 97.15 2.25 L90.65 2.0 88.5 1.3 87.8 5.55 Q87.25 8.75 84.0 8.75 L86.65 11.45 Q87.45 12.25 85.8 13.05 84.2 13.85 82.65 13.5 81.7 13.3 80.8 12.7 73.95 16.8 67.3 7.75 47.4 -19.2 45.5 -51.8 37.6 -50.65 29.8 -53.1 20.95 -47.25 9.15 -53.3 2.75 -49.6 -4.55 -55.6 L-5.9 -56.8 Q-15.6 -48.05 -27.5 -43.75 -35.6 -37.4 -45.2 -33.9 -51.5 -24.2 -60.4 -34.9 L-61.25 -36.0 Q-61.45 -35.45 -62.05 -35.05 L-62.05 -34.5 Q-56.35 -28.05 -56.55 -18.0 -52.95 -13.25 -57.45 -9.1 -58.25 -1.25 -58.35 6.7 L-58.6 11.25 -58.2 14.45 Q-56.3 33.1 -59.35 50.55 -59.65 52.05 -61.25 50.8 -67.9 45.5 -68.25 36.05 L-68.35 33.05 Q-70.7 32.85 -74.45 29.15 -75.55 30.7 -78.0 28.0 -86.9 18.15 -88.65 6.05 L-89.05 1.5 Q-90.5 -3.0 -92.3 -7.0 -92.65 -7.8 -91.45 -8.7 -90.0 -9.85 -88.2 -9.45 L-88.15 -9.45 -87.7 -11.85 -87.6 -17.05 -88.0 -17.7 -88.9 -19.6 -89.55 -22.35 -90.15 -26.75 -90.85 -27.4 -88.95 -15.15 Q-88.8 -14.05 -90.0 -14.7 -95.05 -17.6 -96.85 -24.4 L-99.55 -35.35 Q-101.7 -44.9 -103.2 -54.6 -104.8 -65.05 -102.55 -75.05 -101.4 -80.05 -98.05 -82.8 L-96.4 -84.0 Q-91.4 -78.8 -96.4 -69.85 -97.65 -67.6 -97.15 -64.8 L-94.6 -50.2 Q-94.05 -68.85 -91.45 -86.8 -90.9 -90.55 -87.75 -92.35 L-86.8 -92.8 Q-78.8 -85.55 -73.55 -74.95 L-72.6 -72.95 Q-70.0 -67.25 -68.0 -61.4 L-65.3 -66.05 -62.4 -70.8 Q-60.9 -70.65 -59.95 -69.95 -51.15 -92.1 -37.4 -110.45 -36.9 -111.1 -35.95 -109.95 -35.4 -109.3 -35.3 -108.5 L-33.2 -108.1 Q-31.8 -107.45 -31.3 -105.7 L-31.2 -105.5 -31.35 -106.95 Q-31.65 -111.0 -29.0 -114.25 L-28.0 -114.8 Q-21.5 -105.15 -15.6 -94.35 L-14.15 -93.65 Q-11.05 -91.95 -9.65 -88.75 L-9.6 -88.5 Q-5.7 -89.8 -4.0 -88.4 -3.4 -87.95 -3.1 -87.1 L-2.8 -87.2 -1.7 -86.95 7.65 -115.9 Q9.2 -119.95 10.25 -124.25 M31.1 -68.6 L31.35 -69.95 Q32.65 -76.35 31.65 -81.6 L33.0 -81.4 Q30.65 -106.9 31.3 -131.5 31.35 -132.25 32.5 -132.8 33.75 -140.95 29.2 -144.5 20.75 -113.55 9.7 -82.7 L9.5 -82.1 9.8 -81.5 Q8.25 -78.8 7.9 -74.75 7.3 -67.2 13.35 -63.45 27.55 -54.65 31.05 -68.55 L31.15 -68.6 31.1 -68.6 M51.4 -65.7 L50.65 -65.35 Q51.0 -62.6 48.05 -62.9 L45.6 -63.2 Q39.25 -60.8 32.6 -59.6 L32.3 -59.4 Q46.65 -53.1 51.4 -64.75 L51.45 -64.8 51.4 -65.7 M67.25 -17.4 Q67.0 -22.9 67.55 -28.15 68.55 -25.8 69.8 -23.55 74.1 -15.55 78.7 -23.65 L79.9 -25.85 80.55 -22.7 80.7 -22.3 Q83.7 -31.5 85.05 -40.9 L84.95 -41.8 84.5 -40.9 Q85.8 -51.85 79.6 -59.2 78.8 -59.15 78.75 -58.6 L78.45 -55.45 77.75 -59.4 77.3 -63.25 74.6 -66.9 Q71.9 -60.25 68.0 -54.95 L68.85 -53.55 Q59.4 -42.5 60.9 -26.35 61.5 -19.7 65.9 -16.4 66.45 -16.0 66.8 -15.95 68.95 -11.6 71.55 -7.45 L68.85 -15.25 67.25 -17.4 M73.95 -27.35 L74.1 -27.4 74.0 -27.1 73.95 -27.35 M21.9 -66.15 L22.5 -66.6 22.4 -66.1 21.9 -66.15 M17.15 -84.8 Q17.45 -85.9 17.05 -86.25 18.3 -88.1 20.25 -88.15 15.4 -82.75 16.3 -73.3 16.5 -71.0 17.3 -69.45 18.2 -67.6 19.15 -66.7 16.8 -67.6 16.45 -70.1 15.35 -77.5 17.15 -84.8 M-79.6 -58.35 L-83.6 -65.5 -83.7 -64.95 Q-85.25 -57.5 -86.3 -50.05 L-85.35 -37.7 Q-88.0 -34.4 -87.95 -29.1 -87.9 -24.75 -85.95 -21.6 -87.6 -17.75 -86.45 -11.85 -84.35 -0.8 -74.95 -4.3 -65.3 -7.85 -63.35 -17.65 -62.0 -24.55 -63.9 -29.75 -60.8 -44.25 -72.0 -56.0 -72.7 -55.95 -73.25 -55.35 L-74.4 -53.85 Q-76.5 -56.25 -79.2 -58.4 L-79.6 -58.35 M-30.9 -92.7 Q-42.55 -80.2 -47.85 -62.8 L-47.45 -63.05 Q-51.5 -51.75 -35.45 -49.2 -24.5 -47.4 -21.7 -57.25 -18.0 -70.3 -21.65 -81.05 L-20.9 -81.8 -22.3 -84.1 -22.4 -83.05 Q-24.65 -88.4 -28.8 -93.2 L-30.4 -91.35 -30.9 -92.7 M-55.55 -64.8 Q-53.35 -62.3 -54.55 -57.5 L-53.3 -58.75 -51.6 -60.1 Q-54.5 -63.9 -52.8 -69.1 -53.95 -66.55 -55.55 -64.8 M-41.0 -59.4 L-40.9 -59.15 -39.6 -56.45 Q-41.45 -56.8 -41.2 -58.2 L-41.0 -59.4 M-52.9 -45.5 L-54.25 -46.65 -57.5 -44.85 -57.2 -44.4 Q-54.7 -40.05 -51.3 -36.5 -53.2 -39.8 -53.3 -43.7 -53.3 -44.65 -52.9 -45.5 M-72.45 -24.35 L-74.3 -21.9 -73.9 -25.3 Q-73.15 -24.65 -72.45 -24.35 M-72.65 -15.2 L-72.45 -15.25 -72.6 -15.1 -72.65 -15.2 M-80.7 -3.6 L-80.65 -0.85 -80.25 -0.6 -80.45 -3.55 -80.7 -3.6 M-70.6 -3.25 L-70.95 -1.6 -69.95 -0.95 -69.8 -0.9 -70.55 -3.25 -70.6 -3.25" fill="#ff3300" fill-rule="evenodd" stroke="none"/>
    <path d="M11.2 -216.0 Q55.4 -158.6 57.7 -86.0 58.3 -66.8 47.55 -70.9 46.2 -71.45 46.5 -74.5 53.1 -133.85 21.95 -184.8 25.1 -168.25 21.9 -150.15 26.55 -133.45 13.45 -114.85 -1.3 -93.8 -8.95 -73.8 -9.25 -73.0 -9.3 -75.6 -9.85 -104.05 6.65 -129.35 12.75 -138.65 15.65 -148.1 14.75 -153.5 15.0 -159.25 16.4 -189.35 4.2 -215.6 4.7 -217.2 6.25 -217.85 L8.0 -218.4 10.2 -214.95 11.2 -216.0 M84.0 -141.6 Q93.8 -126.55 75.35 -120.0 74.3 -119.65 73.8 -121.2 77.65 -133.05 83.95 -141.45 L84.0 -141.6 M77.6 -103.2 Q98.05 -62.0 100.9 -12.95 102.35 12.75 87.0 24.75 86.2 25.35 86.65 22.65 95.8 -34.5 79.0 -89.5 77.9 -79.7 68.3 -69.75 60.5 -61.7 53.0 -66.8 67.3 -83.65 75.3 -103.6 75.4 -103.9 76.0 -104.0 L76.5 -103.0 77.6 -103.2 M-40.0 -148.8 L-39.15 -146.95 -38.4 -148.8 Q-16.5 -121.15 -11.25 -87.45 -11.0 -85.7 -11.75 -87.6 -18.4 -104.2 -30.55 -118.6 -34.15 -122.85 -36.4 -126.9 -38.05 -115.95 -46.3 -104.55 -62.35 -82.45 -64.5 -57.55 L-63.85 -53.2 Q-62.35 -43.1 -61.35 -33.3 -60.85 -28.3 -63.8 -33.1 -78.95 -57.9 -83.45 -86.8 -84.95 -96.45 -87.65 -105.8 -88.35 -100.85 -89.7 -95.6 -111.2 -13.2 -60.3 52.55 -56.8 57.1 -59.3 61.05 -63.2 67.15 -68.35 59.55 -123.95 -22.3 -97.6 -120.8 -96.45 -125.05 -96.4 -129.2 -97.75 -132.85 -97.05 -135.6 L-97.6 -137.8 Q-96.9 -139.9 -94.8 -140.5 L-93.6 -140.8 -93.4 -140.4 -92.8 -140.8 Q-76.55 -111.1 -68.45 -77.3 -66.35 -86.85 -60.25 -96.4 -47.1 -116.75 -44.4 -140.05 L-43.6 -146.6 Q-42.45 -148.75 -40.0 -148.7 L-40.0 -148.8 M-43.65 -164.1 Q-40.35 -160.5 -45.05 -161.6 -54.2 -163.7 -57.2 -173.1 -64.6 -196.45 -49.6 -212.8 -45.55 -202.05 -49.35 -185.4 -52.15 -173.3 -43.65 -164.1" fill="#ff0000" fill-rule="evenodd" stroke="none"/>
  </g>
</svg>
