<?xml version="1.0" encoding="UTF-8" standalone="no"?>
<svg xmlns:ffdec="https://www.free-decompiler.com/flash" xmlns:xlink="http://www.w3.org/1999/xlink" ffdec:objectType="shape" height="63.75px" width="107.1px" xmlns="http://www.w3.org/2000/svg">
  <g transform="matrix(1.0, 0.0, 0.0, 1.0, 54.5, 77.7)">
    <path d="M47.7 -55.1 Q43.1 -51.95 36.3 -51.6 29.1 -51.3 23.7 -54.3 18.05 -57.5 18.1 -62.25 18.05 -67.1 23.7 -70.25 29.1 -73.3 36.3 -72.95 43.1 -72.65 47.7 -69.45 52.05 -66.4 52.1 -62.25 52.05 -58.15 47.7 -55.1" fill="url(#gradient0)" fill-rule="evenodd" stroke="none"/>
    <path d="M-16.15 -53.3 Q-23.9 -49.0 -34.0 -49.45 -43.4 -49.85 -49.2 -54.1 -54.6 -58.1 -53.95 -63.45 -53.3 -68.65 -47.25 -72.55 -41.05 -76.55 -32.2 -77.1 -22.75 -77.7 -15.7 -74.15 -8.2 -70.35 -8.15 -64.15 -8.2 -57.75 -16.15 -53.3" fill="url(#gradient1)" fill-rule="evenodd" stroke="none"/>
    <path d="M47.7 -55.1 Q43.1 -51.95 36.3 -51.6 29.1 -51.3 23.7 -54.3 18.05 -57.5 18.1 -62.25 18.05 -67.1 23.7 -70.25 29.1 -73.3 36.3 -72.95 43.1 -72.65 47.7 -69.45 52.05 -66.4 52.1 -62.25 52.05 -58.15 47.7 -55.1 M-16.15 -53.3 Q-23.9 -49.0 -34.0 -49.45 -43.4 -49.85 -49.2 -54.1 -54.6 -58.1 -53.95 -63.45 -53.3 -68.65 -47.25 -72.55 -41.05 -76.55 -32.2 -77.1 -22.75 -77.7 -15.7 -74.15 -8.2 -70.35 -8.15 -64.15 -8.2 -57.75 -16.15 -53.3 Z" fill="none" stroke="#000000" stroke-linecap="round" stroke-linejoin="round" stroke-width="1.0"/>
    <path d="M29.8 -59.4 Q27.65 -59.3 28.05 -61.1 28.45 -62.95 31.2 -63.1 39.6 -59.85 29.8 -59.4 M26.5 -18.2 Q22.15 -14.45 13.85 -14.1 -17.3 -12.6 -36.5 -27.55 -37.2 -28.1 -35.45 -28.5 L-34.4 -28.7 Q-6.9 -15.35 26.4 -18.85 27.3 -18.9 26.5 -18.2 M-29.1 -59.3 Q-30.6 -59.3 -30.55 -60.6 -30.35 -63.45 -26.0 -63.9 -18.2 -59.45 -29.1 -59.3" fill="#000000" fill-rule="evenodd" stroke="none"/>
  </g>
  <defs>
    <radialGradient cx="0" cy="0" gradientTransform="matrix(0.0274, 0.0, 0.0, 0.0186, 30.0, -60.65)" gradientUnits="userSpaceOnUse" id="gradient0" r="819.2" spreadMethod="pad">
      <stop offset="0.0" stop-color="#ffff00"/>
      <stop offset="1.0" stop-color="#ff9900"/>
    </radialGradient>
    <radialGradient cx="0" cy="0" gradientTransform="matrix(0.0283, 0.0, 0.0, 0.0192, -31.1, -63.3)" gradientUnits="userSpaceOnUse" id="gradient1" r="819.2" spreadMethod="pad">
      <stop offset="0.0" stop-color="#ffff00"/>
      <stop offset="1.0" stop-color="#ff9900"/>
    </radialGradient>
  </defs>
</svg>
