<?xml version="1.0" encoding="UTF-8" standalone="no"?>
<svg xmlns:ffdec="https://www.free-decompiler.com/flash" xmlns:xlink="http://www.w3.org/1999/xlink" ffdec:objectType="shape" height="266.05px" width="206.15px" xmlns="http://www.w3.org/2000/svg">
  <g transform="matrix(1.0, 0.0, 0.0, 1.0, 98.75, 67.3)">
    <path d="M67.05 -66.5 Q101.0 -30.3 106.05 21.0 111.0 70.85 97.55 114.7 L98.3 117.55 Q97.5 118.5 96.4 118.95 L96.2 119.0 95.5 121.15 94.9 119.5 94.7 119.55 Q75.75 82.05 76.35 36.95 76.4 34.1 77.35 37.7 L91.55 91.55 Q92.15 83.9 94.2 75.65 104.9 32.8 90.7 -9.2 80.3 -40.05 66.25 -66.9 65.75 -67.9 67.05 -66.5 M69.55 30.65 Q82.5 65.5 66.15 100.6 49.45 136.55 57.9 171.75 57.4 173.2 56.0 173.95 L53.9 174.75 52.0 172.45 Q52.2 173.85 49.9 173.95 10.9 128.15 13.0 70.45 13.0 69.3 13.45 71.3 19.5 97.65 30.75 122.2 38.0 138.1 44.5 153.75 43.5 142.95 48.9 130.3 70.1 80.45 68.75 29.75 68.7 28.35 69.55 30.65 M12.2 85.15 Q4.65 113.95 -6.85 142.0 -15.2 162.5 -17.5 182.9 -15.35 191.55 -18.1 198.75 -49.0 147.8 -58.3 88.45 L-58.8 84.3 Q-68.35 99.05 -73.0 115.9 -72.35 119.55 -72.1 123.15 -72.9 124.1 -74.0 124.55 L-75.15 124.95 -75.7 125.15 Q-77.45 122.1 -78.4 118.7 -93.85 79.8 -98.05 35.4 -102.35 -9.75 -80.3 -47.35 -75.0 -56.4 -76.95 -46.5 -78.05 -40.8 -79.8 -34.95 -99.7 32.1 -77.7 99.15 L-76.65 95.75 Q-70.85 78.8 -57.2 73.6 -55.05 69.7 -50.25 68.95 -48.65 68.7 -48.85 72.2 -52.05 122.25 -24.85 166.85 -23.95 160.5 -21.5 153.7 -8.1 116.2 12.05 84.1 12.75 82.95 12.2 85.15" fill="#ff0000" fill-rule="evenodd" stroke="none"/>
    <path d="M97.65 -3.4 Q99.95 -3.3 100.4 0.7 105.65 49.7 93.45 93.7 93.0 95.35 91.75 92.9 82.35 74.5 79.9 53.35 63.85 97.75 50.9 145.75 49.65 150.35 45.2 150.75 L47.35 157.85 Q47.85 159.5 45.1 159.55 29.0 136.55 21.2 109.35 17.3 97.6 15.65 84.7 17.3 88.95 22.0 90.45 22.05 100.0 31.4 99.55 L31.5 99.75 Q32.35 102.75 33.45 105.45 L34.8 109.8 Q36.55 115.15 36.7 120.55 36.95 128.9 40.55 134.45 41.25 139.2 44.7 142.35 45.4 142.3 45.5 141.8 L47.55 132.05 Q48.55 130.1 48.7 127.55 50.65 120.4 53.1 113.2 59.0 102.8 63.15 90.45 65.55 83.25 65.5 76.15 69.8 65.4 71.55 53.3 L72.0 48.1 72.1 47.75 Q72.25 47.0 72.05 46.7 L71.9 42.25 Q71.45 36.05 69.75 36.3 L69.7 36.0 69.95 35.65 70.45 34.75 71.1 35.55 73.6 32.15 Q74.9 41.2 82.4 49.0 87.95 54.75 87.7 62.15 87.4 72.35 92.3 78.35 L93.0 77.85 96.3 67.0 Q97.9 65.4 98.35 62.6 L99.55 53.2 101.5 42.5 Q101.95 39.7 101.3 37.45 L100.85 36.1 Q101.35 24.45 100.75 12.7 100.55 9.05 99.4 6.15 99.0 1.5 97.65 -3.4 M14.5 78.55 Q14.3 95.1 3.5 105.15 L2.35 103.1 Q-0.3 110.9 -3.8 118.45 -15.5 143.85 -16.15 168.95 -16.3 174.85 -22.1 175.55 -56.8 136.9 -51.65 82.25 -53.3 85.6 -58.5 85.05 L-60.1 84.95 Q-61.35 91.1 -66.6 93.45 L-68.9 94.15 Q-69.5 99.15 -72.65 102.65 -74.0 104.15 -75.7 104.35 -88.25 90.45 -90.8 69.5 -87.6 83.15 -78.1 92.75 -75.35 92.45 -74.35 89.7 -73.3 86.75 -73.15 84.85 -63.2 72.1 -57.1 55.65 -52.5 61.35 -46.5 66.35 L-46.35 66.25 -46.75 68.7 Q-52.5 79.0 -51.45 91.65 -51.0 97.35 -49.9 102.65 L-49.75 105.85 Q-48.6 124.2 -36.9 135.7 L-35.95 137.35 Q-38.6 140.4 -35.15 148.15 -31.25 157.0 -26.5 163.55 -21.85 161.4 -21.25 155.6 -20.25 146.35 -18.75 137.2 L-16.45 133.55 Q-11.3 125.95 -10.85 117.5 -7.15 110.05 -2.55 102.8 0.9 97.4 0.1 92.0 -0.15 90.5 -0.75 90.95 1.9 83.75 3.35 75.8 5.25 77.35 7.8 78.35 L7.9 78.65 Q9.2 81.4 12.3 81.95 13.0 81.9 13.3 81.3 L14.5 78.55 M-91.65 32.6 L-91.5 17.95 Q-91.3 6.45 -87.0 -0.85 -87.95 8.05 -88.55 17.1 -88.9 21.8 -87.35 25.4 L-87.65 28.8 -87.7 29.05 -89.1 27.35 Q-90.7 25.8 -91.0 27.85 L-91.65 32.6 M-81.25 74.8 L-81.3 74.95 -81.5 74.1 -81.25 74.8 M-31.6 129.45 L-29.3 131.75 -29.35 132.05 -29.6 133.15 -31.6 129.45 M-31.1 91.45 L-30.95 91.65 -31.2 95.55 -31.3 95.45 Q-31.45 93.3 -31.1 91.45" fill="#ff0800" fill-rule="evenodd" stroke="none"/>
    <path d="M84.4 -12.55 L84.9 -13.55 Q86.45 -16.7 87.55 -15.9 87.5 -5.9 90.05 4.95 92.7 16.15 91.9 27.55 91.45 34.0 93.5 38.2 91.25 37.55 89.6 40.05 88.95 33.55 83.0 34.75 81.05 30.65 78.15 27.45 71.05 23.05 71.9 13.6 73.05 0.05 83.9 -2.9 85.65 -3.35 86.75 -2.6 87.55 -8.75 87.3 -14.9 87.25 -16.35 86.6 -15.55 L84.4 -12.55 M-87.35 25.4 L-87.1 25.95 -87.65 28.8 -87.35 25.4 M-81.5 74.1 L-82.65 69.1 Q-83.45 52.25 -81.4 35.3 L-81.05 32.5 -80.35 27.7 -78.95 25.75 Q-80.75 19.95 -78.1 15.85 -77.75 13.85 -77.7 11.9 L-77.1 10.25 -75.8 13.3 Q-74.2 11.95 -71.9 10.85 -70.25 10.05 -69.2 11.8 -65.05 18.85 -63.55 27.3 -62.15 35.25 -66.75 40.05 L-65.75 42.2 Q-70.6 47.15 -73.3 54.2 L-80.9 73.9 -81.25 74.8 -81.5 74.1 M-62.2 23.2 L-63.55 19.9 -62.6 21.0 -62.2 23.2 M-31.6 129.45 L-32.2 128.3 Q-31.9 125.0 -35.3 122.25 -39.45 106.95 -40.45 90.65 -40.6 88.1 -41.5 86.15 L-41.6 85.95 -41.0 82.5 Q-41.3 80.95 -40.95 79.3 L-41.05 78.65 Q-42.35 67.0 -31.2 64.8 -17.9 62.1 -14.95 71.15 L-13.95 70.05 Q-13.15 69.25 -12.35 70.75 -10.7 73.9 -10.35 76.65 L-10.1 76.7 Q-8.6 80.05 -6.55 82.6 -8.6 89.6 -11.45 96.3 L-12.65 98.3 Q-15.6 102.8 -16.2 106.55 -19.2 112.4 -22.8 118.05 -27.5 125.4 -24.75 130.1 -25.75 132.85 -26.05 135.35 L-27.0 137.85 -29.6 133.15 -29.35 132.05 -29.3 131.75 -31.6 129.45 M-31.1 91.45 Q-31.45 93.3 -31.3 95.45 L-31.2 95.55 -30.95 91.65 -31.1 91.45 M69.75 36.3 Q71.45 36.05 71.9 42.25 L72.05 46.7 Q71.8 46.35 70.95 46.7 L70.75 46.75 Q70.9 41.45 69.75 36.3 M72.0 48.1 L71.55 53.3 Q69.8 65.4 65.5 76.15 L65.45 74.9 68.4 62.1 Q70.45 55.15 72.0 48.1 M36.45 89.3 Q35.85 86.5 34.8 84.05 34.7 86.2 32.5 87.15 L31.5 87.55 Q25.6 81.6 27.85 71.5 31.9 52.95 49.4 56.7 59.2 58.85 56.3 69.2 L55.25 72.2 55.3 72.2 56.85 71.6 Q51.25 86.85 44.2 101.5 42.75 104.5 42.2 107.15 L39.7 102.9 Q37.9 96.15 36.45 89.3" fill="#ff4a00" fill-rule="evenodd" stroke="none"/>
    <path d="M-87.0 -0.85 Q-85.45 -14.7 -83.0 -28.15 -80.4 -42.55 -75.1 -29.5 -73.45 -25.55 -73.0 -21.25 L-71.6 -19.45 Q-59.55 -23.7 -52.7 -10.8 -41.8 9.65 -39.5 32.65 -34.05 38.0 -34.25 47.35 L-30.8 45.0 Q-27.75 43.1 -24.3 41.6 L-22.65 40.95 Q-17.85 35.95 -11.85 37.0 -11.5 37.05 -11.4 37.55 1.85 33.55 5.1 47.4 5.95 50.95 5.5 54.75 L7.35 55.8 Q8.8 54.0 11.45 52.05 22.65 43.95 33.0 35.1 34.1 34.15 35.6 34.65 36.75 23.2 45.0 24.7 46.2 24.9 46.5 26.55 L47.2 29.15 Q54.6 11.0 59.65 -7.75 62.05 -16.55 68.2 -10.95 70.4 -21.25 76.45 -27.55 77.25 -28.35 78.05 -26.85 79.1 -24.8 78.6 -22.45 90.05 -25.4 82.8 -15.85 L81.25 -13.75 Q82.15 -11.75 82.55 -9.55 L84.4 -12.55 86.6 -15.55 Q87.25 -16.35 87.3 -14.9 87.55 -8.75 86.75 -2.6 85.65 -3.35 83.9 -2.9 73.05 0.05 71.9 13.6 71.05 23.05 78.15 27.45 81.05 30.65 83.0 34.75 88.95 33.55 89.6 40.05 91.25 37.55 93.5 38.2 91.45 34.0 91.9 27.55 92.7 16.15 90.05 4.95 87.5 -5.9 87.55 -15.9 L87.65 -18.8 88.95 -18.75 Q91.15 -16.3 92.8 -13.5 95.35 -10.6 96.65 -6.65 L97.65 -3.4 Q99.0 1.5 99.4 6.15 100.55 9.05 100.75 12.7 101.35 24.45 100.85 36.1 L101.3 37.45 Q101.95 39.7 101.5 42.5 L99.55 53.2 98.35 62.6 Q97.9 65.4 96.3 67.0 L93.0 77.85 92.3 78.35 Q87.4 72.35 87.7 62.15 87.95 54.75 82.4 49.0 74.9 41.2 73.6 32.15 L71.1 35.55 70.45 34.75 69.95 35.65 69.7 36.0 69.75 36.3 Q70.9 41.45 70.75 46.75 L70.95 46.7 Q71.8 46.35 72.05 46.7 72.25 47.0 72.1 47.75 L72.0 48.1 Q70.45 55.15 68.4 62.1 L65.45 74.9 65.5 76.15 Q65.55 83.25 63.15 90.45 59.0 102.8 53.1 113.2 50.65 120.4 48.7 127.55 48.55 130.1 47.55 132.05 L45.5 141.8 Q45.4 142.3 44.7 142.35 41.25 139.2 40.55 134.45 36.95 128.9 36.7 120.55 36.55 115.15 34.8 109.8 L33.45 105.45 Q32.35 102.75 31.5 99.75 L31.4 99.55 Q22.05 100.0 22.0 90.45 17.3 88.95 15.65 84.7 14.55 81.85 14.85 77.7 L14.5 78.55 13.3 81.3 Q13.0 81.9 12.3 81.95 9.2 81.4 7.9 78.65 L7.8 78.35 Q5.25 77.35 3.35 75.8 1.9 83.75 -0.75 90.95 -0.15 90.5 0.1 92.0 0.9 97.4 -2.55 102.8 -7.15 110.05 -10.85 117.5 -11.3 125.95 -16.45 133.55 L-18.75 137.2 Q-20.25 146.35 -21.25 155.6 -21.85 161.4 -26.5 163.55 -31.25 157.0 -35.15 148.15 -38.6 140.4 -35.95 137.35 L-36.9 135.7 Q-48.6 124.2 -49.75 105.85 L-49.9 102.65 Q-51.0 97.35 -51.45 91.65 -52.5 79.0 -46.75 68.7 L-46.35 66.25 -46.5 66.35 Q-52.5 61.35 -57.1 55.65 -63.2 72.1 -73.15 84.85 -73.3 86.75 -74.35 89.7 -75.35 92.45 -78.1 92.75 -87.6 83.15 -90.8 69.5 -91.85 65.05 -92.2 60.15 -93.25 46.25 -91.65 32.6 L-91.0 27.85 Q-90.7 25.8 -89.1 27.35 L-87.7 29.05 -87.65 28.8 -87.1 25.95 -87.35 25.4 Q-88.9 21.8 -88.55 17.1 -87.95 8.05 -87.0 -0.85 M-10.75 48.75 L-9.65 50.2 -9.6 50.25 -10.7 48.7 -10.75 48.75 M-66.0 2.05 L-67.75 1.75 Q-66.8 3.85 -66.55 6.4 L-66.15 10.05 -65.95 8.0 Q-65.6 5.0 -66.0 2.05 M-81.25 74.8 L-80.9 73.9 -73.3 54.2 Q-70.6 47.15 -65.75 42.2 L-66.75 40.05 Q-62.15 35.25 -63.55 27.3 -65.05 18.85 -69.2 11.8 -70.25 10.05 -71.9 10.85 -74.2 11.95 -75.8 13.3 L-77.1 10.25 -77.7 11.9 Q-77.75 13.85 -78.1 15.85 -80.75 19.95 -78.95 25.75 L-80.35 27.7 -81.05 32.5 -81.4 35.3 Q-83.45 52.25 -82.65 69.1 L-81.5 74.1 -81.3 74.95 -81.25 74.8 M-62.6 21.0 L-63.55 19.9 -62.2 23.2 -61.5 24.75 -60.25 24.75 -60.1 22.85 -62.6 21.0 M-29.6 133.15 L-27.0 137.85 -26.05 135.35 Q-25.75 132.85 -24.75 130.1 -27.5 125.4 -22.8 118.05 -19.2 112.4 -16.2 106.55 -15.6 102.8 -12.65 98.3 L-11.45 96.3 Q-8.6 89.6 -6.55 82.6 -8.6 80.05 -10.1 76.7 L-10.35 76.65 Q-10.7 73.9 -12.35 70.75 -13.15 69.25 -13.95 70.05 L-14.95 71.15 Q-17.9 62.1 -31.2 64.8 -42.35 67.0 -41.05 78.65 L-40.95 79.3 Q-41.3 80.95 -41.0 82.5 L-41.6 85.95 -41.5 86.15 Q-40.6 88.1 -40.45 90.65 -39.45 106.95 -35.3 122.25 -31.9 125.0 -32.2 128.3 L-31.6 129.45 -29.6 133.15 M-14.25 65.35 Q-18.25 58.55 -27.3 58.15 L-29.25 59.35 -29.4 59.9 -29.45 60.5 -28.45 61.35 Q-23.7 61.15 -18.45 63.5 L-14.25 65.35 M-21.1 52.6 L-20.5 52.65 Q-20.4 51.85 -20.8 51.55 L-21.5 52.55 -21.1 52.6 M53.15 32.75 L54.1 32.55 53.2 31.65 52.9 32.7 53.15 32.75 M59.1 32.15 L58.5 32.65 59.45 32.9 59.1 32.15 M62.4 33.1 L60.6 33.35 61.8 33.95 62.4 33.1 M19.65 62.6 L19.9 62.0 Q22.45 55.2 26.35 49.9 L27.2 48.5 Q21.3 54.2 15.05 59.2 17.15 60.25 17.3 64.2 17.9 63.5 19.4 62.75 L19.65 62.6 M36.45 89.3 Q37.9 96.15 39.7 102.9 L42.2 107.15 Q42.75 104.5 44.2 101.5 51.25 86.85 56.85 71.6 L55.3 72.2 55.25 72.2 56.3 69.2 Q59.2 58.85 49.4 56.7 31.9 52.95 27.85 71.5 25.6 81.6 31.5 87.55 L32.5 87.15 Q34.7 86.2 34.8 84.05 35.85 86.5 36.45 89.3" fill="#ff3300" fill-rule="evenodd" stroke="none"/>
  </g>
</svg>
