<?xml version="1.0" encoding="UTF-8" standalone="no"?>
<svg xmlns:ffdec="https://www.free-decompiler.com/flash" xmlns:xlink="http://www.w3.org/1999/xlink" ffdec:objectType="shape" height="295.1px" width="213.75px" xmlns="http://www.w3.org/2000/svg">
  <g transform="matrix(1.0, 0.0, 0.0, 1.0, 104.65, 93.15)">
    <path d="M-13.55 200.35 L-14.05 200.95 -14.7 201.5 -15.15 201.65 -16.55 201.85 -16.55 201.95 Q-31.6 190.0 -38.3 171.35 -44.85 153.2 -50.1 134.75 L-60.45 97.85 -61.4 93.7 Q-64.65 100.45 -66.95 107.6 -69.25 114.75 -71.0 122.1 L-72.75 129.5 -72.4 131.05 -72.85 131.75 -73.35 132.4 -73.45 132.45 -73.75 133.85 -74.5 134.45 -75.4 134.85 -76.75 135.1 -76.8 135.25 -78.35 134.65 -79.25 134.0 -79.8 133.4 -80.15 130.7 -86.75 115.15 Q-90.6 106.25 -92.75 96.95 -94.95 87.4 -96.0 77.5 -96.4 73.8 -96.4 70.3 L-98.05 71.35 -99.2 72.3 -100.8 56.9 Q-101.95 45.0 -103.5 33.15 -110.05 -17.75 -80.05 -57.0 -57.7 -86.25 -21.8 -91.45 12.85 -96.5 41.85 -86.7 L41.85 -86.0 41.8 -85.35 41.8 -85.3 Q61.65 -79.1 76.75 -62.4 103.3 -33.0 107.15 5.7 110.25 36.8 108.4 68.35 107.2 89.8 102.4 110.35 L101.3 106.75 100.8 110.95 Q100.45 114.55 99.1 117.85 L98.85 118.55 98.3 119.2 97.4 119.75 95.6 120.3 95.6 120.4 94.7 120.1 93.75 120.3 93.75 120.4 Q85.45 115.95 83.0 105.7 80.75 96.45 77.45 87.5 L76.8 85.75 Q75.8 89.0 74.2 92.35 66.3 109.4 59.4 126.25 55.2 136.65 55.6 148.45 56.2 164.55 59.7 179.0 L59.15 179.65 58.5 180.15 58.05 180.35 56.7 180.5 56.65 180.65 54.45 177.9 54.3 178.05 53.4 178.4 52.05 178.65 52.05 178.8 Q40.15 170.4 31.25 158.45 22.55 146.8 17.2 133.35 11.9 120.0 10.15 105.5 9.65 101.25 9.9 97.3 5.1 107.15 1.45 117.85 -3.7 132.85 -6.15 148.5 -8.45 163.4 -9.25 178.35 -9.85 189.1 -15.45 195.25 L-13.05 199.65 -13.55 200.35 M-19.25 188.1 L-16.2 165.4 Q-14.15 150.5 -10.9 135.6 -7.6 120.55 -3.0 106.0 0.5 94.85 8.0 86.35 L9.4 86.25 Q10.8 86.35 12.05 86.9 L12.65 85.4 14.0 85.35 Q14.95 85.4 15.85 85.8 16.35 86.0 16.75 86.4 L17.3 87.05 Q18.8 96.65 19.4 106.45 20.2 118.7 24.5 130.1 29.8 144.05 40.45 154.7 44.45 158.7 47.5 162.8 45.8 156.05 46.0 148.2 46.35 129.8 55.1 114.75 64.0 99.45 67.2 81.8 68.7 73.35 72.1 67.0 71.35 60.1 74.75 54.85 L76.1 54.8 77.9 55.2 Q78.45 55.4 78.85 55.85 L79.35 56.45 Q79.6 63.9 81.1 71.0 82.95 79.55 85.8 87.9 88.65 96.25 91.9 104.4 L93.15 107.6 94.0 104.65 Q95.05 100.95 94.6 97.0 94.2 93.0 97.75 91.85 100.2 74.8 101.15 57.4 102.85 24.9 96.7 -5.9 90.3 -38.0 65.2 -61.2 48.75 -76.45 28.15 -83.25 L28.0 -83.95 27.95 -84.2 Q-3.65 -85.95 -34.25 -80.55 -39.45 -79.65 -44.45 -76.7 -95.9 -46.35 -94.55 13.35 -94.0 37.55 -91.85 61.5 L-91.6 61.55 Q-86.0 68.75 -86.6 78.25 -87.2 87.65 -84.8 96.5 -82.25 106.0 -77.95 115.1 -75.8 108.35 -73.1 101.75 L-66.7 85.4 Q-64.45 79.4 -59.85 76.05 L-57.8 71.5 -56.4 71.45 Q-55.45 71.5 -54.6 71.9 -54.1 72.1 -53.65 72.5 L-53.15 73.15 Q-54.2 88.5 -50.8 103.4 -46.85 120.75 -41.3 137.75 -35.4 156.05 -26.85 173.2 L-19.25 188.1" fill="#000000" fill-rule="evenodd" stroke="none"/>
  </g>
</svg>
