<?xml version="1.0" encoding="UTF-8" standalone="no"?>
<svg xmlns:ffdec="https://www.free-decompiler.com/flash" xmlns:xlink="http://www.w3.org/1999/xlink" ffdec:objectType="shape" height="190.25px" width="182.95px" xmlns="http://www.w3.org/2000/svg">
  <g transform="matrix(1.0, 0.0, 0.0, 1.0, 170.25, 98.45)">
    <path d="M-82.4 -84.7 Q-75.4 -91.9 -63.45 -93.5 L-62.0 -93.95 Q-44.6 -100.35 -28.9 -91.85 L-28.05 -93.5 Q-12.85 -105.55 -3.3 -88.3 0.6 -81.3 -5.25 -76.0 -7.55 -73.95 -9.5 -70.65 -24.4 -43.95 -51.55 -29.3 -56.65 -26.5 -61.4 -27.05 L-61.35 -26.4 Q-58.65 -11.2 -68.15 -6.6 -64.25 -4.9 -60.4 -2.7 -38.65 9.25 -50.95 28.3 -48.55 39.25 -57.05 48.95 -40.85 42.35 -21.35 43.0 L-20.55 43.05 Q-13.45 40.3 -4.7 45.5 18.35 59.05 10.85 85.35 8.5 93.65 -1.55 91.25 L-46.05 80.35 -46.1 80.45 Q-46.9 81.5 -49.05 81.05 -52.85 80.3 -54.7 79.1 L-57.05 79.2 Q-61.15 76.6 -64.25 73.55 -69.7 80.5 -80.15 74.1 -82.65 72.55 -84.4 70.25 -87.25 66.15 -82.1 64.75 -84.05 62.6 -82.45 60.0 L-82.05 59.45 Q-78.9 57.25 -75.2 59.1 L-74.85 59.15 -73.25 58.0 Q-73.35 56.65 -72.6 54.2 -72.35 53.15 -71.4 52.35 -69.2 50.45 -67.3 48.15 L-67.5 48.0 Q-70.9 46.5 -74.35 45.15 -80.9 46.7 -89.95 42.45 -96.5 42.95 -103.9 41.35 -119.65 37.85 -135.8 35.4 -142.0 34.5 -143.4 32.6 L-149.2 32.7 Q-164.5 33.45 -170.15 23.7 -170.45 23.2 -169.9 22.55 L-155.9 21.5 -155.55 21.4 Q-152.05 13.85 -140.9 12.6 -139.95 12.45 -138.35 11.35 -128.4 4.0 -117.45 1.35 L-116.9 0.65 Q-119.5 -1.15 -118.75 -4.2 L-117.9 -5.7 Q-107.3 -8.25 -98.35 -5.85 L-97.2 -6.5 -102.9 -7.2 Q-119.65 -9.55 -134.75 -16.45 -139.6 -17.3 -144.35 -19.05 -155.5 -23.05 -151.35 -31.7 L-149.15 -31.45 -149.05 -32.0 Q-136.15 -31.65 -122.7 -27.6 L-122.4 -27.45 Q-117.2 -34.15 -107.05 -37.9 -103.0 -39.4 -98.8 -39.9 L-91.0 -40.65 Q-92.85 -42.4 -94.4 -45.0 -95.0 -45.95 -95.0 -47.1 L-96.15 -48.25 -121.85 -57.3 Q-125.65 -58.6 -127.35 -60.95 -135.3 -55.65 -135.25 -67.95 L-135.0 -68.5 -127.75 -68.65 -127.45 -69.4 Q-106.6 -77.15 -86.15 -82.3 -84.4 -82.7 -82.4 -84.7 M-34.8 -69.1 L-34.9 -70.0 -34.45 -70.05 -34.8 -69.1 M-111.1 -23.15 Q-113.6 -19.6 -109.7 -17.95 -100.2 -13.95 -89.0 -12.25 -75.75 -10.1 -71.75 -20.75 -71.15 -22.35 -72.15 -22.4 -91.45 -23.65 -111.1 -23.15 M-86.3 -70.45 L-100.85 -68.85 Q-102.3 -67.3 -100.9 -66.5 -97.2 -64.2 -92.95 -63.0 -93.25 -62.05 -92.35 -61.85 -74.15 -56.2 -55.45 -47.75 -52.05 -46.25 -48.8 -47.45 -41.25 -50.5 -37.65 -54.8 -28.95 -56.15 -26.8 -68.45 -26.25 -71.15 -28.1 -72.35 -37.95 -78.6 -49.4 -76.05 -68.05 -76.95 -86.3 -70.45 M-33.6 -52.95 Q-35.85 -51.9 -37.25 -49.8 -38.5 -46.8 -32.75 -51.9 -29.2 -55.05 -29.5 -55.3 -31.45 -53.9 -33.6 -52.95 M-44.1 -65.25 Q-44.95 -64.4 -45.75 -64.35 L-45.8 -64.75 -45.9 -65.45 -44.1 -65.25 M-65.5 -33.0 L-63.6 -31.35 Q-56.9 -35.5 -53.6 -40.35 -61.65 -36.95 -67.0 -38.1 -64.45 -36.4 -65.85 -33.15 L-65.5 -33.0 M-57.75 14.3 Q-57.8 10.5 -60.5 8.3 -69.8 0.75 -83.1 7.95 -87.3 10.15 -91.8 10.35 -105.65 10.6 -117.95 14.2 L-118.65 15.7 Q-126.35 14.6 -135.05 19.7 L-135.8 21.05 Q-136.8 23.45 -134.85 23.45 L-123.85 23.0 -123.2 23.4 Q-118.7 25.35 -112.75 23.9 -97.8 28.5 -81.85 32.9 -57.65 39.55 -57.75 14.3 M-69.3 1.0 L-74.6 -0.95 Q-72.25 0.6 -70.05 2.35 L-69.3 1.0 M-58.35 62.2 Q-60.35 64.7 -58.0 66.85 -53.35 71.2 -45.5 71.3 L-27.1 72.8 Q-20.4 73.8 -14.55 77.45 -4.05 83.85 0.25 74.65 2.1 70.7 0.4 67.4 -7.45 52.85 -23.4 54.5 -42.0 56.45 -58.35 62.2 M-69.6 24.65 Q-69.5 23.75 -69.2 24.25 -68.75 25.2 -68.8 26.4 -69.0 26.6 -69.25 26.6 -71.2 27.1 -69.6 24.65 M3.15 74.0 Q4.65 75.7 5.65 75.5 L5.55 75.35 Q5.55 72.55 3.15 74.0" fill="#ff3300" fill-rule="evenodd" stroke="none"/>
    <path d="M-86.3 -70.45 Q-68.05 -76.95 -49.4 -76.05 -37.95 -78.6 -28.1 -72.35 -26.25 -71.15 -26.8 -68.45 -28.95 -56.15 -37.65 -54.8 -41.25 -50.5 -48.8 -47.45 -52.05 -46.25 -55.45 -47.75 -74.15 -56.2 -92.35 -61.85 -93.25 -62.05 -92.95 -63.0 -97.2 -64.2 -100.9 -66.5 -102.3 -67.3 -100.85 -68.85 L-86.3 -70.45 M-111.1 -23.15 Q-91.45 -23.65 -72.15 -22.4 -71.15 -22.35 -71.75 -20.75 -75.75 -10.1 -89.0 -12.25 -100.2 -13.95 -109.7 -17.95 -113.6 -19.6 -111.1 -23.15 M-34.8 -69.1 L-34.45 -70.05 -34.9 -70.0 -34.8 -69.1 M-44.1 -65.25 L-45.9 -65.45 -45.8 -64.75 -45.75 -64.35 Q-44.95 -64.4 -44.1 -65.25 M-57.75 14.3 Q-57.65 39.55 -81.85 32.9 -97.8 28.5 -112.75 23.9 -118.7 25.35 -123.2 23.4 L-123.85 23.0 -134.85 23.45 Q-136.8 23.45 -135.8 21.05 L-135.05 19.7 Q-126.35 14.6 -118.65 15.7 L-117.95 14.2 Q-105.65 10.6 -91.8 10.35 -87.3 10.15 -83.1 7.95 -69.8 0.75 -60.5 8.3 -57.8 10.5 -57.75 14.3 M-69.6 24.65 Q-71.2 27.1 -69.25 26.6 -69.0 26.6 -68.8 26.4 -68.75 25.2 -69.2 24.25 -69.5 23.75 -69.6 24.65 M-58.35 62.2 Q-42.0 56.45 -23.4 54.5 -7.45 52.85 0.4 67.4 2.1 70.7 0.25 74.65 -4.05 83.85 -14.55 77.45 -20.4 73.8 -27.1 72.8 L-45.5 71.3 Q-53.35 71.2 -58.0 66.85 -60.35 64.7 -58.35 62.2" fill="#ff4a00" fill-rule="evenodd" stroke="none"/>
  </g>
</svg>
