<?xml version="1.0" encoding="UTF-8" standalone="no"?>
<svg xmlns:ffdec="https://www.free-decompiler.com/flash" xmlns:xlink="http://www.w3.org/1999/xlink" ffdec:objectType="shape" height="54.75px" width="100.3px" xmlns="http://www.w3.org/2000/svg">
  <g transform="matrix(1.0, 0.0, 0.0, 1.0, 94.15, 47.0)">
    <path d="M-81.1 -25.65 L-78.3 -25.15 Q-79.2 -25.0 -79.05 -24.45 -67.15 -17.65 -45.05 -10.45 -36.8 -7.75 -30.35 -6.05 -34.1 -6.15 -40.2 -5.85 -44.7 -5.65 -45.2 -5.9 L-61.75 -6.15 Q-66.95 -8.45 -76.15 -13.0 -94.15 -21.95 -94.15 -22.4 -94.15 -23.55 -93.2 -24.45 -91.95 -25.65 -89.3 -25.65 L-87.0 -25.3 -81.1 -25.65 M-56.1 -39.65 Q-59.45 -40.7 -61.5 -39.75 -59.55 -35.7 -44.0 -25.05 -29.55 -15.2 -28.6 -15.2 L-27.65 -15.25 -21.15 -9.7 -45.8 -17.35 Q-58.95 -21.35 -66.85 -23.3 L-64.4 -23.25 -60.8 -24.05 -60.4 -25.15 Q-59.65 -26.4 -58.75 -26.25 -57.85 -25.8 -57.45 -25.7 L-51.9 -22.4 -51.25 -22.15 -56.6 -27.4 Q-62.6 -33.45 -64.9 -36.5 -66.35 -37.75 -66.35 -38.1 L-66.3 -38.8 -66.35 -39.05 Q-66.35 -46.3 -58.45 -40.75 L-56.1 -39.65 M-70.7 -24.2 L-73.4 -24.75 -73.3 -25.1 -70.7 -24.2 M-74.6 -1.25 L-44.85 -0.95 Q-39.25 0.9 -25.75 1.75 L-11.95 2.25 Q-10.6 2.25 -10.0 1.5 L-8.75 -0.45 Q-10.75 -2.05 -13.5 -3.2 -12.25 -3.25 -11.95 -3.65 L-11.75 -4.15 Q-11.55 -3.85 -11.5 -5.3 L-10.8 -5.95 -9.6 -7.8 Q-11.0 -8.75 -25.4 -20.25 -35.7 -28.5 -39.95 -30.2 L-40.0 -30.85 -38.8 -31.45 Q-37.95 -31.6 -36.7 -30.85 -35.2 -30.0 -29.45 -24.15 -30.55 -27.45 -29.45 -30.4 -38.55 -42.4 -38.55 -42.75 -38.55 -55.65 -16.2 -29.3 -8.8 -20.55 -0.85 -9.75 6.15 -0.25 6.15 0.35 6.15 3.95 5.45 4.75 L4.45 5.6 3.8 6.15 Q2.7 7.0 1.75 7.1 L-1.15 7.1 -1.55 7.75 -1.9 7.4 -4.05 7.1 -5.1 7.1 -5.9 7.1 -6.85 7.1 -7.1 7.1 -7.35 7.1 -47.1 7.1 -56.45 5.65 -72.2 4.35 -74.8 2.5 Q-75.6 1.8 -75.6 1.05 L-75.5 -0.5 Q-75.3 -0.95 -74.6 -1.25" fill="#c7fafe" fill-opacity="0.4" fill-rule="evenodd" stroke="none"/>
    <path d="M-44.65 -33.35 Q-55.5 -41.15 -60.55 -40.05 L-60.5 -41.15 Q-60.2 -41.25 -60.05 -41.65 -52.05 -39.35 -44.2 -35.1 -35.0 -30.15 -29.05 -23.95 L-29.3 -23.3 Q-37.55 -29.65 -40.85 -30.5 L-40.9 -30.45 -44.65 -33.35 M-70.15 -15.95 Q-56.25 -8.85 -39.75 -6.85 L-38.7 -5.9 -40.2 -5.85 Q-44.7 -5.65 -45.2 -5.9 L-59.65 -6.15 Q-65.35 -7.85 -69.95 -9.85 -78.1 -13.3 -85.6 -19.0 -81.65 -20.45 -77.95 -19.45 -75.85 -18.85 -70.15 -15.95 M-13.5 -3.2 Q-12.25 -3.25 -11.95 -3.65 L-11.75 -4.15 Q-11.65 -4.0 -11.55 -4.4 L-1.3 1.3 -2.65 3.3 Q-3.25 4.0 -4.6 4.0 -6.35 4.0 -10.9 2.1 L-10.0 1.5 -8.75 -0.45 Q-10.75 -2.05 -13.5 -3.2 M-45.8 -17.35 L-46.65 -17.6 -46.65 -17.8 Q-46.65 -22.6 -28.4 -13.35 L-21.7 -9.85 -45.8 -17.35" fill="#c7fafe" fill-opacity="0.4" fill-rule="evenodd" stroke="none"/>
  </g>
</svg>
