<?xml version="1.0" encoding="UTF-8" standalone="no"?>
<svg xmlns:ffdec="https://www.free-decompiler.com/flash" xmlns:xlink="http://www.w3.org/1999/xlink" ffdec:objectType="shape" height="60.75px" width="93.7px" xmlns="http://www.w3.org/2000/svg">
  <g transform="matrix(1.0, 0.0, 0.0, 1.0, 84.9, 51.15)">
    <path d="M-82.95 -1.85 Q-83.95 -2.95 -83.95 -4.35 L-83.95 -4.5 Q-84.9 -5.0 -84.9 -6.15 -84.9 -8.25 -83.75 -9.05 -82.5 -9.85 -79.2 -9.85 -66.3 -9.85 -55.6 -9.35 L-62.0 -14.1 -64.35 -15.9 -64.95 -16.25 -65.2 -16.55 -79.3 -27.55 Q-79.3 -31.65 -73.4 -29.65 -69.05 -26.45 -59.6 -21.25 -41.85 -11.5 -36.1 -11.5 -34.7 -11.5 -34.05 -12.25 L-32.75 -14.25 -48.95 -22.35 -55.95 -27.95 Q-61.3 -32.75 -59.9 -35.2 L-59.45 -35.8 -71.0 -46.55 Q-71.0 -52.55 -58.2 -43.9 -64.25 -46.25 -64.2 -42.95 -51.6 -36.95 -39.4 -26.95 -30.1 -19.3 -19.35 -7.8 L-17.3 -8.55 Q-17.1 -8.15 -17.1 -10.55 -17.1 -13.5 -24.5 -20.55 -31.25 -27.05 -40.7 -33.75 L-42.9 -35.25 Q-44.55 -38.3 -44.15 -39.85 -51.5 -47.8 -51.5 -48.3 -51.5 -54.15 -42.75 -48.0 -35.45 -42.85 -23.55 -30.5 -14.15 -20.75 -6.2 -11.0 -4.8 -10.2 -3.2 -9.05 1.05 -6.0 4.55 -2.3 7.9 1.25 8.05 2.8 L8.8 2.85 8.2 4.0 8.15 4.05 8.15 4.35 Q8.1 5.2 7.3 5.7 6.65 6.15 5.25 6.45 L1.85 9.6 1.75 9.55 0.35 9.3 -0.05 9.25 -1.3 8.0 -3.8 8.05 -11.05 7.2 -15.95 6.75 -17.2 6.65 -17.5 6.6 -18.85 6.5 -30.85 5.35 -45.35 4.05 -32.75 3.35 -1.75 2.25 -0.3 1.8 Q0.45 1.3 0.45 -0.2 0.45 -1.7 -0.2 -1.95 L-1.75 -2.25 -20.35 -2.1 -23.0 -1.75 Q-47.3 -1.2 -51.5 0.0 L-81.3 0.35 -82.35 -0.35 Q-83.0 -0.85 -83.0 -1.65 L-82.95 -1.85 M-27.55 -10.65 L-27.45 -10.6 -25.6 -11.05 -25.85 -11.45 Q-26.35 -11.0 -26.95 -10.75 L-27.55 -10.65" fill="#c7fafe" fill-opacity="0.4" fill-rule="evenodd" stroke="none"/>
    <path d="M-71.7 -8.55 Q-68.3 -11.05 -37.15 -6.55 -21.55 -4.3 -12.55 -2.2 L-20.35 -2.1 -23.0 -1.75 -42.8 -1.0 Q-61.4 -4.0 -71.45 -7.1 L-71.7 -8.55 M-24.5 -20.55 L-28.5 -24.2 -22.65 -20.75 Q-12.8 -14.05 -8.75 -9.0 -9.15 -7.85 -9.3 -7.65 -9.95 -6.85 -11.5 -6.85 -13.1 -6.85 -17.1 -9.75 L-17.1 -10.55 Q-17.1 -13.5 -24.5 -20.55 M-56.75 -26.3 L-62.1 -28.95 Q-60.05 -30.3 -45.75 -21.9 L-34.95 -15.35 Q-40.45 -18.05 -56.75 -26.3 M-22.25 -23.4 Q-22.9 -22.65 -24.45 -22.65 -25.7 -22.65 -33.8 -28.85 L-49.5 -41.05 Q-45.55 -44.95 -35.05 -37.95 -25.4 -31.5 -21.7 -24.7 L-22.25 -23.4 M-36.1 -11.5 Q-34.7 -11.5 -34.05 -12.25 L-32.9 -14.0 -26.35 -9.7 -27.7 -7.65 Q-28.35 -6.85 -29.55 -6.85 -34.8 -6.85 -44.3 -13.7 -38.85 -11.5 -36.1 -11.5 M-4.15 4.0 L-15.65 2.75 -1.75 2.25 -1.45 2.2 -2.0 3.4 Q-2.55 4.0 -4.15 4.0" fill="#c7fafe" fill-opacity="0.4" fill-rule="evenodd" stroke="none"/>
  </g>
</svg>
