<?xml version="1.0" encoding="UTF-8" standalone="no"?>
<svg xmlns:ffdec="https://www.free-decompiler.com/flash" xmlns:xlink="http://www.w3.org/1999/xlink" ffdec:objectType="shape" height="315.8px" width="129.35px" xmlns="http://www.w3.org/2000/svg">
  <g transform="matrix(1.0, 0.0, 0.0, 1.0, 64.65, 75.9)">
    <path d="M64.7 -9.0 Q64.7 -3.65 60.9 0.1 57.15 3.9 51.8 3.9 46.45 3.9 42.65 0.1 38.9 -3.65 38.9 -9.0 38.9 -14.35 42.65 -18.15 46.45 -21.9 51.8 -21.9 57.15 -21.9 60.9 -18.15 64.7 -14.35 64.7 -9.0 M11.55 75.9 Q5.9 75.9 1.9 71.9 -2.1 67.9 -2.1 62.25 -2.1 56.6 1.9 52.6 5.9 48.6 11.55 48.6 17.2 48.6 21.2 52.6 25.2 56.6 25.2 62.25 25.2 67.9 21.2 71.9 17.2 75.9 11.55 75.9 M51.8 142.1 Q57.15 142.1 60.9 145.85 64.7 149.65 64.7 155.0 64.7 160.35 60.9 164.1 57.15 167.9 51.8 167.9 46.45 167.9 42.65 164.1 38.9 160.35 38.9 155.0 38.9 149.65 42.65 145.85 46.45 142.1 51.8 142.1 M11.55 212.6 Q17.2 212.6 21.2 216.6 25.2 220.6 25.2 226.25 25.2 231.9 21.2 235.9 17.2 239.9 11.55 239.9 5.9 239.9 1.9 235.9 -2.1 231.9 -2.1 226.25 -2.1 220.6 1.9 216.6 5.9 212.6 11.55 212.6 M-14.05 -50.6 Q-14.05 -40.1 -21.45 -32.7 -28.85 -25.3 -39.35 -25.3 -49.85 -25.3 -57.25 -32.7 -64.65 -40.1 -64.65 -50.6 -64.65 -61.1 -57.25 -68.5 -49.85 -75.9 -39.35 -75.9 -28.85 -75.9 -21.45 -68.5 -14.05 -61.1 -14.05 -50.6 M-24.65 40.4 Q-24.65 42.55 -26.2 44.1 -27.75 45.65 -29.9 45.65 -32.05 45.65 -33.6 44.1 -35.15 42.55 -35.15 40.4 -35.15 38.25 -33.6 36.7 -32.05 35.15 -29.9 35.15 -27.75 35.15 -26.2 36.7 -24.65 38.25 -24.65 40.4 M-21.45 95.5 Q-14.05 102.9 -14.05 113.4 -14.05 123.9 -21.45 131.3 -28.85 138.7 -39.35 138.7 -49.85 138.7 -57.25 131.3 -64.65 123.9 -64.65 113.4 -64.65 102.9 -57.25 95.5 -49.85 88.1 -39.35 88.1 -28.85 88.1 -21.45 95.5 M-24.65 204.4 Q-24.65 206.55 -26.2 208.1 -27.75 209.65 -29.9 209.65 -32.05 209.65 -33.6 208.1 -35.15 206.55 -35.15 204.4 -35.15 202.25 -33.6 200.7 -32.05 199.15 -29.9 199.15 -27.75 199.15 -26.2 200.7 -24.65 202.25 -24.65 204.4" fill="#ffffff" fill-opacity="0.4509804" fill-rule="evenodd" stroke="none"/>
  </g>
</svg>
