<?xml version="1.0" encoding="UTF-8" standalone="no"?>
<svg xmlns:ffdec="https://www.free-decompiler.com/flash" xmlns:xlink="http://www.w3.org/1999/xlink" ffdec:objectType="shape" height="13.8px" width="14.0px" xmlns="http://www.w3.org/2000/svg">
  <g transform="matrix(1.0, 0.0, 0.0, 1.0, 6.0, -16.45)">
    <path d="M4.65 18.0 L4.65 17.9 4.7 17.85 4.7 17.8 4.75 17.75 4.9 17.75 5.0 17.75 5.1 17.85 5.15 17.85 5.2 17.9 5.25 17.9 5.3 17.95 5.35 18.0 5.35 18.05 5.4 18.1 5.4 18.15 5.45 18.15 5.45 18.25 5.25 18.0 5.25 18.1 5.3 18.15 5.35 18.2 5.35 18.25 5.4 18.25 5.4 18.3 5.45 18.35 5.45 18.45 5.5 18.45 5.5 18.5 5.55 18.55 5.55 18.6 5.6 18.65 5.6 18.7 5.65 18.7 5.7 18.75 5.7 18.8 5.75 18.85 5.75 18.95 5.8 18.95 5.8 19.05 5.85 19.1 5.85 19.15 5.9 19.2 5.95 19.25 5.95 19.3 6.05 19.4 6.05 19.45 6.1 19.5 6.1 19.55 6.15 19.6 6.15 19.7 6.2 19.75 6.2 19.8 6.25 19.85 6.25 19.9 6.3 19.95 6.3 20.0 6.35 20.05 6.35 20.1 6.4 20.15 6.45 20.2 6.45 20.3 6.5 20.35 6.65 20.5 6.65 20.55 6.7 20.6 6.7 20.65 6.75 20.7 6.75 20.75 6.8 20.8 6.8 20.85 6.85 20.9 6.9 20.95 6.95 21.0 6.95 21.05 7.0 21.05 7.0 21.1 7.0 21.15 7.05 21.15 7.1 21.2 7.1 21.3 7.15 21.35 7.2 21.4 7.2 21.45 7.25 21.5 7.3 21.55 7.3 21.6 7.35 21.6 7.35 21.65 7.4 21.7 7.4 21.8 7.4 21.85 7.45 21.85 7.45 22.0 7.5 22.05 7.5 22.1 7.55 22.1 7.55 22.15 7.6 22.2 7.6 22.3 7.65 22.35 7.7 22.4 7.7 22.5 7.75 22.55 7.75 22.65 7.8 22.7 7.8 22.95 7.75 23.0 7.75 23.05 7.7 23.1 7.7 23.15 7.65 23.2 7.65 23.25 7.6 23.3 7.55 23.35 7.5 23.4 7.45 23.45 7.45 23.5 7.4 23.55 7.35 23.55 7.25 23.6 7.15 23.65 7.15 23.7 7.05 23.75 6.95 23.8 6.9 23.8 6.85 23.85 6.75 23.85 6.25 23.85 6.15 23.85 6.0 23.8 5.9 23.8 5.85 23.75 5.8 23.7 5.7 23.65 5.65 23.65 5.65 23.6 5.6 23.55 5.55 23.5 5.5 23.45 5.6 23.65 5.45 23.65 5.4 23.6 5.35 23.55 5.35 23.5 5.3 23.45 5.3 23.4 5.25 23.4 5.25 23.35 5.2 23.3 5.2 23.25 5.15 23.2 5.15 23.15 5.1 23.15 5.1 23.05 5.05 23.0 5.05 22.9 5.0 22.9 4.95 22.85 4.95 22.8 4.9 22.75 4.9 22.7 4.85 22.65 4.8 22.6 4.8 22.4 4.75 22.35 4.75 22.3 4.7 22.25 4.7 22.1 4.65 22.05 4.65 21.95 4.6 21.95 4.6 21.85 4.55 21.75 4.55 21.7 4.5 21.6 4.45 21.5 4.45 21.45 4.4 21.4 4.4 21.25 4.35 21.2 4.35 21.15 4.3 21.1 4.3 21.05 4.25 21.0 4.25 20.95 4.2 20.95 4.2 20.85 4.15 20.75 4.15 20.85 4.15 20.95 4.15 21.05 4.15 21.1 4.15 21.2 4.15 21.3 4.1 21.3 4.1 21.55 4.1 21.65 4.1 21.75 4.1 21.8 4.1 21.9 4.1 21.95 4.15 22.0 4.15 22.1 4.15 22.25 4.15 22.4 4.15 22.55 4.15 22.75 4.15 22.9 4.15 22.95 4.2 23.0 4.2 23.4 4.25 23.45 4.25 23.7 4.3 23.75 4.3 24.25 4.35 24.3 4.35 24.35 4.35 24.5 4.35 24.75 4.35 25.0 4.35 25.25 4.35 25.5 4.35 25.65 4.4 25.7 4.4 25.8 4.4 26.1 4.4 26.5 4.4 26.9 4.4 27.35 4.4 27.75 4.4 27.85 4.4 28.3 4.35 28.35 4.35 28.45 4.35 28.8 4.35 28.9 4.35 29.05 4.35 29.2 4.35 29.25 4.3 29.3 4.3 29.4 4.25 29.45 4.25 29.5 4.2 29.55 4.2 29.65 4.15 29.7 4.1 29.75 4.1 29.8 3.95 29.95 3.85 30.0 3.75 30.05 3.7 30.1 3.6 30.1 3.05 30.1 2.8 30.1 2.65 30.1 2.55 30.1 2.45 30.05 2.4 30.0 2.35 29.95 2.25 29.9 2.2 29.9 2.1 29.85 2.05 29.8 2.05 29.75 2.0 29.7 1.95 29.65 1.95 29.55 1.9 29.5 1.9 29.4 1.85 29.35 1.85 29.3 1.8 29.25 1.8 29.2 1.75 29.2 1.75 29.1 1.7 29.05 1.7 28.95 1.65 28.9 1.65 28.75 1.6 28.7 1.6 28.45 1.55 28.4 1.55 28.25 1.5 28.2 1.5 28.0 1.45 28.0 1.45 27.65 1.4 27.6 1.4 27.4 1.35 27.35 1.35 27.3 1.3 27.25 1.3 27.1 1.25 27.05 1.25 26.8 1.2 26.75 1.2 26.5 1.15 26.45 1.15 26.1 1.1 26.05 1.1 25.85 1.05 25.8 1.0 25.75 1.0 25.65 1.0 25.55 0.95 25.55 0.95 25.6 0.9 25.65 0.9 26.0 0.85 26.05 0.85 26.5 0.8 26.55 0.8 26.6 0.75 26.6 0.75 27.05 0.7 27.1 0.7 27.3 0.65 27.35 0.65 27.6 0.6 27.65 0.6 27.95 0.55 28.0 0.55 28.05 0.5 28.05 0.5 28.3 0.45 28.3 0.45 28.4 0.4 28.45 0.4 28.5 0.35 28.55 0.3 28.6 0.3 28.7 0.25 28.75 0.25 28.8 0.2 28.8 0.2 28.9 0.15 28.95 0.15 29.05 0.1 29.05 0.1 29.15 0.05 29.2 0.05 29.3 0.0 29.3 0.0 29.4 -0.05 29.45 -0.05 29.5 -0.1 29.5 -0.15 29.55 -0.15 29.65 -0.2 29.7 -0.2 29.75 -0.25 29.75 -0.25 29.8 -0.35 29.9 -0.4 29.95 -0.45 30.0 -0.55 30.0 -0.55 30.05 -0.6 30.1 -0.7 30.15 -0.75 30.2 -0.8 30.2 -0.9 30.25 -1.35 30.25 -1.45 30.2 -1.55 30.15 -1.65 30.15 -1.75 30.1 -1.85 30.05 -1.9 30.0 -1.95 30.0 -2.0 29.95 -2.05 29.9 -2.05 29.85 -2.1 29.8 -2.15 29.75 -2.2 29.7 -2.25 29.65 -2.25 29.5 -2.3 29.5 -2.3 29.35 -2.35 29.3 -2.4 29.25 -2.4 29.15 -2.45 29.1 -2.45 29.0 -2.5 28.95 -2.5 28.8 -2.55 28.8 -2.55 28.55 -2.6 28.5 -2.6 28.45 -2.6 28.3 -2.6 28.05 -2.6 27.8 -2.6 27.55 -2.6 27.3 -2.6 27.2 -2.6 27.15 -2.65 27.1 -2.65 27.0 -2.65 26.9 -2.65 26.85 -2.65 26.75 -2.65 26.65 -2.65 26.6 -2.7 26.6 -2.7 26.5 -2.7 26.2 -2.7 25.8 -2.7 25.4 -2.7 24.95 -2.7 24.6 -2.7 24.55 -2.65 24.5 -2.65 24.45 -2.65 23.65 -2.65 22.7 -2.65 21.75 -2.65 21.15 -2.7 21.2 -2.7 21.3 -2.75 21.35 -2.75 21.45 -2.8 21.5 -2.8 21.65 -2.85 21.7 -2.85 21.75 -2.9 21.8 -2.9 21.85 -2.95 21.9 -2.95 21.95 -3.0 22.05 -3.05 22.15 -3.05 22.25 -3.1 22.4 -3.15 22.45 -3.15 22.7 -3.2 22.75 -3.2 22.85 -3.25 22.9 -3.25 22.95 -3.3 23.0 -3.3 23.15 -3.35 23.2 -3.35 23.35 -3.4 23.4 -3.45 23.45 -3.45 23.5 -3.5 23.55 -3.55 23.55 -3.55 23.6 -3.65 23.6 -3.75 23.6 -3.75 23.65 -3.8 23.7 -3.85 23.7 -3.9 23.75 -3.9 23.8 -3.95 23.85 -4.0 23.9 -4.1 23.95 -4.15 23.95 -4.3 24.0 -4.4 24.05 -4.45 24.1 -4.55 24.1 -4.65 24.1 -4.75 24.05 -5.15 24.05 -5.25 24.0 -5.3 24.0 -5.4 23.95 -5.45 23.95 -5.6 23.9 -5.65 23.85 -5.75 23.8 -5.8 23.8 -5.8 23.75 -5.85 23.7 -5.85 23.55 -5.9 23.55 -5.9 23.45 -5.95 23.4 -5.95 23.3 -6.0 23.25 -6.0 23.0 -6.0 22.9 -6.0 22.8 -6.0 22.75 -6.0 22.65 -6.0 22.55 -5.95 22.5 -5.95 22.35 -5.9 22.35 -5.9 22.1 -5.85 22.1 -5.85 22.05 -5.75 21.95 -5.75 21.85 -5.7 21.8 -5.7 21.75 -5.65 21.7 -5.65 21.65 -5.6 21.6 -5.6 21.45 -5.55 21.45 -5.55 21.2 -5.5 21.2 -5.5 21.15 -5.45 21.1 -5.45 20.95 -5.4 20.95 -5.4 20.9 -5.35 20.85 -5.35 20.75 -5.3 20.75 -5.3 20.5 -5.25 20.5 -5.25 20.45 -5.2 20.4 -5.2 20.3 -5.15 20.25 -5.15 20.2 -5.1 20.05 -5.05 19.95 -5.0 19.8 -4.95 19.7 -4.95 19.6 -4.9 19.55 -4.9 19.5 -4.85 19.45 -4.85 19.35 -4.8 19.3 -4.8 19.2 -4.75 19.1 -4.75 19.05 -4.7 18.95 -4.65 18.9 -4.65 18.7 -4.6 18.65 -4.6 18.55 -4.55 18.5 -4.55 18.4 -4.5 18.35 -4.5 18.3 -4.45 18.3 -4.4 18.25 -4.3 18.25 -4.2 18.25 -4.15 18.3 -4.15 18.35 -4.1 18.4 -4.1 18.45 -4.1 18.6 -4.15 18.65 -4.15 18.75 -4.2 18.8 -4.2 18.95 -4.25 19.0 -4.25 19.1 -4.3 19.2 -4.35 19.25 -4.35 19.35 -4.4 19.45 -4.4 19.5 -4.45 19.6 -4.45 19.65 -4.5 19.7 -4.5 19.75 -4.55 19.8 -4.55 19.85 -4.6 19.9 -4.65 20.05 -4.65 20.15 -4.7 20.3 -4.75 20.4 -4.8 20.5 -4.8 20.6 -4.85 20.65 -4.85 20.8 -4.9 20.85 -4.9 20.9 -4.95 20.95 -4.95 21.05 -5.0 21.1 -5.0 21.15 -5.05 21.15 -5.05 21.35 -5.1 21.35 -5.1 21.55 -5.15 21.6 -5.15 21.65 -5.2 21.7 -5.2 21.85 -5.25 21.85 -5.25 21.9 -5.3 21.95 -5.3 22.05 -5.3 22.1 -5.35 22.1 -5.35 22.15 -5.4 22.2 -5.4 22.25 -5.4 22.3 -5.45 22.35 -5.45 22.45 -5.5 22.5 -5.5 22.55 -5.55 22.6 -5.55 22.75 -5.6 22.8 -5.6 22.95 -5.6 23.05 -5.55 23.05 -5.55 23.15 -5.5 23.15 -5.5 23.2 -5.45 23.25 -5.45 23.4 -5.35 23.5 -5.25 23.5 -5.15 23.55 -5.05 23.55 -5.0 23.55 -5.0 23.6 -4.65 23.6 -4.5 23.6 -4.4 23.55 -4.35 23.5 -4.25 23.45 -4.2 23.4 -4.15 23.35 -4.1 23.3 -4.1 23.25 -4.05 23.25 -4.0 23.2 -4.0 23.15 -3.95 23.1 -3.9 23.05 -3.9 23.0 -3.85 22.95 -3.85 22.75 -3.8 22.75 -3.75 22.7 -3.65 22.65 -3.6 22.65 -3.6 22.4 -3.55 22.3 -3.5 22.2 -3.45 22.05 -3.45 21.95 -3.4 21.8 -3.35 21.75 -3.35 21.7 -3.3 21.65 -3.3 21.55 -3.25 21.55 -3.25 21.5 -3.2 21.45 -3.2 21.3 -3.15 21.25 -3.15 21.1 -3.1 21.05 -3.1 21.0 -3.05 20.95 -3.05 20.85 -3.0 20.8 -2.95 20.75 -2.95 20.55 -2.9 20.55 -2.9 20.45 -2.85 20.4 -2.85 20.3 -2.8 20.3 -2.8 20.2 -2.75 20.15 -2.75 20.1 -2.7 20.05 -2.7 20.0 -2.7 19.9 -2.65 19.85 -2.55 19.8 -2.5 19.8 -2.4 19.8 -2.3 19.9 -2.3 19.95 -2.25 20.0 -2.25 20.05 -2.2 20.1 -2.2 20.95 -2.2 21.9 -2.2 22.85 -2.2 22.95 -2.2 23.05 -2.2 23.8 -2.2 24.55 -2.25 24.6 -2.25 24.7 -2.25 24.95 -2.25 25.25 -2.25 25.55 -2.25 25.6 -2.25 25.95 -2.25 26.25 -2.25 26.4 -2.25 26.45 -2.2 26.5 -2.2 26.85 -2.2 26.95 -2.15 27.0 -2.15 27.05 -2.15 27.2 -2.15 27.45 -2.15 27.7 -2.15 27.95 -2.15 28.2 -2.15 28.3 -2.15 28.4 -2.1 28.4 -2.1 28.65 -2.05 28.65 -2.05 28.85 -2.0 28.85 -2.0 29.0 -1.95 29.05 -1.95 29.1 -1.9 29.1 -1.9 29.25 -1.85 29.3 -1.85 29.35 -1.75 29.45 -1.75 29.5 -1.7 29.55 -1.65 29.6 -1.6 29.6 -1.55 29.65 -1.5 29.7 -1.4 29.75 -1.35 29.75 -1.25 29.75 -0.95 29.75 -0.85 29.7 -0.8 29.7 -0.8 29.65 -0.7 29.55 -0.65 29.5 -0.6 29.45 -0.55 29.45 -0.55 29.35 -0.45 29.25 -0.45 29.15 -0.35 29.05 -0.35 28.95 -0.3 28.95 -0.3 28.8 -0.25 28.75 -0.25 28.7 -0.2 28.7 -0.2 28.6 -0.15 28.55 -0.15 28.5 -0.1 28.45 -0.1 28.4 -0.05 28.35 -0.05 28.3 0.0 28.25 0.05 28.2 0.05 28.0 0.1 27.95 0.1 27.8 0.15 27.75 0.15 27.5 0.2 27.5 0.2 27.2 0.25 27.15 0.25 26.95 0.3 26.9 0.3 26.85 0.35 26.8 0.35 26.45 0.4 26.4 0.4 26.25 0.4 26.15 0.4 26.05 0.4 25.95 0.45 25.9 0.45 25.55 0.5 25.5 0.5 25.15 0.45 25.1 0.45 25.0 0.45 24.95 0.5 24.9 0.5 24.85 0.6 24.85 0.75 24.9 1.2 24.9 1.25 24.9 1.25 25.0 1.35 25.1 1.35 25.15 1.4 25.15 1.4 25.4 1.45 25.45 1.45 25.55 1.5 25.6 1.5 25.7 1.55 25.75 1.55 26.0 1.6 26.05 1.6 26.35 1.65 26.35 1.65 26.65 1.7 26.7 1.7 26.95 1.75 27.0 1.75 27.15 1.8 27.2 1.8 27.35 1.85 27.35 1.85 27.4 1.9 27.45 1.9 27.9 1.95 27.95 1.95 28.05 2.0 28.1 2.0 28.25 2.05 28.3 2.05 28.55 2.1 28.6 2.1 28.65 2.15 28.7 2.15 28.9 2.2 28.95 2.2 29.0 2.25 29.05 2.25 29.15 2.3 29.2 2.3 29.3 2.35 29.35 2.35 29.4 2.45 29.5 2.5 29.5 2.55 29.55 2.6 29.6 2.75 29.65 3.5 29.65 3.6 29.6 3.65 29.55 3.7 29.5 3.75 29.45 3.75 29.4 3.8 29.35 3.8 29.2 3.9 29.1 3.9 29.05 3.9 28.95 3.9 28.8 3.9 28.65 3.9 28.5 3.9 28.3 3.9 28.2 3.9 28.1 3.9 27.95 3.9 27.8 3.95 27.75 4.0 27.7 4.0 27.45 4.0 27.05 4.0 26.7 4.0 26.3 4.0 25.95 4.0 25.9 3.95 25.85 3.95 25.8 3.9 25.8 3.9 25.6 3.9 25.35 3.9 25.1 3.9 24.85 3.9 24.6 3.9 24.5 3.9 24.4 3.85 24.35 3.85 24.05 3.85 23.95 3.85 23.85 3.8 23.85 3.8 23.5 3.75 23.45 3.75 23.15 3.7 23.1 3.7 23.05 3.7 22.95 3.7 22.85 3.7 22.65 3.7 22.5 3.7 22.35 3.7 22.2 3.7 22.15 3.65 22.1 3.65 21.95 3.65 21.8 3.65 21.7 3.65 21.55 3.65 21.45 3.65 21.3 3.65 21.2 3.7 21.2 3.7 20.75 3.65 20.75 3.65 20.35 3.6 20.3 3.6 20.0 3.55 19.95 3.55 19.9 3.55 19.65 3.6 19.6 3.6 19.55 3.65 19.55 3.65 19.5 3.75 19.5 3.85 19.5 4.0 19.45 4.05 19.45 4.15 19.5 4.2 19.5 4.2 19.55 4.25 19.6 4.25 19.75 4.3 19.75 4.3 19.8 4.35 19.85 4.35 20.0 4.4 20.05 4.4 20.2 4.45 20.25 4.45 20.3 4.5 20.35 4.5 20.45 4.55 20.5 4.55 20.6 4.6 20.7 4.6 20.75 4.65 20.75 4.65 20.8 4.7 20.85 4.7 20.9 4.75 20.95 4.75 21.0 4.8 21.05 4.8 21.2 4.85 21.2 4.85 21.3 4.9 21.35 4.9 21.4 4.95 21.45 4.95 21.55 5.0 21.65 5.0 21.7 5.05 21.8 5.05 21.85 5.1 21.9 5.1 22.0 5.15 22.05 5.15 22.2 5.2 22.2 5.2 22.3 5.25 22.35 5.25 22.45 5.3 22.5 5.35 22.55 5.35 22.6 5.45 22.65 5.5 22.65 5.55 22.7 5.6 22.75 5.6 22.8 5.65 22.85 5.65 22.9 5.7 22.9 5.7 22.95 5.75 23.0 5.8 23.05 5.8 23.1 5.85 23.15 5.9 23.15 5.95 23.2 6.0 23.25 6.0 23.3 6.1 23.35 6.15 23.35 6.2 23.4 6.3 23.4 6.65 23.4 6.7 23.35 6.75 23.35 6.8 23.3 6.85 23.3 6.9 23.25 7.0 23.25 7.05 23.2 7.1 23.15 7.15 23.1 7.2 23.05 7.2 23.0 7.25 22.95 7.3 22.9 7.3 22.85 7.35 22.8 7.3 22.75 7.3 22.7 7.3 22.65 7.25 22.6 7.25 22.55 7.2 22.5 7.2 22.45 7.15 22.4 7.15 22.3 7.1 22.25 7.05 22.2 7.05 22.15 7.0 22.1 7.0 22.05 6.95 22.0 6.95 21.9 6.9 21.85 6.9 21.8 6.85 21.8 6.8 21.75 6.8 21.7 6.75 21.65 6.75 21.6 6.7 21.55 6.7 21.5 6.65 21.45 6.6 21.4 6.6 21.35 6.5 21.25 6.5 21.2 6.4 21.1 6.4 21.05 6.35 21.05 6.35 21.0 6.3 20.95 6.3 20.85 6.25 20.8 6.2 20.75 6.15 20.7 6.15 20.65 6.1 20.6 6.1 20.55 6.05 20.55 6.05 20.5 6.0 20.45 6.0 20.35 5.95 20.3 5.9 20.3 5.9 20.25 5.85 20.2 5.85 20.1 5.8 20.05 5.8 20.0 5.75 19.95 5.75 19.85 5.7 19.85 5.7 19.75 5.65 19.7 5.65 19.65 5.6 19.6 5.55 19.55 5.55 19.5 5.5 19.45 5.5 19.4 5.45 19.35 5.4 19.3 5.4 19.25 5.35 19.2 5.35 19.1 5.25 19.0 5.25 18.95 5.2 18.9 5.2 18.85 5.15 18.85 5.15 18.8 5.1 18.75 5.1 18.65 5.05 18.65 5.05 18.6 5.0 18.55 4.95 18.5 4.95 18.4 4.9 18.4 4.85 18.35 4.85 18.3 4.8 18.25 4.8 18.2 4.75 18.15 4.7 18.15 4.7 18.1 4.65 18.05 4.65 18.0 M0.6 20.55 L0.6 20.4 0.65 20.4 0.6 20.55" fill="#000000" fill-rule="evenodd" stroke="none"/>
    <path d="M1.0 25.65 L0.95 25.65 0.95 25.6 0.95 25.55 1.0 25.55 1.0 25.65 M-4.1 18.45 L-4.05 18.4 -4.05 18.35 -3.95 18.25 -3.9 18.2 -3.9 18.15 -3.9 18.05 -3.85 18.0 -3.85 17.85 -3.75 17.7 -3.75 17.6 -3.7 17.55 -3.7 17.4 -3.6 17.25 -3.6 17.15 -3.55 17.1 -3.5 17.05 -3.5 16.95 -3.45 16.9 -3.45 16.85 -3.4 16.8 -3.4 16.75 -3.35 16.7 -3.3 16.65 -3.2 16.6 -3.1 16.6 -3.05 16.6 -2.95 16.6 -2.9 16.6 -2.85 16.55 -2.8 16.5 -2.7 16.5 -2.6 16.5 -2.6 16.45 -2.55 16.45 -2.45 16.5 -2.35 16.5 -2.3 16.55 -2.25 16.6 -2.2 16.65 -2.15 16.7 -2.15 16.75 -2.05 16.75 -2.0 16.75 -1.9 16.75 -1.8 16.8 -1.75 16.85 -1.7 16.85 -1.65 16.9 -1.6 16.95 -1.6 17.05 -1.55 17.1 -1.55 17.55 -1.6 17.6 -1.6 17.65 -1.6 17.75 -1.65 17.8 -1.65 17.9 -1.6 17.95 -1.6 18.0 -1.5 18.0 -1.4 18.0 -1.35 18.0 -1.25 18.05 -1.15 18.05 -1.1 18.1 -1.0 18.15 -1.0 18.2 -0.95 18.25 -0.9 18.3 -0.9 18.5 -0.9 18.65 -0.85 18.6 -0.75 18.6 -0.65 18.55 -0.6 18.55 -0.55 18.6 -0.45 18.6 -0.35 18.65 -0.3 18.7 -0.3 18.75 -0.4 18.8 -0.45 18.8 -0.45 18.85 -0.5 18.9 -0.55 18.95 -0.55 19.0 -0.6 19.05 -0.6 19.3 -0.65 19.3 -0.65 19.45 -0.7 19.5 -0.7 19.7 -0.75 19.75 -0.75 19.8 -0.8 19.85 -0.8 20.0 -0.85 20.0 -0.85 20.25 -0.9 20.25 -0.9 20.4 -0.95 20.45 -0.95 20.6 -1.0 20.65 -1.0 20.85 -1.05 20.9 -1.05 21.05 -1.1 21.1 -1.1 21.35 -1.2 21.35 -1.25 21.4 -1.35 21.5 -1.35 21.55 -1.4 21.55 -1.4 21.65 -1.45 21.7 -1.45 21.8 -1.5 21.9 -1.55 22.0 -1.6 22.15 -1.6 22.25 -1.65 22.3 -1.65 22.6 -1.7 22.65 -1.75 22.65 -1.85 22.65 -1.9 22.7 -1.95 22.7 -2.0 22.75 -2.05 22.75 -2.1 22.8 -2.15 22.85 -2.15 22.9 -2.2 22.95 -2.2 22.85 -2.2 21.9 -2.2 20.95 -2.2 20.1 -2.25 20.05 -2.25 20.0 -2.3 19.95 -2.3 19.9 -2.4 19.8 -2.5 19.8 -2.55 19.8 -2.5 19.75 -2.5 19.4 -2.55 19.35 -2.6 19.3 -2.65 19.25 -2.65 19.2 -2.7 19.15 -2.75 19.1 -2.8 19.1 -2.9 19.05 -2.95 19.0 -3.05 18.95 -3.15 18.95 -3.25 18.9 -3.3 18.9 -3.45 18.9 -3.5 18.9 -3.6 18.95 -3.7 19.0 -3.8 19.1 -3.85 19.15 -3.85 19.2 -3.9 19.25 -3.9 19.3 -3.95 19.3 -3.95 19.35 -4.0 19.4 -4.0 19.5 -4.05 19.5 -4.05 19.6 -4.1 19.65 -4.1 19.75 -4.15 19.8 -4.15 19.9 -4.2 19.95 -4.25 20.0 -4.3 20.05 -4.3 20.1 -4.45 20.1 -4.5 20.15 -4.55 20.15 -4.6 20.2 -4.65 20.25 -4.65 20.35 -4.7 20.4 -4.7 20.55 -4.75 20.6 -4.75 20.65 -4.8 20.65 -4.8 20.8 -4.85 20.85 -4.85 20.95 -4.9 21.0 -4.9 21.05 -4.95 21.1 -4.95 21.2 -5.0 21.25 -5.0 21.35 -5.05 21.4 -5.05 21.5 -5.1 21.55 -5.1 21.35 -5.05 21.35 -5.05 21.15 -5.0 21.15 -5.0 21.1 -4.95 21.05 -4.95 20.95 -4.9 20.9 -4.9 20.85 -4.85 20.8 -4.85 20.65 -4.8 20.6 -4.8 20.5 -4.75 20.4 -4.7 20.3 -4.65 20.15 -4.65 20.05 -4.6 19.9 -4.55 19.85 -4.55 19.8 -4.5 19.75 -4.5 19.7 -4.45 19.65 -4.45 19.6 -4.4 19.5 -4.4 19.45 -4.35 19.35 -4.35 19.25 -4.3 19.2 -4.25 19.1 -4.25 19.0 -4.2 18.95 -4.2 18.8 -4.15 18.75 -4.15 18.65 -4.1 18.6 -4.1 18.45 M-0.15 18.7 L-0.15 18.6 -0.1 18.55 -0.05 18.5 0.05 18.4 0.1 18.4 0.2 18.35 0.25 18.35 0.35 18.35 0.45 18.4 0.5 18.45 0.6 18.45 0.6 18.5 0.65 18.55 0.65 18.35 0.7 18.3 0.7 18.25 0.75 18.25 0.75 18.2 0.8 18.15 0.85 18.1 0.9 18.05 1.0 18.05 1.1 18.05 1.1 18.0 1.2 18.05 1.3 18.05 1.35 18.1 1.4 18.15 1.5 18.15 1.6 18.1 1.7 18.1 1.75 18.05 1.8 18.05 1.9 18.1 2.0 18.1 2.1 18.15 2.15 18.2 2.2 18.25 2.25 18.3 2.3 18.3 2.35 18.35 2.4 18.4 2.45 18.45 2.55 18.4 2.6 18.35 2.7 18.35 2.8 18.35 2.9 18.4 2.95 18.45 3.0 18.45 3.05 18.5 3.1 18.55 3.1 18.65 3.15 18.7 3.15 18.75 3.2 18.8 3.2 18.9 3.25 18.95 3.25 19.0 3.15 19.05 3.1 19.05 3.0 19.1 2.95 19.1 2.9 19.05 2.85 19.0 2.75 18.95 2.65 18.95 2.55 18.95 2.45 19.0 2.4 19.0 2.35 18.95 2.25 18.9 2.15 18.9 2.1 18.9 2.0 18.9 1.95 18.95 1.85 18.95 1.8 19.0 1.75 19.0 1.75 18.95 1.7 18.95 1.7 18.9 1.65 18.85 1.65 18.8 1.55 18.75 1.5 18.7 1.4 18.7 1.3 18.7 1.2 18.7 1.1 18.7 1.05 18.75 1.0 18.8 0.95 18.85 0.9 18.85 0.85 18.9 0.85 19.0 0.8 19.05 0.8 19.1 0.75 19.15 0.75 19.25 0.65 19.15 0.55 19.1 0.45 19.1 0.4 19.05 0.35 19.0 0.35 18.95 0.3 18.9 0.3 18.85 0.25 18.8 0.2 18.75 0.1 18.7 0.05 18.7 -0.05 18.7 -0.15 18.7 M3.55 18.9 L3.55 18.85 3.5 18.8 3.5 18.75 3.45 18.7 3.45 18.65 3.4 18.6 3.4 18.55 3.35 18.5 3.35 18.4 3.3 18.35 3.3 18.3 3.25 18.3 3.25 18.2 3.2 18.15 3.2 18.1 3.15 18.05 3.15 17.75 3.2 17.7 3.2 17.65 3.25 17.6 3.3 17.6 3.4 17.5 3.5 17.5 3.6 17.45 3.65 17.5 3.75 17.5 3.85 17.55 3.95 17.65 4.0 17.65 4.0 17.7 4.05 17.75 4.05 17.9 4.1 17.9 4.2 17.9 4.3 17.9 4.4 17.95 4.45 18.0 4.4 18.0 4.3 18.05 4.25 18.1 4.2 18.15 4.2 18.2 4.15 18.25 4.15 18.35 4.1 18.4 4.1 18.8 4.15 18.85 4.15 18.9 3.6 18.9 3.55 18.9 M6.8 23.3 L6.75 23.35 6.7 23.35 6.65 23.4 6.3 23.4 6.2 23.4 6.15 23.35 6.1 23.35 6.0 23.3 6.0 23.25 5.95 23.2 5.9 23.15 5.85 23.15 5.8 23.1 5.8 23.05 5.75 23.0 5.7 22.95 5.7 22.9 5.65 22.85 5.6 22.8 5.6 22.75 5.55 22.7 5.5 22.65 5.45 22.65 5.35 22.6 5.35 22.55 5.3 22.5 5.25 22.45 5.25 22.35 5.2 22.3 5.2 22.2 5.15 22.2 5.15 22.05 5.1 22.0 5.1 21.9 5.05 21.85 5.05 21.8 5.0 21.7 5.0 21.65 4.95 21.55 5.0 21.6 5.05 21.6 5.05 21.7 5.25 21.9 5.25 21.95 5.35 22.05 5.35 22.1 5.4 22.1 5.4 22.15 5.5 22.25 5.5 22.3 5.6 22.35 5.65 22.4 5.7 22.45 5.75 22.5 5.75 22.55 5.8 22.6 5.85 22.6 5.85 22.65 5.9 22.7 5.9 22.75 6.05 22.85 6.15 23.0 6.25 23.05 6.35 23.15 6.4 23.2 6.4 23.25 6.5 23.3 6.6 23.3 6.7 23.3 6.8 23.3 M2.55 29.55 L2.5 29.5 2.45 29.5 2.35 29.4 2.35 29.35 2.3 29.3 2.4 29.35 2.5 29.35 2.55 29.35 2.55 29.45 2.55 29.55 M0.75 24.9 L0.6 24.85 0.6 24.8 0.65 24.75 0.65 24.7 0.7 24.7 0.7 24.55 0.75 24.5 0.75 24.4 0.75 24.3 0.75 24.25 0.85 24.25 0.85 24.35 0.8 24.35 0.8 24.6 0.75 24.65 0.75 24.9 M0.45 24.95 L0.45 25.0 0.4 25.0 0.35 24.95 0.45 24.95 M-1.25 29.75 L-1.35 29.75 -1.35 29.7 -1.3 29.65 -1.3 29.7 -1.25 29.75 M-2.2 26.5 L-2.25 26.45 -2.25 26.4 -2.25 26.25 -2.25 25.95 -2.25 25.6 -2.25 25.55 -2.2 25.55 -2.2 25.6 -2.2 26.2 -2.2 26.5 M-5.0 23.55 L-5.05 23.55 -5.0 23.5 -5.0 23.55 M-5.6 23.05 L-5.6 22.95 -5.55 23.0 -5.6 23.05 M-5.45 22.35 L-5.4 22.3 -5.4 22.35 -5.45 22.35 M-5.3 22.05 L-5.3 21.95 -5.25 21.9 -5.25 21.85 -5.2 21.85 -5.25 21.9 -5.25 22.0 -5.3 22.05 M4.75 19.8 L4.8 19.85 4.75 19.85 4.75 19.8 M4.8 19.9 L4.85 19.9 4.85 19.95 4.9 20.0 4.95 20.05 4.95 20.1 5.0 20.15 5.05 20.15 5.05 20.2 5.1 20.25 5.1 20.3 5.15 20.35 5.2 20.4 5.25 20.45 5.25 20.5 5.35 20.6 5.35 20.65 5.4 20.65 5.45 20.7 5.45 20.75 5.5 20.75 5.5 20.8 5.45 20.75 5.35 20.65 5.25 20.55 5.15 20.45 5.15 20.4 5.1 20.35 5.1 20.3 5.05 20.25 5.0 20.2 4.95 20.15 4.95 20.1 4.9 20.1 4.9 20.05 4.85 20.0 4.8 19.95 4.8 19.9" fill="#ff0200" fill-rule="evenodd" stroke="none"/>
    <path d="M6.2 19.75 L6.25 19.8 6.25 19.85 6.3 19.85 6.3 19.95 6.35 20.0 6.4 20.05 6.4 20.1 6.45 20.1 6.45 20.15 6.5 20.2 6.5 20.25 6.55 20.3 6.6 20.35 6.6 20.4 6.65 20.45 6.65 20.5 6.7 20.55 6.75 20.6 6.75 20.65 6.8 20.7 6.8 20.75 6.85 20.8 6.9 20.85 6.9 20.9 6.95 20.95 6.95 21.0 6.9 20.95 6.85 20.9 6.8 20.85 6.8 20.8 6.75 20.75 6.75 20.7 6.7 20.65 6.7 20.6 6.65 20.55 6.65 20.5 6.5 20.35 6.45 20.3 6.45 20.2 6.4 20.15 6.35 20.1 6.35 20.05 6.3 20.0 6.3 19.95 6.25 19.9 6.25 19.85 6.2 19.8 6.2 19.75 M7.0 21.1 L7.05 21.15 7.0 21.15 7.0 21.1 M7.4 21.8 L7.45 21.8 7.45 21.85 7.5 21.9 7.55 21.95 7.6 22.0 7.65 22.0 7.75 22.1 7.8 22.15 7.85 22.2 7.85 22.25 7.9 22.25 7.95 22.3 7.95 22.35 8.0 22.4 8.0 22.75 7.95 22.75 7.95 22.85 7.9 22.9 7.8 23.0 7.75 23.0 7.8 22.95 7.8 22.7 7.75 22.65 7.75 22.55 7.7 22.5 7.7 22.4 7.65 22.35 7.6 22.3 7.6 22.2 7.55 22.15 7.55 22.1 7.5 22.1 7.5 22.05 7.45 22.0 7.45 21.85 7.4 21.85 7.4 21.8 M4.45 18.0 L4.5 18.0 4.6 17.95 4.65 18.0 4.65 18.05 4.7 18.1 4.7 18.15 4.75 18.15 4.8 18.2 4.8 18.25 4.85 18.3 4.85 18.35 4.9 18.4 4.95 18.4 4.95 18.5 5.0 18.55 5.05 18.6 5.05 18.65 5.1 18.65 5.1 18.75 5.15 18.8 5.15 18.85 5.2 18.85 5.2 18.9 5.25 18.95 5.25 19.0 5.35 19.1 5.35 19.2 5.4 19.25 5.4 19.3 5.45 19.35 5.5 19.4 5.5 19.45 5.55 19.5 5.55 19.55 5.6 19.6 5.65 19.65 5.65 19.7 5.7 19.75 5.7 19.85 5.75 19.85 5.75 19.95 5.8 20.0 5.8 20.05 5.85 20.1 5.85 20.2 5.9 20.25 5.9 20.3 5.95 20.3 6.0 20.35 6.0 20.45 6.05 20.5 6.05 20.55 6.1 20.55 6.1 20.6 6.15 20.65 6.15 20.7 6.2 20.75 6.25 20.8 6.3 20.85 6.3 20.95 6.35 21.0 6.35 21.05 6.4 21.05 6.4 21.1 6.5 21.2 6.5 21.25 6.6 21.35 6.6 21.4 6.65 21.45 6.7 21.5 6.7 21.55 6.75 21.6 6.75 21.65 6.8 21.7 6.8 21.75 6.85 21.8 6.9 21.8 6.9 21.85 6.95 21.9 6.95 22.0 7.0 22.05 7.0 22.1 7.05 22.15 7.05 22.2 7.1 22.25 7.15 22.3 7.15 22.4 7.2 22.45 7.2 22.5 7.25 22.55 7.25 22.6 7.3 22.65 7.3 22.7 7.25 22.65 7.2 22.6 7.2 22.55 7.15 22.5 7.1 22.45 7.05 22.4 6.95 22.4 6.85 22.4 6.8 22.4 6.8 22.35 6.75 22.3 6.7 22.25 6.65 22.25 6.6 22.2 6.6 22.15 6.55 22.1 6.55 22.05 6.5 22.0 6.45 22.0 6.4 21.95 6.4 21.9 6.35 21.85 6.3 21.8 6.25 21.75 6.25 21.7 6.2 21.65 6.15 21.6 6.1 21.55 6.05 21.55 6.05 21.5 6.0 21.45 6.0 21.4 5.95 21.35 5.9 21.3 5.85 21.3 5.85 21.2 5.7 21.05 5.65 21.05 5.65 21.0 5.6 20.95 5.6 20.9 5.5 20.8 5.5 20.75 5.45 20.75 5.45 20.7 5.4 20.65 5.35 20.65 5.35 20.6 5.25 20.5 5.25 20.45 5.2 20.4 5.15 20.35 5.1 20.3 5.1 20.25 5.05 20.2 5.05 20.15 5.0 20.15 4.95 20.1 4.95 20.05 4.9 20.0 4.85 19.95 4.85 19.9 4.8 19.9 4.8 19.85 4.75 19.8 4.7 19.75 4.7 19.3 4.65 19.3 4.65 19.2 4.6 19.15 4.6 19.1 4.55 19.05 4.5 19.05 4.4 18.95 4.3 18.9 4.2 18.9 4.15 18.9 4.15 18.85 4.1 18.8 4.1 18.4 4.15 18.35 4.15 18.25 4.2 18.2 4.2 18.15 4.25 18.1 4.3 18.05 4.4 18.0 4.45 18.0 M7.3 22.75 L7.35 22.8 7.3 22.85 7.3 22.75 M3.55 19.9 L3.55 19.95 3.6 20.0 3.6 20.3 3.65 20.35 3.65 20.75 3.7 20.75 3.7 21.2 3.65 21.2 3.65 21.3 3.65 21.45 3.65 21.55 3.65 21.7 3.65 21.8 3.65 21.95 3.65 22.1 3.7 22.15 3.7 22.2 3.7 22.35 3.7 22.5 3.7 22.65 3.7 22.85 3.7 22.95 3.7 23.05 3.7 23.1 3.75 23.15 3.75 23.45 3.8 23.5 3.8 23.85 3.85 23.85 3.85 23.95 3.85 24.05 3.85 24.35 3.9 24.4 3.9 24.5 3.9 24.6 3.9 24.85 3.9 25.1 3.9 25.35 3.9 25.6 3.9 25.8 3.95 25.8 3.95 25.85 4.0 25.9 4.0 25.95 4.0 26.3 4.0 26.7 4.0 27.05 4.0 27.45 4.0 27.7 3.95 27.75 3.9 27.8 3.9 27.95 3.9 28.1 3.9 28.2 3.9 28.3 3.9 28.5 3.9 28.65 3.9 28.8 3.9 28.95 3.9 29.05 3.9 29.1 3.8 29.2 3.8 29.35 3.75 29.4 3.75 29.45 3.7 29.5 3.65 29.55 3.6 29.6 3.5 29.65 2.75 29.65 2.6 29.6 2.55 29.55 2.55 29.45 2.55 29.35 2.65 29.3 2.75 29.25 2.8 29.2 2.85 29.2 2.85 29.1 2.9 29.05 2.9 28.95 2.95 28.95 2.95 28.7 2.95 28.45 2.95 27.95 2.95 27.8 2.95 27.5 3.0 27.45 3.0 27.05 3.05 27.0 3.05 26.9 3.05 26.8 3.05 26.75 3.05 26.65 3.05 26.5 3.0 26.45 3.0 26.3 2.95 26.3 2.95 26.05 2.95 25.95 2.95 25.9 3.0 25.9 3.2 25.7 3.2 25.65 3.25 25.65 3.25 25.35 3.2 25.3 3.2 25.25 3.2 24.45 3.2 23.6 3.2 22.8 3.2 22.0 3.2 21.45 3.2 21.35 3.15 21.3 3.15 20.65 3.1 20.6 3.1 20.2 3.1 20.1 3.1 20.0 3.2 20.0 3.3 20.0 3.35 20.0 3.4 19.95 3.45 19.95 3.5 19.9 3.55 19.9 M0.45 25.0 L0.45 25.1 0.5 25.15 0.5 25.5 0.45 25.55 0.45 25.9 0.4 25.95 0.4 26.05 0.4 26.15 0.4 26.25 0.4 26.4 0.35 26.45 0.35 26.8 0.3 26.85 0.3 26.9 0.25 26.95 0.25 27.15 0.2 27.2 0.2 27.5 0.15 27.5 0.15 27.75 0.1 27.8 0.1 27.95 0.05 28.0 0.05 28.2 0.0 28.25 -0.05 28.3 -0.05 28.35 -0.1 28.4 -0.1 28.45 -0.15 28.5 -0.15 28.55 -0.2 28.6 -0.2 28.7 -0.25 28.7 -0.25 28.75 -0.3 28.8 -0.3 28.95 -0.35 28.95 -0.35 29.05 -0.45 29.15 -0.45 29.25 -0.55 29.35 -0.55 29.45 -0.6 29.45 -0.65 29.5 -0.7 29.55 -0.8 29.65 -0.8 29.7 -0.85 29.7 -0.95 29.75 -1.25 29.75 -1.3 29.7 -1.3 29.65 -1.25 29.6 -1.25 29.55 -1.2 29.5 -1.2 29.45 -1.15 29.4 -1.15 29.3 -1.1 29.3 -1.1 29.25 -1.1 29.15 -1.1 29.0 -1.05 28.95 -1.05 28.9 -1.0 28.85 -0.9 28.8 -0.85 28.8 -0.8 28.75 -0.8 28.65 -0.75 28.6 -0.75 28.55 -0.7 28.5 -0.7 28.25 -0.65 28.2 -0.65 28.05 -0.6 28.0 -0.6 27.85 -0.55 27.8 -0.55 27.4 -0.5 27.35 -0.5 27.15 -0.45 27.1 -0.45 26.85 -0.4 26.8 -0.4 26.6 -0.35 26.55 -0.35 25.9 -0.3 25.9 -0.3 25.45 -0.25 25.4 -0.15 25.4 -0.15 25.35 -0.05 25.25 -0.05 25.15 0.0 25.15 0.0 25.05 0.05 25.0 0.05 24.95 0.1 24.95 0.2 24.95 0.25 25.0 0.35 24.95 0.4 25.0 0.45 25.0 M-2.7 20.0 L-2.7 20.05 -2.75 20.1 -2.75 20.15 -2.8 20.2 -2.8 20.3 -2.85 20.3 -2.85 20.4 -2.9 20.45 -2.9 20.55 -2.95 20.55 -2.95 20.75 -3.0 20.8 -3.05 20.85 -3.05 20.95 -3.1 21.0 -3.1 21.05 -3.15 21.1 -3.15 21.25 -3.2 21.3 -3.2 21.45 -3.25 21.5 -3.25 21.55 -3.3 21.55 -3.3 21.65 -3.35 21.7 -3.35 21.75 -3.4 21.8 -3.45 21.95 -3.45 22.05 -3.5 22.2 -3.55 22.3 -3.6 22.4 -3.6 22.65 -3.65 22.65 -3.75 22.7 -3.8 22.75 -3.85 22.75 -3.85 22.95 -3.9 23.0 -3.9 23.05 -3.95 23.1 -4.0 23.15 -4.0 23.2 -4.05 23.25 -4.1 23.25 -4.1 23.3 -4.15 23.35 -4.2 23.4 -4.25 23.45 -4.35 23.5 -4.4 23.55 -4.5 23.6 -4.65 23.6 -5.0 23.6 -5.0 23.55 -5.0 23.5 -4.95 23.5 -4.9 23.45 -4.85 23.4 -4.8 23.4 -4.75 23.35 -4.75 23.25 -4.7 23.2 -4.7 23.15 -4.65 23.15 -4.65 23.0 -4.6 22.95 -4.6 22.9 -4.55 22.85 -4.55 22.8 -4.5 22.75 -4.5 22.7 -4.45 22.65 -4.45 22.6 -4.4 22.55 -4.4 22.45 -4.45 22.4 -4.45 22.35 -4.4 22.3 -4.4 22.15 -4.35 22.1 -4.35 22.0 -4.3 21.95 -4.25 21.9 -4.25 21.85 -4.15 21.85 -4.05 21.8 -3.95 21.7 -3.9 21.65 -3.9 21.5 -3.85 21.45 -3.85 21.4 -3.8 21.35 -3.8 21.25 -3.75 21.2 -3.75 21.15 -3.7 21.1 -3.7 21.05 -3.65 21.0 -3.65 20.95 -3.6 20.95 -3.6 20.75 -3.55 20.75 -3.55 20.6 -3.5 20.55 -3.5 20.5 -3.45 20.45 -3.45 20.4 -3.4 20.35 -3.4 20.3 -3.35 20.25 -3.3 20.25 -3.2 20.2 -3.15 20.15 -3.15 20.1 -3.1 20.05 -3.0 20.05 -2.95 20.05 -2.85 20.05 -2.8 20.05 -2.75 20.0 -2.7 20.0" fill="#990000" fill-rule="evenodd" stroke="none"/>
    <path d="M-0.3 18.7 L-0.15 18.7 -0.05 18.7 0.05 18.7 0.1 18.7 0.2 18.75 0.25 18.8 0.3 18.85 0.3 18.9 0.35 18.95 0.35 19.0 0.4 19.05 0.45 19.1 0.55 19.1 0.65 19.15 0.75 19.25 0.75 19.15 0.8 19.1 0.8 19.05 0.85 19.0 0.85 18.9 0.9 18.85 0.95 18.85 1.0 18.8 1.05 18.75 1.1 18.7 1.2 18.7 1.3 18.7 1.4 18.7 1.5 18.7 1.55 18.75 1.65 18.8 1.65 18.85 1.7 18.9 1.7 18.95 1.75 18.95 1.75 19.0 1.8 19.0 1.85 18.95 1.95 18.95 2.0 18.9 2.1 18.9 2.15 18.9 2.25 18.9 2.35 18.95 2.4 19.0 2.45 19.0 2.55 18.95 2.65 18.95 2.75 18.95 2.85 19.0 2.9 19.05 2.95 19.1 3.0 19.1 3.1 19.05 3.15 19.05 3.25 19.0 3.3 19.0 3.4 18.95 3.45 18.95 3.5 18.9 3.55 18.9 3.6 18.9 4.15 18.9 4.2 18.9 4.3 18.9 4.4 18.95 4.5 19.05 4.55 19.05 4.6 19.1 4.6 19.15 4.65 19.2 4.65 19.3 4.7 19.3 4.7 19.75 4.75 19.8 4.75 19.85 4.8 19.85 4.8 19.9 4.8 19.95 4.85 20.0 4.9 20.05 4.9 20.1 4.95 20.1 4.95 20.15 5.0 20.2 5.05 20.25 5.1 20.3 5.1 20.35 5.15 20.4 5.15 20.45 5.25 20.55 5.35 20.65 5.45 20.75 5.5 20.8 5.6 20.9 5.6 20.95 5.65 21.0 5.65 21.05 5.7 21.05 5.85 21.2 5.85 21.3 5.9 21.3 5.95 21.35 6.0 21.4 6.0 21.45 6.05 21.5 6.05 21.55 6.1 21.55 6.15 21.6 6.2 21.65 6.25 21.7 6.25 21.75 6.3 21.8 6.35 21.85 6.4 21.9 6.4 21.95 6.45 22.0 6.5 22.0 6.55 22.05 6.55 22.1 6.6 22.15 6.6 22.2 6.65 22.25 6.7 22.25 6.75 22.3 6.8 22.35 6.8 22.4 6.85 22.4 6.95 22.4 7.05 22.4 7.1 22.45 7.15 22.5 7.2 22.55 7.2 22.6 7.25 22.65 7.3 22.7 7.3 22.75 7.3 22.85 7.3 22.9 7.25 22.95 7.2 23.0 7.2 23.05 7.15 23.1 7.1 23.15 7.05 23.2 7.0 23.25 6.9 23.25 6.85 23.3 6.8 23.3 6.7 23.3 6.6 23.3 6.5 23.3 6.4 23.25 6.4 23.2 6.35 23.15 6.25 23.05 6.15 23.0 6.05 22.85 5.9 22.75 5.9 22.7 5.85 22.65 5.85 22.6 5.8 22.6 5.75 22.55 5.75 22.5 5.7 22.45 5.65 22.4 5.6 22.35 5.5 22.3 5.5 22.25 5.4 22.15 5.4 22.1 5.35 22.1 5.35 22.05 5.25 21.95 5.25 21.9 5.05 21.7 5.05 21.6 5.0 21.6 4.95 21.55 4.95 21.45 4.9 21.4 4.9 21.35 4.85 21.3 4.85 21.2 4.8 21.2 4.8 21.05 4.75 21.0 4.75 20.95 4.7 20.9 4.7 20.85 4.65 20.8 4.65 20.75 4.6 20.75 4.6 20.7 4.55 20.6 4.55 20.5 4.5 20.45 4.5 20.35 4.45 20.3 4.45 20.25 4.4 20.2 4.4 20.05 4.35 20.0 4.35 19.85 4.3 19.8 4.3 19.75 4.25 19.75 4.25 19.6 4.2 19.55 4.2 19.5 4.15 19.5 4.05 19.45 4.0 19.45 3.85 19.5 3.75 19.5 3.65 19.5 3.65 19.55 3.6 19.55 3.6 19.6 3.55 19.65 3.55 19.9 3.5 19.9 3.45 19.95 3.4 19.95 3.35 20.0 3.3 20.0 3.2 20.0 3.1 20.0 3.1 20.1 3.1 20.2 3.1 20.6 3.15 20.65 3.15 21.3 3.2 21.35 3.2 21.45 3.2 22.0 3.2 22.8 3.2 23.6 3.2 24.45 3.2 25.25 3.2 25.3 3.25 25.35 3.25 25.65 3.2 25.65 3.2 25.7 3.0 25.9 2.95 25.9 2.95 25.95 2.95 26.05 2.95 26.3 3.0 26.3 3.0 26.45 3.05 26.5 3.05 26.65 3.05 26.75 3.05 26.8 3.05 26.9 3.05 27.0 3.0 27.05 3.0 27.45 2.95 27.5 2.95 27.8 2.95 27.95 2.95 28.45 2.95 28.7 2.95 28.95 2.9 28.95 2.9 29.05 2.85 29.1 2.85 29.2 2.8 29.2 2.75 29.25 2.65 29.3 2.55 29.35 2.5 29.35 2.4 29.35 2.3 29.3 2.3 29.2 2.25 29.15 2.25 29.05 2.2 29.0 2.2 28.95 2.15 28.9 2.15 28.7 2.1 28.65 2.1 28.6 2.05 28.55 2.05 28.3 2.0 28.25 2.0 28.1 1.95 28.05 1.95 27.95 1.9 27.9 1.9 27.45 1.85 27.4 1.85 27.35 1.8 27.35 1.8 27.2 1.75 27.15 1.75 27.0 1.7 26.95 1.7 26.7 1.65 26.65 1.65 26.35 1.6 26.35 1.6 26.05 1.55 26.0 1.55 25.75 1.5 25.7 1.5 25.6 1.45 25.55 1.45 25.45 1.4 25.4 1.4 25.15 1.35 25.15 1.35 25.1 1.25 25.0 1.25 24.9 1.2 24.9 0.75 24.9 0.75 24.65 0.8 24.6 0.8 24.35 0.85 24.35 0.85 24.25 0.75 24.25 0.75 24.3 0.75 24.4 0.75 24.5 0.7 24.55 0.7 24.7 0.65 24.7 0.65 24.75 0.6 24.8 0.6 24.85 0.5 24.85 0.5 24.9 0.45 24.95 0.35 24.95 0.25 25.0 0.2 24.95 0.1 24.95 0.05 24.95 0.05 25.0 0.0 25.05 0.0 25.15 -0.05 25.15 -0.05 25.25 -0.15 25.35 -0.15 25.4 -0.25 25.4 -0.3 25.45 -0.3 25.9 -0.35 25.9 -0.35 26.55 -0.4 26.6 -0.4 26.8 -0.45 26.85 -0.45 27.1 -0.5 27.15 -0.5 27.35 -0.55 27.4 -0.55 27.8 -0.6 27.85 -0.6 28.0 -0.65 28.05 -0.65 28.2 -0.7 28.25 -0.7 28.5 -0.75 28.55 -0.75 28.6 -0.8 28.65 -0.8 28.75 -0.85 28.8 -0.9 28.8 -1.0 28.85 -1.05 28.9 -1.05 28.95 -1.1 29.0 -1.1 29.15 -1.1 29.25 -1.1 29.3 -1.15 29.3 -1.15 29.4 -1.2 29.45 -1.2 29.5 -1.25 29.55 -1.25 29.6 -1.3 29.65 -1.35 29.7 -1.35 29.75 -1.4 29.75 -1.5 29.7 -1.55 29.65 -1.6 29.6 -1.65 29.6 -1.7 29.55 -1.75 29.5 -1.75 29.45 -1.85 29.35 -1.85 29.3 -1.9 29.25 -1.9 29.1 -1.95 29.1 -1.95 29.05 -2.0 29.0 -2.0 28.85 -2.05 28.85 -2.05 28.65 -2.1 28.65 -2.1 28.4 -2.15 28.4 -2.15 28.3 -2.15 28.2 -2.15 27.95 -2.15 27.7 -2.15 27.45 -2.15 27.2 -2.15 27.05 -2.15 27.0 -2.2 26.95 -2.2 26.85 -2.2 26.5 -2.2 26.2 -2.2 25.6 -2.2 25.55 -2.25 25.55 -2.25 25.25 -2.25 24.95 -2.25 24.7 -2.25 24.6 -2.2 24.55 -2.2 23.8 -2.2 23.05 -2.2 22.95 -2.15 22.9 -2.15 22.85 -2.1 22.8 -2.05 22.75 -2.0 22.75 -1.95 22.7 -1.9 22.7 -1.85 22.65 -1.75 22.65 -1.7 22.65 -1.65 22.6 -1.65 22.3 -1.6 22.25 -1.6 22.15 -1.55 22.0 -1.5 21.9 -1.45 21.8 -1.45 21.7 -1.4 21.65 -1.4 21.55 -1.35 21.55 -1.35 21.5 -1.25 21.4 -1.2 21.35 -1.1 21.35 -1.1 21.1 -1.05 21.05 -1.05 20.9 -1.0 20.85 -1.0 20.65 -0.95 20.6 -0.95 20.45 -0.9 20.4 -0.9 20.25 -0.85 20.25 -0.85 20.0 -0.8 20.0 -0.8 19.85 -0.75 19.8 -0.75 19.75 -0.7 19.7 -0.7 19.5 -0.65 19.45 -0.65 19.3 -0.6 19.3 -0.6 19.05 -0.55 19.0 -0.55 18.95 -0.5 18.9 -0.45 18.85 -0.45 18.8 -0.4 18.8 -0.3 18.75 -0.3 18.7 M-2.55 19.8 L-2.65 19.85 -2.7 19.9 -2.7 20.0 -2.75 20.0 -2.8 20.05 -2.85 20.05 -2.95 20.05 -3.0 20.05 -3.1 20.05 -3.15 20.1 -3.15 20.15 -3.2 20.2 -3.3 20.25 -3.35 20.25 -3.4 20.3 -3.4 20.35 -3.45 20.4 -3.45 20.45 -3.5 20.5 -3.5 20.55 -3.55 20.6 -3.55 20.75 -3.6 20.75 -3.6 20.95 -3.65 20.95 -3.65 21.0 -3.7 21.05 -3.7 21.1 -3.75 21.15 -3.75 21.2 -3.8 21.25 -3.8 21.35 -3.85 21.4 -3.85 21.45 -3.9 21.5 -3.9 21.65 -3.95 21.7 -4.05 21.8 -4.15 21.85 -4.25 21.85 -4.25 21.9 -4.3 21.95 -4.35 22.0 -4.35 22.1 -4.4 22.15 -4.4 22.3 -4.45 22.35 -4.45 22.4 -4.4 22.45 -4.4 22.55 -4.45 22.6 -4.45 22.65 -4.5 22.7 -4.5 22.75 -4.55 22.8 -4.55 22.85 -4.6 22.9 -4.6 22.95 -4.65 23.0 -4.65 23.15 -4.7 23.15 -4.7 23.2 -4.75 23.25 -4.75 23.35 -4.8 23.4 -4.85 23.4 -4.9 23.45 -4.95 23.5 -5.0 23.5 -5.05 23.55 -5.15 23.55 -5.25 23.5 -5.35 23.5 -5.45 23.4 -5.45 23.25 -5.5 23.2 -5.5 23.15 -5.55 23.15 -5.55 23.05 -5.6 23.05 -5.55 23.0 -5.6 22.95 -5.6 22.8 -5.55 22.75 -5.55 22.6 -5.5 22.55 -5.5 22.5 -5.45 22.45 -5.45 22.35 -5.4 22.35 -5.4 22.3 -5.4 22.25 -5.35 22.25 -5.35 22.15 -5.3 22.1 -5.3 22.05 -5.25 22.0 -5.25 21.9 -5.2 21.85 -5.2 21.7 -5.15 21.65 -5.15 21.6 -5.1 21.55 -5.05 21.5 -5.05 21.4 -5.0 21.35 -5.0 21.25 -4.95 21.2 -4.95 21.1 -4.9 21.05 -4.9 21.0 -4.85 20.95 -4.85 20.85 -4.8 20.8 -4.8 20.65 -4.75 20.65 -4.75 20.6 -4.7 20.55 -4.7 20.4 -4.65 20.35 -4.65 20.25 -4.6 20.2 -4.55 20.15 -4.5 20.15 -4.45 20.1 -4.3 20.1 -4.3 20.05 -4.25 20.0 -4.2 19.95 -4.15 19.9 -4.15 19.8 -4.1 19.75 -4.1 19.65 -4.05 19.6 -4.05 19.5 -4.0 19.5 -4.0 19.4 -3.95 19.35 -3.95 19.3 -3.9 19.3 -3.9 19.25 -3.85 19.2 -3.85 19.15 -3.8 19.1 -3.7 19.0 -3.6 18.95 -3.5 18.9 -3.45 18.9 -3.3 18.9 -3.25 18.9 -3.15 18.95 -3.05 18.95 -2.95 19.0 -2.9 19.05 -2.8 19.1 -2.75 19.1 -2.7 19.15 -2.65 19.2 -2.65 19.25 -2.6 19.3 -2.55 19.35 -2.5 19.4 -2.5 19.75 -2.55 19.8 M0.6 20.55 L0.65 20.4 0.6 20.4 0.6 20.55" fill="#ce0000" fill-rule="evenodd" stroke="none"/>
  </g>
</svg>
