<?xml version="1.0" encoding="UTF-8" standalone="no"?>
<svg xmlns:ffdec="https://www.free-decompiler.com/flash" xmlns:xlink="http://www.w3.org/1999/xlink" ffdec:objectType="shape" height="13.8px" width="16.75px" xmlns="http://www.w3.org/2000/svg">
  <g transform="matrix(1.0, 0.0, 0.0, 1.0, 7.65, -1.4)">
    <path d="M5.35 1.9 L5.5 1.9 5.7 1.95 5.9 2.0 6.05 2.1 6.2 2.2 6.25 2.3 6.35 2.35 6.45 2.45 6.55 2.5 7.65 3.25 8.25 4.0 8.75 4.75 8.8 4.85 8.8 4.95 8.85 5.0 8.95 5.1 8.95 5.2 9.05 5.3 9.05 5.6 9.1 5.95 9.05 6.25 8.95 6.6 8.9 6.8 8.75 7.1 8.45 7.5 8.0 7.8 7.75 7.9 7.6 8.0 5.15 8.25 4.7 8.0 3.95 7.75 3.25 7.35 2.95 7.2 2.85 7.1 2.8 7.0 2.7 6.9 2.6 6.8 2.45 6.6 2.4 6.5 2.35 6.45 2.35 6.35 2.3 6.25 2.2 6.15 2.15 6.05 2.1 5.95 2.1 5.85 2.05 5.75 2.05 5.7 2.0 5.6 2.0 5.4 2.0 5.3 2.0 5.1 2.05 4.95 2.05 4.75 2.1 4.65 2.1 4.55 2.1 4.45 2.1 4.35 2.15 4.25 2.2 4.2 2.25 4.1 2.35 4.0 2.4 3.9 2.45 3.8 2.45 3.7 2.55 3.6 2.6 3.5 2.6 3.45 2.65 3.35 2.85 3.05 3.15 2.7 3.55 2.3 3.75 2.2 4.1 2.15 4.75 2.1 4.95 2.0 5.15 1.95 5.35 1.9 M2.4 12.0 L2.6 12.0 2.8 11.95 3.0 11.9 3.45 11.9 3.6 11.65 3.8 11.4 3.95 11.2 4.1 11.1 4.25 11.05 4.4 11.0 4.6 11.0 4.75 11.05 5.0 11.1 5.15 11.2 5.25 11.3 5.35 11.35 5.45 11.55 5.55 11.65 5.55 11.75 5.55 11.85 5.6 11.95 5.6 12.1 5.6 12.2 5.55 12.3 5.55 12.4 5.5 12.5 5.55 12.55 5.55 12.65 5.55 12.75 5.6 12.85 5.6 12.95 5.6 13.0 5.55 13.1 5.55 13.2 5.5 13.3 5.45 13.4 5.35 13.5 5.3 13.6 5.2 13.7 5.05 13.75 4.95 13.85 4.75 13.9 4.6 14.0 4.5 14.05 4.2 14.15 3.85 14.35 3.0 14.75 2.2 15.1 Q1.2 15.3 0.15 15.1 L-0.2 15.0 -0.35 14.95 -0.55 14.9 -0.75 14.8 -0.85 14.7 -0.9 14.65 -1.1 14.6 -1.5 14.45 -1.6 14.35 -1.7 14.25 -4.05 13.4 -4.65 13.15 -5.1 12.95 -5.15 12.9 -5.2 12.85 -5.4 12.8 -5.6 12.7 -5.7 12.6 -5.8 12.5 -5.85 12.45 -5.9 12.35 -5.95 12.25 -5.95 12.15 -6.0 12.05 -6.0 11.95 -6.0 11.85 -6.0 11.75 -6.0 11.7 -6.0 11.6 -5.95 11.5 -5.95 11.4 -5.9 11.3 -5.85 11.2 -5.8 11.1 -5.7 11.0 -5.6 10.95 -5.4 10.85 -5.2 10.75 -5.0 10.75 -4.8 10.8 -4.6 10.85 -4.45 10.95 -4.3 11.0 -4.05 11.15 -3.85 11.25 -3.7 11.35 -3.55 11.45 -3.4 11.5 -2.3 12.0 -1.3 12.35 -1.0 12.45 0.1 12.45 0.9 12.4 1.25 12.3 1.4 12.3 1.9 12.15 2.25 12.05 2.4 12.0 M-1.55 2.05 L-1.45 2.15 -1.45 2.25 -1.45 2.35 -1.35 2.35 -1.1 2.55 -0.9 2.7 -0.75 3.0 -0.65 3.2 -0.6 3.25 -0.55 3.35 -0.55 3.45 -0.5 3.55 -0.5 3.65 -0.5 3.75 -0.45 3.85 -0.45 3.95 -0.4 4.0 -0.4 4.1 -0.4 4.2 -0.4 4.3 -0.4 4.4 -0.4 4.6 -0.4 4.75 -0.45 4.85 -0.45 4.95 -0.5 5.05 -0.75 5.45 -1.1 6.1 -1.55 6.7 -1.6 6.8 -1.65 6.9 -1.65 6.95 -1.7 7.0 -1.75 7.1 -1.5 7.3 -1.4 7.35 -1.3 7.45 -1.2 7.65 -1.2 7.85 -1.15 7.95 -1.15 8.1 -1.2 8.4 -1.2 8.5 -1.3 8.7 -1.35 8.75 -1.5 8.95 -1.75 9.15 Q-3.35 9.4 -4.75 8.7 L-5.65 8.2 -5.8 8.0 -5.95 7.9 -6.1 7.8 -6.25 7.7 -6.35 7.6 -6.45 7.5 -6.5 7.45 -6.55 7.35 -6.65 7.25 -6.65 7.15 -6.7 7.05 -6.7 6.95 -6.75 6.85 -6.9 6.8 -7.1 6.7 -7.2 6.6 -7.3 6.5 -7.4 6.45 -7.55 6.25 -7.6 6.15 -7.65 5.85 -7.65 5.4 -7.65 4.75 -7.65 4.45 -7.65 4.35 -7.6 4.25 -7.55 4.2 -7.4 4.0 -7.2 3.8 -7.25 3.8 -7.35 3.7 -7.45 3.6 -7.5 3.5 -7.55 3.45 -7.6 3.35 -7.65 3.25 -7.65 3.15 -7.65 3.05 -7.65 2.95 -7.65 2.85 -7.65 2.75 -7.65 2.7 -7.6 2.6 -7.4 2.3 -6.8 1.95 -6.35 1.75 -6.15 1.75 -5.9 1.75 -5.8 1.65 -5.45 1.5 -5.2 1.45 -5.0 1.4 -3.0 1.45 -2.0 1.6 -1.85 1.7 -1.75 1.8 -1.65 1.85 -1.55 1.95 -1.55 2.05" fill="#ff0300" fill-rule="evenodd" stroke="none"/>
  </g>
</svg>
