<?xml version="1.0" encoding="UTF-8" standalone="no"?>
<svg xmlns:ffdec="https://www.free-decompiler.com/flash" xmlns:xlink="http://www.w3.org/1999/xlink" ffdec:objectType="shape" height="240.95px" width="192.3px" xmlns="http://www.w3.org/2000/svg">
  <g transform="matrix(1.0, 0.0, 0.0, 1.0, 91.3, 138.1)">
    <path d="M36.5 1.7 L37.05 1.75 37.6 1.75 37.95 1.5 43.05 1.85 Q45.6 2.4 47.6 1.15 L50.45 1.6 50.95 1.6 51.1 1.75 51.5 2.05 52.2 2.2 57.05 2.05 57.3 1.85 Q59.0 2.25 60.6 2.95 L60.3 1.45 Q60.0 -0.25 59.85 -2.05 L59.35 -6.2 Q59.0 -8.45 58.25 -10.6 57.75 -12.0 57.85 -13.55 55.1 -18.25 50.7 -21.6 41.35 -28.8 33.55 -18.8 28.1 -11.8 27.85 -3.0 27.75 0.45 26.85 3.25 L27.55 3.05 31.7 2.2 31.85 2.5 33.0 2.85 34.05 2.7 35.2 1.75 35.75 1.2 35.8 1.2 35.95 1.35 36.3 1.6 36.45 1.65 36.4 1.7 36.5 1.7 M29.5 -19.7 Q34.75 -26.85 43.05 -29.15 49.8 -29.1 54.55 -24.4 59.1 -19.9 61.35 -14.05 63.55 -8.25 64.75 -2.15 65.7 2.6 63.65 6.35 L62.95 6.4 62.7 6.4 62.45 6.6 Q59.4 7.55 55.8 6.6 41.3 2.75 26.7 6.45 L25.45 6.3 25.0 6.95 24.1 6.65 23.6 6.35 23.35 6.05 Q22.95 3.45 23.05 0.8 23.2 -3.8 24.2 -8.25 25.7 -14.5 29.5 -19.7 M32.2 -0.55 L32.0 0.0 32.05 -1.6 32.2 -0.55 M34.7 31.5 L35.6 31.55 36.45 31.75 37.0 31.95 Q37.4 32.05 37.75 32.3 L38.45 32.9 38.85 33.55 Q34.75 40.7 27.95 45.9 19.55 52.35 9.3 55.8 -3.15 59.95 -15.8 56.7 -17.25 56.3 -18.2 55.2 L-18.4 54.85 -18.5 54.5 -18.55 54.15 -18.55 53.85 -18.25 52.8 -17.9 52.35 Q-18.4 51.8 -18.55 51.05 L-18.5 50.7 -18.45 50.35 -18.3 50.0 -18.05 49.7 -17.6 49.4 -16.7 49.15 -16.7 49.1 Q-15.4 49.05 -14.35 49.8 L-12.05 50.75 -9.95 51.35 -9.7 51.45 Q3.45 50.3 15.4 45.05 23.1 41.7 29.0 35.85 31.75 33.1 34.7 31.5 M-50.0 -22.7 Q-45.2 -28.95 -38.0 -31.45 -30.35 -31.6 -22.9 -29.95 -14.5 -28.05 -12.15 -19.6 -10.0 -12.05 -9.05 -4.25 -8.45 0.95 -9.8 5.45 L-8.95 5.9 -8.85 6.25 -8.85 6.6 -8.95 6.95 -9.05 7.3 -9.3 7.65 -9.55 7.95 -9.95 8.35 -10.2 8.55 -15.35 8.9 -26.85 6.6 -33.85 5.5 Q-43.35 4.75 -51.4 6.85 L-51.5 6.65 Q-51.8 6.9 -52.35 6.95 L-53.25 6.65 -53.7 6.35 -53.95 6.05 -54.45 4.7 Q-55.1 2.65 -55.2 0.45 -55.45 -5.2 -54.85 -10.65 -54.15 -17.3 -50.0 -22.7 M-28.15 -27.95 Q-41.8 -29.6 -47.9 -17.2 -52.85 -7.15 -51.5 4.1 L-50.7 3.4 -50.0 3.0 -49.35 2.65 -48.15 2.15 -47.0 1.75 -45.85 1.4 -45.4 1.3 -45.45 0.9 -43.0 1.5 -41.85 1.75 -41.3 1.75 -40.9 1.5 -40.4 1.3 -40.0 1.4 -35.35 2.2 Q-34.45 2.85 -33.1 2.9 L-25.05 3.15 -24.45 3.45 -23.65 3.7 -22.55 3.75 -19.75 3.1 -19.65 3.7 -17.25 3.8 -12.8 4.4 -12.9 -1.15 Q-12.8 -14.5 -21.15 -24.35 -23.75 -27.45 -28.15 -27.95" fill="#000000" fill-rule="evenodd" stroke="none"/>
    <path d="M36.45 1.65 L36.3 1.6 35.95 1.35 35.8 1.2 35.75 1.2 35.2 1.75 34.05 2.7 33.0 2.85 31.85 2.5 31.7 2.2 27.55 3.05 26.85 3.25 Q27.75 0.45 27.85 -3.0 28.1 -11.8 33.55 -18.8 41.35 -28.8 50.7 -21.6 55.1 -18.25 57.85 -13.55 57.75 -12.0 58.25 -10.6 59.0 -8.45 59.35 -6.2 L59.85 -2.05 Q60.0 -0.25 60.3 1.45 L60.6 2.95 Q59.0 2.25 57.3 1.85 L57.05 2.05 52.2 2.2 51.5 2.05 51.1 1.75 50.95 1.6 50.45 1.6 47.6 1.15 Q45.6 2.4 43.05 1.85 L37.95 1.5 37.6 1.75 37.05 1.75 36.5 1.7 36.45 1.65 M32.2 -0.55 L32.05 -1.6 32.0 0.0 32.2 -0.55 M-28.15 -27.95 Q-23.75 -27.45 -21.15 -24.35 -12.8 -14.5 -12.9 -1.15 L-12.8 4.4 -17.25 3.8 -19.65 3.7 -19.75 3.1 -22.55 3.75 -23.65 3.7 -24.45 3.45 -25.05 3.15 -33.1 2.9 Q-34.45 2.85 -35.35 2.2 L-40.0 1.4 -40.4 1.3 -40.9 1.5 -41.3 1.75 -41.85 1.75 -43.0 1.5 -45.45 0.9 -45.4 1.3 -45.85 1.4 -47.0 1.75 -48.15 2.15 -49.35 2.65 -50.0 3.0 -50.7 3.4 -51.5 4.1 Q-52.85 -7.15 -47.9 -17.2 -41.8 -29.6 -28.15 -27.95" fill="#66ffff" fill-rule="evenodd" stroke="none"/>
    <path d="M40.5 -91.2 L48.5 -90.2 Q50.9 -89.0 53.5 -87.4 63.5 -81.3 70.35 -72.8 73.55 -68.85 75.4 -65.1 81.3 -58.25 87.45 -49.6 L89.1 -47.3 Q92.65 -45.4 96.55 -38.25 99.25 -33.35 101.0 -28.5 101.0 -25.9 99.8 -24.0 97.9 -21.0 93.5 -21.0 93.3 -21.0 77.85 -32.1 L62.25 -43.25 55.25 -38.6 Q48.4 -34.0 46.0 -34.0 45.4 -34.0 40.75 -36.25 L36.0 -38.5 29.5 -36.75 23.0 -35.0 Q16.25 -35.0 13.6 -40.45 L10.0 -40.0 Q9.7 -40.0 -1.65 -54.6 -13.0 -69.2 -13.0 -69.5 -13.0 -72.4 -11.6 -77.6 -14.1 -73.0 -16.0 -73.0 -18.75 -73.0 -21.0 -74.9 L-21.0 -74.25 Q-21.0 -63.65 -32.5 -54.75 -46.35 -44.0 -69.5 -44.0 L-71.45 -44.1 Q-76.85 -40.0 -83.5 -40.0 -89.75 -40.0 -91.0 -46.75 -91.6 -50.2 -91.0 -54.25 L-90.85 -62.55 Q-90.45 -65.35 -88.7 -66.25 L-88.55 -66.3 -89.25 -67.4 -89.9 -69.6 -89.35 -69.65 Q-87.85 -70.2 -86.9 -71.4 L-85.5 -72.95 -84.95 -73.6 -84.7 -74.25 -84.25 -75.0 -82.9 -76.4 -82.4 -77.05 -82.2 -77.35 Q-77.2 -76.9 -72.25 -78.25 L-71.15 -79.0 Q-69.65 -80.2 -68.6 -81.75 L-67.85 -83.1 -67.15 -83.8 -66.7 -84.5 -66.2 -85.2 -64.6 -86.4 -60.5 -87.0 -51.35 -87.5 -52.3 -89.6 Q-54.3 -94.4 -55.0 -99.5 -55.0 -104.15 -47.2 -113.75 L-46.15 -115.0 -46.0 -117.6 Q-46.0 -122.85 -38.8 -127.9 -32.35 -132.45 -23.0 -135.0 L-18.75 -135.95 Q-12.0 -138.5 -4.0 -138.05 10.5 -137.2 20.05 -126.75 31.0 -114.75 31.0 -94.1 31.0 -92.7 30.55 -91.4 32.45 -93.65 36.65 -93.6 L38.35 -93.5 38.4 -93.3 38.9 -92.6 39.6 -91.9 40.5 -91.2 M-32.7 -82.2 L-30.05 -81.9 Q-27.05 -81.4 -25.0 -80.35 -26.6 -83.45 -28.25 -87.75 -31.55 -84.35 -33.4 -82.9 L-32.7 -82.2 M-54.0 72.0 Q-48.35 74.8 -43.5 75.25 L-41.55 75.6 Q-41.0 75.9 -41.0 77.0 L-58.1 90.05 Q-75.2 102.85 -75.5 102.85 -79.25 102.85 -80.5 100.5 -81.0 99.55 -81.0 97.85 -81.0 97.05 -77.5 87.5 -73.2 75.75 -71.5 70.25 -69.35 63.4 -66.3 59.8 -63.4 56.45 -60.55 56.8 -57.65 57.1 -55.9 60.95 -54.0 65.05 -54.0 72.0" fill="#00b3ff" fill-rule="evenodd" stroke="none"/>
  </g>
</svg>
