<?xml version="1.0" encoding="UTF-8" standalone="no"?>
<svg xmlns:ffdec="https://www.free-decompiler.com/flash" xmlns:xlink="http://www.w3.org/1999/xlink" ffdec:objectType="shape" height="89.7px" width="170.0px" xmlns="http://www.w3.org/2000/svg">
  <g transform="matrix(1.0, 0.0, 0.0, 1.0, 82.0, 116.7)">
    <path d="M22.5 -99.2 Q16.85 -97.0 4.0 -97.0 -3.15 -97.0 -6.2 -101.2 L-7.1 -102.7 Q-7.6 -99.45 -10.25 -98.2 -12.8 -97.0 -19.5 -97.0 L-22.05 -97.05 Q-23.65 -96.0 -24.5 -96.0 -29.55 -96.0 -31.75 -101.25 -33.0 -104.25 -33.0 -107.25 -33.0 -112.85 -29.7 -115.2 -26.9 -117.25 -22.5 -116.5 -18.45 -115.85 -15.3 -113.4 -13.95 -112.35 -13.15 -111.3 L-10.9 -109.8 -8.0 -106.95 Q-7.85 -111.35 -4.75 -113.2 -1.85 -115.0 4.5 -115.0 14.85 -115.0 21.0 -113.0 28.0 -110.75 28.0 -106.25 28.0 -101.4 22.5 -99.2 M50.0 -88.25 Q50.0 -84.8 48.45 -83.1 47.75 -82.4 45.0 -80.95 40.0 -78.3 40.0 -70.25 40.0 -69.0 41.0 -65.15 42.0 -61.35 42.0 -60.1 42.0 -54.6 34.75 -47.25 26.6 -39.0 17.5 -39.0 6.75 -39.0 2.5 -44.75 0.0 -48.15 0.0 -53.35 0.0 -58.5 3.25 -60.7 5.25 -62.05 10.4 -62.9 15.65 -63.8 17.5 -64.95 20.75 -66.95 20.75 -71.75 L18.4 -78.5 Q16.0 -85.15 16.0 -86.0 16.0 -91.25 19.5 -92.05 21.7 -92.5 28.0 -92.0 29.05 -92.0 33.15 -94.3 L33.4 -94.4 34.0 -93.95 37.75 -93.05 39.8 -92.85 49.7 -92.4 50.0 -88.25 M79.5 -66.1 Q83.0 -64.75 85.35 -60.9 88.0 -56.5 88.0 -50.5 88.0 -39.85 86.0 -35.5 82.1 -27.0 69.5 -27.0 60.3 -27.0 57.5 -28.5 55.0 -29.8 55.0 -34.1 55.0 -35.5 57.5 -38.55 L63.0 -44.75 Q71.0 -53.85 71.0 -59.25 71.0 -63.85 73.65 -65.7 76.1 -67.45 79.5 -66.1 M-49.85 -108.5 Q-47.1 -110.4 -43.0 -109.75 -39.0 -109.1 -36.1 -106.45 -33.0 -103.6 -33.0 -99.75 -33.0 -97.7 -35.0 -95.25 -37.65 -92.0 -42.0 -92.0 -49.25 -92.0 -51.75 -96.0 -53.0 -98.0 -53.0 -101.6 -53.0 -106.3 -49.85 -108.5 M-80.1 -64.0 Q-82.0 -67.75 -82.0 -69.0 -82.0 -78.2 -76.85 -78.55 -72.5 -78.85 -65.5 -73.1 -59.3 -68.0 -54.15 -61.0 -49.0 -54.05 -49.0 -50.75 -49.0 -49.0 -50.25 -47.05 -52.2 -44.0 -56.0 -44.0 -65.85 -44.0 -74.75 -55.5 -77.85 -59.5 -80.1 -64.0" fill="#8adcff" fill-rule="evenodd" stroke="none"/>
  </g>
</svg>
