<?xml version="1.0" encoding="UTF-8" standalone="no"?>
<svg xmlns:ffdec="https://www.free-decompiler.com/flash" xmlns:xlink="http://www.w3.org/1999/xlink" ffdec:objectType="shape" height="23.45px" width="216.8px" xmlns="http://www.w3.org/2000/svg">
  <g transform="matrix(1.0, 0.0, 0.0, 1.0, 67.5, 11.95)">
    <path d="M0.2 -8.5 L1.0 -9.0 1.25 -9.05 1.9 -9.2 9.8 -9.05 Q12.55 -8.95 15.05 -8.0 16.45 -7.45 17.3 -6.15 L17.35 -5.95 17.4 -5.8 17.45 -5.6 17.55 -5.4 17.6 -5.2 17.6 -5.05 17.6 -4.65 17.6 -4.45 17.6 -4.3 17.6 -3.9 17.6 -3.7 17.6 -3.55 17.6 -3.35 17.55 -3.15 17.45 -3.0 17.4 -2.8 17.35 -2.6 17.25 -2.4 16.8 -1.85 16.6 -1.65 15.7 -0.95 Q13.8 0.2 11.45 -0.1 L11.4 0.05 11.35 0.25 11.3 0.45 11.25 0.65 11.2 0.8 11.2 1.0 11.2 1.4 11.2 1.55 11.2 1.75 11.2 2.15 11.2 2.3 11.1 2.5 11.05 2.7 11.0 2.85 10.95 3.05 10.95 3.25 10.95 3.45 10.95 3.6 10.95 3.8 10.85 4.0 10.8 4.2 10.8 4.25 10.9 4.3 11.25 4.4 12.35 5.05 12.55 5.15 12.85 5.45 12.9 5.65 13.0 5.8 13.1 6.1 13.15 6.25 13.15 6.4 13.9 7.05 14.05 7.25 14.1 7.4 14.2 7.6 14.3 7.8 14.35 8.0 14.35 8.15 14.4 8.55 14.4 8.75 14.4 8.9 14.4 9.1 14.35 9.3 14.3 9.45 14.25 9.65 14.15 9.85 14.05 10.05 13.6 10.6 13.4 10.75 12.6 11.15 12.3 11.2 11.95 11.3 10.75 11.15 9.5 11.0 2.4 10.65 2.1 10.85 1.1 11.2 0.75 11.3 0.05 11.1 -0.7 10.8 -0.95 10.65 Q-2.25 10.1 -3.5 9.5 L-4.0 9.25 -4.1 9.25 Q-6.5 11.85 -10.45 10.8 -11.4 10.55 -12.15 9.9 L-13.15 9.55 -13.7 9.0 -13.95 8.6 -14.0 8.4 -14.1 8.25 -14.15 8.05 -14.2 7.85 -14.2 7.65 -14.2 7.5 -14.2 7.45 -14.45 7.65 Q-14.75 8.15 -15.3 8.4 L-15.9 8.8 -17.7 8.85 -18.35 8.75 -18.75 8.4 -19.1 8.1 -19.6 7.65 -19.7 7.5 -19.75 7.35 -19.8 7.2 -19.85 7.05 -19.9 6.75 -20.0 6.6 -20.15 6.45 -20.3 6.3 -20.45 6.3 -20.45 6.45 -20.45 6.6 -20.5 6.75 -20.55 6.9 -20.6 7.05 -20.7 7.2 -20.8 7.35 -20.95 7.5 -20.95 7.65 -20.95 7.85 -20.95 8.05 -20.95 8.25 -21.0 8.6 -21.05 8.8 -21.15 8.95 -21.25 9.15 -21.3 9.35 -21.45 9.55 -22.05 10.1 -23.05 10.5 -23.4 10.55 Q-24.2 10.45 -24.8 10.05 L-25.75 9.15 -27.75 9.2 -28.65 9.3 Q-32.95 10.55 -36.85 8.85 L-37.9 8.55 -38.15 8.35 -38.3 8.2 -38.45 8.05 -38.75 7.6 -38.75 7.45 -38.8 7.2 -38.85 7.25 -38.95 7.4 -39.05 7.6 -39.2 7.8 -39.35 8.0 -39.55 8.15 -39.65 8.35 -39.75 8.55 -39.85 8.75 Q-42.5 11.85 -46.8 11.0 -49.2 10.5 -50.45 8.35 L-51.9 6.65 -53.6 4.25 -54.65 6.35 Q-56.2 8.9 -58.5 8.9 L-59.1 8.85 -62.05 9.3 Q-65.05 9.3 -65.85 6.9 -66.25 5.7 -66.05 4.45 -66.2 3.05 -65.8 1.9 -64.95 -0.3 -61.95 0.55 -62.1 0.35 -63.3 -0.5 L-64.7 -1.9 -65.15 -3.0 -65.3 -3.1 -67.15 -4.95 -67.3 -5.15 -67.35 -5.35 -67.5 -6.1 -67.5 -6.65 -67.5 -7.2 -67.5 -7.6 -67.4 -7.75 -67.3 -8.15 -67.1 -8.7 -67.0 -9.1 -66.85 -9.25 -65.5 -10.75 Q-64.55 -11.6 -63.35 -11.85 L-63.0 -11.95 -57.1 -11.8 Q-55.15 -11.7 -53.6 -10.5 L-53.25 -10.3 -52.8 -9.95 -52.7 -9.85 -52.45 -9.95 -51.55 -10.2 -50.5 -9.9 Q-50.05 -9.75 -49.75 -9.4 L-49.55 -9.2 -49.45 -9.0 -49.35 -8.85 -49.25 -8.65 -49.2 -8.45 -49.05 -7.7 -49.05 -6.95 -48.65 -6.9 -48.0 -6.8 -47.6 -6.5 -47.3 -6.2 -47.05 -5.9 -46.95 -5.7 -46.75 -5.4 -46.75 -5.1 -46.7 -4.8 -46.7 -4.5 -46.7 -4.35 -46.7 -3.9 -46.7 -3.6 -46.65 -3.45 -46.6 -3.3 -46.55 -3.15 -46.5 -3.0 -46.5 -1.9 -46.5 -0.4 -46.5 1.75 -46.5 2.5 -46.45 2.65 -46.4 2.8 -46.35 2.95 -45.95 2.75 -44.9 2.0 -44.5 1.65 -44.45 1.45 -44.4 1.25 -44.35 1.05 -44.25 0.9 -44.2 0.7 -44.2 0.5 -44.25 0.3 -44.35 0.15 -44.4 -0.05 -44.65 -0.45 -44.8 -0.8 -44.95 -1.15 -45.1 -1.55 -45.1 -2.3 -45.1 -3.25 -45.1 -4.55 -45.0 -4.7 -44.95 -4.9 -44.9 -5.1 -44.85 -5.3 -44.45 -5.8 -44.25 -6.0 -44.35 -6.15 -44.5 -6.3 -44.55 -6.45 -44.65 -6.6 -44.65 -6.75 -44.7 -6.9 -44.7 -7.05 -44.7 -7.2 -44.65 -7.35 -44.65 -7.5 -44.55 -7.65 -44.5 -7.8 -44.35 -7.95 -44.2 -8.1 -44.05 -8.25 -43.8 -8.45 -43.45 -8.55 -43.15 -8.55 -43.15 -8.6 -40.1 -8.5 -38.85 -8.2 -38.25 -8.55 Q-36.95 -9.05 -35.5 -9.15 L-35.1 -9.2 Q-32.25 -9.85 -29.9 -8.35 -27.65 -6.85 -25.8 -4.85 L-25.4 -4.45 -25.3 -4.3 -25.2 -4.1 -25.1 -3.9 -25.05 -3.7 -25.0 -3.65 -25.0 -3.7 -24.95 -4.1 -24.9 -4.45 -24.9 -4.85 -24.9 -5.4 -24.85 -5.6 -24.8 -5.8 -24.75 -5.95 -24.75 -6.35 -24.75 -6.7 -24.75 -7.1 -24.75 -7.65 -24.65 -7.85 -24.6 -8.0 -24.55 -8.2 -24.5 -8.4 Q-23.5 -9.85 -21.75 -9.7 -19.9 -9.55 -19.0 -8.0 L-18.7 -7.75 -17.15 -6.1 -16.9 -5.5 -16.65 -5.2 -16.5 -4.9 -16.3 -4.6 -16.15 -4.45 -16.1 -4.55 -16.0 -4.7 -15.9 -4.9 -15.8 -5.3 -15.7 -5.65 -15.5 -6.2 -15.25 -6.75 -15.2 -6.95 -15.2 -7.15 -15.15 -7.35 -15.1 -7.5 -15.0 -7.7 -14.95 -7.9 -14.2 -8.85 Q-13.55 -9.55 -12.65 -9.8 L-11.95 -9.95 Q-10.9 -9.85 -10.1 -9.15 L-9.3 -8.1 -8.55 -8.85 Q-7.8 -9.4 -6.9 -9.55 L-6.25 -9.7 Q-4.15 -10.15 -2.45 -9.15 L-0.4 -7.65 -0.4 -7.75 0.05 -8.35 0.2 -8.5 M1.3 -1.3 L1.25 4.35 2.1 5.35 2.1 5.5 2.15 5.7 2.15 5.85 2.15 6.1 2.2 5.95 2.6 5.3 2.75 5.15 3.3 4.75 3.6 4.65 3.95 4.35 4.25 4.05 4.4 3.9 4.5 3.75 4.55 3.6 4.65 3.45 4.75 3.3 4.8 2.65 4.8 2.5 4.8 2.05 4.8 1.9 4.8 1.45 4.8 1.3 4.75 1.15 4.65 1.0 4.6 0.7 4.6 0.4 4.6 0.25 4.6 0.1 4.6 -0.1 4.55 -0.25 4.5 -0.4 4.45 -0.55 4.4 -0.7 4.4 -1.15 4.4 -1.3 4.4 -1.45 4.4 -1.9 4.4 -2.05 4.4 -2.35 1.3 -2.4 1.3 -1.3 M19.05 -9.8 L19.5 -10.6 20.7 -11.3 21.4 -11.45 22.0 -11.35 22.1 -11.4 23.15 -11.7 26.3 -11.05 27.9 -10.2 28.75 -9.45 28.8 -9.65 28.85 -9.8 Q29.35 -10.8 30.45 -10.9 L34.85 -11.45 37.05 -11.4 Q38.25 -11.15 39.15 -10.4 L39.2 -10.35 39.4 -10.5 40.8 -10.9 40.8 -10.95 42.4 -10.8 44.1 -10.45 44.35 -10.3 45.9 -10.1 Q47.0 -9.9 47.7 -9.0 L48.35 -9.45 Q50.0 -10.35 51.7 -10.7 L57.65 -10.2 Q60.6 -9.45 62.6 -7.1 L62.95 -6.7 63.1 -6.5 63.15 -6.35 63.2 -6.25 63.2 -6.95 63.2 -7.35 63.3 -7.5 63.35 -7.7 63.4 -7.9 63.45 -8.1 63.85 -8.6 Q64.3 -9.15 65.05 -9.3 L65.7 -9.45 66.25 -9.35 Q66.65 -9.6 67.1 -9.65 L67.45 -9.7 69.3 -9.6 Q70.15 -9.55 70.75 -8.9 L70.95 -8.7 71.05 -8.5 71.15 -8.35 71.25 -8.15 71.3 -8.05 71.4 -8.2 71.7 -8.55 71.95 -8.75 73.0 -9.15 73.35 -9.2 75.3 -9.2 79.65 -8.9 Q80.85 -8.85 81.65 -7.95 L81.75 -7.75 81.85 -7.6 81.95 -7.4 82.0 -7.2 82.05 -7.0 82.1 -6.85 82.1 -6.65 82.1 -6.6 82.2 -6.8 82.4 -7.4 82.5 -7.6 82.7 -7.8 82.85 -7.95 83.0 -8.15 83.1 -8.3 83.65 -9.05 Q84.35 -9.7 85.3 -9.65 L85.3 -9.7 Q87.15 -9.9 88.85 -9.2 90.65 -8.45 92.0 -7.15 L93.15 -8.35 Q94.2 -9.05 95.4 -9.25 L96.35 -9.45 Q99.5 -10.0 102.5 -9.45 105.65 -8.9 108.2 -7.05 L108.4 -6.85 108.5 -6.95 Q109.25 -7.55 110.15 -7.8 L110.4 -7.95 111.05 -8.25 111.3 -8.3 112.15 -8.55 112.45 -8.7 112.7 -8.7 113.0 -8.75 113.0 -8.8 Q114.75 -9.1 116.35 -8.8 L118.8 -8.4 120.05 -8.05 120.25 -7.9 120.75 -7.45 120.9 -7.3 121.2 -7.0 121.3 -6.85 121.35 -6.7 121.5 -6.4 121.6 -6.25 121.65 -6.1 121.7 -5.95 121.7 -5.8 121.7 -5.45 121.7 -5.3 121.8 -5.2 122.1 -4.7 122.2 -4.55 122.35 -4.25 122.4 -4.2 122.45 -4.45 122.45 -4.85 122.45 -5.2 122.45 -5.4 122.2 -5.85 122.15 -6.05 122.1 -6.2 122.05 -6.4 121.95 -6.6 121.95 -6.75 121.95 -6.95 121.95 -7.15 121.95 -7.35 122.05 -7.5 122.1 -7.7 122.15 -7.9 122.2 -8.1 122.35 -8.25 122.8 -8.8 Q123.2 -9.2 123.8 -9.3 L124.45 -9.45 130.15 -9.25 Q133.1 -9.05 134.2 -6.4 L134.55 -5.5 135.1 -4.8 135.4 -4.3 135.45 -4.15 135.55 -3.85 135.65 -3.6 135.65 -4.35 Q135.65 -5.0 135.9 -5.65 L135.9 -5.85 135.9 -6.05 135.9 -6.2 135.9 -6.4 136.0 -6.6 136.05 -6.75 136.1 -6.95 136.15 -7.15 136.85 -7.9 137.7 -8.3 137.75 -8.3 138.2 -8.75 139.3 -9.1 139.65 -9.15 139.65 -9.2 143.35 -8.9 146.2 -8.55 Q147.15 -8.5 147.8 -7.7 L147.9 -7.5 148.0 -7.35 148.1 -7.15 148.15 -6.95 148.2 -6.75 148.25 -6.6 148.3 -6.4 148.3 -6.2 148.3 -6.05 148.3 -6.0 148.35 -5.9 148.4 -5.7 148.5 -5.35 148.55 -4.95 148.55 -4.4 148.55 -3.65 148.45 -3.3 148.25 -2.75 148.0 -2.0 148.55 -1.5 148.65 -1.3 148.75 -1.1 148.85 -0.9 148.9 -0.75 148.95 -0.55 149.0 -0.35 149.05 -0.15 149.05 0.0 149.05 0.2 149.0 0.4 148.95 0.55 148.9 0.75 148.85 0.95 148.75 1.15 148.65 1.3 148.55 1.5 147.6 2.2 147.35 2.3 147.35 2.5 147.3 2.7 147.25 2.85 147.2 3.05 147.1 3.25 147.1 3.3 147.15 3.3 148.8 4.5 148.9 4.7 149.0 4.85 149.1 5.05 149.15 5.25 149.25 5.8 149.3 6.55 149.3 7.65 149.3 8.05 149.25 8.25 149.15 8.4 149.1 8.6 149.05 8.8 Q147.65 10.6 145.15 10.55 L140.5 10.4 Q139.1 10.3 138.15 9.45 L137.9 9.45 136.7 9.05 133.35 8.8 131.7 8.45 130.85 8.1 130.85 8.3 130.8 8.5 130.75 8.65 130.65 8.85 130.55 9.05 130.45 9.2 130.25 9.4 Q127.85 12.85 123.7 10.6 122.55 9.95 121.9 8.8 L121.7 7.65 121.7 5.8 121.9 4.7 121.85 4.75 121.7 5.05 121.6 5.2 121.45 5.35 121.35 5.55 121.2 5.85 121.15 5.95 121.05 6.15 121.0 6.3 120.95 6.45 120.45 7.05 118.5 8.9 Q116.1 11.15 112.8 10.2 L111.55 9.75 111.3 9.6 110.9 9.15 110.8 9.0 Q109.3 8.4 108.15 7.4 L107.95 7.25 107.75 7.1 107.6 6.95 107.3 6.65 107.2 7.55 107.15 7.75 Q106.65 9.2 105.3 9.8 99.65 12.4 93.75 10.35 92.55 9.95 91.75 8.9 L91.45 8.35 91.3 8.15 91.15 8.0 91.05 7.8 90.65 8.1 89.9 8.4 Q88.9 9.3 87.55 9.5 L82.7 9.3 Q81.65 9.1 81.15 8.1 L81.1 7.9 81.05 7.8 80.95 7.8 80.85 7.9 80.75 8.1 80.7 8.3 80.65 8.5 80.6 8.65 Q79.15 10.6 76.65 10.0 L74.7 9.25 Q74.15 8.9 73.85 8.35 L73.85 8.3 73.5 8.15 73.25 8.0 73.1 7.85 72.95 7.7 72.75 7.4 72.7 7.25 72.65 7.1 72.65 6.95 72.65 6.8 72.65 6.65 72.65 6.5 72.65 6.35 72.7 6.2 72.75 6.05 72.8 5.9 72.9 5.75 73.0 5.55 73.1 5.4 73.15 5.25 73.2 5.1 73.3 4.95 73.4 4.8 73.5 4.65 73.55 4.5 73.6 4.35 73.65 4.2 73.7 3.9 73.85 3.6 73.85 3.45 73.85 3.3 73.85 3.15 73.8 2.8 73.85 2.4 73.7 2.4 71.5 2.25 71.25 2.1 71.1 1.95 70.95 1.9 70.3 1.85 70.2 1.9 69.65 2.0 69.2 2.0 69.2 2.75 69.3 2.95 69.3 3.1 69.35 3.25 69.35 3.4 69.35 3.7 69.35 4.0 69.45 4.15 70.4 4.85 71.65 6.15 71.7 6.3 71.75 6.45 71.8 6.6 71.8 6.75 71.8 6.9 71.8 7.05 71.8 7.2 71.8 7.35 71.75 7.5 71.7 7.65 71.65 7.8 71.55 7.95 71.45 8.1 71.3 8.25 71.1 8.4 70.9 8.55 69.5 8.75 Q66.85 9.9 63.8 8.45 L62.95 7.6 62.9 7.75 62.85 7.9 62.8 8.1 62.7 8.3 62.6 8.5 61.95 9.2 60.85 9.65 60.5 9.7 Q55.55 9.45 50.85 8.3 49.45 7.95 48.4 7.2 L48.3 7.25 48.1 7.4 47.9 7.55 47.7 7.6 46.7 8.05 43.1 8.35 Q41.95 9.1 40.55 9.0 39.95 8.95 39.5 8.7 L39.45 8.8 39.3 8.95 Q38.7 9.75 37.7 9.9 33.2 10.65 29.65 8.4 L29.35 8.1 29.3 7.9 29.25 7.75 29.15 7.55 29.1 7.35 29.1 7.15 29.1 7.0 29.1 6.8 29.1 6.6 29.15 6.4 29.25 6.25 29.3 6.05 29.35 5.85 29.5 5.65 29.65 5.45 29.65 5.35 29.65 5.05 29.7 4.9 29.75 4.75 29.8 4.6 29.9 4.45 30.05 4.3 30.2 4.15 30.6 3.9 30.85 3.85 31.2 3.75 31.25 3.6 31.25 3.15 31.25 2.35 31.25 1.65 29.9 1.65 29.85 1.7 29.75 1.9 29.65 2.05 29.55 2.25 28.85 3.05 27.85 3.9 27.9 3.95 28.0 4.1 28.1 4.25 28.15 4.4 28.2 4.55 28.35 4.7 28.5 4.85 28.6 5.0 28.7 5.3 28.85 5.8 29.0 6.25 29.0 6.4 29.0 6.55 29.0 6.7 29.0 7.0 29.0 7.3 28.95 7.45 28.9 7.6 28.85 7.75 28.8 7.9 28.7 8.05 28.55 8.2 28.35 8.35 28.15 8.55 20.35 8.15 20.1 8.0 19.95 7.85 19.9 7.8 Q18.9 7.55 18.4 6.6 L18.35 6.4 18.3 6.25 18.2 6.05 18.15 5.85 18.15 5.5 18.15 5.1 18.25 4.55 18.4 4.0 18.4 3.8 18.4 3.6 18.75 2.65 19.4 1.4 20.0 0.45 20.1 0.25 20.15 0.1 20.25 -0.1 20.35 -0.3 20.6 -0.65 20.65 -1.05 20.65 -1.4 20.65 -2.0 20.65 -2.75 20.6 -2.9 20.5 -3.1 20.45 -3.3 20.4 -3.45 20.4 -3.65 20.4 -3.85 20.4 -4.05 20.4 -4.2 20.4 -4.6 20.4 -4.8 20.25 -5.15 20.1 -5.3 Q19.75 -5.6 19.55 -6.05 L19.5 -6.2 19.5 -6.5 19.5 -6.95 19.5 -7.05 19.4 -7.2 19.3 -7.4 19.15 -7.6 19.1 -7.75 19.05 -7.95 18.95 -8.15 18.9 -8.35 18.9 -8.7 18.9 -8.9 18.9 -9.25 18.95 -9.65 19.05 -9.8 M29.4 -6.5 L29.6 -6.15 30.0 -5.6 30.1 -5.4 30.2 -5.2 30.35 -4.85 30.55 -4.45 30.65 -4.15 31.6 -4.15 31.55 -4.3 31.5 -4.45 31.45 -4.75 31.4 -4.9 31.35 -5.05 31.3 -5.2 31.2 -5.35 31.1 -5.5 31.0 -5.7 30.95 -5.85 30.9 -6.0 30.75 -6.3 30.7 -6.35 29.4 -6.55 29.4 -6.5 M25.6 -1.95 L25.6 -1.25 25.7 -1.3 25.75 -1.4 25.8 -1.6 25.8 -1.8 25.8 -1.85 25.6 -1.95 M38.5 -6.25 L37.2 -5.8 36.85 -5.7 36.65 -5.75 36.55 -5.7 36.55 -5.05 36.55 -3.55 36.55 -2.15 36.55 -2.0 36.45 -1.7 36.25 -1.1 35.95 0.0 35.9 0.45 35.8 0.6 35.75 0.75 35.7 0.9 35.5 1.2 35.35 1.5 35.35 1.65 35.35 1.8 35.35 1.95 35.4 2.1 35.5 2.25 35.5 2.4 35.5 2.55 35.55 2.7 35.55 2.85 35.6 3.0 35.65 3.0 35.95 3.15 36.5 3.6 38.05 4.85 38.05 4.8 38.05 4.6 38.15 4.45 38.25 4.05 38.45 3.5 38.55 3.1 38.7 2.95 38.8 2.75 38.9 2.55 38.95 2.4 39.0 2.2 39.15 2.0 39.25 1.8 39.35 1.65 39.55 1.25 39.65 1.05 39.7 0.9 39.75 0.7 39.9 0.5 40.0 0.3 40.05 0.15 40.2 -0.25 40.2 -0.65 40.2 -0.8 40.2 -1.25 40.2 -1.4 40.2 -1.55 40.15 -1.7 40.05 -1.85 40.0 -2.0 39.85 -2.15 39.75 -2.3 39.7 -2.45 39.65 -2.6 39.6 -2.75 39.5 -2.95 39.45 -3.55 39.45 -3.7 39.45 -4.0 39.45 -4.45 39.45 -5.05 39.6 -5.7 39.6 -5.8 39.55 -5.85 39.5 -6.05 39.45 -6.2 39.3 -6.4 39.05 -6.65 38.5 -6.25 M55.35 -2.25 L55.1 -2.1 54.95 -2.0 54.55 -1.9 54.4 -1.75 54.2 -1.6 54.0 -1.45 53.55 -1.25 53.45 -1.15 53.35 -1.0 53.25 -0.85 53.25 -0.7 53.25 -0.55 53.25 0.1 53.25 0.7 53.25 0.85 53.25 1.45 53.25 1.9 53.3 2.05 53.4 2.2 53.5 2.35 53.55 2.5 53.6 2.65 53.75 2.85 53.85 3.0 53.95 3.1 54.25 3.25 54.6 3.35 54.9 3.45 55.35 3.65 55.7 3.75 57.35 3.65 57.3 3.6 57.25 3.55 Q56.75 3.4 56.4 3.0 L56.15 2.55 56.05 2.35 56.0 2.2 55.9 1.9 55.9 1.75 55.9 1.6 55.9 1.3 55.9 1.15 55.9 1.0 55.9 0.85 55.95 0.7 56.0 0.55 56.05 0.4 56.15 0.25 56.3 0.1 56.65 -0.2 56.85 -0.35 57.1 -0.4 58.9 -0.3 59.15 -0.15 59.55 0.0 59.9 0.1 60.0 0.15 60.1 0.0 60.15 -0.05 59.6 -0.2 59.35 -0.35 59.05 -0.65 58.85 -0.95 58.8 -1.1 58.75 -1.25 58.75 -1.4 58.75 -1.7 58.75 -1.85 58.7 -2.0 58.55 -2.15 58.15 -2.4 58.1 -2.45 55.55 -2.4 55.35 -2.25 M62.8 -0.55 L63.15 -0.5 63.35 -0.35 63.55 -0.15 63.75 -0.05 63.8 0.15 63.9 0.3 63.95 0.45 64.0 0.6 64.05 0.75 64.05 1.05 64.05 1.95 64.05 2.4 64.1 2.2 64.15 2.0 64.2 1.8 64.2 1.45 64.2 1.05 64.2 0.7 64.2 0.15 64.1 -0.25 63.95 -0.6 63.85 -1.0 63.7 -1.35 63.7 -1.55 63.7 -1.75 63.7 -1.9 63.7 -2.1 63.65 -2.3 63.65 -2.05 63.65 -1.75 63.6 -1.6 63.55 -1.45 63.5 -1.3 63.35 -1.15 62.95 -0.7 62.8 -0.55 M69.3 -1.15 L69.55 -1.2 75.05 -1.35 75.05 -1.5 75.05 -1.65 75.05 -1.8 75.05 -2.1 75.05 -2.55 75.0 -2.7 74.95 -2.9 74.9 -3.05 74.85 -3.15 74.7 -3.35 74.6 -3.5 74.55 -3.65 74.45 -3.8 74.4 -3.9 74.3 -3.95 72.8 -4.25 72.45 -4.3 72.2 -4.45 72.1 -4.55 71.95 -4.6 71.9 -4.55 71.8 -4.4 71.75 -4.25 71.7 -4.1 71.65 -3.95 71.5 -3.65 71.4 -3.35 71.35 -3.2 71.35 -3.05 71.25 -2.85 70.5 -2.0 69.3 -1.15 M79.5 -2.3 L79.4 -2.15 79.4 -2.0 79.35 -1.55 79.35 -0.8 79.35 -0.2 79.4 -0.05 79.6 0.45 79.75 1.05 79.95 1.65 79.95 1.8 79.95 2.55 79.95 3.95 79.95 4.7 79.95 4.85 80.1 5.0 80.4 5.1 80.65 5.2 80.65 4.95 80.65 4.35 80.65 3.45 80.65 2.85 80.7 2.7 80.75 2.5 80.85 2.3 80.9 2.15 81.0 1.95 81.3 1.6 81.75 1.25 82.5 0.8 82.45 0.65 82.25 0.45 82.15 0.25 82.0 0.05 81.9 -0.1 81.85 -0.3 81.75 -0.5 81.7 -0.65 81.65 -0.85 81.65 -1.25 81.65 -2.35 81.65 -3.65 81.65 -4.55 80.85 -3.85 79.6 -2.45 79.5 -2.3 M88.9 -3.3 L88.5 -3.5 88.25 -3.45 87.9 -3.3 87.95 -3.15 88.1 -3.0 88.3 -2.85 88.55 -2.7 88.9 -2.6 89.7 -2.35 89.9 -2.2 90.7 -1.6 90.7 -2.05 90.85 -2.35 90.9 -2.7 90.75 -2.6 90.5 -2.55 90.2 -2.5 89.9 -2.6 89.55 -2.65 89.3 -2.85 89.15 -3.0 89.0 -3.15 88.9 -3.3 M98.1 -0.45 L98.1 -0.3 98.1 0.0 98.1 0.2 98.15 0.3 98.25 0.5 98.25 0.65 98.3 0.8 98.3 1.1 98.3 1.25 98.35 1.4 98.45 1.7 98.55 2.0 98.6 2.15 98.65 2.3 98.7 2.45 98.7 2.5 100.0 2.55 100.1 2.55 104.35 2.3 104.7 2.35 104.9 2.5 105.1 2.7 105.3 2.8 105.35 3.0 105.45 3.15 105.45 3.2 105.8 3.3 105.8 3.15 105.8 2.8 105.8 2.35 105.7 2.25 105.55 2.05 105.25 1.75 105.15 1.6 105.05 1.45 104.9 1.15 104.8 1.0 104.8 0.85 104.75 0.4 104.75 0.25 104.75 -0.4 104.75 -1.1 104.2 -1.2 103.95 -1.35 103.5 -1.65 103.2 -1.95 103.1 -2.1 102.95 -2.4 102.8 -2.7 102.7 -2.85 102.55 -3.05 102.45 -3.2 102.4 -3.35 102.25 -3.35 101.2 -3.05 100.7 -2.85 100.6 -2.8 100.35 -2.75 100.3 -2.75 100.25 -2.65 100.2 -2.5 100.05 -2.3 99.3 -1.6 98.15 -0.8 98.1 -0.7 98.1 -0.6 98.1 -0.45 M109.85 -3.35 L109.95 -3.5 110.0 -3.65 110.1 -3.8 110.25 -4.1 110.3 -4.25 110.4 -4.35 110.05 -4.1 108.95 -3.05 108.65 -2.7 108.6 -2.4 108.7 -2.1 108.8 -1.95 108.85 -1.05 108.85 -0.3 108.85 0.35 108.85 0.95 109.0 1.25 109.2 1.55 109.3 1.7 109.35 1.85 109.4 2.0 109.4 2.05 109.5 2.05 109.45 2.0 109.4 1.85 109.35 1.7 109.3 1.55 109.3 1.25 109.3 0.5 109.3 -0.6 109.3 -1.65 109.35 -1.8 109.4 -1.95 109.45 -2.1 109.5 -2.25 109.5 -2.4 109.5 -2.55 109.55 -2.75 109.6 -2.85 109.65 -3.05 109.75 -3.15 109.85 -3.35 M113.55 -2.8 L113.15 -2.65 113.1 -2.5 113.0 -2.35 112.85 -2.05 112.8 -1.9 112.7 -1.75 112.6 -1.6 112.55 -1.45 112.55 -1.3 112.5 -1.15 112.5 -1.0 112.4 -0.85 112.35 -0.7 112.35 -0.55 112.35 -0.4 112.35 -0.1 112.35 0.25 112.4 0.35 112.45 0.55 112.55 0.7 112.6 0.85 112.65 1.0 112.7 1.15 113.45 2.2 Q114.05 2.85 114.95 2.95 L115.65 2.85 115.8 2.7 115.9 2.55 116.0 2.4 116.05 2.25 116.2 2.1 116.35 1.95 116.45 1.8 116.5 1.65 116.55 1.5 116.6 1.35 116.6 1.2 116.6 1.05 116.6 0.9 116.6 0.75 116.55 0.6 116.5 0.45 116.45 0.3 116.35 0.15 116.2 -0.05 116.1 -0.2 116.05 -0.35 116.0 -0.5 115.9 -0.8 115.8 -1.1 115.6 -1.4 115.35 -1.85 115.2 -2.15 115.05 -2.3 114.95 -2.45 114.85 -2.6 114.5 -2.85 113.75 -2.9 113.55 -2.8 M117.8 -4.05 L118.2 -3.25 118.65 -2.3 118.65 -3.35 118.65 -3.8 117.8 -4.05 M128.15 -4.15 L128.2 -4.2 127.85 -4.2 127.9 -4.1 127.95 -3.95 128.0 -3.8 128.0 -3.7 128.05 -3.85 128.1 -4.0 128.15 -4.15 M128.25 -0.35 L128.2 -0.5 128.2 0.35 128.2 0.75 128.95 0.75 129.6 0.9 129.75 1.0 129.75 0.9 129.8 0.75 129.7 0.75 129.4 0.7 129.05 0.6 128.8 0.4 128.65 0.25 128.4 -0.05 128.25 -0.35 M140.65 2.5 L140.65 3.75 140.7 3.9 140.75 4.05 140.8 4.2 140.85 4.35 140.85 3.65 140.9 3.55 140.9 3.5 140.9 2.55 140.65 2.5 M135.55 1.65 L135.65 1.75 135.65 0.95 135.55 1.15 135.5 1.3 135.4 1.5 135.55 1.65 M-55.1 -1.75 L-55.05 -1.65 -55.05 -2.1 Q-55.4 -2.15 -55.7 -2.35 L-55.65 -2.3 -55.45 -2.1 -55.3 -1.9 -55.1 -1.75 M-49.75 -3.2 L-49.8 -3.05 -49.8 -2.85 -49.8 -2.65 -49.8 -2.5 -49.8 -2.3 -49.8 -2.1 -49.8 -1.9 -49.85 -1.75 -49.95 -1.55 -50.0 -1.35 -50.05 -1.15 -50.05 -1.0 -50.05 -0.8 -50.05 -0.6 -50.05 -0.4 -50.05 -0.25 -50.05 -0.05 -50.0 0.15 -49.9 0.35 -49.8 0.5 -49.65 0.7 -49.55 0.85 -49.55 -1.05 -49.55 -2.1 -49.6 -2.25 -49.65 -2.4 -49.7 -2.55 -49.75 -2.7 -49.75 -2.9 -49.75 -3.05 -49.75 -3.2 M-34.65 -4.05 L-34.6 -3.95 -34.5 -3.65 -34.5 -3.35 -34.5 -3.05 -34.5 -2.9 -34.45 -2.75 -34.35 -2.55 -34.3 0.8 -34.3 3.65 -34.0 3.7 -34.0 3.6 -33.9 3.3 -33.85 3.0 -33.85 2.8 -33.7 2.5 -33.55 2.2 -33.3 1.75 -33.25 1.6 -33.1 1.45 -33.0 1.3 -32.85 0.85 -32.85 0.25 -33.05 0.2 -33.6 -0.3 -33.85 -0.75 -33.9 -1.05 -33.9 -1.35 -33.85 -1.65 -33.65 -1.95 -33.7 -2.05 -33.9 -2.55 -34.2 -3.15 -34.25 -3.45 -34.25 -3.75 -34.25 -4.05 -34.65 -4.05 M-20.5 -0.85 L-20.45 -0.75 -20.4 -0.6 -20.3 -0.45 -20.15 -0.25 -20.05 -0.15 -19.95 0.0 -19.9 0.2 -19.85 0.35 -19.75 0.65 -19.65 0.8 -19.55 0.95 -19.25 1.7 -19.05 2.5 -19.05 2.6 -18.65 3.25 -18.25 3.85 -17.8 4.3 -17.55 4.75 -17.25 5.1 -16.95 5.5 -16.8 5.5 -16.6 5.35 -16.45 5.2 -16.2 4.75 -16.05 4.3 -16.0 4.15 -16.2 3.95 Q-16.95 3.75 -17.5 3.1 L-18.5 1.5 -18.65 1.3 -18.8 1.15 -18.95 0.95 -19.0 0.75 -19.3 0.4 -19.6 0.0 -19.9 -0.55 -20.05 -0.9 -20.15 -1.1 -20.3 -1.3 -20.35 -1.3 -20.45 -1.1 -20.5 -0.95 -20.5 -0.85 M-11.45 -1.2 L-11.45 -1.25 -11.55 -1.35 -11.6 -1.2 -11.55 -1.05 -11.35 -0.85 -11.35 -0.95 -11.4 -1.1 -11.45 -1.2 M-9.85 4.05 L-9.85 3.9 -9.85 3.75 -10.0 3.45 -10.15 3.15 -10.2 3.0 -10.4 2.05 -10.7 1.15 -10.75 1.0 -10.9 0.85 -11.05 0.55 -11.1 0.35 -11.1 0.4 -11.1 3.15 -11.05 5.1 -9.65 5.4 -9.65 5.25 -9.65 4.95 -9.65 4.65 -9.75 4.35 -9.85 4.05 M-28.4 3.35 L-28.4 3.2 -28.6 2.9 -28.6 3.55 -28.4 3.5 -28.4 3.35" fill="#666666" fill-rule="evenodd" stroke="none"/>
  </g>
</svg>
