<?xml version="1.0" encoding="UTF-8" standalone="no"?>
<svg xmlns:ffdec="https://www.free-decompiler.com/flash" xmlns:xlink="http://www.w3.org/1999/xlink" ffdec:objectType="shape" height="419.1px" width="558.9px" xmlns="http://www.w3.org/2000/svg">
  <g transform="matrix(1.0, 0.0, 0.0, 1.0, 279.45, 209.55)">
    <path d="M-259.8 -5.55 L-256.2 -5.75 -258.4 -6.1 -259.8 -5.55 M264.7 114.95 L265.7 113.85 265.45 113.65 264.7 114.95 M166.5 -207.65 L183.2 -205.9 194.0 -204.95 212.85 -204.4 Q222.6 -204.3 232.5 -204.35 L250.1 -204.6 Q259.25 -204.85 268.35 -204.45 L271.0 -204.2 Q275.15 -204.1 278.75 -202.1 279.65 -201.6 279.4 -200.45 L275.85 -198.35 274.95 -195.75 274.5 -193.5 Q273.6 -185.75 274.05 -178.3 L272.85 -177.65 271.5 -174.15 266.9 -174.7 266.55 -174.15 265.1 -173.3 263.55 -172.9 265.45 -172.8 263.8 -171.15 264.0 -170.65 263.25 -170.45 264.35 -169.3 Q267.15 -168.1 269.85 -166.4 L273.5 -163.7 Q274.3 -163.05 274.7 -162.2 276.25 -159.25 273.8 -156.65 272.3 -135.75 275.05 -114.85 276.25 -105.8 275.5 -96.75 L274.1 -83.15 Q272.5 -70.9 273.05 -58.7 273.4 -50.1 273.2 -41.6 272.75 -23.05 273.25 -4.4 273.85 16.4 271.9 37.1 271.0 46.75 270.45 56.4 270.3 59.0 270.65 61.4 271.1 64.4 271.95 67.05 272.3 68.2 272.25 69.3 274.45 70.35 274.25 72.7 L273.8 77.55 273.1 85.2 Q272.35 93.9 272.2 102.5 L272.05 102.8 273.25 103.5 273.25 105.55 269.25 111.05 270.05 111.95 269.25 112.95 269.05 114.45 272.75 115.4 272.85 118.2 272.4 118.8 272.35 136.75 Q272.15 151.8 271.4 166.9 271.2 170.8 271.7 174.65 L273.55 190.35 274.1 195.75 274.45 200.95 Q274.55 203.4 272.5 204.85 L273.3 205.5 272.65 207.0 267.05 207.7 255.55 207.35 243.1 206.75 221.4 205.35 211.9 205.9 Q210.8 205.2 209.45 205.15 207.7 204.8 205.9 205.15 L204.2 205.55 203.75 205.75 200.95 202.6 200.85 202.1 198.8 200.2 198.5 199.45 198.05 199.3 197.55 199.4 196.85 199.7 195.95 199.65 195.95 199.7 195.9 199.95 195.85 200.2 195.75 200.45 195.6 200.7 195.65 200.75 196.25 200.9 195.5 201.15 194.15 202.9 193.9 206.0 193.3 205.65 185.35 205.85 182.1 206.7 169.65 207.5 141.9 208.7 Q118.1 210.3 94.4 208.8 L85.2 207.2 Q76.45 205.2 67.2 204.65 L44.0 204.25 Q33.85 204.1 23.8 204.65 17.85 204.75 12.0 205.9 9.35 203.8 5.85 204.35 -1.35 205.75 -8.6 206.25 L-54.45 208.15 Q-60.35 208.25 -66.25 208.0 L-81.0 207.45 -93.1 207.15 -114.4 206.95 -138.55 205.85 Q-149.3 205.25 -160.05 205.85 -168.7 206.05 -177.4 205.7 L-187.7 205.2 -194.85 204.1 -199.35 203.35 Q-201.75 205.95 -205.15 206.05 L-209.7 205.9 -225.35 205.15 -241.65 204.5 -254.85 204.5 Q-258.95 204.6 -262.3 206.75 L-262.45 207.4 -268.8 207.1 Q-271.65 207.0 -274.45 206.1 -275.25 205.95 -275.8 205.4 -277.05 204.35 -276.9 203.65 L-276.55 202.05 -277.35 200.85 Q-278.2 199.4 -278.55 197.65 -279.7 192.1 -278.1 186.55 L-276.7 182.15 Q-275.35 178.35 -274.9 174.15 -274.6 171.3 -274.7 168.45 L-275.8 136.65 -276.15 123.65 Q-276.3 115.75 -276.1 107.8 L-275.05 65.65 Q-274.85 56.15 -275.25 46.7 -275.35 44.65 -276.65 43.25 -275.1 35.35 -275.55 27.4 L-275.6 24.15 Q-275.4 17.5 -275.5 10.95 -275.6 6.45 -276.4 1.9 L-277.35 -4.4 -275.7 -4.3 -275.4 -4.55 -275.1 -4.6 -274.65 -5.0 -274.25 -5.4 -271.65 -6.35 -271.75 -5.45 -265.2 -8.45 Q-269.95 -10.75 -273.5 -14.85 L-274.1 -15.6 -273.85 -16.25 Q-272.8 -19.6 -273.9 -22.95 -274.3 -24.1 -274.25 -25.25 -273.9 -30.45 -274.1 -35.55 -275.15 -59.05 -274.45 -82.45 -274.1 -94.85 -273.9 -107.3 L-273.55 -118.95 Q-273.4 -122.7 -274.9 -126.0 -275.65 -127.7 -277.5 -127.9 -277.25 -128.5 -277.25 -129.3 L-277.5 -150.95 -277.7 -177.35 Q-277.7 -181.45 -278.65 -185.3 L-279.45 -205.6 -279.05 -206.15 -276.15 -205.8 Q-275.45 -206.4 -274.45 -206.4 -268.25 -206.7 -262.6 -206.25 L-251.15 -205.75 -228.55 -204.75 -207.55 -203.35 -195.95 -203.35 -181.6 -203.35 -152.15 -203.35 -135.9 -203.85 Q-129.55 -203.85 -123.55 -205.7 L-120.2 -206.55 Q-105.15 -208.55 -89.95 -209.05 L-75.95 -209.5 -50.75 -208.6 -41.7 -208.45 -34.15 -207.55 -28.3 -206.7 -15.1 -205.45 Q-6.0 -205.05 2.9 -204.95 L21.8 -204.6 38.7 -203.5 Q51.7 -202.8 64.6 -204.2 L68.8 -204.9 Q74.45 -204.85 79.95 -204.95 L82.8 -205.3 Q83.85 -205.6 84.7 -206.35 L92.55 -206.55 111.3 -207.25 129.2 -207.75 147.35 -208.1 Q157.05 -208.25 166.5 -207.65" fill="#000000" fill-rule="evenodd" stroke="none"/>
  </g>
</svg>
