<?xml version="1.0" encoding="UTF-8" standalone="no"?>
<svg xmlns:ffdec="https://www.free-decompiler.com/flash" xmlns:xlink="http://www.w3.org/1999/xlink" ffdec:objectType="shape" height="48.15px" width="149.7px" xmlns="http://www.w3.org/2000/svg">
  <g transform="matrix(1.0, 0.0, 0.0, 1.0, 69.6, 26.35)">
    <path d="M-51.6 -25.65 L-47.65 -25.65 -38.6 -24.6 -24.35 -24.0 -15.05 -24.25 -11.75 -24.4 -8.5 -24.65 -1.25 -24.75 -0.25 -24.9 10.75 -24.9 11.75 -24.75 24.5 -24.75 30.15 -25.15 62.5 -25.15 71.85 -24.4 71.85 -24.15 71.85 -23.55 71.85 -20.65 71.85 -19.55 71.85 -18.35 71.85 -15.6 71.85 -12.1 71.85 -9.85 71.95 -9.2 72.15 -8.75 72.2 -8.15 72.3 -7.55 72.3 -6.95 72.3 -6.45 72.3 -5.25 72.3 -3.6 72.2 -2.95 72.15 -2.35 71.95 -1.9 71.95 -1.3 71.85 -0.7 71.85 -0.1 71.85 0.4 71.85 1.0 71.85 1.6 71.85 2.2 71.75 2.65 71.5 3.9 71.4 4.5 71.3 4.95 71.25 5.55 71.05 6.15 70.95 6.75 70.95 11.35 70.95 15.9 70.95 18.05 Q58.1 17.9 45.25 17.9 L25.55 17.75 25.55 17.9 24.9 17.9 24.25 18.2 Q24.1 18.2 23.8 18.35 21.3 18.05 18.85 18.95 18.7 18.95 18.4 19.1 L7.55 19.4 6.3 19.7 Q6.1 19.7 5.85 19.85 -0.4 19.85 -6.65 20.0 L-12.25 20.2 -13.5 20.5 -13.95 20.65 Q-18.75 19.55 -23.4 21.25 L-23.85 21.4 -66.45 21.4 -68.9 16.05 -66.75 -16.95 Q-66.75 -20.85 -67.5 -25.2 L-67.6 -25.75 -57.45 -25.7 -57.4 -25.45 -57.35 -25.3 -57.15 -25.15 -57.0 -25.0 -56.95 -24.85 -56.85 -24.7 -56.7 -24.55 -56.6 -24.2 -56.5 -24.05 -56.35 -23.9 -56.2 -23.8 -55.9 -23.65 -55.7 -23.65 -55.45 -23.75 -55.3 -23.9 -55.15 -24.05 -55.2 -24.2 -55.35 -24.5 -55.4 -24.6 -55.15 -24.65 -55.1 -24.75 -54.95 -25.0 -54.95 -24.55 -54.9 -24.35 -54.75 -24.25 -54.45 -24.15 -54.25 -24.15 -54.1 -24.3 -53.95 -24.45 -53.8 -24.6 -53.7 -24.75 -53.7 -24.9 -53.7 -25.0 -53.5 -25.2 -52.1 -25.15 -51.9 -25.15 -51.75 -25.25 -51.65 -25.4 -51.6 -25.55 -51.6 -25.65" fill="#565965" fill-rule="evenodd" stroke="none"/>
    <path d="M-51.6 -25.65 L-51.6 -25.55 -51.65 -25.4 -51.75 -25.25 -51.9 -25.15 -52.1 -25.15 -53.5 -25.2 -53.7 -25.0 -53.7 -24.9 -53.7 -24.75 -53.8 -24.6 -53.95 -24.45 -54.1 -24.3 -54.25 -24.15 -54.45 -24.15 -54.75 -24.25 -54.9 -24.35 -54.95 -24.55 -54.95 -25.0 -55.0 -25.15 -54.85 -25.9 -54.75 -26.0 -54.45 -26.1 -53.75 -26.35 -52.6 -26.35 -52.3 -26.25 -51.9 -26.0 -51.6 -25.7 -51.6 -25.65 M-55.4 -24.6 L-55.35 -24.5 -55.2 -24.2 -55.15 -24.05 -55.3 -23.9 -55.45 -23.75 -55.7 -23.65 -55.9 -23.65 -56.2 -23.8 -56.35 -23.9 -56.5 -24.05 -56.6 -24.2 -56.7 -24.55 -56.85 -24.7 -56.95 -24.85 -57.0 -25.0 -57.15 -25.15 -57.35 -25.3 -57.4 -25.45 -57.45 -25.7 -57.45 -25.75 -57.4 -26.1 -57.2 -26.2 -56.95 -26.3 -56.95 -26.35 -56.7 -26.2 -56.45 -26.1 -56.2 -25.75 -55.85 -25.3 -55.7 -25.15 -55.65 -25.0 -55.6 -24.85 -55.4 -24.6" fill="#000000" fill-rule="evenodd" stroke="none"/>
    <path d="M79.8 -21.2 L79.8 -21.55 79.9 -21.45 80.0 -21.35 80.1 -21.25 80.1 -21.15 80.1 -21.05 79.9 -21.15 79.8 -21.2" fill="#ecffff" fill-opacity="0.25882354" fill-rule="evenodd" stroke="none"/>
    <path d="M-67.8 -17.7 L-67.85 -17.7 -68.0 -17.8 -68.15 -17.9 -68.3 -18.0 -68.4 -18.1 -68.55 -18.2 -68.75 -18.3 -68.9 -18.35 -68.95 -18.4 -68.95 -21.25 -68.9 -21.3 -68.75 -21.4 -68.5 -21.5 -68.3 -21.55 -68.25 -21.6 -68.0 -21.6 -67.75 -21.65 -67.7 -21.65 -67.4 -21.65 -67.4 -21.7 -67.35 -21.65 -67.45 -21.5 -67.5 -21.3 -67.5 -20.95 -67.5 -20.75 -67.5 -20.55 -67.6 -20.35 -67.7 -20.2 -67.75 -20.0 -67.75 -19.05 -67.75 -18.3 -67.75 -17.95 -67.8 -17.75 -67.8 -17.7" fill="#ecffff" fill-opacity="0.101960786" fill-rule="evenodd" stroke="none"/>
    <path d="M71.8 12.9 L71.8 15.35 71.35 15.3 70.75 15.35 70.45 15.35 70.5 15.2 70.5 15.0 70.9 14.65 71.05 14.45 71.25 14.25 71.3 14.05 71.5 13.7 71.6 13.5 71.7 13.3 71.75 13.1 71.75 12.95 71.8 12.9" fill="#0a232c" fill-opacity="0.08627451" fill-rule="evenodd" stroke="none"/>
    <path d="M72.55 -20.45 L72.55 -18.8 72.45 -18.75 72.2 -18.65 71.95 -18.55 71.05 -18.35 70.5 -18.2 69.85 -18.0 69.5 -17.95 69.25 -17.95 69.0 -17.9 68.95 -17.85 67.95 -17.8 67.4 -17.8 66.8 -17.65 66.55 -17.55 66.4 -17.5 66.3 -17.4 66.25 -17.3 66.05 -17.2 66.05 -17.1 66.0 -17.0 66.0 -16.9 65.9 -16.8 65.9 -16.75 65.9 -16.65 65.9 -16.55 65.9 -16.45 65.9 -16.4 64.95 -16.45 64.7 -16.45 64.5 -16.5 64.45 -16.5 59.55 -16.7 59.2 -16.7 58.8 -16.8 58.7 -16.8 56.7 -16.85 56.6 -16.85 54.3 -16.95 53.1 -17.0 52.85 -17.0 52.1 -17.1 52.05 -17.1 47.95 -17.15 40.05 -17.2 39.85 -17.2 39.45 -17.15 36.1 -17.1 36.05 -17.0 35.85 -16.9 35.7 -16.8 35.45 -16.7 35.2 -16.65 34.7 -16.6 15.1 -16.65 14.25 -16.55 0.2 -16.7 -0.45 -16.75 -12.05 -16.95 -12.3 -16.95 -17.05 -17.05 -17.6 -17.1 -17.85 -17.15 -17.95 -17.15 -20.25 -17.2 -20.3 -17.15 -20.4 -17.05 -20.45 -16.95 -20.65 -16.85 -20.85 -16.75 -21.1 -16.65 -21.35 -16.55 -21.6 -16.5 Q-23.45 -16.3 -25.4 -16.45 L-29.1 -16.7 -29.35 -16.75 -29.4 -16.75 -33.45 -16.7 -40.5 -17.05 -40.55 -17.05 -42.25 -17.2 -42.5 -17.2 -49.2 -17.25 -49.45 -17.2 -49.7 -17.2 -50.5 -17.15 -50.6 -17.15 -51.1 -17.05 -51.35 -17.05 -55.4 -17.05 -55.65 -17.05 -57.5 -16.95 -57.6 -16.95 -58.0 -16.85 Q-58.45 -16.5 -59.0 -16.25 L-59.2 -16.05 -59.4 -15.9 -59.6 -15.7 -59.85 -15.5 -60.0 -15.3 -60.1 -15.1 -60.25 -14.95 -60.3 -14.75 -60.5 -14.2 -60.9 -13.25 -61.3 -12.7 -61.4 -12.5 -61.5 -12.3 -61.55 -12.15 -61.65 -11.95 -61.75 -11.75 -61.95 -11.55 -62.15 -11.4 -62.55 -11.0 -62.7 -10.85 -62.9 -10.8 -63.25 -10.75 -63.8 -10.85 -64.05 -11.05 -64.25 -11.25 -64.35 -11.45 -64.45 -11.65 -64.5 -12.0 -64.5 -12.5 -64.55 -12.55 -64.7 -12.7 -64.75 -12.75 -64.85 -12.95 -64.95 -13.1 -65.0 -13.9 -65.0 -15.0 -65.0 -15.75 -64.95 -15.95 -64.85 -16.1 -64.75 -16.3 -64.75 -16.5 -64.7 -16.7 -64.6 -16.85 -64.5 -17.05 -64.5 -17.25 -64.45 -17.45 -64.35 -17.6 -64.25 -17.8 -64.25 -18.0 -64.25 -18.2 -64.2 -18.35 -64.1 -18.55 -64.05 -18.75 -63.95 -19.1 -63.85 -19.3 -63.75 -19.5 -63.55 -19.7 -63.2 -20.05 -62.8 -20.35 -62.6 -20.45 -59.75 -20.95 -59.75 -21.0 -58.9 -21.0 -57.95 -21.55 -57.75 -21.75 -56.5 -22.3 -55.5 -22.5 -50.75 -22.45 -50.25 -22.35 -49.95 -22.15 -49.75 -22.0 -49.55 -21.8 -49.45 -21.6 -49.35 -21.5 -40.65 -21.4 -40.3 -21.35 -33.45 -21.3 -25.9 -21.25 -18.0 -21.2 -17.8 -21.25 -13.85 -21.25 -13.8 -21.3 -13.55 -21.35 -13.3 -21.35 -12.95 -21.4 -10.65 -21.35 -2.5 -21.25 -1.8 -21.2 -1.7 -21.2 -0.7 -21.15 -0.65 -21.25 -0.45 -21.3 -0.3 -21.4 0.0 -21.5 0.05 -21.5 0.35 -21.55 0.6 -21.6 0.9 -21.6 0.9 -21.65 10.15 -21.5 13.35 -21.35 13.4 -21.35 18.25 -21.25 21.1 -21.05 21.25 -21.05 21.4 -21.0 24.6 -20.9 25.15 -20.85 31.35 -20.75 31.95 -20.75 32.1 -20.7 32.25 -20.7 34.15 -20.6 34.4 -20.6 35.95 -20.4 36.1 -20.35 43.6 -20.25 43.7 -20.25 43.85 -20.25 44.45 -20.25 52.95 -20.2 57.4 -20.1 61.55 -20.05 61.9 -20.05 62.05 -20.1 64.05 -20.15 64.1 -20.2 64.5 -20.25 67.45 -20.3 67.95 -20.25 68.2 -20.3 68.5 -20.35 69.1 -20.35 69.15 -20.4 69.2 -20.4 69.4 -20.45 69.65 -20.45 70.0 -20.5 72.55 -20.45" fill="#666977" fill-rule="evenodd" stroke="none"/>
    <path d="M-67.7 -21.65 L-67.7 -24.0 -66.9 -24.0 -66.85 -24.1 -66.7 -24.3 -66.5 -24.5 -66.45 -24.7 -66.35 -24.85 -66.0 -25.25 -64.85 -25.95 -64.5 -25.95 -64.5 -26.0 -64.0 -25.85 -63.7 -25.65 -63.5 -25.5 -63.4 -25.3 -63.3 -25.1 -63.25 -24.95 -63.25 -24.75 -63.25 -24.55 -63.3 -24.35 -63.4 -24.2 -63.5 -24.0 -62.2 -24.0 -61.3 -24.6 -60.75 -24.75 -60.25 -24.6 -59.95 -24.4 -59.75 -24.25 -59.65 -24.05 -59.6 -23.95 -58.7 -23.95 -58.45 -24.05 -58.25 -24.25 -57.95 -24.45 -57.55 -24.6 -57.0 -24.7 -57.0 -24.75 -56.0 -24.7 -55.5 -24.6 -55.2 -24.4 -55.0 -24.25 -54.9 -24.05 -54.85 -23.95 -33.45 -23.8 -21.05 -23.7 -20.9 -23.75 -20.35 -23.8 -20.05 -23.85 -17.3 -23.85 -17.0 -23.85 -17.0 -23.9 -4.2 -23.75 -3.55 -23.7 4.1 -23.6 4.7 -23.6 5.0 -23.55 5.1 -23.55 9.5 -23.4 9.75 -23.4 11.9 -23.25 11.9 -23.35 12.05 -23.45 12.25 -23.55 12.45 -23.6 12.8 -23.7 13.15 -23.75 13.45 -23.8 13.7 -23.85 15.1 -23.75 15.75 -23.75 16.0 -23.7 20.5 -23.6 21.15 -23.5 21.4 -23.45 22.05 -23.35 22.9 -23.3 23.55 -23.25 23.9 -23.2 24.15 -23.2 24.45 -23.15 24.55 -23.15 28.1 -22.95 28.5 -22.9 29.05 -22.85 29.15 -22.85 32.9 -22.7 38.8 -22.6 39.35 -22.55 72.55 -22.2 72.55 -20.45 70.0 -20.5 69.65 -20.45 69.4 -20.45 69.2 -20.4 69.15 -20.4 68.25 -20.4 67.9 -20.35 67.6 -20.35 67.45 -20.3 64.5 -20.25 61.65 -20.1 61.55 -20.05 57.4 -20.1 52.95 -20.2 44.45 -20.25 43.85 -20.25 43.7 -20.25 43.6 -20.25 36.1 -20.35 35.95 -20.4 34.4 -20.6 34.15 -20.6 32.25 -20.7 32.1 -20.7 31.95 -20.75 31.35 -20.75 25.15 -20.85 24.6 -20.9 21.4 -21.0 21.25 -21.05 21.1 -21.05 18.25 -21.25 13.4 -21.35 13.35 -21.35 10.15 -21.5 0.9 -21.65 0.9 -21.6 0.6 -21.6 0.35 -21.55 0.05 -21.5 0.0 -21.5 -9.35 -21.6 -9.35 -21.55 -9.75 -21.55 -10.0 -21.5 -10.4 -21.45 -10.65 -21.35 -12.95 -21.4 -13.3 -21.35 -13.55 -21.35 -13.8 -21.3 -13.85 -21.25 -24.95 -21.4 -25.35 -21.35 -25.6 -21.35 -25.9 -21.3 -25.9 -21.25 -33.45 -21.3 -40.3 -21.35 -40.65 -21.4 -49.35 -21.5 -49.45 -21.6 -49.55 -21.8 -49.75 -22.0 -49.95 -22.15 -50.25 -22.35 -50.75 -22.45 -55.5 -22.5 -56.5 -22.3 -57.75 -21.75 -57.95 -21.55 -58.9 -21.0 -59.75 -21.0 -59.75 -20.95 -62.6 -20.45 -62.8 -20.35 -63.2 -20.05 -63.55 -19.7 -63.75 -19.5 -63.85 -19.3 -63.95 -19.1 -64.05 -18.75 -64.1 -18.55 -64.2 -18.35 -64.25 -18.2 -64.25 -18.0 -64.25 -17.8 -64.35 -17.6 -64.45 -17.45 -64.5 -17.25 -64.5 -17.05 -64.6 -16.85 -64.7 -16.7 -64.75 -16.5 -64.75 -16.3 -64.85 -16.1 -64.95 -15.95 -65.0 -15.75 -65.0 -15.0 -65.0 -13.9 -64.95 -13.1 -64.85 -12.95 -64.75 -12.75 -64.7 -12.7 -64.7 -12.5 -64.8 -11.35 -64.9 -11.2 -65.0 -10.8 -65.0 -10.25 -65.0 -9.85 -65.05 -9.7 -65.15 -9.5 -65.3 -9.1 -65.5 -8.75 -65.7 -8.6 -65.75 -8.55 -65.75 -7.85 -65.75 -7.3 -65.75 -7.1 -65.8 -6.95 -65.9 -6.75 -66.0 -6.55 -66.0 -5.8 -66.0 -3.95 -66.0 -3.0 Q-65.95 -2.4 -66.05 -1.85 L-66.2 -1.5 -66.25 -0.35 -66.25 0.75 -66.25 1.3 -66.3 1.5 -66.35 1.7 -66.45 1.9 -66.6 2.05 -66.8 2.25 -66.95 2.4 -67.15 2.45 -67.5 2.5 -68.05 2.4 -68.3 2.2 -68.5 2.0 -68.6 1.8 -68.8 -1.55 -68.75 -5.5 -68.75 -11.1 -68.75 -11.5 -68.7 -11.7 -68.6 -11.85 -68.5 -12.05 -68.5 -12.25 -68.5 -12.45 -68.5 -13.0 -68.45 -13.75 -68.3 -13.95 -68.25 -14.15 -68.25 -14.3 -68.25 -14.7 -68.2 -14.85 -68.1 -15.05 -68.0 -15.25 -68.0 -17.2 -67.95 -17.35 -67.85 -17.55 -67.8 -17.7 -67.8 -17.75 -67.75 -17.95 -67.75 -18.3 -67.75 -19.05 -67.75 -20.0 -67.7 -20.2 -67.6 -20.35 -67.5 -20.55 -67.5 -20.75 -67.5 -20.95 -67.5 -21.3 -67.45 -21.5 -67.35 -21.65 -67.4 -21.7 -67.4 -21.65 -67.7 -21.65" fill="#6d717e" fill-rule="evenodd" stroke="none"/>
    <path d="M71.8 8.7 L72.05 8.85 72.25 9.0 72.35 9.2 72.45 9.4 72.5 9.75 72.5 10.5 72.5 11.45 72.45 11.6 72.15 12.2 71.8 12.9 71.75 12.95 71.75 13.1 71.7 13.3 71.6 13.5 71.5 13.7 71.3 14.05 71.25 14.25 71.05 14.45 70.9 14.65 70.5 15.0 70.5 15.2 70.45 15.35 70.45 15.4 70.35 15.55 70.35 15.6 70.9 15.6 71.55 15.55 71.8 15.55 71.8 18.2 70.85 18.2 70.8 18.2 70.45 18.55 70.05 18.9 Q67.4 19.75 64.7 19.4 L64.45 19.2 64.25 19.0 64.15 18.8 64.05 18.65 64.0 18.45 64.0 18.2 63.85 18.2 63.6 18.25 62.5 18.3 51.8 18.45 50.85 18.45 50.6 18.45 45.9 18.55 44.05 18.6 39.4 18.7 39.1 18.7 37.3 18.8 37.1 18.8 34.1 19.0 33.45 19.0 32.6 19.05 32.55 19.05 30.7 19.2 22.8 19.25 14.85 19.2 14.5 19.2 9.55 19.2 9.45 19.4 9.35 19.55 9.25 19.75 Q8.6 20.55 7.65 20.55 -8.95 20.75 -25.5 21.5 -39.9 22.15 -54.2 21.35 L-58.6 21.15 -59.2 21.1 -64.75 20.95 Q-66.25 20.9 -67.0 19.65 L-67.05 19.45 -67.1 19.25 -67.2 19.05 -67.25 18.9 -67.25 18.7 -67.25 18.5 -67.25 18.3 -67.25 18.15 -67.2 17.95 -67.1 17.8 -67.15 17.8 -67.35 17.7 -67.45 17.6 -67.5 17.5 -67.6 17.45 -67.8 17.35 -68.0 17.25 -68.15 17.15 -68.35 17.1 -68.45 17.05 -68.7 16.85 -69.0 16.7 -69.15 16.6 -69.35 16.5 -67.25 16.55 -67.2 16.4 -67.1 16.25 -67.1 16.2 -67.0 16.0 -66.8 15.8 -66.55 15.65 -57.7 16.1 -54.85 16.1 -50.5 16.4 Q-35.15 17.3 -19.75 16.7 L-19.25 16.7 -8.6 16.35 -8.5 16.5 -8.3 16.7 -8.05 16.9 Q14.8 17.6 37.75 17.4 L41.5 17.4 63.15 16.2 63.4 16.05 63.75 16.0 63.95 16.1 64.5 16.25 64.75 16.25 65.15 16.2 65.3 16.15 65.85 15.6 66.1 15.25 66.2 15.05 66.4 14.9 67.15 14.15 67.5 13.75 67.55 13.6 Q68.2 13.35 68.65 12.9 L68.7 12.7 68.75 12.5 68.8 12.3 68.9 12.15 69.0 11.95 69.2 11.55 69.25 11.4 69.25 11.2 69.35 11.0 69.45 10.8 69.5 10.65 69.5 10.45 69.8 10.0 69.9 9.9 69.95 9.7 70.0 9.55 70.15 9.15 70.2 9.1 70.3 8.95 70.7 8.65 70.9 8.6 71.25 8.55 71.25 8.5 71.75 8.65 71.8 8.7" fill="#3c3e44" fill-rule="evenodd" stroke="none"/>
    <path d="M-67.1 16.25 L-67.35 16.25 -67.45 16.15 -67.45 12.2 -67.35 12.2 -67.0 12.25 -65.0 12.3 -56.8 12.3 -55.75 12.4 -49.15 12.45 -48.25 12.45 -26.6 12.55 -25.9 12.65 -16.3 12.65 -16.2 12.6 -15.7 12.55 -14.85 12.55 -14.5 12.55 -14.25 12.6 -13.95 12.65 -13.7 12.75 -13.45 12.85 -13.25 12.9 -13.05 13.0 -13.0 13.1 -12.9 13.15 -12.6 13.15 -12.45 13.1 -7.85 13.0 -7.55 12.95 -1.0 12.9 -0.9 12.85 -0.6 12.85 -0.35 12.8 0.0 12.8 0.0 12.75 8.75 12.8 9.65 12.9 9.95 13.0 10.2 13.1 10.4 13.15 10.55 13.25 10.75 13.35 10.85 13.45 10.85 13.5 28.45 13.2 31.5 13.05 Q34.65 12.7 37.75 13.05 L40.25 12.9 44.85 12.95 44.85 12.9 45.1 12.8 45.3 12.7 45.55 12.65 45.65 12.6 46.0 12.55 46.3 12.5 47.0 12.4 48.1 12.15 49.45 11.95 50.8 11.9 51.45 11.8 54.15 11.65 54.6 11.65 59.0 11.3 61.85 11.2 62.15 10.9 62.25 10.7 62.35 10.5 62.45 10.3 62.65 10.15 62.8 9.95 63.0 9.75 63.05 9.55 63.15 9.4 63.3 9.2 63.5 9.0 63.7 8.8 63.8 8.6 63.9 8.45 64.0 8.25 64.2 8.05 64.4 7.9 64.5 7.7 64.6 7.5 64.8 7.1 65.0 6.75 65.2 6.55 65.65 5.8 65.3 5.7 65.05 5.6 64.85 5.5 64.8 5.4 64.7 5.3 64.5 5.25 64.5 5.15 64.4 5.05 64.4 4.95 64.35 4.9 64.35 4.85 64.35 4.75 64.35 4.65 64.35 4.55 64.35 4.5 64.4 4.4 64.4 4.3 64.5 4.2 64.5 4.1 64.7 4.0 64.8 3.9 64.85 3.8 65.05 3.75 65.3 3.65 65.95 3.5 66.6 3.45 66.85 3.45 66.9 3.4 66.95 3.2 67.0 3.0 67.05 2.8 67.15 2.65 67.25 2.45 67.35 2.25 67.45 2.05 67.65 1.9 67.75 1.7 67.85 1.5 68.05 1.1 68.25 0.75 68.45 0.55 68.5 0.35 68.5 0.2 68.5 0.0 68.55 -0.2 68.65 -0.35 68.75 -0.55 68.75 -0.75 68.8 -0.95 68.9 -1.1 69.0 -1.3 69.0 -1.5 69.0 -1.7 69.05 -1.85 69.15 -2.05 69.2 -2.25 69.25 -2.45 69.25 -2.6 69.25 -2.8 69.25 -3.2 69.25 -3.75 69.25 -3.95 69.3 -4.1 69.4 -4.3 69.5 -4.5 69.65 -4.85 69.8 -5.05 69.95 -5.25 70.0 -5.45 70.05 -5.6 70.15 -5.8 70.25 -6.0 70.45 -6.2 70.7 -6.35 71.25 -6.45 71.25 -6.5 71.5 -6.5 72.0 -6.35 72.3 -6.15 72.5 -6.0 72.6 -5.8 72.7 -5.6 72.75 -5.45 72.75 -5.25 72.75 -4.85 72.75 -4.3 72.7 -4.1 72.6 -3.95 72.5 -3.75 72.5 -3.55 72.5 -3.35 72.45 -3.2 72.45 -3.15 72.45 -3.1 72.55 -2.2 72.5 -0.7 72.5 0.05 72.45 0.25 72.4 0.45 72.3 0.65 72.25 0.8 72.25 1.0 72.25 1.2 72.25 1.4 72.25 1.55 72.2 1.75 72.15 1.95 72.05 2.15 72.0 2.3 72.0 2.5 72.0 2.7 72.0 2.9 71.95 3.05 71.85 3.25 71.8 3.35 71.8 8.7 71.75 8.65 71.25 8.5 71.25 8.55 70.9 8.6 70.7 8.65 70.3 8.95 70.2 9.1 70.15 9.15 70.0 9.55 69.95 9.7 69.9 9.9 69.8 10.0 69.5 10.45 69.5 10.65 69.45 10.8 69.35 11.0 69.25 11.2 69.25 11.4 69.2 11.55 69.0 11.95 68.9 12.15 68.8 12.3 68.75 12.5 68.7 12.7 68.65 12.9 Q68.2 13.35 67.55 13.6 L67.5 13.75 67.15 14.15 66.4 14.9 66.2 15.05 66.1 15.25 65.85 15.6 65.3 16.15 65.15 16.2 64.75 16.25 64.5 16.25 63.95 16.1 63.75 16.0 63.4 16.05 63.15 16.2 41.5 17.4 37.75 17.4 Q14.8 17.6 -8.05 16.9 L-8.3 16.7 -8.5 16.5 -8.6 16.35 -19.25 16.7 -19.75 16.7 Q-35.15 17.3 -50.5 16.4 L-54.85 16.1 -57.7 16.1 -66.55 15.65 -66.8 15.8 -67.0 16.0 -67.1 16.2 -67.1 16.25" fill="#4b4e58" fill-rule="evenodd" stroke="none"/>
    <path d="M-57.35 -25.15 L-56.65 -25.15 -56.2 -24.9 -55.65 -24.45 -55.5 -24.25 -55.35 -24.15 -55.05 -24.1 -54.9 -24.25 -54.75 -24.4 -54.55 -24.6 -54.25 -24.7 -54.05 -24.65 -53.65 -24.4 -53.5 -24.25 -53.5 -24.1 -53.5 -23.95 -53.55 -23.8 -53.7 -23.65 -53.9 -23.45 -54.05 -23.35 -54.1 -23.2 -54.05 -22.85 -53.95 -22.55 -53.75 -22.4 -53.6 -22.25 -53.4 -22.1 -53.35 -21.95 -53.25 -21.65 -53.1 -21.3 -53.05 -21.15 -53.05 -21.0 -53.05 -20.85 -52.95 -20.7 -52.9 -20.55 -52.9 -20.4 -52.9 -20.25 -52.9 -20.05 -52.9 -19.9 -52.8 -19.75 -52.75 -19.6 -52.7 -19.45 -52.7 -19.15 -52.5 -18.65 -52.2 -17.85 -51.8 -17.3 -51.8 -17.1 -51.8 -16.95 -51.8 -16.8 -51.85 -16.65 -51.9 -16.5 -52.05 -16.35 -52.3 -16.25 -52.65 -16.35 -52.75 -16.5 -52.95 -16.8 -53.25 -17.1 -53.3 -17.3 -53.35 -17.4 -53.5 -17.6 -53.5 -17.75 -53.5 -17.9 -53.6 -18.05 -53.7 -18.2 -53.7 -18.35 -53.7 -18.5 -53.7 -18.7 -53.7 -18.85 -53.7 -19.0 -53.8 -19.15 -53.95 -19.3 -54.1 -19.45 -54.1 -19.6 -54.1 -19.75 -54.15 -19.9 -54.25 -20.1 -54.35 -20.2 -54.45 -20.4 -54.6 -20.5 -55.15 -20.85 -55.3 -21.0 -55.45 -21.15 -55.8 -21.3 -56.2 -21.5 -56.35 -21.7 -56.4 -21.85 -56.45 -22.0 -56.6 -22.15 -56.75 -22.3 -56.8 -22.45 -56.8 -22.75 -56.85 -23.25 -56.95 -23.55 -57.15 -23.65 -57.45 -23.75 -57.55 -23.9 -57.75 -24.2 -57.85 -24.7 -57.85 -24.85 -57.7 -25.0 -57.55 -25.05 -57.35 -25.1 -57.35 -25.15 M62.4 13.2 L62.5 13.5 62.4 14.0 62.1 14.3 61.7 14.6 61.45 15.05 60.95 15.65 56.9 15.5 56.65 15.8 56.55 15.95 56.4 16.15 56.35 16.25 56.3 16.3 55.7 16.7 55.6 16.85 55.55 17.0 55.5 17.15 55.35 17.3 55.25 17.45 55.1 17.75 54.9 17.9 54.65 18.05 54.4 18.2 54.25 18.35 54.1 18.5 54.0 18.65 53.85 18.75 53.5 19.05 53.45 19.15 53.2 19.3 52.4 19.6 52.3 19.6 52.15 19.7 52.05 19.75 51.75 19.85 51.55 20.0 51.4 20.15 51.15 20.25 Q50.65 20.35 50.3 19.95 L50.25 19.85 50.25 19.7 50.25 19.55 50.35 19.4 50.1 19.45 49.9 19.55 Q48.9 19.9 48.4 19.15 L48.4 19.0 48.45 18.85 48.55 18.7 Q49.05 18.4 49.6 18.45 L49.75 18.3 49.9 18.2 51.25 17.8 51.35 17.65 51.4 17.5 Q52.3 16.95 53.35 16.8 L53.85 16.3 54.1 16.0 55.1 15.65 55.2 15.65 55.85 14.7 55.85 14.55 55.85 14.4 56.15 13.8 56.35 13.45 56.05 13.15 56.05 13.0 56.2 12.75 56.55 12.55 57.35 12.55 57.6 12.65 58.0 13.0 58.1 13.1 58.1 13.25 58.1 13.4 58.0 13.55 57.85 13.75 57.8 13.75 57.75 13.85 57.4 14.0 57.3 14.15 57.25 14.3 59.1 14.2 59.65 14.4 60.05 14.6 60.35 14.55 60.7 14.05 61.0 13.7 61.1 13.65 61.35 13.5 61.45 13.35 61.55 13.25 61.95 13.0 62.0 12.95 62.2 13.1 62.4 13.2" fill="#000000" fill-rule="evenodd" stroke="none"/>
    <path d="M20.45 -23.95 L17.0 -24.15 -25.75 -24.15 -26.25 -24.0 -47.0 -23.9 -47.5 -23.75 -55.5 -23.75 -56.65 -24.15 -66.95 -24.25 -66.9 -23.7 -67.1 -23.7 -67.6 -3.7 -67.15 -1.4 -67.5 11.6 Q-67.3 12.85 -67.35 15.7 L-67.45 18.0 -67.15 18.45 -66.85 18.25 -65.95 18.25 -64.25 18.2 -64.1 18.2 -64.1 18.25 18.45 18.25 19.3 18.5 26.1 18.9 64.2 18.9 64.7 18.75 71.25 18.75 71.25 -1.25 70.75 -3.5 70.75 -16.5 Q70.5 -17.75 70.5 -20.6 L70.6 -23.75 67.4 -23.7 63.5 -23.5 24.75 -23.5 Q21.75 -24.5 20.45 -23.95 M-53.7 -26.05 L-53.65 -26.15 17.25 -26.15 17.75 -26.05 18.1 -25.9 24.9 -25.5 63.0 -25.5 63.5 -25.65 71.0 -25.65 Q71.9 -25.25 71.9 -24.65 L71.6 -24.1 71.75 -23.65 Q73.15 -19.4 72.65 -17.25 L72.65 -4.3 Q73.15 -1.3 73.15 8.55 L73.4 11.55 73.25 15.75 73.25 18.2 73.4 18.85 73.05 19.45 73.1 19.75 72.95 20.15 Q72.2 20.35 71.8 20.75 L71.8 20.65 68.6 20.7 64.7 20.9 25.95 20.9 Q22.95 19.9 21.65 20.45 L18.2 20.25 -24.55 20.25 -25.05 20.4 -45.8 20.5 -46.3 20.65 -54.3 20.65 -55.45 20.25 -67.85 20.15 -68.3 19.9 Q-69.25 19.7 -69.4 17.35 L-69.25 16.55 Q-69.8 13.8 -69.45 12.3 L-69.1 -0.65 Q-69.5 -3.7 -69.25 -13.55 L-69.45 -16.55 -69.15 -20.75 -69.1 -23.2 -69.25 -23.85 -69.15 -24.05 -69.35 -24.05 -69.25 -25.2 -69.25 -25.85 -68.9 -26.05 -68.65 -26.25 -68.65 -26.15 -65.95 -26.2 -65.45 -26.2 -64.1 -26.25 -64.1 -26.15 -57.2 -26.15 -57.15 -26.05 -57.15 -26.0 -57.15 -25.8 -56.65 -25.6 -56.55 -25.55 -56.4 -25.4 -56.0 -25.25 -55.95 -24.8 -55.45 -24.6 -55.15 -24.65 -55.1 -24.75 -54.95 -25.2 -54.95 -25.65 -53.85 -25.9 -53.7 -26.05 17.75 -26.05 -53.7 -26.05 M-57.15 -26.05 L-68.9 -26.05 -57.15 -26.05" fill="#000000" fill-rule="evenodd" stroke="none"/>
    <path d="M10.35 -15.85 Q12.75 -16.3 15.0 -15.8 16.3 -15.55 17.4 -14.8 L17.7 -14.5 18.15 -13.55 18.3 -12.95 18.35 -12.65 18.25 -12.35 18.0 -11.75 17.85 -11.4 17.8 -11.1 Q18.65 -9.65 19.75 -8.45 L20.5 -7.55 21.0 -8.5 Q21.4 -9.45 22.15 -10.05 L22.2 -10.35 21.95 -11.65 Q21.8 -12.4 22.0 -13.15 L22.15 -13.8 22.5 -14.1 22.8 -14.4 23.2 -14.7 23.85 -14.9 26.95 -15.9 28.15 -16.25 31.6 -15.85 Q32.95 -15.55 34.05 -14.7 L34.75 -13.8 Q35.45 -12.5 35.25 -11.0 35.05 -9.7 33.95 -8.9 L33.75 -8.85 30.85 -8.4 Q30.45 -7.7 29.85 -7.15 28.15 -5.5 27.1 -3.45 L26.5 -2.2 26.2 -1.9 24.9 -0.7 23.5 0.9 23.4 1.25 23.3 2.8 23.3 4.95 23.3 5.55 Q25.5 6.15 26.9 8.2 29.2 11.55 26.2 14.15 L25.9 14.35 25.5 14.5 21.75 14.85 21.15 14.7 21.0 14.55 Q17.95 14.7 14.95 13.8 13.7 13.4 12.95 12.3 12.65 11.25 12.8 10.15 13.05 8.25 14.65 7.05 L15.55 6.5 15.65 5.25 Q15.55 4.3 15.85 3.45 16.15 2.5 16.05 1.55 14.95 -1.7 12.85 -4.45 L8.85 -9.2 6.25 -9.75 5.85 -10.05 5.5 -10.35 5.2 -10.7 5.1 -11.0 Q4.85 -11.45 4.9 -11.9 L4.95 -12.55 5.1 -13.15 5.3 -13.45 5.35 -13.5 5.4 -13.7 5.5 -14.0 5.75 -14.3 6.0 -14.6 6.35 -14.9 6.65 -15.15 6.85 -15.2 7.25 -15.3 7.9 -15.4 7.9 -15.45 9.0 -15.45 9.35 -15.65 9.75 -15.7 10.35 -15.8 10.35 -15.85 M6.25 -0.55 L7.05 1.95 7.15 2.9 7.65 3.85 8.95 5.4 9.45 6.0 Q10.8 6.8 11.4 8.2 12.1 10.0 11.1 11.55 10.3 12.4 9.15 12.65 4.4 13.5 0.0 12.2 L-0.4 11.85 -1.05 11.3 -1.85 10.35 -2.05 9.7 -2.3 8.8 -2.65 7.55 -2.95 7.2 -3.2 6.9 -3.3 6.6 -3.35 6.3 -3.4 6.0 -3.5 5.65 -3.9 5.8 -4.45 6.0 -4.4 7.85 Q-4.25 10.05 -6.1 11.25 L-6.35 11.45 -6.6 11.9 -7.35 12.45 -8.45 13.15 Q-13.4 13.85 -18.2 12.6 L-18.6 12.3 -18.7 12.2 -26.9 12.7 Q-30.25 14.5 -34.35 13.35 L-34.95 13.2 -35.6 13.0 -36.0 12.7 -36.3 12.4 -36.6 12.1 -36.9 11.15 -36.95 10.85 -36.95 10.55 -36.85 9.6 -36.6 9.0 Q-35.95 8.15 -34.95 7.75 L-34.55 7.6 -31.95 7.1 -31.9 5.25 Q-31.6 1.1 -31.6 -3.1 L-31.55 -11.2 -33.4 -11.3 Q-33.3 -10.35 -33.7 -9.55 -35.8 -5.0 -39.5 -1.55 L-40.95 -0.25 Q-41.05 -0.15 -41.2 -0.15 L-45.4 0.3 -45.4 0.6 -45.05 1.55 -44.9 1.85 Q-44.5 2.55 -44.55 3.4 L-44.6 5.9 -44.55 6.0 Q-43.75 6.2 -43.05 6.75 L-42.7 7.0 Q-41.55 8.15 -41.65 9.8 -41.8 11.3 -43.05 12.2 L-43.25 12.25 -51.7 13.0 -57.55 12.6 -57.95 12.3 -58.25 12.0 -58.55 11.7 -58.7 11.35 -58.85 10.45 -58.85 10.15 -58.75 9.5 -58.65 9.2 -58.45 8.9 -58.15 8.6 -57.55 8.05 -57.3 7.95 -54.85 7.55 -54.95 7.25 -55.25 6.3 -55.35 6.0 Q-55.7 4.0 -55.65 1.95 L-55.55 -3.0 -55.7 -3.3 -55.95 -4.25 -55.95 -4.9 -55.95 -9.25 -55.95 -13.9 -56.05 -14.05 -57.95 -14.7 -58.35 -15.05 -58.65 -15.35 -59.0 -15.65 -59.1 -15.95 -59.3 -16.9 -59.25 -17.2 -59.15 -17.8 -59.1 -18.15 -58.85 -18.45 -58.55 -18.75 -57.95 -19.25 -57.75 -19.35 -57.3 -19.45 -56.7 -19.6 Q-51.5 -20.7 -46.65 -19.8 L-39.95 -18.8 Q-38.1 -18.6 -36.6 -17.5 L-36.45 -17.2 -35.9 -16.35 -35.8 -16.45 -35.3 -16.8 -34.55 -17.3 -34.15 -17.4 -33.5 -17.45 -33.5 -17.5 -32.1 -17.3 -31.05 -16.9 Q-26.1 -17.85 -21.75 -16.0 -19.65 -15.15 -19.4 -12.9 -18.95 -8.95 -23.5 -8.4 L-23.5 -7.15 -23.5 -6.85 -23.5 -5.0 -23.5 -3.45 -23.35 -3.1 -23.15 -2.5 -23.1 -2.2 -23.05 -1.9 -23.05 -1.25 -22.9 -0.95 -22.75 -0.65 -22.65 -0.3 -22.65 0.0 -22.65 0.3 -22.25 1.55 -22.2 1.8 Q-21.8 2.75 -21.8 3.7 L-21.8 5.45 -19.15 5.45 -18.75 4.9 -18.2 4.2 -17.9 3.9 -17.6 3.6 -16.15 3.2 -15.7 3.2 -15.1 3.35 -14.4 3.65 -13.95 2.15 -13.7 1.9 -13.05 0.95 -12.7 -0.35 -12.15 -0.9 Q-11.5 -1.6 -11.25 -2.5 L-10.95 -3.45 -10.65 -3.75 -10.35 -4.05 -10.0 -4.35 -10.0 -4.65 -9.8 -5.3 -9.3 -6.25 -9.2 -6.55 -9.2 -7.45 -8.9 -9.05 -8.35 -10.25 -8.2 -11.15 Q-7.65 -12.2 -7.25 -13.3 -7.0 -13.9 -7.0 -14.6 L-6.8 -14.9 -6.3 -15.55 -5.35 -16.35 -5.15 -16.45 -4.75 -16.55 -4.15 -16.65 -4.1 -16.7 -2.3 -16.45 -1.2 -16.05 Q1.0 -12.7 2.75 -9.0 4.45 -5.5 5.6 -1.8 L6.25 -0.55 M39.55 -16.6 L41.85 -17.05 41.85 -17.1 Q46.9 -16.85 51.4 -14.6 54.0 -13.35 56.45 -11.8 L56.7 -11.5 56.85 -11.2 57.25 -10.9 57.65 -10.6 57.95 -10.25 58.1 -9.95 58.3 -9.65 Q63.65 -6.9 65.1 -1.75 65.5 -0.4 64.2 0.45 L51.7 8.45 Q48.05 10.8 44.3 12.8 L41.25 13.05 Q39.3 12.45 37.9 10.85 37.35 6.85 37.45 2.8 L37.5 -9.35 Q37.45 -12.3 37.8 -15.25 L38.0 -15.55 38.3 -15.85 38.95 -16.35 39.55 -16.6 M47.3 -5.6 L47.3 -1.9 47.3 0.3 47.4 0.35 47.95 0.2 50.55 -2.25 51.05 -2.6 47.55 -5.65 47.3 -5.6 M42.75 -9.85 Q43.05 -10.7 43.8 -11.3 L42.75 -11.4 42.75 -9.85 M58.7 -2.3 L58.1 -2.85 58.1 -1.95 58.7 -2.3 M43.5 6.0 L43.1 5.65 42.75 5.35 42.75 7.55 Q43.8 7.15 44.85 6.35 L43.5 6.0" fill="#444651" fill-rule="evenodd" stroke="none"/>
  </g>
</svg>
