<?xml version="1.0" encoding="UTF-8" standalone="no"?>
<svg xmlns:ffdec="https://www.free-decompiler.com/flash" xmlns:xlink="http://www.w3.org/1999/xlink" ffdec:objectType="shape" height="24.45px" width="21.85px" xmlns="http://www.w3.org/2000/svg">
  <g transform="matrix(1.0, 0.0, 0.0, 1.0, 11.0, 12.25)">
    <path d="M-9.5 12.15 L-9.65 12.2 -9.85 12.15 -10.35 12.05 -10.5 11.95 -10.6 11.85 -10.65 11.6 -10.9 11.3 -10.9 11.25 -10.9 11.15 -10.9 10.95 -10.95 10.9 -10.95 10.8 -11.0 10.75 -11.0 9.2 -11.0 8.45 -11.0 8.25 -11.0 -11.3 -10.85 -11.5 -10.8 -11.6 -10.8 -11.85 -10.75 -11.95 Q-10.65 -11.95 -10.65 -12.0 L-10.5 -12.2 -10.35 -12.2 -10.2 -12.2 -10.2 -12.25 -9.95 -12.25 -9.9 -12.25 -9.75 -12.2 -9.65 -12.25 7.05 -3.35 9.8 -1.6 9.9 -1.6 10.0 -1.45 10.15 -1.35 9.3 -1.6 9.05 -1.8 Q7.7 -2.75 6.15 -3.4 L5.7 -3.75 4.1 -4.45 3.95 -4.45 3.85 -4.4 -1.0 -7.35 -2.85 -7.75 -2.95 -7.8 -3.05 -7.95 -3.7 -8.4 Q-4.85 -9.2 -6.2 -9.85 L-6.55 -10.15 -8.15 -11.0 -8.4 -11.2 Q-8.8 -11.35 -9.05 -11.65 L-9.15 -11.7 -9.5 -11.85 -9.75 -11.9 -10.2 -11.95 -10.2 -11.9 -10.5 -11.85 -10.6 -11.8 -10.75 -11.6 -10.8 -11.55 -10.8 -11.45 -10.8 -8.4 -10.75 -2.45 -10.8 -2.4 -10.85 -2.35 -10.9 -2.25 -10.9 -1.4 -10.9 -0.45 -10.85 -0.35 -10.85 -0.3 -10.8 -0.2 -10.65 1.25 Q-10.45 2.7 -10.55 4.15 L-10.6 4.3 -10.65 4.35 -10.65 4.45 -10.75 5.55 -10.8 7.05 -10.85 7.1 -10.9 7.2 -10.9 7.25 -10.9 8.55 -10.85 10.85 -10.8 10.95 -10.75 11.35 -10.65 11.45 -10.6 11.55 -10.5 11.6 -10.35 11.65 -10.3 11.8 -10.1 11.95 -9.85 11.95 -9.8 12.05 -9.5 12.15 M10.3 -1.15 L10.75 -0.8 10.85 -0.6 10.0 0.6 10.0 0.45 10.0 0.3 10.0 0.25 9.9 -0.05 9.85 -0.1 9.8 -0.2 10.1 -0.45 10.25 -0.6 10.3 -0.7 10.35 -0.75 10.35 -0.9 10.35 -0.95 10.3 -1.15 M5.7 3.3 L4.05 4.2 4.35 3.95 5.7 3.3 M3.35 4.65 L-0.85 7.15 0.8 6.05 0.9 6.0 0.95 5.9 1.35 5.65 Q1.45 5.5 1.6 5.45 2.35 5.3 2.95 4.75 L3.35 4.65 M-2.55 8.15 L-4.5 9.25 -3.75 8.75 -2.55 8.15 M-4.65 9.4 L-8.75 11.8 -8.9 11.85 -9.05 11.9 -8.9 11.7 -8.05 11.15 -6.15 10.1 -5.3 9.6 -4.65 9.4 M6.95 -1.25 L7.05 -1.35 7.15 -1.45 7.35 -1.4 7.35 -1.35 7.5 -1.15 7.4 -1.25 7.2 -1.3 7.05 -1.25 6.95 -1.25 M7.8 -0.65 L8.25 -0.55 8.4 -0.4 8.15 -0.3 7.85 -0.1 7.85 -0.2 7.85 -0.35 7.85 -0.4 7.85 -0.55 7.8 -0.6 7.8 -0.65 M5.6 -0.55 L5.6 -0.6 5.6 -0.65 6.55 0.0 7.05 0.3 7.2 0.35 6.25 1.0 3.35 2.3 Q1.95 2.95 0.7 3.95 -1.25 4.75 -2.85 6.05 L-2.95 6.05 -3.2 6.0 -3.4 6.0 -3.6 6.05 Q-3.85 6.4 -4.2 6.55 -6.5 7.75 -8.6 9.1 L-8.6 8.45 -8.6 7.7 -8.3 7.65 -8.15 7.55 -8.05 7.3 -8.05 7.35 -8.05 7.45 -8.05 7.5 -8.1 7.6 -7.6 7.7 -7.55 7.65 -7.3 7.55 -7.25 7.5 -6.8 7.25 -6.65 7.2 Q-5.8 6.5 -4.8 6.2 L-4.7 6.1 -3.35 5.5 2.4 2.2 Q2.7 1.85 3.15 1.75 L4.8 0.6 4.9 0.2 4.95 0.15 5.3 -0.05 5.5 -0.2 5.6 -0.35 5.6 -0.45 5.6 -0.55" fill="#ffcc00" fill-rule="evenodd" stroke="none"/>
    <path d="M-9.75 10.6 L-9.75 9.6 -9.75 7.9 -9.75 7.15 -9.65 7.05 -9.65 6.95 -9.6 6.85 -9.6 2.95 -9.6 -0.7 -9.6 -2.75 -9.6 -2.8 -9.55 -2.95 -9.5 -3.0 -9.45 -4.8 -9.4 -6.6 -9.4 -7.45 -9.4 -7.55 -9.3 -7.6 -9.25 -7.75 -9.25 -8.05 -9.25 -8.4 -9.25 -9.05 -9.2 -9.1 -9.15 -9.15 -9.1 -9.25 -8.95 -9.3 -8.85 -9.4 -8.65 -9.45 -7.4 -9.1 -6.85 -8.75 -6.4 -8.55 -6.05 -8.3 -5.3 -7.8 -4.1 -7.35 Q-3.5 -7.2 -3.05 -6.8 L-2.15 -6.2 0.0 -5.1 0.95 -4.7 1.05 -4.65 1.1 -4.5 3.95 -3.1 4.55 -2.75 Q5.7 -2.3 6.6 -1.5 L6.95 -1.25 7.05 -1.25 7.2 -1.3 7.4 -1.25 7.5 -1.15 7.55 -1.1 7.6 -1.05 7.75 -0.75 7.75 -0.7 7.8 -0.65 7.8 -0.6 7.85 -0.55 7.85 -0.4 7.85 -0.35 7.85 -0.2 7.85 -0.1 7.2 0.35 7.05 0.3 6.55 0.0 5.6 -0.65 5.6 -0.7 5.6 -0.85 5.55 -0.95 5.4 -1.05 5.25 -1.2 5.15 -1.2 5.1 -1.25 5.1 -1.35 4.75 -1.6 4.45 -1.75 4.25 -1.95 4.05 -2.05 4.0 -2.1 3.85 -2.35 1.95 -3.45 -1.95 -6.05 -2.4 -6.15 -2.45 -6.2 -2.5 -6.35 -3.6 -6.75 Q-5.5 -7.25 -7.2 -8.2 L-7.35 -8.35 -7.95 -8.55 -8.1 -8.5 -8.2 -8.45 -8.35 -8.35 -8.35 -8.25 -8.35 -8.15 -8.35 -8.05 -8.6 -7.8 -8.65 -7.4 -8.65 -7.05 -8.65 -7.0 -8.7 -6.85 -8.75 -6.8 -8.75 -5.75 -8.75 -3.75 -8.75 -3.7 -8.8 -3.6 -8.8 -3.5 -8.9 -3.5 -8.9 -3.1 -8.9 -2.8 -8.9 -2.75 -8.95 -2.65 -8.95 -2.6 -8.95 -1.35 -8.95 0.0 -8.95 1.25 -8.9 1.45 -8.9 1.65 -8.9 1.8 -8.95 1.85 -8.95 2.0 -8.95 2.75 -8.95 4.1 -8.9 4.45 -8.8 4.75 -8.8 4.9 -8.8 5.1 -8.8 5.15 -8.85 5.2 -8.85 5.9 -8.85 7.5 -8.6 7.7 -8.6 8.45 -8.6 9.1 -9.4 9.55 -9.4 9.65 -9.4 9.85 -9.4 9.9 -9.4 10.0 -9.65 10.45 -9.65 10.6 -9.75 10.6" fill="#ffd315" fill-rule="evenodd" stroke="none"/>
    <path d="M-9.5 12.15 L-9.8 12.05 -9.85 11.95 -10.1 11.95 -10.3 11.8 -10.35 11.65 -10.45 11.45 -10.45 11.3 -10.3 11.2 -9.85 10.6 -9.75 10.6 -9.65 10.6 -9.65 10.45 -9.4 10.0 -9.4 9.9 -9.4 9.85 -9.4 9.65 -9.4 9.55 -8.6 9.1 Q-6.5 7.75 -4.2 6.55 -3.85 6.4 -3.6 6.05 L-3.4 6.0 -3.2 6.0 -2.95 6.05 -2.85 6.05 Q-1.25 4.75 0.7 3.95 1.95 2.95 3.35 2.3 L6.25 1.0 7.2 0.35 7.85 -0.1 8.15 -0.3 8.4 -0.4 10.1 -0.45 9.8 -0.2 9.85 -0.1 9.9 -0.05 10.0 0.25 10.0 0.3 10.0 0.45 10.0 0.6 9.9 0.8 9.8 0.9 9.6 1.0 5.7 3.3 4.35 3.95 4.05 4.2 3.45 4.55 3.35 4.65 2.95 4.75 Q2.35 5.3 1.6 5.45 1.45 5.5 1.35 5.65 L0.95 5.9 0.9 6.0 0.8 6.05 -0.85 7.15 -2.4 8.05 -2.55 8.15 -3.75 8.75 -4.5 9.25 -4.55 9.3 -4.65 9.4 -5.3 9.6 -6.15 10.1 -8.05 11.15 -8.9 11.7 -9.05 11.9 -9.05 11.95 -9.25 12.05 -9.5 12.15 M4.05 -2.05 L3.9 -2.1 3.85 -2.15 3.85 -2.2 3.75 -2.3 3.65 -2.3 3.55 -2.35 3.5 -2.4 3.45 -2.45 3.2 -2.5 2.85 -2.6 2.8 -2.55 2.7 -2.65 2.05 -3.05 1.5 -3.3 Q0.45 -3.8 -0.55 -4.6 L-0.75 -4.65 -1.1 -4.8 -1.2 -4.85 -1.25 -4.95 -1.4 -5.05 -1.55 -5.1 -2.1 -5.5 -3.0 -6.05 -4.2 -6.5 -4.25 -6.55 -4.35 -6.65 -5.15 -6.85 -5.25 -6.9 -6.8 -7.65 -7.0 -7.75 -7.25 -7.7 -7.35 -7.6 -7.4 -7.5 -7.45 -7.45 -7.45 -7.4 -7.9 -6.95 -7.8 -6.75 -7.8 -6.65 -7.85 -6.5 -7.9 -5.85 -7.9 -4.65 -7.9 -3.05 -7.9 -1.95 -7.95 -1.9 -7.95 -1.75 -8.0 -1.7 -8.0 0.45 -8.0 1.6 -7.95 1.65 -7.9 1.75 -7.9 2.25 -7.95 4.05 -7.95 5.25 -8.0 5.2 -8.05 5.15 -8.15 5.1 -8.3 5.05 -8.3 5.1 -8.3 5.4 -8.3 5.5 -8.35 5.55 -8.35 6.3 -8.35 6.75 -8.3 6.75 -8.2 6.75 -8.05 6.85 -8.0 6.85 -8.0 6.95 -8.0 7.05 -8.0 7.1 -8.05 7.2 -8.05 7.3 -8.15 7.55 -8.3 7.65 -8.6 7.7 -8.85 7.5 -8.85 5.9 -8.85 5.2 -8.8 5.15 -8.8 5.1 -8.8 4.9 -8.8 4.75 -8.9 4.45 -8.95 4.1 -8.95 2.75 -8.95 2.0 -8.95 1.85 -8.9 1.8 -8.9 1.65 -8.9 1.45 -8.95 1.25 -8.95 0.0 -8.95 -1.35 -8.95 -2.6 -8.95 -2.65 -8.9 -2.75 -8.9 -2.8 -8.9 -3.1 -8.9 -3.5 -8.8 -3.5 -8.8 -3.6 -8.75 -3.7 -8.75 -3.75 -8.75 -5.75 -8.75 -6.8 -8.7 -6.85 -8.65 -7.0 -8.65 -7.05 -8.65 -7.4 -8.6 -7.8 -8.35 -8.05 -8.35 -8.15 -8.35 -8.25 -8.35 -8.35 -8.2 -8.45 -8.1 -8.5 -7.95 -8.55 -7.35 -8.35 -7.2 -8.2 Q-5.5 -7.25 -3.6 -6.75 L-2.5 -6.35 -2.45 -6.2 -2.4 -6.15 -1.95 -6.05 1.95 -3.45 3.85 -2.35 4.0 -2.1 4.05 -2.05 M-8.35 4.5 L-8.3 4.55 -8.35 4.45 -8.35 4.5" fill="#e8b900" fill-rule="evenodd" stroke="none"/>
    <path d="M-10.35 11.65 L-10.5 11.6 -10.6 11.55 -10.65 11.45 -10.75 11.35 -10.8 10.95 -10.85 10.85 -10.9 8.55 -10.9 7.25 -10.9 7.2 -10.85 7.1 -10.8 7.05 -10.75 5.55 -10.65 4.45 -10.65 4.35 -10.6 4.3 -10.55 4.15 Q-10.45 2.7 -10.65 1.25 L-10.8 -0.2 -10.85 -0.3 -10.85 -0.35 -10.9 -0.45 -10.9 -1.4 -10.9 -2.25 -10.85 -2.35 -10.8 -2.4 -10.75 -2.45 -10.8 -8.4 -10.8 -11.45 -10.8 -11.55 -10.75 -11.6 -10.6 -11.8 -10.5 -11.85 -10.2 -11.9 -10.2 -11.95 -9.75 -11.9 -9.5 -11.85 -9.15 -11.7 -9.05 -11.65 Q-8.8 -11.35 -8.4 -11.2 L-8.15 -11.0 -6.55 -10.15 -6.2 -9.85 Q-4.85 -9.2 -3.7 -8.4 L-3.05 -7.95 -2.95 -7.8 -2.85 -7.75 -1.0 -7.35 3.85 -4.4 3.95 -4.45 4.1 -4.45 5.7 -3.75 6.15 -3.4 Q7.7 -2.75 9.05 -1.8 L9.3 -1.6 10.15 -1.35 10.2 -1.35 10.3 -1.15 10.35 -0.95 10.35 -0.9 10.35 -0.75 10.3 -0.7 10.25 -0.6 10.1 -0.45 8.4 -0.4 8.25 -0.55 7.8 -0.65 7.75 -0.7 7.75 -0.75 7.6 -1.05 7.55 -1.1 7.5 -1.15 7.35 -1.35 7.35 -1.4 7.15 -1.45 7.05 -1.35 6.95 -1.25 6.6 -1.5 Q5.7 -2.3 4.55 -2.75 L3.95 -3.1 1.1 -4.5 1.05 -4.65 0.95 -4.7 0.0 -5.1 -2.15 -6.2 -3.05 -6.8 Q-3.5 -7.2 -4.1 -7.35 L-5.3 -7.8 -6.05 -8.3 -6.4 -8.55 -6.85 -8.75 -7.4 -9.1 -8.65 -9.45 -8.85 -9.4 -8.95 -9.3 -9.1 -9.25 -9.15 -9.15 -9.2 -9.1 -9.25 -9.05 -9.25 -8.4 -9.25 -8.05 -9.25 -7.75 -9.3 -7.6 -9.4 -7.55 -9.4 -7.45 -9.4 -6.6 -9.45 -4.8 -9.5 -3.0 -9.55 -2.95 -9.6 -2.8 -9.6 -2.75 -9.6 -0.7 -9.6 2.95 -9.6 6.85 -9.65 6.95 -9.65 7.05 -9.75 7.15 -9.75 7.9 -9.75 9.6 -9.75 10.6 -9.85 10.6 -10.3 11.2 -10.45 11.3 -10.45 11.45 -10.35 11.65 M4.6 -0.65 L4.7 -0.7 4.75 -0.7 5.4 -0.65 5.6 -0.55 5.6 -0.45 5.6 -0.35 5.5 -0.2 5.3 -0.05 4.95 0.15 4.9 0.2 4.8 0.6 3.15 1.75 Q2.7 1.85 2.4 2.2 L-3.35 5.5 -4.7 6.1 -4.8 6.2 Q-5.8 6.5 -6.65 7.2 L-6.8 7.25 -7.25 7.5 -7.3 7.55 -7.55 7.65 -7.6 7.7 -8.1 7.6 -8.05 7.5 -8.05 7.45 -8.05 7.35 -8.05 7.3 -8.05 7.2 -8.0 7.1 -7.8 6.65 -7.75 6.6 -7.4 6.7 -7.25 6.65 -7.15 6.65 -6.55 6.2 -5.85 5.8 -4.6 5.1 -3.75 4.6 -2.7 4.05 -2.35 3.9 -1.6 3.5 -1.55 3.4 -1.5 3.4 -1.4 3.3 -1.3 3.25 -1.15 3.2 -0.75 2.95 1.8 1.6 3.15 0.85 3.85 0.35 4.45 -0.1 4.65 -0.55 4.55 -0.6 4.6 -0.65" fill="#fee116" fill-rule="evenodd" stroke="none"/>
    <path d="M-7.45 -7.4 L-7.45 -7.45 -7.4 -7.5 -7.35 -7.6 -7.25 -7.7 -7.0 -7.75 -6.8 -7.65 -5.25 -6.9 -5.15 -6.85 -4.35 -6.65 -4.25 -6.55 -4.2 -6.5 -3.0 -6.05 -2.1 -5.5 -1.55 -5.1 -1.4 -5.05 -1.25 -4.95 -1.2 -4.85 -1.1 -4.8 -0.75 -4.65 -0.55 -4.6 Q0.45 -3.8 1.5 -3.3 L2.05 -3.05 2.7 -2.65 2.8 -2.55 2.85 -2.6 3.2 -2.5 3.45 -2.45 3.5 -2.4 3.55 -2.35 3.65 -2.3 3.75 -2.3 3.85 -2.2 3.85 -2.15 3.9 -2.1 4.05 -2.05 4.25 -1.95 4.45 -1.75 4.75 -1.6 5.1 -1.35 5.1 -1.25 5.15 -1.2 5.25 -1.2 5.4 -1.05 5.55 -0.95 5.6 -0.85 5.6 -0.7 5.6 -0.65 5.6 -0.6 5.6 -0.55 5.4 -0.65 4.75 -0.7 4.7 -0.7 4.6 -0.65 4.55 -0.7 4.45 -0.8 Q4.3 -1.2 3.6 -1.4 L1.85 -2.45 1.05 -2.95 -0.2 -3.65 -1.35 -4.25 -1.7 -4.5 -2.85 -5.1 -3.9 -5.65 -4.95 -6.25 -6.95 -7.2 -7.0 -7.2 -7.4 -7.4 -7.45 -7.4 M-8.0 6.85 L-8.05 6.85 -8.2 6.75 -8.3 6.75 -8.35 6.75 -8.35 6.3 -8.35 5.55 -8.3 5.5 -8.3 5.4 -8.3 5.1 -8.3 5.05 -8.15 5.1 -8.05 5.15 -8.0 5.2 -8.0 5.3 -7.95 5.25 -7.8 5.8 -7.8 6.1 -7.9 6.25 -7.85 6.5 -8.0 6.8 -8.0 6.85 M4.95 -1.3 L5.0 -1.3 4.95 -1.3 M-8.35 4.5 L-8.35 4.45 -8.3 4.55 -8.35 4.5 M-8.0 5.4 L-8.05 5.5 -8.0 5.4" fill="#d8b838" fill-rule="evenodd" stroke="none"/>
  </g>
</svg>
