<?xml version="1.0" encoding="UTF-8" standalone="no"?>
<svg xmlns:ffdec="https://www.free-decompiler.com/flash" xmlns:xlink="http://www.w3.org/1999/xlink" ffdec:objectType="shape" height="52.7px" width="386.1px" xmlns="http://www.w3.org/2000/svg">
  <g transform="matrix(1.0, 0.0, 0.0, 1.0, 181.55, 29.1)">
    <path d="M0.35 -27.3 L3.05 -27.45 32.6 -27.45 35.3 -27.3 69.6 -27.3 84.75 -27.75 171.75 -27.75 196.9 -26.9 196.9 -26.65 196.9 -25.95 196.9 -22.75 196.9 -21.5 196.9 -20.15 196.9 -17.1 196.9 -13.2 196.9 -10.7 197.15 -9.95 197.7 -9.45 197.85 -8.8 Q197.85 -8.45 198.1 -8.1 L198.1 -7.45 198.1 -6.9 198.1 -5.55 198.1 -3.7 Q197.85 -3.4 197.85 -3.0 L197.7 -2.3 197.15 -1.8 197.15 -1.15 196.9 -0.5 196.9 0.2 196.9 0.75 196.9 1.4 196.9 2.1 196.9 2.75 Q196.65 2.9 196.65 3.25 L195.95 4.65 195.7 5.3 Q195.4 5.5 195.4 5.8 L195.3 6.5 194.75 7.15 194.5 7.85 194.5 12.95 194.5 18.05 194.5 20.45 125.35 20.25 Q99.0 20.1 72.4 20.1 L72.4 20.25 70.65 20.25 68.9 20.6 67.7 20.75 54.4 21.45 53.2 21.6 Q38.8 21.6 24.0 21.95 L20.65 22.25 19.45 22.45 11.9 22.5 5.4 22.5 1.4 22.45 -0.5 22.45 Q-20.5 22.7 -40.5 22.25 -56.05 21.85 -71.65 21.7 L-73.35 21.7 -89.7 21.55 -89.75 21.65 -90.75 21.8 -92.1 22.1 Q-103.7 21.25 -115.45 21.55 -118.95 21.45 -121.3 22.7 -146.1 21.05 -171.1 21.55 L-171.1 21.65 -172.1 21.85 -176.9 22.45 -181.55 18.2 -175.8 -18.6 Q-175.8 -22.95 -177.8 -27.8 L-178.05 -28.4 -124.45 -28.3 -100.1 -27.15 Q-80.05 -26.45 -61.8 -26.45 L-36.75 -26.75 -27.9 -26.9 -19.15 -27.2 0.35 -27.3" fill="#d7ffff" fill-opacity="0.29411766" fill-rule="evenodd" stroke="none"/>
    <path d="M186.0 -22.45 L181.85 -22.5 177.4 -22.6 168.9 -22.65 168.5 -22.65 168.5 -23.3 153.7 -23.35 147.45 -23.35 144.6 -23.4 128.15 -23.5 127.4 -23.55 126.65 -23.55 112.0 -23.8 87.1 -23.9 86.85 -23.9 70.4 -24.05 22.9 -24.25 22.9 -24.2 21.35 -24.2 20.05 -24.1 18.55 -24.05 18.25 -24.05 -29.75 -24.2 -29.75 -24.1 -31.8 -24.1 -33.1 -24.05 -35.15 -24.0 -36.4 -23.9 -48.25 -23.95 -50.05 -23.9 -51.3 -23.9 -52.6 -23.85 -52.85 -23.8 -73.5 -23.8 -109.85 -23.95 -111.9 -23.9 -113.2 -23.9 -114.75 -23.85 -114.75 -23.8 -142.15 -23.85 -142.2 -23.85 -144.35 -23.85 -151.2 -23.9 -151.55 -23.95 -160.25 -24.05 -160.35 -24.2 -160.45 -24.4 -160.65 -24.6 -160.85 -24.8 -161.15 -25.0 -161.65 -25.1 -166.4 -25.2 -167.4 -24.95 Q-168.1 -24.8 -168.65 -24.35 L-168.85 -24.1 -169.8 -23.5 -170.65 -23.5 -170.65 -23.45 -173.5 -22.9 -173.7 -22.8 -174.1 -22.45 -174.45 -22.05 -174.65 -21.85 -174.75 -21.6 -174.85 -21.4 -174.95 -21.0 -175.0 -20.75 -175.1 -20.55 -175.15 -20.4 -175.15 -20.15 -175.15 -19.95 -175.25 -19.7 -175.35 -19.55 -175.4 -19.35 -175.4 -19.1 -175.5 -18.9 -175.6 -18.7 -175.65 -18.5 -175.65 -18.25 -175.75 -18.05 -175.85 -17.9 -175.9 -17.65 -175.9 -16.8 -175.9 -15.6 -175.85 -14.7 -175.75 -14.55 -175.65 -14.3 -175.6 -14.25 -175.6 -14.05 -175.7 -12.75 -175.8 -12.6 -175.9 -12.15 -175.9 -11.5 -175.9 -11.05 -175.95 -10.9 -176.05 -10.7 -176.2 -10.25 -176.4 -9.85 -176.6 -9.7 -176.65 -9.6 -176.65 -8.85 -176.65 -8.25 -176.65 -8.0 -176.7 -7.85 -176.8 -7.6 -176.9 -7.4 -176.9 -6.55 -176.9 -4.5 -176.9 -3.45 Q-176.85 -2.75 -176.95 -2.15 L-177.1 -1.75 -177.15 -0.5 -177.15 0.75 -177.15 1.35 -177.2 1.6 -177.25 1.8 -177.35 2.05 -177.5 2.2 -177.7 2.4 -177.85 2.6 -178.05 2.65 -178.4 2.7 -178.95 2.6 -179.2 2.35 -179.4 2.15 -179.5 1.9 -179.7 -1.8 -179.65 -6.2 -179.65 -12.45 -179.65 -12.9 -179.6 -13.15 -179.5 -13.3 -179.4 -13.55 -179.4 -13.75 -179.4 -13.95 -179.4 -14.6 -179.35 -15.4 -179.2 -15.65 -179.15 -15.85 -179.15 -16.05 -179.15 -16.5 -179.1 -16.65 -179.0 -16.85 -178.9 -17.1 -178.9 -19.25 -178.85 -19.45 -178.75 -19.65 -178.7 -19.85 -178.7 -19.9 -178.65 -20.1 -178.65 -20.5 -178.65 -21.35 -178.65 -22.4 -178.6 -22.6 -178.5 -22.8 -178.4 -23.0 -178.4 -23.25 -178.4 -23.45 -178.4 -23.85 -178.35 -24.05 -178.25 -24.25 -178.3 -24.3 -178.3 -24.25 -178.6 -24.25 -178.6 -26.85 -177.8 -26.85 -177.75 -26.95 -177.6 -27.2 -177.4 -27.4 -177.35 -27.65 -177.25 -27.8 -176.9 -28.25 -175.75 -29.05 -175.4 -29.05 -175.4 -29.1 -174.9 -28.9 -174.6 -28.7 -174.4 -28.5 -174.3 -28.3 -174.2 -28.1 -174.15 -27.9 -174.15 -27.7 -174.15 -27.45 -174.2 -27.25 -174.3 -27.05 -174.4 -26.85 -173.1 -26.85 -172.2 -27.5 -171.65 -27.7 -171.15 -27.5 -170.85 -27.3 -170.65 -27.15 -170.55 -26.9 -170.5 -26.8 -169.6 -26.8 -169.35 -26.9 -169.15 -27.15 -168.85 -27.35 -168.45 -27.5 -167.9 -27.65 -167.9 -27.7 -166.9 -27.65 -166.4 -27.5 -166.1 -27.3 -165.9 -27.15 -165.8 -26.9 -165.75 -26.8 -144.35 -26.65 -142.15 -26.55 -89.85 -26.5 -89.05 -26.55 -86.25 -26.65 -84.7 -26.7 -70.55 -26.7 -69.05 -26.7 -69.05 -26.75 -3.3 -26.55 0.05 -26.5 39.35 -26.4 42.4 -26.4 43.95 -26.35 44.45 -26.35 67.05 -26.2 68.35 -26.2 79.4 -26.0 79.4 -26.15 80.15 -26.25 81.2 -26.35 82.2 -26.4 84.0 -26.5 85.8 -26.55 87.35 -26.65 88.65 -26.7 95.8 -26.55 99.15 -26.55 100.45 -26.5 123.55 -26.4 126.9 -26.3 128.15 -26.25 131.5 -26.15 135.85 -26.05 139.2 -26.0 141.0 -25.95 142.3 -25.95 143.85 -25.9 144.35 -25.9 162.6 -25.7 164.65 -25.65 167.45 -25.55 167.95 -25.55 168.5 -25.55 168.5 -25.2 197.0 -24.85 197.0 -22.9 194.45 -22.95 194.1 -22.9 193.85 -22.9 193.65 -22.85 193.6 -22.85 192.7 -22.85 192.35 -22.8 192.05 -22.8 191.9 -22.75 188.95 -22.65 186.1 -22.5 186.0 -22.45 M204.25 -24.1 L204.35 -24.0 204.45 -23.9 204.55 -23.8 204.55 -23.65 204.55 -23.55 204.35 -23.65 204.25 -23.75 204.25 -24.1" fill="#ecffff" fill-opacity="0.25882354" fill-rule="evenodd" stroke="none"/>
    <path d="M196.25 9.6 L196.5 9.8 196.7 9.95 196.8 10.15 196.9 10.4 196.95 10.8 196.95 11.6 196.95 12.7 196.9 12.85 196.6 13.5 196.25 14.3 196.2 14.35 196.2 14.5 196.15 14.75 196.05 14.95 195.95 15.2 195.75 15.6 195.7 15.8 195.5 16.0 195.35 16.25 194.95 16.65 194.95 16.85 194.9 17.05 194.9 17.1 194.8 17.25 194.8 17.3 195.35 17.3 196.0 17.25 196.25 17.25 196.25 20.2 195.3 20.2 195.25 20.2 194.9 20.6 194.5 21.0 Q191.85 21.95 189.15 21.55 L188.9 21.3 188.7 21.1 188.6 20.85 188.5 20.7 188.45 20.5 188.45 20.2 188.3 20.2 188.05 20.25 186.95 20.3 176.25 20.5 175.3 20.5 175.05 20.5 170.35 20.6 168.5 20.65 168.5 21.35 153.7 21.35 135.35 21.35 94.55 21.3 92.75 21.3 67.3 21.3 66.8 21.55 66.3 21.7 65.75 21.95 57.55 22.8 26.3 22.95 Q13.9 22.35 1.4 22.45 L-0.5 22.45 Q-20.5 22.7 -40.5 22.25 -56.05 21.85 -71.65 21.7 L-73.35 21.7 -89.7 21.55 -89.75 21.65 -90.75 21.8 -92.1 22.1 Q-103.7 21.25 -115.45 21.55 -118.95 21.45 -121.3 22.7 -146.1 21.05 -171.1 21.55 L-171.1 21.65 -172.1 21.85 -177.45 22.45 -177.9 21.8 -177.95 21.6 -178.0 21.35 -178.1 21.15 -178.15 21.0 -178.15 20.75 -178.15 20.55 -178.15 20.3 -178.15 20.15 -178.1 19.95 -178.0 19.75 -178.05 19.75 -178.25 19.65 -178.35 19.55 -178.4 19.4 -178.5 19.35 -178.7 19.25 -178.9 19.15 -179.05 19.05 -179.25 19.0 -179.35 18.9 -179.6 18.7 -179.9 18.55 -180.05 18.4 -180.25 18.3 -178.15 18.35 -178.1 18.2 -178.0 18.05 -178.0 17.95 -177.9 17.75 -177.7 17.55 -177.45 17.35 -168.6 17.85 -165.75 17.85 -161.4 18.2 -142.2 18.8 -142.15 18.8 -83.15 18.55 -80.6 18.55 -25.9 18.15 -25.4 18.3 -24.35 18.55 -23.05 18.75 Q65.1 19.3 153.7 19.35 L160.1 19.35 168.5 19.35 168.5 19.3 187.6 17.95 187.85 17.8 188.2 17.75 188.4 17.85 188.95 18.05 189.2 18.05 189.6 17.95 189.75 17.9 190.3 17.3 190.55 16.9 190.65 16.7 190.85 16.5 191.6 15.7 191.95 15.25 192.0 15.05 193.1 14.3 193.15 14.05 193.2 13.85 193.25 13.65 193.35 13.45 193.45 13.25 193.65 12.8 193.7 12.6 193.7 12.4 193.8 12.2 193.9 11.95 193.95 11.8 193.95 11.55 194.25 11.05 194.35 10.95 194.4 10.75 194.45 10.55 194.6 10.1 194.65 10.05 194.75 9.9 195.15 9.55 195.35 9.5 195.7 9.45 195.7 9.4 196.2 9.55 196.25 9.6" fill="#0a232c" fill-opacity="0.21176471" fill-rule="evenodd" stroke="none"/>
    <path d="M18.25 -24.05 L18.55 -24.05 20.05 -24.1 21.35 -24.2 22.9 -24.2 22.9 -24.25 70.4 -24.05 86.85 -23.9 87.1 -23.9 112.0 -23.8 126.65 -23.55 127.4 -23.55 128.15 -23.5 144.6 -23.4 147.45 -23.35 153.7 -23.35 168.5 -23.3 168.5 -22.65 168.9 -22.65 177.4 -22.6 181.85 -22.5 186.0 -22.45 186.35 -22.45 186.5 -22.5 188.5 -22.55 188.55 -22.6 188.95 -22.65 191.9 -22.75 192.4 -22.65 192.65 -22.75 192.95 -22.8 193.55 -22.8 193.6 -22.85 193.65 -22.85 193.85 -22.9 194.1 -22.9 194.45 -22.95 197.0 -22.9 197.0 -21.05 196.9 -21.0 196.65 -20.9 196.4 -20.75 195.5 -20.55 194.95 -20.4 194.3 -20.15 193.95 -20.1 193.7 -20.1 193.45 -20.05 193.4 -20.0 192.4 -19.95 191.85 -19.95 191.25 -19.75 191.0 -19.65 190.85 -19.6 190.75 -19.5 190.7 -19.4 190.5 -19.25 190.5 -19.15 190.45 -19.05 190.45 -18.95 190.35 -18.8 190.35 -18.75 190.35 -18.65 190.35 -18.55 190.35 -18.45 190.35 -18.4 189.4 -18.45 189.15 -18.45 188.95 -18.5 188.9 -18.5 184.0 -18.7 183.65 -18.7 183.25 -18.8 183.15 -18.8 181.15 -18.9 181.05 -18.9 178.75 -19.0 177.55 -19.05 177.3 -19.05 176.55 -19.15 176.5 -19.15 172.4 -19.2 168.5 -19.2 168.5 -18.6 159.25 -18.6 159.15 -18.6 153.7 -18.6 95.8 -18.65 91.45 -18.55 19.3 -18.7 15.95 -18.75 -43.6 -19.0 -44.9 -19.0 -69.3 -19.1 -72.1 -19.15 -73.4 -19.2 -73.9 -19.2 -85.7 -19.25 -86.0 -19.2 -86.5 -19.1 -86.75 -19.0 -87.8 -18.9 -88.8 -18.75 -90.1 -18.65 -91.35 -18.55 -92.65 -18.5 Q-102.15 -18.25 -112.15 -18.45 L-131.15 -18.7 -132.45 -18.75 -132.7 -18.75 -142.2 -18.7 -144.35 -18.7 -151.4 -19.1 -151.45 -19.1 -153.15 -19.25 -153.4 -19.25 -160.1 -19.35 -160.35 -19.25 -160.6 -19.25 -161.4 -19.2 -161.5 -19.2 -162.0 -19.1 -162.25 -19.1 -166.3 -19.1 -166.55 -19.1 -168.4 -19.0 -168.5 -19.0 -168.9 -18.9 -169.9 -18.2 -170.1 -18.0 -170.3 -17.8 -170.5 -17.6 -170.75 -17.35 -170.9 -17.15 -171.0 -16.95 -171.15 -16.75 -171.2 -16.55 -171.4 -15.9 -171.8 -14.85 -172.2 -14.25 -172.3 -14.05 -172.4 -13.8 -172.45 -13.65 -172.55 -13.4 -172.65 -13.2 -172.85 -12.95 -173.05 -12.8 -173.45 -12.35 -173.6 -12.2 -173.8 -12.15 -174.15 -12.1 -174.7 -12.2 -174.95 -12.4 -175.15 -12.65 -175.25 -12.85 -175.35 -13.1 -175.4 -13.45 -175.4 -14.05 -175.45 -14.1 -175.6 -14.25 -175.65 -14.3 -175.75 -14.55 -175.85 -14.7 -175.9 -15.6 -175.9 -16.8 -175.9 -17.65 -175.85 -17.9 -175.75 -18.05 -175.65 -18.25 -175.65 -18.5 -175.6 -18.7 -175.5 -18.9 -175.4 -19.1 -175.4 -19.35 -175.35 -19.55 -175.25 -19.7 -175.15 -19.95 -175.15 -20.15 -175.15 -20.4 -175.1 -20.55 -175.0 -20.75 -174.95 -21.0 -174.85 -21.4 -174.75 -21.6 -174.65 -21.85 -174.45 -22.05 -174.1 -22.45 -173.7 -22.8 -173.5 -22.9 -170.65 -23.45 -170.65 -23.5 -169.8 -23.5 -168.85 -24.1 -168.65 -24.35 Q-168.1 -24.8 -167.4 -24.95 L-166.4 -25.2 -161.65 -25.1 -161.15 -25.0 -160.85 -24.8 -160.65 -24.6 -160.45 -24.4 -160.35 -24.2 -160.25 -24.05 -151.55 -23.95 -151.2 -23.9 -144.35 -23.85 -142.2 -23.85 -142.15 -23.85 -114.75 -23.8 -74.15 -23.75 -73.5 -23.8 -52.85 -23.8 -52.6 -23.85 -51.3 -23.9 -50.05 -23.9 -48.25 -23.95 -36.4 -23.9 5.45 -23.8 9.05 -23.75 9.55 -23.75 14.7 -23.65 14.95 -23.8 15.95 -23.85 16.75 -23.95 18.25 -24.05 M-178.6 -24.25 L-178.3 -24.25 -178.3 -24.3 -178.25 -24.25 -178.35 -24.05 -178.4 -23.85 -178.4 -23.45 -178.4 -23.25 -178.4 -23.0 -178.5 -22.8 -178.6 -22.6 -178.65 -22.4 -178.65 -21.35 -178.65 -20.5 -178.65 -20.1 -178.7 -19.9 -178.7 -19.85 -178.75 -19.85 -178.9 -19.95 -179.05 -20.05 -179.2 -20.15 -179.3 -20.25 -179.45 -20.4 -179.65 -20.5 -179.8 -20.55 -179.85 -20.6 -179.85 -23.8 -179.8 -23.85 -179.65 -23.95 -179.4 -24.05 -179.2 -24.1 -179.15 -24.2 -178.9 -24.2 -178.65 -24.25 -178.6 -24.25" fill="#ecffff" fill-opacity="0.101960786" fill-rule="evenodd" stroke="none"/>
    <path d="M-178.0 18.05 L-178.25 18.05 -178.35 17.9 -178.35 13.5 -178.25 13.5 -177.9 13.55 -175.9 13.65 -167.7 13.65 -166.65 13.75 -160.05 13.8 -159.15 13.8 -142.15 13.9 -118.35 13.9 -114.75 14.0 -65.45 14.0 -64.95 13.95 -62.35 13.9 -58.0 13.9 -56.2 13.9 -54.9 13.95 -53.35 14.0 -52.1 14.15 -50.8 14.25 -49.8 14.3 -48.75 14.4 -48.5 14.5 -48.0 14.55 -46.45 14.55 -45.65 14.5 Q-34.1 14.2 -22.05 14.4 L-20.5 14.35 13.15 14.3 13.65 14.25 15.2 14.25 16.45 14.2 18.25 14.2 18.25 14.15 63.2 14.2 67.85 14.3 69.35 14.4 70.65 14.5 71.7 14.55 72.45 14.7 73.5 14.8 74.0 14.9 74.0 14.95 153.7 14.7 153.7 14.65 155.95 14.45 Q159.1 14.05 162.2 14.45 L164.7 14.3 169.3 14.35 169.3 14.3 169.55 14.2 169.75 14.05 170.0 14.0 170.1 13.95 170.45 13.9 170.75 13.85 171.45 13.75 172.55 13.45 173.9 13.25 175.25 13.2 175.9 13.05 178.6 12.9 179.05 12.9 183.45 12.5 186.3 12.4 186.6 12.05 186.7 11.85 186.8 11.6 186.9 11.4 187.1 11.25 187.25 11.0 187.45 10.8 187.5 10.55 187.6 10.4 187.75 10.15 187.95 9.95 188.15 9.7 188.25 9.5 188.35 9.35 188.45 9.1 188.65 8.9 188.85 8.7 188.95 8.5 189.05 8.25 189.25 7.85 189.45 7.45 189.65 7.2 190.1 6.4 189.75 6.25 189.5 6.15 189.3 6.05 189.25 5.95 189.15 5.8 188.95 5.75 188.95 5.65 188.85 5.55 188.85 5.45 188.8 5.35 188.8 5.3 188.8 5.2 188.8 5.1 188.8 5.0 188.8 4.95 188.85 4.8 188.85 4.7 188.95 4.6 188.95 4.5 189.15 4.35 189.25 4.25 189.3 4.15 189.5 4.1 189.75 4.0 190.4 3.8 191.05 3.75 191.3 3.75 191.35 3.7 191.4 3.5 191.45 3.25 191.5 3.05 191.6 2.85 191.7 2.65 191.8 2.4 191.9 2.2 192.1 2.05 192.2 1.8 192.3 1.6 192.5 1.15 192.7 0.75 192.9 0.5 192.95 0.3 192.95 0.15 192.95 -0.1 193.0 -0.3 193.1 -0.5 193.2 -0.7 193.2 -0.95 193.25 -1.15 193.35 -1.3 193.45 -1.55 193.45 -1.75 193.45 -2.0 193.5 -2.15 193.6 -2.4 193.65 -2.6 193.7 -2.8 193.7 -3.0 193.7 -3.2 193.7 -3.65 193.7 -4.25 193.7 -4.5 193.75 -4.65 193.85 -4.9 193.95 -5.1 194.1 -5.5 194.25 -5.7 194.4 -5.95 194.45 -6.15 194.5 -6.35 194.6 -6.55 194.7 -6.8 194.9 -7.0 195.15 -7.15 195.7 -7.3 195.7 -7.35 195.95 -7.35 196.45 -7.15 196.75 -6.95 196.95 -6.8 197.05 -6.55 197.15 -6.35 197.2 -6.15 197.2 -5.95 197.2 -5.5 197.2 -4.9 197.15 -4.65 197.05 -4.5 196.95 -4.25 196.95 -4.05 196.95 -3.85 196.9 -3.65 196.9 -3.55 197.0 -2.55 196.95 -0.85 196.95 -0.05 196.9 0.2 196.85 0.4 196.75 0.65 196.7 0.8 196.7 1.0 196.7 1.25 196.7 1.45 196.7 1.65 196.65 1.85 196.6 2.1 196.5 2.3 196.45 2.45 196.45 2.7 196.45 2.9 196.45 3.15 196.4 3.3 196.3 3.55 196.25 3.65 196.25 9.6 196.2 9.55 195.7 9.4 195.7 9.45 195.35 9.5 195.15 9.55 194.75 9.9 194.65 10.05 194.6 10.1 194.45 10.55 194.4 10.75 194.35 10.95 194.25 11.05 193.95 11.55 193.95 11.8 193.9 11.95 193.8 12.2 193.7 12.4 193.7 12.6 193.65 12.8 193.45 13.25 193.35 13.45 193.25 13.65 193.2 13.85 193.15 14.05 193.1 14.3 192.0 15.05 191.95 15.25 191.6 15.7 190.85 16.5 190.65 16.7 190.55 16.9 190.3 17.3 189.75 17.9 189.6 17.95 189.2 18.05 188.95 18.05 188.4 17.85 188.2 17.75 187.85 17.8 187.6 17.95 168.5 19.3 168.5 19.35 160.1 19.35 153.7 19.35 Q65.1 19.3 -23.05 18.75 L-24.35 18.55 -25.4 18.3 -25.9 18.15 -80.6 18.55 -83.15 18.55 -142.15 18.8 -142.2 18.8 -161.4 18.2 -165.75 17.85 -168.6 17.85 -177.45 17.35 -177.7 17.55 -177.9 17.75 -178.0 17.95 -178.0 18.05 M196.25 14.3 L196.25 17.05 195.8 16.95 195.2 17.05 194.9 17.05 194.95 16.85 194.95 16.65 195.35 16.25 195.5 16.0 195.7 15.8 195.75 15.6 195.95 15.2 196.05 14.95 196.15 14.75 196.2 14.5 196.2 14.35 196.25 14.3" fill="#0a232c" fill-opacity="0.08627451" fill-rule="evenodd" stroke="none"/>
    <path d="M37.7 -25.9 L37.95 -25.3 37.95 -24.85 37.95 -24.25 37.8 -23.6 37.7 -23.0 37.45 -22.55 37.25 -21.95 37.1 -21.35 37.0 -20.7 36.75 -20.25 36.55 -19.65 36.25 -19.05 36.2 -18.45 36.0 -18.0 35.7 -17.35 35.2 -16.75 35.15 -16.15 34.95 -15.7 34.8 -15.1 34.5 -14.45 34.25 -14.15 33.8 -13.7 33.75 -13.1 33.55 -12.65 33.4 -12.0 33.1 -11.4 33.05 -10.8 32.85 -10.35 32.7 -9.75 32.4 -9.1 32.15 -8.5 31.65 -7.45 31.35 -6.85 31.3 -6.2 31.1 -5.8 30.8 -5.15 30.45 -4.55 30.4 -3.95 30.1 -3.5 29.75 -2.9 29.4 -2.25 29.35 -1.65 28.85 -0.6 28.0 1.1 27.5 2.3 27.1 2.85 26.9 3.35 26.6 4.0 26.2 4.45 25.85 4.45 25.35 4.0 25.05 3.35 25.0 2.85 25.0 2.3 25.0 1.7 25.2 1.1 25.35 0.65 25.4 0.0 25.7 -0.6 26.25 -1.2 26.55 -1.65 26.9 -2.25 27.1 -2.9 27.85 -4.55 28.9 -6.85 29.95 -9.1 30.1 -9.75 30.25 -10.35 30.4 -10.8 30.65 -11.4 30.95 -12.0 31.15 -12.65 31.3 -13.1 31.35 -13.7 31.65 -14.3 31.85 -14.9 32.15 -15.35 32.35 -16.0 32.35 -16.6 32.55 -17.2 32.85 -17.5 33.25 -18.0 33.4 -18.45 33.45 -19.05 33.75 -19.65 33.95 -20.25 34.3 -20.7 34.5 -21.35 34.8 -21.95 35.0 -22.55 35.3 -23.0 35.5 -23.6 35.5 -24.25 35.7 -24.85 36.0 -25.3 36.25 -25.9 36.55 -26.5 37.0 -26.8 37.45 -26.5 37.7 -25.9 M40.4 -23.6 L40.4 -24.25 40.6 -24.85 40.85 -25.3 41.1 -25.75 41.2 -25.9 41.65 -26.35 41.9 -26.65 Q42.15 -26.65 42.25 -26.8 L42.7 -26.5 42.95 -25.9 43.2 -25.3 43.2 -24.85 43.05 -24.25 42.9 -23.6 41.85 -21.35 40.8 -19.05 39.75 -16.75 39.7 -16.15 39.45 -15.7 39.2 -15.1 38.85 -14.45 38.75 -13.85 38.5 -13.4 38.0 -12.2 37.45 -11.15 37.25 -10.5 37.1 -9.9 37.0 -9.3 36.75 -8.85 36.55 -8.25 36.4 -7.6 36.35 -7.0 36.05 -6.55 35.7 -5.95 35.35 -5.35 35.3 -4.7 35.0 -4.25 34.8 -3.65 34.5 -3.05 34.1 -2.45 33.9 -2.0 33.75 -1.35 33.45 -0.75 33.05 -0.15 32.85 0.3 32.55 0.9 32.15 1.35 31.8 1.35 31.3 0.9 31.0 0.3 30.95 -0.15 30.95 -0.75 30.95 -1.35 32.2 -4.25 33.25 -6.55 34.3 -8.85 34.6 -9.3 34.8 -9.9 34.8 -10.5 35.0 -11.15 35.3 -11.6 35.55 -12.2 35.7 -12.8 35.85 -13.4 36.0 -13.85 36.25 -14.45 36.55 -15.1 36.9 -15.7 37.0 -16.15 37.6 -17.35 38.35 -19.05 38.85 -20.25 39.0 -20.7 39.05 -21.35 39.35 -21.95 39.9 -22.55 40.15 -23.0 40.4 -23.6 M100.65 -17.15 L100.9 -17.75 101.15 -18.4 101.4 -18.8 101.6 -19.45 101.6 -20.05 101.85 -20.65 102.1 -21.1 102.4 -21.7 102.65 -22.35 103.15 -22.6 103.5 -22.6 103.9 -22.35 104.2 -21.7 104.4 -21.1 104.4 -20.65 104.25 -20.05 104.15 -19.45 103.85 -18.8 103.55 -18.4 103.35 -17.75 102.8 -16.55 102.65 -16.1 102.55 -15.5 102.4 -14.85 102.1 -14.25 101.95 -13.8 101.85 -13.2 101.7 -12.6 101.25 -11.95 101.05 -11.5 100.9 -10.9 100.65 -10.3 100.55 -9.7 100.35 -9.25 100.2 -8.6 99.95 -8.0 99.65 -7.4 99.5 -6.95 99.4 -6.35 99.25 -5.7 98.8 -5.1 98.6 -4.65 98.45 -4.05 98.2 -3.45 97.9 -2.8 97.65 -2.4 97.4 -1.75 97.3 -1.15 97.2 -0.55 96.7 0.5 96.15 1.75 95.4 3.4 94.95 4.05 94.95 4.5 94.85 5.1 94.7 5.7 94.4 6.0 94.0 6.5 93.7 7.05 93.45 7.55 93.2 8.15 92.95 8.7 92.85 9.35 92.65 9.85 92.5 10.45 92.4 11.0 92.3 11.6 91.95 12.1 91.7 12.7 91.55 13.3 91.25 13.9 91.0 14.4 90.5 15.6 90.05 16.5 89.85 16.65 89.5 16.95 89.0 16.5 88.75 15.9 88.65 15.45 88.65 14.85 88.65 14.25 88.65 13.65 88.8 13.2 89.0 12.7 89.15 12.55 89.6 12.1 89.7 11.6 89.8 11.0 90.05 10.45 90.3 9.85 90.55 9.35 90.75 8.7 90.75 8.15 91.0 7.55 91.25 7.05 91.45 6.5 91.45 5.9 91.7 5.25 91.95 4.95 92.4 4.5 92.5 4.05 92.6 3.4 92.85 2.8 93.2 2.2 93.35 1.75 93.65 1.15 93.9 0.5 94.25 -0.1 94.4 -0.55 94.6 -1.0 94.75 -1.15 95.2 -1.6 95.3 -2.05 95.4 -2.65 95.65 -3.25 95.9 -3.9 96.0 -4.35 96.1 -4.95 96.35 -5.55 96.95 -6.15 97.05 -6.6 97.15 -7.25 97.4 -7.85 97.65 -8.45 97.75 -8.9 97.85 -9.5 98.1 -10.15 98.35 -10.75 98.6 -11.2 98.9 -11.8 99.05 -12.4 99.15 -13.05 99.3 -13.45 99.5 -14.1 99.5 -14.7 99.75 -15.3 100.0 -15.6 100.45 -16.1 100.55 -16.55 100.65 -17.15 M101.15 -7.85 L101.25 -8.45 101.4 -8.9 101.95 -10.15 102.75 -11.8 103.2 -13.05 103.35 -13.45 103.45 -14.1 103.7 -14.7 103.9 -15.3 104.2 -15.6 104.6 -16.1 104.75 -16.55 104.85 -17.15 105.1 -17.75 105.3 -18.4 105.9 -19.45 106.15 -20.05 106.65 -20.35 107.05 -20.05 107.35 -19.45 107.55 -18.8 107.55 -18.4 107.55 -17.75 107.4 -17.15 107.35 -16.55 106.3 -14.25 105.25 -11.95 104.2 -9.7 104.05 -9.25 103.9 -8.6 103.8 -8.0 103.5 -7.4 103.2 -6.95 103.0 -6.35 102.75 -5.7 102.65 -5.1 102.45 -4.65 102.3 -4.05 102.05 -3.45 101.75 -2.8 101.5 -2.4 101.25 -1.75 101.15 -1.15 101.05 -0.55 100.8 -0.1 100.55 0.5 100.3 1.15 100.2 1.75 100.0 2.2 99.75 2.8 99.4 3.4 99.3 4.05 98.95 4.5 98.7 5.1 98.55 5.7 98.25 6.0 97.9 6.3 97.55 6.3 97.05 5.9 96.8 5.25 96.7 4.75 96.7 4.2 96.7 3.6 96.95 3.0 97.5 1.9 98.0 0.7 98.25 0.25 98.45 -0.35 98.45 -1.0 98.7 -1.6 98.95 -2.05 99.5 -3.25 99.75 -3.9 99.85 -4.35 99.95 -4.95 100.2 -5.55 100.45 -6.15 100.7 -6.6 101.0 -7.25 101.15 -7.85 M109.1 -12.75 L109.5 -12.4 109.8 -11.8 110.0 -11.2 110.0 -10.75 109.85 -10.15 109.75 -9.5 109.45 -9.25 109.05 -8.8 108.75 -8.15 108.45 -7.65 108.25 -7.1 108.0 -6.5 107.55 -5.9 107.35 -5.45 107.05 -4.85 106.6 -4.2 106.3 -3.6 106.15 -3.15 106.0 -2.55 105.9 -1.95 105.6 -1.6 105.2 -1.15 105.1 -0.55 104.9 -0.1 104.6 0.5 104.15 1.15 104.05 1.75 103.85 2.2 103.7 2.8 103.45 3.4 103.0 4.05 102.8 4.5 102.65 5.1 102.55 5.7 102.45 6.3 102.1 6.75 101.85 7.4 101.7 8.0 101.4 8.6 101.15 9.05 100.9 9.65 100.65 10.3 100.55 10.9 100.35 11.35 100.2 11.95 99.95 12.55 99.65 13.2 99.5 13.65 99.4 14.25 99.25 14.85 99.15 15.45 98.95 15.9 98.8 16.5 98.55 17.15 98.25 17.75 98.1 18.2 98.0 18.8 97.85 19.4 97.55 20.05 97.4 20.3 97.2 20.5 96.85 20.75 96.5 20.75 96.0 20.3 95.75 19.7 95.65 19.25 95.65 18.65 95.65 18.05 95.9 17.4 96.15 16.95 96.35 16.35 96.35 15.75 96.6 15.15 96.85 14.7 97.15 14.05 97.3 13.45 97.4 12.85 97.55 12.4 97.75 11.8 97.75 11.15 98.0 10.55 98.25 10.1 98.55 9.5 99.05 8.25 99.15 7.85 99.25 7.2 99.5 6.6 99.75 6.0 100.0 5.55 100.2 4.95 100.2 4.3 100.45 3.7 100.7 3.4 101.15 3.0 101.25 2.55 101.35 1.9 101.6 1.3 102.1 0.25 102.9 -1.6 103.45 -2.65 103.55 -3.25 103.7 -3.9 103.85 -4.35 104.2 -4.95 104.4 -5.55 104.6 -6.15 104.9 -6.6 105.2 -7.25 105.45 -7.85 106.0 -8.45 106.3 -8.9 106.65 -9.5 106.85 -10.15 107.05 -10.75 107.35 -11.2 107.65 -11.8 107.9 -12.4 108.4 -12.75 109.1 -12.75 M141.5 -1.0 L142.25 -2.65 143.3 -4.95 144.35 -7.25 144.5 -7.85 144.65 -8.45 144.8 -8.9 145.05 -9.5 145.35 -10.15 145.55 -10.75 145.7 -11.2 145.75 -11.8 146.05 -12.4 146.25 -13.05 146.55 -13.45 146.75 -14.1 146.75 -14.7 146.95 -15.3 147.25 -15.6 147.65 -16.1 147.8 -16.55 147.85 -17.15 148.15 -17.75 148.35 -18.4 148.7 -18.8 148.9 -19.45 149.2 -20.05 149.4 -20.65 149.7 -21.1 149.9 -21.7 149.9 -22.35 150.1 -22.95 150.4 -23.4 150.65 -24.0 150.95 -24.6 151.4 -24.9 151.85 -24.6 152.1 -24.0 152.35 -23.4 152.35 -22.95 152.35 -22.35 152.2 -21.7 152.1 -21.1 151.85 -20.65 151.65 -20.05 151.5 -19.45 151.4 -18.8 151.15 -18.4 150.95 -17.75 150.65 -17.15 150.6 -16.55 150.4 -16.1 150.1 -15.5 149.6 -14.85 149.55 -14.25 149.35 -13.8 149.2 -13.2 148.9 -12.6 148.65 -12.25 148.2 -11.8 148.15 -11.2 147.95 -10.75 147.8 -10.15 147.5 -9.5 147.45 -8.9 147.25 -8.45 147.1 -7.85 146.8 -7.25 146.55 -6.6 146.05 -5.55 145.75 -4.95 145.7 -4.35 145.5 -3.9 145.2 -3.25 144.85 -2.65 144.8 -2.05 144.5 -1.6 144.15 -1.0 143.8 -0.35 143.75 0.25 Q143.45 0.7 143.25 1.3 L142.4 3.0 141.9 4.2 141.5 4.75 141.3 5.25 141.0 5.9 140.6 6.3 140.25 6.3 139.75 5.9 139.45 5.25 139.4 4.75 139.4 4.2 139.4 3.6 139.6 3.0 139.75 2.55 139.8 1.9 140.1 1.3 140.65 0.7 140.95 0.25 141.3 -0.35 141.5 -1.0 M157.35 -24.0 L157.6 -23.4 157.6 -22.95 157.45 -22.35 157.3 -21.7 156.25 -19.45 155.2 -17.15 154.15 -14.85 154.1 -14.25 153.85 -13.8 153.6 -13.2 153.25 -12.6 153.15 -11.95 152.9 -11.5 152.4 -10.3 151.85 -9.25 151.65 -8.6 151.5 -8.0 151.4 -7.4 151.15 -6.95 150.95 -6.35 150.8 -5.7 150.75 -5.1 150.45 -4.65 150.1 -4.05 149.75 -3.45 149.7 -2.8 149.4 -2.4 149.2 -1.75 148.9 -1.15 148.5 -0.55 148.3 -0.1 148.15 0.5 147.85 1.15 147.45 1.75 147.25 2.2 146.95 2.8 146.55 3.25 146.2 3.25 145.7 2.8 145.4 2.2 145.35 1.75 145.35 1.15 145.35 0.5 146.6 -2.4 147.65 -4.65 148.7 -6.95 149.0 -7.4 149.2 -8.0 149.2 -8.6 149.4 -9.25 149.7 -9.7 149.95 -10.3 150.1 -10.9 150.25 -11.5 150.4 -11.95 150.65 -12.6 150.95 -13.2 151.3 -13.8 151.4 -14.25 152.0 -15.5 152.75 -17.15 153.25 -18.4 153.4 -18.8 153.45 -19.45 153.75 -20.05 154.3 -20.65 154.55 -21.1 154.8 -21.7 154.8 -22.35 155.0 -22.95 155.25 -23.4 155.5 -23.85 155.6 -24.0 156.05 -24.45 156.3 -24.75 Q156.55 -24.75 156.65 -24.9 L157.1 -24.6 157.35 -24.0 M192.3 -7.4 L192.75 -7.9 193.0 -8.35 193.2 -8.8 193.35 -8.95 193.8 -9.4 193.9 -9.85 194.0 -10.45 194.25 -11.05 194.5 -11.7 194.75 -11.95 195.1 -12.15 195.55 -11.85 195.8 -11.25 196.0 -10.65 196.0 -10.15 196.0 -9.55 195.9 -8.95 195.8 -8.35 195.55 -7.9 195.05 -6.65 194.4 -5.6 194.15 -5.0 194.0 -4.4 193.7 -4.05 193.3 -3.6 192.85 -3.0 192.65 -2.55 192.5 -1.95 192.25 -1.3 191.95 -1.05 191.55 -0.55 191.25 0.1 191.0 0.5 190.65 1.15 190.3 1.75 190.2 2.3 190.05 2.65 189.85 2.8 189.45 3.25 189.15 3.85 188.9 4.3 188.55 4.95 188.05 5.55 187.75 6.0 187.4 6.6 187.15 7.2 187.0 7.85 186.7 8.1 186.3 8.55 186.0 9.05 185.65 9.65 185.4 10.2 185.25 10.85 184.95 11.45 184.7 11.95 184.45 12.5 184.2 13.1 184.1 13.75 183.9 14.2 183.65 14.8 183.15 15.4 182.85 16.0 182.4 17.1 181.8 18.3 181.7 18.65 181.45 18.75 181.1 19.1 180.65 18.65 180.35 18.05 180.3 17.6 180.3 16.95 180.3 16.35 180.3 15.75 180.4 15.3 180.7 14.7 181.0 14.05 181.2 13.45 181.55 13.0 181.75 12.4 182.05 11.8 Q182.15 11.45 182.4 11.15 L182.5 10.75 182.85 10.1 183.1 9.5 183.3 8.9 183.85 7.85 184.6 6.15 184.8 5.7 184.95 5.55 185.4 5.1 185.65 4.6 185.95 4.05 186.2 3.4 186.8 2.8 187.05 2.3 187.35 1.75 187.6 1.15 187.85 0.5 188.1 0.2 188.55 -0.25 188.8 -0.7 189.1 -1.3 189.35 -1.95 189.95 -2.55 190.05 -3.0 190.15 -3.6 190.4 -4.2 191.0 -4.85 191.25 -5.3 191.6 -5.9 191.8 -6.5 192.05 -7.1 192.3 -7.4 M194.75 -0.55 Q194.95 -0.55 195.1 -0.7 L195.55 -0.4 195.8 0.2 196.0 0.8 196.0 1.25 196.0 1.85 195.9 2.45 195.8 3.1 195.45 3.55 195.2 4.15 195.05 4.75 194.75 5.1 194.35 5.55 193.8 6.6 193.0 8.25 192.4 9.5 192.25 10.1 191.95 10.4 191.55 10.85 191.25 11.45 191.0 11.95 190.75 12.5 190.5 13.1 190.2 13.45 189.8 13.9 189.5 14.2 189.1 14.7 188.8 15.3 188.55 15.75 188.2 16.35 187.7 16.95 187.4 17.6 187.25 17.85 187.05 18.05 186.65 18.5 186.35 19.1 186.2 19.35 186.0 19.55 185.65 19.85 185.15 19.35 184.9 18.75 184.8 18.3 184.8 17.7 184.8 17.1 184.8 16.45 184.95 16.0 185.25 15.4 185.5 14.8 186.1 14.2 186.35 13.75 186.55 13.3 186.7 13.1 187.15 12.7 187.5 12.25 187.7 11.6 187.95 11.0 188.55 10.4 188.8 10.1 189.25 9.65 189.5 9.15 189.8 8.55 190.3 7.4 190.65 6.9 190.85 6.25 191.1 5.7 191.7 5.1 191.95 4.6 192.5 3.4 193.0 2.3 193.35 1.75 193.55 1.15 193.8 0.5 194.05 0.2 194.5 -0.25 194.75 -0.55 M194.4 9.95 L194.85 10.2 195.1 10.85 195.3 11.45 195.3 11.95 195.2 12.5 195.05 13.1 194.95 13.75 194.75 14.2 194.6 14.8 194.35 15.4 194.05 15.75 193.65 16.2 193.35 16.8 193.1 17.25 192.75 17.85 192.25 18.5 191.95 18.75 191.55 19.25 191.25 19.85 191.1 20.15 190.9 20.3 190.55 20.6 190.05 20.15 189.8 19.55 189.7 19.1 189.7 18.5 189.7 17.85 189.7 17.25 189.85 16.8 190.15 16.2 190.4 15.6 191.0 14.95 191.25 14.7 191.7 14.2 191.95 13.75 192.25 13.1 192.5 12.5 193.1 11.95 193.35 11.45 193.65 10.85 193.9 10.2 194.4 9.95 M-174.9 -25.7 L-174.6 -25.95 -174.2 -26.45 -173.9 -27.05 -173.75 -27.35 -173.55 -27.5 -173.2 -27.8 -172.7 -27.35 -172.45 -26.75 -172.35 -26.3 -172.35 -25.7 -172.35 -25.05 -172.35 -24.45 -172.5 -24.0 -172.8 -23.4 -173.05 -22.8 -173.65 -22.15 -173.9 -21.9 -174.35 -21.4 -174.6 -20.95 -174.9 -20.35 -175.15 -19.7 -175.75 -19.15 -176.0 -18.65 -176.3 -18.05 -176.55 -17.45 -177.05 -17.15 -177.5 -17.45 -177.75 -18.05 -177.95 -18.65 -177.95 -19.15 -177.85 -19.7 -177.7 -20.35 -177.6 -20.95 -177.4 -21.4 -177.25 -22.0 -177.0 -22.6 -176.7 -22.95 -176.3 -23.4 -176.0 -24.0 -175.75 -24.45 -175.4 -25.05 -174.9 -25.7 M-169.9 -25.05 L-169.7 -25.25 -169.3 -25.7 -169.0 -26.3 -168.85 -26.55 -168.65 -26.75 -168.3 -27.05 -167.8 -26.55 -167.55 -25.95 -167.45 -25.5 -167.45 -24.9 -167.45 -24.3 -167.45 -23.65 -167.6 -23.25 -167.9 -22.6 -168.15 -22.0 -168.75 -21.4 -169.0 -20.95 -169.2 -20.5 -169.35 -20.35 -169.8 -19.9 -170.15 -19.45 -170.35 -18.8 -170.6 -18.2 -171.2 -17.6 -171.45 -17.3 -171.9 -16.85 -172.15 -16.35 -172.45 -15.75 -172.95 -14.6 -173.3 -14.1 -173.5 -13.45 -173.75 -12.9 -174.35 -12.3 -174.6 -11.8 -175.15 -10.65 -175.65 -9.5 -176.0 -8.95 -176.2 -8.35 -176.45 -7.75 -176.7 -7.4 -177.15 -6.95 -177.4 -6.65 -177.75 -6.5 -178.2 -6.8 -178.45 -7.4 -178.65 -8.0 -178.65 -8.45 -178.65 -9.05 -178.55 -9.7 -178.45 -10.3 -178.1 -10.75 -177.85 -11.35 -177.7 -11.95 -177.4 -12.3 -177.0 -12.75 -176.45 -13.8 -175.65 -15.5 -175.05 -16.7 -174.9 -17.3 -174.6 -17.6 -174.2 -18.05 -173.9 -18.65 -173.65 -19.15 -173.4 -19.7 -173.15 -20.35 -172.85 -20.65 -172.45 -21.1 -172.15 -21.4 -171.75 -21.9 -171.45 -22.5 -171.2 -22.95 -170.85 -23.55 -170.35 -24.2 -170.05 -24.8 -169.9 -25.05 M-163.0 -25.25 L-162.95 -24.8 -162.95 -24.2 -162.95 -23.55 -162.95 -22.95 -163.05 -22.5 -163.35 -21.9 -163.65 -21.3 -163.85 -20.65 -164.2 -20.2 -164.4 -19.6 -164.7 -19.0 Q-164.8 -18.65 -165.05 -18.4 L-165.15 -17.95 -165.5 -17.3 -165.75 -16.7 -165.95 -16.1 -166.5 -15.05 -167.25 -13.35 -167.45 -12.9 -167.6 -12.75 -168.05 -12.3 -168.3 -11.8 -168.6 -11.25 -168.85 -10.65 -169.45 -10.0 -169.7 -9.5 -170.0 -8.95 -170.25 -8.35 -170.5 -7.75 -170.75 -7.4 -171.2 -6.95 -171.45 -6.5 -171.75 -5.9 -172.0 -5.3 -172.6 -4.65 -172.7 -4.2 -172.8 -3.6 -173.05 -3.0 -173.65 -2.4 -173.9 -1.95 -174.25 -1.3 -174.45 -0.7 -174.7 -0.1 -174.95 0.2 -175.4 0.7 -175.65 1.15 -175.85 1.6 -176.0 1.75 -176.45 2.2 -176.55 2.65 -176.65 3.25 -176.9 3.85 -177.15 4.5 -177.4 4.75 Q-177.6 4.75 -177.75 4.95 L-178.2 4.65 -178.45 4.05 -178.65 3.4 -178.65 2.9 -178.65 2.35 -178.55 1.75 -178.45 1.15 -178.2 0.7 -177.7 -0.55 -177.05 -1.6 -176.8 -2.2 -176.65 -2.8 -176.35 -3.15 -175.95 -3.6 -175.5 -4.2 -175.3 -4.65 -175.15 -5.3 -174.9 -5.9 -174.6 -6.15 -174.2 -6.65 -173.9 -7.3 -173.65 -7.75 -173.3 -8.35 -172.95 -8.95 -172.85 -9.5 -172.7 -9.85 -172.5 -10.0 -172.1 -10.45 -171.8 -11.05 -171.55 -11.5 -171.2 -12.15 -170.7 -12.75 -170.4 -13.2 -170.05 -13.8 -169.8 -14.4 -169.65 -15.05 -169.35 -15.3 -168.95 -15.75 -168.65 -16.25 -168.3 -16.85 -168.05 -17.45 -167.9 -18.05 -167.6 -18.65 -167.35 -19.15 -167.1 -19.7 -166.85 -20.35 -166.75 -20.95 -166.55 -21.4 -166.3 -22.0 -165.8 -22.6 -165.5 -23.25 -165.05 -24.3 -164.45 -25.5 -164.35 -25.85 -164.1 -25.95 -163.75 -26.3 -163.3 -25.85 -163.0 -25.25 M-122.35 -17.35 L-122.1 -17.65 -121.65 -18.15 -121.55 -18.6 -121.45 -19.2 -121.2 -19.85 -120.95 -20.45 -120.7 -20.9 -120.5 -21.5 -120.5 -22.1 -120.25 -22.75 -120.0 -23.15 -119.7 -23.8 -119.45 -24.4 -118.95 -24.7 -118.6 -24.7 -118.2 -24.4 -117.9 -23.8 -117.7 -23.15 -117.7 -22.75 -117.85 -22.1 -117.95 -21.5 -118.25 -20.9 -118.55 -20.45 -118.75 -19.85 -119.3 -18.6 -119.45 -18.15 -119.55 -17.55 -119.7 -16.95 -120.0 -16.3 -120.15 -15.85 -120.25 -15.25 -120.4 -14.65 -120.85 -14.05 -121.05 -13.6 -121.2 -12.95 -121.45 -12.35 -121.55 -11.75 -121.75 -11.3 -121.9 -10.7 -122.15 -10.05 -122.45 -9.45 -122.6 -9.0 -122.7 -8.4 -122.85 -7.8 -123.3 -7.15 -123.5 -6.7 -123.65 -6.1 -123.9 -5.5 -124.2 -4.9 -124.45 -4.45 -124.7 -3.85 -124.8 -3.2 -124.9 -2.6 -125.4 -1.55 -125.95 -0.3 -126.7 1.35 -127.15 1.95 -127.15 2.4 -127.25 3.05 -127.4 3.65 -127.7 3.9 -128.1 4.45 -128.4 5.0 -128.65 5.5 -128.9 6.1 -129.15 6.65 -129.25 7.25 -129.45 7.75 -129.6 8.4 -129.7 8.95 -129.8 9.55 -130.15 10.05 -130.4 10.6 -130.55 11.25 -130.85 11.85 -131.1 12.35 -131.6 13.5 -132.05 14.45 -132.25 14.55 -132.6 14.9 -133.1 14.45 -133.35 13.85 -133.45 13.4 -133.45 12.8 -133.45 12.2 -133.45 11.55 -133.3 11.1 -133.1 10.6 -132.95 10.5 -132.5 10.05 -132.4 9.55 -132.3 8.95 -132.05 8.4 -131.8 7.75 -131.55 7.25 -131.35 6.65 -131.35 6.1 -131.1 5.5 -130.85 5.0 -130.65 4.45 -130.65 3.8 -130.4 3.2 -130.15 2.85 -129.7 2.4 -129.6 1.95 -129.5 1.35 -129.25 0.75 -128.9 0.15 -128.75 -0.3 -128.45 -0.95 -128.2 -1.55 -127.85 -2.15 -127.7 -2.6 -127.5 -3.05 -127.35 -3.2 -126.9 -3.65 -126.8 -4.1 -126.7 -4.7 -126.45 -5.35 -126.2 -5.95 -126.1 -6.4 -126.0 -7.0 -125.75 -7.6 -125.15 -8.25 -125.05 -8.7 -124.95 -9.3 -124.7 -9.9 -124.45 -10.5 -124.35 -10.95 -124.25 -11.6 -124.0 -12.2 -123.75 -12.8 -123.5 -13.25 -123.2 -13.85 -123.05 -14.45 -122.95 -15.1 -122.8 -15.55 -122.6 -16.15 -122.6 -16.75 -122.35 -17.35 M-122.15 -7.0 L-121.9 -7.6 -121.65 -8.25 -121.4 -8.7 -121.1 -9.3 -120.95 -9.9 -120.85 -10.5 -120.7 -10.95 -120.15 -12.2 -119.35 -13.85 -118.9 -15.1 -118.75 -15.55 -118.65 -16.15 -118.4 -16.75 -118.2 -17.35 -117.9 -17.65 -117.5 -18.15 -117.35 -18.6 -117.25 -19.2 -117.0 -19.85 -116.8 -20.45 -116.2 -21.5 -115.95 -22.1 -115.45 -22.4 -115.05 -22.1 -114.75 -21.5 -114.55 -20.9 -114.55 -20.45 -114.55 -19.85 -114.7 -19.2 -114.75 -18.6 -115.8 -16.3 -116.85 -14.05 -117.9 -11.75 -118.05 -11.3 -118.2 -10.7 -118.3 -10.05 -118.6 -9.45 -118.9 -9.0 -119.1 -8.4 -119.35 -7.8 -119.45 -7.15 -119.65 -6.7 -119.8 -6.1 -120.05 -5.5 -120.35 -4.9 -120.6 -4.45 -120.85 -3.85 -120.95 -3.2 -121.05 -2.6 -121.3 -2.15 -121.55 -1.55 -121.8 -0.95 -121.9 -0.3 -122.1 0.15 -122.35 0.75 -122.7 1.35 -122.8 1.95 -123.15 2.4 -123.4 3.05 -123.55 3.65 -123.85 3.9 -124.2 4.25 -124.55 4.25 -125.05 3.8 -125.3 3.2 -125.4 2.7 -125.4 2.15 -125.4 1.55 -125.15 0.9 -124.6 -0.15 -124.1 -1.35 -123.85 -1.8 -123.65 -2.45 -123.65 -3.05 -123.4 -3.65 -123.15 -4.1 -122.6 -5.35 -122.35 -5.95 -122.25 -6.4 -122.15 -7.0 M-114.75 -13.25 L-114.45 -13.85 -114.2 -14.45 -113.7 -14.8 -113.0 -14.8 -112.6 -14.45 -112.3 -13.85 -112.1 -13.25 -112.1 -12.8 -112.25 -12.2 -112.35 -11.6 -112.65 -11.3 -113.05 -10.85 -113.35 -10.25 -113.65 -9.75 -113.85 -9.2 -114.1 -8.55 -114.55 -7.95 -114.75 -7.5 -115.05 -6.9 -115.5 -6.3 -115.8 -5.65 -115.95 -5.2 -116.1 -4.6 -116.2 -4.0 -116.5 -3.65 -116.9 -3.2 -117.0 -2.6 -117.2 -2.15 -117.5 -1.55 -117.95 -0.95 -118.05 -0.3 -118.25 0.15 -118.4 0.75 -118.65 1.35 -119.1 1.95 -119.3 2.4 -119.45 3.05 -119.55 3.65 -119.65 4.25 -120.0 4.7 -120.25 5.3 -120.4 5.95 -120.7 6.55 -120.95 7.0 -121.2 7.6 -121.45 8.2 -121.55 8.85 -121.75 9.3 -121.9 9.9 -122.15 10.5 -122.45 11.1 -122.6 11.55 -122.7 12.2 -122.85 12.8 -122.95 13.4 -123.15 13.85 -123.3 14.45 -123.55 15.05 -123.85 15.7 -124.0 16.15 -124.1 16.75 -124.25 17.35 -124.55 17.95 -124.7 18.25 -124.9 18.4 -125.25 18.7 -125.6 18.7 -126.1 18.25 -126.35 17.65 -126.45 17.2 -126.45 16.6 -126.45 15.95 -126.2 15.35 -125.95 14.9 -125.75 14.3 -125.75 13.7 -125.5 13.05 -125.25 12.6 -124.95 12.0 -124.8 11.4 -124.7 10.8 -124.55 10.35 -124.35 9.7 -124.35 9.1 -124.1 8.5 -123.85 8.05 -123.55 7.45 -123.05 6.2 -122.95 5.75 -122.85 5.15 -122.6 4.55 -122.35 3.9 -122.1 3.5 -121.9 2.85 -121.9 2.25 -121.65 1.65 -121.4 1.35 -120.95 0.9 -120.85 0.45 -120.75 -0.15 -120.5 -0.75 -120.0 -1.8 -119.2 -3.65 -118.65 -4.7 -118.55 -5.35 -118.4 -5.95 -118.25 -6.4 -117.9 -7.0 -117.7 -7.6 -117.5 -8.25 -117.2 -8.7 -116.9 -9.3 -116.65 -9.9 -116.1 -10.5 -115.8 -10.95 -115.45 -11.6 -115.25 -12.2 -115.05 -12.8 -114.75 -13.25 M-81.45 -1.35 L-81.15 -1.8 -80.8 -2.45 -80.6 -3.05 -79.85 -4.7 -78.8 -7.0 -77.75 -9.3 -77.6 -9.9 -77.45 -10.5 -77.3 -10.95 -77.05 -11.6 -76.75 -12.2 -76.55 -12.8 -76.4 -13.25 -76.35 -13.85 -76.05 -14.45 -75.85 -15.1 -75.55 -15.55 -75.35 -16.15 -75.35 -16.75 -75.15 -17.35 -74.85 -17.65 -74.45 -18.15 -74.3 -18.6 -74.25 -19.2 -73.95 -19.85 -73.75 -20.45 -73.4 -20.9 -73.2 -21.5 -72.9 -22.1 -72.7 -22.75 -72.4 -23.15 -72.2 -23.8 -72.2 -24.4 -72.0 -25.0 -71.7 -25.45 -71.45 -26.05 -71.15 -26.7 -70.7 -26.95 -70.25 -26.7 -70.0 -26.05 -69.75 -25.45 -69.75 -25.0 -69.75 -24.4 -69.9 -23.8 -70.0 -23.15 -70.25 -22.75 -70.45 -22.1 -70.6 -21.5 -70.7 -20.9 -70.95 -20.45 -71.15 -19.85 -71.45 -19.2 -71.5 -18.6 -71.7 -18.15 -72.0 -17.55 -72.5 -16.95 -72.55 -16.3 -72.75 -15.85 -72.9 -15.25 -73.2 -14.65 -73.45 -14.3 -73.9 -13.85 -73.95 -13.25 -74.15 -12.8 -74.3 -12.2 -74.6 -11.6 -74.65 -10.95 -74.85 -10.5 -75.0 -9.9 -75.3 -9.3 -75.55 -8.7 -76.05 -7.6 -76.35 -7.0 -76.4 -6.4 -76.6 -5.95 -76.9 -5.35 -77.25 -4.7 -77.3 -4.1 -77.6 -3.65 -77.95 -3.05 -78.3 -2.45 -78.35 -1.8 -78.85 -0.75 -79.7 0.9 -80.2 2.15 -80.6 2.7 -80.8 3.2 -81.1 3.8 -81.5 4.25 -81.85 4.25 -82.35 3.8 -82.65 3.2 -82.7 2.7 -82.7 2.15 -82.7 1.55 -82.5 0.9 -82.35 0.45 -82.3 -0.15 -82.0 -0.75 -81.45 -1.35 M-66.85 -25.45 L-66.6 -25.9 -66.5 -26.05 -66.05 -26.5 -65.8 -26.8 Q-65.55 -26.8 -65.45 -26.95 L-65.0 -26.7 -64.75 -26.05 -64.5 -25.45 -64.5 -25.0 -64.65 -24.4 -64.8 -23.8 -65.85 -21.5 -66.9 -19.2 -67.95 -16.95 -68.0 -16.3 -68.25 -15.85 -68.5 -15.25 -68.85 -14.65 -68.95 -14.05 -69.2 -13.6 -69.7 -12.35 -70.25 -11.3 -70.45 -10.7 -70.6 -10.05 -70.7 -9.45 -70.95 -9.0 -71.15 -8.4 -71.3 -7.8 -71.35 -7.15 -71.65 -6.7 -72.0 -6.1 -72.35 -5.5 -72.4 -4.9 -72.7 -4.45 -72.9 -3.85 -73.2 -3.2 -73.6 -2.6 -73.8 -2.15 -73.95 -1.55 -74.25 -0.95 -74.65 -0.3 -74.85 0.15 -75.15 0.75 -75.55 1.2 -75.9 1.2 -76.4 0.75 -76.7 0.15 -76.75 -0.3 -76.75 -0.95 -76.75 -1.55 -75.5 -4.45 -74.45 -6.7 -73.4 -9.0 -73.1 -9.45 -72.9 -10.05 -72.9 -10.7 -72.7 -11.3 -72.4 -11.75 -72.15 -12.35 -72.0 -12.95 -71.85 -13.6 -71.7 -14.05 -71.45 -14.65 -71.15 -15.25 -70.8 -15.85 -70.7 -16.3 -70.1 -17.55 -69.35 -19.2 -68.85 -20.45 -68.7 -20.9 -68.65 -21.5 -68.35 -22.1 -67.8 -22.75 -67.55 -23.15 -67.3 -23.8 -67.3 -24.4 -67.1 -25.0 -66.85 -25.45 M-20.75 -0.75 L-20.5 -1.35 -20.15 -2.0 -20.0 -2.45 -19.8 -2.9 -19.65 -3.05 -19.2 -3.5 -19.1 -3.95 -19.0 -4.55 -18.75 -5.15 -18.5 -5.8 -18.4 -6.2 -18.3 -6.85 -18.05 -7.45 -17.45 -8.05 -17.35 -8.5 -17.25 -9.1 -17.0 -9.75 -16.75 -10.35 -16.65 -10.8 -16.55 -11.4 -16.3 -12.0 -16.05 -12.65 -15.8 -13.1 -15.5 -13.7 -15.35 -14.3 -15.25 -14.9 -15.1 -15.35 -14.9 -16.0 -14.9 -16.6 -14.65 -17.2 -14.4 -17.5 -13.95 -18.0 -13.85 -18.45 -13.75 -19.05 -13.5 -19.65 -13.25 -20.25 -13.0 -20.7 -12.8 -21.35 -12.8 -21.95 -12.55 -22.55 -12.3 -23.0 -12.0 -23.6 -11.75 -24.25 -11.25 -24.5 -10.9 -24.5 -10.5 -24.25 -10.2 -23.6 -10.0 -23.0 -10.0 -22.55 -10.15 -21.95 -10.25 -21.35 -10.55 -20.7 -10.85 -20.25 -11.05 -19.65 -11.6 -18.45 -11.75 -18.0 -11.85 -17.35 -12.0 -16.75 -12.3 -16.15 -12.45 -15.7 -12.55 -15.1 -12.7 -14.45 -13.15 -13.85 -13.35 -13.4 -13.5 -12.8 -13.75 -12.2 -13.85 -11.6 -14.05 -11.15 -14.2 -10.5 -14.45 -9.9 -14.75 -9.3 -14.9 -8.85 -15.0 -8.25 -15.15 -7.6 -15.6 -7.0 -15.8 -6.55 -15.95 -5.95 -16.2 -5.35 -16.5 -4.7 -16.75 -4.25 -17.0 -3.65 -17.1 -3.05 -17.2 -2.45 -17.7 -1.35 -18.25 -0.15 -19.0 1.55 -19.45 2.15 -19.45 2.6 -19.55 3.2 -19.7 3.8 -20.0 4.1 -20.4 4.6 -20.7 5.15 -20.95 5.65 -21.2 6.25 -21.45 6.8 -21.55 7.45 -21.75 7.95 -21.9 8.55 -22.0 9.1 -22.1 9.7 -22.45 10.2 -22.7 10.8 -22.85 11.4 -23.15 12.0 -23.4 12.5 -23.9 13.7 -24.35 14.65 -24.55 14.75 -24.9 15.05 -25.4 14.65 -25.65 14.0 -25.75 13.55 -25.75 12.95 -25.75 12.35 -25.75 11.75 -25.6 11.3 -25.4 10.8 -25.25 10.65 -24.8 10.2 -24.7 9.7 -24.6 9.1 -24.35 8.55 -24.1 7.95 -23.85 7.45 -23.65 6.8 -23.65 6.25 -23.4 5.65 -23.15 5.15 -22.95 4.6 -22.95 4.0 -22.7 3.35 -22.45 3.05 -22.0 2.6 -21.9 2.15 -21.8 1.55 -21.55 0.9 -21.2 0.3 -21.05 -0.15 -20.75 -0.75 M-7.75 -22.2 L-7.35 -21.95 -7.05 -21.35 -6.85 -20.7 -6.85 -20.25 -6.85 -19.65 -7.0 -19.05 -7.05 -18.45 -8.1 -16.15 -9.15 -13.85 -10.2 -11.6 -10.35 -11.15 -10.5 -10.5 -10.6 -9.9 -10.9 -9.3 -11.2 -8.85 -11.4 -8.25 -11.65 -7.6 -11.75 -7.0 -11.95 -6.55 -12.1 -5.95 -12.35 -5.35 -12.65 -4.7 -12.9 -4.25 -13.15 -3.65 -13.25 -3.05 -13.35 -2.45 -13.6 -2.0 -13.85 -1.35 -14.1 -0.75 -14.2 -0.15 -14.4 0.3 -14.65 0.9 -15.0 1.55 -15.1 2.15 -15.45 2.6 -15.7 3.2 -15.85 3.8 -16.15 4.1 -16.5 4.45 -16.85 4.45 -17.35 4.0 -17.6 3.35 -17.7 2.85 -17.7 2.3 -17.7 1.7 -17.45 1.1 -16.9 0.0 -16.4 -1.2 -16.15 -1.65 -15.95 -2.25 -15.95 -2.9 -15.7 -3.5 -15.45 -3.95 -14.9 -5.15 -14.65 -5.8 -14.55 -6.2 -14.45 -6.85 -14.2 -7.45 -13.95 -8.05 -13.7 -8.5 -13.4 -9.1 -13.25 -9.75 -13.15 -10.35 -13.0 -10.8 -12.45 -12.0 -11.65 -13.7 -11.2 -14.9 -11.05 -15.35 -10.95 -16.0 -10.7 -16.6 -10.5 -17.2 -10.2 -17.5 -9.8 -18.0 -9.65 -18.45 -9.55 -19.05 -9.3 -19.65 -9.1 -20.25 -8.5 -21.35 -8.25 -21.95 -7.75 -22.2 M-6.75 -13.7 L-6.5 -14.3 -6.0 -14.65 -5.3 -14.65 -4.9 -14.3 -4.6 -13.7 -4.4 -13.1 -4.4 -12.65 -4.55 -12.0 -4.65 -11.4 -4.95 -11.15 -5.35 -10.7 -5.65 -10.05 -5.95 -9.55 -6.15 -9.0 -6.4 -8.4 -6.85 -7.8 -7.05 -7.35 -7.35 -6.7 -7.8 -6.1 -8.1 -5.5 -8.25 -5.05 -8.4 -4.45 -8.5 -3.85 -8.8 -3.5 -9.2 -3.05 -9.3 -2.45 -9.5 -2.0 -9.8 -1.35 -10.25 -0.75 -10.35 -0.15 -10.55 0.3 -10.7 0.9 -10.95 1.55 -11.4 2.15 -11.6 2.6 -11.75 3.2 -11.85 3.8 -11.95 4.45 -12.3 4.85 -12.55 5.5 -12.7 6.1 -13.0 6.7 -13.25 7.15 -13.5 7.75 -13.75 8.4 -13.85 9.0 -14.05 9.45 -14.2 10.05 -14.45 10.65 -14.75 11.3 -14.9 11.75 -15.0 12.35 -15.15 12.95 -15.25 13.55 -15.45 14.0 -15.6 14.65 -15.85 15.25 -16.15 15.85 -16.3 16.3 -16.4 16.9 -16.55 17.55 -16.85 18.15 -17.0 18.4 -17.2 18.6 -17.55 18.85 -17.9 18.85 -18.4 18.4 -18.65 17.8 -18.75 17.35 -18.75 16.75 -18.75 16.15 -18.5 15.5 -18.25 15.05 -18.05 14.45 -18.05 13.85 -17.8 13.25 -17.55 12.8 -17.25 12.2 -17.1 11.55 -17.0 10.95 -16.85 10.5 -16.65 9.9 -16.65 9.3 -16.4 8.65 -16.15 8.2 -15.85 7.6 -15.35 6.4 -15.25 5.95 -15.15 5.3 -14.9 4.7 -14.65 4.1 -14.4 3.65 -14.2 3.05 -14.2 2.4 -13.95 1.8 -13.7 1.55 -13.25 1.1 -13.15 0.65 -13.05 0.0 -12.8 -0.6 -12.3 -1.65 -11.5 -3.5 -10.95 -4.55 -10.85 -5.15 -10.7 -5.8 -10.55 -6.2 -10.2 -6.85 -10.0 -7.45 -9.8 -8.05 -9.5 -8.5 -9.2 -9.1 -8.95 -9.75 -8.4 -10.35 -8.1 -10.8 -7.75 -11.4 -7.55 -12.0 -7.35 -12.65 -7.05 -13.1 -6.75 -13.7" fill="#ecffff" fill-opacity="0.25882354" fill-rule="evenodd" stroke="none"/>
    <path d="M39.35 -28.6 Q43.85 -28.3 63.05 -28.15 L189.6 -28.15 190.1 -28.3 197.6 -28.3 Q198.5 -27.85 198.5 -27.2 L198.2 -26.55 198.35 -26.05 Q199.75 -21.35 199.25 -18.95 L199.25 -4.5 Q199.75 -1.15 199.75 9.85 L200.0 13.2 199.85 17.85 199.85 20.6 200.0 21.3 199.65 22.0 199.7 22.3 199.55 22.75 198.4 23.45 198.4 23.35 195.2 23.4 191.3 23.6 66.7 23.6 51.7 23.1 Q47.2 23.65 39.7 22.9 L-109.3 22.9 -111.05 23.05 -157.35 23.15 -157.85 23.35 -165.85 23.35 -167.0 22.9 -179.4 22.75 -179.85 22.5 Q-180.8 22.25 -180.95 19.65 L-180.8 18.75 Q-181.35 15.7 -181.0 14.0 L-180.65 -0.4 Q-181.05 -3.85 -180.8 -14.8 L-181.0 -18.15 -180.7 -22.85 -180.65 -25.55 -180.8 -26.3 -180.7 -26.5 -180.9 -26.5 -180.8 -27.8 -180.8 -28.5 -180.2 -28.95 -180.2 -28.85 -177.5 -28.9 -177.0 -28.9 -175.65 -28.95 -175.65 -28.85 36.4 -28.85 39.35 -28.6 M47.55 -26.4 Q43.0 -25.85 35.5 -26.65 L-113.5 -26.65 -115.25 -26.45 -158.55 -26.35 -159.05 -26.2 -167.05 -26.2 -168.2 -26.65 -178.5 -26.75 -178.45 -26.15 -178.65 -26.15 -179.15 -3.85 -178.7 -1.25 -179.05 13.25 Q-178.85 14.65 -178.9 17.8 L-179.0 20.35 -178.7 20.85 -178.4 20.65 -177.5 20.65 -175.8 20.6 -175.65 20.6 -175.65 20.65 40.55 20.65 43.5 20.95 67.2 21.35 190.8 21.35 191.3 21.2 197.85 21.2 197.85 -1.1 197.35 -3.6 197.35 -18.1 Q197.1 -19.5 197.1 -22.65 L197.2 -26.2 194.0 -26.15 190.1 -25.9 62.5 -25.9 47.55 -26.4" fill="#000000" fill-rule="evenodd" stroke="none"/>
  </g>
</svg>
