<?xml version="1.0" encoding="UTF-8" standalone="no"?>
<svg xmlns:ffdec="https://www.free-decompiler.com/flash" xmlns:xlink="http://www.w3.org/1999/xlink" ffdec:objectType="shape" height="24.0px" width="206.6px" xmlns="http://www.w3.org/2000/svg">
  <g transform="matrix(1.0, 0.0, 0.0, 1.0, 29.1, -6.1)">
    <path d="M162.2 6.65 L162.35 6.8 165.45 11.3 168.95 6.1 177.5 6.1 177.5 28.75 168.1 28.75 168.1 26.1 165.45 30.1 162.75 26.1 162.75 28.75 153.35 28.75 153.35 23.75 151.85 25.45 Q148.75 28.5 144.6 28.75 L143.05 28.75 Q138.85 28.5 135.8 25.45 L134.45 23.85 134.45 28.75 125.25 28.75 Q121.05 28.5 118.0 25.45 L116.65 23.75 116.65 24.2 Q116.65 26.1 115.2 27.45 114.05 28.6 112.45 28.75 L111.5 28.75 Q109.85 28.6 108.7 27.45 107.2 26.1 107.2 24.2 107.2 22.7 108.0 21.55 106.1 22.55 103.9 22.55 L99.55 22.55 99.55 28.75 49.8 28.75 Q45.25 28.5 42.1 25.55 40.25 23.9 39.3 21.9 L39.3 28.75 20.35 28.75 20.45 26.4 Q20.3 22.25 18.25 20.25 L17.35 19.5 17.35 28.75 -10.65 28.75 -10.65 25.65 -13.85 30.0 -17.0 25.65 -17.0 28.75 -26.95 28.75 -26.95 15.35 -29.1 15.35 -29.1 6.1 -17.85 6.1 -17.45 6.65 -17.25 6.8 -13.75 11.55 -9.75 6.1 9.85 6.1 Q14.4 6.2 18.25 7.85 L20.45 8.95 20.45 6.1 39.3 6.1 39.3 12.95 Q40.25 10.95 42.1 9.45 L42.1 9.35 Q45.5 6.2 50.3 6.1 L68.6 6.1 68.6 19.5 80.75 19.5 80.75 6.1 104.1 6.1 Q107.5 6.2 110.0 8.5 112.7 10.9 112.7 14.3 112.7 17.35 110.65 19.65 L111.95 19.5 Q113.85 19.5 115.15 20.8 114.7 19.25 114.7 17.35 114.7 12.8 118.05 9.45 121.35 6.2 125.7 6.1 L134.45 6.1 134.45 11.15 135.85 9.45 Q139.1 6.2 143.55 6.1 L144.15 6.1 Q148.7 6.2 151.85 9.45 L153.35 11.15 153.3 6.1 161.85 6.1 162.2 6.65 M169.8 7.7 L165.45 14.3 160.85 7.7 155.0 7.7 155.0 27.15 161.0 27.15 161.0 20.6 165.45 27.15 169.8 20.6 169.8 27.15 175.8 27.15 175.8 7.7 169.8 7.7 M143.9 13.65 Q145.4 13.65 146.5 14.8 147.65 15.95 147.65 17.35 147.65 19.05 146.5 20.1 145.45 21.25 143.9 21.25 142.4 21.25 141.3 20.1 140.2 19.05 140.2 17.35 140.2 15.95 141.3 14.8 142.4 13.65 143.9 13.65 M150.7 10.65 Q147.85 7.7 143.9 7.7 139.9 7.7 137.05 10.65 134.25 13.45 134.25 17.35 134.25 21.5 137.05 24.25 139.9 27.15 143.9 27.15 147.85 27.15 150.7 24.25 153.5 21.4 153.5 17.35 153.5 13.45 150.7 10.65 M145.25 16.0 Q144.6 15.35 143.9 15.35 143.0 15.35 142.5 16.0 141.85 16.65 141.85 17.35 141.85 18.25 142.5 18.9 L142.5 19.05 Q143.0 19.5 143.9 19.5 144.6 19.5 145.25 18.9 L145.4 18.9 Q145.9 18.25 145.9 17.35 145.9 16.65 145.25 16.0 M123.5 14.8 Q124.55 13.65 126.1 13.65 L132.85 13.65 132.85 7.7 126.1 7.7 Q122.1 7.7 119.25 10.65 116.45 13.45 116.45 17.35 116.45 21.5 119.25 24.25 122.1 27.15 126.1 27.15 L132.85 27.15 132.85 21.25 126.1 21.25 Q124.55 21.25 123.5 20.1 122.4 19.05 122.4 17.35 122.4 15.95 123.5 14.8 M124.7 16.0 Q124.05 16.65 124.05 17.35 124.05 18.25 124.7 18.9 L124.7 19.05 Q125.2 19.5 126.1 19.5 L132.7 19.5 132.45 17.35 132.7 15.35 126.1 15.35 Q125.2 15.35 124.7 16.0 M108.9 9.65 Q106.75 7.7 103.9 7.7 L91.45 7.7 91.45 27.15 97.95 27.15 97.95 20.85 103.9 20.85 Q106.75 20.85 108.9 19.05 110.95 17.05 110.95 14.3 110.95 11.65 108.9 9.65 M109.85 22.0 Q108.95 22.85 108.95 24.2 108.95 25.4 109.85 26.3 110.75 27.15 111.95 27.15 113.1 27.15 114.05 26.3 114.9 25.4 114.9 24.2 114.9 22.85 114.05 22.0 113.1 21.15 111.95 21.15 110.75 21.15 109.85 22.0 M104.5 14.3 Q104.5 15.85 102.55 15.85 L97.95 15.85 97.95 12.8 102.55 12.8 Q104.5 12.8 104.5 14.3 M88.95 7.7 L82.45 7.7 82.45 27.15 88.95 27.15 88.95 7.7 M66.95 21.25 L66.95 7.7 60.45 7.7 60.45 27.15 79.95 27.15 79.95 21.25 66.95 21.25 M58.0 7.7 L50.65 7.7 Q46.3 7.7 43.15 10.65 40.05 13.45 40.05 17.35 40.05 21.5 43.15 24.25 46.25 27.15 50.65 27.15 L58.0 27.15 58.0 21.25 50.65 21.25 Q48.95 21.25 47.85 20.1 46.55 19.05 46.55 17.35 46.55 15.95 47.85 14.8 48.95 13.8 50.65 13.65 L58.0 13.65 58.0 7.7 M48.95 16.1 Q48.3 16.65 48.3 17.35 48.3 18.25 48.95 18.9 49.6 19.5 50.65 19.5 L58.75 19.5 58.75 15.35 50.65 15.35 Q49.6 15.35 48.95 16.1 M37.55 7.7 L31.1 7.7 31.1 27.15 37.55 27.15 37.55 7.7 M22.15 7.7 L22.15 12.8 Q21.0 10.9 17.55 9.45 13.75 7.7 9.15 7.7 L9.1 7.7 9.1 27.15 15.55 27.15 15.55 17.3 Q17.65 17.3 19.45 19.05 22.15 21.55 22.15 27.15 L28.7 27.15 28.7 7.7 22.15 7.7 M6.7 7.7 L0.1 7.7 0.1 27.15 6.7 27.15 6.7 7.7 M-8.85 7.7 L-13.75 14.3 -18.7 7.7 -27.55 7.7 -27.55 13.65 -25.25 13.65 -25.25 27.15 -18.7 27.15 -18.7 20.6 -13.75 27.15 -8.85 20.6 -8.85 27.15 -2.35 27.15 -2.35 7.7 -8.85 7.7" fill="#ffffff" fill-rule="evenodd" stroke="none"/>
    <path d="M169.8 7.7 L175.8 7.7 175.8 27.15 169.8 27.15 169.8 20.6 165.45 27.15 161.0 20.6 161.0 27.15 155.0 27.15 155.0 7.7 160.85 7.7 165.45 14.3 169.8 7.7" fill="url(#gradient0)" fill-rule="evenodd" stroke="none"/>
    <path d="M150.7 10.65 Q153.5 13.45 153.5 17.35 153.5 21.4 150.7 24.25 147.85 27.15 143.9 27.15 139.9 27.15 137.05 24.25 134.25 21.5 134.25 17.35 134.25 13.45 137.05 10.65 139.9 7.7 143.9 7.7 147.85 7.7 150.7 10.65 M143.9 13.65 Q142.4 13.65 141.3 14.8 140.2 15.95 140.2 17.35 140.2 19.05 141.3 20.1 142.4 21.25 143.9 21.25 145.45 21.25 146.5 20.1 147.65 19.05 147.65 17.35 147.65 15.95 146.5 14.8 145.4 13.65 143.9 13.65" fill="url(#gradient1)" fill-rule="evenodd" stroke="none"/>
    <path d="M123.5 14.8 Q122.4 15.95 122.4 17.35 122.4 19.05 123.5 20.1 124.55 21.25 126.1 21.25 L132.85 21.25 132.85 27.15 126.1 27.15 Q122.1 27.15 119.25 24.25 116.45 21.5 116.45 17.35 116.45 13.45 119.25 10.65 122.1 7.7 126.1 7.7 L132.85 7.7 132.85 13.65 126.1 13.65 Q124.55 13.65 123.5 14.8 M109.85 22.0 Q110.75 21.15 111.95 21.15 113.1 21.15 114.05 22.0 114.9 22.85 114.9 24.2 114.9 25.4 114.05 26.3 113.1 27.15 111.95 27.15 110.75 27.15 109.85 26.3 108.95 25.4 108.95 24.2 108.95 22.85 109.85 22.0" fill="url(#gradient2)" fill-rule="evenodd" stroke="none"/>
    <path d="M108.9 9.65 Q110.95 11.65 110.95 14.3 110.95 17.05 108.9 19.05 106.75 20.85 103.9 20.85 L97.95 20.85 97.95 27.15 91.45 27.15 91.45 7.7 103.9 7.7 Q106.75 7.7 108.9 9.65 M104.5 14.3 Q104.5 12.8 102.55 12.8 L97.95 12.8 97.95 15.85 102.55 15.85 Q104.5 15.85 104.5 14.3" fill="url(#gradient3)" fill-rule="evenodd" stroke="none"/>
    <path d="M88.95 7.7 L88.95 27.15 82.45 27.15 82.45 7.7 88.95 7.7" fill="url(#gradient4)" fill-rule="evenodd" stroke="none"/>
    <path d="M66.95 21.25 L79.95 21.25 79.95 27.15 60.45 27.15 60.45 7.7 66.95 7.7 66.95 21.25" fill="url(#gradient5)" fill-rule="evenodd" stroke="none"/>
    <path d="M58.0 7.7 L58.0 13.65 50.65 13.65 Q48.95 13.8 47.85 14.8 46.55 15.95 46.55 17.35 46.55 19.05 47.85 20.1 48.95 21.25 50.65 21.25 L58.0 21.25 58.0 27.15 50.65 27.15 Q46.25 27.15 43.15 24.25 40.05 21.5 40.05 17.35 40.05 13.45 43.15 10.65 46.3 7.7 50.65 7.7 L58.0 7.7" fill="url(#gradient6)" fill-rule="evenodd" stroke="none"/>
    <path d="M37.55 7.7 L37.55 27.15 31.1 27.15 31.1 7.7 37.55 7.7" fill="url(#gradient7)" fill-rule="evenodd" stroke="none"/>
    <path d="M22.15 7.7 L28.7 7.7 28.7 27.15 22.15 27.15 Q22.15 21.55 19.45 19.05 17.65 17.3 15.55 17.3 L15.55 27.15 9.1 27.15 9.1 7.7 9.15 7.7 Q13.75 7.7 17.55 9.45 21.0 10.9 22.15 12.8 L22.15 7.7" fill="url(#gradient8)" fill-rule="evenodd" stroke="none"/>
    <path d="M6.7 7.7 L6.7 27.15 0.1 27.15 0.1 7.7 6.7 7.7" fill="url(#gradient9)" fill-rule="evenodd" stroke="none"/>
    <path d="M-8.85 7.7 L-2.35 7.7 -2.35 27.15 -8.85 27.15 -8.85 20.6 -13.75 27.15 -18.7 20.6 -18.7 27.15 -25.25 27.15 -25.25 13.65 -27.55 13.65 -27.55 7.7 -18.7 7.7 -13.75 14.3 -8.85 7.7" fill="url(#gradient10)" fill-rule="evenodd" stroke="none"/>
  </g>
  <defs>
    <linearGradient gradientTransform="matrix(0.0, 0.0118, -0.0118, 0.0, 165.45, 17.35)" gradientUnits="userSpaceOnUse" id="gradient0" spreadMethod="pad" x1="-819.2" x2="819.2">
      <stop offset="0.0" stop-color="#ff9900"/>
      <stop offset="1.0" stop-color="#cc0000"/>
    </linearGradient>
    <linearGradient gradientTransform="matrix(0.0, 0.0118, -0.0118, 0.0, 143.9, 17.35)" gradientUnits="userSpaceOnUse" id="gradient1" spreadMethod="pad" x1="-819.2" x2="819.2">
      <stop offset="0.0" stop-color="#ff9900"/>
      <stop offset="1.0" stop-color="#cc0000"/>
    </linearGradient>
    <linearGradient gradientTransform="matrix(0.0, 0.0118, -0.0118, 0.0, 124.6, 17.35)" gradientUnits="userSpaceOnUse" id="gradient2" spreadMethod="pad" x1="-819.2" x2="819.2">
      <stop offset="0.0" stop-color="#ff9900"/>
      <stop offset="1.0" stop-color="#cc0000"/>
    </linearGradient>
    <linearGradient gradientTransform="matrix(0.0, 0.0118, -0.0118, 0.0, 101.25, 17.35)" gradientUnits="userSpaceOnUse" id="gradient3" spreadMethod="pad" x1="-819.2" x2="819.2">
      <stop offset="0.0" stop-color="#ff9900"/>
      <stop offset="1.0" stop-color="#cc0000"/>
    </linearGradient>
    <linearGradient gradientTransform="matrix(0.0, 0.0118, -0.0118, 0.0, 85.7, 17.35)" gradientUnits="userSpaceOnUse" id="gradient4" spreadMethod="pad" x1="-819.2" x2="819.2">
      <stop offset="0.0" stop-color="#ff9900"/>
      <stop offset="1.0" stop-color="#cc0000"/>
    </linearGradient>
    <linearGradient gradientTransform="matrix(0.0, 0.0118, -0.0118, 0.0, 70.25, 17.35)" gradientUnits="userSpaceOnUse" id="gradient5" spreadMethod="pad" x1="-819.2" x2="819.2">
      <stop offset="0.0" stop-color="#ff9900"/>
      <stop offset="1.0" stop-color="#cc0000"/>
    </linearGradient>
    <linearGradient gradientTransform="matrix(0.0, 0.0118, -0.0118, 0.0, 49.0, 17.35)" gradientUnits="userSpaceOnUse" id="gradient6" spreadMethod="pad" x1="-819.2" x2="819.2">
      <stop offset="0.0" stop-color="#ff9900"/>
      <stop offset="1.0" stop-color="#cc0000"/>
    </linearGradient>
    <linearGradient gradientTransform="matrix(0.0, 0.0118, -0.0118, 0.0, 34.3, 17.35)" gradientUnits="userSpaceOnUse" id="gradient7" spreadMethod="pad" x1="-819.2" x2="819.2">
      <stop offset="0.0" stop-color="#ff9900"/>
      <stop offset="1.0" stop-color="#cc0000"/>
    </linearGradient>
    <linearGradient gradientTransform="matrix(0.0, 0.0118, -0.0118, 0.0, 18.85, 17.35)" gradientUnits="userSpaceOnUse" id="gradient8" spreadMethod="pad" x1="-819.2" x2="819.2">
      <stop offset="0.0" stop-color="#ff9900"/>
      <stop offset="1.0" stop-color="#cc0000"/>
    </linearGradient>
    <linearGradient gradientTransform="matrix(0.0, 0.0118, -0.0118, 0.0, 3.3, 17.35)" gradientUnits="userSpaceOnUse" id="gradient9" spreadMethod="pad" x1="-819.2" x2="819.2">
      <stop offset="0.0" stop-color="#ff9900"/>
      <stop offset="1.0" stop-color="#cc0000"/>
    </linearGradient>
    <linearGradient gradientTransform="matrix(0.0, 0.0118, -0.0118, 0.0, -14.95, 17.35)" gradientUnits="userSpaceOnUse" id="gradient10" spreadMethod="pad" x1="-819.2" x2="819.2">
      <stop offset="0.0" stop-color="#ff9900"/>
      <stop offset="1.0" stop-color="#cc0000"/>
    </linearGradient>
  </defs>
</svg>
