<?xml version="1.0" encoding="UTF-8" standalone="no"?>
<svg xmlns:ffdec="https://www.free-decompiler.com/flash" xmlns:xlink="http://www.w3.org/1999/xlink" ffdec:objectType="shape" height="17.3px" width="25.4px" xmlns="http://www.w3.org/2000/svg">
  <g transform="matrix(1.0, 0.0, 0.0, 1.0, 12.75, 30.9)">
    <path d="M-1.25 -30.1 L-0.65 -30.6 Q-0.35 -30.6 -0.2 -30.2 L-0.05 -29.7 Q4.25 -32.3 7.85 -29.2 9.2 -28.0 10.05 -26.3 10.85 -24.85 10.85 -23.8 L10.75 -23.35 10.45 -23.0 Q10.95 -21.9 11.85 -18.25 L12.65 -14.5 12.5 -13.9 12.0 -13.6 10.2 -14.35 7.5 -15.55 5.4 -15.9 Q4.55 -15.85 3.75 -16.35 L2.7 -16.95 1.85 -17.4 1.6 -17.1 Q1.4 -16.85 1.2 -16.85 0.65 -16.85 -1.0 -20.4 L-2.55 -24.0 -2.45 -24.9 -2.4 -24.9 -2.3 -24.8 -2.15 -24.7 -1.85 -24.65 -1.6 -24.65 -1.45 -24.65 -1.35 -24.55 -1.15 -24.5 -1.0 -24.4 -0.9 -24.3 -0.6 -24.25 -0.4 -24.25 -0.3 -24.35 -0.15 -24.4 -0.1 -24.5 -0.05 -24.6 0.0 -24.7 0.0 -24.8 0.0 -24.9 0.0 -25.0 -0.05 -25.05 -0.05 -25.15 -0.15 -25.25 -0.25 -25.35 -0.3 -25.45 -0.5 -25.65 -0.6 -25.75 -0.7 -25.8 -0.85 -25.9 -1.1 -26.0 -1.45 -26.15 -1.6 -26.2 -1.75 -26.3 -1.85 -26.35 -1.85 -26.4 -1.8 -26.5 -1.75 -26.6 -1.75 -26.7 -1.75 -26.9 -1.75 -27.05 -1.75 -27.15 -1.75 -27.25 -1.7 -27.35 -1.65 -27.45 -1.65 -27.55 -1.65 -27.65 -1.65 -27.75 -1.65 -27.8 -1.65 -27.9 -1.6 -28.0 -1.55 -28.1 -1.5 -28.2 -1.45 -28.3 -1.35 -28.4 -1.25 -28.55 -1.05 -28.85 -0.95 -29.05 -0.85 -29.15 -0.8 -29.2 -0.75 -29.3 -0.75 -29.4 -0.75 -29.5 -0.75 -29.6 -0.75 -29.7 -0.8 -29.8 -0.85 -29.9 -0.95 -30.0 -1.1 -30.05 -1.25 -30.1 M-3.1 -25.7 L-3.4 -25.3 -3.75 -25.0 -4.3 -23.75 -5.7 -21.35 Q-8.0 -18.2 -9.85 -18.2 L-10.15 -18.2 -10.95 -18.05 Q-11.95 -18.05 -12.25 -19.15 L-12.35 -19.95 -12.7 -20.4 -12.75 -20.85 -12.3 -22.45 -12.15 -22.85 -11.5 -25.4 Q-10.75 -27.1 -9.6 -28.0 -8.45 -29.55 -7.45 -29.55 -7.1 -29.55 -6.25 -29.05 L-5.4 -28.5 -5.15 -28.8 -4.75 -29.1 -4.45 -29.0 -4.5 -28.95 -4.5 -28.85 -4.45 -28.75 -4.45 -28.65 -4.4 -28.55 -4.35 -28.5 -4.25 -28.4 -4.15 -28.3 -3.85 -28.25 -3.6 -28.3 -3.45 -28.4 -3.3 -28.5 -3.15 -28.55 -3.1 -28.65 -2.65 -28.75 -2.75 -28.55 -2.8 -28.45 -2.85 -28.35 -2.9 -28.25 -2.9 -28.15 -2.9 -28.05 -2.9 -28.0 -2.9 -27.9 -2.9 -27.8 -2.95 -27.7 -3.0 -27.6 -3.0 -27.5 -3.0 -27.4 -3.0 -27.3 -3.0 -27.25 -3.0 -27.15 -3.05 -27.05 -3.1 -26.95 -3.1 -26.75 -3.15 -26.3 -3.1 -25.8 -3.1 -25.7 M9.55 -20.35 L9.55 -20.25 9.6 -20.1 9.55 -20.35" fill="#00b3ff" fill-rule="evenodd" stroke="none"/>
    <path d="M-1.25 -30.1 L-1.1 -30.05 -0.95 -30.0 -0.85 -29.9 -0.8 -29.8 -0.75 -29.7 -0.75 -29.6 -0.75 -29.5 -0.75 -29.4 -0.75 -29.3 -0.8 -29.2 -0.85 -29.15 -0.95 -29.05 -1.05 -28.85 -1.25 -28.55 -1.35 -28.4 -1.45 -28.3 -1.5 -28.2 -1.55 -28.1 -1.6 -28.0 -1.65 -27.9 -1.65 -27.8 -1.65 -27.75 -1.65 -27.65 -1.65 -27.55 -1.65 -27.45 -1.7 -27.35 -1.75 -27.25 -1.75 -27.15 -1.75 -27.05 -1.75 -26.9 -1.75 -26.7 -1.75 -26.6 -1.8 -26.5 -1.85 -26.4 -1.85 -26.35 -1.75 -26.3 -1.6 -26.2 -1.45 -26.15 -1.1 -26.0 -0.85 -25.9 -0.7 -25.8 -0.6 -25.75 -0.5 -25.65 -0.3 -25.45 -0.25 -25.35 -0.15 -25.25 -0.05 -25.15 -0.05 -25.05 0.0 -25.0 0.0 -24.9 0.0 -24.8 0.0 -24.7 -0.05 -24.6 -0.1 -24.5 -0.15 -24.4 -0.3 -24.35 -0.4 -24.25 -0.6 -24.25 -0.9 -24.3 -1.0 -24.4 -1.15 -24.5 -1.35 -24.55 -1.45 -24.65 -1.6 -24.65 -1.85 -24.65 -2.15 -24.7 -2.3 -24.8 -2.4 -24.9 -2.45 -24.9 -2.6 -25.0 -2.7 -25.05 -2.8 -25.15 -2.95 -25.35 -3.0 -25.45 -3.05 -25.55 -3.1 -25.65 -3.1 -25.7 -3.1 -25.8 -3.15 -26.3 -3.1 -26.75 -3.1 -26.95 -3.05 -27.05 -3.0 -27.15 -3.0 -27.25 -3.0 -27.3 -3.0 -27.4 -3.0 -27.5 -3.0 -27.6 -2.95 -27.7 -2.9 -27.8 -2.9 -27.9 -2.9 -28.0 -2.9 -28.05 -2.9 -28.15 -2.9 -28.25 -2.85 -28.35 -2.8 -28.45 -2.75 -28.55 -2.65 -28.75 -3.1 -28.65 -3.15 -28.55 -3.3 -28.5 -3.45 -28.4 -3.6 -28.3 -3.85 -28.25 -4.15 -28.3 -4.25 -28.4 -4.35 -28.5 -4.4 -28.55 -4.45 -28.65 -4.45 -28.75 -4.5 -28.85 -4.5 -28.95 -4.45 -29.0 -4.45 -29.05 -4.4 -29.15 -4.4 -29.25 -4.3 -29.3 -4.25 -29.4 -4.05 -29.6 -3.85 -29.8 -3.7 -29.9 -3.55 -29.95 -3.35 -29.95 -3.35 -30.0 -2.6 -30.0 -2.35 -29.9 -2.2 -29.8 -2.1 -29.75 -2.1 -29.7 -2.05 -29.75 -2.0 -29.85 -1.85 -29.95 -1.7 -30.05 -1.55 -30.1 -1.35 -30.1 -1.35 -30.15 -1.25 -30.1" fill="#000000" fill-rule="evenodd" stroke="none"/>
  </g>
</svg>
