<?xml version="1.0" encoding="UTF-8" standalone="no"?>
<svg xmlns:ffdec="https://www.free-decompiler.com/flash" xmlns:xlink="http://www.w3.org/1999/xlink" ffdec:objectType="shape" height="340.35px" width="646.1px" xmlns="http://www.w3.org/2000/svg">
  <g transform="matrix(1.0, 0.0, 0.0, 1.0, 49.65, 155.0)">
    <path d="M-47.9 157.35 L-47.65 157.5 -46.9 157.75 -46.25 157.85 -45.5 158.0 -34.9 158.1 -34.4 158.25 -33.65 158.5 -32.9 158.75 -32.25 158.85 -31.9 159.1 -31.15 159.5 -30.4 159.75 -29.65 160.0 -28.9 160.25 -28.25 160.35 -27.5 160.5 -17.0 160.5 -16.4 160.85 -15.65 161.25 -14.9 161.6 -14.15 162.0 -13.4 162.25 -12.65 162.5 -11.9 162.75 -11.25 162.85 -10.5 163.0 -9.4 163.1 -9.25 163.35 -8.9 163.75 -8.4 164.1 -7.9 164.5 -7.65 164.85 -7.25 165.25 -7.1 165.45 -7.65 167.75 -7.75 168.1 Q-8.1 170.9 -10.6 172.35 -12.3 173.3 -14.25 173.65 L-19.75 174.6 -20.75 175.75 Q-25.3 176.2 -29.65 177.35 -31.5 177.85 -33.2 178.8 L-33.55 179.05 -34.0 179.5 -42.5 180.6 -43.65 181.75 Q-43.7 182.65 -44.1 183.3 L-44.6 183.9 -45.2 184.7 -45.7 184.95 -46.5 185.35 Q-48.3 185.45 -48.9 184.0 L-47.0 179.35 Q-48.15 175.4 -47.85 171.55 -47.5 166.65 -47.7 161.75 L-47.9 157.35 M-47.75 142.5 L-48.0 142.5 -48.75 142.6 -49.4 142.75 -49.65 141.35 -47.75 142.5 M586.35 -121.25 L587.1 -121.5 587.85 -121.9 588.6 -122.25 596.45 -122.45 596.45 -120.75 594.85 -120.4 594.8 -115.8 594.85 -115.75 595.1 -115.4 595.2 -115.0 595.35 -114.65 595.35 -114.25 595.2 -113.9 594.95 -113.5 594.7 -113.15 594.35 -112.75 593.95 -112.4 593.45 -112.0 593.1 -111.75 592.1 -111.5 591.6 -111.25 590.95 -111.15 587.45 -111.15 Q585.6 -110.3 584.2 -108.9 L583.5 -108.15 583.25 -108.05 582.35 -107.05 582.25 -106.85 581.6 -106.25 581.2 -105.9 580.95 -105.5 580.5 -105.1 580.1 -104.75 579.7 -104.4 579.45 -104.0 579.0 -103.6 578.6 -103.25 578.2 -102.9 577.85 -102.5 577.6 -102.15 577.2 -101.75 576.95 -101.4 576.85 -101.0 576.6 -100.65 576.2 -100.25 574.7 -99.9 574.1 -99.75 573.35 -99.5 572.6 -99.25 572.1 -99.15 571.85 -99.0 571.35 -98.75 570.6 -98.4 569.85 -98.05 569.1 -97.75 568.6 -97.65 568.35 -97.5 567.85 -97.25 564.9 -96.8 Q563.45 -97.15 562.1 -97.75 L562.0 -98.0 561.85 -98.4 561.75 -98.75 561.6 -99.15 561.5 -99.5 561.35 -99.9 561.25 -100.25 561.1 -100.65 561.0 -101.0 561.0 -101.4 561.0 -101.75 561.0 -102.15 560.85 -102.5 560.75 -102.9 560.6 -103.25 560.5 -103.65 560.5 -104.0 560.5 -104.4 560.5 -104.75 560.5 -105.15 560.4 -105.4 560.5 -105.5 560.75 -105.9 560.85 -106.25 561.1 -106.55 561.2 -106.7 561.5 -107.0 561.55 -107.05 561.75 -107.25 561.9 -107.45 562.2 -107.65 562.85 -107.9 563.1 -108.0 563.6 -108.25 565.0 -108.5 565.75 -108.65 566.35 -108.75 566.85 -108.9 567.1 -109.0 567.6 -109.25 568.35 -109.65 569.1 -110.0 569.75 -110.4 570.25 -110.75 570.6 -111.15 571.0 -111.5 571.25 -111.9 571.75 -112.25 572.1 -112.65 572.5 -113.0 572.75 -113.4 572.85 -113.75 573.1 -114.15 573.6 -114.5 574.35 -114.75 574.85 -114.9 575.35 -115.15 576.1 -115.5 576.85 -115.75 577.35 -115.9 577.85 -116.15 578.6 -116.5 579.35 -116.75 579.85 -116.9 580.1 -117.0 580.6 -117.25 581.1 -117.65 581.5 -118.0 581.85 -118.4 582.6 -118.75 583.1 -119.15 583.5 -119.5 583.85 -119.9 584.6 -120.25 585.1 -120.65 585.6 -121.0 586.35 -121.25 M594.65 -153.4 L594.7 -153.5 595.2 -154.25 595.45 -155.0 595.45 -153.4 594.65 -153.4" fill="#ffffff" fill-rule="evenodd" stroke="none"/>
  </g>
</svg>
