<?xml version="1.0" encoding="UTF-8" standalone="no"?>
<svg xmlns:ffdec="https://www.free-decompiler.com/flash" xmlns:xlink="http://www.w3.org/1999/xlink" ffdec:objectType="shape" height="481.95px" width="639.75px" xmlns="http://www.w3.org/2000/svg">
  <g transform="matrix(1.0, 0.0, 0.0, 1.0, -46.85, 416.45)">
    <path d="M678.2 -322.75 L678.6 -323.0 678.95 -323.15 682.45 -323.4 682.95 -323.65 684.45 -323.9 684.95 -324.05 684.95 -324.15 686.2 -324.0 686.6 -323.65 686.45 -323.25 685.95 -322.9 685.2 -322.5 683.45 -322.15 682.95 -321.9 678.95 -321.65 678.5 -321.2 678.35 -321.0 677.95 -320.9 676.95 -320.65 676.2 -320.25 676.1 -319.9 675.7 -319.5 675.6 -319.15 675.45 -318.75 675.1 -318.4 675.1 -318.0 674.95 -317.65 674.6 -317.25 674.6 -316.9 674.2 -316.5 674.1 -316.15 673.95 -315.75 673.6 -315.4 673.35 -315.0 672.95 -314.65 672.85 -314.55 672.5 -314.25 672.1 -313.9 671.7 -313.5 671.6 -313.4 671.45 -313.15 670.7 -312.75 670.6 -312.4 670.2 -312.0 669.95 -311.65 669.6 -311.25 669.6 -310.9 669.2 -310.5 668.45 -310.15 667.6 -309.75 667.35 -309.5 666.95 -309.4 663.3 -309.2 662.95 -309.15 662.5 -308.7 662.35 -308.5 661.95 -308.4 660.45 -308.15 659.6 -307.75 659.5 -307.65 659.65 -307.5 660.2 -307.5 660.6 -307.15 660.6 -306.8 661.2 -306.5 661.6 -306.15 662.0 -305.75 662.45 -305.4 662.6 -305.0 662.6 -304.65 663.0 -304.25 663.1 -304.15 663.7 -304.0 664.1 -303.75 665.2 -303.5 665.6 -303.15 665.95 -302.75 666.1 -302.4 666.2 -302.0 666.6 -301.65 666.6 -301.25 666.6 -300.5 666.6 -299.75 666.6 -299.0 666.6 -297.9 666.6 -297.5 666.6 -297.15 666.45 -296.75 666.1 -296.4 665.7 -296.0 664.55 -295.75 664.45 -295.65 664.1 -295.25 664.1 -294.5 664.1 -293.75 664.1 -293.4 664.1 -293.0 664.1 -292.65 664.1 -292.25 664.1 -291.9 663.7 -291.5 663.1 -291.5 662.85 -291.9 662.85 -292.65 662.85 -293.0 662.6 -293.0 662.35 -293.4 662.35 -293.75 662.35 -294.15 662.35 -294.5 662.35 -294.9 662.35 -295.25 662.35 -295.65 662.6 -296.0 662.85 -296.4 662.85 -296.75 663.1 -297.0 663.5 -297.1 663.7 -297.15 664.1 -297.5 664.35 -297.9 664.35 -298.25 664.35 -298.65 664.35 -299.0 664.35 -299.4 664.35 -299.75 664.35 -300.15 664.35 -300.5 664.2 -300.9 663.85 -301.25 663.85 -301.65 663.6 -302.0 662.95 -302.4 662.35 -302.75 662.25 -302.85 661.6 -303.0 661.2 -303.4 660.85 -303.75 660.85 -304.15 660.6 -304.5 660.2 -304.9 659.85 -305.25 659.45 -305.65 659.45 -305.7 659.35 -305.75 658.95 -306.15 658.4 -306.35 657.6 -306.5 657.35 -306.9 656.6 -307.0 656.2 -307.4 655.85 -307.75 655.45 -308.15 655.0 -308.15 654.5 -307.75 654.0 -307.35 653.6 -307.0 653.5 -306.65 653.0 -306.4 652.0 -306.15 651.5 -305.9 650.0 -305.65 649.5 -305.4 647.5 -305.15 647.0 -304.7 646.85 -304.5 646.5 -304.4 643.7 -304.45 643.5 -304.4 640.6 -304.5 640.2 -304.85 639.75 -305.25 638.95 -305.6 638.1 -306.0 637.85 -306.25 636.75 -306.4 636.6 -306.0 636.5 -305.65 636.1 -305.25 635.85 -305.0 635.5 -304.9 633.1 -305.0 632.85 -305.4 632.85 -305.75 633.1 -306.0 633.5 -306.15 635.35 -306.4 635.35 -306.75 635.75 -307.15 635.85 -307.5 636.0 -307.9 636.5 -308.15 637.25 -308.0 637.6 -307.75 638.75 -307.5 639.45 -307.1 640.1 -306.8 Q640.55 -306.55 641.0 -306.4 L641.25 -306.0 Q641.4 -305.9 641.6 -305.75 L643.0 -305.9 643.5 -306.15 645.0 -306.4 645.5 -306.65 646.5 -306.9 647.0 -307.15 649.5 -307.4 650.0 -307.65 651.5 -307.9 651.85 -308.25 652.6 -309.0 653.0 -309.4 653.35 -309.75 653.6 -310.0 654.0 -310.15 656.2 -310.0 656.6 -309.65 656.6 -309.55 657.7 -309.5 657.75 -309.45 657.95 -309.5 658.2 -309.5 658.45 -309.65 659.1 -310.0 660.45 -310.4 660.95 -310.65 662.9 -310.7 663.45 -310.9 663.95 -311.15 665.95 -311.4 666.45 -311.65 667.45 -311.9 667.85 -312.25 668.45 -312.65 669.05 -312.95 669.15 -313.05 669.3 -313.3 669.35 -313.5 669.35 -313.75 669.45 -313.8 669.45 -313.9 669.55 -313.9 669.7 -314.15 670.1 -314.5 670.35 -314.6 670.35 -314.65 670.6 -315.0 671.45 -315.4 671.55 -315.4 671.7 -315.65 672.1 -316.0 672.45 -316.4 672.85 -316.75 672.85 -317.15 673.1 -317.5 673.35 -317.9 673.35 -318.25 673.7 -318.65 673.85 -319.0 673.95 -319.4 674.35 -319.75 674.35 -320.15 674.6 -320.5 674.85 -320.9 674.85 -321.25 675.45 -321.65 676.1 -322.0 677.45 -322.4 678.2 -322.75 M233.75 -416.45 L234.1 -416.1 234.1 -415.7 234.1 -415.35 234.1 -414.95 234.1 -414.6 234.0 -414.2 233.6 -413.85 233.35 -413.45 233.1 -413.1 233.1 -412.7 233.1 -412.35 232.85 -411.95 232.6 -411.6 232.6 -411.2 232.6 -410.85 232.6 -410.45 232.5 -410.1 232.1 -409.7 232.1 -409.35 231.75 -408.95 231.6 -408.6 231.6 -408.2 231.6 -407.85 231.75 -407.45 232.1 -407.1 232.1 -405.2 232.1 -403.35 232.1 -401.45 232.1 -399.95 232.0 -399.6 231.6 -399.2 231.6 -398.85 231.6 -398.1 231.6 -397.35 231.6 -396.95 231.6 -396.6 231.5 -396.2 231.0 -395.8 230.6 -395.45 230.6 -395.35 230.6 -395.3 230.5 -395.1 230.15 -394.8 230.0 -394.6 229.6 -394.2 229.6 -393.85 229.6 -393.2 229.6 -392.15 229.75 -391.95 230.1 -391.6 230.1 -391.2 230.5 -390.85 230.6 -390.45 230.6 -390.1 230.6 -389.7 231.0 -389.35 231.1 -388.95 231.25 -388.6 231.5 -388.2 231.6 -387.85 231.75 -387.45 232.1 -387.1 232.5 -386.7 232.6 -386.35 232.6 -385.95 232.6 -385.6 233.0 -385.2 233.1 -384.85 233.1 -383.7 233.1 -382.95 233.1 -382.2 233.1 -381.1 233.1 -380.35 233.25 -379.95 234.0 -379.6 234.5 -379.2 235.0 -378.85 235.7 -378.45 236.1 -378.2 237.85 -378.35 237.85 -378.7 237.85 -379.1 238.1 -379.45 238.5 -379.85 239.25 -379.95 239.6 -379.6 239.6 -379.2 239.6 -378.85 239.25 -378.45 239.1 -378.1 239.1 -377.7 239.1 -377.35 238.75 -376.95 235.1 -376.95 234.5 -377.35 233.85 -377.7 233.5 -378.1 232.6 -378.45 232.25 -378.85 231.85 -379.2 231.85 -380.35 231.85 -381.45 231.85 -382.6 231.85 -383.7 231.85 -384.1 231.6 -384.45 231.35 -384.85 231.35 -385.2 231.35 -385.6 231.1 -385.95 230.75 -386.35 230.35 -386.7 230.35 -387.1 230.35 -387.45 230.25 -387.85 229.85 -388.2 229.5 -388.6 229.35 -388.95 229.35 -389.35 229.35 -389.45 229.1 -389.1 229.1 -388.7 229.1 -388.35 228.75 -387.95 228.5 -387.6 228.1 -387.2 228.1 -386.85 227.85 -386.45 227.6 -386.1 227.6 -385.7 227.6 -385.35 227.35 -384.95 227.1 -384.6 227.1 -384.2 227.1 -383.85 227.1 -383.45 227.0 -383.1 226.6 -382.7 226.6 -382.35 226.25 -381.95 226.1 -381.6 226.0 -381.2 225.6 -380.85 225.25 -380.45 224.5 -380.1 224.0 -379.7 223.6 -379.35 223.25 -378.95 223.1 -378.6 223.1 -378.2 223.1 -377.85 222.75 -377.45 222.1 -377.1 222.1 -376.7 222.1 -376.35 222.1 -375.95 222.1 -375.6 222.0 -375.2 221.6 -374.85 221.6 -374.45 221.6 -374.1 221.6 -373.7 221.6 -373.35 221.6 -372.95 221.5 -372.6 221.1 -372.2 221.1 -371.85 220.85 -371.45 220.6 -371.1 220.6 -370.7 220.6 -370.35 220.25 -369.95 220.1 -369.6 220.1 -369.2 220.1 -368.85 220.1 -368.45 220.0 -368.1 219.6 -367.7 219.6 -367.35 219.35 -366.95 219.1 -366.6 219.1 -365.85 219.1 -365.1 219.1 -364.35 219.1 -363.95 219.1 -363.6 219.0 -363.2 218.6 -362.85 218.6 -362.45 218.5 -362.1 218.0 -361.7 217.85 -361.45 217.5 -361.35 216.6 -361.45 216.35 -361.85 216.35 -362.2 216.35 -362.6 216.35 -362.95 216.35 -363.35 216.35 -363.7 216.75 -364.1 216.85 -364.45 216.85 -364.85 216.85 -365.2 216.85 -365.6 216.85 -365.95 216.85 -366.35 216.85 -366.7 217.25 -367.1 217.35 -367.45 217.35 -367.85 217.35 -368.2 217.35 -368.6 217.35 -368.95 217.35 -369.35 217.35 -369.7 217.75 -370.1 218.1 -370.45 218.35 -370.85 218.35 -371.2 218.35 -371.6 218.35 -371.95 218.5 -372.35 218.85 -372.7 218.85 -373.1 218.85 -373.45 218.85 -373.85 218.85 -374.2 218.85 -374.6 219.1 -374.95 219.35 -375.35 219.35 -375.7 219.35 -376.1 219.6 -376.45 219.85 -376.85 219.85 -377.2 220.25 -377.6 220.35 -377.95 220.5 -378.35 220.85 -378.7 221.25 -379.1 221.35 -379.45 221.5 -379.85 222.25 -380.2 222.7 -380.6 223.1 -380.95 224.0 -381.35 224.35 -381.7 224.75 -382.1 224.85 -382.45 225.0 -382.85 225.35 -383.2 225.35 -383.6 225.6 -383.95 225.85 -384.35 225.85 -384.7 225.85 -385.1 226.1 -385.45 226.35 -385.85 226.35 -386.2 226.35 -386.6 226.6 -386.95 226.85 -387.35 226.85 -387.7 226.85 -388.1 227.1 -388.45 227.5 -388.85 227.85 -389.2 227.85 -389.6 228.1 -389.95 228.35 -390.35 228.35 -391.2 228.0 -391.6 227.85 -391.95 227.85 -392.35 227.85 -392.7 227.85 -393.1 227.85 -393.45 227.85 -393.85 227.85 -394.2 228.25 -394.6 228.35 -394.95 228.35 -395.2 228.5 -395.35 228.75 -395.6 228.85 -395.7 229.25 -396.1 229.5 -396.35 230.25 -397.1 230.35 -397.45 230.35 -397.85 230.35 -398.6 230.35 -399.35 230.35 -399.7 230.35 -400.1 230.6 -400.45 230.85 -400.85 230.85 -402.35 230.85 -403.45 230.85 -404.95 230.85 -406.1 230.6 -406.45 230.35 -406.85 230.35 -407.2 230.35 -407.95 230.35 -408.7 230.35 -409.1 230.35 -409.45 230.5 -409.85 230.85 -410.2 230.85 -410.6 231.1 -410.95 231.35 -411.35 231.35 -411.7 231.35 -412.1 231.6 -412.45 231.85 -412.85 231.85 -413.2 231.85 -413.6 232.1 -413.95 232.35 -414.35 232.35 -414.7 232.75 -415.1 232.85 -415.45 232.85 -415.85 232.85 -416.2 233.1 -416.45 233.5 -416.45 233.75 -416.45 M75.5 -37.9 L76.25 -38.25 76.7 -38.65 77.1 -39.0 78.5 -39.4 79.25 -39.75 79.5 -39.85 79.75 -40.15 80.1 -40.5 80.4 -40.6 80.5 -40.9 81.25 -41.25 81.7 -41.65 82.05 -41.95 82.1 -42.0 82.85 -42.4 82.85 -42.75 83.25 -43.15 83.6 -43.5 84.35 -44.25 84.75 -44.65 84.85 -45.0 85.0 -45.4 85.25 -45.75 85.35 -46.15 85.35 -46.5 85.35 -48.0 85.35 -48.75 85.35 -50.25 85.35 -52.15 85.6 -52.5 87.5 -52.9 87.85 -53.25 87.85 -53.65 88.1 -54.0 88.35 -54.4 88.35 -54.75 88.75 -55.15 89.1 -55.5 89.35 -55.9 89.35 -56.25 89.35 -56.65 89.35 -57.0 89.5 -57.4 89.85 -57.75 89.85 -58.15 90.1 -58.5 90.5 -58.9 90.85 -59.25 91.6 -60.0 92.0 -60.4 92.75 -60.75 93.2 -61.15 93.6 -61.5 94.35 -62.25 94.6 -62.5 95.0 -62.6 96.0 -62.9 96.25 -63.25 96.35 -63.65 96.35 -64.0 96.5 -64.4 97.25 -64.75 97.35 -65.15 97.35 -65.5 97.35 -65.9 97.35 -66.25 97.75 -66.65 97.85 -67.0 97.85 -67.4 97.85 -67.75 97.85 -68.15 97.85 -68.5 97.75 -68.9 97.35 -69.25 97.35 -69.65 97.35 -70.0 97.35 -70.4 97.35 -70.75 97.35 -71.15 97.6 -71.5 98.5 -71.85 98.95 -72.05 99.0 -72.15 100.75 -72.0 101.1 -71.65 101.0 -71.25 100.8 -71.05 100.5 -70.9 99.5 -70.65 98.75 -70.25 99.0 -69.9 99.1 -69.5 99.1 -69.15 99.1 -68.4 99.1 -67.65 99.1 -67.25 99.1 -66.9 99.1 -66.15 99.0 -65.75 98.6 -65.4 98.6 -65.0 98.6 -64.65 98.5 -64.25 98.25 -63.9 97.75 -63.5 97.6 -63.15 97.5 -62.75 97.25 -62.4 97.1 -62.0 97.0 -61.65 96.5 -61.4 95.5 -61.15 95.0 -60.75 94.6 -60.4 94.25 -60.0 93.5 -59.65 93.0 -59.25 92.6 -58.9 92.25 -58.5 92.0 -58.15 91.5 -57.75 91.1 -57.4 91.1 -57.0 91.0 -56.65 90.6 -56.25 90.6 -55.9 90.6 -55.5 90.6 -55.15 90.5 -54.75 90.1 -54.4 89.75 -54.0 89.6 -53.65 89.5 -53.25 89.1 -52.9 89.1 -52.5 89.0 -52.15 88.5 -51.75 88.35 -51.5 88.0 -51.4 86.6 -51.15 86.6 -50.75 86.6 -49.25 86.6 -48.9 86.6 -47.75 86.6 -46.25 86.6 -45.5 86.5 -45.15 86.1 -44.75 86.1 -44.65 86.1 -44.4 86.1 -44.25 86.1 -44.0 86.1 -43.9 86.1 -43.5 86.0 -43.15 85.5 -42.75 85.3 -42.55 85.25 -42.5 85.2 -42.45 85.1 -42.4 84.85 -42.0 84.6 -41.65 84.6 -41.25 84.6 -40.9 84.25 -40.5 84.1 -40.15 84.0 -39.75 83.6 -39.4 83.6 -39.05 85.75 -39.0 86.1 -38.65 86.25 -38.25 87.0 -37.9 87.25 -37.5 87.6 -37.15 88.1 -36.75 89.0 -36.4 89.25 -36.0 90.0 -35.65 90.5 -35.4 90.6 -35.3 91.75 -35.0 92.1 -34.75 102.75 -34.5 103.1 -34.15 103.5 -33.75 103.6 -33.4 103.25 -33.0 102.1 -33.0 101.85 -33.25 91.1 -33.5 90.85 -33.75 89.6 -34.0 89.0 -34.4 88.35 -34.75 88.0 -35.15 87.1 -35.5 86.75 -35.9 86.35 -36.25 86.0 -36.65 85.1 -37.0 84.9 -37.4 84.85 -37.65 84.85 -37.7 81.0 -37.65 80.1 -37.25 79.85 -37.0 79.5 -36.9 78.1 -37.0 77.85 -37.4 77.85 -37.5 77.75 -37.5 77.5 -37.15 77.0 -36.9 76.0 -36.65 75.5 -36.4 72.0 -36.15 71.5 -35.9 69.5 -35.65 69.0 -35.4 65.5 -35.15 65.0 -34.9 63.5 -34.65 62.6 -34.25 62.1 -33.85 61.75 -33.5 61.5 -33.15 60.6 -32.75 60.0 -32.4 59.25 -32.0 54.5 -31.65 54.0 -31.4 52.5 -31.15 51.6 -30.75 51.1 -30.35 50.75 -30.0 50.0 -29.65 49.5 -29.25 49.1 -28.9 48.75 -28.5 48.6 -28.15 48.6 -27.75 48.6 -27.4 48.25 -27.0 48.0 -26.65 47.1 -26.5 46.85 -26.9 46.85 -27.25 46.85 -27.65 47.1 -28.0 47.35 -28.4 47.35 -28.75 47.35 -29.15 47.6 -29.5 48.0 -29.9 48.35 -30.25 48.75 -30.65 49.1 -31.0 50.0 -31.4 50.35 -31.75 50.6 -32.0 51.0 -32.1 52.0 -32.4 52.5 -32.65 53.5 -32.9 54.0 -33.15 58.5 -33.4 59.25 -33.75 60.0 -34.15 60.6 -34.5 61.0 -34.9 61.35 -35.25 62.0 -35.65 62.6 -36.0 64.5 -36.4 65.0 -36.65 68.5 -36.9 69.0 -37.15 71.0 -37.4 71.5 -37.65 75.5 -37.9 M542.25 29.5 L542.6 29.85 542.6 30.25 542.6 30.6 542.6 31.0 542.6 31.35 542.6 31.75 543.0 32.1 543.1 32.5 543.1 32.85 543.1 33.25 543.5 33.6 543.6 34.0 543.6 34.35 544.0 34.75 544.1 35.1 544.25 35.5 544.6 35.85 545.0 36.2 545.5 36.6 545.6 37.0 545.6 38.1 545.6 39.25 545.6 40.0 546.1 39.5 546.85 38.75 547.25 38.35 547.5 38.1 547.6 38.05 548.0 38.0 548.25 38.0 548.6 38.35 548.6 38.75 548.6 39.1 548.25 39.5 548.0 39.85 547.5 40.25 547.1 40.6 546.75 41.0 546.6 41.35 546.5 41.75 546.1 42.1 545.75 42.5 545.6 42.5 545.6 44.0 545.6 45.5 545.6 46.25 546.0 46.6 546.1 47.0 546.1 47.35 546.5 47.75 546.6 48.1 546.6 48.5 546.6 48.85 546.6 49.0 547.0 49.0 547.25 49.0 547.75 49.35 548.0 49.75 548.1 50.1 548.1 50.5 548.1 50.85 548.1 51.25 548.1 51.5 548.1 51.6 548.1 51.85 548.1 52.0 548.1 52.25 548.1 52.35 548.5 52.75 548.6 53.1 548.6 53.35 548.6 53.75 548.6 54.1 548.6 54.5 548.6 54.85 548.6 55.25 548.6 55.35 548.6 55.6 548.75 56.0 549.1 56.35 549.1 56.75 549.1 57.1 549.1 57.5 549.1 57.85 549.1 58.25 549.5 58.6 549.6 59.0 549.6 59.35 549.75 59.75 550.5 60.1 550.6 60.5 550.6 60.85 550.6 61.6 550.6 62.35 550.6 63.1 550.25 63.5 550.05 63.5 550.0 63.75 549.8 63.95 549.5 64.1 548.6 64.35 548.6 64.5 548.5 64.85 548.0 65.1 546.1 65.0 545.85 64.6 545.85 64.55 544.6 64.5 544.35 64.25 543.1 64.0 542.85 63.6 542.85 63.4 542.75 63.5 542.5 63.85 542.1 64.25 542.1 64.6 542.1 65.0 542.0 65.35 541.1 65.5 540.85 65.1 540.85 64.75 540.85 64.35 540.85 64.0 540.85 63.6 540.85 63.25 541.25 62.85 541.6 62.5 541.85 62.1 541.85 61.75 541.85 61.35 542.1 61.0 542.5 60.6 542.75 60.25 542.85 59.85 542.85 59.5 542.85 59.1 542.85 58.75 542.85 58.35 543.1 58.0 543.35 57.6 543.35 57.25 543.35 56.85 543.35 56.5 543.35 56.1 543.35 55.75 543.75 55.35 543.85 55.0 543.85 54.6 543.85 53.85 543.85 53.1 543.85 52.35 544.1 52.0 544.35 51.6 544.35 48.6 544.35 45.6 544.35 43.0 544.35 42.25 544.35 41.5 544.35 41.1 544.35 40.0 544.35 38.85 544.35 37.75 544.0 37.35 543.6 37.0 543.25 36.6 542.85 36.25 542.85 35.85 542.6 35.5 542.35 35.1 542.35 34.75 542.0 34.35 541.85 34.0 541.85 33.6 541.85 33.25 541.85 32.85 541.6 32.5 541.35 32.1 541.35 31.75 541.35 31.0 541.35 30.25 541.4 29.85 541.5 29.6 541.6 29.55 542.0 29.5 542.25 29.5 M546.85 62.7 L545.6 62.8 545.6 63.1 545.55 63.15 545.6 63.15 546.85 63.15 546.85 62.85 546.85 62.7" fill="#000000" fill-rule="evenodd" stroke="none"/>
  </g>
</svg>
