<?xml version="1.0" encoding="UTF-8" standalone="no"?>
<svg xmlns:ffdec="https://www.free-decompiler.com/flash" xmlns:xlink="http://www.w3.org/1999/xlink" ffdec:objectType="shape" height="30.55px" width="159.25px" xmlns="http://www.w3.org/2000/svg">
  <g transform="matrix(1.0, 0.0, 0.0, 1.0, -1.8, -401.0)">
    <path d="M161.05 408.05 L160.45 412.3 160.0 415.4 160.4 419.55 160.45 419.85 161.05 423.15 Q161.0 425.65 160.45 426.85 159.65 428.5 157.9 429.2 156.2 430.55 153.3 430.6 150.2 430.6 148.6 429.9 L147.85 429.7 145.35 430.1 142.65 429.7 139.2 430.0 137.7 430.75 Q136.2 431.45 134.6 431.45 L130.25 431.0 124.65 430.5 Q121.4 430.5 119.65 429.8 119.4 429.85 119.3 429.95 116.4 431.4 113.55 431.4 108.4 431.35 106.9 428.3 L106.5 427.1 106.4 427.45 Q105.4 429.9 100.55 429.95 99.6 430.9 97.7 430.9 96.3 430.85 95.0 430.2 93.9 429.45 93.8 429.5 L78.3 430.15 71.85 430.8 Q62.45 430.75 58.8 428.65 57.1 430.75 54.25 430.75 52.05 430.75 50.6 429.85 49.25 430.15 47.5 429.85 L40.1 429.1 Q38.5 430.7 36.1 430.7 33.05 430.65 31.95 429.3 30.55 430.2 28.4 430.2 24.1 430.2 23.95 427.35 22.1 430.2 18.5 430.2 14.8 430.15 13.9 428.35 11.1 431.55 6.0 431.55 3.3 431.55 2.6 429.5 2.35 428.75 2.35 427.05 2.35 425.0 3.4 422.25 L4.25 420.15 4.1 419.55 4.05 416.95 Q1.8 415.1 1.8 410.95 1.75 408.2 2.05 406.5 1.75 406.1 1.8 405.7 1.8 401.45 6.1 402.55 9.55 401.3 17.65 401.1 L22.85 401.0 Q30.0 401.0 41.2 401.4 L44.75 401.6 55.4 401.9 56.45 402.4 58.0 402.85 Q59.3 402.85 61.35 401.9 63.35 400.95 69.85 401.0 79.9 401.05 81.95 404.0 83.0 402.0 89.15 402.0 103.25 402.05 109.0 405.1 109.5 404.7 110.25 404.45 113.75 402.75 118.9 402.4 123.6 402.1 127.05 403.25 L128.0 403.05 141.95 402.2 144.55 402.65 147.2 403.15 150.4 402.65 153.6 402.2 154.95 402.5 156.65 402.65 Q161.0 403.7 161.05 408.05 M141.75 408.75 Q141.65 410.05 140.5 410.75 139.45 411.3 138.0 411.3 135.85 411.3 134.65 409.95 133.6 408.35 132.95 407.95 L130.2 410.05 Q128.05 411.7 126.35 411.75 123.75 411.7 123.0 410.1 L122.7 408.6 122.35 408.6 Q114.85 408.6 113.2 410.65 L112.7 411.15 112.8 412.05 112.45 414.25 Q111.7 415.9 109.3 415.95 107.6 415.9 106.35 414.2 L104.15 410.7 Q100.45 406.05 90.6 408.05 89.4 409.35 89.9 414.1 89.15 417.55 82.85 418.1 83.35 418.2 83.65 418.55 85.25 420.25 88.4 420.25 92.2 420.25 93.5 419.65 94.65 418.9 95.7 418.95 L96.45 419.0 Q98.1 416.4 102.8 416.1 L117.85 416.65 Q120.25 416.65 121.3 418.05 L121.8 419.15 123.25 419.0 Q125.45 418.95 126.4 420.45 126.95 421.25 126.95 422.05 126.95 422.85 126.6 423.4 L125.55 424.4 125.25 424.6 Q126.35 424.05 128.0 421.5 129.25 419.45 132.05 419.5 132.75 419.5 134.15 420.45 L135.5 421.4 Q136.2 421.35 137.0 420.9 137.85 420.45 138.55 420.45 140.95 420.45 141.8 421.65 L142.55 423.3 142.8 423.3 Q143.6 420.3 146.85 418.85 150.2 417.3 150.25 421.85 L151.55 421.0 Q151.9 420.75 152.4 420.7 L152.25 420.1 Q152.2 419.45 152.45 417.55 152.25 414.85 152.2 408.95 150.55 409.2 148.9 409.95 L145.95 410.4 Q143.65 410.35 142.75 409.8 L141.75 408.75 M82.4 408.3 L82.25 407.9 82.1 408.3 82.4 408.3 M63.15 420.75 L64.5 421.65 71.9 421.2 73.4 419.95 Q75.05 418.55 76.4 418.4 L78.85 418.05 Q75.2 417.35 74.45 413.85 74.35 408.8 73.55 407.05 L66.15 407.05 Q64.1 406.9 61.35 410.15 58.55 413.4 56.25 413.4 53.1 413.4 52.1 410.75 L51.75 407.95 44.65 407.75 44.65 407.9 Q44.65 409.5 42.65 410.95 40.65 412.4 38.35 412.4 35.5 412.4 33.65 411.65 31.6 410.5 30.1 409.85 L24.7 409.8 20.25 413.25 Q19.0 414.25 17.05 414.25 14.55 414.2 12.45 412.05 L9.95 409.65 Q12.8 414.1 15.65 420.4 17.2 418.45 19.55 417.85 21.9 417.15 23.55 418.2 25.35 419.35 25.35 422.25 L25.3 423.45 Q26.6 421.75 29.2 420.3 30.45 419.55 31.55 419.4 31.85 418.45 32.95 418.2 L36.6 418.45 Q38.45 419.15 39.7 420.25 42.05 419.2 45.1 418.7 L50.55 418.4 Q52.15 417.3 54.2 417.1 56.8 416.75 58.55 418.1 59.45 418.75 60.0 419.85 L61.05 419.75 Q61.8 419.75 63.15 420.75 M43.45 424.4 L43.3 424.6 43.8 424.4 43.45 424.4" fill="#5a5c68" fill-rule="evenodd" stroke="none"/>
  </g>
</svg>
