<?xml version="1.0" encoding="UTF-8" standalone="no"?>
<svg xmlns:ffdec="https://www.free-decompiler.com/flash" xmlns:xlink="http://www.w3.org/1999/xlink" ffdec:objectType="shape" height="22.35px" width="12.75px" xmlns="http://www.w3.org/2000/svg">
  <g transform="matrix(1.0, 0.0, 0.0, 1.0, 8.5, 23.95)">
    <path d="M4.25 -15.2 Q4.25 -12.95 3.45 -11.35 L1.7 -8.85 Q0.45 -7.4 0.0 -6.4 -0.75 -4.75 -0.7 -2.45 -0.95 -1.05 -1.95 -2.0 L-3.1 -3.65 -3.9 -5.25 -5.05 -6.85 -7.5 -10.25 Q-8.5 -11.75 -8.5 -13.25 -8.5 -15.25 -6.45 -18.2 L-6.1 -18.7 Q-4.0 -21.5 -1.4 -22.75 L-1.55 -23.0 -1.65 -23.3 -1.4 -23.75 -0.8 -23.95 Q0.35 -23.95 1.25 -22.2 L2.25 -19.55 2.6 -18.7 3.5 -16.8 4.25 -15.2" fill="#00b3ff" fill-rule="evenodd" stroke="none"/>
  </g>
</svg>
