<?xml version="1.0" encoding="UTF-8" standalone="no"?>
<svg xmlns:ffdec="https://www.free-decompiler.com/flash" xmlns:xlink="http://www.w3.org/1999/xlink" ffdec:objectType="shape" height="26.9px" width="32.4px" xmlns="http://www.w3.org/2000/svg">
  <g transform="matrix(1.0, 0.0, 0.0, 1.0, 19.2, 12.05)">
    <path d="M-10.7 -10.6 L-11.0 -10.8 -10.7 -10.9 -10.7 -10.6" fill="#dddddd" fill-opacity="0.29803923" fill-rule="evenodd" stroke="none"/>
    <path d="M-3.0 14.35 L-3.4 14.45 -3.2 14.35 -3.0 14.2 -3.0 14.35" fill="#00ccff" fill-rule="evenodd" stroke="none"/>
    <path d="M-0.95 13.15 L-1.25 13.5 -1.8 14.35 -2.15 14.85 -2.6 14.8 -0.95 13.15" fill="#990000" fill-rule="evenodd" stroke="none"/>
    <path d="M-14.25 -10.55 L-13.5 -11.25 Q-12.75 -11.85 -12.0 -11.95 L-11.45 -12.05 -0.5 -11.85 2.0 -11.25 1.55 -10.95 1.35 -10.8 1.25 -10.55 1.25 -10.2 1.25 -10.0 1.25 -9.75 1.55 -9.3 Q1.85 -8.45 2.75 -8.2 L3.35 -7.75 3.7 -7.1 4.5 -6.35 4.85 -6.1 5.0 -6.0 5.05 -5.9 5.05 -5.6 5.2 -5.45 5.2 -5.1 5.2 -4.85 5.2 -4.75 5.2 -4.5 Q4.65 -2.4 3.7 -0.3 L1.75 4.1 Q-0.35 8.15 -2.8 11.75 L-3.25 10.7 -3.75 9.45 -3.75 9.3 -3.75 9.1 -3.75 9.0 -4.0 8.45 -4.85 6.9 -5.5 5.4 -5.5 5.25 -5.55 4.7 Q-5.55 4.45 -5.85 4.25 L-6.15 4.0 -6.2 3.5 -6.65 1.8 -7.4 0.55 -8.35 -1.25 Q-9.0 -2.3 -10.35 -2.3 L-10.85 -3.1 -10.9 -3.45 -10.9 -3.7 -11.0 -3.7 -10.9 -3.85 -10.85 -4.05 -10.85 -4.15 -9.55 -5.1 -4.7 -6.75 -4.35 -7.15 -4.25 -7.65 -4.15 -7.75 -1.15 -8.3 Q-0.95 -8.3 -0.7 -8.45 L-0.5 -8.7 -0.35 -9.05 -0.25 -9.4 -0.25 -9.5 -0.25 -9.8 -0.35 -10.2 -0.5 -10.55 -0.6 -10.8 -2.05 -11.15 -7.9 -11.25 -10.7 -10.9 -11.0 -10.8 -11.2 -10.8 -10.85 -11.05 -11.45 -10.95 -11.75 -11.05 -12.55 -11.25 Q-13.5 -11.05 -14.25 -10.55" fill="#ff6600" fill-rule="evenodd" stroke="none"/>
    <path d="M2.0 -11.25 L2.05 -11.55 2.95 -11.7 3.35 -11.65 3.85 -11.25 4.5 -11.15 4.65 -11.35 5.3 -11.85 6.1 -12.05 7.75 -11.7 12.7 -5.3 12.7 -4.95 12.7 -4.75 12.9 -4.65 13.0 -4.15 13.2 -3.85 13.0 -3.35 8.45 2.0 8.2 2.2 -0.8 12.95 -0.9 13.1 -0.95 13.15 -2.6 14.8 -2.6 14.65 -2.8 14.55 -3.0 14.35 -3.0 14.2 -3.15 13.85 -3.25 13.65 -3.25 13.5 -3.25 13.45 -3.25 13.1 -3.15 12.65 -3.0 12.0 -2.8 11.75 Q-0.35 8.15 1.75 4.1 L3.7 -0.3 Q4.65 -2.4 5.2 -4.5 L5.2 -4.75 5.2 -4.85 5.2 -5.1 5.2 -5.45 5.05 -5.6 5.05 -5.9 5.0 -6.0 4.85 -6.1 4.5 -6.35 3.7 -7.1 3.35 -7.75 2.75 -8.2 Q1.85 -8.45 1.55 -9.3 L1.25 -9.75 1.25 -10.0 1.25 -10.2 1.25 -10.55 1.35 -10.8 1.55 -10.95 2.0 -11.25" fill="#c64f00" fill-rule="evenodd" stroke="none"/>
    <path d="M-11.0 -10.8 L-10.7 -10.6 -9.9 -10.1 -9.65 -9.5 -9.55 -8.95 -9.55 -8.3 -9.65 -7.75 -10.05 -7.15 -10.7 -6.75 Q-10.85 -5.9 -11.45 -5.3 -12.25 -4.65 -13.25 -4.5 -14.25 -4.65 -14.9 -5.3 L-15.45 -6.3 -15.35 -7.3 Q-15.1 -8.2 -14.3 -8.85 L-14.25 -8.95 -13.25 -10.2 Q-12.7 -10.8 -11.45 -10.95 L-10.85 -11.05 -11.2 -10.8 -11.0 -10.8" fill="#ffc49b" fill-rule="evenodd" stroke="none"/>
    <path d="M-3.4 14.45 L-3.9 14.55 -7.0 10.6 -7.1 10.35 -7.1 10.25 -7.1 10.0 -7.8 8.7 -8.75 7.15 -9.0 6.9 -9.0 6.8 -9.0 6.55 -9.65 5.8 Q-10.05 5.1 -10.85 4.8 L-11.6 5.25 Q-11.6 4.8 -12.35 4.7 -13.15 4.55 -12.9 3.5 -12.75 2.2 -13.05 2.0 L-13.35 1.3 -13.8 0.85 -14.3 0.05 -15.2 -1.25 -15.35 -1.3 -15.6 -1.4 -15.7 -1.6 -15.8 -1.75 -15.8 -1.5 -15.9 -1.85 -16.1 -2.1 -16.1 -2.3 -16.1 -2.55 -16.2 -2.55 -16.2 -2.65 -16.65 -3.35 -16.9 -3.35 -17.3 -3.45 -17.55 -3.7 -17.9 -3.95 -18.1 -4.15 -19.2 -4.85 -18.4 -4.75 -18.4 -4.85 -18.4 -5.1 -18.35 -5.3 -18.25 -5.6 -17.7 -6.15 -17.25 -6.75 -17.25 -6.95 -17.25 -7.15 -17.15 -7.3 -17.15 -7.4 -16.65 -7.9 -15.9 -8.6 -15.8 -8.85 -14.3 -10.4 -14.25 -10.55 Q-13.5 -11.05 -12.55 -11.25 L-11.75 -11.05 -11.45 -10.95 Q-12.7 -10.8 -13.25 -10.2 L-14.25 -8.95 -14.3 -8.85 Q-15.1 -8.2 -15.35 -7.3 L-15.45 -6.3 -14.9 -5.3 Q-14.25 -4.65 -13.25 -4.5 -12.25 -4.65 -11.45 -5.3 -10.85 -5.9 -10.7 -6.75 L-10.05 -7.15 -9.65 -7.75 -9.55 -8.3 -9.55 -8.95 -9.65 -9.5 -9.9 -10.1 -10.7 -10.6 -10.7 -10.9 -7.9 -11.25 -2.05 -11.15 -0.6 -10.8 -0.5 -10.55 -0.35 -10.2 -0.25 -9.8 -0.25 -9.5 -0.25 -9.4 -0.35 -9.05 -0.5 -8.7 -0.7 -8.45 Q-0.95 -8.3 -1.15 -8.3 L-4.15 -7.75 -4.25 -7.65 -4.35 -7.15 -4.7 -6.75 -9.55 -5.1 -10.85 -4.15 -10.85 -4.05 -10.9 -3.85 -11.0 -3.7 -10.9 -3.7 -10.9 -3.45 -10.85 -3.1 -10.35 -2.3 Q-9.0 -2.3 -8.35 -1.25 L-7.4 0.55 -6.65 1.8 -6.2 3.5 -6.15 4.0 -5.85 4.25 Q-5.55 4.45 -5.55 4.7 L-5.5 5.25 -5.5 5.4 -4.85 6.9 -4.0 8.45 -3.75 9.0 -3.75 9.1 -3.75 9.3 -3.75 9.45 -3.25 10.7 -2.8 11.75 -3.0 12.0 -3.15 12.65 -3.25 13.1 -3.25 13.45 -3.25 13.5 -3.25 13.65 -3.15 13.85 -3.0 14.2 -3.2 14.35 -3.4 14.45" fill="#ff9d5b" fill-rule="evenodd" stroke="none"/>
  </g>
</svg>
