<?xml version="1.0" encoding="UTF-8" standalone="no"?>
<svg xmlns:ffdec="https://www.free-decompiler.com/flash" xmlns:xlink="http://www.w3.org/1999/xlink" ffdec:objectType="shape" height="22.7px" width="20.3px" xmlns="http://www.w3.org/2000/svg">
  <g transform="matrix(1.0, 0.0, 0.0, 1.0, 10.2, 11.6)">
    <path d="M-9.45 -6.45 L-8.6 -5.35 -8.95 -5.65 -9.15 -5.55 -9.3 -5.4 -9.45 -6.35 -9.5 -6.45 -9.45 -6.45 M4.7 -1.25 L4.7 -1.2 4.65 -1.3 4.7 -1.25 M0.65 -11.4 L0.6 -11.4 0.5 -11.55 0.35 -11.6 0.5 -11.6 0.7 -11.5 0.65 -11.45 0.65 -11.4" fill="#cc00ff" fill-rule="evenodd" stroke="none"/>
    <path d="M0.1 10.5 L0.15 10.35 0.2 10.45 0.1 10.5 M-5.4 -1.05 L-5.45 -1.05 -5.65 -0.95 -5.75 -0.95 -5.8 -0.9 -5.85 -0.85 -5.85 -0.95 -5.7 -1.15 -5.5 -1.2 -5.4 -1.05 M3.65 2.25 L3.05 3.65 3.5 2.45 3.65 2.25" fill="#e375ff" fill-rule="evenodd" stroke="none"/>
    <path d="M4.85 1.6 L4.85 1.5 4.9 1.65 4.85 1.6 M2.35 7.8 L1.95 8.25 1.9 8.25 2.15 7.75 2.35 7.8" fill="#e991ff" fill-rule="evenodd" stroke="none"/>
    <path d="M8.0 5.55 L8.0 5.5 8.05 5.4 8.1 5.4 8.0 5.55 M-7.85 -1.0 L-7.8 -1.0 -7.65 -0.8 -7.9 -0.35 -7.85 -1.0" fill="#aa00d5" fill-rule="evenodd" stroke="none"/>
    <path d="M0.7 -11.4 L0.65 -11.4 0.65 -11.45 0.7 -11.4" fill="#be5eff" fill-rule="evenodd" stroke="none"/>
    <path d="M-9.45 -6.45 L-9.3 -6.5 -8.95 -6.85 Q-8.9 -6.85 -8.75 -6.95 L-8.65 -6.8 -4.9 -9.0 -2.8 -10.2 -1.9 -10.8 -1.75 -11.0 Q-1.45 -10.9 -1.15 -11.15 L-0.8 -11.4 -0.7 -11.45 0.15 -11.55 0.35 -11.55 0.35 -11.6 0.5 -11.55 0.6 -11.4 0.65 -11.4 0.7 -11.4 1.35 -10.75 2.5 -9.45 2.7 -9.15 3.5 -8.4 3.85 -7.8 4.5 -7.0 4.55 -6.55 4.3 -6.55 4.3 -6.45 Q3.5 -6.45 3.05 -7.1 L2.7 -7.45 2.2 -8.2 1.85 -8.55 Q1.45 -8.8 1.0 -9.4 L0.5 -10.5 0.0 -11.1 Q-0.35 -10.5 -1.0 -10.05 -1.45 -8.55 -2.35 -7.1 L-4.4 -4.1 -4.65 -3.75 -5.5 -1.55 -5.5 -1.2 -5.7 -1.15 -5.85 -0.95 -5.85 -0.85 -5.8 -0.9 -5.75 -0.95 -5.65 -0.95 -5.45 -1.05 -5.4 -1.05 -5.2 -1.2 -4.25 -0.95 1.05 -0.95 2.65 -0.8 3.65 -1.0 4.5 -1.0 4.55 -1.0 4.55 -1.05 4.65 -1.2 4.7 -1.2 4.7 -1.25 4.85 -1.3 5.1 -0.95 5.2 -0.95 5.35 -0.95 5.65 -0.4 Q5.7 -0.05 5.35 0.35 L5.1 0.55 4.85 1.5 4.85 1.6 4.85 1.65 4.4 2.6 4.3 2.95 3.05 5.25 0.15 10.35 0.1 10.5 -0.3 11.1 -0.75 10.7 -0.7 10.5 -0.6 10.2 -1.05 9.8 -1.0 9.5 -1.9 8.1 Q-3.2 5.25 -4.75 2.5 L-5.3 1.3 -5.5 0.9 -5.85 -0.4 -5.85 -0.6 -6.15 -0.6 -6.1 -0.95 -6.15 -0.95 -6.45 -1.0 -6.45 -1.4 -7.6 -2.55 -9.3 -5.05 -9.3 -5.1 -9.35 -5.3 -9.3 -5.4 -9.15 -5.55 -8.95 -5.65 -8.6 -5.35 -9.45 -6.45 M3.65 2.25 L3.5 2.45 3.05 3.65 3.65 2.25" fill="#b15bff" fill-rule="evenodd" stroke="none"/>
    <path d="M-9.3 -5.05 L-7.6 -2.55 -6.45 -1.4 -6.45 -1.0 -6.15 -0.95 -6.1 -0.95 -6.15 -0.6 -5.85 -0.6 -5.85 -0.4 -6.45 0.65 -7.55 2.5 -9.15 5.4 -9.75 4.55 -9.6 3.85 Q-9.25 2.1 -9.8 0.85 L-10.2 0.2 -10.1 -1.25 -10.1 -1.3 -9.8 -1.55 -9.65 -1.7 -9.7 -3.05 -9.55 -3.9 Q-9.35 -4.5 -9.3 -5.05 M3.05 -7.1 Q3.5 -6.45 4.3 -6.45 L4.3 -6.55 4.55 -6.55 4.5 -7.0 3.85 -7.8 3.5 -8.4 2.7 -9.15 2.5 -9.45 1.35 -10.75 0.7 -11.4 0.65 -11.45 0.7 -11.5 1.5 -11.15 Q4.85 -9.55 7.7 -7.4 L9.25 -6.1 7.75 -4.35 5.55 -1.85 3.35 -6.45 3.05 -7.1 M6.3 -5.45 L6.3 -5.4 6.35 -5.45 6.3 -5.45 M-7.85 -1.0 L-7.9 -0.35 -7.65 -0.8 -7.8 -1.0 -7.85 -1.0" fill="#9f35ff" fill-rule="evenodd" stroke="none"/>
    <path d="M0.15 10.35 L3.05 5.25 4.3 2.95 3.15 5.55 2.15 7.75 1.9 8.25 1.95 8.25 2.35 7.8 3.0 6.8 3.05 6.75 4.5 5.25 4.9 4.7 5.75 3.8 4.9 1.65 4.85 1.5 5.1 0.55 5.35 0.35 Q5.7 -0.05 5.65 -0.4 L6.0 0.25 6.35 0.8 7.75 2.35 9.65 4.8 9.7 5.3 6.05 7.4 1.3 9.75 Q0.6 9.95 0.2 10.45 L0.15 10.35 M5.35 -0.95 L5.2 -0.95 5.1 -0.95 4.85 -1.3 4.7 -1.25 4.65 -1.3 4.7 -1.2 4.65 -1.2 4.55 -1.05 4.5 -1.0 3.65 -1.0 2.65 -0.8 1.05 -0.95 -4.25 -0.95 -5.2 -1.2 -5.4 -1.05 -5.5 -1.2 -5.5 -1.55 -4.65 -3.75 -4.4 -4.1 -2.35 -7.1 Q-1.45 -8.55 -1.0 -10.05 -0.35 -10.5 0.0 -11.1 L0.5 -10.5 1.0 -9.4 Q1.45 -8.8 1.85 -8.55 L2.2 -8.2 2.7 -7.45 3.05 -7.1 3.35 -6.45 5.55 -1.85 5.65 -1.5 Q5.8 -1.2 5.55 -0.95 L5.35 -0.95 M8.0 5.55 L8.1 5.4 8.05 5.4 8.0 5.5 8.0 5.55 M-3.05 -3.65 L-3.9 -2.45 -4.45 -1.3 -3.95 -1.25 -1.95 -1.25 -1.55 -1.25 -1.0 -4.95 Q-0.55 -6.85 -0.45 -8.95 -1.05 -7.45 -1.9 -6.1 L-2.8 -4.45 -3.05 -3.65" fill="#c788ff" fill-rule="evenodd" stroke="none"/>
    <path d="M-5.85 -0.4 L-5.5 0.9 -5.3 1.3 -4.75 2.5 Q-3.2 5.25 -1.9 8.1 L-1.0 9.5 -1.05 9.8 -1.8 9.4 -7.2 6.7 -8.65 5.25 -9.0 5.7 -9.1 5.75 -9.15 5.4 -7.55 2.5 -6.45 0.65 -5.85 -0.4 M5.65 -0.4 L5.35 -0.95 5.55 -0.95 Q5.8 -1.2 5.65 -1.5 L5.55 -1.85 7.75 -4.35 9.25 -6.1 9.6 -5.9 9.85 -5.75 10.1 -5.7 10.1 -5.65 10.1 -5.15 Q9.6 -3.45 9.75 -1.45 9.95 1.35 9.65 4.2 L9.65 4.8 7.75 2.35 6.35 0.8 6.0 0.25 5.65 -0.4 M7.4 -0.4 L7.35 -0.4 7.4 -0.3 7.4 -0.4" fill="#8600ff" fill-rule="evenodd" stroke="none"/>
    <path d="M4.55 -1.05 L4.55 -1.0 4.5 -1.0 4.55 -1.05" fill="#ce84ff" fill-rule="evenodd" stroke="none"/>
    <path d="M4.85 1.65 L4.85 1.6 4.9 1.65 4.85 1.65" fill="#e2b7ff" fill-rule="evenodd" stroke="none"/>
    <path d="M4.3 2.95 L4.4 2.6 4.85 1.65 4.9 1.65 5.75 3.8 4.9 4.7 4.5 5.25 3.05 6.75 3.0 6.8 2.35 7.8 2.15 7.75 3.15 5.55 4.3 2.95 M-3.05 -3.65 L-2.8 -4.45 -1.9 -6.1 Q-1.05 -7.45 -0.45 -8.95 -0.55 -6.85 -1.0 -4.95 L-1.55 -1.25 -1.95 -1.25 -3.95 -1.25 -4.45 -1.3 -3.9 -2.45 -3.05 -3.65" fill="#d6a8ff" fill-rule="evenodd" stroke="none"/>
  </g>
</svg>
