<?xml version="1.0" encoding="UTF-8" standalone="no"?>
<svg xmlns:ffdec="https://www.free-decompiler.com/flash" xmlns:xlink="http://www.w3.org/1999/xlink" ffdec:objectType="shape" height="22.7px" width="20.3px" xmlns="http://www.w3.org/2000/svg">
  <g transform="matrix(1.0, 0.0, 0.0, 1.0, 10.1, 11.65)">
    <path d="M0.45 -11.65 L0.6 -11.65 0.65 -11.65 0.6 -11.6 0.45 -11.65 M-9.2 -5.45 L-9.4 -6.4 -9.45 -6.45 -9.4 -6.45 -8.5 -5.4 -8.85 -5.7 -9.1 -5.6 -9.2 -5.45 M0.7 -11.45 L0.75 -11.5 0.75 -11.45 0.7 -11.45 M4.8 -1.25 L4.75 -1.35 4.8 -1.3 4.8 -1.25" fill="#cc00ff" fill-rule="evenodd" stroke="none"/>
    <path d="M0.6 -11.6 L0.65 -11.65 0.75 -11.55 0.75 -11.5 0.7 -11.45 0.6 -11.6" fill="#494949" fill-rule="evenodd" stroke="none"/>
    <path d="M0.25 10.4 L0.2 10.5 0.25 10.3 0.25 10.4 M-5.35 -1.1 L-5.55 -1.0 -5.65 -1.0 -5.75 -0.95 -5.8 -0.9 -5.8 -1.0 -5.6 -1.2 -5.4 -1.25 -5.35 -1.1" fill="#747474" fill-rule="evenodd" stroke="none"/>
    <path d="M4.65 -1.1 L4.65 -1.05 4.6 -1.05 4.65 -1.1 M3.7 2.2 L3.1 3.6 3.6 2.4 3.7 2.2" fill="#e375ff" fill-rule="evenodd" stroke="none"/>
    <path d="M4.95 1.55 L4.95 1.45 5.0 1.6 4.95 1.55" fill="#959595" fill-rule="evenodd" stroke="none"/>
    <path d="M8.1 5.5 L8.1 5.45 8.15 5.35 8.2 5.35 8.1 5.5" fill="#aa00d5" fill-rule="evenodd" stroke="none"/>
    <path d="M0.75 -11.55 L1.6 -11.2 Q4.9 -9.6 7.8 -7.45 L9.35 -6.15 7.8 -4.4 5.65 -1.9 3.45 -6.45 3.1 -7.1 Q3.6 -6.5 4.35 -6.45 L4.35 -6.6 4.65 -6.6 4.6 -7.05 3.95 -7.8 Q3.7 -8.05 3.6 -8.45 L2.8 -9.2 2.6 -9.5 1.45 -10.8 0.75 -11.45 0.75 -11.5 0.75 -11.55 M-9.1 5.35 L-9.65 4.5 -9.5 3.8 Q-9.15 2.05 -9.75 0.8 L-10.1 0.15 -10.0 -1.3 -10.0 -1.35 -9.75 -1.6 -9.55 -1.75 -9.6 -3.05 -9.45 -3.95 -9.2 -5.1 -7.5 -2.6 -6.4 -1.45 -6.4 -1.05 -6.05 -1.0 -6.0 -1.0 -6.05 -0.65 -5.8 -0.65 -5.75 -0.45 -6.4 0.6 -7.45 2.45 -9.1 5.35" fill="#26bf00" fill-rule="evenodd" stroke="none"/>
    <path d="M0.45 -11.65 L0.6 -11.6 0.7 -11.45 0.75 -11.45 1.45 -10.8 2.6 -9.5 2.8 -9.2 3.6 -8.45 Q3.7 -8.05 3.95 -7.8 L4.6 -7.05 4.65 -6.6 4.35 -6.6 4.35 -6.45 Q3.6 -6.5 3.1 -7.1 L2.8 -7.5 2.3 -8.25 1.95 -8.6 1.05 -9.45 0.6 -10.55 0.1 -11.15 -0.9 -10.1 Q-1.35 -8.6 -2.3 -7.15 L-4.35 -4.15 -4.55 -3.8 -5.4 -1.6 -5.4 -1.25 -5.6 -1.2 -5.8 -1.0 -5.8 -0.9 -5.75 -0.95 -5.65 -1.0 -5.55 -1.0 -5.35 -1.1 -5.1 -1.25 -4.15 -1.0 1.15 -1.0 2.75 -0.85 3.7 -1.05 4.6 -1.05 4.65 -1.05 4.65 -1.1 4.75 -1.25 4.8 -1.25 4.8 -1.3 4.95 -1.3 4.95 -1.35 5.15 -1.0 5.3 -1.0 5.4 -1.0 5.75 -0.45 5.4 0.35 5.2 0.5 4.95 1.45 4.95 1.55 4.5 2.55 4.35 2.9 3.1 5.2 0.25 10.3 0.2 10.5 -0.25 11.05 -0.7 10.65 -0.6 10.5 -0.5 10.15 -1.0 9.8 -0.95 9.45 -1.8 8.05 Q-3.1 5.2 -4.65 2.45 L-5.2 1.25 -5.4 0.85 -5.75 -0.45 -5.8 -0.65 -6.05 -0.65 -6.0 -1.0 -6.05 -1.0 -6.4 -1.05 -6.4 -1.45 -7.5 -2.6 -9.2 -5.1 -9.25 -5.35 -9.2 -5.4 -9.2 -5.45 -9.1 -5.6 -8.85 -5.7 -8.5 -5.4 -9.4 -6.45 -9.2 -6.55 -8.85 -6.9 -8.65 -6.95 -8.55 -6.85 -4.85 -9.05 -2.7 -10.25 -1.8 -10.85 -1.7 -11.0 -1.05 -11.15 -0.75 -11.45 -0.6 -11.5 0.25 -11.6 0.45 -11.6 0.45 -11.65 M3.7 2.2 L3.6 2.4 3.1 3.6 3.7 2.2" fill="#2cd900" fill-rule="evenodd" stroke="none"/>
    <path d="M9.75 4.75 L9.8 5.3 6.15 7.35 1.4 9.7 0.25 10.4 0.25 10.3 3.1 5.2 4.35 2.9 3.25 5.5 2.0 8.2 2.05 8.2 2.4 7.8 3.05 6.75 3.1 6.7 4.6 5.2 5.0 4.65 5.85 3.75 5.0 1.6 4.95 1.45 5.2 0.5 5.4 0.35 5.75 -0.45 6.1 0.2 6.4 0.75 7.8 2.3 9.75 4.75 M-5.4 -1.25 L-5.4 -1.6 -4.55 -3.8 -4.35 -4.15 -2.3 -7.15 Q-1.35 -8.6 -0.9 -10.1 L0.1 -11.15 0.6 -10.55 1.05 -9.45 1.95 -8.6 2.3 -8.25 2.8 -7.5 3.1 -7.1 3.45 -6.45 5.65 -1.9 5.75 -1.55 5.65 -1.0 5.4 -1.0 5.3 -1.0 5.15 -1.0 4.95 -1.35 4.95 -1.3 4.8 -1.3 4.75 -1.35 4.8 -1.25 4.75 -1.25 4.65 -1.1 4.6 -1.05 3.7 -1.05 2.75 -0.85 1.15 -1.0 -4.15 -1.0 -5.1 -1.25 -5.35 -1.1 -5.4 -1.25 M8.1 5.5 L8.2 5.35 8.15 5.35 8.1 5.45 8.1 5.5 M-3.0 -3.7 L-3.8 -2.5 -4.4 -1.3 -3.85 -1.3 -1.85 -1.3 -1.45 -1.3 -0.95 -5.0 Q-0.45 -6.9 -0.35 -9.0 -1.0 -7.5 -1.8 -6.15 L-2.75 -4.5 -3.0 -3.7" fill="#33ff00" fill-rule="evenodd" stroke="none"/>
    <path d="M5.0 1.6 L5.85 3.75 5.0 4.65 4.6 5.2 3.1 6.7 3.05 6.75 2.4 7.8 2.05 8.2 2.0 8.2 3.25 5.5 4.35 2.9 4.5 2.55 4.95 1.55 5.0 1.6 M-3.0 -3.7 L-2.75 -4.5 -1.8 -6.15 Q-1.0 -7.5 -0.35 -9.0 -0.45 -6.9 -0.95 -5.0 L-1.45 -1.3 -1.85 -1.3 -3.85 -1.3 -4.4 -1.3 -3.8 -2.5 -3.0 -3.7" fill="#8cff8c" fill-rule="evenodd" stroke="none"/>
    <path d="M9.35 -6.15 L9.7 -5.95 9.95 -5.75 10.2 -5.75 10.2 -5.7 10.2 -5.2 Q9.7 -3.5 9.8 -1.5 L9.75 4.15 9.75 4.75 7.8 2.3 6.4 0.75 6.1 0.2 5.75 -0.45 5.4 -1.0 5.65 -1.0 5.75 -1.55 5.65 -1.9 7.8 -4.4 9.35 -6.15 M-1.0 9.8 L-1.75 9.35 -7.1 6.65 -8.55 5.2 -8.95 5.65 -9.0 5.75 -9.1 5.35 -7.45 2.45 -6.4 0.6 -5.75 -0.45 -5.4 0.85 -5.2 1.25 -4.65 2.45 Q-3.1 5.2 -1.8 8.05 L-0.95 9.45 -1.0 9.8 M7.45 -0.45 L7.4 -0.45 7.45 -0.3 7.45 -0.45" fill="#21a400" fill-rule="evenodd" stroke="none"/>
  </g>
</svg>
