<?xml version="1.0" encoding="UTF-8" standalone="no"?>
<svg xmlns:ffdec="https://www.free-decompiler.com/flash" xmlns:xlink="http://www.w3.org/1999/xlink" ffdec:objectType="shape" height="27.35px" width="27.35px" xmlns="http://www.w3.org/2000/svg">
  <g transform="matrix(1.0, 0.0, 0.0, 1.0, 13.7, 13.65)">
    <path d="M-0.05 -8.15 L-0.05 -13.65 13.65 0.05 8.15 0.05 -0.05 -8.15 M-13.45 0.3 L-8.2 0.0 -0.1 8.1 0.0 13.7 -13.45 0.3" fill="#26bf00" fill-rule="evenodd" stroke="none"/>
    <path d="M-0.05 -8.15 L8.15 0.05 0.0 8.2 -0.1 8.1 -8.2 0.0 -0.05 -8.15" fill="#2cd900" fill-rule="evenodd" stroke="none"/>
    <path d="M-0.05 -13.65 L-0.05 -8.15 -8.2 0.0 -13.45 0.3 -13.7 0.0 -0.05 -13.65" fill="#33ff00" fill-rule="evenodd" stroke="none"/>
    <path d="M8.15 0.05 L13.65 0.05 0.0 13.7 -0.1 8.1 0.0 8.2 8.15 0.05" fill="#21a400" fill-rule="evenodd" stroke="none"/>
  </g>
</svg>
