<?xml version="1.0" encoding="UTF-8" standalone="no"?>
<svg xmlns:ffdec="https://www.free-decompiler.com/flash" xmlns:xlink="http://www.w3.org/1999/xlink" ffdec:objectType="shape" height="12.15px" width="22.25px" xmlns="http://www.w3.org/2000/svg">
  <g transform="matrix(1.0, 0.0, 0.0, 1.0, 11.0, 6.15)">
    <path d="M9.0 -5.6 L9.25 -5.5 9.75 -5.35 10.0 -5.25 10.3 -5.25 Q10.8 -4.1 10.65 -1.95 L11.05 0.6 11.25 3.0 11.15 4.5 Q10.9 5.2 9.6 6.0 L-10.35 6.0 Q-11.0 5.65 -11.0 4.85 -11.0 3.9 -10.5 3.8 L-10.5 3.65 -10.25 1.2 -10.65 -2.6 Q-10.65 -5.05 -10.25 -5.25 L-10.25 -5.3 -9.75 -5.7 3.9 -5.7 5.25 -6.15 5.25 -5.75 8.5 -5.75 9.0 -5.6 M10.05 3.0 L10.0 2.5 10.0 3.9 10.05 3.0" fill="#000000" fill-rule="evenodd" stroke="none"/>
  </g>
</svg>
