<?xml version="1.0" encoding="UTF-8" standalone="no"?>
<svg xmlns:ffdec="https://www.free-decompiler.com/flash" xmlns:xlink="http://www.w3.org/1999/xlink" ffdec:objectType="shape" height="62.75px" width="41.05px" xmlns="http://www.w3.org/2000/svg">
  <g transform="matrix(1.0, 0.0, 0.0, 1.0, 51.3, -148.75)">
    <path d="M-47.5 197.9 L-47.6 197.8 -47.55 197.75 -47.5 197.85 -47.5 197.9 M-18.1 198.25 L-18.4 197.95 -18.55 197.75 -18.7 197.4 -18.8 196.8 -18.6 196.05 -18.5 195.9 -18.3 195.7 -18.25 195.7 -17.25 197.4 -17.25 197.55 -17.35 197.75 -17.4 197.85 -17.55 197.9 -17.85 198.0 -18.1 198.25 M-19.7 193.7 L-20.7 192.7 -21.1 192.5 -21.3 192.3 -21.5 192.1 -21.6 191.95 -21.7 191.75 -21.75 191.55 -21.5 191.5 -20.0 193.35 -19.7 193.7 M-35.6 191.65 L-39.6 192.0 -39.2 191.3 -35.6 191.65 M-30.5 203.8 L-30.15 204.05 -30.45 204.6 -30.55 204.55 -30.55 204.2 -30.55 204.1 -30.5 203.8" fill="#533f11" fill-rule="evenodd" stroke="none"/>
    <path d="M-23.85 188.5 L-21.5 188.0 -21.0 188.0 Q-20.1 188.1 -19.5 188.85 L-19.15 189.4 -21.0 188.0 -21.0 188.05 -21.75 188.25 -22.0 188.4 -22.1 188.5 -23.85 188.5 M-18.25 195.7 L-19.7 193.7 -20.0 193.35 -21.5 191.5 -21.75 191.55 -30.45 191.95 -28.5 192.0 -21.5 191.35 -19.85 192.95 Q-18.0 194.8 -17.25 197.2 L-17.25 197.4 -18.25 195.7" fill="#33270a" fill-opacity="0.49803922" fill-rule="evenodd" stroke="none"/>
    <path d="M-40.55 148.9 L-40.0 148.8 -40.0 148.75 -25.75 149.2 -21.65 149.65 -21.3 149.45 -20.75 149.25 Q-15.15 152.15 -11.9 157.85 -11.05 159.35 -10.75 160.9 L-10.6 161.0 Q-9.8 162.5 -10.8 163.95 L-12.35 165.7 Q-14.45 169.15 -17.0 172.45 L-21.9 178.55 -24.0 180.9 Q-25.65 182.1 -27.55 182.8 L-28.25 183.0 -28.65 182.9 Q-30.5 183.9 -32.85 183.35 L-33.05 183.3 -33.75 183.5 -34.95 183.2 -36.4 180.95 -37.3 179.05 -37.5 178.85 -37.6 178.7 -37.7 178.5 -37.85 178.1 -38.2 177.55 -38.2 177.4 -38.25 177.2 -44.9 170.3 -47.6 167.25 Q-48.5 166.85 -48.85 165.95 L-49.45 164.8 -49.5 164.45 -49.9 163.7 -50.05 163.5 -50.15 163.25 -50.2 163.2 Q-51.35 160.95 -50.4 158.5 -49.6 156.55 -47.95 155.3 -47.1 153.65 -45.4 152.85 L-44.7 152.55 -43.85 151.8 -43.5 151.2 -43.35 151.0 -42.8 150.7 -42.25 150.5 -41.5 150.7 -41.5 150.55 -41.5 150.4 -41.5 150.2 -41.5 150.0 -41.45 149.8 -41.1 149.25 -40.9 149.1 -40.55 148.9 M-40.5 152.05 L-40.5 152.15 -40.7 152.65 Q-42.0 153.3 -43.05 154.55 L-47.1 159.55 -47.25 160.8 -47.3 160.8 -47.7 160.95 -47.7 161.35 -47.7 161.5 -47.1 162.05 -46.6 162.95 -46.4 163.6 -46.25 163.55 -46.25 163.5 Q-43.7 164.8 -41.8 167.05 -40.9 168.1 -41.45 169.2 L-41.35 169.3 -41.1 169.75 -40.85 169.85 -40.3 170.25 -39.6 171.25 Q-36.2 174.0 -34.25 177.95 L-33.8 178.85 -33.35 179.8 -33.25 179.8 -31.95 179.8 Q-30.5 179.75 -29.3 180.25 -27.65 179.4 -26.05 178.35 L-24.6 177.25 Q-23.65 175.65 -22.35 174.25 L-21.35 172.65 -21.35 172.55 Q-19.55 170.0 -17.4 167.7 L-16.25 166.35 -15.55 165.45 Q-15.0 163.85 -14.1 162.5 L-13.7 161.95 -13.8 161.75 -13.95 161.55 -13.95 161.45 -14.1 160.8 -14.75 159.85 -15.05 159.5 -15.15 159.3 -15.2 159.15 -15.25 158.95 -18.6 154.6 -18.85 154.3 -18.85 154.25 -18.8 154.05 -18.75 153.9 -18.75 153.7 -18.8 153.5 -18.85 153.3 -18.95 153.1 -19.1 152.75 -19.7 152.45 -20.25 152.25 -24.55 152.45 -31.35 152.25 -38.75 151.25 -38.75 151.3 -39.3 151.45 -39.85 151.75 -40.0 151.95 -40.25 151.9 -40.55 151.8 -40.5 152.05 M-37.2 211.0 L-41.3 211.0 -42.3 208.8 -42.5 208.6 -42.55 208.5 -42.6 208.45 -42.7 208.25 -42.75 208.05 -42.8 207.9 Q-44.9 204.95 -47.25 202.15 -48.65 200.4 -50.55 199.25 L-50.75 198.7 -50.7 198.0 -50.75 196.85 -51.0 196.55 -51.3 195.8 Q-51.35 195.2 -51.0 194.7 L-50.7 194.3 -49.6 192.65 -49.05 191.9 -49.0 191.7 -48.95 191.5 -48.85 191.3 -47.1 189.15 Q-42.6 183.5 -34.8 184.55 L-34.25 184.5 Q-29.35 184.2 -24.85 185.5 L-21.2 186.2 Q-19.15 186.4 -17.45 187.45 L-17.3 187.65 -17.2 187.8 -17.1 188.0 -17.05 188.35 Q-15.8 189.75 -14.95 191.45 L-14.4 191.85 -13.2 193.1 -12.6 194.05 -12.5 194.25 -12.35 194.55 -11.95 194.7 -11.35 195.0 -11.25 195.2 -11.1 195.55 -11.0 196.15 -11.05 196.4 Q-10.75 196.75 -10.75 197.25 L-10.75 197.6 -10.8 197.8 -11.2 198.55 Q-11.7 198.95 -12.2 199.0 -12.6 200.35 -13.5 201.5 -14.4 202.65 -15.55 203.45 L-19.2 208.5 -19.55 208.95 -20.85 211.0 -24.3 211.0 -22.05 208.5 -20.35 206.5 -19.4 205.15 Q-18.55 204.25 -18.1 203.15 L-17.85 202.95 -17.6 202.75 -17.4 202.4 -17.2 202.0 -17.05 201.8 -15.85 200.5 -15.75 200.5 -14.9 200.15 -14.6 200.0 Q-14.2 198.9 -14.25 197.85 -14.3 196.8 -14.8 195.8 -16.2 192.0 -19.15 189.4 L-19.5 188.85 Q-20.1 188.1 -21.0 188.0 L-21.5 188.0 -23.85 188.5 -26.1 188.55 -28.4 188.7 -29.7 188.55 -40.0 187.25 -40.0 187.3 -40.55 187.4 -40.9 187.6 -41.1 187.75 -41.25 187.95 -41.35 188.15 -41.45 188.3 -41.5 188.5 -41.5 188.7 -42.35 189.55 Q-43.5 191.45 -45.25 192.8 -47.9 194.75 -47.6 197.7 L-47.55 197.75 -47.6 197.8 -47.5 197.9 -47.35 198.6 -46.95 199.2 -46.1 199.6 -45.45 199.95 -45.35 200.1 -45.1 200.7 -43.9 202.2 -42.5 204.45 -42.45 204.65 -42.4 204.8 -42.3 205.0 -41.65 205.75 -40.75 206.5 -39.4 208.5 -39.05 208.9 -38.85 209.1 -37.95 210.6 -37.55 210.6 -37.2 211.0 M-40.0 201.0 L-37.2 201.0 -35.55 203.0 -35.05 203.65 -35.0 203.8 -34.95 204.0 -34.85 204.2 -34.35 205.0 Q-33.2 207.25 -31.25 207.3 L-30.95 207.7 -30.55 207.85 -30.0 208.0 -29.65 207.9 -29.2 207.75 -28.95 207.55 -27.75 206.05 -26.5 203.65 -26.0 203.0 -24.75 201.5 -24.3 201.0 -20.85 201.0 -21.1 201.5 -21.4 201.7 -21.9 202.1 -22.1 202.25 -22.55 203.0 Q-24.6 206.3 -27.45 208.9 -28.65 210.0 -30.25 210.5 L-30.6 210.5 -30.8 210.9 -30.95 211.05 -31.2 211.25 -31.45 211.35 -32.0 211.5 -32.55 211.35 -32.95 211.2 -33.1 211.0 -31.9 211.0 -33.0 209.6 -33.95 208.5 -36.5 205.65 Q-38.05 203.1 -40.0 201.0" fill="#666666" fill-opacity="0.4509804" fill-rule="evenodd" stroke="none"/>
    <path d="M-47.25 160.8 L-47.1 159.55 -43.05 154.55 Q-42.0 153.3 -40.7 152.65 L-40.5 152.15 -40.5 152.05 -40.35 152.05 -40.25 151.9 -40.0 151.95 -39.85 151.75 -39.3 151.45 -38.75 151.3 -38.75 151.25 -31.35 152.25 -24.55 152.45 -20.25 152.25 -19.7 152.45 -19.1 152.75 -18.95 153.1 -18.85 153.3 -18.8 153.5 -18.75 153.7 -18.75 153.9 -18.8 154.05 -18.85 154.25 -18.85 154.3 -18.6 154.6 -15.25 158.95 -15.2 159.15 -15.15 159.3 -15.05 159.5 -14.75 159.85 -14.65 160.15 Q-14.45 160.7 -14.4 161.3 -14.15 161.3 -13.95 161.45 L-13.95 161.55 -13.8 161.75 -13.7 161.95 -14.1 162.5 Q-15.0 163.85 -15.55 165.45 L-16.25 166.35 -17.4 167.7 Q-19.55 170.0 -21.35 172.55 L-21.35 172.65 -22.1 173.6 -23.8 175.55 -25.2 177.3 -25.45 177.5 -25.55 177.55 -26.05 178.35 Q-27.65 179.4 -29.3 180.25 -30.5 179.75 -31.95 179.8 L-33.25 179.8 -33.3 179.5 -33.3 179.3 -33.8 178.85 -34.25 177.95 Q-36.2 174.0 -39.6 171.25 L-40.3 170.25 -40.85 169.85 -41.35 169.3 -41.45 169.2 Q-40.9 168.1 -41.8 167.05 -43.7 164.8 -46.25 163.5 L-46.25 163.55 -46.4 163.6 -46.6 162.95 -47.1 162.05 -47.2 161.4 -47.25 161.05 -47.25 160.8 M-42.7 160.5 L-42.7 160.65 -42.6 161.0 -42.55 161.15 -33.5 172.1 Q-31.35 174.65 -30.9 177.65 L-30.65 177.85 -30.05 178.2 Q-29.45 177.05 -28.5 176.15 -27.85 175.6 -27.6 174.8 L-27.5 174.65 -27.3 174.45 -26.85 174.05 -24.45 169.2 Q-23.45 167.15 -21.7 165.8 L-21.45 165.45 -20.8 164.7 -20.6 164.5 -19.8 164.15 -19.25 164.0 -18.45 164.2 -17.95 164.45 -17.75 164.25 -16.95 163.65 -17.7 163.45 -18.15 162.7 Q-18.35 162.0 -18.05 161.4 L-20.5 157.65 -21.9 155.45 -23.45 155.4 -37.25 154.95 -38.35 154.7 -38.45 154.75 Q-39.85 156.45 -40.85 158.4 -41.55 159.7 -42.7 160.5 M-37.2 211.0 L-37.55 210.6 -38.85 209.1 -39.05 208.9 -39.4 208.5 -40.75 206.5 -41.65 205.75 -42.3 205.0 -42.4 204.8 -42.45 204.65 -42.5 204.45 -43.9 202.2 -45.1 200.7 -45.35 200.1 -45.45 199.95 -46.1 199.6 -46.95 199.2 -47.35 198.6 -47.5 197.9 -47.5 197.85 -47.55 197.75 -47.6 197.7 Q-47.9 194.75 -45.25 192.8 -43.5 191.45 -42.35 189.55 L-41.5 188.7 -41.5 188.5 -41.45 188.3 -41.35 188.15 -41.25 187.95 -41.1 187.75 -40.9 187.6 -40.55 187.4 -40.0 187.3 -40.0 187.25 -29.7 188.55 -28.4 188.7 -26.1 188.55 -23.85 188.5 -22.1 188.5 -22.0 188.4 -21.75 188.25 -21.0 188.05 -21.0 188.0 -19.15 189.4 Q-16.2 192.0 -14.8 195.8 -14.3 196.8 -14.25 197.85 -14.2 198.9 -14.6 200.0 L-14.9 200.15 -15.75 200.5 -15.85 200.5 -17.05 201.8 -17.2 202.0 -17.4 202.4 -17.6 202.75 -17.85 202.95 -18.1 203.15 Q-18.55 204.25 -19.4 205.15 L-20.35 206.5 -22.05 208.5 -24.3 211.0 -28.45 211.0 -26.8 209.1 -26.15 208.5 -25.25 207.55 -25.2 207.35 -25.2 207.2 -22.4 204.0 -21.1 202.5 Q-20.85 201.35 -20.1 200.5 L-18.85 199.3 -18.65 198.95 -18.1 198.25 -17.85 198.0 -17.55 197.9 -17.4 197.85 -17.35 197.75 -17.25 197.55 -17.25 197.4 -17.25 197.2 Q-18.0 194.8 -19.85 192.95 L-21.5 191.35 -28.5 192.0 -30.45 191.95 -35.6 191.65 -39.2 191.3 -39.6 192.0 -39.95 192.55 Q-41.0 193.15 -41.55 194.25 L-42.45 195.2 -42.5 195.35 -42.75 195.75 -43.0 196.15 Q-43.4 196.3 -43.65 196.7 L-43.7 196.85 -43.1 197.55 -42.65 198.4 -42.45 198.65 -40.0 201.0 Q-38.05 203.1 -36.5 205.65 L-33.95 208.5 -33.0 209.6 -31.9 211.0 -33.1 211.0 -37.2 211.0 M-37.2 201.0 L-31.9 201.0 Q-31.25 201.95 -30.9 203.0 L-30.85 203.15 -30.5 203.65 -30.5 203.8 -30.55 204.1 -30.55 204.2 -30.55 204.55 -30.45 204.6 -30.15 204.05 -29.95 203.2 -29.8 203.0 -28.45 201.0 -24.3 201.0 -24.75 201.5 -26.0 203.0 -26.5 203.65 -27.75 206.05 -28.95 207.55 -29.2 207.75 -29.65 207.9 -30.0 208.0 -30.55 207.85 -30.95 207.7 -31.25 207.3 Q-33.2 207.25 -34.35 205.0 L-34.85 204.2 -34.95 204.0 -35.0 203.8 -35.05 203.65 -35.55 203.0 -37.2 201.0" fill="#333333" fill-opacity="0.46666667" fill-rule="evenodd" stroke="none"/>
  </g>
</svg>
