<?xml version="1.0" encoding="UTF-8" standalone="no"?>
<svg xmlns:ffdec="https://www.free-decompiler.com/flash" xmlns:xlink="http://www.w3.org/1999/xlink" ffdec:objectType="shape" height="21.55px" width="111.0px" xmlns="http://www.w3.org/2000/svg">
  <g transform="matrix(1.0, 0.0, 0.0, 1.0, 113.45, 16.5)">
    <path d="M-113.2 -13.15 Q-114.1 -15.25 -111.75 -15.7 L-109.1 -16.35 Q-104.6 -17.0 -101.05 -15.1 -100.5 -14.9 -100.05 -14.5 L-100.0 -14.45 -98.6 -13.35 -97.8 -12.15 Q-96.85 -10.65 -98.05 -8.15 L-99.0 -6.2 Q-96.4 -3.55 -96.25 -0.3 L-96.2 -0.3 -95.05 -0.3 Q-96.0 -1.25 -95.7 -3.1 -95.5 -4.6 -95.45 -6.15 L-95.0 -9.25 Q-96.55 -9.75 -97.0 -11.4 -97.25 -12.35 -96.8 -12.8 L-96.8 -13.15 Q-96.55 -14.6 -95.05 -14.75 L-88.95 -13.9 -87.25 -13.75 -86.8 -13.7 Q-85.85 -13.65 -85.45 -12.95 -84.75 -12.4 -84.75 -11.4 L-84.8 -10.5 Q-84.0 -12.15 -82.5 -13.0 L-80.75 -13.7 Q-79.35 -13.9 -78.2 -13.7 L-75.3 -12.8 Q-74.6 -13.85 -73.15 -13.95 L-72.3 -14.05 Q-69.4 -14.3 -66.95 -12.85 L-66.6 -12.55 Q-66.15 -13.4 -65.05 -13.5 L-61.4 -13.35 -60.0 -13.25 -59.05 -13.15 Q-58.15 -13.05 -57.7 -12.5 L-57.5 -13.25 Q-57.1 -14.45 -55.9 -14.5 -53.15 -13.75 -52.1 -10.8 L-50.7 -7.25 -50.6 -7.55 Q-49.25 -10.4 -47.45 -12.85 -46.65 -13.95 -45.4 -14.05 L-43.95 -13.65 -43.75 -13.7 Q-42.05 -12.9 -41.45 -11.25 -41.35 -12.15 -40.65 -12.7 -40.3 -13.8 -39.05 -13.9 L-37.25 -13.7 -36.55 -13.9 -29.95 -13.5 Q-29.6 -13.45 -29.35 -13.25 L-29.0 -12.8 -28.8 -11.9 -29.05 -11.25 Q-28.85 -10.45 -29.05 -9.4 L-29.25 -7.9 Q-28.55 -5.9 -29.35 -4.35 -29.7 -3.7 -30.35 -3.1 L-30.7 -2.95 -32.45 -2.75 -32.4 -2.1 Q-30.3 -3.25 -29.35 -1.6 L-29.05 -0.9 -29.0 -0.6 -29.15 0.4 Q-29.0 0.75 -29.0 1.25 L-29.35 1.95 Q-30.15 3.15 -31.85 3.15 L-32.4 3.15 -33.85 3.15 -33.95 3.15 -34.55 3.15 -34.8 3.2 -38.9 3.0 -39.75 2.7 -40.4 3.1 Q-44.25 4.25 -46.85 1.75 L-47.75 0.55 -48.0 0.85 Q-48.95 3.5 -51.65 3.35 -52.3 3.35 -52.7 2.85 -53.3 3.7 -54.45 3.9 -57.1 4.45 -59.4 3.5 -61.25 2.7 -60.95 1.35 L-62.1 2.15 -63.15 2.8 Q-63.5 3.45 -64.4 3.65 -67.6 4.4 -70.15 3.0 L-70.6 2.9 Q-73.15 2.2 -74.3 -0.3 L-74.5 -0.75 Q-75.0 3.0 -79.25 3.1 L-80.05 3.25 Q-83.2 3.85 -85.3 2.1 -86.35 4.05 -89.1 3.5 L-89.75 3.5 -92.3 3.35 -92.85 3.35 Q-97.65 3.5 -101.95 1.9 -102.35 4.25 -105.7 4.25 L-106.35 4.3 Q-108.85 4.8 -111.15 3.95 -113.3 3.2 -112.95 0.95 -112.75 -0.35 -111.4 -0.9 -111.25 -1.8 -111.25 -2.75 L-111.3 -4.45 -111.45 -5.05 -111.5 -6.3 Q-111.85 -9.0 -111.55 -11.7 L-112.0 -12.0 -112.35 -12.4 Q-112.9 -12.5 -113.2 -13.15 M-101.8 -11.15 L-104.25 -11.7 -106.9 -11.7 -106.9 -5.5 -106.15 -5.7 -106.05 -5.7 -106.0 -5.7 -105.95 -5.7 -105.8 -5.65 Q-103.95 -5.4 -102.9 -3.65 L-102.3 -2.45 Q-101.4 -1.7 -100.45 -1.2 L-101.3 -2.7 -103.0 -5.3 Q-103.35 -6.0 -103.1 -6.8 -102.8 -7.75 -101.95 -8.4 L-101.8 -8.75 Q-101.85 -9.5 -101.3 -10.25 L-101.8 -11.15 M-89.55 -8.2 L-89.55 -7.5 Q-87.05 -7.75 -86.75 -5.45 -86.4 -2.65 -89.4 -2.6 -89.1 -1.45 -89.25 -0.55 L-88.9 -0.6 Q-88.25 -3.15 -85.95 -1.8 L-85.95 -1.9 Q-85.6 -4.5 -82.9 -3.9 -86.05 -5.65 -85.4 -8.7 -86.4 -7.4 -88.9 -8.0 L-89.55 -8.2 M-82.35 -3.25 L-82.25 -3.1 Q-81.95 -2.8 -81.45 -2.7 L-81.35 -2.65 -80.65 -2.7 -82.4 -3.45 -82.45 -3.45 -82.35 -3.25 M-75.85 -7.25 Q-76.45 -6.95 -77.1 -6.9 L-75.8 -5.95 -75.85 -6.8 -75.85 -7.25 M-64.95 -9.45 Q-66.25 -9.95 -66.35 -10.65 L-66.5 -10.75 Q-67.1 -9.8 -68.4 -9.6 L-68.75 -9.55 Q-68.3 -7.75 -68.25 -5.9 L-68.25 -3.6 Q-67.85 -2.55 -67.75 -1.5 L-66.55 -0.75 -66.5 -0.75 -66.25 -0.85 -65.65 -1.3 -65.0 -1.8 Q-64.75 -2.3 -64.75 -2.85 L-64.45 -4.1 Q-64.45 -6.75 -64.05 -9.15 L-64.95 -9.45 M-41.1 -9.45 L-40.85 -8.35 -40.65 -7.55 -40.75 -8.6 -41.05 -9.35 -41.1 -9.45 M-22.75 -12.95 Q-22.75 -14.15 -22.05 -15.0 L-21.3 -15.45 Q-20.9 -15.9 -20.25 -15.95 L-19.35 -15.9 -19.1 -15.95 Q-18.25 -15.95 -17.55 -15.45 L-17.0 -14.95 -8.95 -11.3 Q-7.9 -10.85 -7.05 -10.0 -5.55 -9.4 -4.35 -8.45 L-4.2 -8.5 Q-3.0 -8.55 -2.55 -7.5 L-2.45 -6.9 -2.95 -6.3 Q-3.05 -5.75 -3.45 -5.15 L-4.05 -4.45 Q-9.8 0.3 -16.3 3.85 -17.2 4.45 -18.2 4.6 L-19.25 4.9 -20.45 4.75 -21.25 4.25 Q-22.05 4.15 -22.4 3.35 -22.8 2.35 -22.8 1.3 L-22.55 -4.8 -22.55 -7.75 -22.75 -12.35 -22.75 -12.75 -22.75 -12.95 M-6.05 -7.0 L-6.25 -7.1 -6.35 -7.15 -6.45 -7.2 -7.7 -8.0 -8.7 -8.75 -8.9 -8.8 -9.15 -9.0 -9.15 -9.05 -9.35 -9.2 -9.7 -9.35 -9.8 -9.4 -9.85 -9.45 -10.55 -10.0 -10.9 -10.15 -11.75 -10.65 -12.0 -10.75 -12.05 -10.8 -12.1 -10.85 -13.3 -11.35 -14.6 -11.95 -15.05 -12.2 -15.1 -12.25 -15.3 -12.35 -15.6 -12.65 -16.15 -12.9 -16.6 -13.15 -16.8 -13.2 -17.4 -13.5 -17.8 -13.8 Q-18.35 -14.2 -19.05 -14.15 -19.2 -14.5 -19.7 -14.45 L-20.0 -14.3 -20.1 -14.15 -20.2 -14.05 -20.25 -13.95 -20.3 -13.9 -20.4 -13.7 -20.65 -13.45 -20.8 -11.9 -20.5 -9.1 -20.55 -7.85 -20.5 -6.65 -20.55 -5.05 -20.5 0.05 -20.55 0.1 -20.55 0.4 -20.45 0.7 -20.45 0.8 -20.45 1.1 -20.45 1.35 -20.25 2.4 -20.05 2.4 -19.95 2.4 -19.85 2.65 -19.8 2.8 Q-17.95 2.8 -16.45 1.7 L-15.95 1.35 -15.9 1.35 -15.5 1.05 Q-14.7 0.5 -13.85 0.1 L-13.6 -0.1 -12.5 -0.65 Q-10.4 -1.75 -8.3 -2.95 L-8.25 -3.0 -8.2 -3.05 -8.15 -3.1 -7.95 -3.2 -6.35 -4.4 -5.95 -4.85 -5.6 -5.1 -5.5 -5.25 -5.4 -5.35 -5.4 -5.4 -5.3 -5.45 Q-5.1 -5.5 -5.05 -5.7 L-5.05 -5.85 -5.0 -5.9 -5.0 -6.05 -5.0 -6.2 -5.15 -6.5 Q-5.4 -7.1 -6.0 -7.05 L-6.05 -7.0 M-36.7 -9.7 L-36.65 -8.65 -36.6 -8.05 -36.5 -8.0 Q-36.55 -8.85 -36.1 -9.6 L-36.7 -9.7 M-16.85 -10.35 L-16.75 -10.25 -16.5 -9.95 -16.2 -9.75 -16.05 -9.7 -15.85 -9.6 -15.75 -9.5 -15.75 -9.45 -14.65 -8.95 -14.2 -8.7 Q-12.65 -7.7 -10.9 -6.95 L-10.6 -6.85 -10.0 -6.45 -9.9 -5.9 -9.95 -5.7 -10.45 -5.6 -11.05 -5.05 -12.35 -4.45 -12.85 -4.15 -13.0 -4.1 -13.15 -4.05 -13.2 -4.0 -13.25 -4.0 -13.3 -3.95 -13.75 -3.8 -14.1 -3.55 -14.95 -3.15 -15.05 -3.1 -15.7 -2.55 -17.15 -1.75 -17.2 -1.75 -17.25 -1.7 -17.4 -1.6 -17.55 -1.55 -17.75 -1.6 -17.9 -1.7 -18.05 -1.8 -18.0 -2.7 -18.05 -5.25 -17.9 -6.55 -17.9 -7.95 -17.9 -8.1 -17.9 -8.7 -17.9 -8.75 -17.95 -8.95 -17.95 -9.3 -17.9 -9.3 -17.8 -9.4 -17.9 -9.55 -17.95 -9.65 -17.95 -10.15 -17.85 -10.35 -17.7 -10.5 -17.6 -10.5 -17.5 -10.55 -17.3 -10.5 -17.2 -10.45 -17.15 -10.4 -16.85 -10.35 M-16.3 -7.65 L-16.2 -5.2 -16.2 -4.6 -16.0 -4.45 -15.95 -4.4 Q-14.75 -5.3 -13.3 -5.8 L-13.3 -5.85 -13.25 -6.15 -14.2 -6.8 -15.65 -7.55 -15.9 -7.7 -15.95 -7.7 -16.3 -7.65" fill="#4b4b4b" fill-opacity="0.47058824" fill-rule="evenodd" stroke="none"/>
    <path d="M-20.4 -13.7 L-20.3 -13.9 -20.25 -13.95 -20.2 -14.05 -20.1 -14.15 -20.0 -14.3 -19.7 -14.45 Q-19.2 -14.5 -19.05 -14.15 -18.35 -14.2 -17.8 -13.8 L-17.4 -13.5 -16.8 -13.2 -16.6 -13.15 -16.15 -12.9 -15.6 -12.65 -15.3 -12.35 -15.1 -12.25 -15.05 -12.2 -14.6 -11.95 -13.3 -11.35 -12.1 -10.85 -12.05 -10.8 -12.0 -10.75 -11.75 -10.65 -10.9 -10.15 -10.55 -10.0 -9.85 -9.45 -9.8 -9.4 -9.7 -9.35 -9.35 -9.2 -9.15 -9.05 -9.15 -9.0 -8.9 -8.8 -8.7 -8.75 -7.7 -8.0 -6.45 -7.2 -6.35 -7.15 -6.25 -7.1 -6.05 -7.0 -5.85 -6.9 -5.5 -6.7 -5.35 -6.5 Q-5.25 -6.35 -5.3 -6.2 L-5.4 -6.1 -5.5 -6.0 -5.5 -6.05 -5.55 -6.2 -5.6 -6.25 -5.65 -6.3 -5.9 -6.4 -6.2 -6.4 -6.3 -6.4 -6.3 -6.35 -6.35 -6.4 -6.7 -6.5 -6.75 -6.5 -6.9 -6.45 -7.9 -6.95 -8.0 -7.0 -9.7 -8.05 Q-10.0 -8.35 -10.4 -8.45 L-10.55 -8.55 -10.65 -8.65 -11.4 -9.05 -11.6 -9.2 -13.9 -10.4 -14.35 -10.75 -14.45 -10.75 -14.65 -10.8 -15.05 -11.1 -15.25 -11.25 -15.3 -11.3 -15.5 -11.35 -18.15 -12.75 -18.8 -13.2 -19.15 -13.35 -19.45 -13.25 -19.5 -13.0 -19.55 -12.55 -19.5 -12.3 -19.6 -9.25 -19.6 -2.25 -19.7 -0.5 Q-19.75 0.05 -19.35 0.3 L-19.4 0.6 -19.4 0.9 -19.4 1.4 Q-19.2 1.95 -19.55 2.35 L-19.65 2.35 -19.8 2.3 -19.85 2.35 -19.95 2.4 -20.05 2.4 -20.25 2.4 -20.45 1.35 -20.45 1.1 -20.45 0.8 -20.45 0.7 -20.55 0.4 -20.55 0.1 -20.5 0.05 -20.55 -5.05 -20.5 -6.65 -20.45 -8.45 -20.4 -10.65 -20.45 -11.6 -20.5 -12.55 -20.5 -13.1 -20.5 -13.15 -20.45 -13.2 -20.4 -13.25 -20.45 -13.4 -20.4 -13.7" fill="#333333" fill-rule="evenodd" stroke="none"/>
    <path d="M-20.5 -6.65 L-20.55 -7.85 -20.5 -9.1 -20.8 -11.9 -20.65 -13.45 -20.4 -13.7 -20.45 -13.4 -20.4 -13.25 -20.45 -13.2 -20.5 -13.15 -20.5 -13.1 -20.5 -12.55 -20.45 -11.6 -20.4 -10.65 -20.45 -8.45 -20.5 -6.65 M-18.85 1.5 L-18.75 1.5 -18.85 1.6 -18.85 1.5 M-16.5 0.1 L-16.6 0.15 -16.5 0.1" fill="#666666" fill-rule="evenodd" stroke="none"/>
    <path d="M-19.4 0.9 L-19.4 0.6 -19.35 0.3 Q-19.75 0.05 -19.7 -0.5 L-19.6 -2.25 -19.6 -9.25 -19.5 -12.3 -19.55 -12.55 -19.5 -13.0 -19.45 -13.25 -19.15 -13.35 -18.8 -13.2 -18.15 -12.75 -15.5 -11.35 -15.3 -11.3 -15.25 -11.25 -15.05 -11.1 -14.65 -10.8 -14.45 -10.75 -14.35 -10.75 -13.9 -10.4 -11.6 -9.2 -11.4 -9.05 -10.65 -8.65 -10.55 -8.55 -10.4 -8.45 Q-10.0 -8.35 -9.7 -8.05 L-8.0 -7.0 -7.9 -6.95 -6.9 -6.45 -6.75 -6.5 -6.7 -6.5 -6.35 -6.4 -6.3 -6.35 -6.4 -6.35 -6.4 -6.3 -6.6 -6.45 -6.7 -6.45 -6.85 -6.35 -7.0 -6.15 -7.1 -6.1 -7.55 -5.8 -8.65 -5.25 -9.3 -4.85 -9.45 -4.8 -9.6 -4.7 -12.1 -3.05 -13.3 -2.3 -13.35 -2.3 -13.85 -2.0 -13.95 -1.95 -14.3 -1.75 -16.25 -0.75 -16.85 -0.5 -16.95 -0.45 -17.15 -0.3 -17.2 -0.3 -17.8 0.05 -18.75 0.6 -18.95 0.65 -19.1 0.8 -19.35 0.85 -19.4 0.9 M-10.9 -6.95 L-11.4 -7.35 -11.85 -7.6 -11.95 -7.65 -12.05 -7.7 -12.5 -8.0 -12.65 -8.1 -14.15 -8.85 -14.45 -9.1 -14.5 -9.1 -14.65 -9.15 -14.9 -9.3 -15.05 -9.4 -15.1 -9.45 -15.2 -9.5 -16.85 -10.35 -16.95 -10.4 -17.35 -10.7 -17.6 -10.8 -17.8 -10.75 -17.85 -10.55 -17.85 -10.35 -17.95 -10.15 -17.95 -9.65 -17.9 -9.55 -17.9 -9.3 -17.95 -9.3 -17.95 -8.95 -17.9 -8.75 -17.9 -8.1 -17.9 -7.95 -17.9 -6.55 -18.05 -5.25 -18.0 -2.7 -18.05 -1.8 -17.9 -1.7 -17.75 -1.6 -17.75 -1.5 -17.55 -1.55 -17.4 -1.6 -17.25 -1.7 -17.15 -1.75 -15.7 -2.55 -14.4 -3.2 -14.2 -3.35 -14.15 -3.35 -13.8 -3.55 -13.75 -3.55 -13.0 -4.05 -12.85 -4.15 -12.35 -4.45 -11.05 -5.05 -10.45 -5.6 -9.95 -5.7 -9.9 -5.9 -9.7 -6.05 -9.65 -6.1 -9.55 -6.2 -9.45 -6.3 -9.55 -6.3 -10.0 -6.45 -10.6 -6.85 -10.9 -6.95 M-9.2 -6.2 L-9.2 -6.25 -9.4 -6.3 -9.25 -6.2 -9.2 -6.2" fill="#575757" fill-rule="evenodd" stroke="none"/>
    <path d="M-6.05 -7.0 L-6.0 -7.05 Q-5.4 -7.1 -5.15 -6.5 L-5.0 -6.2 -5.0 -6.05 -5.0 -5.9 -5.05 -5.85 -5.05 -5.7 Q-5.1 -5.5 -5.3 -5.45 L-5.4 -5.4 -5.4 -5.35 -5.5 -5.25 -5.6 -5.1 -5.95 -4.85 -6.35 -4.4 -7.95 -3.2 -8.15 -3.1 -8.2 -3.05 -8.25 -3.0 -8.3 -2.95 Q-10.4 -1.75 -12.5 -0.65 L-13.6 -0.1 -13.85 0.1 Q-14.7 0.5 -15.5 1.05 L-15.9 1.35 -15.95 1.35 -16.45 1.7 Q-17.95 2.8 -19.8 2.8 L-19.85 2.65 -19.95 2.4 -19.85 2.35 -19.8 2.3 -19.65 2.35 -19.55 2.35 Q-19.2 1.95 -19.4 1.4 L-19.4 0.9 -19.35 0.85 -19.1 0.8 -18.95 0.65 -18.75 0.6 -17.8 0.05 -17.2 -0.3 -17.15 -0.3 -16.95 -0.45 -16.85 -0.5 -16.25 -0.75 -14.3 -1.75 -13.95 -1.95 -13.85 -2.0 -13.35 -2.3 -13.3 -2.3 -12.1 -3.05 -9.6 -4.7 -9.45 -4.8 -9.3 -4.85 -8.65 -5.25 -7.55 -5.8 -7.1 -6.1 -7.0 -6.15 -6.85 -6.35 -6.7 -6.45 -6.6 -6.45 -6.4 -6.3 -6.4 -6.35 -6.3 -6.35 -6.3 -6.4 -6.2 -6.4 -5.9 -6.4 -5.65 -6.3 -5.6 -6.25 -5.55 -6.2 -5.5 -6.05 -5.5 -6.0 -5.4 -6.1 -5.3 -6.2 Q-5.25 -6.35 -5.35 -6.5 L-5.5 -6.7 -5.85 -6.9 -6.05 -7.0 M-16.5 0.1 L-16.6 0.15 -16.5 0.1 M-18.85 1.5 L-18.85 1.6 -18.75 1.5 -18.85 1.5" fill="#6b6b6b" fill-rule="evenodd" stroke="none"/>
    <path d="M-9.2 -6.2 L-9.25 -6.2 -9.4 -6.3 -9.2 -6.25 -9.2 -6.2" fill="#00ff00" fill-rule="evenodd" stroke="none"/>
  </g>
</svg>
