<?xml version="1.0" encoding="UTF-8" standalone="no"?>
<svg xmlns:ffdec="https://www.free-decompiler.com/flash" xmlns:xlink="http://www.w3.org/1999/xlink" ffdec:objectType="shape" height="13.7px" width="8.2px" xmlns="http://www.w3.org/2000/svg">
  <g transform="matrix(1.0, 0.0, 0.0, 1.0, 6.4, 20.55)">
    <path d="M1.8 -7.95 Q1.8 -7.25 1.15 -7.1 L0.0 -7.05 -0.25 -6.95 Q-0.4 -6.85 -0.5 -6.85 -0.9 -6.85 -1.3 -7.55 L-1.6 -8.25 -0.8 -9.3 0.05 -10.15 Q0.85 -10.15 1.4 -9.05 L1.8 -7.95 M-0.3 -18.6 Q-0.3 -16.6 -1.85 -16.45 L-3.15 -16.65 -4.25 -17.4 -5.1 -17.05 -5.7 -16.95 Q-6.05 -16.95 -6.25 -17.4 L-6.4 -17.85 -6.1 -18.7 -5.4 -19.6 -4.2 -20.55 -2.9 -20.05 -2.05 -19.6 -1.6 -19.75 -1.05 -19.85 Q-0.5 -19.85 -0.35 -19.25 L-0.3 -18.7 -0.3 -18.6" fill="#8adcff" fill-rule="evenodd" stroke="none"/>
  </g>
</svg>
