<?xml version="1.0" encoding="UTF-8" standalone="no"?>
<svg xmlns:ffdec="https://www.free-decompiler.com/flash" xmlns:xlink="http://www.w3.org/1999/xlink" ffdec:objectType="morphshape" height="10.85px" width="15.65px" xmlns="http://www.w3.org/2000/svg">
  <g transform="matrix(1.0, 0.0, 0.0, 1.0, 4.2, 5.4)">
    <path d="M-1.5 -3.55 L-1.45 -3.35 -1.15 -3.2 0.7 -2.65 Q-1.2 -1.95 -1.2 -1.65 -1.2 -1.5 -0.75 -1.4 L1.6 -0.55 1.0 0.0 0.85 0.2 Q0.85 0.5 2.55 0.7 L2.95 0.75 2.25 1.05 1.05 1.65 Q0.15 2.15 0.15 2.2 L0.55 2.55 1.3 2.9 1.6 3.0 3.7 3.7 4.4 3.9 4.9 4.05 Q5.2 4.15 5.5 4.25 6.7 4.55 7.9 4.85 L9.3 5.1 9.9 5.15 11.3 5.0 11.45 4.3 11.3 3.9 Q10.9 3.5 9.65 3.2 L6.45 2.35 4.5 1.7 5.2 1.15 5.6 0.6 4.65 -0.3 Q3.35 -1.35 1.5 -1.65 4.85 -2.3 5.45 -2.7 L5.6 -2.9 5.2 -3.3 4.5 -3.3 Q5.9 -3.75 7.3 -4.2 9.2 -4.7 9.2 -5.1 9.2 -5.5 9.0 -5.4 L8.0 -5.25 6.65 -5.1 4.75 -4.85 2.5 -4.55 0.45 -4.25 Q-1.5 -3.95 -1.5 -3.55" fill="#ffffff" fill-rule="evenodd" stroke="none">
      <animate attributeName="fill" dur="2s" repeatCount="indefinite" values="#ffffff;#ffffff"/>
      <animate attributeName="fill-opacity" dur="2s" repeatCount="indefinite" values="1.0;1.0"/>
      <animate attributeName="d" dur="2s" repeatCount="indefinite" values="M-1.5 -3.55 L-1.45 -3.35 -1.15 -3.2 0.7 -2.65 Q-1.2 -1.95 -1.2 -1.65 -1.2 -1.5 -0.75 -1.4 L1.6 -0.55 1.0 0.0 0.85 0.2 Q0.85 0.5 2.55 0.7 L2.95 0.75 2.25 1.05 1.05 1.65 Q0.15 2.15 0.15 2.2 L0.55 2.55 1.3 2.9 1.6 3.0 3.7 3.7 4.4 3.9 4.9 4.05 Q5.2 4.15 5.5 4.25 6.7 4.55 7.9 4.85 L9.3 5.1 9.9 5.15 11.3 5.0 11.45 4.3 11.3 3.9 Q10.9 3.5 9.65 3.2 L6.45 2.35 4.5 1.7 5.2 1.15 5.6 0.6 4.65 -0.3 Q3.35 -1.35 1.5 -1.65 4.85 -2.3 5.45 -2.7 L5.6 -2.9 5.2 -3.3 4.5 -3.3 Q5.9 -3.75 7.3 -4.2 9.2 -4.7 9.2 -5.1 9.2 -5.5 9.0 -5.4 L8.0 -5.25 6.65 -5.1 4.75 -4.85 2.5 -4.55 0.45 -4.25 Q-1.5 -3.95 -1.5 -3.55;M-4.2 2.45 L-4.2 2.45 -4.0 2.75 -3.0 3.85 Q-2.55 4.25 -2.1 4.65 -1.9 4.8 -1.75 4.9 L-0.25 5.4 0.15 5.45 0.35 5.45 Q1.0 5.3 1.6 5.15 L1.85 4.9 1.95 4.35 1.2 3.8 Q1.0 3.65 0.8 3.5 L0.6 3.3 0.85 2.8 1.05 2.45 2.6 2.5 3.15 2.55 3.3 2.6 Q3.5 2.75 3.2 3.1 3.2 3.5 4.5 3.65 L5.4 3.5 5.5 3.2 5.85 2.4 6.0 1.95 6.05 1.5 Q5.55 1.15 5.05 0.85 L3.3 -0.2 3.9 -1.1 4.2 -1.45 4.5 -1.8 5.1 -2.65 Q5.1 -3.9 3.7 -4.1 2.55 -4.0 1.4 -3.9 L1.4 -3.9 1.0 -3.8 0.4 -3.6 Q-0.65 -3.3 -1.3 -2.8 -1.75 -2.25 -2.15 -1.75 -2.25 -1.6 -2.3 -1.45 L-2.4 -0.7 -1.75 0.05 -0.5 0.75 -1.9 1.3 -3.2 1.75 Q-4.2 2.05 -4.2 2.45"/>
    </path>
    <path d="M-1.5 -3.55 Q-1.5 -3.95 0.45 -4.25 L2.5 -4.55 4.75 -4.85 6.65 -5.1 8.0 -5.25 9.0 -5.4 Q9.2 -5.5 9.2 -5.1 9.2 -4.7 7.3 -4.2 5.9 -3.75 4.5 -3.3 L5.2 -3.3 5.6 -2.9 5.45 -2.7 Q4.85 -2.3 1.5 -1.65 3.35 -1.35 4.65 -0.3 L5.6 0.6 5.2 1.15 4.5 1.7 6.45 2.35 9.65 3.2 Q10.9 3.5 11.3 3.9 L11.45 4.3 11.3 5.0 9.9 5.15 9.3 5.1 7.9 4.85 Q6.7 4.55 5.5 4.25 5.2 4.15 4.9 4.05 L4.4 3.9 3.7 3.7 1.6 3.0 1.3 2.9 0.55 2.55 0.15 2.2 Q0.15 2.15 1.05 1.65 L2.25 1.05 2.95 0.75 2.55 0.7 Q0.85 0.5 0.85 0.2 L1.0 0.0 1.6 -0.55 -0.75 -1.4 Q-1.2 -1.5 -1.2 -1.65 -1.2 -1.95 0.7 -2.65 L-1.15 -3.2 -1.45 -3.35 -1.5 -3.55 Z" fill="none" stroke="#000000" stroke-linecap="round" stroke-linejoin="round" stroke-opacity="0.0" stroke-width="0.0">
      <animate attributeName="stroke" dur="2s" repeatCount="indefinite" values="#000000;#000001"/>
      <animate attributeName="stroke-width" dur="2s" repeatCount="indefinite" values="0.0;0.0"/>
      <animate attributeName="fill-opacity" dur="2s" repeatCount="indefinite" values="0.0;0.0"/>
      <animate attributeName="d" dur="2s" repeatCount="indefinite" values="M-1.5 -3.55 Q-1.5 -3.95 0.45 -4.25 L2.5 -4.55 4.75 -4.85 6.65 -5.1 8.0 -5.25 9.0 -5.4 Q9.2 -5.5 9.2 -5.1 9.2 -4.7 7.3 -4.2 5.9 -3.75 4.5 -3.3 L5.2 -3.3 5.6 -2.9 5.45 -2.7 Q4.85 -2.3 1.5 -1.65 3.35 -1.35 4.65 -0.3 L5.6 0.6 5.2 1.15 4.5 1.7 6.45 2.35 9.65 3.2 Q10.9 3.5 11.3 3.9 L11.45 4.3 11.3 5.0 9.9 5.15 9.3 5.1 7.9 4.85 Q6.7 4.55 5.5 4.25 5.2 4.15 4.9 4.05 L4.4 3.9 3.7 3.7 1.6 3.0 1.3 2.9 0.55 2.55 0.15 2.2 Q0.15 2.15 1.05 1.65 L2.25 1.05 2.95 0.75 2.55 0.7 Q0.85 0.5 0.85 0.2 L1.0 0.0 1.6 -0.55 -0.75 -1.4 Q-1.2 -1.5 -1.2 -1.65 -1.2 -1.95 0.7 -2.65 L-1.15 -3.2 -1.45 -3.35 -1.5 -3.55 Z;M-4.2 2.45 Q-4.2 2.05 -3.2 1.75 L-1.9 1.3 -0.5 0.75 -1.75 0.05 -2.4 -0.7 -2.3 -1.45 Q-2.25 -1.6 -2.15 -1.75 -1.75 -2.25 -1.3 -2.8 -0.65 -3.3 0.4 -3.6 L1.0 -3.8 1.4 -3.9 1.4 -3.9 Q2.55 -4.0 3.7 -4.1 5.1 -3.9 5.1 -2.65 L4.5 -1.8 4.2 -1.45 3.9 -1.1 3.3 -0.2 5.05 0.85 Q5.55 1.15 6.05 1.5 L6.0 1.95 5.85 2.4 5.5 3.2 5.4 3.5 4.5 3.65 Q3.2 3.5 3.2 3.1 3.5 2.75 3.3 2.6 L3.15 2.55 2.6 2.5 1.05 2.45 0.85 2.8 0.6 3.3 0.8 3.5 Q1.0 3.65 1.2 3.8 L1.95 4.35 1.85 4.9 1.6 5.15 Q1.0 5.3 0.35 5.45 L0.15 5.45 -0.25 5.4 -1.75 4.9 Q-1.9 4.8 -2.1 4.65 -2.55 4.25 -3.0 3.85 L-4.0 2.75 -4.2 2.45 -4.2 2.45 Z"/>
    </path>
  </g>
</svg>
