<?xml version="1.0" encoding="UTF-8" standalone="no"?>
<svg xmlns:ffdec="https://www.free-decompiler.com/flash" xmlns:xlink="http://www.w3.org/1999/xlink" ffdec:objectType="morphshape" height="7.35px" width="24.4px" xmlns="http://www.w3.org/2000/svg">
  <g transform="matrix(1.0, 0.0, 0.0, 1.0, 11.75, 4.4)">
    <path d="M-11.75 -0.9 L-10.05 1.1 -10.05 1.1 -9.95 1.3 -9.9 1.35 -9.9 1.35 -9.85 1.4 -9.8 1.45 -9.75 1.45 -9.7 1.5 -9.6 1.6 -9.55 1.6 -9.5 1.65 -9.5 1.7 -9.45 1.75 -9.4 1.75 -9.35 1.8 -9.3 1.85 -9.25 1.9 -9.25 1.9 -9.2 1.9 -9.15 1.95 -9.05 2.0 -9.05 2.05 -9.0 2.05 -8.95 2.1 -8.95 2.1 -8.9 2.15 -8.9 2.2 -8.85 2.2 -8.8 2.25 -8.8 2.25 -8.75 2.3 -8.75 2.35 -8.7 2.35 -8.65 2.4 -8.6 2.45 -8.6 2.5 -8.55 2.5 -8.5 2.55 -8.45 2.6 -8.45 2.65 -8.4 2.65 -8.35 2.7 -8.35 2.7 -8.3 2.75 -8.3 2.8 -8.25 2.8 -8.25 2.85 -8.2 2.9 -8.15 2.95 -8.15 2.95 -7.95 2.95 -7.95 2.95 -7.85 2.95 -7.75 2.95 -7.75 2.95 -7.65 2.95 -7.55 2.95 -7.55 2.95 -7.55 2.95 -7.55 2.95 -7.45 2.95 -7.4 2.95 -7.2 2.6 -7.2 2.6 -7.2 2.5 -7.2 2.5 -7.2 2.5 -7.2 2.5 -7.2 2.4 -7.2 2.4 -7.2 2.4 -7.2 2.4 -7.3 2.5 -7.3 2.6 -7.3 2.6 -7.3 2.6 -7.3 2.6 -7.3 2.6 -7.3 2.65 -7.3 2.85 -7.25 2.95 -6.4 2.95 -6.3 2.75 -6.15 2.4 -6.1 2.35 -6.0 2.2 -6.0 2.35 -5.55 2.65 -5.0 2.35 -4.9 2.2 -4.8 1.95 -4.7 1.85 -4.65 2.35 -4.65 2.55 -4.5 2.95 -3.7 2.95 -3.5 2.65 -3.45 2.35 -3.45 2.3 -3.4 2.35 -3.5 2.95 -2.2 2.95 -1.95 2.35 -1.9 2.2 -1.85 2.15 -1.75 2.25 -1.75 2.35 -1.75 2.45 -1.8 2.45 -1.65 2.55 -1.65 2.8 -1.65 2.95 -1.65 2.95 -1.25 2.95 -0.25 2.95 -0.05 2.35 -0.05 2.25 0.1 2.2 0.15 2.35 0.25 2.95 2.75 2.95 2.75 2.65 3.15 2.75 3.15 2.75 3.4 2.65 3.4 2.65 3.5 2.6 3.6 2.5 3.6 2.5 3.65 2.4 3.65 2.35 3.8 2.65 3.8 2.65 3.8 2.65 3.8 2.7 3.8 2.7 3.8 2.9 3.8 2.95 4.0 2.95 4.0 2.95 4.0 2.95 4.1 2.95 4.2 2.95 4.2 2.95 4.2 2.95 4.3 2.95 4.4 2.95 4.4 2.95 4.5 2.95 4.6 2.95 4.6 2.95 4.7 2.95 4.8 2.95 4.9 2.95 5.0 2.95 5.0 2.85 5.0 2.75 5.0 2.75 5.2 2.7 5.3 2.7 5.35 2.7 5.45 2.7 5.65 2.7 5.75 2.7 5.85 2.8 5.85 2.85 5.85 2.95 5.95 2.95 6.05 2.95 6.15 2.95 6.25 2.95 6.35 2.95 6.45 2.95 6.65 2.95 6.75 2.95 6.85 2.95 7.3 2.95 7.4 2.95 7.5 2.85 7.55 2.85 7.6 2.8 7.7 2.7 7.75 2.7 7.8 2.65 7.8 2.6 7.85 2.55 7.85 2.5 7.9 2.45 7.95 2.4 8.0 2.4 8.15 2.25 8.2 2.2 8.2 2.15 8.25 2.1 8.3 2.1 8.35 2.05 8.4 2.0 8.45 1.95 8.45 1.9 8.5 1.85 8.55 1.8 8.6 1.8 8.65 1.75 8.7 1.7 8.75 1.65 8.8 1.6 8.85 1.55 8.9 1.5 8.95 1.5 9.0 1.45 9.05 1.4 9.05 1.35 9.15 1.35 9.15 1.3 9.2 1.3 9.2 1.25 9.25 1.2 9.35 1.15 9.45 1.1 9.55 1.05 9.55 1.05 9.65 1.05 9.75 1.0 9.85 1.0 9.95 1.0 10.1 1.0 10.2 1.0 10.3 1.0 10.35 0.9 10.35 0.8 10.35 0.8 10.45 0.6 10.45 0.5 10.55 0.35 11.1 -0.45 11.3 -0.7 11.4 -0.9 Q12.05 -1.85 12.65 -2.8 L12.65 -3.0 Q12.5 -3.85 11.15 -2.3 L11.05 -2.1 10.9 -2.0 10.6 -1.7 10.15 -1.3 9.75 -1.0 9.6 -0.9 9.35 -1.2 9.35 -1.2 9.2 -1.3 8.9 -1.55 9.0 -1.75 8.95 -2.0 8.8 -2.05 Q8.45 -2.0 8.1 -2.0 L7.95 -2.0 7.55 -1.95 7.3 -1.65 6.95 -1.5 6.6 -1.2 6.6 -1.1 6.1 -0.45 5.7 -1.1 5.75 -1.3 5.8 -1.9 5.5 -2.35 5.2 -2.4 4.85 -2.25 4.65 -1.7 4.65 -1.5 4.55 -1.35 4.1 -0.75 3.9 -0.65 3.9 -0.75 3.75 -0.95 3.6 -1.05 3.25 -1.15 3.15 -1.15 Q2.8 -1.1 2.8 -0.65 2.25 -0.8 2.25 -1.1 L2.35 -1.45 2.35 -1.6 Q2.15 -1.9 1.95 -2.2 L1.65 -2.35 1.4 -2.45 1.1 -2.4 1.1 -2.5 0.85 -2.75 0.65 -2.8 Q0.4 -2.8 0.2 -2.45 L0.1 -2.2 0.05 -2.1 -0.3 -1.95 -0.45 -1.55 -0.5 -1.55 -0.65 -2.3 -0.8 -2.75 -0.9 -2.95 -1.35 -3.7 -1.65 -4.05 -1.85 -4.3 Q-2.3 -4.65 -2.35 -3.9 L-2.35 -3.8 -2.35 -3.65 -2.2 -3.45 -2.2 -3.45 -2.25 -3.35 Q-2.5 -3.3 -2.75 -3.3 L-2.9 -2.95 -2.85 -2.6 -2.85 -2.5 -2.85 -2.4 -3.45 -1.75 -3.6 -1.3 -3.7 -1.0 -4.1 -1.25 -4.5 -1.25 -4.6 -1.25 -5.0 -1.5 -5.3 -1.65 -5.5 -1.65 -5.8 -1.35 -5.8 -1.25 -5.85 -1.0 -6.15 -1.75 -6.25 -1.85 -6.8 -2.3 -6.9 -2.3 -7.2 -1.95 -7.3 -1.75 -7.4 -1.5 -7.35 -1.2 -7.35 -1.15 -7.75 -1.05 -7.9 -0.8 -8.05 -1.1 -8.05 -1.1 -8.5 -1.35 -8.5 -1.35 Q-8.85 -1.35 -8.9 -1.15 L-8.9 -0.95 -8.9 -0.85 -9.3 -1.25 -9.8 -1.9 -9.9 -2.35 -9.95 -2.5 Q-10.25 -2.75 -10.5 -2.95 L-10.55 -2.95 -10.7 -2.95 -10.95 -2.7 -10.85 -2.5 -10.5 -1.6 -10.1 -0.6 -10.1 -0.6 -10.75 -0.9 -10.9 -0.95 -11.4 -1.15 -11.5 -1.15 -11.75 -0.9" fill="#ffffff" fill-rule="evenodd" stroke="none">
      <animate attributeName="fill" dur="2s" repeatCount="indefinite" values="#ffffff;#ffffff"/>
      <animate attributeName="fill-opacity" dur="2s" repeatCount="indefinite" values="1.0;1.0"/>
      <animate attributeName="d" dur="2s" repeatCount="indefinite" values="M-11.75 -0.9 L-10.05 1.1 -10.05 1.1 -9.95 1.3 -9.9 1.35 -9.9 1.35 -9.85 1.4 -9.8 1.45 -9.75 1.45 -9.7 1.5 -9.6 1.6 -9.55 1.6 -9.5 1.65 -9.5 1.7 -9.45 1.75 -9.4 1.75 -9.35 1.8 -9.3 1.85 -9.25 1.9 -9.25 1.9 -9.2 1.9 -9.15 1.95 -9.05 2.0 -9.05 2.05 -9.0 2.05 -8.95 2.1 -8.95 2.1 -8.9 2.15 -8.9 2.2 -8.85 2.2 -8.8 2.25 -8.8 2.25 -8.75 2.3 -8.75 2.35 -8.7 2.35 -8.65 2.4 -8.6 2.45 -8.6 2.5 -8.55 2.5 -8.5 2.55 -8.45 2.6 -8.45 2.65 -8.4 2.65 -8.35 2.7 -8.35 2.7 -8.3 2.75 -8.3 2.8 -8.25 2.8 -8.25 2.85 -8.2 2.9 -8.15 2.95 -8.15 2.95 -7.95 2.95 -7.95 2.95 -7.85 2.95 -7.75 2.95 -7.75 2.95 -7.65 2.95 -7.55 2.95 -7.55 2.95 -7.55 2.95 -7.55 2.95 -7.45 2.95 -7.4 2.95 -7.2 2.6 -7.2 2.6 -7.2 2.5 -7.2 2.5 -7.2 2.5 -7.2 2.5 -7.2 2.4 -7.2 2.4 -7.2 2.4 -7.2 2.4 -7.3 2.5 -7.3 2.6 -7.3 2.6 -7.3 2.6 -7.3 2.6 -7.3 2.6 -7.3 2.65 -7.3 2.85 -7.25 2.95 -6.4 2.95 -6.3 2.75 -6.15 2.4 -6.1 2.35 -6.0 2.2 -6.0 2.35 -5.55 2.65 -5.0 2.35 -4.9 2.2 -4.8 1.95 -4.7 1.85 -4.65 2.35 -4.65 2.55 -4.5 2.95 -3.7 2.95 -3.5 2.65 -3.45 2.35 -3.45 2.3 -3.4 2.35 -3.5 2.95 -2.2 2.95 -1.95 2.35 -1.9 2.2 -1.85 2.15 -1.75 2.25 -1.75 2.35 -1.75 2.45 -1.8 2.45 -1.65 2.55 -1.65 2.8 -1.65 2.95 -1.65 2.95 -1.25 2.95 -0.25 2.95 -0.05 2.35 -0.05 2.25 0.1 2.2 0.15 2.35 0.25 2.95 2.75 2.95 2.75 2.65 3.15 2.75 3.15 2.75 3.4 2.65 3.4 2.65 3.5 2.6 3.6 2.5 3.6 2.5 3.65 2.4 3.65 2.35 3.8 2.65 3.8 2.65 3.8 2.65 3.8 2.7 3.8 2.7 3.8 2.9 3.8 2.95 4.0 2.95 4.0 2.95 4.0 2.95 4.1 2.95 4.2 2.95 4.2 2.95 4.2 2.95 4.3 2.95 4.4 2.95 4.4 2.95 4.5 2.95 4.6 2.95 4.6 2.95 4.7 2.95 4.8 2.95 4.9 2.95 5.0 2.95 5.0 2.85 5.0 2.75 5.0 2.75 5.2 2.7 5.3 2.7 5.35 2.7 5.45 2.7 5.65 2.7 5.75 2.7 5.85 2.8 5.85 2.85 5.85 2.95 5.95 2.95 6.05 2.95 6.15 2.95 6.25 2.95 6.35 2.95 6.45 2.95 6.65 2.95 6.75 2.95 6.85 2.95 7.3 2.95 7.4 2.95 7.5 2.85 7.55 2.85 7.6 2.8 7.7 2.7 7.75 2.7 7.8 2.65 7.8 2.6 7.85 2.55 7.85 2.5 7.9 2.45 7.95 2.4 8.0 2.4 8.15 2.25 8.2 2.2 8.2 2.15 8.25 2.1 8.3 2.1 8.35 2.05 8.4 2.0 8.45 1.95 8.45 1.9 8.5 1.85 8.55 1.8 8.6 1.8 8.65 1.75 8.7 1.7 8.75 1.65 8.8 1.6 8.85 1.55 8.9 1.5 8.95 1.5 9.0 1.45 9.05 1.4 9.05 1.35 9.15 1.35 9.15 1.3 9.2 1.3 9.2 1.25 9.25 1.2 9.35 1.15 9.45 1.1 9.55 1.05 9.55 1.05 9.65 1.05 9.75 1.0 9.85 1.0 9.95 1.0 10.1 1.0 10.2 1.0 10.3 1.0 10.35 0.9 10.35 0.8 10.35 0.8 10.45 0.6 10.45 0.5 10.55 0.35 11.1 -0.45 11.3 -0.7 11.4 -0.9 Q12.05 -1.85 12.65 -2.8 L12.65 -3.0 Q12.5 -3.85 11.15 -2.3 L11.05 -2.1 10.9 -2.0 10.6 -1.7 10.15 -1.3 9.75 -1.0 9.6 -0.9 9.35 -1.2 9.35 -1.2 9.2 -1.3 8.9 -1.55 9.0 -1.75 8.95 -2.0 8.8 -2.05 Q8.45 -2.0 8.1 -2.0 L7.95 -2.0 7.55 -1.95 7.3 -1.65 6.95 -1.5 6.6 -1.2 6.6 -1.1 6.1 -0.45 5.7 -1.1 5.75 -1.3 5.8 -1.9 5.5 -2.35 5.2 -2.4 4.85 -2.25 4.65 -1.7 4.65 -1.5 4.55 -1.35 4.1 -0.75 3.9 -0.65 3.9 -0.75 3.75 -0.95 3.6 -1.05 3.25 -1.15 3.15 -1.15 Q2.8 -1.1 2.8 -0.65 2.25 -0.8 2.25 -1.1 L2.35 -1.45 2.35 -1.6 Q2.15 -1.9 1.95 -2.2 L1.65 -2.35 1.4 -2.45 1.1 -2.4 1.1 -2.5 0.85 -2.75 0.65 -2.8 Q0.4 -2.8 0.2 -2.45 L0.1 -2.2 0.05 -2.1 -0.3 -1.95 -0.45 -1.55 -0.5 -1.55 -0.65 -2.3 -0.8 -2.75 -0.9 -2.95 -1.35 -3.7 -1.65 -4.05 -1.85 -4.3 Q-2.3 -4.65 -2.35 -3.9 L-2.35 -3.8 -2.35 -3.65 -2.2 -3.45 -2.2 -3.45 -2.25 -3.35 Q-2.5 -3.3 -2.75 -3.3 L-2.9 -2.95 -2.85 -2.6 -2.85 -2.5 -2.85 -2.4 -3.45 -1.75 -3.6 -1.3 -3.7 -1.0 -4.1 -1.25 -4.5 -1.25 -4.6 -1.25 -5.0 -1.5 -5.3 -1.65 -5.5 -1.65 -5.8 -1.35 -5.8 -1.25 -5.85 -1.0 -6.15 -1.75 -6.25 -1.85 -6.8 -2.3 -6.9 -2.3 -7.2 -1.95 -7.3 -1.75 -7.4 -1.5 -7.35 -1.2 -7.35 -1.15 -7.75 -1.05 -7.9 -0.8 -8.05 -1.1 -8.05 -1.1 -8.5 -1.35 -8.5 -1.35 Q-8.85 -1.35 -8.9 -1.15 L-8.9 -0.95 -8.9 -0.85 -9.3 -1.25 -9.8 -1.9 -9.9 -2.35 -9.95 -2.5 Q-10.25 -2.75 -10.5 -2.95 L-10.55 -2.95 -10.7 -2.95 -10.95 -2.7 -10.85 -2.5 -10.5 -1.6 -10.1 -0.6 -10.1 -0.6 -10.75 -0.9 -10.9 -0.95 -11.4 -1.15 -11.5 -1.15 -11.75 -0.9;M-11.2 -0.4 L-11.2 -0.4 -10.65 0.2 -10.45 0.4 -10.45 0.45 -10.45 0.45 -10.45 0.5 -10.45 0.6 -10.45 0.6 -10.45 0.7 -10.4 0.8 -10.4 0.8 -10.4 0.85 -10.4 0.85 -10.4 0.9 -10.4 0.9 -10.4 0.95 -10.4 0.95 -10.4 0.95 -10.3 1.0 -10.3 1.0 -10.3 1.0 -10.2 1.1 -10.2 1.1 -10.2 1.1 -10.15 1.1 -10.1 1.15 -10.05 1.25 -10.05 1.25 -10.05 1.25 -10.0 1.25 -9.85 1.35 -9.85 1.35 -9.85 1.35 -9.85 1.4 -9.8 1.45 -9.7 1.5 -9.7 1.5 -9.7 1.5 -9.6 1.6 -9.6 1.6 -9.5 1.65 -9.5 1.65 -9.5 1.65 -9.5 1.7 -9.45 1.75 -9.35 1.8 -9.35 1.8 -9.3 1.85 -9.3 1.85 -9.3 1.85 -9.25 1.9 -9.25 1.9 -9.2 1.9 -9.15 1.95 -9.05 2.0 -9.05 2.05 -9.0 2.05 -8.95 2.1 -8.9 2.15 -8.9 2.2 -8.85 2.2 -8.8 2.25 -8.75 2.3 -8.75 2.35 -8.7 2.35 -8.65 2.4 -8.6 2.45 -8.6 2.5 -8.55 2.5 -8.5 2.55 -8.45 2.6 -8.45 2.65 -8.4 2.65 -8.35 2.7 -8.3 2.75 -8.3 2.8 -8.25 2.8 -8.25 2.85 -8.2 2.9 -8.15 2.95 -7.75 2.95 -7.65 2.95 -6.95 2.95 -6.65 2.95 -6.35 2.95 -6.15 2.95 -5.95 2.95 -5.75 2.95 -5.05 2.95 -4.65 2.95 -4.35 2.95 -4.15 2.95 -3.95 2.95 -3.45 2.95 -3.25 2.95 -2.95 2.95 -2.25 2.95 -1.85 2.95 -1.55 2.95 -1.55 2.95 -1.55 2.95 -0.85 2.95 0.35 2.95 1.05 2.95 1.35 2.95 1.45 2.95 1.55 2.95 1.65 2.95 1.75 2.95 1.75 2.95 1.85 2.85 1.9 2.7 2.0 2.6 2.0 2.6 2.0 2.95 2.8 2.95 3.5 2.95 3.6 2.95 3.8 2.95 4.0 2.95 4.6 2.95 6.8 2.95 7.1 2.95 7.4 2.95 7.4 2.95 7.5 2.85 7.55 2.85 7.6 2.8 7.7 2.7 7.75 2.7 7.8 2.65 7.8 2.6 7.85 2.55 7.85 2.5 7.9 2.45 7.95 2.4 8.0 2.4 8.15 2.25 8.2 2.2 8.2 2.15 8.25 2.1 8.3 2.1 8.35 2.05 8.4 2.0 8.45 1.95 8.45 1.9 8.5 1.85 8.55 1.8 8.6 1.8 8.65 1.75 8.7 1.7 8.75 1.65 8.8 1.6 8.85 1.55 8.9 1.5 8.95 1.5 9.0 1.45 9.05 1.4 9.05 1.35 9.15 1.3 9.2 1.3 9.2 1.25 9.25 1.2 9.35 1.15 9.45 1.1 9.55 1.05 9.65 1.05 9.75 1.05 9.75 1.0 9.85 1.0 9.95 1.0 10.1 1.0 10.25 1.0 10.35 1.0 10.5 1.05 10.6 1.1 10.7 1.1 10.9 0.9 11.2 0.6 11.3 0.5 11.3 0.5 11.3 0.4 11.4 0.3 11.4 0.3 11.4 0.2 11.4 0.2 11.4 0.1 11.4 0.0 11.4 -0.1 11.4 -0.2 11.4 -0.2 11.4 -0.2 11.4 -0.25 11.35 -0.35 11.3 -0.45 11.25 -0.45 11.15 -0.5 11.05 -0.5 10.9 -0.45 10.9 -0.45 10.9 -0.45 10.9 -0.4 10.9 -0.4 10.8 -0.4 10.7 -0.35 10.7 -0.35 10.65 -0.35 10.55 -0.35 10.55 -0.35 10.55 -0.35 10.3 -0.2 10.2 -0.25 10.15 -0.25 10.05 -0.25 10.1 -0.35 10.05 -0.45 10.05 -0.55 9.95 -0.7 9.75 -0.8 9.65 -0.8 9.5 -0.8 9.5 -0.75 9.4 -0.75 9.25 -0.7 9.15 -0.6 9.0 -0.35 8.9 -0.3 8.9 -0.2 8.9 -0.25 8.9 -0.4 8.9 -0.55 8.9 -0.6 8.8 -0.8 9.0 -0.85 9.1 -1.0 8.8 -1.7 8.9 -2.0 8.9 -2.2 Q8.9 -3.65 8.0 -2.45 L7.9 -2.25 Q7.45 -1.45 7.05 -0.65 L6.95 -0.7 6.75 -0.75 6.3 -0.65 6.0 -0.6 6.15 -1.1 6.15 -1.2 5.95 -1.3 5.85 -1.3 5.75 -1.3 5.85 -1.55 5.9 -1.75 5.95 -2.15 5.95 -2.25 Q5.95 -2.65 5.65 -2.45 L5.45 -2.35 5.25 -2.15 4.9 -1.8 4.8 -1.85 4.25 -1.95 4.15 -1.95 3.55 -1.6 2.95 -1.2 2.75 -1.1 2.6 -1.55 2.1 -1.75 1.9 -1.65 1.65 -1.4 1.45 -0.95 1.45 -0.95 1.35 -1.25 0.95 -1.4 0.8 -1.35 0.8 -1.35 0.8 -1.45 0.8 -1.75 0.7 -2.0 0.6 -2.1 Q0.5 -2.3 0.4 -2.5 0.45 -2.8 0.45 -3.1 L0.45 -3.55 0.45 -3.7 Q0.35 -4.05 0.05 -3.95 L-0.2 -3.8 -0.35 -3.7 -0.4 -3.5 -0.4 -3.5 -0.45 -3.1 -0.55 -2.9 Q-0.65 -2.8 -0.7 -2.75 L-0.9 -2.5 -0.95 -2.4 -1.05 -1.75 -1.05 -1.55 -1.05 -1.55 -1.15 -0.85 -1.5 -0.85 -1.55 -1.1 -1.95 -1.3 -2.5 -1.2 -2.7 -1.05 Q-2.65 -0.6 -2.65 -0.2 L-2.8 -0.15 -2.8 -0.15 -3.05 -0.3 -3.1 -0.35 -3.15 -0.45 Q-3.35 -0.85 -3.75 -0.85 L-4.0 -0.8 -4.2 -0.65 -4.2 -0.55 -4.35 -0.55 -4.5 -1.2 -4.6 -1.6 -4.6 -1.6 -4.8 -2.05 -5.3 -2.5 -5.4 -2.6 -5.75 -2.7 -6.0 -2.4 -6.0 -2.2 -5.95 -1.7 -5.95 -1.6 -5.95 -1.45 -6.4 -1.15 -6.55 -1.15 -6.85 -0.65 -6.9 -0.55 -7.2 -0.85 -7.45 -0.9 -7.7 -0.85 -7.8 -0.65 -7.8 -0.6 -7.65 -0.2 -7.9 -0.4 -8.05 -0.55 -8.05 -0.65 -8.15 -1.2 -8.2 -1.3 Q-8.25 -1.5 -8.3 -1.65 L-8.45 -1.95 -8.55 -2.05 -9.0 -2.45 -9.4 -2.75 -9.75 -3.1 -9.85 -3.2 Q-10.25 -3.45 -10.25 -2.9 L-10.25 -2.8 -10.2 -2.7 -10.45 -2.6 -10.5 -2.45 -10.2 -1.5 -9.8 -0.6 -9.8 -0.45 -10.35 -0.45 -10.35 -0.5 -10.8 -0.7 -10.95 -0.65 -11.2 -0.4"/>
    </path>
    <path d="M-11.75 -0.9 L-11.5 -1.15 -11.4 -1.15 -10.9 -0.95 -10.75 -0.9 -10.1 -0.6 -10.1 -0.6 -10.5 -1.6 -10.85 -2.5 -10.95 -2.7 -10.7 -2.95 -10.55 -2.95 -10.5 -2.95 Q-10.25 -2.75 -9.95 -2.5 L-9.9 -2.35 -9.8 -1.9 -9.3 -1.25 -8.9 -0.85 -8.9 -0.95 -8.9 -1.15 Q-8.85 -1.35 -8.5 -1.35 L-8.5 -1.35 -8.05 -1.1 -8.05 -1.1 -7.9 -0.8 -7.75 -1.05 -7.35 -1.15 -7.35 -1.2 -7.4 -1.5 -7.3 -1.75 -7.2 -1.95 -6.9 -2.3 -6.8 -2.3 -6.25 -1.85 -6.15 -1.75 -5.85 -1.0 -5.8 -1.25 -5.8 -1.35 -5.5 -1.65 -5.3 -1.65 -5.0 -1.5 -4.6 -1.25 -4.5 -1.25 -4.1 -1.25 -3.7 -1.0 -3.6 -1.3 -3.45 -1.75 -2.85 -2.4 -2.85 -2.5 -2.85 -2.6 -2.9 -2.95 -2.75 -3.3 Q-2.5 -3.3 -2.25 -3.35 L-2.2 -3.45 -2.2 -3.45 -2.35 -3.65 -2.35 -3.8 -2.35 -3.9 Q-2.3 -4.65 -1.85 -4.3 L-1.65 -4.05 -1.35 -3.7 -0.9 -2.95 -0.8 -2.75 -0.65 -2.3 -0.5 -1.55 -0.45 -1.55 -0.3 -1.95 0.05 -2.1 0.1 -2.2 0.2 -2.45 Q0.4 -2.8 0.65 -2.8 L0.85 -2.75 1.1 -2.5 1.1 -2.4 1.4 -2.45 1.65 -2.35 1.95 -2.2 Q2.15 -1.9 2.35 -1.6 L2.35 -1.45 2.25 -1.1 Q2.25 -0.8 2.8 -0.65 2.8 -1.1 3.15 -1.15 L3.25 -1.15 3.6 -1.05 3.75 -0.95 3.9 -0.75 3.9 -0.65 4.1 -0.75 4.55 -1.35 4.65 -1.5 4.65 -1.7 4.85 -2.25 5.2 -2.4 5.5 -2.35 5.8 -1.9 5.75 -1.3 5.7 -1.1 6.1 -0.45 6.6 -1.1 6.6 -1.2 6.95 -1.5 7.3 -1.65 7.55 -1.95 7.95 -2.0 8.1 -2.0 Q8.45 -2.0 8.8 -2.05 L8.95 -2.0 9.0 -1.75 8.9 -1.55 9.2 -1.3 9.35 -1.2 9.35 -1.2 9.6 -0.9 9.75 -1.0 10.15 -1.3 10.6 -1.7 10.9 -2.0 11.05 -2.1 11.15 -2.3 Q12.5 -3.85 12.65 -3.0 L12.65 -2.8 Q12.05 -1.85 11.4 -0.9 L11.3 -0.7 11.1 -0.45 10.55 0.35 10.45 0.5 10.45 0.6 10.35 0.8 10.35 0.8 10.35 0.9 10.3 1.0 10.2 1.0 10.1 1.0 9.95 1.0 9.85 1.0 9.75 1.0 9.65 1.05 9.55 1.05 9.55 1.05 9.45 1.1 9.35 1.15 9.25 1.2 9.2 1.25 9.2 1.3 9.15 1.3 9.15 1.35 9.05 1.35 9.05 1.4 9.0 1.45 8.95 1.5 8.9 1.5 8.85 1.55 8.8 1.6 8.75 1.65 8.7 1.7 8.65 1.75 8.6 1.8 8.55 1.8 8.5 1.85 8.45 1.9 8.45 1.95 8.4 2.0 8.35 2.05 8.3 2.1 8.25 2.1 8.2 2.15 8.2 2.2 8.15 2.25 8.0 2.4 7.95 2.4 7.9 2.45 7.85 2.5 7.85 2.55 7.8 2.6 7.8 2.65 7.75 2.7 7.7 2.7 7.6 2.8 7.55 2.85 7.5 2.85 7.4 2.95 7.3 2.95 6.85 2.95 6.75 2.95 6.65 2.95 6.45 2.95 6.35 2.95 6.25 2.95 6.15 2.95 6.05 2.95 5.95 2.95 5.85 2.95 5.85 2.85 5.85 2.8 5.75 2.7 5.65 2.7 5.45 2.7 5.35 2.7 5.3 2.7 5.2 2.7 5.0 2.75 5.0 2.75 5.0 2.85 5.0 2.95 4.9 2.95 4.8 2.95 4.7 2.95 4.6 2.95 4.6 2.95 4.5 2.95 4.4 2.95 4.4 2.95 4.3 2.95 4.2 2.95 4.2 2.95 4.2 2.95 4.1 2.95 4.0 2.95 4.0 2.95 4.0 2.95 3.8 2.95 3.8 2.9 3.8 2.7 3.8 2.7 3.8 2.65 3.8 2.65 3.8 2.65 3.65 2.35 3.65 2.4 3.6 2.5 3.6 2.5 3.5 2.6 3.4 2.65 3.4 2.65 3.15 2.75 3.15 2.75 2.75 2.65 2.75 2.95 0.25 2.95 0.15 2.35 0.1 2.2 -0.05 2.25 -0.05 2.35 -0.25 2.95 -1.25 2.95 -1.65 2.95 -1.65 2.95 -1.65 2.8 -1.65 2.55 -1.8 2.45 -1.75 2.45 -1.75 2.35 -1.75 2.25 -1.85 2.15 -1.9 2.2 -1.95 2.35 -2.2 2.95 -3.5 2.95 -3.4 2.35 -3.45 2.3 -3.45 2.35 -3.5 2.65 -3.7 2.95 -4.5 2.95 -4.65 2.55 -4.65 2.35 -4.7 1.85 -4.8 1.95 -4.9 2.2 -5.0 2.35 -5.55 2.65 -6.0 2.35 -6.0 2.2 -6.1 2.35 -6.15 2.4 -6.3 2.75 -6.4 2.95 -7.25 2.95 -7.3 2.85 -7.3 2.65 -7.3 2.6 -7.3 2.6 -7.3 2.6 -7.3 2.6 -7.3 2.6 -7.3 2.5 -7.2 2.4 -7.2 2.4 -7.2 2.4 -7.2 2.4 -7.2 2.5 -7.2 2.5 -7.2 2.5 -7.2 2.5 -7.2 2.6 -7.2 2.6 -7.4 2.95 -7.45 2.95 -7.55 2.95 -7.55 2.95 -7.55 2.95 -7.55 2.95 -7.65 2.95 -7.75 2.95 -7.75 2.95 -7.85 2.95 -7.95 2.95 -7.95 2.95 -8.15 2.95 -8.15 2.95 -8.2 2.9 -8.25 2.85 -8.25 2.8 -8.3 2.8 -8.3 2.75 -8.35 2.7 -8.35 2.7 -8.4 2.65 -8.45 2.65 -8.45 2.6 -8.5 2.55 -8.55 2.5 -8.6 2.5 -8.6 2.45 -8.65 2.4 -8.7 2.35 -8.75 2.35 -8.75 2.3 -8.8 2.25 -8.8 2.25 -8.85 2.2 -8.9 2.2 -8.9 2.15 -8.95 2.1 -8.95 2.1 -9.0 2.05 -9.05 2.05 -9.05 2.0 -9.15 1.95 -9.2 1.9 -9.25 1.9 -9.25 1.9 -9.3 1.85 -9.35 1.8 -9.4 1.75 -9.45 1.75 -9.5 1.7 -9.5 1.65 -9.55 1.6 -9.6 1.6 -9.7 1.5 -9.75 1.45 -9.8 1.45 -9.85 1.4 -9.9 1.35 -9.9 1.35 -9.95 1.3 -10.05 1.1 -10.05 1.1 -11.75 -0.9 Z" fill="none" stroke="#000000" stroke-linecap="round" stroke-linejoin="round" stroke-opacity="0.0" stroke-width="0.0">
      <animate attributeName="stroke" dur="2s" repeatCount="indefinite" values="#000000;#000001"/>
      <animate attributeName="stroke-width" dur="2s" repeatCount="indefinite" values="0.0;0.0"/>
      <animate attributeName="fill-opacity" dur="2s" repeatCount="indefinite" values="0.0;0.0"/>
      <animate attributeName="d" dur="2s" repeatCount="indefinite" values="M-11.75 -0.9 L-11.5 -1.15 -11.4 -1.15 -10.9 -0.95 -10.75 -0.9 -10.1 -0.6 -10.1 -0.6 -10.5 -1.6 -10.85 -2.5 -10.95 -2.7 -10.7 -2.95 -10.55 -2.95 -10.5 -2.95 Q-10.25 -2.75 -9.95 -2.5 L-9.9 -2.35 -9.8 -1.9 -9.3 -1.25 -8.9 -0.85 -8.9 -0.95 -8.9 -1.15 Q-8.85 -1.35 -8.5 -1.35 L-8.5 -1.35 -8.05 -1.1 -8.05 -1.1 -7.9 -0.8 -7.75 -1.05 -7.35 -1.15 -7.35 -1.2 -7.4 -1.5 -7.3 -1.75 -7.2 -1.95 -6.9 -2.3 -6.8 -2.3 -6.25 -1.85 -6.15 -1.75 -5.85 -1.0 -5.8 -1.25 -5.8 -1.35 -5.5 -1.65 -5.3 -1.65 -5.0 -1.5 -4.6 -1.25 -4.5 -1.25 -4.1 -1.25 -3.7 -1.0 -3.6 -1.3 -3.45 -1.75 -2.85 -2.4 -2.85 -2.5 -2.85 -2.6 -2.9 -2.95 -2.75 -3.3 Q-2.5 -3.3 -2.25 -3.35 L-2.2 -3.45 -2.2 -3.45 -2.35 -3.65 -2.35 -3.8 -2.35 -3.9 Q-2.3 -4.65 -1.85 -4.3 L-1.65 -4.05 -1.35 -3.7 -0.9 -2.95 -0.8 -2.75 -0.65 -2.3 -0.5 -1.55 -0.45 -1.55 -0.3 -1.95 0.05 -2.1 0.1 -2.2 0.2 -2.45 Q0.4 -2.8 0.65 -2.8 L0.85 -2.75 1.1 -2.5 1.1 -2.4 1.4 -2.45 1.65 -2.35 1.95 -2.2 Q2.15 -1.9 2.35 -1.6 L2.35 -1.45 2.25 -1.1 Q2.25 -0.8 2.8 -0.65 2.8 -1.1 3.15 -1.15 L3.25 -1.15 3.6 -1.05 3.75 -0.95 3.9 -0.75 3.9 -0.65 4.1 -0.75 4.55 -1.35 4.65 -1.5 4.65 -1.7 4.85 -2.25 5.2 -2.4 5.5 -2.35 5.8 -1.9 5.75 -1.3 5.7 -1.1 6.1 -0.45 6.6 -1.1 6.6 -1.2 6.95 -1.5 7.3 -1.65 7.55 -1.95 7.95 -2.0 8.1 -2.0 Q8.45 -2.0 8.8 -2.05 L8.95 -2.0 9.0 -1.75 8.9 -1.55 9.2 -1.3 9.35 -1.2 9.35 -1.2 9.6 -0.9 9.75 -1.0 10.15 -1.3 10.6 -1.7 10.9 -2.0 11.05 -2.1 11.15 -2.3 Q12.5 -3.85 12.65 -3.0 L12.65 -2.8 Q12.05 -1.85 11.4 -0.9 L11.3 -0.7 11.1 -0.45 10.55 0.35 10.45 0.5 10.45 0.6 10.35 0.8 10.35 0.8 10.35 0.9 10.3 1.0 10.2 1.0 10.1 1.0 9.95 1.0 9.85 1.0 9.75 1.0 9.65 1.05 9.55 1.05 9.55 1.05 9.45 1.1 9.35 1.15 9.25 1.2 9.2 1.25 9.2 1.3 9.15 1.3 9.15 1.35 9.05 1.35 9.05 1.4 9.0 1.45 8.95 1.5 8.9 1.5 8.85 1.55 8.8 1.6 8.75 1.65 8.7 1.7 8.65 1.75 8.6 1.8 8.55 1.8 8.5 1.85 8.45 1.9 8.45 1.95 8.4 2.0 8.35 2.05 8.3 2.1 8.25 2.1 8.2 2.15 8.2 2.2 8.15 2.25 8.0 2.4 7.95 2.4 7.9 2.45 7.85 2.5 7.85 2.55 7.8 2.6 7.8 2.65 7.75 2.7 7.7 2.7 7.6 2.8 7.55 2.85 7.5 2.85 7.4 2.95 7.3 2.95 6.85 2.95 6.75 2.95 6.65 2.95 6.45 2.95 6.35 2.95 6.25 2.95 6.15 2.95 6.05 2.95 5.95 2.95 5.85 2.95 5.85 2.85 5.85 2.8 5.75 2.7 5.65 2.7 5.45 2.7 5.35 2.7 5.3 2.7 5.2 2.7 5.0 2.75 5.0 2.75 5.0 2.85 5.0 2.95 4.9 2.95 4.8 2.95 4.7 2.95 4.6 2.95 4.6 2.95 4.5 2.95 4.4 2.95 4.4 2.95 4.3 2.95 4.2 2.95 4.2 2.95 4.2 2.95 4.1 2.95 4.0 2.95 4.0 2.95 4.0 2.95 3.8 2.95 3.8 2.9 3.8 2.7 3.8 2.7 3.8 2.65 3.8 2.65 3.8 2.65 3.65 2.35 3.65 2.4 3.6 2.5 3.6 2.5 3.5 2.6 3.4 2.65 3.4 2.65 3.15 2.75 3.15 2.75 2.75 2.65 2.75 2.95 0.25 2.95 0.15 2.35 0.1 2.2 -0.05 2.25 -0.05 2.35 -0.25 2.95 -1.25 2.95 -1.65 2.95 -1.65 2.95 -1.65 2.8 -1.65 2.55 -1.8 2.45 -1.75 2.45 -1.75 2.35 -1.75 2.25 -1.85 2.15 -1.9 2.2 -1.95 2.35 -2.2 2.95 -3.5 2.95 -3.4 2.35 -3.45 2.3 -3.45 2.35 -3.5 2.65 -3.7 2.95 -4.5 2.95 -4.65 2.55 -4.65 2.35 -4.7 1.85 -4.8 1.95 -4.9 2.2 -5.0 2.35 -5.55 2.65 -6.0 2.35 -6.0 2.2 -6.1 2.35 -6.15 2.4 -6.3 2.75 -6.4 2.95 -7.25 2.95 -7.3 2.85 -7.3 2.65 -7.3 2.6 -7.3 2.6 -7.3 2.6 -7.3 2.6 -7.3 2.6 -7.3 2.5 -7.2 2.4 -7.2 2.4 -7.2 2.4 -7.2 2.4 -7.2 2.5 -7.2 2.5 -7.2 2.5 -7.2 2.5 -7.2 2.6 -7.2 2.6 -7.4 2.95 -7.45 2.95 -7.55 2.95 -7.55 2.95 -7.55 2.95 -7.55 2.95 -7.65 2.95 -7.75 2.95 -7.75 2.95 -7.85 2.95 -7.95 2.95 -7.95 2.95 -8.15 2.95 -8.15 2.95 -8.2 2.9 -8.25 2.85 -8.25 2.8 -8.3 2.8 -8.3 2.75 -8.35 2.7 -8.35 2.7 -8.4 2.65 -8.45 2.65 -8.45 2.6 -8.5 2.55 -8.55 2.5 -8.6 2.5 -8.6 2.45 -8.65 2.4 -8.7 2.35 -8.75 2.35 -8.75 2.3 -8.8 2.25 -8.8 2.25 -8.85 2.2 -8.9 2.2 -8.9 2.15 -8.95 2.1 -8.95 2.1 -9.0 2.05 -9.05 2.05 -9.05 2.0 -9.15 1.95 -9.2 1.9 -9.25 1.9 -9.25 1.9 -9.3 1.85 -9.35 1.8 -9.4 1.75 -9.45 1.75 -9.5 1.7 -9.5 1.65 -9.55 1.6 -9.6 1.6 -9.7 1.5 -9.75 1.45 -9.8 1.45 -9.85 1.4 -9.9 1.35 -9.9 1.35 -9.95 1.3 -10.05 1.1 -10.05 1.1 -11.75 -0.9 Z;M-11.2 -0.4 L-10.95 -0.65 -10.8 -0.7 -10.35 -0.5 -10.35 -0.45 -9.8 -0.45 -9.8 -0.6 -10.2 -1.5 -10.5 -2.45 -10.45 -2.6 -10.2 -2.7 -10.25 -2.8 -10.25 -2.9 Q-10.25 -3.45 -9.85 -3.2 L-9.75 -3.1 -9.4 -2.75 -9.0 -2.45 -8.55 -2.05 -8.45 -1.95 -8.3 -1.65 Q-8.25 -1.5 -8.2 -1.3 L-8.15 -1.2 -8.05 -0.65 -8.05 -0.55 -7.9 -0.4 -7.65 -0.2 -7.8 -0.6 -7.8 -0.65 -7.7 -0.85 -7.45 -0.9 -7.2 -0.85 -6.9 -0.55 -6.85 -0.65 -6.55 -1.15 -6.4 -1.15 -5.95 -1.45 -5.95 -1.6 -5.95 -1.7 -6.0 -2.2 -6.0 -2.4 -5.75 -2.7 -5.4 -2.6 -5.3 -2.5 -4.8 -2.05 -4.6 -1.6 -4.6 -1.6 -4.5 -1.2 -4.35 -0.55 -4.2 -0.55 -4.2 -0.65 -4.0 -0.8 -3.75 -0.85 Q-3.35 -0.85 -3.15 -0.45 L-3.1 -0.35 -3.05 -0.3 -2.8 -0.15 -2.8 -0.15 -2.65 -0.2 Q-2.65 -0.6 -2.7 -1.05 L-2.5 -1.2 -1.95 -1.3 -1.55 -1.1 -1.5 -0.85 -1.15 -0.85 -1.05 -1.55 -1.05 -1.55 -1.05 -1.75 -0.95 -2.4 -0.9 -2.5 -0.7 -2.75 Q-0.65 -2.8 -0.55 -2.9 L-0.45 -3.1 -0.4 -3.5 -0.4 -3.5 -0.35 -3.7 -0.2 -3.8 0.05 -3.95 Q0.35 -4.05 0.45 -3.7 L0.45 -3.55 0.45 -3.1 Q0.45 -2.8 0.4 -2.5 0.5 -2.3 0.6 -2.1 L0.7 -2.0 0.8 -1.75 0.8 -1.45 0.8 -1.35 0.8 -1.35 0.95 -1.4 1.35 -1.25 1.45 -0.95 1.45 -0.95 1.65 -1.4 1.9 -1.65 2.1 -1.75 2.6 -1.55 2.75 -1.1 2.95 -1.2 3.55 -1.6 4.15 -1.95 4.25 -1.95 4.8 -1.85 4.9 -1.8 5.25 -2.15 5.45 -2.35 5.65 -2.45 Q5.95 -2.65 5.95 -2.25 L5.95 -2.15 5.9 -1.75 5.85 -1.55 5.75 -1.3 5.85 -1.3 5.95 -1.3 6.15 -1.2 6.15 -1.1 6.0 -0.6 6.3 -0.65 6.75 -0.75 6.95 -0.7 7.05 -0.65 Q7.45 -1.45 7.9 -2.25 L8.0 -2.45 Q8.9 -3.65 8.9 -2.2 L8.9 -2.0 8.8 -1.7 9.1 -1.0 9.0 -0.85 8.8 -0.8 8.9 -0.6 8.9 -0.55 8.9 -0.4 8.9 -0.25 8.9 -0.2 8.9 -0.3 9.0 -0.35 9.15 -0.6 9.25 -0.7 9.4 -0.75 9.5 -0.75 9.5 -0.8 9.65 -0.8 9.75 -0.8 9.95 -0.7 10.05 -0.55 10.05 -0.45 10.1 -0.35 10.05 -0.25 10.15 -0.25 10.2 -0.25 10.3 -0.2 10.55 -0.35 10.55 -0.35 10.55 -0.35 10.65 -0.35 10.7 -0.35 10.7 -0.35 10.8 -0.4 10.9 -0.4 10.9 -0.4 10.9 -0.45 10.9 -0.45 10.9 -0.45 11.05 -0.5 11.15 -0.5 11.25 -0.45 11.3 -0.45 11.35 -0.35 11.4 -0.25 11.4 -0.2 11.4 -0.2 11.4 -0.2 11.4 -0.1 11.4 0.0 11.4 0.1 11.4 0.2 11.4 0.2 11.4 0.3 11.4 0.3 11.3 0.4 11.3 0.5 11.3 0.5 11.2 0.6 10.9 0.9 10.7 1.1 10.6 1.1 10.5 1.05 10.35 1.0 10.25 1.0 10.1 1.0 9.95 1.0 9.85 1.0 9.75 1.0 9.75 1.05 9.65 1.05 9.55 1.05 9.45 1.1 9.35 1.15 9.25 1.2 9.2 1.25 9.2 1.3 9.15 1.3 9.05 1.35 9.05 1.4 9.0 1.45 8.95 1.5 8.9 1.5 8.85 1.55 8.8 1.6 8.75 1.65 8.7 1.7 8.65 1.75 8.6 1.8 8.55 1.8 8.5 1.85 8.45 1.9 8.45 1.95 8.4 2.0 8.35 2.05 8.3 2.1 8.25 2.1 8.2 2.15 8.2 2.2 8.15 2.25 8.0 2.4 7.95 2.4 7.9 2.45 7.85 2.5 7.85 2.55 7.8 2.6 7.8 2.65 7.75 2.7 7.7 2.7 7.6 2.8 7.55 2.85 7.5 2.85 7.4 2.95 7.4 2.95 7.1 2.95 6.8 2.95 4.6 2.95 4.0 2.95 3.8 2.95 3.6 2.95 3.5 2.95 2.8 2.95 2.0 2.95 2.0 2.6 2.0 2.6 1.9 2.7 1.85 2.85 1.75 2.95 1.75 2.95 1.65 2.95 1.55 2.95 1.45 2.95 1.35 2.95 1.05 2.95 0.35 2.95 -0.85 2.95 -1.55 2.95 -1.55 2.95 -1.55 2.95 -1.85 2.95 -2.25 2.95 -2.95 2.95 -3.25 2.95 -3.45 2.95 -3.95 2.95 -4.15 2.95 -4.35 2.95 -4.65 2.95 -5.05 2.95 -5.75 2.95 -5.95 2.95 -6.15 2.95 -6.35 2.95 -6.65 2.95 -6.95 2.95 -7.65 2.95 -7.75 2.95 -8.15 2.95 -8.2 2.9 -8.25 2.85 -8.25 2.8 -8.3 2.8 -8.3 2.75 -8.35 2.7 -8.4 2.65 -8.45 2.65 -8.45 2.6 -8.5 2.55 -8.55 2.5 -8.6 2.5 -8.6 2.45 -8.65 2.4 -8.7 2.35 -8.75 2.35 -8.75 2.3 -8.8 2.25 -8.85 2.2 -8.9 2.2 -8.9 2.15 -8.95 2.1 -9.0 2.05 -9.05 2.05 -9.05 2.0 -9.15 1.95 -9.2 1.9 -9.25 1.9 -9.25 1.9 -9.3 1.85 -9.3 1.85 -9.3 1.85 -9.35 1.8 -9.35 1.8 -9.45 1.75 -9.5 1.7 -9.5 1.65 -9.5 1.65 -9.5 1.65 -9.6 1.6 -9.6 1.6 -9.7 1.5 -9.7 1.5 -9.7 1.5 -9.8 1.45 -9.85 1.4 -9.85 1.35 -9.85 1.35 -9.85 1.35 -10.0 1.25 -10.05 1.25 -10.05 1.25 -10.05 1.25 -10.1 1.15 -10.15 1.1 -10.2 1.1 -10.2 1.1 -10.2 1.1 -10.3 1.0 -10.3 1.0 -10.3 1.0 -10.4 0.95 -10.4 0.95 -10.4 0.95 -10.4 0.9 -10.4 0.9 -10.4 0.85 -10.4 0.85 -10.4 0.8 -10.4 0.8 -10.45 0.7 -10.45 0.6 -10.45 0.6 -10.45 0.5 -10.45 0.45 -10.45 0.45 -10.45 0.4 -10.65 0.2 -11.2 -0.4 -11.2 -0.4 Z"/>
    </path>
  </g>
</svg>
