<?xml version="1.0" encoding="UTF-8" standalone="no"?>
<svg xmlns:ffdec="https://www.free-decompiler.com/flash" xmlns:xlink="http://www.w3.org/1999/xlink" ffdec:objectType="morphshape" height="46.75px" width="90.5px" xmlns="http://www.w3.org/2000/svg">
  <g transform="matrix(1.0, 0.0, 0.0, 1.0, 2.0, 47.75)">
    <path d="M38.5 -13.7 L38.5 -13.55 40.5 -13.8 43.15 -14.0 44.9 -14.85 46.4 -15.6 46.5 -15.8 46.5 -16.0 46.55 -16.2 46.55 -16.35 46.7 -16.55 46.8 -16.75 46.95 -16.95 47.15 -17.1 47.5 -17.3 47.95 -17.5 48.25 -17.7 48.0 -17.85 46.7 -18.4 46.0 -18.65 45.4 -18.8 44.15 -19.0 42.95 -19.2 42.7 -19.15 42.7 -19.1 42.75 -18.95 42.75 -18.75 42.75 -18.55 42.7 -18.35 42.65 -18.2 42.55 -18.0 42.45 -17.8 42.3 -17.6 42.1 -17.45 41.9 -17.25 41.65 -17.1 41.4 -17.05 40.8 -16.95 40.35 -16.7 40.4 -16.55 40.45 -16.35 40.5 -16.2 40.5 -16.0 40.5 -15.8 40.45 -15.6 40.4 -15.45 40.3 -15.25 40.2 -15.05 39.85 -14.7 38.65 -13.85 38.5 -13.7 M28.75 -20.05 L29.3 -20.05 30.35 -20.15 31.3 -20.25 31.05 -20.45 30.75 -20.8 30.5 -20.95 29.0 -20.2 28.75 -20.05 M22.5 -24.35 L23.55 -24.35 22.75 -24.5 22.5 -24.35 M16.4 -19.7 L16.5 -19.85 16.55 -20.05 16.7 -20.25 17.5 -20.25 17.9 -20.3 18.85 -20.4 16.4 -19.7 M11.4 -18.75 L12.35 -18.85 11.4 -18.75 M11.25 -11.6 L16.75 -11.2 16.75 -11.3 16.8 -11.5 16.9 -11.7 16.95 -11.85 17.15 -12.05 17.25 -12.25 17.5 -12.45 17.8 -12.65 18.05 -12.8 18.25 -13.0 18.45 -13.2 18.65 -13.35 18.9 -13.5 19.0 -13.7 18.8 -13.8 12.95 -14.5 12.2 -14.35 12.25 -14.25 12.25 -14.05 12.25 -13.85 12.25 -13.7 12.25 -13.3 12.05 -12.75 11.4 -11.8 11.25 -11.6 M-2.0 -18.05 L-2.0 -17.85 -2.0 -17.7 -2.0 -17.5 -2.0 -17.3 -2.0 -17.1 -1.95 -16.95 -1.85 -16.75 -1.75 -16.55 -1.6 -16.35 -1.45 -16.2 -1.25 -16.0 -1.0 -15.8 Q-0.3 -15.55 0.35 -15.3 L0.8 -15.2 1.9 -14.9 2.1 -14.8 4.6 -14.1 7.3 -13.45 7.65 -13.35 7.45 -13.25 Q6.55 -12.7 5.55 -12.3 L4.35 -11.75 3.95 -11.55 3.4 -11.45 3.15 -11.35 3.0 -11.3 2.75 -11.2 2.5 -11.0 2.4 -10.8 2.2 -10.6 2.15 -10.45 2.05 -10.25 2.0 -10.05 2.0 -9.85 2.0 -9.7 2.0 -9.5 2.05 -9.3 2.05 -9.1 2.2 -8.95 2.3 -8.75 2.45 -8.55 2.65 -8.35 3.0 -8.2 3.4 -8.1 3.75 -8.0 12.9 -7.9 14.7 -7.7 14.8 -7.5 14.95 -7.3 15.15 -7.1 15.5 -6.95 15.9 -6.85 16.25 -6.75 Q19.2 -6.7 21.95 -7.7 L24.45 -8.5 25.0 -8.6 25.3 -8.55 25.85 -8.35 26.4 -8.2 26.4 -8.0 24.45 -7.4 23.0 -6.8 22.65 -6.6 22.0 -6.5 21.65 -6.45 21.4 -6.35 21.15 -6.25 20.8 -6.05 20.65 -5.85 20.45 -5.7 20.3 -5.5 20.2 -5.3 20.05 -5.1 20.05 -4.95 20.0 -4.75 20.0 -4.55 20.0 -4.35 20.0 -4.2 20.0 -4.0 20.05 -3.8 20.05 -3.6 20.2 -3.45 20.3 -3.25 20.45 -3.05 20.65 -2.85 Q21.65 -2.35 22.9 -2.35 L24.0 -2.25 24.55 -2.1 24.7 -1.95 24.8 -1.75 24.95 -1.55 25.15 -1.35 Q25.3 -1.3 25.5 -1.2 L25.9 -1.1 26.25 -1.0 27.25 -1.0 27.65 -1.05 27.95 -1.1 28.25 -1.2 38.25 -1.25 38.65 -1.3 38.85 -1.4 39.0 -1.45 39.2 -1.55 39.5 -1.75 39.65 -1.95 39.75 -2.1 39.8 -2.3 39.95 -2.5 39.95 -2.7 40.0 -2.85 40.0 -3.05 40.0 -3.25 39.95 -3.45 39.9 -3.6 39.75 -3.8 39.7 -4.0 39.5 -4.2 39.3 -4.35 39.0 -4.55 38.25 -4.7 36.15 -4.85 36.45 -5.05 36.75 -5.25 36.9 -5.45 37.0 -5.6 37.05 -5.8 37.2 -6.0 37.2 -6.2 37.25 -6.35 37.25 -6.55 37.25 -6.75 37.25 -6.95 37.25 -7.1 37.2 -7.3 37.2 -7.5 37.05 -7.7 37.0 -7.85 36.9 -8.05 36.75 -8.25 36.75 -8.45 37.9 -8.9 39.3 -9.4 40.0 -9.75 40.25 -9.95 40.65 -10.05 40.85 -10.15 41.0 -10.2 41.2 -10.3 41.2 -10.3 41.95 -10.35 42.25 -10.2 42.65 -10.1 43.0 -10.0 44.5 -10.0 45.25 -10.1 46.0 -10.25 46.75 -10.45 47.15 -10.6 47.75 -10.75 48.15 -10.8 48.35 -10.9 48.5 -10.95 48.7 -11.05 49.0 -11.25 49.15 -11.45 49.25 -11.6 49.3 -11.8 49.45 -12.0 49.45 -12.2 49.5 -12.35 49.5 -12.55 49.5 -12.75 49.45 -12.95 49.4 -13.1 49.55 -13.3 50.0 -13.45 50.65 -13.25 50.9 -13.2 51.15 -13.1 51.4 -13.05 51.75 -13.0 62.0 -13.0 62.4 -13.05 62.6 -13.15 62.75 -13.2 62.95 -13.3 63.25 -13.5 63.4 -13.7 63.5 -13.85 63.55 -14.05 63.7 -14.25 63.7 -14.45 63.75 -14.6 63.75 -14.8 63.75 -15.0 63.7 -15.2 63.65 -15.35 63.5 -15.55 63.45 -15.75 63.25 -15.95 63.05 -16.1 62.75 -16.3 62.35 -16.4 62.0 -16.5 53.75 -16.55 54.0 -16.7 55.05 -17.45 55.55 -17.85 55.95 -18.2 56.15 -18.35 56.25 -18.55 56.45 -18.75 56.5 -18.95 56.65 -19.1 56.7 -19.3 56.75 -19.5 56.75 -19.7 56.75 -19.85 56.7 -20.05 56.7 -20.25 56.55 -20.45 56.5 -20.6 56.4 -20.8 56.25 -21.0 55.95 -21.15 55.05 -21.55 54.6 -21.65 54.3 -21.8 54.3 -21.85 54.5 -22.05 54.7 -22.25 54.75 -22.45 54.9 -22.6 54.95 -22.8 55.0 -23.0 55.0 -23.2 55.0 -23.35 55.0 -23.55 55.0 -23.75 54.95 -23.95 54.9 -24.1 54.75 -24.3 54.7 -24.5 54.5 -24.7 54.3 -24.85 54.0 -25.05 53.65 -25.15 42.0 -25.35 42.0 -25.55 42.0 -25.75 41.95 -25.95 41.9 -26.1 41.75 -26.3 41.7 -26.5 41.5 -26.7 41.3 -26.85 41.0 -27.05 39.4 -27.4 38.5 -27.55 37.9 -27.7 37.5 -27.75 31.5 -27.75 31.15 -27.7 30.55 -27.55 30.3 -27.5 30.0 -27.45 29.75 -27.4 29.45 -27.3 28.65 -27.35 28.65 -27.5 28.7 -27.7 28.75 -27.85 28.75 -28.05 28.75 -28.25 28.7 -28.45 28.65 -28.6 28.5 -28.8 28.45 -29.0 28.25 -29.2 28.05 -29.35 27.75 -29.55 27.35 -29.65 27.0 -29.75 25.5 -29.75 25.5 -29.7 25.15 -29.7 24.8 -29.65 21.05 -29.05 20.8 -29.0 19.4 -28.65 16.5 -27.85 14.65 -27.35 14.5 -27.3 14.25 -27.2 14.0 -27.0 13.9 -26.8 13.7 -26.6 13.65 -26.45 13.55 -26.25 13.5 -26.05 13.5 -25.85 13.5 -25.7 13.5 -25.5 13.55 -25.3 13.55 -25.1 13.7 -24.95 13.75 -24.75 13.55 -24.55 13.05 -24.35 12.55 -24.2 12.15 -24.0 11.8 -23.8 11.65 -23.6 11.45 -23.45 11.3 -23.25 11.2 -23.05 11.05 -22.85 11.05 -22.7 11.0 -22.5 11.0 -22.3 11.0 -22.15 10.9 -22.15 9.9 -21.9 8.65 -21.7 6.4 -21.35 1.25 -20.15 Q0.0 -19.65 -1.25 -19.2 L-1.5 -19.0 -1.6 -18.8 -1.8 -18.6 -1.85 -18.45 -1.95 -18.25 -2.0 -18.05" fill="#999999" fill-opacity="0.15294118" fill-rule="evenodd" stroke="none">
      <animate attributeName="fill" dur="2s" repeatCount="indefinite" values="#999999;#99999a"/>
      <animate attributeName="fill-opacity" dur="2s" repeatCount="indefinite" values="0.15294118;0.011764706"/>
      <animate attributeName="d" dur="2s" repeatCount="indefinite" values="M38.5 -13.7 L38.5 -13.55 40.5 -13.8 43.15 -14.0 44.9 -14.85 46.4 -15.6 46.5 -15.8 46.5 -16.0 46.55 -16.2 46.55 -16.35 46.7 -16.55 46.8 -16.75 46.95 -16.95 47.15 -17.1 47.5 -17.3 47.95 -17.5 48.25 -17.7 48.0 -17.85 46.7 -18.4 46.0 -18.65 45.4 -18.8 44.15 -19.0 42.95 -19.2 42.7 -19.15 42.7 -19.1 42.75 -18.95 42.75 -18.75 42.75 -18.55 42.7 -18.35 42.65 -18.2 42.55 -18.0 42.45 -17.8 42.3 -17.6 42.1 -17.45 41.9 -17.25 41.65 -17.1 41.4 -17.05 40.8 -16.95 40.35 -16.7 40.4 -16.55 40.45 -16.35 40.5 -16.2 40.5 -16.0 40.5 -15.8 40.45 -15.6 40.4 -15.45 40.3 -15.25 40.2 -15.05 39.85 -14.7 38.65 -13.85 38.5 -13.7 M28.75 -20.05 L29.3 -20.05 30.35 -20.15 31.3 -20.25 31.05 -20.45 30.75 -20.8 30.5 -20.95 29.0 -20.2 28.75 -20.05 M22.5 -24.35 L23.55 -24.35 22.75 -24.5 22.5 -24.35 M16.4 -19.7 L16.5 -19.85 16.55 -20.05 16.7 -20.25 17.5 -20.25 17.9 -20.3 18.85 -20.4 16.4 -19.7 M11.4 -18.75 L12.35 -18.85 11.4 -18.75 M11.25 -11.6 L16.75 -11.2 16.75 -11.3 16.8 -11.5 16.9 -11.7 16.95 -11.85 17.15 -12.05 17.25 -12.25 17.5 -12.45 17.8 -12.65 18.05 -12.8 18.25 -13.0 18.45 -13.2 18.65 -13.35 18.9 -13.5 19.0 -13.7 18.8 -13.8 12.95 -14.5 12.2 -14.35 12.25 -14.25 12.25 -14.05 12.25 -13.85 12.25 -13.7 12.25 -13.3 12.05 -12.75 11.4 -11.8 11.25 -11.6 M-2.0 -18.05 L-2.0 -17.85 -2.0 -17.7 -2.0 -17.5 -2.0 -17.3 -2.0 -17.1 -1.95 -16.95 -1.85 -16.75 -1.75 -16.55 -1.6 -16.35 -1.45 -16.2 -1.25 -16.0 -1.0 -15.8 Q-0.3 -15.55 0.35 -15.3 L0.8 -15.2 1.9 -14.9 2.1 -14.8 4.6 -14.1 7.3 -13.45 7.65 -13.35 7.45 -13.25 Q6.55 -12.7 5.55 -12.3 L4.35 -11.75 3.95 -11.55 3.4 -11.45 3.15 -11.35 3.0 -11.3 2.75 -11.2 2.5 -11.0 2.4 -10.8 2.2 -10.6 2.15 -10.45 2.05 -10.25 2.0 -10.05 2.0 -9.85 2.0 -9.7 2.0 -9.5 2.05 -9.3 2.05 -9.1 2.2 -8.95 2.3 -8.75 2.45 -8.55 2.65 -8.35 3.0 -8.2 3.4 -8.1 3.75 -8.0 12.9 -7.9 14.7 -7.7 14.8 -7.5 14.95 -7.3 15.15 -7.1 15.5 -6.95 15.9 -6.85 16.25 -6.75 Q19.2 -6.7 21.95 -7.7 L24.45 -8.5 25.0 -8.6 25.3 -8.55 25.85 -8.35 26.4 -8.2 26.4 -8.0 24.45 -7.4 23.0 -6.8 22.65 -6.6 22.0 -6.5 21.65 -6.45 21.4 -6.35 21.15 -6.25 20.8 -6.05 20.65 -5.85 20.45 -5.7 20.3 -5.5 20.2 -5.3 20.05 -5.1 20.05 -4.95 20.0 -4.75 20.0 -4.55 20.0 -4.35 20.0 -4.2 20.0 -4.0 20.05 -3.8 20.05 -3.6 20.2 -3.45 20.3 -3.25 20.45 -3.05 20.65 -2.85 Q21.65 -2.35 22.9 -2.35 L24.0 -2.25 24.55 -2.1 24.7 -1.95 24.8 -1.75 24.95 -1.55 25.15 -1.35 Q25.3 -1.3 25.5 -1.2 L25.9 -1.1 26.25 -1.0 27.25 -1.0 27.65 -1.05 27.95 -1.1 28.25 -1.2 38.25 -1.25 38.65 -1.3 38.85 -1.4 39.0 -1.45 39.2 -1.55 39.5 -1.75 39.65 -1.95 39.75 -2.1 39.8 -2.3 39.95 -2.5 39.95 -2.7 40.0 -2.85 40.0 -3.05 40.0 -3.25 39.95 -3.45 39.9 -3.6 39.75 -3.8 39.7 -4.0 39.5 -4.2 39.3 -4.35 39.0 -4.55 38.25 -4.7 36.15 -4.85 36.45 -5.05 36.75 -5.25 36.9 -5.45 37.0 -5.6 37.05 -5.8 37.2 -6.0 37.2 -6.2 37.25 -6.35 37.25 -6.55 37.25 -6.75 37.25 -6.95 37.25 -7.1 37.2 -7.3 37.2 -7.5 37.05 -7.7 37.0 -7.85 36.9 -8.05 36.75 -8.25 36.75 -8.45 37.9 -8.9 39.3 -9.4 40.0 -9.75 40.25 -9.95 40.65 -10.05 40.85 -10.15 41.0 -10.2 41.2 -10.3 41.2 -10.3 41.95 -10.35 42.25 -10.2 42.65 -10.1 43.0 -10.0 44.5 -10.0 45.25 -10.1 46.0 -10.25 46.75 -10.45 47.15 -10.6 47.75 -10.75 48.15 -10.8 48.35 -10.9 48.5 -10.95 48.7 -11.05 49.0 -11.25 49.15 -11.45 49.25 -11.6 49.3 -11.8 49.45 -12.0 49.45 -12.2 49.5 -12.35 49.5 -12.55 49.5 -12.75 49.45 -12.95 49.4 -13.1 49.55 -13.3 50.0 -13.45 50.65 -13.25 50.9 -13.2 51.15 -13.1 51.4 -13.05 51.75 -13.0 62.0 -13.0 62.4 -13.05 62.6 -13.15 62.75 -13.2 62.95 -13.3 63.25 -13.5 63.4 -13.7 63.5 -13.85 63.55 -14.05 63.7 -14.25 63.7 -14.45 63.75 -14.6 63.75 -14.8 63.75 -15.0 63.7 -15.2 63.65 -15.35 63.5 -15.55 63.45 -15.75 63.25 -15.95 63.05 -16.1 62.75 -16.3 62.35 -16.4 62.0 -16.5 53.75 -16.55 54.0 -16.7 55.05 -17.45 55.55 -17.85 55.95 -18.2 56.15 -18.35 56.25 -18.55 56.45 -18.75 56.5 -18.95 56.65 -19.1 56.7 -19.3 56.75 -19.5 56.75 -19.7 56.75 -19.85 56.7 -20.05 56.7 -20.25 56.55 -20.45 56.5 -20.6 56.4 -20.8 56.25 -21.0 55.95 -21.15 55.05 -21.55 54.6 -21.65 54.3 -21.8 54.3 -21.85 54.5 -22.05 54.7 -22.25 54.75 -22.45 54.9 -22.6 54.95 -22.8 55.0 -23.0 55.0 -23.2 55.0 -23.35 55.0 -23.55 55.0 -23.75 54.95 -23.95 54.9 -24.1 54.75 -24.3 54.7 -24.5 54.5 -24.7 54.3 -24.85 54.0 -25.05 53.65 -25.15 42.0 -25.35 42.0 -25.55 42.0 -25.75 41.95 -25.95 41.9 -26.1 41.75 -26.3 41.7 -26.5 41.5 -26.7 41.3 -26.85 41.0 -27.05 39.4 -27.4 38.5 -27.55 37.9 -27.7 37.5 -27.75 31.5 -27.75 31.15 -27.7 30.55 -27.55 30.3 -27.5 30.0 -27.45 29.75 -27.4 29.45 -27.3 28.65 -27.35 28.65 -27.5 28.7 -27.7 28.75 -27.85 28.75 -28.05 28.75 -28.25 28.7 -28.45 28.65 -28.6 28.5 -28.8 28.45 -29.0 28.25 -29.2 28.05 -29.35 27.75 -29.55 27.35 -29.65 27.0 -29.75 25.5 -29.75 25.5 -29.7 25.15 -29.7 24.8 -29.65 21.05 -29.05 20.8 -29.0 19.4 -28.65 16.5 -27.85 14.65 -27.35 14.5 -27.3 14.25 -27.2 14.0 -27.0 13.9 -26.8 13.7 -26.6 13.65 -26.45 13.55 -26.25 13.5 -26.05 13.5 -25.85 13.5 -25.7 13.5 -25.5 13.55 -25.3 13.55 -25.1 13.7 -24.95 13.75 -24.75 13.55 -24.55 13.05 -24.35 12.55 -24.2 12.15 -24.0 11.8 -23.8 11.65 -23.6 11.45 -23.45 11.3 -23.25 11.2 -23.05 11.05 -22.85 11.05 -22.7 11.0 -22.5 11.0 -22.3 11.0 -22.15 10.9 -22.15 9.9 -21.9 8.65 -21.7 6.4 -21.35 1.25 -20.15 Q0.0 -19.65 -1.25 -19.2 L-1.5 -19.0 -1.6 -18.8 -1.8 -18.6 -1.85 -18.45 -1.95 -18.25 -2.0 -18.05;M63.25 -31.7 L63.25 -31.55 65.25 -31.8 67.9 -32.0 69.65 -32.85 71.15 -33.6 71.25 -33.8 71.25 -34.0 71.3 -34.2 71.3 -34.35 71.45 -34.55 71.55 -34.75 71.7 -34.95 71.9 -35.1 72.25 -35.3 72.7 -35.5 73.0 -35.7 72.75 -35.85 71.45 -36.4 70.75 -36.65 70.15 -36.8 68.9 -37.0 67.7 -37.2 67.45 -37.15 67.45 -37.1 67.5 -36.95 67.5 -36.75 67.5 -36.55 67.45 -36.35 67.4 -36.2 67.3 -36.0 67.2 -35.8 67.05 -35.6 66.85 -35.45 66.65 -35.25 66.4 -35.1 66.15 -35.05 65.55 -34.95 65.1 -34.7 65.15 -34.55 65.2 -34.35 65.25 -34.2 65.25 -34.0 65.25 -33.8 65.2 -33.6 65.15 -33.45 65.05 -33.25 64.95 -33.05 64.6 -32.7 63.4 -31.85 63.25 -31.7 M53.5 -38.05 L54.05 -38.05 55.1 -38.15 56.05 -38.25 55.8 -38.45 55.5 -38.8 55.25 -38.95 53.75 -38.2 53.5 -38.05 M47.25 -42.35 L48.3 -42.35 47.5 -42.5 47.25 -42.35 M41.15 -37.7 L41.25 -37.85 41.3 -38.05 41.45 -38.25 42.25 -38.25 42.65 -38.3 43.6 -38.4 41.15 -37.7 M36.15 -36.75 L37.1 -36.85 36.15 -36.75 M36.0 -29.6 L41.5 -29.2 41.5 -29.3 41.55 -29.5 41.65 -29.7 41.7 -29.85 41.9 -30.05 42.0 -30.25 42.25 -30.45 42.55 -30.65 42.8 -30.8 43.0 -31.0 43.2 -31.2 43.4 -31.35 43.65 -31.5 43.75 -31.7 43.55 -31.8 37.7 -32.5 36.95 -32.35 37.0 -32.25 37.0 -32.05 37.0 -31.85 37.0 -31.7 37.0 -31.3 36.8 -30.75 36.15 -29.8 36.0 -29.6 M22.75 -36.05 L22.75 -35.85 22.75 -35.7 22.75 -35.5 22.75 -35.3 22.75 -35.1 22.8 -34.95 22.9 -34.75 23.0 -34.55 23.15 -34.35 23.3 -34.2 23.55 -34.0 23.75 -33.8 Q24.4 -33.45 25.1 -33.3 L25.55 -33.2 26.65 -32.9 26.85 -32.8 29.35 -32.1 32.05 -31.45 32.4 -31.35 32.2 -31.25 Q31.3 -30.7 30.3 -30.3 L29.1 -29.75 28.7 -29.55 28.15 -29.45 27.9 -29.35 27.75 -29.3 27.5 -29.2 27.25 -29.0 27.15 -28.8 26.95 -28.6 26.9 -28.45 26.8 -28.25 26.75 -28.05 26.75 -27.85 26.75 -27.7 26.75 -27.5 26.8 -27.3 26.8 -27.1 26.95 -26.95 27.05 -26.75 27.2 -26.55 27.4 -26.35 27.75 -26.2 28.15 -26.1 28.5 -26.0 37.65 -25.9 39.45 -25.7 39.55 -25.5 39.7 -25.3 39.9 -25.1 40.25 -24.95 40.65 -24.85 41.0 -24.75 Q43.95 -24.7 46.7 -25.7 L49.2 -26.5 49.75 -26.6 50.05 -26.55 50.6 -26.35 51.15 -26.2 51.15 -26.0 49.2 -25.4 47.75 -24.8 47.4 -24.6 46.75 -24.5 46.4 -24.45 46.15 -24.35 45.9 -24.25 45.55 -24.05 45.4 -23.85 45.2 -23.7 45.05 -23.5 44.95 -23.3 44.8 -23.1 44.8 -22.95 44.75 -22.75 44.75 -22.55 44.75 -22.35 44.75 -22.2 44.75 -22.0 44.8 -21.8 44.8 -21.6 44.95 -21.45 45.05 -21.25 45.2 -21.05 45.4 -20.85 Q46.4 -20.35 47.65 -20.35 L48.75 -20.25 49.3 -20.1 49.45 -19.95 49.55 -19.75 49.7 -19.55 49.9 -19.35 Q50.1 -19.25 50.25 -19.2 L50.65 -19.1 51.0 -19.0 52.0 -19.0 52.4 -19.05 52.7 -19.1 53.0 -19.2 63.0 -19.25 63.4 -19.3 63.6 -19.4 63.75 -19.45 63.95 -19.55 64.25 -19.75 64.4 -19.95 64.5 -20.1 64.55 -20.3 64.7 -20.5 64.7 -20.7 64.75 -20.85 64.75 -21.05 64.75 -21.25 64.7 -21.45 64.65 -21.6 64.5 -21.8 64.45 -22.0 64.25 -22.2 64.05 -22.35 63.75 -22.55 63.0 -22.7 60.9 -22.85 61.2 -23.05 61.5 -23.25 61.65 -23.45 61.75 -23.6 61.8 -23.8 61.95 -24.0 61.95 -24.2 62.0 -24.35 62.0 -24.55 62.0 -24.75 62.0 -24.95 62.0 -25.1 61.95 -25.3 61.95 -25.5 61.8 -25.7 61.75 -25.85 61.65 -26.05 61.5 -26.25 61.5 -26.45 62.65 -26.9 64.05 -27.4 64.75 -27.75 65.0 -27.95 65.4 -28.05 65.6 -28.15 65.75 -28.2 65.95 -28.3 66.0 -28.3 66.7 -28.35 67.0 -28.2 67.4 -28.1 67.75 -28.0 69.25 -28.0 70.0 -28.1 70.75 -28.25 71.5 -28.45 71.9 -28.6 72.5 -28.75 72.9 -28.8 73.1 -28.9 73.25 -28.95 73.45 -29.05 73.75 -29.25 73.9 -29.45 74.0 -29.6 74.05 -29.8 74.2 -30.0 74.2 -30.2 74.25 -30.35 74.25 -30.55 74.25 -30.75 74.2 -30.95 74.15 -31.1 74.3 -31.3 74.75 -31.45 75.4 -31.25 75.65 -31.2 75.9 -31.1 76.15 -31.05 76.5 -31.0 86.75 -31.0 87.15 -31.05 87.35 -31.15 87.5 -31.2 87.7 -31.3 88.0 -31.5 88.15 -31.7 88.25 -31.85 88.3 -32.05 88.45 -32.25 88.45 -32.45 88.5 -32.6 88.5 -32.8 88.5 -33.0 88.45 -33.2 88.4 -33.35 88.25 -33.55 88.2 -33.75 88.0 -33.95 87.8 -34.1 87.5 -34.3 87.1 -34.4 86.75 -34.5 78.5 -34.55 78.75 -34.7 79.8 -35.45 80.3 -35.85 80.7 -36.2 80.9 -36.35 81.0 -36.55 81.2 -36.75 81.25 -36.95 81.4 -37.1 81.45 -37.3 81.5 -37.5 81.5 -37.7 81.5 -37.85 81.45 -38.05 81.45 -38.25 81.3 -38.45 81.25 -38.6 81.15 -38.8 81.0 -39.0 80.7 -39.15 79.8 -39.55 79.35 -39.65 79.05 -39.8 79.05 -39.85 79.25 -40.05 79.45 -40.25 79.5 -40.45 79.65 -40.6 79.7 -40.8 79.75 -41.0 79.75 -41.2 79.75 -41.35 79.75 -41.55 79.75 -41.75 79.7 -41.95 79.65 -42.1 79.5 -42.3 79.45 -42.5 79.25 -42.7 79.05 -42.85 78.75 -43.05 78.4 -43.15 66.75 -43.35 66.75 -43.55 66.75 -43.75 66.7 -43.95 66.65 -44.1 66.5 -44.3 66.45 -44.5 66.25 -44.7 66.05 -44.85 65.75 -45.05 64.15 -45.4 63.25 -45.55 62.65 -45.7 62.25 -45.75 56.25 -45.75 55.9 -45.7 55.3 -45.55 55.05 -45.5 54.75 -45.45 54.5 -45.4 54.2 -45.3 53.4 -45.35 53.4 -45.5 53.45 -45.7 53.5 -45.85 53.5 -46.05 53.5 -46.25 53.45 -46.45 53.4 -46.6 53.25 -46.8 53.2 -47.0 53.0 -47.2 52.8 -47.35 52.5 -47.55 52.1 -47.65 51.75 -47.75 50.25 -47.75 50.25 -47.7 49.9 -47.7 49.55 -47.65 45.8 -47.05 45.55 -47.0 44.15 -46.65 41.25 -45.85 39.4 -45.35 39.25 -45.3 39.0 -45.2 38.75 -45.0 38.65 -44.8 38.45 -44.6 38.4 -44.45 38.3 -44.25 38.25 -44.05 38.25 -43.85 38.25 -43.7 38.25 -43.5 38.3 -43.3 38.3 -43.1 38.45 -42.95 38.5 -42.75 38.3 -42.55 37.8 -42.35 37.3 -42.2 36.9 -42.0 36.55 -41.8 36.4 -41.6 36.2 -41.45 36.05 -41.25 35.95 -41.05 35.8 -40.85 35.8 -40.7 35.75 -40.5 35.75 -40.3 35.75 -40.15 35.65 -40.15 34.65 -39.9 33.4 -39.7 31.15 -39.35 26.0 -38.15 Q24.7 -37.85 23.5 -37.2 L23.25 -37.0 23.15 -36.8 22.95 -36.6 22.9 -36.45 22.8 -36.25 22.75 -36.05"/>
    </path>
    <path d="M-2.0 -18.05 L-1.95 -18.25 -1.85 -18.45 -1.8 -18.6 -1.6 -18.8 -1.5 -19.0 -1.25 -19.2 Q0.0 -19.65 1.25 -20.15 L6.4 -21.35 8.65 -21.7 9.9 -21.9 10.9 -22.15 11.0 -22.15 11.0 -22.3 11.0 -22.5 11.05 -22.7 11.05 -22.85 11.2 -23.05 11.3 -23.25 11.45 -23.45 11.65 -23.6 11.8 -23.8 12.15 -24.0 12.55 -24.2 13.05 -24.35 13.55 -24.55 13.75 -24.75 13.7 -24.95 13.55 -25.1 13.55 -25.3 13.5 -25.5 13.5 -25.7 13.5 -25.85 13.5 -26.05 13.55 -26.25 13.65 -26.45 13.7 -26.6 13.9 -26.8 14.0 -27.0 14.25 -27.2 14.5 -27.3 14.65 -27.35 16.5 -27.85 19.4 -28.65 20.8 -29.0 21.05 -29.05 24.8 -29.65 25.15 -29.7 25.5 -29.7 25.5 -29.75 27.0 -29.75 27.35 -29.65 27.75 -29.55 28.05 -29.35 28.25 -29.2 28.45 -29.0 28.5 -28.8 28.65 -28.6 28.7 -28.45 28.75 -28.25 28.75 -28.05 28.75 -27.85 28.7 -27.7 28.65 -27.5 28.65 -27.35 29.45 -27.3 29.75 -27.4 30.0 -27.45 30.3 -27.5 30.55 -27.55 31.15 -27.7 31.5 -27.75 37.5 -27.75 37.9 -27.7 38.5 -27.55 39.4 -27.4 41.0 -27.05 41.3 -26.85 41.5 -26.7 41.7 -26.5 41.75 -26.3 41.9 -26.1 41.95 -25.95 42.0 -25.75 42.0 -25.55 42.0 -25.35 53.65 -25.15 54.0 -25.05 54.3 -24.85 54.5 -24.7 54.7 -24.5 54.75 -24.3 54.9 -24.1 54.95 -23.95 55.0 -23.75 55.0 -23.55 55.0 -23.35 55.0 -23.2 55.0 -23.0 54.95 -22.8 54.9 -22.6 54.75 -22.45 54.7 -22.25 54.5 -22.05 54.3 -21.85 54.3 -21.8 54.6 -21.65 55.05 -21.55 55.95 -21.15 56.25 -21.0 56.4 -20.8 56.5 -20.6 56.55 -20.45 56.7 -20.25 56.7 -20.05 56.75 -19.85 56.75 -19.7 56.75 -19.5 56.7 -19.3 56.65 -19.1 56.5 -18.95 56.45 -18.75 56.25 -18.55 56.15 -18.35 55.95 -18.2 55.55 -17.85 55.05 -17.45 54.0 -16.7 53.75 -16.55 62.0 -16.5 62.35 -16.4 62.75 -16.3 63.05 -16.1 63.25 -15.95 63.45 -15.75 63.5 -15.55 63.65 -15.35 63.7 -15.2 63.75 -15.0 63.75 -14.8 63.75 -14.6 63.7 -14.45 63.7 -14.25 63.55 -14.05 63.5 -13.85 63.4 -13.7 63.25 -13.5 62.95 -13.3 62.75 -13.2 62.6 -13.15 62.4 -13.05 62.0 -13.0 51.75 -13.0 51.4 -13.05 51.15 -13.1 50.9 -13.2 50.65 -13.25 50.0 -13.45 49.55 -13.3 49.4 -13.1 49.45 -12.95 49.5 -12.75 49.5 -12.55 49.5 -12.35 49.45 -12.2 49.45 -12.0 49.3 -11.8 49.25 -11.6 49.15 -11.45 49.0 -11.25 48.7 -11.05 48.5 -10.95 48.35 -10.9 48.15 -10.8 47.75 -10.75 47.15 -10.6 46.75 -10.45 46.0 -10.25 45.25 -10.1 44.5 -10.0 43.0 -10.0 42.65 -10.1 42.25 -10.2 41.95 -10.35 41.2 -10.3 41.2 -10.3 41.0 -10.2 40.85 -10.15 40.65 -10.05 40.25 -9.95 40.0 -9.75 39.3 -9.4 37.9 -8.9 36.75 -8.45 36.75 -8.25 36.9 -8.05 37.0 -7.85 37.05 -7.7 37.2 -7.5 37.2 -7.3 37.25 -7.1 37.25 -6.95 37.25 -6.75 37.25 -6.55 37.25 -6.35 37.2 -6.2 37.2 -6.0 37.05 -5.8 37.0 -5.6 36.9 -5.45 36.75 -5.25 36.45 -5.05 36.15 -4.85 38.25 -4.7 39.0 -4.55 39.3 -4.35 39.5 -4.2 39.7 -4.0 39.75 -3.8 39.9 -3.6 39.95 -3.45 40.0 -3.25 40.0 -3.05 40.0 -2.85 39.95 -2.7 39.95 -2.5 39.8 -2.3 39.75 -2.1 39.65 -1.95 39.5 -1.75 39.2 -1.55 39.0 -1.45 38.85 -1.4 38.65 -1.3 38.25 -1.25 28.25 -1.2 27.95 -1.1 27.65 -1.05 27.25 -1.0 26.25 -1.0 25.9 -1.1 25.5 -1.2 Q25.3 -1.3 25.15 -1.35 L24.95 -1.55 24.8 -1.75 24.7 -1.95 24.55 -2.1 24.0 -2.25 22.9 -2.35 Q21.65 -2.35 20.65 -2.85 L20.45 -3.05 20.3 -3.25 20.2 -3.45 20.05 -3.6 20.05 -3.8 20.0 -4.0 20.0 -4.2 20.0 -4.35 20.0 -4.55 20.0 -4.75 20.05 -4.95 20.05 -5.1 20.2 -5.3 20.3 -5.5 20.45 -5.7 20.65 -5.85 20.8 -6.05 21.15 -6.25 21.4 -6.35 21.65 -6.45 22.0 -6.5 22.65 -6.6 23.0 -6.8 24.45 -7.4 26.4 -8.0 26.4 -8.2 25.85 -8.35 25.3 -8.55 25.0 -8.6 24.45 -8.5 21.95 -7.7 Q19.2 -6.7 16.25 -6.75 L15.9 -6.85 15.5 -6.95 15.15 -7.1 14.95 -7.3 14.8 -7.5 14.7 -7.7 12.9 -7.9 3.75 -8.0 3.4 -8.1 3.0 -8.2 2.65 -8.35 2.45 -8.55 2.3 -8.75 2.2 -8.95 2.05 -9.1 2.05 -9.3 2.0 -9.5 2.0 -9.7 2.0 -9.85 2.0 -10.05 2.05 -10.25 2.15 -10.45 2.2 -10.6 2.4 -10.8 2.5 -11.0 2.75 -11.2 3.0 -11.3 3.15 -11.35 3.4 -11.45 3.95 -11.55 4.35 -11.75 5.55 -12.3 Q6.55 -12.7 7.45 -13.25 L7.65 -13.35 7.3 -13.45 4.6 -14.1 2.1 -14.8 1.9 -14.9 0.8 -15.2 0.35 -15.3 Q-0.3 -15.55 -1.0 -15.8 L-1.25 -16.0 -1.45 -16.2 -1.6 -16.35 -1.75 -16.55 -1.85 -16.75 -1.95 -16.95 -2.0 -17.1 -2.0 -17.3 -2.0 -17.5 -2.0 -17.7 -2.0 -17.85 -2.0 -18.05 M11.25 -11.6 L11.4 -11.8 12.05 -12.75 12.25 -13.3 12.25 -13.7 12.25 -13.85 12.25 -14.05 12.25 -14.25 12.2 -14.35 12.95 -14.5 18.8 -13.8 19.0 -13.7 18.9 -13.5 18.65 -13.35 18.45 -13.2 18.25 -13.0 18.05 -12.8 17.8 -12.65 17.5 -12.45 17.25 -12.25 17.15 -12.05 16.95 -11.85 16.9 -11.7 16.8 -11.5 16.75 -11.3 16.75 -11.2 11.25 -11.6 M11.4 -18.75 L12.35 -18.85 11.4 -18.75 M16.4 -19.7 L18.85 -20.4 17.9 -20.3 17.5 -20.25 16.7 -20.25 16.55 -20.05 16.5 -19.85 16.4 -19.7 M22.5 -24.35 L22.75 -24.5 23.55 -24.35 22.5 -24.35 M28.75 -20.05 L29.0 -20.2 30.5 -20.95 30.75 -20.8 31.05 -20.45 31.3 -20.25 30.35 -20.15 29.3 -20.05 28.75 -20.05 M38.5 -13.7 L38.65 -13.85 39.85 -14.7 40.2 -15.05 40.3 -15.25 40.4 -15.45 40.45 -15.6 40.5 -15.8 40.5 -16.0 40.5 -16.2 40.45 -16.35 40.4 -16.55 40.35 -16.7 40.8 -16.95 41.4 -17.05 41.65 -17.1 41.9 -17.25 42.1 -17.45 42.3 -17.6 42.45 -17.8 42.55 -18.0 42.65 -18.2 42.7 -18.35 42.75 -18.55 42.75 -18.75 42.75 -18.95 42.7 -19.1 42.7 -19.15 42.95 -19.2 44.15 -19.0 45.4 -18.8 46.0 -18.65 46.7 -18.4 48.0 -17.85 48.25 -17.7 47.95 -17.5 47.5 -17.3 47.15 -17.1 46.95 -16.95 46.8 -16.75 46.7 -16.55 46.55 -16.35 46.55 -16.2 46.5 -16.0 46.5 -15.8 46.4 -15.6 44.9 -14.85 43.15 -14.0 40.5 -13.8 38.5 -13.55 38.5 -13.7 Z" fill="none" stroke="#000000" stroke-linecap="round" stroke-linejoin="round" stroke-opacity="0.0" stroke-width="0.0">
      <animate attributeName="stroke" dur="2s" repeatCount="indefinite" values="#000000;#000001"/>
      <animate attributeName="stroke-width" dur="2s" repeatCount="indefinite" values="0.0;0.0"/>
      <animate attributeName="fill-opacity" dur="2s" repeatCount="indefinite" values="0.0;0.0"/>
      <animate attributeName="d" dur="2s" repeatCount="indefinite" values="M-2.0 -18.05 L-1.95 -18.25 -1.85 -18.45 -1.8 -18.6 -1.6 -18.8 -1.5 -19.0 -1.25 -19.2 Q0.0 -19.65 1.25 -20.15 L6.4 -21.35 8.65 -21.7 9.9 -21.9 10.9 -22.15 11.0 -22.15 11.0 -22.3 11.0 -22.5 11.05 -22.7 11.05 -22.85 11.2 -23.05 11.3 -23.25 11.45 -23.45 11.65 -23.6 11.8 -23.8 12.15 -24.0 12.55 -24.2 13.05 -24.35 13.55 -24.55 13.75 -24.75 13.7 -24.95 13.55 -25.1 13.55 -25.3 13.5 -25.5 13.5 -25.7 13.5 -25.85 13.5 -26.05 13.55 -26.25 13.65 -26.45 13.7 -26.6 13.9 -26.8 14.0 -27.0 14.25 -27.2 14.5 -27.3 14.65 -27.35 16.5 -27.85 19.4 -28.65 20.8 -29.0 21.05 -29.05 24.8 -29.65 25.15 -29.7 25.5 -29.7 25.5 -29.75 27.0 -29.75 27.35 -29.65 27.75 -29.55 28.05 -29.35 28.25 -29.2 28.45 -29.0 28.5 -28.8 28.65 -28.6 28.7 -28.45 28.75 -28.25 28.75 -28.05 28.75 -27.85 28.7 -27.7 28.65 -27.5 28.65 -27.35 29.45 -27.3 29.75 -27.4 30.0 -27.45 30.3 -27.5 30.55 -27.55 31.15 -27.7 31.5 -27.75 37.5 -27.75 37.9 -27.7 38.5 -27.55 39.4 -27.4 41.0 -27.05 41.3 -26.85 41.5 -26.7 41.7 -26.5 41.75 -26.3 41.9 -26.1 41.95 -25.95 42.0 -25.75 42.0 -25.55 42.0 -25.35 53.65 -25.15 54.0 -25.05 54.3 -24.85 54.5 -24.7 54.7 -24.5 54.75 -24.3 54.9 -24.1 54.95 -23.95 55.0 -23.75 55.0 -23.55 55.0 -23.35 55.0 -23.2 55.0 -23.0 54.95 -22.8 54.9 -22.6 54.75 -22.45 54.7 -22.25 54.5 -22.05 54.3 -21.85 54.3 -21.8 54.6 -21.65 55.05 -21.55 55.95 -21.15 56.25 -21.0 56.4 -20.8 56.5 -20.6 56.55 -20.45 56.7 -20.25 56.7 -20.05 56.75 -19.85 56.75 -19.7 56.75 -19.5 56.7 -19.3 56.65 -19.1 56.5 -18.95 56.45 -18.75 56.25 -18.55 56.15 -18.35 55.95 -18.2 55.55 -17.85 55.05 -17.45 54.0 -16.7 53.75 -16.55 62.0 -16.5 62.35 -16.4 62.75 -16.3 63.05 -16.1 63.25 -15.95 63.45 -15.75 63.5 -15.55 63.65 -15.35 63.7 -15.2 63.75 -15.0 63.75 -14.8 63.75 -14.6 63.7 -14.45 63.7 -14.25 63.55 -14.05 63.5 -13.85 63.4 -13.7 63.25 -13.5 62.95 -13.3 62.75 -13.2 62.6 -13.15 62.4 -13.05 62.0 -13.0 51.75 -13.0 51.4 -13.05 51.15 -13.1 50.9 -13.2 50.65 -13.25 50.0 -13.45 49.55 -13.3 49.4 -13.1 49.45 -12.95 49.5 -12.75 49.5 -12.55 49.5 -12.35 49.45 -12.2 49.45 -12.0 49.3 -11.8 49.25 -11.6 49.15 -11.45 49.0 -11.25 48.7 -11.05 48.5 -10.95 48.35 -10.9 48.15 -10.8 47.75 -10.75 47.15 -10.6 46.75 -10.45 46.0 -10.25 45.25 -10.1 44.5 -10.0 43.0 -10.0 42.65 -10.1 42.25 -10.2 41.95 -10.35 41.2 -10.3 41.2 -10.3 41.0 -10.2 40.85 -10.15 40.65 -10.05 40.25 -9.95 40.0 -9.75 39.3 -9.4 37.9 -8.9 36.75 -8.45 36.75 -8.25 36.9 -8.05 37.0 -7.85 37.05 -7.7 37.2 -7.5 37.2 -7.3 37.25 -7.1 37.25 -6.95 37.25 -6.75 37.25 -6.55 37.25 -6.35 37.2 -6.2 37.2 -6.0 37.05 -5.8 37.0 -5.6 36.9 -5.45 36.75 -5.25 36.45 -5.05 36.15 -4.85 38.25 -4.7 39.0 -4.55 39.3 -4.35 39.5 -4.2 39.7 -4.0 39.75 -3.8 39.9 -3.6 39.95 -3.45 40.0 -3.25 40.0 -3.05 40.0 -2.85 39.95 -2.7 39.95 -2.5 39.8 -2.3 39.75 -2.1 39.65 -1.95 39.5 -1.75 39.2 -1.55 39.0 -1.45 38.85 -1.4 38.65 -1.3 38.25 -1.25 28.25 -1.2 27.95 -1.1 27.65 -1.05 27.25 -1.0 26.25 -1.0 25.9 -1.1 25.5 -1.2 Q25.3 -1.3 25.15 -1.35 L24.95 -1.55 24.8 -1.75 24.7 -1.95 24.55 -2.1 24.0 -2.25 22.9 -2.35 Q21.65 -2.35 20.65 -2.85 L20.45 -3.05 20.3 -3.25 20.2 -3.45 20.05 -3.6 20.05 -3.8 20.0 -4.0 20.0 -4.2 20.0 -4.35 20.0 -4.55 20.0 -4.75 20.05 -4.95 20.05 -5.1 20.2 -5.3 20.3 -5.5 20.45 -5.7 20.65 -5.85 20.8 -6.05 21.15 -6.25 21.4 -6.35 21.65 -6.45 22.0 -6.5 22.65 -6.6 23.0 -6.8 24.45 -7.4 26.4 -8.0 26.4 -8.2 25.85 -8.35 25.3 -8.55 25.0 -8.6 24.45 -8.5 21.95 -7.7 Q19.2 -6.7 16.25 -6.75 L15.9 -6.85 15.5 -6.95 15.15 -7.1 14.95 -7.3 14.8 -7.5 14.7 -7.7 12.9 -7.9 3.75 -8.0 3.4 -8.1 3.0 -8.2 2.65 -8.35 2.45 -8.55 2.3 -8.75 2.2 -8.95 2.05 -9.1 2.05 -9.3 2.0 -9.5 2.0 -9.7 2.0 -9.85 2.0 -10.05 2.05 -10.25 2.15 -10.45 2.2 -10.6 2.4 -10.8 2.5 -11.0 2.75 -11.2 3.0 -11.3 3.15 -11.35 3.4 -11.45 3.95 -11.55 4.35 -11.75 5.55 -12.3 Q6.55 -12.7 7.45 -13.25 L7.65 -13.35 7.3 -13.45 4.6 -14.1 2.1 -14.8 1.9 -14.9 0.8 -15.2 0.35 -15.3 Q-0.3 -15.55 -1.0 -15.8 L-1.25 -16.0 -1.45 -16.2 -1.6 -16.35 -1.75 -16.55 -1.85 -16.75 -1.95 -16.95 -2.0 -17.1 -2.0 -17.3 -2.0 -17.5 -2.0 -17.7 -2.0 -17.85 -2.0 -18.05 M11.25 -11.6 L11.4 -11.8 12.05 -12.75 12.25 -13.3 12.25 -13.7 12.25 -13.85 12.25 -14.05 12.25 -14.25 12.2 -14.35 12.95 -14.5 18.8 -13.8 19.0 -13.7 18.9 -13.5 18.65 -13.35 18.45 -13.2 18.25 -13.0 18.05 -12.8 17.8 -12.65 17.5 -12.45 17.25 -12.25 17.15 -12.05 16.95 -11.85 16.9 -11.7 16.8 -11.5 16.75 -11.3 16.75 -11.2 11.25 -11.6 M11.4 -18.75 L12.35 -18.85 11.4 -18.75 M16.4 -19.7 L18.85 -20.4 17.9 -20.3 17.5 -20.25 16.7 -20.25 16.55 -20.05 16.5 -19.85 16.4 -19.7 M22.5 -24.35 L22.75 -24.5 23.55 -24.35 22.5 -24.35 M28.75 -20.05 L29.0 -20.2 30.5 -20.95 30.75 -20.8 31.05 -20.45 31.3 -20.25 30.35 -20.15 29.3 -20.05 28.75 -20.05 M38.5 -13.7 L38.65 -13.85 39.85 -14.7 40.2 -15.05 40.3 -15.25 40.4 -15.45 40.45 -15.6 40.5 -15.8 40.5 -16.0 40.5 -16.2 40.45 -16.35 40.4 -16.55 40.35 -16.7 40.8 -16.95 41.4 -17.05 41.65 -17.1 41.9 -17.25 42.1 -17.45 42.3 -17.6 42.45 -17.8 42.55 -18.0 42.65 -18.2 42.7 -18.35 42.75 -18.55 42.75 -18.75 42.75 -18.95 42.7 -19.1 42.7 -19.15 42.95 -19.2 44.15 -19.0 45.4 -18.8 46.0 -18.65 46.7 -18.4 48.0 -17.85 48.25 -17.7 47.95 -17.5 47.5 -17.3 47.15 -17.1 46.95 -16.95 46.8 -16.75 46.7 -16.55 46.55 -16.35 46.55 -16.2 46.5 -16.0 46.5 -15.8 46.4 -15.6 44.9 -14.85 43.15 -14.0 40.5 -13.8 38.5 -13.55 38.5 -13.7 Z;M22.75 -36.05 L22.8 -36.25 22.9 -36.45 22.95 -36.6 23.15 -36.8 23.25 -37.0 23.5 -37.2 Q24.7 -37.85 26.0 -38.15 L31.15 -39.35 33.4 -39.7 34.65 -39.9 35.65 -40.15 35.75 -40.15 35.75 -40.3 35.75 -40.5 35.8 -40.7 35.8 -40.85 35.95 -41.05 36.05 -41.25 36.2 -41.45 36.4 -41.6 36.55 -41.8 36.9 -42.0 37.3 -42.2 37.8 -42.35 38.3 -42.55 38.5 -42.75 38.45 -42.95 38.3 -43.1 38.3 -43.3 38.25 -43.5 38.25 -43.7 38.25 -43.85 38.25 -44.05 38.3 -44.25 38.4 -44.45 38.45 -44.6 38.65 -44.8 38.75 -45.0 39.0 -45.2 39.25 -45.3 39.4 -45.35 41.25 -45.85 44.15 -46.65 45.55 -47.0 45.8 -47.05 49.55 -47.65 49.9 -47.7 50.25 -47.7 50.25 -47.75 51.75 -47.75 52.1 -47.65 52.5 -47.55 52.8 -47.35 53.0 -47.2 53.2 -47.0 53.25 -46.8 53.4 -46.6 53.45 -46.45 53.5 -46.25 53.5 -46.05 53.5 -45.85 53.45 -45.7 53.4 -45.5 53.4 -45.35 54.2 -45.3 54.5 -45.4 54.75 -45.45 55.05 -45.5 55.3 -45.55 55.9 -45.7 56.25 -45.75 62.25 -45.75 62.65 -45.7 63.25 -45.55 64.15 -45.4 65.75 -45.05 66.05 -44.85 66.25 -44.7 66.45 -44.5 66.5 -44.3 66.65 -44.1 66.7 -43.95 66.75 -43.75 66.75 -43.55 66.75 -43.35 78.4 -43.15 78.75 -43.05 79.05 -42.85 79.25 -42.7 79.45 -42.5 79.5 -42.3 79.65 -42.1 79.7 -41.95 79.75 -41.75 79.75 -41.55 79.75 -41.35 79.75 -41.2 79.75 -41.0 79.7 -40.8 79.65 -40.6 79.5 -40.45 79.45 -40.25 79.25 -40.05 79.05 -39.85 79.05 -39.8 79.35 -39.65 79.8 -39.55 80.7 -39.15 81.0 -39.0 81.15 -38.8 81.25 -38.6 81.3 -38.45 81.45 -38.25 81.45 -38.05 81.5 -37.85 81.5 -37.7 81.5 -37.5 81.45 -37.3 81.4 -37.1 81.25 -36.95 81.2 -36.75 81.0 -36.55 80.9 -36.35 80.7 -36.2 80.3 -35.85 79.8 -35.45 78.75 -34.7 78.5 -34.55 86.75 -34.5 87.1 -34.4 87.5 -34.3 87.8 -34.1 88.0 -33.95 88.2 -33.75 88.25 -33.55 88.4 -33.35 88.45 -33.2 88.5 -33.0 88.5 -32.8 88.5 -32.6 88.45 -32.45 88.45 -32.25 88.3 -32.05 88.25 -31.85 88.15 -31.7 88.0 -31.5 87.7 -31.3 87.5 -31.2 87.35 -31.15 87.15 -31.05 86.75 -31.0 76.5 -31.0 76.15 -31.05 75.9 -31.1 75.65 -31.2 75.4 -31.25 74.75 -31.45 74.3 -31.3 74.15 -31.1 74.2 -30.95 74.25 -30.75 74.25 -30.55 74.25 -30.35 74.2 -30.2 74.2 -30.0 74.05 -29.8 74.0 -29.6 73.9 -29.45 73.75 -29.25 73.45 -29.05 73.25 -28.95 73.1 -28.9 72.9 -28.8 72.5 -28.75 71.9 -28.6 71.5 -28.45 70.75 -28.25 70.0 -28.1 69.25 -28.0 67.75 -28.0 67.4 -28.1 67.0 -28.2 66.7 -28.35 66.0 -28.3 65.95 -28.3 65.75 -28.2 65.6 -28.15 65.4 -28.05 65.0 -27.95 64.75 -27.75 64.05 -27.4 62.65 -26.9 61.5 -26.45 61.5 -26.25 61.65 -26.05 61.75 -25.85 61.8 -25.7 61.95 -25.5 61.95 -25.3 62.0 -25.1 62.0 -24.95 62.0 -24.75 62.0 -24.55 62.0 -24.35 61.95 -24.2 61.95 -24.0 61.8 -23.8 61.75 -23.6 61.65 -23.45 61.5 -23.25 61.2 -23.05 60.9 -22.85 63.0 -22.7 63.75 -22.55 64.05 -22.35 64.25 -22.2 64.45 -22.0 64.5 -21.8 64.65 -21.6 64.7 -21.45 64.75 -21.25 64.75 -21.05 64.75 -20.85 64.7 -20.7 64.7 -20.5 64.55 -20.3 64.5 -20.1 64.4 -19.95 64.25 -19.75 63.95 -19.55 63.75 -19.45 63.6 -19.4 63.4 -19.3 63.0 -19.25 53.0 -19.2 52.7 -19.1 52.4 -19.05 52.0 -19.0 51.0 -19.0 50.65 -19.1 50.25 -19.2 Q50.1 -19.25 49.9 -19.35 L49.7 -19.55 49.55 -19.75 49.45 -19.95 49.3 -20.1 48.75 -20.25 47.65 -20.35 Q46.4 -20.35 45.4 -20.85 L45.2 -21.05 45.05 -21.25 44.95 -21.45 44.8 -21.6 44.8 -21.8 44.75 -22.0 44.75 -22.2 44.75 -22.35 44.75 -22.55 44.75 -22.75 44.8 -22.95 44.8 -23.1 44.95 -23.3 45.05 -23.5 45.2 -23.7 45.4 -23.85 45.55 -24.05 45.9 -24.25 46.15 -24.35 46.4 -24.45 46.75 -24.5 47.4 -24.6 47.75 -24.8 49.2 -25.4 51.15 -26.0 51.15 -26.2 50.6 -26.35 50.05 -26.55 49.75 -26.6 49.2 -26.5 46.7 -25.7 Q43.95 -24.7 41.0 -24.75 L40.65 -24.85 40.25 -24.95 39.9 -25.1 39.7 -25.3 39.55 -25.5 39.45 -25.7 37.65 -25.9 28.5 -26.0 28.15 -26.1 27.75 -26.2 27.4 -26.35 27.2 -26.55 27.05 -26.75 26.95 -26.95 26.8 -27.1 26.8 -27.3 26.75 -27.5 26.75 -27.7 26.75 -27.85 26.75 -28.05 26.8 -28.25 26.9 -28.45 26.95 -28.6 27.15 -28.8 27.25 -29.0 27.5 -29.2 27.75 -29.3 27.9 -29.35 28.15 -29.45 28.7 -29.55 29.1 -29.75 30.3 -30.3 Q31.3 -30.7 32.2 -31.25 L32.4 -31.35 32.05 -31.45 29.35 -32.1 26.85 -32.8 26.65 -32.9 25.55 -33.2 25.1 -33.3 Q24.4 -33.45 23.75 -33.8 L23.55 -34.0 23.3 -34.2 23.15 -34.35 23.0 -34.55 22.9 -34.75 22.8 -34.95 22.75 -35.1 22.75 -35.3 22.75 -35.5 22.75 -35.7 22.75 -35.85 22.75 -36.05 M36.0 -29.6 L36.15 -29.8 36.8 -30.75 37.0 -31.3 37.0 -31.7 37.0 -31.85 37.0 -32.05 37.0 -32.25 36.95 -32.35 37.7 -32.5 43.55 -31.8 43.75 -31.7 43.65 -31.5 43.4 -31.35 43.2 -31.2 43.0 -31.0 42.8 -30.8 42.55 -30.65 42.25 -30.45 42.0 -30.25 41.9 -30.05 41.7 -29.85 41.65 -29.7 41.55 -29.5 41.5 -29.3 41.5 -29.2 36.0 -29.6 M36.15 -36.75 L37.1 -36.85 36.15 -36.75 M41.15 -37.7 L43.6 -38.4 42.65 -38.3 42.25 -38.25 41.45 -38.25 41.3 -38.05 41.25 -37.85 41.15 -37.7 M47.25 -42.35 L47.5 -42.5 48.3 -42.35 47.25 -42.35 M53.5 -38.05 L53.75 -38.2 55.25 -38.95 55.5 -38.8 55.8 -38.45 56.05 -38.25 55.1 -38.15 54.05 -38.05 53.5 -38.05 M63.25 -31.7 L63.4 -31.85 64.6 -32.7 64.95 -33.05 65.05 -33.25 65.15 -33.45 65.2 -33.6 65.25 -33.8 65.25 -34.0 65.25 -34.2 65.2 -34.35 65.15 -34.55 65.1 -34.7 65.55 -34.95 66.15 -35.05 66.4 -35.1 66.65 -35.25 66.85 -35.45 67.05 -35.6 67.2 -35.8 67.3 -36.0 67.4 -36.2 67.45 -36.35 67.5 -36.55 67.5 -36.75 67.5 -36.95 67.45 -37.1 67.45 -37.15 67.7 -37.2 68.9 -37.0 70.15 -36.8 70.75 -36.65 71.45 -36.4 72.75 -35.85 73.0 -35.7 72.7 -35.5 72.25 -35.3 71.9 -35.1 71.7 -34.95 71.55 -34.75 71.45 -34.55 71.3 -34.35 71.3 -34.2 71.25 -34.0 71.25 -33.8 71.15 -33.6 69.65 -32.85 67.9 -32.0 65.25 -31.8 63.25 -31.55 63.25 -31.7 Z"/>
    </path>
  </g>
</svg>
