<?xml version="1.0" encoding="UTF-8" standalone="no"?>
<svg xmlns:ffdec="https://www.free-decompiler.com/flash" xmlns:xlink="http://www.w3.org/1999/xlink" ffdec:objectType="morphshape" height="505.65px" width="286.0px" xmlns="http://www.w3.org/2000/svg">
  <g transform="matrix(1.0, 0.0, 0.0, 1.0, 154.4, 257.15)">
    <path d="M-124.4 237.8 L-107.25 241.0 Q-103.25 199.65 -97.35 163.95 -91.25 125.05 -86.05 69.35 -74.15 -69.7 -60.0 -256.6 L-68.8 -256.75 Q-85.75 -69.95 -99.85 68.25 -106.15 123.65 -113.3 162.0 -120.05 197.15 -124.4 237.8 M-101.85 241.85 L-85.5 244.0 Q-82.4 202.0 -77.85 165.85 -72.95 126.45 -68.8 70.4 -60.0 -69.5 -49.25 -256.45 L-57.3 -256.6 Q-70.65 -69.6 -81.75 69.65 -86.8 125.4 -92.55 164.45 -98.05 200.4 -101.85 241.85 M-28.1 248.2 L-8.7 248.5 Q-9.05 205.5 -8.75 168.85 -8.95 120.55 -9.15 72.3 -10.2 -91.7 -11.2 -255.7 L-21.15 -255.8 Q-22.8 -91.8 -24.4 72.15 -25.15 128.5 -26.3 168.5 -27.55 205.2 -28.1 248.2 M-49.7 247.25 L-33.4 247.95 Q-32.65 205.15 -31.15 168.45 -29.75 128.5 -28.65 72.0 L-23.85 -255.8 -31.85 -256.1 Q-37.0 -69.2 -41.25 71.65 -43.2 127.95 -45.75 167.85 -48.1 204.5 -49.7 247.25 M-79.95 244.7 L-74.55 245.2 Q-71.85 203.0 -67.75 166.65 -63.8 126.95 -60.35 70.9 -52.85 -69.45 -43.9 -256.35 L-46.55 -256.4 Q-56.45 -69.5 -64.55 70.65 -68.25 126.75 -72.75 166.2 -77.1 202.5 -79.95 244.7 M-5.35 -255.55 Q-2.6 -91.6 0.15 72.35 0.85 120.6 1.55 168.8 L2.8 248.4 25.7 247.6 22.15 168.35 Q20.05 128.6 17.85 72.35 12.6 -68.45 6.0 -255.4 L-5.35 -255.55 M28.1 -254.95 Q41.45 -68.15 52.6 71.45 57.1 127.25 61.8 166.1 66.05 201.9 69.7 243.65 82.25 241.9 94.65 239.55 90.25 198.85 84.65 163.8 78.3 125.75 72.5 70.4 58.2 -68.2 40.7 -254.85 L28.1 -254.95 M17.3 -255.2 Q27.45 -68.45 35.8 71.95 39.15 128.0 42.65 167.5 45.6 203.6 48.5 246.0 L60.45 244.8 Q57.25 202.85 53.45 166.8 49.3 127.6 45.2 71.7 35.45 -68.35 23.3 -255.1 L17.3 -255.2 M43.5 -254.65 Q61.8 -68.05 76.75 70.2 83.05 125.25 89.5 163.25 95.2 198.05 99.85 238.45 111.85 235.75 123.4 232.35 118.6 193.5 111.65 159.8 104.0 123.25 96.5 68.65 78.35 -67.8 56.05 -254.3 L43.5 -254.65 M-154.4 230.3 Q-142.55 233.85 -129.75 236.75 -125.3 196.4 -118.2 161.4 -110.85 123.15 -104.35 67.85 -89.35 -70.0 -71.55 -256.8 -78.35 -256.9 -84.85 -257.15 -107.2 -70.25 -125.55 65.85 -133.6 120.45 -142.15 157.45 -150.2 191.5 -154.4 230.3 M-5.35 -255.55 Q-2.6 -91.6 0.15 72.35 0.85 120.6 1.55 168.8 2.2 208.6 2.8 248.4 L25.7 247.6 Q23.9 207.95 22.15 168.35 20.05 128.6 17.85 72.35 12.6 -68.45 6.0 -255.4 L-5.35 -255.55 -5.35 -255.55 0.15 70.55 0.15 72.35 Q0.85 119.4 1.55 166.4 L1.55 168.8 2.8 245.6 Q2.8 247.0 3.3 248.4 L25.7 247.4 22.15 168.25 Q20.05 128.5 17.85 72.35 12.65 -67.75 6.0 -255.4 L-5.35 -255.55" fill="#ffffff" fill-opacity="0.17254902" fill-rule="evenodd" stroke="none">
      <animate attributeName="fill" dur="2s" repeatCount="indefinite" values="#ffffff;#ffffff"/>
      <animate attributeName="fill-opacity" dur="2s" repeatCount="indefinite" values="0.17254902;0.17254902"/>
      <animate attributeName="d" dur="2s" repeatCount="indefinite" values="M-124.4 237.8 L-107.25 241.0 Q-103.25 199.65 -97.35 163.95 -91.25 125.05 -86.05 69.35 -74.15 -69.7 -60.0 -256.6 L-68.8 -256.75 Q-85.75 -69.95 -99.85 68.25 -106.15 123.65 -113.3 162.0 -120.05 197.15 -124.4 237.8 M-101.85 241.85 L-85.5 244.0 Q-82.4 202.0 -77.85 165.85 -72.95 126.45 -68.8 70.4 -60.0 -69.5 -49.25 -256.45 L-57.3 -256.6 Q-70.65 -69.6 -81.75 69.65 -86.8 125.4 -92.55 164.45 -98.05 200.4 -101.85 241.85 M-28.1 248.2 L-8.7 248.5 Q-9.05 205.5 -8.75 168.85 -8.95 120.55 -9.15 72.3 -10.2 -91.7 -11.2 -255.7 L-21.15 -255.8 Q-22.8 -91.8 -24.4 72.15 -25.15 128.5 -26.3 168.5 -27.55 205.2 -28.1 248.2 M-49.7 247.25 L-33.4 247.95 Q-32.65 205.15 -31.15 168.45 -29.75 128.5 -28.65 72.0 L-23.85 -255.8 -31.85 -256.1 Q-37.0 -69.2 -41.25 71.65 -43.2 127.95 -45.75 167.85 -48.1 204.5 -49.7 247.25 M-79.95 244.7 L-74.55 245.2 Q-71.85 203.0 -67.75 166.65 -63.8 126.95 -60.35 70.9 -52.85 -69.45 -43.9 -256.35 L-46.55 -256.4 Q-56.45 -69.5 -64.55 70.65 -68.25 126.75 -72.75 166.2 -77.1 202.5 -79.95 244.7 M-5.35 -255.55 Q-2.6 -91.6 0.15 72.35 0.85 120.6 1.55 168.8 L2.8 248.4 25.7 247.6 22.15 168.35 Q20.05 128.6 17.85 72.35 12.6 -68.45 6.0 -255.4 L-5.35 -255.55 M28.1 -254.95 Q41.45 -68.15 52.6 71.45 57.1 127.25 61.8 166.1 66.05 201.9 69.7 243.65 82.25 241.9 94.65 239.55 90.25 198.85 84.65 163.8 78.3 125.75 72.5 70.4 58.2 -68.2 40.7 -254.85 L28.1 -254.95 M17.3 -255.2 Q27.45 -68.45 35.8 71.95 39.15 128.0 42.65 167.5 45.6 203.6 48.5 246.0 L60.45 244.8 Q57.25 202.85 53.45 166.8 49.3 127.6 45.2 71.7 35.45 -68.35 23.3 -255.1 L17.3 -255.2 M43.5 -254.65 Q61.8 -68.05 76.75 70.2 83.05 125.25 89.5 163.25 95.2 198.05 99.85 238.45 111.85 235.75 123.4 232.35 118.6 193.5 111.65 159.8 104.0 123.25 96.5 68.65 78.35 -67.8 56.05 -254.3 L43.5 -254.65 M-154.4 230.3 Q-142.55 233.85 -129.75 236.75 -125.3 196.4 -118.2 161.4 -110.85 123.15 -104.35 67.85 -89.35 -70.0 -71.55 -256.8 -78.35 -256.9 -84.85 -257.15 -107.2 -70.25 -125.55 65.85 -133.6 120.45 -142.15 157.45 -150.2 191.5 -154.4 230.3 M-5.35 -255.55 Q-2.6 -91.6 0.15 72.35 0.85 120.6 1.55 168.8 2.2 208.6 2.8 248.4 L25.7 247.6 Q23.9 207.95 22.15 168.35 20.05 128.6 17.85 72.35 12.6 -68.45 6.0 -255.4 L-5.35 -255.55 -5.35 -255.55 0.15 70.55 0.15 72.35 Q0.85 119.4 1.55 166.4 L1.55 168.8 2.8 245.6 Q2.8 247.0 3.3 248.4 L25.7 247.4 22.15 168.25 Q20.05 128.5 17.85 72.35 12.65 -67.75 6.0 -255.4 L-5.35 -255.55;M-99.15 242.25 L-86.9 243.85 Q-83.75 201.8 -79.0 165.75 -74.0 126.3 -69.9 70.35 -60.85 -69.45 -49.8 -256.45 L-55.9 -256.6 Q-68.9 -69.7 -79.55 69.8 -84.35 125.65 -90.05 164.8 -95.5 200.6 -99.15 242.25 M-143.75 233.35 L-121.8 238.4 Q-117.6 197.6 -110.95 162.25 -104.0 123.95 -97.8 68.5 -83.8 -69.85 -67.4 -256.7 L-79.05 -256.9 Q-99.25 -70.15 -116.2 66.8 -123.75 121.8 -131.7 159.35 -139.35 193.8 -143.75 233.35 M-77.25 244.95 L-51.05 247.15 Q-49.35 204.5 -46.95 167.8 -44.25 127.85 -42.35 71.6 -37.95 -69.2 -32.4 -256.1 L-45.2 -256.35 Q-54.75 -69.4 -62.5 70.8 -66.1 126.85 -70.35 166.45 -74.5 202.75 -77.25 244.95 M-45.6 247.45 L-20.2 248.35 Q-20.0 205.35 -19.2 168.7 -18.6 128.6 -18.25 72.2 L-17.05 -255.8 -29.9 -255.95 Q-34.0 -92.05 -38.05 71.8 -39.75 128.1 -42.0 168.05 -44.35 204.7 -45.6 247.45 M-99.15 242.25 L-86.9 243.85 Q-83.75 201.8 -79.0 165.75 -74.0 126.3 -69.9 70.35 -60.85 -69.45 -49.8 -256.45 L-55.9 -256.6 Q-68.9 -69.7 -79.55 69.8 -84.35 125.65 -90.05 164.8 -95.5 200.6 -99.15 242.25 M3.45 -255.5 Q9.15 -68.55 13.8 72.35 15.5 128.55 17.3 168.5 L20.35 247.85 37.75 246.9 33.1 168.0 Q30.2 128.25 27.5 72.15 20.6 -68.45 12.05 -255.25 L3.45 -255.5 M25.35 -255.05 Q38.05 -68.2 48.35 71.55 52.7 127.35 57.05 166.5 60.95 202.4 64.55 244.35 67.2 244.0 69.8 243.65 66.1 201.9 61.8 166.1 57.1 127.25 52.6 71.45 41.45 -68.15 28.1 -254.95 L25.35 -255.05 M14.7 -255.2 Q24.05 -68.45 31.6 72.1 34.7 128.2 37.9 167.7 40.55 204.0 43.15 246.5 L59.2 244.95 Q55.9 202.85 52.3 166.95 48.15 127.65 44.25 71.75 34.4 -68.25 22.7 -255.1 L14.7 -255.2 M50.65 -254.5 Q71.35 -67.85 88.2 69.3 95.2 124.3 102.4 161.35 108.9 195.5 113.7 235.15 122.65 232.45 131.6 229.75 127.0 191.55 119.75 158.25 111.7 122.25 103.65 67.95 84.45 -67.8 60.5 -254.3 L50.65 -254.5 M-99.15 242.25 Q-93.0 243.05 -86.9 243.85 -83.75 201.8 -79.0 165.75 -74.0 126.3 -69.9 70.35 -60.85 -69.45 -49.8 -256.45 -52.85 -256.55 -55.9 -256.6 -68.9 -69.7 -79.55 69.8 -84.35 125.65 -90.05 164.8 -95.5 200.6 -99.15 242.25 M39.9 -254.85 Q57.35 -68.15 71.55 70.5 77.35 125.75 83.6 163.95 89.05 198.95 93.5 239.7 L108.65 236.4 Q104.1 196.5 97.7 162.0 90.65 124.55 84.05 69.65 67.95 -67.9 48.05 -254.65 L39.9 -254.85 -12.4 -255.6 -10.95 72.3 -10.95 74.2 Q-10.8 129.35 -10.95 168.8 L-10.95 171.2 -11.05 248.5 Q-9.45 248.5 -7.85 248.5 L15.1 248.05 12.6 168.65 Q11.2 128.6 9.55 72.35 5.55 -68.7 -0.9 -255.6 L-12.4 -255.7"/>
    </path>
    <path d="M-49.7 247.25 Q-48.1 204.5 -45.75 167.85 -43.2 127.95 -41.25 71.65 -37.0 -69.2 -31.85 -256.1 L-23.85 -255.8 -28.65 72.0 Q-29.75 128.5 -31.15 168.45 -32.65 205.15 -33.4 247.95 L-49.7 247.25 M-28.1 248.2 Q-27.55 205.2 -26.3 168.5 -25.15 128.5 -24.4 72.15 -22.8 -91.8 -21.15 -255.8 L-11.2 -255.7 Q-10.2 -91.7 -9.15 72.3 -8.95 120.55 -8.75 168.85 -9.05 205.5 -8.7 248.5 L-28.1 248.2 M-101.85 241.85 Q-98.05 200.4 -92.55 164.45 -86.8 125.4 -81.75 69.65 -70.65 -69.6 -57.3 -256.6 L-49.25 -256.45 Q-60.0 -69.5 -68.8 70.4 -72.95 126.45 -77.85 165.85 -82.4 202.0 -85.5 244.0 L-101.85 241.85 M-124.4 237.8 Q-120.05 197.15 -113.3 162.0 -106.15 123.65 -99.85 68.25 -85.75 -69.95 -68.8 -256.75 L-60.0 -256.6 Q-74.15 -69.7 -86.05 69.35 -91.25 125.05 -97.35 163.95 -103.25 199.65 -107.25 241.0 L-124.4 237.8 M-79.95 244.7 Q-77.1 202.5 -72.75 166.2 -68.25 126.75 -64.55 70.65 -56.45 -69.5 -46.55 -256.4 L-43.9 -256.35 Q-52.85 -69.45 -60.35 70.9 -63.8 126.95 -67.75 166.65 -71.85 203.0 -74.55 245.2 L-79.95 244.7 Q-77.1 202.5 -72.75 166.2 -68.25 126.75 -64.55 70.65 -56.45 -69.5 -46.55 -256.4 L-43.9 -256.35 Q-52.85 -69.45 -60.35 70.9 -63.8 126.95 -67.75 166.65 -71.85 203.0 -74.55 245.2 L-79.95 244.7 M-154.4 230.3 Q-150.2 191.5 -142.15 157.45 -133.6 120.45 -125.55 65.85 -107.2 -70.25 -84.85 -257.15 -78.35 -256.9 -71.55 -256.8 -89.35 -70.0 -104.35 67.85 -110.85 123.15 -118.2 161.4 -125.3 196.4 -129.75 236.75 -142.55 233.85 -154.4 230.3 -150.2 191.5 -142.15 157.45 -133.6 120.45 -125.55 65.85 -107.2 -70.25 -84.85 -257.15 -78.35 -256.9 -71.55 -256.8 -89.35 -70.0 -104.35 67.85 -110.85 123.15 -118.2 161.4 -125.3 196.4 -129.75 236.75 -142.55 233.85 -154.4 230.3 M43.5 -254.65 L56.05 -254.3 Q78.35 -67.8 96.5 68.65 104.0 123.25 111.65 159.8 118.6 193.5 123.4 232.35 111.85 235.75 99.85 238.45 95.2 198.05 89.5 163.25 83.05 125.25 76.75 70.2 61.8 -68.05 43.5 -254.65 M17.3 -255.2 L23.3 -255.1 Q35.45 -68.35 45.2 71.7 49.3 127.6 53.45 166.8 57.25 202.85 60.45 244.8 L48.5 246.0 Q45.6 203.6 42.65 167.5 39.15 128.0 35.8 71.95 27.45 -68.45 17.3 -255.2 M28.1 -254.95 L40.7 -254.85 Q58.2 -68.2 72.5 70.4 78.3 125.75 84.65 163.8 90.25 198.85 94.65 239.55 82.25 241.9 69.7 243.65 66.05 201.9 61.8 166.1 57.1 127.25 52.6 71.45 41.45 -68.15 28.1 -254.95 M-5.35 -255.55 L6.0 -255.4 Q12.6 -68.45 17.85 72.35 20.05 128.6 22.15 168.35 L25.7 247.6 2.8 248.4 1.55 168.8 Q0.85 120.6 0.15 72.35 -2.6 -91.6 -5.35 -255.55 L6.0 -255.4 Q12.6 -68.45 17.85 72.35 20.05 128.6 22.15 168.35 23.9 207.95 25.7 247.6 L2.8 248.4 Q2.2 208.6 1.55 168.8 0.85 120.6 0.15 72.35 -2.6 -91.6 -5.35 -255.55 L6.0 -255.4 Q12.6 -68.45 17.85 72.35 20.05 128.6 22.15 168.35 23.9 207.95 25.7 247.6 L2.8 248.4 Q2.2 208.6 1.55 168.8 0.85 120.6 0.15 72.35 -2.6 -91.6 -5.35 -255.55 L6.0 -255.4 Q12.65 -67.75 17.85 72.35 20.05 128.5 22.15 168.25 L25.7 247.4 3.3 248.4 Q2.8 247.0 2.8 245.6 L1.55 168.8 1.55 166.4 Q0.85 119.4 0.15 72.35 L0.15 70.55 -5.35 -255.55 -5.35 -255.55 6.0 -255.4 Q12.65 -67.75 17.85 72.35 20.05 128.5 22.15 168.25 L25.7 247.4 3.3 248.4 Q2.8 247.0 2.8 245.6 L1.55 168.8 1.55 166.4 Q0.85 119.4 0.15 72.35 L0.15 70.55 -5.35 -255.55 -5.35 -255.55 Z" fill="none" stroke="#000000" stroke-linecap="round" stroke-linejoin="round" stroke-opacity="0.0" stroke-width="0.0">
      <animate attributeName="stroke" dur="2s" repeatCount="indefinite" values="#000000;#000001"/>
      <animate attributeName="stroke-width" dur="2s" repeatCount="indefinite" values="0.0;0.0"/>
      <animate attributeName="fill-opacity" dur="2s" repeatCount="indefinite" values="0.0;0.0"/>
      <animate attributeName="d" dur="2s" repeatCount="indefinite" values="M-49.7 247.25 Q-48.1 204.5 -45.75 167.85 -43.2 127.95 -41.25 71.65 -37.0 -69.2 -31.85 -256.1 L-23.85 -255.8 -28.65 72.0 Q-29.75 128.5 -31.15 168.45 -32.65 205.15 -33.4 247.95 L-49.7 247.25 M-28.1 248.2 Q-27.55 205.2 -26.3 168.5 -25.15 128.5 -24.4 72.15 -22.8 -91.8 -21.15 -255.8 L-11.2 -255.7 Q-10.2 -91.7 -9.15 72.3 -8.95 120.55 -8.75 168.85 -9.05 205.5 -8.7 248.5 L-28.1 248.2 M-101.85 241.85 Q-98.05 200.4 -92.55 164.45 -86.8 125.4 -81.75 69.65 -70.65 -69.6 -57.3 -256.6 L-49.25 -256.45 Q-60.0 -69.5 -68.8 70.4 -72.95 126.45 -77.85 165.85 -82.4 202.0 -85.5 244.0 L-101.85 241.85 M-124.4 237.8 Q-120.05 197.15 -113.3 162.0 -106.15 123.65 -99.85 68.25 -85.75 -69.95 -68.8 -256.75 L-60.0 -256.6 Q-74.15 -69.7 -86.05 69.35 -91.25 125.05 -97.35 163.95 -103.25 199.65 -107.25 241.0 L-124.4 237.8 M-79.95 244.7 Q-77.1 202.5 -72.75 166.2 -68.25 126.75 -64.55 70.65 -56.45 -69.5 -46.55 -256.4 L-43.9 -256.35 Q-52.85 -69.45 -60.35 70.9 -63.8 126.95 -67.75 166.65 -71.85 203.0 -74.55 245.2 L-79.95 244.7 Q-77.1 202.5 -72.75 166.2 -68.25 126.75 -64.55 70.65 -56.45 -69.5 -46.55 -256.4 L-43.9 -256.35 Q-52.85 -69.45 -60.35 70.9 -63.8 126.95 -67.75 166.65 -71.85 203.0 -74.55 245.2 L-79.95 244.7 M-154.4 230.3 Q-150.2 191.5 -142.15 157.45 -133.6 120.45 -125.55 65.85 -107.2 -70.25 -84.85 -257.15 -78.35 -256.9 -71.55 -256.8 -89.35 -70.0 -104.35 67.85 -110.85 123.15 -118.2 161.4 -125.3 196.4 -129.75 236.75 -142.55 233.85 -154.4 230.3 -150.2 191.5 -142.15 157.45 -133.6 120.45 -125.55 65.85 -107.2 -70.25 -84.85 -257.15 -78.35 -256.9 -71.55 -256.8 -89.35 -70.0 -104.35 67.85 -110.85 123.15 -118.2 161.4 -125.3 196.4 -129.75 236.75 -142.55 233.85 -154.4 230.3 M43.5 -254.65 L56.05 -254.3 Q78.35 -67.8 96.5 68.65 104.0 123.25 111.65 159.8 118.6 193.5 123.4 232.35 111.85 235.75 99.85 238.45 95.2 198.05 89.5 163.25 83.05 125.25 76.75 70.2 61.8 -68.05 43.5 -254.65 M17.3 -255.2 L23.3 -255.1 Q35.45 -68.35 45.2 71.7 49.3 127.6 53.45 166.8 57.25 202.85 60.45 244.8 L48.5 246.0 Q45.6 203.6 42.65 167.5 39.15 128.0 35.8 71.95 27.45 -68.45 17.3 -255.2 M28.1 -254.95 L40.7 -254.85 Q58.2 -68.2 72.5 70.4 78.3 125.75 84.65 163.8 90.25 198.85 94.65 239.55 82.25 241.9 69.7 243.65 66.05 201.9 61.8 166.1 57.1 127.25 52.6 71.45 41.45 -68.15 28.1 -254.95 M-5.35 -255.55 L6.0 -255.4 Q12.6 -68.45 17.85 72.35 20.05 128.6 22.15 168.35 L25.7 247.6 2.8 248.4 1.55 168.8 Q0.85 120.6 0.15 72.35 -2.6 -91.6 -5.35 -255.55 L6.0 -255.4 Q12.6 -68.45 17.85 72.35 20.05 128.6 22.15 168.35 23.9 207.95 25.7 247.6 L2.8 248.4 Q2.2 208.6 1.55 168.8 0.85 120.6 0.15 72.35 -2.6 -91.6 -5.35 -255.55 L6.0 -255.4 Q12.6 -68.45 17.85 72.35 20.05 128.6 22.15 168.35 23.9 207.95 25.7 247.6 L2.8 248.4 Q2.2 208.6 1.55 168.8 0.85 120.6 0.15 72.35 -2.6 -91.6 -5.35 -255.55 L6.0 -255.4 Q12.65 -67.75 17.85 72.35 20.05 128.5 22.15 168.25 L25.7 247.4 3.3 248.4 Q2.8 247.0 2.8 245.6 L1.55 168.8 1.55 166.4 Q0.85 119.4 0.15 72.35 L0.15 70.55 -5.35 -255.55 -5.35 -255.55 6.0 -255.4 Q12.65 -67.75 17.85 72.35 20.05 128.5 22.15 168.25 L25.7 247.4 3.3 248.4 Q2.8 247.0 2.8 245.6 L1.55 168.8 1.55 166.4 Q0.85 119.4 0.15 72.35 L0.15 70.55 -5.35 -255.55 -5.35 -255.55 Z;M-45.6 247.45 Q-44.35 204.7 -42.0 168.05 -39.75 128.1 -38.05 71.8 -34.0 -92.05 -29.9 -255.95 L-17.05 -255.8 -18.25 72.2 Q-18.6 128.6 -19.2 168.7 -20.0 205.35 -20.2 248.35 L-45.6 247.45 M-77.25 244.95 Q-74.5 202.75 -70.35 166.45 -66.1 126.85 -62.5 70.8 -54.75 -69.4 -45.2 -256.35 L-32.4 -256.1 Q-37.95 -69.2 -42.35 71.6 -44.25 127.85 -46.95 167.8 -49.35 204.5 -51.05 247.15 L-77.25 244.95 M-143.75 233.35 Q-139.35 193.8 -131.7 159.35 -123.75 121.8 -116.2 66.8 -99.25 -70.15 -79.05 -256.9 L-67.4 -256.7 Q-83.8 -69.85 -97.8 68.5 -104.0 123.95 -110.95 162.25 -117.6 197.6 -121.8 238.4 L-143.75 233.35 M-99.15 242.25 Q-95.5 200.6 -90.05 164.8 -84.35 125.65 -79.55 69.8 -68.9 -69.7 -55.9 -256.6 L-49.8 -256.45 Q-60.85 -69.45 -69.9 70.35 -74.0 126.3 -79.0 165.75 -83.75 201.8 -86.9 243.85 L-99.15 242.25 M-99.15 242.25 Q-95.5 200.6 -90.05 164.8 -84.35 125.65 -79.55 69.8 -68.9 -69.7 -55.9 -256.6 L-49.8 -256.45 Q-60.85 -69.45 -69.9 70.35 -74.0 126.3 -79.0 165.75 -83.75 201.8 -86.9 243.85 L-99.15 242.25 Q-95.5 200.6 -90.05 164.8 -84.35 125.65 -79.55 69.8 -68.9 -69.7 -55.9 -256.6 L-49.8 -256.45 Q-60.85 -69.45 -69.9 70.35 -74.0 126.3 -79.0 165.75 -83.75 201.8 -86.9 243.85 L-99.15 242.25 M-99.15 242.25 Q-95.5 200.6 -90.05 164.8 -84.35 125.65 -79.55 69.8 -68.9 -69.7 -55.9 -256.6 -52.85 -256.55 -49.8 -256.45 -60.85 -69.45 -69.9 70.35 -74.0 126.3 -79.0 165.75 -83.75 201.8 -86.9 243.85 -93.0 243.05 -99.15 242.25 -95.5 200.6 -90.05 164.8 -84.35 125.65 -79.55 69.8 -68.9 -69.7 -55.9 -256.6 -52.85 -256.55 -49.8 -256.45 -60.85 -69.45 -69.9 70.35 -74.0 126.3 -79.0 165.75 -83.75 201.8 -86.9 243.85 -93.0 243.05 -99.15 242.25 M50.65 -254.5 L60.5 -254.3 Q84.45 -67.8 103.65 67.95 111.7 122.25 119.75 158.25 127.0 191.55 131.6 229.75 122.65 232.45 113.7 235.15 108.9 195.5 102.4 161.35 95.2 124.3 88.2 69.3 71.35 -67.85 50.65 -254.5 M14.7 -255.2 L22.7 -255.1 Q34.4 -68.25 44.25 71.75 48.15 127.65 52.3 166.95 55.9 202.85 59.2 244.95 L43.15 246.5 Q40.55 204.0 37.9 167.7 34.7 128.2 31.6 72.1 24.05 -68.45 14.7 -255.2 M25.35 -255.05 L28.1 -254.95 Q41.45 -68.15 52.6 71.45 57.1 127.25 61.8 166.1 66.1 201.9 69.8 243.65 67.2 244.0 64.55 244.35 60.95 202.4 57.05 166.5 52.7 127.35 48.35 71.55 38.05 -68.2 25.35 -255.05 M3.45 -255.5 L12.05 -255.25 Q20.6 -68.45 27.5 72.15 30.2 128.25 33.1 168.0 L37.75 246.9 20.35 247.85 17.3 168.5 Q15.5 128.55 13.8 72.35 9.15 -68.55 3.45 -255.5 L48.05 -254.65 Q67.95 -67.9 84.05 69.65 90.65 124.55 97.7 162.0 104.1 196.5 108.65 236.4 L93.5 239.7 Q89.05 198.95 83.6 163.95 77.35 125.75 71.55 70.5 57.35 -68.15 39.9 -254.85 L48.05 -254.65 Q67.95 -67.9 84.05 69.65 90.65 124.55 97.7 162.0 104.1 196.5 108.65 236.4 L93.5 239.7 Q89.05 198.95 83.6 163.95 77.35 125.75 71.55 70.5 57.35 -68.15 39.9 -254.85 L-0.9 -255.6 Q5.55 -68.7 9.55 72.35 11.2 128.6 12.6 168.65 L15.1 248.05 -7.85 248.5 Q-9.45 248.5 -11.05 248.5 L-10.95 171.2 -10.95 168.8 Q-10.8 129.35 -10.95 74.2 L-10.95 72.3 -12.4 -255.6 -12.4 -255.7 -0.9 -255.6 Q5.55 -68.7 9.55 72.35 11.2 128.6 12.6 168.65 L15.1 248.05 -7.85 248.5 Q-9.45 248.5 -11.05 248.5 L-10.95 171.2 -10.95 168.8 Q-10.8 129.35 -10.95 74.2 L-10.95 72.3 -12.4 -255.6 -12.4 -255.7 Z"/>
    </path>
  </g>
</svg>
