<?xml version="1.0" encoding="UTF-8" standalone="no"?>
<svg xmlns:ffdec="https://www.free-decompiler.com/flash" xmlns:xlink="http://www.w3.org/1999/xlink" ffdec:objectType="shape" height="50.95px" width="89.5px" xmlns="http://www.w3.org/2000/svg">
  <g transform="matrix(1.0, 0.0, 0.0, 1.0, 46.05, 37.3)">
    <path d="M34.7 -37.15 L34.95 -36.95 35.05 -36.8 35.1 -36.6 35.2 -36.4 35.2 -36.2 35.2 -36.05 35.2 -35.85 35.2 -35.65 35.2 -35.45 35.2 -35.3 35.2 -35.1 35.2 -34.9 35.2 -34.7 35.2 -34.55 35.2 -34.35 35.2 -34.15 35.2 -33.95 35.2 -33.8 35.2 -33.6 35.2 -33.4 35.2 -33.2 35.2 -33.05 35.2 -32.85 35.2 -32.65 35.2 -32.45 35.2 -32.3 35.2 -32.1 35.2 -31.9 35.2 -31.7 35.2 -31.55 35.2 -31.35 35.2 -31.15 35.2 -30.95 35.2 -30.8 35.2 -30.6 35.2 -30.4 35.2 -30.2 35.2 -30.05 35.2 -29.85 35.2 -29.65 35.2 -29.45 35.2 -29.3 35.2 -29.1 35.2 -28.9 35.2 -28.7 35.2 -28.55 35.2 -28.35 35.2 -28.15 35.2 -27.95 35.2 -27.8 35.2 -27.6 35.2 -27.4 35.2 -27.2 35.2 -27.05 35.2 -26.85 35.2 -26.65 35.2 -26.45 35.2 -26.3 35.2 -26.1 35.2 -25.9 35.2 -25.7 35.2 -25.55 35.2 -25.35 35.2 -25.15 35.2 -24.95 35.2 -24.75 35.2 -24.6 35.2 -24.4 35.2 -24.2 35.2 -24.0 35.2 -23.85 35.2 -23.65 35.2 -23.45 35.2 -23.25 35.2 -23.1 35.2 -22.9 35.2 -22.7 35.2 -22.5 35.2 -22.35 35.2 -22.15 35.2 -21.95 35.2 -21.75 35.2 -21.6 35.2 -21.4 35.2 -21.2 35.2 -21.0 35.2 -20.85 35.2 -20.65 35.2 -20.45 35.2 -20.25 35.2 -20.1 35.2 -19.9 35.2 -19.7 35.2 -19.5 35.2 -19.35 35.2 -19.15 35.2 -18.95 35.2 -18.75 35.2 -18.6 35.2 -18.4 35.2 -18.2 35.2 -18.0 35.2 -17.85 35.2 -17.65 35.2 -17.45 35.2 -17.25 35.2 -17.1 35.2 -16.9 35.2 -16.7 35.2 -16.5 35.2 -16.35 35.2 -16.15 35.2 -15.95 35.2 -15.75 35.2 -15.6 35.2 -15.4 35.2 -15.2 35.2 -15.0 35.2 -14.85 35.2 -14.65 35.2 -14.45 35.2 -14.25 35.2 -14.1 35.2 -13.9 35.3 -13.7 35.35 -13.5 35.45 -13.35 35.45 -13.15 35.45 -12.95 35.45 -12.75 35.45 -12.6 35.45 -12.4 35.45 -12.2 35.45 -12.0 35.45 -11.85 35.45 -11.65 35.45 -11.45 35.45 -11.25 35.45 -11.1 35.45 -10.9 35.45 -10.7 35.45 -10.5 35.45 -10.35 35.45 -10.15 35.45 -9.95 35.45 -9.75 35.45 -9.6 35.45 -9.4 35.45 -9.2 35.45 -9.0 35.45 -8.85 35.45 -8.65 35.45 -8.45 35.45 -8.25 35.45 -8.1 35.45 -7.9 35.45 -7.7 35.45 -7.5 35.45 -7.35 35.45 -7.15 35.45 -6.95 35.45 -6.75 35.45 -6.6 35.45 -6.4 35.45 -6.2 35.45 -6.0 35.45 -5.85 35.45 -5.65 35.45 -5.45 35.45 -5.25 35.45 -5.1 35.45 -4.9 35.45 -4.7 35.45 -4.5 35.45 -4.35 35.45 -4.15 35.45 -3.95 35.45 -3.75 35.35 -3.6 35.3 -3.4 35.25 -3.2 35.2 -3.0 35.2 -2.85 35.2 -2.65 35.2 -2.45 35.2 -2.25 35.2 -2.1 35.2 -1.9 35.2 -1.7 35.2 -1.5 35.2 -1.35 35.2 -1.15 35.2 -0.95 35.2 -0.75 35.2 -0.6 35.2 -0.4 35.2 -0.2 35.2 0.0 35.2 0.15 35.2 0.35 35.2 0.55 35.2 0.75 35.2 0.9 35.2 1.1 35.2 1.3 35.2 1.5 35.2 1.65 35.2 1.85 35.2 2.05 35.2 2.25 35.2 2.4 35.2 2.6 35.2 2.8 35.2 3.0 35.2 3.15 35.2 3.35 35.2 3.55 35.25 3.75 35.5 3.9 35.55 4.1 35.6 4.3 35.7 4.35 35.8 4.55 35.85 4.75 35.95 4.9 35.95 5.1 35.85 5.3 35.75 5.5 35.6 5.65 35.45 5.8 35.3 5.85 35.0 5.9 30.45 6.05 30.0 6.15 28.7 6.3 28.25 6.4 -15.1 6.55 -15.5 6.65 -34.25 6.65 -34.7 6.55 -34.95 6.35 -35.15 6.15 -35.2 6.0 -35.2 5.85 -35.5 5.9 -35.95 5.8 -36.2 5.6 -36.4 5.4 -36.45 5.25 -36.45 5.05 -36.45 4.85 -36.45 4.65 -36.45 4.5 -36.45 4.3 -36.45 4.1 -36.45 3.9 -36.45 3.75 -36.45 3.55 -36.45 3.35 -36.45 3.15 -36.45 3.0 -36.45 2.8 -36.45 2.6 -36.45 2.4 -36.45 2.25 -36.45 2.05 -36.45 1.85 -36.45 1.65 -36.45 1.5 -36.45 1.3 -36.45 1.1 -36.45 0.9 -36.45 0.75 -36.45 0.55 -36.45 0.35 -36.45 0.15 -36.45 0.0 -36.45 -0.2 -36.45 -0.4 -36.45 -0.6 -36.45 -0.75 -36.45 -0.95 -36.45 -1.15 -36.45 -1.35 -36.45 -1.5 -36.45 -1.7 -36.45 -1.9 -36.45 -2.1 -36.45 -2.25 -36.45 -2.45 -36.45 -2.65 -36.45 -2.85 -36.45 -3.0 -36.45 -3.2 -36.45 -3.4 -36.45 -3.6 -36.45 -3.75 -36.45 -3.95 -36.45 -4.15 -36.45 -4.35 -36.45 -4.5 -36.45 -4.7 -36.45 -4.9 -36.45 -5.1 -36.45 -5.25 -36.45 -5.45 -36.45 -5.65 -36.45 -5.85 -36.45 -6.0 -36.45 -6.2 -36.45 -6.4 -36.45 -6.6 -36.45 -6.75 -36.45 -6.95 -36.45 -7.15 -36.45 -7.35 -36.45 -7.5 -36.45 -7.7 -36.45 -7.9 -36.45 -8.1 -36.45 -8.25 -36.45 -8.45 -36.45 -8.65 -36.45 -8.85 -36.45 -9.0 -36.45 -9.2 -36.45 -9.4 -36.45 -9.6 -36.45 -9.75 -36.45 -9.95 -36.45 -10.15 -36.45 -10.35 -36.45 -10.5 -36.5 -10.7 -36.65 -10.9 -36.7 -11.1 -36.7 -11.25 -36.7 -11.45 -36.7 -11.65 -36.7 -11.85 -36.7 -12.0 -36.7 -12.2 -36.7 -12.4 -36.7 -12.6 -36.7 -12.75 -36.7 -12.95 -36.7 -13.15 -36.7 -13.35 -36.7 -13.5 -36.7 -13.7 -36.7 -13.9 -36.7 -14.1 -36.7 -14.25 -36.7 -14.45 -36.7 -14.65 -36.7 -14.85 -36.7 -15.0 -36.7 -15.2 -36.7 -15.4 -36.7 -15.6 -36.7 -15.75 -36.7 -15.95 -36.7 -16.15 -36.7 -16.35 -36.7 -16.5 -36.7 -16.7 -36.7 -16.9 -36.7 -17.1 -36.7 -17.25 -36.7 -17.45 -36.7 -17.65 -36.7 -17.85 -36.7 -18.0 -36.7 -18.2 -36.7 -18.4 -36.7 -18.6 -36.7 -18.75 -36.7 -18.95 -36.7 -19.15 -36.7 -19.35 -36.7 -19.5 -36.7 -19.7 -36.7 -19.9 -36.7 -20.1 -36.7 -20.25 -36.7 -20.45 -36.7 -20.65 -36.7 -20.85 -36.7 -21.0 -36.7 -21.2 -36.7 -21.4 -36.7 -21.6 -36.7 -21.75 -36.7 -21.95 -36.7 -22.15 -36.7 -22.35 -36.7 -22.5 -36.7 -22.7 -36.7 -22.9 -36.7 -23.1 -36.7 -23.25 -36.7 -23.45 -36.7 -23.65 -36.7 -23.85 -36.7 -24.0 -36.7 -24.2 -36.7 -24.4 -36.7 -24.6 -36.7 -24.75 -36.7 -24.95 -36.7 -25.15 -36.85 -25.35 -36.9 -25.55 -36.95 -25.7 -36.95 -25.9 -36.95 -26.1 -36.95 -26.3 -36.95 -26.45 -36.95 -26.65 -36.95 -26.85 -36.95 -27.05 -37.0 -27.2 -37.15 -27.4 -37.2 -27.6 -37.2 -27.8 -37.2 -27.95 -37.2 -28.15 -37.2 -28.35 -37.2 -28.55 -37.2 -28.7 -37.2 -28.9 -37.2 -29.1 -37.25 -29.3 -37.4 -29.45 -37.45 -29.65 -37.45 -29.85 -37.45 -30.05 -37.45 -30.2 -37.45 -30.4 -37.45 -30.6 -37.45 -30.8 -37.45 -30.95 -37.45 -31.15 -37.45 -31.35 -37.45 -31.55 -37.45 -31.7 -37.45 -31.9 -37.45 -32.1 -37.45 -32.3 -37.45 -32.45 -37.45 -32.65 -37.45 -32.85 -37.45 -33.05 -37.45 -33.2 -37.45 -33.4 -37.45 -33.6 -37.45 -33.8 -37.45 -33.95 -37.45 -34.15 -37.45 -34.35 -37.45 -34.55 -37.45 -34.7 -37.45 -34.9 -37.45 -35.1 -37.45 -35.3 -37.45 -35.45 -37.45 -35.65 -37.45 -35.85 -37.45 -36.05 -37.45 -36.2 -37.45 -36.4 -37.45 -36.6 -37.4 -36.8 -37.2 -36.95 -36.95 -37.15 -36.5 -37.2 -36.5 -37.3 -36.25 -37.3 -35.85 -37.15 -35.6 -36.95 -35.45 -36.8 -35.4 -36.6 -35.35 -36.4 -35.35 -36.2 -35.4 -36.05 -35.5 -35.85 -35.6 -35.65 -35.6 -35.45 -35.6 -35.3 -35.6 -35.1 -35.6 -34.9 -35.6 -34.7 -35.6 -34.55 -35.6 -34.35 -35.6 -34.15 -35.6 -33.95 -35.6 -33.8 -35.6 -33.6 -35.6 -33.4 -35.6 -33.2 -35.6 -33.05 -35.6 -32.85 -35.6 -32.65 -35.6 -32.45 -35.6 -32.3 -35.6 -32.1 -35.6 -31.9 -35.6 -31.7 -35.6 -31.55 -35.6 -31.35 -35.6 -31.15 -35.6 -30.95 -35.6 -30.8 -35.6 -30.6 -35.5 -30.4 -35.45 -30.2 -35.4 -30.05 -35.35 -29.85 -35.35 -29.65 -35.35 -29.45 -35.35 -29.3 -35.35 -29.1 -35.35 -28.9 -35.35 -28.7 -35.35 -28.55 -35.25 -28.35 -35.15 -28.15 -35.1 -27.95 -35.1 -27.8 -35.1 -27.6 -35.1 -27.4 -35.1 -27.2 -35.1 -27.05 -35.1 -26.85 -35.1 -26.65 -35.1 -26.45 -34.95 -26.3 -34.9 -26.1 -34.85 -25.9 -34.85 -25.7 -34.85 -25.55 -34.85 -25.35 -34.85 -25.15 -34.85 -24.95 -34.85 -24.75 -34.85 -24.6 -34.85 -24.4 -34.85 -24.2 -34.85 -24.0 -34.85 -23.85 -34.85 -23.65 -34.85 -23.45 -34.85 -23.25 -34.85 -23.1 -34.85 -22.9 -34.85 -22.7 -34.85 -22.5 -34.85 -22.35 -34.85 -22.15 -34.85 -21.95 -34.85 -21.75 -34.85 -21.6 -34.85 -21.4 -34.85 -21.2 -34.85 -21.0 -34.85 -20.85 -34.85 -20.65 -34.85 -20.45 -34.85 -20.25 -34.85 -20.1 -34.85 -19.9 -34.85 -19.7 -34.85 -19.5 -34.85 -19.35 -34.85 -19.15 -34.85 -18.95 -34.85 -18.75 -34.85 -18.6 -34.85 -18.4 -34.85 -18.2 -34.85 -18.0 -34.85 -17.85 -34.85 -17.65 -34.85 -17.45 -34.85 -17.25 -34.85 -17.1 -34.85 -16.9 -34.85 -16.7 -34.85 -16.5 -34.85 -16.35 -34.85 -16.15 -34.85 -15.95 -34.85 -15.75 -34.85 -15.6 -34.85 -15.4 -34.85 -15.2 -34.85 -15.0 -34.85 -14.85 -34.85 -14.65 -34.85 -14.45 -34.85 -14.25 -34.85 -14.1 -34.85 -13.9 -34.85 -13.7 -34.85 -13.5 -34.85 -13.35 -34.85 -13.15 -34.85 -12.95 -34.85 -12.75 -34.85 -12.6 -34.85 -12.4 -34.85 -12.2 -34.85 -12.0 -34.75 -11.85 -34.7 -11.65 -34.65 -11.45 -34.6 -11.25 -34.6 -11.1 -34.6 -10.9 -34.6 -10.7 -34.6 -10.5 -34.6 -10.35 -34.6 -10.15 -34.6 -9.95 -34.6 -9.75 -34.6 -9.6 -34.6 -9.4 -34.6 -9.2 -34.6 -9.0 -34.6 -8.85 -34.6 -8.65 -34.6 -8.45 -34.6 -8.25 -34.6 -8.1 -34.6 -7.9 -34.6 -7.7 -34.6 -7.5 -34.6 -7.35 -34.6 -7.15 -34.6 -6.95 -34.6 -6.75 -34.6 -6.6 -34.6 -6.4 -34.6 -6.2 -34.6 -6.0 -34.6 -5.85 -34.6 -5.65 -34.6 -5.45 -34.6 -5.25 -34.6 -5.1 -34.6 -4.9 -34.6 -4.7 -34.6 -4.5 -34.6 -4.35 -34.6 -4.15 -34.6 -3.95 -34.6 -3.75 -34.6 -3.6 -34.6 -3.4 -34.6 -3.2 -34.6 -3.0 -34.6 -2.85 -34.6 -2.65 -34.6 -2.45 -34.6 -2.25 -34.6 -2.1 -34.6 -1.9 -34.6 -1.7 -34.6 -1.5 -34.6 -1.35 -34.6 -1.15 -34.6 -0.95 -34.6 -0.75 -34.6 -0.6 -34.6 -0.4 -34.6 -0.2 -34.6 0.0 -34.6 0.15 -34.6 0.35 -34.6 0.55 -34.6 0.75 -34.6 0.9 -34.6 1.1 -34.6 1.3 -34.6 1.5 -34.6 1.65 -34.6 1.85 -34.6 2.05 -34.6 2.25 -34.6 2.4 -34.6 2.6 -34.6 2.8 -34.6 3.0 -34.6 3.15 -34.6 3.35 -34.6 3.55 -34.6 3.75 -34.6 3.9 -34.6 4.1 -34.6 4.3 -34.6 4.5 -34.6 4.65 -34.6 4.85 -34.25 4.8 -15.7 4.65 -15.25 4.55 27.8 4.4 28.25 4.3 29.55 4.15 30.0 4.1 30.0 4.05 33.3 4.05 33.3 4.0 33.3 3.8 33.3 3.6 33.3 3.4 33.3 3.25 33.3 3.05 33.3 2.85 33.3 2.65 33.3 2.5 33.3 2.3 33.3 2.1 33.3 1.9 33.3 1.75 33.3 1.55 33.3 1.35 33.3 1.15 33.3 1.0 33.3 0.8 33.3 0.6 33.3 0.4 33.3 0.25 33.3 0.05 33.3 -0.15 33.3 -0.35 33.3 -0.5 33.3 -0.7 33.3 -0.9 33.3 -1.1 33.3 -1.25 33.3 -1.45 33.3 -1.65 33.3 -1.85 33.3 -2.0 33.3 -2.2 33.3 -2.4 33.3 -2.6 33.3 -2.75 33.3 -2.95 33.3 -3.15 33.3 -3.35 33.3 -3.5 33.3 -3.7 33.3 -3.9 33.35 -4.1 33.45 -4.25 33.55 -4.45 33.55 -4.65 33.55 -4.85 33.55 -5.0 33.55 -5.2 33.55 -5.4 33.55 -5.6 33.55 -5.75 33.55 -5.95 33.55 -6.15 33.55 -6.35 33.55 -6.5 33.55 -6.7 33.55 -6.9 33.55 -7.1 33.55 -7.25 33.55 -7.45 33.55 -7.65 33.55 -7.85 33.55 -8.0 33.55 -8.2 33.55 -8.4 33.55 -8.6 33.55 -8.75 33.55 -8.95 33.55 -9.15 33.55 -9.35 33.55 -9.5 33.55 -9.7 33.55 -9.9 33.55 -10.1 33.55 -10.25 33.55 -10.45 33.55 -10.65 33.55 -10.85 33.55 -11.0 33.55 -11.2 33.55 -11.4 33.55 -11.6 33.55 -11.75 33.55 -11.95 33.55 -12.15 33.55 -12.35 33.55 -12.5 33.55 -12.7 33.5 -12.9 33.35 -13.1 33.3 -13.25 33.3 -13.45 33.3 -13.65 33.3 -13.85 33.3 -14.0 33.3 -14.2 33.3 -14.4 33.3 -14.6 33.3 -14.75 33.3 -14.95 33.3 -15.15 33.3 -15.35 33.3 -15.5 33.3 -15.7 33.3 -15.9 33.3 -16.1 33.3 -16.25 33.3 -16.45 33.3 -16.65 33.3 -16.85 33.3 -17.0 33.3 -17.2 33.3 -17.4 33.3 -17.6 33.3 -17.75 33.3 -17.95 33.3 -18.15 33.3 -18.35 33.3 -18.5 33.3 -18.7 33.3 -18.9 33.3 -19.1 33.3 -19.25 33.3 -19.45 33.3 -19.65 33.3 -19.85 33.3 -20.0 33.3 -20.2 33.3 -20.4 33.3 -20.6 33.3 -20.75 33.3 -20.95 33.3 -21.15 33.3 -21.35 33.3 -21.5 33.3 -21.7 33.3 -21.9 33.3 -22.1 33.3 -22.25 33.3 -22.45 33.3 -22.65 33.3 -22.85 33.3 -23.0 33.3 -23.2 33.3 -23.4 33.3 -23.6 33.3 -23.75 33.3 -23.95 33.3 -24.15 33.3 -24.35 33.3 -24.5 33.3 -24.7 33.3 -24.9 33.3 -25.1 33.3 -25.3 33.3 -25.45 33.3 -25.65 33.3 -25.85 33.3 -26.05 33.3 -26.2 33.3 -26.4 33.3 -26.6 33.3 -26.8 33.3 -26.95 33.3 -27.15 33.3 -27.35 33.3 -27.55 33.3 -27.7 33.3 -27.9 33.3 -28.1 33.3 -28.3 33.3 -28.45 33.3 -28.65 33.3 -28.85 33.3 -29.05 33.3 -29.2 33.3 -29.4 33.3 -29.6 33.3 -29.8 33.3 -29.95 33.3 -30.15 33.3 -30.35 33.3 -30.55 33.3 -30.7 33.3 -30.9 33.3 -31.1 33.3 -31.3 33.3 -31.45 33.3 -31.65 33.3 -31.85 33.3 -32.05 33.3 -32.2 33.3 -32.4 33.3 -32.6 33.3 -32.8 33.3 -32.95 33.3 -33.15 33.3 -33.35 33.3 -33.55 33.3 -33.7 33.3 -33.9 33.3 -34.1 33.3 -34.3 33.3 -34.45 33.3 -34.65 33.3 -34.85 33.3 -35.05 33.3 -35.2 33.3 -35.4 33.3 -35.6 33.3 -35.8 33.3 -35.95 33.3 -36.15 33.3 -36.35 33.3 -36.55 33.35 -36.7 33.5 -36.9 33.7 -37.1 33.95 -37.2 34.25 -37.2 34.25 -37.3 34.7 -37.15 M42.7 -36.7 L42.8 -36.55 42.85 -36.35 42.95 -36.15 42.95 -35.95 42.95 -35.8 42.95 -35.6 42.95 -35.4 42.95 -35.2 42.95 -35.05 42.95 -34.85 42.85 -34.65 42.8 -34.45 42.75 -34.3 42.7 -34.1 42.7 -33.9 42.7 -33.7 42.7 -33.55 42.7 -33.35 42.7 -33.15 42.7 -32.95 42.7 -32.8 42.6 -32.6 42.55 -32.4 42.45 -32.2 42.45 -32.05 42.45 -31.85 42.45 -31.65 42.45 -31.45 42.45 -31.3 42.45 -31.1 42.45 -30.9 42.45 -30.7 42.45 -30.55 42.45 -30.35 42.45 -30.15 42.45 -29.95 42.45 -29.8 42.45 -29.6 42.45 -29.4 42.45 -29.2 42.45 -29.05 42.45 -28.85 42.45 -28.65 42.45 -28.45 42.45 -28.3 42.45 -28.1 42.45 -27.9 42.45 -27.7 42.45 -27.55 42.45 -27.35 42.45 -27.15 42.45 -26.95 42.45 -26.8 42.45 -26.6 42.45 -26.4 42.45 -26.2 42.45 -26.05 42.45 -25.85 42.45 -25.65 42.45 -25.45 42.45 -25.3 42.45 -25.1 42.45 -24.9 42.45 -24.7 42.45 -24.5 42.45 -24.35 42.45 -24.15 42.45 -23.95 42.45 -23.75 42.45 -23.6 42.45 -23.4 42.45 -23.2 42.45 -23.0 42.45 -22.85 42.45 -22.65 42.45 -22.45 42.45 -22.25 42.45 -22.1 42.45 -21.9 42.45 -21.7 42.45 -21.5 42.45 -21.35 42.45 -21.15 42.45 -20.95 42.45 -20.75 42.45 -20.6 42.45 -20.4 42.45 -20.2 42.45 -20.0 42.45 -19.85 42.45 -19.65 42.45 -19.45 42.45 -19.25 42.45 -19.1 42.45 -18.9 42.45 -18.7 42.45 -18.5 42.45 -18.35 42.45 -18.15 42.45 -17.95 42.45 -17.75 42.45 -17.6 42.45 -17.4 42.45 -17.2 42.5 -17.0 42.6 -16.85 42.7 -16.65 42.7 -16.45 42.7 -16.25 42.7 -16.1 42.7 -15.9 42.7 -15.7 42.7 -15.5 42.75 -15.35 42.8 -15.15 42.85 -14.95 42.95 -14.75 42.95 -14.6 42.95 -14.4 42.95 -14.2 42.95 -14.0 42.95 -13.85 42.95 -13.65 42.95 -13.45 42.95 -13.25 42.95 -13.1 42.95 -12.9 42.95 -12.7 43.0 -12.5 43.1 -12.35 43.2 -12.15 43.2 -11.95 43.2 -11.75 43.2 -11.6 43.2 -11.4 43.2 -11.2 43.2 -11.0 43.2 -10.85 43.2 -10.65 43.2 -10.45 43.2 -10.25 43.2 -10.1 43.2 -9.9 43.2 -9.7 43.2 -9.5 43.2 -9.35 43.2 -9.15 43.2 -8.95 43.2 -8.75 43.2 -8.6 43.2 -8.4 43.2 -8.2 43.2 -8.0 43.2 -7.85 43.2 -7.65 43.2 -7.45 43.2 -7.25 43.2 -7.1 43.2 -6.9 43.2 -6.7 43.2 -6.5 43.2 -6.35 43.2 -6.15 43.2 -5.95 43.2 -5.75 43.2 -5.6 43.2 -5.4 43.2 -5.2 43.2 -5.0 43.2 -4.85 43.2 -4.65 43.2 -4.45 43.2 -4.25 43.2 -4.1 43.2 -3.9 43.2 -3.7 43.2 -3.5 43.2 -3.35 43.2 -3.15 43.2 -2.95 43.2 -2.75 43.2 -2.6 43.2 -2.4 43.2 -2.2 43.2 -2.0 43.2 -1.85 43.2 -1.65 43.2 -1.45 43.2 -1.25 43.2 -1.1 43.2 -0.9 43.2 -0.7 43.2 -0.5 43.2 -0.35 43.2 -0.15 43.2 0.05 43.2 0.25 43.2 0.4 43.2 0.6 43.2 0.8 43.2 1.0 43.2 1.15 43.2 1.35 43.2 1.55 43.2 1.75 43.2 1.9 43.2 2.1 43.2 2.3 43.2 2.5 43.2 2.65 43.2 2.85 43.2 3.05 43.2 3.25 43.2 3.4 43.2 3.6 43.2 3.8 43.2 4.0 43.2 4.15 43.2 4.35 43.2 4.55 43.2 4.75 43.2 4.9 43.2 5.1 43.2 5.3 43.2 5.5 43.2 5.65 43.2 5.85 43.2 6.05 43.2 6.25 43.2 6.4 43.2 6.6 43.2 6.8 43.2 7.0 43.2 7.15 43.2 7.35 43.2 7.55 43.2 7.75 43.2 7.9 43.2 8.1 43.3 8.3 43.35 8.5 43.45 8.65 43.45 8.85 43.45 9.05 43.45 9.25 43.45 9.4 43.45 9.6 43.45 9.8 43.45 10.0 43.45 10.15 43.45 10.35 43.45 10.55 43.35 10.75 43.3 10.9 43.2 11.1 43.05 11.25 43.05 11.3 43.1 11.5 43.2 11.65 43.2 11.85 43.1 12.05 43.0 12.25 42.85 12.4 42.7 12.55 42.55 12.6 42.25 12.65 1.9 12.8 1.5 12.9 -11.35 13.05 -11.75 13.15 -27.6 13.3 -28.0 13.4 -34.85 13.55 -35.25 13.65 -41.85 13.65 -42.3 13.55 -42.55 13.35 -42.6 13.3 -42.85 13.5 -43.05 13.6 -43.35 13.65 -43.8 13.55 -44.05 13.35 -44.2 13.15 -44.3 13.0 -44.3 12.8 -44.3 12.6 -44.3 12.4 -44.3 12.25 -44.3 12.05 -44.3 11.85 -44.3 11.65 -44.3 11.5 -44.3 11.3 -44.3 11.1 -44.3 10.9 -44.3 10.75 -44.3 10.55 -44.35 10.35 -44.45 10.15 -44.55 10.0 -44.55 9.8 -44.55 9.6 -44.55 9.4 -44.55 9.25 -44.55 9.05 -44.55 8.85 -44.55 8.65 -44.55 8.5 -44.55 8.3 -44.55 8.1 -44.55 7.9 -44.55 7.75 -44.55 7.55 -44.55 7.35 -44.55 7.15 -44.55 7.0 -44.55 6.8 -44.55 6.6 -44.55 6.4 -44.55 6.25 -44.55 6.05 -44.55 5.85 -44.55 5.65 -44.55 5.5 -44.55 5.3 -44.55 5.1 -44.55 4.9 -44.65 4.75 -44.7 4.55 -44.8 4.35 -44.8 4.15 -44.8 4.0 -44.8 3.8 -44.8 3.6 -44.8 3.4 -44.8 3.25 -44.8 3.05 -44.8 2.85 -44.8 2.65 -44.8 2.5 -44.8 2.3 -44.8 2.1 -44.8 1.9 -44.9 1.75 -44.95 1.55 -45.05 1.35 -45.05 1.15 -45.05 1.0 -45.05 0.8 -45.05 0.6 -45.05 0.4 -45.05 0.25 -45.05 0.05 -45.05 -0.15 -45.05 -0.35 -45.05 -0.5 -45.05 -0.7 -45.05 -0.9 -45.05 -1.1 -45.05 -1.25 -45.05 -1.45 -45.05 -1.65 -45.05 -1.85 -45.05 -2.0 -45.05 -2.2 -45.05 -2.4 -45.05 -2.6 -45.05 -2.75 -45.05 -2.95 -45.05 -3.15 -45.05 -3.35 -45.05 -3.5 -45.05 -3.7 -45.05 -3.9 -45.05 -4.1 -45.05 -4.25 -45.05 -4.45 -45.05 -4.65 -45.05 -4.85 -45.05 -5.0 -45.05 -5.2 -45.05 -5.4 -45.05 -5.6 -45.05 -5.75 -45.05 -5.95 -45.05 -6.15 -45.05 -6.35 -45.05 -6.5 -45.05 -6.7 -45.05 -6.9 -45.05 -7.1 -45.05 -7.25 -45.05 -7.45 -45.05 -7.65 -45.05 -7.85 -45.15 -8.0 -45.2 -8.2 -45.3 -8.4 -45.3 -8.6 -45.3 -8.75 -45.3 -8.95 -45.3 -9.15 -45.3 -9.35 -45.3 -9.5 -45.3 -9.7 -45.3 -9.9 -45.3 -10.1 -45.3 -10.25 -45.3 -10.45 -45.3 -10.65 -45.3 -10.85 -45.3 -11.0 -45.3 -11.2 -45.3 -11.4 -45.3 -11.6 -45.3 -11.75 -45.3 -11.95 -45.3 -12.15 -45.3 -12.35 -45.3 -12.5 -45.3 -12.7 -45.3 -12.9 -45.3 -13.1 -45.3 -13.25 -45.3 -13.45 -45.3 -13.65 -45.3 -13.85 -45.3 -14.0 -45.3 -14.2 -45.3 -14.4 -45.3 -14.6 -45.3 -14.75 -45.3 -14.95 -45.3 -15.15 -45.3 -15.35 -45.3 -15.5 -45.3 -15.7 -45.3 -15.9 -45.3 -16.1 -45.3 -16.25 -45.3 -16.45 -45.3 -16.65 -45.3 -16.85 -45.3 -17.0 -45.3 -17.2 -45.35 -17.4 -45.45 -17.6 -45.55 -17.75 -45.55 -17.95 -45.55 -18.15 -45.55 -18.35 -45.55 -18.5 -45.55 -18.7 -45.55 -18.9 -45.55 -19.1 -45.55 -19.25 -45.55 -19.45 -45.55 -19.65 -45.55 -19.85 -45.55 -20.0 -45.55 -20.2 -45.6 -20.4 -45.7 -20.6 -45.8 -20.75 -45.8 -20.95 -45.8 -21.15 -45.8 -21.35 -45.9 -21.5 -45.95 -21.7 -46.05 -21.9 -46.05 -22.1 -46.05 -22.25 -46.05 -22.45 -46.05 -22.65 -46.05 -22.85 -46.05 -23.0 -46.05 -23.2 -46.05 -23.4 -46.05 -23.6 -46.05 -23.75 -46.05 -23.95 -46.05 -24.15 -46.05 -24.35 -46.05 -24.5 -46.05 -24.7 -46.05 -24.9 -46.05 -25.1 -46.05 -25.3 -46.05 -25.45 -46.05 -25.65 -46.05 -25.85 -46.05 -26.05 -46.05 -26.2 -46.05 -26.4 -46.05 -26.6 -46.05 -26.8 -46.05 -26.95 -46.05 -27.15 -46.05 -27.35 -46.05 -27.55 -46.05 -27.7 -46.05 -27.9 -46.05 -28.1 -46.05 -28.3 -46.05 -28.45 -46.05 -28.65 -46.05 -28.85 -46.05 -29.05 -46.05 -29.2 -46.05 -29.4 -46.05 -29.6 -46.05 -29.8 -46.05 -29.95 -46.05 -30.15 -46.05 -30.35 -46.05 -30.55 -46.05 -30.7 -46.05 -30.9 -46.05 -31.1 -46.05 -31.3 -46.05 -31.45 -46.05 -31.65 -46.05 -31.85 -46.05 -32.05 -46.05 -32.2 -46.05 -32.4 -46.05 -32.6 -46.05 -32.8 -46.05 -32.95 -46.05 -33.15 -46.05 -33.35 -46.05 -33.55 -46.05 -33.7 -46.05 -33.9 -46.05 -34.1 -46.05 -34.3 -46.05 -34.45 -46.05 -34.65 -46.05 -34.85 -46.05 -35.05 -46.05 -35.2 -46.05 -35.4 -46.05 -35.6 -46.05 -35.8 -45.95 -35.95 -45.85 -36.15 -45.65 -36.35 -45.4 -36.45 -45.1 -36.45 -45.1 -36.55 -44.65 -36.4 -44.4 -36.2 -44.3 -36.05 -44.2 -35.85 -44.15 -35.65 -44.15 -35.45 -44.15 -35.3 -44.15 -35.1 -44.15 -34.9 -44.15 -34.7 -44.15 -34.55 -44.15 -34.35 -44.15 -34.15 -44.15 -33.95 -44.15 -33.8 -44.15 -33.6 -44.15 -33.4 -44.15 -33.2 -44.15 -33.05 -44.15 -32.85 -44.15 -32.65 -44.15 -32.45 -44.15 -32.3 -44.15 -32.1 -44.15 -31.9 -44.15 -31.7 -44.15 -31.55 -44.15 -31.35 -44.15 -31.15 -44.15 -30.95 -44.15 -30.8 -44.15 -30.6 -44.15 -30.4 -44.15 -30.2 -44.15 -30.05 -44.15 -29.85 -44.15 -29.65 -44.15 -29.45 -44.15 -29.3 -44.15 -29.1 -44.15 -28.9 -44.15 -28.7 -44.15 -28.55 -44.15 -28.35 -44.15 -28.15 -44.15 -27.95 -44.15 -27.8 -44.15 -27.6 -44.15 -27.4 -44.15 -27.2 -44.15 -27.05 -44.15 -26.85 -44.15 -26.65 -44.15 -26.45 -44.15 -26.3 -44.15 -26.1 -44.15 -25.9 -44.15 -25.7 -44.15 -25.55 -44.15 -25.35 -44.15 -25.15 -44.15 -24.95 -44.15 -24.75 -44.15 -24.6 -44.15 -24.4 -44.15 -24.2 -44.15 -24.0 -44.15 -23.85 -44.15 -23.65 -44.15 -23.45 -44.15 -23.25 -44.15 -23.1 -44.15 -22.9 -44.15 -22.7 -44.1 -22.5 -43.95 -22.35 -43.9 -22.15 -43.9 -21.95 -43.9 -21.75 -43.85 -21.6 -43.8 -21.4 -43.7 -21.2 -43.65 -21.0 -43.65 -20.85 -43.65 -20.65 -43.65 -20.45 -43.65 -20.25 -43.65 -20.1 -43.65 -19.9 -43.65 -19.7 -43.65 -19.5 -43.65 -19.35 -43.65 -19.15 -43.65 -18.95 -43.65 -18.75 -43.65 -18.6 -43.65 -18.4 -43.55 -18.2 -43.45 -18.0 -43.4 -17.85 -43.4 -17.65 -43.4 -17.45 -43.4 -17.25 -43.4 -17.1 -43.4 -16.9 -43.4 -16.7 -43.4 -16.5 -43.4 -16.35 -43.4 -16.15 -43.4 -15.95 -43.4 -15.75 -43.4 -15.6 -43.4 -15.4 -43.4 -15.2 -43.4 -15.0 -43.4 -14.85 -43.4 -14.65 -43.4 -14.45 -43.4 -14.25 -43.4 -14.1 -43.4 -13.9 -43.4 -13.7 -43.4 -13.5 -43.4 -13.35 -43.4 -13.15 -43.4 -12.95 -43.4 -12.75 -43.4 -12.6 -43.4 -12.4 -43.4 -12.2 -43.4 -12.0 -43.4 -11.85 -43.4 -11.65 -43.4 -11.45 -43.4 -11.25 -43.4 -11.1 -43.4 -10.9 -43.4 -10.7 -43.4 -10.5 -43.4 -10.35 -43.4 -10.15 -43.4 -9.95 -43.4 -9.75 -43.4 -9.6 -43.4 -9.4 -43.4 -9.2 -43.4 -9.0 -43.35 -8.85 -43.3 -8.65 -43.2 -8.45 -43.15 -8.25 -43.15 -8.1 -43.15 -7.9 -43.15 -7.7 -43.15 -7.5 -43.15 -7.35 -43.15 -7.15 -43.15 -6.95 -43.15 -6.75 -43.15 -6.6 -43.15 -6.4 -43.15 -6.2 -43.15 -6.0 -43.15 -5.85 -43.15 -5.65 -43.15 -5.45 -43.15 -5.25 -43.15 -5.1 -43.15 -4.9 -43.15 -4.7 -43.15 -4.5 -43.15 -4.35 -43.15 -4.15 -43.15 -3.95 -43.15 -3.75 -43.15 -3.6 -43.15 -3.4 -43.15 -3.2 -43.15 -3.0 -43.15 -2.85 -43.15 -2.65 -43.15 -2.45 -43.15 -2.25 -43.15 -2.1 -43.15 -1.9 -43.15 -1.7 -43.15 -1.5 -43.15 -1.35 -43.15 -1.15 -43.15 -0.95 -43.15 -0.75 -43.15 -0.6 -43.15 -0.4 -43.15 -0.2 -43.15 0.0 -43.15 0.15 -43.15 0.35 -43.15 0.55 -43.15 0.75 -43.1 0.9 -43.05 1.1 -42.95 1.3 -42.9 1.5 -42.9 1.65 -42.9 1.85 -42.9 2.05 -42.9 2.25 -42.9 2.4 -42.9 2.6 -42.9 2.8 -42.9 3.0 -42.9 3.15 -42.9 3.35 -42.9 3.55 -42.85 3.75 -42.7 3.9 -42.65 4.1 -42.65 4.3 -42.65 4.5 -42.65 4.65 -42.65 4.85 -42.65 5.05 -42.65 5.25 -42.65 5.4 -42.65 5.6 -42.65 5.8 -42.65 6.0 -42.65 6.15 -42.65 6.35 -42.65 6.55 -42.65 6.75 -42.65 6.9 -42.65 7.1 -42.65 7.3 -42.65 7.5 -42.65 7.65 -42.65 7.85 -42.65 8.05 -42.65 8.25 -42.65 8.4 -42.65 8.6 -42.65 8.8 -42.65 9.0 -42.6 9.15 -42.55 9.35 -42.45 9.55 -42.4 9.75 -42.4 9.9 -42.4 10.1 -42.4 10.3 -42.4 10.5 -42.4 10.65 -42.4 10.85 -42.4 11.05 -42.4 11.25 -42.4 11.4 -42.4 11.6 -42.4 11.8 -42.4 12.0 -42.4 12.05 -42.3 11.9 -42.15 11.85 -41.85 11.8 -35.7 11.65 -35.25 11.55 -28.45 11.4 -28.0 11.3 -11.95 11.15 -11.5 11.05 1.3 10.9 1.75 10.85 1.75 10.8 41.6 10.8 41.55 10.75 41.55 10.55 41.55 10.35 41.55 10.15 41.55 10.0 41.55 9.8 41.55 9.6 41.55 9.4 41.45 9.25 41.35 9.05 41.3 8.85 41.3 8.65 41.3 8.5 41.3 8.3 41.3 8.1 41.3 7.9 41.3 7.75 41.3 7.55 41.3 7.35 41.3 7.15 41.3 7.0 41.3 6.8 41.3 6.6 41.3 6.4 41.3 6.25 41.3 6.05 41.3 5.85 41.3 5.65 41.3 5.5 41.3 5.3 41.3 5.1 41.3 4.9 41.3 4.75 41.3 4.55 41.3 4.35 41.3 4.15 41.3 4.0 41.3 3.8 41.3 3.6 41.3 3.4 41.3 3.25 41.3 3.05 41.3 2.85 41.3 2.65 41.3 2.5 41.3 2.3 41.3 2.1 41.3 1.9 41.3 1.75 41.3 1.55 41.3 1.35 41.3 1.15 41.3 1.0 41.3 0.8 41.3 0.6 41.3 0.4 41.3 0.25 41.3 0.05 41.3 -0.15 41.3 -0.35 41.3 -0.5 41.3 -0.7 41.3 -0.9 41.3 -1.1 41.3 -1.25 41.3 -1.45 41.3 -1.65 41.3 -1.85 41.3 -2.0 41.3 -2.2 41.3 -2.4 41.3 -2.6 41.3 -2.75 41.3 -2.95 41.3 -3.15 41.3 -3.35 41.3 -3.5 41.3 -3.7 41.3 -3.9 41.3 -4.1 41.3 -4.25 41.3 -4.45 41.3 -4.65 41.3 -4.85 41.3 -5.0 41.3 -5.2 41.3 -5.4 41.3 -5.6 41.3 -5.75 41.3 -5.95 41.3 -6.15 41.3 -6.35 41.3 -6.5 41.3 -6.7 41.3 -6.9 41.3 -7.1 41.3 -7.25 41.3 -7.45 41.3 -7.65 41.3 -7.85 41.3 -8.0 41.3 -8.2 41.3 -8.4 41.3 -8.6 41.3 -8.75 41.3 -8.95 41.3 -9.15 41.3 -9.35 41.3 -9.5 41.3 -9.7 41.3 -9.9 41.3 -10.1 41.3 -10.25 41.3 -10.45 41.3 -10.65 41.3 -10.85 41.3 -11.0 41.3 -11.2 41.25 -11.4 41.1 -11.6 41.05 -11.75 41.05 -11.95 41.05 -12.15 41.05 -12.35 41.05 -12.5 41.05 -12.7 41.05 -12.9 41.05 -13.1 41.05 -13.25 41.05 -13.45 41.05 -13.65 41.05 -13.85 41.05 -14.0 41.0 -14.2 40.85 -14.4 40.8 -14.6 40.8 -14.75 40.8 -14.95 40.8 -15.15 40.8 -15.35 40.8 -15.5 40.8 -15.7 40.75 -15.9 40.6 -16.1 40.55 -16.25 40.55 -16.45 40.55 -16.65 40.55 -16.85 40.55 -17.0 40.55 -17.2 40.55 -17.4 40.55 -17.6 40.55 -17.75 40.55 -17.95 40.55 -18.15 40.55 -18.35 40.55 -18.5 40.55 -18.7 40.55 -18.9 40.55 -19.1 40.55 -19.25 40.55 -19.45 40.55 -19.65 40.55 -19.85 40.55 -20.0 40.55 -20.2 40.55 -20.4 40.55 -20.6 40.55 -20.75 40.55 -20.95 40.55 -21.15 40.55 -21.35 40.55 -21.5 40.55 -21.7 40.55 -21.9 40.55 -22.1 40.55 -22.25 40.55 -22.45 40.55 -22.65 40.55 -22.85 40.55 -23.0 40.55 -23.2 40.55 -23.4 40.55 -23.6 40.55 -23.75 40.55 -23.95 40.55 -24.15 40.55 -24.35 40.55 -24.5 40.55 -24.7 40.55 -24.9 40.55 -25.1 40.55 -25.3 40.55 -25.45 40.55 -25.65 40.55 -25.85 40.55 -26.05 40.55 -26.2 40.55 -26.4 40.55 -26.6 40.55 -26.8 40.55 -26.95 40.55 -27.15 40.55 -27.35 40.55 -27.55 40.55 -27.7 40.55 -27.9 40.55 -28.1 40.55 -28.3 40.55 -28.45 40.55 -28.65 40.55 -28.85 40.55 -29.05 40.55 -29.2 40.55 -29.4 40.55 -29.6 40.55 -29.8 40.55 -29.95 40.55 -30.15 40.55 -30.35 40.55 -30.55 40.55 -30.7 40.55 -30.9 40.55 -31.1 40.55 -31.3 40.55 -31.45 40.55 -31.65 40.55 -31.85 40.55 -32.05 40.55 -32.2 40.55 -32.4 40.55 -32.6 40.55 -32.8 40.55 -32.95 40.6 -33.15 40.7 -33.35 40.8 -33.55 40.8 -33.7 40.8 -33.9 40.8 -34.1 40.8 -34.3 40.8 -34.45 40.8 -34.65 40.8 -34.85 40.8 -35.05 40.85 -35.2 41.0 -35.4 41.05 -35.6 41.05 -35.8 41.05 -35.95 41.05 -36.15 41.05 -36.35 41.1 -36.55 41.3 -36.7 41.55 -36.9 42.0 -36.95 42.0 -37.05 42.45 -36.9 42.7 -36.7" fill="#000000" fill-rule="evenodd" stroke="none"/>
  </g>
</svg>
