<?xml version="1.0" encoding="UTF-8" standalone="no"?>
<svg xmlns:ffdec="https://www.free-decompiler.com/flash" xmlns:xlink="http://www.w3.org/1999/xlink" ffdec:objectType="shape" height="2.35px" width="21.5px" xmlns="http://www.w3.org/2000/svg">
  <g transform="matrix(1.0, 0.0, 0.0, 1.0, 10.65, -2.95)">
    <path d="M10.85 3.8 L10.85 3.85 10.85 3.95 10.85 4.05 10.85 4.15 10.85 4.25 10.8 4.35 10.75 4.45 10.7 4.55 10.6 4.6 10.45 4.7 10.35 4.8 10.3 4.8 8.75 4.95 7.35 5.05 7.2 5.05 3.2 5.15 3.1 5.2 2.25 5.3 -0.95 5.3 -1.25 5.2 -1.3 5.2 -1.4 5.15 -5.75 5.05 -6.55 4.95 -7.5 4.8 -9.75 4.7 -10.3 4.55 -10.4 4.45 -10.5 4.35 -10.55 4.25 -10.6 4.15 -10.6 4.05 -10.65 3.95 -10.65 3.85 -10.65 3.8 -10.65 3.7 -10.6 3.6 -10.55 3.5 -10.55 3.4 -10.45 3.3 -10.4 3.2 -10.25 3.15 -10.15 3.05 -10.05 3.05 -9.95 3.0 -9.75 3.0 -9.75 2.95 -7.35 3.05 -6.3 3.15 -5.5 3.3 -1.35 3.4 -0.5 3.55 2.1 3.55 2.3 3.5 2.8 3.45 6.75 3.3 6.95 3.25 8.45 3.2 8.55 3.15 10.15 3.2 10.5 3.3 10.6 3.4 10.7 3.5 10.75 3.6 10.8 3.7 10.85 3.8" fill="#000000" fill-rule="evenodd" stroke="none"/>
  </g>
</svg>
