<?xml version="1.0" encoding="UTF-8" standalone="no"?>
<svg xmlns:ffdec="https://www.free-decompiler.com/flash" xmlns:xlink="http://www.w3.org/1999/xlink" ffdec:objectType="shape" height="12.45px" width="21.25px" xmlns="http://www.w3.org/2000/svg">
  <g transform="matrix(1.0, 0.0, 0.0, 1.0, 10.65, 8.35)">
    <path d="M-9.9 -5.9 L-9.9 -5.95 -10.0 -6.0 -10.0 -6.1 -9.9 -6.15 -6.55 -6.2 -5.5 -6.2 -4.65 -6.25 -4.45 -6.25 -0.75 -6.95 -0.55 -7.0 -0.5 -7.0 -0.05 -7.15 0.0 -7.15 0.1 -7.2 0.15 -7.25 0.3 -7.25 0.4 -7.25 0.45 -7.25 1.2 -7.55 1.45 -7.6 1.55 -7.6 1.7 -7.6 1.8 -7.6 1.85 -7.55 2.25 -7.35 2.4 -7.25 2.55 -7.25 2.6 -7.2 2.7 -7.2 2.7 -7.15 2.85 -7.15 2.95 -7.1 3.35 -6.95 4.6 -6.75 4.85 -6.75 5.7 -6.55 6.7 -6.4 6.9 -6.35 7.05 -6.4 7.2 -6.4 7.5 -6.4 9.55 -6.25 10.2 -6.15 10.25 -6.15 10.25 -6.1 10.3 -6.1 10.3 -5.85 10.25 -5.85 10.2 -5.8 10.0 -5.75 10.0 -5.9 -9.9 -5.9 M2.1 -6.9 L1.95 -6.95 1.95 -6.9 2.1 -6.9" fill="#33ccff" fill-opacity="0.49803922" fill-rule="evenodd" stroke="none"/>
    <path d="M10.0 -5.75 L10.0 4.1 -10.0 4.1 -10.0 -5.9 -9.9 -5.9 10.0 -5.9 10.0 -5.75" fill="#33ccff" fill-opacity="0.49803922" fill-rule="evenodd" stroke="none"/>
    <path d="M10.1 -5.9 Q5.2 -6.15 1.5 -7.85 -2.9 -5.85 -9.0 -5.85 L-10.15 -5.85" fill="none" stroke="#000000" stroke-linecap="round" stroke-linejoin="round" stroke-width="1.0"/>
  </g>
</svg>
