<?xml version="1.0" encoding="UTF-8" standalone="no"?>
<svg xmlns:ffdec="https://www.free-decompiler.com/flash" xmlns:xlink="http://www.w3.org/1999/xlink" ffdec:objectType="shape" height="12.45px" width="21.15px" xmlns="http://www.w3.org/2000/svg">
  <g transform="matrix(1.0, 0.0, 0.0, 1.0, 10.55, 8.35)">
    <path d="M5.8 -7.4 L5.95 -7.4 6.2 -7.35 6.35 -7.3 6.65 -7.25 6.8 -7.2 6.85 -7.15 6.9 -7.15 6.95 -7.1 7.1 -7.1 7.15 -7.1 7.2 -7.05 7.3 -7.05 7.4 -7.0 7.8 -6.9 8.0 -6.8 9.85 -6.45 10.25 -6.3 10.3 -6.25 10.3 -6.15 10.15 -6.1 10.05 -6.05 10.0 -5.7 10.0 4.1 -10.0 4.1 -10.0 -5.6 -10.05 -5.85 -10.05 -6.2 -10.05 -6.35 -10.1 -6.35 -10.2 -6.4 -10.25 -6.45 -10.25 -6.5 -10.25 -6.65 -10.2 -6.7 -10.05 -6.75 -10.0 -6.75 -10.0 -6.85 -9.95 -6.9 -9.9 -6.9 -9.75 -6.95 -9.65 -6.95 -9.5 -6.9 -9.35 -6.85 -9.25 -6.75 -7.65 -6.35 -6.15 -6.05 -1.95 -6.2 2.5 -6.7 2.6 -6.75 3.85 -6.95 3.9 -7.0 4.45 -7.15 4.55 -7.15 4.7 -7.2 4.9 -7.25 4.95 -7.3 5.1 -7.4 5.15 -7.4 5.25 -7.4 5.3 -7.4 5.4 -7.45 5.45 -7.45 5.55 -7.45 5.6 -7.45 5.7 -7.45 5.8 -7.4 M8.4 -6.4 L8.4 -6.35 8.55 -6.35 8.4 -6.4 M-9.25 -5.95 L-9.25 -5.9 -8.95 -5.9 -9.25 -5.95" fill="#33ccff" fill-opacity="0.49803922" fill-rule="evenodd" stroke="none"/>
    <path d="M10.1 -6.4 Q7.6 -6.9 5.5 -7.85 1.1 -5.85 -5.0 -5.85 L-10.05 -6.25" fill="none" stroke="#000000" stroke-linecap="round" stroke-linejoin="round" stroke-width="1.0"/>
  </g>
</svg>
