<?xml version="1.0" encoding="UTF-8" standalone="no"?>
<svg xmlns:ffdec="https://www.free-decompiler.com/flash" xmlns:xlink="http://www.w3.org/1999/xlink" ffdec:objectType="shape" height="205.95px" width="96.55px" xmlns="http://www.w3.org/2000/svg">
  <g transform="matrix(1.0, 0.0, 0.0, 1.0, 54.75, 289.1)">
    <path d="M6.1 -246.4 Q3.85 -250.8 1.2 -254.9 -1.75 -260.25 -6.95 -259.95 L-8.1 -259.5 -8.45 -259.25 -9.1 -259.95 -9.3 -258.2 -9.95 -257.4 Q-12.45 -232.4 -29.35 -213.05 -37.85 -203.35 -44.8 -192.5 -51.3 -182.45 -49.45 -170.5 -45.3 -144.2 -30.35 -121.8 L-19.25 -105.0 Q-19.9 -98.9 -13.2 -99.25 L-10.9 -99.55 -3.85 -108.45 -2.8 -109.4 Q-0.2 -111.3 2.05 -113.45 5.85 -116.95 9.0 -120.7 12.05 -124.45 15.55 -127.95 L16.5 -129.1 Q20.6 -135.15 25.4 -140.3 26.65 -141.65 26.8 -143.4 35.0 -155.4 33.45 -170.15 L32.75 -174.95 Q31.75 -180.6 32.0 -186.8 32.05 -188.6 31.7 -190.3 30.6 -195.45 30.0 -200.75 29.45 -205.3 26.6 -208.8 23.0 -213.35 20.65 -218.6 17.6 -225.35 13.9 -231.85 9.8 -239.15 6.1 -246.4 M34.55 -209.5 L34.05 -209.0 33.55 -208.35 33.35 -206.95 33.35 -206.25 33.4 -205.55 33.55 -204.85 33.85 -204.2 34.5 -202.8 34.9 -202.05 35.2 -201.4 35.2 -200.7 35.25 -200.0 35.4 -199.3 35.7 -198.6 36.35 -197.25 36.75 -196.5 37.05 -195.85 37.05 -195.15 37.1 -194.45 37.25 -193.75 37.55 -193.05 38.2 -191.7 38.65 -190.95 39.1 -190.25 39.35 -189.6 39.6 -188.9 39.8 -188.2 39.8 -187.5 39.85 -186.8 40.1 -186.15 40.5 -185.4 Q40.9 -184.05 40.8 -182.65 L40.65 -179.15 Q40.6 -178.0 41.45 -177.1 41.8 -175.4 41.8 -173.6 L41.5 -165.3 41.5 -163.15 41.45 -162.95 41.2 -162.25 40.95 -161.55 40.75 -160.85 40.75 -160.2 40.75 -159.5 40.3 -158.75 40.05 -158.1 39.8 -157.4 39.8 -156.7 39.8 -156.0 39.8 -155.3 39.6 -154.65 38.9 -152.55 38.4 -151.15 38.2 -150.45 37.75 -149.75 37.0 -148.4 36.6 -147.65 36.35 -147.0 36.15 -146.3 36.0 -145.65 35.65 -144.9 34.25 -143.5 33.55 -142.8 32.85 -142.15 32.65 -141.45 32.4 -140.75 26.75 -135.3 21.75 -131.0 21.5 -130.3 21.3 -129.65 19.8 -128.35 17.65 -126.8 16.9 -126.15 15.55 -125.4 14.6 -124.75 13.9 -124.05 13.45 -123.35 13.15 -122.7 12.75 -122.0 12.05 -121.3 11.35 -120.6 9.1 -119.1 7.65 -117.8 6.95 -117.15 6.7 -116.45 6.5 -115.75 5.1 -114.35 4.4 -113.65 3.7 -112.95 3.3 -112.25 2.95 -111.6 2.55 -110.9 1.85 -110.2 1.15 -109.5 0.45 -108.8 0.2 -108.1 -0.75 -106.05 -1.55 -104.6 -1.85 -103.95 -1.85 -102.55 -1.8 -101.15 -1.6 -100.45 -1.4 -99.75 -0.9 -99.1 -3.4 -96.5 -10.55 -88.45 Q-10.3 -86.7 -11.4 -85.3 -12.4 -84.0 -13.85 -83.5 L-14.9 -83.15 -15.75 -83.35 Q-14.05 -86.8 -16.1 -90.2 L-20.3 -97.95 Q-20.85 -99.0 -21.55 -99.75 -31.5 -111.15 -39.25 -124.2 L-40.0 -125.8 Q-47.1 -143.15 -52.6 -161.2 -53.55 -164.2 -54.15 -167.25 -55.3 -173.35 -54.15 -179.4 -52.9 -185.85 -49.55 -191.0 -45.65 -196.95 -42.2 -202.9 -37.05 -211.75 -32.15 -220.9 L-28.8 -226.5 Q-20.15 -239.6 -16.85 -254.95 -14.3 -266.9 -16.3 -279.0 -17.15 -284.25 -18.5 -289.1 L-15.0 -287.0 Q-13.25 -287.95 -11.2 -287.35 -9.05 -286.75 -7.85 -284.85 -4.15 -279.2 -1.35 -272.8 1.0 -267.5 3.5 -262.35 11.55 -245.5 22.05 -229.85 29.55 -220.1 34.55 -209.5" fill="#000000" fill-rule="evenodd" stroke="none"/>
  </g>
</svg>
