<?xml version="1.0" encoding="UTF-8" standalone="no"?>
<svg xmlns:ffdec="https://www.free-decompiler.com/flash" xmlns:xlink="http://www.w3.org/1999/xlink" ffdec:objectType="shape" height="263.55px" width="177.6px" xmlns="http://www.w3.org/2000/svg">
  <g transform="matrix(1.0, 0.0, 0.0, 1.0, 79.2, 280.5)">
    <path d="M13.9 -201.8 Q22.05 -191.2 25.2 -184.2 L28.05 -175.8 Q31.45 -172.95 33.85 -167.35 36.95 -160.0 36.95 -154.0 36.95 -133.05 22.5 -115.7 7.4 -97.7 -12.55 -97.65 -14.5 -95.15 -16.55 -95.15 -20.8 -95.15 -22.2 -97.75 -22.85 -99.0 -22.75 -100.55 -22.75 -103.15 -21.0 -111.25 L-19.5 -119.0 -20.2 -119.9 Q-20.9 -121.25 -20.7 -122.05 -20.7 -123.55 -20.05 -124.55 L-20.55 -127.75 -21.7 -136.65 Q-21.7 -146.8 -19.95 -152.85 -18.2 -158.95 -18.2 -173.2 -18.2 -176.35 -18.55 -179.85 -21.1 -183.85 -23.3 -190.55 L-27.4 -204.5 Q-29.65 -212.85 -31.1 -216.2 -32.95 -220.5 -41.05 -236.2 -48.15 -251.3 -48.15 -258.2 -48.15 -258.8 -47.55 -259.85 -52.1 -270.25 -52.1 -273.25 -52.1 -275.95 -50.0 -278.1 -47.9 -280.15 -45.0 -280.45 -37.75 -281.15 -35.5 -270.65 -29.15 -257.9 -26.55 -251.1 L-26.35 -250.65 Q-20.7 -245.1 -13.15 -235.5 L-4.9 -224.45 -2.0 -221.6 Q5.4 -214.2 10.85 -205.8 12.9 -203.95 13.9 -201.8 M-10.55 -210.55 L-11.0 -211.5 -11.5 -211.0 -10.55 -210.55" fill="#00b3ff" fill-rule="evenodd" stroke="none"/>
    <path d="M21.35 -151.75 Q24.2 -151.75 25.65 -148.65 26.6 -146.7 26.6 -145.3 26.6 -139.95 19.4 -132.2 12.8 -125.15 10.3 -125.15 7.55 -125.15 0.7 -128.75 L-5.7 -132.35 -9.0 -131.3 -12.9 -130.3 Q-16.9 -130.3 -18.05 -134.85 -18.65 -137.1 -18.45 -139.55 -18.45 -154.3 -6.95 -155.5 -2.35 -156.0 2.7 -153.95 7.6 -151.95 10.85 -148.5 14.0 -150.05 17.1 -150.95 L21.35 -151.75 M72.55 -78.45 L71.05 -74.55 Q69.55 -71.2 69.55 -70.75 69.55 -66.4 58.45 -60.7 52.15 -57.45 50.8 -56.6 47.3 -54.4 47.3 -52.65 47.3 -50.3 48.8 -48.65 50.3 -47.05 50.3 -46.0 50.3 -45.2 48.8 -42.95 47.3 -40.65 47.3 -39.8 47.3 -38.0 43.45 -32.9 39.3 -27.35 36.55 -27.35 27.95 -27.35 22.9 -31.2 19.2 -34.0 19.2 -36.25 19.2 -37.6 22.15 -41.6 L25.1 -46.0 Q25.1 -47.1 25.6 -48.2 26.4 -49.8 27.9 -50.15 25.8 -51.1 25.8 -53.65 25.8 -55.95 27.15 -57.35 22.85 -60.35 22.85 -63.75 22.85 -65.65 23.9 -66.55 25.3 -67.8 29.25 -68.3 L28.95 -68.7 28.85 -70.3 Q28.85 -72.0 29.7 -73.1 30.9 -74.7 33.65 -74.7 34.7 -74.7 36.8 -73.95 L39.55 -73.1 Q37.55 -77.45 42.65 -81.2 46.85 -84.35 49.95 -84.35 51.7 -84.35 54.25 -82.75 57.15 -80.85 57.75 -80.7 59.7 -89.15 66.3 -85.75 68.7 -84.5 70.65 -82.15 72.55 -79.85 72.55 -78.45 M89.5 -16.95 Q85.05 -16.95 81.3 -21.85 L78.45 -26.25 Q78.45 -31.3 81.55 -33.55 84.35 -35.55 88.45 -34.7 92.45 -33.8 95.3 -30.65 98.4 -27.2 98.4 -22.5 98.4 -16.95 89.5 -16.95 M-16.95 -226.55 Q-14.25 -226.55 -11.25 -221.5 -8.8 -217.35 -8.8 -216.25 -8.8 -215.05 -14.85 -208.5 -20.7 -202.1 -21.05 -202.1 -26.9 -202.1 -31.0 -210.2 -33.1 -214.25 -34.0 -218.5 -34.0 -223.85 -29.25 -224.95 -28.4 -225.15 -20.7 -225.15 -19.75 -225.15 -18.8 -225.85 -17.85 -226.55 -16.95 -226.55 M-69.65 -83.95 Q-65.9 -86.15 -63.65 -83.5 -60.9 -80.25 -60.9 -70.3 -60.9 -69.8 -54.85 -62.95 -48.8 -56.15 -48.8 -54.9 -48.8 -52.75 -52.2 -46.2 -55.85 -39.15 -58.1 -39.15 -61.5 -39.15 -62.55 -41.5 -63.05 -42.65 -62.9 -44.05 -62.9 -45.0 -62.1 -46.35 -61.1 -47.95 -60.9 -48.8 L-62.45 -49.45 Q-63.85 -50.15 -64.95 -50.15 L-66.6 -49.1 Q-68.2 -48.05 -68.8 -48.05 -73.7 -48.05 -76.95 -54.5 -78.55 -57.75 -79.2 -61.0 L-78.8 -65.35 Q-78.45 -68.1 -78.45 -70.65 -78.45 -73.4 -75.7 -77.65 -72.9 -82.05 -69.65 -83.95" fill="#8adcff" fill-rule="evenodd" stroke="none"/>
  </g>
</svg>
