<?xml version="1.0" encoding="UTF-8" standalone="no"?>
<svg xmlns:ffdec="https://www.free-decompiler.com/flash" xmlns:xlink="http://www.w3.org/1999/xlink" ffdec:objectType="shape" height="268.95px" width="162.05px" xmlns="http://www.w3.org/2000/svg">
  <g transform="matrix(1.0, 0.0, 0.0, 1.0, 69.55, 288.15)">
    <path d="M30.9 -179.55 Q39.0 -167.35 39.0 -164.35 39.0 -152.75 36.25 -147.75 29.35 -135.1 25.75 -125.35 23.5 -119.15 6.4 -103.7 -10.35 -88.7 -13.6 -88.7 -17.8 -88.7 -19.1 -91.05 -19.8 -92.2 -19.65 -93.65 L-18.3 -95.75 Q-20.4 -98.3 -21.7 -102.9 -22.75 -106.6 -23.75 -117.45 -24.25 -122.25 -28.7 -129.3 -33.65 -136.9 -34.65 -141.7 -35.05 -143.6 -42.1 -163.8 -48.75 -183.75 -49.05 -190.35 -52.65 -192.5 -54.65 -199.1 L-55.2 -198.95 Q-59.85 -198.95 -61.05 -202.15 -61.6 -203.75 -61.25 -205.55 -61.25 -216.3 -53.3 -233.5 -46.35 -248.55 -35.9 -263.35 -25.8 -277.65 -18.5 -283.35 L-17.05 -284.3 -16.65 -284.85 Q-13.4 -288.55 -11.0 -288.1 -8.5 -287.6 -8.5 -282.3 -8.5 -281.1 -10.55 -274.45 -12.6 -267.85 -12.6 -260.8 -12.6 -249.9 -0.4 -228.0 4.25 -226.4 10.1 -210.75 L13.25 -205.85 30.9 -179.55 M-18.6 -151.35 L-19.95 -151.85 -18.7 -149.05 -18.6 -151.35" fill="#00b3ff" fill-rule="evenodd" stroke="none"/>
    <path d="M3.35 -201.85 Q5.05 -202.85 5.8 -202.85 9.25 -202.85 10.1 -199.8 L10.3 -196.5 Q10.3 -193.2 6.35 -189.2 2.35 -185.15 -1.1 -185.15 -4.75 -185.15 -9.75 -188.25 -14.9 -191.5 -16.0 -194.7 -16.75 -192.4 -18.05 -191.0 -20.5 -188.4 -25.1 -189.9 -25.1 -187.95 -25.85 -183.1 L-26.6 -177.55 Q-26.6 -175.55 -27.7 -174.15 -29.05 -172.55 -31.4 -172.55 -36.65 -172.55 -39.9 -181.2 -41.55 -185.55 -42.15 -190.2 -42.15 -193.1 -39.75 -195.75 -37.25 -198.5 -37.0 -204.75 -36.95 -206.55 -34.1 -208.15 -31.15 -209.75 -31.0 -210.8 -30.45 -213.95 -28.6 -214.9 -27.45 -215.5 -24.45 -215.5 -17.8 -215.5 -14.9 -213.2 -13.2 -211.9 -11.85 -208.2 -10.5 -204.6 -8.6 -203.2 -5.55 -200.9 1.5 -200.9 1.6 -200.9 3.35 -201.85 M16.0 -119.45 Q14.0 -116.25 11.8 -116.25 3.05 -116.25 2.65 -123.05 2.4 -126.45 4.0 -130.1 L2.7 -130.65 Q1.35 -126.35 -2.35 -121.8 -8.6 -114.05 -16.95 -114.05 -19.25 -114.05 -22.75 -120.45 -25.85 -126.1 -25.85 -127.2 -25.85 -128.15 -25.05 -129.75 -24.2 -131.4 -24.15 -132.15 -24.1 -133.0 -24.6 -134.45 L-25.1 -136.85 Q-25.1 -138.75 -24.1 -139.95 -22.85 -141.45 -20.3 -141.45 -19.35 -141.45 -18.25 -140.5 -17.1 -139.55 -16.2 -139.55 -16.05 -139.55 -14.35 -140.85 -12.5 -142.2 -11.4 -142.2 -8.95 -142.2 -7.75 -140.7 L-6.65 -138.8 Q-5.6 -139.3 -2.6 -142.35 0.8 -145.8 2.65 -147.1 9.55 -152.05 12.9 -143.3 16.85 -133.8 17.2 -132.35 17.7 -130.45 17.7 -123.55 17.7 -122.1 16.0 -119.45 M68.6 -58.85 Q72.3 -60.25 77.1 -55.35 79.5 -52.9 81.35 -50.15 82.3 -50.15 83.25 -50.95 84.2 -51.8 85.1 -51.8 89.45 -51.8 91.4 -48.55 92.4 -46.9 92.5 -45.05 92.5 -44.1 91.75 -42.4 91.0 -40.65 91.0 -39.75 91.0 -38.4 90.25 -37.0 89.05 -34.75 86.6 -34.75 85.5 -34.75 84.05 -35.5 L82.55 -36.25 Q83.3 -31.8 78.8 -25.35 74.5 -19.2 71.8 -19.2 67.45 -19.2 61.4 -25.4 56.25 -30.7 56.25 -31.75 56.25 -32.35 58.25 -36.05 60.5 -40.15 61.75 -40.85 60.0 -46.1 60.0 -48.45 60.0 -52.8 60.55 -53.75 62.0 -56.45 68.6 -58.85 M48.05 -88.85 Q45.4 -85.6 41.85 -82.1 34.8 -75.1 30.25 -73.65 34.45 -69.1 37.5 -61.95 39.9 -56.25 39.9 -54.15 39.9 -50.45 37.1 -49.2 34.5 -48.05 27.0 -48.05 25.3 -48.05 23.9 -45.5 L21.3 -39.9 Q17.6 -31.75 11.8 -31.75 9.6 -31.75 3.45 -39.65 -2.25 -47.05 -2.25 -47.8 -2.25 -50.55 5.75 -57.25 14.05 -64.15 18.05 -63.8 L17.8 -64.3 17.7 -65.9 Q17.7 -66.4 18.45 -67.55 L20.3 -70.3 Q17.3 -72.8 14.95 -76.45 12.55 -80.15 12.55 -82.3 12.55 -84.15 13.65 -85.35 15.5 -87.35 19.95 -86.6 20.0 -87.55 20.85 -89.1 L23.8 -94.2 Q27.15 -99.85 29.95 -97.2 L32.2 -94.55 Q33.6 -93.05 34.75 -93.05 35.7 -93.05 37.35 -93.9 39.0 -94.75 39.9 -94.75 44.85 -94.75 46.95 -91.9 L48.05 -88.85 M-12.2 -254.95 Q-14.15 -251.05 -18.45 -251.05 -21.75 -251.05 -22.6 -253.35 -23.05 -254.5 -22.85 -255.8 -22.85 -261.15 -21.0 -264.25 -19.4 -267.0 -16.95 -267.25 -14.6 -267.55 -12.9 -265.55 -11.05 -263.45 -11.05 -259.95 -11.05 -257.35 -12.2 -254.95 M-33.85 -64.0 L-33.25 -61.3 Q-33.25 -58.55 -35.55 -54.1 -39.0 -47.3 -45.15 -47.3 L-47.2 -47.6 Q-51.95 -45.9 -55.1 -45.9 -57.9 -45.9 -59.1 -47.65 -59.65 -48.4 -60.0 -50.15 L-60.85 -50.0 -62.9 -49.55 Q-64.8 -49.55 -67.35 -54.1 -69.55 -58.0 -69.55 -58.85 L-68.8 -70.75 Q-68.8 -74.4 -66.15 -78.65 -63.7 -82.5 -60.3 -85.05 -57.3 -87.3 -55.15 -87.35 L-54.7 -87.6 Q-49.45 -90.5 -45.55 -90.15 -41.4 -89.75 -41.4 -85.75 -41.4 -84.2 -45.15 -79.85 -48.7 -75.75 -50.3 -75.0 -47.25 -73.15 -43.45 -69.05 -41.2 -66.65 -37.75 -66.65 -35.0 -66.65 -33.85 -64.0" fill="#8adcff" fill-rule="evenodd" stroke="none"/>
  </g>
</svg>
