<?xml version="1.0" encoding="UTF-8" standalone="no"?>
<svg xmlns:ffdec="https://www.free-decompiler.com/flash" xmlns:xlink="http://www.w3.org/1999/xlink" ffdec:objectType="shape" height="95.35px" width="153.0px" xmlns="http://www.w3.org/2000/svg">
  <g transform="matrix(1.0, 0.0, 0.0, 1.0, 68.0, 121.35)">
    <path d="M15.15 -118.15 L23.05 -121.0 25.15 -121.35 25.25 -120.85 25.45 -120.15 25.95 -119.45 26.6 -118.75 27.3 -118.05 27.7 -117.35 28.05 -116.7 28.45 -115.95 29.1 -115.25 29.6 -114.55 29.7 -113.9 29.85 -113.2 30.15 -112.5 30.55 -111.8 30.55 -111.1 30.55 -110.4 30.75 -109.85 Q28.7 -107.55 23.55 -105.05 15.25 -101.0 8.5 -101.0 -1.75 -101.0 -5.2 -104.25 -7.0 -105.95 -7.0 -109.5 -7.0 -115.35 -2.95 -116.25 L1.75 -116.45 8.0 -116.25 Q10.35 -116.25 15.15 -118.15 M74.05 -76.1 L74.8 -75.25 77.5 -72.5 Q78.0 -70.25 78.0 -66.6 L77.7 -63.15 81.7 -56.65 Q85.0 -50.95 85.0 -50.1 85.0 -44.95 75.95 -35.5 66.85 -26.0 61.5 -26.0 51.3 -26.0 46.0 -29.8 42.0 -32.65 42.0 -36.1 42.0 -37.15 44.65 -40.4 47.45 -43.75 51.05 -47.0 54.9 -50.4 58.0 -52.15 58.05 -54.7 61.15 -60.75 L64.0 -65.8 Q64.05 -76.45 69.3 -72.9 72.05 -75.85 74.05 -76.1 M25.0 -80.0 L26.3 -76.15 Q27.0 -73.7 27.0 -72.1 27.0 -69.8 14.8 -57.75 2.9 -46.0 2.0 -46.0 -3.05 -46.0 -6.5 -52.75 -9.0 -57.65 -9.0 -60.25 -9.0 -64.6 -6.2 -67.15 -5.05 -68.15 0.0 -70.9 4.25 -73.15 6.2 -75.85 9.0 -79.8 9.0 -86.5 9.0 -89.95 12.45 -92.15 15.55 -94.15 20.0 -94.35 24.5 -94.6 27.55 -92.85 31.0 -90.85 31.0 -87.25 31.0 -85.15 30.2 -83.55 28.75 -80.65 25.0 -80.0 M-42.0 -117.05 Q-37.5 -114.85 -33.75 -111.05 -30.0 -107.25 -30.0 -105.0 -30.0 -101.05 -33.55 -98.95 -36.9 -97.0 -43.0 -97.0 -48.85 -97.0 -52.0 -103.75 -53.6 -107.1 -54.0 -110.5 -54.0 -117.05 -50.25 -118.45 -47.1 -119.6 -42.0 -117.05 M-39.0 -52.3 Q-41.35 -50.0 -45.5 -50.0 -52.6 -50.0 -61.0 -62.05 -65.2 -68.1 -68.0 -74.35 -68.0 -84.65 -63.15 -85.55 -59.1 -86.35 -52.5 -80.55 -46.65 -75.4 -41.85 -68.05 -37.0 -60.6 -37.0 -56.75 -37.0 -54.2 -39.0 -52.3" fill="#8adcff" fill-rule="evenodd" stroke="none"/>
  </g>
</svg>
