<?xml version="1.0" encoding="UTF-8" standalone="no"?>
<svg xmlns:ffdec="https://www.free-decompiler.com/flash" xmlns:xlink="http://www.w3.org/1999/xlink" ffdec:objectType="shape" height="68.7px" width="69.0px" xmlns="http://www.w3.org/2000/svg">
  <g transform="matrix(1.0, 0.0, 0.0, 1.0, 34.5, 33.95)">
    <path d="M23.0 -28.0 L23.1 -27.9 23.2 -27.8 23.3 -27.7 23.45 -27.6 23.55 -27.5 23.7 -27.4 23.85 -27.3 24.0 -27.25 24.15 -27.15 24.25 -27.05 24.35 -26.95 24.55 -26.85 24.7 -26.75 24.8 -26.65 24.9 -26.55 24.95 -26.5 25.15 -26.45 25.3 -26.35 25.45 -26.25 25.55 -26.15 25.65 -26.05 25.75 -26.0 25.85 -25.9 26.0 -25.8 26.1 -25.7 26.2 -25.6 26.25 -25.5 26.35 -25.4 26.4 -25.3 26.5 -25.25 26.65 -25.15 26.75 -25.05 26.85 -24.95 26.95 -24.85 27.05 -24.75 27.15 -24.65 27.25 -24.55 27.35 -24.5 27.45 -24.4 27.5 -24.3 27.6 -24.2 27.7 -24.1 27.8 -24.0 27.9 -23.9 28.0 -23.8 28.1 -23.75 28.2 -23.65 28.25 -23.55 28.35 -23.45 28.55 -23.35 28.7 -23.25 28.8 -23.15 28.9 -23.05 28.95 -23.0 29.0 -22.9 29.05 -22.8 29.1 -22.7 29.2 -22.6 29.3 -22.5 29.4 -22.4 29.45 -22.3 29.5 -22.25 29.6 -22.15 29.65 -22.05 29.7 -21.95 29.75 -21.85 29.8 -21.75 29.9 -21.65 29.95 -21.55 30.0 -21.5 30.0 -21.4 30.05 -21.3 30.1 -21.2 30.1 -21.1 30.1 -21.0 30.1 -20.9 30.1 -20.8 30.1 -20.75 30.05 -20.65 30.1 -20.6 30.1 -20.5 30.1 -20.4 30.15 -20.3 30.2 -20.25 30.25 -20.15 30.25 -20.05 30.3 -19.95 30.35 -19.85 30.4 -19.75 30.4 -19.65 30.45 -19.55 30.5 -19.5 30.5 -19.4 30.55 -19.3 30.6 -19.2 30.7 -19.1 30.75 -19.0 30.75 -18.9 30.8 -18.8 30.85 -18.75 30.85 -18.65 30.85 -18.55 30.9 -18.45 30.95 -18.35 30.95 -18.25 31.0 -18.15 31.05 -18.05 31.1 -18.0 31.1 -17.9 31.15 -17.8 31.2 -17.7 31.2 -17.6 31.25 -17.5 31.25 -17.4 31.3 -17.3 31.35 -17.25 31.4 -17.15 31.45 -17.05 31.5 -16.95 31.55 -16.85 31.55 -16.75 31.6 -16.65 31.6 -16.55 31.6 -16.5 31.6 -16.4 31.6 -16.3 31.65 -16.2 31.7 -16.1 31.75 -16.0 31.75 -15.9 31.8 -15.8 31.85 -15.75 31.85 -15.65 31.85 -15.55 31.9 -15.45 31.95 -15.35 32.0 -15.25 32.0 -15.15 32.05 -15.05 32.1 -15.0 32.1 -14.9 32.1 -14.8 32.1 -14.7 32.05 -14.6 32.05 -14.55 32.1 -14.5 32.1 -14.4 32.15 -14.3 32.2 -14.2 32.2 -14.1 32.2 -14.0 32.2 -13.9 32.15 -13.8 32.1 -13.75 32.1 -13.65 32.05 -13.55 32.0 -13.45 31.95 -13.35 31.85 -13.25 31.75 -13.15 31.7 -13.05 31.6 -13.0 31.5 -12.9 31.45 -12.85 31.45 -12.8 31.5 -12.7 31.55 -12.6 31.55 -12.5 31.6 -12.4 31.6 -12.3 31.6 -12.25 31.6 -12.15 31.6 -12.05 31.6 -11.95 31.7 -11.85 31.75 -11.75 31.75 -11.65 31.8 -11.55 31.85 -11.5 31.85 -11.4 31.85 -11.3 31.85 -11.2 31.85 -11.1 31.9 -11.0 31.9 -10.9 31.95 -10.8 31.95 -10.75 31.95 -10.65 31.95 -10.55 32.0 -10.45 32.05 -10.35 32.1 -10.25 32.1 -10.15 32.15 -10.05 32.2 -10.0 32.2 -9.9 32.2 -9.8 32.2 -9.7 32.2 -9.6 32.2 -9.5 32.2 -9.4 32.25 -9.3 32.3 -9.25 32.35 -9.15 32.35 -9.05 32.4 -8.95 32.45 -8.85 32.45 -8.75 32.5 -8.65 32.55 -8.55 32.6 -8.5 32.6 -8.4 32.6 -8.3 32.65 -8.2 32.7 -8.1 32.75 -8.0 32.8 -7.9 32.85 -7.8 32.9 -7.75 32.95 -7.65 32.95 -7.55 32.95 -7.45 33.0 -7.35 33.0 -7.25 33.0 -7.15 33.05 -7.05 33.1 -7.0 33.1 -6.9 33.1 -6.8 33.15 -6.7 33.2 -6.6 33.2 -6.5 33.25 -6.4 33.3 -6.3 33.35 -6.25 33.35 -6.15 33.35 -6.05 33.4 -5.95 33.4 -5.85 33.4 -5.75 33.45 -5.65 33.45 -5.55 33.5 -5.5 33.5 -5.4 33.5 -5.3 33.55 -5.2 33.6 -5.1 33.6 -5.0 33.65 -4.9 33.65 -4.8 33.65 -4.75 33.7 -4.65 33.75 -4.55 33.8 -4.45 33.85 -4.35 33.85 -4.25 33.9 -4.15 33.9 -4.05 33.9 -4.0 33.9 -3.9 33.9 -3.8 33.95 -3.7 33.95 -3.6 34.0 -3.5 34.0 -3.4 34.05 -3.3 34.1 -3.25 34.1 -3.15 34.15 -3.05 34.2 -2.95 34.2 -2.85 34.25 -2.75 34.25 -2.65 34.25 -2.55 34.25 -2.5 34.25 -2.4 34.3 -2.3 34.35 -2.2 34.35 -2.1 34.4 -2.0 34.4 -1.9 34.4 -1.8 34.4 -1.75 34.4 -1.65 34.4 -1.55 34.4 -1.45 34.4 -1.35 34.4 -1.25 34.4 -1.15 34.45 -1.05 34.45 -1.0 34.5 -0.9 34.5 -0.8 34.5 -0.7 34.5 -0.6 34.5 -0.5 34.5 -0.4 34.5 -0.3 34.5 -0.25 34.5 -0.15 34.5 -0.05 34.5 0.05 34.5 0.15 34.5 0.25 34.5 0.35 34.5 0.45 34.5 0.5 34.5 0.6 34.5 0.7 34.5 0.8 34.5 0.9 34.5 1.0 34.5 1.1 34.5 1.2 34.5 1.25 34.5 1.35 34.5 1.45 34.5 1.55 34.5 1.65 34.5 1.75 34.5 1.85 34.5 1.95 34.5 2.0 34.5 2.1 34.5 2.2 34.5 2.3 34.5 2.4 34.5 2.5 34.5 2.6 34.5 2.7 34.5 2.75 34.5 2.85 34.5 2.95 34.5 3.05 34.5 3.15 34.5 3.25 34.5 3.35 34.5 3.45 34.5 3.5 34.5 3.6 34.5 3.7 34.5 3.8 34.5 3.9 34.5 4.0 34.5 4.1 34.5 4.2 34.5 4.25 34.5 4.35 34.5 4.45 34.5 4.55 34.5 4.65 34.5 4.75 34.5 4.85 34.5 4.95 34.5 5.0 34.45 5.1 34.45 5.2 34.4 5.3 34.4 5.4 34.4 5.5 34.4 5.6 34.4 5.7 34.4 5.75 34.35 5.85 34.35 5.95 34.3 6.05 34.25 6.15 34.25 6.25 34.2 6.35 34.15 6.45 34.15 6.5 34.15 6.6 34.15 6.7 34.15 6.8 34.15 6.9 34.15 7.0 34.1 7.1 34.1 7.2 34.1 7.25 34.05 7.35 34.0 7.45 34.0 7.55 34.0 7.65 34.0 7.75 33.95 7.85 33.95 7.95 33.95 8.0 33.9 8.1 33.85 8.2 33.8 8.3 33.75 8.4 33.75 8.5 33.75 8.6 33.75 8.7 33.75 8.75 33.75 8.85 33.7 8.95 33.7 9.05 33.65 9.15 33.65 9.25 33.6 9.35 33.6 9.45 33.6 9.5 33.55 9.6 33.5 9.7 33.45 9.8 33.4 9.9 33.35 10.0 33.35 10.1 33.3 10.2 33.25 10.25 33.2 10.35 33.2 10.45 33.15 10.55 33.1 10.65 33.1 10.75 33.05 10.85 33.0 10.95 32.95 11.0 32.9 11.1 32.85 11.2 32.8 11.3 32.75 11.4 32.75 11.5 32.7 11.6 32.6 11.7 32.55 11.75 32.5 11.85 32.45 11.95 32.35 12.05 32.3 12.15 32.25 12.25 32.25 12.35 32.2 12.45 32.1 12.5 32.1 12.6 32.05 12.7 32.0 12.8 31.95 12.9 31.9 13.0 31.85 13.05 31.8 13.1 31.8 13.15 31.75 13.25 31.75 13.35 31.7 13.45 31.6 13.5 31.6 13.6 31.55 13.7 31.5 13.8 31.45 13.9 31.45 14.0 31.4 14.1 31.35 14.2 31.3 14.25 31.25 14.35 31.2 14.45 31.15 14.55 31.1 14.65 31.1 14.75 31.05 14.85 31.0 14.95 30.95 15.0 30.9 15.1 30.85 15.2 30.8 15.3 30.75 15.4 30.65 15.5 30.6 15.6 30.55 15.7 30.5 15.75 30.5 15.85 30.5 15.95 30.6 16.05 30.7 16.15 30.8 16.25 30.9 16.35 30.95 16.45 31.0 16.5 31.1 16.6 31.15 16.7 31.2 16.8 31.25 16.9 31.35 17.0 31.4 17.1 31.45 17.2 31.5 17.25 31.5 17.35 31.55 17.45 31.6 17.55 31.65 17.65 31.65 17.75 31.7 17.85 31.7 17.95 31.7 18.0 31.7 18.1 31.7 18.2 31.7 18.3 31.7 18.4 31.7 18.5 31.7 18.6 31.7 18.7 31.7 18.75 31.7 18.85 31.7 18.95 31.7 19.05 31.7 19.15 31.7 19.25 31.65 19.35 31.6 19.45 31.6 19.5 31.6 19.6 31.55 19.7 31.5 19.8 31.5 19.9 31.45 20.0 31.35 20.1 31.25 20.2 31.25 20.25 31.2 20.35 31.15 20.45 31.1 20.55 31.0 20.65 30.95 20.75 30.85 20.85 30.75 20.95 30.7 21.0 30.6 21.1 30.55 21.2 30.5 21.3 30.45 21.4 30.35 21.5 30.25 21.6 30.2 21.7 30.15 21.75 30.1 21.85 30.0 21.95 29.85 22.05 29.75 22.15 29.7 22.25 29.6 22.35 29.5 22.45 29.4 22.5 29.3 22.6 29.25 22.7 29.15 22.8 29.05 22.9 28.95 23.0 28.8 23.1 28.7 23.2 28.6 23.25 28.5 23.35 28.4 23.45 28.35 23.55 28.25 23.65 28.2 23.75 28.1 23.85 28.0 23.95 27.95 24.0 27.85 24.1 27.75 24.2 27.65 24.3 27.6 24.4 27.5 24.5 27.45 24.6 27.4 24.7 27.35 24.75 27.25 24.85 27.15 24.95 27.05 25.05 26.95 25.15 26.8 25.25 26.6 25.35 26.5 25.45 26.45 25.5 26.35 25.6 26.25 25.7 26.15 25.8 26.05 25.9 25.95 26.0 25.85 26.1 25.75 26.2 25.7 26.25 25.6 26.35 25.5 26.45 25.4 26.55 25.3 26.65 25.2 26.75 25.1 26.85 25.0 26.95 24.95 27.0 24.85 27.1 24.75 27.2 24.75 27.3 24.7 27.4 24.6 27.5 24.5 27.6 24.45 27.7 24.35 27.75 24.25 27.85 24.15 27.95 24.1 28.05 24.0 28.15 23.95 28.25 23.85 28.35 23.75 28.45 23.7 28.5 23.6 28.6 23.5 28.7 23.4 28.8 23.3 28.9 23.2 29.0 23.1 29.1 23.05 29.2 23.0 29.25 22.95 29.35 22.85 29.45 22.7 29.55 22.55 29.65 22.45 29.75 22.35 29.85 22.25 29.95 22.1 30.0 22.0 30.1 21.85 30.2 21.65 30.3 21.5 30.4 21.4 30.5 21.2 30.6 21.1 30.7 21.0 30.75 20.85 30.85 20.7 30.95 20.6 31.0 20.45 31.05 20.3 31.1 20.25 31.1 20.0 31.2 19.9 31.25 19.8 31.35 19.75 31.35 19.5 31.45 19.45 31.5 19.35 31.6 19.2 31.7 19.1 31.75 18.95 31.8 18.75 31.85 18.55 31.8 18.5 31.8 18.35 31.8 18.15 31.85 18.1 31.85 17.95 31.9 17.75 31.95 16.15 31.95 15.95 31.9 15.8 31.85 15.75 31.85 15.55 31.8 15.35 31.75 15.2 31.65 15.0 31.55 14.9 31.45 14.8 31.35 14.7 31.25 14.6 31.2 14.55 31.1 14.5 31.0 14.35 31.1 14.15 31.15 14.0 31.25 13.8 31.35 13.7 31.45 13.5 31.5 13.25 31.6 13.15 31.7 13.0 31.75 12.95 31.8 12.75 31.85 12.65 31.95 12.5 32.05 12.4 32.15 12.25 32.25 12.1 32.3 11.95 32.35 11.65 32.45 11.5 32.5 11.45 32.55 11.25 32.6 11.05 32.7 10.95 32.75 10.85 32.8 10.7 32.85 10.55 32.95 10.45 33.0 10.35 33.05 10.25 33.1 10.0 33.15 9.85 33.25 9.7 33.3 9.5 33.35 9.3 33.45 9.2 33.5 9.1 33.55 9.0 33.6 8.85 33.6 8.65 33.65 8.4 33.7 8.25 33.75 8.2 33.8 8.1 33.85 7.95 33.85 7.75 33.9 7.35 33.95 7.1 34.0 6.95 34.05 6.85 34.1 6.7 34.1 6.6 34.15 6.5 34.2 6.25 34.25 6.1 34.3 6.0 34.35 5.85 34.35 5.65 34.4 3.5 34.45 3.35 34.45 3.15 34.5 1.75 34.5 1.7 34.55 1.6 34.6 1.45 34.6 1.25 34.65 0.75 34.7 0.6 34.7 0.4 34.75 -4.5 34.75 -4.7 34.7 -4.85 34.7 -5.35 34.65 -5.55 34.6 -5.7 34.6 -5.9 34.5 -6.05 34.45 -6.2 34.45 -6.75 34.4 -6.95 34.35 -7.1 34.35 -7.3 34.25 -7.55 34.2 -7.7 34.2 -7.85 34.15 -8.05 34.1 -8.2 34.1 -8.4 34.0 -8.55 33.95 -8.7 33.85 -8.85 33.85 -9.05 33.75 -9.25 33.7 -9.4 33.6 -9.45 33.6 -9.65 33.5 -9.75 33.45 -9.85 33.45 -10.05 33.35 -10.3 33.25 -10.55 33.2 -10.7 33.2 -10.9 33.1 -11.05 33.0 -11.25 32.95 -11.45 32.85 -11.6 32.85 -11.8 32.75 -12.0 32.7 -12.05 32.6 -12.2 32.6 -12.4 32.5 -12.55 32.55 -12.65 32.6 -12.8 32.6 -13.0 32.65 -13.1 32.65 -13.3 32.6 -13.45 32.6 -13.65 32.5 -13.8 32.45 -13.95 32.35 -14.15 32.25 -14.25 32.15 -14.4 32.05 -14.55 31.95 -14.65 31.85 -14.8 31.75 -15.0 31.7 -15.05 31.6 -15.1 31.6 -15.3 31.5 -15.5 31.45 -15.6 31.35 -15.75 31.25 -15.85 31.15 -15.95 31.1 -16.0 31.1 -16.05 31.2 -16.15 31.25 -16.25 31.35 -16.3 31.45 -16.35 31.55 -16.45 31.65 -16.55 31.75 -16.7 31.85 -16.85 31.95 -16.95 32.0 -17.0 32.0 -17.2 32.1 -17.35 32.2 -17.45 32.25 -17.5 32.25 -17.65 32.3 -17.85 32.35 -18.0 32.35 -18.2 32.3 -18.4 32.25 -18.55 32.15 -18.65 32.1 -18.8 32.05 -19.0 32.0 -19.15 31.9 -19.25 31.8 -19.35 31.7 -19.45 31.6 -19.6 31.5 -19.8 31.45 -19.9 31.35 -20.05 31.25 -20.15 31.15 -20.3 31.05 -20.5 30.95 -20.6 30.85 -20.7 30.75 -20.8 30.7 -20.9 30.6 -21.15 30.5 -21.3 30.4 -21.4 30.3 -21.5 30.2 -21.65 30.1 -21.8 30.0 -21.9 29.95 -22.0 29.85 -22.15 29.75 -22.3 29.65 -22.4 29.55 -22.5 29.45 -22.65 29.35 -22.8 29.25 -22.9 29.2 -23.0 29.1 -23.15 29.0 -23.3 28.9 -23.4 28.8 -23.5 28.7 -23.6 28.6 -23.7 28.5 -23.8 28.45 -23.9 28.35 -24.0 28.25 -24.05 28.15 -24.15 28.05 -24.25 27.95 -24.3 27.85 -24.4 27.75 -24.4 27.7 -24.5 27.6 -24.55 27.5 -24.6 27.4 -24.65 27.3 -24.75 27.2 -24.8 27.1 -24.9 27.0 -24.95 26.95 -25.0 26.85 -25.05 26.75 -25.15 26.65 -25.2 26.55 -25.25 26.45 -25.3 26.35 -25.4 26.25 -25.45 26.2 -25.5 26.1 -25.55 26.0 -25.65 25.9 -25.75 25.8 -25.8 25.7 -25.9 25.6 -25.95 25.5 -26.05 25.45 -26.15 25.35 -26.25 25.25 -26.25 25.2 -26.4 25.1 -26.5 25.05 -26.65 25.0 -26.8 24.9 -26.9 24.8 -27.0 24.7 -27.15 24.6 -27.3 24.5 -27.4 24.45 -27.5 24.35 -27.55 24.25 -27.65 24.15 -27.75 24.05 -27.85 23.95 -27.95 23.85 -28.05 23.75 -28.15 23.7 -28.25 23.6 -28.3 23.5 -28.4 23.4 -28.5 23.3 -28.55 23.2 -28.65 23.1 -28.65 23.0 -28.7 22.95 -28.7 22.85 -28.75 22.75 -28.8 22.65 -28.85 22.55 -28.9 22.45 -28.9 22.35 -28.95 22.25 -28.95 22.2 -28.95 22.1 -28.95 22.0 -28.95 21.9 -28.95 21.8 -28.95 21.7 -28.95 21.6 -29.0 21.5 -29.0 21.45 -29.05 21.45 -29.15 21.35 -29.25 21.25 -29.3 21.15 -29.4 21.05 -29.4 20.95 -29.5 20.85 -29.55 20.75 -29.65 20.7 -29.75 20.6 -29.8 20.5 -29.85 20.4 -29.9 20.3 -29.95 20.2 -30.0 20.1 -30.05 20.0 -30.15 19.95 -30.15 19.9 -30.2 19.85 -30.25 19.8 -30.35 19.7 -30.4 19.6 -30.5 19.5 -30.55 19.45 -30.65 19.35 -30.75 19.25 -30.8 19.15 -30.85 19.05 -30.9 18.95 -30.95 18.85 -31.05 18.75 -31.1 18.7 -31.15 18.6 -31.25 18.5 -31.3 18.4 -31.4 18.3 -31.45 18.2 -31.55 18.1 -31.65 18.0 -31.7 17.95 -31.75 17.85 -31.8 17.75 -31.9 17.65 -32.0 17.55 -32.05 17.45 -32.15 17.35 -32.15 17.25 -32.2 17.2 -32.25 17.1 -32.3 17.0 -32.35 16.9 -32.4 16.8 -32.4 16.7 -32.45 16.6 -32.45 16.5 -32.45 16.45 -32.45 16.35 -32.45 16.25 -32.45 16.15 -32.45 16.05 -32.45 15.95 -32.45 15.85 -32.45 15.75 -32.45 15.7 -32.45 15.6 -32.4 15.5 -32.4 15.4 -32.35 15.3 -32.3 15.2 -32.25 15.1 -32.15 15.0 -32.1 14.95 -32.0 14.85 -31.9 14.75 -31.8 14.65 -31.65 14.55 -31.55 14.45 -31.45 14.35 -31.35 14.25 -31.25 14.2 -31.3 14.1 -31.35 14.0 -31.4 13.95 -31.45 13.85 -31.5 13.75 -31.5 13.65 -31.5 13.55 -31.55 13.45 -31.6 13.35 -31.65 13.25 -31.7 13.2 -31.75 13.1 -31.75 13.0 -31.75 12.9 -31.75 12.8 -31.75 12.7 -31.8 12.6 -31.8 12.5 -31.85 12.45 -31.9 12.35 -31.9 12.25 -31.95 12.15 -32.0 12.05 -32.0 11.95 -32.0 11.85 -32.0 11.75 -32.05 11.7 -32.15 11.6 -32.15 11.5 -32.2 11.4 -32.25 11.3 -32.25 11.2 -32.25 11.1 -32.25 11.0 -32.3 10.95 -32.3 10.85 -32.3 10.75 -32.4 10.65 -32.4 10.55 -32.5 10.45 -32.5 10.35 -32.55 10.25 -32.55 10.2 -32.6 10.1 -32.65 10.0 -32.65 9.9 -32.7 9.8 -32.75 9.7 -32.75 9.6 -32.75 9.5 -32.75 9.45 -32.8 9.35 -32.9 9.25 -32.9 9.15 -32.95 9.05 -33.0 8.95 -33.0 8.85 -33.0 8.75 -33.0 8.7 -33.05 8.6 -33.05 8.5 -33.1 8.4 -33.15 8.3 -33.15 8.2 -33.2 8.1 -33.25 8.0 -33.25 7.95 -33.3 7.85 -33.3 7.75 -33.3 7.65 -33.35 7.55 -33.4 7.45 -33.4 7.35 -33.45 7.25 -33.5 7.2 -33.5 7.1 -33.5 7.0 -33.5 6.9 -33.5 6.8 -33.5 6.7 -33.55 6.6 -33.55 6.5 -33.6 6.45 -33.6 6.35 -33.65 6.25 -33.65 6.15 -33.7 6.05 -33.75 5.95 -33.75 5.85 -33.8 5.75 -33.8 5.7 -33.85 5.6 -33.85 5.5 -33.85 5.4 -33.85 5.3 -33.9 5.2 -33.9 5.1 -33.95 5.0 -34.0 4.95 -34.0 4.85 -34.0 4.75 -34.0 4.65 -34.05 4.55 -34.05 4.45 -34.1 4.35 -34.1 4.25 -34.15 4.2 -34.2 4.1 -34.25 4.0 -34.25 3.9 -34.25 3.8 -34.25 3.7 -34.25 3.6 -34.25 3.5 -34.25 3.45 -34.25 3.35 -34.25 3.25 -34.25 3.15 -34.25 3.05 -34.25 2.95 -34.3 2.85 -34.3 2.75 -34.35 2.7 -34.35 2.6 -34.35 2.5 -34.35 2.4 -34.35 2.3 -34.35 2.2 -34.35 2.1 -34.35 2.0 -34.35 1.95 -34.35 1.85 -34.35 1.75 -34.35 1.65 -34.35 1.55 -34.35 1.45 -34.35 1.35 -34.35 1.25 -34.35 1.2 -34.35 1.1 -34.35 1.0 -34.35 0.9 -34.4 0.8 -34.4 0.7 -34.45 0.6 -34.5 0.5 -34.5 0.45 -34.5 0.35 -34.5 0.25 -34.5 0.15 -34.5 0.05 -34.5 -0.05 -34.5 -0.15 -34.5 -0.25 -34.5 -0.3 -34.5 -0.4 -34.5 -0.5 -34.5 -0.6 -34.5 -0.7 -34.5 -0.8 -34.5 -0.9 -34.5 -1.0 -34.5 -1.05 -34.5 -1.15 -34.5 -1.25 -34.5 -1.35 -34.5 -1.45 -34.5 -1.55 -34.5 -1.65 -34.5 -1.75 -34.5 -1.8 -34.5 -1.9 -34.5 -2.0 -34.5 -2.1 -34.5 -2.2 -34.5 -2.3 -34.5 -2.4 -34.5 -2.5 -34.5 -2.55 -34.5 -2.65 -34.5 -2.75 -34.5 -2.85 -34.5 -2.95 -34.5 -3.05 -34.5 -3.15 -34.5 -3.25 -34.5 -3.3 -34.5 -3.4 -34.5 -3.5 -34.5 -3.6 -34.5 -3.7 -34.5 -3.8 -34.5 -3.9 -34.5 -4.0 -34.5 -4.05 -34.5 -4.15 -34.5 -4.25 -34.5 -4.35 -34.45 -4.45 -34.4 -4.55 -34.35 -4.65 -34.35 -4.75 -34.35 -4.8 -34.35 -4.9 -34.35 -5.0 -34.35 -5.1 -34.35 -5.2 -34.3 -5.3 -34.3 -5.4 -34.25 -5.5 -34.25 -5.55 -34.25 -5.65 -34.2 -5.75 -34.15 -5.85 -34.15 -5.95 -34.1 -6.05 -34.05 -6.15 -34.05 -6.25 -34.0 -6.3 -34.0 -6.4 -33.95 -6.5 -33.9 -6.6 -33.9 -6.7 -33.85 -6.8 -33.8 -6.9 -33.8 -7.0 -33.75 -7.05 -33.75 -7.15 -33.75 -7.25 -33.75 -7.35 -33.75 -7.45 -33.7 -7.55 -33.65 -7.65 -33.6 -7.75 -33.6 -7.8 -33.55 -7.9 -33.55 -8.0 -33.5 -8.1 -33.5 -8.2 -33.45 -8.3 -33.4 -8.4 -33.35 -8.5 -33.3 -8.55 -33.3 -8.65 -33.25 -8.75 -33.25 -8.85 -33.25 -8.95 -33.25 -9.05 -33.2 -9.15 -33.15 -9.25 -33.15 -9.3 -33.05 -9.4 -33.05 -9.5 -33.0 -9.6 -33.0 -9.7 -33.0 -9.8 -32.95 -9.9 -32.9 -10.0 -32.9 -10.05 -32.8 -10.15 -32.8 -10.25 -32.75 -10.35 -32.75 -10.45 -32.75 -10.55 -32.75 -10.65 -32.7 -10.75 -32.65 -10.8 -32.65 -10.9 -32.55 -11.0 -32.5 -11.1 -32.5 -11.2 -32.45 -11.3 -32.4 -11.4 -32.35 -11.5 -32.35 -11.55 -32.35 -11.65 -32.3 -11.75 -32.3 -11.85 -32.3 -11.95 -32.25 -12.05 -32.2 -12.15 -32.15 -12.25 -32.1 -12.3 -32.05 -12.4 -32.05 -12.5 -32.0 -12.6 -32.0 -12.7 -32.0 -12.8 -32.0 -12.9 -32.0 -13.0 -32.0 -13.05 -31.95 -13.15 -31.9 -13.25 -31.9 -13.35 -31.8 -13.45 -31.75 -13.55 -31.7 -13.65 -31.65 -13.75 -31.65 -13.8 -31.55 -13.9 -31.55 -14.0 -31.5 -14.1 -31.5 -14.2 -31.5 -14.3 -31.45 -14.4 -31.4 -14.5 -31.4 -14.55 -31.3 -14.65 -31.25 -14.75 -31.25 -14.85 -31.2 -14.95 -31.15 -15.05 -31.1 -15.15 -31.05 -15.25 -31.0 -15.3 -30.95 -15.4 -30.9 -15.5 -30.9 -15.6 -30.8 -15.7 -30.75 -15.8 -30.65 -15.9 -30.55 -16.0 -30.5 -16.05 -30.4 -16.15 -30.35 -16.25 -30.3 -16.35 -30.2 -16.45 -30.15 -16.55 -30.1 -16.65 -30.05 -16.75 -30.0 -16.8 -29.9 -16.9 -29.85 -16.95 -29.9 -17.0 -30.0 -17.1 -30.1 -17.2 -30.15 -17.3 -30.25 -17.4 -30.25 -17.5 -30.3 -17.55 -30.3 -17.65 -30.3 -17.75 -30.3 -17.85 -30.3 -17.95 -30.3 -18.05 -30.3 -18.15 -30.3 -18.25 -30.3 -18.3 -30.3 -18.4 -30.3 -18.5 -30.3 -18.6 -30.3 -18.7 -30.3 -18.8 -30.3 -18.9 -30.25 -19.0 -30.25 -19.05 -30.2 -19.15 -30.15 -19.25 -30.05 -19.35 -30.05 -19.45 -30.0 -19.55 -30.0 -19.65 -29.95 -19.75 -29.9 -19.8 -29.85 -19.9 -29.8 -20.0 -29.75 -20.1 -29.75 -20.2 -29.7 -20.3 -29.65 -20.4 -29.55 -20.5 -29.55 -20.55 -29.5 -20.65 -29.45 -20.75 -29.4 -20.85 -29.4 -20.95 -29.35 -21.05 -29.3 -21.15 -29.2 -21.25 -29.15 -21.3 -29.1 -21.4 -29.05 -21.5 -29.0 -21.6 -28.95 -21.7 -28.9 -21.8 -28.9 -21.9 -28.8 -22.0 -28.75 -22.05 -28.65 -22.15 -28.55 -22.25 -28.5 -22.35 -28.5 -22.45 -28.45 -22.55 -28.4 -22.65 -28.3 -22.75 -28.25 -22.8 -28.2 -22.9 -28.15 -23.0 -28.05 -23.1 -28.0 -23.2 -27.95 -23.3 -27.9 -23.4 -27.85 -23.5 -27.75 -23.55 -27.7 -23.65 -27.65 -23.75 -27.55 -23.85 -27.5 -23.95 -27.4 -24.05 -27.4 -24.15 -27.3 -24.25 -27.25 -24.3 -27.15 -24.4 -27.1 -24.5 -27.05 -24.6 -27.0 -24.7 -26.9 -24.8 -26.8 -24.9 -26.65 -25.0 -26.5 -25.05 -26.45 -25.15 -26.4 -25.25 -26.4 -25.35 -26.35 -25.45 -26.3 -25.55 -26.2 -25.65 -26.1 -25.75 -26.0 -25.8 -25.85 -25.9 -25.8 -26.0 -25.75 -26.1 -25.65 -26.2 -25.55 -26.3 -25.4 -26.4 -25.3 -26.5 -25.2 -26.55 -25.05 -26.65 -24.9 -26.75 -24.8 -26.85 -24.75 -26.95 -24.65 -27.05 -24.55 -27.15 -24.4 -27.25 -24.35 -27.3 -24.25 -27.4 -24.15 -27.5 -24.0 -27.6 -23.9 -27.7 -23.8 -27.8 -23.6 -27.9 -23.45 -28.0 -23.3 -28.05 -23.2 -28.15 -23.05 -28.15 -22.85 -28.15 -22.85 -28.2 -22.65 -28.15 -22.45 -28.1 -22.4 -28.05 -22.3 -28.15 -22.15 -28.25 -22.0 -28.3 -21.8 -28.4 -21.65 -28.5 -21.55 -28.6 -21.4 -28.7 -21.3 -28.8 -21.2 -28.9 -21.1 -29.0 -21.0 -29.05 -20.85 -29.15 -20.65 -29.2 -20.55 -29.3 -20.35 -29.4 -20.2 -29.5 -20.05 -29.55 -19.95 -29.65 -19.75 -29.7 -19.65 -29.8 -19.55 -29.9 -19.4 -30.0 -19.25 -30.05 -19.1 -30.15 -18.95 -30.15 -18.75 -30.25 -18.6 -30.3 -18.5 -30.4 -18.35 -30.5 -18.15 -30.55 -18.0 -30.6 -17.95 -30.65 -17.75 -30.7 -17.65 -30.8 -17.5 -30.85 -17.45 -30.9 -17.3 -30.9 -17.1 -30.95 -16.95 -31.0 -16.8 -31.0 -16.6 -31.05 -16.4 -31.1 -16.2 -31.15 -16.0 -31.2 -15.6 -31.25 -15.45 -31.25 -15.25 -31.3 -15.1 -31.4 -14.95 -31.4 -14.75 -31.4 -14.75 -31.45 -14.0 -31.45 -13.8 -31.4 -13.6 -31.35 -13.5 -31.25 -13.35 -31.15 -13.3 -31.1 -13.3 -31.15 -13.15 -31.2 -13.1 -31.25 -12.9 -31.3 -12.8 -31.4 -12.7 -31.5 -12.55 -31.55 -12.45 -31.65 -12.25 -31.7 -12.05 -31.8 -11.85 -31.9 -11.7 -32.0 -11.55 -32.05 -11.45 -32.15 -11.25 -32.2 -11.05 -32.3 -10.9 -32.35 -10.85 -32.4 -10.7 -32.4 -10.5 -32.45 -10.45 -32.5 -10.3 -32.55 -10.15 -32.6 -10.1 -32.65 -9.95 -32.65 -9.75 -32.7 -9.6 -32.75 -9.45 -32.75 -9.25 -32.8 -9.0 -32.85 -8.8 -32.9 -8.65 -32.95 -8.6 -33.0 -8.45 -33.0 -8.25 -33.05 -7.9 -33.1 -7.7 -33.15 -7.5 -33.2 -7.35 -33.25 -7.2 -33.25 -7.0 -33.3 -6.8 -33.4 -6.7 -33.5 -6.55 -33.55 -6.35 -33.65 -6.2 -33.75 -6.05 -33.8 -5.95 -33.9 -5.8 -33.9 -5.6 -33.9 -5.6 -33.95 -1.5 -33.95 -1.3 -33.9 -1.1 -33.85 0.0 -33.8 0.2 -33.75 0.35 -33.75 1.0 -33.7 1.2 -33.65 1.4 -33.6 2.65 -33.55 2.85 -33.5 3.0 -33.5 5.9 -33.45 6.1 -33.4 6.3 -33.35 6.5 -33.3 6.7 -33.25 6.85 -33.25 7.4 -33.2 7.6 -33.15 7.8 -33.1 7.9 -33.05 8.1 -33.0 8.25 -33.0 8.4 -32.95 8.6 -32.9 8.8 -32.85 8.95 -32.75 9.0 -32.7 9.2 -32.65 9.4 -32.6 9.5 -32.5 9.6 -32.45 9.7 -32.4 9.9 -32.35 10.0 -32.25 10.15 -32.15 10.2 -32.1 10.25 -32.1 10.45 -32.05 10.6 -32.05 10.75 -32.0 11.0 -31.9 11.2 -31.8 11.35 -31.8 11.45 -31.75 11.6 -31.75 11.75 -31.7 11.95 -31.65 12.1 -31.55 12.25 -31.45 12.4 -31.35 12.5 -31.25 12.6 -31.2 12.75 -31.15 12.95 -31.05 13.05 -30.95 13.15 -30.85 13.25 -30.75 13.35 -30.7 13.5 -30.65 13.7 -30.55 13.8 -30.45 14.0 -30.35 14.15 -30.25 14.3 -30.15 14.45 -30.05 14.5 -30.0 14.7 -29.9 14.85 -29.8 15.0 -29.7 15.15 -29.6 15.25 -29.5 15.35 -29.4 15.55 -29.3 15.65 -29.25 15.7 -29.35 15.75 -29.45 15.85 -29.55 15.95 -29.65 16.1 -29.75 16.25 -29.8 16.35 -29.9 16.45 -30.0 16.5 -30.1 16.6 -30.2 16.7 -30.3 16.8 -30.4 16.9 -30.5 17.0 -30.55 17.1 -30.65 17.2 -30.75 17.35 -30.85 17.55 -30.9 17.75 -30.9 17.75 -30.95 18.25 -30.95 18.45 -30.9 18.65 -30.85 18.75 -30.75 18.95 -30.65 19.1 -30.55 19.25 -30.5 19.4 -30.4 19.5 -30.3 19.6 -30.2 19.8 -30.1 19.95 -30.0 20.05 -29.95 20.1 -29.9 20.3 -29.85 20.45 -29.75 20.55 -29.65 20.7 -29.55 20.85 -29.5 20.95 -29.4 21.15 -29.3 21.3 -29.2 21.55 -29.1 21.7 -29.0 21.8 -28.9 21.9 -28.8 22.0 -28.75 22.1 -28.65 22.25 -28.55 22.35 -28.45 22.45 -28.35 22.55 -28.25 22.65 -28.15 22.85 -28.05 23.0 -28.0 M21.6 -26.5 L21.45 -26.6 21.35 -26.7 21.25 -26.8 21.1 -26.9 20.95 -27.0 20.85 -27.05 20.75 -27.15 20.7 -27.25 20.6 -27.35 20.5 -27.4 20.45 -27.45 20.25 -27.5 20.1 -27.6 19.95 -27.7 19.75 -27.8 19.6 -27.9 19.45 -28.0 19.35 -28.05 19.25 -28.15 19.1 -28.25 18.95 -28.35 18.75 -28.45 18.65 -28.55 18.55 -28.65 18.4 -28.75 18.2 -28.8 18.1 -28.9 18.0 -28.8 17.9 -28.7 17.85 -28.65 17.85 -28.6 17.85 -28.5 17.8 -28.4 17.75 -28.3 17.75 -28.25 17.7 -28.15 17.65 -28.05 17.55 -27.95 17.55 -27.9 Q17.55 -27.9 17.65 -27.85 L17.75 -27.8 17.95 -27.75 18.1 -27.65 18.2 -27.55 18.35 -27.45 18.5 -27.35 18.65 -27.25 18.75 -27.2 18.95 -27.15 19.1 -27.05 19.2 -26.95 19.35 -26.85 19.5 -26.75 19.6 -26.65 19.8 -26.55 19.95 -26.5 20.05 -26.4 20.2 -26.3 20.3 -26.2 20.4 -26.1 20.5 -26.0 20.65 -25.9 20.8 -25.8 20.95 -25.75 21.1 -25.65 21.2 -25.55 21.3 -25.45 21.4 -25.35 21.5 -25.25 21.6 -25.15 21.7 -25.05 21.8 -25.0 21.95 -24.9 22.1 -24.8 22.2 -24.7 22.3 -24.6 22.4 -24.5 22.5 -24.4 22.6 -24.3 22.7 -24.25 22.75 -24.15 22.85 -24.05 23.0 -23.95 23.15 -23.85 23.25 -23.75 23.35 -23.65 23.45 -23.55 23.5 -23.5 23.6 -23.4 23.7 -23.3 23.8 -23.2 23.9 -23.1 24.0 -23.0 24.1 -22.9 24.2 -22.8 24.25 -22.75 24.35 -22.65 24.45 -22.55 24.55 -22.45 24.65 -22.35 24.75 -22.25 24.85 -22.15 24.9 -22.05 24.95 -22.0 25.0 -21.9 25.1 -21.8 25.2 -21.7 25.3 -21.6 25.4 -21.5 25.45 -21.4 25.5 -21.3 25.55 -21.25 25.65 -21.15 25.75 -21.05 25.8 -20.95 25.9 -20.85 25.95 -20.75 26.0 -20.65 26.05 -20.55 26.1 -20.5 26.2 -20.4 26.25 -20.3 26.35 -20.2 26.45 -20.1 26.5 -20.0 26.6 -19.9 26.7 -19.8 26.75 -19.75 26.8 -19.65 26.85 -19.55 26.95 -19.45 27.05 -19.35 27.15 -19.25 27.2 -19.15 27.25 -19.05 27.3 -19.0 27.35 -18.9 27.45 -18.8 27.5 -18.7 27.55 -18.6 27.65 -18.5 27.75 -18.4 27.85 -18.3 27.95 -18.25 28.0 -18.15 28.1 -18.05 28.2 -17.95 28.25 -17.85 28.25 -17.75 28.3 -17.65 28.35 -17.55 28.45 -17.5 28.5 -17.4 28.6 -17.3 28.7 -17.2 28.75 -17.1 28.75 -17.0 28.85 -16.9 28.9 -16.8 28.95 -16.75 29.0 -16.65 29.05 -16.55 29.1 -16.45 29.15 -16.35 29.2 -16.25 29.25 -16.15 29.3 -16.05 29.35 -16.0 29.35 -15.9 29.45 -15.8 29.5 -15.7 29.6 -15.6 29.6 -15.5 29.65 -15.4 29.7 -15.3 29.7 -15.25 29.75 -15.15 29.75 -15.05 29.85 -14.95 29.85 -14.85 29.9 -14.75 29.95 -14.65 29.95 -14.55 30.0 -14.5 30.0 -14.4 30.05 -14.3 30.1 -14.2 30.1 -14.25 30.2 -14.35 30.25 -14.45 30.2 -14.5 30.15 -14.55 30.1 -14.65 30.1 -14.75 30.05 -14.85 30.05 -14.95 30.0 -15.05 30.0 -15.15 29.95 -15.25 29.95 -15.3 29.9 -15.4 29.85 -15.5 29.85 -15.6 29.8 -15.7 29.75 -15.8 29.75 -15.9 29.7 -16.0 29.7 -16.05 29.65 -16.15 29.6 -16.25 29.55 -16.35 29.5 -16.45 29.5 -16.55 29.45 -16.65 29.45 -16.75 29.4 -16.8 29.35 -16.9 29.35 -17.0 29.3 -17.1 29.3 -17.2 29.25 -17.3 29.2 -17.4 29.1 -17.5 29.1 -17.55 29.05 -17.65 29.05 -17.75 29.05 -17.85 29.05 -17.95 29.0 -18.05 29.0 -18.15 28.95 -18.25 28.85 -18.3 28.8 -18.4 28.75 -18.5 28.75 -18.6 28.7 -18.7 28.7 -18.8 28.6 -18.9 28.6 -19.0 28.55 -19.05 28.55 -19.15 28.5 -19.25 28.45 -19.35 28.4 -19.45 28.35 -19.55 28.3 -19.65 28.25 -19.75 28.25 -19.8 28.2 -19.9 28.1 -20.0 28.05 -20.1 28.0 -20.2 27.95 -20.3 27.95 -20.4 27.85 -20.5 27.85 -20.55 27.75 -20.65 27.7 -20.75 27.6 -20.85 27.55 -20.95 27.5 -21.05 27.4 -21.15 27.3 -21.25 27.2 -21.3 27.15 -21.4 27.1 -21.5 27.05 -21.6 27.0 -21.7 26.9 -21.8 26.8 -21.9 26.7 -22.0 26.6 -22.05 26.5 -22.15 26.45 -22.25 26.35 -22.35 26.25 -22.45 26.15 -22.55 26.05 -22.65 25.95 -22.75 25.85 -22.8 25.8 -22.9 25.75 -23.0 25.7 -23.1 25.6 -23.2 25.5 -23.3 25.4 -23.4 25.3 -23.5 25.2 -23.55 25.15 -23.65 25.1 -23.75 25.05 -23.85 25.0 -23.95 24.9 -24.05 24.8 -24.15 24.7 -24.25 24.6 -24.3 24.5 -24.4 24.45 -24.5 24.35 -24.6 24.2 -24.7 24.0 -24.8 23.85 -24.9 23.7 -25.0 23.6 -25.05 23.5 -25.15 23.35 -25.25 23.2 -25.35 23.1 -25.45 23.0 -25.55 22.85 -25.65 22.75 -25.7 22.6 -25.75 22.45 -25.85 22.35 -25.95 22.25 -26.05 22.1 -26.15 21.95 -26.25 21.85 -26.3 21.75 -26.4 21.6 -26.5 M10.2 -14.45 L10.1 -14.55 10.05 -14.65 10.0 -14.75 9.95 -14.8 9.85 -14.9 9.75 -15.0 9.75 -15.1 9.7 -15.2 9.6 -15.3 9.6 -15.4 9.55 -15.5 9.5 -15.55 9.45 -15.65 9.35 -15.75 9.35 -15.85 9.3 -15.95 9.25 -16.05 9.25 -16.15 9.25 -16.25 9.25 -16.3 9.25 -16.4 9.25 -16.5 9.25 -16.6 9.25 -16.7 9.25 -16.8 9.25 -16.9 9.25 -17.0 9.25 -17.05 9.25 -17.15 9.25 -17.25 9.25 -17.35 9.25 -17.45 9.25 -17.55 9.25 -17.65 9.25 -17.75 9.25 -17.8 9.25 -17.9 9.25 -18.0 9.25 -18.1 9.2 -18.2 9.1 -18.3 9.1 -18.4 9.0 -18.5 8.9 -18.55 8.85 -18.65 8.8 -18.65 8.6 -18.75 8.5 -18.8 8.4 -18.8 8.0 -18.85 7.8 -18.9 7.65 -18.9 7.5 -18.95 7.45 -19.0 6.9 -19.0 6.7 -19.05 6.55 -19.05 6.4 -19.1 6.2 -19.15 6.05 -19.15 5.95 -19.2 5.85 -19.25 0.7 -19.25 0.6 -19.2 0.5 -19.15 0.35 -19.15 0.15 -19.1 -1.15 -19.05 -1.4 -19.0 -1.55 -18.95 -1.65 -18.9 -1.8 -18.9 -2.0 -18.85 -2.5 -18.8 -2.65 -18.8 -2.85 -18.75 -3.55 -18.75 -3.65 -18.7 -3.75 -18.65 -3.9 -18.65 -4.1 -18.6 -4.75 -18.55 -4.9 -18.55 -5.1 -18.5 -5.8 -18.5 -5.9 -18.45 -6.0 -18.4 -6.15 -18.4 -6.35 -18.35 -6.6 -18.3 -6.75 -18.25 -6.8 -18.2 -6.9 -18.15 -7.05 -18.15 -7.15 -18.1 -7.25 -18.05 -7.35 -18.05 -7.35 -18.0 -7.35 -17.9 -7.35 -17.8 -7.3 -17.75 -7.3 -17.65 -7.3 -17.55 -7.25 -17.45 -7.25 -17.35 -7.25 -17.25 -7.2 -17.15 -7.15 -17.05 -7.15 -17.0 -7.1 -16.9 -7.1 -16.8 -7.1 -16.7 -7.1 -16.6 -7.1 -16.5 -7.1 -16.4 -7.1 -16.3 -7.1 -16.25 -7.1 -16.15 -7.1 -16.05 -7.1 -15.95 -7.1 -15.85 -7.1 -15.75 -7.1 -15.65 -7.1 -15.55 -7.1 -15.5 -7.1 -15.4 -7.1 -15.3 -7.1 -15.2 -7.1 -15.1 -7.1 -15.0 -7.1 -14.9 -7.1 -14.8 -7.1 -14.75 -7.1 -14.65 -7.15 -14.55 -7.15 -14.45 -7.2 -14.35 -7.25 -14.25 -7.25 -14.15 -7.3 -14.05 -7.4 -14.0 -7.4 -13.95 -7.35 -13.85 -7.25 -13.75 -7.15 -13.65 -7.05 -13.55 -6.95 -13.5 -6.85 -13.4 -6.75 -13.3 -6.65 -13.2 -6.6 -13.1 -6.5 -13.0 -6.4 -12.9 -6.3 -12.8 -6.2 -12.75 -6.05 -12.65 -5.95 -12.55 -5.85 -12.45 -5.75 -12.35 -5.6 -12.25 -5.5 -12.15 -5.4 -12.05 -5.3 -12.0 -5.25 -11.9 -5.15 -11.8 -5.0 -11.7 -4.85 -11.6 -4.75 -11.5 -4.65 -11.4 -4.55 -11.3 -4.5 -11.25 -4.35 -11.15 -4.25 -11.05 -4.2 -10.95 -4.1 -10.85 -4.0 -10.75 -3.9 -10.65 -3.8 -10.55 -3.7 -10.5 -3.55 -10.4 -3.4 -10.3 -3.3 -10.2 -3.2 -10.1 -3.1 -10.0 -3.05 -9.9 -2.95 -9.8 -2.8 -9.75 -2.7 -9.65 -2.55 -9.55 -2.45 -9.45 -2.35 -9.35 -2.25 -9.25 -2.1 -9.15 -2.0 -9.05 -1.9 -9.0 -1.8 -8.9 -1.65 -8.8 -1.55 -8.7 -1.45 -8.6 -1.35 -8.5 -1.2 -8.4 -1.05 -8.3 -1.0 -8.25 -0.9 -8.15 -0.8 -8.05 -0.7 -7.95 -0.5 -7.85 -0.35 -7.75 -0.25 -7.65 -0.15 -7.55 -0.1 -7.5 -0.05 -7.4 0.0 -7.3 0.1 -7.2 0.15 -7.1 0.25 -7.0 0.4 -6.9 0.5 -6.8 0.6 -6.75 0.7 -6.65 0.75 -6.55 0.85 -6.45 0.9 -6.35 1.0 -6.25 1.1 -6.15 1.2 -6.05 1.25 -6.0 1.4 -5.9 1.5 -5.8 1.55 -5.7 1.65 -5.6 1.75 -5.5 1.85 -5.4 1.95 -5.3 2.0 -5.25 2.1 -5.15 2.2 -5.05 2.25 -4.95 2.35 -4.85 2.5 -4.75 2.6 -4.65 2.7 -4.55 2.75 -4.5 2.85 -4.4 2.95 -4.3 3.05 -4.2 3.15 -4.1 3.2 -4.0 3.25 -3.9 3.4 -3.8 3.5 -3.75 3.6 -3.65 3.7 -3.55 3.8 -3.45 3.95 -3.35 4.0 -3.25 4.15 -3.15 4.25 -3.05 4.35 -3.0 4.45 -2.9 4.6 -2.8 4.7 -2.7 4.8 -2.6 4.9 -2.5 5.0 -2.4 5.1 -2.3 5.2 -2.25 5.3 -2.15 5.35 -2.05 5.45 -1.95 5.55 -1.85 5.65 -1.75 5.75 -1.65 5.85 -1.55 5.95 -1.5 6.05 -1.4 6.1 -1.3 6.2 -1.2 6.3 -1.1 6.4 -1.0 6.5 -0.9 6.6 -0.8 6.7 -0.75 6.75 -0.65 6.85 -0.55 6.95 -0.45 7.05 -0.35 7.15 -0.25 7.2 -0.15 7.3 -0.05 7.45 0.0 7.5 0.1 7.6 0.2 7.7 0.3 7.75 0.4 7.85 0.5 7.95 0.6 8.0 0.7 8.05 0.75 8.2 0.85 8.3 0.95 8.4 1.05 8.5 1.15 8.55 1.25 8.6 1.35 8.7 1.45 8.8 1.5 8.95 1.6 9.1 1.7 9.2 1.8 9.3 1.9 9.4 2.0 9.45 2.1 9.5 2.2 9.55 2.25 9.6 2.35 9.7 2.45 9.85 2.55 9.9 2.65 10.0 2.75 10.1 2.85 10.2 2.95 10.25 3.0 10.35 3.1 10.45 3.2 10.55 3.3 10.75 3.4 10.9 3.5 11.0 3.6 11.1 3.7 11.15 3.75 11.2 3.85 11.25 3.95 11.3 4.05 11.4 4.15 11.5 4.25 11.6 4.35 11.7 4.45 11.75 4.5 11.8 4.6 11.85 4.7 11.95 4.8 12.05 4.9 12.15 5.0 12.2 5.1 12.25 5.2 12.3 5.25 12.35 5.35 12.45 5.45 12.5 5.55 12.55 5.65 12.65 5.75 12.75 5.85 12.85 5.95 12.95 6.0 13.0 6.1 13.1 6.2 13.2 6.3 13.3 6.4 13.4 6.5 13.5 6.6 13.6 6.7 13.65 6.75 13.7 6.85 13.75 6.95 13.8 7.05 13.9 7.15 14.0 7.25 14.1 7.35 14.2 7.45 14.25 7.5 14.35 7.6 14.45 7.7 14.55 7.8 14.65 7.9 14.75 8.0 14.8 8.1 14.95 8.2 15.0 8.25 15.1 8.35 15.2 8.45 15.25 8.55 15.35 8.65 15.4 8.75 15.5 8.85 15.6 8.95 15.7 8.85 15.85 8.75 16.05 8.7 16.2 8.7 16.45 8.6 16.65 8.55 16.8 8.5 16.9 8.5 16.95 8.4 17.05 8.3 17.15 8.2 17.25 8.1 17.45 8.0 17.65 7.95 17.8 7.95 18.0 7.95 18.0 7.9 18.25 7.9 18.45 7.95 18.6 7.95 18.7 8.0 18.75 7.9 18.75 7.8 18.8 7.7 18.85 7.6 18.9 7.5 18.95 7.45 19.0 7.35 19.0 7.25 19.0 7.15 19.05 7.05 19.1 6.95 19.15 6.85 19.2 6.75 19.25 6.7 19.25 6.6 19.25 6.5 19.25 6.4 19.3 6.3 19.35 6.2 19.4 6.1 19.45 6.0 19.5 5.95 19.55 5.85 19.6 5.75 19.6 5.65 19.7 5.55 19.7 5.45 19.75 5.35 19.8 5.25 19.85 5.2 19.85 5.1 19.9 5.0 19.95 4.9 19.95 4.8 20.0 4.7 20.05 4.6 20.1 4.5 20.1 4.45 20.15 4.35 20.15 4.25 20.2 4.15 20.2 4.05 20.2 3.95 20.25 3.85 20.3 3.75 20.35 3.7 20.35 3.6 20.4 3.5 20.4 3.4 20.4 3.3 20.4 3.2 20.4 3.1 20.4 3.0 20.45 2.95 20.45 2.85 20.5 2.75 20.5 2.65 20.5 2.55 20.5 2.45 20.5 2.35 20.5 2.25 20.5 2.2 20.5 2.1 20.5 2.0 20.5 1.9 20.5 1.8 20.5 1.7 20.5 1.6 20.5 1.5 20.5 1.45 20.5 1.35 20.5 1.25 20.5 1.15 20.5 1.05 20.5 0.95 20.5 0.85 20.55 0.75 20.6 0.7 20.6 0.6 20.65 0.5 20.65 0.4 20.65 0.3 20.65 0.2 20.65 0.1 20.65 0.0 20.7 -0.05 20.7 -0.15 20.75 -0.25 20.75 -0.35 20.75 -0.45 20.75 -0.55 20.75 -0.65 20.75 -0.75 20.75 -0.8 20.75 -0.9 20.75 -1.0 20.75 -1.1 20.75 -1.2 20.75 -1.3 20.75 -1.4 20.75 -1.5 20.75 -1.55 20.75 -1.65 20.75 -1.75 20.75 -1.85 20.75 -1.95 20.75 -2.05 20.75 -2.15 20.75 -2.25 20.75 -2.3 20.7 -2.4 20.7 -2.5 20.7 -2.6 20.65 -2.7 20.65 -2.8 20.65 -2.9 20.65 -3.0 20.65 -3.05 20.65 -3.15 20.65 -3.25 20.65 -3.35 20.65 -3.45 20.65 -3.55 20.65 -3.65 20.65 -3.75 20.65 -3.8 20.6 -3.9 20.6 -4.0 20.55 -4.1 20.5 -4.2 20.5 -4.3 20.5 -4.4 20.5 -4.5 20.5 -4.55 20.5 -4.65 20.5 -4.75 20.5 -4.85 20.5 -4.95 20.5 -5.05 20.5 -5.15 20.5 -5.25 20.45 -5.3 20.45 -5.4 20.45 -5.5 20.4 -5.6 20.4 -5.7 20.4 -5.8 20.4 -5.9 20.4 -6.0 20.35 -6.05 20.3 -6.15 20.25 -6.25 20.25 -6.35 20.2 -6.45 20.1 -6.55 20.1 -6.65 20.05 -6.75 20.0 -6.8 20.0 -6.85 19.4 -6.85 19.2 -6.9 19.05 -6.9 18.95 -6.95 18.85 -7.0 18.0 -7.0 17.8 -7.05 17.65 -7.05 17.45 -7.15 17.25 -7.25 17.15 -7.3 17.05 -7.4 16.95 -7.5 16.9 -7.6 16.85 -7.7 16.75 -7.8 16.7 -7.9 16.65 -8.0 16.6 -8.05 16.5 -8.15 16.45 -8.25 16.35 -8.35 16.25 -8.45 16.2 -8.55 16.1 -8.65 16.0 -8.75 15.9 -8.8 15.8 -8.9 15.7 -9.0 15.6 -9.1 15.5 -9.2 15.35 -9.3 15.2 -9.4 15.1 -9.5 15.0 -9.55 14.9 -9.65 14.8 -9.75 14.75 -9.85 14.6 -9.95 14.55 -10.05 14.45 -10.15 14.4 -10.25 14.25 -10.3 14.15 -10.4 14.05 -10.5 14.0 -10.6 13.95 -10.7 13.85 -10.8 13.8 -10.9 13.75 -11.0 13.65 -11.05 13.55 -11.15 13.4 -11.25 13.25 -11.35 13.1 -11.45 13.05 -11.55 12.95 -11.65 12.9 -11.75 12.85 -11.8 12.8 -11.9 12.75 -12.0 12.6 -12.1 12.5 -12.2 12.45 -12.3 12.35 -12.4 12.25 -12.5 12.15 -12.55 12.05 -12.65 11.95 -12.75 11.9 -12.85 11.75 -12.95 11.7 -13.05 11.6 -13.15 11.5 -13.25 11.4 -13.3 11.25 -13.4 11.1 -13.5 11.0 -13.6 10.85 -13.7 10.8 -13.8 10.7 -13.9 10.6 -14.0 10.5 -14.05 10.4 -14.15 10.3 -14.25 10.25 -14.35 10.2 -14.45 M0.0 5.7 L-0.1 5.6 -0.25 5.5 -0.35 5.4 -0.5 5.3 -0.55 5.2 -0.65 5.1 -0.75 5.0 -0.8 4.95 -0.95 4.85 -1.1 4.75 -1.25 4.65 -1.3 4.55 -1.4 4.45 -1.45 4.35 -1.5 4.25 -1.6 4.2 -1.7 4.1 -1.85 4.0 -2.0 3.9 -2.15 3.8 -2.2 3.7 -2.3 3.6 -2.4 3.5 -2.55 3.45 -2.7 3.35 -2.85 3.25 -3.0 3.15 -3.15 3.05 -3.2 2.95 -3.3 2.85 -3.5 2.75 -3.6 2.7 -3.7 2.6 -3.75 2.5 -3.9 2.4 -4.0 2.3 -4.15 2.2 -4.3 2.1 -4.4 2.0 -4.5 1.95 -4.6 1.85 -4.7 1.75 -4.75 1.65 -4.9 1.55 -5.05 1.45 -5.15 1.35 -5.25 1.25 -5.3 1.2 -5.4 1.1 -5.5 1.0 -5.5 0.9 -5.55 0.8 -5.55 0.7 -5.6 0.6 -5.6 0.5 -5.6 0.45 -5.6 0.35 -5.6 0.25 -5.6 0.2 -5.65 0.15 -5.75 0.05 -5.8 -0.05 -5.9 -0.15 -6.0 -0.25 -6.1 -0.3 -6.2 -0.4 -6.35 -0.5 -6.5 -0.6 -6.65 -0.7 -6.7 -0.8 -6.8 -0.9 -6.9 -1.0 -7.0 -1.05 -7.05 -1.15 -7.15 -1.25 -7.25 -1.35 -7.4 -1.45 -7.45 -1.55 -7.55 -1.65 -7.65 -1.75 -7.75 -1.8 -7.85 -1.9 -7.95 -2.0 -8.0 -2.1 -8.15 -2.2 -8.2 -2.3 -8.3 -2.4 -8.5 -2.5 -8.6 -2.55 -8.7 -2.65 -8.75 -2.75 -8.8 -2.85 -8.9 -2.95 -9.05 -3.05 -9.15 -3.15 -9.25 -3.25 -9.3 -3.3 -9.45 -3.4 -9.55 -3.5 -9.65 -3.6 -9.7 -3.7 -9.8 -3.8 -9.9 -3.9 -10.0 -4.0 -10.1 -4.05 -10.2 -4.15 -10.3 -4.25 -10.4 -4.35 -10.5 -4.45 -10.55 -4.55 -10.65 -4.65 -10.75 -4.75 -10.85 -4.8 -10.95 -4.9 -11.1 -5.0 -11.25 -5.1 -11.4 -5.2 -11.45 -5.3 -11.55 -5.4 -11.6 -5.5 -11.75 -5.55 -11.85 -5.65 -12.0 -5.75 -12.15 -5.85 -12.2 -5.95 -12.3 -6.05 -12.35 -6.15 -12.4 -6.25 -12.5 -6.3 -12.6 -6.4 -12.7 -6.5 -12.75 -6.6 -12.9 -6.7 -12.95 -6.8 -13.05 -6.9 -13.15 -7.0 -13.25 -7.05 -13.35 -7.15 -13.45 -7.25 -13.5 -7.35 -13.65 -7.45 -13.7 -7.55 -13.8 -7.65 -13.9 -7.75 -14.0 -7.8 -14.1 -7.9 -14.2 -8.0 -14.25 -8.1 -14.4 -8.2 -14.45 -8.3 -14.55 -8.4 -14.6 -8.45 -14.65 -8.45 -14.75 -8.35 -14.85 -8.25 -14.95 -8.15 -15.05 -8.05 -15.25 -8.0 -15.4 -7.9 -15.55 -7.9 -15.75 -7.85 -16.6 -7.85 -16.8 -7.9 -16.95 -7.9 -17.05 -7.95 -17.15 -8.0 -17.5 -8.0 -17.7 -8.05 -17.85 -8.05 -18.05 -8.15 -18.25 -8.25 -18.35 -8.3 -18.4 -8.4 -18.45 -8.4 -18.65 -8.5 -18.8 -8.55 -18.95 -8.65 -19.05 -8.75 -19.15 -8.85 -19.2 -8.8 -19.3 -8.7 -19.35 -8.6 -19.45 -8.5 -19.5 -8.4 -19.55 -8.3 -19.65 -8.25 -19.7 -8.15 -19.75 -8.05 -19.8 -7.95 -19.85 -7.85 -19.95 -7.75 -20.0 -7.65 -20.05 -7.55 -20.15 -7.5 -20.15 -7.4 -20.2 -7.3 -20.25 -7.2 -20.25 -7.1 -20.3 -7.0 -20.3 -6.9 -20.35 -6.8 -20.35 -6.75 -20.35 -6.65 -20.35 -6.55 -20.35 -6.45 -20.35 -6.35 -20.35 -6.25 -20.35 -6.15 -20.35 -6.05 -20.35 -6.0 -20.4 -5.9 -20.4 -5.8 -20.45 -5.7 -20.5 -5.6 -20.5 -5.5 -20.55 -5.4 -20.55 -5.3 -20.55 -5.25 -20.6 -5.15 -20.6 -5.05 -20.6 -4.95 -20.65 -4.85 -20.65 -4.75 -20.7 -4.65 -20.75 -4.55 -20.75 -4.5 -20.8 -4.4 -20.8 -4.3 -20.85 -4.2 -20.85 -4.1 -20.85 -4.0 -20.85 -3.9 -20.9 -3.8 -20.9 -3.75 -20.9 -3.65 -20.95 -3.55 -21.0 -3.45 -21.05 -3.35 -21.1 -3.25 -21.1 -3.15 -21.1 -3.05 -21.1 -3.0 -21.1 -2.9 -21.1 -2.8 -21.1 -2.7 -21.1 -2.6 -21.15 -2.5 -21.15 -2.4 -21.2 -2.3 -21.25 -2.25 -21.25 -2.15 -21.25 -2.05 -21.25 -1.95 -21.25 -1.85 -21.25 -1.75 -21.25 -1.65 -21.25 -1.55 -21.25 -1.5 -21.25 -1.4 -21.25 -1.3 -21.25 -1.2 -21.25 -1.1 -21.25 -1.0 -21.25 -0.9 -21.25 -0.8 -21.2 -0.75 -21.15 -0.65 -21.15 -0.55 -21.15 -0.45 -21.1 -0.35 -21.1 -0.25 -21.1 -0.15 -21.1 -0.05 -21.1 0.0 -21.1 0.1 -21.1 0.2 -21.1 0.3 -21.1 0.4 -21.1 0.5 -21.1 0.6 -21.1 0.7 -21.1 0.75 -21.1 0.85 -21.1 0.95 -21.1 1.05 -21.1 1.15 -21.1 1.25 -21.1 1.35 -21.1 1.45 -21.1 1.5 -21.05 1.6 -21.05 1.7 -21.05 1.8 -21.0 1.9 -21.0 2.0 -21.0 2.1 -21.0 2.2 -21.0 2.25 -21.0 2.35 -21.0 2.45 -21.0 2.55 -21.0 2.65 -21.0 2.75 -21.0 2.85 -21.0 2.95 -21.0 3.0 -21.0 3.1 -21.05 3.2 -21.05 3.3 -21.1 3.4 -21.1 3.5 -21.1 3.6 -21.1 3.7 -21.1 3.75 -21.1 3.85 -21.1 3.95 -21.1 4.05 -21.1 4.15 -21.1 4.25 -21.1 4.35 -21.1 4.45 -21.1 4.5 -21.1 4.6 -21.1 4.7 -21.1 4.8 -21.1 4.9 -21.1 5.0 -21.1 5.1 -21.1 5.2 -21.1 5.25 -21.1 5.35 -21.1 5.45 -21.1 5.55 -21.1 5.65 -21.1 5.75 -21.05 5.85 -21.05 5.95 -21.0 6.0 -21.0 6.1 -21.0 6.2 -21.0 6.3 -21.0 6.4 -20.95 6.5 -20.9 6.6 -20.9 6.7 -20.85 6.75 -20.85 6.85 -20.85 6.95 -20.8 7.05 -20.8 7.15 -20.75 7.25 -19.35 7.25 -19.15 7.25 -19.0 7.3 -18.8 7.35 -18.65 7.45 -18.55 7.5 -18.5 7.55 -18.3 7.6 -18.15 7.7 -18.05 7.8 -17.95 7.9 -17.85 8.0 -17.7 8.1 -17.55 8.2 -17.5 8.25 -17.4 8.35 -17.3 8.45 -17.2 8.55 -17.1 8.65 -17.0 8.75 -16.9 8.85 -16.85 8.95 -16.8 9.0 -16.75 9.1 -16.65 9.2 -16.55 9.3 -16.5 9.4 -16.45 9.5 -16.4 9.6 -16.3 9.7 -16.25 9.75 -16.15 9.85 -16.05 9.95 -16.0 10.05 -15.95 10.15 -15.85 10.25 -15.75 10.35 -15.65 10.45 -15.6 10.5 -15.55 10.6 -15.4 10.7 -15.3 10.8 -15.2 10.9 -15.1 11.0 -15.05 11.1 -15.0 11.2 -14.95 11.25 -14.85 11.35 -14.75 11.45 -14.7 11.55 -14.55 11.65 -14.5 11.75 -14.4 11.85 -14.3 11.95 -14.2 12.0 -14.1 12.1 -14.0 12.2 -13.9 12.3 -13.75 12.4 -13.65 12.5 -13.55 12.6 -13.5 12.7 -13.45 12.75 -13.4 12.85 -13.3 12.95 -13.2 13.05 -13.1 13.15 -13.0 13.25 -12.9 13.35 -12.8 13.45 -12.7 13.5 -12.65 13.6 -12.55 13.7 -12.4 13.8 -12.25 13.9 -12.15 14.0 -12.05 14.1 -11.95 14.2 -11.8 14.25 -11.65 14.35 -11.55 14.45 -11.45 14.55 -11.35 14.65 -11.25 14.75 -11.15 14.85 -10.95 14.95 -10.8 15.0 -10.75 15.1 -10.65 15.2 -10.55 15.3 -10.5 15.4 -10.4 15.5 -10.3 15.6 -10.25 15.7 -10.2 15.75 -10.05 15.85 -9.95 15.95 -9.85 16.05 -9.75 16.15 -9.7 16.25 -9.65 16.35 -9.6 16.45 -9.55 16.5 -9.45 16.6 -9.4 16.7 -9.3 16.8 -9.2 16.9 -9.1 17.0 -9.05 17.1 -9.0 17.2 -8.95 17.25 -8.9 17.35 -8.8 17.45 -8.75 17.55 -8.75 17.65 -8.65 17.75 -8.55 17.85 -8.5 17.95 -8.45 18.0 -8.4 18.1 -8.3 18.2 -8.25 18.3 -8.25 18.4 -8.2 18.5 -8.15 18.6 -8.15 18.7 -8.1 18.75 -8.1 18.85 -8.1 18.95 -8.1 19.05 -8.1 19.15 -8.1 19.25 -8.1 19.35 -8.05 19.45 -7.85 19.5 -7.65 19.5 -7.5 19.55 -7.3 19.6 -7.15 19.7 -7.05 19.75 -7.0 19.8 -6.8 19.85 -6.65 19.95 -6.5 19.95 -6.35 20.0 -6.15 20.0 -6.0 20.05 -5.8 20.1 -5.65 20.2 -5.4 20.25 -5.25 20.3 -5.05 20.35 -4.9 20.45 -4.75 20.45 -4.65 20.5 -4.55 20.5 -4.4 20.55 -4.25 20.6 -4.1 20.7 -4.0 20.7 -0.85 20.7 -0.7 20.7 -0.5 20.65 0.45 20.6 0.5 20.6 0.65 20.55 0.8 20.5 1.0 20.5 1.35 20.45 1.45 20.35 1.5 20.35 1.65 20.3 1.8 20.25 2.0 20.25 3.05 20.2 3.2 20.2 3.4 20.15 4.45 20.1 4.5 20.1 4.65 20.05 4.8 20.0 5.0 20.0 5.3 19.95 5.45 19.95 5.65 19.9 6.35 19.85 6.45 19.85 6.55 19.8 6.7 19.75 6.9 19.75 7.45 19.7 7.6 19.6 7.7 19.6 7.8 19.55 7.95 19.5 8.0 19.5 7.95 19.45 7.95 19.35 7.95 19.25 7.9 19.15 7.9 19.05 7.9 18.95 7.9 18.85 7.9 18.75 7.9 18.7 7.9 18.6 7.9 18.5 7.9 18.4 7.9 18.3 7.9 18.2 7.9 18.1 7.9 18.0 7.9 17.95 7.9 17.85 7.9 17.75 7.95 17.65 7.95 17.55 7.95 17.45 8.0 17.35 8.05 17.25 8.1 17.2 8.2 17.1 8.25 17.0 8.3 16.9 8.4 16.8 8.5 16.7 8.65 16.65 8.65 16.55 8.65 16.45 8.65 16.35 8.65 16.25 8.65 16.2 8.65 16.1 8.65 16.0 8.65 15.9 8.65 15.8 8.65 15.7 8.7 15.6 8.7 15.5 8.75 15.45 8.75 15.35 8.8 15.35 8.65 15.25 8.5 15.15 8.35 15.05 8.3 14.95 8.2 14.85 8.1 14.75 8.0 14.7 7.9 14.6 7.75 14.5 7.6 14.4 7.55 14.3 7.45 14.2 7.35 14.1 7.25 14.0 7.15 13.95 7.0 13.85 6.85 13.75 6.75 13.65 6.6 13.55 6.55 13.45 6.45 13.35 6.35 13.25 6.25 13.2 6.2 13.1 6.1 13.0 6.0 12.9 5.85 12.8 5.8 12.7 5.7 12.6 5.65 12.5 5.6 12.45 5.55 12.35 5.45 12.25 5.35 12.15 5.3 12.05 5.2 11.95 5.15 11.85 5.1 11.75 5.0 11.7 4.95 11.6 4.85 11.5 4.85 11.4 4.75 11.3 4.7 11.2 4.65 11.1 4.6 11.0 4.5 10.95 4.45 10.85 4.35 10.75 4.35 10.65 4.25 10.55 4.2 10.45 4.15 10.35 4.1 10.25 4.0 10.2 3.9 10.1 3.8 10.0 3.75 9.9 3.7 9.8 3.6 9.7 3.55 9.6 3.5 9.5 3.45 9.45 3.35 9.35 3.3 9.25 3.25 9.15 3.2 9.05 3.1 8.95 3.05 8.85 3.0 8.75 2.95 8.7 2.8 8.6 2.7 8.5 2.6 8.4 2.55 8.3 2.45 8.2 2.4 8.1 2.35 8.0 2.25 7.95 2.15 7.85 2.05 7.75 2.0 7.65 1.85 7.55 1.75 7.45 1.6 7.35 1.5 7.25 1.45 7.2 1.35 7.1 1.25 7.0 1.25 6.9 1.1 6.8 1.05 6.7 0.95 6.6 0.85 6.5 0.75 6.45 0.65 6.35 0.55 6.25 0.5 6.15 0.35 6.05 0.3 5.95 0.2 5.85 0.1 5.75 0.0 5.7 M22.9 24.95 L22.75 25.05 22.65 25.15 22.55 25.25 22.45 25.35 22.35 25.45 22.25 25.5 22.2 25.6 22.1 25.7 22.0 25.8 21.9 25.9 21.8 26.0 21.7 26.1 21.85 26.0 21.95 25.95 22.0 25.85 22.1 25.75 22.2 25.65 22.35 25.55 22.45 25.45 22.55 25.35 22.6 25.25 22.7 25.2 22.75 25.1 22.85 25.0 22.9 24.95 M21.25 26.45 L21.15 26.55 21.05 26.65 21.0 26.75 20.9 26.85 20.8 26.95 20.7 27.0 20.55 27.1 20.75 27.05 20.85 26.95 20.95 26.85 21.05 26.75 21.15 26.7 21.25 26.6 21.35 26.5 21.45 26.4 21.5 26.3 21.6 26.2 21.45 26.25 21.35 26.35 21.25 26.45 M-16.55 -29.05 L-16.4 -29.15 -16.6 -29.05 -16.65 -29.0 -16.55 -29.05 M-16.95 -28.9 L-17.1 -28.8 -17.2 -28.75 -17.25 -28.75 -17.5 -28.65 -17.6 -28.55 -17.7 -28.5 -17.75 -28.5 -17.9 -28.45 -18.15 -28.4 -18.3 -28.3 -18.4 -28.25 -18.65 -28.15 -18.75 -28.05 -18.85 -28.0 -18.9 -28.0 -19.1 -27.9 -19.25 -27.8 -19.35 -27.75 -19.5 -27.65 -19.65 -27.55 -19.8 -27.45 -19.95 -27.35 -20.05 -27.25 -20.15 -27.15 -20.25 -27.05 -20.35 -27.0 -20.4 -27.0 -20.65 -26.9 -20.75 -26.8 -20.85 -26.75 -21.0 -26.65 -21.1 -26.55 -21.2 -26.45 -21.3 -26.35 -21.45 -26.25 -21.6 -26.15 -21.75 -26.05 -21.8 -26.0 -21.9 -25.9 -22.0 -25.8 -22.1 -25.7 -22.2 -25.6 -22.3 -25.5 -22.4 -25.4 -22.5 -25.3 -22.55 -25.25 -22.65 -25.15 -22.5 -25.25 -22.4 -25.35 -22.25 -25.45 -22.1 -25.55 -22.0 -25.65 -21.8 -25.75 -21.55 -25.8 -21.5 -25.9 -21.35 -26.0 -21.2 -26.1 -21.05 -26.15 -20.9 -26.25 -20.8 -26.3 -20.75 -26.4 -20.6 -26.5 -20.45 -26.6 -20.3 -26.65 -20.15 -26.75 -20.05 -26.8 -19.9 -26.9 -19.75 -27.0 -19.65 -27.1 -19.5 -27.2 -19.35 -27.3 -19.25 -27.4 -19.05 -27.5 -18.9 -27.55 -18.75 -27.65 -18.6 -27.75 -18.45 -27.85 -18.3 -27.9 -18.15 -28.0 -18.05 -28.05 -18.0 -28.15 -17.9 -28.25 -17.75 -28.35 -17.6 -28.45 -17.5 -28.55 -17.3 -28.65 -17.15 -28.75 -17.05 -28.8 -16.9 -28.9 -16.85 -28.95 -16.95 -28.9 M-2.7 -31.8 L-2.55 -31.8 -2.3 -31.9 -2.1 -31.95 -1.95 -32.0 -5.2 -32.0 -5.35 -31.9 -5.6 -31.8 -5.7 -31.75 -5.75 -31.75 -6.0 -31.65 -6.0 -31.6 -5.55 -31.65 -5.5 -31.65 -5.35 -31.7 -5.2 -31.75 -5.0 -31.75 -2.7 -31.8 M-11.9 -16.75 L-11.8 -16.8 -11.85 -16.9 -11.9 -17.0 -11.9 -17.05 -11.95 -16.95 -12.0 -16.85 -12.0 -16.75 -12.0 -16.65 -12.0 -16.55 -11.95 -16.65 -11.9 -16.75 M-27.8 19.6 L-27.85 19.5 -27.9 19.45 -27.95 19.35 -28.05 19.25 -28.1 19.15 -28.15 19.05 -28.25 18.95 -28.3 18.85 -28.35 18.75 -28.4 18.7 -28.45 18.6 -28.5 18.6 -28.5 18.7 -28.45 18.8 -28.4 18.9 -28.3 19.0 -28.25 19.1 -28.2 19.2 -28.15 19.25 -28.05 19.35 -28.0 19.45 -27.95 19.55 -27.9 19.65 -27.8 19.75 -27.75 19.85 -27.7 19.95 -27.65 20.0 -27.55 20.1 -27.5 20.2 -27.4 20.3 -27.3 20.4 -27.2 20.5 -27.1 20.6 -26.9 20.7 -26.9 20.65 -27.0 20.55 -27.05 20.45 -27.15 20.35 -27.25 20.25 -27.3 20.2 -27.45 20.1 -27.55 20.0 -27.6 19.9 -27.65 19.8 -27.75 19.7 -27.8 19.6" fill="#372500" fill-opacity="0.37254903" fill-rule="evenodd" stroke="none"/>
  </g>
</svg>
