<?xml version="1.0" encoding="UTF-8" standalone="no"?>
<svg xmlns:ffdec="https://www.free-decompiler.com/flash" xmlns:xlink="http://www.w3.org/1999/xlink" ffdec:objectType="shape" height="63.1px" width="63.0px" xmlns="http://www.w3.org/2000/svg">
  <g transform="matrix(1.0, 0.0, 0.0, 1.0, 31.65, 31.6)">
    <path d="M-4.5 -31.1 L-0.2 -31.35 Q12.8 -31.35 22.0 -22.2 31.25 -12.95 31.25 0.05 31.25 13.05 22.0 22.25 16.85 27.35 10.6 29.75 L3.4 31.3 -0.2 31.5 Q-13.2 31.5 -22.45 22.25 L-24.15 20.45 Q-26.4 17.85 -27.95 15.0 L-27.95 14.95 -28.05 14.75 -28.15 14.6 Q-31.65 8.05 -31.65 0.05 L-31.65 -0.95 -31.5 -2.6 Q-31.25 -6.2 -30.25 -9.45 L-29.9 -10.45 Q-27.65 -16.95 -22.45 -22.2 L-21.2 -23.3 Q-18.4 -25.85 -15.2 -27.6 L-8.55 -30.3 -4.5 -31.1 M-0.2 -25.1 L-3.65 -24.9 -6.9 -24.25 -12.2 -22.1 Q-14.75 -20.7 -17.0 -18.65 L-18.0 -17.75 Q-22.15 -13.55 -23.95 -8.35 L-24.25 -7.55 Q-25.05 -4.95 -25.25 -2.1 L-25.35 -0.75 -25.35 0.05 Q-25.35 6.45 -22.55 11.7 L-22.5 11.8 -22.4 11.95 -22.4 12.0 Q-21.15 14.3 -19.35 16.35 L-18.0 17.8 Q-10.6 25.2 -0.2 25.2 L2.7 25.05 5.25 24.65 8.45 23.8 Q13.45 21.9 17.55 17.8 24.95 10.45 24.95 0.05 24.95 -10.35 17.55 -17.75 10.2 -25.1 -0.2 -25.1" fill="#666666" fill-rule="evenodd" stroke="none"/>
    <path d="M5.9 -30.95 L5.95 -30.85 5.95 -30.75 5.95 -30.65 6.0 -30.55 6.0 -30.5 6.0 -30.4 6.0 -30.3 6.0 -30.2 6.0 -30.1 6.0 -30.0 6.0 -29.9 6.0 -29.8 6.0 -29.75 6.0 -29.65 6.0 -29.55 6.0 -29.45 6.0 -29.35 6.0 -29.25 6.0 -29.15 6.0 -29.05 6.0 -29.0 6.0 -28.9 6.0 -28.8 5.95 -28.7 5.95 -28.6 5.95 -28.5 5.9 -28.4 5.85 -28.3 5.85 -28.25 5.85 -28.15 5.85 -28.05 5.85 -27.95 5.8 -27.85 5.8 -27.75 5.75 -27.65 5.75 -27.55 5.75 -27.5 5.75 -27.4 5.75 -27.3 5.75 -27.2 5.7 -27.1 5.7 -27.0 5.7 -26.9 5.65 -26.8 5.6 -26.75 5.6 -26.65 5.6 -26.55 5.6 -26.45 5.6 -26.35 5.6 -26.25 5.6 -26.15 5.6 -26.05 5.6 -26.0 5.6 -25.9 5.6 -25.8 5.55 -25.7 5.55 -25.6 5.5 -25.5 5.5 -25.4 5.5 -25.3 5.5 -25.25 5.45 -25.15 5.45 -25.05 5.4 -24.95 5.35 -24.85 5.3 -24.75 5.25 -24.65 5.15 -24.55 5.05 -24.5 4.9 -24.4 4.75 -24.3 4.6 -24.3 4.4 -24.25 4.2 -24.3 3.95 -24.35 3.75 -24.45 3.7 -24.55 3.6 -24.65 3.5 -24.75 3.45 -24.8 3.4 -24.9 3.35 -25.0 3.35 -25.1 3.3 -25.2 3.3 -25.3 3.3 -25.4 3.3 -25.5 3.3 -25.55 3.3 -25.65 3.3 -25.75 3.3 -25.85 3.3 -25.95 3.3 -26.05 3.35 -26.15 3.35 -26.25 3.4 -26.3 3.4 -26.4 3.4 -26.5 3.4 -26.6 3.4 -26.7 3.4 -26.8 3.4 -26.9 3.4 -27.0 3.4 -27.05 3.4 -27.15 3.4 -27.25 3.4 -27.35 3.4 -27.45 3.45 -27.55 3.45 -27.65 3.5 -27.75 3.5 -27.8 3.55 -27.9 3.55 -28.0 3.6 -28.1 3.6 -28.2 3.65 -28.3 3.65 -28.4 3.65 -28.5 3.65 -28.55 3.65 -28.65 3.65 -28.75 3.65 -28.85 3.65 -28.95 3.65 -29.05 3.7 -29.15 3.7 -29.25 3.75 -29.3 3.75 -29.4 3.8 -29.5 3.8 -29.6 3.8 -29.7 3.8 -29.8 3.8 -29.9 3.8 -30.0 3.8 -30.05 3.8 -30.15 3.8 -30.25 3.8 -30.35 3.8 -30.45 3.8 -30.55 3.8 -30.65 3.85 -30.75 3.85 -30.8 3.85 -30.9 3.9 -31.0 3.95 -31.1 4.05 -31.2 4.15 -31.3 4.25 -31.4 4.4 -31.5 4.55 -31.55 4.7 -31.55 4.9 -31.55 4.9 -31.6 5.1 -31.55 5.3 -31.5 5.5 -31.4 5.6 -31.3 5.7 -31.25 5.75 -31.15 5.85 -31.05 5.9 -30.95 M0.45 -31.5 L0.6 -31.5 0.7 -31.5 0.8 -31.45 0.9 -31.4 1.0 -31.3 1.05 -31.3 1.1 -31.2 1.1 -31.1 1.25 -31.0 1.35 -30.95 1.35 -30.8 1.35 -30.7 1.35 -30.55 1.35 -30.45 1.35 -30.4 1.35 -30.25 1.4 -30.15 1.35 -30.1 1.35 -30.0 1.35 -29.9 1.35 -29.8 1.35 -29.75 1.35 -29.65 1.35 -29.55 1.35 -29.45 1.35 -29.35 1.35 -29.25 1.35 -29.15 1.35 -29.05 1.35 -29.0 1.4 -28.9 1.45 -28.8 1.45 -28.7 1.5 -28.6 1.5 -28.5 1.5 -28.4 1.5 -28.3 1.5 -28.25 1.5 -28.15 1.5 -28.05 1.5 -27.95 1.5 -27.85 1.5 -27.75 1.5 -27.65 1.5 -27.55 1.5 -27.5 1.5 -27.4 1.5 -27.3 1.5 -27.2 1.5 -27.1 1.5 -27.0 1.5 -26.9 1.5 -26.8 1.5 -26.75 1.5 -26.65 1.5 -26.55 1.5 -26.45 1.5 -26.35 1.5 -26.25 1.45 -26.15 1.45 -26.05 1.4 -26.0 1.35 -25.9 1.35 -25.8 1.25 -25.7 1.2 -25.6 1.1 -25.5 0.95 -25.4 0.85 -25.35 0.75 -25.3 0.6 -25.3 0.45 -25.25 0.4 -25.15 0.25 -25.05 0.0 -24.9 -0.1 -24.85 -0.35 -24.85 -0.6 -24.8 -0.7 -24.85 -0.85 -24.95 -0.95 -24.95 -1.0 -25.05 -1.1 -25.05 -1.2 -25.1 -1.2 -25.25 -1.35 -25.3 -1.4 -25.35 -1.4 -25.45 -1.45 -25.5 -1.4 -25.6 -1.5 -25.7 -1.5 -25.75 -1.55 -25.95 -1.5 -26.05 -1.6 -26.15 -1.5 -26.25 -1.5 -26.4 -1.4 -26.4 -1.45 -26.6 -1.45 -26.7 -1.45 -26.8 -1.4 -26.9 -1.4 -27.05 -1.35 -27.15 -1.35 -27.3 -1.35 -27.4 -1.3 -27.5 -1.25 -27.65 -1.2 -27.7 -1.25 -27.85 -1.2 -27.95 -1.25 -28.1 Q-1.15 -28.15 -1.2 -28.25 -1.1 -28.2 -1.15 -28.3 L-1.1 -28.4 -1.1 -28.5 -1.05 -28.65 -1.1 -28.75 -1.0 -28.9 -1.05 -29.0 -1.05 -29.1 -0.95 -29.2 -1.05 -29.3 -1.0 -29.4 -1.0 -29.6 -0.95 -29.65 -1.0 -29.75 -1.05 -29.85 -1.05 -29.95 -1.05 -30.05 -1.1 -30.15 -1.1 -30.25 -1.1 -30.3 -1.1 -30.4 -1.1 -30.5 -1.1 -30.6 -1.1 -30.7 -1.05 -30.8 -1.05 -30.9 -1.0 -31.0 -0.95 -31.05 -0.9 -31.15 -0.8 -31.25 -0.7 -31.35 -0.55 -31.45 -0.45 -31.5 -0.35 -31.55 -0.2 -31.55 0.0 -31.55 0.0 -31.6 0.2 -31.55 0.25 -31.55 0.45 -31.5 M9.25 -29.5 L9.4 -29.55 9.55 -29.65 9.7 -29.65 9.9 -29.65 9.9 -29.7 10.1 -29.65 10.3 -29.6 10.5 -29.5 10.6 -29.4 10.7 -29.3 10.75 -29.25 10.85 -29.15 10.9 -29.05 10.95 -28.95 10.95 -28.85 10.95 -28.75 11.0 -28.65 11.0 -28.55 11.0 -28.5 11.0 -28.4 11.0 -28.3 11.0 -28.2 11.0 -28.1 11.0 -28.0 10.95 -27.9 10.95 -27.8 10.9 -27.75 10.85 -27.65 10.85 -27.55 10.75 -27.45 10.7 -27.35 10.7 -27.25 10.7 -27.15 10.65 -27.05 10.6 -27.0 10.55 -26.9 10.5 -26.8 10.5 -26.7 10.45 -26.6 10.4 -26.5 10.35 -26.4 10.3 -26.3 10.25 -26.25 10.2 -26.15 10.2 -26.05 10.15 -25.95 10.1 -25.85 10.05 -25.75 10.0 -25.65 10.0 -25.55 9.95 -25.5 9.85 -25.4 9.85 -25.3 9.75 -25.2 9.7 -25.1 9.7 -25.0 9.65 -24.9 9.6 -24.8 9.5 -24.75 9.45 -24.65 9.45 -24.55 9.4 -24.45 9.35 -24.35 9.3 -24.25 9.25 -24.15 9.15 -24.05 9.05 -24.0 8.9 -23.9 8.75 -23.8 8.6 -23.8 8.4 -23.75 8.25 -23.75 8.05 -23.8 7.8 -23.85 7.6 -23.95 7.5 -24.05 7.45 -24.15 7.35 -24.25 7.25 -24.3 7.25 -24.4 7.2 -24.5 7.2 -24.6 7.15 -24.7 7.15 -24.8 7.15 -24.9 7.15 -25.0 7.2 -25.05 7.2 -25.15 7.2 -25.25 7.25 -25.35 7.3 -25.45 7.35 -25.55 7.35 -25.65 7.4 -25.75 7.45 -25.8 7.5 -25.9 7.6 -26.0 7.65 -26.1 7.7 -26.2 7.75 -26.3 7.75 -26.4 7.85 -26.5 7.9 -26.55 7.95 -26.65 7.95 -26.75 8.0 -26.85 8.05 -26.95 8.1 -27.05 8.2 -27.15 8.2 -27.25 8.25 -27.3 8.3 -27.4 8.35 -27.5 8.4 -27.6 8.4 -27.7 8.45 -27.8 8.45 -27.9 8.5 -28.0 8.55 -28.05 8.6 -28.15 8.6 -28.25 8.65 -28.35 8.7 -28.45 8.75 -28.55 8.8 -28.65 8.8 -28.75 8.85 -28.8 8.85 -28.9 8.85 -29.0 8.9 -29.1 8.95 -29.2 9.05 -29.3 9.15 -29.4 9.25 -29.5 M13.5 -28.0 L13.65 -28.05 13.8 -28.15 13.95 -28.15 14.15 -28.15 14.15 -28.2 14.35 -28.15 14.55 -28.1 14.75 -28.0 14.85 -27.9 14.95 -27.8 15.0 -27.75 15.1 -27.65 15.15 -27.55 15.2 -27.45 15.2 -27.35 15.2 -27.25 15.25 -27.15 15.25 -27.05 15.25 -27.0 15.2 -26.9 15.2 -26.8 15.15 -26.7 15.1 -26.6 15.05 -26.5 15.0 -26.4 14.95 -26.3 14.85 -26.25 14.8 -26.15 14.7 -26.05 14.65 -25.95 14.6 -25.85 14.5 -25.75 14.45 -25.65 14.35 -25.55 14.3 -25.5 14.25 -25.4 14.2 -25.3 14.1 -25.2 14.0 -25.1 13.95 -25.0 13.9 -24.9 13.85 -24.8 13.75 -24.75 13.7 -24.65 13.6 -24.55 13.55 -24.45 13.5 -24.35 13.45 -24.25 13.35 -24.15 13.25 -24.05 13.2 -24.0 13.15 -23.9 13.1 -23.8 13.0 -23.7 12.95 -23.6 12.85 -23.5 12.8 -23.4 12.75 -23.3 12.65 -23.25 12.6 -23.15 12.5 -23.05 12.45 -22.95 12.4 -22.85 12.3 -22.75 12.25 -22.65 12.15 -22.55 12.05 -22.5 11.9 -22.4 11.75 -22.3 11.6 -22.3 11.4 -22.25 11.2 -22.3 10.95 -22.35 10.75 -22.45 10.7 -22.55 10.6 -22.65 10.5 -22.75 10.45 -22.8 10.4 -22.9 10.35 -23.0 10.35 -23.1 10.3 -23.2 10.3 -23.3 10.3 -23.4 10.3 -23.5 10.35 -23.55 10.35 -23.65 10.35 -23.75 10.4 -23.85 10.45 -23.95 10.5 -24.05 10.6 -24.15 10.7 -24.25 10.75 -24.3 10.8 -24.4 10.85 -24.5 10.95 -24.6 11.0 -24.7 11.1 -24.8 11.15 -24.9 11.2 -25.0 11.25 -25.05 11.35 -25.15 11.45 -25.25 11.5 -25.35 11.55 -25.45 11.6 -25.55 11.7 -25.65 11.75 -25.75 11.85 -25.8 11.9 -25.9 11.95 -26.0 12.05 -26.1 12.1 -26.2 12.2 -26.3 12.25 -26.4 12.3 -26.5 12.4 -26.55 12.45 -26.65 12.5 -26.75 12.6 -26.85 12.65 -26.95 12.75 -27.05 12.8 -27.15 12.85 -27.25 12.95 -27.3 13.0 -27.4 13.1 -27.5 13.15 -27.6 13.2 -27.7 13.3 -27.8 13.4 -27.9 13.5 -28.0 M17.65 -26.35 L17.75 -26.35 17.95 -26.3 18.15 -26.25 18.35 -26.15 18.45 -26.05 18.55 -26.0 18.6 -25.9 18.7 -25.8 18.75 -25.7 18.75 -25.6 18.8 -25.5 18.8 -25.4 18.85 -25.3 18.85 -25.25 18.85 -25.15 18.8 -25.05 18.75 -24.95 18.75 -24.85 18.7 -24.75 18.65 -24.65 18.6 -24.55 18.5 -24.5 18.45 -24.4 18.35 -24.3 18.25 -24.2 18.2 -24.1 18.15 -24.0 18.1 -23.9 18.0 -23.8 17.95 -23.75 17.85 -23.65 17.8 -23.55 17.7 -23.45 17.6 -23.35 17.45 -23.25 17.35 -23.15 17.25 -23.05 17.15 -23.0 17.05 -22.9 16.95 -22.8 16.85 -22.7 16.75 -22.6 16.7 -22.5 16.65 -22.4 16.6 -22.3 16.5 -22.25 16.4 -22.15 16.25 -22.05 16.2 -21.95 16.1 -21.85 16.0 -21.75 15.95 -21.65 15.85 -21.55 15.75 -21.5 15.7 -21.4 15.6 -21.3 15.5 -21.2 15.3 -21.1 15.2 -21.0 15.1 -20.9 14.95 -20.8 14.85 -20.75 14.75 -20.75 14.6 -20.7 14.4 -20.65 14.2 -20.7 13.95 -20.75 13.75 -20.85 13.7 -20.95 13.6 -21.05 13.5 -21.15 13.45 -21.25 13.4 -21.3 13.35 -21.4 13.35 -21.5 13.3 -21.6 13.3 -21.7 13.3 -21.8 13.3 -21.9 13.3 -22.0 13.35 -22.05 13.35 -22.15 13.35 -22.25 13.4 -22.35 13.45 -22.45 13.5 -22.55 13.6 -22.65 13.7 -22.75 13.75 -22.8 13.85 -22.9 14.0 -23.0 14.05 -23.1 14.15 -23.2 14.25 -23.3 14.35 -23.4 14.45 -23.5 14.5 -23.55 14.6 -23.65 14.75 -23.75 14.8 -23.85 14.9 -23.95 15.0 -24.05 15.1 -24.15 15.2 -24.25 15.25 -24.3 15.35 -24.4 15.45 -24.5 15.55 -24.6 15.7 -24.7 15.75 -24.8 15.85 -24.9 15.95 -25.0 16.0 -25.05 16.1 -25.15 16.2 -25.25 16.25 -25.35 16.3 -25.45 16.4 -25.55 16.5 -25.65 16.6 -25.75 16.7 -25.8 16.75 -25.9 16.85 -26.0 16.95 -26.1 17.1 -26.2 17.2 -26.25 17.3 -26.3 17.45 -26.3 17.65 -26.3 17.65 -26.35 M19.2 -23.45 L19.25 -23.45 19.3 -23.55 19.35 -23.6 19.45 -23.7 19.5 -23.75 19.55 -23.8 19.65 -23.85 19.75 -23.9 19.85 -23.95 19.95 -23.95 20.05 -24.0 20.2 -23.95 20.4 -23.95 20.45 -23.9 20.6 -23.9 20.7 -23.8 20.85 -23.65 20.9 -23.7 21.0 -23.5 21.1 -23.35 21.2 -23.15 21.2 -23.0 21.25 -22.9 21.25 -22.8 21.25 -22.65 21.2 -22.55 21.2 -22.45 21.15 -22.3 21.1 -22.25 21.1 -22.1 21.05 -22.05 21.05 -22.0 21.0 -21.85 20.9 -21.8 20.9 -21.65 20.85 -21.6 20.75 -21.5 20.65 -21.4 20.6 -21.35 20.55 -21.25 20.45 -21.2 20.4 -21.1 20.35 -21.05 20.25 -20.95 20.2 -20.9 20.15 -20.85 20.15 -20.75 20.15 -20.65 20.1 -20.55 20.0 -20.45 19.95 -20.35 19.9 -20.3 19.8 -20.2 19.7 -20.1 19.65 -20.05 19.6 -19.95 19.5 -19.9 19.45 -19.8 19.4 -19.75 19.3 -19.65 19.3 -19.6 19.2 -19.55 19.15 -19.45 19.1 -19.4 19.0 -19.3 18.95 -19.25 18.9 -19.15 18.8 -19.1 18.8 -19.05 18.7 -19.0 18.65 -18.9 18.6 -18.85 18.55 -18.75 18.45 -18.7 18.35 -18.6 18.25 -18.6 18.15 -18.5 18.05 -18.45 17.95 -18.45 17.85 -18.4 17.65 -18.35 17.5 -18.4 17.4 -18.45 17.3 -18.45 17.2 -18.55 17.0 -18.7 16.9 -18.8 16.7 -19.05 16.65 -19.25 16.7 -19.35 16.65 -19.5 16.7 -19.65 16.65 -19.7 16.7 -19.8 16.7 -19.95 16.75 -20.0 16.85 -20.1 16.9 -20.15 16.95 -20.25 17.05 -20.3 17.05 -20.35 17.1 -20.45 17.2 -20.5 17.25 -20.6 17.3 -20.65 17.4 -20.75 17.45 -20.8 17.5 -20.9 17.55 -20.9 17.6 -21.0 17.7 -21.05 17.75 -21.15 17.8 -21.2 17.9 -21.3 17.95 -21.35 18.0 -21.45 18.0 -21.55 18.05 -21.6 18.1 -21.75 18.15 -21.8 18.15 -21.9 18.25 -21.95 18.3 -22.05 18.35 -22.1 18.4 -22.15 18.45 -22.2 18.5 -22.3 18.6 -22.35 18.65 -22.45 18.7 -22.5 18.8 -22.6 18.85 -22.65 18.9 -22.75 18.9 -22.9 18.9 -22.95 18.95 -23.1 19.0 -23.15 19.05 -23.25 19.15 -23.35 19.2 -23.45 M20.2 -17.35 L20.25 -17.45 20.3 -17.5 20.35 -17.6 20.45 -17.65 20.55 -17.7 20.6 -17.8 20.7 -17.85 20.85 -17.9 20.9 -17.95 20.95 -18.05 21.05 -18.1 21.05 -18.15 21.15 -18.25 21.25 -18.25 21.3 -18.35 21.4 -18.4 21.45 -18.5 21.5 -18.55 21.65 -18.6 21.75 -18.7 21.85 -18.7 21.95 -18.8 22.05 -18.8 22.15 -18.85 22.2 -18.9 22.3 -19.0 22.35 -19.05 22.4 -19.1 22.55 -19.15 22.6 -19.15 22.65 -19.25 22.75 -19.3 22.8 -19.4 22.85 -19.45 22.95 -19.55 23.05 -19.65 23.15 -19.7 23.2 -19.8 23.35 -19.8 23.45 -19.85 23.5 -19.9 23.65 -19.85 23.75 -19.9 23.9 -19.9 24.1 -19.9 24.35 -19.7 24.5 -19.6 24.5 -19.65 24.65 -19.45 24.75 -19.35 24.85 -19.1 24.8 -19.0 24.85 -18.8 24.85 -18.75 24.85 -18.6 24.85 -18.5 24.8 -18.4 24.75 -18.3 24.7 -18.25 24.6 -18.1 24.5 -18.0 24.45 -17.95 24.4 -17.85 24.3 -17.8 24.25 -17.7 24.2 -17.65 24.1 -17.55 24.05 -17.5 24.0 -17.45 23.95 -17.35 23.9 -17.3 23.85 -17.25 23.75 -17.2 23.7 -17.1 23.6 -17.1 23.45 -17.0 23.3 -16.95 23.25 -16.95 23.2 -16.85 23.05 -16.8 23.0 -16.7 22.9 -16.7 22.75 -16.65 22.75 -16.6 22.65 -16.55 22.6 -16.45 22.5 -16.45 22.4 -16.35 22.35 -16.3 22.3 -16.2 22.2 -16.15 22.2 -16.1 22.1 -16.05 22.05 -15.95 21.95 -15.95 21.9 -15.85 21.8 -15.8 21.7 -15.7 21.65 -15.7 21.6 -15.65 21.55 -15.55 21.45 -15.5 21.35 -15.45 21.3 -15.4 21.15 -15.3 21.1 -15.25 21.0 -15.2 20.9 -15.25 20.8 -15.2 20.65 -15.2 20.5 -15.15 20.3 -15.25 20.1 -15.35 19.9 -15.4 19.85 -15.5 19.75 -15.65 19.6 -15.9 19.5 -16.05 19.5 -16.2 19.55 -16.3 19.5 -16.5 19.55 -16.65 19.55 -16.75 19.65 -16.85 19.65 -16.9 19.7 -17.0 19.8 -17.05 19.85 -17.15 19.95 -17.2 20.0 -17.25 20.05 -17.35 20.2 -17.35 M25.25 -15.55 L25.3 -15.6 25.45 -15.65 25.55 -15.7 25.6 -15.75 25.7 -15.75 25.75 -15.8 25.8 -15.9 25.9 -15.95 26.0 -16.0 26.15 -16.0 26.3 -16.0 26.45 -16.0 26.6 -15.95 26.75 -15.95 26.85 -15.85 27.0 -15.7 27.05 -15.7 27.15 -15.6 27.25 -15.4 27.35 -15.2 27.4 -15.05 27.35 -14.9 27.4 -14.85 27.4 -14.7 27.35 -14.6 27.35 -14.5 27.25 -14.45 27.2 -14.35 27.2 -14.25 27.15 -14.15 27.1 -14.1 27.05 -14.05 26.95 -13.95 26.9 -13.9 26.85 -13.8 26.75 -13.75 26.65 -13.7 26.6 -13.65 26.5 -13.6 26.45 -13.6 26.35 -13.5 26.2 -13.5 26.1 -13.45 26.0 -13.4 25.95 -13.3 25.9 -13.3 25.8 -13.25 25.7 -13.2 25.55 -13.2 25.5 -13.1 25.45 -13.05 25.35 -13.0 25.2 -12.95 25.1 -12.9 25.05 -12.95 24.95 -12.85 24.9 -12.8 24.75 -12.75 24.65 -12.75 24.6 -12.65 24.45 -12.65 24.4 -12.55 24.3 -12.55 24.2 -12.55 24.15 -12.45 23.95 -12.45 23.85 -12.4 23.8 -12.35 23.7 -12.3 23.6 -12.25 23.45 -12.3 23.4 -12.25 23.35 -12.15 23.2 -12.15 23.1 -12.1 23.0 -12.05 22.95 -12.0 22.75 -12.0 22.7 -12.05 22.45 -12.05 22.3 -12.1 22.2 -12.2 22.0 -12.25 21.9 -12.35 21.8 -12.55 21.65 -12.75 21.55 -12.95 21.5 -13.1 21.6 -13.2 21.55 -13.35 21.5 -13.4 21.6 -13.5 21.6 -13.6 21.65 -13.7 21.7 -13.8 21.75 -13.9 21.8 -13.95 21.9 -14.05 21.95 -14.05 22.05 -14.1 22.1 -14.2 22.2 -14.2 22.3 -14.3 22.4 -14.3 22.45 -14.4 22.6 -14.4 22.65 -14.45 22.75 -14.45 22.9 -14.5 23.0 -14.5 23.1 -14.55 23.2 -14.6 23.25 -14.7 23.45 -14.65 23.45 -14.7 23.55 -14.75 23.65 -14.8 23.75 -14.85 23.85 -14.9 23.95 -14.95 24.1 -14.95 24.15 -15.05 24.25 -15.0 24.3 -15.1 24.45 -15.1 24.55 -15.15 24.6 -15.2 24.75 -15.3 24.8 -15.35 24.85 -15.4 24.95 -15.4 25.05 -15.45 25.15 -15.55 25.25 -15.55 M29.25 -11.8 L29.35 -11.65 29.5 -11.45 29.55 -11.25 29.6 -11.1 29.6 -11.0 29.6 -10.9 29.6 -10.8 29.55 -10.65 29.55 -10.6 29.5 -10.5 29.4 -10.45 29.4 -10.3 29.3 -10.2 29.2 -10.15 29.1 -10.1 29.0 -10.0 28.9 -10.0 28.85 -9.95 28.7 -9.9 28.6 -9.85 28.5 -9.9 28.4 -9.85 28.25 -9.85 28.15 -9.8 28.05 -9.75 27.9 -9.75 27.8 -9.7 27.65 -9.7 27.55 -9.65 27.5 -9.65 27.4 -9.6 27.2 -9.6 27.1 -9.55 27.0 -9.55 26.85 -9.5 26.8 -9.45 26.65 -9.5 26.55 -9.45 26.45 -9.45 26.3 -9.4 26.2 -9.35 26.15 -9.35 26.0 -9.3 25.85 -9.3 25.8 -9.3 25.65 -9.25 25.55 -9.2 25.45 -9.2 25.3 -9.15 25.2 -9.15 25.1 -9.1 24.95 -9.05 24.9 -9.1 24.75 -9.05 24.6 -9.05 24.55 -9.0 24.4 -8.95 24.25 -8.95 24.2 -8.9 24.0 -8.9 23.95 -8.9 23.7 -8.95 23.55 -8.95 23.45 -9.05 Q23.3 -9.1 23.25 -9.2 L23.15 -9.3 23.0 -9.55 22.9 -9.75 22.9 -9.85 22.95 -10.0 22.9 -10.15 22.95 -10.2 22.95 -10.3 22.95 -10.4 23.05 -10.45 23.05 -10.6 23.1 -10.65 23.2 -10.75 23.25 -10.8 23.35 -10.8 23.4 -10.9 23.45 -10.95 23.6 -11.05 23.7 -11.05 23.75 -11.15 23.95 -11.1 24.05 -11.15 24.1 -11.1 24.25 -11.2 24.35 -11.2 24.45 -11.25 24.6 -11.25 24.7 -11.3 24.8 -11.3 24.95 -11.35 25.0 -11.4 25.15 -11.35 25.3 -11.4 25.35 -11.4 25.5 -11.5 25.6 -11.5 25.7 -11.55 25.85 -11.55 25.95 -11.55 26.05 -11.55 26.15 -11.6 26.3 -11.6 26.4 -11.65 26.55 -11.65 26.65 -11.7 26.75 -11.75 26.85 -11.7 26.95 -11.8 27.05 -11.8 27.2 -11.85 27.3 -11.85 27.45 -11.9 27.55 -11.9 27.65 -12.0 27.75 -11.9 27.85 -12.0 28.0 -11.95 28.1 -12.05 28.2 -12.05 28.35 -12.1 28.5 -12.05 28.6 -12.1 28.8 -12.05 28.95 -12.0 29.05 -11.9 29.2 -11.75 29.25 -11.8 M26.75 -8.05 L26.9 -8.15 27.0 -8.1 27.15 -8.15 27.3 -8.15 27.45 -8.2 27.5 -8.15 27.65 -8.2 27.8 -8.15 27.9 -8.2 28.1 -8.15 28.2 -8.2 28.35 -8.2 28.5 -8.25 28.55 -8.25 28.7 -8.25 28.85 -8.25 28.95 -8.3 29.05 -8.35 29.2 -8.35 29.3 -8.35 29.5 -8.35 29.55 -8.35 29.7 -8.35 29.85 -8.4 29.95 -8.35 30.15 -8.35 30.25 -8.35 30.35 -8.3 30.5 -8.2 30.65 -8.05 30.7 -8.1 30.75 -8.05 30.85 -7.85 30.95 -7.75 31.05 -7.5 31.1 -7.4 31.1 -7.25 31.1 -7.15 31.05 -7.0 31.05 -6.9 31.0 -6.85 30.95 -6.7 30.9 -6.65 30.9 -6.5 30.85 -6.5 30.8 -6.4 30.65 -6.4 30.55 -6.35 30.5 -6.3 30.35 -6.2 30.3 -6.2 30.2 -6.15 30.05 -6.15 30.0 -6.15 29.8 -6.1 29.7 -6.1 29.6 -6.05 29.5 -6.05 29.35 -5.95 29.25 -6.0 29.15 -5.95 29.05 -6.0 28.95 -5.9 28.75 -5.95 28.65 -5.9 28.5 -5.95 28.3 -5.9 28.2 -5.9 28.05 -5.95 27.95 -5.9 27.8 -5.9 27.65 -5.9 27.5 -5.9 27.4 -5.85 27.3 -5.8 27.2 -5.75 27.05 -5.8 26.95 -5.8 26.8 -5.85 26.65 -5.75 26.5 -5.8 26.4 -5.75 26.3 -5.75 26.15 -5.7 26.05 -5.7 25.9 -5.7 25.8 -5.65 25.65 -5.7 25.4 -5.7 25.3 -5.75 25.15 -5.7 24.95 -5.75 24.9 -5.75 24.8 -5.8 24.65 -5.85 24.45 -6.0 24.35 -6.15 24.2 -6.35 24.1 -6.6 24.1 -6.65 24.15 -6.85 24.1 -6.95 24.15 -7.1 24.15 -7.25 24.25 -7.3 24.25 -7.45 24.3 -7.5 24.4 -7.6 24.45 -7.65 24.5 -7.75 24.6 -7.75 24.65 -7.8 24.7 -7.9 24.85 -7.9 24.95 -8.0 25.0 -8.0 25.2 -8.05 25.3 -8.0 25.4 -8.05 25.55 -8.0 25.7 -8.0 25.85 -8.05 25.95 -8.05 26.1 -8.05 26.25 -8.1 26.4 -8.05 26.45 -8.1 26.6 -8.1 26.75 -8.05 M25.3 -3.15 L25.4 -3.25 25.5 -3.35 25.55 -3.45 25.65 -3.5 25.75 -3.55 25.85 -3.55 25.9 -3.6 26.0 -3.65 26.1 -3.65 26.2 -3.65 26.25 -3.65 26.35 -3.65 26.45 -3.7 26.55 -3.7 26.65 -3.7 26.75 -3.7 26.85 -3.75 26.95 -3.75 27.05 -3.75 27.15 -3.75 27.25 -3.8 27.35 -3.8 27.45 -3.8 27.55 -3.8 27.65 -3.8 27.7 -3.9 27.8 -3.9 27.9 -3.95 28.0 -3.95 28.1 -4.0 28.2 -4.05 28.3 -4.05 28.4 -4.05 28.45 -4.05 28.55 -4.05 28.65 -4.1 28.75 -4.1 28.85 -4.1 28.95 -4.1 29.05 -4.1 29.15 -4.15 29.2 -4.2 29.3 -4.25 29.4 -4.3 29.5 -4.35 29.6 -4.4 29.7 -4.4 29.8 -4.45 29.9 -4.45 29.95 -4.45 30.05 -4.5 30.15 -4.5 30.25 -4.5 30.35 -4.5 30.45 -4.5 30.55 -4.5 30.65 -4.45 30.7 -4.4 30.8 -4.35 30.9 -4.3 31.0 -4.2 31.15 -4.05 31.2 -3.95 31.25 -3.85 31.3 -3.7 31.3 -3.5 31.35 -3.5 31.3 -3.3 31.3 -3.1 31.2 -2.9 31.15 -2.8 31.1 -2.7 31.0 -2.6 30.9 -2.5 30.8 -2.45 30.7 -2.4 30.6 -2.3 30.55 -2.25 30.45 -2.2 30.4 -2.2 30.3 -2.15 30.2 -2.05 30.1 -2.05 30.0 -2.0 29.9 -2.0 29.8 -2.0 29.7 -1.95 29.65 -1.95 29.55 -1.95 29.45 -1.95 29.35 -1.95 29.25 -1.9 29.15 -1.9 29.05 -1.9 28.95 -1.9 28.9 -1.9 28.8 -1.8 28.7 -1.75 28.6 -1.75 28.5 -1.7 28.4 -1.65 28.3 -1.65 28.2 -1.65 28.15 -1.65 28.05 -1.65 27.95 -1.65 27.85 -1.6 27.75 -1.6 27.65 -1.6 27.55 -1.6 27.45 -1.55 27.4 -1.55 27.3 -1.55 27.25 -1.55 27.15 -1.55 27.05 -1.5 26.95 -1.5 26.85 -1.5 26.75 -1.5 26.7 -1.5 26.6 -1.45 26.5 -1.45 26.4 -1.45 26.3 -1.45 26.2 -1.45 26.1 -1.45 26.0 -1.45 25.95 -1.5 25.85 -1.55 25.75 -1.55 25.65 -1.6 25.55 -1.65 25.4 -1.75 25.3 -1.9 25.25 -2.0 25.2 -2.05 25.15 -2.2 25.1 -2.4 25.1 -2.6 25.15 -2.9 25.2 -3.1 25.3 -3.15 M31.15 1.45 L31.2 1.7 31.25 1.9 31.3 1.9 31.25 2.1 31.25 2.3 31.15 2.55 31.05 2.65 31.0 2.75 30.95 2.8 30.85 2.9 30.75 3.0 30.65 3.05 30.55 3.05 30.45 3.05 30.35 3.1 30.25 3.15 30.2 3.15 30.1 3.15 30.0 3.15 29.9 3.15 29.8 3.2 29.7 3.2 29.6 3.2 29.5 3.2 29.45 3.2 29.35 3.25 29.25 3.25 29.15 3.2 29.05 3.2 28.95 3.25 28.85 3.2 28.75 3.15 28.7 3.15 28.6 3.1 28.5 3.05 28.4 3.1 28.3 3.05 28.2 3.05 28.05 3.0 27.95 3.0 27.9 3.0 27.8 3.0 27.75 2.95 27.65 2.9 27.55 2.95 27.45 2.95 27.35 2.95 27.25 2.95 27.2 2.95 27.1 3.0 27.0 3.0 26.9 2.95 26.8 2.95 26.7 2.95 26.6 2.95 26.5 2.9 26.45 2.9 26.35 2.9 26.25 2.9 26.15 2.9 26.05 2.9 25.95 2.85 25.85 2.85 25.7 2.85 25.65 2.75 25.55 2.7 25.45 2.6 25.35 2.5 25.2 2.35 25.15 2.15 25.05 1.95 25.05 1.85 25.1 1.65 25.1 1.4 25.2 1.15 25.3 1.1 25.35 1.05 25.45 0.95 25.5 0.9 25.6 0.8 25.7 0.75 25.8 0.75 25.9 0.7 26.0 0.65 26.1 0.65 26.2 0.65 26.25 0.7 26.35 0.7 26.45 0.65 26.55 0.7 26.65 0.7 26.75 0.7 26.85 0.7 26.95 0.65 27.0 0.7 27.1 0.7 27.2 0.7 27.3 0.75 27.4 0.75 27.5 0.75 27.55 0.75 27.65 0.75 27.7 0.75 27.8 0.7 27.9 0.75 28.0 0.75 28.15 0.8 28.25 0.75 28.35 0.75 28.45 0.75 28.5 0.75 28.6 0.75 28.7 0.8 28.8 0.8 28.9 0.85 29.0 0.9 29.1 0.9 29.2 0.9 29.25 0.9 29.35 0.9 29.45 0.95 29.55 1.0 29.65 0.95 29.75 0.95 29.85 0.95 29.95 0.95 30.0 0.95 30.1 0.9 30.2 0.9 30.35 0.95 30.45 0.95 30.55 1.0 30.65 1.0 30.75 1.05 30.8 1.15 30.9 1.25 31.0 1.3 31.15 1.45 M30.4 7.15 L30.3 7.3 30.2 7.4 30.2 7.45 30.1 7.55 30.0 7.6 29.9 7.7 29.8 7.7 29.7 7.7 29.6 7.75 29.5 7.75 29.45 7.8 29.35 7.8 29.25 7.8 29.15 7.8 29.05 7.8 28.95 7.85 28.85 7.8 28.75 7.8 28.7 7.75 28.6 7.7 28.5 7.75 28.4 7.65 28.3 7.6 28.2 7.6 28.1 7.6 28.0 7.6 27.95 7.55 27.85 7.5 27.75 7.45 27.65 7.45 27.55 7.45 27.45 7.4 27.35 7.35 27.25 7.3 27.15 7.25 27.05 7.25 26.95 7.25 26.85 7.2 26.75 7.15 26.65 7.15 26.55 7.1 26.45 7.1 26.4 7.05 26.3 6.95 26.2 7.0 26.05 6.9 25.95 6.85 25.85 6.85 25.75 6.8 25.65 6.8 25.6 6.7 25.5 6.65 25.4 6.65 25.3 6.6 25.2 6.6 25.05 6.55 24.95 6.5 24.85 6.4 24.8 6.3 24.7 6.2 24.55 6.05 24.55 5.9 24.45 5.7 24.45 5.55 24.5 5.35 24.5 5.1 24.6 4.85 24.65 4.75 24.75 4.7 24.85 4.6 24.9 4.5 25.0 4.45 25.1 4.4 25.2 4.4 25.3 4.35 25.4 4.35 25.5 4.3 25.6 4.3 25.65 4.35 25.75 4.35 25.85 4.35 25.95 4.35 26.05 4.4 26.15 4.45 26.25 4.45 26.35 4.5 26.4 4.5 26.5 4.55 26.65 4.65 26.75 4.7 26.85 4.75 26.95 4.75 27.05 4.75 27.15 4.85 27.2 4.9 27.3 4.95 27.4 4.9 27.55 4.95 27.65 5.0 27.75 5.05 27.85 5.1 27.95 5.1 28.0 5.15 28.05 5.2 28.15 5.25 28.25 5.25 28.35 5.25 28.5 5.3 28.6 5.3 28.7 5.35 28.75 5.35 28.85 5.4 28.95 5.4 29.05 5.45 29.15 5.5 29.25 5.5 29.35 5.55 29.45 5.55 29.5 5.6 29.6 5.6 29.7 5.55 29.85 5.6 29.95 5.65 30.05 5.75 30.15 5.85 30.25 5.9 30.35 6.05 30.45 6.2 30.45 6.35 30.5 6.55 30.55 6.55 30.5 6.75 30.5 6.95 30.4 7.15 M24.15 7.65 L24.25 7.65 24.35 7.65 24.45 7.6 24.5 7.65 24.6 7.65 24.7 7.65 24.8 7.7 24.9 7.7 25.0 7.75 25.1 7.85 25.2 7.95 25.3 8.0 25.4 8.0 25.5 8.05 25.6 8.15 25.7 8.2 25.8 8.3 25.9 8.3 26.05 8.35 26.1 8.4 26.2 8.5 26.3 8.6 26.4 8.6 26.5 8.65 26.6 8.7 26.75 8.8 26.85 8.8 26.9 8.85 27.0 8.9 27.1 8.95 27.2 9.05 27.35 9.1 27.45 9.15 27.55 9.2 27.65 9.25 27.7 9.35 27.8 9.4 27.9 9.4 28.05 9.5 28.15 9.55 28.25 9.65 28.35 9.65 28.45 9.7 28.5 9.8 28.6 9.85 28.7 9.95 28.8 9.95 28.9 10.0 29.0 10.1 29.1 10.2 29.25 10.3 29.3 10.4 29.4 10.55 29.45 10.7 29.45 10.9 29.5 10.9 29.45 11.1 29.45 11.3 29.35 11.55 29.3 11.65 29.2 11.75 29.15 11.8 29.05 11.9 28.95 12.0 28.85 12.05 28.8 12.05 28.7 12.05 28.6 12.1 28.5 12.15 28.45 12.15 28.35 12.1 28.25 12.1 28.15 12.05 28.05 12.05 27.95 12.0 27.85 11.95 27.75 11.9 27.7 11.8 27.55 11.8 27.45 11.7 27.35 11.65 27.25 11.6 27.15 11.55 27.05 11.5 26.9 11.4 26.85 11.35 26.75 11.3 26.65 11.3 26.55 11.2 26.45 11.1 26.35 11.05 26.2 11.0 26.1 11.0 26.05 10.9 25.95 10.85 25.85 10.75 25.75 10.7 25.65 10.7 25.5 10.65 25.4 10.55 25.3 10.45 25.25 10.4 25.15 10.4 25.05 10.35 24.95 10.25 24.8 10.2 24.7 10.1 24.6 10.1 24.5 10.05 24.45 9.95 24.35 9.9 24.2 9.8 24.1 9.8 24.0 9.75 23.9 9.65 23.8 9.6 23.7 9.55 23.6 9.45 23.5 9.3 23.4 9.15 23.35 9.05 23.3 8.85 23.35 8.65 23.35 8.4 23.45 8.2 23.5 8.15 23.6 8.0 23.7 7.9 23.75 7.85 23.85 7.8 23.95 7.75 24.05 7.7 24.15 7.65 M22.25 11.25 L22.35 11.15 22.45 11.05 22.5 10.95 22.55 10.9 22.65 10.85 22.75 10.85 22.85 10.8 22.95 10.75 23.05 10.75 23.15 10.75 23.25 10.75 23.3 10.8 23.4 10.75 23.5 10.75 23.6 10.8 23.7 10.85 23.85 10.9 23.95 10.95 24.05 11.05 24.1 11.1 24.2 11.2 24.35 11.35 24.45 11.35 24.55 11.45 24.65 11.55 24.75 11.65 24.9 11.7 24.95 11.75 25.05 11.85 25.15 12.0 25.25 12.05 25.4 12.1 25.5 12.2 25.6 12.3 25.7 12.4 25.75 12.45 25.9 12.5 26.0 12.6 26.1 12.7 26.2 12.85 26.35 12.9 26.45 12.95 26.55 13.05 26.6 13.1 26.7 13.2 26.85 13.3 26.95 13.3 27.05 13.35 27.15 13.45 27.25 13.55 27.35 13.65 27.45 13.7 27.55 13.75 27.65 13.85 27.75 13.95 27.85 14.1 27.95 14.15 28.0 14.25 28.0 14.4 28.05 14.6 28.1 14.6 28.1 14.7 28.05 14.9 28.05 15.1 27.95 15.35 27.85 15.45 27.85 15.55 27.75 15.6 27.65 15.7 27.55 15.8 27.45 15.8 27.35 15.85 27.25 15.85 27.15 15.95 27.1 15.95 27.0 15.95 26.9 15.9 26.8 15.85 26.7 15.9 26.6 15.85 26.5 15.8 26.4 15.75 26.35 15.65 26.2 15.6 26.1 15.55 26.0 15.45 25.9 15.4 25.8 15.35 25.7 15.35 25.55 15.25 25.5 15.2 25.4 15.1 25.3 15.05 25.2 15.0 25.1 14.9 24.95 14.75 24.85 14.65 24.75 14.55 24.7 14.5 24.55 14.4 24.45 14.3 24.35 14.2 24.25 14.1 24.15 14.1 24.05 14.05 23.9 14.0 23.85 13.9 23.75 13.8 23.65 13.7 23.55 13.65 23.4 13.55 23.3 13.45 23.2 13.45 23.1 13.35 23.05 13.25 22.9 13.2 22.8 13.1 22.7 13.05 22.6 12.85 22.45 12.75 22.35 12.65 22.25 12.5 22.2 12.45 22.15 12.35 22.1 12.2 22.05 12.0 22.05 11.8 22.1 11.55 22.15 11.3 22.25 11.25 M25.7 16.75 L25.75 16.8 25.8 16.85 25.85 16.95 25.95 17.0 25.95 17.1 26.0 17.2 25.95 17.35 26.0 17.55 25.95 17.65 25.95 17.8 25.85 17.9 25.75 18.05 25.8 18.1 25.6 18.2 25.45 18.35 25.25 18.45 25.1 18.5 25.05 18.55 24.95 18.55 24.8 18.55 24.65 18.55 24.55 18.55 24.4 18.5 24.35 18.45 24.2 18.5 24.15 18.45 24.1 18.45 23.95 18.4 23.9 18.3 23.75 18.35 23.7 18.3 23.55 18.2 23.45 18.1 23.4 18.05 23.3 18.0 23.25 17.95 23.15 17.9 23.1 17.85 22.95 17.75 22.9 17.7 22.85 17.65 22.75 17.7 22.65 17.7 22.55 17.65 22.45 17.55 22.35 17.5 22.3 17.45 22.15 17.4 22.05 17.3 22.0 17.25 21.9 17.2 21.85 17.15 21.75 17.15 21.7 17.1 21.55 17.0 21.5 17.0 21.5 16.9 21.4 16.85 21.35 16.8 21.25 16.75 21.2 16.7 21.05 16.65 21.0 16.55 20.95 16.55 20.9 16.45 20.8 16.45 20.75 16.4 20.65 16.35 20.55 16.25 20.45 16.15 20.45 16.05 20.35 15.95 20.3 15.9 20.25 15.8 20.2 15.7 20.15 15.5 20.15 15.35 20.2 15.25 20.2 15.15 20.3 15.0 20.4 14.8 20.5 14.7 20.75 14.45 20.95 14.4 21.05 14.45 21.2 14.35 21.3 14.4 21.35 14.35 21.45 14.4 Q21.55 14.3 21.6 14.35 L21.65 14.4 21.75 14.5 21.8 14.55 21.9 14.6 21.95 14.65 22.0 14.65 22.1 14.7 22.2 14.8 22.3 14.85 22.35 14.9 22.45 15.0 22.5 15.0 22.6 15.05 22.6 15.1 22.75 15.15 22.8 15.25 22.9 15.3 22.95 15.35 23.05 15.4 23.1 15.45 23.2 15.5 23.3 15.5 23.4 15.55 23.55 15.55 23.6 15.6 23.7 15.6 23.75 15.7 23.85 15.75 23.9 15.8 23.95 15.8 24.0 15.85 24.15 15.9 24.2 16.0 24.3 16.05 24.35 16.1 24.45 16.15 24.5 16.2 24.6 16.25 24.75 16.25 24.8 16.25 25.0 16.25 25.05 16.3 25.15 16.35 25.25 16.45 25.35 16.5 25.35 16.55 25.45 16.55 25.5 16.6 25.65 16.7 25.7 16.75 M20.3 18.85 L20.4 18.95 20.45 19.05 20.55 19.1 20.6 19.2 20.7 19.2 20.75 19.25 20.8 19.4 20.95 19.5 20.95 19.6 21.05 19.7 21.05 19.8 21.15 19.9 21.2 19.95 21.3 20.0 21.35 20.05 21.4 20.1 21.45 20.25 21.5 20.3 21.6 20.35 21.65 20.45 21.75 20.45 21.8 20.5 21.9 20.6 22.0 20.7 22.05 20.8 22.15 20.85 22.15 21.0 22.2 21.05 22.3 21.1 22.25 21.25 22.3 21.35 22.3 21.5 22.35 21.7 22.15 22.0 22.1 22.15 22.15 22.15 22.0 22.3 21.9 22.45 21.65 22.55 21.55 22.5 21.35 22.6 21.3 22.6 21.15 22.6 21.05 22.6 20.95 22.6 20.85 22.55 20.8 22.5 20.65 22.4 20.55 22.35 20.5 22.3 20.4 22.25 20.3 22.15 20.2 22.1 20.15 22.05 20.05 22.0 20.0 21.95 19.95 21.9 19.85 21.85 19.75 21.8 19.7 21.75 19.65 21.65 19.55 21.65 19.55 21.55 19.4 21.4 19.35 21.25 19.35 21.2 19.25 21.15 19.2 21.0 19.05 20.95 19.05 20.85 19.0 20.7 18.95 20.75 18.9 20.65 18.8 20.6 18.75 20.5 18.65 20.4 18.6 20.35 18.5 20.3 18.45 20.25 18.4 20.25 18.3 20.15 18.2 20.1 18.2 20.0 18.1 19.95 18.05 19.85 17.95 19.8 17.85 19.7 17.75 19.65 17.7 19.55 17.65 19.45 17.6 19.4 17.45 19.25 17.4 19.25 17.35 19.15 17.4 19.05 17.35 18.95 17.3 18.8 17.25 18.65 17.35 18.45 Q17.3 18.35 17.4 18.2 L17.45 18.0 17.55 17.95 17.65 17.85 17.9 17.65 18.05 17.6 18.2 17.55 18.3 17.6 18.5 17.55 18.65 17.55 18.75 17.55 18.85 17.6 18.9 17.6 19.0 17.65 19.05 17.75 19.2 17.75 19.25 17.85 19.3 17.9 19.4 17.95 19.4 18.1 19.5 18.15 19.6 18.2 19.7 18.2 19.75 18.3 19.8 18.4 19.9 18.45 19.95 18.55 20.05 18.7 20.1 18.75 20.2 18.75 20.25 18.85 20.3 18.85 M5.55 24.65 L5.8 24.65 5.85 24.75 6.0 24.8 6.1 24.9 6.15 24.95 6.25 25.0 6.3 25.1 6.3 25.2 6.4 25.3 6.4 25.4 6.45 25.5 6.45 25.6 6.45 25.65 6.5 25.75 6.5 25.85 6.55 25.95 6.55 26.05 6.6 26.15 6.6 26.25 6.6 26.35 6.65 26.4 6.65 26.45 6.7 26.55 6.7 26.65 6.7 26.75 6.75 26.85 6.75 26.95 6.8 27.05 6.85 27.1 6.85 27.2 6.95 27.3 6.95 27.4 7.05 27.45 7.05 27.55 7.1 27.65 7.1 27.75 7.1 27.8 7.15 27.9 7.15 28.0 7.2 28.1 7.2 28.2 7.2 28.3 7.25 28.4 7.25 28.45 7.3 28.5 7.4 28.6 7.45 28.7 7.5 28.75 7.5 28.85 7.55 28.95 7.6 29.05 7.65 29.15 7.65 29.2 7.65 29.3 7.7 29.4 7.7 29.5 7.7 29.6 7.7 29.7 7.7 29.8 7.75 29.95 7.7 30.0 7.65 30.1 7.6 30.25 7.5 30.35 7.4 30.45 7.3 30.5 7.2 30.55 7.05 30.6 6.85 30.65 6.85 30.7 6.65 30.7 6.45 30.7 6.25 30.7 6.1 30.6 6.0 30.55 5.9 30.5 5.8 30.4 5.75 30.3 5.7 30.25 5.65 30.15 5.55 30.05 5.5 29.95 5.5 29.9 5.4 29.8 5.35 29.75 5.3 29.65 5.25 29.55 5.2 29.45 5.2 29.35 5.2 29.25 5.15 29.2 5.15 29.1 5.1 29.0 5.1 28.9 5.1 28.85 5.05 28.75 5.05 28.65 5.0 28.55 5.0 28.5 4.95 28.4 4.85 28.3 4.85 28.2 4.75 28.15 4.75 28.05 4.7 27.95 4.7 27.85 4.7 27.8 4.65 27.7 4.65 27.6 4.65 27.5 4.6 27.4 4.6 27.3 4.55 27.2 4.55 27.1 4.55 27.05 4.5 26.95 4.5 26.9 4.45 26.8 4.45 26.7 4.4 26.6 4.4 26.5 4.4 26.4 4.35 26.35 4.35 26.25 4.3 26.15 4.3 26.05 4.3 25.95 4.25 25.85 4.3 25.7 4.25 25.6 4.3 25.55 4.35 25.45 4.3 25.35 4.4 25.2 4.4 25.1 4.5 25.0 4.55 24.85 4.65 24.85 4.75 24.75 4.9 24.75 5.1 24.65 5.3 24.65 5.55 24.65 M9.65 23.15 L9.8 23.15 9.85 23.25 10.0 23.25 10.05 23.3 10.2 23.35 10.25 23.4 10.35 23.45 10.35 23.55 10.4 23.6 10.5 23.65 10.5 23.8 10.65 23.85 10.65 23.9 10.7 24.1 10.65 24.2 10.75 24.3 10.7 24.45 10.7 24.6 10.8 24.75 10.8 24.85 10.8 25.0 10.9 25.15 10.85 25.3 10.9 25.35 10.9 25.5 10.9 25.65 11.0 25.8 10.95 25.9 11.05 26.05 11.05 26.2 11.1 26.3 11.05 26.35 11.15 26.5 11.1 26.65 11.15 26.75 11.15 26.95 11.2 27.05 11.2 27.2 11.25 27.35 11.3 27.4 11.3 27.55 11.3 27.7 11.35 27.8 11.45 27.9 11.45 28.05 11.45 28.15 11.5 28.35 11.5 28.4 11.5 28.55 11.55 28.7 11.55 28.8 11.55 29.0 11.55 29.1 11.55 29.2 11.45 29.35 11.3 29.5 11.35 29.55 11.3 29.6 11.15 29.75 11.05 29.85 10.8 30.0 10.7 30.05 10.55 30.05 10.45 30.05 10.3 30.05 10.2 30.05 10.15 30.0 10.0 29.95 9.95 29.9 9.8 29.95 9.8 29.9 9.7 29.85 9.65 29.7 9.6 29.6 9.55 29.55 9.45 29.4 9.4 29.35 9.35 29.3 9.35 29.15 9.35 29.1 9.25 28.9 9.25 28.8 9.2 28.7 9.2 28.6 9.05 28.45 9.1 28.35 9.05 28.25 9.1 28.15 8.95 28.05 9.0 27.85 8.95 27.75 8.95 27.6 8.9 27.4 8.9 27.3 8.95 27.15 8.85 27.05 8.85 26.9 8.85 26.75 8.8 26.6 8.75 26.5 8.7 26.45 8.65 26.35 8.65 26.2 8.65 26.1 8.7 25.95 8.55 25.8 8.6 25.65 8.55 25.55 8.55 25.45 8.45 25.35 8.45 25.25 8.45 25.1 8.4 25.0 8.4 24.85 8.4 24.6 8.4 24.45 8.35 24.35 8.4 24.1 8.4 24.05 8.4 23.95 8.45 23.8 8.6 23.6 8.7 23.5 8.9 23.3 9.15 23.2 9.2 23.15 9.4 23.2 9.5 23.15 9.65 23.15 M15.15 19.95 L15.3 19.85 15.4 19.95 15.55 19.9 15.6 19.85 15.7 19.9 15.8 19.9 15.9 19.95 16.05 20.0 16.15 20.05 16.2 20.05 16.3 20.15 16.3 20.2 16.35 20.3 16.45 20.35 16.5 20.45 16.6 20.55 16.6 20.65 16.7 20.65 Q16.65 20.8 16.75 20.8 L16.8 20.85 16.8 20.95 16.85 21.1 16.85 21.2 16.95 21.3 17.0 21.4 17.1 21.45 17.05 21.65 17.1 21.65 17.2 21.75 17.25 21.85 17.3 21.9 17.35 22.0 17.45 22.1 17.45 22.25 17.55 22.3 17.5 22.4 17.6 22.45 17.65 22.6 17.7 22.7 17.75 22.75 17.85 22.85 17.9 22.9 17.95 22.95 18.0 23.05 18.05 23.15 18.15 23.25 18.15 23.35 18.2 23.4 18.3 23.55 18.35 23.65 18.4 23.65 18.4 23.75 18.45 23.8 18.6 23.85 18.65 23.95 18.7 24.05 18.7 24.2 18.75 24.35 18.75 24.5 18.7 24.65 18.75 24.8 18.65 24.9 18.5 25.1 18.5 25.15 18.45 25.25 18.25 25.35 18.05 25.5 17.9 25.5 17.75 25.5 17.7 25.5 17.55 25.55 17.45 25.55 17.35 25.55 17.3 25.45 17.2 25.45 17.1 25.45 17.0 25.4 16.9 25.35 16.85 25.3 16.75 25.2 16.7 25.2 16.6 25.15 16.55 25.05 16.45 24.95 16.4 24.9 16.35 24.8 16.35 24.75 16.25 24.65 16.2 24.5 16.15 24.45 16.1 24.35 16.0 24.3 16.0 24.25 15.95 24.15 15.85 24.05 15.85 23.9 15.75 23.85 15.7 23.8 15.65 23.7 15.55 23.6 15.5 23.5 15.55 23.45 15.45 23.35 15.4 23.3 15.3 23.15 15.3 23.05 15.2 23.0 15.2 22.85 15.1 22.8 15.05 22.7 15.05 22.6 14.95 22.6 14.95 22.4 14.85 22.3 14.8 22.25 14.75 22.15 14.7 22.05 14.7 21.9 14.65 21.85 14.55 21.8 14.55 21.65 14.5 21.55 14.4 21.5 14.35 21.45 14.35 21.25 14.4 21.2 14.35 20.95 14.4 20.75 14.5 20.65 14.5 20.45 14.6 20.35 14.8 20.2 14.95 20.05 15.15 19.95 M12.8 21.6 L12.9 21.7 13.05 21.7 13.1 21.75 13.2 21.8 13.25 21.85 13.25 21.95 13.35 22.0 13.4 22.05 13.55 22.2 13.55 22.3 13.65 22.35 13.65 22.55 13.7 22.65 13.65 22.7 13.75 22.8 13.75 22.9 13.85 23.0 13.85 23.15 13.9 23.25 13.9 23.35 14.0 23.5 14.05 23.55 14.0 23.7 14.05 23.85 14.1 23.9 14.2 24.05 14.2 24.15 14.25 24.25 14.3 24.4 14.3 24.5 14.3 24.6 14.35 24.7 14.4 24.85 14.45 24.9 14.45 25.05 14.5 25.15 14.55 25.25 14.55 25.35 14.6 25.45 14.6 25.55 14.7 25.7 14.7 25.8 14.75 25.9 14.75 26.0 14.9 26.1 14.8 26.2 14.9 26.3 14.85 26.45 15.0 26.55 15.0 26.65 15.05 26.75 15.0 26.95 15.1 27.0 15.05 27.25 15.0 27.4 14.95 27.5 14.8 27.65 14.85 27.7 14.75 27.8 14.6 28.0 14.4 28.05 14.25 28.15 14.15 28.15 14.05 28.15 13.95 28.15 13.8 28.15 13.75 28.15 13.65 28.1 13.55 28.0 13.4 28.0 13.3 27.95 13.25 27.85 13.2 27.75 13.1 27.65 13.05 27.55 13.0 27.5 12.95 27.35 12.9 27.25 12.9 27.15 12.85 27.05 12.85 26.9 12.8 26.85 12.75 26.75 12.7 26.6 12.65 26.5 12.65 26.35 12.55 26.25 12.55 26.2 12.5 26.1 12.5 25.95 12.4 25.85 12.4 25.75 12.35 25.6 12.3 25.55 12.3 25.4 12.25 25.3 12.25 25.2 12.2 25.05 12.1 24.95 12.1 24.9 12.05 24.8 12.05 24.65 12.05 24.6 11.95 24.45 11.9 24.35 11.9 24.25 11.8 24.1 11.8 24.0 11.75 23.9 11.7 23.75 11.75 23.7 11.65 23.55 11.65 23.4 11.6 23.35 11.55 23.2 11.5 23.05 11.45 23.0 11.45 22.8 11.45 22.75 11.45 22.5 11.45 22.35 11.5 22.25 11.65 22.05 11.75 21.95 11.95 21.75 12.15 21.65 12.25 21.6 12.4 21.65 12.55 21.6 12.6 21.65 Q12.7 21.55 12.7 21.6 L12.8 21.6 M1.95 25.45 L2.05 25.55 2.05 25.65 2.15 25.7 2.15 25.8 2.2 25.9 2.2 26.0 2.15 26.1 2.2 26.2 2.2 26.3 2.2 26.4 2.2 26.5 2.2 26.6 2.25 26.7 2.25 26.8 2.25 26.85 2.25 26.95 2.25 27.05 2.25 27.15 2.2 27.3 2.25 27.4 2.25 27.45 2.3 27.55 2.3 27.6 2.3 27.7 2.3 27.8 2.3 27.9 2.3 28.0 2.3 28.1 2.3 28.2 2.3 28.3 2.3 28.35 2.3 28.45 2.3 28.55 2.25 28.7 2.25 28.8 2.2 28.9 2.25 29.0 2.2 29.1 2.2 29.15 2.25 29.25 2.2 29.35 2.2 29.5 2.2 29.55 2.2 29.65 2.25 29.75 2.25 29.85 2.3 29.9 2.3 30.0 2.3 30.1 2.3 30.2 2.3 30.3 2.3 30.4 2.25 30.5 2.25 30.65 2.15 30.7 2.05 30.8 2.05 30.95 1.85 31.1 1.65 31.2 1.45 31.2 1.5 31.25 1.25 31.25 1.05 31.25 0.85 31.2 0.7 31.15 0.6 31.05 0.55 31.0 0.4 30.95 0.35 30.85 0.25 30.75 0.25 30.65 0.2 30.55 0.15 30.45 0.15 30.35 0.1 30.3 0.1 30.2 0.05 30.1 0.05 30.0 0.05 29.95 0.0 29.85 0.0 29.75 -0.05 29.65 -0.05 29.6 -0.05 29.5 -0.1 29.4 -0.05 29.3 -0.1 29.2 -0.1 29.1 -0.1 29.0 -0.05 28.9 -0.05 28.85 -0.05 28.7 0.0 28.6 0.0 28.5 0.0 28.4 0.0 28.3 0.0 28.2 0.05 28.1 0.05 28.05 0.0 27.95 0.05 27.85 0.05 27.75 0.05 27.65 0.0 27.55 0.0 27.45 0.0 27.35 -0.05 27.3 -0.05 27.2 -0.1 27.1 -0.05 27.0 -0.05 26.9 -0.1 26.8 -0.05 26.7 -0.05 26.55 -0.05 26.5 -0.05 26.4 -0.1 26.3 -0.05 26.2 -0.1 26.1 -0.05 26.0 -0.1 25.9 -0.05 25.85 0.05 25.75 0.05 25.65 0.15 25.55 0.2 25.4 0.4 25.25 0.55 25.2 0.75 25.1 0.85 25.05 1.05 25.05 1.3 25.05 1.5 25.1 1.6 25.2 1.7 25.3 1.85 25.35 1.9 25.4 1.95 25.45 M-17.8 -26.45 L-17.65 -26.65 Q-17.55 -26.65 -17.55 -26.7 L-17.4 -26.75 -17.3 -26.8 -17.15 -26.8 -17.05 -26.85 -17.05 -26.8 -16.85 -26.8 -16.7 -26.8 -16.65 -26.75 -16.65 -26.8 -16.65 -26.75 -16.45 -26.75 -16.4 -26.7 -16.3 -26.65 -16.25 -26.55 -16.15 -26.5 -16.05 -26.4 -15.95 -26.35 -15.9 -26.25 -15.85 -26.15 -15.85 -26.05 -15.8 -25.9 -15.7 -25.8 -15.65 -25.75 -15.55 -25.65 -15.45 -25.55 -15.4 -25.4 -15.4 -25.35 -15.35 -25.2 -15.3 -25.15 -15.2 -25.0 -15.15 -24.85 -15.1 -24.7 -15.05 -24.6 -15.05 -24.45 -15.0 -24.35 -14.95 -24.2 -14.9 -24.05 -14.85 -23.95 -14.75 -23.85 -14.7 -23.75 -14.65 -23.65 -14.55 -23.55 -14.55 -23.45 -14.5 -23.3 -14.45 -23.15 -14.35 -23.1 -14.3 -22.95 -14.25 -22.8 -14.2 -22.75 -14.15 -22.6 -14.15 -22.5 -14.05 -22.4 -14.0 -22.25 -13.9 -22.15 -13.9 -21.95 -13.9 -21.8 -13.8 -21.65 -13.75 -21.45 -13.75 -21.35 -13.8 -21.3 -13.8 -21.15 -13.8 -20.9 -13.95 -20.75 -14.1 -20.55 -14.25 -20.4 -14.4 -20.35 -14.45 -20.3 -14.6 -20.25 -14.7 -20.25 -14.8 -20.25 -14.9 -20.25 -15.05 -20.2 -15.1 -20.25 -15.15 -20.25 -15.25 -20.25 -15.35 -20.3 -15.45 -20.35 -15.55 -20.4 -15.6 -20.4 -15.65 -20.5 -15.7 -20.45 -15.8 -20.5 -15.85 -20.65 -16.0 -20.7 -16.0 -20.75 -16.15 -20.95 -16.15 -21.05 -16.2 -21.15 -16.2 -21.25 -16.25 -21.4 -16.35 -21.55 -16.4 -21.65 -16.45 -21.8 -16.55 -21.9 -16.55 -22.05 -16.6 -22.05 -16.65 -22.2 -16.65 -22.4 Q-16.75 -22.4 -16.85 -22.5 L-16.8 -22.6 -16.9 -22.7 -16.95 -22.85 -17.05 -23.0 -17.05 -23.05 -17.15 -23.2 -17.15 -23.35 -17.2 -23.4 -17.25 -23.6 -17.3 -23.7 -17.35 -23.85 -17.45 -23.95 -17.5 -24.0 -17.55 -24.1 -17.6 -24.25 -17.7 -24.35 -17.75 -24.45 -17.8 -24.6 -17.85 -24.7 -17.9 -24.85 -17.95 -24.9 -18.0 -25.05 -18.1 -25.15 -18.05 -25.3 -18.15 -25.5 -18.15 -25.6 -18.15 -25.65 -18.1 -25.85 -18.0 -26.05 -18.1 -26.05 -18.05 -26.15 -17.9 -26.3 -17.8 -26.45 M-14.25 -28.0 L-14.3 -28.1 -14.05 -28.1 -13.85 -28.1 -13.65 -28.15 -13.55 -28.1 -13.4 -28.1 -13.3 -28.05 -13.15 -28.0 -13.1 -27.9 -13.0 -27.85 -12.9 -27.75 -12.85 -27.7 -12.7 -27.65 -12.7 -27.6 -12.65 -27.55 -12.5 -27.5 -12.5 -27.4 -12.4 -27.35 -12.35 -27.25 -12.3 -27.15 -12.25 -27.0 -12.2 -26.9 -12.1 -26.85 -12.1 -26.7 -12.05 -26.65 -12.0 -26.55 -12.0 -26.45 -11.95 -26.4 -11.9 -26.35 -11.8 -26.3 -11.7 -26.25 -11.65 -26.2 -11.55 -26.05 -11.5 -25.95 -11.5 -25.9 -11.45 -25.75 -11.4 -25.6 -11.35 -25.6 -11.25 -25.5 -11.25 -25.4 -11.15 -25.3 -11.15 -25.25 -11.15 -25.1 -11.1 -25.1 -11.05 -24.95 -11.0 -24.9 -10.95 -24.8 -10.9 -24.65 -10.85 -24.65 -10.8 -24.55 -10.75 -24.45 -10.7 -24.45 -10.7 -24.3 -10.65 -24.2 -10.65 -24.15 -10.55 -24.05 -10.55 -23.95 -10.5 -23.8 -10.5 -23.75 -10.45 -23.65 -10.45 -23.5 -10.45 -23.4 -10.45 -23.3 -10.5 -23.05 -10.6 -23.0 -10.7 -22.9 -10.7 -22.8 -10.85 -22.75 -11.05 -22.6 Q-11.15 -22.5 -11.2 -22.55 L-11.5 -22.5 -11.7 -22.5 -11.8 -22.6 -11.95 -22.6 -12.1 -22.7 -12.1 -22.65 -12.2 -22.75 -12.35 -22.8 -12.35 -22.9 -12.45 -23.0 -12.45 -23.05 -12.55 -23.1 -12.55 -23.25 -12.65 -23.35 -12.65 -23.45 -12.75 -23.55 -12.75 -23.6 -12.85 -23.75 -12.85 -23.8 -12.95 -23.9 -12.9 -23.95 -13.0 -24.0 -12.95 -24.1 -13.05 -24.2 -13.1 -24.25 -13.15 -24.4 -13.15 -24.45 -13.25 -24.55 -13.35 -24.6 -13.4 -24.65 -13.45 -24.75 -13.5 -24.85 -13.6 -24.85 -13.6 -25.0 -13.7 -25.05 -13.75 -25.1 -13.75 -25.15 -13.8 -25.25 -13.85 -25.3 -13.9 -25.45 -13.9 -25.5 -13.95 -25.6 -14.0 -25.75 -14.05 -25.8 -14.15 -25.9 -14.3 -25.95 -14.35 -25.95 -14.45 -26.05 -14.45 -26.1 -14.5 -26.15 -14.6 -26.3 -14.65 -26.4 -14.65 -26.45 -14.75 -26.55 -14.75 -26.6 -14.8 -26.75 -14.85 -26.8 -14.85 -26.85 -14.85 -27.0 -14.85 -27.05 -14.9 -27.15 -14.85 -27.25 -14.85 -27.4 -14.75 -27.5 -14.7 -27.65 -14.6 -27.7 -14.55 -27.85 -14.4 -27.9 -14.25 -28.0 M-5.1 -30.4 L-5.0 -30.5 -4.95 -30.65 -4.8 -30.7 -4.6 -30.8 -4.6 -30.85 -4.45 -30.9 -4.25 -30.9 -4.05 -30.9 -3.85 -30.9 -3.75 -30.8 -3.65 -30.85 -3.55 -30.8 -3.5 -30.7 -3.4 -30.65 -3.35 -30.55 -3.3 -30.5 -3.2 -30.45 -3.1 -30.4 -3.1 -30.3 -3.1 -30.25 -3.05 -30.1 -3.0 -30.05 -2.9 -29.95 -2.9 -29.85 -2.9 -29.7 -2.85 -29.65 -2.85 -29.6 -2.85 -29.55 -2.8 -29.4 -2.85 -29.25 -2.85 -29.15 -2.9 -29.0 -2.8 -28.9 -2.8 -28.8 -2.8 -28.7 -2.85 -28.55 -2.75 -28.45 -2.75 -28.4 -2.7 -28.25 -2.7 -28.1 -2.7 -28.05 -2.75 -28.0 -2.7 -27.85 -2.7 -27.8 -2.75 -27.6 -2.75 -27.5 -2.7 -27.45 Q-2.65 -27.35 -2.75 -27.35 L-2.65 -27.25 -2.7 -27.15 -2.75 -27.05 -2.65 -26.95 -2.75 -26.75 -2.7 -26.65 -2.7 -26.55 -2.65 -26.5 -2.65 -26.4 -2.75 -26.25 -2.75 -26.2 -2.65 -26.1 -2.7 -25.95 -2.7 -25.9 -2.7 -25.75 -2.7 -25.7 -2.75 -25.5 -2.85 -25.45 -2.95 -25.2 -3.0 -25.15 -3.1 -25.05 -3.25 -24.9 -3.4 -24.8 -3.6 -24.8 -3.85 -24.75 -4.05 -24.75 -4.2 -24.75 -4.3 -24.9 -4.45 -24.9 -4.5 -24.85 -4.55 -25.0 -4.65 -25.05 -4.7 -25.1 -4.8 -25.2 -4.9 -25.25 -4.9 -25.3 -5.0 -25.45 -4.95 -25.5 -4.95 -25.6 -5.0 -25.7 -4.95 -25.8 -5.05 -25.95 -5.0 -26.05 -5.1 -26.1 -5.0 -26.25 -5.05 -26.3 -5.0 -26.4 -5.0 -26.55 -4.95 -26.65 -5.0 -26.8 -5.0 -26.85 -5.1 -26.95 -4.95 -27.1 -5.0 -27.15 -5.0 -27.25 -5.05 -27.35 -5.0 -27.5 -5.0 -27.55 -5.05 -27.7 -4.95 -27.85 -5.05 -27.9 -4.95 -28.0 -5.05 -28.1 -5.0 -28.25 -5.0 -28.3 -5.05 -28.35 -5.1 -28.55 -5.1 -28.6 -5.15 -28.7 -5.1 -28.8 -5.1 -28.9 -5.15 -29.05 -5.1 -29.1 -5.15 -29.15 -5.15 -29.35 -5.15 -29.45 -5.15 -29.5 -5.15 -29.6 -5.15 -29.7 -5.25 -29.75 -5.25 -29.85 -5.3 -29.95 -5.2 -30.1 -5.15 -30.25 -5.1 -30.4 M-7.55 -29.05 L-7.45 -29.0 -7.45 -28.9 -7.4 -28.8 -7.4 -28.7 -7.35 -28.65 -7.3 -28.55 -7.25 -28.5 -7.2 -28.4 -7.2 -28.35 -7.1 -28.25 -7.15 -28.15 -7.1 -28.0 -7.1 -27.8 -7.15 -27.75 -7.1 -27.65 -7.1 -27.55 -7.0 -27.45 -7.05 -27.35 -7.05 -27.2 -7.0 -27.2 -7.0 -27.05 -6.9 -27.0 -6.95 -26.9 -6.9 -26.8 -6.85 -26.7 -6.85 -26.65 -6.8 -26.5 -6.75 -26.5 -6.75 -26.4 -6.65 -26.3 -6.7 -26.2 -6.65 -26.1 -6.6 -26.0 -6.55 -25.9 -6.55 -25.8 -6.45 -25.7 -6.5 -25.6 -6.5 -25.45 -6.45 -25.4 -6.4 -25.2 -6.35 -25.15 -6.35 -25.05 -6.45 -25.0 -6.45 -24.85 Q-6.4 -24.75 -6.5 -24.7 L-6.5 -24.55 -6.65 -24.45 -6.85 -24.25 -6.95 -24.1 -7.1 -24.1 Q-7.1 -24.0 -7.2 -24.05 L-7.5 -24.0 -7.7 -24.0 -7.85 -24.05 -7.9 -24.1 -8.1 -24.15 -8.25 -24.25 -8.35 -24.3 -8.4 -24.4 -8.4 -24.45 -8.5 -24.5 -8.5 -24.6 -8.6 -24.7 -8.6 -24.85 -8.7 -24.95 -8.65 -25.1 -8.75 -25.2 -8.75 -25.25 -8.8 -25.3 -8.8 -25.4 -8.8 -25.55 -8.9 -25.6 -8.9 -25.75 -8.9 -25.9 -8.95 -26.0 -9.05 -26.05 -9.05 -26.15 -9.1 -26.15 -9.15 -26.3 -9.1 -26.4 -9.15 -26.45 -9.15 -26.6 -9.25 -26.7 -9.25 -26.75 -9.25 -26.9 -9.35 -27.0 -9.3 -27.1 -9.35 -27.25 -9.3 -27.35 -9.35 -27.45 -9.35 -27.5 -9.4 -27.65 -9.4 -27.75 -9.45 -27.8 -9.45 -27.9 -9.4 -27.95 -9.5 -28.05 -9.5 -28.15 -9.6 -28.25 -9.65 -28.35 -9.7 -28.45 -9.75 -28.6 -9.7 -28.65 -9.8 -28.75 -9.75 -28.9 -9.75 -29.0 -9.8 -29.1 -9.7 -29.2 -9.7 -29.35 -9.65 -29.45 -9.55 -29.65 -9.3 -29.8 -9.15 -29.9 Q-9.05 -29.9 -8.95 -30.0 L-8.85 -30.05 -8.55 -30.05 -8.45 -29.95 -8.3 -29.95 -8.25 -29.9 -8.1 -29.85 -8.0 -29.85 -7.9 -29.75 -7.85 -29.65 -7.85 -29.6 -7.75 -29.45 -7.65 -29.3 -7.55 -29.2 -7.55 -29.05 M-20.55 -24.65 L-20.35 -24.65 -20.35 -24.7 -20.15 -24.65 -19.95 -24.6 -19.75 -24.5 -19.65 -24.4 -19.55 -24.3 -19.45 -24.25 -19.4 -24.15 -19.3 -24.05 -19.25 -23.95 -19.25 -23.85 -19.2 -23.75 -19.15 -23.65 -19.05 -23.55 -19.05 -23.5 -19.0 -23.4 -18.9 -23.3 -18.85 -23.2 -18.8 -23.1 -18.8 -23.0 -18.75 -22.9 -18.65 -22.8 -18.65 -22.75 -18.6 -22.65 -18.55 -22.55 -18.55 -22.45 -18.5 -22.35 -18.5 -22.25 -18.4 -22.15 -18.4 -22.05 -18.3 -22.0 -18.25 -21.9 -18.15 -21.8 -18.1 -21.7 -18.05 -21.6 -18.05 -21.5 -18.0 -21.4 -17.9 -21.3 -17.9 -21.25 -17.85 -21.15 -17.75 -21.05 -17.65 -20.95 -17.55 -20.85 -17.5 -20.75 -17.4 -20.65 -17.4 -20.55 -17.3 -20.5 -17.25 -20.4 -17.15 -20.3 -17.1 -20.2 -17.05 -20.1 -17.05 -20.0 -17.05 -19.9 -17.0 -19.8 -17.0 -19.75 -17.0 -19.65 -17.0 -19.55 -17.05 -19.45 -17.05 -19.35 -17.05 -19.25 -17.1 -19.15 -17.15 -19.05 -17.25 -19.0 -17.3 -18.9 -17.4 -18.8 -17.5 -18.7 -17.7 -18.6 -17.9 -18.55 -18.1 -18.5 -18.3 -18.55 -18.4 -18.55 -18.3 -18.45 -18.25 -18.4 -18.2 -18.3 -18.1 -18.25 -18.0 -18.25 -18.0 -18.15 -17.9 -18.1 -17.8 -18.1 -17.7 -18.05 -17.8 -18.0 -17.85 -18.05 -18.0 -18.1 -18.05 -18.15 -18.1 -18.25 -18.25 -18.25 -18.25 -18.3 -18.4 -18.4 -18.45 -18.5 -18.55 -18.55 -18.55 -18.6 -18.75 -18.7 -18.8 -18.8 -18.9 -18.9 -19.0 -19.0 -19.05 -19.05 -19.15 -19.15 -19.2 -19.25 -19.3 -19.35 -19.4 -19.45 -19.5 -19.55 -19.55 -19.65 -19.65 -19.75 -19.75 -19.8 -19.75 -19.9 -19.8 -20.0 -19.85 -20.1 -19.9 -20.2 -19.95 -20.3 -20.0 -20.4 -20.05 -20.5 -20.1 -20.55 -20.2 -20.65 -20.3 -20.75 -20.35 -20.85 -20.4 -20.95 -20.4 -21.05 -20.4 -21.15 -20.5 -21.25 -20.5 -21.3 -20.55 -21.4 -20.6 -21.5 -20.65 -21.6 -20.7 -21.7 -20.75 -21.8 -20.8 -21.9 -20.8 -22.0 -20.9 -22.05 -20.95 -22.15 -21.0 -22.25 -21.05 -22.35 -21.05 -22.45 -21.1 -22.55 -21.15 -22.65 -21.25 -22.75 -21.25 -22.8 -21.3 -22.9 -21.35 -23.0 -21.4 -23.1 -21.4 -23.2 -21.4 -23.3 -21.45 -23.4 -21.45 -23.5 -21.45 -23.55 -21.45 -23.65 -21.45 -23.75 -21.4 -23.85 -21.4 -23.95 -21.35 -24.05 -21.3 -24.15 -21.25 -24.25 -21.15 -24.3 -21.05 -24.4 -21.0 -24.5 -20.8 -24.6 -20.55 -24.65 M-23.75 -20.3 L-23.6 -20.5 -23.45 -20.6 -23.35 -20.6 -23.3 -20.65 -23.15 -20.7 -23.05 -20.7 -23.05 -20.75 -22.95 -20.75 -22.9 -20.75 -22.8 -20.75 -22.7 -20.7 -22.6 -20.7 -22.45 -20.7 -22.4 -20.65 -22.35 -20.65 -22.25 -20.6 -22.15 -20.55 -22.05 -20.55 -21.95 -20.5 -21.85 -20.45 -21.85 -20.35 -21.75 -20.35 -21.7 -20.25 -21.65 -20.2 -21.55 -20.15 -21.45 -20.0 -21.4 -19.9 -21.3 -19.9 -21.25 -19.85 -21.15 -19.8 -21.1 -19.75 -21.05 -19.65 -20.95 -19.55 -20.85 -19.55 -20.75 -19.45 -20.75 -19.35 -20.65 -19.25 -20.6 -19.2 -20.55 -19.1 -20.45 -19.05 -20.35 -19.0 -20.3 -18.9 -20.25 -18.8 -20.2 -18.8 -20.15 -18.75 -20.1 -18.7 -20.0 -18.65 -19.95 -18.6 -19.9 -18.45 -19.8 -18.4 -19.75 -18.3 -19.7 -18.2 -19.6 -18.15 -19.5 -18.05 -19.45 -18.0 -19.4 -17.85 -19.35 -17.8 -19.25 -17.75 -19.2 -17.65 -19.1 -17.55 -19.05 -17.55 -18.95 -17.45 -18.9 -17.3 -18.9 -17.2 -18.85 -17.0 -18.8 -16.8 -18.85 -16.7 -18.9 -16.5 -19.0 -16.35 -19.05 -16.15 -19.2 -16.0 -19.35 -15.8 -19.5 -15.75 -19.55 -15.75 -19.6 -15.7 -19.65 -15.7 -19.75 -15.7 -19.85 -15.6 -19.9 -15.6 -20.0 -15.65 -20.1 -15.65 -20.25 -15.65 -20.35 -15.65 -20.45 -15.7 -20.55 -15.7 -20.65 -15.8 -20.7 -15.85 -20.75 -15.9 -20.85 -15.95 -20.85 -16.0 -21.0 -16.05 -21.05 -16.15 -21.15 -16.15 -21.2 -16.3 -21.25 -16.35 -21.3 -16.45 -21.4 -16.6 -21.45 -16.7 -21.5 -16.7 -21.6 -16.8 -21.7 -16.8 -21.75 -17.05 -21.8 -17.0 -21.9 -17.1 -21.95 -17.15 -22.05 -17.25 -22.15 -17.3 -22.15 -17.35 -22.2 -17.5 -22.35 -17.55 -22.3 -17.65 -22.45 -17.65 -22.5 -17.8 -22.55 -17.9 -22.65 -17.95 -22.8 -18.0 -22.85 -18.05 -22.9 -18.05 -22.95 -18.15 -23.05 -18.25 -23.2 -18.3 -23.2 -18.4 -23.3 -18.45 -23.4 -18.6 -23.45 -18.6 -23.55 -18.65 -23.55 -18.75 -23.6 -18.8 -23.7 -18.8 -23.8 -18.9 -23.85 -18.95 -23.9 -19.1 -23.95 -19.2 -24.0 -19.35 -24.0 -19.55 -24.05 -19.7 -24.0 -19.8 -23.95 -20.0 -24.0 -20.05 -23.9 -20.15 -23.75 -20.3 M-25.5 -17.05 L-25.45 -17.0 -25.3 -17.0 -25.2 -16.95 -25.15 -16.95 -25.05 -16.9 -24.95 -16.9 -24.85 -16.85 -24.75 -16.8 -24.7 -16.75 -24.6 -16.75 -24.5 -16.7 -24.45 -16.65 -24.35 -16.65 -24.25 -16.6 -24.2 -16.5 -24.15 -16.5 -24.05 -16.45 -23.95 -16.35 -23.85 -16.25 -23.8 -16.25 -23.75 -16.15 -23.65 -16.1 -23.55 -16.05 -23.55 -15.95 -23.45 -15.9 -23.35 -15.85 -23.25 -15.75 -23.2 -15.7 -23.1 -15.7 -23.05 -15.6 -23.0 -15.5 -22.9 -15.5 -22.8 -15.45 -22.7 -15.4 -22.65 -15.4 -22.6 -15.35 -22.55 -15.35 -22.45 -15.3 -22.4 -15.3 -22.3 -15.2 -22.2 -15.15 -22.1 -15.1 -22.05 -15.05 -21.95 -15.0 -21.9 -14.95 -21.8 -14.95 -21.75 -14.9 -21.7 -14.8 -21.6 -14.8 -21.5 -14.7 -21.4 -14.65 -21.3 -14.55 -21.3 -14.45 -21.25 -14.35 -21.2 -14.25 -21.15 -14.1 -21.1 -13.9 -21.15 -13.7 -21.15 -13.45 -21.2 -13.35 -21.3 -13.25 -21.45 -13.0 -21.65 -12.85 -21.7 -12.8 -21.8 -12.8 -21.9 -12.75 -22.0 -12.75 -22.05 -12.7 -22.15 -12.7 -22.2 -12.65 -22.25 -12.65 -22.35 -12.65 -22.5 -12.7 -22.55 -12.7 -22.65 -12.7 -22.75 -12.75 -22.85 -12.75 -23.0 -12.9 -23.15 -12.9 -23.2 -13.05 -23.25 -13.05 -23.3 -13.1 -23.45 -13.1 -23.5 -13.2 -23.6 -13.3 -23.7 -13.3 -23.8 -13.35 -23.9 -13.45 -23.95 -13.5 -24.1 -13.5 -24.15 -13.6 -24.2 -13.6 -24.3 -13.65 -24.35 -13.7 -24.4 -13.75 -24.45 -13.75 -24.55 -13.85 -24.65 -13.8 -24.7 -13.85 -24.85 -13.95 -24.95 -14.05 -25.0 -14.15 -25.15 -14.2 -25.15 -14.3 -25.25 -14.4 -25.3 -14.4 -25.4 -14.45 -25.45 -14.45 -25.55 -14.5 -25.65 -14.65 -25.65 -14.7 -25.75 -14.7 -25.85 -14.8 -25.95 -14.8 -26.05 -14.85 -26.15 -14.9 -26.3 -14.9 -26.4 -15.0 -26.45 -15.0 -26.5 -15.15 -26.6 -15.25 -26.65 -15.25 -26.65 -15.45 -26.75 -15.5 -26.8 -15.6 -26.85 -15.8 -26.8 -16.15 -26.75 -16.35 -26.65 -16.5 -26.6 -16.6 -26.45 -16.7 -26.4 -16.7 -26.35 -16.8 -26.25 -16.8 -26.15 -16.9 -26.05 -16.95 -25.95 -16.95 -25.8 -17.05 -25.7 -17.05 -25.6 -17.05 -25.5 -17.05 M-30.4 -8.85 L-30.3 -8.95 -30.25 -9.0 -30.15 -9.05 -30.1 -9.1 -30.0 -9.1 -29.9 -9.1 -29.8 -9.1 -29.7 -9.15 -29.55 -9.1 -29.45 -9.1 -29.4 -9.1 -29.3 -9.0 -29.2 -9.0 -29.05 -8.9 -28.9 -8.85 -28.8 -8.85 -28.65 -8.85 -28.55 -8.85 -28.45 -8.8 -28.4 -8.75 -28.25 -8.7 -28.15 -8.65 -28.0 -8.6 -27.9 -8.55 -27.75 -8.45 -27.6 -8.4 -27.45 -8.35 -27.45 -8.25 -27.3 -8.2 -27.15 -8.15 -27.05 -8.05 -26.9 -8.0 -26.8 -8.0 -26.65 -7.95 -26.55 -7.95 -26.45 -7.9 -26.35 -7.85 -26.2 -7.75 -26.1 -7.7 -25.95 -7.65 -25.85 -7.6 -25.7 -7.55 -25.6 -7.5 -25.5 -7.5 -25.45 -7.45 -25.3 -7.4 -25.15 -7.35 -25.0 -7.15 -24.85 -7.1 -24.75 -7.05 -24.6 -6.9 -24.5 -6.9 -24.45 -6.8 -24.35 -6.65 -24.25 -6.45 -24.2 -6.25 -24.2 -6.05 -24.2 -5.8 -24.3 -5.7 -24.35 -5.6 -24.45 -5.45 -24.5 -5.35 -24.55 -5.3 -24.65 -5.2 -24.7 -5.2 -24.75 -5.15 -24.85 -5.1 -24.95 -5.05 -25.05 -5.05 -25.15 -5.0 -25.25 -5.0 -25.35 -4.95 -25.4 -4.9 -25.5 -4.95 -25.6 -4.95 -25.75 -4.95 -25.85 -5.05 -26.0 -5.1 -26.05 -5.15 -26.2 -5.2 -26.35 -5.3 -26.4 -5.35 -26.55 -5.35 -26.7 -5.4 -26.8 -5.45 -26.95 -5.55 -27.0 -5.55 -27.15 -5.65 -27.3 -5.75 -27.4 -5.75 -27.5 -5.85 -27.65 -5.85 -27.8 -5.9 -27.9 -6.0 -28.0 -6.0 -28.1 -6.1 -28.25 -6.15 -28.4 -6.2 -28.5 -6.35 -28.6 -6.35 -28.75 -6.35 -28.85 -6.45 -28.95 -6.45 -29.05 -6.5 -29.2 -6.6 -29.3 -6.6 -29.45 -6.6 -29.5 -6.7 -29.65 -6.75 -29.8 -6.75 -29.9 -6.85 -30.0 -6.85 -30.15 -6.95 -30.25 -7.0 -30.4 -7.1 -30.5 -7.2 -30.55 -7.3 -30.6 -7.4 -30.65 -7.6 -30.7 -7.55 -30.75 -7.65 -30.75 -7.9 -30.8 -8.1 -30.8 -8.3 -30.75 -8.4 -30.7 -8.55 -30.65 -8.6 -30.55 -8.75 -30.5 -8.85 -30.4 -8.85 M-31.0 -4.8 L-30.9 -4.9 -30.8 -4.9 -30.7 -4.95 -30.65 -5.05 -30.6 -5.05 -30.55 -5.1 -30.4 -5.05 -30.3 -5.1 -30.2 -5.1 -30.1 -5.1 -29.95 -5.05 -29.85 -5.05 -29.75 -5.05 -29.7 -5.0 -29.6 -5.0 -29.45 -4.9 -29.3 -4.9 -29.2 -4.9 -29.05 -4.8 -28.95 -4.8 -28.8 -4.75 -28.75 -4.7 -28.7 -4.7 -28.55 -4.65 -28.45 -4.65 -28.3 -4.6 -28.2 -4.6 -28.05 -4.55 -27.95 -4.55 -27.85 -4.45 -27.75 -4.45 -27.65 -4.4 -27.55 -4.35 -27.45 -4.35 -27.3 -4.35 -27.2 -4.25 -27.05 -4.25 -27.0 -4.2 -26.85 -4.2 -26.8 -4.2 -26.65 -4.1 -26.55 -4.1 -26.4 -4.05 -26.3 -4.0 -26.15 -4.0 -26.1 -3.95 -25.95 -3.9 -25.85 -3.9 -25.75 -3.9 -25.65 -3.85 -25.5 -3.8 -25.4 -3.8 -25.25 -3.7 -25.2 -3.65 -25.05 -3.5 -24.9 -3.4 -24.85 -3.3 -24.7 -3.1 -24.7 -2.9 -24.65 -2.65 -24.7 -2.45 -24.75 -2.35 -24.85 -2.25 -24.9 -2.1 -24.95 -2.05 -25.0 -1.95 -25.1 -1.85 -25.15 -1.85 -25.25 -1.75 -25.35 -1.7 -25.45 -1.65 -25.55 -1.65 -25.6 -1.65 -25.7 -1.65 -25.8 -1.6 -25.85 -1.6 -26.0 -1.65 -26.1 -1.65 -26.25 -1.7 -26.35 -1.8 -26.45 -1.8 -26.55 -1.85 -26.65 -1.85 -26.8 -1.85 -26.85 -1.9 -27.0 -1.95 -27.1 -1.95 -27.25 -2.0 -27.3 -2.0 -27.45 -2.05 -27.6 -2.15 -27.7 -2.15 -27.8 -2.15 -27.9 -2.2 -28.0 -2.25 -28.15 -2.2 -28.2 -2.3 -28.35 -2.3 -28.45 -2.35 -28.6 -2.4 -28.7 -2.4 -28.8 -2.5 -28.9 -2.5 -29.0 -2.5 -29.1 -2.6 -29.2 -2.6 -29.35 -2.65 -29.45 -2.65 -29.6 -2.65 -29.7 -2.7 -29.8 -2.75 -29.9 -2.75 -30.0 -2.85 -30.1 -2.85 -30.25 -2.9 -30.35 -2.95 -30.5 -2.95 -30.6 -3.0 -30.7 -3.05 -30.85 -3.1 -30.95 -3.25 -31.1 -3.35 -31.15 -3.5 -31.2 -3.65 -31.25 -3.65 -31.25 -3.85 -31.3 -4.05 -31.25 -4.3 -31.2 -4.45 -31.2 -4.5 -31.15 -4.6 -31.1 -4.7 -31.0 -4.8 M-31.1 -0.1 L-31.0 -0.25 -30.95 -0.35 -30.85 -0.35 -30.75 -0.4 -30.65 -0.45 -30.6 -0.5 -30.5 -0.55 -30.45 -0.6 -30.35 -0.6 -30.25 -0.65 -30.15 -0.7 -30.05 -0.7 -29.95 -0.75 -29.85 -0.75 -29.8 -0.75 -29.75 -0.8 -29.6 -0.75 -29.5 -0.8 -29.4 -0.75 -29.25 -0.7 -29.15 -0.75 -29.05 -0.8 -29.0 -0.75 -28.95 -0.75 -28.8 -0.7 -28.7 -0.7 -28.6 -0.75 -28.5 -0.75 -28.35 -0.7 -28.25 -0.7 -28.15 -0.7 -28.1 -0.65 -28.0 -0.65 -27.9 -0.65 -27.8 -0.65 -27.65 -0.7 -27.55 -0.65 -27.45 -0.65 -27.35 -0.7 -27.25 -0.65 -27.2 -0.6 -27.1 -0.6 -26.95 -0.55 -26.85 -0.55 -26.75 -0.6 -26.6 -0.55 -26.5 -0.55 -26.4 -0.45 -26.3 -0.45 -26.25 -0.5 -26.1 -0.45 -26.0 -0.45 -25.9 -0.45 -25.75 -0.45 -25.65 -0.4 -25.55 -0.3 -25.4 -0.2 -25.3 -0.1 -25.25 0.05 -25.15 0.2 -25.1 0.35 -25.05 0.55 -25.0 0.85 -25.0 1.0 -25.05 1.15 -25.15 1.25 -25.2 1.35 -25.25 1.5 -25.35 1.5 -25.4 1.6 -25.5 1.65 -25.55 1.7 -25.65 1.75 -25.75 1.8 -25.85 1.8 -25.9 1.8 -26.0 1.85 -26.1 1.85 -26.25 1.85 -26.35 1.85 -26.4 1.8 -26.5 1.85 -26.65 1.85 -26.7 1.8 -26.8 1.8 -26.95 1.7 -27.05 1.7 -27.2 1.75 -27.25 1.7 -27.35 1.75 -27.5 1.7 -27.55 1.65 -27.7 1.65 -27.8 1.65 -27.9 1.65 -28.0 1.65 -28.15 1.65 -28.2 1.55 -28.3 1.6 -28.4 1.55 -28.5 1.55 -28.6 1.55 -28.75 1.5 -28.85 1.55 -28.95 1.55 -29.0 1.55 -29.1 1.6 -29.2 1.55 -29.3 1.55 -29.4 1.6 -29.5 1.55 -29.65 1.55 -29.75 1.55 -29.85 1.55 -30.0 1.55 -30.1 1.55 -30.2 1.6 -30.3 1.6 -30.4 1.55 -30.55 1.5 -30.7 1.45 -30.75 1.35 -30.85 1.3 -31.05 1.15 -31.1 1.0 -31.15 0.8 -31.2 0.85 -31.2 0.6 -31.25 0.45 -31.2 0.2 -31.2 0.1 -31.1 -0.05 -31.1 -0.1 M-23.55 -10.9 L-23.55 -10.8 -23.45 -10.75 -23.4 -10.7 -23.35 -10.55 -23.25 -10.5 -23.2 -10.35 -23.2 -10.3 -23.15 -10.2 -23.15 -10.1 -23.15 -9.95 -23.2 -9.8 -23.2 -9.6 -23.35 -9.45 -23.45 -9.25 -23.55 -9.15 -23.65 -9.05 -23.75 -9.05 -23.85 -9.05 -23.95 -8.95 -24.1 -8.95 -24.15 -8.9 -24.25 -8.9 Q-24.3 -8.8 -24.4 -8.85 L-24.45 -8.9 -24.6 -8.95 -24.65 -9.0 -24.75 -9.0 -24.85 -9.1 -24.9 -9.05 -25.0 -9.1 -25.1 -9.15 -25.2 -9.2 -25.25 -9.2 -25.35 -9.25 -25.45 -9.25 -25.55 -9.3 -25.55 -9.35 -25.7 -9.35 -25.75 -9.4 -25.75 -9.45 -25.9 -9.45 -25.95 -9.5 -26.1 -9.55 -26.15 -9.6 -26.2 -9.6 -26.3 -9.55 -26.4 -9.6 -26.55 -9.6 -26.7 -9.6 -26.8 -9.6 -26.95 -9.65 -27.0 -9.65 -27.05 -9.7 -27.15 -9.75 -27.2 -9.75 -27.3 -9.85 -27.4 -9.85 -27.45 -9.9 -27.6 -9.95 -27.65 -10.0 -27.7 -10.0 -27.8 -9.95 -27.9 -9.95 -28.0 -9.95 -28.1 -9.95 -28.15 -9.9 -28.3 -9.95 -28.4 -10.0 -28.55 -10.0 -28.55 -10.05 -28.65 -10.05 -28.75 -10.1 -28.85 -10.15 -28.95 -10.2 -29.05 -10.3 -29.1 -10.4 -29.2 -10.45 -29.25 -10.55 -29.35 -10.6 -29.35 -10.8 -29.4 -11.0 -29.35 -11.05 -29.4 -11.2 -29.4 -11.3 -29.3 -11.5 -29.35 -11.5 -29.2 -11.7 -29.1 -11.85 -28.9 -12.0 -28.85 -12.05 -28.75 -12.1 -28.75 -12.15 -28.65 -12.2 -28.55 -12.2 -28.5 -12.2 -28.5 -12.25 -28.45 -12.2 -28.4 -12.25 -28.3 -12.3 -28.15 -12.25 -28.05 -12.25 -28.0 -12.3 -27.85 -12.3 -27.8 -12.25 -27.7 -12.3 -27.55 -12.3 -27.45 -12.25 -27.35 -12.3 -27.3 -12.25 -27.2 -12.2 -27.1 -12.15 -27.05 -12.15 -26.95 -12.1 -26.85 -12.1 -26.75 -12.05 -26.65 -12.0 -26.6 -11.95 -26.5 -11.95 -26.4 -11.9 -26.35 -11.85 -26.25 -11.9 -26.1 -11.9 -26.0 -11.85 -25.95 -11.9 -25.85 -11.85 -25.75 -11.8 -25.65 -11.75 -25.6 -11.75 -25.5 -11.7 -25.4 -11.7 -25.3 -11.65 -25.25 -11.6 -25.15 -11.55 -25.05 -11.55 -24.95 -11.5 -24.9 -11.45 -24.8 -11.45 -24.7 -11.4 -24.65 -11.35 -24.55 -11.35 -24.45 -11.3 -24.35 -11.25 -24.25 -11.2 -24.2 -11.2 -24.1 -11.15 -24.05 -11.15 -23.95 -11.1 -23.85 -11.05 -23.75 -11.0 -23.65 -10.95 -23.55 -10.9 M-17.4 -18.05 L-17.35 -18.1 -17.3 -18.05 -17.2 -18.15 -17.05 -18.15 -17.2 -18.1 -17.25 -18.05 -17.4 -18.05 -17.5 -18.05 -17.45 -18.05 -17.4 -18.05 M-20.25 14.65 L-20.15 14.8 -20.2 14.85 -20.15 14.95 -20.15 15.05 -20.25 15.1 -20.2 15.25 -20.25 15.3 -20.3 15.45 -20.35 15.5 -20.4 15.55 -20.45 15.65 -20.45 15.7 -20.6 15.85 -20.7 15.85 -20.75 15.95 -20.95 15.95 -21.05 16.05 -21.1 16.0 -21.2 16.05 -21.3 16.1 -21.4 16.15 -21.55 16.2 -21.65 16.25 -21.75 16.3 -21.9 16.35 -21.9 16.45 -22.1 16.4 -22.2 16.5 -22.25 16.5 -22.35 16.65 -22.45 16.65 -22.55 16.75 -22.7 16.75 -22.8 16.8 -22.9 16.8 -23.0 16.9 -23.15 16.9 -23.2 17.0 -23.35 17.0 -23.45 17.1 -23.55 17.15 -23.65 17.15 -23.75 17.25 -23.85 17.3 -23.95 17.35 -24.05 17.4 -24.15 17.45 -24.25 17.5 -24.35 17.6 -24.45 17.55 -24.55 17.65 -24.7 17.65 -24.8 17.75 -24.9 17.8 -25.0 17.85 -25.2 17.85 -25.25 17.9 -25.5 17.9 -25.65 17.9 -25.75 17.8 -25.95 17.7 -26.0 17.75 -26.1 17.65 -26.25 17.45 -26.35 17.25 -26.45 17.2 -26.45 17.1 -26.5 17.0 -26.5 16.9 -26.5 16.7 -26.5 16.65 -26.45 16.55 -26.45 16.5 -26.45 16.35 -26.4 16.2 -26.3 16.15 -26.2 16.1 -26.15 15.95 -26.05 15.95 -26.0 15.85 -25.85 15.8 -25.75 15.7 -25.65 15.75 -25.55 15.65 -25.4 15.65 -25.3 15.55 -25.25 15.5 -25.1 15.45 -25.0 15.4 -24.85 15.35 -24.75 15.3 -24.7 15.3 -24.6 15.2 -24.45 15.15 -24.35 15.1 -24.25 15.05 -24.15 15.0 -24.1 14.95 -23.95 14.95 -23.85 14.85 -23.75 14.85 -23.6 14.75 -23.5 14.7 -23.45 14.7 -23.35 14.6 -23.2 14.55 -23.15 14.55 -23.0 14.5 -22.9 14.4 -22.8 14.4 -22.7 14.3 -22.6 14.3 -22.5 14.25 -22.4 14.15 -22.3 14.2 -22.2 14.15 -22.05 14.1 -22.0 14.05 -21.85 13.95 -21.7 13.9 -21.65 13.85 -21.45 13.8 -21.4 13.8 -21.15 13.8 -21.0 13.75 -20.9 13.85 -20.7 13.9 -20.6 14.0 Q-20.45 14.05 -20.35 14.2 L-20.25 14.4 -20.2 14.5 -20.25 14.65 M-18.65 16.7 L-18.5 16.9 -18.35 17.05 -18.2 17.25 -18.1 17.35 -18.2 17.45 -18.1 17.6 -18.05 17.6 -18.1 17.75 -18.1 17.85 -18.1 17.95 -18.15 18.05 -18.2 18.2 -18.2 18.25 -18.3 18.35 -18.35 18.35 -18.45 18.45 -18.45 18.55 -18.55 18.6 -18.65 18.7 -18.75 18.7 -18.75 18.85 -18.9 18.85 -18.95 18.9 -19.05 18.95 -19.2 19.05 -19.3 19.05 -19.4 19.1 -19.5 19.2 -19.5 19.3 -19.65 19.3 -19.65 19.35 -19.75 19.4 -19.85 19.5 -19.9 19.55 -20.0 19.65 -20.1 19.7 -20.25 19.75 -20.3 19.85 -20.4 19.8 -20.4 19.95 -20.55 19.95 -20.65 20.05 -20.7 20.1 -20.8 20.2 -20.85 20.25 -20.9 20.3 -21.0 20.3 -21.1 20.4 -21.15 20.5 -21.25 20.55 -21.3 20.6 -21.4 20.7 -21.5 20.75 -21.55 20.8 -21.65 20.85 -21.65 20.9 -21.7 21.0 -21.8 21.1 -21.85 21.15 -22.0 21.2 -22.15 21.2 -22.3 21.25 -22.5 21.25 -22.65 21.25 -22.75 21.2 -22.95 21.05 -23.0 21.1 -23.1 21.0 -23.25 20.8 -23.4 20.7 -23.45 20.55 -23.45 20.4 -23.45 20.35 -23.5 20.2 -23.55 20.1 -23.55 20.0 -23.45 19.9 -23.45 19.8 -23.45 19.7 -23.4 19.6 -23.4 19.55 -23.35 19.5 -23.25 19.35 -23.25 19.3 -23.2 19.2 -23.1 19.1 -23.0 19.05 -23.0 19.0 -22.9 18.9 -22.85 18.9 -22.75 18.8 -22.6 18.75 -22.55 18.65 -22.45 18.6 -22.4 18.5 -22.35 18.5 -22.25 18.4 -22.2 18.35 -22.05 18.3 -22.0 18.25 -21.95 18.2 -21.9 18.1 -21.8 18.05 -21.7 17.95 -21.65 18.0 -21.55 17.85 -21.5 17.8 -21.4 17.75 -21.3 17.7 -21.25 17.6 -21.1 17.55 -21.05 17.45 -20.95 17.45 -20.85 17.4 -20.85 17.3 -20.65 17.25 -20.55 17.2 -20.5 17.1 -20.45 17.05 -20.35 17.0 -20.2 17.0 -20.15 16.95 -20.1 16.85 -20.0 16.8 -19.9 16.7 -19.85 16.65 -19.8 16.6 -19.6 16.55 -19.55 16.6 -19.3 16.55 -19.1 16.55 -19.0 16.65 -18.8 16.65 -18.65 16.7 M-16.0 19.3 L-15.85 19.45 -15.65 19.65 -15.5 19.8 -15.5 19.95 -15.5 20.05 -15.4 20.25 -15.45 20.4 -15.4 20.5 -15.5 20.6 -15.5 20.65 -15.5 20.8 -15.6 20.85 -15.6 20.95 -15.7 21.05 -15.75 21.05 -15.8 21.15 -15.95 21.2 -15.95 21.3 -16.0 21.35 -16.0 21.45 -16.1 21.55 -16.2 21.6 -16.25 21.75 -16.3 21.8 -16.45 21.9 -16.5 21.95 -16.55 22.05 -16.6 22.15 -16.6 22.2 -16.7 22.3 -16.8 22.3 -16.8 22.45 -16.85 22.5 -16.9 22.6 -16.9 22.65 -17.05 22.75 -17.15 22.9 -17.25 22.9 -17.3 23.0 -17.4 23.05 -17.5 23.1 -17.55 23.2 -17.6 23.3 -17.65 23.35 -17.7 23.4 -17.85 23.5 -17.9 23.5 -17.9 23.6 -18.0 23.65 -18.05 23.75 -18.05 23.8 -18.15 23.95 -18.25 24.05 -18.3 24.15 -18.35 24.25 -18.45 24.3 -18.55 24.35 -18.55 24.4 -18.75 24.4 -18.8 24.45 -18.95 24.5 -19.15 24.55 -19.45 24.4 -19.65 24.35 -19.65 24.4 -19.8 24.2 -19.95 24.15 -20.1 23.95 -20.05 23.85 -20.15 23.65 -20.15 23.6 -20.2 23.45 -20.25 23.35 -20.2 23.25 -20.15 23.15 -20.15 23.05 -20.05 22.9 -20.0 22.8 -19.95 22.7 -19.9 22.6 -19.85 22.55 -19.8 22.4 -19.75 22.35 -19.7 22.25 -19.65 22.2 -19.6 22.1 -19.6 22.0 -19.55 21.95 -19.5 21.9 -19.4 21.85 -19.4 21.75 -19.3 21.75 -19.15 21.6 -19.05 21.5 -19.0 21.5 -19.0 21.4 -18.85 21.3 -18.8 21.2 -18.7 21.2 -18.6 21.1 -18.6 21.05 -18.5 20.95 -18.45 20.85 -18.35 20.85 -18.3 20.7 -18.25 20.65 -18.25 20.55 -18.15 20.5 -18.15 20.45 -18.05 20.35 -18.05 20.25 -17.95 20.2 -17.9 20.1 -17.8 20.05 -17.75 19.9 -17.7 19.9 -17.65 19.85 -17.6 19.75 -17.55 19.65 -17.45 19.6 -17.45 19.55 -17.3 19.4 -17.3 19.35 -17.2 19.3 -17.1 19.3 -17.0 19.25 -16.85 19.25 -16.7 19.15 -16.5 19.15 -16.25 19.2 -16.05 19.25 -16.0 19.3 M-13.4 21.75 L-13.2 21.65 -13.05 21.65 -12.95 21.7 -12.85 21.65 -12.75 21.75 -12.55 21.85 -12.4 21.9 -12.15 22.15 -12.05 22.3 -12.1 22.4 -12.0 22.5 -12.05 22.7 -11.95 22.7 -12.0 22.85 -11.95 23.0 -12.0 23.05 -12.1 23.15 -12.1 23.2 -12.15 23.35 -12.25 23.4 -12.25 23.45 -12.25 23.55 -12.35 23.65 -12.3 23.75 -12.35 23.8 -12.45 23.95 -12.5 24.0 -12.5 24.1 -12.55 24.1 -12.6 24.25 -12.65 24.3 -12.7 24.4 -12.75 24.45 -12.8 24.6 -12.85 24.6 -12.9 24.7 -12.85 24.8 -12.9 24.85 -12.9 25.05 -12.95 25.1 -12.95 25.2 -13.05 25.25 -13.05 25.4 -13.1 25.45 -13.15 25.5 -13.15 25.55 -13.2 25.65 -13.3 25.75 -13.3 25.85 -13.35 25.9 -13.45 26.05 -13.5 26.1 -13.5 26.2 -13.45 26.35 -13.45 26.4 -13.5 26.55 -13.5 26.65 -13.55 26.75 -13.6 26.8 -13.65 26.9 -13.7 26.95 -13.7 27.05 -13.7 27.1 -13.8 27.25 -13.85 27.3 -13.9 27.35 -13.95 27.4 -14.05 27.5 -14.15 27.55 -14.25 27.6 -14.35 27.65 -14.5 27.65 -14.7 27.7 -14.75 27.65 -14.9 27.7 -15.05 27.6 Q-15.15 27.5 -15.2 27.5 L-15.25 27.55 -15.4 27.35 -15.5 27.25 -15.65 27.1 -15.7 26.95 -15.75 26.85 -15.8 26.75 Q-15.75 26.65 -15.85 26.6 L-15.8 26.5 -15.8 26.4 -15.8 26.25 -15.75 26.2 -15.8 26.05 -15.75 26.0 -15.75 25.95 -15.75 25.75 -15.65 25.7 -15.7 25.55 -15.65 25.5 -15.6 25.35 -15.5 25.25 -15.45 25.2 -15.45 25.1 -15.35 25.05 -15.3 24.95 -15.25 24.85 -15.2 24.75 -15.15 24.7 -15.1 24.65 -15.15 24.55 -15.15 24.45 -15.15 24.3 -15.05 24.2 -15.05 24.1 -15.0 24.05 -14.9 23.9 -14.85 23.8 -14.8 23.7 -14.75 23.6 -14.65 23.55 -14.65 23.45 -14.6 23.35 -14.55 23.25 -14.55 23.2 -14.5 23.1 -14.45 23.0 -14.45 22.95 -14.35 22.85 -14.3 22.8 -14.3 22.7 -14.2 22.65 -14.2 22.6 -14.1 22.5 -14.1 22.4 -14.05 22.35 -14.0 22.25 -13.95 22.15 -13.85 22.05 -13.75 22.0 -13.7 21.9 -13.6 21.8 -13.5 21.8 -13.4 21.75 M-10.2 23.6 L-10.1 23.45 -10.0 23.4 -9.9 23.35 -9.75 23.25 -9.55 23.2 -9.35 23.2 -9.1 23.2 -8.85 23.25 -8.8 23.35 -8.65 23.4 -8.55 23.5 -8.5 23.55 -8.4 23.6 -8.35 23.65 -8.35 23.75 -8.25 23.85 -8.25 23.95 -8.2 24.05 -8.2 24.15 -8.15 24.25 -8.2 24.3 -8.2 24.4 -8.15 24.5 -8.2 24.6 -8.2 24.7 -8.25 24.85 -8.35 24.95 -8.4 25.1 -8.45 25.15 -8.5 25.25 -8.65 25.4 -8.7 25.5 -8.75 25.65 -8.85 25.75 -8.9 25.8 -9.0 25.95 -9.05 26.0 -9.1 26.1 -9.25 26.25 -9.25 26.35 -9.35 26.5 -9.4 26.6 -9.5 26.75 -9.6 26.85 -9.55 26.9 -9.65 27.05 -9.7 27.15 -9.8 27.3 -9.95 27.4 -9.95 27.5 -10.05 27.65 -10.1 27.75 -10.15 27.85 -10.25 27.95 -10.3 28.05 -10.35 28.2 -10.35 28.25 -10.45 28.35 -10.5 28.5 -10.6 28.6 -10.7 28.7 -10.7 28.8 -10.8 28.9 -10.9 29.05 -11.0 29.15 -11.1 29.25 -11.15 29.3 -11.3 29.35 -11.5 29.4 -11.45 29.45 -11.55 29.45 -11.8 29.45 -12.0 29.45 -12.2 29.4 -12.35 29.3 -12.45 29.3 -12.5 29.2 -12.65 29.1 -12.7 29.05 -12.75 28.95 -12.8 28.85 -12.85 28.75 -12.9 28.7 -12.9 28.65 -12.95 28.55 -12.9 28.45 -12.9 28.35 -12.9 28.25 -12.85 28.1 -12.85 28.0 -12.8 27.9 -12.7 27.8 -12.7 27.7 -12.6 27.6 -12.55 27.45 -12.5 27.35 -12.5 27.25 -12.45 27.15 -12.4 27.0 -12.35 26.95 -12.25 26.85 -12.25 26.7 -12.15 26.6 -12.05 26.5 -11.95 26.4 -11.85 26.25 -11.8 26.15 -11.75 26.1 -11.65 25.95 -11.6 25.85 -11.5 25.7 -11.45 25.6 -11.4 25.5 -11.4 25.35 -11.35 25.25 -11.25 25.2 -11.2 25.05 -11.05 24.95 -11.05 24.8 -10.95 24.7 -10.85 24.6 -10.85 24.45 -10.75 24.35 -10.7 24.25 -10.65 24.15 -10.55 24.1 -10.5 23.95 -10.3 23.85 -10.3 23.7 -10.2 23.6 M-6.75 24.35 L-6.6 24.2 -6.45 24.15 -6.25 24.1 -6.05 24.1 -5.85 24.1 -5.6 24.15 -5.55 24.25 -5.45 24.3 -5.3 24.4 -5.25 24.4 -5.15 24.5 -5.1 24.6 -5.1 24.7 -5.0 24.8 -5.0 24.9 -4.95 24.95 -4.95 25.05 -5.0 25.1 -4.95 25.2 -4.95 25.3 -4.95 25.4 -5.0 25.5 -5.0 25.65 -5.1 25.75 -5.2 25.9 -5.2 25.95 -5.25 26.05 -5.25 26.15 -5.35 26.3 -5.4 26.4 -5.45 26.5 -5.5 26.6 -5.45 26.75 -5.5 26.8 -5.6 26.9 -5.65 27.05 -5.7 27.15 -5.7 27.2 -5.75 27.3 -5.8 27.45 -5.85 27.55 -5.95 27.65 -5.95 27.75 -6.0 27.85 -6.1 27.95 -6.1 28.1 -6.2 28.2 -6.2 28.3 -6.25 28.4 -6.35 28.5 -6.35 28.6 -6.4 28.7 -6.45 28.85 -6.5 28.95 -6.55 29.05 -6.6 29.2 -6.65 29.3 -6.7 29.35 -6.75 29.45 -6.8 29.55 -6.85 29.65 -6.85 29.75 -6.9 29.9 -7.0 30.0 -7.05 30.15 -7.2 30.2 -7.35 30.35 -7.5 30.4 -7.7 30.45 -7.65 30.5 -7.9 30.45 -8.1 30.45 -8.3 30.4 -8.45 30.35 -8.55 30.25 -8.6 30.2 -8.75 30.15 -8.8 30.05 -8.9 29.95 -8.9 29.9 -8.95 29.8 -8.95 29.7 -8.95 29.6 -9.0 29.55 -9.0 29.45 -9.0 29.35 -9.0 29.25 -8.95 29.15 -8.95 29.0 -8.9 28.9 -8.9 28.8 -8.8 28.75 -8.75 28.6 -8.7 28.5 -8.65 28.4 -8.65 28.25 -8.55 28.15 -8.5 28.05 -8.45 27.9 -8.4 27.85 -8.4 27.75 -8.35 27.7 -8.25 27.55 -8.2 27.45 -8.15 27.35 -8.15 27.2 -8.1 27.1 -8.0 27.05 -8.0 26.95 -7.9 26.8 -7.9 26.7 -7.85 26.6 -7.85 26.45 -7.75 26.35 -7.65 26.25 -7.65 26.15 -7.65 26.05 -7.65 25.95 -7.55 25.85 -7.5 25.7 -7.45 25.6 -7.4 25.5 -7.4 25.4 -7.3 25.35 -7.25 25.25 -7.2 25.1 -7.15 25.0 -7.15 24.9 -7.05 24.75 -7.05 24.65 -6.95 24.55 -6.85 24.45 -6.75 24.35 M-24.7 4.5 L-24.7 4.75 -24.8 4.85 -24.85 5.0 -24.95 5.1 -24.95 5.2 -25.05 5.25 -25.1 5.3 -25.2 5.35 -25.25 5.4 -25.35 5.45 -25.45 5.5 -25.55 5.5 -25.65 5.5 -25.75 5.5 -25.85 5.55 -25.9 5.6 -26.0 5.6 -26.1 5.65 -26.2 5.7 -26.3 5.7 -26.35 5.7 -26.45 5.75 -26.55 5.75 -26.65 5.75 -26.75 5.75 -26.85 5.75 -26.95 5.8 -27.05 5.85 -27.1 5.85 -27.2 5.9 -27.3 5.85 -27.4 5.9 -27.5 5.9 -27.6 5.9 -27.7 5.95 -27.8 5.95 -27.85 5.95 -27.95 6.0 -28.05 5.95 -28.2 5.95 -28.25 5.95 -28.35 5.95 -28.45 5.95 -28.6 5.95 -28.65 5.95 -28.75 6.0 -28.85 6.0 -28.95 5.95 -29.05 6.0 -29.1 6.05 -29.2 6.05 -29.3 6.1 -29.35 6.1 -29.45 6.15 -29.55 6.2 -29.7 6.15 -29.8 6.2 -29.9 6.2 -30.0 6.25 -30.1 6.2 -30.2 6.15 -30.3 6.05 -30.45 6.05 -30.6 5.9 -30.75 5.65 -30.8 5.5 -30.85 5.5 -30.85 5.3 -30.9 5.1 -30.85 4.85 -30.8 4.75 -30.75 4.65 -30.7 4.55 -30.65 4.45 -30.6 4.35 -30.5 4.25 -30.4 4.2 -30.3 4.2 -30.25 4.1 -30.15 4.05 -30.1 4.05 -30.0 4.0 -29.9 4.0 -29.85 3.95 -29.75 3.9 -29.65 3.9 -29.55 3.85 -29.45 3.8 -29.4 3.8 -29.3 3.75 -29.2 3.75 -29.05 3.75 -29.0 3.7 -28.9 3.65 -28.8 3.7 -28.7 3.7 -28.65 3.7 -28.5 3.7 -28.4 3.7 -28.3 3.7 -28.25 3.7 -28.15 3.65 -28.0 3.7 -27.9 3.7 -27.85 3.7 -27.75 3.65 -27.6 3.6 -27.5 3.65 -27.4 3.6 -27.35 3.55 -27.25 3.55 -27.15 3.5 -27.1 3.45 -27.0 3.45 -26.9 3.4 -26.8 3.4 -26.7 3.4 -26.65 3.35 -26.5 3.35 -26.4 3.4 -26.35 3.35 -26.25 3.35 -26.15 3.3 -26.05 3.3 -25.95 3.3 -25.8 3.3 -25.75 3.25 -25.65 3.3 -25.55 3.35 -25.45 3.4 -25.3 3.45 -25.2 3.5 -25.0 3.6 -24.9 3.8 -24.8 4.0 -24.75 4.1 -24.75 4.3 -24.7 4.5 M-25.45 7.7 L-25.35 7.65 -25.25 7.6 -25.15 7.6 -25.1 7.55 -25.0 7.55 -24.9 7.55 -24.85 7.55 -24.7 7.6 -24.6 7.55 -24.5 7.6 -24.35 7.6 -24.25 7.65 -24.15 7.75 -24.05 7.85 -23.95 7.95 -23.9 8.1 -23.8 8.2 -23.75 8.45 -23.75 8.7 -23.75 8.95 -23.8 9.0 -23.85 9.15 -23.95 9.25 -23.95 9.3 -24.05 9.4 -24.15 9.45 -24.25 9.5 -24.3 9.6 -24.35 9.6 -24.45 9.65 -24.55 9.7 -24.6 9.7 -24.7 9.75 -24.8 9.75 -24.9 9.8 -25.0 9.85 -25.1 9.9 -25.15 9.9 -25.25 9.95 -25.3 9.95 -25.4 10.0 -25.5 10.05 -25.6 10.05 -25.7 10.1 -25.8 10.15 -25.85 10.15 -25.95 10.2 -26.0 10.25 -26.1 10.3 -26.2 10.4 -26.3 10.4 -26.35 10.5 -26.45 10.55 -26.55 10.6 -26.6 10.6 -26.65 10.65 -26.75 10.65 -26.85 10.7 -26.95 10.75 -27.05 10.75 -27.15 10.8 -27.25 10.85 -27.3 10.85 -27.35 10.95 -27.4 11.0 -27.5 11.1 -27.6 11.2 -27.7 11.2 -27.8 11.25 -27.85 11.35 -27.95 11.35 -28.05 11.45 -28.15 11.45 -28.25 11.5 -28.35 11.55 -28.5 11.5 -28.6 11.55 -28.7 11.55 -28.75 11.5 -28.85 11.5 -29.0 11.4 -29.1 11.35 -29.25 11.25 -29.35 11.15 -29.45 11.1 -29.5 10.95 -29.55 10.75 -29.6 10.8 -29.6 10.55 -29.65 10.35 -29.6 10.15 -29.55 10.05 -29.5 9.9 -29.45 9.85 -29.45 9.7 -29.35 9.6 -29.25 9.55 -29.2 9.45 -29.1 9.35 -29.0 9.3 -28.95 9.25 -28.9 9.25 -28.85 9.15 -28.75 9.1 -28.65 9.0 -28.55 9.0 -28.45 8.95 -28.35 8.9 -28.3 8.9 -28.2 8.85 -28.1 8.85 -28.05 8.8 -27.95 8.75 -27.85 8.75 -27.75 8.7 -27.65 8.65 -27.6 8.65 -27.55 8.55 -27.45 8.5 -27.35 8.45 -27.3 8.35 -27.2 8.3 -27.1 8.3 -27.0 8.25 -26.95 8.25 -26.85 8.2 -26.75 8.15 -26.65 8.15 -26.6 8.1 -26.5 8.05 -26.4 8.05 -26.3 8.0 -26.25 8.0 -26.15 7.95 -26.05 7.9 -25.95 7.9 -25.85 7.85 -25.8 7.8 -25.7 7.8 -25.6 7.75 -25.55 7.7 -25.45 7.7 M-27.55 12.25 L-27.45 12.2 -27.35 12.1 -27.25 12.1 -27.15 12.05 -27.05 12.05 -26.95 11.95 -26.75 11.95 -26.65 11.9 -26.5 11.9 -26.3 11.8 -26.2 11.8 -26.05 11.8 -25.95 11.75 -25.8 11.7 -25.65 11.65 -25.5 11.65 -25.45 11.55 -25.4 11.5 -25.3 11.4 -25.15 11.45 -25.05 11.4 -24.9 11.45 -24.75 11.3 -24.6 11.3 -24.5 11.25 -24.4 11.2 -24.25 11.15 -24.15 11.1 -24.0 11.1 -23.9 11.0 -23.75 11.05 -23.5 10.95 -23.45 11.0 -23.3 10.9 -23.1 10.9 -23.05 10.9 -22.95 10.95 -22.8 10.95 -22.55 11.05 -22.4 11.2 -22.2 11.35 -22.05 11.6 -22.05 11.65 -22.05 11.85 -22.0 11.95 -22.0 12.1 -21.95 12.2 -22.05 12.25 -22.05 12.4 -22.05 12.5 -22.15 12.6 -22.2 12.65 -22.2 12.8 -22.3 12.8 -22.35 12.85 -22.4 12.95 -22.55 13.0 -22.6 13.1 -22.65 13.15 -22.85 13.25 -22.95 13.2 -23.0 13.25 -23.15 13.25 -23.3 13.3 -23.45 13.35 -23.55 13.4 -23.7 13.4 -23.85 13.5 -24.0 13.5 -24.05 13.55 -24.2 13.6 -24.35 13.55 -24.5 13.7 -24.6 13.65 -24.75 13.75 -24.9 13.8 -24.95 13.85 -25.05 13.85 -25.15 13.9 -25.35 13.9 -25.4 13.95 -25.65 13.95 -25.7 14.05 -25.85 14.05 -26.0 14.15 -26.05 14.15 -26.2 14.2 -26.35 14.2 -26.45 14.3 -26.55 14.35 -26.7 14.4 -26.8 14.4 -26.95 14.45 -27.0 14.45 -27.15 14.5 -27.25 14.6 -27.4 14.55 -27.6 14.6 -27.7 14.65 -27.8 14.6 -27.95 14.55 -28.15 14.4 -28.2 14.45 -28.25 14.45 -28.4 14.25 -28.5 14.2 -28.65 13.95 -28.75 13.85 -28.75 13.7 -28.8 13.6 -28.8 13.5 -28.8 13.4 -28.75 13.35 -28.75 13.2 -28.7 13.1 Q-28.65 13.05 -28.75 12.95 L-28.7 12.95 -28.65 12.85 -28.5 12.8 -28.4 12.75 -28.4 12.7 -28.25 12.55 -28.2 12.55 -28.1 12.45 -27.95 12.45 -27.9 12.4 -27.7 12.35 -27.6 12.3 -27.55 12.25 M-1.75 25.3 L-1.65 25.35 -1.65 25.45 -1.6 25.55 -1.55 25.65 -1.55 25.75 -1.5 25.85 -1.55 25.9 -1.55 26.0 -1.5 26.1 -1.55 26.25 -1.55 26.3 -1.6 26.4 -1.55 26.5 -1.6 26.6 -1.65 26.65 -1.65 26.8 -1.75 26.9 -1.8 27.0 -1.8 27.1 -1.85 27.25 -1.8 27.35 -1.9 27.45 -1.95 27.5 -1.95 27.65 -1.95 27.75 -1.95 27.85 -2.0 27.95 -2.0 28.05 -2.1 28.2 -2.1 28.3 -2.1 28.35 -2.15 28.4 -2.15 28.5 -2.2 28.65 -2.2 28.75 -2.2 28.85 -2.2 28.95 -2.2 29.05 -2.25 29.1 -2.3 29.2 -2.25 29.3 -2.3 29.45 -2.3 29.55 -2.35 29.65 -2.35 29.75 -2.35 29.85 -2.4 29.9 -2.35 30.0 -2.35 30.1 -2.35 30.25 -2.4 30.35 -2.5 30.45 -2.5 30.6 -2.6 30.65 -2.75 30.75 -2.85 30.9 -3.0 30.9 -3.2 30.95 -3.2 31.0 -3.4 31.0 -3.6 31.0 -3.85 30.95 -3.95 30.9 -4.1 30.85 -4.15 30.8 -4.25 30.7 -4.35 30.6 -4.4 30.55 -4.45 30.45 -4.45 30.35 -4.5 30.25 -4.55 30.15 -4.55 30.1 -4.6 30.0 -4.6 29.9 -4.6 29.8 -4.65 29.7 -4.65 29.6 -4.65 29.5 -4.65 29.4 -4.6 29.3 -4.6 29.2 -4.6 29.1 -4.55 29.0 -4.5 28.95 -4.55 28.85 -4.55 28.75 -4.5 28.6 -4.5 28.55 -4.45 28.45 -4.4 28.35 -4.45 28.25 -4.4 28.1 -4.4 28.0 -4.35 27.9 -4.35 27.8 -4.3 27.75 -4.25 27.6 -4.3 27.5 -4.25 27.4 -4.25 27.3 -4.2 27.2 -4.15 27.05 -4.2 26.95 -4.15 26.9 -4.1 26.8 -4.1 26.75 -4.0 26.6 -4.0 26.5 -4.0 26.4 -4.0 26.3 -3.95 26.2 -3.85 26.1 -3.85 26.0 -3.85 25.9 -3.85 25.8 -3.8 25.7 -3.8 25.55 -3.75 25.45 -3.65 25.35 -3.65 25.25 -3.5 25.15 -3.4 25.0 -3.25 24.95 -3.05 24.9 -2.9 24.85 -2.7 24.85 -2.4 24.85 -2.2 24.9 -2.05 25.0 -2.0 25.05 -1.9 25.15 -1.75 25.2 -1.75 25.3" fill="#333333" fill-rule="evenodd" stroke="none"/>
  </g>
</svg>
