<?xml version="1.0" encoding="UTF-8" standalone="no"?>
<svg xmlns:ffdec="https://www.free-decompiler.com/flash" xmlns:xlink="http://www.w3.org/1999/xlink" ffdec:objectType="shape" height="65.25px" width="65.8px" xmlns="http://www.w3.org/2000/svg">
  <g transform="matrix(1.0, 0.0, 0.0, 1.0, 33.2, 32.3)">
    <path d="M0.15 -1.0 L0.0 -0.95 -0.05 -0.95 -0.05 -1.0 -0.15 -1.1 -0.15 -1.2 -0.15 -1.3 -0.15 -1.4 -0.15 -1.5 -0.15 -1.55 -0.15 -1.65 -0.25 -1.75 -0.25 -1.85 -0.3 -1.95 -0.3 -2.05 -0.3 -2.15 -0.35 -2.25 -0.4 -2.3 -0.4 -2.4 -0.4 -2.5 -0.4 -2.6 -0.45 -2.7 -0.5 -2.8 -0.55 -2.9 -0.6 -3.0 -0.65 -3.05 -0.8 -3.15 -1.0 -3.25 -1.15 -3.2 -1.3 -3.15 -1.4 -3.05 -1.5 -3.05 -1.55 -3.15 -1.55 -3.25 -1.6 -3.3 -1.65 -3.4 -1.65 -3.5 -1.65 -3.6 -1.65 -3.7 -1.7 -3.8 -1.75 -3.9 -1.8 -4.0 -1.9 -4.05 -2.0 -4.15 -2.15 -4.25 -2.35 -4.3 -2.5 -4.3 -2.75 -4.25 -2.85 -4.15 -2.95 -4.05 -3.0 -4.0 -3.0 -3.9 -3.0 -3.8 -3.05 -3.75 -3.05 -3.8 -3.05 -3.9 -3.05 -4.0 -3.15 -4.1 -3.2 -4.2 -3.25 -4.3 -3.35 -4.4 -3.45 -4.5 -3.5 -4.55 -3.65 -4.65 -3.8 -4.75 -3.85 -4.8 -3.9 -4.9 -4.05 -5.0 -4.15 -5.1 -4.15 -5.2 -4.15 -5.3 -4.15 -5.4 -4.15 -5.5 -4.15 -5.55 -4.15 -5.65 -4.15 -5.75 -4.25 -5.85 -4.3 -5.95 -4.3 -6.05 -4.3 -6.15 -4.35 -6.25 -4.4 -6.3 -4.55 -6.4 -4.75 -6.5 -4.85 -6.5 -5.0 -6.45 -5.15 -6.4 -5.25 -6.35 -5.3 -6.4 -5.3 -6.5 -5.4 -6.6 -5.4 -6.7 -5.5 -6.8 -5.55 -6.9 -5.6 -7.0 -5.65 -7.05 -5.8 -7.15 -6.0 -7.25 -6.15 -7.2 -6.3 -7.15 -6.4 -7.1 -6.4 -7.15 -6.4 -7.25 -6.4 -7.35 -6.4 -7.45 -6.45 -7.55 -6.5 -7.65 -6.55 -7.75 -6.55 -7.8 -6.55 -7.9 -6.55 -8.0 -6.55 -8.1 -6.55 -8.2 -6.55 -8.3 -6.55 -8.4 -6.6 -8.5 -6.65 -8.55 -6.75 -8.65 -6.9 -8.75 -7.1 -8.8 -7.25 -8.8 -7.4 -8.8 -7.5 -8.75 -7.9 -8.8 -7.9 -8.9 -7.95 -9.0 -8.0 -9.05 -8.05 -9.15 -8.15 -9.25 -8.2 -9.35 -8.3 -9.45 -8.4 -9.55 -8.4 -9.65 -8.45 -9.75 -8.5 -9.8 -8.55 -9.9 -8.65 -10.0 -8.65 -10.1 -8.7 -10.2 -8.75 -10.3 -8.8 -10.4 -8.85 -10.5 -8.9 -10.55 -9.05 -10.65 -9.25 -10.75 -9.35 -10.75 -9.35 -10.7 -9.55 -10.65 -9.7 -10.55 -9.8 -10.5 -9.8 -10.4 -9.8 -10.3 -9.8 -10.2 -9.8 -10.1 -9.75 -10.0 -9.75 -9.9 -9.7 -9.8 -9.65 -9.75 -9.55 -9.65 -9.55 -9.55 -9.5 -9.45 -9.45 -9.35 -9.4 -9.25 -9.3 -9.15 -9.25 -9.05 -9.25 -9.0 -9.2 -8.9 -9.1 -8.8 -9.0 -8.7 -8.95 -8.6 -8.9 -8.5 -8.8 -8.4 -8.8 -8.3 -8.75 -8.25 -8.7 -8.15 -8.6 -8.05 -8.5 -7.95 -8.3 -7.85 -8.1 -7.8 -7.5 -7.75 -7.5 -7.65 -7.5 -7.55 -7.5 -7.5 -7.5 -7.4 -7.45 -7.3 -7.35 -7.2 -7.3 -7.1 -7.3 -7.0 -7.3 -6.9 -7.3 -6.8 -7.3 -6.75 -7.3 -6.65 -7.3 -6.55 -7.3 -6.45 -7.25 -6.35 -7.25 -6.25 -7.2 -6.15 -7.15 -6.05 -7.05 -6.0 -7.05 -5.9 -7.05 -5.8 -6.95 -5.7 -6.8 -5.6 -6.6 -5.55 -6.35 -5.55 -6.2 -5.55 -6.15 -5.6 -6.05 -5.65 -6.0 -5.55 -6.0 -5.45 -5.95 -5.35 -5.9 -5.25 -5.8 -5.15 -5.7 -5.05 -5.65 -5.0 -5.55 -4.9 -5.45 -4.8 -5.3 -4.7 -5.1 -4.65 -5.0 -4.6 -4.9 -4.5 -4.8 -4.4 -4.75 -4.3 -4.75 -4.25 -4.7 -4.15 -4.6 -4.05 -4.5 -3.95 -4.3 -3.9 -4.25 -3.8 -4.15 -3.75 -4.05 -3.65 -4.0 -3.55 -4.0 -3.45 -4.0 -3.35 -4.0 -3.25 -3.95 -3.15 -3.9 -3.05 -3.8 -3.0 -3.8 -2.9 -3.8 -2.8 -3.8 -2.7 -3.75 -2.6 -3.75 -2.5 -3.7 -2.4 -3.65 -2.3 -3.55 -2.25 -3.55 -2.15 -3.45 -2.05 -3.35 -1.95 -3.25 -1.85 -3.0 -1.8 -2.85 -1.8 -2.8 -1.85 -2.7 -1.9 -2.55 -2.0 -2.5 -2.1 -2.4 -2.2 -2.4 -2.3 -2.4 -2.4 -2.4 -2.5 -2.4 -2.55 -2.35 -2.65 -2.3 -2.55 -2.25 -2.45 -2.25 -2.35 -2.25 -2.25 -2.25 -2.15 -2.2 -2.05 -2.15 -2.0 -2.05 -1.9 -2.05 -1.8 -2.05 -1.7 -2.0 -1.6 -2.0 -1.5 -1.95 -1.4 -1.9 -1.3 -1.8 -1.25 -1.8 -1.15 -1.8 -1.05 -1.7 -0.95 -1.55 -0.85 -1.35 -0.8 -1.2 -0.8 -1.15 -0.85 -1.05 -0.8 -1.05 -0.75 -1.05 -0.65 -1.0 -0.55 -1.0 -0.45 -0.95 -0.35 -0.9 -0.25 -0.85 -0.15 -0.8 -0.05 -0.8 0.0 -0.8 0.1 -0.8 0.2 -0.75 0.3 -0.75 0.4 -0.75 0.5 -0.7 0.6 -0.65 0.7 -0.55 0.75 -0.55 0.85 -0.55 0.95 -0.45 1.05 -0.3 1.15 -0.1 1.2 0.05 1.2 0.1 1.15 0.2 1.1 0.25 1.1 0.3 1.2 0.35 1.25 0.45 1.35 0.5 1.45 0.55 1.55 0.6 1.65 0.7 1.75 0.7 1.85 0.75 1.95 0.85 2.0 0.95 2.1 0.95 2.2 0.95 2.3 0.95 2.4 1.0 2.5 1.0 2.6 1.0 2.7 1.0 2.75 1.05 2.85 1.15 2.95 1.25 3.05 1.5 3.1 1.65 3.1 1.7 3.05 1.8 3.0 1.85 2.9 1.95 2.8 1.95 2.7 1.95 2.6 1.95 2.5 1.95 2.45 1.95 2.35 1.95 2.25 1.95 2.15 1.95 2.05 1.95 1.95 2.0 1.9 2.0 2.0 2.05 2.1 2.1 2.2 2.2 2.25 2.2 2.35 2.2 2.45 2.25 2.55 2.25 2.65 2.25 2.75 2.3 2.85 2.35 2.95 2.45 3.0 2.45 3.1 2.45 3.2 2.45 3.3 2.5 3.4 2.5 3.5 2.55 3.6 2.6 3.7 2.7 3.75 2.7 3.85 2.8 3.95 2.95 4.05 3.15 4.1 3.3 4.1 3.35 4.05 3.45 4.0 3.5 3.9 3.6 3.8 3.6 3.7 3.65 3.6 3.7 3.7 3.75 3.75 3.75 3.85 3.75 3.95 3.75 4.05 3.8 4.15 3.85 4.25 3.95 4.35 3.95 4.45 4.0 4.5 4.0 4.6 4.0 4.7 4.05 4.8 4.1 4.9 4.15 5.0 4.2 5.1 4.2 5.2 4.2 5.25 4.2 5.35 4.2 5.45 4.3 5.55 4.45 5.65 4.65 5.7 4.75 5.7 4.9 5.7 4.95 5.7 5.0 5.8 5.05 5.9 5.1 6.0 5.2 6.1 5.2 6.2 5.25 6.25 5.25 6.35 5.3 6.45 5.4 6.55 5.45 6.65 5.5 6.75 5.5 6.85 5.55 6.95 5.6 7.0 5.7 7.1 5.8 7.2 5.95 7.3 6.15 7.35 6.25 7.35 6.45 7.3 6.6 7.2 6.7 7.25 6.7 7.35 6.75 7.45 6.75 7.55 6.8 7.65 6.85 7.75 6.95 7.85 6.95 7.95 7.0 8.0 7.0 8.1 7.0 8.2 7.05 8.3 7.1 8.4 7.2 8.5 7.2 8.6 7.25 8.7 7.25 8.75 7.3 8.85 7.4 8.95 7.5 9.05 7.75 9.1 7.9 9.1 7.95 9.05 8.05 9.0 8.2 9.0 8.2 9.1 8.25 9.2 8.25 9.25 8.3 9.35 8.4 9.45 8.45 9.55 8.5 9.65 8.6 9.75 8.7 9.85 8.7 9.95 8.75 10.0 8.8 10.1 8.9 10.2 9.0 10.3 9.25 10.35 9.45 10.3 9.6 10.2 9.65 10.1 9.7 10.0 9.75 10.0 9.75 10.1 9.8 10.2 9.9 10.3 9.95 10.4 10.0 10.5 10.05 10.6 10.1 10.7 10.2 10.75 10.3 10.85 10.4 10.95 10.5 11.05 10.75 11.1 10.9 11.1 11.05 11.1 11.15 11.0 11.25 10.95 11.3 10.85 11.35 10.75 11.35 10.65 11.35 10.55 11.3 10.45 11.25 10.35 11.15 10.25 11.05 10.2 11.0 10.1 10.9 10.0 10.8 9.9 10.7 9.8 10.65 9.7 10.6 9.6 10.6 9.5 10.55 9.45 10.5 9.35 10.45 9.25 10.45 9.15 10.4 9.05 10.35 8.95 10.25 8.85 10.15 8.75 10.1 8.7 9.95 8.6 9.75 8.5 9.65 8.5 9.45 8.6 9.3 8.7 9.2 8.75 9.15 8.7 9.1 8.6 9.05 8.5 9.0 8.45 8.95 8.35 8.9 8.25 8.85 8.15 8.85 8.05 8.8 7.95 8.75 7.85 8.7 7.75 8.7 7.7 8.7 7.6 8.6 7.5 8.6 7.4 8.6 7.3 8.55 7.2 8.5 7.1 8.45 7.0 8.35 6.95 8.2 6.85 8.0 6.75 7.75 6.85 7.65 6.9 7.6 6.85 7.55 6.75 7.5 6.7 7.35 6.6 7.35 6.5 7.35 6.4 7.3 6.3 7.25 6.2 7.15 6.1 7.1 6.0 7.05 5.95 7.0 5.85 6.85 5.75 6.65 5.7 6.4 5.7 6.2 5.7 6.1 5.7 6.0 5.6 5.95 5.5 5.95 5.4 5.9 5.3 5.85 5.2 5.85 5.1 5.85 5.0 5.8 4.95 5.75 4.85 5.7 4.75 5.6 4.65 5.6 4.55 5.6 4.45 5.6 4.35 5.55 4.25 5.5 4.2 5.35 4.1 5.2 4.0 4.9 3.95 4.75 3.85 4.7 3.75 4.7 3.7 4.7 3.6 4.7 3.5 4.6 3.4 4.6 3.3 4.55 3.2 4.5 3.1 4.45 3.0 4.45 2.95 4.45 2.85 4.45 2.75 4.35 2.65 4.35 2.55 4.25 2.45 4.2 2.35 4.2 2.25 4.15 2.2 4.1 2.1 3.95 2.0 3.75 1.95 3.5 1.95 3.35 1.95 3.25 2.0 3.2 2.05 3.1 2.05 3.1 1.95 3.1 1.85 3.05 1.75 3.0 1.7 2.95 1.6 2.85 1.5 2.8 1.4 2.7 1.3 2.7 1.2 2.7 1.1 2.65 1.0 2.6 0.95 2.6 0.85 2.5 0.75 2.45 0.65 2.4 0.55 2.35 0.45 2.35 0.35 2.3 0.25 2.25 0.2 2.1 0.1 1.9 0.0 1.65 0.0 1.5 0.05 1.35 0.1 1.25 0.2 1.2 0.3 1.2 0.4 1.2 0.5 1.1 0.5 1.05 0.4 0.95 0.3 0.95 0.2 0.95 0.1 0.9 0.0 0.85 -0.05 0.85 -0.15 0.75 -0.25 0.7 -0.35 0.7 -0.45 0.7 -0.55 0.7 -0.65 0.65 -0.75 0.6 -0.8 0.45 -0.9 0.25 -1.0 0.15 -1.0 M20.75 20.75 L18.3 20.75 -20.75 -18.3 -20.75 -20.75 -17.6 -20.75 20.75 17.6 20.75 20.75" fill="#b4e7e1" fill-opacity="0.99215686" fill-rule="evenodd" stroke="none"/>
    <path d="M0.15 -1.0 L0.25 -1.0 0.45 -0.9 0.6 -0.8 0.65 -0.75 0.7 -0.65 0.7 -0.55 0.7 -0.45 0.7 -0.35 0.75 -0.25 0.85 -0.15 0.85 -0.05 0.9 0.0 0.95 0.1 0.95 0.2 0.95 0.3 1.05 0.4 1.1 0.5 1.2 0.5 1.2 0.4 1.2 0.3 1.25 0.2 1.35 0.1 1.5 0.05 1.65 0.0 1.9 0.0 2.1 0.1 2.25 0.2 2.3 0.25 2.35 0.35 2.35 0.45 2.4 0.55 2.45 0.65 2.5 0.75 2.6 0.85 2.6 0.95 2.65 1.0 2.7 1.1 2.7 1.2 2.7 1.3 2.8 1.4 2.85 1.5 2.95 1.6 3.0 1.7 3.05 1.75 3.1 1.85 3.1 1.95 3.1 2.05 3.2 2.05 3.25 2.0 3.35 1.95 3.5 1.95 3.75 1.95 3.95 2.0 4.1 2.1 4.15 2.2 4.2 2.25 4.2 2.35 4.25 2.45 4.35 2.55 4.35 2.65 4.45 2.75 4.45 2.85 4.45 2.95 4.45 3.0 4.5 3.1 4.55 3.2 4.6 3.3 4.6 3.4 4.7 3.5 4.7 3.6 4.7 3.7 4.7 3.75 4.75 3.85 4.9 3.95 5.2 4.0 5.35 4.1 5.5 4.2 5.55 4.25 5.6 4.35 5.6 4.45 5.6 4.55 5.6 4.65 5.7 4.75 5.75 4.85 5.8 4.95 5.85 5.0 5.85 5.1 5.85 5.2 5.9 5.3 5.95 5.4 5.95 5.5 6.0 5.6 6.1 5.7 6.2 5.7 6.4 5.7 6.65 5.7 6.85 5.75 7.0 5.85 7.05 5.95 7.1 6.0 7.15 6.1 7.25 6.2 7.3 6.3 7.35 6.4 7.35 6.5 7.35 6.6 7.5 6.7 7.55 6.75 7.6 6.85 7.65 6.9 7.75 6.85 8.0 6.75 8.2 6.85 8.35 6.95 8.45 7.0 8.5 7.1 8.55 7.2 8.6 7.3 8.6 7.4 8.6 7.5 8.7 7.6 8.7 7.7 8.7 7.75 8.75 7.85 8.8 7.95 8.85 8.05 8.85 8.15 8.9 8.25 8.95 8.35 9.0 8.45 9.05 8.5 9.1 8.6 9.15 8.7 9.2 8.75 9.3 8.7 9.45 8.6 9.65 8.5 9.75 8.5 9.95 8.6 10.1 8.7 10.15 8.75 10.25 8.85 10.35 8.95 10.4 9.05 10.45 9.15 10.45 9.25 10.5 9.35 10.55 9.45 10.6 9.5 10.6 9.6 10.65 9.7 10.7 9.8 10.8 9.9 10.9 10.0 11.0 10.1 11.05 10.2 11.15 10.25 11.25 10.35 11.3 10.45 11.35 10.55 11.35 10.65 11.35 10.75 11.3 10.85 11.25 10.95 11.15 11.0 11.05 11.1 10.9 11.1 10.75 11.1 10.5 11.05 10.4 10.95 10.3 10.85 10.2 10.75 10.1 10.7 10.05 10.6 10.0 10.5 9.95 10.4 9.9 10.3 9.8 10.2 9.75 10.1 9.75 10.0 9.7 10.0 9.65 10.1 9.6 10.2 9.45 10.3 9.25 10.35 9.0 10.3 8.9 10.2 8.8 10.1 8.75 10.0 8.7 9.95 8.7 9.85 8.6 9.75 8.5 9.65 8.45 9.55 8.4 9.45 8.3 9.35 8.25 9.25 8.25 9.2 8.2 9.1 8.2 9.0 8.05 9.0 7.95 9.05 7.9 9.1 7.75 9.1 7.5 9.05 7.4 8.95 7.3 8.85 7.25 8.75 7.25 8.7 7.2 8.6 7.2 8.5 7.1 8.4 7.05 8.3 7.0 8.2 7.0 8.1 7.0 8.0 6.95 7.95 6.95 7.85 6.85 7.75 6.8 7.65 6.75 7.55 6.75 7.45 6.7 7.35 6.7 7.25 6.6 7.2 6.45 7.3 6.25 7.35 6.15 7.35 5.95 7.3 5.8 7.2 5.7 7.1 5.6 7.0 5.55 6.95 5.5 6.85 5.5 6.75 5.45 6.65 5.4 6.55 5.3 6.45 5.25 6.35 5.25 6.25 5.2 6.2 5.2 6.1 5.1 6.0 5.05 5.9 5.0 5.8 4.95 5.7 4.9 5.7 4.75 5.7 4.65 5.7 4.45 5.65 4.3 5.55 4.2 5.45 4.2 5.35 4.2 5.25 4.2 5.2 4.2 5.1 4.15 5.0 4.1 4.9 4.05 4.8 4.0 4.7 4.0 4.6 4.0 4.5 3.95 4.45 3.95 4.35 3.85 4.25 3.8 4.15 3.75 4.05 3.75 3.95 3.75 3.85 3.75 3.75 3.7 3.7 3.65 3.6 3.6 3.7 3.6 3.8 3.5 3.9 3.45 4.0 3.35 4.05 3.3 4.1 3.15 4.1 2.95 4.05 2.8 3.95 2.7 3.85 2.7 3.75 2.6 3.7 2.55 3.6 2.5 3.5 2.5 3.4 2.45 3.3 2.45 3.2 2.45 3.1 2.45 3.0 2.35 2.95 2.3 2.85 2.25 2.75 2.25 2.65 2.25 2.55 2.2 2.45 2.2 2.35 2.2 2.25 2.1 2.2 2.05 2.1 2.0 2.0 2.0 1.9 1.95 1.95 1.95 2.05 1.95 2.15 1.95 2.25 1.95 2.35 1.95 2.45 1.95 2.5 1.95 2.6 1.95 2.7 1.95 2.8 1.85 2.9 1.8 3.0 1.7 3.05 1.65 3.1 1.5 3.1 1.25 3.05 1.15 2.95 1.05 2.85 1.0 2.75 1.0 2.7 1.0 2.6 1.0 2.5 0.95 2.4 0.95 2.3 0.95 2.2 0.95 2.1 0.85 2.0 0.75 1.95 0.7 1.85 0.7 1.75 0.6 1.65 0.55 1.55 0.5 1.45 0.45 1.35 0.35 1.25 0.3 1.2 0.25 1.1 0.2 1.1 0.1 1.15 0.05 1.2 -0.1 1.2 -0.3 1.15 -0.45 1.05 -0.55 0.95 -0.55 0.85 -0.55 0.75 -0.65 0.7 -0.7 0.6 -0.75 0.5 -0.75 0.4 -0.75 0.3 -0.8 0.2 -0.8 0.1 -0.8 0.0 -0.8 -0.05 -0.85 -0.15 -0.9 -0.25 -0.95 -0.35 -1.0 -0.45 -1.0 -0.55 -1.05 -0.65 -1.05 -0.75 -1.05 -0.8 -1.15 -0.85 -1.2 -0.8 -1.35 -0.8 -1.55 -0.85 -1.7 -0.95 -1.8 -1.05 -1.8 -1.15 -1.8 -1.25 -1.9 -1.3 -1.95 -1.4 -2.0 -1.5 -2.0 -1.6 -2.05 -1.7 -2.05 -1.8 -2.05 -1.9 -2.15 -2.0 -2.2 -2.05 -2.25 -2.15 -2.25 -2.25 -2.25 -2.35 -2.25 -2.45 -2.3 -2.55 -2.35 -2.65 -2.4 -2.55 -2.4 -2.5 -2.4 -2.4 -2.4 -2.3 -2.4 -2.2 -2.5 -2.1 -2.55 -2.0 -2.7 -1.9 -2.8 -1.85 -2.85 -1.8 -3.0 -1.8 -3.25 -1.85 -3.35 -1.95 -3.45 -2.05 -3.55 -2.15 -3.55 -2.25 -3.65 -2.3 -3.7 -2.4 -3.75 -2.5 -3.75 -2.6 -3.8 -2.7 -3.8 -2.8 -3.8 -2.9 -3.8 -3.0 -3.9 -3.05 -3.95 -3.15 -4.0 -3.25 -4.0 -3.35 -4.0 -3.45 -4.0 -3.55 -4.05 -3.65 -4.15 -3.75 -4.25 -3.8 -4.3 -3.9 -4.5 -3.95 -4.6 -4.05 -4.7 -4.15 -4.75 -4.25 -4.75 -4.3 -4.8 -4.4 -4.9 -4.5 -5.0 -4.6 -5.1 -4.65 -5.3 -4.7 -5.45 -4.8 -5.55 -4.9 -5.65 -5.0 -5.7 -5.05 -5.8 -5.15 -5.9 -5.25 -5.95 -5.35 -6.0 -5.45 -6.0 -5.55 -6.05 -5.65 -6.15 -5.6 -6.2 -5.55 -6.35 -5.55 -6.6 -5.55 -6.8 -5.6 -6.95 -5.7 -7.05 -5.8 -7.05 -5.9 -7.05 -6.0 -7.15 -6.05 -7.2 -6.15 -7.25 -6.25 -7.25 -6.35 -7.3 -6.45 -7.3 -6.55 -7.3 -6.65 -7.3 -6.75 -7.3 -6.8 -7.3 -6.9 -7.3 -7.0 -7.3 -7.1 -7.35 -7.2 -7.45 -7.3 -7.5 -7.4 -7.5 -7.5 -7.5 -7.55 -7.5 -7.65 -7.5 -7.75 -8.1 -7.8 -8.3 -7.85 -8.5 -7.95 -8.6 -8.05 -8.7 -8.15 -8.75 -8.25 -8.8 -8.3 -8.8 -8.4 -8.9 -8.5 -8.95 -8.6 -9.0 -8.7 -9.1 -8.8 -9.2 -8.9 -9.25 -9.0 -9.25 -9.05 -9.3 -9.15 -9.4 -9.25 -9.45 -9.35 -9.5 -9.45 -9.55 -9.55 -9.55 -9.65 -9.65 -9.75 -9.7 -9.8 -9.75 -9.9 -9.75 -10.0 -9.8 -10.1 -9.8 -10.2 -9.8 -10.3 -9.8 -10.4 -9.8 -10.5 -9.7 -10.55 -9.55 -10.65 -9.35 -10.7 -9.35 -10.75 -9.25 -10.75 -9.05 -10.65 -8.9 -10.55 -8.85 -10.5 -8.8 -10.4 -8.75 -10.3 -8.7 -10.2 -8.65 -10.1 -8.65 -10.0 -8.55 -9.9 -8.5 -9.8 -8.45 -9.75 -8.4 -9.65 -8.4 -9.55 -8.3 -9.45 -8.2 -9.35 -8.15 -9.25 -8.05 -9.15 -8.0 -9.05 -7.95 -9.0 -7.9 -8.9 -7.9 -8.8 -7.5 -8.75 -7.4 -8.8 -7.25 -8.8 -7.1 -8.8 -6.9 -8.75 -6.75 -8.65 -6.65 -8.55 -6.6 -8.5 -6.55 -8.4 -6.55 -8.3 -6.55 -8.2 -6.55 -8.1 -6.55 -8.0 -6.55 -7.9 -6.55 -7.8 -6.55 -7.75 -6.5 -7.65 -6.45 -7.55 -6.4 -7.45 -6.4 -7.35 -6.4 -7.25 -6.4 -7.15 -6.4 -7.1 -6.3 -7.15 -6.15 -7.2 -6.0 -7.25 -5.8 -7.15 -5.65 -7.05 -5.6 -7.0 -5.55 -6.9 -5.5 -6.8 -5.4 -6.7 -5.4 -6.6 -5.3 -6.5 -5.3 -6.4 -5.25 -6.35 -5.15 -6.4 -5.0 -6.45 -4.85 -6.5 -4.75 -6.5 -4.55 -6.4 -4.4 -6.3 -4.35 -6.25 -4.3 -6.15 -4.3 -6.05 -4.3 -5.95 -4.25 -5.85 -4.15 -5.75 -4.15 -5.65 -4.15 -5.55 -4.15 -5.5 -4.15 -5.4 -4.15 -5.3 -4.15 -5.2 -4.15 -5.1 -4.05 -5.0 -3.9 -4.9 -3.85 -4.8 -3.8 -4.75 -3.65 -4.65 -3.5 -4.55 -3.45 -4.5 -3.35 -4.4 -3.25 -4.3 -3.2 -4.2 -3.15 -4.1 -3.05 -4.0 -3.05 -3.9 -3.05 -3.8 -3.05 -3.75 -3.0 -3.8 -3.0 -3.9 -3.0 -4.0 -2.95 -4.05 -2.85 -4.15 -2.75 -4.25 -2.5 -4.3 -2.35 -4.3 -2.15 -4.25 -2.0 -4.15 -1.9 -4.05 -1.8 -4.0 -1.75 -3.9 -1.7 -3.8 -1.65 -3.7 -1.65 -3.6 -1.65 -3.5 -1.65 -3.4 -1.6 -3.3 -1.55 -3.25 -1.55 -3.15 -1.5 -3.05 -1.4 -3.05 -1.3 -3.15 -1.15 -3.2 -1.0 -3.25 -0.8 -3.15 -0.65 -3.05 -0.6 -3.0 -0.55 -2.9 -0.5 -2.8 -0.45 -2.7 -0.4 -2.6 -0.4 -2.5 -0.4 -2.4 -0.4 -2.3 -0.35 -2.25 -0.3 -2.15 -0.3 -2.05 -0.3 -1.95 -0.25 -1.85 -0.25 -1.75 -0.15 -1.65 -0.15 -1.55 -0.15 -1.5 -0.15 -1.4 -0.15 -1.3 -0.15 -1.2 -0.15 -1.1 -0.05 -1.0 -0.05 -0.95 0.0 -0.95 0.15 -1.0" fill="#ffffff" fill-rule="evenodd" stroke="none"/>
    <path d="M-12.75 -20.25 L-12.75 -20.35 -12.65 -20.45 -12.55 -20.55 -12.5 -20.65 -12.4 -20.7 -12.3 -20.75 -12.2 -20.75 -12.0 -20.75 -12.0 -20.8 -11.85 -20.8 -11.65 -20.75 -11.5 -20.7 -11.35 -20.6 -11.25 -20.5 -11.2 -20.4 -11.15 -20.3 -11.1 -20.25 -11.1 -20.15 -11.05 -20.05 -11.0 -19.95 -11.0 -19.85 -11.0 -19.75 -11.0 -19.65 -11.0 -19.55 -11.0 -19.5 -11.0 -19.4 -11.0 -19.3 -10.9 -19.2 -10.9 -19.1 -10.85 -19.0 -10.8 -18.9 -10.8 -18.8 -10.8 -18.75 -10.8 -18.65 -10.8 -18.55 -10.8 -18.45 -10.8 -18.35 -10.8 -18.25 -10.8 -18.15 -10.8 -18.05 -10.8 -18.0 -10.8 -17.9 -10.8 -17.8 -10.8 -17.7 -10.8 -17.6 -10.8 -17.5 -10.8 -17.4 -10.8 -17.3 -10.8 -17.25 -10.8 -17.15 -10.8 -17.05 -10.8 -16.95 -10.8 -16.85 -10.8 -16.75 -10.8 -16.65 -10.8 -16.55 -10.8 -16.5 -10.85 -16.4 -10.85 -16.3 -10.9 -16.2 -10.95 -16.1 -11.0 -16.0 -11.0 -15.9 -11.0 -15.8 -11.05 -15.75 -11.1 -15.65 -11.1 -15.55 -11.15 -15.45 -11.2 -15.35 -11.25 -15.25 -11.35 -15.15 -11.4 -15.05 -11.45 -15.0 -11.5 -14.9 -11.55 -14.8 -11.7 -14.7 -11.75 -14.6 -11.8 -14.5 -11.9 -14.4 -11.95 -14.3 -12.05 -14.25 -12.1 -14.15 -12.15 -14.05 -12.2 -13.95 -12.25 -13.85 -12.3 -13.75 -12.4 -13.65 -12.45 -13.55 -12.55 -13.5 -12.65 -13.4 -12.75 -13.3 -12.8 -13.2 -12.9 -13.1 -13.0 -13.0 -13.1 -12.9 -13.2 -12.8 -13.3 -12.75 -13.4 -12.65 -13.5 -12.55 -13.6 -12.45 -13.7 -12.4 -13.85 -12.3 -13.95 -12.25 -14.05 -12.15 -14.15 -12.05 -14.2 -12.05 -14.4 -12.0 -14.5 -11.9 -14.55 -11.9 -14.65 -11.85 -14.85 -11.8 -14.95 -11.8 -15.05 -11.75 -15.25 -11.75 -17.35 -11.75 -17.55 -11.75 -17.65 -11.8 -17.75 -11.8 -17.95 -11.85 -18.15 -11.9 -18.3 -12.0 -18.4 -12.05 -18.45 -12.1 -18.65 -12.15 -18.75 -12.25 -18.8 -12.25 -19.0 -12.3 -19.25 -12.4 -19.3 -12.5 -19.45 -12.5 -19.65 -12.55 -19.75 -12.65 -19.85 -12.75 -19.95 -12.85 -20.0 -12.95 -20.0 -13.0 -20.0 -13.05 -20.05 -13.15 -20.05 -13.25 -20.05 -13.3 -20.05 -13.4 -20.0 -13.5 -20.0 -13.6 -19.9 -13.7 -19.8 -13.8 -19.75 -13.9 -19.65 -13.95 -19.55 -14.0 -19.45 -14.0 -19.25 -14.05 -18.85 -14.05 -18.65 -14.0 -18.5 -13.95 -18.35 -13.85 -18.3 -13.8 -18.15 -13.75 -18.0 -13.7 -17.9 -13.65 -17.8 -13.6 -17.65 -13.55 -17.5 -13.45 -17.35 -13.4 -17.15 -13.35 -17.05 -13.3 -15.55 -13.3 -15.45 -13.35 -15.3 -13.4 -15.15 -13.5 -15.0 -13.6 -14.9 -13.7 -14.65 -13.8 -14.5 -13.9 -14.4 -14.0 -14.3 -14.05 -14.2 -14.15 -14.1 -14.25 -14.0 -14.35 -13.9 -14.45 -13.8 -14.55 -13.75 -14.65 -13.7 -14.75 -13.65 -14.8 -13.55 -14.9 -13.5 -15.0 -13.5 -15.1 -13.4 -15.2 -13.3 -15.3 -13.25 -15.4 -13.2 -15.5 -13.15 -15.55 -13.05 -15.65 -12.95 -15.75 -12.85 -15.85 -12.8 -15.95 -12.75 -16.05 -12.75 -16.15 -12.65 -16.25 -12.55 -16.3 -12.55 -16.4 -12.55 -16.5 -12.55 -16.6 -12.5 -16.7 -12.5 -16.8 -12.45 -16.9 -12.4 -17.0 -12.4 -17.05 -12.4 -17.15 -12.4 -17.25 -12.4 -17.35 -12.4 -17.45 -12.4 -17.55 -12.4 -17.65 -12.4 -17.75 -12.4 -17.8 -12.4 -17.9 -12.4 -18.0 -12.4 -18.1 -12.4 -18.2 -12.4 -18.3 -12.4 -18.4 -12.45 -18.5 -12.5 -18.55 -12.5 -18.65 -12.55 -18.75 -12.55 -18.85 -12.55 -18.95 -12.55 -19.05 -12.55 -19.15 -12.55 -19.25 -12.55 -19.3 -12.55 -19.4 -12.6 -19.5 -12.7 -19.6 -12.75 -19.7 -12.75 -19.8 -12.8 -19.9 -12.8 -20.0 -12.8 -20.05 -12.8 -20.15 -12.75 -20.25 M13.6 19.45 L13.65 19.55 13.7 19.65 13.7 19.75 13.7 19.85 13.65 19.95 13.6 20.0 13.55 20.1 13.5 20.2 13.45 20.3 13.3 20.4 13.2 20.45 13.1 20.5 12.9 20.5 12.7 20.5 12.5 20.45 12.25 20.35 12.15 20.25 12.05 20.15 11.95 20.05 11.95 19.95 11.9 19.85 11.85 19.75 11.85 19.7 11.85 19.6 11.75 19.5 11.75 19.4 11.7 19.3 11.7 19.2 11.7 19.1 11.7 19.0 11.7 18.95 11.7 18.85 11.7 18.75 11.7 18.65 11.7 18.55 11.7 18.45 11.7 18.35 11.7 18.25 11.7 18.2 11.7 18.1 11.7 18.0 11.7 17.9 11.7 17.8 11.7 17.7 11.7 17.6 11.7 17.5 11.7 17.45 11.7 17.35 11.7 17.25 11.7 17.15 11.7 17.05 11.7 16.95 11.7 16.85 11.7 16.75 11.7 16.7 11.7 16.6 11.7 16.5 11.7 16.4 11.7 16.3 11.7 16.2 11.7 16.1 11.7 16.0 11.75 15.95 11.75 15.85 11.8 15.75 11.9 15.65 11.95 15.55 12.0 15.45 12.05 15.35 12.1 15.25 12.2 15.2 12.2 15.1 12.25 15.0 12.25 14.9 12.35 14.8 12.45 14.7 12.5 14.6 12.55 14.5 12.6 14.45 12.7 14.35 12.8 14.25 12.9 14.15 13.0 14.05 13.1 13.95 13.2 13.85 13.25 13.75 13.45 13.7 13.55 13.6 13.65 13.5 13.75 13.4 13.85 13.3 14.1 13.2 14.25 13.1 14.35 13.0 14.45 12.95 14.55 12.85 14.7 12.75 14.8 12.75 14.95 12.7 15.05 12.6 15.2 12.5 15.35 12.45 15.55 12.4 15.7 12.35 15.85 12.25 15.95 12.25 16.1 12.2 16.2 12.2 16.3 12.15 16.5 12.1 16.75 12.05 16.95 12.0 17.15 11.95 17.35 11.95 17.45 11.9 17.65 11.9 17.65 11.85 19.15 11.85 19.35 11.9 19.5 11.95 19.75 12.05 19.9 12.15 20.05 12.25 20.2 12.35 20.25 12.45 20.35 12.5 20.45 12.6 20.55 12.7 20.6 12.8 20.7 12.9 20.7 13.0 20.75 13.1 20.75 13.2 20.75 13.25 20.75 13.35 20.75 13.45 20.7 13.55 20.65 13.65 20.6 13.75 20.5 13.85 20.35 13.95 20.2 14.0 20.0 14.0 19.9 14.0 19.7 14.0 19.5 13.95 19.35 13.85 19.25 13.75 19.1 13.65 18.95 13.55 18.9 13.5 18.85 13.45 17.8 13.45 17.7 13.5 17.4 13.55 17.3 13.6 17.2 13.65 17.0 13.7 16.8 13.7 16.6 13.75 16.5 13.85 16.45 13.85 16.35 13.9 16.05 13.95 15.9 14.05 15.8 14.1 15.6 14.2 15.45 14.25 15.35 14.35 15.25 14.45 15.15 14.55 15.05 14.6 14.85 14.7 14.7 14.75 14.6 14.85 14.5 14.95 14.4 15.05 14.25 15.15 14.15 15.25 14.0 15.35 13.95 15.45 13.9 15.5 13.85 15.6 13.75 15.7 13.7 15.8 13.65 15.9 13.6 16.0 13.5 16.1 13.5 16.2 13.45 16.25 13.4 16.35 13.35 16.45 13.3 16.55 13.25 16.65 13.25 16.75 13.25 16.85 13.25 16.95 13.25 17.0 13.25 17.1 13.25 17.2 13.25 17.3 13.25 17.4 13.25 17.5 13.25 17.6 13.25 17.7 13.25 17.75 13.25 17.85 13.25 17.95 13.25 18.05 13.25 18.15 13.25 18.25 13.25 18.35 13.25 18.45 13.25 18.5 13.25 18.6 13.25 18.7 13.35 18.8 13.35 18.9 13.4 19.0 13.45 19.1 13.45 19.2 13.5 19.25 13.55 19.35 13.6 19.45" fill="#000000" fill-rule="evenodd" stroke="none"/>
    <path d="M-20.0 -13.0 L-20.15 -13.1 -20.2 -13.2 -20.3 -13.3 -20.35 -13.4 -20.4 -13.5 -20.45 -13.55 -20.5 -13.65 -20.5 -13.75 -20.5 -13.85 -20.5 -13.95 -20.5 -14.05 -20.5 -14.15 -20.5 -14.25 -20.5 -14.3 -20.5 -14.4 -20.45 -14.5 -20.4 -14.6 -20.4 -14.7 -20.3 -14.8 -20.25 -14.9 -20.15 -15.0 -20.05 -15.05 -19.9 -15.15 -19.8 -15.25 -19.75 -15.25 -19.6 -15.3 -19.45 -15.3 -19.25 -15.35 -19.05 -15.3 -18.9 -15.3 -18.75 -15.25 -18.5 -15.15 -18.4 -15.1 -18.4 -15.15 -18.3 -15.25 -18.25 -15.35 -18.2 -15.45 -18.1 -15.55 -18.05 -15.65 -18.05 -15.75 -18.0 -15.8 -18.0 -15.9 -17.9 -16.0 -17.9 -16.1 -17.8 -16.2 -17.75 -16.3 -17.7 -16.4 -17.65 -16.5 -17.65 -16.55 -17.55 -16.65 -17.5 -16.75 -17.45 -16.85 -17.35 -16.95 -17.25 -17.05 -17.1 -17.15 -17.05 -17.25 -16.95 -17.3 -16.9 -17.4 -16.75 -17.5 -16.7 -17.6 -16.6 -17.7 -16.5 -17.8 -16.4 -17.9 -16.3 -18.0 -16.2 -18.05 -16.15 -18.15 -16.0 -18.25 -15.9 -18.35 -15.7 -18.45 -15.55 -18.5 -15.45 -18.55 -15.3 -18.55 -15.25 -18.55 -15.25 -18.6 -15.2 -18.7 -15.1 -18.8 -15.0 -18.9 -15.0 -18.95 -15.0 -19.05 -15.0 -19.15 -15.0 -19.25 -15.0 -19.3 -15.0 -19.4 -15.0 -19.5 -15.0 -19.6 -14.95 -19.7 -14.9 -19.8 -14.85 -19.9 -14.8 -20.0 -14.7 -20.05 -14.65 -20.15 -14.5 -20.25 -14.35 -20.35 -14.25 -20.4 -14.1 -20.45 -13.95 -20.5 -13.75 -20.5 -13.7 -20.5 -13.55 -20.5 -13.5 -20.5 -13.3 -20.5 -13.15 -20.45 -13.0 -20.4 -12.8 -20.3 -12.75 -20.25 -12.8 -20.15 -12.8 -20.05 -12.8 -20.0 -12.8 -19.9 -12.75 -19.8 -12.75 -19.7 -12.7 -19.6 -12.6 -19.5 -12.55 -19.4 -12.55 -19.3 -12.55 -19.25 -12.55 -19.15 -12.55 -19.05 -12.55 -18.95 -12.55 -18.85 -12.55 -18.75 -12.5 -18.65 -12.5 -18.55 -12.45 -18.5 -12.4 -18.4 -12.4 -18.3 -12.4 -18.2 -12.4 -18.1 -12.4 -18.0 -12.4 -17.9 -12.4 -17.8 -12.4 -17.75 -12.4 -17.65 -12.4 -17.55 -12.4 -17.45 -12.4 -17.35 -12.4 -17.25 -12.4 -17.15 -12.4 -17.05 -12.4 -17.0 -12.45 -16.9 -12.5 -16.8 -12.5 -16.7 -12.55 -16.6 -12.55 -16.5 -12.55 -16.4 -12.55 -16.3 -12.65 -16.25 -12.75 -16.15 -12.75 -16.05 -12.8 -15.95 -12.85 -15.85 -12.95 -15.75 -13.05 -15.65 -13.15 -15.55 -13.2 -15.5 -13.25 -15.4 -13.3 -15.3 -13.4 -15.2 -13.5 -15.1 -13.5 -15.0 -13.55 -14.9 -13.65 -14.8 -13.7 -14.75 -13.75 -14.65 -13.8 -14.55 -13.9 -14.45 -14.0 -14.35 -14.1 -14.25 -14.2 -14.15 -14.3 -14.05 -14.4 -14.0 -14.5 -13.9 -14.65 -13.8 -14.9 -13.7 -15.0 -13.6 -15.15 -13.5 -15.3 -13.4 -15.45 -13.35 -15.55 -13.3 -17.05 -13.3 -17.15 -13.35 -17.35 -13.4 -17.5 -13.45 -17.65 -13.55 -17.8 -13.6 -17.9 -13.65 -18.0 -13.7 -18.15 -13.75 -18.3 -13.8 -18.35 -13.85 -18.5 -13.95 -18.65 -14.0 -18.85 -14.05 -19.25 -14.05 -19.45 -14.0 -19.55 -14.0 -19.65 -13.95 -19.75 -13.9 -19.8 -13.8 -19.9 -13.7 -20.0 -13.6 -20.0 -13.5 -20.05 -13.4 -20.05 -13.3 -20.05 -13.25 -20.05 -13.15 -20.0 -13.05 -20.0 -13.0 M20.0 14.0 L20.05 14.05 20.15 14.15 20.2 14.25 20.25 14.35 20.3 14.45 20.35 14.5 20.35 14.6 20.35 14.7 20.4 14.8 20.4 14.9 20.4 15.0 20.35 15.1 20.35 15.2 20.35 15.25 20.3 15.35 20.25 15.45 20.2 15.55 20.15 15.65 20.05 15.75 19.95 15.85 19.85 15.95 19.7 16.0 19.5 16.1 19.35 16.1 19.15 16.15 18.4 16.15 18.2 16.1 18.0 16.1 17.95 16.2 17.85 16.25 17.75 16.35 17.7 16.45 17.6 16.55 17.5 16.65 17.4 16.75 17.35 16.85 17.3 16.95 17.25 17.0 17.2 17.1 17.15 17.2 17.1 17.3 17.05 17.4 17.0 17.5 16.9 17.6 16.85 17.7 16.85 17.75 16.85 17.85 16.8 17.95 16.75 18.05 16.75 18.15 16.8 18.25 16.85 18.35 16.85 18.45 16.9 18.5 16.9 18.6 16.9 18.7 16.9 18.8 16.9 18.9 16.85 19.0 16.85 19.1 16.8 19.2 16.75 19.25 16.7 19.35 16.65 19.45 16.6 19.55 16.5 19.65 16.4 19.75 16.25 19.85 16.1 19.9 16.0 19.95 15.85 19.95 15.75 19.95 15.7 20.0 15.5 20.1 15.35 20.2 15.2 20.2 15.0 20.25 14.9 20.25 14.7 20.2 14.55 20.2 14.35 20.1 14.2 20.0 14.0 19.95 13.9 19.85 13.8 19.75 13.75 19.65 13.7 19.55 13.6 19.45 13.6 19.35 13.55 19.25 13.5 19.2 13.45 19.1 13.4 19.0 13.35 18.9 13.35 18.8 13.25 18.7 13.25 18.6 13.25 18.5 13.25 18.45 13.25 18.35 13.25 18.25 13.25 18.15 13.25 18.05 13.25 17.95 13.25 17.85 13.25 17.75 13.25 17.7 13.25 17.6 13.25 17.5 13.25 17.4 13.25 17.3 13.25 17.2 13.25 17.1 13.25 17.0 13.25 16.95 13.3 16.85 13.35 16.75 13.35 16.65 13.45 16.55 13.5 16.45 13.5 16.35 13.5 16.25 13.5 16.2 13.55 16.1 13.6 16.0 13.65 15.9 13.7 15.8 13.75 15.7 13.85 15.6 13.9 15.5 13.95 15.45 14.0 15.35 14.15 15.25 14.25 15.15 14.4 15.05 14.5 14.95 14.6 14.85 14.7 14.75 14.85 14.7 15.05 14.6 15.15 14.55 15.25 14.45 15.35 14.35 15.45 14.25 15.6 14.2 15.8 14.1 15.9 14.05 16.05 13.95 16.35 13.9 16.45 13.85 16.5 13.85 16.6 13.75 16.8 13.7 17.0 13.7 17.2 13.65 17.3 13.6 17.4 13.55 17.7 13.5 17.8 13.45 18.85 13.45 18.9 13.5 18.95 13.55 19.1 13.65 19.25 13.75 19.35 13.85 19.5 13.95 19.7 14.0 19.9 14.0 20.0 14.0" fill="#ffcc00" fill-rule="evenodd" stroke="none"/>
    <path d="M20.45 -25.65 L20.6 -25.55 20.75 -25.5 20.9 -25.4 21.0 -25.3 21.1 -25.2 21.2 -25.1 21.3 -25.0 21.4 -24.9 21.5 -24.8 21.6 -24.75 21.7 -24.65 21.75 -24.55 21.85 -24.45 21.95 -24.35 22.05 -24.25 22.15 -24.15 22.2 -24.05 22.35 -24.0 22.45 -23.9 22.5 -23.8 22.6 -23.7 22.7 -23.6 22.75 -23.5 22.8 -23.4 22.9 -23.3 23.0 -23.25 23.1 -23.15 23.2 -23.05 23.25 -22.95 23.35 -22.85 23.45 -22.75 23.55 -22.65 23.65 -22.55 23.75 -22.5 23.85 -22.4 23.95 -22.3 24.0 -22.2 24.1 -22.1 24.2 -22.0 24.25 -21.9 24.3 -21.8 24.35 -21.75 24.4 -21.65 24.45 -21.55 24.5 -21.45 24.55 -21.35 24.6 -21.25 24.65 -21.15 24.75 -21.05 24.8 -21.0 24.85 -20.9 24.85 -20.8 24.9 -20.7 24.95 -20.6 25.0 -20.5 25.05 -20.4 25.15 -20.3 25.2 -20.25 25.25 -20.15 25.25 -20.05 25.3 -19.95 25.35 -19.85 25.45 -19.75 25.5 -19.65 25.5 -19.55 25.6 -19.5 25.65 -19.4 25.7 -19.3 25.75 -19.2 25.85 -19.1 25.95 -19.0 26.0 -18.9 26.05 -18.8 26.1 -18.75 26.2 -18.65 26.25 -18.55 26.35 -18.45 26.45 -18.35 26.55 -18.25 26.65 -18.15 26.75 -18.05 26.85 -18.0 26.9 -17.9 26.95 -17.8 27.0 -17.7 27.1 -17.6 27.2 -17.5 27.3 -17.4 27.4 -17.3 27.45 -17.25 27.5 -17.15 27.5 -17.05 27.55 -16.95 27.6 -16.85 27.7 -16.75 27.75 -16.65 27.8 -16.55 27.85 -16.5 27.9 -16.4 27.95 -16.3 28.0 -16.2 28.05 -16.1 28.1 -16.0 28.15 -15.9 28.25 -15.8 28.3 -15.75 28.35 -15.65 28.4 -15.55 28.45 -15.45 28.5 -15.35 28.55 -15.25 28.65 -15.15 28.7 -15.05 28.75 -15.0 28.75 -14.9 28.8 -14.8 28.85 -14.7 28.95 -14.6 29.0 -14.5 29.0 -14.4 29.05 -14.3 29.1 -14.25 29.2 -14.15 29.25 -14.05 29.3 -13.95 29.35 -13.85 29.4 -13.75 29.55 -13.7 29.7 -13.6 29.8 -13.5 29.9 -13.4 30.0 -13.3 30.05 -13.25 30.1 -13.15 30.1 -13.05 30.15 -12.95 30.2 -12.85 30.25 -12.75 30.3 -12.65 30.4 -12.55 30.45 -12.5 30.5 -12.4 30.5 -12.3 30.55 -12.2 30.6 -12.1 30.6 -12.0 30.6 -11.9 30.6 -11.8 30.65 -11.75 30.7 -11.65 30.7 -11.55 30.7 -11.45 30.75 -11.35 30.8 -11.25 30.8 -11.15 30.85 -11.05 30.85 -11.0 30.9 -10.9 30.95 -10.8 31.0 -10.7 31.05 -10.6 31.05 -10.5 31.1 -10.4 31.1 -10.3 31.15 -10.25 31.2 -10.15 31.2 -10.05 31.2 -9.95 31.2 -9.85 31.25 -9.75 31.25 -9.65 31.3 -9.55 31.35 -9.5 31.35 -9.4 31.4 -9.3 31.45 -9.2 31.45 -9.1 31.5 -9.0 31.5 -8.9 31.55 -8.8 31.6 -8.75 31.6 -8.65 31.6 -8.55 31.65 -8.45 31.7 -8.35 31.7 -8.25 31.75 -8.15 31.75 -8.05 31.8 -8.0 31.85 -7.9 31.85 -7.8 31.85 -7.7 31.9 -7.6 31.9 -7.5 31.95 -7.4 31.95 -7.3 31.95 -7.25 31.95 -7.15 31.95 -7.05 31.95 -6.95 31.95 -6.85 31.95 -6.75 31.95 -6.65 31.95 -6.55 31.95 -6.5 32.0 -6.4 32.0 -6.3 32.05 -6.2 32.1 -6.1 32.1 -6.0 32.1 -5.9 32.1 -5.8 32.1 -5.75 32.1 -5.65 32.1 -5.55 32.1 -5.45 32.1 -5.35 32.1 -5.25 32.1 -5.15 32.1 -5.05 32.15 -5.0 32.2 -4.9 32.2 -4.8 32.2 -4.7 32.25 -4.6 32.3 -4.5 32.3 -4.4 32.35 -4.3 32.35 -4.25 32.35 -4.15 32.35 -4.05 32.4 -3.95 32.45 -3.85 32.45 -3.75 32.45 -3.65 32.45 -3.55 32.45 -3.5 32.45 -3.4 32.45 -3.3 32.45 -3.2 32.45 -3.1 32.45 -3.0 32.45 -2.9 32.45 -2.8 32.5 -2.75 32.5 -2.65 32.55 -2.55 32.6 -2.45 32.6 -2.35 32.6 -2.25 32.6 -2.15 32.6 -2.05 32.6 -2.0 32.6 -1.9 32.6 -1.8 32.6 -1.7 32.6 -1.6 32.6 -1.5 32.6 -1.4 32.6 -1.3 32.6 -1.25 32.6 -1.15 32.6 -1.05 32.6 -0.95 32.6 -0.85 32.6 -0.75 32.6 -0.65 32.6 -0.55 32.6 -0.5 32.6 -0.4 32.6 -0.3 32.55 -0.2 32.55 -0.1 32.5 0.0 32.45 0.1 32.45 0.2 32.45 0.25 32.45 0.35 32.45 0.45 32.45 0.55 32.45 0.65 32.45 0.75 32.45 0.85 32.45 0.95 32.45 1.0 32.45 1.1 32.45 1.2 32.45 1.3 32.45 1.4 32.45 1.5 32.45 1.6 32.45 1.7 32.45 1.75 32.45 1.85 32.45 1.95 32.45 2.05 32.45 2.15 32.45 2.25 32.45 2.35 32.45 2.45 32.45 2.5 32.45 2.6 32.45 2.7 32.45 2.8 32.4 2.9 32.4 3.0 32.35 3.1 32.35 3.2 32.35 3.25 32.35 3.35 32.35 3.45 32.35 3.55 32.3 3.65 32.3 3.75 32.25 3.85 32.2 3.95 32.2 4.0 32.2 4.1 32.2 4.2 32.2 4.3 32.2 4.4 32.2 4.5 32.2 4.6 32.2 4.7 32.2 4.75 32.2 4.85 32.2 4.95 32.2 5.05 32.2 5.15 32.2 5.25 32.2 5.35 32.15 5.45 32.1 5.5 32.1 5.6 32.1 5.7 32.1 5.8 32.1 5.9 32.1 6.0 32.1 6.1 32.1 6.2 32.1 6.25 32.1 6.35 32.1 6.45 32.05 6.55 32.05 6.65 32.0 6.75 31.95 6.85 31.9 6.95 31.85 7.0 31.85 7.1 31.85 7.2 31.8 7.3 31.8 7.4 31.75 7.5 31.7 7.6 31.7 7.7 31.7 7.75 31.7 7.85 31.7 7.95 31.7 8.05 31.7 8.15 31.7 8.25 31.7 8.35 31.7 8.45 31.7 8.5 31.7 8.6 31.65 8.7 31.6 8.8 31.6 8.9 31.6 9.0 31.6 9.1 31.55 9.2 31.5 9.25 31.5 9.35 31.45 9.45 31.4 9.55 31.4 9.65 31.35 9.75 31.35 9.85 31.3 9.95 31.25 10.0 31.25 10.1 31.2 10.2 31.15 10.3 31.15 10.4 31.1 10.5 31.05 10.6 31.0 10.7 31.0 10.75 30.95 10.85 30.9 10.95 30.85 11.05 30.8 11.15 30.8 11.25 30.75 11.35 30.7 11.45 30.7 11.5 30.65 11.6 30.6 11.7 30.6 11.8 30.5 11.9 30.45 12.0 30.4 12.1 30.35 12.2 30.35 12.25 30.3 12.35 30.25 12.45 30.15 12.55 30.05 12.65 30.05 12.75 30.0 12.85 29.95 12.95 29.9 13.0 29.85 13.1 29.8 13.2 29.75 13.3 29.75 13.4 29.7 13.5 29.6 13.6 29.5 13.7 29.55 13.8 29.6 13.9 29.6 14.0 29.6 14.1 29.6 14.2 29.6 14.25 29.6 14.35 29.55 14.45 29.5 14.55 29.5 14.65 29.45 14.75 29.35 14.85 29.3 14.95 29.25 15.0 29.2 15.1 29.15 15.2 29.1 15.3 29.1 15.4 29.1 15.5 29.05 15.6 29.0 15.7 29.0 15.75 28.95 15.85 28.9 15.95 28.85 16.05 28.75 16.15 28.7 16.25 28.6 16.35 28.55 16.45 28.5 16.5 28.5 16.6 28.45 16.7 28.4 16.8 28.3 16.9 28.2 17.0 28.15 17.1 28.1 17.2 28.1 17.25 28.05 17.35 28.0 17.45 28.0 17.55 27.95 17.65 27.85 17.75 27.75 17.85 27.7 17.95 27.6 18.0 27.55 18.1 27.5 18.2 27.4 18.3 27.35 18.4 27.3 18.5 27.25 18.6 27.2 18.7 27.15 18.75 27.1 18.85 27.05 18.95 27.0 19.05 26.95 19.15 26.85 19.25 26.75 19.35 26.7 19.45 26.65 19.5 26.6 19.6 26.5 19.7 26.4 19.8 26.3 19.9 26.2 20.0 26.1 20.1 26.0 20.2 26.0 20.25 25.95 20.35 25.9 20.45 25.8 20.55 25.75 20.65 25.7 20.75 25.6 20.85 25.5 20.95 25.45 21.0 25.35 21.1 25.25 21.2 25.15 21.3 25.05 21.4 25.0 21.5 24.95 21.6 24.9 21.7 24.85 21.75 24.75 21.85 24.65 21.95 24.6 22.05 24.5 22.15 24.45 22.25 24.35 22.35 24.25 22.45 24.2 22.5 24.1 22.6 24.0 22.7 24.0 22.8 23.95 22.9 23.85 23.0 23.75 23.1 23.7 23.2 23.6 23.25 23.55 23.35 23.5 23.45 23.4 23.55 23.3 23.65 23.25 23.75 23.2 23.85 23.15 23.95 23.1 24.0 23.0 24.1 22.85 24.2 22.7 24.3 22.55 24.4 22.45 24.5 22.35 24.6 22.25 24.7 22.1 24.75 22.0 24.85 21.85 24.95 21.7 25.05 21.5 25.15 21.4 25.25 21.25 25.35 21.15 25.45 21.0 25.5 20.85 25.6 20.7 25.7 20.55 25.8 20.45 25.9 20.3 26.0 20.05 26.1 19.75 26.2 19.7 26.25 19.6 26.35 19.45 26.45 19.35 26.5 19.15 26.6 19.0 26.7 18.9 26.75 18.75 26.85 18.65 26.95 18.55 27.05 18.45 27.15 18.3 27.25 18.05 27.35 17.9 27.45 17.7 27.5 17.6 27.6 17.45 27.7 17.35 27.75 17.15 27.85 17.0 27.95 16.85 28.0 16.75 28.1 16.6 28.2 16.5 28.25 16.3 28.35 16.2 28.45 16.1 28.5 16.0 28.6 15.85 28.7 15.65 28.8 15.55 28.9 15.45 29.0 15.3 29.1 15.0 29.2 14.9 29.25 14.75 29.35 14.6 29.45 14.45 29.55 14.25 29.65 14.15 29.75 13.9 29.85 13.75 29.95 13.65 30.0 13.6 30.0 13.4 30.1 13.25 30.2 13.15 30.25 13.05 30.35 13.0 30.35 12.75 30.45 12.65 30.5 12.45 30.6 12.35 30.7 12.2 30.8 12.1 30.85 11.9 30.95 11.8 31.0 11.75 31.0 11.6 31.05 11.35 31.1 11.2 31.2 11.1 31.25 10.95 31.3 10.75 31.35 10.6 31.35 10.5 31.45 10.4 31.5 10.35 31.5 10.2 31.55 10.0 31.6 9.85 31.7 9.75 31.75 9.6 31.8 9.4 31.85 9.35 31.85 9.15 31.95 9.05 32.0 9.0 32.0 8.8 32.1 8.6 32.15 8.4 32.2 7.8 32.25 7.6 32.3 7.4 32.35 6.1 32.35 5.95 32.4 5.7 32.45 5.6 32.5 5.45 32.55 5.25 32.6 5.0 32.6 4.85 32.65 4.65 32.7 2.65 32.75 2.45 32.8 2.25 32.85 2.1 32.85 1.95 32.9 1.75 32.95 -0.5 32.95 -0.7 32.9 -0.85 32.85 -3.1 32.85 -3.3 32.8 -3.5 32.75 -4.0 32.7 -4.2 32.65 -4.35 32.6 -4.6 32.6 -4.8 32.55 -5.0 32.5 -5.1 32.45 -5.3 32.4 -5.45 32.35 -5.75 32.35 -5.95 32.3 -6.15 32.25 -6.25 32.2 -6.3 32.15 -6.45 32.1 -6.6 32.1 -6.8 32.05 -7.0 32.0 -7.15 31.9 -7.85 31.85 -8.05 31.8 -8.25 31.75 -9.1 31.7 -9.3 31.65 -9.5 31.6 -9.75 31.5 -9.85 31.45 -10.05 31.4 -10.2 31.35 -10.25 31.35 -10.45 31.3 -10.65 31.25 -10.7 31.2 -10.85 31.2 -11.05 31.15 -11.25 31.1 -11.5 31.0 -11.6 30.95 -11.7 30.9 -11.85 30.85 -11.9 30.85 -12.05 30.8 -12.25 30.75 -12.4 30.65 -12.6 30.6 -12.8 30.55 -13.0 30.5 -13.1 30.45 -13.2 30.4 -13.35 30.35 -13.4 30.35 -13.55 30.3 -13.75 30.25 -13.9 30.15 -14.0 30.1 -14.05 30.05 -14.25 30.0 -14.4 29.9 -14.55 29.8 -14.75 29.7 -14.85 29.6 -15.0 29.5 -15.15 29.45 -15.4 29.35 -15.55 29.25 -15.65 29.15 -15.75 29.1 -15.95 29.05 -16.15 29.0 -16.3 28.9 -16.4 28.8 -16.55 28.7 -16.7 28.65 -16.9 28.6 -17.15 28.5 -17.3 28.4 -17.4 28.3 -17.5 28.2 -17.65 28.1 -17.8 28.0 -17.9 27.95 -18.0 27.85 -18.25 27.75 -18.4 27.65 -18.55 27.55 -18.75 27.45 -18.85 27.35 -19.0 27.25 -19.15 27.2 -19.25 27.1 -19.4 27.0 -19.55 26.9 -19.65 26.85 -19.7 26.8 -19.9 26.75 -20.05 26.65 -20.15 26.55 -20.3 26.45 -20.5 26.35 -20.65 26.25 -20.8 26.2 -20.9 26.1 -21.0 26.0 -21.05 25.9 -21.25 25.8 -21.35 25.7 -21.45 25.6 -21.55 25.5 -21.65 25.45 -21.75 25.35 -21.8 25.25 -21.9 25.15 -22.0 25.05 -22.05 24.95 -22.15 24.85 -22.2 24.75 -22.3 24.7 -22.4 24.6 -22.5 24.5 -22.55 24.4 -22.6 24.3 -22.65 24.2 -22.7 24.1 -22.8 24.0 -22.9 23.95 -22.95 23.85 -23.0 23.75 -23.05 23.65 -23.15 23.55 -23.25 23.45 -23.3 23.35 -23.4 23.25 -23.45 23.2 -23.5 23.1 -23.55 23.0 -23.6 22.9 -23.65 22.8 -23.75 22.7 -23.85 22.6 -23.95 22.5 -24.05 22.45 -24.1 22.35 -24.15 22.25 -24.2 22.15 -24.25 22.05 -24.35 21.95 -24.45 21.85 -24.55 21.75 -24.65 21.7 -24.75 21.6 -24.8 21.5 -24.9 21.4 -25.0 21.3 -25.05 21.2 -25.15 21.1 -25.2 21.0 -25.3 20.95 -25.4 20.85 -25.5 20.75 -25.55 20.65 -25.6 20.55 -25.7 20.45 -25.8 20.35 -25.9 20.25 -25.95 20.2 -26.0 20.1 -26.05 20.0 -26.15 19.9 -26.25 19.8 -26.35 19.7 -26.45 19.6 -26.55 19.5 -26.6 19.45 -26.65 19.35 -26.75 19.25 -26.8 19.15 -26.85 19.05 -26.9 18.95 -26.95 18.85 -27.0 18.75 -27.05 18.7 -27.1 18.6 -27.15 18.5 -27.2 18.4 -27.25 18.3 -27.35 18.2 -27.4 18.1 -27.5 18.0 -27.55 17.95 -27.6 17.85 -27.65 17.75 -27.7 17.65 -27.75 17.55 -27.85 17.45 -27.95 17.35 -28.05 17.25 -28.1 17.2 -28.15 17.1 -28.15 17.0 -28.2 16.9 -28.25 16.8 -28.35 16.7 -28.4 16.6 -28.5 16.5 -28.55 16.45 -28.6 16.35 -28.65 16.25 -28.65 16.15 -28.7 16.05 -28.75 15.95 -28.8 15.85 -28.9 15.75 -28.95 15.7 -29.0 15.6 -29.05 15.5 -29.1 15.4 -29.15 15.3 -29.25 15.2 -29.3 15.1 -29.4 15.0 -29.4 14.95 -29.5 14.85 -29.55 14.75 -29.6 14.65 -29.65 14.55 -29.75 14.45 -29.8 14.35 -29.9 14.25 -29.9 14.2 -30.0 14.1 -30.05 14.0 -30.15 13.9 -30.2 13.8 -30.25 13.7 -30.25 13.6 -30.3 13.5 -30.35 13.45 -30.4 13.35 -30.4 13.25 -30.45 13.15 -30.5 13.05 -30.6 12.95 -30.65 12.85 -30.75 12.75 -30.8 12.7 -30.85 12.6 -30.9 12.5 -30.9 12.4 -30.95 12.3 -31.0 12.2 -31.05 12.1 -31.15 12.0 -31.15 11.95 -31.2 11.85 -31.2 11.75 -31.2 11.65 -31.25 11.55 -31.3 11.45 -31.3 11.35 -31.4 11.25 -31.4 11.2 -31.45 11.1 -31.5 11.0 -31.55 10.9 -31.6 10.8 -31.65 10.7 -31.65 10.6 -31.7 10.5 -31.7 10.45 -31.75 10.35 -31.75 10.25 -31.8 10.15 -31.8 10.05 -31.8 9.95 -31.9 9.85 -31.9 9.75 -31.95 9.7 -31.95 9.6 -31.95 9.5 -31.95 9.4 -32.0 9.3 -32.05 9.2 -32.05 9.1 -32.15 9.0 -32.15 8.95 -32.2 8.85 -32.2 8.75 -32.2 8.65 -32.2 8.55 -32.2 8.45 -32.2 8.35 -32.2 8.25 -32.2 8.2 -32.2 8.1 -32.2 8.0 -32.2 7.9 -32.2 7.8 -32.2 7.7 -32.2 7.6 -32.2 7.5 -32.2 7.45 -32.25 7.35 -32.25 7.25 -32.3 7.15 -32.3 7.05 -32.3 6.95 -32.3 6.85 -32.3 6.75 -32.3 6.7 -32.35 6.6 -32.4 6.5 -32.4 6.4 -32.45 6.3 -32.45 6.2 -32.5 6.1 -32.5 6.0 -32.55 5.95 -32.55 5.85 -32.55 5.75 -32.55 5.65 -32.55 5.55 -32.55 5.45 -32.55 5.35 -32.55 5.25 -32.55 5.2 -32.55 5.1 -32.55 5.0 -32.55 4.9 -32.6 4.8 -32.65 4.7 -32.65 4.6 -32.7 4.5 -32.7 4.45 -32.7 4.35 -32.7 4.25 -32.7 4.15 -32.7 4.05 -32.7 3.95 -32.7 3.85 -32.7 3.75 -32.7 3.7 -32.7 3.6 -32.7 3.5 -32.7 3.4 -32.7 3.3 -32.75 3.2 -32.75 3.1 -32.8 3.0 -32.8 2.95 -32.8 2.85 -32.8 2.75 -32.8 2.65 -32.8 2.55 -32.8 2.45 -32.8 2.35 -32.8 2.25 -32.8 2.2 -32.8 2.1 -32.8 2.0 -32.8 1.9 -32.8 1.8 -32.8 1.7 -32.8 1.6 -32.8 1.5 -32.85 1.45 -32.9 1.35 -32.9 1.25 -32.95 1.15 -32.95 1.05 -32.95 0.95 -32.95 0.85 -32.95 0.75 -32.95 0.7 -32.95 0.6 -32.95 0.5 -32.95 0.4 -32.95 0.3 -33.0 0.2 -33.0 0.1 -33.05 0.0 -33.05 -0.05 -33.05 -0.15 -33.05 -0.25 -33.05 -0.35 -33.05 -0.45 -33.05 -0.55 -33.15 -0.65 -33.15 -0.75 -33.2 -0.8 -33.2 -0.9 -33.2 -1.0 -33.2 -1.1 -33.2 -1.2 -33.2 -1.3 -33.2 -1.4 -33.2 -1.5 -33.2 -1.55 -33.2 -1.65 -33.2 -1.75 -33.2 -1.85 -33.2 -1.95 -33.2 -2.05 -33.2 -2.15 -33.2 -2.25 -33.2 -2.3 -33.2 -2.4 -33.2 -2.5 -33.2 -2.6 -33.2 -2.7 -33.2 -2.8 -33.2 -2.9 -33.2 -3.0 -33.2 -3.05 -33.2 -3.15 -33.2 -3.25 -33.2 -3.35 -33.2 -3.45 -33.2 -3.55 -33.2 -3.65 -33.2 -3.75 -33.2 -3.8 -33.2 -3.9 -33.2 -4.0 -33.2 -4.1 -33.2 -4.2 -33.2 -4.3 -33.2 -4.4 -33.2 -4.5 -33.15 -4.55 -33.15 -4.65 -33.1 -4.75 -33.05 -4.85 -33.0 -4.95 -32.95 -5.05 -32.95 -5.15 -32.95 -5.25 -32.9 -5.3 -32.9 -5.4 -32.85 -5.5 -32.8 -5.6 -32.8 -5.7 -32.8 -5.8 -32.8 -5.9 -32.8 -6.0 -32.75 -6.05 -32.75 -6.15 -32.7 -6.25 -32.7 -6.35 -32.7 -6.45 -32.7 -6.55 -32.7 -6.65 -32.65 -6.75 -32.65 -6.8 -32.6 -6.9 -32.55 -7.0 -32.5 -7.1 -32.45 -7.2 -32.4 -7.3 -32.3 -7.4 -32.2 -7.5 -32.05 -7.55 -32.0 -7.6 -32.0 -7.7 -31.95 -7.8 -31.95 -7.9 -31.9 -8.0 -31.9 -8.05 -31.85 -8.15 -31.8 -8.25 -31.75 -8.35 -31.75 -8.45 -31.7 -8.55 -31.65 -8.65 -31.55 -8.75 -31.5 -8.8 -31.5 -8.9 -31.45 -9.0 -31.45 -9.1 -31.45 -9.2 -31.45 -9.3 -31.4 -9.4 -31.4 -9.5 -31.3 -9.55 -31.3 -9.65 -31.3 -9.75 -31.25 -9.85 -31.25 -9.95 -31.2 -10.05 -31.15 -10.15 -31.15 -10.25 -31.05 -10.3 -31.05 -10.4 -31.05 -10.5 -31.05 -10.6 -31.05 -10.7 -31.0 -10.8 -31.0 -10.9 -30.95 -11.0 -30.95 -11.05 -30.95 -11.15 -30.95 -11.25 -30.9 -11.35 -30.9 -11.45 -30.85 -11.55 -30.8 -11.65 -30.75 -11.75 -30.75 -11.8 -30.7 -11.9 -30.7 -12.0 -30.65 -12.1 -30.65 -12.2 -30.6 -12.3 -30.55 -12.4 -30.55 -12.5 -30.5 -12.55 -30.5 -12.65 -30.45 -12.75 -30.45 -12.85 -30.45 -12.95 -30.4 -13.05 -30.4 -13.15 -30.3 -13.25 -30.25 -13.3 -30.2 -13.4 -30.2 -13.5 -30.15 -13.6 -30.15 -13.7 -30.1 -13.8 -30.05 -13.9 -30.0 -14.0 -29.95 -14.05 -29.9 -14.15 -29.85 -14.25 -29.8 -14.35 -29.75 -14.45 -29.7 -14.55 -29.65 -14.65 -29.65 -14.75 -29.55 -14.8 -29.5 -14.9 -29.45 -15.0 -29.4 -15.1 -29.35 -15.2 -29.3 -15.3 -29.25 -15.4 -29.2 -15.5 -29.15 -15.55 -29.15 -15.65 -29.1 -15.75 -29.05 -15.85 -29.0 -15.95 -28.9 -16.05 -28.9 -16.15 -28.8 -16.25 -28.75 -16.3 -28.65 -16.4 -28.6 -16.5 -28.55 -16.6 -28.5 -16.7 -28.4 -16.8 -28.4 -16.9 -28.3 -17.0 -28.25 -17.05 -28.15 -17.15 -28.05 -17.25 -28.0 -17.35 -27.95 -17.45 -27.9 -17.55 -27.8 -17.65 -27.7 -17.75 -27.6 -17.8 -27.5 -17.9 -27.4 -18.0 -27.3 -18.1 -27.25 -18.2 -27.2 -18.3 -27.15 -18.4 -27.05 -18.5 -27.0 -18.55 -26.9 -18.65 -26.8 -18.75 -26.75 -18.85 -26.65 -18.95 -26.55 -19.05 -26.35 -19.15 -26.2 -19.25 -26.1 -19.3 -26.0 -19.4 -25.95 -19.5 -25.9 -19.6 -25.85 -19.7 -25.8 -19.8 -25.7 -19.9 -25.65 -20.0 -25.55 -20.05 -25.5 -20.15 -25.4 -20.25 -25.3 -20.35 -25.25 -20.45 -25.15 -20.55 -25.05 -20.65 -24.95 -20.75 -24.9 -20.8 -24.85 -20.9 -24.8 -21.0 -24.75 -21.1 -24.65 -21.2 -24.55 -21.3 -24.45 -21.4 -24.4 -21.5 -24.3 -21.55 -24.25 -21.65 -24.15 -21.75 -24.05 -21.85 -24.0 -21.95 -23.9 -22.05 -23.8 -22.15 -23.75 -22.25 -23.65 -22.3 -23.65 -22.4 -23.55 -22.5 -23.5 -22.6 -23.45 -22.7 -23.4 -22.8 -23.3 -22.9 -23.2 -23.0 -23.15 -23.05 -23.1 -23.15 -23.05 -23.25 -23.0 -23.35 -22.95 -23.45 -22.9 -23.55 -22.8 -23.65 -22.7 -23.75 -22.6 -23.8 -22.5 -23.9 -22.45 -24.0 -22.4 -24.1 -22.35 -24.2 -22.3 -24.3 -22.2 -24.4 -22.1 -24.5 -22.0 -24.55 -21.9 -24.65 -21.8 -24.75 -21.65 -24.85 -21.5 -24.95 -21.4 -25.05 -21.3 -25.15 -21.15 -25.2 -21.1 -25.25 -20.95 -25.25 -20.75 -25.25 -20.75 -25.3 -20.65 -25.25 -20.6 -25.3 -20.5 -25.4 -20.4 -25.5 -20.3 -25.6 -20.25 -25.7 -20.15 -25.8 -20.0 -25.9 -19.85 -26.0 -19.75 -26.05 -19.55 -26.15 -19.4 -26.25 -19.25 -26.35 -19.0 -26.45 -18.9 -26.55 -18.8 -26.65 -18.65 -26.75 -18.5 -26.8 -18.35 -26.9 -18.2 -26.9 -18.0 -27.0 -17.85 -27.05 -17.75 -27.15 -17.55 -27.25 -17.4 -27.35 -17.15 -27.45 -17.05 -27.55 -16.9 -27.6 -16.85 -27.65 -16.65 -27.7 -16.4 -27.8 -16.3 -27.9 -16.2 -28.0 -16.05 -28.05 -15.95 -28.15 -15.8 -28.15 -15.65 -28.25 -15.5 -28.3 -15.3 -28.4 -15.15 -28.5 -15.0 -28.6 -14.75 -28.7 -14.55 -28.8 -14.4 -28.9 -14.25 -28.95 -14.2 -29.0 -14.05 -29.05 -13.9 -29.1 -13.85 -29.15 -13.65 -29.2 -13.55 -29.3 -13.4 -29.35 -13.35 -29.4 -13.15 -29.45 -12.9 -29.55 -12.75 -29.6 -12.7 -29.65 -12.55 -29.65 -12.4 -29.75 -12.25 -29.8 -12.1 -29.9 -11.95 -29.9 -11.75 -29.95 -11.7 -30.0 -11.55 -30.05 -11.4 -30.1 -11.35 -30.15 -11.2 -30.15 -11.0 -30.25 -10.8 -30.3 -10.7 -30.4 -10.5 -30.45 -10.3 -30.5 -10.1 -30.55 -10.0 -30.65 -9.85 -30.75 -9.7 -30.75 -9.5 -30.8 -9.35 -30.9 -9.2 -30.9 -9.0 -30.95 -8.95 -31.0 -8.8 -31.05 -8.65 -31.1 -8.6 -31.15 -8.4 -31.2 -8.2 -31.25 -8.0 -31.3 -7.85 -31.4 -7.7 -31.4 -7.5 -31.45 -7.15 -31.5 -7.0 -31.6 -6.8 -31.65 -6.6 -31.7 -6.2 -31.75 -6.05 -31.75 -5.85 -31.8 -5.4 -31.85 -5.2 -31.9 -5.0 -31.95 -4.45 -32.0 -4.3 -32.0 -4.1 -32.05 -3.75 -32.1 -3.55 -32.15 -3.35 -32.2 -2.35 -32.25 -2.2 -32.25 -2.0 -32.25 -2.0 -32.3 4.4 -32.3 4.6 -32.25 4.8 -32.2 4.95 -32.1 5.0 -32.05 5.65 -32.05 5.85 -32.0 6.05 -31.95 6.3 -31.85 6.4 -31.8 6.6 -31.75 6.75 -31.75 7.15 -31.7 7.35 -31.65 7.55 -31.6 8.0 -31.55 8.2 -31.5 8.35 -31.5 8.4 -31.45 8.6 -31.4 8.8 -31.35 8.95 -31.25 9.05 -31.2 9.2 -31.15 9.4 -31.1 9.5 -31.0 9.6 -30.95 9.7 -30.9 9.9 -30.85 10.0 -30.75 10.15 -30.7 10.2 -30.65 10.4 -30.6 10.5 -30.5 10.65 -30.45 10.7 -30.4 10.9 -30.35 11.15 -30.3 11.35 -30.25 11.55 -30.2 11.7 -30.1 11.75 -30.05 11.95 -30.0 12.1 -30.0 12.15 -29.95 12.35 -29.9 12.55 -29.85 12.65 -29.8 12.7 -29.75 12.9 -29.7 13.0 -29.6 13.15 -29.5 13.3 -29.45 13.35 -29.4 13.55 -29.35 13.7 -29.25 13.8 -29.2 13.95 -29.15 14.15 -29.1 14.25 -29.0 14.4 -28.95 14.45 -28.9 14.65 -28.85 14.75 -28.75 14.9 -28.65 15.1 -28.55 15.25 -28.5 15.4 -28.4 15.5 -28.3 15.65 -28.2 15.9 -28.1 16.0 -28.0 16.2 -27.9 16.35 -27.8 16.5 -27.75 16.6 -27.65 16.8 -27.6 16.95 -27.5 17.05 -27.4 17.2 -27.3 17.3 -27.25 17.35 -27.25 17.5 -27.2 17.7 -27.15 17.9 -27.1 18.0 -27.0 18.1 -26.95 18.2 -26.9 18.4 -26.85 18.5 -26.75 18.7 -26.65 18.85 -26.55 19.0 -26.5 19.1 -26.4 19.3 -26.35 19.45 -26.25 19.6 -26.15 19.75 -26.05 19.85 -26.0 19.95 -25.9 20.15 -25.85 20.25 -25.75 20.45 -25.65 M4.5 -30.25 L4.35 -30.35 4.3 -30.4 -1.65 -30.4 -1.8 -30.35 -2.0 -30.3 -2.95 -30.25 -3.15 -30.2 -3.35 -30.15 -3.75 -30.15 -3.9 -30.1 -4.1 -30.05 -4.6 -30.0 -4.8 -29.95 -5.0 -29.9 -5.5 -29.9 -5.65 -29.85 -5.85 -29.8 -6.2 -29.75 -6.45 -29.65 -6.65 -29.6 -6.85 -29.55 -7.1 -29.5 -7.3 -29.45 -7.5 -29.4 -7.75 -29.35 -7.85 -29.25 -8.05 -29.2 -8.2 -29.15 -8.25 -29.15 -8.5 -29.05 -8.6 -29.0 -8.65 -29.0 -8.8 -28.95 -9.0 -28.9 -9.25 -28.85 -9.35 -28.75 -9.55 -28.7 -9.7 -28.65 -9.75 -28.65 -10.0 -28.55 -10.1 -28.5 -10.15 -28.5 -10.35 -28.4 -10.5 -28.3 -10.6 -28.25 -10.65 -28.25 -10.8 -28.2 -11.0 -28.15 -11.15 -28.15 -11.35 -28.05 -11.5 -28.0 -11.6 -27.9 -11.65 -27.9 -11.85 -27.8 -11.95 -27.75 -12.0 -27.75 -12.15 -27.7 -12.4 -27.65 -12.55 -27.55 -12.65 -27.5 -12.85 -27.4 -13.1 -27.3 -13.3 -27.25 -13.4 -27.15 -13.55 -27.05 -13.65 -27.0 -13.8 -26.95 -14.0 -26.9 -14.15 -26.8 -14.3 -26.7 -14.5 -26.6 -14.6 -26.5 -14.85 -26.4 -15.0 -26.3 -15.1 -26.25 -15.25 -26.15 -15.4 -26.05 -15.5 -26.0 -15.65 -25.95 -15.9 -25.9 -16.0 -25.8 -16.15 -25.7 -16.25 -25.65 -16.5 -25.55 -16.65 -25.5 -16.75 -25.4 -16.9 -25.3 -17.0 -25.25 -17.2 -25.15 -17.5 -25.05 -17.65 -25.0 -17.75 -24.9 -17.9 -24.8 -18.0 -24.75 -18.2 -24.65 -18.35 -24.55 -18.55 -24.5 -18.65 -24.4 -18.8 -24.3 -18.85 -24.2 -18.95 -24.1 -19.05 -24.0 -19.2 -23.9 -19.3 -23.8 -19.4 -23.75 -19.5 -23.65 -19.6 -23.55 -19.7 -23.45 -19.8 -23.35 -19.95 -23.25 -20.15 -23.2 -20.35 -23.15 -20.5 -23.15 -20.6 -23.2 -20.65 -23.15 -20.75 -23.05 -20.75 -22.95 -20.8 -22.85 -20.9 -22.75 -21.0 -22.65 -21.1 -22.55 -21.25 -22.5 -21.25 -22.4 -21.3 -22.3 -21.35 -22.2 -21.4 -22.1 -21.5 -22.0 -21.55 -21.9 -21.65 -21.8 -21.75 -21.75 -21.8 -21.65 -21.85 -21.55 -21.9 -21.45 -22.0 -21.35 -22.05 -21.25 -22.15 -21.15 -22.25 -21.05 -22.25 -21.0 -22.3 -20.9 -22.35 -20.8 -22.45 -20.7 -22.55 -20.6 -22.65 -20.5 -22.7 -20.4 -22.75 -20.3 -22.8 -20.25 -22.9 -20.15 -23.0 -20.05 -23.1 -19.95 -23.15 -19.85 -23.25 -19.75 -23.3 -19.65 -23.35 -19.55 -23.4 -19.5 -23.5 -19.4 -23.6 -19.3 -23.65 -19.2 -23.75 -19.1 -23.8 -19.0 -23.9 -18.9 -24.0 -18.8 -24.05 -18.75 -24.15 -18.65 -24.25 -18.55 -24.35 -18.45 -24.45 -18.35 -24.55 -18.25 -24.65 -18.15 -24.75 -18.05 -24.75 -18.0 -24.8 -17.9 -24.85 -17.8 -24.95 -17.7 -25.05 -17.6 -25.2 -17.5 -25.4 -17.4 -25.5 -17.3 -25.55 -17.25 -25.65 -17.15 -25.75 -17.05 -25.75 -16.95 -25.8 -16.85 -25.9 -16.75 -26.0 -16.65 -26.05 -16.55 -26.15 -16.5 -26.25 -16.4 -26.3 -16.3 -26.35 -16.2 -26.45 -16.1 -26.55 -16.0 -26.65 -15.9 -26.7 -15.8 -26.75 -15.75 -26.8 -15.65 -26.85 -15.55 -26.9 -15.45 -27.0 -15.35 -27.05 -15.25 -27.15 -15.15 -27.2 -15.05 -27.25 -15.0 -27.3 -14.9 -27.35 -14.8 -27.4 -14.7 -27.4 -14.6 -27.45 -14.5 -27.5 -14.4 -27.55 -14.3 -27.6 -14.25 -27.65 -14.15 -27.75 -14.05 -27.75 -13.95 -27.8 -13.85 -27.85 -13.75 -27.9 -13.65 -27.95 -13.55 -28.0 -13.5 -28.05 -13.4 -28.1 -13.3 -28.15 -13.2 -28.2 -13.1 -28.25 -13.0 -28.3 -12.9 -28.35 -12.8 -28.4 -12.75 -28.4 -12.65 -28.45 -12.55 -28.5 -12.45 -28.55 -12.35 -28.55 -12.25 -28.6 -12.15 -28.65 -12.05 -28.65 -12.0 -28.65 -11.9 -28.7 -11.8 -28.75 -11.7 -28.75 -11.6 -28.8 -11.5 -28.8 -11.4 -28.85 -11.3 -28.9 -11.25 -28.9 -11.15 -28.9 -11.05 -28.95 -10.95 -28.95 -10.85 -29.0 -10.75 -29.05 -10.65 -29.05 -10.55 -29.05 -10.5 -29.05 -10.4 -29.1 -10.3 -29.15 -10.2 -29.15 -10.1 -29.15 -10.0 -29.15 -9.9 -29.15 -9.8 -29.15 -9.75 -29.2 -9.65 -29.25 -9.55 -29.25 -9.45 -29.3 -9.35 -29.4 -9.25 -29.4 -9.15 -29.4 -9.05 -29.4 -9.0 -29.45 -8.9 -29.5 -8.8 -29.5 -8.7 -29.55 -8.6 -29.55 -8.5 -29.6 -8.4 -29.65 -8.3 -29.65 -8.25 -29.65 -8.15 -29.7 -8.05 -29.75 -7.95 -29.75 -7.85 -29.8 -7.75 -29.9 -7.65 -29.95 -7.55 -30.0 -7.5 -30.0 -7.4 -30.05 -7.3 -30.1 -7.2 -30.1 -7.1 -30.15 -7.0 -30.2 -6.9 -30.25 -6.8 -30.25 -6.75 -30.3 -6.65 -30.35 -6.55 -30.45 -6.45 -30.5 -6.35 -30.55 -6.25 -30.65 -6.15 -30.75 -6.05 -30.8 -6.0 -30.8 -5.9 -30.8 -5.8 -30.8 -5.75 -30.85 -5.65 -30.9 -5.55 -30.9 -5.45 -30.9 -5.35 -30.9 -5.25 -30.9 -5.15 -30.95 -5.05 -31.0 -5.0 -31.0 -4.9 -31.05 -4.8 -31.05 -4.7 -31.1 -4.6 -31.1 -4.5 -31.15 -4.4 -31.15 -4.3 -31.15 -4.25 -31.2 -4.15 -31.25 -4.05 -31.25 -3.95 -31.3 -3.85 -31.3 -3.75 -31.3 -3.65 -31.3 -3.55 -31.3 -3.5 -31.3 -3.4 -31.3 -3.3 -31.3 -3.2 -31.3 -3.1 -31.3 -3.0 -31.3 -2.9 -31.3 -2.8 -31.3 -2.75 -31.3 -2.65 -31.3 -2.55 -31.3 -2.45 -31.3 -2.35 -31.3 -2.25 -31.3 -2.15 -31.3 -2.05 -31.3 -2.0 -31.3 -1.9 -31.3 -1.8 -31.3 -1.7 -31.3 -1.6 -31.3 -1.5 -31.3 -1.4 -31.3 -1.3 -31.25 -1.25 -31.25 -1.15 -31.2 -1.05 -31.15 -0.95 -31.15 -0.85 -31.15 -0.75 -31.15 -0.65 -31.15 -0.55 -31.15 -0.5 -31.15 -0.4 -31.15 -0.3 -31.1 -0.2 -31.05 -0.1 -31.05 0.0 -31.05 0.1 -31.05 0.2 -31.05 0.25 -31.05 0.35 -31.05 0.45 -31.05 0.55 -31.05 0.65 -31.0 0.75 -31.0 0.85 -30.95 0.95 -30.9 1.0 -30.9 1.1 -30.9 1.2 -30.9 1.3 -30.9 1.4 -30.9 1.5 -30.9 1.6 -30.9 1.7 -30.9 1.75 -30.9 1.85 -30.9 1.95 -30.9 2.05 -30.9 2.15 -30.9 2.25 -30.9 2.35 -30.9 2.45 -30.9 2.5 -30.9 2.6 -30.85 2.7 -30.8 2.8 -30.8 2.9 -30.8 3.0 -30.8 3.1 -30.8 3.2 -30.8 3.25 -30.8 3.35 -30.8 3.45 -30.8 3.55 -30.8 3.65 -30.8 3.75 -30.8 3.85 -30.8 3.95 -30.75 4.0 -30.75 4.1 -30.7 4.2 -30.65 4.3 -30.65 4.4 -30.65 4.5 -30.65 4.6 -30.65 4.7 -30.65 4.75 -30.65 4.85 -30.65 4.95 -30.65 5.05 -30.65 5.15 -30.65 5.25 -30.65 5.35 -30.65 5.45 -30.65 5.5 -30.6 5.6 -30.55 5.7 -30.5 5.8 -30.45 5.9 -30.45 6.0 -30.4 6.1 -30.4 6.2 -30.4 6.25 -30.4 6.35 -30.4 6.45 -30.4 6.55 -30.4 6.65 -30.35 6.75 -30.35 6.85 -30.3 6.95 -30.3 7.0 -30.3 7.1 -30.3 7.2 -30.3 7.3 -30.3 7.4 -30.3 7.5 -30.3 7.6 -30.3 7.7 -30.3 7.75 -30.3 7.85 -30.3 7.95 -30.3 8.05 -30.3 8.15 -30.3 8.25 -30.25 8.35 -30.25 8.45 -30.2 8.5 -30.15 8.6 -30.15 8.7 -30.1 8.8 -30.05 8.9 -30.05 9.0 -30.0 9.1 -30.0 9.2 -29.95 9.25 -29.9 9.35 -29.9 9.45 -29.9 9.55 -29.9 9.65 -29.85 9.75 -29.85 9.85 -29.8 9.95 -29.75 10.0 -29.75 10.1 -29.7 10.2 -29.65 10.3 -29.6 10.4 -29.55 10.5 -29.5 10.6 -29.5 10.7 -29.45 10.75 -29.4 10.85 -29.4 10.95 -29.35 11.05 -29.3 11.15 -29.25 11.25 -29.25 11.35 -29.2 11.45 -29.15 11.5 -29.1 11.6 -29.05 11.7 -29.0 11.8 -28.9 11.9 -28.8 12.0 -28.75 12.1 -28.75 12.2 -28.7 12.25 -28.65 12.35 -28.65 12.45 -28.65 12.55 -28.55 12.65 -28.5 12.75 -28.45 12.85 -28.35 12.95 -28.3 13.0 -28.25 13.1 -28.25 13.2 -28.15 13.3 -28.05 13.4 -28.0 13.5 -27.95 13.6 -27.85 13.7 -27.8 13.75 -27.75 13.85 -27.7 13.95 -27.65 14.05 -27.55 14.15 -27.5 14.25 -27.4 14.35 -27.35 14.45 -27.3 14.5 -27.25 14.6 -27.25 14.7 -27.15 14.8 -27.05 14.9 -27.0 15.0 -27.0 15.1 -26.95 15.2 -26.9 15.25 -26.85 15.35 -26.8 15.45 -26.75 15.5 -26.6 15.55 -26.5 15.65 -26.35 15.75 -26.25 15.85 -26.2 15.95 -26.15 16.0 -26.15 16.1 -26.1 16.2 -26.05 16.3 -26.05 16.4 -26.05 16.5 -26.0 16.6 -26.0 16.7 -25.9 16.75 -25.85 16.85 -25.8 16.95 -25.75 17.05 -25.7 17.15 -25.65 17.25 -25.6 17.35 -25.5 17.45 -25.4 17.5 -25.35 17.6 -25.3 17.7 -25.25 17.8 -25.2 17.9 -25.15 18.0 -25.1 18.1 -25.0 18.2 -24.95 18.25 -24.9 18.35 -24.8 18.45 -24.75 18.55 -24.65 18.65 -24.55 18.75 -24.45 18.85 -24.35 18.95 -24.25 19.0 -24.15 19.1 -24.1 19.2 -24.05 19.3 -24.0 19.4 -23.95 19.5 -23.85 19.6 -23.75 19.7 -23.65 19.75 -23.6 19.85 -23.55 19.95 -23.5 20.05 -23.4 20.15 -23.3 20.25 -23.2 20.35 -23.1 20.45 -23.0 20.5 -22.9 20.6 -22.85 20.7 -22.8 20.8 -22.75 20.9 -22.65 21.0 -22.6 21.1 -22.5 21.2 -22.4 21.25 -22.3 21.35 -22.25 21.45 -22.15 21.55 -22.05 21.65 -22.0 21.75 -21.95 21.85 -21.85 21.95 -21.8 22.0 -21.75 22.1 -21.75 22.2 -21.65 22.3 -21.55 22.4 -21.5 22.5 -21.4 22.6 -21.35 22.7 -21.25 22.75 -21.15 22.85 -21.1 22.95 -21.05 23.05 -21.0 23.15 -20.9 23.25 -20.85 23.35 -20.75 23.45 -20.65 23.5 -20.55 23.6 -20.5 23.7 -20.4 23.8 -20.3 23.9 -20.2 24.0 -20.1 24.1 -20.0 24.2 -19.9 24.25 -19.8 24.35 -19.75 24.45 -19.65 24.55 -19.55 24.65 -19.5 24.7 -19.4 24.75 -19.2 24.8 -19.05 24.9 -18.95 25.0 -18.85 25.05 -18.8 25.1 -18.6 25.15 -18.5 25.25 -18.3 25.35 -18.15 25.45 -18.0 25.5 -17.85 25.6 -17.75 25.7 -17.65 25.8 -17.45 25.9 -17.3 26.0 -17.2 26.05 -17.15 26.1 -16.95 26.15 -16.8 26.25 -16.7 26.35 -16.55 26.45 -16.4 26.5 -16.3 26.6 -16.25 26.7 -16.1 26.8 -15.85 26.9 -15.75 26.95 -15.65 27.0 -15.45 27.05 -15.3 27.15 -15.25 27.2 -15.15 27.25 -14.95 27.3 -14.7 27.4 -14.55 27.5 -14.5 27.55 -14.4 27.6 -14.2 27.65 -14.05 27.75 -13.9 27.85 -13.75 27.95 -13.65 28.0 -13.55 28.1 -13.35 28.2 -13.1 28.3 -12.95 28.4 -12.85 28.45 -12.8 28.5 -12.6 28.55 -12.35 28.65 -12.1 28.7 -11.9 28.75 -11.7 28.8 -11.55 28.9 -11.5 28.95 -11.3 29.0 -11.15 29.0 -11.1 29.05 -10.9 29.1 -10.7 29.15 -10.55 29.25 -10.5 29.3 -10.35 29.3 -10.15 29.35 -9.95 29.4 -9.85 29.45 -9.65 29.5 -9.5 29.5 -9.35 29.55 -9.15 29.6 -8.95 29.65 -8.8 29.75 -7.85 29.8 -7.65 29.85 -7.45 29.9 -7.0 29.95 -6.8 30.0 -6.65 30.0 -6.6 30.05 -6.4 30.1 -6.2 30.15 -6.1 30.2 -6.05 30.25 -5.9 30.25 -5.75 30.3 -5.55 30.35 -5.35 30.4 -5.25 30.45 -5.05 30.5 -4.9 30.5 -4.75 30.55 -4.55 30.6 -4.35 30.65 -4.0 30.7 -3.8 30.75 -3.65 30.75 -3.1 30.8 -2.9 30.85 -2.7 30.9 -0.6 30.95 -0.4 31.0 -0.25 31.0 1.55 31.0 1.7 31.0 1.95 30.95 2.05 30.85 2.2 30.85 2.4 30.8 4.3 30.75 4.45 30.75 4.65 30.7 4.85 30.65 5.05 30.6 5.25 30.55 5.55 30.5 5.7 30.5 5.9 30.45 7.0 30.4 7.2 30.35 7.4 30.3 8.1 30.25 8.25 30.15 8.45 30.1 8.6 30.05 8.65 30.0 8.85 29.95 9.0 29.9 9.05 29.85 9.25 29.8 9.45 29.7 9.6 29.65 9.65 29.6 9.8 29.6 10.0 29.55 10.1 29.55 10.35 29.45 10.45 29.35 10.6 29.3 10.65 29.25 10.85 29.2 11.0 29.1 11.15 29.0 11.25 28.95 11.4 28.85 11.6 28.8 11.7 28.7 11.85 28.65 11.9 28.6 12.1 28.55 12.2 28.45 12.35 28.4 12.4 28.35 12.6 28.3 12.85 28.2 12.95 28.1 13.1 28.05 13.15 28.0 13.35 27.95 13.45 27.85 13.6 27.75 13.75 27.7 13.95 27.6 14.1 27.5 14.2 27.4 14.25 27.3 14.35 27.2 14.5 27.15 14.55 27.1 14.75 27.05 14.85 26.95 14.95 26.85 15.05 26.75 15.2 26.7 15.3 26.6 15.5 26.55 15.6 26.45 15.7 26.35 15.85 26.25 16.0 26.2 16.15 26.1 16.35 26.05 16.45 25.95 16.6 25.85 16.75 25.8 16.8 25.75 16.95 25.7 17.1 25.6 17.25 25.5 17.4 25.45 17.5 25.35 17.6 25.25 17.75 25.15 17.85 25.05 17.95 24.95 18.15 24.85 18.3 24.75 18.4 24.7 18.5 24.6 18.65 24.5 18.85 24.45 19.0 24.4 19.05 24.35 19.25 24.3 19.35 24.2 19.45 24.1 19.6 24.0 19.75 23.95 19.95 23.85 20.1 23.75 20.2 23.65 20.35 23.55 20.45 23.45 20.65 23.35 20.8 23.25 20.9 23.2 21.0 23.1 21.2 23.0 21.25 22.9 21.35 22.8 21.45 22.7 21.6 22.6 21.7 22.5 21.75 22.45 21.85 22.35 21.9 22.25 21.95 22.15 22.0 22.05 22.1 21.95 22.2 21.85 22.3 21.75 22.35 21.7 22.4 21.6 22.45 21.5 22.5 21.4 22.6 21.3 22.7 21.2 22.8 21.1 22.85 21.0 22.95 20.95 23.0 20.85 23.1 20.75 23.2 20.65 23.25 20.55 23.35 20.45 23.35 20.35 23.45 20.25 23.5 20.2 23.6 20.1 23.7 20.0 23.75 19.9 23.85 19.8 23.95 19.7 24.0 19.6 24.1 19.5 24.15 19.45 24.25 19.35 24.3 19.25 24.35 19.15 24.45 19.05 24.5 18.95 24.6 18.85 24.7 18.75 24.75 18.7 24.85 18.6 24.95 18.5 25.0 18.4 25.05 18.3 25.1 18.2 25.2 18.1 25.3 18.0 25.35 17.95 25.4 17.85 25.45 17.75 25.5 17.65 25.55 17.55 25.6 17.45 25.6 17.35 25.7 17.25 25.75 17.2 25.85 17.1 25.95 17.0 26.0 16.9 26.05 16.8 26.1 16.7 26.2 16.6 26.25 16.5 26.3 16.45 26.35 16.35 26.4 16.25 26.45 16.15 26.5 16.05 26.55 15.95 26.6 15.85 26.7 15.75 26.75 15.7 26.8 15.6 26.85 15.5 26.85 15.45 26.8 15.35 26.8 15.25 26.8 15.15 26.8 15.05 26.8 14.95 26.85 14.85 26.85 14.75 26.95 14.7 27.0 14.6 27.1 14.5 27.2 14.4 27.2 14.3 27.25 14.2 27.25 14.1 27.3 14.0 27.3 13.95 27.3 13.85 27.3 13.75 27.3 13.65 27.3 13.55 27.35 13.45 27.35 13.35 27.45 13.25 27.5 13.2 27.6 13.1 27.65 13.0 27.7 12.9 27.75 12.8 27.8 12.7 27.85 12.6 27.95 12.5 28.0 12.45 28.05 12.35 28.1 12.25 28.1 12.15 28.15 12.05 28.2 11.95 28.25 11.85 28.25 11.75 28.35 11.7 28.35 11.6 28.45 11.5 28.5 11.4 28.55 11.3 28.6 11.2 28.6 11.1 28.7 11.0 28.75 10.95 28.8 10.85 28.85 10.75 28.85 10.65 28.9 10.55 28.95 10.45 29.0 10.35 29.0 10.25 29.05 10.2 29.1 10.1 29.15 10.0 29.2 9.9 29.25 9.8 29.3 9.7 29.3 9.6 29.35 9.5 29.35 9.45 29.4 9.35 29.45 9.25 29.5 9.15 29.5 9.05 29.55 8.95 29.6 8.85 29.6 8.75 29.7 8.7 29.7 8.6 29.7 8.5 29.75 8.4 29.75 8.3 29.8 8.2 29.8 8.1 29.8 8.0 29.8 7.95 29.8 7.85 29.8 7.75 29.8 7.65 29.8 7.55 29.8 7.45 29.8 7.35 29.8 7.25 29.8 7.2 29.8 7.1 29.8 7.0 29.85 6.9 29.85 6.8 29.9 6.7 29.95 6.6 29.95 6.5 30.0 6.45 30.0 6.35 30.05 6.25 30.1 6.15 30.1 6.05 30.15 5.95 30.2 5.85 30.2 5.75 30.2 5.7 30.2 5.6 30.2 5.5 30.2 5.4 30.2 5.3 30.2 5.2 30.2 5.1 30.25 5.0 30.25 4.95 30.3 4.85 30.3 4.75 30.3 4.65 30.3 4.55 30.3 4.45 30.3 4.35 30.3 4.25 30.3 4.2 30.3 4.1 30.3 4.0 30.3 3.9 30.3 3.8 30.3 3.7 30.3 3.6 30.3 3.5 30.3 3.45 30.3 3.35 30.35 3.25 30.35 3.15 30.4 3.05 30.45 2.95 30.45 2.85 30.45 2.75 30.45 2.7 30.45 2.6 30.5 2.5 30.5 2.4 30.55 2.3 30.55 2.2 30.55 2.1 30.55 2.0 30.55 1.95 30.55 1.85 30.55 1.75 30.55 1.65 30.55 1.55 30.55 1.45 30.55 1.35 30.55 1.25 30.55 1.2 30.55 1.1 30.55 1.0 30.55 0.9 30.55 0.8 30.55 0.7 30.55 0.6 30.55 0.5 30.55 0.45 30.55 0.35 30.55 0.25 30.55 0.15 30.55 0.05 30.55 -0.05 30.55 -0.15 30.55 -0.25 30.55 -0.3 30.55 -0.4 30.55 -0.5 30.6 -0.6 30.6 -0.7 30.65 -0.8 30.7 -0.9 30.7 -1.0 30.7 -1.05 30.7 -1.15 30.7 -1.25 30.7 -1.35 30.7 -1.45 30.7 -1.55 30.7 -1.65 30.7 -1.75 30.7 -1.8 30.65 -1.9 30.6 -2.0 30.6 -2.1 30.55 -2.2 30.55 -2.3 30.55 -2.4 30.55 -2.5 30.55 -2.55 30.55 -2.65 30.55 -2.75 30.55 -2.85 30.55 -2.95 30.55 -3.05 30.55 -3.15 30.55 -3.25 30.55 -3.3 30.5 -3.4 30.5 -3.5 30.45 -3.6 30.45 -3.7 30.45 -3.8 30.35 -3.9 30.35 -4.0 30.3 -4.05 30.3 -4.15 30.3 -4.25 30.3 -4.35 30.25 -4.45 30.25 -4.55 30.2 -4.65 30.2 -4.75 30.2 -4.8 30.2 -4.9 30.2 -5.0 30.2 -5.1 30.2 -5.2 30.2 -5.3 30.2 -5.4 30.2 -5.5 30.15 -5.55 30.1 -5.65 30.1 -5.75 30.05 -5.85 30.05 -5.95 30.05 -6.05 30.05 -6.15 30.05 -6.25 30.05 -6.3 30.05 -6.4 30.05 -6.5 30.05 -6.6 30.05 -6.7 30.05 -6.8 30.05 -6.9 30.05 -7.0 30.05 -7.05 30.0 -7.15 29.95 -7.25 29.9 -7.35 29.85 -7.45 29.85 -7.55 29.8 -7.65 29.8 -7.75 29.8 -7.8 29.75 -7.9 29.75 -8.0 29.7 -8.1 29.7 -8.2 29.7 -8.3 29.6 -8.4 29.6 -8.5 29.55 -8.55 29.55 -8.65 29.5 -8.75 29.45 -8.85 29.4 -8.95 29.35 -9.05 29.35 -9.15 29.3 -9.25 29.3 -9.3 29.3 -9.4 29.3 -9.5 29.3 -9.6 29.25 -9.7 29.25 -9.8 29.2 -9.9 29.2 -10.0 29.1 -10.05 29.05 -10.15 29.0 -10.25 29.0 -10.35 28.95 -10.45 28.95 -10.55 28.85 -10.65 28.85 -10.75 28.8 -10.8 28.8 -10.9 28.8 -11.0 28.8 -11.1 28.75 -11.2 28.75 -11.3 28.7 -11.4 28.7 -11.5 28.65 -11.55 28.6 -11.65 28.6 -11.7 28.5 -11.75 28.35 -11.85 28.25 -11.95 28.15 -12.05 28.05 -12.15 27.95 -12.25 27.9 -12.3 27.85 -12.4 27.85 -12.5 27.8 -12.6 27.75 -12.7 27.7 -12.8 27.6 -12.9 27.6 -13.0 27.55 -13.05 27.5 -13.15 27.45 -13.25 27.35 -13.35 27.3 -13.45 27.25 -13.55 27.2 -13.65 27.1 -13.75 27.1 -13.8 27.05 -13.9 27.0 -14.0 26.95 -14.1 26.85 -14.2 26.85 -14.3 26.75 -14.4 26.7 -14.5 26.65 -14.55 26.6 -14.65 26.5 -14.75 26.45 -14.85 26.4 -14.95 26.35 -15.05 26.3 -15.15 26.25 -15.25 26.2 -15.3 26.15 -15.4 26.1 -15.5 26.05 -15.6 26.0 -15.7 25.95 -15.8 25.85 -15.9 25.85 -16.0 25.75 -16.05 25.7 -16.15 25.6 -16.25 25.55 -16.35 25.5 -16.45 25.45 -16.55 25.35 -16.65 25.3 -16.75 25.2 -16.8 25.1 -16.9 25.0 -17.0 24.95 -17.1 24.85 -17.2 24.75 -17.3 24.7 -17.4 24.6 -17.5 24.55 -17.55 24.5 -17.65 24.45 -17.75 24.35 -17.85 24.25 -17.95 24.15 -18.05 24.1 -18.15 24.0 -18.25 23.95 -18.3 23.9 -18.4 23.85 -18.5 23.8 -18.6 23.75 -18.7 23.7 -18.8 23.6 -18.9 23.6 -19.0 23.55 -19.05 23.5 -19.15 23.45 -19.25 23.4 -19.35 23.35 -19.45 23.3 -19.55 23.25 -19.65 23.2 -19.75 23.15 -19.8 23.1 -19.9 23.0 -20.0 22.95 -20.1 22.9 -20.2 22.85 -20.3 22.85 -20.4 22.75 -20.5 22.7 -20.55 22.65 -20.65 22.6 -20.75 22.55 -20.85 22.5 -20.95 22.4 -21.05 22.3 -21.15 22.2 -21.25 22.1 -21.3 22.0 -21.4 21.95 -21.5 21.85 -21.6 21.75 -21.7 21.65 -21.8 21.55 -21.9 21.45 -22.0 21.35 -22.05 21.25 -22.15 21.2 -22.25 21.1 -22.35 21.0 -22.45 20.9 -22.55 20.8 -22.65 20.7 -22.75 20.6 -22.8 20.55 -22.9 20.5 -23.0 20.45 -23.1 20.35 -23.2 20.25 -23.3 20.15 -23.4 20.05 -23.5 19.95 -23.55 19.85 -23.65 19.75 -23.75 19.7 -23.85 19.5 -23.95 19.4 -24.05 19.25 -24.15 19.05 -24.2 18.85 -24.25 18.7 -24.35 18.6 -24.45 18.45 -24.55 18.25 -24.65 18.2 -24.7 18.0 -24.75 17.85 -24.85 17.7 -24.95 17.5 -25.05 17.35 -25.15 17.25 -25.2 17.1 -25.25 17.0 -25.3 16.8 -25.35 16.6 -25.4 16.45 -25.5 16.35 -25.55 16.3 -25.6 16.1 -25.65 15.95 -25.75 15.85 -25.85 15.75 -25.9 15.7 -25.95 15.5 -26.0 15.35 -26.1 15.2 -26.2 15.0 -26.3 14.85 -26.4 14.75 -26.45 14.6 -26.5 14.45 -26.6 14.35 -26.7 14.2 -26.8 14.0 -26.9 13.85 -27.0 13.7 -27.05 13.6 -27.15 13.35 -27.25 13.25 -27.3 13.2 -27.35 13.0 -27.4 12.75 -27.5 12.6 -27.6 12.5 -27.65 12.45 -27.7 12.25 -27.75 12.1 -27.85 12.0 -27.9 11.95 -27.95 11.75 -28.0 11.65 -28.05 11.55 -28.1 11.4 -28.15 11.35 -28.15 11.2 -28.2 11.0 -28.25 10.85 -28.35 10.5 -28.4 10.3 -28.45 10.1 -28.5 9.95 -28.6 9.85 -28.65 9.75 -28.7 9.6 -28.75 9.45 -28.85 9.35 -28.9 9.25 -28.95 9.1 -29.0 9.0 -29.05 8.95 -29.1 8.75 -29.15 8.6 -29.25 8.45 -29.35 8.35 -29.4 8.2 -29.45 8.0 -29.5 7.9 -29.55 7.8 -29.6 7.65 -29.65 7.25 -29.65 7.05 -29.7 6.85 -29.75 6.5 -29.8 6.3 -29.85 6.15 -29.9 6.0 -29.9 5.8 -29.95 5.6 -30.0 5.5 -30.05 5.45 -30.1 5.3 -30.15 4.9 -30.15 4.7 -30.2 4.5 -30.25 M5.0 -24.8 L5.2 -24.75 5.35 -24.75 5.9 -24.7 6.1 -24.65 6.3 -24.6 7.15 -24.55 7.35 -24.5 7.5 -24.5 7.55 -24.45 7.7 -24.4 7.9 -24.35 8.0 -24.25 8.15 -24.15 8.2 -24.1 8.3 -24.15 8.5 -24.15 8.5 -24.2 8.9 -24.2 9.1 -24.15 9.3 -24.1 9.45 -24.0 9.55 -23.95 9.7 -23.9 9.9 -23.85 10.0 -23.75 10.15 -23.7 10.35 -23.65 10.55 -23.6 10.7 -23.5 10.8 -23.4 10.95 -23.3 11.1 -23.25 11.2 -23.15 11.4 -23.1 11.5 -23.0 11.65 -22.9 11.85 -22.8 12.0 -22.75 12.1 -22.65 12.2 -22.55 12.3 -22.45 12.45 -22.35 12.55 -22.25 12.7 -22.15 12.85 -22.05 13.0 -22.0 13.15 -21.9 13.25 -21.8 13.35 -21.7 13.55 -21.6 13.7 -21.5 13.8 -21.4 13.9 -21.3 14.0 -21.25 14.15 -21.15 14.25 -21.05 14.35 -20.95 14.45 -20.85 14.55 -20.75 14.65 -20.65 14.75 -20.55 14.85 -20.5 15.0 -20.4 15.15 -20.3 15.3 -20.2 15.55 -20.1 15.7 -20.0 15.8 -19.9 15.95 -19.8 16.1 -19.75 16.25 -19.65 16.4 -19.55 16.5 -19.45 16.65 -19.35 16.75 -19.25 16.9 -19.15 17.0 -19.05 17.1 -19.0 17.25 -18.9 17.4 -18.8 17.5 -18.7 17.6 -18.6 17.7 -18.5 17.8 -18.4 17.9 -18.3 18.0 -18.25 18.1 -18.15 18.2 -18.05 18.25 -17.95 18.35 -17.85 18.45 -17.75 18.55 -17.65 18.65 -17.55 18.75 -17.5 18.85 -17.4 18.9 -17.3 18.95 -17.2 19.05 -17.1 19.2 -17.0 19.3 -16.9 19.4 -16.8 19.5 -16.75 19.6 -16.65 19.7 -16.55 19.75 -16.45 19.85 -16.35 19.95 -16.25 20.05 -16.15 20.15 -16.05 20.25 -16.0 20.35 -15.9 20.4 -15.8 20.45 -15.7 20.5 -15.6 20.6 -15.5 20.65 -15.4 20.75 -15.3 20.8 -15.25 20.85 -15.15 20.95 -15.05 21.0 -14.95 21.1 -14.85 21.2 -14.75 21.3 -14.65 21.4 -14.55 21.45 -14.5 21.5 -14.4 21.5 -14.3 21.55 -14.2 21.6 -14.1 21.7 -14.0 21.8 -13.9 21.9 -13.8 21.95 -13.75 22.0 -13.65 22.0 -13.55 22.1 -13.45 22.2 -13.35 22.25 -13.25 22.25 -13.15 22.3 -13.05 22.35 -13.0 22.45 -12.9 22.5 -12.8 22.55 -12.7 22.6 -12.6 22.7 -12.5 22.75 -12.4 22.75 -12.3 22.8 -12.25 22.85 -12.15 22.9 -12.05 22.95 -11.95 23.0 -11.85 23.1 -11.75 23.15 -11.65 23.25 -11.55 23.3 -11.5 23.35 -11.4 23.35 -11.3 23.4 -11.2 23.45 -11.1 23.55 -11.0 23.65 -10.9 23.7 -10.8 23.75 -10.75 23.75 -10.65 23.8 -10.55 23.85 -10.45 23.85 -10.35 23.95 -10.25 24.0 -10.15 24.0 -10.05 24.05 -10.0 24.1 -9.9 24.15 -9.8 24.2 -9.7 24.25 -9.6 24.3 -9.5 24.35 -9.4 24.4 -9.3 24.45 -9.25 24.5 -9.15 24.55 -9.05 24.6 -8.95 24.65 -8.85 24.7 -8.75 24.75 -8.65 24.75 -8.55 24.8 -8.5 24.85 -8.4 24.85 -8.3 24.85 -8.2 24.85 -8.1 24.9 -8.0 24.9 -7.9 24.95 -7.8 25.0 -7.75 25.0 -7.65 25.05 -7.55 25.1 -7.45 25.15 -7.35 25.15 -7.25 25.2 -7.15 25.2 -7.05 25.2 -7.0 25.2 -6.9 25.2 -6.8 25.2 -6.7 25.2 -6.6 25.2 -6.5 25.2 -6.4 25.2 -6.3 25.2 -6.25 25.2 -6.15 25.2 -6.05 25.2 -5.95 25.2 -5.85 25.2 -5.75 25.2 -5.65 25.2 -5.55 25.2 -5.5 25.2 -5.4 25.2 -5.3 25.2 -5.2 25.2 -5.1 25.2 -5.0 25.2 -4.9 25.2 -4.8 25.25 -4.75 25.25 -4.65 25.3 -4.55 25.35 -4.45 25.35 -4.35 25.35 -4.25 25.35 -4.15 25.35 -4.05 25.35 -4.0 25.4 -3.9 25.45 -3.8 25.5 -3.7 25.55 -3.6 25.55 -3.5 25.6 -3.4 25.6 -3.3 25.6 -3.25 25.6 -3.15 25.6 -3.05 25.6 -2.95 25.6 -2.85 25.65 -2.75 25.65 -2.65 25.7 -2.55 25.7 -2.5 25.7 -2.4 25.7 -2.3 25.7 -2.2 25.7 -2.1 25.7 -2.0 25.7 -1.9 25.7 -1.8 25.7 -1.75 25.7 -1.65 25.7 -1.55 25.7 -1.45 25.7 -1.35 25.7 -1.25 25.7 -1.15 25.7 -1.05 25.7 -1.0 25.7 -0.9 25.7 -0.8 25.7 -0.7 25.7 -0.6 25.7 -0.5 25.7 -0.4 25.7 -0.3 25.7 -0.25 25.7 -0.15 25.7 -0.05 25.7 0.05 25.7 0.15 25.7 0.25 25.7 0.35 25.7 0.45 25.7 0.5 25.7 0.6 25.7 0.7 25.7 0.8 25.7 0.9 25.7 1.0 25.7 1.1 25.7 1.2 25.7 1.25 25.7 1.35 25.7 1.45 25.7 1.55 25.7 1.65 25.7 1.75 25.7 1.85 25.7 1.95 25.7 2.0 25.7 2.1 25.7 2.2 25.7 2.3 25.7 2.4 25.7 2.5 25.7 2.6 25.7 2.7 25.7 2.75 25.7 2.85 25.65 2.95 25.6 3.05 25.6 3.15 25.6 3.25 25.55 3.35 25.5 3.45 25.5 3.5 25.45 3.6 25.45 3.7 25.45 3.8 25.4 3.9 25.4 4.0 25.35 4.1 25.35 4.2 25.35 4.25 25.3 4.35 25.25 4.45 25.25 4.55 25.2 4.65 25.15 4.75 25.1 4.85 25.1 4.95 25.1 5.0 25.1 5.1 25.05 5.2 25.0 5.3 25.0 5.4 24.95 5.5 24.95 5.6 24.9 5.7 24.85 5.75 24.85 5.85 24.85 5.95 24.85 6.05 24.8 6.15 24.8 6.25 24.75 6.35 24.7 6.45 24.7 6.5 24.65 6.6 24.6 6.7 24.6 6.8 24.6 6.9 24.6 7.0 24.6 7.1 24.6 7.2 24.6 7.25 24.6 7.35 24.6 7.45 24.6 7.55 24.55 7.65 24.55 7.75 24.5 7.85 24.45 7.95 24.45 8.0 24.45 8.1 24.4 8.2 24.35 8.3 24.35 8.4 24.3 8.5 24.25 8.6 24.2 8.7 24.2 8.75 24.2 8.85 24.15 8.95 24.1 9.05 24.1 9.15 24.05 9.25 24.0 9.35 23.95 9.45 23.95 9.5 23.9 9.6 23.85 9.7 23.85 9.8 23.75 9.9 23.7 10.0 23.6 10.1 23.55 10.2 23.5 10.25 23.5 10.35 23.45 10.45 23.4 10.55 23.3 10.65 23.25 10.75 23.2 10.85 23.15 10.95 23.1 11.0 23.1 11.1 23.05 11.2 23.0 11.3 23.0 11.4 22.95 11.5 22.85 11.6 22.8 11.7 22.75 11.75 22.75 11.85 22.7 11.95 22.65 12.05 22.65 12.15 22.6 12.25 22.55 12.35 22.5 12.45 22.5 12.5 22.45 12.6 22.4 12.7 22.3 12.8 22.2 12.9 22.15 13.0 22.1 13.1 22.05 13.2 22.0 13.25 21.95 13.35 21.85 13.45 21.75 13.55 21.7 13.65 21.6 13.75 21.55 13.85 21.5 13.95 21.45 14.0 21.35 14.1 21.25 14.2 21.25 14.3 21.2 14.4 21.1 14.5 21.0 14.6 20.95 14.7 20.95 14.75 20.9 14.85 20.85 14.95 20.85 15.05 20.8 15.15 20.75 15.25 20.7 15.35 20.65 15.45 20.6 15.5 20.5 15.6 20.45 15.7 20.4 15.8 20.3 15.9 20.2 16.0 20.1 16.1 20.0 16.2 19.9 16.25 19.85 16.25 19.7 16.3 19.5 16.35 19.3 16.3 19.1 16.25 18.95 16.15 18.85 16.05 18.75 15.95 18.7 15.85 18.6 15.75 18.6 15.7 18.55 15.6 18.55 15.5 18.55 15.4 18.55 15.3 18.55 15.2 18.55 15.1 18.6 15.0 18.6 14.95 18.65 14.85 18.7 14.75 18.75 14.65 18.8 14.55 18.85 14.45 18.95 14.35 19.0 14.25 19.05 14.2 19.05 14.1 19.1 14.0 19.1 13.9 19.15 13.8 19.2 13.7 19.25 13.6 19.35 13.5 19.4 13.45 19.5 13.35 19.55 13.25 19.6 13.15 19.65 13.05 19.7 12.95 19.8 12.85 19.9 12.75 20.0 12.7 20.05 12.6 20.1 12.5 20.1 12.4 20.15 12.3 20.2 12.2 20.3 12.1 20.4 12.0 20.5 11.95 20.55 11.85 20.6 11.75 20.7 11.65 20.75 11.55 20.8 11.45 20.8 11.35 20.85 11.25 20.85 11.2 20.9 11.1 20.95 11.0 21.0 10.9 21.0 10.8 21.05 10.7 21.1 10.6 21.2 10.5 21.25 10.45 21.3 10.35 21.3 10.25 21.35 10.15 21.35 10.05 21.4 9.95 21.45 9.85 21.55 9.75 21.65 9.7 21.75 9.6 21.8 9.5 21.8 9.4 21.8 9.3 21.85 9.2 21.85 9.1 21.95 9.0 22.0 8.95 22.05 8.85 22.1 8.75 22.1 8.65 22.15 8.55 22.2 8.45 22.25 8.35 22.3 8.25 22.3 8.2 22.3 8.1 22.35 8.0 22.35 7.9 22.4 7.8 22.45 7.7 22.5 7.6 22.55 7.5 22.55 7.45 22.55 7.35 22.6 7.25 22.6 7.15 22.65 7.05 22.7 6.95 22.7 6.85 22.7 6.75 22.7 6.7 22.7 6.6 22.7 6.5 22.7 6.4 22.7 6.3 22.7 6.2 22.75 6.1 22.75 6.0 22.8 5.95 22.85 5.85 22.9 5.75 22.95 5.65 22.95 5.55 22.95 5.45 22.95 5.35 23.0 5.25 23.0 5.2 23.05 5.1 23.05 5.0 23.05 4.9 23.05 4.8 23.1 4.7 23.1 4.6 23.2 4.5 23.2 4.45 23.2 4.35 23.25 4.25 23.25 4.15 23.3 4.05 23.35 3.95 23.35 3.85 23.45 3.75 23.45 3.7 23.45 3.6 23.5 3.5 23.5 3.4 23.55 3.3 23.55 3.2 23.55 3.1 23.55 3.0 23.6 2.95 23.6 2.85 23.65 2.75 23.7 2.65 23.7 2.55 23.75 2.45 23.75 2.35 23.8 2.25 23.8 2.2 23.8 2.1 23.8 2.0 23.8 1.9 23.8 1.8 23.8 1.7 23.8 1.6 23.8 1.5 23.8 1.45 23.8 1.35 23.8 1.25 23.8 1.15 23.8 1.05 23.8 0.95 23.8 0.85 23.8 0.75 23.8 0.7 23.8 0.6 23.8 0.5 23.8 0.4 23.8 0.3 23.8 0.2 23.8 0.1 23.8 0.0 23.8 -0.05 23.8 -0.15 23.8 -0.25 23.8 -0.35 23.8 -0.45 23.8 -0.55 23.8 -0.65 23.8 -0.75 23.8 -0.8 23.8 -0.9 23.8 -1.0 23.8 -1.1 23.8 -1.2 23.8 -1.3 23.8 -1.4 23.8 -1.5 23.8 -1.55 23.8 -1.65 23.8 -1.75 23.8 -2.2 23.75 -2.3 23.75 -2.4 23.7 -2.5 23.7 -2.55 23.7 -2.65 23.7 -2.75 23.7 -2.85 23.65 -2.95 23.6 -3.05 23.55 -3.15 23.5 -3.25 23.5 -3.3 23.45 -3.4 23.45 -3.5 23.45 -3.6 23.45 -3.7 23.45 -3.8 23.45 -3.9 23.45 -4.0 23.4 -4.05 23.35 -4.15 23.35 -4.25 23.3 -4.35 23.3 -4.45 23.3 -4.55 23.3 -4.65 23.3 -4.75 23.3 -4.8 23.3 -4.9 23.3 -5.0 23.3 -5.1 23.3 -5.2 23.3 -5.3 23.3 -5.4 23.3 -5.5 23.3 -5.55 23.3 -5.65 23.3 -5.75 23.3 -5.85 23.3 -5.95 23.3 -6.05 23.3 -6.15 23.3 -6.25 23.3 -6.3 23.3 -6.4 23.3 -6.5 23.3 -6.6 23.3 -6.7 23.25 -6.8 23.2 -6.9 23.1 -7.0 23.1 -7.05 23.05 -7.15 23.05 -7.25 23.05 -7.35 23.0 -7.45 23.0 -7.55 22.95 -7.65 22.95 -7.75 22.9 -7.8 22.85 -7.9 22.85 -8.0 22.8 -8.1 22.75 -8.2 22.7 -8.3 22.6 -8.4 22.6 -8.5 22.55 -8.55 22.5 -8.65 22.45 -8.75 22.4 -8.85 22.35 -8.95 22.3 -9.05 22.25 -9.15 22.2 -9.25 22.15 -9.3 22.1 -9.4 22.1 -9.5 22.05 -9.6 22.0 -9.7 21.95 -9.8 21.9 -9.9 21.8 -10.0 21.7 -10.05 21.65 -10.15 21.6 -10.25 21.6 -10.35 21.55 -10.45 21.5 -10.55 21.45 -10.65 21.35 -10.75 21.35 -10.8 21.25 -10.9 21.2 -11.0 21.15 -11.1 21.1 -11.2 21.05 -11.3 21.0 -11.4 20.95 -11.5 20.9 -11.55 20.85 -11.65 20.85 -11.75 20.8 -11.85 20.75 -11.95 20.65 -12.05 20.6 -12.15 20.5 -12.25 20.45 -12.3 20.4 -12.4 20.35 -12.5 20.3 -12.6 20.25 -12.7 20.15 -12.8 20.05 -12.9 19.95 -13.0 19.9 -13.05 19.85 -13.15 19.85 -13.25 19.8 -13.35 19.75 -13.45 19.65 -13.55 19.6 -13.65 19.5 -13.75 19.45 -13.8 19.35 -13.9 19.25 -14.0 19.2 -14.1 19.1 -14.2 19.0 -14.3 18.95 -14.4 18.85 -14.5 18.85 -14.55 18.75 -14.65 18.7 -14.75 18.6 -14.85 18.5 -14.95 18.4 -15.05 18.3 -15.15 18.2 -15.25 18.1 -15.3 18.0 -15.4 17.95 -15.5 17.85 -15.6 17.75 -15.7 17.65 -15.8 17.55 -15.9 17.45 -16.0 17.35 -16.05 17.25 -16.15 17.2 -16.25 17.1 -16.35 17.0 -16.45 16.9 -16.55 16.8 -16.65 16.7 -16.75 16.6 -16.8 16.5 -16.9 16.45 -17.0 16.35 -17.1 16.2 -17.2 16.0 -17.3 15.9 -17.4 15.8 -17.5 15.7 -17.55 15.6 -17.65 15.45 -17.75 15.35 -17.85 15.2 -17.95 15.0 -18.05 14.85 -18.15 14.7 -18.25 14.6 -18.3 14.5 -18.4 14.25 -18.5 14.1 -18.6 13.95 -18.7 13.75 -18.8 13.65 -18.9 13.55 -19.0 13.45 -19.05 13.35 -19.15 13.25 -19.25 13.2 -19.35 13.1 -19.45 13.0 -19.55 12.85 -19.65 12.7 -19.75 12.6 -19.8 12.5 -19.9 12.35 -20.0 12.25 -20.1 12.1 -20.2 11.95 -20.3 11.8 -20.4 11.65 -20.5 11.45 -20.55 11.35 -20.65 11.25 -20.75 11.1 -20.85 11.0 -20.95 10.9 -21.05 10.75 -21.15 10.6 -21.25 10.45 -21.3 10.35 -21.4 10.1 -21.5 9.95 -21.6 9.75 -21.7 9.65 -21.8 9.5 -21.9 9.3 -21.95 9.1 -22.0 9.0 -22.05 8.95 -22.1 8.75 -22.15 8.5 -22.25 8.4 -22.3 8.3 -22.35 8.1 -22.4 7.95 -22.5 7.85 -22.6 7.8 -22.65 7.7 -22.6 7.5 -22.55 7.25 -22.55 7.05 -22.6 6.9 -22.65 6.0 -22.65 5.8 -22.7 5.6 -22.75 5.0 -22.8 4.8 -22.85 4.65 -22.9 1.6 -22.9 1.45 -22.85 1.25 -22.8 -0.35 -22.75 -0.55 -22.7 -0.75 -22.65 -3.65 -22.65 -3.8 -22.6 -4.0 -22.55 -5.1 -22.5 -5.3 -22.45 -5.45 -22.4 -5.5 -22.4 -5.65 -22.35 -5.85 -22.3 -6.2 -22.25 -6.4 -22.2 -6.6 -22.15 -7.0 -22.15 -7.15 -22.1 -7.4 -22.05 -7.5 -22.0 -7.65 -21.95 -7.85 -21.9 -8.0 -21.9 -8.15 -21.85 -8.35 -21.8 -8.6 -21.75 -8.8 -21.7 -9.0 -21.65 -9.55 -21.6 -9.7 -21.5 -9.9 -21.45 -10.1 -21.4 -10.25 -21.4 -10.4 -21.35 -10.65 -21.3 -10.75 -21.25 -10.9 -21.2 -11.15 -21.15 -11.25 -21.05 -11.35 -20.95 -11.5 -20.85 -11.6 -20.75 -11.75 -20.65 -11.85 -20.55 -11.95 -20.5 -12.0 -20.5 -12.2 -20.4 -12.35 -20.3 -12.55 -20.25 -12.65 -20.15 -12.8 -20.05 -12.95 -19.95 -13.05 -19.85 -13.2 -19.75 -13.45 -19.65 -13.55 -19.55 -13.65 -19.5 -13.75 -19.4 -13.85 -19.3 -13.95 -19.2 -14.05 -19.1 -14.2 -19.0 -14.45 -18.9 -14.6 -18.8 -14.7 -18.75 -14.75 -18.75 -14.9 -18.7 -15.1 -18.65 -15.25 -18.65 -15.45 -18.7 -15.65 -18.75 -15.8 -18.85 -15.9 -18.95 -16.0 -19.05 -16.05 -19.15 -16.15 -19.25 -16.15 -19.3 -16.2 -19.4 -16.2 -19.5 -16.2 -19.6 -16.2 -19.7 -16.2 -19.8 -16.15 -19.9 -16.15 -20.0 -16.05 -20.05 -16.0 -20.15 -15.9 -20.25 -15.8 -20.35 -15.65 -20.45 -15.55 -20.55 -15.35 -20.65 -15.2 -20.75 -15.1 -20.8 -15.0 -20.9 -14.9 -21.0 -14.75 -21.1 -14.65 -21.2 -14.55 -21.3 -14.4 -21.4 -14.25 -21.5 -14.1 -21.55 -14.0 -21.65 -13.8 -21.75 -13.65 -21.85 -13.4 -21.95 -13.3 -22.05 -13.15 -22.15 -13.0 -22.25 -12.85 -22.3 -12.75 -22.4 -12.55 -22.5 -12.5 -22.6 -12.4 -22.7 -12.3 -22.8 -12.15 -22.85 -12.1 -22.9 -11.9 -22.95 -11.65 -23.05 -11.5 -23.1 -11.45 -23.15 -11.3 -23.15 -11.1 -23.2 -10.95 -23.25 -10.8 -23.25 -10.55 -23.3 -10.45 -23.4 -10.3 -23.4 -10.15 -23.45 -10.1 -23.5 -9.95 -23.5 -9.75 -23.55 -9.25 -23.6 -9.05 -23.65 -8.85 -23.7 -8.7 -23.75 -8.55 -23.75 -8.3 -23.8 -8.2 -23.9 -8.05 -23.9 -7.85 -23.95 -7.7 -24.0 -7.55 -24.0 -7.35 -24.05 -7.0 -24.1 -6.8 -24.15 -6.6 -24.2 -6.2 -24.25 -6.05 -24.25 -5.8 -24.3 -5.7 -24.4 -5.55 -24.4 -5.35 -24.45 -4.2 -24.5 -4.05 -24.5 -3.85 -24.55 -1.15 -24.6 -0.95 -24.65 -0.75 -24.7 0.9 -24.75 1.05 -24.75 1.25 -24.75 1.25 -24.8 5.0 -24.8 M3.45 24.6 L3.65 24.55 3.85 24.5 4.0 24.4 4.2 24.35 4.4 24.3 4.55 24.25 4.7 24.25 4.9 24.2 5.1 24.2 5.25 24.15 5.3 24.1 5.5 24.05 5.7 24.0 5.9 23.95 6.25 23.9 6.45 23.85 6.65 23.8 6.9 23.75 7.05 23.75 7.25 23.7 8.0 23.65 8.2 23.6 8.35 23.55 8.4 23.5 8.55 23.5 8.75 23.45 8.9 23.35 9.05 23.35 9.25 23.25 9.45 23.2 9.55 23.1 9.7 23.1 9.85 23.0 10.0 22.95 10.15 22.85 10.35 22.8 10.45 22.7 10.6 22.65 10.65 22.6 10.8 22.6 10.95 22.5 11.05 22.45 11.2 22.35 11.35 22.25 11.5 22.15 11.75 22.05 11.85 21.95 11.95 21.85 12.05 21.75 12.15 21.7 12.25 21.6 12.35 21.5 12.45 21.4 12.5 21.3 12.6 21.2 12.7 21.1 12.8 21.0 12.95 20.95 13.1 20.85 13.2 20.75 13.25 20.65 13.35 20.55 13.45 20.45 13.65 20.35 13.8 20.25 13.9 20.2 14.0 20.1 14.2 20.0 14.25 19.9 14.35 19.8 14.45 19.7 14.6 19.6 14.75 19.5 14.9 19.45 15.0 19.35 15.1 19.25 15.25 19.15 15.5 19.05 15.6 18.95 15.75 18.85 15.9 18.75 16.0 18.7 16.2 18.6 16.3 18.5 16.45 18.5 16.65 18.5 16.65 18.45 16.75 18.45 16.95 18.5 17.15 18.55 17.25 18.65 17.4 18.75 17.5 18.85 17.55 18.95 17.6 19.0 17.6 19.1 17.65 19.2 17.7 19.3 17.7 19.4 17.7 19.5 17.65 19.6 17.6 19.7 17.6 19.75 17.55 19.85 17.5 19.95 17.4 20.05 17.3 20.15 17.2 20.25 17.1 20.35 17.0 20.45 16.9 20.5 16.75 20.6 16.6 20.7 16.5 20.75 16.3 20.85 16.2 20.95 16.1 21.0 16.0 21.1 15.85 21.2 15.65 21.3 15.55 21.4 15.45 21.5 15.3 21.6 15.2 21.7 15.1 21.75 15.0 21.85 14.85 21.95 14.75 22.05 14.65 22.15 14.5 22.25 14.4 22.35 14.25 22.45 14.15 22.5 14.0 22.6 13.9 22.7 13.8 22.8 13.7 22.9 13.6 23.0 13.5 23.1 13.45 23.2 13.35 23.25 13.25 23.35 13.15 23.45 13.05 23.55 12.95 23.65 12.8 23.75 12.55 23.85 12.45 23.95 12.35 24.0 12.25 24.1 12.1 24.2 12.0 24.25 11.8 24.35 11.5 24.45 11.4 24.5 11.3 24.6 11.25 24.6 11.0 24.7 10.9 24.75 10.85 24.75 10.7 24.8 10.5 24.85 10.35 24.95 10.25 25.0 10.05 25.1 9.75 25.2 9.65 25.25 9.6 25.25 9.45 25.3 9.25 25.35 9.1 25.35 8.9 25.45 8.8 25.5 8.75 25.5 8.6 25.55 8.4 25.6 7.6 25.6 7.45 25.65 7.25 25.7 7.05 25.75 6.85 25.8 6.65 25.85 6.2 25.9 6.05 26.0 5.85 26.05 5.65 26.1 5.4 26.1 5.25 26.1 5.1 26.15 4.85 26.2 4.75 26.25 4.55 26.35 4.35 26.4 4.1 26.45 4.0 26.5 3.85 26.55 3.65 26.6 -0.35 26.6 -0.55 26.55 -0.75 26.5 -1.85 26.45 -2.05 26.4 -2.2 26.35 -2.75 26.35 -2.95 26.3 -3.15 26.25 -3.25 26.2 -3.3 26.15 -3.45 26.1 -3.75 26.1 -3.95 26.05 -4.15 26.0 -4.6 25.95 -4.8 25.9 -5.0 25.85 -5.25 25.75 -5.75 25.7 -5.95 25.65 -6.1 25.6 -6.75 25.6 -6.95 25.55 -7.15 25.5 -8.0 25.45 -8.2 25.4 -8.35 25.35 -8.4 25.35 -8.55 25.3 -8.75 25.25 -9.5 25.2 -9.7 25.15 -9.85 25.1 -10.0 25.1 -10.2 25.05 -10.4 25.0 -10.55 24.9 -10.65 24.85 -10.8 24.8 -11.0 24.75 -11.15 24.65 -11.25 24.6 -11.3 24.55 -11.5 24.5 -11.65 24.4 -11.8 24.3 -12.0 24.2 -12.1 24.1 -12.2 24.0 -12.3 23.95 -12.4 23.85 -12.5 23.75 -12.55 23.65 -12.75 23.55 -12.85 23.45 -12.95 23.35 -13.1 23.25 -13.3 23.2 -13.4 23.1 -13.5 23.0 -13.65 22.9 -13.75 22.85 -13.8 22.8 -14.0 22.75 -14.15 22.65 -14.25 22.6 -14.3 22.55 -14.5 22.5 -14.65 22.4 -14.75 22.35 -14.8 22.3 -15.0 22.25 -15.15 22.15 -15.3 22.05 -15.5 21.95 -15.55 21.9 -15.75 21.85 -15.9 21.75 -16.0 21.65 -16.1 21.55 -16.25 21.45 -16.4 21.35 -16.55 21.25 -16.65 21.2 -16.75 21.1 -16.8 21.0 -16.9 20.9 -17.0 20.8 -17.1 20.7 -17.2 20.6 -17.3 20.5 -17.35 20.45 -17.4 20.35 -17.4 20.25 -17.45 20.15 -17.45 20.1 -17.5 20.1 -17.65 20.0 -17.8 19.9 -18.0 19.8 -18.1 19.7 -18.2 19.65 -18.4 19.6 -18.55 19.5 -18.65 19.4 -18.75 19.3 -18.8 19.2 -18.95 19.1 -19.05 19.0 -19.15 18.95 -19.25 18.85 -19.4 18.75 -19.5 18.65 -19.6 18.55 -19.65 18.45 -19.75 18.35 -19.9 18.25 -20.0 18.2 -20.05 18.1 -20.15 18.0 -20.2 17.9 -20.25 17.8 -20.35 17.7 -20.45 17.6 -20.55 17.5 -20.65 17.45 -20.75 17.35 -20.8 17.25 -20.9 17.15 -20.95 17.05 -21.0 16.95 -21.05 16.85 -21.15 16.75 -21.2 16.7 -21.25 16.6 -21.3 16.5 -21.4 16.4 -21.5 16.3 -21.6 16.2 -21.7 16.1 -21.8 16.0 -21.85 15.95 -21.9 15.85 -21.9 15.75 -21.95 15.65 -22.0 15.55 -22.1 15.45 -22.2 15.35 -22.3 15.25 -22.4 15.2 -22.5 15.1 -22.55 15.0 -22.65 14.9 -22.7 14.8 -22.75 14.7 -22.8 14.6 -22.9 14.5 -22.95 14.45 -23.0 14.35 -23.05 14.25 -23.15 14.15 -23.25 14.05 -23.3 13.95 -23.4 13.85 -23.4 13.75 -23.45 13.7 -23.45 13.6 -23.5 13.5 -23.55 13.4 -23.65 13.3 -23.65 13.2 -23.75 13.1 -23.8 13.0 -23.85 12.95 -23.9 12.85 -24.0 12.75 -24.05 12.65 -24.1 12.55 -24.15 12.45 -24.15 12.35 -24.2 12.25 -24.2 12.2 -24.25 12.1 -24.3 12.0 -24.35 11.9 -24.4 11.8 -24.4 11.7 -24.5 11.6 -24.55 11.5 -24.6 11.45 -24.65 11.35 -24.65 11.25 -24.7 11.15 -24.7 11.05 -24.75 10.95 -24.75 10.85 -24.8 10.75 -24.85 10.7 -24.9 10.6 -24.9 10.5 -24.95 10.4 -25.0 10.3 -25.0 10.2 -25.05 10.1 -25.05 10.0 -25.1 9.95 -25.15 9.85 -25.15 9.75 -25.2 9.65 -25.2 9.55 -25.2 9.45 -25.2 9.35 -25.25 9.25 -25.25 9.2 -25.3 9.1 -25.3 9.0 -25.3 8.9 -25.35 8.8 -25.4 8.7 -25.45 8.6 -25.5 8.5 -25.5 8.45 -25.55 8.35 -25.55 8.25 -25.6 8.15 -25.65 8.05 -25.65 7.95 -25.7 7.85 -25.7 7.75 -25.7 7.7 -25.7 7.6 -25.75 7.5 -25.8 7.4 -25.85 7.3 -25.9 7.2 -25.9 7.1 -25.95 7.0 -25.95 6.95 -25.95 6.85 -25.95 6.75 -25.95 6.65 -25.95 6.55 -26.0 6.45 -26.0 6.35 -26.05 6.25 -26.05 6.2 -26.05 6.1 -26.05 6.0 -26.05 5.9 -26.05 5.8 -26.05 5.7 -26.05 5.6 -26.15 5.5 -26.15 5.45 -26.2 5.35 -26.2 5.25 -26.2 5.15 -26.2 5.05 -26.2 4.95 -26.2 4.85 -26.2 4.75 -26.2 4.7 -26.2 4.6 -26.2 4.5 -26.2 4.4 -26.2 4.3 -26.2 4.2 -26.2 4.1 -26.2 4.0 -26.2 3.95 -26.2 3.85 -26.2 3.75 -26.2 3.65 -26.2 3.55 -26.2 3.45 -26.25 3.35 -26.25 3.25 -26.3 3.2 -26.3 3.1 -26.3 3.0 -26.3 2.9 -26.3 2.8 -26.3 2.7 -26.3 2.6 -26.3 2.5 -26.3 2.45 -26.3 2.35 -26.3 2.25 -26.3 2.15 -26.3 2.05 -26.3 1.95 -26.3 1.85 -26.3 1.75 -26.3 1.7 -26.3 1.6 -26.3 1.5 -26.3 1.4 -26.3 1.3 -26.3 1.2 -26.3 1.1 -26.3 1.0 -26.3 0.95 -26.3 0.85 -26.3 0.75 -26.3 0.65 -26.3 0.55 -26.3 0.45 -26.3 0.35 -26.3 0.25 -26.3 0.2 -26.3 0.1 -26.3 0.0 -26.3 -0.1 -26.3 -0.2 -26.3 -0.3 -26.3 -0.4 -26.3 -0.5 -26.3 -0.55 -26.3 -0.65 -26.3 -0.75 -26.3 -0.85 -26.3 -0.95 -26.3 -1.05 -26.3 -1.15 -26.3 -1.25 -26.3 -1.3 -26.3 -1.4 -26.3 -1.5 -26.3 -1.6 -26.3 -1.7 -26.3 -1.8 -26.3 -1.9 -26.3 -2.0 -26.3 -2.05 -26.3 -2.15 -26.3 -2.25 -26.3 -2.35 -26.3 -2.45 -26.3 -2.55 -26.25 -2.65 -26.25 -2.75 -26.2 -2.8 -26.2 -2.9 -26.15 -3.0 -26.15 -3.1 -26.1 -3.2 -26.05 -3.3 -26.05 -3.4 -26.0 -3.5 -26.0 -3.55 -25.95 -3.65 -25.95 -3.75 -25.95 -3.85 -25.95 -3.95 -25.9 -4.05 -25.9 -4.15 -25.8 -4.25 -25.8 -4.3 -25.8 -4.4 -25.8 -4.5 -25.8 -4.6 -25.8 -4.7 -25.75 -4.8 -25.75 -4.9 -25.7 -5.0 -25.65 -5.05 -25.65 -5.15 -25.6 -5.25 -25.55 -5.35 -25.55 -5.45 -25.55 -5.55 -25.55 -5.65 -25.5 -5.75 -25.5 -5.8 -25.45 -5.9 -25.45 -6.0 -25.45 -6.1 -25.45 -6.2 -25.4 -6.3 -25.4 -6.4 -25.3 -6.5 -25.25 -6.55 -25.2 -6.65 -25.2 -6.75 -25.15 -6.85 -25.15 -6.95 -25.1 -7.05 -25.05 -7.15 -25.0 -7.25 -25.0 -7.3 -24.95 -7.4 -24.9 -7.5 -24.9 -7.6 -24.85 -7.7 -24.8 -7.8 -24.75 -7.9 -24.7 -8.0 -24.65 -8.05 -24.65 -8.15 -24.6 -8.25 -24.55 -8.35 -24.5 -8.45 -24.45 -8.55 -24.45 -8.65 -24.4 -8.75 -24.4 -8.8 -24.35 -8.9 -24.3 -9.0 -24.25 -9.1 -24.25 -9.2 -24.2 -9.3 -24.2 -9.4 -24.15 -9.5 -24.15 -9.55 -24.1 -9.65 -24.05 -9.75 -24.0 -9.85 -23.95 -9.95 -23.9 -10.05 -23.8 -10.15 -23.75 -10.25 -23.75 -10.3 -23.7 -10.4 -23.65 -10.5 -23.65 -10.6 -23.6 -10.7 -23.55 -10.8 -23.5 -10.9 -23.4 -11.0 -23.4 -11.05 -23.35 -11.15 -23.3 -11.25 -23.25 -11.35 -23.2 -11.45 -23.2 -11.55 -23.15 -11.65 -23.15 -11.75 -23.05 -11.8 -23.0 -11.9 -22.95 -12.0 -22.9 -12.1 -22.9 -12.2 -22.85 -12.3 -22.8 -12.4 -22.7 -12.5 -22.65 -12.55 -22.6 -12.65 -22.55 -12.75 -22.5 -12.85 -22.4 -12.95 -22.35 -13.05 -22.3 -13.15 -22.2 -13.25 -22.1 -13.3 -22.0 -13.4 -21.95 -13.5 -21.9 -13.6 -21.85 -13.7 -21.8 -13.8 -21.75 -13.9 -21.65 -14.0 -21.6 -14.05 -21.5 -14.15 -21.45 -14.25 -21.4 -14.35 -21.35 -14.45 -21.3 -14.55 -21.2 -14.65 -21.15 -14.75 -21.05 -14.8 -21.0 -14.9 -20.95 -15.0 -20.9 -15.1 -20.85 -15.2 -20.8 -15.3 -20.7 -15.4 -20.65 -15.5 -20.55 -15.55 -20.5 -15.65 -20.4 -15.75 -20.3 -15.85 -20.25 -15.95 -20.15 -16.05 -20.05 -16.15 -19.95 -16.25 -19.85 -16.3 -19.75 -16.4 -19.6 -16.5 -19.45 -16.5 -19.25 -16.5 -19.25 -16.55 -19.05 -16.5 -18.85 -16.45 -18.75 -16.35 -18.6 -16.25 -18.5 -16.15 -18.45 -16.05 -18.4 -16.0 -18.4 -15.9 -18.35 -15.8 -18.3 -15.7 -18.3 -15.6 -18.3 -15.5 -18.3 -15.4 -18.35 -15.3 -18.4 -15.25 -18.4 -15.15 -18.45 -15.05 -18.5 -14.95 -18.55 -14.85 -18.65 -14.75 -18.75 -14.65 -18.8 -14.55 -18.9 -14.5 -18.95 -14.4 -19.0 -14.3 -19.1 -14.2 -19.2 -14.1 -19.3 -14.0 -19.35 -13.9 -19.4 -13.8 -19.4 -13.75 -19.45 -13.65 -19.5 -13.55 -19.6 -13.45 -19.65 -13.35 -19.75 -13.25 -19.8 -13.15 -19.85 -13.05 -19.9 -13.0 -20.0 -12.9 -20.05 -12.8 -20.1 -12.7 -20.15 -12.6 -20.25 -12.5 -20.3 -12.4 -20.35 -12.3 -20.4 -12.25 -20.5 -12.15 -20.6 -12.05 -20.65 -11.95 -20.75 -11.85 -20.8 -11.75 -20.9 -11.65 -20.95 -11.55 -21.0 -11.5 -21.05 -11.4 -21.1 -11.3 -21.15 -11.2 -21.15 -11.1 -21.25 -11.0 -21.3 -10.9 -21.35 -10.8 -21.4 -10.75 -21.4 -10.65 -21.45 -10.55 -21.5 -10.45 -21.5 -10.35 -21.55 -10.25 -21.6 -10.15 -21.65 -10.05 -21.65 -10.0 -21.7 -9.9 -21.75 -9.8 -21.85 -9.7 -21.9 -9.6 -21.9 -9.5 -21.95 -9.4 -22.0 -9.3 -22.0 -9.25 -22.05 -9.15 -22.1 -9.05 -22.2 -8.95 -22.25 -8.85 -22.3 -8.75 -22.35 -8.65 -22.4 -8.55 -22.4 -8.5 -22.4 -8.4 -22.45 -8.3 -22.5 -8.2 -22.5 -8.1 -22.55 -8.0 -22.65 -7.9 -22.65 -7.8 -22.65 -7.75 -22.7 -7.65 -22.75 -7.55 -22.75 -7.45 -22.8 -7.35 -22.85 -7.25 -22.9 -7.15 -22.95 -7.05 -23.0 -7.0 -23.0 -6.9 -23.05 -6.8 -23.1 -6.7 -23.15 -6.6 -23.15 -6.5 -23.2 -6.4 -23.25 -6.3 -23.25 -6.25 -23.3 -6.15 -23.35 -6.05 -23.4 -5.95 -23.4 -5.85 -23.5 -5.75 -23.55 -5.65 -23.55 -5.55 -23.55 -5.5 -23.6 -5.4 -23.65 -5.3 -23.65 -5.2 -23.65 -5.1 -23.65 -5.0 -23.65 -4.9 -23.65 -4.8 -23.65 -4.75 -23.7 -4.65 -23.75 -4.55 -23.75 -4.45 -23.8 -4.35 -23.85 -4.25 -23.9 -4.15 -23.9 -4.05 -23.9 -4.0 -23.9 -3.9 -23.9 -3.8 -23.9 -3.7 -23.95 -3.6 -23.95 -3.5 -24.0 -3.4 -24.05 -3.3 -24.05 -3.25 -24.05 -3.15 -24.1 -3.05 -24.15 -2.95 -24.15 -2.85 -24.15 -2.75 -24.15 -2.65 -24.2 -2.55 -24.25 -2.5 -24.25 -2.4 -24.3 -2.3 -24.35 -2.2 -24.35 -2.1 -24.4 -2.0 -24.4 -1.9 -24.4 -1.8 -24.4 -1.75 -24.4 -1.65 -24.4 -1.55 -24.4 -1.45 -24.4 -1.35 -24.4 -1.25 -24.4 -1.15 -24.4 -1.05 -24.4 -1.0 -24.4 -0.9 -24.4 -0.8 -24.4 -0.7 -24.4 -0.6 -24.4 -0.5 -24.4 -0.4 -24.4 -0.3 -24.4 -0.25 -24.4 -0.15 -24.4 -0.05 -24.4 0.05 -24.4 0.15 -24.4 0.25 -24.4 0.35 -24.4 0.45 -24.4 0.5 -24.4 0.6 -24.4 0.7 -24.4 0.8 -24.4 0.9 -24.4 1.0 -24.4 1.1 -24.4 1.2 -24.4 1.25 -24.4 1.35 -24.4 1.45 -24.4 1.55 -24.4 1.65 -24.4 1.75 -24.4 1.85 -24.4 1.95 -24.4 2.0 -24.4 2.1 -24.4 2.2 -24.4 2.3 -24.4 2.4 -24.4 2.5 -24.4 2.6 -24.4 2.7 -24.4 2.75 -24.4 2.85 -24.35 2.95 -24.3 3.05 -24.3 3.15 -24.3 3.25 -24.3 3.35 -24.3 3.45 -24.3 3.5 -24.3 3.6 -24.3 3.7 -24.3 3.8 -24.3 3.9 -24.3 4.0 -24.3 4.1 -24.3 4.2 -24.3 4.25 -24.3 4.35 -24.3 4.45 -24.3 4.55 -24.3 4.65 -24.25 4.75 -24.25 4.85 -24.2 4.95 -24.15 5.0 -24.15 5.1 -24.15 5.2 -24.15 5.3 -24.15 5.4 -24.15 5.5 -24.15 5.6 -24.15 5.7 -24.15 5.75 -24.15 5.85 -24.1 5.95 -24.05 6.05 -24.05 6.15 -24.05 6.25 -24.05 6.35 -24.05 6.45 -24.0 6.5 -24.0 6.6 -23.95 6.7 -23.9 6.8 -23.85 6.9 -23.85 7.0 -23.8 7.1 -23.8 7.2 -23.8 7.25 -23.75 7.35 -23.75 7.45 -23.7 7.55 -23.65 7.65 -23.65 7.75 -23.6 7.85 -23.55 7.95 -23.5 8.0 -23.5 8.1 -23.45 8.2 -23.4 8.3 -23.4 8.4 -23.4 8.5 -23.4 8.6 -23.4 8.7 -23.35 8.75 -23.3 8.85 -23.3 8.95 -23.3 9.05 -23.3 9.15 -23.25 9.25 -23.25 9.35 -23.2 9.45 -23.15 9.5 -23.15 9.6 -23.1 9.7 -23.05 9.8 -23.0 9.9 -22.95 10.0 -22.95 10.1 -22.9 10.2 -22.9 10.25 -22.9 10.35 -22.85 10.45 -22.8 10.55 -22.75 10.65 -22.65 10.75 -22.65 10.85 -22.6 10.95 -22.55 11.0 -22.5 11.1 -22.5 11.2 -22.45 11.3 -22.4 11.4 -22.35 11.5 -22.35 11.6 -22.25 11.7 -22.2 11.75 -22.15 11.85 -22.1 11.95 -22.05 12.05 -22.0 12.15 -21.95 12.25 -21.9 12.35 -21.85 12.45 -21.8 12.5 -21.75 12.6 -21.7 12.7 -21.65 12.8 -21.6 12.9 -21.55 13.0 -21.5 13.1 -21.45 13.2 -21.4 13.25 -21.3 13.35 -21.25 13.45 -21.15 13.55 -21.05 13.65 -20.95 13.75 -20.85 13.85 -20.8 13.95 -20.75 14.0 -20.75 14.1 -20.65 14.2 -20.55 14.3 -20.5 14.4 -20.4 14.5 -20.35 14.6 -20.3 14.7 -20.25 14.75 -20.15 14.85 -20.05 14.95 -20.0 15.05 -19.9 15.15 -19.8 15.25 -19.7 15.35 -19.6 15.45 -19.55 15.5 -19.5 15.6 -19.5 15.7 -19.4 15.8 -19.3 15.9 -19.25 16.0 -19.2 16.1 -19.1 16.2 -19.0 16.25 -18.9 16.35 -18.8 16.45 -18.75 16.55 -18.65 16.65 -18.55 16.75 -18.5 16.85 -18.4 16.95 -18.3 17.0 -18.25 17.1 -18.1 17.2 -18.0 17.3 -17.9 17.4 -17.8 17.5 -17.7 17.6 -17.55 17.7 -17.4 17.75 -17.3 17.85 -17.1 17.95 -17.0 18.05 -16.85 18.15 -16.75 18.25 -16.6 18.35 -16.5 18.45 -16.4 18.5 -16.35 18.6 -16.3 18.7 -16.25 18.8 -16.2 18.9 -16.2 19.0 -16.2 19.05 -16.1 19.05 -15.95 19.15 -15.8 19.25 -15.7 19.35 -15.6 19.45 -15.5 19.5 -15.4 19.6 -15.3 19.7 -15.2 19.8 -15.05 19.9 -14.95 20.0 -14.85 20.1 -14.65 20.2 -14.5 20.25 -14.35 20.35 -14.25 20.45 -14.15 20.5 -14.1 20.55 -13.9 20.6 -13.7 20.65 -13.6 20.7 -13.55 20.75 -13.35 20.8 -13.2 20.9 -13.1 20.95 -13.05 21.0 -12.85 21.05 -12.7 21.15 -12.55 21.25 -12.45 21.35 -12.3 21.45 -12.15 21.5 -12.05 21.6 -11.85 21.7 -11.75 21.8 -11.6 21.9 -11.5 22.0 -11.35 22.1 -11.25 22.2 -11.15 22.25 -11.05 22.35 -11.0 22.45 -10.85 22.55 -10.7 22.65 -10.55 22.75 -10.45 22.8 -10.4 22.85 -10.2 22.9 -10.1 22.95 -10.05 23.0 -9.85 23.05 -9.6 23.15 -9.5 23.2 -9.3 23.25 -9.15 23.25 -8.35 23.3 -8.15 23.35 -7.95 23.4 -7.85 23.45 -7.8 23.5 -7.65 23.5 -6.85 23.55 -6.65 23.6 -6.45 23.65 -5.75 23.7 -5.55 23.75 -5.4 23.75 -5.0 23.8 -4.8 23.85 -4.6 23.9 -4.5 23.95 -4.4 24.0 -4.25 24.0 -3.85 24.05 -3.65 24.1 -3.45 24.15 -3.1 24.2 -2.9 24.25 -2.75 24.25 -2.7 24.3 -2.55 24.35 -2.35 24.4 -1.85 24.45 -1.65 24.5 -1.5 24.5 -0.35 24.55 -0.15 24.6 0.05 24.65 3.25 24.65 3.45 24.6" fill="#000000" fill-rule="evenodd" stroke="none"/>
  </g>
</svg>
