<?xml version="1.0" encoding="UTF-8" standalone="no"?>
<svg xmlns:ffdec="https://www.free-decompiler.com/flash" xmlns:xlink="http://www.w3.org/1999/xlink" ffdec:objectType="shape" height="20.75px" width="20.55px" xmlns="http://www.w3.org/2000/svg">
  <g transform="matrix(1.0, 0.0, 0.0, 1.0, 10.6, 14.45)">
    <path d="M5.2 -7.0 L5.25 -6.95 5.3 -6.9 5.35 -6.85 5.4 -6.8 5.45 -6.8 5.55 -6.75 5.65 -6.7 5.7 -6.7 5.75 -6.65 5.85 -6.6 5.9 -6.55 6.05 -6.5 6.1 -6.45 6.15 -6.4 6.25 -6.35 6.35 -6.3 6.4 -6.25 6.45 -6.2 6.5 -6.15 6.6 -6.1 6.65 -6.05 6.75 -6.0 6.85 -5.95 6.9 -5.95 7.0 -5.9 7.1 -5.85 7.15 -5.8 7.2 -5.75 7.25 -5.7 7.3 -5.65 7.35 -5.6 7.45 -5.55 7.55 -5.5 7.65 -5.45 7.7 -5.45 7.75 -5.4 7.8 -5.35 7.85 -5.3 7.95 -5.25 8.0 -5.2 8.05 -5.15 8.1 -5.1 8.1 -5.05 8.15 -5.05 8.25 -5.0 8.35 -4.95 8.4 -4.95 8.5 -4.85 8.6 -4.8 8.7 -4.75 8.75 -4.7 8.8 -4.65 8.8 -4.6 8.85 -4.6 8.95 -4.55 9.05 -4.5 9.1 -4.45 9.15 -4.45 9.25 -4.4 9.35 -4.35 9.4 -4.3 9.45 -4.25 9.5 -4.2 9.5 -4.15 9.55 -4.1 9.6 -4.05 9.6 -4.0 9.65 -3.95 9.7 -3.9 9.75 -3.85 9.75 -3.8 9.8 -3.75 9.8 -3.7 9.85 -3.65 9.85 -3.2 9.9 -3.15 9.9 1.05 9.95 1.1 9.95 3.95 9.9 4.0 9.9 4.7 9.85 4.75 9.85 4.95 9.8 5.0 9.8 5.05 9.75 5.1 9.75 5.15 9.7 5.2 9.65 5.25 9.6 5.3 9.45 5.45 9.4 5.5 9.3 5.6 9.3 5.65 9.25 5.7 9.25 5.75 9.2 5.8 9.2 5.85 9.15 5.9 6.5 5.9 6.5 5.95 6.3 5.8 5.9 5.7 5.5 5.65 3.5 5.65 3.5 5.7 3.15 5.7 2.8 5.75 2.7 5.8 2.45 5.95 2.2 6.15 1.75 6.3 1.7 6.25 1.4 6.2 1.0 6.15 -0.2 6.05 -0.3 6.0 -0.6 5.95 -1.0 5.9 -6.25 5.9 -6.25 5.95 -6.6 5.95 -6.95 6.0 -7.05 6.05 -10.3 6.15 -10.3 1.7 -10.25 1.65 -10.25 1.55 -10.2 1.5 -10.2 1.45 -10.15 1.4 -10.15 0.35 -10.1 0.3 -10.1 -0.1 -10.05 -0.15 -10.1 -0.2 -10.1 -0.6 -10.15 -0.65 -10.15 -2.75 -10.2 -2.8 -10.25 -2.85 -10.25 -2.95 -10.3 -3.0 -10.3 -5.35 -10.35 -5.4 -10.35 -6.8 -10.4 -6.85 -10.4 -10.55 -10.45 -10.6 -10.45 -10.65 -10.5 -10.7 -10.5 -10.8 -10.55 -10.85 -10.55 -11.35 -10.6 -11.4 -10.6 -13.3 -10.55 -13.35 -10.55 -13.45 -10.5 -13.5 -10.45 -13.55 -10.4 -13.6 -10.4 -13.65 -10.35 -13.7 -10.25 -13.75 -10.2 -13.8 -10.1 -13.8 -10.1 -13.9 -10.05 -13.95 -10.05 -14.05 -10.0 -14.1 -9.95 -14.15 -9.9 -14.2 -9.9 -14.25 -9.85 -14.3 -9.75 -14.35 -9.7 -14.4 -9.65 -14.4 -9.55 -14.4 -9.45 -14.4 -9.45 -14.45 -9.35 -14.4 -9.3 -14.4 -9.2 -14.35 -9.15 -14.35 -9.05 -14.3 -9.0 -14.3 -8.9 -14.25 -8.8 -14.2 -8.75 -14.2 -8.7 -14.15 -8.65 -14.1 -8.6 -14.05 -8.55 -14.0 -8.5 -13.95 -8.45 -13.9 -8.4 -13.85 -8.4 -13.8 -8.35 -13.75 -8.3 -13.7 -8.25 -13.65 -8.2 -13.6 -8.15 -13.55 -7.5 -13.2 -7.4 -13.2 -7.4 -13.15 -7.35 -13.15 -7.25 -13.15 -7.2 -13.1 -7.15 -13.1 -7.05 -13.1 -6.95 -13.05 -6.9 -13.05 -6.8 -13.0 -6.7 -12.95 -6.65 -12.95 -6.55 -12.9 -6.45 -12.9 -6.45 -12.85 -6.4 -12.85 -6.3 -12.8 -6.15 -12.75 -6.05 -12.7 -6.0 -12.7 -5.9 -12.65 -5.85 -12.6 -5.75 -12.55 -5.65 -12.5 -5.55 -12.45 -5.5 -12.45 -5.45 -12.4 -5.35 -12.35 -5.25 -12.3 -5.15 -12.25 -5.05 -12.2 -5.0 -12.2 -4.9 -12.15 -4.8 -12.1 -4.7 -12.1 -4.6 -12.05 -4.55 -12.05 -4.45 -12.0 -4.35 -11.95 -4.3 -11.95 -4.2 -11.9 -4.15 -11.9 -4.05 -11.85 -3.9 -11.85 -3.9 -11.8 -3.85 -11.8 -3.75 -11.75 -3.65 -11.7 -3.6 -11.7 -3.5 -11.65 -3.4 -11.65 -3.4 -11.6 -3.35 -11.6 -3.25 -11.55 -3.15 -11.5 -3.1 -11.45 -3.05 -11.45 -3.0 -11.4 -2.9 -11.35 -2.8 -11.3 -2.7 -11.25 -2.6 -11.2 -2.55 -11.2 -2.5 -11.15 -2.4 -11.1 -2.3 -11.05 -2.2 -11.0 -2.1 -10.95 -2.05 -10.95 -1.9 -10.9 -1.9 -10.85 -1.8 -10.8 -1.7 -10.75 -1.6 -10.7 -1.55 -10.7 -1.45 -10.65 -1.4 -10.6 -1.35 -10.55 -1.25 -10.5 -1.15 -10.45 -1.1 -10.45 -1.05 -10.4 -0.95 -10.35 -0.9 -10.3 -0.8 -10.25 -0.75 -10.2 -0.7 -10.15 -0.65 -10.1 -0.6 -10.05 -0.5 -10.0 -0.4 -9.95 -0.4 -9.9 -0.35 -9.85 -0.25 -9.8 -0.15 -9.75 -0.05 -9.7 0.0 -9.7 0.05 -9.65 0.15 -9.55 0.25 -9.5 0.35 -9.45 0.4 -9.45 0.5 -9.4 0.6 -9.35 0.6 -9.3 0.7 -9.25 0.8 -9.2 0.85 -9.2 0.95 -9.1 1.05 -9.05 1.15 -9.0 1.2 -8.95 1.3 -8.95 1.35 -8.9 1.45 -8.85 1.55 -8.85 1.6 -8.8 1.65 -8.8 1.75 -8.75 1.85 -8.7 1.9 -8.7 2.0 -8.65 2.1 -8.6 2.15 -8.55 2.25 -8.5 2.35 -8.45 2.4 -8.45 2.5 -8.4 2.55 -8.35 2.6 -8.35 2.65 -8.3 2.7 -8.3 2.8 -8.25 2.9 -8.2 2.95 -8.2 3.0 -8.15 3.1 -8.1 3.15 -8.05 3.25 -8.0 3.35 -7.95 3.4 -7.95 3.5 -7.9 3.6 -7.85 3.65 -7.8 3.75 -7.75 3.85 -7.7 3.9 -7.7 4.0 -7.65 4.1 -7.6 4.1 -7.55 4.2 -7.5 4.3 -7.45 4.35 -7.45 4.45 -7.35 4.55 -7.35 4.55 -7.3 4.6 -7.3 4.7 -7.25 4.8 -7.2 4.85 -7.2 4.95 -7.15 5.05 -7.1 5.1 -7.05 5.2 -7.0" fill="#000000" fill-rule="evenodd" stroke="none"/>
  </g>
</svg>
