<?xml version="1.0" encoding="UTF-8" standalone="no"?>
<svg xmlns:ffdec="https://www.free-decompiler.com/flash" xmlns:xlink="http://www.w3.org/1999/xlink" ffdec:objectType="shape" height="19.15px" width="46.05px" xmlns="http://www.w3.org/2000/svg">
  <g transform="matrix(1.0, 0.0, 0.0, 1.0, 21.0, -2.05)">
    <path d="M15.9 8.6 L-14.15 8.6 -14.15 3.85 15.9 3.85 15.9 8.6" fill="#ffffff" fill-rule="evenodd" stroke="none"/>
    <path d="M15.9 8.6 L-14.15 8.6 -14.15 3.85 15.9 3.85 15.9 8.6 Z" fill="none" stroke="#000000" stroke-linecap="round" stroke-linejoin="round" stroke-width="1.0"/>
    <path d="M-15.85 14.35 L-15.95 14.35 -16.15 14.3 -16.25 14.2 -16.35 14.1 -16.45 14.0 -16.55 13.9 -16.55 13.8 -16.65 13.7 -16.7 13.6 -16.75 13.55 -16.8 13.45 -16.85 13.35 -16.95 13.25 -17.0 13.15 -17.0 13.05 -17.05 12.95 -17.15 12.85 -17.25 12.8 -17.3 12.7 -17.35 12.6 -17.45 12.5 -17.5 12.4 -17.5 12.3 -17.55 12.2 -17.55 12.1 -17.6 12.05 -17.65 11.95 -17.75 11.85 -17.8 11.75 -17.8 11.65 -17.85 11.55 -17.9 11.45 -17.95 11.35 -18.0 11.3 -18.05 11.2 -18.1 11.1 -18.2 11.0 -18.25 10.9 -18.25 10.8 -18.3 10.7 -18.35 10.6 -18.4 10.55 -18.5 10.45 -18.5 10.35 -18.6 10.25 -18.7 10.15 -18.75 10.05 -18.75 9.95 -18.8 9.85 -18.85 9.8 -18.9 9.7 -19.0 9.6 -19.05 9.6 -19.25 9.55 -19.35 9.45 -19.45 9.35 -19.55 9.25 -19.55 9.15 -19.6 9.05 -19.65 8.95 -19.65 8.85 -19.65 8.8 -19.65 8.7 -19.6 8.6 -19.55 8.5 -19.5 8.4 -19.4 8.3 -19.3 8.2 -19.25 8.15 -19.15 8.1 -19.1 8.1 -19.15 8.05 -19.25 8.0 -19.35 7.95 -19.45 7.95 -19.6 7.95 -19.6 7.9 -19.55 7.9 -19.5 7.85 -19.4 7.8 -19.35 7.75 -19.35 7.7 -19.3 7.65 -19.25 7.65 -19.15 7.6 -19.1 7.6 -19.0 7.55 -18.9 7.55 -18.85 7.55 -18.75 7.5 -18.65 7.5 -18.5 7.45 -18.4 7.4 -18.35 7.4 -18.25 7.4 -18.25 7.35 -18.15 7.3 -18.15 7.2 -18.1 7.1 -18.05 7.0 -18.0 6.9 -17.9 6.8 -17.85 6.7 -17.75 6.6 -17.7 6.55 -17.65 6.45 -17.65 6.35 -17.6 6.25 -17.55 6.15 -17.45 6.05 -17.35 5.95 -17.25 5.85 -17.2 5.8 -17.15 5.7 -17.15 5.6 -17.15 5.5 -17.1 5.4 -17.05 5.3 -17.0 5.2 -16.9 5.1 -16.8 5.05 -16.75 4.95 -16.65 4.85 -16.55 4.75 -16.45 4.65 -16.35 4.55 -16.2 4.5 -16.05 4.5 -16.0 4.45 -16.0 4.4 -15.95 4.35 -15.9 4.3 -15.9 4.25 -15.85 4.2 -15.85 4.1 -15.8 4.05 -15.8 4.0 -15.75 3.95 -15.75 3.9 -15.7 3.9 -15.7 3.85 -15.65 3.8 -15.6 3.75 -15.55 3.7 -15.5 3.65 -15.45 3.65 -15.45 3.6 -15.35 3.5 -15.25 3.4 -15.15 3.3 -14.95 3.25 -14.75 3.25 -14.75 3.2 -14.6 3.2 -14.4 3.25 -14.25 3.3 -14.1 3.4 -14.0 3.5 -13.9 3.6 -13.85 3.7 -13.8 3.8 -13.65 3.85 -13.55 3.95 -13.5 4.05 -13.4 4.15 -13.4 4.25 -13.35 4.35 -13.25 4.45 -13.15 4.55 -13.1 4.6 -13.05 4.7 -13.0 4.8 -12.9 4.9 -12.85 5.0 -12.75 5.1 -12.7 5.2 -12.55 5.3 -12.5 5.35 -12.4 5.45 -12.25 5.55 -12.1 5.65 -12.0 5.75 -11.9 5.85 -11.8 5.95 -11.7 6.05 -11.55 6.1 -11.45 6.2 -10.5 6.2 -10.3 6.25 -10.2 6.3 -9.5 6.3 -9.3 6.35 -9.15 6.4 -6.0 6.45 -5.8 6.5 -5.7 6.55 1.1 6.55 1.2 6.5 1.4 6.45 9.1 6.4 9.3 6.35 9.5 6.3 12.1 6.3 12.25 6.2 12.35 6.15 12.45 6.1 12.6 6.05 12.7 5.95 12.75 5.85 12.85 5.8 12.95 5.7 12.95 5.6 13.0 5.5 13.1 5.4 13.15 5.3 13.2 5.2 13.25 5.1 13.35 5.05 13.45 4.95 13.5 4.85 13.5 4.75 13.6 4.65 13.7 4.55 13.75 4.45 13.85 4.35 13.95 4.3 14.0 4.2 14.05 4.1 14.1 4.0 14.15 3.9 14.15 3.8 14.2 3.7 14.25 3.6 14.35 3.55 14.45 3.45 14.6 3.35 14.7 3.35 14.9 3.3 15.1 3.35 15.25 3.4 15.4 3.5 15.45 3.45 15.45 3.4 15.5 3.35 15.5 3.25 15.55 3.2 15.55 3.1 15.6 3.05 15.6 2.9 15.65 2.9 15.65 2.8 15.7 2.8 15.8 2.85 15.8 2.9 15.85 2.95 15.85 3.0 15.9 3.05 15.95 3.1 16.0 3.15 16.0 3.2 16.05 3.25 16.05 3.3 16.15 3.4 16.15 3.45 16.2 3.5 16.25 3.55 16.25 3.6 16.3 3.65 16.35 3.7 16.4 3.75 16.4 3.8 16.5 3.9 16.55 3.95 16.6 4.0 16.6 4.05 16.65 4.1 16.65 4.15 16.7 4.2 16.75 4.25 16.8 4.3 16.8 4.35 16.85 4.4 16.9 4.4 17.0 4.5 17.05 4.55 17.05 4.6 17.1 4.65 17.15 4.7 17.15 4.8 17.35 5.0 17.35 5.05 17.4 5.1 17.4 5.15 17.45 5.15 17.5 5.2 17.55 5.25 17.55 5.3 17.6 5.35 17.65 5.4 17.7 5.45 17.75 5.5 17.8 5.55 17.8 5.6 17.9 5.7 17.9 5.75 17.95 5.8 18.0 5.85 18.05 5.9 18.1 5.9 18.1 6.0 18.2 6.1 18.2 6.15 18.25 6.2 18.3 6.25 18.35 6.3 18.4 6.35 18.4 6.4 18.45 6.4 18.5 6.45 18.55 6.5 18.6 6.55 18.65 6.6 18.7 6.65 18.75 6.65 18.8 6.7 18.85 6.75 18.85 6.8 18.9 6.85 18.95 6.9 19.0 6.95 19.05 7.0 19.1 7.05 19.15 7.1 19.15 7.15 19.2 7.2 19.2 7.45 19.15 7.5 19.15 7.6 19.1 7.65 19.1 7.7 19.05 7.75 19.0 7.8 18.9 7.85 18.85 7.85 18.85 7.95 18.85 8.0 18.75 7.9 18.65 7.9 18.6 7.9 18.5 7.9 18.4 7.85 18.3 7.8 18.25 7.8 18.25 7.85 18.05 7.85 17.9 7.85 17.8 7.95 17.65 8.0 17.55 8.1 17.45 8.2 17.35 8.3 17.1 8.4 16.95 8.5 16.85 8.6 16.75 8.7 16.65 8.75 16.55 8.85 16.45 8.95 16.35 9.05 16.15 9.1 16.05 9.2 15.9 9.25 15.8 9.35 15.7 9.45 15.6 9.55 15.4 9.6 15.25 9.55 15.15 9.45 15.35 9.35 15.5 9.25 15.75 9.15 15.9 9.05 16.05 8.95 16.15 8.85 16.3 8.8 16.4 8.7 16.6 8.6 16.75 8.5 16.85 8.4 16.9 8.3 16.95 8.2 17.05 8.1 17.15 8.05 17.25 7.95 17.3 7.85 17.35 7.75 17.45 7.65 17.5 7.55 17.55 7.45 17.6 7.35 17.6 7.3 17.6 7.2 17.45 7.05 17.4 7.0 17.4 6.9 17.35 6.85 17.3 6.8 17.25 6.75 17.25 6.7 17.2 6.65 17.15 6.65 17.15 6.6 17.1 6.55 17.05 6.5 17.0 6.45 17.0 6.4 16.95 6.4 16.95 6.45 16.9 6.55 16.85 6.65 16.75 6.75 16.6 6.85 16.5 6.95 16.4 7.05 16.4 7.1 16.35 7.2 16.3 7.3 16.25 7.4 16.25 7.5 16.2 7.6 16.15 7.7 16.1 7.8 16.1 7.85 16.05 7.95 16.0 8.05 16.0 8.15 16.0 8.25 16.0 8.35 16.0 8.45 15.9 8.55 15.9 8.6 15.8 8.7 15.65 8.8 15.6 8.9 15.5 9.0 15.35 9.1 15.25 9.15 15.15 9.2 15.0 9.25 14.9 9.3 14.85 9.35 14.65 9.4 14.4 9.45 13.3 9.55 13.2 9.6 12.95 9.65 12.65 9.7 11.55 9.8 11.45 9.85 11.25 9.85 7.75 9.85 7.45 9.8 7.35 9.75 6.4 9.7 6.1 9.65 6.0 9.55 5.9 9.45 5.85 9.35 5.8 9.3 5.75 9.2 4.05 9.3 3.95 9.35 3.75 9.35 3.5 9.35 3.4 9.45 3.25 9.55 3.0 9.6 2.45 9.65 2.35 9.7 2.15 9.7 1.7 9.8 1.6 9.85 1.4 9.85 1.0 9.9 0.95 9.95 0.75 9.95 0.05 10.05 -0.05 10.1 -0.35 10.15 -0.6 10.2 -0.95 10.3 -1.05 10.35 -1.25 10.35 -1.55 10.4 -1.65 10.45 -1.85 10.45 -2.05 10.55 -2.15 10.6 -2.35 10.6 -2.5 10.65 -2.55 10.7 -2.75 10.7 -3.05 10.8 -3.15 10.85 -3.35 10.85 -3.8 10.9 -3.9 10.95 -4.1 10.95 -4.3 11.05 -4.4 11.1 -4.6 11.1 -4.8 11.15 -4.9 11.2 -5.1 11.2 -5.7 11.3 -5.8 11.35 -6.0 11.35 -6.2 11.4 -6.25 11.4 -6.3 11.45 -6.5 11.45 -6.7 11.55 -6.8 11.6 -7.0 11.6 -7.3 11.65 -7.4 11.7 -7.6 11.7 -7.95 11.8 -8.05 11.85 -8.15 11.85 -8.35 11.9 -8.4 11.95 -8.6 11.95 -9.2 12.05 -9.3 12.1 -9.5 12.1 -10.55 12.15 -10.65 12.2 -10.85 12.2 -11.05 12.3 -11.15 12.35 -11.35 12.35 -12.25 12.4 -12.3 12.45 -12.5 12.45 -12.95 12.55 -13.05 12.6 -13.25 12.6 -13.75 12.65 -13.8 12.7 -14.0 12.7 -14.05 12.75 -14.1 12.7 -15.25 12.7 -15.25 12.75 -15.45 12.75 -15.55 12.8 -15.65 12.8 -15.75 12.85 -15.8 12.95 -15.9 13.05 -16.0 13.15 -16.05 13.25 -16.1 13.35 -16.15 13.45 -16.15 13.55 -16.15 13.6 -16.15 13.7 -16.1 13.8 -16.05 13.9 -16.05 14.0 -15.95 14.1 -15.85 14.2 -15.8 14.25 -15.85 14.3 -15.85 14.35 M14.1 3.6 L14.1 3.65 14.05 3.7 14.05 3.85 14.0 3.9 14.0 3.95 13.95 4.0 13.9 4.05 13.85 4.1 13.85 4.15 13.8 4.15 13.8 4.35 13.75 4.4 13.75 4.1 13.8 4.05 13.8 4.0 13.85 3.95 13.85 3.9 13.9 3.85 13.9 3.8 13.95 3.75 13.95 3.7 14.0 3.65 14.05 3.65 14.1 3.6 14.1 3.55 14.15 3.5 14.15 3.55 14.1 3.6 M-9.2 10.05 L-9.5 10.1 -9.7 10.15 -9.85 10.2 -9.95 10.3 -10.05 10.4 -10.35 10.45 -10.55 10.5 -10.65 10.55 -10.75 10.6 -10.9 10.7 -11.05 10.75 -11.2 10.8 -11.3 10.9 -11.5 11.0 -11.55 11.05 -11.45 11.0 -11.25 10.95 -11.05 10.9 -10.95 10.8 -10.8 10.75 -10.65 10.7 -10.5 10.6 -10.4 10.55 -10.3 10.5 -10.05 10.45 -9.9 10.35 -9.8 10.3 -9.7 10.25 -9.5 10.2 -9.25 10.15 -9.1 10.05 -8.95 10.0 -8.8 9.95 -9.05 10.0 -9.2 10.05 M-7.05 12.9 L-7.15 13.1 -7.2 13.05 -7.3 13.0 -7.05 12.9" fill="#ffcc00" fill-rule="evenodd" stroke="none"/>
    <path d="M19.25 8.35 L19.45 8.7 19.75 9.0 19.1 9.45 18.85 9.65 18.85 9.55 18.9 9.5 19.0 9.4 19.1 9.3 19.15 9.2 19.2 9.1 19.2 9.0 19.25 8.95 19.3 8.85 19.3 8.75 19.3 8.65 19.25 8.55 19.2 8.45 19.25 8.4 19.25 8.35" fill="#ff9900" fill-rule="evenodd" stroke="none"/>
    <path d="M-8.4 11.95 L-8.35 11.9 -8.15 11.85 -8.05 11.85 -7.95 11.8 -7.6 11.7 -7.4 11.7 -7.3 11.65 -7.0 11.6 -6.8 11.6 -6.7 11.55 -6.5 11.45 -6.3 11.45 -6.25 11.4 -6.2 11.4 -6.15 11.45 -6.1 11.55 -6.0 11.65 -5.9 11.75 -5.75 11.85 -5.55 11.9 -5.35 11.95 -4.4 11.95 -4.3 12.05 -4.0 12.1 -3.05 12.15 -3.05 12.25 -3.05 12.35 -3.05 12.45 -3.05 12.5 -3.1 12.6 -3.1 12.65 -3.35 12.65 Q-4.35 12.75 -4.75 13.2 L-4.8 13.2 -4.9 13.15 -5.1 13.1 -5.3 13.1 Q-5.45 12.4 -6.25 12.4 -6.85 12.4 -7.05 12.9 L-7.3 13.0 -7.35 12.95 -7.6 12.85 -7.85 12.85 -8.05 12.9 -8.15 12.95 -8.25 13.0 -8.4 13.1 -8.55 13.2 -8.8 13.25 -8.9 13.3 -9.0 13.35 -9.05 13.45 -9.3 13.5 -9.4 13.55 -9.5 13.6 -9.7 13.65 -9.8 13.7 -10.0 13.7 -10.2 13.75 -10.35 13.8 -13.4 13.85 -13.4 13.75 -13.35 13.65 -13.3 13.55 -13.25 13.5 -13.05 13.45 -13.0 13.4 -12.8 13.35 -12.65 13.25 -12.4 13.2 -12.25 13.1 -12.05 13.05 -11.75 12.95 -11.55 12.95 -11.5 12.9 -11.35 12.85 -11.15 12.85 -11.05 12.8 -10.9 12.7 -10.5 12.6 -10.3 12.6 -10.2 12.55 -10.05 12.45 -9.75 12.35 -9.55 12.35 -9.5 12.3 -9.4 12.25 -9.15 12.2 -9.05 12.15 -8.85 12.1 -8.65 12.1 -8.55 12.05 -8.5 12.0 -8.4 11.95 M18.0 11.15 L18.15 11.1 18.2 11.1 18.25 11.15 18.25 11.25 18.25 11.35 18.25 11.45 18.25 11.55 18.25 11.6 18.2 11.7 18.15 11.8 18.15 11.85 18.1 11.8 18.05 11.7 18.0 11.6 17.9 11.5 17.8 11.45 17.8 11.4 17.85 11.4 17.9 11.35 17.9 11.3 17.95 11.25 17.95 11.2 18.0 11.15 M9.85 11.95 L9.85 11.85 9.85 11.8 10.15 11.7 10.35 11.7 10.45 11.65 10.75 11.6 10.9 11.6 10.7 11.65 10.55 11.75 10.55 11.8 10.35 11.8 10.15 11.85 10.0 11.85 9.95 11.9 9.85 11.95 M0.45 13.3 L0.4 13.3 0.2 13.35 0.0 13.4 -0.15 13.5 -0.35 13.55 -0.55 13.6 -0.75 13.65 -0.9 13.75 -1.1 13.8 -1.3 13.85 -1.5 13.9 -1.5 13.95 -1.65 13.9 -1.8 13.85 -2.0 13.8 -2.25 13.8 -2.1 13.75 -2.1 13.7 -2.15 13.65 -2.15 13.55 -2.1 13.5 -2.1 13.35 -2.05 13.3 -1.85 13.1 -1.75 13.1 -1.7 13.05 -1.6 13.05 -1.35 13.05 -1.25 13.05 -1.15 13.1 -1.1 13.1 -0.75 13.1 -0.65 13.15 -0.55 13.15 -0.45 13.2 -0.35 13.2 -0.3 13.25 0.3 13.25 0.4 13.25 0.45 13.3" fill="#dfb300" fill-rule="evenodd" stroke="none"/>
    <path d="M-14.05 12.75 L-14.0 12.7 -13.8 12.7 -13.75 12.65 -13.25 12.6 -13.05 12.6 -12.95 12.55 -12.5 12.45 -12.3 12.45 -12.25 12.4 -11.35 12.35 -11.15 12.35 -11.05 12.3 -10.85 12.2 -10.65 12.2 -10.55 12.15 -9.5 12.1 -9.3 12.1 -9.2 12.05 -8.6 11.95 -8.4 11.95 -8.5 12.0 -8.55 12.05 -8.65 12.1 -8.85 12.1 -9.05 12.15 -9.15 12.2 -9.4 12.25 -9.5 12.3 -9.55 12.35 -9.75 12.35 -10.05 12.45 -10.2 12.55 -10.3 12.6 -10.5 12.6 -10.9 12.7 -11.05 12.8 -11.15 12.85 -11.35 12.85 -11.5 12.9 -11.55 12.95 -11.75 12.95 -12.05 13.05 -12.25 13.1 -12.4 13.2 -12.65 13.25 -12.8 13.35 -13.0 13.4 -13.05 13.45 -13.25 13.5 -13.3 13.55 -13.3 13.45 -13.35 13.35 -13.35 13.3 -13.4 13.2 -13.45 13.1 -13.5 13.0 -13.6 12.9 -13.75 12.8 -13.9 12.75 -14.05 12.75 M-6.2 11.4 L-6.0 11.35 -5.8 11.35 -5.7 11.3 -5.1 11.2 -4.9 11.2 -4.8 11.15 -4.6 11.1 -4.4 11.1 -4.3 11.05 -4.1 10.95 -3.9 10.95 -3.8 10.9 -3.35 10.85 -3.15 10.85 -3.05 10.8 -2.75 10.7 -2.55 10.7 -2.5 10.65 -2.35 10.6 -2.15 10.6 -2.05 10.55 -1.85 10.45 -1.65 10.45 -1.55 10.4 -1.25 10.35 -1.05 10.35 -0.95 10.3 -0.6 10.2 -0.35 10.15 -0.05 10.1 0.05 10.05 0.75 9.95 0.95 9.95 1.0 9.9 1.4 9.85 1.6 9.85 1.7 9.8 2.15 9.7 2.35 9.7 2.45 9.65 3.0 9.6 3.25 9.55 3.4 9.45 3.5 9.35 3.75 9.35 3.95 9.35 4.05 9.3 5.75 9.2 5.8 9.3 5.85 9.35 5.9 9.45 6.0 9.55 6.1 9.65 6.4 9.7 7.35 9.75 7.45 9.8 7.75 9.85 11.25 9.85 11.45 9.85 11.55 9.8 12.65 9.7 12.95 9.65 13.2 9.6 13.3 9.55 14.4 9.45 14.65 9.4 14.85 9.35 14.9 9.3 15.0 9.25 15.15 9.2 15.25 9.15 15.35 9.1 15.5 9.0 15.6 8.9 15.65 8.8 15.8 8.7 15.9 8.6 15.9 8.55 16.0 8.45 16.0 8.35 16.0 8.25 16.0 8.15 16.0 8.05 16.05 7.95 16.1 7.85 16.1 7.8 16.15 7.7 16.2 7.6 16.25 7.5 16.25 7.4 16.3 7.3 16.35 7.2 16.4 7.1 16.4 7.05 16.5 6.95 16.6 6.85 16.75 6.75 16.85 6.65 16.9 6.55 16.95 6.45 16.95 6.4 17.0 6.4 17.0 6.45 17.05 6.5 17.1 6.55 17.15 6.6 17.15 6.65 17.2 6.65 17.25 6.7 17.25 6.75 17.3 6.8 17.35 6.85 17.4 6.9 17.4 7.0 17.45 7.05 17.6 7.2 17.6 7.3 17.6 7.35 17.55 7.45 17.5 7.55 17.45 7.65 17.35 7.75 17.3 7.85 17.25 7.95 17.15 8.05 17.05 8.1 16.95 8.2 16.9 8.3 16.85 8.4 16.75 8.5 16.6 8.6 16.4 8.7 16.3 8.8 16.15 8.85 16.05 8.95 15.9 9.05 15.75 9.15 15.5 9.25 15.35 9.35 15.15 9.45 15.25 9.55 15.4 9.6 15.3 9.7 15.15 9.75 15.0 9.85 14.8 9.95 14.7 10.05 14.5 10.1 14.35 10.2 14.2 10.25 14.05 10.35 13.9 10.35 13.8 10.45 13.65 10.5 13.55 10.6 13.45 10.7 13.25 10.75 13.2 10.8 13.05 10.85 12.9 10.85 12.8 10.95 12.6 11.0 12.4 11.1 12.25 11.1 12.2 11.15 12.05 11.2 11.9 11.25 11.75 11.3 11.55 11.35 11.4 11.35 11.3 11.45 11.1 11.5 10.9 11.6 10.75 11.6 10.45 11.65 10.35 11.7 10.15 11.7 9.85 11.8 9.85 11.85 9.85 11.95 9.8 11.95 9.75 12.0 9.65 12.0 9.45 12.05 9.4 12.0 9.3 11.9 9.15 11.8 8.95 11.75 8.75 11.7 8.25 11.7 8.25 11.75 8.05 11.75 7.9 11.75 7.0 11.8 6.8 11.85 6.65 11.85 6.6 11.9 6.45 11.95 6.25 12.0 5.35 12.05 5.15 12.1 4.95 12.15 4.6 12.2 4.4 12.25 4.25 12.25 4.1 12.3 3.9 12.35 3.7 12.4 3.1 12.45 2.9 12.5 2.75 12.5 2.1 12.55 1.9 12.6 1.75 12.6 1.7 12.65 1.55 12.7 1.35 12.8 1.2 12.9 1.1 13.0 1.0 13.1 0.95 13.1 0.75 13.15 0.6 13.25 0.45 13.3 0.4 13.25 0.3 13.25 -0.3 13.25 -0.35 13.2 -0.45 13.2 -0.55 13.15 -0.65 13.15 -0.75 13.1 -1.1 13.1 -1.15 13.1 -1.25 13.05 -1.35 13.05 -1.6 13.05 -1.7 13.05 -1.75 13.1 -1.85 13.1 -2.05 13.3 -2.1 13.35 -2.1 13.5 -2.15 13.55 -2.15 13.65 -2.1 13.7 -2.1 13.75 -2.25 13.8 -2.35 13.8 -7.2 13.8 -7.3 13.75 -7.5 13.7 -9.75 13.7 -9.95 13.75 -10.15 13.8 -10.25 13.9 -10.35 14.0 -10.45 14.1 -10.5 14.2 -10.5 14.3 -10.55 14.35 -10.55 14.45 -10.55 14.55 -10.55 14.65 -10.6 14.65 -11.1 14.65 -11.1 14.6 -11.15 14.55 -11.2 14.45 -11.25 14.35 -11.35 14.25 -11.5 14.15 -11.65 14.1 -11.85 14.05 -12.1 14.05 -12.3 14.1 -12.5 14.15 -13.7 14.2 -13.65 14.1 -13.55 14.05 -13.5 13.95 -13.4 13.85 -10.35 13.8 -10.2 13.75 -10.0 13.7 -9.8 13.7 -9.7 13.65 -9.5 13.6 -9.4 13.55 -9.3 13.5 -9.05 13.45 -9.0 13.35 -8.9 13.3 -8.8 13.25 -8.55 13.2 -8.4 13.1 -8.25 13.0 -8.15 12.95 -8.05 12.9 -7.85 12.85 -7.6 12.85 -7.35 12.95 -7.3 13.0 -7.2 13.05 -7.15 13.1 -7.05 12.9 Q-6.85 12.4 -6.25 12.4 -5.45 12.4 -5.3 13.1 L-5.1 13.1 -4.9 13.15 -4.8 13.2 -4.75 13.2 Q-4.35 12.75 -3.35 12.65 L-3.1 12.65 -3.1 12.6 -3.05 12.5 -3.05 12.45 -3.05 12.35 -3.05 12.25 -3.05 12.15 -4.0 12.1 -4.3 12.05 -4.4 11.95 -5.35 11.95 -5.55 11.9 -5.75 11.85 -5.9 11.75 -6.0 11.65 -6.1 11.55 -6.15 11.45 -6.2 11.4 M-9.2 10.05 L-9.05 10.0 -8.8 9.95 -8.95 10.0 -9.1 10.05 -9.25 10.15 -9.5 10.2 -9.7 10.25 -9.8 10.3 -9.9 10.35 -10.05 10.45 -10.3 10.5 -10.4 10.55 -10.5 10.6 -10.65 10.7 -10.8 10.75 -10.95 10.8 -11.05 10.9 -11.25 10.95 -11.45 11.0 -11.55 11.05 -11.5 11.0 -11.3 10.9 -11.2 10.8 -11.05 10.75 -10.9 10.7 -10.75 10.6 -10.65 10.55 -10.55 10.5 -10.35 10.45 -10.05 10.4 -9.95 10.3 -9.85 10.2 -9.7 10.15 -9.5 10.1 -9.2 10.05" fill="#e3af00" fill-rule="evenodd" stroke="none"/>
    <path d="M15.4 9.6 L15.6 9.55 15.7 9.45 15.8 9.35 15.9 9.25 16.05 9.2 16.15 9.1 16.35 9.05 16.45 8.95 16.55 8.85 16.65 8.75 16.75 8.7 16.85 8.6 16.95 8.5 17.1 8.4 17.35 8.3 17.45 8.2 17.55 8.1 17.65 8.0 17.8 7.95 17.9 7.85 18.05 7.85 18.25 7.85 18.25 7.8 18.3 7.8 18.4 7.85 18.5 7.9 18.6 7.9 18.65 7.9 18.75 7.9 18.85 8.0 18.85 7.95 18.85 7.85 18.9 7.85 19.0 7.8 19.05 7.75 19.1 7.7 19.1 7.65 19.15 7.75 19.2 7.85 19.25 7.95 19.25 8.05 19.25 8.1 19.25 8.2 19.25 8.3 19.25 8.35 19.25 8.4 19.2 8.45 19.25 8.55 19.3 8.65 19.3 8.75 19.3 8.85 19.25 8.95 19.2 9.0 19.2 9.1 19.15 9.2 19.1 9.3 19.0 9.4 18.9 9.5 18.85 9.55 18.85 9.65 18.8 9.7 18.8 9.75 18.75 9.8 18.75 9.85 18.7 9.9 18.65 9.9 18.6 9.95 18.6 10.05 18.55 10.1 18.55 10.15 18.5 10.2 18.5 10.25 18.4 10.35 18.4 10.45 18.35 10.5 18.35 10.55 18.3 10.6 18.3 10.65 18.25 10.65 18.25 10.7 18.2 10.75 18.2 10.8 18.15 10.85 18.1 10.9 18.05 10.95 18.05 11.05 18.0 11.1 18.0 11.15 17.95 11.2 17.95 11.25 17.9 11.3 17.9 11.35 17.85 11.4 17.8 11.4 17.8 11.45 17.75 11.4 17.65 11.35 17.7 11.45 17.7 11.55 17.7 11.65 17.7 11.75 17.7 11.85 17.7 11.95 17.7 12.05 17.7 12.1 17.7 12.2 17.7 12.3 17.7 12.4 17.7 12.5 17.7 12.6 17.7 12.7 17.7 12.8 17.7 12.85 17.7 12.95 17.7 13.05 17.7 13.15 17.7 13.25 17.7 13.35 17.65 13.45 17.6 13.55 17.55 13.6 17.5 13.7 17.45 13.8 17.4 13.9 17.35 14.0 17.25 14.1 17.1 14.2 16.95 14.3 16.85 14.35 16.75 14.45 16.7 14.55 16.55 14.65 16.5 14.75 16.4 14.85 16.25 14.95 16.05 15.05 15.95 15.1 15.85 15.2 15.8 15.2 15.6 15.3 15.45 15.35 15.35 15.45 15.25 15.55 15.2 15.55 15.1 15.6 14.9 15.6 14.7 15.7 14.75 15.8 14.75 15.85 14.75 15.95 14.75 16.05 14.75 16.15 14.7 16.25 14.7 16.35 14.6 16.45 14.55 16.55 14.45 16.6 14.35 16.7 14.3 16.7 14.2 16.75 14.0 16.8 13.45 16.8 13.35 16.85 13.15 16.85 12.75 16.95 12.6 17.0 12.4 17.05 9.35 17.05 8.25 17.05 3.9 17.05 3.7 17.0 3.5 16.95 0.25 16.85 0.05 16.85 -0.05 16.8 -0.85 16.8 -1.35 16.8 -1.55 16.75 -1.75 16.7 -2.2 16.65 -2.75 16.6 -2.95 16.6 -3.15 16.55 -3.25 16.45 -3.4 16.35 -3.6 16.4 -3.7 16.45 -3.8 16.5 -3.9 16.55 -4.0 16.55 -4.05 16.55 -4.15 16.6 -4.35 16.6 -4.6 16.6 -4.8 16.6 -5.0 16.55 -5.1 16.45 -5.2 16.35 -5.3 16.25 -5.3 16.15 -5.35 16.05 -5.4 15.95 -5.4 15.85 -5.4 15.8 -5.4 15.7 -5.35 15.6 -5.3 15.5 -5.25 15.4 -5.15 15.3 -5.05 15.2 -5.0 15.15 -4.9 15.1 -4.75 15.05 -4.55 14.95 -4.5 14.9 -4.4 14.85 -4.25 14.8 -4.05 14.75 -3.8 14.7 -3.7 14.6 -3.55 14.55 -3.45 14.5 -3.3 14.45 -3.15 14.35 -3.05 14.35 -2.85 14.3 -2.65 14.3 -2.5 14.2 -2.4 14.15 -2.3 14.1 -2.2 14.1 -2.0 14.05 -1.65 14.0 -1.5 13.95 -1.5 13.9 -1.3 13.85 -1.1 13.8 -0.9 13.75 -0.75 13.65 -0.55 13.6 -0.35 13.55 -0.15 13.5 0.0 13.4 0.2 13.35 0.4 13.3 0.45 13.3 0.6 13.25 0.75 13.15 0.95 13.1 1.0 13.1 1.1 13.0 1.2 12.9 1.35 12.8 1.55 12.7 1.7 12.65 1.75 12.6 1.9 12.6 2.1 12.55 2.75 12.5 2.9 12.5 3.1 12.45 3.7 12.4 3.9 12.35 4.1 12.3 4.25 12.25 4.4 12.25 4.6 12.2 4.95 12.15 5.15 12.1 5.35 12.05 6.25 12.0 6.45 11.95 6.6 11.9 6.65 11.85 6.8 11.85 7.0 11.8 7.9 11.75 8.05 11.75 8.25 11.75 8.25 11.7 8.75 11.7 8.95 11.75 9.15 11.8 9.3 11.9 9.4 12.0 9.45 12.05 9.65 12.0 9.75 12.0 9.8 11.95 9.85 11.95 9.95 11.9 10.0 11.85 10.15 11.85 10.35 11.8 10.55 11.8 10.55 11.75 10.7 11.65 10.9 11.6 11.1 11.5 11.3 11.45 11.4 11.35 11.55 11.35 11.75 11.3 11.9 11.25 12.05 11.2 12.2 11.15 12.25 11.1 12.4 11.1 12.6 11.0 12.8 10.95 12.9 10.85 13.05 10.85 13.2 10.8 13.25 10.75 13.45 10.7 13.55 10.6 13.65 10.5 13.8 10.45 13.9 10.35 14.05 10.35 14.2 10.25 14.35 10.2 14.5 10.1 14.7 10.05 14.8 9.95 15.0 9.85 15.15 9.75 15.3 9.7 15.4 9.6 M-19.8 9.05 L-19.75 9.1 -19.75 9.2 -19.7 9.25 -19.7 9.4 -19.65 9.45 -19.65 9.5 -19.6 9.55 -19.7 9.5 -19.75 9.45 -19.8 9.4 -19.9 9.3 -19.9 9.25 -19.85 9.15 -19.8 9.05" fill="#c97a05" fill-rule="evenodd" stroke="none"/>
    <path d="M-15.85 14.35 L-15.85 14.3 -15.8 14.25 -15.85 14.2 -15.95 14.1 -16.05 14.0 -16.05 13.9 -16.1 13.8 -16.15 13.7 -16.15 13.6 -16.15 13.55 -16.15 13.45 -16.1 13.35 -16.05 13.25 -16.0 13.15 -15.9 13.05 -15.8 12.95 -15.75 12.85 -15.65 12.8 -15.55 12.8 -15.45 12.75 -15.25 12.75 -15.25 12.7 -14.1 12.7 -14.05 12.75 -13.9 12.75 -13.75 12.8 -13.6 12.9 -13.5 13.0 -13.45 13.1 -13.4 13.2 -13.35 13.3 -13.35 13.35 -13.3 13.45 -13.3 13.55 -13.35 13.65 -13.4 13.75 -13.4 13.85 -13.5 13.95 -13.55 14.05 -13.65 14.1 -13.7 14.2 -12.5 14.15 -12.3 14.1 -12.1 14.05 -11.85 14.05 -11.65 14.1 -11.5 14.15 -11.35 14.25 -11.25 14.35 -11.2 14.45 -11.15 14.55 -11.1 14.6 -11.1 14.65 -11.1 14.7 -10.6 14.65 -10.55 14.65 -10.55 14.55 -10.55 14.45 -10.55 14.35 -10.5 14.3 -10.5 14.2 -10.45 14.1 -10.35 14.0 -10.25 13.9 -10.15 13.8 -9.95 13.75 -9.75 13.7 -7.5 13.7 -7.3 13.75 -7.2 13.8 -2.35 13.8 -2.25 13.8 -2.0 13.8 -1.8 13.85 -1.65 13.9 -1.5 13.95 -1.65 14.0 -2.0 14.05 -2.2 14.1 -2.3 14.1 -2.4 14.15 -2.5 14.2 -2.65 14.3 -2.85 14.3 -3.05 14.35 -3.15 14.35 -3.3 14.45 -3.45 14.5 -3.55 14.55 -3.7 14.6 -3.8 14.7 -4.05 14.75 -4.25 14.8 -4.4 14.85 -4.5 14.9 -4.55 14.95 -4.75 15.05 -4.9 15.1 -5.0 15.15 -5.05 15.2 -5.15 15.3 -5.25 15.4 -5.3 15.5 -5.35 15.6 -5.4 15.7 -5.4 15.8 -5.4 15.85 -5.4 15.95 -5.35 16.05 -5.3 16.15 -5.3 16.25 -5.2 16.35 -5.1 16.45 -15.0 16.35 -15.2 16.35 -15.4 16.3 -15.5 16.2 -15.6 16.1 -15.7 16.0 -15.75 15.9 -15.75 15.8 -15.8 15.7 -15.8 15.6 -15.8 15.55 -15.8 15.45 -15.8 15.35 -15.85 15.25 -15.9 15.15 -15.9 15.05 -15.9 14.95 -15.9 14.85 -15.9 14.8 -15.9 14.7 -15.9 14.6 -15.9 14.5 -15.85 14.4 -15.85 14.35 M18.15 11.85 L18.15 11.95 18.2 12.05 18.2 12.15 18.2 12.25 18.2 12.35 18.2 12.45 18.2 12.55 18.2 12.6 18.2 12.7 18.2 12.8 18.15 12.9 18.1 13.0 18.1 13.1 18.0 13.2 17.95 13.3 17.95 13.35 17.9 13.45 17.9 13.55 17.85 13.65 17.8 13.75 17.75 13.85 17.65 13.95 17.55 14.05 17.5 14.1 17.5 14.2 17.45 14.3 17.4 14.4 17.35 14.5 17.35 14.6 17.25 14.7 17.2 14.8 17.1 14.85 17.05 14.95 17.0 15.05 16.95 15.15 16.85 15.25 16.75 15.35 16.6 15.45 16.55 15.55 16.45 15.6 16.35 15.7 16.25 15.8 16.15 15.9 16.1 16.0 16.0 16.1 15.85 16.2 15.6 16.3 15.55 16.35 15.5 16.45 15.45 16.55 15.3 16.65 15.2 16.7 15.0 16.8 14.85 16.85 14.7 16.9 14.6 17.0 14.5 17.1 14.35 17.2 14.1 17.3 13.95 17.35 13.75 17.35 12.25 17.35 12.05 17.35 11.95 17.3 11.65 17.3 11.45 17.25 11.25 17.2 11.1 17.1 9.35 17.05 12.4 17.05 12.6 17.0 12.75 16.95 13.15 16.85 13.35 16.85 13.45 16.8 14.0 16.8 14.2 16.75 14.3 16.7 14.35 16.7 14.45 16.6 14.55 16.55 14.6 16.45 14.7 16.35 14.7 16.25 14.75 16.15 14.75 16.05 14.75 15.95 14.75 15.85 14.75 15.8 14.7 15.7 14.9 15.6 15.1 15.6 15.2 15.55 15.25 15.55 15.35 15.45 15.45 15.35 15.6 15.3 15.8 15.2 15.85 15.2 15.95 15.1 16.05 15.05 16.25 14.95 16.4 14.85 16.5 14.75 16.55 14.65 16.7 14.55 16.75 14.45 16.85 14.35 16.95 14.3 17.1 14.2 17.25 14.1 17.35 14.0 17.4 13.9 17.45 13.8 17.5 13.7 17.55 13.6 17.6 13.55 17.65 13.45 17.7 13.35 17.7 13.25 17.7 13.15 17.7 13.05 17.7 12.95 17.7 12.85 17.7 12.8 17.7 12.7 17.7 12.6 17.7 12.5 17.7 12.4 17.7 12.3 17.7 12.2 17.7 12.1 17.7 12.05 17.7 11.95 17.7 11.85 17.7 11.75 17.7 11.65 17.7 11.55 17.7 11.45 17.65 11.35 17.75 11.4 17.8 11.45 17.9 11.5 18.0 11.6 18.05 11.7 18.1 11.8 18.15 11.85 M-1.35 16.8 L-1.75 16.8 -1.95 16.75 -2.15 16.7 -2.2 16.65 -1.75 16.7 -1.55 16.75 -1.35 16.8 M-3.15 16.55 L-3.85 16.55 -3.9 16.55 -3.8 16.5 -3.7 16.45 -3.6 16.4 -3.4 16.35 -3.25 16.45 -3.15 16.55" fill="#e0b100" fill-rule="evenodd" stroke="none"/>
    <path d="M20.3 7.55 L20.4 7.7 20.45 7.8 20.55 7.95 20.65 8.05 20.75 8.2 20.85 8.25 20.85 8.3 20.8 8.4 20.75 8.5 20.75 8.6 20.75 8.7 20.75 8.8 20.75 8.85 20.75 8.95 20.75 9.05 20.75 9.15 20.75 9.25 20.75 9.35 20.75 9.45 20.75 9.55 20.75 9.6 20.75 9.7 20.75 9.8 20.75 9.9 20.75 10.0 20.75 10.1 20.75 10.2 20.75 10.3 20.75 10.35 20.75 10.45 20.75 10.55 20.75 10.6 20.7 10.7 20.7 10.8 20.65 10.9 20.65 11.0 20.65 11.1 20.65 11.2 20.65 11.3 20.65 11.35 20.65 11.45 20.65 11.55 20.6 11.65 20.6 11.75 20.55 11.85 20.5 11.95 20.5 12.05 20.5 12.1 20.5 12.2 20.5 12.3 20.45 12.4 20.45 12.5 20.45 12.6 20.4 12.7 20.4 12.8 20.4 12.85 20.4 12.95 20.35 13.05 20.3 13.15 20.25 13.25 20.25 13.35 20.25 13.45 20.25 13.55 20.25 13.6 20.25 13.7 20.25 13.8 20.25 13.9 20.25 14.0 20.25 14.1 20.25 14.2 20.25 14.3 20.25 14.35 20.25 14.45 20.25 14.55 20.25 14.65 20.25 14.7 20.2 14.8 20.1 14.9 20.05 15.0 20.0 15.1 19.95 15.2 19.85 15.3 19.85 15.35 19.8 15.45 19.75 15.55 19.7 15.65 19.7 15.75 19.65 15.85 19.6 15.95 19.5 16.05 19.45 16.1 19.4 16.2 19.35 16.3 19.3 16.4 19.25 16.5 19.25 16.6 19.15 16.7 19.1 16.8 19.05 16.85 19.0 16.95 18.95 17.05 18.85 17.15 18.8 17.25 18.75 17.35 18.7 17.45 18.6 17.55 18.55 17.6 18.5 17.7 18.45 17.8 18.35 17.9 18.3 18.0 18.25 18.1 18.2 18.2 18.1 18.3 18.1 18.35 18.0 18.45 17.95 18.55 17.85 18.65 17.85 18.75 17.8 18.85 17.75 18.95 17.7 19.05 17.65 19.1 17.6 19.2 17.5 19.3 17.45 19.4 17.35 19.5 17.35 19.6 17.3 19.7 17.2 19.8 17.15 19.85 17.1 19.95 17.05 20.05 16.95 20.15 16.9 20.25 16.85 20.35 16.75 20.45 16.7 20.55 16.65 20.6 16.6 20.7 16.5 20.8 16.5 20.85 11.25 20.85 11.05 20.85 10.9 20.9 10.75 20.95 10.7 20.95 10.15 21.0 9.95 21.05 9.8 21.05 8.25 21.1 8.05 21.1 7.9 21.15 7.75 21.2 7.7 21.2 -3.75 21.2 -3.9 21.2 -4.0 21.15 -4.15 21.1 -4.35 21.1 -15.25 21.05 -15.4 21.05 -15.6 21.0 -16.3 21.0 -16.35 20.95 -16.4 20.85 -16.45 20.8 -16.5 20.7 -16.55 20.6 -16.6 20.5 -16.7 20.4 -16.75 20.3 -16.8 20.2 -16.85 20.1 -16.9 20.05 -17.0 19.95 -17.05 19.85 -17.1 19.75 -17.2 19.65 -17.25 19.55 -17.3 19.45 -17.35 19.35 -17.4 19.3 -17.45 19.2 -17.5 19.1 -17.5 19.0 -17.55 18.9 -17.65 18.8 -17.75 18.7 -17.8 18.6 -17.85 18.55 -17.9 18.45 -18.0 18.35 -18.05 18.25 -18.1 18.15 -18.15 18.05 -18.2 17.95 -18.25 17.85 -18.3 17.8 -18.4 17.7 -18.5 17.6 -18.5 17.5 -18.55 17.4 -18.65 17.3 -18.7 17.2 -18.75 17.1 -18.8 17.05 -18.9 16.95 -19.0 16.85 -19.0 16.75 -19.05 16.65 -19.15 16.55 -19.2 16.45 -19.25 16.35 -19.3 16.3 -19.4 16.2 -19.45 16.1 -19.5 16.0 -19.55 15.9 -19.55 15.8 -19.65 15.7 -19.65 15.6 -19.75 15.55 -19.8 15.45 -19.85 15.35 -19.9 15.25 -19.95 15.15 -20.0 15.05 -20.05 14.95 -20.1 14.85 -20.15 14.8 -20.25 14.7 -20.3 14.6 -20.3 14.5 -20.25 14.4 -20.25 14.3 -20.25 14.2 -20.25 14.1 -20.25 14.05 -20.25 13.95 -20.25 13.85 -20.25 13.75 -20.25 13.65 -20.25 13.55 -20.25 13.45 -20.25 13.35 -20.25 13.3 -20.25 13.2 -20.25 13.1 -20.25 13.0 -20.25 12.9 -20.25 12.8 -20.25 12.7 -20.25 12.6 -20.25 12.55 -20.25 12.45 -20.25 12.35 -20.25 12.25 -20.25 12.15 -20.25 12.05 -20.25 11.95 -20.25 11.85 -20.25 11.8 -20.25 11.7 -20.25 11.6 -20.25 11.5 -20.25 11.4 -20.25 11.3 -20.25 11.2 -20.25 11.1 -20.25 11.05 -20.25 10.95 -20.25 10.85 -20.25 10.75 -20.25 10.65 -20.25 10.55 -20.25 10.45 -20.25 10.35 -20.3 10.3 -20.3 10.2 -20.35 10.1 -20.35 10.0 -20.35 9.9 -20.35 9.85 -20.25 9.7 -20.2 9.6 -20.15 9.45 -20.1 9.3 -20.05 9.2 -20.05 9.15 -19.95 9.0 -19.9 8.9 -19.9 8.75 -19.85 8.65 -19.8 8.5 -19.75 8.35 -19.7 8.25 -19.7 8.2 -19.5 8.55 Q-18.7 9.0 -18.55 10.1 L-17.85 12.25 -17.55 13.0 -14.6 17.2 -11.2 16.95 0.5 17.15 0.5 17.2 9.3 17.55 Q9.35 17.3 9.95 16.95 L10.25 16.8 11.7 16.55 Q12.2 16.65 12.5 16.9 12.85 16.65 13.55 16.65 L14.35 16.65 14.4 16.45 Q14.85 15.4 15.85 15.4 L16.4 15.5 18.25 11.45 18.85 9.65 19.35 7.7 19.75 6.8 19.85 6.85 19.9 7.0 19.95 7.1 20.05 7.25 20.1 7.3 20.2 7.45 20.3 7.55 M25.05 6.8 L25.0 6.7 25.0 6.6 25.0 6.55 25.05 6.8" fill="#000000" fill-opacity="0.4" fill-rule="evenodd" stroke="none"/>
    <path d="M20.45 7.95 L20.55 8.05 20.65 8.15 20.7 8.25 20.7 8.35 20.75 8.45 20.75 8.5 20.75 8.6 20.75 8.7 20.75 8.8 20.75 8.85 20.75 8.95 20.7 9.1 20.65 9.25 20.65 9.3 20.6 9.35 20.55 9.45 20.5 9.55 20.45 9.55 20.4 9.65 20.3 9.8 20.2 9.9 20.15 10.05 20.1 10.1 20.05 10.25 19.95 10.4 19.95 10.55 19.9 10.7 19.8 10.8 19.7 10.95 19.6 11.1 19.45 11.15 19.4 11.3 19.3 11.45 19.2 11.55 19.2 11.7 19.15 11.85 19.05 12.0 18.95 12.15 18.9 12.2 18.8 12.35 18.7 12.45 18.7 12.6 18.65 12.75 18.55 12.9 18.45 13.05 18.4 13.15 18.3 13.25 18.25 13.35 18.2 13.5 18.2 13.65 18.15 13.8 18.05 13.9 17.95 14.05 17.9 14.2 17.85 14.25 17.8 14.4 17.7 14.55 17.6 14.7 17.55 14.8 17.5 14.95 17.45 15.1 17.4 15.25 17.35 15.3 17.3 15.45 17.25 15.6 17.2 15.7 17.1 15.85 17.05 16.0 17.0 16.15 16.95 16.25 16.9 16.35 16.8 16.5 16.7 16.6 16.55 16.75 16.45 16.9 16.4 17.05 16.35 17.1 16.3 17.15 16.2 17.3 16.1 17.45 16.05 17.5 16.0 17.6 15.95 17.65 15.9 17.7 15.75 17.85 15.7 17.85 15.55 17.95 15.35 18.0 14.85 18.05 14.65 18.15 14.45 18.2 3.1 18.2 2.9 18.15 2.7 18.05 -6.25 18.05 -6.45 18.15 -6.65 18.2 -6.95 18.2 -7.1 18.3 -7.3 18.35 -10.75 18.4 -10.95 18.5 -11.15 18.55 -13.95 18.55 -14.1 18.6 -14.3 18.7 -15.05 18.7 -15.25 18.6 -15.45 18.55 -15.6 18.4 -15.7 18.3 -15.8 18.15 Q-15.9 18.05 -15.95 18.05 L-16.1 17.95 -16.2 17.8 -16.3 17.65 -16.35 17.5 -16.45 17.4 -16.45 17.3 -16.5 17.15 -16.5 17.05 -16.5 16.9 -16.55 16.75 -16.6 16.6 -16.6 16.5 -16.7 16.35 -16.75 16.25 -16.8 16.15 -16.8 16.0 -16.85 15.85 -16.9 15.7 -16.95 15.6 -17.0 15.45 -17.1 15.3 -17.2 15.25 -17.25 15.1 -17.35 14.95 -17.45 14.8 -17.55 14.7 -17.6 14.55 -17.7 14.4 -17.85 14.25 -17.95 14.2 -18.05 14.05 -18.1 13.9 -18.2 13.8 -18.3 13.65 -18.4 13.5 -18.45 13.35 -18.55 13.25 -18.6 13.15 -18.65 13.05 -18.7 12.9 -18.75 12.75 -18.85 12.6 -19.05 12.45 -19.15 12.35 -19.25 12.2 -19.35 12.15 -19.4 12.0 -19.45 11.85 -19.5 11.7 -19.55 11.55 -19.65 11.45 -19.75 11.3 -19.85 11.15 -19.9 11.1 -19.95 10.95 -20.05 10.8 -20.1 10.7 -20.2 10.55 -20.25 10.5 -20.25 10.45 -20.25 10.35 -20.3 10.3 -20.3 10.2 -20.35 10.1 -20.35 10.0 -20.35 9.9 -20.4 9.8 -20.4 9.7 -20.4 9.6 -20.45 9.55 -20.5 9.45 -20.55 9.35 -20.6 9.25 -20.7 9.15 -20.8 9.05 -20.9 8.95 -21.0 8.9 -21.0 8.8 -21.0 8.7 -20.95 8.6 -20.95 8.5 -20.85 8.45 -20.8 8.35 -20.7 8.25 -20.6 8.15 -20.45 8.05 -20.35 7.95 -20.25 7.85 -20.15 7.75 -20.05 7.7 -19.95 7.6 -19.85 7.5 -19.8 7.4 -19.7 7.3 -19.65 7.2 -19.6 7.1 -19.5 7.0 -19.4 6.95 -19.3 6.85 -19.2 6.75 -19.1 6.65 -19.05 6.55 -18.95 6.45 -18.85 6.35 -18.75 6.25 -18.65 6.2 -18.55 6.1 -18.5 6.0 -18.45 5.9 -18.35 5.8 -18.3 5.7 -18.2 5.6 -18.05 5.5 -17.9 5.45 -17.8 5.35 -17.7 5.25 -17.6 5.15 -17.55 5.05 -17.5 4.95 -17.45 4.85 -17.35 4.75 -17.25 4.7 -17.1 4.6 -17.0 4.5 -16.95 4.4 -16.9 4.3 -16.85 4.2 -16.75 4.1 -16.65 4.0 -16.55 3.95 -16.45 3.85 -16.4 3.75 -16.35 3.65 -16.3 3.55 -16.25 3.5 -16.2 3.45 -16.1 3.35 -16.05 3.25 -15.95 3.2 -15.9 3.1 -15.8 3.0 -15.7 2.9 -15.55 2.8 -15.35 2.75 -15.15 2.75 -15.15 2.7 -14.95 2.75 -14.75 2.8 -14.65 2.85 -14.6 2.85 -14.4 2.85 -14.4 2.8 -14.2 2.85 -14.0 2.9 -13.85 3.0 -13.75 3.1 -13.65 3.2 -13.6 3.25 -13.55 3.35 -13.5 3.45 -13.45 3.5 -13.45 3.55 -13.35 3.65 -13.3 3.75 -13.2 3.85 -13.15 3.95 -13.1 4.0 -13.05 4.1 -13.05 4.2 -12.95 4.3 -12.85 4.4 -12.8 4.5 -12.75 4.6 -12.65 4.7 -12.6 4.75 -12.55 4.85 -12.55 4.95 -12.45 5.05 -12.35 5.15 -12.3 5.25 -12.25 5.3 -12.0 5.3 -12.1 5.4 -12.15 5.45 -12.15 5.85 -12.1 5.9 -12.1 6.0 -11.75 6.0 -11.65 6.0 -11.6 6.05 -2.6 6.05 -2.5 6.05 -2.4 6.1 -2.35 6.1 -2.0 6.1 -1.9 6.15 -1.8 6.15 -1.7 6.2 1.75 6.2 1.85 6.2 1.9 6.25 4.1 6.25 4.15 6.2 4.25 6.2 5.25 6.15 5.35 6.15 5.4 6.15 5.5 6.1 5.7 6.1 5.75 6.1 5.8 6.05 5.9 6.05 6.4 6.05 6.5 6.0 6.6 6.0 6.9 6.0 7.0 5.95 7.1 5.95 7.25 5.9 7.35 5.9 7.4 5.9 7.5 5.85 9.4 5.85 9.5 5.8 9.6 5.8 12.55 5.8 12.55 5.45 12.5 5.4 12.5 5.2 12.65 5.2 12.7 5.1 12.75 5.0 12.8 4.9 12.8 4.8 12.85 4.7 12.9 4.6 12.95 4.5 13.0 4.45 13.0 4.35 13.05 4.25 13.05 4.15 13.1 4.05 13.15 3.95 13.2 3.85 13.3 3.75 13.3 3.7 13.35 3.6 13.4 3.5 13.45 3.4 13.5 3.3 13.55 3.2 13.55 3.1 13.65 3.0 13.7 2.95 13.8 2.85 13.9 2.75 14.05 2.65 14.2 2.55 14.3 2.55 14.3 2.45 14.4 2.35 14.5 2.25 14.65 2.2 14.75 2.1 14.9 2.1 15.1 2.1 15.1 2.05 15.3 2.1 15.5 2.15 15.65 2.25 15.75 2.35 15.85 2.45 15.9 2.5 15.95 2.6 15.95 2.7 16.05 2.8 16.15 2.9 16.2 3.0 16.3 3.1 16.35 3.2 16.45 3.25 16.55 3.35 16.65 3.45 16.7 3.55 16.8 3.65 16.9 3.75 17.0 3.85 17.1 3.95 17.2 4.0 17.3 4.1 17.4 4.2 17.45 4.3 17.55 4.4 17.65 4.5 17.75 4.6 17.85 4.7 17.95 4.75 18.05 4.85 18.1 4.95 18.15 5.05 18.2 5.15 18.25 5.25 18.35 5.35 18.45 5.45 18.55 5.5 18.6 5.6 18.65 5.7 18.7 5.8 18.8 5.9 18.9 6.0 18.95 6.1 18.95 6.2 19.0 6.25 19.05 6.35 19.1 6.45 19.15 6.55 19.2 6.65 19.3 6.75 19.35 6.85 19.45 6.95 19.5 7.0 19.55 7.1 19.65 7.2 19.7 7.3 19.85 7.4 19.95 7.5 20.1 7.6 20.2 7.7 20.3 7.75 20.4 7.85 20.45 7.95 M15.25 3.4 L15.2 3.4 15.1 3.35 15.0 3.35 14.9 3.35 14.8 3.4 14.7 3.4 14.65 3.45 14.65 3.5 14.6 3.55 14.55 3.6 14.55 4.2 14.5 4.25 14.5 4.3 14.45 4.35 14.45 4.6 14.4 4.65 14.4 4.75 14.35 4.8 14.35 4.85 14.3 4.9 14.3 4.95 14.25 5.0 14.25 5.05 14.2 5.1 14.15 5.15 14.15 5.25 14.1 5.3 14.1 5.35 14.05 5.4 14.05 5.55 14.0 5.6 14.0 5.65 13.95 5.7 13.95 5.85 13.9 5.9 13.85 5.9 13.75 5.95 13.7 6.0 13.65 6.05 13.55 6.1 13.4 6.15 13.3 6.15 13.3 6.2 13.3 6.45 13.25 6.5 13.25 6.6 13.2 6.65 13.15 6.7 13.15 6.75 13.1 6.8 13.0 6.85 12.9 6.85 12.85 6.9 12.75 6.9 9.8 6.9 9.75 6.9 9.7 6.95 9.6 6.95 7.65 7.0 7.6 7.0 7.5 7.05 7.4 7.05 7.2 7.05 7.15 7.1 7.05 7.1 6.75 7.1 6.7 7.15 6.6 7.15 6.15 7.15 6.1 7.15 6.0 7.2 5.9 7.2 5.75 7.25 5.65 7.25 5.6 7.3 5.5 7.3 4.35 7.3 4.25 7.35 4.15 7.35 1.8 7.35 1.7 7.35 1.65 7.3 -1.95 7.3 -2.05 7.3 -2.15 7.25 -2.25 7.2 -2.5 7.2 -2.6 7.2 -2.65 7.15 -2.7 7.15 -11.7 7.15 -11.8 7.15 -11.85 7.1 -12.1 7.1 -12.2 7.1 -12.3 7.05 -12.4 7.0 -12.45 6.95 -12.6 6.8 -12.6 6.65 -12.65 6.65 -12.65 6.5 -12.6 6.45 -12.9 6.45 -12.95 6.45 -12.95 6.0 -13.0 5.95 -13.0 5.9 -13.05 5.9 -13.05 5.85 -13.1 5.8 -13.1 5.75 -13.15 5.7 -13.15 5.65 -13.2 5.6 -13.25 5.55 -13.25 5.5 -13.3 5.45 -13.35 5.4 -13.35 5.3 -13.4 5.25 -13.5 5.2 -13.5 5.15 -13.55 5.1 -13.55 5.05 -13.6 5.0 -13.85 4.75 -13.85 4.7 -13.9 4.65 -13.95 4.65 -13.95 4.2 -14.0 4.15 -14.0 4.1 -14.2 3.9 -14.3 3.9 -14.4 3.9 -14.5 3.9 -14.6 3.9 -14.7 3.9 -14.75 3.85 -14.85 3.8 -14.95 3.8 -15.05 3.8 -15.1 3.8 -15.15 3.85 -15.2 3.85 -15.35 4.0 -15.35 4.05 -15.4 4.1 -15.4 4.45 -15.45 4.45 -15.55 4.5 -15.6 4.55 -15.65 4.6 -15.7 4.65 -15.75 4.65 -15.8 4.7 -15.85 4.75 -16.0 4.9 -16.1 4.95 -16.6 5.45 -16.7 5.5 -16.85 5.65 -16.85 5.7 -17.1 5.95 -17.1 6.05 -17.15 6.1 -17.2 6.15 -17.25 6.15 -17.3 6.2 -17.35 6.25 -17.35 6.35 -17.4 6.4 -17.45 6.45 -17.45 6.5 -17.5 6.55 -17.55 6.6 -17.6 6.65 -17.85 6.9 -17.85 6.95 -18.05 7.15 -18.1 7.2 -18.1 7.25 -18.25 7.4 -18.25 7.45 -18.3 7.5 -18.35 7.55 -18.4 7.6 -18.45 7.65 -18.5 7.65 -18.55 7.7 -18.6 7.75 -18.6 7.8 -18.65 7.85 -18.7 7.9 -18.7 7.95 -19.1 8.35 -19.1 8.4 -19.15 8.45 -19.15 8.5 -19.2 8.55 -19.2 9.0 -19.15 9.1 -19.1 9.15 -19.1 9.25 -19.05 9.3 -19.05 9.55 -19.0 9.65 -18.85 9.85 -18.8 9.9 -18.8 10.0 -18.75 10.05 -18.75 10.1 -18.6 10.35 -18.6 10.4 -18.55 10.45 -18.55 10.55 -18.5 10.6 -18.45 10.7 -18.35 10.7 -18.35 10.8 -18.1 11.15 -18.1 11.25 -18.05 11.3 -17.9 11.5 -17.9 11.55 -17.85 11.65 -17.85 11.7 -17.8 11.7 -17.75 11.8 -17.75 11.85 -17.6 12.05 -17.6 12.15 -17.55 12.2 -17.5 12.25 -17.3 12.55 -17.3 12.6 -17.25 12.7 -17.2 12.75 -17.1 12.75 -17.1 12.8 -16.85 13.15 -16.8 13.25 -16.75 13.3 -16.55 13.6 -16.55 13.65 -16.5 13.7 -16.45 13.8 -16.35 13.8 -16.25 13.85 -16.25 13.9 -16.2 14.0 -16.1 14.05 -16.1 14.15 -16.05 14.15 -16.05 14.2 -16.0 14.25 -16.0 14.35 -15.85 14.55 -15.8 14.6 -15.8 14.7 -15.75 14.75 -15.7 14.8 -15.7 14.9 -15.65 14.95 -15.6 15.05 -15.6 15.15 -15.55 15.15 -15.55 15.25 -15.5 15.3 -15.5 15.4 -15.4 15.5 -15.35 15.6 -15.35 15.65 -15.3 15.7 -15.3 15.8 -15.25 15.85 -15.05 16.15 -15.0 16.2 -14.95 16.2 -14.85 16.25 -14.85 16.4 -14.8 16.5 -14.8 16.55 -14.75 16.55 -14.7 16.6 -14.6 16.7 -14.5 16.75 -14.4 16.75 -11.2 16.85 -11.1 16.85 -11.0 16.9 -10.6 16.9 -10.55 16.9 -10.45 16.95 -10.35 16.95 -6.4 16.95 -6.3 16.95 -6.25 16.95 -6.2 16.9 -5.65 16.9 -5.55 16.85 -5.45 16.85 -4.75 16.75 -4.65 16.75 -4.6 16.75 -4.4 16.7 -4.3 16.7 -4.25 16.7 -3.6 16.6 -3.5 16.6 -3.4 16.6 -3.35 16.55 -2.25 16.55 -2.15 16.5 -2.05 16.5 -1.95 16.4 -1.85 16.4 -1.8 16.4 0.55 16.35 0.65 16.35 0.7 16.35 4.15 16.35 5.1 16.35 5.25 16.35 5.3 16.35 5.4 16.35 7.65 16.35 7.75 16.35 7.85 16.35 8.25 16.25 8.35 16.25 8.4 16.25 8.55 16.25 8.65 16.25 8.7 16.25 8.75 16.2 8.8 16.2 12.65 16.2 12.7 16.2 12.8 16.25 12.9 16.25 13.15 16.35 13.25 16.35 13.35 16.35 14.05 16.35 14.15 16.35 14.2 16.35 14.5 16.25 14.6 16.25 14.7 16.2 14.75 16.2 14.85 16.15 14.9 16.05 14.9 16.0 14.95 16.0 15.0 15.95 15.1 15.95 15.15 15.95 15.2 15.85 15.3 15.8 15.35 15.7 15.4 15.7 15.45 15.65 15.5 15.65 15.65 15.45 15.75 15.4 15.8 15.3 15.9 15.25 15.95 15.15 15.95 15.1 16.0 15.05 16.1 14.95 16.15 14.9 16.15 14.8 16.2 14.8 16.25 14.75 16.3 14.7 16.3 14.6 16.35 14.55 16.35 14.5 16.5 14.25 16.5 14.2 16.55 14.15 16.65 14.0 16.65 13.9 16.7 13.85 16.7 13.8 16.75 13.8 16.75 13.6 16.9 13.35 16.95 13.3 16.95 13.25 17.0 13.15 17.0 13.1 17.15 12.9 17.15 12.75 17.2 12.75 17.25 12.7 17.3 12.6 17.35 12.55 17.4 12.45 17.4 12.35 17.5 12.2 17.5 12.15 17.55 12.05 17.65 11.9 17.65 11.8 17.7 11.7 17.75 11.65 17.8 11.55 17.8 11.5 17.85 11.45 17.85 11.35 18.0 11.15 18.0 11.1 18.05 11.0 18.15 10.9 18.15 10.75 18.2 10.7 18.25 10.7 18.35 10.6 18.4 10.55 18.4 10.4 18.45 10.35 18.45 10.2 18.5 10.1 18.65 9.9 18.65 9.8 18.7 9.7 18.7 9.65 18.75 9.55 18.8 9.5 18.8 9.45 18.85 9.35 18.85 9.25 18.9 9.15 18.9 8.5 18.85 8.45 18.85 8.35 18.8 8.3 18.8 8.0 18.75 7.95 18.75 7.9 18.7 7.9 18.65 7.85 18.65 7.75 18.6 7.7 18.6 7.65 18.55 7.6 18.5 7.55 18.5 7.5 18.45 7.45 18.45 7.4 18.4 7.35 18.4 7.3 18.35 7.25 18.3 7.2 18.25 7.15 18.2 7.15 18.2 7.1 18.15 7.05 18.15 7.0 18.05 6.9 18.0 6.85 18.0 6.8 17.95 6.75 17.9 6.7 17.9 6.65 17.7 6.45 17.7 6.4 17.65 6.4 17.65 6.35 17.55 6.25 17.45 6.2 17.4 6.15 17.4 6.1 17.35 6.05 17.25 5.95 17.25 5.9 17.2 5.85 17.1 5.75 17.05 5.7 17.0 5.65 16.95 5.65 16.9 5.6 16.85 5.55 16.8 5.5 16.7 5.45 16.65 5.4 16.65 5.35 16.6 5.3 16.4 5.1 16.4 5.0 16.35 4.95 16.25 4.9 16.2 4.9 16.2 4.85 16.15 4.8 16.15 4.75 16.1 4.7 16.1 4.65 16.05 4.6 16.05 4.35 16.0 4.3 16.0 4.25 15.9 4.15 15.85 4.15 15.85 4.1 15.9 4.05 15.9 3.95 15.85 3.9 15.85 3.8 15.8 3.75 15.8 3.7 15.75 3.65 15.65 3.65 15.6 3.6 15.5 3.55 15.4 3.55 15.4 3.5 15.35 3.45 15.25 3.4" fill="#000000" fill-rule="evenodd" stroke="none"/>
    <path d="M13.1 9.1 L13.25 9.15 13.4 9.25 13.55 9.35 13.7 9.45 13.75 9.55 13.85 9.6 13.9 9.7 13.95 9.8 14.0 9.9 14.25 9.95 14.45 10.05 14.4 10.05 14.3 10.15 14.2 10.25 14.15 10.35 14.1 10.45 14.0 10.55 13.95 10.6 13.85 10.7 13.75 10.8 13.7 10.9 13.6 11.0 13.5 11.1 13.35 11.2 13.3 11.3 13.2 11.35 13.1 11.45 13.0 11.55 12.95 11.65 12.85 11.75 12.85 11.85 12.75 11.95 12.7 12.05 12.65 12.1 12.6 12.2 12.5 12.3 12.45 12.4 12.35 12.5 12.35 12.6 12.3 12.7 12.25 12.8 12.25 12.85 12.2 12.95 12.2 13.05 12.1 13.15 12.1 13.25 12.05 13.35 12.0 13.45 12.0 13.55 11.95 13.6 11.9 13.7 11.85 13.8 11.85 13.85 11.8 13.85 11.7 13.95 11.5 14.0 11.4 14.05 11.05 14.05 9.75 14.05 9.45 14.05 9.25 14.0 -8.55 13.95 -8.75 13.9 -8.9 13.85 -9.1 13.85 -9.5 13.8 -9.65 13.8 -9.85 13.75 -10.25 13.75 -10.25 13.8 -10.45 13.8 -10.55 13.8 -10.6 13.75 -10.7 13.65 -10.8 13.55 -10.9 13.45 -10.95 13.35 -11.0 13.3 -11.05 13.2 -11.1 13.1 -11.15 13.0 -11.25 12.9 -11.3 12.8 -11.4 12.7 -11.45 12.6 -11.5 12.55 -11.55 12.45 -11.6 12.35 -11.7 12.25 -11.8 12.15 -11.9 12.05 -11.95 11.95 -12.0 11.85 -12.05 11.8 -12.15 11.7 -12.25 11.6 -12.3 11.5 -12.4 11.4 -12.5 11.3 -12.6 11.2 -12.7 11.1 -12.75 11.05 -12.8 10.95 -12.85 10.85 -12.9 10.75 -13.0 10.65 -13.05 10.55 -13.1 10.45 -13.15 10.35 -13.15 10.3 -13.2 10.25 -13.3 10.15 -13.3 10.05 -13.35 9.95 -13.4 9.85 -13.4 9.8 -13.4 9.7 -13.4 9.6 -13.35 9.5 -13.3 9.4 -13.25 9.3 -13.15 9.2 -13.05 9.1 -13.0 9.05 -12.9 9.05 -12.8 9.0 -12.6 8.95 -12.4 8.9 -12.2 8.85 -12.0 8.85 -12.0 8.8 8.65 8.8 8.85 8.85 9.0 8.9 10.25 8.95 10.45 9.0 10.55 9.05 12.9 9.05 13.1 9.1 M-9.35 13.0 L-9.35 13.05 -9.25 13.15 -9.15 13.2 -9.15 13.15 -9.1 13.15 -9.15 13.1 -9.25 13.05 -9.3 13.0 -9.35 13.0" fill="#000000" fill-rule="evenodd" stroke="none"/>
  </g>
</svg>
