<?xml version="1.0" encoding="UTF-8" standalone="no"?>
<svg xmlns:ffdec="https://www.free-decompiler.com/flash" xmlns:xlink="http://www.w3.org/1999/xlink" ffdec:objectType="shape" height="6.25px" width="25.9px" xmlns="http://www.w3.org/2000/svg">
  <g transform="matrix(1.0, 0.0, 0.0, 1.0, 13.1, 3.3)">
    <path d="M2.4 -0.7 Q2.7 -1.75 3.05 -1.75 L3.35 -1.65 3.65 -2.1 Q3.95 -2.4 4.2 -1.75 L4.2 -0.9 Q4.65 -0.9 4.7 -0.6 L4.95 -0.7 5.35 -0.6 5.75 -0.75 6.25 -0.05 6.3 0.15 6.75 -1.25 7.5 -1.15 7.55 -0.7 8.0 -0.7 8.0 -1.05 Q8.05 -1.3 8.5 -1.3 L8.9 -0.85 8.9 -0.9 9.85 -1.7 10.5 -2.5 Q11.05 -3.3 11.45 -2.6 L11.65 -2.75 Q12.8 -3.75 12.8 -3.0 L10.35 0.25 9.9 1.0 9.85 1.0 9.75 1.0 9.65 1.05 9.55 1.05 9.45 1.1 9.35 1.15 9.25 1.2 9.2 1.25 9.2 1.3 9.15 1.3 9.05 1.35 9.05 1.4 9.0 1.45 8.95 1.5 8.9 1.5 8.85 1.55 8.8 1.6 8.75 1.65 8.7 1.7 8.65 1.75 8.6 1.8 8.55 1.8 8.5 1.85 8.45 1.9 8.45 1.95 8.15 2.0 8.0 2.35 7.6 2.5 7.2 2.35 7.1 2.2 7.05 2.35 6.95 2.6 Q6.85 2.8 6.45 2.8 L6.05 2.7 5.65 2.9 5.2 2.6 4.9 2.95 4.55 2.95 4.35 2.8 4.2 2.95 3.25 2.95 3.25 2.9 3.25 2.35 3.25 2.3 3.2 2.35 3.0 2.8 3.0 2.95 1.4 2.95 1.4 2.7 1.0 2.8 Q0.75 2.8 0.65 2.65 L0.35 2.9 -0.15 2.75 -0.55 2.9 -1.1 2.55 -1.05 2.45 -1.85 2.6 -2.5 2.6 -2.7 2.6 -2.95 2.55 -3.5 2.45 -3.55 2.35 -3.7 2.2 -3.8 2.35 -3.95 2.55 Q-4.25 2.85 -4.55 2.85 L-5.15 2.6 -5.25 2.5 -5.35 2.5 -5.45 2.5 -5.55 2.7 -5.85 2.95 -6.3 2.95 -6.6 2.7 -6.7 2.35 -6.8 2.25 -6.85 2.35 -7.0 2.75 -7.15 2.95 -8.0 2.95 -8.1 2.65 -8.15 2.6 -8.25 2.8 -8.3 2.8 -8.3 2.75 -8.35 2.7 -8.4 2.65 -8.45 2.65 -8.45 2.6 -8.5 2.55 -8.55 2.5 -8.6 2.5 -8.6 2.45 -8.65 2.4 -8.7 2.35 -8.75 2.35 -8.75 2.3 -8.8 2.25 -8.85 2.2 -8.9 2.2 -8.9 2.15 -8.95 2.1 -9.0 2.05 -9.05 2.05 -9.05 2.0 -9.15 1.95 -9.2 1.9 -9.25 1.9 -9.3 1.85 -9.35 1.8 -9.4 1.75 -9.45 1.75 -9.5 1.7 -9.5 1.65 -9.55 1.6 -9.6 1.6 -9.7 1.5 -9.6 1.35 -9.7 1.35 -10.0 1.25 -10.1 1.2 -10.1 1.15 -10.15 1.1 -10.4 0.8 -10.9 -0.05 -11.75 -1.15 -12.45 -1.8 -13.1 -2.6 Q-13.1 -2.85 -12.7 -2.8 L-12.15 -2.55 -11.3 -2.0 -9.7 -0.85 -9.3 -1.0 -8.85 -0.8 -9.05 -1.6 -8.4 -1.9 Q-7.85 -1.9 -7.05 -0.25 L-6.9 -0.45 -6.5 -0.45 -6.55 -0.85 -6.2 -1.15 -5.85 -1.05 -5.75 -1.0 -5.4 -1.1 -4.75 -0.65 -4.5 -0.2 -4.35 -0.35 -4.05 -0.45 -3.5 -0.2 -3.65 -0.55 -3.35 -0.8 -2.9 -0.65 -2.7 -0.45 -2.6 -0.95 -2.8 -1.9 -3.05 -2.75 Q-3.05 -3.25 -2.7 -3.15 L-1.9 -2.45 -1.1 -1.2 -1.0 -1.15 -0.9 -1.6 -0.2 -1.75 Q-0.25 -2.3 0.25 -2.3 0.75 -2.3 0.9 -1.45 L0.9 -0.75 1.2 -0.9 1.5 -0.8 1.65 -0.9 1.95 -1.0 2.25 -0.9 2.4 -0.7 M0.05 0.4 L0.0 0.7 0.25 0.7 0.25 0.5 0.25 0.4 0.05 0.4 M-1.15 2.05 L-1.1 2.1 -1.15 2.0 -1.15 2.05" fill="#ffffff" fill-rule="evenodd" stroke="none"/>
  </g>
</svg>
