<?xml version="1.0" encoding="UTF-8" standalone="no"?>
<svg xmlns:ffdec="https://www.free-decompiler.com/flash" xmlns:xlink="http://www.w3.org/1999/xlink" ffdec:objectType="shape" height="28.0px" width="229.7px" xmlns="http://www.w3.org/2000/svg">
  <g transform="matrix(1.0, 0.0, 0.0, 1.0, 114.85, 14.0)">
    <path d="M89.95 -6.7 Q94.8 -6.6 96.45 -4.2 98.1 -1.85 98.0 1.55 L98.0 5.7 87.3 5.7 87.3 6.3 Q87.05 9.4 90.9 9.15 94.0 9.1 96.95 8.3 L97.8 12.7 Q94.8 13.85 90.3 14.0 81.05 13.6 81.45 5.9 L81.45 1.25 Q81.35 -2.05 83.2 -4.35 85.1 -6.65 89.95 -6.7 M87.3 0.45 L87.3 1.3 92.45 1.3 92.45 0.45 Q92.75 -1.9 90.0 -2.1 87.1 -1.9 87.3 0.45 M101.2 8.45 Q103.75 9.25 107.2 9.35 109.5 9.4 109.25 7.65 109.35 6.75 108.8 6.35 108.3 5.95 106.0 5.45 102.5 4.6 101.6 3.3 100.6 1.95 100.75 -0.75 100.65 -3.9 102.3 -5.3 103.9 -6.75 108.35 -6.7 L111.25 -6.55 114.4 -6.05 113.85 -1.5 108.4 -2.05 Q106.05 -2.05 106.25 -0.7 106.2 0.15 106.65 0.5 L108.8 1.2 Q112.9 2.05 113.95 3.4 115.0 4.75 114.85 7.65 114.9 10.75 113.3 12.35 111.65 13.95 107.45 14.0 L103.8 13.65 100.25 12.8 101.2 8.45 M19.25 -8.45 Q15.0 -8.2 15.4 -4.75 L15.4 4.6 Q15.0 8.15 19.25 8.5 L22.85 8.25 22.85 4.65 19.65 4.9 19.5 -0.1 22.7 -0.5 28.6 -0.1 28.6 12.7 Q24.05 13.95 19.25 14.0 9.3 13.55 9.25 5.7 L9.25 -5.65 Q9.3 -13.65 19.25 -14.0 L27.95 -13.15 27.2 -7.8 23.05 -8.25 19.25 -8.45 M38.75 -6.7 Q43.75 -6.8 45.55 -5.0 47.25 -3.25 47.15 0.9 L47.15 13.55 42.3 13.55 41.9 12.3 Q38.35 14.1 36.25 14.0 30.9 13.5 31.05 7.95 30.95 2.15 37.0 2.35 L41.3 2.35 41.3 0.85 Q41.35 -0.7 40.7 -1.3 40.0 -1.95 37.75 -1.9 L32.35 -1.3 31.6 -5.7 Q34.85 -6.65 38.75 -6.7 M36.7 7.85 Q36.6 9.45 38.3 9.4 40.0 9.35 41.3 8.75 L41.3 6.45 38.45 6.45 Q36.6 6.3 36.7 7.85 M55.0 -4.8 Q59.05 -6.65 62.9 -6.7 65.5 -6.7 66.55 -4.8 70.15 -6.6 74.5 -6.7 79.3 -6.45 79.05 -0.35 L79.05 13.55 73.2 13.55 73.2 0.45 Q73.2 -1.0 71.75 -1.0 69.75 -0.8 67.5 0.45 L67.5 13.55 61.6 13.55 61.6 0.45 Q61.65 -1.0 60.15 -1.0 58.15 -0.8 55.9 0.45 L55.9 13.55 50.0 13.55 50.0 -6.3 54.4 -6.3 55.0 -4.8" fill="url(#gradient0)" fill-rule="evenodd" stroke="none"/>
    <path d="M-74.5 -7.25 L-74.95 -1.9 -78.25 -0.6 Q-80.1 0.25 -81.15 1.25 L-81.15 13.35 -87.05 13.35 -87.05 -6.5 -82.15 -6.5 -81.75 -4.55 -78.45 -6.15 Q-76.2 -7.1 -74.5 -7.25 M-67.95 -6.5 L-67.35 -5.0 Q-63.3 -6.85 -59.4 -6.9 -56.85 -6.9 -55.8 -5.0 -52.2 -6.8 -47.85 -6.9 -43.05 -6.65 -43.25 -0.55 L-43.25 13.35 -49.15 13.35 -49.15 0.25 Q-49.1 -1.2 -50.6 -1.2 -52.6 -1.0 -54.85 0.25 L-54.85 13.35 -60.75 13.35 -60.75 0.25 Q-60.7 -1.2 -62.2 -1.2 -64.15 -1.0 -66.45 0.25 L-66.45 13.35 -72.35 13.35 -72.35 -6.5 -67.95 -6.5 M-40.9 1.15 Q-41.05 -2.05 -39.05 -4.45 -37.1 -6.8 -31.95 -6.9 -26.75 -6.8 -24.75 -4.45 -22.85 -2.05 -22.95 1.15 L-22.95 5.75 Q-22.85 8.9 -24.75 11.3 -26.75 13.65 -31.95 13.8 -37.15 13.65 -39.05 11.3 -41.05 8.9 -40.9 5.75 L-40.9 1.15 M-31.95 8.85 Q-28.8 8.75 -28.8 5.9 L-28.8 0.95 Q-28.8 -1.9 -31.95 -2.0 -35.1 -1.9 -35.0 0.95 L-35.0 5.9 Q-35.1 8.75 -31.95 8.85 M-15.75 -4.55 Q-14.7 -5.25 -12.45 -6.15 -10.2 -7.1 -8.55 -7.25 L-9.0 -1.9 -12.3 -0.6 Q-14.15 0.25 -15.2 1.25 L-15.2 13.35 -21.1 13.35 -21.1 -6.5 -16.2 -6.5 -15.75 -4.55 M-102.5 -8.4 L-105.65 2.95 -99.4 2.95 -102.5 -8.4 M-107.0 8.05 L-108.5 13.35 -114.85 13.35 -106.55 -13.8 -98.4 -13.8 -90.1 13.35 -96.45 13.35 -97.95 8.05 -107.0 8.05" fill="url(#gradient1)" fill-rule="evenodd" stroke="none"/>
  </g>
  <defs>
    <linearGradient gradientTransform="matrix(0.0, 0.0172, -1.0, 0.0, 159.65, 0.0)" gradientUnits="userSpaceOnUse" id="gradient0" spreadMethod="pad" x1="-819.2" x2="819.2">
      <stop offset="0.0" stop-color="#ffffff"/>
      <stop offset="1.0" stop-color="#bbbbbb"/>
    </linearGradient>
    <linearGradient gradientTransform="matrix(0.0, 0.0172, -1.0, 0.0, 152.25, -0.2)" gradientUnits="userSpaceOnUse" id="gradient1" spreadMethod="pad" x1="-819.2" x2="819.2">
      <stop offset="0.0" stop-color="#ffffff"/>
      <stop offset="1.0" stop-color="#bbbbbb"/>
    </linearGradient>
  </defs>
</svg>
