<?xml version="1.0" encoding="UTF-8" standalone="no"?>
<svg xmlns:ffdec="https://www.free-decompiler.com/flash" xmlns:xlink="http://www.w3.org/1999/xlink" ffdec:objectType="shape" height="140.55px" width="343.9px" xmlns="http://www.w3.org/2000/svg">
  <g transform="matrix(1.0, 0.0, 0.0, 1.0, 242.85, 121.1)">
    <path d="M-206.8 -75.6 Q-203.3 -81.85 -187.6 -91.8 -164.45 -105.25 -158.5 -109.55 -139.95 -122.95 -125.0 -115.85 L-124.25 -115.5 Q-122.1 -116.5 -119.9 -117.0 -110.7 -119.15 -99.25 -114.15 L-93.9 -111.05 Q-81.7 -111.2 -69.75 -109.5 -56.3 -107.6 -48.2 -103.95 L-46.0 -102.9 Q-40.05 -101.4 -35.4 -98.9 -28.15 -95.0 -28.15 -90.8 -28.15 -87.95 -30.25 -85.95 -32.65 -83.65 -36.55 -83.65 -47.2 -83.65 -61.05 -88.55 -64.0 -89.6 -66.3 -90.55 L-77.4 -92.7 -78.25 -92.85 Q-78.55 -90.6 -79.75 -89.55 -81.05 -88.35 -84.5 -87.95 L-87.45 -87.65 Q-87.7 -83.7 -89.35 -82.35 -90.7 -81.2 -94.9 -81.05 L-103.75 -79.9 Q-109.75 -78.2 -115.4 -73.45 -120.9 -68.85 -123.85 -63.4 L-128.85 -52.55 Q-134.85 -39.7 -140.4 -32.25 -153.9 -14.2 -169.45 -14.2 -185.15 -14.2 -192.7 -19.3 -198.55 -23.2 -198.55 -29.05 -198.55 -30.6 -198.1 -32.0 -208.95 -43.75 -213.85 -43.75 -220.55 -43.75 -230.0 -50.3 -238.3 -56.1 -238.3 -57.65 -238.3 -62.7 -231.45 -66.65 -224.9 -70.45 -217.55 -70.45 -217.0 -70.45 -208.9 -74.55 L-206.8 -75.6" fill="#00b3ff" fill-rule="evenodd" stroke="none"/>
    <path d="M79.3 -74.15 Q83.2 -73.6 83.2 -64.7 83.2 -62.6 76.55 -53.25 69.65 -43.45 67.05 -43.45 61.8 -43.45 59.5 -47.6 58.15 -50.0 58.15 -52.45 58.15 -53.95 62.05 -59.5 66.3 -65.5 70.7 -69.6 76.1 -74.6 79.3 -74.15 M6.4 -31.45 Q6.4 -29.15 1.3 -22.45 -4.65 -14.7 -9.6 -14.7 -15.0 -14.7 -17.3 -19.0 -18.45 -21.15 -18.5 -23.5 -18.5 -25.65 -17.95 -26.9 -17.3 -28.3 -15.4 -30.0 L-15.2 -30.5 Q-38.25 -36.1 -47.9 -46.5 -55.45 -54.55 -55.45 -66.5 -55.45 -67.5 -54.3 -71.7 -53.2 -75.9 -53.2 -76.55 -53.2 -77.75 -54.3 -80.35 -55.45 -83.0 -55.45 -84.15 -55.45 -90.25 -49.1 -94.45 -43.45 -98.15 -35.05 -99.15 -26.9 -100.15 -21.05 -97.95 -14.7 -95.6 -14.7 -90.45 -14.7 -88.35 -16.3 -86.6 L-20.1 -83.1 Q-26.5 -77.3 -29.3 -67.55 -20.8 -67.35 -7.05 -52.95 -1.25 -46.9 2.45 -41.05 6.4 -34.9 6.4 -31.45 M-164.7 -89.15 Q-164.7 -85.25 -168.5 -77.65 -171.05 -72.65 -173.8 -70.35 L-170.35 -63.25 Q-167.2 -56.85 -165.85 -53.2 L-164.7 -50.55 Q-161.75 -48.5 -159.3 -45.7 -155.4 -41.15 -155.4 -37.25 -155.4 -34.5 -160.3 -28.15 -163.1 -24.55 -166.0 -22.55 -172.15 -15.65 -176.3 -15.65 -183.4 -15.65 -189.0 -21.05 -193.4 -25.3 -193.4 -27.65 -193.4 -30.0 -192.65 -31.45 -191.3 -34.0 -187.35 -35.15 -190.65 -38.45 -199.5 -54.4 -208.25 -70.15 -208.25 -72.3 -208.25 -76.55 -199.65 -83.45 -191.0 -90.35 -185.1 -90.7 L-183.0 -90.2 Q-179.7 -97.1 -174.05 -97.1 -168.15 -97.1 -165.9 -93.65 -164.7 -91.8 -164.7 -89.15 M-136.05 -108.8 Q-130.55 -113.35 -123.95 -116.35 -116.5 -119.8 -111.9 -119.15 -106.4 -118.35 -106.4 -111.7 -111.7 -96.3 -111.7 -90.25 -111.7 -89.55 -108.55 -85.35 -105.45 -81.1 -105.45 -79.4 -105.45 -76.55 -107.1 -74.2 -109.15 -71.25 -112.9 -71.25 -118.3 -71.25 -124.6 -73.55 -130.9 -75.85 -132.75 -75.85 -137.45 -75.85 -139.5 -79.3 -140.7 -81.25 -140.7 -83.1 -140.7 -83.8 -139.25 -85.95 -137.85 -88.1 -137.85 -89.05 -137.85 -90.2 -138.65 -92.5 -139.5 -94.75 -139.5 -95.95 -139.5 -97.1 -140.5 -98.9 -141.55 -100.65 -141.55 -101.85 -141.55 -104.25 -136.05 -108.8 M-92.9 -37.8 Q-87.95 -40.1 -79.5 -33.65 -72.7 -28.45 -66.15 -19.75 -60.05 -11.7 -60.05 -9.0 -60.05 -6.15 -62.15 -4.05 -64.45 -1.75 -68.0 -1.75 L-78.15 -3.15 -88.8 -4.6 Q-92.65 -4.6 -96.15 -11.5 -99.0 -17.05 -99.0 -19.2 -99.0 -35.0 -92.9 -37.8" fill="#8adcff" fill-rule="evenodd" stroke="none"/>
    <path d="M33.75 -86.8 Q32.75 -88.9 31.15 -90.0 -4.8 -114.8 -46.95 -92.85 -62.6 -90.05 -73.25 -76.0 -98.8 -42.2 -97.95 -1.05 L-94.0 -0.2 -94.15 0.85 Q-84.6 -2.15 -74.7 -4.15 -42.65 -10.3 -11.3 -19.3 39.45 -34.05 33.75 -86.8 M43.35 -81.65 Q43.9 -70.3 48.05 -60.15 57.35 -37.45 80.75 -43.95 L88.55 -51.4 Q87.6 -51.8 86.85 -52.4 69.15 -66.05 62.4 -88.1 L55.95 -92.0 43.35 -81.65 M40.5 -92.35 Q46.7 -89.9 51.45 -95.7 57.1 -102.65 63.1 -96.55 77.2 -82.35 88.1 -65.3 L96.95 -56.0 100.8 -55.75 Q102.6 -44.2 91.9 -39.1 77.65 -32.35 62.45 -36.3 49.3 -39.6 42.35 -50.95 L41.65 -48.6 37.7 -48.6 Q25.2 -23.55 -1.5 -12.75 -26.8 -2.6 -54.3 -0.3 -84.25 1.75 -108.35 19.45 -110.15 18.7 -110.1 16.95 -109.4 -2.6 -105.65 -22.6 -97.3 -67.45 -57.55 -93.45 -16.4 -120.35 28.05 -102.75 L38.15 -92.6 40.5 -92.35" fill="#000000" fill-rule="evenodd" stroke="none"/>
    <path d="M-170.8 -106.85 L-167.75 -109.65 -165.75 -109.25 -163.9 -109.7 -162.8 -110.45 -162.05 -111.1 -161.8 -111.75 -161.35 -112.5 -160.95 -113.2 -160.9 -113.25 -160.45 -113.65 -158.85 -114.15 -157.9 -114.6 -156.95 -115.25 -156.5 -115.95 -156.1 -116.65 -155.8 -117.35 Q-150.75 -119.3 -145.35 -120.15 L-139.15 -121.1 Q-118.1 -121.1 -97.3 -118.1 -84.75 -116.25 -72.3 -113.7 L-69.45 -112.95 Q-68.9 -112.6 -68.25 -112.35 L-64.85 -111.0 -64.1 -110.75 -62.05 -110.2 -60.65 -109.95 -59.95 -109.55 -56.55 -108.25 Q-51.75 -106.45 -46.55 -105.9 L-44.45 -105.5 -42.85 -105.1 -40.75 -104.6 -40.3 -104.35 Q-39.25 -103.8 -38.15 -103.4 L-38.1 -103.35 -38.8 -102.55 Q-40.2 -101.25 -42.5 -101.25 -46.85 -101.25 -80.15 -108.4 -113.5 -115.6 -125.15 -115.6 -140.9 -115.6 -157.65 -106.7 -168.0 -101.2 -186.55 -87.1 -205.5 -72.65 -214.9 -67.5 -224.55 -62.2 -233.65 -60.05 -229.05 -58.45 -223.75 -54.8 -218.2 -50.95 -206.35 -40.3 -194.8 -29.9 -188.7 -25.85 -178.9 -19.3 -171.0 -19.3 -154.35 -19.3 -141.65 -38.4 -138.55 -43.1 -133.1 -53.35 -128.7 -61.7 -126.6 -63.95 L-116.35 -75.0 Q-109.55 -81.55 -101.15 -86.15 -85.55 -94.75 -70.25 -97.05 -53.2 -99.55 -53.2 -90.55 -53.2 -88.6 -54.4 -87.1 -55.7 -85.45 -57.8 -85.45 -58.9 -85.45 -60.85 -86.75 L-62.95 -88.05 Q-81.55 -88.05 -95.75 -79.25 L-97.25 -79.6 -97.25 -79.5 -99.35 -79.15 Q-107.0 -74.35 -113.4 -68.0 L-125.25 -56.25 -125.65 -55.5 -126.0 -54.85 -126.35 -54.15 -126.65 -53.45 -126.8 -52.75 -127.0 -52.1 -127.35 -51.35 -128.05 -50.7 -128.75 -50.0 -129.15 -49.25 -129.45 -48.6 -129.9 -47.9 -131.25 -46.5 -131.9 -45.75 -132.2 -45.1 -132.35 -44.4 -132.55 -43.75 -132.9 -43.05 -133.6 -42.35 -134.0 -41.65 -134.35 -41.0 -134.75 -40.25 -135.4 -39.55 -136.55 -38.15 -137.0 -37.45 -137.3 -36.8 -137.95 -36.1 -139.2 -34.05 -139.85 -32.65 -140.3 -31.95 -141.0 -31.25 -141.4 -30.5 -141.75 -29.85 -142.15 -29.15 -142.85 -28.45 -147.0 -24.3 -149.1 -22.2 -149.25 -21.9 -157.2 -16.9 Q-159.4 -16.4 -161.35 -15.2 -164.4 -13.4 -167.85 -12.5 -175.3 -10.95 -181.5 -14.8 L-182.25 -15.45 -183.35 -16.2 -185.2 -16.65 -186.5 -16.4 Q-189.9 -18.55 -192.95 -21.2 -198.2 -25.75 -203.05 -30.75 L-203.3 -31.45 -203.7 -32.15 -204.2 -32.85 -205.15 -33.5 -206.5 -34.25 -207.95 -35.6 -210.0 -37.7 Q-211.2 -39.15 -213.0 -39.8 L-213.7 -40.45 -214.85 -41.15 -216.2 -41.9 -216.7 -42.55 -217.4 -43.2 -218.55 -43.95 Q-219.7 -44.3 -220.7 -44.95 L-229.0 -49.85 Q-234.35 -52.85 -239.85 -55.55 L-240.55 -56.25 Q-241.6 -57.3 -242.85 -58.15 L-242.45 -59.5 -240.55 -66.7 Q-235.05 -66.1 -229.65 -68.05 L-225.1 -70.9 -223.15 -72.2 -222.4 -73.55 -221.85 -74.3 -217.6 -75.9 Q-212.4 -77.9 -208.35 -81.45 -205.75 -82.8 -202.8 -83.35 L-200.7 -83.8 -199.6 -84.35 -198.15 -84.7 -197.05 -85.45 -196.4 -85.85 -195.25 -86.45 -194.45 -87.0 -194.3 -87.45 Q-191.1 -89.9 -188.2 -92.8 -182.9 -98.2 -176.85 -102.75 -173.3 -104.1 -170.8 -106.85" fill="#000000" fill-rule="evenodd" stroke="none"/>
  </g>
</svg>
