<?xml version="1.0" encoding="UTF-8" standalone="no"?>
<svg xmlns:ffdec="https://www.free-decompiler.com/flash" xmlns:xlink="http://www.w3.org/1999/xlink" ffdec:objectType="shape" height="37.95px" width="223.95px" xmlns="http://www.w3.org/2000/svg">
  <g transform="matrix(1.0, 0.0, 0.0, 1.0, 113.1, 18.85)">
    <path d="M-103.85 -9.95 L-101.9 -9.9 -103.75 -9.9 -103.85 -9.95 M-10.95 -9.95 L101.7 -9.95 101.5 -9.9 -10.05 -9.9 -10.95 -9.95 M101.25 9.9 L101.35 9.95 103.9 11.95 106.25 14.55 96.0 14.55 93.85 14.55 56.95 14.55 -47.65 14.55 -108.85 14.55 -108.85 12.9 -108.25 12.4 -106.45 10.85 Q-105.95 10.3 -104.2 9.95 L-104.0 9.9 11.25 9.9 13.05 9.95 26.7 10.1 37.0 10.25 49.1 10.1 66.5 10.05 66.5 10.0 101.25 9.9" fill="#ffda46" fill-rule="evenodd" stroke="none"/>
    <path d="M49.7 -14.6 L47.7 -14.55 Q28.5 -14.2 -4.4 -14.2 L-55.75 -14.55 -56.25 -14.6 49.7 -14.6 M-96.35 -14.6 L-96.35 -14.55 -96.75 -14.6 -96.35 -14.6 M-108.85 -14.6 L-106.45 -12.35 -104.85 -10.65 -104.3 -9.95 -103.85 -9.95 -103.75 -9.9 -104.3 -9.9 -104.3 9.9 -104.0 9.9 -104.2 9.95 Q-105.95 10.3 -106.45 10.85 L-108.25 12.4 -108.85 12.9 -108.85 -14.6 M101.7 -9.95 L101.8 -9.95 101.8 -9.9 Q102.4 -9.15 103.5 -11.2 104.55 -13.25 106.35 -14.6 L106.35 14.55 106.25 14.55 103.9 11.95 101.35 9.95 101.25 9.9 101.8 9.9 101.8 -9.9 101.5 -9.9 101.7 -9.95 M96.05 14.6 L93.85 14.6 93.85 14.55 96.0 14.55 96.05 14.6 M57.55 14.6 L-48.5 14.6 -47.65 14.55 56.95 14.55 57.55 14.6" fill="#ffcc00" fill-rule="evenodd" stroke="none"/>
    <path d="M-56.25 -14.6 L-55.75 -14.55 -4.4 -14.2 Q28.5 -14.2 47.7 -14.55 L49.7 -14.6 106.35 -14.6 Q104.55 -13.25 103.5 -11.2 102.4 -9.15 101.8 -9.9 L101.8 -9.95 101.7 -9.95 -10.95 -9.95 -61.75 -9.9 -101.9 -9.9 -103.85 -9.95 -104.3 -9.95 -104.85 -10.65 -106.45 -12.35 -108.85 -14.6 -96.75 -14.6 -96.35 -14.55 -96.35 -14.6 -56.25 -14.6 M106.25 14.55 L106.35 14.55 106.35 14.6 96.05 14.6 96.0 14.55 106.25 14.55 M93.85 14.6 L57.55 14.6 56.95 14.55 93.85 14.55 93.85 14.6 M-48.5 14.6 L-108.85 14.6 -108.85 14.55 -47.65 14.55 -48.5 14.6 M49.1 10.1 L37.0 10.25 26.7 10.1 49.1 10.1" fill="#c69e00" fill-rule="evenodd" stroke="none"/>
    <path d="M50.05 -18.8 L50.5 -18.85 110.85 -18.85 110.85 -18.8 50.05 -18.8 M-64.05 -18.85 L-63.7 -18.8 -100.6 -18.8 -100.6 -18.85 -64.05 -18.85 M105.85 14.45 L106.3 14.45 106.85 15.15 Q107.25 15.8 108.45 16.85 L110.85 19.1 98.75 19.1 98.35 19.05 98.35 19.1 58.1 19.1 57.75 19.05 6.4 18.7 -7.5 18.75 Q-32.0 18.8 -49.5 19.0 L-50.8 19.0 -51.25 19.0 -54.45 19.05 -56.45 19.1 -113.1 19.1 Q-111.3 17.75 -110.25 15.7 -109.15 13.65 -108.55 14.4 L-108.55 14.45 -108.45 14.45 12.65 14.45 103.9 14.4 105.85 14.45 M-113.1 -18.8 L-113.1 -18.85 -102.8 -18.85 -102.75 -18.8 -113.0 -18.8 -113.1 -18.8 M-54.25 -14.35 L-51.25 -14.4 -51.25 -14.45 -49.5 -14.45 -43.7 -14.5 -30.15 -14.35 -54.25 -14.35" fill="#c69e00" fill-rule="evenodd" stroke="none"/>
    <path d="M50.5 -18.85 L50.05 -18.8 -63.7 -18.8 -64.05 -18.85 50.5 -18.85 M106.0 -14.15 L106.2 -14.2 Q107.95 -14.55 108.45 -15.1 L110.25 -16.65 110.85 -17.15 110.85 19.1 108.45 16.85 Q107.25 15.8 106.85 15.15 L106.3 14.45 105.85 14.45 105.75 14.4 106.3 14.4 106.3 -14.15 106.0 -14.15 M98.75 19.1 L98.35 19.1 98.35 19.05 98.75 19.1 M58.1 19.1 L-56.45 19.1 -54.45 19.05 -51.25 19.0 -50.8 19.0 -49.5 19.0 Q-32.0 18.8 -7.5 18.75 L6.4 18.7 57.75 19.05 58.1 19.1 M-113.1 19.1 L-113.1 -18.8 -113.0 -18.8 -110.65 -16.2 -108.1 -14.2 -108.0 -14.15 -108.55 -14.15 -108.55 14.4 Q-109.15 13.65 -110.25 15.7 -111.3 17.75 -113.1 19.1 M-102.8 -18.85 L-100.6 -18.85 -100.6 -18.8 -102.75 -18.8 -102.8 -18.85 M-108.25 14.4 L-108.45 14.45 -108.55 14.45 -108.55 14.4 -108.25 14.4" fill="#ffcc00" fill-rule="evenodd" stroke="none"/>
    <path d="M50.05 -18.8 L110.85 -18.8 110.85 -17.15 110.25 -16.65 108.45 -15.1 Q107.95 -14.55 106.2 -14.2 L106.0 -14.15 -9.8 -14.15 -12.2 -14.2 -30.15 -14.35 -43.7 -14.5 -49.5 -14.45 -51.25 -14.45 -51.25 -14.4 -54.25 -14.35 -73.25 -14.3 -73.25 -14.25 -108.0 -14.15 -108.1 -14.2 -110.65 -16.2 -113.0 -18.8 -102.75 -18.8 -100.6 -18.8 -63.7 -18.8 50.05 -18.8 M105.75 14.4 L105.85 14.45 103.9 14.4 105.75 14.4 M-108.25 14.4 L12.05 14.4 12.65 14.45 -108.45 14.45 -108.25 14.4" fill="#ffda46" fill-rule="evenodd" stroke="none"/>
  </g>
</svg>
