<?xml version="1.0" encoding="UTF-8" standalone="no"?>
<svg xmlns:ffdec="https://www.free-decompiler.com/flash" xmlns:xlink="http://www.w3.org/1999/xlink" ffdec:objectType="shape" height="131.6px" width="375.15px" xmlns="http://www.w3.org/2000/svg">
  <g transform="matrix(1.0, 0.0, 0.0, 1.0, 274.1, 112.15)">
    <path d="M-253.4 -83.45 Q-254.65 -84.6 -254.65 -88.35 -254.65 -96.35 -243.95 -96.65 -234.7 -96.85 -220.35 -91.55 L-213.85 -88.95 -203.95 -88.35 -193.4 -89.05 Q-185.8 -89.45 -183.6 -87.9 L-181.55 -86.75 Q-177.55 -91.0 -167.85 -95.2 -152.45 -101.9 -131.55 -104.8 -111.0 -107.7 -97.05 -105.15 L-96.55 -105.45 Q-88.45 -109.85 -84.6 -109.2 -80.95 -108.6 -80.0 -103.6 L-75.55 -104.0 Q-71.8 -106.4 -68.3 -105.45 -45.4 -93.55 -45.4 -85.4 -45.4 -81.75 -47.6 -79.8 -50.3 -77.45 -56.55 -77.45 -63.85 -77.45 -65.9 -79.6 -68.45 -82.25 -77.35 -83.25 L-82.65 -83.95 Q-84.25 -83.0 -86.15 -83.0 L-89.4 -84.35 Q-95.3 -80.05 -103.55 -77.7 -109.9 -72.3 -123.45 -62.3 -146.55 -45.3 -153.75 -43.45 -157.7 -40.75 -161.65 -38.95 -164.1 -35.85 -168.05 -35.85 L-171.1 -36.2 -176.0 -35.85 Q-188.75 -35.85 -195.15 -41.85 -198.8 -45.3 -199.15 -48.15 L-200.95 -48.8 Q-206.2 -48.8 -210.95 -56.3 L-214.4 -62.35 Q-216.3 -65.7 -217.45 -66.85 -222.1 -71.55 -230.5 -75.1 -233.1 -76.25 -234.05 -77.55 -234.95 -78.75 -235.2 -80.85 L-248.6 -82.25 Q-252.3 -82.5 -253.4 -83.45" fill="#00b3ff" fill-rule="evenodd" stroke="none"/>
    <path d="M70.3 -81.9 Q70.3 -80.45 68.35 -76.25 66.35 -72.0 66.35 -70.75 66.35 -69.55 67.4 -66.25 68.4 -62.9 68.4 -61.75 68.4 -57.65 66.85 -55.45 64.25 -51.75 57.2 -51.75 47.1 -51.75 47.1 -59.85 47.1 -62.0 49.1 -65.35 51.05 -68.75 51.05 -70.5 51.05 -73.75 46.8 -77.0 42.5 -80.3 42.5 -85.1 42.5 -90.2 46.85 -92.25 50.65 -94.05 56.4 -93.05 61.95 -92.05 65.95 -89.05 70.3 -85.8 70.3 -81.9 M79.55 -55.75 Q82.0 -57.5 85.6 -57.15 89.15 -56.85 91.65 -54.75 94.4 -52.45 94.4 -49.0 94.4 -46.4 92.5 -44.15 90.2 -41.55 86.55 -41.55 80.2 -41.55 77.85 -45.8 77.15 -47.1 76.9 -48.7 L76.8 -49.95 Q76.8 -53.8 79.55 -55.75 M14.2 -52.95 L10.8 -46.4 Q10.8 -43.65 12.7 -41.85 L16.9 -39.15 Q23.0 -35.9 23.0 -31.2 23.0 -26.0 19.1 -24.95 L6.65 -24.45 Q5.85 -24.45 2.35 -22.35 -1.2 -20.3 -2.25 -20.3 -6.45 -20.3 -10.1 -28.6 -11.9 -32.8 -12.9 -37.05 -12.9 -39.75 -10.8 -42.5 -8.75 -45.25 -8.75 -47.7 L-8.85 -49.9 -8.75 -50.55 Q-12.9 -52.6 -19.2 -53.7 L-27.3 -54.5 Q-31.65 -54.5 -35.15 -60.45 -37.85 -65.0 -37.85 -66.7 -37.85 -72.5 -33.6 -76.8 L-21.95 -85.7 -24.85 -89.65 Q-25.85 -91.25 -25.85 -93.45 -25.85 -97.2 -21.2 -100.35 -16.3 -103.65 -9.7 -103.65 -1.2 -103.65 1.5 -100.25 2.7 -98.75 2.7 -95.7 2.7 -93.4 1.2 -87.7 -0.35 -82.05 -0.35 -79.65 -0.35 -79.45 8.6 -72.35 17.55 -65.25 17.55 -61.35 17.55 -59.25 14.2 -52.95 M-254.6 -88.7 Q-254.6 -93.95 -250.95 -95.4 -247.9 -96.65 -243.0 -94.95 -238.55 -93.45 -235.0 -90.45 -231.4 -87.35 -231.4 -84.9 -231.4 -82.1 -233.45 -80.0 -235.75 -77.65 -239.75 -77.65 -247.25 -77.65 -251.6 -82.75 -254.6 -86.25 -254.6 -88.7 M-168.85 -87.75 Q-168.2 -89.4 -166.55 -90.65 -164.0 -92.65 -160.5 -92.7 -156.9 -92.75 -154.5 -90.6 -151.75 -88.15 -151.75 -83.6 -151.75 -80.05 -155.45 -73.75 -160.0 -66.1 -166.75 -64.9 L-166.8 -63.05 -163.0 -55.9 Q-159.2 -48.9 -159.2 -45.35 -159.2 -41.65 -160.75 -39.05 -163.7 -34.2 -171.35 -34.2 -188.1 -34.2 -191.5 -39.55 -192.7 -41.4 -192.55 -44.45 L-192.1 -49.25 -193.95 -54.3 Q-195.8 -59.3 -195.8 -61.0 -195.8 -61.8 -197.4 -64.5 -199.0 -67.25 -199.0 -68.75 -199.0 -74.7 -193.05 -79.85 -187.75 -84.4 -180.0 -86.6 -173.6 -88.4 -168.85 -87.75 M-60.8 -101.1 Q-54.6 -96.9 -54.6 -95.35 -54.6 -89.7 -56.65 -87.05 -60.35 -82.25 -71.25 -82.25 -83.1 -82.25 -94.4 -100.1 -94.4 -108.5 -88.2 -110.15 -83.1 -111.5 -74.5 -108.3 -67.5 -105.65 -60.8 -101.1 M-84.7 -24.05 Q-86.3 -23.0 -87.5 -23.0 -92.85 -23.0 -94.65 -26.9 -95.5 -28.9 -95.35 -31.1 -95.35 -45.6 -87.55 -52.9 -80.75 -59.2 -70.35 -58.5 -60.5 -57.85 -53.15 -51.65 -45.35 -45.05 -45.35 -35.95 -45.35 -33.5 -48.1 -29.25 -50.9 -25.05 -50.9 -23.75 -50.9 -21.25 -48.1 -19.35 -45.35 -17.5 -45.35 -14.0 -45.35 -10.6 -48.6 -7.8 -52.4 -4.6 -58.3 -4.6 -66.55 -4.6 -71.05 -9.6 -74.1 -13.0 -74.1 -15.55 -74.1 -17.7 -73.3 -19.1 -72.65 -20.4 -70.75 -22.05 -71.75 -23.05 -75.95 -24.15 -79.8 -25.15 -81.9 -25.15 -83.1 -25.15 -84.7 -24.05" fill="#8adcff" fill-rule="evenodd" stroke="none"/>
    <path d="M33.75 -86.8 Q32.75 -88.9 31.15 -90.0 -4.8 -114.8 -46.95 -92.85 -62.6 -90.05 -73.25 -76.0 -98.8 -42.2 -97.95 -1.05 L-94.0 -0.2 -94.15 0.85 Q-84.6 -2.15 -74.7 -4.15 -42.65 -10.3 -11.3 -19.3 39.45 -34.05 33.75 -86.8 M43.35 -81.65 Q43.9 -70.3 48.05 -60.15 57.35 -37.45 80.75 -43.95 L88.55 -51.4 Q87.6 -51.8 86.85 -52.4 69.15 -66.05 62.4 -88.1 L55.95 -92.0 43.35 -81.65 M40.5 -92.35 Q46.7 -89.9 51.45 -95.7 57.1 -102.65 63.1 -96.55 77.2 -82.35 88.1 -65.3 L96.95 -56.0 100.8 -55.75 Q102.6 -44.2 91.9 -39.1 77.65 -32.35 62.45 -36.3 49.3 -39.6 42.35 -50.95 L41.65 -48.6 37.7 -48.6 Q25.2 -23.55 -1.5 -12.75 -26.8 -2.6 -54.3 -0.3 -84.25 1.75 -108.35 19.45 -110.15 18.7 -110.1 16.95 -109.4 -2.6 -105.65 -22.6 -97.3 -67.45 -57.55 -93.45 -16.4 -120.35 28.05 -102.75 L38.15 -92.6 40.5 -92.35" fill="#000000" fill-rule="evenodd" stroke="none"/>
    <path d="M-261.65 -93.8 Q-259.15 -94.85 -256.5 -95.35 L-255.1 -95.6 Q-251.85 -97.2 -248.15 -97.25 L-209.05 -97.65 -208.6 -97.45 -207.65 -96.75 -205.55 -96.35 -203.55 -96.05 -203.4 -96.0 Q-198.45 -93.25 -192.6 -94.45 L-190.75 -94.9 -189.7 -95.6 Q-177.1 -96.15 -168.5 -98.1 -161.3 -99.7 -151.8 -104.0 -142.7 -108.1 -135.25 -109.55 -123.2 -111.9 -102.85 -111.3 -71.5 -114.2 -55.35 -107.1 -49.7 -104.65 -46.7 -101.3 -44.45 -98.75 -44.45 -96.9 -44.45 -95.6 -45.4 -94.2 -46.75 -92.3 -49.1 -92.3 -50.3 -92.3 -52.0 -93.6 L-52.15 -93.95 -52.2 -94.05 -52.3 -94.25 -52.5 -94.7 -52.8 -95.35 -53.65 -96.2 -53.95 -96.5 -54.2 -96.75 -54.35 -96.9 -55.6 -98.15 -56.3 -98.75 -57.45 -99.5 -59.1 -99.9 -59.3 -100.0 -60.0 -100.6 -61.15 -101.35 -65.5 -102.1 Q-68.4 -103.3 -71.25 -104.8 -74.0 -106.25 -77.1 -106.7 L-77.6 -107.1 -78.75 -107.85 -80.6 -108.15 -86.15 -108.3 -86.15 -108.2 -88.2 -107.85 -89.1 -107.15 -89.85 -106.45 -90.2 -105.8 -91.7 -105.95 Q-101.4 -106.45 -111.15 -106.45 L-111.15 -106.35 -112.5 -106.25 Q-134.15 -102.9 -155.25 -97.45 -156.1 -97.25 -156.9 -96.7 -183.45 -89.35 -210.9 -90.05 L-211.15 -89.75 -212.3 -90.05 -213.25 -90.65 Q-214.5 -91.4 -215.85 -91.8 L-219.45 -92.6 -219.5 -92.45 -221.55 -92.1 -222.45 -91.4 -223.15 -90.75 -223.3 -90.5 -237.65 -91.8 Q-249.1 -91.8 -255.95 -90.1 -245.45 -89.25 -239.65 -85.85 -230.1 -82.15 -223.4 -77.5 -219.75 -74.95 -213.45 -69.1 -212.85 -68.55 -209.0 -62.7 -204.7 -56.2 -200.8 -51.85 -187.5 -37.2 -170.45 -37.2 -159.4 -37.2 -148.85 -45.1 -145.45 -47.65 -130.25 -62.4 -118.1 -74.25 -107.7 -79.75 -92.75 -87.65 -74.15 -87.65 -66.2 -87.65 -62.65 -84.5 L-63.35 -83.95 Q-64.55 -83.0 -65.25 -81.7 L-66.0 -80.3 -66.4 -79.85 Q-68.3 -81.0 -70.45 -81.25 L-85.2 -82.4 Q-89.95 -81.85 -94.95 -80.3 -100.8 -78.55 -105.85 -75.05 L-107.2 -74.3 -107.9 -73.6 -109.3 -73.2 -110.65 -72.85 -111.85 -72.45 -112.6 -71.85 Q-114.2 -70.95 -115.5 -69.65 L-116.9 -68.25 -117.6 -67.6 -118.05 -66.85 -118.35 -66.2 -118.75 -65.5 -119.2 -64.8 -119.45 -64.1 -120.6 -63.4 -122.95 -61.35 -124.35 -59.95 -125.0 -59.25 -125.45 -58.55 -125.75 -57.9 -126.15 -57.2 -127.1 -56.95 -128.7 -55.5 -130.9 -53.6 -133.1 -52.05 -133.8 -51.35 -134.55 -50.7 -135.45 -50.05 -136.85 -49.3 -138.7 -47.95 Q-139.25 -47.55 -139.85 -47.25 L-141.45 -46.5 -142.2 -45.85 -143.3 -45.1 -144.4 -44.35 -145.15 -43.75 -146.8 -43.25 -147.45 -43.0 -148.15 -42.6 -148.85 -41.9 Q-151.95 -40.75 -154.45 -38.75 L-157.2 -36.35 Q-159.6 -35.05 -162.25 -34.6 L-166.45 -33.55 -167.15 -32.85 -180.85 -32.0 -188.0 -34.25 -188.7 -34.9 -189.85 -35.65 Q-190.75 -35.85 -191.65 -36.2 L-192.15 -36.55 -193.1 -37.2 -194.45 -37.95 -196.6 -40.0 -199.55 -42.8 -201.4 -44.2 -201.7 -44.85 -202.1 -45.6 -202.8 -46.3 -203.5 -47.0 -204.2 -47.65 -204.9 -48.35 Q-205.45 -50.0 -206.7 -51.2 L-210.2 -54.6 -212.3 -56.7 -213.1 -58.0 -218.2 -63.95 Q-220.95 -66.9 -225.0 -67.6 L-225.0 -67.5 -226.5 -68.6 -227.0 -68.9 Q-232.35 -72.75 -238.7 -75.4 -241.45 -76.5 -246.1 -77.2 L-246.8 -77.5 -251.35 -79.45 Q-255.7 -81.25 -260.45 -81.7 L-261.6 -82.15 -264.85 -83.25 -266.2 -83.55 -267.15 -84.0 -268.55 -84.6 -270.4 -85.15 -270.4 -85.05 -271.75 -84.85 -272.45 -84.7 -273.15 -84.2 -273.85 -83.55 -274.1 -84.9 Q-274.1 -86.4 -273.15 -87.5 L-271.35 -88.45 -270.2 -89.15 -269.45 -89.8 -266.7 -91.2 -265.55 -91.95 -264.85 -92.6 -261.65 -93.8" fill="#000000" fill-rule="evenodd" stroke="none"/>
  </g>
</svg>
