<?xml version="1.0" encoding="UTF-8" standalone="no"?>
<svg xmlns:ffdec="https://www.free-decompiler.com/flash" xmlns:xlink="http://www.w3.org/1999/xlink" ffdec:objectType="shape" height="18.9px" width="19.15px" xmlns="http://www.w3.org/2000/svg">
  <g transform="matrix(1.0, 0.0, 0.0, 1.0, 9.55, 9.35)">
    <path d="M5.35 -6.15 L5.35 -6.25 5.35 -6.35 5.25 -6.5 5.15 -6.6 4.65 -6.85 4.2 -7.2 0.1 -8.15 -1.35 -8.4 -1.55 -8.35 -2.1 -8.1 -2.75 -8.1 Q-5.7 -6.65 -7.35 -3.9 L-8.0 -2.35 -8.25 -0.95 Q-8.55 1.15 -7.75 3.1 L-7.0 4.55 -6.9 4.95 -5.9 5.8 -5.15 6.9 -4.05 7.35 -1.7 8.1 -1.65 8.15 -1.45 8.2 -1.3 8.2 -1.15 8.2 1.75 7.95 2.2 7.85 2.6 7.85 2.65 7.85 2.75 7.8 2.85 7.7 2.9 7.7 4.05 7.1 Q7.65 5.2 8.5 1.2 9.3 -2.5 6.35 -5.25 L6.25 -5.3 6.25 -5.4 6.25 -5.45 6.2 -5.5 6.1 -5.7 5.7 -5.9 5.55 -5.95 5.35 -6.15 M6.5 -7.05 Q9.75 -4.0 9.6 0.3 9.55 4.55 6.3 7.35 3.15 10.05 -1.05 9.4 L-1.15 9.4 -2.6 9.2 Q-4.85 8.75 -6.65 7.25 L-7.65 5.8 -9.05 3.1 Q-9.9 0.8 -9.35 -2.0 -8.4 -7.35 -2.85 -9.0 1.4 -10.1 5.5 -7.7 L6.5 -7.05" fill="#000000" fill-rule="evenodd" stroke="none"/>
    <path d="M4.65 -6.85 L5.15 -6.6 5.25 -6.5 5.35 -6.35 5.35 -6.25 5.35 -6.15 5.4 -6.05 5.55 -5.95 5.7 -5.9 6.1 -5.7 6.2 -5.5 6.15 -5.55 5.8 -5.7 4.8 -5.85 4.8 -5.8 4.65 -5.8 4.4 -5.7 4.0 -5.7 2.05 -5.1 0.85 -4.65 -0.2 -3.8 -1.55 -2.2 -2.75 0.0 -2.8 0.05 -2.8 0.15 -2.8 0.25 Q-3.3 1.45 -3.3 2.85 -3.25 4.0 -3.5 5.1 -3.65 6.2 -3.4 7.25 L-3.35 7.3 -4.65 6.65 -7.0 4.55 -7.75 3.1 Q-8.55 1.15 -8.25 -0.95 L-8.1 -1.5 -8.0 -2.35 -7.35 -3.9 Q-5.7 -6.65 -2.75 -8.1 L-2.1 -8.1 -1.55 -8.35 -1.35 -8.4 0.1 -8.15 4.2 -7.2 4.4 -6.85 4.6 -6.85 4.65 -6.85 M1.0 -7.15 L0.45 -7.35 -1.35 -7.4 -1.35 -7.35 -1.55 -7.35 -1.6 -7.35 -2.05 -7.15 -2.15 -7.1 -2.7 -6.75 Q-4.05 -6.1 -4.95 -4.85 -5.6 -4.05 -5.45 -3.05 L-5.35 -2.85 -5.15 -2.65 -5.05 -2.55 -4.6 -2.55 -4.55 -2.5 -4.45 -2.4 -4.4 -2.35 -4.1 -2.3 -4.3 -2.0 -4.05 -2.3 -2.95 -2.35 -2.9 -2.4 -2.8 -2.45 -2.4 -3.05 -1.55 -4.2 Q-0.8 -4.85 0.15 -5.1 L0.55 -5.4 0.75 -5.7 0.75 -5.8 0.75 -5.9 1.35 -6.05 1.7 -5.95 1.95 -5.85 2.15 -5.85 2.35 -5.9 2.5 -6.0 2.55 -6.1 2.6 -6.1 2.65 -6.2 2.65 -6.3 2.65 -6.4 2.65 -6.5 2.65 -6.55 2.65 -6.65 2.6 -6.75 2.55 -6.8 2.5 -6.9 1.9 -7.15 1.0 -7.2 1.0 -7.15 M-0.3 -7.6 L-0.55 -7.65 -0.7 -7.6 -0.55 -7.5 -0.3 -7.6 M-3.9 -3.8 L-3.9 -3.85 -3.85 -3.95 -3.7 -4.05 -3.9 -3.8" fill="#404040" fill-rule="evenodd" stroke="none"/>
    <path d="M5.35 -6.15 L5.55 -5.95 5.4 -6.05 5.35 -6.15 M6.2 -5.5 L6.25 -5.45 6.25 -5.4 6.25 -5.3 6.35 -5.25 Q9.3 -2.5 8.5 1.2 7.65 5.2 4.05 7.1 L2.9 7.7 2.9 7.6 2.95 7.5 3.0 7.45 4.05 7.0 Q5.7 6.2 5.95 5.35 7.1 4.3 7.8 2.6 8.45 0.9 8.2 -0.4 L8.3 -0.4 8.4 -0.6 8.45 -0.65 8.45 -0.75 8.45 -0.8 8.45 -0.9 8.4 -1.1 8.35 -1.2 8.3 -1.25 7.9 -1.35 7.5 -1.4 Q5.45 -1.25 4.0 0.1 2.55 1.5 2.2 3.35 L2.15 3.6 Q2.0 3.95 2.0 4.3 L2.0 4.75 Q1.8 5.15 1.85 5.65 L1.8 6.5 1.9 7.5 1.6 7.5 1.55 7.55 1.55 7.6 1.95 7.7 2.0 7.75 2.1 7.85 2.2 7.85 1.75 7.95 -1.15 8.2 -1.3 8.2 -1.45 8.2 -1.65 8.15 -1.7 8.1 -4.05 7.35 -5.15 6.9 -5.9 5.8 -6.9 4.95 -7.0 4.55 -4.65 6.65 -3.35 7.3 -3.4 7.25 Q-3.65 6.2 -3.5 5.1 -3.25 4.0 -3.3 2.85 -3.3 1.45 -2.8 0.25 L-2.8 0.15 -2.8 0.05 -2.75 0.0 -1.55 -2.2 -0.2 -3.8 0.85 -4.65 2.05 -5.1 4.0 -5.7 4.4 -5.7 4.65 -5.8 4.8 -5.8 4.8 -5.85 5.8 -5.7 6.15 -5.55 6.2 -5.5 M-8.25 -0.95 L-8.0 -2.35 -8.1 -1.5 -8.25 -0.95 M4.2 -7.2 L4.65 -6.85 4.6 -6.85 4.4 -6.85 4.2 -7.2 M6.7 -3.25 L6.7 -3.2 6.8 -3.2 6.7 -3.3 6.7 -3.25 M5.65 -3.25 L5.55 -2.9 5.9 -3.05 5.8 -3.2 5.65 -3.25 M5.65 0.45 L5.8 0.35 5.8 0.4 5.75 0.45 5.7 0.55 5.65 0.5 5.65 0.45" fill="#333333" fill-rule="evenodd" stroke="none"/>
    <path d="M1.0 -7.15 L1.0 -7.2 1.9 -7.15 2.5 -6.9 2.55 -6.8 2.6 -6.75 2.65 -6.65 2.65 -6.55 2.65 -6.5 2.65 -6.4 2.65 -6.3 2.65 -6.2 2.6 -6.1 2.55 -6.1 2.5 -6.0 2.35 -5.9 2.15 -5.85 1.95 -5.85 1.7 -5.95 1.35 -6.05 0.75 -5.9 0.75 -5.8 0.75 -5.7 0.55 -5.4 0.15 -5.1 Q-0.8 -4.85 -1.55 -4.2 L-2.4 -3.05 -2.8 -2.45 -2.9 -2.4 -2.95 -2.35 -4.05 -2.3 -4.3 -2.0 -4.1 -2.3 -4.4 -2.35 -4.45 -2.4 -4.55 -2.5 -4.6 -2.55 -5.05 -2.55 -5.15 -2.65 -5.35 -2.85 -5.45 -3.05 Q-5.6 -4.05 -4.95 -4.85 -4.05 -6.1 -2.7 -6.75 L-2.15 -7.1 -2.05 -7.15 -1.6 -7.35 -1.55 -7.35 -1.35 -7.35 -1.35 -7.4 0.45 -7.35 1.0 -7.15 M-0.3 -7.6 L-0.55 -7.5 -0.7 -7.6 -0.55 -7.65 -0.3 -7.6 M-3.9 -3.8 L-3.7 -4.05 -3.85 -3.95 -3.9 -3.85 -3.9 -3.8" fill="#484848" fill-rule="evenodd" stroke="none"/>
    <path d="M2.9 7.7 L2.85 7.7 2.75 7.8 2.65 7.85 2.6 7.85 2.2 7.85 2.1 7.85 2.0 7.75 1.95 7.7 1.55 7.6 1.55 7.55 1.6 7.5 1.9 7.5 1.8 6.5 1.85 5.65 Q1.8 5.15 2.0 4.75 L2.0 4.3 Q2.0 3.95 2.15 3.6 L2.2 3.35 Q2.55 1.5 4.0 0.1 5.45 -1.25 7.5 -1.4 L7.9 -1.35 8.3 -1.25 8.35 -1.2 8.4 -1.1 8.45 -0.9 8.45 -0.8 8.45 -0.75 8.45 -0.65 8.4 -0.6 8.3 -0.4 8.2 -0.4 Q8.45 0.9 7.8 2.6 7.1 4.3 5.95 5.35 5.7 6.2 4.05 7.0 L3.0 7.45 2.95 7.5 2.9 7.6 2.9 7.7 M5.65 -3.25 L5.8 -3.2 5.9 -3.05 5.55 -2.9 5.65 -3.25 M6.7 -3.25 L6.7 -3.3 6.8 -3.2 6.7 -3.2 6.7 -3.25 M5.65 0.45 L5.65 0.5 5.7 0.55 5.75 0.45 5.8 0.4 5.8 0.35 5.65 0.45" fill="#282828" fill-rule="evenodd" stroke="none"/>
  </g>
</svg>
