<?xml version="1.0" encoding="UTF-8" standalone="no"?>
<svg xmlns:ffdec="https://www.free-decompiler.com/flash" xmlns:xlink="http://www.w3.org/1999/xlink" ffdec:objectType="shape" height="11.45px" width="21.15px" xmlns="http://www.w3.org/2000/svg">
  <g transform="matrix(1.0, 0.0, 0.0, 1.0, 10.5, 5.9)">
    <path d="M10.0 4.1 L-10.0 4.1 -10.0 -5.9 10.0 -5.9 10.0 4.1" fill="#000000" fill-rule="evenodd" stroke="none"/>
    <path d="M10.15 2.15 L10.2 2.2 10.25 2.25 10.25 2.3 10.3 2.35 10.3 2.4 10.35 2.45 10.35 2.65 10.45 2.7 10.5 2.75 10.55 2.85 10.6 2.85 10.65 2.9 10.65 3.35 10.6 3.4 10.6 3.45 10.55 3.5 10.55 3.55 10.5 3.55 10.4 3.6 10.35 3.65 10.2 3.7 10.4 3.9 10.4 3.95 10.45 3.95 10.5 4.0 10.5 4.05 10.55 4.1 10.55 4.15 10.6 4.2 10.6 4.4 10.55 4.45 10.55 4.5 10.5 4.55 10.5 4.6 10.45 4.65 10.4 4.7 10.35 4.75 10.25 4.75 10.1 4.8 8.2 4.8 7.65 4.85 6.1 5.1 5.8 5.15 3.9 5.3 3.85 5.3 3.75 5.3 3.05 5.35 2.35 5.55 -1.65 5.35 -9.95 5.35 -10.25 5.25 -10.35 5.15 -10.35 5.1 -10.4 5.05 -10.4 5.0 -10.45 4.95 -10.45 4.7 -10.4 4.65 -10.4 4.6 -10.35 4.55 -10.35 4.45 -10.4 4.4 -10.4 4.15 -10.35 4.1 -10.45 4.0 -10.45 3.95 -10.5 3.9 -10.5 3.55 -10.45 3.5 -10.45 3.45 -10.35 3.3 -10.2 3.2 -10.05 3.1 -10.15 3.0 -10.15 2.95 -10.2 2.9 -10.2 2.85 -10.25 2.85 -10.25 2.55 -10.25 2.45 -10.25 2.4 -10.2 2.35 -10.2 2.3 -10.15 2.25 -10.15 2.2 -10.05 2.15 -9.95 2.0 -9.9 1.95 -9.8 1.9 -9.45 1.8 5.1 1.65 5.3 1.6 6.5 1.5 9.65 1.5 9.85 1.55 9.95 1.6 10.1 1.75 10.15 1.85 10.15 2.15" fill="#000000" fill-rule="evenodd" stroke="none"/>
  </g>
</svg>
