<?xml version="1.0" encoding="UTF-8" standalone="no"?>
<svg xmlns:ffdec="https://www.free-decompiler.com/flash" xmlns:xlink="http://www.w3.org/1999/xlink" ffdec:objectType="shape" height="9.15px" width="20.6px" xmlns="http://www.w3.org/2000/svg">
  <g transform="matrix(1.0, 0.0, 0.0, 1.0, 10.3, 8.35)">
    <path d="M8.35 -6.3 L8.55 -6.35 9.25 -6.45 9.3 -6.5 10.3 -6.25 10.3 -5.9 10.05 -5.55 10.3 -4.4 10.05 -3.5 Q9.95 -3.25 9.65 -3.25 L9.6 -3.2 9.6 -3.15 9.5 -3.05 Q9.1 -2.75 8.75 -3.05 L8.6 -3.25 8.55 -3.25 8.45 -3.25 8.35 -3.25 Q8.0 -2.95 7.65 -3.25 L7.55 -3.4 7.35 -3.45 7.25 -3.5 Q6.95 -3.1 6.5 -3.2 L6.1 -3.55 5.7 -3.55 Q5.55 -3.55 5.45 -3.65 5.1 -3.25 4.65 -3.5 L4.35 -3.85 3.75 -3.7 3.55 -3.75 Q3.4 -3.35 3.0 -3.35 2.65 -3.35 2.5 -3.7 L2.1 -3.75 1.85 -3.95 1.25 -3.9 1.05 -4.1 Q0.7 -4.05 0.4 -4.3 L0.3 -4.4 -0.25 -4.45 -0.4 -4.6 Q-0.85 -4.6 -1.1 -4.95 L-1.25 -5.25 -1.6 -5.3 -1.75 -5.35 Q-1.85 -5.05 -2.1 -4.9 L-2.65 -4.75 Q-2.75 -4.4 -3.05 -4.3 L-3.75 -4.35 -4.25 -4.4 -4.4 -4.5 -4.8 -4.4 -5.0 -4.45 Q-5.15 -4.15 -5.45 -4.0 -5.75 -3.85 -6.0 -4.0 L-6.4 -3.85 -6.65 -3.85 -6.8 -3.75 -7.0 -3.7 -7.35 -3.3 -7.75 -3.3 Q-8.0 -3.05 -8.35 -3.1 L-8.65 -3.3 Q-9.45 -2.7 -9.95 -3.6 L-10.05 -4.05 -9.95 -5.55 -9.9 -5.6 -9.95 -5.6 -10.1 -5.8 -10.05 -6.0 -10.05 -6.05 -8.25 -6.3 -7.7 -6.45 -7.65 -6.45 -5.4 -6.75 -4.8 -6.8 -4.6 -6.85 -4.4 -6.9 -4.0 -6.95 -3.95 -6.95 -3.9 -7.0 -3.55 -7.05 -3.3 -7.1 -3.1 -7.15 -2.85 -7.25 -2.8 -7.25 -2.55 -7.35 -2.15 -7.45 -2.05 -7.45 -1.95 -7.5 -1.9 -7.5 -1.85 -7.5 -1.75 -7.65 -1.45 -7.75 -1.2 -7.65 -1.05 -7.55 -0.85 -7.5 -0.75 -7.4 -0.45 -7.35 -0.4 -7.35 -0.3 -7.3 -0.25 -7.25 1.0 -6.8 1.6 -6.75 2.75 -6.6 2.8 -6.55 5.05 -6.45 5.15 -6.45 8.35 -6.3 M7.9 -5.6 L7.85 -5.65 7.8 -5.65 5.85 -5.65 6.1 -5.5 6.85 -5.35 6.9 -5.3 7.25 -5.4 7.55 -5.35 8.0 -5.55 7.95 -5.6 7.9 -5.6 M5.1 -5.65 L5.15 -5.6 5.25 -5.65 5.1 -5.65" fill="#666666" fill-rule="evenodd" stroke="none"/>
    <path d="M2.9 -3.7 L3.9 -3.7 4.05 -4.05 Q4.3 -4.45 4.75 -4.3 5.0 -4.8 5.5 -4.65 L5.7 -4.5 5.85 -3.85 5.85 -3.25 5.9 -3.35 5.95 -3.5 6.05 -3.6 Q6.2 -4.2 6.8 -4.0 L7.1 -3.8 7.75 -3.9 7.95 -3.8 8.6 -3.85 8.75 -3.7 Q9.25 -4.25 9.7 -3.7 L9.8 -3.5 10.15 -1.75 10.1 -1.45 9.95 -1.5 9.6 -1.6 9.5 -1.55 9.55 -1.45 9.55 -1.4 9.6 -1.35 9.6 -1.2 9.6 -1.0 9.6 -0.85 9.55 -0.8 9.55 -0.75 9.5 -0.7 9.5 -0.6 9.45 -0.45 9.4 -0.35 9.4 -0.3 9.35 -0.25 9.35 -0.15 9.3 -0.1 9.3 -0.05 9.25 0.0 9.25 0.1 9.2 0.1 9.15 0.2 8.95 0.4 8.65 0.5 8.55 0.5 8.45 0.45 8.35 0.4 8.25 0.3 8.25 0.25 8.2 0.2 8.2 0.15 8.15 0.1 8.15 0.0 8.1 0.0 8.0 0.0 7.95 0.05 7.85 0.05 7.8 0.05 7.7 0.05 7.6 0.0 7.5 -0.05 7.45 -0.1 7.4 -0.1 7.35 -0.05 7.25 0.0 7.15 0.05 7.05 0.05 7.0 0.05 6.9 0.05 6.8 0.0 6.7 -0.05 6.6 -0.15 6.6 -0.2 6.55 -0.25 6.55 -0.3 6.5 -0.35 6.5 -0.45 6.5 -0.55 6.5 -0.7 6.5 -0.85 6.45 -0.8 6.45 -0.75 6.4 -0.7 6.4 -0.55 6.35 -0.5 6.35 -0.45 6.25 -0.35 6.1 -0.25 5.9 -0.2 5.75 -0.25 5.55 -0.3 5.5 -0.35 5.4 -0.45 5.4 -0.55 5.35 -0.6 5.35 -0.7 5.35 -0.8 5.35 -0.95 5.35 -1.1 5.3 -1.05 5.3 -1.0 5.25 -0.95 5.25 -0.9 5.2 -0.85 5.15 -0.75 5.1 -0.6 5.0 -0.4 4.9 -0.3 4.9 -0.15 4.85 -0.1 4.85 0.0 4.8 0.05 4.7 0.15 4.65 0.2 4.55 0.25 4.45 0.3 4.35 0.3 4.25 0.3 4.15 0.25 4.05 0.2 4.0 0.15 3.9 0.05 3.9 -0.05 3.85 -0.1 3.85 -0.2 3.85 -0.3 3.85 -0.45 3.85 -0.6 3.8 -0.6 3.7 -0.55 3.6 -0.55 3.5 -0.55 3.4 -0.6 3.3 -0.65 3.25 -0.7 3.15 -0.8 3.15 -0.9 3.1 -0.9 3.1 -1.1 3.1 -1.2 3.1 -1.3 3.1 -1.35 3.05 -1.3 3.05 -1.2 3.0 -1.15 3.0 -1.1 2.9 -0.95 2.75 -0.75 2.5 -0.55 2.45 -0.5 2.35 -0.5 2.3 -0.5 2.2 -0.5 2.1 -0.55 2.0 -0.6 1.9 -0.7 1.9 -0.75 1.85 -0.8 1.85 -0.85 1.8 -0.9 1.8 -1.2 1.75 -1.2 1.65 -1.2 1.55 -1.25 1.45 -1.3 1.35 -1.4 1.25 -1.5 1.2 -1.65 1.15 -1.6 1.05 -1.45 0.85 -1.25 0.8 -1.2 0.7 -1.2 0.6 -1.15 0.5 -1.2 0.4 -1.2 0.3 -1.25 0.25 -1.3 0.2 -1.35 0.1 -1.3 -0.2 -1.3 -0.4 -1.4 -0.5 -1.5 -0.5 -1.55 -0.55 -1.6 -0.55 -1.65 -0.6 -1.65 -0.6 -1.7 -0.6 -1.8 -0.65 -1.95 -0.65 -2.05 -0.65 -2.15 -0.65 -2.3 -0.65 -2.4 -0.65 -2.45 -0.8 -2.4 -0.9 -2.25 -1.1 -2.0 -1.4 -1.75 -1.6 -1.7 -1.85 -1.75 -1.95 -1.8 -2.0 -1.85 -2.05 -1.9 -2.1 -1.9 -2.15 -1.85 -2.2 -1.8 -2.2 -1.65 -2.25 -1.6 -2.25 -1.55 -2.3 -1.5 -2.3 -1.45 -2.35 -1.4 -2.4 -1.35 -2.45 -1.3 -2.55 -1.3 -2.6 -1.25 -2.7 -1.25 -2.75 -1.25 -2.85 -1.25 -2.95 -1.3 -3.05 -1.35 -3.15 -1.45 -3.15 -1.5 -3.2 -1.55 -3.2 -1.6 -3.3 -1.5 -3.6 -1.25 -3.9 -1.15 -3.95 -1.15 -4.05 -1.2 -4.15 -1.2 -4.25 -1.25 -4.35 -1.35 -4.35 -1.4 -4.4 -1.45 -4.45 -1.5 -4.5 -1.45 -4.6 -1.45 -4.7 -1.4 -4.8 -1.45 -4.9 -1.45 -5.0 -1.45 -5.1 -1.35 -5.15 -1.35 -5.25 -1.3 -5.35 -1.3 -5.5 -1.3 -5.6 -1.35 -5.75 -1.1 -5.95 -0.7 -6.25 -0.5 -6.3 -0.45 -6.4 -0.45 -6.5 -0.45 -6.6 -0.5 -6.7 -0.55 -6.75 -0.6 -6.85 -0.7 -7.1 -0.55 -7.5 -0.5 -7.6 -0.5 -7.7 -0.5 -7.8 -0.4 -7.95 -0.3 -8.05 -0.25 -8.15 -0.2 -8.25 -0.2 -8.3 -0.15 -8.4 0.1 -8.65 0.5 -8.9 0.75 -9.25 0.8 -9.65 0.65 -9.75 0.55 -9.75 0.5 -9.8 0.45 -9.8 0.4 -9.85 0.35 -9.85 -0.2 -9.85 -0.95 -9.8 -1.4 -9.75 -1.55 -9.75 -1.8 -9.75 -1.95 -10.0 -1.55 -10.0 -1.9 Q-10.1 -2.9 -9.5 -3.55 L-9.15 -3.7 -8.95 -3.7 -8.95 -3.8 -8.9 -3.85 Q-8.65 -4.3 -8.2 -4.05 L-8.05 -3.95 -7.65 -4.3 -7.25 -4.3 -7.25 -4.4 -7.25 -4.5 -7.2 -4.55 Q-7.0 -5.0 -6.5 -4.85 L-6.35 -4.75 -5.55 -4.9 -5.4 -4.8 -5.35 -4.7 -5.35 -4.65 -5.3 -4.6 -4.7 -4.6 -4.55 -4.5 Q-4.55 -4.95 -4.15 -5.1 L-3.55 -5.0 -3.55 -4.95 -3.5 -4.9 -3.5 -4.85 -3.25 -4.85 -3.0 -4.9 Q-3.0 -5.35 -2.65 -5.6 L-2.05 -5.7 -1.9 -6.2 -1.5 -6.45 -1.2 -6.35 -1.05 -6.25 -1.0 -6.15 -1.0 -6.1 -0.95 -6.05 Q-0.45 -6.2 -0.2 -5.7 L-0.15 -5.45 0.55 -5.6 0.7 -5.5 0.8 -5.25 0.85 -4.8 Q1.5 -5.0 1.7 -4.35 L1.8 -4.0 Q2.35 -4.45 2.7 -3.8 L2.75 -3.65 2.85 -3.65 2.9 -3.7 M7.35 -2.3 L7.35 -2.25 7.4 -2.25 7.4 -2.3 7.45 -2.35 7.35 -2.3 M9.15 -1.75 L9.05 -1.8 9.05 -1.75 9.15 -1.75 M-5.15 -3.2 L-5.3 -3.2 -5.25 -3.15 -5.2 -3.15 -5.15 -3.2 M-3.35 -3.5 L-3.5 -3.35 -3.45 -3.3 -3.4 -3.35 -3.35 -3.45 -3.25 -3.55 -3.35 -3.5 M-8.35 0.25 L-8.4 0.3 -8.4 0.25 -8.35 0.25" fill="#333333" fill-rule="evenodd" stroke="none"/>
    <path d="M-9.8 -5.7 L-9.4 -5.8 -6.8 -6.25 M9.8 -6.0 Q2.9 -5.85 -1.5 -7.85 -3.7 -6.85 -6.25 -6.35" fill="none" stroke="#000000" stroke-linecap="round" stroke-linejoin="round" stroke-width="1.0"/>
  </g>
</svg>
