<?xml version="1.0" encoding="UTF-8" standalone="no"?>
<svg xmlns:ffdec="https://www.free-decompiler.com/flash" xmlns:xlink="http://www.w3.org/1999/xlink" ffdec:objectType="shape" height="17.3px" width="19.6px" xmlns="http://www.w3.org/2000/svg">
  <g transform="matrix(1.0, 0.0, 0.0, 1.0, 8.85, 16.6)">
    <path d="M10.3 -12.4 L10.3 -11.85 10.25 -11.85 10.2 -11.75 10.0 -11.7 10.1 -11.5 Q10.55 -8.95 9.85 -6.65 L9.75 -6.55 9.65 -6.55 9.2 -6.15 8.85 -6.4 Q8.55 -6.3 8.25 -6.75 L8.05 -7.0 7.8 -7.2 7.6 -7.55 Q7.5 -7.55 7.35 -7.35 7.2 -7.2 7.0 -7.35 6.55 -6.65 6.1 -7.1 L5.9 -7.6 5.85 -7.55 5.75 -7.2 5.7 -7.1 Q5.05 -6.3 4.7 -7.55 L4.6 -8.3 Q4.0 -7.45 3.65 -8.7 3.5 -9.1 3.5 -9.65 3.1 -8.4 2.5 -9.2 2.25 -9.5 2.25 -10.0 1.85 -9.9 1.6 -10.3 L1.45 -10.8 1.4 -10.8 1.4 -10.7 1.35 -10.6 1.35 -10.5 0.8 -10.1 Q0.6 -10.2 0.5 -10.6 L-0.1 -10.7 -0.4 -11.0 -0.4 -10.9 -0.45 -10.9 -0.5 -10.7 -0.5 -10.6 -0.8 -10.2 -1.05 -10.1 Q-1.3 -8.8 -1.95 -8.5 -2.25 -8.4 -2.4 -9.0 L-2.45 -9.2 Q-2.8 -9.0 -3.1 -9.2 L-3.35 -9.8 -3.75 -9.3 Q-4.0 -9.0 -4.2 -9.2 L-4.65 -8.15 -7.55 -11.35 -7.25 -11.5 -6.9 -11.15 -6.55 -11.3 -6.2 -11.15 -6.0 -11.7 -7.9 -11.7 -8.6 -12.45 -7.1 -12.55 -6.05 -12.55 -5.15 -12.65 Q-3.1 -13.15 -1.1 -14.05 L-0.9 -14.15 -0.85 -14.15 Q-0.7 -14.5 -0.4 -14.5 L-0.35 -14.5 -0.25 -14.55 -0.2 -14.65 -0.05 -14.65 0.05 -14.65 0.1 -14.65 0.9 -15.25 1.0 -15.45 1.05 -15.45 1.15 -15.55 1.25 -15.55 1.5 -15.35 1.65 -15.2 2.05 -14.95 2.2 -14.75 2.25 -14.65 2.3 -14.65 2.35 -14.55 2.45 -14.55 2.45 -14.5 2.6 -14.5 2.7 -14.4 3.1 -14.05 3.8 -13.85 3.85 -13.95 4.35 -13.7 4.4 -13.7 4.65 -13.7 5.55 -13.25 6.55 -13.0 6.8 -12.9 6.95 -13.0 7.1 -13.0 7.4 -13.0 9.5 -12.65 10.2 -12.45 10.25 -12.45 10.25 -12.4 10.3 -12.4 M-4.8 -11.7 L-4.65 -11.85 -4.75 -11.85 -4.85 -11.85 -4.8 -11.75 -4.8 -11.7" fill="#666666" fill-rule="evenodd" stroke="none"/>
    <path d="M0.5 -12.65 L0.75 -12.45 0.9 -12.3 1.0 -11.75 1.0 -11.0 1.0 -10.9 1.1 -10.9 1.2 -10.8 Q1.5 -11.5 1.9 -11.3 L2.15 -11.0 2.15 -10.9 2.2 -10.8 2.2 -10.6 2.25 -10.5 Q2.6 -12.1 3.3 -11.0 L3.45 -10.6 Q3.95 -10.5 4.2 -9.7 L4.25 -9.3 4.65 -9.3 4.9 -9.1 Q5.4 -9.9 5.85 -9.0 L5.95 -8.8 Q6.4 -9.9 6.95 -8.95 L7.0 -8.7 7.3 -8.6 7.45 -8.4 Q7.65 -8.95 8.0 -8.8 L8.25 -8.7 Q8.5 -9.9 9.1 -9.4 L9.3 -9.1 9.5 -7.7 9.5 -6.65 9.7 -6.55 9.95 -6.2 10.1 -3.75 10.1 -2.25 10.0 -1.65 Q10.15 0.05 9.35 0.6 9.05 0.9 8.8 0.3 L8.75 0.05 Q8.15 0.75 7.7 -0.2 L7.65 -0.4 Q7.2 -0.05 6.8 -0.65 L6.7 -0.75 Q6.1 -0.6 5.9 -1.65 L5.9 -2.15 Q5.55 -2.05 5.3 -2.6 L5.2 -2.85 Q4.5 -2.05 4.15 -3.45 L4.1 -3.65 Q3.45 -3.4 3.3 -4.55 L3.25 -5.05 Q3.0 -4.8 2.8 -5.05 L2.55 -5.35 Q2.25 -4.25 1.6 -4.8 L1.45 -5.15 0.95 -5.35 0.8 -5.6 0.65 -5.6 0.35 -5.5 -0.05 -5.15 -0.35 -5.05 Q-1.05 -3.75 -1.5 -5.45 L-1.55 -5.6 Q-1.7 -5.5 -1.8 -5.45 L-2.1 -5.45 -2.1 -5.3 -5.3 -8.8 -5.8 -9.35 -5.55 -9.3 -5.35 -9.0 -5.35 -8.95 -5.3 -8.8 -4.85 -9.0 -4.7 -9.0 Q-4.5 -9.8 -4.0 -9.5 L-3.8 -9.2 -3.8 -9.1 -3.75 -9.0 Q-3.65 -9.0 -3.55 -9.1 L-3.4 -9.1 Q-3.3 -10.0 -2.95 -10.3 L-2.45 -10.5 Q-2.25 -11.15 -1.85 -11.05 L-1.55 -10.9 Q-1.4 -12.1 -0.8 -12.3 L-0.35 -11.95 -0.25 -12.1 -0.05 -12.1 0.1 -12.4 0.5 -12.65" fill="#333333" fill-rule="evenodd" stroke="none"/>
    <path d="M10.0 -11.7 L9.55 -11.75 8.9 -11.85 9.2 -11.95 Q9.4 -12.1 9.55 -11.75 L9.65 -11.85 10.0 -11.7" fill="#ff4d00" fill-rule="evenodd" stroke="none"/>
    <path d="M8.9 -11.85 Q6.5 -12.55 4.4 -13.7 L3.85 -13.95 Q2.45 -14.75 1.2 -15.85 -2.8 -12.35 -8.1 -11.9 M10.0 -11.7 L9.55 -11.75 8.9 -11.85" fill="none" stroke="#000000" stroke-linecap="round" stroke-linejoin="round" stroke-width="1.5"/>
  </g>
</svg>
