<?xml version="1.0" encoding="UTF-8" standalone="no"?>
<svg xmlns:ffdec="https://www.free-decompiler.com/flash" xmlns:xlink="http://www.w3.org/1999/xlink" ffdec:objectType="shape" height="17.8px" width="19.75px" xmlns="http://www.w3.org/2000/svg">
  <g transform="matrix(1.0, 0.0, 0.0, 1.0, 9.25, 16.6)">
    <path d="M10.3 -12.75 L10.3 -11.95 10.05 -11.3 Q10.35 -10.3 10.3 -9.0 L10.05 -7.2 9.6 -6.75 9.55 -6.65 9.55 -6.55 9.45 -6.3 Q9.05 -5.75 8.7 -6.3 L8.55 -6.75 8.5 -6.75 8.4 -6.75 8.25 -6.75 Q7.9 -6.15 7.55 -6.75 L7.45 -7.0 7.25 -7.1 7.15 -7.2 Q6.85 -6.4 6.35 -6.65 6.05 -6.75 5.95 -7.35 5.8 -7.2 5.55 -7.35 L5.3 -7.55 Q4.9 -6.75 4.45 -7.2 L4.15 -7.9 Q3.9 -7.55 3.5 -7.6 L3.3 -7.7 Q3.15 -6.9 2.75 -6.9 2.4 -6.9 2.25 -7.6 L1.8 -7.7 1.55 -8.15 Q1.3 -7.8 0.95 -8.0 L0.75 -8.4 Q0.35 -8.3 0.05 -8.8 L-0.05 -9.0 Q-0.35 -8.8 -0.6 -9.1 L-0.75 -9.4 Q-1.25 -9.4 -1.5 -10.1 L-1.65 -10.7 -2.0 -10.8 -2.15 -10.9 Q-2.25 -10.3 -2.5 -10.0 -2.8 -9.65 -3.1 -9.7 -3.2 -9.0 -3.5 -8.8 -3.85 -8.5 -4.2 -8.95 L-4.75 -9.0 -4.9 -9.2 -5.3 -9.0 -5.5 -9.1 -5.5 -9.05 -9.15 -13.0 Q-7.5 -13.15 -5.95 -13.7 L-5.3 -13.8 -5.1 -13.85 -4.9 -13.95 -4.5 -14.05 -4.45 -14.05 -4.4 -14.15 -4.0 -14.25 Q-3.85 -14.25 -3.75 -14.4 -3.65 -14.4 -3.55 -14.5 L-3.3 -14.65 -3.25 -14.65 -3.0 -14.85 -2.55 -15.05 -2.45 -15.05 -2.35 -15.2 -2.25 -15.2 -2.15 -15.45 -1.85 -15.65 Q-1.7 -15.65 -1.6 -15.45 L-1.45 -15.25 -1.25 -15.2 -1.1 -14.95 -0.8 -14.85 -0.75 -14.85 -0.65 -14.75 -0.6 -14.65 Q0.0 -14.15 0.7 -13.8 L1.3 -13.7 Q1.8 -13.35 2.5 -13.35 L2.55 -13.25 4.85 -13.1 4.95 -13.1 8.25 -12.75 8.5 -12.9 9.2 -13.1 9.25 -13.15 9.3 -13.15 9.45 -13.15 9.65 -13.25 9.7 -13.35 9.8 -13.35 9.85 -13.45 10.0 -13.45 10.1 -13.45 10.2 -13.35 10.25 -13.35 10.3 -13.25 10.3 -13.0 10.25 -12.9 10.3 -12.75 M7.7 -11.5 L5.7 -11.5 5.95 -11.15 Q6.35 -11.3 6.7 -10.9 L6.8 -10.8 7.15 -11.0 7.45 -10.9 7.9 -11.3 7.85 -11.4 7.8 -11.4 7.75 -11.5 7.7 -11.5 M4.9 -11.5 L4.95 -11.4 5.05 -11.5 4.9 -11.5" fill="#666666" fill-rule="evenodd" stroke="none"/>
    <path d="M7.0 -7.8 Q7.3 -8.3 7.65 -8.0 L7.85 -7.8 Q8.15 -8.3 8.55 -7.9 L8.7 -7.6 Q9.2 -8.7 9.65 -7.6 L9.75 -7.2 Q10.2 -5.5 10.15 -3.75 10.1 -2.75 9.7 -2.05 9.5 -1.55 9.15 -1.65 L8.6 -0.3 Q8.25 0.1 8.0 -0.4 L7.4 0.05 7.2 -0.05 Q6.65 1.0 6.2 0.05 L6.1 -0.2 Q5.75 0.75 5.1 0.4 L5.0 0.3 Q4.75 1.5 4.15 1.1 L3.8 0.75 3.75 1.05 1.45 -1.4 1.45 -2.15 Q0.85 -1.9 0.6 -2.95 L0.55 -3.55 Q-0.05 -3.15 -0.45 -4.15 L-0.5 -4.35 Q-1.05 -3.95 -1.45 -4.8 L-1.55 -5.15 -1.85 -5.05 -2.35 -5.55 -2.4 -5.75 -2.45 -5.85 -2.6 -5.95 -2.65 -5.95 -5.8 -9.4 Q-5.5 -9.7 -5.2 -9.4 L-5.05 -9.2 Q-5.05 -10.1 -4.65 -10.35 -4.25 -10.8 -4.0 -10.2 L-4.0 -10.1 -3.95 -10.0 -3.95 -9.9 -3.7 -9.9 Q-3.6 -9.9 -3.45 -10.0 -3.45 -10.9 -3.1 -11.4 L-2.45 -11.6 -2.3 -12.55 -1.9 -13.1 Q-1.7 -13.1 -1.6 -12.9 L-1.45 -12.65 -1.4 -12.45 -1.4 -12.4 -1.35 -12.3 Q-0.8 -12.55 -0.55 -11.6 L-0.5 -11.05 Q-0.2 -11.85 0.2 -11.4 L0.35 -11.15 0.5 -10.7 0.55 -9.8 Q1.2 -10.2 1.4 -8.95 L1.5 -8.25 Q2.1 -9.1 2.45 -7.8 L2.5 -7.2 Q2.85 -7.8 3.25 -7.45 L3.4 -7.2 3.45 -7.0 3.45 -6.9 3.5 -6.85 3.85 -8.3 Q4.1 -9.1 4.55 -8.8 4.8 -9.8 5.35 -9.5 L5.55 -9.2 5.7 -7.9 5.7 -6.75 5.75 -6.9 5.8 -7.2 5.9 -7.45 Q6.05 -8.6 6.65 -8.25 L7.0 -7.8 M-6.45 -10.1 L-6.1 -10.0 -5.95 -9.8 -5.9 -9.65 -5.9 -9.5 -6.45 -10.1" fill="#333333" fill-rule="evenodd" stroke="none"/>
    <path d="M9.75 -12.2 Q2.65 -11.85 -1.9 -15.85 -4.15 -13.85 -6.8 -12.9 M-8.5 -12.3 L-7.35 -12.65" fill="none" stroke="#000000" stroke-linecap="round" stroke-linejoin="round" stroke-width="1.5"/>
  </g>
</svg>
