<?xml version="1.0" encoding="UTF-8" standalone="no"?>
<svg xmlns:ffdec="https://www.free-decompiler.com/flash" xmlns:xlink="http://www.w3.org/1999/xlink" ffdec:objectType="shape" height="3.3px" width="3.75px" xmlns="http://www.w3.org/2000/svg">
  <g transform="matrix(1.0, 0.0, 0.0, 1.0, 1.7, 2.0)">
    <path d="M1.35 -2.0 L1.65 -1.85 1.8 -1.75 1.9 -1.7 1.95 -1.55 2.05 -1.4 2.05 -1.25 2.05 -1.05 2.05 -0.8 1.9 -0.3 1.5 0.35 1.45 0.45 1.3 0.6 1.2 0.65 1.15 0.75 1.15 0.9 1.0 0.95 0.9 1.1 0.8 1.1 0.55 1.2 0.5 1.2 0.35 1.25 0.2 1.3 -0.2 1.25 -0.4 1.05 -0.7 0.75 -0.85 0.65 -1.2 -0.05 -1.7 -0.95 -1.7 -1.1 -1.7 -1.2 -1.7 -1.3 -1.7 -1.4 -1.65 -1.45 -1.5 -1.6 -1.45 -1.7 -1.3 -1.75 -1.05 -1.75 -1.05 -1.85 -0.9 -1.75 -0.7 -1.7 -0.45 -1.6 -0.4 -1.55 -0.35 -1.4 -0.25 -1.2 -0.25 -1.1 0.2 -0.5 0.35 -0.3 0.4 -0.45 0.4 -0.6 0.65 -1.05 0.7 -1.25 0.7 -1.4 0.7 -1.55 0.8 -1.6 0.9 -1.75 1.0 -1.85 1.15 -1.9 1.35 -1.9 1.35 -2.0" fill="#ffffff" fill-rule="evenodd" stroke="none"/>
  </g>
</svg>
