<?xml version="1.0" encoding="UTF-8" standalone="no"?>
<svg xmlns:ffdec="https://www.free-decompiler.com/flash" xmlns:xlink="http://www.w3.org/1999/xlink" ffdec:objectType="shape" height="4.35px" width="45.7px" xmlns="http://www.w3.org/2000/svg">
  <g transform="matrix(1.0, 0.0, 0.0, 1.0, 21.4, -5.65)">
    <path d="M24.05 7.4 L24.1 7.45 24.1 7.75 24.15 7.8 24.15 7.95 24.2 8.0 24.2 8.05 24.25 8.1 24.25 8.15 24.3 8.2 24.3 8.35 24.25 8.4 24.25 8.5 24.1 8.65 24.05 8.7 24.05 8.75 24.0 8.8 24.0 8.9 23.95 8.95 23.6 9.3 23.55 9.35 23.5 9.4 23.45 9.45 23.35 9.55 23.35 9.6 23.3 9.65 23.25 9.7 23.15 9.75 23.1 9.8 23.05 9.8 22.95 9.9 22.85 9.95 22.75 9.95 22.75 10.0 22.65 10.0 21.35 10.0 21.3 10.0 21.2 9.95 21.15 9.95 21.05 9.9 20.15 9.9 20.1 9.9 20.0 9.85 16.75 9.85 16.65 9.9 16.6 9.9 14.0 9.9 13.9 9.95 13.85 9.95 13.75 9.95 13.7 10.0 7.55 10.0 7.45 10.0 7.35 9.95 7.3 9.95 7.2 9.9 5.6 9.9 5.55 9.9 5.45 9.85 4.9 9.85 4.85 9.85 4.75 9.8 3.9 9.8 3.85 9.8 3.75 9.8 0.3 9.75 0.2 9.75 0.1 9.7 0.05 9.7 -0.05 9.65 -1.4 9.65 -1.45 9.65 -1.55 9.6 -12.05 9.6 -12.05 9.65 -12.15 9.65 -12.2 9.65 -20.75 9.65 -20.8 9.6 -20.85 9.55 -20.9 9.5 -20.95 9.45 -21.0 9.4 -21.05 9.35 -21.05 9.3 -21.1 9.25 -21.15 9.2 -21.2 9.15 -21.2 9.05 -21.25 9.05 -21.25 9.0 -21.3 8.95 -21.35 8.9 -21.4 8.85 -21.4 7.55 -21.35 7.5 -21.35 7.45 -21.3 7.4 -21.25 7.35 -21.2 7.3 -21.2 7.25 -21.15 7.2 -21.1 7.15 -21.0 7.1 -21.0 7.05 -20.9 7.05 -19.35 7.05 -19.25 7.05 -19.15 7.05 -16.9 7.1 -16.8 7.1 -16.7 7.1 -16.4 7.15 -16.35 7.15 -16.25 7.15 -11.25 7.15 -11.15 7.15 -11.1 7.15 -9.55 7.1 -9.45 7.1 -9.4 7.1 -8.95 7.05 -8.85 7.05 -8.8 7.05 -8.7 7.05 -8.7 7.0 -8.65 7.0 -8.55 7.0 -8.5 6.95 -8.2 6.9 -8.1 6.9 -8.05 6.9 -7.55 6.85 -7.45 6.85 -7.4 6.85 -7.3 6.8 -6.8 6.8 -6.7 6.75 -6.65 6.75 -6.55 6.75 -6.5 6.7 -6.25 6.65 -6.15 6.65 -6.1 6.65 -5.0 6.6 -4.9 6.6 -4.85 6.6 -3.65 6.55 -3.55 6.55 -3.5 6.55 -2.9 6.55 -2.8 6.5 -2.75 6.5 -2.65 6.5 -2.6 6.45 -2.05 6.4 -1.95 6.4 -1.9 6.4 -1.7 6.35 -1.6 6.35 -1.55 6.35 -1.45 6.3 -1.4 6.3 -1.3 6.25 -1.2 6.2 -1.15 6.15 -1.1 6.1 -1.05 6.05 -1.0 6.05 -0.95 6.0 -0.95 5.95 -0.9 5.95 -0.8 5.9 -0.7 5.85 -0.65 5.85 -0.45 5.8 -0.35 5.8 -0.3 5.8 -0.2 5.8 -0.2 5.75 -0.15 5.75 -0.05 5.75 -0.05 5.7 0.05 5.7 0.15 5.65 0.2 5.65 1.55 5.65 1.6 5.7 1.65 5.75 1.75 5.8 1.85 5.8 1.85 5.85 1.95 5.9 2.05 5.95 2.1 6.0 2.15 6.0 2.2 6.05 2.3 6.15 2.35 6.2 2.4 6.25 2.5 6.3 2.6 6.3 2.6 6.35 2.7 6.4 2.8 6.45 2.85 6.5 2.95 6.55 3.05 6.6 3.1 6.65 3.15 6.65 3.25 6.7 3.35 6.75 3.4 6.8 3.5 6.8 3.55 6.8 3.6 6.85 3.7 6.85 3.75 6.85 3.8 6.9 3.85 6.9 3.95 6.95 4.05 7.0 4.1 7.0 4.2 7.05 4.35 7.05 4.45 7.05 4.55 7.05 4.65 7.1 4.75 7.1 4.85 7.1 5.3 7.15 5.35 7.15 5.45 7.15 5.75 7.2 5.85 7.2 5.9 7.25 6.0 7.25 6.1 7.3 9.1 7.3 9.2 7.25 9.25 7.25 9.35 7.25 9.4 7.2 9.6 7.15 9.7 7.15 9.75 7.15 10.2 7.1 10.3 7.1 10.35 7.1 10.45 7.05 11.2 7.05 11.3 7.0 11.35 7.0 11.45 7.0 11.5 6.95 11.85 6.9 11.95 6.9 12.0 6.9 12.1 6.85 12.15 6.85 12.5 6.8 12.6 6.8 12.65 6.8 12.95 6.8 13.05 6.75 13.1 6.75 13.2 6.75 13.25 6.7 14.0 6.65 14.1 6.65 14.15 6.65 14.35 6.6 14.45 6.6 14.6 6.6 14.7 6.6 16.3 6.65 16.35 6.65 16.45 6.65 17.2 6.7 17.3 6.7 17.35 6.75 17.45 6.75 17.55 6.8 18.9 6.8 19.0 6.8 19.1 6.8 19.85 6.85 19.9 6.85 20.0 6.85 20.85 6.9 20.9 6.9 21.0 6.9 22.55 6.9 22.6 6.9 22.7 6.95 22.8 7.0 22.85 7.0 22.95 7.05 23.05 7.05 23.15 7.1 23.3 7.1 23.35 7.15 23.45 7.2 23.55 7.25 23.6 7.25 23.7 7.3 23.85 7.3 23.95 7.3 24.05 7.35 24.05 7.4" fill="#000000" fill-rule="evenodd" stroke="none"/>
  </g>
</svg>
