<?xml version="1.0" encoding="UTF-8" standalone="no"?>
<svg xmlns:ffdec="https://www.free-decompiler.com/flash" xmlns:xlink="http://www.w3.org/1999/xlink" ffdec:objectType="shape" height="24.45px" width="24.5px" xmlns="http://www.w3.org/2000/svg">
  <g transform="matrix(1.0, 0.0, 0.0, 1.0, 12.7, 28.8)">
    <path d="M11.35 -19.55 L11.2 -19.6 10.8 -19.65 Q11.3 -17.6 10.8 -14.35 L10.25 -12.45 -11.0 -12.45 10.25 -12.45 Q9.2 -10.1 6.45 -7.6 5.5 -6.95 4.45 -6.45 L2.0 -5.45 0.95 -5.15 0.0 -5.1 -2.1 -5.25 Q-3.8 -5.3 -6.25 -6.85 -8.7 -8.4 -9.9 -10.5 L-11.0 -12.45 -11.5 -13.45 Q-11.95 -14.35 -12.05 -15.4 -12.3 -18.15 -11.3 -20.7 -11.05 -21.4 -10.45 -21.8 L-10.65 -22.15 Q-11.2 -22.0 -11.55 -21.55 -10.7 -23.55 -9.0 -25.25 -6.25 -28.0 -2.6 -28.6 L-2.55 -28.6 -2.45 -28.6 -2.35 -28.6 -2.25 -28.65 -2.2 -28.65 -0.45 -28.8 Q4.55 -28.8 8.1 -25.25 10.6 -22.75 11.35 -19.55 M-8.45 -7.7 Q-7.55 -6.8 -6.35 -6.2 L-6.5 -6.2 -8.45 -7.6 -8.45 -7.7 M4.05 -5.4 Q6.85 -6.65 8.9 -9.05 L8.1 -8.15 Q6.25 -6.3 4.05 -5.4 M-3.65 -24.05 L-3.75 -24.05 -3.85 -24.0 -3.95 -24.0 -4.05 -23.95 -4.1 -23.9 -4.1 -23.85 -4.15 -23.8 -4.2 -23.75 -4.2 -23.35 -4.15 -23.3 -4.1 -23.3 -4.1 -23.25 -4.05 -23.2 -3.95 -23.15 -3.85 -23.1 -3.75 -23.1 -3.7 -23.1 -3.6 -23.1 -3.5 -23.15 -3.45 -23.2 -3.4 -23.25 -3.35 -23.3 -3.3 -23.3 -3.25 -23.35 -3.25 -23.4 -3.2 -23.45 -3.2 -23.75 -3.25 -23.8 -3.25 -23.85 -3.45 -24.05 -3.55 -24.05 -3.65 -24.05" fill="#00b3ff" fill-rule="evenodd" stroke="none"/>
    <path d="M10.25 -12.45 L10.8 -14.35 Q11.3 -17.6 10.8 -19.65 L11.2 -19.6 11.35 -19.55 11.8 -18.75 11.7 -15.85 Q11.6 -14.25 11.05 -12.8 L10.9 -12.45 10.25 -12.45 10.9 -12.45 9.7 -10.05 9.0 -9.15 8.9 -9.05 Q6.85 -6.65 4.05 -5.4 L2.3 -4.8 Q-1.5 -3.7 -5.1 -5.4 L-5.2 -5.35 -5.7 -5.55 -5.7 -5.6 -5.75 -5.65 -5.75 -5.85 -5.8 -5.9 -5.8 -5.95 -6.0 -6.15 -6.1 -6.15 -6.35 -6.2 Q-7.55 -6.8 -8.45 -7.7 L-8.5 -7.75 -8.5 -7.8 -8.6 -7.9 -8.65 -8.0 -8.7 -8.05 -8.8 -8.1 -9.0 -8.35 -9.3 -8.8 -9.5 -9.0 -9.6 -9.05 -9.65 -9.15 -9.75 -9.25 -9.8 -9.3 -9.85 -9.35 -9.9 -9.4 -9.95 -9.45 -9.95 -9.5 -10.0 -9.55 -10.0 -9.6 -10.05 -9.65 -10.1 -9.75 -10.1 -9.85 -10.15 -9.9 -10.15 -9.95 -10.2 -10.0 -10.2 -10.1 -10.45 -10.35 -10.6 -10.6 -10.75 -10.75 -10.85 -10.8 -10.85 -10.85 -10.9 -10.9 -10.9 -10.95 -10.95 -11.0 -10.95 -11.05 -11.0 -11.1 -11.05 -11.15 -11.1 -11.25 -11.1 -11.3 -11.15 -11.35 -11.15 -11.4 -11.2 -11.45 -11.25 -11.5 -11.25 -11.55 -11.3 -11.6 -11.3 -11.8 -11.35 -11.85 -11.35 -11.95 -11.4 -12.0 -11.5 -12.1 -11.5 -12.15 -11.55 -12.2 -11.55 -12.25 -11.6 -12.45 -11.75 -12.6 -12.0 -12.9 -12.05 -13.0 -12.55 -16.05 -12.65 -17.05 Q-12.85 -18.75 -12.2 -20.25 L-11.9 -20.95 -11.55 -21.55 Q-11.2 -22.0 -10.65 -22.15 L-10.45 -21.8 Q-11.05 -21.4 -11.3 -20.7 -12.3 -18.15 -12.05 -15.4 -11.95 -14.35 -11.5 -13.45 L-11.0 -12.45 -9.9 -10.5 Q-8.7 -8.4 -6.25 -6.85 -3.8 -5.3 -2.1 -5.25 L0.0 -5.1 0.95 -5.15 2.0 -5.45 4.45 -6.45 Q5.5 -6.95 6.45 -7.6 9.2 -10.1 10.25 -12.45 M-11.6 -12.45 L-11.0 -12.45 -11.6 -12.45" fill="#000000" fill-rule="evenodd" stroke="none"/>
  </g>
</svg>
