<?xml version="1.0" encoding="UTF-8" standalone="no"?>
<svg xmlns:ffdec="https://www.free-decompiler.com/flash" xmlns:xlink="http://www.w3.org/1999/xlink" ffdec:objectType="shape" height="9.8px" width="20.9px" xmlns="http://www.w3.org/2000/svg">
  <g transform="matrix(1.0, 0.0, 0.0, 1.0, 10.5, 9.3)">
    <path d="M9.9 -6.2 L9.9 -3.2 Q9.9 -3.1 9.8 -3.15 L9.7 -3.15 9.25 -2.95 8.9 -3.1 Q8.6 -3.05 8.35 -3.25 L8.15 -3.4 7.9 -3.5 7.7 -3.65 7.45 -3.55 7.1 -3.55 6.25 -3.45 6.05 -3.7 6.0 -3.65 5.9 -3.5 5.85 -3.45 Q5.25 -3.05 4.9 -3.65 L4.8 -4.05 Q4.2 -3.6 3.85 -4.25 L3.75 -4.7 Q3.35 -4.1 2.75 -4.5 2.5 -4.65 2.5 -4.9 2.15 -4.85 1.9 -5.05 L1.75 -5.3 1.7 -5.3 1.7 -5.25 1.65 -5.2 1.65 -5.15 Q1.4 -4.9 1.1 -4.95 L0.8 -5.2 0.25 -5.25 -0.05 -5.4 -0.05 -5.35 -0.1 -5.35 -0.15 -5.25 -0.15 -5.2 -0.45 -5.0 -0.7 -4.95 Q-0.9 -4.3 -1.55 -4.15 -1.85 -4.1 -2.0 -4.4 L-2.05 -4.5 -2.65 -4.5 -2.9 -4.8 -3.3 -4.55 -3.75 -4.5 Q-4.1 -3.7 -4.85 -3.9 L-5.15 -4.25 -5.3 -4.15 -5.35 -4.05 -5.4 -3.95 -5.6 -3.8 -5.85 -3.75 Q-6.0 -3.35 -6.35 -3.25 -6.8 -3.15 -7.0 -3.5 L-7.45 -3.55 -7.6 -3.65 Q-7.8 -3.45 -8.1 -3.5 L-8.45 -3.75 -8.7 -3.6 -9.0 -3.6 Q-9.7 -3.0 -9.95 -3.9 L-10.0 -4.15 -10.0 -5.1 -9.5 -5.55 -8.75 -5.7 -8.7 -5.7 -9.45 -5.75 -9.5 -5.8 -9.55 -5.8 -9.85 -5.85 -9.9 -5.9 -9.9 -5.95 -10.0 -6.0 -10.0 -6.1 -9.9 -6.15 -6.55 -6.2 -5.5 -6.2 -4.65 -6.25 -0.75 -6.95 -0.55 -7.0 -0.5 -7.0 -0.05 -7.15 0.0 -7.15 0.1 -7.2 0.15 -7.25 0.3 -7.25 0.4 -7.25 0.45 -7.25 1.2 -7.55 1.3 -7.65 1.35 -7.65 1.45 -7.7 1.55 -7.7 1.8 -7.6 1.95 -7.5 2.3 -7.4 2.45 -7.3 2.5 -7.25 2.55 -7.25 2.6 -7.2 2.7 -7.2 2.7 -7.15 2.85 -7.15 2.95 -7.1 3.35 -6.95 4.0 -6.85 4.05 -6.9 4.55 -6.75 4.6 -6.75 4.85 -6.75 5.7 -6.55 6.7 -6.4 6.9 -6.35 7.05 -6.4 7.2 -6.4 7.5 -6.4 9.55 -6.25 9.9 -6.2 M-5.45 -5.75 L-7.45 -5.75 -8.1 -5.7 -7.9 -5.55 -7.55 -5.65 -7.15 -5.5 -6.7 -5.65 -6.35 -5.5 -6.0 -5.55 -5.65 -5.5 -5.45 -5.75 M-4.15 -5.85 L-4.25 -5.85 -4.35 -5.85 -4.3 -5.8 -4.3 -5.75 -4.15 -5.85" fill="#fe8001" fill-rule="evenodd" stroke="none"/>
    <path d="M3.7 -5.2 Q4.15 -5.15 4.4 -4.75 L4.45 -4.55 4.85 -4.55 5.1 -4.45 6.0 -4.4 6.1 -4.3 7.05 -4.35 7.1 -4.25 7.4 -4.2 7.55 -4.1 8.1 -4.3 8.35 -4.25 Q8.55 -4.85 9.15 -4.6 L9.35 -4.45 9.55 -3.75 9.55 -3.2 9.75 -3.15 9.9 -3.05 9.9 0.05 9.4 0.45 8.85 0.3 8.8 0.15 7.8 0.05 7.75 -0.05 6.9 -0.2 6.85 -0.25 Q6.25 -0.15 6.05 -0.7 L6.05 -0.95 Q5.7 -0.9 5.45 -1.15 L5.35 -1.3 Q4.7 -0.9 4.35 -1.6 L4.3 -1.7 Q3.7 -1.55 3.55 -2.15 L3.5 -2.4 3.05 -2.4 2.8 -2.55 Q2.5 -2.0 1.9 -2.3 L1.75 -2.45 1.25 -2.55 1.1 -2.7 0.95 -2.7 0.7 -2.65 0.3 -2.45 0.0 -2.4 Q-0.7 -1.75 -1.1 -2.6 L-1.15 -2.7 -1.4 -2.6 -1.7 -2.6 Q-1.75 -1.85 -2.45 -1.6 -2.8 -1.45 -2.95 -1.85 L-3.05 -1.85 -3.15 -1.9 -3.2 -1.9 Q-3.3 -1.5 -3.65 -1.45 L-4.0 -1.4 Q-4.1 -1.15 -4.35 -1.1 L-4.75 -1.1 -5.75 -1.05 -5.8 -1.25 -6.0 -1.25 -6.25 -1.3 -7.2 -1.35 -7.25 -1.45 Q-7.45 -0.8 -7.95 -0.35 -8.0 -0.25 -8.15 -0.25 L-8.65 -0.6 -8.8 -0.6 -9.1 -0.7 Q-9.8 -0.45 -10.0 -1.0 L-10.0 -3.05 -9.9 -3.55 Q-9.35 -4.15 -8.6 -3.8 L-8.2 -3.9 -7.95 -3.9 -7.65 -4.35 -7.25 -4.35 Q-7.0 -4.7 -6.6 -4.65 L-6.3 -4.45 -6.3 -4.4 -6.25 -4.35 -6.05 -4.3 -5.75 -4.3 Q-5.5 -4.7 -5.05 -4.55 L-4.85 -4.4 -4.85 -4.35 -4.8 -4.3 -4.35 -4.4 -4.2 -4.4 Q-4.0 -4.8 -3.55 -4.65 L-3.35 -4.5 -3.35 -4.45 -3.3 -4.4 -3.1 -4.45 -2.95 -4.45 -2.5 -5.05 -2.05 -5.15 Q-1.85 -5.5 -1.45 -5.45 L-1.15 -5.35 Q-1.0 -5.95 -0.45 -6.05 L0.0 -5.9 0.1 -5.95 0.3 -5.95 0.45 -6.1 0.8 -6.25 1.05 -6.15 1.2 -6.05 1.3 -5.8 1.3 -5.4 1.3 -5.35 1.4 -5.35 1.5 -5.3 Q1.8 -5.65 2.2 -5.55 L2.4 -5.4 2.4 -5.35 2.45 -5.3 2.45 -5.2 2.5 -5.15 Q2.85 -5.95 3.55 -5.4 L3.7 -5.2" fill="#ff4d00" fill-rule="evenodd" stroke="none"/>
    <path d="M8.95 -5.85 L9.25 -5.9 9.6 -5.8 9.7 -5.85 9.9 -5.8 9.9 -5.75 8.95 -5.85" fill="#ff4d00" fill-rule="evenodd" stroke="none"/>
    <path d="M8.95 -5.85 L4.6 -6.75 4.05 -6.9 Q2.7 -7.3 1.5 -7.85 -2.9 -5.85 -9.0 -5.85 L-10.0 -5.85 M8.95 -5.85 L9.9 -5.75" fill="none" stroke="#000000" stroke-linecap="round" stroke-linejoin="round" stroke-width="1.0"/>
    <path d="M5.45 -7.95 L5.55 -7.9 5.6 -7.85 5.7 -7.8 5.9 -7.7 6.15 -7.65 6.25 -7.6 6.3 -7.55 6.35 -7.55 6.55 -7.5 6.7 -7.45 6.95 -7.3 7.3 -7.25 7.6 -7.1 7.65 -7.05 7.9 -7.05 8.1 -7.0 8.15 -6.95 8.5 -6.95 8.6 -6.9 8.65 -6.85 9.9 -6.75 9.9 -5.75 7.8 -6.0 7.5 -6.05 7.15 -6.2 7.1 -6.25 6.7 -6.35 6.4 -6.45 6.35 -6.5 6.1 -6.55 5.9 -6.65 5.75 -6.7 5.45 -6.85 5.25 -6.9 5.1 -6.95 4.45 -7.05 Q4.2 -7.05 4.0 -7.2 L3.6 -7.3 3.3 -7.45 3.15 -7.5 2.3 -7.8 1.7 -8.1 1.45 -8.3 1.4 -8.3 1.3 -8.35 1.25 -8.3 1.2 -8.25 1.1 -8.2 1.0 -8.15 0.9 -8.1 0.85 -8.0 0.6 -7.85 0.45 -7.75 0.4 -7.7 0.35 -7.65 0.3 -7.6 0.2 -7.6 0.1 -7.55 0.0 -7.5 -0.05 -7.45 -0.1 -7.4 -0.2 -7.35 -0.3 -7.3 -0.4 -7.3 -0.45 -7.25 -0.55 -7.25 -0.6 -7.25 -0.7 -7.2 -0.75 -7.15 -0.85 -7.1 -1.0 -7.1 Q-1.15 -7.05 -1.35 -6.95 L-1.5 -6.9 -1.6 -6.85 -1.75 -6.8 -1.85 -6.8 -1.9 -6.75 -2.0 -6.75 -2.05 -6.75 -2.15 -6.7 Q-2.25 -6.6 -2.4 -6.6 L-2.9 -6.5 Q-3.05 -6.35 -3.2 -6.35 L-3.8 -6.1 -6.45 -5.9 -6.5 -5.9 -6.55 -5.85 Q-8.25 -5.55 -10.0 -5.85 L-10.0 -6.95 -9.8 -6.9 -9.75 -6.85 -9.7 -6.8 -6.75 -6.85 -6.7 -6.9 -4.2 -7.05 -4.15 -7.1 -4.05 -7.15 -3.95 -7.15 -3.9 -7.2 -3.75 -7.2 -3.7 -7.25 -3.6 -7.3 -3.45 -7.3 -3.2 -7.45 -2.65 -7.55 -2.55 -7.6 -2.45 -7.65 -2.4 -7.7 -2.3 -7.75 -2.2 -7.75 -2.1 -7.8 -1.95 -7.8 -1.7 -7.95 -1.4 -8.05 -1.3 -8.05 -1.25 -8.1 -1.05 -8.15 -0.75 -8.25 -0.65 -8.3 -0.6 -8.3 -0.45 -8.4 -0.3 -8.45 -0.25 -8.5 -0.2 -8.55 -0.05 -8.65 0.05 -8.7 0.1 -8.75 0.1 -8.8 0.25 -8.85 0.45 -8.95 0.6 -9.1 0.65 -9.15 0.75 -9.2 0.8 -9.2 0.9 -9.25 1.0 -9.25 1.1 -9.25 1.2 -9.2 1.25 -9.25 1.3 -9.25 1.4 -9.25 1.5 -9.3 1.65 -9.25 1.75 -9.25 1.85 -9.2 1.95 -9.15 2.05 -9.1 2.1 -9.1 2.35 -8.95 2.5 -8.85 2.6 -8.8 2.9 -8.65 3.05 -8.6 3.4 -8.5 3.7 -8.35 3.85 -8.3 4.15 -8.2 4.4 -8.15 4.55 -8.1 5.15 -8.0 5.45 -7.95" fill="#000000" fill-rule="evenodd" stroke="none"/>
  </g>
</svg>
