<?xml version="1.0" encoding="UTF-8" standalone="no"?>
<svg xmlns:ffdec="https://www.free-decompiler.com/flash" xmlns:xlink="http://www.w3.org/1999/xlink" ffdec:objectType="shape" height="10.25px" width="20.6px" xmlns="http://www.w3.org/2000/svg">
  <g transform="matrix(1.0, 0.0, 0.0, 1.0, 10.3, 9.25)">
    <path d="M8.55 -6.35 L9.25 -6.45 9.3 -6.5 9.35 -6.5 9.5 -6.5 9.7 -6.55 9.75 -6.6 9.85 -6.6 9.9 -6.65 9.9 -3.3 9.65 -3.25 9.6 -3.2 9.6 -3.15 9.5 -3.05 Q9.1 -2.75 8.75 -3.05 L8.6 -3.25 8.55 -3.25 8.45 -3.25 8.35 -3.25 Q8.0 -2.95 7.65 -3.25 L7.55 -3.4 7.35 -3.45 7.25 -3.5 Q6.95 -3.1 6.5 -3.2 L6.1 -3.55 5.7 -3.55 Q5.55 -3.55 5.45 -3.65 5.1 -3.25 4.65 -3.5 L4.35 -3.85 3.75 -3.7 3.55 -3.75 Q3.4 -3.35 3.0 -3.35 2.65 -3.35 2.5 -3.7 L2.1 -3.75 1.85 -3.95 1.25 -3.9 1.05 -4.1 Q0.7 -4.05 0.4 -4.3 L0.3 -4.4 -0.25 -4.45 -0.4 -4.6 Q-0.85 -4.6 -1.1 -4.95 L-1.25 -5.25 -1.6 -5.3 -1.75 -5.35 Q-1.85 -5.05 -2.1 -4.9 L-2.65 -4.75 Q-2.75 -4.4 -3.05 -4.3 L-3.75 -4.35 -4.25 -4.4 -4.4 -4.5 -4.8 -4.4 -5.0 -4.45 Q-5.15 -4.15 -5.45 -4.0 -5.75 -3.85 -6.0 -4.0 L-6.4 -3.85 -6.65 -3.85 -6.8 -3.75 -7.0 -3.7 -7.35 -3.3 -7.75 -3.3 Q-8.0 -3.05 -8.35 -3.1 L-8.65 -3.3 Q-9.45 -2.7 -9.95 -3.6 L-10.0 -3.7 -10.0 -5.1 -9.95 -5.55 -9.9 -5.6 -9.95 -5.6 -10.0 -5.6 -10.0 -6.1 -9.95 -6.15 -10.0 -6.15 -10.0 -6.35 -9.95 -6.4 -5.4 -6.75 -4.8 -6.8 -4.6 -6.85 -4.4 -6.9 -4.0 -6.95 -3.95 -6.95 -3.9 -7.0 -3.55 -7.05 -3.3 -7.1 -3.1 -7.15 -2.85 -7.25 -2.8 -7.25 -2.55 -7.35 -2.15 -7.45 -2.05 -7.45 -1.95 -7.5 -1.9 -7.5 -1.85 -7.5 -1.75 -7.65 -1.45 -7.75 -1.2 -7.65 -1.05 -7.55 -0.85 -7.5 -0.75 -7.4 -0.45 -7.35 -0.4 -7.35 -0.3 -7.3 -0.25 -7.25 1.0 -6.8 1.6 -6.75 2.75 -6.6 2.8 -6.55 5.05 -6.45 5.15 -6.45 8.35 -6.3 8.55 -6.35 M7.95 -5.6 L7.9 -5.6 7.85 -5.65 7.8 -5.65 5.85 -5.65 6.1 -5.5 6.85 -5.35 6.9 -5.3 7.25 -5.4 7.55 -5.35 8.0 -5.55 7.95 -5.6 M5.25 -5.65 L5.1 -5.65 5.15 -5.6 5.25 -5.65" fill="#fe8001" fill-rule="evenodd" stroke="none"/>
    <path d="M2.75 -3.5 L3.5 -3.6 3.65 -3.5 3.7 -3.4 3.7 -3.35 3.75 -3.3 4.05 -4.05 Q4.3 -4.45 4.75 -4.3 5.0 -4.8 5.5 -4.65 L5.7 -4.5 5.85 -3.85 5.85 -3.25 5.9 -3.35 5.95 -3.5 6.05 -3.6 Q6.2 -4.2 6.8 -4.0 L7.1 -3.8 7.75 -3.9 7.95 -3.8 8.6 -3.85 8.75 -3.7 Q9.25 -4.25 9.7 -3.7 L9.8 -3.5 9.9 -3.25 9.9 -1.05 9.75 -0.9 Q9.55 -0.65 9.2 -0.7 L8.65 0.0 8.1 -0.05 7.5 0.15 7.3 0.1 6.35 0.15 6.25 0.05 Q5.9 0.5 5.3 0.35 L5.2 0.3 Q4.95 0.9 4.35 0.7 L4.0 0.5 Q3.75 1.15 3.15 0.95 L2.9 0.75 Q2.05 1.35 1.8 0.4 L1.75 -0.25 1.75 -0.95 Q1.15 -0.8 0.9 -1.35 L0.85 -1.65 Q0.3 -1.45 -0.1 -1.95 L-0.15 -2.05 Q-0.7 -1.85 -1.05 -2.3 L-1.15 -2.45 Q-1.65 -2.3 -2.0 -2.75 L-2.05 -2.8 -2.2 -2.85 -2.4 -2.85 -2.65 -2.3 -3.05 -2.0 -3.25 -1.55 -3.4 -1.2 Q-4.0 -0.7 -4.45 -1.3 L-4.55 -1.5 -4.7 -1.5 -5.0 -1.45 -5.2 -1.0 -5.4 -0.65 -6.3 -0.6 Q-6.65 -0.05 -7.25 -0.35 L-7.4 -0.5 -7.75 -0.35 -7.95 -0.35 -8.2 0.1 Q-8.35 0.3 -8.55 0.3 L-9.55 0.35 -9.6 0.25 -10.0 -0.2 -10.0 -1.9 -10.0 -2.45 Q-9.95 -3.1 -9.5 -3.55 L-9.15 -3.7 -8.95 -3.7 -8.95 -3.8 -8.9 -3.85 Q-8.65 -4.3 -8.2 -4.05 L-8.05 -3.95 -7.65 -4.3 -7.25 -4.3 -7.25 -4.4 -7.25 -4.5 -7.2 -4.55 Q-7.0 -5.0 -6.5 -4.85 L-6.35 -4.75 -5.55 -4.9 -5.4 -4.8 -5.35 -4.7 -5.35 -4.65 -5.3 -4.6 -4.7 -4.6 -4.55 -4.5 Q-4.55 -4.95 -4.15 -5.1 L-3.55 -5.0 -3.55 -4.95 -3.5 -4.9 -3.5 -4.85 -3.25 -4.85 -3.0 -4.9 Q-3.0 -5.35 -2.65 -5.6 L-2.05 -5.7 -1.9 -6.2 -1.5 -6.45 -1.2 -6.35 -1.05 -6.25 -1.0 -6.15 -1.0 -6.1 -0.95 -6.05 Q-0.45 -6.2 -0.2 -5.7 L-0.15 -5.45 0.55 -5.6 0.7 -5.5 0.8 -5.25 0.85 -4.8 Q1.5 -5.0 1.7 -4.35 L1.8 -4.0 Q2.35 -4.45 2.7 -3.8 L2.75 -3.5" fill="#ff4d00" fill-rule="evenodd" stroke="none"/>
    <path d="M9.8 -6.0 Q2.9 -5.85 -1.5 -7.85 -3.7 -6.85 -6.25 -6.35 M-9.8 -5.7 L-9.4 -5.8 -6.8 -6.25" fill="none" stroke="#000000" stroke-linecap="round" stroke-linejoin="round" stroke-width="1.0"/>
    <path d="M5.9 -7.1 L9.9 -7.0 9.9 -6.0 9.85 -6.0 9.85 -5.95 9.8 -5.9 9.8 -5.85 9.75 -5.8 9.75 -5.75 9.65 -5.65 9.6 -5.6 9.5 -5.55 5.2 -5.65 4.75 -5.7 3.6 -5.95 3.5 -6.0 3.25 -6.1 Q3.05 -6.1 2.9 -6.2 L2.55 -6.3 2.5 -6.3 2.3 -6.35 2.1 -6.45 1.95 -6.55 1.85 -6.6 1.75 -6.65 1.65 -6.65 1.65 -6.7 1.6 -6.7 1.5 -6.75 1.45 -6.8 1.4 -6.8 1.25 -6.85 1.1 -6.85 0.9 -6.95 0.85 -7.0 0.8 -7.05 0.6 -7.1 0.55 -7.15 0.45 -7.15 0.4 -7.2 0.25 -7.25 0.0 -7.35 -0.15 -7.4 -0.25 -7.45 -0.3 -7.5 -0.45 -7.6 -0.6 -7.65 -0.75 -7.8 -0.8 -7.85 -1.0 -7.95 -1.1 -7.95 -1.15 -8.05 -1.2 -8.1 -1.25 -8.1 -1.3 -8.1 -1.55 -7.95 -2.05 -7.75 -2.15 -7.7 -2.2 -7.65 -2.45 -7.55 -2.8 -7.35 -2.9 -7.3 -3.3 -7.2 -3.7 -7.05 -3.75 -7.0 -3.85 -7.0 -3.95 -6.95 -4.05 -6.9 -4.1 -6.9 -4.15 -6.85 -4.8 -6.7 -5.6 -6.5 -5.7 -6.45 -5.8 -6.4 -5.85 -6.4 -5.9 -6.35 -6.05 -6.35 -6.15 -6.3 -6.4 -6.25 -6.45 -6.2 -6.55 -6.2 -7.85 -5.95 -8.05 -5.9 -10.0 -5.75 -10.0 -6.65 -8.45 -6.8 -8.35 -6.85 -8.25 -6.85 -8.2 -6.9 -7.75 -7.0 -7.05 -7.05 -6.95 -7.1 -6.9 -7.15 -6.7 -7.2 -6.55 -7.25 -6.4 -7.3 -5.95 -7.4 -5.35 -7.55 -5.05 -7.75 -4.75 -7.8 -4.6 -7.8 -4.5 -7.85 -4.45 -7.9 -4.25 -7.95 -4.1 -8.0 -3.9 -8.05 -3.8 -8.1 -3.75 -8.15 -3.7 -8.15 -3.5 -8.2 -3.4 -8.25 -3.2 -8.3 -3.05 -8.4 -2.95 -8.45 -2.75 -8.5 -2.65 -8.6 -2.55 -8.65 -2.45 -8.65 -2.4 -8.7 -2.3 -8.7 -2.2 -8.75 -2.15 -8.8 -2.1 -8.85 -1.9 -8.95 -1.75 -9.05 -1.7 -9.1 -1.65 -9.1 -1.6 -9.15 -1.5 -9.2 -1.45 -9.25 -1.35 -9.25 -1.25 -9.25 -1.15 -9.25 -1.05 -9.2 -0.95 -9.15 -0.85 -9.05 -0.8 -9.0 -0.65 -8.95 -0.55 -8.9 -0.45 -8.85 -0.45 -8.8 -0.4 -8.8 -0.35 -8.75 -0.3 -8.75 -0.1 -8.75 0.0 -8.75 0.1 -8.7 0.2 -8.65 0.3 -8.55 0.35 -8.55 0.4 -8.5 0.55 -8.45 0.7 -8.4 0.85 -8.3 1.1 -8.15 1.65 -7.95 1.9 -7.8 2.0 -7.8 2.15 -7.7 2.3 -7.65 2.4 -7.6 2.5 -7.55 2.65 -7.5 2.85 -7.45 3.1 -7.4 3.2 -7.35 3.25 -7.3 5.75 -7.15 5.9 -7.1" fill="#000000" fill-rule="evenodd" stroke="none"/>
  </g>
</svg>
