<?xml version="1.0" encoding="UTF-8" standalone="no"?>
<svg xmlns:ffdec="https://www.free-decompiler.com/flash" xmlns:xlink="http://www.w3.org/1999/xlink" ffdec:objectType="shape" height="10.1px" width="20.9px" xmlns="http://www.w3.org/2000/svg">
  <g transform="matrix(1.0, 0.0, 0.0, 1.0, 10.5, 8.85)">
    <path d="M5.8 -6.6 L6.4 -6.55 6.6 -6.65 6.75 -6.65 6.75 -6.7 6.85 -6.7 6.85 -6.75 7.3 -6.85 7.45 -6.85 7.75 -6.9 7.95 -7.25 8.45 -7.35 8.65 -7.2 8.7 -7.15 8.85 -7.2 8.85 -7.3 9.0 -7.45 9.15 -7.55 9.25 -7.55 9.35 -7.6 9.9 -7.5 9.9 -4.75 9.5 -4.7 Q9.2 -4.05 8.45 -4.3 L8.0 -4.6 7.95 -4.5 7.9 -4.45 7.85 -4.35 7.55 -4.15 7.45 -4.15 7.2 -3.7 6.6 -3.6 Q6.2 -3.35 5.85 -3.75 L5.75 -4.15 5.6 -4.15 5.45 -4.15 5.2 -3.65 Q5.0 -3.35 4.6 -3.4 4.2 -2.85 3.65 -3.3 L3.5 -3.55 3.45 -3.3 3.3 -2.95 3.25 -2.9 3.2 -2.85 3.2 -2.75 3.15 -2.65 2.5 -2.5 2.2 -2.7 1.35 -2.75 1.25 -3.15 0.5 -3.05 0.3 -3.35 -0.15 -3.2 -0.35 -3.25 Q-0.9 -2.5 -1.35 -3.25 L-1.45 -3.7 Q-1.6 -3.5 -1.95 -3.45 -2.25 -3.4 -2.45 -3.65 L-2.9 -3.6 -3.2 -3.7 -3.55 -3.3 -4.1 -3.35 -4.25 -3.35 -4.75 -2.95 -5.15 -3.1 -6.0 -3.15 -6.2 -3.4 -7.1 -3.45 -7.2 -3.8 -7.45 -3.95 -7.6 -4.1 -7.85 -4.25 -7.9 -4.35 -8.4 -4.4 -8.5 -4.5 -8.7 -4.5 -10.0 -4.6 -10.0 -6.9 -10.0 -7.25 -10.0 -7.3 -9.9 -7.35 -9.8 -7.35 -9.7 -7.35 -9.65 -7.35 -9.45 -7.4 -9.05 -7.2 -8.8 -7.15 -8.5 -7.05 -5.25 -6.5 -4.4 -6.4 -0.25 -6.05 3.25 -6.2 4.45 -6.35 5.05 -6.35 5.6 -6.45 5.8 -6.6 M2.9 -5.25 L3.45 -5.65 2.5 -5.6 2.7 -5.5 2.9 -5.25 M4.05 -5.65 L4.1 -5.7 4.0 -5.7 4.05 -5.65 M0.55 -5.65 L0.85 -5.55 0.9 -5.65 0.45 -5.65 0.55 -5.65 M-6.0 -5.65 L-6.35 -5.75 -6.55 -5.75 -6.65 -5.75 -6.7 -5.75 -6.65 -5.7 -6.35 -5.65 -6.15 -5.65 -6.0 -5.65 M-5.5 -5.6 L-5.45 -5.6 -5.5 -5.6 M-5.1 -5.6 L-4.8 -5.5 -4.6 -5.3 -4.6 -5.25 -4.5 -5.25 Q-4.3 -5.6 -3.9 -5.55 -3.7 -5.55 -3.55 -5.35 L-3.05 -5.3 -2.9 -5.25 -2.2 -5.45 -1.9 -5.4 -1.5 -5.7 -2.95 -5.7 -4.4 -5.75 -5.0 -5.75 -5.0 -5.7 -5.1 -5.65 -5.1 -5.6 M-0.65 -5.75 L-0.7 -5.75 -0.8 -5.75 -0.9 -5.7 -1.05 -5.7 -1.25 -5.7 -1.1 -5.65 -0.8 -5.4 -0.3 -5.5 -0.1 -5.45 0.35 -5.65 -0.1 -5.7 -0.65 -5.75" fill="#fe8001" fill-rule="evenodd" stroke="none"/>
    <path d="M2.65 -3.25 L2.7 -3.2 2.7 -3.15 3.3 -3.15 3.5 -3.0 Q3.7 -3.5 4.2 -3.35 L4.35 -3.25 Q4.45 -3.8 4.9 -4.05 L5.45 -3.95 5.5 -3.8 5.55 -3.65 5.55 -3.55 6.05 -4.6 6.9 -4.7 6.9 -4.65 6.95 -4.6 7.3 -4.65 7.6 -4.65 8.2 -5.1 8.5 -5.1 8.6 -5.35 8.85 -5.6 8.95 -5.65 9.05 -5.65 9.35 -5.55 9.5 -5.45 9.55 -5.3 9.6 -5.0 9.9 -5.05 9.9 -1.6 Q9.75 -1.6 9.55 -1.75 L9.4 -1.85 9.1 -1.85 8.95 -1.85 8.8 -1.5 8.65 -1.15 8.05 -0.9 7.75 -1.0 7.5 -0.75 7.2 -0.65 Q7.0 0.1 6.3 -0.1 6.1 -0.15 6.0 -0.35 5.9 0.3 5.3 0.5 L4.8 0.5 4.7 0.6 4.65 0.75 4.65 0.8 3.8 0.95 3.7 0.9 Q3.05 1.6 2.6 0.8 L2.45 0.6 2.0 0.35 1.85 0.2 1.3 0.5 1.0 0.45 Q0.8 0.85 0.35 0.8 L0.15 0.75 -1.0 0.7 -1.1 0.65 Q-1.4 1.2 -2.0 1.1 L-2.2 1.05 Q-2.8 1.2 -3.0 0.65 L-3.05 0.5 -3.65 0.75 -3.95 0.7 -4.9 0.8 -4.95 0.7 Q-5.5 0.95 -5.85 0.5 L-5.9 0.45 -6.4 0.2 -6.5 0.1 Q-7.0 0.25 -7.3 -0.15 L-7.35 -0.15 -7.5 -0.15 -7.6 -0.15 -8.7 -0.2 Q-9.1 -0.15 -9.35 -0.55 L-9.45 -0.7 -10.0 -1.05 -10.0 -4.45 Q-9.9 -4.85 -9.45 -4.9 -8.95 -5.3 -8.6 -4.75 L-8.5 -4.6 -8.15 -4.5 -8.0 -4.35 -7.7 -4.4 -7.45 -4.3 -6.75 -4.4 -6.6 -4.3 -6.55 -4.1 -6.5 -3.85 -6.5 -3.8 -5.95 -3.85 -5.75 -3.7 -5.75 -3.65 -5.7 -3.65 -5.7 -3.6 -5.2 -3.7 -5.0 -3.65 -4.4 -3.6 -4.25 -3.5 -4.15 -3.25 -4.15 -2.85 -3.75 -2.95 -3.45 -2.95 -3.45 -3.1 -3.4 -3.15 -2.45 -3.2 -2.35 -3.1 Q-2.4 -3.7 -1.85 -3.9 L-1.4 -3.75 -1.3 -3.3 -1.3 -2.85 Q-1.2 -3.4 -0.6 -3.4 L-0.3 -3.25 -0.25 -3.1 -0.15 -2.95 -0.15 -2.9 0.6 -3.0 0.75 -2.9 1.2 -2.9 1.4 -2.75 1.45 -2.6 1.5 -2.5 1.5 -2.4 Q1.55 -2.95 1.95 -3.3 2.3 -3.65 2.65 -3.3 L2.65 -3.25" fill="#ff4d00" fill-rule="evenodd" stroke="none"/>
    <path d="M9.9 -7.6 Q5.7 -5.85 0.0 -5.85 -5.8 -5.85 -10.0 -7.6" fill="none" stroke="#000000" stroke-linecap="round" stroke-linejoin="round" stroke-width="1.0"/>
    <path d="M7.2 -7.5 L7.3 -7.5 7.35 -7.55 7.5 -7.55 7.75 -7.7 8.25 -7.85 8.3 -7.9 8.35 -7.95 8.45 -8.0 8.55 -8.0 8.6 -8.05 8.7 -8.1 8.75 -8.15 8.9 -8.2 9.05 -8.25 9.2 -8.4 9.25 -8.45 9.35 -8.5 9.45 -8.55 9.5 -8.6 9.55 -8.6 9.7 -8.7 9.8 -8.75 9.9 -8.85 9.9 -7.1 9.75 -7.05 9.5 -6.85 9.2 -6.75 8.9 -6.6 8.35 -6.55 7.75 -6.45 7.7 -6.4 7.6 -6.35 7.0 -6.25 6.4 -6.15 6.05 -6.05 5.75 -5.9 5.65 -5.85 5.25 -5.8 4.65 -5.65 4.6 -5.65 4.6 -5.6 3.95 -5.55 -0.5 -5.55 -0.7 -5.55 -1.6 -5.65 -1.65 -5.65 -1.75 -5.65 -2.9 -5.8 -3.6 -5.95 -4.3 -6.05 -4.7 -6.15 -5.6 -6.3 -5.75 -6.3 -6.2 -6.4 -6.25 -6.4 -7.65 -6.65 -8.75 -7.0 -9.05 -7.1 -9.25 -7.15 -9.3 -7.2 -9.35 -7.25 -9.75 -7.4 -10.0 -7.5 -10.0 -8.75 -9.9 -8.7 -9.8 -8.65 -9.7 -8.55 -9.7 -8.5 -9.35 -8.3 -9.1 -8.2 -8.85 -8.1 -8.75 -8.05 -8.2 -7.9 -7.5 -7.65 -7.35 -7.55 -6.95 -7.5 -6.8 -7.45 -5.9 -7.4 -5.8 -7.35 -5.0 -7.25 -4.3 -7.15 -4.2 -7.1 -4.2 -7.05 -3.45 -7.0 -3.05 -6.85 -1.9 -6.75 -1.35 -6.6 1.8 -6.6 1.85 -6.65 2.5 -6.75 2.9 -6.8 3.0 -6.8 3.65 -7.0 4.45 -7.1 4.5 -7.15 4.55 -7.15 6.65 -7.3 6.75 -7.35 6.8 -7.4 6.85 -7.4 6.9 -7.45 7.0 -7.45 7.2 -7.5" fill="#000000" fill-rule="evenodd" stroke="none"/>
  </g>
</svg>
