<?xml version="1.0" encoding="UTF-8" standalone="no"?>
<svg xmlns:ffdec="https://www.free-decompiler.com/flash" xmlns:xlink="http://www.w3.org/1999/xlink" ffdec:objectType="shape" height="13.6px" width="7.95px" xmlns="http://www.w3.org/2000/svg">
  <g transform="matrix(1.0, 0.0, 0.0, 1.0, 5.6, 22.95)">
    <path d="M2.25 -13.9 L2.3 -12.65 2.35 -12.05 2.25 -11.35 Q2.15 -10.95 1.5 -10.7 L0.8 -10.55 Q0.5 -10.55 0.35 -10.8 L0.2 -11.05 -0.25 -10.55 -0.95 -9.8 -2.6 -9.85 -3.25 -11.5 Q-3.6 -12.25 -3.85 -12.25 L-4.2 -11.95 Q-4.45 -11.65 -4.75 -11.65 -5.25 -11.65 -5.45 -12.0 L-5.6 -12.35 -4.7 -14.2 -3.25 -15.65 Q-2.6 -15.65 -2.0 -14.4 -1.5 -13.3 -1.5 -12.4 L-1.55 -12.35 Q-1.5 -12.25 -1.35 -12.25 L-0.85 -12.7 -0.5 -13.7 Q-0.05 -15.15 1.15 -15.15 2.05 -15.15 2.25 -13.9 M1.5 -20.15 L1.4 -19.15 Q1.2 -18.55 0.25 -19.35 L0.05 -19.15 -0.3 -19.05 -0.55 -19.15 -0.8 -19.3 -1.1 -19.15 -1.35 -19.05 Q-1.95 -19.05 -2.1 -19.55 L-2.25 -20.2 -2.8 -20.15 -2.8 -19.65 -3.4 -19.25 Q-3.85 -19.25 -3.95 -19.7 L-4.0 -20.1 Q-4.0 -20.7 -3.0 -21.85 L-1.85 -22.95 Q0.3 -22.95 1.1 -21.65 1.5 -21.0 1.5 -20.15" fill="#8adcff" fill-rule="evenodd" stroke="none"/>
  </g>
</svg>
