<?xml version="1.0" encoding="UTF-8" standalone="no"?>
<svg xmlns:ffdec="https://www.free-decompiler.com/flash" xmlns:xlink="http://www.w3.org/1999/xlink" ffdec:objectType="shape" height="331.25px" width="211.45px" xmlns="http://www.w3.org/2000/svg">
  <g transform="matrix(1.0, 0.0, 0.0, 1.0, 106.75, 240.0)">
    <path d="M12.05 -238.95 L12.05 -239.05 Q21.5 -221.45 21.85 -199.0 22.05 -186.9 30.0 -178.75 41.4 -167.2 50.3 -153.15 62.3 -134.3 68.1 -113.2 L69.1 -108.75 Q69.75 -112.5 70.05 -116.3 70.5 -122.3 70.45 -128.1 70.35 -133.15 68.6 -137.85 L68.85 -138.5 69.3 -139.2 69.8 -139.85 70.45 -140.35 70.9 -140.5 72.25 -140.7 72.3 -140.85 73.6 -140.3 75.05 -140.7 75.05 -140.85 76.65 -140.25 77.55 -139.65 78.1 -139.0 Q86.8 -114.0 96.35 -89.0 106.0 -63.75 104.5 -35.45 103.1 -7.85 96.35 18.6 93.35 30.5 87.7 41.2 L88.05 41.75 Q88.8 42.9 89.9 43.65 86.35 49.5 82.05 55.1 59.7 84.35 23.8 89.55 -10.85 94.6 -39.85 84.8 L-39.85 84.1 -39.8 83.45 -39.8 83.4 Q-59.65 77.2 -74.75 60.5 -101.3 31.1 -105.15 -7.6 -106.3 -19.25 -106.75 -30.95 L-106.35 -30.75 -104.95 -19.2 Q-103.85 -17.4 -102.35 -16.0 -103.95 -23.15 -105.15 -30.3 L-102.4 -29.7 -102.95 -44.45 Q-103.0 -57.9 -102.1 -70.95 -101.15 -84.8 -99.35 -98.15 -97.9 -108.65 -95.65 -118.85 L-95.15 -119.45 -94.5 -119.95 -94.05 -120.15 -92.7 -120.35 -92.65 -120.45 -91.1 -119.9 -90.15 -119.25 -89.65 -118.6 -89.6 -118.35 Q-82.75 -112.65 -81.0 -102.95 L-77.55 -84.15 -74.95 -72.1 -73.85 -75.45 Q-70.85 -84.2 -65.45 -91.5 L-52.65 -108.15 Q-48.75 -113.05 -49.25 -118.6 L-50.5 -120.35 -50.95 -121.6 -50.9 -122.3 -50.7 -123.0 -50.5 -123.3 -50.75 -123.95 -50.25 -124.6 -49.5 -125.25 -48.6 -125.65 -47.25 -125.9 -47.25 -126.0 -45.75 -124.8 Q-43.4 -124.25 -41.35 -122.7 L-36.6 -118.85 Q-33.3 -124.35 -30.65 -130.05 -27.95 -135.95 -28.75 -142.35 -29.4 -147.15 -29.65 -152.2 L-30.3 -152.9 -30.85 -153.55 -31.5 -154.25 -33.05 -155.75 Q-33.9 -156.6 -34.15 -157.8 L-34.3 -159.15 -34.0 -159.8 -33.6 -160.55 -33.05 -161.15 -32.4 -161.7 -31.95 -161.85 -30.55 -162.15 -28.3 -161.3 -28.2 -161.4 -27.3 -161.8 -25.95 -162.05 -25.95 -162.15 Q-15.85 -156.3 -8.1 -146.6 -0.35 -136.85 0.55 -124.8 L2.05 -106.1 Q5.0 -117.15 8.45 -128.25 14.75 -148.6 8.9 -168.0 3.45 -186.2 -1.1 -204.75 -3.2 -213.45 -1.2 -221.95 0.8 -230.65 5.35 -238.4 L5.85 -239.0 6.5 -239.5 6.95 -239.7 8.35 -239.9 8.35 -240.0 9.9 -239.4 10.85 -238.8 10.9 -238.75 12.05 -238.95 M8.05 -198.8 Q9.0 -193.6 11.65 -188.35 21.85 -168.5 18.7 -147.1 15.55 -125.9 9.6 -105.5 L4.2 -88.0 3.65 -87.7 Q2.8 -87.3 1.85 -87.3 L0.5 -87.45 -0.45 -85.45 -1.85 -85.4 Q-2.75 -85.45 -3.65 -85.85 L-4.55 -86.45 -5.1 -87.1 Q-6.75 -94.25 -6.85 -101.7 L-7.0 -120.45 Q-6.95 -132.4 -15.45 -141.15 L-20.15 -146.35 Q-20.0 -140.15 -22.1 -134.15 L-27.0 -119.15 Q-28.45 -114.3 -31.55 -111.35 -31.2 -109.05 -33.1 -107.25 -33.45 -107.0 -33.85 -106.9 L-35.2 -106.7 -37.05 -107.0 Q-38.5 -108.05 -39.2 -109.8 -39.8 -111.35 -41.05 -112.5 L-41.75 -113.1 Q-42.6 -110.15 -44.9 -106.9 L-57.85 -88.65 Q-64.45 -79.4 -66.7 -68.3 -68.55 -59.3 -75.05 -54.65 L-75.55 -54.8 -76.9 -53.75 -78.7 -54.35 -79.65 -54.95 -80.15 -55.6 -83.3 -70.0 Q-85.0 -78.35 -86.05 -86.85 -87.05 -94.65 -89.85 -102.0 -90.25 -97.4 -91.05 -92.75 -93.35 -79.35 -94.45 -65.75 -95.55 -51.95 -93.95 -38.15 -92.9 -29.15 -95.4 -21.45 -94.85 -13.7 -95.9 -6.7 L-96.55 -6.65 -94.7 4.0 Q-88.3 36.1 -63.2 59.3 -46.75 74.55 -26.15 81.35 L-26.0 82.05 -25.95 82.3 Q5.65 84.05 36.25 78.65 41.45 77.75 46.45 74.8 67.65 62.3 79.9 44.8 80.8 33.2 85.95 20.7 93.4 2.85 96.0 -16.6 99.7 -44.0 94.05 -70.75 88.95 -94.9 77.8 -116.95 L77.65 -116.1 Q76.75 -109.5 76.2 -102.8 75.75 -97.6 72.75 -93.8 L71.4 -93.75 Q70.45 -93.8 69.55 -94.2 L68.65 -94.8 68.5 -94.95 68.1 -94.8 66.75 -94.65 64.9 -94.95 Q58.3 -114.55 49.55 -133.85 45.3 -143.3 39.75 -152.3 28.3 -170.85 18.3 -189.0 16.7 -191.95 16.0 -195.6 12.55 -213.8 9.45 -232.15 5.0 -215.8 8.05 -198.8 M-101.85 -159.15 L-101.65 -159.8 -101.25 -160.55 -100.7 -161.15 -100.05 -161.7 -99.6 -161.85 -98.25 -162.05 -98.2 -162.15 Q-90.6 -162.0 -87.4 -155.65 -84.3 -149.4 -86.0 -142.65 L-89.15 -130.05 Q-90.7 -123.95 -96.35 -124.6 L-97.35 -125.6 -99.45 -118.7 -99.75 -117.65 -99.5 -119.6 Q-97.6 -133.35 -98.45 -146.65 L-97.95 -147.25 -97.3 -147.75 -96.8 -147.95 -96.25 -148.0 -96.1 -148.2 -95.45 -148.7 -95.0 -148.85 -95.05 -149.0 Q-97.15 -154.45 -101.95 -158.45 L-101.85 -159.15" fill="#000000" fill-rule="evenodd" stroke="none"/>
  </g>
</svg>
