<?xml version="1.0" encoding="UTF-8" standalone="no"?>
<svg xmlns:ffdec="https://www.free-decompiler.com/flash" xmlns:xlink="http://www.w3.org/1999/xlink" ffdec:objectType="shape" height="325.7px" width="211.45px" xmlns="http://www.w3.org/2000/svg">
  <g transform="matrix(1.0, 0.0, 0.0, 1.0, 106.75, 234.45)">
    <path d="M29.9 -224.95 L27.8 -224.3 25.95 -223.8 24.1 -223.4 20.2 -222.65 19.25 -222.15 Q18.45 -220.9 18.0 -219.5 L16.9 -216.05 Q15.85 -212.55 15.8 -208.95 15.75 -205.05 15.05 -201.25 14.35 -197.3 16.45 -193.9 16.85 -195.3 16.65 -196.9 16.0 -201.9 19.15 -205.6 L28.4 -216.7 Q31.2 -220.2 30.25 -225.05 L29.9 -224.95 M39.2 -223.55 Q39.3 -216.1 34.55 -210.7 30.3 -205.85 27.05 -200.4 24.3 -195.75 22.25 -190.4 L21.75 -190.25 20.4 -190.1 Q19.45 -190.2 18.65 -190.65 17.85 -191.1 17.25 -191.9 L16.9 -192.5 16.75 -192.45 16.45 -191.8 16.2 -191.15 15.75 -190.45 15.05 -189.75 14.35 -189.25 Q5.45 -191.5 6.95 -202.05 L8.95 -216.65 Q10.15 -225.6 18.25 -228.6 25.2 -231.2 31.5 -234.45 L33.35 -234.3 35.0 -233.95 Q39.1 -229.75 39.2 -223.55 M89.2 -123.65 Q91.25 -112.85 94.05 -102.3 95.3 -97.65 94.6 -93.55 L96.35 -89.0 Q106.0 -63.75 104.5 -35.45 103.1 -7.85 96.35 18.6 93.35 30.5 87.7 41.2 L88.05 41.75 Q88.8 42.9 89.9 43.65 86.35 49.5 82.05 55.1 59.7 84.35 23.8 89.55 -10.85 94.6 -39.85 84.8 L-39.85 84.1 -39.8 83.45 -39.8 83.4 Q-59.65 77.2 -74.75 60.5 -101.3 31.1 -105.15 -7.6 -106.3 -19.25 -106.75 -30.95 L-106.35 -30.75 -104.95 -19.2 Q-103.85 -17.4 -102.35 -16.0 -103.95 -23.15 -105.15 -30.3 L-103.15 -29.8 Q-103.1 -33.8 -102.5 -37.75 -100.65 -50.6 -99.15 -63.3 -97.6 -76.05 -99.6 -88.55 -101.2 -98.45 -101.45 -108.4 L-100.95 -109.05 -100.0 -109.6 -98.25 -110.15 -98.2 -110.25 -96.6 -108.25 -96.4 -108.3 -96.35 -108.4 Q-90.0 -106.0 -85.55 -100.6 -81.35 -95.45 -77.65 -90.0 -74.5 -85.4 -72.1 -80.55 -69.35 -86.5 -64.2 -92.1 -57.85 -99.0 -53.3 -107.5 -45.4 -122.2 -42.7 -138.25 -40.4 -152.1 -42.45 -166.3 -43.35 -172.25 -48.6 -176.0 -49.0 -176.3 -49.1 -177.0 L-49.05 -177.65 -48.85 -178.35 -48.4 -179.05 -47.9 -179.7 -47.25 -180.2 -46.75 -180.4 -45.4 -180.7 -44.95 -180.45 -44.7 -180.9 -44.2 -181.55 -43.55 -182.05 -43.05 -182.25 -41.7 -182.4 -41.7 -182.55 Q-30.45 -177.15 -22.8 -167.05 -15.4 -157.25 -10.05 -146.1 -6.1 -137.75 -4.25 -128.85 0.4 -138.95 6.25 -148.2 11.8 -157.0 11.1 -167.5 L9.95 -184.85 10.7 -185.5 11.6 -185.9 12.95 -186.15 13.0 -186.25 14.75 -184.3 14.8 -184.3 14.85 -184.4 Q26.6 -173.65 37.0 -160.95 47.3 -148.3 54.0 -133.6 L65.9 -107.55 Q68.3 -116.3 69.45 -125.45 70.8 -136.15 69.9 -146.45 69.2 -154.75 69.3 -162.4 L69.8 -163.0 70.45 -163.55 70.9 -163.7 72.25 -163.9 72.3 -164.0 74.2 -161.45 Q82.1 -155.7 84.7 -144.6 87.15 -134.25 89.2 -123.65 M81.35 -123.1 Q80.0 -131.15 77.9 -139.05 L76.55 -121.1 Q75.7 -109.65 73.1 -98.65 72.15 -94.45 70.4 -90.65 70.15 -86.05 68.1 -81.75 L66.75 -81.7 Q65.8 -81.75 64.95 -82.15 64.4 -82.35 64.0 -82.75 L63.5 -83.4 63.5 -83.85 63.1 -84.0 62.15 -84.6 61.65 -85.25 Q61.85 -88.75 62.35 -92.2 60.95 -99.2 58.0 -105.85 L47.45 -129.6 Q40.4 -145.2 29.0 -157.8 L20.15 -168.0 19.95 -164.1 Q18.8 -151.7 11.7 -141.25 4.75 -131.1 1.8 -119.3 -0.3 -111.05 -4.15 -104.0 L-5.55 -103.95 -7.35 -104.35 -8.25 -105.0 -9.2 -105.3 -10.1 -105.9 -10.65 -106.55 Q-11.45 -113.75 -11.55 -121.15 -11.7 -131.55 -15.95 -140.95 -20.8 -151.65 -28.65 -160.5 L-31.9 -164.15 Q-30.75 -158.85 -31.6 -152.2 -33.2 -139.6 -36.95 -127.65 -42.05 -111.5 -50.5 -96.7 -58.6 -82.65 -69.05 -70.4 L-69.5 -70.0 -69.95 -69.75 -70.2 -69.7 -70.4 -69.0 -71.15 -68.35 -71.85 -67.95 -73.2 -67.8 -75.05 -68.1 Q-78.35 -70.8 -79.1 -74.9 -79.95 -79.45 -82.35 -83.45 -85.5 -88.85 -89.45 -93.65 L-90.6 -95.0 Q-89.6 -90.25 -89.75 -84.8 -90.1 -70.7 -91.6 -56.95 -93.05 -43.15 -93.1 -29.15 -93.1 -22.3 -95.2 -17.15 -95.15 -11.75 -95.9 -6.7 L-96.55 -6.65 -94.7 4.0 Q-88.3 36.1 -63.2 59.3 -46.75 74.55 -26.15 81.35 L-26.0 82.05 -25.95 82.3 Q5.65 84.05 36.25 78.65 41.45 77.75 46.45 74.8 67.65 62.3 79.9 44.8 80.8 33.2 85.95 20.7 93.4 2.85 96.0 -16.6 99.7 -44.0 94.05 -70.75 92.25 -79.2 89.75 -87.45 L89.05 -87.7 Q88.5 -87.9 88.1 -88.3 L87.6 -88.95 84.6 -104.95 Q82.85 -114.05 81.35 -123.1" fill="#000000" fill-rule="evenodd" stroke="none"/>
  </g>
</svg>
