<?xml version="1.0" encoding="UTF-8" standalone="no"?>
<svg xmlns:ffdec="https://www.free-decompiler.com/flash" xmlns:xlink="http://www.w3.org/1999/xlink" ffdec:objectType="shape" height="289.45px" width="200.0px" xmlns="http://www.w3.org/2000/svg">
  <g transform="matrix(1.0, 0.0, 0.0, 1.0, 98.3, 230.4)">
    <path d="M77.85 -90.95 Q78.4 -99.5 84.05 -104.7 84.85 -105.4 85.6 -105.6 87.4 -102.6 88.85 -99.25 L88.35 -99.4 Q80.4 -100.9 77.85 -90.95 M90.55 -94.85 Q94.1 -84.8 95.0 -72.15 L95.45 -64.45 90.55 -94.85 M-84.65 13.2 Q-88.6 12.95 -89.65 8.35 -91.55 0.1 -91.95 -7.7 -91.2 -5.95 -90.05 -4.4 L-89.85 -2.25 Q-89.2 4.1 -85.7 9.05 -85.4 11.25 -84.65 13.2 M-90.6 -33.2 Q-90.75 -39.8 -90.3 -46.05 -90.4 -66.0 -87.5 -83.2 -87.4 -83.85 -86.4 -84.0 -80.8 -78.25 -78.4 -70.55 -71.85 -62.0 -70.2 -52.75 L-71.75 -51.2 Q-76.4 -60.5 -86.0 -67.2 -87.0 -67.15 -87.1 -66.4 -88.4 -55.8 -89.4 -44.0 -89.85 -38.6 -90.6 -33.2 M-61.6 -71.45 Q-56.9 -100.25 -39.05 -119.1 -38.65 -119.55 -37.4 -119.8 -35.6 -136.25 -28.7 -149.3 -28.2 -150.25 -27.2 -150.4 -13.8 -136.4 -11.1 -116.6 -12.2 -118.4 -13.8 -119.8 L-13.9 -120.1 Q-16.85 -132.7 -25.6 -141.6 -28.85 -141.2 -29.8 -138.25 -35.0 -122.35 -42.8 -106.8 -51.7 -89.0 -61.6 -71.45 M-8.15 -105.2 L-5.9 -104.8 -8.2 -102.5 -8.15 -104.0 -8.15 -105.2 M-0.7 -109.1 Q8.35 -128.9 17.05 -149.4 17.85 -151.2 20.4 -151.4 19.0 -156.15 21.7 -160.05 23.2 -162.3 25.6 -162.4 39.15 -150.9 48.1 -132.0 59.1 -108.75 60.2 -82.35 60.35 -78.65 60.1 -75.75 57.9 -89.1 56.4 -102.55 55.05 -114.6 46.8 -119.2 L46.75 -119.5 Q43.95 -137.05 32.0 -146.8 30.75 -146.75 29.9 -145.65 27.35 -142.25 25.9 -138.25 23.75 -136.35 22.05 -134.0 10.75 -122.95 3.6 -107.5 2.4 -108.05 1.6 -108.95 0.6 -110.0 -0.35 -109.35 L-0.7 -109.1 M60.45 -73.75 L64.1 -73.95 Q62.65 -70.65 61.6 -67.0 L60.45 -73.75 M65.3 -76.5 Q67.55 -85.8 74.55 -89.05 68.95 -83.7 65.3 -76.5 M31.3 -129.7 L31.1 -129.3 30.0 -128.75 28.95 -128.15 30.5 -131.9 31.3 -129.7 M54.95 -66.6 L54.5 -66.8 54.3 -69.9 54.95 -66.6 M23.75 -99.4 Q25.75 -110.75 27.4 -122.2 L27.45 -122.2 Q26.45 -110.4 23.7 -99.1 L23.75 -99.4 M87.55 -75.9 L88.45 -70.05 86.8 -72.8 87.55 -75.9 M89.8 -59.95 L90.15 -57.1 89.5 -58.4 89.7 -59.3 89.8 -59.95 M81.1 -36.0 L81.2 -36.05 Q79.4 -34.0 81.1 -36.0 M-11.75 -71.25 L-13.35 -70.8 -13.95 -71.85 -12.05 -73.05 -12.0 -73.05 Q-12.05 -72.1 -11.75 -71.25" fill="#ff0800" fill-rule="evenodd" stroke="none"/>
    <path d="M83.2 28.6 Q80.2 31.05 75.2 26.85 74.4 26.15 74.55 24.5 L74.65 23.05 75.05 21.85 75.95 18.6 76.5 18.2 77.2 18.35 Q79.9 18.85 81.15 18.4 80.9 23.55 83.0 28.2 L83.2 28.6 M-79.7 20.15 L-79.95 19.95 Q-83.15 17.15 -84.65 13.2 -85.4 11.25 -85.7 9.05 L-85.25 9.65 -82.7 12.4 -79.75 20.05 -79.7 20.15 M25.9 -138.25 L25.3 -136.5 24.5 -136.35 22.05 -134.0 Q23.75 -136.35 25.9 -138.25 M28.95 -128.15 L30.0 -128.75 31.1 -129.3 31.3 -129.7 Q34.3 -121.2 36.9 -112.6 39.85 -103.05 41.3 -93.3 43.4 -79.45 53.4 -74.2 L54.3 -69.9 54.5 -66.8 54.95 -66.6 55.6 -62.75 Q53.2 -64.55 50.3 -65.5 L49.1 -67.0 Q45.6 -58.05 37.25 -58.5 L35.35 -58.75 Q32.55 -59.25 29.25 -60.65 26.95 -61.65 24.8 -62.85 L24.45 -63.0 24.15 -63.2 20.85 -65.25 Q16.25 -68.4 12.25 -72.55 9.75 -75.15 8.9 -77.4 7.9 -79.3 8.55 -80.95 8.95 -82.85 10.8 -84.45 8.4 -86.15 5.95 -86.35 13.2 -101.25 18.7 -117.5 L20.05 -117.8 Q25.7 -121.4 28.95 -128.15 M23.75 -99.4 L23.7 -99.1 Q26.45 -110.4 27.45 -122.2 L27.4 -122.2 Q25.75 -110.75 23.75 -99.4 M47.1 -69.35 L45.7 -70.7 44.3 -67.4 43.3 -65.9 Q45.75 -66.6 48.3 -68.0 L47.1 -69.35 M40.0 -75.6 L40.7 -75.7 40.05 -76.4 40.0 -75.6 M1.1 -72.5 L-0.15 -72.2 0.8 -74.9 Q0.7 -73.45 1.1 -72.5 M90.15 -57.1 Q91.4 -44.8 90.45 -32.75 L88.8 -34.4 Q84.35 -32.55 85.25 -26.95 78.35 -22.65 70.15 -20.0 L67.05 -18.85 66.05 -20.4 Q53.55 -27.6 60.25 -43.45 L60.75 -44.4 Q60.1 -52.5 66.85 -55.1 78.05 -71.35 85.1 -90.8 L87.55 -75.9 86.8 -72.8 88.45 -70.05 89.7 -60.65 89.8 -59.95 89.7 -59.3 89.5 -58.4 90.15 -57.1 M66.55 -28.05 L66.5 -28.25 Q64.95 -31.95 65.7 -35.25 64.7 -35.55 63.9 -36.15 63.3 -31.1 66.55 -28.05 M81.0 -17.1 L81.15 -17.15 Q79.55 -14.95 81.0 -17.1 M81.1 -36.0 Q79.4 -34.0 81.2 -36.05 L81.1 -36.0 M82.5 11.1 L82.15 12.35 81.5 15.1 80.15 13.05 80.7 11.6 82.5 11.1 M84.75 1.75 L84.9 1.65 84.75 2.3 84.75 1.75 M83.15 8.55 L83.2 8.5 83.2 8.6 83.15 8.55 M-84.45 -19.4 Q-82.9 -21.95 -80.85 -24.0 L-82.6 -26.85 Q-82.15 -33.65 -80.95 -40.45 -80.25 -44.25 -80.4 -47.45 L-79.35 -44.1 -78.45 -41.45 Q-77.95 -44.05 -76.6 -46.55 -76.3 -47.15 -75.6 -47.2 -65.7 -37.75 -67.4 -22.0 -68.5 -11.2 -77.45 -13.25 L-78.8 -7.7 -78.7 -11.05 -78.6 -13.55 Q-80.95 -14.3 -83.8 -15.8 -85.95 -16.95 -84.45 -19.4 M-24.5 -82.9 L-26.25 -81.85 Q-25.6 -75.95 -27.35 -69.0 -28.85 -62.95 -35.65 -62.1 -45.55 -60.85 -47.25 -67.9 L-47.45 -68.95 -51.4 -66.45 Q-37.85 -94.45 -25.5 -123.6 -24.95 -108.75 -26.75 -93.8 -27.65 -86.3 -24.5 -82.9 M-19.9 -77.45 L-20.6 -77.0 -20.65 -77.15 -19.9 -77.45 M-42.35 -72.1 L-43.95 -71.1 -43.35 -70.8 -41.6 -69.6 -42.35 -72.1 M-75.65 -19.65 Q-74.65 -18.3 -73.7 -20.95 -73.4 -21.65 -73.9 -21.5 L-75.45 -20.4 -75.65 -19.65" fill="#ff4a00" fill-rule="evenodd" stroke="none"/>
    <path d="M77.85 -90.95 Q80.4 -100.9 88.35 -99.4 L88.85 -99.25 Q89.9 -98.75 90.2 -97.05 L90.55 -94.85 95.45 -64.45 98.7 -44.8 Q100.15 -36.25 99.1 -27.6 103.4 -21.1 99.4 -11.2 L91.8 8.15 Q92.45 10.2 90.45 11.6 L86.25 22.65 Q85.6 25.1 84.7 26.7 L84.05 28.45 Q83.7 29.35 83.2 28.6 L83.0 28.2 Q80.9 23.55 81.15 18.4 79.9 18.85 77.2 18.35 L76.5 18.2 75.95 18.6 75.05 21.85 74.65 23.05 Q73.05 27.2 70.55 22.2 69.1 19.35 68.75 15.95 L68.55 12.75 Q49.9 -9.05 47.1 -36.3 40.75 -31.05 29.95 -32.5 L20.9 -33.8 Q15.35 -30.05 6.8 -35.1 L5.3 -35.6 Q-5.35 -38.75 -11.7 -48.7 L-14.55 -47.35 -16.35 -44.1 Q-20.65 -36.95 -27.8 -39.0 -36.35 -23.3 -49.75 -26.95 -49.05 -26.1 -49.3 -24.4 -53.65 4.9 -68.35 29.75 L-70.95 29.8 Q-72.5 28.4 -72.4 26.3 -81.65 32.5 -79.55 21.35 L-79.4 20.75 -79.7 20.15 -79.75 20.05 -82.7 12.4 -85.25 9.65 -85.7 9.05 Q-89.2 4.1 -89.85 -2.25 L-90.05 -4.4 Q-91.2 -5.95 -91.95 -7.7 -94.35 -13.1 -92.9 -20.0 -91.55 -26.55 -90.6 -33.2 -89.85 -38.6 -89.4 -44.0 -88.4 -55.8 -87.1 -66.4 -87.0 -67.15 -86.0 -67.2 -76.4 -60.5 -71.75 -51.2 L-70.2 -52.75 -69.7 -53.2 Q-66.65 -62.5 -61.6 -71.45 -51.7 -89.0 -42.8 -106.8 -35.0 -122.35 -29.8 -138.25 -28.85 -141.2 -25.6 -141.6 -16.85 -132.7 -13.9 -120.1 L-13.8 -119.8 Q-12.2 -118.4 -11.1 -116.6 -8.25 -112.1 -8.15 -105.2 L-8.15 -104.0 -8.2 -102.5 -5.9 -104.8 -0.7 -109.1 -0.35 -109.35 Q0.6 -110.0 1.6 -108.95 2.4 -108.05 3.6 -107.5 10.75 -122.95 22.05 -134.0 L24.5 -136.35 25.3 -136.5 25.9 -138.25 Q27.35 -142.25 29.9 -145.65 30.75 -146.75 32.0 -146.8 43.95 -137.05 46.75 -119.5 L46.8 -119.2 Q55.05 -114.6 56.4 -102.55 57.9 -89.1 60.1 -75.75 L60.45 -73.75 61.6 -67.0 Q62.65 -70.65 64.1 -73.95 L65.3 -76.5 Q68.95 -83.7 74.55 -89.05 L76.65 -90.95 77.8 -90.8 77.85 -90.95 M31.3 -129.7 L30.5 -131.9 28.95 -128.15 Q25.7 -121.4 20.05 -117.8 L18.7 -117.5 Q13.2 -101.25 5.95 -86.35 8.4 -86.15 10.8 -84.45 8.95 -82.85 8.55 -80.95 7.9 -79.3 8.9 -77.4 9.75 -75.15 12.25 -72.55 16.25 -68.4 20.85 -65.25 21.55 -63.45 21.85 -60.35 22.0 -58.6 22.9 -57.8 23.25 -61.6 24.45 -63.0 L24.8 -62.85 Q26.95 -61.65 29.25 -60.65 32.55 -59.25 35.35 -58.75 35.75 -57.6 35.6 -55.9 L37.25 -58.5 Q45.6 -58.05 49.1 -67.0 L50.3 -65.5 Q53.2 -64.55 55.6 -62.75 L54.95 -66.6 54.3 -69.9 53.4 -74.2 Q43.4 -79.45 41.3 -93.3 39.85 -103.05 36.9 -112.6 34.3 -121.2 31.3 -129.7 M47.1 -69.35 L48.3 -68.0 Q45.75 -66.6 43.3 -65.9 L44.3 -67.4 45.7 -70.7 47.1 -69.35 M40.0 -75.6 L40.05 -76.4 40.7 -75.7 40.0 -75.6 M0.5 -55.0 Q3.05 -52.0 0.5 -55.05 L0.5 -55.0 M-0.15 -72.2 Q-1.25 -69.8 -2.6 -68.6 L-1.1 -67.2 Q4.5 -70.65 6.6 -63.7 9.0 -69.05 13.4 -64.8 14.95 -66.45 16.25 -67.2 14.3 -67.6 12.65 -70.0 9.55 -65.7 5.6 -70.6 1.95 -70.1 1.1 -72.5 0.7 -73.45 0.8 -74.9 L-0.15 -72.2 M87.55 -75.9 L85.1 -90.8 Q78.05 -71.35 66.85 -55.1 60.1 -52.5 60.75 -44.4 L60.25 -43.45 Q53.55 -27.6 66.05 -20.4 L67.05 -18.85 70.15 -20.0 Q78.35 -22.65 85.25 -26.95 84.35 -32.55 88.8 -34.4 L90.45 -32.75 Q91.4 -44.8 90.15 -57.1 L89.8 -59.95 89.7 -60.65 88.45 -70.05 87.55 -75.9 M66.55 -28.05 Q63.3 -31.1 63.9 -36.15 64.7 -35.55 65.7 -35.25 64.95 -31.95 66.5 -28.25 L66.55 -28.05 M81.0 -17.1 Q79.55 -14.95 81.15 -17.15 L81.0 -17.1 M83.15 8.55 L83.2 8.6 83.2 8.5 83.15 8.55 M84.75 1.75 L84.75 2.3 84.9 1.65 84.75 1.75 M82.5 11.1 L80.7 11.6 80.15 13.05 81.5 15.1 82.15 12.35 82.5 11.1 M3.9 49.15 Q-8.6 45.0 -9.75 34.75 -9.9 33.65 -8.4 33.6 2.95 39.0 5.55 48.4 5.95 49.85 3.9 49.15 M-84.45 -19.4 Q-85.95 -16.95 -83.8 -15.8 -80.95 -14.3 -78.6 -13.55 L-78.7 -11.05 -78.8 -7.7 -77.45 -13.25 Q-68.5 -11.2 -67.4 -22.0 -65.7 -37.75 -75.6 -47.2 -76.3 -47.15 -76.6 -46.55 -77.95 -44.05 -78.45 -41.45 L-79.35 -44.1 -80.4 -47.45 Q-80.25 -44.25 -80.95 -40.45 -82.15 -33.65 -82.6 -26.85 L-80.85 -24.0 Q-82.9 -21.95 -84.45 -19.4 M-19.9 -77.45 L-20.65 -77.15 -20.6 -77.0 -19.9 -77.45 M-24.5 -82.9 Q-27.65 -86.3 -26.75 -93.8 -24.95 -108.75 -25.5 -123.6 -37.85 -94.45 -51.4 -66.45 L-47.45 -68.95 -47.25 -67.9 Q-45.55 -60.85 -35.65 -62.1 -28.85 -62.95 -27.35 -69.0 -25.6 -75.95 -26.25 -81.85 L-24.5 -82.9 M-13.35 -70.8 Q-12.75 -69.5 -13.0 -67.6 L-13.0 -67.3 Q-11.1 -68.2 -8.7 -67.6 L-8.35 -67.95 -9.5 -68.55 Q-11.2 -69.55 -11.75 -71.25 -12.05 -72.1 -12.0 -73.05 L-12.05 -73.05 -13.95 -71.85 -13.35 -70.8 M-42.35 -72.1 L-41.6 -69.6 -43.35 -70.8 -43.95 -71.1 -42.35 -72.1 M-55.55 -29.35 Q-56.2 -29.7 -57.3 -30.95 -59.25 -33.2 -60.2 -34.9 L-61.85 -33.1 -62.25 -31.7 Q-56.95 -28.65 -56.45 -21.5 L-56.4 -21.1 Q-56.65 -27.95 -53.9 -28.5 L-55.55 -29.35 M-54.8 -39.1 L-50.6 -43.8 -54.8 -40.25 -54.8 -39.1 M-75.65 -19.65 L-75.45 -20.4 -73.9 -21.5 Q-73.4 -21.65 -73.7 -20.95 -74.65 -18.3 -75.65 -19.65 M-62.9 -2.0 L-63.95 1.9 -64.0 2.2 Q-63.25 0.25 -62.85 -2.0 L-62.9 -2.0 M-46.2 -32.15 Q-40.4 -32.8 -36.55 -36.95 L-46.2 -32.15 M-75.3 10.8 L-75.85 12.4 -75.7 13.9 -74.1 11.15 -74.55 11.0 -75.3 10.8 M-71.4 4.35 Q-67.85 -8.0 -65.6 -20.3 -69.3 -6.85 -72.05 6.45 L-71.4 4.35" fill="#ff3300" fill-rule="evenodd" stroke="none"/>
    <path d="M24.1 -207.7 Q17.1 -201.35 19.55 -192.6 20.85 -188.0 17.65 -192.05 5.3 -207.55 21.75 -222.75 27.3 -227.85 33.6 -230.4 38.4 -220.65 24.1 -207.7 M80.0 -150.4 Q92.85 -106.6 99.8 -57.85 106.5 -11.15 89.55 32.2 82.8 49.45 86.1 33.0 90.8 9.6 92.25 -13.9 95.1 -60.2 84.7 -105.15 82.1 -87.45 66.8 -75.25 64.95 -67.8 58.25 -63.85 57.0 -63.15 57.15 -66.6 59.8 -119.0 25.0 -159.55 25.4 -143.3 13.25 -125.6 -3.25 -101.6 -4.55 -74.9 -4.6 -73.75 -5.3 -75.85 -14.45 -102.45 3.2 -127.45 20.35 -151.75 15.6 -178.0 16.55 -179.3 18.0 -179.7 L19.2 -180.0 20.9 -176.7 Q54.15 -140.3 66.05 -92.1 67.1 -87.75 67.4 -84.0 82.0 -111.7 73.8 -144.85 72.1 -151.65 77.6 -154.4 L78.95 -149.4 80.0 -150.4 M-36.0 -172.8 Q3.35 -135.05 -13.4 -85.1 -13.95 -83.45 -13.75 -86.05 -12.1 -108.85 -20.05 -130.05 L-26.85 -147.6 Q-26.4 -131.85 -39.35 -114.15 -59.3 -86.85 -62.2 -55.7 -63.45 -42.45 -69.95 -53.8 -68.6 -46.6 -68.1 -39.0 -67.7 -33.5 -69.95 -39.15 -72.8 -46.4 -76.4 -53.35 L-87.9 -75.9 Q-85.2 -57.2 -88.1 -36.0 -95.5 18.3 -62.1 58.4 -60.95 59.75 -62.8 58.4 -101.15 29.5 -98.05 -19.65 -95.5 -60.35 -98.0 -98.8 -97.2 -99.75 -96.1 -100.2 L-94.4 -100.8 -93.95 -99.65 -92.0 -100.8 Q-78.95 -84.55 -72.9 -65.45 -72.4 -69.3 -69.75 -73.1 -43.8 -110.65 -36.85 -154.2 -35.35 -163.7 -42.6 -170.4 -43.45 -171.2 -43.0 -172.4 -42.5 -174.0 -40.95 -174.65 L-39.2 -175.2 -37.05 -172.7 -36.0 -172.8" fill="#ff0000" fill-rule="evenodd" stroke="none"/>
  </g>
</svg>
