<?xml version="1.0" encoding="UTF-8" standalone="no"?>
<svg xmlns:ffdec="https://www.free-decompiler.com/flash" xmlns:xlink="http://www.w3.org/1999/xlink" ffdec:objectType="shape" height="293.25px" width="213.75px" xmlns="http://www.w3.org/2000/svg">
  <g transform="matrix(1.0, 0.0, 0.0, 1.0, 104.65, 93.15)">
    <path d="M-81.9 152.5 L-83.25 152.7 -83.25 152.85 -84.85 152.25 -85.75 151.65 -86.3 151.0 -86.45 150.0 -86.7 149.75 -87.2 149.15 Q-96.35 103.55 -100.8 56.9 -101.95 45.0 -103.5 33.15 -110.05 -17.75 -80.05 -57.0 -57.7 -86.25 -21.8 -91.45 12.85 -96.5 41.85 -86.7 L41.85 -86.0 41.8 -85.35 41.8 -85.3 Q61.65 -79.1 76.75 -62.4 103.3 -33.0 107.15 5.7 110.25 36.8 108.4 68.35 107.15 90.35 102.15 111.45 L100.45 119.0 99.7 119.65 Q99.3 119.95 98.8 120.05 L97.45 120.3 97.45 120.4 96.55 120.35 94.95 119.85 94.0 119.2 93.5 118.55 93.05 117.85 94.1 112.8 93.05 112.45 91.9 111.8 91.2 111.15 86.2 99.1 Q83.2 92.2 79.25 86.05 L75.0 79.3 Q74.75 89.35 73.1 99.2 70.1 117.45 66.05 135.25 61.9 153.4 61.7 171.4 61.6 184.4 67.4 195.9 67.9 196.9 67.1 197.8 L66.35 198.4 65.45 198.8 64.1 199.05 64.1 199.2 63.9 199.05 63.55 199.35 Q63.15 199.65 62.65 199.75 L61.3 200.0 61.3 200.1 Q44.05 192.75 33.25 177.8 22.65 163.05 16.05 145.9 9.45 128.6 4.05 111.2 3.0 107.75 2.6 104.6 1.45 108.05 -0.25 111.4 -5.65 122.25 -8.95 133.9 -12.25 145.5 -15.85 157.0 -18.6 165.85 -19.8 175.1 L-20.3 175.7 -21.25 176.3 -21.8 176.45 -21.65 176.95 -22.15 177.55 Q-22.55 178.0 -23.1 178.15 L-24.85 178.65 -24.9 178.8 Q-36.0 167.9 -40.75 151.9 -45.3 136.55 -51.5 122.2 -57.85 107.65 -62.2 92.5 L-62.4 91.85 -65.3 97.75 Q-70.35 107.5 -73.5 117.8 -76.4 127.1 -78.05 136.55 -79.35 143.85 -80.25 151.2 L-80.8 151.85 -81.4 152.35 -81.9 152.5 M-84.2 126.1 Q-81.75 117.2 -78.4 108.6 L-70.25 88.0 Q-67.35 80.7 -61.65 76.15 -60.7 74.05 -59.15 72.2 L-57.35 72.8 Q-56.85 73.05 -56.45 73.45 L-55.95 74.05 Q-54.5 86.85 -52.25 99.25 -49.5 113.95 -43.1 127.5 L-30.0 154.85 Q-27.65 159.7 -25.8 164.45 -24.95 157.95 -22.45 151.5 -17.9 139.7 -14.25 127.25 L-7.05 103.05 Q-4.1 93.4 2.0 87.05 L3.8 87.65 4.7 88.25 5.25 88.9 5.2 90.05 6.6 87.95 8.4 88.55 9.35 89.2 9.85 89.85 Q10.85 99.75 13.2 109.25 16.75 123.7 21.4 138.2 26.85 155.15 36.35 170.25 44.0 182.45 56.35 189.4 50.4 178.6 52.5 164.6 55.35 145.6 59.45 127.05 63.6 108.5 65.1 89.5 66.05 77.65 69.15 67.15 69.05 64.4 70.35 61.8 L71.05 61.45 72.4 61.25 74.25 61.55 Q78.35 67.5 81.5 74.15 84.55 80.65 88.85 86.25 93.65 92.4 95.95 99.65 L96.3 100.9 Q99.95 79.45 101.15 57.4 102.85 24.9 96.7 -5.9 90.3 -38.0 65.2 -61.2 48.75 -76.45 28.15 -83.25 L28.0 -83.95 27.95 -84.2 Q-3.65 -85.95 -34.25 -80.55 -39.45 -79.65 -44.45 -76.7 -95.9 -46.35 -94.55 13.35 -93.85 43.9 -90.6 74.05 -88.8 91.0 -86.6 107.85 L-84.2 126.1" fill="#000000" fill-rule="evenodd" stroke="none"/>
  </g>
</svg>
