<?xml version="1.0" encoding="UTF-8" standalone="no"?>
<svg xmlns:ffdec="https://www.free-decompiler.com/flash" xmlns:xlink="http://www.w3.org/1999/xlink" ffdec:objectType="shape" height="317.35px" width="213.15px" xmlns="http://www.w3.org/2000/svg">
  <g transform="matrix(1.0, 0.0, 0.0, 1.0, 103.3, 93.15)">
    <path d="M-2.65 224.1 L-2.65 224.2 Q-21.5 210.8 -32.65 190.3 -43.5 170.45 -48.5 147.85 -53.45 125.85 -56.4 103.4 -58.3 89.25 -56.25 76.0 L-58.85 78.85 Q-62.95 82.6 -65.55 87.55 -67.45 91.2 -68.35 95.2 -69.05 98.35 -70.05 101.4 L-70.8 102.05 -71.7 102.45 -73.05 102.7 -73.05 102.8 -74.0 102.7 -75.55 102.2 -76.5 101.6 -77.0 100.95 -77.5 100.25 -77.2 97.7 -77.4 97.6 -78.35 96.95 -78.85 96.3 Q-82.05 79.95 -89.85 64.65 -97.75 49.2 -100.7 32.35 -103.7 15.35 -103.25 -2.4 -102.95 -13.8 -98.0 -22.2 L-98.7 -22.3 Q-92.55 -40.65 -80.05 -57.0 -57.7 -86.25 -21.8 -91.45 12.85 -96.5 41.85 -86.7 L41.85 -86.0 41.8 -85.35 41.8 -85.3 Q61.65 -79.1 76.75 -62.4 103.3 -33.0 107.15 5.7 108.65 20.7 109.0 35.75 108.25 26.5 106.95 17.3 105.85 15.5 104.35 14.1 107.55 28.25 109.1 42.5 111.15 61.05 107.65 79.75 104.15 98.5 101.5 117.7 99.6 131.45 100.45 144.75 L99.95 145.35 99.3 145.85 98.8 146.05 98.25 146.1 98.1 146.3 97.45 146.8 96.95 146.95 95.6 147.15 95.6 147.3 Q88.4 139.7 82.8 129.6 77.2 119.6 73.25 109.05 L67.9 94.65 Q62.3 104.65 57.85 114.95 53.7 124.4 51.3 134.35 49.25 142.75 49.7 151.0 L49.2 151.65 48.25 152.2 46.5 152.7 46.45 152.85 45.55 152.75 44.55 152.5 44.55 152.6 44.35 153.3 43.9 154.0 43.4 154.65 42.75 155.05 40.95 155.5 40.9 155.6 Q31.8 151.6 27.5 140.8 23.65 131.1 19.45 121.55 15.5 112.6 10.2 104.35 8.1 114.2 0.9 122.4 -12.8 138.05 -9.75 159.15 -7.4 175.7 -1.75 191.35 2.9 204.2 2.45 217.7 L1.95 218.35 1.0 218.9 1.05 219.35 1.05 220.05 1.05 220.7 0.95 221.4 0.35 222.8 -0.35 223.45 -1.3 223.85 -2.65 224.1 M-86.95 145.25 L-88.6 144.95 Q-91.55 142.55 -91.8 138.7 -92.1 132.95 -90.7 127.65 -89.15 122.0 -85.05 117.95 -80.2 113.15 -74.0 113.45 L-73.15 114.2 -72.65 114.85 -72.4 115.55 -72.2 116.25 -72.15 116.7 -70.35 117.3 Q-69.85 117.5 -69.35 117.85 -68.1 119.75 -68.15 122.05 -68.2 126.85 -70.0 131.3 -71.7 135.55 -74.45 139.25 -77.95 143.9 -83.25 145.45 L-86.95 145.25 M-80.15 134.6 Q-78.8 132.65 -78.0 130.5 L-76.5 126.3 Q-75.7 124.0 -76.3 122.05 -77.9 121.3 -79.9 123.1 -81.85 124.85 -82.85 127.25 -83.75 129.35 -84.0 131.55 L-84.35 135.7 Q-84.45 136.55 -83.75 136.4 -81.35 136.45 -80.15 134.6 M-2.3 111.5 Q4.05 103.95 3.35 94.05 3.05 89.25 7.55 87.95 L9.35 88.55 10.25 89.2 11.25 89.35 Q17.6 95.2 20.55 103.7 23.7 112.7 27.75 121.2 L36.3 138.35 Q39.05 143.8 42.25 148.6 41.55 139.7 43.95 130.8 46.85 120.25 51.5 110.05 56.2 99.9 62.45 90.35 64.1 87.8 64.7 85.1 63.6 80.75 64.05 76.75 L63.15 74.55 63.45 73.85 63.9 73.2 Q64.55 72.45 65.35 72.0 L69.6 71.85 70.55 72.45 Q71.7 75.35 72.1 78.2 75.15 82.45 76.05 89.25 77.4 99.55 81.8 109.05 86.4 119.1 92.6 128.15 92.9 117.85 95.35 107.6 99.8 89.1 101.7 70.1 103.6 50.85 99.35 31.9 96.0 17.25 97.9 4.8 L98.55 4.75 96.7 -5.9 Q90.3 -38.0 65.2 -61.2 48.75 -76.45 28.15 -83.25 L28.0 -83.95 27.95 -84.2 Q-3.65 -85.95 -34.25 -80.55 -39.45 -79.65 -44.45 -76.7 -81.45 -54.9 -91.15 -17.9 L-91.6 -18.6 -92.25 -19.5 Q-94.75 -6.4 -95.2 7.1 -95.75 23.65 -91.75 39.15 -87.25 56.65 -78.2 72.6 -74.45 79.15 -73.25 86.1 L-71.4 82.75 Q-68.4 77.75 -64.65 73.05 -61.55 69.25 -57.3 67.6 L-55.5 68.2 Q-55.0 68.4 -54.6 68.8 L-54.1 69.45 -53.9 70.15 -53.6 71.5 -53.95 72.3 -53.6 72.25 -52.7 72.3 -50.9 72.8 Q-50.35 73.05 -49.9 73.4 -50.3 89.1 -48.3 105.25 -45.8 125.3 -41.6 144.95 -36.85 167.0 -26.0 186.65 -17.8 201.55 -5.15 212.7 -9.25 197.85 -14.0 183.05 -19.75 165.15 -17.45 146.15 -15.15 126.85 -2.3 111.5 M47.7 215.15 L47.4 214.45 48.15 213.5 Q42.9 210.1 42.45 202.65 42.0 194.9 43.5 186.8 45.0 178.7 42.9 170.65 41.35 164.65 39.05 158.85 L39.35 158.2 39.8 157.5 Q40.45 156.8 41.3 156.4 42.4 155.85 43.65 156.0 45.1 156.2 46.45 156.8 L47.75 159.7 Q56.8 155.75 63.0 167.6 67.95 177.1 67.45 188.6 67.05 197.8 63.9 206.1 60.6 214.75 52.05 217.7 L51.1 217.65 Q50.3 217.5 49.55 217.15 49.0 216.9 48.65 216.5 L47.7 215.15 M55.65 202.2 Q59.3 195.55 59.55 187.35 59.85 177.85 53.65 170.9 51.5 168.45 49.8 165.9 L50.4 168.55 Q51.75 175.65 50.95 183.2 50.2 190.75 50.3 198.5 50.4 203.4 52.5 207.45 L55.65 202.2" fill="#000000" fill-rule="evenodd" stroke="none"/>
  </g>
</svg>
