<?xml version="1.0" encoding="UTF-8" standalone="no"?>
<svg xmlns:ffdec="https://www.free-decompiler.com/flash" xmlns:xlink="http://www.w3.org/1999/xlink" ffdec:objectType="shape" height="331.25px" width="211.45px" xmlns="http://www.w3.org/2000/svg">
  <g transform="matrix(1.0, 0.0, 0.0, 1.0, 102.7, 93.15)">
    <path d="M-10.05 237.15 Q-19.5 219.55 -19.85 197.1 -20.05 185.0 -28.0 176.85 -39.4 165.3 -48.3 151.25 -60.3 132.4 -66.1 111.3 L-67.1 106.85 Q-67.75 110.6 -68.05 114.4 -68.5 120.4 -68.45 126.2 -68.35 131.25 -66.6 135.95 L-66.85 136.6 -67.3 137.3 -67.8 137.95 -68.45 138.45 -68.9 138.6 -70.25 138.8 -70.3 138.95 -71.6 138.4 -73.05 138.8 -73.05 138.95 -74.65 138.35 -75.55 137.75 -76.1 137.1 Q-84.8 112.1 -94.35 87.1 -104.0 61.85 -102.5 33.55 -101.1 5.95 -94.35 -20.5 -91.35 -32.4 -85.7 -43.1 L-86.05 -43.65 Q-86.8 -44.8 -87.9 -45.55 -84.35 -51.4 -80.05 -57.0 -57.7 -86.25 -21.8 -91.45 12.85 -96.5 41.85 -86.7 L41.85 -86.0 41.8 -85.35 41.8 -85.3 Q61.65 -79.1 76.75 -62.4 103.3 -33.0 107.15 5.7 108.3 17.35 108.75 29.05 L108.35 28.85 106.95 17.3 Q105.85 15.5 104.35 14.1 105.95 21.25 107.15 28.4 L104.4 27.8 Q104.9 35.15 104.95 42.55 105.0 56.0 104.1 69.05 103.15 82.9 101.35 96.25 99.9 106.75 97.65 116.95 L97.15 117.55 96.5 118.05 96.05 118.25 94.7 118.45 94.65 118.55 93.1 118.0 Q92.55 117.75 92.15 117.35 L91.65 116.7 91.6 116.45 Q84.75 110.75 83.0 101.05 L79.55 82.25 76.95 70.2 75.85 73.55 Q72.85 82.3 67.45 89.6 L54.65 106.25 Q50.75 111.15 51.25 116.7 L52.5 118.45 52.95 119.7 52.9 120.4 52.7 121.1 52.5 121.4 52.75 122.05 52.25 122.7 51.5 123.35 50.6 123.75 49.25 124.0 49.25 124.1 47.75 122.9 Q45.4 122.35 43.35 120.8 L38.6 116.95 Q35.3 122.45 32.65 128.15 29.95 134.05 30.75 140.45 31.4 145.25 31.65 150.3 L32.3 151.0 32.85 151.65 33.5 152.35 35.05 153.85 Q35.9 154.7 36.15 155.9 L36.3 157.25 36.0 157.9 35.6 158.65 35.05 159.25 34.4 159.8 33.95 159.95 32.55 160.25 30.3 159.4 30.2 159.5 29.3 159.9 27.95 160.15 27.95 160.25 Q17.85 154.4 10.1 144.7 2.35 134.95 1.45 122.9 L-0.05 104.2 Q-3.0 115.25 -6.45 126.35 -12.75 146.7 -6.9 166.1 -1.45 184.3 3.1 202.85 5.2 211.55 3.2 220.05 1.2 228.75 -3.35 236.5 L-3.85 237.1 -4.5 237.6 -4.95 237.8 -6.35 238.0 -6.35 238.1 -7.9 237.5 -8.85 236.9 -8.9 236.85 -10.05 237.05 -10.05 237.15 M-6.05 196.9 Q-7.0 191.7 -9.65 186.45 -19.85 166.6 -16.7 145.2 -13.55 124.0 -7.6 103.6 L-2.2 86.1 -1.65 85.8 0.15 85.4 1.5 85.55 2.45 83.55 3.85 83.5 Q4.75 83.55 5.65 83.95 6.15 84.15 6.55 84.55 L7.1 85.2 Q8.75 92.35 8.85 99.8 L9.0 118.55 Q8.95 130.5 17.45 139.25 L22.15 144.45 Q22.0 138.25 24.1 132.25 L29.0 117.25 Q30.45 112.4 33.55 109.45 33.2 107.15 35.1 105.35 35.45 105.1 35.85 105.0 L37.2 104.8 39.05 105.1 Q40.5 106.15 41.2 107.9 41.8 109.45 43.05 110.6 L43.75 111.2 Q44.6 108.25 46.9 105.0 L59.85 86.75 Q66.45 77.5 68.7 66.4 70.55 57.4 77.05 52.75 L77.55 52.9 78.9 51.85 80.7 52.45 81.65 53.05 82.15 53.7 85.3 68.1 Q87.0 76.45 88.05 84.95 89.05 92.75 91.85 100.1 92.25 95.5 93.05 90.85 95.35 77.45 96.45 63.85 97.55 50.05 95.95 36.25 94.9 27.25 97.4 19.55 96.85 11.8 97.9 4.8 L98.55 4.75 96.7 -5.9 Q90.3 -38.0 65.2 -61.2 48.75 -76.45 28.15 -83.25 L28.0 -83.95 27.95 -84.2 Q-3.65 -85.95 -34.25 -80.55 -39.45 -79.65 -44.45 -76.7 -65.65 -64.2 -77.9 -46.7 -78.8 -35.1 -83.95 -22.6 -91.4 -4.75 -94.0 14.7 -97.7 42.1 -92.05 68.85 -86.95 93.0 -75.8 115.05 L-75.65 114.2 Q-74.75 107.6 -74.2 100.9 -73.75 95.7 -70.75 91.9 L-69.4 91.85 Q-68.45 91.9 -67.55 92.3 -67.05 92.5 -66.65 92.9 L-66.5 93.05 -66.1 92.9 -64.75 92.75 -62.9 93.05 Q-56.3 112.65 -47.55 131.95 -43.3 141.4 -37.75 150.4 -26.3 168.95 -16.3 187.1 -14.7 190.05 -14.0 193.7 -10.55 211.9 -7.45 230.25 -3.0 213.9 -6.05 196.9 M103.85 157.25 L103.65 157.9 103.25 158.65 102.7 159.25 102.05 159.8 101.6 159.95 100.25 160.15 100.2 160.25 Q92.6 160.1 89.4 153.75 86.3 147.5 88.0 140.75 L91.15 128.15 Q92.7 122.05 98.35 122.7 L99.35 123.7 101.45 116.8 101.75 115.75 101.5 117.7 Q99.6 131.45 100.45 144.75 L99.95 145.35 99.3 145.85 98.8 146.05 98.25 146.1 98.1 146.3 97.45 146.8 97.0 146.95 97.05 147.1 Q99.15 152.55 103.95 156.55 L103.85 157.25" fill="#000000" fill-rule="evenodd" stroke="none"/>
  </g>
</svg>
