<?xml version="1.0" encoding="UTF-8" standalone="no"?>
<svg xmlns:ffdec="https://www.free-decompiler.com/flash" xmlns:xlink="http://www.w3.org/1999/xlink" ffdec:objectType="shape" height="83.2px" width="71.2px" xmlns="http://www.w3.org/2000/svg">
  <g transform="matrix(1.0, 0.0, 0.0, 1.0, 40.45, -80.7)">
    <path d="M18.6 85.9 L17.6 84.8 18.55 85.7 18.6 85.9 M13.15 85.6 Q12.75 86.35 12.75 87.5 12.75 88.55 15.35 94.65 L18.55 102.5 Q19.15 104.45 20.55 111.45 22.3 117.5 25.15 117.5 27.05 117.5 27.85 116.0 28.35 115.15 28.35 114.2 28.35 113.05 26.35 105.55 L23.85 96.8 22.45 93.3 23.2 94.15 Q24.15 96.8 25.8 99.55 27.0 101.5 28.55 103.1 L29.95 110.8 Q29.95 113.1 28.45 115.6 26.2 119.4 21.6 119.5 L19.95 119.9 Q19.25 119.9 18.35 118.8 L17.25 117.7 17.0 116.7 Q15.2 113.55 12.75 107.3 L9.05 96.6 7.75 98.75 7.55 99.1 Q6.9 98.75 5.95 99.1 5.2 99.4 4.55 100.2 2.95 100.55 2.75 104.5 2.65 106.55 0.5 110.25 L-1.65 113.95 Q-1.65 114.8 -1.15 115.6 L-0.8 116.05 Q-1.9 117.0 -2.0 118.3 L-2.05 118.3 -3.55 117.95 -3.95 118.35 -4.65 118.0 -5.9 117.7 -5.0 115.6 -4.75 113.2 Q-3.65 111.4 -3.65 110.8 -3.65 110.0 -3.8 109.4 L-3.05 107.25 Q-1.5 106.1 -0.15 102.75 L1.6 97.25 1.65 97.1 Q6.75 87.65 6.75 86.15 L6.75 85.8 7.15 84.45 Q8.6 82.6 10.45 82.8 12.9 83.05 13.15 85.6 M-30.65 134.65 L-28.85 134.7 -25.75 134.6 -25.75 134.65 Q-24.75 136.3 -21.05 136.3 -15.2 136.3 -9.45 133.3 L-9.35 133.4 -8.6 132.85 -7.55 132.2 Q-3.0 129.45 -1.75 126.95 L-1.65 126.8 -1.45 126.6 -1.35 126.65 Q0.35 127.6 0.35 129.6 0.35 131.55 -2.35 135.3 L-4.5 137.75 Q-4.65 138.65 -5.35 139.3 -6.4 140.3 -8.25 140.3 -13.55 140.3 -17.3 138.6 -20.2 138.25 -24.5 136.7 -28.35 136.7 -31.9 135.05 L-30.65 134.65 M9.2 105.85 Q10.7 105.2 12.45 107.5 14.5 111.7 14.85 113.5 L17.55 125.5 20.0 137.35 Q21.15 144.15 21.15 149.5 L21.15 154.6 Q20.55 159.0 17.55 159.1 L17.75 158.4 17.95 154.95 Q17.95 151.45 17.3 146.1 L16.15 137.1 15.4 132.6 14.55 128.1 Q13.35 125.65 12.2 124.65 L11.35 121.6 10.75 118.75 10.75 118.4 9.95 111.65 9.2 105.85" fill="#990000" fill-rule="evenodd" stroke="none"/>
    <path d="M-1.5 83.5 Q-3.5 84.4 -4.3 86.35 -5.15 88.35 -5.55 92.1 L-7.4 98.1 -8.85 103.65 -8.8 103.9 -9.15 105.3 -10.65 109.7 -10.85 110.35 Q-13.75 113.0 -14.0 116.15 L-14.85 114.7 -15.25 112.3 Q-15.25 110.65 -13.1 102.6 L-10.95 94.6 Q-10.85 85.8 -5.65 83.1 -3.6 82.05 -2.05 83.05 L-1.5 83.5 M-15.6 121.95 Q-16.45 123.3 -16.45 125.3 L-16.3 126.75 -25.5 127.95 -25.65 127.95 -25.65 128.0 -27.25 128.2 Q-29.55 128.2 -30.4 127.65 -31.2 127.1 -32.25 127.1 -34.05 127.1 -35.35 128.7 L-35.45 128.85 -36.15 128.8 Q-38.05 127.8 -38.05 125.65 -38.05 124.45 -35.4 122.5 -32.85 120.55 -29.65 119.3 -22.8 116.7 -21.5 120.1 -18.3 120.65 -15.6 121.95 M-2.0 118.3 Q-1.9 117.0 -0.8 116.05 0.15 117.1 1.95 117.1 L3.75 116.95 6.45 127.8 Q7.9 132.8 9.1 135.7 L9.35 137.2 Q11.15 148.35 11.15 151.05 L10.75 152.85 10.35 154.65 10.85 157.95 11.75 159.8 10.75 159.9 Q7.2 159.9 5.85 151.6 4.95 141.95 4.35 139.2 3.2 132.45 2.25 128.7 L0.05 123.9 Q-2.05 119.4 -2.05 118.65 L-2.0 118.3" fill="#ff0200" fill-rule="evenodd" stroke="none"/>
    <path d="M17.6 84.8 L18.6 85.9 19.95 88.1 22.45 93.3 23.85 96.8 26.35 105.55 Q28.35 113.05 28.35 114.2 28.35 115.15 27.85 116.0 27.05 117.5 25.15 117.5 22.3 117.5 20.55 111.45 19.15 104.45 18.55 102.5 L15.35 94.65 Q12.75 88.55 12.75 87.5 12.75 86.35 13.15 85.6 13.65 84.45 14.9 84.0 16.25 83.55 17.6 84.8 M7.15 84.45 L6.75 85.8 6.75 86.15 Q6.75 87.65 1.65 97.1 L1.6 97.25 -0.15 102.75 Q-1.5 106.1 -3.05 107.25 L-3.8 109.4 Q-3.65 110.0 -3.65 110.8 -3.65 111.4 -4.75 113.2 L-5.0 115.6 -5.9 117.7 -4.65 118.0 -3.95 118.35 Q-0.85 120.15 -0.85 124.7 -0.85 125.7 -1.45 126.6 L-1.65 126.8 -1.75 126.95 Q-3.0 129.45 -7.55 132.2 L-8.6 132.85 -9.45 133.3 Q-15.2 136.3 -21.05 136.3 -24.75 136.3 -25.75 134.65 L-25.75 134.6 -28.85 134.7 -30.65 134.65 Q-34.25 134.4 -35.65 133.2 -36.45 132.5 -36.45 131.1 -36.45 130.1 -35.45 128.85 L-35.35 128.7 Q-34.05 127.1 -32.25 127.1 -31.2 127.1 -30.4 127.65 -29.55 128.2 -27.25 128.2 L-25.65 128.0 -25.5 127.95 -16.3 126.75 -16.45 125.3 Q-16.45 123.3 -15.6 121.95 -15.0 121.0 -14.05 120.4 -13.5 120.05 -12.8 119.8 L-13.75 118.65 -14.05 116.85 -14.0 116.15 Q-13.75 113.0 -10.85 110.35 L-10.65 109.7 -9.15 105.3 -8.8 103.9 -8.85 103.65 -7.4 98.1 -5.55 92.1 Q-5.15 88.35 -4.3 86.35 -3.5 84.4 -1.5 83.5 -0.35 82.95 1.2 82.8 2.95 80.5 4.95 81.25 7.15 82.05 7.15 84.4 L7.15 84.45 M-0.8 116.05 L-1.15 115.6 Q-1.65 114.8 -1.65 113.95 L0.5 110.25 Q2.65 106.55 2.75 104.5 2.95 100.55 4.55 100.2 5.2 99.4 5.95 99.1 6.9 98.75 7.55 99.1 9.1 100.0 9.15 105.05 L9.15 105.25 9.2 105.85 9.95 111.65 10.75 118.4 10.75 118.75 11.35 121.6 12.2 124.65 Q13.35 125.65 14.55 128.1 L15.4 132.6 16.15 137.1 17.3 146.1 Q17.95 151.45 17.95 154.95 L17.75 158.4 17.55 159.1 Q16.7 161.1 14.35 161.1 12.75 161.1 11.75 159.8 L10.85 157.95 10.35 154.65 10.75 152.85 11.15 151.05 Q11.15 148.35 9.35 137.2 L9.1 135.7 Q7.9 132.8 6.45 127.8 L3.75 116.95 1.95 117.1 Q0.15 117.1 -0.8 116.05 M-8.1 119.05 L-8.85 119.1 -9.05 119.1 -9.35 119.4 -8.85 119.45 -8.25 119.55 -8.1 119.05" fill="#ce0000" fill-rule="evenodd" stroke="none"/>
    <path d="M11.55 85.5 L11.65 85.8 11.85 86.1 11.95 86.4 11.95 86.7 11.95 87.0 11.95 87.3 11.85 87.6 11.75 87.9 11.55 88.2 11.45 88.5 11.25 88.8 11.15 89.1 11.15 89.4 11.15 89.7 11.05 90.0 10.95 90.3 10.75 90.6 10.75 90.9 10.75 91.2 10.65 91.5 10.55 91.8 10.45 92.1 10.25 92.4 10.15 92.7 10.05 93.0 9.95 93.3 9.95 93.6 9.95 93.9 9.95 94.2 9.85 94.5 9.75 94.8 9.55 95.1 9.55 95.4 9.45 95.7 9.25 96.0 9.15 96.3 9.15 96.6 9.15 96.8 9.55 96.9 10.05 97.2 10.35 97.5 10.45 97.8 10.65 98.1 10.75 98.4 10.75 98.7 10.85 99.0 11.05 99.3 11.15 99.6 11.35 99.9 11.45 100.2 11.55 100.5 11.65 100.8 11.95 101.1 12.05 101.4 12.25 101.7 12.35 102.0 12.35 102.3 12.55 102.6 12.65 102.9 12.85 103.2 12.95 103.5 13.15 103.8 13.25 104.1 13.45 104.4 13.55 104.7 13.65 105.0 13.85 105.3 13.95 105.6 13.95 105.9 13.95 106.2 14.05 106.5 14.15 106.8 14.35 107.1 14.45 107.4 14.55 107.7 14.65 108.0 14.75 108.3 14.85 108.6 15.05 108.9 15.15 109.2 15.25 109.5 15.35 109.8 15.45 110.1 15.55 110.4 15.65 110.7 15.75 111.0 15.85 111.3 15.95 111.6 16.05 111.9 16.15 112.2 16.25 112.5 16.35 112.8 16.45 113.1 16.55 113.4 16.65 113.7 16.75 114.0 16.75 114.3 16.75 114.6 16.75 114.9 16.75 115.2 16.75 115.5 16.85 115.8 16.95 116.1 17.05 116.4 17.15 116.7 17.25 117.0 17.35 117.3 17.4 117.35 17.45 117.3 17.75 117.2 18.35 117.1 18.75 117.1 19.55 117.3 20.05 117.6 20.35 117.9 20.95 118.2 21.95 118.5 24.25 118.5 25.15 118.2 25.25 117.9 25.45 117.6 25.65 117.3 25.75 117.0 25.95 116.7 26.05 116.4 26.15 116.1 26.35 115.8 26.35 115.5 26.35 115.2 26.35 114.9 26.35 114.6 26.35 114.3 26.45 114.0 26.55 113.7 26.75 113.4 26.75 113.1 26.75 112.8 26.75 112.5 26.75 112.2 26.75 111.9 26.75 111.6 26.75 111.3 26.75 111.0 26.65 110.7 26.55 110.4 26.45 110.1 26.35 109.8 26.35 109.5 26.35 109.2 26.35 108.9 26.25 108.6 26.05 108.3 25.95 108.0 25.95 107.7 25.95 107.4 25.95 107.1 25.95 106.8 25.75 106.5 25.65 106.2 25.55 105.9 25.55 105.6 25.35 105.3 25.25 105.0 25.05 104.7 24.95 104.4 24.85 104.1 24.75 103.8 24.65 103.5 24.55 103.2 24.45 102.9 24.35 102.6 24.25 102.3 24.15 102.0 24.05 101.7 23.85 101.4 23.65 101.1 23.55 100.8 23.55 100.5 23.45 100.2 23.25 99.9 23.15 99.6 22.95 99.3 22.85 99.0 22.75 98.7 22.75 98.4 22.55 98.1 22.45 97.8 22.35 97.5 22.15 97.2 22.05 96.9 21.85 96.6 21.55 96.3 21.35 96.0 21.25 95.7 21.05 95.4 20.85 95.1 20.75 94.8 20.55 94.5 20.25 94.2 19.95 93.9 19.75 93.6 19.65 93.3 19.55 93.0 19.55 92.7 19.55 92.4 19.35 92.1 19.05 91.8 18.75 91.5 18.55 91.2 18.35 90.9 18.25 90.6 18.05 90.3 17.95 90.0 17.85 89.7 17.75 89.4 17.55 89.1 17.35 88.8 17.15 88.5 17.05 88.2 16.75 87.9 16.55 87.6 16.45 87.3 16.25 87.0 16.05 86.7 15.95 86.4 15.95 86.1 15.95 85.8 15.95 85.5 15.95 85.2 16.05 84.9 16.15 84.6 16.35 84.3 16.65 84.0 17.05 83.7 17.95 83.6 17.95 83.5 18.75 83.7 19.25 84.0 19.55 84.3 19.65 84.6 19.85 84.9 19.95 85.2 20.15 85.5 20.25 85.8 20.45 86.1 20.65 86.4 20.75 86.7 21.05 87.0 21.25 87.3 21.35 87.6 21.55 87.9 21.65 88.2 21.75 88.5 21.85 88.8 21.95 89.1 22.25 89.4 22.55 89.7 22.85 90.0 22.95 90.3 23.15 90.6 23.25 90.9 23.45 91.2 23.55 91.4 23.65 91.6 23.95 91.9 24.25 92.2 24.45 92.5 24.55 92.8 24.75 93.1 24.85 93.4 25.05 93.7 25.15 94.0 25.35 94.3 25.45 94.6 25.65 94.9 25.75 95.2 25.95 95.5 26.05 95.8 26.25 96.1 26.35 96.4 26.55 96.7 26.65 97.0 26.75 97.3 26.75 97.6 26.95 97.9 27.05 98.2 27.25 98.5 27.35 98.8 27.45 99.1 27.55 99.4 27.65 99.7 27.75 100.0 27.85 100.3 27.95 100.6 28.05 100.9 28.15 101.2 28.35 101.5 28.45 101.8 28.65 102.1 28.75 102.4 28.75 102.7 28.75 103.0 28.95 103.3 29.15 103.6 29.35 103.9 29.45 104.2 29.65 104.5 29.75 104.8 29.85 105.1 29.95 105.4 29.95 105.7 29.95 106.0 29.95 106.3 29.95 106.6 30.05 106.9 30.15 107.2 30.25 107.5 30.35 107.8 30.35 108.1 30.35 108.4 30.35 108.7 30.45 109.0 30.65 109.3 30.75 109.6 30.75 109.9 30.75 110.2 30.75 110.5 30.75 110.8 30.75 111.1 30.75 111.4 30.75 111.7 30.75 112.0 30.75 112.3 30.75 112.6 30.75 112.9 30.75 113.2 30.75 113.5 30.75 113.8 30.75 114.1 30.65 114.4 30.55 114.7 30.45 115.0 30.35 115.3 30.35 115.6 30.35 115.9 30.35 116.2 30.35 116.5 30.35 116.8 30.25 117.1 30.15 117.4 30.05 117.7 29.85 118.0 29.75 118.3 29.55 118.6 29.45 118.9 29.25 119.2 29.15 119.5 28.95 119.8 28.85 120.1 28.65 120.4 28.35 120.7 28.05 121.0 27.75 121.3 27.45 121.6 27.05 121.9 26.55 122.2 25.95 122.5 25.15 122.7 21.55 122.7 20.65 122.5 20.35 122.3 19.45 122.1 19.15 121.9 18.75 121.8 18.85 122.1 19.05 122.4 19.15 122.7 19.25 123.0 19.45 123.3 19.55 123.6 19.55 123.9 19.65 124.2 19.85 124.5 19.95 124.8 19.95 125.1 19.95 125.4 20.05 125.7 20.15 126.0 20.25 126.3 20.35 126.6 20.35 126.9 20.45 127.2 20.55 127.5 20.65 127.8 20.75 128.1 20.75 128.4 20.75 128.7 20.75 129.0 20.75 129.3 20.85 129.6 20.95 129.9 21.05 130.2 21.15 130.5 21.25 130.8 21.35 131.1 21.45 131.4 21.55 131.7 21.55 132.0 21.55 132.3 21.55 132.6 21.55 132.9 21.55 133.2 21.55 133.5 21.65 133.8 21.85 134.1 21.95 134.4 21.95 134.7 21.95 135.0 22.05 135.3 22.15 135.6 22.25 135.9 22.35 136.2 22.35 136.5 22.35 136.8 22.35 137.1 22.45 137.4 22.65 137.7 22.75 138.0 22.75 138.3 22.75 138.6 22.75 138.9 22.75 139.2 22.95 139.5 23.05 139.8 23.15 140.1 23.15 140.4 23.15 140.7 23.15 141.0 23.15 141.3 23.15 141.6 23.35 141.9 23.45 142.2 23.55 142.5 23.55 142.8 23.55 143.1 23.55 143.4 23.55 143.7 23.55 144.0 23.55 144.3 23.65 144.6 23.85 144.9 23.95 145.2 23.95 145.5 23.95 145.8 23.95 146.1 23.95 146.4 23.95 146.7 23.95 147.0 23.95 147.3 23.95 147.6 23.95 147.9 23.95 148.2 23.95 148.5 23.95 148.8 23.95 149.1 23.95 149.4 23.95 149.7 23.95 150.0 23.95 150.3 23.95 150.6 23.95 150.9 23.95 151.2 23.95 151.5 23.95 151.8 23.95 152.1 23.95 152.4 23.95 152.7 23.95 153.0 23.95 153.3 23.95 153.6 23.95 153.9 23.95 154.2 23.95 154.5 23.95 154.8 23.85 155.1 23.75 155.4 23.65 155.7 23.55 156.0 23.55 156.3 23.55 156.6 23.55 156.9 23.55 157.2 23.45 157.5 23.35 157.8 23.25 158.1 23.15 158.4 23.05 158.7 22.95 159.0 22.85 159.3 22.65 159.6 22.35 159.9 22.05 160.2 21.85 160.5 21.65 160.8 21.55 161.1 21.25 161.4 20.75 161.7 20.15 162.0 19.55 162.3 19.25 162.5 18.95 162.6 18.15 162.8 17.75 163.0 16.95 163.2 16.55 163.4 15.75 163.6 15.35 163.8 14.75 163.9 11.15 163.9 10.25 163.7 9.85 163.4 9.55 163.1 9.25 162.8 8.95 162.5 8.65 162.2 8.35 161.9 8.15 161.6 8.05 161.3 7.85 161.0 7.55 160.7 7.35 160.4 7.25 160.1 7.05 159.8 6.85 159.5 6.75 159.2 6.75 158.9 6.65 158.6 6.45 158.3 6.35 158.0 6.35 157.7 6.35 157.4 6.35 157.1 6.35 156.8 6.15 156.5 6.05 156.2 5.95 155.9 5.95 155.6 5.95 155.3 5.95 155.0 5.95 154.7 5.95 154.4 5.75 154.1 5.65 153.8 5.55 153.5 5.55 153.2 5.55 152.9 5.55 152.6 5.55 152.3 5.55 152.0 5.55 151.7 5.45 151.4 5.25 151.1 5.15 150.8 5.15 150.5 5.15 150.2 5.15 149.9 5.15 149.6 4.95 149.3 4.85 149.0 4.75 148.7 4.75 148.4 4.75 148.1 4.75 147.8 4.75 147.5 4.75 147.2 4.55 146.9 4.45 146.6 4.35 146.3 4.35 146.0 4.35 145.7 4.35 145.4 4.25 145.1 4.15 144.8 4.05 144.5 3.95 144.2 3.95 143.9 3.95 143.6 3.95 143.3 3.95 143.0 3.95 142.7 3.95 142.4 3.75 142.1 3.65 141.8 3.55 141.5 3.55 141.2 3.55 140.9 3.55 140.6 3.55 140.3 3.55 140.0 3.55 139.7 3.55 139.4 3.45 139.1 3.35 138.8 3.25 138.5 3.15 138.2 3.15 137.9 3.15 137.6 2.95 137.3 2.85 137.0 2.75 136.7 2.75 136.4 2.75 136.1 2.65 135.8 2.45 135.5 2.35 135.2 2.35 134.9 2.35 134.6 2.25 134.3 2.15 134.0 2.1 133.8 2.05 133.8 1.85 134.1 1.65 134.4 1.55 134.7 1.35 135.0 1.25 135.3 1.05 135.6 0.65 135.9 0.35 136.2 0.15 136.5 -0.15 136.8 -0.25 137.1 -0.45 137.4 -0.65 137.7 -0.95 138.0 -1.05 138.3 -1.25 138.6 -1.45 138.9 -1.75 139.2 -2.05 139.5 -2.25 139.8 -2.35 140.1 -2.55 140.4 -2.85 140.7 -3.15 141.0 -3.45 141.3 -3.75 141.6 -4.05 141.9 -4.35 142.2 -4.85 142.5 -5.35 142.8 -5.75 143.1 -5.95 143.3 -6.25 143.4 -7.05 143.6 -7.45 143.8 -8.05 143.9 -10.05 143.9 -10.95 143.7 -12.85 143.5 -13.75 143.3 -14.05 143.1 -14.95 142.9 -15.65 142.7 -16.55 142.5 -16.85 142.3 -17.75 142.1 -18.45 141.9 -19.35 141.7 -20.05 141.5 -20.95 141.3 -21.25 141.1 -22.15 140.9 -22.45 140.7 -23.35 140.5 -23.75 140.3 -24.55 140.1 -25.65 139.9 -26.55 139.7 -26.95 139.5 -27.75 139.3 -28.85 139.1 -29.75 138.9 -30.45 138.7 -31.35 138.5 -31.65 138.3 -32.55 138.1 -32.85 137.9 -33.75 137.7 -34.35 137.4 -34.75 137.2 -34.95 137.1 -35.75 136.9 -36.05 136.7 -36.95 136.5 -37.55 136.2 -38.05 135.9 -38.35 135.6 -38.65 135.3 -38.95 135.0 -39.25 134.7 -39.55 134.4 -39.85 134.1 -40.15 133.8 -40.35 133.5 -40.45 133.2 -40.45 132.9 -40.45 132.6 -40.45 132.3 -40.45 132.0 -40.45 131.7 -40.45 131.4 -40.45 131.1 -40.45 130.8 -40.35 130.5 -40.25 130.2 -40.05 129.9 -39.95 129.6 -39.85 129.3 -39.65 129.0 -39.65 128.7 -39.55 128.4 -39.45 128.1 -39.25 127.8 -39.25 127.5 -39.25 127.2 -39.15 126.9 -39.05 126.6 -38.85 126.3 -38.55 126.0 -38.45 125.7 -38.45 125.4 -38.35 125.1 -38.15 124.8 -37.95 124.5 -37.85 124.2 -37.75 123.9 -37.65 123.6 -37.55 123.3 -37.45 123.0 -37.35 122.7 -37.25 122.4 -37.15 122.1 -37.05 121.8 -36.85 121.5 -36.55 121.2 -36.25 120.9 -36.05 120.6 -36.05 120.3 -35.95 120.0 -35.85 119.7 -35.55 119.4 -35.25 119.1 -35.15 118.8 -35.05 118.5 -34.75 118.2 -34.45 117.9 -34.15 117.6 -33.85 117.3 -33.55 117.0 -32.85 116.7 -32.35 116.4 -31.75 116.1 -30.85 116.0 -30.85 115.9 -26.05 115.9 -25.25 116.1 -24.85 116.3 -24.05 116.5 -22.85 116.7 -22.05 116.9 -21.25 117.1 -20.45 117.3 -20.05 117.5 -19.25 117.7 -17.25 117.9 -16.85 118.0 -16.85 117.9 -16.85 117.6 -16.85 117.3 -16.85 117.0 -16.85 116.7 -16.85 116.4 -16.85 116.1 -16.85 115.8 -16.85 115.5 -16.85 115.2 -16.85 114.9 -16.85 114.6 -16.85 114.3 -16.85 114.0 -16.85 113.7 -16.85 113.4 -16.85 113.1 -16.85 112.8 -16.85 112.5 -16.85 112.2 -16.85 111.9 -16.85 111.6 -16.75 111.3 -16.65 111.0 -16.55 110.7 -16.45 110.4 -16.45 110.1 -16.45 109.8 -16.45 109.5 -16.45 109.2 -16.45 108.9 -16.45 108.6 -16.45 108.3 -16.45 108.0 -16.45 107.7 -16.45 107.4 -16.35 107.1 -16.15 106.8 -16.05 106.5 -16.05 106.2 -16.05 105.9 -15.95 105.6 -15.85 105.3 -15.65 105.0 -15.65 104.7 -15.65 104.4 -15.55 104.1 -15.45 103.8 -15.35 103.5 -15.25 103.2 -15.25 102.9 -15.25 102.6 -15.15 102.3 -14.95 102.0 -14.85 101.7 -14.85 101.4 -14.85 101.1 -14.85 100.8 -14.75 100.5 -14.65 100.2 -14.55 99.9 -14.45 99.6 -14.45 99.3 -14.45 99.0 -14.35 98.7 -14.15 98.4 -14.05 98.1 -14.05 97.8 -13.95 97.5 -13.75 97.2 -13.65 96.9 -13.65 96.6 -13.65 96.3 -13.65 96.0 -13.65 95.7 -13.65 95.4 -13.55 95.1 -13.35 94.8 -13.05 94.5 -12.85 94.2 -12.85 93.9 -12.85 93.6 -12.75 93.3 -12.65 93.0 -12.55 92.7 -12.45 92.4 -12.45 92.1 -12.45 91.8 -12.35 91.5 -12.15 91.2 -12.05 90.9 -12.05 90.6 -11.95 90.3 -11.75 90.0 -11.55 89.7 -11.45 89.4 -11.35 89.1 -11.25 88.8 -11.25 88.5 -11.25 88.2 -11.15 87.9 -10.95 87.6 -10.75 87.3 -10.65 87.0 -10.55 86.7 -10.45 86.4 -10.35 86.1 -10.25 85.8 -10.05 85.5 -9.95 85.2 -9.85 84.9 -9.65 84.6 -9.55 84.3 -9.35 84.0 -9.15 83.7 -9.05 83.4 -8.85 83.1 -8.75 82.8 -8.65 82.5 -8.45 82.2 -8.35 81.9 -8.15 81.6 -7.85 81.3 -7.55 81.0 -7.05 80.8 -6.45 80.8 -6.45 80.7 -5.65 80.9 -5.15 81.2 -4.85 81.5 -4.75 81.8 -4.55 82.1 -4.45 82.4 -4.45 82.7 -4.45 83.0 -4.45 83.3 -4.55 83.6 -4.65 83.9 -4.85 84.2 -4.95 84.5 -5.15 84.8 -5.25 85.1 -5.45 85.4 -5.55 85.7 -5.75 86.0 -6.05 86.3 -6.05 86.6 -6.15 86.9 -6.35 87.2 -6.45 87.5 -6.45 87.8 -6.55 88.1 -6.75 88.4 -6.85 88.7 -7.05 89.0 -7.15 89.3 -7.25 89.6 -7.25 89.9 -7.25 90.2 -7.35 90.5 -7.55 90.8 -7.65 91.1 -7.85 91.4 -7.95 91.7 -8.05 92.0 -8.15 92.3 -8.25 92.6 -8.35 92.9 -8.45 93.2 -8.45 93.5 -8.45 93.8 -8.55 94.1 -8.75 94.4 -8.85 94.7 -8.85 95.0 -8.95 95.3 -9.05 95.6 -9.25 95.9 -9.35 96.2 -9.55 96.5 -9.65 96.8 -9.65 97.1 -9.65 97.4 -9.65 97.7 -9.75 98.0 -9.85 98.3 -9.95 98.6 -10.05 98.9 -10.15 99.2 -10.25 99.5 -10.35 99.8 -10.45 100.1 -10.45 100.4 -10.45 100.7 -10.45 101.0 -10.55 101.3 -10.75 101.6 -10.85 101.9 -10.85 102.2 -10.85 102.5 -10.95 102.8 -11.05 103.1 -11.15 103.4 -11.25 103.7 -11.25 104.0 -11.25 104.3 -11.35 104.6 -11.55 104.9 -11.65 105.2 -11.65 105.5 -11.65 105.8 -11.75 106.1 -11.85 106.4 -12.05 106.7 -12.05 107.0 -12.05 107.3 -12.05 107.6 -12.15 107.9 -12.25 108.2 -12.35 108.5 -12.45 108.8 -12.45 109.1 -12.45 109.4 -12.45 109.7 -12.45 110.0 -12.45 110.3 -12.45 110.6 -12.45 110.9 -12.45 111.2 -12.45 111.5 -12.45 111.8 -12.55 112.1 -12.75 112.4 -12.85 112.7 -12.85 113.0 -12.85 113.3 -12.85 113.6 -12.85 113.9 -12.85 114.2 -12.85 114.5 -12.85 114.8 -12.85 115.1 -12.85 115.4 -12.85 115.7 -12.85 116.0 -12.85 116.3 -12.85 116.6 -12.75 116.9 -12.65 117.2 -12.45 117.5 -12.35 117.8 -12.15 118.1 -11.85 118.4 -11.45 118.6 -10.85 118.7 -10.05 118.9 -9.25 119.1 -7.95 119.0 -7.65 118.7 -7.15 118.4 -6.65 118.1 -6.35 117.8 -6.05 117.5 -5.95 117.2 -5.85 116.9 -5.65 116.6 -5.55 116.3 -5.35 116.0 -5.15 115.7 -5.05 115.4 -4.85 115.1 -4.75 114.8 -4.65 114.5 -4.45 114.2 -4.45 113.9 -4.35 113.6 -4.25 113.3 -3.95 113.0 -3.75 112.7 -3.55 112.4 -3.45 112.1 -3.15 111.8 -2.95 111.5 -2.75 111.2 -2.65 110.9 -2.35 110.6 -2.15 110.3 -1.95 110.0 -1.85 109.7 -1.65 109.4 -1.55 109.1 -1.35 108.8 -1.05 108.5 -0.85 108.2 -0.75 107.9 -0.55 107.6 -0.45 107.3 -0.45 107.0 -0.35 106.7 -0.15 106.4 0.15 106.1 0.35 105.8 0.45 105.5 0.65 105.2 0.85 104.9 0.95 104.6 1.05 104.3 1.25 104.0 1.35 103.7 1.55 103.4 1.65 103.1 1.85 102.8 2.15 102.5 2.35 102.2 2.35 101.9 2.45 101.6 2.55 101.3 2.85 101.0 3.05 100.7 3.15 100.4 3.25 100.1 3.35 99.8 3.45 99.5 3.55 99.2 3.65 98.9 3.75 98.6 3.95 98.3 4.25 98.0 4.35 97.7 4.35 97.4 4.45 97.1 4.65 96.8 4.75 96.5 4.75 96.2 4.85 95.9 5.05 95.6 5.15 95.3 5.15 95.0 5.25 94.7 5.45 94.4 5.65 94.1 5.75 93.8 5.85 93.5 5.95 93.2 5.95 92.9 5.95 92.6 5.95 92.3 6.05 92.0 6.15 91.7 6.35 91.4 6.35 91.1 6.45 90.8 6.55 90.5 6.75 90.2 6.75 89.9 6.75 89.6 6.85 89.3 6.95 89.0 7.05 88.7 7.15 88.4 7.15 88.1 7.15 87.8 7.25 87.5 7.45 87.2 7.65 86.9 7.75 86.6 7.95 86.3 8.05 86.0 8.15 85.7 8.45 85.4 8.75 85.1 9.05 84.9 9.35 84.8 9.95 84.7 10.75 84.9 11.25 85.2 11.55 85.5 M10.15 107.6 L10.05 107.3 9.95 107.0 9.95 106.7 9.95 106.4 9.75 106.1 9.65 105.8 9.45 105.5 9.35 105.2 9.15 104.9 9.05 104.6 8.75 104.3 8.55 104.0 8.45 103.7 8.35 103.4 8.25 103.1 8.15 102.8 7.95 102.5 7.85 102.2 7.65 101.9 7.55 101.6 7.35 101.3 7.25 101.0 7.15 101.1 7.15 101.4 7.15 101.7 7.05 102.0 6.95 102.3 6.75 102.6 6.55 102.9 6.35 103.2 6.25 103.5 6.15 103.8 6.05 104.1 5.85 104.4 5.55 104.7 5.35 105.0 5.25 105.3 5.05 105.6 4.75 105.9 4.75 106.2 4.65 106.5 4.45 106.8 4.35 107.1 4.05 107.4 3.85 107.7 3.65 108.0 3.55 108.3 3.45 108.6 3.25 108.9 3.15 109.2 2.95 109.5 2.85 109.8 2.65 110.1 2.45 110.4 2.35 110.7 2.05 111.0 1.85 111.3 1.75 111.6 1.55 111.9 1.45 112.2 1.25 112.5 1.05 112.8 0.75 113.1 0.65 113.4 0.45 113.7 0.25 114.0 -0.05 114.3 -0.15 114.6 -0.35 114.9 -0.45 115.2 -0.55 115.5 -0.65 115.8 -0.75 116.1 -0.95 116.4 -1.05 116.7 -1.25 117.0 -1.35 117.3 -1.55 117.6 -1.65 117.9 -1.85 118.2 -1.9 118.35 -1.65 118.3 -0.85 118.5 -0.35 118.8 -0.05 119.1 0.25 119.4 0.45 119.7 0.55 120.0 0.75 120.3 0.85 120.6 1.05 120.9 1.15 121.2 1.35 121.5 1.45 121.8 1.65 122.1 1.75 122.4 1.95 122.7 2.05 123.0 2.25 123.3 2.35 123.6 2.35 123.9 2.45 124.2 2.65 124.5 2.75 124.8 2.75 125.1 2.85 125.4 3.05 125.7 3.15 126.0 3.15 126.3 3.45 126.6 3.65 126.9 3.75 127.2 3.95 127.5 4.05 127.8 4.25 128.1 4.35 128.4 4.55 128.7 4.65 129.0 4.85 129.3 4.95 129.6 5.15 129.9 5.25 130.2 5.45 130.5 5.55 130.8 5.55 131.1 5.65 131.4 5.85 131.7 5.95 132.0 5.95 132.3 6.05 132.6 6.25 132.9 6.35 133.2 6.35 133.5 6.35 133.8 6.45 134.1 6.55 134.4 6.65 134.7 6.75 135.0 6.75 135.3 6.75 135.6 6.95 135.9 7.05 136.2 7.15 136.5 7.15 136.8 7.15 137.1 7.15 137.4 7.25 137.7 7.35 138.0 7.45 138.3 7.55 138.6 7.55 138.9 7.55 139.2 7.55 139.5 7.55 139.8 7.55 140.1 7.55 140.4 7.75 140.7 7.85 141.0 7.95 141.3 7.95 141.6 7.95 141.9 7.95 142.2 7.95 142.5 7.95 142.8 7.95 143.1 8.05 143.4 8.25 143.7 8.35 144.0 8.35 144.3 8.35 144.6 8.35 144.9 8.35 145.2 8.35 145.5 8.45 145.8 8.65 146.1 8.75 146.4 8.75 146.7 8.75 147.0 8.75 147.3 8.75 147.6 8.95 147.9 9.05 148.2 9.15 148.5 9.15 148.8 9.15 149.1 9.15 149.4 9.25 149.7 9.35 150.0 9.45 150.3 9.55 150.6 9.55 150.9 9.55 151.2 9.55 151.5 9.55 151.8 9.55 152.1 9.55 152.4 9.55 152.7 9.65 153.0 9.85 153.3 9.95 153.6 9.95 153.9 9.95 154.2 9.95 154.5 9.95 154.8 9.95 155.1 10.05 155.4 10.25 155.7 10.35 156.0 10.35 156.3 10.35 156.6 10.45 156.9 10.55 157.2 10.75 157.5 10.85 157.8 11.05 158.1 11.15 158.4 11.15 158.7 11.45 159.0 11.65 159.3 11.85 159.6 12.15 159.8 14.25 159.7 14.85 159.4 15.35 159.2 15.95 159.1 16.65 158.9 17.65 158.6 18.25 158.3 18.65 158.0 18.85 157.7 18.95 157.4 19.15 157.1 19.25 156.8 19.35 156.5 19.55 156.2 19.55 155.9 19.55 155.6 19.55 155.3 19.55 155.0 19.55 154.7 19.65 154.4 19.75 154.1 19.95 153.8 19.95 153.5 19.95 153.2 19.95 152.9 19.95 152.6 19.95 152.3 19.95 152.0 19.95 151.7 19.95 151.4 19.95 151.1 19.95 150.8 19.95 150.5 19.95 150.2 19.95 149.9 19.95 149.6 19.95 149.3 19.95 149.0 19.95 148.7 19.95 148.4 19.95 148.1 19.95 147.8 19.95 147.5 19.95 147.2 19.95 146.9 19.95 146.6 19.85 146.3 19.75 146.0 19.65 145.7 19.55 145.4 19.55 145.1 19.55 144.8 19.55 144.5 19.55 144.2 19.55 143.9 19.55 143.6 19.35 143.3 19.25 143.0 19.15 142.7 19.15 142.4 19.15 142.1 19.15 141.8 19.15 141.5 19.15 141.2 18.95 140.9 18.85 140.6 18.75 140.3 18.75 140.0 18.75 139.7 18.75 139.4 18.65 139.1 18.55 138.8 18.45 138.5 18.35 138.2 18.35 137.9 18.35 137.6 18.35 137.3 18.35 137.0 18.25 136.7 18.15 136.4 18.05 136.1 17.95 135.8 17.95 135.5 17.95 135.2 17.75 134.9 17.65 134.6 17.55 134.3 17.55 134.0 17.55 133.7 17.55 133.4 17.55 133.1 17.55 132.8 17.55 132.5 17.45 132.2 17.25 131.9 17.15 131.6 17.15 131.3 17.05 131.0 16.85 130.7 16.75 130.4 16.75 130.1 16.75 129.8 16.75 129.5 16.75 129.2 16.75 128.9 16.65 128.6 16.45 128.3 16.35 128.0 16.35 127.7 16.35 127.4 16.25 127.1 16.15 126.8 16.05 126.5 15.95 126.2 15.85 125.9 15.75 125.6 15.65 125.3 15.55 125.0 15.55 124.7 15.55 124.4 15.35 124.1 15.05 123.8 14.85 123.5 14.75 123.2 14.75 122.9 14.75 122.6 14.65 122.3 14.55 122.0 14.35 121.7 14.25 121.4 14.05 121.1 13.95 120.8 13.95 120.5 13.95 120.2 13.95 119.9 13.85 119.6 13.75 119.3 13.65 119.0 13.55 118.7 13.45 118.4 13.35 118.1 13.25 117.8 13.15 117.5 13.05 117.2 12.95 116.9 12.85 116.6 12.75 116.3 12.75 116.0 12.75 115.7 12.75 115.4 12.75 115.1 12.75 114.8 12.65 114.5 12.55 114.2 12.45 113.9 12.35 113.6 12.25 113.3 12.15 113.0 12.05 112.7 11.95 112.4 11.85 112.1 11.75 111.8 11.65 111.5 11.55 111.2 11.45 110.9 11.35 110.6 11.25 110.3 11.15 110.0 10.95 109.7 10.85 109.4 10.75 109.1 10.65 108.8 10.55 108.5 10.45 108.2 10.25 107.9 10.15 107.6 M0.05 129.2 L-0.25 128.9 -0.35 128.6 -0.45 128.3 -0.65 128.0 -0.75 127.7 -0.85 127.4 -0.95 127.1 -1.05 126.8 -1.15 126.5 -1.25 126.2 -1.35 125.9 -1.45 125.6 -1.55 125.3 -1.65 125.0 -1.75 124.7 -1.85 124.4 -1.95 124.1 -2.15 123.8 -2.35 123.5 -2.45 123.2 -2.65 122.9 -2.75 122.6 -2.85 122.3 -3.15 122.0 -3.45 121.7 -3.55 121.4 -3.65 121.1 -3.65 120.8 -3.65 120.7 -3.85 120.9 -4.15 121.2 -4.45 121.5 -4.75 121.8 -5.05 122.1 -5.45 122.4 -6.05 122.7 -6.35 122.9 -6.65 123.0 -7.45 123.2 -7.85 123.4 -8.45 123.5 -8.85 123.5 -9.75 123.3 -10.45 123.1 -11.35 122.9 -12.05 122.7 -12.95 122.5 -13.25 122.3 -13.9 122.15 -14.25 122.4 -14.65 122.6 -15.25 122.7 -16.15 122.5 -16.85 122.3 -17.75 122.1 -19.65 121.9 -20.55 121.7 -20.85 121.5 -21.75 121.3 -22.45 121.1 -23.35 120.9 -24.45 120.7 -25.35 120.5 -26.05 120.3 -26.95 120.1 -30.05 120.1 -31.05 120.4 -31.45 120.7 -31.65 121.0 -31.85 121.3 -32.15 121.6 -32.25 121.9 -32.35 122.2 -32.55 122.5 -32.75 122.8 -32.85 123.1 -33.15 123.4 -33.25 123.7 -33.35 124.0 -33.45 124.3 -33.65 124.6 -33.65 124.9 -33.75 125.2 -33.85 125.5 -34.05 125.8 -34.15 126.1 -34.35 126.4 -34.45 126.7 -34.45 127.0 -34.55 127.3 -34.75 127.6 -34.85 127.9 -35.05 128.2 -35.15 128.5 -35.25 128.8 -35.35 129.1 -35.45 129.4 -35.55 129.7 -35.65 130.0 -35.75 130.3 -35.85 130.6 -35.95 130.9 -36.15 131.2 -36.25 131.5 -36.35 131.8 -36.15 132.1 -35.85 132.4 -35.45 132.6 -35.25 132.7 -34.45 132.9 -33.85 133.2 -33.35 133.4 -33.15 133.5 -32.45 133.7 -32.05 133.9 -31.25 134.1 -30.85 134.3 -30.05 134.5 -29.65 134.7 -28.85 134.9 -27.65 135.1 -26.85 135.3 -26.35 135.5 -25.65 135.7 -24.45 135.9 -23.65 136.1 -23.15 136.3 -22.45 136.5 -21.65 136.7 -20.85 136.9 -20.45 137.1 -19.65 137.3 -18.85 137.5 -18.05 137.7 -17.25 137.9 -16.45 138.1 -16.05 138.3 -15.25 138.5 -14.45 138.7 -13.65 138.9 -12.85 139.1 -12.05 139.3 -10.05 139.5 -9.25 139.7 -8.55 139.7 -7.95 139.4 -7.65 139.1 -7.15 138.8 -6.65 138.5 -6.35 138.2 -6.05 137.9 -5.75 137.6 -5.45 137.3 -5.25 137.0 -5.15 136.7 -4.95 136.4 -4.65 136.1 -4.35 135.8 -4.05 135.5 -3.95 135.2 -3.85 134.9 -3.55 134.6 -3.25 134.3 -3.15 134.0 -3.05 133.7 -2.75 133.4 -2.45 133.1 -2.15 132.8 -1.95 132.5 -1.85 132.2 -1.65 131.9 -1.35 131.6 -1.15 131.3 -1.05 131.0 -0.85 130.7 -0.55 130.4 -0.25 130.1 0.05 129.8 0.35 129.5 0.05 129.2" fill="#000000" fill-rule="evenodd" stroke="none"/>
  </g>
</svg>
