<?xml version="1.0" encoding="UTF-8" standalone="no"?>
<svg xmlns:ffdec="https://www.free-decompiler.com/flash" xmlns:xlink="http://www.w3.org/1999/xlink" ffdec:objectType="shape" height="193.8px" width="308.7px" xmlns="http://www.w3.org/2000/svg">
  <g transform="matrix(1.0, 0.0, 0.0, 1.0, 213.0, 100.05)">
    <path d="M-162.7 -61.0 L-161.9 -62.6 Q-102.15 -104.5 -29.65 -96.35 -22.5 -95.45 -15.55 -93.75 -9.0 -92.05 -16.65 -90.15 -47.05 -82.85 -78.65 -84.8 -98.75 -86.0 -116.95 -78.35 -133.4 -71.4 -148.65 -64.0 -105.4 -65.95 -72.45 -34.95 -58.85 -22.15 -81.25 -32.3 L-81.4 -32.4 -82.4 -30.95 Q-84.45 -28.0 -88.4 -26.9 -105.9 -21.95 -123.7 -17.75 -128.05 -16.7 -131.9 -16.35 -120.9 -10.55 -109.95 -5.25 L-103.6 -7.95 Q-96.8 -10.8 -90.3 -7.2 -80.85 -1.9 -93.45 -1.25 -127.0 0.7 -155.45 21.6 -164.0 27.85 -172.25 30.6 -153.5 29.85 -134.0 25.8 -125.4 24.05 -116.55 26.3 -85.5 34.15 -66.65 55.75 -65.6 56.9 -67.85 55.7 -95.9 40.3 -127.6 34.6 -152.95 30.2 -178.2 37.85 -200.35 44.5 -205.75 29.45 L-199.15 30.15 -199.95 29.8 Q-201.05 29.35 -199.65 27.85 -157.95 14.55 -116.65 -2.5 -129.65 -3.6 -141.8 -8.3 -159.15 -14.9 -163.1 -27.15 L-158.35 -26.35 Q-122.15 -23.1 -86.75 -34.7 L-86.45 -34.75 Q-96.35 -39.7 -105.55 -45.75 -124.3 -58.3 -148.05 -54.95 -155.05 -54.0 -159.55 -58.55 L-161.95 -57.3 Q-162.3 -57.15 -162.65 -57.95 L-162.85 -58.55 Q-163.2 -59.75 -162.7 -61.0 M-58.1 61.2 Q-80.75 58.1 -100.3 68.95 L-98.85 69.6 Q-40.7 69.55 9.2 92.9 9.9 93.1 7.65 92.9 -32.9 88.2 -73.15 79.0 -82.2 76.95 -91.35 76.0 L-93.4 76.3 -128.1 77.75 Q-128.8 76.3 -128.1 74.7 L-127.25 73.15 -125.7 72.35 -124.95 70.95 Q-89.2 43.8 -56.7 61.1 -55.85 61.55 -58.1 61.2" fill="#ff0000" fill-rule="evenodd" stroke="none"/>
    <path d="M22.05 -83.8 Q8.7 -85.45 -1.75 -89.9 -10.4 -87.4 -21.7 -90.15 -62.1 -100.05 -96.75 -84.2 -98.05 -83.55 -99.4 -83.05 -117.0 -76.0 -134.95 -69.85 -143.5 -66.9 -151.3 -62.55 -145.05 -62.5 -138.9 -61.1 -128.5 -58.75 -118.0 -56.95 -107.35 -55.1 -98.4 -49.1 -90.45 -43.8 -88.2 -35.2 -88.7 -33.5 -90.4 -33.0 L-93.8 -32.75 Q-97.1 -27.1 -105.25 -24.8 -119.05 -20.8 -133.15 -17.65 -141.6 -15.8 -149.1 -17.4 L-148.85 -17.15 Q-144.1 -12.05 -137.05 -11.05 L-124.75 -9.35 Q-117.85 -8.4 -114.85 -3.25 L-114.9 -2.55 -115.05 -1.85 -115.35 -1.2 -115.8 -0.5 -116.45 0.2 -124.6 -0.15 Q-133.5 7.65 -145.45 13.95 -157.9 20.5 -171.1 24.95 L-195.75 33.0 -192.7 34.35 Q-185.1 37.65 -176.3 34.25 -169.0 31.45 -161.15 30.35 L-150.95 28.7 Q-141.5 27.95 -132.4 29.8 -121.25 32.1 -110.1 34.8 -98.85 37.55 -88.0 40.95 -80.5 43.25 -76.5 47.7 L-76.25 47.8 -75.35 48.45 Q-74.8 49.05 -74.4 49.8 L-74.1 50.45 -74.3 50.7 Q-73.3 52.45 -72.7 54.4 -75.85 55.45 -79.25 55.3 -85.0 59.3 -93.8 60.5 -101.1 61.5 -107.75 64.8 -115.8 68.8 -122.9 74.85 L-118.9 73.7 -112.05 71.75 -110.2 71.5 Q-106.0 71.4 -102.8 70.35 L-79.9 71.1 Q-66.4 71.75 -53.4 75.3 -42.3 78.4 -30.95 80.75 -17.55 83.5 -3.7 83.7 -0.85 83.75 0.0 86.55 L0.0 86.75 Q23.05 85.85 44.6 76.35 72.7 64.0 81.95 34.4 95.5 -8.95 74.3 -48.45 57.65 -79.4 22.05 -83.8 M-163.75 -62.15 Q-157.75 -70.9 -146.9 -75.3 L-134.3 -80.15 -133.8 -80.3 Q-125.6 -83.8 -116.85 -85.6 -104.3 -88.25 -92.85 -94.0 -79.65 -100.6 -64.85 -100.0 -43.55 -100.0 -22.3 -99.0 -13.05 -98.55 -4.0 -96.65 L-2.75 -96.3 Q47.85 -97.45 76.5 -59.45 97.75 -31.2 95.5 5.15 92.45 53.75 52.7 79.85 42.6 86.5 31.4 89.65 4.9 97.1 -19.5 90.95 L-25.15 90.35 Q-46.05 87.6 -65.85 81.8 -95.0 73.3 -123.35 83.9 -129.15 86.05 -132.3 82.5 L-133.35 83.3 -135.15 82.75 -136.05 82.1 -136.55 81.45 -136.8 80.75 -137.05 80.1 Q-135.95 73.25 -129.6 69.4 -123.85 65.9 -118.5 62.0 -108.9 55.0 -97.35 51.4 L-93.55 50.3 Q-107.4 43.25 -123.2 40.5 -157.75 34.6 -192.1 42.6 -196.0 43.5 -199.65 41.6 -205.25 38.75 -207.4 34.0 L-207.4 33.75 Q-210.6 32.75 -213.0 30.1 L-213.0 29.4 -212.9 28.7 -212.7 28.0 -212.25 27.35 -211.6 26.6 Q-189.95 23.1 -169.5 15.15 -158.0 10.65 -147.5 4.2 -141.8 0.75 -135.85 -2.1 L-141.8 -3.8 Q-148.4 -5.9 -153.65 -10.45 L-160.1 -16.0 Q-162.9 -18.4 -162.9 -21.5 L-163.0 -21.55 -163.4 -22.25 -163.8 -23.65 -163.9 -25.0 -163.8 -26.4 -163.4 -27.75 -163.0 -28.5 Q-138.85 -24.1 -113.05 -30.75 -105.4 -32.7 -99.6 -37.8 L-99.2 -38.15 Q-104.15 -45.15 -113.2 -47.35 -138.45 -53.45 -163.35 -57.15 -163.65 -57.2 -163.9 -57.9 L-163.9 -58.6 -163.85 -59.25 -163.65 -59.95 -163.45 -60.3 -163.7 -60.9 -163.9 -61.6 -163.75 -62.15" fill="#000000" fill-rule="evenodd" stroke="none"/>
  </g>
</svg>
