<?xml version="1.0" encoding="UTF-8" standalone="no"?>
<svg xmlns:ffdec="https://www.free-decompiler.com/flash" xmlns:xlink="http://www.w3.org/1999/xlink" ffdec:objectType="shape" height="174.55px" width="189.9px" xmlns="http://www.w3.org/2000/svg">
  <g transform="matrix(1.0, 0.0, 0.0, 1.0, 185.55, 89.35)">
    <path d="M-105.3 -63.2 Q-106.5 -65.1 -105.05 -67.95 L-103.1 -68.5 Q-92.6 -76.35 -81.05 -79.25 L-77.65 -83.35 -77.7 -83.4 Q-59.95 -92.75 -43.2 -87.35 -41.35 -88.7 -35.0 -87.7 -16.85 -84.45 -23.3 -66.2 -32.85 -39.05 -58.9 -35.3 L-61.7 -35.45 Q-64.7 -35.0 -67.8 -35.5 -67.8 -33.45 -68.05 -32.45 -50.9 -35.9 -40.55 -21.85 -39.35 -20.1 -40.55 -17.85 -50.9 2.8 -72.3 3.7 L-72.7 4.4 Q-58.75 1.5 -44.85 4.35 -36.65 6.0 -35.45 14.3 -34.5 20.9 -34.5 27.55 -34.5 33.65 -39.8 36.9 -43.8 39.45 -47.95 42.35 L-51.55 44.65 -44.95 49.4 Q-29.45 37.7 -13.95 50.35 L-8.45 54.2 Q0.9 60.25 -14.1 63.45 -19.05 64.55 -22.75 59.95 -23.6 58.9 -25.6 59.5 L-28.05 60.2 Q-50.45 55.7 -72.75 65.15 L-73.6 66.7 Q-74.35 68.95 -72.7 68.9 -55.45 68.3 -36.85 68.15 -29.4 68.1 -23.45 64.6 L-16.9 69.2 Q-12.15 68.7 -6.25 72.6 -0.6 76.4 3.6 81.25 5.55 83.6 2.5 83.5 L-3.2 83.2 Q-6.0 85.1 -9.0 84.85 L-14.65 85.1 Q-33.5 83.35 -48.35 74.9 L-48.55 74.8 Q-55.85 78.1 -64.8 74.35 L-66.8 74.2 -68.25 74.65 Q-75.9 80.4 -88.55 79.1 L-97.55 77.65 -103.35 78.25 Q-110.95 78.75 -115.3 73.6 -116.7 71.95 -115.2 70.3 -109.95 69.2 -104.75 68.95 -101.4 64.75 -95.0 66.2 L-94.05 66.4 Q-84.6 61.25 -77.25 53.55 -80.0 51.2 -81.6 46.5 -82.1 45.05 -84.3 44.35 -106.3 37.45 -128.15 34.8 -132.0 34.35 -136.2 34.85 L-144.45 34.4 Q-145.85 35.75 -148.15 37.1 -149.75 38.05 -151.75 36.6 -154.15 38.75 -157.25 37.4 L-157.6 37.3 Q-164.0 45.1 -175.1 44.6 -178.85 44.4 -182.0 43.1 -188.9 40.1 -182.45 35.55 -181.25 34.75 -180.25 33.15 -178.05 31.65 -175.35 32.35 L-174.95 32.5 Q-172.1 24.45 -164.9 21.85 L-164.25 21.6 Q-146.5 0.5 -121.65 -0.05 -116.6 -1.25 -111.4 -1.85 -103.35 -2.9 -95.9 -1.45 L-95.55 -2.5 Q-104.0 -7.8 -112.95 -12.2 -119.2 -15.35 -116.7 -20.95 -113.2 -23.8 -110.3 -20.4 L-110.0 -20.2 Q-102.35 -26.4 -91.15 -27.15 -82.8 -34.25 -71.9 -31.45 L-70.85 -31.8 -73.9 -34.7 -77.75 -39.5 Q-78.7 -40.35 -79.15 -41.45 L-81.05 -44.2 Q-85.8 -51.15 -92.35 -55.7 L-70.6 -49.3 Q-61.9 -46.75 -54.25 -50.85 -46.55 -55.1 -41.75 -61.4 -30.65 -75.9 -46.65 -77.7 -50.05 -78.15 -52.9 -76.75 -78.4 -64.7 -105.3 -63.2 M-62.35 -56.15 L-62.3 -56.05 Q-66.05 -55.6 -69.2 -57.6 L-69.25 -57.65 Q-65.2 -58.4 -62.35 -56.15 M-104.0 -19.15 Q-106.65 -12.95 -99.55 -10.6 -81.7 -4.7 -63.65 -9.85 -50.6 -13.6 -60.0 -19.15 -59.85 -21.7 -62.15 -22.5 -65.25 -23.5 -68.45 -23.05 -86.65 -20.5 -104.0 -19.15 M-70.05 -3.7 L-70.1 -3.95 -70.25 -3.65 -70.05 -3.7 M-51.1 -23.85 L-51.1 -23.8 Q-49.25 -20.6 -49.0 -16.85 L-48.95 -16.35 Q-47.05 -18.5 -46.8 -21.7 -48.5 -23.5 -51.1 -23.85 M-59.75 23.65 L-59.75 23.6 Q-57.2 24.9 -59.75 23.65 M-69.8 32.75 Q-58.9 35.1 -52.5 26.7 -43.55 15.2 -56.3 11.8 -96.15 1.15 -133.95 14.85 -135.0 15.9 -135.05 17.45 L-134.85 18.85 Q-135.85 19.95 -135.65 21.65 -135.5 23.6 -134.3 23.25 -110.35 17.6 -85.65 25.5 -79.5 30.65 -69.8 32.75 M-28.5 51.65 Q-34.45 48.95 -38.8 53.8 L-38.45 54.1 -28.7 51.9 -28.5 51.65 M-94.8 14.65 L-86.25 15.35 -89.6 16.0 -91.65 15.4 -94.8 14.65" fill="#ff3300" fill-rule="evenodd" stroke="none"/>
    <path d="M-28.05 60.2 L-21.45 61.8 Q-20.0 62.3 -21.45 63.3 -22.4 64.05 -23.45 64.6 -29.4 68.1 -36.85 68.15 -55.45 68.3 -72.7 68.9 -74.35 68.95 -73.6 66.7 L-72.75 65.15 Q-50.45 55.7 -28.05 60.2 M-92.35 -55.7 L-105.9 -59.35 Q-107.8 -59.8 -106.75 -62.0 L-106.1 -63.15 -105.3 -63.2 Q-78.4 -64.7 -52.9 -76.75 -50.05 -78.15 -46.65 -77.7 -30.65 -75.9 -41.75 -61.4 -46.55 -55.1 -54.25 -50.85 -61.9 -46.75 -70.6 -49.3 L-92.35 -55.7 M-104.0 -19.15 Q-86.65 -20.5 -68.45 -23.05 -65.25 -23.5 -62.15 -22.5 -59.85 -21.7 -60.0 -19.15 -50.6 -13.6 -63.65 -9.85 -81.7 -4.7 -99.55 -10.6 -106.65 -12.95 -104.0 -19.15 M-62.35 -56.15 Q-65.2 -58.4 -69.25 -57.65 L-69.2 -57.6 Q-66.05 -55.6 -62.3 -56.05 L-62.35 -56.15 M-69.8 32.75 Q-79.5 30.65 -85.65 25.5 -110.35 17.6 -134.3 23.25 -135.5 23.6 -135.65 21.65 -135.85 19.95 -134.85 18.85 L-135.05 17.45 Q-135.0 15.9 -133.95 14.85 -96.15 1.15 -56.3 11.8 -43.55 15.2 -52.5 26.7 -58.9 35.1 -69.8 32.75 M-59.75 23.65 Q-57.2 24.9 -59.75 23.6 L-59.75 23.65 M-94.8 14.65 L-91.65 15.4 -89.6 16.0 -86.25 15.35 -94.8 14.65" fill="#ff4a00" fill-rule="evenodd" stroke="none"/>
  </g>
</svg>
