<?xml version="1.0" encoding="UTF-8" standalone="no"?>
<svg xmlns:ffdec="https://www.free-decompiler.com/flash" xmlns:xlink="http://www.w3.org/1999/xlink" ffdec:objectType="shape" height="26.2px" width="12.7px" xmlns="http://www.w3.org/2000/svg">
  <g transform="matrix(1.0, 0.0, 0.0, 1.0, 8.75, 24.95)">
    <path d="M2.65 -3.35 L0.95 0.0 Q0.2 1.7 -0.45 1.05 L-0.85 0.25 -0.9 -0.8 -1.45 -2.8 -1.55 -3.15 -2.45 -3.8 -3.7 -5.4 Q-4.3 -6.35 -4.3 -6.85 -4.3 -7.35 -4.85 -8.3 L-6.1 -10.15 Q-7.9 -12.85 -7.9 -14.9 L-7.85 -15.85 Q-8.75 -16.15 -8.75 -17.25 L-8.55 -18.7 -8.3 -19.65 Q-7.55 -21.85 -6.0 -21.85 L-5.4 -21.7 Q-3.1 -24.95 -0.6 -24.95 0.1 -24.95 0.95 -21.45 L1.55 -18.7 2.05 -15.95 3.05 -11.8 3.95 -6.95 Q3.95 -5.85 2.65 -3.35" fill="#00b3ff" fill-rule="evenodd" stroke="none"/>
  </g>
</svg>
