<?xml version="1.0" encoding="UTF-8" standalone="no"?>
<svg xmlns:ffdec="https://www.free-decompiler.com/flash" xmlns:xlink="http://www.w3.org/1999/xlink" ffdec:objectType="shape" height="307.3px" width="310.8px" xmlns="http://www.w3.org/2000/svg">
  <g transform="matrix(1.0, 0.0, 0.0, 1.0, 40.3, 43.5)">
    <path d="M101.1 -39.35 L102.15 -36.85 103.05 -33.95 103.4 -32.65 104.35 -30.8 Q104.85 -29.6 104.95 -28.35 L104.9 -27.85 105.15 -27.6 106.0 -27.25 107.3 -26.3 107.95 -25.15 108.1 -25.05 108.45 -24.85 108.5 -24.95 108.65 -25.15 108.95 -25.45 109.1 -25.6 109.35 -25.7 109.55 -25.75 109.85 -25.75 109.85 -25.8 110.5 -25.65 111.05 -25.4 111.1 -25.2 111.2 -25.1 111.3 -24.9 111.75 -24.85 111.9 -24.9 112.2 -24.95 112.95 -24.65 118.85 -24.0 120.85 -24.55 121.05 -25.05 121.1 -25.55 121.25 -25.7 121.35 -25.85 121.45 -26.0 121.65 -26.15 122.4 -26.45 122.85 -26.3 123.35 -26.0 123.45 -25.85 123.55 -25.75 124.0 -26.0 126.2 -30.6 130.2 -37.75 130.25 -37.95 130.25 -38.1 130.3 -38.3 130.3 -38.4 130.55 -38.7 131.35 -39.5 131.55 -40.05 131.6 -40.15 133.2 -40.05 132.9 -38.1 Q131.65 -31.3 129.15 -24.8 L129.1 -24.6 129.0 -24.5 Q125.6 -20.15 120.6 -17.6 119.6 -17.7 118.9 -17.2 L116.0 -16.95 115.95 -16.9 115.9 -17.0 Q114.75 -17.7 113.8 -16.85 L113.65 -16.7 Q113.35 -16.2 113.4 -15.6 L113.6 -14.95 113.9 -14.65 114.05 -14.5 114.2 -14.3 114.45 -14.2 113.55 -14.15 Q113.1 -14.0 112.65 -14.15 110.05 -14.25 107.55 -15.25 L106.95 -15.6 106.9 -15.6 106.7 -15.5 105.8 -15.4 105.0 -15.65 104.85 -15.8 104.6 -16.15 104.2 -16.55 103.9 -16.9 103.85 -16.85 103.85 -16.65 103.8 -16.5 103.65 -16.2 103.6 -16.0 103.3 -15.85 103.05 -15.7 102.6 -15.6 102.15 -15.7 Q101.95 -15.75 101.8 -15.85 L101.25 -16.65 100.45 -18.1 Q99.9 -19.0 99.6 -20.0 L97.5 -22.4 95.1 -24.65 95.55 -24.55 95.95 -24.6 96.45 -24.4 Q96.45 -23.9 96.9 -23.5 L97.25 -23.4 97.7 -23.25 Q98.7 -23.45 99.0 -24.35 99.75 -27.0 101.3 -29.3 102.85 -31.6 102.5 -33.9 L101.6 -34.45 100.45 -34.75 100.45 -34.7 100.15 -34.7 100.0 -34.6 99.75 -34.55 99.6 -34.35 99.2 -34.55 99.7 -35.45 Q101.8 -36.8 101.0 -38.8 L100.8 -38.9 100.9 -39.35 101.1 -39.35 M140.8 -38.3 L140.7 -36.45 140.7 -36.4 140.55 -36.5 140.05 -36.65 140.45 -37.7 140.55 -37.85 140.8 -38.3 M140.0 -31.15 L139.7 -29.45 139.45 -28.95 139.25 -28.8 138.85 -28.6 140.0 -31.15 M134.95 -23.0 L134.8 -22.8 134.55 -22.6 134.35 -22.45 134.15 -22.3 133.95 -22.05 134.1 -22.3 134.75 -22.85 134.95 -23.0 M130.2 -18.75 L130.2 -18.6 130.05 -18.3 129.95 -18.15 128.45 -17.35 127.95 -16.85 127.75 -16.75 127.2 -16.65 130.2 -18.75 M121.4 -14.0 Q119.7 -13.7 117.9 -14.05 L118.75 -14.15 119.25 -14.2 119.6 -14.1 119.95 -14.15 120.1 -14.25 120.3 -14.3 120.45 -14.4 121.25 -14.55 121.4 -14.0 M94.4 -25.55 L93.3 -27.25 92.55 -28.15 92.45 -28.3 92.4 -28.6 92.4 -29.1 92.4 -29.15 92.15 -29.7 92.3 -29.7 92.4 -29.75 92.65 -29.85 92.85 -30.2 93.0 -30.6 93.25 -30.5 93.3 -30.5 Q93.35 -29.15 93.9 -27.75 L94.05 -27.7 Q93.95 -26.6 94.4 -25.55 M93.55 -41.5 L94.3 -41.75 97.55 -41.2 93.8 -41.25 93.55 -41.5 M97.95 -30.2 L97.55 -28.6 97.5 -28.7 97.55 -29.6 97.95 -30.2 M125.85 -23.95 L125.15 -23.45 125.65 -23.4 125.85 -23.95 M259.85 -40.55 Q261.9 -40.45 263.75 -39.5 L264.95 -39.45 265.6 -39.4 265.85 -39.4 266.45 -39.5 266.95 -39.4 Q267.55 -39.2 268.05 -38.8 L268.35 -38.5 268.4 -38.15 268.25 -37.6 268.45 -37.25 268.45 -36.5 268.45 -36.15 268.45 -35.9 268.45 -33.5 268.45 -33.25 268.45 -32.9 268.45 -32.5 268.45 -32.15 268.45 -31.25 268.45 -30.65 268.45 -29.5 268.45 -29.15 268.7 -28.75 269.0 -27.65 269.0 -24.25 268.85 -20.5 268.6 -20.15 268.2 -19.8 267.45 -19.5 266.95 -19.55 266.35 -19.65 266.1 -19.6 265.45 -19.5 264.7 -19.4 264.55 -19.05 264.35 -18.75 264.1 -18.65 263.45 -18.5 262.6 -18.75 262.2 -19.1 261.7 -19.5 261.0 -19.55 260.15 -19.85 259.7 -20.15 259.55 -20.5 259.45 -20.9 259.45 -21.25 259.45 -21.65 259.2 -22.0 258.95 -22.35 258.6 -22.75 258.5 -23.15 258.45 -23.5 258.35 -23.85 257.95 -24.65 257.95 -25.0 257.95 -25.4 257.95 -25.75 257.95 -27.25 257.95 -28.75 257.95 -29.15 257.8 -29.5 257.45 -29.9 257.15 -30.3 256.95 -30.65 256.9 -30.8 256.45 -31.0 255.6 -31.25 255.25 -31.65 255.0 -32.0 254.85 -32.35 254.8 -32.45 254.75 -32.35 254.55 -32.05 254.2 -31.65 253.7 -31.3 252.95 -31.0 252.1 -31.25 251.7 -31.65 251.35 -32.0 251.1 -32.4 251.0 -32.75 251.0 -32.95 251.15 -32.85 252.0 -32.55 252.45 -32.5 253.1 -32.65 253.35 -32.75 253.55 -33.0 254.1 -33.2 254.45 -33.4 254.7 -33.75 254.95 -34.5 254.95 -34.9 254.95 -35.2 255.45 -35.0 256.2 -35.3 256.6 -35.65 256.8 -36.0 257.05 -36.75 257.2 -37.15 257.7 -37.55 257.95 -37.5 258.7 -37.8 259.1 -38.15 259.35 -38.5 259.4 -38.85 259.6 -39.0 259.7 -39.4 259.9 -40.15 259.85 -40.5 259.85 -40.55 M250.4 -33.95 L250.1 -34.25 250.05 -34.65 250.1 -34.7 250.45 -34.85 250.4 -34.25 250.4 -33.95 M253.3 -40.45 L253.45 -40.45 253.35 -40.4 253.3 -40.45 M268.45 -35.9 L268.4 -36.25 268.25 -36.65 268.05 -36.95 267.7 -37.4 267.2 -37.7 266.45 -37.95 265.95 -38.0 265.95 -37.95 265.15 -37.65 264.7 -37.4 264.55 -34.5 264.0 -32.85 Q263.65 -31.45 264.2 -30.2 L264.0 -26.55 263.65 -25.9 263.2 -25.15 262.15 -24.7 261.7 -24.4 261.35 -24.0 261.1 -23.65 261.0 -23.25 260.95 -22.9 260.95 -22.5 261.25 -22.2 262.45 -21.5 262.6 -21.4 262.75 -21.15 263.1 -20.75 264.0 -20.55 264.45 -20.5 Q265.3 -20.7 266.05 -21.15 267.35 -21.95 267.95 -23.25 L267.95 -23.65 267.95 -24.0 267.95 -24.4 Q268.65 -25.4 268.65 -26.65 268.65 -27.85 268.1 -28.9 L267.7 -29.2 267.25 -29.4 267.6 -33.8 267.95 -34.65 267.95 -35.0 268.1 -35.15 268.3 -35.5 268.45 -35.9 M261.6 243.35 L261.65 243.4 261.8 243.75 261.2 243.7 261.25 243.5 261.6 243.35 M259.85 246.8 L259.95 246.85 260.15 247.4 260.35 247.75 260.7 248.0 261.45 248.25 261.85 248.25 262.15 248.25 261.95 248.75 262.25 249.5 262.6 249.9 262.95 250.1 263.7 250.35 264.1 250.5 264.5 251.0 264.45 251.25 264.75 252.0 265.1 252.4 265.45 252.65 265.8 252.7 265.95 252.9 266.35 253.0 266.6 253.1 265.7 259.75 265.35 259.75 264.95 259.75 264.9 259.75 264.95 259.25 264.9 259.25 264.6 258.45 264.35 258.0 261.45 257.85 259.8 257.3 257.15 257.5 253.5 257.3 252.85 256.95 252.1 256.5 251.65 255.45 251.35 255.0 250.95 254.65 250.6 254.4 250.2 254.3 249.85 254.25 249.45 254.25 249.15 254.55 248.45 255.75 248.35 255.9 248.1 256.05 247.95 256.15 248.45 254.25 248.3 253.75 248.35 253.75 249.1 253.75 249.45 253.6 249.85 253.4 Q250.0 253.35 250.2 253.25 L250.6 253.25 250.95 253.25 251.35 253.25 251.7 253.25 252.1 253.05 252.85 252.8 253.2 252.75 253.6 252.75 254.35 252.45 256.95 250.85 257.6 250.25 257.75 250.2 257.85 249.95 259.2 248.5 259.3 248.1 259.4 248.1 259.35 248.05 259.85 246.8 M247.45 257.6 L247.45 257.75 248.1 259.35 248.35 259.75 247.95 259.65 247.4 258.6 247.35 258.15 247.45 257.6 M-18.15 -39.45 L-17.75 -39.35 -17.2 -38.3 -17.15 -37.85 -17.25 -37.3 -17.25 -37.45 -17.9 -39.05 -18.15 -39.45 M-17.75 -35.85 L-18.25 -33.95 -18.1 -33.45 -18.15 -33.45 -18.9 -33.45 -19.25 -33.3 -19.65 -33.1 -20.0 -32.95 -20.4 -32.95 -20.75 -32.95 -21.15 -32.95 -21.5 -32.95 -21.9 -32.75 -22.65 -32.5 -23.0 -32.45 -23.4 -32.45 -24.15 -32.15 Q-25.6 -31.55 -26.75 -30.55 L-27.4 -29.95 -27.55 -29.9 -27.65 -29.65 -29.0 -28.2 -29.1 -27.8 -29.2 -27.8 -29.15 -27.75 -29.65 -26.5 -29.75 -26.55 -29.95 -27.1 -30.15 -27.45 -30.5 -27.7 -31.25 -27.95 -31.65 -27.95 -31.95 -27.95 -31.75 -28.45 -32.05 -29.2 -32.4 -29.6 -32.75 -29.8 -33.5 -30.05 -33.9 -30.2 -34.3 -30.7 -34.25 -30.95 -34.55 -31.7 -34.9 -32.1 -35.25 -32.35 -35.6 -32.4 -35.75 -32.6 -36.15 -32.7 -36.4 -32.8 -35.5 -39.45 -35.15 -39.45 -34.75 -39.45 -34.7 -39.45 -34.75 -38.95 -34.7 -38.95 -34.4 -38.15 -34.15 -37.7 -31.25 -37.55 -29.6 -37.0 -26.95 -37.2 -23.3 -37.0 -22.65 -36.65 -21.9 -36.2 -21.45 -35.15 -21.15 -34.7 -20.75 -34.35 -20.4 -34.1 -20.0 -34.0 -19.65 -33.95 -19.25 -33.95 -18.95 -34.25 -18.25 -35.45 -18.15 -35.6 -17.9 -35.75 -17.75 -35.85 M-31.0 -23.4 L-31.05 -23.2 -31.4 -23.05 -31.45 -23.1 -31.6 -23.45 -31.0 -23.4 M-34.1 240.8 L-34.25 240.8 -35.85 241.45 -36.25 241.75 -36.15 241.3 -35.1 240.75 -34.65 240.7 -34.1 240.8 M-36.25 258.25 L-35.75 258.3 -35.75 258.25 -34.95 257.95 -34.5 257.7 -34.35 254.8 -33.8 253.15 Q-33.45 251.75 -34.0 250.5 L-33.8 246.85 -33.45 246.2 -33.0 245.45 -31.95 245.0 -31.5 244.7 -31.15 244.3 -30.9 243.95 -30.8 243.55 -30.75 243.2 -30.75 242.8 -31.05 242.5 -32.25 241.8 -32.4 241.7 -32.55 241.45 -32.65 241.3 -30.75 241.8 -30.25 241.65 -30.25 241.7 -30.25 242.45 -30.1 242.8 -29.9 243.2 -29.75 243.55 -29.75 243.95 -29.75 244.3 -29.75 244.7 -29.75 245.05 -29.55 245.45 -29.3 246.2 -29.25 246.55 -29.25 246.95 -28.95 247.7 Q-28.35 249.15 -27.35 250.3 L-26.75 250.95 -26.7 251.1 -26.45 251.25 -25.0 252.55 -24.6 252.7 -24.6 252.75 -24.55 252.7 -23.3 253.25 -23.35 253.3 -23.9 253.5 -24.25 253.7 -24.5 254.05 -24.75 254.8 -24.75 255.2 -24.75 255.5 -25.25 255.3 -26.0 255.6 -26.4 255.95 -26.6 256.3 -26.85 257.05 -27.0 257.45 -27.5 257.85 -27.75 257.8 -28.5 258.1 -28.9 258.45 -29.15 258.8 -29.2 259.15 -29.4 259.3 -29.5 259.7 -29.6 260.0 -36.25 259.05 -36.25 258.7 -36.25 258.3 -36.25 258.25 M-20.2 254.55 L-20.0 254.6 -19.85 255.0 -19.9 255.0 -20.25 255.15 -20.2 254.55" fill="#ffcc00" fill-rule="evenodd" stroke="none"/>
    <path d="M95.1 -24.65 L94.75 -24.8 94.4 -25.55 Q93.95 -26.6 94.05 -27.7 L93.9 -27.75 Q93.35 -29.15 93.3 -30.5 L93.25 -30.5 93.0 -30.6 93.3 -31.75 93.85 -31.95 94.1 -32.05 94.2 -32.25 94.7 -33.5 94.7 -34.5 95.5 -35.75 Q96.25 -36.9 97.3 -37.7 L97.45 -37.85 97.55 -38.15 97.65 -38.3 97.7 -38.45 97.6 -38.95 97.5 -39.25 97.5 -39.3 100.9 -39.35 100.8 -38.9 101.0 -38.8 Q101.8 -36.8 99.7 -35.45 L99.2 -34.55 99.6 -34.35 99.75 -34.55 100.0 -34.6 100.15 -34.7 100.45 -34.7 100.45 -34.75 101.6 -34.45 102.5 -33.9 Q102.85 -31.6 101.3 -29.3 99.75 -27.0 99.0 -24.35 98.7 -23.45 97.7 -23.25 L97.25 -23.4 96.9 -23.5 Q96.45 -23.9 96.45 -24.4 L95.95 -24.6 95.55 -24.55 95.1 -24.65 M91.4 -41.25 L91.85 -41.75 92.15 -41.85 92.2 -41.9 92.8 -41.9 93.05 -41.8 93.55 -41.55 93.55 -41.5 93.8 -41.25 91.4 -41.25 M97.7 -41.2 L98.15 -41.35 99.2 -41.2 97.7 -41.2 M97.95 -30.2 L97.55 -29.6 97.5 -28.7 97.55 -28.6 97.95 -30.2 M251.0 -32.95 L250.7 -33.15 250.4 -33.95 250.4 -34.25 250.45 -34.85 250.1 -34.7 250.05 -34.65 249.45 -34.5 248.2 -34.95 Q247.8 -35.15 247.45 -35.5 L247.55 -36.25 247.95 -37.4 248.1 -37.75 248.45 -38.15 248.85 -38.5 248.95 -38.9 249.1 -39.25 250.6 -40.75 Q251.25 -41.45 251.95 -41.5 L252.7 -41.2 253.1 -40.9 253.3 -40.5 253.3 -40.45 253.35 -40.4 253.45 -40.45 Q254.4 -41.2 255.45 -41.5 L256.45 -41.35 257.25 -41.05 258.45 -41.5 259.15 -41.15 259.85 -40.55 259.85 -40.5 259.9 -40.15 259.7 -39.4 259.6 -39.0 259.4 -38.85 259.35 -38.5 259.1 -38.15 258.7 -37.8 257.95 -37.5 257.7 -37.55 257.2 -37.15 257.05 -36.75 256.8 -36.0 256.6 -35.65 256.2 -35.3 255.45 -35.0 254.95 -35.2 254.95 -34.9 254.95 -34.5 254.7 -33.75 254.45 -33.4 254.1 -33.2 253.55 -33.0 253.35 -32.75 253.1 -32.65 252.45 -32.5 252.0 -32.55 251.15 -32.85 251.0 -32.95 M261.2 243.7 L261.8 243.75 261.65 243.4 261.6 243.35 264.45 243.0 266.7 242.9 266.85 243.05 Q267.1 248.15 266.6 253.1 L266.35 253.0 265.95 252.9 265.8 252.7 265.45 252.65 265.1 252.4 264.75 252.0 264.45 251.25 264.5 251.0 264.1 250.5 263.7 250.35 262.95 250.1 262.6 249.9 262.25 249.5 261.95 248.75 262.15 248.25 261.85 248.25 261.45 248.25 260.7 248.0 260.35 247.75 260.15 247.4 259.95 246.85 259.85 246.8 260.05 246.45 261.2 243.7 M-29.65 -26.5 L-29.85 -26.15 -31.0 -23.4 -31.6 -23.45 -31.45 -23.1 -31.4 -23.05 -34.25 -22.7 -36.5 -22.6 -36.65 -22.75 Q-36.9 -27.85 -36.4 -32.8 L-36.15 -32.7 -35.75 -32.6 -35.6 -32.4 -35.25 -32.35 -34.9 -32.1 -34.55 -31.7 -34.25 -30.95 -34.3 -30.7 -33.9 -30.2 -33.5 -30.05 -32.75 -29.8 -32.4 -29.6 -32.05 -29.2 -31.75 -28.45 -31.95 -27.95 -31.65 -27.95 -31.25 -27.95 -30.5 -27.7 -30.15 -27.45 -29.95 -27.1 -29.75 -26.55 -29.65 -26.5 M-23.3 253.25 L-22.95 253.4 -20.2 254.55 -20.25 255.15 -19.9 255.0 -19.85 255.0 Q-19.35 256.3 -19.5 257.8 -19.65 259.05 -19.4 260.1 L-19.55 260.2 Q-24.65 260.45 -29.6 260.0 L-29.5 259.7 -29.4 259.3 -29.2 259.15 -29.15 258.8 -28.9 258.45 -28.5 258.1 -27.75 257.8 -27.5 257.85 -27.0 257.45 -26.85 257.05 -26.6 256.3 -26.4 255.95 -26.0 255.6 -25.25 255.3 -24.75 255.5 -24.75 255.2 -24.75 254.8 -24.5 254.05 -24.25 253.7 -23.9 253.5 -23.35 253.3 -23.3 253.25" fill="#ffd735" fill-rule="evenodd" stroke="none"/>
    <path d="M136.35 -41.7 L140.35 -41.5 141.45 -41.6 141.7 -41.45 141.7 -41.35 136.65 -41.6 136.4 -41.7 136.35 -41.7 M141.1 -39.55 L141.05 -38.9 140.8 -38.3 140.55 -37.85 140.45 -37.7 140.05 -36.65 140.55 -36.5 140.7 -36.4 141.05 -36.25 141.4 -35.3 Q141.4 -34.5 140.95 -33.85 L140.0 -31.15 138.85 -28.6 138.4 -27.7 136.0 -23.75 135.4 -23.4 134.95 -23.0 134.75 -22.85 134.1 -22.3 133.95 -22.05 132.45 -19.0 132.2 -18.9 132.1 -18.85 131.75 -18.8 131.3 -18.9 130.95 -19.05 130.85 -19.25 130.25 -18.8 130.2 -18.75 127.2 -16.65 126.05 -15.85 124.8 -14.75 123.7 -13.45 122.6 -13.3 121.8 -13.5 121.4 -14.0 121.25 -14.55 120.45 -14.4 120.3 -14.3 120.1 -14.25 119.95 -14.15 119.6 -14.1 119.25 -14.2 118.75 -14.15 117.9 -14.05 114.9 -14.1 114.45 -14.2 114.2 -14.3 114.05 -14.5 113.9 -14.65 113.6 -14.95 113.4 -15.6 Q113.35 -16.2 113.65 -16.7 L113.8 -16.85 Q114.75 -17.7 115.9 -17.0 L115.95 -16.9 116.0 -16.95 118.9 -17.2 Q119.6 -17.7 120.6 -17.6 125.6 -20.15 129.0 -24.5 L129.1 -24.6 129.15 -24.8 Q131.65 -31.3 132.9 -38.1 L133.2 -40.05 135.35 -39.9 135.65 -39.8 136.0 -39.65 136.5 -39.55 141.1 -39.55 M268.45 -35.9 L268.3 -35.5 268.1 -35.15 267.95 -35.0 267.95 -34.65 267.6 -33.8 267.25 -29.4 267.7 -29.2 268.1 -28.9 Q268.65 -27.85 268.65 -26.65 268.65 -25.4 267.95 -24.4 L267.95 -24.0 267.95 -23.65 267.95 -23.25 Q267.35 -21.95 266.05 -21.15 265.3 -20.7 264.45 -20.5 L264.0 -20.55 263.1 -20.75 262.75 -21.15 262.6 -21.4 262.45 -21.5 261.25 -22.2 260.95 -22.5 260.95 -22.9 261.0 -23.25 261.1 -23.65 261.35 -24.0 261.7 -24.4 262.15 -24.7 263.2 -25.15 263.65 -25.9 264.0 -26.55 264.2 -30.2 Q263.65 -31.45 264.0 -32.85 L264.55 -34.5 264.7 -37.4 265.15 -37.65 265.95 -37.95 265.95 -38.0 266.45 -37.95 267.2 -37.7 267.7 -37.4 268.05 -36.95 268.25 -36.65 268.4 -36.25 268.45 -35.9 M247.95 256.15 L248.1 256.05 248.35 255.9 248.45 255.75 249.15 254.55 249.45 254.25 249.85 254.25 250.2 254.3 250.6 254.4 250.95 254.65 251.35 255.0 251.65 255.45 252.1 256.5 252.85 256.95 253.5 257.3 257.15 257.5 259.8 257.3 261.45 257.85 264.35 258.0 264.6 258.45 264.9 259.25 264.95 259.25 264.9 259.75 264.6 259.75 264.2 259.9 263.8 260.1 263.45 260.25 262.35 260.3 258.95 260.25 258.6 260.25 258.2 260.25 257.85 260.25 257.1 260.25 255.95 260.25 255.6 260.25 255.2 260.4 254.8 260.6 254.45 260.75 254.1 260.75 253.7 260.75 253.35 260.75 252.95 260.75 252.6 260.75 252.2 260.75 251.85 260.75 251.45 260.6 251.05 260.4 250.7 260.25 249.95 260.25 249.6 260.25 249.45 260.25 249.05 260.0 248.35 259.75 248.1 259.35 247.45 257.75 247.45 257.6 247.55 257.3 247.95 256.15 M-34.7 -39.45 L-34.4 -39.45 -34.0 -39.6 -33.6 -39.8 -33.25 -39.95 -32.15 -40.0 -28.75 -39.95 -28.4 -39.95 -28.0 -39.95 -27.65 -39.95 -26.9 -39.95 -25.75 -39.95 -25.4 -39.95 -25.0 -40.1 -24.6 -40.3 -24.25 -40.45 -23.9 -40.45 -23.5 -40.45 -23.15 -40.45 -22.75 -40.45 -22.4 -40.45 -22.0 -40.45 -21.65 -40.45 -21.25 -40.3 -20.85 -40.1 -20.5 -39.95 -19.75 -39.95 -19.4 -39.95 -19.25 -39.95 -18.85 -39.7 -18.15 -39.45 -17.9 -39.05 -17.25 -37.45 -17.25 -37.3 -17.35 -37.0 -17.75 -35.85 -17.9 -35.75 -18.15 -35.6 -18.25 -35.45 -18.95 -34.25 -19.25 -33.95 -19.65 -33.95 -20.0 -34.0 -20.4 -34.1 -20.75 -34.35 -21.15 -34.7 -21.45 -35.15 -21.9 -36.2 -22.65 -36.65 -23.3 -37.0 -26.95 -37.2 -29.6 -37.0 -31.25 -37.55 -34.15 -37.7 -34.4 -38.15 -34.7 -38.95 -34.75 -38.95 -34.7 -39.45 M-34.1 240.8 L-33.8 240.9 -32.65 241.3 -32.55 241.45 -32.4 241.7 -32.25 241.8 -31.05 242.5 -30.75 242.8 -30.75 243.2 -30.8 243.55 -30.9 243.95 -31.15 244.3 -31.5 244.7 -31.95 245.0 -33.0 245.45 -33.45 246.2 -33.8 246.85 -34.0 250.5 Q-33.45 251.75 -33.8 253.15 L-34.35 254.8 -34.5 257.7 -34.95 257.95 -35.75 258.25 -35.75 258.3 -36.25 258.25 -36.25 257.95 -36.4 257.55 -36.6 257.15 -36.75 256.8 -36.8 255.7 -36.75 252.3 -36.75 251.95 -36.75 251.55 -36.75 251.2 -36.75 250.45 -36.75 249.3 -36.75 248.95 -36.9 248.55 -37.1 248.15 -37.25 247.8 -37.25 247.45 -37.25 247.05 -37.25 246.7 -37.25 246.3 -37.25 245.95 -37.25 245.55 -37.25 245.2 -37.1 244.8 -36.9 244.4 -36.75 244.05 -36.75 243.3 -36.75 242.95 -36.75 242.8 -36.5 242.4 -36.25 241.75 -35.85 241.45 -34.25 240.8 -34.1 240.8" fill="#ecbd00" fill-rule="evenodd" stroke="none"/>
    <path d="M99.2 -41.2 L102.25 -41.2 102.7 -41.1 102.9 -40.9 103.05 -40.75 103.25 -40.35 103.25 -40.2 103.2 -40.0 103.1 -39.8 103.0 -39.6 102.8 -39.45 102.25 -39.35 101.1 -39.35 100.9 -39.35 97.5 -39.3 90.0 -39.15 89.3 -39.25 89.25 -39.3 89.15 -39.5 89.05 -39.7 89.05 -40.05 89.05 -40.45 89.2 -40.6 89.4 -40.8 89.65 -40.95 90.0 -41.0 91.25 -41.25 91.4 -41.25 93.8 -41.25 97.55 -41.2 97.7 -41.2 99.2 -41.2 M131.6 -40.15 L131.0 -40.2 Q130.9 -40.2 130.75 -40.3 L130.65 -40.5 130.6 -40.7 130.5 -41.05 130.5 -41.25 130.55 -41.45 130.7 -41.6 130.9 -41.8 131.15 -41.95 131.5 -41.95 131.5 -42.0 133.2 -41.95 136.0 -41.75 136.35 -41.7 136.4 -41.7 136.65 -41.6 141.7 -41.35 141.85 -41.35 142.0 -41.25 142.7 -40.75 142.75 -40.6 142.75 -40.45 142.7 -40.25 142.6 -40.05 142.5 -39.85 142.3 -39.7 141.75 -39.6 141.1 -39.55 136.5 -39.55 136.0 -39.65 135.65 -39.8 135.35 -39.9 133.2 -40.05 131.6 -40.15 M258.95 240.35 L259.7 240.25 260.45 240.25 260.8 240.1 261.2 239.9 261.6 239.75 263.45 239.75 266.1 239.75 266.45 239.6 266.75 239.45 266.75 239.35 268.45 240.75 270.4 242.3 270.45 246.0 Q270.6 254.05 268.3 261.35 L267.85 262.4 267.45 262.6 267.05 262.75 266.7 262.75 266.35 262.8 265.95 262.9 Q265.75 262.95 265.6 263.05 L265.2 263.25 264.45 263.25 262.95 263.25 262.6 263.25 262.2 263.25 261.85 263.25 257.7 263.25 Q256.85 263.25 256.2 263.75 L255.85 263.75 254.7 263.75 253.95 263.75 253.6 263.75 253.2 263.75 252.85 263.8 250.2 263.45 249.85 263.25 249.45 263.25 249.1 263.25 248.7 263.25 248.35 263.25 247.95 263.25 247.6 263.25 247.2 263.25 246.8 263.05 246.5 262.85 246.2 262.65 246.1 262.45 246.0 262.35 244.85 261.25 Q243.15 257.55 245.2 253.9 L245.9 253.2 245.75 253.0 245.45 252.25 245.8 251.45 246.1 251.0 246.45 250.85 246.85 250.75 247.2 250.75 247.6 250.75 247.95 250.6 248.35 250.4 248.7 250.25 249.1 250.25 249.45 250.25 249.85 250.25 250.2 250.25 250.6 250.0 250.95 249.75 251.35 249.75 251.7 249.75 252.1 249.75 252.45 249.75 254.05 248.95 255.5 247.7 256.45 246.65 257.45 243.85 257.95 242.45 257.95 242.25 258.05 241.8 258.6 240.5 258.95 240.35 M261.6 243.35 L261.25 243.5 261.2 243.7 260.05 246.45 259.85 246.8 259.35 248.05 259.3 248.1 259.2 248.5 257.85 249.95 257.6 250.25 256.95 250.85 254.35 252.45 253.6 252.75 253.2 252.75 252.85 252.8 252.1 253.05 251.7 253.25 251.35 253.25 250.95 253.25 250.6 253.25 250.2 253.25 Q250.0 253.35 249.85 253.4 L249.45 253.6 249.1 253.75 248.35 253.75 248.3 253.75 248.45 254.25 247.95 256.15 247.55 257.3 247.45 257.6 247.35 258.15 247.4 258.6 247.95 259.65 248.35 259.75 249.05 260.0 249.45 260.25 249.6 260.25 249.95 260.25 250.7 260.25 251.05 260.4 251.45 260.6 251.85 260.75 252.2 260.75 252.6 260.75 252.95 260.75 253.35 260.75 253.7 260.75 254.1 260.75 254.45 260.75 254.8 260.6 255.2 260.4 255.6 260.25 255.95 260.25 257.1 260.25 257.85 260.25 258.2 260.25 258.6 260.25 258.95 260.25 262.35 260.3 263.45 260.25 263.8 260.1 264.2 259.9 264.6 259.75 264.9 259.75 264.95 259.75 265.35 259.75 265.7 259.75 266.6 253.1 Q267.1 248.15 266.85 243.05 L266.85 242.9 266.7 242.9 264.45 243.0 261.6 243.35 M-15.8 -42.05 L-14.65 -40.95 Q-12.95 -37.25 -15.0 -33.6 L-15.7 -32.9 -15.55 -32.7 -15.25 -31.95 -15.6 -31.15 -15.9 -30.7 -16.25 -30.55 -16.65 -30.45 -17.0 -30.45 -17.4 -30.45 -17.75 -30.3 -18.15 -30.1 -18.5 -29.95 -18.9 -29.95 -19.25 -29.95 -19.65 -29.95 -20.0 -29.95 -20.4 -29.7 -20.75 -29.45 -21.15 -29.45 -21.5 -29.45 -21.9 -29.45 -22.25 -29.45 -23.85 -28.65 -25.3 -27.4 -26.25 -26.35 -27.25 -23.55 -27.75 -22.15 -27.75 -21.95 -27.85 -21.5 -28.4 -20.2 -28.75 -20.05 -29.5 -19.95 -30.25 -19.95 -30.6 -19.8 -31.0 -19.6 -31.4 -19.45 -33.25 -19.45 -35.9 -19.45 -36.25 -19.3 -36.55 -19.15 -36.55 -19.05 -38.25 -20.45 -40.2 -22.0 -40.25 -25.7 Q-40.4 -33.75 -38.1 -41.05 L-37.65 -42.1 -37.25 -42.3 -36.85 -42.45 -36.5 -42.45 -36.15 -42.5 -35.75 -42.6 -35.4 -42.75 -35.0 -42.95 -34.25 -42.95 -32.75 -42.95 -32.4 -42.95 -32.0 -42.95 -31.65 -42.95 -27.5 -42.95 Q-26.65 -42.95 -26.0 -43.45 L-25.65 -43.45 -24.5 -43.45 -23.75 -43.45 -23.4 -43.45 -23.0 -43.45 -22.65 -43.5 -20.0 -43.15 -19.65 -42.95 -19.25 -42.95 -18.9 -42.95 -18.5 -42.95 -18.15 -42.95 -17.75 -42.95 -17.4 -42.95 -17.0 -42.95 -16.6 -42.75 -16.3 -42.55 -16.0 -42.35 -15.9 -42.15 -15.8 -42.05 M-18.15 -39.45 L-18.85 -39.7 -19.25 -39.95 -19.4 -39.95 -19.75 -39.95 -20.5 -39.95 -20.85 -40.1 -21.25 -40.3 -21.65 -40.45 -22.0 -40.45 -22.4 -40.45 -22.75 -40.45 -23.15 -40.45 -23.5 -40.45 -23.9 -40.45 -24.25 -40.45 -24.6 -40.3 -25.0 -40.1 -25.4 -39.95 -25.75 -39.95 -26.9 -39.95 -27.65 -39.95 -28.0 -39.95 -28.4 -39.95 -28.75 -39.95 -32.15 -40.0 -33.25 -39.95 -33.6 -39.8 -34.0 -39.6 -34.4 -39.45 -34.7 -39.45 -34.75 -39.45 -35.15 -39.45 -35.5 -39.45 -36.4 -32.8 Q-36.9 -27.85 -36.65 -22.75 L-36.65 -22.6 -36.5 -22.6 -34.25 -22.7 -31.4 -23.05 -31.05 -23.2 -31.0 -23.4 -29.85 -26.15 -29.65 -26.5 -29.15 -27.75 -29.1 -27.8 -29.0 -28.2 -27.65 -29.65 -27.4 -29.95 -26.75 -30.55 Q-25.6 -31.55 -24.15 -32.15 L-23.4 -32.45 -23.0 -32.45 -22.65 -32.5 -21.9 -32.75 -21.5 -32.95 -21.15 -32.95 -20.75 -32.95 -20.4 -32.95 -20.0 -32.95 -19.65 -33.1 -19.25 -33.3 -18.9 -33.45 -18.15 -33.45 -18.1 -33.45 -18.25 -33.95 -17.75 -35.85 -17.35 -37.0 -17.25 -37.3 -17.15 -37.85 -17.2 -38.3 -17.75 -39.35 -18.15 -39.45 M-32.65 241.3 L-33.8 240.9 -34.1 240.8 -34.65 240.7 -35.1 240.75 -36.15 241.3 -36.25 241.75 -36.5 242.4 -36.75 242.8 -36.75 242.95 -36.75 243.3 -36.75 244.05 -36.9 244.4 -37.1 244.8 -37.25 245.2 -37.25 245.55 -37.25 245.95 -37.25 246.3 -37.25 246.7 -37.25 247.05 -37.25 247.45 -37.25 247.8 -37.1 248.15 -36.9 248.55 -36.75 248.95 -36.75 249.3 -36.75 250.45 -36.75 251.2 -36.75 251.55 -36.75 251.95 -36.75 252.3 -36.8 255.7 -36.75 256.8 -36.6 257.15 -36.4 257.55 -36.25 257.95 -36.25 258.25 -36.25 258.3 -36.25 258.7 -36.25 259.05 -29.6 260.0 Q-24.65 260.45 -19.55 260.2 L-19.4 260.2 -19.4 260.1 Q-19.65 259.05 -19.5 257.8 -19.35 256.3 -19.85 255.0 L-20.0 254.6 -20.2 254.55 -22.95 253.4 -23.3 253.25 -24.55 252.7 -24.6 252.7 -25.0 252.55 -26.45 251.25 -26.75 250.95 -27.35 250.3 Q-28.35 249.15 -28.95 247.7 L-29.25 246.95 -29.25 246.55 -29.3 246.2 -29.55 245.45 -29.75 245.05 -29.75 244.7 -29.75 244.3 -29.75 243.95 -29.75 243.55 -29.9 243.2 -30.1 242.8 -30.25 242.45 -30.25 241.7 -30.25 241.65 -30.75 241.8 -32.65 241.3 M-38.95 239.45 L-38.85 239.35 -37.75 238.2 Q-34.05 236.5 -30.4 238.55 L-29.7 239.25 -29.5 239.1 -28.75 238.8 -27.95 239.15 Q-27.7 239.25 -27.5 239.45 L-27.35 239.8 -27.25 240.2 -27.25 240.55 -27.25 240.95 -27.1 241.3 -26.9 241.7 -26.75 242.05 -26.75 242.45 -26.75 242.8 -26.75 243.2 -26.75 243.55 -26.5 243.95 -26.25 244.3 -26.25 244.7 -26.25 245.05 -26.25 245.45 -26.25 245.8 -25.45 247.4 -24.2 248.85 -23.15 249.8 -20.35 250.8 -18.95 251.3 -18.75 251.3 -18.3 251.4 -17.0 251.95 -16.85 252.3 -16.75 253.05 -16.75 253.8 -16.6 254.15 -16.4 254.55 -16.25 254.95 -16.25 256.8 -16.25 259.45 -16.1 259.8 -15.95 260.1 -15.85 260.1 -17.25 261.8 -18.8 263.75 -22.5 263.8 Q-30.55 263.95 -37.85 261.65 L-38.9 261.2 -39.1 260.8 -39.25 260.4 -39.25 260.05 -39.3 259.7 -39.4 259.3 -39.55 258.95 -39.75 258.55 -39.75 257.8 -39.75 256.3 -39.75 255.95 -39.75 255.55 -39.75 255.2 -39.75 251.05 Q-39.75 250.2 -40.25 249.55 L-40.25 249.2 -40.25 248.05 -40.25 247.3 -40.25 246.95 -40.25 246.55 -40.3 246.2 Q-40.4 244.8 -39.95 243.55 L-39.75 243.2 -39.75 242.8 -39.75 242.45 -39.75 242.05 -39.75 241.7 -39.75 241.3 -39.75 240.95 -39.75 240.55 -39.55 240.15 -39.35 239.85 -39.15 239.55 -38.95 239.45" fill="#000000" fill-rule="evenodd" stroke="none"/>
    <path d="M92.15 -29.7 L91.95 -29.65 91.5 -29.75 91.15 -29.9 Q90.6 -31.35 90.65 -32.85 L90.45 -32.85 90.0 -32.95 89.65 -33.1 Q89.15 -34.35 89.25 -35.7 89.0 -36.35 89.0 -37.15 L89.3 -39.25 90.0 -39.15 97.5 -39.3 97.5 -39.25 97.6 -38.95 97.7 -38.45 97.65 -38.3 97.55 -38.15 97.45 -37.85 97.3 -37.7 Q96.25 -36.9 95.5 -35.75 L94.7 -34.5 94.7 -33.5 94.2 -32.25 94.1 -32.05 93.85 -31.95 93.3 -31.75 93.0 -30.6 92.85 -30.2 92.65 -29.85 92.4 -29.75 92.3 -29.7 92.15 -29.7" fill="#ffdb48" fill-rule="evenodd" stroke="none"/>
    <path d="M101.25 -42.2 L103.2 -42.2 103.15 -42.05 110.7 -41.45 111.55 -41.45 123.2 -42.45 126.5 -42.7 129.1 -42.5 131.75 -42.65 Q134.25 -41.2 136.0 -41.75 L140.35 -41.5 141.45 -41.6 142.0 -41.25 143.4 -40.3 Q143.0 -27.85 133.65 -18.95 126.85 -12.4 117.7 -11.85 99.4 -10.55 91.7 -26.9 88.55 -33.6 88.65 -40.95 L89.25 -41.5 89.45 -41.8 97.95 -42.45 98.4 -42.4 101.25 -42.15 101.25 -42.2 M107.65 -38.85 L102.85 -39.45 Q102.75 -32.65 109.15 -27.15 L109.55 -27.1 110.05 -27.45 Q121.65 -22.0 127.55 -33.8 129.1 -37.0 128.8 -40.3 L122.35 -39.65 120.2 -39.4 109.0 -38.75 107.65 -38.85 M92.15 -40.5 L90.55 -40.45 Q90.0 -28.1 99.9 -20.0 110.05 -11.85 122.75 -15.2 129.25 -17.0 133.35 -22.25 137.15 -24.8 138.7 -29.65 140.3 -34.9 140.15 -40.3 135.65 -40.6 131.1 -40.4 131.25 -37.0 129.45 -33.2 124.8 -23.3 114.75 -23.35 106.15 -24.1 102.45 -32.3 100.75 -36.0 100.95 -39.65 L92.15 -40.5 M266.45 -38.0 L266.45 -38.4 266.45 -38.75 Q258.2 -40.3 249.6 -39.9 249.85 -38.8 249.7 -37.5 249.55 -35.8 250.2 -34.3 L253.15 -33.1 Q254.15 -32.6 255.2 -32.25 L257.55 -30.0 Q258.55 -28.85 259.15 -27.4 L259.45 -26.65 259.45 -26.25 259.5 -25.9 259.75 -25.15 259.95 -24.75 259.95 -24.4 259.95 -24.0 259.95 -23.65 259.95 -23.25 260.1 -22.9 260.3 -22.5 260.45 -22.15 260.45 -21.4 260.45 -21.35 260.95 -21.5 264.0 -20.6 264.85 -20.4 265.3 -20.45 266.35 -21.0 266.7 -22.1 266.95 -22.5 266.95 -22.65 266.95 -23.0 266.95 -23.75 267.1 -24.1 267.3 -24.5 267.45 -24.9 267.45 -25.25 267.45 -25.65 267.45 -26.0 267.45 -26.4 267.45 -26.75 267.45 -27.15 267.45 -27.5 267.3 -27.85 267.1 -28.25 266.95 -28.65 266.95 -29.0 266.95 -30.15 266.95 -30.9 266.95 -31.25 266.95 -31.65 266.95 -32.0 267.0 -35.4 266.95 -36.5 266.8 -36.85 266.6 -37.25 266.45 -37.65 266.45 -38.0 M269.3 -40.5 L269.45 -40.1 269.45 -39.75 269.5 -39.4 269.6 -39.0 269.75 -38.65 269.95 -38.25 269.95 -37.5 269.95 -36.0 269.95 -35.65 269.95 -35.25 269.95 -34.9 269.95 -30.75 Q269.95 -29.9 270.45 -29.25 L270.45 -28.9 270.45 -27.75 270.45 -27.0 270.45 -26.65 270.45 -26.25 270.5 -25.9 Q270.6 -24.5 270.15 -23.25 L269.95 -22.9 269.95 -22.5 269.95 -22.15 269.95 -21.75 269.95 -21.4 269.95 -21.0 269.95 -20.65 269.95 -20.25 269.75 -19.85 269.55 -19.55 269.35 -19.25 269.15 -19.15 269.05 -19.05 267.95 -17.9 Q264.25 -16.2 260.6 -18.25 L259.9 -18.95 259.7 -18.8 258.95 -18.5 258.15 -18.85 257.7 -19.15 257.55 -19.5 257.45 -19.9 257.45 -20.25 257.45 -20.65 257.3 -21.0 257.1 -21.4 256.95 -21.75 256.95 -22.15 256.95 -22.5 256.95 -22.9 256.95 -23.25 256.7 -23.65 256.45 -24.0 256.45 -24.4 256.45 -24.75 256.45 -25.15 256.45 -25.5 255.65 -27.1 254.4 -28.55 253.35 -29.5 250.55 -30.5 Q249.75 -30.65 249.15 -31.0 L248.95 -31.0 248.5 -31.1 Q247.85 -31.3 247.2 -31.65 L247.05 -32.0 246.95 -32.75 246.95 -33.5 246.8 -33.85 246.6 -34.25 246.45 -34.65 246.45 -36.5 246.45 -39.15 246.3 -39.5 246.15 -39.8 246.05 -39.8 247.45 -41.5 249.0 -43.45 252.7 -43.5 Q260.75 -43.65 268.05 -41.35 L269.1 -40.9 269.3 -40.5" fill="#000000" fill-rule="evenodd" stroke="none"/>
    <path d="M103.55 -26.35 L103.55 -26.1 103.55 -25.9 103.55 -25.8 103.3 -25.25 102.7 -24.3 102.6 -24.2 102.5 -24.1 102.35 -24.0 102.45 -23.9 102.55 -23.85 102.6 -23.75 102.6 -23.65 102.65 -23.55 102.6 -23.45 102.6 -23.3 102.55 -23.2 102.45 -23.15 102.4 -23.05 102.35 -23.05 102.15 -23.0 101.95 -23.0 101.7 -23.05 101.6 -23.15 101.3 -23.35 101.2 -23.5 100.0 -23.6 99.85 -23.7 99.55 -23.8 99.35 -23.85 98.4 -24.75 97.75 -25.45 97.75 -25.55 97.6 -25.75 97.45 -25.95 95.75 -25.5 95.25 -25.45 95.15 -25.55 95.05 -25.65 95.05 -25.75 95.0 -25.95 95.0 -26.1 95.05 -26.2 95.15 -26.45 95.6 -26.8 95.65 -26.9 95.75 -26.9 95.95 -27.0 96.1 -27.05 96.4 -27.3 96.5 -27.4 96.5 -27.5 96.5 -27.6 96.5 -27.7 96.45 -27.8 96.5 -27.9 96.5 -27.95 96.55 -28.05 96.65 -28.15 96.8 -28.25 96.95 -28.3 97.2 -28.25 97.5 -28.1 97.6 -28.0 97.7 -27.9 97.75 -27.8 97.75 -27.75 97.9 -27.8 98.1 -28.0 98.15 -28.15 98.1 -28.5 97.85 -28.95 97.75 -29.15 97.75 -29.85 97.75 -30.85 97.8 -31.15 97.85 -31.25 97.95 -31.35 98.1 -31.4 98.3 -31.45 98.55 -31.4 98.65 -31.3 98.75 -31.2 98.85 -30.6 98.8 -29.7 98.8 -29.4 98.9 -29.25 99.05 -28.9 99.15 -28.7 99.25 -28.5 99.25 -28.1 99.25 -27.8 98.95 -27.35 98.3 -26.75 98.3 -26.65 98.35 -26.55 98.45 -26.45 Q98.6 -26.1 98.85 -25.85 L99.45 -25.15 99.6 -25.05 99.75 -24.95 99.85 -24.85 99.95 -24.8 100.3 -24.7 100.4 -24.65 100.4 -24.75 100.4 -24.8 100.4 -24.9 100.45 -25.0 100.5 -25.1 100.55 -25.2 100.55 -25.35 100.55 -25.45 100.6 -25.55 100.75 -25.7 101.0 -26.1 101.1 -26.2 101.4 -26.45 101.85 -26.8 102.75 -26.85 103.2 -26.7 103.5 -26.4 103.55 -26.35 M102.0 -25.55 L101.9 -25.45 101.8 -25.35 101.75 -25.25 101.6 -25.05 101.6 -25.0 101.65 -25.0 101.8 -25.0 101.9 -25.05 102.15 -25.35 102.4 -25.75 102.3 -25.75 102.2 -25.65 102.0 -25.55 M94.35 -38.25 L94.45 -38.35 94.55 -38.45 94.7 -38.5 94.85 -38.55 95.1 -38.5 95.2 -38.4 95.3 -38.3 95.4 -38.2 95.4 -38.0 95.4 -37.8 95.4 -37.7 95.4 -37.6 95.25 -37.5 95.1 -37.3 95.0 -37.15 94.7 -36.7 94.65 -36.6 94.65 -36.5 94.6 -36.4 94.6 -36.35 94.55 -36.25 94.6 -36.15 94.85 -35.9 95.05 -35.75 Q96.6 -35.15 98.15 -34.65 L98.3 -34.55 98.45 -34.5 98.65 -34.45 98.8 -34.35 98.85 -34.25 98.9 -34.15 98.95 -34.05 98.95 -33.85 98.95 -33.75 98.8 -33.45 Q98.5 -33.2 98.1 -33.1 L98.0 -32.95 97.95 -32.85 97.35 -32.6 96.85 -32.4 96.7 -32.4 96.45 -32.45 96.35 -32.55 96.25 -32.65 96.2 -32.75 96.2 -32.85 96.15 -32.95 96.15 -33.1 96.2 -33.15 96.25 -33.25 96.4 -33.35 96.9 -33.55 97.25 -33.85 96.45 -34.2 Q95.65 -34.3 94.85 -34.65 L94.45 -34.85 94.3 -35.0 94.15 -35.1 94.05 -35.15 93.8 -35.2 93.7 -35.3 93.65 -35.4 93.5 -35.6 93.4 -35.8 93.4 -36.2 93.4 -36.5 93.6 -36.85 93.95 -37.45 94.05 -37.55 94.1 -37.65 94.2 -37.9 94.3 -38.2 94.35 -38.25 M95.1 -32.55 L95.1 -32.45 95.1 -32.4 95.1 -32.3 95.05 -32.1 95.0 -31.95 95.0 -31.85 95.0 -31.75 94.95 -31.65 94.85 -31.5 94.75 -31.25 95.5 -30.9 95.95 -30.7 96.05 -30.6 96.1 -30.55 96.15 -30.45 96.15 -30.35 96.15 -30.25 96.15 -30.1 96.1 -30.0 96.0 -29.9 95.9 -29.8 95.65 -29.75 95.1 -29.95 94.75 -30.05 94.3 -30.1 94.05 -30.2 93.95 -30.3 93.9 -30.4 93.75 -30.6 93.7 -30.8 93.7 -31.2 93.7 -31.6 93.75 -31.65 93.8 -31.75 93.85 -31.85 93.9 -31.95 93.95 -32.1 93.95 -32.2 93.95 -32.3 94.0 -32.35 94.05 -32.45 94.1 -32.65 94.15 -32.75 94.2 -32.85 94.3 -32.95 94.6 -33.0 94.85 -32.95 94.95 -32.85 95.05 -32.75 95.1 -32.65 95.1 -32.55 M118.6 -21.7 L118.85 -21.65 118.95 -21.55 119.1 -21.3 119.4 -20.95 119.6 -20.75 119.75 -20.65 120.1 -20.4 120.15 -20.35 120.45 -20.3 120.6 -20.2 120.75 -20.1 122.8 -20.05 123.0 -20.25 123.55 -20.7 123.65 -20.8 123.7 -20.85 123.9 -21.05 123.95 -21.15 124.0 -21.25 124.1 -21.35 124.4 -21.4 124.65 -21.3 124.9 -21.15 125.0 -21.05 125.0 -20.95 125.1 -20.85 125.3 -20.75 125.4 -20.7 125.45 -20.6 125.45 -20.45 125.55 -20.35 125.8 -20.15 125.9 -20.1 126.3 -20.0 127.05 -19.8 127.5 -19.8 127.95 -20.1 128.35 -20.55 128.35 -20.7 128.35 -21.1 128.35 -21.35 128.35 -21.5 128.25 -21.6 128.2 -21.65 127.95 -21.75 127.5 -22.15 127.45 -22.25 127.45 -22.35 127.45 -22.4 127.5 -22.55 127.5 -22.65 127.7 -22.85 127.8 -22.95 128.05 -23.0 128.55 -23.05 129.35 -23.45 129.8 -23.55 130.0 -23.5 130.2 -23.35 130.25 -23.25 130.3 -23.15 130.35 -23.05 130.35 -22.95 130.3 -22.9 130.3 -22.8 130.2 -22.7 130.15 -22.6 129.85 -22.55 Q129.5 -22.4 129.3 -22.15 L129.35 -22.05 129.4 -22.0 129.4 -21.9 129.4 -21.35 129.4 -20.8 129.4 -20.4 129.4 -20.3 Q128.25 -18.0 125.65 -19.0 124.9 -19.3 124.5 -20.0 L124.4 -19.95 124.35 -19.85 124.1 -19.75 123.9 -19.65 123.8 -19.5 123.6 -19.35 123.4 -19.15 123.1 -18.7 122.5 -18.05 122.4 -17.95 122.25 -17.8 122.05 -17.45 121.95 -17.4 121.7 -17.3 121.35 -17.25 Q120.7 -16.55 119.8 -16.7 L119.55 -16.75 119.3 -16.95 119.1 -17.3 119.05 -17.4 119.0 -17.65 119.0 -18.05 119.05 -18.3 119.05 -18.4 119.15 -18.5 119.3 -18.75 119.35 -18.85 119.4 -18.9 119.5 -19.0 119.6 -19.1 119.75 -19.2 119.85 -19.25 119.9 -19.3 119.65 -19.35 118.8 -20.0 Q118.55 -20.15 118.4 -20.45 L118.3 -20.6 118.1 -20.8 118.05 -20.85 118.0 -20.95 117.95 -21.05 117.95 -21.15 117.95 -21.25 118.0 -21.35 118.05 -21.5 118.1 -21.55 118.2 -21.65 118.25 -21.65 118.45 -21.7 118.6 -21.7 M116.75 -19.0 L116.85 -19.1 116.95 -19.2 117.15 -19.2 117.35 -19.15 117.5 -19.05 117.6 -18.95 117.65 -18.85 117.7 -18.7 117.7 -18.35 117.65 -18.25 117.6 -18.15 117.5 -18.05 117.35 -17.95 116.5 -17.85 116.4 -17.75 Q116.7 -17.25 117.25 -17.05 L118.05 -16.8 118.15 -16.7 118.25 -16.55 118.3 -16.45 118.3 -16.35 118.3 -16.3 118.3 -16.2 118.25 -16.1 118.2 -16.0 118.1 -15.9 115.7 -15.95 115.55 -16.05 115.5 -16.15 115.45 -16.25 115.45 -16.35 115.4 -16.45 115.4 -16.5 115.35 -16.6 115.25 -16.85 115.2 -16.95 114.5 -17.45 Q114.15 -17.75 114.0 -17.65 L113.95 -17.5 113.85 -17.3 113.75 -17.1 Q113.0 -16.4 112.0 -16.3 L109.5 -16.2 109.35 -16.3 109.25 -16.35 109.1 -16.4 108.8 -16.45 108.7 -16.55 108.65 -16.7 108.55 -16.9 108.35 -17.15 108.35 -17.25 108.3 -17.45 108.3 -17.8 108.3 -17.9 109.0 -19.1 109.9 -20.3 110.0 -20.4 110.1 -20.55 110.3 -20.55 110.5 -20.45 110.65 -20.35 110.7 -20.25 110.75 -20.15 110.85 -20.05 110.85 -20.0 110.3 -18.95 109.45 -17.9 109.4 -17.8 109.4 -17.7 109.4 -17.65 109.4 -17.5 109.6 -17.4 109.75 -17.3 112.05 -17.25 112.3 -17.35 112.4 -17.45 112.65 -17.7 112.85 -17.9 112.8 -17.95 112.75 -18.05 112.6 -18.15 112.5 -18.2 112.25 -18.25 112.0 -18.3 111.9 -18.4 111.85 -18.5 111.8 -18.65 111.8 -18.75 111.7 -18.85 111.7 -18.95 111.8 -19.0 111.85 -19.1 111.95 -19.2 112.1 -19.25 Q113.8 -19.3 115.15 -18.25 L115.3 -18.25 115.4 -18.3 115.75 -18.65 116.2 -18.9 116.45 -18.95 116.75 -19.0 M120.85 -18.65 L120.65 -18.5 120.5 -18.4 120.35 -18.3 120.25 -18.2 120.2 -18.15 120.15 -18.05 120.05 -17.95 120.05 -17.85 120.1 -17.8 120.35 -17.8 120.5 -17.9 120.6 -18.0 120.7 -18.1 120.85 -18.2 121.05 -18.25 121.15 -18.3 121.35 -18.35 121.45 -18.45 121.5 -18.55 121.55 -18.65 121.55 -18.75 121.5 -18.75 121.2 -18.7 120.85 -18.65 M108.55 -21.0 L108.6 -20.9 108.65 -20.8 108.7 -20.7 108.7 -20.6 108.65 -20.55 108.45 -20.2 108.15 -19.95 107.85 -19.7 107.75 -19.65 107.7 -19.65 107.5 -19.6 107.4 -19.6 107.15 -19.65 107.05 -19.75 106.95 -19.85 106.95 -19.95 106.85 -20.05 106.85 -20.15 106.85 -20.25 106.95 -20.3 107.0 -20.4 107.0 -20.55 106.8 -20.75 106.5 -21.05 106.3 -21.2 106.25 -21.15 106.3 -21.05 106.3 -20.95 106.3 -20.85 106.4 -20.8 106.45 -20.7 106.55 -20.6 106.65 -20.35 106.75 -20.05 106.8 -19.9 106.85 -19.8 107.0 -19.7 107.1 -19.6 107.2 -19.45 107.25 -19.35 107.25 -19.25 107.25 -19.2 107.25 -19.1 107.2 -19.0 107.15 -18.9 107.1 -18.8 107.0 -18.7 106.8 -18.65 106.6 -18.5 106.35 -18.65 106.25 -18.7 101.6 -18.75 101.5 -18.85 101.4 -18.95 101.35 -19.15 101.35 -19.45 101.35 -19.65 101.35 -19.85 101.4 -19.95 101.45 -20.05 101.45 -20.15 101.5 -20.25 101.5 -20.4 101.6 -20.65 101.95 -20.95 102.2 -21.05 102.4 -21.05 102.6 -21.0 102.75 -20.9 102.8 -20.8 102.85 -20.7 102.9 -20.6 102.9 -20.55 102.85 -20.4 102.85 -20.3 102.75 -20.2 102.55 -20.0 102.5 -19.9 105.75 -19.8 105.65 -19.9 105.55 -20.1 105.35 -20.4 105.3 -20.55 105.25 -20.6 105.25 -20.7 105.25 -20.8 105.25 -20.9 105.2 -21.0 105.1 -21.1 104.9 -21.2 104.8 -21.35 104.6 -21.7 104.55 -21.9 104.5 -22.0 104.4 -22.1 104.35 -22.15 104.25 -22.35 104.2 -22.5 104.1 -22.6 104.0 -22.7 103.95 -22.8 103.95 -22.9 103.95 -22.95 104.0 -23.15 104.0 -23.25 104.15 -23.35 104.25 -23.5 104.5 -23.55 104.85 -23.3 105.2 -23.05 105.3 -22.95 105.75 -22.8 106.2 -22.4 107.15 -21.95 107.8 -21.3 108.0 -21.2 108.2 -21.15 108.4 -21.1 108.55 -21.0 M137.8 -38.15 L137.7 -38.0 137.7 -37.9 137.6 -37.65 137.5 -37.4 137.4 -37.3 137.2 -37.1 137.1 -37.0 137.0 -36.95 136.75 -36.85 136.65 -36.8 136.65 -36.5 136.65 -36.05 136.65 -35.6 Q137.0 -35.2 137.65 -35.1 L138.2 -34.75 138.2 -34.65 138.3 -34.6 138.45 -34.55 138.6 -34.45 138.65 -34.35 138.7 -34.15 138.8 -33.75 138.8 -33.45 138.7 -33.35 138.6 -33.2 138.4 -32.85 138.2 -32.75 137.9 -32.55 Q136.65 -31.65 135.25 -30.9 L133.85 -30.05 133.8 -30.05 133.6 -30.0 133.35 -30.05 133.25 -30.2 133.2 -30.3 133.15 -30.4 133.15 -30.6 133.15 -30.8 133.15 -30.85 133.2 -30.95 133.3 -31.05 135.0 -31.95 135.45 -32.3 135.35 -32.35 135.3 -32.4 135.1 -32.45 134.95 -32.55 134.75 -32.75 134.6 -32.95 134.55 -33.1 134.55 -33.25 134.55 -33.55 134.55 -33.65 134.85 -34.25 135.3 -34.8 135.55 -35.05 135.6 -36.05 135.6 -36.95 135.65 -37.6 135.7 -37.7 135.75 -37.75 135.9 -37.9 135.95 -37.9 136.5 -38.0 136.55 -38.1 136.6 -38.15 137.8 -38.15 M129.75 -27.85 L130.1 -27.75 130.35 -27.7 130.45 -27.6 Q130.65 -27.45 130.9 -27.4 L131.55 -27.1 131.65 -27.0 131.85 -26.8 Q131.9 -26.75 132.05 -26.65 L132.3 -26.45 132.35 -26.4 132.8 -26.4 132.9 -26.5 133.1 -26.7 133.15 -26.8 133.2 -26.9 133.3 -27.0 133.35 -27.05 133.45 -27.05 133.6 -27.15 133.65 -27.2 133.75 -27.35 133.8 -27.4 134.0 -27.45 134.1 -27.55 134.2 -27.65 134.3 -27.7 134.35 -27.7 134.55 -27.75 134.75 -27.7 134.95 -27.6 135.0 -27.5 135.05 -27.4 135.1 -27.3 135.15 -27.2 135.3 -27.05 135.4 -27.0 135.4 -26.9 135.45 -26.8 135.45 -26.7 135.45 -26.6 135.45 -26.5 135.4 -26.35 135.3 -26.1 135.15 -25.9 135.15 -25.8 135.1 -25.7 135.1 -25.6 135.1 -25.55 135.1 -25.45 135.1 -25.35 135.05 -25.2 135.0 -25.1 134.95 -25.0 134.85 -24.9 134.75 -24.8 134.6 -24.55 134.45 -24.3 134.35 -24.0 134.3 -23.95 134.3 -23.85 134.3 -23.75 134.25 -23.65 134.1 -23.45 133.85 -23.25 133.6 -23.15 133.35 -23.2 133.25 -23.3 133.2 -23.45 133.05 -23.75 132.9 -23.95 132.75 -24.2 132.7 -24.45 132.7 -24.55 132.7 -24.65 132.7 -24.8 132.7 -24.9 132.7 -25.0 132.7 -25.1 132.7 -25.15 132.25 -25.2 132.15 -25.15 131.7 -25.0 131.55 -24.95 131.45 -24.9 131.25 -24.85 130.1 -25.0 129.8 -25.05 129.65 -25.15 129.6 -25.25 129.4 -25.25 129.15 -25.35 128.95 -25.45 128.55 -25.65 128.0 -25.9 127.85 -26.1 127.85 -26.2 127.8 -26.4 127.8 -26.6 127.8 -26.8 127.8 -27.0 127.85 -27.05 127.95 -27.3 128.0 -27.5 128.2 -27.7 128.35 -27.85 128.45 -27.85 128.6 -27.9 129.55 -27.9 129.75 -27.85 M129.05 -26.55 L129.5 -26.55 129.55 -26.6 129.55 -26.65 129.4 -26.75 129.35 -26.85 128.9 -26.8 Q128.8 -26.6 129.05 -26.55 M137.0 -33.55 L136.9 -33.7 136.7 -33.75 136.3 -33.95 136.0 -33.9 135.95 -33.9 135.8 -33.8 135.75 -33.7 135.7 -33.6 135.65 -33.5 135.7 -33.45 135.8 -33.35 137.05 -33.35 137.0 -33.55 M136.1 -29.8 L136.35 -30.0 136.45 -30.05 136.65 -30.1 136.9 -30.05 137.05 -29.95 137.1 -29.85 137.15 -29.75 137.2 -29.65 137.2 -29.55 137.15 -29.5 137.1 -29.3 136.95 -28.95 136.95 -28.85 136.95 -28.75 136.95 -28.7 137.0 -28.6 137.1 -28.5 137.3 -28.4 137.55 -28.3 137.85 -28.25 137.95 -28.1 138.05 -28.0 138.1 -27.9 138.1 -27.8 138.1 -27.7 138.1 -27.65 138.05 -27.55 138.0 -27.45 137.9 -27.35 137.55 -27.3 136.95 -27.3 136.85 -27.4 136.75 -27.4 136.5 -27.45 136.25 -27.65 135.95 -27.95 135.9 -28.25 135.9 -28.75 135.9 -29.1 135.95 -29.25 136.0 -29.45 136.0 -29.65 136.05 -29.75 136.1 -29.8 M134.0 -25.7 L133.75 -25.6 133.75 -25.55 133.75 -25.45 133.75 -25.35 133.8 -25.25 133.85 -25.35 134.0 -25.55 134.0 -25.7" fill="#d5aa00" fill-rule="evenodd" stroke="none"/>
    <path d="M136.6 -38.15 L131.0 -38.15 130.1 -38.4 129.6 -38.75 129.25 -39.15 129.1 -39.5 129.1 -39.9 129.1 -40.25 129.25 -40.65 129.35 -41.0 129.75 -41.4 130.1 -41.65 130.35 -41.75 131.0 -41.9 143.1 -42.15 144.0 -42.25 144.0 -42.4 144.85 -42.15 145.35 -41.75 145.6 -41.4 145.75 -41.0 145.85 -40.65 145.85 -40.25 145.85 -39.9 145.75 -39.5 145.6 -39.15 145.35 -38.75 144.85 -38.4 144.0 -38.15 137.8 -38.15 136.6 -38.15 M-19.65 -42.25 L-19.4 -41.9 -19.25 -41.5 -19.15 -41.15 -19.15 -40.75 -19.25 -40.4 -19.5 -40.0 -19.75 -39.65 -20.15 -39.4 -20.4 -39.25 -21.0 -39.15 -24.5 -39.15 -25.4 -39.4 -26.15 -39.75 -26.75 -40.15 -27.15 -40.5 -27.25 -40.9 -27.4 -41.25 -27.4 -41.65 -27.4 -42.0 -27.25 -42.4 -26.9 -42.75 -26.4 -43.15 -25.5 -43.25 -25.5 -43.4 -25.0 -43.4 -24.15 -43.15 -21.0 -42.9 -20.15 -42.65 -19.65 -42.25" fill="#000000" fill-rule="evenodd" stroke="none"/>
  </g>
</svg>
