<?xml version="1.0" encoding="UTF-8" standalone="no"?>
<svg xmlns:ffdec="https://www.free-decompiler.com/flash" xmlns:xlink="http://www.w3.org/1999/xlink" ffdec:objectType="shape" height="38.5px" width="215.45px" xmlns="http://www.w3.org/2000/svg">
  <g transform="matrix(1.0, 0.0, 0.0, 1.0, 101.7, 86.45)">
    <path d="M67.0 -83.3 L67.75 -83.4 67.75 -83.45 70.75 -83.45 71.5 -83.3 72.4 -83.05 73.0 -82.7 73.5 -82.3 73.9 -81.95 74.25 -81.55 74.5 -81.2 74.7 -80.95 81.25 -80.95 82.25 -80.95 83.0 -80.8 83.3 -80.7 83.4 -81.05 83.5 -81.45 83.65 -81.8 83.9 -82.2 84.25 -82.55 84.65 -82.95 85.15 -83.3 85.65 -83.55 85.9 -83.65 86.5 -83.8 87.25 -83.9 87.25 -83.95 88.0 -83.8 88.9 -83.55 89.5 -83.2 90.0 -82.8 90.4 -82.45 90.75 -82.05 91.15 -81.7 91.4 -81.3 91.65 -81.05 101.5 -80.55 103.9 -80.05 104.5 -79.7 105.0 -79.3 105.4 -78.95 106.15 -78.2 106.9 -77.45 107.15 -77.05 107.25 -76.7 107.5 -76.3 107.75 -75.95 107.9 -75.55 108.15 -75.2 108.25 -74.8 108.4 -74.45 108.5 -74.05 108.65 -73.7 108.75 -73.3 108.75 -72.95 108.75 -72.55 108.75 -71.8 108.75 -71.05 108.75 -69.95 108.75 -69.55 108.75 -69.2 108.75 -68.8 108.75 -68.45 108.75 -68.05 108.65 -67.7 108.5 -67.3 108.4 -66.95 108.25 -66.55 108.15 -66.2 108.15 -65.8 108.4 -65.45 108.75 -65.05 109.15 -64.7 109.4 -64.3 109.65 -63.95 109.9 -63.55 110.15 -63.2 110.5 -62.8 110.9 -62.45 111.25 -62.05 111.5 -61.7 111.75 -61.3 111.9 -60.95 112.0 -60.55 112.15 -60.2 112.25 -59.8 112.25 -59.45 112.25 -59.05 112.25 -58.7 112.25 -58.3 112.25 -57.95 112.25 -57.55 112.25 -56.8 112.25 -56.5 112.5 -56.3 112.9 -55.95 113.15 -55.55 113.25 -55.2 113.5 -54.8 113.65 -54.45 113.65 -54.05 113.75 -53.7 113.75 -53.3 113.75 -52.95 113.75 -52.55 113.75 -52.2 113.65 -51.8 113.65 -51.45 113.5 -51.05 113.25 -50.7 113.15 -50.3 112.9 -49.95 112.5 -49.6 112.0 -49.2 111.4 -48.8 110.5 -48.6 109.75 -48.45 108.25 -48.45 107.5 -48.6 106.65 -48.8 105.9 -49.2 105.65 -49.45 105.0 -49.55 104.0 -49.8 103.0 -50.05 102.15 -50.3 101.55 -50.6 101.5 -50.55 101.25 -50.2 101.15 -49.8 100.9 -49.45 100.5 -49.1 100.0 -48.7 99.4 -48.3 98.5 -48.1 97.75 -47.95 96.75 -47.95 96.05 -48.1 95.15 -48.3 94.4 -48.7 93.65 -49.05 93.15 -49.3 92.25 -49.45 91.55 -49.6 91.25 -49.3 90.65 -48.95 90.15 -48.7 89.5 -48.55 88.75 -48.45 88.25 -48.45 87.55 -48.6 86.65 -48.8 85.9 -49.2 85.5 -49.55 85.15 -49.95 84.9 -50.3 84.65 -50.2 84.0 -50.05 83.25 -49.95 69.75 -49.95 69.05 -50.1 68.15 -50.3 67.4 -50.7 67.0 -51.05 66.65 -51.45 66.25 -51.8 65.9 -52.2 65.65 -52.55 65.5 -52.95 65.4 -53.3 65.25 -53.7 65.25 -54.05 65.25 -55.2 65.25 -56.3 65.0 -56.05 64.65 -55.7 64.4 -55.3 64.15 -54.95 63.9 -54.55 63.65 -54.2 63.4 -53.8 63.25 -53.45 63.15 -53.05 63.0 -52.7 62.9 -52.3 62.65 -51.95 62.4 -51.55 62.15 -51.2 61.75 -50.8 61.4 -50.45 61.25 -50.05 61.0 -49.7 60.75 -49.3 60.4 -48.95 59.9 -48.55 59.4 -48.3 59.15 -48.2 58.5 -48.05 57.75 -47.95 57.25 -47.95 56.55 -48.1 55.65 -48.3 54.9 -48.7 54.5 -49.05 54.15 -49.45 53.75 -49.8 53.4 -50.2 53.0 -50.55 52.75 -50.95 52.5 -51.3 52.4 -51.7 52.15 -52.05 52.0 -52.45 51.75 -52.8 51.65 -53.2 51.4 -53.55 51.25 -53.95 51.0 -54.3 50.9 -54.7 50.65 -55.05 50.5 -55.45 50.25 -55.8 50.15 -56.2 49.9 -56.55 49.65 -56.95 49.25 -57.3 48.9 -57.7 48.65 -58.05 48.5 -58.45 48.4 -58.8 48.25 -59.2 48.0 -59.55 47.75 -59.95 47.5 -60.3 47.4 -60.7 47.35 -60.75 47.25 -60.55 47.0 -60.2 46.75 -59.8 46.4 -59.45 46.0 -59.05 45.75 -58.7 45.65 -58.3 45.4 -57.95 45.25 -57.55 45.0 -57.2 44.75 -56.8 44.4 -56.45 44.0 -56.05 43.65 -55.7 43.25 -55.3 42.9 -54.95 42.5 -54.6 42.05 -54.15 41.65 -53.8 41.4 -53.45 41.0 -53.1 40.5 -52.7 39.9 -52.35 39.15 -51.95 37.65 -51.2 36.9 -50.8 36.0 -50.6 35.25 -50.45 22.75 -50.45 22.05 -50.55 21.4 -50.7 21.15 -50.8 19.8 -50.95 19.05 -51.1 18.15 -51.3 17.4 -51.7 17.05 -52.05 16.65 -52.45 16.4 -52.8 16.15 -53.2 15.9 -53.55 15.65 -53.95 15.3 -54.3 14.9 -54.7 14.55 -55.05 14.3 -55.45 14.05 -55.8 13.9 -56.2 13.65 -56.55 13.55 -56.95 13.4 -57.3 13.3 -57.7 13.3 -58.05 13.15 -58.45 12.9 -58.8 12.65 -59.2 12.55 -59.55 12.3 -59.95 12.05 -60.3 11.9 -60.7 11.55 -61.05 11.3 -61.45 11.05 -61.8 10.9 -62.2 10.65 -62.55 10.55 -62.95 10.4 -63.3 10.3 -63.7 10.3 -64.05 10.3 -64.45 10.3 -64.8 10.3 -65.2 10.3 -65.95 10.3 -66.3 10.3 -66.7 10.3 -67.05 10.3 -67.45 10.3 -67.8 10.3 -68.2 10.4 -68.55 10.55 -68.95 10.65 -69.3 10.8 -69.7 10.8 -70.05 10.8 -70.45 10.9 -70.8 10.9 -71.2 11.05 -71.55 11.3 -71.95 11.3 -72.3 11.3 -72.7 11.3 -73.05 11.3 -73.45 11.3 -73.8 11.3 -74.2 11.3 -74.55 11.3 -74.95 11.4 -75.3 11.4 -75.7 11.55 -76.05 11.8 -76.45 12.05 -76.8 12.15 -77.2 12.4 -77.55 12.55 -77.95 12.65 -78.3 12.9 -78.7 13.3 -79.05 13.65 -79.45 14.05 -79.8 14.4 -80.2 15.15 -80.95 15.55 -81.3 15.9 -81.7 16.3 -82.05 16.9 -82.45 17.55 -82.8 17.9 -83.2 18.3 -83.55 18.9 -83.95 19.5 -84.3 19.9 -84.7 20.65 -85.05 21.55 -85.3 22.5 -85.55 23.4 -85.95 23.9 -86.2 24.5 -86.3 25.25 -86.4 25.25 -86.45 27.75 -86.45 28.5 -86.3 29.4 -86.05 30.15 -85.7 30.9 -85.3 31.25 -85.05 33.25 -84.9 34.0 -84.8 34.9 -84.55 35.65 -84.2 36.4 -83.8 37.15 -83.45 38.4 -83.05 39.15 -82.7 39.9 -82.3 40.65 -81.95 40.75 -81.85 41.15 -82.05 42.05 -82.3 42.75 -82.45 45.75 -82.45 46.5 -82.3 47.15 -82.15 47.4 -82.05 48.75 -81.9 49.5 -81.8 50.4 -81.55 51.0 -81.2 51.55 -80.85 52.15 -80.45 53.5 -79.65 54.75 -78.55 55.0 -78.2 55.25 -77.8 55.4 -77.45 55.65 -77.05 55.9 -76.7 56.0 -76.3 56.4 -75.95 56.65 -75.55 56.9 -75.2 57.0 -74.8 57.25 -74.45 57.4 -74.05 57.5 -73.7 57.7 -73.75 57.75 -74.05 57.9 -74.45 58.0 -74.8 58.15 -75.2 58.25 -75.55 58.5 -75.95 58.65 -76.3 58.9 -76.7 59.0 -77.05 59.25 -77.45 59.5 -77.8 59.75 -78.2 59.75 -78.55 59.9 -78.95 60.0 -79.3 60.15 -79.7 60.4 -80.05 60.65 -80.45 61.0 -80.8 61.4 -81.2 62.15 -81.55 63.25 -81.95 64.15 -82.35 64.65 -82.55 64.9 -82.7 65.75 -82.95 66.4 -83.2 67.0 -83.3 M58.25 -61.45 L57.25 -61.45 56.5 -61.55 56.35 -61.5 56.4 -61.45 56.65 -61.05 56.9 -60.7 57.0 -60.3 57.25 -59.95 57.65 -59.95 58.0 -60.3 58.4 -60.7 58.5 -61.05 58.75 -61.3 58.75 -61.4 58.25 -61.45 M73.9 -67.4 L73.8 -67.4 73.75 -67.3 73.75 -66.55 73.75 -65.8 73.75 -65.05 73.75 -64.3 73.75 -63.55 73.65 -63.2 73.65 -62.8 73.5 -62.45 73.4 -62.05 73.25 -61.7 73.25 -60.95 73.25 -60.2 73.25 -59.45 73.25 -58.7 73.25 -58.3 76.15 -58.2 76.0 -58.55 75.9 -58.95 75.75 -59.3 75.75 -61.2 75.75 -63.05 75.75 -64.95 75.75 -66.05 75.4 -66.45 74.8 -66.85 74.25 -67.2 73.9 -67.4 M26.65 -77.7 L26.9 -78.05 27.05 -78.3 26.15 -78.2 25.75 -77.8 25.75 -77.45 25.75 -77.1 26.15 -77.3 26.65 -77.7 M2.5 -81.8 L3.4 -81.55 4.0 -81.2 4.5 -80.8 4.9 -80.45 5.15 -80.05 5.3 -79.7 5.55 -79.3 5.65 -78.95 5.65 -78.55 5.8 -78.2 5.8 -77.8 5.8 -77.45 5.8 -77.05 5.8 -76.7 5.8 -76.3 5.65 -75.95 5.55 -75.55 5.4 -75.2 5.15 -74.8 5.05 -74.45 4.8 -74.05 4.55 -73.7 4.4 -73.3 4.3 -72.95 4.05 -72.55 3.8 -72.2 3.65 -71.8 3.4 -71.45 3.05 -71.05 2.65 -70.7 2.3 -70.3 2.3 -69.95 2.3 -69.55 2.3 -69.2 2.3 -68.8 2.3 -68.05 2.3 -67.3 2.3 -66.2 2.15 -65.8 2.15 -65.45 2.05 -65.05 1.8 -64.7 1.65 -64.3 1.4 -63.95 1.0 -63.6 0.5 -63.2 -0.1 -62.8 -0.95 -62.55 -1.7 -62.3 -1.6 -62.15 0.25 -61.9 1.0 -61.8 2.55 -61.35 3.4 -61.05 4.0 -60.65 4.5 -60.3 4.9 -59.95 5.15 -59.55 5.3 -59.2 5.55 -58.8 5.65 -58.45 5.65 -58.05 5.8 -57.7 5.8 -57.3 5.8 -56.95 5.8 -56.55 5.65 -56.2 5.55 -55.8 5.4 -55.45 5.3 -55.05 5.05 -54.7 4.8 -54.3 4.4 -53.95 4.3 -53.55 4.05 -53.2 3.9 -52.8 3.65 -52.45 3.4 -52.05 3.15 -51.7 2.8 -51.3 2.4 -50.95 2.05 -50.55 1.65 -50.2 1.3 -49.8 0.65 -49.45 0.15 -49.2 -0.45 -49.05 -1.2 -48.95 -13.2 -48.95 -13.95 -49.1 -14.85 -49.3 -15.6 -49.7 -15.95 -50.05 -16.1 -50.2 -16.35 -50.45 -16.45 -50.55 -16.85 -50.95 -17.1 -51.3 -17.35 -51.7 -17.45 -52.05 -17.6 -52.45 -17.7 -52.8 -17.85 -53.2 -17.95 -53.55 -18.1 -53.95 -18.2 -54.3 -18.2 -54.5 -18.45 -54.6 -18.8 -54.65 -18.85 -54.55 -18.95 -54.2 -19.1 -53.8 -19.35 -53.45 -19.6 -53.05 -19.85 -52.7 -20.2 -52.3 -20.85 -51.95 -21.35 -51.7 -21.95 -51.55 -22.7 -51.45 -23.7 -51.45 -24.45 -51.6 -25.35 -51.8 -26.1 -52.2 -26.45 -52.55 -26.85 -52.95 -27.1 -53.3 -27.35 -53.7 -27.45 -54.05 -27.7 -54.45 -27.95 -54.8 -28.1 -55.2 -28.2 -55.55 -28.35 -55.95 -28.55 -55.9 -28.7 -55.55 -28.95 -55.2 -29.2 -54.8 -29.6 -54.45 -29.85 -54.05 -29.95 -53.7 -30.1 -53.3 -30.35 -52.95 -30.6 -52.55 -30.85 -52.2 -31.2 -51.8 -31.85 -51.45 -32.35 -51.2 -32.95 -51.05 -33.7 -50.95 -34.2 -50.95 -34.95 -51.1 -35.85 -51.3 -36.6 -51.7 -36.95 -52.05 -37.35 -52.45 -37.6 -52.8 -37.85 -52.7 -38.6 -52.3 -39.1 -51.95 -39.6 -51.55 -39.85 -51.4 -40.1 -51.05 -40.35 -50.7 -40.7 -50.3 -41.35 -49.95 -41.85 -49.7 -42.45 -49.55 -43.2 -49.45 -53.7 -49.45 -54.45 -49.6 -55.35 -49.8 -56.1 -50.2 -56.45 -50.55 -56.85 -50.95 -57.1 -51.3 -57.35 -51.7 -57.45 -52.05 -57.6 -52.45 -57.7 -52.8 -57.7 -53.2 -57.7 -53.55 -57.7 -53.95 -57.6 -54.3 -57.6 -54.7 -57.45 -55.05 -57.25 -55.35 -57.85 -55.95 -58.6 -56.7 -59.45 -57.5 -59.7 -57.2 -59.85 -56.8 -60.1 -56.45 -60.2 -56.05 -60.35 -55.7 -60.45 -55.3 -60.6 -54.95 -60.7 -54.55 -60.95 -54.2 -61.2 -53.8 -61.6 -53.45 -61.7 -53.05 -61.85 -52.7 -61.95 -52.3 -62.1 -51.95 -62.2 -51.55 -62.45 -51.2 -62.7 -50.8 -63.1 -50.45 -63.6 -50.05 -64.1 -49.8 -64.35 -49.7 -64.95 -49.55 -65.7 -49.45 -69.7 -49.45 -70.45 -49.6 -71.35 -49.8 -72.1 -50.2 -72.45 -50.55 -72.85 -50.95 -73.1 -51.3 -73.35 -51.7 -73.45 -52.05 -73.6 -52.45 -73.7 -52.8 -73.7 -52.85 -73.95 -52.55 -74.35 -52.2 -74.7 -51.8 -75.35 -51.45 -75.85 -51.2 -76.85 -50.95 -77.35 -50.7 -77.95 -50.55 -78.7 -50.45 -80.35 -50.45 -80.6 -50.05 -80.85 -49.7 -81.2 -49.3 -81.85 -48.95 -82.35 -48.7 -82.95 -48.55 -83.7 -48.45 -88.7 -48.45 -89.45 -48.6 -90.35 -48.85 -90.95 -49.05 -91.85 -49.3 -92.6 -49.7 -93.8 -50.7 -95.7 -52.35 -97.2 -53.85 -98.85 -55.3 -99.6 -55.7 -99.95 -56.05 -100.35 -56.45 -100.6 -56.8 -100.85 -57.2 -100.95 -57.55 -101.2 -57.95 -101.45 -58.3 -101.6 -58.7 -101.6 -59.05 -101.7 -59.45 -101.7 -59.8 -101.7 -60.2 -101.7 -60.55 -101.6 -60.95 -101.45 -61.3 -101.35 -61.7 -101.1 -62.05 -100.85 -62.45 -100.7 -62.6 -100.7 -62.95 -100.7 -64.05 -100.7 -64.35 -100.85 -64.55 -100.95 -64.95 -101.1 -65.3 -101.35 -65.7 -101.45 -66.05 -101.6 -66.45 -101.7 -66.8 -101.7 -67.2 -101.7 -67.95 -101.7 -69.05 -101.7 -70.55 -101.7 -72.45 -101.7 -73.55 -101.6 -73.95 -101.45 -74.3 -101.35 -74.7 -101.1 -75.05 -100.95 -75.45 -100.85 -75.8 -100.6 -76.2 -100.45 -76.55 -100.2 -76.95 -99.95 -77.3 -99.6 -77.7 -99.2 -78.05 -98.85 -78.45 -98.6 -78.8 -98.35 -79.2 -98.1 -79.55 -97.85 -79.95 -97.45 -80.3 -97.1 -80.7 -96.7 -81.05 -96.1 -81.45 -95.35 -81.8 -94.85 -82.05 -94.6 -82.15 -91.95 -82.6 -85.85 -83.05 -85.6 -83.15 -84.95 -83.3 -84.25 -83.4 -84.2 -83.45 -74.2 -83.45 -73.45 -83.3 -72.6 -83.05 -72.0 -82.7 -71.5 -82.3 -71.1 -81.95 -70.85 -81.55 -70.7 -81.2 -70.45 -80.8 -70.35 -80.45 -70.35 -80.05 -70.2 -79.7 -70.2 -79.3 -70.2 -78.95 -70.35 -78.55 -70.45 -78.2 -70.6 -77.8 -70.85 -77.45 -71.1 -77.05 -71.35 -76.7 -71.7 -76.3 -72.35 -75.95 -72.85 -75.7 -73.45 -75.6 -76.3 -75.5 -76.35 -75.45 -76.6 -75.05 -76.85 -74.7 -77.2 -74.3 -77.6 -73.95 -78.1 -73.55 -78.85 -73.2 -79.6 -72.8 -80.45 -72.6 -81.2 -72.45 -82.35 -72.2 -83.1 -71.8 -83.85 -71.45 -84.45 -71.05 -85.0 -70.7 -85.6 -70.3 -85.85 -69.95 -85.95 -69.55 -86.2 -69.2 -86.2 -68.8 -86.2 -68.45 -86.2 -68.05 -86.2 -67.7 -86.2 -67.3 -86.2 -66.95 -85.75 -66.55 -85.35 -66.2 -84.85 -65.95 -84.45 -65.8 -83.6 -65.55 -83.1 -65.45 -82.85 -65.7 -82.95 -66.05 -83.1 -66.45 -83.2 -66.8 -83.2 -67.2 -83.2 -67.55 -83.2 -67.95 -83.1 -68.3 -83.1 -68.7 -82.95 -69.05 -82.7 -69.45 -82.45 -69.8 -82.1 -70.2 -81.7 -70.55 -81.1 -70.95 -80.6 -71.2 -79.95 -71.3 -79.25 -71.4 -79.2 -71.45 -71.7 -71.45 -70.95 -71.3 -70.1 -71.05 -69.5 -70.7 -69.0 -70.3 -68.6 -69.95 -68.35 -69.55 -68.2 -69.2 -68.05 -68.95 -67.95 -69.3 -67.85 -69.7 -67.6 -70.05 -67.35 -70.45 -67.2 -70.8 -67.2 -71.2 -67.1 -71.55 -66.95 -71.95 -66.85 -72.3 -66.6 -72.7 -66.45 -73.05 -66.2 -73.45 -66.1 -73.8 -66.1 -74.2 -65.95 -74.55 -65.7 -74.95 -65.6 -75.3 -65.35 -75.7 -65.1 -76.05 -64.85 -76.45 -64.6 -76.8 -64.35 -77.2 -63.85 -77.95 -63.45 -78.3 -63.1 -78.7 -62.7 -79.05 -62.35 -79.45 -61.85 -79.8 -61.35 -80.05 -61.1 -80.15 -60.45 -80.3 -59.75 -80.4 -59.7 -80.45 -59.0 -80.3 -58.1 -80.05 -57.5 -79.7 -57.0 -79.3 -56.85 -79.2 -56.45 -79.3 -55.75 -79.4 -55.7 -79.45 -55.0 -79.3 -54.1 -79.05 -53.5 -78.7 -53.0 -78.3 -52.6 -77.95 -52.2 -77.55 -51.95 -77.2 -51.7 -76.8 -51.6 -76.45 -51.45 -76.05 -51.35 -75.7 -51.2 -75.3 -51.1 -74.95 -50.95 -74.55 -50.7 -73.8 -50.7 -73.45 -50.7 -73.05 -50.7 -72.7 -50.45 -72.3 -50.35 -71.95 -50.35 -71.55 -50.2 -71.2 -50.2 -70.8 -50.1 -70.45 -49.85 -70.05 -49.7 -69.7 -49.45 -69.3 -49.2 -69.05 -48.95 -68.7 -48.7 -68.3 -48.45 -67.95 -48.2 -67.55 -47.95 -67.2 -47.7 -66.8 -47.6 -66.45 -47.45 -66.05 -47.35 -65.7 -47.2 -65.3 -46.95 -64.95 -46.7 -64.55 -46.35 -64.2 -46.2 -64.45 -46.1 -64.8 -46.1 -65.2 -45.95 -65.55 -45.7 -65.95 -45.45 -66.3 -45.2 -66.7 -45.2 -67.05 -45.2 -67.45 -45.1 -67.8 -45.1 -68.2 -44.95 -68.55 -44.7 -68.95 -44.6 -69.3 -44.6 -69.7 -44.45 -70.05 -44.35 -70.45 -44.2 -70.8 -44.2 -71.55 -44.2 -71.95 -44.2 -72.7 -44.2 -73.45 -44.35 -73.7 -44.45 -74.05 -44.7 -74.45 -44.95 -74.8 -45.1 -75.2 -45.1 -75.55 -45.2 -75.95 -45.2 -76.3 -45.2 -76.7 -45.2 -77.05 -45.2 -77.45 -45.2 -77.8 -45.2 -78.2 -45.1 -78.55 -44.95 -78.95 -44.85 -79.3 -44.6 -79.7 -44.2 -80.05 -44.1 -80.15 -44.1 -80.2 -43.95 -80.3 -43.85 -80.45 -43.65 -80.55 -43.35 -80.95 -42.85 -81.3 -42.35 -81.55 -42.1 -81.65 -41.45 -81.8 -40.75 -81.9 -40.7 -81.95 -40.2 -81.95 -39.5 -81.8 -38.6 -81.55 -38.0 -81.2 -37.5 -80.8 -37.1 -80.45 -36.85 -80.05 -36.7 -79.7 -36.45 -79.3 -36.35 -78.95 -36.35 -78.55 -36.2 -78.2 -36.2 -77.05 -36.2 -76.2 -35.95 -75.8 -35.35 -75.45 -34.7 -75.05 -34.35 -74.7 -34.1 -74.3 -33.85 -73.95 -33.6 -73.55 -33.35 -73.2 -32.6 -72.95 -31.85 -73.05 -31.1 -73.45 -30.45 -73.8 -30.1 -74.2 -29.7 -74.55 -29.35 -74.95 -28.95 -75.3 -28.6 -75.7 -28.2 -76.05 -27.6 -76.45 -27.2 -76.8 -27.2 -77.2 -27.2 -77.55 -27.1 -77.95 -26.95 -78.3 -26.85 -78.7 -26.6 -79.05 -26.35 -79.45 -25.95 -79.8 -25.6 -80.2 -25.2 -80.55 -24.6 -80.95 -24.1 -81.2 -23.45 -81.3 -22.7 -81.45 -22.2 -81.45 -21.5 -81.3 -20.6 -81.05 -20.0 -80.7 -19.5 -80.3 -19.1 -79.95 -18.9 -79.65 -18.7 -79.95 -18.45 -80.3 -18.1 -80.7 -17.7 -81.05 -17.1 -81.45 -16.6 -81.7 -15.95 -81.8 -15.25 -81.9 -15.2 -81.95 1.8 -81.95 2.5 -81.8 M39.75 -69.55 L39.75 -69.05 39.75 -68.45 39.75 -69.55 M30.4 -70.3 L29.9 -69.95 29.4 -69.55 28.65 -69.2 27.9 -68.8 27.15 -68.45 27.0 -68.05 26.75 -67.7 26.65 -67.3 26.65 -66.95 26.5 -66.55 26.4 -66.2 26.5 -65.8 26.65 -65.45 26.9 -65.05 27.55 -64.7 28.0 -64.45 28.65 -64.55 29.65 -64.95 30.15 -65.3 30.75 -65.7 31.25 -66.05 31.4 -66.45 31.5 -66.8 31.65 -67.2 31.75 -67.55 31.75 -67.95 31.75 -68.3 31.75 -68.7 31.75 -69.05 31.65 -69.45 31.4 -69.8 31.15 -70.2 31.0 -70.45 30.8 -70.4 30.4 -70.3 M39.65 -65.3 L39.65 -64.95 39.5 -64.55 39.25 -64.2 39.15 -63.8 39.15 -63.45 39.25 -63.55 39.65 -63.95 39.75 -64.3 39.75 -65.7 39.65 -65.3 M99.5 -72.7 L99.75 -72.55 100.15 -72.2 100.5 -71.8 100.75 -71.6 100.75 -71.7 100.5 -72.05 100.15 -72.45 99.9 -72.7 99.5 -72.7 M84.9 -73.05 L84.65 -72.7 84.25 -72.3 83.65 -71.95 82.9 -71.55 83.15 -71.2 83.5 -70.8 83.9 -70.45 84.15 -70.05 84.4 -69.7 84.5 -69.3 84.75 -68.95 84.9 -68.55 85.0 -68.2 85.15 -67.8 85.25 -67.45 85.25 -67.05 85.25 -66.7 85.15 -66.3 85.15 -65.95 85.0 -65.55 84.75 -65.2 84.65 -64.8 84.4 -64.45 84.0 -64.05 83.75 -63.7 83.75 -63.3 83.75 -62.95 83.75 -62.55 84.15 -62.2 84.5 -61.8 85.25 -61.05 86.0 -60.3 86.25 -60.05 86.25 -60.8 86.25 -61.95 86.25 -63.45 86.25 -63.8 86.25 -64.55 86.25 -65.7 86.25 -67.2 86.25 -67.95 86.15 -68.3 86.0 -68.7 85.9 -69.05 85.75 -69.45 85.65 -69.8 85.5 -70.2 85.4 -70.55 85.4 -70.95 85.25 -71.3 85.25 -71.7 85.25 -72.05 85.25 -72.45 85.25 -72.8 85.25 -73.2 85.2 -73.5 85.15 -73.45 84.9 -73.05 M-17.4 -74.6 L-17.35 -74.3 -17.2 -73.95 -17.2 -74.2 -17.2 -74.5 -17.4 -74.6 M-24.85 -68.2 L-25.15 -67.8 -25.0 -67.7 -24.5 -67.3 -24.1 -66.95 -23.7 -66.55 -23.45 -66.2 -23.2 -65.8 -23.1 -65.45 -22.85 -65.05 -22.7 -64.7 -22.45 -64.3 -22.35 -63.95 -22.35 -63.55 -22.2 -63.2 -21.95 -62.8 -21.85 -62.45 -21.85 -62.05 -21.7 -61.85 -21.7 -61.95 -21.7 -62.3 -21.7 -63.05 -21.7 -63.45 -21.85 -63.8 -22.1 -64.2 -22.35 -64.55 -22.45 -64.95 -22.6 -65.3 -22.7 -65.7 -22.85 -66.05 -22.95 -66.45 -23.1 -66.8 -23.2 -67.2 -23.2 -67.55 -23.35 -67.95 -23.6 -68.3 -24.1 -68.55 -24.85 -68.2 M-32.95 -63.45 L-32.85 -63.8 -32.75 -63.95 -33.7 -63.95 -34.45 -64.1 -34.65 -64.15 -34.6 -63.95 -34.55 -63.8 -34.1 -63.4 -33.7 -63.05 -33.2 -63.05 -32.95 -63.45 M-6.95 -71.55 L-7.2 -71.95 -7.95 -72.3 -8.5 -72.45 -8.35 -72.2 -8.1 -71.8 -7.85 -71.45 -7.7 -71.25 -7.45 -71.3 -6.95 -71.55 M-10.2 -57.55 L-10.2 -57.2 -10.2 -57.1 -8.85 -57.2 -8.95 -57.55 -9.1 -57.95 -9.2 -58.3 -9.2 -58.7 -9.35 -59.05 -9.4 -59.3 -9.6 -59.05 -9.85 -58.7 -10.1 -58.3 -10.2 -57.95 -10.2 -57.55 M-70.35 -63.7 L-70.95 -63.55 -71.7 -63.45 -71.7 -62.8 -71.7 -62.45 -71.7 -62.3 -71.7 -62.05 -71.7 -61.7 -71.7 -61.3 -71.7 -60.95 -71.7 -60.55 -71.7 -59.95 -71.45 -60.3 -71.1 -60.7 -70.95 -61.05 -70.7 -61.45 -70.6 -61.8 -70.35 -62.2 -70.2 -62.55 -70.2 -62.95 -70.1 -63.3 -70.1 -63.7 -70.05 -63.8 -70.35 -63.7" fill="#5e4713" fill-opacity="0.49803922" fill-rule="evenodd" stroke="none"/>
  </g>
</svg>
