<?xml version="1.0" encoding="UTF-8" standalone="no"?>
<svg xmlns:ffdec="https://www.free-decompiler.com/flash" xmlns:xlink="http://www.w3.org/1999/xlink" ffdec:objectType="shape" height="28.05px" width="14.5px" xmlns="http://www.w3.org/2000/svg">
  <g transform="matrix(1.0, 0.0, 0.0, 1.0, 9.3, 26.35)">
    <path d="M1.25 -24.9 L1.3 -24.85 1.3 -24.8 1.8 -22.9 2.2 -19.9 2.35 -18.7 2.65 -17.25 4.0 -13.0 Q5.2 -9.45 5.2 -8.2 5.2 -6.25 3.55 -2.65 L2.15 0.05 Q1.4 1.35 0.6 1.6 -0.15 1.85 -0.15 1.0 L0.1 1.05 0.25 1.0 0.35 1.0 0.55 0.85 0.65 0.75 0.65 0.65 0.7 0.55 0.7 0.45 0.75 0.35 0.8 0.25 0.8 0.15 0.8 0.1 0.85 0.0 0.95 -0.1 1.05 -0.15 1.15 -0.25 1.25 -0.55 1.3 -0.75 1.35 -0.85 1.4 -0.9 1.5 -1.0 1.6 -1.1 1.7 -1.3 1.75 -1.4 1.8 -1.5 1.8 -1.6 1.8 -1.65 1.85 -1.75 1.85 -1.85 2.05 -2.25 2.3 -2.9 2.5 -3.35 2.55 -3.45 2.65 -3.55 2.65 -3.65 2.75 -3.75 2.8 -3.85 2.9 -3.9 2.9 -4.0 3.0 -4.2 3.0 -4.3 3.05 -4.4 3.1 -4.5 3.2 -4.6 3.4 -4.75 3.5 -4.85 3.55 -4.95 3.65 -5.15 3.75 -5.25 3.8 -5.35 3.85 -5.4 3.85 -5.5 3.85 -5.6 3.85 -5.7 3.85 -5.8 3.9 -5.9 4.0 -6.0 4.05 -6.1 4.1 -6.75 4.1 -7.65 4.0 -8.4 3.95 -8.5 3.95 -8.6 3.9 -8.7 3.85 -8.8 3.85 -8.9 3.85 -9.15 3.85 -9.35 3.85 -9.45 3.85 -9.55 3.65 -10.0 3.55 -10.3 3.45 -10.5 3.45 -10.6 3.45 -10.65 3.4 -10.75 3.4 -10.85 3.3 -10.95 3.25 -11.05 3.15 -11.15 3.1 -11.35 3.05 -11.4 3.0 -11.5 2.95 -11.6 2.95 -11.7 2.9 -11.8 2.9 -11.9 2.8 -12.0 2.8 -12.1 2.8 -12.15 2.75 -12.25 2.7 -12.35 2.7 -12.45 2.7 -12.65 2.7 -12.75 2.65 -12.8 2.6 -12.9 2.6 -13.1 2.55 -13.2 2.55 -13.3 2.55 -13.4 2.45 -13.6 2.4 -13.65 2.4 -13.75 2.3 -13.85 2.3 -13.95 2.3 -14.05 2.3 -14.15 2.25 -14.25 2.25 -14.35 2.2 -14.4 2.2 -14.5 2.2 -14.6 2.15 -14.7 2.1 -14.8 2.1 -14.9 2.05 -15.0 2.05 -15.05 2.05 -15.15 1.95 -15.35 1.9 -15.45 1.85 -15.55 1.8 -15.65 1.8 -15.75 1.8 -15.8 1.8 -15.9 1.75 -16.0 1.7 -16.1 1.7 -16.2 1.7 -16.3 1.7 -16.4 1.7 -16.5 1.65 -16.65 1.55 -16.95 1.5 -17.15 1.45 -17.25 1.45 -17.35 1.45 -17.4 1.45 -17.5 1.45 -17.6 1.3 -17.9 1.25 -18.1 1.2 -18.15 1.2 -18.25 1.2 -18.35 1.2 -18.45 1.15 -18.55 1.15 -18.65 1.1 -18.7 1.05 -18.8 1.0 -18.9 0.95 -19.0 0.95 -19.1 0.95 -19.2 0.9 -19.3 0.9 -19.4 0.8 -19.5 0.8 -19.6 0.8 -19.65 0.7 -20.05 0.55 -20.5 0.45 -20.8 0.45 -20.9 0.45 -21.0 0.45 -21.15 0.45 -21.65 0.35 -21.9 0.35 -22.0 0.35 -22.3 0.25 -23.75 0.2 -23.8 0.1 -23.9 0.05 -23.95 0.05 -24.0 0.05 -24.1 -0.2 -24.35 -0.4 -24.55 -0.5 -24.65 -1.05 -24.7 -1.25 -24.65 -1.35 -24.6 -1.6 -24.55 -1.7 -24.5 -3.1 -23.55 Q-4.55 -22.75 -5.7 -21.45 L-5.7 -21.35 -5.75 -21.25 -5.85 -21.2 -5.95 -21.1 -5.95 -21.0 -6.05 -20.8 -6.1 -20.7 -6.15 -20.6 -6.3 -20.4 -6.5 -20.05 -6.6 -19.85 -6.75 -19.75 -6.8 -19.65 -6.85 -19.6 -6.95 -19.4 -7.0 -19.3 -7.05 -19.2 -7.15 -19.1 -7.2 -19.0 -7.3 -18.7 -7.35 -18.65 -7.55 -18.2 -7.8 -17.85 -7.95 -17.4 -8.05 -17.1 -8.05 -16.45 -8.05 -15.8 -8.05 -15.4 -8.0 -15.3 -8.0 -15.25 -7.95 -15.15 -7.9 -15.05 -7.9 -14.95 -7.9 -14.85 -7.9 -14.75 -7.9 -14.65 -7.85 -14.6 -7.8 -14.5 -7.8 -14.4 -7.75 -14.3 -7.75 -14.2 -7.65 -14.1 -7.6 -14.0 -7.5 -13.9 -7.4 -13.75 -7.15 -13.45 -7.05 -13.35 -6.5 -11.95 -4.05 -7.45 -1.55 -3.2 Q-0.7 -1.45 -0.5 0.0 L-0.5 0.05 -0.55 0.15 -0.55 0.25 -0.55 0.4 -0.55 0.5 -0.5 0.6 -0.45 0.7 -0.45 0.8 -0.4 0.95 Q-0.4 1.5 -0.7 1.65 L-1.35 1.6 -1.45 1.55 -1.45 1.5 -1.4 1.4 -1.45 1.25 -1.5 1.15 -1.5 1.05 -1.55 0.95 -1.55 0.85 -1.55 0.75 -1.55 0.65 -1.55 0.6 -1.6 0.5 -1.6 0.4 -1.65 0.3 -1.65 0.2 -1.65 0.1 -1.7 0.0 -1.7 -0.1 -1.75 -0.15 -1.8 -0.25 -1.8 -0.35 -1.8 -0.45 -1.8 -0.55 -1.85 -0.65 -1.85 -0.75 -1.9 -0.85 -1.9 -0.9 -1.9 -1.0 -1.9 -1.3 -1.95 -1.5 -2.0 -1.65 -2.05 -1.75 -2.05 -1.85 -2.05 -1.95 -2.1 -2.05 -2.1 -2.15 -2.15 -2.25 -2.15 -2.3 -2.2 -2.4 -2.2 -2.5 -2.35 -2.9 -2.45 -3.1 -2.55 -3.25 -2.55 -3.35 -2.55 -3.45 -2.6 -3.55 -2.6 -3.65 -2.65 -3.75 -2.7 -3.8 -2.75 -3.9 -2.85 -4.0 -2.9 -4.1 -2.95 -4.2 -2.95 -4.3 -3.0 -4.4 -3.1 -4.5 -3.2 -4.6 -3.2 -4.65 -3.25 -4.75 -3.45 -4.95 -3.6 -5.15 -3.8 -5.35 -3.85 -5.4 -3.85 -5.5 -3.95 -5.6 -4.05 -5.7 -4.15 -5.8 -4.25 -5.9 -4.3 -6.0 -4.35 -6.1 -4.4 -6.15 -4.5 -6.25 -4.6 -6.35 -4.7 -6.45 -4.75 -6.65 -4.8 -6.75 -4.85 -6.85 -4.9 -6.9 -5.0 -7.0 -5.1 -7.1 -5.2 -7.2 -5.3 -7.5 -5.45 -7.75 -5.55 -7.95 -5.65 -8.05 -5.75 -8.15 -5.8 -8.25 -5.85 -8.3 -5.9 -8.4 -6.0 -8.5 -6.1 -8.7 -6.15 -8.8 -6.15 -8.9 -6.15 -9.0 -6.2 -9.05 -6.25 -9.15 -6.35 -9.25 -6.35 -9.35 -6.4 -9.45 -6.4 -9.55 -6.4 -9.65 -6.45 -9.75 -6.45 -9.85 -6.6 -10.1 -6.9 -10.65 -7.05 -10.95 -7.15 -11.05 -7.3 -11.35 -7.4 -11.65 -7.4 -11.7 -7.45 -11.8 -7.45 -11.9 -7.65 -12.25 -7.95 -12.9 -8.15 -13.3 -8.25 -13.4 -8.3 -13.5 -8.3 -13.6 -8.3 -13.65 -8.45 -14.05 -8.75 -14.7 -8.9 -15.05 -9.0 -15.15 -9.15 -15.25 -9.3 -17.0 -9.05 -18.7 -8.85 -19.1 -7.2 -21.5 -6.7 -22.05 -6.6 -22.05 -6.4 -22.15 -6.25 -22.25 -6.15 -22.3 -6.05 -22.4 -5.95 -22.5 -5.85 -22.6 -5.75 -22.7 -5.6 -22.8 -5.45 -22.85 -5.4 -22.9 -5.25 -22.95 -5.15 -23.05 -4.75 -23.3 -4.25 -23.7 -4.0 -24.0 -3.95 -24.05 -3.7 -24.05 -3.5 -24.1 -3.35 -24.1 -3.05 -24.25 -2.6 -24.6 -2.15 -24.85 -2.0 -24.95 -1.9 -25.05 -1.55 -25.45 -1.45 -25.6 -1.3 -25.9 -1.1 -25.9 -0.9 -25.9 -0.75 -26.1 -0.1 -26.35 Q0.6 -26.35 1.1 -25.35 L1.1 -25.3 1.15 -25.2 1.2 -25.1 1.2 -25.0 1.25 -24.9" fill="#000000" fill-rule="evenodd" stroke="none"/>
  </g>
</svg>
