<?xml version="1.0" encoding="UTF-8" standalone="no"?>
<svg xmlns:ffdec="https://www.free-decompiler.com/flash" xmlns:xlink="http://www.w3.org/1999/xlink" ffdec:objectType="shape" height="74.8px" width="4.5px" xmlns="http://www.w3.org/2000/svg">
  <g transform="matrix(1.0, 0.0, 0.0, 1.0, -24.75, -136.0)">
    <path d="M25.7 137.0 L25.7 139.2 25.6 138.9 25.3 138.3 25.05 137.75 24.75 137.15 24.75 136.6 24.75 136.0 25.7 137.0" fill="#c99443" fill-rule="evenodd" stroke="none"/>
    <path d="M29.05 193.35 L29.05 192.8 29.25 189.75 29.25 210.8 29.15 210.8 29.15 210.3 29.15 209.7 29.15 209.2 29.15 208.55 29.15 208.05 29.15 207.45 29.15 206.9 29.15 206.3 29.15 205.75 29.15 205.15 29.15 204.6 29.15 204.0 29.15 203.45 29.15 202.85 29.15 202.35 29.15 201.7 29.15 201.2 29.15 200.6 29.15 200.05 29.15 199.45 29.15 198.9 29.15 198.3 29.15 197.75 29.15 197.15 29.15 196.6 29.15 196.0 29.15 195.45 29.15 194.85 29.15 194.35 29.15 193.7 29.05 193.35" fill="#82641b" fill-rule="evenodd" stroke="none"/>
  </g>
</svg>
