<?xml version="1.0" encoding="UTF-8" standalone="no"?>
<svg xmlns:ffdec="https://www.free-decompiler.com/flash" xmlns:xlink="http://www.w3.org/1999/xlink" ffdec:objectType="shape" height="27.75px" width="31.55px" xmlns="http://www.w3.org/2000/svg">
  <g transform="matrix(1.0, 0.0, 0.0, 1.0, 15.6, 13.75)">
    <path d="M-0.45 -12.75 L-0.25 -12.8 0.0 -12.8 0.2 -12.85 0.45 -12.9 0.65 -12.85 0.8 -12.8 0.9 -12.75 -0.45 -12.75 0.9 -12.75 0.9 -12.7 1.05 -12.65 1.1 -12.6 1.15 -12.5 1.3 -12.45 1.45 -12.45 1.6 -12.45 1.7 -12.5 1.85 -12.55 2.15 -12.65 2.4 -12.75 2.5 -12.8 2.65 -12.85 2.7 -12.9 2.7 -12.95 2.75 -13.05 2.75 -13.15 2.85 -13.2 2.95 -13.25 3.1 -13.35 3.25 -13.4 3.45 -13.4 3.55 -13.4 3.75 -13.35 3.9 -13.25 3.95 -13.15 4.05 -13.15 4.1 -13.05 4.15 -12.95 4.15 -12.9 4.2 -12.8 4.2 -12.75 2.4 -12.75 4.2 -12.75 4.2 -12.7 4.25 -12.65 4.25 -12.5 4.25 -12.4 3.9 -11.75 3.35 -10.45 2.55 -7.8 Q2.4 -7.35 2.85 -7.35 L2.85 -7.3 1.85 -7.5 -0.1 -7.5 -1.0 -7.5 Q-1.15 -7.35 -1.4 -7.35 L-1.45 -7.35 Q-1.8 -7.6 -2.8 -10.0 L-3.95 -12.65 -3.95 -12.75 -3.85 -13.15 Q-3.75 -13.45 -3.3 -12.9 L-3.25 -12.95 -3.05 -13.05 -2.95 -13.1 -2.8 -13.05 -2.6 -13.0 -2.55 -12.95 -2.4 -13.05 -2.3 -13.05 -2.1 -13.1 -2.0 -13.05 -1.8 -13.0 -1.65 -12.9 -1.6 -12.85 -1.5 -12.8 -1.45 -12.75 -3.95 -12.75 -1.45 -12.75 -1.4 -12.7 -1.4 -12.65 -1.4 -12.55 -1.35 -12.45 -1.35 -12.4 -1.3 -12.35 -1.2 -12.3 -1.0 -12.4 -0.95 -12.45 -0.9 -12.55 -0.7 -12.7 -0.55 -12.75 -0.45 -12.75 M10.9 12.9 L11.0 13.05 11.0 13.1 11.0 13.2 11.05 13.3 11.05 13.35 10.6 13.35 10.55 13.35 10.25 13.55 10.1 13.35 9.05 13.35 8.4 13.5 8.35 13.45 8.2 13.35 8.1 13.3 7.95 13.15 7.9 13.1 7.85 13.0 7.75 12.9 7.65 12.75 7.65 12.7 7.5 12.65 7.35 12.65 7.2 12.55 7.1 12.45 7.0 12.4 6.95 12.35 6.9 12.3 6.75 12.35 6.65 12.4 6.05 12.5 5.55 12.4 5.4 12.45 5.35 12.5 5.3 12.55 5.15 12.55 5.0 12.6 4.85 12.55 4.65 12.5 4.5 12.4 4.4 12.35 4.35 12.4 4.35 12.5 4.35 12.6 4.3 12.65 4.25 12.75 4.15 12.85 4.0 12.95 3.95 13.0 3.9 13.05 3.55 13.1 3.1 13.05 3.05 13.0 2.95 12.95 2.85 12.85 2.75 12.85 2.65 12.95 2.6 13.0 2.55 13.05 2.3 13.1 2.2 13.1 2.1 13.1 1.95 13.1 1.8 13.05 1.7 13.0 1.6 12.95 1.55 12.85 1.45 12.85 1.35 12.95 1.3 13.0 1.2 13.05 1.05 13.1 0.9 13.1 0.7 13.1 0.55 13.05 0.5 13.0 0.4 12.95 0.3 12.85 0.2 12.95 0.15 13.0 0.0 13.1 -0.05 13.15 -0.5 13.2 -1.0 13.0 -1.1 12.95 -1.15 13.0 -1.2 13.05 -1.3 13.1 -1.4 13.1 -1.6 13.1 -1.75 13.1 -1.9 13.05 -2.0 13.0 -2.1 12.95 -2.15 12.85 -2.25 12.8 -2.3 12.85 -2.4 12.85 -2.5 12.95 -2.55 13.0 -2.6 13.05 -2.8 13.1 -2.95 13.1 -3.1 13.1 -3.25 13.05 -3.35 13.0 -3.45 12.95 -3.5 13.0 -3.55 13.05 -3.65 13.1 -3.75 13.2 -3.9 13.3 -4.0 13.3 -4.2 13.35 -4.35 13.3 -4.5 13.25 -4.65 13.15 -4.75 13.1 -4.85 13.0 -4.9 12.95 -4.9 12.85 -4.95 12.8 -5.0 12.7 -5.0 12.65 -5.0 12.55 Q-5.0 12.4 -5.15 12.55 L-5.45 12.85 -5.55 13.0 -5.8 13.15 -5.95 13.15 -6.1 13.2 -6.3 13.15 -6.45 13.1 -6.6 13.05 -6.65 13.0 -6.7 12.95 -6.75 12.85 -6.8 12.8 -6.85 12.75 -6.9 12.65 -7.0 12.65 -7.25 12.7 -7.65 12.75 -7.75 12.85 -8.4 12.9 -8.6 13.0 -8.85 13.15 -8.95 13.15 -9.1 13.2 -9.2 13.2 -9.35 13.15 -9.7 13.35 -10.1 13.0 -10.1 12.85 -10.05 12.6 -10.0 12.4 -10.0 12.35 -10.0 12.25 -10.0 12.15 -10.0 12.1 -9.85 11.9 -9.8 11.9 -8.3 9.6 -7.0 8.2 -6.65 8.4 -6.5 8.4 -6.4 8.4 -4.65 8.55 -4.5 8.6 -4.1 8.65 -3.75 8.7 -2.1 8.5 0.95 8.7 4.9 8.35 Q6.15 8.2 6.8 8.35 L7.05 8.4 7.15 8.4 7.25 8.45 7.9 9.15 7.95 9.15 8.05 9.25 8.05 9.35 8.1 9.4 8.1 9.45 8.2 9.55 8.55 10.0 8.75 10.2 Q10.15 11.6 10.5 12.45 L10.65 12.6 10.8 12.75 10.85 12.8 10.9 12.9 M-12.1 1.55 L-12.35 1.95 -12.35 1.9 -12.1 1.55 M-13.25 3.4 L-13.35 3.55 -13.4 3.55 -13.25 3.4 M-8.6 13.0 L-10.1 13.0 -8.6 13.0 M-5.55 13.0 L-6.65 13.0 -5.55 13.0 M-3.5 13.0 L-4.85 13.0 -3.5 13.0 M-2.55 13.0 L-3.35 13.0 -2.55 13.0 M-1.15 13.0 L-2.0 13.0 -1.15 13.0 M0.15 13.0 L-1.0 13.0 0.15 13.0 M1.3 13.0 L0.5 13.0 1.3 13.0 M2.6 13.0 L1.7 13.0 2.6 13.0 M3.95 13.0 L3.05 13.0 3.95 13.0 M10.8 12.75 L10.65 13.0 7.85 13.0 10.65 13.0 10.8 12.75 M6.25 9.1 L5.15 9.2 6.35 9.15 6.25 9.1" fill="#626262" fill-rule="evenodd" stroke="none"/>
    <path d="M4.2 -12.75 L4.4 -12.75 4.5 -12.6 Q4.85 -12.9 4.9 -12.25 5.1 -12.2 5.1 -11.75 L5.1 -11.55 5.25 -11.3 5.45 -11.2 5.5 -11.1 5.55 -11.05 5.55 -10.95 5.55 -10.85 5.55 -10.8 5.6 -10.7 5.6 -10.65 10.8 -1.6 11.35 -0.65 11.6 -0.2 11.65 -0.15 11.65 -0.1 11.7 -0.05 11.7 0.0 11.75 0.05 11.8 0.1 11.85 0.2 11.85 0.25 13.3 2.7 13.45 2.7 13.75 2.8 13.9 2.9 14.0 2.95 14.1 3.0 14.15 3.1 14.15 3.15 14.2 3.25 14.2 3.35 14.2 3.4 14.25 3.5 14.25 3.6 14.4 3.65 14.35 3.7 14.35 3.8 14.3 3.85 14.25 3.95 14.25 4.05 14.25 4.15 14.25 4.25 14.25 4.3 14.25 4.4 14.95 5.6 14.95 5.65 14.8 5.45 14.75 5.4 14.3 5.35 13.7 5.2 12.3 4.95 11.8 4.8 10.95 4.75 10.5 4.55 10.15 4.8 9.85 4.9 9.55 4.5 9.65 4.3 9.65 4.2 8.9 2.9 7.45 0.5 7.2 0.1 6.5 -0.8 5.05 -3.5 4.45 -4.4 2.85 -7.1 2.85 -7.2 2.85 -7.3 2.85 -7.35 Q2.4 -7.35 2.55 -7.8 L3.35 -10.45 3.9 -11.75 4.25 -12.4 4.25 -12.5 4.25 -12.65 4.2 -12.7 4.2 -12.75 M-10.6 12.55 L-10.7 12.45 -11.1 12.1 -11.3 11.75 -11.5 11.3 -11.65 10.95 -11.8 10.6 -11.85 10.55 -11.85 10.45 -11.9 10.4 -12.0 10.3 -12.1 10.15 -12.1 10.0 -12.2 9.85 -12.3 9.7 -12.3 9.65 -12.3 9.6 -12.4 9.2 -12.45 9.0 -12.55 8.75 -12.55 8.7 -12.55 8.6 -12.6 8.55 -12.65 8.4 -12.7 8.2 -12.75 8.15 -12.75 8.0 -12.8 7.95 -12.8 7.85 -12.85 7.75 -12.9 7.7 -13.0 7.6 -13.3 7.4 -13.6 7.3 -13.55 7.25 -13.55 7.15 -13.5 7.05 -13.5 7.0 -13.5 6.9 -13.5 6.85 -13.55 6.75 -13.55 6.7 -13.6 6.6 -13.65 6.55 -13.65 6.45 -13.95 6.1 -14.25 5.75 -14.4 5.5 -14.45 5.45 -14.5 5.45 -14.5 5.4 -14.45 5.3 -14.4 5.25 -14.35 5.2 -14.3 5.2 -14.2 5.0 -14.0 4.95 -13.9 4.95 -13.7 4.9 -13.55 4.95 -13.5 4.95 Q-14.2 5.2 -14.2 5.4 -14.25 5.85 -13.75 5.85 L-13.5 5.75 -12.4 5.6 -11.25 5.35 -9.25 5.1 -9.2 5.1 -9.1 5.15 -9.0 5.2 -8.95 5.2 -8.7 5.4 -8.55 5.6 -7.95 6.7 -7.0 8.2 -8.3 9.6 -9.8 11.9 -9.85 11.9 -10.0 12.1 -10.0 12.15 -10.05 12.2 -10.1 12.3 -10.15 12.3 -10.2 12.4 -10.25 12.4 -10.25 12.45 -10.25 12.5 -10.35 12.6 -10.45 12.65 -10.45 12.7 -10.6 12.55 -12.3 9.65 -10.6 12.55 M5.6 -10.65 L5.25 -11.3 5.6 -10.65 M5.1 -11.55 L4.5 -12.6 5.1 -11.55 M11.7 -0.05 L11.7 0.0 11.7 -0.05 M11.65 -0.15 L11.65 -0.1 11.65 -0.15 M-14.45 5.45 L-14.3 5.2 -14.45 5.45 M13.3 2.7 L14.25 4.4 13.3 2.7 M11.8 0.1 L11.85 0.25 11.8 0.1" fill="#333333" fill-rule="evenodd" stroke="none"/>
    <path d="M2.85 -7.3 L2.85 -7.2 2.85 -7.1 4.45 -4.4 5.05 -3.5 6.5 -0.8 7.2 0.1 7.45 0.5 8.9 2.9 9.65 4.2 9.65 4.3 9.55 4.5 9.45 4.75 9.45 4.8 8.7 6.15 7.8 7.65 7.25 8.45 7.15 8.4 7.05 8.4 6.8 8.35 Q6.15 8.2 4.9 8.35 L0.95 8.7 -2.1 8.5 -3.75 8.7 -4.1 8.65 -4.5 8.6 -4.65 8.55 -6.4 8.4 -6.5 8.4 -6.65 8.4 -7.0 8.2 -7.95 6.7 -8.55 5.6 -8.7 5.4 -8.95 5.2 -9.05 5.1 -9.05 5.05 -8.95 5.0 -8.8 4.95 -8.8 4.8 Q-8.75 4.35 -8.5 4.4 L-7.45 2.95 -7.0 2.15 -7.0 1.95 Q-5.6 0.1 -2.05 -6.8 L-1.95 -6.9 -1.85 -6.95 -1.75 -7.05 -1.65 -7.1 -1.45 -7.35 -1.4 -7.35 Q-1.15 -7.35 -1.0 -7.5 L-0.1 -7.5 1.85 -7.5 2.85 -7.3 M6.25 9.1 L6.35 9.15 5.15 9.2 6.25 9.1" fill="#525252" fill-rule="evenodd" stroke="none"/>
    <path d="M-14.5 5.45 L-14.65 5.3 -15.1 4.8 -15.1 4.7 -14.95 4.55 -14.9 4.5 -14.65 4.35 -14.65 4.3 -14.2 4.25 -14.15 4.15 -14.1 4.1 -14.0 4.05 -13.95 3.95 -13.75 3.85 -13.55 3.8 -13.5 3.7 -13.5 3.65 -13.45 3.6 -13.4 3.55 -13.35 3.55 -13.25 3.4 -13.15 3.3 -13.1 3.2 -12.5 2.15 -12.35 1.95 -12.1 1.55 -11.5 0.7 -11.4 0.45 -10.1 -1.25 -9.95 -1.5 -9.95 -1.55 -9.9 -1.6 -9.85 -1.7 -9.75 -1.75 -9.75 -1.85 -9.75 -1.95 -9.75 -2.0 -9.7 -2.1 -9.65 -2.15 Q-8.8 -3.45 -8.15 -4.9 L-7.45 -6.4 -6.85 -7.7 -6.6 -8.4 -6.55 -8.5 -6.5 -8.55 -6.45 -8.65 -6.35 -8.8 -6.3 -8.9 -6.3 -9.0 -6.25 -9.1 -6.2 -9.25 -6.15 -9.45 -6.05 -9.5 -6.05 -9.55 -6.05 -9.65 -6.0 -9.7 -5.85 -9.9 -5.65 -10.1 -5.45 -10.35 -5.4 -10.4 -5.4 -10.5 -5.4 -10.6 -5.35 -10.65 -5.35 -10.75 -5.2 -10.85 -5.0 -11.1 -4.9 -11.2 -4.85 -11.3 -4.8 -11.3 -4.9 -11.4 -4.9 -11.5 -4.95 -11.55 -5.0 -11.65 -5.0 -11.75 -5.0 -11.8 -5.0 -11.9 -5.0 -12.0 -4.85 -12.15 -4.8 -12.2 -4.2 -12.3 -4.45 -12.9 Q-4.45 -14.1 -3.85 -13.15 L-3.95 -12.75 -3.95 -12.65 -2.8 -10.0 Q-1.8 -7.6 -1.45 -7.35 L-1.65 -7.1 -1.75 -7.05 -1.85 -6.95 -1.95 -6.9 -2.05 -6.8 Q-5.6 0.1 -7.0 1.95 L-7.0 2.15 -7.45 2.95 -8.5 4.4 Q-8.75 4.35 -8.8 4.8 L-8.8 4.95 -8.95 5.0 -9.05 5.05 -9.2 5.1 -9.25 5.1 -11.25 5.35 -12.4 5.6 -13.5 5.75 -13.75 5.85 Q-14.25 5.85 -14.2 5.4 -14.2 5.2 -13.5 4.95 L-13.55 4.95 -13.7 4.9 -13.9 4.95 -14.0 4.95 -14.2 5.0 -14.3 5.2 -14.35 5.2 -14.4 5.25 -14.45 5.3 -14.5 5.4 -14.5 5.45 M-6.85 -7.7 L-4.8 -11.3 -4.2 -12.3 -3.95 -12.75 -4.2 -12.3 -4.8 -11.3 -6.85 -7.7 M-14.3 5.2 L-13.4 3.55 -14.3 5.2" fill="#acacac" fill-rule="evenodd" stroke="none"/>
    <path d="M14.95 5.65 L15.05 5.85 15.05 5.9 15.1 5.95 15.1 6.0 15.1 6.1 15.05 6.15 15.05 6.25 15.0 6.35 14.95 6.4 14.9 6.5 14.85 6.55 14.6 6.7 14.55 6.8 14.25 6.85 14.95 5.65 14.25 6.85 14.15 6.85 13.95 6.95 13.95 7.0 13.85 7.15 13.7 7.3 13.45 7.5 13.4 7.7 13.3 7.85 13.1 8.05 13.05 8.15 12.55 9.1 11.8 10.25 11.6 10.55 11.55 10.6 11.4 10.7 11.3 10.8 11.15 10.8 11.15 10.85 11.35 11.1 11.55 11.45 11.6 11.55 11.6 11.65 11.7 11.75 11.75 11.85 11.75 11.95 11.8 12.0 11.8 12.1 11.8 12.15 11.75 12.25 11.75 12.35 11.65 12.45 11.6 12.55 11.6 12.65 11.35 12.8 11.25 12.85 11.15 12.85 10.95 12.9 10.9 12.9 10.85 12.8 10.8 12.75 11.55 11.45 10.8 12.75 10.65 12.6 10.5 12.45 Q10.15 11.6 8.75 10.2 L8.55 10.0 8.2 9.55 8.1 9.45 8.1 9.4 8.05 9.35 8.05 9.25 7.95 9.15 7.9 9.15 7.25 8.45 7.8 7.65 8.7 6.15 9.45 4.8 9.45 4.75 9.55 4.5 9.85 4.9 10.15 4.8 10.5 4.55 10.95 4.75 11.8 4.8 12.3 4.95 13.7 5.2 14.3 5.35 14.75 5.4 14.8 5.45 14.95 5.65 M-9.05 5.05 L-9.05 5.1 -8.95 5.2 -9.0 5.2 -9.1 5.15 -9.2 5.1 -9.05 5.05 M-10.25 12.45 L-10.25 12.4 -10.2 12.4 -10.15 12.3 -10.1 12.3 -10.05 12.2 -10.0 12.15 -10.0 12.25 -10.0 12.35 -10.0 12.4 -10.05 12.6 -10.15 12.55 -10.25 12.45" fill="#000000" fill-rule="evenodd" stroke="none"/>
    <path d="M0.9 -12.75 L2.4 -12.75 4.2 -12.75 4.4 -12.75 4.5 -12.6 5.1 -11.55 5.25 -11.3 5.6 -10.65 10.8 -1.6 11.35 -0.65 11.6 -0.2 11.65 -0.15 11.65 -0.1 11.7 -0.05 11.7 0.0 11.75 0.05 11.8 0.1 11.85 0.25 13.3 2.7 14.25 4.4 14.95 5.6 14.95 5.65 14.25 6.85 11.55 11.45 10.8 12.75 10.65 13.0 7.85 13.0 3.95 13.0 3.05 13.0 2.6 13.0 1.7 13.0 1.3 13.0 0.5 13.0 0.15 13.0 -1.0 13.0 -1.15 13.0 -2.0 13.0 -2.55 13.0 -3.35 13.0 -3.5 13.0 -4.85 13.0 -5.55 13.0 -6.65 13.0 -8.6 13.0 -10.1 13.0 -10.35 13.0 -10.6 12.55 -12.3 9.65 -14.6 5.65 -14.45 5.45 -14.3 5.2 -13.4 3.55 -6.85 -7.7 -4.8 -11.3 -4.2 -12.3 -3.95 -12.75 -1.45 -12.75 -0.55 -12.75 -0.45 -12.75 0.9 -12.75 Z" fill="none" stroke="#000000" stroke-linecap="round" stroke-linejoin="round" stroke-width="2.0"/>
  </g>
</svg>
