<?xml version="1.0" encoding="UTF-8" standalone="no"?>
<svg xmlns:ffdec="https://www.free-decompiler.com/flash" xmlns:xlink="http://www.w3.org/1999/xlink" ffdec:objectType="shape" height="33.8px" width="33.85px" xmlns="http://www.w3.org/2000/svg">
  <g transform="matrix(1.0, 0.0, 0.0, 1.0, 16.85, 16.95)">
    <path d="M15.25 -0.1 L8.85 -0.1 -0.65 -9.6 -0.65 -15.25 -0.25 -15.6 -0.65 -15.25 -0.65 -16.05 -0.25 -15.6 15.25 -0.1" fill="#626262" fill-rule="evenodd" stroke="none"/>
    <path d="M8.85 -0.1 L15.25 -0.1 -0.25 15.5 -0.6 15.8 -0.6 15.15 -0.75 9.3 -0.6 9.4 8.85 -0.1 M-0.25 15.5 L-0.6 15.15 -0.25 15.5" fill="#000000" fill-rule="evenodd" stroke="none"/>
    <path d="M-0.65 -15.25 L-0.65 -9.6 -10.15 -0.15 -15.6 0.2 -15.85 -0.1 -0.65 -15.25 -15.85 -0.1 -15.6 0.2 -16.25 0.2 -16.55 -0.15 -0.65 -16.05 -0.65 -15.25" fill="#acacac" fill-rule="evenodd" stroke="none"/>
    <path d="M-0.65 -9.6 L8.85 -0.1 -0.6 9.4 -0.75 9.3 -10.15 -0.15 -0.65 -9.6" fill="#525252" fill-rule="evenodd" stroke="none"/>
    <path d="M-0.75 9.3 L-0.6 15.15 -15.6 0.2 -0.6 15.15 -0.6 15.8 -16.25 0.2 -15.6 0.2 -10.15 -0.15 -0.75 9.3" fill="#333333" fill-rule="evenodd" stroke="none"/>
    <path d="M-0.25 -15.6 L-0.65 -15.25 -15.85 -0.1 -15.6 0.2 -0.6 15.15 -0.25 15.5 0.1 15.85 16.0 0.0 0.05 -15.95 -0.25 -15.6 Z" fill="none" stroke="#000000" stroke-linecap="round" stroke-linejoin="round" stroke-width="2.0"/>
  </g>
</svg>
