<?xml version="1.0" encoding="UTF-8" standalone="no"?>
<svg xmlns:ffdec="https://www.free-decompiler.com/flash" xmlns:xlink="http://www.w3.org/1999/xlink" ffdec:objectType="shape" height="16.45px" width="24.9px" xmlns="http://www.w3.org/2000/svg">
  <g transform="matrix(1.0, 0.0, 0.0, 1.0, 11.85, 30.65)">
    <path d="M6.6 -25.55 L7.0 -25.3 8.1 -25.7 Q9.0 -25.7 9.3 -24.85 L9.45 -23.65 9.3 -23.0 Q9.15 -22.6 8.8 -22.6 L8.0 -23.05 7.85 -22.45 7.8 -21.9 7.95 -21.3 8.15 -20.85 Q8.15 -20.1 7.4 -20.05 L6.9 -19.95 6.65 -19.6 6.75 -19.25 6.85 -18.95 6.65 -18.25 6.45 -17.45 Q6.45 -16.55 5.65 -16.55 4.4 -16.55 3.95 -17.15 L3.75 -17.9 4.0 -18.7 Q4.35 -19.35 4.9 -19.45 L4.1 -20.5 3.85 -21.15 4.2 -22.1 Q4.7 -23.0 5.2 -23.05 L4.8 -23.65 4.75 -24.15 4.95 -24.75 5.4 -25.7 Q5.7 -26.6 6.2 -26.1 L6.6 -25.55 M0.55 -29.85 L0.75 -29.05 Q0.75 -28.4 0.15 -26.95 L-0.4 -25.7 -0.3 -25.2 -0.15 -24.7 -0.6 -23.75 -1.2 -23.05 Q-1.9 -23.05 -2.15 -24.3 L-2.25 -25.55 Q-2.25 -28.3 -0.45 -29.25 -0.45 -31.05 0.15 -30.5 L0.55 -29.85 M12.4 -14.2 Q11.8 -14.2 11.4 -14.95 L11.15 -15.7 Q11.15 -16.95 12.1 -16.35 L12.75 -15.75 13.05 -15.1 12.85 -14.45 12.4 -14.2 M-10.6 -26.3 Q-10.1 -26.6 -9.75 -26.15 -9.35 -25.65 -9.35 -24.3 L-9.4 -23.85 -9.55 -23.35 -8.9 -22.2 Q-8.75 -21.75 -8.75 -21.15 -8.75 -18.95 -9.75 -18.95 -10.65 -18.95 -11.3 -20.55 -11.85 -21.9 -11.85 -22.75 -11.85 -24.1 -11.45 -25.15 -11.1 -26.0 -10.6 -26.3 M-5.05 -28.15 Q-4.45 -28.95 -3.9 -27.4 L-3.45 -25.4 -3.75 -24.3 Q-4.15 -23.45 -4.65 -23.35 -4.85 -22.6 -5.35 -22.6 -6.0 -22.6 -5.95 -23.35 L-5.75 -24.1 -6.85 -27.4 -6.6 -28.15 -6.1 -28.5 Q-5.55 -28.6 -5.15 -28.0 L-5.05 -28.15" fill="#8adcff" fill-rule="evenodd" stroke="none"/>
  </g>
</svg>
