<?xml version="1.0" encoding="UTF-8" standalone="no"?>
<svg xmlns:ffdec="https://www.free-decompiler.com/flash" xmlns:xlink="http://www.w3.org/1999/xlink" ffdec:objectType="shape" height="23.3px" width="7.9px" xmlns="http://www.w3.org/2000/svg">
  <g transform="matrix(1.0, 0.0, 0.0, 1.0, 5.6, 24.7)">
    <path d="M0.4 -4.2 L0.7 -2.35 Q0.7 -1.8 0.35 -1.55 L-0.3 -1.45 -1.0 -1.95 -1.2 -2.45 -1.45 -2.6 -2.9 -4.2 -4.15 -6.8 -4.85 -9.3 -5.45 -12.0 -5.45 -12.2 -5.45 -12.3 -5.25 -13.4 -5.2 -13.7 -5.15 -14.5 -5.35 -14.85 -5.6 -15.35 -5.1 -16.85 -4.4 -18.7 -3.9 -19.85 Q-2.55 -22.9 -1.6 -23.75 L-1.65 -24.1 -1.4 -24.5 -0.75 -24.7 Q0.45 -24.7 1.5 -21.25 L2.15 -18.7 2.3 -17.8 Q2.3 -14.7 1.2 -10.15 L0.45 -7.2 0.15 -5.7 0.4 -4.2" fill="#00b3ff" fill-rule="evenodd" stroke="none"/>
  </g>
</svg>
