<?xml version="1.0" encoding="UTF-8" standalone="no"?>
<svg xmlns:ffdec="https://www.free-decompiler.com/flash" xmlns:xlink="http://www.w3.org/1999/xlink" ffdec:objectType="shape" height="26.9px" width="26.0px" xmlns="http://www.w3.org/2000/svg">
  <g transform="matrix(1.0, 0.0, 0.0, 1.0, 13.05, 12.6)">
    <path d="M8.0 2.5 L8.1 2.45 7.9 3.25 Q7.05 6.55 4.8 8.1 L4.35 8.35 4.65 7.95 6.1 6.2 Q7.65 4.45 8.0 2.5 M4.05 8.55 Q0.45 10.45 -2.2 8.9 L-1.4 8.8 0.35 8.9 0.4 8.85 0.7 8.8 Q2.6 9.3 4.05 8.4 L4.05 8.55" fill="#ff0000" fill-rule="evenodd" stroke="none"/>
    <path d="M0.3 -6.85 L0.6 -7.0 0.9 -6.6 0.3 -6.85 M4.65 -4.85 L4.9 -4.7 4.75 -4.55 4.65 -4.85 M5.45 -4.25 L5.9 -3.85 5.7 -3.8 5.45 -4.25 M0.7 8.8 L2.65 8.05 3.2 7.75 Q3.7 8.1 4.35 7.75 L4.1 8.25 4.05 8.4 Q2.6 9.3 0.7 8.8 M4.65 7.95 L5.6 6.7 6.1 6.2 4.65 7.95" fill="#e10000" fill-rule="evenodd" stroke="none"/>
    <path d="M-3.15 8.25 L-3.05 8.1 Q-4.05 7.95 -4.5 7.25 L-4.2 6.9 -3.35 7.0 -3.45 6.6 -3.65 6.55 -3.5 6.4 -3.65 5.15 -3.65 3.6 -3.8 3.15 -3.85 2.75 Q-3.9 0.65 -3.05 -1.1 L-2.6 -2.05 Q-0.8 -4.6 1.8 -5.95 L1.35 -6.3 3.85 -5.3 3.85 -3.55 Q3.4 -3.35 3.6 -2.7 L3.45 -2.15 Q4.05 1.15 1.8 4.25 1.45 5.85 0.05 7.65 -0.7 8.55 -1.4 8.8 L-2.2 8.9 -3.25 8.45 -3.15 8.25" fill="#009900" fill-rule="evenodd" stroke="none"/>
    <path d="M0.3 -6.85 L0.9 -6.6 0.6 -7.0 0.3 -6.85 M-3.15 8.25 L-3.2 8.2 -4.45 8.85 Q-5.8 9.15 -6.5 7.8 L-6.85 7.15 -7.7 6.35 Q-10.3 2.5 -8.35 -0.6 L-8.05 -0.55 -7.9 -1.4 Q-6.95 -5.45 -3.15 -6.65 L-2.35 -7.15 -0.8 -7.95 1.55 -7.6 1.95 -7.75 Q9.55 -4.9 8.1 2.45 L8.0 2.5 Q8.35 0.55 7.4 -1.55 L6.5 -3.2 6.0 -3.85 5.9 -3.85 5.45 -4.25 5.05 -4.85 4.9 -4.7 4.65 -4.85 4.45 -5.45 4.3 -5.35 4.05 -5.8 Q3.8 -5.8 3.8 -5.6 L3.85 -5.3 1.35 -6.3 1.8 -5.95 Q-0.8 -4.6 -2.6 -2.05 L-3.05 -1.1 Q-3.9 0.65 -3.85 2.75 L-3.8 3.15 -3.65 3.6 -3.65 5.15 -3.5 6.4 -3.65 6.55 -3.45 6.6 -3.35 7.0 -4.2 6.9 -4.5 7.25 Q-4.05 7.95 -3.05 8.1 L-3.15 8.25" fill="#00bb00" fill-rule="evenodd" stroke="none"/>
    <path d="M3.85 -5.3 L3.8 -5.6 Q3.8 -5.8 4.05 -5.8 L4.3 -5.35 4.45 -5.45 4.65 -4.85 4.75 -4.55 4.9 -4.7 5.05 -4.85 5.45 -4.25 5.7 -3.8 5.9 -3.85 6.0 -3.85 6.5 -3.2 7.4 -1.55 Q8.35 0.55 8.0 2.5 7.65 4.45 6.1 6.2 L5.6 6.7 4.65 7.95 4.35 8.35 4.3 8.4 4.2 8.5 Q3.95 8.8 4.05 8.55 L4.05 8.4 4.1 8.25 4.35 7.75 Q3.7 8.1 3.2 7.75 L2.65 8.05 0.7 8.8 0.4 8.85 0.35 8.9 -1.4 8.8 Q-0.7 8.55 0.05 7.65 1.45 5.85 1.8 4.25 4.05 1.15 3.45 -2.15 L3.6 -2.7 Q3.4 -3.35 3.85 -3.55 L3.85 -5.3" fill="#007500" fill-rule="evenodd" stroke="none"/>
    <path d="M11.95 0.65 L11.25 -1.6 Q11.15 -3.0 10.65 -4.4 12.05 -2.05 11.95 0.65 M8.65 -6.9 L8.35 -6.7 7.95 -7.35 7.7 -7.25 7.75 -7.05 7.0 -7.95 Q5.45 -6.4 6.65 -3.45 6.85 -2.85 7.1 -2.95 L7.45 -3.05 7.65 -1.15 5.55 -3.65 Q5.15 -6.05 0.6 -6.75 L-1.0 -7.35 -1.85 -6.75 -2.05 -6.6 -3.1 -6.6 -4.4 -6.0 -4.2 -6.45 3.55 -8.45 3.9 -8.4 Q4.25 -8.35 4.25 -8.55 L4.25 -8.65 4.3 -8.75 4.7 -9.4 5.05 -9.5 Q7.2 -8.3 8.65 -6.9 M2.85 11.4 L4.6 10.7 4.7 10.75 2.85 11.4 M5.2 6.6 L5.35 6.25 5.65 6.0 5.65 6.05 5.2 6.6 M0.0 9.15 L-0.65 9.3 -0.6 9.2 0.15 8.55 0.8 8.45 2.25 8.2 2.15 8.25 Q1.0 8.65 0.0 9.15 M-1.55 9.65 Q-3.2 10.35 -4.05 11.55 L-3.95 11.65 -3.6 11.75 -3.85 11.95 Q-3.15 12.8 -2.15 12.85 -4.0 13.3 -5.1 12.4 L-4.75 12.95 Q-6.75 12.85 -7.35 11.85 -11.85 9.8 -11.4 5.3 -12.35 4.15 -12.45 2.2 -12.65 -0.9 -11.45 -3.15 L-11.45 -3.1 Q-12.0 -1.45 -12.1 0.5 -12.2 1.4 -11.7 0.7 L-11.35 0.3 Q-12.0 4.45 -9.75 9.15 -8.95 10.8 -8.45 9.2 -8.15 8.15 -8.3 6.85 -8.65 4.25 -9.25 2.0 -8.75 0.15 -7.8 -1.45 L-7.95 -0.4 Q-7.8 0.45 -7.95 1.5 L-7.35 2.45 Q-8.25 4.45 -5.15 6.95 L-4.5 7.35 -3.05 8.95 -2.75 9.2 -2.1 9.7 -1.55 9.65 M-2.95 -11.0 L-2.35 -11.25 0.45 -11.1 -0.95 -11.05 -2.7 -10.75 -2.95 -11.0" fill="#ffcc00" fill-rule="evenodd" stroke="none"/>
    <path d="M4.7 -9.4 L4.3 -8.75 4.25 -8.65 4.25 -8.55 Q4.25 -8.35 3.9 -8.4 L3.55 -8.45 -4.2 -6.45 -4.4 -6.0 -4.6 -5.8 -4.7 -5.7 Q-6.75 -4.85 -7.1 -2.45 L-7.8 -1.45 Q-8.75 0.15 -9.25 2.0 -8.65 4.25 -8.3 6.85 -8.15 8.15 -8.45 9.2 -8.95 10.8 -9.75 9.15 -12.0 4.45 -11.35 0.3 L-8.6 -3.6 Q-7.35 -5.4 -7.0 -6.85 L-7.0 -6.9 Q-6.35 -6.8 -5.45 -7.2 -1.5 -9.2 -2.7 -10.75 L-0.95 -11.05 0.45 -11.1 2.0 -10.75 Q5.55 -11.15 4.7 -9.4 M-6.65 -9.8 L-6.4 -10.1 -6.35 -9.95 -6.6 -9.7 -6.65 -9.8" fill="#ffd222" fill-rule="evenodd" stroke="none"/>
    <path d="M-11.45 -3.15 L-11.45 -3.2 -11.45 -3.55 Q-10.85 -8.2 -6.8 -10.1 L-6.65 -9.8 -6.6 -9.7 -6.35 -9.95 Q-5.3 -10.85 -3.75 -11.35 L-3.5 -11.45 -2.95 -11.0 -2.7 -10.75 Q-1.5 -9.2 -5.45 -7.2 -6.35 -6.8 -7.0 -6.9 L-7.0 -6.85 Q-7.35 -5.4 -8.6 -3.6 L-11.35 0.3 -11.7 0.7 Q-12.2 1.4 -12.1 0.5 -12.0 -1.45 -11.45 -3.1 L-11.45 -3.15" fill="#ffdd55" fill-rule="evenodd" stroke="none"/>
    <path d="M9.2 -6.45 L9.3 -7.0 10.0 -5.5 10.1 -5.8 10.65 -4.4 Q11.15 -3.0 11.25 -1.6 L11.95 0.65 12.05 1.5 12.15 3.45 12.4 3.1 12.6 3.4 Q11.7 4.8 12.05 7.05 L12.05 7.4 10.7 8.95 9.9 9.7 Q9.0 9.95 8.25 10.5 L5.7 12.1 7.0 11.0 8.9 9.2 9.4 8.8 10.0 8.0 Q12.2 5.15 11.55 2.55 11.75 0.0 10.5 -2.55 10.5 -3.35 10.0 -4.1 10.5 -4.9 9.2 -6.45 M0.6 13.75 L0.25 13.8 0.1 13.8 -0.7 13.8 -0.85 13.8 Q-3.55 14.4 -4.75 12.95 L-5.1 12.4 Q-4.0 13.3 -2.15 12.85 L-0.95 12.6 -0.8 12.6 Q-0.2 13.45 0.6 13.75" fill="#dfb300" fill-rule="evenodd" stroke="none"/>
    <path d="M10.5 -2.55 Q11.75 0.0 11.55 2.55 12.2 5.15 10.0 8.0 L9.4 8.8 8.9 9.2 7.0 11.0 5.7 12.1 4.0 12.75 1.9 13.65 1.5 13.9 0.6 13.75 Q-0.2 13.45 -0.8 12.6 L-0.25 12.4 Q0.65 12.55 1.75 11.8 L1.85 11.75 2.75 11.4 2.85 11.4 4.7 10.75 Q5.45 11.15 6.35 10.25 8.85 7.9 9.35 5.5 10.65 2.1 10.0 -0.8 10.5 -1.75 10.5 -2.55" fill="#d5aa00" fill-rule="evenodd" stroke="none"/>
    <path d="M9.2 -6.45 Q10.5 -4.9 10.0 -4.1 10.5 -3.35 10.5 -2.55 10.5 -1.75 10.0 -0.8 10.65 2.1 9.35 5.5 8.85 7.9 6.35 10.25 5.45 11.15 4.7 10.75 L4.6 10.7 2.85 11.4 4.15 10.7 Q6.15 9.8 7.7 7.2 9.3 4.6 8.95 2.65 9.95 -0.05 9.6 -2.75 L9.3 -4.25 8.35 -6.7 8.65 -6.9 8.75 -7.0 9.2 -6.45 M7.3 3.65 L7.55 2.75 7.45 3.3 7.3 3.65 M4.55 7.25 L3.9 7.85 Q1.9 8.6 0.2 9.55 L0.0 9.15 Q1.0 8.65 2.15 8.25 L2.25 8.2 4.55 7.25 M-3.6 11.75 L-3.35 11.75 -3.65 11.95 -3.35 12.25 Q-0.9 12.7 1.65 11.8 L1.85 11.75 1.75 11.8 Q0.65 12.55 -0.25 12.4 L-0.8 12.6 -0.95 12.6 -2.15 12.85 Q-3.15 12.8 -3.85 11.95 L-3.6 11.75" fill="#e1b500" fill-rule="evenodd" stroke="none"/>
    <path d="M8.35 -6.7 L9.3 -4.25 9.6 -2.75 Q9.95 -0.05 8.95 2.65 9.3 4.6 7.7 7.2 6.15 9.8 4.15 10.7 L2.85 11.4 2.75 11.4 1.85 11.75 1.65 11.8 Q-0.9 12.7 -3.35 12.25 L-3.65 11.95 -3.35 11.75 -3.6 11.75 -3.95 11.65 -4.05 11.55 Q-3.2 10.35 -1.55 9.65 L-0.65 9.3 0.0 9.15 0.2 9.55 Q1.9 8.6 3.9 7.85 L4.55 7.25 5.2 6.6 5.65 6.05 7.3 3.65 7.45 3.3 7.55 2.75 7.7 -0.4 7.65 -1.15 7.45 -3.05 7.1 -2.95 Q6.85 -2.85 6.65 -3.45 5.45 -6.4 7.0 -7.95 L7.75 -7.05 7.7 -7.25 7.95 -7.35 8.35 -6.7" fill="#f0c000" fill-rule="evenodd" stroke="none"/>
    <path d="M6.35 -4.0 L6.8 -3.35 7.35 -2.4 Q9.2 1.5 7.55 5.5 L6.3 6.85 Q0.65 11.65 -5.65 7.75 -6.65 7.15 -7.15 6.0 -10.3 -1.0 -5.25 -6.15 -4.2 -7.15 -2.75 -7.5 L-1.65 -7.8 Q1.35 -7.6 3.45 -6.55 L4.2 -6.1 6.35 -4.0 M5.55 -3.35 L5.15 -4.0 Q4.5 -5.0 3.45 -5.75 1.5 -6.9 -1.7 -6.7 -8.5 -5.05 -7.7 2.35 -7.2 6.65 -3.1 7.9 1.5 9.4 5.2 6.4 L6.2 5.5 7.25 3.75 7.5 2.7 Q7.2 -0.5 5.55 -3.35 M8.05 -6.7 Q7.0 -8.25 5.4 -9.4 2.35 -11.2 -2.7 -10.95 -13.25 -8.3 -11.95 3.2 -11.2 9.85 -4.85 11.85 2.35 14.15 8.1 9.5 L9.7 8.05 11.35 5.3 11.7 3.75 Q11.25 -1.25 8.65 -5.75 L8.05 -6.7 M6.5 -9.95 Q8.5 -8.4 9.9 -6.7 L10.6 -5.75 11.45 -4.2 Q14.3 1.85 11.75 8.05 L9.8 10.2 Q1.0 17.65 -8.75 11.6 -10.35 10.65 -11.15 8.9 -16.05 -2.0 -8.2 -10.1 -6.55 -11.65 -4.25 -12.2 L-2.5 -12.6 Q2.15 -12.3 5.4 -10.7 L6.5 -9.95" fill="#000000" fill-rule="evenodd" stroke="none"/>
    <path d="M1.9 -5.0 L-2.9 -4.7 Q-3.4 -4.15 -4.25 -3.5 -5.6 -2.5 -6.3 -1.1 L-6.4 0.25 -6.65 2.6 -5.2 5.7 Q-3.1 7.7 -0.45 8.8 3.05 7.4 5.8 4.8 6.95 2.15 6.05 -1.1 4.75 -3.1 2.9 -4.55 L2.45 -4.95 1.9 -5.0 M3.3 -6.8 Q6.85 -5.1 7.6 -1.25 9.05 1.6 8.0 4.35 8.15 6.6 4.75 8.65 L2.3 9.7 2.5 9.75 Q2.85 9.8 2.1 9.95 -2.7 10.8 -4.95 8.3 L-5.5 7.85 -7.1 6.3 -7.55 5.9 Q-10.1 1.0 -8.5 -3.35 L-7.75 -4.95 -7.0 -6.2 -6.9 -6.05 Q-5.8 -7.2 -4.25 -7.55 L-3.9 -7.5 Q-3.3 -8.05 -2.35 -8.15 2.15 -8.6 2.45 -7.35 L3.3 -6.8" fill="#000000" fill-opacity="0.5529412" fill-rule="evenodd" stroke="none"/>
  </g>
</svg>
