<?xml version="1.0" encoding="UTF-8" standalone="no"?>
<svg xmlns:ffdec="https://www.free-decompiler.com/flash" xmlns:xlink="http://www.w3.org/1999/xlink" ffdec:objectType="shape" height="5.95px" width="5.6px" xmlns="http://www.w3.org/2000/svg">
  <g transform="matrix(1.0, 0.0, 0.0, 1.0, 2.8, 3.0)">
    <path d="M1.95 -1.9 L2.1 -1.65 1.9 -1.9 1.95 -1.9" fill="#66ff00" fill-rule="evenodd" stroke="none"/>
    <path d="M1.9 -1.9 L1.95 -1.9 1.9 -1.9" fill="#8300ae" fill-rule="evenodd" stroke="none"/>
    <path d="M1.15 -2.35 L1.15 -2.3 1.1 -2.35 1.15 -2.35" fill="#339900" fill-rule="evenodd" stroke="none"/>
    <path d="M-2.7 0.45 L-2.8 -0.3 -2.6 -0.9 Q-2.3 -3.35 -0.1 -2.95 1.3 -2.7 1.95 -1.9 L1.9 -1.9 Q1.35 -2.5 1.15 -2.35 L1.1 -2.35 Q0.3 -3.0 0.3 -1.8 L0.15 -0.75 Q-0.2 0.4 -1.25 0.4 L-2.35 0.2 -2.7 0.4 -2.7 0.45" fill="#be00fd" fill-rule="evenodd" stroke="none"/>
    <path d="M-2.7 1.05 L-2.8 0.65 -2.7 0.45 -2.7 0.4 -2.35 0.2 -1.25 0.4 Q-0.2 0.4 0.15 -0.75 L0.3 -1.8 Q0.3 -3.0 1.1 -2.35 L1.15 -2.3 Q1.95 -1.6 1.95 -0.4 L1.4 1.0 Q1.2 1.85 0.7 1.85 L0.65 1.85 -0.55 2.2 Q-1.55 2.2 -2.25 1.6 L-2.7 1.05" fill="#9900cc" fill-rule="evenodd" stroke="none"/>
    <path d="M2.1 -1.65 L2.35 -1.25 2.8 0.1 2.7 0.95 2.6 1.6 2.45 1.9 1.55 2.65 1.0 2.85 -0.3 2.95 Q-2.4 2.95 -2.05 2.35 L-2.5 2.0 -2.8 1.4 -2.7 1.05 -2.25 1.6 Q-1.55 2.2 -0.55 2.2 L0.65 1.85 0.7 1.85 Q1.2 1.85 1.4 1.0 L1.95 -0.4 Q1.95 -1.6 1.15 -2.3 L1.15 -2.35 Q1.35 -2.5 1.9 -1.9 L2.1 -1.65" fill="#8900b7" fill-rule="evenodd" stroke="none"/>
  </g>
</svg>
