<?xml version="1.0" encoding="UTF-8" standalone="no"?>
<svg xmlns:ffdec="https://www.free-decompiler.com/flash" xmlns:xlink="http://www.w3.org/1999/xlink" ffdec:objectType="shape" height="32.95px" width="11.15px" xmlns="http://www.w3.org/2000/svg">
  <g transform="matrix(1.0, 0.0, 0.0, 1.0, 5.5, 16.6)">
    <path d="M1.0 -15.55 L0.8 -15.55 0.7 -15.5 0.55 -15.6 1.0 -15.55 M-2.0 -9.4 L-2.05 -9.45 -2.25 -9.5 -2.5 -9.5 -2.75 -9.45 -2.9 -9.35 -2.95 -9.25 -2.95 -9.15 -3.0 -9.05 -3.0 -9.0 -3.0 -8.9 -2.95 -8.8 -2.9 -8.7 -3.0 -8.7 -3.15 -8.9 -3.15 -9.15 -3.6 -11.25 -3.65 -11.4 -3.0 -13.0 -2.8 -13.3 -2.55 -13.5 -1.65 -14.15 -0.5 -14.35 -0.5 -14.15 Q-0.5 -12.3 -0.9 -11.4 L-0.95 -11.25 Q-1.35 -10.15 -2.0 -9.4 M-2.6 -6.85 L-2.5 -6.85 -2.4 -6.85 -2.25 -6.7 -2.2 -6.6 -2.2 -6.5 -2.15 -6.4 -2.0 -6.3 -1.75 -6.25 -1.65 -6.25 -1.55 -6.25 -1.5 -6.2 -1.5 -6.1 -1.5 -6.0 -1.5 -5.9 -1.5 -5.8 -1.5 -5.75 -1.5 -5.65 -1.5 -5.55 -1.5 -5.45 -1.5 -5.35 -1.5 -5.25 -1.5 -5.15 -1.5 -5.05 -1.5 -5.0 -1.5 -4.9 -1.5 -4.8 -1.5 -4.7 -1.5 -4.6 -1.5 -4.5 -1.5 -4.4 -1.5 -4.3 -1.5 -4.25 -1.5 -4.15 -1.5 -3.95 -1.55 -3.85 -1.55 -3.75 -1.55 -3.65 -1.55 -3.6 -1.8 -5.45 -2.0 -6.15 -2.5 -6.35 -2.5 -6.65 -2.6 -6.8 -2.6 -6.85 M-1.9 7.15 L-1.85 7.25 -1.8 7.35 -1.65 7.45 -1.65 7.55 -1.6 7.65 -1.55 7.75 -1.4 7.85 -1.15 7.9 -1.0 7.9 -0.9 7.95 -0.9 8.0 -0.9 8.1 -0.9 8.2 -0.9 8.3 -0.9 8.4 -0.9 8.5 -0.9 8.6 -0.9 8.7 -0.9 8.75 -0.9 8.85 -0.9 8.95 -0.9 9.05 -0.85 9.15 -0.8 9.25 -0.65 9.35 -0.45 9.4 -0.5 11.25 -0.5 11.45 -0.5 13.45 -0.55 13.9 -0.85 13.85 Q-1.0 13.85 -1.25 14.0 L-1.55 13.75 -1.55 14.1 -1.4 14.1 -1.9 14.2 -1.9 7.15 M1.4 -15.4 L1.35 -15.45 1.5 -15.4 1.4 -15.4 M1.6 -15.35 L3.35 -13.9 3.0 -14.2 2.45 -14.8 1.85 -15.2 1.6 -15.35 M1.3 -5.9 L1.35 -5.85 1.3 -5.75 1.25 -5.85 1.25 -5.9 1.3 -5.9 M3.45 -8.9 L3.5 -8.95 3.6 -8.9 3.5 -8.7 3.35 -8.65 3.45 -8.9" fill="#ffcc33" fill-rule="evenodd" stroke="none"/>
    <path d="M1.6 -11.95 L1.6 -11.9 1.65 -11.8 1.7 -11.7 1.75 -11.65 1.7 -11.55 1.6 -11.5 1.6 -11.4 1.6 -11.3 1.6 -11.2 1.6 -11.1 1.55 -11.0 1.55 -10.9 1.55 -10.8 1.5 -10.75 1.5 -10.65 1.5 -10.55 1.45 -10.45 1.4 -10.35 1.35 -10.25 1.3 -10.15 1.3 -10.05 1.2 -10.0 1.15 -9.9 1.1 -9.8 1.1 -9.7 1.05 -9.6 1.05 -9.5 0.95 -9.4 0.85 -9.3 0.8 -9.25 0.65 -9.15 0.6 -9.05 0.5 -8.95 0.35 -8.85 0.2 -8.85 0.55 -9.4 Q1.25 -9.55 1.5 -11.25 L1.55 -11.75 1.6 -11.95 M-2.4 -6.85 L-2.3 -6.9 -2.25 -6.9 -2.25 -6.8 -2.25 -6.7 -2.4 -6.85 M-0.45 9.4 L-0.4 9.4 -0.2 9.35 -0.05 9.25 0.0 9.15 0.05 9.05 0.1 8.95 0.1 8.85 0.1 8.75 0.1 8.7 0.1 8.6 0.1 8.5 0.2 8.4 0.2 8.3 0.25 8.2 0.25 8.1 0.25 8.0 0.25 7.95 0.25 7.85 0.25 7.75 0.25 7.65 0.3 7.55 0.3 7.45 0.3 7.35 0.3 7.25 0.3 7.2 0.35 7.1 0.35 7.0 0.35 6.9 0.35 6.8 0.35 6.7 0.35 6.6 0.35 6.5 0.35 6.45 0.35 6.35 0.35 6.25 0.35 6.15 0.35 6.05 0.35 5.95 0.35 5.85 0.35 5.75 0.35 5.7 0.35 5.6 0.35 5.5 0.35 5.4 0.35 5.3 0.35 5.2 0.35 5.1 0.35 5.0 0.4 4.95 0.45 4.85 0.6 4.75 0.65 4.65 0.7 4.55 0.75 4.45 0.75 4.35 0.75 4.25 0.75 4.2 0.75 4.1 0.75 4.0 0.75 3.9 0.75 3.8 0.75 3.7 0.75 3.6 0.75 3.5 0.75 3.45 0.75 3.35 0.75 3.25 0.75 3.15 0.8 3.05 0.8 2.95 0.8 2.85 0.8 2.75 0.8 2.7 0.85 2.6 0.85 2.5 0.85 2.4 0.85 2.3 0.85 2.2 0.85 2.1 0.85 1.95 0.85 1.85 0.9 1.75 0.9 1.7 0.95 1.6 0.95 1.5 1.0 1.4 1.0 1.3 1.05 1.2 1.05 1.1 1.1 1.0 1.1 0.95 1.1 0.85 1.05 0.75 1.0 0.65 0.95 0.55 0.8 0.45 0.8 0.35 0.8 0.25 0.8 0.15 0.75 0.05 0.75 -0.05 0.75 -0.15 0.75 -0.25 0.75 -0.3 0.75 -0.4 0.75 -0.5 0.75 -0.6 0.75 -0.7 0.75 -0.8 0.75 -0.9 0.75 -0.95 0.75 -1.05 0.75 -1.15 0.75 -1.25 0.75 -1.3 0.75 -1.4 0.75 -1.5 0.75 -1.6 0.75 -1.7 0.75 -1.8 0.75 -1.9 0.75 -2.0 0.75 -2.15 0.75 -2.25 0.75 -2.35 0.75 -2.45 0.75 -2.55 0.75 -2.65 0.75 -2.75 0.75 -2.8 0.75 -2.9 0.75 -3.0 0.75 -3.1 0.75 -3.2 0.75 -3.3 0.75 -3.4 0.75 -3.5 0.75 -3.55 0.75 -3.65 0.75 -3.75 0.75 -3.85 0.7 -3.95 0.7 -4.05 0.7 -4.15 0.7 -4.25 0.7 -4.3 0.7 -4.4 0.75 -4.5 0.75 -4.6 0.75 -4.7 0.75 -4.8 0.75 -4.9 0.75 -5.0 0.75 -5.05 0.75 -5.15 0.75 -5.25 0.75 -5.35 0.75 -5.45 0.75 -5.55 0.75 -5.65 0.75 -5.75 0.75 -5.8 0.8 -5.9 0.8 -6.0 0.8 -6.1 0.85 -6.2 0.85 -6.3 0.85 -6.4 0.85 -6.5 0.85 -6.55 0.85 -6.65 0.85 -6.75 0.85 -6.85 0.85 -6.9 1.1 -6.85 1.25 -6.85 1.45 -6.9 1.55 -6.95 1.6 -7.05 1.7 -7.15 1.7 -7.25 1.8 -7.3 1.95 -7.4 2.05 -7.5 2.15 -7.6 2.25 -7.7 2.35 -7.8 2.45 -7.9 2.55 -8.0 2.6 -8.05 2.7 -8.15 2.8 -8.25 2.85 -8.35 2.85 -8.45 2.95 -8.55 2.95 -8.65 3.05 -8.75 3.05 -8.8 3.1 -8.9 3.15 -9.0 3.2 -9.1 3.25 -9.2 3.3 -9.3 3.3 -9.4 3.35 -9.5 3.35 -9.55 3.35 -9.65 3.3 -9.75 3.25 -9.85 3.25 -9.9 3.25 -10.0 3.25 -10.05 3.25 -10.15 3.25 -10.25 3.25 -10.35 3.25 -10.45 3.25 -10.55 3.25 -10.65 3.25 -10.75 3.25 -10.8 3.25 -10.9 3.25 -11.0 3.25 -11.1 3.25 -11.2 3.25 -11.3 3.25 -11.4 3.2 -11.5 3.2 -11.55 3.1 -11.65 3.1 -11.75 3.05 -11.85 3.0 -11.95 3.0 -12.0 3.0 -12.1 3.0 -12.2 3.0 -12.3 2.95 -12.4 2.95 -12.5 2.95 -12.55 2.9 -12.65 2.85 -12.75 2.85 -12.85 2.8 -12.95 2.75 -13.05 2.7 -13.15 2.6 -13.25 2.5 -13.3 2.45 -13.4 2.45 -13.45 2.4 -13.55 2.35 -13.65 2.3 -13.75 2.2 -13.8 2.15 -13.9 2.05 -14.0 2.0 -14.1 1.95 -14.2 1.8 -14.3 1.75 -14.3 1.75 -14.4 1.75 -14.5 1.7 -14.6 1.7 -14.7 1.65 -14.8 1.6 -14.9 1.6 -15.0 1.6 -15.05 1.55 -15.15 1.5 -15.25 1.45 -15.35 1.4 -15.4 1.5 -15.4 1.6 -15.35 1.85 -15.2 2.45 -14.8 3.0 -14.2 3.35 -13.9 3.75 -13.3 4.55 -11.25 4.65 -10.45 Q4.65 -8.75 1.25 -6.2 L1.25 -6.15 1.3 -5.9 1.25 -5.9 1.25 -5.85 1.3 -5.75 1.35 -5.85 Q1.45 -5.75 1.7 -5.7 L1.9 -4.7 1.9 -4.5 1.9 -3.75 1.85 -2.1 1.65 3.45 2.0 14.4 Q1.65 15.65 2.3 15.75 2.1 16.1 1.8 16.1 1.4 16.1 1.15 15.65 0.95 16.35 0.6 16.35 0.1 16.35 -0.2 15.6 L0.1 15.1 Q0.1 14.7 -0.25 14.55 L-0.25 14.5 Q-0.2 14.0 -0.55 13.9 L-0.5 13.45 -0.5 11.45 -0.5 11.25 -0.45 9.4 M3.45 -8.9 L3.35 -8.65 3.5 -8.7 3.6 -8.9 3.5 -8.95 3.45 -8.9 M-0.15 -6.75 L-0.2 -6.8 -0.4 -6.85 -0.4 -6.8 -0.5 -6.8 -0.5 -6.85 -0.3 -6.95 -0.15 -6.95 -0.15 -6.9 -0.15 -6.8 -0.15 -6.75" fill="#ff9900" fill-rule="evenodd" stroke="none"/>
    <path d="M0.55 -15.6 L0.7 -15.5 0.55 -15.4 0.45 -15.3 0.35 -15.25 0.35 -15.15 0.3 -15.05 0.3 -14.95 0.25 -14.85 0.25 -14.75 0.25 -14.65 0.3 -14.55 0.35 -14.5 0.4 -14.4 0.55 -14.3 0.45 -14.3 0.25 -14.2 0.1 -14.1 -0.05 -14.0 -0.15 -13.9 -0.2 -13.8 -0.25 -13.75 -0.25 -13.65 -0.25 -13.55 -0.2 -13.45 -0.2 -13.35 -0.15 -13.25 0.0 -13.15 0.25 -13.1 0.5 -13.15 0.6 -13.25 0.65 -13.25 0.7 -13.15 0.85 -13.05 1.05 -13.0 1.1 -12.9 1.15 -12.8 1.2 -12.75 1.3 -12.65 1.35 -12.55 1.45 -12.45 1.55 -12.35 1.6 -12.25 1.6 -12.15 1.6 -12.05 1.6 -11.95 1.55 -11.75 1.5 -11.25 Q1.25 -9.55 0.55 -9.4 L0.2 -8.85 0.0 -8.85 -0.2 -8.8 -0.25 -8.8 -0.4 -8.75 -0.6 -8.75 -0.7 -8.65 -0.85 -8.55 -1.0 -8.5 -1.0 -8.55 -1.05 -8.65 -1.1 -8.75 -1.15 -8.85 -1.3 -8.95 -1.45 -9.05 -1.65 -9.1 -1.65 -9.05 -1.7 -9.15 -1.85 -9.25 -1.9 -9.35 -2.0 -9.4 Q-1.35 -10.15 -0.95 -11.25 L-0.9 -11.4 Q-0.5 -12.3 -0.5 -14.15 L-0.5 -14.35 -1.65 -14.15 -2.55 -13.5 -2.8 -13.3 -3.0 -13.0 -3.65 -11.4 -3.6 -11.25 -3.15 -9.15 -3.15 -8.9 -3.0 -8.7 -2.9 -8.7 -2.85 -8.6 -2.8 -8.5 -2.65 -8.4 -2.5 -8.3 -2.45 -8.3 -2.55 -8.25 -2.6 -8.15 -2.7 -8.05 -2.8 -7.95 -2.9 -7.85 -2.95 -7.75 -2.95 -7.65 -3.0 -7.55 -3.0 -7.45 -3.55 -8.35 Q-4.5 -9.85 -4.5 -11.1 L-4.5 -11.25 Q-4.45 -12.35 -3.7 -13.6 -2.45 -15.65 0.05 -15.65 L0.55 -15.6 M-1.55 -3.6 L-1.6 -3.55 -1.6 -3.5 -1.65 -3.4 -1.65 -3.3 -1.65 -3.2 -1.65 -3.1 -1.7 -3.0 -1.7 -2.9 -1.7 -2.8 -1.7 -2.75 -1.7 -2.65 -1.7 -2.55 -1.75 -2.45 -1.75 -2.35 -1.75 -2.25 -1.75 -2.15 -1.75 -2.0 -1.75 -1.9 -1.75 -1.8 -1.75 -1.7 -1.75 -1.6 -1.8 -1.5 -1.8 -1.4 -1.8 -1.3 -1.85 -1.25 -1.9 -1.15 -1.9 -1.05 -1.9 -0.95 -1.9 -0.85 -1.9 -0.75 -1.9 -0.65 -1.9 -0.55 -1.9 -0.5 -1.9 -0.4 -1.9 -0.3 -1.8 -0.2 -1.75 -0.1 -1.7 0.0 -1.7 0.1 -1.7 0.2 -1.7 0.3 -1.7 0.4 -1.7 0.5 -1.7 0.6 -1.7 0.7 -1.7 0.75 -1.7 0.85 -1.75 0.95 -1.75 1.05 -1.75 1.15 -1.75 1.25 -1.75 1.35 -1.75 1.45 -1.75 1.5 -1.75 1.6 -1.75 1.7 -1.75 1.8 -1.75 1.9 -1.75 2.0 -1.75 2.1 -1.75 2.2 -1.75 2.25 -1.75 2.35 -1.75 2.45 -1.75 2.55 -1.75 2.65 -1.75 2.75 -1.8 2.85 -1.8 2.95 -1.8 3.0 -1.8 3.1 -1.85 3.2 -1.85 3.3 -1.9 3.4 -1.9 3.5 -1.9 3.6 -1.9 3.7 -1.9 3.75 -1.9 3.85 -1.9 3.95 -1.9 4.05 -1.9 4.15 -1.95 4.25 -1.95 4.35 -1.95 4.45 -1.95 4.5 -1.95 4.6 -1.95 4.7 -1.95 4.8 -1.95 4.9 -1.95 5.0 -2.0 5.1 -2.0 5.2 -2.0 5.25 -2.0 5.35 -2.0 5.45 -2.0 5.55 -2.0 5.65 -2.0 5.75 -2.0 5.85 -2.0 5.95 -2.0 6.0 -2.0 6.1 -2.0 6.2 -2.0 6.3 -2.0 6.4 -2.0 6.5 -2.0 6.6 -1.95 6.7 -1.95 6.75 -1.95 6.85 -1.95 6.95 -1.9 7.05 -1.9 7.15 -1.9 14.2 -1.4 14.1 -1.35 14.05 -1.25 14.0 Q-1.0 13.85 -0.85 13.85 L-0.55 13.9 Q-0.2 14.0 -0.25 14.5 L-0.25 14.55 Q0.1 14.7 0.1 15.1 L-0.2 15.6 -1.0 15.7 -2.95 15.45 -2.9 15.4 -2.75 14.95 -3.0 13.5 -2.8 11.35 -2.75 11.25 -2.6 9.15 -2.5 -2.55 -2.5 -3.75 -2.55 -4.5 -2.5 -6.15 -2.5 -6.35 -2.0 -6.15 -1.8 -5.45 -1.55 -3.6 M-1.8 -7.35 L-1.85 -7.3 -1.85 -7.35 -1.8 -7.45 -1.75 -7.55 -1.7 -7.65 -1.65 -7.75 -1.65 -7.65 -1.65 -7.55 -1.65 -7.45 -1.8 -7.35" fill="#ffcc00" fill-rule="evenodd" stroke="none"/>
    <path d="M0.7 -15.5 L0.8 -15.55 1.0 -15.55 1.35 -15.45 1.4 -15.4 1.45 -15.35 1.5 -15.25 1.55 -15.15 1.6 -15.05 1.6 -15.0 1.6 -14.9 1.65 -14.8 1.7 -14.7 1.7 -14.6 1.75 -14.5 1.75 -14.4 1.75 -14.3 1.8 -14.3 1.95 -14.2 2.0 -14.1 2.05 -14.0 2.15 -13.9 2.2 -13.8 2.3 -13.75 2.35 -13.65 2.4 -13.55 2.45 -13.45 2.45 -13.4 2.5 -13.3 2.6 -13.25 2.7 -13.15 2.75 -13.05 2.8 -12.95 2.85 -12.85 2.85 -12.75 2.9 -12.65 2.95 -12.55 2.95 -12.5 2.95 -12.4 3.0 -12.3 3.0 -12.2 3.0 -12.1 3.0 -12.0 3.0 -11.95 3.05 -11.85 3.1 -11.75 3.1 -11.65 3.2 -11.55 3.2 -11.5 3.25 -11.4 3.25 -11.3 3.25 -11.2 3.25 -11.1 3.25 -11.0 3.25 -10.9 3.25 -10.8 3.25 -10.75 3.25 -10.65 3.25 -10.55 3.25 -10.45 3.25 -10.35 3.25 -10.25 3.25 -10.15 3.25 -10.05 3.25 -10.0 3.25 -9.9 3.25 -9.85 3.3 -9.75 3.35 -9.65 3.35 -9.55 3.35 -9.5 3.3 -9.4 3.3 -9.3 3.25 -9.2 3.2 -9.1 3.15 -9.0 3.1 -8.9 3.05 -8.8 3.05 -8.75 2.95 -8.65 2.95 -8.55 2.85 -8.45 2.85 -8.35 2.8 -8.25 2.7 -8.15 2.6 -8.05 2.55 -8.0 2.45 -7.9 2.35 -7.8 2.25 -7.7 2.15 -7.6 2.05 -7.5 1.95 -7.4 1.8 -7.3 1.7 -7.25 1.7 -7.15 1.6 -7.05 1.55 -6.95 1.45 -6.9 1.25 -6.85 1.1 -6.85 0.85 -6.9 0.85 -6.85 0.85 -6.75 0.85 -6.65 0.85 -6.55 0.85 -6.5 0.85 -6.4 0.85 -6.3 0.85 -6.2 0.8 -6.1 0.8 -6.0 0.8 -5.9 0.75 -5.8 0.75 -5.75 0.75 -5.65 0.75 -5.55 0.75 -5.45 0.75 -5.35 0.75 -5.25 0.75 -5.15 0.75 -5.05 0.75 -5.0 0.75 -4.9 0.75 -4.8 0.75 -4.7 0.75 -4.6 0.75 -4.5 0.7 -4.4 0.7 -4.3 0.7 -4.25 0.7 -4.15 0.7 -4.05 0.7 -3.95 0.75 -3.85 0.75 -3.75 0.75 -3.65 0.75 -3.55 0.75 -3.5 0.75 -3.4 0.75 -3.3 0.75 -3.2 0.75 -3.1 0.75 -3.0 0.75 -2.9 0.75 -2.8 0.75 -2.75 0.75 -2.65 0.75 -2.55 0.75 -2.45 0.75 -2.35 0.75 -2.25 0.75 -2.15 0.75 -2.0 0.75 -1.9 0.75 -1.8 0.75 -1.7 0.75 -1.6 0.75 -1.5 0.75 -1.4 0.75 -1.3 0.75 -1.25 0.75 -1.15 0.75 -1.05 0.75 -0.95 0.75 -0.9 0.75 -0.8 0.75 -0.7 0.75 -0.6 0.75 -0.5 0.75 -0.4 0.75 -0.3 0.75 -0.25 0.75 -0.15 0.75 -0.05 0.75 0.05 0.8 0.15 0.8 0.25 0.8 0.35 0.8 0.45 0.95 0.55 1.0 0.65 1.05 0.75 1.1 0.85 1.1 0.95 1.1 1.0 1.05 1.1 1.05 1.2 1.0 1.3 1.0 1.4 0.95 1.5 0.95 1.6 0.9 1.7 0.9 1.75 0.85 1.85 0.85 1.95 0.85 2.1 0.85 2.2 0.85 2.3 0.85 2.4 0.85 2.5 0.85 2.6 0.8 2.7 0.8 2.75 0.8 2.85 0.8 2.95 0.8 3.05 0.75 3.15 0.75 3.25 0.75 3.35 0.75 3.45 0.75 3.5 0.75 3.6 0.75 3.7 0.75 3.8 0.75 3.9 0.75 4.0 0.75 4.1 0.75 4.2 0.75 4.25 0.75 4.35 0.75 4.45 0.7 4.55 0.65 4.65 0.6 4.75 0.45 4.85 0.4 4.95 0.35 5.0 0.35 5.1 0.35 5.2 0.35 5.3 0.35 5.4 0.35 5.5 0.35 5.6 0.35 5.7 0.35 5.75 0.35 5.85 0.35 5.95 0.35 6.05 0.35 6.15 0.35 6.25 0.35 6.35 0.35 6.45 0.35 6.5 0.35 6.6 0.35 6.7 0.35 6.8 0.35 6.9 0.35 7.0 0.35 7.1 0.3 7.2 0.3 7.25 0.3 7.35 0.3 7.45 0.3 7.55 0.25 7.65 0.25 7.75 0.25 7.85 0.25 7.95 0.25 8.0 0.25 8.1 0.25 8.2 0.2 8.3 0.2 8.4 0.1 8.5 0.1 8.6 0.1 8.7 0.1 8.75 0.1 8.85 0.1 8.95 0.05 9.05 0.0 9.15 -0.05 9.25 -0.2 9.35 -0.4 9.4 -0.45 9.4 -0.65 9.35 -0.8 9.25 -0.85 9.15 -0.9 9.05 -0.9 8.95 -0.9 8.85 -0.9 8.75 -0.9 8.7 -0.9 8.6 -0.9 8.5 -0.9 8.4 -0.9 8.3 -0.9 8.2 -0.9 8.1 -0.9 8.0 -0.9 7.95 -1.0 7.9 -1.15 7.9 -1.4 7.85 -1.55 7.75 -1.6 7.65 -1.65 7.55 -1.65 7.45 -1.8 7.35 -1.85 7.25 -1.9 7.15 -1.9 7.05 -1.95 6.95 -1.95 6.85 -1.95 6.75 -1.95 6.7 -2.0 6.6 -2.0 6.5 -2.0 6.4 -2.0 6.3 -2.0 6.2 -2.0 6.1 -2.0 6.0 -2.0 5.95 -2.0 5.85 -2.0 5.75 -2.0 5.65 -2.0 5.55 -2.0 5.45 -2.0 5.35 -2.0 5.25 -2.0 5.2 -2.0 5.1 -1.95 5.0 -1.95 4.9 -1.95 4.8 -1.95 4.7 -1.95 4.6 -1.95 4.5 -1.95 4.45 -1.95 4.35 -1.95 4.25 -1.9 4.15 -1.9 4.05 -1.9 3.95 -1.9 3.85 -1.9 3.75 -1.9 3.7 -1.9 3.6 -1.9 3.5 -1.9 3.4 -1.85 3.3 -1.85 3.2 -1.8 3.1 -1.8 3.0 -1.8 2.95 -1.8 2.85 -1.75 2.75 -1.75 2.65 -1.75 2.55 -1.75 2.45 -1.75 2.35 -1.75 2.25 -1.75 2.2 -1.75 2.1 -1.75 2.0 -1.75 1.9 -1.75 1.8 -1.75 1.7 -1.75 1.6 -1.75 1.5 -1.75 1.45 -1.75 1.35 -1.75 1.25 -1.75 1.15 -1.75 1.05 -1.75 0.95 -1.7 0.85 -1.7 0.75 -1.7 0.7 -1.7 0.6 -1.7 0.5 -1.7 0.4 -1.7 0.3 -1.7 0.2 -1.7 0.1 -1.7 0.0 -1.75 -0.1 -1.8 -0.2 -1.9 -0.3 -1.9 -0.4 -1.9 -0.5 -1.9 -0.55 -1.9 -0.65 -1.9 -0.75 -1.9 -0.85 -1.9 -0.95 -1.9 -1.05 -1.9 -1.15 -1.85 -1.25 -1.8 -1.3 -1.8 -1.4 -1.8 -1.5 -1.75 -1.6 -1.75 -1.7 -1.75 -1.8 -1.75 -1.9 -1.75 -2.0 -1.75 -2.15 -1.75 -2.25 -1.75 -2.35 -1.75 -2.45 -1.7 -2.55 -1.7 -2.65 -1.7 -2.75 -1.7 -2.8 -1.7 -2.9 -1.7 -3.0 -1.65 -3.1 -1.65 -3.2 -1.65 -3.3 -1.65 -3.4 -1.6 -3.5 -1.6 -3.55 -1.55 -3.6 -1.55 -3.65 -1.55 -3.75 -1.55 -3.85 -1.5 -3.95 -1.5 -4.15 -1.5 -4.25 -1.5 -4.3 -1.5 -4.4 -1.5 -4.5 -1.5 -4.6 -1.5 -4.7 -1.5 -4.8 -1.5 -4.9 -1.5 -5.0 -1.5 -5.05 -1.5 -5.15 -1.5 -5.25 -1.5 -5.35 -1.5 -5.45 -1.5 -5.55 -1.5 -5.65 -1.5 -5.75 -1.5 -5.8 -1.5 -5.9 -1.5 -6.0 -1.5 -6.1 -1.5 -6.2 -1.55 -6.25 -1.65 -6.25 -1.75 -6.25 -2.0 -6.3 -2.15 -6.4 -2.2 -6.5 -2.2 -6.6 -2.25 -6.7 -2.25 -6.8 -2.25 -6.9 -2.3 -6.9 -2.4 -6.85 -2.5 -6.85 -2.6 -6.85 -3.0 -7.45 -3.0 -7.55 -2.95 -7.65 -2.95 -7.75 -2.9 -7.85 -2.8 -7.95 -2.7 -8.05 -2.6 -8.15 -2.55 -8.25 -2.45 -8.3 -2.5 -8.3 -2.65 -8.4 -2.8 -8.5 -2.85 -8.6 -2.9 -8.7 -2.95 -8.8 -3.0 -8.9 -3.0 -9.0 -3.0 -9.05 -2.95 -9.15 -2.95 -9.25 -2.9 -9.35 -2.75 -9.45 -2.5 -9.5 -2.25 -9.5 -2.05 -9.45 -2.0 -9.4 -1.9 -9.35 -1.85 -9.25 -1.7 -9.15 -1.65 -9.05 -1.65 -9.1 -1.45 -9.05 -1.3 -8.95 -1.15 -8.85 -1.1 -8.75 -1.05 -8.65 -1.0 -8.55 -1.0 -8.5 -0.85 -8.55 -0.7 -8.65 -0.6 -8.75 -0.4 -8.75 -0.25 -8.8 -0.2 -8.8 0.0 -8.85 0.2 -8.85 0.35 -8.85 0.5 -8.95 0.6 -9.05 0.65 -9.15 0.8 -9.25 0.85 -9.3 0.95 -9.4 1.05 -9.5 1.05 -9.6 1.1 -9.7 1.1 -9.8 1.15 -9.9 1.2 -10.0 1.3 -10.05 1.3 -10.15 1.35 -10.25 1.4 -10.35 1.45 -10.45 1.5 -10.55 1.5 -10.65 1.5 -10.75 1.55 -10.8 1.55 -10.9 1.55 -11.0 1.6 -11.1 1.6 -11.2 1.6 -11.3 1.6 -11.4 1.6 -11.5 1.7 -11.55 1.75 -11.65 1.7 -11.7 1.65 -11.8 1.6 -11.9 1.6 -11.95 1.6 -12.05 1.6 -12.15 1.6 -12.25 1.55 -12.35 1.45 -12.45 1.35 -12.55 1.3 -12.65 1.2 -12.75 1.15 -12.8 1.1 -12.9 1.05 -13.0 0.85 -13.05 0.7 -13.15 0.65 -13.25 0.6 -13.25 0.5 -13.15 0.25 -13.1 0.0 -13.15 -0.15 -13.25 -0.2 -13.35 -0.2 -13.45 -0.25 -13.55 -0.25 -13.65 -0.25 -13.75 -0.2 -13.8 -0.15 -13.9 -0.05 -14.0 0.1 -14.1 0.25 -14.2 0.45 -14.3 0.55 -14.3 0.4 -14.4 0.35 -14.5 0.3 -14.55 0.25 -14.65 0.25 -14.75 0.25 -14.85 0.3 -14.95 0.3 -15.05 0.35 -15.15 0.35 -15.25 0.45 -15.3 0.55 -15.4 0.7 -15.5 M-1.8 -7.35 L-1.65 -7.45 -1.65 -7.55 -1.65 -7.65 -1.65 -7.75 -1.7 -7.65 -1.75 -7.55 -1.8 -7.45 -1.85 -7.35 -1.85 -7.3 -1.8 -7.35 M-0.15 -6.75 L-0.15 -6.8 -0.15 -6.9 -0.15 -6.95 -0.3 -6.95 -0.5 -6.85 -0.5 -6.8 -0.4 -6.8 -0.4 -6.85 -0.2 -6.8 -0.15 -6.75" fill="#dfb300" fill-rule="evenodd" stroke="none"/>
    <path d="M1.0 -15.55 L0.55 -15.6 0.05 -15.65 Q-2.45 -15.65 -3.7 -13.6 -4.45 -12.35 -4.5 -11.25 L-4.5 -11.1 Q-4.5 -9.85 -3.55 -8.35 L-3.0 -7.45 -2.6 -6.85 -2.6 -6.8 -2.5 -6.65 -2.5 -6.35 -2.5 -6.15 -2.55 -4.5 -2.5 -3.75 -2.5 -2.55 -2.6 9.15 -2.75 11.25 -2.8 11.35 -3.0 13.5 -2.75 14.95 -2.9 15.4 -2.95 15.45 -3.25 15.6 Q-3.85 15.6 -4.0 13.4 L-3.85 11.25 -3.75 8.4 -3.75 8.05 -3.65 5.1 -3.6 -2.1 -3.6 -3.65 -3.6 -3.75 -3.6 -4.5 -3.5 -6.05 -3.5 -6.15 -3.45 -6.3 Q-4.75 -6.55 -5.25 -8.65 L-5.5 -11.1 -5.5 -11.25 Q-5.45 -13.8 -3.75 -15.25 -2.15 -16.65 0.1 -16.6 2.35 -16.55 3.9 -15.05 5.4 -13.55 5.6 -11.25 L5.65 -10.4 Q4.65 -7.2 3.4 -6.15 L2.65 -5.7 2.9 -4.7 2.65 3.4 2.7 5.1 2.85 8.4 2.85 8.9 2.95 11.25 3.0 14.45 Q2.9 15.75 2.4 15.75 L2.3 15.75 Q1.65 15.65 2.0 14.4 L1.65 3.45 1.85 -2.1 1.9 -3.75 1.9 -4.5 1.9 -4.7 1.7 -5.7 Q1.45 -5.75 1.35 -5.85 L1.3 -5.9 1.25 -6.15 1.25 -6.2 Q4.65 -8.75 4.65 -10.45 L4.55 -11.25 3.75 -13.3 3.35 -13.9 1.6 -15.35 1.5 -15.4 1.35 -15.45 1.0 -15.55" fill="#000000" fill-rule="evenodd" stroke="none"/>
  </g>
</svg>
