<?xml version="1.0" encoding="UTF-8" standalone="no"?>
<svg xmlns:ffdec="https://www.free-decompiler.com/flash" xmlns:xlink="http://www.w3.org/1999/xlink" ffdec:objectType="shape" height="23.6px" width="11.9px" xmlns="http://www.w3.org/2000/svg">
  <g transform="matrix(1.0, 0.0, 0.0, 1.0, 6.3, 24.7)">
    <path d="M1.1 -23.0 L1.2 -23.05 1.5 -23.05 Q2.05 -23.05 3.1 -21.5 L4.55 -18.7 4.7 -18.15 5.25 -15.45 5.25 -14.55 5.35 -13.95 5.45 -12.25 5.6 -11.75 Q5.6 -11.25 4.2 -7.9 L2.45 -3.95 2.25 -2.95 2.1 -1.8 Q1.8 -0.65 0.15 -1.45 L-0.1 -3.5 -0.2 -4.35 -1.4 -5.15 -1.75 -6.15 -1.95 -7.2 -2.6 -9.15 -2.7 -9.4 -3.25 -10.1 -3.45 -10.8 -3.7 -10.9 Q-4.7 -10.9 -5.4 -13.1 L-5.75 -14.6 -5.75 -14.65 -6.1 -14.95 -6.3 -16.4 -6.2 -17.85 -5.85 -18.7 -5.3 -19.1 -4.55 -20.7 Q-2.65 -24.6 -1.65 -24.6 L-1.2 -24.45 -0.7 -24.3 -0.35 -24.5 0.15 -24.7 Q0.95 -24.7 1.1 -23.95 L1.1 -23.0" fill="#00b3ff" fill-rule="evenodd" stroke="none"/>
  </g>
</svg>
