<?xml version="1.0" encoding="UTF-8" standalone="no"?>
<svg xmlns:ffdec="https://www.free-decompiler.com/flash" xmlns:xlink="http://www.w3.org/1999/xlink" ffdec:objectType="shape" height="63.3px" width="6.35px" xmlns="http://www.w3.org/2000/svg">
  <g transform="matrix(1.0, 0.0, 0.0, 1.0, 2.6, 32.15)">
    <path d="M-1.35 2.4 L-2.4 2.4 -2.4 0.7 -2.2 -3.45 -2.35 -5.4 -2.2 -7.4 -2.2 -8.45 -2.25 -8.65 -2.4 -9.2 -2.2 -12.05 -2.2 -31.9 -1.45 -31.9 0.65 -32.15 1.7 -32.1 2.25 -32.15 2.65 -31.9 2.7 -31.95 Q3.05 -32.5 3.35 -31.7 L3.45 -31.7 3.75 -31.3 3.6 -28.05 3.6 -24.6 3.55 -22.9 3.45 -21.6 3.1 -14.65 2.85 -11.35 2.85 -10.7 3.0 -10.35 3.1 -3.95 3.15 2.4 2.5 2.4 2.45 0.25 Q2.25 -0.05 2.3 -1.35 L2.4 -3.1 2.2 -7.4 2.15 -7.8 2.0 -7.9 1.95 -8.25 2.0 -10.2 1.95 -12.35 Q1.95 -17.0 2.45 -22.45 L2.85 -27.5 3.0 -30.1 3.0 -30.3 2.95 -30.3 2.6 -30.55 Q2.4 -30.85 2.05 -30.85 L1.35 -30.65 0.05 -30.55 -1.15 -30.85 -1.65 -31.05 -1.6 -30.9 Q-1.05 -30.05 -1.05 -28.35 L-0.85 -24.4 Q-0.85 -20.55 -1.15 -16.0 L-1.25 -13.15 -1.05 -11.65 -1.0 -9.25 -1.1 -6.35 -1.25 -3.25 -1.3 -1.6 -1.25 -1.05 -1.4 1.0 -1.35 2.4 M-1.15 9.05 L-1.15 9.4 -1.05 12.55 -1.25 23.3 -1.0 29.25 2.4 28.7 2.45 28.3 2.4 27.2 Q2.15 26.9 2.2 25.3 L2.25 23.15 2.2 21.2 2.3 20.6 2.4 11.55 Q2.4 10.6 2.6 10.55 L2.6 9.05 3.4 9.05 3.4 10.3 3.2 18.1 3.2 28.8 3.2 29.55 3.2 29.85 3.1 30.5 2.85 30.6 2.85 30.65 2.6 30.65 0.55 30.75 -1.05 30.9 -1.65 31.15 Q-2.4 31.15 -2.6 30.25 L-2.6 29.25 -2.6 28.9 -2.6 28.75 -2.6 28.1 -2.6 27.9 -2.35 10.55 -2.35 9.05 -1.15 9.05" fill="#c6c600" fill-rule="evenodd" stroke="none"/>
    <path d="M2.5 2.4 L0.95 2.4 1.15 -1.3 1.5 -12.5 1.85 -25.0 1.8 -29.2 1.2 -29.2 -0.05 -29.35 -0.05 -27.75 -0.2 -22.8 -0.35 -17.95 -0.3 -15.7 -0.25 -13.7 -0.45 -8.95 -0.65 -2.55 -0.5 2.4 -1.35 2.4 -1.4 1.0 -1.25 -1.05 -1.3 -1.6 -1.25 -3.25 -1.1 -6.35 -1.0 -9.25 -1.05 -11.65 -1.25 -13.15 -1.15 -16.0 Q-0.85 -20.55 -0.85 -24.4 L-1.05 -28.35 Q-1.05 -30.05 -1.6 -30.9 L-1.65 -31.05 -1.15 -30.85 0.05 -30.55 1.35 -30.65 2.05 -30.85 Q2.4 -30.85 2.6 -30.55 L2.95 -30.3 3.0 -30.3 3.0 -30.1 2.85 -27.5 2.45 -22.45 Q1.95 -17.0 1.95 -12.35 L2.0 -10.2 1.95 -8.25 2.0 -7.9 2.15 -7.8 2.2 -7.4 2.4 -3.1 2.3 -1.35 Q2.25 -0.05 2.45 0.25 L2.5 2.4 M2.6 9.05 L2.6 10.55 Q2.4 10.6 2.4 11.55 L2.3 20.6 2.2 21.2 2.25 23.15 2.2 25.3 Q2.15 26.9 2.4 27.2 L2.45 28.3 2.4 28.7 -1.0 29.25 -1.25 23.3 -1.05 12.55 -1.15 9.4 -1.15 9.05 -0.35 9.05 -0.35 9.95 -0.4 22.15 -0.6 28.05 -0.6 28.15 -0.55 28.15 Q-0.3 28.0 0.35 27.8 L1.45 27.55 1.15 25.4 1.15 25.35 0.85 20.35 0.75 11.8 0.8 9.05 2.6 9.05" fill="#f0f000" fill-rule="evenodd" stroke="none"/>
    <path d="M0.95 2.4 L-0.5 2.4 -0.65 -2.55 -0.45 -8.95 -0.25 -13.7 -0.3 -15.7 -0.35 -17.95 -0.2 -22.8 -0.05 -27.75 -0.05 -29.35 1.2 -29.2 1.8 -29.2 1.85 -25.0 1.5 -12.5 1.15 -1.3 0.95 2.4 M0.8 9.05 L0.75 11.8 0.85 20.35 1.15 25.35 1.15 25.4 1.45 27.55 0.35 27.8 Q-0.3 28.0 -0.55 28.15 L-0.6 28.05 -0.4 22.15 -0.35 9.95 -0.35 9.05 0.8 9.05 M1.1 25.35 L1.0 26.3 1.1 26.3 1.1 25.75 1.1 25.35" fill="#ffff80" fill-rule="evenodd" stroke="none"/>
    <path d="M1.1 25.35 L1.1 25.75 1.1 26.3 1.0 26.3 1.1 25.35" fill="#8300ae" fill-rule="evenodd" stroke="none"/>
    <path d="M-0.55 28.15 L-0.6 28.15 -0.6 28.05 -0.55 28.15" fill="#be00fd" fill-rule="evenodd" stroke="none"/>
    <path d="M0.95 2.4 L2.5 2.4 2.55 4.6 Q2.45 6.9 2.6 7.65 L2.6 9.05 0.8 9.05 Q0.8 5.65 0.95 2.4 M-0.35 9.05 L-1.15 9.05 Q-1.2 8.0 -1.4 7.35 L-1.4 6.55 -1.25 4.85 -1.35 2.4 -0.5 2.4 -0.5 3.0 Q-0.35 5.55 -0.35 9.05" fill="#f0f000" fill-rule="evenodd" stroke="none"/>
    <path d="M2.5 2.4 L3.15 2.4 3.2 4.65 3.1 7.05 3.35 7.95 3.4 9.05 2.6 9.05 2.6 7.65 Q2.45 6.9 2.55 4.6 L2.5 2.4 M-1.15 9.05 L-2.35 9.05 -2.4 5.8 -2.35 3.95 -2.4 3.4 -2.4 2.6 -2.4 2.4 -1.35 2.4 -1.25 4.85 -1.4 6.55 -1.4 7.35 Q-1.2 8.0 -1.15 9.05" fill="#c6c600" fill-rule="evenodd" stroke="none"/>
    <path d="M0.8 9.05 L-0.35 9.05 Q-0.35 5.55 -0.5 3.0 L-0.5 2.4 0.95 2.4 Q0.8 5.65 0.8 9.05" fill="#ffff80" fill-rule="evenodd" stroke="none"/>
  </g>
</svg>
