<?xml version="1.0" encoding="UTF-8" standalone="no"?>
<svg xmlns:ffdec="https://www.free-decompiler.com/flash" xmlns:xlink="http://www.w3.org/1999/xlink" ffdec:objectType="shape" height="4.1px" width="13.7px" xmlns="http://www.w3.org/2000/svg">
  <g transform="matrix(1.0, 0.0, 0.0, 1.0, 6.85, 2.05)">
    <path d="M6.85 -1.6 L6.75 -1.45 6.65 -1.25 6.6 -1.15 6.55 -1.05 6.4 -0.7 6.25 -0.3 6.25 -0.1 6.15 0.0 6.1 0.05 6.1 0.15 6.05 0.25 6.0 0.35 6.0 0.45 6.0 0.65 6.0 0.75 6.0 0.8 6.0 0.9 5.95 1.0 5.9 1.1 5.9 1.2 5.9 1.4 5.9 1.45 -4.9 1.4 -5.05 1.05 Q-5.3 0.45 -5.7 -0.1 L-5.85 -0.45 -6.45 -1.7 -6.1 -1.75 -5.05 -1.9 -3.9 -1.9 2.95 -2.0 5.5 -1.9 5.9 -1.75 6.25 -1.75 6.4 -1.8 Q6.7 -1.8 6.85 -1.6 M-6.85 1.05 L-6.75 1.25 -6.75 1.35 -6.7 1.45 -6.65 1.55 -6.55 1.65 -6.4 1.85 -6.35 1.9 -6.25 2.0 -6.25 2.05 -6.7 1.6 -6.85 1.05" fill="#ffffff" fill-rule="evenodd" stroke="none"/>
  </g>
</svg>
