<?xml version="1.0" encoding="UTF-8" standalone="no"?>
<svg xmlns:ffdec="https://www.free-decompiler.com/flash" xmlns:xlink="http://www.w3.org/1999/xlink" ffdec:objectType="shape" height="58.4px" width="164.1px" xmlns="http://www.w3.org/2000/svg">
  <g transform="matrix(1.0, 0.0, 0.0, 1.0, 75.55, 31.55)">
    <path d="M-74.0 -30.0 L87.0 -30.0 87.0 25.0 -74.0 25.0 -74.0 -30.0" fill="#99ff00" fill-rule="evenodd" stroke="none"/>
    <path d="M-35.3 -30.0 L-39.3 -30.0 -43.45 -30.0 -47.65 -29.95 Q-49.75 -29.85 -51.55 -30.0 L-55.3 -30.15 -59.15 -30.4 -63.2 -30.25 -67.3 -30.0 M-69.5 -30.0 Q-71.35 -30.0 -72.4 -29.15 -73.4 -28.25 -73.85 -26.55 -74.3 -24.85 -74.4 -22.65 -74.5 -20.45 -73.8 -18.2 -73.1 -15.9 -73.55 -14.4 L-74.1 -11.05 -74.15 -7.05 -74.0 -2.5 M-1.1 -30.0 L-5.0 -29.85 -8.9 -29.7 -12.7 -29.85 -17.1 -30.15 -21.0 -30.05 -25.0 -30.15 -28.95 -30.1 -33.1 -30.0 M67.5 -30.0 L63.45 -30.05 59.6 -29.75 55.25 -29.85 51.25 -30.4 47.5 -30.25 43.65 -29.55 Q41.8 -29.05 39.25 -29.55 L35.45 -29.95 31.5 -30.0 M29.2 -30.0 L25.45 -30.0 21.05 -29.55 Q18.9 -29.05 17.0 -29.55 L13.15 -30.0 9.15 -30.3 Q7.2 -30.6 4.7 -30.35 L1.2 -30.0 M87.0 -15.3 Q86.25 -17.2 86.65 -19.35 L87.0 -22.95 86.95 -26.45 Q86.9 -28.4 85.4 -28.85 L81.65 -29.2 77.35 -29.55 73.55 -30.4 Q71.8 -30.8 69.7 -30.0 M87.0 15.0 Q87.0 13.0 87.25 11.0 87.55 9.0 87.2 7.3 86.9 5.6 87.3 3.25 87.75 0.95 87.4 -1.5 87.1 -3.95 87.4 -5.25 87.75 -6.5 87.0 -9.0 86.3 -11.45 87.0 -13.0 M62.8 25.0 L66.9 25.5 70.9 25.3 74.75 25.55 78.85 25.85 82.8 25.8 Q84.65 25.75 85.75 24.9 86.9 24.1 87.15 21.75 87.45 19.4 87.0 17.2 M28.6 25.0 Q30.7 24.4 32.5 24.3 L36.45 24.15 40.45 24.5 44.75 24.9 48.8 24.65 52.3 24.55 56.4 24.5 Q58.65 24.3 60.6 25.0 M-13.6 25.0 L-9.85 25.1 -5.8 25.0 -1.65 25.05 2.35 25.55 6.05 25.45 9.8 24.75 Q11.75 24.5 14.05 24.75 L18.15 24.85 22.65 24.35 Q25.4 24.0 26.4 25.0 M-47.8 25.0 L-43.7 25.05 -39.65 25.05 -35.85 24.85 Q-33.85 24.7 -31.65 24.85 L-27.75 25.0 -24.1 25.35 -20.45 25.15 -15.8 25.0 M-74.0 -0.3 Q-73.9 1.8 -74.3 4.05 -74.65 6.35 -74.5 7.55 -74.35 8.75 -74.45 10.95 L-74.45 15.15 -74.2 19.45 -74.15 22.75 -74.0 25.0 -70.05 24.95 -66.45 25.1 -62.2 25.0 -57.75 24.85 -54.2 25.1 -50.0 25.0" fill="none" stroke="#000000" stroke-linecap="round" stroke-linejoin="round" stroke-width="2.0"/>
  </g>
</svg>
