<?xml version="1.0" encoding="UTF-8" standalone="no"?>
<svg xmlns:ffdec="https://www.free-decompiler.com/flash" xmlns:xlink="http://www.w3.org/1999/xlink" ffdec:objectType="shape" height="29.4px" width="33.85px" xmlns="http://www.w3.org/2000/svg">
  <g transform="matrix(1.0, 0.0, 0.0, 1.0, 16.95, 14.7)">
    <path d="M12.65 -1.05 L13.25 -0.2 13.25 -0.1 13.3 -0.05 13.35 0.05 13.35 0.1 16.9 6.4 12.0 14.7 -12.05 14.7 -12.2 14.45 -12.3 14.3 -14.0 11.35 -14.1 11.3 -14.1 11.2 -14.15 11.15 -16.95 6.4 -16.85 6.1 -16.8 5.95 -16.65 5.8 -15.7 4.3 -15.7 4.15 -15.6 3.95 -15.5 3.9 -4.75 -14.7 -1.0 -14.7 -0.85 -14.7 -0.7 -14.7 4.75 -14.7 12.25 -1.9 12.65 -1.05" fill="#ffcc00" fill-rule="evenodd" stroke="none"/>
  </g>
</svg>
