<?xml version="1.0" encoding="UTF-8" standalone="no"?>
<svg xmlns:ffdec="https://www.free-decompiler.com/flash" xmlns:xlink="http://www.w3.org/1999/xlink" ffdec:objectType="shape" height="52.35px" width="56.55px" xmlns="http://www.w3.org/2000/svg">
  <g transform="matrix(1.0, 0.0, 0.0, 1.0, 25.85, 29.15)">
    <path d="M9.6 -28.25 Q10.0 -26.6 9.9 -24.85 L9.8 -21.25 10.05 -20.4 10.35 -19.15 10.4 -18.9 10.4 -18.7 10.4 -18.35 10.55 -18.35 10.95 -19.2 11.0 -19.35 Q11.9 -20.1 12.95 -20.65 L13.5 -21.05 13.65 -21.3 13.8 -21.5 13.95 -21.75 14.6 -22.05 15.25 -22.3 15.55 -22.55 15.75 -22.7 16.0 -22.95 16.05 -23.15 16.15 -23.35 16.35 -23.55 16.55 -23.65 16.9 -23.85 17.15 -24.0 17.45 -24.0 17.45 -24.05 17.85 -23.9 18.1 -23.7 18.25 -23.5 18.3 -23.25 18.3 -22.85 18.2 -22.65 17.85 -22.25 17.7 -22.05 17.0 -20.8 16.4 -19.25 16.35 -19.0 16.35 -18.8 16.35 -18.4 16.35 -17.8 16.3 -17.55 16.15 -17.1 16.05 -16.7 16.05 -16.65 16.5 -16.65 Q17.35 -17.35 18.5 -17.6 L18.85 -17.85 19.1 -18.0 20.3 -18.4 20.6 -18.35 21.2 -18.05 21.35 -17.85 21.45 -17.6 21.45 -17.2 21.35 -17.0 21.2 -16.75 21.05 -16.55 20.6 -16.4 20.25 -16.25 19.15 -15.1 18.3 -14.55 18.2 -14.4 18.1 -14.15 17.9 -14.0 Q18.65 -14.45 19.45 -14.6 L20.3 -14.7 20.7 -14.55 20.9 -14.4 21.1 -14.15 21.1 -13.95 21.05 -13.55 20.9 -13.35 20.6 -13.1 20.3 -12.85 20.2 -12.7 20.05 -12.45 19.8 -12.25 19.45 -12.0 19.4 -11.85 19.1 -11.45 18.95 -11.0 19.05 -10.85 19.1 -11.0 19.7 -11.25 20.0 -11.4 20.25 -11.6 20.35 -11.7 20.55 -11.8 20.85 -11.9 21.25 -11.7 21.5 -11.55 21.65 -11.3 21.7 -11.1 21.7 -10.7 21.6 -10.45 21.35 -10.1 21.15 -9.85 Q20.45 -9.45 19.75 -9.3 L19.75 -9.25 19.9 -9.15 21.45 -9.3 22.85 -9.35 23.25 -9.15 23.45 -9.0 23.65 -8.8 23.7 -8.55 23.65 -8.4 23.6 -8.15 23.2 -7.7 23.0 -7.45 22.85 -7.3 22.55 -7.1 22.55 -6.6 22.55 -6.45 22.55 -6.25 22.55 -6.0 22.55 -5.95 22.6 -5.9 22.8 -5.65 22.85 -5.45 22.8 -5.25 22.75 -5.05 22.85 -4.6 23.0 -4.2 23.15 -3.75 Q24.55 -2.2 26.3 -1.2 L27.6 -0.1 28.45 0.3 28.8 0.5 28.95 0.75 29.1 0.9 29.25 1.15 30.05 1.8 30.7 2.6 30.7 2.85 30.7 3.05 30.6 3.25 30.5 3.45 29.9 3.55 28.85 3.55 25.55 1.1 24.3 -0.3 22.7 -1.4 21.7 -2.2 21.55 -1.8 21.45 -1.2 21.45 -0.85 21.45 -0.8 21.5 -0.55 21.6 -0.35 21.75 0.05 21.9 0.3 22.85 1.35 24.0 2.2 24.15 2.4 24.3 2.6 24.6 2.85 24.7 3.05 24.85 3.3 25.05 3.7 25.1 3.9 25.05 4.1 25.0 4.3 24.9 4.55 24.75 4.7 24.25 4.75 23.2 4.7 23.0 4.45 22.85 4.25 22.8 4.0 22.0 3.4 21.2 3.0 Q20.25 1.95 18.9 1.4 L18.25 1.2 18.0 1.6 18.0 1.65 18.95 3.0 20.25 5.05 20.45 5.25 20.65 5.45 20.8 5.65 20.85 5.9 20.85 6.1 20.85 6.5 20.8 6.75 20.7 6.9 20.6 7.15 20.35 7.3 20.0 7.35 19.5 7.25 19.05 6.8 18.6 6.15 18.35 5.95 18.05 5.7 17.8 5.55 17.45 5.2 16.5 4.45 16.4 4.35 15.75 4.4 15.95 4.8 16.15 5.45 16.3 5.9 18.2 9.0 19.55 11.4 19.75 12.05 19.75 12.25 19.7 12.45 19.5 12.7 19.3 12.85 18.9 13.0 18.35 12.9 18.2 12.7 18.05 12.45 17.5 12.05 17.45 11.85 17.45 11.6 17.45 11.4 16.5 9.9 15.7 8.2 15.65 8.0 13.6 6.45 13.45 6.35 13.05 6.6 12.45 7.4 13.3 9.05 14.8 11.15 15.25 11.6 15.35 11.85 15.5 12.05 15.7 12.45 15.75 12.7 15.7 12.85 15.65 13.1 15.55 13.3 15.45 13.5 14.9 13.55 13.85 13.5 13.65 13.25 13.5 13.0 13.3 12.65 12.9 12.15 12.6 11.7 12.55 11.55 12.3 11.3 12.1 11.1 11.8 10.7 11.6 10.45 11.25 10.25 11.0 10.0 10.85 9.85 10.6 9.65 10.2 9.45 10.0 9.3 9.7 9.75 9.3 10.35 9.05 10.75 8.95 11.0 8.95 11.2 8.95 11.6 8.95 11.85 8.9 12.0 8.85 12.25 8.75 12.45 8.65 12.65 8.45 12.7 8.15 12.75 7.9 12.85 7.8 13.0 7.6 13.25 7.4 13.4 7.0 13.6 6.45 13.55 5.9 13.5 5.45 12.85 5.2 12.35 4.4 13.1 4.45 13.25 4.45 13.5 4.6 13.65 4.8 13.85 5.0 14.35 5.0 14.5 5.0 14.7 5.4 15.55 5.85 16.65 5.85 16.85 5.85 17.05 5.8 17.25 5.65 17.5 5.4 17.65 5.25 17.95 5.25 18.1 6.5 20.2 Q7.2 21.1 7.5 22.15 L7.55 22.35 7.5 22.6 7.4 22.75 7.3 23.0 7.05 23.1 6.7 23.2 6.45 23.2 5.9 23.1 5.45 22.5 4.95 21.35 4.9 21.2 Q2.95 19.15 0.45 18.25 L-0.4 18.1 -0.6 18.2 -2.2 19.35 -3.75 20.15 -4.0 20.4 -4.1 20.55 -4.25 20.6 -4.6 20.65 -5.05 20.5 -5.3 20.35 -5.4 20.1 -5.45 19.85 -5.45 19.5 -5.45 19.25 -5.3 19.0 -5.1 18.85 -4.65 18.4 -4.6 18.2 -4.55 18.0 -4.35 17.8 -4.05 17.55 -3.7 17.15 Q-4.25 17.2 -4.8 17.55 -5.35 18.0 -6.05 18.1 L-6.5 17.95 -6.7 17.8 -6.8 17.55 -6.9 17.35 -6.9 17.15 -6.8 16.95 -6.65 16.7 -6.25 16.3 -5.6 15.65 -5.75 15.55 -6.2 15.4 -6.45 15.25 -6.55 15.0 -6.6 14.8 -6.6 14.6 -6.55 14.5 -8.9 14.35 -8.95 14.25 Q-10.2 14.85 -11.4 15.7 L-12.5 16.35 -12.65 16.6 -12.8 16.75 -13.05 16.85 -13.4 17.0 -13.65 17.0 -14.15 16.8 -14.35 16.65 -14.45 16.4 -14.5 16.2 -14.5 16.0 -14.4 15.8 -14.35 15.55 -14.15 15.15 -13.95 14.95 -13.75 14.85 -13.35 14.65 -13.1 14.45 -12.95 14.2 -12.55 13.8 -12.5 13.6 -12.35 13.35 -11.85 12.75 -11.4 12.0 -11.4 11.95 -11.4 11.8 -11.4 11.45 -11.45 11.5 -12.1 11.7 -12.3 11.9 -12.5 12.1 -12.7 12.3 -13.1 12.45 -13.4 12.45 -13.85 12.3 -14.05 12.1 -14.2 11.9 -14.25 11.65 -14.25 11.5 -14.2 11.25 -13.6 10.65 -12.7 9.5 -12.55 9.1 -12.8 9.25 -13.05 9.3 -13.4 9.35 -13.65 9.35 -14.15 9.15 -14.35 9.0 -14.45 8.8 -14.5 8.55 -14.5 8.4 -14.5 8.15 -14.35 7.7 -13.85 6.85 -13.5 6.45 -15.45 6.95 Q-16.1 7.25 -16.6 6.75 L-16.75 6.5 -16.8 6.3 -16.8 6.15 -17.4 6.1 -17.7 5.9 -17.9 5.65 -18.0 5.5 Q-19.9 6.25 -21.6 7.35 L-22.8 8.1 -23.0 8.25 -23.25 8.5 -23.35 8.65 -23.55 8.7 -23.85 8.8 -24.3 8.6 -24.55 8.45 -24.65 8.2 -24.7 8.0 -24.7 7.6 -24.7 7.35 -22.05 4.55 -19.9 1.85 Q-21.0 2.0 -22.2 2.55 L-23.0 3.15 -23.25 3.3 -23.6 3.4 -24.05 3.25 -24.25 3.05 -24.35 2.85 -24.45 2.6 -24.45 2.45 -24.35 2.2 -24.2 2.0 -24.0 1.75 -23.6 1.35 -23.4 0.9 -22.7 -0.15 -22.4 -0.55 -22.4 -0.75 Q-23.3 -0.5 -24.0 0.15 L-24.45 0.3 -24.7 0.3 -25.15 0.1 -25.4 -0.05 -25.5 -0.3 -25.55 -0.5 -25.55 -0.7 -25.45 -0.9 -25.35 -1.15 -25.0 -1.6 -24.95 -1.75 -24.5 -2.15 -23.3 -2.9 -23.05 -3.1 -22.85 -3.35 -22.7 -3.5 -22.5 -3.75 -22.45 -3.95 -22.3 -4.2 -22.15 -4.35 -22.15 -4.6 -22.15 -4.8 -22.0 -5.05 -21.6 -5.5 -21.3 -5.9 -21.3 -6.05 -21.2 -6.3 -21.1 -6.5 -20.85 -6.75 -20.8 -6.95 -20.75 -7.15 -21.25 -7.2 -21.45 -7.2 -21.6 -7.0 -21.85 -6.85 -22.15 -6.8 -22.45 -6.8 -22.95 -6.9 -23.15 -7.15 -23.3 -7.3 -23.35 -7.35 -23.8 -7.55 -24.35 -7.75 -24.55 -8.0 -24.7 -8.2 -24.75 -8.45 -24.95 -8.6 -25.1 -8.85 -25.35 -9.05 -25.8 -9.45 -25.85 -9.9 -25.85 -10.55 -25.85 -10.75 -25.85 -11.0 -25.85 -11.15 -25.75 -11.4 -25.7 -11.6 -25.45 -12.0 -25.3 -12.25 -24.5 -12.55 -23.0 -12.85 -23.0 -13.1 -23.0 -13.3 -23.0 -13.55 -22.95 -13.95 -22.8 -14.15 -22.55 -14.4 -22.4 -14.55 -22.15 -14.8 -19.95 -15.1 -20.0 -15.35 -20.15 -15.55 -20.2 -15.8 -20.4 -15.95 -20.6 -16.2 -20.7 -16.4 -20.75 -16.65 -20.75 -16.8 -20.9 -17.05 -21.1 -17.25 -21.25 -17.5 -21.3 -17.7 -21.3 -17.9 -21.3 -18.1 -21.25 -18.5 -21.05 -18.75 -20.8 -18.85 -20.45 -18.9 -20.45 -18.95 -20.2 -18.9 -19.75 -18.8 -19.5 -18.65 -19.3 -18.4 -19.1 -18.25 -17.0 -18.2 -16.85 -18.35 -16.55 -18.5 -16.15 -18.75 -15.75 -18.9 -15.35 -18.9 -15.35 -18.95 -14.45 -19.0 -14.25 -19.5 -14.0 -19.85 -14.0 -23.25 Q-14.15 -25.15 -13.75 -26.9 L-13.6 -27.0 -13.45 -27.05 -13.1 -27.2 -12.7 -27.0 -12.5 -26.85 Q-12.2 -26.55 -12.2 -26.2 L-11.85 -25.15 -11.75 -24.9 -11.7 -24.7 -11.7 -24.45 -11.45 -24.05 -11.2 -23.45 -11.15 -23.2 -11.15 -23.0 -11.15 -22.75 -11.15 -22.6 -11.05 -22.35 Q-10.65 -22.7 -10.8 -23.7 L-10.85 -25.8 -10.85 -26.05 -10.65 -26.2 -10.0 -26.6 -9.6 -26.45 -9.35 -26.25 Q-9.05 -25.7 -9.1 -24.95 L-9.15 -23.25 -9.15 -23.05 -9.1 -22.85 -8.95 -22.65 -8.85 -22.2 -8.85 -22.05 -8.85 -21.55 -8.85 -20.95 -8.7 -20.55 -8.3 -19.7 -8.1 -19.5 -8.05 -19.7 -8.0 -19.85 -8.0 -20.1 -7.55 -20.95 -7.05 -22.2 -6.95 -22.4 -6.9 -22.65 -6.9 -22.85 -6.9 -23.05 -6.9 -23.25 -6.7 -23.7 -6.45 -24.35 -6.3 -24.55 -6.3 -26.25 -6.3 -28.35 -6.3 -28.6 -6.15 -28.75 -5.45 -29.1 -5.45 -29.15 -5.05 -29.0 -4.85 -28.8 Q-4.45 -26.95 -4.55 -24.95 L-4.6 -21.2 -4.55 -21.1 -4.4 -21.1 -4.05 -21.25 -3.75 -21.2 -3.15 -20.9 -2.9 -20.45 -2.4 -19.6 -2.3 -19.5 -2.2 -19.55 -1.95 -19.95 -1.6 -20.6 -1.45 -20.8 -1.2 -21.0 -1.0 -21.1 -0.65 -21.25 -0.25 -21.05 -0.05 -20.9 0.1 -20.65 0.2 -20.2 0.2 -19.6 0.3 -19.6 0.55 -19.85 0.75 -20.35 0.75 -21.2 0.75 -22.4 0.75 -22.65 0.95 -22.8 1.6 -23.2 2.0 -23.05 2.25 -22.85 Q2.6 -22.3 2.5 -21.55 L2.45 -20.1 2.45 -19.85 2.5 -19.65 2.7 -19.25 2.9 -18.65 Q3.05 -18.5 3.15 -18.65 L3.25 -18.9 Q3.3 -19.4 3.7 -19.75 L3.95 -19.95 4.4 -20.8 5.0 -21.85 5.25 -21.95 5.6 -22.1 5.95 -21.9 6.2 -21.75 6.35 -21.3 6.45 -20.65 6.45 -20.2 6.5 -20.05 6.6 -19.8 6.65 -19.6 6.75 -19.65 7.0 -20.05 7.2 -20.45 7.3 -20.65 7.3 -20.9 7.3 -21.05 7.3 -21.3 7.45 -21.7 7.95 -22.6 8.05 -22.75 8.05 -25.3 Q7.95 -26.9 8.35 -28.3 L8.45 -28.4 8.65 -28.5 8.95 -28.6 9.35 -28.4 9.6 -28.25 M14.65 -19.65 L14.65 -19.75 14.5 -19.65 14.65 -19.65 M10.75 -15.7 L5.7 -15.65 6.1 -15.35 6.2 -15.1 6.3 -14.95 6.35 -14.7 6.45 -14.5 6.45 -14.25 6.35 -14.1 6.25 -13.85 6.15 -13.65 5.95 -13.5 5.7 -13.25 5.45 -13.1 5.0 -13.0 4.4 -13.15 4.05 -13.35 3.35 -13.8 3.1 -14.0 2.75 -14.2 -0.6 -15.4 -0.9 -15.5 -1.2 -15.5 -1.45 -15.35 -1.8 -15.3 -2.3 -15.4 -2.45 -15.55 -14.85 -15.7 -14.9 -15.45 -15.3 -14.8 -15.65 -14.15 -15.9 -13.95 -16.05 -13.7 -16.15 -13.55 -16.2 -13.3 -16.2 -13.1 -16.4 -12.7 -16.75 -12.05 -17.05 -11.6 -17.05 -11.4 -17.15 -11.15 -17.25 -11.0 -17.35 -10.75 -17.4 -10.55 -17.6 -10.3 -17.65 -9.9 -17.65 -9.3 -17.65 -8.6 -17.45 -8.2 -17.3 -7.75 -17.05 -7.15 -17.05 -6.9 -17.05 -6.75 -17.05 -6.5 -17.05 -6.3 -17.0 -6.05 -16.9 -5.9 -16.85 -5.65 -16.8 -5.45 -16.8 -4.6 -16.8 -3.1 -16.75 -2.5 -16.6 -2.25 -16.45 -2.1 -16.2 -2.0 -15.65 -1.8 -15.3 -1.65 -15.1 -1.4 -15.0 -1.2 -14.85 -0.95 -14.75 -0.4 -12.55 2.0 -11.95 2.65 -11.85 2.7 -11.65 2.9 -11.45 3.1 -11.4 3.35 -10.85 3.95 -10.8 4.0 -10.65 4.2 -9.5 5.45 -9.2 5.65 -8.9 5.9 -8.8 6.1 -8.7 6.3 -8.65 6.5 -8.4 6.75 -8.1 6.95 -7.6 7.8 -6.95 9.05 -6.7 9.7 -6.6 9.9 -6.2 10.35 -5.8 11.0 -5.75 11.2 -5.75 11.25 -5.1 11.05 -4.05 10.75 -3.65 10.95 -3.45 11.1 -3.25 11.3 -3.2 11.55 -3.2 11.8 -3.3 11.95 -3.45 12.15 -3.5 12.35 Q-2.95 12.5 -2.5 12.7 L-2.3 12.8 -2.1 13.0 -2.05 13.25 -2.05 13.5 -2.05 13.65 -2.1 13.85 -2.3 14.1 -2.45 14.35 -2.85 14.55 -2.9 14.7 -2.9 14.8 -1.9 15.1 -2.0 15.0 -2.05 14.8 -2.05 14.6 -2.05 14.4 -2.0 13.95 -1.9 13.75 -1.75 13.55 -1.5 13.3 -1.25 13.1 -1.0 12.45 0.15 11.2 0.45 11.0 0.5 10.75 0.5 9.9 0.5 9.5 0.55 9.3 0.65 9.05 0.75 8.85 0.8 8.65 1.05 8.45 1.25 8.2 1.5 8.0 Q2.65 7.35 3.9 7.7 L3.95 7.6 4.75 7.4 5.5 7.35 5.6 7.2 5.6 7.0 5.6 6.8 5.65 6.55 Q5.95 6.0 6.55 5.5 L8.15 4.0 8.25 3.8 8.35 3.6 8.4 3.4 8.6 3.0 8.75 2.75 8.95 2.55 9.35 2.2 9.3 2.15 9.25 1.95 9.25 1.7 9.25 1.45 9.3 1.3 10.55 -0.3 12.3 -1.8 12.55 -1.85 12.95 -1.95 12.95 -2.0 13.5 -1.8 13.65 -1.75 14.8 -3.35 15.65 -5.3 15.85 -5.95 16.0 -6.15 16.2 -6.35 16.6 -6.8 16.85 -7.0 16.9 -7.4 16.9 -8.05 16.9 -8.7 16.75 -8.9 16.55 -9.1 16.35 -9.35 16.2 -9.55 16.1 -9.75 16.05 -9.95 16.0 -10.2 15.85 -10.4 15.65 -10.6 15.45 -10.8 15.2 -11.05 15.1 -11.25 15.0 -11.45 14.85 -11.65 14.45 -12.1 13.8 -12.75 13.4 -13.15 13.3 -13.35 13.2 -13.6 13.1 -13.8 13.0 -14.0 12.7 -14.2 12.35 -14.45 12.15 -14.65 11.45 -14.85 11.2 -15.05 10.95 -15.3 10.85 -15.5 10.75 -15.7 M8.4 -18.9 L8.3 -18.45 8.3 -18.4 8.65 -18.4 8.6 -18.8 8.45 -19.0 8.4 -18.9 M5.1 -18.55 L5.0 -18.5 5.3 -18.5 5.1 -18.55 M19.75 -6.85 L20.05 -7.2 19.75 -7.25 19.75 -6.85 M19.9 -0.05 L19.75 -0.4 19.6 -0.25 19.6 -0.15 19.9 -0.05 M20.65 -4.7 L20.75 -4.45 20.9 -4.25 20.9 -4.3 20.85 -4.75 20.7 -4.85 20.6 -4.85 20.65 -4.7 M-6.3 -18.75 L-6.35 -18.95 -6.5 -18.8 -6.3 -18.75 M-3.9 -18.55 L-4.05 -18.55 -4.1 -18.5 -3.9 -18.5 -3.8 -18.5 -3.9 -18.55 M-12.1 -21.0 L-12.2 -20.8 -12.25 -20.15 -12.25 -19.75 -12.3 -19.55 -12.55 -19.1 -11.65 -19.1 -11.65 -19.15 -11.75 -19.55 -11.9 -20.0 -12.05 -20.6 -12.1 -21.0 M-18.0 -16.3 L-18.45 -16.1 -18.2 -15.85 -18.15 -16.1 -18.05 -16.25 -18.0 -16.3 M-19.95 -12.95 L-19.9 -12.75 -19.9 -12.5 -19.9 -12.45 -19.85 -12.7 -19.75 -12.85 -19.6 -12.95 -19.95 -12.95 M-19.4 4.2 L-19.4 4.15 -19.45 4.2 -19.4 4.2" fill="#ffffff" fill-rule="evenodd" stroke="none"/>
  </g>
</svg>
