<?xml version="1.0" encoding="UTF-8" standalone="no"?>
<svg xmlns:ffdec="https://www.free-decompiler.com/flash" xmlns:xlink="http://www.w3.org/1999/xlink" ffdec:objectType="shape" height="26.9px" width="32.25px" xmlns="http://www.w3.org/2000/svg">
  <g transform="matrix(1.0, 0.0, 0.0, 1.0, 18.75, 11.9)">
    <path d="M-2.2 14.85 L-2.2 14.75 -2.15 14.85 -2.2 14.85" fill="#26bf00" fill-rule="evenodd" stroke="none"/>
    <path d="M-11.25 -10.7 L-11.3 -10.9 -11.05 -10.75 -11.25 -10.7" fill="#33ff00" fill-rule="evenodd" stroke="none"/>
    <path d="M-2.6 14.45 L-3.0 14.5 -2.6 14.35 -2.6 14.45" fill="#00ccff" fill-rule="evenodd" stroke="none"/>
    <path d="M-0.45 13.0 Q-1.2 13.85 -1.75 15.0 L-2.2 14.85 -2.15 14.85 -0.45 13.0" fill="#990000" fill-rule="evenodd" stroke="none"/>
    <path d="M-10.25 -10.65 L-10.25 -10.45 -10.55 -10.55 -10.25 -10.65" fill="#dddddd" fill-opacity="0.29803923" fill-rule="evenodd" stroke="none"/>
    <path d="M-13.8 -10.35 L-13.05 -11.1 Q-12.35 -11.65 -11.55 -11.7 -11.2 -11.7 -11.05 -11.9 L-0.1 -11.65 2.4 -11.1 1.9 -10.75 1.75 -10.55 1.65 -10.35 1.65 -10.0 1.65 -9.75 1.65 -9.55 1.9 -9.05 Q2.2 -8.25 3.1 -8.0 3.35 -7.8 3.7 -7.55 L4.1 -6.9 4.9 -6.2 5.2 -5.95 Q5.2 -5.8 5.35 -5.8 L5.45 -5.65 5.45 -5.45 5.55 -5.25 5.55 -4.85 5.55 -4.65 5.55 -4.55 5.55 -4.35 4.1 -0.15 Q3.35 2.05 2.1 4.25 0.05 8.3 -2.4 11.85 L-2.85 10.8 -3.4 9.55 -3.4 9.45 -3.4 9.2 -3.4 9.15 -3.65 8.6 -4.45 7.0 -5.1 5.6 -5.1 5.4 -5.15 4.85 -5.4 4.35 -5.75 4.15 -5.85 3.6 -6.25 1.95 -6.95 0.75 -7.9 -1.05 Q-8.6 -2.15 -9.95 -2.15 L-10.4 -2.95 -10.5 -3.3 -10.5 -3.5 -10.55 -3.6 -10.5 -3.7 -10.4 -3.9 -10.4 -4.0 Q-9.8 -4.65 -9.15 -4.85 L-4.3 -6.55 -3.95 -7.0 -3.85 -7.45 -3.7 -7.55 -0.75 -8.1 Q-0.55 -8.1 -0.3 -8.25 L-0.1 -8.6 0.05 -8.85 0.15 -9.2 0.15 -9.35 0.15 -9.65 0.05 -10.0 -0.1 -10.35 -0.2 -10.55 Q-0.75 -10.95 -1.65 -10.95 L-7.5 -11.1 -10.25 -10.65 -10.55 -10.55 -10.85 -10.55 -10.4 -10.9 -11.05 -10.75 -11.3 -10.9 -12.1 -11.1 Q-13.05 -10.9 -13.8 -10.35" fill="#494949" fill-rule="evenodd" stroke="none"/>
    <path d="M-3.0 14.5 L-3.55 14.65 -6.6 10.7 -6.7 10.45 -6.7 10.35 -6.7 10.15 -7.4 8.8 -8.4 7.3 -8.6 7.0 -8.6 6.9 -8.6 6.7 -9.25 5.95 Q-9.6 5.25 -10.4 4.95 L-11.15 5.4 Q-11.15 4.95 -11.95 4.85 -12.7 4.7 -12.5 3.6 -12.35 2.35 -12.6 2.2 L-12.9 1.5 -13.4 0.95 -13.85 0.15 -14.75 -1.05 -14.9 -1.15 -15.15 -1.25 -15.25 -1.4 -15.35 -1.5 -15.35 -1.35 -15.45 -1.7 -15.7 -1.9 -15.7 -2.15 -15.7 -2.4 -15.8 -2.4 -15.8 -2.5 -16.2 -3.15 -16.45 -3.15 -16.9 -3.3 -17.1 -3.5 -17.4 -3.75 -17.65 -4.0 -18.75 -4.65 -18.05 -4.55 -18.05 -4.65 -18.05 -4.85 -17.9 -5.15 -17.8 -5.45 -17.25 -6.0 -16.75 -6.55 -16.75 -6.75 -16.75 -7.0 -16.65 -7.1 -16.65 -7.2 -16.2 -7.7 -15.45 -8.5 -15.35 -8.65 -13.85 -10.2 -13.8 -10.35 Q-13.05 -10.9 -12.1 -11.1 L-11.3 -10.9 -11.25 -10.7 Q-12.3 -10.55 -12.8 -10.0 L-13.8 -8.75 -13.85 -8.65 Q-14.65 -8.0 -14.9 -7.1 L-15.0 -6.15 -14.45 -5.15 Q-13.8 -4.45 -12.8 -4.35 -11.8 -4.45 -11.05 -5.15 -10.4 -5.65 -10.25 -6.55 L-9.6 -7.0 -9.25 -7.55 -9.15 -8.1 -9.15 -8.75 -9.25 -9.35 -9.45 -9.85 -10.25 -10.45 -10.25 -10.65 -7.5 -11.1 -1.65 -10.95 Q-0.75 -10.95 -0.2 -10.55 L-0.1 -10.35 0.05 -10.0 0.15 -9.65 0.15 -9.35 0.15 -9.2 0.05 -8.85 -0.1 -8.6 -0.3 -8.25 Q-0.55 -8.1 -0.75 -8.1 L-3.7 -7.55 -3.85 -7.45 -3.95 -7.0 -4.3 -6.55 -9.15 -4.85 Q-9.8 -4.65 -10.4 -4.0 L-10.4 -3.9 -10.5 -3.7 -10.55 -3.6 -10.5 -3.5 -10.5 -3.3 -10.4 -2.95 -9.95 -2.15 Q-8.6 -2.15 -7.9 -1.05 L-6.95 0.75 -6.25 1.95 -5.85 3.6 -5.75 4.15 -5.4 4.35 -5.15 4.85 -5.1 5.4 -5.1 5.6 -4.45 7.0 -3.65 8.6 -3.4 9.15 -3.4 9.2 -3.4 9.45 -3.4 9.55 -2.85 10.8 -2.4 11.85 -2.6 12.1 -2.75 12.8 -2.85 13.2 -2.85 13.55 -2.85 13.7 -2.75 13.95 -2.6 14.35 -3.0 14.5" fill="#747474" fill-rule="evenodd" stroke="none"/>
    <path d="M-10.25 -10.45 L-9.45 -9.85 -9.25 -9.35 -9.15 -8.75 -9.15 -8.1 -9.25 -7.55 -9.6 -7.0 -10.25 -6.55 Q-10.4 -5.65 -11.05 -5.15 -11.8 -4.45 -12.8 -4.35 -13.8 -4.45 -14.45 -5.15 L-15.0 -6.15 -14.9 -7.1 Q-14.65 -8.0 -13.85 -8.65 L-13.8 -8.75 -12.8 -10.0 Q-12.3 -10.55 -11.25 -10.7 L-11.05 -10.75 -10.4 -10.9 -10.85 -10.55 -10.55 -10.55 -10.25 -10.45" fill="#959595" fill-rule="evenodd" stroke="none"/>
    <path d="M2.4 -11.1 L2.45 -11.3 3.35 -11.5 3.7 -11.4 4.25 -11.1 4.9 -10.95 5.05 -11.2 5.65 -11.65 6.4 -11.9 Q7.3 -11.9 8.1 -11.5 L13.05 -5.15 13.05 -4.8 13.05 -4.55 13.2 -4.45 13.3 -4.0 13.5 -3.7 13.3 -3.15 8.75 2.2 8.55 2.35 -0.45 13.0 -2.15 14.85 -2.2 14.75 -2.4 14.65 -2.6 14.45 -2.6 14.35 -2.75 13.95 -2.85 13.7 -2.85 13.55 -2.85 13.2 -2.75 12.8 -2.6 12.1 -2.4 11.85 Q0.05 8.3 2.1 4.25 3.35 2.05 4.1 -0.15 L5.55 -4.35 5.55 -4.55 5.55 -4.65 5.55 -4.85 5.55 -5.25 5.45 -5.45 5.45 -5.65 5.35 -5.8 Q5.2 -5.8 5.2 -5.95 L4.9 -6.2 4.1 -6.9 3.7 -7.55 Q3.35 -7.8 3.1 -8.0 2.2 -8.25 1.9 -9.05 L1.65 -9.55 1.65 -9.75 1.65 -10.0 1.65 -10.35 1.75 -10.55 1.9 -10.75 2.4 -11.1" fill="#363636" fill-rule="evenodd" stroke="none"/>
  </g>
</svg>
