<?xml version="1.0" encoding="UTF-8" standalone="no"?>
<svg xmlns:ffdec="https://www.free-decompiler.com/flash" xmlns:xlink="http://www.w3.org/1999/xlink" ffdec:objectType="shape" height="27.75px" width="31.55px" xmlns="http://www.w3.org/2000/svg">
  <g transform="matrix(1.0, 0.0, 0.0, 1.0, 15.8, 14.45)">
    <path d="M-10.25 11.9 L-10.35 11.85 -10.45 11.75 -10.45 11.7 -10.4 11.7 -10.35 11.6 -10.3 11.6 -10.25 11.5 -10.2 11.45 -10.2 11.55 -10.2 11.65 -10.2 11.7 -10.25 11.9 M-9.4 4.4 L-9.25 4.35 -9.25 4.4 -9.15 4.5 -9.2 4.5 -9.3 4.45 -9.4 4.4" fill="#000000" fill-rule="evenodd" stroke="none"/>
    <path d="M-13.75 4.3 L-13.75 4.25 -13.7 4.25 -13.75 4.3" fill="#333333" fill-rule="evenodd" stroke="none"/>
    <path d="M-13.65 2.9 L-13.45 2.7 -13.55 2.85 -13.65 2.9 M-12.55 1.25 L-12.55 1.2 -12.3 0.85 -12.55 1.25 M2.65 -8.0 L2.65 -8.05 2.65 -8.0" fill="#626262" fill-rule="evenodd" stroke="none"/>
    <path d="M14.65 4.8 L14.75 4.95 14.85 5.15 14.85 5.2 14.9 5.25 14.9 5.3 14.9 5.4 14.85 5.45 14.85 5.55 14.8 5.65 14.75 5.7 14.7 5.8 14.65 5.85 14.4 6.0 14.35 6.1 13.95 6.15 13.75 6.25 13.75 6.3 13.65 6.45 13.5 6.6 13.25 6.8 13.2 7.0 13.1 7.15 12.9 7.35 12.85 7.45 12.35 8.4 11.6 9.55 11.4 9.85 11.35 9.9 11.2 10.0 11.1 10.1 10.95 10.1 10.95 10.15 11.15 10.4 11.35 10.75 11.4 10.85 11.4 10.95 11.5 11.05 11.55 11.15 11.55 11.25 11.6 11.3 11.6 11.4 11.6 11.45 11.55 11.55 11.55 11.65 11.45 11.75 11.4 11.85 11.4 11.95 11.15 12.1 11.05 12.15 10.95 12.15 10.75 12.2 10.7 12.2 10.65 12.1 10.45 11.9 10.3 11.75 Q9.95 10.9 8.55 9.5 L8.35 9.3 8.0 8.85 7.9 8.75 7.9 8.7 7.85 8.65 7.85 8.55 7.75 8.45 7.7 8.45 7.05 7.75 7.6 6.95 8.5 5.45 9.25 4.1 9.25 4.05 9.35 3.8 9.45 4.0 Q9.5 3.85 9.7 3.8 L10.25 4.1 11.95 4.45 12.7 4.65 12.85 4.65 13.25 4.9 14.0 5.15 Q14.55 5.15 14.65 4.8" fill="#c64f00" fill-rule="evenodd" stroke="none"/>
    <path d="M4.05 -13.1 L4.25 -13.3 Q4.65 -13.6 4.7 -12.95 L4.9 -12.45 4.85 -12.1 5.05 -12.0 5.25 -11.9 5.3 -11.8 5.35 -11.75 5.35 -11.65 5.35 -11.55 5.35 -11.5 5.4 -11.4 5.4 -11.35 5.4 -11.2 5.35 -11.1 5.75 -9.6 5.85 -9.25 6.05 -9.2 Q6.8 -8.6 7.2 -7.65 L7.45 -7.05 7.75 -6.4 8.65 -5.0 9.0 -4.45 9.05 -4.35 9.15 -4.3 9.3 -4.2 9.35 -4.15 9.45 -3.9 9.7 -3.6 10.0 -3.3 10.5 -2.45 11.15 -1.35 11.4 -0.9 11.45 -0.85 11.5 -0.75 11.55 -0.65 11.6 -0.6 11.65 -0.5 11.65 -0.4 11.65 -0.3 11.65 -0.2 11.65 -0.15 11.65 -0.05 11.65 0.05 11.65 0.1 11.7 0.15 11.75 0.25 11.75 0.3 12.3 0.95 12.95 1.9 13.05 2.0 13.25 2.0 13.55 2.1 13.7 2.2 13.8 2.25 13.9 2.3 13.95 2.4 13.95 2.45 14.0 2.55 14.0 2.65 14.0 2.7 14.05 2.8 14.05 2.9 14.2 2.95 14.15 3.0 14.15 3.1 14.1 3.15 14.05 3.25 14.05 3.35 14.05 3.45 14.05 3.55 14.05 3.65 14.5 3.95 14.4 4.25 14.65 4.65 14.65 4.8 Q14.55 5.15 14.0 5.15 L13.25 4.9 12.85 4.65 12.7 4.65 11.95 4.45 10.25 4.1 9.7 3.8 Q9.5 3.85 9.45 4.0 L9.35 3.8 9.45 3.6 9.45 3.5 8.7 2.2 7.25 -0.2 7.0 -0.6 6.3 -1.5 4.85 -4.2 4.25 -5.1 2.65 -7.8 2.65 -7.9 2.65 -8.0 2.65 -8.05 Q2.2 -8.05 2.35 -8.5 L3.15 -11.15 3.7 -12.45 4.05 -13.1 M-10.45 11.75 L-10.45 11.8 -10.55 11.9 -10.65 11.95 -10.65 12.0 -10.9 11.75 -11.3 11.4 -11.5 11.05 -11.7 10.6 -11.85 10.25 -12.0 9.9 -12.05 9.85 -12.05 9.75 -12.1 9.7 -12.2 9.6 -12.3 9.45 -12.3 9.3 -12.4 9.15 -12.5 9.0 -12.5 8.9 -12.6 8.5 -12.65 8.3 -12.75 8.05 -12.75 8.0 -12.75 7.9 -12.8 7.85 -12.85 7.7 -12.9 7.5 -12.95 7.45 -12.95 7.3 -13.0 7.25 -13.0 7.15 -13.05 7.05 -13.1 7.0 -13.2 6.9 -13.5 6.7 -13.8 6.6 -13.75 6.55 -13.75 6.45 -13.7 6.35 -13.7 6.3 -13.7 6.2 -13.7 6.15 -13.75 6.05 -13.75 6.0 -13.8 5.9 -13.85 5.85 -13.85 5.75 -14.15 5.4 -14.45 5.05 -14.6 4.8 -14.7 4.75 -14.7 4.7 -14.65 4.6 -14.6 4.55 -14.55 4.5 -14.4 4.3 -14.2 4.25 -14.1 4.25 -13.9 4.2 -13.75 4.25 -13.75 4.3 Q-14.4 4.5 -14.4 4.7 -14.45 5.15 -13.95 5.15 L-13.7 5.05 -12.6 4.9 -11.45 4.65 -9.45 4.4 -9.4 4.4 -9.3 4.45 -9.2 4.5 -9.15 4.5 -8.9 4.7 -8.75 4.9 -8.15 6.0 -7.2 7.5 -8.5 8.9 -10.0 11.2 -10.05 11.2 -10.2 11.4 -10.2 11.45 -10.25 11.5 -10.3 11.6 -10.35 11.6 -10.4 11.7 -10.45 11.7 -10.45 11.75" fill="#ff6600" fill-rule="evenodd" stroke="none"/>
    <path d="M-1.65 -8.05 L-1.6 -8.05 Q-1.35 -8.05 -1.2 -8.2 L-0.3 -8.2 1.65 -8.2 2.65 -8.0 2.65 -7.9 2.65 -7.8 4.25 -5.1 4.85 -4.2 6.3 -1.5 7.0 -0.6 7.25 -0.2 8.7 2.2 9.45 3.5 9.45 3.6 9.35 3.8 9.25 4.05 9.25 4.1 8.5 5.45 7.6 6.95 7.05 7.75 6.95 7.7 6.85 7.7 6.6 7.65 Q5.95 7.5 4.7 7.65 L0.75 8.0 -2.3 7.8 -3.95 8.0 -4.3 7.95 -4.7 7.9 -4.85 7.85 -6.6 7.7 -6.7 7.7 -6.85 7.7 -7.2 7.5 -8.15 6.0 -8.75 4.9 -8.9 4.7 -9.15 4.5 -9.25 4.4 -9.25 4.35 -9.15 4.3 -9.0 4.25 -9.0 4.1 Q-8.95 3.65 -8.7 3.7 L-7.65 2.25 -7.2 1.45 -7.2 1.25 Q-5.8 -0.6 -2.25 -7.5 L-2.15 -7.6 -2.05 -7.65 -1.95 -7.75 -1.85 -7.8 -1.65 -8.05" fill="#ff7b24" fill-rule="evenodd" stroke="none"/>
    <path d="M-14.7 4.75 L-14.85 4.6 -15.3 4.1 -15.3 4.0 -15.15 3.85 -15.1 3.8 -14.85 3.65 -14.85 3.6 -14.4 3.55 -14.35 3.45 -14.3 3.4 -14.2 3.35 -14.15 3.25 -13.95 3.15 -13.75 3.1 -13.7 3.0 -13.7 2.95 -13.65 2.9 -13.55 2.85 -13.45 2.7 -13.35 2.6 -13.3 2.5 -12.7 1.45 -12.55 1.25 -12.3 0.85 -11.7 0.0 -11.6 -0.25 -10.3 -1.95 -10.15 -2.2 -10.15 -2.25 -10.1 -2.3 -10.05 -2.4 -9.95 -2.45 -9.95 -2.55 -9.95 -2.65 -9.95 -2.7 -9.9 -2.8 -9.85 -2.85 -8.35 -5.6 -7.65 -7.1 -6.8 -9.1 -6.75 -9.2 -6.7 -9.25 -6.65 -9.35 -6.55 -9.5 -6.5 -9.6 -6.5 -9.7 -6.45 -9.8 -6.4 -9.95 -6.35 -10.15 -6.25 -10.2 -6.25 -10.25 -6.25 -10.35 -6.2 -10.4 -6.05 -10.6 -5.85 -10.8 -5.65 -11.05 -5.6 -11.1 -5.6 -11.2 -5.6 -11.3 -5.55 -11.35 -5.55 -11.45 -5.4 -11.55 -5.2 -11.8 -5.1 -11.9 -5.05 -12.0 -5.0 -12.0 -5.1 -12.1 -5.1 -12.2 -5.15 -12.25 -5.2 -12.35 -5.2 -12.45 -5.2 -12.5 -5.2 -12.6 -5.2 -12.7 -5.05 -12.85 -5.0 -12.9 -4.4 -13.0 -4.65 -13.6 Q-4.65 -14.8 -4.05 -13.85 L-4.15 -13.35 -3.0 -10.7 Q-2.0 -8.3 -1.65 -8.05 L-1.85 -7.8 -1.95 -7.75 -2.05 -7.65 -2.15 -7.6 -2.25 -7.5 Q-5.8 -0.6 -7.2 1.25 L-7.2 1.45 -7.65 2.25 -8.7 3.7 Q-8.95 3.65 -9.0 4.1 L-9.0 4.25 -9.15 4.3 -9.25 4.35 -9.4 4.4 -9.45 4.4 -11.45 4.65 -12.6 4.9 -13.7 5.05 -13.95 5.15 Q-14.45 5.15 -14.4 4.7 -14.4 4.5 -13.75 4.3 L-13.7 4.25 -13.75 4.25 -13.9 4.2 -14.1 4.25 -14.2 4.25 -14.4 4.3 -14.55 4.5 -14.6 4.55 -14.65 4.6 -14.7 4.7 -14.7 4.75" fill="#ffc49b" fill-rule="evenodd" stroke="none"/>
    <path d="M-4.05 -13.85 Q-3.95 -14.15 -3.5 -13.6 L-3.45 -13.65 -3.25 -13.75 -3.15 -13.8 -3.0 -13.75 -2.8 -13.7 -2.75 -13.65 -2.6 -13.75 -2.5 -13.75 -2.3 -13.8 -2.2 -13.75 -2.0 -13.7 -1.85 -13.6 -1.8 -13.55 -1.7 -13.5 -1.6 -13.4 -1.6 -13.35 -1.6 -13.25 -1.55 -13.15 -1.55 -13.1 -1.5 -13.05 -1.4 -13.0 -1.2 -13.1 -1.15 -13.15 -1.1 -13.25 Q-0.95 -13.35 -0.9 -13.4 L-0.75 -13.45 -0.65 -13.45 -0.45 -13.5 -0.2 -13.5 0.0 -13.55 0.25 -13.6 0.45 -13.55 0.6 -13.5 0.7 -13.4 0.85 -13.35 0.9 -13.3 0.95 -13.2 1.1 -13.15 1.25 -13.15 1.4 -13.15 1.5 -13.2 1.65 -13.25 1.95 -13.35 2.3 -13.5 2.45 -13.55 2.5 -13.6 2.5 -13.65 2.55 -13.75 2.55 -13.85 2.65 -13.9 2.75 -13.95 2.9 -14.05 3.05 -14.1 3.25 -14.1 3.35 -14.1 3.55 -14.05 3.7 -13.95 3.75 -13.85 3.85 -13.85 3.9 -13.75 3.95 -13.65 3.95 -13.6 4.0 -13.5 4.0 -13.4 4.05 -13.35 4.05 -13.2 4.05 -13.1 3.7 -12.45 3.15 -11.15 2.35 -8.5 Q2.2 -8.05 2.65 -8.05 L2.65 -8.0 1.65 -8.2 -0.3 -8.2 -1.2 -8.2 Q-1.35 -8.05 -1.6 -8.05 L-1.65 -8.05 Q-2.0 -8.3 -3.0 -10.7 L-4.15 -13.35 -4.05 -13.85 M10.7 12.2 L10.8 12.35 10.8 12.4 10.8 12.5 10.85 12.6 10.85 12.65 10.4 12.65 10.35 12.65 10.05 12.85 9.9 12.65 8.85 12.65 8.2 12.8 8.15 12.75 8.0 12.65 7.9 12.6 7.75 12.45 7.7 12.4 7.55 12.2 7.45 12.05 7.45 12.0 7.3 11.95 7.15 11.95 7.0 11.85 6.9 11.75 6.8 11.7 6.75 11.65 6.7 11.6 6.55 11.65 6.45 11.7 5.85 11.8 5.35 11.7 5.2 11.75 5.15 11.8 5.1 11.85 4.95 11.85 4.8 11.9 4.65 11.85 4.45 11.8 4.3 11.7 4.2 11.65 4.15 11.7 4.15 11.8 4.15 11.9 4.1 11.95 4.05 12.05 3.95 12.15 3.8 12.25 3.7 12.35 3.35 12.4 2.9 12.35 2.75 12.25 2.65 12.15 2.55 12.15 2.45 12.25 2.35 12.35 2.1 12.4 2.0 12.4 1.9 12.4 1.75 12.4 1.6 12.35 1.4 12.25 1.35 12.15 1.25 12.15 1.15 12.25 1.0 12.35 0.85 12.4 0.7 12.4 0.5 12.4 0.35 12.35 0.2 12.25 0.1 12.15 0.0 12.25 -0.05 12.3 -0.2 12.4 -0.25 12.45 -0.7 12.5 -1.3 12.25 -1.4 12.35 -1.5 12.4 -1.6 12.4 -1.8 12.4 -1.95 12.4 -2.1 12.35 -2.3 12.25 -2.35 12.15 -2.45 12.1 -2.5 12.15 -2.6 12.15 -2.7 12.25 -2.8 12.35 -3.0 12.4 -3.15 12.4 -3.3 12.4 -3.45 12.35 -3.65 12.25 -3.7 12.3 -3.75 12.35 -3.85 12.4 -3.95 12.5 -4.1 12.6 -4.2 12.6 -4.4 12.65 -4.55 12.6 -4.7 12.55 -4.85 12.45 -4.95 12.4 -5.05 12.3 -5.1 12.25 -5.1 12.15 -5.15 12.1 -5.2 12.0 -5.2 11.95 -5.2 11.85 Q-5.2 11.7 -5.35 11.85 L-5.65 12.15 -6.0 12.45 -6.15 12.45 -6.3 12.5 -6.5 12.45 -6.65 12.4 -6.8 12.35 -6.9 12.25 -6.95 12.15 -7.0 12.1 -7.05 12.05 -7.1 11.95 -7.2 11.95 -7.45 12.0 -7.85 12.05 -7.95 12.15 -8.6 12.2 -8.8 12.3 -9.05 12.45 -9.15 12.45 -9.3 12.5 -9.4 12.5 -9.55 12.45 -9.9 12.65 Q-10.3 12.65 -10.3 12.15 L-10.25 11.9 -10.2 11.7 -10.2 11.65 -10.2 11.55 -10.2 11.45 -10.2 11.4 -10.05 11.2 -10.0 11.2 -8.5 8.9 -7.2 7.5 -6.85 7.7 -6.7 7.7 -6.6 7.7 -4.85 7.85 -4.7 7.9 -4.3 7.95 -3.95 8.0 -2.3 7.8 0.75 8.0 4.7 7.65 Q5.95 7.5 6.6 7.65 L6.85 7.7 6.95 7.7 7.05 7.75 7.7 8.45 7.75 8.45 7.85 8.55 7.85 8.65 7.9 8.7 7.9 8.75 8.0 8.85 8.35 9.3 8.55 9.5 Q9.95 10.9 10.3 11.75 L10.45 11.9 10.65 12.1 10.7 12.2" fill="#ff9d5b" fill-rule="evenodd" stroke="none"/>
    <path d="M10.45 12.3 L-10.55 12.3 -14.8 4.95 -4.15 -13.45 4.2 -13.45 14.75 4.9 10.45 12.3 Z" fill="none" stroke="#000000" stroke-linecap="round" stroke-linejoin="round" stroke-width="2.0"/>
  </g>
</svg>
