<?xml version="1.0" encoding="UTF-8" standalone="no"?>
<svg xmlns:ffdec="https://www.free-decompiler.com/flash" xmlns:xlink="http://www.w3.org/1999/xlink" ffdec:objectType="shape" height="28.7px" width="25.05px" xmlns="http://www.w3.org/2000/svg">
  <g transform="matrix(1.0, 0.0, 0.0, 1.0, 12.4, 14.9)">
    <path d="M0.75 -13.6 L0.7 -13.55 0.55 -13.6 0.7 -13.6 0.75 -13.6 M0.8 -13.35 L0.85 -13.4 0.85 -13.35 0.8 -13.35 M-11.0 -7.5 L-10.0 -6.25 -10.35 -6.6 -10.65 -6.5 -10.8 -6.35 -11.0 -7.4 -11.05 -7.55 -11.0 -7.5 M5.6 -1.45 L5.6 -1.4 5.55 -1.55 5.6 -1.45" fill="#cc00ff" fill-rule="evenodd" stroke="none"/>
    <path d="M0.85 -13.4 L0.9 -13.35 0.85 -13.35 0.85 -13.4" fill="#d52bff" fill-rule="evenodd" stroke="none"/>
    <path d="M5.45 -1.25 L5.45 -1.2 5.4 -1.2 5.45 -1.25 M4.2 2.9 L4.35 2.6 3.65 4.25 4.2 2.9" fill="#e375ff" fill-rule="evenodd" stroke="none"/>
    <path d="M9.6 6.35 L9.5 6.5 9.5 6.45 9.55 6.35 9.6 6.35 M-9.05 -1.15 L-8.85 -0.9 -9.15 -0.45 -9.1 -1.15 -9.05 -1.15" fill="#aa00d5" fill-rule="evenodd" stroke="none"/>
    <path d="M2.4 9.65 L2.35 9.65 2.4 9.65 M-0.45 -10.45 L-0.45 -10.55 -0.45 -10.45" fill="#e991ff" fill-rule="evenodd" stroke="none"/>
    <path d="M0.7 -13.55 L0.75 -13.6 1.85 -13.1 Q5.75 -11.2 9.1 -8.65 L10.95 -7.15 9.15 -5.05 Q7.7 -3.7 6.6 -2.2 L4.05 -7.5 3.65 -8.3 Q4.2 -7.6 5.1 -7.5 L5.1 -7.7 5.45 -7.7 5.4 -8.2 4.65 -9.1 Q4.35 -9.4 4.2 -9.8 L3.25 -10.75 3.05 -11.05 1.7 -12.6 0.9 -13.35 0.85 -13.4 0.8 -13.35 0.7 -13.55 M-10.8 -5.9 L-8.8 -3.0 Q-8.2 -2.05 -7.5 -1.65 L-7.5 -1.2 -7.1 -1.1 -7.05 -1.1 -7.1 -0.7 -6.8 -0.7 -6.75 -0.5 -7.5 0.75 -8.75 2.95 -10.65 6.35 Q-10.85 5.8 -11.3 5.35 L-11.15 4.55 Q-10.75 2.45 -11.4 1.0 L-11.85 0.2 -11.75 -1.45 -11.75 -1.55 -11.4 -1.8 -11.2 -2.0 -11.25 -3.55 -11.1 -4.6 -10.8 -5.9 M7.45 -6.4 L7.45 -6.35 7.5 -6.4 7.45 -6.4 M-9.05 -1.15 L-9.1 -1.15 -9.15 -0.45 -8.85 -0.9 -9.05 -1.15" fill="#0000ff" fill-rule="evenodd" stroke="none"/>
    <path d="M6.6 -2.2 Q7.7 -3.7 9.15 -5.05 L10.95 -7.15 11.35 -6.95 11.65 -6.7 11.95 -6.65 11.95 -6.6 11.95 -6.05 Q11.35 -4.05 11.5 -1.7 11.75 1.6 11.4 4.9 L11.4 5.6 9.15 2.75 7.5 0.95 7.15 0.3 6.7 -0.5 6.35 -1.1 6.6 -1.1 Q6.9 -1.4 6.7 -1.75 L6.6 -2.2 M-6.75 -0.5 L-6.35 1.05 -6.1 1.55 -5.45 2.95 Q-3.65 6.15 -2.15 9.5 L-1.1 11.15 -1.15 11.5 -2.05 11.0 -8.35 7.85 -10.05 6.15 -10.45 6.65 -10.55 6.75 -10.65 6.35 -8.75 2.95 -7.5 0.75 -6.75 -0.5 M8.75 -0.3 L8.75 -0.5 8.7 -0.5 8.75 -0.3" fill="#00008a" fill-rule="evenodd" stroke="none"/>
    <path d="M0.55 -13.6 L0.7 -13.55 0.8 -13.35 0.85 -13.35 0.9 -13.35 1.7 -12.6 3.05 -11.05 3.25 -10.75 4.2 -9.8 Q4.35 -9.4 4.65 -9.1 L5.4 -8.2 5.45 -7.7 5.1 -7.7 5.1 -7.5 Q4.2 -7.6 3.65 -8.3 L3.25 -8.75 2.65 -9.6 2.3 -10.05 Q1.8 -10.3 1.25 -11.0 L0.7 -12.35 0.1 -13.0 -1.05 -11.8 Q-1.6 -10.05 -2.65 -8.35 L-5.05 -4.8 -5.35 -4.4 -6.35 -1.8 -6.35 -1.4 -6.55 -1.35 Q-6.6 -1.15 -6.8 -1.1 L-6.8 -1.0 -6.7 -1.05 -6.6 -1.1 -6.5 -1.1 -6.3 -1.25 -6.0 -1.4 Q-5.45 -1.1 -4.85 -1.1 L1.35 -1.1 3.2 -0.95 4.35 -1.2 5.4 -1.2 5.45 -1.2 5.45 -1.25 5.55 -1.4 5.6 -1.4 5.6 -1.45 5.8 -1.5 5.8 -1.55 6.05 -1.1 6.2 -1.1 6.35 -1.1 6.7 -0.5 6.35 0.45 6.1 0.65 5.8 1.75 5.3 3.05 5.1 3.45 3.65 6.15 0.25 12.1 0.2 12.35 -0.25 13.0 -0.8 12.55 -0.7 12.35 -0.6 11.95 -1.15 11.5 -1.1 11.15 -2.15 9.5 Q-3.65 6.15 -5.45 2.95 L-6.1 1.55 -6.35 1.05 -6.75 -0.5 -6.8 -0.7 -7.1 -0.7 -7.05 -1.1 -7.1 -1.1 -7.5 -1.2 -7.5 -1.65 Q-8.2 -2.05 -8.8 -3.0 L-10.8 -5.9 -10.8 -5.95 -10.85 -6.2 -10.8 -6.3 -10.8 -6.35 -10.65 -6.5 -10.35 -6.6 -10.0 -6.25 -11.0 -7.5 -10.8 -7.65 -10.35 -8.0 Q-10.3 -8.0 -10.15 -8.1 L-10.05 -7.95 -5.65 -10.55 -3.15 -11.95 -2.15 -12.65 -1.95 -12.85 -1.25 -13.05 -0.85 -13.35 -0.7 -13.4 0.25 -13.55 0.55 -13.55 0.55 -13.6 M4.2 2.9 L3.65 4.25 4.35 2.6 4.2 2.9" fill="#2b2bff" fill-rule="evenodd" stroke="none"/>
    <path d="M3.65 -8.3 L4.05 -7.5 6.6 -2.2 6.7 -1.75 Q6.9 -1.4 6.6 -1.1 L6.35 -1.1 6.2 -1.1 6.05 -1.1 5.8 -1.55 5.8 -1.5 5.6 -1.45 5.55 -1.55 5.6 -1.4 5.55 -1.4 5.45 -1.25 5.4 -1.2 4.35 -1.2 3.2 -0.95 1.35 -1.1 -4.85 -1.1 Q-5.45 -1.1 -6.0 -1.4 L-6.3 -1.25 -6.5 -1.1 -6.6 -1.1 -6.7 -1.05 -6.8 -1.0 -6.8 -1.1 Q-6.6 -1.15 -6.55 -1.35 L-6.35 -1.4 -6.35 -1.8 -5.35 -4.4 -5.05 -4.8 -2.65 -8.35 Q-1.6 -10.05 -1.05 -11.8 L0.1 -13.0 0.7 -12.35 1.25 -11.0 Q1.8 -10.3 2.3 -10.05 L2.65 -9.6 3.25 -8.75 3.65 -8.3 M0.2 12.35 L0.25 12.1 3.65 6.15 5.1 3.45 3.8 6.5 2.35 9.65 2.4 9.65 2.85 9.15 3.6 7.95 3.65 7.9 5.4 6.15 5.85 5.5 6.85 4.5 5.85 1.9 5.8 1.75 6.1 0.65 6.35 0.45 6.7 -0.5 7.15 0.3 7.5 0.95 9.15 2.75 11.4 5.6 11.45 6.25 7.2 8.7 Q4.5 10.25 1.65 11.4 0.7 11.75 0.2 12.35 M9.6 6.35 L9.55 6.35 9.5 6.45 9.5 6.5 9.6 6.35 M-0.45 -10.45 Q-1.15 -8.75 -2.15 -7.15 L-3.2 -5.25 -3.5 -4.25 Q-3.95 -3.5 -4.5 -2.9 L-5.15 -1.5 -4.55 -1.45 -2.2 -1.45 -1.7 -1.45 -1.1 -5.8 Q-0.55 -8.0 -0.45 -10.45 L-0.45 -10.55 -0.45 -10.45" fill="#6464ff" fill-rule="evenodd" stroke="none"/>
    <path d="M5.1 3.45 L5.3 3.05 5.8 1.75 5.85 1.9 6.85 4.5 5.85 5.5 5.4 6.15 3.65 7.9 3.6 7.95 2.85 9.15 2.4 9.65 2.35 9.65 3.8 6.5 5.1 3.45 M-0.45 -10.45 Q-0.55 -8.0 -1.1 -5.8 L-1.7 -1.45 -2.2 -1.45 -4.55 -1.45 -5.15 -1.5 -4.5 -2.9 Q-3.95 -3.5 -3.5 -4.25 L-3.2 -5.25 -2.15 -7.15 Q-1.15 -8.75 -0.45 -10.45" fill="#9f9fff" fill-rule="evenodd" stroke="none"/>
    <path d="M11.65 -7.2 L11.65 6.1 2.9 11.35 2.85 11.4 2.25 11.6 2.05 11.65 1.9 11.85 1.7 11.95 1.65 12.05 0.1 12.8 0.05 12.8 0.0 12.75 -0.05 12.75 -11.4 6.1 -11.4 -7.2 -11.0 -7.4 -11.0 -7.5 -10.05 -7.95 -5.65 -10.55 0.1 -13.9 0.55 -13.55 0.7 -13.55 11.65 -7.2 Z" fill="none" stroke="#000000" stroke-linecap="round" stroke-linejoin="round" stroke-width="2.0"/>
  </g>
</svg>
