<?xml version="1.0" encoding="UTF-8" standalone="no"?>
<svg xmlns:ffdec="https://www.free-decompiler.com/flash" xmlns:xlink="http://www.w3.org/1999/xlink" ffdec:objectType="shape" height="20.7px" width="8.1px" xmlns="http://www.w3.org/2000/svg">
  <g transform="matrix(1.0, 0.0, 0.0, 1.0, 5.2, 22.05)">
    <path d="M0.6 -19.95 L0.45 -19.6 0.5 -19.3 0.6 -19.0 0.55 -18.7 0.45 -18.55 Q0.3 -18.35 -0.05 -18.35 -0.2 -18.35 -0.35 -18.5 L-0.6 -18.6 -0.85 -18.45 Q-1.1 -18.25 -1.25 -18.25 -1.6 -18.25 -1.75 -18.45 L-1.9 -18.7 -2.45 -18.25 -3.15 -17.6 Q-4.1 -16.9 -4.55 -18.1 L-4.8 -18.7 -5.1 -19.6 -5.2 -20.75 -4.95 -21.3 -4.4 -21.75 Q-3.2 -21.75 -3.15 -20.85 -3.1 -20.4 -3.35 -19.9 L-3.15 -19.8 -2.5 -21.0 Q-1.65 -22.05 -0.5 -22.05 L0.25 -21.2 0.7 -20.3 0.6 -19.95 M0.8 -13.5 L0.95 -13.95 1.45 -14.15 Q2.15 -14.15 2.6 -13.0 L2.9 -11.75 Q2.9 -11.4 2.55 -11.0 2.25 -10.65 2.2 -9.8 2.2 -9.55 1.8 -9.35 L1.4 -9.0 1.05 -8.45 0.5 -8.35 -0.8 -8.65 -1.2 -9.35 -1.65 -10.0 Q-2.05 -10.35 -3.0 -10.35 L-3.25 -10.2 Q-3.5 -10.05 -3.6 -10.05 -4.05 -10.05 -4.15 -10.5 L-4.2 -10.9 -3.65 -11.9 Q-3.1 -12.45 -2.65 -12.45 -2.15 -12.45 -1.5 -12.05 -0.8 -11.6 -0.65 -11.15 L-0.35 -11.65 0.6 -11.8 0.7 -12.75 0.8 -13.5 M0.05 -1.8 L-0.5 -1.35 Q-0.85 -1.35 -1.05 -1.6 L-1.3 -2.35 -1.15 -3.05 Q-0.9 -3.55 -0.3 -3.55 0.15 -3.55 0.25 -3.25 L0.3 -2.9 0.05 -1.8" fill="#8adcff" fill-rule="evenodd" stroke="none"/>
  </g>
</svg>
