<?xml version="1.0" encoding="UTF-8" standalone="no"?>
<svg xmlns:ffdec="https://www.free-decompiler.com/flash" xmlns:xlink="http://www.w3.org/1999/xlink" ffdec:objectType="shape" height="21.9px" width="19.6px" xmlns="http://www.w3.org/2000/svg">
  <g transform="matrix(1.0, 0.0, 0.0, 1.0, 9.95, 11.7)">
    <path d="M-9.1 -5.7 L-9.3 -6.55 -9.3 -6.65 -8.4 -5.6 -8.7 -5.9 -9.0 -5.85 -9.1 -5.7 M4.45 -1.65 L4.4 -1.75 4.45 -1.7 4.45 -1.65" fill="#cc00ff" fill-rule="evenodd" stroke="none"/>
    <path d="M0.35 -11.7 L0.4 -11.7 Q0.8 -11.45 1.3 -11.3 4.55 -9.75 7.3 -7.6 L8.8 -6.4 7.35 -4.65 5.25 -2.35 3.1 -6.65 2.8 -7.35 Q3.25 -6.75 4.0 -6.65 L4.0 -6.9 4.3 -6.9 4.2 -7.25 3.6 -8.0 3.25 -8.55 2.5 -9.35 2.3 -9.55 1.2 -10.9 0.55 -11.45 0.45 -11.5 0.45 -11.45 0.35 -11.7 M-9.0 4.7 L-9.5 3.9 -9.35 3.25 Q-9.05 1.5 -9.6 0.3 L-9.95 -0.35 -9.9 -1.7 -9.9 -1.75 -9.6 -2.0 -9.4 -2.1 -9.45 -3.4 -9.3 -4.3 -9.1 -5.35 Q-8.2 -4.3 -7.45 -2.95 -7.0 -2.15 -6.4 -1.85 L-6.4 -1.5 -6.1 -1.4 -6.0 -1.4 -6.1 -1.05 -5.75 -1.05 -5.75 -0.9 -6.4 0.15 -7.4 1.95 -9.0 4.7 M5.9 -5.7 L5.95 -5.75 5.9 -5.75 5.9 -5.7 M-7.7 -0.85 L-7.5 -1.2 -7.65 -1.45 -7.7 -0.85" fill="#494949" fill-rule="evenodd" stroke="none"/>
    <path d="M0.45 -11.45 L0.45 -11.5 0.55 -11.45 0.45 -11.45" fill="#d52bff" fill-rule="evenodd" stroke="none"/>
    <path d="M0.0 9.65 L-0.45 10.2 Q-0.6 10.0 -0.9 9.85 L-0.8 9.65 -0.7 9.35 -1.15 8.95 -1.1 8.65 -1.95 7.3 Q-3.15 4.6 -4.7 1.95 L-5.25 0.8 -5.45 0.35 -5.75 -0.9 -5.75 -1.05 -6.1 -1.05 -6.0 -1.4 -6.1 -1.4 -6.4 -1.5 -6.4 -1.85 Q-7.0 -2.15 -7.45 -2.95 -8.2 -4.3 -9.1 -5.35 L-9.1 -5.4 -9.15 -5.6 -9.1 -5.65 -9.1 -5.7 -9.0 -5.85 -8.7 -5.9 -8.4 -5.6 -9.3 -6.65 -9.1 -6.8 -8.7 -7.1 -8.55 -7.2 -8.45 -7.05 -4.8 -9.15 -2.8 -10.35 -1.95 -10.9 -1.8 -11.05 Q-1.55 -11.0 -1.2 -11.25 L-0.9 -11.45 -0.8 -11.5 0.05 -11.7 0.35 -11.7 0.45 -11.45 0.55 -11.45 1.2 -10.9 2.3 -9.55 2.5 -9.35 3.25 -8.55 3.6 -8.0 4.2 -7.25 4.3 -6.9 4.0 -6.9 4.0 -6.65 Q3.25 -6.75 2.8 -7.35 L2.5 -7.7 2.0 -8.4 1.7 -8.8 0.85 -9.55 0.35 -10.7 -0.1 -11.2 -1.05 -10.2 Q-1.55 -8.8 -2.4 -7.35 L-4.4 -4.45 -4.6 -4.15 -5.45 -2.0 -5.45 -1.65 -5.6 -1.6 -5.75 -1.4 -5.55 -1.4 -5.4 -1.55 -5.15 -1.65 -4.2 -1.4 0.9 -1.4 2.45 -1.3 3.4 -1.5 4.2 -1.5 4.3 -1.5 4.3 -1.55 4.4 -1.65 4.45 -1.65 4.45 -1.7 4.55 -1.7 4.55 -1.75 4.8 -1.4 4.85 -1.4 5.0 -1.4 5.35 -0.9 5.0 -0.1 4.85 0.05 4.55 0.95 4.15 2.0 4.0 2.35 2.8 4.6 0.05 9.45 0.0 9.65 M2.8 3.0 L3.4 1.65 3.25 1.9 2.8 3.0" fill="#5c5c5c" fill-rule="evenodd" stroke="none"/>
    <path d="M9.2 4.1 L9.25 4.65 5.75 6.65 Q3.55 7.9 1.15 8.9 0.35 9.2 0.0 9.65 L0.05 9.45 2.8 4.6 4.0 2.35 2.95 4.85 1.75 7.45 1.8 7.45 2.15 7.0 2.75 6.0 2.8 6.0 4.2 4.6 4.6 4.05 5.45 3.2 4.6 1.05 4.55 0.95 4.85 0.05 5.0 -0.1 5.35 -0.9 5.7 -0.25 5.95 0.25 7.35 1.8 9.2 4.1 M2.8 -7.35 L3.1 -6.65 5.25 -2.35 5.35 -1.95 Q5.5 -1.65 5.25 -1.4 L5.0 -1.4 4.85 -1.4 4.8 -1.4 4.55 -1.75 4.55 -1.7 4.45 -1.7 4.4 -1.75 4.45 -1.65 4.4 -1.65 4.3 -1.55 4.2 -1.5 3.4 -1.5 2.45 -1.3 0.9 -1.4 -4.2 -1.4 -5.15 -1.65 -5.4 -1.55 -5.55 -1.4 -5.75 -1.4 -5.6 -1.6 -5.45 -1.65 -5.45 -2.0 -4.6 -4.15 -4.4 -4.45 -2.4 -7.35 Q-1.55 -8.8 -1.05 -10.2 L-0.1 -11.2 0.35 -10.7 0.85 -9.55 1.7 -8.8 2.0 -8.4 2.5 -7.7 2.8 -7.35 M7.7 4.7 L7.65 4.7 7.6 4.8 7.6 4.85 7.7 4.7 M-1.95 -6.4 L-2.85 -4.8 -3.05 -3.95 -3.9 -2.9 -4.45 -1.7 -3.95 -1.7 -2.0 -1.7 -1.6 -1.7 -1.1 -5.25 Q-0.65 -7.1 -0.6 -9.15 -1.15 -7.7 -1.95 -6.4" fill="#747474" fill-rule="evenodd" stroke="none"/>
    <path d="M8.8 -6.4 L9.15 -6.25 9.4 -6.05 9.65 -6.0 9.65 -5.9 9.65 -5.5 Q9.15 -3.8 9.3 -1.9 9.45 0.85 9.2 3.55 L9.2 4.1 7.35 1.8 5.95 0.25 5.7 -0.25 5.35 -0.9 5.0 -1.4 5.25 -1.4 Q5.5 -1.65 5.35 -1.95 L5.25 -2.35 7.35 -4.65 8.8 -6.4 M-1.15 8.95 L-1.9 8.6 Q-4.45 7.3 -7.05 5.95 L-8.45 4.6 -8.8 5.0 -8.9 5.05 -9.0 4.7 -7.4 1.95 -6.4 0.15 -5.75 -0.9 -5.45 0.35 -5.25 0.8 -4.7 1.95 Q-3.15 4.6 -1.95 7.3 L-1.1 8.65 -1.15 8.95 M6.95 -0.9 L7.0 -0.75 7.0 -0.9 6.95 -0.9" fill="#242424" fill-rule="evenodd" stroke="none"/>
    <path d="M4.3 -1.55 L4.3 -1.5 4.2 -1.5 4.3 -1.55 M2.8 3.0 L3.25 1.9 3.4 1.65 2.8 3.0" fill="#e375ff" fill-rule="evenodd" stroke="none"/>
    <path d="M4.55 0.95 L4.6 1.05 5.45 3.2 4.6 4.05 4.2 4.6 2.8 6.0 2.75 6.0 2.15 7.0 1.8 7.45 1.75 7.45 2.95 4.85 4.0 2.35 4.15 2.0 4.55 0.95 M-1.95 -6.4 Q-1.15 -7.7 -0.6 -9.15 -0.65 -7.1 -1.1 -5.25 L-1.6 -1.7 -2.0 -1.7 -3.95 -1.7 -4.45 -1.7 -3.9 -2.9 -3.05 -3.95 -2.85 -4.8 -1.95 -6.4" fill="#959595" fill-rule="evenodd" stroke="none"/>
    <path d="M7.7 4.7 L7.6 4.85 7.6 4.8 7.65 4.7 7.7 4.7 M-7.7 -0.85 L-7.65 -1.45 -7.5 -1.2 -7.7 -0.85" fill="#aa00d5" fill-rule="evenodd" stroke="none"/>
  </g>
</svg>
