<?xml version="1.0" encoding="UTF-8" standalone="no"?>
<svg xmlns:ffdec="https://www.free-decompiler.com/flash" xmlns:xlink="http://www.w3.org/1999/xlink" ffdec:objectType="shape" height="22.1px" width="19.8px" xmlns="http://www.w3.org/2000/svg">
  <g transform="matrix(1.0, 0.0, 0.0, 1.0, 9.85, 11.4)">
    <path d="M0.45 -11.4 L0.6 -11.4 0.65 -11.4 0.6 -11.35 0.45 -11.4 M-9.0 -5.35 L-9.15 -6.25 -9.2 -6.35 -9.15 -6.3 -8.3 -5.3 -8.65 -5.6 -8.85 -5.5 -9.0 -5.35 M0.75 -11.2 L0.7 -11.2 0.75 -11.25 0.75 -11.2" fill="#cc00ff" fill-rule="evenodd" stroke="none"/>
    <path d="M0.65 -11.4 L1.55 -11.0 Q4.75 -9.4 7.6 -7.3 L9.15 -6.05 7.65 -4.3 Q6.4 -3.2 5.5 -1.9 L3.35 -6.3 3.05 -7.0 Q3.5 -6.4 4.2 -6.3 L4.2 -6.5 4.55 -6.5 4.5 -6.9 3.85 -7.7 3.5 -8.25 2.7 -9.05 2.55 -9.3 1.4 -10.6 0.75 -11.2 0.75 -11.25 0.7 -11.2 0.6 -11.35 0.65 -11.4 M-8.85 5.15 L-9.4 4.35 -9.25 3.65 Q-8.95 1.95 -9.5 0.7 L-9.85 0.1 -9.75 -1.3 -9.75 -1.35 -9.5 -1.6 -9.3 -1.8 -9.35 -3.05 -9.2 -3.9 -9.0 -5.0 -7.3 -2.6 -6.2 -1.45 -6.2 -1.1 -5.9 -1.0 -5.85 -1.0 -5.9 -0.7 -5.7 -0.7 -5.65 -0.5 -6.2 0.55 -7.25 2.35 -8.85 5.15 M-7.65 -0.45 L-7.35 -0.8 -7.55 -1.05 -7.6 -1.05 -7.65 -0.45" fill="#ff6600" fill-rule="evenodd" stroke="none"/>
    <path d="M0.2 10.15 L-0.25 10.7 Q-0.4 10.55 -0.7 10.35 L-0.6 10.15 -0.5 9.85 -0.95 9.5 -0.9 9.15 -1.75 7.8 -4.55 2.35 -5.1 1.2 -5.25 0.75 -5.65 -0.5 -5.7 -0.7 -5.9 -0.7 -5.85 -1.0 -5.9 -1.0 -6.2 -1.1 -6.2 -1.45 -7.3 -2.6 -9.0 -5.0 -9.0 -5.05 -9.05 -5.25 -9.0 -5.3 -9.0 -5.35 -8.85 -5.5 -8.65 -5.6 -8.3 -5.3 -9.15 -6.3 -9.0 -6.45 -8.65 -6.75 -8.45 -6.8 -8.35 -6.75 -4.7 -8.85 -2.65 -10.05 -1.75 -10.65 -1.65 -10.75 Q-1.3 -10.7 -1.05 -10.95 L-0.75 -11.2 -0.6 -11.25 0.25 -11.35 0.45 -11.35 0.45 -11.4 0.6 -11.35 0.7 -11.2 0.75 -11.2 1.4 -10.6 2.55 -9.3 2.7 -9.05 3.5 -8.25 3.85 -7.7 4.5 -6.9 4.55 -6.5 4.2 -6.5 4.2 -6.3 Q3.5 -6.4 3.05 -7.0 L2.7 -7.35 2.25 -8.1 1.9 -8.45 1.05 -9.25 0.6 -10.35 0.1 -10.9 -0.85 -9.9 Q-1.3 -8.45 -2.25 -7.05 L-4.2 -4.1 -4.45 -3.75 -5.25 -1.6 -5.25 -1.3 -5.45 -1.25 Q-5.5 -1.05 -5.7 -1.0 L-5.7 -0.9 -5.6 -0.95 -5.5 -1.0 -5.4 -1.0 -5.2 -1.15 -5.0 -1.3 -4.05 -1.0 1.15 -1.0 2.7 -0.85 3.65 -1.1 4.5 -1.1 4.55 -1.1 4.55 -1.15 4.65 -1.3 4.8 -1.3 4.8 -1.35 5.05 -1.0 5.25 -1.0 5.6 -0.5 Q5.65 -0.15 5.25 0.25 L5.1 0.45 4.8 1.35 4.4 2.45 4.2 2.75 3.05 5.05 0.25 10.0 0.2 10.15 M3.65 2.1 L3.5 2.3 3.05 3.45 3.65 2.1" fill="#ff7b24" fill-rule="evenodd" stroke="none"/>
    <path d="M9.5 4.6 L9.55 5.15 Q7.75 6.1 6.0 7.15 L1.35 9.4 Q0.6 9.65 0.2 10.15 L0.25 10.0 3.05 5.05 4.2 2.75 3.2 5.3 1.95 7.95 2.0 7.95 2.35 7.55 3.0 6.55 3.05 6.5 4.5 5.05 4.85 4.5 5.7 3.65 4.85 1.5 4.8 1.35 5.1 0.45 5.25 0.25 Q5.65 -0.15 5.6 -0.5 L5.95 0.15 6.2 0.7 7.65 2.2 9.5 4.6 M4.5 -1.1 L3.65 -1.1 2.7 -0.85 1.15 -1.0 -4.05 -1.0 -5.0 -1.3 -5.2 -1.15 -5.4 -1.0 -5.5 -1.0 -5.6 -0.95 -5.7 -0.9 -5.7 -1.0 Q-5.5 -1.05 -5.45 -1.25 L-5.25 -1.3 -5.25 -1.6 -4.45 -3.75 -4.2 -4.1 -2.25 -7.05 Q-1.3 -8.45 -0.85 -9.9 L0.1 -10.9 0.6 -10.35 1.05 -9.25 1.9 -8.45 2.25 -8.1 2.7 -7.35 3.05 -7.0 3.35 -6.3 5.5 -1.9 5.6 -1.55 5.5 -1.0 5.25 -1.0 5.05 -1.0 4.8 -1.35 4.8 -1.3 4.65 -1.3 4.55 -1.15 4.5 -1.1 M7.9 5.3 L8.0 5.15 7.95 5.15 7.9 5.25 7.9 5.3 M-2.7 -4.45 L-2.9 -3.65 -3.7 -2.5 -4.25 -1.3 -3.75 -1.3 -1.8 -1.3 -1.4 -1.3 -0.9 -4.9 Q-0.45 -6.75 -0.35 -8.8 L-1.75 -6.05 -2.7 -4.45" fill="#ff9d5b" fill-rule="evenodd" stroke="none"/>
    <path d="M9.15 -6.05 L9.45 -5.85 9.7 -5.7 9.95 -5.65 9.95 -5.6 9.95 -5.15 Q9.45 -3.45 9.6 -1.5 9.75 1.2 9.5 4.0 L9.5 4.6 7.65 2.2 6.2 0.7 5.95 0.15 5.6 -0.5 5.25 -1.0 5.5 -1.0 5.6 -1.55 5.5 -1.9 Q6.4 -3.2 7.65 -4.3 L9.15 -6.05 M-0.95 9.5 L-1.75 9.1 Q-4.3 7.8 -6.95 6.45 L-8.35 5.05 -8.7 5.45 -8.75 5.55 -8.85 5.15 -7.25 2.35 -6.2 0.55 -5.65 -0.5 -5.25 0.75 -5.1 1.2 -4.55 2.35 -1.75 7.8 -0.9 9.15 -0.95 9.5 M7.2 -0.5 L7.25 -0.3 7.25 -0.5 7.2 -0.5" fill="#c64f00" fill-rule="evenodd" stroke="none"/>
    <path d="M4.55 -1.15 L4.55 -1.1 4.5 -1.1 4.55 -1.15 M3.65 2.1 L3.05 3.45 3.5 2.3 3.65 2.1" fill="#e375ff" fill-rule="evenodd" stroke="none"/>
    <path d="M4.2 2.75 L4.4 2.45 4.8 1.35 4.85 1.5 5.7 3.65 4.85 4.5 4.5 5.05 3.05 6.5 3.0 6.55 2.35 7.55 2.0 7.95 1.95 7.95 3.2 5.3 4.2 2.75 M-2.7 -4.45 L-1.75 -6.05 -0.35 -8.8 Q-0.45 -6.75 -0.9 -4.9 L-1.4 -1.3 -1.8 -1.3 -3.75 -1.3 -4.25 -1.3 -3.7 -2.5 -2.9 -3.65 -2.7 -4.45" fill="#ffc49b" fill-rule="evenodd" stroke="none"/>
    <path d="M7.9 5.3 L7.9 5.25 7.95 5.15 8.0 5.15 7.9 5.3 M-7.65 -0.45 L-7.6 -1.05 -7.55 -1.05 -7.35 -0.8 -7.65 -0.45" fill="#aa00d5" fill-rule="evenodd" stroke="none"/>
  </g>
</svg>
