<?xml version="1.0" encoding="UTF-8" standalone="no"?>
<svg xmlns:ffdec="https://www.free-decompiler.com/flash" xmlns:xlink="http://www.w3.org/1999/xlink" ffdec:objectType="shape" height="23.2px" width="25.85px" xmlns="http://www.w3.org/2000/svg">
  <g transform="matrix(1.0, 0.0, 0.0, 1.0, 12.9, 12.2)">
    <path d="M-11.5 2.5 L-11.3 2.3 -11.4 2.45 -11.5 2.5" fill="#626262" fill-rule="evenodd" stroke="none"/>
    <path d="M5.4 7.2 L5.45 7.25 4.45 7.3 5.4 7.2" fill="#525252" fill-rule="evenodd" stroke="none"/>
    <path d="M-8.6 10.2 L-8.65 10.15 -8.75 10.05 -8.75 10.0 -8.7 10.0 -8.65 9.95 -8.6 9.95 -8.6 9.85 -8.55 9.8 -8.55 9.9 -8.55 10.0 -8.6 10.2 M-7.7 3.7 L-7.7 3.75 -7.65 3.85 -7.7 3.85 -7.75 3.8 -7.85 3.75 -7.7 3.7" fill="#000000" fill-rule="evenodd" stroke="none"/>
    <path d="M3.65 -11.2 L3.85 -11.4 Q4.2 -11.65 4.2 -11.1 L4.4 -10.65 4.35 -10.35 4.5 -10.25 4.7 -10.2 4.75 -10.1 4.8 -10.05 4.8 -10.0 4.8 -9.9 4.8 -9.85 4.8 -9.75 4.8 -9.6 4.8 -9.5 5.1 -8.2 5.2 -7.9 5.4 -7.9 6.35 -6.55 6.6 -6.05 6.85 -5.5 7.6 -4.3 7.9 -3.8 7.95 -3.7 8.05 -3.7 8.15 -3.6 8.2 -3.55 8.3 -3.35 8.5 -3.1 8.75 -2.85 9.2 -2.1 9.75 -1.15 9.95 -0.75 10.0 -0.75 10.05 -0.65 10.1 -0.55 10.15 -0.5 10.2 -0.45 10.2 -0.35 10.2 -0.25 10.2 -0.15 10.2 -0.05 10.2 0.05 10.2 0.15 10.25 0.2 10.25 0.25 10.75 0.8 11.3 1.65 11.35 1.7 11.55 1.7 11.8 1.8 11.95 1.9 12.0 1.95 12.1 1.95 12.15 2.05 12.15 2.1 12.2 2.2 12.2 2.3 12.25 2.4 12.25 2.5 12.3 2.55 12.3 2.65 12.25 2.7 12.25 2.8 12.25 2.85 12.25 2.95 12.25 3.05 12.25 3.15 12.25 3.25 12.25 3.4 12.35 3.55 12.4 3.7 12.5 3.85 12.55 3.9 12.65 4.0 12.25 4.0 11.75 3.85 10.55 3.65 10.15 3.5 9.4 3.45 9.0 3.3 8.7 3.5 8.45 3.6 8.2 3.25 8.3 3.1 8.3 3.0 7.65 1.9 6.4 -0.15 6.2 -0.5 5.6 -1.3 4.35 -3.6 3.85 -4.35 2.45 -6.7 2.45 -6.75 2.45 -6.85 2.45 -6.9 Q2.1 -6.9 2.2 -7.3 L2.9 -9.55 3.35 -10.65 3.65 -11.2 M-8.75 10.05 L-8.75 10.1 -8.85 10.2 -8.9 10.25 -9.15 10.05 -9.5 9.75 -9.65 9.45 -9.8 9.1 -9.95 8.8 -10.05 8.5 -10.1 8.45 -10.1 8.35 -10.15 8.3 -10.25 8.2 -10.35 8.1 -10.35 7.95 -10.4 7.85 -10.5 7.7 -10.5 7.6 -10.6 7.3 -10.65 7.1 -10.7 6.9 -10.7 6.85 -10.7 6.75 -10.75 6.7 -10.8 6.6 -10.85 6.4 -10.9 6.4 -10.9 6.25 -10.95 6.2 -10.95 6.1 -10.95 6.05 -11.0 6.0 -11.1 5.9 -11.35 5.75 -11.6 5.65 -11.55 5.6 -11.55 5.5 -11.55 5.4 -11.55 5.3 -11.55 5.15 -11.6 5.05 -11.65 5.0 -11.65 4.9 -11.9 4.6 -12.15 4.3 -12.3 4.1 -12.4 4.05 -12.4 4.0 -12.3 3.9 -12.25 3.85 -12.15 3.7 -11.95 3.65 -11.85 3.65 -11.7 3.6 -11.55 3.65 -11.55 3.7 -12.15 4.0 Q-12.15 4.4 -11.75 4.4 L-11.55 4.3 -10.6 4.2 -9.6 4.0 -7.9 3.75 -7.85 3.75 -7.75 3.8 -7.7 3.85 -7.65 3.85 -7.4 4.0 -7.3 4.2 -6.8 5.15 -5.95 6.4 -7.1 7.6 -8.35 9.6 -8.4 9.6 -8.55 9.75 -8.55 9.8 -8.6 9.85 -8.6 9.95 -8.65 9.95 -8.7 10.0 -8.75 10.0 -8.75 10.05" fill="#9f35ff" fill-rule="evenodd" stroke="none"/>
    <path d="M2.45 -6.85 L2.45 -6.75 2.45 -6.7 3.85 -4.35 4.35 -3.6 5.6 -1.3 6.2 -0.5 6.4 -0.15 7.65 1.9 8.3 3.0 8.3 3.1 8.2 3.25 8.1 3.45 8.1 3.5 7.5 4.65 6.7 5.95 6.25 6.65 6.15 6.6 6.05 6.6 5.85 6.55 Q5.3 6.4 4.2 6.55 L0.85 6.85 -1.75 6.7 -3.2 6.85 -3.5 6.8 -3.8 6.75 -3.95 6.7 -5.45 6.6 -5.55 6.6 -5.65 6.6 -5.95 6.4 -6.8 5.15 -7.3 4.2 -7.4 4.0 -7.65 3.85 -7.7 3.75 -7.7 3.7 -7.65 3.7 -7.5 3.65 -7.5 3.5 -7.25 3.15 -6.35 1.95 -5.95 1.25 -5.95 1.05 Q-4.75 -0.5 -1.75 -6.4 L-1.65 -6.5 -1.55 -6.55 -1.45 -6.65 -1.4 -6.7 -1.2 -6.9 -1.15 -6.9 Q-0.95 -6.9 -0.85 -7.0 L-0.05 -7.0 1.6 -7.0 2.45 -6.85" fill="#b15bff" fill-rule="evenodd" stroke="none"/>
    <path d="M9.35 10.45 L9.45 10.55 9.45 10.6 9.45 10.7 9.5 10.8 9.5 10.85 9.1 10.85 9.05 10.85 8.8 11.0 8.7 10.85 7.8 10.85 7.2 10.95 7.2 10.9 7.05 10.85 6.95 10.8 6.85 10.65 6.8 10.6 6.65 10.45 6.6 10.3 6.6 10.25 6.45 10.25 6.3 10.25 6.2 10.15 6.1 10.05 6.0 10.0 5.95 9.95 5.8 10.0 5.7 10.0 5.2 10.1 4.8 10.0 4.65 10.05 4.6 10.1 4.55 10.15 4.45 10.15 4.3 10.2 4.2 10.15 4.0 10.1 3.9 10.0 3.8 10.0 3.75 10.0 3.75 10.1 3.75 10.2 3.7 10.25 3.65 10.3 3.6 10.4 3.45 10.5 3.35 10.55 3.05 10.6 2.7 10.55 2.55 10.5 2.45 10.4 2.4 10.4 2.3 10.5 2.2 10.55 2.0 10.6 1.85 10.6 1.7 10.6 1.55 10.55 1.4 10.5 1.35 10.4 1.25 10.4 1.2 10.5 1.05 10.55 0.95 10.6 0.8 10.6 0.65 10.6 0.5 10.55 0.35 10.5 0.3 10.4 0.2 10.5 0.15 10.55 0.05 10.6 0.0 10.65 -0.4 10.7 -0.9 10.5 -1.0 10.55 -1.1 10.6 -1.15 10.6 -1.35 10.6 -1.45 10.6 -1.6 10.55 -1.75 10.5 -1.8 10.4 -1.9 10.35 -1.95 10.4 -2.05 10.4 -2.1 10.5 -2.2 10.55 -2.35 10.6 -2.5 10.6 -2.65 10.6 -2.75 10.55 -2.95 10.5 -2.95 10.55 -3.0 10.55 -3.1 10.6 -3.2 10.7 -3.3 10.8 -3.4 10.8 -3.55 10.85 -3.7 10.8 -3.8 10.75 -3.95 10.65 -4.05 10.6 -4.15 10.5 -4.15 10.4 -4.2 10.35 -4.25 10.25 -4.25 10.15 Q-4.25 10.0 -4.4 10.15 L-4.65 10.4 -4.95 10.65 -5.05 10.65 -5.2 10.7 -5.35 10.65 -5.5 10.6 -5.6 10.55 -5.7 10.5 -5.75 10.4 -5.8 10.35 -5.85 10.3 -5.9 10.25 -5.95 10.25 -6.2 10.25 -6.5 10.3 -6.6 10.4 -7.15 10.45 -7.35 10.55 -7.55 10.65 -7.65 10.65 -7.75 10.7 -7.85 10.7 -8.0 10.65 -8.3 10.85 Q-8.6 10.85 -8.6 10.4 L-8.6 10.2 -8.55 10.0 -8.55 9.9 -8.55 9.8 -8.55 9.75 -8.4 9.6 -8.35 9.6 -7.1 7.6 -5.95 6.4 -5.65 6.6 -5.55 6.6 -5.45 6.6 -3.95 6.7 -3.8 6.75 -3.5 6.8 -3.2 6.85 -1.75 6.7 0.85 6.85 4.2 6.55 Q5.3 6.4 5.85 6.55 L6.05 6.6 6.15 6.6 6.25 6.65 6.8 7.25 6.85 7.25 6.9 7.3 6.9 7.4 6.95 7.45 6.95 7.5 7.05 7.6 7.35 7.95 7.5 8.15 Q8.7 9.35 9.0 10.05 L9.15 10.2 9.3 10.35 9.35 10.45 M-3.25 -11.85 Q-3.2 -12.1 -2.8 -11.65 L-2.75 -11.7 -2.6 -11.75 -2.5 -11.8 -2.35 -11.75 -2.2 -11.75 -2.15 -11.7 -2.05 -11.75 -1.95 -11.75 -1.75 -11.8 -1.7 -11.75 -1.5 -11.75 -1.4 -11.65 -1.35 -11.6 -1.25 -11.55 -1.15 -11.45 -1.15 -11.35 -1.15 -11.25 -1.15 -11.2 -1.1 -11.15 -1.0 -11.15 -0.85 -11.2 -0.8 -11.25 -0.75 -11.35 -0.55 -11.45 -0.45 -11.5 -0.35 -11.5 -0.2 -11.55 0.05 -11.55 0.2 -11.6 0.4 -11.65 0.6 -11.6 0.7 -11.55 0.8 -11.45 0.95 -11.45 0.95 -11.4 1.0 -11.3 1.15 -11.25 1.25 -11.25 1.4 -11.25 1.5 -11.3 1.6 -11.35 1.85 -11.45 2.15 -11.55 2.3 -11.6 2.35 -11.65 2.35 -11.7 2.4 -11.75 2.4 -11.85 2.45 -11.9 2.55 -11.95 2.7 -12.05 2.8 -12.05 3.0 -12.05 3.05 -12.05 3.25 -12.05 3.35 -11.95 3.4 -11.85 3.5 -11.85 3.55 -11.75 3.6 -11.7 3.6 -11.65 3.6 -11.55 3.6 -11.45 3.65 -11.45 3.65 -11.3 3.65 -11.2 3.35 -10.65 2.9 -9.55 2.2 -7.3 Q2.1 -6.9 2.45 -6.9 L2.45 -6.85 1.6 -7.0 -0.05 -7.0 -0.85 -7.0 Q-0.95 -6.9 -1.15 -6.9 L-1.2 -6.9 -2.35 -9.15 -3.35 -11.45 -3.25 -11.85 M5.4 7.2 L4.45 7.3 5.45 7.25 5.4 7.2" fill="#c788ff" fill-rule="evenodd" stroke="none"/>
    <path d="M-12.4 4.05 L-12.5 3.95 -12.9 3.5 -12.9 3.4 -12.75 3.3 -12.75 3.25 -12.5 3.15 -12.5 3.1 -12.15 3.05 -12.1 2.95 -12.05 2.9 -11.95 2.85 -11.9 2.8 -11.75 2.7 -11.55 2.65 -11.55 2.55 -11.5 2.5 -11.4 2.45 -11.3 2.3 -11.25 2.25 -11.2 2.15 -10.65 1.25 -10.55 1.05 -10.35 0.75 -9.8 0.0 -9.75 -0.2 -8.6 -1.65 -8.5 -1.9 -8.5 -1.95 -8.45 -1.95 -8.4 -2.05 -8.3 -2.1 -8.3 -2.2 -8.3 -2.3 -8.3 -2.4 -8.25 -2.45 -6.95 -4.8 -6.35 -6.1 -5.6 -7.8 -5.6 -7.9 -5.55 -7.9 -5.5 -8.0 -5.4 -8.15 -5.35 -8.2 -5.35 -8.3 -5.3 -8.4 -5.3 -8.5 -5.25 -8.7 -5.15 -8.75 -5.15 -8.85 -5.1 -8.9 -5.0 -9.1 -4.8 -9.25 -4.65 -9.45 -4.6 -9.5 -4.6 -9.6 -4.6 -9.7 -4.55 -9.7 -4.55 -9.8 -4.4 -9.9 -4.25 -10.1 -4.15 -10.2 -4.1 -10.25 -4.15 -10.35 -4.15 -10.45 -4.2 -10.5 -4.25 -10.55 -4.25 -10.65 -4.25 -10.7 -4.25 -10.8 -4.25 -10.85 -4.1 -11.0 -4.1 -11.05 -3.55 -11.15 -3.8 -11.65 Q-3.8 -12.65 -3.25 -11.85 L-3.35 -11.45 -2.35 -9.15 -1.2 -6.9 -1.4 -6.7 -1.45 -6.65 -1.55 -6.55 -1.65 -6.5 -1.75 -6.4 Q-4.75 -0.5 -5.95 1.05 L-5.95 1.25 -6.35 1.95 -7.25 3.15 -7.5 3.5 -7.5 3.65 -7.65 3.7 -7.7 3.7 -7.85 3.75 -7.9 3.75 -9.6 4.0 -10.6 4.2 -11.55 4.3 -11.75 4.4 Q-12.15 4.4 -12.15 4.0 L-11.55 3.7 -11.55 3.65 -11.7 3.6 -11.85 3.65 -11.95 3.65 -12.15 3.7 -12.25 3.85 -12.3 3.9 -12.4 4.0 -12.4 4.05" fill="#d6a8ff" fill-rule="evenodd" stroke="none"/>
    <path d="M12.65 4.0 L12.7 4.05 12.85 4.25 12.9 4.4 12.9 4.45 12.95 4.5 12.95 4.6 12.9 4.65 12.9 4.75 12.85 4.85 12.85 4.9 12.8 4.95 12.75 5.0 12.55 5.15 12.5 5.2 12.15 5.25 11.95 5.35 11.95 5.4 11.9 5.5 11.75 5.65 11.55 5.8 11.5 6.0 11.4 6.1 11.25 6.3 11.2 6.4 10.75 7.2 10.15 8.2 9.95 8.45 9.9 8.5 9.8 8.55 9.7 8.65 9.6 8.65 9.6 8.7 9.75 8.9 9.9 9.2 9.95 9.3 9.95 9.4 10.05 9.45 10.1 9.55 10.1 9.65 10.15 9.7 10.15 9.8 10.1 9.9 10.1 10.0 10.0 10.05 9.95 10.15 9.95 10.25 9.75 10.35 9.65 10.4 9.6 10.4 9.4 10.45 9.35 10.45 9.3 10.35 9.15 10.2 9.0 10.05 Q8.7 9.35 7.5 8.15 L7.35 7.95 7.05 7.6 6.95 7.5 6.95 7.45 6.9 7.4 6.9 7.3 6.85 7.25 6.8 7.25 6.25 6.65 6.7 5.95 7.5 4.65 8.1 3.5 8.1 3.45 8.2 3.25 8.45 3.6 8.7 3.5 9.0 3.3 9.4 3.45 10.15 3.5 10.55 3.65 11.75 3.85 12.25 4.0 12.65 4.0" fill="#8600ff" fill-rule="evenodd" stroke="none"/>
  </g>
</svg>
