<?xml version="1.0" encoding="UTF-8" standalone="no"?>
<svg xmlns:ffdec="https://www.free-decompiler.com/flash" xmlns:xlink="http://www.w3.org/1999/xlink" ffdec:objectType="shape" height="27.35px" width="27.35px" xmlns="http://www.w3.org/2000/svg">
  <g transform="matrix(1.0, 0.0, 0.0, 1.0, 14.15, 13.8)">
    <path d="M13.2 -0.1 L7.7 -0.1 -0.5 -8.3 -0.5 -13.8 13.2 -0.1" fill="#626262" fill-rule="evenodd" stroke="none"/>
    <path d="M-0.5 -13.8 L-0.5 -8.3 -8.65 -0.15 -13.9 0.15 -14.15 -0.15 -0.5 -13.8" fill="#acacac" fill-rule="evenodd" stroke="none"/>
    <path d="M-0.5 -8.3 L7.7 -0.1 -0.45 8.05 -0.55 7.95 -8.65 -0.15 -0.5 -8.3" fill="#525252" fill-rule="evenodd" stroke="none"/>
    <path d="M7.7 -0.1 L13.2 -0.1 -0.45 13.55 -0.55 7.95 -0.45 8.05 7.7 -0.1" fill="#000000" fill-rule="evenodd" stroke="none"/>
    <path d="M-0.55 7.95 L-0.45 13.55 -13.9 0.15 -8.65 -0.15 -0.55 7.95" fill="#333333" fill-rule="evenodd" stroke="none"/>
  </g>
</svg>
