<?xml version="1.0" encoding="UTF-8" standalone="no"?>
<svg xmlns:ffdec="https://www.free-decompiler.com/flash" xmlns:xlink="http://www.w3.org/1999/xlink" ffdec:objectType="shape" height="23.8px" width="20.8px" xmlns="http://www.w3.org/2000/svg">
  <g transform="matrix(1.0, 0.0, 0.0, 1.0, 89.35, -495.3)">
    <path d="M-83.15 498.75 L-81.6 497.9 -81.05 497.55 -80.8 497.35 -80.65 497.2 -80.5 497.2 Q-80.25 497.2 -80.05 497.0 L-79.75 496.8 -79.75 496.75 -79.7 496.75 -79.6 496.75 -78.85 496.6 -78.6 496.6 -78.6 496.55 -78.5 496.6 -78.4 496.75 -78.3 496.75 -77.65 497.4 -76.55 498.65 -76.4 498.9 -75.65 499.65 -75.25 500.25 -74.65 500.95 -74.6 501.35 -74.9 501.35 -74.9 501.55 -76.05 500.9 -76.4 500.5 -76.9 499.8 -77.2 499.45 -78.05 498.7 -78.5 497.6 -78.95 497.05 -79.9 498.05 Q-80.35 499.45 -81.2 500.85 L-83.15 503.75 -83.4 504.05 -84.25 506.2 -84.25 506.5 -84.4 506.55 -84.6 506.75 -84.6 506.85 -84.5 506.8 -84.45 506.75 -84.35 506.75 -84.2 506.65 -84.15 506.65 -83.95 506.5 -83.0 506.75 -77.95 506.75 -76.45 506.9 -75.5 506.65 -74.65 506.65 -74.6 506.65 -74.55 506.5 -74.5 506.5 -74.5 506.45 -74.3 506.45 -74.3 506.4 -74.1 506.75 -74.0 506.75 -73.85 506.75 -73.6 507.25 Q-73.55 507.6 -73.85 508.0 L-74.1 508.2 -74.3 509.1 -74.3 509.15 -74.75 510.15 -74.9 510.45 -76.05 512.65 -78.85 517.5 -78.9 517.7 -79.15 518.05 -79.25 518.25 -79.7 517.9 -79.6 517.75 -79.6 517.7 -79.55 517.4 -80.0 517.0 -79.95 516.75 -80.8 515.4 Q-82.05 512.65 -83.5 510.05 L-84.0 508.9 -84.25 508.5 -84.55 507.25 -84.6 507.1 -84.85 507.1 -84.8 506.75 -84.85 506.75 -85.15 506.65 -85.15 506.3 -86.2 505.2 Q-86.95 503.95 -87.85 502.85 L-87.85 502.8 -87.9 502.6 -87.85 502.5 -87.85 502.45 -87.75 502.35 -87.5 502.25 -87.2 502.55 -88.0 501.55 -87.85 501.4 -87.5 501.15 -87.3 501.05 -87.25 501.15 -83.65 499.05 -83.15 498.75 M-87.25 501.15 L-88.0 501.55 -87.25 501.15 M-79.15 518.05 L-79.6 517.75 -79.15 518.05 M-78.6 496.6 L-78.5 496.6 -78.6 496.6 M-79.75 496.8 L-79.7 496.75 -79.75 496.8 M-81.05 497.55 L-80.5 497.2 -81.05 497.55 M-75.5 509.75 L-75.65 510.0 -76.05 511.1 -75.5 509.75" fill="#2cd900" fill-rule="evenodd" stroke="none"/>
    <path d="M-78.45 496.55 L-78.3 496.65 -78.3 496.75 -78.5 496.6 -78.3 496.75 -78.4 496.75 -78.5 496.6 -78.45 496.55" fill="#494949" fill-rule="evenodd" stroke="none"/>
    <path d="M-78.3 496.65 L-77.55 496.95 Q-74.4 498.45 -71.75 500.55 L-71.65 500.6 -70.1 501.8 -71.6 503.55 -73.65 505.85 -75.75 501.55 -76.05 500.9 -74.9 501.55 -74.9 501.35 -74.6 501.35 -74.65 500.95 -75.25 500.25 -75.65 499.65 -76.4 498.9 -76.55 498.65 -77.65 497.4 -78.3 496.75 -78.3 496.65 M-88.35 508.45 L-88.7 507.8 -88.65 506.45 -88.65 506.4 -88.35 506.2 -88.2 506.0 -88.2 504.75 -88.1 503.9 -87.85 502.85 Q-86.95 503.95 -86.2 505.2 L-85.15 506.3 -85.15 506.65 -84.85 506.75 -84.8 506.75 -84.85 507.1 -84.6 507.1 -84.55 507.25 -85.15 508.25 -86.2 510.05 -87.75 512.85 -88.25 512.0 -88.15 511.35 Q-87.8 509.65 -88.35 508.45 L-88.35 506.2 -88.35 508.45 M-71.75 500.55 L-78.3 496.75 -71.75 500.55" fill="#26bf00" fill-rule="evenodd" stroke="none"/>
    <path d="M-78.6 496.55 L-78.45 496.55 -78.5 496.6 -78.6 496.55 M-88.0 501.6 L-88.05 501.5 -88.0 501.55 -88.0 501.6 -88.0 501.55 -87.2 502.55 -87.5 502.25 -87.75 502.35 -87.85 502.45 -88.0 501.6 M-74.5 506.45 L-74.5 506.5 -74.55 506.4 -74.5 506.45" fill="#cc00ff" fill-rule="evenodd" stroke="none"/>
    <path d="M-69.7 512.7 L-69.7 512.75 -70.7 513.35 -69.7 512.7 -70.7 513.35 -73.2 514.75 Q-75.4 516.0 -77.7 516.95 -78.4 517.2 -78.8 517.6 L-78.85 517.5 -76.05 512.65 -74.9 510.45 -75.95 512.95 -77.15 515.5 -77.1 515.5 -76.75 515.1 -76.1 514.15 -76.05 514.1 -74.65 512.65 -74.3 512.15 -73.45 511.3 -74.3 509.2 -74.3 509.15 -74.3 509.1 -74.1 508.2 -73.85 508.0 Q-73.55 507.6 -73.6 507.25 L-73.2 507.9 -72.95 508.4 -71.6 509.9 -69.75 512.2 -69.7 512.7 M-73.85 506.75 L-74.0 506.75 -74.1 506.75 -74.3 506.4 -74.3 506.45 -74.5 506.45 -74.55 506.4 -74.5 506.5 -74.55 506.5 -74.6 506.65 -74.65 506.65 -75.5 506.65 -76.45 506.9 -77.95 506.75 -83.0 506.75 -83.95 506.5 -84.15 506.65 -84.25 506.5 -84.25 506.2 -83.4 504.05 -83.15 503.75 -81.2 500.85 Q-80.35 499.45 -79.9 498.05 L-78.95 497.05 -78.5 497.6 -78.05 498.7 -77.2 499.45 -76.9 499.8 -76.4 500.5 -76.05 500.9 -75.75 501.55 -73.65 505.85 -73.6 506.2 Q-73.45 506.5 -73.65 506.75 L-73.85 506.75 M-81.65 503.35 L-81.9 504.2 -82.7 505.3 -83.25 506.45 -82.75 506.45 -80.85 506.45 -80.45 506.45 -79.95 502.9 Q-79.5 501.15 -79.4 499.15 L-80.8 501.8 -81.65 503.35 M-71.3 512.95 L-71.2 512.85 -71.25 512.85 -71.3 512.9 -71.3 512.95" fill="#33ff00" fill-rule="evenodd" stroke="none"/>
    <path d="M-74.9 510.45 L-74.75 510.15 -74.3 509.15 -74.3 509.2 -73.45 511.3 -74.3 512.15 -74.65 512.65 -76.05 514.1 -76.1 514.15 -76.75 515.1 -77.1 515.5 -77.15 515.5 -75.95 512.95 -74.9 510.45 M-81.65 503.35 L-80.8 501.8 -79.4 499.15 Q-79.5 501.15 -79.95 502.9 L-80.45 506.45 -80.85 506.45 -82.75 506.45 -83.25 506.45 -82.7 505.3 -81.9 504.2 -81.65 503.35" fill="#8cff8c" fill-rule="evenodd" stroke="none"/>
    <path d="M-69.55 502.2 L-69.3 502.25 -69.3 502.7 -69.55 503.75 -69.7 506.25 Q-69.45 508.95 -69.75 511.65 L-69.75 512.2 -71.6 509.9 -72.95 508.4 -73.2 507.9 -73.6 507.25 -73.85 506.75 -73.65 506.75 Q-73.45 506.5 -73.6 506.2 L-73.65 505.85 -71.6 503.55 -70.1 501.8 -69.8 502.0 Q-69.7 502.05 -69.55 502.2 L-69.55 503.75 -69.55 502.2 M-87.55 513.05 L-87.65 513.15 -87.7 513.0 -87.75 512.85 -86.2 510.05 -85.15 508.25 -84.55 507.25 -84.25 508.5 -84.0 508.9 -83.5 510.05 Q-82.05 512.65 -80.8 515.4 L-79.95 516.75 -80.0 517.0 -80.7 516.6 -85.85 514.05 -87.25 512.65 -87.55 513.05 -87.7 513.0 -87.55 513.05 M-71.95 507.25 L-71.9 507.4 -71.9 507.25 -71.95 507.25" fill="#21a400" fill-rule="evenodd" stroke="none"/>
    <path d="M-75.5 509.75 L-76.05 511.1 -75.65 510.0 -75.5 509.75" fill="#e375ff" fill-rule="evenodd" stroke="none"/>
    <path d="M-71.3 512.95 L-71.3 512.9 -71.25 512.85 -71.2 512.85 -71.3 512.95" fill="#aa00d5" fill-rule="evenodd" stroke="none"/>
    <path d="M-78.9 517.7 L-78.85 517.5 -78.8 517.6 -78.9 517.7 M-84.15 506.65 L-84.2 506.65 -84.35 506.75 -84.45 506.75 -84.5 506.8 -84.6 506.85 -84.6 506.75 -84.4 506.55 -84.25 506.5 -84.15 506.65" fill="#747474" fill-rule="evenodd" stroke="none"/>
    <path d="M-81.05 497.55 L-83.15 498.75 -83.65 499.05 -87.25 501.15 -88.0 501.55 -88.0 501.6 -88.35 501.8 -88.35 506.2 -88.35 508.45 -88.35 512.6 -87.7 513.0 -87.55 513.05 -85.85 514.05 -79.6 517.75 -79.15 518.05 -79.05 518.05 -79.0 518.1 -78.95 518.1 -77.7 517.45 -77.65 517.4 -77.5 517.3 -77.4 517.15 -77.2 517.1 -76.75 516.95 -76.7 516.9 -70.7 513.35 -69.7 512.7 -69.55 512.6 -69.55 503.75 -69.55 502.2 -69.55 501.8 -71.65 500.6 -71.75 500.55 -78.3 496.75 -78.5 496.6 -78.6 496.6 -78.95 496.3 -79.7 496.75 -79.75 496.8 -80.5 497.2 -81.05 497.55 Z" fill="none" stroke="#000000" stroke-linecap="round" stroke-linejoin="round" stroke-width="2.0"/>
  </g>
</svg>
