<?xml version="1.0" encoding="UTF-8" standalone="no"?>
<svg xmlns:ffdec="https://www.free-decompiler.com/flash" xmlns:xlink="http://www.w3.org/1999/xlink" ffdec:objectType="shape" height="28.7px" width="25.05px" xmlns="http://www.w3.org/2000/svg">
  <g transform="matrix(1.0, 0.0, 0.0, 1.0, 12.2, 14.35)">
    <path d="M1.05 -12.85 L1.05 -12.8 1.0 -12.8 1.05 -12.85 M0.75 -13.05 L0.9 -13.05 0.95 -13.05 0.9 -13.0 0.75 -13.05 M-10.8 -6.85 L-10.85 -7.0 -10.8 -6.95 -10.8 -6.85 -10.8 -6.95 -9.8 -5.7 -10.15 -6.05 -10.45 -5.95 -10.6 -5.8 -10.8 -6.85 M5.8 -0.9 L5.8 -0.85 5.75 -1.0 5.8 -0.9" fill="#cc00ff" fill-rule="evenodd" stroke="none"/>
    <path d="M1.1 -12.8 L1.05 -12.85 1.0 -12.8 0.9 -13.0 0.95 -13.05 2.05 -12.55 Q5.85 -10.7 9.15 -8.2 L9.3 -8.1 11.15 -6.6 9.35 -4.5 Q7.9 -3.15 6.8 -1.65 L4.25 -6.95 3.85 -7.75 Q4.4 -7.05 5.3 -6.95 L5.3 -7.15 5.65 -7.15 5.6 -7.65 4.85 -8.55 4.4 -9.25 3.45 -10.2 3.25 -10.5 1.9 -12.05 1.1 -12.8 M-11.2 1.55 L-11.65 0.75 -11.55 -0.9 -11.55 -1.0 -11.2 -1.25 -11.2 1.55 -11.2 -1.25 -11.0 -1.45 -11.05 -3.0 -10.9 -4.05 -10.6 -5.35 -8.6 -2.45 Q-8.0 -1.5 -7.3 -1.1 L-7.3 -0.65 -6.9 -0.55 -6.85 -0.55 -6.9 -0.15 -6.6 -0.15 -6.55 0.05 -7.3 1.3 -8.55 3.5 -10.45 6.9 Q-10.65 6.35 -11.1 5.9 L-10.95 5.1 Q-10.55 3.0 -11.2 1.55 M7.7 -5.85 L7.65 -5.85 7.65 -5.8 7.7 -5.85 M9.15 -8.2 L0.9 -13.0 9.15 -8.2 M-8.85 -0.6 L-8.9 -0.6 -8.95 0.1 -8.65 -0.35 -8.85 -0.6" fill="#494949" fill-rule="evenodd" stroke="none"/>
    <path d="M1.05 -12.8 L1.05 -12.85 1.1 -12.8 1.05 -12.8" fill="#d52bff" fill-rule="evenodd" stroke="none"/>
    <path d="M1.05 -12.8 L1.1 -12.8 1.9 -12.05 3.25 -10.5 3.45 -10.2 4.4 -9.25 4.85 -8.55 5.6 -7.65 5.65 -7.15 5.3 -7.15 5.3 -6.95 Q4.4 -7.05 3.85 -7.75 L3.45 -8.2 2.85 -9.05 2.5 -9.5 1.45 -10.45 0.9 -11.8 0.3 -12.45 -0.85 -11.25 Q-1.4 -9.5 -2.45 -7.8 L-4.85 -4.25 -5.15 -3.85 -6.15 -1.25 -6.15 -0.85 -6.35 -0.8 Q-6.4 -0.6 -6.6 -0.55 L-6.6 -0.45 -6.5 -0.5 -6.4 -0.55 -6.3 -0.55 -6.1 -0.7 -5.8 -0.85 -4.65 -0.55 1.55 -0.55 3.4 -0.4 4.55 -0.65 5.6 -0.65 5.65 -0.65 5.65 -0.7 5.75 -0.85 5.8 -0.85 5.8 -0.9 6.0 -0.95 6.0 -1.0 6.25 -0.55 6.4 -0.55 6.55 -0.55 6.9 0.05 6.55 1.0 6.3 1.2 6.0 2.3 5.5 3.6 5.3 4.0 3.85 6.7 0.45 12.65 0.4 12.9 0.1 13.3 -0.05 13.55 -0.6 13.1 -0.5 12.95 0.1 13.3 -0.5 12.95 -0.5 12.9 -0.4 12.5 -0.95 12.05 -0.9 11.7 -1.95 10.05 Q-3.45 6.7 -5.25 3.5 L-5.9 2.1 -6.15 1.6 -6.55 0.05 -6.6 -0.15 -6.9 -0.15 -6.85 -0.55 -6.9 -0.55 -7.3 -0.65 -7.3 -1.1 Q-8.0 -1.5 -8.6 -2.45 L-10.6 -5.35 -10.6 -5.4 -10.65 -5.65 -10.6 -5.75 -10.6 -5.8 -10.45 -5.95 -10.15 -6.05 -9.8 -5.7 -10.8 -6.95 -10.6 -7.1 Q-10.6 -7.35 -10.15 -7.45 -10.1 -7.45 -9.95 -7.55 L-9.85 -7.4 -5.45 -10.0 -2.95 -11.4 -2.5 -11.7 -1.95 -12.1 -1.75 -12.3 -1.55 -12.25 Q-1.3 -12.3 -1.05 -12.5 L-0.65 -12.8 -0.55 -12.85 -0.5 -12.85 0.45 -13.0 0.75 -13.0 0.75 -13.05 0.9 -13.0 1.0 -12.8 1.05 -12.8 M0.9 -13.0 L0.75 -13.0 0.9 -13.0 M-9.85 -7.4 L-10.8 -6.95 -9.85 -7.4 M4.55 3.15 L4.4 3.45 3.85 4.8 4.55 3.15 M-1.55 -12.25 L-2.5 -11.7 -1.55 -12.25" fill="#5c5c5c" fill-rule="evenodd" stroke="none"/>
    <path d="M11.65 6.8 L11.15 7.1 11.65 6.8 11.15 7.1 7.4 9.25 Q4.7 10.8 1.85 11.95 0.9 12.3 0.4 12.9 L0.45 12.65 3.85 6.7 5.3 4.0 4.0 7.05 2.55 10.2 2.6 10.2 3.05 9.7 3.8 8.5 3.85 8.45 5.6 6.7 6.05 6.05 7.05 5.05 6.05 2.45 6.0 2.3 6.3 1.2 6.55 1.0 6.9 0.05 7.35 0.85 7.7 1.5 9.35 3.3 11.6 6.15 11.65 6.8 M5.6 -0.65 L4.55 -0.65 3.4 -0.4 1.55 -0.55 -4.65 -0.55 -5.8 -0.85 -6.1 -0.7 -6.3 -0.55 -6.4 -0.55 -6.5 -0.5 -6.6 -0.45 -6.6 -0.55 Q-6.4 -0.6 -6.35 -0.8 L-6.15 -0.85 -6.15 -1.25 -5.15 -3.85 -4.85 -4.25 -2.45 -7.8 Q-1.4 -9.5 -0.85 -11.25 L0.3 -12.45 0.9 -11.8 1.45 -10.45 2.5 -9.5 2.85 -9.05 3.45 -8.2 3.85 -7.75 4.25 -6.95 6.8 -1.65 6.9 -1.2 Q7.1 -0.85 6.8 -0.55 L6.55 -0.55 6.4 -0.55 6.25 -0.55 6.0 -1.0 6.0 -0.95 5.8 -0.9 5.75 -1.0 5.8 -0.85 5.75 -0.85 5.65 -0.7 5.6 -0.65 M9.75 6.9 L9.7 7.0 9.7 7.05 9.8 6.9 9.75 6.9 M-1.95 -6.6 Q-2.4 -5.7 -3.0 -4.7 L-3.3 -3.7 Q-3.75 -2.95 -4.3 -2.35 L-4.95 -0.95 -4.35 -0.9 -2.0 -0.9 -1.5 -0.9 -0.9 -5.25 Q-0.35 -7.45 -0.25 -9.9 -0.95 -8.2 -1.95 -6.6" fill="#747474" fill-rule="evenodd" stroke="none"/>
    <path d="M5.65 -0.7 L5.65 -0.65 5.6 -0.65 5.65 -0.7 M4.55 3.15 L3.85 4.8 4.4 3.45 4.55 3.15" fill="#e375ff" fill-rule="evenodd" stroke="none"/>
    <path d="M11.85 -6.15 L12.15 -6.1 12.15 -6.05 12.15 -5.5 11.85 -4.2 11.85 -6.15 11.85 -4.2 Q11.6 -2.75 11.7 -1.15 11.95 2.15 11.6 5.45 L11.6 6.15 9.35 3.3 7.7 1.5 7.35 0.85 6.9 0.05 6.55 -0.55 6.8 -0.55 Q7.1 -0.85 6.9 -1.2 L6.8 -1.65 Q7.9 -3.15 9.35 -4.5 L11.15 -6.6 11.55 -6.4 11.85 -6.15 M-10.25 7.2 L-10.35 7.3 -10.4 7.15 -10.25 7.2 -10.4 7.15 -10.45 6.9 -8.55 3.5 -7.3 1.3 -6.55 0.05 -6.15 1.6 -5.9 2.1 -5.25 3.5 Q-3.45 6.7 -1.95 10.05 L-0.9 11.7 -0.95 12.05 -1.85 11.55 -8.15 8.4 -9.85 6.7 -10.25 7.2 M8.95 0.25 L8.95 0.05 8.9 0.05 8.95 0.25" fill="#242424" fill-rule="evenodd" stroke="none"/>
    <path d="M6.0 2.3 L6.05 2.45 7.05 5.05 6.05 6.05 5.6 6.7 3.85 8.45 3.8 8.5 3.05 9.7 2.6 10.2 2.55 10.2 4.0 7.05 5.3 4.0 5.5 3.6 6.0 2.3 M-1.95 -6.6 Q-0.95 -8.2 -0.25 -9.9 -0.35 -7.45 -0.9 -5.25 L-1.5 -0.9 -2.0 -0.9 -4.35 -0.9 -4.95 -0.95 -4.3 -2.35 Q-3.75 -2.95 -3.3 -3.7 L-3.0 -4.7 Q-2.4 -5.7 -1.95 -6.6" fill="#959595" fill-rule="evenodd" stroke="none"/>
    <path d="M9.75 6.9 L9.8 6.9 9.7 7.05 9.7 7.0 9.75 6.9 M-8.85 -0.6 L-8.65 -0.35 -8.95 0.1 -8.9 -0.6 -8.85 -0.6" fill="#aa00d5" fill-rule="evenodd" stroke="none"/>
    <path d="M9.15 -8.2 L11.85 -6.65 11.85 -6.15 11.85 -4.2 11.85 6.65 11.65 6.8 11.15 7.1 3.1 11.9 3.05 11.95 2.45 12.15 2.25 12.2 2.1 12.4 1.9 12.5 1.85 12.6 0.3 13.35 0.25 13.35 0.2 13.3 0.15 13.3 0.1 13.3 -0.5 12.95 -10.25 7.2 -10.4 7.15 -11.2 6.65 -11.2 1.55 -11.2 -1.25 -11.2 -6.65 -10.8 -6.85 -10.8 -6.95 -9.85 -7.4 -5.45 -10.0 -2.5 -11.7 -1.55 -12.25 -0.65 -12.8 -0.55 -12.85 0.3 -13.35 0.75 -13.0 0.9 -13.0 9.15 -8.2 Z" fill="none" stroke="#000000" stroke-linecap="round" stroke-linejoin="round" stroke-width="2.0"/>
  </g>
</svg>
