<?xml version="1.0" encoding="UTF-8" standalone="no"?>
<svg xmlns:ffdec="https://www.free-decompiler.com/flash" xmlns:xlink="http://www.w3.org/1999/xlink" ffdec:objectType="shape" height="52.1px" width="42.6px" xmlns="http://www.w3.org/2000/svg">
  <g transform="matrix(1.0, 0.0, 0.0, 1.0, 21.3, 26.5)">
    <path d="M21.15 -26.4 L21.2 -26.3 21.3 -26.2 21.3 -26.15 21.3 -26.05 21.25 -25.95 21.2 -25.85 21.15 -25.8 20.8 -25.75 20.8 -20.05 Q20.8 -16.95 20.95 -13.85 L21.1 -7.55 21.05 -1.3 21.0 5.0 20.95 11.25 20.95 11.85 20.95 11.95 20.9 12.1 20.85 12.3 20.8 12.4 20.8 15.75 20.8 19.35 20.8 21.0 20.85 21.1 20.9 21.2 20.95 21.3 21.0 21.6 20.95 22.05 20.95 22.5 20.95 22.6 20.9 22.7 20.75 22.9 20.7 23.0 20.6 23.1 20.55 23.2 20.55 23.25 20.45 23.35 20.4 23.45 20.3 23.55 20.2 23.65 20.2 23.75 20.15 23.85 20.1 23.95 20.0 24.0 19.85 24.0 19.3 24.05 19.25 24.1 19.0 24.15 18.9 24.2 18.95 24.3 19.05 24.35 19.05 24.45 19.05 24.55 19.0 24.65 18.95 24.75 18.9 24.8 18.7 24.85 17.15 24.85 17.2 24.75 17.2 24.55 17.2 24.45 17.2 24.35 17.2 24.25 17.2 24.2 17.25 24.1 18.0 24.1 17.95 24.0 18.0 23.95 18.0 23.85 18.05 23.75 18.2 23.7 18.25 23.65 18.75 23.45 Q19.1 23.25 19.5 23.2 L19.55 23.1 19.65 23.05 19.85 22.85 19.9 22.75 20.0 22.55 20.2 22.35 20.2 22.25 20.2 22.1 20.2 21.8 20.2 21.6 20.2 21.55 20.1 21.45 20.05 17.75 20.05 14.0 20.05 12.25 20.1 12.15 20.15 11.95 20.2 11.75 20.2 11.7 20.25 5.6 20.3 -0.6 20.35 -6.9 20.2 -13.15 Q20.05 -16.3 20.05 -19.45 L20.05 -25.7 11.15 -25.3 10.55 -25.3 1.2 -25.25 0.95 -25.3 0.7 -25.35 -5.95 -25.55 -18.45 -25.5 -18.4 -19.55 -18.45 -14.8 -18.55 -12.0 -18.5 -11.9 -18.45 -11.8 -18.45 -11.75 -18.45 -11.65 -18.45 -11.55 -18.45 -11.45 -18.45 -7.0 -18.45 -0.7 -18.45 5.6 -18.45 7.1 -18.55 7.95 -18.55 8.0 -19.0 10.4 -19.55 13.0 -19.6 14.05 -19.65 15.2 -19.65 15.85 -19.6 16.0 -19.55 16.3 -19.55 16.45 -19.55 16.85 -19.55 16.95 -19.55 17.0 -19.6 17.1 -19.65 17.2 -19.7 17.3 -19.7 17.4 -19.7 17.5 -19.7 17.6 -19.7 17.7 -19.75 17.75 -19.75 17.85 -19.8 17.95 -19.85 18.15 -19.95 18.35 -20.05 18.45 -20.05 18.5 -20.05 18.6 -20.05 18.7 -20.05 18.8 -20.1 18.9 -20.15 19.0 -20.2 19.1 -20.2 19.75 -20.2 20.45 -20.25 20.45 -20.35 20.5 -20.45 20.6 -20.5 20.7 -20.55 20.8 -20.6 20.9 -20.6 21.0 -20.65 21.1 -20.65 21.55 -20.65 22.0 -20.65 22.75 -20.65 23.25 -20.6 23.35 -20.6 23.45 -20.55 23.5 -20.55 23.6 -20.55 23.7 -20.55 23.8 -20.55 23.9 -20.5 24.0 -20.45 24.1 -20.4 24.2 -20.35 24.25 -20.25 24.35 -20.15 24.45 -19.95 24.55 -19.75 24.6 -19.55 24.65 -19.35 24.6 -19.2 24.6 -19.15 24.55 -18.8 24.3 -18.75 24.25 -18.55 24.2 -18.05 24.0 -17.85 24.0 -17.75 23.95 -17.7 23.95 -17.6 24.0 -17.4 24.0 -16.95 23.9 -16.9 23.9 -16.7 23.85 -16.7 23.9 -16.6 24.0 -16.55 24.1 -16.5 24.65 -17.75 24.7 -18.0 24.8 -18.45 24.95 -18.6 25.0 -18.8 25.1 -18.9 25.2 -19.1 25.25 -19.25 25.35 -19.45 25.4 -19.55 25.5 -19.65 25.6 -19.8 25.6 -19.9 25.6 -20.1 25.55 -20.2 25.45 -20.25 25.35 -20.3 25.25 -20.25 25.2 -20.15 25.0 -20.1 24.95 -20.25 24.85 -20.4 24.75 -20.45 24.8 -20.65 24.85 -20.85 24.8 -20.95 24.7 -21.05 24.6 -21.05 24.2 -21.1 24.1 -21.2 24.0 -21.25 23.95 -21.25 23.85 -21.3 23.75 -21.3 23.65 -21.3 23.45 -21.25 23.35 -21.2 23.3 -21.1 23.2 -21.05 23.2 -21.05 21.8 -21.05 20.85 -20.9 20.2 -20.95 19.45 -20.95 18.9 -20.9 18.8 -20.85 18.7 -20.8 18.6 -20.8 18.5 -20.8 18.45 -20.8 18.35 -20.75 18.25 -20.7 18.15 -20.7 18.05 -20.65 17.95 -20.6 17.85 -20.55 17.75 -20.5 17.7 -20.5 17.6 -20.45 17.5 -20.45 17.4 -20.45 17.3 -20.45 17.2 -20.45 17.1 -20.4 17.05 -20.35 16.95 -20.3 16.85 -20.3 16.65 -20.3 16.25 -20.3 15.9 -20.3 15.8 -20.2 15.55 -20.2 15.05 -20.15 14.6 -20.1 14.5 -20.05 14.4 -20.05 14.3 -20.05 14.2 -20.05 14.1 -20.05 14.0 -20.0 13.95 -19.95 13.85 -19.95 13.75 -19.95 13.55 -19.95 13.25 -19.95 12.9 -19.95 12.8 -19.9 12.7 -19.85 12.6 -19.8 12.5 -19.8 12.35 -19.8 12.05 -19.8 11.75 -19.8 11.7 -19.75 11.6 -19.7 11.5 -19.7 11.4 -19.7 11.3 -19.65 11.2 -19.6 11.1 -19.55 11.0 -19.55 10.95 -19.55 10.85 -19.55 10.75 -19.45 10.55 -19.45 10.2 -19.45 9.8 -19.45 9.7 -19.4 9.6 -19.35 9.5 -19.3 9.45 -19.25 8.6 -19.3 7.55 -19.2 6.9 -19.2 0.8 -19.2 -5.5 -19.2 -11.75 -19.2 -18.05 -19.2 -24.3 -19.2 -25.3 -19.3 -25.4 -19.3 -25.5 -19.3 -25.55 -19.3 -25.75 -19.3 -25.95 -19.3 -26.05 -19.25 -26.15 -19.2 -26.2 -19.1 -26.3 -18.9 -26.4 -6.0 -26.3 -5.75 -26.3 0.7 -26.15 0.95 -26.05 1.15 -26.0 Q10.4 -26.0 19.65 -26.4 L19.8 -26.45 19.95 -26.45 19.95 -26.5 20.95 -26.5 21.15 -26.4" fill="#000000" fill-rule="evenodd" stroke="none"/>
  </g>
</svg>
