<?xml version="1.0" encoding="UTF-8" standalone="no"?>
<svg xmlns:ffdec="https://www.free-decompiler.com/flash" xmlns:xlink="http://www.w3.org/1999/xlink" ffdec:objectType="shape" height="63.2px" width="59.6px" xmlns="http://www.w3.org/2000/svg">
  <g transform="matrix(1.0, 0.0, 0.0, 1.0, 30.5, 56.6)">
    <path d="M8.65 -52.2 L8.55 -52.3 8.45 -52.4 8.45 -52.45 6.65 -52.15 3.8 -52.0 3.7 -52.0 3.6 -51.9 Q0.0 -51.05 -3.6 -51.9 L-4.25 -52.05 -5.55 -52.4 -6.45 -52.3 -6.5 -52.3 -6.55 -52.2 -6.6 -52.1 -6.7 -52.0 -6.8 -51.9 -6.95 -51.85 -7.0 -51.8 -7.15 -51.8 -7.35 -51.75 -8.7 -52.2 -14.7 -51.95 -15.1 -52.05 -15.2 -52.15 -15.3 -52.25 -15.35 -52.3 -15.4 -52.4 -15.45 -52.45 -20.35 -51.95 -20.4 -51.95 -20.55 -51.95 -20.75 -51.9 -21.15 -51.9 -21.7 -51.7 -21.9 -51.65 -22.1 -51.6 -22.3 -51.65 -22.5 -51.7 -22.7 -51.8 -22.8 -51.9 -24.85 -51.9 -25.05 -51.95 -25.3 -52.0 -26.45 -52.0 -26.5 -51.9 -26.45 -51.85 -26.45 -51.55 -26.4 -51.0 -26.4 -50.35 -26.4 -50.05 -26.4 -50.0 -26.35 -49.9 -26.3 -49.8 -26.3 -49.7 -26.25 -49.6 -26.25 -49.3 -26.2 -48.85 -26.05 -48.2 -26.0 -48.0 -26.0 -47.75 -26.0 -47.25 -26.0 -46.6 -26.0 -46.3 -25.95 -46.25 -25.9 -46.15 -25.85 -46.05 -25.8 -45.95 -25.8 -45.85 -25.8 -45.75 -25.75 -45.65 -25.7 -45.5 -25.7 -45.3 -25.65 -45.2 -25.6 -39.45 Q-25.4 -36.35 -25.7 -33.3 L-26.05 -29.8 -26.05 -29.75 -26.15 -29.55 -26.3 -29.25 -26.55 -29.0 -26.7 -28.9 -26.8 -28.8 -26.95 -28.75 Q-26.65 -25.95 -26.8 -23.05 L-26.85 -21.75 -26.95 -19.45 -26.95 -19.1 -27.0 -18.65 -27.0 -18.55 -27.0 -18.45 -27.0 -18.35 -27.0 -18.25 -27.0 -18.15 -27.0 -18.05 -27.0 -17.95 -27.0 -17.9 -27.0 -17.8 -27.0 -17.7 -27.0 -17.6 -27.0 -17.5 -27.0 -17.4 -26.8 -17.1 -26.8 -17.0 -26.75 -16.9 -26.7 -16.8 -26.7 -16.75 -26.65 -16.65 -26.65 -12.8 -26.65 -8.3 -26.65 -5.85 -26.65 -5.75 -26.6 -5.65 -26.55 -5.55 -26.55 -5.5 -26.5 -5.4 -26.5 -3.8 -26.3 -1.65 -26.0 -0.15 -26.0 0.05 -26.0 0.25 -26.0 0.5 -26.0 0.6 -25.95 0.6 -25.75 0.7 -25.65 0.8 -25.55 0.85 -25.5 0.95 -25.4 1.05 -25.35 1.15 -25.3 1.25 -25.3 1.35 -25.3 1.45 -25.25 1.55 -25.25 1.6 -25.25 1.7 -25.25 1.8 -25.25 1.9 -25.2 2.0 -25.2 2.1 -25.15 2.2 -25.15 2.3 -25.15 2.35 -25.15 2.45 -25.15 2.55 -25.15 2.65 -25.15 2.75 -25.15 2.85 -25.15 2.95 -25.15 3.05 -25.15 3.1 -25.15 3.2 -25.15 3.3 -25.15 3.4 -25.15 3.5 -25.15 3.6 -25.15 3.7 -25.15 3.8 -25.15 3.85 -23.6 3.9 -23.4 3.95 -23.25 3.95 -23.0 4.0 -22.8 4.05 -22.6 4.1 -22.25 4.15 -22.05 4.2 -21.9 4.2 -21.8 4.25 -21.65 4.3 -21.45 4.35 -17.6 4.4 -17.4 4.45 -17.2 4.5 -17.0 4.6 -16.9 4.7 -16.8 4.8 -16.75 4.85 -16.65 4.95 -16.6 5.05 -16.55 5.15 -16.55 5.25 -16.55 5.35 -16.5 5.45 -16.5 5.55 -16.5 5.6 -16.55 5.7 -16.55 5.8 -16.6 5.9 -16.65 6.0 -16.7 6.1 -16.75 6.2 -16.85 6.3 -16.95 6.35 -17.1 6.45 -17.25 6.55 -17.4 6.55 -17.6 6.6 -21.85 6.6 -22.05 6.55 -22.3 6.5 -22.5 6.4 -23.0 6.35 -23.2 6.3 -23.45 6.25 -23.55 6.2 -23.7 6.15 -23.85 6.1 -26.25 6.1 -26.45 6.05 -26.7 6.0 -26.9 5.9 -27.0 5.8 -27.0 5.75 -27.2 5.95 -27.35 6.05 -27.55 6.1 -27.7 6.15 -27.8 6.15 -28.15 6.25 -28.9 5.95 -29.65 5.2 -29.9 4.95 -29.9 4.85 -29.95 4.75 -30.0 4.65 -30.05 4.55 -30.05 4.45 -30.05 4.35 -30.15 4.2 -30.2 4.0 -30.2 3.9 -30.25 3.8 -30.3 3.7 -30.3 3.6 -30.35 3.5 -30.4 3.45 -30.4 3.35 -30.4 3.25 -30.4 3.15 -30.4 2.95 -30.4 2.75 -30.4 2.5 -30.4 2.4 -30.45 2.3 -30.45 2.2 -30.5 2.1 -30.5 2.0 -30.5 1.95 -30.5 1.75 -30.5 1.55 -30.5 1.25 -30.45 1.2 -30.45 1.1 -30.4 1.0 -30.3 0.9 -30.2 0.8 -30.15 0.7 -29.95 0.6 -29.85 0.55 -29.7 0.5 -29.5 0.45 -29.5 0.15 -29.45 -0.2 -29.4 -0.75 -29.4 -1.05 -29.4 -1.15 -29.35 -1.25 -29.35 -1.3 -29.35 -1.4 -29.35 -1.45 -29.35 -1.55 -29.35 -1.65 -29.35 -1.75 -29.35 -1.85 -29.35 -1.95 -29.35 -2.05 -29.35 -2.15 -29.35 -2.2 -29.35 -2.3 -29.35 -2.4 -29.35 -2.5 -29.35 -2.6 -29.35 -2.7 -29.35 -2.8 -29.35 -2.9 -29.35 -2.95 -29.35 -3.05 -29.35 -3.15 -29.35 -3.25 -29.35 -3.35 -29.35 -3.45 -29.35 -3.55 -29.35 -3.65 -29.35 -3.7 -29.35 -3.8 -29.35 -3.9 -29.35 -4.0 -29.35 -4.1 -29.35 -4.2 -29.35 -4.3 -29.35 -4.4 -29.35 -4.45 -29.35 -4.55 -29.35 -4.65 -29.35 -4.75 -29.35 -4.85 -29.35 -4.95 -29.35 -5.05 -29.35 -5.15 -29.35 -5.2 -29.35 -5.3 -29.35 -5.4 -29.35 -5.5 -29.35 -5.6 -29.35 -5.7 -29.35 -5.8 -29.35 -5.9 -29.35 -5.95 -29.35 -6.05 -29.35 -6.15 -29.35 -6.25 -29.35 -6.35 -29.35 -6.45 -29.35 -6.55 -29.35 -6.65 -29.35 -6.7 -29.35 -6.8 -29.3 -6.9 -29.3 -7.0 -29.25 -7.1 -29.25 -7.2 -29.25 -7.65 -29.25 -10.1 -29.3 -10.15 -29.35 -10.2 -29.45 -10.3 -29.5 -10.4 -29.55 -10.5 -29.6 -10.6 -29.65 -11.0 -29.75 -11.65 -29.75 -12.4 -29.7 -12.55 -29.7 -12.65 -29.65 -12.75 -29.55 -12.85 -29.4 -13.05 -29.3 -13.15 -29.25 -13.85 -29.2 -15.05 -29.2 -15.15 -29.2 -15.25 -29.2 -15.35 -29.2 -15.45 -29.2 -15.55 -29.2 -15.65 -29.2 -15.8 -29.2 -15.9 -29.2 -16.1 -29.2 -16.2 -29.2 -16.3 -29.2 -16.4 -29.2 -16.45 -29.2 -16.55 -29.2 -16.65 -29.2 -16.75 -29.2 -16.85 -29.2 -16.95 -29.2 -17.05 -29.2 -17.15 -29.2 -17.2 -29.2 -17.3 -29.2 -17.4 -29.2 -17.5 -29.2 -17.6 -29.2 -17.7 -29.2 -17.8 -29.2 -17.9 -29.2 -17.95 -29.2 -18.05 -29.2 -18.15 -29.2 -18.25 -29.2 -18.35 -29.2 -18.45 -29.2 -18.55 -29.2 -18.65 -29.2 -18.7 -29.2 -18.8 -29.2 -18.9 -29.2 -19.0 -29.2 -19.1 -29.2 -19.2 -29.2 -19.3 -29.2 -19.4 -29.2 -19.45 -29.2 -19.55 -29.2 -19.65 -29.2 -19.75 -29.2 -19.85 -29.2 -19.95 -29.2 -20.05 -29.2 -20.15 -29.2 -20.2 -29.2 -20.3 -29.2 -20.4 -29.2 -20.5 -29.2 -20.6 -29.2 -20.7 -29.2 -20.8 -29.2 -20.9 -29.2 -20.95 -29.2 -21.05 -29.2 -21.15 -29.2 -21.25 -29.2 -21.35 -29.2 -21.45 -29.2 -21.55 -29.2 -21.65 -29.2 -21.7 -29.2 -21.8 -29.2 -21.9 -29.2 -22.0 -29.2 -22.1 -29.2 -22.2 -29.2 -22.3 -29.2 -22.4 -29.2 -22.45 -29.2 -22.55 -29.2 -22.65 -29.2 -22.75 -29.2 -22.85 -29.2 -22.95 -29.2 -23.05 -29.2 -23.15 -29.2 -23.2 -29.2 -23.3 -29.2 -23.4 -29.2 -23.5 -29.2 -23.6 -29.2 -23.7 -29.2 -23.8 -29.2 -23.9 -29.2 -23.95 -29.2 -24.05 -29.2 -24.15 -29.2 -24.25 -29.2 -24.35 -29.2 -24.45 -29.2 -24.55 -29.2 -24.65 -29.2 -24.7 -29.2 -24.8 -29.2 -24.9 -29.2 -25.0 -29.2 -25.1 -29.2 -25.2 -29.2 -25.3 -29.2 -25.4 -29.2 -25.45 -29.2 -25.55 -29.2 -25.65 -29.2 -25.75 -29.2 -25.85 -29.2 -25.95 -29.2 -26.05 -29.2 -26.15 -29.2 -26.2 -29.2 -26.3 -29.2 -26.4 -29.2 -26.5 -29.2 -26.6 -29.2 -26.7 -29.2 -26.8 -29.2 -26.9 -29.2 -26.95 -29.2 -27.05 -29.2 -27.15 -29.2 -27.25 -29.25 -27.35 -29.25 -27.45 -29.3 -27.55 -29.3 -27.65 -29.35 -27.7 -29.35 -27.8 -29.35 -27.9 -29.35 -28.0 -29.35 -28.1 -29.35 -28.2 -29.35 -28.3 -29.35 -28.4 -29.35 -28.45 -29.35 -28.55 -29.35 -28.65 -29.35 -28.75 -29.35 -28.85 -29.35 -28.95 -29.35 -29.05 -29.35 -29.15 -29.35 -29.2 -29.35 -29.3 -29.35 -29.4 -29.35 -29.5 -29.35 -29.6 -29.35 -29.7 -29.35 -29.8 -29.35 -29.9 -29.35 -29.95 -29.35 -30.05 -29.35 -30.15 -29.35 -30.25 -29.35 -30.35 -29.35 -30.45 -29.35 -30.55 -29.35 -30.65 -29.35 -30.7 -29.35 -30.8 -29.35 -30.9 -29.35 -31.0 -29.4 -32.45 -29.5 -33.1 -29.5 -33.3 -29.5 -33.55 -29.5 -34.05 -29.5 -34.4 -29.45 -34.5 -29.45 -34.65 -29.45 -34.75 -29.45 -34.85 -29.45 -34.95 -29.45 -35.05 -29.45 -35.15 -29.45 -35.2 -29.45 -35.3 -29.5 -35.4 -29.55 -35.5 -29.55 -35.6 -29.55 -35.7 -29.6 -35.8 -29.6 -35.9 -29.6 -35.95 -29.65 -36.05 -29.65 -36.15 -29.65 -36.25 -29.7 -36.35 -29.7 -36.45 -29.7 -36.55 -29.7 -36.65 -29.7 -36.7 -29.7 -36.8 -29.7 -36.9 -29.7 -37.0 -29.7 -37.1 -29.7 -37.2 -29.7 -37.3 -29.7 -37.4 -29.7 -37.45 -29.7 -37.55 -29.7 -37.65 -29.7 -37.75 -29.7 -37.85 -29.7 -37.95 -29.7 -38.05 -29.7 -38.15 -29.7 -38.2 -29.7 -38.3 -29.7 -38.4 -29.7 -38.5 -29.7 -38.6 -29.7 -38.7 -29.7 -38.8 -29.7 -38.9 -29.7 -38.95 -29.7 -39.05 -29.7 -39.15 -29.7 -39.25 -29.7 -39.35 -29.7 -39.45 -29.7 -39.55 -29.7 -39.65 -29.7 -39.7 -29.7 -39.8 -29.7 -39.9 -29.7 -40.0 -29.7 -40.1 -29.7 -40.2 -29.7 -40.3 -29.7 -40.4 -29.7 -40.45 -29.7 -40.55 -29.7 -40.65 -29.7 -40.75 -29.7 -40.85 -29.7 -40.95 -29.7 -41.05 -29.7 -41.15 -29.7 -41.2 -29.7 -41.3 -29.7 -41.4 -29.7 -41.5 -29.7 -41.6 -29.7 -41.7 -29.7 -41.8 -29.7 -41.9 -29.7 -41.95 -29.7 -42.05 -29.7 -42.15 -29.7 -42.25 -29.7 -42.35 -29.7 -42.45 -29.7 -42.55 -29.7 -42.65 -29.7 -42.7 -29.7 -42.8 -29.7 -42.9 -29.7 -43.0 -29.7 -43.1 -29.7 -43.2 -29.7 -43.3 -29.7 -43.4 -29.7 -43.45 -29.7 -43.55 -29.7 -43.65 -29.7 -43.75 -29.7 -43.85 -29.7 -43.95 -29.7 -44.05 -29.7 -44.15 -29.7 -44.2 -29.7 -44.3 -29.7 -44.4 -29.7 -44.5 -29.7 -44.6 -29.65 -44.7 -29.65 -44.8 -29.6 -44.9 -29.6 -44.95 -29.6 -45.05 -29.6 -45.15 -29.6 -45.25 -29.6 -45.35 -29.6 -45.45 -29.6 -45.55 -29.6 -45.65 -29.6 -45.7 -29.6 -45.8 -29.6 -45.9 -29.6 -46.0 -29.6 -46.1 -29.6 -46.2 -29.6 -46.3 -29.6 -46.4 -29.6 -46.45 -29.6 -46.55 -29.6 -46.65 -29.6 -46.75 -29.6 -46.85 -29.6 -46.95 -29.6 -47.05 -29.6 -47.15 -29.6 -47.2 -29.6 -47.3 -29.6 -47.4 -29.6 -47.5 -29.6 -47.6 -29.6 -47.7 -29.6 -47.8 -29.6 -47.9 -29.6 -47.95 -29.6 -48.05 -29.6 -48.15 -29.6 -48.25 -29.6 -48.35 -29.6 -48.45 -29.6 -48.55 -29.6 -48.65 -29.6 -48.7 -29.6 -48.8 -29.6 -48.9 -29.6 -49.0 -29.6 -49.1 -29.6 -49.2 -29.6 -49.3 -29.6 -49.4 -29.6 -49.45 -29.6 -49.55 -29.6 -49.65 -29.6 -49.75 -29.6 -49.85 -29.6 -49.95 -29.6 -50.05 -29.6 -50.15 -29.55 -50.2 -29.55 -50.3 -29.55 -50.4 -29.5 -50.5 -29.45 -50.6 -29.4 -50.7 -29.4 -50.8 -29.35 -50.9 -29.3 -50.95 -29.3 -51.05 -29.3 -51.15 -29.25 -51.25 -29.2 -51.35 -29.2 -51.45 -29.15 -51.55 -29.15 -51.65 -29.1 -51.7 -29.1 -51.8 -29.05 -51.9 -29.05 -52.0 -29.0 -52.1 -29.0 -52.2 -28.9 -52.3 -28.8 -52.4 -28.75 -52.45 -28.7 -52.55 -28.65 -52.65 -28.6 -52.75 -28.6 -52.85 -28.55 -52.95 -28.55 -53.05 -28.5 -53.15 -28.45 -53.2 -28.4 -53.3 -28.3 -53.4 -28.3 -53.5 -28.25 -53.6 -28.25 -53.7 -28.15 -53.8 -28.05 -53.9 -28.0 -53.95 -27.9 -54.05 -27.7 -54.15 -27.45 -54.2 -27.25 -54.25 -25.85 -54.25 -22.85 -54.55 -20.05 -54.9 -20.05 -54.95 -20.1 -55.05 -20.1 -55.15 -20.1 -55.2 -20.1 -55.3 -20.05 -55.4 -20.05 -55.5 -20.0 -55.6 -20.0 -55.7 -19.9 -55.8 -19.8 -55.9 -19.75 -55.95 -19.65 -56.05 -19.45 -56.15 -19.2 -56.2 -19.0 -56.25 -18.85 -56.25 -18.65 -56.2 -18.45 -56.15 -13.55 -56.15 -13.3 -56.2 -13.1 -56.25 -11.15 -56.3 -10.95 -56.3 -10.75 -56.35 -8.95 -56.4 -8.7 -56.45 -8.5 -56.5 -7.8 -56.55 -7.55 -56.55 -7.35 -56.55 -7.35 -56.6 11.65 -56.6 11.85 -56.55 12.0 -56.55 12.75 -56.5 12.95 -56.45 13.15 -56.4 13.35 -56.3 13.5 -56.2 13.65 -56.15 13.75 -56.05 13.85 -55.95 13.9 -55.85 13.95 -55.75 14.0 -55.65 16.65 -55.6 20.55 -55.65 20.85 -55.45 20.9 -55.4 22.75 -55.35 22.95 -55.3 23.1 -55.3 25.25 -55.25 25.45 -55.2 25.65 -55.15 25.85 -55.05 26.0 -54.95 26.15 -54.9 26.3 -54.8 26.45 -54.7 26.6 -54.6 26.7 -54.5 26.85 -54.4 26.95 -54.3 27.05 -54.2 27.1 -54.15 27.2 -54.05 27.25 -53.95 27.35 -53.85 27.4 -53.75 27.45 -53.65 27.5 -53.55 27.6 -53.45 27.6 -53.4 27.7 -53.3 27.75 -53.2 27.75 -53.1 27.8 -53.0 27.85 -52.9 27.9 -52.8 27.95 -52.7 27.95 -52.65 28.0 -52.55 28.0 -52.45 28.0 -52.35 28.0 -52.25 28.05 -52.15 28.05 -52.05 28.1 -51.95 28.1 -51.9 28.15 -51.8 28.2 -51.7 28.2 -51.6 28.25 -51.5 28.25 -51.4 28.25 -51.3 28.25 -51.2 28.25 -51.15 28.25 -51.05 28.3 -50.95 28.3 -50.85 28.35 -50.75 28.35 -50.65 28.4 -50.55 28.45 -50.45 28.45 -50.4 28.5 -50.3 28.5 -50.2 28.5 -50.1 28.5 -50.0 28.55 -49.9 28.55 -49.8 28.6 -49.7 28.6 -49.65 28.6 -49.55 28.6 -49.45 28.65 -49.35 28.7 -49.25 28.7 -49.15 28.7 -49.05 28.75 -48.95 28.75 -48.9 28.75 -48.8 28.75 -48.7 28.75 -48.6 28.75 -48.5 28.75 -48.4 28.75 -48.3 28.75 -48.2 28.75 -48.15 28.75 -48.05 28.75 -47.95 28.75 -47.85 28.75 -47.75 28.75 -47.65 28.75 -47.55 28.75 -47.45 28.75 -47.4 28.75 -47.3 28.75 -47.2 28.75 -47.1 28.75 -47.0 28.75 -46.9 28.75 -46.8 28.75 -46.7 28.75 -46.65 28.75 -46.55 28.75 -46.45 28.75 -46.35 28.75 -46.25 28.75 -46.15 28.75 -46.05 28.75 -45.95 28.75 -45.9 28.75 -45.8 28.75 -45.7 28.75 -45.65 28.85 -44.9 28.8 -44.8 28.8 -44.7 28.75 -44.6 28.75 -44.55 28.75 -44.45 28.75 -44.4 28.75 -44.3 28.75 -44.2 28.75 -44.1 28.75 -44.0 28.75 -43.9 28.75 -43.8 28.75 -43.7 28.75 -43.65 28.75 -43.55 28.75 -43.45 28.75 -43.35 28.75 -43.25 28.75 -43.15 28.75 -43.05 28.75 -42.95 28.75 -42.9 28.75 -42.8 28.75 -42.7 28.75 -42.6 28.75 -42.5 28.75 -42.4 28.75 -42.3 28.75 -42.2 28.75 -42.15 28.75 -42.05 28.75 -41.95 28.75 -41.85 28.75 -41.75 28.75 -41.65 28.75 -41.55 28.75 -41.45 28.75 -41.4 28.75 -41.3 28.75 -41.2 28.75 -41.1 28.75 -41.0 28.75 -40.9 28.75 -40.8 28.75 -40.7 28.75 -40.65 28.75 -40.55 28.75 -40.45 28.75 -40.35 28.75 -40.25 28.75 -40.15 28.75 -40.05 28.75 -39.95 28.75 -39.9 28.75 -39.8 28.75 -39.7 28.7 -39.6 28.7 -39.5 28.7 -39.4 28.65 -39.3 28.6 -39.2 28.6 -39.15 28.55 -39.05 28.5 -38.95 28.5 -38.85 28.5 -38.75 28.5 -38.65 28.5 -38.55 28.5 -38.45 28.5 -38.4 28.5 -38.3 28.5 -38.2 28.45 -38.1 28.45 -38.0 28.45 -37.9 28.4 -37.8 28.35 -37.7 28.3 -37.65 28.25 -37.55 28.25 -37.45 28.25 -37.35 28.25 -37.25 28.25 -37.15 28.25 -37.05 28.25 -36.95 28.25 -36.9 28.25 -36.8 28.25 -36.7 28.25 -36.6 28.2 -36.5 28.2 -36.4 28.2 -36.3 28.15 -36.2 28.1 -36.15 28.05 -36.05 28.0 -35.95 28.0 -35.85 27.95 -35.75 27.95 -35.45 27.95 -34.4 27.85 -30.55 27.75 -29.9 27.8 -29.85 27.95 -29.75 28.0 -29.65 28.1 -29.55 28.2 -29.45 28.2 -29.4 28.25 -29.3 28.3 -29.2 28.3 -29.1 28.35 -29.0 28.35 -28.9 28.35 -28.8 28.3 -28.7 28.3 -28.65 28.25 -28.55 28.25 -28.45 28.25 -28.35 28.25 -28.25 28.25 -28.15 28.25 -28.05 28.25 -27.95 28.25 -27.9 28.25 -27.8 28.25 -27.7 28.25 -27.6 28.25 -27.5 28.25 -27.4 28.25 -27.3 28.25 -27.2 28.25 -27.15 28.25 -27.05 28.25 -26.95 28.25 -26.85 28.25 -26.75 28.25 -26.65 28.25 -26.55 28.3 -26.45 28.35 -26.4 28.35 -26.3 28.35 -26.2 28.35 -26.1 28.35 -26.0 28.35 -25.9 28.35 -25.8 28.35 -25.7 28.35 -25.65 28.4 -25.55 28.45 -25.45 28.45 -25.35 28.5 -25.25 28.5 -25.15 28.5 -25.05 28.5 -24.95 28.5 -24.9 28.5 -24.8 28.55 -24.7 28.55 -24.6 28.6 -24.5 28.6 -24.4 28.65 -24.3 28.7 -24.2 28.7 -24.15 28.75 -24.05 28.75 -23.95 28.75 -23.85 28.75 -23.75 28.75 -23.65 28.75 -23.55 28.75 -23.45 28.8 -23.4 28.85 -23.3 28.85 -23.2 28.9 -23.1 28.95 -23.0 28.95 -22.9 28.95 -22.8 29.0 -22.7 29.0 -22.65 29.0 -22.55 29.0 -22.45 29.0 -22.35 29.0 -22.25 29.0 -22.15 29.0 -22.05 29.0 -21.95 29.0 -21.9 29.0 -21.8 29.0 -21.7 29.0 -21.6 29.0 -21.5 29.0 -21.4 29.0 -21.3 29.0 -21.2 29.0 -21.15 29.0 -21.05 29.0 -20.95 29.0 -20.85 29.0 -20.75 29.0 -20.65 28.95 -20.55 28.95 -20.45 28.9 -20.4 28.85 -20.3 28.85 -20.2 28.85 -20.1 28.85 -20.0 28.85 -19.9 28.85 -19.8 28.85 -19.7 28.85 -19.65 28.85 -19.55 28.8 -19.45 28.75 -19.35 28.75 -19.25 28.75 -19.15 28.75 -19.05 28.75 -18.95 28.75 -18.9 28.7 -18.8 28.7 -18.7 28.65 -18.6 28.6 -18.5 28.6 -18.4 28.45 -16.95 28.2 -15.25 28.2 -15.15 28.15 -15.05 28.1 -15.0 28.0 -14.9 27.9 -14.7 28.0 -14.65 28.1 -14.55 28.2 -14.45 28.25 -14.4 28.35 -14.3 28.4 -14.2 28.45 -14.1 28.45 -14.0 28.45 -13.9 28.5 -13.8 28.5 -13.7 28.5 -13.65 28.5 -13.55 28.5 -13.45 28.5 -13.35 28.55 -13.25 28.55 -13.15 28.6 -13.05 28.6 -12.95 28.6 -12.9 28.6 -12.8 28.6 -12.7 28.6 -12.6 28.6 -12.5 28.6 -12.4 28.6 -12.3 28.6 -12.2 28.6 -12.15 28.6 -12.05 28.6 -11.95 28.6 -11.85 28.6 -11.75 28.6 -11.65 28.6 -11.55 28.6 -11.45 28.6 -11.4 28.6 -11.3 28.6 -11.2 28.6 -11.1 28.6 -11.0 28.6 -10.9 28.6 -10.8 28.6 -10.7 28.6 -10.65 28.6 -10.55 28.6 -10.45 28.6 -10.35 28.6 -10.25 28.6 -10.15 28.6 -10.05 28.6 -9.95 28.6 -9.9 28.6 -9.8 28.6 -9.7 28.6 -9.6 28.6 -9.5 28.6 -9.4 28.6 -9.3 28.6 -9.2 28.6 -9.15 28.6 -9.05 28.6 -8.95 28.6 -8.85 28.6 -8.75 28.6 -8.65 28.6 -8.55 28.6 -8.45 28.6 -8.4 28.6 -8.3 28.6 -8.2 28.6 -8.1 28.6 -8.0 28.6 -7.9 28.6 -7.8 28.6 -7.7 28.6 -7.65 28.6 -7.55 28.6 -7.45 28.6 -7.35 28.6 -7.25 28.6 -7.15 28.6 -7.05 28.6 -6.95 28.6 -6.9 28.6 -6.8 28.6 -6.7 28.6 -6.6 28.6 -6.5 28.6 -6.4 28.6 -6.3 28.6 -6.2 28.6 -6.15 28.6 -6.05 28.6 -5.95 28.6 -5.85 28.6 -5.75 28.6 -5.65 28.6 -5.55 28.6 -5.45 28.6 -5.4 28.6 -5.3 28.6 -5.2 28.6 -5.1 28.6 -5.0 28.6 -4.9 28.6 -4.8 28.6 -4.7 28.6 -4.65 28.6 -4.55 28.6 -4.45 28.6 -4.35 28.6 -4.25 28.6 -4.15 28.6 -4.05 28.6 -3.95 28.6 -3.9 28.6 -3.8 28.6 -3.7 28.6 -3.6 28.6 -3.5 28.6 -3.4 28.6 -3.3 28.6 -3.2 28.65 -3.15 28.7 -3.05 28.7 -2.95 28.75 -2.85 28.75 -2.75 28.75 -2.65 28.75 -2.55 28.75 -2.45 28.75 -2.4 28.75 -2.3 28.75 -2.2 28.75 -2.1 28.75 -2.0 28.75 -1.9 28.75 -1.8 28.75 -1.7 28.8 -1.65 28.85 -1.55 28.9 -1.45 28.95 -1.35 28.95 -1.25 28.95 -1.15 29.0 -1.05 29.0 -0.95 29.0 -0.9 29.0 -0.8 29.0 -0.7 29.0 -0.6 29.0 -0.5 29.0 -0.4 29.0 -0.3 29.0 -0.2 29.05 -0.15 29.1 -0.05 29.1 0.05 29.1 0.15 29.1 0.25 29.1 0.35 29.1 0.45 29.1 0.55 29.1 0.6 29.1 0.7 29.1 0.8 29.1 0.9 29.1 1.0 29.1 1.1 29.1 1.2 29.1 1.3 29.1 1.35 29.1 1.45 29.1 1.55 29.1 1.65 29.1 1.75 29.1 1.85 29.1 1.95 29.1 2.05 29.1 2.1 29.1 2.2 29.1 2.3 29.1 2.4 29.1 2.5 29.1 2.6 29.1 2.7 29.1 2.8 29.1 2.85 29.1 2.95 29.1 3.05 29.1 3.15 29.1 3.25 29.1 3.35 29.1 3.45 29.1 3.55 29.1 3.6 29.1 3.7 29.1 3.8 29.1 3.9 29.1 4.0 29.1 4.1 29.1 4.2 29.1 4.3 29.1 4.35 29.1 4.45 29.1 4.55 29.1 4.65 29.1 4.75 29.1 4.85 29.1 4.95 29.05 5.05 29.05 5.1 29.0 5.2 28.95 5.3 28.95 5.4 28.85 5.5 28.75 5.6 28.7 5.7 28.55 5.8 28.4 5.85 28.25 5.95 28.1 6.05 27.95 6.05 27.75 6.1 26.9 6.1 26.85 6.1 26.5 6.3 26.25 6.35 26.1 6.4 25.9 6.35 25.7 6.3 25.5 6.2 25.4 6.1 25.3 6.0 25.25 5.95 25.15 5.85 25.1 5.75 25.05 5.65 25.05 5.55 25.0 5.45 25.0 5.35 25.0 5.25 24.95 5.2 24.9 5.1 24.9 5.0 24.85 4.9 24.85 4.8 24.85 4.6 24.85 4.45 24.85 4.35 24.9 4.25 24.95 4.15 25.05 4.05 25.1 3.95 25.2 3.85 25.35 3.75 25.45 3.65 25.5 3.6 25.55 3.0 25.55 2.9 25.5 2.8 25.5 2.7 25.45 2.6 25.45 2.55 25.4 2.45 25.4 2.35 25.4 2.25 25.4 2.15 25.4 2.05 25.4 1.95 25.4 1.85 25.4 1.8 25.4 1.7 25.4 1.6 25.4 1.5 25.4 1.4 25.4 1.3 25.4 1.2 25.4 1.1 25.4 1.05 25.4 0.95 25.4 0.85 25.4 0.75 25.4 0.65 25.4 0.55 25.4 0.45 25.35 0.35 25.35 0.3 25.3 0.2 25.3 0.1 25.3 0.0 25.3 -0.1 25.3 -0.2 25.3 -0.3 25.25 -0.4 25.25 -0.45 25.2 -0.55 25.2 -0.65 25.15 -0.75 25.15 -0.85 25.15 -0.95 25.1 -1.05 25.1 -1.15 25.05 -1.2 25.05 -1.3 25.05 -1.4 25.05 -1.5 25.05 -1.6 25.05 -1.7 25.05 -1.8 25.0 -1.9 25.0 -1.95 24.95 -2.05 24.95 -2.15 24.9 -2.25 24.9 -2.35 24.9 -2.45 24.9 -2.55 24.9 -2.65 24.9 -2.7 24.9 -2.8 24.9 -2.9 24.9 -3.0 24.9 -3.1 24.9 -3.2 24.9 -3.3 24.9 -3.4 24.9 -3.45 24.9 -3.55 24.9 -3.65 24.9 -3.75 24.9 -3.85 24.9 -3.95 24.9 -4.05 24.95 -4.15 24.95 -4.2 24.95 -4.3 25.0 -4.4 25.05 -4.5 25.1 -4.6 25.2 -4.7 25.2 -4.8 25.25 -4.9 25.3 -4.95 25.35 -5.05 25.45 -5.15 25.55 -5.25 25.65 -5.3 25.55 -7.65 25.55 -11.5 25.65 -13.65 25.7 -13.75 25.75 -13.85 25.75 -13.95 25.8 -14.05 25.8 -14.1 25.65 -14.05 25.45 -14.1 25.2 -14.15 25.0 -14.25 24.95 -14.35 24.85 -14.45 24.75 -14.55 24.7 -14.65 24.65 -14.7 24.6 -14.8 24.6 -14.9 24.55 -15.0 24.55 -15.1 24.55 -15.2 24.55 -15.3 24.55 -15.4 24.55 -15.45 24.55 -15.55 24.55 -15.65 24.55 -15.75 24.55 -15.85 24.55 -15.95 24.6 -16.05 24.6 -16.15 24.65 -16.2 24.65 -16.3 24.65 -16.4 24.65 -16.5 24.65 -16.6 24.65 -16.7 24.65 -16.8 24.65 -16.9 24.65 -16.95 24.65 -17.05 24.65 -17.15 24.65 -17.25 24.65 -17.35 24.65 -17.45 24.7 -17.55 24.7 -17.65 24.75 -17.7 24.75 -17.8 24.8 -17.9 24.8 -18.0 24.8 -18.1 24.8 -18.2 24.8 -18.3 24.8 -18.4 24.8 -18.45 24.8 -18.55 24.8 -18.65 24.8 -18.75 24.8 -18.85 24.8 -18.95 24.8 -19.05 24.8 -19.15 24.8 -19.2 24.8 -19.3 24.8 -19.4 24.8 -19.5 24.8 -19.6 24.8 -19.7 24.8 -19.8 24.8 -19.9 24.8 -19.95 24.8 -20.05 24.8 -20.15 24.8 -20.25 24.75 -20.35 24.75 -20.45 24.7 -20.55 24.7 -20.65 24.65 -20.7 24.65 -20.8 24.65 -20.9 24.65 -21.0 24.65 -21.1 24.65 -21.2 24.6 -21.3 24.6 -21.4 24.55 -21.45 24.55 -21.55 24.55 -21.65 24.55 -21.75 24.5 -21.85 24.5 -21.95 24.45 -22.05 24.45 -22.15 24.4 -22.2 24.4 -22.3 24.4 -22.4 24.4 -22.5 24.4 -22.6 24.4 -22.7 24.4 -22.8 24.4 -22.9 24.4 -22.95 24.35 -23.05 24.35 -23.15 24.3 -23.25 24.3 -23.35 24.3 -23.45 24.3 -23.55 24.25 -23.65 24.25 -23.7 24.2 -23.8 24.2 -23.9 24.15 -24.0 24.15 -24.1 24.15 -24.2 24.1 -24.3 24.1 -24.4 24.05 -24.45 24.05 -24.55 24.05 -24.65 24.05 -24.75 24.05 -24.85 24.05 -24.95 24.05 -25.05 24.05 -25.15 24.05 -25.2 24.05 -25.3 24.05 -25.4 24.05 -25.5 24.05 -25.6 24.05 -25.7 24.05 -25.8 24.05 -25.9 24.05 -25.95 24.05 -26.05 24.05 -26.15 24.05 -26.25 24.05 -26.35 24.05 -26.45 24.05 -26.55 24.05 -26.65 24.05 -26.7 24.05 -26.8 24.05 -26.9 24.05 -27.0 24.05 -27.1 24.05 -27.2 24.05 -27.3 24.05 -27.4 24.05 -27.45 24.05 -27.55 24.05 -27.65 24.05 -27.75 24.05 -27.85 24.05 -27.95 24.05 -28.05 24.05 -28.15 24.05 -28.2 24.05 -28.3 24.05 -28.4 24.05 -28.5 24.05 -28.6 24.05 -28.7 24.05 -28.8 24.05 -28.9 24.05 -28.95 24.05 -29.05 24.05 -29.15 24.05 -29.25 24.05 -29.35 24.1 -29.45 24.1 -29.55 24.15 -29.65 24.2 -29.7 24.2 -29.8 24.25 -29.9 24.3 -30.0 24.4 -30.1 24.5 -30.2 24.6 -30.3 24.75 -30.4 24.9 -30.45 25.05 -30.45 25.1 -30.45 25.15 -31.2 25.45 -34.0 25.5 -35.7 25.55 -35.8 25.55 -35.9 25.6 -36.0 25.6 -36.05 25.6 -36.15 25.65 -36.35 25.7 -36.65 25.8 -36.9 25.8 -36.95 25.65 -37.05 25.55 -37.15 25.45 -37.25 25.4 -37.3 25.35 -37.4 25.3 -37.5 25.25 -37.6 25.2 -37.7 25.2 -37.8 25.15 -37.9 25.1 -38.05 Q25.05 -39.75 25.3 -41.35 L25.7 -44.15 25.9 -47.15 25.95 -47.25 26.0 -47.35 26.0 -47.45 26.0 -47.55 26.05 -47.65 26.05 -47.75 26.1 -47.75 26.1 -48.1 26.05 -48.25 25.85 -48.8 25.8 -49.05 25.75 -49.15 25.7 -49.25 25.6 -49.35 25.55 -49.45 25.45 -49.65 25.4 -49.75 25.35 -49.8 25.35 -49.9 25.35 -50.0 25.35 -50.1 25.35 -50.2 25.35 -50.4 24.75 -50.8 24.7 -50.85 24.35 -50.95 23.95 -51.2 23.05 -51.55 22.9 -51.6 22.4 -51.65 16.4 -51.7 16.2 -51.65 16.0 -51.6 15.8 -51.65 14.4 -51.8 14.0 -51.85 13.8 -51.95 13.7 -52.05 13.65 -52.1 Q11.35 -51.9 9.05 -52.1 L8.65 -52.2" fill="#000000" fill-opacity="0.31764707" fill-rule="evenodd" stroke="none"/>
  </g>
</svg>
