<?xml version="1.0" encoding="UTF-8" standalone="no"?>
<svg xmlns:ffdec="https://www.free-decompiler.com/flash" xmlns:xlink="http://www.w3.org/1999/xlink" ffdec:objectType="shape" height="59.25px" width="53.6px" xmlns="http://www.w3.org/2000/svg">
  <g transform="matrix(1.0, 0.0, 0.0, 1.0, 27.4, 52.9)">
    <path d="M4.1 -50.55 L2.5 -50.6 2.25 -50.65 2.15 -50.75 1.1 -50.8 0.85 -50.8 -7.45 -50.7 -7.55 -50.65 -7.75 -50.6 -9.75 -50.6 -10.0 -50.65 -10.1 -50.75 -11.5 -50.8 -11.75 -50.8 -11.9 -50.85 -12.15 -50.9 -12.25 -51.0 -12.65 -51.0 -12.9 -51.05 -14.4 -51.1 -14.65 -51.15 -14.75 -51.25 -15.65 -51.25 -16.35 -51.3 -16.45 -51.25 -16.65 -51.25 -17.4 -51.2 -17.45 -51.15 -17.95 -51.05 -18.15 -51.0 -20.2 -50.95 -20.3 -50.9 -21.2 -50.8 -21.4 -50.75 -22.95 -50.8 -23.05 -50.8 -24.75 -50.85 -24.75 -50.7 -24.8 -50.6 -24.85 -50.5 -24.9 -50.4 -24.9 -49.75 -24.9 -48.9 -24.9 -48.25 -24.95 -48.15 -24.95 -48.05 -25.0 -48.0 -25.0 -47.9 -25.0 -47.8 -25.0 -47.7 -25.0 -47.6 -25.05 -47.5 -25.05 -47.4 -25.05 -47.3 -25.05 -47.05 -25.05 -46.95 -25.1 -46.85 -25.15 -46.75 -25.15 -46.65 -25.15 -46.55 -25.15 -46.5 -25.15 -46.4 -25.2 -46.3 -25.2 -46.2 -25.3 -46.1 -25.3 -46.0 -25.3 -45.9 -25.3 -45.75 -25.3 -45.55 -25.25 -45.45 -25.2 -45.35 -25.15 -45.25 -25.15 -45.15 -25.15 -44.9 -25.15 -44.5 -25.15 -44.25 -25.1 -44.15 -25.05 -44.05 -25.0 -43.75 -25.05 -43.2 -25.05 -42.65 -25.05 -42.55 -25.05 -42.45 -25.1 -42.35 -25.15 -42.25 -25.1 -42.15 -25.1 -42.05 -25.05 -42.0 -25.05 -41.9 -25.05 -41.8 -25.05 -41.5 -25.05 -41.15 -25.05 -40.85 -25.05 -40.75 -25.1 -40.65 -25.15 -40.55 -25.15 -40.5 -25.15 -40.4 -25.15 -40.3 -25.15 -40.2 -25.2 -40.1 -25.25 -40.0 -25.3 -39.9 -25.3 -39.8 -25.3 -39.65 -25.3 -39.45 -25.3 -39.35 -25.35 -39.25 -25.4 -39.15 -25.35 -39.05 -25.3 -38.95 -25.3 -38.85 -25.3 -38.65 -25.3 -38.3 -25.25 -37.8 -25.25 -37.75 -25.2 -37.65 -25.15 -37.55 -25.1 -37.25 -25.15 -36.8 -25.15 -36.25 -25.15 -36.15 -25.1 -36.05 -25.05 -35.95 -25.05 -35.85 -25.05 -35.0 -25.05 -33.9 -25.05 -32.95 -25.0 -32.85 -24.95 -32.75 -24.9 -32.65 -24.85 -31.75 -24.9 -30.4 -24.9 -29.6 -24.9 -29.5 -24.9 -29.4 -24.9 -29.15 -24.9 -28.65 -24.95 -28.55 -24.95 -28.5 -25.0 -28.4 -25.0 -27.75 -25.0 -26.9 -25.0 -26.25 -25.05 -26.15 -25.05 -26.05 -25.1 -25.95 -25.15 -25.85 -25.15 -25.75 -25.15 -25.65 -25.15 -25.55 -25.2 -25.4 -25.25 -25.2 -25.25 -25.1 -25.25 -25.0 -25.3 -24.9 -25.3 -24.8 -25.35 -24.75 -25.4 -24.65 -25.4 -24.55 -25.4 -24.35 -25.4 -24.05 -25.4 -23.8 -25.45 -23.7 -25.5 -23.6 -25.5 -23.5 -25.5 -23.4 -25.5 -23.3 -25.55 -23.25 -25.55 -23.15 -25.65 -23.05 -25.65 -22.95 -25.65 -22.75 -25.65 -22.65 -25.65 -22.5 -25.65 -22.4 -25.65 -22.3 -25.65 -22.2 -25.6 -22.1 -25.55 -22.0 -25.5 -19.65 -25.5 -17.15 -25.55 -15.65 -25.55 -15.55 -25.65 -15.45 -25.65 -14.7 -25.65 -13.75 -25.65 -12.9 -25.6 -12.8 -25.55 -12.7 -25.55 -12.65 -25.5 -12.0 -25.5 -11.15 -25.5 -10.4 -25.4 -9.05 -25.4 -7.5 -25.4 -6.45 -25.45 -6.35 -25.45 -6.25 -25.5 -6.15 -25.5 -6.05 -25.5 -5.9 -25.5 -5.6 -25.5 -5.3 -25.45 -5.25 -25.45 -5.15 -25.4 -5.05 -25.4 -4.65 -25.4 -4.0 -25.4 -3.45 -25.35 -3.35 -25.3 -3.25 -25.25 -0.25 -25.25 2.95 -25.25 3.6 -25.0 3.7 -24.85 3.75 -24.75 3.85 -24.7 3.95 -24.65 4.05 -24.65 4.15 -24.65 4.2 -24.1 4.2 -23.95 4.15 -23.75 4.1 -23.25 4.05 -23.1 3.95 -22.95 3.9 -22.5 3.8 -22.35 3.7 -22.25 3.6 -22.1 3.5 -21.95 3.45 -21.8 3.35 -21.5 3.3 -21.5 3.25 -20.5 3.25 -20.25 3.35 -20.1 3.45 -20.0 3.5 -19.85 3.6 -19.7 3.7 -19.45 3.85 -19.15 4.0 -18.85 4.05 -18.9 4.0 -18.95 3.9 -19.0 3.85 -19.05 3.55 -19.05 3.1 -19.05 2.45 -19.05 2.15 -19.05 2.05 -19.1 1.95 -19.15 1.85 -19.15 1.75 -19.15 1.7 -19.15 1.6 -19.15 1.4 -19.15 1.2 -19.15 1.1 -19.2 1.0 -19.25 0.95 -19.25 0.75 -19.3 0.35 -19.3 -0.1 -19.3 -0.5 -19.3 -0.55 -19.35 -0.65 -19.4 -0.75 -19.4 -0.95 -19.4 -1.3 -19.4 -1.8 -19.4 -2.15 -19.35 -2.25 -19.3 -2.35 -19.3 -2.45 -19.3 -2.55 -19.3 -2.65 -19.3 -2.75 -19.3 -2.8 -19.3 -2.9 -19.3 -3.0 -19.25 -3.1 -19.2 -3.2 -19.15 -3.3 -19.15 -3.5 -19.15 -3.75 -19.1 -4.15 -19.05 -4.5 -19.05 -5.9 -19.05 -7.8 -19.05 -9.1 -19.05 -9.2 -19.1 -9.3 -19.15 -9.4 -19.15 -9.55 -19.15 -9.95 -19.15 -10.4 -19.1 -10.8 -19.05 -10.9 -19.05 -11.05 -19.05 -11.35 -19.05 -11.75 -19.05 -12.0 -19.0 -12.1 -18.95 -12.2 -18.9 -12.3 -18.85 -14.15 -18.9 -16.5 -18.9 -18.0 -18.9 -18.1 -18.95 -18.2 -19.0 -18.3 -19.05 -18.4 -19.05 -18.5 -19.05 -18.55 -19.05 -18.75 -19.05 -18.95 -19.05 -19.05 -19.1 -19.15 -19.15 -19.25 -19.15 -20.75 -19.15 -22.7 -19.15 -24.0 -19.1 -24.1 -19.05 -24.2 -19.05 -24.3 -19.05 -24.95 -19.05 -26.05 -19.05 -27.2 -19.05 -27.3 -19.1 -27.4 -19.15 -27.5 -19.15 -27.85 -19.15 -28.5 -19.15 -29.25 -19.15 -29.45 -19.1 -29.55 -19.05 -29.65 -19.05 -29.75 -19.05 -29.8 -19.05 -29.9 -19.05 -30.0 -19.0 -30.1 -18.95 -30.2 -18.95 -30.3 -18.9 -30.4 -18.9 -30.5 -18.9 -30.55 -18.9 -30.65 -18.9 -30.85 -18.9 -31.15 -18.9 -31.4 -18.85 -31.5 -18.8 -31.6 -18.8 -31.7 -18.8 -31.8 -18.8 -31.9 -18.8 -32.0 -18.8 -32.05 -18.8 -32.15 -18.8 -32.25 -18.75 -32.35 -18.7 -32.45 -18.65 -32.55 -18.65 -32.65 -18.65 -32.8 -18.7 -32.9 -18.75 -33.0 -18.8 -33.2 -18.8 -33.5 -18.8 -33.85 -18.75 -34.25 -18.7 -34.3 -18.65 -34.4 -18.6 -34.7 -18.65 -35.15 -18.65 -35.8 -18.65 -36.1 -18.65 -36.2 -18.7 -36.3 -18.75 -36.4 -18.8 -36.85 -18.8 -37.6 -18.8 -38.45 -18.8 -38.55 -18.8 -38.65 -18.85 -38.75 -19.0 -38.8 -19.1 -38.9 -19.2 -39.0 -19.25 -39.1 -19.3 -39.2 -19.3 -39.3 -19.3 -39.4 -19.3 -39.45 -19.25 -39.55 -19.2 -39.65 -19.15 -39.75 -19.05 -39.85 -18.95 -39.9 -18.85 -39.95 -18.65 -39.95 -18.65 -40.0 -18.5 -40.0 -18.4 -39.95 -18.45 -40.0 -18.45 -40.05 -18.5 -40.15 -18.5 -40.55 -18.5 -41.1 -18.5 -41.65 -18.55 -41.75 -18.6 -41.85 -18.65 -41.95 -18.65 -42.05 -18.7 -42.15 -18.75 -42.7 -18.75 -43.45 -18.75 -44.1 -18.7 -44.2 -18.65 -44.3 -18.6 -44.4 -18.5 -44.45 -18.45 -44.45 -18.25 -44.5 -18.2 -44.55 -18.15 -44.65 -18.05 -44.75 -17.95 -44.8 -17.75 -44.85 -17.3 -44.8 -17.25 -44.8 -16.4 -44.7 -16.3 -44.65 -15.3 -44.65 -15.2 -44.75 -15.0 -44.75 -13.9 -44.75 -13.65 -44.7 -13.55 -44.65 -12.7 -44.65 -12.6 -44.75 -12.4 -44.75 -9.9 -44.75 -9.7 -44.7 -9.55 -44.65 -5.6 -44.65 -5.4 -44.7 -5.35 -44.75 -5.15 -44.75 -4.45 -44.85 -4.25 -44.85 -3.3 -44.9 -3.2 -45.0 -3.0 -45.0 -1.3 -45.05 -1.2 -45.05 -1.0 -45.15 -0.9 -45.2 -0.85 -45.2 -0.25 -45.3 -0.2 -45.3 0.0 -45.35 1.35 -45.35 1.6 -45.3 2.5 -45.25 2.7 -45.2 2.85 -45.15 2.85 -45.1 3.1 -45.05 3.35 -44.95 3.45 -44.9 3.85 -44.9 4.5 -44.9 4.9 -44.75 5.05 -44.7 5.5 -44.6 5.85 -44.5 6.65 -44.55 10.65 -44.75 12.3 -44.75 12.6 -44.75 13.5 -44.8 13.65 -44.85 15.0 -44.9 15.25 -44.8 15.55 -44.65 15.8 -44.55 16.25 -44.5 16.6 -44.4 17.85 -44.35 18.05 -44.3 18.2 -44.2 18.25 -44.1 18.3 -44.0 18.35 -43.9 18.35 -43.8 18.3 -43.75 18.3 -43.65 18.2 -43.55 18.15 -43.5 18.2 -43.45 18.2 -43.4 18.25 -43.0 18.25 -42.45 18.25 -41.8 18.2 -41.7 18.2 -41.65 18.2 -41.55 18.2 -41.4 18.2 -41.1 18.2 -40.75 18.2 -40.45 18.2 -40.35 18.15 -40.25 18.1 -40.15 18.1 -40.05 18.1 -40.0 18.1 -39.9 18.1 -39.15 18.1 -38.3 18.05 -38.25 18.05 -38.15 18.0 -38.05 18.0 -37.95 18.0 -37.85 18.0 -37.65 17.95 -37.5 17.95 -37.45 18.0 -37.35 18.05 -37.25 18.1 -37.15 18.15 -36.25 18.1 -35.0 18.1 -34.05 18.1 -34.0 18.05 -33.9 18.05 -33.8 17.95 -33.7 17.95 -33.6 17.95 -33.5 17.95 -33.4 17.95 -33.25 17.95 -32.95 17.95 -32.85 17.9 -32.75 17.85 -32.65 17.85 -32.55 17.85 -32.5 17.85 -32.4 17.8 -32.3 17.8 -32.2 17.75 -32.15 17.75 -31.75 17.75 -30.55 17.75 -29.6 17.7 -29.5 17.7 -29.4 17.7 -28.35 17.7 -27.05 17.7 -26.95 17.65 -26.85 17.65 -26.75 17.6 -26.65 17.6 -26.55 17.55 -26.45 17.5 -26.4 17.45 -26.3 17.45 -26.2 17.45 -26.1 17.45 -26.0 17.45 -25.9 17.45 -25.8 17.4 -25.75 17.35 -25.65 17.35 -25.55 17.35 -25.45 17.35 -25.35 17.35 -25.3 17.3 -25.2 17.3 -25.1 17.25 -25.0 17.25 -24.9 17.25 -24.8 17.25 -24.65 17.25 -24.45 17.25 -24.35 17.2 -23.3 17.2 -21.05 17.25 -19.65 17.3 -19.55 17.35 -19.45 17.4 -17.3 17.4 -16.4 17.45 -16.3 17.45 -16.2 17.5 -16.1 17.5 -15.75 17.5 -15.15 17.5 -14.5 17.45 -14.4 17.45 -14.3 17.4 -14.25 17.35 -14.15 17.35 -13.05 17.35 -13.0 17.35 -12.8 17.35 -11.3 17.35 -10.3 17.3 -10.2 17.3 -10.1 17.25 -10.0 17.25 -9.9 17.25 -9.75 17.25 -9.55 17.25 -9.35 17.2 -9.25 17.2 -9.15 17.2 -8.5 17.2 -3.9 17.2 -1.45 17.2 -1.35 17.15 -1.25 17.1 -1.15 17.15 -1.1 17.2 -1.0 17.25 -0.8 17.25 -0.45 17.25 -0.05 17.25 0.1 17.3 0.2 17.35 0.25 17.45 0.35 17.55 0.45 17.65 0.55 17.75 0.6 18.0 0.8 18.3 1.1 18.5 1.25 18.7 1.35 18.9 1.45 19.0 1.5 19.25 1.6 19.4 1.7 19.45 1.75 19.5 1.75 19.75 1.85 19.9 1.95 19.95 2.0 20.2 2.05 20.6 2.1 20.85 2.2 21.0 2.25 21.2 2.45 21.4 2.65 21.55 2.95 21.65 3.0 21.75 3.1 21.8 3.2 21.85 3.3 21.85 3.4 21.9 3.5 21.95 3.6 21.95 3.7 21.95 3.75 21.95 3.85 21.95 3.95 21.95 4.15 21.95 4.2 22.75 4.25 22.95 4.3 23.95 4.3 24.05 4.25 24.1 4.2 24.05 4.15 24.05 4.05 24.0 3.95 23.95 3.85 23.95 3.75 23.85 3.7 23.85 3.6 23.85 3.4 23.85 3.2 23.85 3.0 23.9 2.95 23.95 2.85 24.0 2.75 24.0 2.65 24.0 2.55 24.0 2.45 24.0 2.35 24.0 2.25 24.05 2.2 24.1 2.1 24.1 1.7 24.1 1.15 24.1 0.6 24.15 0.5 24.2 0.4 24.25 0.1 24.25 -0.35 24.25 -0.8 24.25 -0.9 24.2 -1.0 24.15 -1.1 24.1 -1.2 24.1 -1.3 24.1 -1.5 24.1 -1.65 24.1 -1.85 24.05 -1.95 24.05 -2.05 Q23.95 -2.3 24.0 -2.6 L24.0 -3.35 24.0 -4.1 24.05 -4.2 24.05 -4.3 24.1 -4.4 24.1 -4.5 24.1 -4.55 24.1 -4.75 24.1 -4.95 24.15 -5.05 24.2 -5.15 24.25 -5.25 24.25 -5.3 24.25 -5.4 24.3 -5.5 24.3 -5.6 24.35 -5.7 24.35 -6.0 24.35 -6.55 24.35 -7.1 24.3 -7.2 24.3 -7.3 24.25 -7.4 24.25 -7.5 24.25 -7.55 24.25 -7.65 24.2 -7.75 24.15 -7.85 24.1 -7.95 24.1 -8.05 24.05 -8.25 24.0 -8.4 24.0 -9.45 24.0 -10.75 24.0 -11.6 24.0 -11.7 23.95 -11.8 23.85 -11.9 23.85 -12.0 23.85 -12.05 23.85 -12.15 23.8 -12.25 23.8 -12.35 23.75 -12.45 23.75 -12.75 23.75 -13.2 23.75 -13.65 23.8 -13.75 23.85 -13.85 23.85 -13.95 23.85 -14.15 23.85 -14.3 23.85 -14.5 23.9 -14.55 23.85 -15.35 23.85 -16.5 23.85 -17.7 23.9 -18.0 24.1 -18.25 24.05 -18.35 24.05 -18.45 24.0 -18.55 24.0 -18.65 24.0 -18.75 24.0 -18.8 24.0 -18.9 23.95 -19.0 23.9 -19.1 23.85 -19.2 23.85 -19.85 23.85 -20.7 23.85 -21.45 23.9 -21.55 23.95 -21.65 24.0 -22.3 24.0 -23.25 23.95 -24.0 23.95 -24.05 23.85 -24.15 23.85 -25.85 23.85 -27.75 23.85 -28.85 23.9 -28.9 23.85 -29.55 23.85 -30.95 23.85 -32.0 23.9 -32.05 23.95 -32.15 23.95 -32.25 23.95 -32.55 23.95 -33.0 23.95 -33.55 23.95 -33.75 24.0 -33.85 24.05 -33.95 24.1 -34.05 24.1 -34.25 24.1 -34.5 24.1 -35.0 24.1 -35.25 24.15 -35.35 24.2 -35.45 24.2 -35.55 24.2 -35.65 24.2 -35.75 24.2 -35.9 24.25 -36.2 24.25 -36.3 24.3 -36.4 24.35 -36.5 24.35 -36.55 24.35 -36.65 24.35 -36.75 24.35 -38.3 24.35 -42.8 24.35 -45.0 24.3 -45.05 24.3 -45.15 24.25 -45.25 24.25 -47.25 24.25 -49.5 24.25 -50.7 24.0 -50.75 23.7 -50.8 12.3 -50.8 12.0 -50.8 8.95 -50.7 8.6 -50.65 4.35 -50.55 4.1 -50.55 M8.55 -52.4 L10.15 -52.55 10.5 -52.6 15.85 -52.65 16.1 -52.55 16.2 -52.5 17.65 -52.55 17.8 -52.55 20.0 -52.65 20.25 -52.55 20.45 -52.5 20.6 -52.4 22.25 -52.4 22.5 -52.3 22.6 -52.25 23.25 -52.2 23.55 -52.15 24.25 -52.05 24.35 -52.0 24.6 -51.95 24.85 -51.9 25.0 -51.8 25.1 -51.75 25.2 -51.8 25.3 -51.85 25.5 -51.85 25.5 -51.9 25.6 -51.85 25.85 -51.8 26.0 -51.75 26.1 -51.65 26.15 -51.55 26.2 -51.45 26.2 -51.35 26.2 -51.25 26.2 -51.15 26.2 -51.05 26.1 -51.0 26.1 -50.8 26.1 -50.5 26.1 -50.05 26.1 -49.75 26.1 -49.65 26.05 -49.55 26.0 -49.5 25.95 -47.5 25.95 -45.25 25.95 -43.85 26.0 -43.75 26.05 -43.65 26.05 -43.55 26.1 -43.5 26.1 -43.4 26.1 -43.3 26.1 -43.2 26.1 -43.1 26.15 -43.0 26.2 -42.9 26.2 -42.8 26.2 -42.15 26.2 -41.15 26.2 -40.3 26.2 -40.2 26.15 -40.1 26.1 -40.0 26.1 -39.9 26.1 -39.8 26.1 -39.75 26.1 -39.65 26.05 -39.55 26.05 -39.45 25.95 -39.35 25.95 -39.15 25.95 -39.0 25.95 -38.7 25.95 -38.4 25.95 -38.3 25.9 -38.25 25.85 -38.15 25.85 -38.05 25.85 -37.95 25.85 -37.85 25.85 -37.65 25.85 -37.55 25.85 -37.5 25.8 -37.4 25.8 -37.3 25.7 -37.2 25.7 -37.1 25.7 -37.0 25.7 -36.9 25.7 -36.8 25.65 -36.75 25.6 -36.65 25.6 -36.55 25.6 -36.45 25.6 -36.35 25.6 -36.25 25.6 -36.15 25.6 -36.05 25.55 -35.95 25.5 -35.9 25.45 -35.8 25.45 -35.7 25.45 -35.6 25.45 -35.4 25.45 -35.25 25.45 -35.15 25.4 -35.05 25.35 -34.95 25.35 -34.75 25.35 -34.5 25.35 -34.1 25.35 -33.8 25.35 -33.75 25.3 -33.65 25.3 -33.55 25.25 -33.5 25.25 -32.5 25.25 -31.2 25.25 -30.35 25.2 -30.25 25.2 -30.15 25.15 -30.05 25.1 -30.0 25.1 -29.9 25.1 -29.8 25.1 -29.7 25.1 -29.65 25.35 -29.55 25.5 -29.5 25.6 -29.4 25.65 -29.3 25.65 -29.25 25.5 -29.15 25.35 -29.05 25.3 -28.95 25.2 -28.9 25.15 -28.8 25.1 -28.7 25.05 -28.6 25.0 -28.5 25.0 -28.4 25.0 -28.3 25.0 -28.2 25.0 -28.1 24.95 -28.15 24.85 -28.1 24.85 -27.25 24.85 -25.75 24.85 -24.75 24.85 -24.65 24.9 -24.55 24.95 -24.45 24.95 -24.35 25.0 -24.25 25.0 -23.4 25.0 -22.3 25.0 -21.45 24.95 -21.35 24.9 -21.25 24.85 -21.15 24.85 -20.8 24.85 -20.25 24.85 -19.65 24.9 -19.55 24.95 -19.45 24.95 -19.4 25.0 -19.3 25.0 -19.2 25.0 -19.1 25.1 -19.15 25.35 -19.15 25.6 -19.05 25.65 -19.05 25.65 -18.95 25.65 -18.85 25.65 -18.75 25.7 -18.65 25.7 -18.55 25.7 -18.45 25.75 -18.4 25.8 -18.3 25.85 -18.2 25.85 -18.1 25.95 -18.0 26.0 -17.9 26.05 -17.8 26.1 -17.75 25.7 -17.7 25.75 -17.65 25.8 -17.55 25.85 -17.45 25.9 -17.35 25.95 -17.25 26.0 -13.05 25.95 -8.55 25.95 -6.3 26.0 -6.2 26.05 -6.1 26.1 -6.0 26.15 -5.65 26.1 -5.0 26.1 -4.3 26.1 -4.25 26.1 -4.15 26.05 -4.05 26.05 -3.95 25.95 -3.85 25.95 -3.65 25.95 -3.3 25.95 -2.9 25.95 -2.75 25.95 -2.65 25.9 -2.55 25.85 -2.45 25.85 -1.7 25.85 -0.55 25.85 0.25 25.85 0.35 25.8 0.45 25.8 0.55 25.7 0.65 25.7 1.1 25.7 1.85 25.75 2.5 25.8 2.6 25.85 2.7 25.9 3.0 25.85 3.55 25.85 4.2 25.85 4.3 25.8 4.4 25.75 4.5 25.7 4.6 25.7 4.7 25.7 4.75 25.65 4.85 25.6 4.95 25.55 5.05 25.45 5.15 25.35 5.2 25.1 5.25 25.0 5.35 24.85 5.45 22.85 5.7 22.8 5.8 22.75 5.85 22.65 5.95 22.5 6.05 22.25 6.1 21.55 6.05 21.3 5.95 21.2 5.85 21.1 5.75 20.9 5.65 20.75 5.6 20.6 5.5 20.55 5.4 20.45 5.3 20.4 5.2 19.6 5.3 19.55 5.35 19.35 5.4 17.25 5.4 17.0 5.35 16.85 5.25 16.7 5.05 16.65 4.95 16.6 4.85 16.6 4.75 16.6 4.7 16.6 4.6 16.65 4.5 16.7 4.4 16.75 4.4 16.7 4.35 16.65 4.25 16.6 4.15 16.6 3.6 16.6 2.85 16.6 2.1 16.55 2.0 16.55 1.9 16.5 1.8 16.5 1.7 16.45 1.6 16.45 1.55 16.35 1.45 16.35 1.35 16.35 1.15 16.15 0.95 16.0 0.7 15.95 0.5 15.95 0.3 15.95 0.0 15.95 -0.15 15.95 -0.25 15.9 -0.35 15.9 -0.55 15.85 -0.8 15.85 -1.2 15.85 -1.5 15.9 -1.55 15.95 -1.65 15.95 -1.75 15.95 -4.4 15.95 -4.45 15.85 -4.55 15.85 -5.05 15.85 -5.8 15.85 -6.45 15.9 -6.55 15.95 -6.65 15.95 -10.55 15.95 -13.0 16.0 -13.1 16.05 -13.2 16.1 -13.3 16.15 -15.15 16.1 -17.3 16.1 -18.25 16.1 -18.8 16.1 -18.9 16.05 -19.0 16.0 -19.1 15.95 -21.35 15.95 -23.9 16.0 -25.5 16.05 -25.55 16.1 -25.65 16.1 -25.75 16.15 -25.85 16.15 -25.95 16.15 -26.05 16.2 -26.15 16.2 -26.25 16.2 -26.3 16.2 -26.4 16.2 -26.6 16.25 -26.8 16.3 -26.9 16.35 -27.0 16.35 -27.05 16.35 -27.65 16.4 -27.7 16.45 -27.8 16.45 -29.05 16.45 -31.1 16.45 -32.5 16.5 -32.6 16.55 -32.7 16.6 -32.8 16.65 -32.9 16.65 -33.0 16.7 -33.05 16.7 -33.15 16.7 -33.35 16.7 -33.65 16.7 -34.0 16.75 -34.2 16.8 -34.3 16.85 -34.4 16.85 -34.65 16.8 -34.75 16.8 -34.85 16.75 -34.95 16.75 -35.3 16.75 -35.9 16.75 -36.45 16.8 -36.55 16.8 -36.65 16.85 -36.7 16.8 -36.8 16.75 -36.9 16.7 -37.75 16.7 -38.9 16.7 -39.9 16.75 -40.0 16.8 -40.1 16.85 -40.2 16.85 -40.3 16.85 -40.4 16.85 -40.5 16.9 -40.55 16.95 -40.65 16.95 -40.75 16.95 -40.85 16.95 -40.95 16.95 -41.05 16.95 -41.25 16.95 -41.3 16.95 -41.4 16.9 -41.5 16.85 -41.6 16.85 -41.7 16.85 -41.75 16.7 -41.8 16.6 -41.9 16.5 -42.0 16.45 -42.05 16.4 -42.15 16.35 -42.25 16.35 -42.35 16.25 -42.45 16.2 -42.55 16.15 -42.65 16.0 -42.75 15.9 -42.8 15.8 -42.9 15.65 -43.0 15.45 -43.1 15.35 -43.2 15.2 -43.3 15.1 -43.4 14.95 -43.5 14.7 -43.55 14.6 -43.6 14.55 -43.6 14.05 -43.55 13.95 -43.5 8.85 -43.35 8.25 -43.35 7.15 -43.3 7.05 -43.25 6.85 -43.25 5.45 -43.3 5.35 -43.35 5.0 -43.4 4.6 -43.45 4.3 -43.55 4.2 -43.6 4.1 -43.6 4.0 -43.65 3.3 -43.65 1.8 -43.7 1.45 -43.8 1.25 -43.8 1.0 -43.75 -2.3 -43.65 -2.8 -43.5 -3.2 -43.45 -4.85 -43.4 -4.95 -43.45 -5.2 -43.4 -5.35 -43.35 -5.45 -43.25 -5.75 -43.2 -6.0 -43.15 -12.45 -43.3 -12.55 -43.35 -13.1 -43.3 -13.2 -43.25 -13.4 -43.25 -13.7 -43.3 -13.8 -43.4 -13.9 -43.5 -14.0 -43.65 -14.05 -43.75 -14.95 -43.7 -15.05 -43.65 -15.25 -43.6 -16.4 -43.6 -16.65 -43.65 -16.75 -43.75 -17.5 -43.8 -17.75 -43.85 -17.75 -43.8 -17.75 -43.15 -17.75 -42.55 -17.7 -42.5 -17.65 -42.4 -17.6 -42.3 -17.55 -42.2 -17.55 -42.1 -17.5 -42.0 -17.5 -41.65 -17.5 -41.0 -17.5 -40.4 -17.45 -40.3 -17.45 -40.25 -17.4 -40.15 -17.4 -40.05 -17.4 -39.95 -17.4 -39.85 -17.4 -39.75 -17.4 -39.65 -17.35 -39.55 -17.3 -39.45 -17.3 -39.4 -17.25 -37.8 -17.25 -36.0 -17.3 -35.0 -17.3 -34.9 -17.35 -34.85 -17.4 -34.1 -17.4 -34.05 -17.5 -33.55 -17.5 -33.5 -17.5 -33.4 -17.5 -33.35 -17.45 -33.25 -17.4 -33.15 -17.4 -33.05 -17.4 -33.0 -17.4 -32.8 -17.4 -32.6 -17.4 -32.3 -17.4 -32.25 -17.45 -32.15 -17.45 -32.05 -17.55 -31.95 -17.55 -31.85 -17.55 -31.75 -17.55 -31.65 -17.55 -31.55 -17.55 -31.5 -17.55 -31.4 -17.55 -31.3 -17.6 -31.2 -17.65 -31.1 -17.65 -31.0 -17.65 -30.9 -17.65 -30.75 -17.6 -30.65 -17.55 -30.55 -17.55 -30.5 -17.5 -30.4 -17.45 -30.2 -17.4 -30.0 -17.4 -28.4 -17.4 -26.65 -17.4 -25.5 -17.45 -25.4 -17.45 -25.3 -17.5 -25.25 -17.5 -25.05 -17.5 -24.75 -17.5 -24.4 -17.5 -24.3 -17.55 -24.2 -17.6 -24.1 -17.65 -24.0 -17.65 -23.9 -17.65 -23.8 -17.65 -23.75 -17.6 -23.65 -17.55 -23.55 -17.55 -23.45 -17.5 -23.35 -17.5 -21.5 -17.5 -19.4 -17.5 -18.1 -17.55 -18.0 -17.55 -17.9 -17.6 -17.8 -17.6 -17.75 -17.6 -16.3 -17.65 -14.7 -17.65 -14.35 -17.65 -13.65 -17.65 -13.3 -17.65 -12.55 -17.65 -12.5 -17.6 -12.4 -17.55 -12.3 -17.55 -12.2 -17.5 -12.1 -17.5 -11.45 -17.5 -10.5 -17.5 -9.85 -17.5 -9.75 -17.45 -9.65 -17.4 -9.3 -17.4 -8.65 -17.4 -8.05 -17.45 -8.0 -17.45 -7.9 -17.5 -7.8 -17.5 -6.85 -17.5 -5.75 -17.55 -5.0 -17.55 -4.9 -17.65 -4.8 -17.65 -1.9 -17.65 1.3 -17.65 3.0 -17.6 3.1 -17.55 3.2 -17.55 3.25 -17.5 3.35 -17.5 3.45 -17.5 3.55 -17.5 3.65 -17.5 3.75 -17.55 3.85 -17.55 3.95 -17.6 4.0 -17.65 4.1 -17.65 4.2 -17.65 4.3 -17.65 4.4 -17.7 4.5 -17.65 4.55 -17.65 4.65 -17.65 4.75 -17.65 4.85 -17.65 4.95 -17.7 5.05 -17.75 5.1 -17.85 5.2 -17.9 5.25 -17.9 5.35 -17.9 5.45 -17.95 5.55 -18.0 5.6 -18.1 5.7 -18.25 5.8 -18.5 5.85 -19.35 5.95 -19.45 6.0 -19.65 6.0 -20.05 6.1 -20.6 6.2 -20.7 6.25 -20.9 6.25 -23.05 6.3 -23.15 6.2 -23.25 6.15 -25.2 6.2 -25.3 6.25 -25.5 6.25 -27.05 6.2 -27.15 6.1 -27.25 6.0 -27.3 5.9 -27.35 5.85 -27.35 5.75 -27.4 5.65 -27.35 5.55 -27.35 5.45 -27.3 5.35 -27.25 5.3 -27.15 5.2 -27.05 5.1 -26.75 5.05 -26.0 5.0 -26.0 4.95 -26.15 4.85 -26.2 4.75 -26.2 4.65 -26.25 1.85 -26.25 1.0 -26.4 1.0 -26.7 0.95 -26.8 0.85 -26.9 0.75 -26.95 0.7 -27.0 0.6 -27.05 0.5 -27.1 0.4 -27.15 -0.05 -27.15 -0.8 -27.15 -1.5 -27.1 -1.55 -27.05 -1.65 -27.05 -1.75 -27.05 -1.85 -27.05 -1.95 -27.05 -2.15 -27.05 -2.3 -27.05 -2.4 -27.05 -2.5 -27.1 -2.6 -27.1 -2.7 -27.15 -2.8 -27.15 -2.9 -27.15 -3.0 -27.15 -3.05 -27.15 -3.15 -27.2 -3.25 -27.25 -3.35 -27.25 -3.55 -27.3 -3.9 -27.25 -4.4 -27.25 -4.55 -27.2 -4.65 -27.15 -4.75 -27.1 -5.3 -27.15 -6.25 -27.15 -7.0 -27.1 -7.1 -27.05 -7.2 -27.05 -7.3 -27.05 -7.4 -27.05 -7.5 -27.05 -7.65 -27.05 -7.85 -27.05 -7.95 -27.0 -8.05 -26.95 -8.15 -26.95 -8.25 -26.9 -8.3 -26.9 -8.6 -26.9 -8.85 -26.9 -8.95 -26.9 -9.05 -26.9 -9.15 -26.95 -9.25 -27.0 -9.3 -27.0 -9.4 -27.05 -9.6 -27.05 -9.9 -27.05 -10.05 -27.05 -10.15 -27.1 -10.25 -27.15 -10.35 -27.15 -10.75 -27.15 -11.5 -27.15 -12.25 -27.15 -12.3 -27.2 -12.4 -27.25 -12.5 -27.3 -13.25 -27.3 -14.4 -27.25 -15.25 -27.2 -15.3 -27.15 -15.4 -27.1 -15.9 -27.15 -16.65 -27.15 -17.4 -27.1 -17.5 -27.05 -17.55 -27.05 -17.65 -27.05 -18.25 -27.05 -19.05 -27.05 -19.8 -27.05 -19.9 -27.1 -20.0 -27.15 -20.5 -27.15 -21.25 -27.05 -21.9 -27.05 -22.0 -27.05 -22.05 -27.05 -22.15 -27.05 -22.25 -27.05 -22.35 -27.0 -22.45 -26.95 -22.55 -26.95 -22.65 -26.9 -22.75 -26.9 -22.8 -26.9 -22.9 -26.9 -23.0 -26.9 -23.1 -26.9 -23.2 -26.95 -23.3 -27.0 -23.4 -27.05 -24.25 -27.05 -25.35 -27.0 -26.3 -26.95 -26.4 -26.9 -26.5 -26.9 -26.55 -26.9 -26.65 -26.9 -26.85 -26.9 -27.05 -26.9 -27.15 -26.85 -27.25 -26.8 -27.3 -26.8 -27.4 -26.8 -27.5 -26.8 -27.6 -26.75 -27.7 -26.7 -27.8 -26.7 -27.9 -26.65 -28.0 -26.65 -28.05 -26.65 -28.15 -26.6 -28.25 -26.55 -28.35 -26.55 -28.55 -26.5 -28.75 -26.5 -28.8 -26.45 -28.9 -26.4 -29.0 -26.4 -29.1 -26.4 -29.3 -26.4 -29.55 -26.4 -29.75 -26.4 -29.85 -26.45 -29.95 -26.5 -30.05 -26.55 -31.15 -26.55 -32.65 -26.55 -33.7 -26.55 -33.8 -26.6 -33.9 -26.65 -34.0 -26.65 -35.95 -26.65 -38.2 -26.65 -38.9 -26.65 -39.0 -26.65 -39.05 -26.65 -39.25 -26.65 -39.45 -26.65 -39.55 -26.65 -39.65 -26.7 -39.75 -26.7 -39.8 -26.75 -39.9 -26.8 -40.0 -26.8 -40.65 -26.8 -41.6 -26.8 -42.35 -26.8 -42.45 -26.85 -42.55 -26.9 -42.65 -26.9 -42.9 -26.9 -43.5 -26.85 -44.05 -26.85 -44.15 -26.8 -44.25 -26.8 -44.3 -26.8 -44.4 -26.8 -44.6 -26.75 -44.8 -26.7 -44.9 -26.65 -45.0 -26.6 -45.35 -26.65 -46.0 -26.65 -46.65 -26.6 -46.75 -26.55 -46.85 -26.55 -46.95 -26.55 -47.15 -26.55 -47.5 -26.55 -48.0 -26.55 -48.05 -26.55 -48.15 -26.6 -48.25 -26.65 -48.35 -26.65 -48.8 -26.65 -49.55 -26.6 -50.3 -26.55 -50.4 -26.55 -50.55 -26.55 -51.5 -26.5 -51.6 -26.45 -51.7 -26.35 -51.8 -26.25 -51.9 -26.1 -51.95 -25.9 -51.95 -25.9 -52.0 -25.85 -52.1 -25.85 -52.2 -25.8 -52.3 -25.75 -52.4 -25.65 -52.45 -25.55 -52.55 -25.25 -52.6 -24.9 -52.65 -24.65 -52.55 -24.55 -52.55 -22.75 -52.65 -22.5 -52.55 -22.35 -52.5 -22.2 -52.4 -22.0 -52.4 -21.75 -52.3 -21.65 -52.25 -20.6 -52.3 -20.45 -52.3 -16.75 -52.55 -16.6 -52.6 -14.2 -52.75 -13.85 -52.8 -13.7 -52.85 -13.5 -52.85 -13.5 -52.9 -12.0 -52.9 -11.75 -52.8 -11.65 -52.75 -10.9 -52.75 -8.95 -52.6 -6.15 -52.4 -5.9 -52.3 -5.8 -52.25 -2.75 -52.3 -2.6 -52.35 -1.25 -52.4 -1.0 -52.3 -0.9 -52.25 Q2.85 -52.1 6.5 -52.25 L7.75 -52.3 7.9 -52.35 8.55 -52.4 M20.55 3.7 L20.5 3.6 20.45 3.5 20.4 3.45 20.05 3.35 19.85 3.3 19.55 3.2 19.4 3.1 19.3 3.05 19.25 3.05 18.95 2.95 18.85 2.85 18.8 2.8 18.75 2.8 18.45 2.7 18.35 2.6 18.2 2.55 18.1 2.5 17.8 2.45 17.6 2.3 17.6 2.35 17.6 3.3 17.6 4.05 17.55 4.15 17.5 4.25 17.45 4.3 17.6 4.35 19.2 4.35 19.3 4.25 19.5 4.25 20.15 4.2 20.35 4.15 20.6 4.15 20.6 4.1 20.65 4.0 20.65 3.9 20.6 3.8 20.55 3.7" fill="#000000" fill-rule="evenodd" stroke="none"/>
  </g>
</svg>
