<?xml version="1.0" encoding="UTF-8" standalone="no"?>
<svg xmlns:ffdec="https://www.free-decompiler.com/flash" xmlns:xlink="http://www.w3.org/1999/xlink" ffdec:objectType="shape" height="22.1px" width="23.5px" xmlns="http://www.w3.org/2000/svg">
  <g transform="matrix(1.0, 0.0, 0.0, 1.0, 11.75, 10.85)">
    <path d="M10.05 -9.8 L10.25 -9.6 10.3 -9.4 10.45 -9.2 10.5 -9.05 10.5 -8.85 10.5 -8.65 10.5 -8.45 10.5 -8.1 10.5 -7.7 10.5 -7.35 10.5 -6.95 10.5 -6.6 10.55 -6.4 10.7 -6.2 10.75 -6.05 10.75 -5.85 10.75 -5.65 10.75 -5.45 10.75 -5.3 10.85 -5.1 10.95 -4.9 11.0 -4.7 11.0 -4.55 11.0 -4.35 11.0 -4.15 11.0 -3.95 11.0 -3.8 11.1 -3.6 11.2 -3.4 11.25 -3.2 11.25 -3.0 11.25 -2.85 11.3 -2.65 11.35 -2.45 11.5 -2.25 11.55 -2.1 11.7 -1.9 11.75 -1.7 11.75 -1.5 11.75 -1.35 11.75 -0.95 11.75 -0.6 11.75 -0.2 11.75 0.15 11.75 0.55 11.75 0.9 11.75 1.3 11.7 1.5 11.6 1.65 11.55 1.85 11.45 2.05 11.35 2.25 11.25 2.4 11.25 2.6 11.25 2.8 11.2 3.0 11.1 3.15 11.05 3.35 11.0 3.55 11.0 3.75 11.0 3.9 11.05 4.1 11.1 4.3 11.2 4.5 11.25 4.65 11.25 4.85 11.25 5.05 11.25 5.4 11.25 5.8 11.25 6.15 11.25 6.55 11.25 6.9 11.25 7.3 11.25 7.65 11.2 7.85 11.05 8.05 11.0 8.25 10.85 8.4 10.8 8.6 10.7 8.8 10.5 9.0 10.5 9.15 10.45 9.35 10.3 9.55 10.25 9.75 10.25 9.9 10.2 10.1 10.05 10.3 10.0 10.5 9.8 10.65 9.5 10.85 9.0 11.0 8.75 10.95 8.5 11.0 7.75 11.0 7.2 10.85 6.95 10.65 6.7 10.5 6.3 10.3 6.1 10.1 5.85 10.1 5.7 10.3 5.45 10.5 5.3 10.6 5.1 10.65 4.75 10.75 -1.0 10.85 -1.5 11.0 -2.5 11.1 -3.0 11.25 -6.5 11.25 -7.1 11.1 -7.25 11.0 -7.85 10.85 -8.1 10.65 -8.25 10.5 -8.4 10.35 -8.45 10.3 -8.5 10.5 -8.7 10.65 -9.0 10.85 -9.5 11.0 -10.1 10.85 -10.2 10.75 -10.25 10.75 -10.5 10.75 -11.1 10.6 -11.35 10.4 -11.5 10.25 -11.65 10.05 -11.7 9.85 -11.75 9.65 -11.75 9.5 -11.75 9.3 -11.7 9.1 -11.65 8.9 -11.5 8.75 -11.35 8.55 -11.15 8.35 -10.95 8.15 -10.7 8.1 -10.7 8.05 -10.65 7.85 -10.5 7.65 -10.5 7.5 -10.5 7.3 -10.5 6.9 -10.5 6.55 -10.5 6.15 -10.5 5.8 -10.5 5.4 -10.5 5.05 -10.5 4.65 -10.6 4.5 -10.65 4.3 -10.7 4.1 -10.75 3.9 -10.75 3.15 -10.75 1.85 -10.75 0.55 -10.75 -0.75 -10.75 -1.9 -10.75 -3.2 -10.75 -4.35 -10.7 -4.55 -10.65 -4.7 -10.5 -4.9 -10.5 -5.1 -10.45 -5.3 -10.4 -5.45 -10.2 -5.65 -10.1 -5.85 -10.0 -6.05 -10.0 -9.6 -10.0 -9.8 -10.0 -10.0 -9.9 -10.0 -9.9 -10.15 -9.75 -10.35 -9.6 -10.55 -9.35 -10.7 -8.75 -10.8 -8.75 -10.85 -0.25 -10.85 0.25 -10.7 0.55 -10.55 0.75 -10.35 0.95 -10.15 1.05 -10.0 2.3 -10.0 2.35 -10.05 2.75 -10.1 5.2 -10.2 5.75 -10.35 6.35 -10.45 6.55 -10.65 6.85 -10.8 7.25 -10.85 8.25 -10.85 8.75 -10.7 9.05 -10.55 9.25 -10.35 9.3 -10.15 9.35 -10.05 9.65 -10.0 10.0 -10.0 10.0 -9.8 10.05 -9.8" fill="#000000" fill-rule="evenodd" stroke="none"/>
  </g>
</svg>
