<?xml version="1.0" encoding="UTF-8" standalone="no"?>
<svg xmlns:ffdec="https://www.free-decompiler.com/flash" xmlns:xlink="http://www.w3.org/1999/xlink" ffdec:objectType="shape" height="72.75px" width="41.05px" xmlns="http://www.w3.org/2000/svg">
  <g transform="matrix(1.0, 0.0, 0.0, 1.0, 51.3, -107.75)">
    <path d="M-40.25 110.9 L-40.0 110.95 -39.85 110.75 -39.3 110.45 -38.75 110.3 -38.75 110.25 -31.35 111.25 -24.55 111.45 -20.25 111.25 -19.7 111.45 -19.1 111.75 -18.95 112.1 -18.85 112.3 -18.8 112.5 -18.75 112.7 -18.75 112.9 -18.8 113.05 -18.85 113.25 -18.85 113.3 -18.6 113.6 -15.25 117.95 -15.2 118.15 -15.15 118.3 -15.05 118.5 -14.75 118.85 -14.65 119.15 Q-14.45 119.7 -14.4 120.3 -14.15 120.3 -13.95 120.45 L-13.95 120.55 -13.8 120.75 -13.7 120.95 -14.1 121.5 Q-15.0 122.85 -15.55 124.45 L-16.25 125.35 -17.4 126.7 Q-19.55 129.0 -21.35 131.55 L-21.35 131.65 -22.1 132.6 -23.8 134.55 -25.2 136.3 -25.45 136.5 -25.55 136.55 -26.05 137.35 Q-27.65 138.4 -29.3 139.25 -30.5 138.75 -31.95 138.8 L-33.25 138.8 -33.3 138.5 -33.3 138.3 -33.8 137.85 -34.25 136.95 Q-36.2 133.0 -39.6 130.25 L-40.3 129.25 -40.85 128.85 -41.35 128.3 -41.45 128.2 Q-40.9 127.1 -41.8 126.05 -43.7 123.8 -46.25 122.5 L-46.25 122.55 -46.4 122.6 -46.6 121.95 -47.1 121.05 -47.2 120.4 -47.25 120.05 -47.25 119.8 -47.1 118.55 -43.05 113.55 Q-42.0 112.3 -40.7 111.65 L-40.5 111.15 -40.5 111.05 -40.35 111.05 -40.25 110.9 M-18.45 123.2 L-17.95 123.45 -17.75 123.25 -16.95 122.65 -17.7 122.45 -18.15 121.7 Q-18.35 121.0 -18.05 120.4 L-20.5 116.65 -21.9 114.45 -23.45 114.4 -37.25 113.95 -38.35 113.7 -38.45 113.75 Q-39.85 115.45 -40.85 117.4 -41.55 118.7 -42.7 119.5 L-42.7 119.65 -42.6 120.0 -42.55 120.15 -33.5 131.1 Q-31.35 133.65 -30.9 136.65 L-30.65 136.85 -30.05 137.2 Q-29.45 136.05 -28.5 135.15 -27.85 134.6 -27.6 133.8 L-27.5 133.65 -27.3 133.45 -26.85 133.05 -24.45 128.2 Q-23.45 126.15 -21.7 124.8 L-21.45 124.45 -20.8 123.7 -20.6 123.5 -19.8 123.15 -19.25 123.0 -18.45 123.2 M-47.5 156.9 L-47.6 156.8 -47.55 156.75 -47.5 156.85 -47.5 156.9 M-39.6 151.0 L-39.2 150.3 -35.6 150.65 -39.6 151.0 M-17.25 156.4 L-17.25 156.55 -17.35 156.75 -17.4 156.85 -17.55 156.9 -17.85 157.0 -18.1 157.25 -18.4 156.95 -18.55 156.75 -18.7 156.4 -18.8 155.8 -18.6 155.05 -18.5 154.9 -18.3 154.7 -18.25 154.7 -17.25 156.4 M-30.5 172.8 L-30.15 173.05 -30.45 173.6 -30.55 173.55 -30.55 173.2 -30.55 173.1 -30.5 172.8 M-19.7 152.7 L-20.7 151.7 -21.1 151.5 -21.3 151.3 -21.5 151.1 -21.6 150.95 -21.7 150.75 -21.75 150.55 -21.5 150.5 -20.0 152.35 -19.7 152.7" fill="#533f11" fill-rule="evenodd" stroke="none"/>
    <path d="M-14.75 118.85 L-15.05 118.5 -15.15 118.3 -15.2 118.15 -15.25 117.95 -18.6 113.6 -18.85 113.3 -18.85 113.25 -18.8 113.05 -18.75 112.9 -18.75 112.7 -18.8 112.5 -18.85 112.3 -18.95 112.1 -19.1 111.75 -19.7 111.45 -20.25 111.25 -24.55 111.45 -31.35 111.25 -38.75 110.25 -38.75 110.3 -39.3 110.45 -39.85 110.75 -40.0 110.95 -40.25 110.9 -40.55 110.8 -40.5 111.05 -40.5 111.15 -40.7 111.65 Q-42.0 112.3 -43.05 113.55 L-47.1 118.55 -47.25 119.8 -47.3 119.8 -47.7 119.95 -47.7 120.35 -47.7 120.5 -47.1 121.05 -46.6 121.95 -46.4 122.6 -46.25 122.55 -46.25 122.5 Q-43.7 123.8 -41.8 126.05 -40.9 127.1 -41.45 128.2 L-41.35 128.3 -41.1 128.75 -40.85 128.85 -40.3 129.25 -39.6 130.25 Q-36.2 133.0 -34.25 136.95 L-33.8 137.85 -33.35 138.8 -33.25 138.8 -31.95 138.8 Q-30.5 138.75 -29.3 139.25 -27.65 138.4 -26.05 137.35 L-24.6 136.25 Q-23.65 134.65 -22.35 133.25 L-21.35 131.65 -21.35 131.55 Q-19.55 129.0 -17.4 126.7 L-16.25 125.35 -15.55 124.45 Q-15.0 122.85 -14.1 121.5 L-13.7 120.95 -13.8 120.75 -13.95 120.55 -13.95 120.45 -14.1 119.8 -14.75 118.85 M-10.6 120.0 Q-9.8 121.5 -10.8 122.95 L-12.35 124.7 Q-14.45 128.15 -17.0 131.45 L-21.9 137.55 -24.0 139.9 Q-25.65 141.1 -27.55 141.8 L-28.25 142.0 -28.65 141.9 Q-30.5 142.9 -32.85 142.35 L-33.05 142.3 -33.75 142.5 -34.95 142.2 -36.4 139.95 -37.3 138.05 -37.5 137.85 -37.6 137.7 -37.7 137.5 -37.85 137.1 -38.2 136.55 -38.2 136.4 -38.25 136.2 -44.9 129.3 -47.6 126.25 Q-48.5 125.85 -48.85 124.95 L-49.45 123.8 -49.5 123.45 -49.9 122.7 -50.05 122.5 -50.15 122.25 -50.2 122.2 Q-51.35 119.95 -50.4 117.5 -49.6 115.55 -47.95 114.3 -47.1 112.65 -45.4 111.85 L-44.7 111.55 -43.85 110.8 -43.5 110.2 -43.35 110.0 -42.8 109.7 -42.25 109.5 -41.5 109.7 -41.5 109.55 -41.5 109.4 -41.5 109.2 -41.5 109.0 -41.45 108.8 -41.1 108.25 -40.9 108.1 -40.55 107.9 -40.0 107.8 -40.0 107.75 -25.75 108.2 -21.65 108.65 -21.3 108.45 -20.75 108.25 Q-15.15 111.15 -11.9 116.85 -11.05 118.35 -10.75 119.9 L-10.6 120.0 M-28.4 147.7 L-29.7 147.55 -40.0 146.25 -40.0 146.3 -40.55 146.4 -40.9 146.6 -41.1 146.75 -41.25 146.95 -41.35 147.15 -41.45 147.3 -41.5 147.5 -41.5 147.7 -42.35 148.55 Q-43.5 150.45 -45.25 151.8 -47.9 153.75 -47.6 156.7 L-47.55 156.75 -47.6 156.8 -47.5 156.9 -47.35 157.6 -46.95 158.2 -46.1 158.6 -45.45 158.95 -45.35 159.1 -45.1 159.7 -43.9 161.2 -42.5 163.45 -42.45 163.65 -42.4 163.8 -42.3 164.0 -41.65 164.75 -40.75 165.5 -39.4 167.5 -39.05 167.9 -38.85 168.1 -37.95 169.6 -37.55 169.6 -35.05 172.65 -35.0 172.8 -34.95 173.0 -34.85 173.2 -34.35 174.0 Q-33.2 176.25 -31.25 176.3 L-30.95 176.7 -30.55 176.85 -30.0 177.0 -29.65 176.9 -29.2 176.75 -28.95 176.55 -27.75 175.05 -26.5 172.65 -24.75 170.5 -22.05 167.5 -20.35 165.5 -19.4 164.15 Q-18.55 163.25 -18.1 162.15 L-17.85 161.95 -17.6 161.75 -17.4 161.4 -17.2 161.0 -17.05 160.8 -15.85 159.5 -15.75 159.5 -14.9 159.15 -14.6 159.0 Q-14.2 157.9 -14.25 156.85 -14.3 155.8 -14.8 154.8 -16.2 151.0 -19.15 148.4 L-19.5 147.85 Q-20.1 147.1 -21.0 147.0 L-21.5 147.0 -23.85 147.5 -26.1 147.55 -28.4 147.7 M-34.8 143.55 L-34.25 143.5 Q-29.35 143.2 -24.85 144.5 L-21.2 145.2 Q-19.15 145.4 -17.45 146.45 L-17.3 146.65 -17.2 146.8 -17.1 147.0 -17.05 147.35 Q-15.8 148.75 -14.95 150.45 L-14.4 150.85 -13.2 152.1 -12.6 153.05 -12.5 153.25 -12.35 153.55 -11.95 153.7 -11.35 154.0 -11.25 154.2 -11.1 154.55 -11.0 155.15 -11.05 155.4 Q-10.75 155.75 -10.75 156.25 L-10.75 156.6 -10.8 156.8 -11.2 157.55 Q-11.7 157.95 -12.2 158.0 -12.6 159.35 -13.5 160.5 -14.4 161.65 -15.55 162.45 L-19.2 167.5 -19.55 167.95 -21.1 170.5 -21.4 170.7 -21.9 171.1 -22.1 171.25 Q-24.3 175.0 -27.45 177.9 -28.65 179.0 -30.25 179.5 L-30.6 179.5 -30.8 179.9 -30.95 180.05 -31.2 180.25 -31.45 180.35 -32.0 180.5 -32.55 180.35 -32.95 180.2 -39.65 172.45 Q-41.4 170.4 -42.3 167.8 L-42.5 167.6 -42.55 167.5 -42.6 167.45 -42.7 167.25 -42.75 167.05 -42.8 166.9 Q-44.9 163.95 -47.25 161.15 -48.65 159.4 -50.55 158.25 L-50.75 157.7 -50.7 157.0 -50.75 155.85 -51.0 155.55 -51.3 154.8 Q-51.35 154.2 -51.0 153.7 L-50.7 153.3 -49.6 151.65 -49.05 150.9 -49.0 150.7 -48.95 150.5 -48.85 150.3 -47.1 148.15 Q-42.6 142.5 -34.8 143.55" fill="#533f11" fill-opacity="0.49803922" fill-rule="evenodd" stroke="none"/>
    <path d="M-47.55 156.75 L-47.6 156.7 Q-47.9 153.75 -45.25 151.8 -43.5 150.45 -42.35 148.55 L-41.5 147.7 -41.5 147.5 -41.45 147.3 -41.35 147.15 -41.25 146.95 -41.1 146.75 -40.9 146.6 -40.55 146.4 -40.0 146.3 -40.0 146.25 -29.7 147.55 -28.4 147.7 Q-33.8 147.9 -39.25 147.5 L-39.25 147.55 -39.6 147.6 -39.8 147.65 -40.25 147.5 -40.6 147.55 -40.8 147.65 -41.1 147.75 -42.55 149.25 -45.1 152.8 -45.55 153.2 -45.85 153.6 -45.95 153.75 Q-47.0 154.1 -47.35 155.1 -47.75 156.15 -46.95 156.95 L-46.0 157.15 Q-45.05 157.2 -44.25 156.65 L-43.7 155.85 -43.1 156.55 -42.65 157.4 -42.45 157.65 Q-39.0 160.6 -36.5 164.65 L-33.95 167.5 -33.0 168.6 Q-31.5 170.25 -30.85 172.15 L-30.5 172.65 -30.5 172.8 -30.55 173.1 -30.55 173.2 -30.55 173.55 -30.45 173.6 -30.15 173.05 -29.95 172.2 Q-28.6 169.95 -26.8 168.1 L-26.15 167.5 -25.25 166.55 -25.2 166.35 -25.2 166.2 -22.4 163.0 -21.1 161.5 Q-20.85 160.35 -20.1 159.5 L-18.85 158.3 -18.65 157.95 -18.1 157.25 -17.85 157.0 -17.55 156.9 -17.4 156.85 Q-17.75 157.4 -17.75 158.05 L-17.2 159.2 -16.8 159.35 -16.25 159.5 Q-14.75 159.15 -14.4 157.6 -14.2 156.5 -14.55 155.5 L-14.8 154.8 Q-14.3 155.8 -14.25 156.85 -14.2 157.9 -14.6 159.0 L-14.9 159.15 -15.75 159.5 -15.85 159.5 -17.05 160.8 -17.2 161.0 -17.4 161.4 -17.6 161.75 -17.85 161.95 -18.1 162.15 Q-18.55 163.25 -19.4 164.15 L-20.35 165.5 -22.05 167.5 -24.75 170.5 -26.5 172.65 -27.75 175.05 -28.95 176.55 -29.2 176.75 -29.65 176.9 -30.0 177.0 -30.55 176.85 -30.95 176.7 -31.25 176.3 Q-33.2 176.25 -34.35 174.0 L-34.85 173.2 -34.95 173.0 -35.0 172.8 -35.05 172.65 -37.55 169.6 -38.85 168.1 -39.05 167.9 -39.4 167.5 -40.75 165.5 -41.65 164.75 -42.3 164.0 -42.4 163.8 -42.45 163.65 -42.5 163.45 -43.9 161.2 -45.1 159.7 -45.35 159.1 -45.45 158.95 -46.1 158.6 -46.95 158.2 -47.35 157.6 -47.5 156.9 -47.5 156.85 -47.55 156.75 M-23.85 147.5 L-21.5 147.0 -21.0 147.0 Q-20.1 147.1 -19.5 147.85 L-19.15 148.4 -21.0 147.0 -21.0 147.05 -21.75 147.25 -22.0 147.4 -22.1 147.5 -23.85 147.5 M-30.45 150.95 L-28.5 151.0 -21.5 150.35 -19.85 151.95 Q-18.0 153.8 -17.25 156.2 L-17.25 156.4 -18.25 154.7 -19.7 152.7 -20.0 152.35 -21.5 150.5 -21.75 150.55 -30.45 150.95" fill="#33270a" fill-opacity="0.49803922" fill-rule="evenodd" stroke="none"/>
    <path d="M-28.4 147.7 L-26.1 147.55 -23.85 147.5 -22.1 147.5 -22.0 147.4 -21.75 147.25 -21.0 147.05 -21.0 147.0 -19.15 148.4 Q-16.2 151.0 -14.8 154.8 L-14.55 155.5 Q-14.2 156.5 -14.4 157.6 -14.75 159.15 -16.25 159.5 L-16.8 159.35 -17.2 159.2 -17.75 158.05 Q-17.75 157.4 -17.4 156.85 L-17.35 156.75 -17.25 156.55 -17.25 156.4 -17.25 156.2 Q-18.0 153.8 -19.85 151.95 L-21.5 150.35 -28.5 151.0 -30.45 150.95 -35.6 150.65 -39.2 150.3 -39.6 151.0 -39.95 151.55 Q-41.0 152.15 -41.55 153.25 L-42.45 154.2 -42.5 154.35 -42.75 154.75 -43.0 155.15 Q-43.4 155.3 -43.65 155.7 L-43.7 155.85 -44.25 156.65 Q-45.05 157.2 -46.0 157.15 L-46.95 156.95 Q-47.75 156.15 -47.35 155.1 -47.0 154.1 -45.95 153.75 L-45.85 153.6 -45.55 153.2 -45.1 152.8 -42.55 149.25 -41.1 147.75 -40.8 147.65 -40.6 147.55 -40.25 147.5 -39.8 147.65 -39.6 147.6 -39.25 147.55 -39.25 147.5 Q-33.8 147.9 -28.4 147.7" fill="#33270a" fill-rule="evenodd" stroke="none"/>
  </g>
</svg>
