<?xml version="1.0" encoding="UTF-8" standalone="no"?>
<svg xmlns:ffdec="https://www.free-decompiler.com/flash" xmlns:xlink="http://www.w3.org/1999/xlink" ffdec:objectType="shape" height="35.45px" width="35.5px" xmlns="http://www.w3.org/2000/svg">
  <g transform="matrix(1.0, 0.0, 0.0, 1.0, 17.75, 17.6)">
    <path d="M-11.5 -2.3 L-11.4 -2.5 Q-8.75 -6.75 -4.8 -10.7 L-2.9 -12.55 -1.8 -12.65 Q-0.95 -12.0 -0.5 -12.0 -0.05 -12.0 0.25 -12.35 L0.5 -13.0 Q0.5 -14.1 -0.05 -14.6 L0.25 -15.5 0.15 -16.35 Q4.75 -15.9 7.6 -13.7 L9.15 -13.5 Q12.85 -12.6 13.4 -9.25 L13.55 -8.25 13.2 -8.1 13.15 -8.4 Q12.8 -9.7 11.5 -9.3 10.75 -8.7 10.9 -7.65 L11.25 -6.0 10.4 -1.85 8.85 -4.45 8.35 -5.25 8.2 -5.55 7.75 -6.25 Q7.65 -7.75 7.1 -7.0 L6.5 -7.8 Q6.15 -10.0 2.9 -9.55 L2.1 -9.8 1.75 -10.05 1.45 -10.0 -0.5 -9.8 -0.8 -9.8 -2.85 -9.7 -4.5 -10.5 Q-4.8 -9.7 -6.0 -8.1 L-6.35 -7.8 -7.9 -5.8 -8.0 -5.7 Q-10.6 -2.75 -11.5 -2.3 M-3.7 -16.4 L-5.2 -15.45 -5.85 -15.15 -6.85 -14.6 Q-5.0 -16.05 -3.7 -16.4 M-14.15 7.1 L-13.95 6.4 -13.5 6.5 Q-12.5 6.5 -12.5 5.3 L-12.3 -0.2 -11.55 -2.2 -11.65 -1.25 -11.65 -0.85 Q-10.5 1.15 -10.5 4.6 L-10.55 5.8 Q-8.95 5.85 -7.9 6.45 -6.95 9.45 -5.4 10.1 -5.2 10.75 -4.35 10.75 L-3.3 10.55 -1.65 11.0 -1.35 11.0 -1.3 11.0 -0.85 11.0 0.2 10.95 2.75 10.45 3.15 10.55 3.6 10.25 Q5.05 9.5 5.9 8.65 L6.35 8.35 5.1 9.5 3.35 10.85 2.5 10.95 0.1 11.55 -1.1 11.5 -1.2 11.6 -2.0 11.35 Q-2.45 11.3 -2.5 12.3 -3.65 12.85 -4.15 12.85 L-6.3 12.75 Q-7.0 12.8 -7.0 13.65 L-6.75 14.4 Q-6.15 15.0 -4.25 15.0 L-2.95 14.8 -2.85 15.0 -3.2 15.05 -5.0 15.45 Q-7.35 14.55 -9.55 12.25 -11.4 10.65 -14.15 7.1 M10.65 -6.35 L10.55 -6.3 10.7 -6.3 10.65 -6.35 M4.4 14.9 L4.85 14.65 4.95 14.55 5.4 14.3 6.55 13.75 Q9.5 12.25 9.5 11.4 L9.5 11.35 10.75 10.25 Q14.4 7.1 15.85 5.45 15.1 7.5 13.25 10.0 10.3 14.0 8.35 14.0 L7.75 13.75 7.1 13.5 4.4 14.9 M16.25 2.85 Q15.75 2.8 14.8 3.6 L15.8 0.55 Q16.2 1.2 16.25 2.85 M15.95 -2.7 L15.75 -2.9 Q15.75 -4.25 14.65 -4.2 L14.5 -4.15 14.65 -5.6 14.9 -5.25 Q15.8 -4.1 15.95 -2.7 M-15.2 -4.7 L-15.25 -4.25 -15.35 -3.95 -15.2 -4.7" fill="#ffcc00" fill-rule="evenodd" stroke="none"/>
    <path d="M-7.9 -5.8 L-6.35 -7.8 -6.0 -8.1 Q-4.7 -9.2 -3.1 -9.55 L-4.85 -8.3 -6.4 -6.95 Q-6.95 -6.8 -7.85 -5.7 -10.0 -3.2 -10.0 -1.0 L-10.0 1.3 -9.6 2.7 -9.5 3.75 -8.8 5.55 -9.0 5.5 Q-10.25 5.5 -10.5 3.45 L-10.5 1.3 Q-10.5 -1.75 -9.25 -3.95 L-8.05 -5.45 -7.9 -5.8 M-0.8 -9.8 L-0.5 -9.8 1.45 -10.0 2.1 -9.8 2.9 -9.55 2.8 -9.5 -0.5 -9.7 -0.8 -9.65 -0.8 -9.8 M6.5 -7.8 L7.1 -7.0 6.65 -7.4 6.5 -7.5 6.5 -7.8 M8.85 -4.45 L10.4 -1.85 10.3 -1.35 9.7 -2.55 8.85 -4.45 M5.9 8.65 L7.3 7.15 7.65 7.05 6.6 8.15 6.35 8.35 5.9 8.65" fill="#ffffff" fill-rule="evenodd" stroke="none"/>
    <path d="M0.15 -16.35 L0.25 -15.5 -0.05 -14.6 Q0.5 -14.1 0.5 -13.0 L0.25 -12.35 Q-0.05 -12.0 -0.5 -12.0 -0.95 -12.0 -1.8 -12.65 L-2.9 -12.55 -4.8 -10.7 Q-8.75 -6.75 -11.4 -2.5 L-11.5 -2.3 -11.55 -2.2 -12.3 -0.2 -12.5 5.3 Q-12.5 6.5 -13.5 6.5 L-13.95 6.4 -14.15 7.1 Q-14.65 8.75 -15.0 8.75 -16.3 8.75 -16.0 7.0 -16.0 5.2 -15.65 3.4 -16.15 3.15 -16.25 2.25 L-16.25 0.9 -16.2 0.3 Q-16.0 2.0 -15.0 2.0 -14.0 2.0 -14.0 0.8 -14.0 -2.35 -11.5 -6.7 L-9.35 -10.35 -9.0 -10.75 -8.75 -10.75 -2.0 -15.0 Q-2.0 -16.95 -5.2 -15.45 L-3.7 -16.4 Q-0.4 -18.2 0.15 -16.35" fill="#ffd11a" fill-rule="evenodd" stroke="none"/>
    <path d="M-5.2 -15.45 Q-2.0 -16.95 -2.0 -15.0 L-8.75 -10.75 -9.0 -10.75 -9.35 -10.35 -11.5 -6.7 Q-14.0 -2.35 -14.0 0.8 -14.0 2.0 -15.0 2.0 -16.0 2.0 -16.2 0.3 L-16.25 0.15 Q-16.25 -1.75 -15.35 -3.95 L-15.25 -4.25 -15.2 -4.7 Q-14.9 -7.8 -11.6 -11.3 -9.35 -13.7 -8.5 -13.5 L-6.85 -14.6 -5.85 -15.15 -5.2 -15.45" fill="#ffeb5b" fill-rule="evenodd" stroke="none"/>
    <path d="M13.2 -8.1 L13.55 -8.25 13.7 -8.25 Q14.75 -8.25 14.75 -6.8 L14.65 -5.6 14.5 -4.15 14.65 -4.2 Q15.75 -4.25 15.75 -2.9 L15.95 -2.7 16.25 -1.05 15.8 0.55 14.8 3.6 Q15.75 2.8 16.25 2.85 16.75 2.9 16.75 3.9 L15.85 5.45 Q14.4 7.1 10.75 10.25 L9.5 11.35 9.5 11.4 Q9.5 12.25 6.55 13.75 L5.4 14.3 4.95 14.55 4.85 14.65 4.4 14.9 1.6 16.1 -0.85 16.65 -2.75 16.75 -5.75 16.45 -6.0 15.65 -5.0 15.45 -3.2 15.05 -2.85 15.0 Q-2.6 15.5 -1.6 15.5 0.45 15.5 5.95 11.5 11.25 7.6 11.25 6.65 L11.2 6.15 12.25 3.9 Q14.25 -0.95 14.25 -2.75 14.25 -3.95 13.4 -4.45 L13.05 -4.55 13.25 -6.65 13.2 -8.1" fill="#e1b500" fill-rule="evenodd" stroke="none"/>
    <path d="M10.4 -1.85 L11.25 -6.0 10.9 -7.65 Q10.75 -8.7 11.5 -9.3 12.8 -9.7 13.15 -8.4 L13.2 -8.1 13.25 -6.65 13.05 -4.55 13.4 -4.45 Q14.25 -3.95 14.25 -2.75 14.25 -0.95 12.25 3.9 L11.2 6.15 11.25 6.65 Q11.25 7.6 5.95 11.5 0.45 15.5 -1.6 15.5 -2.6 15.5 -2.85 15.0 L-2.95 14.8 -4.25 15.0 Q-6.15 15.0 -6.75 14.4 L-7.0 13.65 Q-7.0 12.8 -6.3 12.75 L-4.15 12.85 Q-3.65 12.85 -2.5 12.3 -2.45 11.3 -2.0 11.35 L-1.2 11.6 -1.1 11.5 0.1 11.55 2.5 10.95 3.35 10.85 5.1 9.5 6.35 8.35 6.6 8.15 7.65 7.05 Q9.4 6.6 10.25 5.1 11.0 3.85 11.0 2.0 11.0 0.35 10.3 -1.35 L10.4 -1.85" fill="#ecbd00" fill-rule="evenodd" stroke="none"/>
    <path d="M6.35 -7.65 L6.5 -7.8 6.5 -7.5 6.35 -7.65" fill="#33ff00" fill-rule="evenodd" stroke="none"/>
    <path d="M4.1 -7.8 L4.05 -7.85 Q4.8 -8.95 6.1 -8.0 L6.25 -7.75 6.35 -7.65 6.5 -7.5 6.65 -7.4 7.1 -7.0 7.0 -6.9 6.25 -6.85 6.1 -7.8 Q5.7 -8.7 4.1 -7.8 M-6.5 8.2 L-5.5 8.5 -5.4 8.5 -5.35 8.8 -5.05 9.1 -5.3 9.35 -5.6 9.2 -6.5 8.2 M-3.3 10.55 L-2.45 10.15 Q-2.3 10.85 -1.65 11.0 L-3.3 10.55 M-1.3 11.0 L-0.6 10.6 0.1 10.75 0.2 10.95 -0.85 11.0 -1.3 11.0 M2.15 3.7 L2.2 3.7 1.75 4.45 1.6 4.4 2.15 3.7" fill="#28cc00" fill-rule="evenodd" stroke="none"/>
    <path d="M7.75 -6.25 L8.2 -5.55 8.35 -5.25 8.85 -4.45 9.7 -2.55 10.3 -1.35 Q11.0 0.35 11.0 2.0 11.0 3.85 10.25 5.1 9.4 6.6 7.65 7.05 L7.3 7.15 5.9 8.65 Q4.45 9.85 2.75 10.45 L0.2 10.95 0.1 10.75 Q0.85 10.75 2.05 9.5 L2.3 9.5 2.75 9.5 Q3.35 9.5 4.1 8.75 L4.25 8.75 Q5.0 8.75 5.65 6.55 6.75 4.6 6.75 3.65 L6.5 2.35 6.5 2.25 7.15 -2.4 7.5 -3.5 7.75 -5.7 7.75 -6.25" fill="#cc00ff" fill-rule="evenodd" stroke="none"/>
    <path d="M7.1 -7.0 Q7.65 -7.75 7.75 -6.25 L7.75 -5.7 7.5 -3.5 7.15 -2.4 6.5 2.25 6.5 2.35 6.75 3.65 Q6.75 4.6 5.65 6.55 5.0 8.75 4.25 8.75 L4.1 8.75 Q3.35 9.5 2.75 9.5 L2.3 9.5 2.05 9.5 Q0.85 10.75 0.1 10.75 L-0.6 10.6 -1.3 11.0 -1.35 11.0 -1.65 11.0 Q-2.3 10.85 -2.45 10.15 L-3.3 10.55 -4.35 10.75 Q-5.2 10.75 -5.4 10.1 L-5.5 9.65 -5.3 9.35 -5.05 9.1 -5.35 8.8 -5.4 8.5 -5.5 8.5 -6.5 8.2 -6.75 7.4 Q-6.75 7.0 -2.35 4.2 -0.55 3.05 0.5 2.65 L1.0 2.0 3.15 -1.1 4.0 -4.15 Q4.4 -5.85 4.0 -7.75 L4.1 -7.8 Q5.7 -8.7 6.1 -7.8 L6.25 -6.85 7.0 -6.9 7.1 -7.0 M2.15 3.7 L1.6 4.4 1.75 4.45 2.2 3.7 2.15 3.7" fill="#d735ff" fill-rule="evenodd" stroke="none"/>
    <path d="M-2.85 -9.7 L-0.8 -9.8 -0.8 -9.65 -0.5 -9.7 2.8 -9.5 2.9 -9.55 Q6.15 -10.0 6.5 -7.8 L6.35 -7.65 6.25 -7.75 6.1 -8.0 Q4.8 -8.95 4.05 -7.85 L4.1 -7.8 4.0 -7.75 Q4.4 -5.85 4.0 -4.15 L3.15 -1.1 1.0 2.0 0.5 2.65 Q-0.55 3.05 -2.35 4.2 -6.75 7.0 -6.75 7.4 L-6.5 8.2 -5.6 9.2 -5.3 9.35 -5.5 9.65 -5.4 10.1 Q-6.95 9.45 -7.9 6.45 L-8.0 6.15 -8.8 5.55 -9.5 3.75 -9.6 2.7 -10.0 1.3 -10.0 -1.0 Q-10.0 -3.2 -7.85 -5.7 -6.95 -6.8 -6.4 -6.95 L-4.85 -8.3 -3.1 -9.55 -2.85 -9.7 M-0.25 -8.55 Q-0.4 -9.45 -1.45 -9.35 -2.65 -9.25 -4.1 -7.95 -8.0 -4.5 -8.0 1.55 L-7.55 2.4 -8.75 3.15 Q-8.7 4.25 -7.6 4.25 -3.65 4.25 -1.1 -0.5 0.75 -3.9 0.75 -5.8 0.75 -7.4 -0.25 -8.55" fill="#df5eff" fill-rule="evenodd" stroke="none"/>
    <path d="M-0.25 -8.55 Q0.75 -7.4 0.75 -5.8 0.75 -3.9 -1.1 -0.5 -3.65 4.25 -7.6 4.25 -8.7 4.25 -8.75 3.15 L-7.55 2.4 -8.0 1.55 Q-8.0 -4.5 -4.1 -7.95 -2.65 -9.25 -1.45 -9.35 -0.4 -9.45 -0.25 -8.55 M-5.5 -4.9 Q-7.0 -3.75 -7.0 -2.45 -7.15 -1.25 -6.0 -1.25 -5.55 -1.25 -4.75 -2.65 -4.0 -3.95 -4.0 -4.25 -4.0 -6.0 -5.5 -4.9" fill="#e88aff" fill-rule="evenodd" stroke="none"/>
    <path d="M-5.5 -4.9 Q-4.0 -6.0 -4.0 -4.25 -4.0 -3.95 -4.75 -2.65 -5.55 -1.25 -6.0 -1.25 -7.15 -1.25 -7.0 -2.45 -7.0 -3.75 -5.5 -4.9" fill="#eda6ff" fill-rule="evenodd" stroke="none"/>
    <path d="M11.1 -10.7 Q1.85 -20.95 -9.35 -11.95 -12.05 -9.8 -14.3 -7.05 -18.35 4.55 -8.05 13.4 L-7.6 13.45 -7.0 13.0 Q6.6 19.45 13.55 5.55 15.5 1.6 14.95 -2.55 14.4 -7.05 11.1 -10.7 M10.3 -15.15 Q21.55 -5.9 15.8 6.25 10.35 17.9 -1.5 17.85 -11.55 16.95 -15.95 7.3 -19.2 0.1 -16.55 -7.25 L-15.5 -9.45 Q-6.75 -19.65 6.05 -17.1 8.4 -16.75 10.3 -15.15 M10.55 -4.7 Q12.7 0.1 10.95 4.95 L10.25 6.4 Q4.45 13.15 -4.0 11.45 -5.55 11.25 -6.8 10.2 -14.25 4.05 -10.45 -4.0 -6.85 -11.7 1.0 -11.65 7.65 -11.05 10.55 -4.7 M4.65 -8.45 Q-4.35 -12.75 -8.95 -3.5 -10.25 -0.9 -9.9 1.85 -9.55 4.8 -7.35 7.25 -1.2 14.0 6.2 8.05 L9.45 4.8 Q12.15 -2.85 5.35 -8.7 L5.05 -8.75 4.65 -8.45" fill="#000000" fill-rule="evenodd" stroke="none"/>
    <path d="M6.1 -6.25 L6.75 -6.6 7.0 -7.25 Q7.0 -9.15 3.85 -10.45 L4.0 -11.0 3.8 -11.6 3.4 -11.8 Q3.0 -12.0 -0.5 -11.8 L-4.1 -11.3 -4.75 -10.55 Q-4.8 -9.5 -3.25 -9.5 L-1.05 -9.5 -0.55 -9.35 1.7 -8.85 1.0 -8.9 -0.7 -8.8 -3.15 -8.15 -4.0 -7.85 -4.0 -7.8 Q-4.0 -7.4 -5.1 -5.5 L-6.3 -3.25 -6.7 -1.15 Q-7.05 -0.05 -7.65 0.4 L-6.85 2.65 Q-6.0 4.9 -6.0 5.4 -6.0 5.8 -6.15 6.2 -7.4 5.55 -8.05 5.5 -8.75 2.15 -8.75 0.05 -8.75 -1.25 -8.15 -3.25 L-6.85 -5.1 Q-5.5 -6.9 -5.5 -7.55 -5.5 -11.3 -8.25 -7.15 -11.0 -3.0 -11.0 -0.05 L-11.0 1.0 -10.65 1.8 -10.5 3.45 Q-10.05 6.75 -9.0 6.75 L-8.55 6.7 -6.25 9.0 Q-3.5 11.25 -1.5 11.25 -1.0 11.25 -0.75 10.85 L-0.5 10.15 0.5 9.95 0.5 10.0 0.55 10.65 Q0.8 11.25 2.1 11.25 4.45 11.25 8.05 8.1 L8.9 7.35 9.5 7.5 Q10.2 7.5 10.6 5.6 L11.25 4.4 Q11.25 3.9 10.85 3.9 L11.0 1.15 Q11.0 -0.5 9.5 -2.85 8.0 -5.2 8.0 -2.75 L8.1 -2.4 7.2 -4.4 6.1 -6.25 M1.95 9.15 Q4.85 7.2 9.0 1.5 L8.65 5.05 7.7 5.75 Q3.35 9.15 2.25 9.15 L1.95 9.15 M9.0 1.2 Q8.65 0.8 8.45 0.1 L8.1 -2.4 9.0 1.15 9.0 1.2 M9.75 -8.4 Q10.8 -6.75 11.45 -4.25 L11.8 -2.6 Q12.5 -0.4 12.5 1.4 L12.5 1.9 12.5 2.5 Q9.5 11.2 5.8 11.25 2.55 13.75 -1.1 13.75 -2.7 13.75 -5.5 11.7 -6.95 11.45 -9.15 9.4 -11.5 7.2 -12.25 5.5 -13.0 3.8 -13.2 2.35 L-13.25 -0.5 Q-13.25 -3.35 -11.65 -6.15 -11.25 -7.5 -9.35 -9.4 L-8.85 -9.95 Q-7.1 -11.9 -5.85 -12.15 -5.05 -12.25 -4.75 -11.6 L-4.2 -11.7 Q-2.65 -12.6 1.15 -12.25 7.6 -11.65 9.75 -8.4" fill="#000000" fill-opacity="0.23137255" fill-rule="evenodd" stroke="none"/>
    <path d="M6.1 -6.25 L6.0 -6.25 Q4.95 -6.25 4.35 -7.25 3.7 -8.35 3.25 -8.5 L1.7 -8.85 -0.55 -9.35 -1.05 -9.5 -3.25 -9.5 Q-4.8 -9.5 -4.75 -10.55 L-4.1 -11.3 -0.5 -11.8 Q3.0 -12.0 3.4 -11.8 L3.8 -11.6 4.0 -11.0 3.85 -10.45 Q7.0 -9.15 7.0 -7.25 L6.75 -6.6 6.1 -6.25 M-6.15 6.2 L-4.6 7.1 Q-0.5 9.75 -0.5 10.15 L-0.75 10.85 Q-1.0 11.25 -1.5 11.25 -3.5 11.25 -6.25 9.0 L-8.55 6.7 -9.0 6.75 Q-10.05 6.75 -10.5 3.45 L-10.65 1.8 -11.0 1.0 -11.0 -0.05 Q-11.0 -3.0 -8.25 -7.15 -5.5 -11.3 -5.5 -7.55 -5.5 -6.9 -6.85 -5.1 L-8.15 -3.25 Q-8.75 -1.25 -8.75 0.05 -8.75 2.15 -8.05 5.5 -7.4 5.55 -6.15 6.2 M0.5 9.95 Q0.5 9.05 0.75 9.0 L1.95 9.15 2.25 9.15 Q3.35 9.15 7.7 5.75 L8.65 5.05 9.0 1.5 9.0 1.2 9.0 1.15 8.1 -2.4 8.0 -2.75 Q8.0 -5.2 9.5 -2.85 11.0 -0.5 11.0 1.15 L10.85 3.9 Q11.25 3.9 11.25 4.4 L10.6 5.6 Q10.2 7.5 9.5 7.5 L8.9 7.35 8.05 8.1 Q4.45 11.25 2.1 11.25 0.8 11.25 0.55 10.65 L0.5 10.0 0.5 9.95" fill="#000000" fill-opacity="0.5137255" fill-rule="evenodd" stroke="none"/>
  </g>
</svg>
