<?xml version="1.0" encoding="UTF-8" standalone="no"?>
<svg xmlns:ffdec="https://www.free-decompiler.com/flash" xmlns:xlink="http://www.w3.org/1999/xlink" ffdec:objectType="shape" height="37.85px" width="27.55px" xmlns="http://www.w3.org/2000/svg">
  <g transform="matrix(1.0, 0.0, 0.0, 1.0, 13.75, 20.85)">
    <path d="M6.35 12.75 L5.8 13.15 5.75 13.05 5.2 12.75 4.5 12.5 3.6 12.75 2.9 13.15 2.5 13.2 Q-0.25 12.35 -3.0 13.2 L-7.6 13.15 Q-8.2 12.8 -8.8 12.6 -9.65 12.25 -9.8 11.7 L-9.6 11.3 -9.5 11.1 -9.4 10.95 -9.3 10.75 -9.3 10.55 -9.25 10.4 -9.2 10.2 -8.6 9.5 -8.25 8.85 -8.05 8.5 -8.05 8.3 -8.0 8.1 -8.0 7.95 -7.95 7.75 -7.75 7.4 -7.65 7.2 -7.55 7.0 -7.5 6.8 -7.45 0.65 -7.5 -4.0 -7.3 -4.3 -7.2 -4.5 -7.0 -5.05 -7.0 -5.25 -7.0 -5.45 -7.1 -5.8 -7.2 -6.0 -7.25 -6.2 -7.25 -7.3 -7.25 -9.95 -7.25 -11.8 -7.25 -12.0 -7.3 -12.55 -7.3 -12.75 -7.5 -13.1 -7.6 -13.3 -7.75 -13.5 -8.0 -13.7 -8.2 -13.85 -8.85 -14.2 -8.95 -14.3 -9.4 -15.05 -9.5 -15.25 -9.85 -15.8 -9.95 -16.0 Q-9.35 -16.45 -8.5 -16.5 L-8.15 -16.55 -7.25 -16.95 -6.95 -17.1 -0.05 -17.15 0.4 -17.1 7.25 -16.95 7.4 -16.9 7.65 -16.8 8.25 -16.65 8.4 -16.6 8.55 -16.5 8.7 -16.3 8.9 -16.1 9.2 -15.95 9.45 -15.55 9.6 -15.35 9.75 -15.2 9.75 -15.0 9.75 -14.8 9.75 -14.6 9.75 -14.45 9.8 -14.25 9.9 -14.05 9.95 -13.85 10.0 -13.7 10.0 -13.3 10.0 -13.1 10.0 -12.95 10.05 -12.55 10.05 -12.35 10.3 -12.0 10.25 -11.35 10.3 -10.45 10.2 -9.85 6.3 -9.8 2.25 -10.05 Q1.25 -9.95 0.7 -9.1 L0.65 -8.95 0.55 -8.75 0.5 -8.55 0.5 -8.35 0.5 -8.2 0.5 -8.0 0.55 -7.8 0.55 -7.6 0.7 -7.45 0.8 -7.25 0.95 -7.05 1.15 -6.85 1.55 -6.75 1.55 -6.6 1.7 -6.45 1.8 -6.25 1.95 -6.05 2.15 -5.85 2.9 -5.65 8.35 -5.45 8.4 -5.4 8.75 -5.0 9.0 -4.6 9.0 -3.9 8.5 -4.0 8.5 -3.95 8.15 -3.9 7.9 -3.85 7.5 -3.65 7.25 -3.5 6.95 -3.1 6.9 -2.95 6.8 -2.75 6.75 -2.55 6.75 -1.6 6.75 -0.85 6.75 -0.3 6.7 -0.1 6.65 0.05 6.55 0.25 6.5 0.45 6.5 0.65 6.45 0.8 6.3 1.0 6.2 1.2 2.0 1.05 Q0.4 1.3 -0.55 2.65 L-0.6 2.8 -0.7 3.0 -0.75 3.2 -0.75 3.95 -0.75 5.65 -0.75 6.55 -0.7 6.75 -0.6 6.95 -0.55 7.15 -0.25 7.5 0.15 7.9 0.5 8.25 0.7 8.6 1.0 9.0 1.4 9.4 1.75 9.55 2.15 9.7 2.25 9.75 2.4 9.85 2.75 10.05 3.15 10.2 4.5 11.45 5.4 12.4 6.35 12.75 M-1.0 -13.95 Q0.95 -13.8 2.6 -12.8 L3.05 -12.45 4.65 -11.7 5.0 -11.55 8.05 -10.55 8.4 -10.6 8.9 -11.35 9.0 -11.55 9.15 -11.95 9.25 -12.3 9.25 -12.5 9.25 -12.7 9.25 -13.05 9.25 -13.25 9.2 -13.45 9.15 -13.6 8.9 -14.0 8.8 -14.2 -5.0 -14.55 -3.6 -12.2 -2.75 -10.45 -2.75 -11.1 -2.75 -12.45 -2.75 -12.6 -2.7 -12.8 -2.6 -13.0 -2.35 -13.35 -1.35 -13.95 -1.0 -13.95 M-1.75 -6.55 Q-1.35 -4.65 -1.4 -2.6 L-1.5 1.35 -1.45 0.15 -1.3 -0.05 -1.25 -0.25 -1.2 -0.45 -1.2 -0.6 -1.05 -0.8 -0.95 -1.0 -0.8 -1.2 -0.6 -1.35 -0.25 -1.55 0.15 -1.7 0.5 -1.7 0.5 -1.75 0.65 -1.7 0.75 -1.75 3.0 -1.45 3.35 -1.4 5.5 -1.3 5.65 -1.35 5.9 -1.45 6.25 -1.5 6.5 -1.6 6.5 -1.8 6.5 -2.0 6.5 -2.2 0.0 -2.75 -0.35 -2.85 -0.55 -3.05 -0.75 -3.25 -1.05 -3.6 -1.1 -3.8 -1.2 -4.0 -1.25 -4.2 -1.25 -4.95 -1.25 -5.1 -1.25 -5.5 -1.25 -5.85 -1.25 -6.05 -1.6 -6.8 -1.7 -7.0 -1.75 -7.1 -1.75 -6.55 M-5.95 -7.8 L-5.95 -5.45 -5.75 -5.05 -5.25 -4.15 -5.05 -3.75 -5.05 -3.55 -5.0 -3.35 -5.0 -5.05 -5.05 -5.25 -5.1 -5.45 -5.2 -5.6 -5.25 -5.8 -5.25 -6.0 -5.25 -6.2 -5.25 -6.35 -5.25 -6.55 -5.25 -6.75 -5.95 -8.65 -5.95 -8.45 -5.95 -7.8 M-1.55 5.45 L-1.6 5.65 -1.7 5.8 -1.75 6.0 -1.75 6.4 -1.75 6.75 -1.75 7.15 -1.75 7.5 -1.8 7.7 -1.85 7.9 -1.95 8.05 -2.0 8.25 -2.0 8.65 -2.0 9.0 -2.0 9.35 -2.05 9.75 -2.15 9.95 -2.25 10.15 -2.25 10.5 -2.25 11.05 -2.25 11.45 -2.25 11.8 -2.25 12.0 -2.3 12.2 -2.4 12.35 -2.5 12.55 -2.5 12.6 Q-0.15 12.7 2.0 12.0 L-0.1 11.35 Q-1.05 11.0 -1.45 10.05 L-1.55 5.55 -1.55 5.45" fill="#533f11" fill-rule="evenodd" stroke="none"/>
    <path d="M5.8 13.15 L5.9 13.25 6.0 13.45 6.1 13.65 6.25 14.0 6.25 14.2 6.25 14.35 6.2 14.55 6.2 14.75 6.0 15.1 5.55 15.65 5.0 16.25 4.7 16.45 4.5 16.55 4.4 16.65 Q2.75 17.05 1.15 16.6 L1.0 16.55 -1.75 16.55 Q-6.3 17.7 -10.35 15.9 L-10.55 15.7 -10.7 15.5 -11.0 15.3 -11.35 15.1 -11.5 15.0 -12.65 14.65 -13.55 13.9 -13.6 13.7 -13.7 13.5 -13.75 13.3 -13.75 12.95 -13.75 12.55 -13.75 11.8 -13.75 11.65 -13.6 11.25 -13.55 10.85 -13.4 10.3 -13.3 10.15 -13.15 9.95 -13.0 9.75 -12.8 9.55 -12.75 9.35 -12.75 9.2 -12.7 9.0 -12.6 8.8 -12.55 8.65 -11.95 7.85 -11.3 6.6 -11.05 6.0 -10.95 1.7 -11.0 -3.55 -11.0 -3.75 -11.05 -3.95 -11.2 -4.1 -11.2 -4.3 -11.25 -4.5 -11.25 -4.7 -11.25 -4.85 -11.25 -5.05 -11.2 -5.25 -11.1 -5.45 -11.05 -5.6 -10.9 -5.8 -10.75 -5.95 -10.75 -6.1 -10.75 -7.8 -10.75 -10.05 -10.75 -11.0 -10.95 -11.2 -11.5 -11.75 -11.65 -11.95 -12.5 -13.25 -13.3 -14.35 -13.35 -14.55 -13.45 -14.75 -13.5 -14.95 -13.5 -15.1 -13.5 -15.7 -13.5 -15.85 -13.5 -16.6 -13.5 -16.8 -13.45 -17.0 -13.35 -17.2 -13.3 -17.35 -13.25 -17.55 -13.25 -17.75 -13.25 -17.95 -13.25 -18.1 -13.2 -18.3 -13.1 -18.5 -12.85 -18.85 -12.65 -19.05 -11.75 -19.55 -11.6 -19.6 Q-10.1 -19.75 -8.75 -20.35 L-8.1 -20.6 -7.85 -20.65 -7.5 -20.7 -7.5 -20.75 0.4 -20.85 8.45 -20.15 Q11.75 -19.5 13.2 -16.5 L13.2 -16.3 13.25 -16.1 13.25 -15.75 13.25 -15.55 13.25 -15.35 13.35 -15.2 13.45 -15.0 13.45 -14.8 13.5 -14.25 13.5 -14.05 13.5 -13.3 13.5 -12.75 13.45 -12.55 13.4 -12.45 13.5 -12.3 13.6 -12.1 13.7 -11.95 13.8 -11.0 13.75 -9.3 13.75 -8.75 13.6 -8.4 13.45 -8.0 13.15 -7.45 Q12.6 -6.9 12.0 -6.6 L12.5 -5.25 12.5 -3.35 12.5 -0.55 12.5 0.2 12.3 0.75 11.35 1.6 10.75 1.75 10.4 1.65 10.0 1.55 9.95 1.8 9.85 2.0 9.75 2.2 9.65 2.4 9.5 2.55 9.5 2.75 9.5 2.95 Q9.3 4.6 7.8 5.0 6.3 5.4 4.9 4.65 L2.75 4.65 2.75 4.8 2.75 5.0 2.75 5.2 2.75 5.4 2.95 5.55 3.25 5.75 3.4 5.95 3.5 6.15 3.55 6.3 5.95 8.0 7.25 8.75 7.4 8.95 7.5 9.15 7.6 9.3 7.7 9.5 8.05 9.9 8.3 10.25 8.5 11.0 Q8.45 11.8 7.85 12.25 7.15 12.8 6.35 12.75 L5.4 12.4 4.5 11.45 3.15 10.2 2.75 10.05 2.4 9.85 2.25 9.75 2.15 9.7 1.75 9.55 1.4 9.4 1.0 9.0 0.7 8.6 0.5 8.25 0.15 7.9 -0.25 7.5 -0.55 7.15 -0.6 6.95 -0.7 6.75 -0.75 6.55 -0.75 5.65 -0.75 3.95 -0.75 3.2 -0.7 3.0 -0.6 2.8 -0.55 2.65 Q0.4 1.3 2.0 1.05 L6.2 1.2 6.3 1.0 6.45 0.8 6.5 0.65 6.5 0.45 6.55 0.25 6.65 0.05 6.7 -0.1 6.75 -0.3 6.75 -0.85 6.75 -1.6 6.75 -2.55 6.8 -2.75 6.9 -2.95 6.95 -3.1 7.25 -3.5 7.5 -3.65 7.9 -3.85 8.15 -3.9 8.5 -3.95 8.5 -4.0 9.0 -3.9 9.0 -4.6 8.75 -5.0 8.4 -5.4 8.35 -5.45 2.9 -5.65 2.15 -5.85 1.95 -6.05 1.8 -6.25 1.7 -6.45 1.55 -6.6 1.55 -6.75 1.15 -6.85 0.95 -7.05 0.8 -7.25 0.7 -7.45 0.55 -7.6 0.55 -7.8 0.5 -8.0 0.5 -8.2 0.5 -8.35 0.5 -8.55 0.55 -8.75 0.65 -8.95 0.7 -9.1 Q1.25 -9.95 2.25 -10.05 L6.3 -9.8 10.2 -9.85 10.3 -10.45 10.25 -11.35 10.3 -12.0 10.05 -12.35 10.05 -12.55 10.0 -12.95 10.0 -13.1 10.0 -13.3 10.0 -13.7 9.95 -13.85 9.9 -14.05 9.8 -14.25 9.75 -14.45 9.75 -14.6 9.75 -14.8 9.75 -15.0 9.75 -15.2 9.6 -15.35 9.45 -15.55 9.2 -15.95 8.9 -16.1 8.7 -16.3 8.55 -16.5 8.4 -16.6 8.25 -16.65 7.65 -16.8 7.4 -16.9 7.25 -16.95 0.4 -17.1 -0.05 -17.15 -6.95 -17.1 -7.25 -16.95 -8.15 -16.55 -8.5 -16.5 Q-9.35 -16.45 -9.95 -16.0 L-9.85 -15.8 -9.5 -15.25 -9.4 -15.05 -8.95 -14.3 -8.85 -14.2 -8.2 -13.85 -8.0 -13.7 -7.75 -13.5 -7.6 -13.3 -7.5 -13.1 -7.3 -12.75 -7.3 -12.55 -7.25 -12.0 -7.25 -11.8 -7.25 -9.95 -7.25 -7.3 -7.25 -6.2 -7.2 -6.0 -7.1 -5.8 -7.0 -5.45 -7.0 -5.25 -7.0 -5.05 -7.2 -4.5 -7.3 -4.3 -7.5 -4.0 -7.45 0.65 -7.5 6.8 -7.55 7.0 -7.65 7.2 -7.75 7.4 -7.95 7.75 -8.0 7.95 -8.0 8.1 -8.05 8.3 -8.05 8.5 -8.25 8.85 -8.6 9.5 -9.2 10.2 -9.25 10.4 -9.3 10.55 -9.3 10.75 -9.4 10.95 -9.5 11.1 -9.6 11.3 -9.8 11.7 Q-9.65 12.25 -8.8 12.6 -8.2 12.8 -7.6 13.15 L-3.0 13.2 Q-0.25 12.35 2.5 13.2 L2.9 13.15 3.6 12.75 4.5 12.5 5.2 12.75 5.75 13.05 5.8 13.15" fill="#533f11" fill-opacity="0.49803922" fill-rule="evenodd" stroke="none"/>
  </g>
</svg>
