<?xml version="1.0" encoding="UTF-8" standalone="no"?>
<svg xmlns:ffdec="https://www.free-decompiler.com/flash" xmlns:xlink="http://www.w3.org/1999/xlink" ffdec:objectType="shape" height="14.35px" width="384.2px" xmlns="http://www.w3.org/2000/svg">
  <g transform="matrix(1.0, 0.0, 0.0, 1.0, 192.75, 7.25)">
    <path d="M5.55 -6.05 L118.75 -6.05 118.6 -5.85 118.5 -5.7 118.5 -5.5 118.45 -5.3 118.35 -5.1 118.2 -4.95 118.15 -4.95 117.9 -5.1 117.5 -5.25 117.2 -5.2 117.0 -5.05 116.85 -4.85 116.75 -4.7 116.75 -4.5 116.75 -4.3 116.75 -4.15 116.8 -3.95 116.95 -3.75 117.0 -3.55 117.05 -3.35 117.2 -3.2 117.25 -3.0 117.4 -2.8 117.55 -2.6 118.0 -2.5 118.25 -2.5 118.65 -2.6 118.85 -2.8 119.05 -3.0 119.25 -3.15 119.45 -3.2 119.55 -3.0 119.9 -2.4 120.15 -2.1 120.2 -2.05 115.5 -2.05 111.3 2.1 127.75 2.1 127.65 2.0 127.75 2.0 128.05 1.95 128.25 1.9 128.4 1.95 128.45 2.15 128.5 2.3 128.5 2.5 128.65 2.7 128.8 2.9 129.25 3.0 129.75 3.0 130.15 2.95 130.25 3.0 130.4 3.2 130.55 3.4 131.0 3.5 131.25 3.5 131.3 3.5 131.45 3.8 131.5 4.0 131.65 4.2 131.8 4.4 132.25 4.5 133.0 4.5 133.45 4.35 133.8 4.15 134.05 4.0 134.15 3.8 134.25 3.6 134.25 3.45 134.2 3.25 134.05 3.05 133.9 2.9 133.5 2.75 133.05 2.9 132.8 2.8 132.75 2.7 132.7 2.5 132.5 2.1 132.45 1.95 132.35 1.75 132.25 1.55 132.25 1.4 132.25 1.2 132.2 1.0 132.05 0.8 131.9 0.65 131.5 0.5 131.25 0.4 131.2 0.3 131.1 0.15 130.95 -0.25 130.8 -0.45 130.65 -0.6 130.25 -0.75 129.95 -0.65 129.8 -0.6 129.7 -0.5 129.5 -0.3 129.3 -0.15 129.15 -0.1 128.75 -0.35 128.55 -0.55 128.5 -0.7 128.5 -0.85 128.5 -1.05 128.5 -1.25 128.5 -1.45 128.5 -1.6 128.4 -1.8 128.3 -2.0 128.05 -2.2 128.0 -2.35 127.9 -2.55 127.8 -2.75 127.75 -2.95 127.75 -3.1 127.65 -3.3 127.55 -3.5 127.35 -3.7 127.15 -3.85 126.75 -4.0 126.5 -4.0 126.15 -4.05 126.0 -4.1 125.95 -4.3 125.8 -4.5 125.75 -4.7 125.75 -4.85 125.65 -5.05 125.55 -5.25 125.35 -5.45 125.15 -5.6 124.75 -5.75 124.5 -5.75 124.05 -5.6 123.9 -5.45 123.75 -5.3 123.75 -5.35 123.65 -5.55 123.55 -5.75 123.35 -5.95 123.25 -6.05 190.45 -6.05 190.45 6.1 -102.3 6.1 -102.25 6.05 -101.75 5.8 -101.35 5.65 -100.7 5.65 -100.25 5.75 -100.0 5.75 -99.6 5.65 -99.0 5.05 -98.65 4.5 -98.5 4.15 -98.25 4.0 -97.85 3.9 -97.65 3.7 -97.45 3.5 -96.75 3.5 -96.35 3.45 -96.25 3.65 -96.2 3.8 -96.1 4.0 -96.0 4.2 -96.0 4.35 -95.95 4.55 -95.8 4.75 -95.6 4.95 -95.45 5.15 -95.0 5.25 -94.75 5.25 -94.45 5.2 -94.3 5.15 -94.2 5.0 -94.0 4.6 -93.9 4.45 -93.8 4.25 -93.75 4.05 -93.7 3.9 -93.55 3.5 -93.5 3.3 -93.35 3.2 -93.2 3.4 -92.75 3.5 -92.5 3.5 -92.2 3.45 -92.05 3.4 -91.95 3.25 -91.75 2.85 -91.65 2.7 -91.55 2.5 -91.4 1.95 -91.2 1.4 -91.05 0.6 -91.0 0.05 -90.95 0.1 -90.85 0.25 -90.75 0.45 -90.7 0.65 -90.3 1.0 -90.1 1.2 -89.95 1.4 -89.5 1.5 -88.45 1.4 -88.3 1.4 -87.7 0.7 -87.25 -0.05 -86.85 -0.8 -86.8 -1.0 -86.75 -1.2 -86.7 -1.35 -86.6 -1.55 -86.55 -1.7 -86.5 -1.5 -86.35 -1.3 -86.2 -1.1 -85.75 -1.0 -85.25 -1.0 -85.0 -1.05 -88.2 2.1 -71.75 2.1 -75.95 -2.05 -84.0 -2.05 -84.55 -1.45 -84.55 -1.65 -84.5 -1.8 -84.55 -2.0 -84.7 -2.2 -84.85 -2.35 -85.2 -2.6 -85.3 -2.75 -85.45 -2.95 -85.55 -3.1 -85.75 -3.3 -85.8 -3.5 -85.95 -3.7 -86.1 -3.85 -86.5 -4.0 -86.5 -3.95 -86.95 -3.85 -87.4 -3.3 -87.75 -2.75 -87.95 -2.35 -88.0 -2.2 -88.05 -2.0 -88.1 -1.8 -88.2 -1.6 -88.25 -1.45 -88.45 -1.05 -88.6 -0.7 -88.8 -0.3 -88.95 -0.1 -89.3 -0.1 -89.4 -0.3 -89.5 -0.5 -89.5 -0.7 -89.5 -0.85 -89.55 -1.05 -89.6 -1.25 -89.7 -1.45 -89.75 -1.6 -89.75 -1.8 -89.75 -2.0 -89.8 -2.2 -89.85 -2.35 -89.95 -2.55 -90.05 -2.75 -90.1 -2.95 -90.35 -3.1 -90.75 -3.25 -91.0 -3.25 -91.45 -3.1 -91.6 -2.95 -91.75 -2.75 -91.75 -2.55 -91.8 -2.35 -91.85 -2.2 -91.95 -2.05 -107.95 -2.05 -104.85 1.0 -105.25 1.0 -105.55 1.05 -105.75 1.2 -105.95 1.4 -106.0 1.55 -106.1 1.75 -106.3 2.1 -106.35 2.15 -106.45 2.05 -106.5 1.85 -106.5 1.5 -106.5 0.95 -106.5 0.4 -106.55 0.0 -106.65 -0.2 -107.15 -0.9 Q-107.55 -1.3 -108.05 -1.5 L-108.05 -1.7 -108.0 -1.9 -108.0 -2.05 -108.05 -2.25 -108.2 -2.45 -108.25 -2.5 -107.75 -2.5 -107.35 -2.6 -107.15 -2.8 -106.95 -3.0 -106.75 -3.2 -104.0 -3.0 -102.5 -3.05 -102.2 -3.05 -102.0 -3.2 -101.6 -3.35 -100.7 -3.35 -99.95 -3.15 -98.0 -2.75 -96.2 -2.85 -96.05 -2.85 -95.95 -3.0 -95.85 -3.2 -95.8 -3.4 -95.75 -3.55 -95.8 -3.75 -95.95 -3.95 -96.1 -4.1 -96.5 -4.25 -98.25 -4.4 -100.75 -5.0 -102.0 -4.95 -102.3 -4.95 -102.5 -4.8 -102.7 -4.6 -103.85 -4.6 -104.25 -4.75 -106.1 -4.85 -106.5 -5.0 -106.8 -4.95 -107.0 -4.8 -107.45 -4.6 -107.65 -4.45 -107.8 -4.35 -107.95 -4.5 -108.15 -4.7 -108.35 -4.85 -108.75 -5.0 -109.5 -5.0 -109.8 -4.95 -110.0 -4.8 -110.2 -4.6 -110.5 -4.5 -110.8 -4.45 -110.85 -4.45 -111.0 -4.55 -111.05 -4.75 -111.2 -4.95 -111.35 -5.1 -111.75 -5.25 -112.0 -5.25 -112.3 -5.15 -112.45 -5.1 -112.55 -5.0 -112.75 -5.0 -112.85 -5.05 -112.95 -5.25 -113.15 -5.45 -113.35 -5.6 -113.75 -5.75 -114.25 -5.75 -114.7 -5.6 -115.0 -5.25 -115.2 -4.9 -115.5 -4.5 -115.6 -4.45 -115.75 -4.55 -115.8 -4.75 -115.95 -4.95 -116.1 -5.1 -116.5 -5.25 -117.25 -5.25 -117.55 -5.15 -117.7 -5.1 -117.8 -5.0 -118.0 -4.8 -118.2 -4.6 -118.85 -4.6 -119.25 -4.75 -120.0 -4.75 -120.45 -4.6 -120.8 -4.6 -121.0 -4.8 -121.05 -5.0 -121.2 -5.2 -121.35 -5.35 -121.7 -5.5 -121.85 -5.6 -122.25 -5.75 -122.75 -5.75 -122.75 -5.7 -123.05 -5.7 -123.45 -5.35 -123.6 -5.2 -123.8 -5.0 -123.95 -4.85 -124.0 -4.8 -124.05 -5.0 -124.2 -5.2 -124.35 -5.35 -124.75 -5.5 -125.2 -5.35 -125.35 -5.2 -125.45 -5.0 -125.5 -4.8 -125.5 -4.6 -125.5 -4.45 -125.5 -4.25 -125.3 -3.9 -125.05 -3.5 -124.85 -3.3 -124.7 -3.1 -124.25 -3.0 -123.5 -3.0 -123.1 -3.1 -122.9 -3.3 -122.7 -3.5 -122.6 -3.7 -122.55 -3.9 -122.45 -4.05 -122.35 -4.05 -122.25 -3.85 -122.15 -3.7 -122.05 -3.5 -121.85 -3.3 -121.7 -3.1 -121.25 -3.0 -120.25 -3.0 -119.85 -3.1 -119.45 -3.1 -119.0 -3.0 -118.0 -3.0 -117.7 -3.05 -117.55 -3.1 -117.45 -3.25 -117.25 -3.45 -116.95 -3.45 -116.95 -3.35 -116.75 -3.2 -116.55 -3.0 -116.35 -2.8 -116.2 -2.6 -115.75 -2.5 -114.95 -2.85 -114.5 -3.2 -114.35 -3.35 -114.35 -3.45 -114.25 -3.3 -114.25 -3.1 -114.15 -2.95 -114.05 -2.75 -113.85 -2.55 -113.7 -2.35 -113.25 -2.25 -113.0 -2.25 -112.7 -2.3 -112.55 -2.35 -112.45 -2.5 -112.25 -2.7 -112.15 -2.9 -112.05 -3.05 -111.9 -3.0 -111.7 -2.85 -111.25 -2.75 -110.75 -2.75 -110.45 -2.8 -110.75 -2.5 -110.95 -2.1 -111.0 -1.95 -111.05 -1.75 -111.1 -1.55 -111.2 -1.35 -111.25 -1.2 -111.25 -1.0 -111.25 -0.8 -111.25 -0.6 -111.25 -0.45 -111.3 -0.25 -111.35 -0.05 -111.45 0.15 -111.5 0.3 -111.5 0.5 -111.5 1.05 -111.5 1.65 -111.5 2.0 -111.35 2.2 -111.2 2.4 -110.75 2.5 -110.5 2.5 -110.1 2.4 -109.7 2.0 -109.2 1.45 -108.95 1.05 -108.6 0.9 -108.45 0.7 -108.3 0.5 -108.2 0.35 -108.05 0.3 -108.0 0.7 -108.0 1.25 -108.0 1.8 -108.0 2.2 -107.95 2.4 -107.85 2.55 -107.8 2.75 -107.75 2.95 -107.75 3.15 -107.75 3.3 -107.75 3.7 -107.75 3.85 -107.7 4.05 -107.55 4.25 -107.35 4.45 -107.2 4.65 -106.75 4.75 -106.5 4.75 -106.2 4.7 -106.0 4.55 -105.8 4.2 -105.6 3.8 -105.35 3.45 -105.25 3.45 -105.25 3.8 -105.25 4.4 -105.25 4.95 -105.2 5.3 -105.05 5.5 -104.85 5.7 -104.7 5.9 -104.25 6.0 -103.8 6.0 -103.65 6.1 -188.3 6.1 -188.25 6.05 -188.05 5.85 -187.95 5.7 -187.8 5.5 -187.75 5.3 -187.75 5.15 -187.55 4.75 -187.45 4.55 -187.35 4.4 -187.2 4.4 -187.1 4.55 -187.05 4.75 -187.0 4.95 -186.95 5.15 -186.8 5.3 -186.75 5.5 -186.6 5.7 -186.45 5.9 -186.0 6.0 -184.95 5.9 -184.8 5.85 -184.7 5.75 -184.6 5.6 -184.45 5.45 -184.2 5.65 -183.75 5.75 -183.5 5.75 -183.2 5.7 -183.0 5.6 -182.7 5.45 -182.55 5.4 -182.45 5.25 -182.35 5.05 -182.3 4.85 -182.25 4.7 -182.3 4.5 -182.45 4.3 -182.6 4.15 -183.0 4.0 -183.25 4.0 -183.5 3.95 -183.5 3.8 -183.55 3.65 -183.6 3.45 -183.7 3.25 -183.9 3.05 -184.1 2.9 -184.5 2.75 -184.8 2.8 -185.0 2.95 -185.15 3.15 -185.25 3.3 -185.25 3.5 -185.25 3.7 -185.3 3.9 -185.4 4.05 -185.55 4.15 -185.7 4.15 -185.75 3.95 -185.8 3.75 -185.85 3.55 -186.3 2.85 -186.6 2.3 -186.85 1.9 -187.25 1.75 -187.55 1.8 -187.75 1.95 -187.95 2.05 -188.0 2.0 -188.0 1.8 -188.0 1.25 -188.0 0.9 -188.0 0.7 -188.05 0.5 -188.2 0.3 -188.35 0.15 -188.7 -0.05 -188.75 -0.1 -188.75 -0.3 -188.75 -0.7 -188.75 -1.05 -188.75 -1.25 -188.8 -1.45 -188.9 -1.6 -189.2 -2.0 -189.4 -2.2 -189.5 -2.35 -189.5 -2.55 -189.55 -2.75 -189.6 -2.95 -189.75 -3.1 -189.75 -3.3 -189.8 -3.5 -189.95 -3.7 -190.1 -3.85 -190.5 -4.0 -190.75 -4.0 -190.75 -3.95 -191.05 -3.95 -191.25 -3.8 -191.4 -3.6 -191.5 -3.45 -191.5 -3.25 -191.5 -3.05 -191.5 -2.85 -191.5 -2.7 -191.5 -2.5 -191.35 -2.3 -191.2 -2.1 -191.05 -1.95 -191.0 -1.75 -191.0 -1.55 -191.0 -0.8 -191.0 -0.05 -191.0 0.5 -190.85 0.7 -190.7 0.9 Q-190.45 0.95 -190.3 1.1 L-190.25 1.25 -190.25 1.45 -190.25 2.4 -190.25 3.5 -190.25 4.25 -190.1 4.45 -189.95 4.65 -189.55 4.85 -189.5 5.0 -189.5 5.2 -189.5 5.4 -189.5 5.55 -189.5 5.75 -189.35 5.95 -189.25 6.1 -191.75 6.1 -191.75 -6.05 -46.5 -6.05 -46.75 -5.8 -46.9 -5.6 -47.05 -5.5 -47.2 -5.45 -47.35 -5.6 -47.75 -5.75 -48.05 -5.7 -48.25 -5.55 -48.4 -5.35 -48.5 -5.2 -48.5 -5.0 -48.5 -4.8 -48.55 -4.6 -48.6 -4.45 -48.7 -4.25 -48.75 -4.05 -48.75 -3.85 -48.75 -3.7 -48.75 -3.5 -48.75 -3.3 -48.75 -3.1 -48.8 -2.95 -48.85 -2.75 -48.9 -2.55 -48.95 -2.35 -49.1 -2.4 -49.5 -2.5 -49.8 -2.4 -49.95 -2.35 -50.05 -2.25 -50.25 -2.05 -50.4 -1.85 -50.5 -1.7 -50.5 -1.5 -50.5 -1.3 -50.65 -0.95 -50.8 -0.4 -50.95 0.2 -51.0 0.4 -51.0 0.2 -51.05 0.0 -51.2 -0.2 -51.35 -0.35 -51.75 -0.5 -52.0 -0.5 -52.3 -0.45 -52.5 -0.3 -52.65 -0.1 -52.75 0.05 -52.75 0.45 -52.75 1.0 -52.75 1.55 -52.75 1.95 -52.8 2.15 -52.95 2.5 -53.1 2.85 -53.1 2.9 -53.2 2.8 -53.25 2.45 -53.25 1.9 -53.25 1.5 -53.3 1.3 -53.4 1.15 -53.55 0.75 -53.7 0.55 -53.85 0.4 -54.25 0.25 -54.4 0.25 -52.1 -2.05 -68.25 -2.05 -64.05 2.1 -58.15 2.1 -58.2 2.15 -58.25 2.3 -58.25 2.5 -58.25 2.7 -58.3 2.9 -58.4 3.05 -58.5 3.25 -58.6 3.3 -58.75 3.2 -58.95 3.0 -59.15 2.8 -59.35 2.65 -60.6 2.35 -61.0 2.25 -61.3 2.35 -61.45 2.4 -61.55 2.5 -61.95 2.9 -62.2 3.25 -62.25 3.45 -62.25 3.65 -62.25 3.8 -62.25 4.0 -62.1 4.2 -61.95 4.4 -61.5 4.5 -61.0 4.5 -60.7 4.45 -60.5 4.3 -60.3 4.15 -60.0 4.1 -60.0 4.2 -59.9 4.35 -59.55 4.75 -59.35 4.95 -59.2 5.15 -58.75 5.25 -58.25 5.25 -57.85 5.15 -57.45 4.6 -57.15 4.05 -57.0 3.95 -57.0 4.15 -57.0 4.3 -57.0 4.5 -57.0 4.7 -56.95 4.9 -56.75 5.05 -56.55 5.25 -56.35 5.45 -56.2 5.65 -55.75 5.75 -55.45 5.7 -55.3 5.65 -55.15 5.3 -54.95 4.95 -54.8 4.75 -54.75 4.55 -54.75 4.4 -54.7 4.2 -54.6 4.0 -54.55 3.8 -54.45 3.95 -54.35 4.15 -54.3 4.3 -54.25 4.5 -54.25 4.7 -54.25 4.85 -54.2 5.05 -54.05 5.25 -53.85 5.45 -53.7 5.65 -53.25 5.75 -53.0 5.75 -52.7 5.7 -52.5 5.55 -52.3 5.4 -52.1 5.2 -51.95 5.0 -51.7 5.1 -51.25 5.25 -50.95 5.2 -50.75 5.05 -50.55 4.9 -50.35 4.7 -50.2 4.5 -50.1 4.3 -50.05 4.1 -50.0 3.95 -50.0 3.75 -50.0 3.55 -49.85 3.2 -49.7 2.65 -49.55 2.25 -49.45 2.15 -49.0 2.25 -48.6 2.15 -48.4 1.95 -48.2 1.75 -48.1 1.55 -48.05 1.35 -48.0 1.2 -48.0 1.0 -47.95 0.9 -47.3 0.35 -47.1 0.0 -47.0 -0.2 -47.0 -0.35 -46.95 -0.55 -46.85 -0.75 -46.8 -0.95 -46.7 -0.9 -46.55 -0.75 -46.35 -0.55 -46.2 -0.35 -46.05 -0.3 -48.5 2.1 -32.05 2.1 -36.25 -2.05 -44.3 -2.05 -44.5 -1.8 -44.45 -2.0 -44.25 -2.35 -44.15 -2.55 -44.05 -2.75 -43.95 -2.9 -43.75 -3.0 -42.75 -3.0 -42.35 -3.1 -42.15 -3.3 -41.95 -3.5 -41.7 -3.4 -41.25 -3.25 -41.0 -3.25 -40.7 -3.3 -40.55 -3.35 -40.25 -3.7 -39.95 -4.05 -39.8 -4.2 -39.7 -4.1 -39.5 -3.95 -39.3 -3.75 -39.1 -3.55 -38.95 -3.35 -38.0 -3.05 -37.25 -2.85 -37.25 -2.75 -37.1 -2.55 -36.95 -2.35 -36.5 -2.25 -36.0 -2.15 -35.85 -2.05 -35.7 -1.85 -35.25 -1.75 -35.0 -1.75 -34.7 -1.8 -34.55 -1.85 -34.45 -2.0 -34.35 -2.2 -34.25 -2.35 -33.75 -2.5 -33.45 -2.45 -33.3 -2.25 -33.1 -2.05 -32.95 -1.85 -32.5 -1.75 -32.0 -1.75 -31.7 -1.8 -31.5 -1.95 -31.35 -2.1 -31.25 -2.25 -31.1 -2.05 -30.95 -1.85 -30.5 -1.75 -30.0 -1.75 -29.6 -1.85 -29.2 -2.25 -29.0 -2.45 -28.8 -2.6 -28.5 -2.75 -28.2 -2.8 -28.0 -2.9 -27.7 -3.05 -27.45 -3.1 -27.0 -3.0 -26.5 -3.0 -26.2 -3.05 -26.05 -3.1 -25.95 -3.25 -25.75 -3.35 -25.6 -3.3 -25.45 -3.1 -25.05 -2.95 -24.9 -2.9 -24.5 -2.75 -24.0 -2.75 -23.7 -2.8 -23.55 -2.85 -23.45 -2.9 -23.3 -2.75 -23.1 -2.55 -22.95 -2.35 -22.5 -2.25 -22.0 -2.25 -21.7 -2.3 -21.45 -2.35 -21.0 -2.25 -20.7 -2.15 -20.4 -2.05 -28.55 -2.05 -25.2 1.25 -25.45 1.4 -25.6 1.55 -25.7 1.75 -25.75 1.95 -25.75 2.15 -25.75 2.3 -25.85 2.4 -25.85 2.35 -25.95 2.2 -26.0 2.0 -26.0 1.8 -26.0 1.65 -26.1 1.45 -26.2 1.25 -26.4 1.05 -26.6 0.9 -27.0 0.75 -27.2 0.7 -27.25 0.65 -27.35 0.45 -27.45 0.25 -27.65 0.05 -27.85 -0.1 -28.25 -0.25 -28.25 -0.2 -28.7 -0.1 -28.85 0.05 -29.05 0.25 -29.2 0.45 -29.3 0.65 -29.35 0.8 -29.45 1.0 -29.5 1.2 -29.5 1.4 -29.5 1.55 -29.5 1.75 -29.35 1.95 -29.2 2.15 -28.75 2.3 -28.75 2.4 -28.75 2.55 -28.75 2.75 -28.75 2.95 -28.7 3.15 -28.55 3.3 -28.5 3.5 -28.5 3.7 -28.5 3.9 -28.5 4.05 -28.5 4.25 -28.35 4.45 -28.2 4.65 -27.75 4.75 -27.5 4.75 -27.2 4.7 -27.1 4.7 -27.05 4.8 -27.0 5.0 -26.85 5.2 -26.7 5.4 -26.25 5.5 -26.0 5.5 -25.6 5.4 -25.45 5.2 -25.2 4.8 -24.8 4.25 -24.6 3.95 -24.5 4.15 -24.3 4.5 -24.1 4.7 -23.95 4.9 -23.5 5.0 -23.25 5.0 -22.95 4.95 -22.75 4.8 -22.55 4.65 -22.35 4.45 -22.1 4.45 -21.95 4.65 -20.45 4.95 -19.5 5.25 -19.0 5.25 -18.7 5.2 -18.55 5.15 -18.45 5.0 -18.25 4.8 -17.85 4.65 -17.25 4.5 -16.85 4.4 -16.45 4.4 -16.0 4.5 -15.5 4.5 -15.2 4.45 -15.05 4.5 -14.85 4.7 -14.7 4.9 -14.25 5.0 -13.75 5.0 -13.45 4.95 -13.25 4.8 -13.1 4.65 -12.95 4.45 -12.7 4.25 -12.6 4.05 -12.55 3.85 -12.5 3.7 -12.55 3.5 -12.7 3.3 -12.85 3.15 -13.25 3.0 -13.5 3.0 -13.95 3.1 -14.2 3.2 -14.35 3.05 -14.6 2.9 -15.0 2.75 -15.5 2.75 -15.8 2.8 -15.95 2.8 -16.25 2.75 -17.0 2.75 -17.45 2.85 -18.0 3.0 -18.3 3.05 -18.5 3.2 -19.0 3.45 -19.3 3.55 -19.45 3.55 -19.7 3.5 -19.85 3.4 -20.25 3.25 -21.25 3.15 -21.3 3.0 -21.45 2.8 -21.6 2.65 -22.0 2.5 -22.25 2.5 -22.7 2.65 -22.85 2.8 -23.05 3.0 -23.25 3.05 -23.25 2.95 -23.25 2.55 -23.25 2.2 -23.25 2.1 -16.6 2.1 -12.4 -2.05 -14.15 -2.05 -14.1 -2.1 -14.05 -2.3 -14.05 -2.5 -14.05 -2.7 -14.15 -2.85 -14.25 -3.05 -15.0 -3.4 -16.0 -3.75 -18.25 -3.75 -18.7 -3.6 -20.1 -3.6 -20.45 -3.75 -20.6 -3.85 -21.0 -4.0 -21.75 -4.0 -22.1 -4.0 -22.3 -4.15 -22.5 -4.3 -22.55 -4.5 -22.7 -4.7 -22.85 -4.85 -23.25 -5.0 -23.5 -5.0 -23.8 -4.95 -24.0 -4.8 -24.2 -4.6 -24.4 -4.6 -24.5 -4.7 -24.55 -4.85 -24.6 -5.05 -24.7 -5.25 -24.9 -5.45 -25.1 -5.6 -25.5 -5.75 -25.8 -5.65 -25.95 -5.6 -26.25 -5.3 -26.6 -4.95 -26.75 -4.75 -26.85 -4.7 -28.0 -4.7 -28.3 -4.7 -28.5 -4.55 -28.7 -4.35 -29.25 -4.25 -29.55 -4.2 -29.75 -4.05 -29.95 -3.85 -30.15 -3.85 -30.25 -3.95 -30.25 -4.1 -30.25 -4.5 -30.25 -4.85 -30.25 -5.05 -30.3 -5.25 -30.45 -5.45 -30.6 -5.6 -31.0 -5.75 -31.25 -5.75 -31.7 -5.6 -32.0 -5.25 -32.05 -5.05 -32.2 -4.9 -32.35 -4.85 -32.75 -5.0 -33.0 -5.0 -33.45 -4.85 -33.6 -4.7 -33.8 -4.5 -33.9 -4.3 -34.0 -4.1 -34.75 -4.0 -35.2 -3.85 -35.35 -3.75 -35.75 -3.75 -36.0 -3.85 -36.05 -4.0 -36.2 -4.2 -36.35 -4.35 -36.75 -4.5 -37.75 -4.6 -37.85 -4.7 -38.1 -4.85 -38.2 -5.05 -38.25 -5.25 -38.25 -5.45 -38.25 -5.6 -38.25 -5.8 -38.3 -6.0 -38.3 -6.05 3.8 -6.05 3.75 -6.0 3.75 -5.8 3.7 -5.6 3.65 -5.45 3.5 -5.25 3.1 -4.85 2.8 -4.5 2.75 -4.3 2.75 -3.95 2.75 -3.55 2.75 -3.2 2.75 -3.0 2.9 -2.8 3.05 -2.6 3.5 -2.5 3.9 -2.6 4.05 -2.8 4.35 -3.2 4.65 -3.5 4.7 -3.45 4.75 -3.05 4.75 -2.7 4.75 -2.5 4.75 -2.3 4.8 -2.1 4.9 -1.95 4.95 -1.75 5.0 -1.55 5.05 -1.45 4.45 -2.05 -4.6 -2.05 -8.85 2.1 8.5 2.1 8.5 2.15 8.5 2.7 8.55 3.05 8.7 3.25 8.9 3.45 9.05 3.65 9.5 3.75 9.8 3.7 10.0 3.55 10.2 3.4 10.4 3.25 10.5 3.45 10.5 3.6 10.55 3.8 10.7 4.0 10.9 4.2 11.05 4.4 11.5 4.5 11.75 4.5 12.05 4.45 12.25 4.3 12.4 4.15 12.45 3.95 12.5 3.75 12.55 3.55 12.9 3.95 13.2 4.5 13.55 4.9 14.0 5.0 14.75 5.0 15.05 4.95 15.2 4.9 15.55 4.6 16.1 4.15 16.3 4.0 16.4 3.8 16.5 3.6 16.5 3.45 16.45 3.25 16.3 3.05 16.15 2.9 15.75 2.75 15.3 2.9 15.15 3.05 14.8 3.25 14.45 3.35 14.25 3.3 14.15 3.1 14.05 2.95 13.95 2.75 13.9 2.55 13.8 2.4 13.75 2.2 13.75 2.0 13.75 1.8 13.75 1.65 13.65 1.45 13.55 1.25 13.35 1.05 13.15 0.9 12.75 0.75 12.45 0.8 12.25 0.95 12.05 1.15 11.9 1.3 11.75 1.4 11.75 1.2 11.7 1.0 11.65 0.8 11.55 0.65 11.5 0.45 11.5 0.25 11.5 0.05 11.5 -0.1 11.5 -0.3 11.45 -0.5 11.3 -0.7 11.15 -0.85 10.75 -1.0 10.5 -1.0 10.2 -0.95 10.0 -0.95 10.0 -1.25 10.0 -1.6 10.0 -1.8 9.95 -2.0 9.85 -2.2 9.75 -2.35 9.75 -2.55 9.7 -2.75 9.55 -2.95 9.4 -3.1 9.0 -3.25 8.7 -3.2 8.5 -3.2 8.5 -3.3 8.45 -3.5 8.4 -3.7 8.3 -3.85 8.25 -4.05 8.25 -4.25 8.25 -4.45 8.25 -4.6 8.25 -4.8 8.2 -5.0 8.05 -5.2 7.9 -5.35 7.5 -5.5 7.2 -5.45 7.0 -5.3 6.65 -4.95 6.55 -4.75 6.5 -4.55 6.5 -4.2 6.5 -3.8 6.5 -3.6 6.5 -3.45 6.4 -3.25 6.3 -3.1 6.25 -3.05 6.25 -3.25 6.25 -3.45 6.25 -3.6 6.2 -3.8 6.15 -4.0 6.05 -4.2 6.0 -4.35 6.0 -4.55 6.0 -4.75 6.0 -4.95 6.0 -5.1 5.9 -5.3 5.8 -5.5 5.75 -5.7 5.65 -5.9 5.55 -6.05 M119.75 -6.05 L122.0 -6.05 121.5 -5.5 121.3 -5.1 121.25 -4.95 121.25 -4.75 121.25 -4.55 121.15 -4.35 121.0 -4.2 120.85 -4.0 120.8 -3.95 120.75 -4.05 120.75 -4.25 120.7 -4.45 120.65 -4.6 120.55 -4.8 120.35 -5.2 120.25 -5.35 120.15 -5.55 120.05 -5.75 119.85 -5.95 119.75 -6.05 M-45.55 -6.05 L-40.6 -6.05 -40.9 -5.45 -41.1 -5.2 -42.0 -5.2 -42.3 -5.15 -42.45 -5.1 -42.55 -5.0 -42.75 -4.8 -43.2 -4.7 -43.3 -4.75 -43.45 -4.95 -43.6 -5.1 -44.0 -5.25 -44.25 -5.25 -44.7 -5.1 -44.85 -4.95 -45.0 -4.75 -45.05 -4.55 -45.2 -4.4 -45.25 -4.3 -45.25 -4.45 -45.25 -4.8 -45.25 -5.2 -45.25 -5.55 -45.3 -5.75 -45.45 -5.95 -45.55 -6.05 M6.05 -0.5 L6.25 -0.5 6.55 -0.55 6.75 -0.7 6.95 -0.8 7.0 -0.75 7.0 -0.35 7.0 0.0 7.0 0.35 7.05 0.5 6.05 -0.5 M7.8 1.2 L8.0 1.25 8.3 1.2 8.45 1.15 8.5 1.2 8.5 1.55 8.5 1.9 7.8 1.2 M23.8 2.1 L23.75 2.15 23.75 2.3 23.75 2.5 23.8 2.7 23.85 2.9 23.9 3.05 23.95 3.25 24.0 3.45 24.0 3.65 24.0 3.8 24.0 4.0 24.15 4.2 24.25 4.4 24.25 4.55 24.25 4.75 24.4 4.95 24.55 5.15 25.0 5.25 25.25 5.25 25.55 5.2 25.75 5.05 25.95 4.9 26.15 4.7 26.3 4.5 26.4 4.3 26.5 4.15 26.5 3.95 26.5 3.75 26.55 3.55 26.65 3.4 26.75 3.2 26.95 3.3 27.0 3.5 27.25 3.9 27.45 4.25 27.8 4.65 28.25 4.75 28.5 4.75 28.8 4.7 29.0 4.55 29.1 4.35 29.2 4.2 29.25 4.0 29.25 3.65 29.25 3.05 29.25 2.7 29.25 2.3 29.3 2.15 29.4 1.95 29.45 1.75 29.45 1.7 29.5 1.8 29.55 2.0 29.65 2.2 29.8 2.4 30.25 2.5 30.5 2.5 30.8 2.45 30.95 2.4 31.05 2.25 31.15 2.05 31.25 1.9 31.25 1.7 31.25 1.5 31.3 1.3 31.4 1.15 31.5 0.95 31.5 0.75 31.5 0.55 31.5 0.4 31.5 0.2 31.5 0.0 31.5 -0.2 31.75 -0.95 31.75 -1.7 31.85 -2.65 32.15 -3.3 32.2 -3.15 32.4 -2.75 32.55 -2.4 32.7 -2.2 32.75 -2.0 32.75 -1.8 32.75 -1.65 32.8 -1.45 32.95 -1.25 33.15 -1.05 33.3 -0.85 33.75 -0.75 34.0 -0.75 34.4 -0.85 34.6 -1.05 34.8 -1.25 34.9 -1.45 35.0 -1.65 35.0 -1.8 35.0 -2.0 35.0 -2.2 35.15 -2.55 35.25 -2.95 35.3 -3.1 35.4 -3.3 35.45 -3.45 35.5 -3.25 35.65 -3.05 35.8 -2.85 36.25 -2.75 36.55 -2.8 36.75 -2.95 37.15 -3.1 37.3 -3.3 37.45 -3.5 37.5 -3.7 37.5 -3.85 37.65 -4.05 37.8 -4.25 38.05 -4.15 38.5 -4.0 38.8 -4.05 39.0 -4.2 39.15 -4.35 39.2 -4.55 39.2 -4.75 39.2 -4.95 39.1 -5.1 39.0 -5.3 38.8 -5.5 38.6 -5.7 38.4 -5.85 38.0 -6.0 37.75 -6.0 37.3 -5.85 37.15 -5.7 36.95 -5.5 36.75 -5.3 36.55 -5.15 36.4 -5.1 36.25 -5.3 36.05 -5.5 35.85 -5.7 35.65 -5.85 35.25 -6.0 35.0 -6.0 35.0 -5.95 34.7 -5.95 34.5 -5.8 34.35 -5.6 34.25 -5.45 34.25 -5.25 34.25 -5.05 34.25 -4.85 34.25 -4.7 34.25 -4.5 34.2 -4.3 34.05 -4.1 34.0 -3.95 33.95 -3.75 33.85 -3.6 33.75 -3.5 33.65 -3.65 33.35 -4.2 33.0 -4.7 32.65 -5.1 32.25 -5.25 32.0 -5.25 31.7 -5.2 31.3 -4.85 30.95 -4.5 30.8 -4.3 30.7 -4.1 30.55 -3.55 30.4 -3.0 30.3 -2.25 30.2 -1.8 30.05 -1.95 29.9 -2.1 29.5 -2.25 29.25 -2.25 28.95 -2.2 28.75 -2.05 28.6 -1.85 28.5 -1.7 28.5 -1.5 28.45 -1.3 28.3 -1.1 28.2 -0.75 28.15 -0.55 28.1 -0.4 28.05 -0.2 28.0 0.0 28.0 0.2 28.0 0.4 28.0 0.55 28.0 0.75 28.0 0.95 28.0 1.15 27.95 1.3 27.85 1.5 27.8 1.65 27.65 1.55 27.4 1.4 27.0 1.25 26.25 1.25 25.8 1.4 25.65 1.55 25.55 1.75 25.5 1.95 25.5 2.15 25.45 2.3 25.4 2.45 25.35 2.35 25.25 2.2 25.2 2.0 25.05 1.8 24.9 1.65 24.7 1.55 28.35 -2.05 12.15 -2.05 16.35 2.1 23.8 2.1 M46.8 0.5 L47.0 0.5 47.3 0.45 47.5 0.3 47.6 0.1 47.7 -0.05 47.75 -0.25 47.8 -0.4 48.0 -0.5 48.25 -0.5 48.6 -0.5 48.7 -0.35 48.75 -0.2 48.75 0.0 48.75 0.2 48.8 0.4 48.95 0.55 49.0 0.75 49.15 0.95 49.3 1.15 49.75 1.25 50.25 1.25 50.55 1.35 50.65 1.5 50.75 1.7 50.75 1.9 50.75 2.05 50.8 2.25 51.15 2.85 51.4 3.15 51.55 3.4 51.9 3.55 52.0 3.65 52.1 3.8 52.2 4.0 52.4 4.2 52.55 4.4 53.0 4.5 53.5 4.5 53.8 4.55 53.95 4.75 54.15 4.95 54.3 5.15 54.5 5.3 54.8 5.5 55.15 5.7 55.3 5.9 55.75 6.0 56.05 5.95 56.6 5.6 56.85 5.45 57.05 5.25 57.15 5.05 57.25 4.85 57.25 4.7 57.2 4.5 57.25 4.5 58.2 4.8 58.75 5.0 59.0 5.0 59.4 4.9 59.75 4.75 60.05 4.7 60.25 4.55 60.45 4.4 61.8 4.4 63.1 4.8 64.25 5.25 64.75 5.25 65.05 5.2 65.2 5.15 65.3 5.0 65.4 4.8 65.45 4.75 65.55 4.9 66.0 5.0 66.3 4.95 66.5 4.8 66.8 4.45 66.95 4.3 67.05 4.4 67.15 4.55 67.2 4.75 67.25 4.95 67.25 5.15 67.25 5.3 67.25 5.5 67.4 5.7 67.55 5.9 68.0 6.0 68.25 6.0 68.55 5.95 68.7 5.9 68.8 5.75 68.9 5.55 69.0 5.4 69.15 4.6 69.45 3.9 69.55 3.3 69.65 3.15 69.7 3.15 69.75 3.3 69.8 3.5 69.9 3.7 70.0 3.9 70.0 4.05 70.0 4.25 70.15 4.45 70.3 4.65 70.75 4.75 71.0 4.75 71.3 4.7 71.45 4.65 71.55 4.5 71.65 4.3 71.75 4.15 71.75 3.95 71.75 3.75 71.7 3.55 71.6 3.4 71.55 3.2 71.5 3.0 71.5 1.9 71.55 0.75 71.45 0.0 71.3 -0.2 71.15 -0.35 70.75 -0.5 70.75 -0.45 70.45 -0.4 70.3 -0.35 70.2 -0.25 70.05 -0.05 69.5 0.0 69.2 0.1 69.05 0.15 68.95 0.25 68.7 0.65 68.6 0.8 68.5 1.0 68.5 1.2 68.5 1.35 68.45 1.45 68.35 1.3 68.25 1.15 68.25 0.95 68.2 0.75 68.05 0.55 67.9 0.4 67.15 0.15 66.75 0.0 66.45 0.05 66.25 0.2 66.05 0.4 66.0 0.55 65.9 0.75 65.8 0.95 65.75 1.15 65.75 1.3 65.7 1.5 65.6 1.7 65.5 1.9 65.5 2.25 65.5 2.8 65.5 3.2 65.5 3.4 65.4 3.55 65.3 3.75 65.25 3.95 65.25 4.0 65.15 3.9 64.4 3.6 64.05 3.5 63.9 3.4 63.5 3.25 62.75 3.0 62.0 2.75 59.95 2.8 59.75 2.95 59.55 3.15 59.25 3.25 58.95 3.3 58.8 3.3 58.55 3.25 58.4 3.15 58.0 3.0 57.95 2.95 57.8 2.8 57.65 2.65 57.3 2.5 57.15 2.4 56.75 2.25 56.5 2.25 56.5 2.3 56.2 2.35 56.05 2.4 55.95 2.5 55.75 2.7 55.55 2.9 55.5 3.05 55.5 3.25 55.5 3.45 55.6 3.6 55.7 3.8 55.75 4.0 55.9 4.2 55.75 4.25 55.45 4.15 55.25 3.95 55.05 3.75 54.9 3.4 54.7 3.0 54.55 2.8 54.4 2.65 54.0 2.5 53.75 2.5 53.3 2.55 53.2 2.5 53.05 2.3 52.9 2.15 52.55 2.0 52.5 1.95 52.4 1.8 52.25 1.65 52.25 1.45 52.2 1.25 52.15 1.05 51.7 0.35 51.4 -0.25 51.15 -0.6 50.75 -0.75 50.3 -0.7 50.2 -0.75 50.15 -0.95 50.05 -1.1 50.0 -1.3 50.0 -1.5 50.0 -1.7 50.0 -1.85 49.9 -2.05 49.8 -2.25 49.75 -2.45 49.75 -2.6 49.65 -2.8 49.55 -3.0 49.35 -3.2 49.15 -3.35 48.75 -3.5 48.45 -3.45 48.3 -3.5 48.25 -3.55 48.2 -3.75 48.05 -3.95 47.9 -4.1 47.5 -4.25 47.2 -4.2 47.0 -4.1 46.8 -4.05 46.75 -4.25 46.75 -4.45 46.75 -4.6 46.65 -4.8 46.55 -5.0 46.35 -5.2 46.15 -5.35 45.75 -5.5 45.75 -5.45 45.45 -5.4 45.3 -5.35 45.2 -5.25 45.1 -5.05 45.0 -4.85 45.0 -4.7 45.0 -4.5 45.0 -4.3 45.0 -4.1 45.0 -3.95 45.0 -3.75 44.95 -3.7 44.8 -3.8 44.75 -4.0 44.75 -4.2 44.75 -4.35 44.65 -4.55 44.55 -4.75 44.35 -4.95 44.15 -5.1 43.75 -5.25 43.5 -5.25 43.2 -5.15 43.05 -5.1 42.95 -5.0 42.8 -4.8 42.75 -4.6 42.75 -4.45 42.65 -4.25 42.55 -4.05 42.5 -3.85 42.5 -3.7 42.55 -3.5 42.65 -3.3 42.8 -3.1 43.25 -3.0 43.55 -2.95 43.55 -2.85 43.7 -2.7 43.75 -2.5 43.75 -2.3 43.75 -2.15 43.8 -2.05 36.1 -2.05 31.9 2.1 48.4 2.1 46.8 0.5 M45.65 -0.6 L45.8 -0.65 45.9 -0.55 45.95 -0.35 46.0 -0.25 45.65 -0.6 M51.85 -2.05 L56.05 2.1 63.8 2.1 68.0 -2.05 51.85 -2.05 M104.3 1.35 L104.25 1.4 104.25 1.55 104.2 1.75 104.05 1.95 103.8 2.15 103.65 2.3 103.55 2.5 103.5 2.7 103.5 2.9 103.5 3.05 103.5 3.25 103.65 3.45 103.8 3.65 104.25 3.75 104.75 3.75 105.05 3.7 105.2 3.65 105.4 3.7 105.55 3.9 106.0 4.0 106.3 3.95 106.45 3.9 106.55 3.75 106.65 3.55 106.75 3.35 106.75 3.25 106.9 3.45 107.05 3.65 107.5 3.75 107.75 3.75 108.15 3.65 108.3 3.45 108.45 3.25 108.5 3.05 108.5 2.9 108.5 2.7 108.5 2.5 108.55 2.4 109.0 2.5 109.25 2.5 109.55 2.45 109.7 2.4 109.8 2.25 109.9 2.05 110.0 1.9 110.0 1.7 110.05 1.5 110.2 1.3 110.25 1.15 110.25 0.95 110.25 0.2 110.25 -0.35 110.25 -0.75 110.25 -0.95 110.5 -1.0 110.8 -1.05 110.95 -1.1 111.05 -1.25 111.15 -1.45 111.25 -1.6 111.25 -1.8 111.25 -2.0 111.2 -2.2 111.1 -2.35 111.0 -2.55 110.8 -2.75 110.6 -2.95 110.4 -3.1 110.0 -3.25 109.5 -3.25 109.5 -3.2 109.2 -3.2 109.0 -3.05 108.85 -2.85 108.75 -2.7 108.75 -2.3 108.75 -1.95 108.75 -1.55 108.75 -1.4 108.7 -1.3 108.55 -1.45 108.4 -1.6 108.0 -1.75 107.7 -1.65 107.55 -1.6 107.45 -1.5 107.35 -1.3 107.25 -1.1 107.25 -0.95 107.25 -0.75 107.2 -0.55 107.1 -0.35 107.0 -0.2 107.0 0.0 107.0 0.2 107.0 0.4 107.0 0.55 106.9 0.55 106.65 0.4 106.25 0.25 106.0 0.25 105.55 0.4 105.4 0.55 105.25 0.7 105.0 0.75 104.85 0.8 107.7 -2.05 91.55 -2.05 95.75 2.1 103.5 2.1 104.3 1.35 M121.4 -2.05 L121.85 -2.65 122.4 -3.6 Q122.65 -4.05 122.75 -3.7 L122.8 -3.5 122.9 -3.3 123.05 -3.1 123.5 -3.0 124.55 -3.1 124.7 -3.1 124.75 -3.05 124.85 -2.9 125.2 -2.5 125.4 -2.3 125.55 -2.1 126.0 -2.0 126.25 -2.0 126.5 -1.95 126.5 -1.9 126.55 -1.7 126.65 -1.5 126.75 -1.3 126.75 -1.1 126.75 -0.95 126.75 -0.75 126.75 -0.55 126.8 -0.35 126.95 -0.2 127.0 0.0 127.0 0.2 127.0 0.55 127.0 0.95 127.0 1.3 127.0 1.35 123.55 -2.05 121.4 -2.05 M134.25 -4.0 L134.8 -3.9 137.75 -3.5 139.0 -3.5 139.3 -3.55 139.55 -3.6 139.95 -3.45 140.1 -3.4 140.5 -3.25 142.0 -3.25 142.4 -3.35 143.0 -3.5 143.25 -3.55 143.4 -3.6 144.05 -3.6 144.5 -3.5 145.25 -3.5 145.65 -3.6 145.9 -3.8 146.15 -3.8 146.3 -3.6 146.7 -3.45 146.85 -3.4 147.25 -3.25 150.5 -2.95 150.4 -2.75 150.3 -2.55 150.25 -2.35 150.25 -2.2 150.15 -2.2 149.9 -2.35 149.5 -2.5 149.25 -2.5 148.95 -2.4 148.8 -2.35 148.7 -2.25 148.55 -2.05 148.5 -1.85 148.5 -1.7 148.5 -1.5 148.4 -1.45 148.0 -1.5 147.75 -1.5 147.45 -1.45 147.25 -1.3 147.1 -1.1 147.0 -0.95 147.0 0.0 147.0 0.4 147.0 0.75 147.0 1.3 146.9 1.85 146.8 2.25 146.75 2.45 146.55 2.95 146.45 2.85 146.25 2.7 146.2 2.5 146.05 2.3 145.9 2.15 145.5 2.0 145.25 2.0 144.95 2.05 144.75 2.2 144.3 2.4 144.15 2.55 144.05 2.75 144.0 2.95 144.0 3.15 144.0 3.3 144.0 3.5 144.0 3.7 144.0 3.9 144.0 4.05 144.0 4.25 144.15 4.45 144.3 4.65 144.75 4.75 145.0 4.75 145.3 4.7 145.45 4.65 145.55 4.6 145.7 4.75 145.9 4.95 146.05 5.15 146.5 5.25 147.0 5.25 147.3 5.2 147.5 5.05 147.65 4.9 147.75 4.7 147.85 4.5 147.95 4.3 148.0 4.15 148.0 3.95 148.0 3.75 148.0 3.55 148.05 3.4 148.15 3.2 148.2 3.0 148.3 2.9 148.75 3.0 149.0 3.0 149.4 2.9 149.55 2.7 149.7 2.5 149.75 2.3 149.75 2.15 149.85 1.95 149.95 1.75 150.0 1.55 150.0 1.4 150.0 1.2 150.0 1.0 150.05 0.9 150.5 1.0 150.9 0.9 151.1 0.7 151.3 0.5 151.5 0.3 151.6 0.1 151.7 -0.05 151.75 -0.25 151.8 -0.4 152.0 -0.5 152.5 -0.5 152.8 -0.55 152.95 -0.6 153.05 -0.75 153.15 -0.95 153.25 -1.1 153.25 -1.3 153.3 -1.5 153.45 -1.7 153.5 -1.9 153.5 -2.05 153.6 -2.25 153.7 -2.45 153.85 -2.3 154.05 -2.1 154.5 -2.0 154.75 -2.0 155.05 -2.05 155.2 -2.1 155.3 -2.25 155.4 -2.45 155.5 -2.6 155.65 -2.8 156.0 -2.75 156.5 -2.75 156.9 -2.8 157.0 -2.75 157.15 -2.55 157.3 -2.35 157.75 -2.25 158.0 -2.25 158.3 -2.3 158.45 -2.35 158.55 -2.5 158.65 -2.7 158.75 -2.9 158.75 -3.05 158.75 -3.25 158.75 -3.45 158.75 -3.6 158.75 -3.8 158.7 -4.0 158.6 -4.2 158.5 -4.35 158.4 -4.55 158.3 -4.75 158.1 -4.95 157.9 -5.1 157.5 -5.25 157.25 -5.25 157.0 -5.25 156.7 -5.2 156.5 -5.05 156.3 -4.9 156.15 -4.75 155.75 -4.75 147.4 -4.85 147.05 -5.0 147.0 -5.05 146.85 -5.2 146.65 -5.35 146.25 -5.5 145.75 -5.5 145.45 -5.45 145.25 -5.3 145.05 -5.1 144.65 -5.1 144.25 -5.25 143.25 -5.25 142.8 -5.15 142.0 -5.0 141.55 -4.85 140.9 -4.85 140.55 -5.0 140.4 -5.1 140.0 -5.25 139.25 -5.25 138.8 -5.1 137.9 -5.1 137.5 -5.25 135.2 -5.35 134.75 -5.5 134.2 -5.65 133.75 -5.75 133.75 -5.7 133.3 -5.6 133.15 -5.45 133.05 -5.25 133.0 -5.05 133.0 -4.85 133.1 -4.7 133.2 -4.5 Q133.65 -4.1 134.25 -4.0 M131.25 -2.05 L135.45 2.1 143.2 2.1 147.4 -2.05 131.25 -2.05 M83.85 -2.05 L75.8 -2.05 71.6 2.1 88.1 2.1 83.85 -2.05 M176.2 2.1 L176.05 2.15 175.95 2.25 175.8 2.4 175.65 2.3 175.4 2.15 175.0 2.0 174.75 2.0 174.45 2.05 174.25 2.2 174.05 2.3 174.0 2.25 173.95 2.05 173.9 1.9 173.55 1.5 173.35 1.3 173.15 1.15 172.75 1.0 172.75 0.95 172.7 0.8 172.65 0.65 172.55 0.45 172.5 0.25 172.5 0.05 172.5 -0.1 172.5 -0.3 172.45 -0.5 172.3 -0.7 172.15 -0.85 171.85 -1.1 171.75 -1.25 171.75 -1.45 171.75 -1.6 171.75 -1.8 171.75 -2.2 171.75 -2.35 171.65 -2.55 171.55 -2.75 171.5 -2.95 171.5 -3.1 171.5 -3.3 171.45 -3.5 171.3 -3.7 171.15 -3.85 170.75 -4.0 170.45 -3.9 170.3 -3.85 170.2 -3.75 170.05 -3.55 169.95 -3.45 169.85 -3.5 169.6 -3.7 169.4 -3.85 169.05 -4.0 168.9 -4.1 168.5 -4.25 168.05 -4.1 167.9 -3.95 167.5 -3.55 167.1 -3.2 166.95 -3.1 166.85 -3.25 166.75 -3.45 166.6 -3.6 166.3 -4.0 165.9 -4.35 165.5 -4.5 164.75 -4.45 164.25 -4.4 164.05 -4.45 163.9 -4.6 163.5 -4.75 163.5 -4.7 163.2 -4.7 163.0 -4.55 162.85 -4.35 162.75 -4.2 162.75 -4.0 162.75 -3.8 162.75 -3.6 162.75 -3.45 162.75 -3.25 162.85 -3.05 163.1 -2.7 163.4 -2.3 163.55 -2.1 163.8 -2.05 155.2 -2.05 151.0 2.1 168.5 2.1 164.3 -2.0 164.65 -2.1 164.85 -2.3 165.05 -2.5 165.15 -2.7 165.25 -2.8 165.4 -2.75 165.5 -2.55 165.5 -2.4 165.55 -2.2 165.7 -2.0 165.9 -1.8 166.05 -1.6 166.5 -1.5 167.25 -1.5 167.55 -1.55 167.75 -1.65 168.05 -1.8 168.2 -1.85 168.3 -2.0 168.4 -2.2 168.5 -2.35 168.65 -2.5 168.85 -2.3 169.05 -2.1 169.45 -1.75 169.8 -1.35 170.25 -1.2 170.25 -1.1 170.25 -0.95 170.3 -0.75 170.35 -0.55 170.45 -0.35 170.5 0.0 170.5 0.4 170.5 0.55 170.5 1.15 170.5 1.5 170.65 1.7 170.8 1.9 171.25 2.05 171.25 2.15 171.45 2.5 171.65 2.7 171.8 2.9 172.25 3.0 172.5 3.05 172.55 3.05 172.7 3.25 172.75 3.45 172.8 3.65 172.95 3.8 173.0 4.0 173.15 4.2 173.3 4.4 173.75 4.5 174.25 4.5 174.55 4.45 174.75 4.3 Q174.8 4.2 174.9 4.2 L175.0 4.25 175.0 4.45 175.05 4.65 175.2 4.8 175.25 5.0 175.4 5.2 175.55 5.4 176.0 5.5 176.25 5.5 176.55 5.45 176.7 5.4 176.8 5.25 176.9 5.05 177.0 4.85 177.05 4.7 177.15 4.7 177.2 4.9 177.25 5.05 177.25 5.25 177.4 5.45 177.55 5.65 178.0 5.75 178.5 5.75 178.8 5.7 178.95 5.65 179.05 5.5 179.25 5.3 179.55 4.9 179.8 4.6 179.8 4.55 179.9 4.75 180.0 4.95 180.05 5.15 180.45 5.5 180.65 5.7 180.8 5.9 181.25 6.0 181.65 5.9 181.85 5.7 182.05 5.5 182.15 5.3 182.25 5.1 182.25 4.95 182.25 4.75 182.3 4.6 182.5 4.5 182.75 4.5 183.15 4.4 183.3 4.2 183.45 4.0 183.6 3.85 183.75 3.8 183.95 4.0 184.15 4.2 184.3 4.4 184.75 4.5 185.05 4.45 185.2 4.4 185.35 4.25 185.55 4.15 186.0 4.25 186.25 4.25 186.45 4.3 186.5 4.5 186.65 4.7 186.8 4.9 187.25 5.0 187.5 5.0 187.8 4.95 188.0 4.8 188.1 4.6 188.2 4.45 188.25 4.25 188.25 4.05 188.35 3.85 188.45 3.7 188.5 3.5 188.5 3.3 188.5 3.15 188.6 2.95 188.7 2.75 188.75 2.55 188.8 2.45 189.55 2.15 189.7 2.15 189.8 2.0 189.9 1.8 190.0 1.6 190.0 1.45 189.95 1.25 189.8 1.05 189.65 0.9 189.25 0.75 188.5 0.75 188.2 0.8 187.8 1.15 187.45 1.5 187.3 1.7 187.25 1.9 187.2 2.05 187.15 2.05 186.9 1.9 186.5 1.75 186.15 1.75 185.85 1.65 185.5 1.5 185.25 1.5 184.95 1.55 184.75 1.7 184.55 1.75 184.45 1.75 184.4 1.65 188.15 -2.05 171.95 -2.05 176.2 2.1 M182.5 2.1 L182.5 2.2 182.45 2.4 182.35 2.45 182.0 2.5 181.75 2.5 181.3 2.65 181.15 2.8 180.95 3.0 180.8 3.15 180.65 3.05 180.4 2.9 180.0 2.75 179.5 2.75 179.2 2.85 179.05 2.9 178.95 3.0 178.6 3.4 178.5 3.55 178.4 3.7 178.2 3.6 178.05 3.45 177.95 3.25 177.9 3.05 177.7 2.9 177.5 2.7 177.45 2.5 177.3 2.3 177.15 2.15 177.05 2.1 182.5 2.1 M-169.0 -2.1 L-169.0 -2.3 -169.05 -2.45 -168.95 -2.35 -168.7 -2.3 -168.85 -2.1 -169.0 -1.8 -169.0 -1.95 -169.0 -2.1 M-172.7 -0.35 L-173.0 -0.05 -173.5 0.5 -173.7 0.9 -173.75 1.05 -173.8 1.25 -173.85 1.45 -173.95 1.65 -174.1 1.6 -174.5 1.5 -174.75 1.5 -175.05 1.6 -175.2 1.65 -175.3 1.75 -175.4 1.95 -175.5 2.15 -175.5 2.3 -175.5 2.9 -175.5 3.45 -175.45 3.8 -175.35 4.0 -175.3 4.2 -175.25 4.4 -175.25 4.55 -175.2 4.75 -175.1 4.95 -174.95 5.15 -174.5 5.25 -174.25 5.25 -173.85 5.15 -173.7 4.95 -173.35 4.4 -173.05 3.8 -172.85 3.45 -172.75 3.05 -172.6 2.7 -172.55 2.5 -172.55 2.4 -172.5 2.55 -172.35 2.95 -172.25 3.3 -172.25 3.5 -172.1 3.7 -171.95 3.9 -171.5 4.0 -171.25 4.0 -170.85 3.9 -170.65 3.7 -170.45 3.5 -170.35 3.3 -170.25 3.15 -170.25 2.95 -170.2 2.75 -170.05 2.55 -170.0 2.4 -169.9 2.0 -169.8 1.65 -169.75 1.45 -169.6 1.25 -169.25 1.25 -168.95 1.2 -168.75 1.05 -168.65 0.85 -168.3 0.25 -168.05 -0.05 -167.95 -0.25 -167.85 -0.45 -167.8 -0.6 -167.75 -0.8 -167.7 -1.0 -167.55 -1.2 -167.5 -1.35 -167.35 -1.55 -167.1 -1.55 -166.95 -1.35 -166.5 -1.25 -166.0 -1.25 -165.7 -1.3 -165.3 -1.65 -164.55 -2.4 -164.3 -2.6 -154.25 -2.85 -154.25 -2.75 -154.2 -2.55 -154.1 -2.35 -154.05 -2.2 -154.0 -2.0 -153.9 -1.8 -153.8 -1.6 -153.75 -1.45 -153.75 -1.25 -153.6 -1.05 -153.45 -0.85 -153.0 -0.75 -152.75 -0.75 -152.45 -0.8 -152.3 -0.85 -151.75 -1.55 -151.45 -2.1 -151.25 -2.3 -151.25 -2.1 -151.25 -1.2 -151.25 -0.25 -151.2 0.3 -151.1 0.5 -151.05 0.7 -151.0 0.9 -151.0 1.05 -150.95 1.25 -150.85 1.45 -150.7 1.65 -150.25 1.75 -150.0 1.75 -149.75 1.8 -149.7 1.8 -149.65 1.95 -149.6 2.15 -149.55 2.3 -149.5 2.5 -149.5 2.7 -149.5 2.85 -149.45 3.05 -149.3 3.25 -149.1 3.45 -148.95 3.65 -148.5 3.75 -148.25 3.75 -147.85 3.65 -147.7 3.65 -147.6 3.8 -147.55 4.0 -147.5 4.2 -147.45 4.4 -147.3 4.55 -147.25 4.75 -147.1 4.95 -146.95 5.15 -146.5 5.25 -146.2 5.2 -146.0 5.05 -145.9 4.85 -145.8 4.7 -145.75 4.5 -145.8 4.3 -145.85 4.15 -145.95 3.95 -146.05 3.75 -146.1 3.55 -146.2 3.4 -146.25 3.2 -146.3 3.0 -146.35 2.8 -146.6 2.45 -146.9 2.1 -147.1 1.9 -147.5 1.75 -148.0 1.75 -148.1 1.7 -148.2 1.65 -148.2 1.45 -148.25 0.5 -148.2 -0.45 -148.3 -1.0 -148.4 -1.2 -148.5 -1.35 -148.5 -1.55 -148.55 -1.75 -148.7 -1.95 -148.85 -2.1 -149.25 -2.25 -149.5 -2.25 -149.7 -2.3 -149.75 -2.35 -149.85 -2.75 -149.95 -3.1 -150.05 -3.5 -150.1 -3.7 -150.25 -3.85 -150.25 -4.05 -150.3 -4.25 -150.45 -4.45 -150.6 -4.6 -151.0 -4.75 -151.5 -4.75 -151.95 -4.6 -152.1 -4.45 -152.25 -4.25 -152.25 -4.05 -152.3 -3.85 -152.35 -3.7 -152.5 -3.5 -152.6 -3.3 -152.7 -3.2 -152.75 -3.25 -152.75 -3.45 -152.75 -3.6 -152.75 -3.8 -152.8 -4.0 -152.9 -4.2 -153.0 -4.35 -153.0 -4.55 -153.0 -4.75 -153.05 -4.95 -153.1 -5.1 -153.2 -5.3 -153.3 -5.5 -153.35 -5.7 -153.6 -5.85 -154.0 -6.0 -154.0 -5.95 -154.3 -5.9 -154.45 -5.85 -154.55 -5.75 -154.65 -5.55 -154.75 -5.35 -154.75 -5.2 -154.75 -5.0 -154.75 -4.8 -154.75 -4.65 -154.7 -4.45 -154.6 -4.25 -161.5 -4.25 -161.5 -4.3 -161.55 -4.5 -161.7 -4.7 -161.85 -4.85 -162.25 -5.0 -162.25 -4.95 -162.55 -4.95 -162.75 -4.8 -163.75 -4.75 -164.05 -4.7 -164.25 -4.55 -164.55 -4.45 -164.7 -4.35 -164.8 -4.25 -165.5 -4.25 -168.8 -3.65 Q-168.95 -3.6 -169.05 -3.5 L-169.15 -3.3 -169.25 -3.1 -169.25 -2.95 -169.2 -2.75 -169.2 -2.7 -169.35 -2.85 -169.75 -3.0 -170.05 -2.9 -170.2 -2.85 -170.3 -2.75 -170.45 -2.55 -170.5 -2.35 -170.5 -2.2 -170.6 -2.0 -170.7 -1.8 -170.8 -1.6 -170.85 -1.45 -170.95 -1.25 -171.0 -1.05 -171.0 -0.7 -171.0 -0.3 -171.0 -0.1 -171.0 0.05 -171.05 0.25 -171.1 0.45 -171.1 0.65 -171.2 0.8 -171.2 0.85 -171.25 0.75 -171.3 0.55 -171.5 0.2 -171.7 -0.15 -171.85 -0.35 -172.25 -0.5 -172.55 -0.4 -172.7 -0.35 M-188.4 -2.05 L-184.15 2.1 -176.4 2.1 -172.2 -2.05 -188.4 -2.05 M-147.65 -2.05 L-143.45 2.1 -135.7 2.1 -131.5 -2.05 -147.65 -2.05 M-92.55 -1.25 L-92.05 -1.8 -92.2 -1.6 -92.25 -1.45 -92.3 -1.25 -92.35 -1.05 -92.45 -1.1 -92.55 -1.25 M-104.0 1.85 L-103.75 2.1 -98.4 2.1 -98.5 2.2 -99.0 2.25 -99.45 2.4 -99.6 2.55 -99.75 2.75 -99.75 2.95 -99.8 3.15 -99.85 3.3 -100.0 3.5 -100.0 3.7 -100.05 3.85 -100.1 4.0 -100.5 4.0 -101.8 4.05 -102.3 4.3 -102.8 4.55 -102.95 4.55 -103.2 4.5 -103.35 4.4 -103.7 4.2 -103.75 4.15 -103.75 3.95 -103.75 3.75 -103.75 3.55 -103.75 3.4 -103.75 3.2 -103.8 3.0 -103.85 2.8 -103.95 2.65 -104.0 2.45 -104.0 2.25 -104.0 2.05 -104.0 1.9 -104.0 1.85 M-95.7 1.85 L-94.3 0.45 -94.4 0.85 -94.65 1.8 -94.95 2.7 -95.05 2.6 -95.25 2.45 -95.3 2.25 -95.45 2.05 -95.6 1.9 -95.7 1.85 M-75.95 -2.05 L-75.75 -2.0 -75.0 -2.0 -74.7 -2.05 -74.15 -2.4 -73.7 -2.75 -73.3 -3.1 -72.8 -3.1 -72.7 -2.95 -72.55 -2.75 -72.5 -2.55 -72.45 -2.35 -72.25 -2.2 -72.05 -2.0 -71.85 -1.8 -71.7 -1.6 -71.25 -1.5 -70.75 -1.5 -70.45 -1.55 -70.25 -1.7 -70.1 -1.85 -70.0 -2.0 -69.95 -1.8 -69.85 -1.6 -69.8 -1.45 -69.75 -1.25 -69.75 -0.85 -69.75 -0.1 -69.75 0.25 -69.75 1.35 -69.7 2.15 -69.5 2.3 -69.3 2.5 -69.15 2.7 -69.05 2.9 -69.0 3.05 -69.0 3.45 -69.0 4.0 -69.0 4.4 -69.0 4.75 -68.85 4.95 -68.7 5.15 -68.25 5.25 -67.85 5.15 -67.65 4.95 -67.45 4.75 -67.35 4.55 -67.25 4.35 -67.15 4.2 -67.05 4.0 -67.0 3.8 -67.0 3.65 -66.85 3.45 -66.7 3.25 -66.45 3.4 -66.1 3.6 -66.0 3.75 -65.9 3.95 -65.8 4.15 -65.75 4.3 -65.75 4.5 -65.65 4.7 -65.55 4.9 -65.5 5.05 -65.5 5.25 -65.35 5.45 -65.2 5.65 -64.75 5.75 -64.5 5.75 -64.2 5.7 -64.0 5.55 -63.85 5.4 -63.8 5.2 -63.8 5.0 -63.8 4.8 -63.9 4.65 -64.0 4.45 -64.15 4.25 -64.25 4.05 -64.3 3.9 -64.35 3.7 -64.45 3.5 -64.5 3.3 -64.5 3.15 -64.6 2.95 -64.7 2.75 -65.05 2.4 -65.45 2.0 -65.85 1.65 -66.25 1.5 -66.75 1.5 -67.2 1.65 -67.35 1.8 -67.45 1.8 -67.5 1.65 -67.5 1.45 -67.55 1.25 -67.7 1.05 -67.85 0.9 -68.25 0.75 -68.25 0.7 -68.25 0.4 -68.25 0.2 -68.25 -0.35 -68.25 -1.1 -68.25 -1.7 -68.3 -1.85 -68.35 -2.05 -68.45 -2.25 -68.5 -2.45 -68.5 -2.8 -68.5 -3.2 -68.5 -3.55 -68.5 -3.75 -68.55 -3.95 -68.65 -4.1 -68.75 -4.3 -68.8 -4.5 -68.95 -4.7 -69.1 -4.85 -69.5 -5.0 -69.75 -5.0 -70.05 -4.9 -70.2 -4.85 -70.3 -4.75 -70.5 -4.55 -70.7 -4.35 -70.75 -4.2 -70.85 -4.0 -70.95 -3.8 -71.1 -3.65 -71.2 -3.55 -71.35 -3.7 -71.5 -3.9 -71.55 -4.05 -71.7 -4.25 -71.9 -4.45 -72.1 -4.6 -72.5 -4.75 -73.25 -4.75 -73.55 -4.7 Q-73.7 -4.6 -73.8 -4.55 L-74.2 -4.35 -74.35 -4.2 -74.55 -4.0 -74.75 -3.8 -75.2 -3.65 -75.5 -3.6 -75.5 -3.7 -75.55 -3.85 -75.6 -4.05 -75.7 -4.25 -75.95 -4.4 -76.3 -4.6 -76.5 -4.8 -76.95 -5.15 -77.75 -5.5 -78.0 -5.5 -78.45 -5.4 -79.0 -5.25 -79.3 -5.2 -79.5 -5.05 -79.75 -4.85 -80.7 -4.7 -81.45 -4.6 -81.5 -4.75 -81.55 -4.95 -81.6 -5.1 -81.75 -5.3 -81.95 -5.5 -82.15 -5.7 -82.35 -5.85 -82.75 -6.0 -83.0 -6.0 -83.0 -5.95 -83.3 -5.95 -83.5 -5.8 -84.0 -5.2 -84.55 -4.5 -84.75 -3.95 -84.7 -3.75 -84.6 -3.55 -84.45 -3.35 -84.0 -3.25 -83.75 -3.25 -83.35 -3.35 -83.15 -3.55 -82.95 -3.75 -82.8 -3.85 -82.7 -3.7 -82.55 -3.5 -82.35 -3.3 -82.2 -3.1 -81.75 -3.0 -80.5 -3.0 -80.1 -3.1 Q-79.95 -3.2 -79.75 -3.25 L-79.45 -3.3 -79.2 -3.45 -78.85 -3.6 -78.5 -3.75 -78.2 -3.8 -77.95 -3.95 -77.6 -3.8 -77.45 -3.6 -77.25 -3.45 -77.05 -3.25 -77.0 -3.05 -76.95 -2.85 -76.75 -2.7 -76.55 -2.5 -76.35 -2.3 -76.2 -2.1 -75.95 -2.05 M-123.7 -2.05 L-127.9 2.1 -111.45 2.1 -115.65 -2.05 -123.7 -2.05 M-55.5 1.35 L-55.55 1.45 -55.6 1.65 -55.7 1.8 -55.75 1.95 -55.85 1.85 -55.95 1.8 -55.5 1.35 M-18.5 -2.05 L-18.3 -2.1 -15.95 -2.2 -15.6 -2.05 -18.5 -2.05 M-164.4 -2.05 L-168.65 2.1 -151.15 2.1 -155.35 -2.05 -164.4 -2.05" fill="#666666" fill-rule="evenodd" stroke="none"/>
    <path d="M3.8 -6.05 L3.9 -6.2 4.05 -6.35 4.25 -6.55 4.45 -6.7 4.75 -6.7 4.75 -6.75 5.15 -6.6 5.4 -6.45 5.45 -6.25 5.55 -6.05 5.65 -5.9 5.75 -5.7 5.8 -5.5 5.9 -5.3 6.0 -5.1 6.0 -4.95 6.0 -4.75 6.0 -4.55 6.0 -4.35 6.05 -4.2 6.15 -4.0 6.2 -3.8 6.25 -3.6 6.25 -3.45 6.25 -3.25 6.25 -3.05 6.3 -3.1 6.4 -3.25 6.5 -3.45 6.5 -3.6 6.5 -3.8 6.5 -4.2 6.5 -4.55 6.55 -4.75 6.65 -4.95 7.0 -5.3 7.2 -5.45 7.5 -5.5 7.9 -5.35 8.05 -5.2 8.2 -5.0 8.25 -4.8 8.25 -4.6 8.25 -4.45 8.25 -4.25 8.25 -4.05 8.3 -3.85 8.4 -3.7 8.45 -3.5 8.5 -3.3 8.5 -3.2 8.7 -3.2 9.0 -3.25 9.4 -3.1 9.55 -2.95 9.7 -2.75 9.75 -2.55 9.75 -2.35 9.85 -2.2 9.95 -2.0 10.0 -1.8 10.0 -1.6 10.0 -1.25 10.0 -0.95 10.2 -0.95 10.5 -1.0 10.75 -1.0 11.15 -0.85 11.3 -0.7 11.45 -0.5 11.5 -0.3 11.5 -0.1 11.5 0.05 11.5 0.25 11.5 0.45 11.55 0.65 11.65 0.8 11.7 1.0 11.75 1.2 11.75 1.4 11.9 1.3 12.05 1.15 12.25 0.95 12.45 0.8 12.75 0.75 13.15 0.9 13.35 1.05 13.55 1.25 13.65 1.45 13.75 1.65 13.75 1.8 13.75 2.0 13.75 2.2 13.8 2.4 13.9 2.55 13.95 2.75 14.05 2.95 14.15 3.1 14.25 3.3 14.45 3.35 14.8 3.25 15.15 3.05 15.3 2.9 15.75 2.75 16.15 2.9 16.3 3.05 16.45 3.25 16.5 3.45 16.5 3.6 16.4 3.8 16.3 4.0 16.1 4.15 15.55 4.6 15.2 4.9 15.05 4.95 14.75 5.0 14.0 5.0 13.55 4.9 13.2 4.5 12.9 3.95 12.55 3.55 12.5 3.75 12.45 3.95 12.4 4.15 12.25 4.3 12.05 4.45 11.75 4.5 11.5 4.5 11.05 4.4 10.9 4.2 10.7 4.0 10.55 3.8 10.5 3.6 10.5 3.45 10.4 3.25 10.2 3.4 10.0 3.55 9.8 3.7 9.5 3.75 9.05 3.65 8.9 3.45 8.7 3.25 8.55 3.05 8.5 2.7 8.5 2.15 8.5 2.1 8.5 1.9 8.5 1.55 8.5 1.2 8.45 1.15 8.3 1.2 8.0 1.25 7.8 1.2 7.55 1.15 7.4 0.95 7.2 0.75 7.05 0.55 7.05 0.5 7.0 0.35 7.0 0.0 7.0 -0.35 7.0 -0.75 6.95 -0.8 6.75 -0.7 6.55 -0.55 6.25 -0.5 6.05 -0.5 6.0 -0.5 5.55 -0.6 5.4 -0.8 5.25 -1.0 5.2 -1.2 5.05 -1.35 5.05 -1.45 5.0 -1.55 4.95 -1.75 4.9 -1.95 4.8 -2.1 4.75 -2.3 4.75 -2.5 4.75 -2.7 4.75 -3.05 4.7 -3.45 4.65 -3.5 4.35 -3.2 4.05 -2.8 3.9 -2.6 3.5 -2.5 3.05 -2.6 2.9 -2.8 2.75 -3.0 2.75 -3.2 2.75 -3.55 2.75 -3.95 2.75 -4.3 2.8 -4.5 3.1 -4.85 3.5 -5.25 3.65 -5.45 3.7 -5.6 3.75 -5.8 3.75 -6.0 3.8 -6.05 M118.75 -6.05 L118.95 -6.2 119.25 -6.2 119.25 -6.25 119.65 -6.1 119.75 -6.05 119.85 -5.95 120.05 -5.75 120.15 -5.55 120.25 -5.35 120.35 -5.2 120.55 -4.8 120.65 -4.6 120.7 -4.45 120.75 -4.25 120.75 -4.05 120.8 -3.95 120.85 -4.0 121.0 -4.2 121.15 -4.35 121.25 -4.55 121.25 -4.75 121.25 -4.95 121.3 -5.1 121.5 -5.5 122.0 -6.05 122.2 -6.2 122.5 -6.25 122.75 -6.25 123.15 -6.1 123.25 -6.05 123.35 -5.95 123.55 -5.75 123.65 -5.55 123.75 -5.35 123.75 -5.3 123.9 -5.45 124.05 -5.6 124.5 -5.75 124.75 -5.75 125.15 -5.6 125.35 -5.45 125.55 -5.25 125.65 -5.05 125.75 -4.85 125.75 -4.7 125.8 -4.5 125.95 -4.3 126.0 -4.1 126.15 -4.05 126.5 -4.0 126.75 -4.0 127.15 -3.85 127.35 -3.7 127.55 -3.5 127.65 -3.3 127.75 -3.1 127.75 -2.95 127.8 -2.75 127.9 -2.55 128.0 -2.35 128.05 -2.2 128.3 -2.0 128.4 -1.8 128.5 -1.6 128.5 -1.45 128.5 -1.25 128.5 -1.05 128.5 -0.85 128.5 -0.7 128.55 -0.55 128.75 -0.35 129.15 -0.1 129.3 -0.15 129.5 -0.3 129.7 -0.5 129.8 -0.6 129.95 -0.65 130.25 -0.75 130.65 -0.6 130.8 -0.45 130.95 -0.25 131.1 0.15 131.2 0.3 131.25 0.4 131.5 0.5 131.9 0.65 132.05 0.8 132.2 1.0 132.25 1.2 132.25 1.4 132.25 1.55 132.35 1.75 132.45 1.95 132.5 2.1 132.7 2.5 132.75 2.7 132.8 2.8 133.05 2.9 133.5 2.75 133.9 2.9 134.05 3.05 134.2 3.25 134.25 3.45 134.25 3.6 134.15 3.8 134.05 4.0 133.8 4.15 133.45 4.35 133.0 4.5 132.25 4.5 131.8 4.4 131.65 4.2 131.5 4.0 131.45 3.8 131.3 3.5 131.25 3.5 131.0 3.5 130.55 3.4 130.4 3.2 130.25 3.0 130.15 2.95 129.75 3.0 129.25 3.0 128.8 2.9 128.65 2.7 128.5 2.5 128.5 2.3 128.45 2.15 128.4 1.95 128.25 1.9 128.05 1.95 127.75 2.0 127.65 2.0 127.3 1.9 127.15 1.7 127.0 1.5 127.0 1.35 127.0 1.3 127.0 0.95 127.0 0.55 127.0 0.2 127.0 0.0 126.95 -0.2 126.8 -0.35 126.75 -0.55 126.75 -0.75 126.75 -0.95 126.75 -1.1 126.75 -1.3 126.65 -1.5 126.55 -1.7 126.5 -1.9 126.5 -1.95 126.25 -2.0 126.0 -2.0 125.55 -2.1 125.4 -2.3 125.2 -2.5 124.85 -2.9 124.75 -3.05 124.7 -3.1 124.55 -3.1 123.5 -3.0 123.05 -3.1 122.9 -3.3 122.8 -3.5 122.75 -3.7 Q122.65 -4.05 122.4 -3.6 L121.85 -2.65 121.4 -2.05 121.15 -1.85 120.75 -1.75 120.3 -1.85 120.2 -2.05 120.15 -2.1 119.9 -2.4 119.55 -3.0 119.45 -3.2 119.25 -3.15 119.05 -3.0 118.85 -2.8 118.65 -2.6 118.25 -2.5 118.0 -2.5 117.55 -2.6 117.4 -2.8 117.25 -3.0 117.2 -3.2 117.05 -3.35 117.0 -3.55 116.95 -3.75 116.8 -3.95 116.75 -4.15 116.75 -4.3 116.75 -4.5 116.75 -4.7 116.85 -4.85 117.0 -5.05 117.2 -5.2 117.5 -5.25 117.9 -5.1 118.15 -4.95 118.2 -4.95 118.35 -5.1 118.45 -5.3 118.5 -5.5 118.5 -5.7 118.6 -5.85 118.75 -6.05 M-102.3 6.1 L-102.45 6.2 -102.75 6.25 -103.25 6.25 -103.65 6.1 -103.8 6.0 -104.25 6.0 -104.7 5.9 -104.85 5.7 -105.05 5.5 -105.2 5.3 -105.25 4.95 -105.25 4.4 -105.25 3.8 -105.25 3.45 -105.35 3.45 -105.6 3.8 -105.8 4.2 -106.0 4.55 -106.2 4.7 -106.5 4.75 -106.75 4.75 -107.2 4.65 -107.35 4.45 -107.55 4.25 -107.7 4.05 -107.75 3.85 -107.75 3.7 -107.75 3.3 -107.75 3.15 -107.75 2.95 -107.8 2.75 -107.85 2.55 -107.95 2.4 -108.0 2.2 -108.0 1.8 -108.0 1.25 -108.0 0.7 -108.05 0.3 -108.2 0.35 -108.3 0.5 -108.45 0.7 -108.6 0.9 -108.95 1.05 -109.2 1.45 -109.7 2.0 -110.1 2.4 -110.5 2.5 -110.75 2.5 -111.2 2.4 -111.35 2.2 -111.5 2.0 -111.5 1.65 -111.5 1.05 -111.5 0.5 -111.5 0.3 -111.45 0.15 -111.35 -0.05 -111.3 -0.25 -111.25 -0.45 -111.25 -0.6 -111.25 -0.8 -111.25 -1.0 -111.25 -1.2 -111.2 -1.35 -111.1 -1.55 -111.05 -1.75 -111.0 -1.95 -110.95 -2.1 -110.75 -2.5 -110.45 -2.8 -110.75 -2.75 -111.25 -2.75 -111.7 -2.85 -111.9 -3.0 -112.05 -3.05 -112.15 -2.9 -112.25 -2.7 -112.45 -2.5 -112.55 -2.35 -112.7 -2.3 -113.0 -2.25 -113.25 -2.25 -113.7 -2.35 -113.85 -2.55 -114.05 -2.75 -114.15 -2.95 -114.25 -3.1 -114.25 -3.3 -114.35 -3.45 -114.35 -3.35 -114.5 -3.2 -114.95 -2.85 -115.75 -2.5 -116.2 -2.6 -116.35 -2.8 -116.55 -3.0 -116.75 -3.2 -116.95 -3.35 -116.95 -3.45 -117.25 -3.45 -117.45 -3.25 -117.55 -3.1 -117.7 -3.05 -118.0 -3.0 -119.0 -3.0 -119.45 -3.1 -119.85 -3.1 -120.25 -3.0 -121.25 -3.0 -121.7 -3.1 -121.85 -3.3 -122.05 -3.5 -122.15 -3.7 -122.25 -3.85 -122.35 -4.05 -122.45 -4.05 -122.55 -3.9 -122.6 -3.7 -122.7 -3.5 -122.9 -3.3 -123.1 -3.1 -123.5 -3.0 -124.25 -3.0 -124.7 -3.1 -124.85 -3.3 -125.05 -3.5 -125.3 -3.9 -125.5 -4.25 -125.5 -4.45 -125.5 -4.6 -125.5 -4.8 -125.45 -5.0 -125.35 -5.2 -125.2 -5.35 -124.75 -5.5 -124.35 -5.35 -124.2 -5.2 -124.05 -5.0 -124.0 -4.8 -123.95 -4.85 -123.8 -5.0 -123.6 -5.2 -123.45 -5.35 -123.05 -5.7 -122.75 -5.7 -122.75 -5.75 -122.25 -5.75 -121.85 -5.6 -121.7 -5.5 -121.35 -5.35 -121.2 -5.2 -121.05 -5.0 -121.0 -4.8 -120.8 -4.6 -120.45 -4.6 -120.0 -4.75 -119.25 -4.75 -118.85 -4.6 -118.2 -4.6 -118.0 -4.8 -117.8 -5.0 -117.7 -5.1 -117.55 -5.15 -117.25 -5.25 -116.5 -5.25 -116.1 -5.1 -115.95 -4.95 -115.8 -4.75 -115.75 -4.55 -115.6 -4.45 -115.5 -4.5 -115.2 -4.9 -115.0 -5.25 -114.7 -5.6 -114.25 -5.75 -113.75 -5.75 -113.35 -5.6 -113.15 -5.45 -112.95 -5.25 -112.85 -5.05 -112.75 -5.0 -112.55 -5.0 -112.45 -5.1 -112.3 -5.15 -112.0 -5.25 -111.75 -5.25 -111.35 -5.1 -111.2 -4.95 -111.05 -4.75 -111.0 -4.55 -110.85 -4.45 -110.8 -4.45 -110.5 -4.5 -110.2 -4.6 -110.0 -4.8 -109.8 -4.95 -109.5 -5.0 -108.75 -5.0 -108.35 -4.85 -108.15 -4.7 -107.95 -4.5 -107.8 -4.35 -107.65 -4.45 -107.45 -4.6 -107.0 -4.8 -106.8 -4.95 -106.5 -5.0 -106.1 -4.85 -104.25 -4.75 -103.85 -4.6 -102.7 -4.6 -102.5 -4.8 -102.3 -4.95 -102.0 -4.95 -100.75 -5.0 -98.25 -4.4 -96.5 -4.25 -96.1 -4.1 -95.95 -3.95 -95.8 -3.75 -95.75 -3.55 -95.8 -3.4 -95.85 -3.2 -95.95 -3.0 -96.05 -2.85 -96.2 -2.85 -98.0 -2.75 -99.95 -3.15 -100.7 -3.35 -101.6 -3.35 -102.0 -3.2 -102.2 -3.05 -102.5 -3.05 -104.0 -3.0 -106.75 -3.2 -106.95 -3.0 -107.15 -2.8 -107.35 -2.6 -107.75 -2.5 -108.25 -2.5 -108.2 -2.45 -108.05 -2.25 -108.0 -2.05 -108.0 -1.9 -108.05 -1.7 -108.05 -1.5 Q-107.55 -1.3 -107.15 -0.9 L-106.65 -0.2 -106.55 0.0 -106.5 0.4 -106.5 0.95 -106.5 1.5 -106.5 1.85 -106.45 2.05 -106.35 2.15 -106.3 2.1 -106.1 1.75 -106.0 1.55 -105.95 1.4 -105.75 1.2 -105.55 1.05 -105.25 1.0 -104.85 1.0 -104.75 1.0 -104.35 1.15 -104.2 1.3 -104.05 1.5 -104.0 1.7 -104.0 1.85 -104.0 1.9 -104.0 2.05 -104.0 2.25 -104.0 2.45 -103.95 2.65 -103.85 2.8 -103.8 3.0 -103.75 3.2 -103.75 3.4 -103.75 3.55 -103.75 3.75 -103.75 3.95 -103.75 4.15 -103.7 4.2 -103.35 4.4 -103.2 4.5 -102.95 4.55 -102.8 4.55 -102.3 4.3 -101.8 4.05 -100.5 4.0 -100.1 4.0 -100.05 3.85 -100.0 3.7 -100.0 3.5 -99.85 3.3 -99.8 3.15 -99.75 2.95 -99.75 2.75 -99.6 2.55 -99.45 2.4 -99.0 2.25 -98.5 2.2 -98.4 2.1 -98.35 2.05 -98.2 1.9 -97.75 1.75 -97.25 1.75 -96.95 1.8 -96.8 1.8 -96.5 1.75 -96.0 1.75 -95.7 1.85 -95.6 1.9 -95.45 2.05 -95.3 2.25 -95.25 2.45 -95.05 2.6 -94.95 2.7 -94.65 1.8 -94.4 0.85 -94.3 0.45 -94.0 -0.45 -94.0 -0.6 -94.0 -0.8 -94.0 -1.0 -94.0 -1.2 -93.9 -1.35 -93.75 -1.55 -93.55 -1.7 -93.25 -1.75 -92.85 -1.6 -92.7 -1.45 -92.55 -1.25 -92.45 -1.1 -92.35 -1.05 -92.3 -1.25 -92.25 -1.45 -92.2 -1.6 -92.05 -1.8 -92.0 -2.0 -91.95 -2.05 -91.85 -2.2 -91.8 -2.35 -91.75 -2.55 -91.75 -2.75 -91.6 -2.95 -91.45 -3.1 -91.0 -3.25 -90.75 -3.25 -90.35 -3.1 -90.1 -2.95 -90.05 -2.75 -89.95 -2.55 -89.85 -2.35 -89.8 -2.2 -89.75 -2.0 -89.75 -1.8 -89.75 -1.6 -89.7 -1.45 -89.6 -1.25 -89.55 -1.05 -89.5 -0.85 -89.5 -0.7 -89.5 -0.5 -89.4 -0.3 -89.3 -0.1 -88.95 -0.1 -88.8 -0.3 -88.6 -0.7 -88.45 -1.05 -88.25 -1.45 -88.2 -1.6 -88.1 -1.8 -88.05 -2.0 -88.0 -2.2 -87.95 -2.35 -87.75 -2.75 -87.4 -3.3 -86.95 -3.85 -86.5 -3.95 -86.5 -4.0 -86.1 -3.85 -85.95 -3.7 -85.8 -3.5 -85.75 -3.3 -85.55 -3.1 -85.45 -2.95 -85.3 -2.75 -85.2 -2.6 -84.85 -2.35 -84.7 -2.2 -84.55 -2.0 -84.5 -1.8 -84.55 -1.65 -84.55 -1.45 -84.6 -1.45 -84.7 -1.25 -84.8 -1.1 -84.95 -1.05 -85.0 -1.05 -85.25 -1.0 -85.75 -1.0 -86.2 -1.1 -86.35 -1.3 -86.5 -1.5 -86.55 -1.7 -86.6 -1.55 -86.7 -1.35 -86.75 -1.2 -86.8 -1.0 -86.85 -0.8 -87.25 -0.05 -87.7 0.7 -88.3 1.4 -88.45 1.4 -89.5 1.5 -89.95 1.4 -90.1 1.2 -90.3 1.0 -90.7 0.65 -90.75 0.45 -90.85 0.25 -90.95 0.1 -91.0 0.05 -91.05 0.6 -91.2 1.4 -91.4 1.95 -91.55 2.5 -91.65 2.7 -91.75 2.85 -91.95 3.25 -92.05 3.4 -92.2 3.45 -92.5 3.5 -92.75 3.5 -93.2 3.4 -93.35 3.2 -93.5 3.3 -93.55 3.5 -93.7 3.9 -93.75 4.05 -93.8 4.25 -93.9 4.45 -94.0 4.6 -94.2 5.0 -94.3 5.15 -94.45 5.2 -94.75 5.25 -95.0 5.25 -95.45 5.15 -95.6 4.95 -95.8 4.75 -95.95 4.55 -96.0 4.35 -96.0 4.2 -96.1 4.0 -96.2 3.8 -96.25 3.65 -96.35 3.45 -96.75 3.5 -97.45 3.5 -97.65 3.7 -97.85 3.9 -98.25 4.0 -98.5 4.15 -98.65 4.5 -99.0 5.05 -99.6 5.65 -100.0 5.75 -100.25 5.75 -100.7 5.65 -101.35 5.65 -101.75 5.8 -102.25 6.05 -102.3 6.1 M-188.3 6.1 L-188.45 6.2 -188.75 6.25 -189.2 6.15 -189.25 6.1 -189.35 5.95 -189.5 5.75 -189.5 5.55 -189.5 5.4 -189.5 5.2 -189.5 5.0 -189.55 4.85 -189.95 4.65 -190.1 4.45 -190.25 4.25 -190.25 3.5 -190.25 2.4 -190.25 1.45 -190.25 1.25 -190.3 1.1 Q-190.45 0.95 -190.7 0.9 L-190.85 0.7 -191.0 0.5 -191.0 -0.05 -191.0 -0.8 -191.0 -1.55 -191.0 -1.75 -191.05 -1.95 -191.2 -2.1 -191.35 -2.3 -191.5 -2.5 -191.5 -2.7 -191.5 -2.85 -191.5 -3.05 -191.5 -3.25 -191.5 -3.45 -191.4 -3.6 -191.25 -3.8 -191.05 -3.95 -190.75 -3.95 -190.75 -4.0 -190.5 -4.0 -190.1 -3.85 -189.95 -3.7 -189.8 -3.5 -189.75 -3.3 -189.75 -3.1 -189.6 -2.95 -189.55 -2.75 -189.5 -2.55 -189.5 -2.35 -189.4 -2.2 -189.2 -2.0 -188.9 -1.6 -188.8 -1.45 -188.75 -1.25 -188.75 -1.05 -188.75 -0.7 -188.75 -0.3 -188.75 -0.1 -188.7 -0.05 -188.35 0.15 -188.2 0.3 -188.05 0.5 -188.0 0.7 -188.0 0.9 -188.0 1.25 -188.0 1.8 -188.0 2.0 -187.95 2.05 -187.75 1.95 -187.55 1.8 -187.25 1.75 -186.85 1.9 -186.6 2.3 -186.3 2.85 -185.85 3.55 -185.8 3.75 -185.75 3.95 -185.7 4.15 -185.55 4.15 -185.4 4.05 -185.3 3.9 -185.25 3.7 -185.25 3.5 -185.25 3.3 -185.15 3.15 -185.0 2.95 -184.8 2.8 -184.5 2.75 -184.1 2.9 -183.9 3.05 -183.7 3.25 -183.6 3.45 -183.55 3.65 -183.5 3.8 -183.5 3.95 -183.25 4.0 -183.0 4.0 -182.6 4.15 -182.45 4.3 -182.3 4.5 -182.25 4.7 -182.3 4.85 -182.35 5.05 -182.45 5.25 -182.55 5.4 -182.7 5.45 -183.0 5.6 -183.2 5.7 -183.5 5.75 -183.75 5.75 -184.2 5.65 -184.45 5.45 -184.6 5.6 -184.7 5.75 -184.8 5.85 -184.95 5.9 -186.0 6.0 -186.45 5.9 -186.6 5.7 -186.75 5.5 -186.8 5.3 -186.95 5.15 -187.0 4.95 -187.05 4.75 -187.1 4.55 -187.2 4.4 -187.35 4.4 -187.45 4.55 -187.55 4.75 -187.75 5.15 -187.75 5.3 -187.8 5.5 -187.95 5.7 -188.05 5.85 -188.25 6.05 -188.3 6.1 M-46.5 -6.05 L-46.45 -6.1 -46.3 -6.15 -46.0 -6.25 -45.6 -6.1 -45.55 -6.05 -45.45 -5.95 -45.3 -5.75 -45.25 -5.55 -45.25 -5.2 -45.25 -4.8 -45.25 -4.45 -45.25 -4.3 -45.2 -4.4 -45.05 -4.55 -45.0 -4.75 -44.85 -4.95 -44.7 -5.1 -44.25 -5.25 -44.0 -5.25 -43.6 -5.1 -43.45 -4.95 -43.3 -4.75 -43.2 -4.7 -42.75 -4.8 -42.55 -5.0 -42.45 -5.1 -42.3 -5.15 -42.0 -5.2 -41.1 -5.2 -40.9 -5.45 -40.6 -6.05 -40.55 -6.2 -40.1 -6.9 -39.95 -7.1 -39.5 -7.2 -39.5 -7.25 -39.1 -7.1 -38.9 -6.95 -38.7 -6.75 -38.6 -6.55 -38.5 -6.35 -38.4 -6.2 -38.3 -6.05 -38.3 -6.0 -38.25 -5.8 -38.25 -5.6 -38.25 -5.45 -38.25 -5.25 -38.2 -5.05 -38.1 -4.85 -37.85 -4.7 -37.75 -4.6 -36.75 -4.5 -36.35 -4.35 -36.2 -4.2 -36.05 -4.0 -36.0 -3.85 -35.75 -3.75 -35.35 -3.75 -35.2 -3.85 -34.75 -4.0 -34.0 -4.1 -33.9 -4.3 -33.8 -4.5 -33.6 -4.7 -33.45 -4.85 -33.0 -5.0 -32.75 -5.0 -32.35 -4.85 -32.2 -4.9 -32.05 -5.05 -32.0 -5.25 -31.7 -5.6 -31.25 -5.75 -31.0 -5.75 -30.6 -5.6 -30.45 -5.45 -30.3 -5.25 -30.25 -5.05 -30.25 -4.85 -30.25 -4.5 -30.25 -4.1 -30.25 -3.95 -30.15 -3.85 -29.95 -3.85 -29.75 -4.05 -29.55 -4.2 -29.25 -4.25 -28.7 -4.35 -28.5 -4.55 -28.3 -4.7 -28.0 -4.7 -26.85 -4.7 -26.75 -4.75 -26.6 -4.95 -26.25 -5.3 -25.95 -5.6 -25.8 -5.65 -25.5 -5.75 -25.1 -5.6 -24.9 -5.45 -24.7 -5.25 -24.6 -5.05 -24.55 -4.85 -24.5 -4.7 -24.4 -4.6 -24.2 -4.6 -24.0 -4.8 -23.8 -4.95 -23.5 -5.0 -23.25 -5.0 -22.85 -4.85 -22.7 -4.7 -22.55 -4.5 -22.5 -4.3 -22.3 -4.15 -22.1 -4.0 -21.75 -4.0 -21.0 -4.0 -20.6 -3.85 -20.45 -3.75 -20.1 -3.6 -18.7 -3.6 -18.25 -3.75 -16.0 -3.75 -15.0 -3.4 -14.25 -3.05 -14.15 -2.85 -14.05 -2.7 -14.05 -2.5 -14.05 -2.3 -14.1 -2.1 -14.15 -2.05 -14.25 -1.95 -14.45 -1.8 -14.75 -1.75 -15.2 -1.9 -15.6 -2.05 -15.95 -2.2 -18.3 -2.1 -18.5 -2.05 -18.75 -2.0 -20.25 -2.0 -20.4 -2.05 -20.7 -2.15 -21.0 -2.25 -21.45 -2.35 -21.7 -2.3 -22.0 -2.25 -22.5 -2.25 -22.95 -2.35 -23.1 -2.55 -23.3 -2.75 -23.45 -2.9 -23.55 -2.85 -23.7 -2.8 -24.0 -2.75 -24.5 -2.75 -24.9 -2.9 -25.05 -2.95 -25.45 -3.1 -25.6 -3.3 -25.75 -3.35 -25.95 -3.25 -26.05 -3.1 -26.2 -3.05 -26.5 -3.0 -27.0 -3.0 -27.45 -3.1 -27.7 -3.05 -28.0 -2.9 -28.2 -2.8 -28.5 -2.75 -28.8 -2.6 -29.0 -2.45 -29.2 -2.25 -29.6 -1.85 -30.0 -1.75 -30.5 -1.75 -30.95 -1.85 -31.1 -2.05 -31.25 -2.25 -31.35 -2.1 -31.5 -1.95 -31.7 -1.8 -32.0 -1.75 -32.5 -1.75 -32.95 -1.85 -33.1 -2.05 -33.3 -2.25 -33.45 -2.45 -33.75 -2.5 -34.25 -2.35 -34.35 -2.2 -34.45 -2.0 -34.55 -1.85 -34.7 -1.8 -35.0 -1.75 -35.25 -1.75 -35.7 -1.85 -35.85 -2.05 -36.0 -2.15 -36.5 -2.25 -36.95 -2.35 -37.1 -2.55 -37.25 -2.75 -37.25 -2.85 -38.0 -3.05 -38.95 -3.35 -39.1 -3.55 -39.3 -3.75 -39.5 -3.95 -39.7 -4.1 -39.8 -4.2 -39.95 -4.05 -40.25 -3.7 -40.55 -3.35 -40.7 -3.3 -41.0 -3.25 -41.25 -3.25 -41.7 -3.4 -41.95 -3.5 -42.15 -3.3 -42.35 -3.1 -42.75 -3.0 -43.75 -3.0 -43.95 -2.9 -44.05 -2.75 -44.15 -2.55 -44.25 -2.35 -44.45 -2.0 -44.5 -1.8 -44.6 -1.6 -44.7 -1.45 -44.75 -1.25 -44.8 -1.05 -44.85 -0.85 -45.0 -0.7 -45.2 -0.5 -45.3 -0.35 -45.45 -0.3 -45.75 -0.25 -46.05 -0.3 -46.2 -0.35 -46.35 -0.55 -46.55 -0.75 -46.7 -0.9 -46.8 -0.95 -46.85 -0.75 -46.95 -0.55 -47.0 -0.35 -47.0 -0.2 -47.1 0.0 -47.3 0.35 -47.95 0.9 -48.0 1.0 -48.0 1.2 -48.05 1.35 -48.1 1.55 -48.2 1.75 -48.4 1.95 -48.6 2.15 -49.0 2.25 -49.45 2.15 -49.55 2.25 -49.7 2.65 -49.85 3.2 -50.0 3.55 -50.0 3.75 -50.0 3.95 -50.05 4.1 -50.1 4.3 -50.2 4.5 -50.35 4.7 -50.55 4.9 -50.75 5.05 -50.95 5.2 -51.25 5.25 -51.7 5.1 -51.95 5.0 -52.1 5.2 -52.3 5.4 -52.5 5.55 -52.7 5.7 -53.0 5.75 -53.25 5.75 -53.7 5.65 -53.85 5.45 -54.05 5.25 -54.2 5.05 -54.25 4.85 -54.25 4.7 -54.25 4.5 -54.3 4.3 -54.35 4.15 -54.45 3.95 -54.55 3.8 -54.6 4.0 -54.7 4.2 -54.75 4.4 -54.75 4.55 -54.8 4.75 -54.95 4.95 -55.15 5.3 -55.3 5.65 -55.45 5.7 -55.75 5.75 -56.2 5.65 -56.35 5.45 -56.55 5.25 -56.75 5.05 -56.95 4.9 -57.0 4.7 -57.0 4.5 -57.0 4.3 -57.0 4.15 -57.0 3.95 -57.15 4.05 -57.45 4.6 -57.85 5.15 -58.25 5.25 -58.75 5.25 -59.2 5.15 -59.35 4.95 -59.55 4.75 -59.9 4.35 -60.0 4.2 -60.0 4.1 -60.3 4.15 -60.5 4.3 -60.7 4.45 -61.0 4.5 -61.5 4.5 -61.95 4.4 -62.1 4.2 -62.25 4.0 -62.25 3.8 -62.25 3.65 -62.25 3.45 -62.2 3.25 -61.95 2.9 -61.55 2.5 -61.45 2.4 -61.3 2.35 -61.0 2.25 -60.6 2.35 -59.35 2.65 -59.15 2.8 -58.95 3.0 -58.75 3.2 -58.6 3.3 -58.5 3.25 -58.4 3.05 -58.3 2.9 -58.25 2.7 -58.25 2.5 -58.25 2.3 -58.2 2.15 -58.15 2.1 -58.0 1.75 -57.5 1.2 -57.3 1.05 -57.0 1.0 -56.6 1.15 -56.4 1.3 -56.2 1.5 -55.95 1.8 -55.85 1.85 -55.75 1.95 -55.7 1.8 -55.6 1.65 -55.55 1.45 -55.5 1.35 -55.5 1.25 -55.35 1.05 -55.25 0.85 -55.15 0.7 -54.95 0.4 -54.8 0.35 -54.5 0.25 -54.4 0.25 -54.25 0.25 -53.85 0.4 -53.7 0.55 -53.55 0.75 -53.4 1.15 -53.3 1.3 -53.25 1.5 -53.25 1.9 -53.25 2.45 -53.2 2.8 -53.1 2.9 -53.1 2.85 -52.95 2.5 -52.8 2.15 -52.75 1.95 -52.75 1.55 -52.75 1.0 -52.75 0.45 -52.75 0.05 -52.65 -0.1 -52.5 -0.3 -52.3 -0.45 -52.0 -0.5 -51.75 -0.5 -51.35 -0.35 -51.2 -0.2 -51.05 0.0 -51.0 0.2 -51.0 0.4 -50.95 0.2 -50.8 -0.4 -50.65 -0.95 -50.5 -1.3 -50.5 -1.5 -50.5 -1.7 -50.4 -1.85 -50.25 -2.05 -50.05 -2.25 -49.95 -2.35 -49.8 -2.4 -49.5 -2.5 -49.1 -2.4 -48.95 -2.35 -48.9 -2.55 -48.85 -2.75 -48.8 -2.95 -48.75 -3.1 -48.75 -3.3 -48.75 -3.5 -48.75 -3.7 -48.75 -3.85 -48.75 -4.05 -48.7 -4.25 -48.6 -4.45 -48.55 -4.6 -48.5 -4.8 -48.5 -5.0 -48.5 -5.2 -48.4 -5.35 -48.25 -5.55 -48.05 -5.7 -47.75 -5.75 -47.35 -5.6 -47.2 -5.45 -47.05 -5.5 -46.9 -5.6 -46.75 -5.8 -46.5 -6.05 M24.7 1.55 L24.9 1.65 25.05 1.8 25.2 2.0 25.25 2.2 25.35 2.35 25.4 2.45 25.45 2.3 25.5 2.15 25.5 1.95 25.55 1.75 25.65 1.55 25.8 1.4 26.25 1.25 27.0 1.25 27.4 1.4 27.65 1.55 27.8 1.65 27.85 1.5 27.95 1.3 28.0 1.15 28.0 0.95 28.0 0.75 28.0 0.55 28.0 0.4 28.0 0.2 28.0 0.0 28.05 -0.2 28.1 -0.4 28.15 -0.55 28.2 -0.75 28.3 -1.1 28.45 -1.3 28.5 -1.5 28.5 -1.7 28.6 -1.85 28.75 -2.05 28.95 -2.2 29.25 -2.25 29.5 -2.25 29.9 -2.1 30.05 -1.95 30.2 -1.8 30.3 -2.25 30.4 -3.0 30.55 -3.55 30.7 -4.1 30.8 -4.3 30.95 -4.5 31.3 -4.85 31.7 -5.2 32.0 -5.25 32.25 -5.25 32.65 -5.1 33.0 -4.7 33.35 -4.2 33.65 -3.65 33.75 -3.5 33.85 -3.6 33.95 -3.75 34.0 -3.95 34.05 -4.1 34.2 -4.3 34.25 -4.5 34.25 -4.7 34.25 -4.85 34.25 -5.05 34.25 -5.25 34.25 -5.45 34.35 -5.6 34.5 -5.8 34.7 -5.95 35.0 -5.95 35.0 -6.0 35.25 -6.0 35.65 -5.85 35.85 -5.7 36.05 -5.5 36.25 -5.3 36.4 -5.1 36.55 -5.15 36.75 -5.3 36.95 -5.5 37.15 -5.7 37.3 -5.85 37.75 -6.0 38.0 -6.0 38.4 -5.85 38.6 -5.7 38.8 -5.5 39.0 -5.3 39.1 -5.1 39.2 -4.95 39.2 -4.75 39.2 -4.55 39.15 -4.35 39.0 -4.2 38.8 -4.05 38.5 -4.0 38.05 -4.15 37.8 -4.25 37.65 -4.05 37.5 -3.85 37.5 -3.7 37.45 -3.5 37.3 -3.3 37.15 -3.1 36.75 -2.95 36.55 -2.8 36.25 -2.75 35.8 -2.85 35.65 -3.05 35.5 -3.25 35.45 -3.45 35.4 -3.3 35.3 -3.1 35.25 -2.95 35.15 -2.55 35.0 -2.2 35.0 -2.0 35.0 -1.8 35.0 -1.65 34.9 -1.45 34.8 -1.25 34.6 -1.05 34.4 -0.85 34.0 -0.75 33.75 -0.75 33.3 -0.85 33.15 -1.05 32.95 -1.25 32.8 -1.45 32.75 -1.65 32.75 -1.8 32.75 -2.0 32.7 -2.2 32.55 -2.4 32.4 -2.75 32.2 -3.15 32.15 -3.3 31.85 -2.65 31.75 -1.7 31.75 -0.95 31.5 -0.2 31.5 0.0 31.5 0.2 31.5 0.4 31.5 0.55 31.5 0.75 31.5 0.95 31.4 1.15 31.3 1.3 31.25 1.5 31.25 1.7 31.25 1.9 31.15 2.05 31.05 2.25 30.95 2.4 30.8 2.45 30.5 2.5 30.25 2.5 29.8 2.4 29.65 2.2 29.55 2.0 29.5 1.8 29.45 1.7 29.45 1.75 29.4 1.95 29.3 2.15 29.25 2.3 29.25 2.7 29.25 3.05 29.25 3.65 29.25 4.0 29.2 4.2 29.1 4.35 29.0 4.55 28.8 4.7 28.5 4.75 28.25 4.75 27.8 4.65 27.45 4.25 27.25 3.9 27.0 3.5 26.95 3.3 26.75 3.2 26.65 3.4 26.55 3.55 26.5 3.75 26.5 3.95 26.5 4.15 26.4 4.3 26.3 4.5 26.15 4.7 25.95 4.9 25.75 5.05 25.55 5.2 25.25 5.25 25.0 5.25 24.55 5.15 24.4 4.95 24.25 4.75 24.25 4.55 24.25 4.4 24.15 4.2 24.0 4.0 24.0 3.8 24.0 3.65 24.0 3.45 23.95 3.25 23.9 3.05 23.85 2.9 23.8 2.7 23.75 2.5 23.75 2.3 23.75 2.15 23.8 2.1 23.85 1.95 23.95 1.75 24.05 1.65 24.2 1.6 24.5 1.5 24.7 1.55 M43.8 -2.05 L43.75 -2.15 43.75 -2.3 43.75 -2.5 43.7 -2.7 43.55 -2.85 43.55 -2.95 43.25 -3.0 42.8 -3.1 42.65 -3.3 42.55 -3.5 42.5 -3.7 42.5 -3.85 42.55 -4.05 42.65 -4.25 42.75 -4.45 42.75 -4.6 42.8 -4.8 42.95 -5.0 43.05 -5.1 43.2 -5.15 43.5 -5.25 43.75 -5.25 44.15 -5.1 44.35 -4.95 44.55 -4.75 44.65 -4.55 44.75 -4.35 44.75 -4.2 44.75 -4.0 44.8 -3.8 44.95 -3.7 45.0 -3.75 45.0 -3.95 45.0 -4.1 45.0 -4.3 45.0 -4.5 45.0 -4.7 45.0 -4.85 45.1 -5.05 45.2 -5.25 45.3 -5.35 45.45 -5.4 45.75 -5.45 45.75 -5.5 46.15 -5.35 46.35 -5.2 46.55 -5.0 46.65 -4.8 46.75 -4.6 46.75 -4.45 46.75 -4.25 46.8 -4.05 47.0 -4.1 47.2 -4.2 47.5 -4.25 47.9 -4.1 48.05 -3.95 48.2 -3.75 48.25 -3.55 48.3 -3.5 48.45 -3.45 48.75 -3.5 49.15 -3.35 49.35 -3.2 49.55 -3.0 49.65 -2.8 49.75 -2.6 49.75 -2.45 49.8 -2.25 49.9 -2.05 50.0 -1.85 50.0 -1.7 50.0 -1.5 50.0 -1.3 50.05 -1.1 50.15 -0.95 50.2 -0.75 50.3 -0.7 50.75 -0.75 51.15 -0.6 51.4 -0.25 51.7 0.35 52.15 1.05 52.2 1.25 52.25 1.45 52.25 1.65 52.4 1.8 52.5 1.95 52.55 2.0 52.9 2.15 53.05 2.3 53.2 2.5 53.3 2.55 53.75 2.5 54.0 2.5 54.4 2.65 54.55 2.8 54.7 3.0 54.9 3.4 55.05 3.75 55.25 3.95 55.45 4.15 55.75 4.25 55.9 4.2 55.75 4.0 55.7 3.8 55.6 3.6 55.5 3.45 55.5 3.25 55.5 3.05 55.55 2.9 55.75 2.7 55.95 2.5 56.05 2.4 56.2 2.35 56.5 2.3 56.5 2.25 56.75 2.25 57.15 2.4 57.3 2.5 57.65 2.65 57.8 2.8 57.95 2.95 58.0 3.0 58.4 3.15 58.55 3.25 58.8 3.3 58.95 3.3 59.25 3.25 59.55 3.15 59.75 2.95 59.95 2.8 62.0 2.75 62.75 3.0 63.5 3.25 63.9 3.4 64.05 3.5 64.4 3.6 65.15 3.9 65.25 4.0 65.25 3.95 65.3 3.75 65.4 3.55 65.5 3.4 65.5 3.2 65.5 2.8 65.5 2.25 65.5 1.9 65.6 1.7 65.7 1.5 65.75 1.3 65.75 1.15 65.8 0.95 65.9 0.75 66.0 0.55 66.05 0.4 66.25 0.2 66.45 0.05 66.75 0.0 67.15 0.15 67.9 0.4 68.05 0.55 68.2 0.75 68.25 0.95 68.25 1.15 68.35 1.3 68.45 1.45 68.5 1.35 68.5 1.2 68.5 1.0 68.6 0.8 68.7 0.65 68.95 0.25 69.05 0.15 69.2 0.1 69.5 0.0 70.05 -0.05 70.2 -0.25 70.3 -0.35 70.45 -0.4 70.75 -0.45 70.75 -0.5 71.15 -0.35 71.3 -0.2 71.45 0.0 71.55 0.75 71.5 1.9 71.5 3.0 71.55 3.2 71.6 3.4 71.7 3.55 71.75 3.75 71.75 3.95 71.75 4.15 71.65 4.3 71.55 4.5 71.45 4.65 71.3 4.7 71.0 4.75 70.75 4.75 70.3 4.65 70.15 4.45 70.0 4.25 70.0 4.05 70.0 3.9 69.9 3.7 69.8 3.5 69.75 3.3 69.7 3.15 69.65 3.15 69.55 3.3 69.45 3.9 69.15 4.6 69.0 5.4 68.9 5.55 68.8 5.75 68.7 5.9 68.55 5.95 68.25 6.0 68.0 6.0 67.55 5.9 67.4 5.7 67.25 5.5 67.25 5.3 67.25 5.15 67.25 4.95 67.2 4.75 67.15 4.55 67.05 4.4 66.95 4.3 66.8 4.45 66.5 4.8 66.3 4.95 66.0 5.0 65.55 4.9 65.45 4.75 65.4 4.8 65.3 5.0 65.2 5.15 65.05 5.2 64.75 5.25 64.25 5.25 63.1 4.8 61.8 4.4 60.45 4.4 60.25 4.55 60.05 4.7 59.75 4.75 59.4 4.9 59.0 5.0 58.75 5.0 58.2 4.8 57.25 4.5 57.2 4.5 57.25 4.7 57.25 4.85 57.15 5.05 57.05 5.25 56.85 5.45 56.6 5.6 56.05 5.95 55.75 6.0 55.3 5.9 55.15 5.7 54.8 5.5 54.5 5.3 54.3 5.15 54.15 4.95 53.95 4.75 53.8 4.55 53.5 4.5 53.0 4.5 52.55 4.4 52.4 4.2 52.2 4.0 52.1 3.8 52.0 3.65 51.9 3.55 51.55 3.4 51.4 3.15 51.15 2.85 50.8 2.25 50.75 2.05 50.75 1.9 50.75 1.7 50.65 1.5 50.55 1.35 50.25 1.25 49.75 1.25 49.3 1.15 49.15 0.95 49.0 0.75 48.95 0.55 48.8 0.4 48.75 0.2 48.75 0.0 48.75 -0.2 48.7 -0.35 48.6 -0.5 48.25 -0.5 48.0 -0.5 47.8 -0.4 47.75 -0.25 47.7 -0.05 47.6 0.1 47.5 0.3 47.3 0.45 47.0 0.5 46.8 0.5 46.75 0.5 46.3 0.4 46.15 0.2 46.0 0.0 46.0 -0.2 46.0 -0.25 45.95 -0.35 45.9 -0.55 45.8 -0.65 45.65 -0.6 45.25 -0.5 45.0 -0.5 44.55 -0.6 44.4 -0.85 44.2 -1.2 43.9 -1.75 43.8 -1.95 43.8 -2.05 M104.85 0.8 L105.0 0.75 105.25 0.7 105.4 0.55 105.55 0.4 106.0 0.25 106.25 0.25 106.65 0.4 106.9 0.55 107.0 0.55 107.0 0.4 107.0 0.2 107.0 0.0 107.0 -0.2 107.1 -0.35 107.2 -0.55 107.25 -0.75 107.25 -0.95 107.25 -1.1 107.35 -1.3 107.45 -1.5 107.55 -1.6 107.7 -1.65 108.0 -1.75 108.4 -1.6 108.55 -1.45 108.7 -1.3 108.75 -1.4 108.75 -1.55 108.75 -1.95 108.75 -2.3 108.75 -2.7 108.85 -2.85 109.0 -3.05 109.2 -3.2 109.5 -3.2 109.5 -3.25 110.0 -3.25 110.4 -3.1 110.6 -2.95 110.8 -2.75 111.0 -2.55 111.1 -2.35 111.2 -2.2 111.25 -2.0 111.25 -1.8 111.25 -1.6 111.15 -1.45 111.05 -1.25 110.95 -1.1 110.8 -1.05 110.5 -1.0 110.25 -0.95 110.25 -0.75 110.25 -0.35 110.25 0.2 110.25 0.95 110.25 1.15 110.2 1.3 110.05 1.5 110.0 1.7 110.0 1.9 109.9 2.05 109.8 2.25 109.7 2.4 109.55 2.45 109.25 2.5 109.0 2.5 108.55 2.4 108.5 2.5 108.5 2.7 108.5 2.9 108.5 3.05 108.45 3.25 108.3 3.45 108.15 3.65 107.75 3.75 107.5 3.75 107.05 3.65 106.9 3.45 106.75 3.25 106.75 3.35 106.65 3.55 106.55 3.75 106.45 3.9 106.3 3.95 106.0 4.0 105.55 3.9 105.4 3.7 105.2 3.65 105.05 3.7 104.75 3.75 104.25 3.75 103.8 3.65 103.65 3.45 103.5 3.25 103.5 3.05 103.5 2.9 103.5 2.7 103.55 2.5 103.65 2.3 103.8 2.15 104.05 1.95 104.2 1.75 104.25 1.55 104.25 1.4 104.3 1.35 104.35 1.2 104.45 1.0 104.55 0.9 104.7 0.85 104.85 0.8 M134.25 -4.0 Q133.65 -4.1 133.2 -4.5 L133.1 -4.7 133.0 -4.85 133.0 -5.05 133.05 -5.25 133.15 -5.45 133.3 -5.6 133.75 -5.7 133.75 -5.75 134.2 -5.65 134.75 -5.5 135.2 -5.35 137.5 -5.25 137.9 -5.1 138.8 -5.1 139.25 -5.25 140.0 -5.25 140.4 -5.1 140.55 -5.0 140.9 -4.85 141.55 -4.85 142.0 -5.0 142.8 -5.15 143.25 -5.25 144.25 -5.25 144.65 -5.1 145.05 -5.1 145.25 -5.3 145.45 -5.45 145.75 -5.5 146.25 -5.5 146.65 -5.35 146.85 -5.2 147.0 -5.05 147.05 -5.0 147.4 -4.85 155.75 -4.75 156.15 -4.75 156.3 -4.9 156.5 -5.05 156.7 -5.2 157.0 -5.25 157.25 -5.25 157.5 -5.25 157.9 -5.1 158.1 -4.95 158.3 -4.75 158.4 -4.55 158.5 -4.35 158.6 -4.2 158.7 -4.0 158.75 -3.8 158.75 -3.6 158.75 -3.45 158.75 -3.25 158.75 -3.05 158.75 -2.9 158.65 -2.7 158.55 -2.5 158.45 -2.35 158.3 -2.3 158.0 -2.25 157.75 -2.25 157.3 -2.35 157.15 -2.55 157.0 -2.75 156.9 -2.8 156.5 -2.75 156.0 -2.75 155.65 -2.8 155.5 -2.6 155.4 -2.45 155.3 -2.25 155.2 -2.1 155.05 -2.05 154.75 -2.0 154.5 -2.0 154.05 -2.1 153.85 -2.3 153.7 -2.45 153.6 -2.25 153.5 -2.05 153.5 -1.9 153.45 -1.7 153.3 -1.5 153.25 -1.3 153.25 -1.1 153.15 -0.95 153.05 -0.75 152.95 -0.6 152.8 -0.55 152.5 -0.5 152.0 -0.5 151.8 -0.4 151.75 -0.25 151.7 -0.05 151.6 0.1 151.5 0.3 151.3 0.5 151.1 0.7 150.9 0.9 150.5 1.0 150.05 0.9 150.0 1.0 150.0 1.2 150.0 1.4 150.0 1.55 149.95 1.75 149.85 1.95 149.75 2.15 149.75 2.3 149.7 2.5 149.55 2.7 149.4 2.9 149.0 3.0 148.75 3.0 148.3 2.9 148.2 3.0 148.15 3.2 148.05 3.4 148.0 3.55 148.0 3.75 148.0 3.95 148.0 4.15 147.95 4.3 147.85 4.5 147.75 4.7 147.65 4.9 147.5 5.05 147.3 5.2 147.0 5.25 146.5 5.25 146.05 5.15 145.9 4.95 145.7 4.75 145.55 4.6 145.45 4.65 145.3 4.7 145.0 4.75 144.75 4.75 144.3 4.65 144.15 4.45 144.0 4.25 144.0 4.05 144.0 3.9 144.0 3.7 144.0 3.5 144.0 3.3 144.0 3.15 144.0 2.95 144.05 2.75 144.15 2.55 144.3 2.4 144.75 2.2 144.95 2.05 145.25 2.0 145.5 2.0 145.9 2.15 146.05 2.3 146.2 2.5 146.25 2.7 146.45 2.85 146.55 2.95 146.75 2.45 146.8 2.25 146.9 1.85 147.0 1.3 147.0 0.75 147.0 0.4 147.0 0.0 147.0 -0.95 147.1 -1.1 147.25 -1.3 147.45 -1.45 147.75 -1.5 148.0 -1.5 148.4 -1.45 148.5 -1.5 148.5 -1.7 148.5 -1.85 148.55 -2.05 148.7 -2.25 148.8 -2.35 148.95 -2.4 149.25 -2.5 149.5 -2.5 149.9 -2.35 150.15 -2.2 150.25 -2.2 150.25 -2.35 150.3 -2.55 150.4 -2.75 150.5 -2.95 147.25 -3.25 146.85 -3.4 146.7 -3.45 146.3 -3.6 146.15 -3.8 145.9 -3.8 145.65 -3.6 145.25 -3.5 144.5 -3.5 144.05 -3.6 143.4 -3.6 143.25 -3.55 143.0 -3.5 142.4 -3.35 142.0 -3.25 140.5 -3.25 140.1 -3.4 139.95 -3.45 139.55 -3.6 139.3 -3.55 139.0 -3.5 137.75 -3.5 134.8 -3.9 134.25 -4.0 M163.8 -2.05 L163.55 -2.1 163.4 -2.3 163.1 -2.7 162.85 -3.05 162.75 -3.25 162.75 -3.45 162.75 -3.6 162.75 -3.8 162.75 -4.0 162.75 -4.2 162.85 -4.35 163.0 -4.55 163.2 -4.7 163.5 -4.7 163.5 -4.75 163.9 -4.6 164.05 -4.45 164.25 -4.4 164.75 -4.45 165.5 -4.5 165.9 -4.35 166.3 -4.0 166.6 -3.6 166.75 -3.45 166.85 -3.25 166.95 -3.1 167.1 -3.2 167.5 -3.55 167.9 -3.95 168.05 -4.1 168.5 -4.25 168.9 -4.1 169.05 -4.0 169.4 -3.85 169.6 -3.7 169.85 -3.5 169.95 -3.45 170.05 -3.55 170.2 -3.75 170.3 -3.85 170.45 -3.9 170.75 -4.0 171.15 -3.85 171.3 -3.7 171.45 -3.5 171.5 -3.3 171.5 -3.1 171.5 -2.95 171.55 -2.75 171.65 -2.55 171.75 -2.35 171.75 -2.2 171.75 -1.8 171.75 -1.6 171.75 -1.45 171.75 -1.25 171.85 -1.1 172.15 -0.85 172.3 -0.7 172.45 -0.5 172.5 -0.3 172.5 -0.1 172.5 0.05 172.5 0.25 172.55 0.45 172.65 0.65 172.7 0.8 172.75 0.95 172.75 1.0 173.15 1.15 173.35 1.3 173.55 1.5 173.9 1.9 173.95 2.05 174.0 2.25 174.05 2.3 174.25 2.2 174.45 2.05 174.75 2.0 175.0 2.0 175.4 2.15 175.65 2.3 175.8 2.4 175.95 2.25 176.05 2.15 176.2 2.1 176.2 2.05 176.5 2.0 176.75 2.0 177.05 2.1 177.15 2.15 177.3 2.3 177.45 2.5 177.5 2.7 177.7 2.9 177.9 3.05 177.95 3.25 178.05 3.45 178.2 3.6 178.4 3.7 178.5 3.55 178.6 3.4 178.95 3.0 179.05 2.9 179.2 2.85 179.5 2.75 180.0 2.75 180.4 2.9 180.65 3.05 180.8 3.15 180.95 3.0 181.15 2.8 181.3 2.65 181.75 2.5 182.0 2.5 182.35 2.45 182.45 2.4 182.5 2.2 182.5 2.1 182.5 2.0 182.5 1.8 182.6 1.65 182.75 1.45 182.95 1.3 183.25 1.25 183.75 1.25 184.15 1.4 184.3 1.55 184.4 1.65 184.45 1.75 184.55 1.75 184.75 1.7 184.95 1.55 185.25 1.5 185.5 1.5 185.85 1.65 186.15 1.75 186.5 1.75 186.9 1.9 187.15 2.05 187.2 2.05 187.25 1.9 187.3 1.7 187.45 1.5 187.8 1.15 188.2 0.8 188.5 0.75 189.25 0.75 189.65 0.9 189.8 1.05 189.95 1.25 190.0 1.45 190.0 1.6 189.9 1.8 189.8 2.0 189.7 2.15 189.55 2.15 188.8 2.45 188.75 2.55 188.7 2.75 188.6 2.95 188.5 3.15 188.5 3.3 188.5 3.5 188.45 3.7 188.35 3.85 188.25 4.05 188.25 4.25 188.2 4.45 188.1 4.6 188.0 4.8 187.8 4.95 187.5 5.0 187.25 5.0 186.8 4.9 186.65 4.7 186.5 4.5 186.45 4.3 186.25 4.25 186.0 4.25 185.55 4.15 185.35 4.25 185.2 4.4 185.05 4.45 184.75 4.5 184.3 4.4 184.15 4.2 183.95 4.0 183.75 3.8 183.6 3.85 183.45 4.0 183.3 4.2 183.15 4.4 182.75 4.5 182.5 4.5 182.3 4.6 182.25 4.75 182.25 4.95 182.25 5.1 182.15 5.3 182.05 5.5 181.85 5.7 181.65 5.9 181.25 6.0 180.8 5.9 180.65 5.7 180.45 5.5 180.05 5.15 180.0 4.95 179.9 4.75 179.8 4.55 179.8 4.6 179.55 4.9 179.25 5.3 179.05 5.5 178.95 5.65 178.8 5.7 178.5 5.75 178.0 5.75 177.55 5.65 177.4 5.45 177.25 5.25 177.25 5.05 177.2 4.9 177.15 4.7 177.05 4.7 177.0 4.85 176.9 5.05 176.8 5.25 176.7 5.4 176.55 5.45 176.25 5.5 176.0 5.5 175.55 5.4 175.4 5.2 175.25 5.0 175.2 4.8 175.05 4.65 175.0 4.45 175.0 4.25 174.9 4.2 Q174.8 4.2 174.75 4.3 L174.55 4.45 174.25 4.5 173.75 4.5 173.3 4.4 173.15 4.2 173.0 4.0 172.95 3.8 172.8 3.65 172.75 3.45 172.7 3.25 172.55 3.05 172.5 3.05 172.25 3.0 171.8 2.9 171.65 2.7 171.45 2.5 171.25 2.15 171.25 2.05 170.8 1.9 170.65 1.7 170.5 1.5 170.5 1.15 170.5 0.55 170.5 0.4 170.5 0.0 170.45 -0.35 170.35 -0.55 170.3 -0.75 170.25 -0.95 170.25 -1.1 170.25 -1.2 169.8 -1.35 169.45 -1.75 169.05 -2.1 168.85 -2.3 168.65 -2.5 168.5 -2.35 168.4 -2.2 168.3 -2.0 168.2 -1.85 168.05 -1.8 167.75 -1.65 167.55 -1.55 167.25 -1.5 166.5 -1.5 166.05 -1.6 165.9 -1.8 165.7 -2.0 165.55 -2.2 165.5 -2.4 165.5 -2.55 165.4 -2.75 165.25 -2.8 165.15 -2.7 165.05 -2.5 164.85 -2.3 164.65 -2.1 164.3 -2.0 164.25 -2.0 164.0 -2.0 163.8 -2.05 M-172.7 -0.35 L-172.55 -0.4 -172.25 -0.5 -171.85 -0.35 -171.7 -0.15 -171.5 0.2 -171.3 0.55 -171.25 0.75 -171.2 0.85 -171.2 0.8 -171.1 0.65 -171.1 0.45 -171.05 0.25 -171.0 0.05 -171.0 -0.1 -171.0 -0.3 -171.0 -0.7 -171.0 -1.05 -170.95 -1.25 -170.85 -1.45 -170.8 -1.6 -170.7 -1.8 -170.6 -2.0 -170.5 -2.2 -170.5 -2.35 -170.45 -2.55 -170.3 -2.75 -170.2 -2.85 -170.05 -2.9 -169.75 -3.0 -169.35 -2.85 -169.2 -2.7 -169.2 -2.75 -169.25 -2.95 -169.25 -3.1 -169.15 -3.3 -169.05 -3.5 Q-168.95 -3.6 -168.8 -3.65 L-165.5 -4.25 -164.8 -4.25 -164.7 -4.35 -164.55 -4.45 -164.25 -4.55 -164.05 -4.7 -163.75 -4.75 -162.75 -4.8 -162.55 -4.95 -162.25 -4.95 -162.25 -5.0 -161.85 -4.85 -161.7 -4.7 -161.55 -4.5 -161.5 -4.3 -161.5 -4.25 -154.6 -4.25 -154.7 -4.45 -154.75 -4.65 -154.75 -4.8 -154.75 -5.0 -154.75 -5.2 -154.75 -5.35 -154.65 -5.55 -154.55 -5.75 -154.45 -5.85 -154.3 -5.9 -154.0 -5.95 -154.0 -6.0 -153.6 -5.85 -153.35 -5.7 -153.3 -5.5 -153.2 -5.3 -153.1 -5.1 -153.05 -4.95 -153.0 -4.75 -153.0 -4.55 -153.0 -4.35 -152.9 -4.2 -152.8 -4.0 -152.75 -3.8 -152.75 -3.6 -152.75 -3.45 -152.75 -3.25 -152.7 -3.2 -152.6 -3.3 -152.5 -3.5 -152.35 -3.7 -152.3 -3.85 -152.25 -4.05 -152.25 -4.25 -152.1 -4.45 -151.95 -4.6 -151.5 -4.75 -151.0 -4.75 -150.6 -4.6 -150.45 -4.45 -150.3 -4.25 -150.25 -4.05 -150.25 -3.85 -150.1 -3.7 -150.05 -3.5 -149.95 -3.1 -149.85 -2.75 -149.75 -2.35 -149.7 -2.3 -149.5 -2.25 -149.25 -2.25 -148.85 -2.1 -148.7 -1.95 -148.55 -1.75 -148.5 -1.55 -148.5 -1.35 -148.4 -1.2 -148.3 -1.0 -148.2 -0.45 -148.25 0.5 -148.2 1.45 -148.2 1.65 -148.1 1.7 -148.0 1.75 -147.5 1.75 -147.1 1.9 -146.9 2.1 -146.6 2.45 -146.35 2.8 -146.3 3.0 -146.25 3.2 -146.2 3.4 -146.1 3.55 -146.05 3.75 -145.95 3.95 -145.85 4.15 -145.8 4.3 -145.75 4.5 -145.8 4.7 -145.9 4.85 -146.0 5.05 -146.2 5.2 -146.5 5.25 -146.95 5.15 -147.1 4.95 -147.25 4.75 -147.3 4.55 -147.45 4.4 -147.5 4.2 -147.55 4.0 -147.6 3.8 -147.7 3.65 -147.85 3.65 -148.25 3.75 -148.5 3.75 -148.95 3.65 -149.1 3.45 -149.3 3.25 -149.45 3.05 -149.5 2.85 -149.5 2.7 -149.5 2.5 -149.55 2.3 -149.6 2.15 -149.65 1.95 -149.7 1.8 -149.75 1.8 -150.0 1.75 -150.25 1.75 -150.7 1.65 -150.85 1.45 -150.95 1.25 -151.0 1.05 -151.0 0.9 -151.05 0.7 -151.1 0.5 -151.2 0.3 -151.25 -0.25 -151.25 -1.2 -151.25 -2.1 -151.25 -2.3 -151.45 -2.1 -151.75 -1.55 -152.3 -0.85 -152.45 -0.8 -152.75 -0.75 -153.0 -0.75 -153.45 -0.85 -153.6 -1.05 -153.75 -1.25 -153.75 -1.45 -153.8 -1.6 -153.9 -1.8 -154.0 -2.0 -154.05 -2.2 -154.1 -2.35 -154.2 -2.55 -154.25 -2.75 -154.25 -2.85 -164.3 -2.6 -164.55 -2.4 -165.3 -1.65 -165.7 -1.3 -166.0 -1.25 -166.5 -1.25 -166.95 -1.35 -167.1 -1.55 -167.35 -1.55 -167.5 -1.35 -167.55 -1.2 -167.7 -1.0 -167.75 -0.8 -167.8 -0.6 -167.85 -0.45 -167.95 -0.25 -168.05 -0.05 -168.3 0.25 -168.65 0.85 -168.75 1.05 -168.95 1.2 -169.25 1.25 -169.6 1.25 -169.75 1.45 -169.8 1.65 -169.9 2.0 -170.0 2.4 -170.05 2.55 -170.2 2.75 -170.25 2.95 -170.25 3.15 -170.35 3.3 -170.45 3.5 -170.65 3.7 -170.85 3.9 -171.25 4.0 -171.5 4.0 -171.95 3.9 -172.1 3.7 -172.25 3.5 -172.25 3.3 -172.35 2.95 -172.5 2.55 -172.55 2.4 -172.55 2.5 -172.6 2.7 -172.75 3.05 -172.85 3.45 -173.05 3.8 -173.35 4.4 -173.7 4.95 -173.85 5.15 -174.25 5.25 -174.5 5.25 -174.95 5.15 -175.1 4.95 -175.2 4.75 -175.25 4.55 -175.25 4.4 -175.3 4.2 -175.35 4.0 -175.45 3.8 -175.5 3.45 -175.5 2.9 -175.5 2.3 -175.5 2.15 -175.4 1.95 -175.3 1.75 -175.2 1.65 -175.05 1.6 -174.75 1.5 -174.5 1.5 -174.1 1.6 -173.95 1.65 -173.85 1.45 -173.8 1.25 -173.75 1.05 -173.7 0.9 -173.5 0.5 -173.0 -0.05 -172.7 -0.35 M-169.0 -2.1 L-169.0 -1.95 -169.0 -1.8 -168.85 -2.1 -168.7 -2.3 -168.95 -2.35 -169.05 -2.45 -169.0 -2.3 -169.0 -2.1 M-75.95 -2.05 L-76.2 -2.1 -76.35 -2.3 -76.55 -2.5 -76.75 -2.7 -76.95 -2.85 -77.0 -3.05 -77.05 -3.25 -77.25 -3.45 -77.45 -3.6 -77.6 -3.8 -77.95 -3.95 -78.2 -3.8 -78.5 -3.75 -78.85 -3.6 -79.2 -3.45 -79.45 -3.3 -79.75 -3.25 Q-79.95 -3.2 -80.1 -3.1 L-80.5 -3.0 -81.75 -3.0 -82.2 -3.1 -82.35 -3.3 -82.55 -3.5 -82.7 -3.7 -82.8 -3.85 -82.95 -3.75 -83.15 -3.55 -83.35 -3.35 -83.75 -3.25 -84.0 -3.25 -84.45 -3.35 -84.6 -3.55 -84.7 -3.75 -84.75 -3.95 -84.55 -4.5 -84.0 -5.2 -83.5 -5.8 -83.3 -5.95 -83.0 -5.95 -83.0 -6.0 -82.75 -6.0 -82.35 -5.85 -82.15 -5.7 -81.95 -5.5 -81.75 -5.3 -81.6 -5.1 -81.55 -4.95 -81.5 -4.75 -81.45 -4.6 -80.7 -4.7 -79.75 -4.85 -79.5 -5.05 -79.3 -5.2 -79.0 -5.25 -78.45 -5.4 -78.0 -5.5 -77.75 -5.5 -76.95 -5.15 -76.5 -4.8 -76.3 -4.6 -75.95 -4.4 -75.7 -4.25 -75.6 -4.05 -75.55 -3.85 -75.5 -3.7 -75.5 -3.6 -75.2 -3.65 -74.75 -3.8 -74.55 -4.0 -74.35 -4.2 -74.2 -4.35 -73.8 -4.55 Q-73.7 -4.6 -73.55 -4.7 L-73.25 -4.75 -72.5 -4.75 -72.1 -4.6 -71.9 -4.45 -71.7 -4.25 -71.55 -4.05 -71.5 -3.9 -71.35 -3.7 -71.2 -3.55 -71.1 -3.65 -70.95 -3.8 -70.85 -4.0 -70.75 -4.2 -70.7 -4.35 -70.5 -4.55 -70.3 -4.75 -70.2 -4.85 -70.05 -4.9 -69.75 -5.0 -69.5 -5.0 -69.1 -4.85 -68.95 -4.7 -68.8 -4.5 -68.75 -4.3 -68.65 -4.1 -68.55 -3.95 -68.5 -3.75 -68.5 -3.55 -68.5 -3.2 -68.5 -2.8 -68.5 -2.45 -68.45 -2.25 -68.35 -2.05 -68.3 -1.85 -68.25 -1.7 -68.25 -1.1 -68.25 -0.35 -68.25 0.2 -68.25 0.4 -68.25 0.7 -68.25 0.75 -67.85 0.9 -67.7 1.05 -67.55 1.25 -67.5 1.45 -67.5 1.65 -67.45 1.8 -67.35 1.8 -67.2 1.65 -66.75 1.5 -66.25 1.5 -65.85 1.65 -65.45 2.0 -65.05 2.4 -64.7 2.75 -64.6 2.95 -64.5 3.15 -64.5 3.3 -64.45 3.5 -64.35 3.7 -64.3 3.9 -64.25 4.05 -64.15 4.25 -64.0 4.45 -63.9 4.65 -63.8 4.8 -63.8 5.0 -63.8 5.2 -63.85 5.4 -64.0 5.55 -64.2 5.7 -64.5 5.75 -64.75 5.75 -65.2 5.65 -65.35 5.45 -65.5 5.25 -65.5 5.05 -65.55 4.9 -65.65 4.7 -65.75 4.5 -65.75 4.3 -65.8 4.15 -65.9 3.95 -66.0 3.75 -66.1 3.6 -66.45 3.4 -66.7 3.25 -66.85 3.45 -67.0 3.65 -67.0 3.8 -67.05 4.0 -67.15 4.2 -67.25 4.35 -67.35 4.55 -67.45 4.75 -67.65 4.95 -67.85 5.15 -68.25 5.25 -68.7 5.15 -68.85 4.95 -69.0 4.75 -69.0 4.4 -69.0 4.0 -69.0 3.45 -69.0 3.05 -69.05 2.9 -69.15 2.7 -69.3 2.5 -69.5 2.3 -69.7 2.15 -69.75 1.35 -69.75 0.25 -69.75 -0.1 -69.75 -0.85 -69.75 -1.25 -69.8 -1.45 -69.85 -1.6 -69.95 -1.8 -70.0 -2.0 -70.1 -1.85 -70.25 -1.7 -70.45 -1.55 -70.75 -1.5 -71.25 -1.5 -71.7 -1.6 -71.85 -1.8 -72.05 -2.0 -72.25 -2.2 -72.45 -2.35 -72.5 -2.55 -72.55 -2.75 -72.7 -2.95 -72.8 -3.1 -73.3 -3.1 -73.7 -2.75 -74.15 -2.4 -74.7 -2.05 -75.0 -2.0 -75.75 -2.0 -75.95 -2.05 M-23.25 2.1 L-23.25 2.2 -23.25 2.55 -23.25 2.95 -23.25 3.05 -23.05 3.0 -22.85 2.8 -22.7 2.65 -22.25 2.5 -22.0 2.5 -21.6 2.65 -21.45 2.8 -21.3 3.0 -21.25 3.15 -20.25 3.25 -19.85 3.4 -19.7 3.5 -19.45 3.55 -19.3 3.55 -19.0 3.45 -18.5 3.2 -18.3 3.05 -18.0 3.0 -17.45 2.85 -17.0 2.75 -16.25 2.75 -15.95 2.8 -15.8 2.8 -15.5 2.75 -15.0 2.75 -14.6 2.9 -14.35 3.05 -14.2 3.2 -13.95 3.1 -13.5 3.0 -13.25 3.0 -12.85 3.15 -12.7 3.3 -12.55 3.5 -12.5 3.7 -12.55 3.85 -12.6 4.05 -12.7 4.25 -12.95 4.45 -13.1 4.65 -13.25 4.8 -13.45 4.95 -13.75 5.0 -14.25 5.0 -14.7 4.9 -14.85 4.7 -15.05 4.5 -15.2 4.45 -15.5 4.5 -16.0 4.5 -16.45 4.4 -16.85 4.4 -17.25 4.5 -17.85 4.65 -18.25 4.8 -18.45 5.0 -18.55 5.15 -18.7 5.2 -19.0 5.25 -19.5 5.25 -20.45 4.95 -21.95 4.65 -22.1 4.45 -22.35 4.45 -22.55 4.65 -22.75 4.8 -22.95 4.95 -23.25 5.0 -23.5 5.0 -23.95 4.9 -24.1 4.7 -24.3 4.5 -24.5 4.15 -24.6 3.95 -24.8 4.25 -25.2 4.8 -25.45 5.2 -25.6 5.4 -26.0 5.5 -26.25 5.5 -26.7 5.4 -26.85 5.2 -27.0 5.0 -27.05 4.8 -27.1 4.7 -27.2 4.7 -27.5 4.75 -27.75 4.75 -28.2 4.65 -28.35 4.45 -28.5 4.25 -28.5 4.05 -28.5 3.9 -28.5 3.7 -28.5 3.5 -28.55 3.3 -28.7 3.15 -28.75 2.95 -28.75 2.75 -28.75 2.55 -28.75 2.4 -28.75 2.3 -29.2 2.15 -29.35 1.95 -29.5 1.75 -29.5 1.55 -29.5 1.4 -29.5 1.2 -29.45 1.0 -29.35 0.8 -29.3 0.65 -29.2 0.45 -29.05 0.25 -28.85 0.05 -28.7 -0.1 -28.25 -0.2 -28.25 -0.25 -27.85 -0.1 -27.65 0.05 -27.45 0.25 -27.35 0.45 -27.25 0.65 -27.2 0.7 -27.0 0.75 -26.6 0.9 -26.4 1.05 -26.2 1.25 -26.1 1.45 -26.0 1.65 -26.0 1.8 -26.0 2.0 -25.95 2.2 -25.85 2.35 -25.85 2.4 -25.75 2.3 -25.75 2.15 -25.75 1.95 -25.7 1.75 -25.6 1.55 -25.45 1.4 -25.2 1.25 -25.2 1.2 -25.05 1.0 -24.95 0.9 -24.8 0.85 -24.5 0.75 -24.25 0.75 -23.85 0.9 -23.7 1.05 -23.55 1.25 -23.4 1.65 -23.3 1.8 -23.25 2.0 -23.25 2.1" fill="#515151" fill-rule="evenodd" stroke="none"/>
    <path d="M28.35 -2.05 L24.1 2.1 16.35 2.1 12.15 -2.05 28.35 -2.05 M51.85 -2.05 L56.05 2.1 63.8 2.1 68.0 -2.05 51.85 -2.05 M44.15 -2.05 L48.4 2.1 31.9 2.1 36.1 -2.05 44.15 -2.05 M107.7 -2.05 L103.5 2.1 95.75 2.1 91.55 -2.05 107.7 -2.05 M131.25 -2.05 L135.45 2.1 143.2 2.1 147.4 -2.05 131.25 -2.05 M123.55 -2.05 L127.75 2.1 111.3 2.1 115.5 -2.05 123.55 -2.05 M83.85 -2.05 L88.1 2.1 71.6 2.1 75.8 -2.05 83.85 -2.05 M171.95 -2.05 L176.2 2.1 183.9 2.1 188.15 -2.05 171.95 -2.05 M155.2 -2.05 L151.0 2.1 168.5 2.1 164.25 -2.05 155.2 -2.05 M8.7 2.1 L-8.85 2.1 -4.6 -2.05 4.45 -2.05 8.7 2.1 M190.45 6.1 L-191.75 6.1 -191.75 -6.05 190.45 -6.05 190.45 6.1 M-188.4 -2.05 L-184.15 2.1 -176.4 2.1 -172.2 -2.05 -188.4 -2.05 M-147.65 -2.05 L-143.45 2.1 -135.7 2.1 -131.5 -2.05 -147.65 -2.05 M-107.95 -2.05 L-103.75 2.1 -96.0 2.1 -91.8 -2.05 -107.95 -2.05 M-123.7 -2.05 L-127.9 2.1 -111.45 2.1 -115.65 -2.05 -123.7 -2.05 M-52.1 -2.05 L-56.3 2.1 -64.05 2.1 -68.25 -2.05 -52.1 -2.05 M-28.55 -2.05 L-24.35 2.1 -16.6 2.1 -12.4 -2.05 -28.55 -2.05 M-36.25 -2.05 L-32.05 2.1 -48.5 2.1 -44.3 -2.05 -36.25 -2.05 M-75.95 -2.05 L-71.75 2.1 -88.2 2.1 -84.0 -2.05 -75.95 -2.05 M-164.4 -2.05 L-168.65 2.1 -151.15 2.1 -155.35 -2.05 -164.4 -2.05 Z" fill="none" stroke="#000000" stroke-linecap="round" stroke-linejoin="round" stroke-width="2.0"/>
  </g>
</svg>
