<?xml version="1.0" encoding="UTF-8" standalone="no"?>
<svg xmlns:ffdec="https://www.free-decompiler.com/flash" xmlns:xlink="http://www.w3.org/1999/xlink" ffdec:objectType="shape" height="35.7px" width="45.9px" xmlns="http://www.w3.org/2000/svg">
  <g transform="matrix(1.0, 0.0, 0.0, 1.0, 21.85, 34.9)">
    <path d="M-4.75 -28.7 L-4.85 -28.75 -4.75 -28.75 -4.75 -28.7 M18.9 0.0 L18.9 -0.05 19.25 0.0 19.4 -0.05 19.55 -0.05 19.6 -0.15 19.7 -0.3 19.8 -0.4 19.95 -0.3 20.1 -0.2 20.35 -0.15 20.5 -0.15 20.55 -0.2 20.65 -0.25 20.75 -0.45 20.75 -0.55 20.95 -0.5 21.05 -0.5 21.25 -0.55 21.35 -0.55 21.65 -0.45 21.95 -0.4 22.15 -0.35 22.2 -0.3 22.25 -0.2 22.6 -0.1 22.75 -0.05 22.75 0.0 19.25 0.0 18.9 0.0 M10.7 -20.75 L12.25 -18.1 12.0 -18.0 10.7 -20.75 M14.25 -14.65 L15.65 -12.25 15.2 -12.7 14.95 -12.75 14.85 -12.8 14.85 -12.75 14.65 -12.75 14.6 -12.7 13.55 -14.85 13.75 -14.7 14.05 -14.65 14.25 -14.65 M-2.4 -16.6 L-2.4 -16.65 -2.1 -16.65 -2.4 -16.6 M-2.75 -22.2 L-2.2 -23.45 -1.4 -24.9 -1.3 -25.1 -0.55 -25.95 -2.75 -22.2 M1.0 -26.5 L1.1 -26.55 1.2 -26.6 1.25 -26.7 1.4 -26.8 1.45 -26.9 1.5 -26.95 1.7 -27.05 1.8 -27.1 1.85 -27.05 2.1 -26.95 2.25 -26.75 2.3 -26.7 2.05 -26.75 1.8 -26.7 1.7 -26.65 1.55 -26.55 1.5 -26.45 1.45 -26.4 1.45 -26.3 1.45 -26.2 1.45 -26.1 1.5 -25.9 1.7 -25.7 1.75 -25.65 Q2.9 -24.75 3.45 -23.5 L4.3 -21.4 4.5 -21.3 4.8 -21.25 5.05 -21.3 5.1 -21.35 5.35 -20.85 6.45 -17.7 6.15 -17.65 1.0 -26.5 M-0.1 -16.65 L-0.1 -16.6 0.0 -16.5 0.0 -16.4 -2.1 -16.65 -0.1 -16.65 M7.15 -25.1 L7.25 -25.05 7.35 -24.75 7.15 -25.1 M6.85 -20.2 L7.05 -19.95 7.1 -19.65 7.35 -19.0 6.85 -20.2 M7.85 -16.8 L7.85 -16.55 7.85 -16.35 7.8 -16.35 7.7 -16.4 7.3 -16.65 7.15 -16.7 7.85 -16.8 M17.1 -5.35 L17.3 -5.15 17.2 -5.15 17.1 -5.35 M16.0 -10.25 L15.95 -10.35 16.0 -10.3 16.0 -10.25 M-11.15 -7.75 L-11.0 -8.15 -11.05 -8.25 -11.1 -8.35 -11.3 -8.45 -11.55 -8.5 -11.6 -8.45 -11.6 -8.5 -11.0 -9.55 -10.25 -10.4 -9.2 -11.5 -8.95 -11.5 -11.15 -7.75" fill="#ffcc00" fill-rule="evenodd" stroke="none"/>
    <path d="M-5.85 -26.35 L-5.85 -26.4 -5.8 -26.4 -5.85 -26.35 M16.5 -0.85 L16.45 -0.95 16.3 -1.1 16.45 -1.0 16.5 -0.9 16.5 -0.85 M2.35 -14.05 L0.0 -14.15 2.35 -14.15 2.35 -14.05 M14.0 -5.35 Q14.25 -4.5 14.85 -3.85 L14.85 -3.7 14.85 -3.55 14.8 -3.65 13.85 -5.25 14.0 -5.35 M8.5 -11.65 L8.55 -11.55 8.5 -11.55 8.5 -11.65 M9.95 -12.65 L9.9 -12.55 9.85 -12.6 9.95 -12.65" fill="#ffdd55" fill-rule="evenodd" stroke="none"/>
    <path d="M-8.9 -11.55 L-8.9 -11.5 -8.95 -11.5 -8.95 -11.55 -8.9 -11.55" fill="#888888" fill-rule="evenodd" stroke="none"/>
    <path d="M2.4 -14.05 L2.35 -14.05 2.35 -14.15 2.4 -14.05 M13.85 -5.25 L13.15 -6.7 11.55 -9.65 11.35 -9.9 11.2 -10.15 11.0 -10.2 10.8 -10.3 10.7 -10.4 10.5 -10.6 10.3 -10.95 10.1 -11.35 Q10.4 -11.4 10.7 -11.6 L10.8 -11.7 10.8 -11.8 10.9 -11.9 10.95 -11.95 11.15 -12.05 11.2 -12.1 11.3 -12.2 11.35 -12.3 11.5 -12.45 11.55 -12.45 11.75 -12.35 11.9 -12.25 11.6 -12.2 11.45 -12.1 11.35 -12.0 11.3 -11.9 11.3 -11.8 11.3 -11.7 11.3 -11.65 11.3 -11.55 11.3 -11.45 11.3 -11.35 11.35 -11.25 11.45 -11.15 11.6 -11.05 11.7 -11.05 13.15 -7.9 13.25 -7.65 13.2 -7.6 13.15 -7.5 Q13.1 -7.35 13.2 -7.2 L13.25 -7.05 13.4 -6.95 14.0 -5.35 13.85 -5.25 M8.5 -11.55 Q7.65 -11.7 7.05 -12.1 L7.0 -12.2 6.95 -12.4 6.95 -12.75 7.0 -12.85 7.05 -12.95 7.1 -13.05 7.25 -13.1 7.3 -13.1 7.55 -13.15 8.25 -13.15 8.5 -13.1 8.7 -13.0 8.75 -12.9 8.8 -12.8 8.9 -12.7 9.0 -12.65 8.8 -12.55 8.7 -12.45 8.65 -12.35 8.55 -12.3 8.55 -12.2 8.5 -12.1 8.45 -12.05 8.45 -11.95 8.5 -11.75 8.5 -11.65 8.5 -11.55" fill="#747474" fill-rule="evenodd" stroke="none"/>
    <path d="M16.5 -0.9 L16.5 -0.95 16.5 -1.05 16.5 -1.15 16.6 -1.2 16.75 -1.3 17.0 -1.4 17.2 -1.3 17.3 -1.2 17.4 -1.15 17.65 -1.1 17.85 -1.15 17.95 -1.2 18.0 -1.25 18.15 -1.3 18.25 -1.4 18.3 -1.5 18.4 -1.6 18.45 -1.6 18.4 -1.7 18.0 -2.35 17.6 -2.8 15.5 -7.15 Q14.5 -9.4 13.0 -11.4 L13.0 -11.45 13.0 -11.55 12.25 -13.0 10.9 -15.7 10.9 -15.8 10.9 -15.9 10.7 -16.3 10.2 -17.9 9.2 -20.05 9.05 -20.2 8.9 -20.6 8.8 -20.8 8.7 -20.9 8.65 -20.95 8.55 -21.15 8.55 -21.25 8.55 -21.35 8.5 -21.45 8.45 -21.55 8.45 -21.65 8.45 -21.7 8.25 -21.65 7.95 -21.7 7.8 -21.8 Q5.95 -24.4 4.8 -27.3 L4.15 -29.05 3.1 -30.9 2.95 -30.95 2.8 -31.05 2.75 -31.15 2.6 -31.35 2.5 -31.55 2.5 -31.65 2.5 -31.7 2.5 -31.8 2.55 -31.85 2.35 -32.2 0.7 -34.75 3.05 -34.75 5.65 -30.3 7.15 -27.35 8.9 -24.45 10.7 -20.75 12.0 -18.0 12.25 -18.1 12.25 -18.15 12.4 -18.05 12.55 -17.95 12.65 -17.8 12.85 -17.5 12.85 -17.4 12.85 -17.3 12.85 -17.2 12.85 -17.15 13.8 -15.9 14.5 -14.95 14.5 -14.9 14.35 -14.8 14.3 -14.7 14.25 -14.65 14.05 -14.65 13.75 -14.7 13.55 -14.85 14.6 -12.7 14.65 -12.75 14.85 -12.75 14.85 -12.8 14.95 -12.75 15.2 -12.7 15.65 -12.25 15.75 -12.1 16.45 -11.5 16.75 -11.15 16.9 -10.65 17.15 -10.3 17.4 -9.8 17.5 -9.7 17.6 -9.6 17.7 -9.55 17.75 -9.3 17.85 -9.25 Q18.6 -7.25 19.65 -5.35 20.35 -4.1 21.3 -3.0 L21.85 -2.2 21.95 -2.15 22.1 -2.05 22.15 -1.95 22.2 -1.85 22.25 -1.65 22.25 -1.55 22.25 -1.45 22.2 -1.4 22.15 -1.25 22.25 -1.3 22.45 -1.35 22.6 -1.45 22.7 -1.5 22.9 -1.55 23.05 -1.55 23.25 -1.45 23.45 -1.4 23.5 -1.2 23.5 -0.9 23.5 -0.65 23.35 -0.45 23.2 -0.15 23.05 -0.05 22.9 -0.05 22.75 -0.05 22.6 -0.1 22.25 -0.2 22.2 -0.3 22.15 -0.35 21.95 -0.4 21.65 -0.45 21.35 -0.55 21.25 -0.55 21.05 -0.5 20.95 -0.5 20.75 -0.55 20.75 -0.45 20.65 -0.25 20.55 -0.2 20.5 -0.15 20.35 -0.15 20.1 -0.2 19.95 -0.3 19.8 -0.4 19.7 -0.3 19.6 -0.15 19.55 -0.05 19.4 -0.05 19.25 0.0 18.9 -0.05 18.75 -0.15 18.7 -0.25 18.6 -0.45 18.55 -0.45 18.2 -0.4 18.0 -0.3 17.85 -0.2 17.6 -0.15 17.1 -0.2 17.05 -0.3 16.8 -0.45 16.65 -0.55 16.6 -0.65 16.55 -0.75 16.5 -0.85 16.5 -0.9 M-12.15 -6.1 L-13.3 -4.55 -14.1 -3.45 -15.25 -1.9 -15.4 -1.65 -15.5 -1.55 -15.55 -1.4 -15.65 -1.15 -15.8 -0.95 -15.9 -0.85 -15.95 -0.8 -16.2 -0.75 -16.5 -0.8 -16.7 -0.9 -16.75 -1.0 -16.75 -1.1 -16.8 -1.2 -16.8 -1.3 -16.8 -1.4 -16.8 -1.45 -16.4 -2.15 -16.4 -2.2 -16.6 -2.3 -16.65 -2.4 -16.7 -2.5 -16.7 -2.6 -16.7 -2.7 -16.7 -2.8 -16.7 -2.9 -16.65 -2.95 -16.6 -3.05 -16.5 -3.15 -16.5 -3.25 -16.4 -3.45 -16.2 -3.7 -16.15 -3.9 -16.1 -4.2 -16.1 -4.4 -12.8 -9.15 -11.95 -10.2 -10.6 -12.8 -10.6 -12.9 -10.6 -13.0 -10.6 -13.1 -10.5 -13.2 -10.45 -13.3 -10.35 -13.35 -10.3 -13.45 -10.2 -13.55 -7.55 -14.05 -5.25 -14.25 -3.85 -14.2 Q-3.1 -14.05 -2.55 -13.7 L-2.5 -13.65 -2.2 -13.65 -0.7 -13.55 -0.4 -13.65 1.8 -13.6 Q2.75 -13.6 3.35 -13.05 L3.35 -13.0 4.8 -12.85 4.9 -12.75 5.1 -12.65 5.2 -12.55 5.35 -12.45 5.35 -12.4 5.4 -12.3 5.4 -12.2 5.35 -12.1 5.3 -12.0 5.2 -11.9 5.05 -11.8 4.8 -11.75 4.5 -11.85 4.3 -11.9 4.15 -11.95 3.6 -12.0 3.05 -12.15 0.65 -12.2 0.35 -12.2 0.15 -12.3 0.1 -12.4 0.05 -12.5 -1.3 -12.55 -2.8 -12.55 -3.0 -12.65 -3.6 -12.65 -5.05 -12.55 -8.05 -11.9 -8.2 -11.9 -8.5 -11.8 -8.7 -11.7 -8.85 -11.65 -8.9 -11.55 -8.95 -11.55 -8.95 -11.5 -9.2 -11.5 -10.25 -10.4 -11.0 -9.55 -11.6 -8.5 -11.6 -8.45 -11.55 -8.5 -11.3 -8.45 -11.1 -8.35 -11.05 -8.25 -11.0 -8.15 -11.15 -7.75 -12.15 -6.1 M-4.1 -16.65 L-4.3 -16.55 -5.55 -16.4 -5.7 -16.3 -5.75 -16.2 -5.85 -16.2 -6.05 -16.15 -6.45 -16.25 -6.85 -16.4 -6.9 -16.5 -6.95 -16.6 -6.95 -16.7 Q-6.95 -18.45 -5.9 -20.05 L-4.95 -21.45 -4.85 -21.8 -4.95 -21.8 -5.15 -21.9 -5.2 -22.0 -5.2 -22.1 -5.25 -22.2 -5.25 -22.3 -3.8 -24.1 -3.55 -24.65 -3.5 -24.75 -3.3 -24.85 -3.1 -25.0 -3.0 -25.1 -2.9 -25.1 -1.3 -27.15 -0.85 -27.65 -0.85 -27.7 -0.85 -27.9 -0.85 -28.3 -0.85 -28.45 -0.75 -28.55 -0.6 -28.65 -0.25 -28.85 0.05 -28.9 1.55 -28.85 2.0 -28.75 2.1 -28.65 2.2 -28.55 2.3 -28.35 2.35 -28.3 2.35 -28.2 2.35 -28.1 2.35 -28.0 2.5 -28.0 2.8 -27.95 2.9 -27.85 3.1 -27.75 3.2 -27.6 3.45 -27.25 4.9 -24.9 5.15 -24.4 5.3 -24.2 5.4 -24.05 5.4 -23.95 5.4 -23.9 6.05 -22.65 6.25 -22.6 6.45 -22.5 6.55 -22.4 6.7 -22.3 6.75 -22.2 6.85 -22.1 7.0 -21.95 7.05 -21.75 Q8.0 -20.9 8.4 -19.8 L9.05 -17.65 9.05 -17.15 9.05 -16.5 9.05 -16.2 9.0 -16.15 9.0 -16.05 8.9 -15.95 8.75 -15.85 8.7 -15.8 8.45 -15.75 8.4 -15.6 8.4 -15.55 8.4 -15.25 8.35 -15.15 8.25 -15.05 8.1 -14.95 7.85 -14.9 7.55 -14.95 7.35 -15.05 7.15 -15.25 7.05 -15.35 7.0 -15.35 Q6.45 -14.65 5.05 -14.35 L2.4 -14.05 2.35 -14.15 2.55 -14.2 2.8 -14.35 2.9 -14.45 2.9 -14.55 2.95 -14.65 2.9 -14.8 2.85 -14.9 2.8 -15.0 2.6 -15.1 2.35 -15.15 -2.1 -15.2 -2.4 -15.25 -2.45 -15.2 -3.0 -15.3 -3.2 -15.4 -3.25 -15.5 -3.3 -15.7 -3.3 -15.8 -3.3 -15.9 -3.25 -15.95 -3.2 -16.05 -3.05 -16.15 -2.95 -16.2 -2.75 -16.2 -2.7 -16.3 -2.65 -16.4 -2.55 -16.5 -2.4 -16.6 -2.1 -16.65 0.0 -16.4 0.0 -16.5 -0.1 -16.6 -0.1 -16.65 -0.1 -16.7 -0.1 -16.8 0.0 -16.85 0.05 -16.95 0.15 -17.05 0.3 -17.1 0.55 -17.15 1.45 -17.1 1.95 -17.05 4.3 -17.05 5.85 -17.55 6.15 -17.65 6.45 -17.7 5.35 -20.85 5.1 -21.35 5.05 -21.3 4.8 -21.25 4.5 -21.3 4.3 -21.4 3.45 -23.5 Q2.9 -24.75 1.75 -25.65 L1.7 -25.7 1.5 -25.9 1.45 -26.1 1.45 -26.2 1.45 -26.3 1.45 -26.4 1.5 -26.45 1.55 -26.55 1.7 -26.65 1.8 -26.7 2.05 -26.75 2.3 -26.7 2.25 -26.75 2.1 -26.95 1.85 -27.05 1.8 -27.1 1.7 -27.05 1.5 -26.95 1.45 -26.9 1.4 -26.8 1.25 -26.7 1.2 -26.6 1.1 -26.55 1.0 -26.5 0.85 -26.5 0.55 -26.55 0.35 -26.65 0.3 -26.75 0.3 -26.85 0.25 -26.95 0.25 -27.05 0.0 -26.8 -0.55 -25.95 -1.3 -25.1 -1.4 -24.9 -2.2 -23.45 -2.75 -22.2 -3.95 -20.1 Q-3.95 -19.9 -4.1 -19.7 L-4.5 -18.9 -4.5 -18.8 -4.5 -18.7 -4.5 -18.55 -4.5 -18.25 -4.5 -18.15 -4.6 -18.05 -4.65 -17.9 -4.7 -17.8 -4.1 -17.7 -3.9 -17.6 -3.85 -17.5 -3.8 -17.4 -3.75 -17.3 -3.75 -17.2 -3.75 -17.15 -3.8 -17.05 -3.8 -16.95 -3.9 -16.85 -4.1 -16.65 M7.15 -25.1 L7.35 -24.75 7.25 -25.05 7.15 -25.1 M6.85 -20.2 L7.35 -19.0 7.1 -19.65 7.05 -19.95 6.85 -20.2 M7.85 -16.8 L7.15 -16.7 7.3 -16.65 7.7 -16.4 7.8 -16.35 7.85 -16.35 7.85 -16.55 7.85 -16.8 M16.0 -10.25 L16.0 -10.3 15.95 -10.35 16.0 -10.25 M17.1 -5.35 L17.2 -5.15 17.3 -5.15 17.1 -5.35" fill="#515151" fill-rule="evenodd" stroke="none"/>
    <path d="M0.7 -34.75 L2.35 -32.2 2.55 -31.85 2.5 -31.8 2.5 -31.7 2.5 -31.65 2.5 -31.55 2.6 -31.35 2.75 -31.15 2.8 -31.05 2.95 -30.95 3.1 -30.9 4.15 -29.05 4.8 -27.3 Q5.95 -24.4 7.8 -21.8 L7.95 -21.7 8.25 -21.65 8.45 -21.7 8.45 -21.65 8.45 -21.55 8.5 -21.45 8.55 -21.35 8.55 -21.25 8.55 -21.15 8.65 -20.95 8.7 -20.9 8.8 -20.8 8.9 -20.6 9.05 -20.2 9.2 -20.05 10.2 -17.9 10.7 -16.3 10.9 -15.9 10.9 -15.8 10.9 -15.7 12.25 -13.0 13.0 -11.55 13.0 -11.45 13.0 -11.4 Q14.5 -9.4 15.5 -7.15 L17.6 -2.8 18.0 -2.35 18.4 -1.7 18.45 -1.6 18.4 -1.6 18.3 -1.5 18.25 -1.4 18.15 -1.3 18.0 -1.25 17.95 -1.2 17.85 -1.15 17.65 -1.1 17.4 -1.15 17.3 -1.2 17.2 -1.3 17.0 -1.4 16.75 -1.3 16.6 -1.2 16.5 -1.15 16.5 -1.05 16.5 -0.95 16.5 -0.9 16.45 -1.0 16.3 -1.1 16.45 -0.95 16.5 -0.85 16.55 -0.75 16.6 -0.65 16.65 -0.55 16.8 -0.45 17.05 -0.3 17.1 -0.2 17.6 -0.15 17.85 -0.2 18.0 -0.3 18.2 -0.4 18.55 -0.45 18.6 -0.45 18.7 -0.25 18.75 -0.15 18.9 -0.05 18.9 0.0 16.35 0.0 9.85 -11.3 8.75 -11.45 8.7 -11.5 -8.9 -11.5 -8.9 -11.55 -8.85 -11.65 -8.7 -11.7 -8.5 -11.8 -8.2 -11.9 -8.05 -11.9 -5.05 -12.55 -3.6 -12.65 -3.0 -12.65 -2.8 -12.55 -1.3 -12.55 0.05 -12.5 0.1 -12.4 0.15 -12.3 0.35 -12.2 0.65 -12.2 3.05 -12.15 3.6 -12.0 4.15 -11.95 4.3 -11.9 4.5 -11.85 4.8 -11.75 5.05 -11.8 5.2 -11.9 5.3 -12.0 5.35 -12.1 5.4 -12.2 5.4 -12.3 5.35 -12.4 5.35 -12.45 5.2 -12.55 5.1 -12.65 4.9 -12.75 4.8 -12.85 3.35 -13.0 3.35 -13.05 Q2.75 -13.6 1.8 -13.6 L-0.4 -13.65 -0.7 -13.55 -2.2 -13.65 -2.5 -13.65 -2.55 -13.7 Q-3.1 -14.05 -3.85 -14.2 L-5.25 -14.25 -7.55 -14.05 -10.2 -13.55 -10.3 -13.45 -10.35 -13.35 -10.45 -13.3 -10.5 -13.2 -10.6 -13.1 -10.6 -13.0 -10.6 -12.9 -10.6 -12.8 -11.95 -10.2 -12.8 -9.15 -16.1 -4.4 -16.1 -4.2 -16.15 -3.9 -16.2 -3.7 -16.4 -3.45 -16.5 -3.25 -16.5 -3.15 -16.6 -3.05 -16.65 -2.95 -16.7 -2.9 -16.7 -2.8 -16.7 -2.7 -16.7 -2.6 -16.7 -2.5 -16.65 -2.4 -16.6 -2.3 -16.4 -2.2 -16.4 -2.15 -16.8 -1.45 -16.8 -1.4 -16.8 -1.3 -16.8 -1.2 -16.75 -1.1 -16.75 -1.0 -16.7 -0.9 -16.5 -0.8 -16.2 -0.75 -15.95 -0.8 -15.9 -0.85 -15.8 -0.95 -15.65 -1.15 -15.55 -1.4 -15.5 -1.55 -15.4 -1.65 -15.25 -1.9 -14.1 -3.45 -13.3 -4.55 -12.15 -6.1 -15.65 0.0 -21.2 0.0 -21.3 -0.05 -21.4 -0.15 -21.5 -0.25 -21.6 -0.35 -21.7 -0.45 -21.75 -0.5 -5.25 -28.9 -5.15 -28.8 -4.85 -28.75 -4.75 -28.7 -5.5 -27.15 -5.7 -26.95 -5.75 -26.85 -5.75 -26.75 -5.75 -26.65 -5.75 -26.6 -5.8 -26.4 -5.85 -26.4 -5.85 -26.35 -6.55 -25.0 -7.55 -23.0 -10.9 -18.0 -15.55 -10.6 -15.65 -10.5 -15.75 -10.4 -15.8 -10.3 -15.8 -10.2 -15.8 -10.15 -15.8 -10.05 -15.8 -9.95 -15.8 -9.85 -15.8 -9.75 -15.75 -9.65 -15.65 -9.6 -15.8 -9.4 Q-17.3 -6.45 -19.15 -3.6 L-19.3 -3.5 -19.4 -3.4 -19.45 -3.3 -19.45 -3.2 -19.45 -3.15 -19.45 -3.05 -19.45 -2.95 -19.45 -2.85 -20.35 -1.4 -20.35 -1.3 -20.35 -1.2 -20.35 -1.1 -20.35 -1.0 -20.3 -0.9 -20.25 -0.8 -20.05 -0.7 -19.75 -0.65 -19.5 -0.7 -19.3 -0.8 -19.25 -0.9 -17.55 -3.6 Q-16.5 -5.2 -15.9 -6.75 L-15.4 -7.65 -12.0 -13.8 -12.05 -13.9 -12.15 -14.0 -10.5 -16.4 -10.45 -16.45 -10.3 -16.5 -9.9 -16.8 -9.65 -16.95 -6.3 -22.9 -4.5 -26.35 -3.75 -28.05 -2.7 -30.35 -1.5 -33.3 -1.35 -33.4 -0.55 -34.75 0.7 -34.75 M2.4 -14.05 L5.05 -14.35 Q6.45 -14.65 7.0 -15.35 L7.05 -15.35 7.15 -15.25 7.35 -15.05 7.55 -14.95 7.85 -14.9 8.1 -14.95 8.25 -15.05 8.35 -15.15 8.4 -15.25 8.4 -15.55 8.4 -15.6 8.45 -15.75 8.7 -15.8 8.75 -15.85 8.9 -15.95 9.0 -16.05 9.0 -16.15 9.05 -16.2 9.05 -16.5 9.05 -17.15 9.05 -17.65 8.4 -19.8 Q8.0 -20.9 7.05 -21.75 L7.0 -21.95 6.85 -22.1 6.75 -22.2 6.7 -22.3 6.55 -22.4 6.45 -22.5 6.25 -22.6 6.05 -22.65 5.4 -23.9 5.4 -23.95 5.4 -24.05 5.3 -24.2 5.15 -24.4 4.9 -24.9 3.45 -27.25 3.2 -27.6 3.1 -27.75 2.9 -27.85 2.8 -27.95 2.5 -28.0 2.35 -28.0 2.35 -28.1 2.35 -28.2 2.35 -28.3 2.3 -28.35 2.2 -28.55 2.1 -28.65 2.0 -28.75 1.55 -28.85 0.05 -28.9 -0.25 -28.85 -0.6 -28.65 -0.75 -28.55 -0.85 -28.45 -0.85 -28.3 -0.85 -27.9 -0.85 -27.7 -0.85 -27.65 -1.3 -27.15 -2.9 -25.1 -3.0 -25.1 -3.1 -25.0 -3.3 -24.85 -3.5 -24.75 -3.55 -24.65 -3.8 -24.1 -5.25 -22.3 -5.25 -22.2 -5.2 -22.1 -5.2 -22.0 -5.15 -21.9 -4.95 -21.8 -4.85 -21.8 -4.95 -21.45 -5.9 -20.05 Q-6.95 -18.45 -6.95 -16.7 L-6.95 -16.6 -6.9 -16.5 -6.85 -16.4 -6.45 -16.25 -6.05 -16.15 -5.85 -16.2 -5.75 -16.2 -5.7 -16.3 -5.55 -16.4 -4.3 -16.55 -4.1 -16.65 -2.4 -16.65 -2.4 -16.6 -2.55 -16.5 -2.65 -16.4 -2.7 -16.3 -2.75 -16.2 -2.95 -16.2 -3.05 -16.15 -3.2 -16.05 -3.25 -15.95 -3.3 -15.9 -3.3 -15.8 -3.3 -15.7 -3.25 -15.5 -3.2 -15.4 -3.0 -15.3 -2.45 -15.2 -2.4 -15.25 -2.1 -15.2 2.35 -15.15 2.6 -15.1 2.8 -15.0 2.85 -14.9 2.9 -14.8 2.95 -14.65 2.9 -14.55 2.9 -14.45 2.8 -14.35 2.55 -14.2 2.35 -14.15 0.0 -14.15 2.35 -14.05 2.4 -14.05 M14.0 -5.35 L13.4 -6.95 13.25 -7.05 13.2 -7.2 Q13.1 -7.35 13.15 -7.5 L13.2 -7.6 13.25 -7.65 13.15 -7.9 11.7 -11.05 11.6 -11.05 11.45 -11.15 11.35 -11.25 11.3 -11.35 11.3 -11.45 11.3 -11.55 11.3 -11.65 11.3 -11.7 11.3 -11.8 11.3 -11.9 11.35 -12.0 11.45 -12.1 11.6 -12.2 11.9 -12.25 11.75 -12.35 11.55 -12.45 11.5 -12.45 11.35 -12.3 11.3 -12.2 11.2 -12.1 11.15 -12.05 10.95 -11.95 10.9 -11.9 10.8 -11.8 10.8 -11.7 10.7 -11.6 Q10.4 -11.4 10.1 -11.35 L10.3 -10.95 10.5 -10.6 10.7 -10.4 10.8 -10.3 11.0 -10.2 11.2 -10.15 11.35 -9.9 11.55 -9.65 13.15 -6.7 13.85 -5.25 14.8 -3.65 14.85 -3.55 14.85 -3.7 14.85 -3.85 Q14.25 -4.5 14.0 -5.35 M8.5 -11.65 L8.5 -11.75 8.45 -11.95 8.45 -12.05 8.5 -12.1 8.55 -12.2 8.55 -12.3 8.65 -12.35 8.7 -12.45 8.8 -12.55 9.0 -12.65 8.9 -12.7 8.8 -12.8 8.75 -12.9 8.7 -13.0 8.5 -13.1 8.25 -13.15 7.55 -13.15 7.3 -13.1 7.25 -13.1 7.1 -13.05 7.05 -12.95 7.0 -12.85 6.95 -12.75 6.95 -12.4 7.0 -12.2 7.05 -12.1 Q7.65 -11.7 8.5 -11.55 L8.55 -11.55 8.5 -11.65 M9.95 -12.65 L9.85 -12.6 9.9 -12.55 9.95 -12.65" fill="#616161" fill-rule="evenodd" stroke="none"/>
    <path d="M-0.55 -34.75 L-1.35 -33.4 -1.5 -33.3 -2.7 -30.35 -3.75 -28.05 -4.5 -26.35 -6.3 -22.9 -9.65 -16.95 -9.9 -16.8 -10.3 -16.5 -10.45 -16.45 -10.5 -16.4 -12.15 -14.0 -12.05 -13.9 -12.0 -13.8 -15.4 -7.65 -15.9 -6.75 Q-16.5 -5.2 -17.55 -3.6 L-19.25 -0.9 -19.3 -0.8 -19.5 -0.7 -19.75 -0.65 -20.05 -0.7 -20.25 -0.8 -20.3 -0.9 -20.35 -1.0 -20.35 -1.1 -20.35 -1.2 -20.35 -1.3 -20.35 -1.4 -19.45 -2.85 -19.45 -2.95 -19.45 -3.05 -19.45 -3.15 -19.45 -3.2 -19.45 -3.3 -19.4 -3.4 -19.3 -3.5 -19.15 -3.6 Q-17.3 -6.45 -15.8 -9.4 L-15.65 -9.6 -15.75 -9.65 -15.8 -9.75 -15.8 -9.85 -15.8 -9.95 -15.8 -10.05 -15.8 -10.15 -15.8 -10.2 -15.8 -10.3 -15.75 -10.4 -15.65 -10.5 -15.55 -10.6 -10.9 -18.0 -7.55 -23.0 -6.55 -25.0 -5.85 -26.35 -5.8 -26.4 -5.75 -26.6 -5.75 -26.65 -5.75 -26.75 -5.75 -26.85 -5.7 -26.95 -5.5 -27.15 -4.75 -28.7 -4.75 -28.75 -4.85 -28.75 -5.15 -28.8 -5.25 -28.9 -5.3 -28.9 -5.35 -29.0 -5.35 -29.1 -5.45 -29.3 -5.45 -29.35 -5.3 -29.55 -5.15 -29.75 -3.3 -33.25 -2.35 -34.75 -0.55 -34.75" fill="#797979" fill-rule="evenodd" stroke="none"/>
    <path d="M-9.75 -11.1 L-9.6 -11.35 -9.4 -11.45 -8.8 -11.7 -8.7 -11.7 -8.4 -11.8 -7.95 -11.85 -7.9 -11.95 -7.8 -12.05 -7.7 -12.1 -7.3 -12.15 -7.3 -12.2 -7.2 -12.2 -6.65 -12.3 -6.55 -12.4 -6.45 -12.45 -6.2 -12.55 -5.85 -12.75 -5.65 -12.8 -5.55 -12.9 -5.35 -12.9 -4.95 -12.95 -4.75 -13.0 -4.0 -13.05 -3.15 -12.8 Q-1.3 -13.0 0.5 -12.8 L5.15 -12.7 6.5 -12.55 8.85 -12.1 9.0 -12.0 Q10.75 -11.75 11.35 -10.15 L12.9 -7.15 13.85 -5.55 15.6 -2.35 15.9 -1.9 16.45 -1.05 16.5 -0.65 22.15 -0.9 21.1 -2.3 20.95 -2.6 Q20.1 -4.7 18.8 -6.3 L18.4 -6.85 Q17.3 -8.0 16.75 -9.25 L14.9 -12.3 14.4 -13.0 14.3 -13.2 13.8 -14.15 13.5 -14.55 12.9 -16.0 11.6 -18.3 9.55 -22.3 9.05 -23.25 8.9 -23.65 7.7 -25.6 7.65 -25.7 7.1 -26.75 6.15 -27.95 Q5.2 -28.9 4.6 -30.05 L4.45 -30.75 2.65 -34.1 2.4 -34.4 2.2 -34.75 3.9 -34.75 4.0 -34.85 4.05 -34.85 4.25 -34.9 4.4 -34.9 4.6 -34.85 4.75 -34.75 4.8 -34.65 4.85 -34.55 4.9 -34.45 4.9 -34.4 4.85 -34.3 4.9 -34.1 5.0 -33.8 5.15 -33.55 5.15 -33.45 5.15 -33.35 5.35 -32.95 5.6 -32.4 5.65 -32.3 6.15 -31.55 6.6 -30.7 7.95 -29.25 8.75 -28.4 8.9 -28.1 9.15 -27.6 9.25 -27.45 9.25 -27.35 9.25 -27.25 9.5 -26.8 9.75 -26.05 9.75 -25.95 9.95 -25.55 10.2 -24.9 10.25 -24.8 10.25 -24.7 10.25 -24.65 10.8 -23.9 11.2 -22.95 11.5 -22.55 11.85 -21.9 11.9 -21.8 11.9 -21.7 11.95 -21.65 12.05 -21.45 12.15 -21.15 12.2 -20.95 12.3 -20.75 12.45 -20.4 12.5 -20.15 12.6 -20.05 12.65 -19.95 12.7 -19.85 12.7 -19.75 12.8 -19.55 12.85 -19.4 12.95 -19.3 13.05 -19.2 13.1 -19.1 13.1 -19.0 13.15 -18.9 13.2 -18.8 13.25 -18.7 13.35 -18.65 13.35 -18.55 13.4 -18.45 13.4 -18.35 13.5 -18.25 13.55 -18.15 13.6 -18.05 13.65 -17.95 13.65 -17.9 13.65 -17.8 13.75 -17.6 13.9 -17.3 14.0 -17.05 14.05 -16.95 14.15 -16.85 14.3 -16.65 14.35 -16.55 14.4 -16.45 14.4 -16.4 14.7 -16.05 15.0 -15.35 15.1 -15.25 15.2 -15.15 15.25 -15.05 15.25 -14.95 15.35 -14.9 15.45 -14.8 15.55 -14.7 15.6 -14.6 15.6 -14.5 15.7 -14.4 15.8 -14.3 16.0 -14.15 16.05 -14.05 16.1 -13.95 16.15 -13.85 16.25 -13.75 16.35 -13.65 16.35 -13.55 16.45 -13.5 16.55 -13.4 16.8 -13.05 17.3 -12.45 17.35 -12.35 17.35 -12.25 17.4 -12.05 17.45 -11.95 17.5 -11.9 17.55 -11.8 17.6 -11.6 17.7 -11.5 17.75 -11.4 17.95 -11.3 18.3 -10.65 18.65 -9.7 18.75 -9.6 18.8 -9.55 18.85 -9.35 19.0 -9.05 19.1 -8.9 19.2 -8.8 19.3 -8.7 20.35 -6.65 21.45 -4.95 21.6 -4.85 21.65 -4.75 21.7 -4.65 21.75 -4.55 21.85 -4.45 21.95 -4.4 22.2 -4.0 22.45 -3.35 22.5 -3.25 22.55 -3.15 22.65 -3.05 22.75 -2.95 22.85 -2.8 23.0 -2.5 23.1 -2.3 23.15 -2.2 23.15 -2.15 23.15 -2.05 23.55 -1.35 24.0 -0.35 24.0 -0.25 23.85 0.25 23.6 0.25 23.5 0.25 23.45 0.25 14.95 -0.1 15.0 -0.15 14.9 -0.15 14.65 -0.2 14.5 -0.3 14.45 -0.4 14.45 -0.5 14.4 -0.6 14.4 -0.7 14.4 -0.8 14.35 -0.9 14.25 -1.05 14.25 -1.15 14.2 -1.35 14.2 -1.45 14.2 -1.55 13.95 -1.9 13.9 -2.1 13.8 -2.3 13.75 -2.4 13.7 -2.45 13.6 -2.65 13.55 -2.75 13.35 -3.25 13.2 -3.5 13.1 -3.7 13.0 -3.8 12.85 -3.95 12.8 -4.05 12.7 -4.25 12.7 -4.35 12.7 -4.45 12.6 -4.55 12.5 -4.7 12.5 -4.8 12.45 -5.0 12.4 -5.1 12.25 -5.3 12.25 -5.4 12.25 -5.45 12.25 -5.55 12.25 -5.6 12.2 -5.7 12.15 -5.75 12.1 -5.85 12.0 -5.95 12.0 -6.0 11.7 -6.4 11.5 -6.8 11.1 -7.65 10.8 -8.0 10.6 -8.2 10.55 -8.3 10.5 -8.4 10.45 -8.45 10.35 -8.55 10.2 -8.75 10.15 -8.85 10.0 -9.05 9.95 -9.15 9.85 -9.3 9.75 -9.4 9.6 -9.6 9.5 -9.7 9.4 -9.8 9.25 -10.0 9.15 -10.0 8.9 -10.05 8.8 -10.15 8.7 -10.25 8.5 -10.35 8.4 -10.4 7.5 -10.35 4.65 -10.6 4.55 -10.65 2.7 -10.7 1.05 -10.65 -4.8 -10.7 -4.95 -10.7 -5.15 -10.75 -6.5 -10.75 -6.5 -10.7 -6.7 -10.7 -6.85 -10.7 -6.95 -10.65 -7.05 -10.65 -8.2 -10.35 -8.25 -10.35 -8.4 -10.3 -8.5 -10.25 -8.65 -10.15 -8.8 -10.05 -8.85 -9.95 -8.95 -9.9 -9.05 -9.8 -9.15 -9.7 -9.2 -9.6 -9.3 -9.5 -9.3 -9.4 -9.35 -9.3 -9.4 -9.2 -9.4 -9.15 -9.6 -8.85 -9.65 -8.75 -9.7 -8.7 -9.8 -8.65 -9.85 -8.55 -9.95 -8.45 -10.0 -8.4 -10.05 -8.3 -10.15 -8.2 -10.2 -8.1 -10.3 -8.0 -10.3 -7.9 -10.35 -7.8 -10.4 -7.7 -10.4 -7.65 -12.5 -4.3 -13.6 -2.3 -13.65 -2.3 -13.65 -2.25 -13.75 -2.0 -13.7 -2.0 -13.75 -1.95 -13.8 -1.85 -13.8 -1.75 -13.85 -1.65 -13.9 -1.55 -13.9 -1.45 -13.9 -1.4 -13.9 -1.3 -13.9 -1.2 -13.95 -1.1 -13.95 -1.0 -13.95 -0.9 -14.0 -0.8 -14.05 -0.7 -14.05 -0.65 -14.15 -0.55 -14.2 -0.45 -14.3 -0.35 -14.3 -0.25 -14.35 -0.15 -14.4 -0.05 -14.45 0.05 -14.55 0.1 -14.6 0.2 -14.65 0.3 -14.7 0.4 -14.8 0.5 -14.8 0.6 -14.85 0.7 -14.85 0.75 -16.2 0.7 -17.25 0.7 -17.4 0.6 -20.05 0.65 -20.3 0.8 -20.4 0.7 -20.5 0.6 -20.6 0.5 -20.7 0.4 -20.8 0.3 -20.9 0.2 -20.95 0.1 -21.1 0.05 -21.3 -0.05 -21.4 -0.15 -21.5 -0.25 -21.6 -0.35 -21.7 -0.45 -21.75 -0.5 -21.8 -0.6 -21.8 -0.65 -21.85 -0.7 -21.85 -0.8 -21.8 -0.9 -21.8 -1.0 -21.75 -1.1 -21.75 -1.2 -21.7 -1.3 -21.65 -1.4 -21.6 -1.45 -21.55 -1.55 -21.55 -1.65 -21.5 -1.75 -21.45 -1.85 -21.45 -1.95 -21.4 -2.05 -21.4 -2.15 -21.35 -2.2 -21.3 -2.3 -21.3 -2.4 -21.25 -2.5 -21.25 -2.6 -21.25 -2.7 -21.25 -2.75 -21.2 -2.85 -21.15 -2.95 -21.1 -3.05 -21.05 -3.15 -21.0 -3.2 -20.95 -3.3 -20.9 -3.4 -20.9 -3.5 -20.8 -3.6 -20.75 -3.7 -20.7 -3.8 -20.65 -3.9 -20.6 -3.95 -20.55 -4.05 -20.55 -4.15 -20.5 -4.25 -20.45 -4.3 -19.95 -5.5 -19.95 -5.55 -19.9 -5.65 -19.85 -5.75 -19.8 -5.85 -19.75 -5.95 -19.7 -6.05 -19.65 -6.15 -19.55 -6.2 -19.45 -6.3 -19.4 -6.4 -19.35 -6.5 -19.3 -6.6 -19.25 -6.7 -19.2 -6.8 -19.2 -6.9 -19.2 -6.95 -19.15 -7.05 -19.05 -7.2 -19.0 -7.3 -19.0 -7.4 -19.0 -7.45 -18.9 -7.75 -18.65 -8.2 -18.55 -8.4 -18.5 -8.5 -18.5 -8.6 -18.5 -8.7 -18.4 -8.8 -18.35 -8.9 -18.3 -8.95 -18.3 -9.05 -18.25 -9.15 -18.2 -9.25 -18.05 -9.45 -17.95 -9.55 -17.75 -10.0 -17.5 -10.65 -17.45 -10.75 -17.4 -10.85 -17.3 -10.95 -17.25 -11.05 -17.25 -11.15 -17.15 -11.2 -17.05 -11.3 -16.95 -11.4 -16.85 -11.6 -16.75 -11.85 -16.65 -12.05 -16.55 -12.15 -16.4 -12.25 -16.35 -12.35 -16.3 -12.55 -16.15 -12.8 -16.05 -12.9 -15.8 -13.1 -15.35 -13.9 -14.85 -14.8 -14.75 -14.85 -14.55 -14.95 -14.45 -15.05 -14.05 -15.75 Q-13.75 -16.1 -13.6 -16.55 L-13.55 -16.65 -13.25 -17.05 -12.85 -17.4 -12.6 -17.85 -11.55 -19.6 -11.6 -19.8 -10.5 -21.95 -9.55 -23.7 -7.65 -27.2 -6.45 -29.9 -6.4 -30.0 -6.25 -30.1 -6.2 -30.1 -5.85 -30.95 -5.85 -31.05 -5.8 -31.15 -5.8 -31.25 -5.75 -31.35 -5.75 -31.45 -5.75 -31.55 -5.75 -31.65 -5.7 -31.7 -5.65 -31.8 -5.6 -31.9 -5.6 -32.0 -5.55 -32.2 -5.5 -32.4 -5.4 -32.45 -5.3 -32.55 -5.25 -32.65 -5.25 -32.75 -5.25 -32.85 -5.15 -32.95 -5.1 -33.05 -5.0 -33.2 -5.0 -33.3 -5.0 -33.4 -5.0 -33.5 -5.0 -33.6 -4.6 -34.05 -4.1 -34.45 -3.9 -34.45 -3.7 -34.75 -2.1 -34.75 -3.6 -32.45 -5.25 -29.05 -5.25 -29.0 -5.25 -28.9 -5.5 -28.25 -5.7 -27.4 Q-5.9 -26.1 -6.8 -24.85 L-7.15 -24.25 -7.25 -24.1 -7.7 -23.4 -7.75 -23.3 -7.75 -23.2 -7.75 -23.1 -7.75 -23.0 -8.35 -21.8 -9.1 -20.45 -9.2 -20.4 -9.3 -20.3 -9.4 -20.2 -9.5 -20.1 -9.6 -19.9 -9.75 -19.65 -10.7 -18.55 -11.35 -17.45 -11.45 -17.4 -11.5 -17.35 -12.5 -15.65 -13.1 -14.7 -16.75 -7.95 -18.05 -5.3 -18.4 -4.65 -19.3 -3.0 -19.45 -2.65 -19.55 -2.45 -19.55 -2.4 -19.55 -2.3 -19.55 -2.15 -19.6 -2.05 -19.65 -1.95 Q-19.8 -1.8 -20.0 -1.75 L-20.4 -1.2 -20.35 -1.15 -20.15 -1.1 -20.0 -1.0 -19.95 -0.9 -19.25 -0.9 -17.2 -1.05 -15.5 -1.2 -15.35 -1.5 -14.65 -2.6 Q-14.0 -3.7 -13.55 -4.95 L-13.4 -5.15 -13.15 -5.5 -12.8 -5.9 -12.8 -5.95 -12.6 -6.05 -12.5 -6.1 -12.4 -6.2 -12.3 -6.3 -12.25 -6.4 -12.2 -6.45 -12.15 -6.55 -12.0 -6.65 -11.9 -6.75 -11.85 -6.85 -11.8 -6.95 -11.75 -7.05 -11.7 -7.15 -11.65 -7.2 -11.55 -7.3 -11.55 -7.4 -11.5 -7.5 -11.45 -7.6 -11.4 -7.7 -11.35 -7.8 -11.3 -7.9 -11.2 -7.95 -11.15 -8.05 -11.0 -8.15 -10.9 -8.25 -10.85 -8.35 -10.7 -8.45 -10.65 -8.55 -10.6 -8.65 -10.55 -8.7 -10.5 -8.8 -10.4 -8.9 -10.35 -9.0 -10.3 -9.1 -10.25 -9.2 -10.25 -9.3 -10.2 -9.4 -10.15 -9.45 -10.05 -9.55 -10.0 -9.65 -9.9 -9.75 -9.85 -9.85 -9.8 -9.95 -9.75 -10.05 -9.75 -10.15 -9.7 -10.2 -9.7 -10.3 -9.7 -10.4 -9.65 -10.5 -9.65 -10.6 -9.65 -10.7 -9.65 -10.8 -9.65 -10.9 -9.65 -10.95 -9.7 -11.05 -9.75 -11.1 M7.3 -17.0 L7.25 -16.75 7.0 -16.55 -0.65 -16.45 -0.85 -16.3 -0.9 -16.3 -1.1 -16.25 -1.3 -16.2 -1.55 -16.0 -1.8 -15.8 -2.0 -15.75 -2.25 -15.8 -2.4 -15.9 -2.45 -16.0 -2.5 -16.1 -2.5 -16.2 -2.5 -16.3 -2.5 -16.4 -2.5 -16.45 -3.35 -16.45 -3.4 -16.4 -3.5 -16.2 Q-3.6 -16.0 -3.85 -16.0 L-5.75 -16.05 -5.9 -16.15 -5.95 -16.25 -6.0 -16.35 -6.0 -16.45 -6.0 -16.55 -6.0 -16.7 -6.0 -17.0 -5.95 -17.1 -5.95 -17.2 -5.85 -17.4 -5.85 -17.45 -5.85 -17.55 -5.85 -17.65 -5.85 -17.75 -5.8 -17.85 -5.75 -18.05 -5.75 -18.2 -5.65 -18.3 -5.6 -18.4 -5.5 -18.8 -5.15 -19.35 -4.9 -20.1 -4.3 -20.95 -4.2 -21.2 -3.9 -21.7 -3.8 -21.8 -3.2 -23.05 -2.55 -24.15 -2.15 -25.25 -1.55 -26.4 -1.55 -26.45 -1.55 -26.55 -1.5 -26.65 -1.45 -26.75 -1.35 -26.95 -1.25 -27.2 -0.9 -27.65 -0.5 -28.35 -0.35 -28.45 -0.1 -28.5 -0.05 -28.55 0.05 -28.6 0.25 -28.65 0.65 -28.65 1.05 -28.55 Q1.15 -28.45 1.25 -28.45 L1.35 -28.35 1.5 -28.25 2.05 -27.0 2.1 -26.95 2.8 -25.65 2.8 -25.55 2.8 -25.45 2.8 -25.35 2.85 -25.25 2.85 -25.15 2.95 -25.05 3.0 -24.95 3.0 -24.9 3.05 -24.8 3.1 -24.7 3.15 -24.6 3.7 -23.1 3.85 -22.8 4.05 -22.4 4.05 -22.35 4.1 -22.25 4.1 -22.15 4.2 -22.05 4.25 -21.95 4.25 -21.9 4.3 -21.8 4.35 -21.7 4.35 -21.6 4.4 -21.5 4.5 -21.4 4.6 -21.3 4.65 -21.25 4.85 -20.85 4.9 -20.75 5.0 -20.65 5.05 -20.55 5.1 -20.45 5.1 -20.4 5.15 -20.3 5.2 -20.2 5.3 -20.1 5.4 -20.0 5.5 -19.9 5.6 -19.8 5.7 -19.7 5.75 -19.65 5.8 -19.55 5.85 -19.45 5.9 -19.35 6.0 -19.25 6.1 -19.15 6.2 -19.05 6.25 -18.95 6.3 -18.9 6.35 -18.8 6.45 -18.7 6.55 -18.6 6.55 -18.5 6.6 -18.4 6.6 -18.3 6.7 -18.2 6.8 -18.15 6.85 -18.05 6.95 -17.95 7.05 -17.85 7.05 -17.75 7.1 -17.65 7.2 -17.55 7.25 -17.45 7.25 -17.4 7.3 -17.35 7.3 -17.2 7.3 -17.1 7.3 -17.0 M0.1 -27.4 L0.3 -27.6 0.7 -27.5 0.25 -27.65 0.1 -27.4 M1.7 -24.95 L1.55 -25.05 1.5 -25.15 0.65 -26.45 -1.0 -24.0 Q-1.85 -21.5 -3.25 -19.05 L-3.95 -17.8 -1.7 -17.45 -1.6 -17.45 -1.55 -17.5 -1.3 -17.8 -1.1 -17.7 -0.95 -17.7 -0.75 -17.65 0.2 -17.65 0.3 -17.6 0.35 -17.6 0.3 -17.55 0.4 -17.55 0.55 -17.55 0.75 -17.5 3.25 -17.5 3.45 -17.55 3.6 -17.55 3.65 -17.55 5.85 -17.65 5.6 -17.95 5.4 -18.15 4.45 -19.3 4.4 -19.35 4.4 -19.4 4.35 -19.5 4.35 -19.6 4.3 -19.7 4.2 -19.8 4.15 -19.9 4.1 -19.95 4.05 -20.05 4.0 -20.15 3.95 -20.25 3.85 -20.35 3.8 -20.45 3.7 -20.55 3.7 -20.65 3.65 -20.7 3.6 -20.8 3.55 -20.9 3.5 -21.0 3.45 -21.1 3.35 -21.2 3.3 -21.3 3.3 -21.4 3.25 -21.45 3.2 -21.55 3.15 -21.65 3.1 -21.75 3.1 -21.85 3.05 -21.95 2.95 -22.05 2.9 -22.15 2.85 -22.2 2.8 -22.3 2.75 -22.4 2.7 -22.5 2.7 -22.6 2.65 -22.7 2.6 -22.8 2.55 -22.9 2.5 -22.95 2.45 -23.05 2.4 -23.15 2.35 -23.25 2.35 -23.35 2.35 -23.45 2.35 -23.55 2.35 -23.65 2.35 -23.7 2.35 -23.8 2.35 -23.9 2.3 -24.0 2.3 -24.1 2.25 -24.2 2.2 -24.3 2.15 -24.4 2.1 -24.45 2.05 -24.55 2.0 -24.65 1.9 -24.75 1.8 -24.85 1.7 -24.95" fill="#000000" fill-rule="evenodd" stroke="none"/>
    <path d="M-9.75 -11.1 L-9.7 -11.05 -9.65 -10.95 -9.65 -10.9 -9.65 -10.8 -9.65 -10.7 -9.65 -10.6 -9.65 -10.5 -9.7 -10.4 -9.7 -10.3 -9.7 -10.2 -9.75 -10.15 -9.75 -10.05 -9.8 -9.95 -9.85 -9.85 -9.9 -9.75 -10.0 -9.65 -10.05 -9.55 -10.15 -9.45 -10.2 -9.4 -10.25 -9.3 -10.25 -9.2 -10.3 -9.1 -10.35 -9.0 -10.4 -8.9 -10.5 -8.8 -10.55 -8.7 -10.6 -8.65 -10.65 -8.55 -10.7 -8.45 -10.85 -8.35 -10.9 -8.25 -11.0 -8.15 -11.15 -8.05 -11.2 -7.95 -11.3 -7.9 -11.35 -7.8 -11.4 -7.7 -11.45 -7.6 -11.5 -7.5 -11.55 -7.4 -11.55 -7.3 -11.65 -7.2 -11.7 -7.15 -11.75 -7.05 -11.8 -6.95 -11.85 -6.85 -11.9 -6.75 -12.0 -6.65 -12.15 -6.55 -12.2 -6.45 -12.25 -6.4 -12.3 -6.3 -12.4 -6.2 -12.5 -6.1 -12.6 -6.05 -12.8 -5.95 -12.95 -5.9 -13.15 -5.9 -13.25 -5.9 -13.45 -5.9 -13.65 -5.95 -13.75 -6.05 -13.85 -6.15 -13.95 -6.25 -13.95 -6.35 -14.0 -6.45 -14.05 -6.55 -14.05 -6.65 -14.05 -6.7 -14.05 -6.8 -14.0 -6.9 -13.95 -7.0 -13.9 -7.1 -13.8 -7.2 -13.7 -7.3 -13.65 -7.4 -13.55 -7.45 -13.45 -7.55 -13.35 -7.65 -13.25 -7.75 -13.2 -7.85 -13.15 -7.95 -13.1 -8.05 -13.05 -8.15 -12.95 -8.2 -12.95 -8.3 -12.9 -8.4 -12.9 -8.5 -12.8 -8.6 -12.7 -8.7 -12.65 -8.8 -12.55 -8.9 -12.45 -8.95 -12.45 -9.05 -12.35 -9.15 -12.25 -9.25 -12.15 -9.35 -12.05 -9.45 -12.0 -9.55 -11.95 -9.65 -11.9 -9.7 -11.8 -9.8 -11.7 -9.9 -11.7 -10.0 -11.65 -10.1 -11.65 -10.2 -11.6 -10.3 -11.55 -10.4 -11.45 -10.45 -11.4 -10.55 -11.35 -10.65 -11.3 -10.75 -11.25 -10.85 -11.25 -10.95 -11.2 -11.05 -11.15 -11.15 -11.05 -11.2 -10.95 -11.3 -10.85 -11.4 -10.7 -11.45 -10.6 -11.5 -10.4 -11.5 -10.4 -11.55 -10.2 -11.5 -10.05 -11.45 -9.9 -11.35 -9.8 -11.25 -9.75 -11.15 -9.75 -11.1 M2.8 -25.65 L2.8 -25.7 2.8 -25.8 2.8 -25.9 2.85 -26.0 2.85 -26.1 2.95 -26.2 3.05 -26.3 3.1 -26.4 3.2 -26.45 3.3 -26.45 3.4 -26.5 3.6 -26.5 3.6 -26.55 3.8 -26.5 3.95 -26.45 4.1 -26.35 4.2 -26.25 4.25 -26.15 4.3 -26.05 4.35 -25.95 4.4 -25.9 4.45 -25.8 4.5 -25.7 4.55 -25.6 4.55 -25.5 4.6 -25.4 4.65 -25.3 4.7 -25.2 4.75 -25.15 4.75 -25.05 4.8 -24.95 4.85 -24.85 4.95 -24.75 4.95 -24.65 5.0 -24.55 5.05 -24.45 5.05 -24.4 5.05 -24.3 5.1 -24.2 5.2 -24.1 5.2 -24.0 5.25 -23.9 5.3 -23.8 5.35 -23.7 5.35 -23.65 5.35 -23.55 5.4 -23.45 5.45 -23.35 5.55 -23.25 5.55 -23.15 5.6 -23.05 5.6 -22.95 5.65 -22.9 5.7 -22.8 5.75 -22.7 5.8 -22.6 5.8 -22.5 5.85 -22.4 5.9 -22.3 6.05 -22.2 6.1 -22.15 6.15 -22.05 6.2 -21.95 6.25 -21.85 6.3 -21.75 6.35 -21.65 6.4 -21.55 6.45 -21.45 6.5 -21.4 6.5 -21.3 6.55 -21.2 6.6 -21.1 6.75 -21.0 6.85 -20.9 6.95 -20.8 7.05 -20.7 7.1 -20.65 7.15 -20.55 7.2 -20.45 7.25 -20.35 7.35 -20.25 7.45 -20.15 7.5 -20.05 7.55 -19.95 7.6 -19.9 7.7 -19.8 7.8 -19.7 7.85 -19.6 7.95 -19.5 7.95 -19.4 8.0 -19.3 8.1 -19.2 8.2 -19.15 8.25 -19.05 8.3 -18.95 8.35 -18.85 8.45 -18.75 8.45 -18.65 8.55 -18.55 8.6 -18.45 8.65 -18.4 8.7 -18.3 8.75 -18.2 8.8 -18.1 8.8 -18.0 8.8 -17.9 8.8 -17.8 8.85 -17.7 8.85 -17.65 8.85 -17.55 8.85 -17.45 8.85 -17.35 8.85 -17.25 8.85 -17.15 8.85 -17.05 8.85 -16.95 8.85 -16.9 8.85 -16.8 8.85 -16.7 8.85 -16.6 8.85 -16.5 8.85 -16.4 8.85 -16.3 8.85 -16.2 8.85 -16.15 8.85 -16.05 8.85 -15.95 8.85 -15.85 8.8 -15.75 8.8 -15.65 8.7 -15.55 8.65 -15.45 8.55 -15.4 8.45 -15.3 8.4 -15.3 8.3 -15.25 8.1 -15.2 7.9 -15.25 7.7 -15.3 7.6 -15.4 7.5 -15.5 7.4 -15.6 7.35 -15.7 7.35 -15.8 7.3 -15.9 7.3 -15.95 7.3 -16.05 7.3 -16.15 7.3 -16.25 7.3 -16.35 7.3 -16.45 7.3 -16.55 7.3 -16.65 7.3 -16.7 7.3 -16.8 7.3 -16.9 7.3 -17.0 7.3 -17.1 7.3 -17.2 7.3 -17.3 7.3 -17.35 7.25 -17.4 7.25 -17.45 7.2 -17.55 7.1 -17.65 7.05 -17.75 7.05 -17.85 6.95 -17.95 6.85 -18.05 6.8 -18.15 6.7 -18.2 6.6 -18.3 6.6 -18.4 6.55 -18.5 6.55 -18.6 6.45 -18.7 6.35 -18.8 6.3 -18.9 6.25 -18.95 6.2 -19.05 6.1 -19.15 6.0 -19.25 5.9 -19.35 5.85 -19.45 5.8 -19.55 5.75 -19.65 5.7 -19.7 5.6 -19.8 5.5 -19.9 5.4 -20.0 5.3 -20.1 5.2 -20.2 5.15 -20.3 5.1 -20.4 5.1 -20.45 5.05 -20.55 5.0 -20.65 4.9 -20.75 4.85 -20.85 4.85 -20.95 4.8 -21.05 4.75 -21.15 4.7 -21.2 4.65 -21.25 4.6 -21.3 4.5 -21.4 4.4 -21.5 4.35 -21.6 4.35 -21.7 4.3 -21.8 4.25 -21.9 4.25 -21.95 4.2 -22.05 4.1 -22.15 4.1 -22.25 4.05 -22.35 4.05 -22.4 4.05 -22.45 4.05 -22.55 4.0 -22.65 3.95 -22.7 3.85 -22.8 3.85 -22.9 3.8 -23.0 3.8 -23.1 3.8 -23.2 3.7 -23.3 3.65 -23.4 3.6 -23.45 3.6 -23.55 3.55 -23.65 3.5 -23.75 3.45 -23.85 3.45 -23.95 3.4 -24.05 3.35 -24.15 3.35 -24.2 3.3 -24.3 3.25 -24.4 3.2 -24.5 3.15 -24.6 3.1 -24.7 3.05 -24.8 3.0 -24.9 3.0 -24.95 2.95 -25.05 2.85 -25.15 2.85 -25.25 2.8 -25.35 2.8 -25.45 2.8 -25.55 2.8 -25.65 M6.95 -15.5 L7.1 -15.45 7.25 -15.35 7.35 -15.25 7.4 -15.15 7.45 -15.05 7.5 -14.95 7.5 -14.9 7.55 -14.8 7.55 -14.7 7.5 -14.6 7.45 -14.5 7.45 -14.4 7.35 -14.3 7.3 -14.2 7.2 -14.15 7.1 -14.05 7.05 -14.05 6.95 -14.0 6.75 -13.95 -1.15 -13.95 -1.35 -14.0 -1.55 -14.05 -1.65 -14.15 -1.75 -14.25 -1.85 -14.35 -1.9 -14.45 -1.9 -14.55 -1.95 -14.65 -1.95 -14.7 -1.95 -14.8 -1.95 -14.9 -1.9 -15.0 -1.9 -15.1 -1.8 -15.2 -1.7 -15.3 -1.65 -15.4 -1.55 -15.45 -1.45 -15.45 -1.35 -15.5 -1.15 -15.5 -1.15 -15.55 6.75 -15.55 6.95 -15.5" fill="#515151" fill-rule="evenodd" stroke="none"/>
  </g>
</svg>
