<?xml version="1.0" encoding="UTF-8" standalone="no"?>
<svg xmlns:ffdec="https://www.free-decompiler.com/flash" xmlns:xlink="http://www.w3.org/1999/xlink" ffdec:objectType="shape" height="84.8px" width="81.45px" xmlns="http://www.w3.org/2000/svg">
  <g transform="matrix(1.0, 0.0, 0.0, 1.0, 38.7, 84.55)">
    <path d="M3.75 -83.5 L5.95 -84.55 5.9 -84.3 5.65 -83.95 5.55 -83.85 5.5 -83.5 5.3 -83.1 5.2 -83.0 4.9 -82.8 4.45 -82.75 4.55 -82.6 4.65 -82.5 4.8 -82.45 4.85 -82.35 4.9 -82.25 4.95 -82.15 5.6 -81.45 6.1 -80.15 6.1 -80.05 6.1 -79.9 6.1 -79.8 6.25 -79.85 6.65 -80.0 7.0 -79.9 7.6 -79.55 7.7 -79.35 7.85 -79.25 Q7.85 -79.2 7.95 -79.2 L8.05 -79.1 8.4 -78.6 9.2 -77.7 9.25 -77.6 Q10.25 -76.9 9.95 -75.7 9.65 -74.6 8.9 -73.55 L8.85 -73.45 8.35 -73.25 8.35 -73.2 8.5 -72.9 8.75 -72.15 9.2 -72.3 10.25 -72.6 10.5 -72.65 10.7 -72.65 10.95 -72.6 11.0 -72.45 11.1 -72.4 11.2 -72.3 11.25 -72.2 11.3 -72.05 11.85 -71.6 12.65 -70.3 12.7 -70.1 12.85 -70.05 13.0 -70.0 13.05 -69.85 13.2 -69.6 13.45 -68.95 13.6 -68.45 13.5 -68.3 13.4 -68.2 13.4 -68.0 13.35 -67.85 12.8 -66.9 12.7 -66.5 12.9 -66.2 13.1 -65.15 13.1 -65.05 13.5 -64.3 13.75 -63.1 13.95 -62.65 14.15 -62.8 14.6 -63.0 14.9 -63.1 Q17.1 -62.9 17.65 -61.25 17.95 -60.3 17.7 -59.3 L17.75 -59.2 17.9 -59.0 17.95 -58.65 17.95 -58.55 17.7 -57.9 17.4 -57.0 16.95 -56.7 16.5 -56.5 16.55 -56.4 16.7 -56.25 16.8 -56.2 16.9 -56.05 17.05 -56.0 17.45 -55.15 17.65 -54.9 18.6 -54.95 19.25 -54.75 19.4 -54.5 19.5 -54.3 19.6 -54.1 20.05 -53.8 20.7 -53.35 20.75 -53.25 20.8 -53.15 20.85 -53.05 20.9 -52.9 20.95 -52.85 21.9 -51.6 22.35 -50.05 21.95 -49.3 21.4 -48.65 21.35 -48.55 21.05 -48.35 20.75 -48.35 20.65 -48.3 20.4 -48.3 20.25 -48.35 20.1 -48.4 20.05 -48.45 20.05 -48.4 20.1 -48.4 20.35 -48.2 20.6 -48.0 Q20.65 -47.9 20.8 -47.9 L20.9 -47.65 21.0 -47.4 21.2 -47.3 21.25 -47.25 21.4 -47.15 21.55 -46.7 21.75 -46.3 21.75 -46.25 21.75 -46.1 21.7 -45.9 22.0 -45.25 22.05 -45.15 22.2 -45.3 Q25.5 -45.7 26.15 -43.05 26.3 -42.15 26.8 -41.3 L26.8 -41.1 26.8 -41.0 26.7 -40.9 26.75 -40.8 26.8 -40.65 26.8 -40.5 26.8 -40.4 26.7 -40.1 26.5 -39.65 26.4 -39.35 26.3 -39.15 26.1 -38.9 25.85 -38.7 25.65 -38.6 25.4 -38.5 25.45 -38.5 25.6 -38.4 25.7 -38.3 26.4 -37.1 Q26.9 -36.3 26.9 -35.25 L27.3 -35.4 27.9 -35.45 29.05 -34.8 29.75 -33.85 29.85 -33.8 30.0 -33.65 30.1 -33.65 Q30.25 -33.25 30.5 -32.95 L30.65 -31.85 30.75 -31.6 30.9 -31.35 30.95 -31.1 30.7 -30.45 Q30.55 -30.05 30.55 -29.65 L29.95 -28.85 30.9 -27.45 Q31.25 -26.85 31.2 -26.1 L32.45 -26.15 33.05 -26.0 34.5 -23.7 35.25 -21.65 35.15 -21.5 35.05 -21.25 34.85 -20.95 34.75 -20.75 34.7 -20.5 34.5 -20.0 34.4 -19.95 34.05 -19.75 33.6 -19.7 33.65 -19.65 33.7 -19.55 33.8 -19.5 34.0 -19.4 34.0 -19.3 34.05 -19.2 34.1 -19.1 34.75 -18.4 35.3 -17.1 35.3 -17.0 35.25 -16.85 35.25 -16.75 35.4 -16.8 35.85 -16.95 36.2 -16.8 36.8 -16.5 36.9 -16.3 37.0 -16.25 37.15 -16.15 37.2 -16.05 37.6 -15.55 38.35 -14.65 38.4 -14.6 Q39.45 -13.9 39.1 -12.65 38.8 -11.55 38.1 -10.5 L38.0 -10.4 37.55 -10.15 37.7 -9.85 37.95 -9.1 38.35 -9.3 39.45 -9.6 39.7 -9.55 39.85 -9.6 40.1 -9.5 40.15 -9.45 40.25 -9.4 40.35 -9.25 40.4 -9.15 40.45 -9.1 41.05 -8.6 41.85 -7.3 41.9 -7.05 42.0 -7.0 42.2 -6.95 42.25 -6.85 42.35 -6.5 42.65 -5.9 42.75 -5.45 42.65 -5.3 42.6 -5.15 42.55 -4.95 42.55 -4.8 41.95 -3.9 Q41.75 -3.05 41.15 -2.25 L40.8 -2.05 40.35 -1.95 40.15 -1.95 39.85 -2.05 39.8 -2.1 39.7 -2.3 39.6 -2.55 39.85 -2.95 40.15 -3.55 40.95 -5.25 40.95 -5.35 40.9 -5.45 40.85 -5.6 40.75 -5.7 40.6 -5.7 40.5 -5.8 40.3 -6.2 39.95 -7.2 39.75 -7.45 39.55 -7.6 39.45 -7.75 39.2 -7.85 39.0 -8.05 38.55 -7.95 38.1 -7.85 38.0 -7.85 37.95 -7.8 37.9 -7.65 37.8 -7.45 37.8 -7.35 37.8 -7.3 37.8 -7.2 37.75 -7.15 37.55 -6.95 37.0 -6.7 36.9 -6.7 36.65 -6.7 36.25 -6.7 36.15 -6.7 36.1 -6.5 36.1 -6.35 36.0 -6.2 Q35.9 -5.5 36.2 -4.85 L36.8 -3.8 36.85 -3.7 37.05 -3.5 Q37.3 -3.2 37.7 -3.1 L37.85 -3.1 38.1 -3.15 38.9 -3.4 39.15 -3.4 39.25 -3.3 39.4 -3.35 39.5 -3.1 39.6 -2.85 39.6 -2.6 39.5 -2.45 39.1 -2.05 38.0 -1.6 37.75 -1.7 37.5 -1.7 37.15 -1.7 36.85 -1.75 36.05 -2.0 35.9 -2.1 35.85 -2.2 35.75 -2.3 35.7 -2.4 35.6 -2.45 35.45 -2.55 35.4 -2.65 35.35 -2.7 35.25 -2.85 35.2 -3.05 35.1 -3.15 35.05 -3.2 34.9 -3.25 34.8 -3.35 34.75 -3.5 34.65 -3.65 34.7 -4.1 34.55 -4.4 34.25 -5.05 34.2 -5.2 34.15 -5.35 34.2 -5.5 34.2 -5.65 34.15 -5.75 34.15 -5.85 34.1 -6.0 34.15 -6.15 34.3 -6.45 34.3 -6.7 34.45 -7.25 34.4 -7.4 34.2 -7.8 33.9 -8.55 33.9 -8.65 33.6 -8.95 Q33.05 -9.3 32.5 -9.45 L32.15 -9.8 31.35 -10.25 31.3 -10.4 30.5 -12.1 29.45 -14.4 Q29.9 -15.15 30.65 -15.7 L31.15 -16.0 31.55 -16.15 31.95 -16.3 31.7 -16.8 31.3 -17.7 31.25 -18.35 31.2 -18.5 31.15 -18.6 31.1 -18.7 31.05 -18.8 30.9 -18.65 30.25 -18.45 29.85 -18.5 29.25 -18.7 29.05 -18.75 28.8 -18.8 28.65 -18.9 28.55 -18.9 28.5 -19.0 28.45 -19.1 28.4 -19.25 28.0 -19.55 27.7 -20.2 27.75 -20.3 27.8 -20.45 27.8 -20.6 27.65 -20.9 27.4 -21.4 27.3 -21.55 27.15 -21.6 27.05 -21.65 26.95 -21.85 26.8 -22.15 26.75 -22.25 26.6 -22.35 26.5 -22.45 26.4 -22.55 26.25 -22.85 Q26.1 -23.05 26.1 -23.45 L26.8 -24.25 27.15 -24.5 27.4 -24.6 27.35 -24.65 27.6 -24.7 27.8 -24.8 27.05 -26.55 26.45 -27.85 26.2 -27.7 26.05 -27.65 25.6 -27.45 25.4 -27.45 25.1 -27.55 24.85 -27.7 24.35 -28.05 Q23.85 -28.3 23.7 -28.8 L23.55 -29.2 Q22.95 -29.7 22.6 -30.45 L21.7 -32.7 21.75 -32.85 21.9 -33.4 22.15 -33.85 22.2 -33.95 22.5 -34.1 22.5 -34.15 23.3 -34.45 23.5 -34.55 23.15 -35.35 22.25 -37.25 21.85 -37.1 20.35 -37.45 19.7 -37.65 19.1 -38.85 18.4 -40.35 18.25 -40.45 18.15 -40.5 18.05 -40.6 17.65 -41.4 17.25 -42.3 17.25 -42.4 17.55 -43.15 18.2 -43.8 18.45 -43.9 18.45 -43.95 18.65 -44.0 17.75 -45.9 17.6 -46.3 17.55 -46.3 Q16.95 -45.85 16.2 -45.85 L15.9 -45.85 15.5 -45.95 Q15.15 -46.1 15.1 -46.5 L15.0 -46.5 14.85 -46.55 14.75 -46.7 14.35 -47.5 14.0 -48.25 13.9 -48.45 13.9 -48.55 14.0 -48.7 13.95 -48.9 13.9 -49.0 13.85 -49.1 Q13.8 -49.05 13.75 -49.15 L13.6 -49.2 13.55 -49.3 13.45 -49.5 13.3 -49.85 13.2 -50.05 Q12.9 -50.15 12.8 -50.35 L12.5 -51.0 Q12.65 -51.85 13.4 -52.6 L14.0 -53.25 14.3 -53.35 13.8 -54.45 13.25 -55.65 12.65 -55.45 Q11.3 -55.5 10.7 -56.2 L10.15 -57.1 10.2 -57.2 10.15 -57.35 10.2 -57.5 9.6 -58.85 8.95 -60.25 9.0 -60.4 9.1 -60.65 9.15 -60.8 10.0 -61.5 10.25 -61.65 10.6 -61.8 10.75 -61.8 10.75 -61.85 Q10.5 -62.65 9.8 -63.05 L9.3 -64.15 8.75 -63.9 8.3 -63.75 8.05 -63.75 7.45 -63.75 7.25 -63.8 Q7.15 -63.8 7.15 -63.85 L6.45 -65.1 6.2 -65.65 6.15 -65.75 6.1 -65.9 6.0 -66.1 5.95 -66.15 5.85 -66.25 5.7 -66.3 5.6 -66.4 5.55 -66.5 5.5 -66.65 5.5 -66.7 5.45 -66.8 5.35 -67.0 5.2 -67.3 5.1 -67.5 4.95 -67.6 4.75 -67.7 4.6 -68.05 4.45 -68.35 4.4 -68.45 4.5 -68.6 4.5 -68.75 4.45 -68.85 4.4 -69.0 4.35 -69.1 4.4 -69.2 4.4 -69.3 4.4 -69.5 4.65 -69.85 4.85 -70.1 4.95 -70.2 5.2 -70.4 5.0 -70.8 4.75 -71.6 4.7 -71.75 4.4 -72.05 4.0 -72.25 3.9 -71.75 3.85 -71.65 Q4.0 -70.4 2.8 -69.85 L0.45 -69.4 0.4 -69.4 Q0.05 -69.45 -0.1 -69.65 L-0.15 -69.6 -0.3 -69.3 -0.7 -68.6 -0.3 -68.35 0.65 -67.75 0.75 -67.55 0.9 -67.4 1.0 -67.2 0.95 -67.1 0.95 -66.95 0.9 -66.8 0.9 -66.7 0.8 -66.6 0.8 -65.85 0.3 -64.4 0.15 -64.25 0.2 -64.1 0.25 -63.95 0.15 -63.85 0.05 -63.55 -0.3 -62.95 -0.6 -62.55 -0.8 -62.5 -0.95 -62.45 -1.1 -62.4 -1.2 -62.35 -2.3 -62.15 -2.7 -62.0 -2.8 -61.7 Q-3.05 -61.2 -3.45 -60.85 L-3.55 -60.75 -3.9 -60.0 Q-4.1 -59.45 -4.7 -59.1 L-4.9 -58.7 -4.65 -58.55 -4.25 -58.35 -3.95 -58.2 Q-2.7 -56.35 -3.75 -54.9 -4.25 -54.1 -5.2 -53.6 L-5.25 -53.55 -5.3 -53.25 -5.6 -53.0 -5.65 -52.95 -6.25 -52.75 Q-6.65 -52.45 -7.2 -52.4 L-7.7 -52.55 -8.15 -52.8 -8.2 -52.7 -8.2 -52.55 -8.2 -52.4 -8.25 -52.25 -8.2 -52.1 -8.65 -51.25 -8.75 -50.9 -8.05 -50.2 -7.8 -49.55 -7.9 -49.3 -8.0 -49.1 -8.1 -48.9 -8.05 -48.3 -8.0 -47.6 -8.05 -47.45 -8.1 -47.35 -8.15 -47.3 -8.2 -47.15 -8.25 -47.05 Q-8.25 -46.25 -8.6 -45.5 -8.95 -44.75 -9.55 -44.25 L-10.4 -44.1 -11.25 -44.1 -11.35 -44.1 -11.7 -44.2 -11.85 -44.4 -12.0 -44.45 -12.15 -44.65 -12.2 -44.75 -12.2 -44.85 -12.25 -44.65 -12.2 -44.3 -12.25 -44.15 -12.35 -43.9 Q-12.35 -43.7 -12.5 -43.65 L-12.45 -43.45 -12.4 -43.3 -12.4 -43.15 -12.6 -42.75 -12.8 -42.35 -12.9 -42.3 -13.05 -42.25 Q-13.15 -42.15 -13.25 -42.15 L-13.55 -41.55 -13.6 -41.45 -13.3 -41.35 Q-11.0 -39.1 -12.75 -36.95 L-13.65 -35.25 -13.8 -35.15 -13.9 -35.1 -14.05 -35.1 -14.1 -35.0 -14.15 -34.85 -14.25 -34.75 -14.35 -34.75 -14.65 -34.6 -15.15 -34.45 -15.45 -34.35 -15.65 -34.35 -15.95 -34.35 -16.3 -34.4 -16.5 -34.5 -16.7 -34.65 -16.7 -34.55 -16.7 -34.4 -16.7 -34.3 -17.2 -33.0 Q-17.55 -32.1 -18.3 -31.45 L-17.95 -31.25 -17.55 -30.75 -17.35 -29.5 Q-17.3 -28.85 -17.65 -28.35 L-17.65 -28.2 -17.65 -28.05 -17.65 -27.95 -17.9 -27.2 Q-18.1 -26.65 -18.65 -26.4 L-18.75 -26.15 -18.9 -25.9 -19.05 -25.7 -19.7 -25.55 -20.45 -25.1 -21.45 -25.05 -21.95 -23.45 Q-22.2 -22.8 -22.8 -22.4 L-22.0 -21.5 -21.75 -20.85 -22.65 -18.35 -23.8 -16.45 -24.0 -16.4 -24.2 -16.35 -24.6 -16.35 -24.75 -16.25 -25.05 -16.2 -25.55 -16.0 -25.65 -16.05 -25.95 -16.2 -26.35 -16.5 -26.35 -16.45 -26.35 -16.35 -26.35 -16.25 -26.35 -16.05 -26.4 -15.95 -26.45 -15.9 -26.5 -15.8 Q-26.35 -15.25 -26.6 -14.8 L-27.3 -13.55 -27.4 -13.5 -27.55 -13.45 -27.65 -13.4 -27.45 -13.3 -27.1 -13.1 -27.0 -12.65 -26.9 -12.0 -26.95 -11.85 -26.9 -11.7 -26.95 -11.5 -26.95 -11.45 -27.1 -10.85 -27.3 -9.65 -27.35 -9.6 Q-27.25 -8.35 -28.45 -7.8 -29.45 -7.4 -30.75 -7.3 L-30.85 -7.3 -31.35 -7.5 -31.5 -7.2 -31.9 -6.55 -31.5 -6.3 -30.6 -5.65 -30.5 -5.45 -30.3 -5.35 -30.25 -5.1 -30.3 -5.0 -30.3 -4.85 -30.3 -4.75 -30.35 -4.65 -30.4 -4.55 -30.4 -3.8 Q-30.6 -3.0 -30.95 -2.35 L-31.1 -2.15 -31.05 -2.05 -31.0 -1.85 -31.05 -1.75 -31.2 -1.45 -31.5 -0.8 -31.8 -0.45 -32.0 -0.45 -32.15 -0.4 -32.35 -0.3 -32.4 -0.25 -33.5 -0.1 -35.3 0.25 -35.7 0.1 -36.05 -0.2 -36.2 -0.3 -36.25 -0.6 -36.25 -0.75 -36.15 -1.0 -36.0 -1.1 -35.6 -1.2 -34.9 -1.35 -33.1 -1.75 -33.0 -1.85 -32.95 -1.95 -32.9 -2.05 -32.9 -2.15 -32.9 -2.3 -32.9 -2.45 -32.7 -2.85 -32.15 -3.75 -32.1 -4.05 -32.1 -4.35 -32.1 -4.5 -32.1 -4.75 -32.1 -5.05 -32.45 -5.35 -32.8 -5.6 -32.9 -5.7 -32.95 -5.65 -33.1 -5.65 -33.3 -5.65 -33.4 -5.55 -33.4 -5.5 -33.5 -5.45 -33.65 -5.45 -33.85 -5.55 -34.4 -5.8 -34.5 -5.85 -34.6 -6.0 -34.85 -6.35 -34.9 -6.45 -35.05 -6.35 -35.25 -6.3 -35.45 -6.25 -36.3 -5.25 -36.8 -4.1 -36.85 -4.0 -36.9 -3.75 -36.75 -3.0 -36.7 -2.9 -36.5 -2.75 -35.8 -2.25 -35.65 -2.05 -35.6 -1.85 -35.55 -1.75 -35.65 -1.55 -35.85 -1.3 -36.0 -1.15 -36.15 -1.15 Q-36.45 -1.05 -36.75 -1.3 L-37.7 -1.85 -37.85 -2.05 -38.05 -2.25 -38.25 -2.55 -38.35 -2.8 -38.7 -3.6 -38.7 -3.75 -38.7 -3.9 -38.6 -4.0 -38.6 -4.1 -38.65 -4.2 -38.6 -4.35 -38.6 -4.5 -38.6 -4.6 -38.5 -4.75 -38.4 -4.9 -38.35 -5.05 -38.35 -5.15 -38.4 -5.3 -38.4 -5.4 -38.35 -5.55 -38.25 -5.75 -37.9 -5.95 -37.75 -6.25 -37.45 -6.9 -37.35 -7.05 -37.25 -7.15 -37.15 -7.2 -36.95 -7.3 -36.9 -7.4 -36.85 -7.5 -36.75 -7.55 -36.6 -7.6 -36.25 -7.75 -36.1 -7.85 -35.6 -8.1 -35.55 -8.25 -35.35 -8.65 -34.9 -9.3 -34.8 -9.4 -34.75 -9.85 -35.05 -10.95 Q-34.95 -11.2 -35.0 -11.5 L-35.1 -12.4 -35.05 -12.55 -34.25 -14.2 -33.05 -16.45 -31.3 -16.35 -30.75 -16.15 -30.35 -15.95 -30.05 -15.7 -29.8 -16.2 -29.35 -17.05 -28.8 -17.55 -28.75 -17.65 -28.7 -17.75 -28.65 -17.85 -28.6 -17.95 -28.9 -18.0 -29.4 -18.4 -29.65 -18.75 -29.8 -19.3 -29.9 -19.5 -30.05 -19.7 -30.05 -19.85 -30.1 -20.0 -30.05 -20.1 -30.0 -20.2 -29.9 -20.3 -29.9 -20.8 -29.6 -21.45 -29.5 -21.5 -29.35 -21.55 -29.25 -21.65 -29.1 -21.95 -28.85 -22.45 -28.8 -22.6 -28.9 -22.75 -28.85 -22.9 -28.75 -23.1 -28.6 -23.4 -28.55 -23.5 -28.65 -23.65 -28.6 -23.75 -28.6 -23.9 -28.45 -24.25 -28.1 -24.7 -27.0 -24.65 -26.65 -24.6 -26.35 -24.45 -26.3 -24.5 -26.15 -24.35 -25.95 -24.25 -25.1 -25.9 -24.45 -27.15 -24.65 -27.3 -24.85 -27.35 -25.3 -27.65 -25.35 -27.8 -25.45 -28.0 -25.5 -28.35 -25.55 -29.0 -25.4 -29.95 -25.15 -30.35 -24.75 -31.75 -23.55 -33.95 Q-23.5 -33.9 -23.4 -34.0 L-22.85 -34.2 -22.45 -34.3 -22.25 -34.3 -22.0 -34.15 -22.0 -34.2 -21.15 -33.75 -21.0 -33.65 -20.6 -34.45 -19.65 -36.35 -20.0 -36.6 -20.65 -38.0 -20.9 -38.6 -20.35 -39.85 -19.6 -41.3 -19.65 -41.45 -19.65 -41.6 -19.65 -41.7 -19.25 -42.5 -18.85 -43.35 -18.8 -43.45 -17.9 -43.7 -17.1 -43.6 -16.8 -43.45 -16.75 -43.5 -16.6 -43.35 -15.65 -45.25 -15.45 -45.65 -15.55 -45.7 Q-16.2 -45.85 -16.65 -46.4 L-16.85 -46.6 -17.05 -47.05 -16.9 -47.7 -16.9 -47.75 -16.95 -47.95 -16.95 -48.1 -16.55 -48.9 -16.2 -49.65 -16.05 -49.85 -15.95 -49.9 -15.8 -49.95 -15.7 -50.05 -15.65 -50.15 -15.6 -50.3 -15.6 -50.4 -15.65 -50.55 -15.65 -50.65 -15.55 -50.9 -15.4 -51.2 -15.3 -51.4 -15.3 -51.95 -14.95 -52.55 -13.1 -52.85 -12.25 -52.75 -11.95 -52.6 -11.4 -53.65 -10.8 -54.85 -11.45 -55.2 Q-12.2 -56.25 -12.0 -57.1 L-11.65 -58.15 Q-11.55 -58.15 -11.55 -58.2 L-11.45 -58.25 -11.3 -58.35 -10.6 -59.7 -9.95 -61.05 Q-9.85 -61.05 -9.75 -61.15 L-9.5 -61.2 -9.35 -61.25 -8.3 -61.05 -8.0 -60.95 -7.65 -60.7 -7.6 -60.6 -7.55 -60.65 Q-7.1 -61.3 -7.15 -62.15 L-6.6 -63.2 -7.2 -63.45 -7.6 -63.75 -7.75 -63.95 -8.1 -64.45 -8.2 -64.6 -8.2 -64.75 -7.65 -66.05 -7.4 -66.6 -7.35 -66.65 -7.3 -66.8 -7.2 -67.05 -7.15 -67.1 -7.15 -67.2 -7.2 -67.35 -7.2 -67.55 -7.15 -67.6 -7.05 -67.75 -7.05 -67.8 -7.0 -67.9 -6.9 -68.1 -6.75 -68.4 -6.65 -68.6 -6.65 -68.8 -6.65 -68.95 -6.5 -69.35 -6.35 -69.65 -6.25 -69.7 -6.2 -69.75 -6.0 -69.85 -5.95 -69.95 -5.9 -70.1 -5.85 -70.15 -5.75 -70.2 -5.65 -70.3 -5.5 -70.4 -5.1 -70.4 -4.7 -70.45 -4.6 -70.45 -4.3 -70.3 -4.1 -70.75 -3.65 -71.4 -3.55 -71.5 -3.5 -72.0 -3.85 -73.05 -3.75 -73.6 -3.85 -74.5 -3.85 -74.65 -3.0 -76.3 -1.85 -78.5 -0.05 -78.45 0.5 -78.3 0.8 -78.1 1.45 -78.75 1.75 -78.95 1.85 -79.15 2.4 -79.65 2.45 -79.75 2.5 -79.85 2.55 -79.85 2.45 -80.05 2.35 -80.05 1.85 -80.45 1.6 -80.85 1.45 -81.45 1.9 -81.2 2.15 -80.7 2.1 -81.1 2.05 -81.45 2.0 -81.55 1.95 -81.65 1.9 -81.7 1.9 -81.8 1.7 -81.65 1.05 -81.45 0.65 -81.55 0.05 -81.8 3.55 -83.4 3.7 -83.35 3.75 -83.5 M4.95 -78.85 L5.05 -79.0 5.3 -79.3 5.25 -79.35 5.2 -79.5 5.15 -79.6 5.2 -79.85 5.2 -80.0 4.75 -80.95 4.55 -81.45 4.35 -81.55 4.25 -81.55 4.15 -81.8 4.05 -82.0 3.45 -82.5 3.1 -82.6 2.9 -82.35 2.8 -82.15 Q2.8 -81.95 2.95 -81.7 L2.9 -81.35 3.3 -80.5 3.45 -80.15 3.75 -79.5 3.75 -79.45 4.1 -79.25 4.3 -79.1 4.65 -78.8 4.75 -78.8 5.0 -78.8 4.95 -78.85 M3.8 -78.2 L3.75 -78.3 3.7 -78.4 3.6 -78.4 3.4 -78.5 3.35 -78.6 3.35 -78.65 2.8 -77.95 2.2 -77.45 2.85 -76.1 2.9 -76.0 Q3.25 -74.95 3.95 -74.2 L4.2 -74.0 4.3 -73.95 4.6 -73.8 4.35 -74.3 4.25 -74.5 4.3 -74.65 4.4 -75.0 4.7 -75.25 5.55 -75.65 5.75 -75.65 6.55 -75.55 6.6 -75.6 6.95 -75.45 7.1 -75.35 7.15 -75.25 7.2 -75.2 7.3 -75.15 7.5 -75.1 7.55 -74.95 7.6 -74.9 7.65 -74.75 7.8 -74.7 7.85 -74.9 Q8.3 -75.45 8.25 -76.05 L8.2 -76.15 8.15 -76.3 8.1 -76.35 7.95 -76.45 7.85 -76.5 7.75 -76.75 Q7.7 -76.7 7.65 -76.8 L7.55 -76.9 7.45 -77.0 7.3 -77.0 7.25 -77.1 7.2 -77.2 7.1 -77.45 7.05 -77.55 6.95 -77.55 6.8 -77.7 6.7 -77.8 6.7 -77.9 6.6 -78.0 6.5 -78.0 6.35 -78.15 6.25 -78.25 6.25 -78.3 6.05 -78.25 5.9 -78.2 5.8 -78.15 5.7 -78.15 5.55 -78.15 5.35 -78.15 5.2 -78.25 5.2 -78.2 4.85 -78.1 4.65 -78.0 4.4 -77.9 4.2 -78.0 4.0 -78.1 3.95 -78.1 3.8 -78.2 M0.85 -76.2 L0.55 -76.8 0.15 -76.95 -0.65 -77.05 -1.3 -75.7 -2.15 -73.65 -2.05 -73.35 -1.95 -72.9 -1.6 -73.65 -1.55 -73.65 -1.15 -73.8 -0.85 -73.75 0.0 -73.3 0.2 -73.1 0.55 -72.45 0.6 -72.45 0.7 -72.1 0.75 -71.95 0.75 -71.8 0.7 -71.7 0.7 -71.6 0.8 -71.45 0.75 -71.35 0.7 -71.25 0.65 -71.1 0.7 -70.95 0.85 -71.0 Q1.6 -71.0 2.0 -71.45 L2.05 -71.55 2.1 -71.7 2.15 -71.75 2.2 -71.95 2.15 -72.0 2.25 -72.25 2.3 -72.35 2.3 -72.5 2.25 -72.7 2.15 -72.8 2.25 -72.9 2.3 -73.0 2.4 -73.2 2.15 -73.35 2.1 -73.45 2.0 -73.75 1.35 -75.1 1.15 -75.6 1.1 -75.6 1.1 -75.65 0.85 -76.2 M5.15 -74.75 L5.9 -73.15 5.95 -73.15 6.45 -72.55 6.55 -72.3 6.55 -72.1 6.55 -72.05 6.5 -71.9 6.75 -71.7 6.8 -71.65 6.95 -71.4 8.0 -71.75 7.95 -71.95 7.75 -72.35 7.65 -72.6 7.4 -72.8 7.25 -72.95 7.4 -73.3 7.25 -73.45 7.2 -73.5 7.35 -73.8 7.3 -73.9 7.25 -74.05 7.1 -74.1 6.95 -74.1 6.85 -74.35 6.8 -74.45 6.15 -74.8 5.95 -74.95 Q5.55 -75.1 5.15 -74.75 M10.15 -67.7 L10.55 -67.6 10.95 -67.45 11.15 -67.25 11.25 -67.2 11.55 -66.9 Q11.6 -66.8 11.75 -66.8 11.75 -66.75 11.85 -66.75 L11.9 -66.75 12.1 -67.1 12.5 -67.8 12.4 -67.75 11.95 -67.7 11.65 -67.65 11.5 -67.7 11.35 -67.85 11.15 -68.25 11.05 -68.45 10.9 -68.45 10.7 -68.6 10.55 -68.9 10.4 -69.2 10.2 -69.7 10.1 -69.85 9.95 -69.9 9.85 -70.05 9.8 -70.1 9.7 -70.35 9.6 -70.55 9.5 -70.75 9.25 -70.75 9.1 -70.8 8.8 -70.75 8.75 -70.7 6.9 -69.85 6.2 -69.4 6.2 -69.35 6.25 -69.2 6.25 -69.05 6.3 -68.95 6.35 -68.85 6.65 -68.5 6.9 -67.85 6.95 -67.75 7.1 -67.6 7.35 -67.35 7.75 -66.65 7.75 -66.6 8.35 -65.25 8.5 -65.2 8.65 -65.2 8.85 -65.2 8.5 -65.9 8.55 -66.05 8.65 -66.15 8.6 -66.2 8.55 -66.35 8.45 -66.65 8.3 -66.85 8.45 -67.0 8.4 -67.0 8.55 -67.45 8.7 -67.65 9.35 -67.85 9.65 -67.95 10.05 -67.8 10.15 -67.7 M11.5 -65.0 L11.5 -65.1 11.55 -65.25 11.5 -65.4 11.05 -65.8 11.05 -65.85 10.85 -66.25 10.75 -66.45 Q10.25 -66.7 9.75 -67.1 L9.7 -67.1 9.25 -67.05 9.25 -67.0 9.3 -66.95 9.45 -66.65 9.55 -66.4 9.5 -66.4 9.5 -66.3 9.4 -66.15 9.85 -65.1 10.15 -64.45 10.55 -63.6 11.55 -62.1 11.9 -61.4 12.45 -61.15 12.6 -60.95 Q13.05 -60.85 13.2 -61.25 L13.25 -61.55 13.2 -61.65 13.25 -61.8 13.3 -61.95 13.2 -62.2 13.0 -62.6 12.85 -63.0 12.85 -63.15 12.95 -63.3 12.5 -64.25 12.25 -64.75 12.4 -65.0 12.3 -65.15 12.15 -65.5 11.95 -65.25 11.65 -65.05 11.5 -65.0 M14.8 -57.85 L14.95 -57.9 15.15 -57.95 15.35 -57.9 15.5 -57.75 15.6 -57.55 15.75 -57.5 15.9 -57.4 15.9 -57.55 16.05 -57.8 16.15 -58.25 16.1 -58.5 16.1 -58.6 16.0 -58.75 15.9 -58.95 15.85 -59.05 15.9 -59.2 15.9 -59.4 16.05 -59.6 16.1 -59.75 15.85 -60.3 15.45 -61.1 15.35 -61.35 15.25 -61.4 15.1 -61.45 14.75 -61.6 14.6 -61.65 14.2 -61.6 14.15 -61.6 13.9 -60.75 13.15 -60.35 12.7 -60.2 12.45 -60.1 12.4 -60.05 12.25 -60.1 12.15 -60.2 12.05 -60.35 11.95 -60.4 11.8 -60.4 11.65 -60.45 11.55 -60.55 11.4 -60.75 11.15 -60.85 10.85 -60.35 11.65 -58.8 Q12.1 -58.15 12.0 -57.35 L12.15 -57.3 12.35 -57.1 12.4 -57.0 13.2 -56.9 13.5 -57.2 13.75 -57.35 14.8 -57.85 M16.25 -55.4 L16.05 -55.45 16.05 -55.55 15.9 -55.85 15.85 -55.95 15.65 -56.0 15.55 -56.1 15.4 -56.4 15.2 -56.8 15.1 -56.9 14.85 -57.05 14.8 -57.1 Q14.55 -57.25 14.3 -56.85 L14.0 -56.6 14.0 -56.35 14.1 -55.9 14.25 -55.8 14.5 -55.7 14.5 -55.6 14.4 -55.25 14.95 -54.15 15.25 -53.55 15.35 -53.5 15.6 -53.35 15.65 -53.3 15.6 -53.2 15.65 -53.1 15.7 -53.1 15.8 -52.85 16.0 -52.45 16.45 -52.3 17.0 -52.2 17.25 -52.85 17.3 -53.35 17.3 -53.4 17.05 -53.35 16.8 -53.5 16.65 -53.7 16.55 -53.9 16.55 -54.0 16.6 -54.2 16.7 -54.35 16.8 -54.45 16.8 -54.5 16.75 -54.5 16.65 -54.75 16.4 -55.35 16.25 -55.4 M16.05 -51.5 L15.95 -51.55 15.0 -52.05 14.7 -51.8 14.4 -51.45 14.6 -51.0 14.95 -50.45 15.1 -50.35 15.2 -50.25 15.3 -50.25 15.55 -49.75 Q15.85 -49.35 15.7 -48.85 L15.75 -48.7 16.0 -48.15 16.1 -48.0 16.55 -47.5 16.6 -47.4 17.0 -47.55 17.2 -47.6 17.2 -47.65 17.15 -47.75 17.1 -47.85 17.25 -48.1 17.2 -48.2 17.15 -48.25 17.1 -48.35 17.45 -48.85 17.55 -49.1 17.9 -49.4 18.85 -49.5 18.9 -49.45 19.25 -49.25 19.4 -49.15 19.5 -49.15 19.6 -48.9 19.85 -48.75 19.95 -48.6 19.95 -48.7 20.0 -48.95 20.05 -49.15 20.1 -49.4 20.3 -49.65 20.55 -49.85 20.35 -50.6 19.85 -51.6 19.6 -51.75 19.45 -51.9 19.3 -52.15 18.95 -52.35 18.45 -52.7 18.25 -52.9 18.15 -53.1 18.1 -52.8 18.05 -52.55 17.95 -52.35 17.85 -52.2 17.6 -51.85 17.55 -51.75 17.35 -51.6 16.95 -51.4 16.05 -51.5 M20.35 -46.75 L20.25 -46.95 20.15 -47.25 20.1 -47.25 20.1 -47.3 Q20.05 -47.25 19.95 -47.35 L19.85 -47.35 19.75 -47.5 19.7 -47.6 19.65 -47.7 19.5 -47.75 19.4 -47.8 19.35 -47.9 19.25 -48.0 19.25 -48.1 18.95 -48.4 Q18.8 -48.4 18.75 -48.55 L18.35 -48.6 18.25 -48.6 Q18.0 -48.2 18.15 -47.9 L18.0 -47.45 18.1 -47.35 18.9 -45.6 19.35 -44.55 20.05 -43.95 20.4 -43.5 20.4 -43.25 20.55 -43.2 Q21.05 -43.2 21.35 -43.7 L21.4 -43.8 21.4 -44.0 21.4 -44.2 21.5 -44.35 21.1 -45.2 20.8 -45.8 20.8 -45.95 20.9 -46.1 20.8 -46.35 20.65 -46.65 20.5 -46.7 20.35 -46.75 M23.6 -39.6 L23.65 -39.65 23.9 -39.75 24.05 -39.65 24.25 -39.45 24.55 -39.3 24.75 -39.55 25.05 -40.15 25.1 -40.3 25.0 -40.45 25.0 -40.55 24.95 -40.65 24.9 -40.8 24.95 -40.9 24.75 -41.05 24.15 -42.35 23.45 -43.9 23.3 -43.95 23.1 -44.0 23.0 -44.1 22.8 -44.05 22.35 -44.05 22.3 -44.0 22.3 -43.95 22.1 -43.4 21.85 -43.05 20.85 -42.5 19.55 -42.6 19.2 -42.7 19.05 -42.6 19.2 -42.3 19.45 -41.75 19.5 -41.65 19.65 -41.6 19.8 -41.55 19.8 -41.45 20.35 -40.3 20.95 -39.0 Q21.45 -38.7 22.25 -38.6 L22.3 -38.85 22.6 -39.2 23.6 -39.6 M24.65 -38.0 L24.35 -38.1 24.0 -38.35 23.95 -38.45 23.9 -38.5 23.85 -38.65 23.6 -38.85 23.5 -38.85 23.1 -38.75 23.05 -38.7 23.0 -38.35 23.05 -38.3 23.1 -38.2 23.1 -38.1 23.0 -37.85 24.4 -34.85 25.1 -33.4 25.1 -33.35 25.35 -33.25 25.6 -33.15 26.05 -33.8 26.1 -33.85 26.15 -34.0 26.15 -34.25 26.05 -34.45 26.1 -34.7 26.1 -34.85 26.05 -34.95 26.0 -35.1 26.1 -35.3 26.05 -35.4 25.4 -36.9 25.35 -37.0 25.0 -37.75 24.65 -38.0 M27.4 -30.25 L27.7 -30.35 27.9 -30.4 28.85 -29.85 28.85 -30.0 28.8 -30.1 28.8 -30.2 28.85 -30.35 28.95 -30.65 29.05 -30.95 29.05 -31.15 28.95 -31.55 29.0 -31.85 28.9 -32.0 28.8 -32.35 28.65 -32.55 28.6 -32.6 28.45 -32.7 28.3 -32.75 28.2 -32.95 28.0 -33.35 27.9 -33.6 27.5 -33.8 26.95 -34.05 26.95 -33.9 26.4 -32.8 26.15 -32.6 25.8 -32.35 25.5 -32.35 24.75 -32.45 24.5 -32.65 24.35 -32.75 24.0 -33.5 23.8 -33.35 23.55 -33.1 23.95 -32.0 24.6 -30.55 24.65 -30.5 24.8 -30.4 24.95 -30.35 25.0 -30.25 25.05 -30.15 25.2 -29.8 25.4 -29.4 25.55 -29.35 25.65 -29.25 25.8 -29.1 26.0 -29.05 26.2 -29.0 26.3 -29.0 26.35 -29.15 26.9 -29.8 26.95 -29.8 27.3 -30.15 27.4 -30.25 M28.9 -28.35 L28.65 -28.3 28.45 -28.4 28.3 -28.55 28.2 -28.9 28.35 -29.1 28.2 -29.25 27.6 -29.55 27.35 -29.15 27.2 -28.85 27.2 -28.8 27.3 -28.65 27.15 -28.5 27.2 -28.3 28.05 -26.45 28.65 -25.2 28.7 -25.15 28.95 -25.05 29.0 -24.95 29.0 -24.9 29.35 -24.7 29.6 -24.65 30.1 -25.15 30.25 -25.65 30.35 -26.2 29.9 -27.1 29.55 -27.9 29.45 -28.0 29.3 -28.05 29.2 -28.15 29.15 -28.25 29.1 -28.35 28.9 -28.35 M32.3 -23.65 L32.25 -23.7 32.1 -23.95 32.0 -24.4 31.65 -24.8 31.5 -24.7 30.9 -24.55 30.65 -24.5 30.4 -24.3 30.3 -24.2 30.1 -24.1 29.45 -23.8 Q29.05 -23.8 28.75 -24.05 L28.6 -24.15 28.45 -23.95 28.2 -23.55 Q28.35 -22.9 28.75 -22.3 L29.55 -21.0 29.55 -20.9 29.5 -20.75 29.5 -20.55 29.65 -20.45 Q29.85 -20.3 30.1 -20.25 L30.25 -20.25 30.4 -20.15 30.45 -20.05 30.55 -19.9 30.65 -19.9 30.75 -20.0 30.95 -20.2 31.55 -20.5 31.85 -20.5 32.3 -20.55 32.75 -20.35 32.9 -20.25 32.9 -20.3 32.9 -20.5 32.95 -20.55 32.95 -20.75 33.0 -20.9 33.1 -21.0 33.4 -21.45 33.25 -22.3 32.55 -23.5 32.5 -23.6 32.3 -23.65 M32.25 -19.55 L32.1 -19.35 32.0 -19.15 32.1 -18.7 32.05 -18.3 32.6 -17.15 32.9 -16.45 33.45 -16.05 33.8 -15.8 33.9 -15.75 34.15 -15.8 34.2 -16.0 34.45 -16.3 34.35 -16.55 34.4 -16.85 34.4 -16.95 33.95 -17.9 33.7 -18.45 33.5 -18.5 33.4 -18.55 33.3 -18.75 33.2 -18.95 Q32.85 -19.15 32.6 -19.5 L32.25 -19.55 M33.0 -15.15 L32.95 -15.25 32.9 -15.35 32.75 -15.4 32.6 -15.45 32.55 -15.55 32.5 -15.6 Q32.4 -15.2 31.95 -14.95 L31.4 -14.35 32.0 -13.05 Q32.4 -11.95 33.15 -11.1 L33.4 -11.0 33.8 -10.75 33.45 -11.5 33.45 -11.65 33.6 -11.95 33.85 -12.2 34.7 -12.6 34.95 -12.6 35.7 -12.5 35.8 -12.5 36.1 -12.4 36.3 -12.35 36.3 -12.25 36.35 -12.15 36.45 -12.1 36.65 -12.05 36.7 -11.95 36.75 -11.85 36.8 -11.7 36.95 -11.65 37.05 -11.8 37.4 -13.0 37.4 -13.1 37.35 -13.2 37.25 -13.35 37.15 -13.4 Q37.05 -13.4 37.05 -13.45 L36.95 -13.7 36.85 -13.75 36.75 -13.85 36.65 -13.9 36.45 -14.0 36.45 -14.05 36.4 -14.2 36.3 -14.4 36.25 -14.5 36.1 -14.55 36.0 -14.65 35.9 -14.75 35.85 -14.85 35.8 -15.0 35.65 -15.05 35.55 -15.05 35.4 -15.2 35.4 -15.25 35.2 -15.25 35.0 -15.15 34.75 -15.1 34.5 -15.1 34.35 -15.2 34.35 -15.15 33.85 -14.9 33.6 -14.85 33.4 -14.9 33.2 -15.1 33.0 -15.1 33.0 -15.15 M36.0 -11.4 L35.3 -11.8 35.15 -11.95 Q34.7 -12.05 34.35 -11.65 L35.05 -10.15 35.1 -10.15 35.65 -9.45 35.7 -9.25 35.7 -9.15 35.7 -9.0 35.65 -8.85 35.9 -8.7 36.0 -8.65 36.35 -7.8 36.6 -7.35 Q37.2 -7.65 37.2 -8.25 L37.2 -8.3 37.2 -8.35 37.2 -8.5 Q37.1 -8.7 37.15 -8.85 L36.95 -9.25 36.8 -9.65 36.55 -9.75 36.45 -9.85 Q36.35 -10.1 36.6 -10.25 L36.45 -10.4 36.4 -10.5 36.5 -10.8 36.45 -10.95 36.25 -11.1 36.1 -11.1 36.0 -11.3 36.0 -11.4 M-1.7 -71.45 L-1.85 -70.65 -2.0 -70.45 -2.1 -70.3 -2.2 -70.3 -2.3 -70.25 -2.3 -69.9 -2.3 -69.85 -2.45 -69.55 -1.5 -68.95 -1.35 -69.15 -1.15 -69.55 -1.0 -69.8 -1.05 -70.1 -1.05 -70.2 -0.65 -70.4 -0.6 -70.6 -0.55 -70.7 -0.3 -70.75 -0.25 -70.85 -0.15 -70.95 -0.25 -71.05 -0.3 -71.3 -0.15 -71.5 -0.1 -71.6 -0.2 -72.3 -0.25 -72.55 Q-0.4 -72.95 -0.9 -73.05 L-1.7 -71.5 -1.7 -71.45 M-3.3 -64.7 L-3.2 -64.4 -3.0 -63.95 -3.0 -63.7 -3.0 -63.6 -3.1 -63.15 -3.05 -62.95 -3.05 -62.85 -3.0 -62.8 -2.55 -62.85 -1.75 -63.0 -1.9 -63.05 -2.2 -63.35 -2.45 -63.6 -2.45 -63.7 -2.4 -63.9 -2.3 -64.3 -2.2 -64.55 -2.25 -64.6 -2.3 -64.9 -2.15 -65.2 -2.0 -65.5 -1.75 -66.0 -1.7 -66.15 -1.7 -66.3 -1.7 -66.45 -1.65 -66.55 -1.55 -66.8 -1.45 -66.95 -1.35 -67.2 -1.5 -67.35 -1.6 -67.5 -1.75 -67.7 -1.8 -67.7 -3.7 -68.6 -4.55 -68.9 -4.6 -68.75 -4.65 -68.65 -4.75 -68.5 -4.75 -68.45 -4.95 -68.0 -5.3 -67.4 -5.35 -67.3 -5.3 -67.15 -5.35 -66.7 -5.65 -65.95 -5.65 -65.9 -6.4 -64.65 -6.35 -64.5 -6.25 -64.35 -6.1 -64.25 -5.75 -64.9 Q-5.65 -64.9 -5.55 -65.0 L-5.45 -65.0 -5.45 -65.05 -5.35 -65.15 -5.25 -65.4 -5.1 -65.65 -4.95 -65.65 -4.95 -65.7 -4.5 -65.85 -4.3 -65.85 -3.7 -65.5 -3.45 -65.3 -3.35 -64.85 -3.3 -64.7 M-4.4 -65.0 L-4.4 -64.95 -4.55 -64.65 -4.65 -64.4 -4.7 -64.45 -4.85 -64.4 -5.05 -64.4 -5.55 -63.35 -5.9 -62.75 -6.3 -61.9 Q-6.35 -60.9 -6.8 -60.15 L-7.15 -59.45 -7.0 -58.9 -7.05 -58.65 Q-6.9 -58.2 -6.45 -58.35 -6.35 -58.35 -6.2 -58.5 L-6.15 -58.6 -6.05 -58.7 -5.85 -58.65 -5.75 -58.9 -5.55 -59.3 -5.35 -59.7 -5.25 -59.8 -5.05 -59.8 -4.55 -60.8 -4.3 -61.3 -4.05 -61.35 -4.0 -61.5 -3.8 -61.85 -4.1 -61.85 -4.45 -62.0 -4.6 -62.05 -4.5 -62.15 -4.35 -62.15 -4.3 -62.3 -4.25 -62.85 -4.25 -62.9 -4.05 -63.3 -3.9 -63.5 -4.05 -64.65 -4.05 -64.8 -4.35 -65.05 -4.4 -65.0 M-7.9 -58.25 L-7.95 -58.4 -8.0 -58.55 -7.95 -58.65 -7.95 -58.75 -8.0 -58.95 -8.1 -59.1 -8.1 -59.25 -8.05 -59.45 -8.1 -59.7 -8.65 -59.65 -9.35 -58.05 Q-9.6 -57.35 -10.3 -56.85 L-10.25 -56.7 -10.25 -56.45 -10.3 -56.35 -9.95 -55.65 -9.5 -55.6 -9.15 -55.5 -8.15 -55.0 -8.0 -54.95 -7.85 -54.75 -7.8 -54.55 -7.8 -54.4 -7.9 -54.2 -7.85 -54.0 -7.85 -53.9 -7.7 -53.9 -7.35 -54.0 -7.05 -54.2 Q-6.9 -54.3 -6.8 -54.35 L-6.75 -54.4 -6.65 -54.55 -6.55 -54.8 -6.5 -54.85 -6.4 -54.95 -6.3 -55.05 -6.0 -55.1 -5.85 -55.15 -5.6 -55.7 -5.2 -56.5 -5.1 -56.7 -5.1 -56.85 -5.15 -57.0 -5.25 -57.3 -5.35 -57.45 -5.55 -57.8 -5.6 -57.85 Q-5.95 -57.6 -6.45 -57.45 L-7.2 -57.75 -7.25 -57.8 -7.65 -58.05 -7.85 -58.2 -7.9 -58.25 M-12.4 -50.05 L-12.4 -50.15 -12.55 -51.2 -12.95 -51.3 -13.4 -51.3 -13.6 -50.85 -13.9 -50.25 -13.85 -50.15 -13.8 -49.95 -13.8 -49.85 -14.0 -49.3 Q-14.2 -48.85 -14.7 -48.7 L-14.8 -48.55 -15.05 -48.0 -15.1 -47.85 -15.15 -47.2 -15.2 -47.1 -14.85 -46.85 -14.7 -46.7 -14.6 -46.8 -14.55 -46.9 -14.5 -46.95 -14.3 -47.0 -14.25 -47.1 -14.2 -47.2 -14.15 -47.25 -13.6 -47.35 -13.25 -47.35 -12.8 -47.35 Q-12.25 -47.05 -12.2 -46.65 L-12.15 -46.55 -12.1 -46.15 -12.1 -45.95 -12.05 -45.9 -12.15 -45.7 -12.15 -45.35 -12.2 -45.2 -12.15 -45.3 -11.85 -45.4 -11.7 -45.45 -11.5 -45.6 -11.15 -45.6 -10.85 -45.5 -10.35 -46.1 -9.9 -47.1 -9.95 -47.45 -9.9 -47.65 -9.85 -47.9 -9.85 -48.25 -9.9 -48.95 -9.9 -49.25 -9.8 -49.4 -10.1 -49.3 -10.3 -49.15 -10.5 -49.1 -10.7 -49.05 -11.15 -49.05 -11.2 -49.0 -11.45 -49.1 Q-11.65 -49.15 -11.85 -49.3 L-12.4 -50.05 M-9.15 -52.35 L-9.2 -52.55 -9.15 -52.6 -9.0 -52.95 -8.95 -53.0 -9.1 -53.15 -9.05 -53.3 -8.9 -53.6 -8.7 -54.0 -8.7 -54.15 -8.75 -54.45 -8.75 -54.5 Q-8.8 -54.8 -9.25 -54.75 L-9.65 -54.85 -9.8 -54.7 -10.15 -54.3 -10.05 -54.15 -10.0 -53.85 -10.1 -53.8 -10.45 -53.65 -11.0 -52.55 -11.25 -52.0 -11.2 -51.9 -11.15 -51.55 -11.2 -51.45 -11.25 -51.45 -11.35 -51.4 -11.25 -51.3 -11.4 -51.05 -11.6 -50.65 -11.5 -50.25 -11.2 -49.8 Q-10.85 -49.7 -10.55 -49.95 L-10.1 -50.2 -10.1 -50.25 -10.25 -50.45 -10.3 -50.7 -10.25 -50.9 -10.15 -51.15 -10.05 -51.2 -9.9 -51.3 -9.75 -51.3 -9.65 -51.3 -9.6 -51.25 -9.55 -51.35 -9.15 -52.15 -9.15 -52.35 M-13.15 -44.3 L-13.2 -44.45 -13.25 -44.55 -13.15 -44.65 -13.1 -44.75 -13.05 -44.9 -13.1 -45.05 -13.15 -45.1 -13.1 -45.2 -13.05 -45.35 -13.0 -45.45 -13.0 -45.85 -13.0 -46.1 -13.2 -46.45 -13.25 -46.55 Q-13.7 -46.45 -13.85 -46.15 L-14.3 -46.0 -14.35 -45.85 -15.2 -44.15 -15.75 -43.15 Q-15.6 -42.65 -15.75 -42.2 L-15.9 -41.65 -16.15 -41.45 -16.1 -41.35 Q-15.75 -40.95 -15.2 -41.0 L-15.05 -41.05 -14.9 -41.25 -14.8 -41.3 -14.6 -41.3 -14.15 -42.15 -13.85 -42.8 -13.75 -42.85 -13.55 -42.9 -13.45 -43.15 -13.3 -43.45 -13.35 -43.55 -13.4 -43.65 -13.3 -43.9 -13.15 -44.15 -13.1 -44.2 -13.15 -44.3 M-12.3 -45.05 L-12.25 -44.95 -12.25 -45.1 -12.3 -45.05 M-17.0 -36.75 L-16.9 -36.7 -16.65 -36.6 -16.65 -36.45 -16.65 -36.1 -16.6 -35.85 -16.65 -35.8 -16.3 -35.8 -15.65 -35.95 -15.5 -36.0 -15.45 -36.15 -15.4 -36.25 -15.35 -36.3 -15.2 -36.45 -15.1 -36.5 -15.1 -36.7 -15.15 -36.75 -14.5 -38.0 -13.7 -39.55 -13.8 -39.7 -13.8 -39.85 -13.85 -40.0 -13.95 -40.1 -14.3 -40.5 -14.35 -40.5 -14.35 -40.45 -14.95 -40.3 -15.3 -40.25 -16.4 -40.65 -17.1 -41.8 -17.3 -42.15 -17.45 -42.15 -17.55 -41.9 -17.85 -41.35 -17.9 -41.25 -17.9 -41.1 -17.85 -40.95 -17.85 -40.85 -18.4 -39.7 -19.05 -38.45 Q-19.0 -37.85 -18.6 -37.2 L-18.3 -37.3 -17.85 -37.3 -17.0 -36.75 M-17.55 -34.9 L-17.65 -35.2 -17.7 -35.65 -17.65 -35.75 -17.6 -35.85 -17.55 -35.95 -17.6 -36.25 -17.6 -36.35 -17.95 -36.6 -18.0 -36.65 -18.3 -36.45 -18.3 -36.4 -18.35 -36.35 -18.4 -36.25 -18.7 -36.05 -20.2 -33.1 -20.9 -31.7 -20.95 -31.65 -20.8 -31.45 -20.8 -31.15 -20.0 -31.2 -19.9 -31.25 -19.85 -31.3 -19.6 -31.45 -19.5 -31.6 -19.2 -31.75 -19.1 -31.85 -19.05 -31.95 -19.0 -32.05 -18.75 -32.15 -18.7 -32.25 -18.0 -33.7 -17.95 -33.8 -17.55 -34.55 -17.55 -34.9 M-21.95 -27.9 L-21.65 -27.8 -21.45 -27.6 -21.35 -26.55 -21.25 -26.65 -21.2 -26.75 -21.05 -26.8 -21.0 -26.85 -20.7 -26.95 -20.35 -27.05 -20.25 -27.25 -19.95 -27.55 -19.7 -27.65 -19.6 -27.85 -19.45 -28.15 -19.35 -28.4 -19.35 -28.5 -19.4 -28.65 -19.45 -28.8 -19.35 -29.0 -19.15 -29.4 -19.0 -29.65 -19.05 -30.05 -19.2 -30.65 -19.4 -30.55 -20.55 -30.3 -20.85 -30.4 Q-21.05 -30.4 -21.25 -30.55 L-21.45 -30.75 -21.85 -31.35 -21.9 -31.7 -21.9 -31.85 -21.55 -32.65 -21.7 -32.7 -22.1 -32.75 -22.65 -31.75 -23.4 -30.35 -23.4 -30.25 -23.45 -30.05 -23.4 -29.95 -23.4 -29.85 -23.4 -29.75 -23.6 -29.4 -23.8 -29.0 -23.75 -28.85 -23.75 -28.65 -23.8 -28.5 -23.75 -28.3 -23.6 -28.1 -23.55 -28.0 -23.45 -28.05 -22.55 -28.05 -22.5 -28.05 -22.05 -28.0 -21.95 -27.9 M-22.5 -25.55 L-22.65 -25.8 -22.7 -26.0 -22.7 -26.15 -22.5 -26.45 -22.25 -26.5 -22.2 -26.7 -22.35 -27.4 -22.85 -27.3 -23.15 -27.25 -23.2 -27.15 -23.3 -27.0 -23.45 -27.0 -23.55 -26.9 -24.45 -25.05 -25.1 -23.8 -25.15 -23.7 -25.05 -23.5 -25.1 -23.4 -25.15 -23.3 -25.05 -23.05 -24.95 -22.7 -24.25 -22.65 Q-23.95 -22.65 -23.75 -22.85 L-23.3 -23.2 -22.85 -24.05 -22.45 -24.85 -22.45 -24.9 -22.45 -25.1 -22.45 -25.25 -22.4 -25.35 -22.35 -25.4 -22.5 -25.55 M-25.5 -22.2 L-25.7 -22.3 -26.0 -23.0 -25.95 -23.2 -26.2 -23.2 -26.65 -23.15 Q-27.15 -22.6 -27.3 -21.9 -27.5 -21.15 -27.85 -20.5 L-27.9 -20.4 -28.05 -20.35 -28.2 -20.3 -28.15 -20.05 -28.1 -19.6 -27.95 -19.45 -28.0 -19.3 -28.0 -19.2 -28.05 -19.05 -28.05 -18.95 -27.9 -18.95 -27.55 -18.9 -27.0 -18.6 -26.8 -18.4 -26.45 -18.05 -26.35 -17.6 -26.3 -17.4 -26.25 -17.45 -26.15 -17.55 -26.1 -17.6 -25.95 -17.7 -25.75 -17.7 -25.6 -17.75 -25.05 -17.8 -24.55 -18.45 -24.05 -19.7 -24.05 -19.8 -24.0 -19.95 -24.0 -20.05 -23.9 -20.3 -23.65 -20.7 -23.55 -21.2 -23.75 -21.3 -24.25 -21.65 -24.4 -21.8 -24.75 -21.9 -24.85 -21.85 -25.05 -22.0 -25.5 -22.2 M-27.3 -17.45 L-27.6 -17.45 -27.8 -17.45 -28.05 -17.1 Q-28.15 -16.9 -28.4 -16.85 L-29.0 -15.65 -29.3 -15.0 -29.3 -14.3 -29.25 -13.95 -29.25 -13.8 -29.05 -13.65 Q-28.95 -13.65 -28.85 -13.75 L-28.55 -13.75 -28.5 -13.8 -28.35 -13.95 -28.1 -14.15 -28.0 -14.2 -27.5 -15.15 -27.25 -15.7 -27.35 -15.85 -27.35 -15.9 -27.25 -16.15 -27.15 -16.3 -27.1 -17.2 -27.3 -17.45 M-30.3 -14.2 L-30.25 -14.25 -30.2 -14.35 -30.25 -14.5 -30.25 -14.7 -30.2 -14.75 -30.2 -14.8 -31.1 -14.85 -31.9 -14.95 Q-32.15 -14.2 -32.55 -13.65 L-33.4 -11.55 -33.3 -11.25 -33.2 -10.85 -32.85 -11.55 -32.8 -11.6 -32.35 -11.7 -32.05 -11.65 -31.2 -11.2 -31.0 -11.0 -30.65 -10.35 -30.6 -10.3 -30.5 -10.05 -30.5 -9.85 -30.45 -9.7 -30.5 -9.65 -30.5 -9.55 -30.45 -9.35 -30.5 -9.25 -30.5 -9.15 -30.6 -9.05 -30.55 -8.9 -30.4 -8.9 Q-29.6 -8.95 -29.2 -9.4 L-29.15 -9.5 -29.1 -9.55 -29.05 -9.7 -29.05 -9.85 -29.05 -9.95 -28.95 -10.15 -28.95 -10.25 -28.95 -10.4 -29.0 -10.55 -29.05 -10.75 -29.0 -10.8 -28.95 -10.95 -28.85 -11.15 -28.8 -11.25 -28.8 -11.4 -28.8 -11.45 -28.75 -11.65 -28.75 -11.75 -28.65 -11.85 -28.7 -11.95 -28.7 -12.1 -28.75 -12.35 -28.7 -12.4 -28.85 -12.5 -29.05 -12.55 -29.2 -12.75 -29.35 -12.9 -29.4 -13.1 -29.45 -13.15 -29.9 -13.4 -30.15 -13.55 -30.2 -13.65 -30.2 -14.0 -30.35 -14.15 -30.3 -14.2 M-32.9 -9.35 L-33.1 -8.55 -33.2 -8.4 -33.3 -8.3 -33.45 -8.2 -33.55 -8.15 -33.55 -7.85 -33.55 -7.75 -33.95 -6.95 -34.15 -6.5 -33.05 -6.55 -33.05 -6.6 -32.95 -6.65 -32.85 -6.75 -32.6 -7.05 -32.4 -7.45 -32.2 -7.8 -32.3 -8.0 -32.3 -8.1 Q-32.15 -8.35 -31.9 -8.25 L-31.85 -8.55 -31.8 -8.65 -31.5 -8.65 -31.5 -8.7 -31.4 -8.85 -31.45 -9.05 -31.5 -9.2 -31.4 -9.45 -31.35 -9.55 -31.4 -10.2 -31.5 -10.5 -32.15 -10.95 -32.9 -9.4 -32.9 -9.35" fill="#000000" fill-rule="evenodd" stroke="none"/>
    <path d="M3.75 -83.5 L3.7 -83.35 3.55 -83.4 3.75 -83.5 M1.7 -81.65 L1.9 -81.8 1.9 -81.7 1.95 -81.65 2.0 -81.55 2.05 -81.45 2.1 -81.1 2.15 -80.7 1.9 -81.2 1.7 -81.65 M2.35 -80.05 L2.45 -80.05 2.55 -79.85 2.5 -79.85 2.45 -79.75 2.4 -79.65 1.85 -79.15 2.35 -80.05 M-28.9 -18.0 L-28.6 -17.95 -28.65 -17.85 -28.7 -17.75 -28.75 -17.65 -28.8 -17.55 -29.35 -17.05 -28.9 -18.0 M-35.85 -1.3 L-35.65 -1.55 -35.55 -1.75 -35.6 -1.85 -35.65 -2.05 -35.8 -2.25 -36.5 -2.75 -36.7 -2.9 -36.75 -3.0 -36.9 -3.75 -36.85 -4.0 -36.8 -4.1 -36.3 -5.25 -35.45 -6.25 -35.25 -6.3 -35.05 -6.35 -34.9 -6.45 -34.85 -6.35 -34.6 -6.0 -34.5 -5.85 -34.4 -5.8 -34.5 -5.8 -34.7 -5.7 -35.4 -4.7 -35.85 -3.1 -35.6 -2.85 Q-35.15 -2.35 -34.4 -2.25 -33.8 -2.4 -33.5 -2.85 -33.1 -3.25 -33.2 -3.85 -32.95 -4.15 -33.0 -4.5 -32.9 -4.95 -33.2 -5.4 L-33.4 -5.55 -33.3 -5.65 -33.1 -5.65 -32.95 -5.65 -32.9 -5.7 -32.8 -5.6 -32.45 -5.35 -32.1 -5.05 -32.1 -4.75 -32.1 -4.5 -32.1 -4.35 -32.1 -4.05 -32.15 -3.75 -32.7 -2.85 -32.9 -2.45 -32.9 -2.3 -32.9 -2.15 -32.9 -2.05 -32.95 -1.95 -33.0 -1.85 -33.1 -1.75 -34.9 -1.35 -35.6 -1.2 -35.85 -1.3 M-12.2 -44.3 L-12.25 -44.65 -12.2 -44.85 -12.2 -44.75 -12.15 -44.65 -12.0 -44.45 -11.85 -44.4 -12.2 -44.3 M30.9 -18.65 L31.05 -18.8 31.1 -18.7 31.15 -18.6 31.2 -18.5 31.25 -18.35 31.3 -17.7 30.9 -18.65 M39.6 -2.85 L39.5 -3.1 39.4 -3.35 39.25 -3.3 39.15 -3.4 38.9 -3.4 38.1 -3.15 37.85 -3.1 37.7 -3.1 Q37.3 -3.2 37.05 -3.5 L36.85 -3.7 36.8 -3.8 36.2 -4.85 Q35.9 -5.5 36.0 -6.2 L36.1 -6.35 36.1 -6.5 36.15 -6.7 36.25 -6.7 36.65 -6.7 36.9 -6.7 37.0 -6.7 36.95 -6.65 36.9 -6.45 37.2 -5.25 Q37.55 -4.45 38.2 -3.95 L38.45 -3.95 Q39.2 -4.0 39.7 -4.5 40.05 -5.1 39.85 -5.6 39.75 -6.2 39.25 -6.45 L38.85 -7.05 38.0 -7.4 37.8 -7.35 37.8 -7.45 37.9 -7.65 37.95 -7.8 38.0 -7.85 38.1 -7.85 38.55 -7.95 39.0 -8.05 39.2 -7.85 39.45 -7.75 39.55 -7.6 39.75 -7.45 39.95 -7.2 40.3 -6.2 40.5 -5.8 40.6 -5.7 40.75 -5.7 40.85 -5.6 40.9 -5.45 40.95 -5.35 40.95 -5.25 40.15 -3.55 39.85 -2.95 39.6 -2.85 M20.6 -48.0 L20.35 -48.2 20.1 -48.4 20.05 -48.4 20.05 -48.45 20.1 -48.4 20.25 -48.35 20.4 -48.3 20.65 -48.3 20.75 -48.35 20.6 -48.0 M4.75 -78.8 L4.65 -78.8 4.3 -79.1 4.1 -79.25 3.75 -79.45 3.75 -79.5 3.45 -80.15 3.3 -80.5 2.9 -81.35 2.95 -81.7 Q2.8 -81.95 2.8 -82.15 L2.9 -82.35 3.1 -82.6 3.45 -82.5 4.05 -82.0 4.15 -81.8 4.25 -81.55 4.35 -81.55 4.55 -81.45 4.75 -80.95 5.2 -80.0 5.2 -79.85 5.15 -79.6 5.2 -79.5 5.25 -79.35 5.3 -79.3 5.05 -79.0 4.95 -78.85 4.95 -78.9 4.75 -78.8 M4.7 -75.25 L4.4 -75.0 4.3 -74.65 4.25 -74.5 4.35 -74.3 4.6 -73.8 4.3 -73.95 4.2 -74.0 3.95 -74.2 Q3.25 -74.95 2.9 -76.0 L2.85 -76.1 2.2 -77.45 2.8 -77.95 3.35 -78.65 3.35 -78.6 3.4 -78.5 3.6 -78.4 3.7 -78.4 3.75 -78.3 3.8 -78.2 3.75 -78.05 Q3.7 -77.85 3.8 -77.7 L3.8 -77.45 3.8 -77.4 3.75 -77.25 3.65 -77.15 3.55 -76.95 3.55 -76.9 3.8 -76.1 4.0 -75.7 4.1 -75.55 4.7 -75.25 M5.8 -78.15 L5.9 -78.2 6.05 -78.25 6.25 -78.3 6.25 -78.25 6.35 -78.15 6.5 -78.0 6.6 -78.0 6.7 -77.9 6.7 -77.8 6.8 -77.7 6.95 -77.55 7.05 -77.55 7.1 -77.45 7.2 -77.2 7.25 -77.1 7.3 -77.0 7.45 -77.0 7.55 -76.9 7.65 -76.8 Q7.7 -76.7 7.75 -76.75 L7.85 -76.5 7.95 -76.45 8.1 -76.35 8.15 -76.3 8.2 -76.15 8.25 -76.05 Q8.3 -75.45 7.85 -74.9 L7.8 -74.7 7.65 -74.75 7.6 -74.9 7.55 -74.95 7.5 -75.1 7.3 -75.15 7.2 -75.2 7.15 -75.25 7.1 -75.35 6.95 -75.45 6.6 -75.6 6.55 -75.55 6.65 -75.7 Q7.0 -76.45 6.65 -77.05 L5.8 -78.15 M-0.85 -73.75 L-1.15 -73.8 -1.55 -73.65 -1.6 -73.65 -1.95 -72.9 -2.05 -73.35 -2.15 -73.65 -1.3 -75.7 -0.65 -77.05 0.15 -76.95 0.55 -76.8 0.85 -76.2 0.75 -76.2 0.55 -75.95 0.35 -75.8 0.15 -75.75 -0.05 -75.7 -0.2 -75.65 -0.7 -75.0 -0.95 -74.35 Q-0.75 -74.0 -0.85 -73.75 M2.0 -73.75 L2.1 -73.45 2.15 -73.35 2.4 -73.2 2.3 -73.0 2.25 -72.9 2.15 -72.8 2.25 -72.7 2.3 -72.5 2.3 -72.35 2.25 -72.25 2.15 -72.0 2.2 -71.95 2.15 -71.75 2.1 -71.7 2.05 -71.55 2.0 -71.45 Q1.6 -71.0 0.85 -71.0 L0.7 -70.95 0.65 -71.1 0.7 -71.25 0.75 -71.35 0.8 -71.45 0.7 -71.6 0.7 -71.7 0.75 -71.8 0.75 -71.95 0.7 -72.1 0.6 -72.45 0.55 -72.45 0.75 -72.45 Q1.55 -72.65 1.85 -73.35 L2.0 -73.75 M5.15 -74.75 Q5.55 -75.1 5.95 -74.95 L6.15 -74.8 6.8 -74.45 6.85 -74.35 6.95 -74.1 7.1 -74.1 7.25 -74.05 7.3 -73.9 7.35 -73.8 7.2 -73.5 7.25 -73.45 7.4 -73.3 7.25 -72.95 7.4 -72.8 7.65 -72.6 7.75 -72.35 7.95 -71.95 8.0 -71.75 6.95 -71.4 6.8 -71.65 6.75 -71.7 6.5 -71.9 6.55 -72.05 6.55 -72.1 6.55 -72.3 6.45 -72.55 5.95 -73.15 5.9 -73.15 5.15 -74.75 M8.4 -67.0 L8.45 -67.0 8.3 -66.85 8.45 -66.65 8.55 -66.35 8.6 -66.2 8.65 -66.15 8.55 -66.05 8.5 -65.9 8.85 -65.2 8.65 -65.2 8.5 -65.2 8.35 -65.25 7.75 -66.6 7.75 -66.65 7.35 -67.35 7.1 -67.6 6.95 -67.75 6.9 -67.85 6.65 -68.5 6.35 -68.85 6.3 -68.95 6.25 -69.05 6.25 -69.2 6.2 -69.35 6.2 -69.4 6.9 -69.85 8.75 -70.7 8.8 -70.75 9.1 -70.8 9.25 -70.75 9.5 -70.75 9.6 -70.55 9.7 -70.35 9.8 -70.1 9.85 -70.05 9.95 -69.9 10.1 -69.85 10.2 -69.7 10.4 -69.2 10.55 -68.9 10.7 -68.6 10.9 -68.45 11.05 -68.45 11.15 -68.25 11.35 -67.85 11.5 -67.7 11.65 -67.65 11.95 -67.7 12.4 -67.75 12.5 -67.8 12.1 -67.1 11.9 -66.75 11.85 -66.75 Q11.75 -66.75 11.75 -66.8 11.6 -66.8 11.55 -66.9 L11.25 -67.2 11.15 -67.25 10.95 -67.45 10.55 -67.6 10.15 -67.7 10.1 -68.9 Q9.75 -69.6 8.7 -69.7 L8.3 -69.6 7.85 -69.45 7.85 -69.4 7.75 -69.35 7.55 -69.25 7.5 -69.15 7.35 -68.9 7.25 -68.75 7.25 -68.6 7.3 -68.45 7.6 -67.85 7.95 -67.65 8.05 -67.45 8.35 -67.05 8.4 -67.0 M9.7 -67.1 L9.75 -67.1 Q10.25 -66.7 10.75 -66.45 L10.85 -66.25 11.05 -65.85 11.05 -65.8 11.5 -65.4 11.55 -65.25 11.5 -65.1 11.5 -65.0 11.45 -64.9 12.85 -62.15 12.9 -62.05 13.2 -62.2 13.3 -61.95 13.25 -61.8 13.2 -61.65 13.25 -61.55 13.2 -61.25 Q13.05 -60.85 12.6 -60.95 L12.45 -61.15 11.9 -61.4 11.55 -62.1 10.55 -63.6 10.15 -64.45 9.85 -65.1 9.4 -66.15 9.5 -66.3 9.5 -66.4 9.55 -66.4 9.45 -66.65 9.3 -66.95 9.25 -67.0 9.7 -67.1 M13.15 -60.35 L13.9 -60.75 14.15 -61.6 14.2 -61.6 14.6 -61.65 14.75 -61.6 15.1 -61.45 15.25 -61.4 15.35 -61.35 15.45 -61.1 15.85 -60.3 16.1 -59.75 16.05 -59.6 15.9 -59.4 15.9 -59.2 15.85 -59.05 15.9 -58.95 16.0 -58.75 16.1 -58.6 16.1 -58.5 16.15 -58.25 16.05 -57.8 15.9 -57.55 15.9 -57.4 15.75 -57.5 15.6 -57.55 15.5 -57.75 15.35 -57.9 15.15 -57.95 14.95 -57.9 14.8 -57.85 Q15.0 -58.5 14.7 -58.95 L13.65 -60.3 13.3 -60.35 13.15 -60.35 M13.5 -57.2 L13.2 -56.9 12.4 -57.0 12.35 -57.1 12.15 -57.3 12.0 -57.35 Q12.1 -58.15 11.65 -58.8 L10.85 -60.35 11.15 -60.85 11.4 -60.75 11.55 -60.55 11.65 -60.45 11.8 -60.4 11.95 -60.4 12.05 -60.35 12.15 -60.2 12.25 -60.1 12.4 -60.05 12.3 -60.0 12.05 -59.85 Q12.0 -59.25 12.3 -58.75 L12.7 -57.9 12.85 -57.9 12.95 -57.8 13.05 -57.7 13.1 -57.6 13.35 -57.35 13.5 -57.2 M16.65 -54.75 L16.75 -54.5 16.8 -54.5 16.8 -54.45 16.7 -54.35 16.6 -54.2 16.55 -54.0 16.55 -53.9 16.65 -53.7 16.8 -53.5 17.05 -53.35 17.3 -53.4 17.3 -53.35 17.25 -52.85 17.0 -52.2 16.45 -52.3 16.0 -52.45 15.8 -52.85 15.7 -53.1 15.65 -53.1 15.6 -53.2 15.65 -53.3 15.6 -53.35 15.35 -53.5 15.25 -53.55 14.95 -54.15 14.4 -55.25 14.5 -55.6 14.5 -55.7 14.25 -55.8 14.1 -55.9 14.0 -56.35 14.0 -56.6 14.3 -56.85 Q14.55 -57.25 14.8 -57.1 L14.85 -57.05 15.1 -56.9 15.2 -56.8 15.4 -56.4 15.55 -56.1 15.65 -56.0 15.85 -55.95 15.9 -55.85 16.05 -55.55 16.05 -55.45 16.25 -55.4 16.65 -54.75 M17.45 -48.85 L17.1 -48.35 17.15 -48.25 17.2 -48.2 17.25 -48.1 17.1 -47.85 17.15 -47.75 17.2 -47.65 17.2 -47.6 17.0 -47.55 16.6 -47.4 16.55 -47.5 16.1 -48.0 16.0 -48.15 15.75 -48.7 15.7 -48.85 Q15.85 -49.35 15.55 -49.75 L15.3 -50.25 15.2 -50.25 15.1 -50.35 14.95 -50.45 14.6 -51.0 14.4 -51.45 14.7 -51.8 15.0 -52.05 15.95 -51.55 16.05 -51.5 15.9 -51.4 Q16.0 -50.6 16.35 -49.9 L16.95 -49.0 17.3 -48.9 17.45 -48.85 M17.85 -52.2 L17.95 -52.35 18.05 -52.55 18.1 -52.8 18.15 -53.1 18.25 -52.9 18.45 -52.7 18.95 -52.35 19.3 -52.15 19.45 -51.9 19.6 -51.75 19.85 -51.6 20.35 -50.6 20.55 -49.85 20.3 -49.65 20.1 -49.4 20.05 -49.15 20.0 -48.95 19.95 -48.7 19.95 -48.6 19.85 -48.75 19.6 -48.9 19.5 -49.15 19.4 -49.15 19.25 -49.25 18.9 -49.45 18.6 -50.85 18.05 -52.1 17.85 -52.15 17.85 -52.2 M22.3 -38.85 L22.25 -38.6 Q21.45 -38.7 20.95 -39.0 L20.35 -40.3 19.8 -41.45 19.8 -41.55 19.65 -41.6 19.5 -41.65 19.45 -41.75 19.2 -42.3 19.05 -42.6 19.2 -42.7 19.55 -42.6 20.85 -42.5 21.85 -43.05 22.1 -43.4 22.3 -43.95 22.3 -44.0 22.35 -44.05 22.8 -44.05 23.0 -44.1 23.1 -44.0 23.3 -43.95 23.45 -43.9 24.15 -42.35 24.75 -41.05 24.95 -40.9 24.9 -40.8 24.95 -40.65 25.0 -40.55 25.0 -40.45 25.1 -40.3 25.05 -40.15 24.75 -39.55 24.55 -39.3 24.25 -39.45 24.05 -39.65 23.9 -39.75 23.65 -39.65 23.6 -39.6 23.55 -39.8 23.35 -40.85 Q23.25 -41.45 22.65 -41.8 L22.6 -41.9 22.45 -42.2 22.35 -42.4 22.15 -42.4 21.95 -42.45 21.75 -42.55 21.4 -42.45 21.05 -42.15 20.85 -41.95 20.8 -41.8 20.65 -41.55 20.6 -41.35 21.1 -40.3 21.8 -39.1 22.2 -38.95 22.3 -38.85 M20.35 -46.75 L20.5 -46.7 20.65 -46.65 20.8 -46.35 20.9 -46.1 20.8 -45.95 20.8 -45.8 21.1 -45.2 21.5 -44.35 21.4 -44.2 21.4 -44.0 21.4 -43.8 21.35 -43.7 Q21.05 -43.2 20.55 -43.2 L20.4 -43.25 20.4 -43.5 20.05 -43.95 19.35 -44.55 18.9 -45.6 18.1 -47.35 18.0 -47.45 18.15 -47.9 Q18.0 -48.2 18.25 -48.6 L18.35 -48.6 18.75 -48.55 Q18.8 -48.4 18.95 -48.4 L19.25 -48.1 19.25 -48.0 19.35 -47.9 19.4 -47.8 19.5 -47.75 19.65 -47.7 19.7 -47.6 19.75 -47.5 19.85 -47.35 19.95 -47.35 Q20.05 -47.25 20.1 -47.3 L20.1 -47.25 20.15 -47.25 20.25 -46.95 20.35 -46.75 M25.1 -33.35 L25.1 -33.4 24.4 -34.85 23.0 -37.85 23.1 -38.1 23.1 -38.2 23.05 -38.3 23.0 -38.35 23.05 -38.7 23.1 -38.75 23.5 -38.85 23.6 -38.85 23.85 -38.65 23.9 -38.5 23.95 -38.45 24.0 -38.35 24.35 -38.1 24.65 -38.0 24.85 -37.6 25.35 -37.0 25.4 -36.9 26.05 -35.4 26.1 -35.3 26.0 -35.1 26.05 -34.95 26.1 -34.85 26.1 -34.7 26.05 -34.45 26.15 -34.25 26.15 -34.0 26.1 -33.85 25.3 -33.45 25.1 -33.35 M27.4 -30.25 L27.45 -30.35 27.65 -30.75 27.7 -30.9 Q27.75 -31.6 27.4 -32.15 L27.0 -32.85 27.15 -33.0 27.2 -33.15 27.15 -33.45 27.1 -33.65 27.0 -33.9 26.95 -33.9 26.95 -34.05 27.5 -33.8 27.9 -33.6 28.0 -33.35 28.2 -32.95 28.3 -32.75 28.45 -32.7 28.6 -32.6 28.65 -32.55 28.8 -32.35 28.9 -32.0 29.0 -31.85 28.95 -31.55 29.05 -31.15 29.05 -30.95 28.95 -30.65 28.85 -30.35 28.8 -30.2 28.8 -30.1 28.85 -30.0 28.85 -29.85 27.9 -30.4 27.7 -30.35 27.4 -30.25 M24.75 -32.45 L25.15 -31.3 Q25.55 -30.4 26.2 -29.8 L26.5 -29.8 26.95 -29.8 26.9 -29.8 26.35 -29.15 26.3 -29.0 26.2 -29.0 26.0 -29.05 25.8 -29.1 25.65 -29.25 25.55 -29.35 25.4 -29.4 25.2 -29.8 25.05 -30.15 25.0 -30.25 24.95 -30.35 24.8 -30.4 24.65 -30.5 24.6 -30.55 23.95 -32.0 23.55 -33.1 23.8 -33.35 24.0 -33.5 24.35 -32.75 24.5 -32.65 24.75 -32.45 M30.1 -25.15 L29.6 -24.65 29.35 -24.7 29.0 -24.9 29.0 -24.95 28.95 -25.05 28.7 -25.15 28.65 -25.2 28.05 -26.45 27.2 -28.3 27.15 -28.5 27.3 -28.65 27.2 -28.8 27.2 -28.85 27.35 -29.15 27.6 -29.55 28.2 -29.25 28.35 -29.1 28.2 -28.9 28.3 -28.55 28.45 -28.4 28.65 -28.3 28.9 -28.35 29.45 -27.3 Q29.85 -26.5 29.85 -25.65 L30.0 -25.4 30.1 -25.15 M31.75 -23.6 L31.65 -23.8 31.5 -23.8 31.35 -23.9 31.1 -23.9 30.65 -23.9 30.5 -23.9 30.3 -23.95 30.1 -23.95 29.7 -23.85 29.35 -23.5 29.15 -23.3 Q29.15 -22.6 29.5 -21.85 L30.3 -20.75 30.6 -20.7 31.6 -20.85 32.0 -21.15 32.1 -21.35 32.1 -21.7 31.9 -22.35 31.7 -22.8 31.8 -22.95 31.85 -23.1 31.8 -23.25 31.85 -23.35 31.75 -23.6 M33.85 -12.2 L33.6 -11.95 33.45 -11.65 33.45 -11.5 33.8 -10.75 33.4 -11.0 33.15 -11.1 Q32.4 -11.95 32.0 -13.05 L31.4 -14.35 31.95 -14.95 Q32.4 -15.2 32.5 -15.6 L32.55 -15.55 32.6 -15.45 32.75 -15.4 32.9 -15.35 32.95 -15.25 33.0 -15.15 32.9 -15.0 32.95 -14.65 32.95 -14.4 32.9 -14.25 32.8 -14.05 32.7 -13.9 Q32.75 -13.5 32.95 -13.1 L33.25 -12.55 33.85 -12.2 M32.25 -19.55 L32.6 -19.5 Q32.85 -19.15 33.2 -18.95 L33.3 -18.75 33.4 -18.55 33.5 -18.5 33.7 -18.45 33.95 -17.9 34.4 -16.95 34.4 -16.85 34.35 -16.55 34.45 -16.3 34.2 -16.0 34.15 -15.8 33.9 -15.75 33.8 -15.8 33.45 -16.05 32.9 -16.45 32.6 -17.15 32.05 -18.3 32.1 -18.7 32.0 -19.15 32.1 -19.35 32.25 -19.55 M32.3 -23.65 L32.5 -23.6 32.55 -23.5 33.25 -22.3 33.4 -21.45 33.1 -21.0 33.0 -20.9 32.95 -20.75 32.95 -20.55 32.9 -20.5 32.9 -20.3 32.9 -20.25 32.75 -20.35 32.3 -20.55 31.85 -20.5 31.55 -20.5 30.95 -20.2 30.75 -20.0 30.65 -19.9 30.55 -19.9 30.45 -20.05 30.4 -20.15 30.25 -20.25 30.1 -20.25 Q29.85 -20.3 29.65 -20.45 L29.5 -20.55 29.5 -20.75 29.55 -20.9 29.55 -21.0 28.75 -22.3 Q28.35 -22.9 28.2 -23.55 L28.45 -23.95 28.6 -24.15 28.75 -24.05 Q29.05 -23.8 29.45 -23.8 L30.1 -24.1 30.3 -24.2 30.4 -24.3 30.65 -24.5 30.9 -24.55 31.5 -24.7 31.65 -24.8 32.0 -24.4 32.1 -23.95 32.25 -23.7 32.3 -23.65 M35.0 -15.15 L35.2 -15.25 35.4 -15.25 35.4 -15.2 35.55 -15.05 35.65 -15.05 35.8 -15.0 35.85 -14.85 35.9 -14.75 36.0 -14.65 36.1 -14.55 36.25 -14.5 36.3 -14.4 36.4 -14.2 36.45 -14.05 36.45 -14.0 36.65 -13.9 36.75 -13.85 36.85 -13.75 36.95 -13.7 37.05 -13.45 Q37.05 -13.4 37.15 -13.4 L37.25 -13.35 37.35 -13.2 37.4 -13.1 37.4 -13.0 37.05 -11.8 36.95 -11.65 36.8 -11.7 36.75 -11.85 36.7 -11.95 36.65 -12.05 36.45 -12.1 36.35 -12.15 36.3 -12.25 36.3 -12.35 36.1 -12.4 35.8 -12.5 35.7 -12.5 35.8 -12.7 Q36.2 -13.45 35.8 -14.0 L35.0 -15.15 M36.0 -11.4 L36.0 -11.3 36.1 -11.1 36.25 -11.1 36.45 -10.95 36.5 -10.8 36.4 -10.5 36.45 -10.4 36.6 -10.25 Q36.35 -10.1 36.45 -9.85 L36.55 -9.75 36.8 -9.65 36.95 -9.25 37.15 -8.85 Q37.1 -8.7 37.2 -8.5 L37.2 -8.35 37.2 -8.3 37.2 -8.25 Q37.2 -7.65 36.6 -7.35 L36.35 -7.8 36.0 -8.65 35.9 -8.7 35.65 -8.85 35.7 -9.0 35.7 -9.15 35.7 -9.25 35.65 -9.45 35.1 -10.15 35.05 -10.15 34.35 -11.65 Q34.7 -12.05 35.15 -11.95 L35.3 -11.8 36.0 -11.4 M-4.95 -65.7 L-4.95 -65.65 -5.1 -65.65 -5.25 -65.4 -5.35 -65.15 -5.45 -65.05 -5.45 -65.0 -5.55 -65.0 Q-5.65 -64.9 -5.75 -64.9 L-6.1 -64.25 -6.25 -64.35 -6.35 -64.5 -6.4 -64.65 -5.65 -65.9 -5.65 -65.95 -5.35 -66.7 -5.3 -67.15 -5.35 -67.3 -5.3 -67.4 -4.95 -68.0 -4.75 -68.45 -4.75 -68.5 -4.65 -68.65 -4.6 -68.75 -4.55 -68.9 -3.7 -68.6 -1.8 -67.7 -1.75 -67.7 -1.6 -67.5 -1.5 -67.35 -1.35 -67.2 -1.45 -66.95 -1.55 -66.8 -1.65 -66.55 -1.7 -66.45 -1.7 -66.3 -1.7 -66.15 -1.75 -66.0 -2.0 -65.5 -2.15 -65.2 -2.3 -64.9 -2.25 -64.6 -2.2 -64.55 -2.3 -64.3 -2.4 -63.9 -2.45 -63.7 -2.45 -63.6 -2.2 -63.35 -1.9 -63.05 -1.75 -63.0 -2.55 -62.85 -3.0 -62.8 -3.05 -62.85 -3.05 -62.95 -3.1 -63.15 -3.0 -63.6 -3.0 -63.7 -3.0 -63.95 -3.2 -64.4 -3.3 -64.7 Q-2.75 -65.0 -2.45 -65.55 -2.1 -66.25 -2.65 -67.15 L-3.0 -67.35 -3.4 -67.65 -3.45 -67.6 -3.55 -67.65 -3.7 -67.75 -3.85 -67.75 -4.15 -67.65 -4.3 -67.65 -4.4 -67.6 -4.45 -67.45 -4.75 -66.9 -4.7 -66.45 -4.8 -66.25 -4.95 -65.8 -4.95 -65.7 M-1.7 -71.45 L-1.7 -71.5 -0.9 -73.05 Q-0.4 -72.95 -0.25 -72.55 L-0.2 -72.3 -0.1 -71.6 -0.15 -71.5 -0.3 -71.3 -0.25 -71.05 -0.15 -70.95 -0.25 -70.85 -0.3 -70.75 -0.55 -70.7 -0.6 -70.6 -0.65 -70.4 -1.05 -70.2 -1.05 -70.1 -1.0 -69.8 -1.15 -69.55 -1.35 -69.15 -1.5 -68.95 -2.45 -69.55 -2.3 -69.85 -2.3 -69.9 -2.3 -70.25 -2.2 -70.3 -2.1 -70.3 -2.0 -70.45 -1.85 -70.65 -1.7 -71.45 M-5.75 -58.9 L-5.85 -58.65 -6.05 -58.7 -6.15 -58.6 -6.2 -58.5 Q-6.35 -58.35 -6.45 -58.35 -6.9 -58.2 -7.05 -58.65 L-7.0 -58.9 -7.15 -59.45 -6.8 -60.15 Q-6.35 -60.9 -6.3 -61.9 L-5.9 -62.75 -5.55 -63.35 -5.05 -64.4 -4.85 -64.4 -4.7 -64.45 -4.65 -64.4 -4.55 -64.65 -4.4 -64.95 -4.4 -65.0 -4.05 -64.8 -4.05 -64.65 -3.9 -63.5 -4.05 -63.3 -4.25 -62.9 -4.25 -62.85 -4.3 -62.3 -4.35 -62.15 -4.5 -62.15 -4.6 -62.05 -4.7 -61.95 -5.95 -59.25 -6.05 -59.1 -5.75 -58.9 M-9.5 -55.6 L-9.95 -55.65 -10.3 -56.35 -10.25 -56.45 -10.25 -56.7 -10.3 -56.85 Q-9.6 -57.35 -9.35 -58.05 L-8.65 -59.65 -8.1 -59.7 -8.05 -59.45 -8.1 -59.25 -8.1 -59.1 -8.0 -58.95 -7.95 -58.75 -7.95 -58.65 -8.0 -58.55 -7.95 -58.4 -7.9 -58.25 -8.05 -58.3 -8.3 -58.35 -9.05 -57.5 -9.45 -56.7 -9.35 -56.55 -9.35 -56.35 -9.35 -56.25 -9.4 -56.2 -9.5 -55.8 -9.5 -55.6 M-7.2 -57.75 L-6.45 -57.45 Q-5.95 -57.6 -5.6 -57.85 L-5.55 -57.8 -5.35 -57.45 -5.25 -57.3 -5.15 -57.0 -5.1 -56.85 -5.1 -56.7 -5.2 -56.5 -5.6 -55.7 -5.85 -55.15 -6.0 -55.1 -6.3 -55.05 -6.4 -54.95 -6.5 -54.85 -6.55 -54.8 -6.65 -54.55 -6.75 -54.4 -6.8 -54.35 Q-6.9 -54.3 -7.05 -54.2 L-7.35 -54.0 -7.7 -53.9 -7.85 -53.9 -7.85 -54.0 -7.9 -54.2 -7.8 -54.4 -7.8 -54.55 -7.85 -54.75 -8.0 -54.95 -8.15 -55.0 Q-7.55 -55.25 -7.4 -55.75 L-6.95 -57.4 -7.15 -57.7 -7.2 -57.75 M-13.6 -47.35 L-14.15 -47.25 -14.2 -47.2 -14.25 -47.1 -14.3 -47.0 -14.5 -46.95 -14.55 -46.9 -14.6 -46.8 -14.7 -46.7 -14.85 -46.85 -15.2 -47.1 -15.15 -47.2 -15.1 -47.85 -15.05 -48.0 -14.8 -48.55 -14.7 -48.7 Q-14.2 -48.85 -14.0 -49.3 L-13.8 -49.85 -13.8 -49.95 -13.85 -50.15 -13.9 -50.25 -13.6 -50.85 -13.4 -51.3 -12.95 -51.3 -12.55 -51.2 -12.4 -50.15 -12.4 -50.05 -12.5 -50.05 -13.45 -48.85 -13.7 -47.8 -13.6 -47.45 -13.6 -47.35 M-10.7 -49.05 L-10.5 -49.1 -10.3 -49.15 -10.1 -49.3 -9.8 -49.4 -9.9 -49.25 -9.9 -48.95 -9.85 -48.25 -9.85 -47.9 -9.9 -47.65 -9.95 -47.45 -9.9 -47.1 -10.35 -46.1 -10.85 -45.5 -11.15 -45.6 -11.5 -45.6 -11.7 -45.45 -11.85 -45.4 -12.15 -45.3 -12.2 -45.2 -12.15 -45.35 -12.15 -45.7 -12.05 -45.9 -12.1 -45.95 -12.1 -46.15 -12.15 -46.55 Q-11.6 -46.95 -11.25 -47.65 L-10.6 -48.9 -10.7 -49.05 M-9.65 -51.3 L-9.75 -51.3 -9.9 -51.3 -10.05 -51.2 -10.15 -51.15 -10.25 -50.9 -10.3 -50.7 -10.25 -50.45 -10.1 -50.25 -10.1 -50.2 -10.55 -49.95 Q-10.85 -49.7 -11.2 -49.8 L-11.5 -50.25 -11.6 -50.65 -11.4 -51.05 -11.25 -51.3 -11.35 -51.4 -11.25 -51.45 -11.2 -51.45 -11.15 -51.55 -11.2 -51.9 -11.25 -52.0 -11.0 -52.55 -10.45 -53.65 -10.1 -53.8 -10.0 -53.85 -10.05 -54.15 -10.15 -54.3 -9.8 -54.7 -9.65 -54.85 -9.25 -54.75 Q-8.8 -54.8 -8.75 -54.5 L-8.75 -54.45 -8.7 -54.15 -8.7 -54.0 -8.9 -53.6 -9.05 -53.3 -9.1 -53.15 -8.95 -53.0 -9.0 -52.95 -9.15 -52.6 -9.2 -52.55 -9.15 -52.35 -9.65 -51.3 M-13.15 -44.15 L-13.3 -43.9 -13.4 -43.65 -13.35 -43.55 -13.3 -43.45 -13.45 -43.15 -13.55 -42.9 -13.75 -42.85 -13.85 -42.8 -14.15 -42.15 -14.6 -41.3 -14.8 -41.3 -14.9 -41.25 -15.05 -41.05 -15.2 -41.0 Q-15.75 -40.95 -16.1 -41.35 L-16.15 -41.45 -15.9 -41.65 -15.75 -42.2 Q-15.6 -42.65 -15.75 -43.15 L-15.2 -44.15 -14.35 -45.85 -14.3 -46.0 -13.85 -46.15 Q-13.7 -46.45 -13.25 -46.55 L-13.2 -46.45 -13.0 -46.1 -13.0 -45.85 -13.0 -45.45 -13.05 -45.35 -13.1 -45.2 -13.15 -45.1 -13.1 -45.05 -13.05 -44.9 -13.1 -44.75 -13.15 -44.65 -13.25 -44.55 -13.2 -44.45 -13.15 -44.3 -13.15 -44.15 M-12.3 -45.05 L-12.25 -45.1 -12.25 -44.95 -12.3 -45.05 M-18.3 -37.3 L-18.6 -37.2 Q-19.0 -37.85 -19.05 -38.45 L-18.4 -39.7 -17.85 -40.85 -17.85 -40.95 -17.9 -41.1 -17.9 -41.25 -17.85 -41.35 -17.55 -41.9 -17.45 -42.15 -17.3 -42.15 -17.1 -41.8 -16.4 -40.65 -15.3 -40.25 -14.95 -40.3 -14.35 -40.45 -14.35 -40.5 -14.3 -40.5 -13.95 -40.1 -13.85 -40.0 -13.8 -39.85 -13.8 -39.7 -13.7 -39.55 -14.5 -38.0 -15.15 -36.75 -15.1 -36.7 -15.1 -36.5 -15.2 -36.45 -15.35 -36.3 -15.4 -36.25 -15.45 -36.15 -15.5 -36.0 -15.65 -35.95 -16.3 -35.8 -16.65 -35.8 -16.6 -35.85 -16.65 -36.1 -16.65 -36.45 -16.65 -36.6 -16.9 -36.7 -17.0 -36.75 -16.85 -36.85 -16.15 -37.75 Q-15.8 -38.15 -15.85 -38.8 L-15.8 -38.9 -15.65 -39.2 -15.6 -39.5 -15.65 -39.6 -15.75 -39.8 -15.8 -40.0 -16.15 -40.2 -16.6 -40.3 -16.8 -40.3 -17.0 -40.3 -17.3 -40.25 -17.45 -40.15 -17.95 -39.15 -18.55 -37.85 -18.3 -37.4 -18.3 -37.3 M-20.95 -31.65 L-20.9 -31.7 -20.2 -33.1 -18.7 -36.05 -18.4 -36.25 -18.35 -36.35 -18.3 -36.4 -18.3 -36.45 -18.0 -36.65 -17.95 -36.6 -17.6 -36.35 -17.6 -36.25 -17.55 -35.95 -17.6 -35.85 -17.65 -35.75 -17.7 -35.65 -17.65 -35.2 -17.55 -34.9 -17.75 -34.5 -17.95 -33.8 -18.0 -33.7 -18.7 -32.25 -18.75 -32.15 -19.0 -32.05 -19.05 -31.95 -19.1 -31.85 -19.2 -31.75 -19.5 -31.6 -19.6 -31.45 -19.85 -31.3 -19.9 -31.25 -20.7 -31.65 -20.95 -31.65 M-19.4 -30.55 L-19.2 -30.65 -19.05 -30.05 -19.0 -29.65 -19.15 -29.4 -19.35 -29.0 -19.45 -28.8 -19.4 -28.65 -19.35 -28.5 -19.35 -28.4 -19.45 -28.15 -19.6 -27.85 -19.7 -27.65 -19.95 -27.55 -20.25 -27.25 -20.35 -27.05 -20.7 -26.95 -21.0 -26.85 -21.05 -26.8 -21.2 -26.75 -21.25 -26.65 -21.35 -26.55 -21.45 -27.6 -21.65 -27.8 -21.95 -27.9 -21.8 -27.95 -21.45 -28.05 -21.25 -28.1 Q-20.65 -28.55 -20.4 -29.1 L-20.1 -29.9 -19.95 -29.85 -19.8 -29.9 -19.6 -30.1 -19.45 -30.3 -19.35 -30.55 -19.4 -30.55 M-22.5 -28.05 L-22.55 -28.05 -23.45 -28.05 -23.55 -28.0 -23.6 -28.1 -23.75 -28.3 -23.8 -28.5 -23.75 -28.65 -23.75 -28.85 -23.8 -29.0 -23.6 -29.4 -23.4 -29.75 -23.4 -29.85 -23.4 -29.95 -23.45 -30.05 -23.4 -30.25 -23.4 -30.35 -22.65 -31.75 -22.1 -32.75 -21.7 -32.7 -21.55 -32.65 -21.9 -31.85 -21.9 -31.7 -21.85 -31.35 -22.55 -30.35 -23.05 -28.6 -22.8 -28.35 -22.5 -28.05 M-24.25 -22.65 L-24.95 -22.7 -25.05 -23.05 -25.15 -23.3 -25.1 -23.4 -25.05 -23.5 -25.15 -23.7 -25.1 -23.8 -24.45 -25.05 -23.55 -26.9 -23.45 -27.0 -23.3 -27.0 -23.2 -27.15 -23.15 -27.25 -22.85 -27.3 -22.35 -27.4 -22.2 -26.7 -22.25 -26.5 -22.5 -26.45 -22.7 -26.15 -22.7 -26.0 -22.65 -25.8 -22.5 -25.55 -23.0 -24.5 Q-23.35 -23.7 -24.0 -23.15 L-24.1 -22.9 -24.25 -22.65 M-25.5 -22.2 L-25.05 -22.0 -24.85 -21.85 -24.75 -21.9 -24.4 -21.8 -24.25 -21.65 -23.75 -21.3 -23.55 -21.2 -23.65 -20.7 -23.9 -20.3 -24.0 -20.05 -24.0 -19.95 -24.05 -19.8 -24.05 -19.7 -24.55 -18.45 -25.05 -17.8 -25.6 -17.75 -25.75 -17.7 -25.95 -17.7 -26.1 -17.6 -26.15 -17.55 -26.25 -17.45 -26.3 -17.4 -26.35 -17.6 -26.45 -18.05 -26.8 -18.4 -27.0 -18.6 -27.55 -18.9 -27.9 -18.95 -28.05 -18.95 -28.05 -19.05 -28.0 -19.2 -28.0 -19.3 -27.95 -19.45 -28.1 -19.6 -28.15 -20.05 -28.2 -20.3 -28.05 -20.35 -27.9 -20.4 -27.85 -20.5 Q-27.5 -21.15 -27.3 -21.9 -27.15 -22.6 -26.65 -23.15 L-26.2 -23.2 -25.95 -23.2 -26.0 -23.0 -25.7 -22.3 -25.5 -22.2 -26.0 -22.25 -26.3 -22.25 -27.15 -21.05 -27.55 -19.7 -27.45 -19.55 -26.65 -18.8 -26.15 -18.7 -25.95 -18.7 -25.65 -18.95 -25.3 -19.55 -25.1 -19.95 -24.95 -19.95 -24.8 -20.0 -24.7 -20.15 -24.55 -20.15 -24.4 -20.4 -24.3 -20.6 -24.45 -20.7 -24.45 -20.9 -24.6 -21.1 -24.9 -21.4 -24.95 -21.55 -25.05 -21.7 -25.2 -21.9 -25.5 -22.2 M-27.3 -17.45 L-27.1 -17.2 -27.15 -16.3 -27.25 -16.15 -27.35 -15.9 -27.35 -15.85 -27.25 -15.7 -27.5 -15.15 -28.0 -14.2 -28.1 -14.15 -28.35 -13.95 -28.5 -13.8 -28.55 -13.75 -28.85 -13.75 Q-28.95 -13.65 -29.05 -13.65 L-29.25 -13.8 -29.25 -13.95 -29.3 -14.3 -29.3 -15.0 -29.0 -15.65 -28.4 -16.85 Q-28.15 -16.9 -28.05 -17.1 L-27.8 -17.45 -27.6 -17.45 -27.3 -17.45 M-32.05 -11.65 L-32.35 -11.7 -32.8 -11.6 -32.85 -11.55 -33.2 -10.85 -33.3 -11.25 -33.4 -11.55 -32.55 -13.65 Q-32.15 -14.2 -31.9 -14.95 L-31.1 -14.85 -30.2 -14.8 -30.2 -14.75 -30.25 -14.7 -30.25 -14.5 -30.2 -14.35 -30.25 -14.25 -30.3 -14.2 -30.45 -14.15 -30.65 -13.9 -30.85 -13.7 -31.05 -13.65 -31.3 -13.6 -31.4 -13.65 -31.95 -12.95 -32.15 -12.3 -32.05 -11.65 M-29.05 -12.55 L-28.85 -12.5 -28.7 -12.4 -28.75 -12.35 -28.7 -12.1 -28.7 -11.95 -28.65 -11.85 -28.75 -11.75 -28.75 -11.65 -28.8 -11.45 -28.8 -11.4 -28.8 -11.25 -28.85 -11.15 -28.95 -10.95 -29.0 -10.8 -29.05 -10.75 -29.0 -10.55 -28.95 -10.4 -28.95 -10.25 -28.95 -10.15 -29.05 -9.95 -29.05 -9.85 -29.05 -9.7 -29.1 -9.55 -29.15 -9.5 -29.2 -9.4 Q-29.6 -8.95 -30.4 -8.9 L-30.55 -8.9 -30.6 -9.05 -30.5 -9.15 -30.5 -9.25 -30.45 -9.35 -30.5 -9.55 -30.5 -9.65 -30.45 -9.7 -30.5 -9.85 -30.5 -10.05 -30.6 -10.3 -30.65 -10.35 -30.45 -10.4 Q-29.65 -10.6 -29.4 -11.25 L-29.05 -12.55 M-32.9 -9.35 L-32.9 -9.4 -32.15 -10.95 -31.5 -10.5 -31.4 -10.2 -31.35 -9.55 -31.4 -9.45 -31.5 -9.2 -31.45 -9.05 -31.4 -8.85 -31.5 -8.7 -31.5 -8.65 -31.8 -8.65 -31.85 -8.55 -31.9 -8.25 Q-32.15 -8.35 -32.3 -8.1 L-32.3 -8.0 -32.2 -7.8 -32.4 -7.45 -32.6 -7.05 -32.85 -6.75 -32.95 -6.65 -33.05 -6.6 -33.05 -6.55 -34.15 -6.5 -33.95 -6.95 -33.55 -7.75 -33.55 -7.85 -33.55 -8.15 -33.45 -8.2 -33.3 -8.3 -33.2 -8.4 -33.1 -8.55 -32.9 -9.35" fill="#999999" fill-rule="evenodd" stroke="none"/>
    <path d="M-34.4 -5.8 L-33.85 -5.55 -33.65 -5.45 -33.5 -5.45 -33.4 -5.5 -33.4 -5.55 -33.2 -5.4 Q-32.9 -4.95 -33.0 -4.5 -32.95 -4.15 -33.2 -3.85 -33.1 -3.25 -33.5 -2.85 -33.8 -2.4 -34.4 -2.25 -35.15 -2.35 -35.6 -2.85 L-35.85 -3.1 -35.4 -4.7 -34.7 -5.7 -34.5 -5.8 -34.4 -5.8 M37.0 -6.7 L37.55 -6.95 37.75 -7.15 37.8 -7.2 37.8 -7.3 37.8 -7.35 38.0 -7.4 38.85 -7.05 39.25 -6.45 Q39.75 -6.2 39.85 -5.6 40.05 -5.1 39.7 -4.5 39.2 -4.0 38.45 -3.95 L38.2 -3.95 Q37.55 -4.45 37.2 -5.25 L36.9 -6.45 36.95 -6.65 37.0 -6.7 M4.75 -78.8 L4.95 -78.9 4.95 -78.85 5.0 -78.8 4.75 -78.8 M4.7 -75.25 L4.1 -75.55 4.0 -75.7 3.8 -76.1 3.55 -76.9 3.55 -76.95 3.65 -77.15 3.75 -77.25 3.8 -77.4 3.8 -77.45 3.8 -77.7 Q3.7 -77.85 3.75 -78.05 L3.8 -78.2 3.95 -78.1 4.0 -78.1 4.2 -78.0 4.4 -77.9 4.65 -78.0 4.85 -78.1 5.2 -78.2 5.2 -78.25 5.35 -78.15 5.55 -78.15 5.7 -78.15 5.8 -78.15 6.65 -77.05 Q7.0 -76.45 6.65 -75.7 L6.55 -75.55 5.75 -75.65 5.55 -75.65 4.7 -75.25 M-0.85 -73.75 Q-0.75 -74.0 -0.95 -74.35 L-0.7 -75.0 -0.2 -75.65 -0.05 -75.7 0.15 -75.75 0.35 -75.8 0.55 -75.95 0.75 -76.2 0.85 -76.2 1.1 -75.65 1.1 -75.6 1.15 -75.6 1.35 -75.1 2.0 -73.75 1.85 -73.35 Q1.55 -72.65 0.75 -72.45 L0.55 -72.45 0.2 -73.1 0.0 -73.3 -0.85 -73.75 M8.4 -67.0 L8.35 -67.05 8.05 -67.45 7.95 -67.65 7.6 -67.85 7.3 -68.45 7.25 -68.6 7.25 -68.75 7.35 -68.9 7.5 -69.15 7.55 -69.25 7.75 -69.35 7.85 -69.4 7.85 -69.45 8.3 -69.6 8.7 -69.7 Q9.75 -69.6 10.1 -68.9 L10.15 -67.7 10.05 -67.8 9.65 -67.95 9.35 -67.85 8.7 -67.65 8.55 -67.45 8.4 -67.0 M9.25 -67.0 L9.25 -67.05 9.7 -67.1 9.25 -67.0 M13.15 -60.35 L13.3 -60.35 13.65 -60.3 14.7 -58.95 Q15.0 -58.5 14.8 -57.85 L13.75 -57.35 13.5 -57.2 13.35 -57.35 13.1 -57.6 13.05 -57.7 12.95 -57.8 12.85 -57.9 12.7 -57.9 12.3 -58.75 Q12.0 -59.25 12.05 -59.85 L12.3 -60.0 12.4 -60.05 12.45 -60.1 12.7 -60.2 13.15 -60.35 M17.45 -48.85 L17.3 -48.9 16.95 -49.0 16.35 -49.9 Q16.0 -50.6 15.9 -51.4 L16.05 -51.5 16.95 -51.4 17.35 -51.6 17.55 -51.75 17.6 -51.85 17.85 -52.2 17.85 -52.15 18.05 -52.1 18.6 -50.85 18.9 -49.45 18.85 -49.5 17.9 -49.4 17.55 -49.1 17.45 -48.85 M22.3 -38.85 L22.2 -38.95 21.8 -39.1 21.1 -40.3 20.6 -41.35 20.65 -41.55 20.8 -41.8 20.85 -41.95 21.05 -42.15 21.4 -42.45 21.75 -42.55 21.95 -42.45 22.15 -42.4 22.35 -42.4 22.45 -42.2 22.6 -41.9 22.65 -41.8 Q23.25 -41.45 23.35 -40.85 L23.55 -39.8 23.6 -39.6 22.6 -39.2 22.3 -38.85 M25.1 -33.35 L25.3 -33.45 26.1 -33.85 26.05 -33.8 25.6 -33.15 25.35 -33.25 25.1 -33.35 M26.95 -33.9 L27.0 -33.9 27.1 -33.65 27.15 -33.45 27.2 -33.15 27.15 -33.0 27.0 -32.85 27.4 -32.15 Q27.75 -31.6 27.7 -30.9 L27.65 -30.75 27.45 -30.35 27.4 -30.25 27.3 -30.15 26.95 -29.8 26.5 -29.8 26.2 -29.8 Q25.55 -30.4 25.15 -31.3 L24.75 -32.45 25.5 -32.35 25.8 -32.35 26.15 -32.6 26.4 -32.8 26.95 -33.9 M31.75 -23.6 L31.85 -23.35 31.8 -23.25 31.85 -23.1 31.8 -22.95 31.7 -22.8 31.9 -22.35 32.1 -21.7 32.1 -21.35 32.0 -21.15 31.6 -20.85 30.6 -20.7 30.3 -20.75 29.5 -21.85 Q29.15 -22.6 29.15 -23.3 L29.35 -23.5 29.7 -23.85 30.1 -23.95 30.3 -23.95 30.5 -23.9 30.65 -23.9 31.1 -23.9 31.35 -23.9 31.5 -23.8 31.65 -23.8 31.75 -23.6 M33.85 -12.2 L33.25 -12.55 32.95 -13.1 Q32.75 -13.5 32.7 -13.9 L32.8 -14.05 32.9 -14.25 32.95 -14.4 32.95 -14.65 32.9 -15.0 33.0 -15.15 33.0 -15.1 33.2 -15.1 33.4 -14.9 33.6 -14.85 33.85 -14.9 34.35 -15.15 34.35 -15.2 34.5 -15.1 34.75 -15.1 35.0 -15.15 35.8 -14.0 Q36.2 -13.45 35.8 -12.7 L35.7 -12.5 34.95 -12.6 34.7 -12.6 33.85 -12.2 M-4.95 -65.7 L-4.95 -65.8 -4.8 -66.25 -4.7 -66.45 -4.75 -66.9 -4.45 -67.45 -4.4 -67.6 -4.3 -67.65 -4.15 -67.65 -3.85 -67.75 -3.7 -67.75 -3.55 -67.65 -3.45 -67.6 -3.4 -67.65 -3.0 -67.35 -2.65 -67.15 Q-2.1 -66.25 -2.45 -65.55 -2.75 -65.0 -3.3 -64.7 L-3.35 -64.85 -3.45 -65.3 -3.7 -65.5 -4.3 -65.85 -4.5 -65.85 -4.95 -65.7 M-4.4 -65.0 L-4.35 -65.05 -4.05 -64.8 -4.4 -65.0 M-9.5 -55.6 L-9.5 -55.8 -9.4 -56.2 -9.35 -56.25 -9.35 -56.35 -9.35 -56.55 -9.45 -56.7 -9.05 -57.5 -8.3 -58.35 -8.05 -58.3 -7.9 -58.25 -7.85 -58.2 -7.65 -58.05 -7.25 -57.8 -7.2 -57.75 -7.15 -57.7 -6.95 -57.4 -7.4 -55.75 Q-7.55 -55.25 -8.15 -55.0 L-9.15 -55.5 -9.5 -55.6 M-13.6 -47.35 L-13.6 -47.45 -13.7 -47.8 -13.45 -48.85 -12.5 -50.05 -12.4 -50.05 -11.85 -49.3 Q-11.65 -49.15 -11.45 -49.1 L-11.2 -49.0 -11.15 -49.05 -10.7 -49.05 -10.6 -48.9 -11.25 -47.65 Q-11.6 -46.95 -12.15 -46.55 L-12.2 -46.65 Q-12.25 -47.05 -12.8 -47.35 L-13.25 -47.35 -13.6 -47.35 M-18.3 -37.3 L-18.3 -37.4 -18.55 -37.85 -17.95 -39.15 -17.45 -40.15 -17.3 -40.25 -17.0 -40.3 -16.8 -40.3 -16.6 -40.3 -16.15 -40.2 -15.8 -40.0 -15.75 -39.8 -15.65 -39.6 -15.6 -39.5 -15.65 -39.2 -15.8 -38.9 -15.85 -38.8 Q-15.8 -38.15 -16.15 -37.75 L-16.85 -36.85 -17.0 -36.75 -17.85 -37.3 -18.3 -37.3 M-20.95 -31.65 L-20.7 -31.65 -19.9 -31.25 -20.0 -31.2 -20.8 -31.15 -20.8 -31.45 -20.95 -31.65 M-19.4 -30.55 L-19.35 -30.55 -19.45 -30.3 -19.6 -30.1 -19.8 -29.9 -19.95 -29.85 -20.1 -29.9 -20.4 -29.1 Q-20.65 -28.55 -21.25 -28.1 L-21.45 -28.05 -21.8 -27.95 -21.95 -27.9 -22.05 -28.0 -22.5 -28.05 -22.8 -28.35 -23.05 -28.6 -22.55 -30.35 -21.85 -31.35 -21.45 -30.75 -21.25 -30.55 Q-21.05 -30.4 -20.85 -30.4 L-20.55 -30.3 -19.4 -30.55 M-25.5 -22.2 L-25.2 -21.9 -25.05 -21.7 -24.95 -21.55 -24.9 -21.4 -24.6 -21.1 -24.45 -20.9 -24.45 -20.7 -24.3 -20.6 -24.4 -20.4 -24.55 -20.15 -24.7 -20.15 -24.8 -20.0 -24.95 -19.95 -25.1 -19.95 -25.3 -19.55 -25.65 -18.95 -25.95 -18.7 -26.15 -18.7 -26.65 -18.8 -27.45 -19.55 -27.55 -19.7 -27.15 -21.05 -26.3 -22.25 -26.0 -22.25 -25.5 -22.2 M-32.05 -11.65 L-32.15 -12.3 -31.95 -12.95 -31.4 -13.65 -31.3 -13.6 -31.05 -13.65 -30.85 -13.7 -30.65 -13.9 -30.45 -14.15 -30.3 -14.2 -30.35 -14.15 -30.2 -14.0 -30.2 -13.65 -30.15 -13.55 -29.9 -13.4 -29.45 -13.15 -29.4 -13.1 -29.35 -12.9 -29.2 -12.75 -29.05 -12.55 -29.4 -11.25 Q-29.65 -10.6 -30.45 -10.4 L-30.65 -10.35 -31.0 -11.0 -31.2 -11.2 -32.05 -11.65" fill="#666666" fill-rule="evenodd" stroke="none"/>
  </g>
</svg>
