<?xml version="1.0" encoding="UTF-8" standalone="no"?>
<svg xmlns:ffdec="https://www.free-decompiler.com/flash" xmlns:xlink="http://www.w3.org/1999/xlink" ffdec:objectType="shape" height="2.75px" width="4.9px" xmlns="http://www.w3.org/2000/svg">
  <g transform="matrix(1.0, 0.0, 0.0, 1.0, 1.6, 0.75)">
    <path d="M0.5 -0.5 L0.7 -0.6 1.95 0.0 3.0 0.5 3.15 0.65 3.2 0.8 3.3 0.95 3.3 1.05 3.3 1.2 3.2 1.25 3.2 1.4 3.15 1.45 3.0 1.55 2.6 1.7 1.95 1.6 1.35 1.4 0.65 0.95 0.5 0.9 0.4 1.1 0.2 1.25 -0.25 1.7 -0.45 1.85 -0.6 1.9 -0.85 2.0 -0.9 2.0 -1.2 1.9 -1.35 1.85 -1.5 1.7 -1.5 1.6 -1.6 1.55 -1.6 1.4 -1.6 1.3 -1.6 1.2 -1.6 1.1 -1.5 1.05 -1.5 0.9 -1.35 0.8 -1.3 0.65 -1.15 0.6 -0.9 0.5 -0.9 0.35 -0.85 0.3 -0.85 0.2 -0.85 0.05 -0.85 -0.05 -0.75 -0.3 -0.7 -0.45 -0.6 -0.5 -0.45 -0.65 -0.35 -0.75 -0.1 -0.75 0.35 -0.5 0.5 -0.5" fill="#ffffff" fill-opacity="0.30980393" fill-rule="evenodd" stroke="none"/>
  </g>
</svg>
