<?xml version="1.0" encoding="UTF-8" standalone="no"?>
<svg xmlns:ffdec="https://www.free-decompiler.com/flash" xmlns:xlink="http://www.w3.org/1999/xlink" ffdec:objectType="shape" height="18.8px" width="36.3px" xmlns="http://www.w3.org/2000/svg">
  <g transform="matrix(1.0, 0.0, 0.0, 1.0, 17.6, 10.95)">
    <path d="M18.7 -10.95 L18.7 4.75 17.85 5.0 16.65 6.35 15.75 7.1 15.75 7.05 15.7 6.85 15.65 6.7 15.55 6.5 Q15.15 6.2 14.6 6.25 14.05 6.35 13.55 6.7 L13.45 6.8 12.85 7.25 12.15 7.4 12.25 6.9 12.25 6.55 12.1 6.25 12.1 5.8 12.0 4.95 11.75 4.5 11.15 4.25 10.5 4.35 10.25 4.55 10.0 4.7 9.85 4.9 9.85 5.0 9.35 6.9 8.8 7.8 8.8 7.7 8.75 7.5 8.7 7.35 8.55 7.15 8.25 7.0 7.9 6.85 7.35 6.55 Q5.4 6.35 3.75 7.5 L2.95 6.05 2.2 5.2 2.15 5.1 2.1 5.05 2.0 4.95 1.95 4.85 1.9 4.75 1.8 4.65 1.4 4.5 0.95 4.4 Q-0.25 4.6 -0.6 5.6 L-1.0 6.6 -1.1 6.7 -1.95 7.5 -2.2 7.85 -3.85 6.55 -4.85 5.4 -4.85 5.3 -5.0 5.0 -5.1 4.85 -5.25 4.65 -5.4 4.55 -5.6 4.5 -5.8 4.45 -5.85 4.4 -6.1 4.45 -6.35 4.5 -6.55 4.65 -6.95 4.85 -7.1 4.95 -7.2 5.05 -7.25 5.15 -7.3 5.25 -7.3 5.35 -7.4 5.45 -7.45 5.5 -7.5 5.6 -7.6 5.7 -7.6 5.9 -7.65 6.1 -7.75 6.25 -7.9 6.45 Q-8.15 6.3 -8.5 6.25 L-9.2 6.1 -9.25 6.0 -9.3 5.95 -9.35 5.85 -9.4 5.75 -9.55 5.65 -9.95 5.5 -10.3 5.35 -10.4 5.25 -10.55 4.95 -10.7 4.75 -10.85 4.5 Q-11.2 4.2 -11.65 4.15 -12.7 3.95 -13.3 4.6 L-13.4 4.8 -13.95 6.1 -14.35 6.7 -14.9 6.5 -15.75 6.2 -15.75 6.0 Q-15.8 5.35 -16.0 4.75 L-16.55 4.1 -17.15 3.85 -17.6 3.65 -17.6 -10.95 18.7 -10.95" fill="#00cc99" fill-rule="evenodd" stroke="none"/>
  </g>
</svg>
