<?xml version="1.0" encoding="UTF-8" standalone="no"?>
<svg xmlns:ffdec="https://www.free-decompiler.com/flash" xmlns:xlink="http://www.w3.org/1999/xlink" ffdec:objectType="shape" height="7.4px" width="42.0px" xmlns="http://www.w3.org/2000/svg">
  <g transform="matrix(1.0, 0.0, 0.0, 1.0, 20.95, -3.5)">
    <path d="M20.85 7.3 L20.2 8.9 19.85 9.5 19.85 9.6 19.75 9.7 19.75 9.75 19.65 9.85 19.6 9.95 19.55 10.05 18.95 10.25 18.2 10.1 Q17.55 9.3 18.25 8.4 18.8 7.75 18.95 7.0 L19.0 6.45 18.9 6.4 18.85 6.45 18.8 6.55 18.75 6.65 18.1 7.15 17.3 8.15 17.0 8.35 16.75 8.5 16.65 8.6 15.2 8.8 Q14.55 8.8 14.1 8.4 L12.45 9.05 11.25 9.0 10.95 8.7 10.8 8.5 10.6 8.25 10.45 8.65 10.1 9.25 9.75 9.7 8.8 10.1 7.75 10.0 7.45 9.6 7.25 9.15 7.2 8.7 6.85 8.5 6.6 8.3 6.45 8.1 Q5.2 8.45 4.2 9.35 3.75 9.8 3.1 9.9 L2.75 9.8 2.55 9.75 Q2.15 9.25 2.1 8.6 1.95 7.6 1.4 6.75 L1.25 6.65 1.1 6.55 0.95 6.5 0.7 7.15 Q0.3 7.9 -0.5 8.45 L-0.5 9.1 -0.6 10.35 -0.75 10.7 -1.35 10.9 -2.1 10.75 -2.25 10.55 -2.5 10.35 -2.55 10.25 -2.6 10.15 -2.7 10.1 -2.7 10.0 -2.7 9.9 -2.75 9.8 -3.3 9.15 Q-3.9 8.55 -4.7 8.2 L-5.15 7.8 -5.8 7.1 -6.0 6.9 -6.05 6.85 Q-6.15 7.35 -6.55 7.75 -7.4 8.6 -8.5 8.25 L-8.65 8.05 -8.9 7.85 -9.0 7.7 -10.7 7.35 -11.25 6.85 -11.45 6.6 -11.65 6.3 -11.95 5.95 -12.3 6.8 -13.05 8.65 -14.1 8.85 -14.65 8.75 -14.75 8.65 -14.85 8.55 -14.9 8.45 -15.0 8.35 -15.35 8.15 -15.55 8.0 -15.75 7.9 -16.5 7.8 -17.2 7.35 -17.35 6.9 -17.6 6.15 -17.6 5.7 -17.65 5.6 -17.7 5.5 -17.75 5.4 -17.75 5.3 Q-18.5 6.15 -18.65 7.3 L-19.1 8.45 -18.75 9.35 Q-18.7 9.85 -19.0 10.25 L-19.15 10.35 -19.4 10.45 -19.6 10.5 -19.95 10.4 -20.15 10.35 -20.6 9.5 -20.65 9.0 Q-21.05 8.65 -20.9 8.15 L-20.35 6.35 -20.25 6.25 -20.2 6.2 -20.15 5.9 -20.05 5.55 -19.8 5.05 -19.8 4.95 -19.8 4.85 -19.7 4.75 -19.6 4.7 -19.5 4.6 -19.5 4.5 -19.45 4.4 -19.4 4.3 -19.25 4.2 -19.2 4.1 -19.2 4.0 -19.15 3.95 -19.1 3.85 -19.0 3.75 -18.7 3.6 -18.35 3.5 Q-17.7 3.55 -17.15 3.85 L-16.55 4.1 -16.0 4.75 Q-15.8 5.35 -15.75 6.0 L-15.75 6.2 -14.9 6.5 -14.35 6.7 -13.95 6.1 -13.4 4.8 -13.3 4.6 Q-12.7 3.95 -11.65 4.15 -11.2 4.2 -10.85 4.5 L-10.7 4.75 -10.55 4.95 -10.4 5.25 -10.3 5.35 -9.95 5.5 -9.55 5.65 -9.4 5.75 -9.35 5.85 -9.3 5.95 -9.25 6.0 -9.2 6.1 -8.5 6.25 Q-8.15 6.3 -7.9 6.45 L-7.75 6.25 -7.65 6.1 -7.6 5.9 -7.6 5.7 -7.5 5.6 -7.45 5.5 -7.4 5.45 -7.3 5.35 -7.3 5.25 -7.25 5.15 -7.2 5.05 -7.1 4.95 -6.95 4.85 -6.55 4.65 -6.35 4.5 -6.1 4.45 -5.85 4.4 -5.8 4.45 -5.6 4.5 -5.4 4.55 -5.25 4.65 -5.1 4.85 -5.0 5.0 -4.85 5.3 -4.85 5.4 -3.85 6.55 -2.2 7.85 -1.95 7.5 -1.1 6.7 -1.0 6.6 -0.6 5.6 Q-0.25 4.6 0.95 4.4 L1.4 4.5 1.8 4.65 1.9 4.75 1.95 4.85 2.0 4.95 2.1 5.05 2.15 5.1 2.2 5.2 2.95 6.05 3.75 7.5 Q5.4 6.35 7.35 6.55 L7.9 6.85 8.25 7.0 8.55 7.15 8.7 7.35 8.75 7.5 8.8 7.7 8.8 7.8 9.35 6.9 9.85 5.0 9.85 4.9 10.0 4.7 10.25 4.55 10.5 4.35 11.15 4.25 11.75 4.5 12.0 4.95 12.1 5.8 12.1 6.25 12.25 6.55 12.25 6.9 12.15 7.4 12.85 7.25 13.45 6.8 13.55 6.7 Q14.05 6.35 14.6 6.25 15.15 6.2 15.55 6.5 L15.65 6.7 15.7 6.85 15.75 7.05 15.75 7.1 16.65 6.35 17.85 5.0 20.1 5.1 20.75 5.45 Q21.3 6.35 20.85 7.3" fill="#000000" fill-rule="evenodd" stroke="none"/>
  </g>
</svg>
