<?xml version="1.0" encoding="UTF-8" standalone="no"?>
<svg xmlns:ffdec="https://www.free-decompiler.com/flash" xmlns:xlink="http://www.w3.org/1999/xlink" ffdec:objectType="shape" height="422.35px" width="559.0px" xmlns="http://www.w3.org/2000/svg">
  <g transform="matrix(1.0, 0.0, 0.0, 1.0, 275.8, 210.1)">
    <path d="M-275.8 112.6 L-275.35 113.1 -275.35 143.1 -275.8 143.6 -275.8 112.6 M-275.8 47.6 L-275.35 48.1 Q-275.35 56.1 -275.8 64.0 L-275.8 47.6 M265.75 212.15 L265.55 212.25 223.4 212.25 224.2 211.5 265.75 212.15 M280.45 209.55 L280.45 212.25 276.3 212.25 277.0 211.25 278.95 210.8 280.45 209.55 M282.65 62.45 L282.75 60.25 282.95 56.7 283.2 53.35 283.2 76.35 282.4 76.35 Q282.3 70.85 282.55 65.35 L282.65 62.45 M19.2 -207.05 L19.95 -207.05 18.25 -206.0 18.65 -206.4 19.2 -207.05 M276.45 -206.4 Q276.85 -202.2 276.45 -198.15 275.8 -192.45 275.55 -186.9 274.8 -171.4 274.6 -155.8 L274.45 -149.8 274.25 -136.1 273.15 -134.85 275.35 -88.6 274.25 -87.35 274.05 -83.5 Q273.8 -81.0 273.7 -78.35 273.4 -72.95 273.4 -67.5 273.4 -58.5 274.05 -49.5 274.6 -41.35 275.8 -33.25 276.65 -27.0 276.45 -20.65 L277.5 -19.4 278.6 -5.65 279.7 -4.4 279.7 25.6 276.45 36.85 276.45 43.1 275.35 44.35 274.25 61.85 275.35 63.1 276.45 108.1 275.35 109.35 275.35 146.9 276.45 148.15 276.45 159.4 277.5 160.65 275.35 198.15 273.05 208.15 219.05 206.5 214.05 212.25 197.85 212.25 203.85 211.65 203.4 208.3 192.5 207.5 186.1 207.15 182.15 207.25 176.4 207.4 167.15 208.15 105.55 210.75 100.65 210.8 76.6 210.9 68.95 210.9 55.55 210.65 51.1 210.55 46.65 210.4 45.9 209.75 6.25 206.75 4.85 206.75 -1.7 206.75 -3.75 206.8 -10.95 207.15 -12.05 207.15 Q-42.3 208.4 -72.65 208.3 L-73.95 208.4 Q-127.95 210.4 -182.05 211.25 L-188.7 211.3 -195.65 211.4 Q-224.85 212.65 -253.45 210.0 L-259.9 209.4 -272.1 207.9 Q-272.6 201.45 -271.75 195.2 L-271.75 194.95 Q-271.2 191.2 -269.45 187.65 L-268.9 186.4 Q-271.85 180.45 -271.45 174.05 L-270.9 170.45 -270.65 169.4 Q-270.35 166.95 -270.65 164.65 L-271.2 158.65 Q-271.45 152.7 -270.1 147.05 L-269.9 146.2 Q-268.7 140.6 -268.15 134.95 L-267.85 129.6 -267.95 123.95 Q-268.25 116.05 -270.1 108.2 -271.0 104.8 -270.9 101.35 -270.75 99.8 -270.75 98.1 L-270.55 94.1 -270.55 92.95 -270.1 83.35 -269.45 66.25 -269.35 64.1 -269.25 60.7 Q-269.05 53.5 -269.7 46.5 L-270.25 39.45 -270.35 36.95 -270.45 24.25 -270.35 21.0 Q-270.0 12.25 -268.9 3.6 -267.95 -4.1 -267.85 -11.75 -267.7 -15.4 -267.95 -19.1 L-268.15 -22.25 -269.25 -38.6 -269.25 -39.5 -269.6 -46.1 Q-270.1 -56.5 -270.1 -66.85 L-270.1 -75.35 -270.25 -85.2 -270.45 -108.85 -271.0 -122.6 Q-271.2 -127.95 -271.65 -133.3 -273.05 -151.45 -271.85 -169.65 L-271.3 -176.05 -270.35 -185.7 -269.15 -194.15 -267.85 -201.65 -267.7 -202.4 -267.2 -202.2 -262.15 -201.45 -255.85 -201.95 -251.6 -202.4 -250.55 -202.4 -244.65 -202.65 -231.7 -203.7 Q-216.25 -207.55 -198.45 -205.9 L-192.35 -205.35 -184.5 -204.65 -180.5 -204.3 Q-173.5 -207.1 -166.75 -204.35 L-156.0 -204.35 -161.3 -204.2 -140.8 -204.4 Q-115.4 -204.75 -147.1 -204.05 -143.0 -201.65 -137.5 -203.1 -132.05 -204.6 -117.15 -204.6 -102.25 -204.65 -89.3 -203.95 L-73.1 -203.45 Q-66.9 -203.9 82.9 -206.05 L80.8 -204.45 Q86.35 -204.4 91.8 -204.65 125.65 -207.55 159.65 -207.65 172.8 -207.65 186.1 -207.25 231.25 -204.8 276.45 -206.4" fill="#82641b" fill-rule="evenodd" stroke="none"/>
    <path d="M197.5 -139.8 Q219.2 -138.85 236.35 -128.8 238.35 -127.6 238.0 -126.05 211.35 -133.45 181.5 -131.1 L179.9 -131.6 176.3 -132.35 Q171.8 -132.3 169.0 -129.2 167.45 -127.55 167.6 -125.55 L167.7 -124.85 168.1 -123.05 Q170.5 -120.2 174.65 -119.3 L172.15 -119.3 Q147.65 -120.55 122.95 -120.45 76.25 -120.3 29.75 -124.1 27.15 -124.3 25.0 -124.85 L-71.25 -121.8 -74.95 -121.55 -75.95 -120.8 Q-77.55 -119.6 -79.3 -118.85 -83.55 -117.1 -88.9 -117.8 L-94.45 -118.3 Q-108.05 -119.35 -121.65 -118.3 -145.6 -116.35 -169.2 -118.45 -186.1 -118.35 -202.95 -118.6 -213.75 -113.3 -220.6 -119.85 L-245.85 -120.85 Q-256.5 -121.45 -254.1 -129.3 -251.5 -132.85 -246.05 -132.6 -227.25 -131.7 -211.1 -134.05 -204.25 -134.35 -197.5 -133.1 -195.45 -132.7 -193.8 -131.7 L-193.05 -131.7 Q-193.8 -133.1 -193.7 -134.6 L-191.2 -134.3 -191.2 -134.05 -192.05 -133.45 Q-194.25 -127.3 -187.05 -125.55 L-186.3 -124.8 -186.5 -125.35 Q-186.85 -126.8 -186.65 -128.45 -185.85 -135.05 -177.4 -135.7 -174.75 -135.6 -172.5 -134.45 -170.95 -133.8 -170.1 -132.6 -125.45 -132.8 -80.05 -130.95 -76.9 -130.85 -74.85 -129.05 L-74.05 -128.05 Q-73.3 -126.95 -73.1 -125.85 L-65.6 -124.6 Q-51.1 -122.05 -47.3 -130.45 -44.8 -131.1 -43.05 -131.95 5.3 -132.7 53.5 -134.55 66.8 -135.05 80.05 -134.85 L78.85 -134.3 Q77.45 -130.95 79.75 -128.05 81.05 -126.3 83.45 -126.35 112.4 -127.85 141.35 -132.85 156.7 -135.55 172.15 -137.45 L178.35 -135.8 Q191.65 -131.95 197.5 -139.8 M234.65 -114.05 Q236.6 -108.45 232.65 -105.8 L235.2 -105.45 Q251.2 -103.45 246.95 -93.6 L246.3 -92.35 Q241.95 -88.85 236.25 -91.05 231.7 -92.8 226.35 -92.7 L225.25 -92.7 225.7 -93.05 226.35 -93.6 Q238.0 -104.2 220.9 -109.85 L220.9 -109.8 219.3 -109.6 218.0 -109.45 216.9 -109.05 Q215.15 -108.35 213.95 -107.1 L212.75 -105.95 212.45 -104.05 Q212.2 -103.1 212.45 -102.2 L212.75 -100.95 Q198.95 -95.45 183.15 -94.1 L176.6 -93.6 157.55 -92.55 158.35 -93.6 Q158.85 -95.1 157.0 -96.7 148.3 -104.45 133.05 -104.35 L131.65 -104.45 101.05 -105.95 101.5 -106.1 102.9 -106.3 104.45 -106.45 104.45 -106.55 117.3 -106.2 Q114.45 -107.55 114.35 -110.95 114.35 -112.2 114.8 -113.45 122.5 -120.6 136.65 -119.1 L163.0 -118.05 176.3 -118.2 197.75 -117.1 218.0 -116.45 Q226.8 -116.3 234.65 -114.05 M95.75 -81.0 L17.45 -84.2 21.95 -83.2 Q23.9 -82.7 25.3 -81.5 26.5 -78.7 26.4 -76.5 -60.9 -69.6 -149.05 -70.2 L-174.1 -71.6 Q-187.85 -73.0 -195.35 -65.95 L-195.65 -64.7 Q-196.75 -57.7 -187.15 -57.6 L-174.1 -57.5 -174.65 -56.95 -174.85 -56.85 -176.3 -55.7 -176.85 -55.1 -177.25 -53.35 Q-178.7 -50.6 -177.7 -48.0 L-181.75 -47.85 Q-202.4 -46.85 -222.0 -47.7 -232.55 -48.1 -230.15 -55.95 L-229.4 -56.75 Q-239.1 -56.75 -248.35 -58.6 -250.85 -59.1 -251.2 -61.35 -251.6 -63.25 -250.85 -65.1 -238.65 -71.85 -221.45 -71.85 -208.2 -71.85 -195.9 -74.0 -183.6 -74.95 -171.4 -73.35 -168.45 -72.95 -165.95 -71.95 -137.75 -73.95 -109.65 -77.45 L-106.4 -77.75 -52.75 -75.2 Q-35.75 -74.5 -41.1 -85.7 -59.9 -90.2 -81.05 -90.8 L-94.85 -91.3 -80.5 -91.35 Q-28.55 -92.05 23.45 -91.7 L36.2 -91.2 43.5 -91.45 87.25 -87.75 Q86.35 -82.2 94.45 -81.2 L95.75 -81.0 M60.25 -70.95 L83.85 -70.5 Q102.6 -70.0 120.45 -66.6 L119.8 -66.35 119.15 -65.95 Q117.95 -63.0 119.7 -60.35 120.55 -58.85 122.3 -58.7 L125.65 -58.45 132.75 -57.25 133.4 -57.2 Q102.9 -52.5 72.0 -51.6 71.8 -52.35 72.0 -53.2 L72.35 -55.1 72.9 -55.7 74.2 -56.85 56.0 -57.25 Q41.3 -62.85 22.9 -61.5 L7.35 -60.95 47.3 -64.35 Q59.25 -65.5 60.25 -70.95 M224.85 -22.0 L225.6 -21.5 Q226.7 -20.25 227.1 -19.1 228.0 -16.65 226.15 -14.15 L226.6 -14.1 Q228.55 -13.5 229.95 -12.35 235.2 -0.25 215.45 0.0 L198.4 0.6 198.8 0.0 Q209.4 -13.15 187.15 -18.15 180.65 -17.85 178.9 -12.65 178.05 -10.1 179.9 -7.75 L123.95 -4.35 125.25 -4.9 Q104.9 -7.5 84.3 -8.85 L80.95 -9.0 Q54.9 -17.65 26.2 -18.0 L-3.85 -18.5 -4.1 -19.0 -4.2 -19.1 -6.15 -20.0 Q-19.65 -24.65 -34.9 -23.9 L-86.4 -21.15 Q-137.0 -23.5 -186.4 -30.95 -187.3 -32.1 -188.8 -32.85 -191.1 -33.95 -193.7 -34.0 -200.25 -33.35 -203.15 -30.15 L-231.9 -29.0 Q-238.9 -28.65 -239.4 -33.95 L-239.4 -34.7 Q-253.15 -31.7 -262.3 -37.95 -265.45 -40.1 -263.9 -43.45 L-263.35 -44.0 Q-261.75 -45.85 -259.25 -47.0 -256.95 -48.1 -254.65 -48.2 L-239.4 -48.0 Q-235.4 -48.0 -232.65 -45.7 L-231.7 -43.95 -225.95 -43.35 Q-224.4 -43.0 -223.65 -41.95 -214.15 -41.25 -204.6 -41.95 L-175.1 -44.45 Q-172.35 -42.1 -167.15 -39.95 -161.25 -37.45 -154.65 -36.6 L-140.35 -35.0 Q-114.9 -32.45 -89.3 -31.7 L-90.1 -29.85 Q-101.7 -26.25 -115.55 -30.1 -119.6 -31.2 -124.05 -31.25 -150.5 -31.35 -176.85 -30.85 -146.15 -26.15 -111.85 -27.0 L-81.8 -27.4 -78.3 -28.15 Q-76.6 -28.1 -74.95 -27.5 -22.7 -27.75 29.45 -25.25 L38.05 -24.85 72.9 -23.1 146.55 -23.0 149.6 -22.6 Q187.95 -22.9 224.85 -22.0 M196.75 2.0 L205.25 2.15 246.5 3.25 Q249.65 3.35 251.7 5.15 254.75 8.4 252.6 12.0 250.3 15.75 244.85 15.85 214.3 16.35 184.0 14.9 L184.25 15.15 185.0 16.35 148.65 13.9 156.5 13.25 134.25 11.35 Q132.55 11.15 131.65 9.65 L131.0 8.4 Q161.8 8.15 191.95 3.65 194.8 3.25 196.75 2.0 M244.3 27.6 L245.2 27.25 246.5 27.1 248.15 26.9 248.15 26.85 Q250.85 26.9 253.05 28.2 L255.0 29.35 Q256.85 31.35 256.95 33.7 257.25 36.75 255.0 39.35 250.75 42.25 244.85 42.5 L212.75 43.25 Q211.75 38.6 201.3 35.2 196.55 35.35 193.8 38.85 192.4 40.75 192.6 43.1 L192.05 43.2 138.6 41.25 Q136.9 41.2 136.0 39.7 134.25 36.95 135.45 34.1 138.2 30.5 143.65 30.35 L203.7 29.35 Q217.2 30.35 228.55 34.35 228.2 39.1 234.0 40.6 243.8 43.1 245.2 35.25 246.05 30.75 244.3 27.6 M173.15 60.85 L182.6 60.75 Q209.5 60.25 234.3 55.6 L235.6 55.45 237.25 55.25 237.25 55.2 Q239.95 55.25 242.15 56.5 L244.1 57.7 Q247.5 66.25 238.9 69.45 L226.35 69.35 204.15 71.6 202.5 71.75 Q199.8 69.95 194.8 68.5 L194.8 68.6 193.15 68.75 191.85 68.95 190.75 69.35 Q189.0 70.0 187.85 71.25 L186.85 72.25 186.5 72.25 Q188.7 69.6 186.4 64.35 185.45 63.7 184.35 63.45 L173.15 60.85 M57.1 77.35 Q20.5 79.1 -15.85 82.2 L-66.15 86.7 -120.1 91.3 Q-67.2 95.8 -13.55 96.45 L46.95 97.35 Q46.75 99.3 48.5 100.85 52.65 104.8 58.6 107.1 37.5 106.7 16.5 106.8 L15.5 104.35 13.55 103.2 Q11.35 101.95 8.75 101.85 L-23.15 105.7 -33.7 104.35 -33.8 104.45 -35.3 104.6 -36.75 104.8 Q-38.5 105.3 -39.9 106.3 -68.5 104.8 -96.85 100.2 L-96.95 100.3 -98.45 100.45 -99.85 100.6 -102.15 101.8 -103.9 102.95 -105.0 104.1 -105.55 106.3 -133.95 104.35 Q-146.55 103.35 -157.55 99.1 -161.8 97.35 -162.35 94.3 L-165.1 94.45 Q-193.05 96.3 -220.15 91.8 -232.35 89.8 -227.0 81.5 -220.9 71.95 -209.8 77.7 L-209.25 78.35 -208.95 78.95 -208.5 79.6 -208.2 80.2 -208.2 80.6 Q-173.0 80.35 -137.85 78.7 -147.45 81.75 -156.15 85.8 -157.65 89.1 -155.4 92.05 -153.95 93.8 -151.7 93.6 -128.95 92.05 -106.6 85.2 -91.5 80.6 -75.5 78.7 -48.5 75.6 -21.5 74.2 17.9 74.45 57.1 77.35 M79.3 97.95 L122.95 99.05 145.25 100.05 Q151.35 100.45 156.35 102.85 L164.3 103.85 Q208.3 107.95 251.7 103.55 252.8 102.1 254.45 101.05 257.15 99.35 260.1 99.35 262.85 99.45 265.0 100.6 L266.95 101.85 Q271.45 112.85 258.35 115.95 229.4 103.55 194.8 106.85 L181.75 108.45 Q167.9 110.05 154.2 108.6 147.55 107.85 142.85 110.3 L141.45 110.2 Q135.25 110.1 129.25 108.95 104.1 104.05 79.3 97.95 M177.05 121.6 Q176.85 123.85 173.9 126.6 169.0 131.2 162.7 127.45 80.4 128.95 -2.45 133.35 L-19.95 134.3 -31.2 133.45 -19.85 132.95 27.05 130.3 Q39.15 129.45 34.25 121.3 L36.0 121.05 83.75 121.35 Q95.2 121.45 96.15 116.05 L116.0 120.45 Q131.1 123.8 146.8 125.3 158.75 126.45 161.6 122.05 L177.05 121.6 M-3.2 146.15 Q27.4 145.95 57.95 147.45 L71.9 148.05 Q71.55 149.45 72.0 151.3 L72.75 153.4 Q71.9 154.05 71.25 154.95 L71.05 155.65 Q70.05 158.65 72.45 161.05 L73.4 161.9 69.95 161.7 70.8 162.15 62.55 162.4 Q44.05 163.2 25.75 161.8 L6.9 159.8 Q7.25 157.55 5.7 154.4 L4.1 153.3 3.55 152.7 1.6 151.45 Q-0.6 150.3 -3.2 150.2 L-3.3 150.3 -4.85 150.45 -6.25 150.65 Q-8.0 151.4 -9.5 152.3 L-27.8 153.2 -39.15 150.2 Q-44.8 150.55 -46.85 154.15 L-141.8 157.7 -142.1 157.05 -142.55 156.4 -142.85 155.8 -143.4 155.2 -144.3 154.8 Q-160.6 151.55 -173.55 162.45 L-174.0 164.15 Q-179.75 162.65 -183.9 166.9 L-184.45 167.45 -184.9 169.55 -263.25 166.15 Q-272.6 165.55 -274.05 158.9 L-274.25 157.05 -274.15 156.45 Q-270.65 149.45 -259.8 149.9 L-250.85 149.55 -242.7 148.55 Q-240.1 148.65 -237.9 149.8 L-235.95 151.05 -235.4 151.65 -235.05 152.2 -234.65 152.9 -234.3 153.55 -221.8 154.15 Q-222.1 149.8 -216.0 148.95 L-189.35 145.2 Q-186.75 145.3 -184.55 146.45 L-182.6 147.7 -182.05 148.3 -181.75 148.9 -181.2 149.55 Q-127.65 149.1 -73.65 147.5 L-43.5 146.95 -21.7 146.55 Q-17.7 146.45 -14.0 147.55 -6.35 149.9 -3.2 146.15 M147.0 137.1 Q155.7 131.85 168.65 134.95 L174.45 135.85 Q199.05 137.95 223.1 135.45 L228.3 134.55 Q229.65 133.05 231.7 132.1 234.0 131.1 236.15 131.05 238.9 131.1 241.05 132.3 L243.0 133.55 Q248.55 147.4 227.0 149.15 191.4 152.15 157.0 146.8 158.65 143.8 157.0 139.35 155.6 138.2 153.75 137.55 151.45 136.8 149.05 136.85 L147.0 137.1 M134.9 152.65 Q149.2 155.15 162.8 159.3 L164.2 159.95 Q136.35 158.3 109.1 154.3 L134.9 152.65 M177.6 160.55 L177.9 159.15 179.9 157.2 Q181.3 156.15 183.15 155.65 L184.45 155.45 186.1 155.3 186.1 155.2 209.9 159.55 177.6 160.55 M242.9 162.7 L251.2 161.9 Q257.15 157.4 263.9 161.3 L264.8 161.9 Q270.9 175.45 250.1 175.9 230.6 176.3 212.3 173.4 L227.25 172.55 Q243.9 171.4 242.9 162.7 M132.85 173.9 Q141.8 175.05 149.5 178.15 L150.6 178.3 159.95 178.3 Q175.85 178.3 189.45 183.15 L217.75 184.9 Q232.55 185.4 246.4 188.45 247.5 188.7 248.45 189.4 253.55 201.9 234.0 200.7 195.55 198.4 157.55 193.8 154.4 193.45 151.6 192.7 128.85 191.4 106.5 188.65 106.95 187.45 106.95 186.15 114.35 184.7 117.05 181.45 119.35 180.7 121.45 179.2 124.45 177.05 123.05 174.7 L129.35 174.3 132.85 173.9 M-119.45 190.3 L-158.1 190.55 Q-171.4 190.45 -169.2 180.8 -168.45 179.7 -167.35 179.05 -145.35 181.8 -122.6 179.3 L-118.9 178.9 -123.5 183.3 Q-124.8 186.15 -122.3 188.2 L-119.45 190.3 M-187.3 141.55 L-210.05 141.55 Q-213.75 141.55 -215.8 140.55 L-214.4 140.55 -189.25 140.45 -187.3 141.55 M-129.9 68.1 L-157.0 67.85 -174.65 67.25 -178.25 67.0 -183.35 66.7 -129.95 63.2 -130.05 63.25 Q-130.7 64.85 -130.55 66.45 -130.55 67.45 -129.9 68.1 M-236.05 59.7 Q-249.85 56.2 -260.65 49.0 -262.85 47.6 -262.05 45.35 L-261.75 44.1 Q-256.2 39.2 -246.8 38.85 L-242.7 38.5 Q-240.1 38.6 -237.9 39.85 -236.9 40.35 -235.95 41.0 L-234.95 42.2 Q-234.2 43.0 -234.2 44.1 L-234.0 45.35 Q-211.35 50.5 -188.05 52.7 L-213.6 53.6 Q-226.9 54.0 -236.05 59.7 M-204.6 40.75 L-209.4 41.1 Q-211.65 41.25 -213.1 39.5 -215.35 36.6 -213.85 33.25 -202.75 27.15 -189.25 25.35 L-174.35 28.0 -174.75 28.25 Q-177.9 30.7 -176.3 33.85 L-175.75 34.95 -184.55 32.6 Q-198.05 28.5 -207.3 34.95 L-207.65 36.2 Q-208.4 38.45 -206.2 39.75 L-204.6 40.75 M-176.7 -15.85 Q-186.65 -15.75 -193.6 -19.1 L-195.25 -19.9 -191.95 -19.1 -176.7 -15.85 M-190.35 -85.0 Q-193.9 -83.0 -201.3 -82.75 L-223.2 -82.2 Q-242.45 -81.6 -261.75 -82.7 -268.7 -83.1 -268.7 -88.45 -268.8 -89.7 -268.25 -90.95 -266.85 -92.7 -264.8 -93.6 -262.85 -94.45 -260.1 -94.45 -236.35 -93.95 -213.3 -95.6 L-214.95 -96.6 -207.55 -95.95 Q-207.95 -94.7 -207.95 -93.6 -208.05 -88.1 -198.4 -86.35 L-190.35 -85.0 M-215.05 -109.45 L-213.3 -109.7 -197.75 -109.7 -198.6 -109.3 -198.95 -108.2 -215.05 -109.45 M-258.9 -146.1 L-260.45 -146.1 Q-262.85 -145.05 -265.55 -145.3 -275.55 -146.2 -273.95 -153.65 L-273.7 -154.3 Q-270.25 -158.4 -263.9 -158.7 L-226.7 -160.05 -226.35 -159.55 -230.5 -158.7 Q-238.0 -157.05 -245.65 -156.3 -258.8 -155.05 -258.9 -146.1 M-227.0 -163.05 L-227.45 -163.05 Q-244.95 -156.7 -246.7 -170.4 -247.15 -173.65 -242.8 -174.55 L-231.6 -176.45 -236.35 -176.95 Q-239.3 -177.3 -240.75 -179.55 -242.35 -182.2 -241.05 -185.15 L-240.5 -185.7 -238.45 -187.65 Q-237.15 -188.7 -235.4 -189.3 L-234.85 -189.45 -233.45 -189.65 -231.8 -189.9 Q-213.2 -190.2 -194.45 -189.65 L-175.2 -189.05 Q-144.3 -188.4 -113.5 -188.9 L-105.85 -188.4 Q-99.65 -187.55 -94.45 -184.9 -92.35 -182.65 -92.8 -179.9 -92.9 -178.65 -93.8 -177.7 L-94.65 -176.9 Q-100.4 -172.3 -109.55 -172.7 L-169.65 -174.9 -173.25 -174.95 -172.9 -174.2 -179.55 -174.9 Q-187.95 -174.15 -187.7 -167.9 -203.15 -167.15 -218.85 -167.8 -223.3 -168.05 -225.8 -165.15 -226.7 -164.15 -227.0 -163.05 M-4.95 -161.4 L11.15 -161.15 Q13.0 -161.05 14.4 -159.9 16.8 -156.15 15.75 -153.7 L-45.0 -153.95 -39.0 -154.65 -27.7 -155.9 -25.55 -155.9 Q-18.45 -155.9 -14.55 -157.4 L-13.25 -157.55 Q-6.25 -158.4 -4.95 -161.4 M43.6 -160.7 Q43.5 -162.15 44.05 -163.45 L44.6 -164.05 Q45.55 -165.15 46.85 -165.8 L49.25 -166.95 50.65 -167.15 52.2 -167.3 52.2 -167.4 77.9 -166.55 Q77.0 -168.05 77.35 -169.65 78.85 -170.15 80.3 -171.15 L101.95 -169.95 Q103.55 -166.8 108.15 -167.15 L118.9 -167.55 Q116.85 -166.55 116.0 -164.65 114.8 -162.2 115.85 -159.7 116.4 -158.95 117.3 -158.45 80.5 -160.8 43.6 -160.7 M132.4 -167.8 L140.6 -167.65 140.8 -166.55 141.45 -165.3 129.35 -167.7 132.4 -167.8 M163.0 -167.65 L157.25 -167.95 138.3 -169.7 Q123.7 -171.7 109.9 -175.3 105.55 -176.4 105.85 -179.9 106.1 -182.4 107.5 -183.95 108.7 -185.2 110.65 -185.9 L114.25 -186.55 Q147.55 -181.3 181.75 -180.95 L187.85 -180.9 213.4 -179.15 223.3 -177.95 Q225.25 -177.7 226.7 -176.55 229.65 -169.4 224.5 -166.65 220.6 -164.55 212.2 -164.95 L163.0 -167.65 M55.55 -109.2 L76.15 -109.85 Q78.85 -109.8 81.05 -108.55 L83.0 -107.35 83.55 -106.05 57.1 -106.2 Q57.2 -108.05 55.55 -109.2 M32.8 -47.2 L-24.0 -46.85 Q4.4 -48.1 32.8 -47.2 M92.9 -3.85 L87.8 -6.6 91.4 -6.6 Q98.7 -6.6 104.35 -3.9 L92.9 -3.85 M144.85 -9.5 L149.85 -9.85 159.0 -10.25 144.85 -10.1 144.85 -9.5 M151.8 28.2 L113.05 29.6 Q118.15 32.25 122.6 35.85 125.35 38.0 124.6 40.25 L115.35 40.7 Q111.0 39.35 106.2 38.95 L94.2 38.25 Q85.05 36.2 75.25 35.35 L55.45 33.85 54.7 31.85 Q49.15 29.2 42.6 28.0 31.95 22.9 19.0 22.65 19.45 20.65 18.0 17.6 44.6 17.9 70.8 20.5 70.7 19.1 71.25 17.4 73.95 15.75 77.0 14.85 L78.55 15.35 Q83.35 16.9 87.05 19.6 97.25 27.35 108.05 22.65 109.0 21.4 108.9 20.15 L108.45 17.5 119.15 17.1 134.6 15.35 134.15 15.6 133.4 16.25 132.75 16.85 132.2 17.4 Q131.65 19.0 131.75 20.6 131.9 22.65 134.15 23.5 142.45 26.75 151.8 28.2 M153.55 73.0 L150.7 74.95 150.6 75.25 127.95 75.35 Q129.15 73.6 128.7 70.95 L129.5 71.0 Q137.85 75.35 143.2 72.2 L153.55 73.0 M-30.15 61.45 L-30.4 61.5 -30.55 61.5 -30.95 61.5 Q-62.75 62.6 -94.55 61.2 L-93.0 61.1 Q-63.85 62.0 -34.25 60.7 L-22.35 60.2 -14.3 60.45 -30.15 61.45 M-22.15 169.55 L-22.25 172.9 -14.3 176.45 Q-56.55 180.65 -97.7 182.05 -96.85 180.55 -96.95 178.95 -97.05 177.8 -97.7 176.65 L-82.9 175.2 -48.3 175.4 Q-48.7 174.05 -48.6 172.4 L-39.9 171.7 -22.15 169.55 M-204.05 -154.45 L-203.15 -154.45 Q-205.35 -153.65 -207.3 -152.65 -207.85 -151.4 -207.75 -150.15 L-209.25 -150.3 Q-207.75 -151.65 -207.2 -153.15 L-204.05 -154.45 M-151.15 -144.8 L-139.3 -145.45 -139.3 -144.8 -149.95 -144.8 -151.15 -144.8 M-26.05 -106.6 L-25.3 -107.2 -12.55 -107.1 -12.8 -106.95 -13.25 -106.55 -26.05 -106.6 M-44.15 21.15 L-31.5 21.25 -11.9 22.6 -3.0 24.15 Q-53.3 27.7 -103.8 28.35 L-44.15 21.15 M-72.1 3.75 L-77.65 4.0 -111.75 2.5 -111.4 1.4 -72.1 3.75 M-204.35 17.65 Q-199.15 25.1 -209.9 27.25 L-221.55 29.45 Q-238.45 31.95 -253.55 26.9 -256.75 25.9 -258.45 23.65 -259.45 21.5 -258.9 19.35 L-258.7 18.75 -257.5 16.25 Q-254.9 12.1 -249.2 11.85 -246.6 11.9 -244.3 13.0 -242.8 13.75 -241.95 14.9 -224.2 14.75 -206.35 16.9 -205.35 17.0 -204.35 17.65 M-259.55 194.55 Q-257.15 190.4 -251.4 190.2 L-243.45 191.2 Q-209.9 192.55 -176.3 192.9 -172.25 192.9 -169.55 195.2 -167.7 197.15 -167.8 199.55 -167.8 201.65 -169.45 203.4 -172.05 206.0 -176.3 206.0 -211.45 205.9 -246.5 205.25 -255.1 205.05 -259.55 199.55 -260.55 197.4 -259.9 195.2 L-259.55 194.55" fill="#8b6a1d" fill-rule="evenodd" stroke="none"/>
    <path d="M114.9 -200.4 Q118.05 -200.9 121.85 -200.3 L127.65 -199.55 134.05 -199.15 Q138.85 -198.95 143.75 -199.2 L143.95 -199.45 144.85 -200.05 146.15 -200.7 147.2 -201.15 148.55 -201.3 150.15 -201.45 150.15 -201.55 169.85 -201.55 182.8 -202.4 197.5 -201.9 198.6 -201.7 228.55 -202.15 Q239.75 -202.2 248.45 -198.2 249.85 -196.8 249.65 -195.15 248.8 -185.55 235.4 -185.4 L232.15 -185.45 178.25 -187.95 Q144.4 -184.95 110.85 -188.15 106.95 -188.45 105.95 -191.55 105.2 -193.8 106.1 -195.95 109.55 -199.65 114.9 -200.4 M245.1 -177.3 Q250.65 -176.65 255.0 -174.05 L255.85 -172.05 Q258.7 -163.05 244.1 -163.45 233.55 -163.9 224.5 -166.65 229.65 -169.4 226.7 -176.55 225.25 -177.7 223.3 -177.95 L213.4 -179.15 Q216.25 -181.45 219.85 -181.55 231.8 -178.65 244.3 -177.4 L245.1 -177.3 M122.75 53.95 L130.7 56.85 144.5 57.45 Q159.2 58.1 173.15 60.85 L184.35 63.45 Q185.45 63.7 186.4 64.35 188.7 69.6 186.5 72.25 179.65 71.95 172.8 70.7 161.15 68.5 153.55 73.0 L143.2 72.2 Q137.85 75.35 129.5 71.0 L128.7 70.95 Q129.15 73.6 127.95 75.35 126.85 76.75 124.45 77.5 L127.95 78.95 127.1 79.35 124.8 78.1 Q97.15 64.7 63.85 62.6 L57.85 62.25 Q67.45 60.7 65.15 52.7 85.6 52.5 106.1 53.1 L113.15 53.6 Q117.6 54.0 120.35 53.5 L122.75 53.95 M195.1 88.1 L200.55 89.35 Q205.9 100.55 188.8 100.35 158.0 100.05 128.7 94.85 124.9 94.2 121.3 92.8 108.7 87.8 97.6 81.6 106.75 83.45 114.25 87.7 115.75 90.6 119.55 91.85 123.6 93.2 126.45 91.55 132.2 97.35 139.8 89.8 L187.15 89.2 190.2 89.05 195.1 88.1 M46.95 97.35 Q46.95 96.6 47.3 95.8 L48.5 94.6 Q49.25 93.95 50.15 93.35 L51.45 92.7 52.5 92.3 53.95 92.1 55.45 91.95 55.45 91.85 79.3 97.95 Q104.1 104.05 129.25 108.95 135.25 110.1 141.45 110.2 L142.85 110.3 Q140.6 111.35 138.75 113.3 136.65 122.85 150.5 122.35 L161.6 122.05 Q158.75 126.45 146.8 125.3 131.1 123.8 116.0 120.45 L96.15 116.05 Q96.6 113.6 94.95 110.2 92.35 107.95 88.45 107.85 L58.6 107.1 Q52.65 104.8 48.5 100.85 46.75 99.3 46.95 97.35 M137.65 171.2 Q136.55 173.15 132.85 173.9 L129.35 174.3 123.05 174.7 Q124.45 177.05 121.45 179.2 119.35 180.7 117.05 181.45 120.0 178.05 117.85 172.7 115.1 170.4 111.1 170.65 106.2 170.8 102.05 173.15 85.5 174.65 69.05 172.9 L63.5 170.2 Q57.75 167.3 51.1 166.05 L51.1 166.15 49.6 166.3 47.6 166.7 Q43.8 167.95 42.85 171.05 42.2 172.7 42.7 174.45 20.5 171.15 -0.8 166.45 L4.1 160.2 Q6.7 156.7 4.1 153.3 L5.7 154.4 Q7.25 157.55 6.9 159.8 L25.75 161.8 Q44.05 163.2 62.55 162.4 L70.8 162.15 73.65 162.05 Q78.1 165.45 85.2 163.7 108.9 168.05 133.3 170.7 L137.65 171.2 M-30.2 191.05 L-91.4 196.65 Q-108.15 197.95 -119.45 190.3 L-122.3 188.2 Q-124.8 186.15 -123.5 183.3 L-118.9 178.9 -97.7 176.65 Q-97.05 177.8 -96.95 178.95 -96.85 180.55 -97.7 182.05 -56.55 180.65 -14.3 176.45 0.25 182.4 17.35 184.7 L-13.55 185.65 Q-15.2 185.05 -16.95 184.95 -25.3 184.45 -29.9 189.95 L-30.2 191.05 M-215.8 140.55 Q-225.05 140.3 -233.0 137.05 -238.75 134.8 -236.7 129.95 -230.95 125.05 -222.2 124.1 L-222.9 122.55 Q-223.75 119.95 -222.55 117.45 -215.5 110.3 -207.4 116.85 -206.2 117.8 -205.45 118.95 -147.75 118.7 -90.4 113.45 -74.4 117.2 -56.9 118.7 L-34.25 119.85 -11.7 120.35 Q9.0 122.2 30.55 121.55 L34.25 121.3 Q39.15 129.45 27.05 130.3 L-19.85 132.95 -31.2 133.45 Q-60.05 131.6 -89.2 133.85 -133.85 137.35 -176.85 131.2 L-179.75 127.45 Q-182.7 122.6 -189.35 121.85 -194.45 122.05 -196.95 125.7 -198.8 128.35 -197.5 131.2 -194.6 137.1 -189.25 140.45 L-214.4 140.55 -215.8 140.55 M-137.85 78.7 Q-127.1 75.2 -115.1 72.85 -104.35 75.0 -92.45 75.1 -82.65 75.2 -73.0 74.85 -47.2 73.95 -21.5 74.2 -48.5 75.6 -75.5 78.7 -91.5 80.6 -106.6 85.2 -128.95 92.05 -151.7 93.6 -153.95 93.8 -155.4 92.05 -157.65 89.1 -156.15 85.8 -147.45 81.75 -137.85 78.7 M-136.0 50.35 Q-150.5 50.45 -165.1 49.85 L-178.9 48.7 Q-193.7 47.0 -204.6 40.75 L-206.2 39.75 Q-208.4 38.45 -207.65 36.2 L-207.3 34.95 Q-198.05 28.5 -184.55 32.6 L-175.75 34.95 Q-171.05 42.7 -157.25 42.85 L-149.05 42.95 -149.05 43.95 Q-148.95 46.0 -146.7 46.85 L-136.0 50.35 M-189.25 25.35 L-189.35 25.25 Q-193.8 24.35 -196.45 21.15 -198.5 15.35 -192.2 11.25 -186.95 7.9 -181.75 8.75 L-182.25 9.1 Q-184.65 16.9 -174.0 17.6 L-123.4 19.15 -102.25 20.6 -44.15 21.15 -103.8 28.35 Q-131.45 28.75 -159.2 28.25 -166.6 22.35 -174.35 28.0 L-189.25 25.35 M-193.5 0.85 L-216.55 1.4 Q-219.95 13.9 -232.35 4.9 -234.3 3.5 -234.1 1.15 L-234.0 -1.35 -234.1 -3.15 -233.85 -6.35 -233.65 -6.9 -233.45 -7.6 -231.7 -8.65 Q-238.9 -11.35 -244.55 -15.6 -246.5 -17.0 -245.5 -19.1 L-245.5 -19.15 Q-243.35 -23.75 -237.25 -24.0 -228.2 -21.1 -218.95 -19.1 -201.3 -15.25 -182.95 -14.6 L-183.9 -14.15 -184.8 -13.6 -185.55 -12.9 -186.1 -12.35 -186.65 -11.75 Q-187.3 -10.25 -187.15 -8.75 -191.4 -7.85 -192.95 -4.1 -194.05 -1.35 -193.5 0.85 M-174.55 -15.4 L-176.7 -15.85 -191.95 -19.1 -195.25 -19.9 -203.15 -22.1 Q-205.7 -22.85 -205.35 -25.0 -205.05 -28.1 -203.15 -30.15 -200.25 -33.35 -193.7 -34.0 -191.1 -33.95 -188.8 -32.85 -187.3 -32.1 -186.4 -30.95 -137.0 -23.5 -86.4 -21.15 L-34.9 -23.9 Q-19.65 -24.65 -6.15 -20.0 L-4.2 -19.1 -4.1 -19.0 -3.85 -18.5 26.2 -18.0 Q54.9 -17.65 80.95 -9.0 L86.7 -7.0 Q87.25 -6.75 87.8 -6.6 L92.9 -3.85 86.5 -3.9 Q76.9 -4.0 68.95 -1.5 37.7 -8.6 4.1 -7.9 -41.3 -6.9 -86.6 -10.0 L-174.55 -15.4 M-175.1 -44.45 Q-177.05 -46.2 -177.7 -48.0 -178.7 -50.6 -177.25 -53.35 L-177.4 -52.6 -177.4 -50.7 -177.05 -49.45 -176.85 -48.85 Q-175.4 -47.1 -173.0 -46.25 -151.45 -39.45 -127.95 -37.1 -95.3 -33.85 -62.45 -33.1 L-50.9 -32.2 -46.1 -31.75 Q-67.75 -31.1 -89.3 -31.7 -114.9 -32.45 -140.35 -35.0 L-154.65 -36.6 Q-161.25 -37.45 -167.15 -39.95 -172.35 -42.1 -175.1 -44.45 M-106.4 -77.75 L-147.9 -80.25 Q-169.3 -81.7 -190.35 -85.0 L-198.4 -86.35 Q-208.05 -88.1 -207.95 -93.6 -207.95 -94.7 -207.55 -95.95 L-173.55 -93.6 -131.45 -91.8 Q-113.15 -91.3 -94.85 -91.3 L-81.05 -90.8 Q-59.9 -90.2 -41.1 -85.7 -35.75 -74.5 -52.75 -75.2 L-106.4 -77.75 M-197.75 -109.7 Q-185.1 -116.45 -167.8 -116.3 -162.55 -116.95 -156.6 -116.2 L-156.35 -116.2 Q-145.7 -116.2 -134.9 -116.7 L-94.45 -118.3 -88.9 -117.8 Q-83.55 -117.1 -79.3 -118.85 L-20.65 -120.7 Q19.3 -123.85 53.6 -110.3 L55.55 -109.2 Q57.2 -108.05 57.1 -106.2 L-13.25 -106.55 -12.8 -106.95 -12.55 -107.1 -25.3 -107.2 -26.05 -106.6 -71.55 -106.8 Q-96.5 -106.85 -119.7 -109.45 L-120.1 -110.7 -120.75 -111.95 -121.65 -113.2 -123.6 -114.35 Q-125.8 -115.6 -128.4 -115.7 L-128.5 -115.6 -130.05 -115.45 -131.45 -115.3 Q-134.8 -114.1 -137.1 -111.85 L-142.0 -106.8 Q-142.35 -106.1 -142.2 -105.45 L-198.95 -108.2 -198.6 -109.3 -197.75 -109.7 M-175.2 -189.05 L-173.0 -190.9 -171.7 -191.55 -170.65 -191.95 -169.2 -192.15 -167.7 -192.3 -167.6 -192.4 Q-158.0 -193.2 -148.55 -192.65 L-111.65 -190.95 Q-108.45 -190.9 -106.4 -189.05 L-105.85 -188.4 -113.5 -188.9 Q-144.3 -188.4 -175.2 -189.05 M-93.8 -177.7 L-53.3 -179.9 -30.65 -179.05 Q-25.3 -178.4 -21.5 -175.7 -19.85 -172.2 -20.3 -169.9 L-17.45 -169.8 -13.0 -169.55 -11.5 -169.45 Q-8.35 -169.2 -6.25 -167.4 -3.95 -163.7 -4.95 -161.4 -6.25 -158.4 -13.25 -157.55 L-14.55 -157.4 -27.7 -155.9 -39.0 -154.65 -45.0 -153.95 15.75 -153.7 20.4 -153.7 22.9 -154.05 24.0 -154.05 Q24.35 -148.95 31.1 -148.7 56.8 -147.85 82.6 -147.9 L70.7 -147.4 Q19.85 -148.3 -30.65 -145.8 -42.5 -149.05 -55.7 -150.3 L-59.6 -150.65 Q-56.65 -151.45 -55.15 -152.9 L-76.35 -150.8 Q-82.15 -150.2 -84.2 -154.3 -85.5 -156.7 -84.3 -159.3 -77.8 -163.2 -69.4 -165.15 -97.5 -164.45 -125.55 -161.4 -149.05 -158.8 -171.3 -163.8 -174.45 -164.55 -175.0 -167.2 -175.4 -169.15 -174.65 -170.95 -173.15 -172.9 -171.15 -174.05 L-169.65 -174.9 -109.55 -172.7 Q-100.4 -172.3 -94.65 -176.9 L-93.8 -177.7 M77.35 -169.65 Q73.4 -168.4 69.05 -170.55 67.2 -171.4 66.25 -172.9 64.3 -176.05 66.25 -179.15 68.4 -182.7 73.2 -184.45 L74.6 -184.65 76.15 -184.8 76.15 -184.9 92.9 -184.4 107.5 -183.95 Q106.1 -182.4 105.85 -179.9 105.55 -176.4 109.9 -175.3 123.7 -171.7 138.3 -169.7 135.6 -168.2 132.4 -167.8 L129.35 -167.7 128.05 -167.8 127.95 -167.8 101.95 -169.95 80.3 -171.15 Q78.85 -170.15 77.35 -169.65 M-186.5 -125.35 L-186.3 -124.8 -187.05 -125.55 -186.5 -125.35 M-191.2 -134.05 L-191.2 -134.3 -191.0 -134.2 -191.2 -134.05 M45.9 -92.1 Q68.4 -91.95 91.05 -91.95 89.0 -91.1 87.55 -89.3 L87.25 -87.75 43.5 -91.45 45.9 -92.1 M101.3 -39.7 L101.7 -38.95 Q104.65 -32.85 96.15 -31.95 89.75 -31.25 83.1 -31.95 L46.1 -34.5 46.3 -36.45 75.7 -37.35 101.3 -39.7 M32.8 -47.2 L43.25 -46.75 44.15 -46.7 38.6 -44.25 38.15 -42.5 Q23.35 -45.2 7.8 -44.5 L-9.2 -44.1 -9.5 -44.85 Q-10.95 -46.0 -12.8 -45.95 -28.8 -45.5 -44.6 -45.75 L-24.0 -46.85 32.8 -47.2 M42.6 28.0 Q49.15 29.2 54.7 31.85 L55.45 33.85 Q56.45 36.95 55.45 38.95 L46.0 39.35 Q47.95 38.25 49.6 36.45 52.2 33.6 48.7 31.35 45.75 29.45 42.6 28.0 M1.9 60.75 Q-14.0 60.85 -30.0 61.45 L-30.15 61.45 -14.3 60.45 Q-7.65 60.5 -1.05 60.7 L1.9 60.75 M-93.0 61.1 L-57.75 58.95 -22.35 60.2 -34.25 60.7 Q-63.85 62.0 -93.0 61.1 M14.95 11.65 Q14.1 13.15 12.35 14.15 9.75 13.0 6.9 12.15 L14.95 11.65 M34.15 39.95 L4.1 41.6 Q-27.6 41.85 -59.15 45.35 L-102.5 42.2 -64.3 40.2 24.75 37.25 Q27.8 37.25 30.1 38.35 32.15 39.35 34.15 39.95 M-23.15 105.7 L8.75 101.85 Q11.35 101.95 13.55 103.2 L15.5 104.35 16.5 106.8 9.3 106.85 Q2.65 106.7 -4.1 106.7 L-23.15 105.7 M-9.5 152.3 Q-13.0 154.4 -15.75 157.2 L-17.45 159.2 Q-19.1 158.3 -21.3 158.2 L-35.85 157.7 -56.75 159.45 Q-112.95 166.9 -169.55 166.05 -170.5 165.4 -171.5 164.95 -172.8 164.4 -174.0 164.15 L-173.55 162.45 Q-160.6 151.55 -144.3 154.8 L-143.4 155.2 -142.85 155.8 -142.55 156.4 -142.1 157.05 -141.8 157.7 -46.85 154.15 Q-44.8 150.55 -39.15 150.2 L-27.8 153.2 -9.5 152.3 M-163.45 -143.95 L-161.8 -144.1 -151.15 -144.8 -149.95 -144.8 -139.3 -144.8 -139.3 -145.45 -128.4 -146.05 -90.3 -140.55 -139.5 -138.1 Q-145.6 -141.1 -152.9 -142.3 L-163.45 -143.95 M-174.65 -56.95 L-174.1 -57.5 -173.9 -57.5 -174.65 -56.95" fill="#89681d" fill-rule="evenodd" stroke="none"/>
    <path d="M255.85 -172.05 L261.3 -170.9 Q266.2 -169.7 265.45 -165.9 263.6 -156.55 250.55 -159.15 239.55 -161.4 228.45 -161.45 225.05 -156.2 213.6 -158.4 L213.5 -158.4 Q212.85 -153.3 205.8 -151.05 205.55 -152.9 204.9 -154.9 L202.95 -156.05 Q200.8 -157.3 198.05 -157.4 L198.05 -157.3 196.45 -157.15 195.1 -156.95 Q174.55 -150.45 151.45 -147.55 L131.55 -145.1 128.6 -145.55 130.35 -145.05 109.45 -142.7 Q92.9 -140.95 80.05 -134.85 66.8 -135.05 53.5 -134.55 5.3 -132.7 -43.05 -131.95 -41.1 -133.1 -40.2 -134.6 L-36.4 -134.3 Q-19.55 -132.55 -24.75 -144.05 L-30.65 -145.8 Q19.85 -148.3 70.7 -147.4 L82.6 -147.9 Q56.8 -147.85 31.1 -148.7 24.35 -148.95 24.0 -154.05 L24.0 -154.3 Q24.0 -155.55 24.55 -156.8 L25.1 -157.4 25.65 -157.95 26.4 -158.65 27.25 -159.2 28.55 -159.9 29.65 -160.3 31.1 -160.45 32.6 -160.65 32.7 -160.7 43.6 -160.7 Q80.5 -160.8 117.3 -158.45 116.4 -158.95 115.85 -159.7 114.8 -162.2 116.0 -164.65 116.85 -166.55 118.9 -167.55 L127.95 -167.8 128.05 -167.8 129.35 -167.7 141.45 -165.3 140.8 -166.55 140.6 -167.65 154.1 -167.15 163.0 -167.65 212.2 -164.95 Q220.6 -164.55 224.5 -166.65 233.55 -163.9 244.1 -163.45 258.7 -163.05 255.85 -172.05 M198.5 -141.45 L197.95 -140.45 197.5 -139.8 Q191.65 -131.95 178.35 -135.8 L172.15 -137.45 187.95 -139.2 Q194.35 -139.85 198.5 -141.45 M238.0 -126.05 Q242.35 -124.85 246.6 -123.35 250.0 -122.2 250.3 -119.2 251.4 -108.7 237.8 -112.35 236.25 -112.8 235.4 -113.85 L234.65 -114.05 Q226.8 -116.3 218.0 -116.45 L197.75 -117.1 176.3 -119.05 174.65 -119.3 Q170.5 -120.2 168.1 -123.05 L167.7 -124.85 167.6 -125.55 Q167.45 -127.55 169.0 -129.2 171.8 -132.3 176.3 -132.35 L179.9 -131.6 181.5 -131.1 Q211.35 -133.45 238.0 -126.05 M214.6 -86.45 L228.3 -86.1 Q231.35 -86.0 232.8 -83.75 235.5 -79.5 232.15 -75.7 228.65 -72.75 223.75 -73.6 L220.15 -74.45 Q174.1 -72.5 128.3 -74.2 122.5 -74.35 119.15 -78.0 L118.9 -78.85 Q162.55 -76.45 205.0 -83.75 210.15 -84.7 214.6 -86.45 M26.4 -76.5 L43.4 -78.0 52.2 -79.0 Q54.9 -78.95 57.1 -77.7 L59.05 -76.5 Q60.7 -73.35 60.25 -70.95 59.25 -65.5 47.3 -64.35 L7.35 -60.95 -62.1 -58.75 Q-104.25 -57.7 -146.05 -60.7 -161.25 -61.75 -171.4 -55.1 -172.7 -52.2 -170.1 -50.25 -161.05 -43.25 -146.35 -43.5 L-76.15 -44.35 -47.95 -45.5 -44.6 -45.75 Q-28.8 -45.5 -12.8 -45.95 -10.95 -46.0 -9.5 -44.85 L-9.2 -44.1 7.8 -44.5 Q23.35 -45.2 38.15 -42.5 38.05 -41.2 38.5 -39.85 39.45 -36.75 43.4 -36.6 L46.3 -36.45 46.1 -34.5 Q44.8 -29.75 34.0 -29.6 -6.15 -28.9 -46.1 -31.75 L-50.9 -32.2 -62.45 -33.1 Q-95.3 -33.85 -127.95 -37.1 -151.45 -39.45 -173.0 -46.25 -175.4 -47.1 -176.85 -48.85 L-177.05 -49.45 -177.4 -50.7 -177.4 -52.6 -177.25 -53.35 -176.85 -55.1 -176.3 -55.7 -174.85 -56.85 -174.65 -56.95 -173.9 -57.5 -174.1 -57.5 -187.15 -57.6 Q-196.75 -57.7 -195.65 -64.7 L-195.35 -65.95 Q-187.85 -73.0 -174.1 -71.6 L-149.05 -70.2 Q-60.9 -69.6 26.4 -76.5 M120.45 -66.6 Q135.35 -73.25 154.5 -70.7 191.1 -73.6 227.1 -70.35 241.5 -69.0 243.55 -59.25 244.65 -54.0 237.8 -52.75 232.25 -51.85 229.1 -55.25 222.45 -56.75 215.45 -56.6 216.9 -50.6 212.55 -47.1 L212.95 -46.45 Q214.5 -45.85 215.8 -44.85 217.65 -42.85 217.65 -40.5 217.75 -38.2 216.25 -36.35 L218.75 -36.5 Q239.4 -38.45 253.55 -28.5 256.2 -26.6 255.3 -23.65 254.55 -20.9 253.25 -19.1 248.9 -13.15 238.65 -18.0 237.7 -18.4 237.15 -19.1 236.05 -20.15 236.15 -21.75 L224.85 -22.0 Q187.95 -22.9 149.6 -22.6 L146.55 -23.0 Q143.95 -23.9 143.0 -26.5 142.2 -28.75 143.1 -30.95 145.25 -33.95 149.6 -34.0 169.1 -34.35 188.35 -35.1 L108.45 -40.45 154.2 -45.45 Q163.2 -46.5 172.15 -48.1 180.75 -49.6 179.1 -54.7 L178.45 -56.1 177.7 -57.35 Q175.0 -59.7 170.85 -59.7 L156.7 -59.85 Q146.8 -59.25 136.55 -57.6 L125.65 -58.45 122.3 -58.7 Q120.55 -58.85 119.7 -60.35 117.95 -63.0 119.15 -65.95 L119.8 -66.35 120.45 -66.6 M185.0 16.35 L228.45 20.25 Q241.05 21.6 244.3 27.6 246.05 30.75 245.2 35.25 243.8 43.1 234.0 40.6 228.2 39.1 228.55 34.35 217.2 30.35 203.7 29.35 L192.6 29.0 164.85 29.1 151.8 28.2 Q142.45 26.75 134.15 23.5 131.9 22.65 131.75 20.6 131.65 19.0 132.2 17.4 L132.75 16.85 133.4 16.25 134.15 15.6 134.6 15.35 135.05 15.0 136.35 14.35 137.45 13.9 138.85 13.75 140.35 13.6 140.35 13.5 148.65 13.9 185.0 16.35 M238.9 69.45 L245.95 69.5 Q250.1 69.5 252.8 71.85 258.15 80.25 245.85 81.6 L221.7 84.1 200.0 85.7 201.3 84.7 Q210.05 76.75 202.5 71.75 L204.15 71.6 226.35 69.35 238.9 69.45 M258.35 115.95 L259.25 116.35 Q264.55 118.7 261.95 122.7 256.4 131.2 245.5 125.45 238.55 121.8 229.95 121.6 203.5 121.1 177.05 121.6 L161.6 122.05 150.5 122.35 Q136.65 122.85 138.75 113.3 140.6 111.35 142.85 110.3 147.55 107.85 154.2 108.6 167.9 110.05 181.75 108.45 L194.8 106.85 Q229.4 103.55 258.35 115.95 M71.9 148.05 Q72.75 144.3 79.5 143.8 113.6 141.1 147.0 137.1 L149.05 136.85 Q151.45 136.8 153.75 137.55 155.6 138.2 157.0 139.35 158.65 143.8 157.0 146.8 154.2 151.8 141.55 152.3 L134.9 152.65 109.1 154.3 84.85 150.2 77.9 151.2 Q74.85 151.7 72.75 153.4 L72.0 151.3 Q71.55 149.45 71.9 148.05 M106.5 188.65 Q104.45 193.95 91.8 194.45 L70.15 195.55 Q22.35 198.3 -25.3 197.8 -28.15 197.8 -29.55 195.55 -30.85 193.3 -30.2 191.05 L-29.9 189.95 Q-25.3 184.45 -16.95 184.95 -15.2 185.05 -13.55 185.65 L17.35 184.7 Q0.25 182.4 -14.3 176.45 L-22.25 172.9 -22.15 169.55 -21.6 169.45 Q-10.85 167.65 -16.05 160.2 L-17.45 159.2 -15.75 157.2 Q-13.0 154.4 -9.5 152.3 -8.0 151.4 -6.25 150.65 L-4.85 150.45 -3.3 150.3 -3.2 150.2 Q-0.6 150.3 1.6 151.45 L3.55 152.7 4.1 153.3 Q6.7 156.7 4.1 160.2 L-0.8 166.45 Q20.5 171.15 42.7 174.45 42.2 172.7 42.85 171.05 43.8 167.95 47.6 166.7 L49.6 166.3 51.1 166.15 51.1 166.05 Q57.75 167.3 63.5 170.2 L69.05 172.9 Q85.5 174.65 102.05 173.15 106.2 170.8 111.1 170.65 115.1 170.4 117.85 172.7 120.0 178.05 117.05 181.45 114.35 184.7 106.95 186.15 106.95 187.45 106.5 188.65 M-135.9 50.45 L-136.0 50.35 -146.7 46.85 Q-148.95 46.0 -149.05 43.95 L-149.05 42.95 -157.25 42.85 Q-171.05 42.7 -175.75 34.95 L-176.3 33.85 Q-177.9 30.7 -174.75 28.25 L-174.35 28.0 Q-166.6 22.35 -159.2 28.25 -131.45 28.75 -103.8 28.35 -53.3 27.7 -3.0 24.15 L-11.9 22.6 -31.5 21.25 -44.15 21.15 -102.25 20.6 -123.4 19.15 -174.0 17.6 Q-184.65 16.9 -182.25 9.1 L-181.75 8.75 -179.9 7.5 -186.1 6.1 Q-192.5 4.6 -193.5 0.85 -194.05 -1.35 -192.95 -4.1 -191.4 -7.85 -187.15 -8.75 L-186.85 -7.35 Q-185.85 -4.25 -181.95 -3.9 L-156.35 -1.75 -136.0 -0.25 -135.7 0.4 -135.6 0.6 -111.75 2.5 -77.65 4.0 -72.1 3.75 -68.3 3.9 Q-55.35 4.65 -42.5 4.25 -0.4 3.1 40.75 8.0 37.4 10.1 30.2 10.6 L14.95 11.65 6.9 12.15 Q9.75 13.0 12.35 14.15 15.1 15.35 17.7 16.85 L18.0 17.6 Q19.45 20.65 19.0 22.65 31.95 22.9 42.6 28.0 45.75 29.45 48.7 31.35 52.2 33.6 49.6 36.45 47.95 38.25 46.0 39.35 L34.15 39.95 Q32.15 39.35 30.1 38.35 27.8 37.25 24.75 37.25 L-64.3 40.2 -102.5 42.2 -59.15 45.35 -53.7 45.6 -118.6 49.5 -135.9 50.45 M83.55 -106.05 L93.0 -106.05 101.05 -105.95 131.65 -104.45 133.05 -104.35 Q148.3 -104.45 157.0 -96.7 158.85 -95.1 158.35 -93.6 L157.55 -92.55 Q126.75 -91.2 95.75 -92.6 93.0 -92.7 91.05 -91.95 68.4 -91.95 45.9 -92.1 47.4 -92.7 48.3 -93.6 50.65 -96.2 48.15 -101.55 36.95 -105.85 23.45 -105.8 -20.95 -105.6 -65.25 -105.05 -98.35 -104.55 -131.45 -105.2 L-142.2 -105.45 Q-142.35 -106.1 -142.0 -106.8 L-137.1 -111.85 Q-134.8 -114.1 -131.45 -115.3 L-130.05 -115.45 -128.5 -115.6 -128.4 -115.7 Q-125.8 -115.6 -123.6 -114.35 L-121.65 -113.2 -120.75 -111.95 -120.1 -110.7 -119.7 -109.45 Q-96.5 -106.85 -71.55 -106.8 L-26.05 -106.6 -13.25 -106.55 57.1 -106.2 83.55 -106.05 M-47.3 -130.45 Q-51.1 -122.05 -65.6 -124.6 L-73.1 -125.85 Q-73.3 -126.95 -74.05 -128.05 L-52.75 -129.7 -47.3 -130.45 M186.5 72.25 L186.85 72.25 186.65 72.45 186.4 73.1 186.2 74.35 186.1 74.95 186.1 75.6 Q168.1 75.85 150.25 76.6 L150.6 75.25 150.7 74.95 153.55 73.0 Q161.15 68.5 172.8 70.7 179.65 71.95 186.5 72.25 M57.85 62.25 Q29.9 60.6 1.9 60.75 L-1.05 60.7 Q-7.65 60.5 -14.3 60.45 L-22.35 60.2 -57.75 58.95 -19.3 56.2 Q22.8 53.0 65.15 52.7 67.45 60.7 57.85 62.25 M34.25 121.3 L30.55 121.55 Q9.0 122.2 -11.7 120.35 L36.0 121.05 34.25 121.3 M9.3 106.85 L-4.3 106.95 Q-22.15 107.2 -39.9 106.3 -38.5 105.3 -36.75 104.8 L-35.3 104.6 -33.8 104.45 -33.7 104.35 -23.15 105.7 -4.1 106.7 Q2.65 106.7 9.3 106.85" fill="#87671d" fill-rule="evenodd" stroke="none"/>
    <path d="M235.4 -185.4 Q235.6 -183.7 235.05 -182.45 L237.25 -181.9 Q243.45 -180.2 245.1 -177.3 L244.3 -177.4 Q231.8 -178.65 219.85 -181.55 216.25 -181.45 213.4 -179.15 L187.85 -180.9 187.6 -181.9 Q149.4 -185.2 111.0 -186.95 L110.75 -186.3 110.65 -185.9 Q108.7 -185.2 107.5 -183.95 L92.9 -184.4 Q90.4 -186.65 89.0 -189.45 87.9 -191.55 88.1 -193.9 88.55 -198.95 94.95 -201.15 L96.4 -201.3 97.9 -201.45 97.9 -201.55 114.9 -200.4 Q109.55 -199.65 106.1 -195.95 105.2 -193.8 105.95 -191.55 106.95 -188.45 110.85 -188.15 144.4 -184.95 178.25 -187.95 L232.15 -185.45 235.4 -185.4 M205.8 -151.05 Q206.1 -144.55 198.5 -141.45 194.35 -139.85 187.95 -139.2 L172.15 -137.45 Q156.7 -135.55 141.35 -132.85 112.4 -127.85 83.45 -126.35 81.05 -126.3 79.75 -128.05 77.45 -130.95 78.85 -134.3 L80.05 -134.85 Q92.9 -140.95 109.45 -142.7 L130.35 -145.05 131.55 -145.1 151.45 -147.55 Q174.55 -150.45 195.1 -156.95 L196.45 -157.15 198.05 -157.3 198.05 -157.4 Q200.8 -157.3 202.95 -156.05 L204.9 -154.9 Q205.55 -152.9 205.8 -151.05 M225.25 -92.7 Q220.5 -88.8 214.6 -86.45 210.15 -84.7 205.0 -83.75 162.55 -76.45 118.9 -78.85 L114.25 -79.2 95.75 -81.0 94.45 -81.2 Q86.35 -82.2 87.25 -87.75 L87.55 -89.3 Q89.0 -91.1 91.05 -91.95 93.0 -92.7 95.75 -92.6 126.75 -91.2 157.55 -92.55 L176.6 -93.6 183.15 -94.1 Q198.95 -95.45 212.75 -100.95 L212.45 -102.2 Q212.2 -103.1 212.45 -104.05 L212.75 -105.95 213.95 -107.1 Q215.15 -108.35 216.9 -109.05 L218.0 -109.45 219.3 -109.6 220.9 -109.8 220.9 -109.85 Q238.0 -104.2 226.35 -93.6 L225.7 -93.05 225.25 -92.7 M198.4 0.6 L196.75 2.0 Q194.8 3.25 191.95 3.65 161.8 8.15 131.0 8.4 L117.6 8.25 Q109.25 8.0 101.05 8.6 107.05 12.0 108.45 17.5 L108.9 20.15 Q109.0 21.4 108.05 22.65 97.25 27.35 87.05 19.6 83.35 16.9 78.55 15.35 L77.0 14.85 70.25 12.9 61.55 15.0 Q58.5 15.85 56.1 14.0 53.5 12.0 53.3 9.65 L40.75 8.0 Q-0.4 3.1 -42.5 4.25 -55.35 4.65 -68.3 3.9 L-72.1 3.75 -111.4 1.4 -136.0 -0.25 -156.35 -1.75 -181.95 -3.9 Q-185.85 -4.25 -186.85 -7.35 L-187.15 -8.75 Q-187.3 -10.25 -186.65 -11.75 L-186.1 -12.35 -185.55 -12.9 -184.8 -13.6 -183.9 -14.15 -182.95 -14.6 -182.6 -14.85 -181.5 -15.25 -180.1 -15.4 -178.55 -15.6 Q-178.45 -15.6 -178.45 -15.65 L-174.55 -15.4 -86.6 -10.0 Q-41.3 -6.9 4.1 -7.9 37.7 -8.6 68.95 -1.5 76.9 -4.0 86.5 -3.9 L92.9 -3.85 104.35 -3.9 123.95 -4.35 179.9 -7.75 Q178.05 -10.1 178.9 -12.65 180.65 -17.85 187.15 -18.15 209.4 -13.15 198.8 0.0 L198.4 0.6 M212.75 43.25 Q213.5 47.45 206.35 52.7 202.1 55.75 196.2 56.45 158.35 60.85 122.75 53.95 L120.35 53.5 Q117.6 54.0 113.15 53.6 L106.1 53.1 Q85.6 52.5 65.15 52.7 22.8 53.0 -19.3 56.2 L-57.75 58.95 -93.0 61.1 -94.55 61.2 Q-62.75 62.6 -30.95 61.5 L-30.55 61.5 -30.4 61.5 -30.15 61.45 -30.0 61.45 Q-14.0 60.85 1.9 60.75 29.9 60.6 57.85 62.25 L63.85 62.6 Q97.15 64.7 124.8 78.1 L127.1 79.35 127.95 78.95 Q130.45 77.5 134.5 77.25 L150.25 76.6 Q168.1 75.85 186.1 75.6 L186.1 74.95 186.2 74.35 186.4 73.1 186.65 72.45 186.85 72.25 187.85 71.25 Q189.0 70.0 190.75 69.35 L191.85 68.95 193.15 68.75 194.8 68.6 194.8 68.5 Q199.8 69.95 202.5 71.75 210.05 76.75 201.3 84.7 L200.0 85.7 Q197.85 87.3 195.1 88.1 L190.2 89.05 187.15 89.2 139.8 89.8 Q132.2 97.35 126.45 91.55 123.6 93.2 119.55 91.85 115.75 90.6 114.25 87.7 106.75 83.45 97.6 81.6 L95.1 81.1 82.65 79.5 57.1 77.35 Q17.9 74.45 -21.5 74.2 -47.2 73.95 -73.0 74.85 -82.65 75.2 -92.45 75.1 -104.35 75.0 -115.1 72.85 -121.85 71.45 -128.15 69.25 -129.35 68.85 -129.9 68.1 -130.55 67.45 -130.55 66.45 -130.7 64.85 -130.05 63.25 L-129.95 63.2 -183.35 66.7 -200.25 67.85 Q-217.0 69.1 -233.1 68.45 -237.05 68.25 -238.0 65.2 -238.75 62.95 -237.8 60.75 L-236.05 59.7 Q-226.9 54.0 -213.6 53.6 L-188.05 52.7 -135.9 50.45 -118.6 49.5 -53.7 45.6 -34.0 44.2 4.1 41.6 34.15 39.95 46.0 39.35 55.45 38.95 60.15 38.7 63.1 38.5 Q78.75 37.6 94.2 38.25 L106.2 38.95 Q111.0 39.35 115.35 40.7 L124.6 40.25 Q128.3 40.5 132.2 41.5 141.45 43.75 151.15 44.45 171.8 45.85 192.05 43.2 L192.6 43.1 Q192.4 40.75 193.8 38.85 196.55 35.35 201.3 35.2 211.75 38.6 212.75 43.25 M-19.95 134.3 L-8.35 135.55 Q0.4 136.6 -1.6 142.85 -2.1 144.9 -3.2 146.15 -6.35 149.9 -14.0 147.55 -17.7 146.45 -21.7 146.55 L-43.5 146.95 -73.65 147.5 Q-118.95 147.3 -164.1 145.7 -171.95 145.45 -179.65 143.95 -183.9 143.2 -187.3 141.55 L-189.25 140.45 Q-194.6 137.1 -197.5 131.2 -198.8 128.35 -196.95 125.7 -194.45 122.05 -189.35 121.85 -182.7 122.6 -179.75 127.45 L-176.85 131.2 Q-133.85 137.35 -89.2 133.85 -60.05 131.6 -31.2 133.45 L-19.95 134.3 M164.2 159.95 L173.35 160.4 177.6 160.55 209.9 159.55 227.75 157.4 Q232.15 156.7 236.7 157.2 239.85 157.55 241.95 159.4 242.7 161.15 242.9 162.7 243.9 171.4 227.25 172.55 L212.3 173.4 Q174.85 174.8 137.65 171.2 L133.3 170.7 Q108.9 168.05 85.2 163.7 78.1 165.45 73.65 162.05 L73.4 161.9 72.45 161.05 Q70.05 158.65 71.05 155.65 L71.25 154.95 Q71.9 154.05 72.75 153.4 74.85 151.7 77.9 151.2 L84.85 150.2 109.1 154.3 Q136.35 158.3 164.2 159.95 M-167.35 179.05 L-179.0 177.15 Q-181.3 176.65 -182.8 174.95 -185.2 172.45 -184.9 169.55 L-184.45 167.45 -183.9 166.9 Q-179.75 162.65 -174.0 164.15 -172.8 164.4 -171.5 164.95 -170.5 165.4 -169.55 166.05 -112.95 166.9 -56.75 159.45 L-35.85 157.7 -21.3 158.2 Q-19.1 158.3 -17.45 159.2 L-16.05 160.2 Q-10.85 167.65 -21.6 169.45 L-22.15 169.55 -39.9 171.7 -48.6 172.4 -82.9 175.2 -97.7 176.65 -118.9 178.9 -122.6 179.3 Q-145.35 181.8 -167.35 179.05 M-90.4 113.45 Q-96.95 111.95 -103.15 110.05 -105.4 109.35 -105.55 107.3 L-105.55 106.3 -105.0 104.1 -103.9 102.95 -102.15 101.8 -99.85 100.6 -98.45 100.45 -96.95 100.3 -96.85 100.2 Q-68.5 104.8 -39.9 106.3 -22.15 107.2 -4.3 106.95 L9.3 106.85 16.5 106.8 Q37.5 106.7 58.6 107.1 L88.45 107.85 Q92.35 107.95 94.95 110.2 96.6 113.6 96.15 116.05 95.2 121.45 83.75 121.35 L36.0 121.05 -11.7 120.35 -34.25 119.85 -56.9 118.7 Q-74.4 117.2 -90.4 113.45 M-214.95 -96.6 L-221.55 -97.2 Q-223.95 -97.35 -226.05 -98.7 -227.25 -99.45 -228.0 -100.55 -228.65 -102.05 -228.55 -103.6 -228.55 -105.35 -227.25 -106.8 L-224.95 -108.55 Q-222.65 -109.8 -219.85 -109.8 L-219.85 -109.85 -215.05 -109.45 -198.95 -108.2 -142.2 -105.45 -131.45 -105.2 Q-98.35 -104.55 -65.25 -105.05 -20.95 -105.6 23.45 -105.8 36.95 -105.85 48.15 -101.55 50.65 -96.2 48.3 -93.6 47.4 -92.7 45.9 -92.1 L43.5 -91.45 36.2 -91.2 23.45 -91.7 Q-28.55 -92.05 -80.5 -91.35 L-94.85 -91.3 Q-113.15 -91.3 -131.45 -91.8 L-173.55 -93.6 -207.55 -95.95 -214.95 -96.6 M-193.7 -134.6 Q-223.85 -138.85 -254.25 -142.05 -259.0 -142.55 -258.9 -146.1 -258.8 -155.05 -245.65 -156.3 -238.0 -157.05 -230.5 -158.7 L-226.35 -159.55 -226.7 -160.05 Q-227.55 -161.55 -227.0 -163.05 -226.7 -164.15 -225.8 -165.15 -223.3 -168.05 -218.85 -167.8 -203.15 -167.15 -187.7 -167.9 -187.95 -174.15 -179.55 -174.9 L-172.9 -174.2 -171.15 -174.05 Q-173.15 -172.9 -174.65 -170.95 -175.4 -169.15 -175.0 -167.2 -174.45 -164.55 -171.3 -163.8 -149.05 -158.8 -125.55 -161.4 -97.5 -164.45 -69.4 -165.15 -77.8 -163.2 -84.3 -159.3 -85.5 -156.7 -84.2 -154.3 -82.15 -150.2 -76.35 -150.8 L-55.15 -152.9 Q-56.65 -151.45 -59.6 -150.65 L-55.7 -150.3 Q-42.5 -149.05 -30.65 -145.8 L-24.75 -144.05 Q-19.55 -132.55 -36.4 -134.3 L-40.2 -134.6 Q-41.1 -133.1 -43.05 -131.95 -44.8 -131.1 -47.3 -130.45 L-52.75 -129.7 -74.05 -128.05 -74.85 -129.05 Q-76.9 -130.85 -80.05 -130.95 -125.45 -132.8 -170.1 -132.6 -170.95 -133.8 -172.5 -134.45 -174.75 -135.6 -177.4 -135.7 -185.85 -135.05 -186.65 -128.45 -186.85 -126.8 -186.5 -125.35 L-187.05 -125.55 Q-194.25 -127.3 -192.05 -133.45 L-191.2 -134.05 -191.0 -134.2 -191.2 -134.3 -193.7 -134.6 M-17.45 -169.8 L-15.75 -169.9 -13.0 -169.55 -17.45 -169.8 M140.6 -167.65 L132.4 -167.8 Q135.6 -168.2 138.3 -169.7 L157.25 -167.95 163.0 -167.65 154.1 -167.15 140.6 -167.65 M127.95 -167.8 L118.9 -167.55 108.15 -167.15 Q103.55 -166.8 101.95 -169.95 L127.95 -167.8 M7.35 -60.95 L22.9 -61.5 Q41.3 -62.85 56.0 -57.25 62.0 -55.0 67.45 -51.45 L70.15 -51.6 72.0 -51.6 Q102.9 -52.5 133.4 -57.2 L136.1 -57.6 136.55 -57.6 Q146.8 -59.25 156.7 -59.85 L170.85 -59.7 Q175.0 -59.7 177.7 -57.35 L178.45 -56.1 179.1 -54.7 Q180.75 -49.6 172.15 -48.1 163.2 -46.5 154.2 -45.45 L108.45 -40.45 101.3 -39.7 75.7 -37.35 46.3 -36.45 43.4 -36.6 Q39.45 -36.75 38.5 -39.85 38.05 -41.2 38.15 -42.5 L38.6 -44.25 44.15 -46.7 43.25 -46.75 32.8 -47.2 Q4.4 -48.1 -24.0 -46.85 L-44.6 -45.75 -47.95 -45.5 -76.15 -44.35 -146.35 -43.5 Q-161.05 -43.25 -170.1 -50.25 -172.7 -52.2 -171.4 -55.1 -161.25 -61.75 -146.05 -60.7 -104.25 -57.7 -62.1 -58.75 L7.35 -60.95 M-204.05 -154.45 L-207.2 -153.15 Q-207.75 -151.65 -209.25 -150.3 L-207.75 -150.15 Q-207.85 -151.4 -207.3 -152.65 -205.35 -153.65 -203.15 -154.45 L-204.05 -154.45 M-161.8 -144.1 L-163.9 -144.05 -163.45 -143.95 -152.9 -142.3 Q-145.6 -141.1 -139.5 -138.1 L-90.3 -140.55 -128.4 -146.05 -139.3 -145.45 -151.15 -144.8 -161.8 -144.1 M-14.55 -157.4 Q-18.45 -155.9 -25.55 -155.9 L-27.7 -155.9 -14.55 -157.4" fill="#83641d" fill-rule="evenodd" stroke="none"/>
    <path d="M55.7 -191.8 L58.2 -194.3 59.4 -195.9 55.7 -191.8 M276.45 -206.4 Q276.9 -202.25 276.45 -198.15 275.8 -192.5 275.6 -186.9 274.8 -171.4 274.6 -155.8 L274.5 -149.8 274.3 -136.15 273.2 -134.9 275.35 -88.6 274.3 -87.35 274.05 -83.55 273.75 -78.35 Q273.4 -72.95 273.4 -67.5 273.4 -58.5 274.05 -49.5 274.6 -41.35 275.8 -33.25 276.65 -27.0 276.45 -20.65 L277.55 -19.4 278.6 -5.65 279.7 -4.4 279.7 25.6 276.45 36.85 276.45 43.1 275.35 44.35 274.3 61.85 275.35 63.1 276.45 108.1 275.35 109.35 275.35 146.9 276.45 148.15 276.45 159.4 277.55 160.65 275.35 198.15 273.1 208.15 219.2 206.5 214.2 212.25 198.0 212.25 204.0 211.65 203.55 208.3 192.7 207.5 186.25 207.15 182.35 207.25 176.6 207.4 167.35 208.15 105.85 210.75 101.0 210.8 76.95 210.9 69.35 210.9 56.0 210.65 51.55 210.55 47.1 210.4 46.35 209.75 6.8 206.75 5.4 206.75 -1.15 206.75 -3.2 206.8 -10.4 207.15 -11.45 207.15 Q-41.65 208.4 -72.0 208.3 L-73.3 208.4 Q-127.15 210.4 -181.15 211.25 L-187.8 211.3 -194.75 211.4 Q-223.85 212.65 -252.45 210.0 L-258.85 209.4 -271.0 207.9 Q-271.55 201.5 -270.7 195.25 L-270.7 195.0 Q-270.15 191.25 -268.4 187.65 L-267.85 186.4 Q-270.8 180.45 -270.35 174.05 L-269.85 170.45 -269.6 169.4 Q-269.3 166.95 -269.6 164.65 L-269.7 163.95 Q-272.3 162.15 -273.0 158.9 L-273.2 157.05 -273.1 156.45 Q-271.9 154.15 -269.95 152.65 -269.7 149.8 -269.05 147.05 L-268.85 146.2 Q-267.65 140.65 -267.1 134.95 L-266.8 129.6 -266.9 123.95 Q-267.2 116.05 -269.05 108.2 -269.95 104.8 -269.85 101.35 -269.7 99.8 -269.7 98.1 L-269.5 94.1 -269.5 92.95 -269.05 83.35 -268.4 66.25 -268.3 64.1 -268.2 60.7 Q-268.0 53.5 -268.65 46.5 L-269.15 39.45 -269.3 36.95 -269.4 24.25 -269.3 21.0 Q-268.95 12.25 -267.85 3.6 -266.9 -4.1 -266.8 -11.75 -266.65 -17.0 -267.1 -22.25 L-268.2 -38.6 -268.2 -39.5 -268.5 -46.1 Q-269.05 -56.5 -269.05 -66.85 L-269.05 -75.35 -269.15 -85.2 -269.4 -108.85 -269.95 -122.6 -270.6 -133.3 Q-271.15 -140.45 -271.25 -147.55 -273.75 -149.7 -272.85 -153.65 L-272.65 -154.3 -271.35 -155.65 -270.8 -169.65 -270.25 -176.05 Q-269.95 -180.9 -269.3 -185.7 L-268.1 -194.15 -266.8 -201.65 -266.65 -202.4 -266.15 -202.25 Q-263.65 -201.55 -261.15 -201.5 L-254.85 -202.0 -250.6 -202.4 -249.5 -202.4 -243.65 -202.65 -230.7 -203.75 Q-216.9 -208.9 -203.1 -203.75 L-201.5 -203.5 -198.65 -203.05 Q-186.95 -201.4 -179.6 -203.4 -172.25 -205.4 -165.25 -205.25 -158.25 -205.1 -150.2 -203.35 -142.15 -201.65 -138.35 -203.35 -134.55 -205.05 -119.7 -205.7 -104.9 -206.4 -90.25 -204.85 L-72.4 -203.5 -60.15 -204.4 -59.75 -202.15 Q-47.65 -202.85 -24.75 -202.3 48.9 -200.6 68.25 -204.15 L70.15 -205.5 71.45 -205.3 73.4 -205.05 73.75 -205.1 Q82.3 -206.45 79.85 -204.55 86.05 -204.4 92.2 -204.65 125.95 -207.55 159.85 -207.65 173.0 -207.65 186.25 -207.25 231.35 -204.8 276.45 -206.4" fill="url(#gradient0)" fill-rule="evenodd" stroke="none"/>
    <path d="M269.9 -199.85 L270.7 -199.8 271.1 -199.8 271.75 -199.45 272.4 -199.0 272.25 -198.5 273.2 -198.1 273.6 -198.1 274.0 -198.05 274.4 -198.05 274.75 -197.85 275.05 -197.7 275.9 -197.55 276.45 -197.1 Q276.55 -196.05 275.6 -195.7 L275.0 -195.65 274.45 -195.15 274.1 -195.35 273.45 -195.7 272.45 -196.25 272.1 -196.25 271.6 -196.15 271.5 -196.2 270.05 -194.1 269.5 -193.75 269.1 -193.55 268.7 -193.4 264.4 -189.3 Q263.15 -188.1 261.55 -187.2 L259.8 -184.95 258.95 -184.2 258.65 -184.4 258.3 -185.05 Q258.2 -185.4 258.25 -185.75 L259.9 -188.85 260.45 -189.15 261.9 -189.7 262.4 -189.9 264.9 -192.65 264.4 -192.5 263.9 -192.35 263.55 -192.5 263.25 -192.7 262.9 -192.85 262.65 -193.2 261.9 -194.35 261.7 -194.65 261.35 -194.85 261.05 -195.0 260.7 -195.2 260.35 -195.2 259.9 -195.2 259.15 -195.35 258.6 -195.15 258.05 -195.05 257.7 -195.05 257.35 -195.05 256.8 -194.95 256.45 -195.15 Q256.25 -195.25 256.15 -195.3 L255.85 -195.35 254.65 -193.85 254.1 -193.45 253.65 -193.25 253.3 -193.15 253.05 -193.05 252.55 -192.6 252.0 -192.45 251.7 -192.35 251.45 -192.15 Q251.0 -191.85 250.45 -191.7 L250.1 -191.8 249.85 -192.0 249.7 -192.45 249.7 -193.1 250.2 -194.0 250.7 -194.35 251.15 -194.55 251.5 -194.7 251.75 -194.85 252.3 -195.3 252.75 -195.45 253.1 -195.55 254.55 -197.5 255.45 -197.5 256.65 -197.35 256.95 -197.2 257.9 -197.4 259.35 -197.6 259.65 -197.4 260.0 -197.25 260.45 -197.25 260.9 -197.35 Q261.2 -197.15 261.55 -197.0 L262.9 -196.3 263.2 -196.1 263.45 -195.8 263.7 -195.45 263.95 -195.1 264.25 -194.95 264.6 -194.75 266.95 -195.65 268.3 -196.1 268.3 -196.2 268.85 -196.55 269.1 -196.65 270.45 -198.6 270.2 -198.6 268.5 -199.45 Q267.9 -199.75 268.45 -200.35 L269.25 -200.15 269.9 -199.85 M271.05 -198.65 L270.65 -198.6 270.9 -198.6 271.1 -198.6 271.05 -198.65 M63.55 -208.3 Q62.95 -208.95 63.15 -209.8 63.2 -210.2 63.8 -210.05 L64.15 -209.65 64.4 -209.3 64.7 -208.2 65.05 -207.45 65.05 -207.05 65.05 -206.7 65.8 -204.85 66.15 -203.7 66.45 -203.35 66.9 -202.95 Q67.15 -202.15 67.6 -201.5 L68.3 -200.7 68.35 -200.55 68.8 -200.55 69.15 -200.35 70.3 -200.05 70.35 -199.95 72.55 -200.8 72.75 -201.2 72.8 -201.25 72.3 -207.2 72.9 -201.45 73.15 -201.85 73.5 -202.1 73.55 -202.2 75.25 -201.9 75.55 -201.7 75.25 -201.4 73.9 -200.95 73.65 -200.55 73.25 -199.85 73.05 -199.55 72.95 -199.4 72.9 -199.4 72.5 -199.25 71.05 -198.9 70.85 -198.7 70.7 -198.65 70.7 -198.55 Q70.7 -197.5 70.15 -196.65 L70.1 -196.6 70.05 -196.15 Q70.05 -195.55 70.65 -195.05 L70.8 -195.05 70.95 -194.8 71.05 -194.65 71.05 -194.6 71.05 -194.4 71.05 -194.3 71.75 -193.95 72.05 -193.65 Q72.25 -192.8 73.05 -192.05 L73.55 -191.4 73.6 -191.35 73.7 -189.2 73.95 -189.4 74.05 -189.35 73.9 -191.25 74.3 -191.05 74.45 -190.8 74.65 -190.65 Q75.1 -190.2 75.1 -189.55 L74.9 -187.7 75.4 -187.05 76.8 -185.55 77.15 -184.8 77.35 -184.25 77.55 -184.15 78.35 -183.1 78.65 -182.65 78.9 -182.3 79.0 -181.9 79.05 -181.55 79.05 -181.15 79.1 -180.85 79.45 -180.0 79.55 -179.65 79.55 -179.4 79.55 -179.35 80.3 -179.05 80.65 -178.65 81.4 -177.9 81.55 -177.55 81.65 -177.15 81.95 -176.85 82.4 -176.4 82.5 -175.65 82.55 -174.9 82.55 -174.55 83.05 -173.45 83.4 -172.65 83.55 -171.9 Q83.3 -171.6 83.05 -171.6 L82.6 -171.95 82.55 -172.3 82.25 -172.65 81.55 -173.4 81.55 -174.15 81.55 -174.9 81.55 -175.3 81.35 -175.6 80.55 -176.4 80.5 -176.8 80.4 -177.15 79.5 -177.85 78.8 -178.3 78.6 -178.7 78.55 -179.4 78.3 -179.8 78.05 -180.15 78.05 -180.55 78.05 -180.9 78.05 -181.3 77.85 -181.6 77.05 -182.4 76.95 -182.75 76.55 -183.4 73.5 -184.6 Q72.5 -185.05 72.55 -185.95 L72.35 -186.0 72.6 -184.3 72.55 -182.8 72.0 -182.2 71.55 -181.9 72.1 -180.05 72.55 -178.9 72.55 -178.55 72.55 -178.15 73.15 -176.65 73.55 -175.9 73.55 -175.15 73.55 -174.4 73.35 -174.05 72.9 -173.3 73.05 -171.05 73.05 -169.55 73.45 -168.4 73.55 -167.3 73.35 -166.95 72.9 -166.3 72.1 -165.85 71.55 -165.3 71.15 -165.95 71.05 -166.65 72.05 -167.4 72.55 -167.8 72.45 -168.15 72.05 -168.9 72.05 -170.8 72.05 -172.3 71.9 -172.65 71.55 -173.4 71.95 -174.15 72.55 -174.9 72.0 -176.4 71.55 -177.15 71.55 -177.55 71.55 -177.9 71.55 -178.3 71.35 -178.65 71.05 -179.05 71.05 -179.4 71.05 -179.8 71.05 -180.15 70.85 -180.5 70.55 -180.9 70.55 -181.65 70.55 -182.8 70.7 -183.0 71.55 -183.4 71.55 -184.15 71.55 -184.9 71.0 -185.65 70.55 -186.05 70.55 -186.4 70.55 -186.8 70.55 -187.15 70.35 -187.5 70.05 -187.9 70.05 -188.3 70.05 -188.65 69.85 -189.0 69.55 -189.4 69.55 -191.3 69.55 -192.8 68.3 -193.3 Q67.85 -194.5 67.95 -195.95 L68.05 -197.8 67.85 -198.15 67.55 -198.55 67.55 -198.9 67.55 -199.05 67.05 -199.55 66.7 -200.25 Q66.45 -200.6 66.7 -200.9 L66.15 -201.65 65.8 -202.3 65.4 -202.7 65.05 -203.05 65.05 -203.45 65.05 -203.8 64.8 -204.2 64.55 -204.55 64.55 -204.95 64.55 -205.3 64.3 -205.7 64.05 -206.05 64.05 -206.45 64.05 -206.8 63.85 -207.15 63.55 -207.55 63.55 -207.95 63.55 -208.3 M69.5 -198.4 L69.55 -198.05 69.55 -198.15 69.55 -198.9 69.2 -199.0 69.4 -198.8 69.5 -198.4 M73.4 -186.55 L73.75 -186.45 73.95 -186.25 73.9 -186.4 73.7 -186.65 73.55 -186.7 73.35 -186.7 73.4 -186.55 M71.8 -186.6 L72.0 -186.4 71.95 -186.5 71.55 -187.0 71.55 -186.9 71.8 -186.6 M69.9 -194.25 L69.4 -194.65 69.3 -194.9 69.05 -194.8 69.05 -194.4 69.95 -194.15 69.9 -194.25 M70.75 -192.1 L70.65 -192.25 70.65 -192.3 70.65 -192.1 70.75 -192.1 M70.55 -189.9 L70.8 -189.55 70.85 -189.45 70.95 -189.9 Q70.8 -190.2 70.8 -190.55 L70.6 -190.75 70.55 -189.9 M74.7 -185.25 L75.7 -184.75 75.4 -185.15 74.7 -185.25 M44.8 -122.3 L44.95 -122.1 45.0 -121.9 45.0 -121.55 45.0 -121.15 45.0 -120.8 45.0 -120.55 45.05 -120.35 45.2 -120.15 45.25 -119.95 45.25 -119.8 45.25 -119.6 45.25 -119.4 45.25 -119.2 45.25 -119.05 45.3 -118.85 45.45 -118.65 45.5 -118.45 45.5 -118.3 45.4 -118.1 45.45 -117.9 45.65 -117.7 45.75 -117.55 45.75 -117.35 45.8 -117.3 45.85 -117.25 45.95 -117.15 45.95 -117.1 46.0 -116.95 46.0 -116.9 46.15 -116.7 46.3 -116.55 46.45 -116.35 46.75 -116.15 46.9 -115.95 47.0 -115.8 47.05 -115.6 47.2 -115.4 47.25 -115.2 47.3 -115.05 47.45 -114.85 47.7 -114.65 47.9 -114.45 48.05 -114.3 48.2 -114.1 48.45 -113.9 48.5 -113.7 48.5 -113.55 48.5 -113.35 48.45 -113.15 48.15 -113.1 48.0 -113.3 48.0 -113.45 47.75 -113.65 47.65 -113.85 47.45 -114.05 47.25 -114.2 47.0 -114.4 46.9 -114.6 46.75 -114.8 46.75 -114.95 46.7 -115.15 46.55 -115.35 46.5 -115.55 46.4 -115.7 46.0 -115.9 45.9 -116.1 45.7 -116.3 45.5 -116.45 45.5 -116.65 45.4 -116.8 45.25 -116.95 44.9 -117.1 44.7 -117.3 44.45 -117.5 44.45 -117.4 44.2 -117.2 44.05 -117.05 44.0 -116.85 44.0 -116.65 43.95 -116.45 43.9 -116.3 43.95 -116.1 44.0 -115.9 44.0 -115.7 44.0 -115.55 44.0 -115.35 44.0 -115.15 44.0 -114.95 44.0 -114.8 43.9 -114.6 43.65 -114.6 43.5 -114.8 43.5 -114.95 43.5 -115.15 43.5 -115.35 43.5 -115.55 43.5 -115.7 43.25 -115.9 43.25 -116.1 43.25 -116.3 43.3 -116.45 43.45 -116.65 43.5 -116.85 43.5 -117.05 43.5 -117.2 43.5 -117.4 43.75 -117.6 43.9 -117.8 43.75 -117.95 43.5 -118.15 43.5 -118.3 43.5 -118.45 43.5 -118.55 43.5 -118.7 43.5 -118.85 43.5 -118.9 43.5 -119.1 43.65 -119.3 43.8 -119.45 44.0 -119.65 44.0 -119.85 44.2 -120.05 44.4 -120.2 44.5 -120.4 44.5 -120.55 44.5 -120.6 44.5 -120.8 44.5 -121.15 44.5 -121.55 44.5 -121.7 44.25 -121.9 44.25 -122.1 44.25 -122.3 44.3 -122.4 44.35 -122.45 44.5 -122.45 44.65 -122.45 44.8 -122.3 M193.0 189.8 L193.6 189.5 194.6 189.5 195.2 189.8 195.6 190.1 195.85 190.35 196.1 190.5 196.75 190.75 197.1 191.1 197.35 191.35 199.75 191.75 200.15 192.5 200.6 193.65 200.6 194.0 201.25 194.75 202.1 195.9 202.1 196.25 202.1 196.65 202.35 197.0 202.6 197.4 202.6 198.15 202.6 199.65 202.6 200.0 202.45 200.35 202.25 200.75 202.1 201.15 202.1 201.5 202.1 201.9 203.95 203.55 205.0 204.5 205.1 204.5 205.7 204.8 205.85 204.95 208.25 205.25 208.45 205.65 208.6 205.95 208.6 205.75 208.35 205.4 208.1 205.0 208.05 203.15 Q208.05 202.45 208.85 202.65 L209.05 203.4 209.1 204.15 209.45 204.9 209.6 205.25 209.6 206.0 209.5 206.75 209.0 206.9 209.1 207.9 209.25 208.25 209.45 208.65 209.6 209.0 209.6 209.4 209.6 209.7 209.9 210.5 209.75 211.25 208.1 211.15 207.75 210.7 207.1 210.4 207.1 210.0 207.1 209.25 207.1 208.15 206.95 207.8 206.6 207.4 206.6 207.25 204.1 207.0 203.5 206.7 203.1 206.4 202.85 206.15 197.15 204.25 Q195.5 203.75 194.0 202.75 L191.15 202.3 190.1 201.9 190.15 201.5 190.55 200.85 191.1 200.5 194.6 200.5 195.15 200.85 196.35 201.9 196.75 202.25 200.35 203.15 200.0 202.75 199.6 202.4 199.6 202.0 199.6 201.65 199.6 201.25 199.8 200.85 200.45 199.7 200.6 199.4 200.6 199.0 200.6 198.65 200.6 198.25 200.45 197.9 200.25 197.5 200.0 196.75 199.6 196.4 199.25 196.0 199.1 195.65 198.95 195.3 198.6 194.9 198.6 194.5 198.6 194.15 198.45 193.9 196.6 193.5 196.0 193.2 195.6 192.9 195.35 192.65 195.1 192.5 194.5 192.25 194.1 191.85 193.85 191.6 193.6 191.5 192.7 190.8 192.6 190.5 192.7 190.15 193.0 189.8 M-271.6 -1.1 L-271.45 -1.1 -270.8 -0.95 -270.7 -0.85 -270.6 -0.95 -270.45 -1.15 -270.15 -1.2 -264.55 -0.6 -264.0 -0.75 -263.6 -0.8 -262.7 -0.85 -262.2 -1.0 -261.85 -1.05 -261.55 -1.1 -260.75 -0.95 -260.75 -1.05 -260.65 -1.1 -260.6 -1.15 -260.45 -1.2 -260.2 -1.2 -260.1 -1.25 -259.9 -1.25 -259.6 -1.25 -259.45 -1.35 -259.3 -1.45 -259.2 -1.45 -259.0 -1.5 -258.75 -1.5 -258.6 -1.6 -258.5 -1.65 -258.35 -1.6 -257.6 -1.6 -257.5 -1.65 -257.35 -1.7 -257.25 -1.65 -257.0 -1.75 -256.9 -1.85 -256.75 -1.85 -256.55 -1.95 -256.45 -2.05 -256.3 -2.1 -256.15 -2.2 -256.05 -2.2 -255.85 -2.25 -255.75 -2.35 -255.65 -2.45 -255.6 -2.4 -255.45 -2.45 -255.3 -2.5 -255.15 -2.55 -255.05 -2.6 -254.95 -2.65 -254.75 -2.65 -254.75 -2.75 -254.7 -2.85 -254.75 -2.95 -254.8 -3.05 -254.8 -3.1 -254.8 -3.2 -254.7 -3.3 -254.65 -3.4 -254.6 -3.5 -254.5 -3.55 -254.35 -3.55 -254.05 -3.55 -253.95 -3.55 -253.0 -3.55 -253.0 -3.6 -252.9 -3.7 -252.8 -3.75 -252.75 -3.8 -252.7 -3.9 -252.6 -4.0 -252.5 -4.05 -252.4 -4.15 -252.35 -4.25 -252.25 -4.2 -252.1 -4.25 -251.95 -4.25 -251.9 -4.25 -251.8 -4.45 -251.8 -4.65 -251.75 -4.85 -251.65 -5.0 -251.55 -5.2 -251.35 -5.35 -251.2 -5.45 -251.1 -5.5 -250.85 -5.55 -249.95 -5.55 -249.45 -5.7 -249.3 -5.8 -249.0 -5.85 -248.8 -6.0 -248.6 -6.0 -248.15 -6.1 -247.65 -6.2 -247.5 -6.35 -247.15 -6.4 -246.95 -6.5 -246.75 -6.55 -246.3 -6.6 -245.9 -6.7 -242.8 -6.35 -242.6 -6.55 -242.4 -6.7 -242.35 -6.9 -242.2 -7.05 -241.75 -7.2 -241.55 -7.35 -241.3 -7.35 -239.65 -7.25 -239.3 -7.35 -237.15 -7.15 -236.8 -7.2 -236.55 -7.15 -236.2 -7.0 -236.05 -7.0 -235.7 -7.1 -235.5 -7.25 -235.15 -7.3 -234.95 -7.45 -234.8 -7.55 -234.7 -7.6 -234.45 -7.65 -234.05 -7.7 -233.8 -7.9 -233.65 -8.0 -233.35 -8.1 -233.35 -8.25 -233.3 -8.6 -233.45 -8.6 -233.55 -8.8 -233.4 -9.0 -233.25 -9.15 -233.15 -9.3 -233.05 -9.5 -232.9 -9.7 -232.85 -10.1 -232.75 -10.8 -232.7 -11.25 -232.7 -11.45 -232.65 -11.55 -232.55 -12.25 -232.55 -12.45 -232.4 -12.65 -232.3 -12.7 -232.4 -12.75 -232.45 -12.95 -232.45 -13.15 -232.65 -13.3 -232.65 -13.55 -232.75 -13.75 -232.8 -13.95 -232.85 -14.1 -233.2 -14.35 -233.3 -14.55 -233.25 -14.75 -233.25 -14.9 -233.6 -15.2 -233.7 -15.4 -233.65 -15.6 -233.6 -15.75 -233.25 -15.8 -233.15 -15.6 -232.8 -15.5 -232.7 -15.25 -232.7 -15.05 -232.75 -14.85 -232.6 -14.7 -232.45 -14.45 -232.3 -14.25 -232.1 -14.0 -232.1 -13.85 -232.1 -13.65 -232.05 -13.6 -231.95 -13.7 -231.85 -13.9 -231.8 -14.1 -231.8 -14.25 -231.7 -14.4 -231.6 -14.6 -231.45 -14.8 -231.45 -14.95 -231.35 -15.15 -231.25 -15.3 -231.1 -15.5 -231.1 -15.65 -231.05 -15.85 -230.95 -16.05 -230.8 -16.25 -230.8 -16.4 -230.8 -16.6 -230.75 -16.8 -230.6 -16.95 -230.4 -17.1 -230.2 -17.25 -230.15 -17.4 -230.1 -17.6 -230.05 -17.75 -229.85 -17.95 -229.8 -18.15 -229.8 -18.35 -229.95 -18.5 -230.0 -18.7 -230.05 -18.95 -230.15 -19.15 -230.35 -19.3 -230.4 -19.55 -230.35 -19.75 -230.25 -19.9 -230.0 -19.9 -229.8 -19.65 -229.65 -19.45 -229.4 -19.2 -229.45 -19.05 -229.4 -18.85 -229.25 -18.6 -229.25 -18.4 -229.3 -18.25 -229.3 -18.05 -229.35 -17.85 -229.35 -17.65 -229.35 -17.5 -229.6 -17.35 -229.7 -17.2 -229.7 -17.0 -229.7 -16.85 -229.85 -16.75 -229.75 -16.65 -229.8 -16.45 -229.8 -16.1 -229.85 -15.9 -229.9 -15.5 -229.95 -15.15 -230.1 -14.95 -230.25 -14.8 -230.25 -14.65 -230.3 -14.45 -230.3 -14.25 -230.35 -14.05 -230.35 -13.9 -230.55 -13.7 -230.65 -13.5 -230.7 -13.3 -230.7 -13.15 -230.95 -13.0 -231.0 -12.8 -231.05 -12.6 -231.05 -12.45 -231.1 -12.25 -231.1 -12.05 -231.15 -11.9 -231.2 -11.55 -231.3 -11.35 -231.45 -11.15 -231.5 -11.05 -231.55 -10.85 -231.5 -10.6 -231.35 -10.4 -231.35 -10.25 -231.4 -10.05 -231.4 -9.9 -231.05 -9.7 -230.9 -9.45 -230.75 -9.25 -230.75 -9.1 -230.7 -9.05 -230.35 -9.0 -229.9 -9.15 -229.7 -9.25 -229.45 -9.3 -223.0 -8.45 -222.7 -8.25 -222.3 -8.05 -221.55 -7.7 -221.5 -7.5 -219.0 -7.25 -218.6 -7.35 -218.2 -7.4 -217.85 -7.5 -217.75 -7.45 -217.6 -7.45 -216.9 -7.45 -216.55 -7.6 -216.25 -7.4 -216.1 -7.2 -216.1 -7.0 -216.15 -6.8 -216.15 -6.6 Q-216.3 -6.5 -216.35 -6.5 L-216.45 -6.35 -216.7 -6.35 -217.45 -6.25 -217.65 -6.15 -217.75 -6.0 -218.05 -5.95 -218.15 -5.75 -218.35 -5.55 -218.55 -5.4 -218.65 -5.25 -218.75 -5.05 -218.9 -4.95 -218.95 -4.9 -219.2 -4.8 -219.35 -4.7 -219.5 -4.5 -219.75 -4.35 -219.95 -4.2 -220.05 -4.05 -220.35 -4.05 -220.8 -3.95 -221.2 -3.8 -221.4 -3.75 -221.7 -3.7 -221.85 -3.55 -222.25 -3.5 -222.5 -3.35 -222.65 -3.2 -222.7 -3.15 -223.05 -3.1 -223.3 -2.95 -223.45 -2.8 -223.55 -2.75 -223.75 -2.75 -224.25 -2.65 -224.55 -2.6 -226.05 -2.8 -226.4 -2.9 -226.75 -3.1 -227.1 -3.25 -227.15 -3.45 -227.5 -3.6 -228.35 -3.7 -228.65 -3.65 -229.4 -3.6 -229.7 -3.5 -230.7 -3.5 -231.1 -3.35 -231.25 -3.25 -231.5 -3.25 -234.2 -3.45 -234.5 -3.4 -234.75 -3.25 -234.95 -3.15 -235.05 -3.0 -235.3 -3.0 -238.05 -3.2 -238.3 -3.15 -239.0 -3.1 -239.35 -3.0 -240.3 -3.0 -240.5 -2.85 -240.75 -2.7 -240.65 -2.65 -240.6 -2.45 -240.45 -2.4 -240.15 -2.2 -239.95 -2.05 -239.9 -1.9 -239.75 -1.85 -239.45 -1.65 -239.3 -1.55 -239.0 -1.35 -238.8 -1.15 -238.85 -0.95 -238.85 -0.75 -238.9 -0.55 -238.9 -0.4 -238.85 -0.2 -238.7 0.0 -238.75 0.1 -238.5 0.3 -238.35 0.55 -238.2 0.75 -238.05 0.95 -237.85 1.15 -237.65 1.35 -237.4 1.45 -237.2 1.65 -236.9 1.8 -236.75 2.0 -236.6 2.25 -236.45 2.4 -236.25 2.65 -236.1 2.8 -235.8 2.95 -235.7 3.05 -235.6 3.1 -235.0 3.1 -234.85 3.0 -234.45 2.9 -234.3 2.85 -234.05 2.8 -232.6 3.0 -232.3 3.15 -230.9 3.5 -230.6 3.65 -230.45 3.85 Q-230.4 3.85 -230.3 3.95 L-230.2 3.9 -229.9 3.9 -228.75 3.9 -228.4 3.85 -227.95 3.9 -227.65 4.05 -227.6 4.1 -227.15 4.1 -226.85 3.95 -226.8 3.8 -226.55 3.6 -226.1 3.45 -226.05 3.3 -226.0 3.2 -225.8 3.15 -224.45 3.4 -224.35 3.6 -224.5 3.75 -225.65 3.8 -225.65 4.0 -225.75 4.1 -225.95 4.1 -226.4 4.2 -226.5 4.4 -226.7 4.55 -226.9 4.7 -227.7 4.7 -227.75 4.8 -228.2 4.95 -228.3 5.0 -228.55 5.05 -229.75 5.0 -230.1 5.1 -230.85 5.0 -231.15 4.8 -231.3 4.6 -231.45 4.5 -232.75 4.25 -233.1 4.05 -234.15 3.95 -234.6 4.1 -234.85 4.25 -234.95 4.3 -235.05 4.3 -235.3 4.35 -235.25 4.4 -235.05 4.55 -235.1 4.75 -235.1 4.95 -235.1 5.2 -234.9 5.35 -234.7 5.6 -234.6 5.8 -234.5 6.0 -234.5 6.15 -234.55 6.35 -234.55 6.55 -234.6 6.9 -234.65 7.1 -234.3 7.35 -234.2 7.6 -234.2 7.75 -234.2 7.95 -234.2 8.15 -234.1 8.35 -234.1 8.5 -234.1 8.7 -234.35 8.75 -234.5 8.7 -234.65 8.55 -234.75 8.35 -234.75 8.1 -234.75 7.9 -234.75 7.85 Q-234.9 7.75 -235.1 7.6 L-235.2 7.45 -235.15 7.25 -235.15 7.05 -235.1 6.85 -235.05 6.5 -235.05 6.3 -235.15 6.1 -235.35 5.9 -235.4 5.7 -235.65 5.45 -235.65 5.25 -235.65 5.1 -235.6 4.9 -235.8 4.7 -235.95 4.45 -236.15 4.3 -236.15 4.15 -236.35 4.1 -236.4 4.05 -236.75 4.0 -237.1 3.8 -237.2 3.6 -237.35 3.45 -237.45 3.4 -237.75 3.2 -237.9 3.0 -238.05 2.85 -239.55 2.6 -239.9 2.4 -240.05 2.3 Q-240.2 2.15 -240.35 2.1 L-240.5 1.85 -240.65 1.7 -240.8 1.5 -240.85 1.45 -242.2 1.25 -242.5 1.05 -242.65 0.9 -243.0 0.75 -243.1 0.5 -243.3 0.35 -243.4 0.15 -243.45 0.1 -243.8 0.0 -244.15 -0.2 -244.45 -0.25 -244.75 -0.1 -245.75 -0.25 -246.1 -0.45 -246.95 -0.55 -247.25 -0.45 -247.6 -0.65 -247.65 -0.85 -247.7 -1.0 -247.8 -1.0 -248.05 -0.8 -248.2 -0.7 -248.3 -0.7 -248.6 -0.6 -248.8 -0.5 -249.05 -0.45 -249.5 -0.4 -249.75 -0.2 -249.8 -0.05 -249.85 0.1 -250.05 0.3 -250.4 0.35 -250.85 0.45 -251.05 0.6 -251.2 0.7 -251.55 0.8 -251.75 0.9 -252.1 1.0 -252.3 1.05 -252.6 1.2 -252.8 1.25 -253.1 1.25 -253.75 1.35 -254.05 1.4 -254.1 1.45 -254.35 1.4 -254.05 1.55 -253.9 1.7 -253.95 1.9 -253.8 2.1 -253.75 2.3 -253.0 2.55 -252.65 2.7 -252.55 2.9 -252.5 3.1 -252.5 3.25 -252.45 3.3 -252.15 3.3 -251.8 3.2 -250.8 3.35 -250.5 3.5 -250.3 3.65 -250.05 3.8 -249.9 4.05 -249.8 4.15 -249.4 4.3 -249.15 4.45 -248.95 4.65 -249.0 4.85 -248.85 4.95 -248.75 5.05 -248.65 5.15 -248.55 5.35 -248.35 5.55 -248.2 5.8 -248.0 6.0 -247.85 6.15 -247.85 6.2 -247.05 6.45 -246.95 6.65 -246.95 6.8 -246.95 7.0 -246.9 7.25 -246.75 7.45 -246.8 7.6 -246.55 7.85 -246.6 8.05 -246.7 8.1 -246.85 8.15 -246.85 8.2 -247.25 8.05 -247.35 7.9 -247.3 7.7 -247.5 7.45 -247.5 7.25 -247.5 7.1 -247.45 6.95 -247.5 6.9 -248.1 6.65 -248.3 6.45 -248.5 6.25 -248.8 6.0 -249.0 5.8 -249.85 5.85 -250.15 6.05 -250.25 6.15 -250.45 6.2 -250.65 6.25 -250.65 6.45 -250.8 6.55 -250.95 6.6 -250.95 6.65 -251.35 6.5 -251.45 6.3 -251.3 6.15 -251.15 5.95 -251.05 5.75 -251.0 5.65 -250.85 5.6 -250.55 5.55 -250.3 5.35 -250.25 5.25 -250.3 5.2 -250.6 5.0 -250.7 4.8 -250.85 4.65 -251.0 4.6 -251.25 4.4 -251.6 4.35 -251.85 4.55 -252.0 4.6 -252.25 4.7 -252.55 4.5 -252.75 4.35 -253.0 4.2 -253.2 4.05 -253.5 3.85 -253.55 3.65 -253.65 3.6 -254.15 3.4 -254.4 3.25 -254.55 3.15 -254.8 3.05 -254.9 2.9 -254.9 2.85 -255.1 2.75 -255.2 2.6 -255.4 2.5 -255.5 2.4 -255.65 2.3 -255.75 2.2 -255.8 2.1 -255.85 2.05 -255.95 2.0 -256.1 2.0 -256.25 1.85 -256.45 1.8 -256.55 1.75 -259.5 1.3 -259.65 1.2 -259.7 1.2 -260.0 1.1 -260.2 1.05 -260.25 0.95 -260.35 0.85 -260.45 0.75 -263.85 0.25 -263.9 0.25 -264.3 0.35 -264.55 0.4 -264.8 0.45 -264.85 0.5 -266.55 0.25 -266.6 0.4 -266.85 0.55 -267.1 0.7 -268.45 0.4 -268.55 0.3 -268.7 0.25 -268.85 0.35 -268.85 0.55 -269.15 0.65 -269.4 0.75 -269.6 0.9 -269.85 1.1 -270.0 1.2 -270.25 1.4 -270.4 1.55 -270.55 1.75 -270.65 1.9 -271.1 2.05 -271.3 2.1 -271.35 2.15 -271.95 2.0 -272.1 1.8 -271.95 1.6 -272.05 1.4 -271.9 1.2 -272.0 1.05 -271.95 0.85 -271.95 0.65 -271.9 0.45 -271.9 0.3 -271.85 0.1 -271.75 -0.1 -271.65 -0.25 -271.8 -0.45 -271.75 -0.65 -271.75 -0.8 -271.6 -1.0 -271.6 -1.1 M-243.55 -3.65 L-243.6 -3.55 -243.5 -3.6 -243.45 -3.65 -243.55 -3.65 M-240.45 -4.2 L-239.3 -4.15 -239.2 -4.15 -240.2 -4.25 -240.45 -4.2 M-241.35 -6.15 L-241.6 -6.05 -241.75 -5.9 -241.75 -5.85 -241.6 -5.95 -241.35 -6.15 M-235.75 -4.15 L-235.55 -4.15 -235.4 -4.25 -235.55 -4.25 -235.75 -4.15 M-232.45 -9.4 L-232.2 -9.4 -232.2 -9.45 -232.15 -9.65 -232.1 -9.8 -232.05 -9.85 -232.1 -9.95 -232.15 -9.75 -232.35 -9.6 -232.45 -9.45 -232.45 -9.4 M-228.4 -4.8 L-229.0 -4.95 -229.1 -4.95 -229.3 -4.8 -228.65 -4.75 -228.4 -4.8 M-239.05 1.5 L-239.15 1.3 -239.3 1.15 -239.35 1.1 -239.6 1.05 -239.7 1.0 -239.5 1.25 -239.1 1.5 -239.05 1.5 M-241.05 0.25 L-241.25 0.2 -241.3 0.25 -241.05 0.25" fill="#000000" fill-rule="evenodd" stroke="none"/>
  </g>
  <defs>
    <linearGradient gradientTransform="matrix(0.184, 0.2166, -0.2794, 0.1398, 3.2, 2.25)" gradientUnits="userSpaceOnUse" id="gradient0" spreadMethod="pad" x1="-819.2" x2="819.2">
      <stop offset="0.0" stop-color="#888888" stop-opacity="0.15294118"/>
      <stop offset="1.0" stop-color="#000000" stop-opacity="0.2627451"/>
    </linearGradient>
  </defs>
</svg>
