<?xml version="1.0" encoding="UTF-8" standalone="no"?>
<svg xmlns:ffdec="https://www.free-decompiler.com/flash" xmlns:xlink="http://www.w3.org/1999/xlink" ffdec:objectType="shape" height="415.25px" width="550.35px" xmlns="http://www.w3.org/2000/svg">
  <g transform="matrix(1.0, 0.0, 0.0, 1.0, 272.1, 206.3)">
    <path d="M34.15 -198.7 L33.45 -198.35 32.3 -197.6 31.4 -196.8 30.7 -196.05 29.95 -195.35 Q29.35 -193.8 29.35 -192.25 L29.35 -191.95 27.9 -191.95 24.75 -191.55 18.85 -191.55 Q20.3 -194.5 17.25 -199.15 L16.6 -199.6 20.1 -200.95 24.75 -200.45 Q26.75 -199.5 28.95 -199.2 L34.15 -198.7 M163.3 -180.8 L161.15 -181.4 164.8 -180.95 163.3 -180.8 M258.3 -188.2 Q267.3 -191.0 268.1 -197.35 L268.2 -197.35 272.95 -196.65 272.95 -174.25 Q270.5 -173.55 268.6 -172.6 L267.45 -171.9 Q259.1 -173.7 250.2 -174.2 L249.5 -175.4 249.25 -175.7 249.25 -176.4 Q258.75 -180.25 258.3 -188.2 M275.45 -110.95 L275.55 -108.15 269.45 -108.25 Q272.55 -109.4 275.45 -110.95 M276.0 -93.3 L276.15 -89.05 250.05 -90.25 250.25 -92.45 276.0 -93.3 M276.5 -71.15 L276.7 -46.5 274.65 -46.4 271.5 -46.2 Q273.4 -48.5 273.3 -51.4 273.3 -54.3 270.95 -56.7 269.35 -58.0 267.35 -58.65 L266.85 -59.55 Q272.3 -63.85 270.5 -71.3 L276.5 -71.15 M276.15 -1.45 L276.05 1.95 257.6 1.45 255.8 1.45 255.8 -0.8 270.5 -1.2 276.15 -1.45 M275.55 18.55 L275.45 22.7 255.05 20.85 255.2 18.15 275.55 18.55 M274.0 52.25 L272.95 69.95 272.95 70.95 249.2 73.2 249.15 68.25 Q254.7 67.1 259.05 64.0 268.1 57.55 267.1 52.35 L274.0 52.25 M272.95 103.5 L272.95 109.6 272.55 109.75 271.95 110.3 271.15 110.15 271.15 110.25 270.15 110.45 269.7 110.55 268.55 111.45 268.8 111.45 270.25 111.8 270.6 112.05 270.8 112.3 271.05 112.8 Q271.15 115.75 270.6 118.6 L270.5 119.25 Q271.4 119.25 272.1 118.85 L272.95 118.2 272.95 126.95 273.85 127.3 274.7 128.1 275.1 129.6 Q263.1 129.95 251.05 129.8 L249.8 120.9 Q255.75 117.65 251.75 109.4 L248.25 108.6 Q248.8 107.8 249.2 106.1 L251.05 104.9 272.95 103.5 M272.95 149.15 L272.95 167.2 253.85 168.15 253.85 167.25 252.85 158.05 251.85 149.05 272.95 149.15 M277.6 184.0 L278.15 194.75 263.5 196.35 Q248.45 194.1 233.5 191.0 L233.5 191.05 231.4 191.25 229.8 191.45 Q227.45 192.1 225.7 193.4 224.15 194.55 223.25 195.85 222.9 196.65 222.8 197.6 L217.45 197.35 205.95 196.85 204.15 196.05 Q187.05 190.85 169.0 187.75 L177.45 187.35 187.1 186.25 192.25 186.8 Q195.15 186.8 197.5 183.3 L198.2 182.2 207.75 182.05 Q242.2 186.25 277.6 184.0 M-268.6 182.7 L-268.6 180.8 -268.25 180.55 -267.6 180.0 -267.15 179.5 -266.7 179.0 -266.45 178.5 -266.25 177.95 -266.0 177.5 -265.8 176.95 -265.55 176.5 -265.55 174.05 -246.5 174.1 -246.0 175.4 Q-245.6 177.55 -245.25 177.5 L-245.05 177.3 -243.55 179.2 -268.6 182.7 M-264.4 141.95 Q-265.3 128.8 -266.7 115.75 L-266.7 115.4 -267.25 114.5 -267.45 114.0 Q-254.0 115.7 -240.35 116.2 L-240.2 121.2 Q-239.85 132.55 -239.85 138.35 -239.75 142.15 -240.5 145.9 L-259.8 146.05 Q-260.7 144.65 -262.25 143.5 -263.3 142.6 -264.4 141.95 M-268.5 93.55 L-268.5 93.5 -268.25 92.95 -268.25 92.5 -268.25 91.95 -268.25 91.45 -268.25 90.95 -268.25 90.45 -268.25 89.9 -268.25 89.45 -268.05 88.9 -267.8 88.45 -267.6 87.9 -267.35 87.4 -267.35 83.65 -253.15 82.85 -242.75 82.1 Q-242.15 91.3 -241.0 97.95 L-241.0 98.35 -263.2 98.6 -263.2 98.1 -263.65 97.35 -264.2 96.55 -264.55 95.8 -265.3 95.0 Q-267.0 94.1 -268.5 93.55 M-267.35 60.35 L-267.35 51.0 -267.35 49.3 -264.75 49.7 -258.65 49.3 Q-251.7 53.2 -243.45 55.7 L-243.45 61.25 -243.4 63.45 -267.35 60.35 M-266.25 37.95 L-266.0 35.05 -265.8 32.7 -265.35 32.55 Q-251.85 29.85 -258.35 20.7 -259.65 19.9 -260.9 19.75 L-265.3 19.25 -265.3 15.0 -265.55 14.55 Q-264.9 7.45 -264.55 0.3 L-258.2 0.15 -258.1 0.15 -247.1 0.4 -245.75 0.3 -244.75 -0.15 -244.65 -0.15 Q-244.15 1.85 -242.35 3.35 L-242.6 12.45 -243.05 12.7 Q-251.0 17.8 -248.4 25.0 -246.25 27.55 -243.05 28.95 L-243.1 30.8 Q-255.5 32.85 -266.25 37.95 M-229.8 183.2 L-226.3 184.0 -229.25 184.0 -229.8 183.2 M-208.8 183.8 L-199.75 182.45 -189.25 181.25 -157.3 183.0 -208.8 183.8 M249.9 35.25 L249.85 34.8 255.7 35.15 249.9 35.25 M-6.8 -202.1 Q-0.95 -202.3 4.85 -202.1 L4.85 -202.05 4.75 -200.85 -7.15 -201.05 -6.8 -202.1 M91.55 199.25 L91.8 199.45 88.25 199.55 87.15 199.05 91.55 199.25 M-267.35 -170.9 L-245.0 -167.9 Q-245.1 -166.0 -244.1 -164.25 L-245.1 -164.25 Q-247.15 -165.55 -249.75 -166.0 -258.2 -167.55 -266.6 -167.15 L-266.7 -167.3 -266.7 -167.85 -266.9 -168.3 -267.15 -168.85 -267.35 -169.35 -267.35 -170.35 -267.35 -170.9 M-206.8 -179.45 L-207.35 -179.6 -204.75 -179.65 -206.8 -179.45 M-265.55 -145.25 Q-261.4 -145.8 -256.65 -148.05 L-243.7 -147.9 -243.6 -139.95 Q-246.95 -138.65 -250.05 -137.0 L-265.55 -137.0 -265.55 -145.25 M-266.15 -103.35 L-254.6 -103.65 Q-247.4 -103.9 -243.0 -105.5 L-242.8 -96.95 -242.7 -93.15 -247.7 -92.9 -265.3 -90.7 -265.8 -100.3 -266.15 -103.35 M-242.0 -54.3 L-258.65 -53.15 -263.05 -52.85 Q-263.2 -56.35 -265.0 -59.05 L-265.0 -59.8 Q-253.7 -59.65 -242.05 -59.95 L-242.0 -54.3 M-264.2 -38.3 L-256.95 -38.55 Q-259.25 -36.0 -259.65 -32.15 -260.1 -29.5 -256.95 -28.55 L-246.9 -25.85 Q-244.45 -24.55 -241.75 -23.55 L-241.8 -19.8 -263.55 -22.35 Q-263.75 -23.85 -264.2 -25.15 L-264.3 -29.0 Q-264.45 -33.65 -264.2 -38.3" fill="#82641b" fill-rule="evenodd" stroke="none"/>
    <path d="M29.35 -191.95 Q29.7 -185.65 38.2 -185.3 71.65 -184.15 105.25 -184.45 L88.15 -183.7 Q24.15 -184.85 -39.5 -181.75 -54.5 -185.7 -71.1 -187.25 L-76.0 -187.7 Q-72.35 -188.75 -70.35 -190.5 L-97.15 -187.95 Q-104.45 -187.2 -107.05 -192.25 -108.65 -195.25 -107.1 -198.5 L-102.2 -201.05 -66.95 -200.85 Q-64.0 -203.15 -61.4 -204.2 L-58.6 -203.85 -50.65 -203.25 -50.0 -202.95 Q-49.85 -203.0 -49.55 -203.2 -36.65 -202.55 -23.5 -203.35 L-15.05 -202.55 -12.65 -202.3 -15.85 -199.1 -15.5 -199.1 Q-14.05 -200.1 -12.25 -201.8 L-11.75 -202.25 -9.5 -202.0 -8.6 -201.9 -6.8 -202.1 -7.15 -201.05 Q-8.85 -197.35 -17.55 -196.25 L-19.25 -196.05 -35.85 -194.2 -50.1 -192.65 -57.65 -191.85 18.85 -191.55 24.75 -191.55 27.9 -191.95 29.35 -191.95 M151.9 208.4 L116.5 208.4 Q115.95 208.65 115.5 208.95 L99.6 208.15 94.95 207.95 94.45 207.45 Q92.75 206.0 89.0 206.0 82.45 204.35 81.4 204.35 73.75 200.05 77.85 199.85 L88.25 199.55 91.8 199.45 Q97.45 203.7 106.35 201.5 128.95 205.55 151.9 208.4 M8.6 202.25 Q4.8 203.8 0.8 205.5 L-1.95 204.9 Q1.35 201.1 4.25 197.15 7.45 192.8 4.25 188.55 L6.3 189.9 Q8.15 193.85 7.8 196.65 L12.75 197.3 18.5 197.95 8.6 202.25 M-265.55 172.8 L-265.55 168.4 -265.55 158.25 -265.55 148.15 -265.55 147.95 -265.0 147.6 -264.75 147.05 -264.4 146.55 -264.1 146.05 -264.1 145.6 -264.4 141.95 Q-263.3 142.6 -262.25 143.5 -260.7 144.65 -259.8 146.05 L-240.5 145.9 -241.55 149.9 Q-246.45 150.7 -249.05 154.4 -251.4 157.75 -249.75 161.25 L-248.8 163.05 -247.2 165.45 -247.15 166.0 -244.5 165.85 -243.75 165.6 -243.4 165.55 -243.55 167.15 -244.35 168.25 -246.6 171.55 Q-247.0 172.3 -245.2 172.3 -256.35 172.8 -265.55 172.8 M-264.55 0.3 L-264.45 -0.3 -259.45 -0.5 -259.0 -0.35 -258.2 0.15 -264.55 0.3 M-242.6 12.45 L-242.7 14.95 -243.05 28.95 Q-246.25 27.55 -248.4 25.0 -251.0 17.8 -243.05 12.7 L-242.6 12.45 M-243.25 37.3 L-243.45 55.7 Q-251.7 53.2 -258.65 49.3 L-260.7 48.0 Q-263.5 46.4 -262.5 43.55 L-262.15 42.0 Q-254.0 36.5 -243.25 37.3 M-54.5 185.55 L-47.7 185.5 -35.95 188.5 -12.9 187.35 Q-17.3 189.9 -20.8 193.4 L-22.95 195.9 Q-25.0 194.75 -27.8 194.7 L-46.15 194.1 Q-59.0 194.55 -72.45 196.25 -143.25 205.45 -214.55 204.4 -215.8 203.55 -216.95 203.05 -218.65 202.35 -220.2 202.0 L-219.65 199.95 Q-203.3 186.4 -182.7 190.45 -182.15 190.6 -181.65 191.0 -181.2 191.25 -180.9 191.65 L-180.55 192.4 -179.9 193.2 -179.55 194.1 -59.95 189.65 Q-58.2 186.7 -54.5 185.55 M249.8 120.9 L249.25 116.9 248.2 108.65 248.25 108.6 251.75 109.4 Q255.75 117.65 249.8 120.9 M-204.4 -179.1 L-206.8 -179.45 -204.75 -179.65 -191.3 -180.45 -189.9 -180.45 -176.45 -180.45 -176.45 -181.35 -162.7 -182.0 Q-151.95 -180.4 -141.1 -175.85 L-159.6 -175.85 Q-184.7 -179.7 -204.4 -179.1 M-250.05 -137.0 Q-246.95 -138.65 -243.6 -139.95 L-243.55 -134.65 -251.55 -135.2 -251.1 -136.55 -250.05 -137.0 M-262.4 -120.0 L-243.25 -118.5 -243.0 -106.8 -250.85 -108.15 Q-265.55 -110.7 -262.4 -120.0 M-256.95 -38.55 Q-253.15 -42.45 -245.0 -43.35 L-241.85 -42.9 -241.75 -26.0 -241.75 -24.55 -246.9 -25.85 -256.95 -28.55 Q-260.1 -29.5 -259.65 -32.15 -259.25 -36.0 -256.95 -38.55 M-263.55 -22.35 L-241.8 -19.8 -242.0 -9.25 Q-243.2 -8.05 -243.95 -6.35 L-244.4 -6.55 -246.2 -6.9 -253.6 -6.55 -254.05 -6.8 -255.15 -7.25 -256.95 -7.45 -259.2 -7.5 -259.2 -7.6 -261.05 -8.0 -261.05 -8.4 -261.35 -8.95 -261.5 -9.4 -261.8 -9.95 -261.95 -10.4 -262.25 -10.95 -262.7 -11.45 -263.15 -11.95 -264.1 -12.7 -264.1 -16.15 -263.85 -17.7 Q-263.4 -20.2 -263.55 -22.35" fill="#89681d" fill-rule="evenodd" stroke="none"/>
    <path d="M-39.5 -181.75 L-32.15 -179.6 -31.85 -178.95 -141.1 -175.85 Q-151.95 -180.4 -162.7 -182.0 L-176.45 -181.35 -191.3 -180.45 -204.75 -179.65 -207.35 -179.6 -206.8 -179.45 -204.4 -179.1 Q-224.15 -178.45 -233.0 -176.3 L-234.1 -177.2 Q-238.05 -180.1 -240.8 -177.95 -243.85 -175.55 -243.85 -167.75 L-245.0 -167.9 -267.35 -170.9 -267.35 -172.35 -267.35 -173.9 -267.35 -174.95 -267.35 -175.95 -267.35 -176.95 -267.6 -177.4 -267.6 -177.95 -267.8 -178.45 -268.05 -178.95 -268.5 -179.45 -268.6 -179.7 -268.6 -199.1 -171.95 -199.1 Q-169.9 -199.9 -168.2 -199.9 -165.5 -199.9 -163.25 -199.1 L-157.85 -199.1 -156.7 -198.95 -151.6 -198.7 -140.2 -198.95 -139.95 -199.1 -136.55 -199.1 -110.1 -200.85 -109.1 -200.95 -109.1 -201.05 -102.2 -201.05 -107.1 -198.5 Q-108.65 -195.25 -107.05 -192.25 -104.45 -187.2 -97.15 -187.95 L-70.35 -190.5 Q-72.35 -188.75 -76.0 -187.7 L-71.1 -187.25 Q-54.5 -185.7 -39.5 -181.75 M158.2 -180.2 L163.3 -180.8 164.8 -180.95 189.9 -183.9 Q218.95 -187.5 244.85 -195.55 L246.55 -195.8 248.65 -196.0 248.65 -196.05 Q252.05 -196.0 254.75 -194.45 L257.25 -192.95 Q258.05 -190.5 258.3 -188.2 258.75 -180.25 249.25 -176.4 L249.25 -176.65 249.05 -178.9 248.3 -180.05 247.35 -180.5 246.75 -180.65 223.75 -180.8 158.2 -180.2 M274.2 -136.75 L275.45 -110.95 Q272.55 -109.4 269.45 -108.25 263.8 -106.1 257.35 -104.95 L251.45 -104.0 253.25 -117.1 253.85 -121.8 Q260.65 -123.65 267.1 -126.2 L266.65 -127.75 Q266.4 -128.9 266.65 -130.0 L267.1 -132.4 268.65 -133.85 Q270.15 -135.4 272.3 -136.2 L273.65 -136.75 274.2 -136.75 M278.15 194.75 L278.2 196.4 Q278.5 201.45 276.15 205.85 L275.45 207.25 275.15 207.45 Q257.25 206.9 239.4 206.85 229.1 201.25 215.2 203.75 L206.95 202.15 206.5 202.2 205.4 201.4 204.0 200.45 Q203.55 200.1 202.9 199.9 L201.1 199.55 201.1 199.65 199.15 199.9 198.25 200.35 197.55 200.9 197.15 201.4 196.45 202.4 196.0 202.95 195.75 203.4 195.75 203.9 195.55 204.4 195.45 204.7 195.1 203.95 194.75 204.5 194.4 205.7 194.05 206.0 193.65 206.25 193.4 206.5 193.4 206.6 183.0 205.9 Q175.0 205.35 170.55 208.4 L151.9 208.4 Q128.95 205.55 106.35 201.5 97.45 203.7 91.8 199.45 L91.55 199.25 90.3 198.2 Q87.35 195.2 88.5 191.45 L88.85 190.65 Q89.65 189.5 90.75 188.7 93.35 186.6 97.2 186.0 L106.0 184.8 136.55 189.85 Q170.8 194.75 205.95 196.85 L217.45 197.35 222.8 197.6 263.5 196.35 278.15 194.75 M-26.95 208.4 L-38.1 208.4 -76.1 207.25 -94.4 207.3 Q-134.9 207.3 -175.45 206.6 L-232.75 205.55 -232.65 205.45 Q-227.45 200.15 -220.2 202.0 -218.65 202.35 -216.95 203.05 -215.8 203.55 -214.55 204.4 -143.25 205.45 -72.45 196.25 -59.0 194.55 -46.15 194.1 L-27.8 194.7 Q-25.0 194.75 -22.95 195.9 L-21.15 197.15 Q-14.85 206.0 -26.95 208.4 M-267.35 83.65 L-267.35 78.3 -267.35 65.1 -243.4 64.2 Q-243.25 74.15 -242.75 82.1 L-253.15 82.85 -267.35 83.65 M-241.55 149.9 Q-242.35 152.25 -243.35 164.8 L-243.4 165.55 -243.75 165.6 -244.5 165.85 -247.15 166.0 -247.2 165.45 -248.8 163.05 -249.75 161.25 Q-251.4 157.75 -249.05 154.4 -246.45 150.7 -241.55 149.9 M-246.0 175.4 L-246.0 175.45 -245.05 177.3 -245.25 177.5 Q-245.6 177.55 -246.0 175.4 M249.2 106.1 L249.55 102.85 249.55 95.9 249.4 85.25 Q252.25 86.4 254.2 87.7 263.7 93.85 252.65 103.7 L251.05 104.9 249.2 106.1 M249.15 68.25 L249.0 48.85 249.65 42.75 252.65 42.35 Q265.85 46.6 267.1 52.35 268.1 57.55 259.05 64.0 254.7 67.1 249.15 68.25 M-262.15 -190.2 L-256.95 -192.45 -258.0 -192.45 -261.95 -190.8 Q-262.7 -188.95 -264.55 -187.25 L-262.7 -187.05 Q-262.75 -188.6 -262.15 -190.2 M-265.55 -136.2 L-251.55 -135.2 -243.55 -134.65 -243.25 -118.5 -262.4 -120.0 -265.55 -120.25 -265.55 -133.9 -265.55 -136.2 M-19.25 -196.05 Q-24.2 -194.2 -33.05 -194.2 L-35.85 -194.2 -19.25 -196.05" fill="#83641d" fill-rule="evenodd" stroke="none"/>
    <path d="M144.45 -201.1 Q144.55 -200.05 145.1 -198.95 145.7 -198.0 146.85 -197.4 L98.9 -199.55 98.9 -199.7 99.25 -199.9 Q102.4 -201.15 106.35 -200.55 L107.25 -200.55 113.7 -201.05 144.45 -201.1 M267.45 -171.9 Q265.25 -170.5 265.25 -169.05 L265.25 -168.5 264.7 -168.1 263.6 -167.1 263.5 -166.85 263.5 -166.55 263.5 -166.3 263.5 -166.1 263.6 -165.95 263.7 -166.1 263.95 -166.35 264.6 -166.5 265.2 -166.55 265.2 -166.65 Q267.45 -165.95 269.25 -164.55 L271.15 -163.2 272.2 -162.6 251.75 -164.2 251.75 -170.15 Q251.75 -171.25 250.85 -173.0 L250.2 -174.2 Q259.1 -173.7 267.45 -171.9 M276.15 -145.3 L275.7 -141.45 275.35 -140.9 274.8 -140.8 274.2 -140.65 274.0 -140.65 274.2 -136.75 273.65 -136.75 272.3 -136.2 Q270.15 -135.4 268.65 -133.85 L267.1 -132.4 266.65 -130.0 Q266.4 -128.9 266.65 -127.75 L267.1 -126.2 Q260.65 -123.65 253.85 -121.8 254.5 -129.2 254.5 -141.35 L254.05 -145.9 Q263.8 -145.45 273.65 -145.35 L276.15 -145.3 M276.6 -28.55 L276.15 -1.45 270.5 -1.2 255.8 -0.8 255.7 -2.9 Q255.45 -6.3 254.0 -9.45 L254.0 -9.55 253.85 -11.3 253.7 -12.4 252.25 -19.55 250.5 -27.55 250.3 -29.0 276.6 -28.55 M276.05 1.95 L275.55 18.55 255.2 18.15 255.5 7.6 255.8 1.45 257.6 1.45 276.05 1.95 M274.7 37.9 L274.0 52.25 267.1 52.35 Q265.85 46.6 252.65 42.35 L249.65 42.75 249.9 35.9 249.9 35.25 255.7 35.15 Q265.65 35.85 274.7 37.9 M272.95 70.95 L272.95 85.6 256.25 87.4 254.2 87.7 Q252.25 86.4 249.4 85.25 L249.2 73.2 272.95 70.95 M275.1 129.6 L275.15 130.65 Q263.45 129.8 251.15 130.6 L251.05 129.8 Q263.1 129.95 275.1 129.6 M272.95 167.2 L272.95 178.85 274.65 178.6 276.5 178.9 276.85 179.2 277.25 179.75 277.3 179.95 277.6 184.0 Q242.2 186.25 207.75 182.05 L227.9 181.7 237.6 181.35 Q245.05 181.35 247.15 176.2 250.35 175.55 252.15 172.85 253.6 170.7 253.85 168.15 L272.95 167.2 M81.4 204.35 Q80.55 204.25 82.9 205.15 L10.35 202.7 8.6 202.25 18.5 197.95 12.75 197.3 7.8 196.65 Q8.15 193.85 6.3 189.9 L4.25 188.55 3.5 187.9 1.1 186.35 Q-0.85 185.3 -3.0 185.0 L51.05 183.9 Q55.3 185.4 68.25 185.4 L84.2 184.5 89.45 184.2 89.75 186.15 90.75 188.7 Q89.65 189.5 88.85 190.65 L88.5 191.45 Q87.35 195.2 90.3 198.2 L91.55 199.25 87.15 199.05 88.25 199.55 77.85 199.85 Q73.75 200.05 81.4 204.35 M-232.75 205.55 L-256.15 205.15 -257.85 205.45 -268.25 203.8 -268.6 203.9 -268.6 182.7 -243.55 179.2 Q-240.95 181.85 -236.75 181.85 L-233.9 181.65 Q-232.0 182.6 -229.8 183.2 L-229.25 184.0 -226.3 184.0 Q-220.75 184.9 -213.5 184.3 L-208.8 183.8 -157.3 183.0 -146.85 183.7 -118.75 185.75 -54.5 185.55 Q-58.2 186.7 -59.95 189.65 L-179.55 194.1 -179.9 193.2 -180.55 192.4 -180.9 191.65 Q-181.2 191.25 -181.65 191.0 -182.15 190.6 -182.7 190.45 -203.3 186.4 -219.65 199.95 L-220.2 202.0 Q-227.45 200.15 -232.65 205.45 L-232.75 205.55 M-265.55 174.05 L-265.55 172.8 Q-256.35 172.8 -245.2 172.3 L-244.9 172.25 Q-246.75 173.45 -246.5 174.1 L-265.55 174.05 M-267.45 114.0 L-268.25 112.45 -268.25 112.25 -268.25 111.7 -268.25 110.95 -268.05 110.7 -267.5 110.25 -267.35 110.1 -268.85 94.35 -268.7 93.95 -268.5 93.55 Q-267.0 94.1 -265.3 95.0 L-264.55 95.8 -264.2 96.55 -263.65 97.35 -263.2 98.1 -263.2 98.6 -241.0 98.35 -241.0 102.8 -240.6 109.5 -240.35 116.2 Q-254.0 115.7 -267.45 114.0 M-267.35 65.1 L-267.35 64.6 -267.35 60.35 -243.4 63.45 -243.4 64.2 -267.35 65.1 M-267.35 49.3 L-267.35 46.65 -266.25 37.95 Q-255.5 32.85 -243.1 30.8 L-243.25 37.3 Q-254.0 36.5 -262.15 42.0 L-262.5 43.55 Q-263.5 46.4 -260.7 48.0 L-258.65 49.3 -264.75 49.7 -267.35 49.3 M-265.8 32.7 Q-265.35 25.95 -265.3 19.25 L-260.9 19.75 Q-259.65 19.9 -258.35 20.7 -251.85 29.85 -265.35 32.55 L-265.8 32.7 M-47.7 185.5 L-6.55 185.05 -7.05 185.05 -8.85 185.35 Q-11.0 186.2 -12.9 187.35 L-35.95 188.5 -47.7 185.5 M4.75 -200.85 L4.25 -199.1 15.15 -199.1 16.6 -199.6 17.25 -199.15 Q20.3 -194.5 18.85 -191.55 L-57.65 -191.85 -50.1 -192.65 -35.85 -194.2 -33.05 -194.2 Q-24.2 -194.2 -19.25 -196.05 L-17.55 -196.25 Q-8.85 -197.35 -7.15 -201.05 L4.75 -200.85 M169.0 187.75 Q187.05 190.85 204.15 196.05 L205.95 196.85 Q170.8 194.75 136.55 189.85 L169.0 187.75 M222.8 197.6 Q222.9 196.65 223.25 195.85 224.15 194.55 225.7 193.4 227.45 192.1 229.8 191.45 L231.4 191.25 233.5 191.05 233.5 191.0 Q248.45 194.1 263.5 196.35 L222.8 197.6 M44.75 186.05 L42.45 186.15 36.95 189.05 Q45.1 186.3 44.75 186.05 M-245.0 -167.9 L-243.85 -167.75 -243.7 -147.9 -256.65 -148.05 Q-261.4 -145.8 -265.55 -145.25 L-265.55 -148.6 -265.55 -160.2 -265.8 -160.75 -266.0 -161.25 -266.25 -161.75 -266.45 -162.25 -266.45 -162.8 -266.45 -163.8 -266.45 -164.25 -266.45 -164.8 -266.45 -165.3 -266.45 -165.8 -266.45 -166.3 -266.45 -166.85 -266.6 -167.15 Q-258.2 -167.55 -249.75 -166.0 -247.15 -165.55 -245.1 -164.25 L-244.1 -164.25 Q-245.1 -166.0 -245.0 -167.9 M-191.3 -180.45 L-176.45 -181.35 -176.45 -180.45 -189.9 -180.45 -191.3 -180.45 M-262.15 -190.2 Q-262.75 -188.6 -262.7 -187.05 L-264.55 -187.25 Q-262.7 -188.95 -261.95 -190.8 L-258.0 -192.45 -256.95 -192.45 -262.15 -190.2 M-250.05 -137.0 L-251.1 -136.55 -251.55 -135.2 -265.55 -136.2 -265.55 -137.0 -250.05 -137.0 M-265.55 -120.25 L-262.4 -120.0 Q-265.55 -110.7 -250.85 -108.15 L-243.0 -106.8 -243.0 -105.5 Q-247.4 -103.9 -254.6 -103.65 L-266.15 -103.35 -267.0 -106.7 -266.7 -107.1 -266.45 -107.6 -266.25 -108.15 -266.0 -108.6 -265.8 -109.15 -265.55 -109.6 -265.55 -119.25 -265.55 -120.25 M-265.3 -90.7 L-247.7 -92.9 -242.7 -93.15 -242.55 -86.05 Q-244.95 -84.7 -247.0 -82.8 L-247.45 -81.25 Q-248.45 -75.0 -242.3 -73.2 L-242.05 -59.95 Q-253.7 -59.65 -265.0 -59.8 -264.65 -75.2 -265.3 -90.7 M-263.05 -52.85 L-258.65 -53.15 -242.0 -54.3 -241.85 -42.9 -245.0 -43.35 Q-253.15 -42.45 -256.95 -38.55 L-264.2 -38.3 Q-264.0 -43.7 -263.2 -49.1 -262.95 -51.1 -263.05 -52.85 M-241.75 -23.55 Q-244.45 -24.55 -246.9 -25.85 L-241.75 -24.55 -241.75 -23.55" fill="#8b6a1d" fill-rule="evenodd" stroke="none"/>
    <path d="M144.45 -201.1 L168.85 -201.3 Q176.2 -201.4 183.2 -200.15 L190.25 -199.1 207.75 -199.1 Q208.3 -199.7 209.0 -200.1 L215.05 -200.15 215.55 -200.1 225.3 -199.1 225.6 -199.0 226.5 -198.95 233.4 -198.55 235.7 -198.5 236.15 -198.5 236.9 -198.5 250.0 -199.1 272.95 -199.1 272.95 -196.65 268.2 -197.35 268.1 -197.35 Q267.3 -191.0 258.3 -188.2 258.05 -190.5 257.25 -192.95 L254.75 -194.45 Q252.05 -196.0 248.65 -196.05 L248.65 -196.0 246.55 -195.8 244.85 -195.55 Q218.95 -187.5 189.9 -183.9 L164.8 -180.95 161.15 -181.4 163.3 -180.8 158.2 -180.2 147.25 -179.95 140.95 -179.25 141.05 -179.05 126.75 -179.1 -31.85 -178.95 -32.15 -179.6 -39.5 -181.75 Q24.15 -184.85 88.15 -183.7 L105.25 -184.45 Q71.65 -184.15 38.2 -185.3 29.7 -185.65 29.35 -191.95 L29.35 -192.25 Q29.35 -193.8 29.95 -195.35 L30.7 -196.05 31.4 -196.8 32.3 -197.6 33.45 -198.35 34.15 -198.7 40.55 -198.15 41.35 -198.15 43.05 -198.0 46.9 -197.85 48.25 -198.05 49.15 -198.4 50.05 -198.95 50.2 -199.1 98.55 -199.1 98.75 -199.4 98.9 -199.55 146.85 -197.4 Q145.7 -198.0 145.1 -198.95 144.55 -200.05 144.45 -201.1 M272.2 -162.6 Q276.0 -160.15 276.25 -156.55 276.6 -150.85 276.15 -145.3 L273.65 -145.35 Q263.8 -145.45 254.05 -145.9 253.35 -149.3 251.7 -152.7 L251.75 -153.65 Q251.95 -156.7 251.75 -160.25 L251.75 -164.2 272.2 -162.6 M275.55 -108.15 L276.0 -93.3 250.25 -92.45 251.45 -104.0 257.35 -104.95 Q263.8 -106.1 269.45 -108.25 L275.55 -108.15 M276.15 -89.05 L276.5 -71.15 270.5 -71.3 Q272.3 -63.85 266.85 -59.55 L267.35 -58.65 Q269.35 -58.0 270.95 -56.7 273.3 -54.3 273.3 -51.4 273.4 -48.5 271.5 -46.2 L274.65 -46.4 276.7 -46.5 276.6 -28.55 250.3 -29.0 Q249.5 -34.45 249.5 -36.55 L249.25 -38.4 Q250.75 -43.45 250.75 -51.75 250.75 -56.9 249.95 -69.65 249.25 -80.55 249.6 -84.75 L250.05 -90.25 276.15 -89.05 M275.45 22.7 L274.7 37.9 Q265.65 35.85 255.7 35.15 L249.85 34.8 249.65 33.15 Q250.4 34.25 251.5 34.25 254.0 34.25 255.0 21.1 L255.05 20.85 275.45 22.7 M272.95 85.6 L272.95 103.5 251.05 104.9 252.65 103.7 Q263.7 93.85 254.2 87.7 L256.25 87.4 272.95 85.6 M275.15 130.65 L275.15 131.6 275.1 134.9 Q276.85 138.3 276.05 142.1 L275.15 145.8 274.9 146.35 274.35 146.55 273.75 146.8 273.75 147.05 273.65 147.25 273.45 147.55 273.3 147.8 273.3 147.9 273.55 148.1 272.95 148.8 272.95 149.15 251.85 149.05 251.6 146.5 Q252.05 143.25 251.95 139.2 L251.75 135.1 251.15 130.6 Q263.45 129.8 275.15 130.65 M0.8 205.5 L-1.25 206.3 -3.1 207.05 -8.3 207.0 -11.35 206.6 -17.55 206.3 -17.65 206.4 -19.6 206.65 -20.95 207.1 -22.3 207.65 -23.55 208.15 -23.65 208.15 -23.9 208.4 -26.95 208.4 Q-14.85 206.0 -21.15 197.15 L-22.95 195.9 -20.8 193.4 Q-17.3 189.9 -12.9 187.35 -11.0 186.2 -8.85 185.35 L-7.05 185.05 -6.55 185.05 -3.0 185.0 Q-0.85 185.3 1.1 186.35 L3.5 187.9 4.25 188.55 Q7.45 192.8 4.25 197.15 1.35 201.1 -1.95 204.9 L0.8 205.5 M-244.65 -0.15 L-244.05 -0.55 -243.3 -1.05 -242.6 -1.5 -242.3 -2.0 -242.2 -2.15 -242.35 3.35 Q-244.15 1.85 -244.65 -0.15 M89.45 184.2 L101.0 183.6 178.5 182.5 180.2 183.05 180.85 182.45 181.0 182.45 Q181.15 183.45 183.5 184.8 185.1 185.75 187.1 186.25 L177.45 187.35 169.0 187.75 136.55 189.85 106.0 184.8 97.2 186.0 Q93.35 186.6 90.75 188.7 L89.75 186.15 89.45 184.2 M-242.3 -73.2 Q-248.45 -75.0 -247.45 -81.25 L-247.0 -82.8 Q-244.95 -84.7 -242.55 -86.05 L-242.3 -73.2 M-243.95 -6.35 Q-243.2 -8.05 -242.0 -9.25 L-242.15 -4.8 -242.3 -5.1 -242.6 -5.55 -243.3 -6.05 -243.95 -6.35" fill="#87671d" fill-rule="evenodd" stroke="none"/>
    <path d="M68.2 -199.1 Q68.2 -198.65 68.35 -198.4 L68.65 -197.9 69.25 -197.15 78.65 -196.6 88.4 -196.4 Q113.45 -196.4 120.7 -198.45 L125.75 -199.85 136.65 -200.5 Q137.4 -200.5 140.45 -199.5 143.5 -198.55 144.65 -198.55 224.0 -198.0 232.15 -197.65 L257.65 -196.65 Q259.1 -196.65 260.25 -198.05 L260.9 -199.1 272.95 -199.1 272.95 -174.25 Q270.85 -173.65 269.2 -172.85 L268.5 -173.9 Q267.4 -175.05 265.9 -174.35 262.15 -172.65 262.15 -164.25 261.9 -162.6 262.25 -161.1 262.95 -158.15 266.15 -158.15 267.3 -158.15 268.2 -159.05 269.15 -159.95 269.15 -161.1 L268.65 -162.6 Q268.15 -163.45 268.15 -164.1 L268.35 -165.15 269.25 -164.55 271.15 -163.2 272.2 -162.6 Q276.0 -160.15 276.25 -156.55 276.6 -150.85 276.15 -145.3 L275.7 -141.45 275.35 -140.9 274.8 -140.8 274.2 -140.65 274.0 -140.65 274.2 -136.75 275.45 -110.95 275.55 -108.15 276.0 -93.3 276.15 -89.05 276.5 -71.15 276.7 -46.5 276.6 -28.55 276.15 -1.45 276.05 1.95 275.55 18.55 275.45 22.7 274.7 37.9 274.0 52.25 272.95 69.95 272.95 109.6 272.55 109.75 271.95 110.3 271.15 110.15 271.15 110.25 271.0 110.3 269.9 108.65 Q268.25 106.4 267.15 106.5 265.9 106.55 265.9 109.65 265.9 110.9 266.9 113.9 267.9 116.9 267.9 118.5 L267.35 124.0 Q267.45 127.75 270.9 127.75 272.2 127.75 272.95 126.85 L272.95 126.95 273.85 127.3 274.7 128.1 275.1 129.6 275.15 130.65 275.15 131.6 275.1 134.9 Q276.85 138.3 276.05 142.1 L275.15 145.8 274.9 146.35 274.35 146.55 273.75 146.8 273.75 147.05 273.65 147.25 273.45 147.55 273.3 147.8 273.3 147.9 273.55 148.1 272.95 148.8 272.95 178.85 274.65 178.6 276.5 178.9 276.85 179.2 277.25 179.75 277.3 179.95 277.6 184.0 278.15 194.75 278.2 196.4 Q278.5 201.45 276.15 205.85 L275.45 207.25 275.15 207.45 Q257.25 206.9 239.4 206.85 229.1 201.25 215.2 203.75 L206.95 202.15 206.5 202.2 205.4 201.4 204.0 200.45 Q203.55 200.1 202.9 199.9 L201.1 199.55 201.1 199.65 199.15 199.9 198.25 200.35 197.55 200.9 197.15 201.4 196.45 202.4 196.0 202.95 195.75 203.4 195.75 203.9 195.55 204.4 195.45 204.7 195.1 203.95 194.75 204.5 194.4 205.7 194.05 206.0 193.65 206.25 193.4 206.5 193.4 206.6 183.0 205.9 Q175.0 205.35 170.55 208.4 L116.5 208.4 Q115.95 208.65 115.5 208.95 L99.6 208.15 94.95 207.95 94.45 207.45 Q92.75 206.0 89.0 206.0 23.15 205.9 7.1 202.85 L-1.25 206.3 -3.1 207.05 -8.3 207.0 -11.35 206.6 -17.55 206.3 -17.65 206.4 -19.6 206.65 -20.95 207.1 -22.3 207.65 -23.55 208.15 -23.65 208.15 -23.9 208.4 -38.1 208.4 -76.1 207.25 -94.4 207.3 Q-134.9 207.3 -175.45 206.6 L-232.75 205.55 -256.15 205.15 -257.85 205.45 -268.25 203.8 -268.6 203.9 -268.6 180.8 -268.25 180.55 -267.6 180.0 -267.15 179.5 -266.7 179.0 -266.45 178.5 -266.25 177.95 -266.0 177.5 -265.8 176.95 -265.55 176.5 -265.55 168.4 -265.55 164.15 Q-264.3 164.0 -263.25 162.4 -262.3 161.0 -262.3 160.1 -263.3 154.55 -263.3 153.4 -263.3 150.85 -262.05 146.05 -260.85 141.25 -260.85 138.9 L-261.35 120.75 Q-261.35 114.4 -262.0 111.4 L-262.9 109.7 -262.85 109.25 -262.85 103.25 -262.9 100.1 -262.85 96.15 Q-262.7 94.7 -263.5 92.15 L-264.35 88.65 Q-264.35 82.8 -263.1 66.0 -261.9 49.2 -261.9 46.6 L-262.4 33.15 Q-262.45 30.45 -261.95 25.0 L-261.4 19.25 -261.5 7.65 -261.0 7.65 Q-253.5 7.65 -246.35 2.25 L-242.2 -1.25 -242.7 14.95 Q-243.6 44.85 -243.45 61.25 -243.25 84.75 -241.0 97.95 L-241.0 102.8 -240.6 109.5 -240.2 121.2 Q-239.85 132.55 -239.85 138.35 -239.6 146.6 -243.5 154.6 -247.5 162.75 -247.5 168.75 L-247.3 170.95 Q-246.9 173.4 -246.0 175.45 -243.25 181.85 -236.75 181.85 L-233.85 181.65 Q-226.25 185.35 -213.5 184.3 L-199.75 182.45 -189.25 181.25 -146.85 183.7 -118.75 185.75 Q-21.85 185.75 51.05 183.9 55.3 185.4 68.25 185.4 L84.2 184.5 101.0 183.6 178.5 182.5 179.3 182.75 179.05 183.25 179.3 184.85 Q180.0 186.3 182.3 186.3 183.3 186.3 184.7 185.45 187.8 186.8 192.25 186.8 195.15 186.8 197.5 183.3 L198.2 182.2 227.9 181.7 237.6 181.35 Q245.05 181.35 247.15 176.2 250.35 175.55 252.15 172.85 253.85 170.35 253.85 167.25 L252.85 158.05 Q251.9 150.5 251.6 146.5 252.05 143.2 251.95 139.2 L251.75 135.1 249.25 116.9 248.2 108.65 Q249.25 107.3 249.55 102.85 L249.55 95.9 Q249.0 64.6 249.0 48.85 250.05 40.55 249.9 35.9 L249.65 33.15 Q250.4 34.25 251.5 34.25 254.0 34.25 255.0 21.1 255.5 14.5 255.5 7.6 255.95 0.5 255.7 -2.9 255.45 -6.3 254.0 -9.45 L254.0 -9.55 Q254.0 -11.5 252.25 -19.55 L250.5 -27.55 Q249.5 -34.2 249.5 -36.55 L249.25 -38.4 Q250.75 -43.45 250.75 -51.75 250.75 -56.9 249.95 -69.65 249.25 -80.55 249.6 -84.75 251.05 -103.25 253.25 -117.1 254.5 -124.8 254.5 -141.35 254.5 -147.0 251.7 -152.7 L251.75 -153.65 Q251.95 -156.7 251.75 -160.25 L251.75 -170.15 Q251.75 -171.25 250.85 -173.0 L249.5 -175.4 249.25 -175.7 249.25 -176.65 249.05 -178.9 248.3 -180.05 247.35 -180.5 246.75 -180.65 223.75 -180.8 Q158.05 -180.4 147.25 -179.95 L140.95 -179.25 141.05 -179.05 126.75 -179.1 -154.1 -178.85 Q-215.3 -180.6 -233.0 -176.3 L-234.1 -177.2 Q-238.05 -180.1 -240.8 -177.95 -243.85 -175.55 -243.85 -167.75 -243.85 -144.15 -242.8 -96.95 -241.75 -49.8 -241.75 -26.0 -241.75 -20.35 -242.1 -6.5 L-242.75 -6.55 -243.9 -6.35 -243.95 -6.35 -244.4 -6.55 -246.2 -6.9 -253.6 -6.55 -254.05 -6.8 -255.15 -7.25 -256.4 -7.4 Q-254.0 -8.0 -254.0 -10.25 -254.0 -11.65 -255.05 -12.25 -255.45 -12.5 -257.5 -13.0 -261.1 -13.9 -261.5 -17.65 L-261.6 -22.1 -261.5 -25.5 -260.5 -41.1 -261.0 -45.6 -261.5 -50.1 Q-261.5 -55.95 -262.4 -59.3 -261.05 -59.55 -260.45 -61.0 -260.0 -62.0 -260.0 -63.1 -260.0 -71.3 -260.55 -83.3 L-261.55 -103.75 -262.55 -124.6 Q-263.1 -136.8 -263.1 -145.25 L-262.1 -162.65 Q-262.1 -165.6 -263.25 -166.95 -264.0 -167.8 -265.0 -167.65 -265.6 -174.9 -265.6 -179.15 L-265.85 -186.4 -266.1 -193.4 -266.1 -194.3 Q-265.75 -194.35 -265.8 -194.45 L-265.8 -194.95 -253.85 -195.65 -245.6 -195.15 -241.15 -194.65 -236.85 -194.15 Q-231.45 -194.15 -229.95 -194.95 -229.1 -195.45 -229.1 -197.1 -229.1 -197.95 -233.95 -199.1 L-171.95 -199.1 -169.5 -199.8 -169.65 -199.75 Q-171.6 -199.15 -171.6 -197.4 -171.6 -196.65 -170.1 -196.05 L-170.15 -196.05 Q-171.1 -195.35 -171.1 -193.9 -171.2 -193.05 -170.85 -192.3 -170.25 -190.8 -168.1 -190.8 L-151.55 -191.7 Q-149.7 -192.8 -147.6 -193.25 L-142.4 -193.95 -125.6 -193.85 Q-119.6 -193.85 -117.95 -194.75 L-117.5 -195.15 -115.35 -195.2 -90.6 -195.55 Q-76.45 -197.45 -69.45 -198.9 -59.6 -200.95 -59.6 -202.85 L-59.85 -204.0 -58.6 -203.85 -50.65 -203.25 -50.0 -202.95 Q-49.85 -203.0 -49.55 -203.2 -36.7 -202.55 -23.5 -203.35 L-21.55 -203.05 -21.6 -202.55 Q-21.6 -202.2 -17.85 -199.0 L-17.2 -197.95 -17.0 -197.1 -16.35 -196.0 Q-15.7 -194.8 -16.05 -194.0 L6.0 -195.0 28.2 -195.85 Q29.6 -196.2 29.5 -196.8 L29.15 -197.9 28.95 -199.2 34.15 -198.7 40.55 -198.15 41.35 -198.15 43.05 -198.0 46.9 -197.85 48.25 -198.05 49.15 -198.4 50.05 -198.95 50.2 -199.1 68.2 -199.1 M-263.65 -0.3 L-259.45 -0.5 -259.0 -0.35 -258.2 0.15 -258.1 0.15 -254.6 0.25 Q-258.05 1.8 -261.85 2.1 L-262.3 2.15 Q-262.85 0.85 -263.65 -0.3 M-4.55 -202.15 L4.85 -202.1 4.85 -202.05 4.75 -200.9 -4.55 -202.15 M17.45 -199.95 L20.1 -200.95 24.75 -200.45 Q25.35 -200.15 26.0 -199.95 L23.5 -199.9 17.45 -199.95 M44.75 186.05 L42.45 186.15 40.15 187.4 44.75 186.05" fill="url(#gradient0)" fill-rule="evenodd" stroke="none"/>
    <path d="M68.2 -199.1 L68.15 -199.6 68.15 -199.7 73.75 -199.5 Q88.0 -199.5 100.25 -202.8 L104.5 -204.05 129.65 -206.3 Q152.65 -205.55 179.4 -204.95 L183.8 -203.5 Q194.45 -200.1 202.75 -200.1 258.3 -200.35 260.7 -200.75 L261.15 -200.1 260.9 -199.1 260.25 -198.05 Q259.1 -196.65 257.65 -196.65 L232.15 -197.65 Q224.0 -198.0 144.65 -198.55 143.5 -198.55 140.45 -199.5 137.4 -200.5 136.65 -200.5 L125.75 -199.85 120.7 -198.45 Q113.45 -196.4 88.4 -196.4 L78.65 -196.6 69.25 -197.15 68.65 -197.9 68.35 -198.4 Q68.2 -198.65 68.2 -199.1 M269.2 -172.85 L268.6 -172.6 Q265.25 -170.85 265.25 -169.05 265.2 -168.25 265.5 -167.55 266.05 -166.15 267.75 -166.15 L268.85 -166.55 268.35 -165.15 268.15 -164.1 Q268.15 -163.45 268.65 -162.6 L269.15 -161.1 Q269.15 -159.95 268.2 -159.05 267.3 -158.15 266.15 -158.15 262.95 -158.15 262.25 -161.1 261.9 -162.6 262.15 -164.25 262.15 -172.65 265.9 -174.35 267.4 -175.05 268.5 -173.9 L269.2 -172.85 M271.0 110.3 Q273.9 114.85 273.9 119.75 L273.9 124.25 Q273.65 125.95 272.95 126.85 272.2 127.75 270.9 127.75 267.45 127.75 267.35 124.0 L267.9 118.5 Q267.9 116.9 266.9 113.9 265.9 110.9 265.9 109.65 265.9 106.55 267.15 106.5 268.25 106.4 269.9 108.65 L271.0 110.3 M-169.5 -199.8 L-154.1 -200.75 -150.0 -200.7 -124.25 -202.85 -72.1 -205.8 Q-64.0 -206.95 -61.05 -205.15 -60.25 -204.65 -59.85 -204.0 L-59.6 -202.85 Q-59.6 -200.95 -69.45 -198.9 -76.45 -197.45 -90.6 -195.55 L-115.35 -195.2 -117.5 -195.15 -117.95 -194.75 Q-119.6 -193.85 -125.6 -193.85 L-142.4 -193.95 -147.6 -193.25 Q-149.7 -192.8 -151.55 -191.7 L-168.1 -190.8 Q-170.25 -190.8 -170.85 -192.3 -171.2 -193.05 -171.1 -193.9 -171.1 -195.35 -170.15 -196.05 L-170.1 -196.05 Q-171.6 -196.65 -171.6 -197.4 -171.6 -199.15 -169.65 -199.75 L-169.5 -199.8 M-21.55 -203.05 L-10.05 -202.5 -6.85 -202.5 -4.55 -202.15 4.75 -200.9 17.45 -199.95 23.5 -199.9 26.0 -199.95 28.25 -199.85 28.95 -199.2 29.15 -197.9 29.5 -196.8 Q29.6 -196.2 28.2 -195.85 L6.0 -195.0 -16.05 -194.0 Q-15.7 -194.8 -16.35 -196.0 L-17.0 -197.1 -17.2 -197.95 -17.85 -199.0 Q-21.6 -202.2 -21.6 -202.55 L-21.55 -203.05" fill="#90773f" fill-rule="evenodd" stroke="none"/>
    <path d="M179.3 182.75 L179.45 182.45 181.0 182.45 Q181.15 183.45 183.5 184.8 L184.7 185.45 Q183.3 186.3 182.3 186.3 180.0 186.3 179.3 184.85 L179.05 183.25 179.3 182.75" fill="#7b632c" fill-rule="evenodd" stroke="none"/>
    <path d="M-265.55 164.15 L-265.8 164.15 -267.0 163.85 -267.0 159.85 -267.0 150.5 -267.2 149.4 Q-266.3 148.9 -266.05 147.65 L-266.0 144.4 Q-266.0 139.7 -267.5 129.7 -269.0 119.65 -269.0 113.5 -268.4 106.95 -268.7 103.8 L-268.85 102.75 -268.85 96.9 Q-268.85 95.55 -269.6 93.0 -270.35 90.45 -270.35 88.6 L-268.85 55.45 -267.4 18.65 -267.5 9.5 Q-267.5 6.55 -268.5 4.1 -269.5 1.7 -269.5 0.65 -269.5 -2.65 -268.25 -3.3 -267.15 -3.9 -265.5 -2.35 L-263.65 -0.3 Q-262.85 0.85 -262.3 2.15 L-265.3 2.45 Q-266.5 2.9 -266.5 4.55 -266.8 5.45 -266.25 6.2 -265.2 7.55 -261.5 7.65 L-261.4 19.25 -261.95 25.0 Q-262.45 30.45 -262.4 33.15 L-261.9 46.6 Q-261.9 49.2 -263.1 66.0 -264.35 82.8 -264.35 88.65 L-263.5 92.15 Q-262.7 94.7 -262.85 96.15 L-262.9 100.1 -262.85 103.25 -262.85 109.25 -262.9 109.7 -262.0 111.4 Q-261.35 114.4 -261.35 120.75 L-260.85 138.9 Q-260.85 141.25 -262.05 146.05 -263.3 150.85 -263.3 153.4 -263.3 154.55 -262.3 160.1 -262.3 161.0 -263.25 162.4 -264.3 164.0 -265.55 164.15" fill="#856d35" fill-rule="evenodd" stroke="none"/>
    <path d="M-254.6 0.25 Q-252.0 -0.95 -249.6 -2.9 -246.2 -5.65 -243.9 -6.35 L-242.75 -6.55 -242.1 -6.5 -242.2 -1.25 -246.35 2.25 Q-253.5 7.65 -261.0 7.65 L-261.5 7.65 Q-265.2 7.55 -266.25 6.2 -266.8 5.45 -266.5 4.55 -266.5 2.9 -265.3 2.45 L-262.3 2.15 -261.85 2.1 Q-258.05 1.8 -254.6 0.25 M-256.4 -7.4 L-258.25 -7.25 Q-265.95 -7.25 -267.5 -16.3 -268.25 -20.85 -267.5 -25.5 L-267.0 -33.65 -266.5 -40.75 -267.5 -53.5 Q-267.5 -62.3 -265.9 -63.35 -266.95 -67.45 -267.25 -75.6 L-267.55 -102.25 -268.55 -123.85 -269.05 -140.05 Q-270.75 -142.15 -271.1 -149.75 -271.4 -155.45 -271.25 -165.75 L-271.8 -181.85 -272.1 -192.4 Q-272.1 -193.8 -271.15 -196.05 L-269.9 -198.4 Q-268.1 -203.0 -249.6 -201.45 -242.0 -200.85 -235.5 -199.45 L-233.95 -199.1 Q-229.1 -197.95 -229.1 -197.1 -229.1 -195.45 -229.95 -194.95 -231.45 -194.15 -236.85 -194.15 L-241.15 -194.65 -245.6 -195.15 -253.85 -195.65 -265.8 -194.95 -265.8 -194.45 Q-265.75 -194.35 -266.1 -194.3 L-266.1 -193.4 -265.85 -186.4 -265.6 -179.15 Q-265.6 -174.9 -265.0 -167.65 -264.0 -167.8 -263.25 -166.95 -262.1 -165.6 -262.1 -162.65 L-263.1 -145.25 Q-263.1 -136.8 -262.55 -124.6 L-261.55 -103.75 -260.55 -83.3 Q-260.0 -71.3 -260.0 -63.1 -260.0 -62.0 -260.45 -61.0 -261.05 -59.55 -262.4 -59.3 -261.5 -55.95 -261.5 -50.1 L-261.0 -45.6 -260.5 -41.1 -261.5 -25.5 -261.6 -22.1 -261.5 -17.65 Q-261.1 -13.9 -257.5 -13.0 -255.45 -12.5 -255.05 -12.25 -254.0 -11.65 -254.0 -10.25 -254.0 -8.0 -256.4 -7.4" fill="#8e753b" fill-rule="evenodd" stroke="none"/>
    <path d="M61.25 -181.65 L61.25 -181.55 61.6 -181.25 62.35 -180.85 62.7 -180.65 63.05 -180.4 Q63.2 -180.3 63.3 -180.25 L63.75 -180.1 64.05 -180.0 64.2 -179.9 64.4 -179.8 64.55 -179.65 64.85 -179.5 65.0 -179.4 65.2 -179.25 Q65.35 -179.1 65.65 -179.05 L63.4 -179.05 63.3 -179.1 63.35 -179.05 60.35 -179.05 60.35 -179.45 60.15 -179.6 60.0 -179.7 59.8 -179.85 59.75 -180.0 59.75 -180.1 59.75 -180.2 59.65 -180.3 59.45 -180.45 59.45 -180.6 59.45 -180.75 59.45 -180.85 59.45 -181.0 59.45 -181.05 58.85 -181.25 58.55 -181.55 58.55 -181.8 58.45 -182.0 58.2 -182.3 58.1 -182.35 57.95 -182.6 57.55 -182.9 57.2 -183.15 57.2 -183.35 57.2 -183.65 57.4 -183.7 57.2 -183.85 57.2 -184.05 57.05 -184.3 56.75 -184.6 56.75 -184.85 56.3 -185.05 56.15 -185.3 55.85 -185.5 55.8 -185.6 55.7 -185.6 55.4 -185.7 55.25 -185.85 55.25 -185.9 54.95 -186.05 54.95 -186.85 54.95 -187.6 54.95 -188.1 54.95 -188.4 54.8 -188.55 54.8 -188.7 54.6 -188.75 54.55 -188.75 54.25 -188.9 54.1 -189.05 54.1 -189.1 54.0 -189.25 53.65 -189.35 53.45 -189.5 53.45 -189.65 53.35 -189.75 53.2 -189.9 53.2 -190.05 53.1 -190.1 53.0 -190.2 52.45 -190.65 51.95 -191.05 51.85 -191.1 51.85 -191.4 51.65 -191.55 51.65 -191.65 51.55 -191.8 51.4 -191.95 51.4 -192.0 51.05 -192.05 50.75 -192.35 50.5 -192.6 50.05 -192.8 50.05 -193.1 50.05 -193.6 50.05 -193.8 50.05 -194.1 50.4 -194.35 50.6 -194.5 50.6 -194.55 50.95 -194.65 50.95 -194.7 52.1 -194.65 52.3 -194.45 52.3 -194.35 52.45 -194.35 52.35 -194.45 52.35 -194.55 52.35 -194.7 52.3 -194.85 52.1 -194.95 51.95 -195.1 51.95 -195.15 51.95 -195.3 51.95 -195.45 51.95 -195.55 52.1 -195.7 52.3 -195.8 52.55 -195.8 52.55 -195.85 52.75 -195.85 53.1 -195.8 53.25 -195.65 53.35 -195.5 53.45 -195.35 53.55 -195.25 53.65 -195.1 53.7 -194.95 53.7 -194.85 53.7 -194.75 53.9 -194.65 53.9 -194.5 53.9 -194.35 53.9 -194.2 54.0 -194.1 54.1 -193.95 54.15 -193.8 54.15 -193.75 54.15 -193.6 54.15 -193.5 54.15 -193.35 54.15 -193.2 54.25 -193.1 54.45 -192.95 54.45 -192.8 54.6 -192.75 54.8 -192.6 54.9 -192.45 54.95 -192.35 55.05 -192.2 55.05 -192.05 55.35 -191.95 55.35 -191.8 55.5 -191.75 55.6 -191.6 55.8 -191.45 55.85 -191.3 55.95 -191.2 55.95 -191.05 55.95 -190.9 55.95 -190.8 Q56.05 -190.7 56.15 -190.7 L56.25 -190.6 56.3 -190.45 56.4 -190.3 56.4 -190.2 56.5 -190.05 56.6 -189.9 56.6 -189.7 56.6 -189.45 56.6 -189.05 56.6 -188.7 56.6 -188.4 56.5 -188.3 56.4 -188.15 56.3 -188.1 56.3 -187.5 56.3 -186.95 56.4 -186.45 56.4 -186.2 56.7 -186.05 57.05 -185.85 57.2 -185.8 57.2 -185.7 57.5 -185.65 57.85 -185.5 57.95 -185.4 57.95 -185.25 57.95 -185.2 57.95 -185.05 57.95 -184.9 58.1 -184.8 58.3 -184.65 58.4 -184.5 58.55 -184.35 58.75 -184.25 58.85 -184.15 58.85 -184.05 58.9 -183.9 59.0 -183.75 59.0 -183.65 59.2 -183.5 59.3 -183.35 59.3 -183.25 59.3 -183.15 59.3 -183.0 59.35 -182.9 59.45 -182.75 59.45 -182.6 59.65 -182.5 59.75 -182.35 59.75 -182.2 60.15 -182.15 60.45 -181.9 60.6 -181.9 61.0 -181.8 Q61.05 -181.75 61.25 -181.65 M53.65 -191.95 L53.65 -191.75 53.7 -191.75 53.7 -191.8 53.7 -191.95 53.65 -192.0 53.65 -191.95" fill="#000000" fill-rule="evenodd" stroke="none"/>
  </g>
  <defs>
    <linearGradient gradientTransform="matrix(0.2291, 0.2645, -0.3478, 0.1707, 2.0, 6.8)" gradientUnits="userSpaceOnUse" id="gradient0" spreadMethod="pad" x1="-819.2" x2="819.2">
      <stop offset="0.0" stop-color="#d0d0d0" stop-opacity="0.2"/>
      <stop offset="1.0" stop-color="#555555" stop-opacity="0.2627451"/>
    </linearGradient>
  </defs>
</svg>
