<?xml version="1.0" encoding="UTF-8" standalone="no"?>
<svg xmlns:ffdec="https://www.free-decompiler.com/flash" xmlns:xlink="http://www.w3.org/1999/xlink" ffdec:objectType="shape" height="88.1px" width="70.65px" xmlns="http://www.w3.org/2000/svg">
  <g transform="matrix(1.0, 0.0, 0.0, 1.0, 35.3, 44.05)">
    <path d="M-34.65 -34.4 L-33.95 -34.35 -30.75 -34.3 Q-21.85 -34.3 -14.9 -36.55 -7.95 -38.8 -0.4 -43.1 L-0.05 -43.25 0.25 -43.1 Q7.8 -38.8 14.8 -36.55 21.8 -34.3 30.75 -34.3 L34.0 -34.35 34.7 -34.4 34.65 -33.7 Q34.05 -5.5 26.35 11.75 18.65 28.95 0.3 43.0 L-0.05 43.3 -0.45 43.0 Q-18.75 28.95 -26.4 11.7 -34.1 -5.5 -34.65 -33.7 L-34.65 -34.4" fill="url(#gradient0)" fill-rule="evenodd" stroke="none"/>
    <path d="M25.05 -27.1 L26.2 -27.15 27.0 -26.95 27.55 -26.35 27.75 -25.55 27.7 -24.4 Q27.35 -2.75 21.7 9.75 16.0 22.3 1.55 33.25 L1.6 33.25 0.95 33.75 0.05 34.05 -0.85 33.8 -1.55 33.3 -1.6 33.25 Q-16.0 22.3 -21.65 9.75 L-21.65 9.7 Q-27.3 -2.8 -27.65 -24.4 L-27.7 -25.55 -27.5 -26.35 -26.9 -26.95 -26.1 -27.15 -25.0 -27.1 -22.6 -27.05 Q-15.95 -27.05 -11.4 -28.65 -6.8 -30.3 -1.3 -33.5 L-1.25 -33.5 -0.7 -33.8 0.05 -34.0 0.8 -33.75 1.3 -33.45 1.25 -33.5 Q6.75 -30.3 11.4 -28.65 15.9 -27.05 22.65 -27.05 L25.05 -27.1" fill="url(#gradient1)" fill-rule="evenodd" stroke="none"/>
    <path d="M18.1 -20.0 L20.1 -20.05 20.55 -20.05 20.55 -19.55 Q20.2 -2.1 15.7 7.5 11.25 17.1 0.25 25.35 L-0.05 25.55 -0.3 25.35 Q-11.25 17.1 -15.75 7.5 -20.2 -2.1 -20.55 -19.55 L-20.55 -20.05 -20.1 -20.05 -18.1 -20.0 Q-12.3 -20.0 -8.5 -21.4 -4.65 -22.8 -0.25 -25.4 L-0.05 -25.5 0.2 -25.4 Q4.6 -22.8 8.45 -21.4 12.3 -20.0 18.1 -20.0" fill="url(#gradient2)" fill-rule="evenodd" stroke="none"/>
    <path d="M-14.5 -36.05 Q-21.55 -33.75 -30.75 -33.7 L-34.0 -33.8 Q-33.4 -5.15 -25.65 11.85 -17.9 28.8 -0.05 42.45 17.8 28.8 25.6 11.8 33.35 -5.15 34.05 -33.8 L30.75 -33.7 Q21.5 -33.75 14.4 -36.05 7.3 -38.4 -0.05 -42.6 -7.45 -38.4 -14.5 -36.05 M-35.25 -33.75 L-35.3 -35.1 -33.95 -35.05 -30.75 -35.0 Q-21.95 -35.0 -15.05 -37.25 -8.2 -39.45 -0.7 -43.7 -0.35 -43.85 -0.05 -44.05 L0.55 -43.7 Q8.05 -39.45 14.95 -37.25 21.9 -35.0 30.75 -35.0 L33.95 -35.05 35.35 -35.1 35.3 -33.75 Q34.7 -5.4 26.9 11.95 19.15 29.3 0.7 43.4 L-0.05 44.05 -0.85 43.4 Q-19.25 29.25 -27.0 11.95 -34.7 -5.4 -35.25 -33.75" fill="#404040" fill-rule="evenodd" stroke="none"/>
  </g>
  <defs>
    <linearGradient gradientTransform="matrix(0.0175, -0.0346, 0.0346, 0.0175, -8.25, -3.1)" gradientUnits="userSpaceOnUse" id="gradient0" spreadMethod="pad" x1="-819.2" x2="819.2">
      <stop offset="0.0" stop-color="#949494"/>
      <stop offset="0.5215686274509804" stop-color="#bdbdbd"/>
      <stop offset="1.0" stop-color="#525252"/>
    </linearGradient>
    <radialGradient cx="0" cy="0" gradientTransform="matrix(0.0469, 0.0, 0.0, 0.0469, 0.05, 0.0)" gradientUnits="userSpaceOnUse" id="gradient1" r="819.2" spreadMethod="pad">
      <stop offset="0.0" stop-color="#c4c4c4"/>
      <stop offset="1.0" stop-color="#ffffff"/>
    </radialGradient>
    <linearGradient gradientTransform="matrix(-0.0089, -0.0229, 0.0229, -0.0089, 2.85, -5.1)" gradientUnits="userSpaceOnUse" id="gradient2" spreadMethod="pad" x1="-819.2" x2="819.2">
      <stop offset="0.0" stop-color="#002342"/>
      <stop offset="1.0" stop-color="#004c7c"/>
    </linearGradient>
  </defs>
</svg>
