<?xml version="1.0" encoding="UTF-8" standalone="no"?>
<svg xmlns:ffdec="https://www.free-decompiler.com/flash" xmlns:xlink="http://www.w3.org/1999/xlink" ffdec:objectType="shape" height="26.75px" width="44.25px" xmlns="http://www.w3.org/2000/svg">
  <g transform="matrix(1.0, 0.0, 0.0, 1.0, -2.75, 28.0)">
    <path d="M35.15 -27.95 L35.5 -27.95 35.5 -28.0 36.5 -28.0 36.85 -27.95 37.3 -27.8 37.9 -27.6 38.75 -27.5 39.1 -27.4 39.5 -27.3 39.8 -27.1 Q39.95 -27.05 40.05 -26.95 L40.2 -26.75 40.3 -26.55 40.45 -26.35 40.55 -26.2 40.75 -26.0 40.95 -25.8 41.05 -25.6 41.2 -25.45 41.3 -25.25 41.4 -25.05 41.45 -24.85 41.5 -24.7 41.5 -24.5 41.5 -24.3 41.5 -24.1 41.5 -23.95 41.5 -23.75 41.45 -23.55 41.4 -23.35 41.3 -23.2 41.25 -23.0 41.2 -22.8 41.15 -22.6 41.05 -22.45 40.95 -22.25 40.9 -22.05 40.9 -21.85 40.8 -21.7 40.75 -21.5 40.7 -21.3 40.65 -21.1 40.5 -20.95 40.45 -20.75 40.3 -20.55 40.2 -20.35 40.05 -20.2 39.95 -20.0 39.75 -19.8 39.65 -19.6 39.45 -19.45 39.25 -19.25 39.05 -19.05 38.95 -18.85 38.8 -18.7 38.7 -18.5 38.5 -18.3 38.4 -18.1 43.2 -17.85 43.8 -17.75 44.55 -17.55 45.25 -17.5 45.6 -17.4 46.0 -17.3 46.3 -17.1 46.5 -16.95 46.7 -16.75 46.75 -16.55 46.9 -16.35 46.95 -16.2 47.0 -16.0 47.0 -15.8 47.0 -15.6 47.0 -15.45 47.0 -15.25 46.95 -15.05 46.9 -14.85 46.75 -14.7 46.7 -14.5 46.5 -14.3 46.3 -14.1 46.0 -13.95 45.25 -13.7 44.5 -13.45 43.4 -13.15 40.55 -12.8 40.0 -12.7 40.05 -12.5 40.2 -12.3 40.25 -12.1 40.4 -11.95 40.45 -11.75 40.55 -11.6 42.5 -11.5 42.85 -11.4 43.25 -11.3 43.55 -11.1 43.75 -10.95 43.95 -10.75 44.0 -10.55 44.15 -10.35 44.2 -10.2 44.25 -10.0 44.25 -9.8 44.25 -9.6 44.2 -9.45 44.2 -9.25 44.05 -9.05 44.0 -8.85 43.9 -8.7 43.75 -8.5 43.55 -8.3 43.3 -8.15 43.0 -7.95 42.6 -7.85 42.25 -7.75 39.75 -7.75 39.4 -7.8 39.15 -7.85 39.0 -7.9 37.25 -7.85 37.15 -7.7 37.0 -7.5 36.7 -7.3 36.4 -7.1 36.2 -6.95 35.8 -6.55 35.55 -6.4 35.25 -6.2 34.65 -5.8 34.0 -5.45 32.95 -5.05 31.8 -4.7 30.85 -4.4 29.15 -4.05 28.75 -4.0 25.25 -3.95 24.5 -3.95 24.15 -3.75 23.75 -3.55 23.5 -3.45 23.4 -3.35 23.15 -3.3 22.7 -3.2 22.5 -3.0 22.3 -2.8 22.15 -2.6 22.0 -2.45 21.95 -2.25 21.75 -2.05 21.55 -1.85 21.25 -1.7 20.85 -1.6 20.5 -1.5 20.0 -1.45 19.85 -1.4 19.65 -1.3 19.25 -1.25 17.75 -1.25 17.4 -1.3 16.95 -1.45 16.4 -1.65 16.0 -1.8 15.8 -1.8 15.55 -1.65 15.25 -1.45 14.85 -1.35 14.5 -1.25 14.25 -1.25 13.9 -1.35 13.5 -1.45 13.15 -1.6 12.95 -1.8 12.8 -2.0 12.7 -2.2 12.55 -2.35 12.55 -2.55 12.5 -2.75 12.5 -2.95 12.5 -3.1 12.5 -3.3 12.55 -3.5 12.65 -3.7 12.7 -3.85 12.8 -4.05 12.9 -4.25 12.95 -4.45 13.0 -4.6 12.95 -4.75 10.75 -4.75 10.4 -4.85 8.0 -5.5 Q6.45 -5.9 5.05 -6.7 L4.5 -7.05 4.15 -7.25 3.8 -7.45 3.65 -7.6 3.45 -7.8 3.3 -8.0 3.2 -8.2 3.05 -8.35 3.05 -8.55 3.0 -8.75 3.0 -8.95 3.0 -9.1 3.0 -9.3 3.0 -9.5 3.0 -9.7 3.0 -9.85 3.0 -10.05 3.05 -10.25 3.15 -10.45 3.2 -10.6 3.3 -10.8 3.4 -11.0 3.5 -11.2 3.65 -11.35 3.8 -11.55 4.0 -11.75 4.25 -11.95 4.5 -12.05 4.65 -12.1 5.9 -12.4 9.45 -13.1 9.55 -13.2 9.9 -13.35 10.2 -13.55 10.75 -13.95 11.25 -14.3 11.15 -14.5 11.05 -14.7 10.95 -14.85 10.9 -15.05 10.8 -15.25 10.7 -15.45 9.7 -16.2 8.05 -17.5 5.15 -19.95 3.2 -21.8 3.05 -22.0 2.95 -22.2 2.8 -22.35 2.8 -22.55 2.75 -22.75 2.75 -22.95 2.75 -23.1 2.75 -23.3 2.75 -23.5 2.8 -23.7 2.8 -23.85 2.95 -24.05 3.05 -24.25 3.2 -24.45 3.4 -24.6 3.75 -24.8 4.15 -24.9 4.5 -25.0 9.1 -24.6 15.2 -23.2 18.15 -22.45 18.5 -22.5 18.7 -22.7 18.8 -22.85 18.95 -23.05 19.05 -23.25 19.2 -23.45 19.4 -23.6 19.75 -23.8 20.0 -24.0 20.25 -24.2 20.5 -24.3 20.65 -24.35 20.9 -24.45 21.25 -24.5 21.75 -24.5 22.1 -24.4 22.5 -24.3 22.8 -24.1 23.0 -23.95 23.25 -23.75 23.45 -23.55 23.65 -23.35 23.95 -23.2 24.25 -23.0 24.45 -22.8 24.65 -22.6 24.95 -22.45 25.35 -22.25 25.7 -22.05 25.95 -21.85 26.25 -21.75 26.45 -21.7 26.75 -21.75 27.15 -22.1 27.5 -22.5 27.95 -22.85 29.3 -23.8 Q30.1 -24.25 30.7 -24.95 L30.9 -25.1 31.0 -25.3 31.2 -25.5 31.3 -25.7 31.45 -25.85 31.55 -26.05 31.75 -26.25 32.0 -26.45 32.4 -26.6 32.8 -26.8 33.3 -27.0 33.6 -27.2 33.9 -27.35 34.25 -27.55 34.65 -27.75 34.9 -27.85 35.15 -27.95 M11.5 -20.55 L9.7 -21.05 9.35 -21.05 9.4 -21.0 10.5 -20.1 11.7 -19.15 12.7 -18.35 13.45 -17.8 13.55 -17.6 13.7 -17.45 13.8 -17.45 13.95 -17.6 14.05 -17.8 14.25 -18.0 14.45 -18.2 14.65 -18.35 14.75 -18.5 14.6 -18.55 14.25 -18.7 13.9 -18.85 13.7 -19.05 13.55 -19.25 13.45 -19.45 13.3 -19.6 13.3 -19.8 13.25 -20.0 13.05 -20.1 12.35 -20.3 11.5 -20.55 M19.4 -13.1 L19.45 -12.95 19.5 -12.75 19.5 -12.55 19.5 -12.35 19.45 -12.2 19.45 -12.0 19.3 -11.8 19.25 -11.6 19.15 -11.45 19.0 -11.25 18.7 -11.05 18.5 -10.95 18.35 -10.9 17.75 -10.8 15.9 -10.7 15.7 -10.6 20.75 -10.75 21.65 -10.85 21.75 -11.05 21.75 -11.25 21.75 -11.45 21.75 -11.6 21.75 -11.8 21.8 -12.0 21.9 -12.2 21.95 -12.35 22.05 -12.55 22.05 -12.75 22.15 -12.95 22.15 -13.1 22.2 -13.3 22.2 -13.5 22.15 -13.7 22.15 -13.85 21.75 -13.95 20.75 -13.8 19.6 -13.55 19.2 -13.45 19.25 -13.3 19.4 -13.1 M37.2 -24.2 L36.65 -24.35 35.8 -24.4 35.7 -24.35 35.45 -24.2 35.1 -24.0 34.7 -23.8 34.25 -23.6 34.0 -23.45 33.9 -23.25 33.75 -23.05 33.55 -22.85 33.45 -22.7 33.05 -22.3 32.9 -22.1 32.7 -21.95 32.25 -21.6 31.7 -21.2 31.9 -21.0 32.1 -20.8 32.3 -20.6 32.45 -20.45 32.55 -20.25 32.65 -20.05 32.75 -19.85 32.9 -19.7 32.95 -19.5 33.0 -19.3 33.15 -19.1 33.9 -19.1 34.55 -19.5 34.85 -19.7 35.1 -19.9 35.5 -20.25 35.9 -20.6 36.0 -20.8 36.15 -21.0 36.25 -21.2 36.4 -21.35 36.55 -21.55 36.75 -21.75 36.95 -21.95 37.15 -22.1 37.25 -22.3 37.3 -22.5 37.4 -22.7 37.45 -22.85 37.5 -23.05 37.55 -23.25 37.65 -23.45 37.7 -23.6 37.8 -23.8 37.75 -24.0 37.2 -24.2 M34.8 -15.7 L34.4 -15.55 34.75 -15.55 35.5 -15.75 35.45 -15.8 35.4 -15.8 34.8 -15.7 M26.8 -14.45 L26.25 -14.35 Q25.8 -14.3 25.7 -14.0 L25.75 -13.95 26.05 -13.95 27.15 -14.25 28.2 -14.55 28.4 -14.6 28.1 -14.7 28.0 -14.7 27.4 -14.55 26.8 -14.45 M33.9 -11.85 L34.25 -11.75 34.75 -11.85 34.75 -11.95 34.05 -11.95 33.95 -11.95 33.9 -11.85" fill="#999999" fill-opacity="0.12941177" fill-rule="evenodd" stroke="none"/>
  </g>
</svg>
