<?xml version="1.0" encoding="UTF-8" standalone="no"?>
<svg xmlns:ffdec="https://www.free-decompiler.com/flash" xmlns:xlink="http://www.w3.org/1999/xlink" ffdec:objectType="shape" height="10.45px" width="19.9px" xmlns="http://www.w3.org/2000/svg">
  <g transform="matrix(1.0, 0.0, 0.0, 1.0, 10.0, 5.9)">
    <path d="M-10.0 3.6 L-10.0 -5.9 9.9 -5.9 9.9 3.25 9.85 3.25 9.25 3.2 9.15 3.25 9.1 3.25 9.0 3.25 8.75 3.3 8.65 3.3 8.6 3.35 8.55 3.35 8.5 3.4 Q1.9 3.6 -4.7 3.4 L-5.3 3.3 -8.4 3.25 -9.0 3.35 -9.45 3.5 -9.95 3.55 -10.0 3.6" fill="#ff0000" fill-rule="evenodd" stroke="none"/>
    <path d="M-10.0 3.6 L-9.95 3.55 -9.45 3.5 -9.0 3.35 -8.4 3.25 -5.3 3.3 -4.7 3.4 Q1.9 3.6 8.5 3.4 L8.55 3.35 8.6 3.35 8.65 3.3 8.75 3.3 9.0 3.25 9.1 3.25 9.15 3.25 9.25 3.2 9.85 3.25 9.9 3.25 9.9 4.2 9.35 4.25 9.3 4.25 9.25 4.3 9.15 4.3 8.95 4.35 8.9 4.35 8.85 4.4 Q1.95 4.6 -4.95 4.4 L-5.15 4.35 -5.3 4.3 -8.35 4.3 -8.75 4.35 -8.9 4.4 -9.05 4.45 -9.15 4.45 -9.2 4.5 -9.5 4.55 -10.0 4.5 -10.0 3.6" fill="#000000" fill-rule="evenodd" stroke="none"/>
  </g>
</svg>
