<?xml version="1.0" encoding="UTF-8" standalone="no"?>
<svg xmlns:ffdec="https://www.free-decompiler.com/flash" xmlns:xlink="http://www.w3.org/1999/xlink" ffdec:objectType="shape" height="93.85px" width="107.1px" xmlns="http://www.w3.org/2000/svg">
  <g transform="matrix(1.0, 0.0, 0.0, 1.0, 54.5, 37.7)">
    <path d="M-47.25 -30.3 Q-41.05 -36.2 -32.2 -37.05 -22.75 -37.95 -15.7 -32.7 -8.2 -27.05 -8.15 -17.9 -8.2 -8.5 -16.15 -1.95 -23.9 4.4 -34.0 3.8 -43.4 3.2 -49.2 -3.1 -54.6 -9.0 -53.95 -16.9 -53.3 -24.6 -47.25 -30.3" fill="url(#gradient0)" fill-rule="evenodd" stroke="none"/>
    <path d="M23.7 -26.9 Q29.1 -31.4 36.3 -30.9 43.1 -30.45 47.7 -25.75 52.05 -21.25 52.1 -15.15 52.05 -9.1 47.7 -4.6 43.1 0.1 36.3 0.6 29.1 1.05 23.7 -3.4 18.05 -8.15 18.1 -15.15 18.05 -22.25 23.7 -26.9" fill="url(#gradient1)" fill-rule="evenodd" stroke="none"/>
    <path d="M23.7 -26.9 Q29.1 -31.4 36.3 -30.9 43.1 -30.45 47.7 -25.75 52.05 -21.25 52.1 -15.15 52.05 -9.1 47.7 -4.6 43.1 0.1 36.3 0.6 29.1 1.05 23.7 -3.4 18.05 -8.15 18.1 -15.15 18.05 -22.25 23.7 -26.9 M-47.25 -30.3 Q-41.05 -36.2 -32.2 -37.05 -22.75 -37.95 -15.7 -32.7 -8.2 -27.05 -8.15 -17.9 -8.2 -8.5 -16.15 -1.95 -23.9 4.4 -34.0 3.8 -43.4 3.2 -49.2 -3.1 -54.6 -9.0 -53.95 -16.9 -53.3 -24.6 -47.25 -30.3 Z" fill="none" stroke="#000000" stroke-linecap="round" stroke-linejoin="round" stroke-width="1.0"/>
    <path d="M29.8 -10.9 Q27.65 -10.75 28.05 -13.4 28.45 -16.15 31.2 -16.4 39.6 -11.6 29.8 -10.9 M13.85 55.95 Q-17.3 58.15 -36.5 36.05 -37.2 35.3 -35.45 34.7 L-34.4 34.4 Q-6.9 54.1 26.4 48.95 27.3 48.85 26.5 49.85 22.15 55.4 13.85 55.95 M-29.1 -10.8 Q-30.6 -10.75 -30.55 -12.7 -30.35 -16.9 -26.0 -17.6 -18.2 -11.0 -29.1 -10.8" fill="#000000" fill-rule="evenodd" stroke="none"/>
  </g>
  <defs>
    <radialGradient cx="0" cy="0" gradientTransform="matrix(0.0283, 0.0, 0.0, 0.0283, -31.1, -16.7)" gradientUnits="userSpaceOnUse" id="gradient0" r="819.2" spreadMethod="pad">
      <stop offset="0.0" stop-color="#ffff00"/>
      <stop offset="1.0" stop-color="#ff9900"/>
    </radialGradient>
    <radialGradient cx="0" cy="0" gradientTransform="matrix(0.0274, 0.0, 0.0, 0.0274, 30.0, -12.8)" gradientUnits="userSpaceOnUse" id="gradient1" r="819.2" spreadMethod="pad">
      <stop offset="0.0" stop-color="#ffff00"/>
      <stop offset="1.0" stop-color="#ff9900"/>
    </radialGradient>
  </defs>
</svg>
