<?xml version="1.0" encoding="UTF-8" standalone="no"?>
<svg xmlns:ffdec="https://www.free-decompiler.com/flash" xmlns:xlink="http://www.w3.org/1999/xlink" ffdec:objectType="shape" height="295.1px" width="213.75px" xmlns="http://www.w3.org/2000/svg">
  <g transform="matrix(1.0, 0.0, 0.0, 1.0, 107.1, 203.85)">
    <path d="M15.55 -202.25 L16.05 -202.85 16.7 -203.4 17.15 -203.55 18.55 -203.75 18.55 -203.85 Q33.6 -191.9 40.3 -173.25 46.85 -155.1 52.1 -136.65 L62.45 -99.75 63.4 -95.6 Q66.65 -102.35 68.95 -109.5 71.25 -116.65 73.0 -124.0 L74.75 -131.4 74.4 -132.95 74.85 -133.65 75.35 -134.3 75.45 -134.35 75.75 -135.75 76.5 -136.35 77.4 -136.75 78.75 -137.0 78.8 -137.15 80.35 -136.55 81.25 -135.9 81.8 -135.3 82.15 -132.6 88.75 -117.05 Q92.6 -108.15 94.75 -98.85 96.95 -89.3 98.0 -79.4 98.4 -75.7 98.4 -72.2 L100.05 -73.25 101.2 -74.2 102.8 -58.8 Q103.95 -46.9 105.5 -35.05 112.05 15.85 82.05 55.1 59.7 84.35 23.8 89.55 -10.85 94.6 -39.85 84.8 L-39.85 84.1 -39.8 83.45 -39.8 83.4 Q-59.65 77.2 -74.75 60.5 -101.3 31.1 -105.15 -7.6 -108.25 -38.7 -106.4 -70.25 -105.2 -91.7 -100.4 -112.25 L-99.3 -108.65 -98.8 -112.85 Q-98.45 -116.45 -97.1 -119.75 L-96.85 -120.45 -96.3 -121.1 -95.4 -121.65 -93.6 -122.2 -93.6 -122.3 -92.7 -122.0 -91.75 -122.2 -91.75 -122.3 Q-83.45 -117.85 -81.0 -107.6 -78.75 -98.35 -75.45 -89.4 L-74.8 -87.65 Q-73.8 -90.9 -72.2 -94.25 -64.3 -111.3 -57.4 -128.15 -53.2 -138.55 -53.6 -150.35 -54.2 -166.45 -57.7 -180.9 L-57.15 -181.55 -56.5 -182.05 -56.05 -182.25 -54.7 -182.4 -54.65 -182.55 -52.45 -179.8 -52.3 -179.95 -51.4 -180.3 -50.05 -180.55 -50.05 -180.7 Q-38.15 -172.3 -29.25 -160.35 -20.55 -148.7 -15.2 -135.25 -9.9 -121.9 -8.15 -107.4 -7.65 -103.15 -7.9 -99.2 -3.1 -109.05 0.55 -119.75 5.7 -134.75 8.15 -150.4 10.45 -165.3 11.25 -180.25 11.85 -191.0 17.45 -197.15 L15.05 -201.55 15.55 -202.25 M21.25 -190.0 L18.2 -167.3 Q16.15 -152.4 12.9 -137.5 9.6 -122.45 5.0 -107.9 1.5 -96.75 -6.0 -88.25 L-7.4 -88.15 Q-8.8 -88.25 -10.05 -88.8 L-10.65 -87.3 -12.0 -87.25 Q-12.95 -87.3 -13.85 -87.7 L-14.75 -88.3 -15.3 -88.95 Q-16.8 -98.55 -17.4 -108.35 -18.2 -120.6 -22.5 -132.0 -27.8 -145.95 -38.45 -156.6 -42.45 -160.6 -45.5 -164.7 -43.8 -157.95 -44.0 -150.1 -44.35 -131.7 -53.1 -116.65 -62.0 -101.35 -65.2 -83.7 -66.7 -75.25 -70.1 -68.9 -69.35 -62.0 -72.75 -56.75 L-74.1 -56.7 -75.9 -57.1 -76.85 -57.75 -77.35 -58.35 Q-77.6 -65.8 -79.1 -72.9 -80.95 -81.45 -83.8 -89.8 -86.65 -98.15 -89.9 -106.3 L-91.15 -109.5 -92.0 -106.55 Q-93.05 -102.85 -92.6 -98.9 -92.2 -94.9 -95.75 -93.75 -98.2 -76.7 -99.15 -59.3 -100.85 -26.8 -94.7 4.0 -88.3 36.1 -63.2 59.3 -46.75 74.55 -26.15 81.35 L-26.0 82.05 -25.95 82.3 Q5.65 84.05 36.25 78.65 41.45 77.75 46.45 74.8 97.9 44.45 96.55 -15.25 96.0 -39.45 93.85 -63.4 L93.6 -63.45 Q88.0 -70.65 88.6 -80.15 89.2 -89.55 86.8 -98.4 84.25 -107.9 79.95 -117.0 77.8 -110.25 75.1 -103.65 L68.7 -87.3 Q66.45 -81.3 61.85 -77.95 L59.8 -73.4 58.4 -73.35 Q57.45 -73.4 56.6 -73.8 L55.65 -74.4 55.15 -75.05 Q56.2 -90.4 52.8 -105.3 48.85 -122.65 43.3 -139.65 37.4 -157.95 28.85 -175.1 L21.25 -190.0" fill="#000000" fill-rule="evenodd" stroke="none"/>
  </g>
</svg>
