<?xml version="1.0" encoding="UTF-8" standalone="no"?>
<svg xmlns:ffdec="https://www.free-decompiler.com/flash" xmlns:xlink="http://www.w3.org/1999/xlink" ffdec:objectType="shape" height="288.65px" width="202.35px" xmlns="http://www.w3.org/2000/svg">
  <g transform="matrix(1.0, 0.0, 0.0, 1.0, 104.6, 234.4)">
    <path d="M90.95 -74.1 Q94.95 -46.7 89.15 -22.8 L88.6 -23.3 Q89.45 -27.45 89.25 -32.25 L89.0 -39.5 Q89.75 -51.9 89.75 -64.5 89.75 -69.45 90.95 -74.1 M-88.1 4.0 L-89.6 6.6 Q-90.7 8.4 -91.1 5.9 -92.65 -4.5 -93.1 -15.15 L-92.95 -15.2 -91.85 -4.15 Q-91.25 1.0 -88.1 4.0 M-93.6 -42.75 L-93.65 -42.95 Q-99.85 -64.65 -87.95 -75.8 -89.9 -64.25 -91.5 -52.5 L-92.0 -53.2 Q-93.0 -53.15 -93.05 -52.45 L-93.6 -42.75 M-78.65 -67.95 Q-76.45 -62.8 -75.4 -57.0 -77.4 -62.05 -78.5 -67.2 L-78.65 -67.95 M-50.8 -92.2 L-47.25 -115.4 -46.4 -116.0 Q-39.7 -112.85 -34.25 -108.95 -28.0 -127.3 -18.4 -140.0 2.5 -116.45 -0.85 -82.45 L-3.6 -82.5 Q-2.9 -92.8 -3.35 -102.85 -4.1 -120.6 -17.6 -128.8 -28.75 -119.0 -28.85 -103.0 -28.9 -95.55 -25.8 -97.35 L-26.55 -93.65 -36.4 -100.0 -39.35 -99.65 Q-45.9 -100.3 -44.8 -93.2 -48.65 -94.25 -50.8 -92.2 M5.35 -81.75 Q2.95 -84.45 3.2 -91.7 3.35 -96.65 5.0 -102.2 11.85 -124.95 19.2 -145.8 12.35 -154.0 15.4 -163.45 16.35 -166.3 19.2 -166.4 45.35 -143.85 53.5 -115.95 L53.6 -116.0 Q67.85 -104.7 69.4 -84.2 L69.4 -83.6 Q73.15 -110.2 81.55 -98.8 L79.35 -89.85 Q73.9 -81.0 70.8 -70.75 L69.8 -67.1 Q67.65 -66.8 63.9 -64.7 62.35 -63.85 60.95 -63.55 61.15 -77.1 57.75 -91.25 52.5 -113.05 44.5 -135.0 41.2 -144.1 34.5 -141.4 L34.2 -141.5 28.8 -144.0 Q28.1 -143.95 28.05 -143.5 26.95 -133.7 24.55 -124.25 21.4 -113.3 17.25 -102.75 13.7 -94.5 9.1 -86.6 7.4 -83.65 7.05 -81.45 L5.35 -81.75 M-82.2 -47.05 L-82.25 -47.15 -82.2 -47.4 -82.2 -47.05" fill="#ff0800" fill-rule="evenodd" stroke="none"/>
    <path d="M81.55 -98.8 L82.25 -101.8 Q82.6 -103.15 84.0 -103.2 88.6 -98.0 87.45 -89.25 86.2 -92.6 84.0 -95.2 82.9 -95.15 82.2 -94.2 L79.35 -89.85 81.55 -98.8 M87.5 -89.15 Q93.75 -84.8 91.0 -74.35 L90.95 -74.1 Q89.75 -69.45 89.75 -64.5 89.75 -51.9 89.0 -39.5 88.3 -58.9 88.95 -78.35 89.15 -84.45 87.5 -89.15 M26.05 -62.95 Q22.5 -65.3 21.05 -68.95 19.6 -72.55 19.0 -76.6 L18.95 -76.9 17.25 -77.85 Q27.0 -102.75 34.8 -128.9 41.9 -108.15 47.85 -87.2 49.85 -80.25 50.0 -73.1 50.05 -70.65 50.45 -68.45 48.95 -69.25 47.2 -69.6 49.7 -56.05 36.85 -59.0 34.1 -58.1 31.6 -60.35 L31.35 -60.55 Q28.3 -61.5 26.05 -62.95 M71.9 -54.6 Q74.9 -63.85 80.4 -71.6 86.5 -65.85 83.0 -55.85 80.9 -49.95 81.6 -43.45 83.0 -30.7 73.3 -33.3 L72.7 -32.0 Q72.1 -30.85 71.0 -32.2 62.55 -42.5 68.05 -52.35 68.95 -53.9 71.1 -54.45 L71.9 -54.6 M-25.8 -97.35 Q-24.3 -98.25 -22.1 -101.25 L-21.45 -102.1 Q-17.6 -107.5 -14.5 -113.8 -12.95 -105.3 -12.35 -96.65 -9.45 -91.7 -11.95 -84.6 L-12.0 -84.45 -12.0 -84.4 Q-12.0 -82.6 -11.25 -81.3 L-11.45 -80.7 -12.85 -81.6 -12.9 -82.35 -12.95 -82.9 Q-14.25 -81.8 -16.35 -83.85 L-18.5 -86.35 Q-19.35 -86.05 -20.1 -87.4 -21.45 -89.7 -21.9 -91.65 L-21.95 -91.75 -22.0 -91.95 -22.5 -94.05 Q-23.3 -96.25 -23.15 -98.15 -25.75 -99.1 -23.7 -91.7 L-23.65 -91.6 -26.55 -93.65 -25.8 -97.35 M-82.25 -47.15 L-82.2 -47.05 Q-82.3 -37.05 -75.2 -34.85 L-75.95 -33.45 -74.4 -31.15 Q-71.2 -26.25 -72.25 -19.8 -67.15 -11.3 -76.3 -4.5 L-76.35 -3.75 Q-76.6 0.25 -73.1 1.4 -70.65 -8.0 -66.65 3.15 -64.0 10.6 -71.95 7.95 -86.3 3.1 -85.2 -13.1 -86.6 -22.2 -86.25 -31.5 -84.55 -39.4 -82.25 -47.15 M-13.8 -75.8 L-17.4 -75.45 Q-16.2 -69.8 -19.05 -62.7 -21.55 -56.5 -26.6 -56.0 -29.15 -52.65 -33.3 -54.1 -36.7 -50.4 -40.95 -52.0 -42.55 -52.6 -44.25 -53.95 L-47.15 -56.65 Q-49.4 -59.05 -48.35 -62.55 -47.05 -67.15 -43.05 -68.7 -39.4 -75.8 -33.75 -81.25 -34.4 -83.8 -35.4 -86.2 -36.9 -89.75 -33.2 -90.4 -20.3 -85.4 -17.7 -76.65 L-14.75 -76.45 -13.3 -76.65 -13.8 -75.8 M-59.35 -53.7 L-58.15 -56.2 Q-56.8 -56.15 -54.7 -56.8 L-54.15 -56.7 -57.4 -54.3 -58.7 -53.25 -59.35 -53.7" fill="#ff4a00" fill-rule="evenodd" stroke="none"/>
    <path d="M87.45 -89.25 L87.5 -89.15 Q89.15 -84.45 88.95 -78.35 88.3 -58.9 89.0 -39.5 L89.25 -32.25 Q89.45 -27.45 88.6 -23.3 L89.15 -22.8 89.9 -22.0 Q99.4 -19.65 92.85 -8.2 85.6 4.5 72.05 -3.7 53.0 -15.3 53.3 -38.4 L53.3 -38.6 Q51.6 -38.0 49.7 -37.7 47.7 -37.4 45.55 -36.3 19.8 -23.5 1.2 -46.6 -1.7 -50.2 -2.2 -54.25 -4.6 -55.0 -5.9 -56.95 L-7.25 -54.6 Q-11.85 -47.1 -18.6 -41.15 -32.3 -29.15 -48.75 -25.7 L-53.75 -25.1 Q-59.4 -24.85 -63.25 -26.6 -61.65 -22.55 -60.7 -17.85 -58.45 -6.7 -57.65 4.6 -56.25 23.05 -63.5 38.85 L-66.95 46.2 Q-70.3 53.35 -73.4 45.55 -74.4 42.95 -75.0 40.25 -77.05 37.5 -78.0 34.0 -87.5 27.4 -87.7 14.6 -87.8 9.7 -86.8 5.1 L-88.1 4.0 Q-91.25 1.0 -91.85 -4.15 L-92.95 -15.2 -93.1 -15.15 Q-94.25 -15.0 -94.65 -18.0 -95.2 -21.95 -94.75 -26.2 L-93.75 -35.0 -93.6 -42.75 -93.05 -52.45 Q-93.0 -53.15 -92.0 -53.2 L-91.5 -52.5 Q-89.9 -64.25 -87.95 -75.8 L-86.9 -82.15 Q-86.8 -82.75 -86.0 -82.8 -80.75 -77.0 -78.65 -67.95 L-78.5 -67.2 Q-77.4 -62.05 -75.4 -57.0 L-74.5 -54.75 Q-73.15 -51.65 -72.25 -48.55 -67.45 -69.1 -55.45 -84.15 -53.6 -86.4 -52.6 -89.3 -51.9 -91.15 -50.8 -92.2 -48.65 -94.25 -44.8 -93.2 -45.9 -100.3 -39.35 -99.65 L-36.4 -100.0 -26.55 -93.65 -23.65 -91.6 -23.7 -91.7 Q-25.75 -99.1 -23.15 -98.15 -23.3 -96.25 -22.5 -94.05 L-22.0 -91.95 -21.95 -91.75 -21.9 -91.65 Q-21.45 -89.7 -20.1 -87.4 -19.35 -86.05 -18.5 -86.35 L-16.35 -83.85 Q-14.25 -81.8 -12.95 -82.9 L-12.9 -82.35 -12.85 -81.6 -11.45 -80.7 -10.65 -80.1 -10.6 -80.3 -10.9 -80.7 -11.25 -81.3 Q-12.0 -82.6 -12.0 -84.4 L-12.0 -84.45 -11.95 -84.6 Q-9.45 -91.7 -12.35 -96.65 -12.95 -105.3 -14.5 -113.8 -17.6 -107.5 -21.45 -102.1 L-22.1 -101.25 Q-24.3 -98.25 -25.8 -97.35 -28.9 -95.55 -28.85 -103.0 -28.75 -119.0 -17.6 -128.8 -4.1 -120.6 -3.35 -102.85 -2.9 -92.8 -3.6 -82.5 L-0.85 -82.45 5.35 -81.75 7.05 -81.45 Q7.4 -83.65 9.1 -86.6 13.7 -94.5 17.25 -102.75 21.4 -113.3 24.55 -124.25 26.95 -133.7 28.05 -143.5 28.1 -143.95 28.8 -144.0 L34.2 -141.5 34.5 -141.4 Q41.2 -144.1 44.5 -135.0 52.5 -113.05 57.75 -91.25 61.15 -77.1 60.95 -63.55 62.35 -63.85 63.9 -64.7 67.65 -66.8 69.8 -67.1 L70.8 -70.75 Q73.9 -81.0 79.35 -89.85 L82.2 -94.2 Q82.9 -95.15 84.0 -95.2 86.2 -92.6 87.45 -89.25 M31.6 -60.35 Q34.1 -58.1 36.85 -59.0 49.7 -56.05 47.2 -69.6 48.95 -69.25 50.45 -68.45 50.05 -70.65 50.0 -73.1 49.85 -80.25 47.85 -87.2 41.9 -108.15 34.8 -128.9 27.0 -102.75 17.25 -77.85 L18.95 -76.9 19.0 -76.6 Q19.6 -72.55 21.05 -68.95 22.5 -65.3 26.05 -62.95 L26.7 -61.4 26.8 -61.1 31.6 -60.35 M44.0 -53.7 L45.0 -52.2 45.1 -51.9 Q46.9 -51.75 47.8 -52.9 L44.2 -53.75 44.0 -53.7 M71.9 -54.6 L71.1 -54.45 Q68.95 -53.9 68.05 -52.35 62.55 -42.5 71.0 -32.2 72.1 -30.85 72.7 -32.0 L73.3 -33.3 Q83.0 -30.7 81.6 -43.45 80.9 -49.95 83.0 -55.85 86.5 -65.85 80.4 -71.6 74.9 -63.85 71.9 -54.6 M10.6 -67.4 L9.75 -69.5 7.9 -69.35 10.6 -67.4 M24.6 -45.05 Q24.3 -42.65 27.9 -42.55 L27.8 -42.7 27.0 -44.05 24.6 -45.05 M-82.25 -47.15 Q-84.55 -39.4 -86.25 -31.5 -86.6 -22.2 -85.2 -13.1 -86.3 3.1 -71.95 7.95 -64.0 10.6 -66.65 3.15 -70.65 -8.0 -73.1 1.4 -76.6 0.25 -76.35 -3.75 L-76.3 -4.5 Q-67.15 -11.3 -72.25 -19.8 -71.2 -26.25 -74.4 -31.15 L-75.95 -33.45 -75.2 -34.85 Q-82.3 -37.05 -82.2 -47.05 L-82.2 -47.4 -82.25 -47.15 M-13.8 -75.8 L-7.7 -75.9 Q-9.6 -76.25 -10.35 -77.55 -11.2 -77.0 -13.3 -76.65 L-14.75 -76.45 -17.7 -76.65 Q-20.3 -85.4 -33.2 -90.4 -36.9 -89.75 -35.4 -86.2 -34.4 -83.8 -33.75 -81.25 -39.4 -75.8 -43.05 -68.7 -47.05 -67.15 -48.35 -62.55 -49.4 -59.05 -47.15 -56.65 L-44.25 -53.95 -45.65 -52.9 -41.1 -51.8 -40.95 -52.0 Q-36.7 -50.4 -33.3 -54.1 -29.15 -52.65 -26.6 -56.0 -21.55 -56.5 -19.05 -62.7 -16.2 -69.8 -17.4 -75.45 L-13.8 -75.8 M-58.7 -53.25 L-57.4 -54.3 -54.15 -56.7 -54.7 -56.8 Q-56.8 -56.15 -58.15 -56.2 L-59.35 -53.7 -60.25 -51.9 -58.7 -53.25 M-48.0 -46.7 Q-51.45 -46.4 -54.45 -45.25 L-55.4 -44.35 Q-51.0 -44.2 -46.6 -46.3 L-48.0 -46.7 M-63.7 -34.25 L-58.3 -35.9 -62.25 -36.4 -63.7 -34.25 M-34.6 -39.3 L-34.7 -39.2 Q-33.15 -40.3 -32.1 -41.75 L-32.2 -41.7 -34.6 -39.3" fill="#ff3300" fill-rule="evenodd" stroke="none"/>
    <path d="M7.7 -195.25 Q-2.3 -216.8 8.0 -234.4 14.65 -209.35 18.95 -182.6 45.2 -146.2 63.75 -104.0 66.7 -97.35 66.65 -90.0 77.25 -111.5 74.3 -134.75 74.3 -135.05 75.2 -135.2 L76.2 -133.55 76.8 -133.6 Q108.6 -70.05 92.15 1.75 90.55 8.9 90.05 1.4 88.9 -15.55 89.05 -32.6 89.45 -68.65 82.35 -103.4 81.35 -95.2 77.75 -86.35 71.6 -71.0 64.7 -76.3 63.65 -73.45 62.8 -78.3 61.9 -79.8 62.3 -81.5 L61.9 -85.05 Q59.1 -114.4 38.8 -136.3 28.65 -147.3 22.15 -159.8 L23.55 -146.7 Q25.75 -123.85 16.15 -102.8 6.45 -81.6 -8.9 -70.5 -9.8 -69.85 -8.55 -71.95 14.95 -110.6 16.25 -154.2 16.9 -175.35 7.7 -195.25 M-18.2 -151.25 Q4.3 -129.75 -2.75 -101.6 -3.05 -100.3 -3.65 -102.7 -8.05 -120.2 -15.8 -136.1 -15.95 -133.05 -16.45 -129.75 -19.1 -112.8 -29.85 -105.15 -18.2 -97.35 -10.3 -85.8 -9.35 -84.35 -10.9 -85.05 -18.65 -88.4 -27.9 -91.4 -37.7 -94.6 -41.7 -98.85 -42.45 -87.75 -51.7 -75.45 -64.3 -58.7 -67.65 -39.85 -67.85 -38.7 -68.15 -40.95 -72.15 -74.35 -50.7 -103.85 -48.35 -107.1 -48.4 -111.6 -47.6 -112.55 -46.5 -113.0 L-44.8 -113.6 -43.35 -110.25 -42.4 -112.0 Q-37.75 -109.95 -33.5 -107.45 -21.8 -131.3 -26.8 -157.2 L-24.9 -158.6 -23.2 -159.2 Q-20.05 -155.65 -18.2 -151.25 M-103.9 -156.7 Q-102.65 -158.35 -100.8 -158.4 -82.7 -149.5 -94.2 -130.8 -97.0 -126.2 -96.3 -131.75 -94.45 -146.4 -104.6 -155.6 L-103.9 -156.7 M-87.2 -110.4 Q-70.6 -75.6 -70.5 -35.0 -70.5 -32.15 -71.65 -35.8 -78.25 -56.75 -83.65 -77.9 -84.5 -73.6 -85.95 -69.1 -92.65 -48.2 -90.3 -25.55 -86.0 16.4 -69.65 53.55 -68.9 55.2 -70.65 52.85 -97.55 16.8 -97.3 -28.8 -97.1 -71.6 -93.2 -111.6 -92.4 -112.55 -91.3 -113.0 L-89.6 -113.6 -87.65 -110.25 -87.2 -110.4" fill="#ff0000" fill-rule="evenodd" stroke="none"/>
  </g>
</svg>
