<?xml version="1.0" encoding="UTF-8" standalone="no"?>
<svg xmlns:ffdec="https://www.free-decompiler.com/flash" xmlns:xlink="http://www.w3.org/1999/xlink" ffdec:objectType="shape" height="271.0px" width="204.55px" xmlns="http://www.w3.org/2000/svg">
  <g transform="matrix(1.0, 0.0, 0.0, 1.0, 97.3, 73.85)">
    <path d="M59.3 -72.85 Q99.6 -39.15 105.25 13.85 110.6 63.75 101.75 110.45 L101.1 110.75 99.7 106.25 99.1 106.45 97.9 106.75 Q88.55 86.95 76.9 66.8 74.7 63.05 72.85 59.1 74.9 108.55 58.4 156.5 54.2 168.7 56.2 179.6 L56.55 181.3 Q58.05 187.95 61.9 194.15 61.4 195.6 60.0 196.35 L57.9 197.15 Q53.6 192.75 50.9 187.8 19.15 141.6 3.95 86.95 -1.2 68.45 10.3 72.95 11.25 73.3 11.55 76.25 16.7 123.95 47.05 163.1 47.8 158.1 49.55 152.75 64.3 107.85 63.6 60.55 63.4 50.05 66.9 43.2 L66.45 41.6 Q61.75 24.05 72.85 27.2 74.15 27.6 74.55 30.25 78.5 55.4 92.45 77.8 94.6 81.2 96.35 84.8 95.95 76.0 96.95 66.35 105.1 -13.5 58.1 -73.6 57.55 -74.3 59.3 -72.85 M5.75 95.5 Q-0.35 115.9 -8.2 136.55 -16.0 157.05 -20.5 173.95 -21.85 171.4 -22.8 168.75 -22.95 169.0 -23.7 169.15 -41.9 127.75 -55.05 81.35 -56.2 77.4 -56.55 74.05 -77.0 108.0 -79.0 148.7 -79.05 148.95 -79.7 149.15 -82.15 142.65 -83.15 135.45 -87.8 117.6 -88.9 96.1 -90.35 67.65 -95.05 39.65 -98.8 17.25 -96.3 -4.9 -93.1 -33.35 -75.3 -50.4 -73.6 -52.05 -74.85 -49.15 -94.1 -5.25 -86.45 43.5 -83.5 62.4 -79.7 81.15 -78.5 87.2 -77.8 93.1 -71.1 78.1 -56.75 70.65 -56.65 59.0 -44.95 57.6 -43.6 57.45 -44.55 60.45 -53.1 88.25 -36.35 114.9 -27.0 129.75 -23.9 144.95 -22.55 139.1 -19.75 132.95 -9.8 111.1 5.15 94.65 6.35 93.35 5.75 95.5" fill="#ff0000" fill-rule="evenodd" stroke="none"/>
    <path d="M90.95 -10.8 Q91.4 -12.05 92.7 -10.2 101.5 2.1 102.2 18.9 102.65 28.7 99.8 36.25 100.55 40.65 100.95 45.2 102.35 61.0 98.75 73.0 99.35 81.25 98.2 89.3 97.9 91.45 95.5 91.55 75.05 76.8 78.55 52.5 L80.7 54.75 80.9 54.5 84.0 57.6 Q83.7 62.3 88.3 65.15 90.55 64.7 90.9 62.45 91.25 62.2 91.2 61.65 L91.15 60.35 92.35 46.95 93.05 39.6 Q96.35 36.5 96.85 31.65 99.05 9.85 90.95 -10.8 M63.75 98.6 Q63.15 110.45 61.15 122.1 57.2 144.85 49.55 164.5 49.05 165.85 47.5 165.95 32.9 155.9 26.0 136.75 25.2 134.5 23.4 131.4 12.65 112.5 10.75 93.7 L12.7 92.85 13.75 93.7 14.85 94.2 16.15 99.55 Q19.8 112.95 29.5 118.55 L29.65 118.75 Q31.1 122.25 33.65 124.4 L36.05 131.45 Q37.1 137.7 40.05 141.9 40.6 146.35 43.5 149.55 L44.15 149.05 44.55 147.8 46.3 150.35 Q48.0 150.3 47.65 149.2 L46.15 144.0 Q54.1 127.4 58.85 108.85 62.05 104.3 63.75 98.6 M5.85 92.6 Q-1.25 117.8 -15.3 138.55 -17.95 142.5 -22.65 143.3 -21.8 133.9 -19.15 124.65 -14.9 116.4 -10.95 107.8 -6.6 102.4 -5.6 95.7 L-5.05 94.4 Q-3.85 93.35 -3.3 91.85 1.65 98.45 4.0 89.45 4.75 91.45 5.85 92.6 M-25.85 143.55 L-26.1 143.55 Q-47.85 122.25 -54.1 88.85 -56.15 78.0 -51.55 69.4 L-51.2 68.75 -50.1 69.15 -50.1 69.45 Q-50.75 76.0 -45.7 78.75 -43.7 76.7 -42.4 74.45 -40.9 82.55 -38.2 89.95 L-38.1 90.55 Q-40.1 90.05 -39.45 94.8 -38.85 99.25 -36.8 103.05 -33.55 108.95 -33.6 115.65 -33.75 131.8 -25.85 143.55 M-54.45 66.3 Q-54.4 71.1 -60.8 77.65 -61.55 78.45 -63.3 78.55 -67.55 90.3 -74.4 99.45 L-75.7 100.35 Q-79.1 99.65 -80.5 97.5 L-79.3 98.35 Q-78.05 98.3 -77.5 97.1 -72.35 85.8 -64.8 75.7 L-58.4 68.95 Q-56.55 67.1 -55.15 65.05 L-54.45 66.3 M-83.0 89.2 Q-90.7 75.7 -90.4 56.15 -90.15 40.25 -93.9 24.7 -98.45 5.75 -88.5 -6.25 -91.65 -30.15 -75.65 -24.45 -74.3 -23.95 -73.85 -22.75 -74.75 -21.1 -75.3 -17.05 -81.95 -16.7 -82.45 -8.55 -83.2 2.15 -77.4 2.15 -78.2 3.1 -79.1 5.8 L-79.7 7.55 Q-87.45 22.15 -86.5 40.65 -86.1 48.65 -86.65 56.45 -87.15 63.65 -84.05 67.9 L-82.35 73.6 -82.05 75.95 Q-81.3 81.7 -82.6 87.25 L-83.0 89.2 M-25.3 98.0 L-26.3 97.4 -26.25 97.25 -25.2 97.75 -25.3 98.0 M10.45 82.85 L10.7 82.35 Q11.25 83.7 10.4 84.85 L10.45 82.85 M44.0 71.15 L44.0 71.6 43.7 71.35 44.0 71.15" fill="#ff0800" fill-rule="evenodd" stroke="none"/>
    <path d="M73.7 46.0 Q75.75 50.95 69.6 57.85 L69.3 58.15 Q69.2 50.7 68.1 43.2 67.8 41.3 66.85 42.55 L65.25 44.85 65.25 44.8 Q65.0 42.9 63.95 44.15 L63.45 44.7 Q64.5 42.3 64.85 39.55 65.05 38.0 64.05 38.7 L60.85 40.95 66.2 36.3 Q68.7 42.25 73.45 45.5 L73.7 46.0 M-77.4 2.15 L-76.2 2.05 -76.7 5.85 -76.9 5.65 Q-77.95 4.55 -78.5 5.45 L-79.7 7.55 -79.1 5.8 Q-78.2 3.1 -77.4 2.15 M78.05 -13.95 Q78.4 -15.95 79.35 -17.45 L81.05 -11.3 Q84.25 -12.05 85.5 -7.15 96.65 -6.05 85.6 3.3 L85.0 3.8 86.45 42.1 Q84.2 37.35 80.95 32.7 L80.3 31.85 76.85 22.6 Q75.9 23.55 74.3 23.95 63.9 13.95 73.55 0.8 L73.7 0.55 Q67.4 -4.45 73.15 -13.7 76.35 -18.8 77.7 -13.0 78.1 -11.35 77.9 -9.55 L79.0 -10.4 78.05 -13.95 M-76.5 15.0 L-77.4 14.15 -76.7 13.45 -76.5 15.0 M-79.8 41.15 Q-80.25 37.65 -76.8 36.4 L-76.05 36.1 -75.45 32.75 -75.4 32.3 Q-73.9 30.2 -73.1 28.2 -71.95 31.0 -70.4 33.5 -62.0 29.1 -54.0 33.15 -49.2 35.6 -47.9 41.15 -44.6 55.45 -59.3 60.35 L-59.85 60.25 Q-68.3 66.25 -74.9 74.9 -74.95 72.25 -75.25 69.65 -76.3 60.3 -76.25 51.05 -79.05 46.95 -79.8 41.15 M-31.1 58.65 L-30.8 58.6 Q-8.5 53.25 -6.65 72.5 -6.25 76.3 -9.4 78.8 -13.5 87.05 -17.5 96.05 -19.4 100.35 -22.35 103.8 -22.45 100.0 -25.3 98.0 L-25.2 97.75 -26.25 97.25 -26.3 97.4 -28.3 96.65 -29.45 93.8 Q-31.25 86.6 -33.4 79.35 L-33.8 76.5 Q-36.65 72.8 -35.95 66.85 L-37.05 65.9 Q-38.35 64.95 -39.4 64.5 L-39.1 64.05 -35.85 66.1 -34.95 62.25 Q-34.55 60.8 -33.5 59.85 -32.55 59.05 -31.1 58.65 M82.95 14.4 Q81.0 19.95 78.55 25.2 79.6 25.25 80.7 26.1 82.4 20.8 82.9 15.15 L82.95 14.4 M93.05 39.6 L92.35 46.95 92.7 39.9 93.05 39.6 M29.8 55.55 Q39.05 52.7 46.3 60.55 L50.0 58.2 51.1 58.75 Q52.0 61.6 52.4 64.5 52.85 67.85 53.65 70.8 51.75 75.5 50.5 80.7 L40.45 119.9 Q38.6 110.45 37.3 100.7 36.4 93.9 31.7 89.85 29.65 88.05 29.55 90.4 29.45 92.8 29.5 95.25 L27.1 89.95 Q28.8 89.25 30.05 87.4 30.9 86.15 30.0 85.45 25.45 81.9 24.15 75.85 L23.1 71.7 25.2 70.1 Q24.35 68.55 23.95 66.55 L23.9 66.45 Q18.8 75.85 18.2 65.8 18.0 62.65 20.7 60.55 24.5 57.6 28.05 56.15 L29.8 55.55 M6.5 72.2 L6.9 72.95 5.0 72.4 4.1 72.25 4.2 70.9 Q4.55 71.65 6.5 72.2 M10.7 82.35 L10.45 82.85 9.6 84.25 9.55 84.3 Q9.35 82.45 9.6 80.65 L9.8 80.85 10.7 82.35 M57.45 52.95 L60.55 49.7 Q59.2 52.9 58.8 56.7 L57.45 52.95 M44.0 71.15 L43.7 71.35 44.0 71.6 44.0 71.15 M40.05 141.9 Q37.1 137.7 36.05 131.45 37.8 135.85 39.9 139.95 L40.05 141.9" fill="#ff4a00" fill-rule="evenodd" stroke="none"/>
    <path d="M-73.85 -22.75 Q-72.0 -26.0 -68.9 -20.05 -67.7 -17.8 -67.7 -14.95 -63.75 -14.9 -62.6 -12.15 L-62.5 -12.1 Q-57.8 -9.55 -54.45 -5.95 -43.4 -0.05 -41.8 15.45 L-39.5 39.3 Q-37.3 36.2 -35.5 39.45 L-33.35 38.5 Q-31.45 33.8 -27.85 36.45 -20.05 33.95 -11.25 33.15 2.75 31.85 7.7 46.0 8.8 46.4 9.55 48.1 10.5 46.0 12.2 43.65 20.15 32.8 32.4 28.7 L29.85 27.8 Q27.25 26.6 30.0 25.15 39.15 20.2 45.3 25.05 49.4 15.8 55.7 9.55 57.35 -6.05 63.8 -19.15 64.4 -20.3 66.3 -21.3 68.55 -22.5 70.4 -20.65 75.75 -23.0 77.9 -22.7 L77.1 -25.8 Q75.75 -30.95 80.3 -28.25 83.4 -26.4 85.3 -22.95 88.6 -16.9 90.95 -10.8 99.05 9.85 96.85 31.65 96.35 36.5 93.05 39.6 L92.7 39.9 92.35 46.95 91.15 60.35 91.2 61.65 Q91.25 62.2 90.9 62.45 90.55 64.7 88.3 65.15 83.7 62.3 84.0 57.6 L80.9 54.5 80.7 54.75 78.55 52.5 Q75.85 49.5 73.7 46.0 L73.45 45.5 Q68.7 42.25 66.2 36.3 L60.85 40.95 64.05 38.7 Q65.05 38.0 64.85 39.55 64.5 42.3 63.45 44.7 L63.95 44.15 Q65.0 42.9 65.25 44.8 L65.25 44.85 66.85 42.55 Q67.8 41.3 68.1 43.2 69.2 50.7 69.3 58.15 69.6 72.5 66.4 86.8 L65.45 90.2 Q64.95 94.7 63.75 98.6 62.05 104.3 58.85 108.85 54.1 127.4 46.15 144.0 L47.65 149.2 Q48.0 150.3 46.3 150.35 L44.55 147.8 44.15 149.05 43.5 149.55 Q40.6 146.35 40.05 141.9 L39.9 139.95 Q37.8 135.85 36.05 131.45 L33.65 124.4 Q31.1 122.25 29.65 118.75 L29.5 118.55 Q19.8 112.95 16.15 99.55 L14.85 94.2 13.75 93.7 12.7 92.85 10.75 93.7 Q7.8 94.65 5.85 92.6 4.75 91.45 4.0 89.45 1.65 98.45 -3.3 91.85 -3.85 93.35 -5.05 94.4 L-5.6 95.7 Q-6.6 102.4 -10.95 107.8 -14.9 116.4 -19.15 124.65 -21.8 133.9 -22.65 143.3 L-22.75 144.9 Q-22.85 145.9 -24.1 145.95 L-25.85 143.55 Q-33.75 131.8 -33.6 115.65 -33.55 108.95 -36.8 103.05 -38.85 99.25 -39.45 94.8 -40.1 90.05 -38.1 90.55 L-38.2 89.95 Q-40.9 82.55 -42.4 74.45 -43.7 76.7 -45.7 78.75 -50.75 76.0 -50.1 69.45 L-50.1 69.15 -51.2 68.75 Q-53.35 67.8 -54.45 66.3 L-55.15 65.05 Q-56.55 67.1 -58.4 68.95 L-64.8 75.7 Q-72.35 85.8 -77.5 97.1 -78.05 98.3 -79.3 98.35 L-80.5 97.5 Q-83.7 94.75 -83.0 89.2 L-82.6 87.25 Q-81.3 81.7 -82.05 75.95 L-82.35 73.6 -84.05 67.9 Q-87.15 63.65 -86.65 56.45 -86.1 48.65 -86.5 40.65 -87.45 22.15 -79.7 7.55 L-78.5 5.45 Q-77.95 4.55 -76.9 5.65 L-76.7 5.85 -76.2 2.05 -77.4 2.15 Q-83.2 2.15 -82.45 -8.55 -81.95 -16.7 -75.3 -17.05 -74.75 -21.1 -73.85 -22.75 M79.35 -17.45 L79.0 -18.75 78.25 -17.05 77.5 -15.55 78.05 -13.95 79.0 -10.4 77.9 -9.55 Q78.1 -11.35 77.7 -13.0 76.35 -18.8 73.15 -13.7 67.4 -4.45 73.7 0.55 L73.55 0.8 Q63.9 13.95 74.3 23.95 75.9 23.55 76.85 22.6 L80.3 31.85 80.95 32.7 Q84.2 37.35 86.45 42.1 L85.0 3.8 85.6 3.3 Q96.65 -6.05 85.5 -7.15 84.25 -12.05 81.05 -11.3 L79.35 -17.45 M-7.6 39.1 L-7.2 39.4 -7.25 39.3 -7.3 39.05 -7.6 39.1 M-76.5 15.0 L-76.7 13.45 -77.4 14.15 -76.5 15.0 M-65.7 12.45 L-66.45 12.15 -65.8 14.35 -65.7 12.45 M-79.8 41.15 Q-79.05 46.95 -76.25 51.05 -76.3 60.3 -75.25 69.65 -74.95 72.25 -74.9 74.9 -68.3 66.25 -59.85 60.25 L-59.3 60.35 Q-44.6 55.45 -47.9 41.15 -49.2 35.6 -54.0 33.15 -62.0 29.1 -70.4 33.5 -71.95 31.0 -73.1 28.2 -73.9 30.2 -75.4 32.3 L-75.45 32.75 -76.05 36.1 -76.8 36.4 Q-80.25 37.65 -79.8 41.15 M-25.3 98.0 Q-22.45 100.0 -22.35 103.8 -19.4 100.35 -17.5 96.05 -13.5 87.05 -9.4 78.8 -6.25 76.3 -6.65 72.5 -8.5 53.25 -30.8 58.6 L-31.1 58.65 -32.6 56.4 Q-34.0 57.5 -35.8 57.8 L-33.5 59.85 Q-34.55 60.8 -34.95 62.25 L-35.85 66.1 -39.1 64.05 -39.4 64.5 Q-38.35 64.95 -37.05 65.9 L-35.95 66.85 Q-36.65 72.8 -33.8 76.5 L-33.4 79.35 Q-31.25 86.6 -29.45 93.8 L-28.3 96.65 -26.3 97.4 -25.3 98.0 M36.0 48.9 L35.95 49.55 36.95 48.75 36.6 48.5 36.0 48.9 M29.8 55.55 L31.1 54.05 29.3 53.45 28.05 56.15 Q24.5 57.6 20.7 60.55 18.0 62.65 18.2 65.8 18.8 75.85 23.9 66.45 L23.95 66.55 Q24.35 68.55 25.2 70.1 L23.1 71.7 24.15 75.85 Q25.45 81.9 30.0 85.45 30.9 86.15 30.05 87.4 28.8 89.25 27.1 89.95 L29.5 95.25 Q29.45 92.8 29.55 90.4 29.65 88.05 31.7 89.85 36.4 93.9 37.3 100.7 38.6 110.45 40.45 119.9 L50.5 80.7 Q51.75 75.5 53.65 70.8 52.85 67.85 52.4 64.5 52.0 61.6 51.1 58.75 L50.0 58.2 46.3 60.55 Q39.05 52.7 29.8 55.55 M6.5 72.2 Q4.55 71.65 4.2 70.9 L4.1 72.25 5.0 72.4 6.9 72.95 6.5 72.2 M10.4 84.85 Q11.25 83.7 10.7 82.35 L9.8 80.85 9.6 80.65 Q9.35 82.45 9.55 84.3 L9.6 84.65 Q9.7 85.45 10.0 85.35 L10.4 84.85 M57.45 52.95 L58.8 56.7 Q59.2 52.9 60.55 49.7 L57.45 52.95" fill="#ff3300" fill-rule="evenodd" stroke="none"/>
  </g>
</svg>
