<?xml version="1.0" encoding="UTF-8" standalone="no"?>
<svg xmlns:ffdec="https://www.free-decompiler.com/flash" xmlns:xlink="http://www.w3.org/1999/xlink" ffdec:objectType="shape" height="51.2px" width="387.4px" xmlns="http://www.w3.org/2000/svg">
  <g transform="matrix(1.0, 0.0, 0.0, 1.0, -65.0, -178.0)">
    <path d="M342.0 179.55 L343.7 179.35 348.95 179.35 348.95 194.2 353.9 194.5 353.8 195.45 353.75 196.6 351.5 196.6 348.05 196.45 344.45 196.5 341.45 196.9 341.45 194.65 346.1 194.5 346.4 181.9 344.0 181.9 342.35 181.7 Q341.6 181.3 341.6 180.1 341.6 179.7 342.0 179.55 M325.55 184.3 L330.05 184.45 330.05 184.9 Q330.7 184.9 331.8 184.3 333.05 183.6 333.65 183.55 335.85 183.55 337.5 184.6 339.2 185.6 340.25 187.45 L340.7 189.0 340.85 190.45 340.5 192.7 Q340.15 193.7 339.3 194.7 L337.35 196.2 Q335.95 196.9 334.4 196.9 L332.3 196.6 Q331.15 196.2 330.65 195.4 330.4 195.65 330.4 196.4 L330.35 198.25 334.25 198.25 334.25 200.5 332.15 200.5 Q332.25 200.3 332.8 200.1 333.35 199.95 333.35 199.6 L332.9 199.4 332.45 199.3 Q332.1 199.3 331.7 199.75 L330.8 200.5 330.6 200.1 330.35 199.75 Q329.8 200.45 327.9 200.6 L326.0 200.65 325.85 199.6 325.85 198.25 327.95 198.25 327.95 189.25 328.25 189.25 328.55 188.8 328.3 188.35 327.95 187.9 Q328.15 187.75 328.25 187.7 L328.55 187.0 328.35 186.8 328.45 186.35 328.55 185.95 328.4 185.6 328.25 185.35 Q328.05 185.45 328.0 185.85 L327.95 186.4 327.95 185.8 327.8 185.35 Q327.35 185.35 326.9 185.8 L327.35 186.4 325.85 186.7 Q325.65 186.3 325.6 185.4 L325.55 184.3 M333.2 184.9 L333.2 185.5 333.65 185.35 333.2 184.9 M330.6 188.7 L329.9 189.85 Q330.0 191.1 330.7 192.35 331.35 193.55 332.45 194.2 L333.2 194.45 333.8 194.5 Q334.8 194.5 335.85 193.95 L337.7 192.85 338.05 191.35 338.15 189.25 Q337.6 187.85 336.4 187.1 335.25 186.4 333.8 186.4 332.1 186.4 330.95 187.3 330.95 188.1 330.6 188.7 M360.5 183.85 L363.3 184.2 Q364.55 184.55 365.75 185.35 L366.05 187.25 366.2 189.55 Q365.6 189.55 365.6 189.7 L366.2 189.85 366.2 193.75 367.1 194.0 368.6 194.05 368.3 196.15 363.5 196.0 363.05 195.1 361.8 196.0 360.8 196.45 357.5 196.05 Q356.15 195.65 354.95 194.65 354.35 193.95 354.3 192.85 L354.2 191.05 356.1 189.5 Q357.25 188.65 358.4 188.65 L358.55 188.8 359.0 188.35 359.3 188.05 359.3 188.2 363.8 188.2 363.35 187.15 363.8 186.85 362.55 186.4 360.8 185.95 360.35 186.05 359.9 186.25 359.45 185.65 Q359.3 186.3 357.5 186.85 356.4 187.15 356.0 187.6 L354.95 185.35 Q356.15 184.6 357.55 184.25 L360.5 183.85 M363.2 190.55 L362.45 189.7 Q362.3 190.25 361.75 190.45 L359.3 190.6 Q358.25 190.7 357.4 191.4 356.6 192.1 356.6 193.0 356.85 193.55 357.8 193.75 L359.0 194.2 Q360.45 194.2 361.8 193.2 L363.95 191.2 363.2 190.55 M357.8 189.95 L357.85 189.45 Q357.85 189.25 358.1 189.25 L357.8 189.25 357.8 189.95 M373.25 188.2 L373.0 189.65 372.8 190.45 Q372.8 190.8 373.7 191.05 L374.0 190.45 375.4 192.65 Q376.4 194.05 377.45 194.05 377.65 192.75 378.5 191.25 L380.0 188.5 379.45 188.3 378.65 188.2 378.65 186.75 Q378.7 186.1 379.1 185.95 L384.8 186.1 384.95 188.05 382.85 188.5 379.95 193.35 Q379.05 195.0 378.65 196.45 L378.5 196.3 376.1 199.75 376.95 199.85 378.05 199.9 378.05 202.15 372.75 202.2 369.2 202.6 369.2 200.2 373.25 199.9 374.45 198.45 Q375.2 197.7 375.2 196.9 374.85 196.55 374.5 194.8 374.2 193.0 372.65 193.0 372.65 192.5 372.05 191.75 L371.45 190.75 371.75 190.3 372.2 190.2 372.65 190.0 372.35 189.4 371.8 189.7 371.15 190.0 370.15 189.1 Q369.5 188.65 368.6 188.65 L368.6 186.4 369.4 186.4 372.25 186.35 374.6 186.1 374.45 188.2 373.25 188.2 M373.55 191.95 L373.55 193.0 373.7 193.0 373.7 191.95 373.55 191.95 M451.5 210.15 L451.8 212.55 Q451.35 213.0 450.6 213.0 L450.45 212.55 449.95 212.6 Q449.65 212.6 449.4 213.0 L450.45 213.25 451.8 213.45 451.15 214.75 Q450.8 215.25 449.85 215.25 L449.85 214.95 450.6 214.5 450.6 213.6 449.7 213.5 448.5 213.45 448.8 213.15 447.65 212.7 446.4 212.55 Q444.6 212.55 442.95 213.75 442.95 214.35 443.35 214.85 L444.15 215.55 445.1 215.7 446.1 215.85 446.4 216.3 446.1 216.85 445.95 217.2 446.4 217.65 447.6 216.65 447.9 215.85 Q448.4 216.2 450.1 216.35 451.8 216.5 452.4 217.35 L452.1 219.85 451.5 221.4 448.9 222.8 445.95 223.35 445.55 223.35 444.15 223.25 442.95 222.9 442.65 223.2 442.65 223.5 Q442.35 223.8 442.05 223.8 L441.2 223.5 440.55 223.35 Q440.25 223.05 440.25 222.75 440.25 222.4 440.6 221.75 L441.0 220.95 441.45 220.65 Q440.8 220.65 440.65 219.9 L440.4 218.4 441.6 218.15 442.35 217.95 Q442.8 217.95 442.85 218.2 L442.95 219.0 442.6 219.0 442.05 218.85 Q442.05 219.5 443.05 220.0 L443.7 220.5 444.9 221.05 446.25 221.25 Q447.75 221.25 450.0 220.35 L451.95 219.45 451.45 219.25 450.9 219.0 450.6 219.15 Q450.45 218.4 448.35 218.25 L446.4 218.1 446.4 217.65 445.2 217.65 445.5 217.5 444.15 217.6 443.1 217.65 441.45 216.45 Q440.55 215.65 440.4 214.5 L440.45 213.55 440.7 212.25 Q441.1 212.25 441.35 211.9 L441.6 211.5 Q442.45 210.9 443.5 210.6 L445.65 210.3 447.8 210.5 449.85 211.05 Q449.85 210.45 450.25 210.3 L451.5 210.15 M450.9 211.05 L450.0 211.05 Q450.0 211.5 450.3 211.85 L450.9 212.55 450.9 211.05 M434.7 210.75 L436.45 211.65 Q438.4 212.6 438.9 213.75 L439.2 215.25 439.5 216.9 Q439.35 216.9 439.05 217.2 L439.05 217.8 437.1 217.95 435.9 218.25 431.45 218.3 428.55 218.4 Q428.75 219.45 429.5 220.25 430.05 220.9 431.1 221.55 L431.8 221.8 432.75 221.85 Q434.0 221.85 435.8 220.9 L438.9 219.3 Q438.9 219.9 439.25 220.45 L439.95 221.55 437.75 222.35 Q436.4 222.75 435.9 223.35 435.7 222.6 434.55 222.6 L434.4 222.75 434.55 223.05 434.1 223.2 434.1 223.8 430.5 223.4 Q429.05 223.0 428.1 222.15 427.1 221.3 426.45 220.05 425.7 218.65 425.7 217.35 426.05 215.15 426.6 214.0 427.05 213.05 427.8 212.4 429.15 211.5 430.65 211.15 L434.7 210.75 M432.0 212.85 L430.75 213.8 Q429.4 214.8 429.0 215.7 L436.5 215.7 436.5 215.25 Q436.05 214.3 435.1 213.8 L432.0 213.0 432.0 212.85 M413.95 211.45 L415.65 212.55 417.25 211.8 419.1 211.2 419.75 211.25 420.3 211.5 Q421.75 211.9 422.35 213.1 422.85 214.05 422.85 215.7 L422.8 217.95 422.7 219.45 Q422.7 220.7 423.05 221.35 423.35 222.0 424.35 222.15 L424.4 223.2 424.5 223.95 420.15 223.95 420.15 216.6 420.0 214.35 419.25 213.6 Q418.45 213.6 417.7 214.2 416.95 214.75 416.85 215.55 L416.85 217.9 416.7 218.85 417.6 219.15 417.25 219.9 Q417.05 220.5 416.7 220.5 L416.6 220.7 Q416.6 220.95 416.95 221.25 L417.75 221.55 418.5 221.55 418.25 222.55 418.2 223.95 414.6 223.8 414.3 214.35 Q414.0 213.85 413.35 213.7 L411.75 213.6 411.2 214.6 Q410.7 215.25 410.7 215.55 L410.85 216.0 411.0 216.2 411.0 216.15 411.3 216.45 411.0 216.2 410.7 216.6 410.9 216.85 411.3 216.9 410.95 218.75 410.55 220.5 410.65 221.0 410.85 221.55 411.9 221.75 412.8 221.85 413.1 223.95 409.5 224.25 409.5 223.95 406.05 223.8 406.35 221.55 406.9 221.75 407.25 221.85 Q408.1 221.85 408.25 220.25 L408.45 218.55 Q408.45 217.65 408.6 216.9 L408.9 215.25 408.75 214.6 408.3 214.05 406.05 214.05 406.15 212.85 406.35 211.65 410.7 211.65 411.15 212.1 411.8 211.65 Q412.3 211.2 412.8 211.2 L413.95 211.45 M405.75 223.5 L400.95 223.35 Q400.7 222.45 400.5 222.45 L399.25 223.35 398.25 223.8 394.95 223.4 Q393.6 223.0 392.4 222.0 391.8 221.3 391.75 220.2 L391.65 218.4 393.55 216.85 Q394.7 216.0 395.85 216.0 L396.0 216.15 396.45 215.7 396.75 215.4 396.75 215.55 401.25 215.55 400.8 214.5 401.25 214.2 400.0 213.75 Q398.9 213.3 398.25 213.3 L397.8 213.4 397.35 213.6 396.9 213.0 Q396.75 213.65 394.95 214.2 393.85 214.5 393.45 214.95 L392.4 212.7 Q393.6 211.95 395.0 211.6 L397.95 211.2 400.75 211.55 Q402.0 211.9 403.2 212.7 L403.5 214.6 403.65 216.9 403.05 217.05 403.65 217.2 403.65 221.1 404.55 221.35 406.05 221.4 405.75 223.5 M389.85 214.35 L390.05 214.45 390.3 214.5 390.75 214.05 390.7 214.65 388.75 214.85 Q388.5 215.0 388.5 215.85 L388.5 216.45 388.0 216.5 387.45 216.9 388.8 217.8 387.75 217.8 387.45 217.35 387.45 218.4 387.75 219.3 386.85 219.75 388.8 220.05 388.8 221.9 Q388.8 222.25 388.95 222.45 L388.8 222.45 388.55 225.0 Q388.5 227.2 387.0 227.7 387.0 227.25 386.4 227.25 L385.85 227.45 385.35 227.55 Q385.35 228.45 384.25 228.75 L382.5 229.2 Q382.15 229.0 381.8 228.95 L380.8 228.9 379.85 228.85 379.2 228.6 379.5 228.3 379.05 228.15 379.05 227.55 379.8 227.4 380.1 226.95 380.1 226.35 380.9 226.5 381.6 226.65 381.8 227.0 382.05 227.25 382.35 226.95 382.55 227.3 383.05 227.85 382.95 228.15 383.05 228.3 383.85 227.55 383.4 226.95 384.9 226.25 Q386.0 225.5 386.1 224.4 L386.1 223.95 386.55 223.8 384.65 224.05 383.1 224.25 381.75 224.7 Q381.1 224.7 380.3 224.2 L378.0 222.9 376.75 220.9 Q376.05 219.7 376.05 218.55 L376.65 218.4 376.45 218.3 376.05 218.25 376.05 216.75 376.45 216.0 Q376.75 214.8 377.1 214.5 378.3 213.3 379.45 212.65 380.8 211.95 382.2 211.95 L384.4 212.4 385.5 213.15 385.65 212.4 388.35 212.45 390.9 212.85 390.9 213.45 Q390.5 213.45 390.3 213.85 L389.85 214.35 M386.9 214.65 L386.85 214.95 386.85 215.4 386.3 215.6 386.2 215.65 386.1 215.65 386.05 215.7 385.8 215.7 384.45 215.3 Q382.85 214.5 381.75 214.5 380.5 214.5 379.8 215.7 L378.75 217.95 Q378.85 218.75 379.25 219.65 L379.95 221.25 Q380.55 221.85 381.95 222.05 L384.15 222.15 384.1 222.2 384.0 222.45 384.45 222.45 384.15 222.3 Q384.65 222.05 385.2 220.85 385.8 219.7 386.1 219.45 L385.9 217.45 385.5 216.15 Q385.75 215.8 386.05 215.7 L386.2 215.65 387.25 215.55 387.3 215.7 387.4 215.55 387.75 215.55 387.45 215.4 387.4 215.55 387.25 215.55 387.2 215.2 Q387.2 214.7 386.9 214.65 L387.0 214.5 386.85 214.65 386.9 214.65 M388.55 219.15 L388.65 219.0 388.8 218.45 388.95 218.85 388.55 219.15 M394.05 220.35 Q394.3 220.9 395.25 221.1 396.2 221.3 396.45 221.55 397.9 221.55 399.25 220.55 L401.4 218.55 Q401.05 218.55 400.65 217.9 L399.9 217.05 Q399.75 217.6 399.2 217.8 L396.75 217.95 Q395.7 218.05 394.85 218.75 394.05 219.45 394.05 220.35 M395.25 217.3 L395.3 216.8 395.55 216.6 395.25 216.6 395.25 217.3 M378.55 226.25 L378.5 226.25 378.4 226.3 378.45 226.2 378.55 226.25 379.65 226.2 379.5 226.8 378.95 226.55 378.55 226.25 M377.25 228.15 L378.0 227.25 378.45 227.85 377.85 228.05 377.25 228.15 M386.9 223.1 L386.4 223.2 387.15 223.35 387.45 222.9 387.15 222.75 386.9 223.1 M386.55 225.15 L386.55 225.9 386.85 225.9 386.85 225.15 386.55 225.15 M353.55 211.15 L357.6 210.75 359.35 211.65 Q361.3 212.6 361.8 213.75 L362.1 215.25 362.4 216.9 Q362.25 216.9 361.95 217.2 L361.95 217.8 360.0 217.95 358.8 218.25 354.35 218.3 351.45 218.4 Q351.65 219.45 352.4 220.25 352.95 220.9 354.0 221.55 L354.7 221.8 355.65 221.85 Q356.9 221.85 358.7 220.9 L361.8 219.3 Q361.8 219.9 362.15 220.45 L362.85 221.55 360.65 222.35 Q359.3 222.75 358.8 223.35 358.6 222.6 357.45 222.6 L357.3 222.75 357.45 223.05 357.0 223.2 357.0 223.8 353.4 223.4 Q351.95 223.0 351.0 222.15 350.0 221.3 349.35 220.05 348.6 218.65 348.6 217.35 348.95 215.15 349.5 214.0 349.95 213.05 350.7 212.4 352.05 211.5 353.55 211.15 M351.9 215.7 L359.4 215.7 359.4 215.25 Q358.95 214.3 358.0 213.8 L354.9 213.0 354.9 212.85 353.65 213.8 Q352.3 214.8 351.9 215.7 M345.45 216.3 L345.45 221.7 346.45 221.8 347.85 221.85 347.6 223.75 Q347.3 224.25 346.5 224.25 L343.05 223.95 340.65 223.8 Q340.65 222.55 341.25 222.05 341.8 221.55 343.2 221.55 L343.5 221.55 343.55 218.9 343.65 217.35 343.4 215.1 Q343.1 214.1 342.45 213.45 L339.15 213.8 Q337.75 214.25 337.05 215.7 L337.05 221.55 339.15 221.7 339.15 223.8 332.75 224.25 333.3 223.6 Q334.15 222.05 334.65 221.85 L334.8 214.35 Q334.45 214.1 333.65 213.95 332.9 213.8 332.7 213.0 L332.7 211.8 337.05 211.5 Q337.05 212.15 337.5 212.4 338.05 211.85 339.05 211.45 L340.95 211.05 341.55 211.15 342.15 211.35 342.2 211.7 342.45 211.95 Q342.45 211.5 342.75 211.5 L343.45 211.75 344.1 211.95 Q344.9 212.65 345.2 213.7 L345.45 216.3 M329.45 198.7 L328.85 198.7 329.3 200.05 Q329.3 199.7 329.7 199.3 L329.9 199.0 329.8 198.9 329.45 198.7 M324.75 209.7 L324.6 205.35 328.05 205.35 328.05 208.05 Q328.05 209.15 328.2 209.55 L324.75 209.7 M325.35 214.05 L321.75 213.75 321.75 211.35 328.2 211.35 328.05 221.55 332.7 221.85 332.7 223.95 328.2 223.5 321.3 223.95 Q321.1 223.6 321.05 222.85 L321.0 221.85 323.9 221.7 325.65 221.1 325.35 214.05 M173.05 184.0 L172.6 184.3 174.15 184.1 175.3 183.85 175.85 184.0 176.5 184.45 176.75 183.9 176.95 183.4 178.3 183.65 179.5 183.85 178.75 184.3 178.9 186.55 179.05 188.2 Q179.05 188.8 178.7 189.05 L177.25 189.25 176.65 189.25 Q176.65 188.0 176.05 187.1 175.45 186.2 174.85 186.0 L173.95 185.7 173.35 185.65 Q172.25 185.65 171.2 186.2 170.1 186.8 169.15 187.75 L168.4 190.75 Q168.4 191.4 168.85 192.1 169.45 193.1 170.75 193.8 171.85 194.4 173.2 194.65 L174.5 194.4 176.2 193.75 177.7 192.25 177.55 192.1 Q178.1 192.1 178.6 192.85 L179.5 193.75 178.0 194.8 177.8 194.4 177.55 194.2 177.25 194.45 Q177.1 194.65 177.1 194.8 L177.25 195.1 176.05 196.2 Q175.15 196.75 174.1 196.75 L171.95 196.6 169.75 196.15 Q168.1 195.1 167.15 193.7 166.15 192.25 166.15 190.6 L165.85 189.85 166.35 189.7 167.05 189.55 167.25 189.5 167.65 189.85 167.9 189.75 167.95 189.7 167.95 188.95 166.45 188.8 Q166.45 187.55 167.45 186.45 L169.15 184.6 170.05 185.2 Q170.05 184.55 170.55 184.3 L172.3 183.55 173.05 183.55 173.05 184.0 M180.7 179.2 L183.2 178.95 185.5 178.6 185.5 188.35 Q186.2 188.35 187.05 187.6 L188.5 186.4 Q187.8 186.4 187.6 185.9 187.45 185.4 187.45 183.55 L194.65 183.85 194.65 186.4 Q192.7 186.4 191.05 187.3 L188.65 188.8 Q188.75 189.5 189.8 190.5 L191.5 192.25 192.7 193.6 194.35 194.8 194.65 194.5 194.5 194.15 194.35 193.9 Q195.3 193.9 195.7 194.5 L196.15 195.7 Q195.95 195.8 195.9 196.0 L195.85 196.3 195.25 196.3 193.85 196.2 193.45 195.7 Q193.2 196.15 192.55 196.15 L191.85 195.95 191.35 195.85 191.25 195.35 191.05 194.8 190.45 195.85 Q190.45 195.4 190.0 195.4 189.5 195.4 189.35 195.2 L189.25 194.65 189.25 193.75 189.4 193.9 189.6 193.75 189.7 193.6 189.4 193.1 189.25 192.7 Q188.75 192.65 187.9 191.5 187.1 190.3 186.55 190.3 186.1 190.3 185.65 190.75 L185.55 191.75 185.35 193.6 185.45 194.5 185.95 195.4 184.5 195.8 181.0 195.85 181.0 193.9 183.1 193.9 183.4 193.3 183.3 192.6 183.1 191.8 183.55 192.1 183.75 191.6 183.85 191.2 Q183.35 190.95 183.25 190.4 183.1 189.85 183.1 187.75 L183.1 186.75 183.05 183.3 182.65 181.0 180.7 181.45 180.7 179.2 M165.7 196.6 L161.2 196.15 154.3 196.6 Q154.1 196.25 154.05 195.5 L154.0 194.5 156.9 194.35 158.65 193.75 158.35 186.7 154.75 186.4 154.75 184.0 161.2 184.0 161.05 194.2 165.7 194.5 165.7 196.6 M177.65 187.25 L177.7 187.3 178.0 187.0 177.65 187.25 176.65 186.25 177.25 187.45 177.65 187.25 M216.55 179.35 L216.6 182.55 216.85 184.9 Q218.75 183.7 221.05 183.7 L222.3 183.75 223.3 184.0 Q224.45 184.85 224.9 186.3 225.25 187.45 225.25 189.25 L225.25 194.2 227.65 194.5 227.65 194.8 226.9 195.25 Q227.3 195.25 227.3 195.75 227.35 196.25 227.65 196.3 L224.7 196.5 220.15 196.6 220.6 194.2 222.55 194.5 222.4 186.7 Q222.0 185.95 220.8 185.75 219.6 185.55 219.4 184.9 L218.9 185.05 218.5 185.35 Q218.5 186.05 217.7 186.8 L216.25 188.2 216.25 194.2 218.65 194.5 218.65 196.6 216.5 196.45 214.6 196.3 212.2 196.75 211.75 194.65 212.95 194.5 213.25 195.6 Q213.5 196.3 214.15 196.3 L214.6 196.15 213.7 195.1 214.1 195.1 214.45 194.8 214.25 194.35 214.15 193.75 214.3 192.55 214.45 191.5 214.35 190.9 214.15 190.3 214.3 187.0 214.45 184.45 Q214.45 182.75 214.0 181.6 L212.1 181.35 Q211.7 181.05 211.6 180.1 211.6 179.8 211.75 179.7 L212.6 179.6 213.45 179.5 214.0 179.05 216.55 179.35 M210.25 184.75 L210.25 185.35 209.8 184.95 Q209.8 184.75 210.25 184.75 M242.5 184.0 L245.05 184.0 246.2 183.9 247.9 183.85 247.55 184.85 247.15 185.5 247.6 185.95 248.2 185.8 248.8 184.9 Q249.95 183.55 252.4 183.55 L254.2 183.8 Q255.05 184.05 255.7 184.6 L255.4 185.05 Q255.4 185.4 255.75 185.8 L256.15 186.4 255.7 186.85 254.85 186.85 254.2 187.0 253.7 186.15 252.85 185.5 Q251.5 185.95 250.15 187.0 248.85 188.0 248.05 189.25 248.05 191.15 248.2 192.35 248.35 193.55 248.8 194.2 L253.0 193.9 253.0 196.3 245.8 196.3 245.7 196.0 245.5 195.7 Q245.3 196.05 244.75 196.1 L242.2 196.15 242.2 193.9 245.2 193.9 245.2 186.4 243.85 186.15 242.65 185.95 242.75 185.85 242.95 185.65 242.55 185.3 242.5 184.0 M238.4 184.3 Q240.35 185.25 240.85 186.4 L241.15 187.9 241.45 189.55 241.0 189.85 241.0 190.45 239.05 190.6 237.85 190.9 233.4 190.95 230.5 191.05 Q230.7 192.1 231.45 192.9 L233.05 194.2 233.75 194.45 234.7 194.5 Q235.95 194.5 237.75 193.55 L240.85 191.95 Q240.85 192.55 241.2 193.1 L241.9 194.2 239.7 195.0 Q238.35 195.4 237.85 196.0 237.65 195.25 236.5 195.25 L236.35 195.4 236.5 195.7 236.05 195.85 236.05 196.45 232.45 196.05 Q231.0 195.65 230.05 194.8 229.05 193.95 228.4 192.7 227.65 191.3 227.65 190.0 228.0 187.8 228.55 186.65 229.0 185.7 229.75 185.05 231.1 184.15 232.6 183.8 L236.65 183.4 238.4 184.3 M230.95 188.35 L238.45 188.35 238.45 187.9 Q238.0 186.95 237.05 186.45 L233.95 185.65 233.95 185.5 232.7 186.45 Q231.35 187.45 230.95 188.35 M261.85 183.8 L265.9 183.4 267.65 184.3 Q269.55 185.25 270.05 186.4 L270.35 187.9 270.65 189.55 Q270.5 189.55 270.2 189.85 L270.2 190.45 268.25 190.6 267.1 190.9 262.65 190.95 259.75 191.05 Q259.95 192.1 260.7 192.9 L262.3 194.2 263.0 194.45 263.95 194.5 Q265.2 194.5 267.0 193.55 L270.05 191.95 Q270.05 192.55 270.4 193.1 L271.1 194.2 268.9 195.0 Q267.6 195.4 267.1 196.0 266.9 195.25 265.75 195.25 L265.6 195.4 265.75 195.7 265.3 195.85 265.3 196.45 261.7 196.05 Q260.25 195.65 259.3 194.8 258.3 193.95 257.65 192.7 256.9 191.3 256.9 190.0 257.25 187.8 257.8 186.65 258.25 185.7 259.0 185.05 260.35 184.15 261.85 183.8 M254.5 184.5 L254.2 184.6 254.4 184.85 254.8 185.05 254.8 184.45 254.5 184.5 M260.2 188.35 L267.7 188.35 267.7 187.9 Q267.25 186.95 266.3 186.45 265.7 186.1 263.2 185.65 L263.2 185.5 261.95 186.45 Q260.6 187.45 260.2 188.35 M303.25 184.5 L303.5 184.3 Q302.9 184.3 302.9 184.75 L303.25 184.5 M303.45 183.25 L304.4 183.1 306.65 183.6 308.9 184.15 310.7 185.35 Q312.05 187.4 312.05 189.85 L311.95 191.35 311.45 192.85 310.85 193.6 311.0 193.75 309.9 194.85 308.6 195.55 Q308.15 195.5 307.3 194.3 L306.65 193.75 308.15 193.2 Q309.05 192.65 309.35 191.8 L309.55 190.8 309.65 189.85 Q309.65 188.0 308.3 186.85 L307.0 185.8 Q306.15 185.35 305.3 185.35 303.55 185.35 302.3 186.35 301.65 186.8 300.5 188.35 L300.25 189.1 300.2 189.85 Q300.2 191.1 300.7 192.05 301.2 193.0 302.15 193.6 L304.85 194.2 304.55 196.45 303.3 196.15 Q302.9 195.85 302.9 195.1 L301.7 195.25 302.45 196.0 Q300.75 195.55 299.45 194.2 298.15 192.85 297.8 191.05 297.8 190.35 298.1 189.8 L298.7 188.8 298.55 188.5 298.55 188.2 299.1 188.15 299.6 188.05 299.05 187.6 Q298.55 187.3 298.55 186.7 L300.2 185.1 Q301.3 183.85 302.6 183.85 L303.45 183.25 M295.35 185.55 Q295.0 185.95 294.2 185.95 L292.5 185.95 290.9 186.1 288.95 186.1 288.8 190.45 Q288.5 190.45 288.35 190.6 L288.85 191.0 288.95 192.1 288.8 192.1 289.1 193.2 289.25 193.9 290.45 194.05 Q291.45 194.15 291.8 194.5 L291.8 195.85 Q292.5 195.8 292.9 194.85 293.25 193.9 294.2 193.9 L293.85 193.65 293.45 193.6 296.75 192.4 Q297.05 192.7 297.15 193.35 L297.2 194.8 295.95 195.2 294.2 195.55 292.5 196.1 290.45 196.3 289.2 196.25 288.35 196.0 Q287.2 195.25 286.75 194.15 286.25 192.95 286.25 191.5 L286.35 188.25 286.4 186.25 285.35 186.15 284.0 186.1 284.3 183.7 285.65 183.55 Q286.15 183.5 286.4 183.25 286.4 181.25 286.75 180.75 287.1 180.25 288.65 180.25 L288.5 181.5 288.05 182.65 Q288.4 183.35 289.15 183.55 L292.4 183.7 295.7 183.7 Q295.7 185.2 295.35 185.55 M288.35 185.05 Q288.3 185.3 287.7 185.4 287.1 185.5 287.0 185.8 L287.3 186.1 287.75 186.55 287.9 186.4 287.45 185.95 287.3 186.1 Q287.3 185.65 287.8 185.55 288.35 185.4 288.35 185.05 M296.6 193.15 L295.55 193.15 295.55 193.45 296.6 193.45 296.6 193.15 M305.3 195.7 L305.9 195.55 305.3 194.2 306.45 193.85 305.9 194.5 306.8 195.1 306.65 195.4 Q306.65 195.7 307.55 195.7 L306.9 195.9 305.3 196.45 305.3 195.7 M135.85 183.85 L136.4 184.0 137.05 184.45 137.3 183.9 137.5 183.4 138.85 183.65 140.05 183.85 Q139.7 184.1 139.3 184.3 L139.45 186.55 139.6 188.2 Q139.6 188.8 139.25 189.05 L137.8 189.25 137.2 189.25 Q137.2 188.0 136.6 187.1 136.0 186.2 135.4 186.0 L134.5 185.7 133.9 185.65 Q132.8 185.65 131.75 186.2 130.65 186.8 129.7 187.75 L128.95 190.75 Q128.95 191.4 129.4 192.1 130.0 193.1 131.3 193.8 L133.75 194.65 135.05 194.4 136.75 193.75 138.25 192.25 138.1 192.1 Q138.65 192.1 139.15 192.85 L140.05 193.75 138.55 194.8 138.35 194.4 138.1 194.2 137.8 194.45 Q137.65 194.65 137.65 194.8 L137.8 195.1 136.6 196.2 Q135.7 196.75 134.65 196.75 L132.5 196.6 130.3 196.15 Q128.65 195.1 127.7 193.7 126.7 192.25 126.7 190.6 L126.4 189.85 126.9 189.7 127.6 189.55 127.8 189.5 128.2 189.85 128.45 189.75 128.5 189.7 128.5 188.95 127.0 188.8 Q127.0 187.55 128.0 186.45 L129.7 184.6 130.6 185.2 Q130.6 184.55 131.1 184.3 L132.85 183.55 133.6 183.55 133.6 184.0 Q133.45 184.0 133.15 184.3 L134.7 184.1 135.85 183.85 M138.55 187.0 L138.2 187.25 137.2 186.25 137.8 187.45 138.2 187.25 138.25 187.3 138.55 187.0 M141.4 194.65 L146.05 194.5 146.35 181.9 143.95 181.9 142.3 181.7 Q141.55 181.3 141.55 180.1 141.55 179.7 141.95 179.55 L143.65 179.35 148.9 179.35 148.9 194.2 153.85 194.5 153.75 195.45 153.7 196.6 151.45 196.6 148.0 196.45 144.4 196.5 141.4 196.9 141.4 194.65 M161.05 180.7 Q161.05 181.8 161.2 182.2 L157.75 182.35 157.6 178.0 161.05 178.0 161.05 180.7 M161.1 207.0 L162.8 206.7 164.5 206.9 Q165.45 207.1 166.25 207.45 167.75 208.85 168.45 211.1 169.1 213.1 169.1 215.55 L168.65 219.9 Q167.5 223.8 163.55 224.25 L161.5 223.8 Q160.25 223.35 159.65 222.45 158.7 221.15 158.2 219.4 157.7 217.65 157.7 215.7 157.7 213.55 158.25 211.55 158.8 209.55 159.8 208.05 160.3 207.35 161.1 207.0 M142.55 208.5 L140.65 208.3 137.8 210.0 137.25 208.9 Q136.95 208.1 136.5 207.8 137.45 206.85 139.15 206.5 L144.25 206.2 146.3 207.55 Q147.45 208.45 147.9 209.5 L147.9 213.1 147.25 213.1 Q147.25 212.25 146.35 212.05 145.4 211.85 145.4 211.15 L144.95 211.15 145.25 210.45 144.8 209.7 144.25 209.0 142.55 208.5 M143.45 213.45 Q145.05 212.3 145.4 212.3 145.9 212.3 146.25 212.6 L145.75 213.1 Q146.65 213.25 146.8 214.3 146.95 215.3 147.9 215.45 148.8 215.9 148.95 217.6 149.1 219.35 149.55 219.7 L149.15 220.15 149.05 221.35 Q148.25 223.3 146.0 224.25 144.15 225.0 141.6 225.0 L141.5 224.5 141.3 224.0 140.95 224.5 136.65 223.05 137.4 221.7 Q137.85 220.9 138.3 220.9 L140.45 221.85 142.95 222.35 145.25 221.85 Q146.0 221.25 146.2 220.35 L146.4 218.05 144.4 216.55 Q143.05 215.95 140.95 215.95 L140.95 213.6 141.5 213.85 142.1 213.95 Q142.75 213.95 143.45 213.45 M151.4 220.6 L151.75 220.3 152.8 220.15 153.5 219.95 153.95 220.1 154.5 220.5 154.9 220.9 155.15 221.65 155.0 224.65 154.9 225.0 154.7 225.3 154.7 225.85 154.45 226.9 154.35 227.1 153.5 227.7 152.6 228.7 151.7 229.1 151.15 229.1 150.6 229.0 150.4 228.65 150.45 228.55 150.6 228.35 151.05 228.0 151.3 227.55 151.8 226.85 151.95 226.25 151.95 225.25 Q151.95 224.8 151.45 224.3 L151.2 223.85 151.0 223.45 Q150.7 223.2 150.6 222.6 L150.6 222.05 150.8 221.65 151.15 221.15 Q151.2 220.8 151.4 220.6 M160.4 214.95 Q160.4 217.95 161.3 220.65 L162.45 221.5 163.4 221.7 163.9 221.6 164.45 221.4 Q165.5 220.65 166.05 219.35 166.55 218.05 166.55 216.45 L166.2 213.3 165.5 210.45 Q165.35 209.8 164.85 209.45 164.3 209.1 163.55 209.1 L162.55 209.3 161.75 209.85 Q161.0 210.9 160.7 212.2 160.4 213.55 160.4 214.95 M122.3 214.2 L121.45 214.2 120.8 214.35 120.3 213.5 119.45 212.85 116.75 214.35 Q115.45 215.35 114.65 216.6 114.65 218.5 114.8 219.7 114.95 220.9 115.4 221.55 L119.6 221.25 119.6 223.65 112.4 223.65 112.3 223.35 112.1 223.05 111.35 223.45 108.8 223.5 108.8 221.25 111.8 221.25 111.8 213.75 110.45 213.5 109.25 213.3 109.35 213.2 109.55 213.0 109.15 212.65 109.1 211.35 111.65 211.35 112.8 211.25 114.5 211.2 114.15 212.2 113.75 212.85 114.2 213.3 114.8 213.15 115.4 212.25 Q116.55 210.9 119.0 210.9 L120.8 211.15 Q121.65 211.4 122.3 211.95 L122.0 212.4 Q122.0 212.75 122.35 213.15 L122.75 213.75 122.3 214.2 M107.75 215.25 L108.05 216.9 Q107.9 216.9 107.6 217.2 L107.6 217.8 105.65 217.95 104.45 218.25 100.0 218.3 97.1 218.4 Q97.3 219.45 98.05 220.25 L99.65 221.55 100.35 221.8 101.3 221.85 Q102.55 221.85 104.35 220.9 L107.45 219.3 Q107.45 219.9 107.8 220.45 L108.5 221.55 106.3 222.35 Q104.95 222.75 104.45 223.35 104.25 222.6 103.1 222.6 L102.95 222.75 103.1 223.05 102.65 223.2 102.65 223.8 99.05 223.4 Q97.6 223.0 96.65 222.15 95.65 221.3 95.0 220.05 94.25 218.65 94.25 217.35 94.6 215.15 95.15 214.0 95.6 213.05 96.35 212.4 97.7 211.5 99.2 211.15 L103.25 210.75 105.0 211.65 Q106.95 212.6 107.45 213.75 L107.75 215.25 M105.05 215.25 Q104.6 214.3 103.65 213.8 L100.55 213.0 100.55 212.85 99.3 213.8 Q97.95 214.8 97.55 215.7 L105.05 215.7 105.05 215.25 M121.0 212.2 L121.4 212.4 121.4 211.8 121.1 211.85 120.8 211.95 121.0 212.2 M86.4 212.1 L86.45 213.6 85.6 213.6 84.95 213.75 Q84.95 214.6 85.45 215.8 L86.45 217.65 Q86.3 217.5 86.0 217.5 L85.55 217.8 Q86.2 217.8 86.85 218.55 L88.25 220.05 88.6 219.6 88.85 218.7 91.55 217.5 90.4 217.55 89.45 217.65 Q89.65 216.7 90.25 215.5 L91.25 213.6 89.3 213.3 89.45 210.9 92.0 211.2 91.55 211.65 93.65 211.55 94.25 211.2 93.95 213.75 93.8 213.75 89.3 223.65 Q87.7 223.65 86.9 223.1 86.1 222.55 85.85 221.55 L85.55 220.35 84.95 219.3 85.4 219.3 85.35 218.85 84.95 218.55 84.5 218.55 84.45 218.25 84.35 218.1 84.65 217.8 84.1 217.65 83.9 217.5 82.4 215.2 Q81.55 213.75 79.7 213.75 L79.7 211.35 86.15 211.2 86.4 212.1 M93.05 213.75 L92.9 213.9 92.0 213.15 92.75 214.2 93.05 213.75 M70.65 210.6 L71.6 210.45 73.85 210.95 76.1 211.5 77.9 212.7 Q79.25 214.75 79.25 217.2 L79.15 218.7 78.65 220.2 78.05 220.95 78.2 221.1 77.1 222.2 75.8 222.9 Q75.35 222.85 74.5 221.65 L73.85 221.1 75.35 220.55 Q76.25 220.0 76.55 219.15 L76.75 218.15 76.85 217.2 Q76.85 215.35 75.5 214.2 75.0 213.6 74.2 213.15 73.35 212.7 72.5 212.7 70.75 212.7 69.5 213.7 68.85 214.15 67.7 215.7 L67.45 216.45 67.4 217.2 Q67.4 218.45 67.9 219.4 68.4 220.35 69.35 220.95 L72.05 221.55 71.75 223.8 70.5 223.5 Q70.1 223.2 70.1 222.45 L68.9 222.6 69.65 223.35 Q67.95 222.9 66.65 221.55 65.35 220.2 65.0 218.4 65.0 217.7 65.3 217.15 L65.9 216.15 65.75 215.85 65.75 215.55 66.3 215.5 66.8 215.4 66.25 214.95 Q65.75 214.65 65.75 214.05 L67.4 212.45 Q68.5 211.2 69.8 211.2 L70.65 210.6 M70.1 212.1 L70.45 211.85 70.7 211.65 Q70.1 211.65 70.1 212.1 M74.0 222.45 L73.85 222.75 Q73.85 223.05 74.75 223.05 L74.1 223.25 Q73.05 223.8 72.5 223.8 L72.5 223.05 73.1 222.9 72.5 221.55 73.65 221.2 73.1 221.85 74.0 222.45 M308.95 206.9 L310.65 206.7 315.9 206.7 315.9 221.55 320.85 221.85 320.75 222.8 320.7 223.95 318.45 223.95 315.0 223.8 311.4 223.85 308.4 224.25 308.4 222.0 313.05 221.85 313.35 209.25 310.95 209.25 309.3 209.05 Q308.55 208.65 308.55 207.45 308.55 207.05 308.95 206.9 M307.5 221.85 L307.25 223.75 Q306.95 224.25 306.15 224.25 L302.7 223.95 300.3 223.8 Q300.3 222.55 300.9 222.05 301.45 221.55 302.85 221.55 L303.15 221.55 303.2 218.9 303.3 217.35 303.05 215.1 Q302.75 214.1 302.1 213.45 L298.8 213.8 Q297.4 214.25 296.7 215.7 L296.7 221.55 298.8 221.7 298.8 223.8 292.4 224.25 292.95 223.6 Q293.8 222.05 294.3 221.85 L294.45 214.35 Q294.1 214.1 293.3 213.95 292.55 213.8 292.35 213.0 L292.35 211.8 296.7 211.5 Q296.7 212.15 297.15 212.4 L298.7 211.45 Q299.7 211.05 300.6 211.05 L301.2 211.15 301.8 211.35 301.85 211.7 302.1 211.95 Q302.1 211.5 302.4 211.5 L303.1 211.75 303.75 211.95 Q304.55 212.65 304.85 213.7 L305.1 216.3 305.1 221.7 306.1 221.8 307.5 221.85 M290.55 212.7 Q291.9 214.75 291.9 217.2 L291.8 218.7 291.3 220.2 290.7 220.95 290.85 221.1 289.75 222.2 Q289.15 222.65 288.45 222.9 288.0 222.85 287.15 221.65 L286.5 221.1 288.0 220.55 Q288.9 220.0 289.2 219.15 L289.4 218.15 289.5 217.2 Q289.5 215.35 288.15 214.2 L286.85 213.15 285.15 212.7 Q283.4 212.7 282.15 213.7 281.5 214.15 280.35 215.7 L280.1 216.45 280.05 217.2 Q280.05 218.45 280.55 219.4 281.05 220.35 282.0 220.95 L284.7 221.55 284.4 223.8 283.15 223.5 Q282.75 223.2 282.75 222.45 L281.55 222.6 282.3 223.35 Q280.6 222.9 279.3 221.55 278.0 220.2 277.65 218.4 277.65 217.7 277.95 217.15 L278.55 216.15 278.4 215.85 278.4 215.55 278.95 215.5 279.45 215.4 278.9 214.95 Q278.4 214.65 278.4 214.05 L280.05 212.45 Q281.15 211.2 282.45 211.2 282.85 210.75 283.3 210.6 L284.25 210.45 286.5 210.95 288.75 211.5 290.55 212.7 M286.65 222.45 L286.5 222.75 Q286.5 223.05 287.4 223.05 L286.75 223.25 Q285.7 223.8 285.15 223.8 L285.15 223.05 285.75 222.9 285.15 221.55 286.3 221.2 285.75 221.85 286.65 222.45 M263.75 215.25 L264.05 216.9 Q263.9 216.9 263.6 217.2 L263.6 217.8 261.65 217.95 260.45 218.25 256.0 218.3 253.1 218.4 Q253.3 219.45 254.05 220.25 L255.65 221.55 256.35 221.8 257.3 221.85 Q258.55 221.85 260.35 220.9 L263.45 219.3 Q263.45 219.9 263.8 220.45 L264.5 221.55 262.3 222.35 Q260.95 222.75 260.45 223.35 260.25 222.6 259.1 222.6 L258.95 222.75 259.1 223.05 258.65 223.2 258.65 223.8 255.05 223.4 Q253.6 223.0 252.65 222.15 251.65 221.3 251.0 220.05 250.25 218.65 250.25 217.35 250.6 215.15 251.15 214.0 251.6 213.05 252.35 212.4 253.7 211.5 255.2 211.15 L259.25 210.75 261.0 211.65 Q262.95 212.6 263.45 213.75 L263.75 215.25 M283.1 211.85 L283.35 211.65 Q282.75 211.65 282.75 212.1 L283.1 211.85 M249.5 215.25 L249.8 216.9 Q249.65 216.9 249.35 217.2 L249.35 217.8 247.4 217.95 246.2 218.25 241.75 218.3 238.85 218.4 Q239.05 219.45 239.8 220.25 L241.4 221.55 242.1 221.8 243.05 221.85 Q244.3 221.85 246.1 220.9 L249.2 219.3 Q249.2 219.9 249.55 220.45 L250.25 221.55 248.05 222.35 Q246.7 222.75 246.2 223.35 246.0 222.6 244.85 222.6 L244.7 222.75 244.85 223.05 244.4 223.2 244.4 223.8 240.8 223.4 Q239.35 223.0 238.4 222.15 237.4 221.3 236.75 220.05 236.0 218.65 236.0 217.35 236.35 215.15 236.9 214.0 237.35 213.05 238.1 212.4 239.45 211.5 240.95 211.15 L245.0 210.75 246.75 211.65 Q248.7 212.6 249.2 213.75 L249.5 215.25 M246.8 215.25 Q246.35 214.3 245.4 213.8 244.8 213.45 242.3 213.0 L242.3 212.85 241.05 213.8 Q239.7 214.8 239.3 215.7 L246.8 215.7 246.8 215.25 M261.05 215.25 Q260.6 214.3 259.65 213.8 259.05 213.45 256.55 213.0 L256.55 212.85 255.3 213.8 Q253.95 214.8 253.55 215.7 L261.05 215.7 261.05 215.25 M231.95 212.85 L229.25 214.35 Q227.95 215.35 227.15 216.6 227.15 218.5 227.3 219.7 227.45 220.9 227.9 221.55 L232.1 221.25 232.1 223.65 224.9 223.65 224.8 223.35 224.6 223.05 Q224.4 223.4 223.85 223.45 L221.3 223.5 221.3 221.25 224.3 221.25 224.3 213.75 222.95 213.5 221.75 213.3 221.85 213.2 222.05 213.0 221.65 212.65 221.6 211.35 224.15 211.35 225.3 211.25 227.0 211.2 Q227.0 211.7 226.65 212.2 L226.25 212.85 226.7 213.3 227.3 213.15 227.9 212.25 Q229.05 210.9 231.5 210.9 L233.3 211.15 Q234.15 211.4 234.8 211.95 L234.5 212.4 Q234.5 212.75 234.85 213.15 L235.25 213.75 234.8 214.2 233.95 214.2 233.3 214.35 232.8 213.5 231.95 212.85 M233.5 212.2 L233.9 212.4 233.9 211.8 233.6 211.85 233.3 211.95 233.5 212.2 M215.4 208.75 L214.7 208.85 Q214.45 208.9 214.25 209.1 213.8 209.2 213.75 209.65 L213.65 211.65 214.4 211.85 215.15 211.95 217.15 211.8 219.65 211.65 219.65 214.05 216.65 214.05 216.5 213.45 Q216.3 213.45 216.25 213.6 L216.2 214.05 216.2 214.15 215.6 214.15 215.6 214.05 215.9 213.5 216.2 212.7 216.15 212.35 215.6 212.25 214.85 213.65 Q214.35 214.4 213.65 214.5 L213.8 221.55 216.35 221.8 219.8 221.85 220.05 222.75 220.1 224.25 208.7 224.25 208.4 221.85 210.35 221.7 211.7 221.4 211.5 217.9 211.25 214.65 210.85 214.25 210.0 214.15 208.4 214.15 207.95 211.95 210.8 211.95 Q210.8 210.45 211.35 209.1 211.9 207.8 212.9 207.15 L214.65 206.55 216.65 206.4 219.1 206.65 221.0 206.7 Q220.75 207.9 220.2 208.5 219.6 209.1 218.6 209.1 L218.0 209.0 217.25 208.75 215.4 208.75 M191.75 207.45 Q193.25 208.85 193.95 211.1 194.6 213.1 194.6 215.55 194.6 217.85 194.15 219.9 193.0 223.8 189.05 224.25 L187.0 223.8 Q185.75 223.35 185.15 222.45 184.2 221.15 183.7 219.4 183.2 217.65 183.2 215.7 183.2 213.55 183.75 211.55 184.3 209.55 185.3 208.05 185.8 207.35 186.6 207.0 L188.3 206.7 190.0 206.9 Q190.95 207.1 191.75 207.45 M187.25 209.85 Q186.5 210.9 186.2 212.2 185.9 213.55 185.9 214.95 185.9 217.95 186.8 220.65 L187.95 221.5 188.9 221.7 189.4 221.6 189.95 221.4 Q191.0 220.65 191.55 219.35 192.05 218.05 192.05 216.45 L191.7 213.3 191.0 210.45 Q190.85 209.8 190.35 209.45 189.8 209.1 189.05 209.1 L188.05 209.3 Q187.6 209.5 187.25 209.85 M176.3 209.1 L175.3 209.3 174.5 209.85 Q173.75 210.9 173.45 212.2 173.15 213.55 173.15 214.95 173.15 217.95 174.05 220.65 L175.2 221.5 176.15 221.7 176.65 221.6 177.2 221.4 Q178.25 220.65 178.8 219.35 179.3 218.05 179.3 216.45 L178.95 213.3 178.25 210.45 Q178.1 209.8 177.6 209.45 177.05 209.1 176.3 209.1 M179.0 207.45 Q180.5 208.85 181.2 211.1 181.85 213.1 181.85 215.55 L181.4 219.9 Q180.25 223.8 176.3 224.25 L174.25 223.8 Q173.0 223.35 172.4 222.45 171.45 221.15 170.95 219.4 170.45 217.65 170.45 215.7 170.45 213.55 171.0 211.55 171.55 209.55 172.55 208.05 173.05 207.35 173.85 207.0 L175.55 206.7 177.25 206.9 179.0 207.45" fill="#ff3300" fill-rule="evenodd" stroke="none"/>
  </g>
</svg>
