<?xml version="1.0" encoding="UTF-8" standalone="no"?>
<svg xmlns:ffdec="https://www.free-decompiler.com/flash" xmlns:xlink="http://www.w3.org/1999/xlink" ffdec:objectType="shape" height="282.15px" width="207.1px" xmlns="http://www.w3.org/2000/svg">
  <g transform="matrix(1.0, 0.0, 0.0, 1.0, 96.75, 64.2)">
    <path d="M72.65 -60.0 Q128.25 21.85 101.9 120.35 100.75 124.6 100.7 128.75 102.05 132.4 101.35 135.15 L101.9 137.35 Q101.2 139.45 99.1 140.05 L97.9 140.35 97.7 139.95 97.1 140.35 Q80.85 110.65 72.75 76.85 70.65 86.4 64.55 95.95 51.4 116.3 48.7 139.6 L47.9 146.15 Q46.75 148.3 44.3 148.25 L44.3 148.35 43.45 146.5 42.7 148.35 Q20.8 120.7 15.55 87.0 15.3 85.25 16.05 87.15 22.7 103.75 34.85 118.15 38.45 122.4 40.7 126.45 42.35 115.5 50.6 104.1 66.65 82.0 68.8 57.1 L68.15 52.75 Q66.65 42.65 65.65 32.85 65.15 27.85 68.1 32.65 83.25 57.45 87.75 86.35 89.25 96.0 91.95 105.35 92.65 100.4 94.0 95.15 115.5 12.75 64.6 -53.0 61.1 -57.55 63.6 -61.5 67.5 -67.6 72.65 -60.0 M13.6 75.15 Q14.15 103.6 -2.35 128.9 -8.45 138.2 -11.35 147.65 -10.45 153.05 -10.7 158.8 -12.1 188.9 0.1 215.15 -0.4 216.75 -1.95 217.4 L-3.7 217.95 -5.9 214.5 -6.9 215.55 Q-51.1 158.15 -53.4 85.55 -54.0 66.35 -43.25 70.45 -41.9 71.0 -42.2 74.05 -48.8 133.4 -17.65 184.35 -20.8 167.8 -17.6 149.7 -22.25 133.0 -9.15 114.4 5.6 93.35 13.25 73.35 13.55 72.55 13.6 75.15 M61.5 172.65 Q68.9 196.0 53.9 212.35 49.85 201.6 53.65 184.95 56.45 172.85 47.95 163.65 44.65 160.05 49.35 161.15 58.5 163.25 61.5 172.65 M-82.35 -23.1 Q-91.5 34.05 -74.7 89.05 -73.6 79.25 -64.0 69.3 -56.2 61.25 -48.7 66.35 -63.0 83.2 -71.0 103.15 -71.1 103.45 -71.7 103.55 L-72.2 102.55 -73.3 102.75 Q-93.75 61.55 -96.6 12.5 -98.05 -13.2 -82.7 -25.2 -81.9 -25.8 -82.35 -23.1 M-79.65 141.0 L-79.7 141.15 Q-89.5 126.1 -71.05 119.55 -70.0 119.2 -69.5 120.75 -73.35 132.6 -79.65 141.0" fill="#ff0000" fill-rule="evenodd" stroke="none"/>
    <path d="M92.95 -6.5 Q93.55 -6.0 94.2 -4.3 101.55 15.05 103.85 34.9 L101.15 23.95 Q99.35 17.15 94.3 14.25 93.1 13.6 93.25 14.7 L95.15 26.95 94.45 26.3 93.85 21.9 93.2 19.15 92.9 12.45 92.5 9.0 Q94.3 9.4 95.75 8.25 96.95 7.35 96.6 6.55 94.8 2.55 93.35 -1.95 L92.95 -6.5 M102.35 82.35 L99.2 100.45 Q98.25 105.5 93.1 105.95 81.6 93.5 77.85 74.5 83.1 85.1 91.1 92.35 L92.05 91.9 Q95.2 90.1 95.75 86.35 98.35 68.4 98.9 49.75 L101.45 64.35 Q101.95 67.15 100.7 69.4 95.7 78.35 100.7 83.55 L102.35 82.35 M69.6 65.6 Q71.05 67.05 70.35 70.35 64.95 97.5 52.95 119.0 50.8 122.8 46.55 124.1 L34.7 127.55 Q25.9 115.45 20.15 99.45 18.9 96.05 18.45 93.2 L19.9 93.9 Q25.8 104.7 32.3 114.35 32.85 114.3 33.3 113.8 35.95 110.55 35.65 106.5 L37.1 107.95 37.5 107.65 39.6 108.05 Q39.7 108.85 40.25 109.5 41.2 110.65 41.7 110.0 55.45 91.65 64.25 69.5 65.2 70.2 66.7 70.35 L69.6 65.6 M8.3 87.95 Q10.15 94.15 3.35 103.4 -0.75 109.0 -3.35 115.45 L6.0 86.5 7.1 86.75 7.4 86.65 Q7.7 87.5 8.3 87.95 M-5.95 123.8 L-6.0 124.05 Q-13.05 154.55 -13.15 184.55 -13.15 186.7 -15.7 186.75 -40.0 162.4 -41.3 124.95 L-41.3 124.35 Q-51.8 106.35 -49.5 80.4 -49.2 77.25 -48.4 74.95 -45.8 77.65 -41.6 79.9 -39.85 80.85 -38.45 81.0 -41.35 100.75 -39.25 121.85 -36.8 146.2 -23.3 164.75 -22.3 164.7 -22.0 163.8 -19.5 156.75 -18.9 148.45 -13.2 147.3 -11.25 141.0 L-5.95 123.8 M-58.75 62.15 L-57.1 65.85 Q-55.65 69.0 -58.4 72.0 L-74.1 88.35 -77.4 82.4 Q-75.35 84.0 -72.5 85.15 -62.7 75.1 -58.75 62.15 M-81.75 71.95 Q-83.5 66.95 -84.8 61.5 L-83.0 63.1 Q-82.25 67.75 -80.65 71.75 L-81.75 71.95 M-88.35 30.0 Q-88.65 16.25 -87.1 3.1 L-85.15 4.75 -87.45 21.25 -88.35 30.0 M-86.35 -2.45 Q-84.9 -12.3 -82.35 -21.8 -81.95 -23.4 -80.95 -20.95 -79.5 -17.5 -78.35 -13.95 -79.9 -14.3 -81.5 -13.5 -83.15 -12.7 -82.35 -11.9 L-79.7 -9.2 Q-82.95 -9.2 -83.5 -6.0 L-84.2 -1.75 -86.35 -2.45 M-26.8 68.15 L-26.85 68.15 -26.75 68.1 -26.8 68.15 M83.9 57.9 L84.35 57.8 Q86.0 61.25 88.0 64.5 L87.9 65.05 83.9 57.9" fill="#ff0800" fill-rule="evenodd" stroke="none"/>
    <path d="M92.5 9.0 L92.9 12.45 93.2 19.15 92.3 17.25 91.9 16.6 92.0 11.4 92.45 9.0 92.5 9.0 M-62.5 15.5 Q-62.15 15.55 -61.6 15.95 -57.2 19.25 -56.6 25.9 -55.1 42.05 -64.55 53.1 L-63.7 54.5 Q-67.6 59.8 -70.3 66.45 L-73.0 62.8 -73.45 58.95 -74.15 55.0 -74.45 58.15 Q-74.5 58.7 -75.3 58.75 -81.5 51.4 -80.2 40.45 L-80.65 41.35 -80.75 40.45 Q-79.4 31.05 -76.4 21.85 L-76.25 22.25 -75.6 25.4 -74.4 23.2 Q-69.8 15.1 -65.5 23.1 -64.25 25.35 -63.25 27.7 -62.7 22.45 -62.95 16.95 L-62.95 16.4 Q-63.0 15.5 -62.5 15.5 M-69.7 26.65 L-69.8 26.95 -69.65 26.9 -69.7 26.65 M-14.85 66.25 Q-13.9 67.15 -13.0 69.0 -12.2 70.55 -12.0 72.85 -11.1 82.3 -15.95 87.7 -14.0 87.65 -12.75 85.8 -13.15 85.45 -12.85 84.35 -11.05 77.05 -12.15 69.65 -12.5 67.15 -14.85 66.25 M-18.2 66.15 L-17.6 65.7 -18.1 65.65 -18.2 66.15 M-26.75 68.1 Q-23.25 54.2 -9.05 63.0 -3.0 66.75 -3.6 74.3 -3.95 78.35 -5.5 81.05 L-5.2 81.65 -5.4 82.25 Q-16.45 113.1 -24.9 144.05 -29.45 140.5 -28.2 132.35 -27.05 131.8 -27.0 131.05 -26.35 106.45 -28.7 80.95 L-27.35 81.15 Q-28.35 75.9 -27.05 69.5 L-26.8 68.15 -26.75 68.1 M83.9 57.9 L83.5 57.95 Q80.8 55.8 78.7 53.4 L77.55 54.9 Q77.0 55.5 76.3 55.55 65.1 43.8 68.2 29.3 66.3 24.1 67.65 17.2 69.6 7.4 79.25 3.85 88.65 0.35 90.75 11.4 91.9 17.3 90.25 21.15 92.2 24.3 92.25 28.65 92.3 33.95 89.65 37.25 L90.6 49.6 Q89.55 57.05 88.0 64.5 86.0 61.25 84.35 57.8 L83.9 57.9 M84.75 3.1 L84.55 0.15 84.95 0.4 85.0 3.15 84.75 3.1 M76.9 14.65 L76.75 14.8 76.95 14.75 76.9 14.65 M76.75 23.9 L78.2 24.85 78.6 21.45 76.75 23.9 M35.65 106.5 L35.5 105.05 35.6 105.25 Q36.1 107.0 37.5 107.65 L37.1 107.95 35.65 106.5 M55.9 59.65 L57.6 58.3 58.85 57.05 Q57.65 61.85 59.85 64.35 58.25 66.1 57.1 68.65 58.8 63.45 55.9 59.65 M35.2 92.25 L34.7 90.9 Q34.1 91.9 33.1 92.75 28.95 87.95 26.7 82.6 L26.6 83.65 25.2 81.35 25.95 80.6 Q22.3 69.85 26.0 56.8 28.8 46.95 39.75 48.75 55.8 51.3 51.75 62.6 L52.15 62.35 Q46.85 79.75 35.2 92.25 M43.9 56.0 L45.2 58.7 45.3 58.95 45.5 57.75 Q45.75 56.35 43.9 56.0" fill="#ff4a00" fill-rule="evenodd" stroke="none"/>
    <path d="M-78.35 -13.95 Q-77.4 -13.75 -76.5 -13.15 -69.65 -17.25 -63.0 -8.2 -43.1 18.75 -41.2 51.35 -33.3 50.2 -25.5 52.65 -16.65 46.8 -4.85 52.85 1.55 49.15 8.85 55.15 L10.2 56.35 Q19.9 47.6 31.8 43.3 39.9 36.95 49.5 33.45 55.8 23.75 64.7 34.45 L65.55 35.55 Q65.75 35.0 66.35 34.6 L66.35 34.05 Q60.65 27.6 60.85 17.55 57.25 12.8 61.75 8.65 62.55 0.8 62.65 -7.15 62.65 -9.5 62.9 -11.7 L62.5 -14.9 Q60.6 -33.55 63.65 -51.0 63.95 -52.5 65.55 -51.25 72.2 -45.95 72.55 -36.5 L72.65 -33.5 Q75.0 -33.3 78.75 -29.6 79.85 -31.15 82.3 -28.45 91.2 -18.6 92.95 -6.5 L93.35 -1.95 Q94.8 2.55 96.6 6.55 96.95 7.35 95.75 8.25 94.3 9.4 92.5 9.0 L92.45 9.0 92.0 11.4 91.9 16.6 92.3 17.25 93.2 19.15 93.85 21.9 94.45 26.3 95.15 26.95 93.25 14.7 Q93.1 13.6 94.3 14.25 99.35 17.15 101.15 23.95 L103.85 34.9 Q106.0 44.45 107.5 54.15 109.1 64.6 106.85 74.6 105.7 79.6 102.35 82.35 L100.7 83.55 Q95.7 78.35 100.7 69.4 101.95 67.15 101.45 64.35 L98.9 49.75 Q98.35 68.4 95.75 86.35 95.2 90.1 92.05 91.9 L91.1 92.35 Q83.1 85.1 77.85 74.5 L76.9 72.5 Q74.3 66.8 72.3 60.95 L69.6 65.6 66.7 70.35 Q65.2 70.2 64.25 69.5 55.45 91.65 41.7 110.0 41.2 110.65 40.25 109.5 39.7 108.85 39.6 108.05 L37.5 107.65 Q36.1 107.0 35.6 105.25 L35.5 105.05 35.65 106.5 Q35.95 110.55 33.3 113.8 32.85 114.3 32.3 114.35 25.8 104.7 19.9 93.9 L18.45 93.2 Q15.35 91.5 13.95 88.3 L13.9 88.05 Q10.0 89.35 8.3 87.95 7.7 87.5 7.4 86.65 L7.1 86.75 6.0 86.5 -3.35 115.45 Q-4.9 119.5 -5.95 123.8 L-11.25 141.0 Q-13.2 147.3 -18.9 148.45 -19.5 156.75 -22.0 163.8 -22.3 164.7 -23.3 164.75 -36.8 146.2 -39.25 121.85 -41.35 100.75 -38.45 81.0 -39.85 80.85 -41.6 79.9 -45.8 77.65 -48.4 74.95 -51.0 72.3 -52.05 69.2 -55.55 65.6 -58.65 61.7 L-58.75 62.15 Q-62.7 75.1 -72.5 85.15 -75.35 84.0 -77.4 82.4 -81.65 79.05 -82.25 73.6 -82.4 72.4 -81.75 71.95 L-80.65 71.75 Q-82.25 67.75 -83.0 63.1 L-84.8 61.5 Q-87.95 58.2 -88.35 52.65 -89.15 41.35 -88.35 30.0 L-87.45 21.25 -85.15 4.75 -87.1 3.1 Q-90.2 0.5 -93.65 -1.85 -94.5 -2.45 -92.85 -2.7 L-86.35 -2.45 -84.2 -1.75 -83.5 -6.0 Q-82.95 -9.2 -79.7 -9.2 L-82.35 -11.9 Q-83.15 -12.7 -81.5 -13.5 -79.9 -14.3 -78.35 -13.95 M-62.5 15.5 Q-64.65 11.15 -67.25 7.0 L-64.55 14.8 -62.95 16.95 Q-62.7 22.45 -63.25 27.7 -64.25 25.35 -65.5 23.1 -69.8 15.1 -74.4 23.2 L-75.6 25.4 -76.25 22.25 -76.4 21.85 Q-79.4 31.05 -80.75 40.45 L-80.65 41.35 -80.2 40.45 Q-81.5 51.4 -75.3 58.75 -74.5 58.7 -74.45 58.15 L-74.15 55.0 -73.45 58.95 -73.0 62.8 -70.3 66.45 Q-67.6 59.8 -63.7 54.5 L-64.55 53.1 Q-55.1 42.05 -56.6 25.9 -57.2 19.25 -61.6 15.95 -62.15 15.55 -62.5 15.5 M-69.7 26.65 L-69.65 26.9 -69.8 26.95 -69.7 26.65 M-41.3 62.75 Q-34.95 60.35 -28.3 59.15 L-28.0 58.95 Q-42.35 52.65 -47.1 64.3 L-47.15 64.35 -47.1 65.25 -46.35 64.9 Q-46.7 62.15 -43.75 62.45 L-41.3 62.75 M-18.2 66.15 L-18.1 65.65 -17.6 65.7 -18.2 66.15 M-14.85 66.25 Q-12.5 67.15 -12.15 69.65 -11.05 77.05 -12.85 84.35 -13.15 85.45 -12.75 85.8 -14.0 87.65 -15.95 87.7 -11.1 82.3 -12.0 72.85 -12.2 70.55 -13.0 69.0 -13.9 67.15 -14.85 66.25 M-26.75 68.1 L-26.85 68.15 -26.8 68.15 -27.05 69.5 Q-28.35 75.9 -27.35 81.15 L-28.7 80.95 Q-26.35 106.45 -27.0 131.05 -27.05 131.8 -28.2 132.35 -29.45 140.5 -24.9 144.05 -16.45 113.1 -5.4 82.25 L-5.2 81.65 -5.5 81.05 Q-3.95 78.35 -3.6 74.3 -3.0 66.75 -9.05 63.0 -23.25 54.2 -26.75 68.1 M84.75 3.1 L85.0 3.15 84.95 0.4 84.55 0.15 84.75 3.1 M88.0 64.5 Q89.55 57.05 90.6 49.6 L89.65 37.25 Q92.3 33.95 92.25 28.65 92.2 24.3 90.25 21.15 91.9 17.3 90.75 11.4 88.65 0.35 79.25 3.85 69.6 7.4 67.65 17.2 66.3 24.1 68.2 29.3 65.1 43.8 76.3 55.55 77.0 55.5 77.55 54.9 L78.7 53.4 Q80.8 55.8 83.5 57.95 L83.9 57.9 87.9 65.05 88.0 64.5 M75.25 1.15 L74.25 0.5 74.1 0.45 74.85 2.8 74.9 2.8 75.25 1.15 M76.75 23.9 L78.6 21.45 78.2 24.85 76.75 23.9 M76.9 14.65 L76.95 14.75 76.75 14.8 76.9 14.65 M57.6 43.25 Q57.6 44.2 57.2 45.05 L58.55 46.2 61.8 44.4 61.5 43.95 Q59.0 39.6 55.6 36.05 57.5 39.35 57.6 43.25 M35.2 92.25 Q46.85 79.75 52.15 62.35 L51.75 62.6 Q55.8 51.3 39.75 48.75 28.8 46.95 26.0 56.8 22.3 69.85 25.95 80.6 L25.2 81.35 26.6 83.65 26.7 82.6 Q28.95 87.95 33.1 92.75 34.1 91.9 34.7 90.9 L35.2 92.25 M55.9 59.65 Q58.8 63.45 57.1 68.65 58.25 66.1 59.85 64.35 57.65 61.85 58.85 57.05 L57.6 58.3 55.9 59.65 M43.9 56.0 Q45.75 56.35 45.5 57.75 L45.3 58.95 45.2 58.7 43.9 56.0" fill="#ff3300" fill-rule="evenodd" stroke="none"/>
  </g>
</svg>
