<?xml version="1.0" encoding="UTF-8" standalone="no"?>
<svg xmlns:ffdec="https://www.free-decompiler.com/flash" xmlns:xlink="http://www.w3.org/1999/xlink" ffdec:objectType="shape" height="181.45px" width="178.3px" xmlns="http://www.w3.org/2000/svg">
  <g transform="matrix(1.0, 0.0, 0.0, 1.0, 172.3, 94.5)">
    <path d="M-61.8 34.65 Q-61.9 36.45 -63.75 38.0 L-60.65 41.75 Q-58.85 44.0 -58.85 46.75 L-59.15 48.5 Q-56.05 49.3 -53.5 51.6 -52.6 52.4 -51.95 53.35 L-49.7 54.0 Q-42.6 54.1 -34.9 58.55 -29.7 61.65 -25.45 65.4 -19.65 66.7 -13.75 68.3 -5.05 70.45 -9.95 74.05 -2.5 71.8 -1.4 79.85 L1.05 80.5 Q11.05 83.05 0.85 85.8 -9.0 88.45 -18.9 85.0 -23.9 83.15 -26.25 80.3 L-29.0 79.85 -31.95 78.95 -35.0 78.7 Q-45.1 77.75 -54.95 74.15 L-61.6 73.65 Q-70.7 74.7 -80.25 73.35 -85.9 72.6 -90.95 70.8 L-98.9 71.2 Q-106.95 70.9 -104.65 63.95 L-99.5 63.75 -99.05 63.0 Q-91.7 60.95 -84.65 60.35 L-84.05 59.4 -79.4 60.1 -76.0 60.2 -75.6 59.6 Q-69.45 59.4 -63.65 59.9 L-63.75 59.65 Q-75.1 50.3 -85.35 40.35 L-86.9 39.75 Q-106.45 28.4 -127.55 29.7 -140.45 30.5 -153.05 32.4 -163.2 33.85 -170.75 30.85 -173.5 29.75 -171.35 27.2 -166.75 24.0 -161.35 22.65 L-160.9 22.45 Q-159.7 14.5 -148.35 14.8 L-147.05 14.65 Q-142.8 6.1 -131.35 1.75 -121.95 -1.8 -112.7 -0.75 L-106.85 -0.55 -106.5 -0.6 Q-119.3 -8.85 -132.6 -16.15 -134.35 -17.1 -133.55 -19.1 L-135.55 -20.5 Q-137.1 -21.65 -135.55 -23.3 -130.3 -25.35 -124.65 -22.3 L-124.2 -22.2 Q-117.1 -28.8 -106.15 -30.95 -92.65 -33.55 -80.6 -31.75 L-79.0 -31.6 -79.35 -32.05 Q-84.15 -39.6 -92.75 -43.2 -111.35 -50.95 -130.05 -55.65 L-140.6 -57.95 Q-147.05 -59.1 -144.2 -64.85 L-143.2 -65.05 -146.4 -66.5 Q-149.2 -67.75 -147.0 -70.4 -123.25 -81.0 -98.45 -83.5 L-97.95 -83.6 Q-91.55 -89.8 -80.1 -88.1 L-71.45 -87.05 Q-58.05 -97.6 -40.4 -93.25 -35.5 -92.0 -30.95 -89.5 -26.7 -92.2 -23.75 -92.05 L-23.15 -93.15 Q-9.5 -97.1 -6.2 -85.85 -5.75 -84.45 -7.7 -83.6 -8.45 -83.15 -9.2 -82.85 L-10.05 -78.1 Q-7.5 -74.25 -8.05 -67.3 -8.95 -57.0 -17.35 -50.5 -21.55 -47.25 -25.7 -45.7 L-30.05 -42.8 Q-39.4 -37.3 -49.8 -34.55 -59.2 -32.1 -67.15 -33.95 -66.65 -31.45 -66.75 -28.0 L-66.65 -28.0 Q-61.25 -25.75 -61.1 -23.55 L-60.3 -22.05 Q-58.45 -19.95 -57.2 -17.25 -52.1 -6.1 -56.8 2.45 L-56.3 4.8 Q-49.05 8.4 -43.55 17.25 -38.05 25.8 -40.5 35.15 -40.95 37.25 -41.7 39.0 L-39.95 41.35 Q-39.2 42.5 -41.15 42.65 L-43.6 42.8 Q-47.95 49.55 -56.25 48.7 -58.0 48.5 -58.2 46.65 -58.65 43.2 -57.25 40.2 L-59.6 36.25 -60.6 34.45 -58.2 33.8 Q-55.55 38.1 -47.35 31.0 -44.8 28.8 -45.8 25.85 -48.3 18.9 -52.4 24.4 -55.15 7.0 -73.6 9.85 -75.3 8.85 -77.1 7.95 -85.5 3.4 -87.45 7.8 -101.3 6.1 -116.25 10.0 L-117.05 11.25 Q-118.05 13.65 -115.9 14.25 L-112.1 14.9 Q-111.1 19.35 -102.9 17.95 L-90.4 22.2 -89.45 22.45 Q-82.3 25.95 -73.85 27.85 -73.25 31.55 -69.6 33.0 L-65.4 34.25 Q-64.5 35.15 -61.8 34.65 M-99.2 -19.7 Q-100.25 -18.2 -99.2 -17.75 -83.25 -11.7 -65.55 -7.35 -60.5 -6.15 -61.45 -11.0 -62.25 -14.4 -64.75 -16.95 -72.05 -24.3 -79.1 -21.2 L-79.4 -21.4 Q-90.05 -26.25 -98.75 -20.3 L-99.2 -19.7 M-84.55 -75.9 Q-92.2 -74.95 -100.0 -72.1 L-100.45 -71.55 Q-101.15 -70.55 -101.05 -69.95 L-101.75 -69.85 -102.4 -68.7 Q-103.2 -67.3 -102.2 -66.95 L-66.75 -57.05 -64.3 -56.3 Q-60.8 -55.45 -57.65 -55.5 -50.5 -53.6 -41.35 -55.85 -37.85 -56.65 -36.8 -59.95 -35.2 -64.6 -35.9 -66.55 -35.1 -67.4 -34.45 -68.45 -33.35 -69.9 -34.7 -70.2 -52.25 -74.55 -71.1 -78.5 -81.45 -80.6 -84.55 -75.9 M-34.9 -57.55 L-34.05 -58.6 -40.75 -53.4 Q-39.25 -54.35 -37.9 -53.85 L-34.9 -57.55 M-41.35 -53.05 Q-45.1 -50.35 -50.05 -47.2 -54.8 -44.25 -59.6 -43.45 L-59.45 -43.3 Q-50.85 -43.95 -44.0 -48.55 -44.3 -49.55 -43.35 -50.9 L-41.35 -53.05 M-53.5 66.55 Q-54.6 67.65 -53.8 68.4 -47.75 74.05 -36.35 75.1 -29.45 75.7 -22.8 75.35 -8.45 74.4 -20.1 68.3 -37.4 59.25 -53.5 66.55" fill="#ff3300" fill-rule="evenodd" stroke="none"/>
    <path d="M-60.6 34.45 L-61.8 34.65 Q-64.5 35.15 -65.4 34.25 L-69.6 33.0 Q-73.25 31.55 -73.85 27.85 -82.3 25.95 -89.45 22.45 L-90.4 22.2 -102.9 17.95 Q-111.1 19.35 -112.1 14.9 L-115.9 14.25 Q-118.05 13.65 -117.05 11.25 L-116.25 10.0 Q-101.3 6.1 -87.45 7.8 -85.5 3.4 -77.1 7.95 -75.3 8.85 -73.6 9.85 -55.15 7.0 -52.4 24.4 -48.3 18.9 -45.8 25.85 -44.8 28.8 -47.35 31.0 -55.55 38.1 -58.2 33.8 L-60.6 34.45 M-84.55 -75.9 Q-81.45 -80.6 -71.1 -78.5 -52.25 -74.55 -34.7 -70.2 -33.35 -69.9 -34.45 -68.45 -35.1 -67.4 -35.9 -66.55 -35.2 -64.6 -36.8 -59.95 -37.85 -56.65 -41.35 -55.85 -50.5 -53.6 -57.65 -55.5 -60.8 -55.45 -64.3 -56.3 L-66.75 -57.05 -102.2 -66.95 Q-103.2 -67.3 -102.4 -68.7 L-101.75 -69.85 -101.05 -69.95 Q-101.15 -70.55 -100.45 -71.55 L-100.0 -72.1 Q-92.2 -74.95 -84.55 -75.9 M-99.2 -19.7 L-98.75 -20.3 Q-90.05 -26.25 -79.4 -21.4 L-79.1 -21.2 Q-72.05 -24.3 -64.75 -16.95 -62.25 -14.4 -61.45 -11.0 -60.5 -6.15 -65.55 -7.35 -83.25 -11.7 -99.2 -17.75 -100.25 -18.2 -99.2 -19.7 M-53.5 66.55 Q-37.4 59.25 -20.1 68.3 -8.45 74.4 -22.8 75.35 -29.45 75.7 -36.35 75.1 -47.75 74.05 -53.8 68.4 -54.6 67.65 -53.5 66.55" fill="#ff4a00" fill-rule="evenodd" stroke="none"/>
  </g>
</svg>
