<?xml version="1.0" encoding="UTF-8" standalone="no"?>
<svg xmlns:ffdec="https://www.free-decompiler.com/flash" xmlns:xlink="http://www.w3.org/1999/xlink" ffdec:objectType="shape" height="178.1px" width="195.0px" xmlns="http://www.w3.org/2000/svg">
  <g transform="matrix(1.0, 0.0, 0.0, 1.0, 197.75, 95.85)">
    <path d="M-68.2 69.85 L-69.3 69.55 Q-77.4 71.95 -87.3 70.45 L-89.85 70.0 -94.95 71.8 Q-106.0 75.95 -104.0 66.5 L-101.35 64.95 -102.75 63.75 Q-104.0 62.75 -102.6 61.35 -95.3 58.6 -87.45 59.55 L-87.05 59.6 Q-83.2 55.2 -77.2 57.75 L-75.3 58.4 Q-74.9 56.75 -73.95 55.65 -76.25 54.0 -78.35 52.05 -88.15 53.65 -84.25 46.2 -86.05 45.75 -88.05 44.5 -89.8 43.35 -91.6 42.35 -100.0 46.0 -109.85 45.9 L-133.85 45.6 Q-145.75 45.4 -142.6 40.35 -165.25 44.5 -185.45 55.7 -186.6 56.35 -187.15 54.6 L-187.25 54.15 Q-191.0 57.3 -195.4 59.65 -197.85 60.9 -197.75 58.15 -197.5 52.5 -192.55 47.45 -185.8 40.65 -182.15 31.85 L-176.2 25.8 -175.15 24.5 -173.85 23.7 Q-159.95 11.55 -143.25 6.55 -138.45 3.25 -131.1 2.6 L-123.45 3.05 -122.05 3.05 -117.2 3.4 Q-117.05 0.4 -111.55 -0.35 L-110.85 -0.2 Q-105.95 -2.35 -100.65 -2.15 L-99.7 -2.55 -101.6 -2.85 Q-103.25 -3.1 -102.3 -5.05 L-101.6 -6.3 -103.0 -6.55 Q-114.25 -8.55 -121.95 -16.75 -124.95 -19.95 -122.15 -23.95 -114.2 -24.0 -106.4 -25.25 -106.45 -26.1 -105.8 -27.35 L-105.55 -27.9 Q-95.65 -33.85 -85.55 -36.2 L-85.45 -36.35 Q-82.0 -37.3 -78.7 -37.35 L-77.3 -37.6 Q-76.45 -39.65 -76.25 -41.75 -77.65 -42.45 -77.95 -43.45 L-79.65 -44.5 Q-92.65 -53.05 -105.8 -58.7 -114.3 -55.85 -123.3 -54.9 L-128.8 -54.55 Q-140.55 -54.6 -151.1 -58.25 -154.4 -59.45 -152.05 -62.35 L-146.8 -63.85 Q-127.85 -76.5 -103.45 -80.25 L-102.55 -80.45 Q-102.7 -89.8 -89.95 -87.95 -87.95 -87.65 -85.4 -88.4 -69.35 -92.9 -52.45 -90.75 L-43.25 -91.2 Q-28.5 -96.0 -12.8 -95.85 -0.9 -95.75 -3.1 -87.0 -3.9 -83.55 -7.55 -84.6 L-13.25 -84.8 Q-10.35 -77.3 -19.3 -75.5 -23.9 -61.05 -35.3 -52.75 L-36.7 -51.7 Q-42.8 -47.65 -50.55 -45.25 L-51.3 -45.0 Q-57.85 -39.4 -65.65 -39.5 L-66.6 -35.55 -66.95 -34.45 Q-65.5 -33.75 -64.15 -32.7 -52.6 -24.35 -58.95 -11.0 -66.5 5.05 -75.0 -3.65 -77.65 -2.75 -79.9 -2.6 -72.15 0.75 -65.85 9.75 -54.35 26.15 -59.4 43.5 -60.0 45.6 -61.9 46.8 L-59.1 48.65 Q-55.15 51.3 -50.55 53.4 -30.05 62.7 -14.1 76.4 -11.45 78.65 -14.55 80.65 -19.25 83.7 -24.8 80.85 -27.4 79.55 -31.05 78.95 -48.5 76.05 -65.7 70.7 L-61.15 71.0 -54.0 70.5 Q-51.85 70.75 -48.9 70.4 -47.4 70.25 -46.95 69.3 L-42.2 68.15 Q-40.3 67.6 -41.7 67.0 -44.55 65.5 -47.45 64.5 -49.5 60.25 -58.0 62.25 -64.45 61.55 -71.35 62.6 -72.35 68.0 -68.2 69.85 M-109.5 -15.5 Q-109.6 -11.7 -106.25 -12.8 -101.6 -14.5 -96.65 -13.45 -83.7 -10.7 -69.55 -12.45 -65.85 -12.95 -65.5 -16.25 -64.35 -28.7 -80.1 -27.55 -95.55 -26.5 -108.65 -17.9 -109.5 -17.05 -109.5 -15.5 M-103.0 -69.0 Q-98.5 -63.95 -90.65 -61.4 -67.15 -53.65 -46.65 -66.5 -32.6 -75.3 -47.6 -77.95 -72.25 -82.35 -95.8 -75.5 -103.65 -77.9 -113.1 -73.05 L-113.95 -71.45 Q-114.75 -68.75 -112.45 -68.8 L-103.0 -69.0 M-63.0 -53.8 L-63.3 -53.05 -58.75 -55.25 -61.85 -56.35 -63.0 -53.8 M-71.95 25.5 Q-71.15 23.6 -72.0 22.2 -82.2 5.5 -104.25 9.9 -108.25 10.75 -107.65 13.8 -126.6 10.7 -147.15 21.75 L-147.45 22.65 -150.7 23.95 Q-151.35 24.65 -151.6 25.75 -152.3 29.15 -149.2 28.75 -135.55 26.6 -121.6 26.15 -106.45 33.35 -87.75 29.85 -87.85 31.0 -87.2 31.6 -78.0 40.45 -71.95 25.5 M-177.9 44.9 L-179.1 45.05 -179.75 46.1 -177.9 44.9" fill="#ff3300" fill-rule="evenodd" stroke="none"/>
    <path d="M-65.7 70.7 L-68.2 69.85 Q-72.35 68.0 -71.35 62.6 -64.45 61.55 -58.0 62.25 -49.5 60.25 -47.45 64.5 -44.55 65.5 -41.7 67.0 -40.3 67.6 -42.2 68.15 L-46.95 69.3 Q-47.4 70.25 -48.9 70.4 -51.85 70.75 -54.0 70.5 L-61.15 71.0 -65.7 70.7 M-103.0 -69.0 L-112.45 -68.8 Q-114.75 -68.75 -113.95 -71.45 L-113.1 -73.05 Q-103.65 -77.9 -95.8 -75.5 -72.25 -82.35 -47.6 -77.95 -32.6 -75.3 -46.65 -66.5 -67.15 -53.65 -90.65 -61.4 -98.5 -63.95 -103.0 -69.0 M-109.5 -15.5 Q-109.5 -17.05 -108.65 -17.9 -95.55 -26.5 -80.1 -27.55 -64.35 -28.7 -65.5 -16.25 -65.85 -12.95 -69.55 -12.45 -83.7 -10.7 -96.65 -13.45 -101.6 -14.5 -106.25 -12.8 -109.6 -11.7 -109.5 -15.5 M-71.95 25.5 Q-78.0 40.45 -87.2 31.6 -87.85 31.0 -87.75 29.85 -106.45 33.35 -121.6 26.15 -135.55 26.6 -149.2 28.75 -152.3 29.15 -151.6 25.75 -151.35 24.65 -150.7 23.95 L-147.45 22.65 -147.15 21.75 Q-126.6 10.7 -107.65 13.8 -108.25 10.75 -104.25 9.9 -82.2 5.5 -72.0 22.2 -71.15 23.6 -71.95 25.5" fill="#ff4a00" fill-rule="evenodd" stroke="none"/>
  </g>
</svg>
