<?xml version="1.0" encoding="UTF-8" standalone="no"?>
<svg xmlns:ffdec="https://www.free-decompiler.com/flash" xmlns:xlink="http://www.w3.org/1999/xlink" ffdec:objectType="shape" height="194.7px" width="311.7px" xmlns="http://www.w3.org/2000/svg">
  <g transform="matrix(1.0, 0.0, 0.0, 1.0, 216.0, 100.95)">
    <path d="M-195.8 -55.3 Q-183.5 -57.45 -171.1 -58.7 -143.1 -66.8 -117.5 -83.4 -101.9 -93.6 -82.85 -95.45 -45.15 -99.15 -13.7 -87.2 -13.0 -86.85 -15.35 -87.2 -66.0 -93.85 -112.9 -76.85 -132.85 -69.6 -152.1 -60.2 -130.45 -61.25 -108.75 -59.75 -98.95 -59.1 -89.75 -54.6 -73.2 -46.45 -71.1 -33.95 -70.95 -32.4 -73.5 -34.3 L-76.6 -36.45 -77.35 -35.8 Q-97.9 -18.2 -120.15 -20.6 L-116.5 -17.8 Q-110.5 -13.0 -102.45 -10.5 -91.7 -7.2 -96.0 -6.15 L-92.45 -5.8 Q-90.75 -5.55 -93.3 -3.95 -111.55 7.3 -133.1 10.75 -172.95 16.95 -193.1 52.85 -195.15 56.35 -196.7 60.05 -164.6 34.8 -121.65 38.1 -109.3 39.15 -97.25 41.15 L-96.75 40.6 -96.85 40.5 Q-91.6 41.35 -86.95 43.1 L-86.25 43.25 Q-82.65 43.9 -83.3 44.55 -75.1 48.5 -69.0 55.45 -67.2 56.25 -65.3 57.3 -63.6 58.2 -66.65 58.2 -85.6 57.95 -102.15 66.45 -60.85 68.4 -20.05 76.45 -2.7 79.85 10.7 85.55 11.8 86.05 10.15 86.3 -23.25 90.65 -55.95 81.75 -82.05 74.6 -106.85 69.05 L-114.8 74.45 Q-115.9 75.3 -116.8 73.45 L-117.1 72.25 Q-117.4 70.2 -115.9 68.9 L-115.95 68.85 Q-101.2 53.85 -86.15 52.45 -91.05 50.15 -95.45 46.8 -114.55 49.15 -134.4 48.2 -172.35 46.5 -200.1 70.0 L-200.25 70.55 Q-202.85 80.95 -204.5 73.2 -205.4 72.4 -205.85 71.15 -206.35 69.05 -205.3 67.6 -205.6 61.75 -204.45 55.6 -202.6 45.5 -197.0 37.45 -162.55 6.3 -117.0 -4.1 L-107.35 -5.8 Q-129.8 -7.1 -136.7 -24.85 L-139.5 -26.2 Q-139.7 -27.7 -138.95 -29.05 L-138.3 -30.1 Q-106.3 -25.15 -76.95 -36.7 -116.85 -63.65 -164.3 -53.85 -178.4 -46.6 -193.95 -43.6 -210.15 -40.4 -209.9 -51.7 L-196.8 -53.15 -196.6 -53.7 -195.8 -55.3" fill="#ff0000" fill-rule="evenodd" stroke="none"/>
    <path d="M22.05 -83.8 Q8.7 -85.45 -1.75 -89.9 -10.4 -87.4 -21.7 -90.15 -37.75 -94.1 -52.85 -93.95 L-53.05 -93.3 -53.5 -92.6 -54.0 -91.95 -54.95 -91.35 -56.5 -90.75 Q-83.8 -94.75 -109.45 -82.25 -115.4 -79.35 -121.5 -75.85 -150.35 -59.55 -184.25 -54.7 -191.75 -53.6 -199.1 -50.95 -203.75 -49.25 -207.45 -49.45 L-206.7 -48.15 -206.2 -47.5 -205.4 -46.75 -204.0 -45.35 -203.7 -44.9 -203.5 -44.8 Q-200.7 -44.7 -198.05 -43.8 L-195.9 -43.55 Q-192.15 -44.05 -189.05 -46.05 L-181.55 -50.8 Q-177.7 -53.25 -173.4 -54.85 -167.65 -56.95 -161.6 -58.1 L-160.2 -58.35 Q-148.45 -59.95 -137.1 -58.25 -125.9 -56.6 -114.8 -53.8 L-91.85 -47.95 Q-81.0 -45.2 -77.1 -37.05 L-77.8 -36.1 -77.85 -35.9 -78.05 -35.2 -78.3 -34.5 -78.75 -33.85 -79.4 -33.1 Q-92.4 -31.35 -103.8 -25.9 -115.15 -20.5 -127.9 -21.6 -130.8 -21.85 -133.4 -22.65 -131.2 -18.45 -127.4 -15.3 -122.8 -11.5 -116.8 -10.8 -110.4 -10.05 -110.45 -4.75 L-110.2 -4.2 Q-125.05 8.3 -146.9 12.4 -152.3 13.4 -157.55 16.2 -174.1 25.0 -188.9 36.1 -204.4 47.75 -199.75 67.05 -199.15 65.55 -197.95 64.35 L-195.9 62.65 -195.1 62.1 -194.0 61.35 -192.9 60.55 Q-188.1 56.55 -182.4 53.6 -175.6 50.05 -168.4 47.6 L-162.05 45.35 -153.95 45.8 -136.35 46.5 Q-124.2 46.75 -112.3 45.0 -101.65 43.45 -91.45 46.5 -86.3 48.05 -86.35 52.75 -86.85 54.45 -88.5 55.1 -90.15 55.75 -91.7 55.9 L-94.05 57.6 Q-98.9 60.35 -103.9 62.8 -107.2 64.4 -108.8 67.25 L-107.85 66.95 -106.5 66.65 -87.15 67.7 Q-82.1 68.3 -77.05 69.75 -74.55 70.45 -72.5 71.7 -62.85 72.75 -53.4 75.3 -42.3 78.4 -30.95 80.75 -17.55 83.5 -3.7 83.7 -0.85 83.75 0.0 86.55 L0.0 86.75 Q23.05 85.85 44.6 76.35 72.7 64.0 81.95 34.4 95.5 -8.95 74.3 -48.45 57.65 -79.4 22.05 -83.8 M-214.35 -56.7 Q-195.65 -60.25 -177.4 -65.2 -161.05 -69.7 -145.15 -74.85 -127.15 -80.7 -111.55 -90.9 -103.85 -95.9 -94.5 -97.15 -83.05 -98.65 -72.25 -100.95 L-63.05 -100.5 -60.15 -100.0 Q-41.2 -99.9 -22.3 -99.0 -13.05 -98.55 -4.0 -96.65 L-2.75 -96.3 Q47.85 -97.45 76.5 -59.45 97.75 -31.2 95.5 5.15 92.45 53.75 52.7 79.85 42.6 86.5 31.4 89.65 4.9 97.1 -19.5 90.95 L-25.15 90.35 Q-46.05 87.6 -65.85 81.8 -69.75 80.65 -73.6 79.9 -76.85 80.25 -80.6 78.6 -97.55 71.0 -115.1 76.45 -115.55 76.6 -116.2 75.9 L-116.45 75.2 -116.65 74.5 -116.65 74.4 -117.55 73.75 -118.05 73.15 Q-119.55 68.6 -117.0 64.45 -114.9 61.0 -111.75 58.35 L-106.85 54.5 -138.85 52.35 Q-151.8 51.8 -163.35 54.7 -172.8 57.05 -180.85 62.65 -181.95 63.4 -183.2 63.85 -189.7 66.2 -191.3 72.3 -193.65 81.05 -197.7 88.65 L-199.1 88.7 -200.9 88.3 -201.8 87.65 -202.35 87.0 -202.7 85.6 -202.8 84.25 -202.8 83.55 Q-202.95 82.1 -202.55 80.7 L-202.45 80.45 Q-206.55 77.95 -207.4 68.35 -208.35 57.5 -205.05 47.3 -200.8 34.45 -189.4 25.75 -160.6 3.85 -126.0 -4.45 -128.95 -5.8 -131.95 -8.15 -137.1 -12.2 -140.25 -17.6 L-144.15 -23.7 Q-146.95 -27.85 -145.85 -32.4 L-145.35 -33.05 -144.4 -33.65 -142.65 -34.15 -142.6 -34.25 -139.55 -32.2 Q-134.1 -34.55 -125.4 -31.75 -114.5 -28.2 -105.5 -33.7 -100.2 -37.0 -94.3 -38.15 -110.5 -45.4 -128.7 -48.7 -164.45 -55.1 -195.4 -36.8 -198.3 -35.1 -202.0 -35.8 -209.45 -37.25 -214.05 -42.9 -217.8 -47.45 -214.4 -52.0 L-215.75 -53.25 -215.75 -53.95 -215.7 -54.65 -215.5 -55.3 -215.05 -56.0 -214.35 -56.7 M-177.7 34.8 L-177.4 39.85 -178.6 40.0 -178.0 34.85 -177.7 34.8" fill="#000000" fill-rule="evenodd" stroke="none"/>
  </g>
</svg>
