<?xml version="1.0" encoding="UTF-8" standalone="no"?>
<svg xmlns:ffdec="https://www.free-decompiler.com/flash" xmlns:xlink="http://www.w3.org/1999/xlink" ffdec:objectType="shape" height="175.9px" width="181.6px" xmlns="http://www.w3.org/2000/svg">
  <g transform="matrix(1.0, 0.0, 0.0, 1.0, 193.5, 94.85)">
    <path d="M-97.25 -86.0 Q-90.95 -91.65 -80.95 -92.35 L-61.3 -93.25 -58.9 -92.9 Q-44.3 -97.1 -28.45 -92.25 L-25.5 -91.25 -24.75 -91.2 Q-16.35 -90.2 -13.45 -82.85 -8.65 -70.5 -18.95 -62.0 -19.05 -53.25 -25.6 -51.15 -27.05 -49.25 -29.1 -47.9 -32.0 -43.35 -37.85 -40.35 -44.8 -36.8 -51.25 -36.3 -57.95 -30.95 -67.8 -29.85 L-69.7 -29.65 Q-70.3 -27.7 -71.3 -26.1 -59.05 -15.1 -71.75 -1.45 -73.5 0.4 -75.75 1.65 -73.3 2.65 -70.9 4.2 -57.6 10.65 -53.5 28.2 -52.65 32.0 -54.75 35.6 -56.45 38.35 -58.3 40.7 L-57.85 41.75 Q-57.05 43.35 -58.15 44.95 -54.35 47.55 -50.2 49.9 -42.75 54.0 -35.1 56.2 -24.95 59.1 -22.65 67.85 -10.9 73.65 -19.25 80.35 -20.85 81.65 -23.15 80.55 -58.65 64.55 -94.9 75.45 -96.15 75.9 -95.4 74.35 -90.35 63.25 -76.45 63.15 L-70.9 63.1 -72.0 62.45 Q-79.65 57.2 -87.6 52.95 L-89.15 51.75 Q-97.55 48.0 -105.75 44.55 -109.1 49.0 -114.55 44.5 L-116.8 42.5 Q-121.4 46.1 -125.35 41.45 L-126.95 39.7 Q-129.25 41.8 -132.1 40.5 L-132.85 39.95 Q-136.65 43.1 -140.55 39.75 L-142.25 38.05 Q-145.7 43.15 -151.3 40.4 L-152.1 39.95 Q-158.45 44.0 -166.0 42.7 L-166.45 42.55 -179.65 48.05 Q-185.8 50.55 -191.1 49.0 -195.1 47.8 -192.5 44.35 -186.85 40.3 -180.9 37.3 -179.85 35.85 -179.55 33.8 -176.85 31.9 -173.3 32.55 L-172.85 32.55 Q-171.5 22.6 -161.35 23.25 -160.6 17.5 -156.0 19.15 -157.3 17.0 -155.45 15.1 -131.65 0.95 -104.4 -3.6 -107.6 -5.5 -107.0 -10.9 -106.85 -12.35 -105.25 -11.55 L-103.65 -10.8 -105.9 -13.9 -106.25 -14.0 Q-119.05 -19.5 -119.7 -30.15 -114.25 -29.4 -110.8 -27.0 -102.1 -25.05 -92.3 -24.85 L-90.4 -25.35 Q-88.3 -31.7 -83.7 -32.1 -84.2 -35.1 -84.0 -39.15 -83.75 -42.55 -84.25 -45.9 -91.5 -48.65 -97.35 -55.0 L-108.35 -56.5 -122.7 -57.35 Q-127.75 -57.85 -132.5 -58.9 -140.9 -57.2 -144.8 -62.45 -145.45 -63.45 -144.5 -64.5 -139.95 -67.3 -135.2 -68.8 -129.6 -71.9 -124.05 -73.15 L-123.8 -74.1 Q-122.85 -76.4 -120.3 -76.65 -120.8 -77.9 -120.45 -79.2 L-119.45 -80.95 Q-109.1 -85.3 -97.8 -85.95 L-97.25 -86.0 M-96.1 -22.25 L-96.25 -21.35 Q-91.05 -5.45 -71.4 -9.35 -69.15 -9.75 -70.15 -11.1 -79.55 -23.5 -96.1 -22.25 M-104.6 -76.2 L-107.5 -75.85 Q-108.6 -74.7 -107.8 -73.65 L-107.55 -73.35 Q-107.65 -72.6 -106.9 -72.35 L-106.6 -72.3 Q-101.45 -66.9 -91.65 -66.65 L-91.45 -66.65 Q-77.35 -55.85 -59.4 -51.1 -46.45 -47.6 -38.6 -57.6 -37.15 -59.55 -38.85 -59.7 -29.75 -68.9 -42.05 -76.4 -68.0 -92.2 -93.8 -78.85 -99.2 -78.1 -104.6 -76.2 M-32.45 -65.0 L-32.25 -65.2 Q-31.7 -66.8 -30.25 -68.8 -31.4 -69.05 -32.5 -68.35 L-32.75 -67.7 Q-32.4 -66.15 -32.45 -65.0 M-74.1 37.65 Q-62.35 28.85 -72.1 20.05 -83.3 9.95 -98.95 9.6 -103.95 9.55 -107.95 11.0 -120.3 11.75 -130.2 18.45 -139.75 19.1 -148.1 23.35 -149.25 24.65 -149.4 26.55 -149.85 28.9 -148.05 28.65 -137.2 27.15 -126.05 26.8 -106.85 33.0 -85.9 36.0 -83.7 44.9 -74.1 37.65 M-79.95 27.15 L-80.5 27.25 -85.25 26.75 -83.15 26.35 -81.55 26.05 -79.95 27.15 M-46.95 -64.1 Q-44.5 -64.35 -42.15 -65.1 L-42.65 -64.25 Q-45.15 -60.25 -46.9 -64.05 L-46.95 -64.1 M-66.55 16.75 Q-62.85 21.75 -60.45 28.0 -59.45 21.55 -66.55 16.75 M-67.2 63.2 Q-60.0 65.9 -51.15 67.25 L-32.0 69.9 Q-30.0 70.15 -30.95 69.05 -45.1 53.55 -67.05 59.7 L-67.7 60.85 Q-68.7 62.6 -67.2 63.2" fill="#ff3300" fill-rule="evenodd" stroke="none"/>
    <path d="M-104.6 -76.2 Q-99.2 -78.1 -93.8 -78.85 -68.0 -92.2 -42.05 -76.4 -29.75 -68.9 -38.85 -59.7 -37.15 -59.55 -38.6 -57.6 -46.45 -47.6 -59.4 -51.1 -77.35 -55.85 -91.45 -66.65 L-91.65 -66.65 Q-101.45 -66.9 -106.6 -72.3 L-106.9 -72.35 Q-107.65 -72.6 -107.55 -73.35 L-107.8 -73.65 Q-108.6 -74.7 -107.5 -75.85 L-104.6 -76.2 M-96.1 -22.25 Q-79.55 -23.5 -70.15 -11.1 -69.15 -9.75 -71.4 -9.35 -91.05 -5.45 -96.25 -21.35 L-96.1 -22.25 M-46.95 -64.1 L-46.9 -64.05 Q-45.15 -60.25 -42.65 -64.25 L-42.15 -65.1 Q-44.5 -64.35 -46.95 -64.1 M-79.95 27.15 L-81.55 26.05 -83.15 26.35 -85.25 26.75 -80.5 27.25 -79.95 27.15 M-74.1 37.65 Q-83.7 44.9 -85.9 36.0 -106.85 33.0 -126.05 26.8 -137.2 27.15 -148.05 28.65 -149.85 28.9 -149.4 26.55 -149.25 24.65 -148.1 23.35 -139.75 19.1 -130.2 18.45 -120.3 11.75 -107.95 11.0 -103.95 9.55 -98.95 9.6 -83.3 9.95 -72.1 20.05 -62.35 28.85 -74.1 37.65 M-67.2 63.2 Q-68.7 62.6 -67.7 60.85 L-67.05 59.7 Q-45.1 53.55 -30.95 69.05 -30.0 70.15 -32.0 69.9 L-51.15 67.25 Q-60.0 65.9 -67.2 63.2" fill="#ff4a00" fill-rule="evenodd" stroke="none"/>
  </g>
</svg>
