<?xml version="1.0" encoding="UTF-8" standalone="no"?>
<svg xmlns:ffdec="https://www.free-decompiler.com/flash" xmlns:xlink="http://www.w3.org/1999/xlink" ffdec:objectType="shape" height="201.4px" width="318.4px" xmlns="http://www.w3.org/2000/svg">
  <g transform="matrix(1.0, 0.0, 0.0, 1.0, 222.7, 100.15)">
    <path d="M-171.05 -50.8 Q-202.0 -35.75 -212.85 -62.3 -213.35 -63.6 -212.5 -64.7 -190.75 -73.0 -205.75 -59.2 L-205.7 -58.8 Q-188.1 -51.2 -169.8 -51.95 -168.65 -52.0 -171.05 -50.8 M-138.25 -62.15 Q-99.8 -67.35 -67.4 -90.95 -63.05 -94.15 -57.15 -95.55 -35.95 -100.55 -24.55 -88.8 -23.25 -87.4 -26.8 -87.75 -70.75 -92.4 -106.85 -64.7 -84.3 -62.4 -75.45 -36.6 L-75.15 -35.6 Q-73.45 -36.05 -75.6 -33.5 -86.6 -20.95 -104.4 -19.55 -111.95 -18.95 -118.4 -19.85 L-115.85 -17.85 Q-102.0 -7.4 -88.95 0.7 -87.5 1.55 -90.25 1.25 L-100.55 -0.25 -102.6 -0.15 Q-150.65 0.6 -182.05 41.4 -134.8 21.9 -89.95 41.75 -77.95 47.1 -65.55 52.25 -56.9 55.95 -67.15 55.5 -80.15 54.95 -91.7 48.8 -130.7 27.95 -173.15 49.5 -185.1 55.6 -195.1 51.75 -195.5 50.9 -195.5 50.05 -200.75 51.35 -206.05 51.0 -207.8 49.7 -207.85 47.6 -207.85 45.7 -206.65 44.6 -174.95 36.1 -152.9 8.2 -148.8 2.95 -142.75 -0.35 -130.25 -7.3 -119.3 -7.25 -133.8 -15.6 -141.2 -31.65 -144.8 -35.9 -147.05 -41.45 -133.65 -35.0 -116.6 -30.85 -95.95 -25.9 -76.55 -35.0 L-75.5 -35.45 -76.45 -36.75 Q-84.4 -47.85 -97.2 -51.8 -109.35 -55.7 -122.15 -55.8 L-124.5 -55.15 Q-139.35 -51.15 -138.25 -62.15 M-74.4 63.25 Q-94.85 65.0 -114.0 72.75 -86.8 74.95 -57.85 73.4 -36.6 72.35 -15.9 78.75 -0.75 83.4 11.45 87.5 13.3 88.1 9.75 88.35 -21.05 90.7 -51.3 81.55 -61.9 78.25 -73.15 80.05 -100.5 84.35 -126.55 79.55 -128.65 79.1 -130.1 78.45 -132.45 78.35 -134.85 77.25 -140.9 74.4 -137.85 69.0 -113.0 72.25 -87.35 57.4 -74.15 49.85 -71.55 60.35 -70.85 63.0 -74.4 63.25 M-200.4 69.45 Q-191.75 73.2 -182.75 83.85 -181.4 85.4 -179.0 85.1 -174.2 69.1 -172.95 85.2 -172.3 94.25 -181.6 92.15 -201.3 87.65 -200.4 69.45" fill="#ff0000" fill-rule="evenodd" stroke="none"/>
    <path d="M2.3 -85.2 Q-17.15 -83.8 -36.15 -90.4 -57.3 -97.75 -73.2 -84.5 -79.65 -79.1 -87.3 -75.0 -104.8 -65.65 -124.4 -61.6 L-129.1 -60.5 -117.6 -60.3 Q-106.6 -60.2 -96.45 -56.2 -86.0 -52.15 -76.7 -45.85 -68.75 -40.45 -71.8 -32.4 L-72.25 -32.0 -72.7 -31.8 -74.1 -31.65 -75.95 -31.95 -76.3 -32.25 Q-81.45 -26.7 -89.85 -24.75 -106.55 -20.9 -122.05 -27.75 -127.8 -30.35 -133.5 -32.0 -138.5 -33.45 -141.85 -36.0 -140.8 -29.3 -136.35 -24.1 -131.7 -18.7 -125.6 -15.3 -120.25 -12.35 -118.75 -7.65 -121.7 -5.65 -124.75 -5.55 L-124.85 -5.4 -125.5 -4.65 -125.95 -4.2 -126.4 -3.95 Q-141.6 -3.3 -151.25 9.45 -159.8 20.7 -168.85 31.4 -174.95 38.65 -182.95 43.6 L-187.35 46.1 -186.45 46.15 Q-178.85 46.75 -172.2 43.1 -158.8 35.85 -143.55 36.1 -126.4 36.1 -109.3 36.9 -100.5 37.3 -92.1 40.2 -83.55 43.1 -79.25 49.6 L-79.05 49.7 -77.7 51.0 Q-77.2 51.6 -76.85 52.3 L-76.95 53.0 -77.1 53.7 -77.4 54.35 -77.85 55.05 -78.5 55.8 Q-88.1 61.3 -99.0 64.95 -113.4 69.8 -128.65 72.45 L-132.85 72.8 Q-128.55 74.5 -123.8 75.2 -109.75 77.3 -95.4 76.6 -81.4 75.95 -67.55 73.55 -53.8 71.2 -45.9 77.3 L-30.95 80.75 Q-17.55 83.5 -3.7 83.7 -0.85 83.75 0.0 86.55 L0.0 86.75 Q23.05 85.85 44.6 76.35 72.7 64.0 81.95 34.4 95.5 -8.95 74.3 -48.45 57.65 -79.4 22.05 -83.8 12.0 -85.05 3.65 -87.85 L3.45 -87.3 3.2 -86.6 2.9 -85.95 2.3 -85.2 M-192.15 -62.5 L-192.4 -61.8 -193.1 -61.2 -194.25 -60.45 -195.25 -59.6 -195.6 -59.05 -194.65 -58.4 Q-187.55 -54.1 -178.6 -56.5 L-175.25 -56.95 -174.4 -56.2 -173.85 -55.55 -173.4 -54.85 -172.7 -54.8 -171.3 -55.05 -169.45 -55.35 -167.9 -55.0 Q-167.4 -54.75 -166.95 -54.35 L-166.45 -53.7 -166.05 -53.0 -165.8 -52.3 -165.75 -51.65 -165.8 -50.95 -166.0 -50.25 -166.2 -49.55 -166.45 -48.85 Q-184.15 -37.35 -204.55 -43.4 -210.3 -45.1 -215.3 -48.4 -224.55 -54.55 -222.2 -64.9 -221.05 -69.85 -216.05 -71.55 L-204.65 -75.0 -199.15 -74.65 Q-196.9 -74.3 -194.8 -73.4 -192.55 -72.4 -191.6 -70.3 L-190.75 -68.05 -190.8 -67.4 -191.0 -66.7 -191.25 -66.0 -191.6 -65.25 -191.7 -64.6 -191.75 -63.9 -192.15 -62.5 M-199.55 -66.7 L-200.0 -67.15 -200.25 -67.25 -203.5 -67.25 -203.95 -67.15 -205.6 -66.7 -207.65 -66.1 -210.7 -65.15 -213.6 -64.15 Q-215.55 -63.45 -215.75 -61.6 -215.75 -60.0 -214.5 -58.9 L-208.3 -53.75 Q-205.05 -51.15 -200.95 -49.95 -195.95 -48.45 -190.75 -48.6 L-195.35 -49.7 Q-197.25 -50.25 -198.9 -51.2 -201.7 -52.8 -203.45 -55.35 -205.05 -57.55 -206.2 -60.0 -206.65 -60.95 -206.5 -62.05 L-206.2 -62.7 -205.75 -63.4 -205.05 -64.05 -202.8 -65.3 -202.35 -65.5 -199.55 -66.7 M-58.35 -100.0 Q-50.0 -100.65 -41.9 -98.65 -34.5 -96.8 -27.0 -95.55 L-17.1 -94.55 -16.75 -96.05 -14.85 -95.65 -14.3 -98.3 -4.0 -96.65 -2.75 -96.3 Q47.85 -97.45 76.5 -59.45 97.75 -31.2 95.5 5.15 92.45 53.75 52.7 79.85 42.6 86.5 31.4 89.65 4.9 97.1 -19.5 90.95 L-25.15 90.35 Q-38.45 88.6 -51.3 85.6 L-50.1 84.4 -49.5 83.7 Q-87.8 81.35 -126.9 83.7 L-129.65 83.3 Q-135.45 81.25 -140.85 78.6 -148.75 74.65 -148.65 67.3 L-149.55 66.65 -149.8 65.95 -149.95 65.25 -150.0 64.55 -150.0 63.9 -149.65 62.55 -148.85 61.1 -131.95 62.25 Q-113.5 62.6 -96.45 56.5 -91.9 54.9 -88.4 51.65 L-88.05 51.35 Q-94.8 50.35 -102.05 46.1 -105.7 43.95 -110.1 43.25 -142.35 38.1 -169.95 50.9 -186.4 58.5 -204.6 55.75 L-207.45 55.1 Q-211.1 54.0 -211.15 50.5 -214.85 49.95 -218.55 48.6 L-218.55 47.9 -218.5 47.2 -218.25 46.55 -217.8 45.85 -217.15 45.15 Q-199.2 42.75 -183.25 33.8 -171.0 26.9 -164.25 14.75 -157.1 1.8 -144.65 -6.55 -140.25 -9.45 -135.95 -11.35 L-136.55 -11.95 Q-142.4 -18.2 -146.9 -26.0 -149.65 -30.85 -151.15 -36.3 L-153.7 -45.4 -153.45 -46.05 -153.0 -46.75 -152.3 -47.4 -151.4 -47.8 -150.05 -48.05 -150.0 -48.15 -148.55 -47.45 -148.65 -48.15 -148.1 -48.8 -147.2 -49.35 -145.4 -49.9 -145.4 -50.0 Q-138.4 -43.6 -130.1 -39.25 -121.6 -34.8 -112.1 -32.3 -102.6 -29.85 -92.75 -32.45 -86.2 -34.2 -80.95 -38.2 -85.85 -42.9 -92.1 -45.6 -114.9 -55.3 -140.25 -54.15 L-140.35 -53.95 -140.8 -53.3 -141.5 -52.6 -142.15 -52.1 -143.5 -52.05 -145.35 -52.45 -146.25 -53.1 -146.8 -53.7 Q-148.0 -57.3 -147.05 -60.8 -146.25 -63.7 -143.35 -64.8 -127.15 -70.8 -110.4 -74.5 -103.45 -76.0 -97.0 -78.7 -91.35 -81.05 -86.95 -85.35 -75.55 -96.4 -60.2 -99.6 L-58.35 -100.0 M-202.55 64.8 L-201.85 64.35 -201.4 64.2 -200.05 64.0 -200.0 63.9 -196.35 64.05 Q-195.5 64.1 -194.75 64.45 -194.1 64.7 -193.6 65.1 L-192.85 65.75 -192.45 66.45 -191.5 68.4 -189.4 71.7 Q-188.0 73.85 -186.2 75.7 -184.6 77.3 -182.45 77.2 L-181.95 77.05 -180.95 76.45 -180.65 75.9 -180.65 74.55 Q-180.7 73.45 -180.15 72.55 L-178.95 70.5 -177.8 68.95 Q-165.4 71.1 -164.55 85.75 -163.9 96.75 -175.0 100.15 -188.4 104.25 -197.6 93.1 -203.2 86.25 -205.1 77.9 -206.7 70.7 -202.55 64.8 M-198.15 73.35 Q-198.15 79.2 -194.65 84.05 -191.4 88.5 -187.4 92.1 -183.35 95.65 -178.1 94.0 -173.35 92.5 -170.85 87.95 -169.95 86.9 -170.75 85.65 L-171.75 83.9 -172.6 81.75 Q-172.8 81.0 -173.15 80.3 -178.1 86.7 -187.1 83.0 -192.05 81.0 -195.7 76.95 -197.4 75.1 -198.15 73.25 L-198.15 73.35" fill="#000000" fill-rule="evenodd" stroke="none"/>
  </g>
</svg>
