<?xml version="1.0" encoding="UTF-8" standalone="no"?>
<svg xmlns:ffdec="https://www.free-decompiler.com/flash" xmlns:xlink="http://www.w3.org/1999/xlink" ffdec:objectType="shape" height="86.4px" width="56.8px" xmlns="http://www.w3.org/2000/svg">
  <g transform="matrix(1.0, 0.0, 0.0, 1.0, 23.3, -79.5)">
    <path d="M8.65 97.3 Q5.4 97.75 5.1 105.5 5.0 108.45 3.6 112.75 L1.55 118.6 0.7 118.7 Q-1.8 118.7 -2.4 116.45 L-2.4 115.9 Q-1.3 115.05 -0.5 112.7 0.3 110.25 0.3 108.8 L0.05 107.25 0.6 106.1 Q1.9 103.05 1.9 101.6 1.9 100.0 1.05 99.2 L1.1 99.05 1.9 99.1 Q4.2 99.1 6.4 94.4 L6.7 93.9 6.8 93.8 7.6 94.3 Q8.7 95.2 8.7 96.8 L8.65 97.3 M20.7 122.3 L20.7 122.35 Q20.7 123.05 21.1 123.8 L21.1 124.05 Q21.1 123.65 19.4 126.5 22.65 127.75 24.7 132.5 27.5 139.2 27.5 143.3 27.5 146.4 26.2 152.3 24.35 160.7 21.5 160.7 L21.2 160.7 Q19.6 163.25 16.95 163.8 L17.8 162.7 Q18.3 161.75 18.3 160.3 18.3 156.45 17.5 154.2 L17.5 149.95 17.5 146.95 Q18.2 146.35 18.5 145.3 L18.7 142.6 Q18.7 140.4 18.05 139.15 18.7 137.95 18.7 136.55 18.7 133.0 15.3 133.0 11.9 132.95 11.9 137.05 L12.1 139.15 12.3 139.55 10.3 143.3 Q6.75 149.1 4.5 149.1 L0.55 150.05 Q-1.8 151.5 -4.1 151.5 L-5.6 151.15 -12.1 151.9 Q-16.95 151.9 -18.1 149.85 L-17.5 149.9 Q-15.3 149.9 -14.1 147.85 L-12.3 144.9 -10.7 143.8 -7.3 144.3 Q-2.45 144.3 1.2 141.9 4.3 139.85 4.3 138.0 L4.3 137.45 Q7.05 134.65 9.9 129.2 L11.8 125.5 12.1 125.5 Q14.5 125.5 16.9 123.0 18.2 121.65 18.75 120.6 20.15 121.2 20.7 122.3 M29.05 109.15 L28.05 107.85 27.7 106.85 25.0 98.7 22.7 91.8 Q21.7 90.2 20.7 89.55 L20.05 86.9 18.6 83.3 17.55 81.6 Q18.2 81.0 19.35 80.85 22.05 80.5 23.5 84.0 24.4 85.25 25.35 87.75 L26.7 91.5 Q27.45 93.2 29.1 99.45 30.7 105.45 30.7 106.2 30.7 107.1 30.2 108.0 L29.05 109.15 M11.9 160.45 L11.95 160.45 Q12.35 162.4 13.2 163.35 L12.2 162.25 11.9 160.45" fill="#990000" fill-rule="evenodd" stroke="none"/>
    <path d="M12.2 82.05 Q11.9 82.65 11.9 83.55 L13.55 88.8 15.7 96.0 16.9 103.35 Q17.7 106.15 19.1 107.4 L21.1 111.6 Q22.55 114.45 23.75 116.0 L23.9 117.7 Q23.7 119.3 22.15 120.35 L21.8 120.6 Q20.4 120.0 19.05 118.7 18.8 117.25 17.4 115.5 L15.4 113.5 15.05 112.9 Q14.85 111.35 13.7 110.1 12.6 107.6 11.75 104.85 L11.1 108.4 Q9.15 108.05 8.7 112.6 L7.95 117.0 Q7.5 118.05 7.0 120.2 L5.9 123.5 Q4.15 126.5 -0.7 131.95 L-4.7 136.75 Q-5.35 136.2 -6.4 136.05 -8.8 135.65 -12.3 137.2 -15.8 138.8 -18.2 141.3 -20.9 144.1 -20.9 146.75 L-20.85 147.05 Q-22.15 146.75 -22.8 145.6 -23.3 144.75 -23.3 143.95 -23.3 139.9 -20.55 136.2 -17.05 131.45 -10.6 131.0 -2.15 130.35 -1.1 129.4 -0.75 129.05 -0.85 128.2 -1.0 127.15 -0.8 126.5 L1.2 119.6 1.55 118.6 3.6 112.75 Q5.0 108.45 5.1 105.5 5.4 97.75 8.65 97.3 L9.65 97.45 8.05 91.4 8.3 90.15 Q8.3 88.25 7.1 87.4 L6.7 84.8 Q6.7 83.1 7.7 82.05 8.7 81.05 10.0 81.1 11.35 81.15 12.2 82.05" fill="#ff0200" fill-rule="evenodd" stroke="none"/>
    <path d="M21.8 120.6 L22.15 120.35 Q23.7 119.3 23.9 117.7 L23.75 116.0 Q22.55 114.45 21.1 111.6 L19.1 107.4 Q17.7 106.15 16.9 103.35 L15.7 96.0 13.55 88.8 11.9 83.55 Q11.9 82.65 12.2 82.05 12.75 80.75 14.35 80.35 16.2 79.95 17.55 81.6 L18.6 83.3 20.05 86.9 20.7 89.55 Q21.7 90.2 22.7 91.8 L25.0 98.7 27.7 106.85 28.05 107.85 29.05 109.15 29.45 109.75 Q31.5 112.75 31.5 113.75 31.5 115.25 30.15 116.45 L30.3 118.05 Q30.3 125.5 23.9 125.5 22.05 125.5 21.2 124.0 L21.1 123.8 Q20.7 123.05 20.7 122.35 L20.7 122.3 Q20.75 121.4 21.8 120.6 M7.1 87.4 Q8.3 88.25 8.3 90.15 L8.05 91.4 6.8 93.8 6.7 93.9 6.4 94.4 Q4.2 99.1 1.9 99.1 L1.1 99.05 0.65 98.9 1.05 99.2 Q1.9 100.0 1.9 101.6 1.9 103.05 0.6 106.1 L0.05 107.25 0.3 108.8 Q0.3 110.25 -0.5 112.7 -1.3 115.05 -2.4 115.9 -3.0 116.3 -3.7 116.3 -6.05 116.3 -6.7 114.2 L-6.9 112.1 Q-6.9 109.4 -5.85 107.8 L-6.1 106.3 Q-6.1 100.6 -2.1 98.9 L0.25 98.7 -0.8 97.6 Q-1.3 96.75 -1.3 95.95 -1.3 92.95 0.65 90.9 1.45 88.05 4.3 87.15 5.9 86.6 7.05 87.35 L7.1 87.4 M-20.85 147.05 L-20.9 146.75 Q-20.9 144.1 -18.2 141.3 -15.8 138.8 -12.3 137.2 -8.8 135.65 -6.4 136.05 -5.35 136.2 -4.7 136.75 L-0.7 131.95 Q4.15 126.5 5.9 123.5 L7.0 120.2 Q7.5 118.05 7.95 117.0 L8.7 112.6 Q9.15 108.05 11.1 108.4 11.6 108.45 12.2 108.85 L13.7 110.1 Q14.85 111.35 15.05 112.9 L15.1 113.3 15.4 113.5 17.4 115.5 Q18.8 117.25 19.05 118.7 L19.1 119.25 18.75 120.6 Q18.2 121.65 16.9 123.0 14.5 125.5 12.1 125.5 L11.8 125.5 9.9 129.2 Q7.05 134.65 4.3 137.45 L4.3 138.0 Q4.3 139.85 1.2 141.9 -2.45 144.3 -7.3 144.3 L-10.7 143.8 -12.3 144.9 -14.1 147.85 Q-15.3 149.9 -17.5 149.9 L-18.1 149.85 Q-19.7 149.65 -20.4 148.4 L-20.85 147.05 M12.3 139.55 L12.1 139.15 11.9 137.05 Q11.9 132.95 15.3 133.0 18.7 133.0 18.7 136.55 18.7 137.95 18.05 139.15 18.7 140.4 18.7 142.6 L18.5 145.3 Q18.2 146.35 17.5 146.95 L17.5 149.95 17.5 154.2 Q18.3 156.45 18.3 160.3 18.3 161.75 17.8 162.7 L16.95 163.8 Q16.2 164.3 15.1 164.3 13.95 164.3 13.2 163.35 12.35 162.4 11.95 160.45 L11.9 160.45 11.2 159.6 Q10.7 158.7 10.7 157.95 L11.1 143.1 12.35 141.8 12.55 140.0 12.3 139.55" fill="#ce0000" fill-rule="evenodd" stroke="none"/>
    <path d="M3.5 86.3 L3.8 86.0 4.0 85.7 4.1 85.4 4.3 85.1 4.6 84.8 4.9 84.5 5.2 84.2 5.5 83.9 5.7 83.8 5.7 83.7 6.0 83.4 6.3 83.1 6.6 82.9 6.9 82.8 7.5 82.7 8.3 82.9 8.8 83.2 9.1 83.5 9.2 83.8 9.4 84.1 9.5 84.4 9.5 84.7 9.5 85.0 9.5 85.3 9.5 85.6 9.5 85.9 9.5 86.2 9.6 86.5 9.7 86.8 9.8 87.1 9.9 87.4 9.9 87.7 9.9 88.0 9.9 88.3 10.0 88.6 10.2 88.9 10.3 89.2 10.5 89.5 10.6 89.8 10.7 90.1 10.7 90.4 10.9 90.7 11.0 91.0 11.1 91.3 11.1 91.6 11.1 91.9 11.1 92.2 11.1 92.5 11.1 92.8 11.3 93.1 11.4 93.4 11.5 93.7 11.5 94.0 11.5 94.3 11.5 94.6 11.5 94.9 11.5 95.2 11.5 95.5 11.6 95.8 11.8 96.1 11.9 96.4 11.9 96.7 11.9 97.0 12.0 97.3 12.1 97.6 12.2 97.9 12.3 98.2 12.3 98.5 12.3 98.8 12.3 99.1 12.3 99.4 12.4 99.7 12.5 100.0 12.6 100.3 12.7 100.6 12.7 100.9 12.7 101.2 12.9 101.5 13.0 101.8 13.2 102.1 13.3 102.4 13.4 102.7 13.5 103.0 13.5 103.3 13.5 103.6 13.5 103.9 13.6 104.2 13.8 104.5 13.9 104.8 14.1 105.1 14.2 105.4 14.3 105.7 14.3 106.0 14.5 106.3 14.6 106.6 14.7 106.9 14.7 107.2 14.7 107.5 14.8 107.8 15.0 108.1 15.1 108.4 15.1 108.7 15.1 109.0 15.1 109.3 15.1 109.6 15.3 109.9 15.4 110.2 15.5 110.5 15.5 110.8 15.7 111.1 15.8 111.4 16.0 111.7 16.1 112.0 16.2 112.3 16.3 112.6 16.4 112.9 16.5 113.2 16.6 113.5 16.7 113.8 16.8 114.1 16.9 114.4 17.0 114.7 17.1 115.0 17.2 115.3 17.3 115.6 17.5 115.9 17.8 116.2 18.0 116.5 18.1 116.8 18.3 117.1 18.6 117.4 18.9 117.7 19.2 118.0 19.5 118.3 19.8 118.6 20.1 118.9 20.4 119.2 20.7 119.5 21.0 119.8 21.5 120.1 22.0 120.4 22.3 120.7 22.5 121.0 22.9 121.3 23.1 121.5 23.3 121.6 23.7 121.6 24.3 121.5 25.0 121.3 26.0 121.0 26.6 120.7 27.0 120.4 27.3 120.1 27.6 119.8 27.9 119.5 28.3 119.2 28.5 118.9 28.7 118.6 28.8 118.3 29.0 118.0 29.1 117.7 29.1 117.4 29.1 117.1 29.1 116.8 29.1 116.5 29.1 116.2 29.1 115.9 29.2 115.6 29.3 115.3 29.5 115.0 29.5 114.7 29.5 114.4 29.5 114.1 29.4 113.8 29.2 113.5 29.1 113.2 29.1 112.9 29.1 112.6 29.1 112.3 29.1 112.0 29.1 111.7 29.1 111.4 29.0 111.1 28.9 110.8 28.8 110.5 28.7 110.2 28.6 109.9 28.5 109.6 28.4 109.3 28.3 109.0 28.3 108.7 28.3 108.4 28.3 108.1 28.3 107.8 28.3 107.5 28.3 107.2 28.3 106.9 28.2 106.6 28.0 106.3 27.9 106.0 27.9 105.7 27.8 105.4 27.6 105.1 27.5 104.8 27.5 104.5 27.5 104.2 27.5 103.9 27.5 103.6 27.5 103.3 27.4 103.0 27.2 102.7 27.1 102.4 27.1 102.1 27.0 101.8 26.8 101.5 26.7 101.2 26.7 100.9 26.7 100.6 26.7 100.3 26.7 100.0 26.7 99.7 26.6 99.4 26.4 99.1 26.3 98.8 26.3 98.5 26.2 98.2 26.0 97.9 25.9 97.6 25.9 97.3 25.9 97.0 25.9 96.7 25.9 96.4 25.7 96.1 25.6 95.8 25.5 95.5 25.3 95.2 25.2 94.9 25.1 94.6 25.0 94.3 24.9 94.0 24.8 93.7 24.6 93.4 24.4 93.1 24.3 92.8 24.3 92.5 24.3 92.2 24.2 91.9 24.1 91.6 24.0 91.3 23.8 91.0 23.6 90.7 23.5 90.4 23.3 90.1 23.2 89.8 23.1 89.5 22.9 89.2 22.8 88.9 22.7 88.6 22.6 88.3 22.4 88.0 22.1 87.7 22.0 87.4 21.9 87.1 21.9 86.8 21.7 86.5 21.6 86.2 21.5 85.9 21.3 85.6 21.2 85.3 21.1 85.0 21.0 84.7 20.9 84.4 20.8 84.1 20.7 83.8 20.7 83.5 20.7 83.2 20.5 82.9 20.4 82.6 20.3 82.3 20.3 82.0 20.3 81.7 20.3 81.4 20.3 81.1 20.4 80.8 20.5 80.5 20.8 80.2 21.1 79.9 21.4 79.7 21.7 79.6 22.3 79.6 22.3 79.5 23.1 79.7 23.6 80.0 23.9 80.3 24.0 80.6 24.2 80.9 24.3 81.2 24.5 81.5 24.6 81.8 24.7 82.1 24.7 82.4 24.7 82.7 24.8 83.0 25.0 83.3 25.1 83.6 25.1 83.9 25.2 84.2 25.4 84.5 25.5 84.8 25.7 85.1 25.8 85.4 25.9 85.7 26.0 86.0 26.3 86.3 26.4 86.6 26.6 86.9 26.7 87.2 26.7 87.5 26.8 87.8 27.0 88.1 27.1 88.4 27.3 88.7 27.4 89.0 27.6 89.3 27.7 89.6 27.9 89.9 28.0 90.2 28.2 90.5 28.3 90.8 28.3 91.1 28.3 91.4 28.4 91.7 28.5 92.0 28.7 92.3 28.8 92.6 29.0 92.9 29.1 93.2 29.1 93.5 29.2 93.8 29.4 94.1 29.5 94.4 29.7 94.7 29.8 95.0 29.9 95.3 29.9 95.6 29.9 95.9 29.9 96.2 30.0 96.5 30.1 96.8 30.2 97.1 30.3 97.4 30.4 97.7 30.5 98.0 30.6 98.3 30.7 98.6 30.7 98.9 30.7 99.2 30.7 99.5 30.7 99.8 30.8 100.1 30.9 100.4 31.0 100.7 31.1 101.0 31.2 101.3 31.3 101.6 31.4 101.9 31.5 102.2 31.5 102.5 31.5 102.8 31.5 103.1 31.6 103.4 31.8 103.7 31.9 104.0 31.9 104.3 31.9 104.6 32.0 104.9 32.1 105.2 32.2 105.5 32.3 105.8 32.3 106.1 32.3 106.4 32.3 106.7 32.3 107.0 32.3 107.3 32.3 107.6 32.3 107.9 32.4 108.2 32.6 108.5 32.7 108.8 32.7 109.1 32.8 109.4 33.0 109.7 33.1 110.0 33.1 110.3 33.1 110.6 33.1 110.9 33.1 111.2 33.1 111.5 33.1 111.8 33.2 112.1 33.3 112.4 33.4 112.7 33.5 113.0 33.5 113.3 33.5 113.6 33.5 113.9 33.5 114.2 33.5 114.5 33.5 114.8 33.5 115.1 33.5 115.4 33.5 115.7 33.5 116.0 33.4 116.3 33.3 116.6 33.2 116.9 33.1 117.2 33.1 117.5 33.1 117.8 33.1 118.1 33.1 118.4 33.1 118.7 33.1 119.0 33.1 119.3 33.0 119.6 32.9 119.9 32.7 120.2 32.6 120.5 32.4 120.8 32.3 121.1 32.0 121.4 31.7 121.7 31.4 122.0 31.1 122.3 30.8 122.6 30.5 122.9 30.1 123.2 29.9 123.5 29.6 123.8 29.3 124.1 28.9 124.4 28.5 124.6 27.7 124.8 27.1 125.1 26.8 125.3 26.5 125.4 25.9 125.5 24.7 125.7 24.05 125.85 24.1 126.0 24.2 126.3 24.3 126.6 24.4 126.9 24.5 127.2 24.6 127.5 24.7 127.8 24.8 128.1 24.9 128.4 25.0 128.7 25.1 129.0 25.2 129.3 25.3 129.6 25.4 129.9 25.5 130.2 25.5 130.5 25.5 130.8 25.5 131.1 25.6 131.4 25.8 131.7 25.9 132.0 25.9 132.3 26.0 132.6 26.2 132.9 26.3 133.2 26.3 133.5 26.3 133.8 26.4 134.1 26.5 134.4 26.7 134.7 26.8 135.0 27.0 135.3 27.1 135.6 27.1 135.9 27.1 136.2 27.2 136.5 27.3 136.8 27.5 137.1 27.6 137.4 27.8 137.7 27.9 138.0 27.9 138.3 28.0 138.6 28.2 138.9 28.3 139.2 28.3 139.5 28.3 139.8 28.3 140.1 28.3 140.4 28.5 140.7 28.6 141.0 28.7 141.3 28.7 141.6 28.7 141.9 28.7 142.2 28.8 142.5 28.9 142.8 29.0 143.1 29.1 143.4 29.1 143.7 29.1 144.0 29.1 144.3 29.1 144.6 29.1 144.9 29.1 145.2 29.1 145.5 29.1 145.8 29.1 146.1 29.1 146.4 29.1 146.7 29.1 147.0 29.1 147.3 29.1 147.6 29.1 147.9 29.1 148.2 29.1 148.5 29.1 148.8 29.0 149.1 28.9 149.4 28.8 149.7 28.7 150.0 28.7 150.3 28.7 150.6 28.7 150.9 28.7 151.2 28.6 151.5 28.5 151.8 28.4 152.1 28.3 152.4 28.3 152.7 28.3 153.0 28.3 153.3 28.2 153.6 28.1 153.9 27.9 154.2 27.9 154.5 27.9 154.8 27.8 155.1 27.7 155.4 27.6 155.7 27.4 156.0 27.3 156.3 27.1 156.6 27.1 156.9 27.1 157.2 27.1 157.5 27.1 157.8 27.0 158.1 26.8 158.4 26.7 158.7 26.7 159.0 26.7 159.3 26.7 159.6 26.6 159.9 26.5 160.2 26.4 160.5 26.3 160.8 26.2 161.1 26.1 161.4 26.0 161.7 25.8 162.0 25.7 162.3 25.5 162.6 25.3 162.9 25.0 163.2 24.7 163.5 24.4 163.8 24.1 164.1 23.7 164.4 23.1 164.7 22.5 165.0 21.9 165.3 21.3 165.6 20.9 165.8 20.3 165.9 15.9 165.9 15.0 165.7 14.4 165.4 13.9 165.1 13.2 164.8 12.6 164.5 12.2 164.2 11.9 163.9 11.6 163.6 11.3 163.3 11.2 163.0 11.1 162.7 10.8 162.4 10.5 162.1 10.2 161.8 10.0 161.5 9.9 161.2 9.9 160.9 9.8 160.6 9.6 160.3 9.5 160.0 9.5 159.7 9.5 159.4 9.5 159.1 9.5 158.8 9.5 158.5 9.5 158.2 9.5 157.9 9.5 157.6 9.5 157.3 9.5 157.0 9.5 156.7 9.5 156.4 9.5 156.1 9.5 155.8 9.5 155.5 9.5 155.2 9.5 154.9 9.5 154.6 9.5 154.3 9.5 154.0 9.5 153.7 9.5 153.4 9.5 153.1 9.5 152.8 9.5 152.5 9.5 152.2 9.5 151.9 9.5 151.6 9.5 151.3 9.5 151.0 9.5 150.7 9.5 150.4 9.5 150.1 9.5 149.8 9.5 149.5 9.5 149.2 9.5 148.9 9.5 148.6 9.5 148.3 9.3 148.5 9.0 148.8 8.7 149.1 8.4 149.4 8.1 149.7 7.8 150.0 7.5 150.3 7.2 150.6 6.7 150.9 5.9 151.1 4.3 151.3 3.5 151.5 2.3 151.7 1.5 151.9 0.3 152.1 -0.5 152.3 -1.7 152.5 -2.7 152.8 -3.1 153.0 -3.7 153.1 -4.5 153.3 -5.5 153.6 -5.9 153.8 -6.5 153.9 -12.5 153.9 -13.4 153.7 -15.7 153.5 -16.6 153.3 -17.3 153.1 -18.2 152.9 -18.5 152.7 -19.4 152.5 -19.8 152.2 -20.1 151.9 -20.4 151.6 -20.7 151.3 -21.0 151.0 -21.3 150.7 -21.6 150.4 -21.9 150.1 -22.0 149.8 -22.1 149.5 -22.1 149.2 -22.3 148.9 -22.4 148.6 -22.5 148.3 -22.7 148.0 -22.8 147.7 -22.9 147.4 -22.9 147.1 -22.9 146.8 -23.1 146.5 -23.2 146.2 -23.3 145.9 -23.3 145.6 -23.3 145.3 -23.3 145.0 -23.3 144.7 -23.3 144.4 -23.3 144.1 -23.3 143.8 -23.3 143.5 -23.3 143.2 -23.3 142.9 -23.3 142.6 -23.3 142.3 -23.3 142.0 -23.3 141.7 -23.3 141.4 -23.3 141.1 -23.3 140.8 -23.3 140.5 -23.3 140.2 -23.3 139.9 -23.2 139.6 -23.1 139.3 -22.9 139.0 -22.9 138.7 -22.9 138.4 -22.9 138.1 -22.9 137.8 -22.9 137.5 -22.8 137.2 -22.7 136.9 -22.4 136.6 -22.2 136.3 -22.1 136.0 -22.0 135.7 -21.9 135.4 -21.7 135.1 -21.4 134.8 -21.1 134.5 -20.8 134.2 -20.5 133.9 -20.2 133.6 -19.9 133.3 -19.6 133.0 -19.0 132.7 -18.6 132.4 -18.2 132.1 -17.6 131.8 -17.3 131.5 -16.8 131.2 -16.2 130.9 -15.2 130.6 -14.7 130.4 -14.1 130.3 -13.0 130.1 -12.1 129.9 -10.6 129.7 -9.7 129.5 -7.0 129.3 -6.1 129.1 -5.0 128.9 -4.4 128.6 -4.0 128.3 -3.8 128.0 -3.5 127.7 -3.3 127.4 -3.3 127.1 -3.2 126.8 -3.1 126.5 -2.9 126.2 -2.8 125.9 -2.6 125.6 -2.5 125.3 -2.5 125.0 -2.4 124.7 -2.2 124.4 -1.9 124.1 -1.85 124.05 -1.9 124.0 -2.0 123.7 -2.1 123.4 -2.1 123.1 -2.1 122.8 -2.1 122.5 -2.1 122.2 -2.1 121.9 -2.1 121.6 -2.05 121.55 -2.6 121.3 -3.0 121.0 -3.2 120.8 -3.4 120.7 -4.2 120.5 -4.6 120.2 -4.9 119.9 -5.2 119.6 -5.5 119.3 -5.8 119.0 -6.0 118.7 -6.1 118.4 -6.3 118.1 -6.6 117.8 -6.8 117.5 -6.9 117.2 -7.1 116.9 -7.4 116.6 -7.6 116.3 -7.7 116.0 -7.7 115.7 -7.7 115.4 -7.7 115.1 -7.7 114.8 -7.7 114.5 -7.7 114.2 -7.7 113.9 -7.7 113.6 -7.7 113.3 -7.7 113.0 -7.7 112.7 -7.7 112.4 -7.7 112.1 -7.7 111.8 -7.7 111.5 -7.7 111.2 -7.6 110.9 -7.5 110.6 -7.4 110.3 -7.3 110.0 -7.3 109.7 -7.3 109.4 -7.2 109.1 -7.0 108.8 -6.9 108.5 -6.9 108.2 -6.9 107.9 -6.8 107.6 -6.7 107.3 -6.5 107.0 -6.5 106.7 -6.5 106.4 -6.5 106.1 -6.5 105.8 -6.4 105.5 -6.2 105.2 -6.1 104.9 -6.1 104.6 -6.0 104.3 -5.8 104.0 -5.7 103.7 -5.7 103.4 -5.6 103.1 -5.4 102.8 -5.2 102.5 -5.1 102.2 -4.9 101.9 -4.8 101.6 -4.7 101.3 -4.5 101.0 -4.4 100.7 -4.2 100.4 -4.0 100.1 -3.9 99.8 -3.7 99.5 -3.6 99.2 -3.5 98.9 -3.3 98.6 -3.3 98.3 -3.2 98.0 -3.1 97.7 -2.8 97.4 -2.6 97.1 -2.5 96.8 -2.4 96.5 -2.3 96.2 -2.1 95.9 -2.0 95.6 -1.9 95.3 -1.6 95.0 -1.4 94.7 -1.3 94.4 -1.2 94.1 -1.1 93.8 -0.9 93.5 -0.6 93.2 -0.5 92.9 -0.5 92.6 -0.4 92.3 -0.2 92.0 -0.1 91.7 -0.1 91.4 0.0 91.1 0.2 90.8 0.5 90.5 0.7 90.2 0.8 89.9 1.0 89.6 1.3 89.3 1.6 89.0 1.8 88.7 1.9 88.4 2.0 88.1 2.1 87.8 2.3 87.5 2.6 87.2 2.9 86.9 3.2 86.6 3.5 86.3 M5.8 89.7 L5.7 90.0 5.5 90.3 5.4 90.6 5.2 90.9 5.0 91.2 4.7 91.5 4.4 91.8 4.2 92.1 4.0 92.4 3.9 92.7 3.9 93.0 3.8 93.3 3.6 93.6 3.5 93.9 3.5 94.2 3.4 94.5 3.2 94.8 3.1 95.1 2.8 95.4 2.7 95.7 2.6 96.0 2.5 96.3 2.3 96.6 2.1 96.9 1.8 97.2 1.7 97.5 1.5 97.8 1.5 98.1 1.4 98.4 1.3 98.7 1.1 99.0 0.9 99.3 0.6 99.6 0.5 99.9 0.4 100.2 0.3 100.5 0.2 100.8 0.1 101.1 -0.1 101.4 -0.2 101.7 -0.4 102.0 -0.5 102.3 -0.7 102.6 -0.8 102.9 -1.0 103.2 -1.1 103.5 -1.3 103.8 -1.4 104.1 -1.6 104.4 -1.7 104.7 -1.7 105.0 -1.8 105.3 -2.0 105.6 -2.1 105.9 -2.1 106.2 -2.2 106.5 -2.4 106.8 -2.5 107.1 -2.5 107.4 -2.5 107.7 -2.5 108.0 -2.6 108.3 -2.7 108.6 -2.8 108.9 -2.9 109.2 -2.9 109.5 -2.9 109.8 -3.0 110.1 -3.2 110.4 -3.3 110.7 -3.3 111.0 -3.3 111.3 -3.3 111.6 -3.4 111.9 -3.5 112.2 -3.6 112.5 -3.7 112.8 -3.7 113.1 -3.7 113.4 -3.7 113.7 -3.7 114.0 -3.7 114.3 -3.7 114.6 -3.5 114.9 -3.3 115.2 -3.1 115.5 -3.0 115.8 -2.7 116.1 -2.5 116.4 -2.3 116.7 -1.8 117.0 -1.3 117.3 -0.9 117.5 -0.9 117.4 -0.9 117.1 -0.8 116.8 -0.7 116.5 -0.5 116.2 -0.5 115.9 -0.5 115.6 -0.4 115.3 -0.3 115.0 -0.2 114.7 -0.1 114.4 -0.1 114.1 -0.1 113.8 -0.1 113.5 0.0 113.2 0.1 112.9 0.3 112.6 0.4 112.3 0.6 112.0 0.7 111.7 0.7 111.4 0.8 111.1 1.0 110.8 1.1 110.5 1.1 110.2 1.2 109.9 1.4 109.6 1.5 109.3 1.5 109.0 1.5 108.7 1.6 108.4 1.7 108.1 1.9 107.8 1.9 107.5 2.0 107.2 2.1 106.9 2.3 106.6 2.3 106.3 2.3 106.0 2.3 105.7 2.3 105.4 2.3 105.1 2.4 104.8 2.5 104.5 2.7 104.2 2.7 103.9 2.8 103.6 2.9 103.3 3.1 103.0 3.1 102.7 3.2 102.4 3.3 102.1 3.5 101.8 3.5 101.5 3.5 101.2 3.5 100.9 3.5 100.6 3.6 100.3 3.8 100.0 3.9 99.7 3.9 99.4 3.9 99.1 4.0 98.8 4.1 98.5 4.3 98.2 4.3 97.9 4.3 97.6 4.4 97.3 4.5 97.0 4.6 96.7 4.8 96.4 4.9 96.1 5.1 95.8 5.1 95.5 5.1 95.2 5.1 94.9 5.1 94.6 5.2 94.3 5.4 94.0 5.5 93.7 5.5 93.4 5.5 93.1 5.5 92.8 5.5 92.5 5.5 92.2 5.5 91.9 5.6 91.6 5.7 91.3 6.0 91.0 6.3 90.7 6.35 90.7 6.3 90.6 6.2 90.3 6.1 90.0 6.0 89.7 5.95 89.5 5.8 89.7 M10.5 107.7 L10.4 107.4 10.3 107.1 10.3 106.8 10.1 106.5 10.0 106.2 9.9 105.9 9.9 105.6 9.7 105.3 9.6 105.0 9.5 104.7 9.5 104.4 9.5 104.1 9.4 103.8 9.2 103.5 9.1 103.2 8.9 102.9 8.8 102.6 8.7 102.3 8.7 102.0 8.7 101.7 8.6 101.4 8.4 101.1 8.3 100.8 8.3 100.5 8.3 100.2 8.3 99.9 8.3 99.6 8.3 99.3 8.25 99.1 8.2 99.2 8.1 99.5 8.0 99.8 7.9 100.1 7.9 100.4 7.9 100.7 7.8 101.0 7.6 101.3 7.5 101.6 7.5 101.9 7.5 102.2 7.5 102.5 7.5 102.8 7.4 103.1 7.3 103.4 7.2 103.7 7.1 104.0 7.0 104.3 6.9 104.6 6.8 104.9 6.7 105.2 6.6 105.5 6.5 105.8 6.4 106.1 6.3 106.4 6.3 106.7 6.3 107.0 6.3 107.3 6.3 107.6 6.2 107.9 6.1 108.2 6.0 108.5 5.9 108.8 5.8 109.1 5.7 109.4 5.6 109.7 5.5 110.0 5.5 110.3 5.5 110.6 5.4 110.9 5.2 111.2 5.1 111.5 5.0 111.8 4.8 112.1 4.7 112.4 4.7 112.7 4.7 113.0 4.6 113.3 4.4 113.6 4.3 113.9 4.1 114.2 4.0 114.5 3.9 114.8 3.9 115.1 3.9 115.4 3.9 115.7 3.8 116.0 3.7 116.3 3.5 116.6 3.5 116.9 3.5 117.2 3.4 117.5 3.3 117.8 3.2 118.1 3.1 118.4 3.1 118.7 3.1 119.0 3.0 119.3 2.95 119.35 3.1 119.5 3.2 119.8 3.4 120.1 3.5 120.4 3.5 120.7 3.5 121.0 3.5 121.3 3.5 121.6 3.5 121.9 3.5 122.2 3.4 122.5 3.2 122.8 3.1 123.1 3.1 123.4 3.1 123.7 3.0 124.0 2.9 124.3 2.7 124.6 2.6 124.9 2.4 125.2 2.3 125.5 2.0 125.8 1.7 126.1 1.5 126.4 1.4 126.7 1.3 127.0 1.2 127.3 1.0 127.6 0.9 127.9 0.7 128.2 0.7 128.5 0.6 128.8 0.5 129.1 0.3 129.4 0.2 129.7 0.0 130.0 -0.1 130.3 -0.4 130.6 -0.7 130.9 -1.0 131.2 -1.3 131.5 -1.6 131.8 -1.9 132.1 -2.3 132.4 -2.7 132.6 -3.5 132.8 -3.9 133.0 -4.5 133.1 -5.7 133.3 -6.5 133.5 -9.3 133.7 -10.1 133.9 -11.7 134.1 -12.5 134.3 -13.7 134.5 -14.3 134.8 -14.9 135.1 -15.5 135.4 -15.9 135.7 -16.3 136.0 -16.9 136.3 -17.2 136.6 -17.5 136.9 -17.8 137.2 -18.1 137.5 -18.3 137.8 -18.4 138.1 -18.6 138.4 -18.9 138.7 -18.9 139.0 -18.9 139.3 -18.9 139.6 -18.9 139.9 -18.9 140.2 -19.0 140.5 -19.2 140.8 -19.3 141.1 -19.3 141.4 -19.3 141.7 -19.3 142.0 -19.3 142.3 -19.3 142.6 -19.3 142.9 -19.3 143.2 -19.3 143.5 -19.3 143.8 -19.3 144.1 -19.3 144.4 -19.3 144.7 -19.2 145.0 -19.0 145.3 -18.9 145.6 -18.9 145.9 -18.9 146.2 -18.8 146.5 -18.7 146.8 -18.5 147.1 -18.4 147.4 -18.2 147.7 -18.1 148.0 -17.8 148.3 -17.4 148.6 -16.5 148.9 -15.7 149.1 -14.9 149.3 -12.9 149.5 -12.1 149.7 -7.4 149.7 -6.5 149.5 -5.8 149.3 -4.9 149.1 -4.2 148.9 -3.2 148.6 -2.7 148.4 -2.1 148.3 -1.0 148.1 -0.1 147.9 0.6 147.7 1.5 147.5 2.6 147.3 3.5 147.1 5.3 146.9 5.6 146.6 5.9 146.3 6.2 146.0 6.4 145.7 6.5 145.4 6.7 145.1 6.8 144.8 6.9 144.5 7.1 144.2 7.2 143.9 7.4 143.6 7.6 143.3 7.7 143.0 7.9 142.7 8.0 142.4 8.1 142.1 8.4 141.8 8.6 141.5 8.7 141.2 8.8 140.9 8.9 140.6 9.1 140.3 9.4 140.0 9.5 139.7 9.7 139.4 9.9 139.1 10.2 138.8 10.3 138.5 10.3 138.2 10.4 137.9 10.6 137.6 10.8 137.3 10.9 137.0 11.0 136.7 11.1 136.4 11.2 136.1 11.3 135.8 11.5 135.5 11.6 135.2 11.7 134.9 11.9 134.6 12.0 134.3 12.2 134.0 12.3 133.7 12.3 133.4 12.4 133.1 12.6 132.8 12.8 132.5 12.9 132.2 13.1 131.9 13.2 131.6 13.3 131.3 13.5 131.0 13.5 130.7 13.6 130.4 13.7 130.1 14.0 129.8 14.3 129.5 14.4 129.2 14.5 128.9 14.7 128.6 14.8 128.3 15.0 128.0 15.3 127.7 15.5 127.4 15.5 127.1 15.5 126.8 15.6 126.5 15.7 126.2 15.9 125.9 16.0 125.6 16.1 125.3 16.3 125.0 16.3 124.7 16.4 124.4 16.5 124.1 16.7 123.8 16.7 123.5 16.8 123.2 16.9 122.9 17.2 122.6 17.5 122.3 17.75 122.15 17.7 122.1 17.2 121.8 16.7 121.5 16.4 121.2 16.1 120.9 15.8 120.6 15.5 120.3 15.3 120.0 15.2 119.7 15.0 119.4 14.7 119.1 14.5 118.8 14.4 118.5 14.2 118.2 13.9 117.9 13.7 117.6 13.6 117.3 13.4 117.0 13.2 116.7 13.1 116.4 13.1 116.1 13.1 115.8 13.0 115.5 12.9 115.2 12.8 114.9 12.6 114.6 12.4 114.3 12.3 114.0 12.3 113.7 12.2 113.4 12.0 113.1 11.9 112.8 11.7 112.5 11.6 112.2 11.5 111.9 11.5 111.6 11.3 111.3 11.2 111.0 11.1 110.7 11.1 110.4 11.1 110.1 11.1 109.8 11.0 109.5 10.9 109.2 10.8 108.9 10.7 108.6 10.7 108.3 10.7 108.0 10.5 107.7 M20.1 127.2 L20.1 127.1 20.0 127.2 19.9 127.5 19.7 127.8 19.6 128.1 19.5 128.4 19.4 128.7 19.3 129.0 19.2 129.3 19.0 129.6 18.9 129.9 18.7 130.2 18.5 130.5 18.3 130.8 18.2 131.1 18.1 131.4 18.0 131.7 17.8 132.0 17.5 132.3 17.3 132.6 17.2 132.9 17.0 133.2 16.9 133.5 16.7 133.8 16.6 134.1 16.4 134.4 16.3 134.7 16.3 135.0 16.2 135.3 16.0 135.6 15.9 135.9 15.7 136.2 15.6 136.5 15.4 136.8 15.3 137.1 15.1 137.4 15.1 137.7 15.1 138.0 15.0 138.3 14.9 138.6 14.8 138.9 14.6 139.2 14.3 139.5 14.2 139.8 14.0 140.1 13.9 140.4 13.7 140.7 13.5 141.0 13.45 141.1 13.6 141.2 13.9 141.5 14.0 141.8 14.2 142.1 14.3 142.4 14.3 142.7 14.3 143.0 14.3 143.3 14.3 143.6 14.3 143.9 14.3 144.2 14.3 144.5 14.3 144.8 14.3 145.1 14.3 145.4 14.2 145.7 14.0 146.0 13.9 146.3 13.9 146.6 13.9 146.9 13.9 147.2 13.9 147.5 13.9 147.8 13.9 148.1 13.8 148.4 13.7 148.7 13.5 149.0 13.5 149.3 13.5 149.6 13.5 149.9 13.5 150.2 13.5 150.5 13.5 150.8 13.5 151.1 13.5 151.4 13.5 151.7 13.5 152.0 13.5 152.3 13.5 152.6 13.5 152.9 13.5 153.2 13.5 153.5 13.5 153.8 13.5 154.1 13.5 154.4 13.5 154.7 13.5 155.0 13.5 155.3 13.5 155.6 13.5 155.9 13.5 156.2 13.5 156.5 13.5 156.8 13.5 157.1 13.5 157.4 13.5 157.7 13.5 158.0 13.5 158.3 13.6 158.6 13.8 158.9 13.9 159.2 13.9 159.5 14.0 159.8 14.2 160.1 14.4 160.4 14.7 160.7 15.3 161.0 15.9 161.3 16.4 161.6 16.6 161.8 19.8 161.7 20.4 161.4 21.1 161.1 21.5 160.8 21.7 160.5 22.0 160.2 22.2 159.9 22.3 159.6 22.4 159.3 22.5 159.0 22.6 158.7 22.7 158.4 22.7 158.1 22.7 157.8 22.7 157.5 22.8 157.2 22.9 156.9 23.1 156.6 23.1 156.3 23.1 156.0 23.1 155.7 23.1 155.4 23.2 155.1 23.4 154.8 23.5 154.5 23.5 154.2 23.6 153.9 23.8 153.6 23.9 153.3 23.9 153.0 24.0 152.7 24.2 152.4 24.3 152.1 24.3 151.8 24.3 151.5 24.3 151.2 24.4 150.9 24.5 150.6 24.6 150.3 24.7 150.0 24.7 149.7 24.7 149.4 24.7 149.1 24.7 148.8 24.8 148.5 24.9 148.2 25.0 147.9 25.1 147.6 25.1 147.3 25.1 147.0 25.1 146.7 25.1 146.4 25.1 146.1 25.1 145.8 25.1 145.5 25.1 145.2 25.1 144.9 25.0 144.6 24.8 144.3 24.7 144.0 24.7 143.7 24.7 143.4 24.7 143.1 24.7 142.8 24.7 142.5 24.6 142.2 24.4 141.9 24.3 141.6 24.3 141.3 24.3 141.0 24.3 140.7 24.3 140.4 24.1 140.1 24.0 139.8 23.9 139.5 23.7 139.2 23.6 138.9 23.5 138.6 23.4 138.3 23.3 138.0 23.2 137.7 23.1 137.4 23.1 137.1 23.1 136.8 22.9 136.5 22.8 136.2 22.7 135.9 22.7 135.6 22.5 135.3 22.4 135.0 22.3 134.7 22.3 134.4 22.1 134.1 22.0 133.8 21.9 133.5 21.9 133.2 21.9 132.9 21.8 132.6 21.6 132.3 21.5 132.0 21.5 131.7 21.5 131.4 21.4 131.1 21.3 130.8 21.2 130.5 21.1 130.2 21.0 129.9 20.9 129.6 20.8 129.3 20.7 129.0 20.6 128.7 20.5 128.4 20.4 128.1 20.3 127.8 20.2 127.5 20.1 127.2" fill="#000000" fill-rule="evenodd" stroke="none"/>
  </g>
</svg>
