<?xml version="1.0" encoding="UTF-8" standalone="no"?>
<svg xmlns:ffdec="https://www.free-decompiler.com/flash" xmlns:xlink="http://www.w3.org/1999/xlink" ffdec:objectType="shape" height="87.35px" width="60.0px" xmlns="http://www.w3.org/2000/svg">
  <g transform="matrix(1.0, 0.0, 0.0, 1.0, 24.5, -76.95)">
    <path d="M6.65 90.0 L7.0 91.1 7.1 92.7 6.55 95.1 Q6.0 96.9 6.0 97.65 6.0 98.1 6.95 99.3 L7.9 100.8 Q7.55 101.6 7.35 102.6 L6.4 105.0 3.9 111.6 2.8 116.65 1.75 119.15 1.7 119.2 1.6 119.35 1.0 120.05 Q0.0 121.1 -1.3 121.1 -3.35 121.1 -4.7 115.4 L-5.7 109.55 Q-5.7 107.75 -3.65 102.0 L-1.4 95.6 Q-0.25 88.7 3.45 87.95 4.95 87.65 6.0 88.85 L6.65 90.0 M16.5 117.15 Q18.4 120.05 20.25 120.85 L19.85 123.15 21.25 122.85 22.25 122.9 Q23.1 123.85 24.5 123.9 25.65 124.9 26.5 126.8 L27.75 131.35 28.7 136.4 29.45 139.7 29.85 140.85 Q31.5 145.8 31.5 147.45 L31.5 147.65 Q32.3 151.5 32.3 155.6 L32.2 159.2 Q31.6 161.9 28.9 161.9 25.45 161.9 23.8 158.15 L24.7 158.3 Q26.6 158.3 27.4 156.8 L27.85 155.65 28.0 155.4 Q28.7 154.4 28.7 153.15 L27.4 147.3 25.6 140.4 Q24.3 135.6 23.4 133.8 22.3 132.2 21.3 131.8 L20.5 130.95 18.7 129.45 18.4 128.45 18.2 129.25 17.05 129.05 Q15.5 129.35 15.5 132.5 L15.8 133.5 15.5 133.6 Q13.5 134.5 13.5 137.2 L14.2 139.45 Q10.7 143.9 5.3 143.9 L2.95 143.6 -3.1 144.3 Q-9.55 144.3 -12.0 142.1 -13.05 141.15 -13.25 139.9 -10.05 139.8 -7.6 138.2 L-7.1 137.85 -6.45 137.9 -6.4 138.0 Q-5.35 139.5 -2.5 139.5 6.15 139.5 11.4 132.1 15.6 126.2 16.5 117.15 M26.2 123.55 L27.2 122.6 Q27.9 121.6 27.9 120.5 27.9 117.15 27.3 115.05 L27.4 114.8 Q27.9 113.9 27.9 112.7 27.9 111.05 26.15 105.85 L24.3 100.4 Q24.0 98.3 22.1 94.4 L21.85 93.9 20.8 89.2 Q20.5 87.45 18.8 83.0 20.15 82.05 20.3 80.75 22.45 80.15 23.7 83.2 23.9 84.2 24.85 86.45 L26.2 90.1 27.75 96.55 28.8 101.45 29.25 103.05 30.1 106.4 Q30.55 107.9 31.25 113.35 L31.9 119.6 31.8 122.3 Q31.2 124.7 28.7 124.7 27.15 124.7 26.2 123.55" fill="#990000" fill-rule="evenodd" stroke="none"/>
    <path d="M7.15 84.0 Q8.2 84.5 9.9 84.65 L9.9 84.9 Q9.9 86.0 11.35 88.7 L13.0 91.8 13.7 95.9 Q14.3 97.75 15.75 98.35 L16.15 102.3 Q17.05 106.4 19.65 107.3 L21.95 112.95 Q21.1 114.5 21.1 117.3 L21.2 120.6 21.35 121.1 20.25 120.85 Q18.4 120.05 16.5 117.15 L16.7 112.15 Q16.7 109.15 13.9 108.65 11.05 108.1 9.9 112.4 L9.9 114.0 Q8.45 115.6 7.8 118.8 L5.1 124.35 3.8 127.0 Q2.25 128.9 -0.35 129.55 -2.1 129.95 -2.8 131.1 L-4.05 131.3 -7.7 131.0 -7.9 131.0 -8.4 130.85 Q-10.1 130.3 -10.5 130.3 -12.1 130.3 -13.0 131.5 L-13.35 132.05 -13.45 132.1 -15.05 133.05 -15.9 132.95 Q-19.3 133.0 -19.3 136.3 L-19.15 136.85 Q-20.4 136.35 -20.8 134.85 L-20.9 132.45 Q-20.9 130.4 -19.2 128.7 -18.85 125.95 -16.4 125.5 L-12.95 125.45 Q-9.9 124.7 -7.75 125.4 L-4.0 125.4 Q0.1 125.4 1.8 124.65 1.0 124.2 0.6 123.3 L0.3 121.5 Q0.3 121.0 1.0 120.05 L1.6 119.35 1.7 119.2 1.75 119.15 1.85 119.0 3.7 117.2 4.9 113.15 6.8 106.2 Q7.0 104.15 7.35 102.6 7.55 101.6 7.9 100.8 8.4 99.4 9.1 98.6 L7.0 91.1 6.65 90.0 5.9 87.2 Q5.9 85.0 7.15 84.0 M14.2 139.45 L13.5 137.2 Q13.5 134.5 15.5 133.6 L15.8 133.5 16.7 135.75 Q17.85 138.55 17.9 139.4 18.05 144.1 20.05 145.6 L20.3 146.5 20.5 147.05 20.3 149.3 20.35 149.4 19.5 149.5 Q17.35 149.5 14.2 139.45" fill="#ff0200" fill-rule="evenodd" stroke="none"/>
    <path d="M21.35 121.1 L21.2 120.6 21.1 117.3 Q21.1 114.5 21.95 112.95 L19.65 107.3 Q17.05 106.4 16.15 102.3 L15.75 98.35 Q14.3 97.75 13.7 95.9 L13.0 91.8 11.35 88.7 Q9.9 86.0 9.9 84.9 L9.9 84.65 Q8.2 84.5 7.15 84.0 6.4 83.7 6.0 83.2 5.5 82.65 5.5 81.55 5.5 79.9 7.8 78.6 9.95 77.4 12.9 77.1 20.3 76.25 20.3 80.4 L20.3 80.75 Q20.15 82.05 18.8 83.0 20.5 87.45 20.8 89.2 L21.85 93.9 22.1 94.4 Q24.0 98.3 24.3 100.4 L26.15 105.85 Q27.9 111.05 27.9 112.7 27.9 113.9 27.4 114.8 L27.3 115.05 Q27.9 117.15 27.9 120.5 27.9 121.6 27.2 122.6 L26.2 123.55 24.7 123.9 24.5 123.9 Q23.1 123.85 22.25 122.9 21.65 122.2 21.35 121.1 M-19.15 136.85 L-19.3 136.3 Q-19.3 133.0 -15.9 132.95 L-15.05 133.05 -13.45 132.1 -13.35 132.05 -13.0 131.5 Q-12.1 130.3 -10.5 130.3 -10.1 130.3 -8.4 130.85 L-7.9 131.0 -7.7 131.0 -4.05 131.3 -2.8 131.1 Q-2.1 129.95 -0.35 129.55 2.25 128.9 3.8 127.0 L5.1 124.35 7.8 118.8 Q8.45 115.6 9.9 114.0 L9.9 112.4 Q11.05 108.1 13.9 108.65 16.7 109.15 16.7 112.15 L16.5 117.15 Q15.6 126.2 11.4 132.1 6.15 139.5 -2.5 139.5 -5.35 139.5 -6.4 138.0 L-6.45 137.9 -7.1 137.85 -7.6 138.2 Q-10.05 139.8 -13.25 139.9 L-13.7 139.9 Q-17.55 139.9 -18.8 138.1 L-19.15 136.85 M20.35 149.4 L20.3 149.3 20.5 147.05 20.3 146.5 20.05 145.6 Q18.05 144.1 17.9 139.4 17.85 138.55 16.7 135.75 L15.8 133.5 15.5 132.5 Q15.5 129.35 17.05 129.05 L18.2 129.25 18.7 129.45 20.5 130.95 21.3 131.8 Q22.3 132.2 23.4 133.8 24.3 135.6 25.6 140.4 L27.4 147.3 28.7 153.15 Q28.7 154.4 28.0 155.4 L27.85 155.65 27.4 156.8 Q26.6 158.3 24.7 158.3 L23.8 158.15 Q21.9 157.45 20.95 153.8 L20.35 149.4" fill="#ce0000" fill-rule="evenodd" stroke="none"/>
    <path d="M19.8 79.3 L20.7 79.2 20.7 79.1 21.5 79.3 22.0 79.6 22.3 79.9 22.6 80.2 22.8 80.5 22.9 80.8 23.0 81.1 23.1 81.4 23.3 81.7 23.5 82.0 23.7 82.3 23.8 82.6 23.9 82.9 23.9 83.2 23.9 83.5 24.0 83.8 24.2 84.1 24.3 84.4 24.5 84.7 24.6 85.0 24.7 85.3 24.7 85.6 24.9 85.9 25.0 86.2 25.2 86.5 25.3 86.8 25.4 87.1 25.5 87.4 25.6 87.7 25.7 88.0 25.9 88.3 26.0 88.6 26.2 88.9 26.3 89.2 26.5 89.5 26.6 89.8 26.8 90.1 26.9 90.4 27.1 90.7 27.2 91.0 27.4 91.3 27.5 91.6 27.5 91.9 27.6 92.2 27.8 92.5 27.9 92.8 28.1 93.1 28.2 93.4 28.4 93.7 28.5 94.0 28.6 94.3 28.7 94.6 28.7 94.9 28.7 95.2 28.9 95.5 29.0 95.8 29.1 96.1 29.1 96.4 29.3 96.7 29.4 97.0 29.5 97.3 29.5 97.6 29.7 97.9 29.8 98.2 29.9 98.5 29.9 98.8 30.1 99.1 30.2 99.4 30.3 99.7 30.3 100.0 30.3 100.3 30.4 100.6 30.6 100.9 30.7 101.2 30.7 101.5 30.7 101.8 30.7 102.1 30.7 102.4 30.9 102.7 31.0 103.0 31.2 103.3 31.3 103.6 31.4 103.9 31.5 104.2 31.5 104.5 31.5 104.8 31.7 105.1 31.8 105.4 31.9 105.7 31.9 106.0 32.1 106.3 32.2 106.6 32.3 106.9 32.3 107.2 32.3 107.5 32.4 107.8 32.6 108.1 32.7 108.4 32.7 108.7 32.8 109.0 33.0 109.3 33.1 109.6 33.1 109.9 33.1 110.2 33.1 110.5 33.1 110.8 33.3 111.1 33.4 111.4 33.5 111.7 33.5 112.0 33.5 112.3 33.5 112.6 33.6 112.9 33.7 113.2 33.8 113.5 33.9 113.8 33.9 114.1 33.9 114.4 33.9 114.7 33.9 115.0 33.9 115.3 33.9 115.6 33.9 115.9 33.9 116.2 33.9 116.5 33.9 116.8 33.9 117.1 34.0 117.4 34.2 117.7 34.3 118.0 34.3 118.3 34.3 118.6 34.3 118.9 34.3 119.2 34.3 119.5 34.3 119.8 34.3 120.1 34.3 120.4 34.3 120.7 34.3 121.0 34.3 121.3 34.3 121.6 34.3 121.9 34.3 122.2 34.2 122.5 34.0 122.8 33.9 123.1 33.9 123.4 33.8 123.7 33.6 124.0 33.5 124.3 33.3 124.6 33.2 124.9 33.0 125.2 32.7 125.5 32.4 125.8 31.9 126.1 31.3 126.4 30.9 126.6 30.1 126.8 29.7 127.0 28.9 127.2 28.5 127.4 27.9 127.5 26.9 127.5 27.0 127.8 27.1 128.1 27.1 128.4 27.1 128.7 27.2 129.0 27.4 129.3 27.5 129.6 27.7 129.9 27.8 130.2 27.9 130.5 27.9 130.8 28.1 131.1 28.2 131.4 28.3 131.7 28.3 132.0 28.5 132.3 28.6 132.6 28.7 132.9 28.7 133.2 28.9 133.5 29.0 133.8 29.1 134.1 29.1 134.4 29.3 134.7 29.4 135.0 29.6 135.3 29.7 135.6 29.9 135.9 30.0 136.2 30.2 136.5 30.3 136.8 30.3 137.1 30.3 137.4 30.4 137.7 30.5 138.0 30.6 138.3 30.7 138.6 30.8 138.9 30.9 139.2 31.1 139.5 31.2 139.8 31.4 140.1 31.5 140.4 31.5 140.7 31.6 141.0 31.8 141.3 31.9 141.6 32.1 141.9 32.2 142.2 32.3 142.5 32.4 142.8 32.5 143.1 32.6 143.4 32.8 143.7 32.9 144.0 33.0 144.3 33.1 144.6 33.1 144.9 33.1 145.2 33.3 145.5 33.4 145.8 33.5 146.1 33.5 146.4 33.7 146.7 33.8 147.0 34.0 147.3 34.1 147.6 34.2 147.9 34.3 148.2 34.3 148.5 34.3 148.8 34.5 149.1 34.6 149.4 34.7 149.7 34.7 150.0 34.7 150.3 34.8 150.6 35.0 150.9 35.1 151.2 35.1 151.5 35.1 151.8 35.1 152.1 35.1 152.4 35.1 152.7 35.2 153.0 35.4 153.3 35.5 153.6 35.5 153.9 35.5 154.2 35.5 154.5 35.5 154.8 35.5 155.1 35.5 155.4 35.5 155.7 35.5 156.0 35.5 156.3 35.5 156.6 35.5 156.9 35.5 157.2 35.5 157.5 35.5 157.8 35.5 158.1 35.5 158.4 35.5 158.7 35.5 159.0 35.4 159.3 35.2 159.6 35.1 159.9 35.1 160.2 35.0 160.5 34.8 160.8 34.7 161.1 34.7 161.4 34.6 161.7 34.4 162.0 34.3 162.3 34.1 162.6 34.0 162.9 33.8 163.2 33.5 163.5 33.2 163.8 32.7 164.1 31.9 164.3 27.1 164.3 26.2 164.1 25.6 163.8 25.1 163.5 24.4 163.2 24.1 162.9 23.8 162.6 23.5 162.3 23.2 162.0 22.9 161.7 22.7 161.4 22.3 161.1 22.0 160.8 21.7 160.5 21.6 160.2 21.5 159.9 21.2 159.6 20.9 159.3 20.6 159.0 20.3 158.7 20.1 158.4 20.0 158.1 19.8 157.8 19.6 157.5 19.5 157.2 19.3 156.9 19.0 156.6 18.8 156.3 18.7 156.0 18.5 155.7 18.2 155.4 18.0 155.1 17.9 154.8 17.7 154.5 17.6 154.2 17.5 153.9 17.3 153.6 17.2 153.3 17.1 153.0 17.0 152.7 16.9 152.4 16.8 152.1 16.6 151.8 16.4 151.5 16.3 151.2 16.3 150.9 16.2 150.6 16.0 150.3 15.9 150.0 15.7 149.7 15.6 149.4 15.5 149.1 15.3 148.8 15.2 148.5 15.1 148.2 15.0 147.9 14.9 147.6 14.8 147.3 14.7 147.0 14.6 146.7 14.5 146.4 14.4 146.1 14.3 145.8 14.2 145.5 14.1 145.2 14.05 145.0 14.0 145.0 13.8 145.3 13.6 145.6 13.5 145.9 13.2 146.2 12.9 146.5 12.5 146.8 11.9 147.1 11.3 147.4 10.7 147.7 9.9 147.9 -0.9 147.9 -1.8 147.7 -2.5 147.5 -3.4 147.3 -4.1 147.1 -5.0 146.9 -5.7 146.7 -6.6 146.5 -6.9 146.3 -7.8 146.1 -8.2 145.8 -8.4 145.6 -8.5 145.5 -9.4 145.3 -10.1 145.1 -11.0 144.9 -11.3 144.7 -12.2 144.5 -12.9 144.3 -13.8 144.1 -14.1 143.9 -15.0 143.7 -15.3 143.5 -16.2 143.3 -16.8 143.0 -17.1 142.8 -17.7 142.7 -18.6 142.5 -18.9 142.3 -19.8 142.1 -20.2 141.8 -20.5 141.5 -20.8 141.2 -21.4 140.9 -21.8 140.6 -22.1 140.3 -22.3 140.0 -22.4 139.7 -22.6 139.4 -22.8 139.1 -22.9 138.8 -23.1 138.5 -23.4 138.2 -23.6 137.9 -23.7 137.6 -23.9 137.3 -24.0 137.0 -24.1 136.7 -24.1 136.4 -24.1 136.1 -24.1 135.8 -24.1 135.5 -24.1 135.2 -24.3 134.9 -24.4 134.6 -24.5 134.3 -24.5 134.0 -24.5 133.7 -24.5 133.4 -24.5 133.1 -24.5 132.8 -24.5 132.5 -24.5 132.2 -24.5 131.9 -24.4 131.6 -24.3 131.3 -24.1 131.0 -24.1 130.7 -24.1 130.4 -24.1 130.1 -24.1 129.8 -24.1 129.5 -24.1 129.2 -24.0 128.9 -23.9 128.6 -23.7 128.3 -23.6 128.0 -23.5 127.7 -23.3 127.4 -23.2 127.1 -23.0 126.8 -22.7 126.5 -22.5 126.2 -22.4 125.9 -22.2 125.6 -21.9 125.3 -21.6 125.0 -21.3 124.7 -21.0 124.4 -20.8 124.1 -20.7 123.8 -20.5 123.5 -20.2 123.2 -19.9 122.9 -19.6 122.6 -19.3 122.3 -19.0 122.0 -18.6 121.7 -18.0 121.4 -17.5 121.2 -16.9 121.1 -12.9 121.1 -12.1 121.3 -11.5 121.6 -11.1 121.8 -10.9 121.9 -10.1 122.1 -9.5 122.4 -9.1 122.6 -5.7 122.7 -4.9 122.9 -3.7 123.1 -2.9 123.3 -1.1 123.3 -0.8 123.0 -0.5 122.7 -0.4 122.4 -0.3 122.1 0.0 121.85 -0.6 121.7 -1.3 121.5 -2.2 121.3 -3.3 121.1 -4.2 120.9 -4.6 120.6 -5.0 120.3 -5.6 120.0 -5.9 119.7 -6.2 119.4 -6.6 119.1 -7.2 118.8 -7.5 118.5 -7.8 118.2 -8.0 117.9 -8.1 117.6 -8.3 117.3 -8.6 117.0 -8.9 116.7 -9.1 116.4 -9.2 116.1 -9.3 115.8 -9.4 115.5 -9.5 115.2 -9.6 114.9 -9.7 114.6 -9.7 114.3 -9.7 114.0 -9.7 113.7 -9.7 113.4 -9.7 113.1 -9.7 112.8 -9.7 112.5 -9.7 112.2 -9.7 111.9 -9.7 111.6 -9.7 111.3 -9.7 111.0 -9.6 110.7 -9.4 110.4 -9.3 110.1 -9.3 109.8 -9.3 109.5 -9.3 109.2 -9.3 108.9 -9.3 108.6 -9.2 108.3 -9.0 108.0 -8.8 107.7 -8.7 107.4 -8.6 107.1 -8.5 106.8 -8.4 106.5 -8.3 106.2 -8.2 105.9 -8.1 105.6 -8.0 105.3 -7.9 105.0 -7.8 104.7 -7.6 104.4 -7.5 104.1 -7.3 103.8 -7.3 103.5 -7.2 103.2 -7.1 102.9 -6.9 102.6 -6.8 102.3 -6.6 102.0 -6.5 101.7 -6.5 101.4 -6.4 101.1 -6.2 100.8 -6.0 100.5 -5.9 100.2 -5.8 99.9 -5.6 99.6 -5.5 99.3 -5.3 99.0 -5.3 98.7 -5.2 98.4 -5.1 98.1 -4.9 97.8 -4.8 97.5 -4.6 97.2 -4.5 96.9 -4.3 96.6 -4.2 96.3 -4.0 96.0 -3.9 95.7 -3.7 95.4 -3.6 95.1 -3.4 94.8 -3.1 94.5 -2.9 94.2 -2.8 93.9 -2.6 93.6 -2.5 93.3 -2.3 93.0 -2.1 92.7 -1.8 92.4 -1.7 92.1 -1.5 91.8 -1.3 91.5 -1.0 91.2 -0.9 90.9 -0.7 90.6 -0.6 90.3 -0.5 90.0 -0.4 89.7 -0.3 89.4 -0.1 89.1 0.2 88.8 0.3 88.5 0.5 88.2 0.6 87.9 0.8 87.6 0.9 87.3 1.2 87.0 1.5 86.7 1.6 86.4 1.7 86.1 2.0 85.8 2.2 85.5 2.4 85.2 2.5 84.9 2.7 84.6 2.8 84.3 3.0 84.0 3.1 83.7 3.1 83.4 3.1 83.1 3.2 82.8 3.3 82.5 3.6 82.2 3.9 81.9 4.2 81.7 4.5 81.6 5.1 81.6 5.1 81.5 5.5 81.5 6.3 81.7 6.8 82.0 7.1 82.3 7.2 82.6 7.4 82.9 7.5 83.2 7.5 83.5 7.5 83.8 7.5 84.1 7.4 84.4 7.3 84.7 7.1 85.0 7.0 85.3 6.8 85.6 6.7 85.9 6.65 86.0 7.1 85.9 7.9 86.1 8.4 86.4 8.7 86.7 8.8 87.0 9.0 87.3 9.1 87.6 9.1 87.9 9.1 88.2 9.1 88.5 9.1 88.8 9.1 89.1 9.1 89.4 9.2 89.7 9.3 90.0 9.4 90.3 9.5 90.6 9.5 90.9 9.5 91.2 9.5 91.5 9.6 91.8 9.8 92.1 9.9 92.4 9.9 92.7 10.0 93.0 10.2 93.3 10.3 93.6 10.5 93.9 10.6 94.2 10.7 94.5 10.7 94.8 10.9 95.1 11.0 95.4 11.2 95.7 11.3 96.0 11.5 96.3 11.6 96.6 11.8 96.9 11.9 97.2 12.1 97.5 12.2 97.8 12.3 98.1 12.3 98.4 12.3 98.7 12.4 99.0 12.6 99.3 12.7 99.6 12.7 99.9 12.8 100.2 13.0 100.5 13.1 100.8 13.1 101.1 13.1 101.4 13.2 101.7 13.3 102.0 13.5 102.3 13.6 102.6 13.8 102.9 13.9 103.2 14.1 103.5 14.2 103.8 14.4 104.1 14.5 104.4 14.7 104.7 14.8 105.0 15.0 105.3 15.1 105.6 15.1 105.9 15.1 106.2 15.2 106.5 15.3 106.8 15.5 107.1 15.6 107.4 15.8 107.7 15.9 108.0 16.1 108.3 16.2 108.6 16.3 108.9 16.3 109.2 16.5 109.5 16.6 109.8 16.7 110.1 16.7 110.4 16.9 110.7 17.0 111.0 17.1 111.3 17.1 111.6 17.3 111.9 17.4 112.2 17.5 112.5 17.5 112.8 17.7 113.1 17.8 113.4 17.9 113.7 17.9 114.0 18.1 114.3 18.2 114.6 18.4 114.9 18.5 115.2 18.7 115.5 19.0 115.8 19.2 116.1 19.3 116.4 19.5 116.7 19.6 117.0 19.8 117.3 20.0 117.6 20.3 117.9 20.6 118.2 20.8 118.5 20.9 118.8 21.1 119.1 21.4 119.4 21.7 119.7 22.0 120.0 22.3 120.3 22.6 120.6 22.8 120.9 23.2 121.2 23.5 121.5 23.8 121.8 24.1 122.1 24.5 122.4 25.0 122.7 25.4 123.0 25.9 123.3 27.0 123.3 28.0 123.0 28.5 122.8 29.1 122.7 29.7 122.5 29.9 122.2 29.9 121.9 30.0 121.6 30.1 121.3 30.3 121.0 30.3 120.7 30.3 120.4 30.3 120.1 30.3 119.8 30.3 119.5 30.3 119.2 30.1 118.9 30.0 118.6 29.9 118.3 29.9 118.0 29.9 117.7 29.9 117.4 29.9 117.1 29.9 116.8 29.9 116.5 29.9 116.2 29.9 115.9 29.9 115.6 29.9 115.3 29.9 115.0 29.9 114.7 29.9 114.4 29.7 114.1 29.6 113.8 29.5 113.5 29.5 113.2 29.5 112.9 29.4 112.6 29.2 112.3 29.1 112.0 29.1 111.7 29.1 111.4 29.1 111.1 29.1 110.8 28.9 110.5 28.8 110.2 28.7 109.9 28.7 109.6 28.5 109.3 28.4 109.0 28.3 108.7 28.3 108.4 28.3 108.1 28.2 107.8 28.0 107.5 27.9 107.2 27.9 106.9 27.8 106.6 27.6 106.3 27.5 106.0 27.5 105.7 27.5 105.4 27.4 105.1 27.3 104.8 27.2 104.5 27.0 104.2 26.8 103.9 26.7 103.6 26.7 103.3 26.7 103.0 26.7 102.7 26.7 102.4 26.5 102.1 26.4 101.8 26.3 101.5 26.3 101.2 26.3 100.9 26.2 100.6 26.0 100.3 25.9 100.0 25.9 99.7 25.8 99.4 25.6 99.1 25.5 98.8 25.5 98.5 25.4 98.2 25.2 97.9 25.1 97.6 25.1 97.3 25.0 97.0 24.8 96.7 24.7 96.4 24.7 96.1 24.6 95.8 24.4 95.5 24.3 95.2 24.3 94.9 24.2 94.6 24.0 94.3 23.9 94.0 23.7 93.7 23.6 93.4 23.5 93.1 23.5 92.8 23.3 92.5 23.0 92.2 22.8 91.9 22.7 91.6 22.7 91.3 22.6 91.0 22.4 90.7 22.3 90.4 22.1 90.1 22.0 89.8 21.9 89.5 21.7 89.2 21.6 88.9 21.5 88.6 21.4 88.3 21.3 88.0 21.2 87.7 21.0 87.4 20.8 87.1 20.7 86.8 20.7 86.5 20.6 86.2 20.4 85.9 20.3 85.6 20.1 85.3 20.0 85.0 19.9 84.7 19.9 84.4 19.7 84.1 19.4 83.8 19.2 83.5 19.1 83.2 19.1 82.9 19.0 82.6 18.8 82.3 18.7 82.0 18.7 81.7 18.7 81.4 18.7 81.1 18.7 80.8 18.8 80.5 18.9 80.2 19.1 79.9 19.4 79.6 19.8 79.3 M5.1 89.05 L5.0 89.2 4.6 89.5 4.2 89.8 4.0 90.1 3.9 90.4 3.7 90.7 3.5 91.0 3.5 91.3 3.4 91.6 3.3 91.9 3.1 92.2 2.9 92.5 2.7 92.8 2.5 93.1 2.3 93.4 2.1 93.7 1.9 94.0 1.7 94.3 1.5 94.6 1.3 94.9 1.1 95.2 0.9 95.5 0.8 95.8 0.6 96.1 0.4 96.4 0.3 96.7 0.0 97.0 -0.2 97.3 -0.3 97.6 -0.5 97.9 -0.6 98.2 -0.8 98.5 -0.9 98.8 -1.1 99.1 -1.2 99.4 -1.3 99.7 -1.3 100.0 -1.4 100.3 -1.5 100.6 -1.6 100.9 -1.8 101.2 -2.1 101.5 -2.1 101.8 -2.2 102.1 -2.4 102.4 -2.5 102.7 -2.5 103.0 -2.6 103.3 -2.8 103.6 -2.9 103.9 -3.1 104.2 -3.2 104.5 -3.3 104.8 -3.4 105.1 -3.5 105.4 -3.6 105.7 -3.8 106.0 -4.1 106.3 -4.1 106.6 -4.2 106.9 -4.3 107.2 -4.5 107.5 -4.5 107.8 -4.6 108.1 -4.7 108.4 -4.9 108.7 -4.9 109.0 -5.0 109.3 -5.2 109.6 -5.3 109.9 -5.3 110.2 -5.3 110.5 -5.3 110.8 -5.3 111.1 -5.3 111.4 -5.4 111.7 -5.6 112.0 -5.7 112.3 -5.7 112.6 -5.7 112.9 -5.7 113.2 -5.7 113.5 -5.6 113.8 -5.4 114.1 -5.3 114.4 -5.0 114.7 -4.6 115.0 -4.4 115.3 -4.3 115.6 -4.1 115.9 -3.8 116.2 -3.3 116.5 -2.7 116.8 -2.3 117.0 -1.7 117.1 -0.9 117.3 -0.1 117.5 0.7 117.7 1.9 117.9 2.2 117.6 2.3 117.3 2.3 117.0 2.3 116.7 2.3 116.4 2.3 116.1 2.3 115.8 2.4 115.5 2.6 115.2 2.7 114.9 2.7 114.6 2.7 114.3 2.8 114.0 2.9 113.7 3.1 113.4 3.1 113.1 3.2 112.8 3.3 112.5 3.5 112.2 3.5 111.9 3.5 111.6 3.5 111.3 3.5 111.0 3.5 110.7 3.5 110.4 3.6 110.1 3.7 109.8 3.8 109.5 3.9 109.2 4.0 108.9 4.1 108.6 4.2 108.3 4.3 108.0 4.3 107.7 4.3 107.4 4.3 107.1 4.4 106.8 4.5 106.5 4.7 106.2 4.7 105.9 4.7 105.6 4.7 105.3 4.7 105.0 4.8 104.7 5.0 104.4 5.1 104.1 5.1 103.8 5.1 103.5 5.1 103.2 5.2 102.9 5.3 102.6 5.4 102.3 5.5 102.0 5.5 101.7 5.5 101.4 5.5 101.1 5.5 100.8 5.5 100.5 5.5 100.2 5.5 99.9 5.5 99.6 5.5 99.3 5.5 99.0 5.5 98.7 5.5 98.4 5.5 98.1 5.5 97.8 5.5 97.5 5.5 97.2 5.5 96.9 5.5 96.6 5.5 96.3 5.6 96.0 5.7 95.7 6.0 95.4 6.3 95.1 6.45 95.0 6.4 94.9 6.3 94.6 6.2 94.3 6.1 94.0 6.0 93.7 5.9 93.4 5.8 93.1 5.7 92.8 5.6 92.5 5.5 92.2 5.5 91.9 5.5 91.6 5.3 91.3 5.2 91.0 5.1 90.7 5.1 90.4 5.1 90.1 5.1 89.8 5.1 89.5 5.1 89.2 5.1 89.05 M10.8 106.3 L10.7 106.0 10.5 105.7 10.4 105.4 10.3 105.1 10.1 104.8 10.0 104.5 9.8 104.2 9.6 103.9 9.5 103.6 9.45 103.5 9.4 103.6 9.3 103.9 9.1 104.2 9.1 104.5 9.1 104.8 9.1 105.1 9.1 105.4 9.0 105.7 8.8 106.0 8.7 106.3 8.7 106.6 8.7 106.9 8.7 107.2 8.6 107.5 8.5 107.8 8.4 108.1 8.3 108.4 8.3 108.7 8.3 109.0 8.3 109.3 8.2 109.6 8.1 109.9 7.9 110.2 7.9 110.5 7.8 110.8 7.7 111.1 7.5 111.4 7.5 111.7 7.5 112.0 7.5 112.3 7.5 112.6 7.5 112.9 7.5 113.2 7.4 113.5 7.3 113.8 7.2 114.1 7.1 114.4 7.0 114.7 6.9 115.0 6.8 115.3 6.7 115.6 6.7 115.9 6.7 116.2 6.7 116.5 6.6 116.8 6.5 117.1 6.3 117.4 6.3 117.7 6.3 118.0 6.3 118.3 6.3 118.6 6.2 118.9 6.0 119.2 5.9 119.5 5.7 119.8 5.6 120.1 5.5 120.4 5.4 120.7 5.3 121.0 5.2 121.3 5.0 121.6 4.9 121.9 4.7 122.2 4.6 122.5 4.4 122.8 4.3 123.1 4.1 123.4 4.0 123.7 3.8 124.0 3.5 124.3 3.3 124.6 3.2 124.9 3.0 125.2 2.7 125.5 2.4 125.8 2.1 126.1 1.8 126.4 1.4 126.7 0.9 127.0 0.3 127.3 -0.5 127.5 -3.7 127.5 -4.6 127.3 -5.3 127.1 -6.2 126.9 -10.1 126.7 -11.0 126.5 -11.6 126.2 -11.9 126.0 -12.1 125.9 -13.0 125.7 -13.4 125.4 -13.6 125.2 -16.1 125.3 -16.6 125.6 -16.9 125.9 -17.2 126.2 -17.5 126.5 -17.8 126.8 -17.9 127.1 -18.1 127.4 -18.3 127.7 -18.6 128.0 -18.9 128.3 -19.1 128.6 -19.2 128.9 -19.4 129.2 -19.7 129.5 -19.9 129.8 -20.0 130.1 -20.1 130.4 -20.1 130.7 -20.1 131.0 -20.1 131.3 -20.1 131.6 -20.1 131.9 -20.1 132.2 -20.2 132.5 -20.4 132.8 -20.5 133.1 -20.4 133.4 -20.2 133.7 -20.1 134.0 -20.1 134.3 -20.1 134.6 -20.1 134.9 -20.1 135.2 -19.9 135.5 -19.8 135.8 -19.6 136.1 -19.5 136.4 -19.3 136.7 -19.2 137.0 -19.0 137.3 -18.8 137.6 -18.5 137.9 -17.9 138.2 -17.3 138.5 -16.5 138.7 -15.7 138.9 -15.1 139.2 -14.7 139.4 -14.5 139.5 -13.7 139.7 -13.3 139.9 -12.5 140.1 -11.7 140.3 -10.9 140.5 -10.1 140.7 -9.3 140.9 -8.9 141.1 -8.1 141.3 -7.7 141.5 -6.9 141.7 -6.4 142.0 -6.2 142.2 -6.1 142.3 -5.3 142.5 -4.5 142.7 -3.7 142.9 -2.9 143.1 -2.1 143.3 -1.3 143.5 -0.5 143.7 9.3 143.7 9.6 143.4 10.2 143.1 10.6 142.8 10.9 142.5 11.1 142.2 11.2 141.9 11.4 141.6 11.7 141.3 11.9 141.0 12.0 140.7 12.2 140.4 12.4 140.1 12.5 139.8 12.6 139.5 12.7 139.2 12.7 138.9 12.7 138.6 12.7 138.3 12.7 138.0 12.7 137.7 12.7 137.4 12.8 137.1 13.0 136.8 13.3 136.5 13.5 136.3 13.5 136.2 13.5 135.9 13.5 135.6 13.5 135.3 13.5 135.0 13.5 134.7 13.6 134.4 13.7 134.1 13.9 133.8 13.9 133.5 13.9 133.2 14.0 132.9 14.1 132.6 14.2 132.3 14.3 132.0 14.3 131.7 14.3 131.4 14.3 131.1 14.4 130.8 14.5 130.5 14.7 130.2 14.7 129.9 14.7 129.6 14.8 129.3 14.9 129.0 15.0 128.7 15.1 128.4 15.1 128.1 15.1 127.8 15.1 127.5 15.2 127.2 15.3 126.9 15.5 126.6 15.5 126.3 15.5 126.0 15.5 125.7 15.5 125.4 15.5 125.1 15.5 124.8 15.6 124.5 15.7 124.2 15.8 123.9 15.9 123.6 16.0 123.3 16.1 123.0 16.2 122.7 16.3 122.4 16.3 122.1 16.3 121.8 16.3 121.5 16.4 121.2 16.5 120.9 16.8 120.6 16.9 120.5 16.8 120.4 16.5 120.1 16.2 119.8 16.0 119.5 15.9 119.2 15.9 118.9 15.8 118.6 15.6 118.3 15.5 118.0 15.3 117.7 15.0 117.4 14.8 117.1 14.7 116.8 14.5 116.5 14.4 116.2 14.3 115.9 14.1 115.6 14.0 115.3 13.9 115.0 13.8 114.7 13.7 114.4 13.6 114.1 13.5 113.8 13.4 113.5 13.3 113.2 13.2 112.9 13.1 112.6 13.0 112.3 12.9 112.0 12.8 111.7 12.7 111.4 12.6 111.1 12.5 110.8 12.4 110.5 12.3 110.2 12.2 109.9 12.1 109.6 12.0 109.3 11.8 109.0 11.6 108.7 11.5 108.4 11.5 108.1 11.4 107.8 11.2 107.5 11.1 107.2 11.1 106.9 11.0 106.6 10.8 106.3 M19.8 125.2 L19.7 125.5 19.5 125.8 19.5 126.1 19.5 126.4 19.5 126.7 19.5 127.0 19.5 127.3 19.5 127.6 19.4 127.9 19.3 128.2 19.2 128.5 19.1 128.8 19.1 129.1 19.1 129.4 19.1 129.7 19.0 130.0 18.9 130.3 18.7 130.6 18.7 130.9 18.7 131.2 18.6 131.5 18.5 131.8 18.4 132.1 18.3 132.4 18.3 132.7 18.3 133.0 18.3 133.3 18.2 133.6 18.1 133.9 17.9 134.2 17.9 134.5 17.9 134.8 17.8 135.1 17.7 135.4 17.6 135.7 17.5 136.0 17.5 136.3 17.5 136.6 17.5 136.9 17.5 137.2 17.5 137.5 17.5 137.8 17.4 138.1 17.2 138.4 17.1 138.7 17.1 139.0 17.1 139.3 17.0 139.6 17.0 139.7 17.1 140.0 17.1 140.3 17.1 140.6 17.1 140.9 17.1 141.2 17.1 141.5 17.2 141.8 17.4 142.1 17.5 142.4 17.5 142.7 17.6 143.0 17.8 143.3 17.9 143.6 18.1 143.9 18.2 144.2 18.3 144.5 18.3 144.8 18.5 145.1 18.6 145.4 18.7 145.7 18.7 146.0 18.9 146.3 19.0 146.6 19.1 146.9 19.1 147.2 19.3 147.5 19.4 147.8 19.6 148.1 19.7 148.4 19.9 148.7 20.0 149.0 20.2 149.3 20.3 149.6 20.3 149.9 20.4 150.2 20.6 150.5 20.7 150.8 20.7 151.1 20.8 151.4 21.0 151.7 21.1 152.0 21.3 152.3 21.4 152.6 21.6 152.9 21.7 153.2 21.9 153.5 22.2 153.8 22.4 154.1 22.5 154.4 22.7 154.7 23.0 155.0 23.2 155.3 23.3 155.6 23.5 155.9 23.6 156.2 23.8 156.5 24.0 156.8 24.3 157.1 24.6 157.4 24.9 157.7 25.2 158.0 25.5 158.3 25.8 158.6 26.1 158.9 26.3 159.2 26.7 159.5 27.3 159.8 27.7 160.1 30.5 160.1 30.7 159.8 30.8 159.5 31.0 159.2 31.1 158.9 31.1 158.6 31.2 158.3 31.4 158.0 31.5 157.7 31.5 157.4 31.5 157.1 31.5 156.8 31.5 156.5 31.5 156.2 31.5 155.9 31.5 155.6 31.5 155.3 31.5 155.0 31.4 154.7 31.3 154.4 31.2 154.1 31.1 153.8 31.1 153.5 31.1 153.2 31.1 152.9 31.1 152.6 31.0 152.3 30.9 152.0 30.8 151.7 30.7 151.4 30.7 151.1 30.7 150.8 30.5 150.5 30.4 150.2 30.3 149.9 30.3 149.6 30.3 149.3 30.2 149.0 30.0 148.7 29.9 148.4 29.7 148.1 29.6 147.8 29.5 147.5 29.5 147.2 29.3 146.9 29.2 146.6 29.1 146.3 29.1 146.0 29.1 145.7 29.0 145.4 28.8 145.1 28.7 144.8 28.7 144.5 28.6 144.2 28.4 143.9 28.3 143.6 28.1 143.3 28.0 143.0 27.9 142.7 27.7 142.4 27.6 142.1 27.5 141.8 27.4 141.5 27.3 141.2 27.2 140.9 27.0 140.6 26.8 140.3 26.7 140.0 26.7 139.7 26.6 139.4 26.4 139.1 26.3 138.8 26.3 138.5 26.3 138.2 26.2 137.9 26.1 137.6 26.0 137.3 25.8 137.0 25.6 136.7 25.5 136.4 25.3 136.1 25.2 135.8 25.1 135.5 25.1 135.2 24.9 134.9 24.8 134.6 24.7 134.3 24.5 134.0 24.4 133.7 24.3 133.4 24.2 133.1 24.1 132.8 24.0 132.5 23.9 132.2 23.8 131.9 23.7 131.6 23.6 131.3 23.5 131.0 23.4 130.7 23.3 130.4 23.2 130.1 23.1 129.8 23.1 129.5 23.1 129.2 22.9 128.9 22.8 128.6 22.7 128.3 22.4 128.0 22.1 127.7 21.8 127.4 21.6 127.1 21.5 126.8 21.5 126.5 21.5 126.2 21.5 125.9 21.6 125.6 21.7 125.3 21.6 125.2 21.3 124.9 20.8 124.6 20.3 124.3 20.15 124.15 20.1 124.3 19.9 124.6 19.9 124.9 19.8 125.2" fill="#000000" fill-rule="evenodd" stroke="none"/>
  </g>
</svg>
