<?xml version="1.0" encoding="UTF-8" standalone="no"?>
<svg xmlns:ffdec="https://www.free-decompiler.com/flash" xmlns:xlink="http://www.w3.org/1999/xlink" ffdec:objectType="shape" height="67.15px" width="134.9px" xmlns="http://www.w3.org/2000/svg">
  <g transform="matrix(1.0, 0.0, 0.0, 1.0, 77.9, 37.25)">
    <path d="M54.4 -32.2 Q59.65 -3.85 54.25 24.2 53.55 27.7 51.2 29.9 -11.15 30.25 -72.1 23.2 L-70.4 -3.55 -71.25 -4.5 Q-72.9 -16.7 -75.5 -28.7 -76.1 -31.4 -77.9 -33.45 -15.5 -41.7 47.8 -32.0 L47.8 -33.05 54.4 -32.2 M47.6 -26.7 Q-4.6 -33.8 -57.05 -28.95 L-65.6 -28.15 -63.0 -3.0 -63.85 -2.15 -64.4 13.7 44.5 19.75 47.6 -26.7" fill="#66cccc" fill-rule="evenodd" stroke="none"/>
    <path d="M18.8 -12.9 L18.8 -12.25 Q19.7 -12.25 21.25 -13.1 23.0 -14.05 23.85 -14.15 26.9 -14.15 29.25 -12.7 31.6 -11.3 33.05 -8.7 L33.7 -6.55 33.9 -4.45 Q33.9 -2.75 33.4 -1.35 32.95 0.1 31.8 1.45 30.6 2.8 29.0 3.6 27.1 4.55 24.9 4.55 L21.95 4.1 Q20.35 3.6 19.65 2.45 19.3 2.75 19.25 3.85 L19.25 6.45 24.7 6.45 24.7 9.6 21.75 9.6 22.7 9.05 Q23.45 8.8 23.45 8.3 L22.8 8.05 22.2 7.9 Q21.7 7.9 21.1 8.5 L19.85 9.6 19.6 9.05 19.25 8.55 Q18.45 9.5 15.85 9.7 L13.1 9.8 12.95 8.3 12.9 6.45 15.85 6.45 15.85 -6.15 16.3 -6.15 16.7 -6.8 16.4 -7.45 15.85 -8.05 16.3 -8.35 Q16.7 -8.75 16.7 -9.3 16.4 -9.3 16.4 -9.6 L16.55 -10.2 16.7 -10.8 16.5 -11.3 16.3 -11.65 Q16.05 -11.5 15.95 -10.9 L15.85 -10.15 15.85 -11.0 15.65 -11.65 Q15.05 -11.65 14.4 -11.0 L15.05 -10.15 12.9 -9.7 12.6 -11.55 12.5 -13.1 18.8 -12.9 M5.75 -21.9 L5.8 -18.15 Q5.8 -16.55 5.95 -16.0 L1.15 -15.8 0.95 -21.9 5.75 -21.9 M19.55 -6.9 L18.6 -5.3 Q18.75 -3.55 19.7 -1.85 20.65 -0.15 22.15 0.8 L23.2 1.1 24.05 1.2 Q25.45 1.2 26.95 0.45 L29.5 -1.15 Q29.95 -2.1 30.05 -3.25 L30.15 -6.15 Q29.4 -8.15 27.7 -9.15 26.1 -10.15 24.05 -10.15 21.65 -10.15 20.05 -8.9 20.05 -7.8 19.55 -6.9 M23.25 -11.4 L23.85 -11.6 23.25 -12.25 23.25 -11.4 22.95 -11.4 23.25 -11.4 M12.25 4.15 L5.95 3.5 -3.7 4.15 -4.0 2.55 -4.1 1.2 0.0 1.0 Q1.5 0.8 2.4 0.15 L2.0 -9.7 -3.05 -10.15 -3.05 -13.5 5.95 -13.5 5.75 0.8 12.25 1.2 12.25 4.15 M18.6 7.5 L18.45 7.35 17.95 7.05 17.1 7.05 17.75 8.95 Q17.75 8.45 18.3 7.9 L18.6 7.5 M-41.7 -13.3 Q-40.55 -14.15 -39.05 -14.6 L-36.0 -14.95 -33.0 -14.7 -30.15 -13.95 Q-30.15 -14.75 -29.6 -15.0 L-27.85 -15.2 -27.45 -11.85 Q-28.05 -11.2 -29.1 -11.2 L-29.3 -11.8 -30.0 -11.75 Q-30.4 -11.75 -30.75 -11.2 L-29.3 -10.85 -27.45 -10.55 -28.3 -8.8 Q-28.8 -8.05 -30.15 -8.05 L-30.15 -8.45 Q-29.75 -8.45 -29.1 -9.1 L-29.1 -10.35 -30.3 -10.5 -32.05 -10.55 -31.6 -10.95 -33.25 -11.6 -35.0 -11.8 Q-37.45 -11.8 -39.8 -10.15 -39.8 -9.3 -39.2 -8.6 L-38.15 -7.65 -36.8 -7.4 -35.4 -7.2 -35.0 -6.55 -35.4 -5.8 -35.6 -5.3 -35.0 -4.7 -33.3 -6.1 Q-32.9 -6.55 -32.9 -7.2 -32.15 -6.75 -29.8 -6.5 -27.45 -6.3 -26.6 -5.1 -26.6 -2.95 -26.95 -1.6 L-27.85 0.55 Q-29.4 1.8 -31.45 2.55 -33.5 3.3 -35.6 3.3 L-36.15 3.3 -38.1 3.2 -39.8 2.65 -40.2 3.05 -40.25 3.5 Q-40.65 3.9 -41.05 3.9 L-42.25 3.5 -43.2 3.3 Q-43.6 2.85 -43.6 2.45 L-43.1 1.05 -42.55 -0.05 -41.9 -0.5 Q-42.8 -0.5 -43.0 -1.55 L-43.4 -3.65 -41.7 -3.95 -40.65 -4.25 Q-40.0 -4.25 -39.9 -3.95 L-39.8 -2.8 -40.3 -2.85 -41.05 -3.0 Q-41.05 -2.1 -39.65 -1.4 L-38.75 -0.7 -37.05 0.1 -35.2 0.35 Q-33.05 0.35 -29.95 -0.9 L-27.2 -2.2 -27.9 -2.45 Q-28.35 -2.45 -28.7 -2.8 L-29.1 -2.6 Q-29.3 -3.65 -32.25 -3.9 L-35.0 -4.05 -35.0 -4.7 -36.65 -4.7 -36.25 -4.9 -38.15 -4.8 -39.6 -4.7 -41.85 -6.4 Q-43.15 -7.5 -43.4 -9.1 L-43.3 -10.45 -42.95 -12.25 Q-42.4 -12.25 -42.05 -12.75 L-41.7 -13.3 M-22.5 -20.55 L-19.25 -21.05 -19.25 -7.4 Q-18.3 -7.4 -17.05 -8.45 L-15.05 -10.15 Q-16.0 -10.15 -16.25 -10.85 L-16.5 -14.15 -6.4 -13.7 -6.4 -10.15 Q-9.15 -10.15 -11.45 -8.9 L-14.8 -6.75 Q-14.7 -5.8 -13.2 -4.4 L-10.8 -1.95 Q-10.3 -0.95 -9.15 -0.05 L-6.85 1.6 -6.4 1.2 -6.65 0.7 -6.85 0.35 Q-5.5 0.35 -4.95 1.2 L-4.3 2.85 -4.7 3.3 -4.75 3.7 -5.6 3.7 -7.5 3.55 -8.1 2.85 Q-8.45 3.5 -9.35 3.5 L-10.3 3.2 -11.05 3.05 -11.15 2.4 Q-11.2 1.85 -11.45 1.6 L-12.3 3.05 Q-12.3 2.45 -12.95 2.45 -13.65 2.45 -13.85 2.15 L-14.0 1.4 -14.0 0.15 -13.8 0.35 -13.5 0.15 -13.35 -0.05 -13.8 -0.8 -14.0 -1.3 Q-14.7 -1.4 -15.85 -3.05 -17.0 -4.7 -17.75 -4.7 -18.4 -4.7 -19.0 -4.05 L-19.15 -2.65 -19.45 -0.05 -19.3 1.2 -18.6 2.45 Q-19.35 2.9 -20.6 3.0 L-25.55 3.05 -25.55 0.35 -22.6 0.35 Q-22.2 -0.05 -22.2 -0.45 L-22.3 -1.5 -22.6 -2.6 -21.95 -2.2 -21.65 -2.85 -21.55 -3.45 Q-22.2 -3.8 -22.4 -4.55 -22.6 -5.35 -22.6 -8.25 L-22.6 -9.65 -22.7 -14.45 Q-22.8 -16.15 -23.2 -17.7 L-25.95 -17.1 -25.95 -20.2 -22.5 -20.55 M-29.5 -12.8 L-28.7 -11.85 -28.7 -13.95 -29.95 -13.95 Q-29.95 -13.25 -29.5 -12.8" fill="#66cccc" fill-rule="evenodd" stroke="none"/>
  </g>
</svg>
