<?xml version="1.0" encoding="UTF-8" standalone="no"?>
<svg xmlns:ffdec="https://www.free-decompiler.com/flash" xmlns:xlink="http://www.w3.org/1999/xlink" ffdec:objectType="shape" height="89.25px" width="41.2px" xmlns="http://www.w3.org/2000/svg">
  <g transform="matrix(1.0, 0.0, 0.0, 1.0, 6.5, -77.45)">
    <path d="M16.1 116.0 Q18.0 111.35 20.3 100.8 20.3 99.2 19.2 98.25 L18.35 97.75 Q19.35 95.4 20.2 91.0 21.3 85.35 21.5 82.35 23.25 82.3 23.5 86.7 L23.7 88.3 24.0 88.9 24.5 93.35 24.7 96.7 Q24.7 99.5 23.9 104.8 L23.0 110.4 22.9 111.0 22.7 112.0 22.1 115.25 22.5 115.15 Q24.1 115.1 26.5 118.1 28.8 121.0 30.5 124.85 32.3 129.05 32.3 132.0 32.3 134.35 29.2 142.8 26.9 149.1 24.7 151.55 22.95 154.3 21.5 154.3 L20.7 154.25 20.7 154.15 20.95 150.9 Q22.05 148.35 23.2 144.3 L24.0 141.5 Q24.75 141.1 25.1 140.2 25.5 139.3 25.5 137.35 L25.4 136.4 Q26.4 135.9 26.8 134.7 27.1 133.8 27.1 131.55 L27.0 128.6 25.5 124.8 Q23.75 121.85 21.7 122.05 L20.85 120.15 19.9 122.75 19.1 123.35 18.85 123.3 Q16.95 123.05 16.25 124.4 L16.05 124.4 16.3 123.2 15.8 121.65 Q15.3 120.55 15.3 120.05 15.3 119.55 15.8 118.8 L16.3 117.5 16.1 116.0 M8.9 153.15 L8.3 154.4 Q10.25 155.8 10.7 156.55 11.1 157.15 11.1 158.6 11.1 162.7 6.3 162.7 L3.1 162.25 Q2.4 162.7 1.5 162.7 -2.35 162.7 -4.0 160.1 -4.9 158.65 -4.9 157.25 -4.9 155.4 -3.15 149.7 L-3.35 150.7 Q-3.7 152.4 -3.7 155.25 L-3.7 158.25 Q-3.15 161.1 -0.5 161.1 3.05 161.1 3.3 157.4 2.9 153.25 3.1 152.3 L4.9 144.15 Q7.35 139.2 10.7 127.0 L10.45 125.45 11.2 125.95 Q12.3 126.9 12.3 128.7 L12.3 128.8 12.3 128.95 Q12.3 131.0 11.5 133.8 10.95 135.75 10.25 136.85 11.45 136.65 12.45 137.45 L12.7 137.7 Q12.15 140.45 10.9 144.1 8.7 150.4 8.7 152.05 L8.9 153.15 M0.8 137.3 Q1.65 133.55 3.05 131.1 L3.0 131.3 0.85 137.05 0.8 137.3" fill="#990000" fill-rule="evenodd" stroke="none"/>
    <path d="M11.1 81.8 L11.1 82.1 11.5 85.4 Q11.85 86.7 12.4 87.5 L12.35 88.25 11.9 92.5 10.7 101.2 Q9.9 106.8 9.9 109.9 L10.0 112.3 Q10.25 113.2 10.75 113.8 L10.3 115.9 10.6 117.7 Q11.3 119.5 13.5 119.5 14.65 119.5 16.1 116.0 L16.3 117.5 15.8 118.8 Q15.3 119.55 15.3 120.05 15.3 120.55 15.8 121.65 L16.3 123.2 16.05 124.4 16.25 124.4 Q15.9 125.15 15.9 126.3 15.9 126.85 17.3 130.0 18.65 133.0 18.7 134.0 L18.2 138.1 16.0 145.4 15.65 146.55 Q13.1 148.75 13.1 153.1 L13.25 155.0 Q12.6 155.5 11.9 155.5 9.75 155.5 9.0 153.85 L8.9 153.15 8.7 152.05 Q8.7 150.4 10.9 144.1 12.15 140.45 12.7 137.7 13.1 135.65 13.1 134.05 L12.7 131.45 12.3 128.95 12.3 128.8 12.3 128.7 Q12.35 127.45 13.2 126.3 L12.9 126.3 11.2 125.95 10.45 125.45 Q10.0 124.3 8.85 123.25 L8.4 122.9 8.3 122.7 7.5 120.25 Q6.3 118.2 5.9 114.2 L5.9 105.95 Q5.9 99.1 6.3 91.4 L6.2 87.7 Q6.15 85.5 6.7 84.2 8.3 80.55 11.0 81.75 L11.1 81.8" fill="#ff0200" fill-rule="evenodd" stroke="none"/>
    <path d="M11.1 81.8 Q11.15 79.65 12.15 78.65 13.1 77.7 14.5 78.2 L15.8 78.9 Q16.6 77.7 18.0 77.5 19.35 77.3 20.4 78.35 21.5 79.5 21.5 81.25 L21.5 82.35 Q21.3 85.35 20.2 91.0 19.35 95.4 18.35 97.75 L19.2 98.25 Q20.3 99.2 20.3 100.8 18.0 111.35 16.1 116.0 14.65 119.5 13.5 119.5 11.3 119.5 10.6 117.7 L10.3 115.9 10.75 113.8 Q10.25 113.2 10.0 112.3 L9.9 109.9 Q9.9 106.8 10.7 101.2 L11.9 92.5 12.35 88.25 12.4 87.5 Q11.85 86.7 11.5 85.4 L11.1 82.1 11.1 81.8 M20.7 154.25 Q20.7 155.35 19.9 156.4 18.85 157.9 16.9 157.9 14.1 157.9 13.3 155.5 L13.25 155.0 13.1 153.1 Q13.1 148.75 15.65 146.55 L16.0 145.4 18.2 138.1 18.7 134.0 Q18.65 133.0 17.3 130.0 15.9 126.85 15.9 126.3 15.9 125.15 16.25 124.4 16.95 123.05 18.85 123.3 L19.1 123.35 19.9 122.75 20.4 122.45 Q21.05 122.1 21.7 122.05 23.75 121.85 25.5 124.8 L27.0 128.6 27.1 131.55 Q27.1 133.8 26.8 134.7 26.4 135.9 25.4 136.4 L25.5 137.35 Q25.5 139.3 25.1 140.2 24.75 141.1 24.0 141.5 L23.2 144.3 Q22.05 148.35 20.95 150.9 L20.7 154.15 20.7 154.25 M-3.15 149.7 L-2.4 144.9 Q-2.0 141.55 -0.25 140.25 L0.7 137.55 0.75 137.4 0.8 137.3 0.85 137.05 3.0 131.3 3.05 131.1 3.75 127.95 Q4.2 125.6 4.7 124.7 6.5 121.65 8.4 122.9 L8.85 123.25 Q10.0 124.3 10.45 125.45 L10.7 127.0 Q7.35 139.2 4.9 144.15 L3.1 152.3 Q2.9 153.25 3.3 157.4 3.05 161.1 -0.5 161.1 -3.15 161.1 -3.7 158.25 L-3.7 155.25 Q-3.7 152.4 -3.35 150.7 L-3.15 149.7" fill="#ce0000" fill-rule="evenodd" stroke="none"/>
    <path d="M4.7 84.5 L4.7 84.2 4.7 83.9 4.8 83.6 4.9 83.3 5.2 83.0 5.5 82.7 5.8 82.5 6.1 82.4 6.7 82.3 7.5 82.5 8.0 82.8 8.3 83.1 8.4 83.4 8.6 83.7 8.7 84.0 8.7 84.3 8.7 84.6 8.7 84.9 8.7 85.2 8.7 85.5 8.7 85.8 8.7 86.1 8.7 86.4 8.7 86.7 8.7 87.0 8.7 87.3 8.7 87.6 8.7 87.9 8.7 88.2 8.7 88.5 8.7 88.8 8.7 89.1 8.7 89.4 8.7 89.7 8.6 90.0 8.5 90.3 8.4 90.6 8.3 90.9 8.3 91.2 8.3 91.5 8.3 91.8 8.3 92.1 8.3 92.4 8.3 92.7 8.3 93.0 8.3 93.3 8.2 93.6 8.1 93.9 8.0 94.2 7.9 94.5 7.9 94.8 7.9 95.1 7.9 95.4 7.9 95.7 7.9 96.0 7.9 96.3 7.9 96.6 7.9 96.9 7.9 97.2 7.9 97.5 7.9 97.8 7.9 98.1 7.9 98.4 7.9 98.7 7.9 99.0 7.9 99.3 7.9 99.6 7.9 99.9 7.9 100.2 7.9 100.5 7.9 100.8 7.9 101.1 7.9 101.4 7.9 101.7 7.9 102.0 7.9 102.3 7.9 102.6 7.9 102.9 7.9 103.2 7.9 103.5 7.9 103.8 7.9 104.1 7.9 104.4 7.9 104.7 7.9 105.0 7.9 105.3 7.9 105.6 7.9 105.9 7.9 106.2 7.9 106.5 7.9 106.8 7.9 107.1 7.9 107.4 7.9 107.7 7.9 108.0 7.9 108.3 7.9 108.6 7.9 108.9 7.9 109.2 7.9 109.5 7.9 109.8 7.9 110.1 7.9 110.4 7.9 110.7 7.9 111.0 7.9 111.3 7.9 111.6 7.9 111.75 7.8 112.7 7.8 112.95 Q6.75 115.25 7.95 118.6 L8.1 119.9 8.05 120.05 8.2 120.2 8.6 121.45 Q9.55 123.95 11.75 123.35 L12.3 123.2 13.8 123.3 16.1 123.3 16.4 123.0 17.1 122.7 17.4 122.4 17.7 122.1 18.0 121.8 18.3 121.5 18.6 121.2 18.9 120.9 19.2 120.6 19.4 120.3 19.6 120.0 19.7 119.7 19.9 119.4 19.9 119.1 20.0 118.8 20.1 118.5 20.4 118.2 20.6 117.9 20.7 117.6 20.8 117.3 20.9 117.0 21.0 116.7 21.1 116.4 21.1 116.1 21.1 115.8 21.2 115.5 21.4 115.2 21.5 114.9 21.5 114.6 21.5 114.3 21.5 114.0 21.5 113.7 21.5 113.4 21.5 113.1 21.5 112.8 21.5 112.5 21.5 112.2 21.5 111.9 21.6 111.6 21.7 111.3 21.9 111.0 21.9 110.7 21.9 110.4 21.9 110.1 21.9 109.8 21.9 109.5 21.9 109.2 21.9 108.9 21.9 108.6 21.9 108.3 21.9 108.0 21.9 107.7 21.9 107.4 21.9 107.1 21.9 106.8 21.9 106.5 21.9 106.2 21.9 105.9 21.9 105.6 21.9 105.3 21.9 105.0 21.9 104.7 21.9 104.4 21.9 104.1 21.9 103.8 22.0 103.5 22.2 103.2 22.3 102.9 22.3 102.6 22.3 102.3 22.3 102.0 22.3 101.7 22.3 101.4 22.3 101.1 22.3 100.8 22.3 100.5 22.3 100.2 22.3 99.9 22.3 99.6 22.3 99.3 22.3 99.0 22.3 98.7 22.3 98.4 22.3 98.1 22.3 97.8 22.3 97.5 22.3 97.2 22.3 96.9 22.3 96.6 22.3 96.3 22.3 96.0 22.3 95.7 22.3 95.4 22.3 95.1 22.3 94.8 22.3 94.5 22.3 94.2 22.3 93.9 22.3 93.6 22.3 93.3 22.3 93.0 22.3 92.7 22.3 92.4 22.3 92.1 22.3 91.8 22.2 91.5 22.1 91.2 22.0 90.9 21.9 90.6 21.9 90.3 21.9 90.0 21.9 89.7 21.9 89.4 21.9 89.1 21.9 88.8 21.9 88.5 21.9 88.2 21.9 87.9 21.9 87.6 21.9 87.3 21.9 87.0 21.9 86.7 21.9 86.4 21.9 86.1 21.9 85.8 21.9 85.5 21.9 85.2 21.9 84.9 21.9 84.6 21.9 84.3 21.9 84.0 21.9 83.7 21.9 83.4 21.9 83.1 21.9 82.8 21.9 82.5 21.9 82.2 21.9 81.9 21.9 81.6 22.0 81.3 22.1 81.0 22.3 80.7 22.6 80.4 23.0 80.1 23.9 80.0 23.9 79.9 24.7 80.1 25.2 80.4 25.5 80.7 25.6 81.0 25.8 81.3 25.9 81.6 25.9 81.9 25.9 82.2 25.9 82.5 25.9 82.8 25.9 83.1 25.9 83.4 25.9 83.7 25.9 84.0 25.9 84.3 25.9 84.6 25.9 84.9 25.9 85.2 25.9 85.5 25.9 85.8 25.9 86.1 25.9 86.4 25.9 86.7 25.9 87.0 25.9 87.3 25.9 87.6 25.9 87.9 25.9 88.2 25.9 88.5 25.9 88.8 25.9 89.1 25.9 89.4 26.0 89.7 26.1 90.0 26.2 90.3 26.3 90.6 26.3 90.9 26.3 91.2 26.3 91.5 26.3 91.8 26.3 92.1 26.3 92.4 26.3 92.7 26.3 93.0 26.3 93.3 26.3 93.6 26.3 93.9 26.3 94.2 26.3 94.5 26.3 94.8 26.3 95.1 26.3 95.4 26.3 95.7 26.3 96.0 26.3 96.3 26.3 96.6 26.3 96.9 26.3 97.2 26.3 97.5 26.3 97.8 26.3 98.1 26.3 98.4 26.3 98.7 26.3 99.0 26.3 99.3 26.3 99.6 26.3 99.9 26.3 100.2 26.3 100.5 26.3 100.8 26.3 101.1 26.3 101.4 26.3 101.7 26.3 102.0 26.3 102.3 26.3 102.6 26.3 102.9 26.3 103.2 26.3 103.5 26.3 103.8 26.3 104.1 26.2 104.4 26.1 104.7 25.9 105.0 25.9 105.3 25.9 105.6 25.9 105.9 25.9 106.2 25.9 106.5 25.9 106.8 25.9 107.1 25.9 107.4 25.9 107.7 25.9 108.0 25.9 108.3 25.9 108.6 25.9 108.9 25.9 109.2 25.9 109.5 25.9 109.8 25.9 110.1 25.9 110.4 25.9 110.7 25.9 111.0 25.9 111.3 25.9 111.6 25.9 111.9 25.9 112.2 25.8 112.5 25.6 112.8 25.5 113.1 25.5 113.4 25.5 113.7 25.5 114.0 25.5 114.3 25.5 114.4 25.9 114.4 25.9 114.3 26.7 114.5 27.2 114.8 27.5 115.1 27.6 115.4 27.8 115.7 27.9 116.0 28.1 116.3 28.2 116.6 28.3 116.9 28.4 117.2 28.5 117.5 28.7 117.8 28.8 118.1 29.0 118.4 29.1 118.7 29.15 118.75 29.2 118.8 29.5 119.1 29.6 119.4 29.8 119.7 29.9 120.0 30.1 120.3 30.2 120.6 30.25 120.7 30.3 120.8 30.5 121.1 30.6 121.4 30.7 121.7 30.7 121.95 30.8 122.1 30.9 122.4 31.1 122.7 31.4 123.0 31.6 123.3 31.7 123.6 31.8 123.9 31.9 124.2 32.0 124.5 32.1 124.8 32.3 125.1 32.4 125.4 32.6 125.7 32.7 126.0 32.9 126.3 33.0 126.6 33.2 126.9 33.3 127.2 33.4 127.5 33.5 127.8 33.6 128.1 33.7 128.4 33.9 128.7 34.0 129.0 34.2 129.3 34.3 129.6 34.3 129.9 34.3 130.2 34.3 130.5 34.3 130.8 34.3 131.1 34.4 131.4 34.6 131.7 34.7 132.0 34.7 132.3 34.7 132.6 34.7 132.9 34.7 133.2 34.7 133.5 34.7 133.8 34.7 134.1 34.6 134.4 34.5 134.7 34.3 135.0 34.3 135.3 34.3 135.6 34.3 135.9 34.3 136.2 34.3 136.5 34.3 136.8 34.2 137.1 34.1 137.4 34.0 137.7 33.8 138.0 33.7 138.3 33.5 138.6 33.3 138.9 33.1 139.2 33.0 139.5 32.9 139.8 32.8 140.1 32.6 140.4 32.5 140.7 32.3 141.0 32.1 141.3 31.9 141.6 31.9 141.9 31.9 142.2 31.8 142.5 31.6 142.8 31.5 143.1 31.2 143.4 31.0 143.7 30.8 144.0 30.7 144.3 30.4 144.6 30.2 144.9 30.0 145.2 29.9 145.5 29.9 145.8 29.8 146.1 29.6 146.4 29.5 146.7 29.2 147.0 29.0 147.3 28.8 147.6 28.7 147.9 28.7 148.2 28.6 148.5 28.4 148.8 28.3 149.1 28.1 149.4 28.0 149.7 27.8 150.0 27.5 150.3 27.2 150.6 27.0 150.9 26.9 151.2 26.7 151.5 26.6 151.8 26.4 152.1 26.2 152.4 25.9 152.7 25.7 153.0 25.6 153.3 25.4 153.6 25.3 153.9 25.1 154.2 24.9 154.5 24.6 154.8 24.5 155.1 24.3 155.4 24.2 155.7 24.0 156.0 23.9 156.3 23.6 156.6 23.4 156.9 23.2 157.2 23.1 157.5 22.8 157.8 22.5 158.1 22.2 158.4 21.9 158.7 21.6 159.0 21.3 159.3 20.9 159.6 20.5 159.8 19.9 159.9 19.1 160.1 18.3 160.3 17.5 160.3 16.6 160.1 15.5 159.9 14.6 159.7 14.35 159.5 14.2 159.6 13.9 159.9 13.7 160.2 13.6 160.5 13.4 160.8 13.1 161.1 12.9 161.4 12.8 161.7 12.6 162.0 12.3 162.3 12.0 162.6 11.7 162.9 11.4 163.2 11.1 163.5 10.8 163.8 10.5 164.1 10.1 164.4 9.5 164.7 9.2 165.0 8.9 165.3 8.5 165.6 7.9 165.9 7.6 166.1 7.3 166.2 6.5 166.4 6.1 166.6 5.5 166.7 2.3 166.7 1.4 166.5 0.7 166.3 -0.2 166.1 -0.5 165.9 -1.4 165.7 -1.8 165.4 -2.1 165.1 -2.4 164.8 -2.7 164.5 -3.0 164.2 -3.3 163.9 -3.6 163.6 -4.2 163.3 -4.6 163.0 -4.9 162.7 -5.1 162.4 -5.2 162.1 -5.3 161.8 -5.4 161.5 -5.5 161.2 -5.6 160.9 -5.8 160.6 -6.0 160.3 -6.1 160.0 -6.1 159.7 -6.1 159.4 -6.1 159.1 -6.1 158.8 -6.1 158.5 -6.2 158.2 -6.4 157.9 -6.5 157.6 -6.5 157.3 -6.5 157.0 -6.5 156.7 -6.5 156.4 -6.5 156.1 -6.5 155.8 -6.5 155.5 -6.5 155.2 -6.5 154.9 -6.5 154.6 -6.5 154.3 -6.5 154.0 -6.5 153.7 -6.5 153.4 -6.5 153.1 -6.5 152.8 -6.5 152.5 -6.5 152.2 -6.5 151.9 -6.5 151.6 -6.5 151.3 -6.5 151.0 -6.5 150.7 -6.4 150.4 -6.3 150.1 -6.1 149.8 -6.1 149.5 -6.1 149.2 -6.1 148.9 -6.1 148.6 -6.0 148.3 -5.8 148.0 -5.7 147.7 -5.7 147.4 -5.7 147.1 -5.7 146.8 -5.7 146.5 -5.7 146.2 -5.6 145.9 -5.4 145.6 -5.3 145.3 -5.3 145.0 -5.3 144.7 -5.2 144.4 -5.1 144.1 -4.9 143.8 -4.9 143.5 -4.8 143.2 -4.7 142.9 -4.4 142.6 -4.2 142.3 -4.1 142.0 -4.0 141.7 -3.9 141.4 -3.7 141.1 -3.4 140.8 -3.3 140.5 -3.3 140.2 -3.2 139.9 -3.0 139.6 -2.8 139.3 -2.7 139.0 -2.5 138.7 -2.4 138.4 -2.3 138.1 -2.1 137.8 -2.0 137.5 -1.8 137.2 -1.6 136.9 -1.5 136.6 -1.4 136.3 -1.3 136.0 -1.2 135.7 -1.1 135.4 -0.9 135.1 -0.8 134.8 -0.7 134.5 -0.5 134.2 -0.5 133.9 -0.4 133.6 -0.3 133.3 -0.1 133.0 0.0 132.7 0.2 132.4 0.4 132.1 0.5 131.8 0.7 131.5 0.8 131.2 0.9 130.9 1.1 130.6 1.1 130.3 1.2 130.0 1.3 129.7 1.5 129.4 1.6 129.1 1.8 128.8 1.9 128.5 1.9 128.2 1.9 127.9 2.0 127.6 2.1 127.3 2.3 127.0 2.4 126.7 2.6 126.4 2.7 126.1 2.7 125.8 2.7 125.5 2.7 125.2 2.8 124.9 2.9 124.6 3.0 124.3 3.1 124.0 3.2 123.7 3.3 123.4 3.4 123.1 3.5 122.8 3.5 122.5 3.5 122.2 3.5 121.9 3.6 121.6 3.7 121.3 3.9 121.0 3.9 120.8 3.9 120.7 3.9 120.5 3.9 120.4 3.9 120.2 3.9 120.1 3.9 119.9 3.9 119.8 3.9 119.6 3.9 119.5 3.9 119.3 3.9 119.2 3.9 119.0 3.9 118.7 3.9 118.4 3.9 118.1 3.9 117.8 3.9 117.5 3.9 117.2 3.9 116.9 3.9 116.6 3.9 116.3 3.9 116.0 3.9 115.7 3.9 115.4 3.9 115.1 3.9 114.8 3.9 114.5 3.9 114.2 3.9 113.9 3.9 113.6 3.9 113.3 3.9 113.0 3.9 112.7 3.9 112.4 3.9 112.1 3.9 111.8 3.9 111.5 3.9 111.2 3.9 110.9 3.9 110.6 3.9 110.3 3.9 110.0 3.9 109.7 3.9 109.4 3.9 109.1 3.9 108.8 3.9 108.5 3.9 108.2 3.9 107.9 3.9 107.6 3.9 107.3 3.9 107.0 3.9 106.7 3.9 106.4 3.9 106.1 3.9 105.8 3.9 105.5 3.9 105.2 3.9 104.9 3.9 104.6 3.9 104.3 3.9 104.0 3.9 103.7 3.9 103.4 3.9 103.1 3.9 102.8 3.9 102.5 3.9 102.2 3.9 101.9 3.9 101.6 3.9 101.3 3.9 101.0 3.9 100.7 3.9 100.4 3.9 100.1 3.9 99.8 3.9 99.5 3.9 99.2 3.9 98.9 3.9 98.6 3.9 98.3 3.9 98.0 3.9 97.7 3.9 97.4 3.9 97.1 3.9 96.8 3.9 96.5 3.9 96.2 3.9 95.9 3.9 95.6 3.9 95.3 3.9 95.0 3.9 94.7 3.9 94.4 3.9 94.1 3.9 93.8 3.9 93.5 4.0 93.2 4.1 92.9 4.3 92.6 4.3 92.3 4.3 92.0 4.3 91.7 4.3 91.4 4.3 91.1 4.3 90.8 4.3 90.5 4.3 90.2 4.3 89.9 4.4 89.6 4.5 89.3 4.7 89.0 4.7 88.7 4.7 88.4 4.7 88.1 4.7 87.8 4.7 87.5 4.7 87.2 4.7 86.9 4.7 86.6 4.7 86.3 4.7 86.0 4.7 85.7 4.7 85.4 4.7 85.1 4.7 84.8 4.7 84.5 M24.6 119.1 L24.5 119.4 24.4 119.7 24.2 120.0 23.9 120.3 23.9 120.6 23.8 120.9 23.6 121.2 23.5 121.5 23.2 121.8 23.1 122.1 23.0 122.4 22.9 122.7 22.7 123.0 22.5 123.3 22.1 123.6 21.7 123.9 21.5 124.2 21.3 124.5 21.0 124.8 20.7 125.1 20.4 125.4 20.1 125.7 19.7 126.0 19.1 126.3 18.8 126.6 18.3 126.9 17.7 127.2 17.3 127.4 16.7 127.5 14.3 127.5 14.3 127.8 14.3 128.1 14.3 128.4 14.3 128.7 14.3 129.0 14.3 129.3 14.3 129.6 14.3 129.9 14.4 130.2 14.6 130.5 14.7 130.8 14.7 131.1 14.7 131.4 14.7 131.7 14.7 132.0 14.7 132.3 14.7 132.6 14.7 132.9 14.7 133.2 14.7 133.5 14.7 133.8 14.7 134.1 14.7 134.4 14.7 134.7 14.7 135.0 14.7 135.3 14.6 135.6 14.5 135.9 14.3 136.2 14.3 136.5 14.2 136.8 14.1 137.1 13.9 137.4 13.9 137.7 13.9 138.0 13.9 138.3 13.9 138.6 13.8 138.9 13.6 139.2 13.5 139.5 13.5 139.8 13.5 140.1 13.4 140.4 13.3 140.7 13.1 141.0 13.0 141.3 12.8 141.6 12.7 141.9 12.7 142.2 12.6 142.5 12.4 142.8 12.3 143.1 12.0 143.4 11.8 143.7 11.6 144.0 11.5 144.3 11.5 144.6 11.5 144.9 11.4 145.2 11.3 145.5 11.1 145.8 11.1 146.1 11.1 146.4 11.0 146.7 10.9 147.0 10.8 147.3 10.6 147.6 10.5 147.9 10.3 148.2 10.3 148.5 10.3 148.8 10.3 149.1 10.3 149.4 10.3 149.7 10.2 150.0 10.1 150.3 9.9 150.6 10.0 150.9 10.4 151.2 10.7 151.5 10.8 151.8 11.0 152.1 11.2 152.4 11.5 152.7 11.8 153.0 12.3 153.3 12.8 153.6 13.1 153.9 13.4 154.2 13.65 154.35 14.3 154.5 14.8 154.8 15.1 155.1 15.15 155.2 15.5 155.3 16.1 155.6 16.5 155.8 17.5 155.9 18.8 155.8 19.2 155.5 19.4 155.2 19.7 154.9 19.9 154.6 20.0 154.3 20.2 154.0 20.5 153.7 20.7 153.4 20.8 153.1 21.0 152.8 21.2 152.5 21.3 152.2 21.5 151.9 21.8 151.6 22.0 151.3 22.1 151.0 22.3 150.7 22.6 150.4 22.9 150.1 23.1 149.8 23.1 149.5 23.2 149.2 23.3 148.9 23.6 148.6 23.9 148.3 24.0 148.0 24.1 147.7 24.3 147.4 24.4 147.1 24.6 146.8 24.8 146.5 24.9 146.2 25.1 145.9 25.2 145.6 25.3 145.3 25.5 145.0 25.6 144.7 25.8 144.4 26.0 144.1 26.1 143.8 26.3 143.5 26.4 143.2 26.5 142.9 26.7 142.6 26.8 142.3 27.0 142.0 27.3 141.7 27.5 141.4 27.6 141.1 27.8 140.8 27.9 140.5 27.9 140.2 28.0 139.9 28.2 139.6 28.4 139.3 28.5 139.0 28.7 138.7 28.8 138.4 28.9 138.1 29.1 137.8 29.2 137.5 29.4 137.2 29.6 136.9 29.7 136.6 29.9 136.3 30.0 136.0 30.1 135.7 30.3 135.4 30.3 135.1 30.3 134.8 30.3 134.5 30.3 134.2 30.3 133.9 30.4 133.6 30.5 133.3 30.6 133.0 30.4 132.7 30.3 132.4 30.3 132.1 30.3 131.8 30.3 131.5 30.3 131.2 30.3 130.9 30.2 130.6 30.0 130.3 29.9 130.0 29.7 129.7 29.6 129.4 29.5 129.1 29.3 128.8 29.2 128.5 29.1 128.2 29.0 127.9 28.9 127.6 28.8 127.3 28.6 127.0 28.4 126.7 28.3 126.4 28.1 126.1 28.0 125.8 27.9 125.5 27.6 125.2 27.3 124.9 27.2 124.6 27.1 124.3 26.9 124.0 26.8 123.7 26.7 123.4 26.6 123.1 26.5 122.8 26.4 122.5 26.2 122.2 26.1 122.1 26.1 122.0 26.0 121.9 25.9 121.6 25.9 121.5 25.8 121.2 25.7 120.9 25.6 120.6 25.4 120.3 25.3 120.0 25.1 119.7 25.0 119.4 24.8 119.1 24.7 118.8 24.6 119.1 M10.3 128.3 L10.3 128.0 10.1 127.7 10.0 127.4 9.9 127.1 9.9 126.8 9.9 126.7 9.0 126.5 8.4 126.2 7.9 125.9 7.6 125.6 7.3 125.3 7.1 125.0 7.1 125.3 7.0 125.6 6.9 125.9 6.7 126.2 6.7 126.5 6.7 126.8 6.7 127.1 6.7 127.4 6.6 127.7 6.4 128.0 6.3 128.3 6.1 128.6 6.0 128.9 5.9 129.2 5.9 129.5 5.8 129.8 5.6 130.1 5.5 130.4 5.4 130.7 5.3 131.0 5.2 131.3 5.0 131.6 4.9 131.9 4.8 132.2 4.7 132.5 4.6 132.8 4.5 133.1 4.3 133.4 4.3 133.7 4.2 134.0 4.1 134.3 3.9 134.6 3.7 134.9 3.5 135.2 3.4 135.5 3.3 135.8 3.2 136.1 3.0 136.4 2.9 136.7 2.7 137.0 2.7 137.3 2.6 137.6 2.5 137.9 2.3 138.2 2.2 138.5 2.0 138.8 1.9 139.1 1.7 139.4 1.6 139.7 1.4 140.0 1.3 140.3 1.1 140.6 1.0 140.9 0.8 141.2 0.7 141.5 0.7 141.8 0.6 142.1 0.4 142.4 0.3 142.7 0.1 143.0 0.0 143.3 -0.2 143.6 -0.3 143.9 -0.5 144.2 -0.6 144.5 -0.8 144.8 -0.9 145.1 -1.1 145.4 -1.2 145.7 -1.3 146.0 -1.3 146.3 -1.3 146.6 -1.4 146.9 -1.6 147.2 -1.7 147.5 -1.7 147.8 -1.7 148.1 -1.7 148.4 -1.7 148.7 -1.7 149.0 -1.8 149.3 -2.0 149.6 -2.1 149.9 -2.1 150.2 -2.1 150.5 -2.1 150.8 -2.2 151.1 -2.3 151.4 -2.4 151.7 -2.5 152.0 -2.5 152.3 -2.5 152.6 -2.5 152.9 -2.5 153.2 -2.5 153.5 -2.5 153.8 -2.5 154.1 -2.5 154.4 -2.5 154.7 -2.5 155.0 -2.5 155.3 -2.5 155.6 -2.5 155.9 -2.5 156.2 -2.4 156.5 -2.3 156.8 -2.2 157.1 -2.1 157.4 -2.1 157.7 -2.1 158.0 -2.1 158.3 -2.1 158.6 -2.0 158.9 -1.9 159.2 -1.7 159.5 -1.6 159.8 -1.4 160.1 -1.2 160.4 -0.9 160.7 -0.6 161.0 -0.3 161.3 0.1 161.6 0.7 161.9 1.2 162.1 1.3 162.2 1.9 162.3 2.7 162.5 5.0 162.5 5.6 162.2 6.2 161.9 6.6 161.6 7.0 161.3 7.6 161.0 7.9 160.7 8.2 160.4 8.5 160.1 8.8 159.8 9.1 159.5 9.4 159.2 9.7 158.9 9.9 158.6 10.0 158.3 10.2 158.0 10.4 157.7 10.5 157.4 10.6 157.3 10.3 157.1 10.0 156.8 9.7 156.5 9.4 156.2 9.1 155.9 8.8 155.6 8.5 155.3 8.2 155.0 7.9 154.7 7.6 154.4 7.3 154.1 7.0 153.8 6.7 153.5 6.4 153.2 6.1 152.9 6.0 152.6 5.9 152.3 5.9 152.0 5.9 151.7 5.9 151.4 5.9 151.1 5.9 150.8 5.9 150.5 5.9 150.2 5.9 149.9 5.9 149.6 6.0 149.3 6.1 149.0 6.2 148.7 6.3 148.4 6.3 148.1 6.3 147.8 6.3 147.5 6.3 147.2 6.4 146.9 6.5 146.6 6.7 146.3 6.8 146.0 6.9 145.7 7.1 145.4 7.1 145.1 7.1 144.8 7.1 144.5 7.1 144.2 7.2 143.9 7.4 143.6 7.5 143.3 7.5 143.0 7.6 142.7 7.8 142.4 8.0 142.1 8.1 141.8 8.3 141.5 8.4 141.2 8.5 140.9 8.7 140.6 8.8 140.3 9.0 140.0 9.1 139.7 9.1 139.4 9.2 139.1 9.4 138.8 9.5 138.5 9.5 138.2 9.6 137.9 9.8 137.6 9.9 137.3 9.9 137.0 9.9 136.7 9.9 136.4 9.9 136.1 9.9 135.8 10.0 135.5 10.2 135.2 10.3 134.9 10.3 134.6 10.4 134.3 10.6 134.0 10.7 133.7 10.7 133.4 10.7 133.1 10.7 132.8 10.7 132.5 10.6 132.2 10.4 131.9 10.3 131.6 10.3 131.3 10.3 131.0 10.3 130.7 10.3 130.4 10.3 130.1 10.3 129.8 10.3 129.5 10.3 129.2 10.3 128.9 10.3 128.6 10.3 128.3" fill="#000000" fill-rule="evenodd" stroke="none"/>
  </g>
</svg>
