<?xml version="1.0" encoding="UTF-8" standalone="no"?>
<svg xmlns:ffdec="https://www.free-decompiler.com/flash" xmlns:xlink="http://www.w3.org/1999/xlink" ffdec:objectType="shape" height="251.85px" width="256.75px" xmlns="http://www.w3.org/2000/svg">
  <g transform="matrix(1.0, 0.0, 0.0, 1.0, 124.7, 123.65)">
    <path d="M-124.7 68.45 L-124.5 68.75 -124.5 86.75 -124.7 87.05 -124.7 68.45 M-124.7 39.3 L-124.7 29.45 -124.5 29.75 -124.7 39.3 M130.8 126.6 L130.8 128.2 128.9 128.2 129.2 127.6 130.1 127.35 130.8 126.6 M124.05 128.15 L123.95 128.2 104.6 128.2 104.95 127.75 124.05 128.15 M131.95 34.9 L132.05 32.9 132.05 46.7 131.7 46.7 Q131.65 43.4 131.75 40.1 L131.8 38.35 131.85 37.05 131.95 34.9 M129.95 -2.5 L130.45 -1.75 130.45 16.25 128.95 23.0 128.95 26.75 128.45 27.5 127.95 38.0 128.45 38.75 128.95 65.75 128.45 66.5 128.45 89.0 128.95 89.75 128.95 96.5 129.45 97.25 128.45 119.75 127.4 125.75 102.6 124.75 100.3 128.2 92.85 128.2 95.6 127.85 95.4 125.85 90.4 125.35 87.45 125.15 85.65 125.2 83.0 125.3 78.75 125.75 50.45 127.3 48.2 127.35 37.15 127.4 33.65 127.4 27.5 127.25 25.45 127.2 23.4 127.1 23.05 126.7 4.85 124.9 4.2 124.9 1.2 124.9 0.25 124.95 -3.05 125.15 -3.55 125.15 Q-17.45 125.9 -31.4 125.85 L-32.0 125.9 -81.65 127.6 -84.7 127.65 -87.9 127.7 -114.45 126.85 -117.4 126.5 -123.0 125.6 Q-123.25 121.75 -122.85 118.0 L-122.85 117.85 Q-122.6 115.6 -121.8 113.45 L-121.55 112.7 Q-122.9 109.15 -122.7 105.3 L-122.45 103.15 -122.35 102.5 Q-122.2 101.05 -122.35 99.65 L-122.6 96.05 Q-122.7 92.5 -122.1 89.1 L-122.0 88.6 Q-121.45 85.25 -121.2 81.85 L-121.05 78.65 -121.1 75.25 Q-121.25 70.5 -122.1 65.8 -122.5 63.75 -122.45 61.7 L-122.4 59.75 -122.3 57.35 -122.3 56.65 -122.1 50.9 -121.8 40.65 -121.75 39.35 -121.7 37.3 Q-121.6 33.0 -121.9 28.8 L-122.15 24.55 -122.2 23.05 -122.25 15.45 -122.2 13.5 Q-122.05 8.25 -121.55 3.05 -121.1 -1.55 -121.05 -6.15 L-121.1 -10.55 129.45 -10.55 129.95 -2.5" fill="#82641b" fill-rule="evenodd" stroke="none"/>
    <path d="M10.8 -123.3 L11.15 -123.3 10.35 -122.65 10.55 -122.9 10.8 -123.3 M128.95 -122.9 Q129.15 -120.4 128.95 -117.95 L128.55 -111.2 128.1 -92.55 128.05 -88.95 127.95 -80.75 127.45 -80.0 128.45 -52.25 127.95 -51.5 127.85 -49.2 127.7 -46.1 Q127.55 -42.85 127.55 -39.6 127.55 -34.2 127.85 -28.8 128.1 -23.9 128.65 -19.05 129.05 -15.3 128.95 -11.5 L129.45 -10.75 129.45 -10.55 -121.1 -10.55 -121.2 -12.45 -121.7 -22.25 -121.7 -22.8 -121.85 -26.75 -122.1 -39.2 -122.1 -44.3 -122.15 -50.2 -122.25 -64.4 -122.5 -72.65 -122.8 -79.05 Q-123.45 -89.95 -122.9 -100.85 L-122.65 -104.7 -122.2 -110.5 -121.65 -115.55 -121.05 -120.05 -121.0 -120.5 -120.75 -120.4 Q-119.6 -120.0 -118.45 -119.95 L-115.55 -120.25 -113.6 -120.5 -113.1 -120.5 -110.4 -120.65 -104.45 -121.3 -91.75 -121.3 -91.0 -121.15 -89.7 -120.9 -78.8 -119.6 -76.3 -119.5 -65.85 -119.8 -61.55 -120.1 -59.25 -120.15 -34.6 -120.95 -31.6 -121.15 -25.95 -121.7 -25.75 -120.15 -25.05 -119.65 Q-18.25 -114.55 -11.15 -109.75 L-9.6 -108.7 -8.65 -108.15 Q-7.8 -107.7 -6.75 -107.4 L-6.55 -107.35 -4.3 -106.9 6.9 -106.4 8.2 -106.55 Q12.4 -106.95 16.6 -108.15 L19.2 -109.05 Q21.25 -109.9 23.15 -111.05 25.0 -112.15 26.7 -113.55 27.8 -114.45 28.5 -115.65 30.65 -119.5 34.0 -122.35 L34.6 -122.25 36.6 -121.9 Q40.4 -121.65 44.15 -121.85 L75.3 -123.65 87.45 -123.4 Q108.2 -121.95 128.95 -122.9" fill="#82641b" fill-rule="evenodd" stroke="none"/>
    <path d="M44.65 -1.4 Q43.7 -2.3 42.3 -3.05 L43.95 -3.05 Q47.3 -3.05 49.9 -1.45 L44.65 -1.4 M39.15 -4.5 Q27.2 -9.7 14.0 -9.9 L0.2 -10.2 0.1 -10.5 0.05 -10.55 106.3 -10.55 Q106.7 -9.1 105.85 -7.6 L106.05 -7.55 Q106.95 -7.2 107.6 -6.5 110.0 0.75 100.95 0.9 L93.1 1.25 93.3 0.9 Q98.15 -7.0 87.95 -10.0 84.95 -9.8 84.15 -6.7 83.75 -5.15 84.6 -3.75 L58.9 -1.7 59.5 -2.05 40.7 -4.4 39.15 -4.5 M-86.2 -10.55 Q-82.75 -9.45 -79.2 -8.6 -83.75 -8.55 -86.95 -10.55 L-86.2 -10.55 M-49.2 1.75 L-31.15 3.15 -33.7 3.3 -49.35 2.4 -49.2 1.75 M37.35 9.8 L38.05 10.1 Q40.25 11.05 41.95 12.65 46.65 17.3 51.6 14.5 52.05 13.75 52.0 13.0 L51.8 11.4 56.7 11.15 63.8 10.1 63.6 10.25 63.25 10.65 62.95 11.0 62.7 11.35 Q62.45 12.3 62.5 13.25 62.55 14.5 63.6 15.0 67.4 16.95 71.7 17.8 L53.9 18.65 Q56.25 20.25 58.3 22.4 59.55 23.7 59.2 25.05 L54.95 25.3 Q52.95 24.5 50.75 24.25 L45.25 23.85 Q41.05 22.6 36.55 22.1 L27.45 21.2 27.1 20.0 Q24.55 18.4 21.55 17.7 16.65 14.65 10.7 14.5 10.9 13.3 10.25 11.45 22.45 11.65 34.5 13.2 34.45 12.35 34.7 11.35 35.95 10.35 37.35 9.8 M62.15 5.95 Q76.3 5.8 90.15 3.1 91.45 2.85 92.35 2.1 L96.25 2.2 115.2 2.85 Q116.65 2.9 117.6 4.0 119.0 5.95 118.0 8.1 116.95 10.35 114.45 10.4 100.4 10.7 86.5 9.85 L86.6 10.0 86.95 10.7 70.25 9.25 73.85 8.85 63.65 7.7 Q62.85 7.6 62.45 6.7 L62.15 5.95 M68.5 -5.15 L68.5 -4.8 70.8 -5.0 75.0 -5.25 68.5 -5.15 M114.2 17.45 L114.6 17.25 115.2 17.15 115.95 17.05 115.95 17.0 Q117.2 17.05 118.2 17.8 L119.1 18.5 Q119.95 19.7 120.0 21.1 120.15 22.95 119.1 24.5 117.15 26.25 114.45 26.4 L99.7 26.85 Q99.25 24.05 94.45 22.0 92.25 22.1 91.0 24.2 90.35 25.35 90.45 26.75 L90.2 26.8 65.65 25.65 Q64.85 25.6 64.45 24.7 63.65 23.05 64.2 21.35 65.45 19.2 67.95 19.1 L95.55 18.5 Q101.75 19.1 106.95 21.5 106.8 24.35 109.45 25.25 113.95 26.75 114.6 22.05 115.0 19.35 114.2 17.45 M81.5 37.4 L85.85 37.35 Q98.2 37.05 109.6 34.25 L110.2 34.15 110.95 34.05 110.95 34.0 Q112.2 34.05 113.2 34.8 L114.1 35.5 Q115.65 40.65 111.7 42.55 L105.95 42.5 95.75 43.85 95.0 43.95 Q93.75 42.85 91.45 42.0 L91.45 42.05 90.7 42.15 90.1 42.25 89.6 42.5 Q88.8 42.9 88.25 43.65 L87.8 44.25 87.65 44.25 Q88.65 42.65 87.6 39.5 87.15 39.1 86.65 38.95 L81.5 37.4 M28.2 47.3 L-5.3 50.2 -28.4 52.9 -53.2 55.65 Q-28.9 58.35 -4.25 58.75 9.65 58.95 23.55 59.3 23.45 60.45 24.25 61.4 26.15 63.75 28.9 65.15 19.2 64.9 9.55 64.95 L9.1 63.5 8.2 62.8 Q7.2 62.05 6.0 62.0 L-8.65 64.3 -13.5 63.5 -13.55 63.55 -14.25 63.65 -14.9 63.75 -16.35 64.65 Q-29.5 63.75 -42.5 61.0 L-42.55 61.05 -43.25 61.15 -43.9 61.25 -44.95 61.95 -45.75 62.65 -46.25 63.35 -46.5 64.65 -59.55 63.5 Q-65.35 62.9 -70.4 60.35 -72.35 59.3 -72.6 57.45 L-73.85 57.55 Q-86.7 58.65 -99.15 55.95 -104.75 54.75 -102.3 49.8 -99.5 44.05 -94.4 47.5 L-94.15 47.9 -94.0 48.25 -93.8 48.65 -93.65 49.0 -93.65 49.25 -61.35 48.1 Q-65.75 49.95 -69.75 52.35 -70.45 54.35 -69.4 56.1 -68.75 57.15 -67.7 57.05 -57.25 56.1 -47.0 52.0 -40.05 49.25 -32.7 48.1 -20.3 46.25 -7.9 45.4 L28.2 47.3 M38.4 59.65 L58.45 60.3 68.7 60.9 Q71.5 61.15 73.8 62.6 L77.45 63.2 Q97.65 65.65 117.6 63.0 L118.85 61.5 Q120.1 60.5 121.45 60.5 122.7 60.55 123.7 61.25 L124.6 62.0 Q126.65 68.6 120.65 70.45 107.35 63.0 91.45 65.0 L85.45 65.95 Q79.1 66.9 72.8 66.05 69.75 65.6 67.6 67.05 L66.95 67.0 61.35 66.25 Q49.8 63.3 38.4 59.65 M83.3 73.85 Q83.2 75.2 81.85 76.85 79.6 79.6 76.7 77.35 L0.85 80.9 -7.2 81.45 -12.35 80.95 -7.15 80.65 14.4 79.05 Q19.95 78.55 17.7 73.65 L18.5 73.5 40.45 73.7 Q45.7 73.75 46.15 70.5 L55.25 73.15 Q62.2 75.15 69.4 76.05 74.9 76.75 76.2 74.1 L83.3 73.85 M0.5 88.55 Q14.55 88.45 28.6 89.35 L35.0 89.7 Q34.85 90.55 35.05 91.65 L35.4 92.9 Q35.0 93.3 34.7 93.85 L34.6 94.25 Q34.15 96.05 35.25 97.5 L35.7 98.0 34.1 97.9 34.5 98.15 30.7 98.3 Q22.2 98.8 13.8 97.95 L5.15 96.75 Q5.3 95.4 4.6 93.5 L3.85 92.85 3.6 92.5 2.7 91.75 Q1.7 91.05 0.5 91.0 L0.45 91.05 -0.25 91.15 -0.9 91.25 -2.4 92.25 -10.8 92.8 -16.0 91.0 Q-18.6 91.2 -19.55 93.35 L-63.15 95.5 -63.3 95.1 -63.5 94.7 -63.65 94.35 -63.9 94.0 Q-64.1 93.8 -64.3 93.75 -71.8 91.8 -77.75 98.35 L-77.95 99.35 Q-80.6 98.45 -82.5 101.0 L-82.75 101.35 -82.95 102.6 -118.95 100.55 Q-123.25 100.2 -123.9 96.2 L-124.0 95.1 -123.95 94.75 Q-122.35 90.55 -117.35 90.8 L-113.25 90.6 -109.5 90.0 Q-108.3 90.05 -107.3 90.75 L-106.4 91.5 -106.15 91.85 -106.0 92.2 -105.8 92.6 -105.65 93.0 -99.9 93.35 Q-100.05 90.75 -97.25 90.25 L-85.0 88.0 Q-83.8 88.05 -82.8 88.75 L-81.9 89.5 -81.65 89.85 -81.5 90.2 -81.25 90.6 Q-49.8 90.25 -18.0 89.05 L-8.0 88.8 Q-6.15 88.75 -4.45 89.4 -0.95 90.8 0.5 88.55 M69.5 83.15 Q73.5 80.0 79.45 81.85 L82.1 82.4 Q93.4 83.65 104.45 82.15 L106.85 81.6 Q107.45 80.7 108.4 80.15 109.45 79.55 110.45 79.5 111.7 79.55 112.7 80.25 L113.6 81.0 Q116.15 89.3 106.25 90.35 89.9 92.15 74.1 88.95 74.85 87.15 74.1 84.5 73.45 83.8 72.6 83.4 71.55 82.95 70.45 83.0 L69.5 83.15 M63.95 92.45 Q70.5 93.95 76.75 96.45 L77.4 96.85 Q64.6 95.85 52.1 93.45 L63.95 92.45 M83.55 97.2 L83.7 96.35 84.6 95.2 Q85.25 94.55 86.1 94.25 L86.7 94.15 87.45 94.05 87.45 94.0 98.4 96.6 83.55 97.2 M113.55 98.5 L117.35 98.0 Q120.1 95.3 123.2 97.65 L123.6 98.0 Q126.4 106.15 116.85 106.4 107.9 106.65 99.5 104.9 L106.35 104.4 Q114.0 103.7 113.55 98.5 M63.0 105.2 Q67.1 105.9 70.65 107.75 L71.15 107.85 75.45 107.85 Q82.75 107.85 89.0 110.75 L102.0 111.8 Q108.8 112.1 115.15 113.95 L116.1 114.5 Q118.45 122.0 109.45 121.3 91.8 119.9 74.35 117.15 L71.6 116.5 50.9 114.05 51.1 112.55 Q54.5 111.7 55.75 109.75 L57.75 108.4 Q59.15 107.1 58.5 105.7 L61.4 105.45 63.0 105.2 M-52.9 115.05 L-70.65 115.2 Q-76.75 115.15 -75.75 109.35 L-74.9 108.3 Q-64.8 109.95 -54.35 108.45 L-52.65 108.2 -54.75 110.85 Q-55.35 112.55 -54.2 113.8 L-52.9 115.05 M-84.05 85.8 L-94.5 85.8 Q-96.2 85.8 -97.15 85.2 L-96.5 85.2 -84.95 85.15 -84.05 85.8 M-57.7 41.75 L-70.15 41.6 -78.25 41.25 -79.9 41.1 -82.25 40.9 -57.7 38.8 -57.75 38.85 Q-58.05 39.8 -58.0 40.75 L-57.7 41.75 M-106.45 36.7 Q-112.8 34.6 -117.75 30.3 -118.75 29.45 -118.4 28.1 L-118.25 27.35 Q-115.7 24.4 -111.4 24.2 L-109.5 24.0 Q-108.3 24.05 -107.3 24.8 L-106.4 25.5 -105.95 26.2 Q-105.6 26.7 -105.6 27.35 L-105.5 28.1 Q-95.1 31.2 -84.4 32.5 L-96.15 33.05 Q-102.25 33.3 -106.45 36.7 M-92.0 25.35 L-94.2 25.55 Q-95.25 25.65 -95.9 24.6 -96.95 22.85 -96.25 20.85 -91.15 17.2 -84.95 16.1 L-78.1 17.7 -78.3 17.85 Q-79.75 19.3 -79.0 21.2 L-78.75 21.85 -82.8 20.45 Q-89.0 18.0 -93.25 21.85 L-93.4 22.6 Q-93.75 23.95 -92.75 24.75 L-92.0 25.35 M-12.25 37.8 Q-26.85 38.45 -41.45 37.6 L-40.75 37.55 Q-27.35 38.1 -13.75 37.3 L-8.3 37.0 -4.6 37.15 -12.25 37.8 M72.5 44.7 L71.2 45.85 71.15 46.05 Q65.95 46.0 60.75 46.1 61.3 45.05 61.1 43.45 L61.45 43.5 Q65.3 46.1 67.75 44.2 L72.5 44.7 M-18.3 13.6 L-12.5 13.65 -3.5 14.45 0.6 15.4 -45.7 17.9 -18.3 13.6 M-8.2 102.6 L-8.25 104.6 -4.6 106.75 Q-24.0 109.25 -42.9 110.1 -42.5 109.2 -42.55 108.25 L-42.9 106.85 -36.1 106.0 -20.2 106.1 -20.35 104.3 -16.35 103.9 -8.2 102.6 M-91.9 11.5 Q-89.5 15.95 -94.45 17.25 L-99.8 18.55 Q-107.55 20.05 -114.5 17.05 -115.95 16.45 -116.75 15.1 -117.2 13.8 -116.95 12.5 L-116.85 12.15 -116.3 10.65 Q-115.1 8.15 -112.5 8.0 -111.3 8.05 -110.25 8.7 -109.55 9.15 -109.15 9.85 -101.0 9.75 -92.8 11.05 -92.35 11.1 -91.9 11.5 M-113.5 115.0 L-109.85 115.6 -79.0 116.6 Q-77.15 116.6 -75.9 118.0 -75.05 119.15 -75.1 120.6 -75.1 121.85 -75.85 122.9 -77.05 124.45 -79.0 124.45 L-111.25 124.0 Q-115.2 123.9 -117.25 120.6 -117.7 119.3 -117.4 118.0 L-117.25 117.6 Q-116.15 115.1 -113.5 115.0" fill="#8b6a1d" fill-rule="evenodd" stroke="none"/>
    <path d="M44.65 -1.4 L41.7 -1.45 Q37.3 -1.5 33.65 0.0 19.3 -4.25 3.85 -3.85 -17.0 -3.25 -37.8 -5.1 L-78.2 -8.35 -79.2 -8.6 Q-82.75 -9.45 -86.2 -10.55 L0.05 -10.55 0.1 -10.5 0.2 -10.2 14.0 -9.9 Q27.2 -9.7 39.15 -4.5 L41.8 -3.3 42.3 -3.05 Q43.7 -2.3 44.65 -1.4 M-82.05 -7.85 L-82.5 -7.6 -82.9 -7.25 -83.25 -6.85 -83.5 -6.5 -83.75 -6.15 -84.0 -4.35 Q-85.95 -3.8 -86.65 -1.55 -87.15 0.1 -86.9 1.4 L-97.5 1.75 Q-99.05 9.25 -104.75 3.85 -105.65 3.0 -105.55 1.6 L-105.5 0.1 -105.55 -1.0 -105.45 -2.9 -105.35 -3.25 -105.25 -3.65 -104.45 -4.3 Q-107.75 -5.9 -110.35 -8.45 -111.25 -9.3 -110.8 -10.55 L-98.6 -10.55 Q-90.5 -8.25 -82.05 -7.85 M58.35 33.25 L62.0 35.0 68.35 35.35 Q75.1 35.75 81.5 37.4 L86.65 38.95 Q87.15 39.1 87.6 39.5 88.65 42.65 87.65 44.25 L81.35 43.3 Q76.0 42.0 72.5 44.7 L67.75 44.2 Q65.3 46.1 61.45 43.5 L61.1 43.45 Q61.3 45.05 60.75 46.1 60.25 46.95 59.15 47.4 L60.75 48.25 60.35 48.5 59.3 47.75 Q46.6 39.7 31.3 38.45 L28.55 38.25 Q32.95 37.3 31.9 32.5 41.3 32.4 50.7 32.75 L53.95 33.05 Q56.0 33.3 57.25 33.0 L58.35 33.25 M91.6 53.75 L94.1 54.5 Q96.55 61.2 88.7 61.1 74.55 60.9 61.1 57.8 59.35 57.4 57.7 56.55 51.9 53.55 46.8 49.85 51.0 50.95 54.45 53.5 55.15 55.25 56.9 56.0 58.75 56.8 60.05 55.8 62.7 59.3 66.2 54.75 L87.95 54.4 89.35 54.3 91.6 53.75 M23.55 59.3 L23.7 58.35 24.25 57.65 25.0 56.9 25.6 56.5 26.1 56.25 26.75 56.15 27.45 56.05 27.45 56.0 38.4 59.65 Q49.8 63.3 61.35 66.25 L66.95 67.0 67.6 67.05 Q66.55 67.7 65.7 68.85 64.75 74.6 71.1 74.3 L76.2 74.1 Q74.9 76.75 69.4 76.05 62.2 75.15 55.25 73.15 L46.15 70.5 Q46.35 69.05 45.6 67.0 44.4 65.65 42.6 65.6 L28.9 65.15 Q26.15 63.75 24.25 61.4 23.45 60.45 23.55 59.3 M65.2 103.6 Q64.7 104.75 63.0 105.2 L61.4 105.45 58.5 105.7 Q59.15 107.1 57.75 108.4 L55.75 109.75 Q57.1 107.7 56.1 104.5 54.85 103.1 53.0 103.25 50.75 103.35 48.85 104.75 41.25 105.65 33.7 104.6 L31.15 103.0 Q28.5 101.25 25.45 100.5 L25.45 100.55 24.75 100.65 23.85 100.9 Q22.1 101.65 21.65 103.5 21.35 104.5 21.6 105.55 11.4 103.55 1.6 100.75 L3.85 97.0 Q5.05 94.9 3.85 92.85 L4.6 93.5 Q5.3 95.4 5.15 96.75 L13.8 97.95 Q22.2 98.8 30.7 98.3 L34.5 98.15 35.8 98.1 Q37.85 100.15 41.1 99.1 52.0 101.7 63.2 103.3 L65.2 103.6 M-11.9 115.5 L-40.0 118.85 Q-47.7 119.65 -52.9 115.05 L-54.2 113.8 Q-55.35 112.55 -54.75 110.85 L-52.65 108.2 -42.9 106.85 -42.55 108.25 Q-42.5 109.2 -42.9 110.1 -24.0 109.25 -4.6 106.75 2.1 110.3 9.95 111.7 L-4.25 112.25 -5.8 111.85 Q-9.65 111.55 -11.75 114.85 L-11.9 115.5 M-97.15 85.2 Q-101.4 85.05 -105.05 83.1 -107.7 81.75 -106.75 78.85 -104.1 75.9 -100.1 75.35 L-100.4 74.4 Q-100.8 72.85 -100.25 71.35 -97.0 67.05 -93.3 71.0 L-92.4 72.25 Q-65.9 72.1 -39.55 68.95 -32.2 71.2 -24.15 72.1 L-13.75 72.8 -3.4 73.1 16.0 73.8 17.7 73.65 Q19.95 78.55 14.4 79.05 L-7.15 80.65 -12.35 80.95 Q-25.6 79.85 -39.0 81.2 -59.5 83.3 -79.25 79.6 L-80.6 77.35 Q-81.95 74.45 -85.0 74.0 -87.35 74.1 -88.5 76.3 -89.35 77.9 -88.75 79.6 -87.4 83.15 -84.95 85.15 L-96.5 85.2 -97.15 85.2 M-61.35 48.1 Q-56.4 46.0 -50.9 44.6 -45.95 45.9 -40.5 45.95 L-31.55 45.8 Q-19.7 45.25 -7.9 45.4 -20.3 46.25 -32.7 48.1 -40.05 49.25 -47.0 52.0 -57.25 56.1 -67.7 57.05 -68.75 57.15 -69.4 56.1 -70.45 54.35 -69.75 52.35 -65.75 49.95 -61.35 48.1 M-60.5 31.1 Q-67.15 31.15 -73.85 30.8 L-80.2 30.1 Q-87.0 29.1 -92.0 25.35 L-92.75 24.75 Q-93.75 23.95 -93.4 22.6 L-93.25 21.85 Q-89.0 18.0 -82.8 20.45 L-78.75 21.85 Q-76.6 26.5 -70.25 26.6 L-66.5 26.65 -66.5 27.25 Q-66.45 28.5 -65.4 29.0 L-60.5 31.1 M-84.95 16.1 L-85.0 16.05 Q-87.05 15.5 -88.25 13.6 -89.2 10.1 -86.3 7.65 -83.9 5.65 -81.5 6.15 L-81.75 6.35 Q-82.85 11.05 -77.95 11.45 L-54.7 12.4 -45.0 13.25 -18.3 13.6 -45.7 17.9 Q-58.4 18.15 -71.15 17.85 -74.55 14.3 -78.1 17.7 L-84.95 16.1 M2.85 37.35 Q-4.45 37.4 -11.8 37.75 L-12.25 37.8 -4.6 37.15 1.5 37.3 2.85 37.35 M-40.75 37.55 L-24.55 36.25 -8.3 37.0 -13.75 37.3 Q-27.35 38.1 -40.75 37.55 M21.55 17.7 Q24.55 18.4 27.1 20.0 L27.45 21.2 Q27.9 23.05 27.45 24.25 L23.1 24.5 24.75 22.75 Q25.95 21.05 24.35 19.7 23.0 18.55 21.55 17.7 M17.65 24.85 L3.85 25.85 Q-10.7 26.0 -25.2 28.1 L-45.1 26.2 -27.55 25.0 13.35 23.25 Q14.75 23.25 15.8 23.9 L17.65 24.85 M8.85 7.9 Q8.45 8.8 7.65 9.4 L5.15 8.2 8.85 7.9 M9.55 64.95 L6.25 65.0 0.1 64.9 -8.65 64.3 6.0 62.0 Q7.2 62.05 8.2 62.8 L9.1 63.5 9.55 64.95 M-77.95 99.35 L-77.75 98.35 Q-71.8 91.8 -64.3 93.75 -64.1 93.8 -63.9 94.0 L-63.65 94.35 -63.5 94.7 -63.3 95.1 -63.15 95.5 -19.55 93.35 Q-18.6 91.2 -16.0 91.0 L-10.8 92.8 -2.4 92.25 Q-4.0 93.5 -5.25 95.2 L-6.05 96.4 Q-6.8 95.85 -7.8 95.8 L-14.5 95.5 -24.1 96.55 Q-49.9 101.0 -75.9 100.5 L-76.8 99.85 -77.95 99.35" fill="#89681d" fill-rule="evenodd" stroke="none"/>
    <path d="M-84.0 -4.35 L-83.85 -3.5 Q-83.4 -1.65 -81.6 -1.45 L-69.85 -0.15 -60.5 0.75 -60.35 1.15 -60.3 1.25 -49.35 2.4 -33.7 3.3 -31.15 3.15 -29.4 3.25 Q-23.45 3.7 -17.55 3.45 1.8 2.75 20.7 5.7 19.15 6.95 15.85 7.25 L8.85 7.9 5.15 8.2 7.65 9.4 10.1 11.0 10.25 11.45 Q10.9 13.3 10.7 14.5 16.65 14.65 21.55 17.7 23.0 18.55 24.35 19.7 25.95 21.05 24.75 22.75 L23.1 24.5 17.65 24.85 15.8 23.9 Q14.75 23.25 13.35 23.25 L-27.55 25.0 -45.1 26.2 -25.2 28.1 -22.7 28.25 -52.5 30.6 -60.45 31.15 -60.5 31.1 -65.4 29.0 Q-66.45 28.5 -66.5 27.25 L-66.5 26.65 -70.25 26.6 Q-76.6 26.5 -78.75 21.85 L-79.0 21.2 Q-79.75 19.3 -78.3 17.85 L-78.1 17.7 Q-74.55 14.3 -71.15 17.85 -58.4 18.15 -45.7 17.9 L0.6 15.4 -3.5 14.45 -12.5 13.65 -18.3 13.6 -45.0 13.25 -54.7 12.4 -77.95 11.45 Q-82.85 11.05 -81.75 6.35 L-81.5 6.15 -80.65 5.4 -83.5 4.55 Q-86.45 3.65 -86.9 1.4 -87.15 0.1 -86.65 -1.55 -85.95 -3.8 -84.0 -4.35 M111.6 -9.9 L110.9 -10.55 118.3 -10.55 Q116.3 -7.0 111.6 -9.9 M86.95 10.7 L106.9 13.05 Q112.7 13.85 114.2 17.45 115.0 19.35 114.6 22.05 113.95 26.75 109.45 25.25 106.8 24.35 106.95 21.5 101.75 19.1 95.55 18.5 L90.45 18.3 77.7 18.35 71.7 17.8 Q67.4 16.95 63.6 15.0 62.55 14.5 62.5 13.25 62.45 12.3 62.7 11.35 L62.95 11.0 63.25 10.65 63.6 10.25 63.8 10.1 64.0 9.9 64.6 9.5 65.1 9.25 65.75 9.15 66.45 9.05 66.45 9.0 70.25 9.25 86.95 10.7 M111.7 42.55 L114.95 42.6 Q116.85 42.6 118.1 44.0 120.55 49.05 114.9 49.85 L103.8 51.35 93.85 52.3 94.45 51.7 Q98.45 46.95 95.0 43.95 L95.75 43.85 105.95 42.5 111.7 42.55 M120.65 70.45 L121.05 70.7 Q123.5 72.1 122.3 74.5 119.75 79.6 114.75 76.15 111.55 73.95 107.6 73.85 95.45 73.55 83.3 73.85 L76.2 74.1 71.1 74.3 Q64.75 74.6 65.7 68.85 66.55 67.7 67.6 67.05 69.75 65.6 72.8 66.05 79.1 66.9 85.45 65.95 L91.45 65.0 Q107.35 63.0 120.65 70.45 M35.0 89.7 Q35.4 87.45 38.5 87.15 54.15 85.55 69.5 83.15 L70.45 83.0 Q71.55 82.95 72.6 83.4 73.45 83.8 74.1 84.5 74.85 87.15 74.1 88.95 72.8 91.95 67.0 92.25 L63.95 92.45 52.1 93.45 40.95 91.0 37.75 91.6 Q36.35 91.9 35.4 92.9 L35.05 91.65 Q34.85 90.55 35.0 89.7 M50.9 114.05 Q49.95 117.25 44.15 117.55 L34.2 118.2 -9.65 119.55 Q-10.95 119.55 -11.6 118.2 -12.2 116.85 -11.9 115.5 L-11.75 114.85 Q-9.65 111.55 -5.8 111.85 L-4.25 112.25 9.95 111.7 Q2.1 110.3 -4.6 106.75 L-8.25 104.6 -8.2 102.6 -7.95 102.55 Q-3.0 101.45 -5.4 97.0 -5.7 96.65 -6.05 96.4 L-5.25 95.2 Q-4.0 93.5 -2.4 92.25 L-0.9 91.25 -0.25 91.15 0.45 91.05 0.5 91.0 Q1.7 91.05 2.7 91.75 L3.6 92.5 3.85 92.85 Q5.05 94.9 3.85 97.0 L1.6 100.75 Q11.4 103.55 21.6 105.55 21.35 104.5 21.65 103.5 22.1 101.65 23.85 100.9 L24.75 100.65 25.45 100.55 25.45 100.5 Q28.5 101.25 31.15 103.0 L33.7 104.6 Q41.25 105.65 48.85 104.75 50.75 103.35 53.0 103.25 54.85 103.1 56.1 104.5 57.1 107.7 55.75 109.75 54.5 111.7 51.1 112.55 L50.9 114.05 M87.65 44.25 L87.8 44.25 87.7 44.35 87.6 44.75 87.5 45.5 87.45 45.85 87.45 46.25 71.0 46.85 71.15 46.05 71.2 45.85 72.5 44.7 Q76.0 42.0 81.35 43.3 L87.65 44.25 M28.55 38.25 L2.85 37.35 1.5 37.3 -4.6 37.15 -8.3 37.0 -24.55 36.25 -6.9 34.6 Q12.45 32.7 31.9 32.5 32.95 37.3 28.55 38.25 M6.25 65.0 L0.0 65.05 Q-8.2 65.2 -16.35 64.65 L-14.9 63.75 -14.25 63.65 -13.55 63.55 -13.5 63.5 -8.65 64.3 0.1 64.9 6.25 65.0 M17.7 73.65 L16.0 73.8 -3.4 73.1 18.5 73.5 17.7 73.65" fill="#87671d" fill-rule="evenodd" stroke="none"/>
    <path d="M-78.2 -8.35 L-37.8 -5.1 Q-17.0 -3.25 3.85 -3.85 19.3 -4.25 33.65 0.0 37.3 -1.5 41.7 -1.45 L44.65 -1.4 49.9 -1.45 58.9 -1.7 84.6 -3.75 Q83.75 -5.15 84.15 -6.7 84.95 -9.8 87.95 -10.0 98.15 -7.0 93.3 0.9 L93.1 1.25 92.35 2.1 Q91.45 2.85 90.15 3.1 76.3 5.8 62.15 5.95 L56.0 5.85 48.4 6.05 Q51.15 8.1 51.8 11.4 L52.0 13.0 Q52.05 13.75 51.6 14.5 46.65 17.3 41.95 12.65 40.25 11.05 38.05 10.1 L37.35 9.8 Q35.8 9.15 34.25 8.65 L30.25 9.9 Q28.85 10.4 27.75 9.3 26.55 8.1 26.45 6.7 L20.7 5.7 Q1.8 2.75 -17.55 3.45 -23.45 3.7 -29.4 3.25 L-31.15 3.15 -49.2 1.75 -60.5 0.75 -69.85 -0.15 -81.6 -1.45 Q-83.4 -1.65 -83.85 -3.5 L-84.0 -4.35 -83.75 -6.15 -83.5 -6.5 -83.25 -6.85 -82.9 -7.25 -82.5 -7.6 -82.05 -7.85 -81.9 -8.0 -81.4 -8.25 -80.75 -8.35 -80.05 -8.45 -80.0 -8.5 -78.2 -8.35 M99.7 26.85 Q100.05 29.35 96.75 32.5 94.8 34.35 92.1 34.75 74.7 37.4 58.35 33.25 L57.25 33.0 Q56.0 33.3 53.95 33.05 L50.7 32.75 Q41.3 32.4 31.9 32.5 12.45 32.7 -6.9 34.6 L-24.55 36.25 -40.75 37.55 -41.45 37.6 Q-26.85 38.45 -12.25 37.8 L-11.8 37.75 Q-4.45 37.4 2.85 37.35 L28.55 38.25 31.3 38.45 Q46.6 39.7 59.3 47.75 L60.35 48.5 60.75 48.25 Q61.9 47.4 63.75 47.25 L71.0 46.85 87.45 46.25 87.45 45.85 87.5 45.5 87.6 44.75 87.7 44.35 87.8 44.25 88.25 43.65 Q88.8 42.9 89.6 42.5 L90.1 42.25 90.7 42.15 91.45 42.05 91.45 42.0 Q93.75 42.85 95.0 43.95 98.45 46.95 94.45 51.7 L93.85 52.3 91.6 53.75 89.35 54.3 87.95 54.4 66.2 54.75 Q62.7 59.3 60.05 55.8 58.75 56.8 56.9 56.0 55.15 55.25 54.45 53.5 51.0 50.95 46.8 49.85 L45.65 49.55 39.95 48.6 28.2 47.3 -7.9 45.4 Q-19.7 45.25 -31.55 45.8 L-40.5 45.95 Q-45.95 45.9 -50.9 44.6 -54.0 43.75 -56.9 42.45 L-57.7 41.75 -58.0 40.75 Q-58.05 39.8 -57.75 38.85 L-57.7 38.8 -82.25 40.9 -90.0 41.6 Q-97.7 42.35 -105.1 41.95 -106.9 41.85 -107.35 40.0 -107.7 38.65 -107.25 37.35 L-106.45 36.7 Q-102.25 33.3 -96.15 33.05 L-84.4 32.5 -60.45 31.15 -52.5 30.6 -22.7 28.25 -13.65 27.4 3.85 25.85 17.65 24.85 23.1 24.5 27.45 24.25 29.6 24.1 30.95 24.0 Q38.15 23.45 45.25 23.85 L50.75 24.25 Q52.95 24.5 54.95 25.3 L59.2 25.05 62.7 25.8 Q66.95 27.15 71.4 27.55 L90.2 26.8 90.45 26.75 Q90.35 25.35 91.0 24.2 92.25 22.1 94.45 22.0 99.25 24.05 99.7 26.85 M-7.2 81.45 L-1.85 82.2 Q2.15 82.85 1.25 86.6 L0.5 88.55 Q-0.95 90.8 -4.45 89.4 -6.15 88.75 -8.0 88.8 L-18.0 89.05 Q-45.75 89.55 -73.4 88.3 L-80.55 87.25 Q-82.5 86.8 -84.05 85.8 L-84.95 85.15 Q-87.4 83.15 -88.75 79.6 -89.35 77.9 -88.5 76.3 -87.35 74.1 -85.0 74.0 -81.95 74.45 -80.6 77.35 L-79.25 79.6 Q-59.5 83.3 -39.0 81.2 -25.6 79.85 -12.35 80.95 L-7.2 81.45 M77.4 96.85 L81.6 97.1 83.55 97.2 98.4 96.6 106.6 95.3 110.7 95.2 Q112.15 95.4 113.1 96.5 L113.55 98.5 Q114.0 103.7 106.35 104.4 L99.5 104.9 Q82.3 105.75 65.2 103.6 L63.2 103.3 Q52.0 101.7 41.1 99.1 37.85 100.15 35.8 98.1 L35.7 98.0 35.25 97.5 Q34.15 96.05 34.6 94.25 L34.7 93.85 Q35.0 93.3 35.4 92.9 36.35 91.9 37.75 91.6 L40.95 91.0 52.1 93.45 Q64.6 95.85 77.4 96.85 M-74.9 108.3 L-80.25 107.15 Q-81.3 106.85 -82.0 105.85 -83.1 104.35 -82.95 102.6 L-82.75 101.35 -82.5 101.0 Q-80.6 98.45 -77.95 99.35 L-76.8 99.85 -75.9 100.5 Q-49.9 101.0 -24.1 96.55 L-14.5 95.5 -7.8 95.8 Q-6.8 95.85 -6.05 96.4 -5.7 96.65 -5.4 97.0 -3.0 101.45 -7.95 102.55 L-8.2 102.6 -16.35 103.9 -20.35 104.3 -36.1 106.0 -42.9 106.85 -52.65 108.2 -54.35 108.45 Q-64.8 109.95 -74.9 108.3 M-39.55 68.95 L-45.4 66.9 Q-46.45 66.5 -46.5 65.25 L-46.5 64.65 -46.25 63.35 -45.75 62.65 -44.95 61.95 -43.9 61.25 -43.25 61.15 -42.55 61.05 -42.5 61.0 Q-29.5 63.75 -16.35 64.65 -8.2 65.2 0.0 65.05 L6.25 65.0 9.55 64.95 Q19.2 64.9 28.9 65.15 L42.6 65.6 Q44.4 65.65 45.6 67.0 46.35 69.05 46.15 70.5 45.7 73.75 40.45 73.7 L18.5 73.5 -3.4 73.1 -13.75 72.8 -24.15 72.1 Q-32.2 71.2 -39.55 68.95" fill="#83641d" fill-rule="evenodd" stroke="none"/>
    <path d="M100.0 -106.55 Q101.3 -107.95 102.95 -108.0 108.45 -106.25 114.2 -105.5 L114.55 -105.45 Q117.1 -105.05 119.1 -103.5 L119.5 -102.3 Q120.8 -96.9 114.1 -97.15 109.25 -97.4 105.1 -99.05 107.45 -100.7 106.1 -105.0 105.45 -105.7 104.55 -105.85 L100.0 -106.55 M110.1 -110.3 L108.6 -110.35 83.85 -111.85 Q68.3 -110.05 52.9 -111.95 51.1 -112.15 50.65 -114.0 50.3 -115.35 50.7 -116.65 52.3 -118.85 54.75 -119.3 56.2 -119.6 57.95 -119.25 L60.6 -118.8 63.55 -118.55 68.0 -118.6 68.1 -118.75 68.5 -119.1 69.1 -119.5 69.6 -119.75 70.2 -119.85 70.95 -119.95 70.95 -120.0 80.0 -120.0 85.95 -120.5 92.7 -120.2 93.2 -120.1 106.95 -120.35 Q112.1 -120.4 116.1 -118.0 116.75 -117.15 116.65 -116.15 116.25 -110.4 110.1 -110.3 M44.65 -109.7 L51.35 -109.45 Q50.7 -108.5 50.6 -107.0 50.45 -104.9 52.45 -104.25 58.8 -102.1 65.5 -100.9 64.25 -100.0 62.8 -99.75 L61.4 -99.7 60.8 -99.75 60.75 -99.75 48.8 -101.05 38.85 -101.75 37.5 -100.85 Q35.7 -100.1 33.7 -101.4 32.85 -101.9 32.4 -102.8 31.5 -104.7 32.4 -106.55 33.4 -108.7 35.6 -109.75 L36.25 -109.85 36.95 -109.95 36.95 -110.0 44.65 -109.7 M0.05 -10.55 L-86.2 -10.55 -87.7 -11.05 -91.35 -12.35 Q-92.5 -12.8 -92.35 -14.1 -92.2 -15.95 -91.35 -17.2 -90.0 -19.1 -87.0 -19.5 -85.8 -19.45 -84.75 -18.8 L-83.65 -17.65 Q-60.95 -13.2 -37.7 -11.8 L-14.05 -13.45 Q-7.05 -13.9 -0.85 -11.1 L0.05 -10.55 M-78.45 -25.75 Q-79.35 -26.8 -79.65 -27.9 -80.1 -29.45 -79.45 -31.1 L-79.5 -30.65 -79.5 -29.5 -79.35 -28.75 -79.25 -28.4 Q-78.6 -27.35 -77.5 -26.85 -67.6 -22.75 -56.8 -21.35 -41.8 -19.4 -26.7 -18.95 L-21.4 -18.4 -19.2 -18.15 Q-29.15 -17.75 -39.05 -18.1 L-62.5 -20.1 -69.05 -21.05 Q-72.1 -21.55 -74.8 -23.05 -77.2 -24.35 -78.45 -25.75 M-46.9 -45.75 L-65.95 -47.25 Q-75.8 -48.1 -85.45 -50.1 L-89.15 -50.9 Q-93.6 -51.95 -93.55 -55.25 L-93.35 -56.65 -77.75 -55.25 -58.4 -54.15 Q-50.0 -53.85 -41.6 -53.85 L-35.25 -53.55 Q-25.55 -53.2 -16.9 -50.5 -14.45 -43.8 -22.25 -44.2 L-46.9 -45.75 M-88.85 -64.9 Q-83.05 -68.95 -75.1 -68.85 -72.7 -69.25 -69.95 -68.8 L-69.85 -68.8 -60.0 -69.1 -41.4 -70.05 -38.85 -69.75 Q-36.4 -69.35 -34.45 -70.4 L-7.5 -71.5 Q10.85 -73.4 26.6 -65.25 L27.5 -64.6 Q28.25 -63.9 28.2 -62.8 L-4.1 -63.0 -3.9 -63.25 -3.8 -63.35 -9.65 -63.4 -10.0 -63.05 -30.9 -63.15 Q-42.35 -63.2 -53.0 -64.75 L-53.2 -65.5 -53.5 -66.25 -53.9 -67.0 -54.8 -67.7 Q-55.8 -68.45 -57.0 -68.5 L-57.05 -68.45 -57.75 -68.35 -58.4 -68.25 Q-59.95 -67.55 -61.0 -66.2 L-63.25 -63.15 -63.35 -62.35 -89.4 -64.0 -89.25 -64.65 -88.85 -64.9 M-78.5 -112.5 L-77.5 -113.6 -76.9 -114.0 -76.4 -114.25 -75.75 -114.35 -75.05 -114.45 -75.0 -114.5 Q-70.6 -115.0 -66.25 -114.65 L-49.3 -113.65 Q-47.85 -113.6 -46.9 -112.5 L-46.65 -112.1 -50.15 -112.4 Q-64.3 -112.1 -78.5 -112.5 M-41.1 -105.7 L-22.5 -107.0 -12.1 -106.5 Q-9.65 -106.1 -7.9 -104.5 -7.15 -102.4 -7.35 -101.0 L-6.05 -100.95 -4.0 -100.8 -3.3 -100.75 Q-1.85 -100.6 -0.9 -99.5 0.15 -97.3 -0.3 -95.9 -0.9 -94.1 -4.1 -93.6 L-4.7 -93.5 -10.75 -92.6 -15.95 -91.85 -18.7 -91.45 9.2 -91.3 11.35 -91.3 12.5 -91.5 13.0 -91.5 Q13.15 -88.45 16.25 -88.3 28.45 -87.75 40.7 -87.85 L34.45 -87.5 Q11.1 -88.05 -12.1 -86.55 -17.55 -88.5 -23.6 -89.25 L-25.4 -89.45 Q-24.05 -89.95 -23.35 -90.8 L-33.1 -89.55 Q-35.75 -89.2 -36.7 -91.65 -37.3 -93.1 -36.75 -94.65 -33.75 -97.0 -29.9 -98.15 -42.8 -97.75 -55.7 -95.9 -66.5 -94.35 -76.7 -97.35 -78.15 -97.8 -78.4 -99.4 -78.6 -100.55 -78.25 -101.65 L-76.65 -103.5 -75.95 -104.0 -48.35 -102.7 Q-44.15 -102.45 -41.5 -105.2 L-41.1 -105.7 M23.05 -54.35 L43.8 -54.25 Q42.85 -53.75 42.2 -52.65 L42.05 -51.75 21.95 -53.95 23.05 -54.35 M-83.7 -74.3 L-83.6 -73.95 -83.95 -74.4 -83.7 -74.3 M-85.85 -79.5 L-85.85 -79.65 -85.75 -79.6 -85.85 -79.5 M17.05 -27.4 L21.85 -27.15 22.25 -27.1 19.7 -25.65 19.5 -24.6 Q12.7 -26.2 5.55 -25.8 L-2.25 -25.55 -2.4 -26.0 Q-3.05 -26.7 -3.9 -26.65 -11.25 -26.4 -18.5 -26.55 L-9.05 -27.2 17.05 -27.4 M23.25 -20.95 L36.75 -21.5 48.5 -22.9 48.7 -22.45 Q50.05 -18.8 46.15 -18.25 43.2 -17.85 40.15 -18.25 L23.15 -19.8 23.25 -20.95 M-78.0 -33.6 L-77.9 -33.6 -78.25 -33.25 -78.0 -33.6 M-107.0 -13.5 Q-102.85 -11.75 -98.6 -10.55 L-110.8 -10.55 -110.8 -10.6 Q-109.8 -13.35 -107.0 -13.5 M-73.1 -85.45 L-72.35 -85.55 -67.45 -85.95 -66.9 -85.95 -62.0 -85.95 -62.0 -86.35 -57.0 -86.7 -39.5 -83.4 -62.1 -81.95 Q-64.9 -83.75 -68.25 -84.45 L-73.1 -85.45" fill="#89681d" fill-rule="evenodd" stroke="none"/>
    <path d="M88.25 -107.6 L100.0 -106.55 104.55 -105.85 Q105.45 -105.7 106.1 -105.0 107.45 -100.7 105.1 -99.05 103.3 -97.8 99.45 -98.05 L76.85 -99.65 74.2 -99.85 65.5 -100.9 Q58.8 -102.1 52.45 -104.25 50.45 -104.9 50.6 -107.0 50.7 -108.5 51.35 -109.45 51.9 -110.2 52.8 -110.6 L54.45 -111.0 Q69.75 -107.85 85.45 -107.65 L88.25 -107.6 M92.7 -82.95 Q102.65 -82.4 110.55 -76.35 111.45 -75.65 111.3 -74.7 99.05 -79.15 85.35 -77.75 L84.6 -78.05 82.95 -78.5 Q80.9 -78.45 79.6 -76.6 78.9 -75.6 78.95 -74.4 L79.0 -74.0 79.2 -72.9 Q80.3 -71.2 82.2 -70.65 L81.05 -70.65 58.45 -71.35 Q37.0 -71.25 15.65 -73.55 L13.45 -74.0 -30.75 -72.15 -32.45 -72.0 -32.9 -71.55 -34.45 -70.4 Q-36.4 -69.35 -38.85 -69.75 L-41.4 -70.05 Q-47.65 -70.7 -53.9 -70.05 -64.9 -68.9 -75.75 -70.15 L-91.25 -70.25 Q-96.2 -67.05 -99.35 -71.0 L-110.95 -71.6 Q-115.85 -71.95 -114.75 -76.65 -113.55 -78.8 -111.05 -78.65 -102.4 -78.1 -95.0 -79.5 L-88.75 -78.95 Q-87.8 -78.7 -87.05 -78.1 L-86.7 -78.1 Q-87.05 -78.95 -87.0 -79.85 L-85.85 -79.65 -85.85 -79.5 -86.25 -79.15 Q-87.25 -75.45 -83.95 -74.4 L-83.6 -73.95 -83.7 -74.3 -83.75 -76.15 Q-83.4 -80.1 -79.5 -80.5 -78.3 -80.45 -77.25 -79.75 -76.55 -79.35 -76.15 -78.65 -55.65 -78.75 -34.8 -77.65 -33.35 -77.6 -32.4 -76.5 L-32.05 -75.9 -31.6 -74.6 -28.15 -73.85 Q-21.5 -72.3 -19.75 -77.35 -18.6 -77.75 -17.8 -78.25 L26.55 -79.8 Q32.65 -80.1 38.75 -80.0 L38.2 -79.65 Q37.55 -77.65 38.6 -75.9 39.2 -74.85 40.3 -74.9 53.6 -75.8 66.9 -78.8 L81.05 -81.55 83.9 -80.55 Q90.0 -78.25 92.7 -82.95 M109.75 -67.5 Q110.65 -64.15 108.85 -62.55 L110.0 -62.35 Q117.35 -61.15 115.4 -55.25 L115.1 -54.5 Q113.1 -52.4 110.5 -53.7 108.4 -54.75 105.95 -54.7 L105.45 -54.7 105.65 -54.9 105.95 -55.25 Q111.3 -61.6 103.45 -65.0 L103.45 -64.95 102.7 -64.85 102.1 -64.75 101.6 -64.5 100.25 -63.35 99.7 -62.65 99.55 -61.5 99.55 -60.4 99.7 -59.65 Q93.35 -56.35 86.1 -55.55 L83.1 -55.25 74.35 -54.6 74.7 -55.25 Q74.95 -56.15 74.1 -57.1 70.1 -61.75 63.1 -61.7 L62.45 -61.75 48.4 -62.65 48.6 -62.75 49.25 -62.85 49.95 -62.95 49.95 -63.0 55.85 -62.8 Q54.55 -63.6 54.5 -65.65 L54.7 -67.15 Q58.25 -71.45 64.75 -70.55 L76.85 -69.9 82.95 -70.0 92.8 -69.35 102.1 -68.95 Q106.15 -68.85 109.75 -67.5 M45.95 -47.7 L10.0 -49.6 12.05 -49.0 13.6 -48.0 Q14.15 -46.3 14.1 -45.0 -26.0 -40.85 -66.5 -41.2 L-78.0 -42.05 Q-84.3 -42.9 -87.75 -38.65 L-87.9 -37.9 Q-88.4 -33.7 -84.0 -33.65 L-78.0 -33.6 -78.25 -33.25 -78.35 -33.2 -79.0 -32.5 -79.25 -32.15 -79.45 -31.1 Q-80.1 -29.45 -79.65 -27.9 L-81.5 -27.8 Q-91.0 -27.2 -100.0 -27.7 -104.85 -27.95 -103.75 -32.65 L-103.4 -33.15 Q-107.85 -33.15 -112.1 -34.25 -113.25 -34.55 -113.4 -35.9 -113.6 -37.05 -113.25 -38.15 -107.65 -42.2 -99.75 -42.2 -93.65 -42.2 -88.0 -43.5 L-76.75 -43.1 Q-75.4 -42.85 -74.25 -42.25 -61.3 -43.45 -48.4 -45.55 L-46.9 -45.75 -22.25 -44.2 Q-14.45 -43.8 -16.9 -50.5 -25.55 -53.2 -35.25 -53.55 L-41.6 -53.85 -35.0 -53.9 Q-11.15 -54.3 12.75 -54.1 L18.6 -53.8 21.95 -53.95 42.05 -51.75 Q41.65 -48.4 45.35 -47.8 L45.95 -47.7 M29.65 -41.65 L40.5 -41.4 Q49.1 -41.1 57.3 -39.05 L57.0 -38.9 56.7 -38.65 Q56.15 -36.9 56.95 -35.3 57.35 -34.4 58.15 -34.3 L59.7 -34.15 62.95 -33.45 63.25 -33.4 Q49.25 -30.6 35.05 -30.05 L35.05 -31.0 35.2 -32.15 35.45 -32.5 36.05 -33.2 27.7 -33.45 Q20.95 -36.8 12.5 -36.0 L5.35 -35.65 23.7 -37.7 Q29.2 -38.4 29.65 -41.65 M100.95 -33.05 Q101.6 -29.45 99.6 -27.35 L99.8 -26.95 101.1 -26.0 Q101.95 -24.8 101.95 -23.4 102.0 -22.0 101.3 -20.9 L88.5 -20.15 51.8 -23.35 72.8 -26.35 81.05 -27.95 Q85.0 -28.85 84.25 -31.9 L93.45 -32.75 93.5 -32.8 100.6 -33.05 100.95 -33.05 M105.25 -12.3 L105.6 -12.0 106.3 -10.55 0.05 -10.55 -0.85 -11.1 Q-7.05 -13.9 -14.05 -13.45 L-37.7 -11.8 Q-60.95 -13.2 -83.65 -17.65 L-84.75 -18.8 Q-85.8 -19.45 -87.0 -19.5 -90.0 -19.1 -91.35 -17.2 L-104.55 -16.5 Q-107.75 -16.3 -108.0 -19.45 L-108.0 -19.9 Q-114.3 -18.1 -118.5 -21.85 -119.95 -23.15 -119.25 -25.15 L-119.0 -25.5 Q-118.25 -26.6 -117.1 -27.3 -116.05 -27.95 -115.0 -28.0 L-108.0 -27.9 Q-106.15 -27.9 -104.9 -26.5 L-104.45 -25.45 -101.8 -25.1 Q-101.1 -24.9 -100.75 -24.25 -96.4 -23.85 -92.0 -24.25 L-78.45 -25.75 Q-77.2 -24.35 -74.8 -23.05 -72.1 -21.55 -69.05 -21.05 L-62.5 -20.1 -39.05 -18.1 -39.4 -17.0 Q-44.75 -14.85 -51.1 -17.15 -52.95 -17.8 -55.0 -17.85 L-79.25 -17.6 Q-65.15 -14.8 -49.4 -15.3 L-35.6 -15.55 -34.0 -16.0 -32.45 -15.6 Q-8.45 -15.75 15.5 -14.25 L19.45 -14.0 35.45 -12.95 69.3 -12.9 70.7 -12.65 Q88.3 -12.85 105.25 -12.3 M-86.2 -10.55 L-86.95 -10.55 -87.7 -11.05 -86.2 -10.55 M-85.45 -50.1 Q-87.1 -48.9 -90.5 -48.75 L-100.55 -48.4 Q-109.4 -48.05 -118.25 -48.7 -121.45 -48.95 -121.45 -52.15 L-121.25 -53.65 -119.65 -55.25 -117.5 -55.75 -96.0 -56.45 -96.75 -57.05 -93.35 -56.65 -93.55 -55.25 Q-93.6 -51.95 -89.15 -50.9 L-85.45 -50.1 M-96.8 -64.75 L-96.0 -64.9 -88.85 -64.9 -89.25 -64.65 -89.4 -64.0 -96.8 -64.75 M-116.95 -86.75 L-117.65 -86.75 Q-118.75 -86.1 -120.0 -86.25 -124.6 -86.8 -123.85 -91.25 L-123.75 -91.65 Q-122.15 -94.1 -119.25 -94.3 L-102.15 -95.1 -102.0 -94.8 -103.9 -94.3 Q-107.35 -93.3 -110.85 -92.85 -116.9 -92.1 -116.95 -86.75 M-102.3 -96.9 L-102.5 -96.9 Q-110.55 -93.1 -111.35 -101.3 -111.55 -103.25 -109.55 -103.8 L-104.4 -104.95 -106.6 -105.25 Q-107.95 -105.45 -108.6 -106.8 -109.35 -108.4 -108.75 -110.15 L-108.5 -110.5 -107.55 -111.65 -106.15 -112.65 -105.9 -112.75 -105.25 -112.85 -104.5 -113.0 Q-95.95 -113.2 -87.35 -112.85 L-78.5 -112.5 Q-64.3 -112.1 -50.15 -112.4 L-46.65 -112.1 Q-43.8 -111.6 -41.4 -110.0 -40.45 -108.65 -40.65 -107.0 -40.7 -106.25 -41.1 -105.7 L-41.5 -105.2 Q-44.15 -102.45 -48.35 -102.7 L-75.95 -104.0 -77.6 -104.05 -77.45 -103.6 -80.5 -104.0 Q-84.35 -103.55 -84.25 -99.8 -91.35 -99.35 -98.55 -99.75 -100.6 -99.9 -101.75 -98.15 L-102.3 -96.9 M-0.3 -95.9 L7.1 -95.75 Q7.95 -95.7 8.6 -95.0 9.7 -92.75 9.2 -91.3 L-18.7 -91.45 -15.95 -91.85 -10.75 -92.6 -9.75 -92.6 Q-6.5 -92.6 -4.7 -93.5 L-4.1 -93.6 Q-0.9 -94.1 -0.3 -95.9 M22.0 -95.5 Q21.95 -96.35 22.2 -97.15 L22.45 -97.5 23.5 -98.55 24.6 -99.25 25.25 -99.35 25.95 -99.45 25.95 -99.5 37.75 -99.0 Q37.35 -99.9 37.5 -100.85 L38.85 -101.75 48.8 -101.05 Q49.55 -99.15 51.65 -99.35 L56.6 -99.6 Q55.65 -99.0 55.25 -97.85 54.7 -96.4 55.2 -94.9 55.45 -94.45 55.85 -94.15 L22.0 -95.5 M61.4 -99.7 L62.8 -99.75 66.55 -99.65 66.65 -99.0 66.95 -98.25 Q64.1 -98.85 61.4 -99.7 M40.35 -62.7 L28.2 -62.8 Q28.25 -63.9 27.5 -64.6 L36.95 -65.0 Q38.2 -64.95 39.2 -64.2 L40.1 -63.5 40.35 -62.7 M-4.1 -63.0 L-10.0 -63.05 -9.65 -63.4 -3.8 -63.35 -3.9 -63.25 -4.1 -63.0 M17.05 -27.4 L-9.05 -27.2 Q4.0 -27.95 17.05 -27.4 M-91.35 -91.75 L-93.25 -90.65 -93.45 -89.15 -94.15 -89.25 Q-93.45 -90.05 -93.2 -90.95 L-91.75 -91.75 -91.35 -91.75 M-67.45 -85.95 L-62.0 -86.35 -62.0 -85.95 -66.9 -85.95 -67.45 -85.95" fill="#8b6a1d" fill-rule="evenodd" stroke="none"/>
    <path d="M100.0 -106.55 L88.25 -107.6 88.15 -108.2 52.95 -111.25 52.85 -110.85 52.8 -110.6 Q51.9 -110.2 51.35 -109.45 L44.65 -109.7 Q43.5 -111.05 42.85 -112.75 42.35 -114.0 42.45 -115.4 42.65 -118.45 45.6 -119.75 L46.25 -119.85 46.95 -119.95 46.95 -120.0 54.75 -119.3 Q52.3 -118.85 50.7 -116.65 50.3 -115.35 50.65 -114.0 51.1 -112.15 52.9 -111.95 68.3 -110.05 83.85 -111.85 L108.6 -110.35 110.1 -110.3 Q110.2 -109.3 109.95 -108.55 L110.95 -108.2 Q113.8 -107.2 114.55 -105.45 L114.2 -105.5 Q108.45 -106.25 102.95 -108.0 101.3 -107.95 100.0 -106.55 M96.5 -89.7 Q96.65 -85.8 93.15 -83.95 91.25 -83.0 88.3 -82.6 L81.05 -81.55 66.9 -78.8 Q53.6 -75.8 40.3 -74.9 39.2 -74.85 38.6 -75.9 37.55 -77.65 38.2 -79.65 L38.75 -80.0 Q44.65 -83.65 52.25 -84.7 L61.85 -86.1 62.4 -86.15 71.55 -87.6 Q82.15 -89.35 91.6 -93.25 L92.2 -93.35 92.95 -93.45 92.95 -93.5 Q94.2 -93.45 95.2 -92.7 L96.1 -92.0 96.5 -89.7 M105.45 -54.7 Q103.25 -52.35 100.55 -50.95 98.5 -49.9 96.15 -49.35 76.65 -44.95 56.6 -46.4 L54.45 -46.6 45.95 -47.7 45.35 -47.8 Q41.65 -48.4 42.05 -51.75 L42.2 -52.65 Q42.85 -53.75 43.8 -54.25 44.7 -54.7 45.95 -54.65 60.2 -53.8 74.35 -54.6 L83.1 -55.25 86.1 -55.55 Q93.35 -56.35 99.7 -59.65 L99.55 -60.4 99.55 -61.5 99.7 -62.65 100.25 -63.35 101.6 -64.5 102.1 -64.75 102.7 -64.85 103.45 -64.95 103.45 -65.0 Q111.3 -61.6 105.95 -55.25 L105.65 -54.9 105.45 -54.7 M-96.75 -57.05 L-99.8 -57.4 Q-100.9 -57.5 -101.85 -58.3 L-102.75 -59.4 Q-103.05 -60.3 -103.0 -61.25 -103.0 -62.3 -102.4 -63.15 L-101.35 -64.2 Q-100.3 -64.95 -99.0 -64.95 L-99.0 -65.0 -96.8 -64.75 -89.4 -64.0 -63.35 -62.35 -58.4 -62.2 Q-43.2 -61.8 -28.0 -62.1 L12.75 -62.55 Q18.95 -62.6 24.1 -60.0 25.25 -56.8 24.15 -55.25 L23.05 -54.35 21.95 -53.95 18.6 -53.8 12.75 -54.1 Q-11.15 -54.3 -35.0 -53.9 L-41.6 -53.85 Q-50.0 -53.85 -58.4 -54.15 L-77.75 -55.25 -93.35 -56.65 -96.75 -57.05 M-87.0 -79.85 Q-100.85 -82.4 -114.8 -84.3 -117.0 -84.6 -116.95 -86.75 -116.9 -92.1 -110.85 -92.85 -107.35 -93.3 -103.9 -94.3 L-102.0 -94.8 -102.15 -95.1 Q-102.55 -96.0 -102.3 -96.9 L-101.75 -98.15 Q-100.6 -99.9 -98.55 -99.75 -91.35 -99.35 -84.25 -99.8 -84.35 -103.55 -80.5 -104.0 L-77.45 -103.6 -76.65 -103.5 -78.25 -101.65 Q-78.6 -100.55 -78.4 -99.4 -78.15 -97.8 -76.7 -97.35 -66.5 -94.35 -55.7 -95.9 -42.8 -97.75 -29.9 -98.15 -33.75 -97.0 -36.75 -94.65 -37.3 -93.1 -36.7 -91.65 -35.75 -89.2 -33.1 -89.55 L-23.35 -90.8 Q-24.05 -89.95 -25.4 -89.45 L-23.6 -89.25 Q-17.55 -88.5 -12.1 -86.55 L-9.4 -85.5 Q-7.0 -78.6 -14.75 -79.65 L-16.5 -79.85 Q-16.9 -78.95 -17.8 -78.25 -18.6 -77.75 -19.75 -77.35 L-22.25 -76.9 -32.05 -75.9 -32.4 -76.5 Q-33.35 -77.6 -34.8 -77.65 -55.65 -78.75 -76.15 -78.65 -76.55 -79.35 -77.25 -79.75 -78.3 -80.45 -79.5 -80.5 -83.4 -80.1 -83.75 -76.15 L-83.7 -74.3 -83.95 -74.4 Q-87.25 -75.45 -86.25 -79.15 L-85.85 -79.5 -85.75 -79.6 -85.85 -79.65 -87.0 -79.85 M-6.05 -100.95 L-5.25 -101.0 -4.0 -100.8 -6.05 -100.95 M48.8 -101.05 L60.75 -99.75 56.6 -99.6 51.65 -99.35 Q49.55 -99.15 48.8 -101.05 M62.8 -99.75 Q64.25 -100.0 65.5 -100.9 L74.2 -99.85 76.85 -99.65 72.75 -99.35 66.55 -99.65 62.8 -99.75 M19.5 -24.6 L19.7 -25.65 22.25 -27.1 21.85 -27.15 17.05 -27.4 Q4.0 -27.95 -9.05 -27.2 L-18.5 -26.55 -20.05 -26.4 -33.0 -25.7 -65.25 -25.2 Q-72.0 -25.05 -76.15 -29.25 -77.35 -30.4 -76.75 -32.15 -72.1 -36.15 -65.1 -35.5 -45.9 -33.7 -26.55 -34.35 L5.35 -35.65 12.5 -36.0 Q20.95 -36.8 27.7 -33.45 30.45 -32.1 32.95 -29.95 L34.2 -30.05 35.05 -30.05 Q49.25 -30.6 63.25 -33.4 L64.5 -33.65 64.7 -33.65 73.95 -35.0 80.45 -34.9 Q82.35 -34.9 83.6 -33.5 L83.95 -32.75 84.25 -31.9 Q85.0 -28.85 81.05 -27.95 L72.8 -26.35 51.8 -23.35 48.5 -22.9 36.75 -21.5 23.25 -20.95 21.9 -21.05 Q20.1 -21.15 19.65 -23.0 19.45 -23.8 19.5 -24.6 M-91.35 -91.75 L-91.75 -91.75 -93.2 -90.95 Q-93.45 -90.05 -94.15 -89.25 L-93.45 -89.15 -93.25 -90.65 -91.35 -91.75 M-4.7 -93.5 Q-6.5 -92.6 -9.75 -92.6 L-10.75 -92.6 -4.7 -93.5 M-72.35 -85.55 L-73.3 -85.5 -73.1 -85.45 -68.25 -84.45 Q-64.9 -83.75 -62.1 -81.95 L-39.5 -83.4 -57.0 -86.7 -62.0 -86.35 -67.45 -85.95 -72.35 -85.55" fill="#83641d" fill-rule="evenodd" stroke="none"/>
    <path d="M105.1 -99.05 Q109.25 -97.4 114.1 -97.15 120.8 -96.9 119.5 -102.3 L122.0 -101.6 Q124.25 -100.9 123.9 -98.6 123.05 -93.0 117.05 -94.55 112.0 -95.9 106.9 -95.95 105.35 -92.8 100.1 -94.1 L100.05 -94.1 Q99.75 -91.05 96.5 -89.7 L96.1 -92.0 95.2 -92.7 Q94.2 -93.45 92.95 -93.5 L92.95 -93.45 92.2 -93.35 91.6 -93.25 Q82.15 -89.35 71.55 -87.6 L62.4 -86.15 61.05 -86.4 61.85 -86.1 52.25 -84.7 Q44.65 -83.65 38.75 -80.0 32.65 -80.1 26.55 -79.8 L-17.8 -78.25 Q-16.9 -78.95 -16.5 -79.85 L-14.75 -79.65 Q-7.0 -78.6 -9.4 -85.5 L-12.1 -86.55 Q11.1 -88.05 34.45 -87.5 L40.7 -87.85 Q28.45 -87.75 16.25 -88.3 13.15 -88.45 13.0 -91.5 L13.0 -91.65 Q13.0 -92.4 13.25 -93.15 L13.5 -93.5 13.75 -93.85 14.1 -94.25 14.5 -94.6 15.1 -95.0 15.6 -95.25 16.25 -95.35 16.95 -95.45 17.0 -95.5 22.0 -95.5 55.85 -94.15 Q55.45 -94.45 55.2 -94.9 54.7 -96.4 55.25 -97.85 55.65 -99.0 56.6 -99.6 L60.75 -99.75 60.8 -99.75 61.4 -99.7 Q64.1 -98.85 66.95 -98.25 L66.65 -99.0 66.55 -99.65 72.75 -99.35 76.85 -99.65 99.45 -98.05 Q103.3 -97.8 105.1 -99.05 M93.15 -83.95 L92.9 -83.35 92.7 -82.95 Q90.0 -78.25 83.9 -80.55 L81.05 -81.55 88.3 -82.6 Q91.25 -83.0 93.15 -83.95 M111.3 -74.7 L115.25 -73.1 Q116.8 -72.4 116.95 -70.6 117.45 -64.3 111.2 -66.5 110.5 -66.75 110.1 -67.4 L109.75 -67.5 Q106.15 -68.85 102.1 -68.95 L92.8 -69.35 82.95 -70.5 82.2 -70.65 Q80.3 -71.2 79.2 -72.9 L79.0 -74.0 78.95 -74.4 Q78.9 -75.6 79.6 -76.6 80.9 -78.45 82.95 -78.5 L84.6 -78.05 85.35 -77.75 Q99.05 -79.15 111.3 -74.7 M100.55 -50.95 L106.85 -50.75 Q108.25 -50.7 108.9 -49.35 110.15 -46.8 108.6 -44.5 107.0 -42.75 104.75 -43.25 L103.1 -43.75 Q81.95 -42.6 60.9 -43.6 58.25 -43.7 56.7 -45.9 L56.6 -46.4 Q76.65 -44.95 96.15 -49.35 98.5 -49.9 100.55 -50.95 M14.1 -45.0 L21.9 -45.9 25.95 -46.5 Q27.2 -46.45 28.2 -45.7 L29.1 -45.0 Q29.85 -43.1 29.65 -41.65 29.2 -38.4 23.7 -37.7 L5.35 -35.65 -26.55 -34.35 Q-45.9 -33.7 -65.1 -35.5 -72.1 -36.15 -76.75 -32.15 -77.35 -30.4 -76.15 -29.25 -72.0 -25.05 -65.25 -25.2 L-33.0 -25.7 -20.05 -26.4 -18.5 -26.55 Q-11.25 -26.4 -3.9 -26.65 -3.05 -26.7 -2.4 -26.0 L-2.25 -25.55 5.55 -25.8 Q12.7 -26.2 19.5 -24.6 19.45 -23.8 19.65 -23.0 20.1 -21.15 21.9 -21.05 L23.25 -20.95 23.15 -19.8 Q22.55 -16.95 17.6 -16.85 L-19.2 -18.15 -21.4 -18.4 -26.7 -18.95 Q-41.8 -19.4 -56.8 -21.35 -67.6 -22.75 -77.5 -26.85 -78.6 -27.35 -79.25 -28.4 L-79.35 -28.75 -79.5 -29.5 -79.5 -30.65 -79.45 -31.1 -79.25 -32.15 -79.0 -32.5 -78.35 -33.2 -78.25 -33.25 -77.9 -33.6 -78.0 -33.6 -84.0 -33.65 Q-88.4 -33.7 -87.9 -37.9 L-87.75 -38.65 Q-84.3 -42.9 -78.0 -42.05 L-66.5 -41.2 Q-26.0 -40.85 14.1 -45.0 M57.3 -39.05 Q64.15 -43.05 72.95 -41.5 89.75 -43.25 106.3 -41.3 112.9 -40.5 113.85 -34.65 114.35 -31.5 111.2 -30.75 108.65 -30.2 107.2 -32.25 104.15 -33.15 100.95 -33.05 L100.6 -33.05 93.5 -32.8 83.95 -32.75 83.6 -33.5 Q82.35 -34.9 80.45 -34.9 L73.95 -35.0 64.7 -33.65 59.7 -34.15 58.15 -34.3 Q57.35 -34.4 56.95 -35.3 56.15 -36.9 56.7 -38.65 L57.0 -38.9 57.3 -39.05 M101.3 -20.9 L102.45 -21.0 Q111.95 -22.15 118.45 -16.2 119.65 -15.05 119.25 -13.3 L118.3 -10.55 110.9 -10.55 Q110.4 -11.2 110.45 -12.15 L105.25 -12.3 Q88.3 -12.85 70.7 -12.65 L69.3 -12.9 Q68.1 -13.45 67.65 -15.0 67.3 -16.35 67.7 -17.65 68.7 -19.45 70.7 -19.5 L88.5 -20.15 101.3 -20.9 M48.4 -62.65 L62.45 -61.75 63.1 -61.7 Q70.1 -61.75 74.1 -57.1 74.95 -56.15 74.7 -55.25 L74.35 -54.6 Q60.2 -53.8 45.95 -54.65 44.7 -54.7 43.8 -54.25 L23.05 -54.35 24.15 -55.25 Q25.25 -56.8 24.1 -60.0 18.95 -62.6 12.75 -62.55 L-28.0 -62.1 Q-43.2 -61.8 -58.4 -62.2 L-63.35 -62.35 -63.25 -63.15 -61.0 -66.2 Q-59.95 -67.55 -58.4 -68.25 L-57.75 -68.35 -57.05 -68.45 -57.0 -68.5 Q-55.8 -68.45 -54.8 -67.7 L-53.9 -67.0 -53.5 -66.25 -53.2 -65.5 -53.0 -64.75 Q-42.35 -63.2 -30.9 -63.15 L-10.0 -63.05 -4.1 -63.0 28.2 -62.8 40.35 -62.7 44.7 -62.7 48.4 -62.65 M-19.75 -77.35 Q-21.5 -72.3 -28.15 -73.85 L-31.6 -74.6 -32.05 -75.9 -22.25 -76.9 -19.75 -77.35" fill="#87671d" fill-rule="evenodd" stroke="none"/>
    <path d="M10.55 -122.9 L10.8 -123.3 11.15 -123.3 10.35 -122.65 10.55 -122.9" fill="url(#gradient0)" fill-rule="evenodd" stroke="none"/>
    <path d="M131.85 37.05 L131.95 34.9 132.05 32.9 132.05 46.7 131.7 46.7 Q131.65 43.4 131.75 40.1 L131.8 38.35 131.85 37.05" fill="url(#gradient1)" fill-rule="evenodd" stroke="none"/>
    <path d="M130.1 127.35 L130.8 126.6 130.8 128.2 128.9 128.2 129.2 127.6 130.1 127.35" fill="url(#gradient2)" fill-rule="evenodd" stroke="none"/>
    <path d="M124.05 128.15 L123.95 128.2 104.6 128.2 104.95 127.75 124.05 128.15" fill="url(#gradient3)" fill-rule="evenodd" stroke="none"/>
    <path d="M-124.7 39.3 L-124.7 29.45 -124.5 29.75 -124.7 39.3" fill="url(#gradient4)" fill-rule="evenodd" stroke="none"/>
    <path d="M-124.7 68.45 L-124.5 68.75 -124.5 86.75 -124.7 87.05 -124.7 68.45" fill="url(#gradient5)" fill-rule="evenodd" stroke="none"/>
    <path d="M128.95 -122.9 Q129.15 -120.4 128.95 -117.95 L128.55 -111.2 128.1 -92.55 128.05 -88.95 127.95 -80.75 127.45 -80.0 128.45 -52.25 127.95 -51.5 127.85 -49.2 127.7 -46.1 Q127.55 -42.85 127.55 -39.6 127.55 -34.2 127.85 -28.8 128.1 -23.9 128.65 -19.05 129.05 -15.3 128.95 -11.5 L129.45 -10.75 129.95 -2.5 130.45 -1.75 130.45 16.25 128.95 23.0 128.95 26.75 128.45 27.5 127.95 38.0 128.45 38.75 128.95 65.75 128.45 66.5 128.45 89.0 128.95 89.75 128.95 96.5 129.45 97.25 128.45 119.75 127.4 125.75 102.6 124.75 100.3 128.2 92.85 128.2 95.6 127.85 95.4 125.85 90.4 125.35 87.45 125.15 85.65 125.2 83.0 125.3 78.75 125.75 50.45 127.3 48.2 127.35 37.15 127.4 33.65 127.4 27.5 127.25 25.45 127.2 23.4 127.1 23.05 126.7 4.85 124.9 4.2 124.9 1.2 124.9 0.25 124.95 -3.05 125.15 -3.55 125.15 Q-17.45 125.9 -31.4 125.85 L-32.0 125.9 -81.65 127.6 -84.7 127.65 -87.9 127.7 -114.45 126.85 -117.4 126.5 -123.0 125.6 Q-123.25 121.75 -122.85 118.0 L-122.85 117.85 Q-122.6 115.6 -121.8 113.45 L-121.55 112.7 Q-122.9 109.15 -122.7 105.3 L-122.45 103.15 -122.35 102.5 Q-122.2 101.05 -122.35 99.65 L-122.4 99.25 Q-123.6 98.15 -123.9 96.2 L-124.0 95.1 -123.95 94.75 Q-123.4 93.35 -122.5 92.45 L-122.1 89.1 -122.0 88.6 Q-121.45 85.25 -121.2 81.85 L-121.05 78.65 -121.1 75.25 Q-121.25 70.5 -122.1 65.8 -122.5 63.75 -122.45 61.7 L-122.4 59.75 -122.3 57.35 -122.3 56.65 -122.1 50.9 -121.8 40.65 -121.75 39.35 -121.7 37.3 Q-121.6 33.0 -121.9 28.8 L-122.15 24.55 -122.2 23.05 -122.25 15.45 -122.2 13.5 Q-122.05 8.25 -121.55 3.05 -121.1 -1.55 -121.05 -6.15 -121.0 -9.3 -121.2 -12.45 L-121.7 -22.25 -121.7 -22.8 -121.85 -26.75 -122.1 -39.2 -122.1 -44.3 -122.15 -50.2 -122.25 -64.4 -122.5 -72.65 -122.8 -79.05 -123.1 -87.6 Q-124.25 -88.9 -123.85 -91.25 L-123.75 -91.65 -123.15 -92.45 -122.9 -100.85 -122.65 -104.7 -122.2 -110.5 -121.65 -115.55 -121.05 -120.05 -121.0 -120.5 -120.75 -120.4 Q-119.6 -120.0 -118.45 -119.95 L-115.55 -120.25 -113.6 -120.5 -113.1 -120.5 -110.4 -120.65 -104.45 -121.3 -91.75 -121.3 -91.0 -121.15 -89.7 -120.9 -78.8 -119.6 -76.3 -119.5 -65.85 -119.8 -61.55 -120.1 -59.25 -120.15 -34.6 -120.95 -31.6 -121.15 -25.95 -121.7 -25.75 -120.15 -25.05 -119.65 Q-18.25 -114.55 -11.15 -109.75 L-9.6 -108.7 -8.65 -108.15 Q-7.8 -107.7 -6.75 -107.4 L-6.55 -107.35 -4.3 -106.9 6.9 -106.4 8.2 -106.55 Q12.4 -106.95 16.6 -108.15 L19.2 -109.05 Q21.25 -109.9 23.15 -111.05 25.0 -112.15 26.7 -113.55 27.8 -114.45 28.5 -115.65 30.65 -119.5 34.0 -122.35 L34.6 -122.25 36.6 -121.9 Q40.4 -121.65 44.15 -121.85 L75.3 -123.65 87.45 -123.4 Q108.2 -121.95 128.95 -122.9" fill="url(#gradient6)" fill-rule="evenodd" stroke="none"/>
    <path d="M121.8 24.6 L122.0 24.55 122.05 24.5 123.8 24.5 123.85 24.35 124.05 24.15 124.3 24.0 125.65 24.1 125.8 24.2 125.95 24.2 126.05 24.1 126.05 23.9 Q126.15 23.85 126.3 23.75 L126.55 23.65 126.75 23.45 126.95 23.25 127.1 23.1 127.3 22.9 127.45 22.7 127.55 22.5 127.65 22.35 128.05 22.15 128.25 22.05 128.3 22.0 128.9 22.1 129.05 22.25 128.95 22.45 129.05 22.65 128.95 22.85 129.05 23.0 129.05 23.2 129.05 23.4 129.05 23.6 129.05 23.75 129.05 23.95 128.95 24.15 128.9 24.35 129.05 24.5 129.05 24.7 129.05 24.9 128.95 25.1 128.95 25.2 128.8 25.25 128.15 25.2 128.05 25.1 127.95 25.2 127.85 25.4 127.55 25.5 121.9 25.65 121.4 25.85 121.0 25.95 120.15 26.15 119.65 26.35 119.3 26.45 119.05 26.5 118.2 26.5 118.2 26.6 118.1 26.65 118.05 26.7 117.9 26.75 117.65 26.8 117.55 26.85 117.4 26.9 117.1 26.95 116.95 27.05 116.8 27.15 116.7 27.2 116.55 27.25 116.3 27.3 116.15 27.4 116.05 27.45 115.9 27.45 115.15 27.55 115.05 27.6 114.95 27.65 114.85 27.65 114.6 27.75 114.5 27.85 114.35 27.9 114.2 28.0 114.1 28.1 113.95 28.2 113.8 28.3 113.7 28.35 113.55 28.4 113.45 28.5 113.35 28.6 113.3 28.6 113.15 28.65 113.0 28.7 112.9 28.8 112.8 28.85 112.65 28.9 112.45 28.95 112.45 29.05 112.45 29.15 112.5 29.25 112.55 29.35 112.55 29.4 112.55 29.5 112.5 29.6 112.45 29.7 112.4 29.8 112.3 29.85 112.15 29.9 111.85 29.9 111.8 29.95 110.85 30.05 110.85 30.1 110.75 30.2 110.7 30.3 110.65 30.4 110.6 30.5 110.5 30.6 110.4 30.65 110.35 30.75 110.3 30.85 110.2 30.85 110.05 30.9 109.9 30.9 109.85 30.95 109.8 31.15 109.8 31.35 109.8 31.55 109.7 31.7 109.65 31.9 109.45 32.1 109.35 32.2 109.25 32.25 109.0 32.35 108.1 32.45 107.65 32.65 107.5 32.8 107.15 32.9 107.0 33.05 106.8 33.1 106.35 33.25 105.9 33.4 105.75 33.55 105.4 33.65 105.25 33.8 105.05 33.85 104.6 33.95 104.25 34.1 101.1 34.2 100.9 34.4 100.75 34.6 100.7 34.8 100.6 34.95 100.15 35.15 100.0 35.3 99.75 35.35 98.1 35.45 97.75 35.6 95.6 35.7 95.25 35.85 95.0 35.85 94.65 35.7 94.5 35.75 94.15 35.9 94.0 36.05 93.65 36.15 93.45 36.35 93.35 36.45 93.25 36.5 93.0 36.6 92.6 36.7 92.4 36.9 92.25 37.05 92.0 37.15 92.0 37.3 92.0 37.65 92.15 37.65 92.25 37.85 92.15 38.05 92.0 38.2 91.95 38.4 91.85 38.6 91.75 38.8 91.75 39.2 91.75 39.9 91.75 40.35 91.75 40.55 91.75 40.65 91.75 41.4 91.75 41.6 91.65 41.8 91.55 41.9 91.65 41.9 91.75 42.1 91.75 42.3 91.95 42.45 92.0 42.65 92.1 42.85 92.2 43.05 92.25 43.2 92.65 43.4 92.75 43.6 92.75 43.8 92.75 43.95 93.15 44.15 93.25 44.35 93.25 44.55 93.2 44.7 92.9 44.8 92.75 44.65 92.4 44.55 92.25 44.35 92.25 44.15 92.25 43.95 92.1 43.8 91.9 43.6 91.75 43.4 91.5 43.2 91.5 43.05 91.45 42.85 91.4 42.8 91.35 42.9 91.25 43.1 91.25 43.3 91.25 43.45 91.2 43.65 91.1 43.85 91.0 44.05 91.0 44.2 90.95 44.4 90.85 44.6 90.75 44.8 90.75 44.95 90.7 45.15 90.6 45.35 90.5 45.55 90.5 45.7 90.5 45.9 90.5 46.1 90.4 46.3 90.2 46.45 90.0 46.65 90.0 46.85 90.0 47.05 89.95 47.2 89.75 47.4 89.75 47.6 89.75 47.8 89.95 47.95 90.0 48.15 90.1 48.35 90.2 48.55 90.45 48.7 90.5 48.9 90.5 49.1 90.4 49.3 90.15 49.3 89.95 49.1 89.75 48.9 89.5 48.7 89.5 48.55 89.45 48.35 89.25 48.15 89.25 47.95 89.25 47.8 89.25 47.6 89.25 47.4 89.25 47.2 89.25 47.05 89.45 46.85 89.5 46.65 89.5 46.45 89.5 46.3 89.6 46.2 89.5 46.1 89.5 45.9 89.5 45.55 89.5 45.35 89.5 44.95 89.5 44.6 89.65 44.4 89.75 44.2 89.75 44.05 89.75 43.85 89.75 43.65 89.75 43.45 89.75 43.3 89.9 43.1 90.0 42.9 90.0 42.7 90.0 42.55 90.2 42.35 90.25 42.15 90.25 41.95 90.25 41.8 90.25 41.6 90.25 41.4 90.25 41.2 90.25 40.85 90.35 40.65 90.45 40.45 90.5 40.3 90.5 40.1 90.45 39.9 90.25 39.7 90.25 39.55 90.25 39.35 90.25 39.2 89.9 39.05 89.7 38.85 89.5 38.65 89.5 38.5 89.45 38.45 89.1 38.45 88.65 38.65 88.5 38.8 88.25 38.85 81.75 38.85 81.45 38.7 81.0 38.55 80.25 38.3 80.15 38.15 77.6 38.2 77.25 38.35 76.85 38.45 76.5 38.6 76.4 38.55 76.25 38.6 75.6 38.7 75.25 38.85 74.95 38.7 74.75 38.55 74.75 38.35 74.75 38.15 74.75 37.95 74.9 37.8 75.0 37.65 75.25 37.6 75.95 37.45 76.15 37.3 76.25 37.15 76.5 37.05 76.6 36.85 76.75 36.65 76.95 36.45 77.0 36.3 77.1 36.1 77.2 35.95 77.25 35.9 77.5 35.8 77.6 35.6 77.75 35.4 77.95 35.2 78.15 35.05 78.25 34.9 78.5 34.85 78.95 34.7 79.35 34.5 79.5 34.4 79.85 34.3 80.0 34.15 80.35 34.05 80.6 33.85 80.7 33.7 80.75 33.65 81.1 33.55 81.35 33.35 81.45 33.2 81.55 33.15 81.75 33.1 82.2 32.95 82.5 32.85 84.0 32.85 84.35 32.95 84.75 33.1 85.1 33.2 85.25 33.35 85.6 33.45 86.45 33.45 86.75 33.35 87.45 33.2 87.75 33.1 88.7 32.95 89.1 32.75 89.25 32.65 89.5 32.6 92.2 32.45 92.5 32.35 92.75 32.2 92.9 32.05 93.0 31.9 93.25 31.85 95.95 31.7 96.25 31.6 96.95 31.45 97.25 31.35 98.2 31.2 98.4 31.05 98.6 30.85 98.5 30.8 98.4 30.65 98.25 30.6 97.95 30.45 97.75 30.3 97.65 30.15 97.5 30.1 97.2 29.95 97.0 29.85 96.7 29.7 96.5 29.55 96.5 29.35 96.5 29.15 96.5 28.95 96.5 28.8 96.4 28.6 96.25 28.4 96.25 28.3 95.95 28.15 95.75 27.95 95.6 27.75 95.4 27.6 95.2 27.4 95.0 27.25 94.7 27.15 94.5 27.0 94.2 26.9 94.0 26.7 93.85 26.5 93.65 26.35 93.45 26.15 93.25 26.0 92.95 25.9 92.85 25.8 92.75 25.8 92.15 25.85 92.0 25.95 91.65 26.1 91.5 26.2 91.25 26.25 89.75 26.25 89.45 26.15 88.0 26.0 87.7 25.9 87.5 25.7 87.35 25.65 87.25 25.7 87.0 25.75 85.85 25.9 85.5 26.0 85.0 26.0 84.7 25.9 84.65 25.85 84.2 25.9 83.95 26.1 83.9 26.25 83.65 26.45 83.25 26.65 83.2 26.85 83.2 26.95 83.0 27.0 81.65 26.95 81.5 26.75 81.65 26.6 82.75 26.4 82.75 26.2 82.85 26.1 83.0 26.05 83.45 25.9 83.5 25.7 83.7 25.5 83.9 25.35 84.65 25.25 84.7 25.15 85.1 24.95 85.25 24.85 85.5 24.8 86.7 24.6 87.0 24.5 87.75 24.5 88.1 24.65 88.25 24.85 88.4 24.95 89.75 25.0 90.1 25.15 91.2 25.15 91.6 24.95 91.85 24.75 91.95 24.65 92.05 24.6 92.25 24.55 92.2 24.5 92.0 24.35 92.0 24.15 92.0 23.95 91.95 23.75 91.75 23.6 91.5 23.4 91.4 23.2 91.25 23.0 91.25 22.85 91.25 22.65 91.25 22.45 91.25 22.1 91.25 21.9 90.9 21.7 90.75 21.5 90.75 21.35 90.75 21.15 90.65 20.95 90.5 20.75 90.5 20.6 90.5 20.4 90.75 20.35 90.9 20.35 91.1 20.5 91.2 20.7 91.25 20.9 91.25 21.1 91.3 21.15 91.65 21.35 91.75 21.5 91.75 21.7 91.75 21.9 91.75 22.1 91.75 22.45 91.75 22.65 91.9 22.85 92.1 23.0 92.2 23.2 92.45 23.4 92.5 23.6 92.5 23.75 92.5 23.95 92.7 24.15 92.9 24.35 93.1 24.5 93.15 24.6 93.35 24.65 93.4 24.75 93.75 24.75 94.1 24.9 94.25 25.1 94.4 25.2 94.5 25.25 94.85 25.4 95.0 25.6 95.15 25.7 96.75 25.75 97.1 25.9 97.25 26.0 97.6 26.15 97.75 26.35 97.95 26.5 98.1 26.65 98.15 26.7 99.5 26.75 99.85 26.9 100.0 27.0 100.35 27.15 100.5 27.35 100.7 27.5 100.85 27.65 100.9 27.7 101.25 27.75 101.6 27.9 101.95 27.9 102.25 27.75 103.25 27.75 103.6 27.9 104.45 27.9 104.75 27.75 105.1 27.9 105.2 28.1 105.25 28.25 105.35 28.2 105.6 28.0 105.7 27.9 105.8 27.85 106.1 27.7 106.25 27.6 106.5 27.5 106.95 27.4 107.15 27.2 107.25 27.0 107.25 26.85 107.45 26.65 107.8 26.55 108.2 26.4 108.4 26.2 108.55 26.1 108.85 25.95 109.05 25.85 109.35 25.7 109.55 25.6 109.85 25.45 110.05 25.35 110.3 25.3 110.95 25.15 111.25 25.05 111.3 25.0 111.55 25.0 111.2 24.9 111.05 24.7 111.05 24.5 110.9 24.35 110.8 24.15 110.05 24.0 109.7 23.9 109.55 23.7 109.5 23.55 109.45 23.4 109.4 23.35 109.1 23.4 108.8 23.5 107.8 23.5 107.45 23.4 107.25 23.25 106.95 23.15 106.75 22.95 106.65 22.85 106.25 22.75 105.95 22.65 105.75 22.45 105.75 22.25 105.6 22.2 105.5 22.1 105.4 22.0 105.25 21.85 105.05 21.65 104.85 21.45 104.65 21.25 104.5 21.15 104.45 21.1 103.65 20.95 103.5 20.75 103.5 20.6 103.5 20.4 103.4 20.2 103.25 20.0 103.25 19.85 103.0 19.65 103.0 19.45 103.1 19.35 103.25 19.3 103.25 19.25 103.65 19.35 103.75 19.5 103.75 19.7 103.95 19.9 104.0 20.1 104.0 20.25 104.0 20.4 104.05 20.45 104.65 20.6 104.9 20.8 105.1 20.95 105.45 21.15 105.65 21.35 106.5 21.15 106.75 20.95 106.85 20.85 107.0 20.75 107.25 20.65 107.25 20.45 107.35 20.35 107.5 20.3 107.5 20.25 107.9 20.35 108.05 20.5 107.9 20.7 107.8 20.9 107.7 21.1 107.7 21.2 107.55 21.3 107.2 21.4 107.0 21.6 106.95 21.7 107.0 21.75 107.35 21.9 107.5 22.1 107.65 22.2 107.8 22.25 108.1 22.4 108.45 22.4 108.65 22.2 108.8 22.1 109.05 22.0 109.35 22.15 109.55 22.25 109.85 22.4 110.05 22.5 110.35 22.65 110.45 22.85 110.55 22.9 111.05 23.0 111.35 23.15 111.5 23.2 111.75 23.3 111.85 23.4 111.9 23.45 112.1 23.55 112.2 23.65 112.4 23.75 112.55 23.85 112.7 23.9 112.85 24.0 112.9 24.1 112.95 24.1 113.05 24.15 113.2 24.15 113.4 24.25 113.6 24.3 113.7 24.35 116.65 24.4 116.8 24.45 116.85 24.45 117.15 24.5 117.35 24.55 117.45 24.65 117.55 24.75 117.65 24.85 121.1 24.9 121.15 24.9 121.55 24.7 121.8 24.6 M96.4 26.9 L96.5 27.1 96.65 27.2 96.75 27.25 97.0 27.25 97.1 27.3 96.85 27.1 96.45 26.9 96.4 26.9 M98.7 27.9 L98.75 27.85 98.5 27.85 98.7 27.9 M93.5 33.1 L93.65 33.05 93.8 32.95 93.6 32.95 93.5 33.1 M100.0 33.8 L99.85 33.95 99.65 34.15 99.85 34.05 100.0 33.85 100.0 33.8 M98.5 32.35 L97.35 32.45 97.25 32.5 98.25 32.45 98.5 32.35 M87.55 34.4 L86.85 34.45 86.65 34.55 87.25 34.6 87.35 34.6 87.5 34.4 87.55 34.4 M91.0 38.65 L91.0 38.85 90.95 39.0 90.95 39.05 91.0 39.15 91.0 38.95 91.2 38.8 91.25 38.6 91.25 38.55 91.0 38.6 91.0 38.65 M116.95 25.4 L117.05 25.4 117.0 25.4 116.95 25.4 M111.9 25.2 L111.9 25.25 111.9 25.2 M101.5 31.35 L101.4 31.4 101.4 31.45 101.5 31.45 101.5 31.35 M80.5 107.05 L79.6 106.35 79.5 106.05 79.6 105.7 79.9 105.35 80.5 105.05 81.5 105.05 82.1 105.35 82.5 105.65 82.75 105.9 83.0 106.05 83.65 106.3 84.0 106.65 84.25 106.9 86.65 107.3 87.05 108.05 87.5 109.2 87.5 109.55 88.15 110.3 89.0 111.45 89.0 111.8 89.0 112.2 89.25 112.55 89.5 112.95 89.5 113.7 89.5 115.2 89.5 115.55 89.35 115.9 89.15 116.3 89.0 116.7 89.0 117.05 89.0 117.45 90.85 119.1 91.9 120.05 92.0 120.05 92.6 120.35 92.75 120.5 95.15 120.8 95.35 121.2 95.5 121.5 95.5 121.3 95.25 120.95 95.0 120.55 94.95 118.7 Q94.95 118.0 95.75 118.2 L95.95 118.95 96.0 119.7 96.35 120.45 96.5 120.8 96.5 121.55 96.4 122.3 95.9 122.45 96.0 123.45 96.15 123.8 96.35 124.2 96.5 124.55 96.5 124.95 96.5 125.25 Q96.8 125.5 96.8 126.05 L96.65 126.8 95.0 126.7 94.65 126.25 94.0 125.95 94.0 125.55 94.0 124.8 94.0 123.7 93.85 123.35 93.5 122.95 93.5 122.8 91.0 122.55 90.4 122.25 90.0 121.95 89.75 121.7 84.05 119.8 Q82.4 119.3 80.9 118.3 L78.05 117.85 Q77.5 117.75 77.0 117.45 L77.05 117.05 77.45 116.4 78.0 116.05 81.5 116.05 82.05 116.4 83.25 117.45 83.65 117.8 87.25 118.7 86.9 118.3 86.5 117.95 86.5 117.55 86.5 117.2 86.5 116.8 86.7 116.4 87.35 115.25 87.5 114.95 87.5 114.55 87.5 114.2 87.5 113.8 87.35 113.45 87.15 113.05 86.9 112.3 86.5 111.95 86.15 111.55 86.0 111.2 85.85 110.85 85.5 110.45 85.5 110.05 85.5 109.7 85.35 109.45 83.5 109.05 82.9 108.75 82.5 108.45 82.25 108.2 82.0 108.05 81.4 107.8 81.0 107.4 80.75 107.15 80.5 107.05" fill="#000000" fill-rule="evenodd" stroke="none"/>
    <path d="M44.8 -122.3 L44.95 -122.1 45.0 -121.9 45.0 -121.55 45.0 -121.15 45.0 -120.8 45.0 -120.55 45.05 -120.35 45.2 -120.15 45.25 -119.95 45.25 -119.8 45.25 -119.6 45.25 -119.4 45.25 -119.2 45.25 -119.05 45.3 -118.85 45.45 -118.65 45.5 -118.45 45.5 -118.3 45.4 -118.1 45.45 -117.9 45.65 -117.7 45.75 -117.55 45.75 -117.35 45.8 -117.3 45.85 -117.25 45.95 -117.15 45.95 -117.1 46.0 -116.95 46.0 -116.9 46.15 -116.7 46.3 -116.55 46.45 -116.35 46.75 -116.15 46.9 -115.95 47.0 -115.8 47.05 -115.6 47.2 -115.4 47.25 -115.2 47.3 -115.05 47.45 -114.85 47.7 -114.65 47.9 -114.45 48.05 -114.3 48.2 -114.1 48.45 -113.9 48.5 -113.7 48.5 -113.55 48.5 -113.35 48.45 -113.15 48.15 -113.1 48.0 -113.3 48.0 -113.45 47.75 -113.65 47.65 -113.85 47.45 -114.05 47.25 -114.2 47.0 -114.4 46.9 -114.6 46.75 -114.8 46.75 -114.95 46.7 -115.15 46.55 -115.35 46.5 -115.55 46.4 -115.7 46.0 -115.9 45.9 -116.1 45.7 -116.3 45.5 -116.45 45.5 -116.65 45.4 -116.8 45.25 -116.95 44.9 -117.1 44.7 -117.3 44.45 -117.5 44.45 -117.4 44.2 -117.2 44.05 -117.05 44.0 -116.85 44.0 -116.65 43.95 -116.45 43.9 -116.3 43.95 -116.1 44.0 -115.9 44.0 -115.7 44.0 -115.55 44.0 -115.35 44.0 -115.15 44.0 -114.95 44.0 -114.8 43.9 -114.6 43.65 -114.6 43.5 -114.8 43.5 -114.95 43.5 -115.15 43.5 -115.35 43.5 -115.55 43.5 -115.7 43.25 -115.9 43.25 -116.1 43.25 -116.3 43.3 -116.45 43.45 -116.65 43.5 -116.85 43.5 -117.05 43.5 -117.2 43.5 -117.4 43.75 -117.6 43.9 -117.8 43.75 -117.95 43.5 -118.15 43.5 -118.3 43.5 -118.45 43.5 -118.55 43.5 -118.7 43.5 -118.85 43.5 -118.9 43.5 -119.1 43.65 -119.3 43.8 -119.45 44.0 -119.65 44.0 -119.85 44.2 -120.05 44.4 -120.2 44.5 -120.4 44.5 -120.55 44.5 -120.6 44.5 -120.8 44.5 -121.15 44.5 -121.55 44.5 -121.7 44.25 -121.9 44.25 -122.1 44.25 -122.3 44.3 -122.4 44.35 -122.45 44.5 -122.45 44.65 -122.45 44.8 -122.3 M-98.8 -115.5 L-98.5 -114.4 -98.15 -113.65 -98.15 -113.25 -98.15 -112.9 -97.4 -111.05 -97.05 -109.9 -96.75 -109.55 -96.3 -109.15 -95.6 -107.7 -94.9 -106.9 -94.85 -106.75 -94.4 -106.75 -94.05 -106.55 -92.9 -106.25 -92.85 -106.15 -90.65 -107.0 -90.45 -107.4 -90.05 -108.05 -89.7 -108.3 -89.65 -108.4 -87.95 -108.1 -87.65 -107.9 -87.95 -107.6 -89.3 -107.15 -89.55 -106.75 -89.95 -106.05 -90.3 -105.6 -90.7 -105.45 -92.15 -105.1 -92.35 -104.9 -92.5 -104.85 -92.5 -104.75 Q-92.5 -103.7 -93.05 -102.85 L-93.1 -102.8 -93.15 -102.35 Q-93.15 -101.75 -92.55 -101.25 L-92.4 -101.25 -92.25 -101.0 -92.15 -100.85 -92.15 -100.8 -92.15 -100.6 -92.15 -100.5 -91.45 -100.15 -91.15 -99.85 Q-90.95 -99.0 -90.15 -98.25 L-89.65 -97.6 -88.9 -97.25 -88.75 -97.0 -88.55 -96.85 Q-88.1 -96.4 -88.1 -95.75 L-88.3 -93.9 -87.8 -93.25 -86.4 -91.75 -86.05 -91.0 -85.85 -90.45 -85.65 -90.35 -84.85 -89.3 -84.55 -88.85 -84.3 -88.5 -84.2 -88.1 -84.15 -87.75 -84.15 -87.35 -84.1 -87.05 -83.75 -86.2 -83.65 -85.85 -83.65 -85.6 -83.65 -85.55 Q-83.3 -85.35 -82.9 -85.25 L-82.55 -84.85 -81.8 -84.1 -81.65 -83.75 -81.55 -83.35 -81.25 -83.05 -80.8 -82.6 -80.7 -81.85 -80.65 -81.1 -80.65 -80.75 -80.15 -79.65 -79.8 -78.85 -79.65 -78.1 Q-79.9 -77.8 -80.15 -77.8 L-80.6 -78.15 -80.65 -78.5 -80.95 -78.85 -81.65 -79.6 -81.65 -80.35 -81.65 -81.1 -81.65 -81.5 -81.85 -81.8 -82.65 -82.6 -82.7 -83.0 -82.8 -83.35 -83.7 -84.05 -84.4 -84.5 -84.6 -84.9 -84.65 -85.6 -84.9 -86.0 -85.15 -86.35 -85.15 -86.75 -85.15 -87.1 -85.15 -87.5 -85.35 -87.8 -86.15 -88.6 -86.25 -88.95 -86.65 -89.6 -89.7 -90.8 Q-90.7 -91.25 -90.65 -92.15 L-90.85 -92.2 Q-90.55 -91.4 -90.6 -90.5 L-90.65 -89.0 -91.2 -88.4 -91.65 -88.1 -91.1 -86.25 -90.65 -85.1 -90.65 -84.75 -90.65 -84.35 -90.05 -82.85 -89.65 -82.1 -89.65 -81.35 -89.65 -80.6 -89.85 -80.25 -90.3 -79.5 -90.15 -77.25 -90.15 -75.75 Q-89.8 -75.25 -89.75 -74.6 L-89.65 -73.5 -89.85 -73.15 -90.3 -72.5 -91.1 -72.05 -91.65 -71.5 -92.05 -72.15 -92.15 -72.85 -91.15 -73.6 -90.65 -74.0 -90.75 -74.35 -91.15 -75.1 -91.15 -77.0 -91.15 -78.5 -91.3 -78.85 -91.65 -79.6 -91.25 -80.35 -90.65 -81.1 Q-90.8 -81.95 -91.2 -82.6 L-91.65 -83.35 -91.65 -83.75 -91.65 -84.1 -91.65 -84.5 -91.85 -84.85 -92.15 -85.25 -92.15 -85.6 -92.15 -86.0 -92.15 -86.35 -92.35 -86.7 -92.65 -87.1 -92.65 -87.85 -92.65 -89.0 -92.5 -89.2 -91.65 -89.6 -91.65 -90.35 -91.65 -91.1 -92.2 -91.85 -92.65 -92.25 -92.65 -92.6 -92.65 -93.0 -92.65 -93.35 -92.85 -93.7 -93.15 -94.1 -93.15 -94.5 -93.15 -94.85 -93.35 -95.2 -93.65 -95.6 -93.65 -97.5 -93.65 -99.0 -94.9 -99.5 Q-95.35 -100.7 -95.25 -102.15 L-95.15 -104.0 -95.35 -104.35 -95.65 -104.75 -95.65 -105.1 -95.65 -105.25 -96.15 -105.75 -96.5 -106.45 Q-96.75 -106.8 -96.5 -107.1 L-97.05 -107.85 -97.4 -108.5 -97.8 -108.9 -98.15 -109.25 -98.15 -109.65 -98.15 -110.0 -98.4 -110.4 -98.65 -110.75 -98.65 -111.15 -98.65 -111.5 -98.9 -111.9 -99.15 -112.25 -99.15 -112.65 -99.15 -113.0 -99.35 -113.35 -99.65 -113.75 -99.65 -114.15 -99.65 -114.5 Q-100.25 -115.15 -100.05 -116.0 -100.0 -116.4 -99.4 -116.25 L-99.05 -115.85 -98.8 -115.5 M-93.65 -105.1 L-94.0 -105.2 -93.8 -105.0 -93.7 -104.6 -93.65 -104.25 -93.65 -104.35 -93.65 -105.1 M-94.15 -100.6 L-93.25 -100.35 -93.3 -100.45 -93.8 -100.85 -93.9 -101.1 -94.15 -101.0 -94.15 -100.6 M-89.5 -95.4 L-89.1 -94.9 -89.15 -95.55 -89.25 -95.6 -89.5 -95.4 M-89.85 -92.9 L-89.8 -92.75 -89.45 -92.65 -89.25 -92.45 -89.3 -92.6 -89.5 -92.85 -89.65 -92.9 -89.85 -92.9 M-87.8 -91.35 L-88.5 -91.45 -87.5 -90.95 -87.8 -91.35 M-92.55 -98.45 L-92.55 -98.5 -92.55 -98.3 -92.45 -98.3 -92.55 -98.45 M-92.4 -96.75 L-92.6 -96.95 -92.65 -96.1 -92.4 -95.75 -92.35 -95.65 -92.25 -96.1 -92.4 -96.75 M-91.65 -93.1 L-91.4 -92.8 -91.2 -92.6 -91.25 -92.7 -91.65 -93.2 -91.65 -93.1" fill="#000000" fill-rule="evenodd" stroke="none"/>
  </g>
  <defs>
    <linearGradient gradientTransform="matrix(5.0E-4, 0.0, 0.0, 4.0E-4, 10.75, -123.0)" gradientUnits="userSpaceOnUse" id="gradient0" spreadMethod="pad" x1="-819.2" x2="819.2">
      <stop offset="0.0" stop-color="#ffffff"/>
      <stop offset="1.0" stop-color="#000000"/>
    </linearGradient>
    <linearGradient gradientTransform="matrix(2.0E-4, 0.0, 0.0, 0.0084, 131.85, 39.8)" gradientUnits="userSpaceOnUse" id="gradient1" spreadMethod="pad" x1="-819.2" x2="819.2">
      <stop offset="0.0" stop-color="#ffffff"/>
      <stop offset="1.0" stop-color="#000000"/>
    </linearGradient>
    <linearGradient gradientTransform="matrix(0.0012, 0.0, 0.0, 0.001, 129.85, 127.4)" gradientUnits="userSpaceOnUse" id="gradient2" spreadMethod="pad" x1="-819.2" x2="819.2">
      <stop offset="0.0" stop-color="#ffffff"/>
      <stop offset="1.0" stop-color="#000000"/>
    </linearGradient>
    <linearGradient gradientTransform="matrix(0.0119, 0.0, 0.0, 3.0E-4, 114.3, 127.95)" gradientUnits="userSpaceOnUse" id="gradient3" spreadMethod="pad" x1="-819.2" x2="819.2">
      <stop offset="0.0" stop-color="#ffffff"/>
      <stop offset="1.0" stop-color="#000000"/>
    </linearGradient>
    <linearGradient gradientTransform="matrix(1.0E-4, 0.0, 0.0, 0.006, -124.6, 34.35)" gradientUnits="userSpaceOnUse" id="gradient4" spreadMethod="pad" x1="-819.2" x2="819.2">
      <stop offset="0.0" stop-color="#ffffff"/>
      <stop offset="1.0" stop-color="#000000"/>
    </linearGradient>
    <linearGradient gradientTransform="matrix(1.0E-4, 0.0, 0.0, 0.0114, -124.6, 77.75)" gradientUnits="userSpaceOnUse" id="gradient5" spreadMethod="pad" x1="-819.2" x2="819.2">
      <stop offset="0.0" stop-color="#ffffff"/>
      <stop offset="1.0" stop-color="#000000"/>
    </linearGradient>
    <linearGradient gradientTransform="matrix(0.0847, 0.1299, -0.1286, 0.0838, 3.2, 2.25)" gradientUnits="userSpaceOnUse" id="gradient6" spreadMethod="pad" x1="-819.2" x2="819.2">
      <stop offset="0.0" stop-color="#888888" stop-opacity="0.15294118"/>
      <stop offset="1.0" stop-color="#000000" stop-opacity="0.2627451"/>
    </linearGradient>
  </defs>
</svg>
