<?xml version="1.0" encoding="UTF-8" standalone="no"?>
<svg xmlns:ffdec="https://www.free-decompiler.com/flash" xmlns:xlink="http://www.w3.org/1999/xlink" ffdec:objectType="shape" height="307.3px" width="305.3px" xmlns="http://www.w3.org/2000/svg">
  <g transform="matrix(1.0, 0.0, 0.0, 1.0, 147.55, 154.3)">
    <path d="M151.7 -145.7 Q151.4 -144.5 151.4 -143.25 L150.9 -134.45 Q150.4 -129.05 150.4 -126.15 150.4 -124.75 151.2 -123.35 L151.65 -122.7 Q150.0 -122.35 148.0 -120.95 L147.85 -120.85 Q139.65 -122.55 130.85 -123.0 L129.65 -124.1 130.2 -125.15 Q139.8 -129.0 139.35 -137.0 148.35 -139.8 149.15 -146.15 L149.25 -146.15 151.7 -145.7 M156.5 -59.75 L156.6 -56.95 150.5 -57.05 Q153.6 -58.2 156.5 -59.75 M157.05 -42.1 L157.2 -37.85 131.1 -39.05 131.3 -41.25 157.05 -42.1 M157.55 -19.95 L157.75 4.7 156.05 4.8 155.7 4.8 152.55 5.0 Q154.45 2.7 154.35 -0.2 154.35 -1.55 153.85 -2.8 153.25 -4.25 152.0 -5.5 L151.45 -5.9 Q150.05 -6.9 148.4 -7.45 L147.9 -8.35 Q153.05 -12.4 151.75 -19.25 L151.55 -20.1 157.55 -19.95 M154.15 47.55 L153.95 51.4 Q147.7 46.65 145.85 51.2 L145.6 51.25 Q144.95 51.65 144.45 52.15 L144.7 52.15 145.45 52.35 Q145.1 53.7 145.05 55.7 144.9 60.75 145.95 70.45 L133.0 70.55 133.15 65.5 134.1 45.25 145.55 44.5 148.85 44.2 148.85 47.6 154.15 47.55 M153.55 125.45 L154.05 135.45 139.4 137.05 Q124.35 134.8 109.4 131.7 L109.4 131.75 107.3 131.95 105.7 132.15 Q103.35 132.8 101.6 134.1 100.05 135.25 99.15 136.55 L98.85 137.55 86.5 136.25 Q82.25 136.1 78.55 136.3 64.45 132.1 49.75 129.35 L49.3 129.25 44.9 128.45 53.35 128.05 59.85 127.5 127.9 127.5 Q130.45 127.4 131.85 125.5 L151.6 124.85 Q152.25 125.5 152.9 125.5 L153.55 125.45 M-147.55 125.95 L-147.55 124.5 -147.5 118.2 -133.55 118.2 -133.5 120.0 -133.0 123.9 -147.55 125.95 M-146.95 88.1 L-146.75 82.05 Q-146.25 69.5 -146.1 58.9 L-132.95 59.95 Q-132.8 63.7 -131.25 73.8 L-131.2 74.0 -131.25 74.5 Q-131.2 79.05 -130.05 81.45 L-129.5 85.25 -130.0 88.7 -130.2 90.05 -145.15 90.15 Q-145.85 89.05 -146.95 88.1 M-146.05 42.7 L-146.35 27.45 -144.4 27.35 -138.5 26.95 -134.9 26.7 -128.1 26.2 -127.9 28.55 -127.1 28.75 -125.25 29.7 -124.2 30.15 -121.95 31.05 -122.0 34.8 -122.8 34.75 -122.85 34.5 Q-124.15 32.55 -125.5 31.85 -127.25 29.95 -129.3 31.3 -132.0 33.1 -132.0 35.75 L-131.5 39.45 -131.05 42.55 -143.7 42.7 -146.05 42.7 M-146.4 17.95 L-146.4 13.7 -146.65 13.25 Q-146.0 6.15 -145.65 -1.0 L-143.65 -1.0 -143.8 -1.55 Q-141.4 -1.75 -140.0 -2.6 -139.05 -1.75 -137.5 -1.75 -135.55 -1.75 -134.5 -3.25 -133.85 -4.2 -133.75 -5.15 L-122.25 -5.35 -122.2 0.3 -123.4 0.4 -124.85 0.5 -138.85 1.45 -143.25 1.75 Q-143.15 3.5 -143.4 5.5 -144.2 10.9 -144.4 16.3 L-137.15 16.05 Q-138.55 17.6 -139.25 19.7 L-139.8 22.15 -144.55 22.15 -144.45 18.15 -146.4 17.95 M-145.5 -36.1 L-146.0 -45.7 -146.35 -48.75 -134.8 -49.05 Q-127.6 -49.3 -123.2 -50.9 L-123.0 -42.35 -122.9 -38.55 -127.9 -38.3 Q-136.5 -36.8 -145.5 -36.1 M-145.75 -82.4 L-145.75 -90.65 Q-141.6 -91.2 -136.85 -93.45 L-127.1 -93.3 Q-126.05 -90.0 -124.0 -90.0 L-123.85 -90.0 -123.8 -85.35 Q-127.15 -84.05 -130.25 -82.4 L-145.75 -82.4 M-146.8 -112.55 L-146.9 -112.7 -146.9 -112.9 -146.5 -115.55 -146.45 -116.15 -128.2 -113.7 -128.1 -110.95 -129.95 -111.4 Q-138.4 -112.95 -146.8 -112.55 M45.85 -129.75 L44.35 -129.6 42.2 -130.2 45.85 -129.75 M-115.15 127.3 L-111.65 128.1 -114.6 128.1 -115.15 127.3 M-94.15 127.9 L-85.1 126.55 -79.8 125.8 -75.3 126.2 -70.1 126.5 -70.1 127.6 -94.15 127.9 M133.6 108.75 L133.75 102.5 133.3 89.75 146.25 89.85 145.9 106.0 146.35 108.1 133.6 108.75 M-87.0 -124.85 L-87.55 -125.0 -86.95 -125.0 -87.0 -124.85" fill="#82641b" fill-rule="evenodd" stroke="none"/>
    <path d="M23.0 149.15 L6.9 149.0 Q-10.9 148.75 -18.45 149.1 L-24.5 148.85 -36.4 148.35 -48.9 147.95 Q-74.4 148.9 -99.9 148.5 L-102.3 147.15 Q-104.0 146.45 -105.55 146.1 L-105.0 144.05 Q-89.45 131.2 -70.1 134.2 L-70.1 129.25 -65.15 129.05 Q-64.65 128.2 -63.95 127.5 L-63.1 126.7 -44.6 127.05 -44.25 127.15 -41.15 127.9 -35.1 127.6 -34.1 127.55 -29.55 127.35 -27.05 127.25 -25.2 127.25 -25.2 132.05 -26.0 132.8 -28.15 135.3 Q-30.2 134.15 -33.0 134.1 L-35.9 133.95 -51.35 133.5 -67.95 134.6 -70.1 134.8 -70.1 146.75 -67.0 146.8 -68.15 147.5 -50.4 147.9 -52.05 147.3 -44.0 147.75 -43.3 147.8 -32.15 147.8 -29.1 147.8 -28.85 147.55 -28.75 147.55 -27.5 147.05 -27.05 146.9 -26.15 146.5 -25.2 146.2 -25.2 144.6 -25.2 142.9 Q-21.8 143.2 -17.75 142.2 L-1.1 145.0 27.8 149.1 23.0 149.15 M-147.5 116.9 L-147.5 116.25 Q-147.5 103.6 -146.95 88.1 -145.85 89.05 -145.15 90.15 L-130.2 90.05 -130.5 92.1 -130.15 94.4 -129.95 94.8 -130.05 94.95 Q-132.7 96.1 -134.4 98.5 -136.75 101.85 -135.1 105.35 L-133.9 107.55 -133.6 116.85 -147.5 116.9 M-145.65 -1.0 L-145.55 -1.5 -145.25 -1.5 -143.8 -1.55 -143.65 -1.0 -145.65 -1.0 M-145.05 -13.9 L-145.2 -14.0 -145.2 -17.45 -145.05 -18.1 -145.05 -13.9 M-64.95 -152.3 L-64.95 -152.4 Q-63.15 -153.6 -61.45 -154.3 L-58.65 -153.95 -50.7 -153.35 -50.05 -153.05 -49.6 -153.3 Q-35.25 -152.55 -20.55 -153.7 L-20.05 -153.6 -20.05 -148.5 -20.05 -148.35 -20.05 -146.05 -35.9 -144.3 -36.0 -144.25 -50.15 -142.75 -57.7 -141.95 -20.05 -141.8 -20.05 -133.2 -14.5 -133.2 -20.05 -133.0 -20.05 -132.7 -39.55 -131.85 -42.8 -132.65 -45.4 -133.3 Q-54.85 -135.45 -64.95 -136.65 L-64.95 -143.9 Q-64.0 -144.4 -63.35 -145.0 -62.0 -146.3 -62.0 -148.9 -62.0 -151.25 -63.8 -151.95 L-64.95 -152.3 M-22.15 -124.25 L-34.3 -124.25 Q-51.45 -124.75 -65.15 -124.75 -65.0 -125.25 -65.0 -125.85 L-56.65 -125.85 -56.65 -126.75 -42.9 -127.4 -22.25 -124.35 -22.15 -124.25 M-123.8 -85.35 L-123.75 -80.05 -131.75 -80.6 -131.3 -81.95 -130.25 -82.4 Q-127.15 -84.05 -123.8 -85.35 M-123.45 -63.9 L-123.2 -52.2 -131.05 -53.55 Q-145.75 -56.1 -142.6 -65.4 L-123.45 -63.9 M-122.05 11.7 L-121.95 28.6 -121.95 30.05 -124.2 29.5 -127.1 28.75 -127.9 28.55 -128.1 26.2 -128.3 22.15 -139.8 22.15 -139.25 19.7 Q-138.55 17.6 -137.15 16.05 -133.35 12.15 -125.2 11.25 L-124.05 11.35 -123.7 11.4 -122.05 11.7 M-122.0 34.8 L-122.05 36.65 -122.65 36.65 -122.8 34.75 -122.0 34.8" fill="#89681d" fill-rule="evenodd" stroke="none"/>
    <path d="M49.8 -150.1 Q50.65 -151.5 53.8 -152.5 57.75 -153.75 63.4 -153.9 69.1 -154.0 73.05 -152.9 74.95 -152.35 76.05 -151.6 L78.6 -152.2 93.4 -153.45 108.2 -152.4 Q111.4 -151.8 113.1 -150.95 L115.1 -151.7 Q118.95 -152.85 124.4 -152.95 129.9 -153.0 133.7 -151.85 137.9 -150.6 137.9 -148.35 L137.9 -147.9 Q137.75 -146.25 136.8 -145.75 135.35 -145.05 131.45 -144.7 133.8 -144.4 135.8 -143.25 L138.3 -141.75 Q139.1 -139.3 139.35 -137.0 139.8 -129.0 130.2 -125.15 L128.75 -124.6 127.65 -125.0 127.0 -125.1 126.7 -125.4 Q120.05 -125.0 105.65 -125.0 86.0 -125.0 81.55 -126.85 80.5 -127.25 80.35 -127.75 L79.9 -127.75 79.75 -125.8 Q79.4 -124.95 77.8 -124.45 L59.15 -123.5 54.9 -123.7 51.75 -124.3 32.85 -124.25 32.7 -123.05 Q32.1 -119.3 29.55 -116.5 23.65 -110.0 8.65 -110.0 -2.7 -110.0 -13.75 -117.1 -17.7 -119.65 -20.5 -122.45 L-22.15 -124.25 -22.25 -124.35 -42.9 -127.4 -56.65 -126.75 -65.0 -126.25 -65.0 -125.85 Q-65.0 -125.25 -65.15 -124.75 -65.45 -123.95 -66.1 -123.25 L-76.0 -124.05 Q-82.25 -123.95 -86.8 -122.85 -87.3 -123.6 -87.1 -124.4 -104.95 -123.7 -113.2 -121.7 L-114.3 -122.6 Q-118.25 -125.5 -121.0 -123.35 L-121.0 -123.3 Q-120.45 -122.5 -120.05 -121.2 -122.45 -120.8 -122.5 -113.85 L-123.5 -97.9 Q-123.65 -93.95 -123.0 -90.2 L-123.85 -90.0 -124.0 -90.0 Q-126.05 -90.0 -127.1 -93.3 -127.75 -95.35 -128.0 -98.6 -128.3 -102.9 -128.0 -107.4 L-128.1 -110.95 -128.2 -113.7 -146.45 -116.15 Q-146.3 -119.7 -147.0 -125.0 -146.85 -127.0 -145.35 -133.8 -144.0 -140.0 -144.0 -142.6 L-144.0 -144.5 -128.8 -144.5 Q-129.1 -145.35 -129.0 -146.3 -129.0 -147.85 -128.5 -148.3 -127.55 -149.15 -123.55 -149.75 L-79.85 -152.75 -64.95 -152.3 -63.8 -151.95 Q-62.0 -151.25 -62.0 -148.9 -62.0 -146.3 -63.35 -145.0 -64.0 -144.4 -64.95 -143.9 L-64.95 -136.65 Q-54.85 -135.45 -45.4 -133.3 L-42.8 -132.65 -39.55 -131.85 -32.2 -129.7 -31.9 -129.05 -64.95 -129.0 -64.95 -127.8 -22.85 -127.85 Q-22.3 -131.75 -19.0 -130.0 L-15.7 -127.85 -5.9 -127.85 -0.75 -129.0 3.65 -128.3 5.05 -127.9 7.8 -127.9 21.4 -127.85 21.45 -127.9 Q26.45 -130.0 27.9 -130.0 31.0 -130.0 32.25 -128.2 L44.35 -129.6 45.85 -129.75 48.8 -130.05 Q49.35 -131.2 50.55 -131.5 L64.15 -132.0 65.25 -132.0 70.95 -132.7 Q100.0 -136.3 125.9 -144.35 L127.15 -144.5 124.4 -144.5 Q115.5 -144.5 112.4 -145.9 L93.4 -145.0 Q80.3 -145.0 75.0 -146.15 69.95 -145.0 53.4 -145.0 51.1 -145.0 50.05 -146.9 49.5 -147.85 49.4 -148.9 49.4 -149.55 49.8 -150.1 M151.65 -122.7 Q152.95 -121.0 155.4 -121.0 L155.85 -121.0 Q156.6 -119.4 156.85 -115.0 L156.9 -110.05 157.1 -106.6 156.95 -103.5 Q156.3 -97.5 152.9 -97.5 148.8 -97.5 148.4 -101.7 148.2 -103.85 148.9 -106.85 149.3 -110.1 146.45 -111.5 L145.2 -112.25 Q143.4 -113.55 143.4 -115.4 143.4 -117.7 147.85 -120.85 L148.0 -120.95 Q150.0 -122.35 151.65 -122.7 M155.25 -85.55 L156.5 -59.75 Q153.6 -58.2 150.5 -57.05 144.85 -54.9 138.4 -53.75 L132.5 -52.8 132.65 -54.0 Q130.45 -55.95 129.9 -65.3 129.6 -71.25 129.9 -77.3 L129.9 -88.85 130.3 -91.1 Q130.45 -93.3 130.2 -96.45 130.8 -99.25 132.75 -101.45 L134.9 -103.4 Q136.95 -104.95 138.35 -104.3 139.9 -103.6 139.9 -100.35 139.9 -99.1 138.9 -95.6 L138.65 -94.55 Q137.9 -91.6 137.9 -88.35 L137.9 -76.75 138.35 -71.55 Q143.35 -73.1 148.15 -75.0 L147.7 -76.55 Q147.45 -77.7 147.7 -78.8 L148.15 -81.2 149.7 -82.65 Q151.2 -84.2 153.35 -85.0 L154.7 -85.55 155.25 -85.55 M153.95 51.4 L154.4 51.75 154.4 76.95 154.05 77.2 Q152.4 78.6 152.4 81.0 L153.15 83.55 154.45 85.05 Q154.55 90.25 155.65 99.35 156.9 109.85 156.9 114.85 L156.95 120.75 Q156.35 125.05 153.55 125.45 L152.9 125.5 Q152.25 125.5 151.6 124.85 150.3 123.5 149.05 119.55 L148.85 119.0 147.95 115.75 146.35 108.1 145.9 106.0 146.25 89.85 146.4 74.5 146.0 71.05 145.95 70.45 Q144.9 60.75 145.05 55.7 145.1 53.7 145.45 52.35 L144.7 52.15 144.45 52.15 Q144.95 51.65 145.6 51.25 L145.85 51.2 Q147.7 46.65 153.95 51.4 M154.05 135.45 L154.1 137.1 Q154.4 142.15 152.05 146.55 L151.35 147.95 151.05 148.15 142.85 147.95 Q142.05 148.45 140.65 148.8 135.75 150.1 121.0 150.4 120.6 148.6 119.85 147.3 118.45 144.9 116.4 144.95 114.35 144.95 112.95 147.35 112.15 148.7 111.8 150.5 L111.4 150.5 Q107.5 150.5 105.9 149.0 L101.95 150.0 Q90.3 152.75 73.15 153.0 70.3 151.55 65.25 150.9 L51.3 149.75 23.0 149.15 27.8 149.1 -1.1 145.0 -17.75 142.2 Q-21.8 143.2 -25.2 142.9 L-25.2 144.6 Q-26.4 146.1 -29.15 147.05 L-32.15 147.8 -43.3 147.8 -44.0 147.75 -52.05 147.3 -67.0 146.8 -70.1 146.75 -70.1 134.8 -67.95 134.6 -51.35 133.5 -35.9 133.95 -33.0 134.1 Q-30.2 134.15 -28.15 135.3 -27.15 135.85 -26.35 136.55 L-26.1 136.9 -25.2 138.4 -25.2 132.05 -25.2 127.25 -7.4 127.4 7.85 129.85 12.45 130.55 42.3 134.3 49.75 135.05 72.35 136.95 78.55 136.3 Q82.25 136.1 86.5 136.25 L98.85 137.55 102.75 138.4 139.4 137.05 154.05 135.45 M-18.45 149.1 L-20.75 149.25 Q-26.85 149.7 -28.1 150.95 L-28.2 151.15 -60.8 150.7 -118.1 149.65 -118.0 149.55 Q-112.8 144.25 -105.55 146.1 -104.0 146.45 -102.3 147.15 L-99.9 148.5 Q-74.4 148.9 -48.9 147.95 L-36.4 148.35 -24.5 148.85 -18.45 149.1 M-146.35 27.45 L-146.5 24.0 -146.6 22.15 -146.45 22.15 -144.55 22.15 -139.8 22.15 -128.3 22.15 -128.1 26.2 -134.9 26.7 -138.5 26.95 -144.4 27.35 -146.35 27.45 M-145.75 -65.65 L-145.75 -79.3 -145.75 -81.6 -131.75 -80.6 -123.75 -80.05 -123.45 -63.9 -142.6 -65.4 -145.75 -65.65 M-122.65 36.65 Q-122.5 38.9 -122.5 42.3 L-122.5 57.85 -122.55 71.25 -122.8 74.95 Q-121.5 82.5 -121.5 85.25 -121.5 90.1 -121.75 91.5 -122.4 94.65 -124.1 95.85 L-124.0 98.05 Q-124.0 102.2 -123.25 108.5 -122.5 114.8 -122.5 117.9 -122.5 121.15 -123.3 125.9 L-123.5 127.0 Q-124.95 135.0 -127.5 135.0 -131.4 135.0 -133.0 123.9 L-133.5 120.0 -133.55 118.2 -133.6 116.85 -133.9 107.55 -135.1 105.35 Q-136.75 101.85 -134.4 98.5 -132.7 96.1 -130.05 94.95 L-129.95 94.8 -130.15 94.4 -130.5 92.1 -130.2 90.05 -130.0 88.7 -129.5 85.25 -130.05 81.45 Q-131.2 79.05 -131.25 74.5 L-131.2 74.0 -131.25 73.8 Q-132.8 63.7 -132.95 59.95 L-133.0 59.0 Q-133.0 54.95 -132.0 50.85 -131.0 46.8 -131.0 43.15 L-131.05 42.55 -131.5 39.45 -132.0 35.75 Q-132.0 33.1 -129.3 31.3 -127.25 29.95 -125.5 31.85 -124.15 32.55 -122.85 34.5 L-122.8 34.75 -122.65 36.65 M134.3 36.6 L134.3 34.5 134.35 33.45 Q134.7 34.95 134.3 36.6 M-20.05 -146.05 L-20.05 -145.9 Q-24.9 -144.3 -33.1 -144.3 L-35.9 -144.3 -20.05 -146.05 M-138.2 -137.85 Q-140.3 -136.85 -142.15 -136.2 -142.9 -134.35 -144.75 -132.65 L-142.9 -132.45 Q-142.95 -134.0 -142.35 -135.6 L-137.15 -137.85 -138.2 -137.85 M-87.0 -124.85 L-86.95 -125.0 -87.55 -125.0 -87.0 -124.85" fill="#83641d" fill-rule="evenodd" stroke="none"/>
    <path d="M157.2 -94.1 L156.75 -90.25 156.4 -89.7 155.85 -89.6 155.25 -89.45 155.05 -89.45 155.25 -85.55 154.7 -85.55 153.35 -85.0 Q151.2 -84.2 149.7 -82.65 L148.15 -81.2 147.7 -78.8 Q147.45 -77.7 147.7 -76.55 L148.15 -75.0 Q143.35 -73.1 138.35 -71.55 L137.9 -76.75 137.9 -88.35 Q137.9 -91.6 138.65 -94.55 L154.7 -94.15 157.2 -94.1 M157.65 22.65 L157.5 36.65 154.7 36.65 154.15 47.55 148.85 47.6 148.85 44.2 148.85 26.3 134.35 27.85 134.4 22.15 148.85 22.15 148.85 22.45 155.4 22.6 157.65 22.65 M-118.1 149.65 L-126.15 149.55 -129.25 148.45 Q-135.45 146.55 -139.4 147.15 -140.95 147.4 -141.95 148.0 -147.35 142.9 -147.5 137.25 L-147.55 125.95 -133.0 123.9 Q-131.4 135.0 -127.5 135.0 -124.95 135.0 -123.5 127.0 L-123.3 125.9 -122.1 125.95 -119.25 125.75 -115.15 127.3 -114.6 128.1 -111.65 128.1 Q-106.1 129.0 -98.85 128.4 L-94.15 127.9 -70.1 127.6 -70.1 126.5 -63.1 126.7 -63.95 127.5 Q-64.65 128.2 -65.15 129.05 L-70.1 129.25 -70.1 134.2 Q-89.45 131.2 -105.0 144.05 L-105.55 146.1 Q-112.8 144.25 -118.0 149.55 L-118.1 149.65 M-147.5 118.2 L-147.5 116.9 -133.6 116.85 -133.55 118.2 -147.5 118.2 M-146.1 58.9 L-146.0 48.3 -146.05 42.7 -143.7 42.7 -131.05 42.55 -131.0 43.15 Q-131.0 46.8 -132.0 50.85 -133.0 54.95 -133.0 59.0 L-132.95 59.95 -146.1 58.9 M-146.45 22.15 L-146.4 17.95 -144.45 18.15 -144.55 22.15 -146.45 22.15 M-133.75 -5.15 L-133.75 -5.5 Q-133.75 -9.3 -137.5 -9.3 L-139.15 -9.05 Q-140.1 -9.95 -141.75 -10.65 L-145.1 -11.7 -145.05 -13.9 -145.05 -18.1 Q-145.1 -27.1 -145.5 -36.1 -136.5 -36.8 -127.9 -38.3 L-122.9 -38.55 -122.75 -31.45 Q-125.15 -30.1 -127.2 -28.2 L-127.65 -26.65 Q-128.5 -21.35 -124.15 -19.25 L-122.95 -18.75 -122.5 -18.6 -122.25 -5.35 -133.75 -5.15 M-146.35 -48.75 L-147.2 -52.1 -146.9 -52.5 -146.65 -53.0 -146.45 -53.55 -146.2 -54.0 -146.0 -54.55 -145.75 -55.0 -145.75 -64.65 -145.75 -65.65 -142.6 -65.4 Q-145.75 -56.1 -131.05 -53.55 L-123.2 -52.2 -123.2 -50.9 Q-127.6 -49.3 -134.8 -49.05 L-146.35 -48.75 M-145.75 -81.6 L-145.75 -82.4 -130.25 -82.4 -131.3 -81.95 -131.75 -80.6 -145.75 -81.6 M-145.75 -90.65 L-145.75 -94.0 -145.75 -105.6 -146.0 -106.15 -146.2 -106.65 -146.45 -107.15 -146.65 -107.65 -146.65 -108.2 -146.65 -109.2 -146.65 -109.65 -146.65 -110.2 -146.65 -110.7 -146.65 -111.2 -146.65 -111.7 -146.65 -112.25 -146.8 -112.55 Q-138.4 -112.95 -129.95 -111.4 L-128.1 -110.95 -128.0 -107.4 Q-128.3 -102.9 -128.0 -98.6 -127.75 -95.35 -127.1 -93.3 L-136.85 -93.45 Q-141.6 -91.2 -145.75 -90.65 M-20.05 -148.5 L-19.7 -148.7 Q-16.55 -149.95 -12.6 -149.35 L-11.7 -149.35 -5.25 -149.85 25.5 -149.9 Q25.6 -148.85 26.15 -147.75 26.65 -147.0 27.5 -146.4 L27.9 -146.2 24.0 -146.45 -20.05 -148.35 -20.05 -148.5 M-122.2 0.3 L-122.05 11.7 -123.7 11.4 -124.05 11.35 -125.2 11.25 Q-133.35 12.15 -137.15 16.05 L-144.4 16.3 Q-144.2 10.9 -143.4 5.5 -143.15 3.5 -143.25 1.75 L-138.85 1.45 -124.85 0.5 -123.4 0.4 -122.2 0.3 M-121.95 30.05 L-121.95 31.05 -124.2 30.15 -125.25 29.7 -127.1 28.75 -124.2 29.5 -121.95 30.05 M-44.6 127.05 L-27.05 127.25 -29.55 127.35 -34.1 127.55 -35.1 127.6 -41.15 127.9 -44.25 127.15 -44.6 127.05 M131.85 125.5 L132.0 125.2 Q132.9 123.75 132.9 122.25 132.9 120.9 132.2 119.5 133.25 115.4 133.6 108.75 L146.35 108.1 147.95 115.75 148.85 119.0 148.85 119.55 149.05 119.55 Q150.3 123.5 151.6 124.85 L131.85 125.5 M133.0 71.0 L133.0 70.55 145.95 70.45 146.0 71.05 Q139.6 70.8 133.0 71.0 M132.85 -112.95 L132.9 -115.25 Q132.9 -120.5 130.85 -123.0 139.65 -122.55 147.85 -120.85 143.4 -117.7 143.4 -115.4 143.4 -113.55 145.2 -112.25 L132.85 -112.95 M-20.05 -145.9 L-20.05 -141.8 -57.7 -141.95 -50.15 -142.75 -36.0 -144.25 -35.9 -144.3 -33.1 -144.3 Q-24.9 -144.3 -20.05 -145.9 M124.5 22.15 L124.5 25.45 Q124.2 23.35 123.45 22.15 L124.5 22.15 M44.9 128.45 L49.3 129.25 49.75 129.35 Q64.45 132.1 78.55 136.3 L72.35 136.95 49.75 135.05 42.3 134.3 12.45 130.55 21.7 129.85 44.9 128.45 M98.85 137.55 L99.15 136.55 Q100.05 135.25 101.6 134.1 103.35 132.8 105.7 132.15 L107.3 131.95 109.4 131.75 109.4 131.7 Q124.35 134.8 139.4 137.05 L102.75 138.4 98.85 137.55 M-56.65 -126.75 L-56.65 -125.85 -65.0 -125.85 -65.0 -126.25 -56.65 -126.75 M-138.2 -137.85 L-137.15 -137.85 -142.35 -135.6 Q-142.95 -134.0 -142.9 -132.45 L-144.75 -132.65 Q-142.9 -134.35 -142.15 -136.2 -140.3 -136.85 -138.2 -137.85" fill="#8b6a1d" fill-rule="evenodd" stroke="none"/>
    <path d="M137.9 -147.9 L152.55 -147.9 151.7 -145.7 149.25 -146.15 149.15 -146.15 Q148.35 -139.8 139.35 -137.0 139.1 -139.3 138.3 -141.75 L135.8 -143.25 Q133.8 -144.4 131.45 -144.7 135.35 -145.05 136.8 -145.75 137.75 -146.25 137.9 -147.9 M157.1 -106.6 L157.3 -105.35 Q157.65 -99.65 157.2 -94.1 L154.7 -94.15 138.65 -94.55 138.9 -95.6 Q139.9 -99.1 139.9 -100.35 139.9 -103.6 138.35 -104.3 136.95 -104.95 134.9 -103.4 L132.75 -101.45 131.4 -103.9 130.95 -104.7 Q131.5 -107.1 132.15 -108.8 132.7 -110.2 132.85 -112.95 L145.2 -112.25 146.45 -111.5 Q149.3 -110.1 148.9 -106.85 148.2 -103.85 148.4 -101.7 148.8 -97.5 152.9 -97.5 156.3 -97.5 156.95 -103.5 L157.1 -106.6 M156.6 -56.95 L157.05 -42.1 131.3 -41.25 132.5 -52.8 138.4 -53.75 Q144.85 -54.9 150.5 -57.05 L156.6 -56.95 M157.2 -37.85 L157.55 -19.95 151.55 -20.1 151.75 -19.25 Q153.05 -12.4 147.9 -8.35 L148.4 -7.45 Q150.05 -6.9 151.45 -5.9 L152.0 -5.5 Q153.25 -4.25 153.85 -2.8 154.35 -1.55 154.35 -0.2 154.45 2.7 152.55 5.0 L155.7 4.8 156.05 4.8 157.75 4.7 157.65 22.65 155.4 22.6 148.85 22.45 148.85 22.15 134.4 22.15 134.4 3.75 Q134.4 -0.3 133.7 -4.85 L133.3 -7.1 Q134.25 -7.6 134.9 -8.6 135.9 -10.15 135.9 -12.15 135.9 -16.7 134.25 -19.3 132.85 -21.5 130.8 -21.7 130.35 -30.0 130.65 -33.55 L131.1 -39.05 157.2 -37.85 M25.5 -149.9 L49.8 -150.1 Q49.4 -149.55 49.4 -148.9 49.5 -147.85 50.05 -146.9 51.1 -145.0 53.4 -145.0 69.95 -145.0 75.0 -146.15 80.3 -145.0 93.4 -145.0 L112.4 -145.9 Q115.5 -144.5 124.4 -144.5 L127.15 -144.5 125.9 -144.35 Q100.0 -136.3 70.95 -132.7 L65.25 -132.0 64.15 -132.0 50.55 -131.5 Q49.35 -131.2 48.8 -130.05 L45.85 -129.75 42.2 -130.2 44.35 -129.6 32.25 -128.2 Q31.0 -130.0 27.9 -130.0 26.45 -130.0 21.45 -127.9 L21.4 -127.85 7.8 -127.9 5.05 -127.9 3.65 -128.3 -0.75 -129.0 -5.9 -127.85 -15.7 -127.85 -19.0 -130.0 Q-22.3 -131.75 -22.85 -127.85 L-64.95 -127.8 -64.95 -129.0 -31.9 -129.05 -32.2 -129.7 -39.55 -131.85 -20.05 -132.7 -20.05 -133.0 -14.5 -133.2 -20.05 -133.2 -20.05 -141.8 -20.05 -145.9 -20.05 -146.05 -20.05 -148.35 24.0 -146.45 27.9 -146.2 27.5 -146.4 Q26.65 -147.0 26.15 -147.75 25.6 -148.85 25.5 -149.9 M54.9 -123.7 L54.9 -123.1 32.7 -123.05 32.85 -124.25 51.75 -124.3 54.9 -123.7 M-122.75 -31.45 L-122.5 -18.6 -122.95 -18.75 -124.15 -19.25 Q-128.5 -21.35 -127.65 -26.65 L-127.2 -28.2 Q-125.15 -30.1 -122.75 -31.45 M-7.4 127.4 L28.65 127.5 59.85 127.5 53.35 128.05 44.9 128.45 21.7 129.85 12.45 130.55 7.85 129.85 -7.4 127.4 M133.3 89.75 Q132.9 77.95 133.0 71.0 139.6 70.8 146.0 71.05 L146.4 74.5 146.25 89.85 133.3 89.75 M134.1 45.25 L134.3 36.6 Q134.7 34.95 134.35 33.45 L134.35 27.85 148.85 26.3 148.85 44.2 145.55 44.5 134.1 45.25 M129.65 -124.1 L128.75 -124.6 130.2 -125.15 129.65 -124.1 M-25.2 132.05 L-25.2 138.4 -26.1 136.9 -26.35 136.55 Q-27.15 135.85 -28.15 135.3 L-26.0 132.8 -25.2 132.05 M-67.0 146.8 L-52.05 147.3 -50.4 147.9 -68.15 147.5 -67.0 146.8 M-32.15 147.8 L-29.15 147.05 Q-26.4 146.1 -25.2 144.6 L-25.2 146.2 -26.15 146.5 -27.05 146.9 -27.5 147.05 -28.75 147.55 -28.85 147.55 -29.1 147.8 -32.15 147.8" fill="#87671d" fill-rule="evenodd" stroke="none"/>
    <path d="M-122.0 35.7 L-122.05 36.65 -121.85 35.65 Q-120.65 50.55 -122.55 59.1 -124.5 67.6 -122.75 75.95 -125.4 70.6 -125.55 65.3 L-125.95 53.6 -126.35 46.9 -126.35 42.05 -127.1 36.65 -122.0 35.7" fill="url(#gradient0)" fill-rule="evenodd" stroke="none"/>
    <path d="M148.85 36.65 L154.7 36.65 154.15 47.55 153.1 65.25 153.1 76.75 151.55 76.75 151.0 75.6 151.05 72.3 151.05 71.35 151.0 70.3 150.6 68.8 149.75 68.0 Q149.3 67.75 148.85 67.65 L148.85 67.55 149.3 66.8 Q143.3 66.9 143.25 64.7 L143.4 63.65 143.6 62.7 Q144.6 59.9 149.8 57.9 155.75 55.6 148.8 53.6 L146.35 52.85 146.9 51.0 147.05 50.95 147.05 50.85 147.85 51.0 148.45 50.45 148.85 50.3 148.85 50.0 Q153.85 43.8 148.85 45.15 L148.85 36.65" fill="url(#gradient1)" fill-rule="evenodd" stroke="none"/>
    <path d="M-20.05 -145.3 Q-3.85 -145.65 1.75 -147.25 L6.8 -148.65 7.55 -148.75 17.7 -149.3 18.05 -149.25 21.5 -148.3 Q24.55 -147.35 31.1 -149.25 37.65 -151.2 68.25 -152.75 98.8 -154.3 121.4 -151.8 143.1 -149.4 144.3 -147.9 L154.0 -147.9 154.0 -129.95 150.55 -130.2 Q148.9 -129.7 148.9 -127.9 L150.8 -124.75 Q152.3 -122.8 154.0 -122.05 L154.0 -120.65 Q154.75 -121.5 154.9 -120.9 154.4 -120.25 154.4 -118.35 L154.45 -118.05 154.25 -117.3 Q154.1 -116.8 154.85 -116.95 L156.15 -113.95 156.9 -112.3 154.95 -110.1 Q157.1 -108.05 157.3 -105.35 157.65 -99.65 157.2 -94.1 L156.75 -90.25 156.4 -89.7 155.85 -89.6 155.25 -89.45 155.05 -89.45 155.25 -85.55 156.5 -59.75 156.6 -56.95 157.05 -42.1 157.2 -37.85 157.55 -19.95 157.6 -18.75 156.7 -20.1 Q154.4 -23.0 154.4 -17.6 154.4 -15.35 155.4 -10.0 156.4 -4.65 156.4 -2.25 155.75 3.4 155.8 6.75 155.9 10.4 157.2 11.9 156.2 12.7 155.9 15.5 L155.8 19.2 155.85 22.85 Q155.85 26.1 154.95 36.65 L154.7 36.65 148.85 36.65 148.85 22.15 132.9 22.15 133.4 -22.4 Q133.4 -24.25 131.65 -29.25 L130.6 -32.8 130.65 -33.55 Q132.1 -52.05 131.25 -62.1 130.35 -72.2 131.8 -84.3 133.25 -96.4 131.0 -102.35 L130.9 -102.65 130.8 -111.75 130.55 -112.6 130.9 -119.1 Q130.9 -121.5 129.2 -123.15 L127.75 -124.15 Q126.8 -125.5 125.55 -126.3 L123.4 -127.2 122.3 -127.55 Q122.55 -121.8 58.65 -125.85 L7.8 -127.9 -64.95 -127.85 -64.95 -129.0 -20.05 -129.05 -20.05 -145.3 M150.05 -110.7 Q149.5 -109.55 149.7 -108.35 150.2 -109.05 150.2 -109.9 L150.05 -110.7 M152.7 -119.0 L152.2 -119.0 151.9 -118.9 152.25 -118.4 152.7 -119.0" fill="url(#gradient2)" fill-rule="evenodd" stroke="none"/>
    <path d="M54.9 -124.3 L54.9 -123.15 47.35 -124.3 54.9 -124.3 M34.55 -124.75 Q15.6 -99.55 -12.6 -115.3 L-24.1 -124.75 34.55 -124.75" fill="url(#gradient3)" fill-rule="evenodd" stroke="none"/>
    <path d="M-64.95 -129.0 L-64.95 -127.85 7.8 -127.9 58.65 -125.85 54.9 -124.3 47.35 -124.3 Q39.9 -126.95 34.55 -124.75 L-24.1 -124.75 -113.2 -121.7 -114.3 -122.6 Q-118.25 -125.5 -118.35 -122.8 -118.5 -120.15 -120.55 -104.75 -122.6 -89.35 -122.25 -42.25 -121.95 4.8 -121.95 28.6 L-122.0 35.7 -127.1 36.65 Q-127.9 30.3 -128.3 22.15 L-144.8 86.15 -145.45 76.85 Q-145.35 72.8 -145.95 65.35 L-146.5 55.75 Q-146.0 31.75 -146.0 20.05 L-146.0 4.3 -146.5 0.3 Q-145.7 -0.55 -145.0 -1.65 -144.05 -3.1 -143.45 -4.35 -142.8 -4.4 -142.6 -4.7 -141.25 -4.95 -140.65 -6.4 -140.2 -7.4 -140.4 -7.85 L-142.5 -7.65 -142.5 -8.0 Q-142.5 -9.15 -144.0 -11.45 L-145.5 -14.0 Q-145.5 -18.8 -145.9 -21.15 L-146.4 -27.85 -145.2 -29.6 Q-141.05 -35.6 -141.75 -49.15 L-142.75 -70.0 Q-143.3 -82.2 -143.3 -90.65 -143.3 -91.9 -147.3 -105.05 -145.4 -111.6 -145.75 -112.6 -146.05 -113.55 -145.2 -113.05 -145.8 -120.3 -145.8 -124.55 L-146.05 -131.8 -146.3 -138.8 -146.3 -139.7 Q-145.95 -139.75 -146.0 -139.85 L-146.0 -140.35 -134.05 -141.05 Q-132.3 -140.75 -134.05 -141.35 -135.8 -142.0 -137.35 -142.2 -138.95 -142.4 -128.45 -148.2 L-130.05 -149.7 -128.0 -148.05 -117.05 -139.55 -114.15 -139.6 -134.3 -135.15 -64.95 -129.0" fill="url(#gradient4)" fill-rule="evenodd" stroke="none"/>
    <path d="M-20.05 -145.3 L-20.05 -129.05 -64.95 -129.0 -134.3 -135.15 -114.15 -139.6 -117.05 -139.55 -128.0 -148.05 -130.05 -149.7 -128.45 -148.2 -137.45 -150.5 -64.95 -150.05 -61.9 -151.05 -54.85 -152.45 -51.15 -153.35 -50.7 -153.35 -50.05 -153.05 -49.6 -153.3 Q-35.75 -152.6 -21.55 -153.6 L-21.65 -152.65 -21.5 -152.4 -20.05 -150.95 -20.05 -145.3" fill="url(#gradient5)" fill-rule="evenodd" stroke="none"/>
    <path d="M132.9 22.15 L148.85 22.15 148.85 36.65 148.85 45.15 Q153.85 43.8 148.85 50.0 L148.85 50.3 148.45 50.45 147.85 51.0 147.05 50.85 147.05 50.95 146.9 51.0 146.35 52.85 148.8 53.6 Q155.75 55.6 149.8 57.9 144.6 59.9 143.6 62.7 L143.4 63.65 143.25 64.7 Q143.3 66.9 149.3 66.8 L148.85 67.55 148.85 67.65 Q149.3 67.75 149.75 68.0 L150.6 68.8 151.0 70.3 151.05 71.35 151.05 72.3 151.0 75.6 151.55 76.75 Q152.6 79.65 151.95 82.8 L151.05 86.5 Q156.3 85.05 154.1 122.8 L153.3 122.2 153.5 124.7 154.05 135.45 154.1 137.1 Q154.4 142.15 152.05 146.55 L151.35 147.95 151.05 148.15 Q135.1 147.65 119.15 147.6 118.05 147.05 116.75 147.15 116.25 142.85 114.4 142.85 112.55 142.85 112.1 147.3 105.9 148.55 84.55 150.05 58.0 149.75 50.6 150.6 49.0 149.6 46.4 149.25 L49.75 147.8 Q52.0 146.75 49.75 147.5 47.9 148.1 46.45 149.1 L45.25 149.1 40.6 149.1 -7.6 149.1 -8.6 149.65 -24.5 148.85 -36.4 148.35 -50.4 147.9 -68.15 147.5 -70.1 147.45 -70.1 146.75 -43.3 147.8 -29.1 147.8 -28.85 147.55 -28.75 147.55 -27.5 147.05 -26.15 146.5 -25.2 146.2 -25.2 125.65 -13.75 125.55 0.2 126.55 Q5.8 127.5 38.4 127.5 51.9 127.5 73.2 128.05 88.65 128.1 92.8 125.8 L93.1 125.65 99.6 126.3 Q100.4 129.5 101.9 129.5 103.25 129.5 104.45 126.8 L104.6 126.5 108.15 126.5 120.55 126.7 Q126.1 126.6 128.55 124.9 131.5 122.85 132.25 117.35 133.05 111.75 131.9 100.5 131.35 94.5 132.05 82.85 L132.9 71.55 Q132.9 64.8 132.1 62.95 L131.9 62.55 Q132.7 58.0 133.05 51.8 133.75 39.9 132.9 27.25 L132.9 22.15 M149.4 88.75 L150.55 87.15 150.25 87.25 149.65 87.5 149.65 87.75 149.55 87.95 149.35 88.25 149.2 88.5 149.2 88.6 149.4 88.75 M148.75 67.7 Q146.15 68.45 146.8 68.45 148.0 68.45 148.75 67.7 M80.05 139.05 L80.05 139.1 82.0 138.35 80.05 139.05" fill="url(#gradient6)" fill-rule="evenodd" stroke="none"/>
    <path d="M46.4 149.25 L45.25 149.1 46.45 149.1 Q47.9 148.1 49.75 147.5 L49.75 147.8 46.4 149.25 M40.6 149.1 L36.4 149.55 24.1 151.15 21.25 151.0 14.25 151.05 Q-17.0 149.95 -32.05 151.1 L-47.45 150.9 Q-54.35 149.65 -63.5 149.3 L-82.75 150.1 -83.7 150.3 -118.1 149.65 -128.7 149.5 Q-130.1 148.1 -134.5 145.75 -137.0 144.45 -141.85 142.85 -145.55 141.35 -146.0 139.05 -146.65 135.85 -146.4 129.9 L-146.0 123.65 -145.5 102.0 Q-145.25 98.2 -145.3 96.3 -145.35 93.05 -146.35 91.05 L-147.35 90.05 Q-146.5 86.5 -146.25 84.35 -145.5 81.35 -145.45 76.85 L-144.8 86.15 -128.3 22.15 Q-127.9 30.3 -127.1 36.65 L-126.35 42.05 -126.35 46.9 -125.95 53.6 -125.55 65.3 Q-125.4 70.6 -122.75 75.95 L-121.25 78.75 -122.05 79.1 Q-125.1 80.7 -124.45 85.9 L-122.4 104.3 Q-121.5 112.7 -123.45 114.65 -121.6 114.65 -122.95 115.6 -124.3 116.5 -122.45 121.25 -120.6 125.95 -119.2 125.75 -117.5 126.6 -115.5 127.2 L-115.35 127.25 -115.25 127.25 Q-108.55 129.2 -98.85 128.4 L-91.0 127.45 -76.1 127.25 -75.35 126.9 -74.5 126.5 -70.1 126.25 -70.1 146.75 -70.1 147.45 -68.15 147.5 -50.4 147.9 -36.4 148.35 -24.5 148.85 -8.6 149.65 -7.6 149.1 40.6 149.1" fill="url(#gradient7)" fill-rule="evenodd" stroke="none"/>
    <path d="M-70.1 126.25 Q-59.75 125.95 -25.2 125.65 L-25.2 146.2 -26.15 146.5 -27.5 147.05 -28.75 147.55 -28.85 147.55 -29.1 147.8 -43.3 147.8 -70.1 146.75 -70.1 126.25" fill="url(#gradient8)" fill-rule="evenodd" stroke="none"/>
    <path d="M54.15 -139.75 L54.25 -139.6 54.35 -139.45 54.45 -139.35 54.55 -139.2 54.6 -139.05 54.6 -138.95 54.6 -138.85 54.8 -138.75 54.8 -138.6 54.8 -138.45 54.8 -138.3 54.9 -138.2 54.9 -133.35 54.55 -133.45 54.35 -133.6 54.35 -133.75 54.25 -133.85 54.1 -134.0 54.1 -134.15 54.0 -134.2 53.9 -134.3 53.35 -134.75 52.85 -135.15 52.75 -135.2 52.75 -135.5 52.55 -135.65 52.55 -135.75 52.45 -135.9 52.3 -136.05 52.3 -136.1 51.95 -136.15 51.65 -136.45 51.4 -136.7 Q51.2 -136.75 50.95 -136.9 L50.95 -137.2 50.95 -137.7 50.95 -137.9 50.95 -138.2 51.3 -138.45 51.5 -138.6 51.5 -138.65 51.85 -138.75 51.85 -138.8 53.0 -138.75 53.2 -138.55 53.2 -138.45 53.35 -138.45 53.25 -138.55 53.25 -138.65 53.25 -138.8 53.2 -138.95 53.0 -139.05 52.85 -139.2 52.85 -139.25 52.85 -139.4 52.85 -139.55 52.85 -139.65 53.0 -139.8 53.2 -139.9 53.45 -139.9 53.45 -139.95 53.65 -139.95 54.0 -139.9 54.15 -139.75 M54.55 -136.05 L54.55 -135.85 54.6 -135.85 54.6 -135.9 54.6 -136.05 54.55 -136.1 54.55 -136.05 M-60.4 -133.15 L-60.2 -133.05 -60.1 -132.95 -60.1 -132.85 -60.05 -132.7 -59.95 -132.55 -59.95 -132.45 -59.75 -132.3 -59.65 -132.15 -59.65 -132.05 -59.65 -131.95 -59.65 -131.8 -59.6 -131.7 -59.5 -131.55 -59.5 -131.4 -59.3 -131.3 -59.2 -131.15 -59.2 -131.0 -58.8 -130.95 -58.5 -130.7 -58.35 -130.7 -57.95 -130.6 -57.7 -130.45 -57.7 -130.35 -57.35 -130.05 -56.6 -129.65 -56.25 -129.45 -55.9 -129.2 -55.65 -129.05 -55.2 -128.9 -54.9 -128.8 -54.75 -128.7 -54.55 -128.6 -54.4 -128.45 -54.1 -128.3 -53.95 -128.2 -53.75 -128.05 -53.3 -127.85 -55.55 -127.85 -55.65 -127.9 -55.6 -127.85 -58.6 -127.85 -58.6 -128.25 -58.8 -128.4 -58.95 -128.5 -59.15 -128.65 -59.2 -128.8 -59.2 -128.9 -59.2 -129.0 -59.3 -129.1 -59.5 -129.25 -59.5 -129.4 -59.5 -129.55 -59.5 -129.65 -59.5 -129.8 -59.5 -129.85 -60.1 -130.05 -60.4 -130.35 -60.4 -130.6 -60.5 -130.8 -60.75 -131.1 -60.85 -131.15 -61.0 -131.4 -61.4 -131.7 -61.75 -131.95 -61.75 -132.15 -61.75 -132.45 -61.55 -132.5 -61.75 -132.65 -61.75 -132.85 -61.9 -133.1 -62.2 -133.4 -62.2 -133.65 -62.65 -133.85 -62.8 -134.1 -63.1 -134.3 -63.15 -134.4 -63.25 -134.4 -63.55 -134.5 -63.7 -134.65 -63.7 -134.7 -64.0 -134.85 -64.0 -135.65 -64.0 -136.4 -64.0 -136.9 -64.0 -137.2 -64.15 -137.35 -64.15 -137.5 -64.35 -137.55 -64.4 -137.55 -64.7 -137.7 -64.85 -137.85 -64.85 -137.9 -64.95 -138.05 -64.95 -142.9 -64.85 -142.75 -64.8 -142.6 -64.8 -142.55 -64.8 -142.4 -64.8 -142.3 -64.8 -142.15 -64.8 -142.0 -64.7 -141.9 -64.5 -141.75 -64.5 -141.6 -64.35 -141.55 -64.15 -141.4 -64.05 -141.25 -64.0 -141.15 -63.9 -141.0 -63.9 -140.85 -63.6 -140.75 -63.6 -140.6 -63.45 -140.55 -63.35 -140.4 -63.15 -140.25 -63.1 -140.1 -63.0 -140.0 -63.0 -139.85 -63.0 -139.7 -63.0 -139.6 -62.8 -139.5 -62.7 -139.4 -62.65 -139.25 -62.55 -139.1 -62.55 -139.0 -62.45 -138.85 -62.35 -138.7 -62.35 -138.5 -62.35 -138.25 -62.35 -137.85 -62.35 -137.5 -62.35 -137.2 -62.45 -137.1 -62.55 -136.95 Q-62.55 -136.9 -62.65 -136.9 L-62.65 -136.3 -62.65 -135.75 -62.55 -135.25 -62.55 -135.0 -62.25 -134.85 -61.9 -134.65 -61.75 -134.6 -61.75 -134.5 -61.45 -134.45 -61.1 -134.3 -61.0 -134.2 -61.0 -134.05 -61.0 -134.0 -61.0 -133.85 -61.0 -133.7 -60.85 -133.6 -60.65 -133.45 -60.55 -133.3 -60.4 -133.15" fill="#000000" fill-rule="evenodd" stroke="none"/>
  </g>
  <defs>
    <linearGradient gradientTransform="matrix(0.2291, 0.2645, -0.3478, 0.1707, 120.9, 5.5)" gradientUnits="userSpaceOnUse" id="gradient0" spreadMethod="pad" x1="-819.2" x2="819.2">
      <stop offset="0.0" stop-color="#d0d0d0" stop-opacity="0.2"/>
      <stop offset="1.0" stop-color="#555555" stop-opacity="0.2627451"/>
    </linearGradient>
    <linearGradient gradientTransform="matrix(0.2291, 0.2645, -0.3478, 0.1707, -117.85, 2.1)" gradientUnits="userSpaceOnUse" id="gradient1" spreadMethod="pad" x1="-819.2" x2="819.2">
      <stop offset="0.0" stop-color="#d0d0d0" stop-opacity="0.2"/>
      <stop offset="1.0" stop-color="#555555" stop-opacity="0.2627451"/>
    </linearGradient>
    <linearGradient gradientTransform="matrix(0.2291, 0.2645, -0.3478, 0.1707, -116.95, 58.0)" gradientUnits="userSpaceOnUse" id="gradient2" spreadMethod="pad" x1="-819.2" x2="819.2">
      <stop offset="0.0" stop-color="#d0d0d0" stop-opacity="0.2"/>
      <stop offset="1.0" stop-color="#555555" stop-opacity="0.2627451"/>
    </linearGradient>
    <linearGradient gradientTransform="matrix(0.2291, 0.2645, -0.3478, 0.1707, 2.9, 62.7)" gradientUnits="userSpaceOnUse" id="gradient3" spreadMethod="pad" x1="-819.2" x2="819.2">
      <stop offset="0.0" stop-color="#d0d0d0" stop-opacity="0.2"/>
      <stop offset="1.0" stop-color="#555555" stop-opacity="0.2627451"/>
    </linearGradient>
    <linearGradient gradientTransform="matrix(0.2291, 0.2645, -0.3478, 0.1707, 121.8, 61.4)" gradientUnits="userSpaceOnUse" id="gradient4" spreadMethod="pad" x1="-819.2" x2="819.2">
      <stop offset="0.0" stop-color="#d0d0d0" stop-opacity="0.2"/>
      <stop offset="1.0" stop-color="#555555" stop-opacity="0.2627451"/>
    </linearGradient>
    <linearGradient gradientTransform="matrix(0.2291, 0.2645, -0.3478, 0.1707, 1.95, 56.7)" gradientUnits="userSpaceOnUse" id="gradient5" spreadMethod="pad" x1="-819.2" x2="819.2">
      <stop offset="0.0" stop-color="#d0d0d0" stop-opacity="0.2"/>
      <stop offset="1.0" stop-color="#555555" stop-opacity="0.2627451"/>
    </linearGradient>
    <linearGradient gradientTransform="matrix(0.2291, 0.2645, -0.3478, 0.1707, -122.1, -52.5)" gradientUnits="userSpaceOnUse" id="gradient6" spreadMethod="pad" x1="-819.2" x2="819.2">
      <stop offset="0.0" stop-color="#d0d0d0" stop-opacity="0.2"/>
      <stop offset="1.0" stop-color="#555555" stop-opacity="0.2627451"/>
    </linearGradient>
    <linearGradient gradientTransform="matrix(0.2291, 0.2645, -0.3478, 0.1707, 116.65, -49.1)" gradientUnits="userSpaceOnUse" id="gradient7" spreadMethod="pad" x1="-819.2" x2="819.2">
      <stop offset="0.0" stop-color="#d0d0d0" stop-opacity="0.2"/>
      <stop offset="1.0" stop-color="#555555" stop-opacity="0.2627451"/>
    </linearGradient>
    <linearGradient gradientTransform="matrix(0.2291, 0.2645, -0.3478, 0.1707, -3.2, -53.8)" gradientUnits="userSpaceOnUse" id="gradient8" spreadMethod="pad" x1="-819.2" x2="819.2">
      <stop offset="0.0" stop-color="#d0d0d0" stop-opacity="0.2"/>
      <stop offset="1.0" stop-color="#555555" stop-opacity="0.2627451"/>
    </linearGradient>
  </defs>
</svg>
