<?xml version="1.0" encoding="UTF-8" standalone="no"?>
<svg xmlns:ffdec="https://www.free-decompiler.com/flash" xmlns:xlink="http://www.w3.org/1999/xlink" ffdec:objectType="shape" height="308.8px" width="319.4px" xmlns="http://www.w3.org/2000/svg">
  <g transform="matrix(1.0, 0.0, 0.0, 1.0, 163.5, 155.3)">
    <path d="M137.9 -151.5 L149.75 -151.0 Q155.9 -150.5 155.9 -148.4 155.9 -147.8 155.15 -147.15 154.45 -146.5 153.9 -146.5 L153.4 -144.6 Q152.9 -143.15 152.9 -141.1 L152.9 -131.75 152.35 -131.4 152.25 -131.3 152.25 -130.75 152.2 -130.55 152.1 -130.4 152.05 -130.2 152.0 -130.0 151.95 -129.65 151.7 -129.05 151.5 -128.7 151.0 -128.55 150.25 -128.5 149.8 -128.65 149.3 -128.85 149.15 -129.05 149.05 -129.15 148.95 -129.1 148.95 -129.05 148.85 -128.9 148.75 -128.7 148.55 -128.55 148.25 -128.45 148.05 -128.25 147.95 -128.1 147.8 -128.05 147.3 -127.95 147.1 -127.8 148.0 -127.75 148.15 -127.7 147.25 -126.5 147.35 -126.15 146.85 -126.15 146.95 -126.0 147.25 -125.8 147.35 -125.6 147.45 -125.45 147.55 -125.25 147.75 -125.05 147.85 -124.85 147.95 -124.7 148.0 -124.55 148.05 -124.5 148.4 -124.35 148.55 -124.2 148.7 -124.0 148.75 -123.8 149.15 -123.6 149.3 -123.45 149.45 -123.25 149.5 -123.05 149.5 -122.85 149.55 -122.3 149.65 -121.95 149.75 -121.85 149.85 -121.8 149.9 -122.7 Q149.9 -122.15 150.15 -121.7 L150.25 -121.7 150.25 -121.75 151.0 -121.75 151.35 -121.6 151.85 -121.35 152.3 -121.0 152.4 -120.8 152.5 -120.6 152.5 -120.45 152.5 -120.25 152.5 -120.05 152.5 -119.9 152.4 -119.7 152.3 -119.5 152.55 -119.45 152.7 -119.3 152.85 -119.15 152.65 -111.65 152.4 -103.05 Q152.4 -98.35 153.15 -89.35 153.9 -80.35 153.9 -76.05 L153.15 -63.95 152.4 -54.5 152.45 -43.8 152.4 -33.1 Q152.1 -18.85 152.4 9.35 152.4 14.95 151.65 26.65 150.9 38.35 150.9 44.05 L151.4 47.1 151.9 50.1 151.9 50.35 Q153.0 50.85 153.0 52.85 L152.5 60.25 Q152.0 67.65 152.0 71.25 L152.0 74.75 151.95 74.8 151.8 75.0 152.15 75.15 152.3 75.3 152.45 75.5 152.5 75.9 152.5 76.25 152.5 76.8 152.45 77.0 152.3 77.2 152.15 77.55 152.05 77.75 151.9 77.95 151.8 78.15 151.75 78.3 151.7 78.5 151.55 78.7 151.45 78.85 151.25 79.05 151.1 79.4 150.8 80.0 150.5 80.55 150.3 80.75 150.25 81.05 150.7 81.5 150.7 81.7 150.6 82.05 150.45 82.4 150.3 82.45 150.25 82.45 150.25 82.65 150.25 83.2 150.25 83.35 150.15 83.55 150.05 83.75 151.5 83.75 151.9 83.9 152.05 84.05 152.2 84.25 152.25 84.45 152.25 85.2 152.25 86.3 152.2 86.5 152.05 86.7 152.0 86.75 152.0 89.25 151.5 125.0 152.25 135.05 153.0 146.25 152.85 148.8 152.05 150.05 152.5 150.5 Q152.5 151.55 151.8 151.75 L147.4 152.0 135.8 151.45 130.35 151.1 130.2 151.05 121.65 150.3 120.25 150.75 120.2 150.75 118.55 150.8 117.8 150.35 115.25 150.25 114.3 150.55 Q114.15 150.6 114.05 150.7 L112.5 148.4 112.5 148.2 112.5 148.05 112.45 148.0 112.15 147.6 112.0 147.45 111.8 147.05 111.55 146.85 111.4 146.7 111.3 146.5 111.25 146.3 111.25 146.15 111.15 146.05 110.9 145.95 110.65 146.15 110.25 146.25 110.0 146.25 109.75 146.2 109.75 146.25 109.75 146.45 109.7 146.6 109.65 146.8 109.55 147.0 109.55 147.15 109.95 147.15 109.9 147.15 109.65 147.3 109.55 147.3 109.5 147.3 109.5 147.4 109.4 147.55 109.2 147.95 109.1 148.1 109.0 148.3 108.8 148.5 108.75 148.6 108.75 149.05 108.75 150.0 108.75 150.55 108.7 150.75 108.55 150.95 108.25 151.3 108.2 151.5 108.05 151.7 107.75 152.05 107.25 152.2 106.25 152.25 105.8 152.15 105.65 151.95 105.5 151.75 105.5 151.55 105.5 151.4 105.6 151.2 105.7 151.0 105.85 150.9 106.25 150.75 105.9 150.7 105.65 150.95 105.45 151.4 93.0 152.1 63.25 153.5 46.75 152.65 40.05 151.75 28.9 150.95 28.0 151.5 3.85 150.75 -10.15 152.15 -23.75 153.5 -39.4 152.75 -54.0 152.0 -81.15 151.65 Q-106.05 151.25 -127.1 151.25 L-133.3 151.65 -139.75 152.0 Q-148.4 152.0 -150.75 150.85 -151.5 150.45 -151.5 149.35 L-151.5 149.3 -151.55 149.5 -151.5 149.2 -151.45 148.6 -151.35 148.5 Q-151.3 147.8 -151.5 147.75 -152.05 147.55 -152.5 143.85 -152.95 140.1 -152.45 138.1 -151.95 136.05 -151.7 123.7 -151.45 111.3 -152.2 98.35 L-153.0 83.0 -152.35 37.8 -152.3 37.8 -152.5 35.45 -152.5 30.25 -152.0 -1.65 -152.5 -1.65 -152.5 -1.75 -152.1 -2.9 -152.0 -4.0 -151.8 -3.85 -151.25 -3.75 -150.9 -3.8 -150.7 -3.9 -150.55 -4.0 Q-150.25 -4.25 -150.1 -4.6 -149.25 -4.75 -148.65 -5.35 L-148.65 -4.9 -148.7 -4.65 -140.4 -4.75 -139.5 -5.15 -139.1 -5.35 -138.5 -5.65 -138.15 -6.0 -137.9 -6.2 -145.85 -7.25 -148.1 -7.75 -148.35 -8.15 -148.55 -8.5 -148.9 -8.9 -150.55 -9.35 -151.0 -9.4 -151.0 -11.05 -151.0 -15.2 -151.05 -15.3 -151.0 -15.3 -151.0 -18.25 -150.9 -24.1 -151.6 -24.2 -151.5 -35.15 Q-151.5 -45.3 -152.0 -76.0 L-153.0 -115.0 -152.9 -122.95 -152.5 -125.7 Q-152.85 -127.0 -152.85 -129.0 L-152.5 -137.25 Q-152.5 -141.75 -153.0 -151.1 L-152.95 -151.85 -152.75 -152.25 -151.15 -152.0 -150.85 -152.25 -149.25 -152.5 -108.0 -151.25 -79.85 -152.75 -51.0 -154.75 -42.6 -154.9 -33.35 -154.75 -14.5 -153.75 3.9 -152.45 5.0 -152.5 15.35 -151.55 29.3 -150.75 40.9 -151.55 53.55 -153.85 Q67.6 -156.65 87.9 -154.0 L102.2 -152.65 Q105.1 -152.5 114.4 -152.5 L125.4 -152.15 137.9 -151.5 M121.9 -149.0 L102.3 -149.6 84.7 -151.55 Q83.55 -151.75 72.6 -151.75 64.45 -151.75 49.3 -149.35 34.2 -147.0 26.9 -147.0 21.55 -147.0 12.0 -148.5 L5.5 -149.7 -1.25 -149.5 -11.7 -150.35 -28.0 -151.0 -30.95 -151.4 -34.1 -151.85 -75.75 -149.9 -108.0 -148.0 -121.7 -148.2 -148.0 -149.0 -149.3 -149.1 -149.25 -147.5 Q-150.0 -141.6 -149.5 -139.85 L-149.25 -131.25 -149.0 -125.4 -149.1 -124.1 -149.4 -123.8 -149.45 -123.75 -149.45 -123.05 -150.0 -115.0 Q-149.5 -88.75 -149.0 -75.6 -147.5 -43.8 -147.5 -36.4 L-147.75 -23.1 -147.95 -23.15 -147.95 -20.0 -147.95 -13.25 -147.9 -12.9 -147.65 -12.5 -147.55 -12.15 -147.5 -11.75 -147.4 -11.4 -147.15 -11.0 -147.05 -10.65 -147.0 -10.25 -147.25 -9.85 -147.3 -9.7 Q-138.35 -8.15 -129.1 -7.65 L-129.05 -7.7 -128.75 -7.8 -128.55 -7.95 -128.25 -7.95 -128.25 -8.0 -124.0 -8.0 -123.6 -7.85 -123.45 -7.7 -123.3 -7.5 -123.25 -7.3 -123.3 -7.15 -123.45 -6.75 -123.55 -6.6 -123.7 -6.6 -128.1 -6.35 -128.25 -6.3 -128.25 -6.2 -128.3 -6.05 -128.3 -6.0 -128.45 -5.8 -128.5 -5.7 -128.6 -5.6 -128.7 -5.5 -128.8 -5.35 -128.95 -5.3 -129.6 -5.1 -130.0 -5.0 -134.35 -4.85 -134.75 -4.7 -134.95 -4.55 -135.0 -4.55 -136.3 -3.45 -136.5 -3.4 -136.9 -3.0 -137.15 -2.75 -137.4 -2.65 -139.4 -2.15 -148.85 -1.75 -149.0 1.55 -149.6 38.9 Q-149.0 39.8 -148.95 41.45 -148.9 43.6 -149.5 47.5 L-149.5 59.05 Q-149.5 67.0 -150.0 82.65 L-148.5 110.5 Q-147.6 122.95 -148.25 128.5 -148.9 134.0 -149.7 138.75 -150.55 143.45 -149.25 145.2 -148.0 146.9 -148.1 148.15 -141.4 148.0 -120.5 148.0 L-131.5 148.5 Q-105.85 148.2 -81.3 148.3 L-50.0 148.5 -39.6 149.4 -24.0 150.25 -10.1 148.9 2.0 147.55 Q21.15 147.2 26.55 147.95 L27.1 148.05 31.25 148.0 45.6 149.15 63.35 150.25 88.8 148.75 105.7 147.55 105.7 147.45 105.75 147.25 105.9 147.05 106.05 146.9 106.45 146.5 106.65 146.3 106.7 146.15 106.95 145.75 107.1 145.55 107.2 145.4 107.25 145.2 107.25 144.8 107.25 144.65 107.25 144.45 107.25 144.25 107.2 144.1 106.9 143.7 106.55 143.3 106.5 143.1 106.5 142.95 106.5 142.75 106.5 142.55 106.6 142.4 106.75 142.25 106.7 142.2 106.45 142.0 106.25 141.8 106.0 141.45 105.65 141.25 105.25 141.05 105.05 140.9 105.0 140.7 104.9 140.5 104.8 140.4 104.7 140.35 104.25 140.25 103.8 140.15 103.65 139.95 103.3 139.6 102.9 139.2 102.75 139.0 102.7 138.8 102.6 138.6 102.5 138.45 102.5 138.25 102.45 138.05 102.3 137.9 102.25 137.7 102.25 137.5 102.25 137.3 102.25 137.15 102.25 136.95 102.15 136.75 102.0 136.55 101.65 136.2 101.5 136.15 95.4 136.15 94.8 136.3 94.55 136.5 94.45 136.65 94.3 136.7 94.0 136.75 93.7 136.9 93.5 137.05 93.3 137.25 93.2 137.4 93.05 137.45 91.0 138.1 90.2 138.3 90.05 138.45 Q88.25 139.7 86.0 139.25 L85.55 139.15 85.4 138.95 85.25 138.75 85.25 138.55 85.25 138.4 85.35 138.2 85.45 138.0 85.55 137.95 88.9 137.45 89.0 137.25 89.15 137.05 89.3 136.9 89.75 136.75 Q91.0 136.3 92.25 136.0 L92.55 135.9 92.75 135.7 92.95 135.5 93.05 135.4 93.2 135.35 94.2 134.95 94.95 134.55 95.25 134.55 95.25 134.5 94.9 134.2 93.95 133.25 93.85 133.05 93.75 132.9 93.5 132.5 93.5 131.75 93.5 130.8 93.5 130.25 93.65 130.05 93.7 130.0 Q94.1 130.4 94.85 130.4 L95.45 130.3 95.25 130.65 95.05 131.0 95.0 131.2 95.0 131.25 96.5 131.25 96.9 131.4 97.65 131.6 98.65 131.9 98.8 132.05 98.95 132.25 99.0 132.45 99.0 132.65 99.0 132.8 99.0 133.0 99.05 133.2 99.1 133.4 99.2 133.55 99.25 133.75 99.25 133.95 99.25 134.15 99.25 134.3 99.3 134.5 102.0 134.5 102.4 134.65 102.55 134.8 102.7 135.0 103.0 135.2 103.1 135.4 103.2 135.55 103.3 135.75 103.5 135.95 103.65 136.15 103.7 136.3 103.75 136.5 103.75 136.9 103.75 137.25 103.8 137.45 103.9 137.6 104.05 138.0 104.15 138.2 104.4 138.4 104.6 138.55 104.75 138.7 104.8 138.75 Q105.4 138.9 105.8 139.25 L106.25 139.8 106.65 140.0 107.0 140.2 107.15 140.4 107.25 140.55 107.7 140.9 108.4 141.3 108.45 141.5 108.55 141.7 108.85 141.9 109.05 142.05 109.2 142.25 109.2 142.3 109.25 142.3 109.65 142.4 110.2 142.75 110.5 142.95 110.7 143.15 111.4 143.55 111.95 143.9 112.5 144.2 112.85 144.4 113.3 144.75 113.4 144.95 113.5 145.15 113.5 145.3 113.55 145.5 113.65 145.7 113.75 145.9 113.75 146.05 113.8 146.25 114.0 146.6 114.3 147.0 114.35 147.05 119.75 147.0 139.5 148.0 149.15 149.2 149.5 148.1 150.0 146.1 Q150.0 144.45 149.25 140.65 148.5 136.9 148.5 135.5 L148.5 125.35 148.95 86.85 148.6 87.1 148.25 87.3 148.05 87.5 147.95 87.7 147.85 87.85 147.75 88.05 147.55 88.25 147.45 88.4 147.3 88.45 147.0 88.5 146.7 88.65 146.5 88.8 146.3 88.95 146.0 89.05 146.0 89.25 146.0 89.45 146.0 89.8 145.95 90.0 145.8 90.2 145.65 90.4 145.25 90.55 144.75 90.8 144.55 91.0 144.3 91.2 144.0 91.4 144.0 91.55 143.95 91.75 143.8 91.95 143.7 92.15 143.5 92.5 143.5 92.7 143.5 92.85 143.4 93.05 143.3 93.25 143.25 93.45 143.25 93.65 143.15 93.8 142.95 94.2 142.75 94.55 142.55 94.65 142.25 94.75 142.0 94.75 141.55 94.65 141.4 94.45 141.25 94.25 141.25 94.05 141.25 93.9 141.25 93.7 141.25 93.5 141.4 93.3 141.55 93.1 141.7 92.95 141.75 92.55 141.75 91.8 141.75 91.25 142.25 90.65 143.2 89.75 143.25 89.55 143.3 89.4 143.5 89.2 143.75 89.0 143.85 88.8 144.05 88.45 144.25 88.05 144.25 87.95 144.25 87.9 144.3 87.85 144.4 87.55 144.6 87.15 144.65 86.95 144.95 86.2 145.15 85.8 145.3 85.65 145.5 85.25 145.7 84.7 145.75 84.3 145.95 83.95 146.25 83.35 146.45 83.0 146.5 82.8 146.5 82.65 146.5 82.45 146.5 82.25 146.65 82.05 146.8 81.9 147.0 81.7 147.15 81.3 147.45 80.75 147.65 80.55 147.75 80.35 147.75 80.25 147.75 80.2 147.75 80.0 147.75 79.7 Q147.7 79.4 147.8 79.15 L147.9 78.95 148.0 78.55 148.0 78.2 148.05 78.0 148.1 77.8 148.2 77.65 148.25 77.45 148.25 77.05 148.3 76.7 148.4 76.5 148.5 76.1 148.5 75.55 148.6 75.4 148.75 75.2 148.95 75.1 149.1 75.05 149.55 51.8 Q148.25 51.05 147.9 48.0 L147.9 44.0 Q149.4 20.6 149.4 13.8 L149.05 -1.0 Q148.75 -10.45 148.9 -16.1 L149.4 -46.1 Q149.4 -51.2 150.15 -61.15 150.9 -71.1 150.9 -76.1 L149.9 -89.6 Q149.4 -98.6 149.4 -102.9 L149.65 -112.15 149.85 -119.85 148.05 -120.1 147.9 -120.3 147.75 -120.5 147.7 -120.7 147.55 -120.85 147.4 -121.05 147.2 -121.25 147.05 -121.45 147.0 -121.65 147.0 -121.8 146.95 -122.0 146.8 -122.2 146.75 -122.4 146.75 -122.55 146.7 -122.75 146.5 -122.95 146.3 -123.1 146.25 -123.3 146.15 -123.5 146.0 -123.7 145.8 -123.85 145.7 -123.95 145.3 -124.1 145.15 -124.3 144.75 -124.7 144.25 -125.25 144.25 -125.35 144.25 -125.4 143.3 -125.6 143.15 -125.8 143.0 -125.9 141.3 -126.1 141.15 -126.3 141.0 -126.5 137.8 -126.6 137.65 -126.8 137.5 -127.0 137.5 -127.2 137.5 -127.25 135.75 -127.25 135.3 -127.35 135.15 -127.55 134.5 -127.6 133.25 -127.5 132.8 -127.6 132.65 -127.8 132.5 -128.0 132.5 -128.2 132.5 -128.35 132.5 -128.55 132.5 -128.75 132.65 -128.95 132.8 -129.1 133.25 -129.25 135.0 -129.25 135.45 -129.1 135.8 -128.95 137.95 -128.85 138.1 -128.85 141.3 -129.05 142.7 -129.25 142.65 -129.3 142.5 -129.5 142.5 -129.7 142.5 -129.85 142.6 -130.05 142.7 -130.25 148.0 -130.75 148.65 -130.75 148.8 -130.85 149.8 -131.15 149.9 -131.15 149.9 -138.0 149.55 -144.2 Q149.7 -145.85 150.55 -146.85 L137.05 -148.1 129.35 -148.65 121.9 -149.0 M149.9 -125.55 L150.0 -125.35 149.9 -123.7 149.9 -123.55 149.9 -125.55 M148.0 83.15 L148.0 83.3 147.95 83.5 147.85 83.7 147.75 83.9 147.75 83.95 148.05 83.65 148.2 83.45 148.25 83.25 148.3 83.1 148.1 82.85 148.05 82.8 148.0 82.95 148.0 83.15 M111.05 150.55 L111.35 151.1 110.85 151.1 110.85 151.05 110.95 150.85 111.0 150.7 111.05 150.55 M92.75 127.05 Q92.75 127.7 93.0 128.05 L93.05 128.6 92.8 128.4 92.7 128.3 92.3 128.15 92.15 127.95 91.75 127.55 91.55 127.4 91.5 127.2 91.45 127.0 91.25 126.8 91.05 126.65 90.9 126.45 90.6 125.85 90.25 125.15 90.0 124.75 90.0 124.55 90.0 124.4 90.0 124.2 90.25 124.5 Q91.65 126.2 92.8 126.75 L92.75 127.05 M107.2 150.25 L107.15 150.3 107.2 150.25 M-163.5 -2.65 L-163.4 -2.35 -163.5 -2.5 -163.5 -2.65 M-163.4 -3.45 L-163.45 -3.35 -163.5 -3.0 -163.5 -3.25 -163.4 -3.45" fill="#000000" fill-rule="evenodd" stroke="none"/>
  </g>
</svg>
