<?xml version="1.0" encoding="UTF-8" standalone="no"?>
<svg xmlns:ffdec="https://www.free-decompiler.com/flash" xmlns:xlink="http://www.w3.org/1999/xlink" ffdec:objectType="shape" height="260.55px" width="260.2px" xmlns="http://www.w3.org/2000/svg">
  <g transform="matrix(1.0, 0.0, 0.0, 1.0, 129.25, 127.7)">
    <path d="M112.55 -124.9 Q110.5 -124.35 110.5 -122.45 110.5 -121.3 111.1 -120.8 112.4 -119.75 116.35 -119.75 120.0 -119.75 120.0 -122.25 120.0 -124.1 117.85 -124.75 L120.45 -124.8 126.7 -125.3 127.0 -124.9 127.55 -124.25 127.5 -123.7 127.65 -122.9 Q126.75 -121.65 126.75 -118.7 126.55 -117.25 126.8 -115.9 127.05 -114.35 127.95 -113.7 L127.95 -113.4 127.95 -111.9 127.95 -110.75 Q127.25 -109.65 127.25 -107.5 127.1 -106.4 127.35 -105.4 127.6 -104.6 128.1 -104.15 127.4 -93.7 128.25 -83.25 128.8 -76.5 127.45 -70.15 L127.5 -69.4 127.3 -67.9 126.95 -67.15 126.95 -64.15 126.95 -60.4 127.2 -60.0 127.35 -59.65 127.45 -59.25 127.45 -58.9 127.35 -58.5 127.2 -58.15 127.1 -57.75 126.0 -56.75 125.95 -56.7 125.95 -56.0 125.95 -55.85 126.45 -55.7 127.1 -55.4 127.4 -55.0 127.6 -54.65 127.95 -53.9 128.1 -50.9 Q128.25 -49.05 127.45 -47.5 L127.55 -46.4 Q127.65 -45.15 126.95 -44.15 L127.0 -43.4 Q127.1 -42.4 126.7 -41.5 L126.45 -41.15 126.45 -39.65 126.45 -36.65 126.3 -36.25 126.1 -35.85 125.95 -35.5 125.95 -28.75 125.95 -23.5 126.1 -23.15 126.3 -22.75 126.45 -22.4 126.45 -22.0 126.45 -21.25 126.45 -20.5 126.6 -20.15 126.8 -19.75 126.95 -19.4 126.95 -16.75 126.95 -13.4 Q127.6 -12.55 127.55 -11.5 L127.45 -8.5 127.75 -7.75 128.3 -6.25 128.45 -5.9 128.55 -5.15 128.9 -3.6 128.95 -2.9 Q129.8 0.9 129.75 5.0 129.7 7.7 129.1 10.25 L128.8 10.6 128.35 11.0 128.1 11.25 Q127.55 15.05 127.4 18.9 127.3 21.4 126.75 23.75 L126.45 23.2 126.65 22.95 Q126.65 22.1 125.05 22.45 123.85 22.75 123.55 23.1 L122.35 23.25 121.6 23.35 121.7 19.85 Q121.65 17.5 122.45 15.35 122.45 13.7 122.8 12.05 L123.6 8.6 123.75 8.3 124.45 7.6 Q124.05 5.35 124.25 2.95 124.45 0.35 123.95 -2.25 L123.7 -3.05 123.15 -4.55 122.95 -4.9 Q122.1 -9.9 121.9 -15.0 L121.45 -21.4 Q120.6 -25.95 120.85 -30.75 L120.95 -37.15 121.1 -37.5 121.3 -37.9 121.45 -38.25 Q121.5 -43.2 122.5 -48.0 L122.85 -49.85 122.35 -50.15 122.0 -50.5 Q121.6 -51.0 121.5 -51.65 L121.45 -52.4 Q120.7 -54.15 120.8 -56.15 L121.1 -59.9 121.25 -60.2 121.75 -60.75 Q121.6 -62.05 121.75 -63.4 L121.95 -68.65 122.1 -69.0 122.3 -69.4 122.45 -69.75 122.45 -70.15 122.45 -70.5 122.45 -71.25 122.45 -71.65 122.6 -72.0 122.8 -72.4 122.95 -72.75 123.05 -73.75 122.85 -73.85 122.35 -74.15 Q121.2 -79.7 121.0 -85.75 120.9 -89.35 121.1 -92.9 L121.25 -93.2 122.0 -94.0 122.3 -94.2 Q122.15 -96.8 122.45 -99.45 L122.6 -100.5 Q123.85 -100.5 125.25 -103.6 126.5 -106.35 126.5 -107.65 126.5 -109.55 124.4 -110.95 123.5 -111.55 122.8 -111.35 L122.6 -115.5 Q122.65 -117.6 123.0 -119.55 118.45 -119.15 113.95 -119.55 L84.45 -121.2 Q83.25 -121.25 82.3 -121.8 80.1 -120.8 77.45 -121.25 69.4 -119.15 60.9 -119.25 52.15 -116.8 43.2 -117.75 L43.05 -117.9 42.15 -119.1 42.55 -120.5 Q42.65 -121.1 42.2 -121.5 L42.2 -121.65 Q42.2 -122.3 41.45 -122.3 40.7 -122.3 40.7 -121.65 L40.8 -121.35 Q40.25 -120.85 40.1 -120.05 L39.95 -118.65 39.85 -118.2 Q36.85 -118.75 33.85 -119.65 L33.5 -120.0 Q33.1 -120.5 33.0 -121.15 L33.0 -121.5 26.8 -114.15 Q24.9 -111.85 22.7 -109.9 16.75 -107.5 10.65 -105.85 L10.5 -105.5 8.05 -105.2 2.5 -104.0 1.4 -104.35 0.85 -104.65 0.3 -105.2 Q-4.25 -105.65 -8.9 -107.05 L-15.65 -109.15 -16.2 -109.9 -16.45 -110.65 -16.5 -111.4 -16.5 -112.15 -16.35 -112.5 -16.15 -112.85 -15.75 -113.25 -15.4 -113.65 -14.75 -113.8 -14.05 -113.95 -14.0 -114.0 Q-6.0 -111.15 2.45 -110.4 L6.3 -109.85 Q9.45 -110.65 12.35 -112.25 20.25 -112.9 24.3 -119.05 L25.95 -121.0 26.25 -121.75 Q26.7 -122.85 27.6 -123.65 L29.05 -124.45 30.1 -125.15 30.75 -125.3 31.45 -125.45 31.45 -125.5 32.45 -125.2 33.1 -124.9 33.45 -124.45 33.6 -124.15 33.95 -123.4 33.95 -123.15 45.1 -123.6 47.65 -123.2 Q56.6 -126.75 66.45 -125.45 L73.7 -125.25 74.15 -125.55 76.25 -126.35 76.95 -126.5 81.45 -126.25 82.15 -126.15 82.75 -126.3 83.45 -126.45 83.45 -126.5 94.7 -125.8 Q94.9 -125.3 95.2 -125.2 L100.6 -125.0 104.65 -125.25 112.55 -124.9 M126.7 24.05 L126.45 24.85 Q125.7 34.15 126.45 43.55 126.9 48.8 126.95 54.1 127.85 65.4 127.6 77.0 L126.95 89.35 126.8 89.7 126.6 90.1 126.45 90.5 Q126.05 99.8 126.55 108.85 126.85 114.25 125.95 119.35 L125.95 119.75 125.85 120.4 126.5 120.35 128.1 120.6 128.4 121.0 128.6 121.35 128.8 121.75 128.95 122.1 128.95 122.5 128.95 122.85 128.8 123.2 128.6 123.6 128.45 124.0 Q124.65 126.4 119.95 126.15 L99.5 125.1 Q99.6 126.0 99.2 126.85 98.85 127.75 98.8 128.7 98.7 129.95 97.7 130.6 L97.2 130.8 Q95.55 131.25 94.05 130.4 L92.7 129.25 92.6 128.85 92.45 128.5 92.25 128.1 92.1 127.75 Q84.8 124.55 76.3 126.15 L64.45 127.55 Q40.7 128.7 16.85 127.3 L12.8 126.8 Q7.6 128.7 1.85 126.7 L0.1 125.6 Q-27.1 126.85 -54.15 126.45 L-59.55 126.75 Q-73.75 128.6 -87.65 126.9 L-88.0 127.0 Q-105.4 127.9 -122.65 127.35 L-123.0 126.95 -123.4 126.15 Q-124.7 126.55 -126.75 125.75 L-127.1 125.35 -127.4 125.0 -127.9 124.25 Q-128.4 118.75 -128.15 113.35 -128.0 110.75 -126.8 108.9 -127.55 103.15 -127.1 97.05 -126.85 93.65 -125.75 90.45 L-125.85 86.25 Q-125.9 82.35 -125.45 78.6 -126.6 72.05 -126.25 65.0 L-126.0 56.35 -125.85 56.0 -125.65 55.6 -125.5 55.25 Q-124.55 43.7 -125.15 32.0 -125.35 26.8 -124.75 21.8 L-125.1 21.65 -125.65 21.35 -125.95 20.95 -126.35 20.25 -126.65 19.5 -126.9 19.15 -127.25 18.75 -127.35 18.35 -127.5 17.6 -127.5 16.85 -127.35 16.5 -127.15 16.1 -126.9 15.75 Q-126.85 12.0 -126.45 8.2 -126.15 5.7 -125.5 3.35 L-125.5 -12.0 -125.5 -20.65 -125.35 -21.0 -125.15 -21.4 -125.0 -21.75 -125.0 -25.55 -125.15 -25.65 Q-126.0 -26.35 -126.1 -27.5 -126.25 -28.95 -125.5 -30.15 L-125.55 -31.65 Q-125.6 -32.8 -125.15 -33.85 L-125.1 -34.35 -126.0 -35.05 -126.75 -35.75 -127.4 -49.25 Q-127.5 -52.8 -126.5 -56.05 -126.9 -57.9 -126.95 -59.9 L-127.0 -64.75 -127.15 -65.1 -127.35 -65.5 -127.5 -65.9 -127.65 -69.25 Q-127.8 -71.05 -127.0 -72.65 L-127.0 -73.4 -127.0 -74.9 -127.0 -75.65 -126.85 -76.0 -126.25 -76.75 -126.0 -77.05 -126.0 -78.4 -126.6 -79.5 -127.0 -81.75 -127.15 -82.1 -127.35 -82.5 -127.5 -82.9 -127.5 -89.25 -127.5 -94.15 -127.35 -94.5 -127.15 -94.9 -127.0 -95.25 Q-127.0 -97.7 -127.15 -100.1 -127.35 -102.5 -126.5 -104.65 L-126.6 -106.5 Q-126.75 -107.95 -126.0 -109.15 L-126.15 -114.0 -126.05 -116.1 -126.2 -116.9 Q-126.25 -118.3 -125.5 -119.5 L-125.15 -119.85 Q-124.35 -120.5 -123.5 -120.5 L-122.55 -120.2 -121.9 -119.9 -121.55 -119.45 -121.35 -119.15 -121.0 -118.4 -121.0 -118.0 -121.0 -117.25 -120.8 -116.6 Q-120.45 -115.15 -120.5 -113.65 L-120.65 -113.25 -120.85 -112.85 -121.0 -112.5 -121.0 -110.65 -121.0 -107.65 -121.15 -107.25 -121.35 -106.85 -121.5 -106.5 -121.5 -105.4 -121.5 -103.5 -121.5 -103.15 -121.65 -102.75 -121.85 -102.35 -122.0 -102.0 -121.85 -97.15 Q-121.7 -94.75 -122.5 -92.65 L-122.45 -87.0 -122.0 -82.5 -121.75 -81.75 -121.2 -80.25 -121.0 -79.9 -121.0 -77.25 -121.0 -73.9 Q-120.15 -68.2 -120.4 -62.25 -120.6 -58.65 -120.0 -55.15 L-120.15 -54.75 -120.35 -54.35 -120.5 -54.0 -120.5 -53.75 -120.5 -53.4 -120.3 -53.0 -120.15 -52.65 -120.05 -51.9 -120.0 -51.5 -119.85 -51.15 -119.65 -50.75 -119.5 -50.4 Q-119.5 -43.65 -119.95 -36.9 L-120.0 -36.1 -119.8 -25.9 Q-119.65 -22.55 -120.5 -19.5 L-120.5 -4.15 -120.5 4.5 -120.65 4.85 -120.85 5.25 -121.0 5.6 Q-120.85 7.95 -121.1 10.15 -121.3 12.25 -122.0 14.25 -121.45 15.5 -121.5 16.85 L-121.5 19.35 -120.9 19.6 -120.55 20.0 -120.35 20.35 -120.0 21.1 Q-119.05 40.45 -120.1 59.75 L-120.85 75.35 -120.5 76.1 Q-120.85 86.15 -119.9 96.0 -119.4 101.35 -119.5 106.85 L-119.65 107.2 -119.85 107.6 -120.0 108.0 -120.45 108.3 -121.0 108.55 Q-118.75 111.45 -120.3 116.4 -121.2 119.2 -121.3 122.2 L-121.35 123.05 -121.0 123.0 -95.5 121.5 Q-92.25 121.5 -89.05 121.65 -87.4 121.75 -86.15 122.85 L-86.0 123.05 Q-80.05 122.0 -73.5 121.9 L-56.7 120.9 -50.9 121.1 -32.1 121.8 -15.0 121.0 Q-9.7 121.1 -5.5 120.0 L-0.05 120.25 Q1.75 120.35 3.0 121.5 L5.95 121.75 10.15 122.05 Q14.05 120.55 18.6 121.15 L38.45 122.6 80.45 121.0 85.25 120.6 85.25 120.7 87.6 122.6 89.85 124.0 90.25 124.5 Q91.65 126.2 92.8 126.75 L92.75 127.05 Q92.75 127.7 93.0 128.05 L93.05 128.7 Q93.35 130.4 94.85 130.4 95.6 130.4 96.0 129.9 L96.25 129.15 96.1 127.65 96.25 126.85 96.5 124.25 Q96.5 122.1 95.05 120.75 L95.95 120.65 101.95 120.0 Q110.95 120.0 119.95 120.45 L121.4 120.55 Q120.55 117.45 121.1 113.95 121.45 111.35 121.45 108.75 L121.3 108.35 121.1 107.95 120.95 107.6 120.8 103.5 Q120.65 101.3 121.45 99.35 L121.45 93.75 121.45 88.85 121.6 88.5 121.8 88.1 121.95 87.75 121.9 85.85 Q121.7 84.25 122.45 82.85 L122.4 63.0 Q122.35 57.35 121.95 51.75 L121.8 51.4 121.6 51.0 121.45 50.6 121.45 49.5 121.45 47.6 121.45 47.25 121.3 46.9 121.1 46.5 120.95 46.1 120.75 33.75 Q120.6 29.65 121.45 25.85 L121.55 24.7 121.55 24.8 123.45 25.1 126.0 24.6 126.7 24.05 M-70.85 -119.25 L-71.0 -120.0 -71.0 -121.15 -70.85 -121.5 -70.65 -121.85 -70.25 -122.25 -69.9 -122.65 Q-55.2 -121.4 -41.5 -124.5 L-34.5 -124.3 Q-32.1 -124.3 -30.15 -123.0 L-29.55 -123.1 -28.75 -123.3 Q-26.95 -123.9 -25.4 -122.9 L-25.05 -122.45 -24.85 -122.15 -24.65 -121.75 -24.5 -121.4 -24.5 -121.0 -24.5 -120.65 -24.65 -120.25 -24.85 -119.85 -25.0 -119.5 -25.4 -119.15 Q-27.1 -117.95 -29.0 -117.5 -31.7 -116.8 -33.5 -118.5 -40.65 -119.9 -48.2 -118.8 L-64.65 -117.65 -68.5 -117.5 -69.6 -117.85 -70.15 -118.15 -70.5 -118.5 -70.75 -118.9 -70.85 -119.25 M-122.0 -121.65 L-121.85 -122.0 -121.6 -122.35 -120.9 -123.15 Q-107.9 -123.8 -94.75 -122.75 L-94.35 -123.05 -92.25 -123.85 -91.5 -124.0 -88.05 -123.8 -86.4 -123.4 -86.05 -122.95 -85.85 -122.65 -85.65 -122.25 -85.5 -121.9 -85.5 -121.5 -85.5 -121.15 -85.65 -120.75 -85.85 -120.35 -86.0 -120.0 Q-97.9 -115.8 -111.1 -117.65 L-118.5 -118.2 Q-120.5 -118.25 -121.75 -119.75 L-121.9 -120.15 -122.0 -120.5 -122.0 -121.25 -122.0 -121.65" fill="#63561d" fill-rule="evenodd" stroke="none"/>
    <path d="M110.7 -125.65 L126.1 -126.25 127.0 -124.9 127.55 -124.25 127.5 -123.7 127.65 -122.9 Q126.75 -121.7 126.75 -118.7 126.55 -117.25 126.8 -115.9 127.05 -114.3 128.0 -113.65 127.8 -112.6 128.0 -111.6 L128.15 -111.0 Q127.25 -109.95 127.25 -107.5 127.1 -106.4 127.35 -105.4 127.7 -104.25 128.6 -103.8 127.8 -91.3 127.65 -78.75 127.55 -72.8 127.85 -66.75 L128.3 -58.8 Q128.5 -56.2 128.35 -53.6 L128.15 -51.05 Q126.95 -40.75 127.7 -30.45 L128.25 -21.25 128.55 -19.05 129.0 -15.95 129.5 -8.9 130.9 9.2 130.8 12.4 Q129.35 24.35 128.85 36.55 128.55 44.35 128.75 52.25 128.95 60.15 128.55 68.15 127.85 81.6 129.2 95.05 129.95 102.2 129.2 109.45 L128.75 114.15 128.15 120.1 Q127.9 122.35 127.8 124.6 L127.8 126.1 127.1 126.85 126.2 127.1 125.85 127.75 101.95 127.25 97.6 132.85 95.55 131.95 95.6 131.4 95.5 131.3 95.1 131.15 94.55 130.55 94.35 130.2 94.2 130.1 93.95 129.75 92.15 127.75 92.0 127.45 71.5 128.95 44.85 129.75 Q29.95 130.8 15.1 129.4 L1.05 128.6 Q-21.75 128.35 -44.85 129.5 L-52.55 129.9 Q-73.3 130.7 -94.0 130.3 L-121.6 129.8 Q-124.85 129.35 -127.75 127.85 L-128.0 127.3 -129.25 126.85 -128.0 87.0 -127.5 86.25 -127.5 68.25 -128.0 67.5 -127.95 48.4 -127.7 38.8 -127.5 29.25 -128.0 28.5 -128.0 27.75 -128.5 27.0 Q-128.7 8.6 -127.15 -9.8 -126.85 -13.55 -127.0 -17.25 L-127.5 -18.0 -127.5 -29.25 Q-128.9 -32.85 -128.75 -36.9 -128.1 -57.05 -128.65 -77.25 -129.15 -96.2 -127.75 -115.15 -127.55 -117.95 -127.0 -120.75 -127.35 -124.05 -123.85 -124.7 L-119.1 -124.6 -97.9 -125.85 Q-94.1 -125.75 -90.55 -124.25 -86.65 -122.5 -82.5 -122.9 L-74.0 -123.8 Q-52.35 -124.95 -30.55 -125.0 -28.7 -125.0 -28.05 -123.45 L-27.5 -123.5 Q-24.65 -121.65 -22.35 -119.2 -19.45 -116.15 -15.25 -114.75 -12.65 -111.9 -8.6 -111.1 -3.9 -110.1 0.75 -110.0 11.8 -109.7 20.8 -116.05 L21.6 -116.8 24.1 -119.95 26.7 -123.15 Q28.95 -125.65 32.35 -126.35 L33.75 -126.25 34.45 -125.65 Q45.7 -124.7 57.0 -126.1 L69.65 -127.5 Q80.15 -128.0 91.15 -127.15 L94.3 -126.85 Q94.4 -126.35 94.6 -126.15 94.8 -125.35 95.2 -125.2 L100.6 -125.0 Q104.8 -125.0 106.8 -125.85 L110.7 -125.65 M115.25 -125.15 Q111.0 -125.35 110.55 -123.0 L84.45 -123.9 Q62.75 -124.8 41.15 -122.35 37.4 -122.15 33.6 -122.4 L31.0 -122.85 Q27.65 -120.0 25.5 -116.15 24.8 -114.95 23.7 -114.05 19.15 -110.35 13.6 -108.65 2.1 -105.4 -9.55 -107.85 -11.25 -108.3 -12.6 -109.2 -20.85 -114.7 -28.75 -120.65 L-28.95 -122.2 -62.25 -120.65 -68.85 -120.3 Q-81.55 -119.2 -94.0 -121.65 -100.2 -122.9 -106.5 -121.95 L-116.6 -121.0 -118.55 -120.75 -124.0 -121.0 Q-127.0 -100.25 -125.8 -79.55 L-125.5 -73.15 Q-125.1 -56.4 -125.1 -39.7 -125.1 -31.25 -124.7 -22.75 L-124.2 -12.95 -124.05 -6.65 Q-124.1 -2.05 -124.55 2.55 -125.55 13.25 -125.15 24.05 L-124.9 28.3 Q-124.55 33.55 -124.75 38.85 L-125.45 61.2 Q-125.5 63.25 -125.1 65.3 -123.7 73.25 -124.2 81.35 -124.45 85.0 -125.1 88.6 -126.0 93.75 -125.35 99.15 -125.15 100.85 -125.45 102.65 -126.3 107.65 -124.55 112.2 -125.55 114.7 -125.85 117.35 -126.25 121.15 -126.0 125.1 -108.6 128.2 -90.9 127.2 L-34.4 125.35 Q-18.1 125.4 -1.8 124.4 L1.85 124.4 20.05 126.2 20.4 126.6 Q48.1 127.65 75.75 125.25 L84.45 124.65 90.85 125.2 91.95 126.25 92.25 126.1 92.25 125.9 92.3 125.8 92.7 125.7 92.9 126.0 93.25 126.25 93.25 126.1 93.3 125.7 93.35 125.6 Q94.1 125.45 94.85 125.6 L94.95 125.2 95.15 124.85 95.25 124.75 95.6 124.9 95.75 125.0 95.75 125.2 95.5 125.6 95.4 126.3 95.25 127.1 Q95.45 127.5 95.75 127.25 L96.15 127.25 96.25 127.85 96.25 128.4 96.35 128.6 96.5 128.9 99.6 124.25 124.4 125.25 125.45 119.25 126.45 96.75 125.95 96.0 125.95 89.25 125.45 88.5 125.45 66.0 125.95 65.25 125.45 38.25 124.95 37.5 125.45 27.0 125.95 26.25 125.95 22.5 127.45 15.75 127.45 -2.25 126.95 -3.0 126.45 -11.25 125.95 -12.0 Q126.05 -15.8 125.65 -19.55 125.1 -24.4 124.85 -29.3 124.2 -40.65 124.95 -52.0 L125.45 -52.75 124.45 -80.5 124.95 -81.25 125.3 -103.7 Q126.5 -106.35 126.5 -107.65 126.5 -108.95 125.5 -110.05 L125.55 -111.7 125.95 -118.45 Q126.15 -120.9 125.95 -123.4 L119.85 -123.15 Q119.1 -125.0 115.25 -125.15" fill="#000000" fill-rule="evenodd" stroke="none"/>
  </g>
</svg>
