<?xml version="1.0" encoding="UTF-8" standalone="no"?>
<svg xmlns:ffdec="https://www.free-decompiler.com/flash" xmlns:xlink="http://www.w3.org/1999/xlink" ffdec:objectType="shape" height="21.25px" width="13.25px" xmlns="http://www.w3.org/2000/svg">
  <g transform="matrix(1.0, 0.0, 0.0, 1.0, 92.75, 86.25)">
    <path d="M-89.5 -76.75 L-89.5 -73.95 -89.5 -70.95 -89.5 -67.75 -89.5 -65.5 -89.55 -65.3 -89.7 -65.1 -90.0 -65.0 -90.75 -65.0 -91.05 -65.1 -91.25 -65.3 -91.25 -65.5 -91.25 -65.7 -91.05 -65.85 -90.75 -66.0 -90.5 -66.1 -90.5 -68.75 -90.5 -71.35 -90.5 -74.35 -90.5 -76.25 -90.6 -76.45 -90.8 -76.6 -91.0 -76.8 -91.2 -77.0 -91.3 -77.2 -91.35 -77.35 -91.5 -77.55 -91.7 -77.75 -91.75 -77.95 -91.8 -78.1 -92.0 -78.3 -92.0 -78.7 -92.0 -79.05 -92.2 -79.25 -92.25 -79.25 -92.55 -79.35 -92.75 -79.55 -92.75 -79.75 -92.75 -80.1 -92.75 -80.5 -92.75 -80.85 -92.75 -81.25 -92.75 -81.45 -92.6 -81.6 -92.55 -81.8 -92.5 -82.0 -92.5 -82.2 -92.5 -82.35 -92.5 -82.55 -92.45 -82.75 -92.25 -82.95 -92.1 -83.1 -92.05 -83.3 -92.0 -83.5 -92.0 -83.7 -91.8 -83.85 -91.75 -84.05 -91.75 -84.25 -91.75 -84.6 -91.75 -85.0 -91.75 -85.35 -91.75 -85.75 -91.75 -85.95 -91.55 -86.1 -91.25 -86.2 -91.25 -86.25 -90.95 -86.1 -90.8 -85.95 -90.75 -85.75 -90.75 -85.55 -90.75 -85.35 -90.75 -85.2 -90.75 -85.0 -90.7 -84.9 -90.6 -85.05 -90.5 -85.2 -90.25 -85.2 -90.25 -85.25 -89.95 -85.1 -89.75 -84.95 -89.6 -84.75 -89.5 -84.55 -89.5 -84.35 -89.5 -84.2 -89.5 -84.0 -89.5 -83.95 -89.75 -83.9 -89.8 -83.85 -89.95 -83.75 -90.0 -83.55 -90.0 -83.35 -90.0 -83.2 -90.0 -83.0 -90.0 -82.8 -90.0 -82.6 -90.05 -82.45 -90.2 -82.25 -90.25 -82.05 -90.3 -81.85 -90.5 -81.7 -90.5 -81.6 -90.5 -81.5 -90.5 -81.05 -90.75 -80.95 -90.85 -80.8 -91.0 -80.6 -91.0 -80.45 -91.0 -80.25 -91.0 -80.05 -91.0 -79.95 -91.0 -79.85 -91.0 -79.7 -91.0 -79.3 -91.0 -78.95 -91.0 -78.75 -91.0 -78.55 -90.8 -78.35 -90.75 -78.2 -90.7 -78.0 -90.5 -77.8 -90.3 -77.65 -90.05 -77.45 -90.05 -77.4 -90.0 -77.25 -90.0 -77.05 -89.8 -76.85 -89.5 -76.75 M-85.75 -80.45 L-85.75 -80.5 -85.85 -80.7 -86.0 -80.85 -86.0 -81.05 -86.0 -81.25 -86.1 -81.45 -86.3 -81.6 -86.5 -81.8 -86.5 -82.0 -86.6 -82.2 -86.75 -82.35 -86.8 -82.55 -86.95 -82.75 -87.0 -82.95 -87.0 -83.1 -86.85 -83.3 -86.75 -83.45 -86.5 -83.45 -86.5 -83.5 -86.25 -83.5 -85.95 -83.35 -85.8 -83.2 -85.8 -83.1 -85.75 -83.2 -85.5 -83.2 -85.5 -83.25 -85.2 -83.1 -85.0 -83.0 -84.7 -82.85 -84.55 -82.7 -84.5 -82.5 -84.35 -82.3 -84.2 -82.1 -84.05 -81.95 -84.0 -81.75 -83.85 -81.55 -83.7 -81.35 -83.55 -81.2 -83.5 -81.0 -83.35 -80.8 -83.2 -80.6 -83.05 -80.45 -83.0 -80.25 -83.0 -80.05 -82.95 -79.85 -82.75 -79.7 -82.6 -79.5 -82.5 -79.3 -82.45 -79.1 -82.25 -78.95 -82.05 -78.75 -82.0 -78.55 -81.85 -78.35 -81.8 -78.2 -81.75 -78.0 -81.6 -77.8 -81.5 -77.6 -81.45 -77.45 -81.3 -77.25 -81.25 -77.05 -81.25 -76.85 -81.25 -76.7 -81.05 -76.5 -80.85 -76.3 -80.8 -76.1 -80.75 -75.95 -80.55 -75.75 -80.35 -75.55 -80.3 -75.35 -80.25 -75.2 -80.1 -75.0 -80.0 -74.8 -79.95 -74.6 -79.75 -74.45 -79.6 -74.25 -79.5 -74.05 -79.5 -73.85 -79.5 -73.7 -79.6 -73.5 -79.7 -73.35 -79.75 -73.35 -80.0 -73.25 -80.15 -73.3 -80.1 -73.25 -80.0 -73.05 -80.05 -72.85 -80.1 -72.7 -80.25 -72.55 -80.5 -72.5 -80.75 -72.5 -81.05 -72.6 -81.25 -72.8 -81.45 -73.0 -81.5 -73.2 -81.55 -73.35 -81.75 -73.55 -81.75 -73.75 -81.75 -73.95 -81.8 -74.1 -82.0 -74.3 -82.0 -74.5 -82.0 -74.7 -82.0 -74.85 -82.0 -75.05 -82.0 -75.25 -82.05 -75.45 -82.1 -75.6 -82.25 -75.8 -82.25 -76.0 -82.5 -76.0 -82.75 -76.05 -82.75 -76.55 -82.75 -76.95 -82.75 -77.3 -82.85 -77.5 -83.0 -77.7 -83.2 -77.85 -83.35 -78.05 -83.55 -78.25 -83.75 -78.45 -83.75 -78.6 -83.75 -78.8 -83.75 -79.0 -83.75 -79.2 -83.8 -79.35 -83.85 -79.55 -84.05 -79.75 -84.25 -79.95 -84.45 -80.1 -84.75 -80.25 -85.0 -80.25 -85.0 -80.2 -85.25 -80.2 -85.35 -80.05 -85.35 -80.0 -85.45 -80.1 -85.6 -80.3 -85.75 -80.45 M-80.75 -74.0 L-80.6 -73.8 -80.5 -73.65 -80.5 -73.75 -80.6 -73.95 -80.75 -74.05 -80.75 -74.0" fill="#000000" fill-rule="evenodd" stroke="none"/>
    <path d="M-89.5 -84.0 L-89.2 -83.85 -89.0 -83.7 -88.8 -83.5 -88.75 -83.3 -88.45 -83.1 -88.3 -82.95 -88.25 -82.75 -88.1 -82.55 -88.05 -82.35 -88.0 -82.2 -87.85 -82.0 -87.8 -81.9 -87.7 -81.85 -87.5 -81.7 -87.3 -81.6 -87.25 -81.65 -87.0 -81.75 -86.7 -81.6 -86.5 -81.45 -86.3 -81.25 -86.25 -81.05 -86.1 -80.85 -86.0 -80.7 -85.8 -80.5 -85.75 -80.45 -85.6 -80.3 -85.45 -80.1 -85.35 -80.0 -85.35 -80.05 -85.25 -80.2 -85.0 -80.2 -85.0 -80.25 -84.75 -80.25 -84.45 -80.1 -84.25 -79.95 -84.05 -79.75 -83.85 -79.55 -83.8 -79.35 -83.75 -79.2 -83.75 -79.0 -83.75 -78.8 -83.75 -78.6 -83.75 -78.45 -83.55 -78.25 -83.35 -78.05 -83.2 -77.85 -83.0 -77.7 -82.85 -77.5 -82.75 -77.3 -82.75 -76.95 -82.75 -76.55 -82.75 -76.05 -82.75 -76.0 -82.75 -75.45 -82.75 -75.05 -82.8 -74.85 -82.85 -74.7 -83.0 -74.55 -83.25 -74.5 -84.0 -74.5 -84.3 -74.6 -84.5 -74.8 -84.5 -75.0 -84.5 -75.2 -84.5 -75.35 -84.5 -75.55 -84.5 -75.75 -84.5 -75.95 -84.5 -76.1 -84.55 -76.3 -84.7 -76.5 -84.75 -76.7 -84.75 -76.85 -84.8 -77.05 -84.85 -77.15 -84.95 -77.1 -85.25 -77.0 -85.25 -76.95 -85.35 -76.75 -85.45 -76.6 -85.5 -76.55 -85.75 -76.5 -86.0 -76.5 -86.35 -76.6 -86.5 -76.5 -86.55 -76.3 -86.7 -76.1 -86.85 -75.95 -87.0 -75.75 -87.0 -75.55 -87.0 -75.35 -87.0 -75.2 -87.0 -75.0 -87.0 -74.8 -87.05 -74.6 -87.1 -74.45 -87.25 -74.3 -87.5 -74.25 -87.8 -74.35 -88.0 -74.55 -88.0 -74.75 -88.1 -74.95 -88.25 -75.1 -88.3 -75.3 -88.45 -75.5 -88.5 -75.7 -88.5 -75.85 -88.5 -76.0 -88.8 -76.1 -89.0 -76.3 -89.05 -76.35 -89.2 -76.5 -89.25 -76.55 -89.35 -76.7 -89.5 -76.75 -89.8 -76.85 -90.0 -77.05 -90.0 -77.25 -90.05 -77.4 -90.05 -77.45 -90.3 -77.65 -90.5 -77.8 -90.7 -78.0 -90.75 -78.2 -90.8 -78.35 -91.0 -78.55 -91.0 -78.75 -91.0 -78.95 -91.0 -79.3 -91.0 -79.7 -91.0 -79.85 -91.0 -79.95 -91.0 -80.05 -91.0 -80.25 -91.0 -80.45 -91.0 -80.6 -90.85 -80.8 -90.75 -80.95 -90.5 -81.05 -90.5 -81.5 -90.5 -81.6 -90.5 -81.7 -90.3 -81.85 -90.25 -82.05 -90.2 -82.25 -90.05 -82.45 -90.0 -82.6 -90.0 -82.8 -90.0 -83.0 -90.0 -83.2 -90.0 -83.35 -90.0 -83.55 -89.95 -83.75 -89.8 -83.85 -89.75 -83.9 -89.5 -83.95 -89.5 -84.0 M-89.05 -81.8 L-89.1 -81.75 -89.25 -81.55 -89.3 -81.45 -89.25 -81.3 -89.25 -81.35 -89.1 -81.55 -89.0 -81.7 -89.0 -81.8 -89.05 -81.8" fill="#6f561e" fill-rule="evenodd" stroke="none"/>
  </g>
</svg>
