<?xml version="1.0" encoding="UTF-8" standalone="no"?>
<svg xmlns:ffdec="https://www.free-decompiler.com/flash" xmlns:xlink="http://www.w3.org/1999/xlink" ffdec:objectType="shape" height="67.15px" width="134.9px" xmlns="http://www.w3.org/2000/svg">
  <g transform="matrix(1.0, 0.0, 0.0, 1.0, 77.9, 37.25)">
    <path d="M47.6 -26.7 L44.5 19.75 -64.4 13.7 -63.85 -2.15 -63.0 -3.0 -65.6 -28.15 -57.05 -28.95 Q-4.6 -33.8 47.6 -26.7" fill="#66cccc" fill-rule="evenodd" stroke="none"/>
    <path d="M54.4 -32.2 Q59.65 -3.85 54.25 24.2 53.55 27.7 51.2 29.9 -11.15 30.25 -72.1 23.2 L-70.4 -3.55 -71.25 -4.5 Q-72.9 -16.7 -75.5 -28.7 -76.1 -31.4 -77.9 -33.45 -15.5 -41.7 47.8 -32.0 L47.8 -33.05 54.4 -32.2 M47.6 -26.7 Q-4.6 -33.8 -57.05 -28.95 L-65.6 -28.15 -63.0 -3.0 -63.85 -2.15 -64.4 13.7 44.5 19.75 47.6 -26.7" fill="#6699cc" fill-rule="evenodd" stroke="none"/>
  </g>
</svg>
