<?xml version="1.0" encoding="UTF-8" standalone="no"?>
<svg xmlns:ffdec="https://www.free-decompiler.com/flash" xmlns:xlink="http://www.w3.org/1999/xlink" ffdec:objectType="shape" height="56.25px" width="105.0px" xmlns="http://www.w3.org/2000/svg">
  <g transform="matrix(1.0, 0.0, 0.0, 1.0, 51.0, 13.25)">
    <path d="M16.75 -13.25 L32.75 -13.25 33.15 -13.15 33.55 -13.05 33.9 -12.95 34.3 -12.8 34.6 -12.6 34.85 -12.4 35.05 -12.25 35.25 -12.05 35.45 -11.85 35.65 -11.65 35.8 -11.5 35.95 -11.3 36.0 -11.1 36.15 -10.9 36.3 -10.75 36.45 -10.55 36.5 -10.35 36.65 -10.15 36.7 -10.0 36.7 -9.8 36.75 -9.6 36.75 -9.4 36.75 -8.85 36.75 -8.3 36.75 -7.85 37.2 -8.25 37.45 -8.4 37.7 -8.55 37.8 -8.6 38.2 -8.75 38.45 -8.9 38.8 -9.1 39.75 -9.45 41.2 -10.05 41.8 -10.35 42.15 -10.4 42.5 -10.45 42.5 -10.5 44.5 -10.5 44.9 -10.4 45.3 -10.3 45.6 -10.1 45.85 -9.9 46.1 -9.75 46.65 -9.35 47.2 -9.0 47.5 -9.0 47.9 -8.9 48.05 -8.85 48.25 -9.05 48.55 -9.25 48.8 -9.35 49.15 -9.4 49.5 -9.45 49.5 -9.5 49.9 -9.4 50.3 -9.3 50.6 -9.1 50.85 -8.9 51.05 -8.75 51.25 -8.55 51.4 -8.35 51.5 -8.15 51.55 -8.0 51.65 -7.8 51.7 -7.6 51.75 -7.4 51.75 -7.25 51.8 -7.05 51.95 -6.85 52.0 -6.65 52.05 -6.5 52.15 -6.3 52.2 -6.1 52.25 -5.9 52.25 -4.0 52.35 -3.9 52.55 -3.75 52.7 -3.55 52.9 -3.35 53.1 -3.15 53.3 -3.0 53.45 -2.8 53.5 -2.6 53.65 -2.4 53.7 -2.25 53.8 -2.05 53.9 -1.85 53.95 -1.65 54.0 -1.5 54.0 -0.9 54.0 0.0 54.0 1.15 54.0 2.1 54.0 3.2 54.0 3.75 53.95 3.95 53.9 4.15 53.8 4.35 53.7 4.5 53.55 4.7 53.45 4.9 53.25 5.1 53.2 5.25 53.15 5.45 53.0 5.65 52.95 5.85 52.8 6.0 52.65 6.2 52.5 6.4 52.45 6.6 52.3 6.75 52.15 6.95 52.0 7.15 51.95 7.35 51.8 7.5 51.65 7.7 51.45 7.9 51.25 8.1 50.9 8.45 50.6 8.75 50.65 8.9 50.7 9.1 50.75 9.25 50.75 9.45 50.75 9.65 50.7 9.85 50.7 10.0 50.65 10.2 50.5 10.4 50.45 10.6 50.3 10.75 50.1 10.95 49.85 11.15 49.55 11.35 48.1 11.6 45.5 11.85 45.0 11.95 44.45 12.15 43.35 12.45 43.0 12.5 40.75 12.5 40.4 12.45 39.95 12.35 39.55 12.15 39.4 11.95 39.2 11.75 39.05 11.6 38.95 11.4 38.9 11.25 38.25 11.25 37.9 11.2 37.45 11.1 37.05 10.9 36.7 10.7 36.45 10.5 36.2 10.35 35.8 10.15 35.25 9.75 34.8 9.4 34.45 9.0 34.05 8.65 33.9 8.45 33.75 8.25 33.65 8.1 33.55 7.9 33.4 7.7 33.3 7.6 33.2 7.75 33.05 7.95 32.95 8.15 32.75 8.35 32.45 8.5 32.15 8.7 31.85 8.9 31.55 9.1 31.05 9.25 30.85 9.45 30.6 9.65 30.3 9.85 29.9 9.95 29.3 10.1 28.95 10.25 28.7 10.4 28.4 10.45 28.0 10.5 25.0 10.5 24.65 10.45 24.4 10.45 24.0 10.5 22.25 10.5 21.9 10.45 21.45 10.35 21.25 10.25 17.0 10.25 16.65 10.2 16.6 10.2 16.5 10.35 16.3 10.5 16.05 10.7 Q15.95 10.75 15.8 10.85 L15.7 10.9 15.3 11.0 15.05 11.2 14.7 11.4 14.3 11.6 14.05 11.75 13.8 11.95 13.45 12.15 13.25 12.35 12.95 12.5 12.55 12.7 12.3 12.85 12.2 12.9 11.9 12.95 11.5 13.0 11.25 13.0 10.9 12.95 10.45 12.8 10.1 12.7 9.7 12.6 9.3 12.4 9.15 12.2 8.95 12.05 8.7 11.85 8.3 11.65 8.15 11.45 7.95 11.3 7.7 11.1 7.1 10.7 6.05 10.15 5.9 9.95 5.7 9.75 5.5 9.65 5.45 9.85 5.45 10.0 5.4 10.2 5.25 10.4 5.2 10.6 5.05 10.75 4.9 10.95 4.7 11.15 4.5 11.35 4.3 11.5 4.05 11.7 Q3.95 11.75 3.8 11.85 L3.7 11.9 3.4 11.95 2.8 12.1 1.9 12.35 1.3 12.5 1.05 12.7 Q0.95 12.75 0.8 12.85 L0.7 12.9 0.4 12.95 0.0 13.0 -1.75 13.0 -2.1 12.95 -2.55 12.85 -2.95 12.65 -3.1 12.45 -3.3 12.25 -3.45 12.1 -3.55 11.9 -3.6 11.7 -3.7 11.5 -3.75 11.35 -3.75 10.75 -3.75 10.1 -4.2 10.25 -4.4 10.45 -4.65 10.65 -4.95 10.85 -5.35 10.95 -6.4 11.15 -7.3 11.35 -8.0 11.5 -8.6 11.65 -9.15 11.8 -9.8 12.0 -10.05 12.15 -10.35 12.2 -10.75 12.25 -13.0 12.25 -13.35 12.2 -13.8 12.1 -14.2 11.9 -14.35 11.7 -14.55 11.55 -14.8 11.35 -15.2 11.15 -15.35 10.95 -15.55 10.75 -15.75 10.6 -16.1 10.2 -16.5 9.85 -16.7 9.65 -16.85 9.45 -16.95 9.3 -17.2 9.45 -17.45 9.6 -17.55 9.65 -17.95 9.75 -18.2 9.95 -18.55 10.15 -18.75 10.35 -19.05 10.5 -19.3 10.65 -19.7 10.75 -19.9 10.95 -20.15 11.15 -20.45 11.35 -20.9 11.45 -21.25 11.5 -24.5 11.5 -24.85 11.45 -25.3 11.35 -25.7 11.15 -25.8 11.0 -25.9 10.95 -26.3 10.85 -26.7 10.65 -26.85 10.45 -27.05 10.25 -27.25 10.1 -27.45 9.9 -27.6 9.7 -27.95 9.85 -28.45 10.0 -28.7 10.2 -28.95 10.35 -29.05 10.4 -29.35 10.45 -29.75 10.5 -30.2 10.6 -30.65 10.7 -31.0 10.75 -33.5 10.75 -33.85 10.7 -34.3 10.6 -34.7 10.4 -34.8 10.25 -35.7 10.35 -35.8 10.4 -36.5 10.5 -38.6 10.6 -38.8 10.65 -39.1 10.7 -39.5 10.75 -47.75 10.75 -48.1 10.7 -48.45 10.65 -48.55 10.6 -49.0 10.5 -49.8 10.35 -50.2 10.15 -50.35 9.95 -50.55 9.75 -50.7 9.6 -50.8 9.4 -50.85 9.2 -50.95 9.0 -51.0 8.85 -51.0 8.65 -51.0 8.45 -51.0 8.25 -51.0 8.1 -51.0 7.9 -50.95 7.7 -50.85 7.5 -50.8 7.35 -50.7 7.15 -50.5 6.95 -50.3 6.75 -50.25 6.75 -50.25 6.6 -50.25 6.2 -50.25 5.85 -50.25 5.45 -50.2 5.25 -50.1 5.1 -50.05 4.9 -49.95 4.7 -49.85 4.5 -49.8 4.35 -49.7 4.15 -49.5 3.95 -49.3 3.75 -49.2 3.6 -49.2 3.4 -49.1 3.2 -49.0 3.0 -48.85 2.85 -48.7 2.65 -48.5 2.45 -48.3 2.25 -48.1 2.1 -48.0 1.9 -47.95 1.8 -48.0 1.65 -48.0 1.45 -48.0 0.5 -48.0 -0.25 -48.0 -1.0 -48.0 -2.1 -48.0 -2.85 -48.0 -4.35 -48.0 -4.55 -48.05 -4.75 -48.2 -4.9 -48.3 -5.1 -48.35 -5.3 -48.45 -5.5 -48.55 -5.85 -48.7 -6.25 -48.75 -6.4 -48.8 -6.6 -48.85 -6.8 -48.95 -7.0 -49.0 -7.15 -49.0 -7.35 -49.0 -7.55 -49.0 -7.75 -49.0 -7.9 -49.0 -8.1 -49.0 -8.3 -48.95 -8.45 -49.0 -8.6 -49.0 -8.8 -49.1 -9.0 -49.25 -9.15 -49.3 -9.35 -49.35 -9.55 -49.45 -9.75 -49.5 -9.9 -49.5 -10.1 -49.5 -10.3 -49.5 -10.5 -49.5 -10.65 -49.5 -10.85 -49.45 -11.05 -49.35 -11.25 -49.3 -11.4 -49.2 -11.6 -49.0 -11.8 -48.8 -12.0 -48.55 -12.15 -48.3 -12.3 -48.2 -12.35 -47.85 -12.4 -47.5 -12.45 -47.5 -12.5 -47.25 -12.4 -47.05 -12.55 -46.95 -12.6 -46.6 -12.65 -46.25 -12.7 -46.25 -12.75 -41.5 -12.75 -41.1 -12.65 -39.1 -12.3 -37.25 -12.0 -35.45 -11.55 -34.7 -11.3 -34.3 -11.1 -33.95 -10.9 -33.7 -10.75 -33.5 -10.55 -33.3 -10.35 -33.2 -10.15 -33.05 -10.0 -32.95 -9.8 -32.85 -9.6 -32.8 -9.4 -32.75 -9.25 -32.75 -9.05 -32.75 -8.85 -32.75 -8.65 -32.75 -8.5 -32.75 -8.3 -32.75 -8.1 -32.8 -7.9 -32.8 -7.75 -32.85 -7.55 -33.0 -7.35 -33.05 -7.15 -33.2 -7.0 -33.35 -6.8 -33.55 -6.6 -33.75 -6.4 -33.95 -6.25 -34.0 -6.05 -34.1 -5.85 -34.25 -5.65 -34.45 -5.5 -34.6 -5.3 -34.8 -5.1 -35.0 -4.95 -35.25 -4.75 -35.3 -4.55 -35.35 -4.35 -35.45 -4.15 -35.55 -4.0 -35.7 -3.8 -35.8 -3.6 -35.95 -3.4 -35.7 -3.3 -34.75 -3.2 -34.4 -3.15 -33.95 -3.05 -33.65 -2.9 -33.4 -3.2 -32.25 -4.3 -31.05 -5.4 -30.95 -5.6 -30.85 -5.8 -30.75 -6.0 -30.75 -6.15 -30.75 -6.35 -30.75 -6.55 -30.75 -6.9 -30.75 -7.5 -30.75 -8.05 -30.75 -8.6 -30.7 -8.8 -30.6 -9.0 -30.55 -9.15 -30.5 -9.35 -30.5 -9.55 -30.5 -9.75 -30.5 -9.9 -30.5 -10.1 -30.45 -10.3 -30.35 -10.5 -30.3 -10.65 -30.2 -10.85 -30.0 -11.05 -29.8 -11.25 -29.55 -11.4 Q-29.45 -11.5 -29.3 -11.55 L-29.2 -11.6 -28.85 -11.65 -28.5 -11.7 -28.5 -11.75 -27.75 -11.75 -27.4 -11.65 -26.95 -11.55 -26.65 -11.35 -26.4 -11.15 -26.2 -11.0 -26.0 -10.8 -25.85 -10.6 -25.75 -10.4 -25.6 -10.25 -25.5 -10.05 -25.3 -9.85 -25.2 -9.65 -25.05 -9.5 -24.95 -9.3 -24.85 -9.1 -24.8 -8.9 -24.75 -8.75 -24.6 -8.55 -24.5 -8.35 -24.35 -8.15 -24.3 -8.0 -24.2 -7.8 -24.1 -7.6 -24.05 -7.4 -24.0 -7.25 -23.95 -7.05 -23.8 -6.85 -23.7 -6.65 -23.55 -6.5 -23.45 -6.3 -23.35 -6.1 -23.25 -5.9 -23.1 -5.75 -23.0 -5.55 -22.85 -5.35 -22.75 -5.15 -22.6 -5.0 -22.55 -4.8 -22.45 -4.6 -22.35 -4.4 -22.25 -4.25 -22.2 -4.05 -22.05 -3.85 -22.0 -3.65 -21.85 -3.5 -21.8 -3.3 -21.7 -3.1 -21.55 -2.9 -21.45 -2.75 -21.3 -2.55 -21.1 -2.35 -21.0 -2.15 -20.85 -2.0 -20.75 -1.8 -20.6 -1.6 -20.5 -1.4 -20.45 -1.25 -20.3 -1.05 -20.25 -0.85 -20.25 -0.65 -20.2 -0.5 -20.1 -0.3 -20.05 -0.1 -20.0 0.1 -20.0 -0.65 -20.0 -1.6 -19.95 -1.8 -19.85 -2.0 -19.8 -2.15 -19.75 -2.35 -19.75 -2.55 -19.7 -2.75 -19.7 -2.9 -19.6 -3.1 -19.55 -3.3 -19.5 -3.5 -19.5 -3.65 -19.5 -3.85 -19.5 -4.05 -19.5 -4.25 -19.5 -4.4 -19.5 -4.6 -19.45 -4.8 -19.35 -5.0 -19.3 -5.15 -19.2 -5.35 -19.1 -5.55 -19.0 -5.75 -18.85 -5.9 -18.75 -6.1 -18.7 -6.3 -18.6 -6.5 -18.55 -6.65 -18.45 -6.85 -18.25 -7.05 -18.1 -7.25 -18.05 -7.4 -17.95 -7.6 -17.85 -7.8 -17.75 -8.0 -17.6 -8.15 -17.45 -8.35 -17.25 -8.55 -17.05 -8.75 -16.8 -8.9 Q-16.7 -9.0 -16.55 -9.05 L-16.45 -9.1 -16.05 -9.25 -15.85 -9.4 -15.7 -9.6 -15.3 -9.8 -14.85 -9.9 -14.35 -10.05 -13.85 -10.15 -13.5 -10.2 -13.5 -10.25 -9.75 -10.25 -9.4 -10.15 -8.95 -10.05 -8.6 -9.9 -8.3 -9.85 -8.2 -9.8 -7.4 -9.65 -6.35 -9.4 -5.95 -9.3 -5.6 -9.1 -5.45 -9.0 -5.35 -8.95 -4.95 -8.8 -4.75 -8.65 -4.75 -8.75 -4.75 -8.9 -4.75 -9.1 -4.7 -9.3 -4.6 -9.5 -4.55 -9.65 -4.45 -9.85 -4.25 -10.05 -4.05 -10.25 -3.85 -10.4 -3.7 -10.6 -3.5 -10.8 -3.2 -11.0 -2.8 -11.15 -2.55 -11.3 -2.45 -11.35 -2.05 -11.5 -1.8 -11.65 Q-1.7 -11.75 -1.55 -11.8 L-1.45 -11.85 -1.1 -11.9 -0.75 -11.95 -0.75 -12.0 1.25 -12.0 1.6 -11.9 2.05 -11.8 2.35 -11.6 2.6 -11.4 2.8 -11.25 3.0 -11.05 3.15 -10.85 3.25 -10.65 3.3 -10.5 3.4 -10.3 3.45 -10.1 3.5 -9.9 3.65 -9.75 3.75 -9.7 4.0 -9.8 4.2 -10.0 4.45 -10.15 4.8 -10.35 5.2 -10.55 5.65 -10.65 6.0 -10.75 7.0 -10.75 7.4 -10.65 8.4 -10.4 8.8 -10.35 10.05 -10.05 10.45 -9.85 10.7 -9.65 10.95 -9.55 11.25 -9.5 11.6 -9.4 12.05 -9.3 12.25 -9.15 12.25 -9.3 12.3 -9.5 12.4 -9.65 12.45 -9.85 12.55 -10.05 12.7 -10.25 12.9 -10.4 13.05 -10.6 13.25 -10.8 13.55 -11.0 13.8 -11.1 14.15 -11.15 14.5 -11.25 14.75 -11.35 14.75 -11.55 14.8 -11.75 14.9 -11.9 14.95 -12.1 15.05 -12.3 15.2 -12.5 15.4 -12.65 15.55 -12.85 15.95 -13.05 16.4 -13.15 16.75 -13.2 16.75 -13.25 M7.25 -6.25 L7.25 -6.05 7.2 -5.85 7.2 -5.65 7.15 -5.5 7.0 -5.3 7.0 -5.1 7.0 -4.9 7.0 -4.75 7.0 -4.55 7.0 -4.35 6.95 -4.15 6.95 -4.0 6.9 -3.8 6.75 -3.6 6.7 -3.4 6.55 -3.25 6.4 -3.05 6.25 -2.85 6.2 -2.65 6.05 -2.5 6.0 -2.3 5.9 -2.1 5.75 -1.9 5.55 -1.75 5.3 -1.55 5.05 -1.4 4.95 -1.35 4.65 -1.3 4.25 -1.25 4.0 -1.25 3.65 -1.3 3.2 -1.4 2.8 -1.6 2.65 -1.8 2.45 -2.0 2.3 -2.15 2.2 -2.35 2.05 -2.55 2.0 -2.75 1.9 -2.9 1.8 -3.1 1.8 -3.3 1.7 -3.5 1.65 -3.65 1.5 -3.85 1.4 -4.05 1.25 -4.25 1.15 -4.4 1.05 -4.6 1.05 -4.8 1.0 -5.0 1.0 -5.15 0.95 -5.35 0.9 -5.55 0.75 -5.75 0.55 -6.3 0.4 -6.85 0.15 -7.4 0.05 -7.9 0.0 -7.85 -0.05 -7.65 -0.05 -7.5 -0.1 -7.3 -0.25 -7.1 -0.25 -5.8 -0.25 -4.5 -0.25 -3.15 -0.25 -2.4 -0.2 -2.25 -0.1 -2.05 -0.05 -1.85 -0.05 -1.65 0.0 -1.5 0.0 -1.1 0.0 -0.9 0.0 -0.75 0.0 -0.35 0.0 -0.15 0.05 0.0 0.15 0.2 0.2 0.4 0.25 0.6 0.25 2.85 0.25 3.1 0.3 3.25 0.4 3.45 0.45 3.65 0.5 3.85 0.5 4.0 0.5 4.2 0.5 4.4 0.5 4.6 0.5 4.95 0.5 5.15 0.5 5.35 0.5 5.5 0.5 5.7 0.45 5.9 0.4 6.1 0.3 6.25 0.25 6.45 0.25 7.35 0.25 8.45 0.25 8.5 0.7 8.5 1.05 8.4 1.45 8.25 1.5 8.1 1.5 7.5 1.5 6.95 1.5 6.4 1.5 6.0 1.4 5.85 1.3 5.65 1.3 5.45 1.25 5.25 1.25 5.1 1.25 4.9 1.25 4.7 1.3 4.5 1.4 4.35 1.45 4.15 1.55 3.95 1.7 3.75 1.9 3.6 2.05 3.4 2.45 3.2 2.9 3.1 3.25 3.0 3.65 3.1 4.05 3.2 5.15 3.9 6.45 4.9 6.65 5.1 6.75 5.25 6.9 5.45 7.0 5.65 7.75 6.25 8.35 6.75 8.55 6.95 9.3 7.35 9.9 7.7 10.2 7.9 10.4 8.1 10.55 8.25 11.05 8.45 11.45 8.45 12.0 8.25 12.4 8.1 12.3 7.9 12.2 7.7 12.05 7.5 11.9 7.35 11.55 7.15 11.2 6.95 10.55 6.4 9.85 5.8 9.55 5.65 9.2 5.45 8.75 5.05 8.35 4.7 7.95 4.35 7.55 4.15 7.2 3.75 7.0 3.6 6.8 3.4 6.65 3.2 6.5 3.0 6.4 2.85 6.3 2.65 6.2 2.45 6.15 2.25 6.05 2.1 6.0 1.9 6.0 1.7 6.0 1.5 6.0 1.35 6.0 1.15 6.0 0.95 6.0 0.75 6.05 0.6 6.05 0.4 6.15 0.2 6.25 0.0 6.4 -0.15 6.45 -0.35 6.55 -0.55 6.7 -0.75 6.9 -0.9 7.05 -1.1 7.15 -1.3 7.25 -1.5 7.4 -1.65 7.75 -2.05 8.2 -2.4 8.5 -2.6 8.65 -2.8 8.75 -3.0 8.9 -3.15 9.05 -3.35 9.25 -3.55 9.55 -3.75 9.9 -3.9 10.05 -4.1 10.25 -4.3 10.3 -4.5 10.4 -4.65 10.45 -4.85 10.55 -5.05 10.7 -5.25 10.65 -5.4 10.15 -5.55 9.7 -5.65 9.3 -5.85 8.95 -6.05 8.75 -6.15 8.5 -6.25 8.15 -6.3 7.65 -6.4 7.25 -6.4 7.25 -6.25 M14.95 -4.85 L14.9 -4.65 14.8 -4.5 14.75 -4.3 14.65 -4.1 14.55 -3.9 14.5 -3.75 14.4 -3.55 14.25 -3.35 14.2 -3.15 14.15 -3.0 14.0 -2.8 13.95 -2.6 13.8 -2.4 13.7 -2.25 13.55 -2.05 13.45 -1.85 13.25 -1.65 13.05 -1.5 12.9 -1.3 12.7 -1.1 12.3 -0.75 11.8 -0.35 11.7 -0.15 11.55 0.0 11.4 0.2 11.2 0.4 11.0 0.6 10.7 0.75 10.5 0.95 10.45 1.15 10.65 1.35 10.95 1.5 11.25 1.7 11.45 1.9 11.65 2.1 11.75 2.25 12.0 2.45 12.3 2.65 12.55 2.85 12.8 3.05 13.2 3.4 13.4 3.6 13.7 3.75 14.05 3.95 14.35 4.15 14.6 4.35 15.0 4.7 15.15 4.9 15.25 5.1 15.4 5.25 15.5 5.45 15.7 5.65 15.9 5.85 16.0 6.0 16.05 6.2 16.2 6.4 16.25 6.45 16.45 6.35 16.7 6.2 17.6 5.95 20.4 5.65 20.7 5.45 21.0 5.4 21.0 5.1 21.0 4.35 21.0 3.2 21.0 2.1 21.0 1.5 21.05 1.35 21.05 1.15 21.15 0.95 21.2 0.75 21.2 0.6 21.25 0.4 21.25 0.2 21.25 0.0 21.25 -0.15 21.25 -0.35 21.3 -0.55 21.4 -0.75 21.45 -0.9 21.5 -1.05 21.4 -1.25 21.3 -1.4 21.25 -1.6 21.2 -1.8 21.05 -2.0 20.95 -2.15 20.8 -2.35 20.7 -2.55 20.65 -2.75 20.55 -2.9 20.5 -3.1 20.45 -3.3 20.4 -3.5 20.3 -3.65 20.25 -3.85 20.15 -4.05 19.95 -4.25 19.8 -4.4 19.75 -4.5 19.4 -4.55 19.0 -4.5 17.5 -4.5 17.15 -4.55 16.7 -4.65 16.3 -4.85 16.2 -5.0 15.75 -5.0 15.4 -5.05 15.0 -5.1 15.0 -5.05 14.95 -4.85 M27.3 -8.85 L27.7 -9.05 28.15 -9.15 22.25 -9.1 22.2 -8.9 22.2 -8.75 22.15 -8.55 22.0 -8.35 21.95 -8.15 22.05 -8.0 22.25 -7.8 22.45 -7.6 22.65 -7.4 22.8 -7.25 22.95 -7.05 23.05 -6.85 23.15 -6.65 23.3 -6.5 23.5 -6.3 23.65 -6.1 23.75 -5.9 23.8 -5.75 23.95 -5.55 24.0 -5.35 24.3 -5.3 24.6 -5.1 24.85 -4.9 25.05 -4.75 25.2 -4.55 25.25 -4.35 25.4 -4.15 25.45 -4.0 25.45 -3.8 25.5 -3.6 25.5 -3.25 25.5 -2.65 25.5 -1.9 25.5 -1.6 25.5 -1.4 25.5 -1.25 25.5 -1.15 25.5 -1.05 25.5 -0.85 25.55 -0.65 25.65 -0.5 25.65 -0.3 25.7 -0.1 25.7 0.1 25.75 0.25 25.8 0.45 25.9 0.65 25.95 0.85 26.0 1.0 26.05 1.2 26.05 1.4 26.15 1.6 26.15 1.75 26.2 1.95 26.25 2.15 26.25 -0.05 26.25 -0.45 26.2 -0.55 26.15 -0.75 26.05 -0.9 26.0 -1.1 26.0 -1.65 26.0 -2.25 26.0 -2.6 26.0 -3.0 26.0 -3.35 26.05 -3.55 26.15 -3.75 26.2 -3.9 26.25 -4.0 26.25 -5.3 26.3 -5.5 26.4 -5.65 26.45 -5.85 26.5 -6.05 26.5 -6.25 26.5 -6.4 26.5 -6.6 26.5 -6.8 26.5 -7.0 26.5 -7.35 26.5 -7.55 26.55 -7.75 26.65 -7.9 26.7 -8.1 26.8 -8.3 26.95 -8.5 27.15 -8.65 27.3 -8.85 M30.25 -8.5 L31.4 -8.2 32.4 -7.85 32.7 -7.8 32.75 -7.9 32.75 -8.1 32.75 -8.3 32.75 -8.5 32.7 -8.65 32.55 -8.85 32.4 -9.05 32.2 -9.15 28.9 -9.15 29.3 -9.05 29.6 -8.85 29.85 -8.65 30.05 -8.5 30.25 -8.5 M30.3 -2.0 L30.45 -1.8 30.5 -1.6 30.65 -1.4 30.75 -1.25 30.8 -1.05 30.95 -0.85 31.15 -0.65 31.3 -0.5 31.45 -0.3 31.5 -0.1 31.65 0.1 31.7 0.25 31.75 0.45 31.9 0.65 32.0 0.85 32.15 1.0 32.2 1.2 32.25 1.3 32.25 0.75 32.25 0.2 32.3 0.0 32.3 -0.15 32.4 -0.35 32.45 -0.55 32.5 -0.75 32.5 -0.9 32.5 -1.1 32.5 -1.3 32.55 -1.5 32.65 -1.65 32.7 -1.85 32.75 -2.05 32.9 -2.25 32.95 -2.4 33.05 -2.6 33.15 -2.8 33.25 -3.0 33.4 -3.15 33.5 -3.35 33.55 -3.5 32.5 -3.5 32.15 -3.55 31.7 -3.65 31.3 -3.85 31.15 -4.05 30.9 -4.05 30.75 -3.85 30.7 -3.65 30.55 -3.5 30.5 -3.3 30.45 -3.1 30.4 -2.9 30.3 -2.75 30.25 -2.55 30.25 -2.05 30.3 -2.0 M39.95 -4.85 L39.75 -4.65 39.55 -4.5 39.3 -4.3 39.05 -4.1 38.95 -3.9 38.8 -3.75 38.65 -3.55 38.45 -3.35 38.25 -3.15 38.05 -3.0 37.8 -2.8 37.65 -2.6 37.55 -2.4 37.45 -2.25 37.3 -2.05 37.25 -1.85 37.15 -1.65 37.05 -1.5 37.0 -1.3 36.9 -1.1 36.75 -0.9 36.65 -0.75 36.5 -0.55 36.5 -0.35 36.5 -0.15 36.5 0.0 36.45 0.2 36.4 0.4 36.3 0.6 36.25 0.75 36.25 1.15 36.25 1.7 36.25 2.25 36.25 3.0 36.25 3.75 36.25 4.5 36.25 4.7 36.3 4.9 36.4 5.1 36.55 5.25 36.75 5.45 36.9 5.65 37.0 5.85 37.15 6.0 37.25 6.2 37.45 6.4 37.7 6.55 38.0 6.75 38.3 6.95 38.65 7.15 41.2 7.2 41.3 7.15 41.65 7.05 41.8 7.0 41.55 6.9 41.2 6.7 40.95 6.5 40.7 6.35 40.3 6.15 39.95 5.75 39.75 5.6 39.2 5.0 39.0 4.85 38.65 4.45 38.45 4.25 38.3 4.1 38.2 3.9 38.15 3.7 38.0 3.5 37.95 3.35 37.9 3.15 37.75 2.95 37.65 2.75 37.5 2.6 37.45 2.4 37.4 2.2 37.3 2.0 37.25 1.85 37.25 1.65 37.25 1.45 37.25 1.25 37.25 1.1 37.25 0.7 37.25 0.5 37.25 0.35 37.25 0.15 37.3 -0.05 37.4 -0.25 37.45 -0.4 37.5 -0.6 37.5 -0.8 37.5 -1.0 37.55 -1.15 37.55 -1.35 37.65 -1.55 37.75 -1.75 37.9 -1.9 38.05 -2.1 38.25 -2.3 38.4 -2.5 38.45 -2.65 38.55 -2.85 38.75 -3.05 38.9 -3.25 39.0 -3.4 39.15 -3.6 39.25 -3.8 39.45 -4.0 39.65 -4.15 39.8 -4.35 40.0 -4.55 40.4 -4.9 40.55 -5.1 40.95 -5.3 41.4 -5.4 41.75 -5.45 41.75 -5.5 42.0 -5.5 42.4 -5.4 42.8 -5.3 43.15 -5.1 43.3 -5.0 43.4 -4.95 43.8 -4.8 44.1 -4.6 44.35 -4.4 44.55 -4.25 44.95 -3.85 45.3 -3.5 45.45 -3.3 45.55 -3.1 45.65 -2.9 45.75 -2.75 45.8 -2.55 45.9 -2.35 45.95 -2.15 46.0 -2.0 46.0 -1.8 46.0 -1.6 46.15 -1.4 46.3 -1.25 46.5 -1.05 46.65 -0.85 46.75 -0.65 46.8 -0.5 46.9 -0.3 46.95 -0.1 47.0 0.1 47.0 0.45 47.0 0.85 47.0 1.4 47.0 1.95 47.0 2.5 47.0 3.25 47.0 3.45 46.95 3.65 46.9 3.85 46.8 4.0 46.75 4.2 46.65 4.4 46.5 4.6 46.5 4.75 46.45 4.95 46.4 5.15 46.35 5.3 46.45 5.25 46.65 5.1 46.8 4.9 46.9 4.7 47.0 4.5 47.15 4.35 47.3 4.15 47.5 3.95 47.55 3.75 47.65 3.6 47.7 3.4 47.75 3.2 47.9 3.0 47.95 2.85 48.0 2.65 48.0 2.25 48.0 1.9 48.0 1.5 48.0 0.95 48.0 0.4 48.0 -0.35 48.0 -0.75 47.9 -0.9 47.8 -1.1 47.7 -1.3 47.65 -1.5 47.5 -1.65 47.45 -1.85 47.3 -2.05 47.25 -2.25 47.15 -2.4 47.05 -2.6 47.0 -2.8 46.95 -3.0 46.9 -3.15 46.8 -3.35 46.65 -3.55 46.45 -3.75 46.3 -3.9 46.2 -4.1 46.05 -4.3 45.95 -4.5 45.75 -4.65 45.55 -4.85 45.45 -5.05 45.3 -5.25 45.2 -5.4 45.0 -5.6 44.7 -5.8 44.45 -6.0 44.2 -6.15 43.8 -6.35 42.8 -6.4 42.7 -6.35 42.3 -6.2 41.8 -6.0 41.55 -5.8 41.2 -5.6 40.8 -5.4 40.55 -5.25 40.3 -5.05 39.95 -4.85 M42.45 0.5 L42.4 0.7 42.3 0.9 42.25 1.1 42.2 1.25 42.15 1.45 42.05 1.65 41.95 1.85 41.95 2.0 42.0 2.2 42.2 2.4 42.4 2.6 42.55 2.75 42.75 2.85 42.9 2.7 43.0 2.5 43.0 2.35 43.0 2.15 43.0 1.95 43.0 1.75 43.0 1.6 43.0 1.4 43.0 1.2 42.95 1.0 42.8 0.85 42.65 0.65 42.55 0.5 42.55 0.45 42.5 0.45 42.45 0.5 M23.15 19.1 L23.5 19.0 25.25 19.0 25.65 19.1 26.05 19.2 26.4 19.3 26.8 19.45 27.1 19.65 27.35 19.85 27.55 20.0 27.75 20.2 27.95 20.4 28.15 20.6 28.3 20.75 28.45 20.95 28.5 21.15 28.65 21.35 28.7 21.5 28.7 21.7 28.8 21.9 28.9 22.1 29.0 22.25 29.05 22.45 29.15 22.65 29.2 22.85 29.25 23.0 29.25 23.2 29.25 23.75 29.25 24.5 29.25 25.65 29.25 26.95 29.25 28.0 29.3 27.95 29.4 27.75 29.5 27.6 29.55 27.4 29.65 27.2 29.75 27.0 29.9 26.85 30.0 26.65 30.15 26.45 30.2 26.25 30.25 26.1 30.25 25.9 30.25 25.7 30.25 25.5 30.25 25.35 30.25 25.15 30.25 24.95 30.25 24.6 30.25 24.0 30.25 23.65 30.2 23.45 30.15 23.25 30.05 23.1 30.0 22.9 30.0 22.7 29.95 22.5 29.8 22.35 29.7 22.15 29.65 21.95 29.55 21.75 29.5 21.6 29.5 21.4 29.5 21.2 29.5 21.0 29.5 20.85 29.5 20.65 29.5 20.45 29.55 20.25 29.65 20.1 29.7 19.9 29.8 19.7 29.95 19.5 30.15 19.35 30.3 19.15 30.7 18.95 31.05 18.75 31.3 18.65 31.65 18.6 32.0 18.55 32.0 18.5 36.0 18.5 36.4 18.6 36.8 18.7 37.2 18.9 37.55 19.1 37.95 19.25 38.25 19.45 38.45 19.65 38.55 19.85 38.7 20.0 38.8 20.2 38.9 20.4 39.0 20.6 39.05 20.75 39.15 20.95 39.2 21.15 39.25 21.35 39.25 21.5 39.25 22.85 39.25 25.45 39.25 28.25 39.25 31.1 39.2 31.25 39.15 31.45 39.05 31.65 39.0 31.85 39.0 32.0 38.95 32.2 38.9 32.4 38.8 32.6 38.7 32.75 38.55 32.95 38.45 33.15 38.3 33.35 38.25 33.5 38.25 33.7 38.25 33.9 38.25 34.1 38.2 34.25 38.15 34.45 38.05 34.65 38.0 34.85 37.95 35.0 37.9 35.2 37.8 35.4 37.75 35.6 37.75 35.75 37.7 35.95 37.65 36.15 37.55 36.35 37.5 36.5 37.5 36.7 37.45 36.9 37.4 37.1 37.3 37.25 37.25 37.45 37.15 37.65 37.0 37.85 36.8 38.0 36.65 38.2 36.5 38.4 36.45 38.6 36.3 38.75 36.15 38.95 36.0 39.15 35.9 39.35 35.75 39.5 35.55 39.7 35.45 39.9 35.3 40.1 35.2 40.25 35.05 40.45 34.95 40.65 34.75 40.85 34.35 41.2 33.8 41.55 33.05 41.95 32.3 42.35 31.9 42.45 31.3 42.6 30.9 42.7 30.5 42.75 25.75 42.75 25.4 42.7 24.95 42.6 24.55 42.4 24.4 42.2 24.2 42.0 24.0 41.85 23.75 41.65 23.45 41.45 23.2 41.25 22.8 40.9 22.7 40.7 22.65 40.5 22.5 40.35 22.3 40.15 22.2 39.95 22.15 39.75 22.0 39.6 21.95 39.4 21.8 39.2 21.7 39.0 21.5 38.85 21.3 38.65 21.2 38.45 21.15 38.25 21.0 38.1 20.75 38.35 20.1 38.85 18.7 39.65 18.5 39.85 18.2 40.0 17.95 40.15 17.65 40.2 17.25 40.25 16.25 40.25 15.9 40.2 15.45 40.1 15.05 39.9 14.75 39.7 14.3 39.5 13.95 39.35 13.7 39.15 13.4 38.95 13.2 38.75 13.0 38.6 12.8 38.4 12.65 38.2 12.3 38.05 11.95 37.85 11.55 37.65 11.3 37.45 11.05 37.25 10.85 37.1 10.65 36.9 10.4 36.7 10.2 36.5 10.0 36.4 10.05 36.6 10.15 36.75 10.2 36.95 10.2 37.15 10.25 37.35 10.25 37.5 10.25 37.7 10.25 37.9 10.25 38.1 10.25 38.25 10.25 38.45 10.25 38.65 10.25 38.85 10.25 39.0 10.2 39.2 10.15 39.4 10.05 39.6 10.0 39.75 9.9 39.95 9.75 40.15 9.7 40.35 9.55 40.5 9.5 40.7 9.45 40.9 9.4 41.1 9.3 41.25 9.25 41.45 9.15 41.65 9.0 41.85 8.8 42.0 8.55 42.2 Q8.45 42.25 8.3 42.35 L8.2 42.4 7.8 42.5 7.55 42.7 7.3 42.85 7.2 42.9 6.9 42.95 6.5 43.0 5.25 43.0 4.9 42.95 4.4 42.85 3.9 42.7 3.45 42.6 3.05 42.4 2.9 42.2 2.55 42.0 2.25 41.85 2.05 41.65 1.9 41.45 1.75 41.25 1.65 41.1 1.55 40.9 1.4 40.7 1.25 40.5 1.2 40.4 0.8 40.6 0.45 40.75 0.05 40.95 -0.3 41.15 -0.7 41.35 -1.1 41.45 -1.7 41.6 -2.15 41.7 -2.5 41.75 -9.0 41.75 -9.35 41.7 -9.8 41.6 -10.0 41.5 -10.05 41.5 -10.3 41.65 -10.6 41.7 -11.0 41.75 -13.25 41.75 -13.6 41.7 -13.95 41.65 -14.05 41.6 -14.5 41.5 -14.85 41.45 -15.3 41.35 -15.7 41.15 -16.05 40.95 -16.3 40.75 -16.55 40.6 -16.95 40.4 -17.1 40.2 -17.3 40.0 -17.45 39.85 -17.55 39.65 -17.7 39.45 -17.8 39.25 -17.95 39.1 -18.2 38.7 -18.45 38.35 -18.6 38.45 -18.8 38.65 -19.0 38.85 -19.2 39.0 -19.35 39.2 -19.55 39.4 -19.75 39.6 -20.05 39.75 -20.35 39.95 -20.55 40.15 -20.7 40.35 -20.8 40.5 -20.95 40.7 -21.05 40.9 -21.25 41.1 -21.55 41.25 -21.8 41.4 -22.1 41.45 -22.5 41.5 -22.75 41.5 -23.1 41.45 -23.55 41.35 -23.95 41.15 -24.1 40.95 -24.3 40.75 -24.5 40.6 -24.7 40.4 -24.85 40.2 -25.05 40.0 -25.2 39.85 -25.3 39.65 -25.45 39.45 -25.55 39.25 -25.75 39.1 -25.95 38.9 -26.1 38.7 -26.25 38.5 -26.35 38.35 -26.45 38.15 -26.45 37.95 -26.5 37.75 -26.55 37.6 -26.6 37.4 -26.75 37.5 -26.75 37.7 -26.75 37.9 -26.8 38.1 -26.8 38.25 -26.85 38.45 -27.0 38.65 -27.05 38.85 -27.2 39.0 -27.4 39.2 -27.65 39.4 -27.95 39.6 -28.2 39.75 -28.45 39.95 -28.8 40.15 -29.0 40.35 -29.3 40.5 -29.55 40.65 -29.85 40.7 -30.25 40.75 -32.25 40.75 -32.6 40.7 -33.05 40.6 -33.45 40.4 -33.8 40.2 -34.05 40.0 -34.25 39.85 -34.45 39.65 -34.6 39.45 -34.75 39.25 -34.85 39.1 -34.95 38.9 -34.95 38.7 -35.0 38.5 -35.0 38.35 -35.0 37.75 -35.0 37.0 -35.0 35.7 -35.0 34.4 -35.0 33.65 -34.95 33.45 -34.85 33.25 -34.8 33.1 -34.7 32.9 -34.55 32.7 -34.5 32.5 -34.45 32.35 -34.45 32.15 -34.35 31.95 -34.25 31.75 -34.2 31.6 -34.05 31.4 -33.95 31.2 -33.8 31.0 -33.75 30.85 -33.75 30.1 -33.75 28.2 -33.75 25.95 -33.75 23.5 -33.75 22.4 -33.7 22.2 -33.6 22.0 -33.55 21.85 -33.5 21.65 -33.5 21.45 -33.5 21.25 -33.45 21.1 -33.45 20.9 -33.35 20.7 -33.25 20.5 -33.2 20.35 -33.05 20.15 -33.0 19.95 -33.0 19.75 -33.0 19.6 -33.0 19.4 -32.95 19.2 -32.85 19.0 -32.8 18.85 -32.7 18.65 -32.5 18.45 -32.3 18.25 -32.1 18.1 -31.95 17.9 -31.75 17.7 -31.45 17.5 -31.2 17.4 -30.75 17.25 -30.45 17.15 -30.1 17.1 -29.75 17.0 -28.5 17.0 -28.15 17.1 -27.7 17.2 -27.3 17.4 -26.95 17.6 -26.7 17.75 -26.5 17.95 -26.35 18.15 -26.25 18.35 -26.2 18.5 -26.05 18.7 -25.85 18.9 -25.65 19.1 -25.45 19.25 -25.3 19.45 -25.1 19.65 -24.85 19.8 -24.55 20.0 -24.25 20.2 -24.05 20.4 -23.85 20.6 -23.75 20.75 -23.7 20.95 -23.55 21.15 -23.35 21.35 -23.2 21.5 -23.0 21.7 -22.85 21.9 -22.75 22.1 -22.6 22.25 -22.5 22.45 -22.35 22.65 -22.25 22.85 -22.1 23.0 -22.05 23.2 -21.95 23.4 -21.85 23.6 -21.75 23.75 -21.7 23.95 -21.6 24.15 -21.55 24.35 -21.5 24.5 -21.45 24.7 -21.35 24.9 -21.3 25.1 -21.2 25.25 -21.0 25.45 -20.9 25.4 -20.8 25.25 -20.75 25.1 -20.7 24.9 -20.6 24.7 -20.5 24.5 -20.45 24.35 -20.35 24.15 -20.3 23.95 -20.25 23.75 -20.2 23.6 -20.05 23.4 -20.0 23.2 -19.85 23.0 -19.8 22.85 -19.7 22.65 -19.6 22.45 -19.5 22.25 -19.45 22.1 -19.3 21.9 -19.25 21.7 -19.1 21.5 -19.05 21.35 -19.0 21.15 -18.95 20.95 -18.85 20.75 -18.8 20.6 -18.7 20.4 -18.5 20.2 -18.3 20.0 -18.2 19.85 -18.05 19.65 -18.0 19.45 -17.85 19.25 -17.75 19.1 -17.6 18.9 -17.5 18.7 -17.3 18.5 -17.1 18.35 -16.95 18.15 -16.85 17.95 -16.75 17.75 -16.6 17.6 -16.45 17.4 -16.25 17.2 -15.95 17.0 -15.7 16.9 -15.35 16.85 -15.0 16.8 -15.0 16.75 -13.75 16.75 -13.4 16.85 -12.95 16.95 -12.55 17.15 -12.2 17.35 -11.95 17.5 -11.75 17.7 -11.6 17.9 -11.5 18.1 -11.45 18.25 -11.35 18.45 -11.3 18.65 -11.25 18.85 -11.1 19.0 -11.05 19.2 -11.0 19.3 -10.95 19.25 -10.7 19.15 -10.35 19.1 -10.0 19.0 -8.95 18.9 -8.55 18.7 -8.2 18.5 -7.95 18.4 -7.5 18.25 -7.2 18.15 -6.85 18.1 -6.5 18.05 -6.5 18.0 -4.25 18.0 -3.9 18.1 -2.85 18.35 -2.45 18.45 -1.85 18.6 -1.45 18.7 -1.05 18.9 -0.8 19.0 -0.6 19.1 -0.2 19.2 0.1 19.4 0.35 19.6 0.55 19.75 0.8 19.95 1.1 20.15 1.35 20.35 1.55 20.5 1.75 20.7 1.75 20.65 1.8 20.45 1.9 20.25 1.95 20.1 2.05 19.9 2.25 19.7 2.4 19.5 2.45 19.35 2.55 19.15 2.75 18.95 2.95 18.75 3.15 18.6 3.3 18.4 3.7 18.2 4.15 18.1 4.5 18.05 4.5 18.0 4.75 18.0 5.15 18.1 5.55 18.2 5.85 18.4 6.1 18.6 6.3 18.75 6.5 18.95 6.9 19.35 7.05 19.5 7.2 19.7 7.3 19.9 7.45 20.1 7.65 20.25 7.9 20.45 8.2 20.65 8.4 20.85 8.55 21.0 8.7 21.2 8.9 21.4 9.0 21.6 9.15 21.75 9.4 21.95 9.7 22.15 10.05 22.5 10.25 22.7 10.65 23.1 11.0 23.45 11.4 23.85 11.45 23.8 11.5 23.65 11.5 23.45 11.5 23.25 11.5 23.1 11.5 22.9 11.5 22.7 11.55 22.5 11.65 22.35 11.7 22.15 11.75 21.95 11.9 21.75 11.95 21.6 12.05 21.4 12.25 21.2 12.45 21.0 12.55 20.85 12.7 20.65 12.75 20.45 12.9 20.25 12.95 20.1 13.05 19.9 13.25 19.7 13.45 19.5 13.7 19.35 14.05 19.15 14.45 18.95 14.9 18.85 15.25 18.75 16.5 18.75 16.85 18.85 17.3 18.95 17.65 19.05 18.05 19.2 18.45 19.4 18.8 19.6 19.2 19.75 19.5 19.95 19.7 20.15 19.9 20.35 20.05 20.5 20.2 20.65 20.25 20.5 20.4 20.35 20.55 20.15 20.75 19.95 20.95 19.75 21.2 19.6 21.45 19.45 21.55 19.4 21.9 19.35 22.25 19.25 22.7 19.2 22.8 19.15 23.15 19.1 M22.0 24.1 L22.0 24.65 22.0 25.4 22.0 25.95 22.0 26.15 22.15 26.35 22.2 26.5 22.2 26.7 22.25 26.9 22.25 27.1 22.25 27.25 22.25 27.45 22.25 27.65 22.25 27.85 22.3 28.0 22.4 28.2 22.45 28.4 22.5 28.6 22.5 29.5 22.5 29.75 22.55 29.75 22.75 29.95 22.95 30.15 23.15 30.35 23.25 30.5 23.3 30.7 23.45 30.9 23.5 31.1 23.65 31.25 23.75 31.45 23.9 31.65 24.0 31.85 24.15 32.0 24.2 32.2 24.4 32.4 24.6 32.6 24.8 32.75 24.95 32.95 25.0 33.15 25.15 33.35 25.2 33.5 25.25 33.7 25.45 33.9 25.55 34.1 25.7 34.25 25.8 34.45 25.9 34.65 25.95 34.85 26.05 35.0 26.2 35.2 26.25 35.4 26.75 35.4 26.75 35.2 26.75 35.0 26.75 34.85 26.55 34.65 26.4 34.45 26.25 34.25 26.15 34.1 26.05 33.9 26.05 33.7 26.0 33.5 25.95 33.35 25.8 33.15 25.7 32.95 25.65 32.75 25.55 32.6 25.5 32.4 25.45 32.2 25.4 32.0 25.3 31.85 25.25 31.65 25.25 31.45 25.25 30.5 25.25 28.65 25.25 26.4 25.25 24.15 25.25 23.75 25.15 23.6 25.05 23.4 24.95 23.2 24.95 23.15 23.8 23.1 23.7 23.15 23.4 23.2 22.8 23.35 22.4 23.45 22.0 23.5 22.0 24.1 M34.2 22.6 L34.2 22.65 34.25 22.85 34.25 23.95 34.25 25.1 34.25 26.2 34.25 26.75 34.2 26.95 34.15 27.15 34.05 27.35 34.0 27.5 34.15 27.55 34.5 27.5 34.9 27.6 35.2 27.6 35.3 26.35 35.25 25.0 35.25 23.7 35.25 22.65 35.25 22.6 34.2 22.6 M5.95 24.2 L5.8 24.0 5.7 24.05 5.65 24.2 5.5 24.4 5.45 24.6 5.3 24.75 5.25 24.95 5.15 25.15 5.0 25.35 4.8 25.5 4.55 25.7 4.5 25.9 4.5 26.65 4.5 27.6 4.5 28.5 4.5 29.45 4.5 29.5 4.8 29.5 5.05 29.4 5.4 29.35 5.75 29.25 6.5 29.25 6.85 29.35 7.3 29.45 8.1 29.95 9.05 30.75 9.45 31.15 10.5 31.7 11.65 32.45 11.95 32.65 13.4 33.9 15.5 35.45 15.95 35.85 16.3 36.0 16.8 36.1 17.2 35.95 17.45 35.75 17.65 35.6 17.8 35.4 18.2 35.0 18.25 34.85 18.3 34.65 18.4 34.45 18.5 34.25 18.5 33.15 18.5 31.85 18.5 30.5 18.5 29.4 18.45 29.2 18.4 29.0 18.3 28.85 18.25 28.65 18.25 28.45 18.25 28.25 18.25 28.1 18.25 27.9 18.2 27.7 18.15 27.5 18.05 27.35 18.0 27.15 18.0 26.6 18.0 25.85 18.0 25.1 18.0 24.35 18.0 24.15 17.9 23.95 17.7 23.75 17.5 23.6 17.4 23.45 16.95 23.35 16.55 23.15 16.45 23.0 16.35 23.0 16.0 23.0 15.95 23.0 15.8 23.2 15.7 23.4 15.5 23.6 15.5 23.95 15.5 24.35 15.5 24.9 15.5 25.45 15.5 25.65 15.55 25.85 15.65 26.0 15.65 26.2 15.7 26.4 15.75 26.6 15.9 26.75 16.0 26.95 16.15 27.15 16.25 27.35 16.4 27.5 16.45 27.7 16.5 27.9 16.65 28.1 16.7 28.25 16.8 28.45 16.9 28.65 16.95 28.85 17.0 29.0 17.0 29.2 17.0 29.4 17.0 29.6 17.0 29.95 17.0 30.35 17.0 30.5 16.95 30.7 16.9 30.9 16.8 31.1 16.7 31.25 16.55 31.45 16.45 31.65 16.25 31.85 15.95 32.0 15.7 32.15 15.4 32.2 15.0 32.25 14.5 32.25 14.15 32.2 13.7 32.1 13.3 31.9 13.15 31.7 12.95 31.5 12.8 31.35 12.7 31.15 12.65 30.95 12.5 30.75 12.25 30.55 12.05 30.4 11.9 30.2 11.75 30.0 11.55 29.85 11.45 29.65 11.3 29.45 11.2 29.25 9.5 27.6 7.85 25.9 6.65 24.95 6.45 24.75 6.25 24.6 6.05 24.4 5.95 24.2 M0.5 32.4 L0.15 32.45 0.5 32.5 0.5 32.4 M4.5 35.1 L4.5 36.0 4.5 36.95 4.5 37.5 4.55 37.7 4.7 37.9 4.75 38.1 4.8 38.25 5.0 38.45 5.2 38.65 5.3 38.75 5.4 38.8 5.75 38.85 5.9 38.7 6.0 38.5 6.15 38.35 6.25 38.15 6.25 37.95 6.15 37.6 6.0 37.2 5.9 36.85 5.8 36.65 5.7 36.45 5.65 36.25 5.55 36.1 5.5 35.9 5.45 35.7 5.4 35.5 5.25 35.35 5.2 35.15 5.15 34.95 5.0 34.75 4.9 34.6 4.8 34.4 4.65 34.2 4.55 34.1 4.5 34.1 4.5 34.15 4.5 35.1 M33.7 32.35 L33.55 32.5 33.5 32.7 33.4 32.9 33.25 33.1 33.05 33.25 33.0 33.45 32.9 33.65 32.75 33.85 32.55 34.0 32.5 34.2 32.4 34.4 32.25 34.6 32.2 34.75 32.15 34.95 32.0 35.15 32.0 35.2 33.25 35.15 33.4 34.95 33.5 34.75 33.55 34.6 33.7 34.4 33.75 34.2 33.75 33.65 33.75 33.1 33.75 32.5 33.75 32.15 33.7 32.35 M-44.25 -7.8 L-44.25 -7.6 -44.25 -7.4 -44.25 -7.25 -44.2 -7.05 -44.1 -6.85 -44.05 -6.65 -44.0 -6.5 -43.85 -6.1 -43.75 -5.75 -43.7 -5.55 -43.7 -5.35 -43.6 -5.15 -43.6 -5.0 -43.55 -4.8 -43.5 -4.6 -43.5 -3.65 -43.5 -2.0 -43.5 -0.3 -43.5 1.4 -43.5 1.75 -43.55 1.95 -43.6 2.15 -43.7 2.35 -43.75 2.5 -43.75 2.85 -43.75 3.4 -43.75 3.95 -43.75 4.5 -43.75 4.9 -42.3 4.9 -42.35 4.75 -42.45 4.6 -42.5 4.4 -42.6 4.0 -42.75 3.65 -42.95 3.1 -43.0 2.9 -43.0 2.7 -43.0 2.5 -43.0 2.35 -43.0 2.15 -43.05 1.95 -43.1 1.75 -43.2 1.6 -43.25 1.4 -43.25 1.0 -43.25 0.25 -43.25 -0.65 -43.25 -1.8 -43.25 -2.55 -43.2 -2.75 -43.1 -2.9 -43.05 -3.1 -43.0 -3.3 -42.85 -3.5 -42.8 -3.65 -42.75 -3.85 -42.75 -4.05 -42.75 -4.25 -42.75 -4.4 -42.75 -4.6 -42.75 -4.8 -42.75 -5.15 -42.75 -5.35 -42.7 -5.55 -42.6 -5.75 -42.55 -5.9 -42.5 -6.1 -42.45 -6.3 -42.35 -6.5 -42.3 -6.65 -42.2 -6.85 -42.0 -7.05 -41.8 -7.25 -41.55 -7.4 Q-41.45 -7.5 -41.3 -7.55 L-41.2 -7.6 -40.85 -7.65 -40.5 -7.7 -40.5 -7.75 -40.15 -7.65 -39.7 -7.55 -39.4 -7.35 -39.15 -7.15 -38.95 -7.0 -38.8 -6.85 -38.8 -6.9 -38.7 -7.1 -38.5 -7.3 -38.3 -7.5 -38.1 -7.65 -37.8 -7.85 -37.6 -8.0 -39.1 -8.3 -40.95 -8.6 -41.25 -8.65 -44.45 -8.6 -44.45 -8.55 -44.35 -8.35 -44.3 -8.15 -44.25 -8.0 -44.25 -7.8 M-26.95 -4.3 L-27.05 -4.15 -27.2 -4.0 -27.3 -3.8 -27.35 -3.6 -27.45 -3.4 -27.55 -3.25 -27.7 -3.05 -27.8 -2.85 -28.0 -2.65 -28.2 -2.5 -28.45 -2.3 -28.8 -2.1 -29.2 -1.75 -29.95 -1.0 -31.05 0.15 -31.05 0.2 -31.05 0.25 -31.05 0.45 -31.0 0.65 -31.0 0.85 -31.0 1.0 -31.0 1.2 -31.0 1.4 -31.0 1.75 -31.0 2.15 -31.0 2.5 -31.05 2.7 -31.1 2.9 -31.2 3.1 -31.3 3.25 -31.45 3.45 -31.5 3.65 -31.5 3.75 -31.35 3.6 -30.2 2.9 -30.0 2.7 -29.8 2.55 -29.55 2.35 -29.2 2.15 -28.8 1.95 -28.35 1.85 -28.0 1.75 -27.5 1.75 -27.15 1.85 -26.7 1.95 -26.4 2.15 -26.15 2.35 -25.95 2.5 -25.8 2.7 -25.75 2.9 -25.6 3.1 -25.55 3.25 -25.55 3.45 -25.5 3.65 -25.5 3.75 -25.35 3.8 -24.95 3.95 -24.65 4.15 -24.4 4.35 -24.2 4.5 -24.05 4.7 -24.0 4.9 -23.85 5.1 -23.8 5.25 -23.8 5.45 -23.75 5.65 -23.75 5.85 -23.75 6.0 -23.75 6.2 -23.8 6.4 -23.85 6.6 -23.95 6.75 -24.0 6.95 -24.1 7.15 -23.95 7.35 -23.75 7.45 -22.2 7.4 -21.8 7.2 -21.45 7.0 -21.2 6.9 -21.0 6.75 -21.1 6.6 -21.2 6.4 -21.2 6.2 -21.3 6.0 -21.5 5.85 -21.7 5.65 -21.8 5.45 -21.85 5.25 -22.0 5.1 -22.05 4.9 -22.2 4.7 -22.25 4.5 -22.35 4.35 -22.45 4.15 -22.55 3.95 -22.6 3.75 -22.7 3.6 -22.75 3.4 -22.8 3.2 -22.95 3.0 -23.05 2.85 -23.2 2.65 -23.3 2.45 -23.35 2.25 -23.5 2.1 -23.55 1.9 -23.7 1.7 -23.75 1.5 -23.85 1.35 -23.95 1.15 -23.95 0.95 -24.0 0.75 -24.05 0.6 -24.1 0.4 -24.25 0.2 -24.35 0.0 -24.55 -0.15 -24.7 -0.35 -24.8 -0.55 -24.95 -0.75 -25.05 -0.9 -25.2 -1.1 -25.3 -1.3 -25.35 -1.5 -25.5 -1.65 -25.55 -1.85 -25.7 -2.05 -25.75 -2.25 -25.85 -2.4 -25.95 -2.6 -26.05 -2.8 -26.1 -3.0 -26.25 -3.15 -26.35 -3.35 -26.5 -3.55 -26.6 -3.75 -26.75 -3.9 -26.85 -4.1 -26.95 -4.3 M-15.5 -3.1 L-15.5 -2.9 -15.5 -2.75 -15.55 -2.55 -15.6 -2.35 -15.7 -2.15 -15.75 -2.0 -15.75 -1.8 -15.75 -1.6 -15.75 -1.4 -15.75 -1.25 -15.8 -1.05 -15.85 -0.85 -15.95 -0.65 -16.0 -0.5 -16.0 0.1 -16.0 0.65 -16.0 1.4 -16.0 2.15 -16.0 3.1 -15.95 3.25 -15.8 3.45 -15.75 3.65 -15.6 3.85 -15.55 4.0 -15.5 4.2 -15.3 4.4 -15.05 4.75 -14.95 4.95 -14.8 5.15 -14.7 5.35 -14.55 5.5 -14.45 5.7 -14.35 5.9 -14.3 6.1 -14.2 6.25 -14.0 6.45 -13.85 6.65 -13.75 6.85 -13.6 7.0 -13.45 7.2 -13.15 7.4 -12.9 7.6 -12.7 7.75 -12.5 7.95 -12.3 8.15 -11.3 8.2 -11.2 8.15 -10.85 8.1 -10.5 8.0 -10.2 7.9 -9.8 7.7 -9.35 7.6 -9.0 7.55 -8.3 7.45 -7.85 7.35 -7.35 7.2 -6.85 7.05 -6.5 6.95 -6.3 6.8 -6.05 6.6 -5.8 6.45 -5.7 6.4 -5.4 6.3 -5.0 6.2 -4.8 6.05 -4.55 5.85 -4.25 5.65 -4.0 5.45 -3.9 5.25 -3.8 5.15 -3.8 5.1 -4.8 5.15 -5.0 5.35 -5.3 5.5 -5.6 5.7 -6.0 6.1 -6.2 6.25 -6.4 6.45 -6.65 6.65 -6.95 6.85 -7.4 6.95 -7.75 7.0 -8.0 7.0 -8.35 6.95 -8.8 6.85 -9.2 6.65 -9.35 6.45 -9.55 6.25 -9.75 6.1 -9.95 5.9 -10.1 5.7 -10.25 5.5 -10.35 5.35 -10.5 5.15 -10.8 4.95 -11.05 4.75 -11.25 4.6 -11.45 4.4 -11.55 4.2 -11.6 4.0 -11.7 3.85 -11.8 3.65 -12.05 3.45 -12.3 3.25 -12.5 3.1 -12.7 2.9 -12.8 2.7 -12.85 2.5 -13.0 2.35 -13.05 2.15 -13.2 1.95 -13.3 1.75 -13.5 1.6 -13.7 1.4 -13.85 1.2 -14.0 1.0 -14.1 0.85 -14.2 0.65 -14.3 0.45 -14.35 0.25 -14.45 0.1 -14.5 -0.1 -14.5 -0.3 -14.5 -0.5 -14.5 -0.65 -14.5 -0.85 -14.5 -1.05 -14.5 -1.25 -14.5 -1.4 -14.5 -1.6 -14.45 -1.8 -14.35 -2.0 -14.3 -2.15 -14.2 -2.35 -13.8 -2.75 -13.6 -2.9 -13.45 -3.1 -13.25 -3.3 -12.8 -3.65 -12.55 -3.8 -12.45 -3.85 -12.05 -4.0 -11.85 -4.15 -11.7 -4.35 -11.3 -4.55 -10.8 -4.75 Q-10.7 -4.85 -10.55 -4.9 L-10.3 -5.05 -9.5 -5.25 -7.45 -5.35 -7.55 -5.55 -7.85 -5.65 -8.85 -5.8 -9.35 -5.9 -9.85 -6.05 -10.2 -6.1 -12.95 -6.15 -13.05 -6.1 -13.35 -6.05 -13.75 -5.9 -14.05 -5.75 -14.35 -5.55 -14.55 -5.35 -14.7 -5.15 -14.8 -5.0 -14.85 -4.8 -14.95 -4.6 -15.05 -4.4 -15.1 -4.25 -15.25 -4.05 -15.35 -3.85 -15.45 -3.65 -15.5 -3.5 -15.5 -3.3 -15.5 -3.1 M-9.75 -0.15 L-9.6 0.0 -9.55 0.2 -9.35 0.4 -9.15 0.6 -8.95 0.75 -8.75 0.95 -8.55 1.15 -8.45 1.35 -8.3 1.5 -8.2 1.7 -8.05 1.9 -7.85 2.1 -7.7 2.15 -7.3 2.0 -7.05 1.85 -6.7 1.65 -6.3 1.45 -5.95 1.25 -5.7 1.15 -5.35 1.1 -5.0 1.0 -3.85 1.0 -3.95 0.85 -4.0 0.65 -4.0 0.45 -4.0 0.25 -4.0 0.1 -4.0 -0.1 -4.0 -0.3 -4.0 -0.5 -4.0 -0.65 -4.0 -0.85 -4.05 -1.05 -4.05 -1.25 -4.1 -1.4 -4.2 -1.6 -4.2 -1.7 -4.25 -1.65 -4.45 -1.5 -4.7 -1.3 -4.95 -1.15 -5.05 -1.1 -5.35 -1.05 -5.75 -1.0 -6.0 -1.0 -6.35 -1.05 -6.7 -1.1 -6.8 -1.15 -8.85 -1.1 -9.2 -0.9 -9.7 -0.75 -9.85 -0.55 -9.85 -0.35 -9.75 -0.15 M-15.3 22.7 L-15.35 22.9 -15.45 23.1 -15.5 23.25 -15.6 23.45 -15.7 23.65 -15.8 23.85 -15.85 24.0 -16.0 24.2 -16.05 24.4 -16.2 24.6 -16.25 24.75 -16.35 24.95 -16.45 25.15 -16.5 25.35 -16.55 25.5 -16.55 25.65 -16.45 25.65 -16.1 25.6 -15.75 25.5 -15.5 25.5 -15.15 25.6 -14.7 25.7 -14.4 25.9 -14.1 26.1 -14.05 26.05 -14.0 25.9 -14.05 25.7 -14.1 25.5 -14.2 25.35 -14.25 25.15 -14.25 24.4 -14.25 23.65 -14.25 22.9 -14.25 22.15 -14.3 21.95 -14.35 21.75 -14.45 21.6 -14.5 21.55 -14.55 21.6 -14.6 21.75 -14.75 21.95 -14.85 22.15 -15.0 22.35 -15.2 22.5 -15.3 22.7 M-9.0 23.35 L-8.85 23.5 -8.8 23.7 -8.7 23.9 -8.6 24.1 -8.45 24.25 -8.3 24.45 -8.25 24.65 -8.1 24.85 -8.05 25.0 -8.0 25.2 -7.85 25.4 -7.75 25.6 -7.6 25.95 -7.5 26.35 -7.35 26.7 -7.25 27.1 -7.25 27.25 -7.2 27.45 -7.1 27.65 -7.05 27.85 -7.0 28.0 -7.0 28.6 -7.0 28.95 -7.0 29.35 -7.0 29.9 -7.0 30.25 -7.05 30.45 -7.1 30.65 -7.2 30.85 -7.25 31.0 -7.25 31.2 -7.3 31.4 -7.3 31.6 -7.35 31.75 -7.45 31.95 -7.5 32.15 -7.5 32.35 -7.5 32.5 -7.55 32.7 -7.6 32.9 -7.7 33.1 -7.75 33.25 -7.75 34.2 -7.75 34.4 -7.75 34.6 -7.75 34.75 -7.75 34.95 -7.75 35.15 -7.75 35.35 -7.75 35.7 -7.75 35.9 -7.75 36.25 -7.75 36.85 -7.6 37.0 -7.55 37.2 -7.5 37.4 -7.35 37.6 -2.8 37.7 -2.7 37.65 -2.35 37.6 -2.0 37.5 -1.8 37.45 -2.1 37.45 -2.5 37.5 -2.75 37.5 -3.1 37.45 -3.55 37.35 -3.95 37.15 -4.1 36.95 -4.3 36.75 -4.45 36.6 -4.55 36.4 -4.6 36.2 -4.7 36.0 -4.75 35.85 -4.75 34.9 -4.75 33.95 -4.75 33.0 -4.75 32.1 -4.75 31.9 -4.7 31.7 -4.6 31.5 -4.55 31.35 -4.45 31.15 -4.35 30.95 -4.25 30.75 -4.1 30.6 -3.75 30.2 -3.35 29.85 -3.0 29.45 -2.7 29.25 -2.45 29.15 -2.05 29.0 -1.95 28.85 -2.85 28.55 -3.45 28.4 -4.6 28.2 -5.05 28.1 -5.45 27.9 -5.6 27.7 -5.8 27.5 -5.95 27.35 -6.05 27.15 -6.1 26.95 -6.2 26.75 -6.25 26.6 -6.25 26.4 -6.25 26.2 -6.25 26.0 -6.2 25.85 -6.2 25.65 -6.1 25.45 -6.0 25.25 -5.85 25.1 -5.7 24.9 -5.5 24.7 -5.2 24.5 -4.85 24.35 -4.7 24.15 -4.3 23.95 -3.85 23.85 -3.75 23.7 -4.5 23.55 -5.2 23.4 -5.45 23.35 -6.85 23.2 -7.35 23.1 -9.0 23.15 -9.0 23.35 M-37.5 1.35 L-37.5 1.15 -37.45 0.95 -37.35 0.75 -37.3 0.6 -37.25 0.6 -39.0 0.3 -39.0 0.5 -39.0 1.25 -39.0 1.45 -38.95 1.65 -38.8 1.85 -38.7 2.0 -38.55 2.2 -38.5 2.4 -38.35 2.6 -38.3 2.75 -38.3 2.95 -38.25 3.15 -38.2 3.35 -37.95 3.55 -37.75 3.7 -37.6 3.9 -37.5 4.1 -37.45 4.25 -37.35 4.45 -37.35 4.5 -37.25 4.45 -37.2 4.4 -37.05 4.25 -36.85 4.1 -36.7 3.9 -36.55 3.7 -36.5 3.5 -36.7 3.4 -36.85 3.2 -37.05 3.0 -37.2 2.85 -37.3 2.65 -37.35 2.45 -37.45 2.25 -37.5 2.1 -37.5 1.9 -37.5 1.7 -37.5 1.5 -37.5 1.35 M-29.1 21.65 L-29.25 21.85 -29.45 22.0 -29.5 22.2 -29.55 22.4 -29.55 22.6 -29.6 22.75 -29.7 22.95 -29.75 23.15 -29.75 24.25 -29.75 25.6 -29.75 26.9 -29.75 28.1 -29.7 27.95 -29.6 27.75 -29.55 27.6 -29.45 27.4 -29.25 27.2 -29.05 27.05 -28.8 26.85 -28.55 26.7 -28.45 26.65 -28.1 26.6 -27.75 26.5 -27.4 26.6 -26.95 26.7 -26.65 26.9 -26.4 27.1 -26.2 27.25 -26.05 27.45 -26.0 27.65 -25.85 27.85 -25.8 28.0 -25.8 28.2 -25.75 28.4 -25.75 28.6 -25.75 28.75 -25.75 28.95 -25.7 29.15 -25.7 29.35 -25.6 29.5 -25.55 29.7 -25.5 29.9 -25.45 30.1 -25.35 30.25 -25.3 30.45 -25.2 30.65 -25.1 30.85 -25.0 31.0 -24.95 31.2 -24.85 31.4 -24.8 31.6 -24.75 31.75 -24.7 31.95 -24.7 32.15 -24.6 32.35 -24.55 32.5 -24.45 32.7 -24.25 32.9 -24.2 33.1 -24.05 33.25 -23.95 33.45 -23.85 33.65 -23.75 33.85 -23.7 34.0 -23.6 34.2 -23.55 34.4 -23.5 34.6 -23.35 34.75 -23.3 34.95 -23.2 35.15 -23.1 35.35 -23.0 35.5 -22.95 35.7 -22.85 35.9 -22.8 36.1 -22.75 36.25 -22.7 36.45 -22.55 36.5 -22.25 36.4 -21.25 35.45 -20.1 34.35 -19.35 33.6 -19.25 33.4 -19.25 33.2 -19.25 33.0 -19.2 32.85 -19.2 32.65 -19.1 32.45 -19.0 32.25 -19.0 32.1 -19.0 31.9 -19.0 31.7 -19.0 31.65 -19.2 31.75 -19.4 31.95 -19.95 32.35 -20.4 32.45 -20.75 32.5 -21.1 32.45 -21.55 32.35 -21.95 32.15 -22.1 31.95 -22.3 31.75 -22.45 31.6 -22.55 31.4 -22.6 31.2 -22.75 31.0 -22.85 30.85 -22.95 30.65 -23.0 30.45 -23.05 30.25 -23.2 30.1 -23.3 29.9 -23.45 29.7 -23.5 29.5 -23.6 29.35 -23.75 29.15 -23.85 28.95 -24.0 28.75 -24.1 28.6 -24.2 28.4 -24.2 28.2 -24.25 28.0 -24.3 27.85 -24.45 27.65 -24.6 27.45 -24.75 27.25 -24.85 27.1 -25.0 26.7 -25.1 26.35 -25.25 25.95 -25.35 25.6 -25.45 25.4 -25.55 25.2 -25.6 25.0 -25.75 24.85 -25.95 24.65 -26.1 24.45 -26.3 24.25 -26.45 24.1 -26.55 23.9 -26.7 23.7 -26.8 23.5 -27.05 23.35 -27.45 23.15 -28.0 22.6 -28.55 22.0 -29.1 21.6 -29.1 21.65 M-29.95 32.4 L-30.05 32.6 -30.1 32.75 -30.25 32.95 -30.35 33.15 -30.5 33.35 -30.5 33.5 -30.55 33.7 -30.6 33.9 -30.7 34.1 -30.75 34.25 -30.85 34.45 -31.0 34.65 -31.0 35.0 -31.0 35.4 -31.0 35.75 -31.0 36.15 -31.0 36.5 -30.95 36.55 -30.7 36.45 -30.6 36.25 -30.55 36.1 -30.45 35.9 -30.35 35.7 -30.25 35.5 -30.2 35.35 -30.05 35.15 -30.0 34.95 -30.0 34.75 -30.0 34.6 -30.0 34.4 -30.0 34.2 -30.0 34.0 -29.95 33.85 -29.95 33.65 -29.85 33.45 -29.75 33.25 -29.75 32.9 -29.75 32.5 -29.75 32.35 -29.75 32.15 -29.8 32.0 -29.85 32.2 -29.95 32.4 M-13.6 28.5 L-13.75 28.7 -13.75 29.45 -13.75 30.2 -13.75 30.95 -13.75 31.5 -13.8 31.7 -13.85 31.9 -13.95 32.1 -14.05 32.25 -14.1 32.45 -14.2 32.65 -14.3 32.85 -14.35 33.0 -14.5 33.2 -14.55 33.4 -14.7 33.6 -14.8 33.75 -14.95 33.95 -15.05 34.15 -15.2 34.35 -15.25 34.5 -15.25 34.7 -15.25 34.9 -15.25 35.1 -15.25 35.25 -15.25 35.45 -15.1 35.65 -15.0 35.85 -14.95 36.0 -14.85 36.2 -14.8 36.4 -14.7 36.6 -14.55 36.75 -14.45 36.95 -14.15 37.15 -13.9 37.35 -13.75 37.45 -13.7 37.5 -13.35 37.6 -13.05 37.65 -12.95 37.7 -12.3 37.65 -12.25 37.45 -12.1 37.25 -12.05 37.1 -11.95 36.9 -11.85 36.7 -11.8 36.5 -11.8 36.35 -11.75 36.15 -11.75 35.95 -11.75 35.75 -11.75 35.6 -11.75 35.4 -11.75 35.2 -11.75 35.0 -11.95 34.45 -12.1 33.9 -12.3 33.35 -12.45 32.95 -12.45 32.75 -12.5 32.6 -12.55 32.4 -12.6 32.2 -12.6 32.0 -12.7 31.85 -12.75 31.65 -12.75 31.45 -12.75 31.25 -12.75 31.1 -12.75 30.9 -12.85 30.5 -13.0 30.15 -13.1 29.75 -13.25 29.4 -13.3 29.2 -13.3 29.0 -13.35 28.85 -13.45 28.65 -13.5 28.5 -13.6 28.5" fill="#5e4713" fill-opacity="0.50980395" fill-rule="evenodd" stroke="none"/>
  </g>
</svg>
