<?xml version="1.0" encoding="UTF-8" standalone="no"?>
<svg xmlns:ffdec="https://www.free-decompiler.com/flash" xmlns:xlink="http://www.w3.org/1999/xlink" ffdec:objectType="shape" height="21.65px" width="133.6px" xmlns="http://www.w3.org/2000/svg">
  <g transform="matrix(1.0, 0.0, 0.0, 1.0, 66.25, 10.95)">
    <path d="M7.95 -10.1 L8.25 -10.2 8.5 -10.3 8.8 -10.3 8.8 -10.35 10.05 -10.35 10.35 -10.3 10.55 -10.25 11.05 -10.2 11.55 -10.2 11.85 -10.15 12.05 -10.05 12.3 -10.15 12.55 -10.15 12.55 -10.2 13.3 -10.2 13.6 -10.15 13.85 -10.05 14.1 -9.9 14.3 -9.75 14.4 -9.6 14.55 -9.5 14.65 -9.35 14.75 -9.2 14.85 -9.05 14.95 -8.9 15.05 -8.8 15.2 -8.65 15.3 -8.5 15.35 -8.35 15.4 -8.2 15.5 -8.1 15.55 -7.95 15.65 -7.8 15.7 -7.65 15.75 -7.5 15.75 -7.35 15.75 -7.25 15.75 -7.1 15.75 -6.95 15.75 -6.8 15.7 -6.65 15.65 -6.55 15.6 -6.4 15.5 -6.25 15.4 -6.1 15.3 -5.95 15.2 -5.8 14.95 -5.7 14.65 -5.55 14.4 -5.4 14.1 -5.3 13.85 -5.25 13.5 -5.15 13.5 -5.05 13.5 -4.9 13.5 -4.75 13.55 -4.6 13.6 -4.45 13.65 -4.3 13.65 -4.2 13.65 -4.05 13.65 -3.9 13.65 -3.75 13.7 -3.6 13.8 -3.5 13.8 -3.35 13.85 -3.2 13.85 -3.05 13.85 -2.9 13.85 -2.75 13.85 -2.65 13.85 -2.5 13.85 -2.35 13.85 -2.2 13.9 -2.05 14.0 -1.95 14.0 -1.8 14.05 -1.65 14.05 -1.5 14.05 -1.1 14.05 -0.5 14.05 0.2 14.05 0.9 14.05 1.3 14.0 1.45 13.95 1.6 13.85 1.75 13.85 1.85 13.85 2.0 13.85 2.15 13.85 2.3 13.85 2.45 13.85 2.55 13.9 2.55 14.25 2.6 14.5 2.7 14.6 2.7 14.6 2.55 14.6 2.45 14.6 2.3 14.6 2.15 14.6 2.0 14.6 1.85 14.6 1.75 14.6 1.6 14.65 1.45 14.7 1.3 14.75 1.15 14.9 1.05 15.0 0.9 15.2 0.75 15.35 0.65 15.45 0.6 15.65 0.55 15.95 0.55 15.95 0.5 16.85 0.5 17.1 0.55 17.4 0.65 17.6 0.75 18.0 0.9 18.25 1.05 18.35 1.15 18.45 1.25 18.45 1.15 18.55 1.05 18.55 0.6 18.55 0.05 18.55 -0.65 18.55 -1.35 18.55 -1.95 18.6 -2.05 18.6 -2.2 18.65 -2.35 18.65 -2.5 18.7 -2.65 18.7 -3.05 18.7 -3.25 18.65 -3.3 18.45 -3.45 18.35 -3.55 18.25 -3.7 18.1 -3.85 18.0 -4.0 17.9 -4.15 17.85 -4.3 17.8 -4.4 17.8 -4.55 17.8 -4.7 17.8 -4.85 17.8 -5.0 17.8 -5.25 17.8 -5.55 17.8 -5.8 17.85 -5.95 17.85 -6.1 17.9 -6.25 17.95 -6.4 17.95 -6.55 17.95 -6.65 18.0 -6.8 18.05 -6.95 18.15 -7.1 18.2 -7.25 18.25 -7.35 18.3 -7.5 18.35 -7.65 18.45 -7.8 18.6 -7.95 18.65 -8.1 18.75 -8.2 18.85 -8.35 18.95 -8.5 19.1 -8.65 19.2 -8.75 19.4 -8.9 19.5 -9.05 19.7 -9.2 19.9 -9.3 19.95 -9.35 20.15 -9.4 20.45 -9.4 20.45 -9.45 21.0 -9.45 21.3 -9.4 21.55 -9.3 21.8 -9.15 21.95 -9.0 22.1 -8.85 24.75 -8.85 25.05 -8.75 25.2 -8.75 25.3 -8.7 25.7 -8.65 25.95 -8.6 26.25 -8.5 26.55 -8.4 26.7 -8.35 26.8 -8.35 27.95 -8.3 28.65 -8.6 29.25 -8.85 29.95 -9.0 30.9 -9.05 31.0 -9.1 31.2 -9.15 31.45 -9.2 31.7 -9.2 32.0 -9.15 32.25 -9.05 32.5 -8.9 32.75 -8.8 32.95 -8.65 33.05 -8.5 Q33.15 -8.45 33.3 -8.35 L33.5 -8.2 33.7 -8.1 33.8 -7.95 34.0 -7.8 34.15 -7.65 34.3 -7.5 34.4 -7.35 34.5 -7.25 34.65 -7.1 34.8 -6.95 34.85 -6.8 34.95 -6.65 35.0 -6.55 35.05 -6.4 35.05 -6.25 35.15 -6.1 35.2 -5.95 35.25 -5.8 35.25 -5.7 35.3 -5.55 35.35 -5.4 35.4 -5.25 35.45 -5.1 35.6 -5.0 35.7 -4.85 35.8 -4.7 35.85 -4.65 35.85 -4.7 35.9 -4.85 35.95 -5.0 36.05 -5.1 36.1 -5.25 36.1 -5.4 36.15 -5.55 36.2 -5.7 36.25 -5.8 36.35 -5.95 36.45 -6.1 36.5 -6.25 36.6 -6.4 36.65 -6.55 36.7 -6.65 36.8 -6.8 36.85 -6.95 36.9 -7.1 36.95 -7.25 37.05 -7.35 37.15 -7.5 37.25 -7.65 37.3 -7.8 37.4 -7.95 37.5 -8.1 37.65 -8.2 37.8 -8.35 37.95 -8.5 38.15 -8.65 38.35 -8.75 38.55 -8.75 40.9 -8.85 41.0 -8.9 41.25 -9.0 41.5 -9.1 41.8 -9.2 42.0 -9.3 42.1 -9.35 42.3 -9.4 42.6 -9.45 43.45 -9.45 43.75 -9.4 43.95 -9.4 44.2 -9.4 45.1 -9.5 45.3 -9.55 45.6 -9.55 46.35 -9.6 46.45 -9.65 46.6 -9.7 46.9 -9.75 47.65 -9.75 47.95 -9.7 48.2 -9.6 48.45 -9.5 48.7 -9.35 48.9 -9.2 49.05 -9.1 49.15 -9.1 49.35 -9.05 49.45 -9.1 49.6 -9.15 50.0 -9.25 50.2 -9.35 50.35 -9.4 50.65 -9.45 50.85 -9.45 51.1 -9.4 51.4 -9.3 51.65 -9.15 51.8 -9.0 51.85 -8.95 51.85 -9.0 52.05 -9.15 52.35 -9.3 52.95 -9.45 53.4 -9.6 53.7 -9.65 54.15 -9.75 54.85 -9.85 55.2 -10.0 55.45 -10.1 55.6 -10.15 55.9 -10.15 55.9 -10.2 57.9 -10.2 58.2 -10.15 58.5 -10.05 58.65 -9.95 58.95 -9.9 59.25 -9.8 59.5 -9.65 60.05 -9.6 60.3 -9.5 60.5 -9.5 61.35 -9.4 61.65 -9.4 61.9 -9.3 62.15 -9.15 62.3 -9.0 62.45 -8.85 62.45 -8.75 62.55 -8.6 62.6 -8.45 62.75 -8.3 62.85 -8.15 62.95 -8.05 63.05 -7.9 63.1 -7.75 63.15 -7.6 63.2 -7.45 63.2 -7.3 63.2 -7.2 63.2 -7.05 63.2 -6.9 63.2 -6.75 63.2 -6.6 63.2 -6.5 63.2 -6.35 63.2 -6.2 63.2 -6.05 63.2 -5.9 63.15 -5.8 63.15 -5.65 63.05 -5.5 63.0 -5.35 62.95 -5.2 62.9 -5.05 62.8 -4.95 62.75 -4.8 62.65 -4.65 62.6 -4.5 62.45 -4.35 62.4 -4.25 62.25 -4.1 62.05 -3.95 61.9 -3.8 61.75 -3.65 61.65 -3.5 61.55 -3.4 61.35 -3.25 61.35 -3.2 61.35 -3.05 61.35 -2.9 61.35 -2.75 61.4 -2.65 61.45 -2.5 61.45 -2.35 61.5 -2.2 61.5 -2.05 61.5 -1.95 61.5 -1.8 61.5 -1.65 61.5 -1.5 61.55 -1.35 61.6 -1.25 61.65 -1.1 61.65 -0.95 61.65 -0.8 61.7 -0.65 61.75 -0.5 61.85 -0.4 61.85 -0.25 61.9 -0.1 61.9 0.05 61.9 0.2 61.9 0.3 61.9 0.6 61.9 0.9 61.9 1.3 61.9 1.45 61.85 1.6 61.8 1.75 61.75 1.85 61.65 2.0 61.65 2.15 61.55 2.3 61.5 2.45 61.5 2.55 61.5 2.7 61.45 2.85 61.4 3.0 61.35 3.15 61.5 3.15 61.65 3.0 61.85 2.9 61.95 2.85 62.55 2.7 63.2 2.55 63.3 2.55 63.55 2.45 63.7 2.3 64.0 2.15 64.25 2.05 64.55 2.0 64.85 2.0 65.15 2.05 65.45 2.15 65.65 2.3 65.8 2.45 66.05 2.55 66.25 2.7 66.4 2.85 66.55 3.0 66.6 3.15 66.7 3.3 66.85 3.4 67.0 3.55 67.05 3.7 67.15 3.85 67.2 4.0 67.3 4.1 67.3 4.25 67.35 4.4 67.35 4.55 67.35 4.7 67.35 4.95 67.35 5.25 67.35 5.65 67.35 6.1 67.3 6.25 67.3 6.35 67.2 6.5 67.15 6.65 67.15 6.8 67.15 6.95 67.15 7.1 67.1 7.2 67.05 7.35 67.0 7.5 66.95 7.65 66.95 7.8 66.9 7.9 66.9 8.05 66.8 8.2 66.8 8.35 66.8 8.5 66.8 8.65 66.75 8.75 66.7 8.9 66.6 9.05 66.55 9.2 66.4 9.35 66.3 9.45 66.15 9.6 65.95 9.75 65.75 9.85 65.55 9.9 65.3 9.95 65.1 9.95 64.8 9.9 64.65 9.85 64.55 9.8 63.5 9.65 62.9 9.45 62.6 9.35 62.45 9.2 62.3 9.05 62.1 8.9 55.7 8.7 55.5 8.75 55.35 8.85 55.25 8.9 55.05 8.95 54.75 9.05 54.45 9.15 54.15 9.2 53.6 9.2 53.5 9.25 53.3 9.4 53.15 9.45 52.95 9.5 52.65 9.55 49.35 9.55 49.05 9.5 48.85 9.45 48.75 9.45 47.65 9.35 47.35 9.35 47.2 9.3 47.1 9.25 46.65 9.2 45.85 9.3 45.25 9.5 44.8 9.65 44.05 9.85 43.45 9.95 42.6 9.95 42.3 9.9 42.0 9.8 41.75 9.65 41.6 9.5 41.5 9.4 41.3 9.25 41.15 9.1 41.1 8.95 41.0 8.8 40.95 8.65 40.8 8.55 40.75 8.4 40.7 8.25 40.65 8.1 40.65 7.95 40.65 7.85 40.65 7.7 40.65 7.55 40.65 7.25 40.65 7.0 40.65 6.7 40.7 6.55 40.75 6.4 40.8 6.3 40.95 6.15 41.0 6.0 41.1 5.85 41.1 5.7 41.15 5.6 41.15 5.45 41.25 5.3 41.25 5.15 41.25 5.0 41.25 4.85 41.25 4.75 41.25 4.6 41.3 4.45 41.35 4.3 41.4 4.15 41.4 4.05 41.4 3.9 41.4 3.75 41.45 3.6 41.45 3.45 41.55 3.3 41.6 3.2 41.65 3.05 41.65 2.9 41.65 2.75 41.65 2.6 41.65 2.5 41.65 2.35 41.65 2.25 41.6 2.4 41.55 2.55 41.5 2.65 41.4 2.8 41.35 2.95 41.3 3.1 41.25 3.25 41.2 3.35 41.15 3.5 41.1 3.65 41.0 3.8 40.9 3.95 40.85 4.1 40.8 4.2 40.7 4.35 40.65 4.5 40.55 4.65 40.5 4.8 40.4 4.9 40.4 5.05 40.3 5.2 40.2 5.35 40.1 5.5 39.9 5.6 39.8 5.75 39.75 5.9 39.65 6.05 39.65 6.2 39.55 6.35 39.5 6.45 39.5 6.6 39.45 6.75 39.35 6.9 39.3 7.05 39.25 7.15 39.2 7.3 39.2 7.45 39.2 7.6 39.15 7.75 39.15 7.85 39.05 8.0 39.0 8.15 38.9 8.3 38.85 8.45 38.7 8.55 38.5 8.7 38.25 8.85 38.0 8.95 37.7 9.0 37.45 9.05 37.4 9.05 37.35 9.2 37.1 9.35 36.95 9.4 36.85 9.45 36.65 9.5 36.4 9.55 36.3 9.55 36.2 9.6 36.1 9.65 35.9 9.7 35.65 9.75 34.9 9.75 34.6 9.7 34.35 9.6 34.05 9.45 33.9 9.35 33.75 9.2 33.6 9.05 33.45 8.9 33.3 8.75 33.2 8.65 33.05 8.5 32.9 8.35 32.75 8.2 32.6 8.05 32.5 7.9 32.4 7.8 32.3 7.65 32.25 7.5 32.15 7.35 32.1 7.2 32.0 7.1 31.9 6.95 31.8 6.8 31.7 6.65 31.65 6.5 31.55 6.35 31.45 6.25 31.35 6.1 31.25 5.95 31.1 5.8 31.0 5.65 30.85 5.55 30.8 5.5 30.75 5.6 30.75 6.4 30.8 6.55 30.9 6.7 30.9 6.85 30.95 7.0 30.95 7.1 30.95 7.25 31.0 7.4 31.05 7.55 31.1 7.7 31.1 7.85 31.1 7.95 31.1 8.25 31.1 8.55 31.1 8.95 31.1 9.4 31.05 9.5 31.0 9.65 30.9 9.8 30.85 9.95 30.7 10.1 30.6 10.2 30.45 10.35 30.3 10.5 30.1 10.6 29.9 10.65 29.65 10.7 29.2 10.7 28.95 10.65 28.6 10.55 28.25 10.45 28.05 10.4 26.0 10.2 24.95 9.8 24.0 9.8 23.9 9.85 23.7 9.9 23.45 9.95 23.05 10.0 22.8 10.05 22.3 10.2 21.75 10.35 21.0 10.5 19.7 10.5 19.1 10.4 17.45 9.8 16.5 9.2 16.5 9.15 16.45 9.15 16.2 9.3 16.05 9.4 15.85 9.55 15.65 9.65 15.45 9.7 15.15 9.8 14.85 9.9 14.55 9.95 13.7 9.95 13.4 9.9 13.1 9.8 12.8 9.7 12.5 9.6 12.0 9.4 11.7 9.3 11.55 9.3 11.45 9.25 10.8 9.2 10.5 9.25 10.4 9.3 10.2 9.3 9.95 9.4 7.05 9.4 6.8 9.3 6.6 9.3 6.5 9.25 6.3 9.2 6.05 9.15 5.75 9.05 5.45 8.9 5.2 8.75 4.9 8.6 4.7 8.5 4.55 8.35 4.45 8.2 4.35 8.05 4.3 7.9 4.25 7.8 4.25 7.65 4.25 7.5 4.25 7.35 4.25 7.2 4.25 7.1 4.3 6.95 4.35 6.8 4.4 6.65 4.5 6.5 4.5 6.35 4.5 6.25 4.5 6.1 4.5 5.95 4.5 5.8 4.55 5.65 4.55 5.55 4.65 5.4 4.7 5.25 4.7 5.1 4.7 4.95 4.7 4.85 4.75 4.7 4.85 4.55 4.95 4.4 5.1 4.25 5.35 4.1 5.55 4.0 5.75 3.9 5.85 3.85 6.05 3.8 6.3 3.7 6.35 3.55 6.35 2.7 6.35 1.3 6.35 -0.1 6.35 -1.65 6.35 -1.95 6.4 -2.05 6.4 -2.2 6.45 -2.35 6.5 -2.5 6.5 -3.2 6.5 -4.3 6.5 -5.1 6.45 -5.15 6.15 -5.25 5.9 -5.3 5.6 -5.4 5.4 -5.5 5.25 -6.55 Q5.25 -8.05 5.75 -9.3 L6.1 -10.35 6.95 -10.35 7.2 -10.3 7.4 -10.25 7.5 -10.2 7.75 -10.15 7.95 -10.1 M9.5 -6.75 L9.5 -6.65 9.55 -6.55 9.55 -6.4 9.55 -6.3 9.75 -6.2 9.9 -6.05 10.0 -5.9 10.05 -5.8 10.15 -5.65 10.2 -5.5 10.25 -5.35 10.3 -5.2 10.35 -5.05 10.4 -4.95 10.45 -4.8 10.5 -4.65 10.5 -4.5 10.5 -4.35 10.5 -4.25 10.5 -4.1 10.5 -3.95 10.5 -3.8 10.55 -3.65 10.6 -3.5 10.65 -3.4 10.65 -3.25 10.65 -2.95 10.65 -2.8 10.65 -2.55 10.65 -2.1 10.65 -1.4 10.65 -0.7 10.65 -0.55 10.6 -0.45 10.55 -0.3 10.45 -0.15 10.4 0.0 10.25 0.15 10.1 0.3 9.9 0.4 9.6 0.5 9.3 0.55 9.05 0.5 9.0 0.5 9.0 1.35 9.0 3.2 9.0 4.85 8.95 5.0 8.9 5.15 8.8 5.3 8.8 5.45 8.75 5.6 8.7 5.7 8.6 5.85 8.55 6.0 8.45 6.15 8.3 6.3 8.05 6.4 7.9 6.45 10.25 6.5 10.35 6.45 10.55 6.45 10.8 6.4 10.85 6.4 10.6 6.3 10.45 6.15 10.35 6.0 10.25 5.85 10.15 5.7 10.15 5.6 10.1 5.45 10.1 5.3 10.1 5.15 10.1 5.0 10.1 4.85 10.15 4.75 10.15 4.6 10.25 4.45 10.35 4.3 10.45 4.15 10.6 4.05 10.8 3.9 11.25 3.65 11.25 3.35 11.25 2.65 11.25 1.95 11.25 1.25 11.3 1.1 11.3 1.0 11.4 0.85 11.45 0.7 11.45 0.55 11.45 0.4 11.45 0.3 11.45 0.0 11.45 -0.3 11.45 -0.7 11.45 -1.15 11.4 -1.25 11.3 -1.4 11.3 -1.55 11.25 -1.7 11.25 -1.85 11.25 -2.0 11.25 -2.1 11.25 -2.25 11.25 -2.4 11.15 -2.55 11.1 -2.7 11.05 -2.8 11.0 -2.95 11.0 -3.1 11.0 -3.25 11.0 -3.4 11.0 -3.5 11.0 -3.65 11.0 -3.8 10.95 -3.95 10.9 -4.1 10.85 -4.25 10.85 -4.35 10.85 -4.5 10.85 -4.65 10.85 -4.8 10.85 -4.95 10.85 -5.05 10.8 -5.2 10.75 -5.35 10.75 -5.5 10.7 -5.65 10.7 -5.8 10.7 -5.9 10.7 -6.05 10.6 -6.2 10.55 -6.35 10.5 -6.5 10.5 -6.6 10.5 -6.75 10.5 -6.85 10.5 -6.9 10.0 -6.9 9.85 -6.85 9.5 -6.75 M1.5 -8.6 L1.65 -8.45 1.75 -8.3 1.9 -8.15 2.0 -8.05 2.15 -7.9 2.2 -7.75 2.3 -7.6 2.35 -7.45 2.4 -7.3 2.4 -7.2 2.5 -7.05 2.55 -6.9 2.6 -6.75 2.6 -6.6 2.65 -6.55 2.75 -5.25 2.7 -5.2 2.65 -5.05 2.55 -4.95 2.45 -4.8 2.35 -4.65 2.25 -4.5 2.05 -4.35 1.9 -4.25 1.75 -4.1 1.65 -3.95 1.55 -3.8 1.35 -3.65 1.15 -3.5 1.05 -3.4 0.9 -3.25 0.85 -3.1 0.7 -2.95 0.55 -2.8 0.45 -2.7 0.4 -2.55 0.25 -2.4 0.15 -2.25 0.05 -2.1 -0.15 -2.0 -0.4 -1.8 -0.7 -1.55 -1.05 -1.25 -1.2 -1.15 -1.3 -1.0 -1.35 -0.85 -1.4 -0.7 -1.45 -0.55 -1.55 -0.45 -1.65 -0.3 -1.7 -0.15 -1.7 0.0 -1.75 0.15 -1.8 0.3 -1.85 0.4 -1.9 0.5 -1.9 0.8 -1.9 1.2 -1.85 1.35 -1.8 1.5 -1.75 1.65 -1.75 1.8 -1.7 1.9 -1.7 2.75 -1.7 4.15 -1.7 4.7 -1.4 4.75 -1.15 4.85 -0.9 4.95 -0.7 5.1 -0.5 5.25 -0.25 5.4 -0.15 5.55 -0.05 5.65 0.0 5.8 0.1 5.95 0.1 6.1 0.1 6.25 0.1 6.35 0.1 6.5 0.1 6.65 0.1 6.8 0.1 6.95 0.1 7.1 0.05 7.2 -0.05 7.35 -0.1 7.5 -0.2 7.65 -0.3 7.8 -0.4 7.9 -0.55 8.05 -0.7 8.2 -0.85 8.35 -1.1 8.5 -1.3 8.6 -1.5 8.75 -1.7 8.85 -1.8 8.9 -2.1 9.0 -2.3 9.15 -2.5 9.25 -2.5 9.3 -2.6 9.4 -2.7 9.55 -2.9 9.7 -3.05 9.8 -3.15 9.85 -3.35 9.9 -3.65 9.95 -4.4 9.95 -4.7 9.95 -5.9 9.95 -6.15 9.9 -6.35 9.85 -9.0 9.6 -9.3 9.45 -9.45 9.35 -9.55 9.2 -9.65 9.05 -9.75 8.9 -9.75 8.75 -9.75 8.65 -9.75 8.5 -9.75 8.35 -9.75 8.2 -9.75 8.05 -9.75 7.9 -9.75 7.8 -9.65 7.65 -9.55 7.5 -9.5 7.45 -9.75 7.35 -10.05 7.2 -10.2 7.1 -10.3 7.0 -10.35 7.05 -10.5 7.15 -10.35 7.2 -10.2 7.35 -10.05 7.5 -10.0 7.65 -9.9 7.8 -9.85 7.9 -9.8 8.05 -9.8 8.2 -9.8 8.35 -9.85 8.5 -9.85 8.65 -9.95 8.75 -10.0 8.9 -10.1 9.05 -10.2 9.2 -10.45 9.35 -10.55 9.4 -10.65 9.45 -10.85 9.5 -11.15 9.55 -11.45 9.55 -11.75 9.5 -11.95 9.45 -12.05 9.45 -12.2 9.4 -12.5 9.3 -12.8 9.25 -13.1 9.15 -13.45 9.15 -13.7 9.2 -14.3 9.25 -14.4 9.3 -14.6 9.3 -14.9 9.4 -16.7 9.4 -17.0 9.3 -17.3 9.25 Q-17.4 9.15 -17.55 9.1 L-17.7 8.95 -17.8 8.8 -17.9 8.65 -18.0 8.55 -18.0 8.4 -18.05 8.25 -18.05 8.1 -18.05 7.95 -18.05 7.85 -18.1 7.85 -18.4 7.9 -18.6 8.0 -18.6 8.15 -18.65 8.3 -18.65 8.45 -18.75 8.6 -18.8 8.7 -18.9 8.85 -18.95 9.0 -19.2 9.15 -19.5 9.3 -19.75 9.45 -20.0 9.55 -20.2 9.65 -20.4 9.7 -20.65 9.75 -23.65 9.75 -23.95 9.7 -24.2 9.6 -24.35 9.55 -24.4 9.55 -24.6 9.6 -24.9 9.7 -25.15 9.75 -26.1 9.75 -26.4 9.7 -26.65 9.6 -26.95 9.45 -27.1 9.35 -27.25 9.2 -27.35 9.05 -27.5 8.9 -27.55 8.75 -27.6 8.65 -27.65 8.5 -27.65 8.45 -27.9 8.6 -28.0 8.65 -28.1 8.7 -28.3 8.75 -28.6 8.8 -28.9 8.8 -29.2 8.75 -29.8 8.5 -30.0 8.45 -31.8 8.5 -32.05 8.55 -32.85 8.65 -32.95 8.7 -33.15 8.75 -33.4 8.8 -36.6 8.8 -36.9 8.75 -37.15 8.65 -37.45 8.55 -37.5 8.55 -37.8 8.6 -38.3 8.65 -38.6 8.75 -38.95 8.85 -39.6 9.0 -40.45 9.05 -40.65 9.1 -40.85 9.15 -41.1 9.2 -41.85 9.25 -42.0 9.3 -42.2 9.3 -42.45 9.35 -43.4 9.4 -43.5 9.45 -43.7 9.5 -43.95 9.55 -47.0 9.6 -47.05 9.65 -47.25 9.7 -47.55 9.75 -48.05 9.8 -48.15 9.85 -48.35 9.9 -48.6 9.95 -48.9 10.0 -49.35 10.15 -50.75 10.15 -51.2 10.0 -52.05 9.75 -52.15 9.75 -52.35 9.75 -53.5 9.75 -53.8 9.7 -54.05 9.6 -54.35 9.45 -54.5 9.3 -54.65 9.2 -54.75 9.05 -54.9 8.9 -54.95 8.75 -55.0 8.65 -55.0 8.55 -55.5 8.3 -55.65 8.15 -55.75 8.0 -55.85 7.85 -55.9 7.75 -55.95 7.6 -55.95 7.45 -56.05 7.3 -56.1 7.15 -56.25 7.05 -56.35 6.9 -56.5 6.75 -56.7 6.6 -56.85 6.45 -56.95 6.4 -56.95 6.5 -56.9 6.65 -56.9 6.8 -56.9 6.95 -56.9 7.1 -56.9 7.2 -56.9 7.35 -56.9 7.5 -56.9 7.65 -56.95 7.8 -57.0 7.9 -57.05 8.05 -57.15 8.2 -57.25 8.35 -57.35 8.5 -57.5 8.65 -57.7 8.75 -57.85 8.85 -57.95 8.9 -58.15 8.95 -58.4 9.0 -59.25 9.1 -59.5 9.25 -59.8 9.3 -60.05 9.4 -60.25 9.45 -60.55 9.5 -60.85 9.6 -61.1 9.75 -61.3 9.85 -61.45 9.9 -61.75 9.95 -63.7 9.95 -63.95 9.9 -64.25 9.8 -64.5 9.65 -64.75 9.5 -65.1 9.25 -65.25 9.1 -65.3 8.95 -65.4 8.8 -65.45 8.65 -65.6 8.55 -65.7 8.4 -65.8 8.25 -65.85 8.1 -65.9 7.95 -65.9 7.85 -65.9 7.7 -65.9 7.55 -65.9 7.4 -65.9 7.25 -65.9 7.1 -65.85 7.0 -65.85 6.85 -65.75 6.7 -65.7 6.55 -65.65 6.4 -65.6 6.3 -65.45 6.15 -65.4 6.0 -65.3 5.85 -65.25 5.7 -65.1 5.6 -64.95 5.45 -64.9 5.3 -64.85 5.15 -64.7 5.0 -64.6 4.85 -64.45 4.75 -64.35 4.6 -64.1 4.45 -63.9 4.35 -63.65 4.25 -63.45 4.1 -63.45 4.0 -63.5 3.85 -63.5 3.7 -63.5 3.55 -63.5 3.4 -63.5 3.3 -63.55 3.15 -63.6 3.0 -63.65 2.85 -63.65 2.7 -63.65 2.55 -63.65 2.45 -63.7 2.3 -63.75 2.15 -63.75 2.0 -63.8 1.85 -63.8 1.75 -63.8 1.6 -63.8 1.45 -63.8 1.15 -63.8 0.9 -63.8 0.6 -63.8 0.45 -63.85 0.3 -63.9 0.2 -64.0 0.05 -64.0 -0.1 -64.05 -0.25 -64.05 -0.4 -64.05 -0.5 -64.05 -0.65 -64.1 -0.8 -64.15 -0.95 -64.2 -1.1 -64.25 -1.25 -64.25 -1.5 -64.25 -1.8 -64.25 -2.2 -64.25 -2.75 -64.25 -3.2 -64.3 -3.35 -64.3 -3.5 -64.35 -3.6 -64.4 -3.75 -64.4 -4.3 -64.4 -4.65 -64.65 -4.8 -64.95 -4.95 -65.45 -5.2 -65.6 -5.35 -65.75 -5.5 -65.85 -5.65 -65.95 -5.8 -66.0 -5.9 -66.05 -6.05 -66.15 -6.2 -66.2 -6.35 -66.25 -6.5 -66.25 -6.6 -66.25 -6.75 -66.25 -6.9 -66.25 -7.05 -66.25 -7.2 -66.25 -7.3 -66.25 -7.45 -66.25 -7.6 -66.2 -7.75 -66.15 -7.9 -66.05 -8.05 -66.05 -8.15 -66.0 -8.3 -66.0 -8.45 -65.9 -8.6 -65.9 -8.75 -65.85 -8.85 -65.8 -9.0 -65.75 -9.15 -65.7 -9.3 -65.65 -9.45 -65.55 -9.6 -65.45 -9.7 -65.3 -9.85 -65.15 -10.0 -64.95 -10.15 -64.8 -10.3 -64.65 -10.4 -64.45 -10.55 -64.2 -10.7 -64.0 -10.8 -63.9 -10.85 -63.7 -10.9 -63.45 -10.9 -63.45 -10.95 -62.95 -10.95 -62.65 -10.9 -62.35 -10.8 -62.15 -10.7 -61.75 -10.55 -61.6 -10.45 -61.45 -10.5 -61.25 -10.5 -60.95 -10.45 -60.75 -10.4 -57.65 -10.35 -57.55 -10.4 -57.35 -10.45 -57.05 -10.5 -56.3 -10.5 -56.05 -10.45 -55.75 -10.4 -55.3 -10.25 -54.5 -10.2 -54.2 -10.15 -53.9 -10.05 -53.4 -9.75 -52.95 -9.5 -52.75 -9.35 -52.35 -9.05 -52.3 -8.9 -52.15 -8.8 -52.05 -8.65 -51.9 -8.5 -51.75 -8.35 -51.6 -8.2 -51.45 -8.1 -51.35 -7.95 -51.25 -7.8 -51.2 -7.65 -51.1 -7.5 -51.1 -7.4 -51.05 -7.5 -50.95 -7.65 -50.8 -7.8 -50.55 -7.9 -50.25 -8.05 -50.0 -8.05 -48.15 -8.1 -48.0 -8.15 -47.8 -8.2 -47.55 -8.25 -47.1 -8.3 -47.0 -8.35 -46.85 -8.4 -46.55 -8.45 -45.85 -8.5 -45.75 -8.55 -45.55 -8.6 -45.3 -8.65 -44.35 -8.7 -44.25 -8.75 -44.05 -8.75 -43.8 -8.8 -43.2 -8.85 -43.1 -8.9 -42.9 -8.95 -42.6 -9.0 -42.25 -9.05 -42.15 -9.1 -41.95 -9.15 -41.7 -9.2 -41.65 -9.2 -39.3 -9.2 -39.0 -9.15 -38.45 -8.9 -38.15 -8.75 -37.05 -9.05 -36.7 -9.15 -36.4 -9.2 -34.8 -9.2 -34.5 -9.15 -34.3 -9.1 -34.05 -9.0 -33.75 -8.95 -33.55 -8.9 -33.45 -8.9 -32.35 -8.85 -32.25 -8.9 -32.05 -8.95 -31.8 -9.0 -30.3 -9.0 -30.0 -8.95 -29.8 -8.9 -29.7 -8.85 -29.35 -8.8 -29.05 -8.75 -28.85 -8.75 -28.75 -8.7 -24.45 -8.6 -24.4 -8.65 -24.2 -8.8 -23.95 -8.95 -23.7 -9.05 -23.45 -9.2 -23.3 -9.3 -23.2 -9.35 -23.0 -9.4 -22.7 -9.45 -22.65 -9.5 -22.45 -9.55 -22.15 -9.6 -21.9 -9.7 -21.6 -9.75 -18.6 -9.75 -18.3 -9.7 -18.05 -9.6 -17.8 -9.55 -17.5 -9.45 -17.1 -9.3 -16.85 -9.15 -16.7 -9.05 -15.95 -9.0 -15.7 -8.95 -15.4 -8.85 -15.1 -8.8 -14.85 -8.7 -14.6 -8.55 -14.55 -8.5 -14.45 -8.65 -14.35 -8.8 -14.25 -8.9 -13.95 -9.05 -13.65 -9.15 -13.4 -9.2 -13.1 -9.15 -12.8 -9.05 -12.6 -8.95 -12.35 -9.0 -12.1 -9.1 -11.9 -9.2 -11.7 -9.3 -11.6 -9.35 -11.4 -9.4 -11.15 -9.4 -11.15 -9.45 -9.2 -9.45 -8.95 -9.4 -8.65 -9.3 -8.4 -9.15 -8.25 -9.0 -8.15 -8.85 -8.0 -8.75 -7.9 -8.6 -7.7 -8.45 -7.55 -8.3 -7.45 -8.15 -7.3 -8.05 -7.2 -7.9 -7.0 -7.75 -6.85 -7.6 -6.7 -7.45 -6.65 -7.3 -6.55 -7.2 -6.35 -7.05 -6.15 -6.9 -6.0 -6.75 -5.9 -6.6 -5.75 -6.5 -5.65 -6.35 -5.45 -6.2 -5.35 -6.05 -5.25 -5.95 -5.2 -6.0 -5.1 -6.15 -5.1 -6.2 -5.15 -6.25 -5.2 -6.4 -5.3 -6.55 -5.4 -6.65 -5.4 -6.8 -5.45 -6.95 -5.45 -7.1 -5.45 -7.25 -5.45 -7.35 -5.45 -7.5 -5.4 -7.65 -5.4 -7.8 -5.3 -7.95 -5.2 -8.1 -5.15 -8.2 -5.0 -8.35 -4.7 -8.5 -4.4 -8.6 -4.15 -8.65 -3.85 -8.6 -3.7 -8.55 -3.6 -8.5 -2.9 -8.55 -2.55 -8.7 -2.2 -8.75 -1.95 -8.85 -1.75 -8.9 -1.45 -8.95 -1.2 -9.0 0.55 -9.0 0.85 -8.95 1.1 -8.85 1.35 -8.75 1.5 -8.6 M29.9 -6.25 L29.65 -6.15 29.35 -6.0 29.15 -5.9 29.0 -5.85 28.7 -5.8 28.4 -5.7 28.15 -5.65 28.4 -5.6 28.7 -5.5 28.95 -5.35 29.05 -5.2 29.2 -5.05 29.25 -4.95 29.35 -4.8 29.4 -4.65 29.45 -4.5 29.55 -4.35 29.65 -4.25 29.7 -4.1 29.75 -4.0 30.0 -3.85 30.2 -3.7 30.4 -3.55 30.5 -3.45 30.55 -3.3 30.6 -3.15 30.7 -3.0 30.7 -2.85 30.75 -2.75 30.85 -2.6 30.95 -2.45 31.0 -2.3 31.1 -2.15 31.25 -2.0 31.3 -1.9 31.35 -1.75 31.45 -1.6 31.5 -1.45 31.6 -1.3 31.65 -1.2 31.75 -1.05 31.8 -0.9 31.85 -0.75 31.9 -0.6 32.05 -0.5 32.1 -0.35 32.2 -0.2 32.3 -0.05 32.4 0.1 32.5 0.25 32.55 0.35 32.65 0.5 32.7 0.65 32.8 0.8 32.8 0.95 32.9 1.05 33.05 1.2 33.15 1.35 33.3 1.5 33.4 1.65 33.5 1.8 33.55 1.9 33.6 2.05 33.7 2.2 33.75 2.35 33.85 2.5 33.9 2.6 33.95 2.75 34.05 2.9 34.15 3.05 34.3 3.2 34.3 3.3 34.4 3.45 34.45 3.6 34.6 3.75 34.7 3.9 34.75 4.05 34.85 4.15 34.9 4.3 35.0 4.45 35.05 4.6 35.1 4.75 35.25 4.85 35.35 5.0 35.45 5.15 35.55 5.3 35.65 5.45 35.8 5.6 35.85 5.7 35.9 5.85 35.95 6.0 36.0 6.15 36.0 6.3 36.05 6.4 36.15 6.4 36.3 6.3 36.4 6.15 36.55 6.0 36.65 5.85 36.75 5.7 36.8 5.6 36.85 5.45 36.95 5.3 37.05 5.15 37.15 5.0 37.2 4.85 37.25 4.75 37.3 4.6 37.35 4.45 37.35 4.3 37.35 4.15 37.4 4.05 37.45 3.9 37.5 3.75 37.5 3.6 37.55 3.45 37.55 3.3 37.6 3.2 37.6 3.05 37.65 2.9 37.7 2.75 37.75 2.6 37.85 2.5 37.9 2.35 38.0 2.2 38.1 2.05 38.1 1.9 38.15 1.8 38.2 1.65 38.3 1.5 38.35 1.35 38.4 1.2 38.45 1.05 38.5 0.95 38.55 0.8 38.6 0.65 38.7 0.5 38.75 0.35 38.85 0.25 38.85 0.1 38.95 -0.05 39.0 -0.2 39.05 -0.35 39.15 -0.5 39.2 -0.6 39.25 -0.75 39.35 -0.9 39.4 -1.05 39.4 -1.2 39.45 -1.3 39.5 -1.45 39.55 -1.6 39.65 -1.75 39.65 -1.9 39.75 -2.0 39.85 -2.15 40.0 -2.3 40.25 -2.45 40.4 -2.55 40.6 -2.6 40.65 -2.75 40.7 -2.85 40.75 -3.0 40.85 -3.15 40.95 -3.3 41.0 -3.45 41.1 -3.55 41.15 -3.7 41.2 -3.85 41.3 -4.0 41.35 -4.15 41.4 -4.3 41.45 -4.4 41.55 -4.55 41.65 -4.7 41.75 -4.85 41.9 -5.0 42.1 -5.1 42.2 -5.25 42.4 -5.4 42.6 -5.5 42.65 -5.55 42.8 -5.55 42.8 -5.65 42.85 -5.8 42.9 -5.9 43.05 -6.05 43.15 -6.2 43.35 -6.35 43.5 -6.45 43.6 -6.5 43.8 -6.55 43.7 -6.55 43.45 -6.65 43.25 -6.7 43.15 -6.7 42.95 -6.7 42.7 -6.6 41.85 -6.35 39.45 -6.1 39.35 -5.95 39.25 -5.8 39.2 -5.7 39.1 -5.55 39.05 -5.4 38.95 -5.25 38.85 -5.1 38.85 -5.0 38.75 -4.85 38.7 -4.7 38.65 -4.55 38.6 -4.4 38.6 -4.3 38.5 -4.15 38.45 -4.0 38.45 -3.85 38.45 -3.7 38.45 -3.55 38.4 -3.45 38.35 -3.3 38.25 -3.15 38.25 -3.0 38.2 -2.85 38.15 -2.75 38.1 -2.6 38.05 -2.45 37.9 -2.3 37.75 -2.15 37.5 -2.0 37.25 -1.95 37.3 -1.9 37.35 -1.75 37.4 -1.6 37.45 -1.45 37.5 -1.3 37.5 -1.2 37.5 -1.05 37.5 -0.9 37.5 -0.75 37.5 -0.6 37.5 -0.35 37.5 -0.2 37.5 -0.05 37.5 0.25 37.5 0.35 37.6 0.5 37.7 0.65 37.75 0.8 37.85 0.95 37.85 1.05 37.9 1.2 37.9 1.35 37.9 1.5 37.9 1.65 37.85 1.8 37.8 1.9 37.75 2.05 37.65 2.2 37.55 2.35 37.4 2.45 37.25 2.6 37.05 2.7 36.85 2.75 36.6 2.8 36.3 2.75 36.0 2.65 35.75 2.55 35.6 2.4 35.45 2.25 35.35 2.1 35.2 1.95 35.15 1.8 35.05 1.7 35.05 1.55 34.95 1.4 34.95 1.25 34.9 1.1 34.9 1.0 34.9 0.85 34.9 0.7 34.9 0.55 34.9 0.4 34.9 0.15 34.9 0.0 34.9 -0.15 34.9 -0.45 34.85 -0.55 34.75 -0.7 34.65 -0.85 34.6 -1.0 34.5 -1.15 34.45 -1.25 34.35 -1.4 34.3 -1.55 34.25 -1.7 34.15 -1.85 34.05 -2.0 34.0 -2.1 33.9 -2.25 33.85 -2.4 33.8 -2.55 33.75 -2.7 33.7 -2.8 33.65 -2.95 33.6 -3.1 33.55 -3.25 33.5 -3.4 33.35 -3.5 33.25 -3.65 33.15 -3.8 33.05 -3.95 33.0 -4.1 32.95 -4.25 32.85 -4.35 32.8 -4.5 32.8 -4.65 32.75 -4.8 32.7 -4.95 32.7 -5.05 32.6 -5.2 32.5 -5.35 32.4 -5.5 32.25 -5.65 32.1 -5.8 31.95 -5.9 31.7 -6.05 31.5 -6.2 31.4 -6.35 31.25 -6.4 30.2 -6.35 30.1 -6.3 29.9 -6.25 M24.85 -6.05 L24.65 -6.1 22.3 -6.15 22.2 -6.1 22.05 -6.05 21.75 -6.0 21.55 -5.95 21.45 -5.9 21.4 -5.9 21.4 -5.85 21.45 -5.75 21.5 -5.6 21.55 -5.45 21.55 -5.3 21.55 -5.15 21.55 -5.1 21.75 -5.05 22.05 -4.9 22.2 -4.75 22.35 -4.6 22.45 -4.45 22.55 -4.3 22.6 -4.2 22.65 -4.05 22.7 -3.9 22.7 -3.75 22.7 -3.6 22.75 -3.5 22.8 -3.35 22.85 -3.2 22.85 -3.05 22.85 -2.75 22.85 -2.5 22.85 -2.05 22.85 -1.5 22.85 -1.25 22.8 -1.1 22.8 -0.95 22.75 -0.8 22.75 -0.65 22.7 -0.5 22.7 -0.4 22.7 -0.25 22.7 -0.1 22.7 0.05 22.7 0.2 22.7 0.45 22.7 0.75 22.65 0.9 22.6 1.05 22.55 1.15 22.5 1.3 22.45 1.45 22.35 1.6 22.3 1.75 22.2 1.85 22.15 2.0 21.9 2.15 21.75 2.25 21.65 2.3 21.45 2.35 21.2 2.4 21.0 2.35 21.0 2.45 21.0 2.55 21.0 2.85 21.0 3.15 21.0 3.4 21.05 3.55 21.15 3.7 21.15 3.85 21.2 4.0 21.2 4.1 21.2 4.25 21.2 4.4 21.2 4.55 21.2 4.7 21.2 4.85 21.2 4.95 21.25 5.1 21.3 5.25 21.35 5.4 21.35 5.55 21.35 5.65 21.35 5.8 21.35 5.95 21.3 6.1 21.25 6.25 21.2 6.35 21.1 6.5 21.0 6.65 21.55 6.65 21.55 6.5 21.55 6.35 21.55 6.25 21.55 6.1 21.55 5.95 21.6 5.8 21.6 5.65 21.7 5.55 21.75 5.4 21.8 5.25 21.9 5.1 21.95 4.95 21.95 4.85 21.95 4.7 21.95 4.55 22.0 4.4 22.05 4.25 22.05 4.1 22.1 4.0 22.15 3.85 22.15 3.7 22.15 3.55 22.2 3.4 22.2 3.3 22.25 3.15 22.3 3.0 22.3 2.85 22.35 2.7 22.35 2.55 22.4 2.45 22.4 2.3 22.45 2.15 22.5 2.0 22.55 1.85 22.6 1.75 22.65 1.6 22.65 1.45 22.7 1.3 22.75 1.15 22.8 1.05 22.85 0.9 22.9 0.75 22.95 0.45 23.0 0.3 23.0 0.2 23.05 0.05 23.05 -0.1 23.05 -0.25 23.05 -0.4 23.05 -0.5 23.05 -0.65 23.05 -0.8 23.1 -0.95 23.15 -1.1 23.2 -1.25 23.35 -1.35 23.4 -1.5 23.5 -1.65 23.55 -1.8 23.6 -1.95 23.65 -2.05 23.7 -2.2 23.75 -2.35 23.85 -2.5 23.9 -2.65 23.9 -2.75 23.95 -2.9 24.0 -3.05 24.05 -3.2 24.1 -3.35 24.15 -3.5 24.15 -3.6 24.2 -3.75 24.25 -3.9 24.3 -4.05 24.35 -4.2 24.4 -4.3 24.45 -4.45 24.5 -4.6 24.55 -4.75 24.55 -4.9 24.6 -5.05 24.6 -5.15 24.7 -5.3 24.8 -5.45 24.9 -5.6 25.0 -5.75 25.15 -5.85 25.3 -5.95 24.85 -6.05 M28.15 -5.65 L27.1 -5.65 27.15 -5.5 27.25 -5.4 27.5 -5.45 27.65 -5.55 27.85 -5.6 28.15 -5.65 M46.65 -6.95 L45.85 -6.9 45.4 -6.8 44.8 -6.7 44.5 -6.65 44.2 -6.55 44.35 -6.55 44.65 -6.45 44.9 -6.3 45.0 -6.15 45.15 -6.0 45.2 -5.85 45.3 -5.75 45.35 -5.6 45.4 -5.45 45.4 -5.3 45.4 -5.15 45.4 -5.05 45.4 -4.9 45.4 -4.75 45.4 -4.6 45.4 -4.45 45.5 -4.3 45.5 -4.2 45.55 -4.05 45.55 -3.9 45.55 -3.75 45.55 -3.6 45.55 -3.5 45.6 -3.35 45.65 -3.2 45.7 -3.05 45.7 -2.9 45.7 -2.75 45.7 -2.5 45.7 -2.35 45.7 -2.2 45.7 -2.05 45.7 -1.95 45.7 -1.8 45.7 -1.65 45.75 -1.5 45.8 -1.35 45.85 -1.25 45.9 -1.1 45.95 -0.95 45.95 -0.5 45.95 -0.25 45.95 0.2 45.95 0.9 45.95 1.85 45.95 3.0 45.95 3.15 45.9 3.3 45.9 3.4 45.8 3.55 45.75 3.7 45.7 3.85 45.7 4.1 45.7 4.25 45.7 4.4 45.7 4.7 45.7 4.85 45.7 4.95 45.7 5.25 45.7 5.4 45.7 5.55 45.7 5.65 45.7 5.8 45.6 5.95 45.55 6.1 45.6 6.15 45.85 6.25 46.05 6.3 46.15 6.35 46.45 6.4 46.7 6.45 46.8 6.4 47.1 6.35 47.4 6.35 47.5 6.3 47.6 6.25 47.6 6.2 47.6 6.05 47.6 5.9 47.6 5.75 47.6 5.6 47.6 5.5 47.55 5.35 47.5 5.2 47.45 5.05 47.4 4.9 47.4 4.5 47.4 4.2 47.4 3.95 47.4 3.5 47.4 2.95 47.4 2.1 47.4 1.55 47.45 1.4 47.5 1.25 47.6 1.1 47.7 1.0 47.85 0.85 48.05 0.7 48.25 0.6 48.45 0.55 48.3 0.5 48.05 0.4 47.75 0.3 47.6 0.15 47.45 0.0 47.35 -0.15 47.25 -0.3 47.2 -0.45 47.1 -0.55 47.0 -0.7 46.9 -0.85 46.9 -1.0 46.85 -1.15 46.85 -1.25 46.85 -1.4 46.85 -1.55 46.75 -1.7 46.7 -1.85 46.65 -2.0 46.65 -2.4 46.65 -2.55 46.65 -2.8 46.65 -2.95 46.65 -3.4 46.65 -3.8 46.65 -4.5 46.65 -4.8 46.7 -4.95 46.75 -5.05 46.85 -5.2 46.95 -5.35 47.1 -5.5 47.25 -5.65 47.35 -5.75 47.55 -5.9 47.65 -6.05 47.8 -6.2 48.0 -6.35 48.15 -6.5 47.75 -6.75 47.5 -6.9 47.3 -7.05 47.25 -7.1 46.95 -7.0 46.65 -6.95 M49.85 -6.2 L50.05 -6.05 50.15 -5.9 50.25 -5.8 50.4 -5.65 50.45 -5.5 50.55 -5.35 50.8 -5.2 51.05 -5.05 51.1 -4.95 51.2 -4.8 51.4 -4.65 51.7 -4.55 51.75 -4.6 51.8 -4.75 51.8 -4.9 51.8 -5.05 51.8 -5.15 51.8 -5.3 51.8 -5.45 51.75 -5.6 51.65 -5.75 51.65 -5.8 51.5 -5.9 51.45 -6.05 51.45 -6.1 51.05 -6.3 50.85 -6.45 50.7 -6.55 50.25 -6.55 50.15 -6.5 49.95 -6.45 49.65 -6.35 49.85 -6.2 M49.5 -2.3 L49.65 -2.25 50.15 -2.35 49.6 -2.65 49.3 -2.8 49.3 -2.75 49.35 -2.65 49.4 -2.5 49.45 -2.35 49.5 -2.3 M55.5 -4.7 L55.5 -4.6 55.5 -4.45 55.5 -4.3 55.5 -4.05 55.5 -3.75 55.5 -3.6 55.55 -3.5 55.6 -3.35 55.6 -3.2 55.65 -3.05 55.65 -2.9 55.7 -2.75 55.7 -2.65 55.7 -2.5 55.7 -2.35 55.7 -2.2 55.7 -1.95 55.7 -1.65 55.7 -1.5 55.75 -1.35 55.8 -1.25 55.85 -1.1 55.9 -0.95 55.9 0.75 55.9 3.0 55.9 5.25 55.9 6.05 55.95 6.05 56.15 6.1 56.25 6.1 57.35 6.1 57.35 5.95 57.35 5.8 57.35 5.65 57.35 5.55 57.35 5.4 57.35 5.1 57.35 4.95 57.4 4.85 57.45 4.7 57.55 4.55 57.65 4.4 57.7 4.25 57.8 4.1 57.85 4.0 58.0 3.85 58.05 3.7 58.1 3.55 58.2 3.4 58.25 3.3 58.35 3.15 58.4 3.0 58.45 2.85 58.5 2.7 58.6 2.55 58.65 2.45 58.7 2.3 58.8 2.15 58.85 2.0 58.85 1.85 58.9 1.75 58.9 1.6 59.0 1.45 59.05 1.3 59.15 1.15 59.2 1.05 59.3 0.9 59.3 0.75 59.3 0.6 59.3 0.45 59.25 0.3 59.2 0.2 59.1 0.05 59.1 -0.1 59.05 -0.25 59.05 -0.4 59.0 -0.5 58.9 -0.65 58.9 -0.8 58.85 -0.95 58.85 -1.1 58.85 -1.25 58.85 -1.35 58.85 -1.5 58.85 -1.65 58.85 -1.8 58.75 -1.95 58.75 -2.05 58.7 -2.2 58.7 -2.35 58.7 -2.5 58.65 -2.6 58.45 -2.75 58.3 -2.85 58.15 -3.0 58.05 -3.15 57.9 -3.3 57.85 -3.45 57.8 -3.55 57.75 -3.7 57.65 -3.85 57.55 -4.0 57.45 -4.15 57.4 -4.3 57.3 -4.4 57.2 -4.55 57.1 -4.7 57.1 -4.85 56.95 -5.0 56.7 -4.95 56.4 -4.9 56.1 -4.85 56.0 -4.8 55.8 -4.75 55.55 -4.7 55.5 -4.7 M63.05 5.6 L62.85 5.75 62.8 5.9 62.7 6.05 62.65 6.2 63.0 6.35 63.25 6.45 63.55 6.6 63.8 6.75 63.95 6.9 64.05 7.05 64.3 7.05 64.3 6.9 64.35 6.75 64.35 6.6 64.45 6.45 64.5 6.35 64.55 6.2 64.55 6.05 64.55 5.9 64.6 5.75 64.65 5.6 64.7 5.5 64.7 5.35 64.7 5.2 64.65 5.05 64.6 5.0 64.6 4.95 64.25 5.05 64.05 5.15 63.9 5.2 63.6 5.25 63.2 5.35 63.15 5.5 63.05 5.6 M52.05 0.2 L51.95 0.25 51.4 0.3 49.9 0.4 49.8 0.45 49.6 0.5 49.25 0.6 49.45 0.75 49.65 0.9 49.8 1.05 50.1 1.1 50.35 1.15 50.55 1.2 51.1 1.3 51.4 1.4 51.65 1.55 51.8 1.7 52.15 1.8 52.35 1.8 52.35 1.7 52.35 1.55 52.35 1.4 52.35 1.1 52.35 1.0 52.35 0.85 52.35 0.7 52.3 0.55 52.2 0.4 52.15 0.3 52.1 0.2 52.05 0.2 M51.35 4.5 L51.45 4.4 51.15 4.3 50.6 4.15 50.3 4.05 50.25 3.95 50.2 3.9 50.05 3.9 50.05 3.95 50.05 4.1 50.05 4.2 50.15 4.35 50.2 4.5 50.25 4.6 51.05 4.65 51.1 4.6 51.35 4.5 M12.35 6.15 L12.45 6.1 12.4 6.1 12.35 6.15 M-61.2 -7.6 L-61.45 -7.45 -61.7 -7.4 -61.75 -7.35 -61.75 -7.1 -61.75 -6.95 -61.5 -6.9 -61.2 -6.8 -60.95 -6.65 -60.8 -6.55 -60.65 -6.4 -60.65 -6.25 -60.55 -6.1 -60.5 -5.95 -60.45 -5.8 -60.45 -5.7 -60.45 -5.55 -60.5 -5.4 -60.5 -5.25 -60.6 -5.1 -60.65 -5.0 -60.7 -4.85 -60.8 -4.7 Q-60.95 -4.65 -61.05 -4.55 L-61.2 -4.45 -61.3 -4.4 -61.45 -4.35 -61.75 -4.3 -61.7 -4.15 -61.7 -4.0 -61.65 -3.85 -61.65 -3.7 -61.6 -3.55 -61.6 -3.45 -61.6 -3.3 -61.6 -3.0 -61.6 -2.6 -61.6 -2.15 -61.6 -1.75 -61.55 -1.6 -61.5 -1.45 -61.45 -1.3 -61.45 -1.2 -61.45 -1.05 -61.45 -0.9 -61.45 -0.75 -61.4 -0.6 -61.3 -0.5 -61.25 -0.35 -61.2 -0.2 -61.2 -0.05 -61.2 0.1 -61.2 0.25 -61.2 0.5 -61.2 0.8 -61.2 1.05 -61.2 1.2 -61.1 1.35 -61.05 1.5 -61.0 1.65 -61.0 1.8 -61.0 1.9 -61.0 2.05 -61.0 2.2 -60.95 2.35 -60.9 2.5 -60.85 2.6 -60.85 2.75 -60.85 2.9 -60.85 3.05 -60.8 3.2 -60.75 3.3 -60.7 3.4 -60.65 3.35 -60.55 3.25 -60.4 3.1 -60.25 2.95 -60.1 2.8 -59.9 2.65 -59.75 2.55 -59.65 2.55 -59.55 2.5 -59.5 2.4 -59.45 2.25 -59.35 2.1 -59.25 1.95 -59.15 1.8 -58.9 1.7 -58.7 1.6 -58.5 1.55 -58.25 1.5 -57.95 1.55 -57.65 1.65 -57.45 1.8 -57.25 1.9 -57.15 2.05 -57.0 2.2 -56.85 2.35 -56.8 2.5 -56.65 2.6 -56.55 2.75 -56.4 2.9 -56.25 3.05 -56.15 3.2 -56.05 3.3 -55.95 3.45 -55.8 3.6 -55.7 3.75 -55.55 3.9 -55.45 4.05 -55.35 4.15 -55.3 4.3 -55.15 4.45 -54.95 4.6 -54.75 4.75 -54.6 4.85 -54.35 5.15 -54.25 5.3 -54.05 5.45 -53.9 5.6 -53.85 5.7 -53.75 5.85 -53.65 6.0 -53.55 6.15 -53.45 6.3 -53.3 6.4 -53.1 6.55 -53.05 6.4 -52.9 6.3 -52.8 6.15 -52.7 6.0 -52.6 5.85 -52.45 5.7 -52.2 5.6 -51.9 5.5 -51.6 5.45 -51.05 5.45 -50.8 5.5 -50.55 5.6 -50.65 5.45 -50.75 5.3 -50.8 5.15 -50.8 5.0 -50.85 4.85 -50.9 4.75 -50.95 4.6 -51.0 4.45 -51.05 4.3 -51.2 4.15 -51.35 4.05 -51.5 3.9 -51.65 3.75 -51.8 3.6 -52.1 3.45 -52.35 3.3 -52.55 3.2 -52.7 3.05 -52.85 2.9 -53.0 2.75 -53.15 2.6 -53.25 2.5 -53.45 2.35 -53.65 2.2 -53.85 2.05 -54.0 1.9 -54.15 1.8 -54.3 1.65 -54.45 1.5 -54.6 1.35 -54.9 1.2 -55.05 1.05 -55.15 0.95 -55.25 0.8 -55.35 0.65 -55.35 0.5 -55.35 0.35 -55.35 0.25 -55.35 0.1 -55.35 -0.05 -55.35 -0.2 -55.35 -0.35 -55.35 -0.5 -55.35 -0.6 -55.3 -0.75 -55.2 -0.9 -55.2 -1.0 -55.2 -1.15 -55.15 -1.25 -55.15 -1.4 -55.1 -1.55 -55.05 -1.7 -54.95 -1.85 -54.9 -2.0 -54.8 -2.1 -54.75 -2.25 -54.75 -2.4 -54.65 -2.55 -54.6 -2.7 -54.5 -2.8 -54.35 -2.95 -54.3 -3.1 -54.15 -3.25 -54.05 -3.4 -53.95 -3.5 -53.8 -3.65 -53.65 -3.8 -53.55 -3.95 -53.45 -4.1 -53.4 -4.25 -53.3 -4.35 -53.3 -4.5 -53.3 -4.65 -53.3 -4.8 -53.3 -4.95 -53.3 -5.05 -53.3 -5.2 -53.4 -5.35 -53.45 -5.5 -53.5 -5.65 -53.55 -5.8 -53.65 -5.9 -53.65 -6.05 -53.7 -6.2 -53.7 -6.35 -53.85 -6.5 -53.95 -6.6 -54.05 -6.75 -54.15 -6.9 -54.25 -7.05 -54.3 -7.2 -54.55 -7.3 -54.8 -7.45 -55.85 -7.65 -56.45 -7.8 -56.55 -7.8 -56.9 -7.85 -57.0 -7.8 -57.2 -7.75 -57.5 -7.7 -61.0 -7.7 -61.1 -7.7 -61.2 -7.6 M-50.7 -4.7 L-50.7 -4.4 -50.7 -4.15 -50.7 -4.0 -50.7 -3.7 -50.7 -3.55 -50.75 -3.45 -50.8 -3.3 -50.85 -3.15 -50.9 -3.0 -51.05 -2.85 -51.1 -2.75 -51.2 -2.6 -51.3 -2.45 -51.45 -2.3 -51.55 -2.15 -51.65 -2.0 -51.8 -1.9 -51.95 -1.75 -52.1 -1.6 -52.2 -1.45 -52.2 -1.3 -52.25 -1.2 -52.3 -1.05 -52.35 -0.9 -52.4 -0.75 -52.55 -0.6 -52.6 -0.5 -52.6 -0.45 -52.55 -0.4 -52.4 -0.25 -52.3 -0.1 -52.15 0.05 -51.9 0.2 -51.7 0.3 -51.55 0.45 -51.25 0.75 -51.05 0.9 -50.95 1.05 -50.7 1.15 -50.4 1.3 -50.2 1.45 -50.1 1.55 -50.1 -0.35 -50.1 -2.45 -50.1 -4.3 -50.1 -4.7 -50.15 -4.85 -50.25 -5.0 -50.25 -5.1 -50.35 -5.25 -50.4 -5.4 -50.5 -5.55 -50.7 -5.65 -50.7 -5.55 -50.7 -5.4 -50.7 -5.25 -50.7 -4.85 -50.7 -4.7 M-42.25 -6.35 L-42.35 -6.3 -42.5 -6.25 -42.8 -6.2 -43.4 -6.15 -43.5 -6.1 -43.7 -6.05 -43.95 -6.05 -45.05 -5.95 -45.15 -5.9 -45.35 -5.9 -45.6 -5.85 -46.4 -5.8 -46.5 -5.75 -46.7 -5.7 -46.9 -5.65 -46.85 -5.55 -46.8 -5.4 -46.75 -5.25 -46.75 -5.1 -46.65 -5.0 -46.6 -4.85 -46.55 -4.7 -46.55 -3.3 -46.55 -1.3 -46.55 0.65 -46.55 2.2 -46.5 2.35 -46.45 2.5 -46.4 2.6 -46.4 2.75 -46.4 2.9 -46.4 3.05 -46.35 3.2 -46.3 3.3 -46.25 3.45 -46.25 3.6 -46.25 3.75 -46.25 3.9 -46.25 4.05 -46.25 4.15 -46.25 4.3 -46.35 4.45 -46.4 4.6 -46.5 4.75 -46.6 4.85 -46.85 5.0 -47.0 5.1 -47.05 5.15 -47.25 5.2 -47.55 5.25 -47.65 5.25 -47.6 5.4 -47.55 5.55 -47.5 5.65 -47.45 5.8 -47.4 5.9 -47.35 5.85 -46.35 5.6 -45.3 5.6 -45.3 5.5 -45.3 5.35 -45.3 5.2 -45.25 5.05 -45.2 4.9 -45.15 4.8 -45.0 4.65 -44.9 4.5 -44.75 4.35 -44.65 4.2 -44.55 4.1 -44.55 3.95 -44.55 3.8 -44.55 3.65 -44.55 3.5 -44.55 3.35 -44.5 3.25 -44.5 3.1 -44.4 2.95 -44.35 2.8 -44.35 2.65 -44.35 2.55 -44.3 2.4 -44.25 2.25 -44.2 2.1 -44.15 1.95 -44.05 1.8 -44.0 1.7 -43.95 1.55 -43.9 1.4 -43.85 1.25 -43.8 1.1 -43.75 1.0 -43.7 0.85 -43.9 0.7 -44.1 0.55 -44.25 0.4 -44.4 0.3 -44.55 0.15 -44.65 0.0 -44.7 -0.15 -44.8 -0.3 -44.8 -0.45 -44.85 -0.55 -44.85 -0.7 -44.85 -0.85 -44.85 -1.0 -44.85 -1.15 -44.85 -1.25 -44.85 -1.4 -44.8 -1.55 -44.75 -1.7 -44.7 -1.85 -44.7 -2.0 -44.7 -2.1 -44.7 -2.25 -44.7 -2.4 -44.7 -2.55 -44.65 -2.7 -44.6 -2.8 -44.55 -2.95 -44.55 -3.1 -44.55 -3.25 -44.55 -3.4 -44.5 -3.5 -44.5 -3.65 -44.4 -3.8 -44.3 -3.95 -44.2 -4.1 -44.05 -4.25 -43.8 -4.35 -43.5 -4.45 -43.2 -4.5 -43.05 -4.5 -42.75 -4.45 -42.55 -4.4 -42.45 -4.4 -41.2 -4.4 -41.05 -4.55 -40.95 -4.7 -40.8 -4.85 -40.6 -4.95 -40.5 -5.0 -40.3 -5.0 -40.05 -5.05 -39.8 -5.1 -39.8 -5.2 -39.8 -5.35 -39.75 -5.5 -39.65 -5.65 -39.6 -5.8 -39.55 -5.9 -39.5 -6.05 -39.5 -6.2 -39.55 -6.35 -39.7 -6.5 -41.3 -6.55 -41.4 -6.5 -41.6 -6.45 -41.85 -6.4 -42.25 -6.35 M-37.35 -3.55 L-37.4 -3.5 -37.5 -3.35 -37.55 -3.25 -37.6 -3.15 -37.55 -3.0 -37.55 -2.85 -37.45 -2.75 -37.4 -2.6 -37.35 -2.45 -37.35 -2.3 -37.35 -2.15 -37.35 -2.0 -37.35 -1.9 -37.35 -1.75 -37.3 -1.6 -37.25 -1.45 -37.2 -1.3 -37.2 -1.05 -37.2 -0.75 -37.2 -0.2 -37.2 0.35 -37.2 0.95 -37.15 1.05 -37.1 1.2 -37.05 1.35 -37.0 1.5 -37.0 1.65 -37.0 1.8 -37.0 1.9 -37.0 2.05 -37.0 2.2 -37.0 2.35 -37.0 2.5 -36.95 2.6 -36.9 2.75 -36.85 2.9 -36.8 3.05 -36.8 3.2 -36.8 3.3 -36.8 3.45 -36.8 3.75 -36.8 4.05 -36.8 4.45 -36.8 4.6 -36.7 4.75 -36.6 4.85 -36.55 4.9 -36.5 4.85 -36.4 4.75 -36.4 4.45 -36.4 4.3 -36.4 4.15 -36.4 4.05 -36.4 3.9 -36.4 3.6 -36.4 3.3 -36.4 3.05 -36.4 2.9 -36.35 2.75 -36.35 2.6 -36.25 2.5 -36.25 2.35 -36.25 2.2 -36.25 2.05 -36.2 1.9 -36.2 1.8 -36.15 1.65 -36.1 1.5 -36.1 1.35 -36.1 1.2 -36.1 1.05 -36.1 0.95 -36.1 0.8 -36.05 0.65 -36.0 0.5 -35.95 0.35 -35.85 0.25 -35.8 0.1 -35.7 -0.05 -35.65 -0.2 -35.6 -0.35 -35.6 -0.5 -35.55 -0.6 -35.5 -0.75 -35.5 -0.9 -35.5 -1.05 -35.5 -1.2 -35.5 -1.3 -35.5 -1.45 -35.5 -1.6 -35.45 -1.75 -35.45 -1.9 -35.4 -2.0 -35.35 -2.15 -35.35 -2.3 -35.35 -2.6 -35.35 -2.75 -35.35 -2.85 -35.35 -3.0 -35.35 -3.15 -35.35 -3.3 -37.35 -3.55 M-32.75 -4.05 L-32.7 -3.9 -32.7 -3.5 -32.7 -3.35 -32.7 -3.05 -32.7 -2.75 -32.7 -2.35 -32.7 -1.95 -32.7 -1.65 -32.75 -1.5 -32.8 -1.35 -32.85 -1.25 -32.85 -1.1 -32.85 -0.95 -32.85 -0.8 -32.85 -0.65 -32.85 -0.5 -32.85 -0.4 -32.85 -0.25 -32.9 -0.1 -32.95 0.05 -33.0 0.2 -33.0 0.3 -33.05 0.45 -33.1 0.6 -33.2 0.75 -33.25 0.9 -33.3 1.05 -33.35 1.15 -33.45 1.3 -33.45 1.45 -33.45 1.6 -33.45 1.75 -33.45 1.85 -33.5 2.0 -33.5 2.15 -33.55 2.3 -33.6 2.45 -33.6 2.55 -33.6 2.7 -33.6 2.85 -33.6 3.0 -33.65 3.15 -33.7 3.3 -33.75 3.4 -33.8 3.55 -33.8 3.7 -33.8 4.0 -33.8 4.1 -33.8 4.25 -33.8 4.4 -33.8 4.55 -33.8 4.7 -33.8 4.85 -33.8 4.95 -33.7 5.1 -33.65 5.25 -33.6 5.4 -33.6 5.55 -33.6 5.65 -33.6 5.8 -33.6 5.95 -33.65 6.1 -33.6 6.15 -33.5 6.1 -33.05 6.0 -32.5 5.9 -32.35 5.75 -32.3 5.6 -32.25 5.5 -32.2 5.35 -32.05 5.2 -31.95 5.05 -31.8 4.9 -31.75 4.85 -31.75 3.9 -31.75 2.35 -31.75 0.65 -31.75 0.1 -31.8 -0.05 -31.8 -0.2 -31.85 -0.35 -31.9 -0.5 -31.9 -0.6 -31.9 -0.75 -31.9 -1.05 -31.9 -1.2 -31.9 -1.3 -31.9 -1.6 -31.9 -1.75 -31.9 -1.9 -31.9 -2.0 -32.0 -2.15 -32.05 -2.3 -32.1 -2.45 -32.15 -2.6 -32.15 -2.75 -32.15 -2.85 -32.15 -3.0 -32.15 -3.15 -32.15 -3.3 -32.1 -3.45 -32.05 -3.55 -31.95 -3.7 -31.85 -3.85 -31.75 -4.0 -31.6 -4.1 -32.75 -4.1 -32.75 -4.05 M-22.45 -6.55 L-22.55 -6.4 -22.75 -6.25 -22.9 -6.15 -23.0 -6.1 -23.05 -6.05 -23.1 -5.9 -23.2 -5.8 -23.3 -5.65 -23.35 -5.6 -23.3 -5.45 -23.3 -5.3 -23.3 -5.15 -23.3 -5.05 -23.3 -4.9 -23.3 -4.75 -23.3 -4.6 -23.35 -4.45 -23.35 -4.3 -23.45 -4.2 -23.45 -4.05 -23.5 -3.9 -23.5 -3.75 -23.55 -3.6 -23.6 -3.5 -23.65 -3.35 -23.65 -2.65 -23.65 -1.35 -23.65 -0.1 -23.65 1.3 -23.65 1.6 -23.6 1.75 -23.55 1.85 -23.55 2.0 -23.5 2.15 -23.5 2.3 -23.45 2.45 -23.4 2.55 -23.35 2.7 -23.3 2.85 -23.3 3.15 -23.3 3.4 -23.3 3.85 -23.3 4.4 -23.3 5.1 -23.3 5.25 -23.35 5.4 -23.4 5.55 -23.45 5.65 -23.5 5.8 -23.65 5.95 -23.7 6.1 -23.8 6.25 -23.9 6.35 -24.05 6.5 -24.25 6.65 -24.4 6.75 -24.2 6.75 -24.1 6.75 -23.65 6.7 -23.3 6.55 -22.85 6.45 -22.3 6.3 -21.4 6.15 -21.3 6.1 -21.1 6.0 -20.9 5.9 -20.8 5.85 -20.6 5.8 -20.25 5.7 -20.25 5.6 -20.3 5.45 -20.35 5.3 -20.4 5.15 -20.4 5.0 -20.45 4.85 -20.5 4.75 -20.6 4.6 -20.65 4.45 -20.7 4.3 -20.8 4.15 -20.85 4.05 -20.9 3.9 -20.9 3.75 -20.9 3.6 -20.9 3.45 -21.0 3.3 -21.0 3.2 -21.05 3.05 -21.05 2.9 -21.05 2.75 -21.05 2.6 -21.05 2.5 -21.05 2.2 -21.05 1.9 -21.05 1.65 -21.0 1.5 -21.0 1.35 -20.9 1.2 -20.8 1.15 -20.9 1.05 -21.0 0.95 -21.1 0.8 -21.15 0.65 -21.15 0.5 -21.2 0.35 -21.2 0.25 -21.2 0.1 -21.2 -0.05 -21.2 -0.2 -21.2 -0.35 -21.2 -0.5 -21.2 -0.75 -21.2 -0.9 -21.2 -1.05 -21.2 -1.2 -21.2 -1.3 -21.2 -1.45 -21.15 -1.6 -21.15 -1.75 -21.15 -1.9 -21.1 -2.0 -21.05 -2.15 -21.05 -2.3 -21.05 -2.45 -21.05 -2.6 -21.05 -2.75 -21.05 -2.85 -21.0 -3.0 -20.95 -3.15 -20.9 -3.3 -20.8 -3.45 -20.75 -3.55 -20.65 -3.7 -20.65 -3.85 -20.65 -4.0 -20.6 -4.15 -20.55 -4.3 -20.5 -4.4 -20.4 -4.55 -20.3 -4.7 -20.15 -4.85 -20.0 -5.0 -19.85 -5.1 -19.6 -5.25 -19.45 -5.35 -19.25 -5.4 -18.95 -5.45 -18.85 -5.45 -18.55 -5.4 -18.25 -5.3 -18.05 -5.15 -17.85 -5.05 -17.65 -4.9 -17.55 -4.75 -17.45 -4.6 -17.35 -4.45 -17.35 -4.4 -17.2 -4.55 -17.1 -4.7 -16.9 -4.85 -16.7 -4.95 -16.6 -5.0 -16.45 -5.05 -16.15 -5.05 -16.2 -5.1 -16.3 -5.25 -16.35 -5.4 -16.4 -5.55 -16.4 -5.7 -16.4 -5.8 -16.4 -5.95 -16.4 -6.1 -16.4 -6.2 -16.45 -6.3 -16.5 -6.3 -17.4 -6.5 -18.0 -6.65 -18.65 -6.95 -18.9 -7.05 -18.95 -7.05 -21.4 -7.1 -21.5 -7.05 -21.8 -6.95 -22.05 -6.85 -22.3 -6.75 -22.35 -6.65 -22.45 -6.55 M-26.95 -4.6 L-27.05 -4.65 -28.0 -4.7 -28.3 -4.75 -28.5 -4.8 -28.65 -4.8 -28.8 -4.75 -29.1 -4.65 -29.4 -4.55 -29.65 -4.5 -30.05 -4.45 -30.15 -4.4 -30.3 -4.35 -29.85 -4.3 -29.55 -4.25 -29.3 -4.2 -29.05 -4.05 -28.85 -3.9 -28.7 -3.75 -28.5 -3.6 -28.25 -3.5 -28.1 -3.4 -27.85 -3.4 -27.65 -3.45 -27.55 -3.45 -27.35 -3.5 -27.1 -3.55 -26.9 -3.65 -26.9 -3.8 -26.9 -3.95 -26.9 -4.1 -26.9 -4.25 -26.9 -4.35 -26.9 -4.5 -26.95 -4.6 M-29.15 -0.5 L-29.1 -0.35 -29.1 0.25 -29.1 0.35 -29.1 1.05 -29.1 1.8 -29.1 2.9 -29.1 4.0 -29.05 4.0 -28.8 4.1 -28.2 4.35 -28.0 4.5 -27.9 4.65 -27.8 4.8 -27.75 4.9 -27.65 5.05 -27.55 5.2 -27.45 5.35 -27.4 5.45 -27.4 5.4 -27.35 5.25 -27.35 5.1 -27.25 4.95 -27.2 4.85 -27.1 4.7 -26.95 4.55 -26.75 4.4 -26.45 4.25 -26.2 4.15 -25.9 4.1 -25.9 3.95 -25.9 3.8 -25.9 3.65 -25.95 3.5 -26.05 3.35 -26.1 3.25 -26.15 3.1 -26.15 2.95 -26.15 2.8 -26.15 2.65 -26.15 2.55 -26.2 2.4 -26.25 2.25 -26.3 2.1 -26.3 1.1 -26.3 -0.45 -26.3 -0.95 -26.45 -0.95 -27.25 -0.75 -28.0 -0.6 -28.35 -0.6 -28.65 -0.65 -28.95 -0.75 -29.2 -0.75 -29.15 -0.6 -29.15 -0.5 M-11.5 -6.45 L-11.75 -6.3 -12.05 -6.15 Q-12.2 -6.1 -12.3 -6.0 L-12.5 -5.9 -12.7 -5.9 -12.95 -5.8 -13.25 -5.8 -13.15 -5.65 -13.1 -5.5 -13.0 -5.35 -12.95 -5.2 -12.85 -5.25 -12.8 -5.25 -12.65 -5.25 -12.35 -5.2 -12.05 -5.1 -11.85 -5.0 -11.7 -4.85 -11.55 -4.7 -11.5 -4.55 -11.4 -4.4 -11.35 -4.3 -11.3 -4.15 -10.9 -4.0 -10.45 -3.7 -9.95 -3.45 -9.4 -3.0 -9.2 -2.85 -9.1 -2.75 -9.0 -2.6 -8.9 -2.45 -8.85 -2.3 -8.75 -2.15 -8.7 -2.0 -8.6 -1.9 -8.55 -1.75 -8.5 -1.6 -8.45 -1.45 -8.45 -1.3 -8.45 -1.2 -8.45 -1.05 -8.45 -0.9 -8.45 -0.6 -8.45 -0.35 -8.45 -0.05 -8.4 0.1 -8.35 0.25 -8.3 0.35 -8.3 0.5 -8.3 0.65 -8.3 0.8 -8.3 0.95 -8.3 1.2 -8.3 1.5 -8.3 1.8 -8.3 1.9 -8.25 2.05 -8.25 2.2 -8.2 2.35 -8.15 2.5 -8.1 2.6 -8.1 3.05 -8.1 3.6 -8.1 4.05 -8.1 4.3 -8.1 4.75 -8.1 5.15 -8.1 5.6 -8.0 5.7 -7.95 5.85 -7.9 6.0 -7.9 6.15 -7.9 6.3 -7.95 6.4 -7.95 6.55 -8.05 6.7 -8.1 6.85 -8.15 6.95 -8.0 7.0 -7.8 7.05 -6.2 7.15 -5.75 7.2 -4.7 7.25 -4.4 7.1 -4.45 7.0 -4.55 6.85 -4.6 6.7 -4.65 6.55 -4.7 6.4 -4.7 6.3 -4.7 6.15 -4.7 6.0 -4.65 5.85 -4.65 5.7 -4.55 5.6 -4.45 5.45 -4.4 5.3 -4.35 5.25 -4.35 4.95 -4.35 3.7 -4.35 3.4 -4.6 3.3 -4.75 3.15 -4.85 3.0 -4.95 2.85 -5.05 2.7 -5.05 2.55 -5.1 2.45 -5.1 2.3 -5.1 2.15 -5.1 2.0 -5.1 1.85 -5.1 1.75 -5.1 1.6 -5.1 1.45 -5.1 1.3 -5.05 1.15 -5.05 1.05 -4.95 0.9 -4.95 0.75 -4.9 0.6 -4.9 0.45 -4.8 0.3 -4.75 0.2 -4.7 0.05 -4.65 -0.1 -4.6 -0.25 -4.5 -0.4 -4.5 -0.8 -4.45 -0.95 -4.45 -1.0 -4.7 -0.95 -5.0 -1.0 -5.25 -1.1 -5.55 -1.25 -5.7 -1.35 -5.8 -1.5 -5.9 -1.65 -5.95 -1.8 -5.95 -1.95 -6.0 -2.05 -6.05 -2.2 -6.15 -2.35 -6.25 -2.5 -6.35 -2.65 -6.4 -2.75 -6.45 -2.9 -6.5 -3.05 -6.6 -3.2 -6.75 -3.35 -6.9 -3.5 -7.0 -3.6 -7.1 -3.75 -7.15 -3.9 -7.25 -4.05 -7.4 -4.2 -7.5 -4.3 -7.55 -4.45 -7.65 -4.6 -7.8 -4.75 -8.05 -4.9 -8.25 -5.05 -8.4 -5.15 -8.5 -5.3 -8.6 -5.45 -8.7 -5.6 -8.8 -5.75 -8.95 -5.85 -9.05 -6.0 -9.15 -6.15 -9.3 -6.3 -9.45 -6.45 -9.6 -6.55 -9.75 -6.7 -10.9 -6.7 -11.3 -6.55 -11.5 -6.45 M-16.4 -2.55 L-16.9 -2.7 -16.9 -2.65 -16.9 -2.5 -16.9 -2.35 -16.9 -2.2 -16.9 -2.05 -16.9 -1.95 -16.95 -1.8 -17.0 -1.65 -17.05 -1.5 -17.15 -1.35 -17.25 -1.25 -17.3 -1.1 -16.85 -1.05 -16.6 -1.15 -16.45 -1.25 -16.4 -1.4 -16.35 -1.55 -16.3 -1.7 -16.25 -1.85 -16.2 -2.0 -16.2 -2.1 -16.2 -2.25 -16.2 -2.4 -16.2 -2.5 -16.4 -2.55 M-12.25 -1.55 L-12.25 -1.4 -12.25 -1.25 -12.25 -1.15 -12.25 -1.0 -12.25 -0.7 -12.25 -0.45 -12.3 -0.3 -12.3 -0.15 -12.35 0.0 -12.4 0.1 -12.4 0.55 -12.4 0.85 -12.45 1.0 -12.45 1.1 -12.55 1.25 -12.6 1.4 -12.7 1.55 -12.8 1.7 -13.0 1.85 -13.15 1.9 -13.25 1.95 -13.0 2.1 -12.8 2.25 -12.7 2.4 -12.6 2.55 -12.55 2.65 -12.45 2.8 -12.3 2.95 -12.1 3.1 -11.95 3.25 -11.85 3.35 -11.75 3.5 -11.65 3.65 -11.5 3.8 -11.4 3.95 -11.3 4.1 -11.2 4.2 -11.1 4.35 -10.95 4.5 -10.7 4.65 -10.7 4.25 -10.7 3.85 -10.7 3.3 -10.7 3.15 -10.8 3.0 -10.85 2.85 -10.9 2.7 -10.95 2.55 -10.95 2.3 -10.95 2.15 -10.95 1.85 -10.95 1.6 -10.95 1.15 -10.95 1.05 -10.95 0.9 -11.0 0.75 -11.05 0.6 -11.1 0.45 -11.1 0.3 -11.1 0.2 -11.1 0.05 -11.1 -0.1 -11.1 -0.25 -11.1 -0.4 -11.1 -0.65 -11.15 -0.8 -11.25 -0.95 -11.3 -1.1 -11.4 -1.25 -11.65 -1.35 -11.85 -1.45 -11.95 -1.5 -12.15 -1.55 -12.25 -1.55 M-1.5 -6.2 L-1.9 -6.1 -2.0 -5.95 -2.1 -5.8 -2.3 -5.7 -2.5 -5.55 -2.5 -5.4 -2.6 -5.25 -2.65 -5.1 -2.75 -5.0 -2.8 -4.85 -2.85 -4.7 -2.85 -4.55 -2.9 -4.4 -2.9 -4.3 -2.95 -4.15 -3.05 -4.0 -3.05 -3.85 -3.05 -3.7 -3.05 -3.55 -3.05 -3.45 -3.1 -3.3 -3.1 -3.15 -3.15 -3.05 -2.95 -3.2 -2.75 -3.35 -2.55 -3.5 -2.45 -3.6 -2.3 -3.75 -2.15 -3.9 -1.85 -4.05 -1.7 -4.2 -1.65 -4.3 -1.55 -4.45 -1.45 -4.6 -1.35 -4.75 -1.2 -4.9 -1.1 -5.05 -1.05 -5.15 -0.9 -5.3 -0.8 -5.45 -0.65 -5.6 -0.35 -5.75 -0.2 -5.85 -0.1 -6.0 -0.1 -6.15 -0.2 -6.3 -0.95 -6.35 -1.05 -6.3 -1.25 -6.25 -1.5 -6.2 M-14.65 4.35 L-14.75 4.2 -14.9 4.1 -15.05 3.95 -15.2 3.8 -15.35 3.65 -15.45 3.5 -15.6 3.4 -15.75 3.2 -15.9 3.1 -16.1 2.95 -16.35 2.8 -16.55 2.65 -16.65 2.55 -16.95 2.45 -17.25 2.35 -17.35 2.2 -17.45 2.05 -17.55 1.9 -17.65 1.8 -17.65 1.65 -17.65 1.6 -17.75 1.6 -17.95 1.55 -18.1 1.5 -18.35 1.45 -18.5 1.4 -18.45 1.5 -18.4 1.65 -18.4 1.8 -18.35 1.9 -18.2 2.05 -18.1 2.2 -18.05 2.35 -18.0 2.5 -17.9 2.6 -17.9 2.75 -17.75 2.9 -17.6 3.05 -17.45 3.2 -17.35 3.3 -17.3 3.45 -17.2 3.6 -17.05 3.75 -16.9 3.9 -16.75 4.05 -16.65 4.15 -16.55 4.3 -16.45 4.45 -16.35 4.6 -16.3 4.75 -16.15 4.85 -16.0 5.0 -15.8 5.15 -15.6 5.3 -15.4 5.45 -15.3 5.6 -15.15 5.65 -14.95 5.65 -14.65 5.65 -14.0 5.55 -13.7 5.4 -13.6 5.4 -13.65 5.35 -13.8 5.2 -14.05 5.05 -14.3 4.9 -14.4 4.8 -14.5 4.65 -14.6 4.5 -14.65 4.35 M-59.95 5.95 L-60.15 5.8 -60.4 5.65 -60.55 5.55 -60.65 5.4 -60.7 5.35 -60.7 5.4 -60.75 5.55 -60.85 5.65 -60.9 5.8 -61.05 5.95 -61.15 6.1 -61.35 6.25 -61.5 6.35 -61.7 6.45 -61.9 6.5 -62.15 6.55 -62.45 6.65 -62.55 6.8 -62.7 6.95 -62.75 7.1 -62.85 7.2 -62.1 7.2 -61.5 7.0 -60.95 6.8 -60.65 6.75 -60.4 6.65 -60.05 6.5 -59.8 6.35 -59.85 6.25 -59.9 6.1 -59.95 5.95" fill="#5e4713" fill-opacity="0.50980395" fill-rule="evenodd" stroke="none"/>
    <path d="M-58.35 -6.55 L-58.15 -6.65 -57.95 -6.7 -57.7 -6.75 -57.65 -6.75 -57.5 -6.75 -57.2 -6.7 -56.9 -6.6 -56.7 -6.5 -56.55 -6.35 -56.4 -6.2 -56.35 -6.05 -56.25 -5.9 -56.1 -5.8 -56.1 -5.65 -56.0 -5.5 -55.95 -5.35 -55.9 -5.2 -55.8 -5.05 -55.8 -4.95 -55.75 -4.8 -55.75 -4.65 -55.75 -4.5 -55.75 -4.35 -55.7 -4.25 -55.65 -4.1 -55.6 -3.95 -55.6 -3.8 -55.55 -3.65 -55.55 -3.5 -55.55 -3.4 -55.55 -3.25 -55.55 -3.1 -55.55 -2.8 -55.55 -2.55 -55.55 -2.25 -55.55 -2.1 -55.6 -2.0 -55.6 -1.85 -55.65 -1.7 -55.7 -1.55 -55.75 -1.4 -55.75 -1.25 -55.75 -1.15 -55.75 -1.0 -55.8 -0.85 -55.85 -0.7 -55.95 -0.55 -56.0 -0.45 -56.1 -0.3 -56.2 -0.15 -56.3 0.0 -56.55 0.15 -56.7 0.25 -56.8 0.25 -56.95 0.3 -57.25 0.35 -57.8 0.35 -58.1 0.3 -58.35 0.2 -58.65 0.1 -58.8 -0.05 -58.9 -0.2 -59.0 -0.35 -59.1 -0.5 -59.15 -0.6 -59.2 -0.75 -59.3 -0.9 -59.4 -1.05 -59.45 -1.2 -59.5 -1.3 -59.55 -1.45 -59.6 -1.6 -59.65 -1.75 -59.65 -1.9 -59.7 -2.0 -59.75 -2.15 -59.8 -2.3 -59.8 -2.45 -59.85 -2.6 -59.9 -2.75 -59.9 -2.85 -59.95 -3.0 -60.05 -3.15 -60.15 -3.3 -60.2 -3.45 -60.25 -3.55 -60.3 -3.7 -60.3 -3.85 -60.3 -4.0 -60.3 -4.15 -60.3 -4.3 -60.3 -4.4 -60.3 -4.7 -60.3 -5.0 -60.25 -5.1 -60.2 -5.25 -60.1 -5.4 -60.0 -5.55 -59.9 -5.7 -59.65 -5.8 -59.45 -5.9 -59.25 -5.95 -58.95 -6.05 -58.8 -6.15 -58.7 -6.3 -58.55 -6.45 -58.35 -6.55" fill="#5e4713" fill-opacity="0.36862746" fill-rule="evenodd" stroke="none"/>
  </g>
</svg>
