<?xml version="1.0" encoding="UTF-8" standalone="no"?>
<svg xmlns:ffdec="https://www.free-decompiler.com/flash" xmlns:xlink="http://www.w3.org/1999/xlink" ffdec:objectType="shape" height="301.5px" width="371.2px" xmlns="http://www.w3.org/2000/svg">
  <g transform="matrix(1.0, 0.0, 0.0, 1.0, 41.85, 235.4)">
    <path d="M300.35 -218.05 L300.55 -219.05 300.75 -220.2 301.35 -219.55 301.65 -219.0 302.65 -218.25 Q303.25 -217.65 303.65 -216.7 L303.85 -216.2 Q306.0 -214.55 306.0 -213.75 L306.0 -213.5 Q307.6 -211.9 310.5 -207.9 L311.6 -206.35 314.0 -203.55 313.9 -203.0 Q317.25 -197.95 317.25 -196.75 L317.0 -196.1 318.25 -193.9 318.1 -193.45 314.75 -200.05 313.65 -202.05 312.55 -203.65 Q310.45 -207.2 308.0 -210.1 L308.0 -210.25 Q308.0 -211.25 303.15 -215.75 L300.35 -218.05 M318.45 -192.35 L319.25 -190.75 Q319.25 -190.1 318.8 -189.85 L318.8 -189.55 318.3 -190.1 317.75 -191.75 318.25 -191.9 318.4 -192.25 318.45 -192.35 M319.25 -187.5 L319.7 -186.8 320.25 -185.8 319.55 -183.6 318.95 -182.15 319.25 -186.55 319.25 -186.85 319.25 -186.9 319.25 -187.5 M318.85 -181.35 Q319.25 -181.25 319.25 -180.5 L318.5 -179.3 318.75 -180.6 318.85 -181.35 M316.65 -176.3 Q316.05 -174.4 314.0 -172.45 311.35 -170.0 309.75 -170.0 L308.9 -170.1 308.1 -169.45 305.75 -166.55 302.35 -162.9 300.5 -160.15 299.0 -157.4 Q298.9 -157.9 298.3 -157.9 L297.95 -157.85 299.35 -160.5 300.75 -162.4 300.5 -163.05 Q299.35 -163.1 298.25 -161.7 L298.0 -162.35 298.05 -162.4 298.85 -162.65 298.75 -163.3 Q298.75 -163.95 303.95 -168.55 L306.25 -170.55 307.2 -171.85 Q308.0 -172.65 308.4 -172.4 L309.35 -173.1 309.5 -173.25 310.3 -173.95 310.35 -174.0 Q311.5 -174.3 312.45 -175.5 312.65 -175.3 313.2 -175.25 L312.75 -174.4 313.5 -173.75 Q314.1 -174.1 315.9 -176.45 L316.25 -176.9 316.25 -176.85 316.65 -176.3 M297.65 -153.0 L297.75 -150.05 Q297.75 -148.25 296.45 -140.75 L295.95 -138.1 295.65 -134.75 Q296.0 -134.6 296.0 -133.9 L296.0 -133.85 296.35 -133.5 296.5 -132.4 Q296.5 -131.0 295.1 -126.9 L293.85 -123.9 293.15 -121.15 Q292.4 -117.95 290.3 -113.55 L289.1 -111.25 289.5 -112.75 289.5 -112.95 289.95 -114.1 290.6 -115.9 292.15 -119.75 Q293.5 -122.75 293.5 -123.3 293.5 -124.6 292.8 -124.35 292.05 -124.1 291.4 -122.0 L289.75 -117.9 288.25 -114.15 288.05 -113.55 287.1 -112.05 290.05 -120.4 291.0 -123.15 Q291.75 -123.7 292.3 -126.1 L292.75 -125.75 Q293.95 -126.8 294.35 -129.0 L294.85 -132.5 295.4 -135.85 295.75 -139.9 Q295.75 -141.15 295.25 -141.85 295.35 -144.45 295.9 -147.5 296.1 -148.7 297.6 -152.9 L297.65 -153.0 M286.65 -100.65 L288.9 -97.25 Q290.3 -95.45 293.5 -92.6 L294.3 -92.2 Q294.4 -93.2 296.3 -92.7 298.25 -92.15 300.9 -90.4 L302.6 -89.2 303.4 -88.9 303.95 -88.05 Q306.45 -85.8 307.2 -83.65 L307.65 -83.0 307.9 -81.25 305.6 -85.15 Q304.2 -86.8 302.0 -88.1 299.5 -89.5 299.5 -87.9 L301.1 -87.1 301.4 -86.95 Q301.25 -86.65 301.25 -86.2 301.25 -86.05 301.6 -85.45 L300.4 -86.2 296.65 -88.65 296.1 -88.95 295.5 -88.75 Q294.1 -88.75 291.45 -91.3 291.2 -90.75 290.25 -90.75 289.1 -90.75 287.8 -91.85 L288.0 -92.4 287.6 -93.35 287.75 -93.3 287.75 -93.25 Q288.8 -91.5 289.25 -91.5 289.85 -91.5 289.85 -91.75 L290.0 -91.9 290.0 -92.3 288.3 -95.2 286.9 -97.75 286.5 -99.3 286.65 -100.65 M308.4 -71.75 L308.2 -69.15 306.6 -67.1 Q305.65 -64.75 304.75 -64.75 L304.55 -64.75 304.4 -64.55 Q301.8 -61.0 299.9 -60.55 L300.0 -62.9 300.75 -62.25 Q301.9 -62.55 304.55 -65.0 307.25 -67.5 307.25 -68.45 L307.2 -69.0 307.9 -70.5 308.4 -71.75 M300.05 -63.05 L300.1 -63.7 300.15 -64.05 300.5 -64.0 300.9 -64.0 300.05 -63.05 M302.7 -67.65 L303.1 -68.25 303.5 -68.85 302.7 -67.65 M304.25 -70.05 L304.4 -70.3 304.4 -70.2 304.25 -70.05 M304.35 -79.0 L303.9 -79.9 302.25 -82.45 Q302.25 -83.35 302.7 -83.65 L303.0 -83.15 304.7 -80.35 304.55 -80.25 Q304.25 -80.0 304.25 -79.45 L304.35 -79.0 M282.8 -106.9 L282.75 -107.15 Q282.75 -107.65 283.85 -110.5 L285.25 -114.3 Q285.45 -115.15 286.1 -115.6 L285.5 -114.0 282.8 -106.9 M293.7 -151.8 L294.0 -153.5 294.25 -154.1 293.75 -151.85 293.7 -151.8 M315.2 -185.85 L315.15 -186.0 Q314.65 -189.0 314.5 -191.15 L314.05 -193.4 314.5 -192.4 314.7 -191.8 315.25 -186.6 315.2 -185.85 M302.4 -211.05 L300.75 -213.3 300.35 -213.25 299.8 -213.45 299.8 -213.9 299.85 -214.4 300.9 -213.55 302.0 -212.0 302.25 -211.65 302.25 -211.5 302.4 -211.05 M307.25 -208.55 L308.0 -207.65 309.1 -206.05 309.2 -205.75 307.25 -208.55 M312.5 -200.7 L313.6 -199.0 313.9 -197.95 312.85 -199.45 312.25 -200.1 312.5 -200.7 M317.75 -185.85 L317.75 -185.75 317.45 -182.8 Q317.05 -183.3 317.1 -183.75 L317.25 -185.75 317.75 -185.85 M-3.8 -227.8 L-3.5 -227.9 -3.1 -227.8 -2.85 -227.6 -2.75 -227.55 -2.65 -227.45 -2.65 -227.35 -2.55 -227.25 -2.55 -227.15 -2.55 -227.05 -2.5 -226.95 -2.5 -226.9 Q-2.5 -226.6 -2.65 -226.4 L-3.15 -225.75 -3.1 -225.7 -3.0 -225.65 -2.9 -225.55 -2.9 -225.45 -2.8 -225.35 -2.8 -225.25 -2.8 -225.15 -2.75 -225.05 -2.75 -224.95 -2.75 -224.9 -2.8 -224.8 -2.8 -224.7 -2.85 -224.6 -2.85 -224.5 -2.85 -224.4 -2.85 -224.3 -2.85 -224.15 -2.85 -223.95 -2.8 -223.75 -2.7 -223.55 -2.6 -223.2 -2.55 -223.1 -2.55 -223.0 -2.5 -222.9 -2.45 -222.8 -2.4 -222.7 -2.3 -222.65 -2.25 -222.55 -2.15 -222.45 -2.1 -222.4 Q-1.45 -222.3 -0.95 -221.85 L-0.2 -221.1 -0.05 -220.9 1.95 -219.35 1.35 -221.15 Q0.55 -223.6 0.1 -226.5 1.25 -225.1 2.6 -224.25 L3.45 -221.75 3.5 -221.6 Q1.25 -219.65 5.1 -217.45 L6.7 -216.1 6.85 -215.45 6.65 -214.95 7.1 -214.7 7.65 -214.05 7.7 -213.95 7.9 -213.65 8.15 -213.2 8.5 -212.2 8.65 -211.65 8.65 -211.55 8.65 -211.45 8.6 -211.35 8.6 -211.25 8.6 -211.15 8.55 -211.05 8.55 -211.0 8.5 -210.95 8.45 -210.9 8.2 -210.7 8.05 -210.6 7.95 -210.8 7.85 -211.0 7.9 -211.05 7.95 -211.15 8.0 -211.25 8.0 -211.35 8.0 -211.45 8.0 -211.55 7.95 -211.65 7.9 -211.7 7.85 -211.8 6.05 -213.45 5.85 -213.8 5.85 -213.9 5.85 -214.0 5.85 -214.1 5.8 -214.2 5.75 -214.3 5.65 -214.35 5.5 -214.45 5.25 -214.55 5.25 -214.65 5.2 -214.7 5.15 -214.8 5.1 -214.9 3.25 -215.95 0.0 -218.45 -0.25 -218.55 -0.25 -218.5 -0.45 -218.5 -0.5 -218.45 -1.55 -219.3 Q-2.6 -220.25 -3.75 -220.9 L-3.75 -220.85 -3.95 -220.85 -4.05 -220.8 -4.3 -221.1 -4.3 -221.2 -4.35 -221.3 -4.35 -221.4 -4.45 -221.45 -4.65 -221.5 -4.85 -221.6 -5.1 -221.85 -5.35 -222.25 -5.5 -222.7 -5.5 -222.8 -5.5 -222.9 -5.5 -223.0 -5.5 -223.1 -5.5 -223.15 -5.7 -223.6 -5.75 -223.8 -5.75 -224.25 -5.75 -224.5 -5.8 -225.15 -5.75 -225.65 -5.75 -225.7 -5.7 -225.75 -5.6 -226.0 -5.4 -226.7 -5.3 -227.05 -5.15 -227.35 -4.55 -227.7 -4.35 -227.75 -4.05 -227.65 Q-3.95 -227.75 -3.8 -227.8 M4.9 -208.9 L5.05 -208.75 5.0 -208.7 4.95 -208.6 4.9 -208.9 M5.0 -208.1 L5.05 -208.05 5.15 -207.95 5.4 -207.9 5.45 -207.9 5.4 -207.35 5.35 -206.55 5.45 -206.6 5.65 -206.6 5.65 -206.65 5.9 -206.55 6.05 -206.45 6.15 -206.4 6.2 -206.3 6.25 -206.2 6.25 -206.1 6.25 -206.0 6.25 -205.8 6.25 -205.65 6.3 -205.55 6.35 -205.45 6.35 -205.35 6.35 -205.05 6.35 -204.5 6.35 -204.15 6.4 -204.05 6.4 -203.95 6.45 -203.75 6.5 -203.55 6.5 -202.45 6.5 -201.05 6.5 -200.65 6.5 -200.55 6.45 -200.45 6.4 -200.3 6.35 -200.1 6.35 -200.0 6.35 -199.8 6.35 -199.55 6.35 -199.45 6.35 -199.35 6.3 -199.25 6.25 -199.15 6.15 -199.05 6.05 -199.0 5.95 -198.9 5.75 -198.9 5.45 -198.95 5.35 -199.05 5.3 -199.1 3.55 -194.2 3.35 -193.6 3.15 -193.25 1.0 -191.3 0.05 -191.05 0.35 -191.35 1.9 -192.35 3.25 -193.7 3.35 -193.85 Q2.85 -194.45 3.4 -195.7 L4.45 -197.7 5.1 -199.8 5.1 -199.95 5.1 -200.35 5.15 -200.45 5.15 -200.55 5.2 -200.7 5.25 -200.9 5.25 -201.75 5.25 -202.95 5.25 -203.35 5.25 -203.45 5.2 -203.55 5.15 -203.7 5.1 -203.8 5.1 -204.1 5.1 -204.65 5.1 -205.05 5.1 -205.15 5.05 -205.2 5.0 -205.3 5.0 -205.5 5.0 -205.9 5.05 -206.25 5.1 -206.35 5.2 -206.45 5.25 -206.45 5.2 -206.6 5.0 -208.1 M-4.3 -189.0 L-4.55 -188.8 -4.75 -188.75 -5.2 -188.5 -6.1 -188.0 -9.2 -185.9 -10.6 -185.65 Q-13.95 -184.1 -16.15 -179.05 -18.1 -174.0 -15.3 -175.35 -14.95 -175.55 -14.55 -176.4 L-14.35 -176.25 Q-17.3 -171.25 -15.3 -164.9 L-14.7 -164.1 Q-13.55 -162.2 -12.25 -162.05 L-12.05 -161.55 Q-10.9 -159.2 -9.2 -157.15 -7.5 -155.15 -6.65 -153.25 -6.05 -152.05 -6.05 -151.35 L-5.75 -150.75 -5.25 -149.75 -3.95 -147.95 Q-3.55 -147.35 -2.95 -147.1 L-1.7 -144.0 -1.7 -143.95 -2.95 -145.4 -3.05 -145.85 -7.6 -150.7 Q-9.05 -152.55 -10.4 -153.55 L-11.3 -154.2 -13.2 -157.4 -13.45 -157.2 Q-14.4 -156.7 -15.2 -157.95 -16.3 -159.6 -19.6 -167.9 -20.25 -169.55 -19.8 -171.15 L-19.45 -172.15 Q-19.55 -174.15 -19.1 -175.4 -19.45 -176.5 -18.65 -178.85 -17.7 -180.9 -15.7 -182.65 L-11.65 -185.7 -8.4 -187.3 -5.4 -188.65 -4.3 -189.0 M-16.0 -51.0 L-16.0 -51.05 Q-16.75 -51.3 -16.75 -52.3 -16.75 -54.35 -10.6 -62.45 -6.5 -67.9 -5.15 -67.85 L-4.8 -68.25 -4.8 -66.45 -4.75 -63.1 -7.0 -60.7 -9.75 -55.25 -11.65 -51.2 -11.75 -50.85 -11.95 -50.65 -12.2 -50.1 -11.9 -49.45 -12.25 -48.0 -12.25 -47.45 -12.15 -46.95 -12.25 -46.6 -12.25 -45.25 -12.2 -44.15 -10.75 -39.75 -10.8 -39.25 -10.95 -39.1 -11.2 -39.0 -10.3 -36.6 -10.2 -36.4 Q-8.9 -34.0 -8.0 -30.6 L-8.0 -30.1 -8.1 -29.95 -7.0 -27.75 -4.15 -23.5 -3.85 -23.15 -3.35 -23.25 Q-2.2 -23.35 -1.75 -21.85 L-0.75 -20.4 0.35 -18.65 1.25 -16.85 1.55 -16.95 Q2.6 -17.05 3.35 -16.0 L5.0 -13.15 6.35 -10.2 Q7.2 -8.3 7.75 -7.35 8.65 -5.75 9.0 -1.5 L9.25 4.0 9.15 5.45 Q8.9 6.25 8.0 6.25 L7.75 6.25 7.65 6.5 6.45 9.95 5.75 11.0 5.15 10.45 4.75 10.95 3.55 12.15 3.0 12.5 2.25 11.8 4.95 8.0 6.0 6.15 6.5 5.7 6.5 5.4 6.75 2.55 6.75 1.3 6.25 -1.85 Q6.15 -3.05 4.95 -5.9 L3.75 -8.95 2.6 -10.35 2.35 -10.7 Q2.0 -10.55 2.0 -9.65 L3.15 -7.85 2.4 -8.05 2.0 -7.85 1.1 -10.5 -0.15 -13.35 -0.4 -13.5 0.0 -12.8 -0.25 -12.0 Q-0.6 -11.5 -1.25 -11.5 L-1.5 -11.5 -2.2 -12.95 Q-1.05 -15.7 -4.1 -17.95 L-4.8 -19.25 Q-5.85 -21.15 -7.8 -21.7 -8.8 -23.3 -9.5 -25.05 -10.8 -28.25 -13.15 -30.3 -13.65 -32.55 -14.85 -34.1 -16.25 -36.9 -16.25 -37.35 L-16.1 -38.05 -16.7 -40.25 -16.75 -43.85 -17.0 -45.7 -17.0 -46.5 -16.1 -42.35 -16.05 -42.25 -16.05 -42.2 Q-15.8 -39.7 -15.2 -38.9 L-15.15 -38.75 -13.95 -34.0 Q-13.0 -30.8 -11.75 -30.75 L-11.35 -29.8 -9.55 -26.4 -8.95 -24.4 Q-8.05 -22.0 -7.0 -22.0 -6.6 -22.0 -6.45 -22.2 L-6.25 -22.5 -6.25 -22.85 -6.3 -23.0 Q-6.8 -23.1 -7.7 -24.75 L-8.75 -27.1 -10.0 -30.35 -10.5 -30.25 Q-11.35 -30.25 -12.45 -34.1 L-13.05 -36.55 -13.5 -38.5 -14.15 -42.75 -14.25 -45.35 -14.3 -45.75 Q-14.4 -46.55 -14.7 -46.8 L-14.7 -46.85 -14.25 -46.75 Q-14.25 -48.7 -13.9 -49.9 L-13.5 -51.6 -13.25 -51.95 -13.25 -52.15 Q-11.45 -56.75 -10.25 -59.0 L-9.5 -60.3 -9.55 -60.75 -9.6 -60.85 -8.5 -62.7 Q-8.5 -64.85 -10.55 -62.45 -12.55 -60.1 -13.9 -56.5 L-15.4 -52.7 -16.0 -51.0 M2.05 13.45 L1.95 13.75 1.75 13.6 2.05 13.45 M1.4 13.65 L-0.55 14.95 -2.6 18.6 Q-4.8 22.25 -5.0 23.15 L-6.3 27.25 -6.35 27.95 -6.4 27.25 -6.75 29.25 Q-6.75 30.5 -6.05 32.75 L-6.0 32.65 -6.0 32.15 -6.3 28.65 -5.7 31.05 -4.0 35.0 Q-2.45 37.75 0.95 40.2 3.75 42.25 3.75 42.9 L3.7 43.4 4.45 43.9 5.0 44.25 5.75 44.55 6.2 44.55 Q7.6 44.7 8.2 45.9 L11.35 49.25 12.9 51.15 13.05 51.3 15.25 53.6 15.6 54.0 17.65 55.7 17.45 55.5 Q18.3 55.55 20.95 57.0 L23.75 58.6 Q24.15 59.1 24.95 59.2 L32.75 59.35 33.9 59.65 34.25 59.5 34.25 59.55 34.35 59.5 39.35 59.35 39.45 59.5 39.5 59.95 39.5 60.0 Q39.5 60.6 38.75 60.85 L36.1 61.25 Q34.4 61.9 34.1 63.2 L28.9 63.75 27.8 63.75 27.5 63.8 Q25.35 62.75 22.75 62.5 L22.9 62.05 19.85 61.0 16.25 59.4 Q15.4 59.0 14.4 57.45 L13.9 56.55 12.75 55.4 10.65 53.65 10.1 53.0 10.5 53.2 10.75 53.3 12.6 55.25 12.75 55.4 Q14.9 57.45 16.0 57.9 L18.15 59.45 Q20.9 61.25 21.75 61.25 L22.3 61.1 20.5 59.95 19.85 59.5 19.5 59.5 Q18.95 59.5 10.75 51.3 9.0 50.55 8.8 51.55 L8.0 50.75 5.25 48.2 3.65 46.4 3.0 46.0 -0.7 43.35 -3.1 41.0 Q-3.95 40.8 -4.95 40.0 L-4.75 39.85 -4.55 39.6 -4.5 39.25 -4.95 38.4 -4.15 39.2 -4.75 38.25 -5.5 36.75 -5.75 36.75 Q-6.55 36.75 -7.0 35.2 L-7.55 32.85 -8.15 30.9 -8.25 29.2 -8.25 29.0 -8.45 28.9 -8.75 28.65 -8.75 25.5 -8.1 23.35 -7.2 20.3 Q-6.5 18.45 -5.75 17.85 -5.85 16.95 -6.45 16.95 -6.65 16.95 -6.8 17.1 L-6.0 16.0 Q-3.95 13.35 -2.1 11.6 -0.6 10.15 0.25 9.9 L-0.25 10.35 -0.25 10.85 Q-0.05 11.25 0.65 11.25 1.9 11.25 3.9 8.4 L4.0 8.5 4.75 7.6 Q4.15 8.95 2.6 10.75 L0.75 13.05 1.4 13.65 M34.5 59.1 L34.5 58.95 Q34.5 57.8 35.0 57.75 L36.85 57.85 36.35 58.05 Q34.75 58.55 34.75 58.85 L34.75 58.95 34.5 59.1 M37.05 57.8 L39.75 55.65 40.9 54.75 40.0 55.75 Q38.65 57.05 37.05 57.8 M43.5 52.95 L43.65 52.85 44.25 52.95 47.2 53.2 47.25 53.65 45.8 55.95 44.65 57.2 43.25 57.85 44.55 56.3 45.75 54.55 Q45.75 52.85 44.6 53.95 44.05 54.05 43.65 54.35 L43.75 53.8 43.5 52.95 M42.95 57.95 L41.95 58.45 42.75 57.8 42.8 57.8 42.95 57.95 M-7.7 37.7 Q-8.85 37.4 -9.7 36.05 -10.55 34.7 -10.75 33.25 L-11.0 29.0 -10.8 25.55 -11.2 24.95 -11.25 24.05 Q-11.25 22.8 -9.15 19.95 L-8.8 19.55 -9.35 20.95 Q-10.05 21.7 -10.3 23.65 L-10.35 24.35 -10.4 24.45 -10.75 27.2 Q-10.9 28.25 -10.5 28.6 L-10.5 31.35 -10.4 32.05 -10.5 32.8 -8.65 36.25 -7.7 37.7 M-7.5 18.0 L-6.95 17.35 -7.25 18.0 -7.5 18.0 M2.45 7.65 L2.85 6.5 3.75 2.95 3.75 3.85 3.45 5.25 Q3.4 5.65 3.5 5.9 L2.45 7.65 M3.5 -2.85 L3.35 -3.3 2.7 -5.6 Q3.45 -4.3 3.5 -2.9 L3.5 -2.85 M5.25 -1.6 L5.6 -0.65 5.5 0.0 5.5 0.4 5.25 -0.1 5.25 -0.55 5.25 -1.5 5.25 -1.6 M284.0 -103.85 L284.0 -103.7 284.3 -103.35 284.95 -99.8 284.85 -99.25 284.6 -100.0 283.8 -103.35 284.0 -103.85 M286.0 -105.6 L286.65 -107.7 286.4 -106.65 285.8 -104.0 285.75 -104.8 286.0 -105.6 M306.8 -72.1 L306.85 -72.35 306.9 -72.3 306.8 -72.1 M19.25 57.15 L19.6 57.55 20.0 57.8 19.25 57.15 M42.0 56.35 L41.5 56.9 40.0 57.9 40.75 57.35 42.0 56.35 M-10.05 -32.2 L-9.95 -31.9 -9.9 -31.9 -10.05 -32.2 M-8.1 23.35 L-8.25 23.25 -8.45 23.55 -8.15 22.55 -8.05 22.2 -8.0 22.6 -8.1 23.35 M-8.95 27.7 L-8.65 31.9 -9.0 28.65 -8.95 27.7 M-5.5 34.4 L-5.25 35.15 -4.95 35.25 -5.5 34.4" fill="#669900" fill-rule="evenodd" stroke="none"/>
    <path d="M300.15 -64.05 L300.1 -66.05 301.0 -66.6 Q302.0 -67.0 302.7 -67.65 L303.5 -68.85 303.55 -68.9 304.25 -70.05 304.4 -70.2 304.4 -70.3 Q305.0 -72.7 305.0 -74.7 L304.35 -79.0 304.25 -79.45 Q304.25 -80.0 304.55 -80.25 L304.7 -80.35 303.0 -83.15 302.7 -83.65 301.6 -85.45 Q301.25 -86.05 301.25 -86.2 301.25 -86.65 301.4 -86.95 L302.5 -86.2 302.5 -86.05 304.35 -83.65 Q306.25 -81.15 306.6 -79.85 L307.75 -76.15 Q307.7 -74.2 307.25 -73.0 L306.9 -72.3 306.85 -72.35 306.8 -72.1 305.2 -68.95 304.1 -66.75 301.8 -64.85 300.9 -64.0 300.5 -64.0 300.15 -64.05 M287.8 -91.85 L287.7 -91.75 287.55 -91.6 285.55 -94.05 Q286.05 -95.35 285.1 -96.35 L282.1 -99.2 282.05 -100.25 Q282.05 -101.65 282.45 -102.95 283.05 -104.95 282.65 -106.4 L282.8 -106.9 285.5 -114.0 286.1 -115.6 287.8 -120.3 287.75 -120.55 289.85 -127.65 290.4 -129.45 290.55 -130.3 291.9 -139.0 292.5 -144.3 292.5 -146.0 Q292.5 -147.05 292.85 -147.6 L293.25 -150.25 Q293.4 -151.35 293.7 -151.8 L293.75 -151.85 294.25 -154.1 294.4 -155.05 Q294.6 -156.4 295.35 -159.4 295.7 -160.65 296.9 -161.9 297.65 -162.65 298.0 -162.35 L298.25 -161.7 Q296.95 -160.05 295.7 -156.45 293.75 -150.85 293.75 -148.25 L293.75 -147.85 Q293.85 -147.55 294.4 -147.5 L294.15 -145.95 293.75 -141.25 293.75 -139.45 Q293.8 -138.6 294.1 -138.2 L294.05 -138.1 293.75 -135.75 292.75 -130.3 292.0 -126.4 292.3 -126.1 Q291.75 -123.7 291.0 -123.15 L290.05 -120.4 287.1 -112.05 286.5 -111.0 Q284.0 -106.15 284.0 -104.2 L284.0 -103.85 283.8 -103.35 284.6 -100.0 284.85 -99.25 284.75 -98.15 284.75 -97.15 Q284.9 -96.25 285.75 -96.25 L285.9 -96.25 Q286.7 -93.8 287.6 -93.35 L288.0 -92.4 287.8 -91.85 M312.45 -175.5 L313.25 -176.9 Q313.75 -177.9 313.85 -178.75 L314.0 -179.05 Q314.65 -180.35 314.75 -181.5 L315.2 -185.85 315.25 -186.6 314.7 -191.8 314.5 -192.4 314.05 -193.4 312.55 -196.15 Q311.0 -198.9 311.0 -199.15 L311.1 -199.95 Q309.95 -200.9 306.75 -205.65 L304.4 -208.35 302.4 -211.05 302.25 -211.5 302.25 -211.65 302.0 -212.0 300.9 -213.55 299.85 -214.4 300.05 -216.5 302.55 -214.05 302.5 -213.65 Q302.5 -213.35 304.8 -211.0 L307.25 -208.55 309.2 -205.75 311.0 -202.95 312.5 -200.7 312.25 -200.1 312.85 -199.45 313.9 -197.95 315.65 -192.8 Q317.5 -187.5 317.75 -185.85 L317.25 -185.75 317.1 -183.75 Q317.05 -183.3 317.45 -182.8 L317.0 -180.9 316.9 -180.4 Q316.25 -180.35 316.0 -179.7 L315.15 -177.75 313.2 -175.25 Q312.65 -175.3 312.45 -175.5 M8.05 -210.6 L8.2 -210.7 8.45 -210.9 8.5 -210.95 8.55 -211.0 9.35 -207.7 9.45 -207.65 Q9.2 -202.75 9.95 -197.8 L9.15 -193.95 Q6.4 -191.05 3.1 -188.85 1.55 -187.65 -0.2 -187.15 L-2.4 -186.1 Q-5.65 -184.75 -8.7 -183.1 L-10.25 -182.1 Q-7.85 -184.55 -6.05 -185.65 L-2.2 -187.45 -0.3 -188.1 3.35 -190.7 4.7 -191.9 4.8 -191.9 5.25 -192.5 Q6.45 -193.9 6.1 -194.75 L6.35 -195.25 7.3 -198.95 8.25 -203.7 8.3 -204.05 8.4 -204.05 8.5 -204.1 8.6 -204.15 8.7 -204.25 8.75 -204.35 8.8 -204.45 8.85 -204.55 8.85 -204.65 8.85 -205.0 8.75 -207.4 8.65 -207.95 8.3 -209.9 8.2 -210.15 8.05 -210.6 M-7.5 -223.2 L-7.65 -223.1 -8.0 -222.4 -8.0 -222.3 -8.0 -222.15 -8.0 -221.95 -7.95 -221.85 -7.95 -221.75 -7.25 -221.0 Q-6.75 -220.5 -6.05 -220.3 L-5.95 -220.2 -5.75 -220.1 -5.55 -220.05 -5.5 -220.0 -5.45 -219.95 -5.15 -219.8 -4.6 -219.4 Q-3.85 -218.75 -2.9 -218.35 L-2.2 -218.05 -1.0 -217.15 0.5 -216.15 0.45 -216.1 0.45 -216.0 0.4 -215.9 0.4 -215.8 0.4 -215.65 0.4 -215.55 0.45 -215.45 0.45 -215.35 0.25 -215.55 -0.05 -215.7 -0.65 -216.0 -0.75 -216.1 -0.9 -216.2 -1.3 -216.3 -1.9 -216.6 -2.55 -217.1 -3.5 -217.65 -3.55 -217.7 -4.0 -217.85 -4.55 -218.2 -4.75 -218.4 -5.0 -218.45 -5.8 -218.95 -5.85 -218.95 -6.0 -218.9 -6.3 -218.95 -6.75 -219.05 -6.9 -219.15 -6.95 -219.25 -7.0 -219.35 -7.5 -219.6 -7.9 -219.85 -7.95 -219.95 -8.0 -220.05 -8.1 -220.15 -8.15 -220.1 -8.2 -220.0 -8.25 -219.9 -8.4 -219.8 -8.6 -219.75 -8.85 -219.8 -8.95 -219.9 -9.15 -220.1 -9.3 -220.3 -9.35 -220.4 -9.35 -220.45 -9.4 -220.55 -9.45 -220.65 -9.6 -220.85 -9.75 -221.15 -9.8 -221.2 -9.85 -221.4 -9.95 -221.7 -10.0 -221.8 -10.0 -221.85 -10.3 -222.3 -10.45 -222.5 -10.5 -222.95 -10.5 -223.55 -10.5 -223.9 -10.5 -224.0 -10.5 -224.1 -10.45 -224.2 -10.4 -224.3 -10.35 -224.4 -10.3 -224.55 -10.25 -224.85 -10.25 -224.95 -10.1 -225.2 -9.8 -225.7 -9.75 -225.95 -9.65 -226.05 -9.55 -226.15 -9.4 -226.35 -9.35 -226.45 -9.3 -226.55 -8.4 -227.6 -7.45 -228.95 -7.2 -229.45 -6.75 -229.75 -6.2 -229.95 -6.0 -230.0 -5.8 -229.95 -5.65 -229.85 -5.6 -229.75 -5.55 -229.65 -5.5 -229.55 -5.5 -229.45 -5.55 -229.4 -5.6 -229.3 -5.65 -229.2 -5.75 -229.1 -6.15 -228.9 -6.45 -228.7 -6.7 -228.25 -6.65 -228.25 -6.6 -228.15 -6.55 -228.05 -6.5 -227.95 -6.4 -228.1 -6.35 -228.2 -6.3 -228.3 -6.25 -228.4 -6.25 -228.45 -6.25 -228.55 -6.2 -228.65 -6.15 -228.75 -6.0 -228.85 -5.75 -228.9 -5.55 -228.85 -5.45 -228.75 -5.6 -228.6 -6.55 -227.35 -7.05 -226.3 -7.3 -225.8 -7.4 -225.55 -7.5 -225.35 -7.55 -224.9 -7.55 -223.85 -7.5 -223.4 -7.5 -223.2 M-14.55 -176.4 L-14.05 -177.85 -13.8 -178.65 -13.35 -178.8 -12.1 -180.2 -13.0 -178.15 -14.35 -176.25 -14.55 -176.4 M36.85 57.85 L37.05 57.8 Q38.65 57.05 40.0 55.75 L40.9 54.75 42.2 53.45 Q43.1 52.65 43.5 52.95 L43.75 53.8 43.65 54.35 43.0 54.95 42.0 56.35 40.75 57.35 40.0 57.9 Q38.0 59.0 36.05 58.85 L34.75 58.95 34.75 58.85 Q34.75 58.55 36.35 58.05 L36.85 57.85 M-4.95 40.0 L-5.25 40.0 Q-5.7 40.0 -7.1 38.4 L-7.7 37.7 -8.65 36.25 -10.5 32.8 -10.4 32.05 -10.5 31.35 -10.5 28.6 Q-10.9 28.25 -10.75 27.2 L-10.4 24.45 -10.35 24.35 -10.3 23.65 Q-10.05 21.7 -9.35 20.95 L-8.8 19.55 -8.75 19.4 Q-8.3 18.35 -7.7 18.05 L-7.5 18.0 -7.25 18.0 -7.5 18.9 -7.8 21.15 -8.05 22.2 -8.15 22.55 -8.45 23.55 Q-8.85 24.1 -8.95 25.15 L-9.0 27.4 -8.95 27.7 -9.0 28.65 -8.65 31.9 -8.6 32.5 -8.55 32.8 Q-7.75 37.5 -6.0 37.5 L-5.65 37.5 -4.95 38.4 -4.5 39.25 -4.55 39.6 -4.75 39.85 -4.95 40.0 M0.25 9.9 L1.3 8.9 2.45 7.65 3.5 5.9 Q3.4 5.65 3.45 5.25 L3.75 3.85 3.75 2.95 3.5 -2.85 3.5 -2.9 Q3.45 -4.3 2.7 -5.6 L2.6 -5.7 1.75 -7.2 Q1.75 -7.65 2.0 -7.85 L2.4 -8.05 3.15 -7.85 Q4.3 -5.7 4.5 -4.65 L5.25 -1.6 5.25 -1.5 5.25 -0.55 5.25 -0.1 5.5 0.4 5.6 2.1 5.6 2.95 5.6 3.3 5.5 4.85 5.5 5.45 5.0 6.85 4.75 7.6 4.0 8.5 3.9 8.4 Q1.9 11.25 0.65 11.25 -0.05 11.25 -0.25 10.85 L-0.25 10.35 0.25 9.9 M-17.0 -46.5 L-17.0 -46.55 -16.9 -47.85 -16.65 -48.15 -16.75 -48.3 -16.0 -51.0 -15.4 -52.7 -13.9 -56.5 Q-12.55 -60.1 -10.55 -62.45 -8.5 -64.85 -8.5 -62.7 L-9.6 -60.85 -9.65 -60.9 Q-11.15 -60.65 -11.8 -59.4 L-12.75 -57.0 -13.55 -54.8 -14.25 -52.55 -14.2 -52.5 Q-15.0 -49.9 -15.0 -48.5 -15.2 -47.2 -14.7 -46.85 L-14.7 -46.8 -15.2 -46.85 Q-16.0 -46.6 -16.0 -45.7 L-15.25 -41.1 Q-14.3 -36.5 -13.5 -36.5 L-13.05 -36.55 -12.45 -34.1 -12.5 -33.4 -11.45 -30.85 -10.0 -27.75 -9.55 -26.4 -11.35 -29.8 -11.75 -30.75 Q-13.0 -30.8 -13.95 -34.0 L-15.15 -38.75 -15.2 -38.9 Q-15.8 -39.7 -16.05 -42.2 L-16.05 -42.25 -16.1 -42.35 -17.0 -46.5 M16.0 57.9 Q14.9 57.45 12.75 55.4 L12.6 55.25 10.75 53.3 12.7 54.15 14.7 56.05 15.6 56.8 15.5 57.35 16.0 57.9 M-7.95 -147.45 L-6.75 -146.5 -5.6 -145.05 -5.55 -145.0 -3.5 -142.3 -1.75 -139.75 -1.5 -139.2 -1.3 -135.3 Q-2.8 -137.4 -4.6 -139.3 L-5.2 -139.75 Q-5.35 -141.3 -5.95 -142.85 -6.8 -145.2 -7.95 -147.45" fill="#8bce00" fill-rule="evenodd" stroke="none"/>
    <path d="M300.35 -218.05 L303.15 -215.75 Q308.0 -211.25 308.0 -210.25 L308.0 -210.1 Q310.45 -207.2 312.55 -203.65 L313.65 -202.05 314.75 -200.05 318.1 -193.45 318.5 -192.5 318.45 -192.35 318.4 -192.25 318.25 -191.9 317.75 -191.75 318.3 -190.1 318.8 -189.55 319.0 -189.25 319.25 -187.5 319.25 -186.9 319.25 -186.85 319.25 -186.55 318.95 -182.15 318.85 -181.35 318.75 -180.6 318.5 -179.3 Q317.85 -176.35 317.0 -176.0 L316.65 -176.3 316.25 -176.85 316.25 -176.9 315.9 -176.45 Q314.1 -174.1 313.5 -173.75 L312.75 -174.4 313.2 -175.25 315.15 -177.75 316.0 -179.7 Q316.25 -180.35 316.9 -180.4 L317.0 -180.9 317.45 -182.8 317.75 -185.75 317.75 -185.85 Q317.5 -187.5 315.65 -192.8 L313.9 -197.95 313.6 -199.0 312.5 -200.7 311.0 -202.95 309.2 -205.75 309.1 -206.05 308.0 -207.65 307.25 -208.55 304.8 -211.0 Q302.5 -213.35 302.5 -213.65 L302.55 -214.05 300.05 -216.5 300.35 -218.05 M299.0 -157.4 L299.0 -157.15 297.65 -153.0 297.6 -152.9 Q296.1 -148.7 295.9 -147.5 295.35 -144.45 295.25 -141.85 295.75 -141.15 295.75 -139.9 L295.4 -135.85 294.85 -132.5 294.35 -129.0 Q293.95 -126.8 292.75 -125.75 L292.3 -126.1 292.0 -126.4 292.75 -130.3 293.75 -135.75 294.05 -138.1 294.1 -138.2 Q293.8 -138.6 293.75 -139.45 L293.75 -141.25 294.15 -145.95 294.4 -147.5 Q293.85 -147.55 293.75 -147.85 L293.75 -148.25 Q293.75 -150.85 295.7 -156.45 296.95 -160.05 298.25 -161.7 299.35 -163.1 300.5 -163.05 L300.75 -162.4 299.35 -160.5 297.95 -157.85 298.3 -157.9 Q298.9 -157.9 299.0 -157.4 M289.1 -111.25 L287.8 -106.15 Q287.0 -102.95 286.65 -100.65 L286.5 -99.3 286.9 -97.75 288.3 -95.2 290.0 -92.3 290.0 -91.9 289.85 -91.75 Q289.85 -91.5 289.25 -91.5 288.8 -91.5 287.75 -93.25 L287.75 -93.3 287.6 -93.35 Q286.7 -93.8 285.9 -96.25 L285.75 -96.25 Q284.9 -96.25 284.75 -97.15 L284.75 -98.15 284.85 -99.25 284.95 -99.8 284.3 -103.35 284.0 -103.7 284.0 -103.85 284.0 -104.2 Q284.0 -106.15 286.5 -111.0 L287.1 -112.05 288.05 -113.55 288.25 -114.15 289.75 -117.9 291.4 -122.0 Q292.05 -124.1 292.8 -124.35 293.5 -124.6 293.5 -123.3 293.5 -122.75 292.15 -119.75 L290.6 -115.9 289.95 -114.1 289.5 -112.95 289.5 -112.75 289.1 -111.25 M307.9 -81.25 L308.5 -80.0 308.4 -79.75 308.4 -79.7 308.55 -79.45 Q308.25 -79.1 308.2 -78.6 307.9 -76.1 308.5 -73.55 L308.4 -71.75 307.9 -70.5 307.2 -69.0 307.25 -68.45 Q307.25 -67.5 304.55 -65.0 301.9 -62.55 300.75 -62.25 L300.0 -62.9 300.05 -63.05 300.9 -64.0 301.8 -64.85 304.1 -66.75 305.2 -68.95 306.8 -72.1 306.9 -72.3 307.25 -73.0 Q307.7 -74.2 307.75 -76.15 L306.6 -79.85 Q306.25 -81.15 304.35 -83.65 L302.5 -86.05 302.5 -86.2 301.4 -86.95 301.1 -87.1 299.5 -87.9 Q299.5 -89.5 302.0 -88.1 304.2 -86.8 305.6 -85.15 L307.9 -81.25 M-3.8 -227.8 Q-3.95 -227.75 -4.05 -227.65 L-4.35 -227.75 -4.55 -227.7 -5.15 -227.35 -5.3 -227.05 -5.4 -226.7 -5.6 -226.0 -5.7 -225.75 -5.75 -225.7 -5.75 -225.65 -5.8 -225.15 -5.75 -224.5 -5.75 -224.25 -5.75 -223.8 -5.7 -223.6 -5.5 -223.15 -5.5 -223.1 -5.5 -223.0 -5.5 -222.9 -5.5 -222.8 -5.5 -222.7 -5.35 -222.25 -5.1 -221.85 -4.85 -221.6 -4.65 -221.5 -4.45 -221.45 -4.35 -221.4 -4.35 -221.3 -4.3 -221.2 -4.3 -221.1 -4.05 -220.8 -3.95 -220.85 -3.75 -220.85 -3.75 -220.9 Q-2.6 -220.25 -1.55 -219.3 L-0.5 -218.45 -0.45 -218.5 -0.25 -218.5 -0.25 -218.55 0.0 -218.45 3.25 -215.95 5.1 -214.9 5.15 -214.8 5.2 -214.7 5.25 -214.65 5.25 -214.55 5.5 -214.45 5.65 -214.35 5.75 -214.3 5.8 -214.2 5.85 -214.1 5.85 -214.0 5.85 -213.9 5.85 -213.8 6.05 -213.45 7.85 -211.8 7.9 -211.7 7.95 -211.65 8.0 -211.55 8.0 -211.45 8.0 -211.35 8.0 -211.25 7.95 -211.15 7.9 -211.05 7.85 -211.0 7.95 -210.8 8.05 -210.6 8.2 -210.15 8.3 -209.9 8.65 -207.95 8.75 -207.4 8.85 -205.0 8.85 -204.65 8.85 -204.55 8.8 -204.45 8.75 -204.35 8.7 -204.25 8.6 -204.15 8.5 -204.1 8.4 -204.05 8.3 -204.05 8.25 -203.7 7.3 -198.95 6.35 -195.25 6.1 -194.75 Q6.45 -193.9 5.25 -192.5 L4.8 -191.9 4.7 -191.9 3.35 -190.7 -0.3 -188.1 -2.2 -187.45 -6.05 -185.65 Q-7.85 -184.55 -10.25 -182.1 L-12.1 -180.2 -13.35 -178.8 -13.8 -178.65 -14.05 -177.85 -14.55 -176.4 Q-14.95 -175.55 -15.3 -175.35 -18.1 -174.0 -16.15 -179.05 -13.95 -184.1 -10.6 -185.65 L-9.2 -185.9 -6.1 -188.0 -5.2 -188.5 -4.75 -188.75 -4.55 -188.8 -4.3 -189.0 -2.4 -189.85 -0.15 -190.95 0.05 -191.05 1.0 -191.3 3.15 -193.25 3.35 -193.6 3.55 -194.2 5.3 -199.1 5.35 -199.05 5.45 -198.95 5.75 -198.9 5.95 -198.9 6.05 -199.0 6.15 -199.05 6.25 -199.15 6.3 -199.25 6.35 -199.35 6.35 -199.45 6.35 -199.55 6.35 -199.8 6.35 -200.0 6.35 -200.1 6.4 -200.3 6.45 -200.45 6.5 -200.55 6.5 -200.65 6.5 -201.05 6.5 -202.45 6.5 -203.55 6.45 -203.75 6.4 -203.95 6.4 -204.05 6.35 -204.15 6.35 -204.5 6.35 -205.05 6.35 -205.35 6.35 -205.45 6.3 -205.55 6.25 -205.65 6.25 -205.8 6.25 -206.0 6.25 -206.1 6.25 -206.2 6.2 -206.3 6.15 -206.4 6.05 -206.45 5.9 -206.55 5.65 -206.65 5.65 -206.6 5.45 -206.6 5.35 -206.55 5.4 -207.35 5.45 -207.9 5.4 -207.9 5.15 -207.95 5.05 -208.05 5.0 -208.1 4.95 -208.15 4.95 -208.25 4.9 -208.35 4.9 -208.45 4.9 -208.55 4.95 -208.6 5.0 -208.7 5.05 -208.75 4.9 -208.9 3.1 -211.5 0.5 -215.25 0.45 -215.35 0.45 -215.45 0.4 -215.55 0.4 -215.65 0.4 -215.8 0.4 -215.9 0.45 -216.0 0.45 -216.1 0.5 -216.15 -1.0 -217.15 -2.2 -218.05 -2.9 -218.35 Q-3.85 -218.75 -4.6 -219.4 L-5.15 -219.8 -5.45 -219.95 -5.5 -220.0 -5.55 -220.05 -5.75 -220.1 -5.95 -220.2 -6.05 -220.3 Q-6.75 -220.5 -7.25 -221.0 L-7.95 -221.75 -7.95 -221.85 -8.0 -221.95 -8.0 -222.15 -8.0 -222.3 -8.0 -222.4 -7.65 -223.1 -7.5 -223.2 -7.5 -223.25 -7.5 -223.4 -7.55 -223.85 -7.55 -224.9 -7.5 -225.35 -7.4 -225.55 -7.3 -225.8 -7.05 -226.3 -6.55 -227.35 -5.6 -228.6 -5.45 -228.75 -5.45 -228.8 -5.25 -228.9 -5.05 -228.95 -4.85 -229.0 -4.45 -228.9 -4.15 -228.7 -4.05 -228.65 -4.0 -228.55 -3.95 -228.45 -3.9 -228.35 -3.9 -228.25 -3.9 -228.15 -3.85 -228.05 -3.85 -227.9 -3.85 -227.8 -3.8 -227.8 M7.9 -213.65 L7.7 -213.95 7.65 -214.05 7.1 -214.7 6.65 -214.95 6.85 -215.45 7.0 -215.7 8.05 -214.4 8.15 -214.15 7.9 -213.65 M6.45 9.95 L6.25 11.4 6.05 11.6 5.5 11.75 5.05 11.65 4.75 11.4 4.75 10.95 5.15 10.45 5.75 11.0 6.45 9.95 M3.55 12.15 L2.05 13.45 1.75 13.6 1.5 13.75 1.4 13.65 0.75 13.05 2.6 10.75 Q4.15 8.95 4.75 7.6 L5.0 6.85 5.5 5.45 5.5 4.85 5.6 3.3 5.6 2.95 5.6 2.1 5.5 0.4 5.5 0.0 5.6 -0.65 5.25 -1.6 4.5 -4.65 Q4.3 -5.7 3.15 -7.85 L2.0 -9.65 Q2.0 -10.55 2.35 -10.7 L2.6 -10.35 3.75 -8.95 4.95 -5.9 Q6.15 -3.05 6.25 -1.85 L6.75 1.3 6.75 2.55 6.5 5.4 6.5 5.7 6.0 6.15 4.95 8.0 2.25 11.8 3.0 12.5 3.55 12.15 M-6.35 27.95 L-6.3 28.65 -6.0 32.15 -6.0 32.65 -6.05 32.75 Q-6.75 30.5 -6.75 29.25 L-6.4 27.25 -6.35 27.95 M15.25 53.6 L15.4 53.7 17.45 55.5 17.65 55.7 15.6 54.0 15.25 53.6 M34.25 59.5 Q34.25 59.25 34.5 59.1 L34.75 58.95 36.05 58.85 Q38.0 59.0 40.0 57.9 L41.5 56.9 42.0 56.35 43.0 54.95 43.65 54.35 Q44.05 54.05 44.6 53.95 45.75 52.85 45.75 54.55 L44.55 56.3 43.25 57.85 43.0 58.0 42.95 57.95 42.8 57.8 42.75 57.8 41.95 58.45 39.5 59.95 39.45 59.5 39.35 59.35 34.35 59.5 34.25 59.55 34.25 59.5 M10.1 53.0 Q8.75 52.35 8.75 51.85 L8.8 51.55 Q9.0 50.55 10.75 51.3 18.95 59.5 19.5 59.5 L19.85 59.5 20.5 59.95 22.3 61.1 21.75 61.25 Q20.9 61.25 18.15 59.45 L16.0 57.9 15.5 57.35 15.6 56.8 14.7 56.05 12.7 54.15 10.75 53.3 10.5 53.2 10.1 53.0 M-6.95 17.35 L-6.8 17.1 Q-6.65 16.95 -6.45 16.95 -5.85 16.95 -5.75 17.85 -6.5 18.45 -7.2 20.3 L-8.1 23.35 -8.75 25.5 -8.75 28.65 -8.45 28.9 -8.25 29.0 -8.25 29.2 -8.15 30.9 -7.55 32.85 -7.0 35.2 Q-6.55 36.75 -5.75 36.75 L-5.5 36.75 -4.75 38.25 -4.15 39.2 -4.95 38.4 -5.65 37.5 -6.0 37.5 Q-7.75 37.5 -8.55 32.8 L-8.6 32.5 -8.65 31.9 -8.95 27.7 -9.0 27.4 -8.95 25.15 Q-8.85 24.1 -8.45 23.55 L-8.25 23.25 -8.1 23.35 -8.0 22.6 -8.05 22.2 -7.8 21.15 -7.5 18.9 -7.25 18.0 -6.95 17.35 M-9.6 -60.85 L-9.55 -60.75 -9.5 -60.3 -10.25 -59.0 Q-11.45 -56.75 -13.25 -52.15 L-13.25 -51.95 -13.5 -51.6 -13.9 -49.9 Q-14.25 -48.7 -14.25 -46.75 L-14.7 -46.85 Q-15.2 -47.2 -15.0 -48.5 -15.0 -49.9 -14.2 -52.5 L-14.25 -52.55 -13.55 -54.8 -12.75 -57.0 -11.8 -59.4 Q-11.15 -60.65 -9.65 -60.9 L-9.6 -60.85 M-14.7 -46.8 Q-14.4 -46.55 -14.3 -45.75 L-14.25 -45.35 -14.15 -42.75 -13.5 -38.5 -13.05 -36.55 -13.5 -36.5 Q-14.3 -36.5 -15.25 -41.1 L-16.0 -45.7 Q-16.0 -46.6 -15.2 -46.85 L-14.7 -46.8 M-12.45 -34.1 Q-11.35 -30.25 -10.5 -30.25 L-10.0 -30.35 -8.75 -27.1 -7.7 -24.75 Q-6.8 -23.1 -6.3 -23.0 L-6.25 -22.85 -6.25 -22.5 -6.45 -22.2 Q-6.6 -22.0 -7.0 -22.0 -8.05 -22.0 -8.95 -24.4 L-9.55 -26.4 -10.0 -27.75 -11.45 -30.85 -12.5 -33.4 -12.45 -34.1 M286.0 -105.6 L285.75 -104.8 285.8 -104.0 286.4 -106.65 286.65 -107.7 286.0 -105.6 M19.25 57.15 L20.0 57.8 19.6 57.55 19.25 57.15 M-11.3 -154.2 L-10.4 -153.55 Q-9.05 -152.55 -7.6 -150.7 L-3.05 -145.85 -2.95 -145.4 -1.7 -143.95 -1.5 -139.2 -1.75 -139.75 -3.5 -142.3 -5.55 -145.0 -5.6 -145.05 -6.75 -146.5 -7.95 -147.45 -11.15 -152.45 -12.6 -154.3 -12.45 -154.35 -11.3 -154.2 M-10.05 -32.2 L-9.9 -31.9 -9.95 -31.9 -10.05 -32.2 M-5.5 34.4 L-4.95 35.25 -5.25 35.15 -5.5 34.4" fill="#7cb900" fill-rule="evenodd" stroke="none"/>
    <path d="M299.55 -60.75 Q304.1 -63.6 305.95 -66.0 L308.0 -69.0 308.2 -71.6 308.6 -76.6 Q308.75 -79.25 307.2 -83.15 305.55 -87.1 303.1 -88.8 300.6 -90.55 296.5 -92.25 292.35 -94.0 290.2 -95.3 288.0 -96.6 287.55 -97.8 287.1 -99.1 286.9 -100.45 286.45 -103.3 287.25 -105.85 L289.8 -113.05 293.1 -120.95 Q294.75 -124.9 295.4 -129.05 L296.4 -137.6 297.35 -147.15 Q297.85 -151.75 298.75 -156.15 299.6 -160.45 302.85 -163.6 304.95 -165.6 307.4 -167.35 L310.35 -169.55 313.5 -172.2 Q317.35 -175.25 319.15 -179.85 319.7 -181.2 319.75 -182.45 319.85 -186.7 318.95 -190.75 318.05 -194.6 316.3 -198.3 314.4 -202.3 311.6 -205.85 308.95 -209.25 307.1 -212.1 L303.4 -217.25 300.05 -221.55 M299.55 -65.15 Q302.5 -66.3 304.2 -68.9 L304.9 -70.4 305.25 -72.55 305.15 -74.1 Q305.0 -78.95 302.95 -83.2 302.0 -85.1 300.25 -86.35 296.55 -89.0 292.2 -90.55 287.75 -92.2 284.6 -95.65 283.75 -96.65 283.3 -97.85 282.85 -99.15 282.65 -100.5 282.2 -103.35 283.0 -105.9 L285.55 -113.1 288.85 -121.0 Q290.5 -124.95 291.15 -129.1 L292.15 -137.65 293.1 -147.2 Q293.6 -151.8 294.5 -156.2 295.35 -160.5 298.6 -163.65 L302.65 -167.35 306.1 -170.4 Q307.65 -171.7 310.4 -173.5 313.1 -175.3 314.9 -179.9 315.45 -181.25 315.5 -182.5 315.6 -186.75 314.7 -190.8 313.8 -194.65 312.05 -198.35 310.15 -202.35 307.35 -205.9 L302.0 -212.55 300.05 -214.9 M-3.95 -225.9 Q-4.7 -224.8 -3.8 -223.65 -2.95 -222.55 -1.4 -221.9 0.1 -221.25 1.3 -220.3 L5.2 -216.8 Q7.9 -214.25 8.8 -210.6 9.65 -206.9 9.6 -205.35 L9.55 -203.8 9.6 -203.15 Q9.65 -199.15 8.95 -195.1 8.0 -189.85 -2.0 -186.15 -11.95 -182.55 -14.8 -174.75 -17.45 -167.1 -11.6 -160.15 -5.7 -153.1 -4.7 -149.45 -3.95 -146.8 -1.7 -143.05 M-1.3 -135.05 Q-2.75 -136.75 -3.85 -138.9 L-9.45 -149.75 Q-10.65 -152.0 -16.1 -160.0 -21.65 -168.0 -19.0 -176.25 -16.5 -184.5 -6.6 -187.95 3.3 -191.55 4.25 -196.75 4.85 -199.95 4.9 -203.15 L4.85 -204.15 Q5.15 -207.1 4.45 -208.6 L2.25 -212.35 Q0.75 -214.65 -2.45 -216.3 L-5.2 -217.6 -6.45 -218.3 -7.0 -218.65 Q-8.5 -219.4 -9.5 -220.45 -9.95 -221.0 -10.2 -222.3 -10.45 -223.6 -9.65 -225.6 -8.85 -227.6 -4.5 -230.9 M-4.25 -64.05 L-7.25 -60.25 Q-15.45 -49.6 -10.7 -37.35 -6.55 -26.55 0.7 -17.45 7.45 -8.95 9.1 1.5 9.95 6.75 1.75 13.55 -6.45 20.3 -6.5 28.55 -6.55 36.75 1.35 41.4 9.25 46.0 11.4 49.15 13.5 52.25 19.05 56.2 24.55 60.1 32.6 59.2 38.3 57.45 43.6 53.4 L44.4 52.75 M-4.25 -69.95 L-12.25 -60.25 Q-20.45 -49.6 -15.7 -37.35 -11.55 -26.55 -4.3 -17.45 2.45 -8.95 4.1 1.5 4.95 6.75 -3.2 13.35 -11.4 19.95 -11.35 28.3 -11.35 36.6 -3.9 41.55 3.5 46.5 6.0 49.4 L12.75 56.45 Q18.4 62.05 26.6 62.95 32.1 63.35 37.35 61.5 42.45 59.7 46.15 55.15 L48.2 52.75" fill="none" stroke="#000000" stroke-linecap="round" stroke-linejoin="round" stroke-width="1.5"/>
    <path d="M306.3 -206.75 L307.1 -206.6 Q308.35 -206.25 308.9 -205.65 L309.4 -205.05 309.55 -204.1 309.55 -203.85 Q309.3 -203.2 308.5 -202.45 307.25 -201.35 303.85 -200.75 301.15 -200.25 299.8 -199.4 L300.0 -199.9 Q301.4 -203.1 303.5 -204.95 304.1 -205.45 305.0 -205.7 L306.0 -206.0 306.3 -206.55 306.3 -206.75 M304.55 -203.1 L305.65 -201.85 306.05 -201.85 306.45 -202.1 306.75 -202.6 306.75 -202.85 306.15 -203.55 305.35 -204.2 Q304.8 -204.35 304.55 -203.1 M-5.05 -221.45 L-4.4 -223.25 Q-3.85 -225.1 -0.8 -226.25 2.2 -227.4 3.5 -227.35 4.8 -227.45 7.6 -228.45 L7.65 -228.45 8.15 -228.7 7.75 -228.25 7.65 -228.15 Q7.1 -227.6 6.85 -226.55 L6.5 -225.05 Q4.05 -218.9 1.1 -217.85 -1.35 -216.9 -3.15 -217.85 -4.3 -218.45 -4.65 -219.35 L-4.7 -220.15 Q-4.65 -220.6 -4.75 -220.95 L-4.95 -221.35 -5.05 -221.45 M9.8 -227.8 L9.3 -226.85 8.95 -226.9 8.8 -226.8 Q9.15 -227.4 9.8 -227.8 M-6.15 -219.0 L-6.8 -219.9 -6.85 -220.55 -6.45 -220.4 Q-6.5 -219.9 -6.15 -219.0 M1.1 -223.7 Q1.95 -222.85 2.65 -223.1 L3.1 -223.45 3.2 -223.65 3.05 -224.1 Q2.85 -224.85 1.55 -225.6 0.0 -225.95 0.55 -224.45 L1.1 -223.7 M6.4 -193.1 L6.9 -192.4 Q7.65 -191.4 7.7 -190.6 L7.7 -189.75 7.25 -188.95 7.1 -188.75 Q6.5 -188.4 5.4 -188.35 3.75 -188.25 0.7 -189.9 -1.75 -191.25 -3.35 -191.45 L-2.85 -191.7 Q0.2 -193.3 3.0 -193.45 L4.75 -193.05 5.65 -192.7 6.2 -192.9 6.4 -193.1 M2.7 -191.3 L2.8 -189.65 3.1 -189.45 3.55 -189.35 4.1 -189.55 4.3 -189.75 4.25 -190.7 4.05 -191.7 Q3.75 -192.1 2.7 -191.3 M16.4 -33.65 L16.75 -33.75 Q15.7 -31.8 14.95 -29.7 L14.45 -28.15 14.25 -27.1 14.15 -27.05 14.25 -26.8 14.25 -26.3 11.95 -19.25 10.9 -17.1 10.4 -15.5 Q9.3 -13.5 7.2 -13.1 5.45 -11.5 3.15 -11.5 1.75 -11.5 0.9 -12.25 L0.75 -12.25 0.15 -12.35 -0.45 -13.4 -0.5 -13.7 -0.2 -14.75 -0.2 -14.85 0.25 -14.75 Q0.65 -14.75 0.8 -14.9 L1.0 -15.1 Q2.95 -21.95 6.75 -25.25 L9.65 -27.25 12.6 -29.1 15.05 -31.45 16.4 -33.65 M0.8 -19.25 L1.4 -20.55 3.4 -23.55 2.3 -21.9 0.8 -19.25 M5.25 -21.2 L5.65 -20.75 6.6 -20.4 Q8.5 -19.5 8.75 -19.5 L9.3 -19.6 9.45 -19.75 9.5 -20.25 Q8.4 -21.65 6.8 -21.95 5.25 -22.25 5.25 -21.2 M3.75 -15.95 L4.75 -14.5 5.25 -14.6 5.45 -14.75 5.5 -15.55 Q5.5 -16.85 4.15 -17.75 2.75 -18.65 2.75 -17.15 L3.75 -15.95 M324.05 -184.55 Q322.6 -183.8 320.85 -181.9 320.85 -182.75 320.3 -183.1 319.85 -183.55 319.4 -183.4 L318.95 -183.15 318.9 -183.05 318.95 -182.2 Q319.15 -181.7 319.5 -181.5 319.9 -181.2 320.2 -181.3 L317.75 -179.3 316.7 -178.85 Q315.05 -178.4 314.25 -179.1 314.0 -179.35 313.7 -180.25 313.5 -181.05 313.95 -182.25 L314.2 -183.05 314.75 -183.1 315.15 -183.25 316.15 -183.5 316.55 -183.7 319.1 -184.85 322.25 -185.25 Q322.95 -185.15 324.05 -184.55 M303.8 -181.55 L304.85 -178.6 305.85 -175.8 307.4 -171.55 308.1 -169.5 305.5 -169.3 305.1 -169.0 305.05 -168.9 305.15 -168.2 305.55 -167.7 305.8 -167.5 307.05 -168.0 308.3 -168.85 309.1 -165.6 308.7 -163.2 308.35 -161.95 308.2 -161.4 307.05 -158.65 Q306.4 -157.7 305.15 -157.2 304.5 -156.95 304.1 -157.45 L302.85 -158.75 302.6 -158.95 302.35 -159.15 301.85 -159.65 302.1 -160.0 302.15 -160.1 Q302.45 -160.4 302.35 -160.8 L302.3 -160.95 301.8 -161.45 301.65 -161.4 300.55 -161.25 300.9 -161.4 301.55 -161.7 Q303.15 -162.55 303.55 -164.35 303.9 -166.1 303.65 -170.1 L303.35 -172.9 303.15 -174.75 303.2 -177.0 303.45 -180.0 303.8 -181.55 M315.2 -181.7 L315.05 -180.45 Q315.3 -179.65 316.05 -179.9 316.7 -180.05 316.75 -181.45 316.8 -182.9 315.75 -182.6 315.55 -182.55 315.2 -181.7 M303.0 -184.6 L302.85 -184.55 302.7 -184.35 302.85 -185.2 303.0 -184.6 M302.4 -183.2 Q302.15 -181.8 302.0 -178.85 L301.55 -180.85 302.4 -183.2 M303.55 -162.65 Q303.2 -162.15 303.45 -161.55 L303.55 -161.25 304.5 -160.3 304.65 -160.05 Q305.5 -159.35 306.05 -159.55 L306.5 -159.8 306.6 -159.95 306.3 -160.7 305.6 -161.6 305.3 -161.9 304.15 -163.15 303.55 -162.65 M288.2 -113.25 L288.7 -112.55 Q289.4 -111.5 289.4 -110.7 L289.35 -109.85 288.85 -109.05 288.7 -108.9 Q288.1 -108.55 287.0 -108.55 285.35 -108.55 282.35 -110.35 280.0 -111.8 278.4 -112.05 L278.9 -112.3 Q282.05 -113.75 284.85 -113.75 L286.55 -113.3 287.45 -112.9 288.0 -113.05 288.2 -113.25 M311.25 -125.4 L310.4 -124.7 310.1 -124.8 309.85 -124.85 Q310.4 -125.25 311.25 -125.4 M293.15 -122.75 Q292.85 -123.15 292.85 -123.85 L293.1 -124.45 293.35 -124.25 293.15 -122.75 M295.05 -124.65 L296.3 -126.1 Q297.45 -127.7 300.7 -127.7 L305.15 -127.25 309.35 -126.8 309.9 -126.8 309.4 -126.6 Q308.7 -126.25 308.0 -125.3 L307.1 -124.0 Q302.7 -119.15 299.55 -119.15 296.9 -119.15 295.55 -120.65 294.8 -121.45 294.7 -122.2 L294.65 -122.55 294.65 -122.6 294.9 -123.35 295.15 -124.1 295.1 -124.55 295.05 -124.65 M303.55 -123.8 L303.6 -124.3 Q303.6 -125.05 302.7 -126.3 301.35 -127.1 301.35 -125.55 L301.6 -124.6 Q302.05 -123.55 302.85 -123.55 L303.4 -123.65 303.55 -123.8 M299.6 -124.75 L299.5 -126.05 Q299.2 -126.75 298.1 -125.55 298.1 -124.65 297.6 -123.7 L297.1 -122.5 297.85 -121.8 Q299.2 -122.45 299.5 -123.3 L299.6 -124.75 M285.8 -111.95 Q285.5 -112.4 284.45 -111.65 L284.45 -110.0 284.75 -109.75 285.2 -109.65 285.75 -109.8 285.95 -110.0 285.95 -110.95 285.8 -111.95 M294.9 -98.2 Q294.45 -96.65 294.65 -94.05 294.05 -94.6 293.45 -94.5 292.8 -94.45 292.55 -94.05 L292.45 -93.55 292.45 -93.45 293.15 -92.9 294.1 -92.8 294.7 -93.15 Q294.75 -91.25 294.45 -90.05 L294.1 -88.95 Q293.3 -87.4 292.25 -87.3 L291.05 -87.7 Q290.3 -88.15 289.75 -89.25 L289.3 -90.0 289.65 -90.4 289.8 -90.8 290.25 -91.7 290.45 -92.15 291.3 -94.85 Q292.25 -96.75 293.25 -97.4 293.8 -97.85 294.9 -98.2 M314.65 -94.8 L314.5 -93.6 314.7 -90.4 Q314.7 -89.85 315.05 -88.7 L315.25 -87.15 Q315.05 -84.2 315.9 -78.85 315.9 -74.55 311.2 -72.6 309.8 -72.0 308.6 -72.8 L307.65 -73.7 307.9 -73.95 308.0 -74.25 Q307.15 -81.3 309.35 -85.8 L311.3 -88.8 313.25 -91.65 Q314.0 -92.8 314.6 -94.75 L314.65 -94.8 M306.95 -82.95 L306.55 -81.0 306.25 -77.95 306.3 -79.4 Q306.4 -81.35 306.95 -82.95 M310.1 -81.25 L311.15 -81.3 313.45 -81.3 313.9 -81.6 314.0 -81.8 313.85 -82.3 Q312.3 -83.15 310.7 -82.8 309.15 -82.5 309.6 -81.5 309.7 -81.3 310.1 -81.25 M310.2 -76.1 L311.7 -75.15 312.15 -75.45 312.25 -75.65 311.95 -76.4 Q311.45 -77.6 309.85 -77.9 308.25 -78.15 308.85 -76.8 L310.2 -76.1 M290.65 -90.8 L291.0 -89.8 291.8 -88.8 Q292.55 -88.5 292.9 -89.2 293.2 -89.7 292.2 -90.75 L290.65 -90.8 M-1.75 15.8 L-1.65 16.25 -1.55 16.35 -0.85 16.5 Q-0.45 16.5 0.7 14.95 1.85 13.35 5.1 13.35 L9.55 13.8 13.75 14.25 15.45 14.0 15.5 14.05 16.3 15.2 Q15.5 15.65 14.8 16.35 L14.5 16.25 12.8 15.85 12.75 16.0 12.05 17.3 Q11.85 17.95 11.25 18.4 L7.5 21.75 Q5.7 23.25 4.25 23.25 2.8 23.25 1.7 21.7 -0.15 21.5 -0.8 19.95 L-0.95 18.5 -1.25 18.75 Q-2.8 18.75 -2.75 17.2 L-2.5 16.6 -1.75 15.8 M3.9 15.0 Q3.6 14.3 2.5 15.5 2.5 16.4 2.0 17.35 L1.5 18.55 2.25 19.25 Q3.6 18.6 3.9 17.75 L4.0 16.3 3.9 15.0 M7.95 17.25 L8.0 16.75 Q8.0 16.0 7.1 14.75 5.75 13.95 5.75 15.5 L6.0 16.45 Q6.45 17.5 7.25 17.5 L7.8 17.4 7.95 17.25 M3.6 45.9 L3.65 45.95 Q4.65 46.9 6.05 46.4 L6.45 47.3 6.75 47.25 7.3 47.35 8.05 48.1 8.25 49.05 7.85 50.7 7.3 51.95 7.25 52.05 7.25 52.3 Q7.1 53.1 6.65 53.35 L5.65 54.15 3.0 54.35 Q2.9 54.35 2.55 55.45 2.1 56.5 1.25 56.5 L0.55 56.1 Q0.1 55.7 -0.05 55.75 L-1.7 55.5 -1.75 55.5 -2.95 56.1 -4.05 56.95 -4.75 57.75 Q-5.55 59.15 -6.5 60.25 L-6.75 60.7 Q-7.8 61.25 -8.75 61.95 L-8.6 61.25 -7.65 56.95 -7.25 55.25 -6.65 52.65 Q-6.25 51.25 -4.9 50.15 L-2.25 48.35 -1.7 48.05 -0.5 47.5 2.9 46.95 Q3.75 46.95 3.75 46.5 L3.6 45.9 M40.25 61.5 L40.25 61.55 38.75 61.5 35.25 62.4 34.9 62.2 33.1 61.75 32.95 61.85 Q32.6 62.15 32.25 63.3 L27.1 65.2 26.85 65.35 26.15 64.1 25.75 61.85 25.85 60.15 Q26.1 59.5 27.6 58.4 L27.7 58.35 27.75 58.25 27.75 58.2 27.8 58.2 27.7 58.35 27.5 59.05 27.6 59.5 27.7 59.6 28.4 59.75 29.7 59.45 Q30.65 59.1 31.0 59.1 33.5 59.1 36.8 60.3 L40.25 61.5 M0.3 50.85 L2.5 51.75 3.05 51.65 3.2 51.5 3.25 51.0 Q3.0 50.0 0.75 49.3 -1.5 48.65 -1.5 49.65 -1.5 49.95 0.3 50.85 M30.25 61.3 Q30.25 60.2 29.25 60.75 28.25 61.3 28.25 62.05 L28.35 62.5 28.45 62.6 29.15 62.75 29.9 62.25 30.25 61.3 M-1.35 -224.35 Q-1.9 -224.85 -2.45 -223.3 -2.15 -222.5 -2.3 -221.4 L-2.35 -220.1 -1.4 -219.75 Q-0.4 -220.8 -0.4 -221.7 L-0.8 -223.1 -1.35 -224.35 M-19.4 -179.15 L-16.15 -178.9 -13.95 -177.75 -12.85 -177.0 -12.4 -176.7 -10.1 -174.75 Q-9.4 -173.85 -9.35 -172.5 -9.3 -171.8 -9.9 -171.55 L-11.55 -170.8 -11.75 -170.65 -12.1 -170.4 -12.75 -170.15 -12.95 -170.45 -13.0 -170.55 -13.65 -170.95 -13.8 -170.95 Q-14.4 -170.9 -14.45 -170.65 L-14.4 -170.5 -14.6 -169.45 -14.65 -169.85 -14.7 -170.5 Q-15.05 -172.25 -16.65 -173.2 -18.15 -174.15 -22.05 -175.1 L-24.8 -175.7 -26.6 -176.15 -28.75 -176.85 -31.55 -178.05 -32.9 -178.9 -29.75 -178.95 -26.75 -179.05 -22.25 -179.15 -20.15 -179.15 Q-20.8 -178.7 -20.7 -176.6 L-20.55 -176.15 -20.45 -176.05 -19.75 -175.95 Q-19.4 -175.95 -19.15 -176.15 L-18.9 -176.35 -19.0 -177.7 Q-19.05 -178.8 -19.4 -179.15 M-33.0 -176.5 L-34.85 -177.95 -30.9 -176.25 -33.0 -176.5 M-36.0 -178.75 L-36.7 -179.15 -36.1 -179.05 -36.1 -178.9 -36.0 -178.75 M-11.5 -174.75 L-12.3 -174.65 -13.35 -174.3 -13.8 -174.1 -15.3 -173.4 -15.05 -172.75 Q-14.65 -172.2 -14.0 -172.2 L-13.7 -172.25 Q-13.2 -172.35 -12.5 -172.8 L-12.25 -172.9 Q-11.3 -173.5 -11.35 -174.1 L-11.4 -174.6 -11.5 -174.75 M-3.7 -150.25 L-2.5 -149.9 Q-0.1 -149.2 -0.05 -147.45 0.05 -145.25 -2.0 -143.7 -2.75 -143.15 -3.9 -142.55 L-4.05 -142.55 -4.1 -142.45 -7.6 -140.95 -8.7 -141.15 -8.75 -141.15 -9.9 -140.5 -11.0 -139.6 Q-12.55 -138.55 -14.55 -136.35 L-15.25 -135.55 -14.6 -139.4 -14.25 -141.15 -13.8 -143.75 Q-13.45 -145.2 -12.15 -146.35 L-9.6 -148.3 -9.05 -148.6 -7.9 -149.2 -4.5 -149.95 Q-3.8 -149.95 -3.7 -150.25 M-8.6 -142.4 L-8.6 -142.9 -8.8 -143.5 Q-9.3 -144.4 -10.45 -144.75 -11.95 -145.15 -11.9 -143.95 L-10.7 -143.1 Q-9.4 -142.15 -9.3 -142.15 L-8.75 -142.25 -8.6 -142.4 M-4.0 -145.4 L-3.95 -145.9 Q-4.25 -146.9 -6.55 -147.45 -8.85 -148.0 -8.8 -147.0 -8.75 -146.7 -6.9 -145.9 L-4.7 -145.1 -4.15 -145.25 -4.0 -145.4 M-17.25 -48.8 L-17.25 -49.85 -17.3 -50.55 Q-17.55 -52.35 -19.1 -53.35 -20.6 -54.35 -24.45 -55.5 L-27.15 -56.25 -28.95 -56.75 -31.05 -57.6 -33.75 -58.9 Q-38.25 -62.05 -38.25 -59.95 -38.25 -59.3 -33.2 -57.1 L-35.95 -57.55 -36.9 -57.7 Q-38.35 -59.55 -40.45 -60.75 -37.35 -61.6 -33.95 -60.8 -32.55 -60.5 -31.7 -61.25 L-28.95 -60.85 -28.5 -60.75 -25.95 -60.15 Q-25.45 -60.7 -24.45 -60.8 L-21.0 -60.25 -18.2 -59.15 Q-17.45 -59.2 -16.2 -58.5 L-15.75 -58.25 -14.7 -57.55 -14.2 -57.2 Q-13.3 -57.15 -12.5 -56.0 L-11.8 -54.5 -11.75 -53.2 -11.75 -52.7 -11.75 -51.85 -11.8 -50.95 -12.25 -50.55 -13.05 -49.6 -13.75 -49.75 -14.7 -49.5 -15.25 -49.1 -15.4 -49.2 -15.5 -49.45 Q-15.65 -48.8 -16.2 -48.55 L-16.75 -48.5 Q-16.95 -48.5 -17.25 -48.8 M-23.0 -56.95 L-22.9 -56.5 -22.8 -56.4 -22.1 -56.25 Q-21.75 -56.25 -21.5 -56.4 L-21.25 -56.6 -21.25 -57.95 Q-21.25 -59.65 -22.1 -59.55 -23.0 -59.4 -23.0 -56.95 M-15.75 -54.3 L-16.2 -54.1 -17.75 -53.5 -17.5 -52.8 Q-17.15 -52.25 -16.5 -52.25 L-16.2 -52.25 Q-15.7 -52.35 -14.95 -52.75 L-14.7 -52.85 Q-13.75 -53.4 -13.75 -54.0 L-13.8 -54.5 -13.9 -54.65 -14.7 -54.6 -15.75 -54.3 M-6.85 -46.7 L-6.85 -46.75 -6.65 -46.95 -6.85 -46.7 M-6.4 -47.1 L-6.0 -47.75 -5.45 -47.4 Q-5.8 -47.75 -6.4 -47.1 M-5.25 -46.2 Q-5.25 -45.55 -5.75 -43.15 L-4.75 -41.75 -3.25 -39.6 -2.35 -37.8 -2.05 -37.05 -2.0 -36.35 Q-2.0 -35.55 -2.5 -34.85 L-2.5 -34.55 Q-2.5 -33.95 -2.95 -33.4 -3.65 -32.5 -5.1 -32.5 -6.65 -32.5 -7.1 -33.25 L-7.15 -33.55 -8.3 -34.75 Q-7.7 -35.1 -7.6 -35.4 L-7.5 -36.6 -7.55 -37.05 -8.0 -39.85 Q-8.0 -42.0 -7.5 -43.0 L-6.1 -44.8 Q-5.3 -45.6 -5.25 -46.2 M-6.4 -39.25 L-6.3 -39.15 -5.5 -39.0 Q-4.95 -39.0 -4.6 -39.3 -4.25 -39.6 -4.25 -40.0 L-4.3 -40.5 -4.4 -40.65 -6.0 -40.55 Q-6.5 -40.2 -6.5 -39.7 L-6.4 -39.25 M-4.85 -34.75 Q-4.0 -34.75 -4.0 -35.5 -4.0 -36.15 -5.35 -36.6 -6.75 -37.05 -6.75 -35.95 L-6.0 -35.25 Q-5.2 -34.75 -4.85 -34.75 M-11.05 27.85 L-10.6 28.0 -10.55 28.25 Q-10.05 30.0 -9.0 31.25 L-9.3 31.6 -9.4 31.55 -9.65 32.0 -10.35 33.1 -11.55 33.95 -11.5 34.4 -12.45 34.75 Q-16.8 30.9 -22.3 30.8 L-20.3 29.85 Q-17.15 28.4 -14.35 28.4 -13.55 28.4 -12.65 28.85 L-11.75 29.25 -11.2 29.1 -11.0 28.9 -11.0 28.3 -11.05 27.85 M-24.2 30.85 L-24.3 30.85 -24.25 30.65 -24.2 30.85 M-13.4 30.2 Q-13.7 29.75 -14.75 30.5 L-14.75 32.15 -14.45 32.4 -14.0 32.5 -13.45 32.35 -13.25 32.15 -13.25 31.2 Q-13.25 30.4 -13.4 30.2 M-3.25 51.85 Q-4.75 51.35 -4.75 52.55 L-3.6 53.45 -2.25 54.5 -1.7 54.4 -1.55 54.25 -1.5 53.75 -1.7 53.15 Q-2.15 52.25 -3.25 51.85" fill="#007d00" fill-rule="evenodd" stroke="none"/>
    <path d="M299.0 -205.55 Q299.85 -205.3 300.4 -205.8 301.0 -206.35 300.5 -206.9 L298.9 -207.05 Q297.6 -206.85 298.45 -205.85 L299.0 -205.55 M301.65 -207.9 L302.2 -207.6 Q302.9 -207.3 303.25 -207.6 L303.55 -208.05 303.6 -208.25 303.1 -208.9 Q302.5 -209.55 301.8 -209.1 301.1 -208.55 301.65 -207.9 M297.8 -200.05 L297.5 -201.45 Q296.45 -206.8 299.0 -209.05 301.1 -210.9 302.3 -210.6 302.65 -210.55 303.4 -209.7 L304.25 -207.95 304.4 -207.65 Q302.75 -207.2 300.15 -203.75 298.55 -201.6 297.8 -200.05 M6.35 -230.0 L3.85 -229.1 -0.55 -228.6 Q-1.85 -228.25 -4.55 -226.25 -5.05 -225.85 -5.8 -223.85 L-6.25 -222.3 -7.2 -222.95 Q-9.15 -224.15 -9.75 -225.65 -10.05 -227.2 -9.9 -229.0 -9.4 -232.45 -6.85 -233.55 L-6.35 -233.55 -5.05 -233.85 Q-3.25 -234.0 -0.7 -233.2 1.35 -232.55 3.25 -231.6 L6.35 -230.0 M-8.9 -222.15 Q-9.55 -222.3 -10.0 -222.9 L-10.5 -224.2 -10.55 -224.45 -9.2 -222.5 -8.9 -222.15 M-4.5 -193.15 L-3.85 -194.45 Q-1.25 -199.3 2.15 -199.45 4.95 -199.6 5.65 -198.65 5.9 -198.35 5.95 -197.2 L5.55 -195.3 5.45 -194.95 -0.3 -194.6 -4.5 -193.15 M5.2 -195.95 L5.2 -196.75 Q5.15 -197.65 4.3 -197.7 3.4 -197.75 3.45 -196.9 L3.7 -196.35 Q4.05 -195.65 4.5 -195.65 L5.0 -195.8 5.2 -195.95 M1.15 -196.0 Q2.0 -196.05 1.95 -196.8 1.95 -197.35 0.8 -198.0 -0.4 -198.65 -0.35 -197.3 L-0.05 -196.7 Q0.45 -195.95 1.15 -196.0 M-0.45 -13.4 Q-1.1 -14.05 -2.2 -14.5 L-1.85 -15.05 -2.75 -15.0 Q-4.25 -15.0 -4.75 -16.75 L-5.0 -18.5 -4.7 -19.9 Q-4.4 -20.6 -4.25 -22.25 -4.35 -23.4 -2.55 -26.0 L-0.6 -27.55 Q1.2 -28.8 2.0 -29.75 3.3 -31.35 5.0 -30.85 5.9 -30.6 6.25 -30.1 7.35 -31.75 8.55 -32.1 9.8 -32.4 10.0 -31.35 L11.2 -32.85 14.55 -33.2 12.6 -31.15 Q11.65 -30.25 9.6 -29.1 7.5 -27.95 6.5 -27.1 4.75 -25.5 3.4 -23.55 L1.4 -20.55 0.8 -19.25 -0.5 -17.0 -0.5 -15.1 -0.2 -14.85 -0.2 -14.75 -0.5 -13.7 -0.45 -13.4 M3.0 -24.95 Q3.0 -26.1 1.9 -27.15 0.75 -28.2 0.75 -26.7 L1.2 -25.5 Q1.8 -24.0 2.25 -24.0 L2.75 -24.1 2.95 -24.25 3.0 -24.95 M0.15 -20.75 Q1.0 -20.75 1.0 -21.5 1.0 -22.3 -0.75 -22.7 -2.5 -23.05 -2.5 -21.7 L-2.4 -21.25 -2.3 -21.15 -1.0 -20.95 0.15 -20.75 M316.95 -186.85 L317.35 -187.0 317.5 -187.15 Q317.6 -187.95 316.85 -188.35 L315.85 -188.6 315.35 -187.7 Q316.55 -186.65 316.95 -186.85 M321.3 -188.9 Q321.15 -189.9 320.25 -189.6 319.05 -188.4 319.25 -187.75 L319.5 -187.25 319.65 -187.15 320.15 -187.25 Q321.55 -187.95 321.3 -188.9 M314.55 -185.05 L314.35 -185.35 313.4 -187.0 313.2 -188.45 Q313.65 -189.7 316.4 -190.45 319.7 -191.35 323.55 -187.9 L323.8 -187.65 325.85 -185.65 323.1 -186.75 320.8 -186.9 318.45 -186.3 316.1 -185.2 315.45 -184.95 Q315.15 -184.8 314.8 -184.95 L314.55 -185.05 M292.1 -166.35 L292.0 -166.45 292.1 -166.6 292.1 -166.35 M302.0 -178.85 L301.85 -174.25 301.85 -172.3 302.15 -169.55 Q302.45 -164.9 300.95 -163.2 300.3 -162.45 299.2 -162.35 L299.1 -161.95 299.2 -161.5 299.4 -161.1 297.7 -160.95 297.0 -161.0 296.25 -161.3 295.5 -161.9 Q294.9 -162.55 294.5 -163.55 293.95 -165.0 293.8 -166.9 293.65 -168.6 293.85 -168.95 L293.95 -169.0 295.45 -171.4 295.95 -172.0 Q298.2 -174.55 298.95 -175.85 300.55 -178.3 301.55 -180.85 L302.0 -178.85 M297.0 -165.05 L298.2 -165.4 Q299.2 -165.75 299.3 -165.95 299.8 -166.45 298.45 -167.1 L296.9 -166.9 295.7 -166.85 295.3 -165.9 Q296.35 -165.1 297.0 -165.05 M300.75 -170.3 Q300.45 -171.25 299.1 -171.9 L297.6 -172.4 297.2 -172.15 297.15 -172.0 297.25 -171.3 Q299.45 -169.6 300.2 -169.9 L300.7 -170.15 300.75 -170.3 M300.0 -153.35 L300.25 -152.55 299.95 -153.4 300.0 -153.35 M282.85 -118.4 Q281.7 -119.1 281.7 -117.75 L281.95 -117.15 Q282.4 -116.4 283.1 -116.4 283.95 -116.4 283.95 -117.15 283.95 -117.7 282.85 -118.4 M277.35 -113.8 L278.05 -115.1 Q280.85 -119.8 284.25 -119.8 287.05 -119.8 287.75 -118.8 L287.95 -117.35 287.45 -115.5 287.35 -115.15 Q285.8 -115.9 281.6 -115.05 278.95 -114.5 277.35 -113.8 M291.7 -126.75 Q291.1 -127.05 290.9 -127.8 L290.85 -129.15 290.85 -129.45 291.55 -127.1 291.7 -126.75 M308.75 -128.7 L306.05 -128.7 301.75 -129.8 297.2 -128.95 Q296.6 -128.8 295.2 -127.15 L294.2 -125.9 293.55 -126.85 Q292.15 -128.65 292.15 -130.2 292.4 -131.85 293.2 -133.45 294.8 -136.55 297.6 -136.65 L298.05 -136.5 299.45 -136.35 Q301.15 -135.8 303.2 -134.15 L306.4 -131.25 308.75 -128.7 M296.55 -133.5 Q295.1 -134.4 295.1 -133.0 L297.35 -130.8 297.9 -130.9 298.05 -131.05 298.1 -131.55 Q297.95 -132.6 296.55 -133.5 M302.15 -131.45 L302.35 -131.65 302.35 -132.7 Q302.35 -133.7 301.5 -134.3 300.6 -134.9 300.6 -133.7 L300.85 -131.65 301.15 -131.4 301.6 -131.3 Q302.0 -131.3 302.15 -131.45 M286.45 -115.9 L286.95 -116.0 287.15 -116.15 287.2 -116.95 Q287.2 -117.85 286.35 -117.95 285.45 -118.05 285.45 -117.2 L285.65 -116.6 Q286.0 -115.9 286.45 -115.9 M288.1 -91.6 L287.75 -91.65 Q286.3 -91.85 285.85 -92.15 L284.6 -92.9 Q284.1 -94.05 285.4 -96.6 286.9 -99.7 292.1 -100.2 L292.45 -100.15 295.3 -100.3 292.7 -99.05 Q291.65 -98.55 291.0 -97.45 L289.85 -95.25 289.05 -92.85 288.75 -92.15 288.3 -91.75 288.1 -91.6 M306.95 -72.25 L306.9 -72.25 306.9 -72.3 306.95 -72.25 M303.2 -72.6 L302.1 -73.5 302.05 -73.6 303.2 -72.6 M310.45 -94.3 L310.5 -94.55 311.65 -95.05 310.45 -94.3 M306.25 -74.55 L306.0 -74.05 306.1 -73.85 Q304.7 -73.8 303.1 -75.0 301.5 -76.1 300.8 -77.25 L300.4 -78.8 300.35 -79.0 Q300.3 -80.3 300.9 -82.35 301.9 -85.6 303.5 -87.45 304.5 -88.65 309.9 -91.7 311.0 -92.25 312.05 -93.3 L312.75 -94.05 312.45 -93.5 310.5 -90.45 Q309.0 -88.6 308.45 -87.4 307.4 -85.25 306.95 -82.95 306.4 -81.35 306.3 -79.4 L306.25 -77.95 305.9 -75.4 306.25 -74.55 M306.25 -83.4 L306.05 -84.05 Q305.6 -85.15 304.15 -85.7 302.7 -86.2 303.3 -84.85 L304.15 -83.85 Q305.3 -82.75 305.7 -82.9 L306.15 -83.2 306.25 -83.4 M303.95 -78.85 L305.05 -79.1 Q305.8 -79.45 305.5 -80.15 305.2 -80.9 303.45 -80.55 301.7 -80.2 302.25 -79.0 L302.5 -78.55 302.65 -78.5 303.95 -78.85 M288.6 -98.85 Q288.75 -97.15 289.25 -96.9 289.65 -96.75 289.8 -96.75 L290.0 -96.8 290.25 -97.2 Q290.7 -98.75 289.85 -99.15 289.0 -99.7 288.6 -98.85 M288.55 -95.0 L288.45 -95.2 Q287.95 -95.8 287.2 -95.55 286.5 -95.25 286.35 -94.95 L286.65 -94.0 Q288.2 -94.15 288.4 -94.6 L288.55 -95.0 M14.3 12.25 L10.45 12.35 6.15 11.25 Q4.85 11.15 1.6 12.1 1.0 12.25 -0.4 13.9 -1.7 15.4 -1.75 15.8 L-2.5 16.6 -2.75 15.7 -2.5 14.95 -2.9 14.5 -3.0 14.5 Q-4.35 14.5 -4.7 13.25 L-4.75 11.9 Q-4.75 8.35 -2.3 5.95 0.0 3.65 2.45 4.55 7.0 4.85 9.75 7.4 11.45 8.95 11.9 10.55 L13.3 10.95 14.3 12.25 M6.0 9.75 L6.55 9.6 6.75 9.4 6.75 8.35 Q6.75 7.35 5.9 6.75 5.0 6.15 5.0 7.35 L5.25 9.4 5.55 9.65 6.0 9.75 M2.5 9.5 Q2.35 8.45 0.95 7.55 -0.5 6.65 -0.5 8.05 L1.75 10.25 2.3 10.15 2.45 10.0 2.5 9.5 M-10.6 63.45 L-10.7 63.55 Q-10.6 60.9 -12.35 59.55 L-12.5 58.5 -12.5 56.95 -12.5 55.65 -12.25 50.6 Q-12.25 47.35 -9.05 43.65 L-8.55 43.3 -7.05 43.0 -6.7 42.95 -2.05 41.9 -1.7 41.9 Q-0.2 41.9 0.9 42.95 L1.1 43.15 1.75 43.8 1.75 43.85 1.8 43.85 2.8 44.65 3.45 45.7 Q2.95 45.3 1.9 45.25 0.25 45.15 -1.7 46.2 L-2.25 46.5 Q-3.05 46.95 -5.25 48.5 -7.7 49.9 -8.5 53.6 L-9.2 56.95 -10.6 63.45 M27.75 58.2 Q26.95 58.05 26.25 57.6 26.9 56.15 26.5 55.2 L26.55 55.15 Q26.85 51.65 31.65 52.35 33.55 52.6 35.15 53.5 L36.05 54.1 36.75 55.55 36.7 55.9 36.9 56.1 37.05 56.15 38.7 59.05 34.15 57.95 27.8 58.2 27.75 58.2 M31.3 56.1 L31.5 55.9 31.5 55.3 Q31.5 54.4 30.25 53.9 29.0 53.35 29.0 54.4 29.95 56.25 30.75 56.25 L31.3 56.1 M35.0 55.4 Q35.0 54.25 34.25 54.2 33.5 54.2 33.5 55.4 33.25 56.5 34.25 56.5 L34.75 56.45 34.75 56.35 35.0 55.4 M-6.75 -230.25 Q-8.4 -230.55 -7.95 -229.25 L-5.05 -228.0 -4.55 -228.3 -4.45 -228.5 -4.6 -228.95 Q-5.05 -229.85 -6.75 -230.25 M-0.75 -230.25 L-0.7 -230.5 -1.05 -231.5 Q-1.4 -232.45 -2.4 -232.75 -3.4 -233.0 -3.0 -231.85 L-2.05 -230.0 -1.65 -229.85 -1.2 -230.0 -0.75 -230.25 M-14.8 -168.35 L-15.25 -166.6 -15.55 -166.0 -16.1 -165.35 -17.05 -164.7 -18.7 -164.4 -22.1 -164.75 Q-23.75 -165.2 -24.0 -165.5 L-24.1 -165.55 -25.85 -167.8 -26.25 -168.45 Q-28.0 -171.35 -29.0 -172.45 L-29.45 -172.95 -29.45 -173.0 Q-31.15 -174.95 -33.0 -176.5 L-30.9 -176.25 -26.55 -174.75 -24.7 -174.1 -22.0 -173.5 Q-17.5 -172.35 -16.35 -170.4 -15.9 -169.6 -16.1 -168.5 L-15.75 -168.3 -15.3 -168.2 Q-15.0 -168.2 -14.8 -168.35 M-22.15 -163.0 L-22.25 -162.95 -22.35 -163.05 -22.15 -163.0 M-20.85 -169.3 Q-20.8 -168.55 -21.1 -167.7 L-21.45 -166.6 -20.65 -165.95 Q-19.55 -166.65 -19.35 -167.25 -19.25 -167.45 -19.3 -168.5 L-19.45 -169.75 Q-19.8 -170.35 -20.85 -169.3 M-23.15 -172.45 Q-24.15 -172.45 -25.25 -171.35 L-26.15 -170.1 -26.0 -169.65 -25.9 -169.55 -25.2 -169.5 Q-22.9 -171.0 -22.95 -171.8 L-23.05 -172.3 -23.15 -172.45 M-17.1 -133.3 L-17.1 -133.35 Q-17.25 -136.15 -18.1 -138.3 L-18.45 -139.25 -19.0 -141.8 -18.85 -145.5 -18.6 -148.7 Q-18.15 -150.3 -15.35 -152.1 L-13.5 -153.5 -13.0 -153.75 -11.0 -154.25 -9.3 -153.9 -8.7 -153.75 -7.5 -153.3 -5.95 -151.55 Q-7.45 -151.5 -9.15 -150.45 L-9.7 -150.15 -12.6 -148.0 Q-14.95 -146.45 -15.6 -142.75 L-16.15 -139.35 -17.1 -133.3 M-11.8 -152.75 Q-13.35 -153.55 -13.3 -151.9 L-10.95 -150.3 Q-10.55 -150.35 -10.45 -150.5 L-10.25 -150.75 -10.25 -151.1 Q-10.25 -151.9 -11.8 -152.75 M-14.3 -146.9 Q-13.55 -147.35 -13.6 -147.7 -13.65 -148.75 -15.85 -148.35 -18.05 -147.95 -18.0 -147.1 L-18.0 -146.6 Q-17.85 -146.25 -17.2 -146.25 -15.3 -146.35 -14.3 -146.9 M-17.25 -48.8 Q-16.95 -48.5 -16.75 -48.5 L-16.2 -48.55 Q-15.65 -48.8 -15.5 -49.45 L-15.4 -49.2 -15.3 -49.0 -15.75 -48.35 -16.2 -47.8 -17.7 -46.4 -17.7 -46.35 -18.05 -46.05 Q-20.8 -43.95 -24.35 -43.6 L-25.2 -43.35 -27.2 -46.05 -28.65 -48.2 -28.95 -48.65 -32.0 -53.3 -31.9 -53.75 -35.45 -55.95 -35.9 -56.25 -36.9 -57.7 -35.95 -57.55 -33.2 -57.1 -28.95 -55.35 -27.15 -54.65 -24.45 -53.9 Q-20.0 -52.55 -18.95 -50.55 -18.5 -49.65 -18.75 -48.6 L-18.45 -48.35 -18.0 -48.25 -17.45 -48.4 -17.25 -48.6 -17.25 -48.8 M-22.1 -50.0 Q-22.4 -50.65 -23.5 -49.6 -23.5 -48.85 -23.85 -48.05 L-24.25 -46.95 -23.5 -46.25 Q-22.35 -46.9 -22.1 -47.5 L-22.0 -48.75 -22.1 -50.0 M-25.55 -52.75 L-25.65 -52.9 Q-26.65 -52.95 -27.8 -51.9 -28.75 -51.05 -28.75 -50.7 L-28.65 -50.25 -28.55 -50.15 -27.85 -50.0 Q-25.5 -51.45 -25.5 -52.25 L-25.55 -52.75 M-8.45 -34.65 L-8.75 -33.9 -10.25 -34.25 -13.1 -33.85 -13.2 -33.8 -13.8 -35.25 -14.25 -38.1 Q-14.25 -42.4 -10.5 -45.8 L-10.2 -46.05 -9.95 -46.25 -9.7 -46.25 -8.45 -46.55 Q-7.95 -46.75 -7.45 -47.05 L-6.8 -47.45 -6.0 -48.05 -6.0 -47.8 -6.0 -47.75 -6.4 -47.1 -6.45 -47.1 -6.5 -47.1 -6.55 -47.05 -6.65 -46.95 -6.85 -46.75 -6.85 -46.7 -8.75 -44.25 Q-9.4 -43.35 -9.5 -42.05 L-9.5 -39.6 -9.1 -37.05 -9.0 -36.35 -9.25 -35.75 -9.5 -35.2 -8.75 -34.5 -8.45 -34.65 M-10.05 -41.0 L-10.0 -41.5 Q-10.35 -43.0 -11.3 -43.1 -12.25 -43.15 -12.25 -42.2 -11.4 -40.75 -10.75 -40.75 L-10.2 -40.85 -10.05 -41.0 M-12.0 -38.6 L-12.5 -37.7 -11.75 -37.0 Q-10.5 -37.85 -10.5 -38.25 L-10.55 -38.75 -10.65 -38.9 Q-11.4 -39.15 -12.0 -38.6 M-16.35 23.75 Q-17.5 23.05 -17.5 24.4 L-17.25 25.0 Q-16.8 25.75 -16.1 25.75 -15.25 25.75 -15.25 25.0 -15.25 24.45 -16.35 23.75 M-23.45 29.2 L-23.25 28.9 Q-22.0 27.25 -21.95 26.0 L-20.45 24.65 -16.15 21.15 Q-13.65 20.05 -10.85 23.65 L-10.5 24.1 Q-11.2 25.75 -10.6 28.0 L-11.05 27.85 Q-11.6 25.9 -17.6 27.1 -21.95 28.0 -23.45 29.2 M-12.05 26.0 L-12.0 25.2 Q-12.0 24.3 -12.85 24.2 -13.75 24.1 -13.75 24.95 L-13.55 25.55 Q-13.2 26.25 -12.75 26.25 L-12.25 26.15 -12.05 26.0 M-2.8 45.85 L-2.75 45.5 Q-2.75 44.7 -4.25 43.8 -5.75 42.9 -5.75 44.55 L-3.5 46.25 -3.0 46.1 -2.8 45.85 M-6.25 48.75 Q-6.25 47.7 -8.5 48.0 -10.75 48.25 -10.75 49.1 L-10.75 49.6 Q-10.65 50.0 -10.0 50.0 L-7.0 49.5 Q-6.25 49.1 -6.25 48.75" fill="#009900" fill-rule="evenodd" stroke="none"/>
    <path d="M301.65 -207.9 Q301.1 -208.55 301.8 -209.1 302.5 -209.55 303.1 -208.9 L303.6 -208.25 303.55 -208.05 303.25 -207.6 Q302.9 -207.3 302.2 -207.6 L301.65 -207.9 M299.0 -205.55 L298.45 -205.85 Q297.6 -206.85 298.9 -207.05 L300.5 -206.9 Q301.0 -206.35 300.4 -205.8 299.85 -205.3 299.0 -205.55 M304.4 -207.65 L304.85 -206.6 305.35 -206.15 305.6 -206.15 305.95 -206.4 306.3 -206.75 306.3 -206.55 306.0 -206.0 305.0 -205.7 Q304.1 -205.45 303.5 -204.95 301.4 -203.1 300.0 -199.9 L299.8 -199.4 299.15 -198.95 298.3 -198.0 297.8 -200.05 Q298.55 -201.6 300.15 -203.75 302.75 -207.2 304.4 -207.65 M304.55 -203.1 Q304.8 -204.35 305.35 -204.2 L306.15 -203.55 306.75 -202.85 306.75 -202.6 306.45 -202.1 306.05 -201.85 305.65 -201.85 304.55 -203.1 M6.35 -230.0 L6.9 -229.75 7.65 -229.5 8.15 -229.5 9.15 -229.5 8.15 -228.7 7.65 -228.45 7.6 -228.45 Q4.8 -227.45 3.5 -227.35 2.2 -227.4 -0.8 -226.25 -3.85 -225.1 -4.4 -223.25 L-5.05 -221.45 -5.05 -221.5 -5.15 -221.5 -6.25 -222.3 -5.8 -223.85 Q-5.05 -225.85 -4.55 -226.25 -1.85 -228.25 -0.55 -228.6 L3.85 -229.1 6.35 -230.0 M8.35 -230.95 L9.0 -230.8 8.5 -230.9 8.35 -230.95 M1.1 -223.7 L0.55 -224.45 Q0.0 -225.95 1.55 -225.6 2.85 -224.85 3.05 -224.1 L3.2 -223.65 3.1 -223.45 2.65 -223.1 Q1.95 -222.85 1.1 -223.7 M5.45 -194.95 L5.15 -193.9 5.25 -193.2 5.45 -193.05 5.9 -193.0 6.4 -193.1 6.2 -192.9 5.65 -192.7 4.75 -193.05 3.0 -193.45 Q0.2 -193.3 -2.85 -191.7 L-3.35 -191.45 -4.1 -191.5 -5.4 -191.3 -4.5 -193.15 -0.3 -194.6 5.45 -194.95 M5.2 -195.95 L5.0 -195.8 4.5 -195.65 Q4.05 -195.65 3.7 -196.35 L3.45 -196.9 Q3.4 -197.75 4.3 -197.7 5.15 -197.65 5.2 -196.75 L5.2 -195.95 M1.15 -196.0 Q0.45 -195.95 -0.05 -196.7 L-0.35 -197.3 Q-0.4 -198.65 0.8 -198.0 1.95 -197.35 1.95 -196.8 2.0 -196.05 1.15 -196.0 M2.7 -191.3 Q3.75 -192.1 4.05 -191.7 L4.25 -190.7 4.3 -189.75 4.1 -189.55 3.55 -189.35 3.1 -189.45 2.8 -189.65 2.7 -191.3 M14.55 -33.2 L14.75 -33.6 Q15.3 -34.75 15.9 -34.85 16.5 -35.0 16.5 -34.2 L16.4 -33.65 15.05 -31.45 12.6 -29.1 9.65 -27.25 6.75 -25.25 Q2.95 -21.95 1.0 -15.1 L0.8 -14.9 Q0.65 -14.75 0.25 -14.75 L-0.2 -14.85 -0.5 -15.1 -0.5 -17.0 0.8 -19.25 2.3 -21.9 3.4 -23.55 Q4.75 -25.5 6.5 -27.1 7.5 -27.95 9.6 -29.1 11.65 -30.25 12.6 -31.15 L14.55 -33.2 M3.0 -24.95 L2.95 -24.25 2.75 -24.1 2.25 -24.0 Q1.8 -24.0 1.2 -25.5 L0.75 -26.7 Q0.75 -28.2 1.9 -27.15 3.0 -26.1 3.0 -24.95 M5.25 -21.2 Q5.25 -22.25 6.8 -21.95 8.4 -21.65 9.5 -20.25 L9.45 -19.75 9.3 -19.6 8.75 -19.5 Q8.5 -19.5 6.6 -20.4 L5.65 -20.75 5.25 -21.2 M0.15 -20.75 L-1.0 -20.95 -2.3 -21.15 -2.4 -21.25 -2.5 -21.7 Q-2.5 -23.05 -0.75 -22.7 1.0 -22.3 1.0 -21.5 1.0 -20.75 0.15 -20.75 M3.75 -15.95 L2.75 -17.15 Q2.75 -18.65 4.15 -17.75 5.5 -16.85 5.5 -15.55 L5.45 -14.75 5.25 -14.6 4.75 -14.5 3.75 -15.95 M316.95 -186.85 Q316.55 -186.65 315.35 -187.7 L315.85 -188.6 316.85 -188.35 Q317.6 -187.95 317.5 -187.15 L317.35 -187.0 316.95 -186.85 M321.3 -188.9 Q321.55 -187.95 320.15 -187.25 L319.65 -187.15 319.5 -187.25 319.25 -187.75 Q319.05 -188.4 320.25 -189.6 321.15 -189.9 321.3 -188.9 M314.55 -185.05 L314.8 -184.95 Q315.15 -184.8 315.45 -184.95 L316.1 -185.2 318.45 -186.3 320.8 -186.9 323.1 -186.75 325.85 -185.65 326.3 -185.2 325.0 -184.95 324.05 -184.55 Q322.95 -185.15 322.25 -185.25 L319.1 -184.85 316.55 -183.7 316.15 -183.5 315.15 -183.25 315.15 -183.3 315.35 -183.5 315.25 -184.2 314.55 -185.05 M320.85 -181.9 L320.25 -181.35 320.2 -181.3 Q319.9 -181.2 319.5 -181.5 319.15 -181.7 318.95 -182.2 L318.9 -183.05 318.95 -183.15 319.4 -183.4 Q319.85 -183.55 320.3 -183.1 320.85 -182.75 320.85 -181.9 M303.8 -181.55 L303.45 -180.0 303.2 -177.0 303.15 -174.75 303.35 -172.9 303.65 -170.1 Q303.9 -166.1 303.55 -164.35 303.15 -162.55 301.55 -161.7 L300.9 -161.4 300.55 -161.25 299.4 -161.1 299.2 -161.5 299.1 -161.95 299.2 -162.35 Q300.3 -162.45 300.95 -163.2 302.45 -164.9 302.15 -169.55 L301.85 -172.3 301.85 -174.25 302.0 -178.85 Q302.15 -181.8 302.4 -183.2 L302.65 -184.25 302.7 -184.35 302.85 -184.55 303.0 -184.6 Q303.25 -183.2 303.8 -181.55 M308.3 -168.85 L307.05 -168.0 305.8 -167.5 305.55 -167.7 305.15 -168.2 305.05 -168.9 305.1 -169.0 305.5 -169.3 308.1 -169.5 308.3 -168.85 M315.2 -181.7 Q315.55 -182.55 315.75 -182.6 316.8 -182.9 316.75 -181.45 316.7 -180.05 316.05 -179.9 315.3 -179.65 315.05 -180.45 L315.2 -181.7 M300.75 -170.3 L300.7 -170.15 300.2 -169.9 Q299.45 -169.6 297.25 -171.3 L297.15 -172.0 297.2 -172.15 297.6 -172.4 299.1 -171.9 Q300.45 -171.25 300.75 -170.3 M297.0 -165.05 Q296.35 -165.1 295.3 -165.9 L295.7 -166.85 296.9 -166.9 298.45 -167.1 Q299.8 -166.45 299.3 -165.95 299.2 -165.75 298.2 -165.4 L297.0 -165.05 M303.55 -162.65 L304.15 -163.15 305.3 -161.9 305.6 -161.6 306.3 -160.7 306.6 -159.95 306.5 -159.8 306.05 -159.55 Q305.5 -159.35 304.65 -160.05 L304.5 -160.3 303.55 -161.25 303.45 -161.55 Q303.2 -162.15 303.55 -162.65 M282.85 -118.4 Q283.95 -117.7 283.95 -117.15 283.95 -116.4 283.1 -116.4 282.4 -116.4 281.95 -117.15 L281.7 -117.75 Q281.7 -119.1 282.85 -118.4 M278.4 -112.05 L277.65 -112.15 276.35 -112.0 277.35 -113.8 Q278.95 -114.5 281.6 -115.05 285.8 -115.9 287.35 -115.15 L287.0 -114.1 287.05 -113.4 287.25 -113.25 287.7 -113.15 288.2 -113.25 288.0 -113.05 287.45 -112.9 286.55 -113.3 284.85 -113.75 Q282.05 -113.75 278.9 -112.3 L278.4 -112.05 M311.0 -128.85 L311.55 -128.45 311.1 -128.75 311.0 -128.85 M294.2 -125.9 L295.2 -127.15 Q296.6 -128.8 297.2 -128.95 L301.75 -129.8 306.05 -128.7 308.75 -128.7 309.15 -128.25 Q309.7 -127.75 310.2 -127.6 L311.15 -127.2 309.9 -126.8 309.35 -126.8 305.15 -127.25 300.7 -127.7 Q297.45 -127.7 296.3 -126.1 L295.05 -124.65 295.0 -124.75 294.9 -124.75 294.2 -125.9 M302.15 -131.45 Q302.0 -131.3 301.6 -131.3 L301.15 -131.4 300.85 -131.65 300.6 -133.7 Q300.6 -134.9 301.5 -134.3 302.35 -133.7 302.35 -132.7 L302.35 -131.65 302.15 -131.45 M296.55 -133.5 Q297.95 -132.6 298.1 -131.55 L298.05 -131.05 297.9 -130.9 297.35 -130.8 295.1 -133.0 Q295.1 -134.4 296.55 -133.5 M299.6 -124.75 L299.5 -123.3 Q299.2 -122.45 297.85 -121.8 L297.1 -122.5 297.6 -123.7 Q298.1 -124.65 298.1 -125.55 299.2 -126.75 299.5 -126.05 L299.6 -124.75 M303.55 -123.8 L303.4 -123.65 302.85 -123.55 Q302.05 -123.55 301.6 -124.6 L301.35 -125.55 Q301.35 -127.1 302.7 -126.3 303.6 -125.05 303.6 -124.3 L303.55 -123.8 M286.45 -115.9 Q286.0 -115.9 285.65 -116.6 L285.45 -117.2 Q285.45 -118.05 286.35 -117.95 287.2 -117.85 287.2 -116.95 L287.15 -116.15 286.95 -116.0 286.45 -115.9 M285.8 -111.95 L285.95 -110.95 285.95 -110.0 285.75 -109.8 285.2 -109.65 284.75 -109.75 284.45 -110.0 284.45 -111.65 Q285.5 -112.4 285.8 -111.95 M288.1 -91.6 L288.3 -91.75 288.75 -92.15 289.05 -92.85 289.85 -95.25 291.0 -97.45 Q291.65 -98.55 292.7 -99.05 L295.3 -100.3 296.0 -100.3 295.3 -99.2 294.9 -98.2 Q293.8 -97.85 293.25 -97.4 292.25 -96.75 291.3 -94.85 L290.45 -92.15 290.25 -91.7 289.8 -90.8 289.8 -90.85 289.7 -91.15 289.15 -91.5 288.1 -91.6 M294.65 -94.05 L294.7 -93.2 294.7 -93.15 294.1 -92.8 293.15 -92.9 292.45 -93.45 292.45 -93.55 292.55 -94.05 Q292.8 -94.45 293.45 -94.5 294.05 -94.6 294.65 -94.05 M312.75 -94.05 L313.2 -94.55 314.95 -97.05 314.65 -94.8 314.6 -94.75 Q314.0 -92.8 313.25 -91.65 L311.3 -88.8 309.35 -85.8 Q307.15 -81.3 308.0 -74.25 L307.9 -73.95 307.65 -73.7 307.65 -73.75 307.7 -74.25 Q307.6 -74.55 306.65 -74.85 L306.25 -74.55 305.9 -75.4 306.25 -77.95 306.55 -81.0 306.95 -82.95 Q307.4 -85.25 308.45 -87.4 309.0 -88.6 310.5 -90.45 L312.45 -93.5 312.75 -94.05 M310.1 -81.25 Q309.7 -81.3 309.6 -81.5 309.15 -82.5 310.7 -82.8 312.3 -83.15 313.85 -82.3 L314.0 -81.8 313.9 -81.6 313.45 -81.3 311.15 -81.3 310.1 -81.25 M306.25 -83.4 L306.15 -83.2 305.7 -82.9 Q305.3 -82.75 304.15 -83.85 L303.3 -84.85 Q302.7 -86.2 304.15 -85.7 305.6 -85.15 306.05 -84.05 L306.25 -83.4 M303.95 -78.85 L302.65 -78.5 302.5 -78.55 302.25 -79.0 Q301.7 -80.2 303.45 -80.55 305.2 -80.9 305.5 -80.15 305.8 -79.45 305.05 -79.1 L303.95 -78.85 M310.2 -76.1 L308.85 -76.8 Q308.25 -78.15 309.85 -77.9 311.45 -77.6 311.95 -76.4 L312.25 -75.65 312.15 -75.45 311.7 -75.15 310.2 -76.1 M288.6 -98.85 Q289.0 -99.7 289.85 -99.15 290.7 -98.75 290.25 -97.2 L290.0 -96.8 289.8 -96.75 Q289.65 -96.75 289.25 -96.9 288.75 -97.15 288.6 -98.85 M288.55 -95.0 L288.4 -94.6 Q288.2 -94.15 286.65 -94.0 L286.35 -94.95 Q286.5 -95.25 287.2 -95.55 287.95 -95.8 288.45 -95.2 L288.55 -95.0 M290.65 -90.8 L292.2 -90.75 Q293.2 -89.7 292.9 -89.2 292.55 -88.5 291.8 -88.8 L291.0 -89.8 290.65 -90.8 M14.3 12.25 L15.1 12.2 Q16.0 12.1 16.0 13.05 16.0 13.6 15.65 13.85 L15.45 14.0 13.75 14.25 9.55 13.8 5.1 13.35 Q1.85 13.35 0.7 14.95 -0.45 16.5 -0.85 16.5 L-1.55 16.35 -1.65 16.25 -1.75 15.8 Q-1.7 15.4 -0.4 13.9 1.0 12.25 1.6 12.1 4.85 11.15 6.15 11.25 L10.45 12.35 14.3 12.25 M2.5 9.5 L2.45 10.0 2.3 10.15 1.75 10.25 -0.5 8.05 Q-0.5 6.65 0.95 7.55 2.35 8.45 2.5 9.5 M6.0 9.75 L5.55 9.65 5.25 9.4 5.0 7.35 Q5.0 6.15 5.9 6.75 6.75 7.35 6.75 8.35 L6.75 9.4 6.55 9.6 6.0 9.75 M7.95 17.25 L7.8 17.4 7.25 17.5 Q6.45 17.5 6.0 16.45 L5.75 15.5 Q5.75 13.95 7.1 14.75 8.0 16.0 8.0 16.75 L7.95 17.25 M3.9 15.0 L4.0 16.3 3.9 17.75 Q3.6 18.6 2.25 19.25 L1.5 18.55 2.0 17.35 Q2.5 16.4 2.5 15.5 3.6 14.3 3.9 15.0 M-10.6 63.45 L-9.2 56.95 -8.5 53.6 Q-7.7 49.9 -5.25 48.5 -3.05 46.95 -2.25 46.5 L-1.7 46.2 Q0.25 45.15 1.9 45.25 2.95 45.3 3.45 45.7 L3.6 45.9 3.75 46.5 Q3.75 46.95 2.9 46.95 L-0.5 47.5 -1.7 48.05 -2.25 48.35 -4.9 50.15 Q-6.25 51.25 -6.65 52.65 L-7.25 55.25 -7.65 56.95 -8.6 61.25 -8.75 61.95 Q-9.4 65.0 -10.0 65.0 -10.65 65.0 -10.75 64.6 L-10.75 64.1 -10.6 63.45 M38.7 59.05 Q41.05 59.8 41.5 60.65 L41.3 61.3 40.25 61.5 36.8 60.3 Q33.5 59.1 31.0 59.1 30.65 59.1 29.7 59.45 L28.4 59.75 27.7 59.6 27.6 59.5 27.5 59.05 27.7 58.35 27.8 58.2 34.15 57.95 38.7 59.05 M35.0 55.4 L34.75 56.35 34.75 56.45 34.25 56.5 Q33.25 56.5 33.5 55.4 33.5 54.2 34.25 54.2 35.0 54.25 35.0 55.4 M31.3 56.1 L30.75 56.25 Q29.95 56.25 29.0 54.4 29.0 53.35 30.25 53.9 31.5 54.4 31.5 55.3 L31.5 55.9 31.3 56.1 M30.25 61.3 L29.9 62.25 29.15 62.75 28.45 62.6 28.35 62.5 28.25 62.05 Q28.25 61.3 29.25 60.75 30.25 60.2 30.25 61.3 M0.3 50.85 Q-1.5 49.95 -1.5 49.65 -1.5 48.65 0.75 49.3 3.0 50.0 3.25 51.0 L3.2 51.5 3.05 51.65 2.5 51.75 0.3 50.85 M-0.75 -230.25 L-1.2 -230.0 -1.65 -229.85 -2.05 -230.0 -3.0 -231.85 Q-3.4 -233.0 -2.4 -232.75 -1.4 -232.45 -1.05 -231.5 L-0.7 -230.5 -0.75 -230.25 M-6.75 -230.25 Q-5.05 -229.85 -4.6 -228.95 L-4.45 -228.5 -4.55 -228.3 -5.05 -228.0 -7.95 -229.25 Q-8.4 -230.55 -6.75 -230.25 M-1.35 -224.35 L-0.8 -223.1 -0.4 -221.7 Q-0.4 -220.8 -1.4 -219.75 L-2.35 -220.1 -2.3 -221.4 Q-2.15 -222.5 -2.45 -223.3 -1.9 -224.85 -1.35 -224.35 M-19.4 -179.15 Q-19.05 -178.8 -19.0 -177.7 L-18.9 -176.35 -19.15 -176.15 Q-19.4 -175.95 -19.75 -175.95 L-20.45 -176.05 -20.55 -176.15 -20.7 -176.6 Q-20.8 -178.7 -20.15 -179.15 L-19.4 -179.15 M-32.9 -178.9 L-31.55 -178.05 -28.75 -176.85 -26.6 -176.15 -24.8 -175.7 -22.05 -175.1 Q-18.15 -174.15 -16.65 -173.2 -15.05 -172.25 -14.7 -170.5 L-14.65 -169.85 -14.6 -169.45 -14.8 -168.35 Q-15.0 -168.2 -15.3 -168.2 L-15.75 -168.3 -16.1 -168.5 Q-15.9 -169.6 -16.35 -170.4 -17.5 -172.35 -22.0 -173.5 L-24.7 -174.1 -26.55 -174.75 -30.9 -176.25 -34.85 -177.95 -35.85 -178.65 -36.0 -178.75 -36.1 -178.9 -36.1 -179.05 -32.9 -178.9 M-11.5 -174.75 L-11.4 -174.6 -11.35 -174.1 Q-11.3 -173.5 -12.25 -172.9 L-12.5 -172.8 Q-13.2 -172.35 -13.7 -172.25 L-14.0 -172.2 Q-14.65 -172.2 -15.05 -172.75 L-15.3 -173.4 -13.8 -174.1 -13.35 -174.3 -12.3 -174.65 -11.5 -174.75 M-23.15 -172.45 L-23.05 -172.3 -22.95 -171.8 Q-22.9 -171.0 -25.2 -169.5 L-25.9 -169.55 -26.0 -169.65 -26.15 -170.1 -25.25 -171.35 Q-24.15 -172.45 -23.15 -172.45 M-20.85 -169.3 Q-19.8 -170.35 -19.45 -169.75 L-19.3 -168.5 Q-19.25 -167.45 -19.35 -167.25 -19.55 -166.65 -20.65 -165.95 L-21.45 -166.6 -21.1 -167.7 Q-20.8 -168.55 -20.85 -169.3 M-17.1 -133.3 L-16.15 -139.35 -15.6 -142.75 Q-14.95 -146.45 -12.6 -148.0 L-9.7 -150.15 -9.15 -150.45 Q-7.45 -151.5 -5.95 -151.55 L-4.7 -150.25 -4.2 -150.35 -4.2 -150.45 -3.7 -150.25 Q-3.8 -149.95 -4.5 -149.95 L-7.9 -149.2 -9.05 -148.6 -9.6 -148.3 -12.15 -146.35 Q-13.45 -145.2 -13.8 -143.75 L-14.25 -141.15 -14.6 -139.4 -15.25 -135.55 -17.05 -132.75 -17.1 -133.3 M-11.8 -152.75 Q-10.25 -151.9 -10.25 -151.1 L-10.25 -150.75 -10.45 -150.5 Q-10.55 -150.35 -10.95 -150.3 L-13.3 -151.9 Q-13.35 -153.55 -11.8 -152.75 M-4.0 -145.4 L-4.15 -145.25 -4.7 -145.1 -6.9 -145.9 Q-8.75 -146.7 -8.8 -147.0 -8.85 -148.0 -6.55 -147.45 -4.25 -146.9 -3.95 -145.9 L-4.0 -145.4 M-8.6 -142.4 L-8.75 -142.25 -9.3 -142.15 Q-9.4 -142.15 -10.7 -143.1 L-11.9 -143.95 Q-11.95 -145.15 -10.45 -144.75 -9.3 -144.4 -8.8 -143.5 L-8.6 -142.9 -8.6 -142.4 M-14.3 -146.9 Q-15.3 -146.35 -17.2 -146.25 -17.85 -146.25 -18.0 -146.6 L-18.0 -147.1 Q-18.05 -147.95 -15.85 -148.35 -13.65 -148.75 -13.6 -147.7 -13.55 -147.35 -14.3 -146.9 M-33.2 -57.1 Q-38.25 -59.3 -38.25 -59.95 -38.25 -62.05 -33.75 -58.9 L-31.05 -57.6 -28.95 -56.75 -27.15 -56.25 -24.45 -55.5 Q-20.6 -54.35 -19.1 -53.35 -17.55 -52.35 -17.3 -50.55 L-17.25 -49.85 -17.25 -48.8 -17.25 -48.6 -17.45 -48.4 -18.0 -48.25 -18.45 -48.35 -18.75 -48.6 Q-18.5 -49.65 -18.95 -50.55 -20.0 -52.55 -24.45 -53.9 L-27.15 -54.65 -28.95 -55.35 -33.2 -57.1 M-23.0 -56.95 Q-23.0 -59.4 -22.1 -59.55 -21.25 -59.65 -21.25 -57.95 L-21.25 -56.6 -21.5 -56.4 Q-21.75 -56.25 -22.1 -56.25 L-22.8 -56.4 -22.9 -56.5 -23.0 -56.95 M-25.55 -52.75 L-25.5 -52.25 Q-25.5 -51.45 -27.85 -50.0 L-28.55 -50.15 -28.65 -50.25 -28.75 -50.7 Q-28.75 -51.05 -27.8 -51.9 -26.65 -52.95 -25.65 -52.9 L-25.55 -52.75 M-22.1 -50.0 L-22.0 -48.75 -22.1 -47.5 Q-22.35 -46.9 -23.5 -46.25 L-24.25 -46.95 -23.85 -48.05 Q-23.5 -48.85 -23.5 -49.6 -22.4 -50.65 -22.1 -50.0 M-15.75 -54.3 L-14.7 -54.6 -13.9 -54.65 -13.8 -54.5 -13.75 -54.0 Q-13.75 -53.4 -14.7 -52.85 L-14.95 -52.75 Q-15.7 -52.35 -16.2 -52.25 L-16.5 -52.25 Q-17.15 -52.25 -17.5 -52.8 L-17.75 -53.5 -16.2 -54.1 -15.75 -54.3 M-8.45 -34.65 L-8.75 -34.5 -9.5 -35.2 -9.25 -35.75 -9.0 -36.35 -9.1 -37.05 -9.5 -39.6 -9.5 -42.05 Q-9.4 -43.35 -8.75 -44.25 L-6.85 -46.7 -6.65 -46.95 -6.55 -47.05 -6.5 -47.1 -6.45 -47.1 -6.4 -47.1 Q-5.8 -47.75 -5.45 -47.4 L-5.3 -47.05 -5.25 -46.3 -5.25 -46.2 Q-5.3 -45.6 -6.1 -44.8 L-7.5 -43.0 Q-8.0 -42.0 -8.0 -39.85 L-7.55 -37.05 -7.5 -36.6 -7.6 -35.4 Q-7.7 -35.1 -8.3 -34.75 L-8.45 -34.65 M-10.05 -41.0 L-10.2 -40.85 -10.75 -40.75 Q-11.4 -40.75 -12.25 -42.2 -12.25 -43.15 -11.3 -43.1 -10.35 -43.0 -10.0 -41.5 L-10.05 -41.0 M-6.4 -39.25 L-6.5 -39.7 Q-6.5 -40.2 -6.0 -40.55 L-4.4 -40.65 -4.3 -40.5 -4.25 -40.0 Q-4.25 -39.6 -4.6 -39.3 -4.95 -39.0 -5.5 -39.0 L-6.3 -39.15 -6.4 -39.25 M-12.0 -38.6 Q-11.4 -39.15 -10.65 -38.9 L-10.55 -38.75 -10.5 -38.25 Q-10.5 -37.85 -11.75 -37.0 L-12.5 -37.7 -12.0 -38.6 M-4.85 -34.75 Q-5.2 -34.75 -6.0 -35.25 L-6.75 -35.95 Q-6.75 -37.05 -5.35 -36.6 -4.0 -36.15 -4.0 -35.5 -4.0 -34.75 -4.85 -34.75 M-16.35 23.75 Q-15.25 24.45 -15.25 25.0 -15.25 25.75 -16.1 25.75 -16.8 25.75 -17.25 25.0 L-17.5 24.4 Q-17.5 23.05 -16.35 23.75 M-23.45 29.2 Q-21.95 28.0 -17.6 27.1 -11.6 25.9 -11.05 27.85 L-11.0 28.3 -11.0 28.9 -11.2 29.1 -11.75 29.25 -12.65 28.85 Q-13.55 28.4 -14.35 28.4 -17.15 28.4 -20.3 29.85 L-22.3 30.8 -23.35 31.25 -24.05 31.1 -24.15 31.0 -24.2 30.85 -24.25 30.65 -24.25 30.55 Q-24.25 29.8 -23.45 29.2 M-12.05 26.0 L-12.25 26.15 -12.75 26.25 Q-13.2 26.25 -13.55 25.55 L-13.75 24.95 Q-13.75 24.1 -12.85 24.2 -12.0 24.3 -12.0 25.2 L-12.05 26.0 M-13.4 30.2 Q-13.25 30.4 -13.25 31.2 L-13.25 32.15 -13.45 32.35 -14.0 32.5 -14.45 32.4 -14.75 32.15 -14.75 30.5 Q-13.7 29.75 -13.4 30.2 M-6.25 48.75 Q-6.25 49.1 -7.0 49.5 L-10.0 50.0 Q-10.65 50.0 -10.75 49.6 L-10.75 49.1 Q-10.75 48.25 -8.5 48.0 -6.25 47.7 -6.25 48.75 M-2.8 45.85 L-3.0 46.1 -3.5 46.25 -5.75 44.55 Q-5.75 42.9 -4.25 43.8 -2.75 44.7 -2.75 45.5 L-2.8 45.85 M-3.25 51.85 Q-2.15 52.25 -1.7 53.15 L-1.5 53.75 -1.55 54.25 -1.7 54.4 -2.25 54.5 -3.6 53.45 -4.75 52.55 Q-4.75 51.35 -3.25 51.85" fill="#006600" fill-rule="evenodd" stroke="none"/>
    <path d="M300.35 -211.7 Q302.1 -212.45 303.0 -212.05 L304.5 -210.65 305.75 -209.15 306.2 -208.25 306.6 -208.25 Q308.6 -208.15 310.0 -206.6 L311.1 -205.0 Q311.7 -203.1 309.6 -201.25 308.2 -200.05 304.65 -199.3 301.1 -198.55 300.25 -197.8 299.5 -197.15 299.25 -196.1 L298.7 -194.95 Q298.45 -194.7 298.25 -194.7 L298.0 -194.7 297.6 -195.15 Q297.35 -195.4 297.55 -196.4 L297.6 -196.6 Q296.85 -197.4 296.2 -200.9 295.55 -204.35 295.8 -205.4 L296.8 -208.7 Q297.75 -210.6 300.35 -211.7 M304.4 -207.65 L304.25 -207.95 303.4 -209.7 Q302.65 -210.55 302.3 -210.6 301.1 -210.9 299.0 -209.05 296.45 -206.8 297.5 -201.45 L297.8 -200.05 298.3 -198.0 299.15 -198.95 299.8 -199.4 Q301.15 -200.25 303.85 -200.75 307.25 -201.35 308.5 -202.45 309.3 -203.2 309.55 -203.85 L309.6 -204.55 309.4 -205.05 308.9 -205.65 Q308.35 -206.25 307.1 -206.6 L306.3 -206.75 305.95 -206.4 305.6 -206.15 305.35 -206.15 304.85 -206.6 304.4 -207.65 M8.15 -228.7 L9.15 -229.5 8.15 -229.5 7.65 -229.5 6.9 -229.75 6.35 -230.0 3.25 -231.6 Q1.35 -232.55 -0.7 -233.2 -3.25 -234.0 -5.05 -233.85 L-6.7 -233.6 -6.85 -233.55 Q-9.4 -232.45 -9.9 -229.0 -10.05 -227.2 -9.75 -225.65 -9.15 -224.15 -7.2 -222.95 L-6.25 -222.3 -5.15 -221.5 -5.05 -221.5 -5.05 -221.45 -4.95 -221.35 -4.75 -220.95 Q-4.65 -220.6 -4.7 -220.15 L-4.65 -219.35 Q-4.3 -218.45 -3.15 -217.85 -1.35 -216.9 1.1 -217.85 4.05 -218.9 6.5 -225.05 L6.85 -226.55 Q7.1 -227.6 7.65 -228.15 L7.75 -228.25 8.15 -228.7 M9.0 -230.8 L9.95 -230.9 11.1 -230.7 12.0 -229.65 12.1 -229.05 12.0 -228.9 11.6 -228.55 11.25 -228.5 10.6 -228.2 9.8 -227.8 Q9.15 -227.4 8.8 -226.8 L8.45 -226.0 7.65 -223.8 7.3 -223.1 5.4 -219.8 Q4.15 -217.95 2.9 -217.0 L1.7 -216.3 -4.25 -216.5 -4.9 -217.0 Q-5.75 -217.75 -6.1 -218.75 L-6.15 -219.0 Q-6.5 -219.9 -6.45 -220.4 L-6.85 -220.55 -8.9 -222.15 -9.2 -222.5 -10.55 -224.45 -11.1 -225.1 Q-12.15 -227.9 -10.8 -231.4 -8.95 -236.1 -2.8 -235.3 -0.75 -235.2 1.4 -234.25 L4.95 -232.45 6.7 -231.7 7.65 -231.25 8.35 -230.95 8.5 -230.9 9.0 -230.8 M0.2 -200.55 L4.8 -200.7 Q6.65 -200.2 7.15 -199.25 L7.4 -197.25 7.45 -195.3 7.25 -194.3 7.55 -194.05 Q9.05 -192.75 9.15 -190.65 L9.0 -188.7 Q8.3 -186.85 5.5 -186.7 3.65 -186.6 0.4 -188.25 -2.85 -189.95 -4.0 -189.9 -5.0 -189.85 -5.85 -189.2 -6.7 -188.6 -6.95 -188.6 L-7.5 -188.7 -7.7 -188.9 -7.7 -189.5 -6.95 -190.5 -6.8 -190.6 Q-6.85 -191.7 -5.2 -194.85 -3.55 -197.95 -2.7 -198.6 L0.2 -200.55 M5.45 -194.95 L5.55 -195.3 5.95 -197.2 Q5.9 -198.35 5.65 -198.65 4.95 -199.6 2.15 -199.45 -1.25 -199.3 -3.85 -194.45 L-4.5 -193.15 -5.4 -191.3 -4.1 -191.5 -3.35 -191.45 Q-1.75 -191.25 0.7 -189.9 3.75 -188.25 5.4 -188.35 6.5 -188.4 7.1 -188.75 L7.6 -189.3 7.7 -189.75 7.7 -190.6 Q7.65 -191.4 6.9 -192.4 L6.4 -193.1 5.9 -193.0 5.45 -193.05 5.25 -193.2 5.15 -193.9 5.45 -194.95 M0.2 -143.15 Q-1.3 -141.6 -6.0 -139.85 L-6.4 -139.65 -8.6 -138.75 Q-12.4 -137.05 -14.1 -135.0 -14.85 -134.1 -15.95 -130.9 L-15.95 -130.8 -16.45 -130.7 -17.0 -130.85 -17.0 -130.45 -17.2 -130.25 -17.7 -130.15 Q-18.55 -130.1 -18.65 -132.6 L-19.0 -136.05 -20.0 -139.15 -20.5 -141.75 -20.45 -146.0 Q-20.3 -148.75 -19.9 -149.7 L-18.35 -151.65 -16.25 -153.35 -15.85 -153.6 -13.2 -155.45 -12.6 -155.8 -11.45 -156.35 -9.8 -156.55 -9.45 -156.4 Q-8.85 -156.2 -8.7 -155.65 L-8.45 -155.55 Q-6.55 -154.8 -5.45 -153.9 -4.4 -153.0 -4.1 -152.0 L-1.85 -151.4 Q-0.8 -151.0 -0.15 -150.45 1.4 -149.25 1.45 -147.5 1.6 -144.65 0.3 -143.25 L0.2 -143.15 M323.75 -194.7 L323.85 -194.35 322.95 -194.45 323.75 -194.7 M321.4 -191.15 L324.35 -189.1 325.05 -188.45 325.2 -188.35 325.75 -187.8 326.2 -187.35 Q327.65 -185.75 327.9 -184.95 L328.1 -184.9 Q329.05 -184.6 329.15 -184.25 L329.35 -183.7 329.2 -183.4 Q329.05 -183.2 328.7 -183.1 L327.4 -183.3 326.9 -183.45 325.4 -183.35 Q324.2 -183.0 321.6 -180.4 319.7 -178.5 318.2 -177.65 L317.15 -177.3 Q314.4 -176.55 313.0 -178.05 L312.3 -179.8 Q311.75 -181.85 312.75 -183.6 L313.0 -183.85 312.55 -184.8 312.0 -186.65 Q311.5 -188.2 311.55 -188.55 311.75 -189.65 313.4 -190.75 L314.85 -191.5 Q316.5 -192.25 317.9 -192.1 L319.05 -191.8 321.4 -191.15 M325.85 -185.65 L323.8 -187.65 323.55 -187.9 Q319.7 -191.35 316.4 -190.45 313.65 -189.7 313.2 -188.45 L313.4 -187.0 314.35 -185.35 314.55 -185.05 315.25 -184.2 315.35 -183.5 315.15 -183.3 315.15 -183.25 314.75 -183.1 314.2 -183.05 313.95 -182.25 Q313.5 -181.05 313.7 -180.25 314.0 -179.35 314.25 -179.1 315.05 -178.4 316.7 -178.85 L317.75 -179.3 320.2 -181.3 320.25 -181.35 320.85 -181.9 Q322.6 -183.8 324.05 -184.55 L325.0 -184.95 326.3 -185.2 325.85 -185.65 M308.1 -169.5 L307.4 -171.55 305.85 -175.8 304.85 -178.6 303.8 -181.55 Q303.25 -183.2 303.0 -184.6 L302.85 -185.2 302.7 -184.35 302.65 -184.25 302.4 -183.2 301.55 -180.85 Q300.55 -178.3 298.95 -175.85 298.2 -174.55 295.95 -172.0 L295.45 -171.4 293.95 -169.0 293.85 -168.95 Q293.65 -168.6 293.8 -166.9 293.95 -165.0 294.5 -163.55 294.9 -162.55 295.5 -161.9 L296.25 -161.3 297.0 -161.0 297.7 -160.95 299.4 -161.1 300.55 -161.25 301.65 -161.4 301.8 -161.45 302.3 -160.95 302.35 -160.8 Q302.45 -160.4 302.15 -160.1 L302.1 -160.0 301.85 -159.65 302.35 -159.15 302.6 -158.95 302.85 -158.75 304.1 -157.45 Q304.5 -156.95 305.15 -157.2 306.4 -157.7 307.05 -158.65 L308.2 -161.4 308.35 -161.95 308.7 -163.2 309.1 -165.6 308.3 -168.85 308.1 -169.5 M292.1 -166.6 Q292.0 -168.4 292.7 -169.8 L293.3 -170.6 293.6 -171.1 297.1 -175.75 Q299.25 -178.65 300.9 -183.65 L301.95 -188.05 302.9 -187.95 303.5 -188.0 304.2 -186.4 307.5 -176.45 309.1 -172.2 309.3 -171.7 Q310.3 -167.45 310.4 -165.65 L310.45 -163.9 310.15 -162.4 310.1 -162.15 308.35 -158.0 Q307.45 -156.5 305.75 -155.85 L304.6 -155.5 303.9 -155.5 Q303.5 -155.6 303.15 -155.9 L301.2 -157.65 300.6 -158.5 300.25 -159.2 297.85 -159.05 297.75 -159.05 297.65 -159.1 Q294.3 -159.45 292.95 -162.95 292.25 -164.8 292.1 -166.35 L292.1 -166.6 M300.0 -153.35 L299.8 -153.85 300.5 -153.3 301.75 -152.3 300.55 -151.8 300.25 -152.55 300.0 -153.35 M279.4 -119.15 L282.4 -121.0 287.0 -120.9 Q288.8 -120.3 289.25 -119.35 L289.4 -117.35 289.35 -115.4 289.1 -114.4 289.4 -114.15 Q290.85 -112.75 290.85 -110.65 L290.6 -108.75 Q289.8 -106.9 287.0 -106.9 285.15 -106.9 282.0 -108.7 278.85 -110.55 277.7 -110.55 276.7 -110.55 275.8 -109.95 274.9 -109.4 274.65 -109.4 274.3 -109.4 274.15 -109.55 L273.95 -109.75 273.95 -110.35 274.75 -111.3 274.9 -111.4 Q274.9 -112.5 276.7 -115.55 278.5 -118.55 279.4 -119.15 M277.35 -113.8 L276.35 -112.0 277.65 -112.15 278.4 -112.05 Q280.0 -111.8 282.35 -110.35 285.35 -108.55 287.0 -108.55 288.1 -108.55 288.7 -108.9 L289.2 -109.4 289.35 -109.85 289.4 -110.7 Q289.4 -111.5 288.7 -112.55 L288.2 -113.25 287.7 -113.15 287.25 -113.25 287.05 -113.4 287.0 -114.1 287.35 -115.15 287.45 -115.5 287.95 -117.35 287.75 -118.8 Q287.05 -119.8 284.25 -119.8 280.85 -119.8 278.05 -115.1 L277.35 -113.8 M290.85 -129.45 L290.65 -130.2 Q290.65 -133.2 293.15 -136.0 296.55 -139.75 302.0 -136.85 303.85 -136.05 305.55 -134.35 L308.25 -131.5 309.65 -130.1 311.0 -128.85 311.1 -128.75 311.55 -128.45 312.4 -128.2 Q313.1 -128.05 313.4 -127.65 313.9 -126.95 313.9 -126.35 L313.85 -125.75 313.7 -125.6 313.15 -125.5 312.8 -125.55 312.1 -125.5 311.25 -125.4 Q310.4 -125.25 309.85 -124.85 L309.25 -124.25 307.15 -121.85 304.2 -119.45 Q301.5 -117.5 299.55 -117.5 295.75 -117.5 294.1 -119.75 293.15 -121.1 293.15 -122.5 L293.15 -122.75 293.35 -124.25 293.1 -124.45 Q292.35 -125.1 291.7 -126.75 L291.55 -127.1 290.85 -129.45 M308.75 -128.7 L306.4 -131.25 303.2 -134.15 Q301.15 -135.8 299.45 -136.35 L297.75 -136.65 297.6 -136.65 Q294.8 -136.55 293.2 -133.45 292.4 -131.85 292.15 -130.2 292.15 -128.65 293.55 -126.85 L294.2 -125.9 294.9 -124.75 295.0 -124.75 295.05 -124.65 295.1 -124.55 295.15 -124.1 294.9 -123.35 294.65 -122.6 294.65 -122.55 294.7 -122.2 Q294.8 -121.45 295.55 -120.65 296.9 -119.15 299.55 -119.15 302.7 -119.15 307.1 -124.0 L308.0 -125.3 Q308.7 -126.25 309.4 -126.6 L309.9 -126.8 311.15 -127.2 310.2 -127.6 Q309.7 -127.75 309.15 -128.25 L308.75 -128.7 M288.25 -100.75 Q289.1 -101.25 291.8 -101.5 L292.75 -101.6 292.9 -101.7 293.65 -101.65 294.3 -101.7 297.25 -101.35 297.45 -101.4 Q298.3 -101.9 298.6 -101.75 L299.15 -101.5 299.3 -101.2 299.15 -100.65 298.15 -99.85 297.65 -99.6 296.65 -98.4 Q296.2 -97.3 296.3 -93.6 296.35 -90.9 295.95 -89.25 L295.55 -88.2 Q294.2 -85.65 292.2 -85.7 L290.4 -86.35 Q288.5 -87.3 287.95 -89.3 L287.9 -89.7 286.9 -89.95 285.15 -90.8 Q283.7 -91.5 283.45 -91.8 282.8 -92.65 283.1 -94.6 L283.5 -96.25 Q284.1 -97.95 285.15 -98.85 L286.2 -99.5 Q287.5 -100.25 288.25 -100.75 M287.65 -104.75 L286.9 -104.15 287.3 -104.9 287.65 -104.75 M295.3 -100.3 L292.45 -100.15 292.1 -100.2 Q286.9 -99.7 285.4 -96.6 284.1 -94.05 284.6 -92.9 L285.85 -92.15 Q286.3 -91.85 287.75 -91.65 L288.1 -91.6 289.15 -91.5 289.7 -91.15 289.8 -90.85 289.8 -90.8 289.65 -90.4 289.3 -90.0 289.75 -89.25 Q290.3 -88.15 291.05 -87.7 L292.25 -87.3 Q293.3 -87.4 294.1 -88.95 L294.45 -90.05 Q294.75 -91.25 294.7 -93.15 L294.7 -93.2 294.65 -94.05 Q294.45 -96.65 294.9 -98.2 L295.3 -99.2 296.0 -100.3 295.3 -100.3 M311.65 -95.05 L311.85 -95.25 313.7 -98.15 Q314.95 -100.0 316.05 -100.4 L316.2 -100.3 316.35 -100.05 317.0 -99.2 316.6 -96.85 Q316.05 -94.25 316.1 -92.15 L316.85 -85.65 Q317.45 -77.85 316.65 -75.4 315.8 -72.75 311.8 -71.05 309.3 -70.0 307.55 -71.5 L306.95 -72.25 306.9 -72.3 306.9 -72.25 306.25 -71.95 Q304.95 -71.4 303.2 -72.6 L302.05 -73.6 301.6 -74.05 299.2 -77.2 Q298.55 -78.75 299.5 -82.15 300.35 -85.0 301.7 -87.4 302.85 -89.45 307.0 -92.1 L310.45 -94.3 311.65 -95.05 M314.65 -94.8 L314.95 -97.05 313.2 -94.55 312.75 -94.05 312.05 -93.3 Q311.0 -92.25 309.9 -91.7 304.5 -88.65 303.5 -87.45 301.9 -85.6 300.9 -82.35 300.3 -80.3 300.35 -79.0 L300.55 -77.75 300.8 -77.25 Q301.5 -76.1 303.1 -75.0 304.7 -73.8 306.1 -73.85 L306.0 -74.05 306.25 -74.55 306.65 -74.85 Q307.6 -74.55 307.7 -74.25 L307.65 -73.75 307.65 -73.7 308.6 -72.8 Q309.8 -72.0 311.2 -72.6 315.9 -74.55 315.9 -78.85 315.05 -84.2 315.25 -87.15 L315.05 -88.7 Q314.7 -89.85 314.7 -90.4 L314.5 -93.6 314.65 -94.8 M-14.6 -169.45 L-14.4 -170.5 -14.45 -170.65 Q-14.4 -170.9 -13.8 -170.95 L-13.65 -170.95 -13.0 -170.55 -12.95 -170.45 -12.75 -170.15 -12.1 -170.4 -11.75 -170.65 -11.55 -170.8 -9.9 -171.55 Q-9.3 -171.8 -9.35 -172.5 -9.4 -173.85 -10.1 -174.75 L-12.4 -176.7 -12.85 -177.0 -13.95 -177.75 -16.15 -178.9 -19.4 -179.15 -20.15 -179.15 -22.25 -179.15 -26.75 -179.05 -29.75 -178.95 -32.9 -178.9 -36.1 -179.05 -36.7 -179.15 -36.0 -178.75 -35.85 -178.65 -34.85 -177.95 -33.0 -176.5 Q-31.15 -174.95 -29.45 -173.0 L-29.45 -172.95 -29.0 -172.45 Q-28.0 -171.35 -26.25 -168.45 L-25.85 -167.8 -24.1 -165.55 -24.0 -165.5 Q-23.75 -165.2 -22.1 -164.75 L-18.7 -164.4 -17.05 -164.7 -16.1 -165.35 -15.55 -166.0 -15.25 -166.6 -14.8 -168.35 -14.6 -169.45 M-22.35 -163.05 Q-24.05 -163.55 -25.2 -164.65 L-25.8 -165.5 -26.15 -165.95 -29.5 -170.65 Q-31.55 -173.65 -35.8 -176.75 L-39.7 -179.15 Q-39.75 -179.9 -39.25 -180.05 L-39.1 -180.65 -37.35 -180.75 Q-32.05 -180.7 -26.85 -180.8 L-22.35 -180.95 -21.8 -180.95 -15.75 -180.15 -14.05 -179.65 -12.7 -178.9 -12.5 -178.7 -9.1 -175.75 Q-7.95 -174.4 -7.85 -172.6 -7.8 -171.75 -7.9 -171.4 L-8.1 -170.8 -8.75 -170.2 -11.05 -168.9 -12.05 -168.6 -12.75 -168.5 -13.4 -166.2 -13.45 -166.1 -13.5 -166.0 Q-14.9 -162.9 -18.6 -162.75 L-22.15 -163.0 -22.35 -163.05 M-7.1 -166.9 L-5.7 -167.75 -5.65 -166.45 -7.85 -166.35 -7.1 -166.9 M-5.95 -151.55 L-7.5 -153.3 -8.7 -153.75 -9.3 -153.9 -11.0 -154.25 -13.0 -153.75 -13.5 -153.5 -15.35 -152.1 Q-18.15 -150.3 -18.6 -148.7 L-18.85 -145.5 -19.0 -141.8 -18.45 -139.25 -18.1 -138.3 Q-17.25 -136.15 -17.1 -133.35 L-17.1 -133.3 -17.05 -132.75 -15.25 -135.55 -14.55 -136.35 Q-12.55 -138.55 -11.0 -139.6 L-9.45 -140.35 -8.65 -140.6 -7.6 -140.95 -4.1 -142.45 -3.9 -142.55 Q-2.75 -143.15 -2.0 -143.7 0.05 -145.25 -0.05 -147.45 -0.1 -149.2 -2.5 -149.9 L-3.7 -150.25 -4.2 -150.45 -4.2 -150.35 -4.7 -150.25 -5.95 -151.55" fill="#000000" fill-rule="evenodd" stroke="none"/>
    <path d="M7.0 -32.0 L12.7 -33.05 15.55 -34.9 Q17.4 -36.15 18.6 -36.1 L18.7 -35.95 18.75 -35.7 19.0 -34.65 17.7 -32.65 Q16.2 -30.4 15.45 -28.45 14.65 -26.35 13.6 -22.2 11.1 -14.75 9.4 -12.8 7.6 -10.7 3.25 -10.7 0.55 -10.7 -0.5 -12.75 L-0.75 -13.75 -1.5 -13.7 Q-3.55 -13.7 -5.0 -17.45 L-6.0 -21.3 Q-6.0 -22.95 -3.8 -25.7 -1.9 -28.05 0.25 -29.7 2.15 -31.15 7.0 -32.0 M1.95 -29.05 Q-0.2 -28.0 -2.4 -25.35 -4.5 -22.8 -4.5 -21.25 -4.5 -19.65 -3.25 -17.7 -2.2 -15.95 -0.95 -15.5 L-0.95 -15.7 Q-0.75 -16.15 0.0 -16.2 L0.7 -15.25 0.5 -14.8 Q0.5 -14.2 1.0 -13.5 1.8 -12.35 3.3 -12.35 8.4 -12.35 10.05 -16.3 11.35 -21.55 12.7 -24.2 L13.1 -25.7 13.45 -27.45 14.5 -30.45 16.25 -33.45 13.7 -31.85 12.15 -31.15 9.5 -30.45 Q3.35 -29.75 1.95 -29.05 M-38.1 -57.8 L-41.85 -60.4 Q-41.85 -61.15 -41.35 -61.25 L-41.2 -61.85 -39.45 -61.9 -28.95 -61.4 -24.45 -61.35 -23.9 -61.35 -17.85 -60.25 -16.2 -59.65 -14.9 -58.85 -14.7 -58.65 -11.45 -55.55 Q-10.35 -54.15 -10.35 -52.35 L-10.45 -51.15 -10.7 -50.55 -11.35 -49.95 -13.7 -48.75 -14.7 -48.5 -15.45 -48.45 -15.8 -47.05 -16.2 -46.15 -16.25 -46.05 -16.3 -45.95 Q-17.85 -42.95 -21.6 -42.95 -26.0 -42.95 -28.1 -45.2 L-28.65 -46.05 -28.95 -46.5 -32.1 -51.45 Q-34.0 -54.5 -38.1 -57.8 M-38.05 -59.7 Q-34.35 -57.05 -31.5 -53.2 -30.55 -52.05 -28.95 -49.0 L-28.6 -48.35 -26.95 -46.05 -26.85 -45.95 Q-26.6 -45.65 -25.0 -45.15 -23.15 -44.6 -21.6 -44.6 -19.4 -44.6 -18.35 -46.05 L-18.0 -46.65 -17.0 -50.55 -17.0 -50.7 -16.35 -50.95 -16.2 -50.95 Q-15.8 -50.9 -15.6 -50.55 L-15.55 -50.45 -15.35 -50.1 -14.7 -50.35 -14.35 -50.55 -14.1 -50.7 -12.45 -51.4 Q-11.85 -51.6 -11.85 -52.3 -11.85 -53.65 -12.5 -54.6 -13.05 -55.35 -14.7 -56.65 L-15.1 -56.95 -16.2 -57.75 Q-17.7 -58.85 -18.3 -59.0 L-24.45 -59.55 -28.95 -59.65 -31.95 -59.7 -38.85 -60.25 -38.05 -59.7 M-4.85 -45.5 Q-4.85 -44.3 -3.0 -41.05 -1.7 -38.7 -1.3 -37.05 L-1.2 -35.9 Q-1.2 -33.0 -3.05 -32.15 L-4.95 -31.9 Q-7.05 -31.9 -8.45 -33.4 L-8.7 -33.7 -9.7 -33.45 -11.65 -33.4 -13.65 -33.55 Q-14.6 -34.0 -15.2 -35.9 L-15.6 -37.55 Q-15.85 -39.3 -15.3 -40.65 L-14.7 -41.65 -13.45 -43.75 Q-12.95 -44.55 -10.65 -46.05 L-9.85 -46.55 -9.7 -46.65 -9.0 -47.05 -8.45 -47.35 Q-6.55 -48.4 -5.7 -48.4 L-5.6 -48.55 -4.65 -49.4 -4.05 -49.4 -3.85 -49.2 -3.7 -48.65 Q-3.7 -48.4 -4.25 -47.5 L-4.5 -47.05 -4.85 -45.5 M-9.7 -44.95 Q-14.1 -42.15 -14.1 -38.75 -14.1 -35.85 -13.1 -35.1 L-11.65 -34.9 Q-11.1 -34.9 -9.8 -35.4 L-8.4 -35.9 -7.7 -35.85 -7.55 -35.65 -7.45 -35.15 -7.55 -34.65 -6.85 -34.15 Q-5.8 -33.4 -5.0 -33.4 L-3.7 -33.6 Q-2.85 -34.15 -2.85 -35.9 L-3.0 -37.05 Q-3.4 -38.55 -4.65 -40.7 -6.45 -43.75 -6.45 -45.55 L-6.3 -46.9 -9.4 -45.15 -9.7 -44.95 M-3.45 10.85 Q-3.45 12.4 -2.05 14.2 L-0.7 16.3 -0.6 16.3 -0.5 16.5 -0.45 16.95 -0.7 17.7 -0.95 18.45 Q-0.95 19.4 -0.05 20.4 1.3 21.9 3.95 21.9 7.1 21.9 11.5 17.05 L12.4 15.75 13.8 14.45 Q14.7 14.0 15.55 13.85 L14.6 13.45 Q14.1 13.3 13.55 12.8 L10.8 9.8 7.6 6.9 Q4.45 4.4 2.15 4.4 -0.75 4.4 -2.4 7.6 -3.2 9.2 -3.45 10.85 M-2.45 5.05 Q0.95 1.3 6.4 4.2 8.25 5.0 9.95 6.7 L12.65 9.55 14.05 10.95 15.5 12.3 Q16.0 12.7 16.8 12.85 17.5 13.0 17.8 13.4 L18.3 14.7 18.25 15.3 18.1 15.45 17.55 15.55 17.2 15.5 16.5 15.55 Q14.55 15.6 13.65 16.8 L11.55 19.2 8.6 21.6 Q5.9 23.55 3.95 23.55 0.15 23.55 -1.5 21.3 -2.45 19.95 -2.45 18.55 L-2.25 16.8 Q-3.2 16.15 -4.05 13.95 L-4.95 10.85 Q-4.95 7.85 -2.45 5.05 M-11.45 23.35 Q-12.15 22.35 -14.95 22.35 -18.35 22.35 -21.15 27.05 L-22.85 30.15 -21.55 30.0 Q-19.8 30.0 -16.85 31.8 -13.85 33.6 -12.2 33.6 -10.5 33.6 -10.0 32.75 L-9.8 31.45 Q-9.8 30.65 -10.5 29.6 L-11.0 28.9 -11.5 29.0 -11.95 28.9 -12.15 28.75 -12.2 28.05 -11.75 26.65 -11.25 24.8 Q-11.25 23.65 -11.45 23.35 M-19.8 23.0 L-16.8 21.15 -12.2 21.25 Q-10.4 21.85 -9.95 22.8 -9.8 23.15 -9.8 24.8 L-9.85 26.75 -10.1 27.75 -9.8 28.0 Q-8.35 29.4 -8.35 31.5 L-8.6 33.4 Q-9.4 35.25 -12.2 35.25 -14.05 35.25 -17.2 33.45 -20.35 31.6 -21.5 31.6 -22.5 31.6 -23.4 32.2 -24.3 32.75 -24.55 32.75 L-25.05 32.6 -25.25 32.4 -25.25 31.8 Q-25.25 31.45 -24.45 30.85 L-24.3 30.75 Q-24.3 29.65 -22.5 26.6 -20.7 23.6 -19.8 23.0 M-10.85 44.55 Q-9.7 43.5 -8.65 42.95 L-8.25 42.75 -5.5 41.0 -4.9 40.7 -3.7 40.2 -2.05 40.1 -1.7 40.25 Q-1.15 40.5 -1.0 41.05 L-0.75 41.15 Q1.1 42.0 2.15 42.95 3.15 43.9 3.4 44.9 4.2 44.9 5.65 45.6 6.65 46.05 7.3 46.65 8.75 47.9 8.75 49.65 8.75 52.5 7.4 53.85 L7.3 53.95 Q5.7 55.4 0.95 56.95 L0.5 57.1 -1.7 57.9 Q-5.6 59.4 -7.4 61.4 -8.15 62.25 -9.5 65.45 L-9.5 65.55 -10.0 65.6 -10.55 65.45 -10.55 65.85 -10.75 66.0 -11.25 66.1 Q-12.1 66.1 -12.1 63.55 L-12.25 60.1 -13.1 56.95 -13.5 54.35 -13.25 50.1 Q-12.95 47.35 -12.5 46.45 L-10.85 44.55 M-3.35 42.35 L-5.4 42.75 -5.9 42.95 -7.8 44.25 Q-10.75 45.9 -11.25 47.5 L-11.65 50.7 -12.0 54.35 -11.55 56.95 -11.25 57.9 Q-10.5 60.1 -10.5 62.9 L-10.5 63.5 Q-9.9 62.2 -7.75 60.0 -5.65 57.9 -4.05 56.95 L-2.5 56.25 -1.7 56.05 Q3.1 54.65 5.1 53.3 7.25 51.85 7.25 49.65 7.25 47.9 4.9 47.05 L3.25 46.45 3.25 46.55 2.75 46.6 0.1 43.45 -1.1 42.95 -1.7 42.75 -3.35 42.35 M39.1 57.15 Q40.95 60.2 40.95 61.3 L41.1 61.4 Q41.95 62.0 41.95 62.35 L41.95 62.95 41.75 63.15 41.2 63.3 40.05 62.75 Q39.1 62.15 38.05 62.15 36.85 62.15 33.6 64.0 30.35 65.8 28.45 65.8 25.55 65.8 24.7 63.95 L24.45 62.05 Q24.45 59.95 25.95 58.55 L26.25 58.3 26.0 57.3 25.95 55.35 Q25.95 53.7 26.1 53.35 26.55 52.4 28.45 51.8 L33.2 51.7 36.3 53.55 Q37.25 54.15 39.1 57.15 M31.3 52.9 Q28.4 52.9 27.65 53.9 27.45 54.2 27.45 55.35 27.45 55.9 27.95 57.2 L28.45 58.6 28.4 59.3 28.2 59.45 27.7 59.55 27.2 59.45 26.7 60.15 Q25.95 61.2 25.95 62.0 25.95 62.95 26.15 63.3 26.7 64.15 28.45 64.15 30.15 64.15 33.25 62.35 36.3 60.55 38.1 60.55 L39.45 60.7 37.7 57.6 Q34.8 52.9 31.3 52.9" fill="#000000" fill-rule="evenodd" stroke="none"/>
  </g>
</svg>
