<?xml version="1.0" encoding="UTF-8" standalone="no"?>
<svg xmlns:ffdec="https://www.free-decompiler.com/flash" xmlns:xlink="http://www.w3.org/1999/xlink" ffdec:objectType="shape" height="63.65px" width="401.2px" xmlns="http://www.w3.org/2000/svg">
  <g transform="matrix(1.0, 0.0, 0.0, 1.0, 192.8, 33.0)">
    <path d="M-135.0 -7.05 L-135.0 10.35 -133.4 11.0 -131.45 11.25 Q-127.65 11.25 -126.0 10.2 -124.35 9.1 -123.5 7.45 -122.6 5.75 -122.6 3.85 -122.6 -0.5 -127.65 -3.65 -129.15 -4.65 -135.0 -7.05 M-121.95 -5.4 Q-117.6 -1.25 -117.6 3.8 -117.6 6.85 -119.1 9.6 -120.6 12.35 -123.2 14.05 -126.05 15.95 -131.4 15.95 L-134.35 15.6 Q-136.45 15.15 -137.55 14.4 -138.5 14.4 -139.3 13.7 -140.0 13.0 -140.0 12.0 L-139.85 6.75 -139.65 1.45 -139.8 -10.25 Q-139.8 -11.25 -138.9 -12.15 -137.95 -13.1 -136.9 -13.1 L-134.0 -12.05 -130.75 -10.55 Q-125.6 -8.9 -121.95 -5.4 M-110.5 -6.9 L-110.5 10.5 -108.9 11.15 -106.95 11.4 Q-103.15 11.4 -101.5 10.35 -99.85 9.25 -99.0 7.6 -98.1 5.9 -98.1 4.0 -98.1 -0.35 -103.15 -3.5 -104.65 -4.5 -110.5 -6.9 M-106.25 -10.4 Q-101.1 -8.75 -97.45 -5.25 -93.1 -1.1 -93.1 3.95 -93.1 7.0 -94.6 9.75 -96.1 12.5 -98.7 14.2 -101.55 16.1 -106.9 16.1 L-109.85 15.75 Q-111.95 15.3 -113.05 14.55 -114.0 14.55 -114.8 13.85 -115.5 13.15 -115.5 12.15 L-115.35 6.9 -115.15 1.6 -115.3 -10.1 Q-115.3 -11.1 -114.4 -12.0 -113.45 -12.95 -112.4 -12.95 -111.8 -12.95 -109.5 -11.9 L-106.25 -10.4 Z" fill="none" stroke="#424570" stroke-linecap="butt" stroke-linejoin="miter-clip" stroke-miterlimit="3.0" stroke-width="6.0"/>
    <path d="M-152.35 -9.75 L-147.15 13.4 -145.35 18.05 Q-144.1 21.0 -144.1 22.55 -144.1 24.6 -145.6 26.0 -147.2 27.4 -149.05 27.3 -151.9 27.15 -154.65 20.75 -156.45 16.8 -157.85 11.2 L-166.35 11.95 -174.85 12.85 Q-176.45 16.6 -180.5 24.5 -182.05 27.05 -184.8 27.05 -186.75 27.05 -188.25 25.7 -189.8 24.45 -189.8 22.35 -189.8 20.55 -184.7 10.2 -185.15 9.05 -185.1 8.15 -184.95 6.5 -181.7 5.5 -176.8 -2.9 -170.6 -12.4 -161.8 -25.75 -159.75 -25.75 -155.9 -25.75 -154.6 -21.05 L-152.35 -9.75 M-159.85 3.1 L-162.2 -8.8 -169.75 4.05 -164.8 3.5 -159.85 3.1" fill="#434670" fill-rule="evenodd" stroke="none"/>
    <path d="M-152.35 -9.75 L-147.15 13.4 -145.35 18.05 Q-144.1 21.0 -144.1 22.55 -144.1 24.6 -145.6 26.0 -147.2 27.4 -149.05 27.3 -151.9 27.15 -154.65 20.75 -156.45 16.8 -157.85 11.2 L-166.35 11.95 -174.85 12.85 Q-176.45 16.6 -180.5 24.5 -182.05 27.05 -184.8 27.05 -186.75 27.05 -188.25 25.7 -189.8 24.45 -189.8 22.35 -189.8 20.55 -184.7 10.2 -185.15 9.05 -185.1 8.15 -184.95 6.5 -181.7 5.5 -176.8 -2.9 -170.6 -12.4 -161.8 -25.75 -159.75 -25.75 -155.9 -25.75 -154.6 -21.05 L-152.35 -9.75 M-159.85 3.1 L-162.2 -8.8 -169.75 4.05 -164.8 3.5 -159.85 3.1 Z" fill="none" stroke="#424570" stroke-linecap="butt" stroke-linejoin="miter-clip" stroke-miterlimit="3.0" stroke-width="6.0"/>
    <path d="M-89.25 -11.2 Q-88.65 -11.8 -87.7 -11.9 L-82.5 -12.05 -73.9 -11.3 Q-71.8 -11.0 -71.8 -8.85 -71.8 -7.75 -72.6 -7.1 -73.3 -6.55 -74.1 -6.55 L-78.75 -7.05 -79.0 1.55 -79.0 9.45 -74.25 9.4 Q-73.2 9.4 -72.5 10.1 -71.8 10.8 -71.8 11.8 -71.8 12.75 -72.5 13.45 -73.2 14.15 -74.3 14.15 L-80.35 14.25 -83.9 14.55 -87.45 14.85 Q-88.55 14.85 -89.25 14.15 -89.95 13.45 -89.95 12.5 -89.95 11.5 -89.2 10.8 -88.4 10.1 -87.3 10.1 L-83.95 9.85 -84.0 1.9 Q-84.0 -3.2 -83.65 -7.25 L-87.45 -7.15 Q-88.55 -7.15 -89.2 -7.8 -89.95 -8.45 -89.95 -9.5 -89.95 -10.5 -89.25 -11.2" fill="#434670" fill-rule="evenodd" stroke="none"/>
    <path d="M-73.9 -11.3 Q-71.8 -11.0 -71.8 -8.85 -71.8 -7.75 -72.6 -7.1 -73.3 -6.55 -74.1 -6.55 L-78.75 -7.05 -79.0 1.55 -79.0 9.45 -74.25 9.4 Q-73.2 9.4 -72.5 10.1 -71.8 10.8 -71.8 11.8 -71.8 12.75 -72.5 13.45 -73.2 14.15 -74.3 14.15 L-80.35 14.25 -83.9 14.55 -87.45 14.85 Q-88.55 14.85 -89.25 14.15 -89.95 13.45 -89.95 12.5 -89.95 11.5 -89.2 10.8 -88.4 10.1 -87.3 10.1 L-83.95 9.85 -84.0 1.9 Q-84.0 -3.2 -83.65 -7.25 L-87.45 -7.15 Q-88.55 -7.15 -89.2 -7.8 -89.95 -8.45 -89.95 -9.5 -89.95 -10.5 -89.25 -11.2 -88.65 -11.8 -87.7 -11.9 L-82.5 -12.05 -73.9 -11.3 Z" fill="none" stroke="#424570" stroke-linecap="butt" stroke-linejoin="miter-clip" stroke-miterlimit="3.0" stroke-width="6.0"/>
    <path d="M-49.35 -10.5 Q-49.05 -9.0 -49.05 -7.05 -49.05 -6.1 -49.55 -5.45 -50.2 -4.5 -51.45 -4.5 -53.05 -4.5 -53.8 -6.15 L-54.5 -7.1 -55.9 -7.25 Q-58.15 -7.25 -61.0 -3.8 -65.1 0.95 -65.1 5.25 -65.1 7.1 -63.8 8.5 -62.55 9.9 -60.7 9.9 -58.95 9.9 -57.2 8.95 L-54.5 7.25 Q-53.15 6.35 -52.45 6.35 -51.4 6.35 -50.65 7.1 -49.95 7.9 -49.95 8.75 -49.95 9.8 -50.9 10.55 -55.65 14.65 -60.7 14.65 -64.7 14.65 -67.4 11.75 -70.0 9.0 -70.0 5.25 -70.0 -0.7 -64.85 -6.8 -60.5 -12.0 -55.9 -12.0 L-53.4 -11.8 Q-52.65 -12.55 -51.55 -12.55 -49.75 -12.55 -49.35 -10.5" fill="#434670" fill-rule="evenodd" stroke="none"/>
    <path d="M-49.35 -10.5 Q-49.05 -9.0 -49.05 -7.05 -49.05 -6.1 -49.55 -5.45 -50.2 -4.5 -51.45 -4.5 -53.05 -4.5 -53.8 -6.15 L-54.5 -7.1 -55.9 -7.25 Q-58.15 -7.25 -61.0 -3.8 -65.1 0.95 -65.1 5.25 -65.1 7.1 -63.8 8.5 -62.55 9.9 -60.7 9.9 -58.95 9.9 -57.2 8.95 L-54.5 7.25 Q-53.15 6.35 -52.45 6.35 -51.4 6.35 -50.65 7.1 -49.95 7.9 -49.95 8.75 -49.95 9.8 -50.9 10.55 -55.65 14.65 -60.7 14.65 -64.7 14.65 -67.4 11.75 -70.0 9.0 -70.0 5.25 -70.0 -0.7 -64.85 -6.8 -60.5 -12.0 -55.9 -12.0 L-53.4 -11.8 Q-52.65 -12.55 -51.55 -12.55 -49.75 -12.55 -49.35 -10.5 Z" fill="none" stroke="#424570" stroke-linecap="butt" stroke-linejoin="miter-clip" stroke-miterlimit="3.0" stroke-width="6.0"/>
    <path d="M-40.25 -11.9 L-33.85 -12.0 -29.85 -11.8 -25.85 -11.6 Q-24.75 -11.6 -24.05 -10.95 -23.35 -10.15 -23.35 -9.25 -23.35 -8.25 -24.05 -7.55 -24.85 -6.85 -25.85 -6.85 L-30.1 -7.05 -34.35 -7.2 -33.9 -0.1 Q-33.55 4.15 -33.55 7.1 L-33.4 8.85 -33.3 10.65 Q-33.3 12.05 -33.85 13.0 -34.5 14.35 -35.9 14.35 -36.85 14.35 -37.6 13.75 -38.45 13.05 -38.45 12.05 L-38.25 10.5 -38.5 5.6 Q-38.5 2.95 -38.85 -0.75 L-39.35 -7.15 -40.25 -7.15 -46.5 -7.7 Q-48.45 -8.2 -48.45 -10.0 -48.45 -10.85 -47.8 -11.65 -47.05 -12.45 -45.85 -12.4 L-43.05 -12.1 -40.25 -11.9" fill="#434670" fill-rule="evenodd" stroke="none"/>
    <path d="M-40.25 -11.9 L-33.85 -12.0 -29.85 -11.8 -25.85 -11.6 Q-24.75 -11.6 -24.05 -10.95 -23.35 -10.15 -23.35 -9.25 -23.35 -8.25 -24.05 -7.55 -24.85 -6.85 -25.85 -6.85 L-30.1 -7.05 -34.35 -7.2 -33.9 -0.1 Q-33.55 4.15 -33.55 7.1 L-33.4 8.85 -33.3 10.65 Q-33.3 12.05 -33.85 13.0 -34.5 14.35 -35.9 14.35 -36.85 14.35 -37.6 13.75 -38.45 13.05 -38.45 12.05 L-38.25 10.5 -38.5 5.6 Q-38.5 2.95 -38.85 -0.75 L-39.35 -7.15 -40.25 -7.15 -46.5 -7.7 Q-48.45 -8.2 -48.45 -10.0 -48.45 -10.85 -47.8 -11.65 -47.05 -12.45 -45.85 -12.4 L-43.05 -12.1 -40.25 -11.9 Z" fill="none" stroke="#424570" stroke-linecap="butt" stroke-linejoin="miter-clip" stroke-miterlimit="3.0" stroke-width="6.0"/>
    <path d="M-15.5 -12.05 L-6.9 -11.3 Q-4.8 -11.0 -4.8 -8.85 -4.8 -7.75 -5.6 -7.1 -6.3 -6.55 -7.1 -6.55 L-11.75 -7.05 -12.0 1.55 -12.0 9.45 -7.25 9.4 Q-6.2 9.4 -5.5 10.1 -4.8 10.8 -4.8 11.8 -4.8 12.75 -5.5 13.45 -6.2 14.15 -7.3 14.15 L-13.35 14.25 -16.9 14.55 -20.45 14.85 Q-21.55 14.85 -22.25 14.15 -22.95 13.45 -22.95 12.5 -22.95 11.5 -22.2 10.8 -21.4 10.1 -20.35 10.1 L-16.95 9.85 -17.0 1.9 Q-17.0 -3.2 -16.65 -7.25 L-20.45 -7.15 Q-21.55 -7.15 -22.25 -7.8 -22.95 -8.5 -22.95 -9.5 -22.95 -10.5 -22.25 -11.2 -21.6 -11.85 -20.7 -11.9 L-15.5 -12.05" fill="#434670" fill-rule="evenodd" stroke="none"/>
    <path d="M-15.5 -12.05 L-6.9 -11.3 Q-4.8 -11.0 -4.8 -8.85 -4.8 -7.75 -5.6 -7.1 -6.3 -6.55 -7.1 -6.55 L-11.75 -7.05 -12.0 1.55 -12.0 9.45 -7.25 9.4 Q-6.2 9.4 -5.5 10.1 -4.8 10.8 -4.8 11.8 -4.8 12.75 -5.5 13.45 -6.2 14.15 -7.3 14.15 L-13.35 14.25 -16.9 14.55 -20.45 14.85 Q-21.55 14.85 -22.25 14.15 -22.95 13.45 -22.95 12.5 -22.95 11.5 -22.2 10.8 -21.4 10.1 -20.35 10.1 L-16.95 9.85 -17.0 1.9 Q-17.0 -3.2 -16.65 -7.25 L-20.45 -7.15 Q-21.55 -7.15 -22.25 -7.8 -22.95 -8.5 -22.95 -9.5 -22.95 -10.5 -22.25 -11.2 -21.6 -11.85 -20.7 -11.9 L-15.5 -12.05 Z" fill="none" stroke="#424570" stroke-linecap="butt" stroke-linejoin="miter-clip" stroke-miterlimit="3.0" stroke-width="6.0"/>
    <path d="M-2.45 -10.35 Q-2.45 -11.35 -1.55 -12.2 -0.55 -13.05 0.55 -13.05 1.85 -13.05 3.4 -10.8 11.45 0.6 19.15 7.8 L19.2 5.1 Q19.2 -3.9 19.0 -6.55 L18.8 -8.45 18.6 -10.4 Q18.6 -12.8 21.2 -12.8 24.05 -12.8 24.05 -4.0 L23.9 9.9 23.6 12.7 Q23.25 14.95 21.05 14.95 19.8 14.95 18.25 13.55 11.4 7.4 3.0 -3.55 L3.0 10.45 Q3.0 15.6 0.45 15.6 -0.75 15.6 -1.6 14.85 -2.25 14.15 -2.25 13.1 L-2.15 11.0 -2.2 -7.2 -2.45 -10.35" fill="#434670" fill-rule="evenodd" stroke="none"/>
    <path d="M-2.45 -10.35 Q-2.45 -11.35 -1.55 -12.2 -0.55 -13.05 0.55 -13.05 1.85 -13.05 3.4 -10.8 11.45 0.6 19.15 7.8 L19.2 5.1 Q19.2 -3.9 19.0 -6.55 L18.8 -8.45 18.6 -10.4 Q18.6 -12.8 21.2 -12.8 24.05 -12.8 24.05 -4.0 L23.9 9.9 23.6 12.7 Q23.25 14.95 21.05 14.95 19.8 14.95 18.25 13.55 11.4 7.4 3.0 -3.55 L3.0 10.45 Q3.0 15.6 0.45 15.6 -0.75 15.6 -1.6 14.85 -2.25 14.15 -2.25 13.1 L-2.15 11.0 -2.2 -7.2 -2.45 -10.35 Z" fill="none" stroke="#424570" stroke-linecap="butt" stroke-linejoin="miter-clip" stroke-miterlimit="3.0" stroke-width="6.0"/>
    <path d="M34.95 -5.2 Q31.0 -0.1 31.0 5.55 31.0 8.5 31.9 9.55 32.8 10.65 35.4 10.65 38.15 10.65 40.15 9.15 42.3 7.5 43.35 4.4 39.2 4.8 36.25 6.1 L35.15 6.35 Q34.05 6.35 33.35 5.55 32.7 4.85 32.7 3.9 32.7 1.2 39.05 0.15 L47.4 -0.45 Q48.5 -0.45 49.2 0.2 49.9 0.9 49.9 1.9 49.9 3.15 48.85 3.9 47.65 9.15 44.05 12.3 40.4 15.45 35.4 15.45 30.75 15.45 28.4 12.95 26.05 10.55 26.05 5.55 26.05 1.1 28.3 -3.65 30.45 -8.3 33.95 -11.35 36.45 -13.4 39.2 -13.4 41.0 -13.4 43.85 -12.15 47.35 -10.7 47.35 -9.05 47.35 -8.1 46.6 -7.35 45.95 -6.6 44.85 -6.6 44.35 -6.6 42.5 -7.6 40.65 -8.6 39.2 -8.6 37.65 -8.6 34.95 -5.2" fill="#434670" fill-rule="evenodd" stroke="none"/>
    <path d="M34.95 -5.2 Q31.0 -0.1 31.0 5.55 31.0 8.5 31.9 9.55 32.8 10.65 35.4 10.65 38.15 10.65 40.15 9.15 42.3 7.5 43.35 4.4 39.2 4.8 36.25 6.1 L35.15 6.35 Q34.05 6.35 33.35 5.55 32.7 4.85 32.7 3.9 32.7 1.2 39.05 0.15 L47.4 -0.45 Q48.5 -0.45 49.2 0.2 49.9 0.9 49.9 1.9 49.9 3.15 48.85 3.9 47.65 9.15 44.05 12.3 40.4 15.45 35.4 15.45 30.75 15.45 28.4 12.95 26.05 10.55 26.05 5.55 26.05 1.1 28.3 -3.65 30.45 -8.3 33.95 -11.35 36.45 -13.4 39.2 -13.4 41.0 -13.4 43.85 -12.15 47.35 -10.7 47.35 -9.05 47.35 -8.1 46.6 -7.35 45.95 -6.6 44.85 -6.6 44.35 -6.6 42.5 -7.6 40.65 -8.6 39.2 -8.6 37.65 -8.6 34.95 -5.2 Z" fill="none" stroke="#424570" stroke-linecap="butt" stroke-linejoin="miter-clip" stroke-miterlimit="3.0" stroke-width="6.0"/>
    <path d="M68.85 -25.9 Q73.7 -30.0 79.3 -30.0 82.8 -30.0 88.6 -27.55 95.55 -24.65 95.55 -21.3 95.55 -19.35 94.1 -17.95 92.7 -16.45 90.55 -16.45 89.5 -16.45 85.9 -18.4 82.35 -20.4 79.3 -20.4 76.15 -20.4 70.75 -13.6 62.95 -3.7 62.95 7.9 62.95 13.75 64.65 15.9 66.45 18.1 71.7 18.1 77.0 18.1 81.2 15.05 85.5 11.8 87.6 5.6 79.35 6.3 73.35 8.95 L71.2 9.45 Q69.1 9.45 67.55 7.85 66.25 6.3 66.25 4.55 66.25 -0.85 79.0 -2.95 L95.75 -4.15 Q97.85 -4.15 99.25 -2.8 100.7 -1.4 100.7 0.6 100.7 3.15 98.6 4.55 96.2 15.0 88.95 21.35 81.6 27.65 71.7 27.65 62.35 27.65 57.7 22.7 53.0 17.7 53.0 7.9 53.0 -1.05 57.45 -10.55 61.85 -19.95 68.85 -25.9" fill="#434670" fill-rule="evenodd" stroke="none"/>
    <path d="M68.85 -25.9 Q73.7 -30.0 79.3 -30.0 82.8 -30.0 88.6 -27.55 95.55 -24.65 95.55 -21.3 95.55 -19.35 94.1 -17.95 92.7 -16.45 90.55 -16.45 89.5 -16.45 85.9 -18.4 82.35 -20.4 79.3 -20.4 76.15 -20.4 70.75 -13.6 62.95 -3.7 62.95 7.9 62.95 13.75 64.65 15.9 66.45 18.1 71.7 18.1 77.0 18.1 81.2 15.05 85.5 11.8 87.6 5.6 79.35 6.3 73.35 8.95 L71.2 9.45 Q69.1 9.45 67.55 7.85 66.25 6.3 66.25 4.55 66.25 -0.85 79.0 -2.95 L95.75 -4.15 Q97.85 -4.15 99.25 -2.8 100.7 -1.4 100.7 0.6 100.7 3.15 98.6 4.55 96.2 15.0 88.95 21.35 81.6 27.65 71.7 27.65 62.35 27.65 57.7 22.7 53.0 17.7 53.0 7.9 53.0 -1.05 57.45 -10.55 61.85 -19.95 68.85 -25.9 Z" fill="none" stroke="#424570" stroke-linecap="butt" stroke-linejoin="miter-clip" stroke-miterlimit="3.0" stroke-width="6.0"/>
    <path d="M120.9 -3.75 L123.5 7.8 124.4 10.15 Q125.05 11.6 125.05 12.4 125.05 13.45 124.3 14.1 123.5 14.8 122.55 14.75 121.15 14.65 119.75 11.5 118.8 9.25 118.15 6.7 L113.9 7.1 109.65 7.55 106.85 13.35 Q106.1 14.65 104.7 14.65 103.75 14.65 102.95 13.95 102.2 13.35 102.2 12.3 102.2 11.4 104.75 6.2 104.5 5.6 104.55 5.2 104.65 4.35 106.25 3.85 108.85 -0.6 111.8 -5.1 116.2 -11.75 117.2 -11.75 119.1 -11.75 119.8 -9.4 L120.9 -3.75 M117.15 2.65 L116.0 -3.3 112.2 3.15 114.7 2.85 117.15 2.65" fill="#434670" fill-rule="evenodd" stroke="none"/>
    <path d="M120.9 -3.75 L123.5 7.8 124.4 10.15 Q125.05 11.6 125.05 12.4 125.05 13.45 124.3 14.1 123.5 14.8 122.55 14.75 121.15 14.65 119.75 11.5 118.8 9.25 118.15 6.7 L113.9 7.1 109.65 7.55 106.85 13.35 Q106.1 14.65 104.7 14.65 103.75 14.65 102.95 13.95 102.2 13.35 102.2 12.3 102.2 11.4 104.75 6.2 104.5 5.6 104.55 5.2 104.65 4.35 106.25 3.85 108.85 -0.6 111.8 -5.1 116.2 -11.75 117.2 -11.75 119.1 -11.75 119.8 -9.4 L120.9 -3.75 M117.15 2.65 L116.0 -3.3 112.2 3.15 114.7 2.85 117.15 2.65 Z" fill="none" stroke="#424570" stroke-linecap="butt" stroke-linejoin="miter-clip" stroke-miterlimit="3.0" stroke-width="6.0"/>
    <path d="M153.1 -9.8 L153.9 -5.4 Q155.0 2.3 156.5 7.4 L158.05 13.3 Q158.05 14.35 157.2 15.05 156.5 15.7 155.5 15.7 153.55 15.7 152.65 12.95 L151.65 8.7 Q150.9 5.9 149.8 -0.4 L146.15 10.25 144.8 13.4 Q143.8 15.0 142.2 15.0 140.55 15.0 139.65 13.05 L138.7 9.8 Q137.45 5.85 136.2 0.35 L133.35 12.9 Q132.6 15.4 130.7 15.4 129.5 15.4 128.8 14.55 128.2 13.9 128.2 12.9 128.2 10.1 129.4 5.95 L131.35 -0.85 132.4 -6.25 Q133.1 -9.85 134.1 -11.25 135.0 -12.45 136.45 -12.45 138.05 -12.45 138.8 -10.85 139.45 -9.35 140.3 -4.6 141.0 -0.45 142.6 5.3 144.5 0.4 146.3 -6.2 L147.3 -10.2 Q148.3 -12.75 150.25 -12.75 152.1 -12.75 153.1 -9.8" fill="#434670" fill-rule="evenodd" stroke="none"/>
    <path d="M153.1 -9.8 L153.9 -5.4 Q155.0 2.3 156.5 7.4 L158.05 13.3 Q158.05 14.35 157.2 15.05 156.5 15.7 155.5 15.7 153.55 15.7 152.65 12.95 L151.65 8.7 Q150.9 5.9 149.8 -0.4 L146.15 10.25 144.8 13.4 Q143.8 15.0 142.2 15.0 140.55 15.0 139.65 13.05 L138.7 9.8 Q137.45 5.85 136.2 0.35 L133.35 12.9 Q132.6 15.4 130.7 15.4 129.5 15.4 128.8 14.55 128.2 13.9 128.2 12.9 128.2 10.1 129.4 5.95 L131.35 -0.85 132.4 -6.25 Q133.1 -9.85 134.1 -11.25 135.0 -12.45 136.45 -12.45 138.05 -12.45 138.8 -10.85 139.45 -9.35 140.3 -4.6 141.0 -0.45 142.6 5.3 144.5 0.4 146.3 -6.2 L147.3 -10.2 Q148.3 -12.75 150.25 -12.75 152.1 -12.75 153.1 -9.8 Z" fill="none" stroke="#424570" stroke-linecap="butt" stroke-linejoin="miter-clip" stroke-miterlimit="3.0" stroke-width="6.0"/>
    <path d="M168.45 -14.75 L171.9 -15.0 Q176.4 -15.0 179.0 -13.95 180.6 -13.35 180.6 -11.75 180.6 -10.85 180.0 -10.1 179.2 -9.3 178.2 -9.3 L177.45 -9.4 171.9 -10.2 169.1 -9.95 165.85 -9.35 165.7 -2.4 176.85 -3.4 Q177.8 -3.4 178.6 -2.7 179.35 -2.1 179.35 -1.0 179.35 1.1 177.1 1.4 L165.4 2.45 165.25 6.05 Q165.25 9.5 165.7 9.95 L167.9 10.2 174.45 10.1 176.5 9.85 Q177.6 9.85 178.25 10.45 179.1 11.15 179.1 12.3 179.1 14.25 177.05 14.65 L169.75 14.95 Q164.0 14.95 162.25 13.4 160.35 11.75 160.35 6.05 160.35 3.35 160.7 -1.05 L161.05 -8.1 160.85 -9.9 160.7 -11.75 Q160.7 -14.4 163.15 -14.4 163.95 -14.4 164.55 -13.95 L168.45 -14.75" fill="#434670" fill-rule="evenodd" stroke="none"/>
    <path d="M178.2 -7.3 L177.45 -7.4 171.9 -8.2 169.1 -7.95 165.85 -7.35 165.7 -0.4 176.85 -1.4 Q177.8 -1.4 178.6 -0.7 179.35 -0.1 179.35 1.0 179.35 3.1 177.1 3.4 L165.4 4.45 165.25 8.05 Q165.25 11.5 165.7 11.95 L167.9 12.2 174.45 12.1 176.5 11.85 Q177.6 11.85 178.25 12.45 179.1 13.15 179.1 14.3 179.1 16.25 177.05 16.65 L169.75 16.95 Q164.0 16.95 162.25 15.4 160.35 13.75 160.35 8.05 160.35 5.35 160.7 0.95 L161.05 -6.1 160.85 -7.9 160.7 -9.75 Q160.7 -12.4 163.15 -12.4 163.95 -12.4 164.55 -11.95 L168.45 -12.75 171.9 -13.0 Q176.4 -13.0 179.0 -11.95 180.6 -11.35 180.6 -9.75 180.6 -8.85 180.0 -8.1 179.2 -7.3 178.2 -7.3 Z" fill="none" stroke="#424570" stroke-linecap="butt" stroke-linejoin="miter-clip" stroke-miterlimit="3.0" stroke-width="6.0"/>
    <path d="M192.25 -1.65 L196.7 -1.4 Q200.6 -1.1 202.9 0.8 205.4 2.9 205.4 6.65 205.4 11.15 200.2 13.55 196.25 15.3 191.2 15.3 186.7 15.3 184.2 13.3 182.0 11.65 182.0 9.5 182.0 8.45 182.7 7.65 183.4 6.95 184.55 6.95 186.1 6.95 186.85 8.55 187.9 10.7 191.4 10.7 194.35 10.7 197.25 9.4 200.2 8.05 200.2 6.4 200.2 4.2 198.35 3.5 L193.15 2.9 Q190.0 2.8 187.7 1.75 184.45 0.35 184.5 -2.4 184.5 -5.8 188.15 -8.7 191.75 -11.55 196.1 -11.55 197.9 -11.55 200.35 -10.75 203.5 -9.75 203.5 -8.5 203.5 -7.55 202.85 -6.9 202.2 -6.1 201.05 -6.1 L198.55 -6.45 196.1 -6.8 Q193.9 -6.8 191.8 -5.7 189.65 -4.65 189.65 -3.35 189.65 -2.65 190.3 -2.25 191.0 -1.8 192.25 -1.65" fill="#434670" fill-rule="evenodd" stroke="none"/>
    <path d="M192.25 -1.65 L196.7 -1.4 Q200.6 -1.1 202.9 0.8 205.4 2.9 205.4 6.65 205.4 11.15 200.2 13.55 196.25 15.3 191.2 15.3 186.7 15.3 184.2 13.3 182.0 11.65 182.0 9.5 182.0 8.45 182.7 7.65 183.4 6.95 184.55 6.95 186.1 6.95 186.85 8.55 187.9 10.7 191.4 10.7 194.35 10.7 197.25 9.4 200.2 8.05 200.2 6.4 200.2 4.2 198.35 3.5 L193.15 2.9 Q190.0 2.8 187.7 1.75 184.45 0.35 184.5 -2.4 184.5 -5.8 188.15 -8.7 191.75 -11.55 196.1 -11.55 197.9 -11.55 200.35 -10.75 203.5 -9.75 203.5 -8.5 203.5 -7.55 202.85 -6.9 202.2 -6.1 201.05 -6.1 L198.55 -6.45 196.1 -6.8 Q193.9 -6.8 191.8 -5.7 189.65 -4.65 189.65 -3.35 189.65 -2.65 190.3 -2.25 191.0 -1.8 192.25 -1.65 Z" fill="none" stroke="#424570" stroke-linecap="butt" stroke-linejoin="miter-clip" stroke-miterlimit="3.0" stroke-width="6.0"/>
    <path d="M-181.85 5.7 Q-177.55 -1.75 -170.75 -12.2 -161.95 -25.55 -159.9 -25.55 -156.0 -25.55 -154.75 -20.85 L-152.55 -9.55 -147.3 13.6 -145.5 18.25 Q-144.25 21.2 -144.25 22.75 -144.25 24.8 -145.75 26.2 -147.35 27.55 -149.25 27.5 -152.05 27.35 -154.8 20.95 -156.75 16.6 -158.0 11.4 L-166.55 12.15 -175.05 13.05 Q-176.35 16.25 -180.65 24.7 -182.2 27.25 -184.95 27.25 -186.85 27.25 -188.45 25.9 -190.0 24.6 -190.0 22.55 -190.0 20.85 -184.85 10.4 -185.3 9.25 -185.25 8.35 -185.1 6.65 -181.85 5.7 M-162.35 -8.6 L-169.9 4.25 -165.0 3.7 -160.0 3.3 -162.35 -8.6" fill="#ffffff" fill-rule="evenodd" stroke="none"/>
    <path d="M69.0 -25.35 Q73.85 -29.45 79.5 -29.45 82.95 -29.45 88.75 -27.0 95.75 -24.05 95.75 -20.75 95.75 -18.9 94.3 -17.4 92.9 -15.9 90.75 -15.9 89.7 -15.9 86.1 -17.85 82.55 -19.85 79.5 -19.85 76.35 -19.85 70.95 -13.05 63.1 -3.2 63.1 8.45 63.1 14.25 64.85 16.4 66.65 18.65 71.9 18.65 77.25 18.65 81.35 15.6 85.65 12.35 87.75 6.15 79.55 6.85 73.55 9.5 72.55 10.0 71.35 10.0 69.2 10.0 67.75 8.35 66.45 6.9 66.45 5.1 66.45 -0.3 79.2 -2.4 L95.9 -3.6 Q98.05 -3.6 99.45 -2.25 100.85 -0.9 100.85 1.15 100.85 3.7 98.75 5.1 96.35 15.65 89.15 21.85 81.85 28.2 71.9 28.2 62.6 28.2 57.85 23.25 53.2 18.3 53.2 8.45 53.2 -0.65 57.65 -10.0 62.1 -19.5 69.0 -25.35" fill="#ffffff" fill-rule="evenodd" stroke="none"/>
  </g>
</svg>
