<?xml version="1.0" encoding="UTF-8" standalone="no"?>
<svg xmlns:ffdec="https://www.free-decompiler.com/flash" xmlns:xlink="http://www.w3.org/1999/xlink" ffdec:objectType="shape" height="30.15px" width="22.4px" xmlns="http://www.w3.org/2000/svg">
  <g transform="matrix(1.0, 0.0, 0.0, 1.0, 0.0, 0.0)">
    <path d="M20.9 23.75 Q19.4 26.55 16.8 28.25 13.9 30.15 8.6 30.15 L5.65 29.75 Q3.6 29.3 2.45 28.6 1.4 28.55 0.7 27.85 0.0 27.15 0.0 26.2 L0.0 25.35 0.0 25.1 0.15 19.85 0.35 15.65 0.35 14.95 0.35 14.55 0.3 9.05 0.3 8.3 0.2 3.95 0.2 3.75 0.2 2.85 Q0.2 1.85 1.1 0.95 2.05 0.0 3.1 0.0 3.7 0.0 6.0 1.05 L9.25 2.55 Q14.4 4.2 18.05 7.7 21.1 10.6 22.0 13.95 22.4 15.35 22.4 16.9 L22.4 17.45 22.4 18.0 Q22.4 19.55 22.0 21.05 21.65 22.4 20.9 23.75 M8.55 24.35 Q12.35 24.35 14.0 23.3 15.65 22.2 16.5 20.55 17.35 18.95 17.4 17.2 16.95 13.35 12.35 10.5 10.65 9.45 5.0 7.15 L5.0 23.45 Q5.6 23.85 6.6 24.1 L8.55 24.35" fill="#ffffff" fill-rule="evenodd" stroke="none"/>
  </g>
</svg>
