<?xml version="1.0" encoding="UTF-8" standalone="no"?>
<svg xmlns:ffdec="https://www.free-decompiler.com/flash" xmlns:xlink="http://www.w3.org/1999/xlink" ffdec:objectType="shape" height="28.7px" width="25.05px" xmlns="http://www.w3.org/2000/svg">
  <g transform="matrix(1.0, 0.0, 0.0, 1.0, 12.45, 14.45)">
    <path d="M0.7 -13.15 L0.65 -13.1 0.5 -13.15 0.65 -13.15 0.7 -13.15 M0.75 -12.9 L0.8 -12.95 0.8 -12.9 0.75 -12.9 M5.55 -0.95 L5.5 -1.1 5.55 -1.0 5.55 -0.95 M-10.85 -5.9 L-11.05 -6.95 -11.1 -7.1 -11.05 -7.05 -10.05 -5.8 -10.4 -6.15 -10.7 -6.05 -10.85 -5.9" fill="#cc00ff" fill-rule="evenodd" stroke="none"/>
    <path d="M0.65 -13.1 L0.7 -13.15 1.8 -12.65 Q5.7 -10.75 9.05 -8.2 L10.9 -6.7 9.1 -4.6 Q7.65 -3.25 6.55 -1.75 L4.0 -7.05 3.6 -7.85 Q4.15 -7.15 5.05 -7.05 L5.05 -7.25 5.4 -7.25 5.35 -7.75 4.6 -8.65 4.15 -9.35 3.2 -10.3 3.0 -10.6 1.65 -12.15 0.85 -12.9 0.8 -12.95 0.75 -12.9 0.65 -13.1 M7.4 -5.95 L7.4 -5.9 7.45 -5.95 7.4 -5.95 M-10.7 6.8 L-11.35 5.8 -11.2 5.0 Q-10.8 2.9 -11.45 1.45 L-11.9 0.65 -11.8 -1.0 -11.8 -1.1 -11.45 -1.35 -11.25 -1.55 -11.3 -3.1 -11.15 -4.15 -10.85 -5.45 -8.85 -2.55 Q-8.25 -1.6 -7.55 -1.2 L-7.55 -0.75 -7.15 -0.65 -7.1 -0.65 -7.15 -0.25 -6.85 -0.25 -6.8 -0.05 -7.55 1.2 -8.8 3.4 -10.7 6.8 M-9.2 0.0 L-8.9 -0.45 -9.1 -0.7 -9.15 -0.7 -9.2 0.0" fill="#494949" fill-rule="evenodd" stroke="none"/>
    <path d="M0.5 -13.15 L0.65 -13.1 0.75 -12.9 0.8 -12.9 0.85 -12.9 1.65 -12.15 3.0 -10.6 3.2 -10.3 4.15 -9.35 4.6 -8.65 5.35 -7.75 5.4 -7.25 5.05 -7.25 5.05 -7.05 Q4.15 -7.15 3.6 -7.85 L3.2 -8.3 2.6 -9.15 2.25 -9.6 Q1.75 -9.85 1.2 -10.55 0.85 -11.25 0.65 -11.9 L0.05 -12.55 -1.1 -11.35 Q-1.65 -9.6 -2.7 -7.9 L-5.1 -4.35 -5.4 -3.95 -6.4 -1.35 -6.4 -0.95 -6.6 -0.9 Q-6.65 -0.7 -6.85 -0.65 L-6.85 -0.55 -6.75 -0.6 -6.65 -0.65 -6.55 -0.65 -6.35 -0.8 -6.05 -0.95 -4.9 -0.65 1.3 -0.65 3.15 -0.5 4.3 -0.75 5.35 -0.75 5.4 -0.75 5.4 -0.8 5.5 -0.95 5.55 -0.95 5.55 -1.0 5.75 -1.05 5.75 -1.1 6.0 -0.65 6.15 -0.65 6.3 -0.65 6.65 -0.05 6.3 0.9 6.05 1.1 5.75 2.2 5.25 3.5 5.05 3.9 3.6 6.6 0.2 12.55 0.15 12.8 -0.3 13.45 -0.85 13.0 -0.75 12.8 -0.65 12.4 -1.2 11.95 -1.15 11.6 -2.2 9.95 Q-3.7 6.6 -5.5 3.4 L-6.15 2.0 -6.4 1.5 -6.8 -0.05 -6.85 -0.25 -7.15 -0.25 -7.1 -0.65 -7.15 -0.65 -7.55 -0.75 -7.55 -1.2 Q-8.25 -1.6 -8.85 -2.55 L-10.85 -5.45 -10.85 -5.5 -10.9 -5.75 -10.85 -5.85 -10.85 -5.9 -10.7 -6.05 -10.4 -6.15 -10.05 -5.8 -11.05 -7.05 -10.85 -7.2 -10.4 -7.55 -10.2 -7.65 -10.1 -7.5 -5.7 -10.1 -3.2 -11.5 -2.2 -12.2 -2.0 -12.4 Q-1.65 -12.3 -1.3 -12.6 L-0.9 -12.9 -0.75 -12.95 0.2 -13.1 0.5 -13.1 0.5 -13.15 M4.15 3.35 L3.6 4.7 4.3 3.05 4.15 3.35" fill="#5c5c5c" fill-rule="evenodd" stroke="none"/>
    <path d="M0.8 -12.95 L0.85 -12.9 0.8 -12.9 0.8 -12.95" fill="#d52bff" fill-rule="evenodd" stroke="none"/>
    <path d="M3.6 -7.85 L4.0 -7.05 6.55 -1.75 6.65 -1.3 Q6.85 -0.95 6.55 -0.65 L6.3 -0.65 6.15 -0.65 6.0 -0.65 5.75 -1.1 5.75 -1.05 5.55 -1.0 5.5 -1.1 5.55 -0.95 5.5 -0.95 5.4 -0.8 5.35 -0.75 4.3 -0.75 3.15 -0.5 1.3 -0.65 -4.9 -0.65 -6.05 -0.95 -6.35 -0.8 -6.55 -0.65 -6.65 -0.65 -6.75 -0.6 -6.85 -0.55 -6.85 -0.65 Q-6.65 -0.7 -6.6 -0.9 L-6.4 -0.95 -6.4 -1.35 -5.4 -3.95 -5.1 -4.35 -2.7 -7.9 Q-1.65 -9.6 -1.1 -11.35 L0.05 -12.55 0.65 -11.9 Q0.85 -11.25 1.2 -10.55 1.75 -9.85 2.25 -9.6 L2.6 -9.15 3.2 -8.3 3.6 -7.85 M6.65 -0.05 L7.1 0.75 7.45 1.4 9.1 3.2 11.35 6.05 11.4 6.7 Q9.3 7.85 7.15 9.15 4.45 10.7 1.6 11.85 0.65 12.2 0.15 12.8 L0.2 12.55 3.6 6.6 5.05 3.9 3.75 6.95 2.3 10.1 2.35 10.1 2.8 9.6 3.55 8.4 3.6 8.35 5.35 6.6 5.8 5.95 6.8 4.95 5.8 2.35 5.75 2.2 6.05 1.1 6.3 0.9 6.65 -0.05 M9.55 6.8 L9.5 6.8 9.45 6.9 9.45 6.95 9.55 6.8 M-0.5 -10.0 L-0.5 -10.1 -0.5 -10.0 Q-1.2 -8.3 -2.2 -6.7 L-3.25 -4.8 -3.55 -3.8 -4.55 -2.45 -5.2 -1.05 -4.6 -1.0 -2.25 -1.0 -1.75 -1.0 -1.15 -5.35 Q-0.6 -7.55 -0.5 -10.0" fill="#747474" fill-rule="evenodd" stroke="none"/>
    <path d="M6.55 -1.75 Q7.65 -3.25 9.1 -4.6 L10.9 -6.7 11.3 -6.5 11.6 -6.25 11.9 -6.2 11.9 -6.15 11.9 -5.6 Q11.3 -3.6 11.45 -1.25 11.7 2.05 11.35 5.35 L11.35 6.05 9.1 3.2 7.45 1.4 7.1 0.75 6.65 -0.05 6.3 -0.65 6.55 -0.65 Q6.85 -0.95 6.65 -1.3 L6.55 -1.75 M8.7 -0.05 L8.65 -0.05 8.7 0.15 8.7 -0.05 M-1.2 11.95 L-2.1 11.45 -8.4 8.3 -10.1 6.6 -10.5 7.1 -10.6 7.2 -10.7 6.8 -8.8 3.4 -7.55 1.2 -6.8 -0.05 -6.4 1.5 -6.15 2.0 -5.5 3.4 Q-3.7 6.6 -2.2 9.95 L-1.15 11.6 -1.2 11.95" fill="#242424" fill-rule="evenodd" stroke="none"/>
    <path d="M5.35 -0.75 L5.4 -0.8 5.4 -0.75 5.35 -0.75 M4.15 3.35 L4.3 3.05 3.6 4.7 4.15 3.35" fill="#e375ff" fill-rule="evenodd" stroke="none"/>
    <path d="M5.75 2.2 L5.8 2.35 6.8 4.95 5.8 5.95 5.35 6.6 3.6 8.35 3.55 8.4 2.8 9.6 2.35 10.1 2.3 10.1 3.75 6.95 5.05 3.9 5.25 3.5 5.75 2.2 M-0.5 -10.0 Q-0.6 -7.55 -1.15 -5.35 L-1.75 -1.0 -2.25 -1.0 -4.6 -1.0 -5.2 -1.05 -4.55 -2.45 -3.55 -3.8 -3.25 -4.8 -2.2 -6.7 Q-1.2 -8.3 -0.5 -10.0" fill="#959595" fill-rule="evenodd" stroke="none"/>
    <path d="M2.35 10.1 L2.3 10.1 2.35 10.1 M-0.5 -10.0 L-0.5 -10.1 -0.5 -10.0" fill="#e991ff" fill-rule="evenodd" stroke="none"/>
    <path d="M9.55 6.8 L9.45 6.95 9.45 6.9 9.5 6.8 9.55 6.8 M-9.2 0.0 L-9.15 -0.7 -9.1 -0.7 -8.9 -0.45 -9.2 0.0" fill="#aa00d5" fill-rule="evenodd" stroke="none"/>
    <path d="M0.5 -13.1 L0.65 -13.1 11.6 -6.75 11.6 6.55 2.85 11.8 2.8 11.85 2.2 12.05 2.0 12.1 1.85 12.3 1.65 12.4 1.6 12.5 0.05 13.25 0.0 13.25 -0.05 13.2 -0.1 13.2 -11.45 6.55 -11.45 -6.75 -11.05 -6.95 -11.05 -7.05 -10.1 -7.5 -5.7 -10.1 0.05 -13.45 0.5 -13.1 Z" fill="none" stroke="#000000" stroke-linecap="round" stroke-linejoin="round" stroke-width="2.0"/>
  </g>
</svg>
