<?xml version="1.0" encoding="UTF-8" standalone="no"?>
<svg xmlns:ffdec="https://www.free-decompiler.com/flash" xmlns:xlink="http://www.w3.org/1999/xlink" ffdec:objectType="shape" height="26.9px" width="18.15px" xmlns="http://www.w3.org/2000/svg">
  <g transform="matrix(1.0, 0.0, 0.0, 1.0, 0.0, 0.0)">
    <path d="M7.45 0.0 L16.05 0.75 Q18.15 1.05 18.15 3.15 18.15 4.3 17.35 4.95 16.7 5.45 15.85 5.45 L11.2 5.0 Q10.95 8.2 10.95 13.6 L10.95 21.45 15.7 21.4 Q16.75 21.4 17.45 22.1 18.15 22.8 18.15 23.8 18.15 24.8 17.45 25.5 16.75 26.2 15.65 26.2 L12.65 26.25 9.65 26.25 6.05 26.6 2.5 26.9 Q1.45 26.9 0.7 26.2 0.0 25.5 0.0 24.5 0.0 23.55 0.75 22.8 1.5 22.1 2.65 22.1 L6.0 21.85 5.95 13.9 Q5.95 9.15 6.3 4.8 L2.5 4.9 Q1.45 4.9 0.75 4.2 0.0 3.5 0.0 2.5 0.0 1.45 0.7 0.8 1.35 0.2 2.25 0.15 L7.45 0.0" fill="#ffffff" fill-rule="evenodd" stroke="none"/>
  </g>
</svg>
