<?xml version="1.0" encoding="UTF-8" standalone="no"?>
<svg xmlns:ffdec="https://www.free-decompiler.com/flash" xmlns:xlink="http://www.w3.org/1999/xlink" ffdec:objectType="shape" height="33.85px" width="39.7px" xmlns="http://www.w3.org/2000/svg">
  <g transform="matrix(1.0, 0.0, 0.0, 1.0, 19.85, 16.9)">
    <path d="M5.5 -14.75 L5.6 -15.0 6.6 -15.2 7.0 -15.1 7.65 -14.75 8.4 -14.55 8.55 -14.85 9.25 -15.35 Q9.65 -15.65 10.15 -15.65 L12.05 -15.2 17.8 -7.85 17.8 -7.45 17.8 -7.2 17.95 -7.1 18.05 -6.55 18.35 -6.2 18.05 -5.55 12.85 0.6 12.6 0.8 2.25 13.05 0.3 15.15 0.2 15.05 0.0 14.95 -0.25 14.7 -0.25 14.6 -0.4 14.15 -0.5 13.9 -0.5 13.7 -0.5 13.25 -0.4 12.8 -0.25 12.0 0.0 11.75 Q2.8 7.6 5.2 2.95 6.6 0.45 7.5 -2.1 8.55 -4.5 9.15 -6.95 L9.15 -7.2 9.15 -7.3 9.15 -7.55 9.15 -8.0 9.0 -8.2 9.0 -8.45 Q8.9 -8.45 8.9 -8.6 8.75 -8.6 8.75 -8.75 L8.4 -9.1 7.5 -9.9 7.0 -10.65 6.3 -11.15 Q5.3 -11.4 4.95 -12.4 L4.7 -12.95 4.7 -13.2 4.7 -13.45 4.7 -13.85 4.8 -14.1 4.95 -14.3 5.5 -14.75" fill="#363636" fill-rule="evenodd" stroke="none"/>
    <path d="M-13.15 -13.85 L-12.25 -14.75 Q-11.45 -15.35 -10.55 -15.45 L-9.95 -15.65 2.65 -15.35 5.5 -14.75 4.95 -14.3 4.8 -14.1 4.7 -13.85 4.7 -13.45 4.7 -13.2 4.7 -12.95 4.95 -12.4 Q5.3 -11.4 6.3 -11.15 L7.0 -10.65 7.5 -9.9 8.4 -9.1 8.75 -8.75 Q8.75 -8.6 8.9 -8.6 8.9 -8.45 9.0 -8.45 L9.0 -8.2 9.15 -8.0 9.15 -7.55 9.15 -7.3 9.15 -7.2 9.15 -6.95 Q8.55 -4.5 7.5 -2.1 6.6 0.45 5.2 2.95 2.8 7.6 0.0 11.75 L-0.5 10.5 -1.15 9.1 -1.15 8.95 -1.15 8.7 -1.15 8.6 -1.4 7.95 -2.4 6.15 -3.1 4.5 -3.1 4.25 -3.2 3.65 Q-3.2 3.4 -3.45 3.1 L-3.85 2.85 -3.95 2.2 -4.45 0.3 -5.25 -1.1 -6.35 -3.15 Q-7.15 -4.4 -8.7 -4.4 L-9.2 -5.3 -9.3 -5.7 -9.3 -5.95 -9.4 -6.05 -9.3 -6.2 -9.2 -6.45 -9.2 -6.55 -7.8 -7.55 -2.2 -9.5 -1.8 -10.0 -1.7 -10.5 -1.55 -10.65 1.9 -11.25 Q2.15 -11.25 2.4 -11.4 L2.65 -11.8 Q2.65 -12.05 2.8 -12.15 L2.9 -12.55 2.9 -12.7 2.9 -13.05 2.8 -13.45 Q2.65 -13.55 2.65 -13.85 L2.55 -14.1 0.85 -14.55 -5.9 -14.75 -9.05 -14.2 -9.4 -14.1 -9.7 -14.1 -9.2 -14.45 -9.95 -14.3 -10.3 -14.45 -11.2 -14.75 -13.15 -13.85" fill="#494949" fill-rule="evenodd" stroke="none"/>
    <path d="M-0.7 14.8 L-1.3 14.95 -4.85 10.4 -5.0 10.1 -5.0 10.0 -5.0 9.75 -5.75 8.2 -6.9 6.45 Q-7.05 6.15 -7.15 6.15 L-7.15 6.05 -7.15 5.8 -7.9 4.9 Q-8.3 4.1 -9.2 3.75 L-10.1 4.25 Q-10.1 3.75 -11.0 3.65 -11.85 3.5 -11.65 2.2 -11.45 0.8 -11.75 0.6 L-12.1 -0.2 -12.65 -0.85 -13.25 -1.75 -14.25 -3.15 -14.4 -3.25 -14.7 -3.35 -14.8 -3.6 -14.9 -3.75 -14.9 -3.5 -15.05 -3.9 -15.3 -4.15 -15.3 -4.4 -15.3 -4.7 -15.4 -4.7 -15.4 -4.8 -15.95 -5.55 -16.2 -5.55 Q-16.55 -5.55 -16.7 -5.7 L-16.95 -5.95 -17.3 -6.3 -17.55 -6.55 -18.85 -7.3 -18.0 -7.2 -18.0 -7.3 -18.0 -7.55 -17.85 -7.85 -17.75 -8.2 -17.1 -8.85 -16.55 -9.5 -16.55 -9.75 -16.55 -10.0 -16.45 -10.15 -16.45 -10.25 Q-16.05 -10.5 -15.95 -10.8 L-15.05 -11.7 Q-14.9 -11.8 -14.9 -11.95 L-13.25 -13.7 -13.15 -13.85 -11.2 -14.75 -10.3 -14.45 -10.25 -14.25 Q-11.4 -14.05 -12.0 -13.45 L-13.15 -12.05 -13.25 -11.95 Q-14.15 -11.15 -14.4 -10.15 L-14.5 -9.0 -13.9 -7.85 Q-13.15 -7.1 -12.0 -6.95 -10.85 -7.1 -9.95 -7.85 -9.2 -8.45 -9.05 -9.5 -8.55 -9.6 -8.3 -10.0 L-7.9 -10.65 -7.8 -11.25 -7.8 -12.05 -7.9 -12.7 -8.15 -13.3 -9.05 -13.95 -9.05 -14.2 -5.9 -14.75 0.85 -14.55 2.55 -14.1 2.65 -13.85 Q2.65 -13.55 2.8 -13.45 L2.9 -13.05 2.9 -12.7 2.9 -12.55 2.8 -12.15 Q2.65 -12.05 2.65 -11.8 L2.4 -11.4 Q2.15 -11.25 1.9 -11.25 L-1.55 -10.65 -1.7 -10.5 -1.8 -10.0 -2.2 -9.5 -7.8 -7.55 -9.2 -6.55 -9.2 -6.45 -9.3 -6.2 -9.4 -6.05 -9.3 -5.95 -9.3 -5.7 -9.2 -5.3 -8.7 -4.4 Q-7.15 -4.4 -6.35 -3.15 L-5.25 -1.1 -4.45 0.3 -3.95 2.2 -3.85 2.85 -3.45 3.1 Q-3.2 3.4 -3.2 3.65 L-3.1 4.25 -3.1 4.5 -2.4 6.15 -1.4 7.95 -1.15 8.6 -1.15 8.7 -1.15 8.95 -1.15 9.1 -0.5 10.5 0.0 11.75 -0.25 12.0 -0.4 12.8 -0.5 13.25 -0.5 13.7 -0.5 13.9 -0.4 14.15 -0.25 14.6 -0.7 14.8" fill="#747474" fill-rule="evenodd" stroke="none"/>
    <path d="M-9.05 -13.95 L-8.15 -13.3 -7.9 -12.7 -7.8 -12.05 -7.8 -11.25 -7.9 -10.65 -8.3 -10.0 Q-8.55 -9.6 -9.05 -9.5 -9.2 -8.45 -9.95 -7.85 -10.85 -7.1 -12.0 -6.95 -13.15 -7.1 -13.9 -7.85 L-14.5 -9.0 -14.4 -10.15 Q-14.15 -11.15 -13.25 -11.95 L-13.15 -12.05 -12.0 -13.45 Q-11.4 -14.05 -10.25 -14.25 L-9.95 -14.3 -9.2 -14.45 -9.7 -14.1 -9.4 -14.1 -9.05 -13.95" fill="#959595" fill-rule="evenodd" stroke="none"/>
    <path d="M-9.05 -14.2 L-9.05 -13.95 -9.4 -14.1 -9.05 -14.2" fill="#dddddd" fill-opacity="0.3019608" fill-rule="evenodd" stroke="none"/>
    <path d="M-10.25 -14.25 L-10.3 -14.45 -9.95 -14.3 -10.25 -14.25" fill="#33ff00" fill-rule="evenodd" stroke="none"/>
    <path d="M-0.25 14.7 L-0.7 14.8 -0.25 14.6 -0.25 14.7" fill="#00ccff" fill-rule="evenodd" stroke="none"/>
    <path d="M0.2 15.2 L0.2 15.05 0.3 15.15 0.2 15.2" fill="#26bf00" fill-rule="evenodd" stroke="none"/>
    <path d="M2.25 13.05 Q1.4 14.05 0.75 15.35 L0.2 15.2 0.3 15.15 2.25 13.05" fill="#990000" fill-rule="evenodd" stroke="none"/>
    <path d="M11.6 -15.9 L-13.0 -15.9 -18.85 -7.3 -0.5 15.95 18.85 -6.55 11.6 -15.9 Z" fill="none" stroke="#000000" stroke-linecap="round" stroke-linejoin="round" stroke-width="2.0"/>
  </g>
</svg>
