<?xml version="1.0" encoding="UTF-8" standalone="no"?>
<svg xmlns:ffdec="https://www.free-decompiler.com/flash" xmlns:xlink="http://www.w3.org/1999/xlink" ffdec:objectType="shape" height="27.15px" width="20.95px" xmlns="http://www.w3.org/2000/svg">
  <g transform="matrix(1.0, 0.0, 0.0, 1.0, 0.0, 0.0)">
    <path d="M20.0 21.3 Q20.0 22.3 19.1 23.1 14.25 27.15 9.25 27.15 5.3 27.15 2.6 24.3 0.0 21.5 0.0 17.75 0.0 11.85 5.15 5.75 9.5 0.5 14.1 0.5 L15.5 0.6 16.55 0.75 Q17.35 0.0 18.45 0.0 20.25 0.0 20.65 2.05 L20.95 5.5 Q20.95 6.35 20.45 7.1 19.75 8.05 18.5 8.05 16.9 8.05 16.15 6.35 15.8 5.55 15.45 5.4 L14.1 5.3 Q11.85 5.3 8.95 8.75 4.9 13.55 4.9 17.75 4.9 19.65 6.2 21.05 7.45 22.4 9.25 22.4 11.0 22.4 12.8 21.5 L15.45 19.75 Q16.85 18.85 17.55 18.85 18.6 18.85 19.35 19.65 20.0 20.35 20.0 21.3" fill="#ffffff" fill-rule="evenodd" stroke="none"/>
  </g>
</svg>
