<?xml version="1.0" encoding="UTF-8" standalone="no"?>
<svg xmlns:ffdec="https://www.free-decompiler.com/flash" xmlns:xlink="http://www.w3.org/1999/xlink" ffdec:objectType="shape" height="102.2px" width="178.0px" xmlns="http://www.w3.org/2000/svg">
  <g transform="matrix(1.0, 0.0, 0.0, 1.0, 84.0, 128.2)">
    <path d="M8.5 -107.0 Q20.15 -107.3 24.95 -105.95 28.35 -105.0 29.85 -103.0 L29.6 -102.75 29.2 -102.05 28.95 -101.4 28.7 -100.7 28.7 -100.0 28.75 -99.3 28.95 -98.6 29.15 -97.9 29.65 -97.25 30.35 -96.55 30.55 -96.35 Q29.6 -93.55 26.45 -92.5 22.1 -91.0 7.5 -91.0 -5.3 -91.0 -9.25 -94.25 -11.0 -95.7 -11.0 -99.1 -11.0 -103.5 -7.1 -105.4 -1.55 -108.05 11.5 -105.5 L8.5 -107.0 M66.4 -80.1 L66.9 -80.0 67.0 -77.25 Q68.0 -75.9 68.0 -74.25 68.0 -73.6 66.75 -71.75 65.05 -69.3 62.55 -67.25 59.8 -65.0 56.55 -63.6 L51.1 -56.85 Q49.4 -53.25 44.5 -49.2 33.4 -37.0 29.0 -37.0 L25.3 -37.5 24.85 -37.3 Q19.95 -35.0 19.5 -35.0 14.45 -35.0 10.75 -40.3 8.0 -44.2 8.0 -45.85 8.0 -47.5 14.9 -53.65 20.05 -58.25 25.35 -61.9 24.95 -63.2 25.0 -64.5 25.0 -95.25 42.0 -89.4 47.3 -87.6 52.55 -83.45 L55.35 -85.65 55.75 -85.4 Q58.05 -84.2 60.65 -84.0 L61.35 -83.6 Q63.2 -82.75 64.8 -81.45 L66.4 -80.1 M67.7 -29.4 Q67.15 -30.5 67.0 -31.85 L67.0 -33.1 Q67.0 -40.0 71.2 -46.9 75.2 -53.4 80.5 -56.2 85.55 -58.8 89.0 -56.3 L89.1 -56.2 89.55 -55.55 90.3 -53.45 91.6 -50.65 92.35 -49.3 93.3 -48.4 Q94.0 -44.85 94.0 -40.0 94.0 -37.15 87.5 -31.8 80.5 -26.0 75.0 -26.0 69.5 -26.0 67.7 -29.4 M-42.5 -103.5 Q-37.55 -102.4 -33.9 -99.55 -30.0 -96.45 -30.0 -93.0 -30.0 -90.35 -31.7 -88.5 -34.05 -86.0 -39.0 -86.0 -48.3 -86.0 -52.45 -90.55 -55.0 -93.3 -55.0 -96.1 -55.0 -101.1 -51.1 -103.0 -47.7 -104.6 -42.5 -103.5 M-35.0 -110.0 Q-37.0 -112.15 -37.0 -114.85 -37.0 -122.95 -31.55 -126.25 -26.85 -129.05 -19.5 -127.85 -12.75 -126.75 -7.45 -123.15 -2.0 -119.4 -2.0 -115.5 -2.0 -111.6 -4.75 -109.45 -9.3 -106.0 -21.5 -106.0 -31.2 -106.0 -35.0 -110.0 M-56.0 -51.25 Q-56.0 -47.95 -58.05 -46.05 -60.15 -44.0 -64.0 -44.0 -68.4 -44.0 -76.55 -53.8 -84.0 -62.8 -84.0 -65.0 -84.0 -73.0 -79.6 -73.4 -76.0 -73.75 -70.0 -68.95 -64.85 -64.85 -60.35 -59.05 -56.0 -53.45 -56.0 -51.25" fill="#8adcff" fill-rule="evenodd" stroke="none"/>
  </g>
</svg>
