<?xml version="1.0" encoding="UTF-8" standalone="no"?>
<svg xmlns:ffdec="https://www.free-decompiler.com/flash" xmlns:xlink="http://www.w3.org/1999/xlink" ffdec:objectType="shape" height="26.8px" width="25.05px" xmlns="http://www.w3.org/2000/svg">
  <g transform="matrix(1.0, 0.0, 0.0, 1.0, 0.0, 0.0)">
    <path d="M22.6 5.55 L18.3 5.4 14.05 5.2 14.5 12.35 14.9 19.5 15.0 21.3 15.15 23.05 Q15.15 24.4 14.55 25.45 13.85 26.8 12.5 26.8 11.55 26.8 10.8 26.2 10.0 25.5 10.0 24.45 L10.05 23.7 10.15 22.95 10.05 20.5 9.95 18.05 Q9.95 15.7 9.55 11.65 L9.05 5.3 8.15 5.3 1.95 4.7 Q0.0 4.25 0.0 2.4 0.0 1.5 0.6 0.8 1.35 -0.05 2.55 0.0 L5.35 0.3 8.15 0.5 11.35 0.5 14.55 0.45 18.55 0.65 22.6 0.8 Q23.65 0.8 24.35 1.5 25.05 2.2 25.05 3.2 25.05 4.2 24.35 4.9 23.65 5.55 22.6 5.55" fill="#ffffff" fill-rule="evenodd" stroke="none"/>
  </g>
</svg>
