<?xml version="1.0" encoding="UTF-8" standalone="no"?>
<svg xmlns:ffdec="https://www.free-decompiler.com/flash" xmlns:xlink="http://www.w3.org/1999/xlink" ffdec:objectType="shape" height="28.65px" width="26.5px" xmlns="http://www.w3.org/2000/svg">
  <g transform="matrix(1.0, 0.0, 0.0, 1.0, 0.0, 0.0)">
    <path d="M26.45 11.8 L26.35 22.95 26.05 25.7 Q25.7 27.95 23.5 27.95 22.25 27.95 20.7 26.6 13.95 20.5 5.4 9.5 L5.3 15.1 5.4 19.25 5.45 23.45 Q5.45 28.65 2.9 28.65 1.65 28.65 0.85 27.85 0.15 27.15 0.15 26.15 L0.3 24.0 0.4 21.9 0.45 18.8 0.55 15.65 0.5 12.35 0.45 9.0 0.2 5.85 0.0 2.7 Q0.0 1.65 0.9 0.8 1.8 0.0 3.0 0.0 4.3 0.0 5.85 2.25 13.85 13.65 21.6 20.8 L21.65 18.15 21.45 6.45 21.25 4.55 21.05 2.6 Q21.05 0.2 23.6 0.2 26.5 0.2 26.5 9.05 L26.45 11.8" fill="#ffffff" fill-rule="evenodd" stroke="none"/>
  </g>
</svg>
