<?xml version="1.0" encoding="UTF-8" standalone="no"?>
<svg xmlns:ffdec="https://www.free-decompiler.com/flash" xmlns:xlink="http://www.w3.org/1999/xlink" ffdec:objectType="shape" height="28.8px" width="23.8px" xmlns="http://www.w3.org/2000/svg">
  <g transform="matrix(1.0, 0.0, 0.0, 1.0, 0.0, 0.0)">
    <path d="M0.0 18.95 Q0.0 14.45 2.2 9.7 4.4 5.0 7.9 2.05 10.35 0.0 13.15 0.0 14.85 0.0 17.75 1.2 21.25 2.65 21.25 4.35 21.25 5.3 20.55 6.05 19.8 6.75 18.75 6.75 18.25 6.75 16.45 5.8 14.65 4.8 13.15 4.8 11.55 4.8 8.85 8.2 4.95 13.15 4.95 18.95 4.95 21.85 5.8 22.9 6.7 24.05 9.35 24.05 12.05 24.05 14.05 22.5 16.25 20.9 17.25 17.8 13.2 18.1 10.15 19.45 L9.05 19.7 Q8.0 19.7 7.25 18.9 6.6 18.2 6.6 17.25 6.6 14.55 13.0 13.5 L21.35 12.9 Q22.4 12.9 23.1 13.6 23.8 14.3 23.8 15.3 23.8 16.55 22.75 17.25 21.55 22.5 17.95 25.65 14.3 28.8 9.35 28.8 4.65 28.8 2.3 26.35 0.0 23.85 0.0 18.95" fill="#ffffff" fill-rule="evenodd" stroke="none"/>
  </g>
</svg>
