<?xml version="1.0" encoding="UTF-8" standalone="no"?>
<svg xmlns:ffdec="https://www.free-decompiler.com/flash" xmlns:xlink="http://www.w3.org/1999/xlink" ffdec:objectType="shape" height="26.55px" width="22.85px" xmlns="http://www.w3.org/2000/svg">
  <g transform="matrix(1.0, 0.0, 0.0, 1.0, 0.0, 0.0)">
    <path d="M4.65 25.15 Q3.9 26.4 2.5 26.4 1.55 26.4 0.75 25.75 0.0 25.1 0.0 24.05 0.0 23.15 2.55 18.0 2.3 17.45 2.35 16.95 2.45 16.1 4.05 15.65 6.55 11.3 9.6 6.7 14.0 0.0 15.05 0.0 16.95 0.0 17.6 2.35 L18.7 8.0 21.35 19.6 22.25 21.9 Q22.85 23.4 22.85 24.15 22.85 25.2 22.1 25.9 21.35 26.55 20.35 26.55 19.0 26.45 17.6 23.25 16.65 21.2 16.0 18.5 L11.7 18.85 7.45 19.3 4.65 25.15 M12.5 14.65 L15.0 14.45 13.8 8.5 10.05 14.9 12.5 14.65" fill="#ffffff" fill-rule="evenodd" stroke="none"/>
  </g>
</svg>
