<?xml version="1.0" encoding="UTF-8" standalone="no"?>
<svg xmlns:ffdec="https://www.free-decompiler.com/flash" xmlns:xlink="http://www.w3.org/1999/xlink" ffdec:objectType="shape" height="28.4px" width="29.9px" xmlns="http://www.w3.org/2000/svg">
  <g transform="matrix(1.0, 0.0, 0.0, 1.0, 0.0, 0.0)">
    <path d="M19.15 2.5 Q20.1 0.0 22.1 0.0 24.0 0.0 24.9 2.9 L25.75 7.3 Q26.75 14.8 28.3 20.15 L29.9 26.05 Q29.9 27.05 29.05 27.8 28.3 28.4 27.3 28.4 25.4 28.4 24.45 25.65 L23.5 21.4 Q22.65 18.25 21.65 12.35 L19.05 19.75 18.0 22.95 16.65 26.1 Q15.7 27.75 14.05 27.75 12.35 27.75 11.5 25.8 L10.5 22.5 Q9.15 18.0 8.05 13.05 L5.85 21.65 5.2 25.6 Q4.45 28.1 2.55 28.1 1.3 28.1 0.6 27.3 0.0 26.6 0.0 25.6 0.0 22.75 1.25 18.65 L3.2 11.85 4.2 6.45 Q5.0 2.75 5.95 1.5 6.85 0.25 8.25 0.25 9.85 0.25 10.6 1.85 11.3 3.4 12.15 8.1 12.9 12.7 14.45 18.0 16.45 12.8 18.15 6.55 L19.15 2.5" fill="#ffffff" fill-rule="evenodd" stroke="none"/>
  </g>
</svg>
