<?xml version="1.0" encoding="UTF-8" standalone="no"?>
<svg xmlns:ffdec="https://www.free-decompiler.com/flash" xmlns:xlink="http://www.w3.org/1999/xlink" ffdec:objectType="shape" height="2.35px" width="20.35px" xmlns="http://www.w3.org/2000/svg">
  <g transform="matrix(1.0, 0.0, 0.0, 1.0, 10.2, 1.15)">
    <path d="M6.5 -1.15 L6.0 -1.05 Q5.75 -0.95 5.75 -0.45 L6.0 0.05 6.0 0.1 Q5.7 0.4 5.7 0.75 L5.7 1.2 -4.7 1.15 -4.75 1.2 -5.75 1.2 -5.75 1.1 -5.9 0.65 -5.85 0.4 -5.9 -0.05 -6.35 -0.4 -6.5 -0.85 -6.9 -1.15 6.5 -1.15" fill="#ff6c3c" fill-rule="evenodd" stroke="none"/>
    <path d="M-6.9 -1.15 L-6.5 -0.85 -6.35 -0.4 -5.9 -0.05 -5.85 0.4 -5.9 0.65 -5.75 1.1 -5.75 1.2 -10.2 1.2 -10.2 0.9 -8.55 -0.7 -8.2 -1.15 -6.9 -1.15" fill="#fb3f00" fill-rule="evenodd" stroke="none"/>
    <path d="M5.7 1.2 L5.7 0.75 Q5.7 0.4 6.0 0.1 L6.0 0.05 5.75 -0.45 Q5.75 -0.95 6.0 -1.05 L6.5 -1.15 8.3 -1.15 8.35 -1.05 9.5 0.4 10.15 1.15 10.15 1.2 5.7 1.2" fill="#ff9900" fill-rule="evenodd" stroke="none"/>
  </g>
</svg>
