<?xml version="1.0" encoding="UTF-8" standalone="no"?>
<svg xmlns:ffdec="https://www.free-decompiler.com/flash" xmlns:xlink="http://www.w3.org/1999/xlink" ffdec:objectType="shape" height="29.95px" width="20.25px" xmlns="http://www.w3.org/2000/svg">
  <g transform="matrix(1.0, 0.0, 0.0, 1.0, 0.0, 0.0)">
    <path d="M18.65 1.0 Q20.25 1.6 20.25 3.25 20.25 4.15 19.65 4.85 18.95 5.65 17.85 5.65 L17.1 5.55 Q14.25 4.8 11.55 4.8 L8.75 5.0 5.5 5.65 5.35 12.55 12.25 11.9 16.5 11.6 Q17.55 11.6 18.25 12.25 19.0 12.9 19.0 14.0 19.0 16.1 16.75 16.35 L12.55 16.7 5.05 17.4 4.9 21.0 Q4.9 24.45 5.35 24.95 L7.55 25.15 10.85 25.1 14.1 25.05 15.15 24.95 16.15 24.85 Q17.2 24.85 17.9 25.4 18.75 26.05 18.75 27.25 18.75 29.2 16.7 29.6 L9.4 29.95 Q3.65 29.95 1.9 28.4 0.0 26.7 0.0 21.0 0.0 18.65 0.35 13.95 L0.7 6.9 0.5 5.05 0.35 3.25 Q0.35 0.55 2.8 0.55 3.55 0.55 4.2 1.0 L8.1 0.25 11.55 0.0 Q16.0 0.0 18.65 1.0" fill="#ffffff" fill-rule="evenodd" stroke="none"/>
  </g>
</svg>
