<?xml version="1.0" encoding="UTF-8" standalone="no"?>
<svg xmlns:ffdec="https://www.free-decompiler.com/flash" xmlns:xlink="http://www.w3.org/1999/xlink" ffdec:objectType="shape" height="26.85px" width="23.35px" xmlns="http://www.w3.org/2000/svg">
  <g transform="matrix(1.0, 0.0, 0.0, 1.0, 0.0, 0.0)">
    <path d="M0.0 21.05 Q0.0 19.95 0.65 19.25 1.35 18.5 2.5 18.5 4.1 18.5 4.85 20.1 5.85 22.3 9.35 22.3 12.4 22.3 15.2 20.95 18.15 19.6 18.15 18.0 18.15 15.8 16.3 15.1 15.0 14.55 11.1 14.5 8.05 14.4 5.65 13.35 2.4 11.9 2.45 9.15 2.5 5.75 6.1 2.9 9.7 0.0 14.05 0.0 L18.3 0.8 Q21.45 1.8 21.45 3.05 21.45 4.0 20.8 4.7 20.1 5.5 19.0 5.5 L16.55 5.15 14.05 4.8 Q11.8 4.8 9.75 5.85 7.65 6.95 7.65 8.25 7.65 8.9 8.3 9.35 L10.2 9.95 14.7 10.2 Q18.6 10.5 20.85 12.4 23.35 14.5 23.35 18.2 23.35 22.75 18.2 25.1 14.25 26.85 9.2 26.85 4.7 26.85 2.15 24.9 0.0 23.25 0.0 21.05" fill="#ffffff" fill-rule="evenodd" stroke="none"/>
  </g>
</svg>
