<?xml version="1.0" encoding="UTF-8" standalone="no"?>
<svg xmlns:ffdec="https://www.free-decompiler.com/flash" xmlns:xlink="http://www.w3.org/1999/xlink" ffdec:objectType="shape" height="5.95px" width="5.6px" xmlns="http://www.w3.org/2000/svg">
  <g transform="matrix(1.0, 0.0, 0.0, 1.0, 2.75, 14.2)">
    <path d="M1.2 -13.5 L1.2 -13.55 1.25 -13.55 1.2 -13.5" fill="#004f00" fill-rule="evenodd" stroke="none"/>
    <path d="M1.15 -13.55 L1.2 -13.55 1.2 -13.5 1.15 -13.55" fill="#339900" fill-rule="evenodd" stroke="none"/>
    <path d="M-2.65 -10.8 L-2.65 -10.75 -2.65 -10.8 M1.95 -13.1 L1.5 -13.5 1.55 -13.55 2.0 -13.1 1.95 -13.1" fill="#008200" fill-rule="evenodd" stroke="none"/>
    <path d="M1.95 -13.1 L2.0 -13.1 1.95 -13.1" fill="#8300ae" fill-rule="evenodd" stroke="none"/>
    <path d="M2.0 -13.1 L2.15 -12.85 1.95 -13.1 2.0 -13.1" fill="#66ff00" fill-rule="evenodd" stroke="none"/>
    <path d="M1.15 -13.55 Q0.35 -14.2 0.35 -13.0 L0.2 -11.95 Q-0.15 -10.8 -1.2 -10.8 L-2.3 -11.0 -2.65 -10.8 -2.75 -11.5 -2.55 -12.1 Q-2.25 -14.55 -0.05 -14.15 L1.3 -13.7 1.2 -13.55 1.15 -13.55" fill="#ec3c00" fill-rule="evenodd" stroke="none"/>
    <path d="M-2.65 -10.8 L-2.3 -11.0 -1.2 -10.8 Q-0.15 -10.8 0.2 -11.95 L0.35 -13.0 Q0.35 -14.2 1.15 -13.55 L1.2 -13.5 Q2.0 -12.8 2.0 -11.6 L1.45 -10.2 Q1.25 -9.35 0.75 -9.35 L0.7 -9.35 Q0.2 -9.0 -0.5 -9.0 -1.5 -9.0 -2.2 -9.6 L-2.65 -10.15 -2.75 -10.55 -2.65 -10.75 -2.65 -10.8" fill="#b92f00" fill-rule="evenodd" stroke="none"/>
    <path d="M1.2 -13.55 L1.3 -13.7 1.55 -13.55 1.5 -13.5 1.95 -13.1 2.15 -12.85 2.4 -12.45 2.85 -11.1 2.75 -10.25 2.65 -9.6 2.5 -9.3 1.6 -8.55 1.05 -8.35 -0.25 -8.25 Q-2.35 -8.25 -2.0 -8.85 L-2.45 -9.2 -2.75 -9.8 -2.65 -10.15 -2.2 -9.6 Q-1.5 -9.0 -0.5 -9.0 0.2 -9.0 0.7 -9.35 L0.75 -9.35 Q1.25 -9.35 1.45 -10.2 L2.0 -11.6 Q2.0 -12.8 1.2 -13.5 L1.25 -13.55 1.2 -13.55" fill="#912400" fill-rule="evenodd" stroke="none"/>
  </g>
</svg>
