<?xml version="1.0" encoding="UTF-8" standalone="no"?>
<svg xmlns:ffdec="https://www.free-decompiler.com/flash" xmlns:xlink="http://www.w3.org/1999/xlink" ffdec:objectType="shape" height="14.2px" width="15.15px" xmlns="http://www.w3.org/2000/svg">
  <g transform="matrix(1.0, 0.0, 0.0, 1.0, 7.55, 7.1)">
    <path d="M7.15 -3.0 Q7.6 -1.75 7.6 -0.3 7.6 1.25 7.1 2.7 6.6 4.1 5.6 5.1 4.6 6.1 3.05 6.6 L-0.1 7.1 -3.2 6.65 -5.65 5.25 Q-6.65 4.3 -7.1 3.05 L-7.3 2.4 -7.55 0.35 -7.3 -1.75 -7.0 -2.7 Q-6.45 -4.2 -5.4 -5.15 -4.35 -6.15 -2.85 -6.65 L0.3 -7.1 3.25 -6.65 Q4.65 -6.2 5.65 -5.25 6.7 -4.25 7.15 -3.0 M4.45 -4.15 Q3.65 -4.9 2.55 -5.25 L0.25 -5.55 -2.2 -5.2 Q-3.4 -4.85 -4.25 -4.0 L-5.5 -2.05 Q-5.9 -0.9 -5.9 0.35 -5.9 1.5 -5.5 2.55 -5.05 3.6 -4.3 4.3 -3.45 4.95 -2.4 5.25 L-0.05 5.6 2.4 5.25 4.35 4.1 5.5 2.2 Q5.9 1.1 5.9 -0.15 5.9 -1.35 5.55 -2.35 5.2 -3.4 4.45 -4.15 M0.35 -4.0 L1.55 -3.95 2.6 -3.55 3.25 -2.85 3.45 -1.9 Q3.45 -1.05 2.95 -0.4 2.45 0.2 1.45 0.45 L2.3 1.8 3.35 3.85 2.1 3.85 1.0 3.85 0.45 2.55 0.2 2.0 -0.4 0.85 -0.85 -0.25 -0.9 0.6 -1.0 3.85 -2.1 3.85 -3.2 3.85 -2.95 -0.05 -2.9 -4.0 -1.5 -3.95 -0.55 -4.0 0.35 -4.0" fill="#424570" fill-rule="evenodd" stroke="none"/>
  </g>
</svg>
