<?xml version="1.0" encoding="UTF-8" standalone="no"?>
<svg xmlns:ffdec="https://www.free-decompiler.com/flash" xmlns:xlink="http://www.w3.org/1999/xlink" ffdec:objectType="shape" height="19.55px" width="46.05px" xmlns="http://www.w3.org/2000/svg">
  <g transform="matrix(1.0, 0.0, 0.0, 1.0, 24.8, -3.95)">
    <path d="M9.45 10.25 L9.4 10.25 9.05 10.45 8.85 10.2 9.2 10.2 9.45 10.25 M-17.4 14.7 L-17.0 14.4 -15.75 13.5 -15.55 13.95 Q-15.3 14.25 -14.7 14.25 -14.25 14.25 -13.95 13.95 L-13.75 14.55 Q-13.5 15.15 -12.8 15.15 -12.15 15.15 -9.65 13.9 L-9.5 13.9 -9.35 13.9 -9.25 13.9 -8.0 13.0 -7.95 13.0 -7.7 13.0 -7.05 12.9 -7.25 13.75 Q-7.0 16.15 -6.0 16.15 L-5.4 16.3 -4.65 16.4 -1.8 15.35 -0.95 15.75 Q-0.7 15.75 -0.4 15.5 L0.1 15.2 0.4 15.45 1.15 15.65 3.2 15.75 5.95 14.95 6.3 15.2 6.85 15.4 Q7.9 15.4 8.0 13.85 L8.5 13.5 9.1 13.15 9.25 13.45 9.25 13.5 Q9.35 14.25 10.35 14.25 11.35 14.25 14.6 12.5 L14.6 12.6 14.75 13.2 Q15.0 13.75 15.6 13.75 15.95 13.75 16.75 13.15 L16.8 13.25 16.85 13.75 15.3 15.7 13.7 18.0 -0.25 18.15 -14.7 18.6 -15.7 17.15 -17.4 14.7 M4.05 13.5 L4.2 13.35 4.25 13.45 4.05 13.5 M-16.65 11.65 L-17.0 11.75 -16.95 11.65 -16.65 11.65" fill="#ffcc00" fill-rule="evenodd" stroke="none"/>
    <path d="M14.3 8.05 L14.55 8.25 15.35 8.0 15.75 7.85 16.15 7.75 16.1 7.75 15.8 8.2 15.9 8.4 14.6 8.45 11.35 8.35 12.1 8.15 13.55 7.75 Q13.9 7.75 14.3 8.05 M9.25 8.4 L7.4 8.5 Q6.9 8.6 6.9 8.95 6.65 9.5 8.35 9.5 L10.15 9.4 10.5 9.8 Q10.6 10.2 11.55 10.2 L12.9 10.0 13.1 10.15 10.7 10.75 Q10.1 10.75 10.0 10.45 L9.45 10.25 9.2 10.2 6.8 10.1 Q6.5 10.1 6.2 11.2 5.95 12.25 3.9 12.25 L-0.1 11.8 -0.35 11.55 -1.3 11.75 -2.95 11.65 -3.45 11.65 -3.25 11.6 0.05 11.5 4.35 11.25 4.5 11.15 Q5.35 10.85 6.1 9.7 L6.85 8.1 7.3 8.15 8.8 8.35 9.25 8.4 M14.1 10.4 L14.65 10.1 15.5 9.65 16.65 9.55 16.75 9.85 14.4 10.4 14.1 10.4 M-4.15 11.6 Q-6.25 11.35 -6.25 10.2 L-6.65 10.6 Q-7.45 11.25 -8.6 11.25 -9.4 11.25 -9.8 10.85 -10.2 10.45 -10.95 10.45 L-13.05 10.75 -13.75 11.0 Q-13.8 10.55 -14.25 10.55 -14.55 10.55 -14.65 10.7 L-15.7 10.9 Q-16.6 10.9 -17.1 10.5 -17.6 10.05 -18.6 10.05 L-19.15 10.65 -19.7 9.85 -19.9 9.6 -19.85 9.55 -19.45 9.7 -19.15 9.6 Q-18.7 10.0 -18.35 10.0 L-17.9 10.0 -17.4 10.1 -17.0 10.0 -16.5 9.95 -16.0 10.2 -15.55 9.9 -15.25 10.0 Q-15.0 10.0 -14.45 9.6 L-13.8 9.2 -13.35 9.35 -12.5 9.2 -12.2 9.55 -9.8 9.75 -7.15 9.55 -6.75 9.7 -6.4 9.5 -6.3 9.4 -6.15 9.7 Q-5.15 11.25 -4.15 11.6 M18.4 10.1 L18.2 10.05 18.25 9.6 18.2 9.35 18.25 9.3 18.55 9.35 Q19.05 9.35 19.05 8.5 L18.9 7.8 18.95 7.85 19.45 8.7 19.75 9.0 19.1 9.45 18.4 10.1 M18.0 7.9 L17.85 7.9 17.55 7.95 16.95 7.5 17.4 7.4 18.45 7.7 18.0 7.9 M-7.2 8.5 L-7.0 8.15 -6.8 8.55 -7.2 8.5 M-9.3 8.65 L-9.8 8.75 -10.1 8.65 -11.65 8.5 -11.75 8.45 -10.75 8.4 -9.3 8.65 M-17.15 8.3 L-18.3 8.25 -18.4 8.25 Q-18.55 8.05 -18.85 8.05 L-18.55 8.0 -17.15 8.3" fill="#ff9900" fill-rule="evenodd" stroke="none"/>
    <path d="M15.35 8.0 L14.55 8.25 14.3 8.05 15.35 8.0 M12.1 8.15 L11.35 8.35 11.05 8.35 9.25 8.4 8.8 8.35 12.1 8.15 M13.1 10.15 L13.2 10.25 13.7 10.5 14.1 10.4 14.4 10.4 16.75 9.85 16.75 10.1 16.65 11.1 Q16.65 11.9 17.3 11.9 17.85 11.9 18.2 10.05 L18.4 10.1 18.0 10.85 17.6 12.7 17.5 13.0 17.45 13.05 16.85 13.75 16.8 13.25 16.75 13.15 Q15.95 13.75 15.6 13.75 15.0 13.75 14.75 13.2 L14.6 12.6 14.6 12.5 Q11.35 14.25 10.35 14.25 9.35 14.25 9.25 13.5 L9.25 13.45 9.1 13.15 8.5 13.5 8.0 13.85 8.0 13.6 Q8.0 10.95 6.4 12.1 L5.55 12.9 4.25 13.45 4.2 13.35 4.05 13.5 3.4 13.55 0.8 12.65 -0.4 13.05 -1.8 13.2 Q-2.1 12.5 -3.35 12.65 -4.65 12.75 -4.9 13.5 L-5.25 13.45 Q-5.25 12.4 -6.25 12.4 -6.85 12.4 -7.05 12.9 L-7.7 13.0 -7.95 13.0 -8.0 13.0 -9.25 13.9 -9.35 13.9 -9.5 13.9 -9.65 13.9 Q-12.15 15.15 -12.8 15.15 -13.5 15.15 -13.75 14.55 L-13.95 13.95 Q-14.25 14.25 -14.7 14.25 -15.3 14.25 -15.55 13.95 L-15.75 13.5 -17.0 14.4 -17.4 14.7 -17.95 13.35 Q-18.25 11.95 -19.15 10.65 L-18.6 10.05 Q-17.6 10.05 -17.1 10.5 -16.6 10.9 -15.7 10.9 L-14.65 10.7 -14.75 11.05 Q-14.75 11.6 -14.25 11.6 -13.75 11.6 -13.75 11.05 L-13.75 11.0 -13.05 10.75 -10.95 10.45 Q-10.2 10.45 -9.8 10.85 -9.4 11.25 -8.6 11.25 -7.45 11.25 -6.65 10.6 L-6.25 10.2 Q-6.25 11.35 -4.15 11.6 L-4.15 11.7 -3.85 11.65 -3.65 11.65 -3.5 11.65 -3.45 11.65 -2.95 11.65 -1.3 11.75 -0.35 11.55 -0.1 11.8 3.9 12.25 Q5.95 12.25 6.2 11.2 6.5 10.1 6.8 10.1 L9.2 10.2 8.85 10.2 9.05 10.45 9.4 10.25 9.45 10.25 10.0 10.45 Q10.1 10.75 10.7 10.75 L13.1 10.15 M-18.85 8.05 L-18.85 8.0 -15.3 7.85 -11.6 7.75 -9.6 8.2 -8.3 7.75 Q-7.8 7.75 -7.5 8.15 L-7.3 8.5 -9.2 8.6 -9.3 8.65 -10.75 8.4 -11.75 8.45 -12.55 8.2 -13.45 8.15 Q-14.3 8.15 -14.75 8.6 L-14.9 8.5 -15.25 8.4 -15.75 8.5 -16.45 8.4 -17.15 8.3 -18.55 8.0 -18.85 8.05 M-16.65 11.65 L-16.95 11.65 -17.0 11.75 -16.65 11.65" fill="#dfb300" fill-rule="evenodd" stroke="none"/>
    <path d="M15.9 8.4 L15.8 8.2 16.1 7.75 16.15 7.75 Q16.4 7.45 16.75 7.45 L16.95 7.5 17.55 7.95 17.7 8.15 18.0 7.9 18.45 7.7 18.9 7.8 19.05 8.5 Q19.05 9.35 18.55 9.35 L18.25 9.3 18.2 9.3 18.2 9.35 18.25 9.6 18.2 10.05 Q17.85 11.9 17.3 11.9 16.65 11.9 16.65 11.1 L16.75 10.1 16.75 9.85 16.65 9.55 16.3 8.95 15.9 8.4 M-18.4 8.25 L-18.35 8.55 Q-18.35 9.1 -18.95 9.05 L-19.15 9.6 -19.45 9.7 -19.85 9.55 -19.75 9.2 -19.7 9.2 -18.85 8.05 Q-18.55 8.05 -18.4 8.25" fill="#000000" fill-rule="evenodd" stroke="none"/>
    <path d="M-7.05 12.9 Q-6.85 12.4 -6.25 12.4 -5.25 12.4 -5.25 13.45 L-4.9 13.5 Q-4.65 12.75 -3.35 12.65 -2.1 12.5 -1.8 13.2 L-0.4 13.05 0.8 12.65 3.4 13.55 4.05 13.5 4.25 13.45 5.55 12.9 6.4 12.1 Q8.0 10.95 8.0 13.6 L8.0 13.85 Q7.9 15.4 6.85 15.4 L6.3 15.2 5.95 14.95 3.2 15.75 1.15 15.65 0.4 15.45 0.1 15.2 -0.4 15.5 Q-0.7 15.75 -0.95 15.75 L-1.8 15.35 -4.65 16.4 -5.4 16.3 -6.0 16.15 Q-7.0 16.15 -7.25 13.75 L-7.05 12.9" fill="#e3af00" fill-rule="evenodd" stroke="none"/>
    <path d="M11.35 8.35 L14.6 8.45 15.9 8.4 16.3 8.95 16.65 9.55 15.5 9.65 14.65 10.1 14.1 10.4 13.7 10.5 13.2 10.25 13.1 10.15 12.9 10.0 11.55 10.2 Q10.6 10.2 10.5 9.8 L10.15 9.4 8.35 9.5 Q6.65 9.5 6.9 8.95 6.9 8.6 7.4 8.5 L9.25 8.4 11.05 8.35 11.35 8.35 M-13.75 11.0 L-13.75 11.05 Q-13.75 11.6 -14.25 11.6 -14.75 11.6 -14.75 11.05 L-14.65 10.7 Q-14.55 10.55 -14.25 10.55 -13.8 10.55 -13.75 11.0 M17.55 7.95 L17.85 7.9 18.0 7.9 17.7 8.15 17.55 7.95 M18.25 9.3 L18.2 9.35 18.2 9.3 18.25 9.3 M-6.8 8.55 L-6.45 8.8 -6.25 9.2 -6.3 9.4 -6.4 9.5 -6.75 9.7 -7.15 9.55 -9.8 9.75 -12.2 9.55 -12.5 9.2 -13.35 9.35 -13.8 9.2 -14.45 9.6 Q-15.0 10.0 -15.25 10.0 L-15.55 9.9 -16.0 10.2 -16.5 9.95 -17.0 10.0 -17.4 10.1 -17.9 10.0 -18.35 10.0 Q-18.7 10.0 -19.15 9.6 L-18.95 9.05 Q-18.35 9.1 -18.35 8.55 L-18.4 8.25 -18.3 8.25 -17.15 8.3 -16.45 8.4 -15.75 8.5 -15.25 8.4 -14.9 8.5 -14.75 8.6 Q-14.3 8.15 -13.45 8.15 L-12.55 8.2 -11.75 8.45 -11.65 8.5 -10.1 8.65 -9.8 8.75 -9.3 8.65 -9.2 8.6 -7.3 8.5 -7.2 8.5 -6.8 8.55" fill="#c97a05" fill-rule="evenodd" stroke="none"/>
    <path d="M4.75 10.65 Q4.55 11.25 3.25 11.25 L-2.2 10.95 4.35 10.95 4.3 10.5 4.6 10.5 4.75 10.35 4.75 10.65" fill="#000000" fill-rule="evenodd" stroke="none"/>
    <path d="M20.45 21.25 L20.85 20.95 20.85 21.0 20.35 22.05 19.95 22.1 20.45 21.25" fill="#000000" fill-opacity="0.32156864" fill-rule="evenodd" stroke="none"/>
    <path d="M21.25 11.45 L21.15 12.15 21.25 12.45 Q19.4 15.55 18.5 17.6 L15.9 22.05 15.65 22.1 Q13.8 22.65 12.65 23.35 L5.8 23.5 -7.15 23.35 -11.0 23.4 -16.0 23.25 -17.45 21.3 Q-19.85 18.25 -20.65 15.95 L-20.95 15.15 -20.95 14.5 -20.95 12.75 -20.7 11.95 -20.7 11.7 -20.55 11.35 -20.5 10.85 -19.9 9.65 -19.9 9.7 Q-19.25 9.8 -19.15 10.6 L-19.15 10.75 -18.45 12.15 -18.2 12.6 Q-17.55 12.95 -17.45 13.8 L-16.9 15.5 -16.65 16.1 -14.25 19.45 -11.5 19.25 0.2 19.45 8.3 19.7 Q8.35 19.5 8.85 19.25 L9.1 19.1 10.25 18.9 10.9 19.2 11.75 19.0 12.4 19.0 12.45 18.85 Q12.8 18.0 13.6 18.0 L14.05 18.1 15.55 14.9 16.05 13.45 16.45 11.9 Q16.85 10.65 17.85 10.35 L17.85 9.75 Q18.9 8.4 19.4 9.2 L19.65 8.95 Q21.25 10.55 21.25 11.45 M20.05 11.9 L19.9 12.15 19.9 12.25 20.1 11.9 20.1 11.8 20.05 11.9 M-22.95 9.95 L-23.3 11.1 -23.4 11.0 -23.4 10.95 -22.95 9.95" fill="#000000" fill-opacity="0.4" fill-rule="evenodd" stroke="none"/>
    <path d="M17.85 6.85 L18.5 7.3 19.45 8.7 19.9 9.2 19.2 10.1 18.9 10.5 18.85 10.6 17.2 13.85 14.7 17.45 12.85 19.5 12.6 19.5 12.4 19.8 -14.25 20.0 -14.35 19.5 -15.6 17.35 -15.7 17.15 -16.5 16.2 -16.25 16.2 -17.45 13.95 -18.0 13.0 -18.05 13.0 -18.05 12.9 -20.0 9.8 -19.75 9.2 -19.7 9.15 -19.45 8.85 -17.4 11.85 -17.0 11.9 -16.4 13.0 -16.65 13.0 -14.8 16.15 -14.75 16.15 -14.0 17.2 -14.3 17.2 -13.7 18.55 -0.25 18.15 12.75 18.0 13.4 17.0 13.45 16.9 13.55 16.7 13.7 15.95 14.0 15.95 Q14.7 14.65 16.05 12.65 L16.0 12.65 16.3 12.25 16.5 11.8 16.6 11.8 16.95 11.25 17.65 10.25 17.85 9.7 18.65 8.3 7.15 8.55 Q5.45 11.15 5.05 11.15 L4.7 11.1 4.5 11.15 4.35 11.25 0.05 11.5 -3.25 11.6 -3.45 11.65 -3.5 11.65 -3.65 11.65 -3.85 11.65 -4.15 11.7 -4.15 11.6 Q-5.15 11.25 -6.15 9.7 L-6.7 8.75 -19.3 8.6 -18.55 7.55 -7.05 7.1 Q-6.9 6.75 -6.45 6.9 -5.75 7.1 -5.25 8.3 L-3.85 9.5 -3.25 10.05 0.05 9.9 3.15 10.1 4.0 9.35 5.25 8.25 5.8 7.4 5.75 7.2 Q5.75 6.25 7.95 6.5 L9.3 6.75 17.85 6.85 M9.8 16.0 L7.8 13.95 5.8 13.95 -0.1 13.6 -1.3 13.3 -9.15 13.7 -10.1 15.1 -10.75 16.0 -9.7 15.95 -7.7 15.8 -7.75 16.05 -7.7 16.15 -5.15 15.95 -1.2 16.2 5.45 15.8 8.05 15.95 8.1 15.95 8.15 16.0 8.2 16.0 9.6 16.0 9.7 16.0 9.8 16.0 M8.0 17.05 L7.55 16.95 2.3 17.3 -5.2 17.2 -8.1 17.45 -8.5 17.45 -9.0 17.45 -11.2 17.5 -11.8 17.45 -12.0 17.45 -12.4 17.3 -12.2 17.1 -11.95 16.55 -11.75 15.95 -11.45 15.4 -10.7 14.1 -10.2 13.15 -10.3 12.85 -10.2 12.6 -10.2 12.55 -5.9 12.3 -2.75 12.05 0.3 12.35 3.7 12.65 8.8 12.5 Q8.85 12.95 10.65 14.9 L11.1 16.15 11.1 16.75 11.25 17.1 10.45 17.15 9.55 17.1 8.55 17.1 8.0 17.05" fill="#000000" fill-rule="evenodd" stroke="none"/>
    <path d="M-17.75 14.25 Q-18.4 12.95 -20.15 10.65 L-20.3 10.45 -19.75 9.25 Q-18.3 11.05 -17.05 13.4 L-15.55 16.5 -14.4 17.95 -13.4 19.5 -13.6 19.85 Q-13.8 20.0 -13.95 20.0 L-15.15 18.9 -16.4 17.2 -17.75 14.25" fill="#000000" fill-rule="evenodd" stroke="none"/>
    <path d="M10.7 10.0 L11.0 9.85 11.55 9.7 Q12.15 9.7 12.4 10.25 L15.25 9.45 15.8 9.9 16.35 9.8 16.6 9.75 16.8 10.25 16.75 10.95 16.35 10.8 15.7 11.0 Q15.15 11.0 15.0 10.8 L14.9 10.6 14.2 10.8 13.45 10.95 11.95 11.6 Q11.5 11.6 11.4 11.25 L11.4 10.85 11.4 10.8 10.15 11.45 9.75 11.25 8.95 11.6 8.45 11.25 8.45 10.85 7.95 11.05 7.55 11.25 7.1 10.95 7.05 10.65 Q7.05 9.6 7.6 9.6 L8.1 9.85 8.65 9.75 Q9.2 9.75 9.3 9.95 L9.4 10.25 10.25 9.85 10.7 10.0 M-17.45 9.7 L-17.1 9.9 -16.55 10.15 -13.6 10.2 Q-14.1 10.15 -13.7 10.0 L-13.55 9.95 -13.3 9.9 -12.85 10.1 -12.4 10.25 -12.05 10.15 -11.55 10.0 -10.95 10.15 -10.8 10.25 -9.95 9.9 -9.5 10.15 -8.9 10.0 Q-8.55 10.0 -8.35 10.2 L-8.1 10.4 -7.45 10.1 -6.9 9.7 -6.25 9.65 -6.05 10.05 Q-6.05 10.5 -6.7 11.0 -7.4 11.5 -8.3 11.5 L-8.95 11.05 -9.65 11.25 -10.2 11.05 -10.5 11.3 -11.05 11.5 Q-11.45 11.5 -11.6 11.3 L-11.7 11.1 -12.15 11.3 -12.75 11.45 -13.4 11.3 -14.0 11.7 Q-14.6 12.1 -14.9 12.1 -15.7 12.1 -17.0 11.4 L-17.25 11.25 -17.45 10.8 -17.45 9.7" fill="#f89907" fill-rule="evenodd" stroke="none"/>
    <path d="M-17.25 11.25 L-17.1 12.1 -16.5 13.4 Q-16.5 13.9 -17.0 13.9 -17.9 13.9 -18.3 11.5 -18.9 11.35 -19.2 9.8 L-19.05 9.3 -19.1 9.1 Q-19.1 8.6 -18.6 8.6 L-18.5 8.6 -18.1 8.25 Q-17.6 7.9 -17.05 7.9 -16.7 7.9 -16.55 8.15 L-16.45 8.35 Q-16.45 8.7 -17.2 9.05 L-17.45 9.2 -17.45 9.25 -17.45 9.7 -17.45 10.8 -17.25 11.25" fill="#000000" fill-rule="evenodd" stroke="none"/>
    <path d="M-17.15 9.9 L-16.9 9.9 Q-16.15 9.9 -16.1 9.5 L-15.85 9.5 -15.75 9.5 Q-15.75 10.0 -15.1 10.0 -14.35 10.0 -14.35 8.95 L-14.4 8.4 -14.0 8.6 -13.9 8.6 -13.5 8.65 -13.2 8.6 -12.75 8.9 Q-12.3 8.9 -12.25 8.2 L-11.8 8.0 -11.45 8.6 -11.75 8.8 -11.85 8.9 Q-11.0 9.3 -11.0 9.65 L-11.2 10.25 -11.3 10.45 -11.3 10.05 Q-11.3 9.45 -11.55 9.2 -11.9 8.95 -12.55 9.7 L-12.55 9.85 -12.8 9.35 -13.05 9.4 -13.0 9.7 Q-13.0 10.0 -13.65 10.5 -14.25 11.0 -14.55 11.0 L-14.75 11.0 -14.8 11.05 -14.55 11.35 Q-14.9 11.5 -14.9 12.15 L-14.9 12.7 -15.0 12.8 -15.15 12.6 -15.3 12.4 -15.25 11.7 -15.35 11.3 -15.35 10.95 Q-15.35 9.95 -16.1 10.85 L-16.75 11.85 -17.0 11.7 -16.55 11.15 -16.3 10.9 -16.35 10.85 -16.55 10.35 -16.7 10.4 -17.2 10.3 -17.4 10.25 -17.15 9.9 M-14.6 8.25 Q-14.8 8.25 -15.05 8.5 L-15.35 8.85 Q-15.45 8.4 -15.95 8.25 L-16.5 8.3 -16.5 8.2 -16.5 7.55 -16.5 7.4 -16.15 7.4 -15.7 7.35 -15.55 7.5 -14.6 8.25 M-16.55 8.9 L-16.85 8.75 -16.6 8.55 -16.6 8.65 -16.55 8.9 M-19.25 10.55 L-19.1 10.6 -19.2 10.6 -19.25 10.55 M-19.0 12.4 L-18.8 12.4 -18.65 12.45 -19.0 12.4 M-17.15 13.05 L-17.85 13.0 -17.85 12.95 -17.9 12.65 -17.4 12.65 -16.85 12.6 -16.55 12.85 -17.15 13.05 M-14.15 9.15 L-14.1 9.5 -14.05 9.45 -13.7 9.3 -13.85 8.95 -14.1 9.1 -14.15 9.15" fill="#009900" fill-rule="evenodd" stroke="none"/>
    <path d="M-17.5 7.5 L-17.4 7.3 -17.15 6.45 -17.2 5.9 -17.15 5.9 -15.7 7.35 -16.15 7.4 -16.5 7.4 -16.5 7.55 -16.5 8.2 -16.5 8.3 -15.95 8.25 Q-15.45 8.4 -15.35 8.85 L-15.05 8.5 Q-14.8 8.25 -14.6 8.25 L-14.4 8.4 -14.35 8.95 Q-14.35 10.0 -15.1 10.0 -15.75 10.0 -15.75 9.5 L-15.85 9.5 -16.1 9.5 Q-16.15 9.9 -16.9 9.9 L-17.15 9.9 -17.15 9.75 Q-17.15 9.05 -17.7 9.2 L-17.5 8.95 Q-17.5 8.4 -18.1 8.55 L-17.2 8.6 -17.5 7.5 M-21.75 11.9 L-21.7 11.9 -21.75 12.0 -21.75 11.9 M-16.55 8.9 L-16.6 8.65 -16.6 8.55 -16.85 8.75 -16.55 8.9 M-21.8 7.85 L-21.6 7.95 -20.95 8.1 Q-20.35 8.1 -20.05 7.6 L-19.85 7.35 -19.35 7.35 -19.1 7.55 -18.65 7.8 -18.65 8.0 -18.75 8.35 -19.0 8.55 -20.1 8.8 -20.05 9.25 -20.45 10.1 -21.05 10.6 -21.65 10.5 -21.9 10.05 -21.9 10.0 -21.8 9.6 -21.1 8.85 -21.8 8.75 -21.8 8.55 -22.0 8.05 -21.8 7.85 M-18.4 9.55 Q-18.9 9.95 -18.9 10.6 L-18.75 11.1 Q-18.75 11.65 -18.25 11.65 L-17.9 11.5 -17.75 11.5 -17.55 11.5 -17.0 11.7 -16.75 11.85 -16.1 10.85 Q-15.35 9.95 -15.35 10.95 L-15.35 11.3 -15.25 11.7 -15.3 12.4 Q-15.75 11.85 -15.9 11.85 -16.55 11.85 -16.55 12.55 L-16.5 12.85 -16.55 12.85 -16.85 12.6 -17.4 12.65 -17.9 12.65 -17.85 12.95 -17.85 13.0 -17.15 13.05 -17.9 13.7 -18.55 14.65 -18.6 14.65 Q-18.4 14.15 -18.8 13.65 -18.25 13.55 -18.25 13.0 -18.25 12.65 -18.4 12.55 L-18.65 12.45 -18.8 12.4 -19.0 12.4 -19.25 12.4 Q-20.1 12.4 -20.2 12.75 L-20.45 12.35 -20.2 11.95 -19.9 11.25 -19.85 11.25 -19.8 11.25 Q-19.15 11.25 -19.15 10.65 L-19.2 10.6 -19.1 10.6 -19.25 10.55 Q-19.75 10.3 -19.8 9.35 -19.8 8.7 -19.1 8.8 -18.45 8.9 -18.4 9.55 M-12.25 8.2 Q-12.3 8.9 -12.75 8.9 L-13.2 8.6 -13.5 8.65 -13.9 8.6 -12.95 8.45 -12.25 8.2 M-14.35 11.25 L-14.35 11.2 Q-14.35 10.85 -13.4 10.55 -12.95 10.4 -12.7 10.55 L-12.75 10.65 Q-13.1 11.45 -13.8 11.45 L-14.0 11.35 -14.25 11.25 -14.35 11.25" fill="#006600" fill-rule="evenodd" stroke="none"/>
    <path d="M-18.1 8.55 Q-17.5 8.4 -17.5 8.95 L-17.7 9.2 -18.0 9.3 -18.4 9.55 Q-18.45 8.9 -19.1 8.8 -19.8 8.7 -19.8 9.35 -19.75 10.3 -19.25 10.55 L-19.2 10.6 -19.15 10.65 Q-19.15 11.25 -19.8 11.25 L-19.85 11.25 -19.9 11.25 -19.9 11.2 Q-19.9 10.65 -20.4 10.65 L-21.05 10.6 -20.45 10.1 -20.05 9.25 -20.1 8.8 -19.0 8.55 -18.7 8.75 -18.1 8.55 M-21.8 12.25 Q-22.55 12.15 -22.75 11.65 L-21.75 11.9 -21.75 12.0 -21.8 12.25 M-21.8 7.85 L-22.0 8.05 -22.15 7.75 -21.8 7.85 M-21.8 8.75 L-21.1 8.85 -21.8 9.6 -22.0 9.25 -21.8 8.75 M-21.9 10.05 L-21.65 10.5 -22.95 10.2 -22.55 9.85 -21.9 10.05 M-18.75 8.35 L-18.65 8.0 -18.65 7.8 -18.35 7.85 -17.8 7.75 Q-17.8 8.35 -18.55 8.35 L-18.75 8.35 M-19.35 7.35 L-19.85 7.35 -19.65 7.05 -19.35 7.35 M-20.2 12.75 Q-20.1 12.4 -19.25 12.4 L-19.0 12.4 -18.65 12.45 -18.4 12.55 Q-18.25 12.65 -18.25 13.0 -18.25 13.55 -18.8 13.65 L-18.85 13.55 Q-19.35 12.95 -20.25 12.95 L-20.25 12.85 -20.2 12.75 M-17.9 11.5 L-18.25 11.65 Q-18.75 11.65 -18.75 11.1 -18.55 11.45 -17.9 11.5" fill="#009500" fill-rule="evenodd" stroke="none"/>
    <path d="M-15.7 7.35 L-17.15 5.9 -17.2 5.9 -17.15 6.45 -17.4 7.3 -17.5 7.5 -17.8 7.75 -18.35 7.85 -18.65 7.8 -19.1 7.55 -19.35 7.35 -19.65 7.05 -19.85 7.35 -20.05 7.6 Q-20.35 8.1 -20.95 8.1 L-21.6 7.95 -21.8 7.85 -22.15 7.75 -22.0 8.05 -21.8 8.55 -21.8 8.75 -22.0 9.25 -22.05 9.3 -22.55 9.85 -22.95 10.2 -21.65 10.5 -21.05 10.6 -20.4 10.65 Q-19.9 10.65 -19.9 11.2 L-19.9 11.25 -20.2 11.95 -20.45 12.35 -20.65 12.85 -20.65 12.95 -20.25 12.95 Q-19.35 12.95 -18.85 13.55 L-18.8 13.65 Q-18.4 14.15 -18.6 14.65 L-18.65 14.7 -18.65 14.75 -18.55 14.65 -17.9 13.7 -17.15 13.05 -16.55 12.85 -16.5 12.85 -16.55 12.55 Q-16.55 11.85 -15.9 11.85 -15.75 11.85 -15.3 12.4 L-15.15 12.6 -15.0 12.8 -14.65 13.35 Q-14.65 13.85 -14.95 13.95 L-15.75 13.95 Q-16.45 13.95 -17.45 15.3 -18.4 16.6 -19.0 16.6 -20.0 16.6 -20.05 15.6 L-19.9 14.4 -19.9 14.35 Q-19.9 14.25 -20.05 14.25 -20.4 14.25 -20.65 14.7 -20.95 15.1 -21.55 15.1 -22.25 15.1 -22.3 14.5 L-21.8 12.25 -21.75 12.0 -21.7 11.9 -21.75 11.9 -22.75 11.65 Q-23.75 11.35 -24.25 10.95 -24.8 10.55 -24.8 9.95 L-24.35 9.45 Q-23.7 9.15 -23.4 8.85 -23.9 8.35 -24.4 8.1 L-24.65 7.75 -24.25 7.35 -23.55 6.8 -23.5 6.25 Q-23.3 5.85 -22.75 5.85 -22.45 5.85 -21.9 6.2 L-21.2 6.65 Q-20.55 5.5 -19.8 5.5 -19.5 5.5 -19.0 5.85 L-18.45 6.25 Q-18.8 5.9 -18.8 5.2 -18.8 2.05 -14.25 6.85 -14.1 6.8 -14.05 7.05 L-13.9 7.2 -11.55 6.6 Q-10.65 6.6 -10.45 7.2 L-10.4 7.8 Q-10.4 8.75 -10.95 8.75 L-11.45 8.6 -11.8 8.0 -12.25 8.2 -12.95 8.45 -13.9 8.6 -14.0 8.6 -14.4 8.4 -14.6 8.25 -15.55 7.5 -15.7 7.35 M-17.7 9.2 Q-17.15 9.05 -17.15 9.75 L-17.15 9.9 -17.4 10.25 -17.2 10.3 Q-16.8 10.45 -16.8 10.9 -16.8 11.45 -17.55 11.5 L-17.75 11.5 -17.9 11.5 Q-18.55 11.45 -18.75 11.1 L-18.9 10.6 Q-18.9 9.95 -18.4 9.55 L-18.0 9.3 -17.7 9.2 M-11.3 10.45 Q-11.5 11.4 -12.35 12.2 -13.3 13.1 -14.1 13.1 -14.8 13.1 -14.9 12.7 L-14.9 12.15 Q-14.9 11.5 -14.55 11.35 L-14.35 11.25 -14.25 11.25 -14.0 11.35 -13.8 11.45 Q-13.1 11.45 -12.75 10.65 L-12.7 10.55 -12.55 9.85 -12.55 9.7 Q-11.9 8.95 -11.55 9.2 -11.3 9.45 -11.3 10.05 L-11.3 10.45" fill="#000000" fill-rule="evenodd" stroke="none"/>
  </g>
</svg>
