<?xml version="1.0" encoding="UTF-8" standalone="no"?>
<svg xmlns:ffdec="https://www.free-decompiler.com/flash" xmlns:xlink="http://www.w3.org/1999/xlink" ffdec:objectType="shape" height="35.35px" width="12.55px" xmlns="http://www.w3.org/2000/svg">
  <g transform="matrix(1.0, 0.0, 0.0, 1.0, 6.9, 19.0)">
    <path d="M-2.35 -2.1 L-2.35 -9.9 2.15 -9.9 2.15 -2.1 -2.35 -2.1 M2.15 8.4 L2.15 15.0 -2.35 15.0 -2.35 8.4 2.15 8.4" fill="#ff6600" fill-rule="evenodd" stroke="none"/>
    <path d="M-2.35 -2.1 L-2.35 -9.9 2.15 -9.9 2.15 -2.1 M2.15 8.4 L2.15 15.0 -2.35 15.0 -2.35 8.4" fill="none" stroke="#990000" stroke-linecap="round" stroke-linejoin="round" stroke-width="1.0"/>
    <path d="M2.15 8.4 L-2.35 8.4 -2.35 -2.1 2.15 -2.1 2.15 8.4" fill="#ff6600" fill-rule="evenodd" stroke="none"/>
    <path d="M-2.35 8.4 L-2.35 -2.1 M2.15 -2.1 L2.15 8.4" fill="none" stroke="#990000" stroke-linecap="round" stroke-linejoin="round" stroke-width="1.0"/>
    <path d="M4.35 -10.7 Q4.35 -8.8 3.0 -7.5 1.7 -6.15 -0.2 -6.15 -2.1 -6.15 -3.45 -7.5 -4.75 -8.8 -4.75 -10.7 L-4.7 -11.25 Q-4.55 -12.8 -3.45 -13.95 -2.1 -15.25 -0.2 -15.25 1.7 -15.25 3.0 -13.95 4.15 -12.8 4.35 -11.25 L4.35 -10.7" fill="#ff6600" fill-rule="evenodd" stroke="none"/>
    <path d="M4.35 -10.7 Q4.35 -8.8 3.0 -7.5 1.7 -6.15 -0.2 -6.15 -2.1 -6.15 -3.45 -7.5 -4.75 -8.8 -4.75 -10.7 L-4.7 -11.25 Q-4.55 -12.8 -3.45 -13.95 -2.1 -15.25 -0.2 -15.25 1.7 -15.25 3.0 -13.95 4.15 -12.8 4.35 -11.25 L4.35 -10.7 Z" fill="none" stroke="#990000" stroke-linecap="round" stroke-linejoin="round" stroke-width="1.0"/>
    <path d="M0.55 -15.65 L1.0 -15.55 0.8 -15.55 0.7 -15.5 0.55 -15.65 M1.35 -15.45 L1.5 -15.4 1.4 -15.4 1.35 -15.45 M1.6 -15.35 L3.1 -14.4 4.15 -12.85 3.8 -13.4 3.0 -14.2 2.45 -14.8 1.85 -15.2 1.6 -15.35 M2.65 -5.9 L2.65 -5.8 2.6 -5.7 2.3 -5.9 2.65 -5.9 M2.6 -2.2 L2.6 -2.1 2.6 -2.2 M-2.75 -2.1 L-2.8 -2.1 -2.75 -2.8 -2.75 -2.1 M-2.65 -6.35 L-2.65 -6.4 -3.5 -6.95 -3.0 -6.9 -2.75 -6.9 -2.5 -6.85 -2.4 -6.85 -2.25 -6.7 -2.2 -6.6 -2.2 -6.5 -2.15 -6.4 -2.0 -6.3 -1.75 -6.25 -1.65 -6.25 -1.55 -6.25 -1.5 -6.2 -1.5 -6.1 -1.5 -6.0 -1.5 -5.9 -1.5 -5.8 -1.5 -5.75 -1.5 -5.65 -1.5 -5.55 -1.5 -5.45 -1.5 -5.35 -1.5 -5.25 -1.5 -5.15 -1.5 -5.05 -1.5 -5.0 -1.5 -4.9 -1.5 -4.8 -1.5 -4.7 -1.5 -4.6 -1.5 -4.5 -1.5 -4.4 -1.5 -4.3 -1.5 -4.25 -1.5 -4.15 -1.5 -3.95 -1.55 -3.85 -1.55 -3.75 -1.55 -3.65 -1.55 -3.6 -1.8 -5.45 -2.0 -6.15 Q-2.2 -6.35 -2.55 -6.35 L-2.65 -6.35 M-3.85 -7.35 L-3.95 -7.45 -3.9 -7.4 -3.85 -7.35 M-4.95 -9.85 L-5.05 -9.95 -4.95 -11.25 -4.9 -11.55 -4.9 -11.35 -4.9 -11.25 -4.85 -10.35 -4.95 -9.85 M-4.8 -12.45 L-4.8 -12.6 -4.6 -13.2 -4.8 -12.45 M-2.0 -9.4 L-2.05 -9.45 -2.25 -9.5 -2.5 -9.5 -2.75 -9.45 -2.9 -9.35 -2.95 -9.25 -2.95 -9.15 -3.0 -9.05 -3.0 -9.0 -3.0 -8.9 -2.95 -8.8 -2.9 -8.7 -3.0 -8.7 -3.15 -8.9 -3.15 -9.15 -3.6 -11.25 -3.65 -11.4 -3.0 -13.0 -2.8 -13.3 -2.55 -13.5 -1.65 -14.15 -0.5 -14.35 -0.5 -14.15 Q-0.5 -12.3 -0.9 -11.4 L-0.95 -11.25 Q-1.35 -10.15 -2.0 -9.4 M1.4 -5.95 L1.3 -5.75 1.25 -5.85 1.25 -5.9 1.4 -5.95 M3.45 -8.9 L3.5 -8.95 3.6 -8.9 3.5 -8.7 3.35 -8.65 3.45 -8.9 M-0.9 8.4 L-0.9 8.5 -0.9 8.6 -0.9 8.7 -0.9 8.75 -0.9 8.85 -0.9 8.95 -0.9 9.05 -0.85 9.15 -0.8 9.25 -0.65 9.35 -0.45 9.4 -0.5 11.25 -0.5 11.45 -0.5 13.45 -0.55 13.9 -0.85 13.85 Q-1.0 13.85 -1.25 14.0 L-1.55 13.75 -1.55 14.1 -1.4 14.1 -1.9 14.2 -1.9 8.4 -0.9 8.4 M2.5 12.45 L2.45 11.25 2.25 8.4 2.5 8.4 2.6 10.75 2.6 10.85 2.55 10.95 2.5 11.05 2.5 11.1 2.5 11.25 2.5 12.45 M-3.15 9.0 L-3.15 8.4 -3.1 8.4 -3.15 9.0" fill="#ffcc33" fill-rule="evenodd" stroke="none"/>
    <path d="M1.5 -15.4 L1.6 -15.35 1.85 -15.2 2.45 -14.8 3.0 -14.2 3.8 -13.4 4.15 -12.85 4.95 -11.25 5.05 -10.75 5.05 -10.7 Q4.85 -10.5 4.9 -10.15 L4.85 -10.05 4.8 -9.85 4.75 -9.65 4.7 -9.45 4.55 -9.1 4.5 -8.8 4.45 -8.65 4.25 -8.25 4.05 -7.85 3.95 -7.6 3.0 -6.75 2.75 -6.2 2.75 -6.1 2.75 -6.0 2.75 -5.95 2.65 -5.9 2.3 -5.9 2.6 -5.7 2.5 -5.4 2.5 -5.0 2.5 -4.75 2.5 -4.5 2.5 -4.45 2.5 -4.25 2.5 -3.8 2.5 -3.75 2.55 -3.6 2.6 -3.5 2.65 -2.5 2.6 -2.2 2.6 -2.1 0.75 -2.1 0.75 -2.15 0.75 -2.25 0.75 -2.35 0.75 -2.45 0.75 -2.55 0.75 -2.65 0.75 -2.75 0.75 -2.8 0.75 -2.9 0.75 -3.0 0.75 -3.1 0.75 -3.2 0.75 -3.3 0.75 -3.4 0.75 -3.5 0.75 -3.55 0.75 -3.65 0.75 -3.75 0.75 -3.85 0.7 -3.95 0.7 -4.05 0.7 -4.15 0.7 -4.25 0.7 -4.3 0.7 -4.4 0.75 -4.5 0.75 -4.6 0.75 -4.7 0.75 -4.8 0.75 -4.9 0.75 -5.0 0.75 -5.05 0.75 -5.15 0.75 -5.25 0.75 -5.35 0.75 -5.45 0.75 -5.55 0.75 -5.65 0.75 -5.75 0.75 -5.8 0.8 -5.9 0.8 -6.0 0.8 -6.1 0.85 -6.2 0.85 -6.3 0.85 -6.4 0.85 -6.5 0.85 -6.55 0.85 -6.65 0.85 -6.75 0.85 -6.85 0.85 -6.9 1.1 -6.85 1.25 -6.85 1.45 -6.9 1.55 -6.95 1.6 -7.05 1.7 -7.15 1.7 -7.25 1.8 -7.3 1.95 -7.4 2.05 -7.5 2.15 -7.6 2.25 -7.7 2.35 -7.8 2.45 -7.9 2.55 -8.0 2.6 -8.05 2.7 -8.15 2.8 -8.25 2.85 -8.35 2.85 -8.45 2.95 -8.55 2.95 -8.65 3.05 -8.75 3.05 -8.8 3.1 -8.9 3.15 -9.0 3.2 -9.1 3.25 -9.2 3.3 -9.3 3.3 -9.4 3.35 -9.5 3.35 -9.55 3.35 -9.65 3.3 -9.75 3.25 -9.85 3.25 -9.9 3.25 -10.0 3.25 -10.05 3.25 -10.15 3.25 -10.25 3.25 -10.35 3.25 -10.45 3.25 -10.55 3.25 -10.65 3.25 -10.75 3.25 -10.8 3.25 -10.9 3.25 -11.0 3.25 -11.1 3.25 -11.2 3.25 -11.3 3.25 -11.4 3.2 -11.5 3.2 -11.55 3.1 -11.65 3.1 -11.75 3.05 -11.85 3.0 -11.95 3.0 -12.0 3.0 -12.1 3.0 -12.2 3.0 -12.3 2.95 -12.4 2.95 -12.5 2.95 -12.55 2.9 -12.65 2.85 -12.75 2.85 -12.85 2.8 -12.95 2.75 -13.05 2.7 -13.15 2.6 -13.25 2.5 -13.3 2.45 -13.4 2.45 -13.45 2.4 -13.55 2.35 -13.65 2.3 -13.75 2.2 -13.8 2.15 -13.9 2.05 -14.0 2.0 -14.1 1.95 -14.2 1.8 -14.3 1.75 -14.3 1.75 -14.4 1.75 -14.5 1.7 -14.6 1.7 -14.7 1.65 -14.8 1.6 -14.9 1.6 -15.0 1.6 -15.05 1.55 -15.15 1.5 -15.25 1.45 -15.35 1.4 -15.4 1.5 -15.4 M1.6 -11.95 L1.6 -11.9 1.65 -11.8 1.7 -11.7 1.75 -11.65 1.7 -11.55 1.6 -11.5 1.6 -11.4 1.6 -11.3 1.6 -11.2 1.6 -11.1 1.55 -11.0 1.55 -10.9 1.55 -10.8 1.5 -10.75 1.5 -10.65 1.5 -10.55 1.45 -10.45 1.4 -10.35 1.35 -10.25 1.3 -10.15 1.3 -10.05 1.2 -10.0 1.15 -9.9 1.1 -9.8 1.1 -9.7 1.05 -9.6 1.05 -9.5 0.95 -9.4 0.85 -9.3 0.8 -9.25 0.65 -9.15 0.6 -9.05 0.5 -8.95 0.35 -8.85 0.2 -8.85 0.55 -9.4 Q1.25 -9.55 1.5 -11.25 L1.55 -11.75 1.6 -11.95 M-2.4 -6.85 L-2.3 -6.9 -2.25 -6.9 -2.25 -6.8 -2.25 -6.7 -2.4 -6.85 M3.45 -8.9 L3.35 -8.65 3.5 -8.7 3.6 -8.9 3.5 -8.95 3.45 -8.9 M1.4 -5.95 L1.25 -5.9 1.25 -5.85 1.3 -5.75 1.4 -5.95 M-0.45 9.4 L-0.4 9.4 -0.2 9.35 -0.05 9.25 0.0 9.15 0.05 9.05 0.1 8.95 0.1 8.85 0.1 8.75 0.1 8.7 0.1 8.6 0.1 8.5 0.2 8.4 2.25 8.4 2.45 11.25 2.5 12.45 2.5 12.85 2.5 13.3 2.5 14.75 2.45 15.1 Q2.3 16.1 1.8 16.1 1.4 16.1 1.15 15.65 0.95 16.35 0.6 16.35 0.1 16.35 -0.2 15.6 L0.1 15.1 Q0.1 14.7 -0.25 14.55 L-0.25 14.5 Q-0.2 14.0 -0.55 13.9 L-0.5 13.45 -0.5 11.45 -0.5 11.25 -0.45 9.4 M-0.15 -6.9 L-0.15 -6.8 -0.15 -6.75 -0.2 -6.8 -0.4 -6.85 -0.4 -6.8 -0.5 -6.8 -0.5 -6.85 -0.3 -6.95 -0.15 -6.95 -0.15 -6.9" fill="#ff9900" fill-rule="evenodd" stroke="none"/>
    <path d="M-4.6 -13.2 Q-4.0 -14.85 -2.2 -15.6 L0.1 -15.9 0.55 -15.65 0.7 -15.5 0.55 -15.4 0.45 -15.3 0.35 -15.25 0.35 -15.15 0.3 -15.05 0.3 -14.95 0.25 -14.85 0.25 -14.75 0.25 -14.65 0.3 -14.55 0.35 -14.5 0.4 -14.4 0.55 -14.3 0.45 -14.3 0.25 -14.2 0.1 -14.1 -0.05 -14.0 -0.15 -13.9 -0.2 -13.8 -0.25 -13.75 -0.25 -13.65 -0.25 -13.55 -0.2 -13.45 -0.2 -13.35 -0.15 -13.25 0.0 -13.15 0.25 -13.1 0.5 -13.15 0.6 -13.25 0.65 -13.25 0.7 -13.15 0.85 -13.05 1.05 -13.0 1.1 -12.9 1.15 -12.8 1.2 -12.75 1.3 -12.65 1.35 -12.55 1.45 -12.45 1.55 -12.35 1.6 -12.25 1.6 -12.15 1.6 -12.05 1.6 -11.95 1.55 -11.75 1.5 -11.25 Q1.25 -9.55 0.55 -9.4 L0.2 -8.85 0.0 -8.85 -0.2 -8.8 -0.25 -8.8 -0.4 -8.75 -0.6 -8.75 -0.7 -8.65 -0.85 -8.55 -1.0 -8.5 -1.0 -8.55 -1.05 -8.65 -1.1 -8.75 -1.15 -8.85 -1.3 -8.95 -1.45 -9.05 -1.65 -9.1 -1.65 -9.05 -1.7 -9.15 -1.85 -9.25 -1.9 -9.35 -2.0 -9.4 Q-1.35 -10.15 -0.95 -11.25 L-0.9 -11.4 Q-0.5 -12.3 -0.5 -14.15 L-0.5 -14.35 -1.65 -14.15 -2.55 -13.5 -2.8 -13.3 -3.0 -13.0 -3.65 -11.4 -3.6 -11.25 -3.15 -9.15 -3.15 -8.9 -3.0 -8.7 -2.9 -8.7 -2.85 -8.6 -2.8 -8.5 -2.65 -8.4 -2.5 -8.3 -2.45 -8.3 -2.55 -8.25 -2.6 -8.15 -2.7 -8.05 -2.8 -7.95 -2.9 -7.85 -2.95 -7.75 -2.95 -7.65 -3.0 -7.55 -3.0 -7.5 -3.0 -7.4 -3.0 -7.3 -2.95 -7.2 -2.95 -7.1 -2.9 -7.0 -2.75 -6.9 -3.0 -6.9 -3.5 -6.95 -3.85 -7.35 -3.9 -7.4 -3.95 -7.45 -4.3 -7.85 -4.65 -8.45 -5.0 -9.5 -4.95 -9.85 -4.85 -10.35 -4.9 -11.25 -4.9 -11.35 -4.9 -11.55 -4.8 -12.45 -4.6 -13.2 M-1.75 -2.1 L-2.75 -2.1 -2.75 -2.8 -2.75 -2.9 -2.85 -3.75 -3.0 -4.5 -3.25 -5.65 -3.05 -6.15 -2.65 -6.35 -2.55 -6.35 Q-2.2 -6.35 -2.0 -6.15 L-1.8 -5.45 -1.55 -3.6 -1.6 -3.55 -1.6 -3.5 -1.65 -3.4 -1.65 -3.3 -1.65 -3.2 -1.65 -3.1 -1.7 -3.0 -1.7 -2.9 -1.7 -2.8 -1.7 -2.75 -1.7 -2.65 -1.7 -2.55 -1.75 -2.45 -1.75 -2.35 -1.75 -2.25 -1.75 -2.15 -1.75 -2.1 M-0.55 13.9 Q-0.2 14.0 -0.25 14.5 L-0.25 14.55 Q0.1 14.7 0.1 15.1 L-0.2 15.6 -1.0 15.7 Q-2.85 15.7 -3.35 15.2 L-3.5 14.4 Q-3.5 13.75 -3.1 13.35 L-3.15 13.0 -3.15 11.25 -3.15 10.55 -3.15 9.0 -3.1 8.4 -1.9 8.4 -1.9 14.2 -1.4 14.1 -1.35 14.05 -1.25 14.0 Q-1.0 13.85 -0.85 13.85 L-0.55 13.9 M-1.75 -7.55 L-1.7 -7.65 -1.65 -7.75 -1.65 -7.65 -1.65 -7.55 -1.65 -7.45 -1.8 -7.35 -1.85 -7.3 -1.85 -7.35 -1.8 -7.45 -1.75 -7.55" fill="#ffcc00" fill-rule="evenodd" stroke="none"/>
    <path d="M1.0 -15.55 L1.0 -15.6 1.2 -15.55 1.35 -15.45 1.4 -15.4 1.45 -15.35 1.5 -15.25 1.55 -15.15 1.6 -15.05 1.6 -15.0 1.6 -14.9 1.65 -14.8 1.7 -14.7 1.7 -14.6 1.75 -14.5 1.75 -14.4 1.75 -14.3 1.8 -14.3 1.95 -14.2 2.0 -14.1 2.05 -14.0 2.15 -13.9 2.2 -13.8 2.3 -13.75 2.35 -13.65 2.4 -13.55 2.45 -13.45 2.45 -13.4 2.5 -13.3 2.6 -13.25 2.7 -13.15 2.75 -13.05 2.8 -12.95 2.85 -12.85 2.85 -12.75 2.9 -12.65 2.95 -12.55 2.95 -12.5 2.95 -12.4 3.0 -12.3 3.0 -12.2 3.0 -12.1 3.0 -12.0 3.0 -11.95 3.05 -11.85 3.1 -11.75 3.1 -11.65 3.2 -11.55 3.2 -11.5 3.25 -11.4 3.25 -11.3 3.25 -11.2 3.25 -11.1 3.25 -11.0 3.25 -10.9 3.25 -10.8 3.25 -10.75 3.25 -10.65 3.25 -10.55 3.25 -10.45 3.25 -10.35 3.25 -10.25 3.25 -10.15 3.25 -10.05 3.25 -10.0 3.25 -9.9 3.25 -9.85 3.3 -9.75 3.35 -9.65 3.35 -9.55 3.35 -9.5 3.3 -9.4 3.3 -9.3 3.25 -9.2 3.2 -9.1 3.15 -9.0 3.1 -8.9 3.05 -8.8 3.05 -8.75 2.95 -8.65 2.95 -8.55 2.85 -8.45 2.85 -8.35 2.8 -8.25 2.7 -8.15 2.6 -8.05 2.55 -8.0 2.45 -7.9 2.35 -7.8 2.25 -7.7 2.15 -7.6 2.05 -7.5 1.95 -7.4 1.8 -7.3 1.7 -7.25 1.7 -7.15 1.6 -7.05 1.55 -6.95 1.45 -6.9 1.25 -6.85 1.1 -6.85 0.85 -6.9 0.85 -6.85 0.85 -6.75 0.85 -6.65 0.85 -6.55 0.85 -6.5 0.85 -6.4 0.85 -6.3 0.85 -6.2 0.8 -6.1 0.8 -6.0 0.8 -5.9 0.75 -5.8 0.75 -5.75 0.75 -5.65 0.75 -5.55 0.75 -5.45 0.75 -5.35 0.75 -5.25 0.75 -5.15 0.75 -5.05 0.75 -5.0 0.75 -4.9 0.75 -4.8 0.75 -4.7 0.75 -4.6 0.75 -4.5 0.7 -4.4 0.7 -4.3 0.7 -4.25 0.7 -4.15 0.7 -4.05 0.7 -3.95 0.75 -3.85 0.75 -3.75 0.75 -3.65 0.75 -3.55 0.75 -3.5 0.75 -3.4 0.75 -3.3 0.75 -3.2 0.75 -3.1 0.75 -3.0 0.75 -2.9 0.75 -2.8 0.75 -2.75 0.75 -2.65 0.75 -2.55 0.75 -2.45 0.75 -2.35 0.75 -2.25 0.75 -2.15 0.75 -2.1 -1.75 -2.1 -1.75 -2.15 -1.75 -2.25 -1.75 -2.35 -1.75 -2.45 -1.7 -2.55 -1.7 -2.65 -1.7 -2.75 -1.7 -2.8 -1.7 -2.9 -1.7 -3.0 -1.65 -3.1 -1.65 -3.2 -1.65 -3.3 -1.65 -3.4 -1.6 -3.5 -1.6 -3.55 -1.55 -3.6 -1.55 -3.65 -1.55 -3.75 -1.55 -3.85 -1.5 -3.95 -1.5 -4.15 -1.5 -4.25 -1.5 -4.3 -1.5 -4.4 -1.5 -4.5 -1.5 -4.6 -1.5 -4.7 -1.5 -4.8 -1.5 -4.9 -1.5 -5.0 -1.5 -5.05 -1.5 -5.15 -1.5 -5.25 -1.5 -5.35 -1.5 -5.45 -1.5 -5.55 -1.5 -5.65 -1.5 -5.75 -1.5 -5.8 -1.5 -5.9 -1.5 -6.0 -1.5 -6.1 -1.5 -6.2 -1.55 -6.25 -1.65 -6.25 -1.75 -6.25 -2.0 -6.3 -2.15 -6.4 -2.2 -6.5 -2.2 -6.6 -2.25 -6.7 -2.25 -6.8 -2.25 -6.9 -2.3 -6.9 -2.4 -6.85 -2.5 -6.85 -2.75 -6.9 -2.9 -7.0 -2.95 -7.1 -2.95 -7.2 -3.0 -7.3 -3.0 -7.4 -3.0 -7.5 -3.0 -7.55 -2.95 -7.65 -2.95 -7.75 -2.9 -7.85 -2.8 -7.95 -2.7 -8.05 -2.6 -8.15 -2.55 -8.25 -2.45 -8.3 -2.5 -8.3 -2.65 -8.4 -2.8 -8.5 -2.85 -8.6 -2.9 -8.7 -2.95 -8.8 -3.0 -8.9 -3.0 -9.0 -3.0 -9.05 -2.95 -9.15 -2.95 -9.25 -2.9 -9.35 -2.75 -9.45 -2.5 -9.5 -2.25 -9.5 -2.05 -9.45 -2.0 -9.4 -1.9 -9.35 -1.85 -9.25 -1.7 -9.15 -1.65 -9.05 -1.65 -9.1 -1.45 -9.05 -1.3 -8.95 -1.15 -8.85 -1.1 -8.75 -1.05 -8.65 -1.0 -8.55 -1.0 -8.5 -0.85 -8.55 -0.7 -8.65 -0.6 -8.75 -0.4 -8.75 -0.25 -8.8 -0.2 -8.8 0.0 -8.85 0.2 -8.85 0.35 -8.85 0.5 -8.95 0.6 -9.05 0.65 -9.15 0.8 -9.25 0.85 -9.3 0.95 -9.4 1.05 -9.5 1.05 -9.6 1.1 -9.7 1.1 -9.8 1.15 -9.9 1.2 -10.0 1.3 -10.05 1.3 -10.15 1.35 -10.25 1.4 -10.35 1.45 -10.45 1.5 -10.55 1.5 -10.65 1.5 -10.75 1.55 -10.8 1.55 -10.9 1.55 -11.0 1.6 -11.1 1.6 -11.2 1.6 -11.3 1.6 -11.4 1.6 -11.5 1.7 -11.55 1.75 -11.65 1.7 -11.7 1.65 -11.8 1.6 -11.9 1.6 -11.95 1.6 -12.05 1.6 -12.15 1.6 -12.25 1.55 -12.35 1.45 -12.45 1.35 -12.55 1.3 -12.65 1.2 -12.75 1.15 -12.8 1.1 -12.9 1.05 -13.0 0.85 -13.05 0.7 -13.15 0.65 -13.25 0.6 -13.25 0.5 -13.15 0.25 -13.1 0.0 -13.15 -0.15 -13.25 -0.2 -13.35 -0.2 -13.45 -0.25 -13.55 -0.25 -13.65 -0.25 -13.75 -0.2 -13.8 -0.15 -13.9 -0.05 -14.0 0.1 -14.1 0.25 -14.2 0.45 -14.3 0.55 -14.3 0.4 -14.4 0.35 -14.5 0.3 -14.55 0.25 -14.65 0.25 -14.75 0.25 -14.85 0.3 -14.95 0.3 -15.05 0.35 -15.15 0.35 -15.25 0.45 -15.3 0.55 -15.4 0.7 -15.5 0.8 -15.55 1.0 -15.55 M0.2 8.4 L0.1 8.5 0.1 8.6 0.1 8.7 0.1 8.75 0.1 8.85 0.1 8.95 0.05 9.05 0.0 9.15 -0.05 9.25 -0.2 9.35 -0.4 9.4 -0.45 9.4 -0.65 9.35 -0.8 9.25 -0.85 9.15 -0.9 9.05 -0.9 8.95 -0.9 8.85 -0.9 8.75 -0.9 8.7 -0.9 8.6 -0.9 8.5 -0.9 8.4 0.2 8.4 M-1.75 -7.55 L-1.8 -7.45 -1.85 -7.35 -1.85 -7.3 -1.8 -7.35 -1.65 -7.45 -1.65 -7.55 -1.65 -7.65 -1.65 -7.75 -1.7 -7.65 -1.75 -7.55 M-0.15 -6.9 L-0.15 -6.95 -0.3 -6.95 -0.5 -6.85 -0.5 -6.8 -0.4 -6.8 -0.4 -6.85 -0.2 -6.8 -0.15 -6.75 -0.15 -6.8 -0.15 -6.9" fill="#dfb300" fill-rule="evenodd" stroke="none"/>
    <path d="M0.2 8.4 L0.2 8.3 0.25 8.2 0.25 8.1 0.25 8.0 0.25 7.95 0.25 7.85 0.25 7.75 0.25 7.65 0.3 7.55 0.3 7.45 0.3 7.35 0.3 7.25 0.3 7.2 0.35 7.1 0.35 7.0 0.35 6.9 0.35 6.8 0.35 6.7 0.35 6.6 0.35 6.5 0.35 6.45 0.35 6.35 0.35 6.25 0.35 6.15 0.35 6.05 0.35 5.95 0.35 5.85 0.35 5.75 0.35 5.7 0.35 5.6 0.35 5.5 0.35 5.4 0.35 5.3 0.35 5.2 0.35 5.1 0.35 5.0 0.4 4.95 0.45 4.85 0.6 4.75 0.65 4.65 0.7 4.55 0.75 4.45 0.75 4.35 0.75 4.25 0.75 4.2 0.75 4.1 0.75 4.0 0.75 3.9 0.75 3.8 0.75 3.7 0.75 3.6 0.75 3.5 0.75 3.45 0.75 3.35 0.75 3.25 0.75 3.15 0.8 3.05 0.8 2.95 0.8 2.85 0.8 2.75 0.8 2.7 0.85 2.6 0.85 2.5 0.85 2.4 0.85 2.3 0.85 2.2 0.85 2.1 0.85 1.95 0.85 1.85 0.9 1.75 0.9 1.7 0.95 1.6 0.95 1.5 1.0 1.4 1.0 1.3 1.05 1.2 1.05 1.1 1.1 1.0 1.1 0.95 1.1 0.85 1.05 0.75 1.0 0.65 0.95 0.55 0.8 0.45 0.8 0.35 0.8 0.25 0.8 0.15 0.75 0.05 0.75 -0.05 0.75 -0.15 0.75 -0.25 0.75 -0.3 0.75 -0.4 0.75 -0.5 0.75 -0.6 0.75 -0.7 0.75 -0.8 0.75 -0.9 0.75 -0.95 0.75 -1.05 0.75 -1.15 0.75 -1.25 0.75 -1.3 0.75 -1.4 0.75 -1.5 0.75 -1.6 0.75 -1.7 0.75 -1.8 0.75 -1.9 0.75 -2.0 0.75 -2.1 2.6 -2.1 2.25 0.25 2.15 5.1 2.1 6.2 2.2 7.7 2.25 8.4 0.2 8.4" fill="#ff9900" fill-rule="evenodd" stroke="none"/>
    <path d="M0.75 -2.1 L0.75 -2.0 0.75 -1.9 0.75 -1.8 0.75 -1.7 0.75 -1.6 0.75 -1.5 0.75 -1.4 0.75 -1.3 0.75 -1.25 0.75 -1.15 0.75 -1.05 0.75 -0.95 0.75 -0.9 0.75 -0.8 0.75 -0.7 0.75 -0.6 0.75 -0.5 0.75 -0.4 0.75 -0.3 0.75 -0.25 0.75 -0.15 0.75 -0.05 0.75 0.05 0.8 0.15 0.8 0.25 0.8 0.35 0.8 0.45 0.95 0.55 1.0 0.65 1.05 0.75 1.1 0.85 1.1 0.95 1.1 1.0 1.05 1.1 1.05 1.2 1.0 1.3 1.0 1.4 0.95 1.5 0.95 1.6 0.9 1.7 0.9 1.75 0.85 1.85 0.85 1.95 0.85 2.1 0.85 2.2 0.85 2.3 0.85 2.4 0.85 2.5 0.85 2.6 0.8 2.7 0.8 2.75 0.8 2.85 0.8 2.95 0.8 3.05 0.75 3.15 0.75 3.25 0.75 3.35 0.75 3.45 0.75 3.5 0.75 3.6 0.75 3.7 0.75 3.8 0.75 3.9 0.75 4.0 0.75 4.1 0.75 4.2 0.75 4.25 0.75 4.35 0.75 4.45 0.7 4.55 0.65 4.65 0.6 4.75 0.45 4.85 0.4 4.95 0.35 5.0 0.35 5.1 0.35 5.2 0.35 5.3 0.35 5.4 0.35 5.5 0.35 5.6 0.35 5.7 0.35 5.75 0.35 5.85 0.35 5.95 0.35 6.05 0.35 6.15 0.35 6.25 0.35 6.35 0.35 6.45 0.35 6.5 0.35 6.6 0.35 6.7 0.35 6.8 0.35 6.9 0.35 7.0 0.35 7.1 0.3 7.2 0.3 7.25 0.3 7.35 0.3 7.45 0.3 7.55 0.25 7.65 0.25 7.75 0.25 7.85 0.25 7.95 0.25 8.0 0.25 8.1 0.25 8.2 0.2 8.3 0.2 8.4 -0.9 8.4 -0.9 8.3 -0.9 8.2 -0.9 8.1 -0.9 8.0 -0.9 7.95 -1.0 7.9 -1.15 7.9 -1.4 7.85 -1.55 7.75 -1.6 7.65 -1.65 7.55 -1.65 7.45 -1.8 7.35 -1.85 7.25 -1.9 7.15 -1.9 7.05 -1.95 6.95 -1.95 6.85 -1.95 6.75 -1.95 6.7 -2.0 6.6 -2.0 6.5 -2.0 6.4 -2.0 6.3 -2.0 6.2 -2.0 6.1 -2.0 6.0 -2.0 5.95 -2.0 5.85 -2.0 5.75 -2.0 5.65 -2.0 5.55 -2.0 5.45 -2.0 5.35 -2.0 5.25 -2.0 5.2 -2.0 5.1 -1.95 5.0 -1.95 4.9 -1.95 4.8 -1.95 4.7 -1.95 4.6 -1.95 4.5 -1.95 4.45 -1.95 4.35 -1.95 4.25 -1.9 4.15 -1.9 4.05 -1.9 3.95 -1.9 3.85 -1.9 3.75 -1.9 3.7 -1.9 3.6 -1.9 3.5 -1.9 3.4 -1.85 3.3 -1.85 3.2 -1.8 3.1 -1.8 3.0 -1.8 2.95 -1.8 2.85 -1.75 2.75 -1.75 2.65 -1.75 2.55 -1.75 2.45 -1.75 2.35 -1.75 2.25 -1.75 2.2 -1.75 2.1 -1.75 2.0 -1.75 1.9 -1.75 1.8 -1.75 1.7 -1.75 1.6 -1.75 1.5 -1.75 1.45 -1.75 1.35 -1.75 1.25 -1.75 1.15 -1.75 1.05 -1.75 0.95 -1.7 0.85 -1.7 0.75 -1.7 0.7 -1.7 0.6 -1.7 0.5 -1.7 0.4 -1.7 0.3 -1.7 0.2 -1.7 0.1 -1.7 0.0 -1.75 -0.1 -1.8 -0.2 -1.9 -0.3 -1.9 -0.4 -1.9 -0.5 -1.9 -0.55 -1.9 -0.65 -1.9 -0.75 -1.9 -0.85 -1.9 -0.95 -1.9 -1.05 -1.9 -1.15 -1.85 -1.25 -1.8 -1.3 -1.8 -1.4 -1.8 -1.5 -1.75 -1.6 -1.75 -1.7 -1.75 -1.8 -1.75 -1.9 -1.75 -2.0 -1.75 -2.1 0.75 -2.1" fill="#dfb300" fill-rule="evenodd" stroke="none"/>
    <path d="M2.25 8.4 L2.2 7.7 2.1 6.2 2.15 5.1 2.25 0.25 2.6 -2.1 2.45 2.05 2.3 5.1 2.3 5.95 2.45 8.2 2.5 8.4 2.25 8.4 M-1.9 7.15 L-1.85 7.25 -1.8 7.35 -1.65 7.45 -1.65 7.55 -1.6 7.65 -1.55 7.75 -1.4 7.85 -1.15 7.9 -1.0 7.9 -0.9 7.95 -0.9 8.0 -0.9 8.1 -0.9 8.2 -0.9 8.3 -0.9 8.4 -1.9 8.4 -1.9 7.15 M-3.1 8.4 L-3.15 8.4 -3.15 6.0 -3.15 5.1 -2.9 -0.3 -2.8 -2.1 -2.75 -2.1 -2.75 0.2 -2.95 4.85 -2.95 5.1 -3.1 8.4" fill="#ffcc33" fill-rule="evenodd" stroke="none"/>
    <path d="M-1.75 -2.1 L-1.75 -2.0 -1.75 -1.9 -1.75 -1.8 -1.75 -1.7 -1.75 -1.6 -1.8 -1.5 -1.8 -1.4 -1.8 -1.3 -1.85 -1.25 -1.9 -1.15 -1.9 -1.05 -1.9 -0.95 -1.9 -0.85 -1.9 -0.75 -1.9 -0.65 -1.9 -0.55 -1.9 -0.5 -1.9 -0.4 -1.9 -0.3 -1.8 -0.2 -1.75 -0.1 -1.7 0.0 -1.7 0.1 -1.7 0.2 -1.7 0.3 -1.7 0.4 -1.7 0.5 -1.7 0.6 -1.7 0.7 -1.7 0.75 -1.7 0.85 -1.75 0.95 -1.75 1.05 -1.75 1.15 -1.75 1.25 -1.75 1.35 -1.75 1.45 -1.75 1.5 -1.75 1.6 -1.75 1.7 -1.75 1.8 -1.75 1.9 -1.75 2.0 -1.75 2.1 -1.75 2.2 -1.75 2.25 -1.75 2.35 -1.75 2.45 -1.75 2.55 -1.75 2.65 -1.75 2.75 -1.8 2.85 -1.8 2.95 -1.8 3.0 -1.8 3.1 -1.85 3.2 -1.85 3.3 -1.9 3.4 -1.9 3.5 -1.9 3.6 -1.9 3.7 -1.9 3.75 -1.9 3.85 -1.9 3.95 -1.9 4.05 -1.9 4.15 -1.95 4.25 -1.95 4.35 -1.95 4.45 -1.95 4.5 -1.95 4.6 -1.95 4.7 -1.95 4.8 -1.95 4.9 -1.95 5.0 -2.0 5.1 -2.0 5.2 -2.0 5.25 -2.0 5.35 -2.0 5.45 -2.0 5.55 -2.0 5.65 -2.0 5.75 -2.0 5.85 -2.0 5.95 -2.0 6.0 -2.0 6.1 -2.0 6.2 -2.0 6.3 -2.0 6.4 -2.0 6.5 -2.0 6.6 -1.95 6.7 -1.95 6.75 -1.95 6.85 -1.95 6.95 -1.9 7.05 -1.9 7.15 -1.9 8.4 -3.1 8.4 -2.95 5.1 -2.95 4.85 -2.75 0.2 -2.75 -2.1 -1.75 -2.1" fill="#ffcc00" fill-rule="evenodd" stroke="none"/>
    <path d="M0.05 -15.65 Q-2.45 -15.65 -3.7 -13.6 -4.45 -12.35 -4.5 -11.25 L-4.5 -11.1 Q-4.5 -9.85 -3.55 -8.35 L-2.6 -6.85 -2.6 -6.8 -2.5 -6.65 -2.5 -6.15 -2.55 -4.5 -2.5 -3.75 -2.5 -2.55 -2.5 -2.1 -3.6 -2.1 -3.6 -3.65 -3.6 -3.75 -3.6 -4.5 -3.5 -6.05 -3.5 -6.15 -3.45 -6.3 Q-4.75 -6.55 -5.25 -8.65 L-5.5 -11.1 -5.5 -11.25 Q-5.45 -13.8 -3.75 -15.25 -2.15 -16.65 0.1 -16.6 2.35 -16.55 3.9 -15.05 5.4 -13.55 5.6 -11.25 L5.65 -10.4 Q4.65 -7.2 3.4 -6.15 L2.65 -5.7 2.9 -4.7 2.85 -2.1 1.85 -2.1 1.9 -3.75 1.9 -4.5 1.9 -4.7 1.7 -5.7 Q1.3 -5.8 1.25 -6.15 L1.25 -6.2 Q4.65 -8.75 4.65 -10.45 L4.55 -11.25 3.75 -13.3 Q2.4 -15.65 0.05 -15.65 M1.8 8.4 L2.85 8.4 2.85 8.9 2.95 11.25 3.0 14.45 Q2.9 15.75 2.4 15.75 1.6 15.75 2.0 14.4 L1.8 8.4 M-3.75 8.4 L-2.6 8.4 -2.6 9.15 -2.75 11.25 -2.8 11.35 -3.0 13.5 -2.75 14.95 -2.9 15.4 -3.25 15.6 Q-3.85 15.6 -4.0 13.4 L-3.85 11.25 -3.75 8.4" fill="#000000" fill-rule="evenodd" stroke="none"/>
    <path d="M2.85 -2.1 L2.65 3.4 2.7 5.1 2.85 8.4 1.8 8.4 1.65 3.45 1.85 -2.1 2.85 -2.1 M-2.5 -2.1 L-2.6 8.4 -3.75 8.4 -3.75 8.05 -3.65 5.1 -3.6 -2.1 -2.5 -2.1" fill="#000000" fill-rule="evenodd" stroke="none"/>
    <path d="M-2.1 -14.9 L-2.2 -14.95 -2.35 -15.05 -2.4 -15.05 -2.4 -15.15 -2.4 -15.25 -2.4 -15.3 -2.3 -15.2 -2.25 -15.15 -2.15 -15.05 -2.05 -14.95 -2.1 -14.9 M-3.6 -12.1 L-3.6 -12.05 -3.5 -11.95 -3.5 -11.9 -3.6 -11.8 -3.65 -11.7 -3.65 -11.8 -3.7 -11.9 -3.75 -12.0 -3.75 -12.05 -3.7 -12.1 -3.65 -12.1 -3.6 -12.1 M0.9 9.1 L0.65 9.1 0.5 9.1 0.5 9.05 0.55 8.95 0.6 8.85 0.6 8.8 0.6 8.7 0.6 8.6 0.6 8.5 0.6 8.4 1.3 8.4 1.2 8.5 1.15 8.6 1.1 8.7 1.1 8.8 1.0 8.85 0.95 8.95 0.9 9.05 0.9 9.1" fill="#295029" fill-rule="evenodd" stroke="none"/>
    <path d="M-2.5 -15.8 L-2.4 -15.7 -2.25 -15.6 -2.25 -15.5 -2.25 -15.4 -2.2 -15.3 -2.15 -15.2 -2.1 -15.15 -2.0 -15.05 -2.05 -14.95 -2.15 -15.05 -2.25 -15.15 -2.3 -15.2 -2.4 -15.3 -2.4 -15.35 -2.45 -15.45 -2.5 -15.55 -2.5 -15.65 -2.5 -15.7 -2.5 -15.8 M-3.5 -11.9 L-3.5 -11.95 -3.45 -11.9 -3.5 -11.9 M3.35 8.8 L3.35 8.85 3.35 8.95 3.35 9.05 3.25 9.1 3.25 9.2 3.2 9.25 3.0 9.25 2.95 9.2 3.0 9.15 3.15 9.05 3.25 8.95 3.25 8.85 3.35 8.8 M1.65 9.25 L1.4 9.25 1.25 9.2 1.25 9.25 0.85 9.25 0.85 9.15 0.9 9.1 0.9 9.05 0.95 8.95 1.0 8.85 1.1 8.8 1.1 8.7 1.15 8.6 1.2 8.5 1.3 8.4 1.55 8.4 1.55 8.45 1.5 8.55 1.5 8.65 1.5 8.75 1.55 8.85 1.55 8.95 1.6 9.0 1.6 9.1 1.6 9.2 1.65 9.25 M0.5 9.1 L0.5 9.15 0.45 9.25 0.0 9.25 0.0 8.4 0.6 8.4 0.6 8.5 0.6 8.6 0.6 8.7 0.6 8.8 0.6 8.85 0.55 8.95 0.5 9.05 0.5 9.1" fill="#295029" fill-opacity="0.61960787" fill-rule="evenodd" stroke="none"/>
    <path d="M-0.8 -14.7 L-0.75 -14.65 -0.75 -14.55 -0.75 -14.45 -0.85 -14.55 -1.1 -14.65 -1.25 -14.65 -1.35 -14.65 -1.35 -14.6 -1.55 -14.6 -1.65 -14.55 -1.75 -14.5 -1.8 -14.4 -1.9 -14.3 -1.9 -14.4 -1.9 -14.5 -1.9 -14.6 -2.0 -14.7 -2.0 -14.8 -2.1 -14.9 -2.05 -14.95 -2.0 -15.05 -1.9 -14.95 -1.6 -14.9 -1.5 -14.8 -1.4 -14.7 -1.1 -14.65 -0.9 -14.65 -0.8 -14.7 M-3.6 -12.1 L-3.65 -12.1 -3.7 -12.1 -3.7 -12.15 -3.65 -12.15 -3.6 -12.1 M2.9 8.4 L3.35 8.4 3.35 8.5 3.35 8.6 3.35 8.8 3.25 8.85 3.25 8.95 3.15 9.05 3.0 9.15 2.95 9.2 2.9 9.1 2.85 9.0 2.8 8.95 2.7 8.85 2.65 8.75 2.65 8.65 2.8 8.55 2.85 8.45 2.9 8.4" fill="#009900" fill-opacity="0.7019608" fill-rule="evenodd" stroke="none"/>
    <path d="M-5.2 -11.6 L-5.35 -11.65 -5.65 -11.7 -5.75 -11.8 -5.85 -11.9 -5.95 -11.95 -6.05 -12.05 -6.1 -12.15 -6.15 -12.25 -6.25 -12.35 -6.3 -12.45 -6.35 -12.55 -6.4 -12.65 -6.45 -12.7 -6.5 -12.8 -6.5 -12.9 -6.5 -13.0 -6.5 -13.05 -6.4 -13.0 -6.25 -12.9 -6.15 -12.8 -6.1 -12.75 -6.0 -12.65 -5.9 -12.55 -5.8 -12.45 -5.7 -12.35 -5.65 -12.25 -5.65 -12.15 -5.55 -12.05 -5.5 -12.0 -5.45 -11.9 -5.4 -11.8 -5.3 -11.7 -5.2 -11.6 M-5.4 -14.85 L-5.4 -14.9 -5.3 -14.95 -5.2 -15.0 -5.1 -15.0 -5.2 -14.9 -5.4 -14.85 M-5.0 -15.0 L-5.0 -15.05 -4.85 -15.05 -4.7 -15.0 -4.9 -15.0 -5.0 -15.0 M-1.15 -16.8 L-1.15 -16.7 -1.15 -16.6 -1.2 -16.5 -1.25 -16.4 -1.3 -16.3 -1.45 -16.2 -1.5 -16.15 -1.55 -16.1 -1.6 -16.0 -1.65 -15.9 -1.65 -15.8 -1.7 -15.7 -1.7 -15.65 -1.75 -15.55 -1.75 -15.45 -1.75 -15.35 -1.75 -15.25 -1.75 -15.15 -1.7 -15.05 -1.65 -14.95 -1.6 -14.9 -1.9 -14.95 -2.0 -15.05 -2.1 -15.15 -2.15 -15.2 -2.2 -15.3 -2.25 -15.4 -2.25 -15.5 -2.25 -15.6 -2.4 -15.7 -2.5 -15.8 -2.8 -15.85 -2.9 -15.95 -2.95 -16.0 -2.9 -16.0 -2.7 -16.05 -2.65 -16.05 -2.6 -16.15 -2.5 -16.25 -2.45 -16.3 -2.4 -16.4 -2.35 -16.5 -2.3 -16.6 -2.25 -16.7 -2.25 -16.8 -2.25 -16.9 -2.25 -17.0 -2.2 -17.05 -2.15 -17.15 -2.1 -17.25 -2.05 -17.35 -2.0 -17.45 -2.0 -17.55 -1.75 -17.6 -1.65 -17.55 -1.65 -17.5 -1.65 -17.4 -1.65 -17.3 -1.65 -17.2 -1.6 -17.1 -1.55 -17.0 -1.4 -16.9 -1.25 -16.8 -1.15 -16.8" fill="#006600" fill-rule="evenodd" stroke="none"/>
    <path d="M0.6 -15.4 L0.6 -15.3 0.5 -15.2 0.5 -15.15 0.4 -15.05 0.25 -14.95 0.2 -14.9 0.0 -14.9 -0.3 -14.95 -0.4 -14.9 -0.5 -14.85 -0.55 -14.8 -0.75 -14.75 -0.8 -14.7 -0.9 -14.65 -1.1 -14.65 -1.4 -14.7 -1.5 -14.8 -1.6 -14.9 -1.65 -14.95 -1.7 -15.05 -1.75 -15.15 -1.75 -15.25 -1.75 -15.35 -1.75 -15.45 -1.75 -15.55 -1.7 -15.65 -1.7 -15.7 -1.65 -15.8 -1.65 -15.9 -1.6 -16.0 -1.55 -16.1 -1.5 -16.15 -1.45 -16.2 -1.3 -16.3 -1.25 -16.4 -1.2 -16.5 -1.15 -16.6 -1.15 -16.7 -1.15 -16.8 -1.0 -16.75 -0.9 -16.75 -0.65 -16.8 -0.45 -16.9 -0.4 -16.95 -0.25 -17.05 -0.15 -17.15 -0.05 -17.25 0.1 -17.3 0.3 -17.4 0.35 -17.45 0.4 -17.45 0.55 -17.4 0.65 -17.3 0.7 -17.2 0.6 -17.1 0.55 -17.0 0.55 -16.9 0.5 -16.8 0.45 -16.75 0.4 -16.65 0.35 -16.55 0.35 -16.45 0.35 -16.35 0.35 -16.25 0.3 -16.15 0.3 -16.05 0.25 -16.0 0.25 -15.9 0.25 -15.8 0.3 -15.7 0.3 -15.6 0.35 -15.5 0.5 -15.4 0.6 -15.4 M-2.4 -15.05 L-2.4 -14.95 -2.4 -14.9 -2.4 -14.8 -2.45 -14.7 -2.5 -14.6 -2.55 -14.5 -2.65 -14.4 -2.75 -14.35 -2.8 -14.3 -3.0 -14.3 -3.25 -14.3 -3.25 -14.35 -3.25 -14.45 -3.25 -14.55 -3.25 -14.65 -3.3 -14.75 -3.3 -14.8 -3.4 -14.9 -3.4 -15.0 -3.4 -15.1 -3.4 -15.2 -3.4 -15.3 -3.4 -15.4 -3.4 -15.5 -3.35 -15.55 -3.3 -15.65 -3.3 -15.75 -3.25 -15.85 -3.25 -15.95 -3.2 -16.05 -3.0 -16.0 -2.95 -16.0 -2.9 -15.95 -2.8 -15.85 -2.5 -15.8 -2.5 -15.7 -2.5 -15.65 -2.5 -15.55 -2.45 -15.45 -2.4 -15.35 -2.4 -15.3 -2.4 -15.25 -2.4 -15.15 -2.4 -15.05 M-3.25 -14.15 L-3.2 -14.15 -3.1 -14.05 -3.05 -13.95 -3.0 -13.85 -3.05 -13.85 -3.2 -13.8 -3.3 -13.7 -3.4 -13.6 -3.45 -13.5 -3.5 -13.4 -3.5 -13.3 -3.5 -13.2 -3.5 -13.15 -3.5 -13.05 -3.5 -13.0 -3.55 -12.95 -3.65 -12.9 -3.85 -12.9 -4.75 -12.85 -4.8 -12.95 -4.85 -13.05 -4.95 -13.15 -5.05 -13.25 -5.15 -13.3 -5.2 -13.4 -5.35 -13.5 -5.4 -13.6 -5.55 -13.7 -5.5 -13.8 -4.9 -13.85 -4.7 -13.9 -4.5 -13.8 -4.3 -13.75 -4.25 -13.75 -4.15 -13.65 -3.9 -13.6 -3.75 -13.6 -3.55 -13.65 -3.45 -13.7 -3.4 -13.8 -3.3 -13.9 -3.3 -14.0 -3.25 -14.05 -3.25 -14.15 M-2.05 -13.05 L-2.15 -13.15 -2.1 -13.15 -2.05 -13.05 -2.0 -12.95 -2.0 -12.9 -2.05 -12.95 -2.05 -13.05" fill="#009900" fill-rule="evenodd" stroke="none"/>
    <path d="M-4.7 -15.0 L-4.65 -15.0 -4.45 -15.0 -4.4 -15.05 -4.4 -15.15 -4.4 -15.25 -4.4 -15.35 -4.4 -15.45 -4.4 -15.55 -4.4 -15.65 -4.4 -15.75 -4.4 -15.8 -4.4 -15.9 -4.35 -16.0 -4.3 -16.1 -4.25 -16.2 -4.2 -16.3 -4.2 -16.4 -4.15 -16.5 -4.15 -16.55 -4.15 -16.65 -4.15 -16.75 -4.15 -16.85 -4.15 -16.95 -4.15 -17.05 -4.05 -17.15 -4.0 -17.25 -3.9 -17.3 -3.85 -17.3 -3.65 -17.35 -3.5 -17.35 -3.3 -17.3 -3.2 -17.35 -3.15 -17.45 -3.15 -17.55 -3.15 -17.65 -3.15 -17.75 -3.05 -17.8 -3.0 -17.9 -2.95 -18.0 -2.9 -18.1 -2.8 -18.2 -2.7 -18.3 -2.6 -18.4 -2.5 -18.5 -2.4 -18.55 -2.35 -18.55 -2.1 -18.65 -1.95 -18.75 -1.8 -18.8 -1.7 -18.9 -1.6 -19.0 -1.4 -19.0 -1.25 -19.0 -1.05 -18.95 -0.9 -18.85 -0.85 -18.75 -0.8 -18.65 -0.75 -18.55 -0.75 -18.5 -0.75 -18.4 -0.7 -18.3 -0.7 -18.2 -0.65 -18.15 -0.55 -18.15 -0.45 -18.25 -0.25 -18.3 -0.1 -18.4 0.0 -18.45 0.05 -18.5 0.25 -18.5 1.1 -18.5 1.3 -18.45 1.45 -18.35 1.55 -18.25 1.6 -18.15 1.7 -18.05 1.7 -18.0 1.75 -17.9 1.75 -17.8 1.8 -17.7 1.8 -17.6 1.85 -17.5 1.85 -17.4 1.85 -17.3 1.85 -17.25 1.8 -17.15 1.8 -17.05 1.75 -16.95 1.75 -16.85 1.7 -16.75 1.7 -16.65 1.65 -16.55 1.55 -16.5 1.45 -16.4 1.35 -16.3 1.35 -16.2 1.35 -16.1 1.35 -16.0 1.3 -15.9 1.3 -15.8 1.2 -15.75 1.2 -15.65 1.1 -15.55 1.05 -15.45 0.95 -15.4 0.75 -15.35 0.6 -15.4 0.5 -15.4 0.35 -15.5 0.3 -15.6 0.3 -15.7 0.25 -15.8 0.25 -15.9 0.25 -16.0 0.3 -16.05 0.3 -16.15 0.35 -16.25 0.35 -16.35 0.35 -16.45 0.35 -16.55 0.4 -16.65 0.45 -16.75 0.5 -16.8 0.55 -16.9 0.55 -17.0 0.6 -17.1 0.7 -17.2 0.75 -17.3 0.75 -17.4 0.75 -17.5 0.4 -17.45 0.35 -17.45 0.3 -17.4 0.1 -17.3 -0.05 -17.25 -0.15 -17.15 -0.25 -17.05 -0.4 -16.95 -0.45 -16.9 -0.65 -16.8 -0.9 -16.75 -1.0 -16.75 -1.15 -16.8 -1.25 -16.8 -1.4 -16.9 -1.55 -17.0 -1.6 -17.1 -1.65 -17.2 -1.65 -17.3 -1.65 -17.4 -1.65 -17.5 -1.65 -17.55 -1.75 -17.6 -2.0 -17.55 -2.0 -17.45 -2.05 -17.35 -2.1 -17.25 -2.15 -17.15 -2.2 -17.05 -2.25 -17.0 -2.25 -16.9 -2.25 -16.8 -2.25 -16.7 -2.3 -16.6 -2.35 -16.5 -2.4 -16.4 -2.45 -16.3 -2.5 -16.25 -2.6 -16.15 -2.65 -16.05 -2.7 -16.05 -2.9 -16.0 -2.95 -16.0 -3.0 -16.0 -3.2 -16.05 -3.25 -15.95 -3.25 -15.85 -3.3 -15.75 -3.3 -15.65 -3.35 -15.55 -3.4 -15.5 -3.4 -15.4 -3.4 -15.3 -3.4 -15.2 -3.4 -15.1 -3.4 -15.0 -3.4 -14.9 -3.3 -14.8 -3.3 -14.75 -3.25 -14.65 -3.25 -14.55 -3.25 -14.45 -3.25 -14.35 -3.25 -14.3 -3.25 -14.25 -3.25 -14.15 -3.25 -14.05 -3.3 -14.0 -3.3 -13.9 -3.4 -13.8 -3.45 -13.7 -3.55 -13.65 -3.75 -13.6 -3.9 -13.6 -4.15 -13.65 -4.25 -13.75 -4.3 -13.75 -4.5 -13.8 -4.7 -13.9 -4.9 -13.85 -5.5 -13.8 -5.55 -13.7 -5.4 -13.6 -5.35 -13.5 -5.2 -13.4 -5.15 -13.3 -5.05 -13.25 -4.95 -13.15 -4.85 -13.05 -4.8 -12.95 -4.75 -12.85 -4.7 -12.75 -4.65 -12.65 -4.65 -12.55 -4.55 -12.5 -4.55 -12.4 -4.45 -12.3 -4.4 -12.2 -4.35 -12.1 -4.3 -12.0 -4.25 -11.9 -4.25 -11.8 -4.3 -11.75 -4.3 -11.65 -4.4 -11.55 -4.45 -11.45 -4.55 -11.4 -4.75 -11.35 -5.0 -11.4 -5.1 -11.45 -5.15 -11.5 -5.2 -11.6 -5.3 -11.7 -5.4 -11.8 -5.45 -11.9 -5.5 -12.0 -5.55 -12.05 -5.65 -12.15 -5.65 -12.25 -5.7 -12.35 -5.8 -12.45 -5.9 -12.55 -6.0 -12.65 -6.1 -12.75 -6.15 -12.8 -6.25 -12.9 -6.4 -13.0 -6.5 -13.05 -6.55 -13.1 -6.65 -13.2 -6.7 -13.3 -6.75 -13.4 -6.8 -13.5 -6.9 -13.55 -6.9 -13.65 -6.9 -13.75 -6.9 -13.85 -6.9 -13.95 -6.9 -14.05 -6.9 -14.15 -6.9 -14.25 -6.8 -14.3 -6.7 -14.4 -6.55 -14.5 -6.4 -14.6 -6.25 -14.7 -6.0 -14.75 -5.75 -14.8 -5.7 -14.8 -5.5 -14.85 -5.4 -14.85 -5.2 -14.9 -5.1 -15.0 -5.0 -15.0 -4.9 -15.0 -4.7 -15.0 M3.0 9.25 L1.65 9.25 1.6 9.2 1.6 9.1 1.6 9.0 1.55 8.95 1.55 8.85 1.5 8.75 1.5 8.65 1.5 8.55 1.55 8.45 1.55 8.4 2.9 8.4 2.85 8.45 2.8 8.55 2.65 8.65 2.65 8.75 2.7 8.85 2.8 8.95 2.85 9.0 2.9 9.1 2.95 9.2 3.0 9.25" fill="#000000" fill-rule="evenodd" stroke="none"/>
    <path d="M2.45 -0.85 L2.35 -0.9 2.3 -1.0 2.3 -1.1 2.25 -1.2 2.25 -1.3 2.25 -1.4 2.3 -1.5 2.35 -1.55 2.45 -1.65 2.55 -1.75 2.75 -1.75 3.75 -1.8 3.8 -1.8 4.0 -1.9 4.1 -1.95 4.15 -2.0 4.35 -2.0 4.5 -2.0 4.7 -1.95 4.85 -1.85 5.05 -1.75 5.1 -1.65 5.2 -1.55 5.3 -1.5 5.3 -1.4 5.35 -1.3 5.35 -1.2 5.35 -1.1 5.35 -1.0 5.35 -0.9 5.35 -0.8 5.35 -0.75 5.35 -0.65 5.35 -0.55 5.3 -0.45 5.25 -0.35 5.2 -0.25 5.05 -0.15 5.0 -0.05 4.95 0.0 4.85 0.1 4.8 0.2 4.75 0.3 4.7 0.4 4.65 0.5 4.6 0.6 4.55 0.7 4.5 0.75 4.45 0.85 4.35 0.95 4.3 1.05 4.1 1.15 3.95 1.25 3.85 1.35 3.7 1.45 3.55 1.5 3.5 1.6 3.45 1.6 3.15 1.7 3.05 1.75 3.0 1.85 3.0 1.95 3.0 2.05 3.0 2.15 3.0 2.25 3.05 2.35 3.1 2.4 3.25 2.4 3.45 2.45 3.6 2.55 3.7 2.65 3.8 2.75 3.85 2.85 3.95 2.95 3.95 3.0 4.0 3.1 4.0 3.2 4.0 3.3 4.0 3.4 4.0 3.5 4.0 3.6 4.0 3.7 4.0 3.75 3.95 3.85 3.95 3.95 3.85 4.05 3.8 4.15 3.75 4.25 3.7 4.35 3.7 4.45 3.65 4.5 3.55 4.6 3.5 4.7 3.45 4.8 3.4 4.9 3.35 4.95 3.4 4.95 3.65 4.85 3.75 4.8 3.8 4.75 4.0 4.75 4.1 4.75 4.3 4.8 4.45 4.9 4.5 4.95 4.6 5.0 4.8 5.05 4.95 5.15 5.0 5.25 5.05 5.35 5.1 5.45 5.2 5.5 5.2 5.6 5.25 5.7 5.25 5.8 5.25 5.9 5.25 6.0 5.25 6.1 5.25 6.2 5.2 6.25 5.2 6.35 5.1 6.45 5.05 6.55 4.95 6.6 4.8 6.7 4.7 6.75 4.55 6.85 4.45 6.95 4.3 7.05 4.2 7.15 4.1 7.25 4.0 7.35 3.9 7.45 3.85 7.5 3.8 7.6 3.7 7.7 3.65 7.8 3.55 7.9 3.45 8.0 3.3 8.1 3.25 8.2 3.15 8.2 3.05 8.25 2.95 8.35 2.9 8.4 1.55 8.4 1.55 8.35 1.6 8.25 1.6 8.2 1.7 8.1 1.8 8.0 1.85 7.9 1.95 7.8 2.1 7.7 2.15 7.6 2.3 7.5 2.45 7.45 2.55 7.35 2.7 7.25 2.85 7.15 2.85 7.05 2.95 6.95 3.0 6.85 3.1 6.75 3.2 6.7 3.3 6.6 3.4 6.5 3.45 6.4 3.6 6.3 3.65 6.2 3.75 6.1 3.85 6.05 3.9 6.0 4.05 6.0 3.9 5.95 3.85 5.95 3.6 5.9 3.35 5.85 3.2 5.75 3.15 5.65 3.1 5.55 3.1 5.45 3.1 5.35 3.1 5.25 3.1 5.2 3.15 5.15 3.2 5.1 3.05 5.15 3.0 5.15 2.85 5.15 2.6 5.1 2.45 5.0 2.4 4.9 2.35 4.8 2.35 4.7 2.35 4.6 2.35 4.5 2.35 4.45 2.45 4.35 2.55 4.25 2.6 4.15 2.6 4.05 2.7 3.95 2.75 3.85 2.8 3.75 2.85 3.7 2.95 3.6 3.0 3.5 2.85 3.5 2.6 3.45 2.45 3.35 2.4 3.3 2.35 3.25 2.2 3.15 2.1 3.05 2.05 2.95 2.0 2.85 2.0 2.75 2.0 2.7 2.0 2.6 2.0 2.5 2.0 2.4 2.0 2.3 2.0 2.2 2.0 2.1 2.0 2.0 2.0 1.95 2.0 1.85 2.0 1.75 2.0 1.65 2.0 1.55 2.05 1.45 2.05 1.35 2.1 1.25 2.2 1.2 2.3 1.1 2.4 1.0 2.45 0.9 2.5 0.9 2.6 0.8 2.75 0.7 2.9 0.6 3.0 0.55 3.05 0.5 3.25 0.45 3.4 0.35 3.5 0.25 3.6 0.2 3.7 0.1 3.75 0.0 3.8 -0.1 3.85 -0.2 3.9 -0.3 3.95 -0.4 4.05 -0.5 4.1 -0.55 4.1 -0.65 4.15 -0.75 4.2 -0.8 4.1 -0.8 4.05 -0.8 3.85 -0.75 2.75 -0.75 2.5 -0.8 2.45 -0.85" fill="#000000" fill-rule="evenodd" stroke="none"/>
    <path d="M1.3 8.4 L0.6 8.4 0.5 8.3 0.5 8.2 0.4 8.1 0.25 8.05 0.1 8.0 0.1 7.95 0.1 7.85 0.15 7.85 0.25 7.95 0.35 8.05 0.65 8.1 1.0 8.1 1.25 8.05 1.3 8.0 1.35 8.05 1.65 8.1 1.7 8.1 1.6 8.2 1.6 8.25 1.55 8.25 1.4 8.3 1.3 8.4 M-0.3 4.3 L-0.3 4.2 -0.25 4.1 -0.15 4.05 -0.05 3.95 0.0 3.85 0.15 3.75 0.15 3.8 0.2 3.85 0.25 3.95 0.35 4.05 0.45 4.15 0.5 4.15 0.5 4.2 0.6 4.3 0.7 4.4 1.0 4.45 1.2 4.45 1.25 4.4 1.35 4.35 1.45 4.25 1.5 4.15 1.55 4.05 1.65 3.95 1.7 3.85 1.75 3.8 1.75 3.7 1.75 3.6 1.75 3.5 1.75 3.4 1.75 3.3 1.7 3.2 1.7 3.15 1.7 3.1 2.0 3.1 2.25 3.2 2.4 3.3 2.45 3.35 2.35 3.45 2.3 3.55 2.25 3.6 2.25 3.7 2.25 3.8 2.25 3.9 2.25 4.0 2.3 4.1 2.35 4.2 2.4 4.3 2.45 4.35 2.35 4.45 2.35 4.5 2.35 4.6 2.35 4.7 2.35 4.8 2.25 4.85 2.2 4.95 2.1 5.05 2.0 5.15 1.95 5.25 1.95 5.3 1.75 5.2 1.75 5.25 1.45 5.3 1.35 5.35 1.25 5.45 1.2 5.55 1.15 5.65 1.15 5.7 1.0 5.8 1.0 5.75 1.0 5.65 1.05 5.55 1.15 5.45 1.2 5.35 1.25 5.3 1.25 5.2 1.25 5.1 1.25 5.0 1.25 4.9 1.2 4.8 1.15 4.7 1.05 4.6 0.9 4.55 0.65 4.45 0.45 4.5 0.45 4.55 0.4 4.45 0.3 4.35 0.15 4.3 -0.1 4.2 -0.1 4.25 -0.3 4.25 -0.3 4.3 M0.6 1.55 L0.5 1.5 0.35 1.4 0.25 1.3 0.15 1.2 0.1 1.1 0.05 1.05 0.0 0.95 0.0 0.85 0.0 0.75 0.05 0.65 0.1 0.55 0.15 0.45 0.25 0.35 0.35 0.3 0.45 0.2 0.75 0.1 0.8 0.0 0.85 -0.1 0.9 -0.2 1.0 -0.3 1.1 -0.4 1.2 -0.45 1.35 -0.55 1.5 -0.65 1.6 -0.75 1.7 -0.8 1.8 -0.85 2.0 -0.85 2.0 -0.9 2.25 -0.8 2.2 -0.8 2.1 -0.7 2.0 -0.65 1.95 -0.55 1.9 -0.45 1.9 -0.4 1.85 -0.4 1.75 -0.3 1.55 -0.2 1.45 -0.1 1.35 0.0 1.3 0.1 1.25 0.2 1.25 0.3 1.25 0.35 1.2 0.45 1.15 0.55 1.1 0.65 1.1 0.75 1.1 0.85 1.1 0.95 1.1 1.05 1.1 1.1 1.1 1.2 1.1 1.25 0.95 1.25 0.85 1.3 0.75 1.35 0.7 1.45 0.6 1.55 M2.45 6.2 L2.55 6.3 2.65 6.35 2.75 6.45 2.8 6.5 2.7 6.55 2.6 6.6 2.6 6.65 2.55 6.6 2.4 6.55 2.2 6.5 2.25 6.4 2.25 6.3 2.3 6.2 2.45 6.2" fill="#295029" fill-rule="evenodd" stroke="none"/>
    <path d="M3.25 8.2 L3.25 8.3 3.35 8.4 2.9 8.4 2.95 8.35 3.05 8.25 3.15 8.2 3.25 8.2 M0.1 7.85 L0.1 7.8 0.05 7.7 0.0 7.6 0.0 7.5 0.0 7.4 0.05 7.3 0.1 7.2 0.25 7.2 0.5 7.15 0.65 7.05 0.8 6.95 0.9 6.85 1.0 6.85 1.25 6.95 1.4 7.05 1.5 7.1 1.5 7.2 1.6 7.3 1.6 7.4 1.6 7.5 1.6 7.6 1.6 7.7 1.5 7.8 1.5 7.85 1.4 7.95 1.3 8.0 1.25 8.05 1.0 8.1 0.65 8.1 0.35 8.05 0.25 7.95 0.15 7.85 0.1 7.85 M-0.35 7.85 L-0.25 7.95 -0.25 8.0 -1.3 8.0 -1.2 7.9 -1.15 7.85 -1.1 7.8 -1.0 7.8 -0.95 7.75 -0.75 7.75 -0.75 7.7 -0.5 7.8 -0.35 7.85 M0.15 3.75 L0.1 3.7 0.1 3.6 0.1 3.5 0.15 3.4 0.2 3.3 0.25 3.2 0.25 3.1 0.3 3.05 0.35 2.95 0.35 2.85 0.4 2.75 0.45 2.65 0.55 2.55 0.6 2.45 0.6 2.35 0.65 2.35 0.65 2.3 0.7 2.2 0.75 2.1 0.85 2.0 0.95 1.95 1.05 1.9 1.25 1.9 1.25 1.85 1.5 1.95 1.6 2.05 1.7 2.15 1.75 2.2 1.85 2.3 1.85 2.4 1.85 2.5 1.85 2.6 1.85 2.7 1.8 2.8 1.8 2.85 1.75 2.95 1.7 3.05 1.7 3.1 1.7 3.15 1.7 3.2 1.6 3.25 1.5 3.35 1.5 3.45 1.5 3.55 1.5 3.6 1.45 3.7 1.45 3.8 1.35 3.9 1.25 4.0 1.1 4.1 1.0 4.15 0.95 4.2 0.75 4.2 0.5 4.15 0.45 4.15 0.35 4.05 0.25 3.95 0.2 3.85 0.15 3.8 0.15 3.75 M2.25 -0.8 L2.45 -0.85 2.5 -0.8 2.25 -0.75 2.1 -0.65 2.0 -0.55 1.95 -0.45 1.9 -0.4 1.9 -0.45 1.95 -0.55 2.0 -0.65 2.1 -0.7 2.2 -0.8 2.25 -0.8 M2.45 3.35 L2.6 3.45 2.85 3.5 3.0 3.5 2.95 3.6 2.85 3.7 2.8 3.75 2.75 3.85 2.7 3.95 2.6 4.05 2.6 4.15 2.55 4.25 2.45 4.35 2.4 4.3 2.35 4.2 2.3 4.1 2.25 4.0 2.25 3.9 2.25 3.8 2.25 3.7 2.25 3.6 2.3 3.55 2.35 3.45 2.45 3.35 M2.85 5.15 L3.0 5.15 3.05 5.15 3.15 5.15 3.1 5.2 3.1 5.25 3.1 5.35 3.1 5.45 3.1 5.55 3.15 5.65 3.2 5.75 3.35 5.85 3.25 5.85 3.2 5.95 3.15 6.05 3.1 6.15 3.0 6.25 2.9 6.35 2.8 6.45 2.8 6.5 2.75 6.45 2.65 6.35 2.55 6.3 2.45 6.2 2.4 6.1 2.35 6.0 2.35 5.65 2.35 5.6 2.4 5.55 2.45 5.45 2.5 5.35 2.6 5.25 2.7 5.2 2.8 5.15 2.85 5.15" fill="#009900" fill-opacity="0.7019608" fill-rule="evenodd" stroke="none"/>
    <path d="M-1.4 5.6 L-1.45 5.55 -1.5 5.45 -1.5 5.35 -1.5 5.25 -1.5 5.15 -1.45 5.05 -1.4 4.95 -1.4 4.85 -1.3 4.8 -1.25 4.7 -1.15 4.6 -1.05 4.55 -0.95 4.5 -0.75 4.5 -0.75 4.45 -0.6 4.45 -0.65 4.5 -0.75 4.6 -0.8 4.7 -0.9 4.8 -1.0 4.85 -1.05 4.95 -1.15 5.05 -1.15 5.15 -1.2 5.25 -1.25 5.35 -1.3 5.45 -1.35 5.55 -1.4 5.6 M2.5 -0.8 L2.75 -0.75 3.85 -0.75 4.05 -0.8 4.1 -0.8 4.2 -0.8 4.15 -0.75 4.1 -0.65 4.1 -0.55 3.9 -0.55 3.9 -0.5 3.6 -0.45 3.5 -0.4 3.25 -0.3 3.05 -0.2 2.95 -0.1 2.85 0.0 2.75 0.1 2.7 0.2 2.65 0.3 2.6 0.35 2.6 0.45 2.55 0.55 2.5 0.65 2.5 0.75 2.5 0.85 2.5 0.9 2.45 0.9 2.4 1.0 2.3 1.1 2.2 1.2 2.1 1.25 2.05 1.35 2.05 1.45 2.0 1.55 2.0 1.65 2.0 1.75 2.0 1.85 2.0 1.95 2.0 2.0 2.0 2.1 2.0 2.2 1.95 2.2 1.75 2.2 1.7 2.15 1.6 2.05 1.5 1.95 1.4 1.85 1.3 1.8 1.2 1.7 1.15 1.6 1.1 1.5 1.1 1.4 1.1 1.3 1.1 1.25 1.1 1.2 1.1 1.1 1.1 1.05 1.1 0.95 1.1 0.85 1.1 0.75 1.1 0.65 1.15 0.55 1.2 0.45 1.25 0.35 1.25 0.3 1.25 0.2 1.3 0.1 1.35 0.0 1.45 -0.1 1.55 -0.2 1.75 -0.3 1.85 -0.4 1.9 -0.4 1.95 -0.45 2.0 -0.55 2.1 -0.65 2.25 -0.75 2.5 -0.8 M0.45 4.55 L0.45 4.5 0.65 4.45 0.9 4.55 1.05 4.6 1.15 4.7 1.2 4.8 1.25 4.9 1.25 5.0 1.25 5.1 1.25 5.2 1.25 5.3 1.2 5.35 1.15 5.45 1.05 5.55 1.0 5.65 1.0 5.75 1.0 5.8 1.0 5.9 1.0 5.95 1.0 6.05 1.0 6.1 1.0 6.2 1.0 6.3 1.0 6.4 1.0 6.5 1.0 6.6 1.0 6.7 0.95 6.8 0.9 6.85 0.8 6.95 0.65 7.05 0.5 7.15 0.25 7.2 0.1 7.2 0.0 7.2 -0.3 7.15 -0.4 7.05 -0.5 6.95 -0.6 6.85 -0.65 6.8 -0.7 6.7 -0.55 6.7 -0.45 6.6 -0.3 6.55 -0.25 6.45 -0.2 6.35 -0.15 6.25 -0.15 6.15 -0.15 6.05 -0.15 5.95 -0.1 5.85 -0.05 5.8 0.0 5.7 0.0 5.6 0.1 5.5 0.2 5.4 0.3 5.3 0.4 5.2 0.45 5.1 0.5 5.05 0.5 4.95 0.5 4.85 0.5 4.75 0.5 4.65 0.45 4.55" fill="#006600" fill-rule="evenodd" stroke="none"/>
    <path d="M-1.25 6.45 L-1.3 6.35 -1.35 6.3 -1.4 6.2 -1.4 6.1 -1.4 6.0 -1.4 5.9 -1.4 5.8 -1.4 5.7 -1.4 5.6 -1.35 5.55 -1.3 5.45 -1.25 5.35 -1.2 5.25 -1.15 5.15 -1.15 5.05 -1.05 4.95 -1.0 4.85 -0.9 4.8 -0.8 4.7 -0.75 4.6 -0.65 4.5 -0.6 4.45 -0.55 4.4 -0.45 4.3 -0.3 4.3 -0.3 4.25 -0.1 4.25 -0.1 4.2 0.15 4.3 0.3 4.35 0.4 4.45 0.45 4.55 0.5 4.65 0.5 4.75 0.5 4.85 0.5 4.95 0.5 5.05 0.45 5.1 0.4 5.2 0.3 5.3 0.2 5.4 0.1 5.5 0.0 5.6 0.0 5.7 -0.05 5.8 -0.1 5.85 -0.15 5.95 -0.15 6.05 -0.15 6.15 -0.15 6.25 -0.2 6.35 -0.25 6.45 -0.3 6.55 -0.45 6.6 -0.55 6.7 -0.7 6.7 -0.75 6.7 -1.05 6.65 -1.15 6.55 -1.25 6.45 M4.1 -0.55 L4.05 -0.5 3.95 -0.4 3.9 -0.3 3.85 -0.2 3.8 -0.1 3.75 0.0 3.7 0.1 3.6 0.2 3.5 0.25 3.4 0.35 3.25 0.45 3.05 0.5 3.0 0.55 2.9 0.6 2.75 0.7 2.6 0.8 2.5 0.9 2.5 0.85 2.5 0.75 2.5 0.65 2.55 0.55 2.6 0.45 2.6 0.35 2.65 0.3 2.7 0.2 2.75 0.1 2.85 0.0 2.95 -0.1 3.05 -0.2 3.25 -0.3 3.5 -0.4 3.6 -0.45 3.9 -0.5 3.9 -0.55 4.1 -0.55 M3.35 5.85 L3.6 5.9 3.85 5.95 3.9 5.95 4.05 6.0 3.9 6.0 3.85 6.05 3.75 6.1 3.65 6.2 3.6 6.3 3.45 6.4 3.4 6.5 3.3 6.6 3.2 6.7 3.1 6.75 3.0 6.85 2.95 6.95 2.85 7.05 2.85 7.15 2.7 7.25 2.55 7.35 2.45 7.45 2.3 7.5 2.15 7.6 2.1 7.7 1.95 7.8 1.85 7.9 1.8 8.0 1.75 7.95 1.75 7.85 1.75 7.75 1.8 7.65 1.85 7.55 1.85 7.45 1.95 7.35 2.0 7.3 2.1 7.2 2.2 7.1 2.25 7.0 2.35 6.9 2.4 6.8 2.5 6.7 2.6 6.65 2.6 6.6 2.7 6.55 2.8 6.5 2.8 6.45 2.9 6.35 3.0 6.25 3.1 6.15 3.15 6.05 3.2 5.95 3.25 5.85 3.35 5.85" fill="#009900" fill-rule="evenodd" stroke="none"/>
    <path d="M1.55 8.4 L1.3 8.4 1.4 8.3 1.55 8.25 1.6 8.25 1.55 8.35 1.55 8.4 M0.6 8.4 L0.0 8.4 0.0 7.95 0.1 8.0 0.25 8.05 0.4 8.1 0.5 8.2 0.5 8.3 0.6 8.4 M0.05 7.7 L0.0 7.75 -0.05 7.8 -0.15 7.85 -0.35 7.85 -0.5 7.8 -0.75 7.7 -0.8 7.65 -0.85 7.65 -1.0 7.75 -1.0 7.8 -1.1 7.8 -1.15 7.85 -1.35 7.85 -1.65 7.8 -1.75 7.7 -1.85 7.6 -1.9 7.55 -1.95 7.45 -2.0 7.35 -2.0 7.25 -2.0 7.15 -2.0 7.05 -2.0 6.95 -1.95 6.85 -1.9 6.8 -1.8 6.7 -1.75 6.6 -1.65 6.55 -1.55 6.5 -1.35 6.5 -1.35 6.45 -1.25 6.45 -1.15 6.55 -1.05 6.65 -0.75 6.7 -0.7 6.7 -0.65 6.8 -0.6 6.85 -0.5 6.95 -0.4 7.05 -0.3 7.15 0.0 7.2 0.1 7.2 0.05 7.3 0.0 7.4 0.0 7.5 0.0 7.6 0.05 7.7 M0.65 2.35 L0.6 2.3 0.55 2.2 0.5 2.1 0.5 2.0 0.5 1.9 0.5 1.8 0.5 1.7 0.55 1.6 0.6 1.55 0.7 1.45 0.75 1.35 0.85 1.3 0.95 1.25 1.1 1.25 1.1 1.3 1.1 1.4 1.1 1.5 1.15 1.6 1.2 1.7 1.3 1.8 1.4 1.85 1.5 1.95 1.25 1.85 1.25 1.9 1.05 1.9 0.95 1.95 0.85 2.0 0.75 2.1 0.7 2.2 0.65 2.3 0.65 2.35 M1.8 8.0 L1.7 8.1 1.65 8.1 1.35 8.05 1.3 8.0 1.4 7.95 1.5 7.85 1.5 7.8 1.6 7.7 1.6 7.6 1.6 7.5 1.6 7.4 1.6 7.3 1.5 7.2 1.5 7.1 1.4 7.05 1.25 6.95 1.0 6.85 0.9 6.85 0.95 6.8 1.0 6.7 1.0 6.6 1.0 6.5 1.0 6.4 1.0 6.3 1.0 6.2 1.0 6.1 1.0 6.05 1.0 5.95 1.0 5.9 1.05 5.9 1.1 5.85 1.1 5.75 1.15 5.7 1.15 5.65 1.2 5.55 1.25 5.45 1.35 5.35 1.45 5.3 1.75 5.25 1.75 5.2 1.95 5.3 2.0 5.3 2.15 5.35 2.25 5.45 2.25 5.55 2.35 5.65 2.35 6.0 2.35 6.1 2.3 6.2 2.25 6.3 2.25 6.4 2.2 6.5 2.4 6.55 2.55 6.6 2.6 6.65 2.5 6.7 2.4 6.8 2.35 6.9 2.25 7.0 2.2 7.1 2.1 7.2 2.0 7.3 1.95 7.35 1.85 7.45 1.85 7.55 1.8 7.65 1.75 7.75 1.75 7.85 1.75 7.95 1.8 8.0 M1.75 2.2 L1.95 2.2 1.95 2.3 1.85 2.4 1.85 2.3 1.75 2.2 M1.7 3.2 L1.75 3.3 1.75 3.4 1.75 3.5 1.75 3.6 1.75 3.7 1.75 3.8 1.7 3.85 1.65 3.95 1.55 4.05 1.5 4.15 1.45 4.25 1.35 4.35 1.25 4.4 1.2 4.45 1.0 4.45 0.7 4.4 0.6 4.3 0.5 4.2 0.5 4.15 0.75 4.2 0.95 4.2 1.0 4.15 1.1 4.1 1.25 4.0 1.35 3.9 1.45 3.8 1.45 3.7 1.5 3.6 1.5 3.55 1.5 3.45 1.5 3.35 1.6 3.25 1.7 3.2" fill="#295029" fill-opacity="0.61960787" fill-rule="evenodd" stroke="none"/>
  </g>
</svg>
