<?xml version="1.0" encoding="UTF-8" standalone="no"?>
<svg xmlns:ffdec="https://www.free-decompiler.com/flash" xmlns:xlink="http://www.w3.org/1999/xlink" ffdec:objectType="shape" height="57.75px" width="164.1px" xmlns="http://www.w3.org/2000/svg">
  <g transform="matrix(1.0, 0.0, 0.0, 1.0, 75.65, 31.35)">
    <path d="M87.0 25.0 L-74.0 25.0 -74.0 -30.0 87.0 -30.0 87.0 25.0" fill="#99ff00" fill-rule="evenodd" stroke="none"/>
    <path d="M34.5 -30.0 Q32.6 -29.1 30.25 -29.5 L26.15 -29.95 22.5 -29.55 Q20.6 -29.05 18.9 -29.55 L14.6 -30.0 10.25 -29.9 6.35 -30.1 2.3 -30.3 -1.55 -30.1 -5.5 -30.0 M87.0 -19.4 Q86.95 -21.4 87.15 -23.15 L87.3 -26.15 87.0 -30.0 83.3 -29.8 79.35 -30.05 Q77.1 -30.4 75.05 -30.05 L71.15 -29.65 67.6 -29.9 63.0 -30.0 M60.8 -30.0 L56.65 -29.65 53.1 -29.75 Q51.35 -30.4 49.45 -30.15 L45.15 -30.05 41.2 -30.15 36.8 -30.0 M87.0 14.8 Q87.55 12.9 87.25 11.05 86.95 9.25 87.2 7.05 87.45 4.85 87.2 2.9 87.0 1.0 86.95 -1.2 86.95 -3.35 87.3 -5.2 87.7 -7.05 87.05 -8.9 86.4 -10.75 86.7 -12.9 87.05 -15.05 87.0 -17.2 M70.9 25.0 L75.0 24.95 79.1 24.45 82.5 24.55 Q84.2 25.1 85.35 24.05 86.5 23.05 86.9 20.85 87.3 18.7 87.0 17.1 M44.6 25.0 L48.75 24.45 52.25 24.7 Q53.95 25.05 56.0 24.75 58.1 24.45 60.35 24.7 L64.6 24.5 Q66.6 24.0 68.6 25.0 M6.4 25.0 Q8.4 24.1 10.4 24.6 L14.5 24.8 18.65 24.3 22.55 24.55 26.7 24.95 31.1 25.0 34.9 24.75 38.5 25.0 Q40.35 25.5 42.4 25.0 M-23.9 25.0 L-19.55 24.95 -15.5 24.95 Q-13.9 24.9 -12.2 25.0 L-8.7 25.0 -4.4 25.0 0.1 24.75 4.1 25.0 M-42.1 -30.0 L-45.6 -29.6 -50.2 -29.7 -53.8 -29.45 -57.65 -29.35 -62.05 -29.85 -66.55 -29.6 -70.5 -29.35 -74.0 -29.9 M-74.0 -27.6 Q-74.95 -25.25 -74.55 -23.45 -74.15 -21.65 -74.25 -19.8 L-74.05 -15.8 Q-73.8 -13.65 -74.2 -11.65 -74.55 -9.6 -74.1 -7.65 -73.65 -5.65 -73.85 -3.65 L-74.0 0.4 M-7.8 -30.0 L-11.95 -29.45 -15.85 -29.55 -19.8 -29.9 -23.3 -30.2 Q-24.95 -30.45 -27.25 -30.25 L-31.55 -29.75 Q-33.6 -29.5 -35.7 -29.75 L-39.8 -30.0 M-58.2 25.0 L-54.35 25.3 -50.85 25.3 -46.65 25.25 -42.25 25.05 -38.0 25.0 -34.0 25.0 -29.75 25.3 -26.2 25.0 M-74.0 2.6 L-73.95 6.8 -73.65 10.65 Q-73.35 12.4 -73.2 14.15 -73.05 15.9 -73.35 18.7 -73.6 21.55 -73.45 22.65 -73.25 23.8 -71.85 23.9 -70.4 24.05 -68.7 24.55 L-64.75 24.7 -60.4 25.0" fill="none" stroke="#000000" stroke-linecap="round" stroke-linejoin="round" stroke-width="2.0"/>
  </g>
</svg>
