<?xml version="1.0" encoding="UTF-8" standalone="no"?>
<svg xmlns:ffdec="https://www.free-decompiler.com/flash" xmlns:xlink="http://www.w3.org/1999/xlink" ffdec:objectType="shape" height="465.4px" width="605.15px" xmlns="http://www.w3.org/2000/svg">
  <g transform="matrix(1.0, 0.0, 0.0, 1.0, 299.8, 237.55)">
    <path d="M24.15 -44.15 L24.3 -44.5 Q22.75 -42.0 24.15 -44.15 M38.35 -154.75 Q38.5 -155.35 38.2 -154.9 L38.35 -154.75 M32.4 -225.45 L33.0 -224.15 23.9 -214.6 35.0 -211.8 Q40.4 -210.55 45.0 -207.8 53.8 -202.6 56.05 -192.65 57.15 -187.95 55.6 -183.45 53.9 -178.5 51.45 -174.55 L53.85 -173.3 54.25 -163.15 55.0 -161.65 54.4 -159.15 53.45 -156.9 50.9 -153.55 Q49.3 -153.15 48.2 -152.45 43.4 -149.3 38.35 -149.4 L29.5 -156.0 17.75 -147.0 14.4 -140.45 Q11.1 -133.7 12.05 -126.4 L12.5 -125.15 14.0 -125.55 Q18.85 -124.85 22.8 -121.5 L24.8 -119.45 Q28.5 -114.95 27.0 -108.4 28.8 -106.35 27.4 -103.85 L26.55 -102.2 Q25.35 -99.9 22.75 -99.9 L14.4 -94.35 22.9 -64.0 23.35 -63.9 24.95 -62.8 25.5 -61.75 Q25.5 -61.05 25.05 -60.5 L28.65 -58.3 Q35.35 -65.1 43.4 -70.4 52.65 -76.6 63.7 -78.7 69.35 -79.9 72.5 -81.9 L72.65 -87.55 77.25 -90.25 Q82.05 -90.9 84.75 -94.8 85.8 -95.5 87.0 -95.45 88.8 -95.45 90.1 -94.1 94.75 -89.3 100.9 -86.55 L100.75 -82.4 100.65 -82.25 111.6 -85.25 Q129.95 -90.4 137.55 -107.65 140.35 -114.1 140.9 -121.3 L134.9 -124.65 135.1 -139.1 Q136.5 -140.9 138.55 -142.0 142.3 -143.75 145.45 -146.35 147.2 -147.75 149.25 -147.1 L150.5 -145.8 151.95 -145.75 Q160.4 -158.95 173.5 -167.7 177.75 -170.6 182.85 -171.55 188.75 -172.65 190.9 -174.95 L186.7 -180.2 186.75 -182.65 188.95 -184.55 192.65 -190.6 194.5 -190.6 195.5 -189.7 203.45 -190.6 217.75 -190.5 219.3 -191.3 221.65 -190.2 228.55 -180.1 209.25 -155.6 206.1 -155.6 195.65 -168.6 Q176.8 -167.7 163.95 -152.75 L160.25 -148.85 Q155.9 -144.85 158.25 -142.05 L160.85 -141.45 Q162.2 -139.1 162.85 -136.55 164.4 -130.4 162.5 -125.2 161.25 -121.85 157.75 -121.6 155.2 -119.0 152.05 -117.15 148.8 -115.1 145.75 -117.4 145.45 -113.6 143.7 -108.85 135.05 -85.2 110.1 -79.25 105.85 -78.25 103.5 -76.15 103.6 -74.55 102.8 -73.1 L101.75 -71.8 Q100.4 -70.7 99.0 -69.9 99.0 -69.0 98.3 -68.0 97.15 -66.5 95.0 -66.5 L94.85 -66.5 93.5 -65.0 Q89.15 -61.35 84.25 -62.75 L83.1 -64.85 74.25 -69.25 73.7 -74.8 73.6 -75.1 Q62.05 -73.7 51.55 -68.7 39.75 -63.2 32.65 -53.9 L33.3 -49.1 Q36.75 -46.2 36.75 -43.55 36.75 -41.6 35.2 -37.85 33.15 -33.0 30.5 -33.0 29.05 -33.0 28.6 -34.25 L28.55 -34.6 23.1 -33.65 20.55 -31.65 Q19.4 -29.1 18.95 -26.55 17.7 -19.1 15.4 -12.05 11.35 0.15 11.85 13.3 L6.55 12.25 Q5.8 4.65 7.7 -2.55 L12.55 -20.3 Q14.45 -27.15 12.5 -33.55 L8.65 -33.8 Q7.65 -34.05 6.7 -35.2 L6.25 -35.25 Q4.65 -36.85 4.3 -39.0 L3.25 -40.6 Q2.25 -42.15 2.25 -43.05 2.25 -44.95 3.45 -44.95 3.3 -47.65 3.75 -50.3 L-0.65 -52.7 Q-1.3 -53.75 -2.55 -54.2 L-21.55 -60.8 Q-24.9 -61.9 -28.1 -62.3 -43.3 -64.05 -55.8 -71.85 L-65.75 -70.25 -67.05 -71.95 -72.75 -74.25 Q-75.95 -77.85 -76.1 -82.5 L-76.4 -93.8 -71.6 -98.5 -77.95 -119.1 Q-79.45 -121.05 -80.4 -123.4 -85.55 -136.4 -99.55 -137.05 L-99.55 -136.65 -99.45 -134.4 -98.0 -133.4 Q-94.5 -130.5 -94.5 -128.1 -94.5 -126.6 -97.45 -124.0 L-98.25 -123.3 Q-98.4 -122.1 -99.25 -121.15 -100.75 -119.5 -104.1 -119.5 -125.3 -119.65 -126.0 -119.9 -126.75 -120.25 -127.0 -120.8 L-127.1 -121.75 -127.0 -122.75 -128.25 -124.45 Q-129.5 -126.1 -129.5 -127.5 L-129.35 -128.55 -134.35 -127.8 -144.55 -128.1 Q-157.75 -128.05 -164.0 -139.3 -165.1 -141.35 -166.7 -142.8 -174.55 -149.9 -185.35 -149.15 L-194.6 -140.55 -195.0 -140.05 -195.0 -139.4 -195.0 -137.1 Q-195.35 -135.5 -197.0 -135.5 -198.65 -135.5 -199.0 -137.5 L-199.0 -139.5 -199.0 -139.85 Q-203.85 -143.0 -207.25 -148.0 L-210.1 -151.85 Q-213.0 -155.65 -215.05 -159.65 L-216.85 -160.55 Q-218.35 -163.2 -217.15 -165.9 L-216.25 -167.65 Q-214.95 -169.9 -212.75 -171.15 L-211.5 -172.65 -195.75 -175.1 -194.6 -173.8 -185.6 -173.25 -185.35 -173.45 -184.65 -173.7 Q-183.85 -173.8 -183.15 -173.4 L-176.6 -165.35 -174.95 -165.1 -173.85 -163.6 -181.75 -155.35 Q-180.05 -154.6 -178.25 -154.35 -171.7 -152.95 -165.9 -149.6 -163.4 -148.1 -162.2 -145.6 -158.1 -136.75 -149.1 -134.65 -137.9 -132.1 -127.8 -135.1 L-127.25 -135.0 -126.85 -135.05 Q-126.3 -135.1 -125.85 -135.45 L-125.25 -136.0 -124.65 -137.1 -123.65 -139.3 -123.25 -140.7 -123.1 -140.85 -122.85 -141.25 -122.55 -141.6 -122.25 -142.0 -122.15 -142.2 -122.05 -142.35 -121.95 -142.55 -121.75 -142.75 -121.1 -143.85 -120.35 -145.15 -120.05 -145.95 -119.95 -146.1 -119.8 -146.3 -119.75 -146.5 -119.7 -146.7 -119.6 -146.85 -119.55 -147.05 -119.5 -147.25 -119.5 -147.8 -119.5 -148.05 -113.55 -151.0 -110.3 -149.3 Q-109.9 -150.45 -108.25 -150.15 -106.05 -149.8 -106.0 -147.0 L-98.4 -142.95 Q-85.05 -142.15 -78.4 -130.6 -70.7 -117.25 -67.2 -102.0 -64.7 -103.0 -62.35 -102.0 -58.4 -100.35 -55.45 -97.6 L-53.1 -96.75 Q-47.25 -94.15 -47.25 -92.4 -47.25 -91.6 -47.75 -91.05 -48.3 -90.55 -49.1 -90.5 L-48.55 -86.5 Q-47.3 -79.9 -51.5 -75.6 -48.05 -73.7 -44.4 -72.6 -32.4 -68.65 -19.95 -65.45 L-12.6 -63.75 Q-2.4 -61.4 6.0 -55.4 L11.05 -58.25 11.0 -58.7 10.9 -60.9 Q10.95 -62.25 11.75 -63.05 14.15 -65.45 17.15 -65.35 L17.55 -65.3 8.55 -95.95 7.25 -96.8 Q0.9 -97.85 -0.9 -103.4 -2.8 -109.35 -2.4 -115.8 L6.6 -122.5 Q5.15 -135.95 12.0 -147.45 12.85 -148.9 14.05 -149.85 20.95 -155.55 27.0 -161.3 L27.05 -172.15 39.75 -181.55 46.95 -177.9 49.5 -181.9 Q52.1 -186.9 50.2 -192.1 L47.5 -199.05 Q35.6 -208.65 20.1 -208.6 L12.45 -199.65 Q10.85 -199.3 9.6 -200.0 7.55 -201.25 6.1 -203.5 L-0.25 -212.35 Q-2.35 -215.05 -4.85 -217.25 -9.35 -221.3 -9.85 -226.55 L-8.1 -227.7 -3.9 -233.9 -1.15 -233.65 Q-1.15 -234.4 -0.45 -234.4 L24.6 -234.85 25.7 -233.9 31.0 -226.6 32.4 -225.45 M78.5 -29.7 Q81.7 -31.6 85.05 -30.15 87.0 -29.4 88.55 -28.05 91.75 -25.4 95.3 -23.4 L90.0 -27.1 Q92.1 -27.4 93.95 -28.2 98.9 -30.5 104.55 -29.75 114.5 -28.95 123.65 -24.65 126.5 -23.35 129.45 -22.35 132.85 -21.1 135.65 -18.95 142.65 -13.5 149.95 -8.5 151.3 -7.65 152.75 -6.95 156.4 -5.45 156.9 -3.15 L156.0 1.3 Q151.0 -1.1 146.25 -4.1 L143.3 -6.45 Q136.9 -12.55 129.05 -16.25 126.1 -17.65 123.2 -19.25 111.8 -25.65 98.95 -24.1 95.9 -23.5 96.4 -22.5 97.75 -18.45 97.0 -13.9 96.55 -11.1 96.5 -8.25 96.45 -5.2 93.6 -4.15 L87.55 -1.65 86.35 -0.5 Q84.95 0.5 83.6 0.5 81.45 0.5 80.75 -0.6 L80.7 -0.95 Q75.25 -1.55 70.4 -4.65 67.75 -2.4 64.5 -0.95 42.75 9.0 21.1 19.3 L18.95 18.05 19.5 18.5 Q24.5 23.0 22.2 30.25 L30.2 32.45 Q33.5 33.35 36.75 34.6 43.85 37.3 49.0 42.7 58.4 52.45 68.45 61.25 L70.0 62.2 Q71.75 63.4 72.9 64.35 L73.55 63.2 73.55 63.3 73.65 63.5 73.7 63.7 Q75.1 62.4 78.55 60.6 84.0 57.8 87.2 59.3 L87.05 59.15 Q86.1 58.15 84.75 58.0 L84.25 58.15 85.35 57.4 85.6 57.55 87.3 58.4 87.45 58.45 87.6 58.55 87.95 58.75 88.15 58.95 88.6 59.25 89.3 59.65 89.4 59.75 90.05 60.75 89.95 60.85 89.8 61.05 Q91.5 62.1 94.55 63.75 99.0 66.5 99.0 68.65 99.0 69.45 97.0 71.7 L95.9 72.85 98.45 72.95 Q101.0 73.55 103.7 72.85 L103.95 72.8 110.65 71.9 117.1 70.1 Q123.3 67.95 129.05 64.8 133.7 62.3 138.4 60.1 145.55 56.7 152.35 52.9 159.35 48.95 166.2 46.5 L166.45 45.35 Q166.35 42.85 167.45 40.7 168.65 38.4 170.9 38.55 L178.3 34.25 Q178.7 33.0 179.7 32.25 L181.85 32.05 Q188.0 34.25 193.1 39.05 193.6 39.55 193.7 40.15 194.55 44.5 194.25 49.25 L196.05 52.6 196.4 49.1 Q209.8 60.1 219.9 74.7 224.95 82.0 233.3 84.0 L239.2 83.8 235.35 79.2 235.3 77.9 236.95 75.4 237.25 74.1 237.4 73.75 238.05 72.8 238.9 71.5 Q239.7 69.65 241.5 69.9 L241.45 68.3 Q242.5 66.5 244.75 67.15 250.25 68.5 255.55 67.0 263.95 64.6 272.2 66.55 273.35 67.25 273.9 68.35 L274.65 69.35 Q277.2 71.45 278.05 74.35 280.5 75.75 280.5 76.95 L280.0 78.3 Q279.35 79.0 278.35 79.0 L277.95 78.95 277.55 80.2 276.25 81.4 Q276.4 83.45 274.7 84.85 272.3 86.7 270.4 89.4 266.05 95.5 260.9 100.0 259.3 103.75 257.5 103.75 256.3 103.75 255.8 102.75 L255.5 101.75 255.6 101.05 Q253.05 99.5 251.05 97.05 L244.85 89.15 Q231.9 91.8 221.05 83.95 219.85 81.85 218.05 80.05 216.5 78.6 215.25 76.8 206.95 64.65 195.45 55.05 L192.2 57.0 183.2 64.1 Q177.9 64.75 173.4 61.95 171.6 60.9 170.8 59.4 L169.0 58.0 167.0 55.5 167.2 54.3 165.35 52.6 Q156.9 56.3 148.75 60.65 144.35 62.95 140.3 65.35 129.3 71.75 117.25 75.6 L111.3 77.2 102.45 78.45 102.45 78.35 101.95 78.4 101.25 78.25 100.35 78.5 100.25 78.5 Q98.7 78.95 97.35 79.9 96.25 80.7 95.5 81.9 L95.4 82.25 95.3 82.45 95.25 82.65 95.2 82.8 95.1 83.0 95.0 83.2 92.75 84.55 91.25 85.45 90.3 85.65 88.8 85.85 Q85.7 89.0 82.1 89.0 L78.55 88.45 Q75.65 87.5 74.75 85.5 74.15 84.1 73.1 83.4 L69.5 83.2 69.5 81.15 69.55 78.5 69.75 77.0 69.85 76.8 69.95 76.65 70.05 76.45 70.15 76.25 70.15 76.05 70.2 75.9 70.25 75.7 70.25 75.5 70.25 75.3 70.2 75.1 70.15 74.95 70.15 74.75 70.05 74.55 69.95 74.35 69.85 74.2 69.75 74.0 69.35 73.65 68.45 73.1 68.3 73.05 69.6 70.4 67.9 68.8 67.7 68.5 Q66.55 68.35 66.1 67.6 L66.05 67.55 Q57.95 60.0 50.75 51.65 38.65 37.6 21.0 36.25 L15.9 38.25 12.95 40.8 Q14.15 42.6 14.75 44.8 20.0 63.9 12.7 82.05 L15.25 83.75 15.25 83.9 15.3 84.05 15.4 84.25 15.45 84.45 15.5 84.65 15.75 85.0 16.15 85.55 16.4 85.95 16.65 86.3 16.7 86.5 16.75 86.7 16.9 86.9 17.05 87.05 17.2 87.25 17.25 87.45 17.4 87.65 17.5 87.8 17.65 88.0 17.7 88.2 17.75 88.4 18.0 88.75 18.25 89.15 18.45 89.5 18.65 89.9 18.95 90.25 18.9 90.7 18.7 92.8 19.15 93.1 Q22.0 95.15 22.0 98.85 22.0 101.35 20.35 103.55 17.65 107.25 11.35 107.25 9.55 107.25 8.8 106.6 L8.7 106.75 Q7.15 108.65 4.5 108.65 2.6 108.45 1.4 107.05 L-0.3 107.2 Q-1.75 113.35 -0.85 119.5 -0.4 122.6 1.65 125.15 8.4 133.6 12.95 143.05 11.5 143.75 10.9 144.75 L11.25 145.2 14.5 142.75 Q14.75 141.75 15.8 141.15 17.45 140.35 19.25 140.7 21.6 141.35 22.65 143.6 27.9 145.5 31.5 149.9 32.7 151.35 32.3 153.3 L31.4 156.85 Q32.75 156.9 32.75 158.9 32.75 159.5 31.8 160.95 L31.9 162.3 Q31.45 167.4 26.05 169.45 23.45 170.45 21.0 170.8 L21.0 171.3 22.3 171.1 Q18.05 185.85 10.45 199.15 L10.2 199.65 Q12.0 200.8 13.05 202.3 L13.0 202.3 13.0 202.8 13.0 203.05 13.0 203.65 13.0 204.5 12.95 207.7 Q12.9 208.75 13.25 209.75 L13.25 209.95 13.25 210.15 13.25 210.3 13.25 210.35 12.75 212.15 Q11.0 220.85 1.75 223.3 L-1.8 224.25 Q-4.95 225.0 -7.0 222.7 -13.65 222.5 -16.9 217.4 -17.45 216.55 -17.6 215.45 -19.05 206.55 -14.45 199.6 -14.05 199.0 -13.25 198.7 -11.35 198.3 -9.2 198.7 -6.75 194.8 -2.0 194.15 0.0 194.15 1.75 195.3 3.45 196.35 5.55 196.9 L5.6 196.8 16.4 171.95 16.95 171.9 16.85 170.8 Q13.2 170.35 9.8 168.3 L8.2 167.6 Q1.2 165.0 3.15 157.45 3.55 155.8 3.4 154.05 2.85 147.55 7.35 144.25 6.3 140.4 3.55 137.3 -0.85 132.3 -3.8 126.35 -8.3 117.4 -6.05 107.5 L-6.25 107.5 Q-6.85 107.5 -12.5 98.4 -12.5 97.1 -11.0 96.0 L-10.2 95.5 -9.5 95.15 -9.55 94.7 -9.5 94.55 -8.8 93.45 -8.75 93.25 -8.7 93.05 -8.6 92.9 -8.35 92.5 -8.05 91.95 -7.9 91.55 -7.75 91.2 -7.5 90.8 -7.3 90.45 -7.1 90.05 -6.95 89.7 -6.75 89.5 -6.65 89.3 -6.55 89.15 -6.45 88.95 -6.35 88.75 -6.3 88.55 -6.05 88.2 -5.95 88.0 -5.8 87.8 -5.7 87.65 -5.55 87.45 -5.5 87.25 -5.45 87.05 -5.35 86.9 -5.25 86.7 -5.2 86.5 -5.0 86.3 -4.85 86.15 -4.75 85.95 -4.6 85.75 -4.5 85.55 -4.45 85.4 -4.35 85.2 -3.8 84.05 -3.6 83.3 -3.35 82.75 -3.25 82.55 -3.1 82.4 -3.0 82.2 -2.95 82.15 -0.75 80.95 -0.75 80.65 Q-0.75 77.35 1.4 76.85 2.95 76.5 3.4 77.85 3.75 77.6 4.2 77.45 L6.6 77.5 7.4 77.95 Q7.8 77.35 8.75 77.25 L11.2 68.0 11.9 62.1 11.45 57.25 10.75 50.8 Q10.15 45.75 6.9 42.0 1.0 42.25 -4.1 39.55 -5.0 39.1 -5.25 38.25 -7.9 28.8 -6.75 18.5 L-4.5 16.3 -7.6 12.5 Q-10.0 9.9 -12.8 7.8 -28.65 -4.1 -47.75 -6.55 L-48.6 -2.7 -61.8 5.4 Q-65.5 5.3 -68.6 2.95 L-75.45 -2.85 -77.85 -10.0 Q-90.7 -10.5 -103.85 -7.4 L-113.75 -5.25 Q-132.15 -1.7 -149.65 -4.3 L-150.0 -3.5 -150.0 -2.9 Q-149.95 -1.65 -150.55 -0.55 -151.1 0.6 -152.2 1.35 -153.35 2.05 -154.8 2.1 -157.25 4.4 -160.25 5.85 L-162.15 6.85 Q-166.7 8.65 -170.25 5.15 L-173.65 3.85 -174.55 1.25 -177.8 0.75 -178.95 -1.2 Q-190.8 4.25 -202.1 11.45 -204.95 13.3 -205.45 15.0 L-205.5 24.85 Q-204.45 25.85 -203.95 27.0 -203.35 28.25 -203.9 29.55 -205.5 33.65 -209.7 33.6 -210.75 35.5 -212.6 36.1 -222.45 38.95 -230.5 31.65 L-230.7 31.75 -232.65 32.05 Q-241.0 34.7 -249.7 33.85 -251.35 33.5 -252.5 32.55 -257.75 28.35 -262.5 25.8 L-275.8 36.6 Q-277.8 35.85 -279.2 34.2 L-283.45 28.6 Q-287.75 22.25 -292.8 16.2 -294.0 14.8 -294.05 12.85 L-295.15 11.9 -295.55 9.65 -290.0 1.65 Q-277.85 2.15 -265.35 1.7 -259.15 1.15 -255.8 6.6 -255.0 7.85 -254.8 9.3 L-254.6 9.3 Q-252.5 9.4 -252.5 11.75 -252.5 12.55 -252.95 13.2 -253.5 14.0 -254.5 14.0 L-254.9 13.95 Q-255.2 15.85 -255.85 17.75 L-257.7 21.6 -253.75 25.5 Q-252.3 26.8 -250.5 27.35 -243.35 29.5 -236.6 26.75 L-233.6 23.4 -233.35 17.85 Q-233.15 15.95 -231.85 14.4 -227.45 9.5 -221.55 7.25 -218.0 5.9 -214.75 7.85 -210.5 10.45 -206.75 13.7 L-209.6 10.35 -178.55 -7.05 -178.35 -8.1 Q-185.8 -7.4 -193.35 -9.1 -196.0 -9.8 -198.2 -11.25 -203.6 -14.8 -207.75 -20.3 -210.85 -24.35 -213.25 -28.75 L-213.25 -28.8 -213.25 -29.0 -213.25 -29.2 -213.3 -29.4 -213.35 -29.55 -213.35 -29.75 -213.45 -29.95 -213.55 -30.15 -213.65 -30.3 -213.75 -30.5 Q-214.55 -31.4 -215.75 -31.5 L-229.35 -32.65 -233.45 -33.05 -234.95 -35.55 Q-236.1 -37.95 -236.75 -40.4 -236.75 -43.95 -233.45 -46.7 L-233.45 -46.75 -233.05 -47.3 -233.0 -47.5 -232.95 -47.7 -232.85 -47.85 -232.8 -48.05 -232.75 -48.25 -232.55 -48.45 -232.45 -48.6 -232.3 -48.8 -232.25 -49.0 -232.05 -49.2 -231.95 -49.35 -231.8 -49.55 -231.75 -49.75 -231.05 -50.85 -230.45 -52.55 -230.1 -53.5 -230.0 -53.7 -229.85 -53.85 -229.75 -54.05 -229.6 -54.25 -229.5 -54.45 -229.45 -54.6 -229.35 -54.8 -229.3 -55.0 -229.25 -55.2 -229.25 -55.35 -229.25 -55.75 -229.25 -55.95 -229.3 -56.15 -229.35 -56.3 -229.35 -56.5 -229.45 -56.7 -228.45 -56.8 Q-229.75 -58.9 -233.6 -61.05 -246.45 -68.35 -261.7 -67.6 L-267.2 -59.75 -269.3 -59.05 -271.35 -56.2 -273.5 -56.45 -293.0 -82.15 -293.0 -82.75 Q-292.8 -85.3 -291.15 -87.6 L-290.2 -89.1 Q-289.05 -91.2 -286.95 -92.25 L-286.55 -92.25 Q-280.6 -93.55 -274.9 -92.85 L-263.05 -90.8 Q-262.05 -91.4 -260.0 -91.4 -256.0 -91.45 -256.0 -89.0 L-256.0 -88.9 Q-253.2 -87.35 -252.2 -83.8 L-252.1 -83.75 Q-248.25 -81.8 -248.25 -80.0 -248.25 -79.25 -248.75 -78.7 -249.3 -78.0 -250.25 -78.0 -251.15 -78.0 -252.1 -78.55 L-257.45 -72.9 -257.7 -72.9 -248.1 -71.75 Q-241.2 -70.65 -234.8 -67.7 -228.85 -64.9 -224.1 -61.0 L-223.15 -62.0 Q-221.75 -63.1 -219.95 -63.45 -215.05 -64.3 -212.8 -58.75 L-212.1 -57.3 Q-210.1 -56.2 -208.15 -54.95 -206.95 -54.25 -206.75 -52.8 L-205.6 -45.55 -204.85 -44.55 -201.5 -39.85 Q-201.5 -38.25 -203.0 -36.1 -205.2 -33.0 -208.85 -33.0 L-209.3 -33.0 -207.75 -29.3 Q-203.25 -24.05 -199.1 -18.4 -198.05 -17.0 -196.65 -16.35 -188.0 -12.65 -178.05 -13.35 L-176.75 -17.2 -175.95 -17.65 Q-173.4 -18.45 -171.3 -20.15 -165.25 -25.15 -159.85 -21.35 L-157.75 -21.25 Q-155.45 -20.85 -153.8 -19.4 -152.35 -18.1 -152.05 -16.5 L-151.9 -16.5 -150.5 -16.35 Q-148.75 -15.15 -148.75 -13.5 -148.7 -11.8 -148.8 -10.1 -139.4 -8.0 -129.75 -8.65 L-122.7 -9.75 Q-100.55 -14.45 -78.3 -16.75 L-77.95 -17.3 -72.2 -21.05 Q-70.85 -23.0 -68.75 -24.15 -67.5 -24.9 -66.0 -25.2 -63.2 -25.55 -60.75 -26.25 L-51.35 -20.4 -49.3 -19.55 -47.75 -8.25 -48.0 -12.6 -30.05 -7.6 Q-11.35 -1.8 0.45 13.7 L-1.75 15.6 Q0.1 14.2 2.4 13.3 5.0 12.15 7.9 12.8 12.35 13.9 16.4 16.3 L15.7 15.55 68.1 -8.35 69.15 -23.75 72.25 -26.75 Q75.45 -27.9 78.5 -29.7 M157.9 -8.15 L161.3 -10.25 163.35 -11.55 Q168.6 -15.9 174.8 -15.0 L181.65 -10.35 Q181.7 -11.1 182.0 -11.65 186.1 -18.1 188.65 -25.15 L189.0 -27.15 Q189.05 -29.5 189.5 -31.65 191.45 -41.05 196.6 -49.3 L196.15 -49.75 Q195.5 -49.25 194.25 -49.25 191.95 -49.25 190.1 -52.8 L188.75 -56.35 Q188.75 -59.5 191.5 -60.15 L191.55 -60.15 191.9 -63.55 191.95 -63.6 192.05 -63.8 192.15 -64.0 192.2 -64.2 192.7 -65.15 193.7 -67.15 194.45 -68.5 194.55 -68.85 194.7 -69.25 194.85 -69.6 195.0 -70.0 195.2 -70.2 195.4 -70.35 195.55 -70.55 195.75 -70.75 195.85 -70.95 195.95 -71.1 196.05 -71.3 196.15 -71.5 196.2 -71.7 196.2 -71.85 196.25 -72.05 196.25 -72.25 196.25 -72.45 196.2 -72.65 196.2 -72.8 196.2 -72.85 197.55 -73.15 Q198.3 -74.6 199.45 -75.5 L199.25 -76.2 Q199.25 -78.4 206.0 -78.45 212.75 -78.55 212.75 -76.15 212.75 -75.1 212.2 -74.85 L211.6 -74.65 Q211.85 -74.5 212.05 -74.3 L215.05 -77.55 Q227.2 -90.2 244.75 -93.7 L248.4 -93.85 Q255.95 -92.2 262.8 -94.45 L259.15 -100.45 257.5 -102.05 Q255.95 -102.85 254.35 -103.7 L254.35 -105.4 256.95 -107.5 256.95 -107.65 257.5 -109.1 Q258.95 -112.35 261.9 -113.7 L265.5 -113.85 266.6 -113.8 272.95 -113.95 277.2 -114.95 Q284.2 -116.55 291.65 -114.2 L293.55 -109.65 297.4 -105.8 Q299.0 -106.05 299.0 -103.65 299.0 -102.75 297.25 -101.0 295.85 -99.6 294.5 -99.2 L294.0 -98.15 275.9 -76.35 273.75 -77.4 273.55 -80.45 266.0 -89.9 Q259.3 -86.4 251.8 -87.75 L247.75 -88.1 Q228.8 -85.95 216.1 -71.4 L217.35 -70.45 217.25 -70.05 217.25 -69.7 217.25 -69.5 217.25 -69.1 217.4 -68.75 217.5 -68.4 217.7 -68.0 217.9 -67.6 218.05 -67.45 218.2 -67.25 218.4 -67.05 218.6 -66.7 218.95 -66.15 219.2 -65.75 219.4 -65.35 219.55 -65.2 219.65 -65.1 219.4 -63.0 219.1 -61.4 219.5 -61.2 Q222.4 -59.55 222.5 -56.5 L222.15 -55.85 221.95 -55.7 221.8 -55.5 221.7 -55.3 221.65 -55.1 221.6 -54.95 221.55 -54.75 221.45 -54.55 221.2 -54.2 220.95 -53.8 220.75 -53.45 220.55 -53.05 220.4 -52.85 220.25 -52.7 220.2 -52.5 220.15 -52.3 220.05 -52.1 219.95 -51.95 219.8 -51.75 219.7 -51.55 219.65 -51.35 219.55 -51.2 219.5 -51.0 219.4 -50.8 219.25 -50.6 219.2 -50.45 219.15 -50.25 219.0 -50.05 218.9 -49.85 218.75 -49.7 218.6 -49.3 218.5 -49.1 218.45 -48.95 Q217.35 -48.25 216.1 -48.25 213.45 -48.25 212.75 -49.4 L211.5 -48.45 205.0 -48.5 204.65 -48.45 Q203.9 -48.35 203.35 -47.85 L202.85 -47.3 202.75 -47.1 202.7 -46.95 202.65 -46.75 202.55 -46.55 202.55 -46.5 201.45 -46.95 Q196.3 -38.95 195.0 -29.65 193.25 -17.4 185.4 -8.0 L186.95 -3.45 Q195.05 -6.5 201.7 -11.95 L220.05 -27.25 220.75 -34.4 Q220.95 -38.35 225.0 -38.95 229.3 -42.3 233.85 -45.0 L235.4 -45.1 Q242.75 -42.3 248.4 -36.65 251.9 -36.8 254.95 -35.15 259.3 -32.9 264.1 -31.15 274.1 -33.7 284.9 -33.35 291.8 -33.05 297.3 -29.95 L297.3 -26.9 299.35 -24.15 299.65 -24.15 Q302.25 -24.0 302.25 -21.8 302.25 -21.05 301.8 -20.5 301.25 -19.85 300.35 -19.75 L300.35 -19.7 282.2 1.25 281.45 3.05 Q280.4 4.75 279.1 4.75 277.8 4.75 277.25 3.75 L277.0 2.75 Q277.0 1.8 277.4 1.05 275.1 -0.6 273.75 -3.15 L271.4 -7.3 270.35 -7.65 258.5 -21.35 258.4 -23.2 260.85 -25.05 Q261.15 -25.9 260.75 -26.2 257.0 -28.55 252.8 -30.6 249.65 -32.15 249.6 -29.9 249.7 -26.3 248.35 -23.2 248.75 -22.45 248.75 -21.2 L248.45 -19.95 Q247.9 -19.0 246.75 -19.0 L245.8 -19.2 Q242.65 -15.6 238.4 -14.4 236.2 -11.55 232.85 -13.5 L231.25 -14.45 Q226.3 -17.35 221.4 -20.6 L204.1 -6.7 Q201.65 -4.75 198.8 -3.5 194.1 -1.5 190.25 1.5 L186.05 2.85 Q186.25 4.15 185.7 5.5 183.5 11.05 177.1 11.4 L174.35 13.85 Q172.7 15.35 170.85 15.3 165.75 15.2 162.1 10.85 L159.3 10.25 Q156.1 1.55 157.9 -8.15 M-99.25 -128.5 L-99.3 -128.65 -99.3 -128.15 -99.25 -128.5 M-103.35 -125.1 L-103.45 -125.1 -103.35 -125.1 M-39.35 41.45 L-36.75 39.2 Q-23.95 29.75 -8.5 26.25 L-7.65 31.65 Q-18.15 34.0 -27.5 39.35 -30.4 40.95 -32.85 43.1 -49.7 58.5 -71.3 63.95 L-72.9 68.5 -74.45 69.45 Q-75.4 70.05 -76.1 70.8 -80.5 75.2 -86.55 76.0 -90.65 76.4 -92.35 72.7 L-95.35 70.0 -95.75 70.0 Q-98.65 70.0 -99.85 68.95 -100.5 68.35 -100.5 67.5 -100.5 66.45 -99.8 65.95 L-100.3 59.55 -100.6 63.25 Q-113.9 53.9 -128.55 46.7 -136.2 42.85 -143.55 43.1 -140.5 46.35 -140.5 50.15 L-140.6 52.6 Q-140.8 54.25 -141.75 55.0 L-142.95 56.05 -144.25 57.5 -145.3 58.6 -146.25 59.1 -155.0 59.25 Q-161.45 59.25 -165.5 58.1 -166.15 58.5 -167.35 58.5 -169.2 58.5 -169.8 57.45 L-170.0 56.3 -170.0 55.9 -170.45 55.5 -170.6 55.35 -171.4 54.25 -180.9 64.3 -187.35 71.0 -193.25 77.35 -196.6 80.65 -200.25 83.4 -205.65 86.7 Q-208.0 88.1 -210.55 88.9 L-210.8 90.0 -211.05 90.5 -211.45 90.95 -212.0 91.35 -213.05 92.0 -213.95 92.75 -214.55 93.4 -221.9 103.35 Q-222.95 104.85 -224.6 104.3 L-231.95 112.95 -233.75 112.65 -234.4 111.8 Q-237.6 110.7 -239.45 107.5 -240.4 105.85 -241.75 104.4 -244.75 101.05 -246.85 97.4 -247.15 96.85 -246.75 96.2 L-252.0 88.05 -253.0 87.35 -253.5 84.7 Q-251.65 82.1 -249.2 79.6 -247.8 78.3 -246.15 77.8 -238.5 76.15 -231.1 77.6 L-226.8 77.25 Q-222.5 75.8 -218.6 77.4 -214.9 78.75 -213.6 82.4 L-213.4 83.15 Q-208.55 82.25 -204.45 79.55 -203.1 78.6 -201.9 77.45 L-197.05 72.6 Q-190.95 66.15 -184.3 60.05 L-179.9 55.7 -174.85 50.3 -173.1 48.5 -172.15 47.55 -172.25 44.8 -170.75 42.95 -170.9 44.8 -171.0 46.4 Q-170.25 44.05 -170.25 43.25 -170.2 42.0 -168.4 40.1 L-165.8 37.25 -164.6 34.2 -164.05 29.8 -163.8 29.2 -161.9 28.1 -155.8 28.55 -153.7 28.3 Q-151.0 28.4 -151.0 30.65 L-151.05 31.2 -150.1 32.4 -147.95 35.35 Q-146.0 38.1 -143.8 36.2 L-143.55 36.65 Q-128.5 40.05 -114.45 48.3 L-100.05 57.0 Q-100.35 55.35 -99.75 53.65 L-99.15 52.5 -98.8 52.1 -98.4 51.75 Q-96.9 51.35 -96.0 50.5 L-95.8 49.8 Q-95.3 48.5 -94.35 47.65 L-93.65 47.15 -92.9 46.75 -89.65 46.0 -85.3 44.15 Q-80.35 46.55 -75.55 49.8 -72.75 51.7 -72.9 54.85 -72.95 56.45 -72.0 57.75 L-71.85 57.95 Q-53.8 53.5 -39.35 41.45 M-162.0 51.1 L-161.5 50.75 Q-161.25 50.5 -161.65 50.5 L-162.0 51.1 M21.15 32.5 Q20.95 33.65 21.35 32.1 L21.15 32.5 M249.05 87.55 Q250.2 89.3 248.9 87.2 L249.05 87.55 M11.35 80.45 L12.45 81.35 11.4 80.25 11.35 80.45" fill="#89681d" fill-rule="evenodd" stroke="none"/>
    <path d="M25.3 -235.55 L-5.0 -235.55 -12.2 -225.0 10.4 -196.3 34.25 -224.0 25.3 -235.55 M253.4 -104.8 L276.0 -76.1 299.85 -103.8 290.9 -115.35 260.6 -115.35 253.4 -104.8 M221.85 -191.5 L191.55 -191.5 184.35 -180.95 206.95 -152.25 230.8 -179.95 221.85 -191.5 M256.9 -22.7 L279.5 6.0 303.35 -21.7 294.4 -33.25 264.1 -33.25 256.9 -22.7 M-182.25 -174.25 L-212.55 -174.25 -219.75 -163.7 -197.15 -135.0 -173.3 -162.7 -182.25 -174.25 M-257.05 -92.7 L-287.35 -92.7 -294.55 -82.15 -271.95 -53.45 -248.1 -81.15 -257.05 -92.7 M-217.75 76.4 L-248.05 76.4 -255.25 86.95 -232.65 115.65 -208.8 87.95 -217.75 76.4 M-260.3 0.0 L-290.6 0.0 -297.8 10.55 -275.2 39.25 -251.35 11.55 -260.3 0.0 M271.9 66.1 L241.6 66.1 234.4 76.65 257.0 105.35 280.85 77.65 271.9 66.1" fill="none" stroke="#89681d" stroke-linecap="round" stroke-linejoin="round" stroke-width="4.0"/>
    <path d="M134.2 -140.3 L148.6 -148.55 162.95 -140.3 162.95 -123.65 148.6 -115.35 134.2 -123.65 134.2 -140.3 M54.65 -156.85 L40.3 -148.55 25.9 -156.85 25.9 -173.5 40.3 -181.75 54.65 -173.5 54.65 -156.85 M27.0 -101.0 L12.65 -92.7 -1.75 -101.0 -1.75 -117.65 12.65 -125.9 27.0 -117.65 27.0 -101.0 M73.0 -86.65 L87.4 -94.9 101.75 -86.65 101.75 -70.0 87.4 -61.7 73.0 -70.0 73.0 -86.65 M24.15 -64.3 L36.85 -42.15 31.65 -33.25 6.35 -33.25 1.2 -42.1 14.1 -64.3 24.15 -64.3 M68.7 -23.45 L83.1 -31.7 97.45 -23.45 97.45 -6.8 83.1 1.5 68.7 -6.8 68.7 -23.45 M223.35 -57.1 L218.15 -48.2 192.85 -48.2 187.7 -57.05 200.6 -79.25 210.65 -79.25 223.35 -57.1 M185.5 -8.45 L185.5 8.2 171.15 16.5 156.75 8.2 156.75 -8.45 171.15 -16.7 185.5 -8.45 M220.5 -20.35 L220.5 -37.0 234.9 -45.25 249.25 -37.0 249.25 -20.35 234.9 -12.05 220.5 -20.35 M-214.1 -62.75 L-201.4 -40.6 -206.6 -31.7 -231.9 -31.7 -237.05 -40.55 -224.15 -62.75 -214.1 -62.75 M-163.5 -24.75 L-149.15 -16.5 -149.15 0.15 -163.5 8.45 -177.9 0.15 -177.9 -16.5 -163.5 -24.75 M-107.35 -150.4 L-94.65 -128.25 -99.85 -119.35 -125.15 -119.35 -130.3 -128.2 -117.4 -150.4 -107.35 -150.4 M-76.8 -77.5 L-76.8 -94.15 -62.4 -102.4 -48.05 -94.15 -48.05 -77.5 -62.4 -69.2 -76.8 -77.5 M-76.8 -18.95 L-62.4 -27.2 -48.05 -18.95 -48.05 -2.3 -62.4 6.0 -76.8 -2.3 -76.8 -18.95 M-7.3 19.1 L7.1 10.85 21.45 19.1 21.45 35.75 7.1 44.05 -7.3 35.75 -7.3 19.1 M-71.7 68.1 L-86.05 76.4 -100.45 68.1 -100.45 51.45 -86.05 43.2 -71.7 51.45 -71.7 68.1 M-151.35 27.9 L-138.65 50.05 -143.85 58.95 -169.15 58.95 -174.3 50.1 -161.4 27.9 -151.35 27.9 M-12.75 98.9 L0.15 76.7 10.2 76.7 22.9 98.85 17.7 107.75 -7.6 107.75 -12.75 98.9 M-205.05 13.8 L-205.05 30.45 -219.4 38.75 -233.8 30.45 -233.8 13.8 -219.4 5.55 -205.05 13.8 M-16.9 201.4 L-2.5 193.15 11.85 201.4 11.85 218.05 -2.5 226.35 -16.9 218.05 -16.9 201.4 M195.3 40.0 L195.3 56.65 180.95 64.95 166.55 56.65 166.55 40.0 180.95 31.75 195.3 40.0 M97.45 65.5 L97.45 82.15 83.1 90.45 68.7 82.15 68.7 65.5 83.1 57.25 97.45 65.5 M32.35 148.15 L32.35 164.8 18.0 173.1 3.6 164.8 3.6 148.15 18.0 139.9 32.35 148.15 Z" fill="none" stroke="#89681d" stroke-linecap="round" stroke-linejoin="round" stroke-width="3.0"/>
  </g>
</svg>
