<?xml version="1.0" encoding="UTF-8" standalone="no"?>
<svg xmlns:ffdec="https://www.free-decompiler.com/flash" xmlns:xlink="http://www.w3.org/1999/xlink" ffdec:objectType="shape" height="36.2px" width="31.75px" xmlns="http://www.w3.org/2000/svg">
  <g transform="matrix(1.0, 0.0, 0.0, 1.0, 15.9, 18.1)">
    <path d="M2.05 -15.4 L14.35 -8.35 14.35 5.4 Q13.1 8.45 10.6 10.5 8.9 11.85 6.65 12.8 L4.25 13.55 0.7 14.5 Q-2.45 15.25 -4.5 12.95 L-6.7 12.75 -13.6 8.75 -14.4 7.65 -14.4 -5.1 Q-13.65 -7.4 -12.35 -9.5 L-9.35 -11.2 -6.7 -11.05 Q-4.25 -14.95 0.5 -15.6 L2.05 -15.4" fill="#ffcc00" fill-rule="evenodd" stroke="none"/>
    <path d="M2.05 -15.4 L14.35 -8.35 14.35 5.4 14.35 8.3 10.6 10.5 Q8.9 11.85 6.65 12.8 L0.0 16.6 -6.7 12.75 -13.6 8.75 -14.4 8.3 -14.4 7.65 -14.4 -5.1 -14.4 -8.35 Q-13.35 -8.95 -12.35 -9.5 L-9.35 -11.2 0.0 -16.6 2.05 -15.4 Z" fill="none" stroke="#ffcc00" stroke-linecap="round" stroke-linejoin="round" stroke-width="3.0"/>
  </g>
</svg>
