<?xml version="1.0" encoding="UTF-8" standalone="no"?>
<svg xmlns:ffdec="https://www.free-decompiler.com/flash" xmlns:xlink="http://www.w3.org/1999/xlink" ffdec:objectType="shape" height="76.75px" width="34.35px" xmlns="http://www.w3.org/2000/svg">
  <g transform="matrix(1.0, 0.0, 0.0, 1.0, 16.4, 39.1)">
    <path d="M5.45 -35.65 L6.7 -33.9 Q11.95 -32.0 15.55 -27.6 16.25 -26.75 16.4 -25.75 L16.4 -24.45 16.35 -24.2 15.45 -20.65 Q16.05 -20.65 16.4 -20.2 L16.4 -17.45 15.85 -16.55 15.95 -15.2 Q15.8 -13.35 14.95 -11.85 L6.5 -6.95 5.05 -6.7 5.05 -6.2 5.2 -6.2 6.35 -6.4 Q2.1 8.35 -5.5 21.65 L-5.75 22.15 Q-3.95 23.3 -2.9 24.8 L-2.95 24.8 -2.95 25.3 -2.95 25.55 -2.95 26.15 -2.95 27.0 -3.0 30.2 Q-3.05 31.25 -2.7 32.25 L-2.7 32.45 -2.7 32.65 -2.7 32.8 -2.7 32.85 -3.2 34.65 Q-3.5 36.25 -4.1 37.65 L-4.1 23.9 -16.4 16.85 Q-15.25 17.1 -14.2 17.8 -12.5 18.85 -10.4 19.4 L-10.35 19.3 0.4 -5.35 0.45 -5.55 1.0 -5.6 0.9 -6.7 Q-2.75 -7.15 -6.15 -9.2 L-6.9 -9.55 -11.35 -12.15 -12.35 -13.45 -12.35 -27.45 -11.55 -29.8 -3.1 -34.65 -3.0 -34.45 Q-4.45 -33.75 -5.05 -32.75 L-4.7 -32.3 -1.45 -34.75 Q-1.2 -35.65 -0.35 -36.2 L-0.05 -36.4 Q1.55 -37.15 3.3 -36.8 L3.6 -36.7 5.45 -35.65 M5.2 -6.2 L2.05 -4.4 0.4 -5.35 2.05 -4.4 5.2 -6.2" fill="#ffcc00" fill-rule="evenodd" stroke="none"/>
    <path d="M5.45 -35.65 L3.6 -36.7 2.05 -37.6 -0.05 -36.4 -0.35 -36.2 -3.1 -34.65 -11.55 -29.8 -12.35 -29.35 -12.35 -27.45 -12.35 -13.45 -12.35 -12.7 -11.35 -12.15 -6.9 -9.55 0.4 -5.35 2.05 -4.4 5.2 -6.2 6.5 -6.95 14.95 -11.85 16.4 -12.7 16.4 -17.45 16.4 -20.2 16.4 -24.45 16.4 -25.75 16.4 -29.35 5.45 -35.65 Z" fill="none" stroke="#ffcc00" stroke-linecap="round" stroke-linejoin="round" stroke-width="3.0"/>
  </g>
</svg>
