<?xml version="1.0" encoding="UTF-8" standalone="no"?>
<svg xmlns:ffdec="https://www.free-decompiler.com/flash" xmlns:xlink="http://www.w3.org/1999/xlink" ffdec:objectType="shape" height="72.5px" width="38.65px" xmlns="http://www.w3.org/2000/svg">
  <g transform="matrix(1.0, 0.0, 0.0, 1.0, 19.3, 37.0)">
    <path d="M7.4 -30.85 L6.35 -31.95 6.3 -31.75 7.4 -30.85 M7.9 -30.7 L7.65 -30.15 8.55 -29.55 13.75 -20.5 13.65 -19.4 14.1 -19.1 15.0 -18.35 16.75 -15.3 16.95 -13.35 16.65 -11.3 14.65 -7.85 Q11.9 -4.95 6.3 -4.95 4.5 -4.95 3.75 -5.6 L3.65 -5.45 2.6 -4.45 -2.9 -4.45 -3.65 -5.15 -5.35 -5.0 -5.45 -4.45 Q-6.75 1.45 -5.9 7.3 -5.45 10.4 -3.4 12.95 3.3 21.3 7.8 30.65 L-0.65 35.5 Q0.35 33.45 2.3 32.05 1.25 28.2 -1.5 25.1 -5.9 20.1 -8.85 14.15 -13.3 5.3 -11.15 -4.45 L-11.1 -4.7 -11.3 -4.7 Q-11.9 -4.7 -17.5 -13.75 L-16.15 -16.15 -16.05 -16.2 -15.25 -16.7 -14.55 -17.05 -14.6 -17.5 -14.55 -17.65 -13.85 -18.75 -13.8 -18.95 -13.75 -19.15 -13.65 -19.3 -13.4 -19.7 -13.1 -20.25 -12.95 -20.65 -12.8 -21.0 -12.55 -21.4 -12.35 -21.75 -12.15 -22.15 -12.0 -22.5 -11.8 -22.7 -11.7 -22.9 -11.6 -23.05 -11.5 -23.25 -11.4 -23.45 -11.35 -23.65 -11.1 -24.0 -11.0 -24.2 -10.85 -24.4 -10.75 -24.55 -10.6 -24.75 -10.55 -24.95 -10.5 -25.15 -10.4 -25.3 -10.3 -25.5 -10.25 -25.7 -10.05 -25.9 -9.9 -26.05 -9.8 -26.25 -9.65 -26.45 -9.55 -26.65 -9.5 -26.8 -9.4 -27.0 Q-9.05 -27.55 -8.85 -28.15 L-8.65 -28.9 -8.5 -29.25 -8.4 -29.45 -8.3 -29.65 -8.2 -29.7 -8.2 -29.75 -8.15 -29.8 -8.05 -30.0 -8.0 -30.05 -5.8 -31.25 -5.8 -31.55 Q-5.8 -34.85 -3.65 -35.35 -2.1 -35.7 -1.65 -34.35 L-0.85 -34.75 1.55 -34.7 2.35 -34.25 Q2.75 -34.85 3.7 -34.95 L3.85 -35.5 5.15 -35.5 7.9 -30.7 M-5.45 -4.45 L-11.15 -4.45 -5.45 -4.45" fill="#ffcc00" fill-rule="evenodd" stroke="none"/>
    <path d="M7.9 -30.7 L5.15 -35.5 3.85 -35.5 -4.9 -35.5 -8.2 -29.75 -8.2 -29.7 -8.3 -29.65 -8.5 -29.25 -16.15 -16.15 -17.5 -13.75 -17.8 -13.3 -12.65 -4.45 -11.15 -4.45 -5.45 -4.45 -2.9 -4.45 2.6 -4.45 12.65 -4.45 14.65 -7.85 16.65 -11.3 17.85 -13.35 16.75 -15.3 15.0 -18.35 13.75 -20.5 8.55 -29.55 7.9 -30.7 Z" fill="none" stroke="#ffcc00" stroke-linecap="round" stroke-linejoin="round" stroke-width="3.0"/>
  </g>
</svg>
