<?xml version="1.0" encoding="UTF-8" standalone="no"?>
<svg xmlns:ffdec="https://www.free-decompiler.com/flash" xmlns:xlink="http://www.w3.org/1999/xlink" ffdec:objectType="shape" height="72.15px" width="31.75px" xmlns="http://www.w3.org/2000/svg">
  <g transform="matrix(1.0, 0.0, 0.0, 1.0, 15.85, 36.8)">
    <path d="M14.4 -25.35 L14.4 -10.4 12.7 -9.4 8.85 -7.9 6.4 -5.75 5.9 -5.35 Q7.1 -3.55 7.7 -1.35 12.85 17.45 5.9 35.35 L3.15 30.55 1.85 30.55 4.15 21.85 4.85 15.95 4.4 11.1 3.7 4.65 Q3.2 0.6 1.0 -2.65 L-0.15 -4.15 -3.7 -4.25 -12.7 -9.45 Q-14.8 -18.05 -13.8 -27.35 L-3.5 -33.25 0.85 -33.35 Q5.3 -32.25 9.35 -29.85 L9.15 -30.05 14.4 -27.05 14.4 -27.0 14.05 -26.85 11.9 -28.1 12.45 -27.65 14.4 -25.35 M6.4 -5.75 L1.0 -2.65 6.4 -5.75 M14.1 -13.65 Q13.9 -12.5 14.3 -14.05 L14.1 -13.65" fill="#ffcc00" fill-rule="evenodd" stroke="none"/>
    <path d="M14.4 -27.0 L14.4 -25.35 14.4 -10.4 12.7 -9.4 6.4 -5.75 1.0 -2.65 0.05 -2.1 -3.7 -4.25 -12.7 -9.45 -14.35 -10.4 -14.35 -27.05 -13.8 -27.35 -3.5 -33.25 0.05 -35.3 9.15 -30.05 14.4 -27.05 14.4 -27.0 Z" fill="none" stroke="#ffcc00" stroke-linecap="round" stroke-linejoin="round" stroke-width="3.0"/>
  </g>
</svg>
