<?xml version="1.0" encoding="UTF-8" standalone="no"?>
<svg xmlns:ffdec="https://www.free-decompiler.com/flash" xmlns:xlink="http://www.w3.org/1999/xlink" ffdec:objectType="shape" height="36.85px" width="75.35px" xmlns="http://www.w3.org/2000/svg">
  <g transform="matrix(1.0, 0.0, 0.0, 1.0, 38.45, 19.15)">
    <path d="M-8.85 -8.7 Q-7.7 -8.3 -6.45 -9.35 L-6.2 -8.9 Q8.85 -5.5 22.9 2.75 L36.9 11.2 36.75 17.7 Q23.45 8.35 8.8 1.15 1.6 -2.45 -5.3 -2.45 L-8.85 -8.7 -5.3 -2.45 -6.2 -2.45 Q-3.15 0.8 -3.15 4.6 L-3.25 7.05 Q-3.45 8.7 -4.4 9.45 L-5.6 10.5 -6.9 11.95 -7.95 13.05 -8.5 13.4 -23.55 13.4 -28.15 12.55 Q-28.8 12.95 -30.0 12.95 -31.85 12.95 -32.45 11.9 L-32.65 10.75 -32.65 10.35 -33.1 9.95 -33.25 9.8 -34.05 8.7 -34.35 9.05 -36.95 4.55 -36.35 3.55 -35.75 2.95 -34.8 2.0 -34.85 0.95 -33.5 -1.4 -33.55 -0.75 -33.65 0.85 Q-32.9 -1.5 -32.9 -2.3 L-32.9 -2.45 -31.3 -5.15 -31.05 -5.45 -28.45 -8.3 -27.25 -11.35 -27.1 -12.35 -24.15 -17.4 -18.45 -17.0 -16.35 -17.25 Q-13.65 -17.15 -13.65 -14.9 L-13.7 -14.35 -12.75 -13.15 -10.6 -10.2 Q-9.75 -9.0 -8.85 -8.7 M-24.3 4.95 L-24.65 5.55 -24.15 5.2 Q-23.9 4.95 -24.3 4.95" fill="#ffcc00" fill-rule="evenodd" stroke="none"/>
    <path d="M-24.15 -17.4 L-24.05 -17.65 -14.0 -17.65 -8.85 -8.7 -5.3 -2.45 -1.3 4.5 -6.5 13.4 -8.5 13.4 -23.55 13.4 -31.8 13.4 -34.35 9.05 -36.95 4.55 -36.35 3.55 -34.85 0.95 -33.5 -1.4 -32.9 -2.45 -31.3 -5.15 -27.1 -12.35 -24.15 -17.4 Z" fill="none" stroke="#ffcc00" stroke-linecap="round" stroke-linejoin="round" stroke-width="3.0"/>
  </g>
</svg>
