<?xml version="1.0" encoding="UTF-8" standalone="no"?>
<svg xmlns:ffdec="https://www.free-decompiler.com/flash" xmlns:xlink="http://www.w3.org/1999/xlink" ffdec:objectType="shape" height="68.55px" width="85.55px" xmlns="http://www.w3.org/2000/svg">
  <g transform="matrix(1.0, 0.0, 0.0, 1.0, 43.8, 33.25)">
    <path d="M-32.9 15.9 L-33.4 15.05 Q-33.7 14.5 -33.3 13.85 L-38.55 5.7 -39.55 5.0 -40.05 2.35 Q-38.2 -0.25 -35.75 -2.75 -34.35 -4.05 -32.7 -4.55 -25.05 -6.2 -17.65 -4.75 L-13.35 -5.1 Q-9.05 -6.55 -5.15 -4.95 -3.25 -4.25 -1.95 -2.95 L-0.9 -1.6 Q-0.45 -0.85 -0.15 0.05 L0.05 0.8 0.85 0.65 Q5.25 -0.3 9.0 -2.8 L11.55 -4.9 16.4 -9.75 Q22.5 -16.2 29.15 -22.3 31.45 -24.4 33.55 -26.65 L38.6 -32.05 39.75 -33.25 39.15 -32.25 41.75 -27.75 32.55 -18.05 26.1 -11.35 20.2 -5.0 16.85 -1.7 Q15.1 -0.25 13.2 1.05 L7.8 4.35 Q6.05 5.4 4.25 6.1 L2.9 6.55 2.65 7.65 2.4 8.15 2.0 8.6 1.45 9.0 0.4 9.65 -0.5 10.4 -1.1 11.05 -7.55 19.8 -9.35 21.85 -11.15 21.95 -18.5 30.6 -20.3 30.3 -20.95 29.45 Q-22.1 29.05 -23.05 28.4 L-32.9 15.9 M0.85 0.65 L4.65 5.6 4.25 6.1 4.65 5.6 0.85 0.65" fill="#ffcc00" fill-rule="evenodd" stroke="none"/>
    <path d="M-32.9 15.9 L-23.05 28.4 -19.2 33.3 -9.35 21.85 -7.55 19.8 4.25 6.1 4.65 5.6 0.85 0.65 -0.9 -1.6 -1.95 -2.95 -4.3 -5.95 -34.6 -5.95 -41.8 4.6 -32.9 15.9 Z" fill="none" stroke="#ffcc00" stroke-linecap="round" stroke-linejoin="round" stroke-width="4.0"/>
  </g>
</svg>
