<?xml version="1.0" encoding="UTF-8" standalone="no"?>
<svg xmlns:ffdec="https://www.free-decompiler.com/flash" xmlns:xlink="http://www.w3.org/1999/xlink" ffdec:objectType="shape" height="47.5px" width="81.85px" xmlns="http://www.w3.org/2000/svg">
  <g transform="matrix(1.0, 0.0, 0.0, 1.0, 41.7, 24.5)">
    <path d="M-11.45 -6.2 L-11.15 -4.05 -11.4 -8.4 Q-2.45 -6.15 6.55 -3.4 25.25 2.4 37.05 17.9 L34.85 19.8 Q36.7 18.4 39.0 17.5 L40.15 17.1 29.85 23.0 29.85 22.7 32.1 20.5 29.0 16.7 Q26.6 14.1 23.8 12.0 7.95 0.1 -11.15 -2.35 L-11.45 -1.0 -11.45 -6.2 -11.45 -1.0 -12.0 1.5 -25.2 9.6 -27.25 9.35 -34.4 5.25 -38.85 1.35 -40.2 -2.65 -40.2 -13.85 -35.6 -16.85 -34.8 -17.8 -29.25 -21.0 -24.15 -22.05 -14.75 -16.2 -12.7 -15.35 -11.45 -6.2 M-35.0 -1.1 L-25.85 4.15 -16.7 -1.1 -16.7 -11.7 -25.85 -16.95 -35.0 -11.7 -35.0 -1.1 -35.0 -11.7 -25.85 -16.95 -16.7 -11.7 -16.7 -1.1 -25.85 4.15 -35.0 -1.1" fill="#ffcc00" fill-rule="evenodd" stroke="none"/>
    <path d="M-29.25 -21.0 L-25.8 -23.0 -24.15 -22.05 -11.45 -14.75 -11.45 -6.2 -11.45 -1.0 -11.45 1.9 -25.8 10.2 -27.25 9.35 -34.4 5.25 -40.2 1.9 -40.2 -2.65 -40.2 -13.85 -40.2 -14.75 -34.8 -17.8 -29.25 -21.0" fill="none" stroke="#ffcc00" stroke-linecap="round" stroke-linejoin="round" stroke-width="3.0"/>
    <path d="M-35.0 -1.1 L-35.0 -11.7 -25.85 -16.95 -16.7 -11.7 -16.7 -1.1 -25.85 4.15 -35.0 -1.1 Z" fill="none" stroke="#ffcc00" stroke-linecap="round" stroke-linejoin="round" stroke-width="2.0"/>
  </g>
</svg>
