<?xml version="1.0" encoding="UTF-8" standalone="no"?>
<svg xmlns:ffdec="https://www.free-decompiler.com/flash" xmlns:xlink="http://www.w3.org/1999/xlink" ffdec:objectType="shape" height="36.2px" width="102.6px" xmlns="http://www.w3.org/2000/svg">
  <g transform="matrix(1.0, 0.0, 0.0, 1.0, 52.05, 18.1)">
    <path d="M-48.45 -9.55 Q-46.0 -10.35 -43.95 -12.0 L-43.35 -12.45 Q-41.7 -13.7 -40.15 -14.3 -36.2 -15.8 -32.5 -13.2 L-30.4 -13.1 -29.9 -13.0 -25.9 -10.7 Q-24.95 -9.65 -24.7 -8.35 L-24.55 -8.35 -23.15 -8.2 -21.8 -6.8 Q-21.4 -6.15 -21.4 -5.35 -21.35 -3.65 -21.45 -1.95 -12.05 0.15 -2.4 -0.5 L4.65 -1.6 Q26.8 -6.3 49.05 -8.6 L49.4 -9.15 50.55 -9.9 50.55 1.3 49.5 -1.85 Q36.65 -2.35 23.5 0.75 L13.6 2.9 Q-4.55 6.4 -21.8 3.9 L-22.3 3.85 -22.65 4.65 -22.65 5.25 Q-22.6 6.5 -23.2 7.6 -23.75 8.75 -24.85 9.5 -26.0 10.2 -27.45 10.25 -29.9 12.55 -32.9 14.0 L-34.8 15.0 Q-36.4 15.65 -37.85 15.6 L-46.85 10.45 -47.2 9.4 -49.15 9.1 -50.55 8.3 -50.55 -5.65 -49.4 -9.0 -48.45 -9.55 M-21.8 -6.8 L-21.8 3.9 -21.8 -6.8" fill="#ffcc00" fill-rule="evenodd" stroke="none"/>
    <path d="M-43.35 -12.45 L-48.45 -9.55 -49.4 -9.0 -50.55 -8.35 -50.55 -5.65 -50.55 8.3 -49.15 9.1 -46.85 10.45 -37.85 15.6 -36.15 16.6 -21.8 8.3 -21.8 3.9 -21.8 -6.8 -21.8 -8.35 -25.9 -10.7 -29.9 -13.0 -36.15 -16.6 -40.15 -14.3 Q-41.7 -13.7 -43.35 -12.45 Z" fill="none" stroke="#ffcc00" stroke-linecap="round" stroke-linejoin="round" stroke-width="3.0"/>
  </g>
</svg>
