<?xml version="1.0" encoding="UTF-8" standalone="no"?>
<svg xmlns:ffdec="https://www.free-decompiler.com/flash" xmlns:xlink="http://www.w3.org/1999/xlink" ffdec:objectType="shape" height="43.25px" width="68.4px" xmlns="http://www.w3.org/2000/svg">
  <g transform="matrix(1.0, 0.0, 0.0, 1.0, 35.2, 21.6)">
    <path d="M9.2 -3.35 L8.75 -1.85 6.9 2.0 10.85 5.9 Q12.3 7.2 14.1 7.75 21.25 9.9 28.0 7.15 L30.8 4.05 30.8 10.85 33.2 12.25 31.95 12.45 Q23.6 15.1 14.9 14.25 13.25 13.9 12.1 12.95 6.85 8.75 2.1 6.2 L-1.6 9.25 -11.2 17.0 Q-13.05 16.3 -14.35 14.85 L-17.8 10.5 -18.85 9.0 Q-23.15 2.65 -28.2 -3.4 -29.4 -4.8 -29.45 -6.75 L-30.55 -7.7 -30.95 -9.95 -25.4 -17.95 Q-13.25 -17.45 -0.75 -17.9 5.45 -18.45 8.8 -13.0 9.6 -11.75 9.8 -10.3 L10.0 -10.3 Q12.1 -10.2 12.1 -7.85 12.1 -7.05 11.65 -6.4 11.1 -5.6 10.1 -5.6 L9.7 -5.65 9.2 -3.35 -1.6 9.25 9.2 -3.35" fill="#ffcc00" fill-rule="evenodd" stroke="none"/>
    <path d="M-1.6 9.25 L-10.6 19.65 -14.35 14.85 -17.8 10.5 -33.2 -9.05 -26.0 -19.6 4.3 -19.6 13.25 -8.05 9.2 -3.35 -1.6 9.25 Z" fill="none" stroke="#ffcc00" stroke-linecap="round" stroke-linejoin="round" stroke-width="4.0"/>
  </g>
</svg>
