<?xml version="1.0" encoding="UTF-8" standalone="no"?>
<svg xmlns:ffdec="https://www.free-decompiler.com/flash" xmlns:xlink="http://www.w3.org/1999/xlink" ffdec:objectType="shape" height="57.25px" width="60.65px" xmlns="http://www.w3.org/2000/svg">
  <g transform="matrix(1.0, 0.0, 0.0, 1.0, 31.1, 29.4)">
    <path d="M-24.15 -15.05 L-23.6 -16.0 -23.55 -16.05 -17.35 -26.7 -16.65 -26.15 -15.7 -27.15 -14.5 -27.9 -8.35 -27.9 Q-6.5 -26.75 -5.35 -23.9 L-4.65 -22.45 -2.95 -21.5 1.3 -14.05 1.85 -10.7 2.6 -9.7 5.8 -5.3 2.15 0.95 Q0.6 1.85 -1.4 1.85 L-1.85 1.85 -1.3 3.15 -0.3 5.55 Q4.2 10.8 8.35 16.45 9.4 17.85 10.8 18.5 19.45 22.2 29.4 21.5 L29.55 21.05 29.55 27.85 28.8 27.85 28.9 27.8 29.1 26.75 Q21.65 27.45 14.1 25.75 11.45 25.05 9.25 23.6 3.85 20.05 -0.3 14.55 -3.4 10.5 -5.8 6.1 L-5.8 6.05 -5.8 5.85 -5.8 5.65 -5.85 5.45 -5.9 5.3 -5.9 5.1 -6.0 4.9 -6.1 4.7 -6.2 4.55 -6.3 4.35 Q-7.1 3.45 -8.3 3.35 L-11.95 3.15 -21.9 2.2 -25.2 1.85 -29.1 -4.85 -29.3 -5.55 -29.25 -6.25 -26.0 -11.85 -26.0 -11.9 -25.6 -12.45 -25.55 -12.65 -25.5 -12.75 -24.5 -14.5 -24.35 -14.7 -24.35 -14.75 -24.15 -15.05 M-1.3 3.15 L-11.95 3.15 -1.3 3.15" fill="#ffcc00" fill-rule="evenodd" stroke="none"/>
    <path d="M-23.55 -16.05 L-24.15 -15.05 -24.35 -14.75 -24.5 -14.5 -25.5 -12.75 -26.0 -11.9 -26.0 -11.85 -29.25 -6.25 -29.6 -5.7 -29.1 -4.85 -25.2 1.85 -24.45 3.15 -11.95 3.15 -1.3 3.15 0.85 3.15 2.15 0.95 5.8 -5.3 6.05 -5.75 1.3 -14.05 -2.95 -21.5 -6.65 -27.9 -8.35 -27.9 -14.5 -27.9 -16.7 -27.9 -17.35 -26.7 -23.55 -16.05 Z" fill="none" stroke="#ffcc00" stroke-linecap="round" stroke-linejoin="round" stroke-width="3.0"/>
  </g>
</svg>
