<?xml version="1.0" encoding="UTF-8" standalone="no"?>
<svg xmlns:ffdec="https://www.free-decompiler.com/flash" xmlns:xlink="http://www.w3.org/1999/xlink" ffdec:objectType="shape" height="43.8px" width="71.75px" xmlns="http://www.w3.org/2000/svg">
  <g transform="matrix(1.0, 0.0, 0.0, 1.0, 36.9, 22.9)">
    <path d="M-14.2 -20.9 L-3.4 -19.0 Q-2.4 -19.6 -0.35 -19.6 3.65 -19.65 3.65 -17.2 L3.65 -17.1 Q6.45 -15.55 7.45 -12.0 L7.55 -11.95 Q10.6 -10.4 11.25 -8.95 L8.9 -6.25 Q8.25 -6.35 7.55 -6.75 L2.2 -1.1 1.95 -1.1 4.2 -0.8 11.55 0.05 Q18.45 1.15 24.85 4.1 30.35 6.65 34.85 10.25 L28.65 20.9 29.2 19.25 29.55 18.3 29.65 18.1 29.8 17.95 29.9 17.75 30.05 17.55 30.15 17.35 30.2 17.2 30.3 17.0 30.35 16.8 30.4 16.6 30.4 16.45 30.4 16.05 30.4 15.85 30.35 15.65 30.3 15.5 30.3 15.3 30.2 15.1 31.2 15.0 Q29.9 12.9 26.05 10.75 14.05 3.95 -0.05 4.15 L-2.05 4.2 -7.55 12.05 -9.65 12.75 -11.7 15.6 -13.85 15.35 -33.35 -10.35 -33.35 -10.95 Q-33.25 -12.25 -32.75 -13.45 L-28.5 -19.65 -27.3 -20.45 -26.9 -20.45 -24.45 -20.9 -14.2 -20.9 M4.2 -0.8 L-0.05 4.15 4.2 -0.8" fill="#ffcc00" fill-rule="evenodd" stroke="none"/>
    <path d="M11.25 -8.95 L11.55 -9.35 2.6 -20.9 -14.2 -20.9 -24.45 -20.9 -27.7 -20.9 -28.5 -19.65 -32.75 -13.45 -34.9 -10.35 -12.3 18.35 -0.05 4.15 4.2 -0.8 8.9 -6.25 11.25 -8.95 Z" fill="none" stroke="#ffcc00" stroke-linecap="round" stroke-linejoin="round" stroke-width="4.0"/>
  </g>
</svg>
