<?xml version="1.0" encoding="UTF-8" standalone="no"?>
<svg xmlns:ffdec="https://www.free-decompiler.com/flash" xmlns:xlink="http://www.w3.org/1999/xlink" ffdec:objectType="shape" height="79.1px" width="38.65px" xmlns="http://www.w3.org/2000/svg">
  <g transform="matrix(1.0, 0.0, 0.0, 1.0, 19.3, 40.3)">
    <path d="M-8.6 -32.4 L-7.95 -32.75 -8.0 -33.2 -8.0 -33.45 -4.9 -38.8 3.85 -38.8 3.9 -38.5 4.35 -38.4 5.95 -37.3 6.2 -37.0 6.45 -36.6 6.5 -36.25 Q6.5 -35.55 6.05 -35.0 L8.05 -33.8 17.65 -16.95 17.45 -15.95 12.65 -7.75 10.4 -7.75 Q9.85 -8.05 9.6 -8.75 L9.55 -9.1 Q7.25 -8.4 4.1 -8.15 L3.6 -7.75 1.55 -6.15 Q0.4 -3.6 -0.05 -1.05 -1.3 6.4 -3.6 13.45 -7.65 25.65 -7.15 38.8 L-12.45 37.75 -12.55 36.75 Q-13.05 29.65 -11.3 22.95 L-6.45 5.2 Q-4.6 -1.5 -6.4 -7.75 L-6.5 -8.05 -10.35 -8.3 Q-11.35 -8.55 -12.3 -9.7 L-12.75 -9.75 Q-14.35 -11.35 -14.7 -13.5 L-15.75 -15.1 Q-16.75 -16.65 -16.75 -17.55 L-16.6 -18.65 -16.3 -19.15 -15.55 -19.45 -15.55 -20.4 -8.6 -32.4 M5.3 -19.0 Q3.75 -16.5 5.15 -18.65 L5.3 -19.0 M-6.4 -7.75 L3.6 -7.75 -6.4 -7.75" fill="#ffcc00" fill-rule="evenodd" stroke="none"/>
    <path d="M-8.0 -33.45 L-8.6 -32.4 -15.55 -20.4 -16.3 -19.15 -16.6 -18.65 -17.8 -16.6 -12.65 -7.75 -6.4 -7.75 3.6 -7.75 10.4 -7.75 12.65 -7.75 17.45 -15.95 17.85 -16.65 17.65 -16.95 8.05 -33.8 6.45 -36.6 6.2 -37.0 5.15 -38.8 3.85 -38.8 -4.9 -38.8 -8.0 -33.45 Z" fill="none" stroke="#ffcc00" stroke-linecap="round" stroke-linejoin="round" stroke-width="3.0"/>
  </g>
</svg>
