<?xml version="1.0" encoding="UTF-8" standalone="no"?>
<svg xmlns:ffdec="https://www.free-decompiler.com/flash" xmlns:xlink="http://www.w3.org/1999/xlink" ffdec:objectType="shape" height="58.0px" width="88.7px" xmlns="http://www.w3.org/2000/svg">
  <g transform="matrix(1.0, 0.0, 0.0, 1.0, 45.1, 29.75)">
    <path d="M-18.2 -1.4 Q-14.8 0.45 -11.2 1.55 0.8 5.5 13.25 8.7 L20.6 10.4 Q30.8 12.75 39.2 18.75 L43.6 16.25 36.65 28.25 Q36.6 26.05 36.95 23.85 L32.55 21.45 Q31.9 20.4 30.65 19.95 L11.65 13.35 Q8.3 12.25 5.1 11.85 -10.1 10.1 -22.6 2.3 L-25.4 2.75 -18.2 -1.4 -25.4 2.75 -31.35 3.7 -33.75 2.35 -33.85 2.2 -34.25 2.05 -40.8 -1.75 Q-42.8 -4.75 -42.9 -8.35 L-43.2 -19.65 -41.75 -21.05 -29.6 -28.0 -29.15 -27.85 Q-25.2 -26.2 -22.25 -23.45 -21.2 -23.2 -19.9 -22.6 -16.2 -20.95 -14.85 -19.65 L-14.85 -16.65 -15.9 -16.35 -15.35 -12.35 Q-14.1 -5.75 -18.3 -1.45 L-18.2 -1.4" fill="#ffcc00" fill-rule="evenodd" stroke="none"/>
    <path d="M-18.2 -1.4 L-25.4 2.75 -29.2 4.95 -31.35 3.7 -33.75 2.35 -34.25 2.05 -40.8 -1.75 -43.6 -3.35 -43.6 -20.0 -41.75 -21.05 -29.6 -28.0 -29.2 -28.25 -14.85 -20.0 -14.85 -19.65 -14.85 -16.65 -14.85 -3.35 -18.2 -1.4 Z" fill="none" stroke="#ffcc00" stroke-linecap="round" stroke-linejoin="round" stroke-width="3.0"/>
  </g>
</svg>
