<?xml version="1.0" encoding="UTF-8" standalone="no"?>
<svg xmlns:ffdec="https://www.free-decompiler.com/flash" xmlns:xlink="http://www.w3.org/1999/xlink" ffdec:objectType="shape" height="56.7px" width="69.0px" xmlns="http://www.w3.org/2000/svg">
  <g transform="matrix(1.0, 0.0, 0.0, 1.0, 35.25, 29.1)">
    <path d="M-8.55 -23.75 L-1.85 -20.15 Q11.5 -19.35 18.15 -7.8 25.85 5.55 29.35 20.8 L33.75 20.65 21.6 27.6 24.95 24.3 18.6 3.7 Q17.1 1.75 16.15 -0.6 11.0 -13.6 -3.0 -14.25 L-3.0 -14.0 -8.55 -23.75 -3.0 -14.0 -3.0 -13.85 -2.9 -11.6 -1.45 -10.6 -0.65 -9.9 1.9 -5.45 -0.2 -1.8 -0.9 -1.2 -1.7 -0.5 Q-1.85 0.7 -2.7 1.65 -4.2 3.3 -7.55 3.3 L-28.85 3.0 -30.45 0.25 -30.45 0.05 -31.05 -0.75 -32.8 -3.8 -32.95 -4.7 -32.8 -5.75 -33.6 -5.65 -29.65 -12.4 -29.3 -12.65 -28.7 -13.2 -28.1 -14.3 -27.1 -16.5 -26.9 -17.2 -25.85 -19.0 -25.7 -19.2 -25.6 -19.4 -25.5 -19.55 -25.4 -19.75 -25.2 -19.95 -24.55 -21.05 -23.8 -22.35 -23.55 -22.95 -21.9 -25.75 -18.2 -27.6 -15.85 -27.6 -13.75 -26.5 Q-13.35 -27.65 -11.7 -27.35 -10.8 -27.2 -10.25 -26.65 L-9.65 -25.65 -9.45 -24.2 -8.55 -23.75 M-2.75 -5.85 L-2.75 -5.35 -2.7 -5.7 -2.75 -5.85 M-6.9 -2.3 L-6.8 -2.3 -6.9 -2.3" fill="#ffcc00" fill-rule="evenodd" stroke="none"/>
    <path d="M-8.55 -23.75 L-3.0 -14.0 -0.65 -9.9 1.9 -5.45 -0.2 -1.8 -3.3 3.45 -28.6 3.45 -28.85 3.0 -30.45 0.25 -31.05 -0.75 -32.8 -3.8 -33.75 -5.4 -33.6 -5.65 -29.65 -12.4 -26.9 -17.2 -25.85 -19.0 -23.55 -22.95 -21.9 -25.75 -20.85 -27.6 -18.2 -27.6 -15.85 -27.6 -10.8 -27.6 -10.25 -26.65 -9.65 -25.65 -8.55 -23.75 Z" fill="none" stroke="#ffcc00" stroke-linecap="round" stroke-linejoin="round" stroke-width="3.0"/>
  </g>
</svg>
