<?xml version="1.0" encoding="UTF-8" standalone="no"?>
<svg xmlns:ffdec="https://www.free-decompiler.com/flash" xmlns:xlink="http://www.w3.org/1999/xlink" ffdec:objectType="shape" height="48.45px" width="95.55px" xmlns="http://www.w3.org/2000/svg">
  <g transform="matrix(1.0, 0.0, 0.0, 1.0, 48.8, 25.25)">
    <path d="M-28.25 -23.25 L-22.05 -23.25 -21.65 -22.8 -12.65 -22.25 -12.4 -22.45 -11.7 -22.7 -10.2 -22.4 -3.65 -14.35 -2.2 -14.1 -0.95 -12.5 -8.8 -4.35 -7.2 -3.75 -5.3 -3.35 Q1.25 -1.95 7.05 1.4 9.55 2.9 10.75 5.4 14.85 14.25 23.85 16.35 35.05 18.9 45.15 15.9 L45.7 16.0 46.1 15.95 46.75 15.8 42.8 22.55 38.6 23.2 28.4 22.9 Q15.2 22.95 8.95 11.7 7.85 9.65 6.25 8.2 -1.45 1.25 -12.0 1.85 L-12.4 1.85 -21.65 10.45 -22.05 10.95 -22.05 11.6 -22.05 13.5 -23.75 15.5 -24.05 15.5 -24.65 15.45 -26.0 13.7 -26.05 13.5 -26.05 11.5 -26.05 11.15 Q-30.9 8.0 -34.3 3.0 L-37.15 -0.85 Q-40.05 -4.65 -42.1 -8.65 L-43.9 -9.55 Q-45.4 -12.2 -44.2 -14.9 L-43.3 -16.65 Q-42.0 -18.9 -39.8 -20.15 L-38.55 -21.65 -28.25 -23.25 M-12.0 1.85 L-7.2 -3.75 -12.0 1.85" fill="#ffcc00" fill-rule="evenodd" stroke="none"/>
    <path d="M-28.25 -23.25 L-22.05 -23.25 -9.3 -23.25 -2.2 -14.1 -0.95 -12.5 -0.35 -11.7 -7.2 -3.75 -12.0 1.85 -22.05 13.5 -23.75 15.5 -24.2 16.0 -24.65 15.45 -26.0 13.7 -46.8 -12.7 -39.6 -23.25 -28.25 -23.25 Z" fill="none" stroke="#ffcc00" stroke-linecap="round" stroke-linejoin="round" stroke-width="4.0"/>
  </g>
</svg>
