<?xml version="1.0" encoding="UTF-8" standalone="no"?>
<svg xmlns:ffdec="https://www.free-decompiler.com/flash" xmlns:xlink="http://www.w3.org/1999/xlink" ffdec:objectType="shape" height="68.45px" width="31.75px" xmlns="http://www.w3.org/2000/svg">
  <g transform="matrix(1.0, 0.0, 0.0, 1.0, 15.85, 35.0)">
    <path d="M-0.35 -33.25 L-0.1 -32.75 0.9 -33.0 12.9 -26.1 Q13.9 -24.6 14.4 -22.85 L14.4 -10.7 13.95 -9.8 Q12.75 -7.5 10.15 -7.5 L1.8 -1.95 1.95 -1.4 10.25 28.1 1.5 28.1 -1.6 33.45 -1.7 31.5 Q-1.65 30.15 -0.85 29.35 1.55 26.95 4.55 27.05 L4.95 27.1 -3.7 -2.45 -4.05 -3.55 Q-4.6 -4.3 -5.35 -4.4 -11.7 -5.45 -13.5 -11.0 L-14.35 -14.2 -14.35 -23.85 -6.35 -29.8 -0.35 -33.25 M-3.7 -2.45 L0.05 -0.3 1.95 -1.4 0.05 -0.3 -3.7 -2.45" fill="#ffcc00" fill-rule="evenodd" stroke="none"/>
    <path d="M0.9 -33.0 L0.05 -33.5 -0.35 -33.25 -6.35 -29.8 -14.35 -25.25 -14.35 -23.85 -14.35 -14.2 -14.35 -8.6 -3.7 -2.45 0.05 -0.3 1.95 -1.4 14.4 -8.6 14.4 -10.7 14.4 -22.85 14.4 -25.25 12.9 -26.1 0.9 -33.0 Z" fill="none" stroke="#ffcc00" stroke-linecap="round" stroke-linejoin="round" stroke-width="3.0"/>
  </g>
</svg>
