<?xml version="1.0" encoding="UTF-8" standalone="no"?>
<svg xmlns:ffdec="https://www.free-decompiler.com/flash" xmlns:xlink="http://www.w3.org/1999/xlink" ffdec:objectType="shape" height="61.05px" width="49.9px" xmlns="http://www.w3.org/2000/svg">
  <g transform="matrix(1.0, 0.0, 0.0, 1.0, 24.2, 31.3)">
    <path d="M9.4 -29.55 L16.5 -25.95 21.35 -23.15 21.0 -22.6 23.4 -21.35 23.8 -11.2 24.2 -10.4 24.2 -8.25 23.95 -7.2 23.0 -4.95 22.0 -3.6 12.25 2.05 8.4 2.55 6.3 1.35 -0.95 -4.05 -1.85 -3.35 -4.55 -4.9 -4.55 -8.3 -4.55 -4.9 -1.85 -3.35 -12.7 4.95 -16.05 11.5 Q-19.35 18.25 -18.4 25.55 L-18.2 26.3 -24.2 29.75 -23.85 29.45 Q-25.3 16.0 -18.45 4.5 -17.6 3.05 -16.4 2.1 -10.1 -3.1 -4.55 -8.3 L-3.45 -9.35 -3.4 -20.2 8.6 -29.1 9.4 -29.55 M7.75 -2.95 L7.9 -2.8 Q8.05 -3.4 7.75 -2.95" fill="#ffcc00" fill-rule="evenodd" stroke="none"/>
    <path d="M16.5 -25.95 L9.85 -29.8 9.4 -29.55 8.6 -29.1 -4.55 -21.55 -4.55 -8.3 -4.55 -4.9 -1.85 -3.35 6.3 1.35 8.4 2.55 9.85 3.4 12.25 2.05 22.0 -3.6 24.2 -4.9 24.2 -8.25 24.2 -10.4 24.2 -21.55 21.35 -23.15 16.5 -25.95 Z" fill="none" stroke="#ffcc00" stroke-linecap="round" stroke-linejoin="round" stroke-width="3.0"/>
  </g>
</svg>
