<?xml version="1.0" encoding="UTF-8" standalone="no"?>
<svg xmlns:ffdec="https://www.free-decompiler.com/flash" xmlns:xlink="http://www.w3.org/1999/xlink" ffdec:objectType="shape" height="62.45px" width="70.7px" xmlns="http://www.w3.org/2000/svg">
  <g transform="matrix(1.0, 0.0, 0.0, 1.0, 36.35, 32.25)">
    <path d="M-1.15 -3.3 L-2.05 -3.3 -9.7 5.65 Q-11.3 6.0 -12.55 5.3 -14.6 4.05 -16.05 1.8 -19.1 -2.8 -22.4 -7.05 -24.5 -9.75 -27.0 -11.95 -31.5 -16.0 -32.0 -21.25 L-30.25 -22.4 -26.05 -28.6 -23.3 -28.35 Q-23.3 -29.1 -22.6 -29.1 L2.45 -29.55 3.55 -28.6 8.85 -21.3 10.25 -20.15 10.85 -18.85 1.75 -9.3 3.6 -8.85 12.85 -6.5 Q18.25 -5.25 22.85 -2.5 31.65 2.7 33.9 12.65 35.0 17.35 33.45 21.85 31.85 26.45 29.65 30.2 L24.8 27.4 Q26.25 25.5 27.35 23.4 29.95 18.4 28.05 13.2 L25.35 6.25 Q13.8 -3.1 -1.15 -3.3 L3.6 -8.85 -1.15 -3.3" fill="#ffcc00" fill-rule="evenodd" stroke="none"/>
    <path d="M3.6 -8.85 L12.1 -18.7 3.15 -30.25 -27.15 -30.25 -34.35 -19.7 -11.75 9.0 -1.15 -3.3 3.6 -8.85 Z" fill="none" stroke="#ffcc00" stroke-linecap="round" stroke-linejoin="round" stroke-width="4.0"/>
  </g>
</svg>
