<?xml version="1.0" encoding="UTF-8" standalone="no"?>
<svg xmlns:ffdec="https://www.free-decompiler.com/flash" xmlns:xlink="http://www.w3.org/1999/xlink" ffdec:objectType="shape" height="53.95px" width="76.2px" xmlns="http://www.w3.org/2000/svg">
  <g transform="matrix(1.0, 0.0, 0.0, 1.0, 37.35, 27.45)">
    <path d="M8.6 -6.05 L8.6 -17.7 23.0 -25.95 27.7 -23.25 23.0 -25.95 8.6 -17.7 8.6 -6.05 Q-2.6 -4.6 -12.85 0.25 -24.65 5.75 -31.75 15.05 -31.25 17.4 -31.1 19.85 -27.65 22.75 -27.65 25.4 L-27.75 26.5 -37.35 9.65 -35.75 10.65 Q-29.05 3.85 -21.0 -1.45 -11.75 -7.65 -0.7 -9.75 4.95 -10.95 8.1 -12.95 L8.25 -18.6 12.85 -21.3 Q17.65 -21.95 20.35 -25.85 21.4 -26.55 22.6 -26.5 24.4 -26.5 25.7 -25.15 L27.7 -23.25 Q31.6 -19.8 36.5 -17.6 L36.35 -13.45 36.25 -13.3 37.35 -13.6 37.35 -2.85 Q36.0 -1.75 34.6 -0.95 34.6 -0.05 33.9 0.95 L31.45 2.4 30.6 2.45 30.45 2.45 29.75 3.4 24.55 6.35 21.8 6.55 19.25 5.1 18.7 4.1 10.2 -0.15 9.85 -0.3 9.3 -5.85 9.2 -6.15 8.6 -6.05" fill="#ffcc00" fill-rule="evenodd" stroke="none"/>
    <path d="M27.7 -23.25 L23.0 -25.95 8.6 -17.7 8.6 -6.05 8.6 -1.05 9.85 -0.3 10.2 -0.15 19.25 5.1 21.8 6.55 23.0 7.25 24.55 6.35 29.75 3.4 31.45 2.4 33.9 0.95 37.35 -1.05 37.35 -2.85 37.35 -13.6 37.35 -17.7 27.7 -23.25 Z" fill="none" stroke="#ffcc00" stroke-linecap="round" stroke-linejoin="round" stroke-width="3.0"/>
  </g>
</svg>
