<?xml version="1.0" encoding="UTF-8" standalone="no"?>
<svg xmlns:ffdec="https://www.free-decompiler.com/flash" xmlns:xlink="http://www.w3.org/1999/xlink" ffdec:objectType="shape" height="50.1px" width="80.4px" xmlns="http://www.w3.org/2000/svg">
  <g transform="matrix(1.0, 0.0, 0.0, 1.0, 39.2, 26.05)">
    <path d="M2.55 -1.05 Q-15.3 0.35 -27.65 14.7 L-31.35 18.6 Q-34.7 21.65 -34.05 24.05 L-39.2 21.05 Q-30.9 8.3 -18.1 -0.25 -13.85 -3.15 -8.75 -4.1 -4.1 -4.95 -1.8 -6.55 L2.55 -1.05 -1.8 -6.55 -0.7 -7.5 -4.9 -12.75 -4.85 -15.2 -2.65 -17.1 1.05 -23.15 2.9 -23.15 3.9 -22.25 11.85 -23.15 26.15 -23.05 27.7 -23.85 30.05 -22.75 36.95 -12.65 17.65 11.85 14.5 11.85 4.05 -1.15 2.55 -1.05" fill="#ffcc00" fill-rule="evenodd" stroke="none"/>
    <path d="M2.55 -1.05 L-1.8 -6.55 -7.25 -13.5 -0.05 -24.05 30.25 -24.05 39.2 -12.5 15.35 15.2 2.55 -1.05 Z" fill="none" stroke="#ffcc00" stroke-linecap="round" stroke-linejoin="round" stroke-width="4.0"/>
  </g>
</svg>
