<?xml version="1.0" encoding="UTF-8" standalone="no"?>
<svg xmlns:ffdec="https://www.free-decompiler.com/flash" xmlns:xlink="http://www.w3.org/1999/xlink" ffdec:objectType="shape" height="52.35px" width="83.25px" xmlns="http://www.w3.org/2000/svg">
  <g transform="matrix(1.0, 0.0, 0.0, 1.0, 40.85, 26.95)">
    <path d="M12.15 -10.9 L12.6 -17.45 24.85 -24.45 Q26.65 -24.7 28.5 -23.9 30.45 -23.15 32.0 -21.8 35.2 -19.15 38.75 -17.15 L33.45 -20.85 34.3 -21.0 40.65 -17.35 Q39.55 -16.9 39.85 -16.25 41.2 -12.2 40.45 -7.65 40.0 -4.85 39.95 -2.0 39.95 -0.6 39.35 0.35 L34.7 3.05 31.0 4.6 Q30.65 5.15 29.8 5.75 28.4 6.75 27.05 6.75 24.9 6.75 24.2 5.65 L24.15 5.3 21.55 4.85 Q17.5 3.95 13.85 1.6 11.2 3.85 7.95 5.3 -13.6 15.15 -35.1 25.4 L-35.1 25.35 -40.35 22.35 -40.85 21.8 11.55 -2.1 12.15 -10.9 12.15 -0.55 21.55 4.85 12.15 -0.55 12.15 -10.9" fill="#ffcc00" fill-rule="evenodd" stroke="none"/>
    <path d="M12.6 -17.45 L12.15 -17.2 12.15 -10.9 12.15 -0.55 21.55 4.85 26.55 7.75 34.7 3.05 39.35 0.35 40.9 -0.55 40.9 -17.2 40.65 -17.35 34.3 -21.0 26.55 -25.45 24.85 -24.45 12.6 -17.45 Z" fill="none" stroke="#ffcc00" stroke-linecap="round" stroke-linejoin="round" stroke-width="3.0"/>
  </g>
</svg>
