<?xml version="1.0" encoding="UTF-8" standalone="no"?>
<svg xmlns:ffdec="https://www.free-decompiler.com/flash" xmlns:xlink="http://www.w3.org/1999/xlink" ffdec:objectType="shape" height="47.95px" width="96.15px" xmlns="http://www.w3.org/2000/svg">
  <g transform="matrix(1.0, 0.0, 0.0, 1.0, 47.3, 23.25)">
    <path d="M18.6 4.3 L17.85 8.0 Q12.85 5.6 8.1 2.6 6.5 1.55 5.15 0.25 -1.25 -5.85 -9.1 -9.55 L-14.95 -12.55 Q-26.35 -18.95 -39.2 -17.4 L-40.95 -16.9 -47.3 -20.55 Q-45.65 -20.85 -44.2 -21.5 -39.25 -23.8 -33.6 -23.05 -23.65 -22.25 -14.5 -17.95 -11.65 -16.65 -8.7 -15.65 -5.3 -14.4 -2.5 -12.25 4.5 -6.8 11.8 -1.8 13.15 -0.95 14.6 -0.25 17.85 1.1 18.6 3.05 L18.6 4.3 M35.8 -8.4 L40.5 -5.65 43.5 -3.65 43.55 -3.95 47.35 -1.75 47.35 -1.4 47.25 -1.3 47.35 -1.0 47.35 12.7 Q45.05 17.75 38.95 18.1 L36.2 20.55 Q34.55 22.05 32.7 22.0 L30.45 21.75 24.8 18.45 23.95 17.55 22.8 17.3 20.9 16.25 Q18.05 7.85 19.75 -1.45 L23.15 -3.55 25.2 -4.85 Q30.1 -8.9 35.8 -8.4" fill="#ffcc00" fill-rule="evenodd" stroke="none"/>
    <path d="M18.6 3.05 L18.6 -1.75 33.0 -10.0 35.8 -8.4 40.5 -5.65 43.55 -3.95 47.35 -1.75 47.35 -1.4 47.35 -1.0 47.35 12.7 47.35 14.9 33.0 23.2 30.45 21.75 24.8 18.45 22.8 17.3 20.9 16.25 18.6 14.9 18.6 4.3 18.6 3.05 Z" fill="none" stroke="#ffcc00" stroke-linecap="round" stroke-linejoin="round" stroke-width="3.0"/>
  </g>
</svg>
