<?xml version="1.0" encoding="UTF-8" standalone="no"?>
<svg xmlns:ffdec="https://www.free-decompiler.com/flash" xmlns:xlink="http://www.w3.org/1999/xlink" ffdec:objectType="shape" height="72.65px" width="43.15px" xmlns="http://www.w3.org/2000/svg">
  <g transform="matrix(1.0, 0.0, 0.0, 1.0, 20.8, 37.1)">
    <path d="M9.0 -34.1 L10.2 -32.0 Q10.1 -31.4 9.7 -31.2 L9.1 -31.0 9.55 -30.65 10.4 -31.6 17.05 -20.1 16.9 -19.35 16.6 -17.75 17.0 -17.55 Q19.9 -15.9 20.0 -12.85 L19.65 -12.2 19.45 -12.05 19.3 -11.85 19.2 -11.65 19.15 -11.45 19.1 -11.3 19.05 -11.1 18.95 -10.9 18.7 -10.55 18.45 -10.15 18.25 -9.8 18.05 -9.4 17.9 -9.2 17.75 -9.05 17.7 -8.85 17.65 -8.65 17.55 -8.45 17.45 -8.3 17.3 -8.1 17.2 -7.9 17.15 -7.7 17.05 -7.55 17.0 -7.35 16.9 -7.15 16.75 -6.95 16.7 -6.8 16.65 -6.6 16.5 -6.4 16.4 -6.2 16.25 -6.05 16.1 -5.65 16.0 -5.45 15.95 -5.3 Q14.85 -4.6 13.6 -4.6 10.95 -4.6 10.25 -5.75 L9.0 -4.8 2.5 -4.85 2.15 -4.8 1.35 -4.55 0.85 -4.2 0.35 -3.65 0.25 -3.45 0.2 -3.3 0.15 -3.1 0.05 -2.9 0.05 -2.85 -1.05 -3.3 Q-6.2 4.7 -7.5 14.0 -9.25 26.15 -17.0 35.55 L-17.0 35.2 -20.8 33.0 -20.5 32.0 Q-16.4 25.55 -13.85 18.5 -13.5 17.45 -13.5 16.5 -13.45 14.15 -13.0 12.0 -11.2 3.2 -6.55 -4.55 L1.35 -4.55 -6.55 -4.55 -5.9 -5.65 -6.35 -6.1 Q-7.0 -5.6 -8.25 -5.6 -9.9 -5.6 -11.35 -7.45 L-12.55 -9.5 -13.75 -12.7 Q-13.75 -15.85 -11.0 -16.5 L-10.95 -16.5 -10.6 -19.9 -10.55 -19.95 -10.45 -20.15 -10.35 -20.35 -10.3 -20.55 -9.8 -21.5 -8.8 -23.5 -8.05 -24.85 -7.95 -25.15 -7.95 -25.2 -6.95 -26.9 -6.75 -27.1 -6.65 -27.3 -6.55 -27.45 -6.45 -27.65 -6.35 -27.85 -6.3 -27.95 -5.45 -29.4 -4.95 -29.5 Q-4.2 -30.95 -3.05 -31.85 L-3.25 -32.55 Q-3.25 -34.75 3.5 -34.8 7.35 -34.85 9.0 -34.1" fill="#ffcc00" fill-rule="evenodd" stroke="none"/>
    <path d="M9.0 -34.1 L10.2 -32.0 10.4 -31.6 17.05 -20.1 20.85 -13.45 15.65 -4.55 1.35 -4.55 -6.55 -4.55 -9.65 -4.55 -11.35 -7.45 -12.55 -9.5 -14.8 -13.4 -7.95 -25.15 -7.95 -25.2 -6.95 -26.9 -6.3 -27.95 -5.45 -29.4 -1.9 -35.6 8.15 -35.6 9.0 -34.1 Z" fill="none" stroke="#ffcc00" stroke-linecap="round" stroke-linejoin="round" stroke-width="3.0"/>
  </g>
</svg>
