<?xml version="1.0" encoding="UTF-8" standalone="no"?>
<svg xmlns:ffdec="https://www.free-decompiler.com/flash" xmlns:xlink="http://www.w3.org/1999/xlink" ffdec:objectType="shape" height="53.6px" width="88.95px" xmlns="http://www.w3.org/2000/svg">
  <g transform="matrix(1.0, 0.0, 0.0, 1.0, 43.45, 27.8)">
    <path d="M5.45 -4.6 L6.45 -4.9 2.8 -10.9 1.15 -12.5 -2.0 -14.15 -2.0 -15.85 0.6 -17.95 0.6 -18.1 1.15 -19.55 Q2.6 -22.8 5.55 -24.15 L9.15 -24.3 10.25 -24.25 16.6 -24.4 20.85 -25.4 23.05 -25.8 30.25 -25.8 35.3 -24.65 37.2 -20.1 41.05 -16.25 Q42.65 -16.5 42.65 -14.1 42.65 -13.2 40.9 -11.45 39.5 -10.05 38.15 -9.65 L37.65 -8.6 19.55 13.2 19.4 13.15 17.3 10.45 17.2 9.1 9.65 -0.35 9.05 -0.05 Q2.6 3.1 -4.55 1.8 L-8.6 1.45 Q-27.55 3.6 -40.25 18.15 L-39.0 19.1 -39.1 19.5 -39.1 19.85 -39.1 20.05 -39.1 20.45 -38.95 20.8 -38.85 21.15 -38.65 21.55 -38.45 21.95 -38.3 22.1 -38.15 22.3 -37.95 22.5 -37.75 22.85 -37.4 23.4 -37.15 23.8 -36.95 24.2 -36.8 24.35 -36.7 24.45 -36.8 25.8 -43.45 14.3 -41.3 12.0 Q-29.15 -0.65 -11.6 -4.15 L-7.95 -4.3 Q-0.95 -2.75 5.45 -4.6 L9.05 -0.05 5.45 -4.6" fill="#ffcc00" fill-rule="evenodd" stroke="none"/>
    <path d="M23.05 -25.8 L4.25 -25.8 -2.95 -15.25 5.45 -4.6 9.05 -0.05 17.3 10.45 19.4 13.15 19.65 13.45 43.5 -14.25 34.55 -25.8 30.25 -25.8 23.05 -25.8 Z" fill="none" stroke="#ffcc00" stroke-linecap="round" stroke-linejoin="round" stroke-width="4.0"/>
  </g>
</svg>
