<?xml version="1.0" encoding="UTF-8" standalone="no"?>
<svg xmlns:ffdec="https://www.free-decompiler.com/flash" xmlns:xlink="http://www.w3.org/1999/xlink" ffdec:objectType="shape" height="52.75px" width="65.25px" xmlns="http://www.w3.org/2000/svg">
  <g transform="matrix(1.0, 0.0, 0.0, 1.0, 31.85, 27.15)">
    <path d="M3.5 -0.55 L-13.25 12.9 Q-15.7 14.85 -18.55 16.1 -23.25 18.1 -27.1 21.1 L-31.3 22.45 Q-31.1 23.75 -31.65 25.1 L-31.85 25.6 -31.85 11.9 -30.4 16.15 Q-22.3 13.1 -15.65 7.65 L2.7 -7.65 3.15 -11.45 3.15 -0.75 3.5 -0.55 3.15 -0.75 3.15 -11.45 3.4 -14.8 Q3.6 -18.75 7.65 -19.35 9.55 -20.85 11.55 -22.2 L17.5 -25.6 17.65 -25.6 28.6 -19.3 31.05 -17.05 31.9 -17.05 31.9 -6.4 31.0 -3.6 Q31.4 -2.85 31.4 -1.6 L31.1 -0.35 31.05 -0.25 Q30.55 0.55 29.6 0.6 L29.4 0.6 28.45 0.4 26.15 2.6 Q24.4 3.95 22.35 4.75 L21.05 5.2 20.45 5.9 Q19.7 6.55 18.9 6.8 17.35 7.2 15.5 6.1 L13.9 5.15 4.05 -1.0 3.5 -0.55" fill="#ffcc00" fill-rule="evenodd" stroke="none"/>
    <path d="M3.5 -0.55 L3.15 -0.75 3.15 -11.45 3.15 -17.4 11.55 -22.2 17.5 -25.6 17.55 -25.65 17.65 -25.6 28.6 -19.3 31.9 -17.4 31.9 -17.05 31.9 -6.4 31.9 -0.75 31.05 -0.25 Q30.55 0.55 29.6 0.6 L26.15 2.6 Q24.4 3.95 22.35 4.75 L20.45 5.9 Q19.7 6.55 18.9 6.8 L17.55 7.55 3.5 -0.55 Z" fill="none" stroke="#ffcc00" stroke-linecap="round" stroke-linejoin="round" stroke-width="3.0"/>
  </g>
</svg>
