<?xml version="1.0" encoding="UTF-8" standalone="no"?>
<svg xmlns:ffdec="https://www.free-decompiler.com/flash" xmlns:xlink="http://www.w3.org/1999/xlink" ffdec:objectType="shape" height="44.65px" width="56.1px" xmlns="http://www.w3.org/2000/svg">
  <g transform="matrix(1.0, 0.0, 0.0, 1.0, 27.05, 21.35)">
    <path d="M-13.35 -16.25 L-12.2 -15.85 Q-5.6 -17.55 1.3 -17.95 L10.1 -17.95 Q15.75 -17.45 20.4 -14.95 L21.0 -14.2 21.0 -11.6 23.05 -8.85 23.35 -8.85 Q25.95 -8.7 25.95 -6.5 25.95 -5.75 25.5 -5.2 24.95 -4.55 24.05 -4.45 L24.05 -4.4 5.9 16.55 5.15 18.35 Q4.1 20.05 2.8 20.05 L2.15 20.0 0.75 18.15 0.7 18.05 Q0.7 17.1 1.1 16.35 -1.2 14.7 -2.55 12.15 L-4.9 8.0 -5.95 7.65 -17.8 -6.05 -17.9 -7.9 -15.45 -9.75 Q-15.15 -10.6 -15.55 -10.9 L-16.55 -11.5 Q-19.85 -13.55 -23.5 -15.3 -26.65 -16.85 -26.7 -14.6 -26.65 -12.55 -27.05 -10.7 L-27.05 -21.35 Q-24.05 -21.3 -21.35 -19.85 -17.5 -17.85 -13.35 -16.25 L-16.55 -11.5 -13.35 -16.25" fill="#ffcc00" fill-rule="evenodd" stroke="none"/>
    <path d="M1.3 -17.95 L-12.2 -17.95 -13.35 -16.25 -16.55 -11.5 -19.4 -7.4 0.75 18.15 2.15 20.0 3.2 21.3 27.05 -6.4 21.0 -14.2 20.4 -14.95 18.1 -17.95 10.1 -17.95 1.3 -17.95 Z" fill="none" stroke="#ffcc00" stroke-linecap="round" stroke-linejoin="round" stroke-width="4.0"/>
  </g>
</svg>
