<?xml version="1.0" encoding="UTF-8" standalone="no"?>
<svg xmlns:ffdec="https://www.free-decompiler.com/flash" xmlns:xlink="http://www.w3.org/1999/xlink" ffdec:objectType="shape" height="71.15px" width="79.2px" xmlns="http://www.w3.org/2000/svg">
  <g transform="matrix(1.0, 0.0, 0.0, 1.0, 38.85, 34.8)">
    <path d="M27.3 3.3 L37.05 8.85 38.85 10.3 38.85 15.6 38.4 16.1 37.3 17.25 38.85 17.35 38.85 24.25 38.75 24.3 Q37.65 25.1 36.9 26.3 L36.8 26.65 36.7 26.85 36.65 27.05 36.6 27.2 36.5 27.4 36.4 27.6 34.15 28.95 32.65 29.85 31.7 30.05 30.2 30.25 Q27.1 33.4 23.5 33.4 L21.75 33.3 16.25 30.1 16.15 29.9 Q15.55 28.5 14.5 27.8 L12.0 27.65 10.9 27.0 10.9 25.55 10.95 22.9 11.15 21.4 11.25 21.2 11.35 21.05 11.45 20.85 11.55 20.65 11.55 20.45 11.6 20.3 11.65 20.1 11.65 19.9 11.65 19.7 11.6 19.5 11.55 19.35 11.55 19.15 11.45 18.95 11.35 18.75 11.25 18.6 11.15 18.4 10.75 18.05 10.1 17.6 10.1 16.55 11.0 14.8 10.1 14.05 10.1 9.9 13.4 8.05 10.1 9.9 10.1 14.05 9.3 13.2 9.1 12.9 Q7.95 12.75 7.5 12.0 L7.45 11.95 Q-0.65 4.4 -7.85 -3.95 -19.95 -18.0 -37.6 -19.35 L-38.85 -18.85 -37.15 -19.85 -37.15 -34.8 Q-34.65 -30.9 -36.4 -25.35 L-28.4 -23.15 -21.85 -21.0 Q-14.75 -18.3 -9.6 -12.9 -0.2 -3.15 9.85 5.65 L11.4 6.6 13.4 8.05 14.3 8.75 14.95 7.6 14.95 7.7 15.05 7.9 15.1 8.1 Q16.5 6.8 19.95 5.0 24.4 2.7 27.3 3.3" fill="#ffcc00" fill-rule="evenodd" stroke="none"/>
    <path d="M13.4 8.05 L24.5 1.65 27.3 3.3 37.05 8.85 38.85 9.9 38.85 10.3 38.85 15.6 38.85 17.35 38.85 24.25 38.85 26.55 24.5 34.85 21.75 33.3 16.25 30.1 12.0 27.65 10.9 27.0 10.1 26.55 10.1 17.6 10.1 16.55 10.1 14.05 10.1 9.9 13.4 8.05 Z" fill="none" stroke="#ffcc00" stroke-linecap="round" stroke-linejoin="round" stroke-width="3.0"/>
  </g>
</svg>
