<?xml version="1.0" encoding="UTF-8" standalone="no"?>
<svg xmlns:ffdec="https://www.free-decompiler.com/flash" xmlns:xlink="http://www.w3.org/1999/xlink" ffdec:objectType="shape" height="49.6px" width="99.35px" xmlns="http://www.w3.org/2000/svg">
  <g transform="matrix(1.0, 0.0, 0.0, 1.0, 48.9, 25.55)">
    <path d="M20.2 -12.3 Q20.4 -13.75 21.1 -15.1 22.3 -17.4 24.55 -17.25 L31.95 -21.55 Q32.2 -22.4 32.75 -22.95 L34.4 -23.9 34.85 -23.9 45.8 -17.6 46.75 -16.75 Q47.25 -16.25 47.35 -15.65 48.2 -11.3 47.9 -6.55 L48.95 -4.6 48.95 -0.65 45.85 1.2 39.0 6.6 35.95 8.4 33.2 8.35 22.85 2.35 22.65 2.2 20.65 -0.3 20.85 -1.5 20.2 -2.1 19.0 -3.2 Q10.55 0.5 2.4 4.85 L-6.05 9.55 Q-17.05 15.95 -29.1 19.8 L-35.05 21.4 -43.9 22.65 -43.9 22.55 -44.4 22.6 -45.1 22.45 -46.0 22.7 -46.1 22.7 Q-47.6 23.15 -48.9 24.05 L-48.9 17.15 -47.9 17.15 Q-45.35 17.75 -42.65 17.05 L-42.4 17.0 -35.7 16.1 -29.25 14.3 Q-23.05 12.15 -17.3 9.0 -12.65 6.5 -7.95 4.3 -0.8 0.9 6.0 -2.9 13.0 -6.85 19.85 -9.3 L20.1 -10.45 20.2 -12.3 20.2 -2.1 20.2 -12.3" fill="#ffcc00" fill-rule="evenodd" stroke="none"/>
    <path d="M20.2 -12.3 L20.2 -2.1 20.2 0.85 22.85 2.35 33.2 8.35 34.6 9.15 35.95 8.4 39.0 6.6 48.95 0.85 48.95 -0.65 48.95 -4.6 48.95 -15.8 45.8 -17.6 34.85 -23.9 34.6 -24.05 34.4 -23.9 32.75 -22.95 20.2 -15.8 20.2 -12.3 Z" fill="none" stroke="#ffcc00" stroke-linecap="round" stroke-linejoin="round" stroke-width="3.0"/>
  </g>
</svg>
