<?xml version="1.0" encoding="UTF-8" standalone="no"?>
<svg xmlns:ffdec="https://www.free-decompiler.com/flash" xmlns:xlink="http://www.w3.org/1999/xlink" ffdec:objectType="shape" height="56.45px" width="230.45px" xmlns="http://www.w3.org/2000/svg">
  <g transform="matrix(1.0, 0.0, 0.0, 1.0, 115.2, 27.95)">
    <path d="M108.1 -21.85 L107.15 -22.5 107.1 -22.5 107.05 -22.55 Q105.25 -23.1 103.4 -21.5 L102.1 -19.85 102.0 -19.65 Q101.7 -18.75 102.05 -17.4 L102.1 -17.1 102.35 -16.4 102.55 -15.45 102.6 -15.4 102.55 -15.4 102.6 -15.3 102.55 -14.95 102.25 -14.55 101.9 -14.15 101.85 -14.1 Q101.7 -13.5 102.0 -12.65 L102.75 -11.55 Q103.25 -11.1 104.1 -10.8 L104.25 -10.75 105.65 -10.55 105.8 -10.55 Q107.55 -10.7 110.25 -12.1 L111.1 -12.75 Q111.7 -13.2 112.2 -13.25 L112.35 -13.25 112.75 -13.3 113.65 -13.3 113.1 -13.75 112.85 -13.95 112.55 -14.4 112.4 -14.8 111.45 -17.0 110.1 -19.6 Q109.15 -21.15 108.1 -21.85 M114.1 -14.05 Q114.3 -13.8 114.65 -13.65 L115.2 -13.0 115.2 -12.1 115.0 -11.7 114.9 -11.7 114.45 -11.7 114.3 -11.8 113.8 -11.95 113.2 -12.1 112.3 -12.0 112.25 -12.0 111.7 -11.75 110.3 -10.95 109.8 -10.75 107.35 -9.85 105.9 -9.55 105.8 -9.5 104.8 -9.5 104.35 -9.55 103.85 -9.65 103.0 -10.0 102.65 -10.15 102.6 -10.2 102.0 -10.65 Q101.15 -11.4 100.8 -12.4 L100.7 -13.0 100.7 -13.7 100.85 -14.45 100.9 -14.55 100.9 -14.6 101.4 -15.45 101.25 -15.75 Q100.95 -16.3 100.9 -17.45 L100.9 -17.8 101.0 -18.95 100.8 -18.75 100.95 -19.2 100.95 -19.25 101.05 -19.4 101.05 -20.0 Q101.75 -21.95 104.0 -23.2 107.1 -24.8 109.95 -21.65 111.0 -20.7 111.65 -19.2 L112.75 -16.7 113.3 -15.55 113.6 -14.85 113.85 -14.4 113.9 -14.3 114.1 -14.05 M97.05 5.45 L96.3 7.1 95.35 8.05 Q94.15 8.7 92.65 7.55 91.85 6.9 91.05 5.25 L91.0 5.15 90.65 4.45 90.6 4.25 89.65 2.4 89.6 2.3 89.05 1.6 Q88.55 1.2 87.8 1.15 L86.95 1.0 86.7 0.7 86.7 0.5 86.95 0.15 87.8 0.0 87.95 0.0 90.65 -1.5 Q92.9 -2.4 93.65 -2.35 L96.05 -2.1 Q97.45 -1.65 98.5 -0.1 L98.65 0.1 99.05 0.95 99.1 1.65 99.0 1.9 98.95 1.95 98.35 2.9 97.45 3.9 96.9 4.3 97.0 4.6 97.05 5.35 97.05 5.45 M79.6 3.6 L79.65 3.7 80.1 6.75 Q80.1 8.0 79.4 8.95 L78.8 9.6 78.4 9.8 77.85 9.85 76.05 9.5 75.4 9.2 74.95 8.95 73.6 9.85 73.5 9.85 73.45 9.9 72.35 10.25 72.0 10.3 Q70.95 10.35 69.95 9.75 L69.8 9.65 69.3 9.3 Q68.25 8.55 67.55 7.65 L67.55 7.6 67.5 7.55 Q66.85 6.5 66.75 5.4 L66.8 4.65 66.8 4.3 67.1 0.35 Q67.4 -2.1 66.55 -5.65 L65.55 -8.65 Q65.85 -9.1 66.2 -8.95 L66.55 -9.2 67.55 -8.45 73.05 -3.75 75.5 -1.9 75.75 -1.65 77.75 0.45 78.0 0.8 78.55 1.5 78.6 1.6 79.25 2.5 79.55 3.25 79.6 3.5 79.6 3.6 M71.65 18.15 L72.3 19.85 Q72.4 20.8 72.15 21.45 72.6 21.75 73.05 22.75 L73.5 24.0 Q73.8 25.35 73.05 26.3 71.85 27.85 70.55 28.0 L70.45 28.0 69.0 27.95 69.0 27.65 67.9 27.65 66.7 27.3 66.3 27.15 65.75 26.95 65.4 26.9 63.85 26.4 Q61.1 25.6 59.3 25.9 58.55 26.05 56.5 27.25 L56.45 27.3 56.2 27.1 55.95 26.8 55.75 27.0 55.55 27.05 55.3 26.85 Q54.8 26.5 55.85 25.15 L57.2 23.15 58.1 21.05 59.0 19.5 60.9 17.3 Q62.2 15.9 62.8 15.65 L64.55 15.3 66.4 15.3 66.7 15.4 68.9 15.55 69.0 15.6 69.35 15.65 69.6 15.7 70.2 15.9 71.2 16.5 71.3 16.75 71.35 17.45 71.4 17.65 71.65 18.15 M90.25 -0.3 L89.0 0.25 89.75 0.75 90.1 1.1 91.1 2.65 91.55 3.7 91.85 4.4 92.3 5.3 92.45 5.6 93.3 6.65 Q93.9 7.1 94.4 7.2 L94.9 7.1 95.15 6.95 95.5 6.5 95.85 5.7 95.9 5.5 95.9 5.15 95.95 4.6 95.65 4.4 95.55 4.3 95.45 4.15 95.4 4.0 95.65 3.6 96.3 3.2 96.45 3.05 97.6 2.2 98.05 1.35 98.0 1.0 97.95 0.8 97.8 0.6 96.6 -0.65 Q94.7 -2.1 91.15 -0.7 L90.25 -0.3 M75.8 0.05 Q75.3 -0.35 74.75 -0.9 L72.3 -2.85 70.7 -4.1 69.05 -5.5 67.4 -7.0 67.15 -7.3 67.3 -6.8 67.4 -6.7 67.6 -5.9 67.9 -4.3 68.2 -0.9 68.2 -0.85 68.2 -0.35 67.85 2.95 67.8 3.5 67.65 5.45 67.75 5.5 68.4 6.75 Q69.15 7.8 70.05 8.4 L70.15 8.5 70.3 8.65 71.0 9.0 71.8 9.1 72.35 9.0 72.8 8.85 72.85 8.8 73.85 8.1 74.4 7.6 74.95 7.15 75.0 7.05 Q75.2 6.95 75.5 7.2 L75.55 7.25 75.75 7.75 75.75 7.8 75.7 8.1 76.15 8.2 76.4 8.25 76.6 8.3 77.8 8.6 Q78.25 8.75 78.5 8.35 79.1 7.6 79.1 6.85 79.15 6.2 78.8 4.8 L78.75 4.45 78.55 3.9 78.45 3.55 78.45 3.5 77.8 2.0 77.75 1.95 77.0 1.15 76.65 0.8 76.2 0.4 75.8 0.05 M70.95 20.85 L70.95 20.8 70.95 19.25 70.5 18.45 70.3 18.15 69.5 17.2 69.35 17.15 68.85 16.85 68.75 16.8 68.25 16.55 67.9 16.45 66.3 16.35 Q64.0 16.1 63.05 16.7 L61.5 18.3 59.75 20.15 58.9 21.75 58.7 22.4 Q58.2 23.85 57.1 25.4 L57.0 25.45 56.75 25.75 58.95 25.1 59.7 25.0 63.0 24.85 64.1 25.15 64.65 25.4 Q65.0 25.5 65.35 25.7 L66.8 26.2 66.95 26.2 67.9 26.45 68.0 26.5 68.05 26.5 68.15 26.55 69.5 26.7 69.55 26.7 69.8 26.75 Q71.35 26.75 72.2 25.6 72.95 24.7 72.05 23.3 L71.6 22.5 71.4 22.2 71.35 22.3 71.1 22.05 71.0 21.75 70.95 20.85 M77.2 12.3 L78.3 12.45 77.75 13.2 76.6 12.25 77.2 12.3 M-79.9 -15.45 L-79.3 -16.65 Q-78.65 -17.6 -76.45 -18.65 -74.2 -19.7 -73.8 -20.3 -73.4 -20.85 -73.4 -21.6 L-73.25 -22.45 -73.0 -22.65 -72.8 -22.7 -72.5 -22.45 Q-72.3 -22.3 -72.25 -21.65 L-72.2 -21.5 Q-71.65 -21.1 -70.65 -19.0 -69.7 -16.85 -69.7 -16.15 L-69.85 -13.8 Q-70.15 -12.4 -71.6 -11.3 L-72.7 -10.7 -73.0 -10.65 -73.15 -10.65 -73.35 -10.65 -74.5 -11.3 -75.55 -12.05 -76.0 -12.6 -76.25 -12.55 -77.3 -12.5 -77.4 -12.5 -78.75 -13.05 -79.35 -13.65 -79.65 -13.95 -79.95 -14.95 -79.9 -15.2 -79.9 -15.45 M-69.15 -3.5 L-68.7 -3.35 Q-67.05 -2.2 -66.45 0.25 -65.85 2.7 -67.7 4.35 L-67.75 4.4 -67.95 4.55 -68.8 5.15 -69.3 5.4 -69.45 5.5 -70.8 6.15 -71.15 6.25 -72.05 6.4 -74.65 6.85 -75.95 7.05 -77.2 7.35 -77.25 7.4 -77.45 7.5 -78.05 7.85 -78.75 8.2 -79.6 7.95 -79.95 7.7 -79.95 7.55 -79.8 7.2 -79.65 7.1 -79.4 6.65 -79.1 6.2 -78.9 5.2 -79.0 4.65 -79.5 2.55 -79.75 0.0 Q-79.8 -2.2 -79.05 -3.3 -77.55 -5.35 -75.75 -5.4 -74.6 -5.4 -73.85 -4.9 L-73.75 -4.85 -73.7 -4.8 -72.95 -4.1 -72.75 -4.15 -72.65 -4.2 -70.9 -4.1 -70.7 -4.05 -69.15 -3.5 M-56.3 7.65 Q-55.75 7.1 -54.55 7.15 L-53.6 7.25 -53.1 7.35 -52.2 7.7 -51.05 8.15 -50.6 8.3 Q-49.9 8.75 -49.35 10.15 L-49.25 10.45 -49.05 11.2 Q-48.4 13.1 -48.35 14.9 -48.3 16.5 -49.7 19.5 L-50.8 21.95 -51.05 22.5 -51.25 23.05 -51.3 25.3 Q-51.35 26.8 -51.85 27.45 L-51.95 27.4 -52.05 27.35 -52.8 27.1 -53.4 25.65 Q-54.1 23.95 -54.85 22.8 L-57.6 19.4 Q-60.7 15.15 -61.1 13.5 -61.4 12.35 -60.85 10.95 L-60.6 10.4 -59.95 9.3 Q-59.4 8.5 -58.7 8.2 L-57.85 8.05 -57.4 8.05 Q-57.0 8.2 -56.75 8.3 L-56.7 8.3 -56.5 7.85 -56.45 7.8 -56.3 7.65 M-33.55 10.9 Q-33.8 9.45 -32.75 7.95 L-31.2 6.2 -31.1 6.15 Q-30.15 5.4 -29.05 5.2 L-28.35 5.25 -28.0 5.25 -24.1 5.45 Q-21.75 5.5 -18.4 4.55 L-15.5 3.5 Q-15.1 3.75 -15.2 4.05 L-14.95 4.4 -15.6 5.35 -19.85 10.95 -21.6 13.35 -21.8 13.7 -24.7 16.65 -25.65 17.25 -26.6 17.65 -26.8 17.7 -27.5 17.9 -27.85 17.95 -28.5 18.1 -29.4 18.3 -29.7 18.35 -30.6 18.3 -31.1 18.15 -31.9 17.7 -32.5 17.2 -32.75 16.8 -32.8 16.25 -32.75 15.85 -32.75 15.65 -32.6 14.55 -32.5 14.2 -32.4 13.85 -32.25 13.7 -32.1 13.45 -32.75 12.7 -33.1 12.15 -33.1 12.1 -33.15 12.05 -33.4 11.45 -33.45 11.3 -33.55 10.9 M-71.85 -19.3 L-72.5 -20.55 -72.9 -19.75 -73.2 -19.35 Q-73.95 -18.6 -75.65 -17.85 -77.8 -16.9 -78.45 -16.0 L-78.85 -14.95 -78.85 -14.8 -78.8 -14.5 -78.55 -14.2 -78.15 -13.85 Q-77.7 -13.55 -76.85 -13.55 L-76.3 -13.5 -76.15 -13.85 -75.95 -14.05 -75.75 -14.1 -75.4 -13.85 -74.95 -13.25 -74.8 -13.05 -73.95 -12.1 -73.1 -11.65 Q-72.25 -11.7 -71.2 -13.25 -69.85 -15.05 -71.4 -18.4 L-71.85 -19.3 M-85.15 -14.25 L-85.25 -13.8 Q-85.5 -13.2 -85.85 -12.85 L-86.05 -12.75 -86.75 -12.7 -86.95 -12.55 Q-88.1 -11.9 -89.0 -11.65 -89.9 -11.45 -90.55 -11.65 L-91.75 -10.7 -93.0 -10.2 Q-94.2 -9.9 -95.2 -10.55 L-96.05 -11.25 -96.4 -11.65 -96.95 -12.85 -97.05 -13.0 Q-97.2 -14.45 -96.25 -17.6 L-96.15 -17.9 -95.7 -19.45 Q-95.2 -21.7 -95.4 -23.3 L-95.5 -23.9 Q-95.7 -24.65 -96.9 -26.6 L-96.95 -26.65 -96.8 -26.95 -96.5 -27.15 -96.8 -27.3 -96.75 -27.45 -96.6 -27.8 Q-96.3 -28.3 -94.9 -27.35 L-92.95 -26.1 -90.9 -25.3 -89.3 -24.6 -87.1 -22.8 -85.35 -21.05 Q-85.1 -20.55 -84.95 -19.4 L-84.9 -17.6 -84.9 -17.3 -85.0 -15.1 -85.05 -14.75 -85.1 -14.65 -85.15 -14.25 M-108.3 -6.85 L-107.95 -6.65 Q-107.05 -6.05 -106.75 -5.05 L-106.7 -4.9 -106.65 -4.5 -106.6 -4.2 -105.9 -4.05 -104.9 -3.3 -103.8 -2.45 Q-103.5 -1.85 -103.85 -0.55 -104.45 1.3 -105.65 2.1 L-107.8 3.1 -110.3 3.3 -110.4 3.3 -110.55 3.3 -110.85 3.25 -111.55 3.2 -112.65 3.1 -112.9 3.05 -113.85 2.7 -113.95 2.75 -114.8 2.85 -115.1 2.6 -115.2 2.45 -115.05 2.1 -114.3 1.7 -113.2 0.75 Q-112.75 0.1 -112.55 -2.35 -112.3 -4.8 -111.55 -5.85 -110.45 -7.5 -109.1 -7.2 L-108.4 -6.85 -108.3 -6.85 M-73.35 -3.05 L-73.5 -3.05 -73.7 -3.2 -74.05 -3.6 -74.4 -4.05 -74.75 -4.2 -75.75 -4.3 Q-77.1 -4.1 -78.15 -2.7 -79.35 -0.95 -78.35 3.35 L-77.95 4.3 -77.8 5.6 -77.85 5.95 -78.15 6.75 -77.55 6.45 -76.75 6.05 -76.3 6.0 -74.05 5.7 -71.3 5.05 Q-69.6 4.55 -68.6 3.85 L-68.6 3.8 -68.5 3.75 -68.35 3.6 -67.85 3.0 -67.8 3.0 Q-66.75 1.4 -67.85 -0.7 -68.4 -1.8 -69.25 -2.5 -70.05 -3.1 -71.6 -3.0 L-72.35 -3.0 -73.3 -3.1 -73.3 -3.05 -73.35 -3.05 M-56.65 9.4 L-57.55 9.2 Q-58.5 9.2 -59.1 10.0 -61.05 12.8 -59.45 15.2 -57.05 17.95 -56.1 19.7 L-55.45 20.45 -54.6 21.35 -53.35 23.05 -53.1 23.55 -52.4 25.15 -52.3 23.15 -52.25 22.7 -52.1 22.0 -51.5 20.3 Q-49.5 16.65 -49.4 15.6 -49.1 14.0 -49.75 11.8 -50.1 10.5 -50.6 9.8 L-51.25 9.1 -51.55 8.9 Q-52.3 8.45 -53.65 8.5 -55.0 8.3 -55.7 8.85 L-55.65 8.95 -55.55 9.35 -55.7 9.65 -56.5 9.65 -56.65 9.4 M-40.9 8.65 L-40.55 8.6 -39.1 8.8 -38.35 9.05 -38.05 9.2 -36.95 10.0 -36.5 10.55 -36.45 10.65 -36.1 11.25 -35.75 11.95 -35.45 12.75 Q-35.3 13.05 -35.25 13.7 L-35.25 13.85 -35.25 15.15 -35.25 15.8 -35.25 15.9 -35.35 16.45 -35.35 16.9 Q-35.5 18.3 -35.85 18.75 L-35.8 18.85 Q-35.55 19.55 -35.7 19.75 L-35.95 20.05 -36.1 20.1 -36.45 20.0 -36.9 19.25 -37.0 18.9 -37.75 18.1 Q-38.4 17.65 -40.9 17.45 L-43.7 16.85 -44.45 16.45 Q-46.0 15.35 -45.8 14.0 L-45.15 12.95 Q-44.4 11.75 -43.05 11.55 L-42.8 11.55 -42.7 11.4 -42.65 11.25 -42.5 10.85 -41.8 9.8 -41.55 9.45 -41.45 9.3 -41.0 8.7 -40.9 8.65 M-42.1 12.95 L-42.45 12.75 -42.65 12.5 -43.25 12.7 -44.35 13.5 -44.7 14.25 Q-44.8 14.9 -43.8 15.6 L-43.1 15.95 -41.05 16.35 -40.45 16.4 -40.4 16.4 -37.7 16.95 -37.1 17.25 -36.45 17.85 -36.35 17.35 -36.2 15.5 -36.2 15.3 Q-36.1 11.75 -37.95 10.45 -39.6 9.4 -40.35 9.65 L-41.0 10.35 -41.45 11.55 -41.5 11.8 -41.65 12.55 -42.0 12.9 -42.1 12.95 M-22.9 6.4 L-23.4 6.4 -26.65 6.2 -27.15 6.15 -29.05 6.2 -29.15 6.25 Q-29.4 6.25 -30.3 6.95 L-31.85 8.6 -32.4 9.65 -32.45 10.25 -32.3 10.9 -32.15 11.35 -31.35 12.3 -31.0 12.7 -30.4 13.4 -30.3 13.45 -30.4 13.9 -30.45 14.0 -30.9 14.15 -31.0 14.1 -31.25 14.1 -31.35 14.6 -31.35 14.8 -31.4 15.05 Q-31.35 15.2 -31.65 16.15 -31.7 16.6 -31.35 16.85 -30.6 17.35 -29.8 17.35 L-27.9 16.95 -27.55 16.85 -26.7 16.6 -25.25 15.9 -23.75 14.25 -23.45 13.85 -22.6 12.7 -20.8 10.25 -19.65 8.6 -18.45 7.0 -17.0 5.35 -16.7 5.05 -17.1 5.25 -17.3 5.3 -18.1 5.6 -19.65 5.95 -22.8 6.4 -22.9 6.4 M-90.05 -12.85 L-88.5 -12.95 -87.8 -13.4 -87.4 -13.65 -86.6 -14.45 -86.25 -15.15 -86.2 -15.25 -86.1 -15.5 -86.05 -15.65 -86.05 -15.7 -86.05 -15.75 -86.0 -15.8 -85.95 -16.1 -85.95 -17.6 Q-85.7 -19.85 -86.4 -20.75 L-88.0 -22.15 -89.85 -23.8 -91.5 -24.5 -92.15 -24.65 Q-93.65 -25.15 -95.15 -26.2 L-95.2 -26.25 -95.45 -26.4 -94.7 -24.25 -94.6 -23.6 Q-94.3 -21.65 -94.35 -20.4 -94.35 -19.7 -94.6 -19.25 L-94.75 -18.75 -95.0 -18.0 -95.6 -15.6 -95.6 -15.5 -95.8 -13.95 Q-95.85 -12.25 -94.65 -11.35 -93.65 -10.75 -92.25 -11.7 L-91.65 -12.15 -91.35 -12.4 -91.4 -12.4 -91.25 -12.65 -90.05 -12.85 M-111.45 -2.25 L-111.5 -1.95 -111.55 -1.3 Q-111.75 0.25 -112.15 1.15 L-112.3 1.4 -112.95 2.1 -111.6 2.25 -110.6 2.3 Q-106.9 2.5 -105.55 0.6 -104.45 -1.0 -104.7 -1.75 L-105.45 -2.45 -106.65 -2.9 -107.05 -3.0 -107.6 -3.1 -108.0 -3.45 -108.0 -3.65 -107.85 -3.95 -107.6 -4.15 -107.8 -4.65 Q-108.05 -5.5 -108.55 -5.8 -109.05 -6.15 -109.3 -6.2 -109.95 -6.2 -110.65 -5.25 -111.2 -4.45 -111.4 -2.6 L-111.45 -2.25" fill="#000000" fill-rule="evenodd" stroke="none"/>
    <path d="M107.1 -22.5 L107.3 -22.3 108.1 -21.85 Q109.15 -21.15 110.1 -19.6 L111.45 -17.0 112.4 -14.8 110.65 -15.4 Q108.6 -16.95 108.15 -17.1 L106.55 -17.5 105.0 -17.7 Q104.55 -17.7 103.35 -16.95 L103.3 -16.95 102.35 -16.4 102.1 -17.1 102.05 -17.4 Q101.7 -18.75 102.0 -19.65 L102.1 -19.85 103.4 -21.5 Q105.25 -23.1 107.05 -22.55 L107.1 -22.5 M100.8 -18.75 L101.0 -18.95 100.9 -17.8 100.9 -17.45 Q100.6 -17.85 100.65 -18.35 L100.8 -18.75 M109.0 -20.1 Q108.6 -20.7 108.3 -19.95 L108.0 -18.55 108.1 -18.25 108.45 -18.2 Q108.65 -18.0 108.8 -18.1 L108.9 -18.2 109.15 -18.85 Q109.45 -19.5 109.0 -20.1 M105.9 -20.3 L105.6 -20.75 Q104.9 -21.65 104.55 -20.75 L104.75 -20.4 104.85 -20.1 105.05 -19.75 105.1 -19.6 105.25 -19.25 105.5 -18.8 105.9 -18.75 106.05 -18.85 106.2 -19.1 106.2 -19.15 106.05 -20.1 106.0 -20.1 105.95 -20.2 105.9 -20.3 M90.25 -0.3 L91.15 -0.7 Q94.7 -2.1 96.6 -0.65 L97.8 0.6 97.95 0.8 98.0 1.0 98.05 1.35 97.6 2.2 96.45 3.05 96.3 3.2 95.6 2.35 95.55 2.3 95.3 2.05 93.1 0.8 Q91.45 0.0 90.25 -0.3 M96.1 2.4 L96.45 2.55 96.6 2.55 96.95 2.1 97.1 1.5 97.0 1.35 96.9 1.25 96.1 1.3 96.0 1.65 96.0 1.8 96.0 2.05 96.0 2.1 96.1 2.4 M95.2 -0.5 Q94.9 -1.35 94.3 -0.65 L94.15 -0.2 Q94.15 0.45 94.45 0.75 L95.3 0.65 Q95.55 0.35 95.2 -0.5 M67.9 -4.3 L68.9 -3.2 70.5 -0.45 71.2 0.7 72.3 2.2 73.2 3.6 73.3 3.75 Q74.1 5.3 73.9 6.35 L73.75 6.8 73.35 7.35 73.2 7.45 73.25 7.5 73.3 7.7 73.4 7.85 73.5 7.95 73.85 8.1 72.85 8.8 72.8 8.85 72.35 9.0 71.8 9.1 71.0 9.0 70.3 8.65 70.15 8.5 70.05 8.4 Q69.15 7.8 68.4 6.75 L67.75 5.5 67.65 5.45 67.8 3.5 67.85 2.95 68.2 -0.35 68.2 -0.85 68.2 -0.9 67.9 -4.3 M69.65 1.9 Q68.8 1.95 68.65 2.15 L68.55 2.45 68.55 2.55 68.9 2.9 71.1 2.65 71.25 2.35 71.3 2.25 Q70.75 1.8 69.65 1.9 M57.1 25.4 Q58.2 23.85 58.7 22.4 L58.9 21.75 59.75 20.15 61.5 18.3 63.05 16.7 Q64.0 16.1 66.3 16.35 L67.9 16.45 68.25 16.55 68.75 16.8 68.85 16.85 69.35 17.15 69.5 17.2 70.3 18.15 70.5 18.45 70.95 19.25 70.95 20.8 70.95 20.85 Q70.45 20.4 69.7 20.2 L68.8 20.0 68.45 19.95 68.35 19.95 65.85 19.75 Q64.0 19.5 62.0 21.2 L60.2 22.7 57.1 25.4 M72.0 5.3 L71.9 5.05 71.85 5.0 71.1 4.9 70.2 5.65 69.55 6.1 69.7 6.75 70.9 6.7 70.95 6.65 71.5 6.0 72.0 5.3 M64.35 18.1 Q63.0 17.35 62.65 17.8 L62.45 18.05 Q62.35 18.3 62.7 18.65 63.75 19.4 64.5 19.55 L65.25 19.45 Q65.65 18.85 64.35 18.1 M68.65 18.3 L68.65 18.25 68.45 17.6 Q67.95 16.5 67.3 17.4 L67.75 19.3 68.15 19.4 68.35 19.35 68.5 19.3 68.55 19.2 68.65 18.3 M-70.6 -4.15 L-70.1 -4.1 -69.3 -3.6 -69.15 -3.5 -70.7 -4.05 -70.9 -4.1 -70.75 -4.15 -70.6 -4.15 M-31.2 6.2 L-31.2 6.15 -31.1 6.15 -31.2 6.2 M-71.85 -19.3 L-71.4 -18.4 Q-69.85 -15.05 -71.2 -13.25 -72.25 -11.7 -73.1 -11.65 L-73.95 -12.1 -74.8 -13.05 -74.95 -13.25 Q-73.95 -13.8 -72.8 -16.5 L-71.85 -19.3 M-74.3 -13.15 L-74.3 -13.0 -73.85 -12.65 Q-73.35 -12.35 -73.0 -12.75 -72.65 -13.2 -73.1 -13.6 L-73.5 -13.6 -74.15 -13.5 -74.3 -13.15 M-72.75 -4.2 L-72.65 -4.2 -72.75 -4.15 -72.75 -4.2 M-71.45 -14.55 Q-70.6 -14.85 -71.35 -15.4 L-71.75 -15.5 Q-72.35 -15.5 -72.6 -15.1 -72.95 -14.7 -72.55 -14.35 L-71.45 -14.55 M-72.35 -3.0 L-71.6 -3.0 Q-70.05 -3.1 -69.25 -2.5 -68.4 -1.8 -67.85 -0.7 -66.75 1.4 -67.8 3.0 L-67.85 3.0 -68.0 3.1 -68.4 3.6 -68.5 3.7 -68.6 3.8 -68.6 3.85 Q-69.6 4.55 -71.3 5.05 L-74.05 5.7 -76.3 6.0 -75.35 4.55 -73.15 2.65 -73.1 2.6 -72.65 1.8 -72.5 1.5 -72.4 1.3 -72.0 0.25 -71.85 -0.25 -71.8 -0.35 Q-71.7 -0.8 -72.1 -2.05 L-72.35 -3.0 M-71.05 1.05 L-70.75 1.25 -69.85 1.4 -69.1 1.15 Q-68.05 0.7 -68.8 0.15 L-70.05 0.4 -70.15 0.4 -70.9 0.55 -71.05 0.9 -71.05 1.05 M-70.4 4.15 Q-70.0 3.85 -70.55 3.45 L-70.75 3.3 Q-71.1 3.1 -71.75 2.85 L-72.0 2.9 -72.1 2.95 -72.2 3.1 -72.35 3.45 -72.3 3.65 -71.75 4.05 -70.55 4.2 -70.4 4.15 M-55.55 9.35 L-55.65 8.95 -55.7 8.85 Q-55.0 8.3 -53.65 8.5 -52.3 8.45 -51.55 8.9 L-50.8 9.65 -50.6 9.8 Q-50.1 10.5 -49.75 11.8 -49.1 14.0 -49.4 15.6 -49.5 16.65 -51.5 20.3 L-52.1 22.0 -52.25 22.7 -52.3 22.25 -52.25 19.85 Q-52.05 18.25 -52.15 17.4 -52.35 15.8 -52.95 14.3 -53.25 13.25 -53.85 12.1 L-54.3 11.25 -54.55 10.75 -54.65 10.5 -55.05 9.65 -55.55 9.35 M-41.5 11.8 L-41.45 11.55 -41.0 10.35 -40.35 9.65 Q-39.6 9.4 -37.95 10.45 -36.1 11.75 -36.2 15.3 L-36.2 15.5 -36.35 17.35 -36.95 15.5 -37.85 14.3 -39.2 13.3 -40.75 12.6 -41.25 12.35 -41.4 12.0 -41.5 11.8 M-50.8 21.95 L-50.8 22.1 -51.05 22.5 -50.8 21.95 M-39.8 11.1 L-39.75 11.85 -39.7 11.95 -39.6 12.25 -39.25 12.45 -39.2 12.45 -38.95 12.2 -38.9 12.1 Q-38.8 11.9 -38.85 11.6 L-39.15 11.0 -39.8 11.1 M-56.75 8.3 L-56.7 8.3 -56.75 8.3 M-52.3 13.85 L-52.35 14.15 -52.4 14.3 -52.0 14.6 Q-51.4 15.05 -50.4 14.85 -49.4 14.65 -50.2 14.05 L-51.0 13.9 -52.3 13.85 M-52.2 10.4 L-52.6 10.9 -52.7 10.95 -53.25 11.45 Q-53.55 11.95 -53.15 12.25 -52.7 12.55 -51.85 11.75 -51.4 11.3 -51.4 10.95 -51.4 10.6 -51.75 10.4 -51.95 10.2 -52.05 10.3 L-52.1 10.3 -52.2 10.4 M-31.35 12.3 L-32.15 11.35 -32.3 10.9 -32.45 10.25 -32.4 9.65 -31.85 8.6 -30.3 6.95 Q-29.4 6.25 -29.15 6.25 L-29.05 6.2 -27.15 6.15 -26.65 6.2 -23.4 6.4 -22.9 6.4 -22.8 6.4 -19.65 5.95 -20.6 6.95 -23.15 8.65 -24.25 9.3 -25.7 10.55 Q-28.1 12.5 -29.65 12.25 -30.3 12.2 -30.8 11.65 L-31.0 11.75 -31.25 11.95 -31.35 12.3 M-26.2 6.9 L-26.55 7.2 Q-26.65 9.05 -26.2 9.35 L-25.9 9.5 -25.8 9.55 Q-25.4 9.0 -25.5 7.95 -25.6 7.1 -25.8 7.0 -26.0 6.85 -26.1 6.85 L-26.2 6.9 M-29.55 8.05 L-30.25 8.15 -30.1 9.4 -29.45 9.95 -28.75 10.35 Q-28.25 10.4 -28.45 9.45 L-29.1 8.65 -29.55 8.05 M-36.45 13.35 L-36.5 13.0 -36.75 12.8 -37.0 12.8 -37.85 12.95 -38.1 13.1 -38.25 13.4 -38.3 13.55 -38.0 13.75 -36.6 13.7 -36.45 13.35 M-95.2 -26.25 L-95.15 -26.2 Q-93.65 -25.15 -92.15 -24.65 L-91.5 -24.5 -89.85 -23.8 -88.0 -22.15 -86.4 -20.75 Q-85.7 -19.85 -85.95 -17.6 L-85.95 -16.1 -86.0 -15.8 -86.05 -15.75 -86.05 -15.7 -86.05 -15.65 -86.1 -15.5 -86.2 -15.25 -86.25 -15.15 -86.6 -14.45 -87.4 -13.65 -87.8 -13.4 -88.5 -12.95 -90.05 -12.85 -89.95 -12.95 Q-89.45 -13.8 -89.3 -14.95 L-89.25 -15.45 -89.2 -17.85 Q-89.1 -19.65 -90.8 -21.55 L-92.35 -23.2 -95.2 -26.25 M-86.9 -16.6 L-88.7 -16.0 -88.8 -15.65 -88.7 -15.45 -88.55 -15.35 -87.05 -15.5 Q-86.0 -16.0 -86.9 -16.6 M-87.7 -19.4 Q-87.05 -20.75 -87.5 -21.1 L-87.8 -21.3 Q-88.05 -21.35 -88.25 -21.0 L-89.1 -19.15 -89.0 -18.45 Q-88.45 -18.05 -87.7 -19.4 M-107.05 -3.0 L-106.65 -2.9 -105.45 -2.45 -104.7 -1.75 Q-104.45 -1.0 -105.55 0.6 -106.9 2.5 -110.6 2.3 L-111.6 2.25 -111.15 1.9 -110.2 1.0 -110.0 0.8 -109.65 0.45 -109.4 0.2 Q-107.25 -1.9 -107.05 -3.0 M-108.65 0.85 L-108.8 1.15 -108.35 1.65 -107.45 1.7 Q-107.1 1.3 -107.8 0.85 -108.25 0.35 -108.65 0.85 M-107.2 -1.0 L-107.3 -0.65 -107.25 -0.45 -106.95 -0.2 Q-106.4 0.15 -105.7 -0.35 -104.95 -0.85 -105.5 -1.25 L-107.2 -1.0" fill="#009900" fill-rule="evenodd" stroke="none"/>
    <path d="M112.4 -14.8 L112.55 -14.4 112.85 -13.95 113.1 -13.75 113.65 -13.3 112.75 -13.3 112.35 -13.4 Q110.45 -14.15 109.7 -14.65 109.0 -15.3 107.0 -16.0 L105.45 -16.35 104.3 -16.3 103.75 -16.05 102.75 -15.45 102.6 -15.4 102.55 -15.45 102.35 -16.4 103.3 -16.95 103.35 -16.95 Q104.55 -17.7 105.0 -17.7 L106.55 -17.5 108.15 -17.1 Q108.6 -16.95 110.65 -15.4 L112.4 -14.8 M114.1 -14.05 L113.9 -14.3 113.85 -14.4 114.1 -14.05 M109.0 -20.1 Q109.45 -19.5 109.15 -18.85 L108.9 -18.2 108.8 -18.1 Q108.65 -18.0 108.45 -18.2 L108.1 -18.25 108.0 -18.55 108.3 -19.95 Q108.6 -20.7 109.0 -20.1 M105.9 -20.3 L105.95 -20.2 106.0 -20.1 106.05 -20.1 106.2 -19.15 106.2 -19.1 106.05 -18.85 105.9 -18.75 105.5 -18.8 105.25 -19.25 105.1 -19.6 105.05 -19.75 104.85 -20.1 104.75 -20.4 104.55 -20.75 Q104.9 -21.65 105.6 -20.75 L105.9 -20.3 M106.85 -14.45 Q107.15 -15.25 107.6 -14.95 L107.9 -14.65 Q108.2 -13.65 108.0 -13.2 L107.9 -12.85 107.75 -12.8 107.65 -12.75 107.35 -12.85 Q106.9 -13.0 106.85 -13.85 L106.85 -14.45 M105.55 -14.35 L105.15 -13.4 105.05 -13.3 104.95 -13.25 103.8 -12.85 103.4 -13.45 104.0 -14.15 104.45 -14.6 104.55 -14.75 104.8 -15.2 105.8 -15.25 105.55 -14.35 M90.1 1.1 L89.75 0.75 89.0 0.25 90.25 -0.3 Q91.45 0.0 93.1 0.8 L95.3 2.05 95.55 2.3 95.6 2.35 96.3 3.2 95.65 3.6 95.4 4.0 95.45 4.15 95.55 4.3 95.65 4.4 95.95 4.6 95.75 4.6 95.4 4.45 95.35 4.35 95.05 3.85 94.5 3.0 94.45 2.95 94.35 2.9 94.1 2.75 Q92.6 1.7 90.5 1.2 L90.1 1.1 M95.2 -0.5 Q95.55 0.35 95.3 0.65 L94.45 0.75 Q94.15 0.45 94.15 -0.2 L94.3 -0.65 Q94.9 -1.35 95.2 -0.5 M96.1 2.4 L96.0 2.1 96.0 2.05 96.0 1.8 96.0 1.65 96.1 1.3 96.9 1.25 97.0 1.35 97.1 1.5 96.95 2.1 96.6 2.55 96.45 2.55 96.1 2.4 M93.15 5.45 L92.95 5.4 92.8 5.3 92.6 5.0 92.55 4.75 93.25 3.9 Q94.15 3.95 94.15 4.25 L94.1 4.45 93.8 4.9 93.4 5.45 93.15 5.45 M69.05 -5.5 L69.35 -4.45 70.3 -2.55 71.1 -1.25 71.85 -0.2 73.05 1.35 74.1 2.85 74.15 2.95 75.0 4.75 75.15 5.45 75.15 5.8 74.8 7.0 74.55 7.35 74.4 7.6 73.85 8.1 73.5 7.95 73.4 7.85 73.3 7.7 73.25 7.5 73.2 7.45 73.35 7.35 73.75 6.8 73.9 6.35 Q74.1 5.3 73.3 3.75 L73.2 3.6 72.3 2.2 71.2 0.7 70.5 -0.45 68.9 -3.2 67.6 -5.9 67.4 -6.7 67.3 -6.8 67.4 -7.0 69.05 -5.5 M76.2 0.4 L75.85 1.3 75.8 1.35 75.25 2.1 75.2 2.1 75.05 2.05 74.95 2.05 74.6 1.95 74.3 1.55 74.3 1.45 74.4 1.15 Q75.3 0.0 75.8 0.05 L76.2 0.4 M69.65 1.9 Q70.75 1.8 71.3 2.25 L71.25 2.35 71.1 2.65 68.9 2.9 68.55 2.55 68.55 2.45 68.65 2.15 Q68.8 1.95 69.65 1.9 M57.1 25.4 L60.2 22.7 62.0 21.2 Q64.0 19.5 65.85 19.75 L68.35 19.95 68.45 19.95 68.8 20.0 69.7 20.2 Q70.45 20.4 70.95 20.85 L71.0 21.75 71.1 22.05 71.35 22.3 71.4 22.2 71.6 22.5 71.05 22.35 70.85 22.2 70.55 22.0 69.75 21.55 68.9 21.2 68.3 21.1 68.15 21.1 68.0 21.05 67.6 20.95 65.4 20.85 Q64.2 20.85 63.35 21.4 L62.0 22.6 61.0 23.4 58.95 25.1 56.75 25.75 57.0 25.45 57.1 25.4 M78.4 6.2 L78.4 6.35 78.15 6.65 77.15 6.85 77.0 6.75 76.15 6.55 75.95 6.45 Q75.6 6.15 75.65 5.65 L75.75 5.35 75.8 5.2 75.9 5.25 76.9 5.55 77.25 5.65 77.95 5.9 Q78.3 6.0 78.4 6.2 M72.0 5.3 L71.5 6.0 70.95 6.65 70.9 6.7 69.7 6.75 69.55 6.1 70.2 5.65 71.1 4.9 71.85 5.0 71.9 5.05 72.0 5.3 M68.65 18.3 L68.55 19.2 68.5 19.3 68.35 19.35 68.15 19.4 67.75 19.3 67.3 17.4 Q67.95 16.5 68.45 17.6 L68.65 18.25 68.65 18.3 M64.35 18.1 Q65.65 18.85 65.25 19.45 L64.5 19.55 Q63.75 19.4 62.7 18.65 62.35 18.3 62.45 18.05 L62.65 17.8 Q63.0 17.35 64.35 18.1 M65.85 23.8 L65.7 24.2 65.5 24.5 65.35 24.5 65.05 24.3 64.7 23.15 64.45 22.15 Q65.0 21.5 65.55 22.4 66.05 23.1 65.85 23.8 M68.8 22.75 Q69.75 24.05 69.5 24.75 L69.25 24.95 69.1 24.95 68.75 24.8 68.25 23.95 67.95 23.4 67.85 23.15 67.7 22.9 67.4 21.95 67.95 21.9 68.15 22.0 68.8 22.75 M-73.2 -19.35 L-72.9 -19.75 -72.5 -20.55 -71.85 -19.3 -72.8 -16.5 Q-73.95 -13.8 -74.95 -13.25 L-75.4 -13.85 -75.75 -14.1 -75.95 -14.05 -76.15 -13.85 -76.3 -13.5 -76.35 -13.7 -76.3 -13.8 -76.2 -14.05 -75.65 -14.45 -74.7 -15.2 Q-73.65 -16.75 -73.25 -19.05 L-73.2 -19.35 M-75.75 -16.2 Q-75.7 -15.3 -76.15 -15.3 L-76.65 -15.65 -77.2 -15.95 -77.3 -16.2 -77.15 -16.55 -76.85 -16.75 -76.65 -16.8 -75.75 -16.2 M-74.3 -13.15 L-74.15 -13.5 -73.5 -13.6 -73.1 -13.6 Q-72.65 -13.2 -73.0 -12.75 -73.35 -12.35 -73.85 -12.65 L-74.3 -13.0 -74.3 -13.15 M-71.45 -14.55 L-72.55 -14.35 Q-72.95 -14.7 -72.6 -15.1 -72.35 -15.5 -71.75 -15.5 L-71.35 -15.4 Q-70.6 -14.85 -71.45 -14.55 M-73.35 -3.05 L-73.3 -3.05 -73.3 -3.1 -72.35 -3.0 -72.1 -2.05 Q-71.7 -0.8 -71.8 -0.35 L-71.85 -0.25 -72.0 0.25 -72.4 1.3 -72.5 1.5 -72.65 1.8 -73.1 2.6 -73.15 2.65 -75.35 4.55 -76.3 6.0 -76.75 6.05 -77.55 6.45 -78.15 6.75 -77.85 5.95 -77.65 5.6 -75.8 3.5 Q-75.1 3.05 -73.85 1.25 -72.65 -0.5 -73.05 -1.8 L-73.35 -3.05 M-75.85 -1.1 Q-76.2 -1.55 -76.05 -2.55 L-75.35 -2.75 -74.9 -1.95 -74.05 -1.0 Q-73.8 0.05 -74.3 -0.05 L-75.05 -0.5 -75.85 -1.1 M-77.1 1.25 L-77.1 1.15 -76.95 0.8 Q-76.65 0.4 -75.9 0.55 L-75.3 0.75 Q-74.45 1.4 -75.4 1.75 L-76.85 1.5 -77.1 1.25 M-71.05 1.05 L-71.05 0.9 -70.9 0.55 -70.15 0.4 -70.05 0.4 -68.8 0.15 Q-68.05 0.7 -69.1 1.15 L-69.85 1.4 -70.75 1.25 -71.05 1.05 M-70.4 4.15 L-70.55 4.2 -71.75 4.05 -72.3 3.65 -72.35 3.45 -72.2 3.1 -72.1 2.95 -72.0 2.9 -71.75 2.85 Q-71.1 3.1 -70.75 3.3 L-70.55 3.45 Q-70.0 3.85 -70.4 4.15 M-53.1 23.55 L-53.4 21.5 -53.3 19.2 -53.3 16.8 Q-53.6 13.9 -55.85 10.85 L-56.05 10.55 -56.65 9.85 -56.7 9.6 -56.65 9.4 -56.5 9.65 -55.7 9.65 -55.55 9.35 -55.05 9.65 -54.65 10.5 -54.55 10.75 -54.3 11.25 -53.45 13.1 -52.95 14.3 Q-52.35 15.8 -52.15 17.4 -52.05 18.25 -52.25 19.85 L-52.3 22.25 -52.25 22.7 -52.3 23.15 -52.4 25.15 -53.1 23.55 M-41.05 16.35 L-41.25 15.9 -41.1 15.3 -40.7 14.95 -40.6 14.9 -40.35 15.0 Q-40.05 15.25 -40.05 15.6 -40.0 16.0 -40.4 16.4 L-40.45 16.4 -41.05 16.35 M-37.7 16.95 L-38.15 15.75 Q-38.45 15.05 -39.7 14.25 -39.95 14.0 -41.35 13.45 L-41.65 13.25 -42.1 12.95 -42.0 12.9 -41.65 12.55 -41.5 11.8 -41.4 12.0 -41.25 12.35 -40.75 12.6 -39.2 13.3 -37.85 14.3 -36.95 15.5 -36.35 17.35 -36.45 17.85 -37.1 17.25 -37.7 16.95 M-39.8 11.1 L-39.15 11.0 -38.85 11.6 Q-38.8 11.9 -38.9 12.1 L-38.95 12.2 -39.2 12.45 -39.25 12.45 -39.6 12.25 -39.7 11.95 -39.75 11.85 -39.8 11.1 M-42.95 13.6 L-42.25 13.45 Q-41.65 13.9 -42.45 14.45 -43.2 15.0 -43.55 14.8 -44.0 14.5 -43.65 14.05 L-42.95 13.6 M-57.25 11.6 L-56.2 11.55 Q-55.35 12.1 -56.35 12.5 L-58.15 12.45 -58.55 12.1 -58.6 11.95 -58.45 11.65 -57.25 11.6 M-54.95 14.45 Q-54.4 14.85 -55.15 15.55 -55.9 16.3 -57.05 16.45 L-57.35 16.2 -57.35 16.05 -57.2 15.7 -55.9 14.9 -55.3 14.5 -54.95 14.45 M-52.2 10.4 L-52.1 10.3 -52.05 10.3 Q-51.95 10.2 -51.75 10.4 -51.4 10.6 -51.4 10.95 -51.4 11.3 -51.85 11.75 -52.7 12.55 -53.15 12.25 -53.55 11.95 -53.25 11.45 L-52.7 10.95 -52.6 10.9 -52.2 10.4 M-52.3 13.85 L-51.0 13.9 -50.2 14.05 Q-49.4 14.65 -50.4 14.85 -51.4 15.05 -52.0 14.6 L-52.4 14.3 -52.35 14.15 -52.3 13.85 M-31.35 12.3 L-31.25 11.95 -31.0 11.75 -30.8 11.65 Q-30.3 12.2 -29.65 12.25 -28.1 12.5 -25.7 10.55 L-24.25 9.3 -23.15 8.65 -20.6 6.95 Q-19.0 6.0 -18.1 5.6 L-17.3 5.3 -17.1 5.25 -17.0 5.35 -18.45 7.0 -19.4 7.4 -21.15 8.35 -22.4 9.15 -23.35 9.95 -24.8 11.15 Q-26.9 12.85 -28.0 13.25 L-30.25 13.2 -30.65 12.95 -31.0 12.7 -31.35 12.3 M-23.75 14.25 L-24.65 13.9 -25.4 13.35 -25.45 13.15 -25.3 12.75 -24.85 12.35 -24.55 12.55 Q-23.45 13.3 -23.45 13.85 L-23.75 14.25 M-26.2 6.9 L-26.1 6.85 Q-26.0 6.85 -25.8 7.0 -25.6 7.1 -25.5 7.95 -25.4 9.0 -25.8 9.55 L-25.9 9.5 -26.2 9.35 Q-26.65 9.05 -26.55 7.2 L-26.2 6.9 M-29.55 8.05 L-29.1 8.65 -28.45 9.45 Q-28.25 10.4 -28.75 10.35 L-29.45 9.95 -30.1 9.4 -30.25 8.15 -29.55 8.05 M-36.45 13.35 L-36.6 13.7 -38.0 13.75 -38.3 13.55 -38.25 13.4 -38.1 13.1 -37.85 12.95 -37.0 12.8 -36.75 12.8 -36.5 13.0 -36.45 13.35 M-29.6 14.3 L-29.5 14.2 Q-29.3 13.9 -28.95 13.95 L-28.45 14.1 -28.7 15.15 -28.7 15.2 -28.75 15.5 -28.75 15.55 -29.0 16.2 -29.0 16.25 -29.25 16.6 -29.35 16.6 -29.55 16.55 -29.7 16.45 -29.95 15.95 -29.95 15.5 -29.9 15.35 -29.85 15.05 -29.7 14.5 -29.6 14.35 -29.6 14.3 M-95.2 -26.25 L-92.35 -23.2 -90.8 -21.55 Q-89.1 -19.65 -89.2 -17.85 L-89.25 -15.45 -89.3 -14.95 Q-89.45 -13.8 -89.95 -12.95 L-90.05 -12.85 -91.25 -12.65 -91.4 -12.4 -91.35 -12.4 -91.65 -12.15 -91.65 -12.45 -91.5 -12.75 Q-90.85 -13.65 -90.45 -14.8 L-90.35 -15.7 -90.3 -16.1 -90.3 -18.3 Q-90.4 -19.4 -91.0 -20.2 L-92.15 -21.45 -93.0 -22.4 -94.7 -24.25 -95.45 -26.4 -95.2 -26.25 M-87.7 -19.4 Q-88.45 -18.05 -89.0 -18.45 L-89.1 -19.15 -88.25 -21.0 Q-88.05 -21.35 -87.8 -21.3 L-87.5 -21.1 Q-87.05 -20.75 -87.7 -19.4 M-86.9 -16.6 Q-86.0 -16.0 -87.05 -15.5 L-88.55 -15.35 -88.7 -15.45 -88.8 -15.65 -88.7 -16.0 -86.9 -16.6 M-92.6 -18.8 L-91.65 -19.05 Q-91.0 -18.65 -91.85 -18.0 -92.45 -17.55 -93.15 -17.65 L-93.55 -17.8 -93.8 -17.95 -93.8 -18.1 -93.65 -18.45 -92.6 -18.8 M-93.85 -14.1 L-94.15 -14.3 -94.15 -14.45 -93.95 -14.85 -92.65 -15.7 -91.3 -16.25 Q-90.75 -15.85 -92.0 -14.85 -93.2 -13.85 -93.85 -14.1 M-110.2 -4.35 L-109.8 -4.65 Q-109.8 -4.6 -109.7 -4.7 L-109.4 -4.55 Q-109.0 -4.3 -109.05 -3.5 -109.2 -2.8 -109.75 -3.2 L-110.15 -3.75 -110.2 -4.35 M-113.95 2.75 L-113.85 2.7 -112.9 3.05 -112.95 3.1 -113.7 3.25 -113.95 2.9 -113.95 2.75 M-107.85 -3.95 L-108.0 -3.65 -108.0 -3.45 -107.6 -3.1 -107.05 -3.0 Q-107.25 -1.9 -109.4 0.2 L-109.65 0.45 -110.0 0.8 -110.2 1.0 -111.15 1.9 -111.6 2.25 -112.95 2.1 -112.3 1.4 -112.15 1.15 -111.7 0.8 -110.3 -0.3 -110.25 -0.3 -109.4 -1.2 -108.85 -1.95 -108.6 -2.5 -108.55 -2.8 -108.25 -3.6 -107.85 -3.95 M-107.2 -1.0 L-105.5 -1.25 Q-104.95 -0.85 -105.7 -0.35 -106.4 0.15 -106.95 -0.2 L-107.25 -0.45 -107.3 -0.65 -107.2 -1.0 M-108.65 0.85 Q-108.25 0.35 -107.8 0.85 -107.1 1.3 -107.45 1.7 L-108.35 1.65 -108.8 1.15 -108.65 0.85" fill="#006600" fill-rule="evenodd" stroke="none"/>
    <path d="M112.75 -13.3 L112.35 -13.25 112.2 -13.25 Q111.7 -13.2 111.1 -12.75 L110.25 -12.1 Q107.55 -10.7 105.8 -10.55 L105.65 -10.55 104.25 -10.75 104.1 -10.8 Q103.25 -11.1 102.75 -11.55 L102.0 -12.65 Q101.7 -13.5 101.85 -14.1 L101.9 -14.15 102.25 -14.55 102.55 -14.95 102.6 -15.3 102.55 -15.4 102.6 -15.4 102.75 -15.45 103.75 -16.05 104.3 -16.3 105.45 -16.35 107.0 -16.0 Q109.0 -15.3 109.7 -14.65 110.45 -14.15 112.35 -13.4 L112.75 -13.3 M101.25 -15.75 L101.4 -15.45 100.9 -14.6 Q100.8 -14.9 101.0 -15.35 L101.25 -15.75 M112.3 -12.0 L113.2 -12.1 112.5 -11.85 112.35 -12.0 112.3 -12.0 M105.55 -14.35 L105.8 -15.25 104.8 -15.2 104.55 -14.75 104.45 -14.6 104.0 -14.15 103.4 -13.45 103.8 -12.85 104.95 -13.25 105.05 -13.3 105.15 -13.4 105.55 -14.35 M106.85 -14.45 L106.85 -13.85 Q106.9 -13.0 107.35 -12.85 L107.65 -12.75 107.75 -12.8 107.9 -12.85 108.0 -13.2 Q108.2 -13.65 107.9 -14.65 L107.6 -14.95 Q107.15 -15.25 106.85 -14.45 M95.95 4.6 L95.9 5.15 95.9 5.5 95.85 5.7 95.5 6.5 95.15 6.95 94.55 7.15 94.4 7.2 Q93.9 7.1 93.3 6.65 L92.45 5.6 92.3 5.3 91.85 4.4 91.55 3.7 91.1 2.65 90.1 1.1 90.5 1.2 Q92.6 1.7 94.1 2.75 L94.35 2.9 94.45 2.95 94.5 3.0 95.05 3.85 95.35 4.35 95.4 4.45 95.75 4.6 95.95 4.6 M93.15 5.45 L93.4 5.45 93.8 4.9 94.1 4.45 94.15 4.25 Q94.15 3.95 93.25 3.9 L92.55 4.75 92.6 5.0 92.8 5.3 92.95 5.4 93.15 5.45 M69.05 -5.5 L70.7 -4.1 72.3 -2.85 74.75 -0.9 Q75.3 -0.35 75.8 0.05 75.3 0.0 74.4 1.15 L74.3 1.45 74.3 1.55 74.6 1.95 74.95 2.05 75.05 2.05 75.2 2.1 75.25 2.1 75.8 1.35 75.85 1.3 76.2 0.4 76.65 0.8 77.0 1.15 77.75 1.95 77.8 2.0 78.45 3.5 78.45 3.55 78.55 3.9 78.75 4.45 78.8 4.8 Q79.15 6.2 79.1 6.85 79.1 7.6 78.5 8.35 78.25 8.75 77.8 8.6 L76.6 8.3 76.4 8.25 76.15 8.2 75.7 8.1 75.75 7.8 75.75 7.75 75.55 7.25 75.5 7.2 Q75.2 6.95 75.0 7.05 L74.95 7.15 74.4 7.6 74.55 7.35 74.8 7.0 75.15 5.8 75.15 5.45 75.0 4.75 74.15 2.95 74.1 2.85 73.05 1.35 71.85 -0.2 71.1 -1.25 70.3 -2.55 69.35 -4.45 69.05 -5.5 M67.9 -4.3 L67.6 -5.9 68.9 -3.2 67.9 -4.3 M67.3 -6.8 L67.15 -7.3 67.4 -7.0 67.3 -6.8 M71.6 22.5 L72.05 23.3 Q72.95 24.7 72.2 25.6 71.35 26.75 69.8 26.75 L69.55 26.7 69.5 26.7 68.15 26.55 68.05 26.5 68.0 26.5 67.95 26.45 67.9 26.45 66.95 26.2 66.8 26.2 65.35 25.7 64.9 25.05 64.85 25.05 63.95 24.9 63.0 24.85 59.7 25.0 58.95 25.1 61.0 23.4 62.0 22.6 63.35 21.4 Q64.2 20.85 65.4 20.85 L67.6 20.95 68.0 21.05 68.15 21.1 68.3 21.1 68.9 21.2 69.75 21.55 70.55 22.0 70.85 22.2 71.05 22.35 71.6 22.5 M78.4 6.2 Q78.3 6.0 77.95 5.9 L77.25 5.65 76.9 5.55 75.9 5.25 75.8 5.2 75.75 5.35 75.65 5.65 Q75.6 6.15 75.95 6.45 L76.15 6.55 77.0 6.75 77.15 6.85 78.15 6.65 78.4 6.35 78.4 6.2 M65.85 23.8 Q66.05 23.1 65.55 22.4 65.0 21.5 64.45 22.15 L64.7 23.15 65.05 24.3 65.35 24.5 65.5 24.5 65.7 24.2 65.85 23.8 M68.8 22.75 L68.15 22.0 67.95 21.9 67.4 21.95 67.7 22.9 67.85 23.15 67.95 23.4 68.25 23.95 68.75 24.8 69.1 24.95 69.25 24.95 69.5 24.75 Q69.75 24.05 68.8 22.75 M-76.3 -13.5 L-76.85 -13.55 Q-77.7 -13.55 -78.15 -13.85 L-78.55 -14.2 -78.85 -14.8 -78.85 -14.95 -78.45 -16.0 Q-77.8 -16.9 -75.65 -17.85 -73.95 -18.6 -73.2 -19.35 L-73.25 -19.05 Q-73.65 -16.75 -74.7 -15.2 L-75.65 -14.45 -76.2 -14.05 -76.3 -13.8 -76.35 -13.7 -76.3 -13.5 M-75.75 -16.2 L-76.65 -16.8 -76.85 -16.75 -77.15 -16.55 -77.3 -16.2 -77.2 -15.95 -76.65 -15.65 -76.15 -15.3 Q-75.7 -15.3 -75.75 -16.2 M-73.45 -4.8 L-73.0 -4.6 -72.75 -4.2 -72.75 -4.15 -72.95 -4.1 -73.7 -4.8 -73.45 -4.8 M-78.9 5.2 L-79.1 6.2 -79.2 5.4 -79.05 5.3 -78.9 5.2 M-77.85 5.95 L-77.8 5.6 -77.95 4.3 -78.35 3.35 Q-79.35 -0.95 -78.15 -2.7 -77.1 -4.1 -75.75 -4.3 L-74.75 -4.2 -74.4 -4.05 -74.05 -3.6 -73.7 -3.2 -73.5 -3.05 -73.35 -3.05 -73.05 -1.8 Q-72.65 -0.5 -73.85 1.25 -75.1 3.05 -75.8 3.5 L-77.65 5.6 -77.85 5.95 M-77.1 1.25 L-76.85 1.5 -75.4 1.75 Q-74.45 1.4 -75.3 0.75 L-75.9 0.55 Q-76.65 0.4 -76.95 0.8 L-77.1 1.15 -77.1 1.25 M-75.85 -1.1 L-75.05 -0.5 -74.3 -0.05 Q-73.8 0.05 -74.05 -1.0 L-74.9 -1.95 -75.35 -2.75 -76.05 -2.55 Q-76.2 -1.55 -75.85 -1.1 M-53.1 23.55 L-53.35 23.05 -54.6 21.35 -55.45 20.45 -56.1 19.7 Q-57.05 17.95 -59.45 15.2 -61.05 12.8 -59.1 10.0 -58.5 9.2 -57.55 9.2 L-56.65 9.4 -56.7 9.6 -56.65 9.85 -56.05 10.55 -55.85 10.85 Q-53.6 13.9 -53.3 16.8 L-53.3 19.2 -53.4 21.5 -53.1 23.55 M-41.05 16.35 L-43.1 15.95 -43.8 15.6 Q-44.8 14.9 -44.7 14.25 L-44.35 13.5 -43.25 12.7 -42.65 12.5 -42.45 12.75 -42.1 12.95 -41.65 13.25 -41.35 13.45 Q-39.95 14.0 -39.7 14.25 -38.45 15.05 -38.15 15.75 L-37.7 16.95 -40.4 16.4 Q-40.0 16.0 -40.05 15.6 -40.05 15.25 -40.35 15.0 L-40.6 14.9 -40.7 14.95 -41.1 15.3 -41.25 15.9 -41.05 16.35 M-42.95 13.6 L-43.65 14.05 Q-44.0 14.5 -43.55 14.8 -43.2 15.0 -42.45 14.45 -41.65 13.9 -42.25 13.45 L-42.95 13.6 M-54.3 11.25 L-53.85 12.1 Q-53.25 13.25 -52.95 14.3 L-53.45 13.1 -54.3 11.25 M-54.95 14.45 L-55.3 14.5 -55.9 14.9 -57.2 15.7 -57.35 16.05 -57.35 16.2 -57.05 16.45 Q-55.9 16.3 -55.15 15.55 -54.4 14.85 -54.95 14.45 M-57.25 11.6 L-58.45 11.65 -58.6 11.95 -58.55 12.1 -58.15 12.45 -56.35 12.5 Q-55.35 12.1 -56.2 11.55 L-57.25 11.6 M-20.6 6.95 L-19.65 5.95 -18.1 5.6 Q-19.0 6.0 -20.6 6.95 M-31.0 12.7 L-30.65 12.95 -30.25 13.2 -28.0 13.25 Q-26.9 12.85 -24.8 11.15 L-23.35 9.95 -22.4 9.15 -21.15 8.35 -19.4 7.4 -18.45 7.0 -19.65 8.6 -20.8 10.25 -22.6 12.7 -23.45 13.85 Q-23.45 13.3 -24.55 12.55 L-24.85 12.35 -25.3 12.75 -25.45 13.15 -25.4 13.35 -24.65 13.9 -23.75 14.25 -25.25 15.9 -26.7 16.6 -27.55 16.85 -27.9 16.95 -29.8 17.35 Q-30.6 17.35 -31.35 16.85 -31.7 16.6 -31.65 16.15 -31.35 15.2 -31.4 15.05 L-31.35 14.8 -31.35 14.6 -31.25 14.1 -31.0 14.1 -30.9 14.15 -30.45 14.0 -30.4 13.9 -30.3 13.45 -30.4 13.4 -31.0 12.7 M-17.0 5.35 L-17.1 5.25 -16.7 5.05 -17.0 5.35 M-29.6 14.3 L-29.6 14.35 -29.7 14.5 -29.85 15.05 -29.9 15.35 -29.95 15.5 -29.95 15.95 -29.7 16.45 -29.55 16.55 -29.35 16.6 -29.25 16.6 -29.0 16.25 -29.0 16.2 -28.75 15.55 -28.75 15.5 -28.7 15.2 -28.7 15.15 -28.45 14.1 -28.95 13.95 Q-29.3 13.9 -29.5 14.2 L-29.6 14.3 M-91.65 -12.15 L-92.25 -11.7 Q-93.65 -10.75 -94.65 -11.35 -95.85 -12.25 -95.8 -13.95 L-95.6 -15.5 -95.6 -15.55 -95.6 -15.6 -95.0 -18.0 -94.45 -18.5 -94.45 -18.55 -94.3 -19.45 -94.35 -20.4 Q-94.3 -21.65 -94.6 -23.6 L-94.7 -24.25 -93.0 -22.4 -92.15 -21.45 -91.0 -20.2 Q-90.4 -19.4 -90.3 -18.3 L-90.3 -16.1 -90.35 -15.7 -90.45 -14.8 Q-90.85 -13.65 -91.5 -12.75 L-91.65 -12.45 -91.65 -12.15 M-92.6 -18.8 L-93.65 -18.45 -93.8 -18.1 -93.8 -17.95 -93.55 -17.8 -93.15 -17.65 Q-92.45 -17.55 -91.85 -18.0 -91.0 -18.65 -91.65 -19.05 L-92.6 -18.8 M-93.85 -14.1 Q-93.2 -13.85 -92.0 -14.85 -90.75 -15.85 -91.3 -16.25 L-92.65 -15.7 -93.95 -14.85 -94.15 -14.45 -94.15 -14.3 -93.85 -14.1 M-110.2 -4.35 L-110.15 -3.75 -109.75 -3.2 Q-109.2 -2.8 -109.05 -3.5 -109.0 -4.3 -109.4 -4.55 L-109.7 -4.7 Q-109.8 -4.6 -109.8 -4.65 L-110.2 -4.35 M-111.55 -1.3 L-111.1 -1.8 -111.1 -1.95 -111.35 -2.5 -111.4 -2.6 Q-111.2 -4.45 -110.65 -5.25 -109.95 -6.2 -109.3 -6.2 -109.05 -6.15 -108.55 -5.8 -108.05 -5.5 -107.8 -4.65 L-107.6 -4.15 -107.85 -3.95 -108.25 -3.6 -108.55 -2.8 -108.6 -2.5 -108.85 -1.95 -109.4 -1.2 -110.25 -0.3 -110.3 -0.3 -111.7 0.8 -112.15 1.15 Q-111.75 0.25 -111.55 -1.3" fill="#007d00" fill-rule="evenodd" stroke="none"/>
    <path d="M104.35 -9.55 L104.8 -9.5 105.8 -9.5 105.9 -9.55 106.15 -8.75 106.35 -7.3 106.15 -6.9 105.95 -6.8 105.9 -8.4 105.8 -9.5 105.9 -8.4 105.95 -6.8 105.8 -6.75 105.9 -6.6 105.95 -6.45 105.95 -5.85 105.9 -5.75 105.9 -5.55 105.85 -5.2 105.55 -4.5 105.45 -4.15 105.35 -4.1 105.35 -4.0 105.25 -4.0 105.25 -3.95 105.2 -3.9 105.15 -3.9 105.1 -3.85 105.05 -3.85 105.0 -3.85 104.75 -3.85 104.6 -3.9 104.7 -4.0 104.7 -4.15 104.75 -4.15 104.8 -4.2 104.9 -4.2 104.95 -4.3 105.0 -4.35 105.0 -4.4 105.05 -4.45 105.0 -4.5 105.05 -4.55 104.85 -6.25 104.9 -6.5 104.95 -6.55 105.0 -6.6 105.0 -6.65 105.05 -6.75 105.05 -6.85 105.05 -6.9 105.0 -7.0 104.9 -7.2 105.0 -7.2 104.95 -7.3 105.0 -7.45 104.45 -8.8 104.35 -9.55 M72.0 11.85 L72.35 12.55 72.25 12.9 71.85 15.2 71.75 16.5 71.65 18.15 71.4 17.65 71.35 17.45 71.3 16.75 71.2 16.5 70.2 15.9 69.6 15.7 69.75 14.55 69.5 14.55 69.15 14.35 Q68.9 14.05 68.95 13.35 L69.5 11.1 69.95 9.75 Q70.95 10.35 72.0 10.3 L71.95 10.4 Q71.85 11.25 72.0 11.85 71.85 12.8 71.85 13.85 L71.85 15.2 71.85 13.85 Q71.85 12.8 72.0 11.85 M77.75 0.45 L79.75 0.2 83.2 0.4 85.6 1.0 Q86.8 1.25 87.8 1.65 L88.55 1.95 88.3 1.95 88.2 1.9 87.85 1.85 87.8 1.85 87.15 1.65 84.6 1.4 Q84.4 1.1 83.7 0.9 81.55 0.3 78.6 1.6 L78.55 1.5 78.0 0.8 Q82.0 -0.4 86.85 1.5 L87.85 1.85 86.85 1.5 Q82.0 -0.4 78.0 0.8 L77.75 0.45 M105.25 -4.0 L105.9 -6.6 105.25 -4.0 105.25 -3.95 105.25 -4.0 M102.25 -4.4 L102.25 -4.2 102.1 -4.2 102.25 -4.4 M101.9 -3.9 L101.9 -3.75 102.0 -3.6 102.05 -3.6 101.8 -3.35 101.4 -2.95 101.45 -2.95 101.55 -2.85 101.6 -2.85 101.7 -2.7 101.7 -2.55 101.8 -2.5 101.75 -2.45 101.7 -2.35 101.7 -2.3 101.65 -2.25 101.55 -2.15 101.45 -2.05 101.45 -1.9 101.4 -1.9 101.25 -1.7 101.0 -1.45 100.9 -1.2 100.8 -1.15 100.8 -1.1 100.75 -1.0 100.7 -0.85 100.2 -0.3 99.55 0.45 99.35 0.65 99.35 0.7 99.25 0.75 99.15 0.8 99.05 0.9 99.05 0.95 98.65 0.1 98.7 0.05 98.85 0.0 99.25 -0.45 99.75 -1.1 99.9 -1.3 100.0 -1.35 100.0 -1.45 100.0 -1.55 100.05 -1.6 100.2 -1.8 100.45 -2.05 100.6 -2.25 100.7 -2.35 100.65 -2.35 100.7 -2.45 100.75 -2.55 100.9 -2.75 101.15 -2.9 101.2 -2.95 101.25 -2.95 101.3 -2.9 101.35 -3.05 101.9 -3.9 M69.15 14.35 L69.4 11.9 69.5 11.1 69.4 11.9 69.15 14.35 M-79.9 -15.45 L-79.9 -15.2 -79.95 -14.95 -81.25 -15.05 -82.4 -15.1 -81.95 -15.35 -80.75 -15.55 -79.9 -15.45 M-77.4 -12.5 L-77.3 -12.5 -76.9 -12.3 -76.4 -11.95 -77.4 -12.5 M-73.15 -10.65 L-73.0 -10.65 -72.7 -10.7 -72.1 -9.1 -72.05 -8.95 -72.0 -8.85 -72.55 -9.6 -73.15 -10.65 M-70.95 -5.45 L-70.6 -4.15 -70.75 -4.15 -70.9 -4.1 -72.65 -4.2 -72.75 -4.2 -73.0 -4.6 -73.45 -4.8 Q-74.6 -8.35 -77.15 -10.4 -74.6 -8.35 -73.45 -4.8 L-73.7 -4.8 -73.75 -4.85 -73.85 -5.0 -75.4 -8.05 -77.15 -10.3 -77.55 -10.55 -77.1 -10.35 -77.15 -10.4 -78.1 -11.3 Q-78.8 -11.8 -80.3 -12.3 L-80.15 -12.15 -82.05 -12.6 -80.15 -12.15 -80.0 -12.0 -77.95 -10.85 -79.5 -11.4 -82.25 -12.0 Q-84.4 -12.2 -87.05 -11.25 -89.2 -10.5 -89.55 -10.75 L-89.6 -10.75 -89.8 -11.0 -90.4 -10.75 -90.8 -10.6 Q-90.95 -10.4 -91.2 -10.3 L-91.4 -10.0 -93.95 -9.2 -91.4 -10.0 Q-92.05 -9.3 -92.95 -9.45 L-93.95 -9.2 -95.9 -8.95 -95.95 -8.95 -97.6 -8.85 -97.75 -8.8 -99.8 -8.5 -100.2 -8.45 -101.45 -8.05 -101.7 -8.05 -101.7 -8.0 Q-101.9 -7.8 -102.2 -7.55 L-102.7 -7.4 Q-104.25 -6.85 -105.6 -5.8 -104.25 -6.85 -102.7 -7.4 L-102.2 -7.55 -103.85 -6.65 Q-104.65 -6.25 -105.6 -5.8 L-105.8 -5.75 Q-106.2 -5.7 -106.6 -5.3 L-106.75 -5.05 Q-107.05 -6.05 -107.95 -6.65 L-108.3 -6.85 -107.45 -7.6 -108.3 -6.85 -108.4 -6.85 -107.55 -7.75 -107.45 -7.6 -107.4 -7.5 -105.65 -8.75 -103.6 -10.0 -102.55 -10.4 -103.6 -10.0 -103.4 -10.15 -102.55 -10.4 -101.6 -10.45 -100.95 -10.35 -99.85 -10.55 Q-101.85 -10.2 -102.5 -9.7 L-104.15 -9.15 Q-106.2 -8.3 -106.5 -7.8 L-106.65 -7.45 -105.3 -8.0 -104.85 -8.2 -104.65 -8.4 -96.85 -10.05 Q-95.8 -10.75 -96.2 -11.25 L-96.05 -11.25 -95.2 -10.55 Q-94.2 -9.9 -93.0 -10.2 L-91.75 -10.7 -90.55 -11.65 Q-89.9 -11.45 -89.0 -11.65 -88.1 -11.9 -86.95 -12.55 L-86.75 -12.7 -86.05 -12.75 -85.85 -12.85 Q-85.5 -13.2 -85.25 -13.8 L-85.15 -14.25 -84.65 -14.4 -84.7 -14.3 -84.6 -14.05 -84.45 -13.9 -83.85 -13.8 -84.55 -13.7 -83.8 -13.7 -82.7 -13.5 -82.6 -13.65 -81.25 -13.75 -79.75 -13.15 -78.5 -12.7 -77.5 -12.15 -77.4 -12.1 -77.3 -12.1 -76.95 -12.25 -75.3 -11.0 -74.35 -9.8 -73.0 -8.2 Q-72.25 -7.15 -72.2 -6.45 L-71.45 -6.5 Q-71.35 -6.6 -71.4 -6.65 L-71.1 -5.85 -70.95 -5.45 -70.75 -4.15 -70.95 -5.45 M-67.7 4.35 L-67.65 4.45 -67.75 4.4 -67.7 4.35 M-57.95 7.7 L-57.8 7.15 -57.7 7.0 -56.65 7.2 -56.3 7.65 -56.45 7.8 -57.95 7.7 -56.45 7.8 -56.5 7.85 -56.7 8.3 -56.75 8.3 Q-57.0 8.2 -57.4 8.05 L-57.85 8.05 -57.95 7.95 -57.95 7.7 M-49.9 7.7 L-49.7 7.5 -47.55 7.75 -47.2 7.8 -44.2 8.05 -42.95 7.8 Q-41.55 8.4 -40.2 8.3 L-37.9 8.75 -37.6 9.15 -36.15 9.6 -35.85 9.8 -38.15 9.1 -38.35 9.05 -38.15 9.1 -35.85 9.8 -34.1 11.0 -33.45 11.3 -33.4 11.45 -35.2 10.75 -35.3 10.75 -35.3 10.7 Q-36.35 10.15 -36.95 10.0 L-38.05 9.2 -38.35 9.05 -39.1 8.8 -40.55 8.6 -40.9 8.65 -43.2 8.7 -43.9 8.55 -46.5 8.25 -47.8 7.9 -48.75 7.7 -47.55 7.75 -48.75 7.7 -49.2 7.7 Q-49.65 7.75 -49.8 8.0 L-49.9 8.4 -49.85 8.65 -49.65 8.75 -49.55 8.75 -48.1 8.65 -46.4 8.95 -44.15 9.55 -44.0 9.2 -41.55 9.45 -41.8 9.8 -42.5 10.85 -42.65 11.25 -44.0 11.0 -42.65 11.25 -42.7 11.4 -44.0 11.0 -44.75 10.75 -45.0 10.55 -45.05 10.45 -46.7 10.2 -49.35 10.15 Q-49.9 8.75 -50.6 8.3 L-51.05 8.15 Q-50.45 8.0 -49.9 7.7 L-49.2 7.7 -49.9 7.7 M-27.5 17.9 L-27.45 18.0 -26.6 20.45 Q-27.05 19.2 -27.85 17.95 L-27.5 17.9 M-26.25 21.45 L-25.35 24.65 Q-25.05 26.05 -25.35 26.45 L-25.3 26.65 -25.3 26.8 -25.5 26.65 -26.25 26.1 Q-27.15 25.6 -27.7 26.75 L-28.1 24.9 -28.25 24.25 -28.4 23.45 -28.55 22.7 -28.7 22.4 -30.55 19.15 -31.1 18.15 -30.6 18.3 -29.7 18.35 -29.4 18.3 -28.3 20.3 -27.85 21.2 -27.6 21.35 -27.5 21.35 -26.9 22.7 Q-25.8 23.45 -26.15 21.8 L-26.25 21.45 M-78.85 -14.8 L-78.85 -14.95 -78.85 -14.8 M-82.05 -12.6 L-82.1 -12.6 Q-84.8 -12.9 -87.85 -11.5 L-89.55 -10.75 -87.85 -11.5 Q-84.8 -12.9 -82.1 -12.6 L-82.05 -12.6 -81.4 -12.55 -81.9 -12.75 -82.05 -12.6 M-71.5 -6.95 L-71.75 -7.3 -71.6 -7.45 -71.5 -6.95 M-73.7 -9.35 L-73.95 -9.45 -74.35 -9.8 -74.25 -9.85 -74.35 -10.05 -73.9 -9.55 -73.7 -9.35 M-71.15 6.25 L-70.8 6.15 -69.45 5.5 -68.55 6.25 -67.85 6.7 -65.95 7.6 -63.25 8.45 -61.1 8.95 -59.9 8.85 -59.65 8.85 Q-59.55 8.6 -60.0 8.25 L-61.5 8.2 -61.1 7.85 -61.0 7.55 -59.25 8.1 -58.7 8.2 Q-59.4 8.5 -59.95 9.3 L-60.6 10.4 -60.85 10.95 -61.4 10.85 -63.5 10.55 Q-64.7 10.45 -67.15 9.05 L-70.3 7.0 -71.05 6.45 -71.15 6.25 M-68.35 3.6 L-68.5 3.75 -68.5 3.7 -68.4 3.6 -68.35 3.6 M-73.0 -10.65 L-72.05 -8.95 -73.0 -10.65 M-64.35 6.5 L-64.05 6.6 -62.55 7.1 -64.3 6.55 -64.35 6.5 M-65.85 6.95 L-66.4 6.8 -66.7 6.5 -66.9 6.35 -66.55 6.4 -66.3 6.6 -65.85 6.95 M-70.8 6.15 Q-70.0 7.35 -68.9 7.9 -64.95 9.85 -60.6 10.4 -64.95 9.85 -68.9 7.9 -70.0 7.35 -70.8 6.15 M-51.55 8.9 L-51.25 9.1 -50.6 9.8 -50.8 9.65 -51.55 8.9 M-44.2 8.05 L-40.55 8.6 -44.2 8.05 M-32.75 15.85 L-32.9 15.75 -33.6 15.0 -33.9 14.85 -34.2 14.65 -34.4 14.5 -35.1 13.95 -35.25 13.85 -35.25 13.7 Q-33.9 14.5 -32.75 15.65 -33.9 14.5 -35.25 13.7 -35.3 13.05 -35.45 12.75 L-35.75 11.95 -34.25 12.9 Q-34.1 12.95 -34.05 13.05 L-33.3 13.25 -33.25 13.25 -33.5 13.4 -32.5 14.2 -32.6 14.55 -32.75 15.65 -32.75 15.85 M-30.6 18.3 Q-29.45 20.1 -28.7 22.4 -29.45 20.1 -30.6 18.3 M-26.15 21.8 L-25.35 24.65 -26.15 21.8 M-79.9 -15.2 L-81.95 -15.35 -79.9 -15.2 M-97.5 -11.1 L-97.8 -10.95 -97.95 -10.85 -99.7 -10.6 -98.1 -11.05 -97.5 -11.1 M-110.55 3.3 L-110.4 3.3 -110.3 3.3 -110.25 4.15 -110.2 5.2 -110.45 4.3 -110.5 4.05 -110.55 3.3 M-111.55 -1.3 L-111.5 -1.95 -111.45 -2.25 -111.35 -2.5 -111.45 -2.25 -111.4 -2.6 -111.35 -2.5 -111.1 -1.95 -111.1 -1.8 -111.55 -1.3 M-103.95 -7.5 L-103.4 -7.65 -103.65 -7.6 -103.95 -7.5 M-110.5 4.05 L-110.4 3.3 -110.5 4.05 M-110.5 7.25 L-110.25 7.25 -110.25 7.35 -110.45 7.65 -110.5 7.25 -110.45 7.65 -110.5 7.7 -111.75 9.2 -112.05 9.05 -112.1 9.0 -112.75 7.4 -113.0 6.25 -112.85 5.8 -112.8 5.25 -112.45 6.55 -111.95 7.9 Q-111.0 8.55 -111.2 7.5 L-111.05 6.8 -110.85 7.05 -110.5 7.25 M-111.6 3.5 L-111.6 4.1 -111.5 5.15 -111.6 4.65 -111.6 3.5 M-112.75 5.05 L-112.65 4.3 -112.55 5.0 -112.6 5.05 -112.75 5.05 M-112.1 9.0 L-112.4 7.85 -112.85 5.8 -112.4 7.85 -112.1 9.0" fill="#669900" fill-rule="evenodd" stroke="none"/>
    <path d="M103.0 -10.0 L103.85 -9.65 104.35 -9.55 104.45 -8.8 105.0 -7.45 104.95 -7.3 105.0 -7.2 104.9 -7.2 105.0 -7.0 105.05 -6.9 105.05 -6.85 105.05 -6.75 105.0 -6.65 105.0 -6.6 104.95 -6.55 104.9 -6.5 104.85 -6.25 105.05 -4.55 105.0 -4.5 105.05 -4.45 105.0 -4.4 105.0 -4.35 104.95 -4.3 104.9 -4.2 104.8 -4.2 104.75 -4.15 104.7 -4.15 104.7 -4.0 104.6 -3.9 104.5 -3.55 104.45 -3.4 103.8 -2.2 103.55 -1.9 102.55 -0.55 102.4 -0.4 102.35 -0.35 102.3 -0.3 102.2 -0.25 102.1 -0.2 102.05 -0.2 101.95 -0.25 101.9 -0.25 101.8 -0.35 101.65 -0.15 99.0 1.9 99.1 1.65 99.05 0.95 99.05 0.9 99.15 0.8 99.25 0.75 99.35 0.7 99.35 0.65 99.55 0.45 100.2 -0.3 100.7 -0.85 100.75 -1.0 100.8 -1.1 100.8 -1.15 100.9 -1.2 101.0 -1.45 101.25 -1.7 101.4 -1.9 101.45 -1.9 101.45 -2.05 101.55 -2.15 101.65 -2.25 101.7 -2.3 101.7 -2.35 101.75 -2.45 101.8 -2.5 101.7 -2.55 101.7 -2.7 101.6 -2.85 101.55 -2.85 101.45 -2.95 101.4 -2.95 101.8 -3.35 102.05 -3.6 102.0 -3.6 101.9 -3.75 101.9 -3.9 101.9 -3.95 101.95 -4.0 102.0 -4.1 102.0 -4.15 102.1 -4.2 102.25 -4.2 102.25 -4.4 102.45 -6.55 102.75 -9.65 102.8 -9.75 102.8 -9.85 102.85 -9.9 102.9 -10.0 103.0 -10.0 M105.95 -6.8 L106.15 -6.9 106.35 -7.0 106.3 -5.85 106.25 -5.7 105.9 -5.55 105.9 -5.75 105.95 -5.85 105.95 -6.45 105.9 -6.6 105.8 -6.75 105.95 -6.8 105.9 -6.6 105.95 -6.8 M88.55 1.95 L89.6 2.3 89.65 2.4 90.6 4.25 90.2 4.2 88.95 3.75 86.1 2.95 Q84.7 2.7 82.3 2.9 L80.5 3.1 79.55 3.25 79.25 2.5 78.6 1.6 Q81.55 0.3 83.7 0.9 84.4 1.1 84.6 1.4 L87.15 1.65 87.8 1.85 87.85 1.85 89.65 2.4 87.85 1.85 88.2 1.9 88.3 1.95 88.55 1.95 M-79.35 -13.65 L-78.75 -13.05 -77.4 -12.5 -76.4 -11.95 -76.25 -11.85 -75.0 -10.95 Q-74.5 -10.5 -74.35 -10.05 L-74.25 -9.85 -74.35 -9.8 -73.95 -9.45 -73.7 -9.35 -73.25 -8.85 -72.15 -7.8 -71.75 -7.3 -71.5 -6.95 -71.4 -6.7 -71.4 -6.65 Q-71.35 -6.6 -71.45 -6.5 L-72.2 -6.45 Q-72.25 -7.15 -73.0 -8.2 L-74.35 -9.8 -75.3 -11.0 -76.95 -12.25 -77.3 -12.1 -77.4 -12.1 -77.5 -12.15 -78.5 -12.7 -79.75 -13.15 -81.25 -13.75 -82.6 -13.65 -82.7 -13.5 -83.8 -13.7 -84.55 -13.7 -83.85 -13.8 -83.05 -13.9 -82.95 -14.1 Q-82.25 -15.0 -79.4 -13.65 L-79.35 -13.65 M-96.2 -11.25 Q-95.8 -10.75 -96.85 -10.05 L-104.65 -8.4 -104.85 -8.2 -105.3 -8.0 -106.65 -7.45 -106.5 -7.8 Q-106.2 -8.3 -104.15 -9.15 L-102.5 -9.7 -102.0 -9.8 -101.7 -9.5 -101.0 -9.7 -99.15 -10.15 -97.95 -10.85 -97.8 -10.95 -97.5 -11.1 -96.4 -11.4 -96.2 -11.25 M-101.45 -8.05 L-100.2 -8.45 -99.8 -8.5 -99.9 -8.45 -101.45 -8.05 M-82.05 -12.6 L-81.9 -12.75 -81.4 -12.55 -82.05 -12.6 M-80.15 -12.15 L-80.3 -12.3 Q-78.8 -11.8 -78.1 -11.3 L-77.15 -10.4 -77.1 -10.35 -77.55 -10.55 -77.95 -10.85 -80.0 -12.0 -80.15 -12.15 -77.8 -10.9 -77.15 -10.4 -77.8 -10.9 -80.15 -12.15 M-69.45 5.5 L-69.3 5.4 -68.8 5.15 -68.55 5.3 -68.35 5.45 -67.9 5.8 -66.9 6.35 -66.7 6.5 -66.4 6.8 -65.85 6.95 -65.8 7.0 -65.75 7.0 -63.75 7.75 -61.5 8.2 -60.0 8.25 Q-59.55 8.6 -59.65 8.85 L-59.9 8.85 -61.1 8.95 -63.25 8.45 -65.95 7.6 -67.85 6.7 -68.55 6.25 -69.45 5.5 M-48.75 7.7 L-47.8 7.9 -46.5 8.25 -45.6 8.55 -43.3 8.95 -41.45 9.3 -41.55 9.45 -44.0 9.2 -44.15 9.55 -46.4 8.95 -48.1 8.65 -49.55 8.75 -49.65 8.75 -49.85 8.65 -49.9 8.4 -49.8 8.0 Q-49.65 7.75 -49.2 7.7 L-48.75 7.7 M-35.75 11.95 L-36.1 11.25 -36.45 10.65 -36.2 10.75 -33.4 12.1 Q-32.9 12.4 -33.05 12.95 L-33.3 13.25 -34.05 13.05 Q-34.1 12.95 -34.25 12.9 L-35.75 11.95 M-33.25 13.25 Q-32.9 13.1 -32.25 13.7 L-32.4 13.85 -32.5 14.2 -33.5 13.4 -33.25 13.25 M-29.4 18.3 L-28.5 18.1 -28.45 18.15 -27.45 19.6 Q-27.05 20.45 -27.45 21.3 L-27.5 21.35 -27.6 21.35 -27.85 21.2 -28.3 20.3 -29.4 18.3 M-112.65 3.1 L-111.55 3.2 -111.6 3.5 -111.6 4.65 -111.5 5.15 -111.15 6.25 -111.05 6.8 -111.2 7.5 Q-111.0 8.55 -111.95 7.9 L-112.45 6.55 -112.8 5.25 -112.8 5.1 -112.75 5.05 -112.6 5.05 -112.55 5.0 -112.65 4.3 -112.65 3.1 M-103.95 -7.5 L-103.65 -7.6 -103.4 -7.65 -103.95 -7.5" fill="#7cb900" fill-rule="evenodd" stroke="none"/>
    <path d="M100.95 -19.2 L100.8 -18.75 100.25 -18.15 100.25 -18.05 100.25 -18.15 100.8 -18.75 100.65 -18.35 Q100.6 -17.85 100.9 -17.45 100.95 -16.3 101.25 -15.75 L101.0 -15.35 Q100.8 -14.9 100.9 -14.6 L100.9 -14.55 100.8 -14.65 100.6 -14.85 100.6 -15.0 100.6 -15.1 100.65 -15.2 100.5 -15.5 100.4 -15.8 100.4 -15.9 100.4 -15.95 100.45 -16.1 100.35 -16.05 100.3 -16.05 100.25 -16.0 100.1 -16.0 100.0 -16.1 99.9 -16.15 99.9 -16.25 99.85 -16.45 99.9 -16.25 99.9 -16.15 99.85 -16.2 99.9 -16.25 99.85 -16.3 99.85 -16.45 99.85 -16.5 99.9 -16.65 99.9 -16.75 99.9 -16.85 99.9 -16.9 99.95 -17.1 100.0 -17.3 100.0 -17.4 100.05 -17.5 100.15 -17.7 100.15 -17.75 100.2 -17.8 100.25 -18.05 100.2 -18.2 100.25 -18.35 100.4 -18.6 100.7 -18.95 100.8 -19.1 100.9 -19.2 100.95 -19.2 M102.65 -10.15 L103.0 -10.0 102.9 -10.0 102.85 -9.9 102.8 -9.85 102.8 -9.75 102.75 -9.95 102.65 -10.15 M104.65 -2.85 L104.55 -2.65 104.0 -1.75 104.05 -1.7 103.85 -1.45 101.1 1.95 99.9 3.7 97.8 5.35 97.05 5.45 97.05 5.35 97.0 4.6 96.9 4.3 97.45 3.9 98.35 2.9 98.95 1.95 99.0 1.9 101.65 -0.15 101.8 -0.35 101.9 -0.25 101.95 -0.25 102.05 -0.2 102.1 -0.2 102.2 -0.25 102.3 -0.3 102.35 -0.35 102.4 -0.4 102.55 -0.55 103.55 -1.9 103.8 -2.2 104.45 -3.4 104.5 -3.55 104.6 -3.9 104.75 -3.85 105.0 -3.85 105.05 -3.85 104.65 -2.85 M67.9 27.65 L66.6 27.65 66.2 27.65 66.1 27.4 66.3 27.15 66.7 27.3 67.9 27.65 M101.1 1.95 L98.2 4.65 97.05 5.35 98.2 4.65 101.1 1.95 M104.0 -1.75 L103.85 -1.45 104.0 -1.75 M79.55 3.25 L80.5 3.1 Q80.0 3.25 79.6 3.5 L79.55 3.25 M82.3 2.9 Q84.7 2.7 86.1 2.95 L88.95 3.75 90.2 4.2 90.6 4.25 90.65 4.45 91.0 5.15 89.85 4.75 88.2 4.3 83.6 3.1 82.3 2.9 M68.0 26.5 L67.9 26.45 67.95 26.45 68.0 26.5 M66.6 27.65 L66.7 27.3 66.6 27.65 M-79.95 -14.95 L-79.65 -13.95 -79.35 -13.65 -79.4 -13.65 Q-82.25 -15.0 -82.95 -14.1 L-83.05 -13.9 -83.85 -13.8 -84.45 -13.9 -84.6 -14.05 -84.7 -14.3 -84.65 -14.4 -84.55 -14.6 -82.95 -15.0 -82.4 -15.1 -81.25 -15.05 -79.95 -14.95 M-77.3 -12.5 L-76.25 -12.55 -76.0 -12.6 -75.55 -12.05 -74.5 -11.3 -73.35 -10.65 -73.15 -10.65 -72.55 -9.6 -72.0 -8.85 -71.95 -8.75 -71.9 -8.65 -71.55 -7.8 -71.6 -7.6 -71.6 -7.45 -71.75 -7.3 -72.15 -7.8 -73.25 -8.85 -73.7 -9.35 -73.9 -9.55 -74.35 -10.05 Q-74.5 -10.5 -75.0 -10.95 L-76.25 -11.85 -76.4 -11.95 -76.9 -12.3 -77.3 -12.5 M-67.65 4.45 L-65.35 5.85 -67.0 5.15 -67.95 4.55 -67.0 5.15 -65.35 5.85 -64.35 6.5 -64.3 6.55 -62.55 7.1 -62.45 7.1 -61.3 7.2 -61.0 7.55 -61.1 7.85 -61.5 8.2 -63.75 7.75 -65.75 7.0 -65.8 7.0 -65.85 6.95 -66.3 6.6 -66.55 6.4 -66.9 6.35 -67.9 5.8 -68.35 5.45 -68.55 5.3 -68.8 5.15 -67.95 4.55 -67.75 4.4 -67.65 4.45 M-26.35 21.2 L-26.3 21.4 -26.25 21.45 -26.15 21.8 Q-25.8 23.45 -26.9 22.7 L-27.5 21.35 -27.45 21.3 Q-27.05 20.45 -27.45 19.6 L-28.45 18.15 -28.5 18.1 -27.85 17.95 Q-27.05 19.2 -26.6 20.45 L-26.35 21.2 M-78.55 -14.2 L-78.8 -14.5 -78.85 -14.8 -78.55 -14.2 M-102.5 -9.7 Q-101.85 -10.2 -99.85 -10.55 L-99.75 -10.6 -99.7 -10.6 -97.95 -10.85 -99.15 -10.15 -101.0 -9.7 -101.7 -9.5 -102.0 -9.8 -102.5 -9.7 M-71.55 -7.8 L-71.95 -8.75 -71.55 -7.8 M-68.5 3.75 L-68.6 3.8 -68.5 3.7 -68.5 3.75 M-46.5 8.25 L-43.9 8.55 -43.2 8.7 -40.9 8.65 -41.0 8.7 -41.45 9.3 -43.3 8.95 -45.6 8.55 -46.5 8.25 M-36.95 10.0 Q-36.35 10.15 -35.3 10.7 L-35.3 10.75 -35.2 10.75 -33.4 11.45 -33.15 12.05 -33.1 12.1 -33.1 12.15 -32.75 12.7 -32.1 13.45 -32.25 13.7 Q-32.9 13.1 -33.25 13.25 L-33.3 13.25 -33.05 12.95 Q-32.9 12.4 -33.4 12.1 L-36.2 10.75 -36.45 10.65 -36.5 10.55 -36.95 10.0 M-26.3 21.4 L-26.15 21.8 -26.3 21.4 M-111.55 3.2 L-110.85 3.25 -110.55 3.3 -110.5 4.05 -110.45 4.3 -110.2 5.2 -110.0 6.4 Q-109.95 7.15 -110.25 7.25 L-110.5 7.25 -110.55 7.15 -110.5 4.05 -110.55 7.15 -110.5 7.25 -110.85 7.05 -111.05 6.8 -111.15 6.25 -111.5 5.15 -111.6 4.1 -111.6 3.5 -111.55 3.2" fill="#8bce00" fill-rule="evenodd" stroke="none"/>
    <path d="M105.8 -9.5 L105.9 -8.4 105.95 -6.8 105.9 -6.6 105.25 -4.0 105.25 -3.95 105.2 -3.9 105.0 -3.55 104.65 -2.85 104.55 -2.65 104.0 -1.75 103.85 -1.45 103.1 -0.45 102.35 0.4 102.1 0.75 101.1 1.95 98.2 4.65 97.05 5.35 M91.05 5.25 L88.5 4.45 Q83.55 2.6 79.6 3.6 M72.35 10.25 Q72.1 11.0 72.0 11.85 71.85 12.8 71.85 13.85 L71.85 15.2 71.75 16.5 71.65 18.15 M69.0 15.6 L69.15 14.35 69.4 11.9 69.5 11.1 69.8 9.65 M98.5 -0.1 L99.7 -1.35 100.1 -1.9 100.9 -2.75 Q101.65 -3.65 101.85 -4.4 L102.35 -7.35 Q102.55 -8.85 102.0 -10.65 M100.25 -18.05 L100.25 -18.15 100.8 -18.75 M99.85 -16.45 L99.9 -16.25 99.9 -16.15 Q100.05 -15.5 100.35 -14.8 L100.45 -14.35 100.7 -13.7 M99.85 -16.45 L99.8 -16.85 Q99.85 -17.35 100.25 -18.05 M87.85 1.85 L86.85 1.5 Q82.0 -0.4 78.0 0.8 M89.65 2.4 L87.85 1.85 M66.7 27.3 L66.6 27.65 M-72.05 -8.95 L-72.0 -8.85 -71.95 -8.75 -71.55 -7.8 -70.95 -5.45 -70.75 -4.15 M-65.35 5.85 Q-61.8 7.3 -57.95 7.7 L-56.45 7.8 M-52.2 7.7 L-49.9 7.7 -49.2 7.7 -48.75 7.7 -47.55 7.75 -44.2 8.05 -40.55 8.6 M-35.85 9.8 Q-34.6 10.25 -33.55 10.9 M-27.45 18.0 L-26.85 19.65 -26.35 21.2 -26.3 21.4 -26.15 21.8 -25.35 24.65 -24.8 26.65 -24.55 27.75 M-102.55 -10.4 L-103.6 -10.0 Q-105.7 -9.15 -107.45 -7.6 L-108.3 -6.85 M-105.6 -5.8 Q-104.25 -6.85 -102.7 -7.4 L-102.2 -7.55 Q-98.35 -8.95 -95.95 -8.95 L-95.9 -8.95 -93.95 -9.2 -91.4 -10.0 -89.55 -10.75 -87.85 -11.5 Q-84.8 -12.9 -82.1 -12.6 L-82.05 -12.6 -80.15 -12.15 -77.8 -10.9 -77.15 -10.4 Q-74.6 -8.35 -73.45 -4.8 M-72.05 -8.95 L-73.0 -10.65 M-67.95 4.55 L-67.0 5.15 -65.35 5.85 M-60.6 10.4 Q-64.95 9.85 -68.9 7.9 -70.0 7.35 -70.8 6.15 M-38.35 9.05 L-38.15 9.1 -35.85 9.8 M-44.0 11.0 L-42.65 11.25 M-44.0 11.0 L-49.25 10.45 M-32.75 15.65 Q-33.9 14.5 -35.25 13.7 M-28.7 22.4 Q-29.45 20.1 -30.6 18.3 M-28.7 22.4 L-28.4 23.45 -28.25 24.25 -27.7 26.75 M-81.95 -15.35 L-85.05 -14.75 M-81.95 -15.35 L-79.9 -15.2 M-102.55 -10.4 L-100.45 -10.95 -96.4 -11.65 M-111.35 -2.5 L-111.45 -2.25 M-105.6 -5.8 L-106.7 -4.9 M-110.4 3.3 L-110.5 4.05 -110.55 7.15 -110.5 7.25 -110.45 7.65 M-112.95 3.1 Q-113.1 4.4 -112.85 5.8 L-112.4 7.85 -112.1 9.0 -111.9 9.95" fill="none" stroke="#000000" stroke-linecap="round" stroke-linejoin="round" stroke-width="1.5"/>
  </g>
</svg>
