<?xml version="1.0" encoding="UTF-8" standalone="no"?>
<svg xmlns:ffdec="https://www.free-decompiler.com/flash" xmlns:xlink="http://www.w3.org/1999/xlink" ffdec:objectType="shape" height="31.0px" width="37.2px" xmlns="http://www.w3.org/2000/svg">
  <g transform="matrix(1.0, 0.0, 0.0, 1.0, 21.55, 13.6)">
    <path d="M-2.5 17.25 L-2.5 17.1 -2.4 17.2 -2.5 17.25" fill="#26bf00" fill-rule="evenodd" stroke="none"/>
    <path d="M-12.95 -12.2 L-13.0 -12.4 -12.65 -12.25 -12.95 -12.2" fill="#33ff00" fill-rule="evenodd" stroke="none"/>
    <path d="M-2.95 16.75 L-3.4 16.85 -2.95 16.65 -2.95 16.75" fill="#00ccff" fill-rule="evenodd" stroke="none"/>
    <path d="M-0.45 15.1 Q-1.3 16.1 -1.95 17.4 L-2.5 17.25 -2.4 17.2 -0.45 15.1" fill="#990000" fill-rule="evenodd" stroke="none"/>
    <path d="M-11.75 -12.15 L-11.75 -11.9 -12.1 -12.05 -11.75 -12.15" fill="#dddddd" fill-opacity="0.3019608" fill-rule="evenodd" stroke="none"/>
    <path d="M-15.85 -11.8 L-14.95 -12.7 Q-14.15 -13.3 -13.25 -13.4 L-12.65 -13.6 -0.05 -13.3 2.8 -12.7 2.25 -12.25 2.1 -12.05 2.0 -11.8 2.0 -11.4 2.0 -11.15 2.0 -10.9 2.25 -10.35 Q2.6 -9.35 3.6 -9.1 L4.3 -8.6 4.8 -7.85 5.7 -7.05 6.05 -6.7 Q6.05 -6.55 6.2 -6.55 6.2 -6.4 6.3 -6.4 L6.3 -6.15 6.45 -5.95 6.45 -5.5 6.45 -5.25 6.45 -5.15 6.45 -4.9 4.8 -0.05 2.5 5.0 Q0.1 9.65 -2.7 13.8 L-3.2 12.55 -3.85 11.15 -3.85 11.0 -3.85 10.75 -3.85 10.65 -4.1 10.0 -5.1 8.2 -5.8 6.55 -5.8 6.3 -5.9 5.7 Q-5.9 5.45 -6.15 5.15 L-6.55 4.9 -6.65 4.25 -7.15 2.35 -7.95 0.95 -9.05 -1.1 Q-9.85 -2.35 -11.4 -2.35 L-11.9 -3.25 -12.0 -3.65 -12.0 -3.9 -12.1 -4.0 -12.0 -4.15 -11.9 -4.4 -11.9 -4.5 Q-11.25 -5.25 -10.5 -5.5 L-4.9 -7.45 -4.5 -7.95 -4.4 -8.45 -4.25 -8.6 -0.8 -9.2 Q-0.55 -9.2 -0.3 -9.35 L-0.05 -9.75 0.1 -10.1 0.2 -10.5 0.2 -10.65 0.2 -11.0 0.1 -11.4 -0.05 -11.8 -0.15 -12.05 Q-0.8 -12.5 -1.85 -12.5 L-8.6 -12.7 -11.75 -12.15 -12.1 -12.05 -12.4 -12.05 -11.9 -12.4 -12.65 -12.25 -13.0 -12.4 -13.9 -12.7 -15.85 -11.8" fill="#494949" fill-rule="evenodd" stroke="none"/>
    <path d="M-3.4 16.85 L-4.0 17.0 -7.55 12.45 -7.7 12.15 -7.7 12.05 -7.7 11.8 -8.45 10.25 -9.6 8.5 -9.85 8.2 -9.85 8.1 -9.85 7.85 -10.6 6.95 Q-11.0 6.15 -11.9 5.8 L-12.8 6.3 Q-12.8 5.8 -13.7 5.7 -14.55 5.55 -14.35 4.25 -14.15 2.85 -14.45 2.65 L-14.8 1.85 -15.35 1.2 -15.95 0.3 -16.95 -1.1 -17.1 -1.2 -17.4 -1.3 -17.5 -1.55 -17.6 -1.7 -17.6 -1.45 -17.75 -1.85 -18.0 -2.1 -18.0 -2.35 -18.0 -2.65 -18.1 -2.65 -18.1 -2.75 Q-18.5 -3.5 -18.65 -3.5 L-18.9 -3.5 Q-19.25 -3.5 -19.4 -3.65 L-19.65 -3.9 -20.0 -4.25 -20.25 -4.5 -21.55 -5.25 -20.7 -5.15 -20.7 -5.25 -20.7 -5.5 -20.55 -5.8 -20.45 -6.15 -19.8 -6.8 -19.25 -7.45 -19.25 -7.7 -19.25 -7.95 -19.15 -8.1 -19.15 -8.2 -18.65 -8.75 -17.75 -9.65 -17.6 -9.9 -15.95 -11.65 -15.85 -11.8 -13.9 -12.7 -13.0 -12.4 -12.95 -12.2 Q-14.1 -12.0 -14.7 -11.4 L-15.85 -10.0 -15.95 -9.9 Q-16.85 -9.1 -17.1 -8.1 L-17.2 -6.95 -16.6 -5.8 Q-15.85 -5.05 -14.7 -4.9 -13.55 -5.05 -12.65 -5.8 -11.9 -6.4 -11.75 -7.45 -11.25 -7.55 -11.0 -7.95 L-10.6 -8.6 -10.5 -9.2 -10.5 -10.0 -10.6 -10.65 -10.85 -11.25 -11.75 -11.9 -11.75 -12.15 -8.6 -12.7 -1.85 -12.5 Q-0.8 -12.5 -0.15 -12.05 L-0.05 -11.8 0.1 -11.4 0.2 -11.0 0.2 -10.65 0.2 -10.5 0.1 -10.1 -0.05 -9.75 -0.3 -9.35 Q-0.55 -9.2 -0.8 -9.2 L-4.25 -8.6 -4.4 -8.45 -4.5 -7.95 -4.9 -7.45 -10.5 -5.5 Q-11.25 -5.25 -11.9 -4.5 L-11.9 -4.4 -12.0 -4.15 -12.1 -4.0 -12.0 -3.9 -12.0 -3.65 -11.9 -3.25 -11.4 -2.35 Q-9.85 -2.35 -9.05 -1.1 L-7.95 0.95 -7.15 2.35 -6.65 4.25 -6.55 4.9 -6.15 5.15 Q-5.9 5.45 -5.9 5.7 L-5.8 6.3 -5.8 6.55 -5.1 8.2 -4.1 10.0 -3.85 10.65 -3.85 10.75 -3.85 11.0 -3.85 11.15 -3.2 12.55 -2.7 13.8 -2.95 14.05 -3.1 14.85 -3.2 15.3 -3.2 15.75 -3.2 15.95 -3.1 16.2 -2.95 16.65 -3.4 16.85" fill="#747474" fill-rule="evenodd" stroke="none"/>
    <path d="M-11.75 -11.9 L-10.85 -11.25 -10.6 -10.65 -10.5 -10.0 -10.5 -9.2 -10.6 -8.6 -11.0 -7.95 Q-11.25 -7.55 -11.75 -7.45 -11.9 -6.4 -12.65 -5.8 -13.55 -5.05 -14.7 -4.9 -15.85 -5.05 -16.6 -5.8 L-17.2 -6.95 -17.1 -8.1 Q-16.85 -9.1 -15.95 -9.9 L-15.85 -10.0 -14.7 -11.4 Q-14.1 -12.0 -12.95 -12.2 L-12.65 -12.25 -11.9 -12.4 -12.4 -12.05 -12.1 -12.05 -11.75 -11.9" fill="#959595" fill-rule="evenodd" stroke="none"/>
    <path d="M2.8 -12.7 L2.9 -12.95 3.9 -13.15 4.3 -13.05 4.95 -12.7 5.7 -12.5 5.85 -12.8 6.55 -13.3 Q6.95 -13.6 7.45 -13.6 L9.35 -13.15 15.1 -5.8 15.1 -5.4 15.1 -5.15 15.25 -5.05 15.35 -4.5 15.65 -4.15 15.35 -3.5 10.15 2.65 9.9 2.85 -0.45 15.1 -2.4 17.2 -2.5 17.1 -2.7 17.0 -2.95 16.75 -2.95 16.65 -3.1 16.2 -3.2 15.95 -3.2 15.75 -3.2 15.3 -3.1 14.85 -2.95 14.05 -2.7 13.8 Q0.1 9.65 2.5 5.0 L4.8 -0.05 6.45 -4.9 6.45 -5.15 6.45 -5.25 6.45 -5.5 6.45 -5.95 6.3 -6.15 6.3 -6.4 Q6.2 -6.4 6.2 -6.55 6.05 -6.55 6.05 -6.7 L5.7 -7.05 4.8 -7.85 4.3 -8.6 3.6 -9.1 Q2.6 -9.35 2.25 -10.35 L2.0 -10.9 2.0 -11.15 2.0 -11.4 2.0 -11.8 2.1 -12.05 2.25 -12.25 2.8 -12.7" fill="#363636" fill-rule="evenodd" stroke="none"/>
  </g>
</svg>
