<?xml version="1.0" encoding="UTF-8" standalone="no"?>
<svg xmlns:ffdec="https://www.free-decompiler.com/flash" xmlns:xlink="http://www.w3.org/1999/xlink" ffdec:objectType="shape" height="33.85px" width="39.7px" xmlns="http://www.w3.org/2000/svg">
  <g transform="matrix(1.0, 0.0, 0.0, 1.0, 22.55, 14.85)">
    <path d="M2.35 -12.9 L2.45 -13.2 3.45 -13.4 3.9 -13.3 4.5 -12.9 5.25 -12.75 5.4 -13.0 6.15 -13.55 7.05 -13.8 8.95 -13.4 14.7 -6.0 14.7 -5.6 14.7 -5.35 14.9 -5.25 15.0 -4.7 15.25 -4.35 15.0 -3.7 9.75 2.45 9.5 2.65 -0.85 15.0 -2.95 17.15 -2.95 17.0 -3.15 16.9 -3.4 16.65 -3.4 16.5 -3.55 16.1 -3.65 15.85 -3.65 15.65 -3.65 15.6 -3.65 15.2 -3.55 14.7 -3.4 13.95 -3.15 13.65 Q-0.35 9.5 2.1 4.85 L4.35 -0.25 Q5.4 -2.65 6.05 -5.1 L6.05 -5.35 6.05 -5.45 6.05 -5.75 6.05 -6.15 5.9 -6.35 5.9 -6.65 5.8 -6.8 5.65 -6.9 5.25 -7.25 4.35 -8.05 3.9 -8.8 3.2 -9.3 Q2.2 -9.6 1.85 -10.6 L1.55 -11.1 1.55 -11.4 1.55 -11.65 1.55 -12.0 1.65 -12.3 1.85 -12.5 2.35 -12.9" fill="#26bf00" fill-rule="evenodd" stroke="none"/>
    <path d="M-16.35 -12.0 L-15.45 -12.9 Q-14.65 -13.55 -13.75 -13.65 L-13.15 -13.8 -0.5 -13.55 2.35 -12.9 1.85 -12.5 1.65 -12.3 1.55 -12.0 1.55 -11.65 1.55 -11.4 1.55 -11.1 1.85 -10.6 Q2.2 -9.6 3.2 -9.3 L3.9 -8.8 4.35 -8.05 5.25 -7.25 5.65 -6.9 5.8 -6.8 5.9 -6.65 5.9 -6.35 6.05 -6.15 6.05 -5.75 6.05 -5.45 6.05 -5.35 6.05 -5.1 Q5.4 -2.65 4.35 -0.25 L2.1 4.85 Q-0.35 9.5 -3.15 13.65 L-3.65 12.4 -4.3 11.0 -4.3 10.85 -4.3 10.6 -4.3 10.5 -4.55 9.85 -5.55 8.05 -6.25 6.35 -6.25 6.15 -6.35 5.55 Q-6.35 5.25 -6.65 5.0 L-7.0 4.75 -7.1 4.1 -7.65 2.2 Q-7.9 1.4 -8.45 0.75 L-9.55 -1.3 Q-10.35 -2.55 -11.85 -2.55 L-12.4 -3.45 -12.5 -3.85 -12.5 -4.1 -12.6 -4.2 -12.5 -4.35 -12.4 -4.6 -12.4 -4.7 -10.95 -5.75 -5.35 -7.7 -4.95 -8.15 -4.85 -8.7 -4.75 -8.8 -1.25 -9.45 Q-1.0 -9.45 -0.75 -9.6 L-0.5 -9.95 -0.35 -10.35 -0.25 -10.75 -0.25 -10.85 -0.25 -11.2 -0.35 -11.65 -0.5 -12.0 -0.6 -12.3 -2.3 -12.75 -9.05 -12.9 -12.25 -12.4 -12.6 -12.3 -12.85 -12.3 -12.4 -12.65 -13.15 -12.5 -13.5 -12.65 -14.4 -12.9 Q-15.45 -12.65 -16.35 -12.0" fill="#2cd900" fill-rule="evenodd" stroke="none"/>
    <path d="M-3.85 16.75 L-4.45 16.9 -8.0 12.3 -8.15 12.05 -8.15 11.9 -8.15 11.65 -8.9 10.15 -10.05 8.35 -10.35 8.05 -10.35 7.95 -10.35 7.7 -11.05 6.8 Q-11.5 6.0 -12.4 5.65 L-13.3 6.15 Q-13.3 5.65 -14.2 5.55 -15.05 5.35 -14.8 4.1 -14.65 2.65 -14.95 2.45 L-15.3 1.65 -15.85 1.05 -16.45 0.15 -17.45 -1.3 -17.6 -1.4 -17.9 -1.5 -18.0 -1.75 -18.1 -1.9 -18.1 -1.65 -18.25 -2.05 -18.5 -2.3 -18.5 -2.55 -18.5 -2.8 -18.65 -2.8 -18.65 -2.95 -19.15 -3.7 -19.4 -3.7 Q-19.8 -3.7 -19.9 -3.85 L-20.15 -4.1 -20.55 -4.45 -20.8 -4.7 Q-20.95 -4.85 -22.05 -5.45 L-21.2 -5.35 -21.2 -5.45 -21.2 -5.75 Q-21.05 -5.9 -21.05 -6.0 L-20.95 -6.35 -20.3 -7.0 -19.8 -7.7 -19.8 -7.9 -19.8 -8.15 -19.7 -8.3 -19.7 -8.4 Q-19.25 -8.7 -19.15 -8.95 L-18.25 -9.85 -18.1 -10.1 -16.45 -11.85 -16.35 -12.0 Q-15.45 -12.65 -14.4 -12.9 L-13.5 -12.65 -13.15 -12.5 Q-14.55 -12.3 -15.2 -11.65 L-16.35 -10.2 -16.45 -10.1 Q-17.35 -9.3 -17.6 -8.3 L-17.75 -7.15 -17.1 -6.0 Q-16.35 -5.25 -15.2 -5.1 -14.05 -5.25 -13.15 -6.0 -12.4 -6.65 -12.25 -7.7 -11.75 -7.8 -11.5 -8.15 L-11.05 -8.8 -10.95 -9.45 -10.95 -10.2 -11.05 -10.85 -11.35 -11.5 -12.25 -12.1 -12.25 -12.4 -9.05 -12.9 -2.3 -12.75 -0.6 -12.3 -0.5 -12.0 -0.35 -11.65 -0.25 -11.2 -0.25 -10.85 -0.25 -10.75 -0.35 -10.35 -0.5 -9.95 -0.75 -9.6 Q-1.0 -9.45 -1.25 -9.45 L-4.75 -8.8 -4.85 -8.7 -4.95 -8.15 -5.35 -7.7 -10.95 -5.75 -12.4 -4.7 -12.4 -4.6 -12.5 -4.35 -12.6 -4.2 -12.5 -4.1 -12.5 -3.85 -12.4 -3.45 -11.85 -2.55 Q-10.35 -2.55 -9.55 -1.3 L-8.45 0.75 Q-7.9 1.4 -7.65 2.2 L-7.1 4.1 -7.0 4.75 -6.65 5.0 Q-6.35 5.25 -6.35 5.55 L-6.25 6.15 -6.25 6.35 -5.55 8.05 -4.55 9.85 -4.3 10.5 -4.3 10.6 -4.3 10.85 -4.3 11.0 -3.65 12.4 -3.15 13.65 -3.4 13.95 -3.55 14.7 -3.65 15.2 -3.65 15.6 -3.65 15.65 -3.65 15.85 -3.55 16.1 -3.4 16.5 -3.6 16.65 -3.85 16.75" fill="#33ff00" fill-rule="evenodd" stroke="none"/>
    <path d="M-3.4 16.65 L-3.85 16.75 -3.6 16.65 -3.4 16.5 -3.4 16.65" fill="#00ccff" fill-rule="evenodd" stroke="none"/>
    <path d="M-0.85 15.0 L-1.4 15.65 -2.05 16.65 -2.4 17.25 -2.95 17.15 -0.85 15.0" fill="#990000" fill-rule="evenodd" stroke="none"/>
    <path d="M-12.25 -12.1 L-11.35 -11.5 -11.05 -10.85 -10.95 -10.2 -10.95 -9.45 -11.05 -8.8 -11.5 -8.15 Q-11.75 -7.8 -12.25 -7.7 -12.4 -6.65 -13.15 -6.0 -14.05 -5.25 -15.2 -5.1 -16.35 -5.25 -17.1 -6.0 L-17.75 -7.15 -17.6 -8.3 Q-17.35 -9.3 -16.45 -10.1 L-16.35 -10.2 -15.2 -11.65 Q-14.55 -12.3 -13.15 -12.5 L-12.4 -12.65 -12.85 -12.3 -12.6 -12.3 Q-12.4 -12.3 -12.25 -12.1" fill="#8cff8c" fill-rule="evenodd" stroke="none"/>
    <path d="M-12.25 -12.4 L-12.25 -12.1 Q-12.4 -12.3 -12.6 -12.3 L-12.25 -12.4" fill="#dddddd" fill-opacity="0.3019608" fill-rule="evenodd" stroke="none"/>
    <path d="M8.9 -13.85 L-15.7 -13.85 -21.55 -5.25 -3.2 18.0 16.15 -4.5 8.9 -13.85 Z" fill="none" stroke="#000000" stroke-linecap="round" stroke-linejoin="round" stroke-width="2.0"/>
  </g>
</svg>
