<?xml version="1.0" encoding="UTF-8" standalone="no"?>
<svg xmlns:ffdec="https://www.free-decompiler.com/flash" xmlns:xlink="http://www.w3.org/1999/xlink" ffdec:objectType="shape" height="43.0px" width="45.45px" xmlns="http://www.w3.org/2000/svg">
  <g transform="matrix(1.0, 0.0, 0.0, 1.0, 24.75, 24.0)">
    <path d="M10.85 -18.85 L11.25 -19.0 11.5 -18.95 12.05 -18.7 12.2 -18.5 12.25 -18.3 12.25 -18.1 12.15 -17.95 12.05 -17.75 11.9 -17.55 11.5 -17.2 11.2 -17.0 11.1 -16.8 11.0 -16.65 10.8 -16.25 10.65 -16.05 10.45 -15.85 10.3 -15.5 10.0 -14.95 9.9 -14.75 Q11.75 -15.25 13.5 -16.3 L13.7 -16.45 14.0 -16.5 14.5 -16.5 14.85 -16.35 15.05 -16.2 15.2 -16.0 15.25 -15.8 15.25 -15.6 15.15 -15.45 15.05 -15.25 14.95 -15.1 14.8 -15.05 14.45 -14.95 13.75 -14.15 13.0 -13.6 12.9 -13.45 12.75 -13.25 12.65 -13.05 12.35 -12.9 12.05 -12.7 11.8 -12.3 11.15 -11.55 Q12.25 -11.6 13.55 -10.95 L13.7 -10.75 13.7 -10.55 13.65 -10.2 13.55 -10.0 13.3 -9.8 13.25 -9.65 13.15 -9.45 13.05 -9.25 12.55 -8.7 12.45 -8.5 12.5 -8.45 12.7 -8.25 12.8 -8.05 12.9 -7.85 12.95 -7.7 13.0 -7.5 13.0 -7.1 Q14.05 -6.65 15.7 -6.6 L15.95 -6.45 16.2 -6.3 18.1 -5.85 18.3 -5.7 18.45 -5.5 18.5 -5.3 18.5 -5.1 18.4 -4.95 18.3 -4.75 Q16.7 -3.85 14.75 -3.85 16.95 -3.0 18.95 -1.85 L19.0 -1.85 19.9 -1.6 20.3 -1.25 20.7 -0.7 20.7 -0.5 20.7 -0.3 20.65 -0.1 19.8 0.35 16.85 0.55 16.8 0.55 16.7 0.6 18.55 1.25 19.05 1.55 19.2 1.75 19.25 1.95 19.25 2.15 19.15 2.3 19.05 2.5 18.95 2.65 15.65 3.3 Q16.3 3.4 16.8 3.8 L16.95 4.0 17.0 4.2 17.0 4.4 16.9 4.55 16.8 4.75 16.7 4.9 15.0 5.15 15.0 5.3 15.0 5.5 15.0 5.7 15.0 5.85 14.9 6.05 14.8 6.25 14.6 6.45 14.4 6.65 12.75 7.05 13.05 7.6 13.45 8.55 13.55 8.75 13.6 8.95 13.65 9.15 13.7 9.3 14.3 10.1 14.8 11.2 14.95 11.35 15.15 11.55 15.3 11.75 15.75 12.45 16.25 13.65 16.25 13.8 16.2 14.0 16.05 14.2 15.85 14.35 15.5 14.5 Q14.15 14.1 13.15 13.1 L12.5 12.7 12.65 13.45 12.95 14.4 13.0 14.55 13.0 14.75 13.0 14.95 13.0 15.15 13.0 15.3 13.05 15.5 13.15 15.7 13.25 16.05 13.25 16.25 13.25 16.65 13.25 17.2 13.25 17.35 13.15 17.55 12.95 17.9 12.8 17.95 12.5 18.0 12.05 17.9 10.3 14.95 Q9.8 13.9 9.0 13.15 L8.8 13.0 8.75 13.0 8.75 14.4 8.75 16.25 8.75 16.45 8.75 16.6 8.65 16.8 8.45 17.15 8.3 17.2 8.0 17.25 7.55 17.15 7.15 16.6 6.55 15.65 6.5 15.45 6.5 15.2 6.3 15.3 6.25 15.35 6.25 15.75 6.25 16.15 5.9 17.3 5.25 18.55 5.05 18.75 4.95 18.9 4.8 18.95 4.5 19.0 4.1 18.85 3.9 18.7 3.7 18.5 3.6 18.3 3.5 18.15 3.5 17.95 3.5 17.75 3.5 17.55 3.35 17.2 3.05 16.65 2.95 16.4 2.5 16.45 1.55 16.4 0.95 15.6 0.5 14.75 0.3 15.3 -0.2 16.25 -0.3 16.4 -0.75 16.45 -1.7 16.4 -2.1 15.85 -2.7 14.9 -2.75 14.7 -2.75 14.3 -2.75 13.95 -2.9 13.75 -3.2 13.4 -3.3 13.25 Q-5.15 15.2 -7.65 16.3 L-8.3 16.65 -8.5 16.8 -8.9 17.2 -9.1 17.4 -9.5 17.5 -10.0 17.55 -10.2 17.95 -10.45 18.5 -10.55 18.65 -10.7 18.7 -11.0 18.75 -11.4 18.6 -11.6 18.45 -11.7 18.05 -11.75 17.5 -11.75 17.15 -11.7 16.95 -11.6 16.75 -11.5 16.55 -11.5 16.4 -11.5 16.0 -11.5 15.45 -11.55 15.4 -11.7 15.45 -12.0 15.5 -12.4 15.35 -12.6 15.2 -12.7 14.8 -12.75 14.05 -12.75 13.7 -12.4 12.75 -11.85 11.45 -12.55 12.15 -13.35 12.9 -13.75 13.0 -14.0 12.95 -14.6 12.7 -14.8 11.75 -14.75 10.45 -14.75 10.25 -14.65 10.1 -14.7 10.05 -14.75 9.85 -14.75 9.7 -14.75 9.5 -14.7 9.3 -14.55 9.15 -14.35 8.95 -14.2 8.75 -14.05 8.7 -13.9 8.4 -13.8 8.2 -14.75 8.15 -15.0 8.3 -15.2 8.5 -15.3 8.65 Q-17.0 9.3 -18.35 8.45 L-18.45 8.25 -18.5 8.05 -18.45 7.7 -18.3 7.5 -18.1 7.3 -17.95 7.15 Q-16.1 6.05 -14.15 5.25 L-13.5 5.0 -13.25 4.8 -12.95 4.65 -13.4 4.5 -13.5 4.5 -14.0 4.4 -14.15 4.25 Q-17.55 3.1 -21.3 2.25 L-21.65 2.1 -21.85 1.95 -21.95 1.75 -22.0 1.55 -22.0 1.2 -21.95 1.0 -21.85 0.8 -24.6 0.2 -24.7 0.0 -24.75 -0.2 -24.7 -0.55 -24.55 -0.75 -24.35 -0.95 -24.2 -1.1 -16.25 -1.35 -16.0 -1.5 Q-17.05 -1.6 -17.85 -2.05 L-17.95 -2.25 -18.0 -2.6 -18.0 -3.0 -14.0 -4.25 -14.0 -4.45 -13.95 -5.0 -13.95 -5.2 -13.8 -5.35 -13.75 -5.35 Q-15.5 -5.5 -17.05 -6.2 -18.95 -6.15 -20.6 -6.8 L-20.7 -7.0 -20.7 -7.35 -20.55 -7.75 -20.3 -7.85 -13.05 -7.95 -13.1 -8.1 -13.35 -8.4 -13.6 -8.8 -14.3 -10.55 -15.25 -12.2 -15.25 -12.35 -15.3 -12.55 -15.45 -12.95 -15.5 -13.15 -15.5 -13.5 -15.45 -13.85 -15.25 -14.05 -15.05 -14.15 -14.75 -14.25 -14.4 -14.1 -14.2 -13.95 -14.05 -13.75 -14.0 -13.55 -14.0 -13.35 -13.65 -13.0 -13.15 -12.25 -13.05 -12.2 -13.0 -12.3 -13.0 -12.7 -13.05 -13.25 -13.2 -13.65 -13.2 -14.35 -13.05 -14.75 -12.95 -14.85 -12.8 -14.9 -12.5 -15.0 -12.1 -14.85 -11.5 -14.3 -10.95 -13.75 -10.85 -13.55 -10.75 -13.35 -10.75 -13.2 -10.65 -13.0 -10.3 -12.7 -10.2 -14.25 -10.25 -16.3 -10.25 -16.5 -10.1 -16.65 -9.5 -17.0 -9.1 -16.85 -8.85 -16.7 -8.7 -16.5 -8.6 -16.3 -8.5 -16.1 -8.5 -15.95 -8.5 -15.75 -8.5 -15.55 -7.55 -13.65 -7.15 -12.75 -6.4 -13.1 -6.45 -13.55 -6.4 -15.8 -6.3 -16.0 -6.2 -16.1 -6.05 -16.15 -5.75 -16.25 -5.35 -16.1 -5.1 -15.95 -4.95 -15.55 -4.5 -14.85 -4.3 -14.7 Q-4.2 -15.25 -4.25 -15.85 L-4.25 -16.2 -4.3 -16.25 -4.45 -16.45 -4.5 -16.65 -4.5 -17.0 -4.45 -17.35 -4.25 -17.55 -4.1 -17.6 -4.05 -17.75 -3.95 -17.85 -3.8 -17.9 -3.5 -17.95 -3.5 -18.0 -3.15 -17.85 -2.95 -17.7 -2.75 -16.8 -2.6 -16.7 -2.55 -16.6 -2.45 -17.85 -2.5 -19.55 -2.5 -19.75 -2.35 -19.95 -2.15 -20.1 -1.85 -20.3 -1.8 -20.5 -1.7 -20.85 -1.5 -21.45 -1.5 -22.2 -1.5 -23.3 -1.5 -23.5 -1.35 -23.65 -0.75 -23.95 -0.75 -24.0 -0.4 -23.85 -0.2 -23.7 Q0.15 -22.35 0.05 -20.85 L0.0 -17.85 0.4 -18.25 0.95 -19.25 1.05 -19.35 1.2 -19.4 1.5 -19.5 1.85 -19.35 2.05 -19.2 2.3 -18.05 2.25 -16.75 2.25 -16.55 3.0 -17.15 3.8 -17.85 4.2 -18.1 4.55 -18.35 4.7 -18.4 5.0 -18.5 5.35 -18.35 5.55 -18.2 5.8 -17.05 5.75 -16.1 6.55 -15.95 10.0 -18.2 10.65 -18.7 10.85 -18.85 M10.4 -13.0 L10.1 -13.0 10.2 -12.9 10.25 -12.8 10.4 -13.0 M4.15 -16.05 L4.05 -16.0 4.2 -15.8 4.25 -15.7 4.25 -15.85 4.25 -16.05 4.15 -16.05 M0.35 -14.85 L0.25 -14.95 0.15 -14.85 0.15 -14.8 0.35 -14.85 M8.65 -8.15 L6.5 -9.25 6.3 -9.45 5.85 -9.75 5.2 -10.1 2.75 -12.25 Q1.3 -13.4 -0.5 -13.5 L-0.55 -13.5 -0.75 -13.5 -0.75 -13.45 -1.8 -13.25 -3.0 -12.55 -4.8 -12.15 Q-5.85 -11.95 -6.6 -11.2 -8.4 -10.5 -9.85 -9.4 L-10.7 -8.45 Q-11.75 -8.25 -12.35 -7.3 L-12.75 -6.35 -12.75 -0.2 -12.75 4.9 -11.9 6.3 -11.85 6.35 -11.85 6.4 -11.8 6.55 -10.9 7.7 Q-10.25 8.35 -9.35 8.45 -8.6 9.0 -7.75 9.35 L-6.25 10.0 -5.2 10.95 -3.35 11.7 -2.45 12.15 -1.0 12.5 -0.7 12.5 Q0.25 12.55 1.15 11.9 L3.1 11.3 Q4.45 10.7 5.45 9.55 7.1 9.4 8.45 8.55 9.25 8.05 9.5 7.15 L9.6 7.05 10.2 6.55 10.25 6.55 10.5 6.6 10.5 6.25 10.45 6.15 10.55 5.95 10.65 5.75 10.85 -0.45 10.7 -4.9 10.7 -4.95 10.7 -5.1 10.75 -5.3 10.75 -5.5 10.75 -5.7 10.7 -5.9 10.7 -6.05 10.65 -6.25 10.55 -6.45 10.45 -6.65 10.35 -6.8 10.25 -7.0 8.65 -8.15 M14.3 -2.0 Q14.9 -1.5 15.7 -1.35 L16.7 -1.1 16.75 -1.05 17.25 -1.1 13.85 -2.6 14.3 -2.0 M4.75 15.7 L4.35 15.7 4.4 15.8 4.6 16.1 4.65 16.05 4.75 15.7 M-11.25 -11.0 L-11.25 -10.6 -10.85 -10.8 -11.5 -11.55 -11.4 -11.35 -11.3 -11.2 -11.25 -11.0 M-8.6 -12.3 L-8.75 -12.7 -8.75 -11.9 -8.45 -12.05 -8.6 -12.3 M-14.75 2.2 L-15.75 2.15 -14.75 2.35 -14.75 2.2 M-1.25 13.5 L-1.35 13.45 -1.25 13.8 -1.25 13.7 -1.25 13.5 M-1.2 14.2 L-1.1 14.35 -1.0 14.4 -1.1 14.25 -1.2 14.05 -1.25 13.85 -1.25 14.0 -1.2 14.2 M-9.3 13.65 L-9.55 13.25 -10.0 14.3 -9.3 13.65" fill="#ffffff" fill-rule="evenodd" stroke="none"/>
  </g>
</svg>
