<?xml version="1.0" encoding="UTF-8" standalone="no"?>
<svg xmlns:ffdec="https://www.free-decompiler.com/flash" xmlns:xlink="http://www.w3.org/1999/xlink" ffdec:objectType="shape" height="26.6px" width="23.8px" xmlns="http://www.w3.org/2000/svg">
  <g transform="matrix(1.0, 0.0, 0.0, 1.0, 11.95, 13.55)">
    <path d="M0.75 -13.35 L0.75 -13.3 0.7 -13.3 0.6 -13.5 0.45 -13.55 0.6 -13.55 0.8 -13.45 0.75 -13.35 M-11.1 -7.45 L-10.1 -6.2 -10.45 -6.55 -10.75 -6.45 -10.9 -6.3 -11.1 -7.35 -11.15 -7.5 -11.1 -7.45 M5.5 -1.4 L5.5 -1.35 5.45 -1.5 5.5 -1.4" fill="#cc00ff" fill-rule="evenodd" stroke="none"/>
    <path d="M0.1 12.4 L0.15 12.15 0.2 12.3 0.1 12.4 M-6.35 -1.2 L-6.4 -1.2 -6.6 -1.05 -6.7 -1.05 -6.8 -1.0 -6.9 -0.95 -6.9 -1.05 Q-6.7 -1.1 -6.65 -1.3 L-6.45 -1.35 -6.35 -1.2 M4.1 2.95 L4.25 2.65 3.55 4.3 4.1 2.95" fill="#e375ff" fill-rule="evenodd" stroke="none"/>
    <path d="M5.7 1.9 L5.7 1.8 5.75 1.95 5.7 1.9 M2.75 9.2 L2.3 9.7 2.25 9.7 2.5 9.1 2.75 9.2" fill="#e991ff" fill-rule="evenodd" stroke="none"/>
    <path d="M9.4 6.5 L9.45 6.4 9.5 6.4 9.4 6.55 9.4 6.5 M-9.25 -0.4 L-9.2 -1.1 -9.15 -1.1 -8.95 -0.85 -9.25 -0.4" fill="#aa00d5" fill-rule="evenodd" stroke="none"/>
    <path d="M0.75 -13.3 L0.75 -13.35 0.8 -13.3 0.75 -13.3" fill="#be5eff" fill-rule="evenodd" stroke="none"/>
    <path d="M0.45 -13.55 L0.6 -13.5 0.7 -13.3 0.75 -13.3 0.8 -13.3 1.6 -12.55 2.95 -11.0 3.15 -10.7 4.1 -9.75 Q4.25 -9.35 4.55 -9.05 L5.3 -8.15 5.35 -7.65 5.0 -7.65 5.0 -7.45 Q4.1 -7.55 3.55 -8.25 L3.15 -8.7 2.55 -9.55 2.2 -10.0 Q1.7 -10.25 1.15 -10.95 L0.6 -12.3 0.0 -12.95 -1.15 -11.75 Q-1.7 -10.0 -2.75 -8.3 L-5.15 -4.75 -5.45 -4.35 -6.45 -1.75 -6.45 -1.35 -6.65 -1.3 Q-6.7 -1.1 -6.9 -1.05 L-6.9 -0.95 -6.8 -1.0 -6.7 -1.05 -6.6 -1.05 -6.4 -1.2 -6.35 -1.2 -6.1 -1.35 -4.95 -1.05 1.25 -1.05 3.1 -0.9 4.25 -1.15 5.3 -1.15 5.35 -1.15 5.35 -1.2 5.45 -1.35 5.5 -1.35 5.5 -1.4 5.7 -1.45 5.7 -1.5 5.95 -1.05 6.1 -1.05 6.25 -1.05 6.6 -0.45 6.25 0.5 6.0 0.7 5.7 1.8 5.7 1.9 5.7 1.95 5.2 3.1 5.0 3.5 3.55 6.2 0.15 12.15 0.1 12.4 -0.35 13.05 -0.9 12.6 -0.8 12.4 -0.7 12.0 -1.25 11.55 -1.2 11.2 -2.25 9.55 Q-3.75 6.2 -5.55 3.0 L-6.2 1.6 -6.45 1.1 -6.85 -0.45 -6.9 -0.65 -7.2 -0.65 -7.15 -1.05 -7.2 -1.05 -7.6 -1.15 -7.6 -1.6 Q-8.3 -2.0 -8.9 -2.95 L-10.9 -5.85 -10.9 -5.9 -10.95 -6.15 -10.9 -6.25 -10.9 -6.3 -10.75 -6.45 -10.45 -6.55 -10.1 -6.2 -11.1 -7.45 -10.9 -7.6 -10.45 -7.95 Q-10.4 -7.95 -10.25 -8.05 L-10.15 -7.9 -5.75 -10.5 -3.25 -11.9 -2.25 -12.6 -2.05 -12.8 Q-1.7 -12.7 -1.35 -13.0 L-0.95 -13.3 -0.8 -13.35 0.15 -13.5 0.45 -13.5 0.45 -13.55 M4.1 2.95 L3.55 4.3 4.25 2.65 4.1 2.95" fill="#b15bff" fill-rule="evenodd" stroke="none"/>
    <path d="M0.75 -13.35 L0.8 -13.45 1.75 -13.05 Q5.65 -11.15 9.0 -8.6 L10.85 -7.1 9.05 -5.0 Q7.6 -3.65 6.5 -2.15 L3.95 -7.45 3.55 -8.25 Q4.1 -7.55 5.0 -7.45 L5.0 -7.65 5.35 -7.65 5.3 -8.15 4.55 -9.05 Q4.25 -9.35 4.1 -9.75 L3.15 -10.7 2.95 -11.0 1.6 -12.55 0.8 -13.3 0.75 -13.35 M-10.9 -5.85 L-8.9 -2.95 Q-8.3 -2.0 -7.6 -1.6 L-7.6 -1.15 -7.2 -1.05 -7.15 -1.05 -7.2 -0.65 -6.9 -0.65 -6.85 -0.45 -7.6 0.8 -8.85 3.0 -10.75 6.4 Q-10.95 5.85 -11.4 5.4 L-11.25 4.6 Q-10.85 2.5 -11.5 1.05 L-11.95 0.25 -11.85 -1.4 -11.85 -1.5 -11.5 -1.75 -11.3 -1.95 -11.35 -3.5 -11.2 -4.55 -10.9 -5.85 M7.4 -6.35 L7.35 -6.35 7.35 -6.3 7.4 -6.35 M-9.25 -0.4 L-8.95 -0.85 -9.15 -1.1 -9.2 -1.1 -9.25 -0.4" fill="#9f35ff" fill-rule="evenodd" stroke="none"/>
    <path d="M0.15 12.15 L3.55 6.2 5.0 3.5 3.7 6.55 2.5 9.1 2.25 9.7 2.3 9.7 2.75 9.2 3.5 8.0 3.55 7.95 5.3 6.2 5.75 5.55 6.75 4.55 5.75 1.95 5.7 1.8 6.0 0.7 6.25 0.5 6.6 -0.45 7.05 0.35 7.4 1.0 9.05 2.8 11.3 5.65 11.35 6.3 Q9.25 7.45 7.1 8.75 4.4 10.3 1.55 11.45 0.7 11.75 0.2 12.3 L0.15 12.15 M6.25 -1.05 L6.1 -1.05 5.95 -1.05 5.7 -1.5 5.7 -1.45 5.5 -1.4 5.45 -1.5 5.5 -1.35 5.45 -1.35 5.35 -1.2 5.3 -1.15 4.25 -1.15 3.1 -0.9 1.25 -1.05 -4.95 -1.05 -6.1 -1.35 -6.35 -1.2 -6.45 -1.35 -6.45 -1.75 -5.45 -4.35 -5.15 -4.75 -2.75 -8.3 Q-1.7 -10.0 -1.15 -11.75 L0.0 -12.95 0.6 -12.3 1.15 -10.95 Q1.7 -10.25 2.2 -10.0 L2.55 -9.55 3.15 -8.7 3.55 -8.25 3.95 -7.45 6.5 -2.15 6.6 -1.7 Q6.8 -1.35 6.5 -1.05 L6.25 -1.05 M9.4 6.5 L9.4 6.55 9.5 6.4 9.45 6.4 9.4 6.5 M-2.25 -7.1 L-3.3 -5.2 -3.6 -4.2 -4.6 -2.85 -5.25 -1.45 -4.65 -1.4 -2.3 -1.4 -1.8 -1.4 -1.2 -5.75 Q-0.65 -7.95 -0.55 -10.4 -1.25 -8.7 -2.25 -7.1" fill="#c788ff" fill-rule="evenodd" stroke="none"/>
    <path d="M-6.85 -0.45 L-6.45 1.1 -6.2 1.6 -5.55 3.0 Q-3.75 6.2 -2.25 9.55 L-1.2 11.2 -1.25 11.55 -2.15 11.05 -8.45 7.9 -10.15 6.2 -10.55 6.7 -10.65 6.8 -10.75 6.4 -8.85 3.0 -7.6 0.8 -6.85 -0.45 M6.6 -0.45 L6.25 -1.05 6.5 -1.05 Q6.8 -1.35 6.6 -1.7 L6.5 -2.15 Q7.6 -3.65 9.05 -5.0 L10.85 -7.1 11.25 -6.9 11.55 -6.65 11.85 -6.6 11.85 -6.55 11.85 -6.0 Q11.25 -4.0 11.4 -1.65 11.65 1.65 11.3 4.95 L11.3 5.65 9.05 2.8 7.4 1.0 7.05 0.35 6.6 -0.45 M8.6 -0.45 L8.65 -0.25 8.65 -0.45 8.6 -0.45" fill="#8600ff" fill-rule="evenodd" stroke="none"/>
    <path d="M5.35 -1.2 L5.35 -1.15 5.3 -1.15 5.35 -1.2" fill="#ce84ff" fill-rule="evenodd" stroke="none"/>
    <path d="M5.7 1.95 L5.7 1.9 5.75 1.95 5.7 1.95" fill="#e2b7ff" fill-rule="evenodd" stroke="none"/>
    <path d="M5.0 3.5 L5.2 3.1 5.7 1.95 5.75 1.95 6.75 4.55 5.75 5.55 5.3 6.2 3.55 7.95 3.5 8.0 2.75 9.2 2.5 9.1 3.7 6.55 5.0 3.5 M-2.25 -7.1 Q-1.25 -8.7 -0.55 -10.4 -0.65 -7.95 -1.2 -5.75 L-1.8 -1.4 -2.3 -1.4 -4.65 -1.4 -5.25 -1.45 -4.6 -2.85 -3.6 -4.2 -3.3 -5.2 -2.25 -7.1" fill="#d6a8ff" fill-rule="evenodd" stroke="none"/>
  </g>
</svg>
