<?xml version="1.0" encoding="UTF-8" standalone="no"?>
<svg xmlns:ffdec="https://www.free-decompiler.com/flash" xmlns:xlink="http://www.w3.org/1999/xlink" ffdec:objectType="shape" height="44.5px" width="45.25px" xmlns="http://www.w3.org/2000/svg">
  <g transform="matrix(1.0, 0.0, 0.0, 1.0, 21.25, 21.5)">
    <path d="M10.75 -15.95 L11.2 -15.85 11.4 -15.65 11.55 -15.5 11.7 -15.3 11.75 -15.1 11.75 -14.95 11.7 -14.75 11.6 -14.55 11.5 -14.4 11.3 -14.2 10.6 -13.6 9.55 -12.5 9.45 -12.45 9.9 -12.45 10.2 -12.65 10.4 -12.8 10.75 -13.1 10.9 -13.15 11.25 -13.25 11.5 -13.25 11.95 -13.1 12.15 -12.9 12.3 -12.75 12.45 -12.55 12.5 -12.35 12.5 -12.2 12.25 -11.65 11.2 -10.5 11.0 -10.3 10.95 -10.15 10.75 -9.75 10.3 -9.0 10.2 -8.8 Q11.35 -8.95 12.85 -9.95 L13.75 -10.6 14.25 -10.7 15.2 -10.6 15.4 -10.4 15.55 -10.25 15.7 -10.05 15.75 -9.85 15.75 -9.7 15.7 -9.5 15.6 -9.3 15.5 -9.1 15.35 -8.95 15.1 -8.75 14.8 -8.55 14.65 -8.35 14.55 -8.2 14.45 -8.0 14.15 -7.8 13.9 -7.6 13.5 -7.25 14.75 -7.3 15.75 -7.7 15.95 -7.85 16.15 -8.05 16.4 -8.2 16.75 -8.25 17.25 -8.2 17.7 -8.1 17.9 -7.9 18.05 -7.75 18.2 -7.55 18.25 -7.35 18.25 -7.2 18.2 -7.0 18.1 -6.8 18.0 -6.65 17.8 -6.45 16.75 -5.95 Q16.1 -5.65 16.15 -5.1 L16.2 -4.95 16.2 -4.75 16.2 -4.55 16.15 -4.35 16.05 -4.2 15.95 -4.0 15.75 -3.85 15.1 -3.45 14.75 -3.25 14.55 -3.05 14.45 -2.85 14.3 -2.7 14.2 -2.5 13.9 -2.3 13.75 -2.2 13.9 -2.2 14.25 -2.25 14.5 -2.25 14.95 -2.1 15.15 -1.9 15.3 -1.75 15.45 -1.55 15.5 -1.35 15.5 -1.2 15.5 -1.05 15.75 -1.0 16.2 -0.85 16.4 -0.65 16.55 -0.5 16.7 -0.3 16.75 -0.1 16.75 0.05 16.7 0.25 16.45 0.6 15.8 1.5 15.5 2.15 15.55 2.2 15.95 2.4 16.15 2.6 16.3 2.75 16.45 2.95 16.5 3.15 16.5 3.3 16.45 3.5 16.35 3.7 16.25 3.85 16.05 4.05 15.7 4.25 15.5 4.45 Q15.35 5.05 16.15 5.15 L23.45 5.65 23.65 5.85 23.8 6.0 23.95 6.2 24.0 6.4 24.0 6.55 23.95 6.75 23.85 6.95 23.75 7.1 23.55 7.3 Q20.7 7.75 17.9 7.4 L19.2 8.5 22.7 12.25 22.75 12.45 22.75 12.6 22.7 12.8 22.55 13.0 22.5 13.2 22.5 13.4 22.5 13.55 22.5 13.75 22.45 13.95 22.4 14.15 22.3 14.3 22.15 14.5 Q21.65 14.9 21.0 14.75 20.2 14.6 19.55 14.05 L19.0 13.95 18.95 14.0 19.15 14.2 19.3 14.4 19.5 14.55 19.7 14.75 20.05 14.95 20.25 15.1 20.5 15.3 20.7 15.7 20.9 16.05 21.0 16.65 20.95 16.8 20.8 17.0 20.7 17.2 20.45 17.4 20.0 17.5 19.75 17.5 19.25 17.35 18.95 17.25 18.75 17.35 18.65 17.45 18.25 17.5 17.5 17.3 16.8 17.0 16.55 16.65 16.3 16.25 15.9 15.9 15.45 15.9 15.0 16.0 14.75 16.0 14.25 15.9 14.0 15.65 13.9 15.5 13.8 15.3 13.75 15.1 13.75 14.95 13.75 14.75 12.55 12.85 12.45 12.7 11.75 13.2 11.75 13.4 11.75 14.15 11.7 14.3 11.65 14.5 11.55 14.7 11.5 14.9 11.5 15.05 11.5 15.25 11.5 15.45 11.5 15.8 11.45 16.0 11.4 16.2 11.3 16.4 11.25 16.55 11.25 16.75 11.25 17.15 11.25 17.9 11.25 18.25 11.2 18.45 11.15 18.65 11.05 18.8 10.9 19.0 10.75 19.1 10.6 19.15 10.25 19.25 9.75 19.15 9.5 18.9 9.4 18.75 9.35 18.55 9.2 18.2 9.1 17.65 9.0 17.3 Q8.5 18.2 8.3 19.2 L7.7 20.9 7.15 22.0 7.0 22.1 6.85 22.15 6.5 22.25 6.0 22.15 5.75 21.9 5.65 21.75 5.55 21.55 5.5 21.35 5.5 21.0 5.5 20.65 5.15 19.3 4.85 18.0 4.7 17.25 4.3 17.25 4.25 17.25 3.9 17.8 3.75 18.0 3.75 18.2 3.75 18.35 3.7 18.55 3.55 18.75 3.4 18.9 3.2 19.15 2.75 19.25 2.5 19.25 2.0 19.15 1.75 18.9 1.65 18.75 1.6 18.55 1.5 18.2 1.5 17.45 1.5 17.25 1.45 17.05 1.4 16.9 1.25 16.5 1.2 16.3 1.1 16.5 0.8 17.25 0.4 18.0 0.25 18.1 0.1 18.15 -0.25 18.25 -0.5 18.25 -1.0 18.15 -1.25 17.9 -1.35 17.75 -1.5 17.0 -1.5 15.7 -1.5 14.95 -1.55 14.75 -1.65 14.9 -1.75 15.05 -1.8 15.25 -1.85 15.45 -2.0 15.6 -2.2 15.8 -2.35 16.0 -2.5 16.15 -2.65 16.15 -3.0 16.25 -3.5 16.15 -3.75 15.95 -3.85 15.75 -4.0 15.55 -4.1 15.4 -4.25 15.2 -4.4 15.4 -4.75 16.35 -5.2 17.05 -5.35 17.25 -5.5 17.4 -5.65 17.4 -6.0 17.5 -6.5 17.4 -6.75 17.2 -6.85 17.0 -6.95 16.85 -7.1 16.8 Q-8.05 17.7 -8.5 18.9 L-9.1 20.75 -9.5 21.7 -9.5 21.9 -9.5 22.05 -9.55 22.25 -9.65 22.45 -9.75 22.6 -9.95 22.8 -10.15 22.9 -10.5 23.0 -11.0 22.9 -11.25 22.65 -11.35 22.5 -11.55 20.45 -11.5 18.4 -11.5 16.9 -11.35 16.3 -11.1 15.2 -10.8 14.65 -10.75 14.25 -10.75 14.1 -14.85 16.45 -16.0 17.4 -16.15 17.4 -16.5 17.5 -16.75 17.5 -17.25 17.4 -17.5 17.15 -17.6 17.0 -17.7 16.8 -17.75 16.6 -17.75 16.45 -17.75 16.25 -17.65 16.05 -17.55 15.9 -17.35 15.7 -17.35 15.65 -17.6 15.75 -17.75 15.9 -17.9 15.9 -18.25 16.0 -18.5 16.0 -19.0 15.9 -19.25 15.65 -19.35 15.5 -19.45 15.3 -19.5 15.1 -19.5 14.95 -19.5 14.75 -19.45 14.55 -17.35 12.8 -16.35 11.95 -16.1 11.8 -17.5 11.65 -17.75 11.4 -17.85 11.25 -17.95 11.05 -18.0 10.85 -18.0 10.7 -18.0 10.5 -17.9 10.3 -17.8 10.15 Q-18.25 9.9 -18.95 10.6 L-19.8 11.4 -20.25 11.5 -20.75 11.4 -21.0 11.15 -21.1 11.0 -21.2 10.8 -21.25 10.6 -21.25 10.45 -21.25 10.05 Q-19.9 8.25 -17.6 7.55 L-15.85 6.45 -15.15 6.15 -15.4 5.7 Q-15.65 5.0 -16.05 4.35 L-16.1 4.2 -17.2 3.4 -17.45 3.2 -17.75 3.15 -18.0 2.9 -18.15 2.75 -18.3 2.55 -18.95 2.2 -19.6 1.8 -19.8 1.65 -19.9 1.45 -20.0 1.25 -20.0 1.05 -20.0 0.9 -19.95 0.7 -19.85 0.5 -19.75 0.35 -19.5 0.15 -19.0 0.05 -19.0 0.0 -18.5 0.15 -17.85 0.5 -17.35 0.8 -17.25 0.75 -16.6 0.95 -15.75 1.25 -16.1 0.1 Q-16.3 -0.7 -16.8 -1.4 L-17.05 -1.75 -17.35 -1.95 -18.0 -2.35 -18.1 -2.5 -18.2 -2.7 -18.25 -3.05 -18.2 -3.6 -18.2 -3.8 -18.1 -4.0 -18.0 -4.15 -17.75 -4.35 -17.25 -4.5 -15.05 -2.95 -13.85 -2.1 -12.5 -2.1 -12.5 -2.5 -12.5 -3.25 -12.55 -3.8 -12.7 -4.0 -13.05 -4.4 -13.3 -4.75 -13.8 -5.15 -14.55 -5.85 -14.7 -6.25 -15.1 -7.0 -15.25 -7.55 -15.25 -7.75 -15.15 -7.95 -15.05 -8.1 -14.85 -8.3 -14.6 -8.45 -14.25 -8.5 -13.75 -8.35 -13.1 -8.0 -12.95 -7.8 -12.85 -7.6 -12.8 -7.45 -12.6 -7.25 -12.45 -7.05 -12.3 -6.85 -12.25 -6.7 -12.05 -6.5 -11.8 -6.1 -11.3 -5.6 Q-11.2 -5.85 -11.4 -6.1 L-12.3 -7.2 -12.45 -7.35 -12.5 -7.55 -12.5 -7.95 -12.5 -8.5 -12.5 -8.7 -12.4 -8.85 -12.3 -9.05 -12.2 -9.25 Q-12.4 -9.75 -13.2 -10.05 L-14.35 -10.55 Q-16.2 -10.75 -17.8 -11.7 L-18.25 -11.85 -18.5 -12.1 -18.6 -12.25 -18.7 -12.45 -18.75 -12.65 -18.75 -12.8 -18.75 -13.0 -18.7 -13.2 -18.55 -13.35 -18.35 -13.55 -18.1 -13.7 Q-15.85 -14.45 -14.1 -13.3 L-14.0 -13.25 -13.5 -13.1 -13.1 -12.95 -11.75 -12.75 -11.3 -12.6 -11.05 -12.45 -10.9 -12.35 -10.75 -12.25 -10.6 -12.3 -10.85 -12.7 -11.2 -13.05 -11.25 -13.25 -11.25 -13.6 -11.25 -14.0 -11.2 -14.2 -11.05 -14.35 -10.85 -14.55 -10.6 -14.7 -8.6 -14.5 -8.0 -14.35 -8.0 -14.55 -8.0 -14.95 -7.95 -15.5 -7.95 -15.7 -7.8 -15.85 -7.6 -16.05 -7.35 -16.2 -7.0 -16.2 -7.0 -16.25 -6.55 -16.1 -6.25 -15.95 -6.1 -15.75 -5.85 -15.4 -5.6 -14.8 -5.55 -14.85 -5.5 -15.0 -5.4 -15.2 -5.3 -15.35 -5.1 -15.55 -4.85 -15.7 -4.5 -15.75 -4.05 -15.6 -3.75 -15.45 -3.8 -17.3 -3.7 -17.85 -3.55 -18.05 -3.4 -18.25 -3.25 -18.35 -3.1 -18.4 -2.75 -18.5 -2.3 -18.35 -2.1 -18.15 -1.95 -18.0 -1.8 -17.8 -1.75 -17.6 -1.75 -17.45 -1.5 -17.05 -1.05 -16.3 -1.0 -16.1 -0.9 -15.55 -0.7 -14.65 -0.55 -14.25 Q-0.2 -14.85 -0.25 -15.8 L-0.25 -18.05 -0.25 -18.6 -0.1 -19.0 0.25 -19.55 0.45 -19.95 0.5 -20.15 0.5 -20.3 0.5 -20.5 0.55 -20.7 0.7 -20.85 1.1 -21.25 1.25 -21.35 1.4 -21.4 1.75 -21.45 1.75 -21.5 2.2 -21.35 2.4 -21.15 2.55 -21.0 Q2.85 -20.6 2.8 -20.05 L2.75 -18.55 2.75 -18.3 2.8 -18.45 2.95 -18.6 3.15 -18.8 3.4 -18.95 3.75 -19.0 4.2 -18.85 4.4 -18.65 4.55 -18.5 Q4.9 -16.8 4.8 -14.95 L4.8 -12.85 4.9 -12.95 5.25 -13.0 6.0 -13.1 6.9 -13.65 8.2 -14.45 8.3 -14.6 8.45 -14.8 8.55 -15.0 8.9 -15.2 9.25 -15.35 9.45 -15.55 9.6 -15.75 9.75 -15.85 9.9 -15.9 10.25 -15.95 10.25 -16.0 10.75 -15.95 M0.75 -10.65 L0.55 -10.45 Q0.45 -10.35 0.35 -10.35 L0.0 -10.25 -0.25 -10.25 -0.75 -10.35 -0.8 -10.4 -1.9 -9.95 -2.75 -9.5 -2.75 -9.3 -3.4 -7.85 -3.3 -7.75 -3.2 -7.55 -3.1 -7.35 -3.05 -7.2 -3.0 -7.0 -3.05 -6.8 -3.1 -6.6 -3.2 -6.45 -3.35 -6.25 Q-3.6 -5.95 -4.0 -6.0 L-4.25 -6.0 -5.1 -4.35 -5.0 -4.2 -4.7 -3.8 -4.6 -3.6 -4.55 -3.45 -4.5 -3.25 -4.55 -3.05 -4.6 -2.85 -4.7 -2.7 -4.85 -2.5 -5.0 -2.4 -5.15 -2.35 -5.5 -2.25 -5.75 -2.25 -6.1 -2.3 -6.4 -1.7 -6.3 -1.55 -6.25 -1.35 -6.25 -1.2 -6.3 -1.0 -6.4 -0.8 -6.5 -0.65 -6.7 -0.45 -6.9 -0.35 -7.15 -0.25 Q-8.9 2.85 -11.35 5.5 L-11.45 5.7 -11.5 5.9 -11.5 6.05 -11.55 6.25 -11.8 6.6 -12.15 7.05 -11.8 7.15 -11.6 7.35 -11.45 7.5 -11.3 7.7 -11.25 7.9 -11.2 8.0 -11.0 7.9 -10.5 7.75 -10.05 7.9 -9.85 8.1 -9.7 8.25 -9.55 8.45 -9.5 8.65 -9.5 8.8 -9.5 9.0 -9.55 9.2 -9.6 9.4 -9.7 9.55 -9.75 9.65 -9.55 9.95 -9.5 10.15 -9.5 10.3 -9.25 10.5 -8.95 10.7 -8.75 10.9 -4.85 11.8 Q-4.15 11.6 -3.5 12.05 L-2.55 12.2 -2.35 11.5 -2.25 11.35 -2.0 11.15 -1.5 11.05 -1.5 11.0 -1.0 11.05 -0.55 11.15 -0.35 11.35 -0.2 11.5 -0.05 11.7 0.0 11.9 0.05 12.05 0.15 12.25 0.2 12.4 0.35 12.4 0.65 12.3 1.0 12.25 1.45 12.4 1.8 12.55 2.15 12.75 3.5 12.85 3.75 12.65 4.25 12.55 5.2 12.65 5.4 12.85 5.55 12.95 8.2 13.0 8.25 13.0 8.65 12.8 8.75 12.7 8.75 12.5 8.85 12.3 8.95 12.15 9.15 11.95 9.2 11.75 9.25 11.55 9.3 11.4 9.5 11.0 9.7 10.65 10.0 10.25 10.0 10.05 10.0 9.7 10.05 9.3 10.2 9.15 10.4 8.95 10.55 8.9 11.4 7.5 11.75 6.5 11.85 6.3 11.9 6.2 11.3 5.4 11.25 5.25 11.25 5.05 11.35 4.9 11.45 4.7 11.55 4.5 11.7 4.45 11.5 4.4 11.25 4.15 11.15 4.0 11.05 3.8 11.0 3.6 11.0 3.45 10.8 3.25 10.7 3.05 10.55 2.9 10.5 2.7 10.5 2.5 10.2 2.1 10.0 1.75 9.8 1.4 9.65 1.25 9.25 1.25 9.0 1.25 8.5 1.15 8.25 0.95 8.05 0.6 7.75 0.2 7.5 -0.2 7.25 -0.35 7.0 -0.55 6.9 -0.75 6.8 -0.95 6.65 -1.3 6.55 -1.5 5.5 -2.65 Q5.15 -3.05 4.95 -3.55 4.85 -3.85 4.9 -4.1 L4.0 -5.65 2.95 -7.6 2.55 -8.45 2.5 -8.65 2.5 -8.8 2.5 -9.0 2.4 -9.2 2.3 -9.35 2.15 -9.75 2.0 -10.1 2.0 -10.3 2.0 -10.5 2.0 -10.7 2.0 -10.85 0.85 -10.8 0.75 -10.65 M17.65 11.15 L17.7 11.2 17.75 11.4 17.75 11.55 18.05 11.45 17.7 11.15 17.65 11.15 M-13.0 12.9 L-13.2 13.15 -12.7 12.9 -13.0 12.9" fill="#ffffff" fill-rule="evenodd" stroke="none"/>
  </g>
</svg>
