<?xml version="1.0" encoding="UTF-8" standalone="no"?>
<svg xmlns:ffdec="https://www.free-decompiler.com/flash" xmlns:xlink="http://www.w3.org/1999/xlink" ffdec:objectType="shape" height="23.3px" width="132.95px" xmlns="http://www.w3.org/2000/svg">
  <g transform="matrix(1.0, 0.0, 0.0, 1.0, 114.85, 17.05)">
    <path d="M11.5 -15.6 L14.8 -15.6 15.1 -15.55 15.45 -15.45 15.7 -15.35 16.1 -15.25 16.4 -15.1 16.7 -14.95 16.9 -14.8 17.05 -14.65 17.2 -14.5 17.25 -14.3 17.35 -14.15 17.45 -14.0 17.5 -13.85 17.55 -13.7 17.6 -13.55 17.6 -13.4 17.6 -12.8 17.6 -12.6 17.7 -12.5 17.8 -12.35 17.85 -12.2 18.0 -12.05 18.05 -11.9 18.05 -11.75 18.1 -11.6 18.1 -11.45 18.1 -11.3 18.1 -11.15 18.1 -11.0 18.05 -10.85 18.05 -10.65 18.05 -10.5 18.05 -10.35 18.0 -10.2 18.0 -10.05 18.0 -9.9 18.0 -9.75 17.9 -9.6 17.9 -9.45 17.9 -9.3 17.9 -9.15 17.9 -9.0 17.85 -8.8 17.85 -8.65 17.85 -8.5 17.85 -8.35 17.8 -8.2 17.8 -8.05 17.8 -7.9 17.8 -7.75 17.75 -7.6 17.75 -7.45 17.75 -7.3 17.75 -7.15 17.7 -7.0 17.7 -6.8 17.7 -6.65 17.7 -6.5 17.7 -6.35 17.65 -6.2 17.65 -6.05 17.65 -5.9 17.65 -5.75 17.6 -5.6 17.6 -5.45 17.6 -5.3 17.6 -5.15 17.6 -4.95 17.6 -4.8 17.6 -4.65 17.6 -4.5 17.55 -4.35 17.5 -4.2 17.45 -4.05 17.45 -3.9 17.4 -3.75 17.35 -3.6 17.3 -3.45 17.25 -3.3 17.25 -3.05 17.25 -1.05 17.25 0.8 17.2 0.95 17.2 1.1 17.15 1.25 17.05 1.4 17.0 1.55 16.9 1.7 16.75 1.85 16.65 2.0 16.55 2.15 16.45 2.3 16.3 2.5 16.25 2.65 16.15 2.8 16.0 2.95 15.85 3.1 15.65 3.25 15.35 3.4 15.05 3.55 14.75 3.7 14.55 3.85 14.25 4.0 13.95 4.15 13.8 4.3 13.6 4.5 13.3 4.65 13.0 4.8 12.7 4.95 12.5 5.05 12.05 5.15 11.85 5.25 11.45 5.35 11.25 5.45 11.0 5.5 10.7 5.55 8.2 5.55 7.9 5.5 7.55 5.4 7.3 5.3 6.95 5.2 6.6 5.05 6.3 4.9 6.0 4.75 5.75 4.6 5.65 4.5 5.3 4.4 5.0 4.2 4.8 4.05 4.6 3.9 4.4 3.75 4.15 3.6 4.0 3.45 3.85 3.3 3.75 3.15 3.65 3.0 3.6 2.85 3.55 2.7 3.5 2.55 3.45 2.35 3.35 2.2 3.25 2.05 3.15 1.9 3.1 1.75 2.95 1.6 2.8 1.45 2.75 1.3 2.7 1.15 2.65 1.0 2.6 0.85 2.5 0.7 2.4 0.5 2.35 0.35 2.3 0.2 2.25 0.05 2.2 -0.1 2.15 -0.25 2.1 -0.4 2.1 -0.55 2.05 -0.7 2.05 0.5 2.05 2.85 2.05 3.0 2.0 3.15 2.0 3.3 1.95 3.45 1.85 3.6 1.8 3.75 1.7 3.9 1.55 4.05 1.4 4.2 1.25 4.4 1.1 4.55 0.9 4.7 0.7 4.85 0.45 5.0 0.1 5.1 -0.2 5.15 -0.5 5.1 -0.9 5.0 -1.2 4.85 -1.35 4.7 -1.5 4.55 -1.6 4.4 -1.7 4.2 -1.75 4.05 -1.8 3.9 -3.3 3.9 -3.6 3.85 -4.0 3.75 -4.45 3.6 -4.8 3.45 -5.4 3.15 -5.6 3.0 -6.9 2.35 -7.1 2.25 -7.15 2.3 -7.25 2.5 -7.35 2.65 -7.45 2.8 -7.6 2.95 -7.75 3.1 -7.9 3.25 -8.05 3.4 -8.2 3.55 -8.5 3.7 -8.7 3.8 -8.95 3.85 -9.25 3.95 -9.45 4.1 -9.65 4.2 -9.75 4.25 -10.0 4.3 -10.35 4.4 -11.3 4.4 -11.6 4.3 -11.85 4.25 -11.95 4.25 -12.65 4.1 -12.7 4.1 -13.05 4.25 -13.4 4.45 -13.55 4.6 -14.2 4.9 -14.5 5.0 -14.9 5.05 -15.95 5.2 -16.35 5.25 -18.75 5.4 -18.95 5.45 -19.2 5.5 -19.5 5.55 -25.9 5.55 -26.2 5.5 -26.55 5.4 -26.85 5.25 -27.0 5.1 -27.2 4.95 -27.35 4.8 -27.5 4.65 -27.55 4.55 -28.55 4.55 -29.15 4.45 -30.3 4.2 -31.3 3.8 -32.45 3.7 -33.6 3.45 -33.95 3.35 -34.25 3.2 -35.15 3.1 -35.45 3.05 -35.8 2.95 -36.1 2.8 -36.25 2.65 -36.4 2.5 -36.5 2.3 -36.65 2.15 -36.65 2.1 -36.75 2.2 -36.9 2.35 -36.95 2.55 -37.0 2.7 -37.0 2.85 -37.05 3.0 -37.05 3.15 -37.1 3.3 -37.2 3.45 -37.25 3.6 -37.35 3.75 -37.5 3.9 -37.7 4.05 -37.95 4.2 -38.3 4.3 -38.65 4.4 -38.85 4.35 -39.2 4.35 -39.35 4.5 -39.5 4.65 -39.65 4.8 -39.8 4.95 -40.0 5.1 -40.35 5.25 -40.65 5.4 -41.15 5.55 -41.35 5.65 -41.6 5.7 -41.9 5.75 -47.05 5.75 -47.35 5.7 -47.7 5.6 -48.05 5.45 -48.2 5.3 -48.35 5.15 -48.45 5.0 -48.55 4.85 -48.6 4.7 -48.65 4.55 -48.7 4.4 -48.7 4.2 -48.75 4.15 -48.95 4.0 -49.25 3.7 -49.35 3.55 -49.5 3.4 -49.6 3.25 -49.8 3.1 -49.95 2.95 -50.1 2.8 -50.2 2.65 -50.25 2.5 -50.3 2.3 -50.4 2.15 -50.45 2.0 -50.5 1.85 -50.55 1.7 -50.55 1.55 -50.55 1.4 -50.55 1.25 -50.55 1.1 -50.55 0.95 -50.55 0.8 -50.55 0.65 -50.5 0.45 -50.45 0.3 -50.4 0.15 -50.3 0.0 -50.2 -0.15 -50.05 -0.3 -49.9 -0.45 -49.8 -0.6 -49.6 -0.75 -49.5 -0.9 -49.45 -1.05 -49.35 -1.2 -49.25 -1.4 -49.1 -1.55 -48.95 -1.7 -48.8 -1.85 -48.6 -2.0 -48.5 -2.15 -48.5 -2.3 -48.45 -2.45 -48.4 -2.6 -48.35 -2.75 -48.3 -2.8 -48.3 -3.05 -48.3 -3.4 -48.3 -3.7 -48.3 -4.0 -48.25 -4.15 -48.2 -4.3 -48.15 -4.45 -48.1 -4.6 -48.05 -4.75 -48.0 -4.9 -47.95 -5.1 -47.85 -5.25 -47.85 -5.4 -47.75 -5.55 -47.7 -5.7 -47.65 -5.85 -47.65 -6.0 -47.65 -6.15 -47.65 -6.3 -47.65 -6.45 -47.65 -6.6 -47.65 -6.75 -47.6 -6.9 -47.6 -7.1 -47.55 -7.25 -47.5 -7.4 -47.45 -7.55 -47.45 -7.7 -47.45 -7.85 -47.45 -8.0 -47.45 -8.15 -47.45 -8.3 -47.45 -8.45 -47.45 -8.6 -47.4 -8.75 -47.4 -8.95 -47.35 -9.1 -47.3 -9.25 -47.25 -9.4 -47.2 -9.55 -47.15 -9.7 -47.1 -9.85 -47.1 -10.0 -47.05 -10.15 -47.05 -10.3 -47.05 -10.45 -47.05 -10.6 -47.05 -10.8 -47.0 -10.95 -46.95 -11.1 -46.95 -11.25 -46.9 -11.4 -46.85 -11.55 -46.85 -11.7 -46.8 -11.85 -46.75 -12.0 -46.75 -12.15 -46.7 -12.3 -46.65 -12.45 -46.65 -12.65 -46.65 -12.8 -46.65 -12.95 -46.65 -13.1 -46.65 -13.25 -46.65 -13.4 -46.65 -13.7 -46.65 -14.0 -46.6 -14.15 -46.55 -14.3 -46.5 -14.5 -46.4 -14.65 -46.35 -14.8 -46.2 -14.95 -46.1 -15.1 -46.05 -15.25 -46.05 -15.4 -46.0 -15.55 -46.0 -15.7 -45.9 -15.85 -45.8 -16.0 -45.7 -16.15 -45.55 -16.3 -45.4 -16.5 -45.25 -16.65 -45.05 -16.8 -44.85 -16.9 -44.75 -16.95 -44.5 -17.0 -44.2 -17.0 -44.2 -17.05 -43.75 -17.05 -43.45 -17.0 -43.1 -16.9 -42.8 -16.75 -42.5 -16.6 -42.3 -16.4 -42.1 -16.25 -41.95 -16.1 -41.8 -15.95 -41.65 -15.8 -41.5 -15.65 -41.35 -15.5 -41.25 -15.35 -41.15 -15.2 -41.1 -15.05 -40.95 -14.9 -40.25 -14.8 -39.95 -14.7 -39.6 -14.65 -39.35 -14.45 -39.15 -14.3 -39.0 -14.15 -38.85 -14.0 -38.7 -13.85 -38.6 -13.7 -38.5 -13.55 -38.35 -13.4 -38.25 -13.25 -38.15 -13.1 -38.05 -12.95 -37.95 -12.8 -37.9 -12.65 -37.85 -12.45 -37.8 -12.3 -37.8 -12.15 -37.8 -12.0 -37.75 -11.85 -37.7 -11.7 -37.65 -11.55 -37.6 -11.4 -37.5 -11.25 -37.45 -11.1 -37.4 -10.95 -37.4 -10.8 -37.35 -10.6 -37.3 -10.45 -37.25 -10.3 -37.2 -10.15 -37.05 -10.15 -36.95 -10.3 -36.85 -10.45 -36.75 -10.6 -36.65 -10.8 -36.5 -10.95 -36.4 -11.1 -36.3 -11.25 -36.25 -11.4 -36.15 -11.55 -36.1 -11.7 -36.0 -11.85 -35.9 -12.0 -35.75 -12.15 -35.7 -12.3 -35.65 -12.45 -35.6 -12.65 -35.5 -12.8 -35.4 -12.95 -35.35 -13.1 -35.3 -13.25 -35.25 -13.4 -35.15 -13.55 -35.05 -13.7 -34.9 -13.85 -34.75 -14.0 -34.7 -14.05 -34.6 -14.2 -34.5 -14.35 -34.4 -14.55 -34.25 -14.7 -34.1 -14.85 -33.85 -15.0 -33.6 -15.15 -33.45 -15.3 -33.15 -15.45 -32.8 -15.6 -32.45 -15.75 -32.25 -15.9 -32.05 -16.05 -31.8 -16.2 -31.55 -16.4 -31.4 -16.55 -31.1 -16.7 -30.75 -16.85 -30.55 -16.95 -30.3 -17.0 -30.0 -17.0 -30.0 -17.05 -29.6 -17.05 -29.3 -17.0 -28.9 -16.9 -28.65 -16.75 -28.45 -16.55 -28.3 -16.45 -28.2 -16.25 -28.15 -16.1 -28.05 -15.95 -28.0 -15.8 -27.9 -15.65 -27.85 -15.5 -27.8 -15.35 -27.75 -15.2 -27.75 -15.05 -27.75 -14.9 -27.65 -14.75 -27.65 -14.6 -27.6 -14.4 -27.55 -14.25 -27.55 -13.7 -27.45 -13.8 -27.05 -14.1 -26.85 -14.25 -26.55 -14.4 -26.35 -14.6 -26.2 -14.75 -26.05 -14.9 -25.75 -15.05 -25.45 -15.2 -25.1 -15.35 -24.9 -15.45 -24.8 -15.5 -24.55 -15.55 -24.25 -15.6 -23.85 -15.6 -23.55 -15.55 -23.15 -15.45 -22.8 -15.4 -22.5 -15.45 -22.35 -15.5 -22.1 -15.55 -21.8 -15.6 -17.45 -15.6 -17.15 -15.55 -16.8 -15.45 -16.5 -15.3 -16.2 -15.15 -16.0 -15.0 -15.8 -14.85 -15.65 -14.7 -15.5 -14.55 -15.35 -14.35 -15.2 -14.2 -15.1 -14.05 -15.0 -13.9 -14.9 -13.75 -14.85 -13.6 -14.7 -13.45 -14.6 -13.3 -14.55 -13.15 -14.45 -13.0 -14.4 -12.85 -14.3 -12.7 -14.25 -12.5 -14.25 -12.35 -14.2 -12.2 -14.2 -11.9 -14.2 -11.6 -14.2 -11.45 -14.15 -11.55 -14.05 -11.7 -13.85 -11.85 -13.75 -12.0 -13.7 -12.15 -13.6 -12.3 -13.5 -12.45 -13.35 -12.65 -13.2 -12.75 -13.0 -12.95 -12.8 -13.1 -12.6 -13.2 -12.5 -13.25 -12.25 -13.3 -11.9 -13.35 -11.6 -13.3 -11.25 -13.2 -10.65 -12.75 -10.15 -12.3 -9.25 -11.45 -8.45 -10.75 -8.15 -10.55 -7.9 -10.4 -7.7 -10.25 -7.45 -10.15 -7.4 -10.2 -7.4 -10.35 -7.4 -10.5 -7.4 -10.65 -7.4 -10.85 -7.35 -11.0 -7.35 -11.15 -7.3 -11.3 -7.2 -11.45 -7.15 -11.6 -7.1 -11.75 -7.0 -11.9 -6.9 -12.05 -6.75 -12.2 -6.6 -12.35 -6.3 -12.5 -6.05 -12.7 -5.9 -12.85 -5.75 -13.0 -5.6 -13.15 -5.4 -13.3 -5.1 -13.45 -4.65 -13.6 -4.3 -13.75 -4.2 -13.9 -4.05 -14.05 -3.9 -14.2 -3.65 -14.35 -3.45 -14.5 -3.1 -14.6 -2.85 -14.7 -2.5 -14.8 -2.3 -14.95 -2.1 -15.05 -2.0 -15.1 -1.75 -15.15 -1.45 -15.15 -1.45 -15.2 -1.05 -15.2 -0.7 -15.15 -0.35 -15.05 -0.05 -14.9 0.25 -14.75 0.45 -14.55 0.6 -14.4 0.7 -14.35 1.2 -14.4 1.3 -14.45 1.85 -14.55 3.8 -14.65 3.95 -14.65 4.2 -14.75 4.5 -14.8 8.0 -14.8 8.3 -14.75 8.6 -14.7 8.7 -14.65 8.9 -14.7 9.05 -14.85 9.2 -15.0 9.4 -15.15 9.6 -15.25 9.7 -15.3 9.95 -15.35 10.25 -15.4 10.85 -15.45 10.95 -15.5 11.2 -15.55 11.5 -15.6 M7.2 -11.05 L7.2 -11.2 7.2 -11.35 7.2 -11.4 4.7 -11.45 4.7 -11.0 4.7 -10.2 4.7 -9.45 4.7 -8.8 4.65 -8.65 4.6 -8.5 4.55 -8.35 4.5 -8.2 4.45 -8.05 4.4 -7.9 4.3 -7.6 4.3 -7.15 4.3 -6.65 4.3 -5.9 4.3 -5.15 4.3 -4.65 4.35 -4.5 4.4 -4.35 4.4 -4.2 4.45 -4.05 4.45 -3.9 4.5 -3.75 4.65 -3.6 4.75 -3.45 4.9 -3.3 5.0 -3.1 5.05 -2.95 5.1 -2.8 5.15 -2.65 5.2 -2.5 5.25 -2.35 5.3 -2.2 5.35 -2.05 5.35 -1.9 5.35 -1.75 5.35 -1.6 5.35 -1.45 5.35 -1.25 5.4 -1.1 5.45 -0.95 5.55 -0.8 5.6 -0.65 5.7 -0.5 5.75 -0.35 5.9 -0.2 6.0 -0.05 6.1 0.1 6.15 0.25 6.2 0.4 6.3 0.6 6.4 0.75 6.45 0.9 6.6 1.05 6.8 1.2 6.9 1.35 7.05 1.5 7.35 1.65 7.65 1.8 7.9 1.95 8.05 2.05 8.1 2.1 8.35 2.15 9.5 2.2 9.35 2.05 9.2 1.9 9.05 1.75 8.9 1.6 8.8 1.45 8.7 1.3 8.6 1.15 8.45 1.0 8.4 0.85 8.3 0.7 8.25 0.5 8.1 0.35 7.95 0.2 7.8 0.05 7.65 -0.1 7.5 -0.25 7.35 -0.4 7.25 -0.55 7.15 -0.7 7.1 -0.85 7.05 -1.0 7.0 -1.15 6.95 -1.35 6.9 -1.5 6.8 -1.65 6.7 -1.8 6.5 -1.95 6.4 -2.1 6.3 -2.25 6.2 -2.4 6.1 -2.55 6.0 -2.7 5.85 -2.85 5.75 -3.0 5.7 -3.15 5.65 -3.35 5.6 -3.5 5.55 -3.65 5.55 -3.8 5.55 -3.95 5.55 -4.1 5.6 -4.25 5.6 -4.4 5.65 -4.55 5.75 -4.7 5.85 -4.85 6.0 -5.0 6.15 -5.2 6.3 -5.35 6.35 -5.5 6.35 -5.65 6.35 -5.8 6.35 -5.95 6.4 -6.1 6.4 -6.25 6.45 -6.4 6.5 -6.55 6.55 -6.7 6.55 -6.85 6.55 -7.05 6.6 -7.2 6.7 -7.35 6.75 -7.5 6.8 -7.65 6.8 -7.8 6.8 -7.95 6.8 -8.1 6.85 -8.25 6.9 -8.4 6.95 -8.55 7.0 -8.7 7.0 -8.9 7.0 -9.05 7.0 -9.2 7.0 -9.35 7.0 -9.5 7.05 -9.65 7.05 -9.8 7.1 -9.95 7.15 -10.1 7.2 -10.25 7.2 -10.4 7.2 -10.55 7.2 -10.75 7.2 -10.9 7.2 -11.05 M10.05 -7.2 L10.05 -7.05 10.0 -6.85 10.0 -6.7 9.95 -6.55 9.85 -6.4 9.85 -6.25 9.85 -6.1 9.8 -5.95 9.75 -5.8 9.7 -5.65 9.65 -5.5 9.65 -5.0 9.65 -4.55 9.65 -4.1 9.65 -3.65 9.65 -3.5 9.75 -3.4 9.9 -3.45 10.0 -3.6 10.05 -3.75 10.05 -3.9 10.1 -4.05 10.1 -4.2 10.15 -4.35 10.2 -4.5 10.25 -4.65 10.25 -5.6 10.25 -6.5 10.3 -7.45 10.2 -7.8 10.15 -7.65 10.1 -7.5 10.05 -7.35 10.05 -7.2 M14.35 -12.2 L12.9 -12.2 12.95 -12.05 12.95 -11.9 12.95 -11.75 12.95 -11.6 12.95 -11.45 13.0 -11.3 13.05 -11.15 13.1 -11.0 13.15 -10.85 13.15 -10.65 13.2 -10.5 13.25 -10.35 13.3 -10.2 13.35 -10.05 13.35 -9.9 13.35 -9.75 13.35 -9.6 13.35 -9.45 13.35 -9.3 13.35 -9.15 13.4 -9.0 13.45 -8.8 13.5 -8.65 13.5 -8.5 13.55 -8.35 13.55 -7.15 13.55 -5.9 13.55 -4.65 13.55 -4.05 13.65 -4.05 13.8 -4.2 13.85 -4.35 13.95 -4.5 13.95 -4.8 13.95 -5.3 13.95 -6.05 13.95 -6.65 13.95 -6.8 13.95 -7.3 14.0 -7.45 14.05 -7.6 14.1 -7.75 14.25 -7.9 14.25 -8.05 14.3 -8.2 14.3 -8.35 14.35 -8.5 14.35 -9.45 14.35 -10.35 14.35 -11.45 14.35 -12.2 M13.95 -0.15 L13.7 0.0 13.45 0.15 13.3 0.3 13.15 0.45 12.9 0.65 12.75 0.8 12.65 0.95 12.55 1.1 12.45 1.25 12.45 1.3 12.6 1.2 12.8 1.05 13.0 0.9 13.15 0.75 13.35 0.6 13.6 0.4 13.7 0.25 13.8 0.1 13.9 -0.05 13.95 -0.15 M-107.65 -15.95 L-107.45 -15.95 -107.15 -15.9 -106.8 -15.8 -106.55 -15.65 -106.35 -15.5 -106.15 -15.35 -106.0 -15.2 -105.8 -15.05 -105.65 -14.9 -105.55 -14.75 -105.45 -14.6 -105.35 -14.4 -105.3 -14.25 -105.25 -14.1 -105.15 -13.95 -105.0 -13.8 -104.85 -13.65 -104.75 -13.5 -104.6 -13.35 -104.45 -13.2 -104.35 -13.05 -104.25 -12.9 -104.05 -12.75 -103.95 -12.55 -103.85 -12.4 -103.7 -12.25 -103.6 -12.1 -103.5 -11.95 -103.4 -11.8 -103.3 -11.65 -103.2 -11.5 -103.15 -11.35 -103.05 -11.2 -103.0 -11.05 -102.9 -10.9 -102.85 -10.75 -102.75 -10.55 -102.7 -10.4 -102.6 -10.25 -102.5 -10.1 -102.45 -9.95 -102.35 -9.8 -102.2 -9.65 -102.15 -9.5 -102.05 -9.35 -102.0 -9.2 -101.85 -9.05 -101.8 -9.15 -101.7 -9.3 -101.6 -9.45 -101.55 -9.6 -101.45 -9.75 -101.4 -9.9 -101.3 -10.05 -101.2 -10.2 -101.05 -10.35 -101.0 -10.5 -100.9 -10.65 -100.85 -10.85 -100.8 -11.0 -100.75 -11.15 -100.65 -11.3 -100.55 -11.45 -100.45 -11.6 -100.25 -11.75 -100.15 -11.9 -100.1 -12.05 -100.0 -12.2 -99.95 -12.35 -99.85 -12.5 -99.8 -12.7 -99.7 -12.85 -99.65 -13.0 -99.55 -13.15 -99.5 -13.3 -99.4 -13.45 -99.35 -13.6 -99.25 -13.75 -99.15 -13.9 -99.05 -14.05 -98.95 -14.2 -98.85 -14.35 -98.8 -14.55 -98.6 -14.85 -98.45 -15.0 -98.25 -15.3 -97.95 -15.75 -97.65 -16.2 -97.5 -16.4 -97.35 -16.55 -97.05 -16.7 -96.7 -16.8 -96.35 -16.8 -96.35 -16.85 -96.15 -16.85 -95.85 -16.8 -95.5 -16.7 -95.25 -16.5 -95.05 -16.35 -94.9 -16.2 -94.75 -16.05 -94.7 -15.9 -94.6 -15.75 -94.6 -15.7 -94.25 -15.6 -94.1 -15.5 -93.85 -15.45 -93.6 -15.3 -93.4 -15.15 -93.25 -15.0 -93.15 -14.85 -93.1 -14.7 -93.0 -14.55 -92.95 -14.35 -92.95 -14.2 -92.85 -14.05 -92.85 -13.9 -92.85 -13.75 -92.85 -13.6 -92.85 -13.45 -92.85 -13.3 -92.85 -13.15 -92.85 -13.0 -92.85 -12.85 -92.85 -12.7 -92.8 -12.5 -92.8 -12.35 -92.75 -12.2 -92.7 -12.05 -92.7 -11.9 -92.65 -11.75 -92.65 -11.6 -92.6 -11.45 -92.55 -11.3 -92.5 -11.15 -92.5 -11.0 -92.45 -10.85 -92.4 -10.65 -92.4 -10.5 -92.35 -10.35 -92.35 -10.2 -92.3 -10.05 -92.3 -9.9 -92.25 -9.75 -92.25 -9.6 -92.25 -9.45 -92.25 -9.15 -92.25 -8.65 -92.25 -8.2 -92.25 -7.75 -92.2 -7.6 -92.2 -7.45 -92.15 -7.3 -92.15 -7.15 -92.1 -7.0 -92.1 -6.8 -92.05 -6.65 -92.0 -6.5 -91.95 -6.35 -91.9 -6.2 -91.9 -6.05 -91.85 -5.9 -91.85 -4.95 -91.85 -4.75 -91.7 -4.9 -91.5 -5.0 -91.45 -5.2 -91.35 -5.35 -91.25 -5.5 -91.15 -5.65 -91.0 -5.8 -90.85 -5.95 -90.75 -6.1 -90.65 -6.25 -90.65 -6.4 -90.6 -6.55 -90.55 -6.7 -90.45 -6.85 -90.35 -7.05 -90.25 -7.2 -90.1 -7.35 -89.95 -7.5 -89.8 -7.65 -89.65 -7.8 -89.5 -7.95 -89.35 -8.1 -89.25 -8.25 -89.2 -8.4 -89.1 -8.55 -89.05 -8.7 -88.95 -8.9 -88.9 -9.05 -88.85 -9.2 -88.75 -9.35 -88.7 -9.5 -88.65 -9.65 -88.6 -9.8 -88.5 -9.95 -88.45 -10.1 -88.35 -10.25 -88.25 -10.4 -88.1 -10.55 -88.05 -10.75 -88.0 -10.9 -87.95 -11.05 -87.9 -11.2 -87.8 -11.35 -87.75 -11.5 -87.65 -11.65 -87.6 -11.8 -87.5 -11.95 -87.4 -12.1 -87.3 -12.25 -87.15 -12.4 -87.1 -12.55 -87.1 -12.75 -87.1 -12.9 -87.1 -13.05 -87.05 -13.2 -87.0 -13.35 -86.95 -13.5 -86.85 -13.65 -86.7 -13.8 -86.55 -13.95 -86.4 -14.1 -86.25 -14.25 -86.1 -14.4 -85.85 -14.55 -85.65 -14.7 -85.35 -14.75 -85.05 -14.75 -85.05 -14.8 -84.85 -14.8 -84.55 -14.7 -84.2 -14.65 -83.95 -14.45 -83.75 -14.3 -83.6 -14.15 -83.45 -14.0 -83.4 -13.85 -83.3 -13.7 -83.25 -13.55 -83.25 -13.4 -83.2 -13.25 -83.1 -13.1 -83.0 -12.95 -82.95 -12.8 -82.85 -12.65 -82.8 -12.45 -82.7 -12.3 -82.65 -12.15 -82.55 -12.0 -82.5 -11.85 -82.4 -11.7 -82.35 -11.55 -82.3 -11.4 -82.2 -11.25 -82.15 -11.1 -82.1 -10.95 -82.05 -10.8 -82.0 -10.6 -81.9 -10.45 -81.85 -10.3 -81.75 -10.15 -81.7 -10.0 -81.55 -9.85 -81.5 -9.7 -81.4 -9.55 -81.3 -9.4 -81.2 -9.25 -81.1 -9.1 -81.05 -8.95 -80.95 -8.75 -80.9 -8.6 -80.8 -8.45 -80.75 -8.3 -80.7 -8.15 -80.65 -8.0 -80.6 -7.85 -80.6 -7.7 -80.55 -7.55 -80.5 -7.4 -80.4 -7.25 -80.35 -7.1 -80.25 -6.9 -80.2 -6.75 -80.1 -6.6 -80.0 -6.3 -79.95 -6.15 -79.9 -6.0 -79.8 -5.7 -79.65 -5.4 -79.5 -4.9 -79.5 -4.75 -79.45 -4.6 -79.4 -4.45 -79.4 -4.3 -79.35 -4.15 -79.3 -4.0 -79.3 -3.85 -79.25 -3.7 -79.2 -3.55 -79.2 -3.4 -79.15 -3.25 -79.1 -3.05 -79.1 -2.9 -79.1 -2.75 -79.0 -2.6 -78.95 -2.45 -78.85 -2.3 -78.8 -2.15 -78.7 -2.0 -78.65 -1.85 -78.6 -1.7 -78.55 -1.55 -78.5 -1.4 -78.5 -1.2 -78.5 -1.05 -78.5 -0.9 -78.5 -0.75 -78.5 -0.6 -78.5 -0.45 -78.5 -0.3 -78.4 -0.15 -78.35 0.0 -78.35 0.15 -78.3 0.3 -78.3 0.25 -78.3 0.1 -78.25 -0.05 -78.2 -0.2 -78.25 -0.35 -78.3 -0.5 -78.3 -0.65 -78.3 -0.8 -78.3 -0.95 -78.3 -1.1 -78.3 -1.45 -78.3 -1.6 -78.3 -1.75 -78.3 -1.9 -78.3 -2.05 -78.35 -2.2 -78.4 -2.35 -78.4 -2.5 -78.45 -2.65 -78.45 -2.8 -78.5 -2.95 -78.55 -3.1 -78.55 -3.3 -78.6 -3.45 -78.65 -3.6 -78.7 -3.75 -78.7 -3.9 -78.75 -4.05 -78.75 -4.2 -78.8 -4.35 -78.8 -4.5 -78.85 -4.65 -78.85 -4.8 -78.9 -4.95 -78.9 -6.2 -78.9 -7.6 -78.9 -9.6 -78.9 -11.6 -78.9 -12.2 -78.85 -12.35 -78.8 -12.5 -78.75 -12.7 -78.65 -12.85 -78.6 -12.85 -78.6 -12.95 -78.5 -13.1 -78.4 -13.25 -78.25 -13.4 -78.1 -13.55 -77.8 -13.7 -77.6 -13.8 -77.35 -13.85 -77.05 -13.9 -73.15 -13.9 -72.85 -13.85 -72.6 -13.8 -72.5 -13.75 -72.15 -13.75 -72.05 -13.85 -71.9 -14.0 -71.75 -14.15 -71.6 -14.3 -71.45 -14.5 -71.3 -14.65 -71.05 -14.8 -70.85 -14.9 -70.5 -15.0 -70.15 -15.15 -70.0 -15.3 -69.7 -15.45 -69.3 -15.6 -69.0 -15.75 -68.8 -15.85 -68.55 -15.9 -68.2 -15.95 -67.8 -15.95 -67.5 -15.9 -67.15 -15.8 -66.9 -15.65 -66.7 -15.5 -66.5 -15.35 -66.4 -15.2 -66.35 -15.05 -66.25 -14.9 -66.2 -14.75 -66.1 -14.6 -66.0 -14.4 -65.95 -14.25 -65.85 -14.1 -65.8 -13.95 -65.75 -13.8 -65.65 -13.65 -65.5 -13.5 -65.3 -13.35 -65.15 -13.2 -65.0 -13.05 -64.9 -12.9 -64.8 -12.75 -64.65 -12.55 -64.6 -12.4 -64.55 -12.25 -64.55 -12.2 -64.3 -12.25 -64.0 -12.2 -63.65 -12.1 -63.4 -11.95 -63.15 -11.8 -62.8 -11.65 -62.55 -11.55 -62.15 -11.5 -62.15 -11.55 -62.2 -11.7 -62.25 -11.85 -62.3 -12.0 -62.4 -12.15 -62.5 -12.3 -62.6 -12.45 -62.65 -12.65 -62.65 -12.8 -62.7 -12.95 -62.7 -13.1 -62.7 -13.25 -62.7 -13.4 -62.7 -13.55 -62.7 -13.7 -62.7 -13.85 -62.7 -14.0 -62.65 -14.15 -62.6 -14.3 -62.55 -14.5 -62.45 -14.65 -62.35 -14.8 -62.2 -14.95 -62.05 -15.1 -61.75 -15.25 -61.4 -15.35 -61.1 -15.4 -60.85 -15.45 -60.75 -15.5 -60.5 -15.55 -60.2 -15.6 -58.75 -15.6 -58.45 -15.55 -58.1 -15.45 -57.85 -15.3 -57.7 -15.2 -57.45 -15.15 -57.05 -15.05 -56.75 -14.9 -56.45 -14.75 -56.25 -14.6 -55.85 -14.4 -55.6 -14.25 -55.45 -14.15 -55.35 -14.15 -55.15 -14.05 -54.8 -13.95 -54.55 -13.8 -54.35 -13.65 -54.2 -13.5 -54.05 -13.35 -53.95 -13.2 -53.85 -13.05 -53.8 -12.9 -53.75 -12.75 -53.7 -12.55 -53.65 -12.4 -53.55 -12.25 -53.5 -12.1 -53.5 -11.95 -53.4 -11.8 -53.4 -11.65 -53.35 -11.5 -53.25 -11.35 -53.2 -11.2 -53.15 -11.05 -53.1 -10.9 -53.05 -10.75 -53.05 -10.55 -53.0 -10.4 -53.0 -8.9 -53.0 -6.7 -53.0 -4.4 -53.0 -2.4 -53.0 -1.35 -53.05 -1.15 -53.1 -1.0 -53.15 -0.85 -53.15 -0.7 -53.2 -0.55 -53.2 -0.4 -53.2 -0.25 -53.2 -0.1 -53.2 0.05 -53.2 0.35 -53.2 0.85 -53.2 1.3 -53.25 1.45 -53.3 1.6 -53.35 1.75 -53.4 1.9 -53.4 2.05 -53.4 2.2 -53.5 2.35 -53.5 2.55 -53.55 2.7 -53.65 2.85 -53.65 3.0 -53.65 3.15 -53.65 3.3 -53.65 3.45 -53.65 3.6 -53.7 3.75 -53.7 3.9 -53.75 4.05 -53.85 4.2 -53.9 4.4 -54.0 4.55 -54.15 4.7 -54.3 4.85 -54.45 5.0 -54.7 5.15 -54.9 5.25 -55.15 5.3 -55.5 5.35 -56.5 5.35 -56.8 5.3 -57.15 5.2 -57.5 5.05 -57.65 4.9 -57.8 4.75 -57.95 4.6 -58.1 4.45 -58.3 4.25 -58.6 4.1 -58.8 3.95 -58.95 3.8 -59.15 3.65 -59.3 3.5 -59.65 3.2 -59.9 3.05 -60.05 2.9 -60.2 2.75 -60.35 2.6 -60.45 2.4 -60.55 2.25 -60.65 2.1 -60.75 1.95 -60.85 1.8 -60.9 1.65 -61.05 1.5 -61.15 1.35 -61.2 1.2 -61.3 1.05 -61.35 0.9 -61.45 0.75 -61.55 0.6 -61.65 0.4 -61.8 0.25 -61.9 0.1 -62.05 -0.05 -62.15 -0.2 -62.25 -0.35 -62.35 -0.5 -62.45 -0.65 -62.55 -0.8 -62.6 -0.95 -62.7 -1.1 -62.7 -1.15 -62.8 -1.05 -62.95 -0.9 -63.05 -0.75 -63.1 -0.6 -63.05 -0.6 -62.8 -0.45 -62.55 -0.3 -62.4 -0.15 -62.3 0.0 -62.25 0.15 -62.15 0.3 -62.1 0.45 -62.1 0.65 -62.0 0.8 -61.9 0.95 -61.8 1.1 -61.7 1.25 -61.6 1.4 -61.55 1.55 -61.5 1.7 -61.45 1.85 -61.45 2.0 -61.45 2.15 -61.45 2.3 -61.45 2.65 -61.45 3.1 -61.45 3.55 -61.45 3.7 -61.5 3.85 -61.55 4.0 -61.6 4.15 -61.7 4.35 -61.8 4.5 -61.9 4.65 -62.05 4.8 -62.3 4.95 -62.5 5.05 -62.75 5.1 -63.1 5.15 -65.8 5.15 -65.9 5.3 -66.0 5.45 -66.1 5.6 -66.25 5.75 -66.5 5.9 -66.75 6.05 -67.1 6.15 -67.4 6.25 -68.65 6.25 -68.95 6.15 -69.3 6.05 -69.6 5.9 -69.75 5.75 -69.9 5.6 -70.0 5.45 -70.1 5.3 -70.15 5.15 -70.2 5.05 -82.6 4.95 -82.9 4.9 -83.25 4.8 -83.55 4.7 -83.9 4.6 -84.2 4.45 -84.35 4.25 -84.5 4.1 -84.6 3.95 -84.7 3.8 -84.75 3.65 -84.8 3.5 -84.85 3.35 -84.85 3.2 -84.85 3.1 -85.45 3.05 -86.15 2.95 -86.45 2.8 -86.6 2.65 -86.75 2.5 -86.85 2.3 -86.95 2.15 -87.05 2.25 -87.25 2.4 -87.45 2.55 -87.7 2.75 -88.05 2.85 -88.15 2.85 -88.15 3.0 -88.2 3.15 -88.2 3.3 -88.25 3.45 -88.35 3.6 -88.4 3.75 -88.5 3.9 -88.65 4.05 -88.85 4.2 -89.1 4.4 -89.5 4.45 -89.8 4.55 -95.15 4.55 -95.7 4.45 -97.3 4.25 -98.05 4.0 -98.35 3.85 -98.6 3.7 -98.85 3.55 -99.0 3.4 -99.15 3.25 -99.25 3.1 -99.35 2.95 -99.4 2.8 -99.4 2.65 -99.45 2.5 -99.45 2.3 -99.45 2.15 -99.45 2.0 -99.45 1.85 -99.55 1.7 -99.6 1.55 -99.6 1.4 -99.65 1.25 -99.65 1.1 -99.65 0.95 -99.65 0.8 -99.65 0.65 -99.6 0.45 -99.55 0.3 -99.5 0.2 -99.55 0.2 -99.7 0.35 -99.9 0.55 -100.05 0.7 -100.15 0.85 -100.25 1.0 -100.35 1.15 -100.5 1.3 -100.65 1.45 -100.85 1.6 -101.15 1.75 -101.35 1.9 -101.45 2.05 -101.6 2.2 -101.8 2.35 -102.05 2.55 -102.25 2.7 -102.5 2.85 -102.7 2.95 -102.8 3.0 -103.05 3.05 -103.35 3.1 -103.55 3.1 -103.85 3.05 -104.25 2.95 -104.55 2.8 -104.7 2.65 -104.85 2.5 -104.95 2.3 -105.05 2.2 -105.1 2.35 -105.15 2.55 -105.25 2.7 -105.35 2.85 -105.45 3.0 -105.6 3.15 -105.85 3.3 -106.2 3.45 -106.4 3.55 -106.5 3.6 -106.75 3.65 -107.05 3.7 -110.1 3.8 -110.75 3.9 -111.15 3.9 -111.45 3.85 -111.85 3.75 -112.15 3.6 -112.25 3.5 -112.5 3.45 -112.85 3.35 -113.1 3.25 -113.45 3.15 -113.8 3.0 -114.1 2.85 -114.3 2.7 -114.45 2.55 -114.6 2.35 -114.7 2.2 -114.75 2.05 -114.8 1.9 -114.85 1.75 -114.85 1.6 -114.85 1.45 -114.85 1.3 -114.85 1.15 -114.85 1.0 -114.8 0.85 -114.75 0.7 -114.7 0.5 -114.6 0.35 -114.5 0.2 -114.35 0.05 -114.2 -0.1 -113.9 -0.25 -113.5 -0.35 -113.2 -0.4 -112.2 -0.4 -111.85 -0.4 -111.8 -0.5 -111.8 -0.65 -111.8 -0.8 -111.8 -0.95 -111.8 -1.1 -111.8 -1.25 -111.75 -1.45 -111.65 -1.6 -111.6 -1.75 -111.55 -1.9 -111.55 -2.05 -111.5 -2.2 -111.5 -2.35 -111.45 -2.5 -111.35 -2.65 -111.3 -2.8 -111.25 -2.95 -111.2 -3.1 -111.15 -3.3 -111.15 -3.45 -111.15 -3.6 -111.15 -3.75 -111.1 -3.9 -111.1 -4.05 -111.05 -4.2 -111.0 -4.35 -110.95 -4.5 -110.95 -4.65 -110.95 -4.8 -110.95 -4.95 -110.9 -5.15 -110.85 -5.3 -110.8 -5.45 -110.75 -5.6 -110.75 -6.8 -110.75 -8.8 -110.75 -10.85 -110.75 -12.5 -110.7 -12.7 -110.65 -12.85 -110.65 -13.0 -110.55 -13.15 -110.55 -13.3 -110.55 -13.45 -110.55 -13.6 -110.55 -13.75 -110.55 -13.9 -110.55 -14.05 -110.55 -14.2 -110.5 -14.35 -110.45 -14.55 -110.4 -14.7 -110.3 -14.85 -110.2 -15.0 -110.05 -15.15 -109.9 -15.3 -109.55 -15.45 -109.2 -15.55 -108.9 -15.6 -108.7 -15.55 -108.55 -15.7 -108.35 -15.8 -108.25 -15.85 -108.0 -15.9 -107.65 -15.95 M-106.0 -9.7 L-106.1 -9.85 -106.2 -10.0 -106.3 -10.15 -106.4 -10.3 -106.55 -10.45 -106.65 -10.6 -106.75 -10.8 -106.9 -10.95 -107.0 -11.1 -107.1 -11.25 -107.25 -11.4 -107.4 -11.55 -107.45 -11.6 -107.45 -11.15 -107.45 -10.5 -107.45 -9.75 -107.45 -9.15 -107.4 -9.1 -107.2 -9.15 -106.95 -9.2 -106.65 -9.25 -106.35 -9.2 -105.95 -9.1 -105.7 -8.9 -105.55 -8.8 -105.6 -8.95 -105.7 -9.1 -105.75 -9.25 -105.85 -9.4 -105.9 -9.55 -106.0 -9.7 M-104.8 -7.4 L-104.9 -7.55 -104.95 -7.7 -105.05 -7.85 -105.0 -7.7 -104.95 -7.55 -104.95 -7.4 -104.85 -7.25 -104.8 -7.1 -104.7 -6.9 -104.65 -6.75 -104.65 -6.6 -104.6 -6.45 -104.6 -6.3 -104.6 -6.15 -104.6 -6.0 -104.55 -5.85 -104.5 -5.7 -104.45 -5.55 -104.35 -5.25 -104.25 -4.9 -104.05 -4.45 -104.0 -4.3 -103.9 -4.15 -103.85 -4.0 -103.75 -3.85 -103.7 -3.7 -103.65 -3.55 -103.55 -3.4 -103.5 -3.25 -103.45 -3.05 -103.4 -2.9 -103.3 -2.75 -103.25 -2.6 -103.2 -2.45 -103.2 -2.3 -103.15 -2.15 -103.15 -2.0 -103.1 -1.85 -103.0 -1.7 -102.95 -1.55 -102.85 -1.4 -102.75 -1.35 -102.6 -1.45 -102.45 -1.6 -102.4 -1.6 -102.45 -1.7 -102.5 -1.85 -102.55 -2.0 -102.55 -2.15 -102.55 -2.3 -102.55 -2.45 -102.55 -2.6 -102.55 -2.75 -102.55 -2.9 -102.6 -3.05 -102.65 -3.25 -102.7 -3.4 -102.75 -3.55 -102.85 -3.7 -102.95 -3.85 -103.05 -4.0 -103.1 -4.15 -103.1 -4.3 -103.15 -4.45 -103.2 -4.6 -103.25 -4.75 -103.35 -4.9 -103.45 -5.1 -103.5 -5.25 -103.6 -5.4 -103.65 -5.55 -103.75 -5.7 -103.8 -5.85 -103.9 -6.0 -103.95 -6.15 -104.0 -6.3 -104.05 -6.45 -104.15 -6.6 -104.3 -6.75 -104.4 -6.9 -104.55 -7.1 -104.7 -7.25 -104.8 -7.4 M-108.35 -1.0 L-108.4 -0.85 -108.45 -0.7 -108.5 -0.55 -108.5 -0.4 -108.5 -0.25 -108.5 -0.1 -108.5 0.05 -108.5 0.2 -108.5 0.3 -108.5 0.35 -108.3 0.3 -108.3 0.0 -108.3 -0.3 -108.3 -0.6 -108.3 -1.0 -108.35 -1.0 M-95.55 -7.25 L-95.55 -7.4 -95.55 -7.55 -95.55 -7.65 -95.65 -7.6 -95.75 -7.45 -95.9 -7.3 -96.0 -7.15 -96.05 -7.0 -96.15 -6.8 -96.2 -6.65 -96.3 -6.5 -96.35 -6.4 -96.35 -6.05 -96.25 -5.9 -96.2 -5.75 -96.2 -5.6 -96.15 -5.45 -96.15 -4.65 -96.15 -3.45 -96.15 -2.05 -96.15 -0.65 -96.15 -0.5 -95.35 -0.4 -95.15 -0.45 -95.15 -1.2 -95.15 -2.45 -95.15 -3.85 -95.15 -5.25 -95.15 -5.4 -95.2 -5.55 -95.25 -5.7 -95.3 -5.85 -95.35 -6.0 -95.35 -6.15 -95.4 -6.3 -95.4 -6.45 -95.45 -6.6 -95.45 -6.75 -95.5 -6.9 -95.5 -7.1 -95.55 -7.25 M-84.7 -8.7 L-84.8 -8.9 -84.85 -9.05 -84.95 -9.2 -85.0 -9.25 -85.1 -9.15 -85.2 -9.0 -85.3 -8.8 -85.45 -8.65 -85.5 -8.5 -85.5 -8.35 -85.55 -8.2 -85.6 -8.05 -85.65 -7.9 -85.75 -7.75 -85.85 -7.6 -85.95 -7.45 -86.05 -7.3 -86.1 -7.15 -86.15 -7.0 -86.2 -6.8 -86.3 -6.65 -86.35 -6.5 -86.45 -6.35 -86.6 -6.2 -86.75 -6.05 -86.85 -5.9 -87.0 -5.75 -87.15 -5.6 -87.35 -5.45 -87.5 -5.3 -87.6 -5.15 -87.65 -4.95 -87.7 -4.8 -87.75 -4.65 -87.85 -4.5 -87.95 -4.35 -88.05 -4.2 -88.15 -4.05 -88.3 -3.9 -88.4 -3.75 -88.5 -3.6 -88.6 -3.45 -88.65 -3.3 -88.75 -3.1 -88.85 -2.95 -88.95 -2.8 -89.15 -2.65 -89.35 -2.5 -89.55 -2.35 -89.75 -2.2 -89.85 -2.05 -89.9 -1.9 -89.9 -1.75 -89.95 -1.6 -90.0 -1.45 -90.05 -1.25 -90.1 -1.1 -90.15 -0.95 -90.25 -0.8 -90.3 -0.65 -90.4 -0.5 -90.5 -0.35 -90.55 -0.2 -90.65 -0.05 -90.7 0.1 -90.7 0.15 -90.05 0.35 -90.05 0.25 -89.95 0.1 -89.85 -0.05 -89.75 -0.2 -89.65 -0.35 -89.55 -0.5 -89.5 -0.65 -89.4 -0.8 -89.3 -0.95 -89.25 -1.1 -89.2 -1.25 -89.05 -1.45 -89.0 -1.6 -88.9 -1.75 -88.8 -1.9 -88.7 -2.05 -88.65 -2.2 -88.6 -2.35 -88.5 -2.5 -88.4 -2.65 -88.25 -2.8 -88.15 -2.95 -88.15 -3.1 -88.1 -3.3 -88.05 -3.45 -88.0 -3.6 -87.9 -3.75 -87.8 -3.9 -87.7 -4.05 -87.65 -4.2 -87.55 -4.35 -87.5 -4.5 -87.45 -4.65 -87.4 -4.8 -87.3 -4.95 -87.15 -5.15 -87.0 -5.3 -86.85 -5.45 -86.55 -5.6 -86.15 -5.75 -86.0 -5.9 -85.85 -6.05 -85.7 -6.2 -85.5 -6.35 -85.3 -6.5 -85.1 -6.6 -85.0 -6.65 -84.75 -6.7 -84.45 -6.75 -84.15 -6.7 -83.8 -6.6 -83.7 -6.55 -83.75 -6.7 -83.85 -7.05 -83.95 -7.35 -84.05 -7.5 -84.15 -7.65 -84.25 -7.8 -84.3 -7.95 -84.4 -8.1 -84.5 -8.25 -84.55 -8.4 -84.65 -8.55 -84.7 -8.7 M-82.8 -4.0 L-82.8 -3.7 -82.75 -3.55 -82.7 -3.4 -82.65 -3.25 -82.65 -3.05 -82.6 -2.9 -82.6 -2.75 -82.6 -2.6 -82.6 -2.45 -82.6 -2.3 -82.6 -2.15 -82.6 -1.85 -82.6 -1.7 -82.55 -1.55 -82.55 -1.4 -82.5 -1.2 -82.45 -1.05 -82.4 -0.9 -82.35 -0.75 -82.3 -0.6 -82.25 -0.45 -82.2 -0.3 -81.8 -0.25 -81.8 -0.4 -81.8 -0.7 -81.85 -0.85 -81.95 -1.0 -82.05 -1.15 -82.15 -1.35 -82.25 -1.5 -82.3 -1.65 -82.35 -1.8 -82.4 -1.95 -82.4 -2.1 -82.4 -2.25 -82.4 -2.4 -82.4 -2.55 -82.45 -2.7 -82.5 -2.85 -82.5 -3.0 -82.55 -3.15 -82.6 -3.35 -82.6 -3.5 -82.65 -3.65 -82.7 -3.8 -82.7 -3.95 -82.75 -4.1 -82.8 -4.25 -82.8 -4.0 M-73.75 -9.85 L-73.75 -9.1 -73.75 -8.3 -73.75 -7.25 -73.75 -6.25 -73.7 -6.4 -73.7 -6.55 -73.65 -6.7 -73.65 -6.85 -73.6 -7.05 -73.6 -7.2 -73.55 -7.35 -73.55 -7.65 -73.55 -8.1 -73.55 -8.9 -73.55 -9.65 -73.55 -10.25 -73.55 -10.5 -73.75 -10.5 -73.75 -10.45 -73.75 -9.85 M-73.75 -6.0 L-73.8 -5.85 -73.8 -5.7 -73.85 -5.55 -73.95 -5.4 -73.95 -5.25 -73.95 -5.1 -73.95 -4.9 -73.95 -4.75 -73.95 -4.6 -73.95 -4.45 -73.95 -4.3 -74.0 -4.15 -74.05 -4.0 -74.15 -3.85 -74.2 -3.7 -74.2 -3.55 -74.2 -3.4 -74.2 -3.25 -74.2 -3.05 -74.2 -2.9 -74.2 -2.6 -74.2 -2.45 -74.25 -2.3 -74.3 -2.15 -74.35 -2.0 -74.35 -1.85 -74.4 -1.7 -74.45 -1.55 -74.45 -1.4 -74.45 -1.2 -74.45 -1.05 -74.45 -0.9 -74.5 -0.75 -74.55 -0.6 -74.6 -0.45 -74.65 -0.3 -74.7 -0.15 -74.75 0.0 -74.85 0.15 -74.9 0.3 -74.95 0.45 -75.0 0.65 -75.0 0.8 -75.0 0.95 -75.0 1.1 -75.0 1.15 -74.8 1.1 -74.2 1.0 -74.2 0.7 -74.2 0.35 -74.2 -0.1 -74.2 -0.7 -74.2 -1.35 -74.2 -1.5 -74.15 -1.65 -74.05 -1.8 -74.0 -1.95 -74.0 -2.1 -73.95 -2.25 -73.95 -2.4 -73.95 -2.55 -73.95 -2.7 -73.95 -2.85 -73.95 -3.0 -73.95 -3.15 -73.9 -3.35 -73.9 -3.5 -73.85 -3.65 -73.85 -3.8 -73.8 -3.95 -73.75 -4.1 -73.75 -4.25 -73.75 -4.4 -73.75 -4.55 -73.75 -4.85 -73.75 -5.35 -73.75 -5.8 -73.75 -6.0 M-61.5 -7.75 L-61.45 -7.75 -61.55 -7.8 -61.5 -7.75 M-56.8 -11.1 L-57.05 -11.25 -57.25 -11.35 -57.6 -11.45 -57.9 -11.6 -58.05 -11.75 -58.15 -11.85 -58.35 -11.9 -58.65 -11.95 -58.75 -11.95 -58.75 -11.9 -58.6 -11.45 -58.45 -11.0 -58.3 -10.5 -58.25 -10.45 -58.05 -10.4 -57.7 -10.3 -57.45 -10.15 -57.25 -10.0 -57.05 -9.85 -56.95 -9.7 -56.85 -9.55 -56.75 -9.4 -56.65 -9.25 -56.6 -9.1 -56.55 -8.95 -56.5 -8.75 -56.5 -8.6 -56.5 -8.45 -56.55 -8.3 -56.55 -8.15 -56.6 -8.0 -56.7 -7.85 -56.75 -7.7 -56.85 -7.55 -57.05 -7.4 -57.25 -7.25 -57.5 -7.1 -57.85 -7.0 -58.15 -6.9 -58.15 -6.5 -58.2 -6.35 -58.25 -6.2 -58.3 -6.05 -58.4 -5.9 -58.45 -5.75 -58.55 -5.6 -58.7 -5.45 -58.8 -5.3 -58.8 -5.15 -58.85 -4.95 -58.95 -4.8 -59.0 -4.65 -59.15 -4.5 -59.25 -4.35 -59.3 -4.2 -59.35 -4.05 -59.4 -3.9 -59.5 -3.75 -59.6 -3.6 -59.75 -3.45 -59.95 -3.3 -60.05 -3.1 -59.95 -2.95 -59.9 -2.8 -59.8 -2.65 -59.7 -2.5 -59.6 -2.35 -59.55 -2.2 -59.4 -2.05 -59.3 -1.9 -59.15 -1.75 -59.0 -1.6 -58.85 -1.45 -58.75 -1.25 -58.65 -1.1 -58.55 -0.95 -58.5 -0.8 -58.4 -0.65 -58.35 -0.5 -58.25 -0.35 -58.2 -0.2 -58.1 -0.05 -58.0 0.1 -57.9 0.25 -57.8 0.4 -57.65 0.6 -57.4 0.75 -57.25 0.9 -57.05 1.05 -56.9 1.2 -56.75 1.3 -56.7 1.25 -56.65 1.1 -56.6 0.95 -56.55 0.8 -56.5 0.65 -56.5 0.15 -56.5 -0.3 -56.5 -0.75 -56.5 -1.05 -56.45 -1.2 -56.45 -1.4 -56.4 -1.55 -56.35 -1.7 -56.3 -1.85 -56.3 -4.0 -56.3 -6.3 -56.3 -8.45 -56.3 -9.85 -56.35 -10.0 -56.4 -10.15 -56.45 -10.3 -56.5 -10.45 -56.6 -10.6 -56.65 -10.8 -56.65 -10.95 -56.8 -11.1 M-41.0 -11.1 L-41.1 -11.25 -41.2 -11.4 -41.7 -11.5 -42.0 -11.55 -42.4 -11.65 -42.45 -11.5 -42.5 -11.35 -42.55 -11.2 -42.65 -10.9 -42.75 -10.55 -42.85 -10.25 -42.9 -10.1 -42.9 -9.95 -42.95 -9.8 -43.0 -9.65 -43.0 -9.5 -43.05 -9.35 -43.05 -9.2 -43.1 -9.05 -43.1 -8.9 -43.15 -8.7 -43.15 -8.55 -43.15 -8.4 -43.15 -8.25 -43.15 -8.1 -43.15 -7.8 -43.15 -7.5 -43.15 -7.35 -43.2 -7.2 -43.25 -7.05 -43.25 -6.85 -43.3 -6.7 -43.35 -6.55 -43.35 -6.4 -43.35 -6.25 -43.35 -6.1 -43.35 -5.95 -43.35 -5.8 -43.35 -5.65 -43.35 -5.5 -43.4 -5.35 -43.4 -5.2 -43.45 -5.0 -43.45 -4.85 -43.5 -4.7 -43.5 -4.55 -43.55 -4.4 -43.55 -4.25 -43.55 -4.1 -43.55 -3.95 -43.55 -3.8 -43.55 -3.65 -43.55 -3.5 -43.6 -3.35 -43.6 -3.15 -43.65 -3.0 -43.7 -2.85 -43.75 -2.7 -43.75 -2.55 -43.8 -2.4 -43.8 -2.25 -43.85 -2.1 -43.85 -1.95 -43.9 -1.8 -43.9 -1.7 -43.8 -1.8 -43.5 -1.95 -43.35 -2.0 -43.35 -2.1 -43.35 -2.25 -43.35 -2.4 -43.35 -2.55 -43.35 -2.7 -43.35 -2.85 -43.3 -3.0 -43.3 -3.15 -43.25 -3.35 -43.15 -3.5 -43.05 -3.65 -42.9 -3.8 -42.75 -3.95 -42.5 -4.1 -42.3 -4.2 -42.0 -4.25 -41.7 -4.3 -41.4 -4.25 -41.05 -4.15 -40.8 -4.0 -40.6 -3.85 -40.45 -3.7 -40.35 -3.55 -40.25 -3.4 -40.15 -3.25 -40.1 -3.05 -40.1 -2.9 -40.0 -2.75 -39.95 -2.6 -39.8 -2.45 -39.7 -2.3 -39.65 -2.15 -39.55 -2.0 -39.5 -1.85 -39.4 -1.7 -39.35 -1.55 -39.3 -1.4 -39.3 -1.2 -39.25 -1.05 -39.15 -0.9 -39.0 -0.9 -38.85 -1.05 -38.75 -1.2 -38.65 -1.4 -38.55 -1.55 -38.4 -1.7 -38.3 -1.85 -38.2 -2.0 -38.2 -2.15 -38.15 -2.3 -38.1 -2.4 -38.35 -2.55 -38.55 -2.7 -38.7 -2.85 -38.8 -3.0 -38.95 -3.15 -39.2 -3.35 -39.35 -3.5 -39.5 -3.65 -39.6 -3.8 -39.7 -3.95 -39.75 -4.1 -39.8 -4.25 -39.85 -4.4 -39.85 -4.55 -39.85 -4.7 -39.85 -4.85 -39.85 -5.0 -39.85 -5.2 -39.8 -5.35 -39.75 -5.5 -39.7 -5.65 -39.6 -5.8 -39.45 -5.95 -39.3 -6.1 -39.15 -6.2 -39.2 -6.3 -39.3 -6.45 -39.35 -6.6 -39.4 -6.75 -39.45 -6.9 -39.5 -7.1 -39.55 -7.25 -39.65 -7.4 -39.75 -7.55 -39.8 -7.7 -39.9 -7.85 -39.95 -8.0 -40.0 -8.15 -40.05 -8.3 -40.1 -8.45 -40.1 -8.6 -40.15 -8.75 -40.2 -8.95 -40.35 -9.1 -40.4 -9.25 -40.45 -9.4 -40.5 -9.55 -40.55 -9.7 -40.6 -9.85 -40.6 -10.0 -40.7 -10.15 -40.75 -10.3 -40.8 -10.45 -40.85 -10.6 -40.9 -10.8 -40.95 -10.95 -41.0 -11.1 M-32.6 -10.85 L-32.65 -10.75 -32.75 -10.55 -32.85 -10.4 -32.95 -10.25 -33.05 -10.1 -33.15 -9.95 -33.3 -9.8 -33.35 -9.65 -33.4 -9.5 -33.5 -9.35 -33.55 -9.2 -33.65 -9.05 -33.8 -8.9 -33.95 -8.7 -34.05 -8.55 -34.1 -8.4 -34.2 -8.25 -34.3 -8.1 -34.35 -7.95 -34.45 -7.8 -34.5 -7.65 -34.6 -7.5 -34.75 -7.35 -34.9 -7.2 -35.05 -7.05 -35.25 -6.9 -35.4 -6.75 -35.15 -6.75 -34.85 -6.7 -34.45 -6.6 -34.2 -6.45 -34.0 -6.3 -33.85 -6.15 -33.75 -6.0 -33.7 -5.85 -33.6 -5.7 -33.55 -5.55 -33.55 -5.4 -33.2 -5.5 -32.9 -5.55 -32.55 -5.5 -32.2 -5.4 -31.95 -5.2 -31.75 -5.05 -31.6 -4.9 -31.5 -4.75 -31.45 -4.6 -31.35 -4.45 -31.3 -4.3 -31.3 -4.15 -31.25 -4.0 -31.25 -3.85 -31.25 -3.7 -31.3 -3.55 -31.35 -3.4 -31.4 -3.25 -31.45 -3.05 -31.45 -2.9 -31.5 -2.75 -31.5 -2.6 -31.5 -2.5 -31.4 -2.45 -31.15 -2.3 -30.85 -2.15 -30.75 -2.05 -30.7 -2.0 -30.4 -1.9 -30.4 -3.45 -30.4 -3.8 -30.45 -3.9 -30.5 -4.05 -30.6 -4.2 -30.65 -4.35 -30.75 -4.5 -30.8 -4.65 -31.0 -4.8 -31.15 -4.95 -31.25 -5.15 -31.35 -5.3 -31.4 -5.45 -31.5 -5.6 -31.6 -5.75 -31.65 -5.9 -31.75 -6.05 -31.8 -6.2 -31.9 -6.35 -31.95 -6.5 -32.0 -6.65 -32.05 -6.8 -32.05 -7.0 -32.05 -7.15 -32.05 -7.3 -32.05 -7.45 -32.1 -7.6 -32.15 -7.75 -32.2 -7.9 -32.25 -8.05 -32.25 -8.2 -32.25 -8.35 -32.3 -8.5 -32.35 -8.65 -32.4 -8.8 -32.45 -9.0 -32.45 -9.15 -32.45 -9.3 -32.45 -9.45 -32.45 -9.6 -32.45 -9.9 -32.45 -10.2 -32.45 -10.35 -32.5 -10.5 -32.55 -10.65 -32.6 -10.85 M-23.6 -8.6 L-23.65 -8.55 -23.8 -8.4 -23.95 -8.25 -24.0 -8.1 -24.05 -7.95 -24.1 -7.8 -24.15 -7.65 -24.2 -7.5 -24.15 -7.35 -24.1 -7.2 -24.0 -7.05 -23.95 -6.85 -23.9 -6.7 -23.8 -6.75 -23.7 -6.85 -23.55 -7.05 -23.45 -7.2 -23.25 -7.35 -23.15 -7.5 -23.05 -7.65 -23.1 -7.8 -23.15 -7.95 -23.2 -8.1 -23.25 -8.25 -23.3 -8.4 -23.45 -8.55 -23.6 -8.6 M-22.25 -3.15 L-22.7 -2.7 -23.0 -2.4 -23.1 -2.25 -23.2 -2.1 -23.25 -1.95 -23.35 -1.8 -23.55 -1.65 -23.75 -1.5 -24.0 -1.35 -24.3 -1.15 -24.35 -1.0 -24.4 -0.85 -24.4 -0.7 -23.75 -1.1 -21.65 -2.25 -21.4 -2.4 -21.2 -2.55 -21.0 -2.7 -20.75 -2.85 -20.6 -3.0 -20.5 -3.15 -20.35 -3.35 -20.35 -3.4 -20.35 -3.55 -20.35 -3.7 -20.4 -3.85 -20.45 -4.0 -20.55 -4.15 -20.65 -4.3 -20.75 -4.45 -20.8 -4.55 -20.8 -4.6 -20.9 -4.6 -20.95 -4.55 -21.05 -4.4 -21.2 -4.25 -21.3 -4.1 -21.8 -3.65 -22.25 -3.15 M-12.95 -8.75 L-13.25 -8.85 -13.6 -8.95 -13.9 -9.1 -14.1 -9.25 -14.2 -9.35 -14.2 -8.8 -14.15 -8.65 -14.1 -8.5 -14.05 -8.35 -13.9 -8.2 -13.8 -8.05 -13.75 -7.9 -13.65 -7.75 -13.6 -7.6 -13.35 -7.6 -13.05 -7.55 -12.7 -7.45 -12.45 -7.35 -12.2 -7.3 -12.05 -7.25 -10.9 -7.3 -10.55 -7.45 -10.15 -7.55 -9.8 -7.65 -9.95 -7.8 -10.2 -7.95 -10.4 -8.1 -10.6 -8.25 -10.75 -8.4 -11.05 -8.7 -11.4 -9.05 -11.6 -9.2 -11.8 -9.1 -12.05 -8.95 -12.45 -8.85 -12.75 -8.75 -12.95 -8.75 M-10.15 -3.45 L-10.1 -3.6 -10.0 -3.7 -10.05 -3.8 -10.25 -3.95 -10.35 -4.0 -10.7 -3.9 -10.5 -3.75 -10.35 -3.6 -10.15 -3.45 M-11.3 -0.2 L-11.3 -0.05 -11.3 0.1 -11.3 0.4 -11.3 0.85 -11.0 0.95 -10.55 0.9 -10.35 0.75 -10.3 0.6 -10.3 0.4 -10.3 0.25 -10.35 0.2 -10.5 0.05 -10.65 -0.1 -10.95 -0.2 -11.2 -0.25 -11.3 -0.25 -11.3 -0.2 M-2.35 -10.95 L-2.6 -10.8 -2.95 -10.7 -3.15 -10.6 -3.4 -10.5 -3.55 -10.35 -3.7 -10.2 -3.65 -10.05 -3.6 -9.9 -3.55 -9.75 -3.5 -9.6 -3.5 -9.45 -3.45 -9.3 -3.3 -9.15 -3.2 -9.0 -3.1 -8.8 -3.05 -8.65 -2.95 -8.5 -2.9 -8.35 -2.85 -8.2 -2.8 -8.05 -2.7 -7.9 -2.65 -7.75 -2.65 -7.3 -2.65 -7.0 -2.65 -6.5 -2.65 -5.9 -2.65 -5.3 -2.65 -5.15 -2.7 -4.95 -2.8 -4.8 -2.85 -4.65 -2.95 -4.5 -3.05 -4.35 -3.15 -4.2 -3.3 -4.05 -3.55 -3.9 -3.75 -3.8 -4.0 -3.75 -4.3 -3.7 -4.6 -3.75 -5.0 -3.85 -5.3 -4.0 -5.75 -4.45 -6.2 -4.8 -6.55 -5.1 -7.05 -5.55 -7.15 -5.7 -7.25 -5.85 -7.5 -6.0 -7.55 -6.0 -7.5 -5.85 -7.3 -5.7 -7.15 -5.55 -7.0 -5.4 -6.9 -5.25 -6.8 -5.1 -6.75 -4.9 -6.65 -4.75 -6.6 -4.6 -6.55 -4.45 -6.45 -4.3 -6.35 -4.15 -6.2 -4.0 -6.05 -3.85 -5.9 -3.7 -5.7 -3.4 -5.6 -3.25 -5.5 -3.05 -5.4 -2.9 -5.3 -2.75 -5.2 -2.6 -5.1 -2.45 -4.95 -2.3 -4.85 -2.15 -4.75 -2.0 -4.7 -1.85 -4.5 -1.7 -4.4 -1.6 -4.05 -1.5 -3.8 -1.3 -3.6 -1.15 -3.45 -1.0 -3.35 -0.85 -3.3 -0.7 -3.2 -0.55 -3.15 -0.4 -3.15 -0.25 -3.1 -0.1 -3.1 0.05 -3.1 0.2 -3.15 0.35 -3.2 0.5 -2.9 0.5 -2.9 0.2 -2.9 0.05 -2.9 -0.1 -2.9 -0.25 -2.9 -0.4 -2.9 -0.55 -2.9 -0.7 -2.9 -0.85 -2.85 -1.0 -2.8 -1.15 -2.7 -1.35 -2.65 -1.5 -2.65 -1.65 -2.6 -1.8 -2.6 -1.95 -2.55 -2.1 -2.45 -2.25 -2.45 -2.4 -2.45 -2.55 -2.45 -2.7 -2.45 -2.85 -2.4 -3.0 -2.4 -3.15 -2.35 -3.35 -2.25 -3.5 -2.15 -3.65 -2.05 -3.8 -1.95 -3.95 -1.9 -4.1 -1.8 -4.25 -1.8 -4.4 -1.75 -4.55 -1.65 -4.7 -1.65 -4.85 -1.6 -5.0 -1.6 -5.2 -1.55 -5.35 -1.45 -5.5 -1.45 -5.65 -1.5 -5.8 -1.55 -5.95 -1.6 -6.1 -1.65 -6.25 -1.65 -7.2 -1.65 -8.25 -1.65 -9.5 -1.65 -10.9 -1.65 -11.35 -1.65 -11.4 -1.8 -11.45 -1.9 -11.4 -2.0 -11.25 -2.15 -11.1 -2.35 -10.95 M-21.6 1.6 L-21.95 1.8 -22.25 1.95 -22.7 2.15 -21.6 2.15 -21.6 2.0 -21.6 1.85 -21.6 1.7 -21.6 1.6 M-42.65 1.4 L-42.95 1.45 -43.25 1.4 -43.6 1.3 -43.9 1.15 -44.1 1.0 -44.25 0.85 -44.35 0.7 -44.4 0.6 -44.45 0.7 -44.5 0.85 -44.55 1.0 -44.55 1.15 -44.6 1.3 -44.65 1.45 -44.7 1.6 -44.75 1.75 -44.8 1.9 -44.8 2.05 -44.7 2.1 -44.55 2.25 -44.5 2.35 -42.15 2.35 -42.1 2.2 -42.1 2.05 -42.1 1.9 -42.15 1.75 -42.25 1.6 -42.3 1.45 -42.3 1.3 -42.4 1.35 -42.65 1.4 M-78.3 0.9 L-78.3 0.65 -78.35 0.8 -78.4 0.95 -78.45 1.1 -78.55 1.25 -78.65 1.4 -78.75 1.55 -78.75 1.6 -78.25 1.6 -78.3 1.5 -78.3 1.35 -78.3 1.2 -78.3 1.05 -78.3 0.9" fill="#5e4713" fill-opacity="0.50980395" fill-rule="evenodd" stroke="none"/>
  </g>
</svg>
