<?xml version="1.0" encoding="UTF-8" standalone="no"?>
<svg xmlns:ffdec="https://www.free-decompiler.com/flash" xmlns:xlink="http://www.w3.org/1999/xlink" ffdec:objectType="shape" height="36.0px" width="36.3px" xmlns="http://www.w3.org/2000/svg">
  <g transform="matrix(1.0, 0.0, 0.0, 1.0, 18.15, 16.75)">
    <path d="M12.4 -15.2 L12.55 -14.95 12.9 -14.6 13.1 -14.3 13.2 -14.2 14.05 -14.25 14.25 -12.8 14.7 -12.4 Q14.75 -10.65 15.1 -8.9 L15.2 -8.85 15.3 -8.75 15.5 -8.55 15.55 -8.5 15.6 -8.4 15.7 -8.3 15.7 -8.2 16.3 -7.45 16.65 -6.65 Q18.35 -4.4 18.15 -1.25 L17.9 0.9 17.7 0.9 17.5 1.2 17.35 1.3 17.3 1.4 17.1 1.7 16.85 1.95 16.6 2.45 16.1 3.2 15.85 3.45 15.8 3.55 15.8 3.75 15.75 3.95 15.7 4.1 15.7 4.2 15.6 4.4 15.45 4.7 15.45 4.75 15.4 4.95 15.3 5.25 15.25 5.6 15.2 5.7 15.2 5.8 15.25 5.9 15.25 6.0 15.25 6.1 15.15 6.25 15.1 6.35 14.65 11.65 14.7 11.75 14.75 11.85 14.8 11.95 14.8 12.0 14.85 12.1 14.6 12.75 14.6 14.05 14.0 14.6 13.75 14.45 13.75 14.65 13.75 14.75 13.7 14.85 13.7 14.95 13.6 15.0 13.5 15.2 Q11.75 16.4 9.65 17.05 L9.0 17.05 8.85 17.2 8.7 17.3 8.6 17.4 8.55 17.5 7.6 18.0 7.1 18.25 6.4 18.55 6.0 18.7 4.9 19.2 3.3 19.0 3.1 18.8 2.7 18.45 2.35 18.25 2.3 18.15 2.15 18.05 1.8 17.85 1.7 17.75 1.6 17.7 1.55 17.6 1.3 17.5 0.95 17.3 0.7 17.0 0.65 16.95 0.6 16.85 -0.35 16.15 -1.15 15.75 -1.55 15.8 -1.85 15.95 -2.2 16.1 -2.4 16.15 -2.5 16.15 -2.8 16.05 -2.9 16.0 -5.5 16.95 -6.95 16.85 -7.1 16.65 -7.25 16.45 -7.4 16.25 -7.5 16.0 -7.5 15.7 -7.6 15.6 -7.8 15.45 -7.85 15.35 -8.65 15.4 Q-12.45 14.3 -15.9 12.5 -17.8 11.4 -17.65 9.15 L-17.55 8.05 -17.95 7.75 -18.05 7.7 -18.1 7.6 -18.15 7.5 -18.15 7.4 -18.15 7.2 -18.15 6.95 -18.15 6.75 -18.0 6.55 -17.5 6.1 -17.3 6.0 -17.3 5.9 -17.35 5.8 -17.4 5.7 -17.4 5.6 -17.4 5.45 -17.4 5.15 -17.4 4.95 -17.3 4.85 -17.25 4.8 -17.05 4.6 -16.85 4.55 -16.8 4.55 -16.65 4.0 -16.7 3.95 -17.2 3.25 -17.25 3.15 -17.25 3.05 -17.25 2.95 -17.25 2.75 -17.2 2.7 -17.2 2.6 -17.15 2.5 -17.05 2.4 -16.7 2.15 -16.2 2.0 -15.15 -3.75 Q-14.45 -8.8 -14.55 -13.8 L-11.55 -15.7 -9.35 -15.65 -8.8 -15.2 -8.7 -15.25 -8.5 -15.25 -8.2 -15.2 -8.05 -15.1 -4.8 -14.95 Q-3.75 -14.9 -2.95 -14.25 L-2.65 -14.05 -2.0 -13.9 -1.45 -14.2 -1.25 -14.25 -0.8 -14.4 -0.6 -14.5 -0.25 -14.6 0.05 -14.55 0.2 -14.45 0.25 -14.4 Q0.85 -14.9 1.05 -15.55 L1.7 -15.55 2.05 -16.05 2.8 -16.0 3.45 -16.15 5.35 -16.75 6.0 -16.6 6.35 -15.85 6.85 -15.55 8.2 -15.25 8.3 -15.3 8.4 -15.2 8.75 -15.15 10.4 -14.65 10.65 -14.65 10.7 -14.65 10.75 -14.75 10.9 -14.95 10.95 -15.05 11.05 -15.15 11.25 -15.3 11.35 -15.4 11.55 -15.45 11.75 -15.5 12.05 -15.45 12.4 -15.2" fill="#000000" fill-rule="evenodd" stroke="none"/>
  </g>
</svg>
