<?xml version="1.0" encoding="UTF-8" standalone="no"?>
<svg xmlns:ffdec="https://www.free-decompiler.com/flash" xmlns:xlink="http://www.w3.org/1999/xlink" ffdec:objectType="shape" height="16.75px" width="36.0px" xmlns="http://www.w3.org/2000/svg">
  <g transform="matrix(1.0, 0.0, 0.0, 1.0, 18.15, 5.05)">
    <path d="M3.0 -4.1 L3.05 -4.05 3.1 -4.05 4.25 -4.0 4.7 -4.1 4.9 -4.15 7.25 -4.25 8.4 -4.35 9.6 -4.5 10.0 -4.5 11.15 -4.6 11.25 -4.65 11.55 -4.7 11.65 -4.75 11.75 -4.75 12.0 -4.85 12.15 -4.9 12.25 -4.95 12.7 -5.0 13.05 -5.05 13.15 -5.05 13.65 -5.05 13.85 -5.0 13.9 -4.95 14.0 -4.9 14.05 -4.85 14.15 -4.85 15.05 -4.7 15.1 -4.65 15.2 -4.6 15.25 -4.6 15.35 -4.55 15.4 -4.5 15.5 -4.45 15.55 -4.45 15.75 -4.35 15.85 -4.35 15.9 -4.3 16.05 -4.25 16.4 -4.0 16.55 -3.85 16.8 -3.55 17.05 -3.45 17.2 -3.3 17.75 -2.65 17.85 -2.45 17.75 -2.1 17.7 -2.1 17.5 -1.8 17.35 -1.7 17.3 -1.6 17.1 -1.3 16.85 -1.05 16.6 -0.55 16.1 0.2 16.1 0.25 16.1 0.3 16.1 0.35 16.15 0.7 16.15 1.25 16.15 1.8 16.15 1.85 16.1 1.9 16.1 2.1 16.05 2.15 16.05 2.2 16.0 2.25 16.0 2.35 15.95 2.4 15.95 2.45 15.9 2.5 15.9 2.55 15.9 2.65 15.85 2.75 15.85 2.85 15.8 2.95 15.8 3.05 15.75 3.2 15.7 3.4 15.65 3.45 15.6 3.55 15.55 3.7 15.45 3.85 15.4 3.95 15.4 4.1 15.35 4.3 15.3 4.5 15.25 4.55 15.25 4.6 15.2 4.65 15.15 4.95 15.15 5.05 15.15 5.8 15.15 5.9 15.2 5.95 15.2 6.3 15.25 6.35 15.25 6.4 15.3 6.4 15.3 6.5 15.35 6.55 15.35 6.7 15.4 6.75 15.4 6.85 15.45 6.85 15.45 6.9 15.55 7.05 16.05 7.65 16.35 8.2 16.4 8.2 16.4 8.3 16.5 8.4 16.55 8.5 16.6 8.55 16.6 8.6 16.65 8.65 16.65 8.9 16.7 8.95 16.75 9.05 16.75 9.2 16.75 9.4 16.75 9.55 16.75 9.6 16.7 9.65 16.7 9.7 16.65 9.7 16.65 9.8 16.6 9.85 16.6 9.95 16.55 10.0 16.5 10.05 16.5 10.1 16.45 10.15 16.45 10.2 16.4 10.25 16.4 10.3 16.25 10.55 15.5 11.0 15.4 11.05 15.35 11.1 15.25 11.1 14.85 11.15 14.25 11.25 12.5 11.25 12.4 11.25 12.25 11.3 12.05 11.35 11.85 11.45 10.95 11.6 8.35 11.7 7.75 11.55 6.55 11.1 6.25 11.0 5.6 10.75 4.5 10.55 4.4 10.5 3.65 10.35 3.4 10.25 -4.2 10.3 -4.85 10.35 -6.55 10.6 -6.65 10.6 -6.7 10.65 -6.8 10.65 -7.05 10.7 -7.15 10.7 -7.2 10.75 -7.25 10.8 -7.35 10.85 -7.45 10.9 -7.55 10.95 -7.7 10.95 -9.95 10.9 -10.2 10.85 -10.4 10.75 -11.95 10.55 -12.1 10.5 -12.2 10.5 -12.25 10.5 -12.3 10.55 -12.35 10.6 -12.45 10.65 -12.5 10.7 -13.45 10.7 -13.7 10.75 -15.05 10.75 -15.5 10.6 -15.7 10.35 -15.8 10.25 -15.9 10.2 -16.0 10.15 -16.05 10.1 -16.1 10.05 -16.2 10.0 -16.25 9.95 -16.35 9.9 -16.45 9.9 -16.55 9.85 -16.65 9.8 -16.95 9.55 -17.4 9.15 -17.5 9.0 -17.5 8.75 -17.55 8.65 -17.55 8.55 -17.55 8.3 -17.6 8.15 -17.6 7.85 -17.6 7.3 -17.6 7.2 -17.65 6.15 -17.55 5.05 -17.95 4.75 -18.05 4.7 -18.1 4.6 -18.15 4.5 -18.15 4.4 -18.15 4.2 -18.15 3.95 -18.15 3.75 -18.0 3.55 -17.7 3.25 -17.7 2.9 -17.7 2.35 -17.7 2.0 -17.7 1.85 -17.7 1.75 -17.65 1.7 -17.65 1.65 -17.6 1.6 -17.6 1.3 -17.55 1.25 -17.55 1.2 -17.5 1.15 -17.5 0.9 -17.45 0.85 -17.45 0.8 -17.35 0.7 -17.35 0.65 -17.3 0.6 -17.3 0.55 -17.25 0.45 -17.2 0.4 -17.15 0.35 -17.2 0.25 -17.25 0.15 -17.25 0.05 -17.25 -0.05 -17.25 -0.25 -17.2 -0.3 -17.2 -0.4 -17.15 -0.5 -17.05 -0.6 -16.7 -0.85 -16.2 -1.0 -15.95 -2.05 -16.0 -2.1 -16.0 -2.15 -16.05 -2.2 -16.05 -2.45 -16.05 -2.55 -16.05 -2.7 -16.0 -2.75 -16.0 -2.8 -15.95 -2.8 -15.9 -2.9 -15.8 -3.0 -15.7 -3.1 -15.65 -3.15 -15.55 -3.2 -15.45 -3.25 -13.3 -4.3 -11.55 -4.65 -9.5 -4.75 -4.5 -4.75 -3.95 -4.6 1.9 -4.65 2.0 -4.6 2.1 -4.5 2.2 -4.45 2.35 -4.4 2.45 -4.35 2.55 -4.3 2.6 -4.3 2.7 -4.25 2.75 -4.2 2.8 -4.2 2.9 -4.15 3.0 -4.1" fill="#000000" fill-rule="evenodd" stroke="none"/>
  </g>
</svg>
