<?xml version="1.0" encoding="UTF-8" standalone="no"?>
<svg xmlns:ffdec="https://www.free-decompiler.com/flash" xmlns:xlink="http://www.w3.org/1999/xlink" ffdec:objectType="shape" height="20.65px" width="13.0px" xmlns="http://www.w3.org/2000/svg">
  <g transform="matrix(1.0, 0.0, 0.0, 1.0, 6.5, 10.35)">
    <path d="M1.0 -8.35 Q4.5 -4.85 4.5 0.05 4.5 4.85 1.15 8.3 M-4.5 -2.85 Q-3.25 -1.6 -3.3 0.05 -3.3 1.65 -4.35 2.8 M-1.75 -5.6 Q0.65 -3.2 0.6 0.05 0.55 3.3 -1.6 5.55" fill="none" stroke="#000000" stroke-linecap="round" stroke-linejoin="round" stroke-width="4.0"/>
    <path d="M1.0 -8.35 Q4.5 -4.85 4.5 0.05 4.5 4.85 1.15 8.3 M-4.5 -2.85 Q-3.25 -1.6 -3.3 0.05 -3.3 1.65 -4.35 2.8 M-1.75 -5.6 Q0.65 -3.2 0.6 0.05 0.55 3.3 -1.6 5.55" fill="none" stroke="#ffcc00" stroke-linecap="round" stroke-linejoin="round" stroke-width="1.0"/>
  </g>
</svg>
