<?xml version="1.0" encoding="UTF-8" standalone="no"?>
<svg xmlns:ffdec="https://www.free-decompiler.com/flash" xmlns:xlink="http://www.w3.org/1999/xlink" ffdec:objectType="shape" height="72.75px" width="41.05px" xmlns="http://www.w3.org/2000/svg">
  <g transform="matrix(1.0, 0.0, 0.0, 1.0, 51.3, -118.75)">
    <path d="M-40.25 121.9 L-40.0 121.95 -39.85 121.75 -39.3 121.45 -38.75 121.3 -38.75 121.25 -31.35 122.25 -24.55 122.45 -20.25 122.25 -19.7 122.45 -19.1 122.75 -18.95 123.1 -18.85 123.3 -18.8 123.5 -18.75 123.7 -18.75 123.9 -18.8 124.05 -18.85 124.25 -18.85 124.3 -18.6 124.6 -15.25 128.95 -15.2 129.15 -15.15 129.3 -15.05 129.5 -14.75 129.85 -14.65 130.15 Q-14.45 130.7 -14.4 131.3 -14.15 131.3 -13.95 131.45 L-13.95 131.55 -13.8 131.75 -13.7 131.95 -14.1 132.5 Q-15.0 133.85 -15.55 135.45 L-16.25 136.35 -17.4 137.7 Q-19.55 140.0 -21.35 142.55 L-21.35 142.65 -22.1 143.6 -23.8 145.55 -25.2 147.3 -25.45 147.5 -25.55 147.55 -26.05 148.35 Q-27.65 149.4 -29.3 150.25 -30.5 149.75 -31.95 149.8 L-33.25 149.8 -33.3 149.5 -33.3 149.3 -33.8 148.85 -34.25 147.95 Q-36.2 144.0 -39.6 141.25 L-40.3 140.25 -40.85 139.85 -41.35 139.3 -41.45 139.2 Q-40.9 138.1 -41.8 137.05 -43.7 134.8 -46.25 133.5 L-46.25 133.55 -46.4 133.6 -46.6 132.95 -47.1 132.05 -47.2 131.4 -47.25 131.05 -47.25 130.8 -47.1 129.55 -43.05 124.55 Q-42.0 123.3 -40.7 122.65 L-40.5 122.15 -40.5 122.05 -40.35 122.05 -40.25 121.9 M-23.45 125.4 L-37.25 124.95 -38.35 124.7 -38.45 124.75 Q-39.85 126.45 -40.85 128.4 -41.55 129.7 -42.7 130.5 L-42.7 130.65 -42.6 131.0 -42.55 131.15 -33.5 142.1 Q-31.35 144.65 -30.9 147.65 L-30.65 147.85 -30.05 148.2 Q-29.45 147.05 -28.5 146.15 -27.85 145.6 -27.6 144.8 L-27.5 144.65 -27.3 144.45 -26.85 144.05 -24.45 139.2 Q-23.45 137.15 -21.7 135.8 L-21.45 135.45 -20.8 134.7 -20.6 134.5 -19.8 134.15 -19.25 134.0 -18.45 134.2 -17.95 134.45 -17.75 134.25 -16.95 133.65 -17.7 133.45 -18.15 132.7 Q-18.35 132.0 -18.05 131.4 L-20.5 127.65 -21.9 125.45 -23.45 125.4 M-47.6 167.8 L-47.55 167.75 -47.5 167.85 -47.5 167.9 -47.6 167.8 M-39.6 162.0 L-39.2 161.3 -35.6 161.65 -39.6 162.0 M-17.25 167.4 L-17.25 167.55 -17.35 167.75 -17.4 167.85 -17.55 167.9 -17.85 168.0 -18.1 168.25 -18.4 167.95 -18.55 167.75 -18.7 167.4 -18.8 166.8 -18.6 166.05 -18.5 165.9 -18.3 165.7 -18.25 165.7 -17.25 167.4 M-30.5 183.8 L-30.15 184.05 -30.45 184.6 -30.55 184.55 -30.55 184.2 -30.55 184.1 -30.5 183.8 M-19.7 163.7 L-20.7 162.7 -21.1 162.5 -21.3 162.3 -21.5 162.1 -21.6 161.95 -21.7 161.75 -21.75 161.55 -21.5 161.5 -20.0 163.35 -19.7 163.7" fill="#533f11" fill-rule="evenodd" stroke="none"/>
    <path d="M-14.75 129.85 L-15.05 129.5 -15.15 129.3 -15.2 129.15 -15.25 128.95 -18.6 124.6 -18.85 124.3 -18.85 124.25 -18.8 124.05 -18.75 123.9 -18.75 123.7 -18.8 123.5 -18.85 123.3 -18.95 123.1 -19.1 122.75 -19.7 122.45 -20.25 122.25 -24.55 122.45 -31.35 122.25 -38.75 121.25 -38.75 121.3 -39.3 121.45 -39.85 121.75 -40.0 121.95 -40.25 121.9 -40.55 121.8 -40.5 122.05 -40.5 122.15 -40.7 122.65 Q-42.0 123.3 -43.05 124.55 L-47.1 129.55 -47.25 130.8 -47.3 130.8 -47.7 130.95 -47.7 131.35 -47.7 131.5 -47.1 132.05 -46.6 132.95 -46.4 133.6 -46.25 133.55 -46.25 133.5 Q-43.7 134.8 -41.8 137.05 -40.9 138.1 -41.45 139.2 L-41.35 139.3 -41.1 139.75 -40.85 139.85 -40.3 140.25 -39.6 141.25 Q-36.2 144.0 -34.25 147.95 L-33.8 148.85 -33.35 149.8 -33.25 149.8 -31.95 149.8 Q-30.5 149.75 -29.3 150.25 -27.65 149.4 -26.05 148.35 L-24.6 147.25 Q-23.65 145.65 -22.35 144.25 L-21.35 142.65 -21.35 142.55 Q-19.55 140.0 -17.4 137.7 L-16.25 136.35 -15.55 135.45 Q-15.0 133.85 -14.1 132.5 L-13.7 131.95 -13.8 131.75 -13.95 131.55 -13.95 131.45 -14.1 130.8 -14.75 129.85 M-40.0 118.75 L-25.75 119.2 -21.65 119.65 -21.3 119.45 -20.75 119.25 Q-15.15 122.15 -11.9 127.85 -11.05 129.35 -10.75 130.9 L-10.6 131.0 Q-9.8 132.5 -10.8 133.95 L-12.35 135.7 Q-14.45 139.15 -17.0 142.45 L-21.9 148.55 -24.0 150.9 Q-25.65 152.1 -27.55 152.8 L-28.25 153.0 -28.65 152.9 Q-30.5 153.9 -32.85 153.35 L-33.05 153.3 -33.75 153.5 -34.95 153.2 -36.4 150.95 -37.3 149.05 -37.5 148.85 -37.6 148.7 -37.7 148.5 -37.85 148.1 -38.2 147.55 -38.2 147.4 -38.25 147.2 -44.9 140.3 -47.6 137.25 Q-48.5 136.85 -48.85 135.95 L-49.45 134.8 -49.5 134.45 -49.9 133.7 -50.05 133.5 -50.15 133.25 -50.2 133.2 Q-51.35 130.95 -50.4 128.5 -49.6 126.55 -47.95 125.3 -47.1 123.65 -45.4 122.85 L-44.7 122.55 -43.85 121.8 -43.5 121.2 -43.35 121.0 -42.8 120.7 -42.25 120.5 -41.5 120.7 -41.5 120.55 -41.5 120.4 -41.5 120.2 -41.5 120.0 -41.45 119.8 -41.1 119.25 -40.9 119.1 -40.55 118.9 -40.0 118.8 -40.0 118.75 M-14.25 167.85 L-13.55 168.45 Q-12.9 169.05 -12.2 169.0 -12.6 170.35 -13.5 171.5 -14.4 172.65 -15.55 173.45 L-19.55 178.95 -21.1 181.5 -21.4 181.7 -21.9 182.1 -22.1 182.25 Q-24.3 186.0 -27.45 188.9 -28.65 190.0 -30.25 190.5 L-30.6 190.5 -30.8 190.9 -30.95 191.05 -31.2 191.25 -31.45 191.35 -32.0 191.5 -32.55 191.35 -32.95 191.2 -39.65 183.45 Q-41.4 181.4 -42.3 178.8 L-42.5 178.6 -42.6 178.45 -42.7 178.25 -42.75 178.05 -42.8 177.9 Q-44.9 174.95 -47.25 172.15 -48.65 170.4 -50.55 169.25 L-50.75 168.7 -50.7 168.0 -50.45 168.7 -49.5 168.95 Q-48.75 169.05 -48.2 168.55 L-47.95 168.2 -47.85 168.0 -47.7 167.8 -47.6 167.8 -47.5 167.9 -47.35 168.6 -46.95 169.2 -46.1 169.6 -45.45 169.95 -45.35 170.1 -45.1 170.7 -43.9 172.2 -42.5 174.45 -42.45 174.65 -42.4 174.8 -42.3 175.0 -41.65 175.75 -40.75 176.5 -39.05 178.9 -38.85 179.1 -37.95 180.6 -37.55 180.6 -35.05 183.65 -35.0 183.8 -34.95 184.0 -34.85 184.2 -34.35 185.0 Q-33.2 187.25 -31.25 187.3 L-30.95 187.7 -30.55 187.85 -30.0 188.0 -29.65 187.9 -29.2 187.75 -28.95 187.55 -27.75 186.05 -26.5 183.65 -24.75 181.5 -20.35 176.5 -19.4 175.15 Q-18.55 174.25 -18.1 173.15 L-17.85 172.95 -17.6 172.75 -17.4 172.4 -17.2 172.0 -17.05 171.8 -15.85 170.5 -15.75 170.5 -14.9 170.15 -14.6 170.0 Q-14.2 168.9 -14.25 167.85 M-11.05 166.4 L-11.15 166.3 -12.1 165.2 -12.25 165.0 -12.35 164.55 -11.95 164.7 -11.35 165.0 -11.25 165.2 -11.1 165.55 -11.0 166.15 -11.05 166.4" fill="#533f11" fill-opacity="0.5019608" fill-rule="evenodd" stroke="none"/>
    <path d="M-47.55 167.75 L-47.6 167.7 Q-47.9 164.75 -45.25 162.8 -43.5 161.45 -42.35 159.55 L-41.5 158.7 -41.5 158.5 -41.45 158.3 -41.35 158.15 -41.25 157.95 -41.1 157.75 -40.9 157.6 -40.55 157.4 -40.0 157.3 -40.0 157.25 -29.7 158.55 -28.4 158.7 Q-33.8 158.9 -39.25 158.5 L-39.25 158.55 -39.6 158.6 -39.8 158.65 -40.25 158.5 -40.6 158.55 -40.8 158.65 -41.1 158.75 -42.55 160.25 -45.1 163.8 -45.55 164.2 -45.85 164.6 -45.95 164.75 Q-47.0 165.1 -47.35 166.1 -47.75 167.15 -46.95 167.95 L-46.0 168.15 Q-45.05 168.2 -44.25 167.65 L-43.7 166.85 -43.1 167.55 -42.65 168.4 -42.45 168.65 Q-39.0 171.6 -36.5 175.65 L-33.0 179.6 Q-31.5 181.25 -30.85 183.15 L-30.5 183.65 -30.5 183.8 -30.55 184.1 -30.55 184.2 -30.55 184.55 -30.45 184.6 -30.15 184.05 -29.95 183.2 Q-28.6 180.95 -26.8 179.1 L-25.25 177.55 -25.2 177.35 -25.2 177.2 -22.4 174.0 -21.1 172.5 Q-20.85 171.35 -20.1 170.5 L-18.85 169.3 -18.65 168.95 -18.1 168.25 -17.85 168.0 -17.55 167.9 -17.4 167.85 Q-17.75 168.4 -17.75 169.05 L-17.2 170.2 -16.8 170.35 -16.25 170.5 Q-14.75 170.15 -14.4 168.6 -14.2 167.5 -14.55 166.5 L-14.8 165.8 Q-14.3 166.8 -14.25 167.85 -14.2 168.9 -14.6 170.0 L-14.9 170.15 -15.75 170.5 -15.85 170.5 -17.05 171.8 -17.2 172.0 -17.4 172.4 -17.6 172.75 -17.85 172.95 -18.1 173.15 Q-18.55 174.25 -19.4 175.15 L-20.35 176.5 -24.75 181.5 -26.5 183.65 -27.75 186.05 -28.95 187.55 -29.2 187.75 -29.65 187.9 -30.0 188.0 -30.55 187.85 -30.95 187.7 -31.25 187.3 Q-33.2 187.25 -34.35 185.0 L-34.85 184.2 -34.95 184.0 -35.0 183.8 -35.05 183.65 -37.55 180.6 -38.85 179.1 -39.05 178.9 -40.75 176.5 -41.65 175.75 -42.3 175.0 -42.4 174.8 -42.45 174.65 -42.5 174.45 -43.9 172.2 -45.1 170.7 -45.35 170.1 -45.45 169.95 -46.1 169.6 -46.95 169.2 -47.35 168.6 -47.5 167.9 -47.5 167.85 -47.55 167.75 M-23.85 158.5 L-21.5 158.0 -21.0 158.0 Q-20.1 158.1 -19.5 158.85 L-19.15 159.4 -21.0 158.0 -21.0 158.05 -21.75 158.25 -22.0 158.4 -22.1 158.5 -23.85 158.5 M-30.45 161.95 L-28.5 162.0 -21.5 161.35 -19.85 162.95 Q-18.0 164.8 -17.25 167.2 L-17.25 167.4 -18.25 165.7 -19.7 163.7 -20.0 163.35 -21.5 161.5 -21.75 161.55 -30.45 161.95" fill="#33270a" fill-opacity="0.50980395" fill-rule="evenodd" stroke="none"/>
    <path d="M-28.4 158.7 L-29.7 158.55 -40.0 157.25 -40.0 157.3 -40.55 157.4 -40.9 157.6 -41.1 157.75 -41.25 157.95 -41.35 158.15 -41.45 158.3 -41.5 158.5 -41.5 158.7 -42.35 159.55 Q-43.5 161.45 -45.25 162.8 -47.9 164.75 -47.6 167.7 L-47.55 167.75 -47.6 167.8 -47.7 167.8 -47.85 168.0 -47.95 168.2 -48.2 168.55 Q-48.75 169.05 -49.5 168.95 L-50.45 168.7 -50.7 168.0 -50.75 166.85 -51.0 166.55 -51.3 165.8 Q-51.35 165.2 -51.0 164.7 L-50.7 164.3 -49.6 162.65 -49.05 161.9 -49.0 161.7 -48.95 161.5 -48.85 161.3 -47.1 159.15 Q-42.6 153.5 -34.8 154.55 L-34.25 154.5 Q-29.35 154.2 -24.85 155.5 L-21.2 156.2 Q-19.15 156.4 -17.45 157.45 L-17.3 157.65 -17.2 157.8 -17.1 158.0 -17.05 158.35 Q-15.8 159.75 -14.95 161.45 L-14.4 161.85 -13.2 163.1 -12.6 164.05 -12.5 164.25 -12.35 164.55 -12.25 165.0 -12.1 165.2 -11.15 166.3 -11.05 166.4 Q-10.75 166.75 -10.75 167.25 L-10.75 167.6 -10.8 167.8 -11.2 168.55 Q-11.7 168.95 -12.2 169.0 -12.9 169.05 -13.55 168.45 L-14.25 167.85 Q-14.3 166.8 -14.8 165.8 -16.2 162.0 -19.15 159.4 L-19.5 158.85 Q-20.1 158.1 -21.0 158.0 L-21.5 158.0 -23.85 158.5 -26.1 158.55 -28.4 158.7" fill="#533f11" fill-opacity="0.50980395" fill-rule="evenodd" stroke="none"/>
    <path d="M-28.4 158.7 L-26.1 158.55 -23.85 158.5 -22.1 158.5 -22.0 158.4 -21.75 158.25 -21.0 158.05 -21.0 158.0 -19.15 159.4 Q-16.2 162.0 -14.8 165.8 L-14.55 166.5 Q-14.2 167.5 -14.4 168.6 -14.75 170.15 -16.25 170.5 L-16.8 170.35 -17.2 170.2 -17.75 169.05 Q-17.75 168.4 -17.4 167.85 L-17.35 167.75 -17.25 167.55 -17.25 167.4 -17.25 167.2 Q-18.0 164.8 -19.85 162.95 L-21.5 161.35 -28.5 162.0 -30.45 161.95 -35.6 161.65 -39.2 161.3 -39.6 162.0 -39.95 162.55 Q-41.0 163.15 -41.55 164.25 L-42.45 165.2 -42.5 165.35 -42.75 165.75 -43.0 166.15 Q-43.4 166.3 -43.65 166.7 L-43.7 166.85 -44.25 167.65 Q-45.05 168.2 -46.0 168.15 L-46.95 167.95 Q-47.75 167.15 -47.35 166.1 -47.0 165.1 -45.95 164.75 L-45.85 164.6 -45.55 164.2 -45.1 163.8 -42.55 160.25 -41.1 158.75 -40.8 158.65 -40.6 158.55 -40.25 158.5 -39.8 158.65 -39.6 158.6 -39.25 158.55 -39.25 158.5 Q-33.8 158.9 -28.4 158.7" fill="#33270a" fill-rule="evenodd" stroke="none"/>
  </g>
</svg>
