<?xml version="1.0" encoding="UTF-8" standalone="no"?>
<svg xmlns:ffdec="https://www.free-decompiler.com/flash" xmlns:xlink="http://www.w3.org/1999/xlink" ffdec:objectType="shape" height="31.0px" width="31.0px" xmlns="http://www.w3.org/2000/svg">
  <g transform="matrix(1.0, 0.0, 0.0, 1.0, 15.5, 15.5)">
    <path d="M10.6 -10.6 Q15.0 -6.2 15.0 0.0 15.0 6.25 10.6 10.6 6.25 15.0 0.0 15.0 -6.25 15.0 -10.65 10.6 -15.0 6.25 -15.0 0.0 -15.0 -6.2 -10.65 -10.6 -6.25 -15.0 0.0 -15.0 6.25 -15.0 10.6 -10.6" fill="#999999" fill-rule="evenodd" stroke="none"/>
    <path d="M10.6 -10.6 Q15.0 -6.2 15.0 0.0 15.0 6.25 10.6 10.6 6.25 15.0 0.0 15.0 -6.25 15.0 -10.65 10.6 -15.0 6.25 -15.0 0.0 -15.0 -6.2 -10.65 -10.6 -6.25 -15.0 0.0 -15.0 6.25 -15.0 10.6 -10.6 Z" fill="none" stroke="#990000" stroke-linecap="round" stroke-linejoin="round" stroke-width="1.0"/>
  </g>
</svg>
