<?xml version="1.0" encoding="UTF-8" standalone="no"?>
<svg xmlns:ffdec="https://www.free-decompiler.com/flash" xmlns:xlink="http://www.w3.org/1999/xlink" ffdec:objectType="shape" height="82.1px" width="24.45px" xmlns="http://www.w3.org/2000/svg">
  <g transform="matrix(1.0, 0.0, 0.0, 1.0, 11.05, 42.75)">
    <path d="M8.0 12.2 Q8.45 12.65 8.6 13.65 L8.7 15.15 7.95 20.2 7.4 22.65 7.0 25.05 7.35 26.55 7.15 29.35 Q7.15 29.9 7.5 31.1 L7.8 32.95 7.25 36.7 Q6.9 37.8 6.3 37.8 5.9 37.8 5.65 37.35 L5.55 37.0 5.45 36.85 5.3 37.05 Q5.0 37.3 4.55 37.35 L4.35 37.75 Q4.15 38.1 3.8 38.1 L2.65 37.75 2.4 37.6 Q1.55 37.0 1.55 36.3 L0.9 36.85 0.25 37.05 Q-0.45 37.05 -0.65 36.5 -1.15 37.05 -1.65 37.05 -2.7 37.05 -2.65 35.9 -0.55 31.8 0.45 29.35 L0.85 28.45 0.85 28.4 0.7 27.8 1.75 24.85 3.15 21.2 4.25 18.0 Q4.45 16.85 4.95 16.4 L5.35 15.35 5.85 11.0 5.85 10.75 5.6 9.75 5.3 8.5 5.0 8.55 Q3.9 8.55 4.1 7.15 L4.4 4.4 4.0 3.15 Q4.0 2.4 4.35 0.65 L4.5 0.0 4.65 0.3 Q5.35 1.5 5.55 1.5 6.45 1.5 6.95 -3.4 L6.75 -3.9 6.45 -4.7 6.95 -8.5 Q6.95 -9.3 6.4 -9.65 5.9 -10.05 5.45 -9.1 L4.95 -10.4 5.5 -13.5 6.0 -17.5 5.8 -19.75 5.55 -22.2 5.75 -23.65 Q6.1 -24.9 6.85 -24.9 7.65 -24.9 7.65 -23.85 L7.45 -22.95 7.25 -22.1 Q7.25 -20.85 7.8 -19.3 L8.3 -17.7 Q7.55 -15.3 7.55 -13.45 L7.25 -7.85 6.75 -3.9 Q7.6 -3.4 7.6 -2.25 L7.4 -0.5 7.65 0.15 7.9 1.0 7.65 6.95 7.9 8.85 7.8 10.75 7.7 11.95 8.0 12.2 M-7.4 18.3 Q-8.15 18.15 -8.0 16.9 L-7.35 13.35 -7.2 12.45 -7.4 11.45 -7.25 10.75 -7.05 9.4 -7.65 8.25 -7.7 8.1 -7.65 7.9 -7.15 5.0 -7.65 4.6 -8.1 3.75 -7.35 -0.15 -7.2 -0.95 -7.0 -3.35 Q-6.45 -5.75 -5.15 -2.85 L-5.4 -1.45 Q-5.95 -1.0 -6.3 0.2 L-6.75 1.9 -7.05 3.65 -7.0 4.4 -6.25 5.0 -6.4 6.2 Q-6.3 7.05 -5.4 7.05 L-5.1 6.95 -5.05 7.4 -5.25 9.3 -5.4 10.75 -5.5 12.25 Q-6.25 18.3 -7.15 18.3 L-7.4 18.3 M5.05 -6.95 L5.0 -6.15 4.35 -3.15 4.3 -3.5 Q4.3 -4.3 4.9 -6.5 L5.05 -6.95 M6.05 4.7 L5.9 6.1 5.95 6.25 6.1 4.7 6.05 4.7 M2.0 5.5 L0.7 9.4 0.25 10.75 -1.25 15.0 Q0.0 15.0 0.0 16.2 -0.25 20.0 -1.25 20.0 L-1.95 19.55 -2.8 21.45 Q-3.45 22.8 -4.0 22.8 -4.95 22.8 -5.3 21.2 -5.3 20.35 -3.7 16.15 L-2.2 11.8 -2.35 11.25 -2.2 10.75 -1.7 9.6 -0.65 6.95 Q-0.2 5.8 0.8 4.8 2.0 3.55 2.0 5.5 M3.85 25.9 Q3.0 24.95 2.2 27.6 L1.65 29.8 1.15 32.5 Q1.1 33.8 2.0 33.8 2.8 33.8 3.05 32.7 L3.3 31.05 Q3.4 30.65 4.05 29.65 L4.6 28.2 Q4.6 26.7 3.85 25.9" fill="#dfb300" fill-rule="evenodd" stroke="none"/>
    <path d="M-5.55 -38.8 Q-5.2 -38.75 -5.0 -38.3 L-4.85 -37.9 -4.4 -38.0 -4.3 -38.0 -3.7 -38.35 Q-2.95 -38.5 -2.8 -37.85 L-2.55 -37.9 -1.9 -37.6 Q-1.15 -37.6 -0.75 -38.7 -0.35 -39.75 0.3 -39.75 0.9 -39.75 1.05 -39.0 L1.0 -38.1 0.95 -38.05 1.55 -38.25 1.6 -38.25 Q3.4 -40.55 4.45 -38.75 5.15 -39.4 5.4 -39.4 6.45 -39.4 7.9 -36.35 L7.9 -36.25 6.95 -34.2 6.95 -34.05 5.6 -31.35 3.5 -27.45 2.85 -25.75 Q2.4 -24.75 1.8 -24.25 L0.95 -23.9 0.35 -23.35 Q-0.1 -22.0 -0.75 -22.0 -1.0 -22.0 -1.4 -22.3 L-2.7 -17.1 Q-3.7 -13.25 -4.6 -13.25 L-5.0 -13.3 -5.25 -12.6 Q-6.0 -10.2 -6.35 -10.2 -7.45 -10.2 -7.5 -11.85 L-7.5 -11.95 Q-7.45 -13.9 -6.15 -15.55 -6.65 -16.05 -6.65 -16.85 L-6.4 -18.5 -7.5 -22.3 -6.95 -26.1 -6.95 -27.5 -6.95 -28.15 -7.0 -28.15 -7.6 -28.35 -7.9 -29.45 -7.5 -31.25 -7.2 -32.2 -7.45 -32.9 -7.5 -33.25 -7.15 -35.75 -6.35 -38.3 -5.65 -38.8 -5.55 -38.8 M0.35 -27.0 Q0.95 -28.15 0.95 -29.05 0.95 -30.35 0.1 -30.35 -1.7 -30.35 -4.55 -19.45 -4.7 -18.25 -3.7 -18.25 -3.4 -18.25 -1.85 -21.5 -0.3 -24.75 -0.3 -25.2 L0.35 -27.0 M4.85 -33.65 Q4.85 -36.3 3.25 -34.2 1.65 -32.1 1.65 -29.9 1.6 -28.65 2.5 -28.65 3.75 -28.65 4.85 -33.65 M3.65 -21.75 L2.9 -18.35 1.7 -14.1 -0.2 -9.45 Q-1.45 -6.6 -1.9 -6.6 -2.75 -6.6 -2.75 -7.8 L-2.7 -8.25 Q-2.45 -8.25 -1.0 -11.1 L0.4 -14.1 0.75 -14.75 1.05 -15.7 Q1.05 -17.3 -0.15 -16.85 -1.4 -16.45 -2.15 -14.2 L-3.0 -11.95 -3.05 -12.15 Q-3.05 -12.9 -2.25 -15.2 L-1.3 -17.85 -0.6 -18.3 0.05 -18.8 0.1 -19.45 Q0.05 -19.95 0.15 -20.15 0.6 -21.7 1.3 -21.0 L1.6 -20.65 Q1.95 -22.7 2.75 -22.85 3.65 -23.0 3.65 -21.75 M-0.9 -31.9 Q-0.2 -33.05 -0.2 -33.35 -0.2 -35.4 -1.45 -34.3 -2.75 -33.25 -2.75 -31.75 -2.75 -30.65 -1.9 -30.65 -1.6 -30.65 -0.9 -31.9" fill="#ffdd55" fill-rule="evenodd" stroke="none"/>
    <path d="M7.9 -36.35 Q6.45 -39.4 5.4 -39.4 5.15 -39.4 4.45 -38.75 3.4 -40.55 1.6 -38.25 L1.55 -38.25 0.95 -38.05 1.0 -38.1 1.05 -39.0 Q0.9 -39.75 0.3 -39.75 -0.35 -39.75 -0.75 -38.7 -1.15 -37.6 -1.9 -37.6 L-2.55 -37.9 -2.8 -37.85 Q-2.95 -38.5 -3.7 -38.35 L-4.3 -38.0 -4.4 -38.0 -4.85 -37.9 -5.0 -38.3 Q-5.2 -38.75 -5.55 -38.8 -3.6 -39.7 0.45 -39.8 8.15 -40.05 8.15 -37.3 L7.9 -36.35 M-6.35 -38.3 L-7.15 -35.75 -7.3 -36.35 Q-7.3 -37.5 -6.35 -38.3 M-7.45 -32.9 L-7.2 -32.2 -7.5 -31.25 -7.5 -32.3 -7.45 -32.9 M-7.6 -28.35 L-7.0 -28.15 -6.95 -28.15 -6.95 -27.5 -6.95 -26.1 -7.5 -22.3 -6.4 -18.5 -6.65 -16.85 Q-6.65 -16.05 -6.15 -15.55 -7.45 -13.9 -7.5 -11.95 L-7.65 -17.25 -7.8 -22.65 -7.65 -27.45 -7.6 -28.35 M-7.5 -11.85 Q-7.45 -10.2 -6.35 -10.2 -6.0 -10.2 -5.25 -12.6 L-5.0 -13.3 -4.6 -13.25 Q-3.7 -13.25 -2.7 -17.1 L-1.4 -22.3 Q-1.0 -22.0 -0.75 -22.0 -0.1 -22.0 0.35 -23.35 L0.95 -23.9 1.8 -24.25 Q2.4 -24.75 2.85 -25.75 L3.5 -27.45 5.6 -31.35 6.95 -34.05 6.95 -34.2 7.9 -36.25 8.1 -34.45 8.3 -17.95 8.3 -17.7 7.5 -10.15 7.4 -9.45 Q7.75 -9.05 7.8 -7.6 L8.0 -3.7 8.0 4.05 8.05 10.75 8.0 12.2 7.7 11.95 7.8 10.75 7.9 8.85 7.65 6.95 7.9 1.0 7.65 0.15 7.4 -0.5 7.6 -2.25 Q7.6 -3.4 6.75 -3.9 L7.25 -7.85 7.55 -13.45 Q7.55 -15.3 8.3 -17.7 L7.8 -19.3 Q7.25 -20.85 7.25 -22.1 L7.45 -22.95 7.65 -23.85 Q7.65 -24.9 6.85 -24.9 6.1 -24.9 5.75 -23.65 L5.55 -22.2 5.8 -19.75 6.0 -17.5 5.5 -13.5 4.95 -10.4 5.45 -9.1 Q5.9 -10.05 6.4 -9.65 6.95 -9.3 6.95 -8.5 L6.45 -4.7 6.75 -3.9 6.95 -3.4 Q6.45 1.5 5.55 1.5 5.35 1.5 4.65 0.3 L4.5 0.0 4.35 0.65 Q4.0 2.4 4.0 3.15 L4.4 4.4 4.1 7.15 Q3.9 8.55 5.0 8.55 L5.3 8.5 5.6 9.75 5.85 10.75 5.85 11.0 5.35 15.35 4.95 16.4 Q4.45 16.85 4.25 18.0 L3.15 21.2 1.75 24.85 0.7 27.8 0.85 28.4 0.85 28.45 0.45 29.35 Q-0.55 31.8 -2.65 35.9 -2.7 37.05 -1.65 37.05 -1.15 37.05 -0.65 36.5 -0.45 37.05 0.25 37.05 L0.9 36.85 1.55 36.3 Q1.55 37.0 2.4 37.6 L2.65 37.75 1.85 37.8 0.2 37.6 -2.15 38.25 -4.0 38.9 Q-5.0 38.9 -4.95 37.6 -7.3 37.55 -7.3 35.6 -7.3 34.7 -6.8 34.45 L-7.4 29.8 -7.7 23.3 -7.4 18.3 -7.15 18.3 Q-6.25 18.3 -5.5 12.25 L-5.4 10.75 -5.25 9.3 -5.05 7.4 -5.1 6.95 -5.4 7.05 Q-6.3 7.05 -6.4 6.2 L-6.25 5.0 -7.0 4.4 -7.05 3.65 -6.75 1.9 -6.3 0.2 Q-5.95 -1.0 -5.4 -1.45 L-5.15 -2.85 Q-6.45 -5.75 -7.0 -3.35 L-7.2 -0.95 -7.35 -0.15 -7.2 -2.7 -7.3 -4.05 -7.5 -11.1 -7.5 -11.85 M8.6 13.65 L8.8 14.0 9.05 16.4 8.5 23.0 8.25 26.85 7.95 28.65 8.0 31.35 Q8.0 35.85 7.6 36.4 L7.25 36.7 7.8 32.95 7.5 31.1 Q7.15 29.9 7.15 29.35 L7.35 26.55 7.0 25.05 7.4 22.65 7.95 20.2 8.7 15.15 8.6 13.65 M5.55 37.0 L5.3 37.05 5.45 36.85 5.55 37.0 M-7.35 13.35 L-7.5 11.3 -7.55 10.75 -7.65 8.25 -7.05 9.4 -7.25 10.75 -7.4 11.45 -7.2 12.45 -7.35 13.35 M-7.65 7.9 L-7.7 7.05 -7.65 4.6 -7.15 5.0 -7.65 7.9 M4.85 -33.65 Q3.75 -28.65 2.5 -28.65 1.6 -28.65 1.65 -29.9 1.65 -32.1 3.25 -34.2 4.85 -36.3 4.85 -33.65 M0.35 -27.0 L-0.3 -25.2 Q-0.3 -24.75 -1.85 -21.5 -3.4 -18.25 -3.7 -18.25 -4.7 -18.25 -4.55 -19.45 -1.7 -30.35 0.1 -30.35 0.95 -30.35 0.95 -29.05 0.95 -28.15 0.35 -27.0 M3.65 -21.75 Q3.65 -23.0 2.75 -22.85 1.95 -22.7 1.6 -20.65 L1.3 -21.0 Q0.6 -21.7 0.15 -20.15 0.05 -19.95 0.1 -19.45 L0.05 -18.8 -0.6 -18.3 -1.3 -17.85 -2.25 -15.2 Q-3.05 -12.9 -3.05 -12.15 L-3.0 -11.95 -2.15 -14.2 Q-1.4 -16.45 -0.15 -16.85 1.05 -17.3 1.05 -15.7 L0.75 -14.75 0.4 -14.1 -1.0 -11.1 Q-2.45 -8.25 -2.7 -8.25 L-2.75 -7.8 Q-2.75 -6.6 -1.9 -6.6 -1.45 -6.6 -0.2 -9.45 L1.7 -14.1 2.9 -18.35 3.65 -21.75 M2.0 5.5 Q2.0 3.55 0.8 4.8 -0.2 5.8 -0.65 6.95 L-1.7 9.6 -2.2 10.75 -2.35 11.25 -2.2 11.8 -3.7 16.15 Q-5.3 20.35 -5.3 21.2 -4.95 22.8 -4.0 22.8 -3.45 22.8 -2.8 21.45 L-1.95 19.55 -1.25 20.0 Q-0.25 20.0 0.0 16.2 0.0 15.0 -1.25 15.0 L0.25 10.75 0.7 9.4 2.0 5.5 M6.05 4.7 L6.1 4.7 5.95 6.25 5.9 6.1 6.05 4.7 M5.05 -6.95 L4.9 -6.5 Q4.3 -4.3 4.3 -3.5 L4.35 -3.15 5.0 -6.15 5.05 -6.95 M3.85 25.9 Q4.6 26.7 4.6 28.2 L4.05 29.65 Q3.4 30.65 3.3 31.05 L3.05 32.7 Q2.8 33.8 2.0 33.8 1.1 33.8 1.15 32.5 L1.65 29.8 2.2 27.6 Q3.0 24.95 3.85 25.9 M-0.9 -31.9 Q-1.6 -30.65 -1.9 -30.65 -2.75 -30.65 -2.75 -31.75 -2.75 -33.25 -1.45 -34.3 -0.2 -35.4 -0.2 -33.35 -0.2 -33.05 -0.9 -31.9" fill="#ffcc00" fill-rule="evenodd" stroke="none"/>
    <path d="M2.7 -32.15 L-2.45 -32.55 -2.65 -32.6 -2.65 -31.05 -2.55 -15.75 Q-2.55 -6.15 -2.85 2.5 L-3.0 10.75 -3.1 28.05 -3.1 31.0 Q-1.85 31.75 -1.05 31.75 L0.7 31.5 2.6 31.3 3.7 31.45 3.8 26.6 3.4 14.75 3.35 10.75 3.25 8.8 3.05 3.0 3.35 -7.35 Q3.2 -7.85 3.2 -8.75 L3.45 -13.65 3.6 -17.15 3.65 -21.25 3.65 -21.55 3.75 -25.75 3.75 -30.6 3.6 -32.2 2.7 -32.15 M3.3 -33.3 Q3.8 -32.95 4.15 -32.95 L4.25 -31.75 4.0 -26.4 4.15 -26.0 4.25 -21.0 4.1 -13.85 3.85 -10.2 3.75 -8.45 3.75 -8.2 3.65 4.95 3.95 10.75 3.95 11.25 4.15 18.25 4.0 22.15 Q4.0 23.85 4.15 24.8 L4.25 26.85 4.1 29.65 Q4.15 31.45 4.35 32.45 L1.7 32.1 -0.85 32.25 -2.3 32.45 -3.1 32.45 -3.25 31.95 -3.25 31.65 -3.5 25.55 -3.3 19.95 -3.45 10.75 -3.5 5.1 -3.4 -13.35 -2.85 -31.75 -2.85 -33.2 -1.65 -32.95 0.3 -33.3 2.35 -33.65 Q2.75 -33.65 3.3 -33.3 M6.3 -22.65 L6.3 -19.8 6.15 -13.25 6.1 -18.85 6.3 -22.65" fill="#776000" fill-rule="evenodd" stroke="none"/>
    <path d="M5.35 -33.85 L5.6 -31.85 5.3 -25.3 5.1 -22.65 4.95 -18.85 4.95 0.4 Q4.9 6.35 5.1 9.4 L5.15 10.75 5.45 14.8 5.55 18.2 5.35 22.05 5.5 24.65 5.6 26.95 5.45 29.5 5.7 32.25 5.55 32.9 Q5.35 33.35 5.0 33.35 L4.95 33.35 4.95 33.5 4.75 34.25 3.4 34.6 1.6 34.35 -1.2 34.6 -2.3 34.75 -3.75 34.6 Q-4.05 35.15 -4.25 35.15 -5.15 35.15 -5.1 33.6 -5.1 32.5 -4.6 32.05 L-4.75 31.1 -4.75 29.2 -4.65 18.95 -4.85 10.75 -4.85 9.9 -4.75 1.25 -4.75 -7.3 -4.5 -22.7 -4.2 -30.4 -4.3 -32.45 Q-4.4 -33.75 -4.05 -34.3 L-3.45 -34.9 -3.3 -35.15 -2.75 -35.6 -2.35 -35.4 -2.25 -35.25 0.25 -35.55 2.45 -35.9 Q3.55 -35.9 4.4 -35.15 L5.1 -34.2 5.35 -33.85 M3.3 -33.3 Q2.75 -33.65 2.35 -33.65 L0.3 -33.3 -1.65 -32.95 -2.85 -33.2 -2.85 -31.75 -3.4 -13.35 -3.5 5.1 -3.45 10.75 -3.3 19.95 -3.5 25.55 -3.25 31.65 -3.25 31.95 -3.1 32.45 -2.3 32.45 -0.85 32.25 1.7 32.1 4.35 32.45 Q4.15 31.45 4.1 29.65 L4.25 26.85 4.15 24.8 Q4.0 23.85 4.0 22.15 L4.15 18.25 3.95 11.25 3.95 10.75 3.65 4.95 3.75 -8.2 3.75 -8.45 3.85 -10.2 4.1 -13.85 4.25 -21.0 4.15 -26.0 4.0 -26.4 4.25 -31.75 4.15 -32.95 Q3.8 -32.95 3.3 -33.3" fill="#dfb300" fill-rule="evenodd" stroke="none"/>
    <path d="M4.15 -38.45 L2.3 -38.1 -4.65 -37.85 -6.75 -37.9 -6.75 -37.05 -7.25 -27.7 -6.9 -22.6 Q-6.55 -19.65 -6.55 -16.75 -6.55 -13.0 -7.25 5.8 L-6.95 10.15 -6.65 14.15 -6.95 20.7 -7.25 27.7 -7.1 31.75 -6.95 35.5 -6.95 36.85 -5.05 36.8 4.15 37.05 6.85 36.85 7.55 36.9 7.5 36.5 7.5 32.75 Q7.15 30.1 7.15 26.65 L7.6 22.3 8.05 16.45 Q7.15 0.9 7.15 -1.35 7.15 -4.75 7.5 -13.0 L7.15 -27.0 7.35 -32.3 7.5 -36.75 7.2 -37.25 7.0 -38.0 6.95 -38.05 4.15 -38.45 M7.65 -40.25 Q8.65 -39.8 8.85 -39.0 9.25 -38.4 9.25 -36.95 L8.85 -27.05 9.15 -13.05 8.85 -1.3 Q8.85 1.1 9.0 2.7 L9.15 8.3 Q9.15 9.5 9.45 11.7 L9.75 16.45 Q9.75 19.6 8.85 26.6 L9.15 31.9 9.45 36.15 9.45 37.65 9.45 37.8 9.45 38.1 Q9.45 39.0 8.75 39.15 L4.15 39.35 2.6 39.1 1.0 38.85 -5.05 39.05 Q-7.55 39.05 -8.25 38.5 L-8.35 38.4 Q-8.75 37.85 -8.75 36.45 L-8.7 33.35 -8.95 27.9 -8.65 20.55 -8.35 14.05 -8.65 10.65 -8.95 5.85 Q-8.2 -12.05 -8.2 -16.75 -8.2 -18.4 -8.55 -22.3 L-8.95 -27.75 Q-8.95 -32.35 -8.55 -35.35 L-8.45 -37.2 -8.4 -38.85 -8.45 -39.0 Q-8.45 -39.85 -7.05 -39.8 L2.8 -40.55 7.65 -40.25" fill="#000000" fill-rule="evenodd" stroke="none"/>
    <path d="M1.1 -38.75 L0.65 -38.95 0.8 -38.95 1.1 -38.75 M-0.25 -34.05 L-0.25 -34.15 -0.15 -34.15 -0.25 -34.05 M0.8 -35.45 L0.35 -35.5 Q0.65 -35.95 1.1 -36.1 L1.1 -36.05 0.8 -35.45 M9.1 0.75 L8.9 1.25 9.4 2.2 9.3 2.7 9.3 2.75 9.35 2.85 9.85 4.1 9.8 4.2 9.8 4.7 Q9.9 5.15 10.4 5.15 L11.6 4.25 11.2 4.75 10.1 5.7 10.35 6.1 10.65 6.35 10.6 6.35 Q10.2 6.55 10.2 6.9 L10.4 7.7 10.35 7.9 10.55 7.95 10.7 8.1 11.65 8.7 11.5 8.95 11.35 8.95 11.05 8.95 10.75 8.65 9.95 10.2 10.4 10.2 9.9 10.7 9.15 11.65 8.85 11.65 8.2 11.6 8.05 12.05 7.75 12.7 7.6 12.7 7.8 13.4 7.7 13.9 Q7.55 14.1 7.25 14.1 L7.15 14.1 6.95 14.55 6.7 15.1 6.7 15.15 6.1 15.05 6.1 13.85 6.25 13.75 6.6 13.5 6.7 13.5 6.65 13.4 6.55 12.65 6.6 12.35 7.05 11.85 7.6 10.9 Q7.6 10.35 6.9 10.1 6.2 9.8 6.2 9.2 L6.4 8.45 6.5 8.25 6.6 8.5 6.6 8.6 6.65 8.6 Q7.25 8.95 7.35 9.5 L7.4 9.8 7.4 9.95 7.6 10.25 8.0 9.5 8.1 9.35 8.15 9.55 8.6 9.85 8.7 9.85 8.7 9.95 8.55 10.35 8.55 10.4 8.6 10.4 9.4 10.25 9.3 10.15 9.25 9.95 9.25 9.6 9.2 9.6 9.15 9.6 9.35 8.3 9.25 7.5 8.7 6.75 8.1 6.2 8.5 6.1 8.95 6.0 9.45 5.95 9.5 5.6 9.35 5.4 9.3 5.05 8.9 4.75 8.4 4.95 8.25 5.0 8.2 5.05 8.0 5.1 7.9 5.9 7.6 5.15 7.7 4.3 7.5 3.6 Q6.8 3.1 6.6 3.75 6.3 3.6 6.3 3.2 L6.35 3.1 6.45 2.85 6.55 2.7 6.35 2.6 6.15 2.3 6.1 2.35 5.3 3.9 4.9 4.7 4.6 4.45 4.8 3.8 4.95 2.7 5.9 1.8 6.15 1.65 6.15 1.7 6.3 1.5 6.4 1.4 6.45 1.35 6.75 1.2 6.65 0.8 6.65 0.75 6.7 0.3 6.85 0.15 6.75 -0.05 6.8 -0.4 7.0 -0.75 7.2 -0.8 7.1 -1.1 7.0 -1.35 6.95 -1.5 7.15 -3.25 7.15 -3.4 7.2 -3.35 7.45 -2.85 7.6 -2.55 8.45 -0.55 8.55 -0.1 8.55 0.0 8.55 0.05 8.7 0.2 9.1 0.75 M8.25 14.6 L8.2 14.9 8.0 16.2 8.0 16.1 7.9 15.85 7.7 15.05 Q7.7 14.6 7.85 14.5 L8.0 14.45 Q8.1 14.45 8.25 14.6 M7.95 16.85 L7.85 18.6 6.9 17.65 Q6.9 16.7 7.4 16.6 L7.5 16.6 7.9 16.8 7.95 16.85 M6.3 7.0 Q5.8 6.6 4.7 6.7 L4.65 6.5 5.45 5.6 5.25 5.05 5.65 4.8 5.9 4.45 6.0 4.3 6.6 3.95 6.55 4.65 6.65 5.4 6.6 5.4 6.1 5.7 5.7 6.0 6.1 6.55 6.25 6.9 6.3 7.0 M11.8 6.8 Q12.2 6.65 12.2 7.7 L11.55 7.1 11.8 6.8 M11.25 11.3 L11.1 11.45 10.9 11.55 11.25 11.3 M5.25 16.45 L5.0 16.15 4.95 15.75 5.15 15.2 5.25 16.25 5.25 16.45 M3.6 6.6 L3.6 6.5 3.7 6.25 3.6 6.6 M3.8 5.95 L3.55 5.7 3.5 5.4 3.6 4.85 3.85 5.55 3.8 5.95 M6.8 5.75 L7.45 6.9 8.05 7.8 7.85 7.85 7.5 7.8 7.3 7.55 7.25 7.15 7.3 7.0 7.3 6.95 7.3 6.9 7.25 6.9 Q7.1 6.75 6.9 6.75 L6.8 6.6 6.75 6.25 6.8 5.75 M8.3 3.65 L8.2 3.45 8.15 3.65 8.3 3.65 M-6.3 -39.7 L-6.3 -39.5 -6.5 -38.85 -6.5 -38.8 -5.95 -39.3 -5.6 -40.1 -5.35 -39.85 Q-4.9 -40.25 -4.65 -40.25 L-4.55 -40.4 -4.05 -39.6 -3.2 -38.3 -2.6 -38.5 -2.7 -38.4 -2.7 -38.1 -2.75 -38.05 -3.1 -37.85 -4.55 -39.35 Q-5.1 -39.7 -5.1 -38.9 L-5.05 -38.85 -5.2 -38.7 -5.65 -37.85 -5.95 -38.35 Q-6.5 -39.0 -6.5 -38.1 L-6.5 -38.0 -6.55 -37.95 -7.2 -36.95 -7.25 -37.4 -7.0 -37.8 -6.85 -38.35 -7.05 -39.65 -6.9 -39.65 -6.3 -39.7 M-1.6 -38.15 Q-1.35 -37.9 -0.5 -37.8 L-1.25 -37.2 Q-1.35 -38.0 -1.6 -37.95 L-1.85 -37.7 -1.85 -37.9 -1.85 -38.0 -1.6 -38.15 M-3.7 -32.6 L-3.9 -32.2 -4.1 -31.65 -4.2 -31.75 -4.3 -31.75 Q-4.65 -31.75 -5.05 -32.1 L-4.7 -33.05 Q-4.65 -32.4 -4.05 -32.4 L-3.8 -32.9 -3.8 -32.6 -3.7 -32.6 M-5.0 -31.9 L-5.05 -31.9 -5.1 -31.95 -5.1 -32.05 -5.05 -32.05 -5.0 -31.9 M-5.55 -30.95 L-5.55 -30.85 -5.65 -30.75 -5.75 -30.45 -5.95 -30.7 -5.8 -30.65 -5.6 -30.95 -5.55 -30.95 M-5.3 -29.3 L-5.2 -28.35 -5.25 -27.85 -5.3 -27.85 -5.25 -27.8 -5.3 -27.1 Q-6.6 -27.5 -6.95 -28.25 L-7.2 -29.35 -6.25 -28.8 -6.2 -28.85 -6.55 -29.5 -7.3 -29.95 -7.2 -31.05 Q-6.5 -29.3 -5.45 -29.3 L-5.3 -29.3 M-7.65 -32.35 L-7.75 -32.4 -7.75 -32.65 -7.65 -32.35 M-9.3 -32.3 L-9.05 -32.65 -8.5 -33.45 -8.8 -34.2 -8.65 -34.4 -8.15 -33.4 -8.25 -32.75 Q-8.25 -32.25 -8.85 -32.25 L-9.3 -32.3 M-5.25 -36.05 L-4.7 -35.8 -4.65 -35.55 Q-4.9 -35.55 -5.2 -34.35 L-5.3 -34.6 -5.35 -34.8 -5.5 -35.0 -5.55 -35.15 -5.6 -35.05 -5.8 -35.1 -5.75 -35.2 -5.25 -36.05 M-3.8 -35.9 L-3.6 -36.55 -3.65 -36.95 -3.25 -36.8 -3.3 -36.65 -3.45 -35.8 -3.7 -35.3 -3.8 -35.9 M-3.8 -37.1 L-3.9 -37.05 -3.9 -37.2 -3.8 -37.1 M-4.65 -36.8 L-4.8 -36.9 -4.85 -36.95 -4.85 -37.05 -4.85 -37.3 -4.85 -37.4 -4.8 -37.35 -4.5 -37.3 -4.65 -36.8 M-2.5 -36.05 Q-2.2 -36.05 -2.05 -36.45 L-2.05 -35.9 -2.05 -35.3 -2.3 -35.6 -2.6 -35.65 -2.55 -35.75 -2.55 -35.8 -2.5 -36.05 M-2.0 -34.4 L-1.95 -34.3 -2.05 -34.25 -2.15 -34.1 -2.0 -34.4 M-4.25 -34.0 L-4.35 -34.0 -4.35 -34.3 -4.35 -34.55 -4.15 -34.3 -4.25 -34.0 M-6.2 -34.3 L-6.3 -34.4 -6.25 -34.45 -6.2 -34.3 M-7.15 -35.2 L-7.2 -35.2 -6.65 -36.05 -6.45 -36.45 -6.2 -36.0 -7.15 -35.2 M-3.15 -36.8 L-3.1 -36.8 -3.1 -36.7 -3.1 -36.6 -3.15 -36.8 M-7.8 -34.75 L-7.7 -34.65 -7.7 -34.5 -7.9 -34.7 -7.8 -34.75" fill="#009900" fill-rule="evenodd" stroke="none"/>
    <path d="M7.05 -6.3 L7.3 -5.85 7.7 -5.15 7.45 -4.15 7.15 -3.5 6.45 -5.3 6.45 -5.35 6.5 -5.55 7.05 -6.3 M8.75 -5.2 L8.75 -5.4 7.75 -7.0 8.05 -7.35 8.3 -6.9 Q8.55 -6.65 9.35 -6.7 L9.4 -6.6 9.5 -5.9 9.6 -5.5 9.25 -5.3 8.75 -4.55 8.65 -3.4 8.75 -2.45 8.65 -2.2 Q8.6 -4.35 8.0 -3.3 L7.6 -2.55 7.45 -2.85 7.2 -3.35 Q7.4 -3.65 8.2 -3.8 L8.95 -5.05 8.75 -5.2 M8.95 -1.65 L8.9 -1.25 Q8.9 -0.85 9.45 -0.05 L9.2 0.55 9.15 0.7 9.1 0.65 8.55 -0.1 8.45 -0.55 8.65 -1.1 8.65 -2.0 8.65 -2.1 8.95 -1.65 M9.4 2.2 L9.5 2.3 9.75 2.55 9.35 2.85 9.3 2.75 9.3 2.7 9.4 2.2 M9.15 11.65 L9.05 11.8 8.85 11.65 9.15 11.65 M8.0 16.2 L7.95 16.85 7.9 16.8 8.0 16.1 8.0 16.2 M6.9 17.65 L6.35 17.1 6.8 16.75 6.9 16.75 7.45 16.5 7.4 16.6 Q6.9 16.7 6.9 17.65 M6.15 1.65 L6.3 1.5 6.15 1.7 6.15 1.65 M6.4 1.4 L6.45 1.35 6.4 1.4 M6.85 -0.8 L6.9 -1.2 6.95 -1.5 7.0 -1.35 7.1 -1.1 6.85 -0.8 M6.35 3.1 L6.3 3.2 Q6.3 3.6 6.6 3.75 L6.6 3.95 6.0 4.3 5.85 4.05 5.8 4.05 5.3 3.9 6.1 2.35 6.35 3.1 M7.9 5.9 L8.0 5.1 8.2 5.05 8.25 5.15 8.6 5.95 8.5 6.1 8.1 6.2 7.9 5.9 M9.15 9.6 L9.2 9.6 9.25 9.6 9.25 9.95 9.3 10.15 9.05 10.2 9.15 10.05 8.7 9.95 8.7 9.85 9.15 9.6 M7.35 9.5 Q7.25 8.95 6.65 8.6 L7.5 7.8 7.85 7.85 7.6 8.6 7.65 8.85 7.35 9.5 M6.65 5.4 L6.8 5.75 6.75 6.25 6.8 6.6 6.9 6.75 6.6 6.75 Q6.4 6.8 6.25 6.9 L6.1 6.55 6.4 5.85 6.6 5.4 6.65 5.4 M7.3 6.95 L7.25 6.9 7.3 6.9 7.3 6.95 M8.05 12.05 L8.2 12.05 8.3 12.65 8.4 12.9 Q8.0 13.4 8.0 14.1 L8.05 14.45 8.0 14.45 7.85 14.5 7.6 14.6 7.55 14.5 7.7 14.0 7.7 13.9 7.8 13.4 7.6 12.7 7.75 12.7 8.05 12.05 M7.15 14.6 L7.2 14.6 7.0 14.75 7.15 14.6 M-1.2 -35.95 L-1.3 -35.4 Q-1.2 -34.7 -1.35 -34.05 -1.55 -32.95 -2.25 -32.75 L-2.4 -32.75 -2.55 -32.75 -3.15 -33.1 -3.45 -32.95 -3.6 -33.25 Q-2.8 -33.4 -2.4 -33.85 L-2.15 -34.1 -2.05 -34.25 -1.95 -34.3 -2.0 -34.4 -1.95 -34.8 -2.05 -35.3 -2.05 -35.9 -2.05 -36.45 Q-2.2 -36.05 -2.5 -36.05 L-2.55 -36.05 -2.55 -35.75 -2.6 -35.65 -2.8 -35.1 Q-2.95 -34.15 -4.05 -34.05 L-4.25 -34.0 -4.15 -34.3 -4.35 -34.55 -4.35 -34.3 -4.35 -34.0 -5.0 -33.85 -5.6 -33.9 -5.8 -33.65 -5.8 -33.75 -6.2 -34.3 -6.25 -34.45 -6.3 -34.4 Q-6.85 -35.1 -7.15 -35.2 L-6.2 -36.0 -6.45 -36.45 -6.65 -36.05 -7.2 -35.2 Q-7.6 -35.35 -7.6 -34.6 -7.1 -33.25 -6.3 -33.25 L-6.0 -33.3 -6.15 -32.9 -6.25 -32.85 -7.1 -31.85 -7.0 -31.55 -6.65 -31.3 -6.0 -31.4 -5.6 -30.95 -5.8 -30.65 -5.95 -30.7 -5.75 -30.45 -5.65 -30.75 -5.55 -30.85 -5.3 -29.3 -5.45 -29.3 Q-6.5 -29.3 -7.2 -31.05 L-7.2 -31.3 Q-7.2 -32.25 -7.65 -32.35 L-7.75 -32.65 -7.75 -32.7 -7.75 -32.85 -8.15 -33.4 -8.65 -34.4 -8.75 -34.65 -8.0 -35.55 Q-7.2 -36.0 -7.2 -36.7 L-7.2 -36.9 -7.2 -36.95 -6.55 -37.95 -6.5 -38.0 -6.5 -38.1 Q-6.5 -39.0 -5.95 -38.35 L-5.65 -37.85 -5.75 -37.15 Q-5.9 -36.45 -5.4 -36.3 L-5.25 -36.05 -5.75 -35.2 -5.8 -35.1 -5.6 -35.05 -5.5 -35.0 -5.35 -34.8 -5.3 -34.6 -5.25 -34.3 -5.2 -34.3 -5.2 -34.35 Q-4.9 -35.55 -4.65 -35.55 L-4.7 -35.8 -4.3 -35.8 -3.8 -35.9 -3.7 -35.3 -3.45 -35.8 -3.1 -36.4 -3.05 -36.4 -3.1 -36.6 -3.1 -36.7 -3.1 -36.8 -3.15 -36.8 -3.25 -36.8 -3.65 -36.95 -3.8 -37.1 -3.9 -37.2 -3.9 -37.05 -4.6 -36.8 -4.65 -36.8 -4.5 -37.3 -4.25 -37.55 -4.5 -37.9 -4.65 -38.15 -4.65 -38.35 Q-4.65 -39.25 -5.05 -38.85 L-5.1 -38.9 Q-5.1 -39.7 -4.55 -39.35 L-3.1 -37.85 -2.75 -38.05 -2.7 -38.1 -2.7 -38.4 -2.6 -38.5 Q-2.05 -39.05 -1.9 -38.7 L-1.85 -38.0 -1.85 -37.9 -1.85 -37.7 -1.6 -37.95 Q-1.35 -38.0 -1.25 -37.2 L-1.2 -35.95 M-7.25 -37.4 L-7.4 -37.85 -7.85 -38.65 -7.7 -39.7 -7.05 -39.65 -6.85 -38.35 -7.0 -37.8 -7.25 -37.4 M-4.85 -36.95 L-4.95 -37.0 -4.9 -37.25 -4.85 -37.3 -4.85 -37.05 -4.85 -36.95 M-3.6 -33.25 L-3.8 -32.9 -4.05 -32.4 Q-4.65 -32.4 -4.7 -33.05 L-5.05 -32.1 -5.05 -32.05 -5.1 -32.05 -5.1 -31.95 -5.4 -32.45 -5.2 -32.9 -5.0 -33.45 -4.1 -33.25 -3.6 -33.25 M-7.8 -34.75 L-7.9 -34.7 -7.7 -34.5 -7.7 -34.65 -7.6 -34.85 -7.8 -34.75" fill="#006600" fill-rule="evenodd" stroke="none"/>
    <path d="M7.05 -6.3 L7.1 -6.4 7.75 -7.0 8.75 -5.4 8.75 -5.2 8.6 -5.0 Q8.45 -4.75 8.2 -4.75 L7.7 -5.15 7.3 -5.85 7.05 -6.3 M9.1 0.7 L9.1 0.75 8.7 0.2 8.55 0.05 8.55 0.0 8.55 -0.1 9.1 0.65 9.1 0.7 M11.3 9.15 L10.4 10.2 9.95 10.2 10.75 8.65 11.05 8.95 11.3 9.15 M9.05 11.8 L8.65 12.65 8.65 13.1 8.7 13.2 8.25 14.6 Q8.1 14.45 8.0 14.45 L8.05 14.45 8.0 14.1 Q8.0 13.4 8.4 12.9 L8.3 12.65 8.2 12.05 8.05 12.05 8.2 11.6 8.85 11.65 9.05 11.8 M6.8 16.75 Q7.4 16.15 7.4 15.75 7.4 15.3 6.7 15.15 L6.7 15.1 6.95 14.85 7.0 14.75 7.2 14.6 7.15 14.6 6.95 14.55 7.15 14.1 7.25 14.1 Q7.55 14.1 7.7 13.9 L7.7 14.0 7.55 14.5 7.6 14.6 7.85 14.5 Q7.7 14.6 7.7 15.05 L7.9 15.85 7.85 15.85 7.65 15.85 7.45 16.5 6.9 16.75 6.8 16.75 M6.1 13.45 L6.1 12.85 6.6 12.35 6.55 12.65 6.65 13.4 6.7 13.5 6.6 13.5 6.25 13.75 6.1 13.45 M6.5 8.25 L6.55 7.75 6.45 7.15 6.3 7.0 6.25 6.9 Q6.4 6.8 6.6 6.75 L6.9 6.75 Q7.1 6.75 7.25 6.9 L7.3 6.95 7.3 7.0 7.25 7.15 7.3 7.55 6.6 8.5 6.5 8.25 M6.45 1.35 L6.65 0.85 6.65 0.8 6.75 1.2 6.45 1.35 M6.7 0.3 L6.75 -0.05 6.85 0.15 6.7 0.3 M6.8 -0.4 L6.85 -0.8 7.1 -1.1 7.2 -0.8 7.0 -0.75 6.8 -0.4 M7.6 -2.55 L8.0 -3.3 Q8.6 -4.35 8.65 -2.2 L8.65 -2.1 8.65 -2.0 8.65 -1.1 8.45 -0.55 7.6 -2.55 M6.35 2.6 L6.55 2.7 6.45 2.85 6.35 2.7 6.35 2.6 M8.25 5.0 L8.4 4.95 8.9 4.75 9.3 5.05 9.35 5.4 9.5 5.6 9.45 5.95 8.95 6.0 8.5 6.1 8.6 5.95 8.95 5.7 8.95 5.6 8.7 5.7 Q8.35 5.7 8.25 5.0 M9.3 10.15 L9.4 10.25 8.6 10.4 8.55 10.4 8.55 10.35 8.6 10.4 9.05 10.2 9.3 10.15 M8.1 9.35 L8.0 9.5 7.6 10.25 7.4 9.95 7.4 9.8 7.35 9.5 7.65 8.85 7.6 8.6 7.85 7.85 8.05 7.8 8.3 8.3 8.1 9.2 8.1 9.35 M8.3 3.65 L8.15 3.65 8.2 3.45 8.3 3.65 M-5.05 -31.9 Q-5.6 -31.9 -5.6 -31.2 L-5.55 -30.95 -5.6 -30.95 -6.0 -31.4 -6.65 -31.3 -7.0 -31.55 -7.1 -31.85 -6.25 -32.85 -6.15 -32.9 -6.0 -33.3 -6.3 -33.25 Q-7.1 -33.25 -7.6 -34.6 -7.6 -35.35 -7.2 -35.2 L-7.15 -35.2 Q-6.85 -35.1 -6.3 -34.4 L-6.2 -34.3 -5.8 -33.75 -5.8 -33.65 -5.6 -33.9 -5.0 -33.85 -4.35 -34.0 -4.25 -34.0 -4.05 -34.05 Q-2.95 -34.15 -2.8 -35.1 L-2.6 -35.65 -2.3 -35.6 -2.05 -35.3 -1.95 -34.8 -2.0 -34.4 -2.15 -34.1 -2.4 -33.85 Q-2.8 -33.4 -3.6 -33.25 L-4.1 -33.25 -5.0 -33.45 -5.2 -32.9 -5.4 -32.45 -5.1 -31.95 -5.05 -31.9 M-5.65 -37.85 L-5.2 -38.7 -5.05 -38.85 Q-4.65 -39.25 -4.65 -38.35 L-4.65 -38.15 -4.85 -37.4 -4.85 -37.3 -4.9 -37.25 -4.95 -37.0 -4.85 -36.95 -4.8 -36.9 -4.65 -36.8 -4.6 -36.8 -3.9 -37.05 -3.8 -37.1 -3.65 -36.95 -3.6 -36.55 -3.8 -35.9 -4.3 -35.8 -4.7 -35.8 -5.25 -36.05 -5.4 -36.3 Q-5.9 -36.45 -5.75 -37.15 L-5.65 -37.85" fill="#00cc00" fill-rule="evenodd" stroke="none"/>
    <path d="M0.65 -38.95 L1.1 -38.75 1.15 -38.75 1.35 -38.15 1.15 -37.45 Q2.35 -37.6 3.1 -36.7 3.7 -36.05 3.7 -35.5 L3.45 -34.7 Q3.05 -34.0 2.4 -34.0 L1.35 -34.2 -0.15 -34.15 -0.25 -34.15 -0.25 -34.05 Q-0.45 -33.05 -0.75 -32.55 -1.45 -31.55 -2.95 -31.3 L-3.95 -29.4 -4.15 -28.3 Q-4.15 -25.8 -5.25 -25.8 -7.1 -25.8 -7.9 -27.6 -8.5 -28.95 -8.35 -30.5 L-8.35 -30.6 -8.65 -30.3 -9.6 -30.2 Q-11.3 -30.2 -11.0 -31.25 L-10.5 -32.6 Q-9.95 -33.55 -9.85 -34.2 -9.85 -35.6 -8.35 -37.0 L-8.8 -37.95 Q-9.3 -38.55 -9.3 -39.35 -9.3 -41.6 -8.35 -41.6 L-7.7 -41.35 -7.4 -40.9 -6.85 -40.9 Q-6.6 -43.6 -4.95 -42.4 -3.8 -41.55 -3.25 -40.45 L-2.4 -40.95 Q-1.7 -40.95 -1.15 -40.25 -0.65 -39.65 -0.65 -39.05 L0.65 -38.95 M1.1 -36.1 Q0.65 -35.95 0.35 -35.5 L0.8 -35.45 1.95 -35.25 2.5 -35.25 2.6 -35.5 Q2.6 -36.0 1.8 -36.15 L1.1 -36.1 M7.75 -7.0 L7.1 -6.4 7.05 -6.3 6.5 -5.55 6.45 -5.35 6.45 -5.3 7.15 -3.5 7.15 -3.4 7.15 -3.25 6.95 -1.5 6.9 -1.2 6.85 -0.8 6.8 -0.4 6.75 -0.05 6.7 0.3 6.65 0.75 6.65 0.8 6.65 0.85 6.45 1.35 6.4 1.4 6.3 1.5 6.15 1.65 5.9 1.8 4.95 2.7 4.8 3.8 4.6 4.45 4.9 4.7 5.25 5.05 5.45 5.6 4.65 6.5 4.7 6.7 Q5.8 6.6 6.3 7.0 L6.45 7.15 6.55 7.75 6.5 8.25 6.4 8.45 6.2 9.2 Q6.2 9.8 6.9 10.1 7.6 10.35 7.6 10.9 L7.05 11.85 6.6 12.35 6.1 12.85 6.1 13.45 6.1 13.85 6.1 15.05 6.7 15.15 Q7.4 15.3 7.4 15.75 7.4 16.15 6.8 16.75 L6.35 17.1 6.9 17.65 7.85 18.6 7.95 16.85 8.0 16.2 8.2 14.9 8.25 14.6 8.7 13.2 8.65 13.1 8.65 12.65 9.05 11.8 9.15 11.65 9.9 10.7 10.4 10.2 11.3 9.15 11.5 8.95 11.65 8.7 10.7 8.1 10.55 7.95 10.4 7.7 10.2 6.9 Q10.2 6.55 10.6 6.35 L10.65 6.35 11.35 5.45 11.8 4.05 11.6 4.25 10.4 5.15 Q9.9 5.15 9.8 4.7 L9.8 4.2 9.85 4.1 10.1 3.05 9.75 2.55 9.5 2.3 9.4 2.2 8.9 1.25 9.1 0.75 9.1 0.7 9.15 0.7 9.2 0.55 9.45 -0.05 Q8.9 -0.85 8.9 -1.25 L8.95 -1.65 9.05 -1.9 8.85 -2.25 8.75 -2.45 8.65 -3.4 8.75 -4.55 9.25 -5.3 9.6 -5.5 9.5 -5.9 9.4 -6.6 9.4 -6.7 9.35 -6.7 Q8.55 -6.65 8.3 -6.9 L8.05 -7.35 7.75 -7.0 M3.6 4.85 L3.6 4.8 Q3.6 4.45 3.75 4.3 3.6 4.0 3.7 3.45 3.7 2.35 4.4 1.55 L5.6 0.0 5.85 -1.7 6.1 -3.25 5.7 -4.4 5.3 -5.4 Q5.3 -6.1 8.1 -9.55 L8.65 -9.05 8.8 -8.5 Q9.1 -7.8 9.7 -7.95 10.3 -8.1 10.5 -7.45 L10.65 -5.3 Q10.65 -4.6 10.2 -4.3 9.7 -3.95 9.7 -3.5 9.7 -3.0 10.25 -2.5 L10.75 -1.65 Q10.75 -1.2 10.4 -1.0 L11.05 -0.05 10.55 0.65 Q10.0 0.95 10.0 1.3 L10.0 1.35 10.2 1.6 10.65 1.9 11.4 2.7 12.1 2.0 Q12.45 1.6 12.75 1.6 13.55 1.6 13.35 2.65 L12.6 4.9 11.8 6.8 11.55 7.1 12.2 7.7 12.6 8.0 12.9 8.55 12.4 9.9 Q11.8 11.05 11.45 11.2 L11.25 11.3 10.9 11.55 Q10.4 11.9 10.0 12.6 L9.8 12.95 9.8 13.55 9.35 15.3 9.05 16.15 8.95 16.95 8.95 17.1 8.9 17.2 8.9 17.3 9.05 19.3 Q9.0 20.85 8.1 20.85 7.45 20.85 7.0 20.05 L6.35 18.9 5.25 17.9 5.05 17.15 5.25 16.45 5.25 16.25 5.15 15.2 5.05 14.1 5.15 12.5 Q5.35 11.5 6.1 11.2 5.2 10.6 5.1 9.65 L5.3 8.0 Q4.05 8.05 3.7 7.45 L3.6 6.6 3.7 6.25 3.8 5.95 3.85 5.55 3.6 4.85 M6.6 3.75 Q6.8 3.1 7.5 3.6 L7.7 4.3 7.6 5.15 7.9 5.9 8.1 6.2 8.7 6.75 9.25 7.5 9.35 8.3 9.15 9.6 8.7 9.85 8.6 9.85 8.15 9.55 8.1 9.35 8.1 9.2 8.3 8.3 8.05 7.8 7.45 6.9 6.8 5.75 6.65 5.4 6.55 4.65 6.6 3.95 6.6 3.75 M-4.55 -40.4 L-5.45 -41.45 -5.7 -41.1 -5.55 -40.85 -5.45 -40.6 -5.85 -39.95 -6.3 -39.7 -6.9 -39.65 -7.05 -39.65 -7.7 -39.7 -7.85 -39.8 -8.25 -39.95 -8.25 -38.95 -7.85 -38.65 -7.4 -37.85 -7.25 -37.4 -7.2 -36.95 -7.2 -36.9 -7.2 -36.7 Q-7.2 -36.0 -8.0 -35.55 L-8.75 -34.65 -8.8 -34.25 -8.8 -34.2 -8.5 -33.45 -9.05 -32.65 -9.3 -32.3 -9.8 -31.5 -9.8 -31.45 -9.15 -31.45 -8.45 -32.0 -7.85 -32.4 -7.75 -32.4 -7.65 -32.35 Q-7.2 -32.25 -7.2 -31.3 L-7.2 -31.05 -7.3 -29.95 -7.3 -29.7 -7.2 -29.35 -6.95 -28.25 Q-6.6 -27.5 -5.3 -27.1 L-5.25 -27.8 -5.25 -27.85 -5.2 -28.35 -5.3 -29.3 -5.55 -30.85 -5.55 -30.95 -5.6 -31.2 Q-5.6 -31.9 -5.05 -31.9 L-5.0 -31.9 Q-4.7 -31.9 -4.55 -31.5 L-4.35 -31.05 -4.1 -31.65 -3.9 -32.2 -3.7 -32.6 -3.45 -32.95 -3.15 -33.1 -2.55 -32.75 -2.4 -32.75 -2.25 -32.75 Q-1.55 -32.95 -1.35 -34.05 -1.2 -34.7 -1.3 -35.4 L-1.2 -35.95 -0.95 -36.4 -0.1 -37.75 -0.5 -37.8 Q-1.35 -37.9 -1.6 -38.15 L-1.75 -38.35 Q-1.9 -39.2 -2.25 -39.5 L-2.5 -38.75 -2.6 -38.5 -3.2 -38.3 -4.05 -39.6 -4.55 -40.4" fill="#000000" fill-rule="evenodd" stroke="none"/>
  </g>
</svg>
