<?xml version="1.0" encoding="UTF-8" standalone="no"?>
<svg xmlns:ffdec="https://www.free-decompiler.com/flash" xmlns:xlink="http://www.w3.org/1999/xlink" ffdec:objectType="shape" height="35.9px" width="43.45px" xmlns="http://www.w3.org/2000/svg">
  <g transform="matrix(1.0, 0.0, 0.0, 1.0, 20.95, 34.9)">
    <path d="M-17.35 1.0 L-20.95 1.0 -20.85 0.8 -20.45 -0.05 -20.4 -0.15 -19.55 -0.35 -18.65 -0.2 -18.4 -0.1 -18.4 -0.15 -18.2 0.05 -17.25 -1.85 -17.05 -2.25 -17.1 -2.3 Q-17.8 -2.5 -18.2 -3.05 L-18.45 -3.3 -18.55 -3.65 Q-18.65 -4.1 -18.4 -4.35 L-18.45 -4.45 -18.5 -4.6 -18.45 -4.75 -18.05 -5.55 -17.65 -6.25 -17.55 -6.45 -17.45 -6.55 -17.3 -6.6 -17.2 -6.7 -17.15 -6.75 -17.05 -6.9 -17.05 -7.05 -17.15 -7.15 -17.15 -7.25 -17.0 -7.5 -16.85 -7.8 -16.75 -8.0 -16.7 -8.5 -16.4 -9.15 -14.6 -9.4 -13.7 -9.25 -13.4 -9.1 -12.85 -10.2 -12.25 -11.3 -12.8 -11.7 Q-13.6 -12.8 -13.35 -13.7 L-12.95 -14.65 -12.9 -14.75 -12.75 -14.85 -12.6 -14.9 -11.9 -16.2 -11.2 -17.55 Q-11.15 -17.5 -11.05 -17.6 L-10.8 -17.7 -10.6 -17.75 -9.55 -17.5 -9.3 -17.45 -8.95 -17.2 -8.85 -17.05 -8.8 -17.1 Q-8.4 -17.8 -8.4 -18.55 L-7.85 -19.65 -8.4 -19.95 -8.85 -20.2 -9.0 -20.4 -9.3 -20.9 -9.4 -21.05 -9.45 -21.2 -8.85 -22.5 -8.55 -23.0 -8.5 -23.1 -8.45 -23.25 -8.35 -23.45 -8.3 -23.5 -8.3 -23.7 -8.35 -23.85 -8.35 -23.95 -8.3 -24.05 -8.2 -24.2 -8.15 -24.3 -8.0 -24.55 -7.9 -24.8 -7.75 -25.0 -7.8 -25.2 -7.8 -25.45 -7.65 -25.75 -7.5 -26.05 -7.45 -26.15 -7.3 -26.15 -7.1 -26.25 -7.05 -26.35 -7.0 -26.5 -6.95 -26.55 -6.85 -26.65 -6.75 -26.7 -6.6 -26.75 -6.2 -26.8 -5.8 -26.85 -5.7 -26.8 -5.4 -26.7 -5.2 -27.1 -4.7 -27.75 -4.6 -27.9 -4.6 -28.35 -4.85 -29.4 -4.85 -29.95 -4.9 -30.9 -4.85 -31.0 -4.0 -32.65 -2.8 -34.9 -1.0 -34.75 -0.5 -34.55 -0.1 -34.3 0.1 -34.2 0.35 -34.35 0.35 -34.4 0.4 -34.35 0.85 -34.65 1.15 -33.95 1.2 -33.95 1.2 -33.9 1.25 -33.75 1.35 -33.6 1.3 -33.45 1.3 -33.3 1.45 -33.4 1.8 -33.55 2.05 -33.5 2.2 -33.5 2.85 -33.1 2.9 -33.0 3.4 -32.75 3.35 -32.6 3.65 -32.25 4.45 -31.4 4.5 -31.3 Q5.6 -30.7 5.35 -29.45 L4.4 -27.25 4.35 -27.2 3.9 -26.95 3.9 -26.9 4.1 -26.6 4.4 -25.85 4.8 -26.0 5.8 -26.45 6.05 -26.45 6.25 -26.4 6.5 -26.4 6.6 -26.3 6.65 -26.25 6.75 -26.1 6.8 -26.05 6.85 -25.9 7.5 -25.55 8.3 -24.25 8.4 -24.0 8.55 -23.95 8.65 -23.9 8.75 -23.75 8.9 -23.5 9.2 -22.9 9.35 -22.4 9.25 -22.25 9.25 -22.1 9.15 -21.95 9.15 -21.8 8.65 -20.85 8.6 -20.4 8.8 -20.15 9.05 -19.15 9.05 -19.0 9.5 -18.3 9.75 -17.15 10.0 -16.7 10.2 -16.85 10.6 -17.05 10.95 -17.2 Q13.15 -17.1 13.8 -15.4 14.1 -14.55 13.9 -13.5 L13.95 -13.4 14.15 -13.2 14.2 -12.85 14.25 -12.75 14.05 -12.15 13.75 -11.15 13.3 -10.85 12.9 -10.6 12.95 -10.55 13.05 -10.4 13.15 -10.3 13.3 -10.25 13.4 -10.2 13.85 -9.35 14.1 -9.05 15.1 -9.2 15.7 -9.05 15.85 -8.8 16.0 -8.6 16.1 -8.45 16.6 -8.15 17.2 -7.7 17.3 -7.6 17.35 -7.5 17.35 -7.4 17.45 -7.25 17.5 -7.2 18.55 -6.05 19.05 -4.55 18.65 -3.75 18.2 -3.05 18.1 -2.95 17.85 -2.75 17.6 -2.75 17.45 -2.65 17.15 -2.65 17.05 -2.7 16.9 -2.75 16.8 -2.85 16.8 -2.8 16.9 -2.75 17.2 -2.55 17.4 -2.4 Q17.45 -2.3 17.6 -2.3 L17.7 -2.1 17.85 -1.8 18.0 -1.75 18.15 -1.7 18.25 -1.55 18.45 -1.15 18.65 -0.75 18.7 -0.7 18.65 -0.55 18.6 -0.35 18.95 0.25 19.0 0.35 19.15 0.2 Q21.45 -0.2 22.5 1.0 L18.4 1.0 18.05 0.4 17.7 -0.2 17.7 -0.3 17.85 -0.5 17.7 -0.7 17.55 -1.05 17.4 -1.05 17.25 -1.1 17.15 -1.35 17.0 -1.6 17.0 -1.65 16.9 -1.65 16.75 -1.7 16.7 -1.7 16.6 -1.85 16.55 -1.95 16.5 -2.05 Q16.45 -2.0 16.35 -2.1 L16.2 -2.15 16.15 -2.25 16.1 -2.35 16.05 -2.45 15.75 -2.65 15.5 -2.85 15.1 -2.85 15.05 -2.85 Q14.8 -2.45 15.0 -2.1 L14.85 -1.7 14.9 -1.6 15.8 0.1 16.3 1.0 15.3 1.0 14.7 -0.15 14.5 -0.55 14.45 -0.5 Q13.85 -0.05 13.15 0.0 L12.8 0.05 12.45 -0.1 Q12.1 -0.2 12.0 -0.55 L11.9 -0.55 11.75 -0.65 11.6 -0.8 11.2 -1.55 10.8 -2.3 10.7 -2.5 10.7 -2.6 10.75 -2.75 10.75 -2.9 10.7 -3.0 10.65 -3.15 10.55 -3.15 10.4 -3.2 10.3 -3.3 10.15 -3.5 10.0 -3.8 9.9 -4.05 Q9.6 -4.1 9.5 -4.35 L9.15 -4.95 Q9.3 -5.8 9.95 -6.65 L10.55 -7.3 10.85 -7.45 10.3 -8.5 9.7 -9.65 9.05 -9.35 Q7.75 -9.3 7.1 -10.0 L6.55 -10.9 6.55 -11.0 6.5 -11.15 6.55 -11.3 5.85 -12.65 5.15 -13.95 5.2 -14.15 5.25 -14.4 5.35 -14.55 6.1 -15.3 6.35 -15.45 6.7 -15.6 6.9 -15.65 6.85 -15.7 5.9 -16.9 5.3 -17.95 Q5.1 -17.75 4.75 -17.65 L4.3 -17.45 4.1 -17.45 3.5 -17.4 3.25 -17.5 3.1 -17.5 2.4 -18.7 2.15 -19.25 2.1 -19.3 2.0 -19.45 1.9 -19.7 1.75 -19.8 1.6 -19.85 1.5 -19.95 1.45 -20.05 1.4 -20.2 1.35 -20.25 1.3 -20.35 1.2 -20.55 1.05 -20.8 0.95 -21.05 0.75 -21.1 0.6 -21.25 0.4 -21.55 0.25 -21.85 0.25 -21.95 0.25 -22.1 0.3 -22.25 0.25 -22.35 0.15 -22.5 0.1 -22.6 0.1 -22.65 0.15 -22.8 0.15 -23.0 0.35 -23.3 0.55 -23.65 0.65 -23.75 0.85 -23.95 0.65 -24.3 0.4 -25.1 0.35 -25.2 -0.05 -25.55 -0.3 -25.65 -0.65 -25.65 -0.75 -25.65 -1.2 -25.9 -1.25 -25.85 -1.4 -25.55 -1.8 -24.95 -1.45 -24.65 -0.55 -24.05 -0.4 -23.85 -0.3 -23.7 -0.15 -23.5 -0.2 -23.4 -0.2 -23.25 -0.3 -23.1 -0.3 -23.0 -0.4 -22.9 -0.35 -22.1 -0.95 -20.75 -1.1 -20.55 -1.05 -20.45 -1.0 -20.3 -1.1 -20.15 -1.2 -19.9 -1.55 -19.25 -1.85 -18.9 -2.05 -18.85 -2.15 -18.8 -2.4 -18.7 -2.5 -18.7 -3.6 -18.5 -3.95 -18.4 -4.05 -18.05 Q-4.3 -17.55 -4.8 -17.2 L-4.85 -17.15 -5.2 -16.35 Q-5.45 -15.85 -6.0 -15.5 L-6.25 -15.05 -6.0 -15.0 -5.6 -14.8 -5.3 -14.55 Q-4.1 -12.7 -5.1 -11.3 -5.65 -10.45 -6.65 -10.05 L-6.7 -9.95 -6.75 -9.7 Q-6.85 -9.5 -7.05 -9.45 L-7.1 -9.35 -7.7 -9.2 Q-8.15 -8.9 -8.7 -8.85 L-9.15 -9.05 -9.55 -9.25 -9.6 -9.15 -9.65 -9.0 -9.7 -8.9 -9.7 -8.7 -9.65 -8.55 -10.1 -7.75 -10.2 -7.4 -9.55 -6.65 -9.3 -6.0 -9.4 -5.8 -9.5 -5.55 -9.6 -5.4 -9.55 -4.8 -9.55 -4.1 -9.6 -3.95 -9.65 -3.85 -9.7 -3.75 -9.8 -3.65 -9.85 -3.55 Q-9.8 -2.75 -10.2 -2.05 -10.6 -1.25 -11.15 -0.7 L-12.0 -0.6 -12.85 -0.6 -12.95 -0.6 -13.3 -0.75 -13.45 -0.9 -13.6 -1.0 -13.75 -1.2 -13.8 -1.35 -13.85 -1.55 -13.8 -1.15 -13.85 -0.85 -13.85 -0.65 -13.95 -0.45 -14.1 -0.2 -14.05 0.0 -14.0 0.15 -14.05 0.3 -14.3 0.65 -14.45 1.0 -15.65 1.0 -15.45 0.6 -15.35 0.55 -15.15 0.55 -15.05 0.3 -14.9 0.0 -14.95 -0.15 -15.0 -0.25 -14.9 -0.5 -14.75 -0.75 -14.7 -0.8 -14.75 -0.9 -14.8 -1.0 -14.85 -1.1 -14.75 -1.2 -14.7 -1.3 -14.65 -1.45 -14.7 -1.55 -14.75 -1.7 -14.7 -1.8 -14.65 -1.95 -14.6 -2.0 -14.55 -2.4 -14.55 -2.7 -14.75 -3.0 -14.8 -3.1 Q-15.25 -3.1 -15.4 -2.8 L-15.9 -2.6 -15.95 -2.45 -16.85 -0.75 -17.35 0.25 -17.35 1.0 M0.2 -32.3 L0.3 -32.5 0.5 -32.8 0.45 -32.8 0.4 -33.1 0.4 -33.35 0.4 -33.5 0.05 -34.2 -1.35 -33.45 -1.3 -33.35 -1.0 -32.85 -0.45 -32.55 -0.3 -32.4 -0.1 -32.3 0.0 -32.25 0.05 -32.25 0.25 -32.25 0.2 -32.3 M1.1 -31.75 L0.85 -31.7 0.6 -31.7 0.45 -31.75 0.4 -31.7 -0.05 -31.5 -0.3 -31.4 -0.45 -31.4 -0.7 -31.55 -0.95 -31.65 -1.0 -31.7 -1.05 -31.8 -1.15 -31.85 -1.3 -31.9 -1.35 -32.0 -1.35 -32.05 -1.9 -31.35 -2.5 -30.8 -2.1 -30.1 -1.8 -29.45 -1.7 -29.3 -1.25 -28.5 -0.55 -27.6 -0.35 -27.55 -0.25 -27.5 0.0 -27.3 0.1 -27.3 0.1 -27.35 -0.25 -28.0 -0.25 -28.15 -0.1 -28.5 0.1 -28.75 0.95 -29.15 1.2 -29.2 1.25 -29.2 1.95 -29.15 2.0 -29.15 2.35 -29.05 2.5 -28.95 2.6 -28.9 2.65 -28.8 Q2.65 -28.75 2.75 -28.75 L2.95 -28.75 3.0 -28.65 3.0 -28.6 3.05 -28.5 3.1 -28.4 3.2 -28.35 3.3 -28.55 3.65 -29.7 3.6 -29.8 3.5 -29.95 3.45 -30.05 3.3 -30.1 3.25 -30.15 3.1 -30.4 Q3.05 -30.35 3.0 -30.45 L2.95 -30.55 Q2.85 -30.55 2.75 -30.65 L2.65 -30.65 2.6 -30.75 2.55 -30.85 2.4 -31.05 2.35 -31.15 2.2 -31.2 2.1 -31.3 2.0 -31.35 1.95 -31.45 1.9 -31.6 1.8 -31.6 1.7 -31.75 1.5 -31.85 1.5 -31.9 1.35 -31.8 1.1 -31.75 M0.65 -28.25 L0.95 -27.7 1.45 -26.7 1.5 -26.7 1.95 -26.25 2.0 -26.1 2.1 -25.9 2.1 -25.7 2.15 -25.6 2.1 -25.5 2.3 -25.3 2.4 -25.25 2.55 -25.0 3.6 -25.4 3.55 -25.6 3.35 -26.0 3.2 -26.25 2.95 -26.45 2.8 -26.55 2.95 -26.95 2.8 -27.05 2.75 -27.15 2.85 -27.45 2.8 -27.55 2.75 -27.65 2.75 -27.7 2.6 -27.7 2.45 -27.7 2.3 -27.95 2.3 -28.0 1.65 -28.4 1.4 -28.5 1.15 -28.5 0.65 -28.25 M11.1 -11.9 L11.25 -12.0 11.5 -12.05 11.65 -11.95 11.85 -11.85 11.95 -11.65 Q12.0 -11.55 12.05 -11.6 L12.2 -11.55 12.25 -11.7 12.35 -11.95 12.4 -12.35 12.4 -12.65 12.35 -12.7 12.25 -12.85 12.15 -13.1 12.1 -13.15 12.1 -13.3 12.15 -13.5 12.25 -13.7 12.25 -13.85 12.0 -14.4 11.55 -15.2 11.45 -15.4 11.35 -15.5 11.25 -15.5 10.9 -15.65 10.75 -15.65 10.3 -15.6 10.05 -14.75 9.35 -14.3 8.85 -14.1 8.65 -14.0 8.6 -14.05 8.45 -14.05 8.3 -14.1 8.25 -14.25 8.15 -14.3 8.0 -14.3 7.8 -14.3 7.65 -14.45 7.55 -14.6 7.35 -14.7 7.0 -14.2 7.95 -12.7 Q8.35 -12.05 8.35 -11.25 L8.5 -11.2 8.7 -11.0 8.75 -10.9 9.5 -10.85 9.85 -11.2 10.1 -11.35 11.1 -11.9 M6.0 -21.5 L6.35 -21.45 6.8 -21.3 6.95 -21.1 7.05 -21.05 7.4 -20.75 7.65 -20.65 7.7 -20.6 7.75 -20.6 7.95 -21.0 8.3 -21.75 8.15 -21.65 7.75 -21.6 7.45 -21.55 7.3 -21.6 7.15 -21.7 6.9 -22.05 6.8 -22.3 6.75 -22.25 6.45 -22.45 6.3 -22.75 6.15 -23.05 5.9 -23.55 5.75 -23.65 5.6 -23.65 5.55 -23.8 5.5 -23.9 5.4 -24.1 5.3 -24.3 5.15 -24.5 4.9 -24.5 4.75 -24.55 4.5 -24.45 4.45 -24.45 2.6 -23.4 1.9 -22.95 1.9 -22.9 2.0 -22.75 2.0 -22.65 2.05 -22.55 2.1 -22.45 2.4 -22.1 2.7 -21.45 2.75 -21.35 2.9 -21.25 3.2 -21.0 3.6 -20.3 3.65 -20.25 4.3 -18.95 4.45 -18.9 4.6 -18.9 4.8 -18.95 4.45 -19.6 4.45 -19.8 4.55 -19.9 4.5 -19.95 4.45 -20.1 4.35 -20.35 4.2 -20.55 4.3 -20.7 4.25 -20.75 4.4 -21.15 4.5 -21.35 5.15 -21.6 5.45 -21.7 5.85 -21.55 6.0 -21.5 M5.15 -20.75 L5.2 -20.7 5.35 -20.4 5.45 -20.15 5.4 -20.15 5.35 -20.05 5.25 -19.9 5.8 -18.9 6.1 -18.25 6.55 -17.4 Q7.3 -16.8 7.65 -16.0 L8.05 -15.25 8.6 -15.05 8.75 -14.9 Q9.2 -14.8 9.35 -15.2 L9.4 -15.5 9.35 -15.6 9.35 -15.8 9.45 -15.95 9.3 -16.15 9.1 -16.55 8.9 -16.95 8.9 -17.05 9.0 -17.2 8.5 -18.2 8.25 -18.7 8.3 -18.95 8.25 -19.1 8.05 -19.45 7.9 -19.15 7.6 -18.95 7.45 -18.85 7.45 -19.0 7.5 -19.15 7.4 -19.25 6.95 -19.65 6.95 -19.7 6.75 -20.1 6.6 -20.3 5.65 -20.85 Q5.55 -20.85 5.55 -20.9 L5.15 -20.8 5.15 -20.75 M15.6 -3.8 L15.6 -3.75 16.05 -3.55 16.2 -3.45 16.25 -3.45 16.4 -3.25 16.6 -3.05 16.7 -3.0 16.7 -3.05 16.8 -3.3 16.75 -3.5 16.8 -3.75 17.0 -4.05 17.25 -4.25 17.05 -4.95 16.45 -5.9 16.25 -6.1 16.1 -6.2 15.9 -6.45 15.55 -6.65 Q15.3 -6.75 15.0 -6.95 L14.8 -7.15 14.7 -7.3 14.65 -7.05 14.6 -6.75 14.55 -6.6 14.45 -6.45 14.2 -6.0 14.0 -5.8 13.6 -5.6 12.7 -5.65 12.6 -5.65 11.6 -6.1 11.3 -5.85 11.05 -5.5 11.25 -5.05 11.65 -4.5 11.75 -4.45 11.95 -4.35 12.0 -4.35 12.3 -3.85 12.45 -2.95 12.55 -2.75 12.8 -2.25 12.9 -2.1 13.4 -1.7 13.45 -1.6 13.85 -1.75 14.05 -1.75 14.05 -1.9 14.0 -2.0 13.95 -2.05 14.0 -2.3 13.95 -2.4 13.95 -2.5 13.9 -2.55 14.2 -3.05 14.35 -3.3 14.65 -3.65 15.6 -3.8 M12.65 -9.55 L12.5 -9.6 12.45 -9.7 12.3 -10.0 12.25 -10.1 12.05 -10.1 11.95 -10.2 11.8 -10.5 11.55 -10.9 11.5 -10.95 11.2 -11.1 11.15 -11.1 Q10.85 -11.3 10.65 -10.85 L10.35 -10.6 10.4 -10.4 10.5 -9.9 10.65 -9.9 10.95 -9.7 10.95 -9.6 10.85 -9.3 11.4 -8.2 11.75 -7.6 11.85 -7.65 12.15 -7.45 12.2 -7.35 12.2 -7.3 12.2 -7.25 12.3 -7.2 12.4 -6.95 12.65 -6.6 13.05 -6.4 13.6 -6.35 13.8 -7.0 13.85 -7.55 13.85 -7.6 13.6 -7.55 13.35 -7.65 13.2 -7.9 13.05 -8.1 13.1 -8.15 13.1 -8.3 13.15 -8.5 13.25 -8.55 13.3 -8.6 13.25 -8.7 12.85 -9.5 12.65 -9.55 M-1.65 -33.35 L-1.65 -33.3 -1.55 -33.35 -1.65 -33.35 M-4.5 -21.1 L-4.4 -20.7 -4.25 -20.35 -4.3 -20.1 -4.3 -19.95 -4.35 -19.55 -4.25 -19.25 -4.25 -19.2 -3.8 -19.2 -3.0 -19.35 -3.15 -19.45 -3.45 -19.7 -3.7 -19.9 -3.75 -20.05 -3.7 -20.3 -3.5 -20.65 -3.4 -20.85 -3.45 -20.95 -3.5 -21.25 -3.35 -21.55 -3.15 -21.85 -2.9 -22.35 -2.9 -22.5 -2.95 -22.65 -2.9 -22.8 -2.85 -22.85 -2.7 -23.1 -2.6 -23.25 -2.5 -23.5 -2.65 -23.7 -2.75 -23.8 -2.9 -24.05 -2.95 -24.05 -4.85 -25.0 -5.65 -25.3 -5.75 -25.15 -5.8 -25.05 -5.9 -24.9 -5.95 -24.85 -6.05 -24.4 -6.45 -23.8 -6.45 -23.75 -6.45 -23.55 -6.55 -23.1 -6.85 -22.4 -6.85 -22.35 -7.6 -21.0 -7.55 -20.9 -7.45 -20.8 -7.3 -20.65 -6.95 -21.3 -6.8 -21.4 -6.65 -21.4 -6.65 -21.45 -6.6 -21.55 -6.4 -21.8 -6.3 -22.05 -6.2 -22.1 -6.15 -22.15 -5.7 -22.25 -5.5 -22.25 -4.9 -21.9 -4.65 -21.7 -4.6 -21.25 -4.5 -21.1 M-3.45 -26.55 L-3.45 -26.3 -3.45 -26.15 -3.6 -25.9 -2.65 -25.3 -2.5 -25.5 -2.3 -25.9 -2.15 -26.15 -2.15 -26.4 -2.15 -26.55 -2.1 -26.6 -2.25 -26.7 -2.35 -26.8 -2.75 -27.55 -2.95 -27.0 -3.1 -26.8 -3.25 -26.7 -3.3 -26.6 -3.45 -26.55 M-5.85 -18.45 L-5.8 -18.5 -5.65 -18.5 -5.55 -18.65 -5.5 -19.25 -5.5 -19.3 -5.25 -19.7 -5.15 -19.9 -5.25 -21.05 -5.25 -21.2 -5.55 -21.45 -5.6 -21.4 -5.8 -21.05 -5.9 -20.85 -5.95 -20.85 -6.1 -20.8 -6.3 -20.75 -6.8 -19.75 -7.15 -19.15 -7.6 -18.3 Q-7.65 -17.4 -8.1 -16.65 L-8.5 -15.95 -8.35 -15.35 -8.4 -15.1 Q-8.25 -14.65 -7.8 -14.8 L-7.55 -14.9 -7.5 -15.0 -7.35 -15.05 -7.2 -15.1 -7.05 -15.35 -6.85 -15.75 -6.65 -16.15 -6.55 -16.2 -6.35 -16.2 -5.85 -17.15 -5.6 -17.65 -5.35 -17.75 -5.25 -17.85 -5.1 -18.2 -5.35 -18.25 -5.7 -18.35 -5.85 -18.45 M-9.25 -14.7 L-9.3 -14.85 -9.35 -15.0 -9.25 -15.1 -9.25 -15.25 -9.3 -15.4 -9.45 -15.6 -9.4 -15.7 -9.35 -15.95 -9.35 -16.15 -9.95 -16.15 -10.7 -14.55 Q-11.0 -13.85 -11.7 -13.35 L-11.6 -13.2 -11.65 -13.0 -11.7 -12.9 -11.35 -12.2 -10.9 -12.05 -10.55 -12.0 -9.55 -11.45 -9.4 -11.35 -9.25 -11.2 -9.2 -11.05 -9.2 -10.8 -9.3 -10.65 -9.3 -10.45 -9.25 -10.3 -9.1 -10.35 -8.8 -10.45 Q-8.65 -10.5 -8.45 -10.65 -8.3 -10.7 -8.25 -10.8 L-8.2 -10.9 -8.1 -11.05 -8.0 -11.25 -7.95 -11.35 -7.85 -11.4 -7.7 -11.45 -7.4 -11.6 -7.3 -11.65 -7.0 -12.15 -6.6 -12.95 -6.5 -13.15 -6.45 -13.25 -6.5 -13.4 -6.6 -13.7 -6.65 -13.9 -6.9 -14.2 -6.95 -14.25 Q-7.3 -14.0 -7.8 -13.9 L-8.5 -14.2 -8.6 -14.25 -9.0 -14.55 -9.2 -14.65 -9.25 -14.7 M-10.6 -8.85 L-10.65 -9.0 -10.6 -9.05 -10.45 -9.4 -10.4 -9.45 -10.5 -9.65 -10.5 -9.8 -10.3 -10.1 -10.1 -10.5 -10.1 -10.65 -10.15 -10.95 -10.2 -11.0 Q-10.2 -11.25 -10.7 -11.25 L-11.05 -11.35 -11.2 -11.2 -11.55 -10.8 -11.5 -10.65 -11.4 -10.4 -11.5 -10.3 -11.9 -10.15 -12.45 -9.05 -12.7 -8.5 -12.7 -8.4 -12.6 -8.15 -12.65 -8.05 -12.75 -7.95 -12.8 -7.9 -12.75 -7.85 -12.85 -7.65 -13.05 -7.25 -13.0 -6.8 -12.7 -6.3 -12.05 -6.45 -11.6 -6.7 -11.6 -6.75 -11.75 -6.9 -11.8 -7.25 -11.7 -7.45 -11.6 -7.65 -11.55 -7.7 -11.35 -7.8 -11.2 -7.8 -11.1 -7.85 -11.05 -7.8 -11.0 -7.85 -10.6 -8.65 -10.6 -8.85 M-13.85 -6.6 L-13.85 -6.75 -14.05 -7.8 -14.45 -7.8 -14.9 -7.9 -15.1 -7.45 -15.35 -6.85 -15.3 -6.7 -15.35 -6.55 -15.35 -6.4 -15.55 -5.9 Q-15.7 -5.4 -16.2 -5.3 L-16.3 -5.15 -16.55 -4.6 -16.65 -4.45 -16.75 -3.75 -16.8 -3.65 -16.4 -3.4 -16.25 -3.3 -16.2 -3.35 -16.15 -3.45 -16.1 -3.55 -15.85 -3.6 -15.8 -3.7 -15.75 -3.8 -15.7 -3.9 -15.15 -3.9 Q-14.95 -3.9 -14.8 -4.0 L-14.35 -3.9 Q-13.8 -3.6 -13.75 -3.15 L-13.75 -3.1 -13.65 -2.7 -13.65 -2.5 -13.6 -2.4 -13.75 -2.2 -13.75 -1.95 -13.75 -1.75 -13.7 -1.85 -13.45 -1.9 -13.3 -2.05 -13.05 -2.1 -12.75 -2.1 -12.4 -2.1 -11.95 -2.6 -11.5 -3.7 -11.45 -3.95 -11.45 -4.15 -11.35 -4.4 -11.4 -4.8 -11.45 -5.45 -11.35 -5.7 -11.3 -5.9 -11.55 -5.8 Q-11.65 -5.7 -11.85 -5.65 L-12.0 -5.65 -12.2 -5.6 -12.65 -5.6 -12.7 -5.55 -12.95 -5.65 Q-13.15 -5.7 -13.35 -5.85 L-13.85 -6.6" fill="#000000" fill-rule="evenodd" stroke="none"/>
    <path d="M-17.35 1.0 L-17.35 0.25 -16.85 -0.75 -15.95 -2.45 -15.9 -2.6 -15.4 -2.8 Q-15.25 -3.1 -14.8 -3.1 L-14.75 -3.0 -14.55 -2.7 -14.55 -2.4 -14.6 -2.0 -14.65 -1.95 -14.7 -1.8 -14.75 -1.7 -14.7 -1.55 -14.65 -1.45 -14.7 -1.3 -14.75 -1.2 -14.85 -1.1 -14.8 -1.0 -14.75 -0.9 -14.75 -0.75 -14.9 -0.5 -15.0 -0.25 -14.95 -0.15 -14.9 0.0 -15.05 0.3 -15.15 0.55 -15.35 0.55 -15.45 0.6 -15.65 1.0 -17.35 1.0 M-13.85 -0.85 L-13.8 -1.15 -13.85 -1.55 -13.8 -1.35 -13.75 -1.2 -13.6 -1.0 -13.45 -0.9 -13.85 -0.85 M16.3 1.0 L15.8 0.1 14.9 -1.6 14.85 -1.7 15.0 -2.1 Q14.8 -2.45 15.05 -2.85 L15.1 -2.85 15.5 -2.85 15.75 -2.65 16.05 -2.45 16.1 -2.35 16.15 -2.25 16.2 -2.15 16.35 -2.1 Q16.45 -2.0 16.5 -2.05 L16.55 -1.95 16.6 -1.85 16.7 -1.7 16.75 -1.7 16.9 -1.65 17.0 -1.6 17.15 -1.35 17.25 -1.1 17.4 -1.05 17.55 -1.05 17.7 -0.7 17.85 -0.5 17.7 -0.3 17.7 -0.2 18.05 0.4 18.4 1.0 16.3 1.0 M17.4 -2.4 L17.2 -2.55 16.9 -2.75 16.8 -2.8 16.8 -2.85 16.9 -2.75 17.05 -2.7 17.15 -2.65 17.45 -2.65 17.6 -2.75 17.4 -2.4 M2.05 -33.5 L1.8 -33.55 1.45 -33.4 1.3 -33.3 1.3 -33.45 1.35 -33.6 1.25 -33.75 1.2 -33.9 1.2 -33.95 2.05 -33.5 M0.05 -32.25 L0.0 -32.25 -0.1 -32.3 -0.3 -32.4 -0.45 -32.55 -1.0 -32.85 -1.3 -33.35 -1.35 -33.45 0.05 -34.2 0.4 -33.5 0.4 -33.35 0.4 -33.1 0.45 -32.8 0.5 -32.8 0.3 -32.5 0.2 -32.3 0.2 -32.35 0.05 -32.25 M-0.95 -31.65 L-0.95 -31.5 -0.9 -31.15 -0.9 -30.9 -0.95 -30.7 -1.0 -30.55 -1.1 -30.35 -0.9 -29.55 -0.45 -29.0 0.0 -28.85 0.1 -28.75 -0.1 -28.5 -0.25 -28.15 -0.25 -28.0 0.1 -27.35 0.1 -27.3 0.0 -27.3 -0.25 -27.5 -0.35 -27.55 -0.55 -27.6 -1.25 -28.5 -1.7 -29.3 -1.8 -29.45 -2.1 -30.1 -2.5 -30.8 -1.9 -31.35 -1.35 -32.05 -1.35 -32.0 -1.3 -31.9 -1.15 -31.85 -1.05 -31.8 -1.0 -31.7 -0.95 -31.65 M1.95 -29.15 L2.05 -29.3 Q2.35 -30.05 1.95 -30.65 L1.1 -31.75 1.35 -31.8 1.5 -31.9 1.5 -31.85 1.7 -31.75 1.8 -31.6 1.9 -31.6 1.95 -31.45 2.0 -31.35 2.1 -31.3 2.2 -31.2 2.35 -31.15 2.4 -31.05 2.55 -30.85 2.6 -30.75 2.65 -30.65 2.75 -30.65 Q2.85 -30.55 2.95 -30.55 L3.0 -30.45 Q3.05 -30.35 3.1 -30.4 L3.25 -30.15 3.3 -30.1 3.45 -30.05 3.5 -29.95 3.6 -29.8 3.65 -29.7 3.3 -28.55 3.2 -28.35 3.1 -28.4 3.05 -28.5 3.0 -28.6 3.0 -28.65 2.95 -28.75 2.75 -28.75 Q2.65 -28.75 2.65 -28.8 L2.6 -28.9 2.5 -28.95 2.35 -29.05 2.0 -29.15 1.95 -29.15 M9.35 -14.3 L10.05 -14.75 10.3 -15.6 10.75 -15.65 10.9 -15.65 11.25 -15.5 11.35 -15.5 11.45 -15.4 11.55 -15.2 12.0 -14.4 12.25 -13.85 12.25 -13.7 12.15 -13.5 12.1 -13.3 12.1 -13.15 12.15 -13.1 12.25 -12.85 12.35 -12.7 12.4 -12.65 12.4 -12.35 12.35 -11.95 12.25 -11.7 12.2 -11.55 12.05 -11.6 Q12.0 -11.55 11.95 -11.65 L11.85 -11.85 11.65 -11.95 11.5 -12.05 11.25 -12.0 11.1 -11.9 Q11.3 -12.55 10.9 -12.95 L9.85 -14.3 9.45 -14.3 9.35 -14.3 M0.65 -28.25 L1.15 -28.5 1.4 -28.5 1.65 -28.4 2.3 -28.0 2.3 -27.95 2.45 -27.7 2.6 -27.7 2.75 -27.7 2.75 -27.65 2.8 -27.55 2.85 -27.45 2.75 -27.15 2.8 -27.05 2.95 -26.95 2.8 -26.55 2.95 -26.45 3.2 -26.25 3.35 -26.0 3.55 -25.6 3.6 -25.4 2.55 -25.0 2.4 -25.25 2.3 -25.3 2.1 -25.5 2.15 -25.6 2.1 -25.7 2.1 -25.9 2.0 -26.1 1.95 -26.25 1.5 -26.7 1.45 -26.7 0.95 -27.7 0.65 -28.25 M9.85 -11.2 L9.5 -10.85 8.75 -10.9 8.7 -11.0 8.5 -11.2 8.35 -11.25 Q8.35 -12.05 7.95 -12.7 L7.0 -14.2 7.35 -14.7 7.55 -14.6 7.65 -14.45 7.8 -14.3 8.0 -14.3 8.15 -14.3 8.25 -14.25 8.3 -14.1 8.45 -14.05 8.6 -14.05 8.45 -13.9 8.3 -13.75 Q8.25 -13.15 8.55 -12.65 L8.95 -11.9 9.1 -11.8 9.3 -11.7 9.4 -11.65 9.45 -11.6 9.7 -11.3 9.85 -11.2 M4.25 -20.75 L4.3 -20.7 4.2 -20.55 4.35 -20.35 4.45 -20.1 4.5 -19.95 4.55 -19.9 4.45 -19.8 4.45 -19.6 4.8 -18.95 4.6 -18.9 4.45 -18.9 4.3 -18.95 3.65 -20.25 3.6 -20.3 3.2 -21.0 2.9 -21.25 2.75 -21.35 2.7 -21.45 2.4 -22.1 2.1 -22.45 2.05 -22.55 2.0 -22.65 2.0 -22.75 1.9 -22.9 1.9 -22.95 2.6 -23.4 4.45 -24.45 4.5 -24.45 4.75 -24.55 4.9 -24.5 5.15 -24.5 5.3 -24.3 5.4 -24.1 5.5 -23.9 5.55 -23.8 5.6 -23.65 5.75 -23.65 5.9 -23.55 6.15 -23.05 6.3 -22.75 6.45 -22.45 6.75 -22.25 6.8 -22.3 6.9 -22.05 7.15 -21.7 7.3 -21.6 7.45 -21.55 7.75 -21.6 8.15 -21.65 8.3 -21.75 7.95 -21.0 7.75 -20.6 7.7 -20.6 7.65 -20.65 7.4 -20.75 7.05 -21.05 6.95 -21.1 6.8 -21.3 6.35 -21.45 6.0 -21.5 5.85 -22.65 Q5.45 -23.35 4.4 -23.4 L4.05 -23.25 3.55 -23.1 3.6 -23.05 3.55 -23.0 3.35 -22.9 3.2 -22.8 3.1 -22.5 3.05 -22.35 3.05 -22.25 3.1 -22.15 3.4 -21.55 Q3.55 -21.4 3.75 -21.35 L3.9 -21.15 Q4.0 -20.9 4.2 -20.8 L4.25 -20.75 M9.3 -16.15 L9.45 -15.95 9.35 -15.8 9.35 -15.6 9.4 -15.5 9.35 -15.2 Q9.2 -14.8 8.75 -14.9 L8.6 -15.05 8.05 -15.25 7.65 -16.0 Q7.3 -16.8 6.55 -17.4 L6.1 -18.25 5.8 -18.9 5.25 -19.9 5.35 -20.05 5.4 -20.15 5.45 -20.15 5.35 -20.4 5.2 -20.7 5.15 -20.75 5.55 -20.9 Q5.55 -20.85 5.65 -20.85 L6.6 -20.3 6.75 -20.1 6.95 -19.7 6.95 -19.65 7.4 -19.25 7.5 -19.15 7.45 -19.0 7.45 -18.85 7.45 -18.8 8.95 -16.15 9.0 -16.0 9.3 -16.15 M14.45 -6.45 L14.55 -6.6 14.6 -6.75 14.65 -7.05 14.7 -7.3 14.8 -7.15 15.0 -6.95 Q15.3 -6.75 15.55 -6.65 L15.9 -6.45 16.1 -6.2 16.25 -6.1 16.45 -5.9 17.05 -4.95 17.25 -4.25 17.0 -4.05 16.8 -3.75 16.75 -3.5 16.8 -3.3 16.7 -3.05 16.7 -3.0 16.6 -3.05 16.4 -3.25 16.25 -3.45 16.2 -3.45 16.05 -3.55 15.6 -3.75 15.6 -3.8 15.25 -5.15 14.65 -6.35 14.45 -6.4 14.45 -6.45 M14.2 -3.05 L13.9 -2.55 13.95 -2.5 13.95 -2.4 14.0 -2.3 13.95 -2.05 14.0 -2.0 14.05 -1.9 14.05 -1.75 13.85 -1.75 13.45 -1.6 13.4 -1.7 12.9 -2.1 12.8 -2.25 12.55 -2.75 12.45 -2.95 12.3 -3.85 12.0 -4.35 11.95 -4.35 11.75 -4.45 11.65 -4.5 11.25 -5.05 11.05 -5.5 11.3 -5.85 11.6 -6.1 12.6 -5.65 12.7 -5.65 12.55 -5.5 13.05 -4.05 13.75 -3.2 14.0 -3.1 14.2 -3.05 M13.25 -8.55 L13.15 -8.5 13.1 -8.3 13.1 -8.15 13.05 -8.1 13.2 -7.9 13.35 -7.65 13.6 -7.55 13.85 -7.6 13.85 -7.55 13.8 -7.0 13.6 -6.35 13.05 -6.4 12.65 -6.6 12.4 -6.95 12.3 -7.2 12.2 -7.25 12.2 -7.3 12.2 -7.35 12.15 -7.45 11.85 -7.65 11.75 -7.6 11.4 -8.2 10.85 -9.3 10.95 -9.6 10.95 -9.7 10.65 -9.9 10.5 -9.9 10.4 -10.4 10.35 -10.6 10.65 -10.85 Q10.85 -11.3 11.15 -11.1 L11.2 -11.1 11.5 -10.95 11.55 -10.9 11.8 -10.5 11.95 -10.2 12.05 -10.1 12.25 -10.1 12.3 -10.0 12.45 -9.7 12.5 -9.6 12.65 -9.55 13.25 -8.55 M-6.15 -22.15 L-6.2 -22.1 -6.3 -22.05 -6.4 -21.8 -6.6 -21.55 -6.65 -21.45 -6.65 -21.4 -6.8 -21.4 -6.95 -21.3 -7.3 -20.65 -7.45 -20.8 -7.55 -20.9 -7.6 -21.0 -6.85 -22.35 -6.85 -22.4 -6.55 -23.1 -6.45 -23.55 -6.45 -23.75 -6.45 -23.8 -6.05 -24.4 -5.95 -24.85 -5.9 -24.9 -5.8 -25.05 -5.75 -25.15 -5.65 -25.3 -4.85 -25.0 -2.95 -24.05 -2.9 -24.05 -2.75 -23.8 -2.65 -23.7 -2.5 -23.5 -2.6 -23.25 -2.7 -23.1 -2.85 -22.85 -2.9 -22.8 -2.95 -22.65 -2.9 -22.5 -2.9 -22.35 -3.15 -21.85 -3.35 -21.55 -3.5 -21.25 -3.45 -20.95 -3.4 -20.85 -3.5 -20.65 -3.7 -20.3 -3.75 -20.05 -3.7 -19.9 -3.45 -19.7 -3.15 -19.45 -3.0 -19.35 -3.8 -19.2 -4.25 -19.2 -4.25 -19.25 -4.35 -19.55 -4.3 -19.95 -4.3 -20.1 -4.25 -20.35 -4.4 -20.7 -4.5 -21.1 -3.65 -21.9 Q-3.3 -22.6 -3.85 -23.5 L-4.15 -23.75 -4.6 -24.0 -4.6 -23.95 -4.65 -24.0 -4.85 -24.1 -5.05 -24.15 -5.35 -24.1 -5.45 -24.05 -5.55 -23.95 -5.65 -23.8 -5.95 -23.25 -5.9 -22.85 -6.0 -22.6 -6.15 -22.15 M-1.65 -33.35 L-1.55 -33.35 -1.65 -33.3 -1.65 -33.35 M-3.45 -26.55 L-3.3 -26.6 -3.25 -26.7 -3.1 -26.8 -2.95 -27.0 -2.75 -27.55 -2.35 -26.8 -2.25 -26.7 -2.1 -26.6 -2.15 -26.55 -2.15 -26.4 -2.15 -26.15 -2.3 -25.9 -2.5 -25.5 -2.65 -25.3 -3.6 -25.9 -3.45 -26.15 -3.45 -26.3 -3.45 -26.55 M-5.25 -21.2 L-5.25 -21.05 -5.15 -19.9 -5.25 -19.7 -5.5 -19.3 -5.5 -19.25 -5.55 -18.65 -5.65 -18.5 -5.8 -18.5 -5.85 -18.45 -5.95 -18.35 -7.3 -15.6 -7.35 -15.5 -7.05 -15.35 -7.2 -15.1 -7.35 -15.05 -7.5 -15.0 -7.55 -14.9 -7.8 -14.8 Q-8.25 -14.65 -8.4 -15.1 L-8.35 -15.35 -8.5 -15.95 -8.1 -16.65 Q-7.65 -17.4 -7.6 -18.3 L-7.15 -19.15 -6.8 -19.75 -6.3 -20.75 -6.1 -20.8 -5.95 -20.85 -5.9 -20.85 -5.8 -21.05 -5.6 -21.4 -5.25 -21.2 M-10.9 -12.05 L-11.35 -12.2 -11.7 -12.9 -11.65 -13.0 -11.6 -13.2 -11.7 -13.35 Q-11.0 -13.85 -10.7 -14.55 L-9.95 -16.15 -9.35 -16.15 -9.35 -15.95 -9.4 -15.7 -9.45 -15.6 -9.3 -15.4 -9.25 -15.25 -9.25 -15.1 -9.35 -15.0 -9.3 -14.85 -9.25 -14.7 -9.4 -14.75 -9.65 -14.8 -10.4 -14.0 -10.8 -13.2 -10.75 -13.05 -10.75 -12.9 -10.7 -12.75 -10.75 -12.65 -10.85 -12.3 -10.9 -12.05 M-8.5 -14.2 L-7.8 -13.9 Q-7.3 -14.0 -6.95 -14.25 L-6.9 -14.2 -6.65 -13.9 -6.6 -13.7 -6.5 -13.4 -6.45 -13.25 -6.5 -13.15 -6.6 -12.95 -7.0 -12.15 -7.3 -11.65 -7.4 -11.6 -7.7 -11.45 -7.85 -11.4 -7.95 -11.35 -8.0 -11.25 -8.1 -11.05 -8.2 -10.9 -8.25 -10.8 Q-8.3 -10.7 -8.45 -10.65 -8.65 -10.5 -8.8 -10.45 L-9.1 -10.35 -9.25 -10.3 -9.3 -10.45 -9.3 -10.65 -9.2 -10.8 -9.2 -11.05 -9.25 -11.2 -9.4 -11.35 -9.55 -11.45 Q-8.9 -11.7 -8.75 -12.25 L-8.3 -13.85 -8.5 -14.2 M-11.1 -7.85 L-11.2 -7.8 -11.35 -7.8 -11.55 -7.7 -11.6 -7.65 -11.7 -7.45 -11.8 -7.25 -11.75 -6.9 -11.6 -6.75 -11.6 -6.7 -12.05 -6.45 -12.7 -6.3 -13.0 -6.8 -13.05 -7.25 -12.85 -7.65 -12.75 -7.85 -12.8 -7.9 -12.75 -7.95 -12.65 -8.05 -12.6 -8.15 -12.7 -8.4 -12.7 -8.5 -12.45 -9.05 -11.9 -10.15 -11.5 -10.3 -11.4 -10.4 -11.5 -10.65 -11.55 -10.8 -11.2 -11.2 -11.05 -11.35 -10.7 -11.25 Q-10.2 -11.25 -10.2 -11.0 L-10.15 -10.95 -10.1 -10.65 -10.1 -10.5 -10.3 -10.1 -10.5 -9.8 -10.5 -9.65 -10.4 -9.45 -10.45 -9.4 -10.6 -9.05 -10.65 -9.0 -10.6 -8.85 -11.1 -7.85 M-15.15 -3.9 L-15.7 -3.9 -15.75 -3.8 -15.8 -3.7 -15.85 -3.6 -16.1 -3.55 -16.15 -3.45 -16.2 -3.35 -16.25 -3.3 -16.4 -3.4 -16.8 -3.65 -16.75 -3.75 -16.65 -4.45 -16.55 -4.6 -16.3 -5.15 -16.2 -5.3 Q-15.7 -5.4 -15.55 -5.9 L-15.35 -6.4 -15.35 -6.55 -15.3 -6.7 -15.35 -6.85 -15.1 -7.45 -14.9 -7.9 -14.45 -7.8 -14.05 -7.8 -13.85 -6.75 -13.85 -6.6 -14.0 -6.65 -14.95 -5.45 -15.25 -4.35 -15.15 -4.1 -15.15 -3.9 M-12.2 -5.6 L-12.0 -5.65 -11.85 -5.65 Q-11.65 -5.7 -11.55 -5.8 L-11.3 -5.9 -11.35 -5.7 -11.45 -5.45 -11.4 -4.8 -11.35 -4.4 -11.45 -4.15 -11.45 -3.95 -11.5 -3.7 -11.95 -2.6 -12.4 -2.1 -12.75 -2.1 -13.05 -2.1 -13.3 -2.05 -13.45 -1.9 -13.7 -1.85 -13.75 -1.75 -13.75 -1.95 -13.75 -2.2 -13.6 -2.4 -13.65 -2.5 -13.65 -2.7 -13.75 -3.1 -12.8 -4.2 -12.1 -5.45 -12.2 -5.55 -12.2 -5.6" fill="#999999" fill-rule="evenodd" stroke="none"/>
    <path d="M0.05 -32.25 L0.2 -32.35 0.2 -32.3 0.25 -32.25 0.05 -32.25 M-0.95 -31.65 L-0.7 -31.55 -0.45 -31.4 -0.3 -31.4 -0.05 -31.5 0.4 -31.7 0.45 -31.75 0.6 -31.7 0.85 -31.7 1.1 -31.75 1.95 -30.65 Q2.35 -30.05 2.05 -29.3 L1.95 -29.15 1.25 -29.2 1.2 -29.2 0.95 -29.15 0.1 -28.75 0.0 -28.85 -0.45 -29.0 -0.9 -29.55 -1.1 -30.35 -1.0 -30.55 -0.95 -30.7 -0.9 -30.9 -0.9 -31.15 -0.95 -31.5 -0.95 -31.65 M9.35 -14.3 L9.45 -14.3 9.85 -14.3 10.9 -12.95 Q11.3 -12.55 11.1 -11.9 L10.1 -11.35 9.85 -11.2 9.7 -11.3 9.45 -11.6 9.4 -11.65 9.3 -11.7 9.1 -11.8 8.95 -11.9 8.55 -12.65 Q8.25 -13.15 8.3 -13.75 L8.45 -13.9 8.6 -14.05 8.65 -14.0 8.85 -14.1 9.35 -14.3 M4.25 -20.75 L4.2 -20.8 Q4.0 -20.9 3.9 -21.15 L3.75 -21.35 Q3.55 -21.4 3.4 -21.55 L3.1 -22.15 3.05 -22.25 3.05 -22.35 3.1 -22.5 3.2 -22.8 3.35 -22.9 3.55 -23.0 3.6 -23.05 3.55 -23.1 4.05 -23.25 4.4 -23.4 Q5.45 -23.35 5.85 -22.65 L6.0 -21.5 5.85 -21.55 5.45 -21.7 5.15 -21.6 4.5 -21.35 4.4 -21.15 4.25 -20.75 M5.15 -20.75 L5.15 -20.8 5.55 -20.9 5.15 -20.75 M14.45 -6.45 L14.45 -6.4 14.65 -6.35 15.25 -5.15 15.6 -3.8 14.65 -3.65 14.35 -3.3 14.2 -3.05 14.0 -3.1 13.75 -3.2 13.05 -4.05 12.55 -5.5 12.7 -5.65 13.6 -5.6 14.0 -5.8 14.2 -6.0 14.45 -6.45 M-6.15 -22.15 L-6.0 -22.6 -5.9 -22.85 -5.95 -23.25 -5.65 -23.8 -5.55 -23.95 -5.45 -24.05 -5.35 -24.1 -5.05 -24.15 -4.85 -24.1 -4.65 -24.0 -4.6 -23.95 -4.6 -24.0 -4.15 -23.75 -3.85 -23.5 Q-3.3 -22.6 -3.65 -21.9 L-4.5 -21.1 -4.6 -21.25 -4.65 -21.7 -4.9 -21.9 -5.5 -22.25 -5.7 -22.25 -6.15 -22.15 M-5.6 -21.4 L-5.55 -21.45 -5.25 -21.2 -5.6 -21.4 M-10.9 -12.05 L-10.85 -12.3 -10.75 -12.65 -10.7 -12.75 -10.75 -12.9 -10.75 -13.05 -10.8 -13.2 -10.4 -14.0 -9.65 -14.8 -9.4 -14.75 -9.25 -14.7 -9.2 -14.65 -9.0 -14.55 -8.6 -14.25 -8.5 -14.2 -8.3 -13.85 -8.75 -12.25 Q-8.9 -11.7 -9.55 -11.45 L-10.55 -12.0 -10.9 -12.05 M-15.15 -3.9 L-15.15 -4.1 -15.25 -4.35 -14.95 -5.45 -14.0 -6.65 -13.85 -6.6 -13.35 -5.85 Q-13.15 -5.7 -12.95 -5.65 L-12.7 -5.55 -12.65 -5.6 -12.2 -5.6 -12.2 -5.55 -12.1 -5.45 -12.8 -4.2 -13.75 -3.1 -13.75 -3.15 Q-13.8 -3.6 -14.35 -3.9 L-14.8 -4.0 Q-14.95 -3.9 -15.15 -3.9" fill="#666666" fill-rule="evenodd" stroke="none"/>
  </g>
</svg>
