<?xml version="1.0" encoding="UTF-8" standalone="no"?>
<svg xmlns:ffdec="https://www.free-decompiler.com/flash" xmlns:xlink="http://www.w3.org/1999/xlink" ffdec:objectType="shape" height="26.0px" width="130.0px" xmlns="http://www.w3.org/2000/svg">
  <g transform="matrix(1.0, 0.0, 0.0, 1.0, 64.5, 13.25)">
    <path d="M9.05 -9.5 L9.45 -9.7 9.7 -9.8 9.8 -9.85 10.15 -9.95 10.5 -9.95 10.5 -10.0 11.5 -10.0 11.9 -9.95 12.3 -9.8 12.6 -9.6 12.85 -9.45 13.05 -9.25 13.25 -9.05 13.45 -8.85 13.55 -8.7 13.7 -8.5 13.8 -8.3 13.9 -8.1 13.95 -7.95 13.95 -8.0 14.2 -8.2 14.55 -8.35 14.95 -8.55 15.05 -8.75 15.15 -8.95 15.2 -9.1 15.3 -9.3 15.45 -9.5 15.65 -9.7 15.8 -9.85 16.2 -10.05 16.55 -10.15 16.55 -10.25 16.65 -10.45 16.7 -10.6 16.8 -10.8 16.95 -11.0 17.15 -11.2 17.3 -11.35 17.7 -11.55 18.15 -11.7 18.5 -11.7 18.5 -11.75 18.9 -11.7 19.3 -11.55 19.6 -11.35 19.85 -11.2 20.05 -11.0 20.2 -10.8 20.4 -10.6 20.5 -10.45 20.65 -10.25 20.8 -10.05 20.95 -9.85 21.05 -9.7 21.25 -9.5 21.4 -9.3 21.5 -9.1 21.7 -8.95 21.8 -8.75 22.0 -8.55 22.2 -8.35 22.4 -8.2 22.5 -8.0 22.55 -7.8 22.7 -7.6 22.9 -7.45 23.25 -7.05 23.8 -6.5 24.4 -5.95 24.7 -5.7 24.75 -5.8 24.75 -6.0 24.65 -6.2 24.55 -6.35 24.5 -6.55 24.45 -6.75 24.4 -6.95 24.3 -7.1 24.25 -7.3 24.25 -7.5 24.15 -7.7 24.05 -7.85 23.95 -8.05 23.9 -8.25 23.8 -8.45 23.75 -8.6 23.75 -8.8 23.75 -9.0 23.75 -9.2 23.75 -9.35 23.75 -9.55 23.75 -9.75 23.75 -9.95 23.75 -10.1 23.8 -10.3 23.9 -10.5 23.95 -10.7 24.05 -10.85 24.25 -11.05 24.45 -11.25 24.7 -11.45 24.95 -11.55 25.05 -11.6 25.4 -11.7 25.75 -11.75 27.5 -11.75 27.9 -11.7 28.3 -11.55 28.6 -11.35 28.9 -11.2 29.2 -11.0 29.95 -10.6 30.15 -10.5 30.4 -10.45 30.8 -10.3 31.2 -10.1 31.55 -9.95 31.75 -9.8 31.8 -9.75 32.15 -9.7 32.55 -9.55 32.95 -9.4 33.25 -9.25 33.65 -9.2 34.05 -9.05 34.05 -9.1 34.15 -9.3 34.25 -9.5 34.4 -9.7 34.55 -9.85 34.75 -10.05 35.05 -10.25 35.3 -10.35 35.65 -10.45 36.0 -10.5 38.25 -10.5 38.65 -10.45 39.05 -10.3 39.35 -10.1 39.6 -9.95 39.8 -9.75 40.0 -9.55 40.15 -9.35 40.25 -9.2 40.4 -9.0 40.5 -8.8 40.65 -8.6 40.75 -8.45 40.9 -8.25 40.95 -8.05 41.05 -7.85 41.15 -7.7 41.25 -7.5 41.3 -7.3 41.4 -7.1 41.45 -6.95 41.5 -6.75 41.55 -6.55 41.65 -6.35 41.7 -6.2 41.75 -6.0 41.75 -5.8 41.75 -5.25 41.75 -4.5 41.75 -3.35 41.75 -2.25 41.75 -1.7 41.8 -1.5 41.95 -1.3 42.0 -1.1 42.05 -0.95 42.15 -0.75 42.2 -0.55 42.2 -0.35 42.25 -0.2 42.25 0.0 42.25 0.2 42.3 0.4 42.4 0.35 42.5 0.2 42.65 0.0 42.7 -0.2 42.75 -0.35 42.8 -0.55 42.9 -0.75 43.0 -0.95 43.05 -1.1 43.15 -1.3 43.25 -1.5 43.3 -1.7 43.45 -1.85 43.5 -2.05 43.5 -2.25 43.5 -2.8 43.5 -3.55 43.5 -4.7 43.5 -5.8 43.5 -6.35 43.45 -6.55 43.4 -6.75 43.3 -6.95 43.25 -7.1 43.25 -7.3 43.25 -7.5 43.25 -7.7 43.2 -7.85 43.15 -8.05 43.0 -8.25 42.9 -8.45 42.8 -8.6 42.8 -8.8 42.75 -9.0 42.75 -9.2 42.75 -9.35 42.75 -9.55 42.8 -9.75 42.9 -9.95 42.95 -10.1 43.05 -10.3 43.2 -10.5 43.4 -10.7 43.55 -10.85 43.95 -11.05 44.4 -11.2 44.75 -11.2 44.75 -11.25 49.0 -11.25 49.4 -11.2 49.8 -11.05 50.1 -10.85 50.35 -10.7 50.55 -10.5 50.75 -10.3 50.9 -10.1 51.0 -9.95 51.2 -10.05 51.3 -10.1 51.65 -10.2 52.0 -10.2 52.0 -10.25 59.75 -10.25 60.15 -10.15 61.15 -9.95 61.55 -9.8 62.15 -9.7 62.55 -9.55 62.85 -9.35 63.1 -9.2 63.3 -9.0 63.45 -8.8 63.5 -8.6 63.65 -8.45 63.7 -8.25 63.7 -8.05 63.75 -7.85 63.75 -7.7 63.75 -7.5 63.7 -7.3 63.65 -7.1 63.55 -6.95 63.45 -6.75 63.3 -6.55 63.25 -6.35 63.4 -6.2 63.45 -6.0 63.5 -5.8 63.7 -5.6 63.8 -5.45 63.95 -5.25 64.05 -5.05 64.15 -4.85 64.2 -4.7 64.25 -4.5 64.3 -4.3 64.45 -4.1 64.5 -3.95 64.65 -3.75 64.7 -3.55 64.75 -3.35 64.9 -3.2 64.95 -3.0 64.95 -2.8 65.0 -2.6 65.0 -2.45 65.0 -2.25 65.0 -2.05 65.0 -1.85 65.0 -1.7 65.0 -1.5 65.0 -1.3 65.0 -1.1 65.0 -0.95 65.0 -0.75 64.95 -0.55 65.0 -0.35 65.15 -0.2 65.2 0.0 65.3 0.2 65.4 0.4 65.45 0.55 65.5 0.75 65.5 0.95 65.5 1.15 65.5 1.3 65.5 1.5 65.5 1.7 65.5 2.05 65.5 2.45 65.45 2.65 65.4 2.8 65.3 3.0 65.25 3.2 65.15 3.4 65.0 3.55 64.8 3.75 64.7 3.95 64.7 4.15 64.75 4.3 64.75 4.7 64.75 5.05 64.75 5.65 64.75 6.4 64.75 7.15 64.75 7.5 64.7 7.7 64.65 7.9 64.55 8.05 64.45 8.25 64.3 8.45 64.2 8.65 64.05 8.8 63.95 9.0 63.8 9.2 63.7 9.4 63.5 9.55 63.2 9.75 62.95 9.9 62.65 9.95 62.25 10.0 61.0 10.0 59.15 10.05 58.95 10.1 58.65 10.2 58.25 10.25 57.45 10.3 57.0 10.45 56.45 10.6 56.15 10.7 55.75 10.75 54.7 10.9 54.15 11.05 53.45 11.25 52.75 11.45 52.2 11.6 50.9 11.9 50.75 12.05 50.55 12.25 50.3 12.45 50.05 12.55 49.95 12.6 49.65 12.7 49.25 12.75 49.0 12.75 48.65 12.7 48.2 12.55 47.8 12.4 47.65 12.2 47.3 12.0 47.0 11.8 46.9 11.7 46.45 11.55 46.05 11.4 45.9 11.2 45.7 11.0 45.55 10.8 45.45 10.65 45.4 10.45 45.3 10.25 45.25 10.05 45.25 9.9 45.25 9.85 45.2 9.9 44.9 9.95 44.3 10.1 43.8 10.25 43.05 10.55 42.95 10.6 42.65 10.7 42.25 10.75 41.7 10.9 41.3 11.05 40.95 11.25 40.7 11.4 40.4 11.45 40.0 11.5 37.5 11.5 37.15 11.45 36.7 11.3 36.3 11.15 36.0 11.0 35.65 10.95 35.2 10.8 34.8 10.65 34.65 10.45 34.45 10.25 34.2 10.05 33.9 9.95 33.75 10.05 33.45 10.25 33.2 10.4 32.9 10.45 32.5 10.5 29.5 10.5 29.15 10.45 28.7 10.3 28.3 10.15 27.95 9.95 27.7 9.75 27.5 9.55 27.05 9.35 26.7 9.2 26.45 9.0 26.25 8.85 25.7 8.45 24.95 8.05 24.55 7.9 24.4 7.7 24.2 7.5 24.05 7.3 24.0 7.25 24.0 8.5 23.95 8.7 23.9 8.9 23.8 9.05 23.75 9.25 23.75 9.45 23.7 9.65 23.65 9.8 23.55 10.0 23.5 10.2 23.45 10.4 23.3 10.75 23.25 10.95 23.15 11.15 23.0 11.3 22.8 11.5 22.55 11.7 22.3 11.8 22.2 11.85 21.9 11.95 21.5 12.0 20.5 12.0 20.15 11.95 19.7 11.8 19.3 11.65 18.95 11.45 18.7 11.35 18.15 11.2 17.65 11.05 16.8 11.05 16.6 11.1 16.3 11.3 15.9 11.45 15.5 11.5 15.15 11.45 14.7 11.3 14.3 11.15 14.15 10.95 14.05 10.85 13.95 10.8 13.8 10.75 13.75 10.8 13.55 11.0 13.35 11.2 13.1 11.35 12.8 11.55 12.35 11.7 12.0 11.75 7.0 11.75 6.65 11.7 6.2 11.55 5.8 11.4 5.55 11.25 5.4 11.2 4.95 11.05 4.55 10.9 4.4 10.7 4.2 10.5 3.95 10.3 3.55 10.15 3.4 9.95 3.2 9.75 3.0 9.55 2.8 9.4 2.75 9.35 2.45 9.5 2.2 9.65 1.9 9.7 1.3 9.85 0.8 10.0 0.45 10.1 0.15 10.2 -0.25 10.25 -5.0 10.25 -5.35 10.2 -5.8 10.05 -6.2 9.9 -6.35 9.7 -6.55 9.5 -6.75 9.3 -6.95 9.15 -7.1 8.95 -7.5 8.55 -7.7 8.4 -7.8 8.2 -7.9 8.05 -7.95 8.15 -8.05 8.3 -8.1 8.5 -8.25 8.7 -8.35 8.9 -8.5 9.05 -8.6 9.25 -8.75 9.45 -8.85 9.65 -9.0 9.8 -9.2 10.0 -9.35 10.2 -9.55 10.4 -9.75 10.55 -9.95 10.75 -10.15 10.95 -10.4 11.1 -10.7 11.3 -11.15 11.45 -11.5 11.5 -12.5 11.5 -12.85 11.45 -13.3 11.3 -13.7 11.15 -13.85 10.95 -14.2 10.75 -14.5 10.55 -14.7 10.4 -14.85 10.2 -15.05 10.0 -15.3 9.8 -15.7 9.65 -15.85 9.45 -16.05 9.25 -16.25 9.05 -16.45 8.9 -16.6 8.7 -16.8 8.5 -17.0 8.4 -17.05 8.55 -17.05 8.75 -17.1 8.95 -17.25 9.15 -17.3 9.3 -17.45 9.5 -17.6 9.7 -17.8 9.9 -17.95 10.05 -18.05 10.25 -18.2 10.45 -18.3 10.65 -18.5 10.8 -18.75 11.0 -18.95 11.2 -19.05 11.4 -19.25 11.55 -19.45 11.75 -19.7 11.95 -20.1 12.15 -20.5 12.3 -20.8 12.5 -21.05 12.65 -21.35 12.7 -21.75 12.75 -24.25 12.75 -24.6 12.7 -25.05 12.55 -25.45 12.4 -25.6 12.2 -25.8 12.0 -25.95 11.8 -26.05 11.65 -26.1 11.45 -26.2 11.25 -26.25 11.05 -26.25 10.9 -26.25 10.7 -26.3 10.5 -26.45 10.3 -26.55 10.15 -26.6 9.95 -26.7 9.75 -26.75 9.55 -26.8 9.4 -26.85 9.2 -26.95 9.0 -27.0 8.8 -27.0 8.25 -27.05 8.3 -27.1 8.5 -27.25 8.7 -27.35 8.9 -27.5 9.05 -27.7 9.25 -27.85 9.45 -28.05 9.65 -28.25 9.8 -28.55 10.0 -28.85 10.2 -29.15 10.35 -29.45 10.55 -29.7 10.75 -29.95 10.95 -30.3 11.15 -30.7 11.3 -31.1 11.45 -31.7 11.55 -32.15 11.7 -32.5 11.75 -38.0 11.75 -38.35 11.7 -38.7 11.6 -38.8 11.55 -40.0 11.5 -40.35 11.45 -40.8 11.3 -41.2 11.15 -41.35 10.95 -41.55 10.75 -41.75 10.55 -41.95 10.4 -42.1 10.2 -42.3 10.0 -42.5 9.8 -42.7 9.65 -42.8 9.45 -42.85 9.25 -42.9 9.2 -43.3 9.3 -43.6 9.5 -43.95 9.6 -44.15 9.7 -45.5 9.95 -46.35 10.05 -46.6 10.15 -46.8 10.2 -46.85 10.2 -46.95 10.25 -47.3 10.45 -47.7 10.65 -47.95 10.8 -48.2 11.0 -48.45 11.1 -49.35 11.4 -50.45 11.85 -51.7 12.15 -53.2 12.65 -53.75 12.75 -55.5 12.75 -56.05 12.65 -56.45 12.45 -56.6 12.25 -56.8 12.05 -57.1 11.9 -57.45 11.7 -57.6 11.5 -57.75 11.3 -57.95 11.15 -58.2 10.95 -58.35 10.75 -58.5 10.55 -58.6 10.4 -58.75 10.2 -58.85 10.0 -59.05 9.8 -59.25 9.65 -59.65 9.45 -60.1 9.25 -60.3 9.05 -60.5 8.9 -60.6 8.7 -60.7 8.5 -60.8 8.3 -61.0 8.15 -61.2 7.95 -61.35 7.75 -61.5 7.55 -61.6 7.4 -61.7 7.2 -61.75 7.0 -61.75 6.8 -61.75 6.65 -61.75 6.45 -61.7 6.4 -61.75 6.4 -61.85 6.2 -61.95 6.0 -62.05 5.8 -62.1 5.65 -62.25 5.45 -62.35 5.25 -62.5 5.05 -62.75 4.85 -62.95 4.7 -63.1 4.5 -63.25 4.3 -63.35 4.15 -63.5 3.95 -63.6 3.75 -63.75 3.55 -63.85 3.4 -63.95 3.2 -64.0 3.0 -64.05 2.8 -64.1 2.65 -64.2 2.45 -64.3 2.25 -64.45 2.05 -64.45 1.9 -64.5 1.7 -64.5 1.5 -64.5 1.3 -64.5 0.95 -64.5 0.75 -64.5 0.55 -64.5 0.2 -64.5 -0.2 -64.5 -0.35 -64.5 -0.55 -64.5 -0.75 -64.45 -0.95 -64.35 -1.1 -64.3 -1.3 -64.25 -1.5 -64.25 -1.7 -64.25 -1.85 -64.25 -2.05 -64.25 -2.45 -64.25 -2.6 -64.25 -2.8 -64.25 -3.0 -64.25 -3.2 -64.2 -3.35 -64.2 -3.55 -64.05 -3.75 -64.0 -3.95 -63.85 -4.1 -63.75 -4.3 -63.6 -4.5 -63.55 -4.7 -63.5 -4.85 -63.45 -5.05 -63.3 -5.25 -63.25 -5.45 -63.25 -5.6 -63.25 -5.8 -63.2 -6.0 -63.1 -6.2 -63.0 -6.35 -62.8 -6.55 -62.6 -6.75 -62.5 -6.95 -62.45 -7.1 -62.45 -7.3 -62.3 -7.5 -62.2 -7.7 -62.1 -7.85 -62.05 -8.05 -62.0 -8.25 -61.95 -8.45 -61.85 -8.6 -61.75 -8.8 -61.7 -9.0 -61.6 -9.2 -61.5 -9.35 -61.45 -9.55 -61.3 -9.75 -61.2 -9.95 -61.0 -10.1 -60.8 -10.3 -60.6 -10.5 -60.45 -10.7 -60.05 -10.85 -59.5 -11.0 -59.05 -11.1 -58.0 -11.35 -57.75 -11.55 -57.35 -11.75 -57.0 -11.95 -56.65 -12.15 -56.3 -12.3 -56.1 -12.5 -55.8 -12.6 -55.6 -12.7 -54.85 -12.9 -54.5 -13.0 -54.05 -13.1 -53.5 -13.2 -53.5 -13.25 -51.5 -13.25 -50.95 -13.1 -50.6 -12.95 -50.45 -12.8 -50.25 -12.75 -49.7 -12.6 -49.4 -12.45 -49.1 -12.25 -48.85 -12.1 -48.75 -12.1 -47.55 -12.1 -47.0 -12.25 -46.45 -12.1 -46.15 -11.95 -45.85 -11.75 -45.75 -11.55 -45.7 -11.35 -45.55 -11.2 -45.55 -11.0 -45.5 -10.8 -45.5 -10.6 -45.55 -10.45 -45.6 -10.25 -45.7 -10.05 -45.8 -9.85 -45.95 -9.7 -46.15 -9.5 -46.4 -9.3 -46.55 -9.2 -46.2 -9.1 -45.9 -8.95 -45.65 -8.75 -45.45 -8.55 -45.3 -8.35 -45.2 -8.2 -45.1 -8.0 -45.05 -7.8 -45.0 -7.6 -44.85 -7.45 -44.75 -7.25 -44.6 -7.05 -44.55 -6.85 -44.5 -6.7 -44.5 -6.5 -44.5 -6.3 -44.5 -5.95 -44.5 -5.75 -44.35 -5.95 -44.2 -6.1 -44.0 -6.3 -43.85 -6.5 -43.8 -6.7 -43.7 -6.85 -43.5 -7.05 -43.3 -7.25 -43.1 -7.45 -42.95 -7.6 -42.75 -7.8 -42.55 -8.0 -42.35 -8.2 -42.2 -8.35 -41.8 -8.55 -41.45 -8.75 -41.2 -8.85 -40.85 -8.95 -40.5 -9.0 -39.85 -9.05 -39.7 -9.1 -39.35 -9.2 -39.0 -9.25 -38.2 -9.35 -37.6 -9.55 -37.1 -9.7 -36.75 -9.7 -36.75 -9.75 -33.5 -9.75 -33.15 -9.7 -32.7 -9.55 -32.35 -9.45 -31.95 -9.3 -31.55 -9.1 -31.2 -8.95 -30.8 -8.75 -30.5 -8.55 -30.3 -8.35 -29.95 -8.2 -29.7 -8.0 -29.5 -7.8 -29.3 -7.6 -29.1 -7.45 -28.95 -7.25 -28.75 -7.05 -28.6 -6.85 -28.55 -6.95 -28.45 -7.1 -28.25 -7.3 -28.05 -7.5 -27.85 -7.7 -27.75 -7.85 -27.7 -8.05 -27.6 -8.25 -27.55 -8.45 -27.5 -8.6 -27.5 -8.8 -27.5 -9.0 -27.5 -9.2 -27.5 -9.35 -27.45 -9.55 -27.35 -9.75 -27.3 -9.95 -27.2 -10.1 -27.1 -10.3 -27.0 -10.5 -26.85 -10.7 -26.8 -10.85 -26.7 -11.05 -26.55 -11.25 -26.35 -11.45 -26.2 -11.6 -25.8 -11.8 -25.35 -11.95 -25.0 -11.95 -25.0 -12.0 -24.0 -12.0 -23.65 -11.95 -23.2 -11.8 -22.85 -11.7 -22.45 -11.55 -22.05 -11.35 -21.7 -11.2 -21.45 -11.0 -20.95 -10.8 -20.65 -10.6 -20.35 -10.45 -20.05 -10.25 -19.7 -10.05 -19.35 -9.85 -19.2 -9.75 -19.1 -9.7 -18.7 -9.55 -18.4 -9.35 -18.15 -9.2 -17.95 -9.0 -17.8 -8.8 -17.75 -8.6 -17.6 -8.45 -17.45 -8.25 -17.3 -8.05 -17.1 -7.9 -16.9 -7.7 -16.7 -7.5 -16.5 -7.3 -16.3 -7.1 -16.2 -6.95 -16.05 -6.75 -15.95 -6.55 -15.85 -6.35 -15.7 -6.2 -15.45 -6.0 -15.25 -5.8 -15.05 -5.7 -15.0 -5.75 -15.0 -6.1 -15.0 -6.5 -15.0 -6.85 -15.0 -7.25 -15.0 -7.6 -15.0 -8.0 -15.0 -8.55 -15.0 -8.95 -15.0 -9.1 -14.95 -9.3 -14.85 -9.5 -14.8 -9.7 -14.7 -9.85 -14.5 -10.05 -14.3 -10.25 -14.1 -10.45 -13.95 -10.6 -13.55 -10.8 -13.1 -10.95 -12.75 -11.0 -12.0 -11.0 -11.65 -10.95 -11.2 -10.8 -10.8 -10.6 -10.45 -10.45 -10.2 -10.25 -9.7 -10.05 -9.4 -9.85 -9.15 -9.7 -9.0 -9.7 -6.95 -9.8 -6.5 -9.95 -5.7 -10.2 -4.6 -10.4 -2.1 -10.55 -1.95 -10.6 -1.6 -10.7 -1.25 -10.7 -1.25 -10.75 4.0 -10.75 4.4 -10.7 4.8 -10.55 5.4 -10.45 5.8 -10.3 6.15 -10.1 6.3 -10.0 6.65 -9.95 7.05 -9.8 7.35 -9.6 7.65 -9.45 7.95 -9.25 8.25 -9.05 8.4 -8.9 8.4 -8.95 8.55 -9.1 8.75 -9.3 9.05 -9.5 M3.75 -6.5 L3.8 -6.55 3.55 -6.6 -1.1 -6.7 -2.0 -6.55 -4.3 -6.45 -4.7 -6.3 -4.6 -6.1 -4.5 -5.95 -4.45 -5.75 -4.3 -5.55 -4.25 -5.35 -4.1 -5.2 -3.95 -5.0 -3.75 -4.8 -3.6 -4.6 -3.5 -4.45 -3.35 -4.25 -3.3 -4.05 -3.25 -3.85 -3.1 -3.7 -3.05 -3.5 -3.0 -3.3 -2.95 -3.1 -2.95 -2.95 -2.85 -2.75 -2.8 -2.55 -2.8 -2.35 -2.75 -2.2 -2.75 -1.6 -2.75 -1.45 -2.75 0.25 -2.75 2.3 -2.75 4.55 -2.75 5.9 -2.6 6.05 -0.25 6.15 0.2 5.95 0.65 5.8 1.0 5.7 0.95 5.5 0.8 5.3 0.7 5.15 0.65 4.95 0.5 4.75 0.45 4.55 0.4 4.4 0.3 4.2 0.3 4.0 0.2 3.8 0.05 3.65 -0.05 3.45 -0.1 3.25 -0.2 3.05 -0.25 2.9 -0.25 2.3 -0.25 2.15 -0.25 1.4 -0.25 0.65 -0.25 -0.3 -0.25 -1.05 -0.2 -1.25 -0.1 -1.45 -0.05 -1.6 0.0 -1.8 0.15 -2.0 0.2 -2.2 0.3 -2.35 0.4 -2.55 0.5 -2.75 0.5 -2.95 0.5 -3.1 0.55 -3.3 0.65 -3.5 0.7 -3.7 0.8 -3.85 0.9 -4.05 1.0 -4.25 1.15 -4.45 1.3 -4.6 1.5 -4.8 1.65 -5.0 1.7 -5.2 1.8 -5.35 2.0 -5.55 2.2 -5.75 2.4 -5.95 2.55 -6.1 2.95 -6.3 3.4 -6.45 3.75 -6.5 M4.4 -1.55 L4.3 -1.35 4.2 -1.2 4.15 -1.0 4.0 -0.8 3.95 -0.6 3.8 -0.45 3.75 -0.25 3.75 -0.05 3.75 0.15 3.75 0.3 3.75 0.5 3.75 0.7 3.75 0.9 3.75 1.25 3.75 1.45 3.75 1.65 3.8 1.8 3.95 2.0 4.05 2.2 4.15 2.4 4.2 2.55 4.25 2.75 4.25 2.95 4.45 3.15 4.55 3.3 4.7 3.5 4.8 3.7 4.9 3.9 5.0 4.05 5.05 4.25 5.25 4.45 5.3 4.5 5.3 4.45 5.45 4.25 5.65 4.05 5.8 3.9 6.2 3.7 6.65 3.55 7.0 3.45 7.0 2.3 7.0 -0.3 7.0 -2.4 6.8 -2.3 6.55 -2.2 6.45 -2.15 6.15 -2.05 5.75 -2.0 5.0 -2.0 4.5 -1.95 4.45 -1.75 4.4 -1.55 M19.0 -5.0 L19.0 -0.7 19.0 -0.05 19.2 -0.2 19.45 -0.3 19.55 -0.35 19.9 -0.45 20.25 -0.5 20.5 -0.5 20.9 -0.4 21.3 -0.3 21.6 -0.1 22.05 0.25 22.1 0.3 22.4 0.35 22.8 0.45 23.1 0.65 23.35 0.8 23.55 1.0 23.7 1.2 23.75 1.4 23.9 1.55 23.95 1.75 23.95 1.9 24.05 1.95 24.35 2.15 24.6 2.3 24.8 2.5 24.95 2.7 25.45 3.05 26.0 3.45 26.55 4.0 27.15 4.55 27.25 4.75 27.55 4.95 27.95 5.15 28.3 5.3 28.55 5.5 28.75 5.7 29.15 5.85 29.55 6.05 29.8 6.25 29.95 6.4 30.0 6.4 30.75 6.4 30.75 5.05 30.75 3.4 30.75 1.7 30.75 0.0 30.75 -1.3 30.8 -1.5 30.9 -1.7 30.95 -1.85 31.0 -2.05 31.0 -2.45 31.0 -3.0 31.0 -3.75 31.0 -4.3 31.0 -4.85 31.0 -5.25 31.05 -5.45 31.05 -5.6 31.0 -5.7 30.65 -5.8 30.2 -5.95 29.8 -6.1 29.65 -6.3 29.5 -6.45 29.45 -6.5 29.15 -6.55 28.75 -6.6 28.75 -6.45 28.75 -6.25 28.75 -6.05 28.8 -5.85 28.9 -5.7 28.95 -5.5 28.95 -5.3 29.0 -5.1 29.0 -4.95 29.0 -4.75 29.0 -4.55 29.05 -4.35 29.15 -4.2 29.2 -4.0 29.2 -3.8 29.25 -3.6 29.25 -3.05 29.25 -2.1 29.25 -1.0 29.25 -0.05 29.25 1.05 29.25 1.45 29.2 1.65 29.15 1.8 29.05 2.0 29.0 2.2 28.9 2.4 28.75 2.55 28.55 2.75 28.3 2.95 28.05 3.05 27.95 3.1 27.65 3.2 27.25 3.25 26.9 3.2 26.45 3.05 26.05 2.9 25.9 2.7 25.7 2.5 25.5 2.3 25.3 2.15 25.2 1.95 25.15 1.75 25.05 1.55 25.0 1.4 25.0 1.2 25.0 1.0 25.0 0.8 24.95 0.65 24.9 0.45 24.8 0.25 24.75 0.05 24.75 -0.1 24.75 -0.3 24.7 -0.5 23.15 -1.7 21.4 -3.3 19.9 -4.8 19.3 -5.35 19.2 -5.55 19.15 -5.75 19.0 -5.95 19.0 -5.0 M37.3 -6.35 L36.0 -6.5 35.65 -6.55 35.25 -6.65 35.25 -6.45 35.25 -6.05 35.25 -5.7 35.25 -5.3 35.2 -5.1 35.2 -4.95 35.15 -4.75 35.0 -4.55 35.0 -4.2 35.0 -3.6 35.0 -2.85 35.0 -2.1 35.0 -1.35 35.0 -1.2 34.95 -1.0 34.9 -0.8 34.8 -0.6 34.75 -0.45 34.75 1.05 34.75 2.95 34.75 4.35 34.85 4.4 35.1 4.55 35.3 4.75 35.45 4.95 35.5 5.15 35.65 5.3 35.7 5.5 35.75 5.7 35.95 5.9 36.15 6.05 36.3 6.25 36.45 6.45 36.5 6.65 36.65 6.8 36.8 7.0 37.3 7.2 37.7 7.4 39.8 7.4 40.2 7.2 40.05 7.15 39.9 6.95 39.7 6.75 39.5 6.55 39.3 6.4 39.2 6.2 39.15 6.0 39.05 5.8 39.0 5.65 38.9 5.45 38.75 5.25 38.65 5.05 38.55 4.9 38.55 4.7 38.5 4.5 38.5 4.3 38.5 4.15 38.5 3.75 38.5 3.4 38.5 2.8 38.5 2.05 38.5 1.7 38.45 1.5 38.4 1.3 38.3 1.15 38.25 0.95 38.25 0.75 38.25 0.55 38.25 0.4 38.2 0.2 38.15 0.0 38.0 -0.2 37.95 -0.35 37.9 -0.55 37.8 -0.75 37.75 -0.95 37.75 -1.1 37.75 -1.7 37.75 -2.45 37.75 -3.55 37.75 -4.7 37.75 -5.25 37.7 -5.45 37.65 -5.6 37.55 -5.8 37.5 -6.0 37.4 -6.2 37.3 -6.35 M55.2 -5.4 L54.9 -5.3 54.5 -5.25 52.9 -5.25 52.75 -4.85 52.7 -4.7 52.65 -4.5 52.5 -4.1 52.4 -3.75 52.3 -3.55 52.3 -3.35 52.25 -3.2 52.2 -3.0 52.2 -2.8 52.15 -2.6 52.05 -2.45 52.05 -2.25 52.0 -2.05 52.0 -1.85 51.95 -1.7 51.9 -1.5 51.9 -1.3 51.8 -1.1 51.8 -0.95 51.75 -0.75 51.75 -0.55 51.7 -0.35 51.7 -0.2 51.65 0.0 51.65 0.2 51.55 0.4 51.55 0.55 51.55 0.7 51.9 0.55 52.25 0.45 52.45 0.25 52.65 0.05 52.8 -0.1 52.9 -0.3 52.95 -0.5 53.0 -0.7 53.05 -0.85 53.15 -1.05 53.25 -1.25 53.3 -1.45 53.45 -1.6 53.5 -1.8 53.65 -2.0 53.75 -2.2 53.9 -2.35 54.0 -2.55 54.15 -2.75 54.2 -2.95 54.3 -3.1 54.45 -3.3 54.55 -3.5 54.7 -3.7 54.75 -3.85 54.8 -4.05 54.9 -4.25 54.95 -4.45 55.05 -4.6 55.15 -4.8 55.25 -5.0 55.4 -5.2 55.55 -5.35 55.6 -5.45 55.3 -5.45 55.2 -5.4 M57.4 -0.3 L57.25 -0.1 57.15 0.05 57.0 0.25 56.9 0.45 56.8 0.65 56.75 0.8 56.7 1.0 56.65 1.2 56.55 1.4 56.45 1.55 56.4 1.75 56.45 1.85 56.5 1.75 56.55 1.55 56.7 1.4 56.75 1.2 56.9 1.0 56.95 0.8 57.05 0.65 57.15 0.45 57.2 0.25 57.25 0.05 57.3 -0.1 57.4 -0.3 57.5 -0.5 57.55 -0.7 57.45 -0.5 57.4 -0.3 M56.4 5.25 L56.35 5.25 56.4 5.25 M47.0 0.2 L47.0 0.0 46.95 0.05 46.9 0.25 46.75 0.45 46.7 0.65 46.65 0.8 46.55 1.0 46.5 1.2 46.4 1.4 46.3 1.55 46.25 1.75 46.15 1.95 46.05 2.15 45.95 2.3 45.9 2.5 45.8 2.7 45.8 2.9 45.7 3.05 45.7 3.25 45.65 3.45 45.5 3.65 45.45 3.8 45.3 4.0 45.15 4.2 44.95 4.35 44.7 4.55 44.55 4.75 44.5 4.95 44.4 5.15 44.25 5.3 44.05 5.5 43.9 5.7 43.75 5.9 43.7 6.0 43.95 5.8 44.25 5.6 44.5 5.45 44.9 5.05 45.25 4.7 45.4 4.5 45.45 4.3 45.55 4.15 45.75 3.95 45.95 3.75 46.2 3.55 46.3 3.4 46.4 3.2 46.5 3.0 46.5 2.8 46.5 2.65 46.55 2.45 46.65 2.25 46.7 2.05 46.8 1.9 46.95 1.7 47.0 1.5 47.0 1.3 47.0 1.15 47.0 0.95 47.0 0.55 47.0 0.2 M19.9 3.95 L19.75 3.75 19.65 3.55 19.3 3.4 19.15 3.2 19.0 3.05 19.0 3.65 19.0 6.65 18.95 6.8 18.95 7.0 18.9 7.2 18.9 7.25 19.35 7.35 19.8 7.45 20.0 7.45 20.0 6.7 20.0 5.4 20.0 4.1 19.9 3.95 M-61.25 -1.55 L-61.25 -1.35 -61.25 -1.2 -61.25 -1.0 -61.25 -0.8 -61.3 -0.6 -61.35 -0.45 -61.45 -0.25 -61.5 -0.05 -61.5 0.15 -61.5 0.3 -61.5 0.5 -61.5 0.7 -61.45 0.9 -61.3 1.05 -61.3 1.25 -61.25 1.45 -61.2 1.65 -61.05 1.8 -60.85 2.0 -60.75 2.2 -60.7 2.4 -60.55 2.55 -60.35 2.75 -60.25 2.95 -60.0 3.15 -59.8 3.3 -59.6 3.5 -59.5 3.7 -59.45 3.9 -59.3 4.05 -59.3 4.25 -59.25 4.45 -59.0 4.65 -58.8 4.8 -58.6 5.0 -58.45 5.2 -58.3 5.4 -58.1 5.55 -57.75 5.7 -53.5 5.75 -52.95 5.9 -52.55 6.05 -52.2 6.25 -51.95 6.45 -51.7 6.65 -51.25 6.8 -51.0 6.95 -50.95 7.0 -50.45 7.15 -48.45 7.2 -48.45 7.05 -48.35 6.9 -48.3 6.7 -48.2 6.5 -48.1 6.3 -48.0 6.15 -47.95 5.95 -47.8 5.75 -47.75 5.55 -47.75 5.4 -49.2 5.4 -49.75 5.5 -53.5 5.5 -54.05 5.4 -54.45 5.2 -54.6 5.0 -54.75 4.8 -55.0 4.6 -55.2 4.45 -55.3 4.25 -55.45 4.05 -55.5 3.9 -55.6 3.7 -55.7 3.5 -55.75 3.3 -55.75 3.15 -55.85 2.95 -55.95 2.75 -56.0 2.55 -56.05 2.4 -56.1 2.2 -56.2 2.0 -56.3 1.8 -56.35 1.65 -56.5 1.45 -56.55 1.25 -56.6 1.05 -56.7 0.9 -56.75 0.7 -56.8 0.5 -56.95 0.3 -57.0 0.15 -57.1 -0.05 -57.2 -0.25 -57.25 -0.45 -57.3 -0.6 -57.35 -0.8 -57.45 -1.0 -57.55 -1.2 -57.6 -1.35 -57.7 -1.55 -57.75 -1.75 -57.75 -1.95 -57.75 -2.1 -57.75 -2.3 -57.8 -2.5 -57.95 -2.7 -57.95 -2.85 -58.0 -3.05 -58.0 -3.25 -58.0 -3.6 -58.0 -4.0 -58.0 -4.35 -58.0 -4.75 -58.0 -5.3 -58.0 -5.85 -58.0 -6.45 -58.0 -6.8 -57.95 -7.0 -57.85 -7.2 -57.75 -7.35 -57.55 -7.55 -57.35 -7.75 -57.25 -7.95 -57.1 -8.1 -57.0 -8.3 -56.95 -8.35 -57.1 -8.3 -57.5 -8.25 -58.2 -8.1 -58.7 -7.95 -58.8 -7.75 -58.8 -7.55 -58.95 -7.35 -59.0 -7.2 -59.1 -7.0 -59.2 -6.8 -59.3 -6.6 -59.35 -6.45 -59.5 -6.25 -59.55 -6.05 -59.6 -5.85 -59.75 -5.7 -59.8 -5.5 -59.95 -5.3 -60.05 -5.1 -60.2 -4.95 -60.25 -4.75 -60.25 -4.55 -60.3 -4.35 -60.35 -4.2 -60.5 -4.0 -60.6 -3.8 -60.7 -3.6 -60.75 -3.45 -60.85 -3.25 -60.95 -3.05 -61.05 -2.85 -61.2 -2.7 -61.25 -2.5 -61.25 -2.3 -61.25 -2.1 -61.25 -1.95 -61.25 -1.55 M-52.0 -10.2 L-53.2 -10.1 -53.75 -10.0 -54.2 -9.85 -54.7 -9.7 -54.95 -9.5 -55.05 -9.45 -54.75 -9.45 -54.75 -9.5 -53.75 -9.5 -53.2 -9.35 -52.9 -9.2 -52.85 -9.15 -52.8 -9.2 Q-52.6 -9.3 -52.45 -9.35 L-52.05 -9.55 -51.7 -9.75 -51.45 -9.85 -51.3 -9.9 -51.75 -10.05 -52.0 -10.2 M-51.75 -4.95 L-51.85 -5.0 -51.95 -5.0 -52.2 -4.8 -52.55 -4.6 -52.7 -4.45 -52.8 -4.25 -52.95 -4.05 -53.05 -3.85 -53.2 -3.7 -53.25 -3.5 -53.3 -3.3 -53.35 -3.1 -53.45 -2.95 -53.5 -2.75 -53.5 -2.55 -53.55 -2.35 -53.6 -2.2 -53.7 -2.0 -53.75 -1.8 -53.85 -1.6 -54.0 -1.45 -54.2 -1.25 -54.3 -1.15 -54.25 -1.05 -54.1 -0.85 -54.05 -0.7 -53.95 -0.5 -53.85 -0.3 -53.8 -0.1 -53.75 0.05 -53.7 0.25 -53.6 0.45 -53.5 0.65 -53.45 0.8 -53.35 1.0 -53.25 1.2 -53.2 1.4 -53.1 1.55 -53.0 1.75 -52.85 1.95 -52.8 2.15 -52.6 2.3 -52.45 2.45 -49.55 2.4 -49.0 2.25 -47.0 2.25 -46.45 2.4 -46.15 2.55 -45.95 2.7 -46.0 2.5 -46.0 2.3 -46.0 1.95 -46.0 1.55 -46.0 1.2 -46.0 0.65 -46.0 0.05 -46.0 -0.5 -46.0 -1.05 -45.95 -1.25 -45.85 -1.45 -45.8 -1.6 -45.75 -1.8 -45.75 -2.0 -45.75 -2.2 -45.75 -2.35 -45.7 -2.55 -45.6 -2.75 -45.6 -2.8 -46.0 -2.75 -46.5 -2.75 -47.05 -2.85 -47.45 -3.05 -47.85 -3.25 -48.0 -3.35 -48.05 -3.4 -49.25 -3.5 -49.8 -3.6 -50.2 -3.8 -50.35 -4.0 -50.55 -4.2 -50.75 -4.35 -51.0 -4.55 -51.35 -4.75 -51.75 -4.95 M-48.45 -6.8 L-48.55 -6.6 -48.6 -6.55 -47.95 -6.6 -48.0 -6.8 -48.05 -7.0 -48.2 -7.2 -48.3 -7.0 -48.45 -6.8 M-48.25 -8.85 L-48.1 -8.7 -48.05 -8.5 -47.95 -8.7 -47.75 -8.85 -47.55 -9.0 -48.3 -9.0 -48.25 -8.85 M-41.7 -1.7 L-41.75 -1.5 -41.75 -1.3 -41.75 -1.1 -41.75 -1.05 -41.6 -1.25 -41.55 -1.45 -41.45 -1.6 -41.35 -1.8 -41.7 -1.7 M-36.6 -5.7 L-36.8 -5.6 -37.4 -5.45 -37.85 -5.3 -38.25 -5.25 -39.05 -5.1 -39.45 -4.95 -39.5 -4.75 -39.55 -4.55 -39.6 -4.35 -39.7 -4.2 -39.75 -4.0 -39.75 -3.8 -39.75 -3.6 -39.8 -3.45 -39.8 -3.25 -39.75 -3.3 -39.55 -3.5 -39.3 -3.7 -38.95 -3.85 -38.7 -4.05 -38.35 -4.25 -38.05 -4.45 -37.5 -4.85 -36.95 -5.35 -36.55 -5.55 -36.1 -5.7 -36.6 -5.7 M-32.7 -5.15 L-32.85 -5.3 -33.05 -5.45 -33.25 -5.5 -33.6 -5.55 -33.95 -5.6 -34.05 -5.65 -34.55 -5.65 -34.2 -5.55 -33.9 -5.35 -33.65 -5.2 -33.45 -5.0 -33.3 -4.8 -33.25 -4.6 -33.1 -4.45 -33.05 -4.3 -32.95 -4.3 -32.65 -4.1 -32.4 -3.95 -32.2 -3.75 -32.05 -3.55 -32.0 -3.35 -31.85 -3.2 -31.7 -3.0 -31.55 -2.8 -31.5 -2.6 -31.35 -2.45 -31.3 -2.25 -31.3 -2.05 -31.25 -1.85 -31.2 -1.7 -31.05 -1.5 -30.95 -1.3 -30.8 -0.95 -30.6 -0.35 -30.35 0.4 -30.05 1.3 -29.75 2.25 -29.75 2.2 -29.75 1.25 -29.75 0.3 -29.75 0.15 -29.8 -0.05 -29.85 -0.25 -29.95 -0.45 -30.0 -0.6 -30.0 -0.8 -30.0 -1.0 -30.1 -1.2 -30.2 -1.35 -30.25 -1.55 -30.3 -1.75 -30.35 -1.95 -30.45 -2.1 -30.6 -2.3 -30.75 -2.5 -30.85 -2.7 -30.95 -2.85 -31.05 -3.05 -31.1 -3.25 -31.2 -3.45 -31.25 -3.6 -31.35 -3.8 -31.55 -4.0 -31.7 -4.2 -31.95 -4.4 -32.1 -4.55 -32.3 -4.75 -32.45 -4.95 -32.7 -5.15 M-23.3 -7.3 L-23.45 -7.35 -23.55 -7.35 -23.55 -7.3 -23.6 -7.1 -23.7 -6.95 -23.75 -6.75 -23.75 -6.55 -23.75 -6.35 -23.7 -6.2 -23.6 -6.0 -23.55 -5.8 -23.45 -5.6 -23.35 -5.45 -23.25 -5.25 -23.2 -5.05 -23.05 -4.85 -23.0 -4.7 -22.85 -4.5 -22.8 -4.3 -22.75 -4.1 -22.6 -3.95 -22.55 -3.75 -22.5 -3.55 -22.3 -3.35 -22.2 -3.2 -22.05 -3.0 -21.95 -2.8 -21.85 -2.6 -21.75 -2.45 -21.7 -2.25 -21.6 -2.05 -21.55 -1.85 -21.5 -1.7 -21.5 -1.5 -21.5 -1.3 -21.5 -1.1 -21.55 -0.95 -21.55 -0.75 -21.6 -0.65 -21.45 -0.6 -21.1 -0.7 -20.75 -0.75 -20.5 -0.75 -20.15 -0.65 -19.7 -0.55 -19.15 -0.15 -18.75 0.2 -18.55 0.4 -18.45 0.55 -18.3 0.75 -18.2 0.95 -18.05 1.15 -17.85 1.3 -17.7 1.5 -17.55 1.7 -17.35 1.9 -17.25 2.05 -17.1 2.25 -17.0 2.45 -16.8 2.65 -16.7 2.8 -16.55 3.0 -16.45 3.2 -16.25 3.4 -16.1 3.55 -15.0 4.7 -14.05 5.65 -13.3 6.4 -12.95 6.55 -12.7 6.75 -12.5 6.95 -12.35 7.05 -12.0 7.0 -11.85 6.8 -11.7 6.65 -11.55 6.25 -11.45 5.9 -11.3 5.5 -11.25 5.3 -11.25 4.4 -11.25 3.45 -11.25 2.7 -11.25 1.75 -11.3 1.55 -11.45 1.7 -11.55 1.9 -11.75 2.05 -11.95 2.25 -12.2 2.45 -12.45 2.55 -12.55 2.6 -12.85 2.7 -13.25 2.75 -13.75 2.75 -14.1 2.7 -14.55 2.55 -14.95 2.4 -15.1 2.2 -15.3 2.0 -15.45 1.8 -15.55 1.65 -15.6 1.45 -15.7 1.25 -15.75 1.05 -15.75 0.9 -15.85 0.7 -16.0 0.5 -16.1 0.3 -16.2 0.15 -16.25 -0.05 -16.3 -0.25 -16.35 -0.45 -16.45 -0.6 -16.6 -0.8 -16.8 -1.0 -17.0 -1.2 -17.2 -1.35 -17.3 -1.55 -17.35 -1.75 -17.45 -1.95 -17.5 -2.1 -17.55 -2.3 -17.7 -2.5 -17.8 -2.7 -17.95 -2.85 -18.5 -3.25 -18.95 -3.65 -19.1 -3.8 -19.25 -4.0 -19.35 -4.2 -19.45 -4.35 -19.5 -4.55 -19.7 -4.75 -20.0 -4.95 -20.2 -5.1 -20.35 -5.3 -20.5 -5.5 -20.95 -5.9 -21.3 -6.25 -21.55 -6.45 -21.95 -6.6 -22.3 -6.8 -22.55 -7.0 -23.05 -7.2 -23.3 -7.3 M-22.65 0.6 L-22.6 0.55 -22.7 0.55 -22.85 0.65 -23.0 0.8 -23.0 2.9 -23.0 4.95 -23.0 7.0 -23.0 8.15 -22.85 8.3 -22.75 8.5 -22.7 8.65 -22.6 8.65 -22.2 8.65 -21.95 8.45 -21.8 8.25 -21.6 8.05 -21.45 7.9 -21.2 7.7 -21.05 7.5 -21.0 7.3 -21.0 7.15 -21.1 6.75 -21.3 6.2 -21.5 5.65 -21.6 5.25 -21.75 5.05 -21.8 4.9 -21.95 4.7 -22.0 4.5 -22.1 4.3 -22.2 4.15 -22.2 3.95 -22.25 3.75 -22.25 3.55 -22.3 3.4 -22.45 3.2 -22.5 3.0 -22.6 2.8 -22.7 2.65 -22.7 2.45 -22.75 2.25 -22.75 2.05 -22.75 1.7 -22.75 1.3 -22.75 0.95 -22.7 0.75 -22.65 0.6 M-33.8 5.9 L-33.85 5.7 -34.05 5.9 -34.25 6.05 -34.45 6.25 -34.9 6.6 -35.2 6.8 -35.65 6.95 -36.0 7.0 -37.5 7.0 -37.85 6.95 -38.35 6.95 -38.75 7.0 -39.1 6.95 -39.55 6.8 -39.55 6.95 -39.45 7.15 -39.2 7.3 -39.0 7.45 -38.5 7.5 -38.1 7.55 -37.8 7.65 -32.8 7.7 -32.7 7.65 -32.4 7.55 -32.0 7.45 -31.8 7.25 -31.55 7.05 -31.35 6.95 -31.75 7.0 -32.0 7.0 -32.35 6.95 -32.8 6.8 -33.2 6.65 -33.35 6.45 -33.55 6.25 -33.7 6.05 -33.8 5.9 M-36.85 1.7 L-37.05 1.9 -37.25 2.05 -37.25 2.25 -37.25 2.45 -37.25 2.65 -37.25 2.8 -37.15 2.85 -37.0 2.75 -36.95 2.55 -36.8 2.4 -36.75 2.2 -36.75 2.0 -36.75 1.8 -36.75 1.7 -36.75 1.65 -36.8 1.65 -36.85 1.7 M-44.75 5.95 L-44.75 6.3 -44.8 6.5 -44.8 6.65 -44.6 6.5 -44.5 6.5 -44.55 6.45 -44.6 6.25 -44.7 6.05 -44.75 5.9 -44.75 5.95 M-55.7 8.95 L-55.55 9.15 -55.35 9.3 -55.15 9.5 -55.0 9.65 -54.95 9.65 -53.8 9.65 -53.35 9.5 -53.1 9.45 -53.0 9.45 -53.05 9.4 -53.45 9.2 -53.6 9.0 -53.8 8.9 -54.0 8.8 -55.9 8.8 -55.7 8.95" fill="#5e4713" fill-opacity="0.50980395" fill-rule="evenodd" stroke="none"/>
  </g>
</svg>
