<?xml version="1.0" encoding="UTF-8" standalone="no"?>
<svg xmlns:ffdec="https://www.free-decompiler.com/flash" xmlns:xlink="http://www.w3.org/1999/xlink" ffdec:objectType="shape" height="35.1px" width="32.0px" xmlns="http://www.w3.org/2000/svg">
  <g transform="matrix(1.0, 0.0, 0.0, 1.0, 15.5, 19.0)">
    <path d="M7.6 -18.1 Q8.1 -18.6 8.85 -18.8 L9.5 -19.0 Q10.7 -19.15 11.55 -18.35 L13.15 -16.95 13.25 -16.75 13.45 -16.35 13.7 -15.8 13.95 -15.25 13.95 -14.9 14.25 -14.6 14.55 -14.4 15.3 -13.6 15.75 -12.45 15.75 -11.85 15.75 -11.7 15.75 -10.75 15.75 -9.45 15.75 -9.25 15.7 -9.05 15.65 -8.85 15.55 -8.7 15.3 -8.3 15.2 -8.1 15.0 -7.95 14.7 -7.75 14.45 -7.65 14.0 -7.5 13.8 -7.3 13.7 -7.15 13.5 -6.95 13.2 -6.75 12.95 -6.65 12.65 -6.55 12.25 -6.5 11.9 -6.55 11.45 -6.7 11.05 -6.85 10.3 -7.65 Q9.8 -8.15 9.55 -8.9 L9.2 -9.85 9.05 -10.05 8.5 -10.45 8.15 -10.8 8.0 -11.0 7.7 -11.2 7.3 -11.35 -1.6 -11.1 -1.95 -10.95 -2.95 -10.55 -3.25 -10.35 -3.3 -10.2 -3.45 -10.0 -3.6 -9.8 -3.8 -9.6 -4.0 -9.45 -4.3 -9.25 -4.75 -8.7 -5.35 -7.75 -6.05 -6.8 -6.1 -6.6 -6.2 -6.45 -6.25 -6.25 -6.35 -6.05 -6.5 -5.85 -6.6 -5.5 -6.8 -4.75 -7.05 -3.8 -7.2 -3.45 -7.05 -3.05 -6.8 -2.5 -6.5 -1.75 -6.45 -1.55 -6.3 -1.4 -6.1 -1.2 -5.95 -1.0 -5.7 -0.6 -5.6 -0.45 -5.25 -0.05 -5.0 0.25 -4.8 0.5 -4.5 1.25 -4.45 1.45 -4.4 1.5 -4.3 1.6 -3.95 2.0 -3.65 2.4 -3.45 2.75 -3.25 2.95 -3.05 3.15 -2.85 3.3 -2.7 3.5 -2.55 3.7 -2.5 3.85 -2.35 4.05 -2.35 4.25 -2.3 4.4 -2.3 4.45 -2.25 4.65 -2.25 4.8 -1.75 5.2 -1.7 5.25 -1.2 5.75 -0.7 6.45 0.05 6.7 Q1.25 6.95 2.3 7.5 L2.65 7.55 3.05 7.7 3.2 7.8 3.35 7.9 3.65 8.05 8.05 7.75 8.7 7.5 8.95 7.3 9.5 6.95 Q9.95 6.65 10.45 6.5 L10.65 6.3 10.8 6.15 Q11.7 5.65 12.75 5.75 13.7 5.8 14.3 6.5 L14.45 6.7 14.5 6.85 14.65 7.05 14.7 7.65 14.75 8.75 14.75 10.05 14.75 10.25 14.65 10.65 14.35 11.2 13.8 11.95 13.7 12.15 Q9.5 15.0 4.35 15.4 L2.0 15.55 0.7 15.6 -3.3 15.55 -4.5 15.5 Q-5.9 15.4 -7.1 14.55 -8.85 13.25 -9.9 11.4 L-10.2 10.9 Q-10.55 9.85 -11.15 8.95 L-13.05 6.3 -13.75 4.9 -13.75 4.3 -13.75 3.4 -13.7 2.25 -13.7 1.9 -13.6 1.7 -13.5 1.5 -13.45 1.3 -13.35 1.15 -13.25 0.75 -13.25 0.55 -13.25 0.2 -13.25 -0.2 -13.25 -0.75 -13.25 -0.95 -13.3 -1.1 -13.35 -1.3 -13.45 -1.5 -13.5 -1.7 -13.5 -2.05 -13.5 -2.6 -13.5 -3.55 -13.45 -4.1 -13.35 -4.3 -13.25 -4.5 -13.1 -4.9 -12.75 -5.45 -12.75 -5.6 -12.7 -5.8 -12.6 -6.0 -12.55 -6.2 -12.5 -6.35 -12.5 -6.95 -12.5 -7.85 -12.5 -9.0 -12.5 -9.35 -12.45 -9.55 -12.35 -9.75 -12.3 -9.95 -12.2 -10.3 -12.15 -10.4 -12.05 -10.7 -11.95 -10.85 -11.8 -11.0 -11.75 -11.05 -11.55 -11.25 -11.05 -11.6 -10.8 -12.0 -10.05 -12.7 Q-9.6 -13.1 -9.0 -13.3 -2.25 -18.75 6.55 -17.6 L7.0 -17.55 7.6 -18.1 M-8.4 5.3 L-7.85 5.8 -7.7 6.0 -7.35 6.6 -7.25 6.75 -7.0 7.5 -7.0 7.7 -7.0 7.9 -6.6 8.45 -6.35 8.8 -6.35 9.0 -6.3 9.2 -5.3 10.85 -4.3 11.65 1.8 11.65 Q-1.35 10.95 -3.85 9.15 L-4.3 8.65 -5.0 8.05 -5.2 7.9 -5.3 7.65 -5.5 7.35 -5.8 6.95 -5.95 6.45 -5.95 6.4 -6.0 6.35 -6.25 5.8 -6.25 5.65 -6.55 5.25 -6.95 4.9 -7.05 4.7 -7.15 4.5 -7.25 4.3 -8.15 3.15 -8.45 2.65 -9.3 1.7 -9.35 1.85 -9.5 2.25 -9.7 2.8 -9.75 3.0 -9.75 3.55 -9.75 4.15 -9.45 4.5 -9.05 4.9 -8.4 5.3" fill="#33270a" fill-opacity="0.50980395" fill-rule="evenodd" stroke="none"/>
    <path d="M13.95 -14.9 L14.25 -14.7 14.55 -14.4 14.25 -14.6 13.95 -14.9 M15.75 -11.7 L16.15 -10.95 16.5 -10.0 16.5 -9.8 16.5 -9.45 16.5 -8.85 16.5 -8.15 16.45 -7.75 16.35 -7.55 Q16.0 -6.55 15.05 -6.0 13.5 -5.1 11.65 -5.35 L11.3 -5.2 10.9 -5.05 10.5 -5.0 10.15 -5.05 9.7 -5.2 9.3 -5.35 9.15 -5.55 8.95 -5.75 8.7 -5.9 8.3 -6.1 8.15 -6.3 7.85 -6.7 7.55 -7.05 7.3 -7.45 7.05 -7.6 Q5.6 -8.6 4.05 -9.2 L1.5 -10.1 -2.7 -10.1 -2.75 -10.0 -2.8 -9.8 -2.85 -9.6 -2.95 -9.45 -3.1 -9.25 -3.55 -8.7 -3.95 -8.1 -4.3 -7.55 -4.45 -7.35 -4.5 -7.2 -4.5 -7.0 -4.5 -6.8 -4.5 -6.6 -4.55 -6.45 -4.65 -6.25 -4.75 -6.05 -4.75 -5.85 -4.75 -5.7 -4.75 -5.5 -4.75 -5.3 -4.75 -5.1 -4.8 -4.95 -4.9 -4.75 -5.0 -4.55 -5.0 -4.5 -5.0 -4.35 -5.0 -4.2 -5.0 -3.8 -5.0 -3.45 -5.0 -1.5 -5.0 0.25 -5.25 -0.05 -5.6 -0.45 -5.7 -0.6 -5.95 -1.0 -6.1 -1.2 -6.3 -1.4 -6.45 -1.55 -6.5 -1.75 -6.8 -2.5 -7.05 -3.05 -7.2 -3.45 -7.05 -3.8 -6.8 -4.75 -6.6 -5.5 -6.5 -5.85 -6.35 -6.05 -6.25 -6.25 -6.2 -6.45 -6.1 -6.6 -6.05 -6.8 -5.35 -7.75 -4.75 -8.7 -4.3 -9.25 -4.0 -9.45 -3.8 -9.6 -3.6 -9.8 -3.45 -10.0 -3.3 -10.2 -3.25 -10.35 -2.95 -10.55 -1.95 -10.95 -1.6 -11.1 7.3 -11.35 7.7 -11.2 8.0 -11.0 8.15 -10.8 8.5 -10.45 9.05 -10.05 9.2 -9.85 9.55 -8.9 Q9.8 -8.15 10.3 -7.65 L11.05 -6.85 11.45 -6.7 11.9 -6.55 12.25 -6.5 12.65 -6.55 12.95 -6.65 13.2 -6.75 13.5 -6.95 13.7 -7.15 13.8 -7.3 14.0 -7.5 14.45 -7.65 14.7 -7.75 15.0 -7.95 15.2 -8.1 15.3 -8.3 15.55 -8.7 15.65 -8.85 15.7 -9.05 15.75 -9.25 15.75 -9.45 15.75 -10.75 15.75 -11.7 M-2.3 4.4 L-2.0 4.7 -1.7 5.25 -1.75 5.2 -2.25 4.8 -2.25 4.65 -2.3 4.45 -2.3 4.4 M3.2 7.8 Q5.75 7.5 7.65 5.55 L7.8 5.4 7.9 5.2 Q8.35 4.25 9.35 4.0 11.8 3.4 13.85 4.45 L14.3 4.75 14.45 4.95 14.5 5.1 14.6 5.3 14.65 5.5 14.7 5.7 14.75 5.85 14.85 6.05 14.95 6.25 14.95 6.45 15.0 6.65 15.0 6.8 15.0 7.0 15.05 7.2 15.15 7.4 15.25 7.55 15.3 7.75 15.45 8.15 15.5 8.3 15.5 8.5 15.5 9.8 15.5 11.5 15.45 13.0 15.35 13.2 15.25 13.4 15.2 13.55 15.05 13.75 Q14.45 14.45 13.5 14.5 L8.2 14.8 7.95 15.15 Q5.2 16.65 2.1 15.55 L2.0 15.55 4.35 15.4 Q9.5 15.0 13.7 12.15 L13.8 11.95 14.35 11.2 14.65 10.65 14.75 10.25 14.75 10.05 14.75 8.75 14.7 7.65 14.65 7.05 14.5 6.85 14.45 6.7 14.3 6.5 Q13.7 5.8 12.75 5.75 11.7 5.65 10.8 6.15 L10.65 6.3 10.45 6.5 Q9.95 6.65 9.5 6.95 L8.95 7.3 8.7 7.5 8.05 7.75 3.65 8.05 3.35 7.9 3.2 7.8 M0.7 15.6 L-2.8 15.75 -3.3 15.55 0.7 15.6 M-9.9 11.4 L-9.95 11.4 -10.15 11.2 -11.95 9.75 -13.25 8.55 -13.45 8.4 -13.55 8.2 -13.9 7.45 -14.3 6.7 -14.4 6.35 -15.1 5.55 -15.15 5.35 -15.2 5.2 -15.25 5.0 -15.25 4.8 -15.25 4.65 -15.3 4.45 -15.35 4.25 -15.45 4.05 -15.5 3.9 -15.5 3.7 -15.5 3.5 -15.5 3.3 -15.5 3.15 -15.45 3.05 -15.45 2.95 -15.5 0.7 -15.5 -1.95 -15.45 -3.6 -15.35 -3.8 -15.25 -4.0 -15.25 -4.2 -15.25 -4.35 -15.25 -4.55 -15.2 -4.75 -15.1 -4.95 -15.05 -5.15 -15.0 -5.5 -14.95 -5.85 -14.7 -6.25 -14.35 -6.8 -13.75 -7.55 -13.6 -7.95 -13.3 -8.5 -12.8 -9.45 -12.15 -10.4 -12.2 -10.3 -12.3 -9.95 -12.35 -9.75 -12.45 -9.55 -12.5 -9.35 -12.5 -9.0 -12.5 -7.85 -12.5 -6.95 -12.5 -6.35 -12.55 -6.2 -12.6 -6.0 -12.7 -5.8 -12.75 -5.6 -12.75 -5.45 -13.1 -4.9 -13.25 -4.5 -13.35 -4.3 -13.45 -4.1 -13.5 -3.55 -13.5 -2.6 -13.5 -2.05 -13.5 -1.7 -13.45 -1.5 -13.35 -1.3 -13.3 -1.1 -13.25 -0.95 -13.25 -0.75 -13.25 -0.2 -13.25 0.2 -13.25 0.55 -13.25 0.75 -13.35 1.15 -13.45 1.3 -13.5 1.5 -13.6 1.7 -13.7 1.9 -13.7 2.25 -13.75 3.4 -13.75 4.3 -13.75 4.9 -13.05 6.3 -11.15 8.95 Q-10.55 9.85 -10.2 10.9 L-9.9 11.4 M-11.8 -11.0 L-11.55 -11.45 -9.85 -13.9 -9.35 -14.3 -8.55 -15.35 Q-7.45 -16.3 -6.25 -16.5 L-5.4 -16.4 -4.6 -16.15 -2.3 -17.75 Q-1.2 -18.55 0.0 -18.75 L6.3 -18.15 7.6 -18.1 7.0 -17.55 6.55 -17.6 Q-2.25 -18.75 -9.0 -13.3 -9.6 -13.1 -10.05 -12.7 L-10.8 -12.0 -11.05 -11.6 -11.55 -11.25 -11.75 -11.05 -11.8 -11.0 M-9.35 1.85 L-9.0 2.75 -9.0 3.15 -9.0 3.5 -9.0 3.7 -8.95 3.85 -8.9 4.05 -8.8 4.25 -8.8 4.45 -8.75 4.65 -8.4 5.3 -9.05 4.9 -9.45 4.5 -9.75 4.15 -9.75 3.55 -9.75 3.0 -9.7 2.8 -9.5 2.25 -9.35 1.85 M-7.35 6.6 L-5.3 7.65 -5.2 7.9 -5.0 8.05 -4.3 8.65 -3.85 9.15 Q-1.35 10.95 1.8 11.65 L-4.3 11.65 -5.3 10.85 -6.3 9.2 -6.35 9.0 -6.35 8.8 -6.6 8.45 -7.0 7.9 -7.0 7.7 -7.0 7.5 -7.25 6.75 -7.35 6.6 M-6.0 6.35 L-6.45 5.9 -7.25 4.6 -8.05 3.45 -8.15 3.15 -7.25 4.3 -7.15 4.5 -7.05 4.7 -6.95 4.9 -6.55 5.25 -6.25 5.65 -6.25 5.8 -6.0 6.35" fill="#533f11" fill-opacity="0.5019608" fill-rule="evenodd" stroke="none"/>
  </g>
</svg>
