<?xml version="1.0" encoding="UTF-8" standalone="no"?>
<svg xmlns:ffdec="https://www.free-decompiler.com/flash" xmlns:xlink="http://www.w3.org/1999/xlink" ffdec:objectType="shape" height="36.95px" width="42.6px" xmlns="http://www.w3.org/2000/svg">
  <g transform="matrix(1.0, 0.0, 0.0, 1.0, 15.25, 20.0)">
    <path d="M-11.5 14.6 L-11.7 14.4 -11.8 14.2 -11.85 14.0 -11.95 13.8 -12.0 13.65 -12.0 13.45 -12.0 13.05 -12.0 12.7 -12.0 12.5 -11.95 12.15 -11.85 11.95 -11.45 11.35 -10.85 10.8 -10.5 10.45 -10.55 10.7 -10.7 11.05 -10.8 11.2 -11.3 11.65 -11.45 11.8 -11.45 12.2 -11.55 13.85 -11.5 14.6 M-10.25 9.1 L-10.25 8.95 -10.25 8.75 -10.3 8.55 -10.4 8.2 -10.5 7.8 -10.5 7.45 -10.5 7.25 -10.55 7.05 -10.65 6.7 -10.75 6.3 -10.85 5.95 -11.0 5.4 -11.0 5.2 -11.0 5.0 -11.1 4.8 -11.2 4.65 -11.2 4.45 -11.25 3.85 -11.25 3.5 -11.25 2.95 -11.25 2.4 -11.2 2.2 -11.1 2.0 -11.05 1.8 -11.0 1.65 -11.0 1.45 -11.0 1.25 -10.95 1.05 -10.95 0.9 -10.85 0.7 -10.75 0.5 -10.65 0.3 -10.55 0.15 -10.5 -0.05 -10.5 -0.25 -10.5 -0.45 -10.5 -0.6 -10.45 -0.8 -10.35 -1.0 -10.3 -1.2 -10.2 -1.4 -10.1 -1.55 -10.0 -1.75 -9.95 1.3 Q-9.85 4.0 -10.2 6.55 L-10.2 6.95 -10.2 8.45 -10.25 9.1 M8.25 -3.25 L8.35 -3.05 8.45 -2.85 8.5 -2.7 Q8.45 -2.35 8.65 -2.1 L8.9 -1.75 9.0 -1.55 9.25 -1.35 9.75 -1.25 10.15 -1.1 10.25 -1.0 10.85 -0.1 11.25 0.5 11.25 1.45 11.25 4.45 11.25 7.8 10.95 8.4 10.8 8.75 10.75 8.95 10.2 10.05 Q9.75 10.7 9.05 11.0 L8.95 11.2 8.8 11.35 8.65 11.55 Q6.7 12.95 4.4 13.3 L4.15 13.45 3.95 13.65 3.5 13.75 3.15 13.8 3.0 13.9 2.4 14.2 2.2 14.4 Q0.1 14.1 -1.75 14.9 L-9.3 14.8 -9.35 14.65 -9.45 14.45 -9.5 14.25 -9.5 13.7 -9.5 13.3 -9.5 13.15 -9.35 12.95 -9.15 12.75 -8.95 12.55 -8.75 12.0 -8.55 11.45 -8.5 11.25 -8.5 11.05 -8.5 10.9 -8.5 10.7 -8.5 10.5 -8.45 10.3 -8.35 10.15 -8.3 9.95 -8.25 9.75 -8.25 9.4 -8.25 8.05 -8.25 7.3 -8.2 7.15 -8.1 6.95 -8.05 6.75 -8.0 6.55 -8.0 5.25 -8.0 0.2 -8.0 -5.25 -8.05 -5.45 -8.1 -5.6 -8.2 -5.8 -8.25 -6.0 -8.25 -6.35 -8.3 -7.1 -8.45 -7.5 -8.5 -7.7 -8.5 -7.85 -8.5 -8.05 -8.55 -8.25 -8.65 -8.45 -8.7 -8.65 -8.75 -8.8 -8.75 -9.0 -8.75 -9.2 -8.75 -9.35 -8.75 -9.55 -9.3 -10.85 -10.0 -11.6 -10.05 -11.8 -10.2 -12.0 -10.3 -12.2 -10.55 -12.35 -10.8 -12.55 -10.9 -12.75 -11.0 -12.95 -11.25 -13.1 -11.3 -13.3 -11.45 -13.5 -11.55 -13.7 -11.8 -13.85 -12.1 -14.1 -12.3 -14.25 -12.5 -14.6 -12.7 -14.8 -12.85 -15.0 -11.95 -16.5 -11.75 -16.8 2.65 -17.1 2.8 -17.2 2.9 -17.25 3.15 -17.2 3.25 -17.05 3.5 -16.85 4.0 -16.75 4.15 -16.7 4.8 -16.15 6.0 -15.45 6.15 -15.25 6.25 -15.05 6.85 -14.7 7.45 -14.3 7.55 -13.95 7.9 -13.15 8.05 -12.8 8.2 -12.65 8.35 -12.45 8.5 -12.25 8.5 -12.05 8.6 -11.9 8.7 -11.7 8.75 -11.5 8.75 -10.95 8.85 -10.55 8.95 -10.35 9.0 -10.0 9.05 -8.85 8.95 -8.1 8.5 -7.6 8.35 -7.2 8.25 -7.0 8.25 -6.6 8.25 -5.3 8.15 -4.95 8.0 -4.55 7.75 -4.2 7.55 -4.0 7.5 -3.9 Q7.7 -3.6 8.05 -3.4 L8.25 -3.25 M1.6 -13.2 L1.8 -13.0 2.0 -12.65 2.4 -12.05 2.8 -11.1 2.8 -10.95 4.05 -8.7 4.55 -7.1 4.7 -7.45 4.8 -7.6 5.0 -7.8 5.2 -8.0 5.3 -8.2 5.35 -8.35 5.4 -8.55 6.15 -9.5 6.5 -10.05 6.25 -10.85 5.7 -11.55 5.65 -11.75 5.55 -11.95 2.95 -13.35 2.7 -13.5 1.95 -13.55 1.0 -13.55 1.6 -13.2 M1.25 -6.6 L1.25 -7.2 Q1.7 -7.3 1.8 -7.0 L2.0 -6.45 1.75 -6.25 1.25 -6.05 1.25 -6.6 M0.45 -10.75 L0.25 -10.95 -0.05 -11.1 -0.5 -11.25 -0.5 -11.2 -0.85 -11.2 -1.1 -11.05 -1.3 -10.85 -1.4 -10.7 -1.5 -10.5 -1.5 -10.3 -1.55 -10.15 -1.7 -9.75 -1.75 -9.55 -1.75 -9.35 -1.7 -9.2 -1.5 -8.85 -1.35 -8.6 -1.25 -8.45 -1.25 -7.3 -1.25 -6.55 -1.25 -5.8 -1.3 -5.6 -1.35 -5.45 -1.45 -5.25 -1.5 -5.05 -1.5 -4.3 -1.5 -3.55 -1.35 -3.0 -1.25 -2.85 -1.0 -2.6 -0.5 -2.5 -0.15 -2.6 Q-0.05 -2.6 0.05 -2.7 L0.3 -2.85 0.45 -3.05 0.55 -3.25 0.7 -3.45 0.75 -3.6 0.75 -3.8 0.75 -4.0 0.9 -4.2 1.0 -4.35 1.15 -4.55 1.25 -4.55 1.5 -4.35 2.9 -4.3 Q3.45 -4.45 3.9 -4.75 L4.05 -4.95 4.15 -5.1 4.2 -5.3 4.25 -5.5 4.25 -5.85 4.25 -6.25 4.25 -6.6 4.2 -6.8 3.8 -7.4 3.5 -8.1 3.2 -8.7 2.6 -8.95 2.15 -9.15 2.0 -9.25 1.9 -9.45 1.75 -9.6 1.55 -9.8 1.25 -10.0 0.9 -10.2 0.65 -10.35 0.55 -10.55 0.45 -10.75 M-2.95 -12.85 L-1.8 -13.4 -1.0 -13.6 -8.0 -13.6 -7.3 -11.9 -6.5 -10.25 -6.5 -10.05 -6.5 -9.85 -6.2 -9.3 -6.0 -8.75 -6.0 -4.8 -6.05 -0.7 -6.25 -0.3 -6.45 0.05 -6.5 0.25 -6.5 0.65 -6.5 0.8 -6.7 1.35 -7.0 1.95 -7.0 2.15 -7.0 2.3 -7.0 2.5 -7.1 2.9 -7.25 3.25 -7.25 3.45 -7.2 3.6 -7.15 3.8 -7.05 4.0 -6.95 4.55 -6.8 5.15 -6.75 5.3 -6.75 5.5 -6.75 5.7 -6.5 6.45 -6.5 7.2 Q-6.15 8.1 -6.2 9.05 L-6.25 10.95 -1.1 10.95 -1.4 10.55 -1.6 10.2 -1.75 9.8 -2.15 9.25 -2.6 8.3 -3.0 7.4 -3.0 7.2 -3.0 7.0 -3.0 6.8 -3.15 6.45 -3.3 6.05 -3.6 5.3 -3.7 5.15 -3.8 4.75 -3.95 4.4 -4.2 3.8 -4.25 3.65 -4.25 3.45 -4.25 3.25 -4.3 3.05 -4.45 2.9 -4.6 2.7 -4.75 2.5 -4.85 2.3 -5.05 -2.2 Q-5.05 -5.35 -3.65 -8.2 L-3.35 -8.75 -3.35 -8.95 -3.3 -9.1 -3.25 -9.3 -3.2 -9.5 -3.1 -9.7 -3.2 -9.85 -3.35 -10.05 -3.5 -10.25 -3.6 -10.45 -3.65 -10.65 -3.7 -10.8 -3.75 -11.0 -3.75 -11.2 -3.75 -11.55 -3.7 -11.75 -3.55 -12.1 -3.3 -12.5 -2.95 -12.85 M-0.95 1.8 L-1.0 2.4 -1.0 3.5 -1.0 4.05 -0.75 4.8 -0.25 6.1 0.45 7.65 0.8 8.0 1.0 8.2 1.25 8.4 1.75 8.5 2.2 8.4 2.4 8.15 2.55 8.0 2.7 7.8 2.75 7.6 2.75 7.25 2.75 7.05 2.8 6.9 3.1 6.5 3.4 5.95 3.5 5.55 3.5 5.2 3.5 4.05 3.5 3.5 3.45 3.3 3.4 3.15 3.3 2.95 3.2 2.75 3.0 2.6 2.7 2.4 2.25 2.25 1.9 2.3 1.65 2.45 1.45 2.65 1.3 2.75 1.25 2.5 1.15 2.15 1.05 1.95 0.95 1.75 0.75 1.6 0.45 1.4 0.0 1.25 0.0 1.3 -0.35 1.3 -0.6 1.45 -0.8 1.65 -0.95 1.8 M7.5 2.75 L7.5 3.15 6.6 5.75 Q5.6 7.8 4.15 9.5 L4.0 9.7 4.0 9.9 5.4 9.45 5.95 9.25 7.2 8.35 7.5 8.15 8.45 6.25 9.2 4.75 9.25 3.8 9.25 2.9 7.5 1.25 7.5 1.65 7.5 2.0 7.5 2.75" fill="#33270a" fill-opacity="0.50980395" fill-rule="evenodd" stroke="none"/>
    <path d="M-10.0 -1.75 L-10.0 -1.95 -10.0 -3.45 -10.0 -3.55 -10.0 -4.85 -10.05 -5.05 -10.1 -5.25 -10.2 -5.45 -10.25 -5.6 -10.25 -5.8 -10.25 -6.0 -10.25 -6.2 -10.25 -6.35 -10.3 -6.55 -10.35 -6.75 -10.45 -6.95 -10.5 -7.15 -10.5 -7.3 -10.6 -7.5 -10.7 -7.7 -10.75 -8.05 -10.75 -8.8 -10.8 -9.35 -10.95 -9.55 -11.35 -9.95 -11.75 -10.3 -11.95 -10.7 -12.6 -11.45 -12.8 -11.6 -12.9 -11.8 -13.0 -12.0 -13.1 -12.2 -13.3 -12.35 -13.95 -12.75 -14.05 -12.95 -14.25 -13.1 -14.5 -13.3 -14.6 -13.5 -14.85 -13.85 -15.2 -14.45 -15.25 -14.65 -15.25 -14.8 -15.25 -15.0 -15.25 -15.2 -15.1 -15.55 -14.85 -16.15 -14.6 -16.5 -14.1 -17.1 -13.5 -17.9 -13.5 -18.0 -13.45 -18.2 -13.3 -18.35 -13.25 -18.4 -13.25 -18.75 -13.2 -19.3 -13.1 -19.5 -13.0 -19.65 -12.75 -19.85 -12.25 -19.95 -12.25 -20.0 -11.8 -19.85 -11.6 -19.65 -11.45 -19.5 -11.3 -19.1 -11.25 -19.0 0.3 -18.95 0.35 -18.95 0.45 -19.1 0.65 -19.3 0.9 -19.45 Q2.8 -19.8 4.4 -18.8 L6.55 -17.6 7.5 -16.95 7.6 -16.75 7.7 -16.55 Q8.6 -16.2 9.15 -15.4 L9.7 -14.5 9.75 -14.3 9.75 -14.1 9.9 -13.95 10.15 -13.75 10.3 -13.55 10.4 -13.35 10.5 -13.0 10.5 -12.8 10.5 -12.6 10.6 -12.45 10.7 -12.25 10.75 -12.05 10.75 -11.85 10.75 -11.7 10.75 -11.5 10.8 -11.3 10.9 -11.1 10.95 -10.95 11.0 -10.75 11.0 -9.6 11.0 -8.1 11.0 -7.75 10.85 -7.4 10.6 -6.85 10.3 -6.45 10.25 -5.5 10.25 -4.2 10.25 -3.8 10.3 -3.6 10.4 -3.45 10.45 -3.3 Q11.8 -2.8 12.5 -1.5 L13.25 0.25 13.25 2.1 13.25 2.4 13.25 3.7 13.25 3.8 13.25 5.2 13.25 5.75 13.25 7.2 13.25 8.3 13.1 8.7 12.85 9.25 12.75 9.65 12.7 9.8 12.6 10.0 12.5 10.2 12.5 10.4 12.45 10.55 12.3 10.75 12.2 10.95 11.95 11.15 11.8 11.3 11.5 11.7 11.3 12.05 Q8.95 14.35 5.75 15.15 L5.15 15.3 4.9 15.5 4.75 15.65 4.6 15.65 3.55 15.9 3.3 16.05 2.75 16.35 2.65 16.45 -0.7 16.65 -1.1 16.8 -1.35 16.95 -10.25 16.95 -10.75 16.9 -11.0 16.65 -11.1 16.5 -11.2 16.3 -11.2 15.95 -11.3 15.4 -11.5 14.6 -11.55 13.85 -11.45 12.2 -11.45 11.8 -11.3 11.65 -10.8 11.2 -10.7 11.05 -10.55 10.7 -10.5 10.45 -10.5 9.95 -10.45 9.55 -10.25 9.1 -10.2 8.45 -10.2 6.95 -10.2 6.55 Q-9.85 4.0 -9.95 1.3 L-10.0 -1.75 M8.25 -5.3 L8.25 -6.6 8.25 -7.0 8.35 -7.2 8.5 -7.6 8.95 -8.1 9.05 -8.85 9.0 -10.0 8.95 -10.35 8.85 -10.55 8.75 -10.95 8.75 -11.5 8.7 -11.7 8.6 -11.9 8.5 -12.05 8.5 -12.25 8.35 -12.45 8.2 -12.65 8.05 -12.8 7.9 -13.15 7.55 -13.95 7.45 -14.3 6.85 -14.7 6.25 -15.05 6.15 -15.25 6.0 -15.45 4.8 -16.15 4.15 -16.7 4.0 -16.75 3.5 -16.85 3.25 -17.05 3.15 -17.2 2.9 -17.25 2.8 -17.2 2.65 -17.1 -11.75 -16.8 -11.95 -16.5 -12.85 -15.0 -12.7 -14.8 -12.5 -14.6 -12.3 -14.25 -12.1 -14.1 -11.8 -13.85 -11.55 -13.7 -11.45 -13.5 -11.3 -13.3 -11.25 -13.1 -11.0 -12.95 -10.9 -12.75 -10.8 -12.55 -10.55 -12.35 -10.3 -12.2 -10.2 -12.0 -10.05 -11.8 -10.0 -11.6 -9.3 -10.85 -8.75 -9.55 -8.75 -9.35 -8.75 -9.2 -8.75 -9.0 -8.75 -8.8 -8.7 -8.65 -8.65 -8.45 -8.55 -8.25 -8.5 -8.05 -8.5 -7.85 -8.5 -7.7 -8.45 -7.5 -8.3 -7.1 -8.25 -6.35 -8.25 -6.0 -8.2 -5.8 -8.1 -5.6 -8.05 -5.45 -8.0 -5.25 -8.0 0.2 -8.0 5.25 -8.0 6.55 -8.05 6.75 -8.1 6.95 -8.2 7.15 -8.25 7.3 -8.25 8.05 -8.25 9.4 -8.25 9.75 -8.3 9.95 -8.35 10.15 -8.45 10.3 -8.5 10.5 -8.5 10.7 -8.5 10.9 -8.5 11.05 -8.5 11.25 -8.55 11.45 -8.75 12.0 -8.95 12.55 -9.15 12.75 -9.35 12.95 -9.5 13.15 -9.5 13.3 -9.5 13.7 -9.5 14.25 -9.45 14.45 -9.35 14.65 -9.3 14.8 -1.75 14.9 Q0.1 14.1 2.2 14.4 L2.4 14.2 3.0 13.9 3.15 13.8 3.5 13.75 3.95 13.65 4.15 13.45 4.4 13.3 Q6.7 12.95 8.65 11.55 L8.8 11.35 8.95 11.2 9.05 11.0 Q9.75 10.7 10.2 10.05 L10.75 8.95 10.8 8.75 10.95 8.4 11.25 7.8 11.25 4.45 11.25 1.45 11.25 0.5 10.85 -0.1 10.25 -1.0 10.15 -1.1 9.75 -1.25 9.25 -1.35 9.0 -1.55 8.9 -1.75 8.65 -2.1 Q8.45 -2.35 8.5 -2.7 L8.45 -2.85 8.35 -3.05 8.25 -3.25 8.25 -4.75 8.25 -5.3 M0.45 -10.75 L0.55 -10.55 0.65 -10.35 0.9 -10.2 1.25 -10.0 1.55 -9.8 1.75 -9.6 1.9 -9.45 2.0 -9.25 2.15 -9.15 2.6 -8.95 3.2 -8.7 3.5 -8.1 3.8 -7.4 4.2 -6.8 4.25 -6.6 4.25 -6.25 4.25 -5.85 4.25 -5.5 4.2 -5.3 4.15 -5.1 4.05 -4.95 3.9 -4.75 Q3.45 -4.45 2.9 -4.3 L1.5 -4.35 1.25 -4.55 1.15 -4.55 1.0 -4.35 0.9 -4.2 0.75 -4.0 0.75 -3.8 0.75 -3.6 0.7 -3.45 0.55 -3.25 0.45 -3.05 0.3 -2.85 0.05 -2.7 Q-0.05 -2.6 -0.15 -2.6 L-0.5 -2.5 -1.0 -2.6 -1.25 -2.85 -1.35 -3.0 -1.5 -3.55 -1.5 -4.3 -1.5 -5.05 -1.45 -5.25 -1.35 -5.45 -1.3 -5.6 -1.25 -5.8 -1.25 -6.55 -1.25 -7.3 -1.25 -8.45 -1.35 -8.6 -1.5 -8.85 -1.7 -9.2 -1.75 -9.35 -1.75 -9.55 -1.7 -9.75 -1.55 -10.15 -1.5 -10.3 -1.5 -10.5 -1.4 -10.7 -1.3 -10.85 -1.1 -11.05 -0.85 -11.2 -0.5 -11.2 -0.5 -11.25 -0.05 -11.1 0.25 -10.95 0.45 -10.75 M1.25 -6.6 L1.25 -6.05 1.75 -6.25 2.0 -6.45 1.8 -7.0 Q1.7 -7.3 1.25 -7.2 L1.25 -6.6 M26.25 -13.65 L27.35 -13.65 27.05 -13.55 26.55 -13.55 26.25 -13.65 M-0.95 1.8 L-0.8 1.65 -0.6 1.45 -0.35 1.3 0.0 1.3 0.0 1.25 0.45 1.4 0.75 1.6 0.95 1.75 1.05 1.95 1.15 2.15 1.25 2.5 1.3 2.75 1.45 2.65 1.65 2.45 1.9 2.3 2.25 2.25 2.7 2.4 3.0 2.6 3.2 2.75 3.3 2.95 3.4 3.15 3.45 3.3 3.5 3.5 3.5 4.05 3.5 5.2 3.5 5.55 3.4 5.95 3.1 6.5 2.8 6.9 2.75 7.05 2.75 7.25 2.75 7.6 2.7 7.8 2.55 8.0 2.4 8.15 2.2 8.4 1.75 8.5 1.25 8.4 1.0 8.2 0.8 8.0 0.45 7.65 -0.25 6.1 -0.75 4.8 -1.0 4.05 -1.0 3.5 -1.0 2.4 -0.95 1.8" fill="#533f11" fill-opacity="0.5019608" fill-rule="evenodd" stroke="none"/>
  </g>
</svg>
