<?xml version="1.0" encoding="UTF-8" standalone="no"?>
<svg xmlns:ffdec="https://www.free-decompiler.com/flash" xmlns:xlink="http://www.w3.org/1999/xlink" ffdec:objectType="shape" height="37.05px" width="40.55px" xmlns="http://www.w3.org/2000/svg">
  <g transform="matrix(1.0, 0.0, 0.0, 1.0, 50.6, 14.25)">
    <path d="M-27.7 -9.95 L-29.0 -10.1 -39.3 -11.4 -39.3 -11.35 -39.85 -11.25 -40.2 -11.05 -40.4 -10.9 -40.55 -10.7 -40.65 -10.5 -40.75 -10.35 -40.8 -10.15 -40.8 -9.95 -41.65 -9.1 Q-42.8 -7.2 -44.55 -5.85 -47.2 -3.9 -46.9 -0.95 L-46.85 -0.9 -46.9 -0.85 -47.0 -0.85 -47.15 -0.65 -47.25 -0.45 -47.5 -0.1 Q-48.05 0.4 -48.8 0.3 L-49.75 0.05 -50.0 -0.65 -50.05 -1.8 -50.3 -2.1 -50.6 -2.85 Q-50.65 -3.45 -50.3 -3.95 L-50.0 -4.35 -48.9 -6.0 -48.35 -6.75 -48.3 -6.95 -48.25 -7.15 -48.15 -7.35 -46.4 -9.5 Q-41.9 -15.15 -34.1 -14.1 L-33.55 -14.15 Q-28.65 -14.45 -24.15 -13.15 L-20.5 -12.45 Q-18.45 -12.25 -16.75 -11.2 L-16.6 -11.0 -16.5 -10.85 -16.4 -10.65 -16.35 -10.3 Q-15.1 -8.9 -14.25 -7.2 L-13.7 -6.8 -12.5 -5.55 -11.9 -4.6 -11.8 -4.4 -11.65 -4.1 -11.55 -3.65 -11.4 -3.45 -10.45 -2.35 -10.35 -2.25 Q-10.05 -1.9 -10.05 -1.4 L-10.05 -1.05 -10.1 -0.85 -10.5 -0.1 -11.5 0.35 Q-12.2 0.4 -12.85 -0.2 L-13.55 -0.8 Q-13.6 -1.85 -14.1 -2.85 -15.5 -6.65 -18.45 -9.25 L-18.8 -9.8 Q-19.4 -10.55 -20.3 -10.65 L-20.8 -10.65 -23.15 -10.15 -25.4 -10.1 -27.7 -9.95" fill="#533f11" fill-opacity="0.50980395" fill-rule="evenodd" stroke="none"/>
    <path d="M-46.85 -0.9 L-46.9 -0.95 Q-47.2 -3.9 -44.55 -5.85 -42.8 -7.2 -41.65 -9.1 L-40.8 -9.95 -40.8 -10.15 -40.75 -10.35 -40.65 -10.5 -40.55 -10.7 -40.4 -10.9 -40.2 -11.05 -39.85 -11.25 -39.3 -11.35 -39.3 -11.4 -29.0 -10.1 -27.7 -9.95 Q-33.1 -9.75 -38.55 -10.15 L-38.55 -10.1 -38.9 -10.05 -39.1 -10.0 -39.55 -10.15 -39.9 -10.1 -40.1 -10.0 -40.4 -9.9 -41.85 -8.4 -44.4 -4.85 -44.85 -4.45 -45.15 -4.05 -45.25 -3.9 Q-46.3 -3.55 -46.65 -2.55 -47.05 -1.5 -46.25 -0.7 L-45.3 -0.5 Q-44.35 -0.45 -43.55 -1.0 L-43.0 -1.8 -42.4 -1.1 -41.95 -0.25 -41.75 0.0 Q-38.3 2.95 -35.8 7.0 L-32.3 10.95 Q-30.8 12.6 -30.15 14.5 L-29.8 15.0 -29.8 15.15 -29.85 15.45 -29.85 15.55 -29.85 15.9 -29.75 15.95 -29.45 15.4 -29.25 14.55 Q-27.9 12.3 -26.1 10.45 L-24.55 8.9 -24.5 8.7 -24.5 8.55 -21.7 5.35 -20.4 3.85 Q-20.15 2.7 -19.4 1.85 L-18.15 0.65 -17.95 0.3 -17.4 -0.4 -17.15 -0.65 -16.85 -0.75 -16.7 -0.8 -17.05 0.4 -16.5 1.55 -16.1 1.7 -15.55 1.85 Q-14.05 1.5 -13.7 -0.05 -13.5 -1.15 -13.85 -2.15 L-14.1 -2.85 Q-13.6 -1.85 -13.55 -0.8 -13.5 0.25 -13.9 1.35 L-14.2 1.5 -15.05 1.85 -15.15 1.85 -16.35 3.15 -16.5 3.35 -16.7 3.75 -16.9 4.1 -17.15 4.3 -17.4 4.5 Q-17.85 5.6 -18.7 6.5 L-19.65 7.85 -24.05 12.85 -25.8 15.0 -27.05 17.4 -28.25 18.9 -28.5 19.1 -28.95 19.25 -29.3 19.35 -29.85 19.2 -30.25 19.05 -30.55 18.65 Q-32.5 18.6 -33.65 16.35 L-34.15 15.55 -34.25 15.35 -34.3 15.15 -34.35 15.0 -36.85 11.95 -38.15 10.45 -38.35 10.25 -40.05 7.85 -40.95 7.1 -41.6 6.35 -41.7 6.15 -41.75 6.0 -41.8 5.8 -43.2 3.55 -44.4 2.05 -44.65 1.45 -44.75 1.3 -45.4 0.95 -46.25 0.55 -46.65 -0.05 -46.8 -0.75 -46.8 -0.8 -46.85 -0.9" fill="#33270a" fill-opacity="0.50980395" fill-rule="evenodd" stroke="none"/>
    <path d="M-13.55 -0.8 L-12.85 -0.2 Q-12.2 0.4 -11.5 0.35 -11.9 1.7 -12.8 2.85 -13.7 4.0 -14.85 4.8 L-18.85 10.3 -20.4 12.85 -20.7 13.05 -21.2 13.45 -21.4 13.6 Q-23.6 17.35 -26.75 20.25 -27.95 21.35 -29.55 21.85 L-29.9 21.85 -30.1 22.25 -30.25 22.4 -30.5 22.6 -30.75 22.7 -31.05 22.8 -31.55 22.8 -31.85 22.7 -32.25 22.55 -38.95 14.8 Q-40.7 12.75 -41.6 10.15 L-41.8 9.95 -41.9 9.8 -42.0 9.6 -42.05 9.4 -42.1 9.25 Q-44.2 6.3 -46.55 3.5 -47.95 1.75 -49.85 0.6 L-50.05 0.05 -50.0 -0.65 -49.75 0.05 -48.8 0.3 Q-48.05 0.4 -47.5 -0.1 L-47.25 -0.45 -47.15 -0.65 -47.0 -0.85 -46.9 -0.85 -46.8 -0.75 -46.65 -0.05 -46.25 0.55 -45.4 0.95 -44.75 1.3 -44.65 1.45 -44.4 2.05 -43.2 3.55 -41.8 5.8 -41.75 6.0 -41.7 6.15 -41.6 6.35 -40.95 7.1 -40.05 7.85 -38.35 10.25 -38.15 10.45 -37.25 11.95 -36.85 11.95 -34.35 15.0 -34.3 15.15 -34.25 15.35 -34.15 15.55 -33.65 16.35 Q-32.5 18.6 -30.55 18.65 L-30.25 19.05 -29.85 19.2 -29.3 19.35 -28.95 19.25 -28.5 19.1 -28.25 18.9 -27.05 17.4 -25.8 15.0 -24.05 12.85 -19.65 7.85 -18.7 6.5 Q-17.85 5.6 -17.4 4.5 L-17.15 4.3 -16.9 4.1 -16.7 3.75 -16.5 3.35 -16.35 3.15 -15.15 1.85 -15.05 1.85 -14.2 1.5 -13.9 1.35 Q-13.5 0.25 -13.55 -0.8" fill="#533f11" fill-opacity="0.5019608" fill-rule="evenodd" stroke="none"/>
    <path d="M-27.7 -9.95 L-25.4 -10.1 -23.15 -10.15 -21.4 -10.15 -21.3 -10.25 Q-21.15 -10.35 -21.05 -10.4 L-20.3 -10.6 -20.3 -10.65 -18.45 -9.25 Q-15.5 -6.65 -14.1 -2.85 L-13.85 -2.15 Q-13.5 -1.15 -13.7 -0.05 -14.05 1.5 -15.55 1.85 L-16.1 1.7 -16.5 1.55 -17.05 0.4 -16.7 -0.8 -16.65 -0.9 -16.55 -1.1 -16.55 -1.25 -16.55 -1.45 Q-17.3 -3.85 -19.15 -5.7 L-20.8 -7.3 -27.8 -6.65 -29.75 -6.7 -34.9 -7.0 -38.5 -7.35 -38.9 -6.65 -39.25 -6.1 Q-40.3 -5.5 -40.85 -4.4 -41.15 -3.8 -41.75 -3.45 L-41.8 -3.3 -42.05 -2.9 -42.3 -2.5 -42.95 -1.95 -43.0 -1.8 -43.55 -1.0 Q-44.35 -0.45 -45.3 -0.5 L-46.25 -0.7 Q-47.05 -1.5 -46.65 -2.55 -46.3 -3.55 -45.25 -3.9 L-45.15 -4.05 -44.85 -4.45 -44.4 -4.85 -41.85 -8.4 -40.4 -9.9 -40.1 -10.0 -39.9 -10.1 -39.55 -10.15 -39.1 -10.0 -38.9 -10.05 -38.55 -10.1 -38.55 -10.15 Q-33.1 -9.75 -27.7 -9.95" fill="#33270a" fill-rule="evenodd" stroke="none"/>
  </g>
</svg>
