<?xml version="1.0" encoding="UTF-8" standalone="no"?>
<svg xmlns:ffdec="https://www.free-decompiler.com/flash" xmlns:xlink="http://www.w3.org/1999/xlink" ffdec:objectType="shape" height="34.8px" width="40.6px" xmlns="http://www.w3.org/2000/svg">
  <g transform="matrix(1.0, 0.0, 0.0, 1.0, 49.05, 17.45)">
    <path d="M-41.0 -15.5 L-40.45 -15.7 -39.7 -15.5 -39.7 -15.65 -39.7 -15.8 -39.7 -16.0 -39.7 -16.2 -39.65 -16.4 -39.3 -16.95 -39.1 -17.1 -38.75 -17.3 -38.2 -17.4 -38.2 -17.45 -23.95 -17.0 -19.85 -16.55 -19.5 -16.75 -18.95 -16.95 Q-13.35 -14.05 -10.1 -8.35 -9.25 -6.85 -8.95 -5.3 L-8.8 -5.2 Q-8.0 -3.7 -9.0 -2.25 -9.65 -1.25 -10.55 -0.5 -12.65 2.95 -15.2 6.25 L-20.1 12.35 -22.2 14.7 Q-23.85 15.9 -25.75 16.6 L-26.45 16.8 -26.85 16.7 Q-28.7 17.7 -31.05 17.15 L-31.25 17.1 -31.95 17.3 -33.15 17.0 -34.6 14.75 -35.5 12.85 -35.7 12.65 -35.8 12.5 -35.9 12.3 -36.05 11.9 -36.4 11.35 -36.4 11.2 -36.45 11.0 -43.1 4.1 -45.8 1.05 Q-46.7 0.65 -47.05 -0.25 L-47.65 -1.4 -47.7 -1.75 -48.1 -2.5 -48.25 -2.7 -48.35 -2.95 -48.4 -3.0 Q-49.55 -5.25 -48.6 -7.7 -47.8 -9.65 -46.15 -10.9 -45.3 -12.55 -43.6 -13.35 L-42.9 -13.65 -42.05 -14.4 -41.7 -15.0 -41.55 -15.2 -41.0 -15.5 M-38.7 -14.15 L-38.7 -14.05 -38.9 -13.55 Q-40.2 -12.9 -41.25 -11.65 L-45.3 -6.65 -45.45 -5.4 -45.5 -5.4 -45.9 -5.25 -45.9 -4.85 -45.9 -4.7 -45.3 -4.15 -44.8 -3.25 -44.6 -2.6 -44.45 -2.65 -44.45 -2.7 Q-41.9 -1.4 -40.0 0.85 -39.1 1.9 -39.65 3.0 L-39.55 3.1 -39.3 3.55 -39.05 3.65 -38.5 4.05 -37.8 5.05 Q-34.4 7.8 -32.45 11.75 L-32.0 12.65 -31.55 13.6 -31.45 13.6 -30.15 13.6 Q-28.7 13.55 -27.5 14.05 -25.85 13.2 -24.25 12.15 L-22.8 11.05 Q-21.85 9.45 -20.55 8.05 L-19.55 6.45 -19.55 6.35 Q-17.75 3.8 -15.6 1.5 L-14.45 0.15 -13.75 -0.75 Q-13.2 -2.35 -12.3 -3.7 L-11.9 -4.25 -12.0 -4.45 -12.15 -4.65 -12.15 -4.75 -12.3 -5.4 -12.95 -6.35 -13.25 -6.7 -13.35 -6.9 -13.4 -7.05 -13.45 -7.25 -16.8 -11.6 -17.05 -11.9 -17.05 -11.95 -17.0 -12.15 -16.95 -12.3 -16.95 -12.5 -17.0 -12.7 -17.05 -12.9 -17.15 -13.1 -17.3 -13.45 -17.9 -13.75 -18.45 -13.95 -22.75 -13.75 -29.55 -13.95 -36.95 -14.95 -36.95 -14.9 -37.5 -14.75 -38.05 -14.45 -38.2 -14.25 -38.45 -14.3 -38.75 -14.4 -38.7 -14.15" fill="#533f11" fill-opacity="0.5019608" fill-rule="evenodd" stroke="none"/>
    <path d="M-45.45 -5.4 L-45.3 -6.65 -41.25 -11.65 Q-40.2 -12.9 -38.9 -13.55 L-38.7 -14.05 -38.7 -14.15 -38.55 -14.15 -38.45 -14.3 -38.2 -14.25 -38.05 -14.45 -37.5 -14.75 -36.95 -14.9 -36.95 -14.95 -29.55 -13.95 -22.75 -13.75 -18.45 -13.95 -17.9 -13.75 -17.3 -13.45 -17.15 -13.1 -17.05 -12.9 -17.0 -12.7 -16.95 -12.5 -16.95 -12.3 -17.0 -12.15 -17.05 -11.95 -17.05 -11.9 -16.8 -11.6 -13.45 -7.25 -13.4 -7.05 -13.35 -6.9 -13.25 -6.7 -12.95 -6.35 -12.85 -6.05 -12.6 -4.9 -12.15 -4.75 -12.15 -4.65 -12.0 -4.45 -11.9 -4.25 -12.3 -3.7 Q-13.2 -2.35 -13.75 -0.75 L-14.45 0.15 -15.6 1.5 Q-17.75 3.8 -19.55 6.35 L-19.55 6.45 -20.3 7.4 -22.0 9.35 -23.4 11.1 -23.65 11.3 -23.75 11.35 -24.25 12.15 Q-25.85 13.2 -27.5 14.05 -28.7 13.55 -30.15 13.6 L-31.45 13.6 -31.5 13.3 -31.5 13.1 -32.0 12.65 -32.45 11.75 Q-34.4 7.8 -37.8 5.05 L-38.5 4.05 -39.05 3.65 -39.55 3.1 -39.65 3.0 Q-39.1 1.9 -40.0 0.85 -41.9 -1.4 -44.45 -2.7 L-44.45 -2.65 -44.6 -2.6 -44.8 -3.25 -45.3 -4.15 -45.4 -4.8 -45.45 -5.15 -45.45 -5.4 M-40.9 -5.55 L-40.8 -5.2 -40.75 -5.05 -31.7 5.9 Q-29.55 8.45 -29.1 11.45 L-28.85 11.65 -28.25 12.0 Q-27.65 10.85 -26.7 9.95 -26.05 9.4 -25.8 8.6 L-25.7 8.45 -25.5 8.25 -25.05 7.85 -22.65 3.0 Q-21.65 0.95 -19.9 -0.4 L-19.65 -0.75 -19.0 -1.5 -18.8 -1.7 -18.0 -2.05 -17.45 -2.2 -16.65 -2.0 -16.15 -1.75 -15.95 -1.95 -15.15 -2.55 -15.9 -2.75 -16.35 -3.5 Q-16.55 -4.2 -16.25 -4.8 L-18.7 -8.55 -20.1 -10.75 -21.65 -10.8 -35.45 -11.25 -36.55 -11.5 -36.65 -11.45 Q-38.05 -9.75 -39.05 -7.8 -39.75 -6.5 -40.9 -5.7 L-40.9 -5.55" fill="#533f11" fill-rule="evenodd" stroke="none"/>
  </g>
</svg>
