<?xml version="1.0" encoding="UTF-8" standalone="no"?>
<svg xmlns:ffdec="https://www.free-decompiler.com/flash" xmlns:xlink="http://www.w3.org/1999/xlink" ffdec:objectType="shape" height="13.5px" width="15.8px" xmlns="http://www.w3.org/2000/svg">
  <g transform="matrix(1.0, 0.0, 0.0, 1.0, 7.6, 6.65)">
    <path d="M1.2 5.2 L0.6 6.1 -0.2 5.95 0.4 6.05 1.2 5.2" fill="#990000" fill-rule="evenodd" stroke="none"/>
    <path d="M0.2 5.8 L0.2 5.85 0.05 5.9 0.2 5.8" fill="#00ccff" fill-rule="evenodd" stroke="none"/>
    <path d="M-3.25 -5.5 L-3.25 -5.4 -3.4 -5.45 -3.25 -5.5" fill="#dddddd" fill-opacity="0.3019608" fill-rule="evenodd" stroke="none"/>
    <path d="M-3.25 -5.4 L-2.9 -5.15 -2.8 -4.9 -2.75 -4.65 -2.75 -4.35 -2.8 -4.1 -2.95 -3.85 -3.25 -3.65 Q-3.3 -3.25 -3.6 -3.0 -3.95 -2.7 -4.4 -2.65 -4.85 -2.7 -5.15 -3.0 L-5.4 -3.45 -5.35 -3.9 -4.9 -4.6 -4.85 -4.65 -4.4 -5.2 -3.6 -5.55 -3.3 -5.6 -3.5 -5.45 -3.4 -5.45 -3.25 -5.4" fill="#8cff8c" fill-rule="evenodd" stroke="none"/>
    <path d="M-0.2 5.95 L-1.6 4.15 -1.65 4.05 -1.65 4.0 -1.65 3.9 -1.95 3.3 -2.4 2.6 -2.5 2.5 -2.5 2.45 -2.5 2.35 -2.8 2.0 -3.3 1.55 -3.65 1.75 Q-3.65 1.55 -4.0 1.5 -4.35 1.45 -4.25 0.95 -4.2 0.4 -4.3 0.3 L-4.45 0.0 -4.65 -0.25 -4.9 -0.6 -5.3 -1.15 -5.35 -1.2 -5.45 -1.25 -5.5 -1.35 -5.55 -1.4 -5.55 -1.3 -5.6 -1.45 -5.7 -1.55 -5.7 -1.65 -5.7 -1.7 -5.7 -1.75 -5.75 -1.75 -5.75 -1.8 -5.95 -2.1 -6.05 -2.1 -6.25 -2.15 -6.35 -2.25 -6.5 -2.4 -6.6 -2.5 -7.1 -2.8 -6.75 -2.75 -6.75 -2.8 -6.75 -2.9 -6.7 -3.0 -6.65 -3.15 -6.4 -3.4 -6.2 -3.65 -6.2 -3.75 -6.2 -3.85 -6.15 -3.9 -6.15 -3.95 -5.95 -4.15 -5.6 -4.5 -5.55 -4.6 -4.9 -5.3 -4.85 -5.35 -4.1 -5.7 -3.75 -5.6 -3.6 -5.55 -4.4 -5.2 -4.85 -4.65 -4.9 -4.6 -5.35 -3.9 -5.4 -3.45 -5.15 -3.0 Q-4.85 -2.7 -4.4 -2.65 -3.95 -2.7 -3.6 -3.0 -3.3 -3.25 -3.25 -3.65 L-2.95 -3.85 -2.8 -4.1 -2.75 -4.35 -2.75 -4.65 -2.8 -4.9 -2.9 -5.15 -3.25 -5.4 -3.25 -5.5 -2.0 -5.7 0.65 -5.65 1.3 -5.45 1.35 -5.35 1.4 -5.2 1.45 -5.05 1.45 -4.9 1.45 -4.85 1.4 -4.7 1.35 -4.55 1.25 -4.4 1.05 -4.35 -0.3 -4.1 -0.35 -4.05 -0.4 -3.85 -0.55 -3.65 -2.75 -2.9 -3.3 -2.5 -3.3 -2.45 -3.35 -2.35 -3.4 -2.3 -3.35 -2.25 -3.35 -2.15 -3.3 -2.0 -3.1 -1.65 Q-2.5 -1.65 -2.2 -1.15 L-1.75 -0.35 -1.45 0.2 -1.25 0.95 -1.2 1.2 Q-1.15 1.2 -1.05 1.3 L-0.95 1.5 -0.9 1.75 -0.9 1.85 -0.65 2.5 -0.25 3.2 -0.15 3.45 -0.15 3.5 -0.15 3.6 -0.15 3.65 0.1 4.2 0.3 4.7 0.2 4.8 0.15 5.1 0.1 5.3 0.1 5.45 0.1 5.55 0.15 5.65 0.2 5.8 0.05 5.9 -0.2 5.95" fill="#33ff00" fill-rule="evenodd" stroke="none"/>
    <path d="M-4.85 -5.35 L-4.5 -5.7 -3.85 -6.0 -3.6 -6.05 1.35 -5.95 2.45 -5.7 2.25 -5.55 2.2 -5.45 2.15 -5.35 2.15 -5.2 2.15 -5.1 2.15 -5.0 2.25 -4.8 Q2.4 -4.4 2.8 -4.3 L3.05 -4.1 3.25 -3.8 3.6 -3.5 3.75 -3.35 3.8 -3.3 3.85 -3.25 3.85 -3.15 3.9 -3.05 3.9 -2.9 3.9 -2.8 3.9 -2.75 3.9 -2.65 3.25 -0.75 2.35 1.25 0.3 4.7 0.1 4.2 -0.15 3.65 -0.15 3.6 -0.15 3.5 -0.15 3.45 -0.25 3.2 -0.65 2.5 -0.9 1.85 -0.9 1.75 -0.95 1.5 -1.05 1.3 Q-1.15 1.2 -1.2 1.2 L-1.25 0.95 -1.45 0.2 -1.75 -0.35 -2.2 -1.15 Q-2.5 -1.65 -3.1 -1.65 L-3.3 -2.0 -3.35 -2.15 -3.35 -2.25 -3.4 -2.3 -3.35 -2.35 -3.3 -2.45 -3.3 -2.5 -2.75 -2.9 -0.55 -3.65 -0.4 -3.85 -0.35 -4.05 -0.3 -4.1 1.05 -4.35 1.25 -4.4 1.35 -4.55 1.4 -4.7 1.45 -4.85 1.45 -4.9 1.45 -5.05 1.4 -5.2 1.35 -5.35 1.3 -5.45 0.65 -5.65 -2.0 -5.7 -3.25 -5.5 -3.4 -5.45 -3.5 -5.45 -3.3 -5.6 -3.6 -5.55 -3.75 -5.6 -4.1 -5.7 -4.85 -5.35" fill="#2cd900" fill-rule="evenodd" stroke="none"/>
    <path d="M2.45 -5.7 L2.5 -5.8 2.9 -5.9 3.05 -5.85 Q3.2 -5.8 3.3 -5.7 L3.6 -5.65 3.65 -5.75 3.95 -5.95 4.3 -6.05 5.05 -5.9 7.3 -3.0 7.3 -2.85 7.3 -2.75 7.35 -2.7 7.4 -2.5 7.5 -2.35 7.4 -2.1 5.35 0.3 5.25 0.4 1.2 5.2 0.4 6.05 0.4 6.0 0.3 5.95 0.2 5.85 0.2 5.8 0.15 5.65 0.1 5.55 0.1 5.45 0.1 5.3 0.15 5.1 0.2 4.8 0.3 4.7 2.35 1.25 3.25 -0.75 3.9 -2.65 3.9 -2.75 3.9 -2.8 3.9 -2.9 3.9 -3.05 3.85 -3.15 3.85 -3.25 3.8 -3.3 3.75 -3.35 3.6 -3.5 3.25 -3.8 3.05 -4.1 2.8 -4.3 Q2.4 -4.4 2.25 -4.8 L2.15 -5.0 2.15 -5.1 2.15 -5.2 2.15 -5.35 2.2 -5.45 2.25 -5.55 2.45 -5.7" fill="#26bf00" fill-rule="evenodd" stroke="none"/>
    <path d="M4.85 -6.15 L-4.8 -6.15 -7.1 -2.8 0.1 6.35 7.7 -2.5 4.85 -6.15 Z" fill="none" stroke="#000000" stroke-linecap="round" stroke-linejoin="round" stroke-width="1.0"/>
  </g>
</svg>
