<?xml version="1.0" encoding="UTF-8" standalone="no"?>
<svg xmlns:ffdec="https://www.free-decompiler.com/flash" xmlns:xlink="http://www.w3.org/1999/xlink" ffdec:objectType="shape" height="13.25px" width="37.25px" xmlns="http://www.w3.org/2000/svg">
  <g transform="matrix(1.0, 0.0, 0.0, 1.0, 21.0, 6.55)">
    <path d="M-12.8 -5.55 L-12.9 -5.5 -13.05 -5.4 -13.1 -5.3 -13.15 -5.2 -13.2 -5.05 -13.25 -4.95 -13.2 -4.75 -13.05 -4.4 -12.9 -4.2 -12.1 -3.9 -12.15 -3.8 -12.15 -3.7 -12.1 -3.6 -12.05 -3.4 -12.0 -3.3 -11.9 -3.25 -11.8 -3.15 -11.65 -3.05 -4.6 -1.05 -1.6 -0.25 0.6 -0.4 0.65 -0.5 0.75 -0.6 0.8 -0.8 0.85 -0.9 0.85 -0.95 0.85 -1.05 0.85 -1.25 0.85 -1.45 0.75 -1.55 0.7 -1.6 0.5 -1.8 0.3 -1.85 0.1 -1.9 -1.75 -1.9 -0.5 -2.05 -0.45 -2.05 4.0 -1.9 4.05 -2.0 4.1 -2.0 6.55 -2.3 6.65 -2.4 6.75 -2.5 6.8 -2.7 6.85 -2.8 6.85 -2.9 6.85 -2.95 6.85 -3.0 7.95 -3.1 10.05 -3.35 11.5 -3.65 11.55 -3.75 11.65 -3.85 11.7 -3.95 11.75 -4.15 11.75 -4.2 11.75 -4.3 11.75 -4.4 11.75 -4.5 11.7 -4.6 11.65 -4.7 11.55 -4.8 11.45 -4.85 11.3 -4.95 11.2 -4.95 11.0 -5.0 7.0 -4.45 6.45 -4.4 6.4 -4.45 6.3 -4.55 6.2 -4.6 6.05 -4.7 5.95 -4.7 5.75 -4.75 1.0 -4.6 0.95 -4.6 0.9 -4.7 0.8 -4.8 0.55 -4.95 0.45 -4.95 0.25 -5.0 -0.25 -5.0 -5.4 -4.9 -5.65 -4.85 -5.85 -4.75 -5.95 -4.65 -5.95 -4.6 -6.3 -4.65 -7.45 -4.95 -7.65 -5.0 -7.9 -4.95 -8.1 -4.85 -8.2 -4.75 -8.25 -4.65 -8.3 -4.55 -8.35 -4.4 -8.4 -4.3 -11.15 -5.2 -12.0 -5.45 -12.1 -5.55 15.25 -5.55 15.25 -4.2 -19.5 5.6 -19.5 5.7 -20.25 5.7 -20.25 2.05 -20.2 2.15 -20.15 2.35 -20.1 2.45 -19.9 2.6 -19.6 3.0 -19.5 3.2 -19.5 3.3 -19.5 3.45 -19.5 3.75 -19.5 3.85 -19.45 3.95 -19.4 4.0 -19.3 4.2 -19.25 4.3 Q-19.0 4.55 -18.65 4.6 L-18.0 4.45 -17.95 4.35 -17.85 4.25 -17.75 4.05 -17.75 3.95 -17.75 3.85 -17.75 3.8 -17.7 3.7 -17.65 3.6 -17.55 3.5 -17.5 3.45 -14.65 3.7 -14.6 3.6 -14.5 3.5 -14.45 3.3 -14.4 3.2 -14.4 3.1 -14.4 3.05 -14.4 2.85 -14.4 2.75 -14.15 2.75 -13.5 2.6 -13.45 2.5 -13.35 2.4 -13.25 2.2 -13.25 2.1 -13.1 2.15 -11.75 2.65 -11.7 2.75 -11.6 2.85 -11.4 2.95 -11.15 3.0 -10.85 2.9 -10.65 2.85 -10.6 2.75 -10.5 2.65 -10.45 2.55 -10.4 2.35 -10.4 2.3 -10.4 2.2 -10.4 2.1 -10.4 1.9 -10.4 1.8 -10.5 1.7 -10.55 1.65 -10.75 1.45 -10.85 1.35 -15.7 -0.4 -18.05 -1.45 -18.25 -1.5 -18.5 -1.5 -18.75 -1.45 -18.9 -1.35 -19.05 -1.25 -19.05 -1.2 -19.15 -1.2 -19.35 -1.1 -19.45 -1.0 -19.5 -0.9 -19.55 -0.8 -19.6 -0.65 -19.65 -0.55 -19.65 -0.45 -19.6 -0.35 -19.55 -0.15 -19.5 -0.05 -19.3 0.1 -18.8 0.35 -18.75 0.45 -18.8 0.65 -18.9 0.95 -18.9 1.05 -18.9 1.1 -18.85 1.2 -18.85 1.3 -18.9 1.35 -19.1 1.3 -19.4 1.25 -19.5 1.25 -19.75 1.3 -19.9 1.4 -20.05 1.5 -20.1 1.6 -20.15 1.7 -20.2 1.85 -20.25 1.95 -20.25 -5.55 -12.8 -5.55" fill="#515151" fill-rule="evenodd" stroke="none"/>
    <path d="M-12.1 -5.55 L-12.0 -5.45 -11.15 -5.2 -8.4 -4.3 -8.35 -4.4 -8.3 -4.55 -8.25 -4.65 -8.2 -4.75 -8.1 -4.85 -7.9 -4.95 -7.65 -5.0 -7.45 -4.95 -6.3 -4.65 -5.95 -4.6 -5.95 -4.65 -5.85 -4.75 -5.65 -4.85 -5.4 -4.9 -0.25 -5.0 0.25 -5.0 0.45 -4.95 0.55 -4.95 0.8 -4.8 0.9 -4.7 0.95 -4.6 1.0 -4.6 5.75 -4.75 5.95 -4.7 6.05 -4.7 6.2 -4.6 6.3 -4.55 6.4 -4.45 6.45 -4.4 7.0 -4.45 11.0 -5.0 11.2 -4.95 11.3 -4.95 11.45 -4.85 11.55 -4.8 11.65 -4.7 11.7 -4.6 11.75 -4.5 11.75 -4.4 11.75 -4.3 11.75 -4.2 11.75 -4.15 11.7 -3.95 11.65 -3.85 11.55 -3.75 11.5 -3.65 10.05 -3.35 7.95 -3.1 6.85 -3.0 6.85 -2.95 6.85 -2.9 6.85 -2.8 6.8 -2.7 6.75 -2.5 6.65 -2.4 6.55 -2.3 4.1 -2.0 4.05 -2.0 4.0 -1.9 -0.45 -2.05 -0.5 -2.05 -1.75 -1.9 0.1 -1.9 0.3 -1.85 0.5 -1.8 0.7 -1.6 0.75 -1.55 0.85 -1.45 0.85 -1.25 0.85 -1.05 0.85 -0.95 0.85 -0.9 0.8 -0.8 0.75 -0.6 0.65 -0.5 0.6 -0.4 -1.6 -0.25 -4.6 -1.05 -11.65 -3.05 -11.8 -3.15 -11.9 -3.25 -12.0 -3.3 -12.05 -3.4 -12.1 -3.6 -12.15 -3.7 -12.15 -3.8 -12.1 -3.9 -12.9 -4.2 -13.05 -4.4 -13.2 -4.75 -13.25 -4.95 -13.2 -5.05 -13.15 -5.2 -13.1 -5.3 -13.05 -5.4 -12.9 -5.5 -12.8 -5.55 -12.75 -5.6 -12.5 -5.65 -12.3 -5.65 -12.1 -5.55" fill="#626262" fill-rule="evenodd" stroke="none"/>
    <path d="M-20.25 1.95 L-20.2 1.85 -20.15 1.7 -20.1 1.6 -20.05 1.5 -19.9 1.4 -19.75 1.3 -19.5 1.25 -19.4 1.25 -19.1 1.3 -18.9 1.35 -18.85 1.3 -18.85 1.2 -18.9 1.1 -18.9 1.05 -18.9 0.95 -18.8 0.65 -18.75 0.45 -18.8 0.35 -19.3 0.1 -19.5 -0.05 -19.55 -0.15 -19.6 -0.35 -19.65 -0.45 -19.65 -0.55 -19.6 -0.65 -19.55 -0.8 -19.5 -0.9 -19.45 -1.0 -19.35 -1.1 -19.15 -1.2 -19.05 -1.2 -19.05 -1.25 -18.9 -1.35 -18.75 -1.45 -18.5 -1.5 -18.25 -1.5 -18.05 -1.45 -15.7 -0.4 -10.85 1.35 -10.75 1.45 -10.55 1.65 -10.5 1.7 -10.4 1.8 -10.4 1.9 -10.4 2.1 -10.4 2.2 -10.4 2.3 -10.4 2.35 -10.45 2.55 -10.5 2.65 -10.6 2.75 -10.65 2.85 -10.85 2.9 -11.15 3.0 -11.4 2.95 -11.6 2.85 -11.7 2.75 -11.75 2.65 -13.1 2.15 -13.25 2.1 -13.25 2.2 -13.35 2.4 -13.45 2.5 -13.5 2.6 -14.15 2.75 -14.4 2.75 -14.4 2.85 -14.4 3.05 -14.4 3.1 -14.4 3.2 -14.45 3.3 -14.5 3.5 -14.6 3.6 -14.65 3.7 -17.5 3.45 -17.55 3.5 -17.65 3.6 -17.7 3.7 -17.75 3.8 -17.75 3.85 -17.75 3.95 -17.75 4.05 -17.85 4.25 -17.95 4.35 -18.0 4.45 -18.65 4.6 Q-19.0 4.55 -19.25 4.3 L-19.3 4.2 -19.4 4.0 -19.45 3.95 -19.5 3.85 -19.5 3.75 -19.5 3.45 -19.5 3.3 -19.5 3.2 -19.6 3.0 -19.9 2.6 -20.1 2.45 -20.15 2.35 -20.2 2.15 -20.25 2.05 -20.25 1.95" fill="#444444" fill-rule="evenodd" stroke="none"/>
    <path d="M15.25 -4.2 L-19.5 5.6 M-19.5 -5.55 L15.25 -5.55 M-20.0 -5.55 L-20.0 5.7" fill="none" stroke="#000000" stroke-linecap="round" stroke-linejoin="round" stroke-width="2.0"/>
  </g>
</svg>
