<?xml version="1.0" encoding="UTF-8" standalone="no"?>
<svg xmlns:ffdec="https://www.free-decompiler.com/flash" xmlns:xlink="http://www.w3.org/1999/xlink" ffdec:objectType="shape" height="63.0px" width="125.45px" xmlns="http://www.w3.org/2000/svg">
  <g transform="matrix(1.0, 0.0, 0.0, 1.0, 65.25, 33.95)">
    <path d="M23.0 -24.5 L23.0 -27.7 23.9 -27.65 27.9 -27.4 30.2 -26.85 32.35 -25.9 Q35.5 -24.5 37.95 -21.8 L38.05 -21.75 38.1 -21.4 38.25 -21.3 39.7 -20.25 40.65 -19.4 41.5 -18.6 43.2 -15.8 44.65 -13.6 45.25 -12.8 45.75 -11.9 46.95 -10.0 47.85 -8.55 48.4 -7.55 49.1 -6.25 50.1 -4.4 50.15 -4.25 Q51.0 -2.8 50.75 -1.45 51.3 -0.5 51.2 0.4 52.4 0.8 52.5 2.1 L52.9 2.4 52.8 3.35 Q52.45 5.2 53.1 6.95 52.55 6.55 51.65 6.25 48.25 3.9 46.5 0.75 L45.95 -0.7 45.35 -1.15 Q45.0 -3.15 45.75 -5.0 L45.8 -5.15 44.9 -7.0 44.8 -7.05 44.4 -8.0 42.65 -10.8 41.85 -12.0 41.75 -12.1 Q41.65 -12.2 41.7 -12.4 L41.6 -12.45 41.65 -12.95 41.65 -13.1 Q41.9 -13.15 42.15 -13.35 L42.15 -13.75 41.65 -15.05 40.8 -16.35 39.95 -17.45 39.9 -17.5 40.2 -17.0 Q40.35 -16.7 40.15 -16.45 L40.05 -16.25 39.95 -16.15 39.8 -16.05 39.5 -16.05 39.1 -16.1 38.3 -17.1 37.8 -17.75 Q37.05 -18.65 36.65 -19.7 36.3 -20.6 37.25 -20.75 L37.5 -20.7 37.15 -21.1 36.75 -21.2 36.5 -21.25 36.5 -21.2 36.2 -21.15 36.05 -21.1 35.95 -21.0 35.85 -20.8 35.75 -20.6 35.75 -20.25 36.1 -19.4 34.25 -20.5 33.8 -20.45 33.7 -20.4 33.0 -20.7 32.75 -20.85 Q32.75 -21.05 32.35 -21.15 L30.8 -21.45 28.95 -21.65 28.85 -21.45 28.5 -21.35 28.3 -21.25 28.05 -21.35 26.3 -21.6 26.2 -21.55 23.0 -21.2 23.0 -23.05 23.25 -23.05 23.7 -23.15 23.8 -23.25 23.9 -23.45 24.0 -23.6 24.0 -23.8 23.95 -24.0 23.8 -24.2 23.6 -24.35 23.25 -24.45 23.0 -24.5 M38.3 -17.1 L37.65 -17.1 37.6 -17.45 37.6 -17.6 37.55 -17.85 37.5 -17.95 37.65 -17.8 38.3 -17.1 M47.25 -7.15 L46.75 -8.6 46.3 -9.75 46.1 -9.95 45.85 -10.1 45.5 -10.25 45.5 -10.2 Q44.5 -10.1 44.9 -9.15 L45.55 -7.25 45.95 -5.35 45.9 -3.7 Q45.75 -2.55 46.75 -2.25 L47.0 -2.35 Q47.7 -2.95 47.6 -3.95 L47.45 -5.6 47.25 -7.15 M30.4 15.3 L30.2 15.4 29.9 15.6 Q27.5 16.6 25.2 16.0 L22.5 15.45 22.05 15.25 21.65 14.7 21.6 14.7 21.5 14.5 20.8 13.75 Q23.4 11.5 25.45 8.65 L26.25 8.75 26.9 9.1 27.9 9.85 28.4 10.05 Q32.05 7.95 34.7 4.05 35.4 3.05 36.45 3.6 L36.6 3.6 38.75 1.0 42.7 -3.9 Q43.5 -4.95 44.45 -4.25 44.95 -3.85 45.05 -3.1 L44.95 -2.35 41.7 2.1 41.7 3.3 Q41.45 4.9 39.7 6.05 38.8 6.65 38.3 7.55 L37.45 9.2 36.35 9.7 34.45 10.85 32.35 11.7 29.95 12.4 Q28.7 12.7 28.0 13.85 L27.95 14.1 Q27.75 14.85 28.75 15.25 L29.65 15.45 29.85 15.35 30.4 15.3 M-6.7 9.35 L-6.05 9.15 Q-5.5 9.0 -4.8 9.15 L3.85 9.5 3.85 9.55 Q2.6 11.75 -0.4 11.75 L-2.3 11.8 -3.45 11.85 Q-5.3 12.95 -7.45 13.2 -9.95 15.6 -13.1 15.7 L-13.9 15.65 -14.3 15.55 -14.5 15.6 Q-15.95 16.85 -18.1 17.4 -18.8 16.2 -20.55 16.9 L-23.65 17.0 -26.8 16.2 Q-28.4 15.85 -29.55 14.8 -30.9 13.65 -32.5 13.25 L-32.5 13.3 -32.8 13.35 -32.95 13.4 -33.05 13.5 -33.15 13.7 -33.2 13.8 -34.25 12.95 -36.0 11.75 -36.0 11.8 -36.3 11.85 -36.5 11.95 -36.65 12.15 -36.75 12.3 -36.75 12.4 -41.2 8.2 Q-42.1 7.2 -41.6 6.4 L-42.15 5.8 -43.0 4.3 -43.8 3.7 -44.25 3.6 -45.05 1.95 -46.55 -0.9 -48.3 -3.65 -50.1 -6.1 -50.5 -6.2 -50.75 -6.25 -50.75 -6.2 -52.1 -7.8 -54.05 -9.65 Q-55.15 -10.5 -56.5 -10.75 L-56.5 -10.7 -56.8 -10.65 -56.95 -10.6 -57.05 -10.5 -58.0 -10.95 -59.5 -11.6 Q-60.35 -12.05 -61.25 -12.0 L-61.25 -11.95 -61.7 -11.85 -62.25 -11.75 -62.7 -11.6 -63.0 -11.5 -63.3 -11.4 -63.45 -11.35 -63.55 -11.25 -63.65 -11.05 -63.75 -10.85 -63.75 -10.7 Q-63.55 -9.8 -62.55 -10.1 L-60.95 -10.35 -61.65 -10.0 -62.5 -9.7 -62.8 -9.8 -63.3 -9.95 -63.5 -10.05 -63.6 -10.25 -63.65 -10.35 -63.75 -10.5 Q-64.05 -12.15 -62.45 -12.6 L-59.05 -13.7 Q-56.7 -13.45 -54.7 -12.4 -54.15 -12.15 -54.0 -11.7 -50.7 -10.45 -48.35 -7.7 L-47.9 -6.95 Q-46.95 -6.35 -46.1 -5.35 L-45.75 -4.9 -44.35 -3.0 Q-41.25 1.25 -38.3 5.65 L-33.2 10.95 -33.1 11.1 Q-32.1 11.45 -31.6 12.3 L-31.55 12.8 -31.55 12.9 -30.95 13.05 -29.3 13.1 -28.0 13.4 -26.6 13.1 Q-26.15 13.2 -25.85 13.45 L-25.15 13.4 -19.25 12.65 Q-18.6 11.5 -16.95 10.95 L-15.45 10.3 Q-14.3 9.6 -13.1 9.25 L-9.85 8.9 -9.25 9.2 -9.4 9.25 -10.05 9.6 Q-10.2 9.4 -10.5 9.25 -10.9 9.25 -11.3 9.65 L-11.55 9.8 -12.05 10.1 -13.75 10.9 -17.9 12.0 Q-19.1 12.35 -19.25 13.5 -18.25 14.45 -17.0 13.75 L-16.95 13.75 -15.75 13.55 -12.85 12.55 -10.15 11.35 -7.65 10.1 -6.7 9.35 M-30.75 17.6 L-31.55 17.5 -31.7 17.3 -31.8 17.15 -32.0 16.85 -32.0 16.55 -31.6 16.9 -30.75 17.6 M-49.5 -2.3 L-50.25 -3.0 -53.25 -5.35 -53.35 -5.45 Q-53.75 -5.75 -53.75 -6.2 L-53.6 -6.65 -54.45 -7.25 -54.0 -7.45 -52.65 -6.3 -50.75 -4.15 -49.5 -2.3 M-57.45 -8.95 L-57.55 -8.95 -57.9 -9.1 -58.35 -9.2 -58.55 -9.35 -58.6 -9.5 -58.75 -9.65 -58.75 -9.75 -58.7 -9.7 -57.45 -8.95 M-59.3 -10.0 L-59.7 -10.05 -59.75 -10.15 -59.3 -10.0" fill="#669900" fill-rule="evenodd" stroke="none"/>
    <path d="M23.0 -24.5 L23.25 -24.45 23.6 -24.35 23.8 -24.2 23.95 -24.0 24.0 -23.8 24.0 -23.6 23.9 -23.45 23.8 -23.25 23.7 -23.15 23.25 -23.05 23.0 -23.05 22.6 -23.2 22.25 -23.5 22.25 -23.7 22.25 -23.85 22.35 -24.05 22.45 -24.25 22.55 -24.35 22.7 -24.4 23.0 -24.45 23.0 -24.5 M36.1 -19.4 L35.75 -20.25 35.75 -20.6 35.85 -20.8 35.95 -21.0 36.05 -21.1 36.2 -21.15 36.5 -21.2 36.5 -21.25 36.75 -21.2 37.15 -21.1 37.5 -20.7 37.25 -20.75 Q36.3 -20.6 36.65 -19.7 37.05 -18.65 37.8 -17.75 L38.3 -17.1 39.1 -16.1 39.5 -16.05 39.8 -16.05 39.95 -16.15 40.05 -16.25 40.15 -16.45 Q40.35 -16.7 40.2 -17.0 L39.9 -17.5 39.95 -17.45 40.8 -16.35 41.65 -15.05 42.15 -13.75 42.15 -13.35 Q41.9 -13.15 41.65 -13.1 40.85 -12.9 40.35 -14.0 L39.2 -15.95 39.1 -16.1 39.05 -16.1 38.45 -16.85 38.3 -17.1 37.65 -17.8 37.5 -17.95 36.85 -18.55 36.25 -19.2 36.1 -19.4 M47.25 -7.15 L47.45 -5.6 47.6 -3.95 Q47.7 -2.95 47.0 -2.35 L46.75 -2.25 Q45.75 -2.55 45.9 -3.7 L45.95 -5.35 45.55 -7.25 44.9 -9.15 Q44.5 -10.1 45.5 -10.2 L45.5 -10.25 45.85 -10.1 46.1 -9.95 46.3 -9.75 46.75 -8.6 47.25 -7.15 M37.45 9.2 L38.45 9.25 38.6 9.45 38.6 9.65 38.5 10.2 38.15 10.55 37.85 10.75 37.0 11.2 36.6 11.45 Q36.45 12.25 35.75 12.85 L33.25 14.5 31.55 15.1 30.4 15.3 29.85 15.35 29.65 15.45 28.75 15.25 Q27.75 14.85 27.95 14.1 L28.0 13.85 Q28.7 12.7 29.95 12.4 L32.35 11.7 34.45 10.85 36.35 9.7 37.45 9.2 M-18.1 17.4 L-18.0 17.65 Q-19.9 19.1 -22.75 18.7 L-27.3 17.7 -27.45 17.65 -27.25 18.15 Q-27.95 19.3 -29.35 18.5 L-30.75 17.6 -31.6 16.9 -32.0 16.55 -33.45 15.55 -35.15 14.5 Q-36.3 13.8 -36.7 12.7 L-36.75 12.5 -36.75 12.4 -36.75 12.3 -36.65 12.15 -36.5 11.95 -36.3 11.85 -36.0 11.8 -36.0 11.75 -34.25 12.95 -33.2 13.8 -33.15 13.7 -33.05 13.5 -32.95 13.4 -32.8 13.35 -32.5 13.3 -32.5 13.25 Q-30.9 13.65 -29.55 14.8 -28.4 15.85 -26.8 16.2 L-23.65 17.0 -20.55 16.9 Q-18.8 16.2 -18.1 17.4 M-44.25 3.6 L-43.5 4.9 Q-42.8 6.1 -42.85 7.4 -44.45 7.95 -45.15 5.85 L-46.35 2.75 -47.95 -0.25 -48.5 -1.15 -49.3 -1.95 -49.5 -2.3 -50.75 -4.15 -52.65 -6.3 -54.0 -7.45 -54.45 -7.25 -55.0 -7.35 -56.55 -8.25 -57.45 -8.95 -58.7 -9.7 -58.75 -9.75 -59.3 -10.0 -59.75 -10.15 -60.95 -10.35 -62.55 -10.1 Q-63.55 -9.8 -63.75 -10.7 L-63.75 -10.85 -63.65 -11.05 -63.55 -11.25 -63.45 -11.35 -63.3 -11.4 -63.0 -11.5 -62.7 -11.6 -62.25 -11.75 -61.7 -11.85 -61.25 -11.95 -61.25 -12.0 Q-60.35 -12.05 -59.5 -11.6 L-58.0 -10.95 -57.05 -10.5 -56.95 -10.6 -56.8 -10.65 -56.5 -10.7 -56.5 -10.75 Q-55.15 -10.5 -54.05 -9.65 L-52.1 -7.8 -50.75 -6.2 -50.75 -6.25 -50.5 -6.2 -50.1 -6.1 -48.3 -3.65 -46.55 -0.9 -45.05 1.95 -44.25 3.6 M-9.25 9.2 L-7.65 8.2 -7.25 8.0 Q-6.3 8.65 -6.7 9.35 L-7.65 10.1 -10.15 11.35 -12.85 12.55 -15.75 13.55 -16.95 13.75 -17.0 13.75 Q-18.25 14.45 -19.25 13.5 -19.1 12.35 -17.9 12.0 L-13.75 10.9 -12.05 10.1 -11.55 9.8 -11.3 9.65 Q-10.9 9.25 -10.5 9.25 -10.2 9.4 -10.05 9.6 L-9.4 9.25 -9.25 9.2 M-28.9 4.85 L-29.25 6.0 -29.7 7.3 -29.85 8.25 -29.9 8.45 -29.9 8.65 -29.95 9.2 -29.95 9.5 -29.75 10.8 Q-29.65 11.45 -30.05 11.9 L-30.2 11.95 -30.5 11.95 -30.9 11.85 -31.1 11.7 -31.25 11.5 Q-31.15 11.0 -31.35 10.55 L-31.5 9.5 -31.5 9.45 -31.5 9.15 -31.5 8.4 -31.5 8.1 -31.45 7.15 -31.0 6.35 -31.0 5.75 -30.85 5.55 -30.6 5.15 -30.35 4.8 -30.15 4.45 -29.9 4.2 -29.5 4.05 -29.5 4.0 Q-28.75 4.15 -28.9 4.85" fill="#8bce00" fill-rule="evenodd" stroke="none"/>
    <path d="M23.0 -25.8 L23.0 -28.6 24.75 -28.7 27.75 -28.4 Q29.3 -28.1 30.7 -27.5 L32.35 -26.8 32.8 -26.55 38.65 -22.6 40.25 -21.1 40.45 -20.9 44.05 -17.0 45.7 -14.85 47.95 -11.35 49.45 -8.8 49.95 -7.8 50.05 -7.5 50.35 -6.8 Q51.7 -6.1 52.75 -4.25 L51.25 -4.6 Q53.5 0.9 54.05 7.15 L53.35 7.5 Q51.8 1.95 49.55 -3.45 L48.85 -5.25 47.7 -5.55 46.7 -4.25 46.9 -3.15 47.1 -0.1 47.25 1.95 46.35 0.95 46.1 0.45 45.35 -1.15 45.0 -1.95 41.65 3.25 Q39.55 6.7 37.85 10.4 35.45 15.4 31.45 16.85 L25.65 17.05 Q23.1 16.65 21.05 15.5 L18.95 14.15 18.55 13.85 19.2 12.4 19.85 13.0 21.85 14.45 Q25.9 17.1 29.8 15.55 32.4 14.55 34.95 11.7 38.95 7.8 41.3 3.0 42.85 -0.4 43.7 -4.25 L39.15 1.35 Q34.45 6.45 28.7 9.95 32.5 4.55 37.35 -0.05 39.95 -2.65 42.9 -4.95 L43.2 -4.7 43.65 -5.3 43.6 -5.45 43.2 -6.75 42.85 -7.75 42.2 -9.5 42.1 -9.95 40.95 -13.2 39.75 -14.9 37.45 -17.2 35.7 -18.45 Q32.65 -20.25 29.0 -20.55 L25.75 -20.65 25.65 -20.6 23.0 -20.4 23.0 -22.15 25.6 -22.25 26.8 -22.25 28.75 -22.1 Q32.8 -21.7 36.2 -19.35 L36.3 -19.35 38.05 -18.0 Q39.9 -16.55 41.4 -14.85 L43.55 -12.0 45.5 -8.2 45.5 -8.05 45.85 -7.15 46.0 -6.8 47.9 -7.3 47.85 -7.45 47.35 -8.45 46.7 -9.65 45.15 -12.75 44.65 -13.6 40.85 -18.45 39.5 -19.9 37.85 -21.45 34.5 -23.8 31.9 -25.15 29.5 -25.85 28.15 -26.0 24.9 -26.1 24.35 -26.0 23.0 -25.8 M47.95 1.95 L47.45 1.75 47.45 1.7 48.9 0.25 47.95 1.95 M24.6 8.75 Q24.85 8.6 25.4 8.75 L26.0 9.05 26.35 9.35 26.6 9.5 27.35 10.25 26.45 10.05 26.25 9.95 25.5 9.7 23.55 8.9 24.6 8.75 M5.9 9.45 L8.35 8.9 5.9 10.25 Q-1.6 14.05 -9.85 16.75 L-13.1 17.65 Q-18.25 18.95 -23.45 19.45 -28.7 19.5 -33.1 17.25 L-33.2 17.15 -36.2 15.2 Q-41.45 11.1 -44.55 5.15 -47.05 0.4 -50.75 -2.95 L-53.8 -5.3 Q-56.15 -6.95 -58.9 -8.1 L-62.15 -9.45 -63.95 -6.85 -63.9 -5.25 -64.8 -4.65 Q-66.3 -9.5 -62.65 -12.85 -55.05 -15.95 -48.7 -9.25 L-45.25 -5.35 -43.45 -3.0 Q-41.1 0.3 -39.05 4.0 -36.75 8.05 -33.2 10.45 L-33.1 10.55 Q-30.5 12.25 -27.3 13.1 L-24.05 12.9 Q-18.65 10.85 -13.1 9.3 L-7.85 7.9 Q-10.4 10.15 -13.1 11.7 -20.45 15.75 -29.0 14.0 -31.2 13.5 -33.1 12.6 L-33.2 12.55 Q-37.2 10.6 -39.85 6.5 L-45.8 -3.0 -46.85 -4.7 -47.2 -5.35 Q-51.65 -12.25 -59.4 -12.5 L-62.95 -11.35 -63.55 -10.35 -60.3 -11.35 Q-55.95 -8.85 -52.05 -5.35 L-49.45 -3.0 -48.6 -2.1 Q-42.15 4.6 -36.8 12.3 -35.35 14.35 -33.2 15.55 L-33.1 15.6 Q-31.35 16.5 -29.3 16.8 -21.2 18.2 -13.65 15.45 L-13.1 15.3 Q-6.1 12.55 0.9 10.7 L5.9 9.45" fill="#000000" fill-rule="evenodd" stroke="none"/>
    <path d="M26.7 -32.6 L26.75 -32.4 26.55 -32.25 26.6 -32.35 26.65 -32.55 26.7 -32.6 M25.05 -31.7 L23.65 -30.3 23.0 -29.0 23.0 -30.85 24.2 -31.3 25.05 -31.7 M23.0 -32.1 L23.0 -33.05 23.95 -33.2 24.05 -33.2 24.65 -33.25 26.05 -33.0 23.9 -32.45 23.0 -32.1 M26.45 -32.8 L26.55 -32.75 26.6 -32.7 26.45 -32.8 M32.3 -22.55 L32.35 -22.9 32.6 -23.25 33.05 -23.55 Q34.2 -24.2 35.1 -23.25 35.75 -22.4 35.35 -21.4 34.7 -19.9 33.5 -18.95 L33.35 -18.2 33.25 -17.75 33.15 -17.7 Q33.1 -17.6 33.2 -17.55 L33.1 -17.35 32.15 -16.05 Q31.05 -15.9 29.85 -15.0 L28.55 -13.75 Q27.8 -12.7 27.4 -11.45 L27.3 -10.7 27.15 -10.8 26.6 -11.1 Q25.75 -11.85 25.65 -12.75 L25.7 -13.7 25.45 -13.75 25.0 -13.9 Q25.1 -16.65 24.7 -19.4 L24.35 -20.4 Q24.2 -21.15 24.2 -22.2 24.1 -22.7 24.4 -23.3 L24.6 -23.45 24.85 -23.65 25.0 -23.7 27.6 -24.15 28.35 -24.25 28.4 -24.25 30.55 -24.75 31.15 -24.3 31.4 -23.25 31.75 -22.8 31.85 -22.5 Q30.85 -22.65 30.0 -22.0 L28.9 -21.1 28.3 -20.0 27.9 -17.6 27.65 -15.05 27.2 -13.2 27.15 -13.2 27.25 -13.15 27.6 -12.95 27.75 -12.95 27.95 -12.95 28.75 -14.5 Q29.15 -15.95 29.2 -17.6 L29.25 -18.8 29.4 -19.8 Q29.7 -20.9 30.8 -21.1 32.7 -21.3 32.55 -22.55 L32.3 -22.55 M31.15 -19.6 L30.85 -19.25 30.9 -19.2 30.8 -19.1 30.8 -18.85 Q30.85 -18.75 31.0 -18.75 L31.25 -18.6 31.4 -18.65 31.55 -18.7 31.85 -18.7 32.0 -18.8 32.15 -18.8 32.35 -18.95 32.55 -18.8 32.6 -19.0 32.75 -19.15 32.85 -19.25 33.0 -19.45 Q32.85 -19.65 32.95 -19.75 L32.8 -19.95 32.75 -19.95 32.35 -20.05 32.05 -19.85 31.55 -19.8 31.15 -19.6 M26.45 -21.75 L26.3 -21.75 26.25 -21.65 26.1 -21.4 26.15 -21.25 26.4 -20.8 Q26.6 -20.25 27.2 -20.2 27.5 -20.05 27.6 -20.2 L27.7 -20.35 27.65 -20.5 27.8 -20.6 27.6 -20.75 27.15 -21.35 26.95 -21.6 26.8 -21.7 26.6 -21.8 26.45 -21.75 M27.0 -17.25 L26.5 -17.2 26.2 -17.15 Q26.0 -17.25 25.9 -17.05 L25.6 -17.0 25.5 -16.85 Q25.4 -16.45 25.6 -16.3 L26.45 -16.25 26.95 -16.3 27.25 -16.6 27.3 -16.75 27.15 -17.2 27.0 -17.25 M47.25 -19.5 L48.7 -19.0 49.75 -18.8 52.9 -19.15 53.05 -19.05 53.55 -19.0 Q54.35 -18.85 54.8 -18.2 L55.15 -17.35 Q53.5 -17.4 52.05 -16.0 51.15 -15.25 50.4 -14.3 L48.75 -12.0 48.15 -11.6 Q47.0 -11.0 45.75 -10.55 L45.45 -10.65 45.0 -10.95 44.9 -10.8 44.6 -10.75 44.5 -10.85 Q44.55 -11.7 43.75 -12.3 L43.1 -12.65 42.6 -13.45 42.2 -14.25 Q42.6 -15.9 41.65 -16.85 L43.6 -19.15 44.15 -19.25 45.3 -19.75 46.0 -19.8 46.65 -19.75 46.75 -19.65 46.6 -19.6 46.3 -19.3 46.15 -18.8 46.0 -18.3 Q45.9 -18.0 46.05 -17.7 L46.2 -17.55 46.35 -17.4 46.65 -17.4 46.75 -17.35 47.05 -17.35 47.05 -17.7 47.1 -18.25 47.15 -18.85 47.3 -19.1 Q47.45 -19.35 47.25 -19.5 M52.8 -17.65 L52.55 -17.65 50.7 -17.9 49.9 -17.75 48.6 -17.5 46.85 -16.55 46.7 -16.25 Q46.0 -15.75 45.2 -15.45 L43.7 -14.85 Q43.65 -13.75 44.9 -13.9 45.75 -13.95 46.45 -14.55 L47.55 -15.75 Q48.4 -16.5 49.5 -16.65 L50.05 -16.65 51.2 -17.05 51.7 -16.9 52.0 -16.8 52.45 -16.75 52.85 -16.85 53.0 -17.2 52.75 -17.65 52.8 -17.65 M44.35 -17.45 L44.15 -17.55 43.85 -17.5 43.75 -17.6 43.65 -17.35 43.6 -17.1 43.75 -16.75 Q44.05 -16.1 44.65 -15.9 L45.15 -16.0 45.2 -16.15 45.25 -16.3 45.4 -16.35 45.3 -16.4 45.35 -16.7 45.35 -16.75 45.15 -16.9 45.2 -17.0 44.95 -17.0 44.8 -16.95 44.6 -17.25 44.55 -17.35 44.35 -17.45 M45.75 -13.1 L45.6 -12.65 Q45.45 -12.4 45.85 -12.25 L46.05 -12.15 46.1 -12.15 46.3 -12.2 46.4 -12.2 46.55 -12.4 46.55 -12.45 46.55 -12.75 46.85 -13.05 46.95 -13.4 46.95 -13.6 46.7 -13.9 46.7 -13.95 46.4 -13.85 45.85 -13.7 45.75 -13.1 M49.5 -14.5 L49.45 -14.65 49.3 -14.7 49.3 -14.8 49.0 -14.95 48.75 -15.0 48.7 -14.9 48.4 -14.9 48.4 -14.85 48.3 -14.8 48.35 -14.55 48.35 -14.45 48.2 -14.35 48.85 -13.85 Q49.2 -13.85 49.4 -14.0 L49.5 -14.1 49.35 -14.25 49.45 -14.35 49.5 -14.5 M58.65 12.2 L58.8 12.2 58.95 12.1 59.05 12.0 59.15 11.8 59.1 11.2 59.3 11.2 59.4 11.05 60.2 15.15 59.7 15.85 59.2 15.75 59.2 15.8 58.85 15.35 Q56.05 12.2 52.75 9.8 L52.5 9.8 Q49.2 7.45 45.35 5.85 L45.6 5.6 45.15 5.05 Q44.75 4.65 44.7 4.05 L44.85 3.0 45.1 2.65 Q45.3 2.55 45.45 2.5 L45.3 2.4 Q45.0 1.6 45.2 0.85 45.75 0.65 46.2 0.1 L46.6 -0.7 47.75 -1.05 47.95 -1.25 48.9 -1.6 51.1 -1.65 51.45 -1.4 52.0 -1.7 Q52.9 -1.95 53.5 -1.4 L53.45 -1.4 53.3 -1.35 53.2 -1.25 53.1 -1.05 53.1 -1.0 52.65 -1.35 52.25 -1.45 52.0 -1.5 Q51.2 -1.4 51.5 -0.65 L51.55 -0.6 50.65 -1.2 50.4 -1.25 50.05 -1.1 51.05 1.5 51.2 2.65 Q51.0 4.65 52.2 6.25 53.5 8.0 55.2 9.4 L55.65 9.8 55.9 9.8 Q56.9 10.85 57.4 12.3 57.65 12.8 58.15 12.95 L58.4 13.0 58.5 12.9 58.6 12.8 58.6 12.75 58.7 12.65 58.65 12.2 M53.95 -1.45 L53.95 -1.5 54.5 -1.4 53.95 -1.45 M55.95 -0.7 Q56.5 -0.75 57.05 -0.4 L57.4 0.2 57.55 0.65 58.2 1.35 58.65 2.1 58.9 2.35 58.8 3.6 58.35 2.65 Q57.6 1.2 56.65 0.0 L55.95 -0.7 M50.9 5.35 L50.25 5.2 49.7 5.25 48.95 5.35 48.3 5.55 Q47.85 5.7 47.7 6.05 L47.7 6.2 47.7 6.45 47.85 6.55 48.1 6.75 48.3 6.6 48.6 6.5 48.95 6.4 49.35 6.4 49.8 6.3 50.25 6.3 50.95 6.2 50.95 6.15 51.0 5.95 51.0 5.9 51.15 5.75 51.1 5.7 51.1 5.55 50.9 5.4 50.9 5.35 M56.7 7.65 L56.8 8.25 56.75 8.2 56.5 7.85 56.5 7.8 56.7 7.65 M49.4 1.4 L48.85 1.45 48.35 1.5 47.7 1.6 47.55 1.9 47.75 2.25 48.55 2.4 49.75 2.6 Q50.3 2.7 50.4 2.15 50.55 1.9 50.25 1.75 50.0 1.5 49.8 1.5 L49.4 1.4 M41.2 3.8 L42.45 4.75 43.5 6.2 Q43.35 9.5 45.35 12.1 44.45 11.65 43.25 11.6 L42.4 11.25 41.05 11.15 41.15 10.75 40.85 10.55 40.0 10.3 39.4 10.05 Q35.1 11.5 35.0 6.9 34.9 4.85 35.45 3.05 L35.7 2.7 38.8 2.8 Q40.1 3.0 41.2 3.8 M37.95 4.7 L37.95 4.95 38.0 5.0 38.1 5.1 38.2 5.2 38.45 5.3 38.75 5.25 39.2 5.0 39.3 4.6 39.25 4.45 39.2 4.35 39.1 4.3 39.0 4.2 38.8 4.1 Q38.75 4.05 38.65 4.15 L38.4 4.2 38.3 4.3 38.0 4.35 38.05 4.4 37.95 4.55 37.95 4.7 M41.9 8.2 L40.9 7.0 39.8 5.95 38.85 5.55 37.95 5.3 37.55 5.5 Q37.15 5.55 36.9 5.75 L36.35 6.15 35.85 6.45 35.45 6.85 35.5 6.9 35.35 7.1 35.4 7.2 35.35 7.35 35.45 7.45 35.5 7.6 35.75 7.7 36.4 7.55 36.8 7.25 37.15 7.0 37.4 6.85 37.75 6.6 37.75 6.65 38.6 6.65 38.5 6.65 38.25 6.8 38.0 7.05 Q37.85 7.35 37.85 7.85 L37.9 8.1 38.1 8.7 38.3 9.35 38.5 9.6 38.6 9.65 38.65 9.7 38.75 9.8 38.9 9.85 39.15 9.8 39.35 9.6 39.45 9.45 39.4 9.15 Q39.25 8.9 39.25 8.65 L39.05 8.2 39.0 8.0 38.9 7.85 39.05 7.4 39.2 7.2 39.2 7.15 39.15 7.05 39.2 6.95 39.7 7.5 40.65 8.45 41.6 9.3 42.25 9.9 43.2 9.85 Q43.45 9.4 43.1 9.1 L41.9 8.2 M26.65 12.0 L26.55 12.2 26.75 12.65 27.45 13.2 27.75 13.5 27.75 13.65 28.0 14.15 28.0 14.55 28.4 15.25 28.4 16.0 28.35 16.15 28.15 16.45 Q27.4 17.05 26.45 17.45 L25.5 17.9 24.65 18.15 Q23.8 18.75 22.85 19.05 21.75 18.3 19.9 18.05 L19.15 17.95 17.5 17.55 16.6 17.2 14.75 16.85 14.65 16.55 14.55 16.1 13.3 16.15 12.55 16.25 12.45 16.35 12.05 16.4 Q11.5 16.4 11.1 16.75 L10.8 16.7 10.55 16.75 10.2 16.7 9.6 16.25 11.6 15.7 14.15 14.6 Q17.0 13.25 19.6 11.5 20.55 10.85 21.65 10.65 L21.8 10.6 Q23.1 10.45 24.1 11.15 L24.3 11.25 25.0 11.6 Q25.8 12.0 26.65 12.0 M21.4 14.75 L21.3 13.85 21.05 13.3 20.9 13.15 20.65 13.0 20.45 12.85 20.2 12.8 20.0 12.85 19.75 12.95 19.8 12.95 19.65 13.25 19.65 13.4 19.9 13.85 20.1 14.45 20.15 15.5 20.2 16.15 20.35 16.25 20.4 16.35 20.5 16.45 20.6 16.45 20.8 16.45 20.95 16.4 21.2 16.3 21.4 15.7 21.4 15.05 21.4 14.75 M24.15 12.25 L23.7 12.05 23.25 12.25 23.15 12.5 23.15 12.8 23.35 13.1 23.95 13.55 24.55 14.2 24.95 14.95 25.3 15.65 25.4 15.75 25.5 15.7 25.65 15.75 25.9 15.7 26.05 15.5 Q26.25 15.0 26.0 14.5 L25.6 13.75 24.95 13.05 24.15 12.25 M-57.75 -19.5 Q-53.55 -18.95 -51.3 -15.3 -50.4 -14.0 -51.3 -12.6 -52.15 -12.0 -53.2 -11.95 L-53.65 -11.9 -53.55 -13.05 Q-53.45 -14.35 -54.05 -15.5 L-54.65 -16.35 -54.6 -16.4 -54.4 -16.6 -54.3 -16.8 -54.35 -17.0 -54.55 -17.25 -54.7 -17.3 -54.85 -17.35 -54.85 -17.3 -55.0 -17.25 -55.15 -17.2 -55.25 -16.95 -55.25 -16.9 -55.75 -17.2 Q-56.95 -17.8 -57.45 -18.9 L-57.75 -19.5 M-54.1 -11.3 Q-54.85 -10.2 -56.4 -10.65 L-57.9 -11.15 -58.6 -12.0 -59.1 -12.7 -59.15 -12.85 -59.45 -14.25 -59.6 -15.95 -59.6 -16.45 -59.85 -17.3 -59.9 -17.85 -60.15 -18.3 -60.05 -19.25 -59.45 -20.05 -58.85 -19.4 -58.5 -18.65 -58.2 -18.0 -57.95 -17.55 -57.5 -17.25 -55.85 -16.05 Q-55.25 -15.6 -54.95 -14.95 L-54.7 -14.1 -54.7 -12.7 -54.6 -11.6 -54.45 -11.45 -54.35 -11.35 -54.1 -11.3 M-51.85 -14.35 L-51.85 -14.45 -51.9 -14.7 -51.95 -14.75 -52.2 -14.95 -52.4 -15.0 -52.6 -15.1 -52.6 -15.05 -52.75 -15.05 -52.9 -15.0 -53.0 -14.85 -53.05 -14.75 -53.1 -14.65 -53.1 -14.5 -53.2 -14.4 -53.1 -14.35 Q-53.0 -14.0 -52.7 -14.0 L-52.1 -14.1 -51.95 -14.15 -51.9 -14.2 -51.85 -14.35 M-55.75 -15.0 L-55.8 -15.1 -56.05 -15.2 -56.25 -15.25 -56.4 -15.2 -56.55 -15.1 -56.9 -15.0 -57.45 -14.7 -57.9 -14.35 -57.95 -14.1 -57.9 -14.0 -57.25 -13.65 -56.9 -13.85 -56.55 -14.1 Q-56.1 -14.2 -55.75 -14.5 L-55.6 -14.8 -55.6 -14.85 -55.75 -15.0 M-55.55 9.35 L-55.7 8.9 -56.25 7.65 -56.6 7.5 -56.8 7.3 Q-57.5 6.5 -57.45 5.55 L-57.4 4.2 -56.85 3.05 -56.85 3.0 -56.9 2.0 -56.6 1.1 Q-56.3 -0.75 -54.85 -1.95 L-53.8 -2.65 -51.65 -3.55 Q-50.25 -3.85 -49.1 -3.2 L-48.85 -3.0 -48.6 -2.45 -48.6 -2.3 -48.7 -1.9 -48.75 -1.6 -48.9 -1.65 -49.05 -1.7 -49.5 -1.4 -49.55 -1.4 -49.7 -1.35 -49.8 -1.25 -49.85 -1.15 -50.75 -0.25 -51.15 0.25 -52.45 2.25 -53.75 4.3 -54.6 6.15 -54.9 7.4 -55.15 7.75 -55.35 8.3 -55.5 8.9 -55.55 9.35 M-55.0 10.5 L-55.05 10.55 -55.05 10.5 -55.0 10.5 M-52.9 -1.25 L-53.25 -0.9 Q-53.45 -0.75 -53.25 -0.55 L-52.8 0.0 -52.5 0.4 -52.4 0.6 -52.35 0.7 -52.2 0.85 -51.95 0.9 -51.8 0.9 -51.65 0.8 -51.6 0.7 -51.55 0.5 -51.65 0.0 -51.95 -0.45 -52.25 -0.85 -52.65 -1.1 -52.9 -1.25 M-8.0 11.7 Q-6.65 12.65 -5.3 11.7 -3.6 12.8 -3.0 15.3 L-2.6 17.1 -2.6 17.55 -2.5 19.0 -2.45 23.7 -2.85 26.0 -3.1 26.75 -3.3 26.55 Q-4.2 24.9 -5.85 23.95 -8.85 22.05 -12.55 21.7 -12.85 21.0 -12.55 20.15 -13.75 19.0 -14.5 17.4 -15.15 16.25 -15.3 14.9 -14.75 14.85 -13.9 14.15 L-13.1 14.15 Q-11.65 13.95 -10.55 12.9 L-10.15 12.4 Q-10.05 12.25 -9.8 12.2 L-9.4 11.75 -9.2 11.55 -8.15 11.55 -8.0 11.7 M-11.25 13.7 L-11.25 13.75 -11.45 13.75 -11.5 13.8 -11.65 13.9 -11.7 14.0 -11.7 14.15 -11.75 14.25 -10.55 15.0 -10.8 15.05 -10.9 15.1 -11.1 15.2 -11.55 15.7 -11.75 16.0 -11.9 16.25 -11.95 16.4 -11.95 16.45 -11.9 16.55 -11.8 16.7 -11.7 16.8 -11.45 16.85 -11.2 16.8 -11.1 16.65 -10.9 16.4 -10.85 16.25 -10.8 16.2 -10.65 16.1 -10.5 15.95 -9.45 15.75 -9.3 15.7 -8.9 15.95 Q-8.1 16.45 -7.5 17.1 -7.8 17.05 -8.0 17.3 L-8.2 17.65 -8.4 17.95 -8.65 18.35 -8.85 18.6 -8.85 18.7 -8.9 19.0 -8.95 19.25 -9.0 19.5 -8.95 19.8 -8.75 20.05 -8.55 20.1 Q-8.05 20.05 -8.05 19.55 L-7.8 18.95 -7.35 18.2 -7.1 17.6 -7.1 17.55 -6.4 18.7 -5.1 21.55 Q-4.75 22.65 -4.65 23.9 -4.45 25.3 -3.3 25.1 L-3.85 22.85 Q-4.15 21.3 -4.8 19.85 L-6.25 17.1 -7.55 15.55 -7.5 15.55 Q-7.2 15.6 -7.1 15.3 L-6.9 14.85 -6.6 14.5 Q-6.4 14.25 -6.5 14.05 L-6.9 13.7 -7.05 13.75 -7.25 13.9 -7.5 14.15 -7.65 14.3 -7.9 14.55 -8.0 14.7 -8.0 14.8 -8.0 14.9 -8.0 15.05 -7.9 15.2 -8.4 14.85 Q-9.7 13.9 -11.25 13.7 M-54.85 1.8 L-55.05 1.95 -55.2 2.05 -55.25 2.2 -55.3 2.35 -55.3 2.6 -55.25 2.75 -55.25 2.85 -55.15 3.0 -55.0 3.05 -54.9 3.15 -54.75 3.3 -54.7 3.4 -54.4 3.45 -54.2 3.4 -54.1 3.3 -54.0 3.15 -54.0 3.05 -54.05 2.85 -54.2 2.6 -54.35 2.35 -54.45 2.2 -54.65 1.95 -54.85 1.8" fill="#009900" fill-rule="evenodd" stroke="none"/>
    <path d="M26.6 -32.7 L26.65 -32.65 26.7 -32.6 26.65 -32.55 26.6 -32.35 26.55 -32.25 26.45 -32.15 25.05 -31.7 24.2 -31.3 23.0 -30.85 23.0 -32.1 23.9 -32.45 26.05 -33.0 26.45 -33.0 26.35 -33.0 26.45 -32.8 26.6 -32.7 M32.3 -22.55 L32.55 -22.55 Q32.7 -21.3 30.8 -21.1 29.7 -20.9 29.4 -19.8 L29.25 -18.8 29.2 -17.6 Q29.15 -15.95 28.75 -14.5 L27.95 -12.95 27.75 -12.95 27.6 -12.95 27.25 -13.15 27.15 -13.2 27.2 -13.2 27.65 -15.05 27.9 -17.6 28.3 -20.0 28.9 -21.1 30.0 -22.0 Q30.85 -22.65 31.85 -22.5 L32.3 -22.55 M27.0 -17.25 L27.15 -17.2 27.3 -16.75 27.25 -16.6 26.95 -16.3 26.45 -16.25 25.6 -16.3 Q25.4 -16.45 25.5 -16.85 L25.6 -17.0 25.9 -17.05 Q26.0 -17.25 26.2 -17.15 L26.5 -17.2 27.0 -17.25 M26.45 -21.75 L26.6 -21.8 26.8 -21.7 26.95 -21.6 27.15 -21.35 27.6 -20.75 27.8 -20.6 27.65 -20.5 27.7 -20.35 27.6 -20.2 Q27.5 -20.05 27.2 -20.2 26.6 -20.25 26.4 -20.8 L26.15 -21.25 26.1 -21.4 26.25 -21.65 26.3 -21.75 26.45 -21.75 M31.15 -19.6 L31.55 -19.8 32.05 -19.85 32.35 -20.05 32.75 -19.95 32.8 -19.95 32.95 -19.75 Q32.85 -19.65 33.0 -19.45 L32.85 -19.25 32.75 -19.15 32.6 -19.0 32.55 -18.8 32.35 -18.95 32.15 -18.8 32.0 -18.8 31.85 -18.7 31.55 -18.7 31.4 -18.65 31.25 -18.6 31.0 -18.75 Q30.85 -18.75 30.8 -18.85 L30.8 -19.1 30.9 -19.2 30.85 -19.25 31.15 -19.6 M46.75 -19.65 L47.2 -19.7 47.3 -19.5 47.25 -19.5 Q47.45 -19.35 47.3 -19.1 L47.15 -18.85 47.1 -18.25 47.05 -17.7 47.05 -17.35 46.75 -17.35 46.65 -17.4 46.35 -17.4 46.2 -17.55 46.05 -17.7 Q45.9 -18.0 46.0 -18.3 L46.15 -18.8 46.3 -19.3 46.6 -19.6 46.75 -19.65 M49.5 -14.5 L49.45 -14.35 49.35 -14.25 49.5 -14.1 49.4 -14.0 Q49.2 -13.85 48.85 -13.85 L48.2 -14.35 48.35 -14.45 48.35 -14.55 48.3 -14.8 48.4 -14.85 48.4 -14.9 48.7 -14.9 48.75 -15.0 49.0 -14.95 49.3 -14.8 49.3 -14.7 49.45 -14.65 49.5 -14.5 M45.75 -13.1 L45.85 -13.7 46.4 -13.85 46.7 -13.95 46.7 -13.9 46.95 -13.6 46.95 -13.4 46.85 -13.05 46.55 -12.75 46.55 -12.45 46.55 -12.4 46.4 -12.2 46.3 -12.2 46.1 -12.15 46.05 -12.15 45.85 -12.25 Q45.45 -12.4 45.6 -12.65 L45.75 -13.1 M44.35 -17.45 L44.55 -17.35 44.6 -17.25 44.8 -16.95 44.95 -17.0 45.2 -17.0 45.15 -16.9 45.35 -16.75 45.35 -16.7 45.3 -16.4 45.4 -16.35 45.25 -16.3 45.2 -16.15 45.15 -16.0 44.65 -15.9 Q44.05 -16.1 43.75 -16.75 L43.6 -17.1 43.65 -17.35 43.75 -17.6 43.85 -17.5 44.15 -17.55 44.35 -17.45 M52.8 -17.65 L52.75 -17.65 53.0 -17.2 52.85 -16.85 52.45 -16.75 52.0 -16.8 51.7 -16.9 51.2 -17.05 50.05 -16.65 49.5 -16.65 Q48.4 -16.5 47.55 -15.75 L46.45 -14.55 Q45.75 -13.95 44.9 -13.9 43.65 -13.75 43.7 -14.85 L45.2 -15.45 Q46.0 -15.75 46.7 -16.25 L46.85 -16.55 48.6 -17.5 49.9 -17.75 50.7 -17.9 52.55 -17.65 52.8 -17.65 M58.65 12.2 L58.7 12.65 58.6 12.75 58.6 12.8 58.5 12.9 58.4 13.0 58.15 12.95 Q57.65 12.8 57.4 12.3 56.9 10.85 55.9 9.8 L55.65 9.8 55.2 9.4 Q53.5 8.0 52.2 6.25 51.0 4.65 51.2 2.65 L51.05 1.5 50.05 -1.1 50.4 -1.25 50.65 -1.2 51.55 -0.6 52.05 1.2 52.2 2.8 52.2 3.5 52.1 3.7 52.0 3.9 52.0 4.05 52.0 4.45 52.0 4.6 52.05 4.8 53.3 6.35 54.25 7.8 55.55 9.3 56.0 9.8 56.25 9.8 57.05 10.9 58.05 12.15 58.4 12.2 58.5 12.2 58.55 12.2 58.65 12.2 M55.85 2.65 L55.25 2.9 54.55 2.9 54.4 2.7 54.3 2.5 54.25 2.3 54.25 2.15 54.3 1.95 54.45 1.75 54.65 1.55 54.85 1.4 55.25 1.3 55.25 1.25 55.5 1.3 55.85 1.4 56.05 1.55 56.2 1.75 56.25 1.95 56.2 2.1 56.15 2.3 55.85 2.65 M56.25 4.5 L56.75 4.55 57.1 4.65 57.3 4.8 57.45 5.0 57.5 5.2 57.45 5.35 57.3 5.75 Q57.1 6.0 56.75 6.05 L56.0 6.35 55.5 6.4 54.9 6.2 54.8 6.0 54.75 5.8 54.75 5.65 54.85 5.45 54.95 5.25 55.15 5.05 55.35 4.9 55.75 4.7 55.95 4.6 56.25 4.55 56.25 4.5 M50.9 5.35 L50.9 5.4 51.1 5.55 51.1 5.7 51.15 5.75 51.0 5.9 51.0 5.95 50.95 6.15 50.95 6.2 50.25 6.3 49.8 6.3 49.35 6.4 48.95 6.4 48.6 6.5 48.3 6.6 48.1 6.75 47.85 6.55 47.7 6.45 47.7 6.2 47.7 6.05 Q47.85 5.7 48.3 5.55 L48.95 5.35 49.7 5.25 50.25 5.2 50.9 5.35 M49.4 1.4 L49.8 1.5 Q50.0 1.5 50.25 1.75 50.55 1.9 50.4 2.15 50.3 2.7 49.75 2.6 L48.55 2.4 47.75 2.25 47.55 1.9 47.7 1.6 48.35 1.5 48.85 1.45 49.4 1.4 M41.9 8.2 L43.1 9.1 Q43.45 9.4 43.2 9.85 L42.25 9.9 41.6 9.3 40.65 8.45 39.7 7.5 39.2 6.95 39.15 7.05 39.2 7.15 39.2 7.2 39.05 7.4 38.9 7.85 39.0 8.0 39.05 8.2 39.25 8.65 Q39.25 8.9 39.4 9.15 L39.45 9.45 39.35 9.6 39.15 9.8 38.9 9.85 38.75 9.8 38.65 9.7 38.6 9.65 38.5 9.6 38.3 9.35 38.1 8.7 37.9 8.1 37.85 7.85 Q37.85 7.35 38.0 7.05 L38.25 6.8 38.5 6.65 38.6 6.65 37.75 6.65 37.75 6.6 37.4 6.85 37.15 7.0 36.8 7.25 36.4 7.55 35.75 7.7 35.5 7.6 35.45 7.45 35.35 7.35 35.4 7.2 35.35 7.1 35.5 6.9 35.45 6.85 35.85 6.45 36.35 6.15 36.9 5.75 Q37.15 5.55 37.55 5.5 L37.95 5.3 38.85 5.55 39.8 5.95 40.9 7.0 41.9 8.2 M37.95 4.7 L37.95 4.55 38.05 4.4 38.0 4.35 38.3 4.3 38.4 4.2 38.65 4.15 Q38.75 4.05 38.8 4.1 L39.0 4.2 39.1 4.3 39.2 4.35 39.25 4.45 39.3 4.6 39.2 5.0 38.75 5.25 38.45 5.3 38.2 5.2 38.1 5.1 38.0 5.0 37.95 4.95 37.95 4.7 M26.6 11.6 L26.7 12.0 26.65 12.0 Q25.8 12.0 25.0 11.6 L24.3 11.25 24.1 11.15 Q23.1 10.45 21.8 10.6 L21.65 10.65 Q20.55 10.85 19.6 11.5 17.0 13.25 14.15 14.6 L11.6 15.7 9.6 16.25 8.45 16.45 8.45 16.35 8.35 16.05 8.35 15.95 8.5 15.75 8.45 15.7 Q8.8 15.4 9.3 15.2 9.8 14.9 10.35 14.75 11.35 14.25 12.55 14.1 14.25 13.85 15.5 12.6 16.9 11.2 18.6 10.3 L18.1 9.9 17.6 9.5 17.05 9.1 Q16.9 8.95 16.9 8.65 L17.0 8.4 Q17.25 8.05 17.6 8.3 L18.15 8.6 18.65 9.0 19.15 9.4 19.35 9.9 19.3 10.0 Q20.9 9.35 22.6 9.45 L23.7 9.55 Q24.55 9.7 25.2 10.1 L25.8 10.55 26.6 11.6 M23.45 7.35 L23.8 7.8 23.8 7.9 23.9 8.45 23.8 8.85 23.55 9.05 23.25 9.0 23.05 8.85 22.85 8.7 22.45 8.15 22.35 7.8 Q22.2 7.65 22.2 7.35 L22.3 7.05 22.9 7.0 23.45 7.35 M24.15 12.25 L24.95 13.05 25.6 13.75 26.0 14.5 Q26.25 15.0 26.05 15.5 L25.9 15.7 25.65 15.75 25.5 15.7 25.4 15.75 25.3 15.65 24.95 14.95 24.55 14.2 23.95 13.55 23.35 13.1 23.15 12.8 23.15 12.5 23.25 12.25 23.7 12.05 24.15 12.25 M21.4 14.75 L21.4 15.05 21.4 15.7 21.2 16.3 20.95 16.4 20.8 16.45 20.6 16.45 20.5 16.45 20.4 16.35 20.35 16.25 20.2 16.15 20.15 15.5 20.1 14.45 19.9 13.85 19.65 13.4 19.65 13.25 19.8 12.95 19.75 12.95 20.0 12.85 20.2 12.8 20.45 12.85 20.65 13.0 20.9 13.15 21.05 13.3 21.3 13.85 21.4 14.75 M-59.45 -20.05 Q-59.65 -20.15 -59.5 -20.4 L-59.3 -20.65 -59.1 -20.7 Q-58.3 -20.3 -57.75 -19.5 L-57.45 -18.9 Q-56.95 -17.8 -55.75 -17.2 L-55.25 -16.9 -55.25 -16.95 -55.15 -17.2 -55.0 -17.25 -54.85 -17.3 -54.85 -17.35 -54.7 -17.3 -54.55 -17.25 -54.35 -17.0 -54.3 -16.8 -54.4 -16.6 -54.6 -16.4 -54.65 -16.35 -54.05 -15.5 Q-53.45 -14.35 -53.55 -13.05 L-53.65 -11.9 -53.8 -11.35 -53.9 -11.3 -54.1 -11.3 -54.35 -11.35 -54.45 -11.45 -54.6 -11.6 -54.7 -12.7 -54.7 -14.1 -54.95 -14.95 Q-55.25 -15.6 -55.85 -16.05 L-57.5 -17.25 -57.95 -17.55 -58.2 -18.0 -58.5 -18.65 -58.85 -19.4 -59.45 -20.05 M-55.75 -15.0 L-55.6 -14.85 -55.6 -14.8 -55.75 -14.5 Q-56.1 -14.2 -56.55 -14.1 L-56.9 -13.85 -57.25 -13.65 -57.9 -14.0 -57.95 -14.1 -57.9 -14.35 -57.45 -14.7 -56.9 -15.0 -56.55 -15.1 -56.4 -15.2 -56.25 -15.25 -56.05 -15.2 -55.8 -15.1 -55.75 -15.0 M-51.85 -14.35 L-51.9 -14.2 -51.95 -14.15 -52.1 -14.1 -52.7 -14.0 Q-53.0 -14.0 -53.1 -14.35 L-53.2 -14.4 -53.1 -14.5 -53.1 -14.65 -53.05 -14.75 -53.0 -14.85 -52.9 -15.0 -52.75 -15.05 -52.6 -15.05 -52.6 -15.1 -52.4 -15.0 -52.2 -14.95 -51.95 -14.75 -51.9 -14.7 -51.85 -14.45 -51.85 -14.35 M-48.75 -1.6 L-48.6 -1.45 -49.25 -1.5 -49.25 -1.45 -49.5 -1.4 -49.05 -1.7 -48.9 -1.65 -48.75 -1.6 M-54.9 7.4 L-54.6 6.15 -53.75 4.3 -52.45 2.25 -51.15 0.25 -50.75 -0.25 -49.85 -1.15 -49.9 -1.05 -50.0 -0.85 -49.95 -0.5 -49.6 -0.1 -50.55 0.95 -50.65 1.1 -50.45 1.05 -50.25 1.05 -50.0 0.95 -49.85 0.95 -49.85 0.9 -49.55 0.95 -49.35 0.95 -49.2 1.05 -49.0 1.05 -48.85 1.15 -48.7 1.4 -48.6 1.6 -48.75 1.8 Q-48.85 1.95 -49.05 1.95 -49.65 1.8 -50.25 1.95 L-50.75 1.9 -50.95 1.65 -50.95 1.5 -51.65 2.6 -52.9 4.75 Q-53.5 5.65 -53.6 6.75 L-53.85 7.65 Q-54.05 7.3 -54.5 7.25 L-54.5 7.3 -54.9 7.4 M-52.9 -1.25 L-52.65 -1.1 -52.25 -0.85 -51.95 -0.45 -51.65 0.0 -51.55 0.5 -51.6 0.7 -51.65 0.8 -51.8 0.9 -51.95 0.9 -52.2 0.85 -52.35 0.7 -52.4 0.6 -52.5 0.4 -52.8 0.0 -53.25 -0.55 Q-53.45 -0.75 -53.25 -0.9 L-52.9 -1.25 M-11.25 13.7 Q-9.7 13.9 -8.4 14.85 L-7.9 15.2 -8.0 15.05 -8.0 14.9 -8.0 14.8 -8.0 14.7 -7.9 14.55 -7.65 14.3 -7.5 14.15 -7.25 13.9 -7.05 13.75 -6.9 13.7 -6.5 14.05 Q-6.4 14.25 -6.6 14.5 L-6.9 14.85 -7.1 15.3 Q-7.2 15.6 -7.5 15.55 L-7.55 15.55 -6.25 17.1 -4.8 19.85 Q-4.15 21.3 -3.85 22.85 L-3.3 25.1 Q-4.45 25.3 -4.65 23.9 -4.75 22.65 -5.1 21.55 L-6.4 18.7 -7.1 17.55 -7.1 17.6 -7.35 18.2 -7.8 18.95 -8.05 19.55 Q-8.05 20.05 -8.55 20.1 L-8.75 20.05 -8.95 19.8 -9.0 19.5 -8.95 19.25 -8.9 19.0 -8.85 18.7 -8.85 18.6 -8.65 18.35 -8.4 17.95 -8.2 17.65 -8.0 17.3 Q-7.8 17.05 -7.5 17.1 -8.1 16.45 -8.9 15.95 L-9.3 15.7 -9.45 15.75 -10.5 15.95 -10.65 16.1 -10.8 16.2 -10.85 16.25 -10.9 16.4 -11.1 16.65 -11.2 16.8 -11.45 16.85 -11.7 16.8 -11.8 16.7 -11.9 16.55 -11.95 16.45 -11.95 16.4 -11.9 16.25 -11.75 16.0 -11.55 15.7 -11.1 15.2 -10.9 15.1 -10.8 15.05 -10.55 15.0 -11.75 14.25 -11.7 14.15 -11.7 14.0 -11.65 13.9 -11.5 13.8 -11.45 13.75 -11.25 13.75 -11.25 13.7 M-29.55 2.75 Q-28.5 4.0 -27.8 5.6 L-26.25 8.6 Q-25.45 10.05 -23.65 10.6 -23.25 10.7 -22.9 11.1 -21.85 12.5 -21.5 14.15 -21.25 14.9 -21.95 15.2 L-23.25 12.75 Q-24.25 10.65 -26.5 9.75 -27.3 9.45 -27.6 8.6 L-28.35 6.9 Q-28.95 5.4 -29.8 4.0 L-30.05 3.65 -30.05 3.55 -30.05 3.4 -30.05 3.3 -29.95 3.1 -29.9 3.0 -29.8 2.85 -29.55 2.8 -29.55 2.75 M-27.95 11.45 L-27.65 10.95 Q-27.45 10.6 -27.1 10.55 L-27.1 10.45 Q-26.75 10.45 -26.6 10.85 -26.5 11.1 -26.75 11.4 L-27.05 11.8 -27.25 12.35 Q-27.25 12.75 -27.6 12.8 -27.9 12.8 -28.0 12.5 L-28.1 11.95 -27.95 11.45 M-24.9 7.3 L-24.8 7.25 -24.6 7.1 -24.35 7.05 -24.35 7.0 -24.05 7.25 -23.95 7.55 -24.05 7.9 -24.2 8.2 -24.35 8.45 -24.55 8.5 -24.8 8.45 -25.0 8.2 -25.05 8.05 -25.05 7.8 -25.0 7.55 -24.9 7.3 M-50.0 4.75 L-50.1 5.0 -50.7 5.05 -50.75 5.05 -51.05 4.7 -51.5 4.05 -51.6 3.55 -51.35 3.2 -51.15 3.15 -50.95 3.3 -50.8 3.35 -50.75 3.45 -50.65 3.7 -50.45 3.95 -50.25 4.2 -50.15 4.4 -50.0 4.75 M-54.85 1.8 L-54.65 1.95 -54.45 2.2 -54.35 2.35 -54.2 2.6 -54.05 2.85 -54.0 3.05 -54.0 3.15 -54.1 3.3 -54.2 3.4 -54.4 3.45 -54.7 3.4 -54.75 3.3 -54.9 3.15 -55.0 3.05 -55.15 3.0 -55.25 2.85 -55.25 2.75 -55.3 2.6 -55.3 2.35 -55.25 2.2 -55.2 2.05 -55.05 1.95 -54.85 1.8" fill="#006600" fill-rule="evenodd" stroke="none"/>
    <path d="M-48.6 -1.45 L-48.25 -1.45 -47.9 -1.35 -47.7 -1.15 -47.55 -0.8 -47.5 -0.6 -47.5 -0.55 Q-46.15 -0.75 -45.35 0.4 -45.0 0.85 -45.1 1.4 L-44.95 1.5 -44.85 1.8 -44.8 2.25 Q-45.4 4.95 -47.35 6.75 -48.8 8.1 -50.4 7.2 L-50.55 7.3 -50.75 7.6 Q-51.5 8.5 -52.9 8.75 L-52.7 9.15 -53.8 9.55 -54.05 9.7 -54.25 9.95 -54.65 10.35 -55.0 10.5 -55.05 10.5 -55.4 10.35 -55.6 10.2 -55.7 10.0 -55.75 9.8 -55.65 9.45 -55.55 9.35 -55.5 8.9 -55.35 8.3 -55.15 7.75 -54.9 7.4 -54.5 7.3 -54.5 7.25 Q-54.05 7.3 -53.85 7.65 L-53.6 6.75 Q-53.5 5.65 -52.9 4.75 L-51.65 2.6 -50.95 1.5 -50.95 1.65 -50.75 1.9 -50.25 1.95 Q-49.65 1.8 -49.05 1.95 -48.85 1.95 -48.75 1.8 L-48.6 1.6 -48.7 1.4 -48.85 1.15 -49.0 1.05 -49.2 1.05 -49.35 0.95 -49.55 0.95 -49.85 0.9 -49.85 0.95 -50.0 0.95 -50.25 1.05 -50.45 1.05 -50.65 1.1 -50.55 0.95 -49.6 -0.1 -49.95 -0.5 -50.0 -0.85 -49.9 -1.05 -49.85 -1.15 -49.8 -1.25 -49.7 -1.35 -49.55 -1.4 -49.5 -1.4 -49.25 -1.45 -49.25 -1.5 -48.6 -1.45 M-20.2 6.5 L-20.15 7.6 -19.85 8.4 Q-19.85 9.25 -19.5 9.8 L-19.6 9.85 -21.2 14.75 -21.5 15.0 -21.75 15.3 Q-25.7 15.6 -28.65 13.05 L-29.95 12.3 -29.95 12.1 Q-30.3 11.5 -30.3 10.6 -30.3 9.5 -29.9 8.5 -29.75 7.1 -29.95 5.8 L-30.4 4.05 -30.4 3.1 Q-30.4 1.45 -30.95 0.4 L-30.75 0.35 -29.8 1.65 -28.9 2.5 Q-24.75 5.0 -20.2 6.5 M-50.0 4.75 L-50.15 4.4 -50.25 4.2 -50.45 3.95 -50.65 3.7 -50.75 3.45 -50.8 3.35 -50.95 3.3 -51.15 3.15 -51.35 3.2 -51.6 3.55 -51.5 4.05 -51.05 4.7 -50.75 5.05 -50.7 5.05 -50.1 5.0 -50.0 4.75 M-24.9 7.3 L-25.0 7.55 -25.05 7.8 -25.05 8.05 -25.0 8.2 -24.8 8.45 -24.55 8.5 -24.35 8.45 -24.2 8.2 -24.05 7.9 -23.95 7.55 -24.05 7.25 -24.35 7.0 -24.35 7.05 -24.6 7.1 -24.8 7.25 -24.9 7.3 M-27.95 11.45 L-28.1 11.95 -28.0 12.5 Q-27.9 12.8 -27.6 12.8 -27.25 12.75 -27.25 12.35 L-27.05 11.8 -26.75 11.4 Q-26.5 11.1 -26.6 10.85 -26.75 10.45 -27.1 10.45 L-27.1 10.55 Q-27.45 10.6 -27.65 10.95 L-27.95 11.45 M-29.55 2.75 L-29.55 2.8 -29.8 2.85 -29.9 3.0 -29.95 3.1 -30.05 3.3 -30.05 3.4 -30.05 3.55 -30.05 3.65 -29.8 4.0 Q-28.95 5.4 -28.35 6.9 L-27.6 8.6 Q-27.3 9.45 -26.5 9.75 -24.25 10.65 -23.25 12.75 L-21.95 15.2 Q-21.25 14.9 -21.5 14.15 -21.85 12.5 -22.9 11.1 -23.25 10.7 -23.65 10.6 -25.45 10.05 -26.25 8.6 L-27.8 5.6 Q-28.5 4.0 -29.55 2.75" fill="#007100" fill-rule="evenodd" stroke="none"/>
    <path d="M51.55 -0.6 L51.5 -0.65 Q51.2 -1.4 52.0 -1.5 L52.25 -1.45 52.65 -1.35 53.1 -1.0 53.1 -1.05 53.2 -1.25 53.3 -1.35 53.45 -1.4 53.5 -1.4 53.75 -1.45 53.75 -1.5 53.95 -1.45 54.5 -1.4 54.7 -1.35 54.8 -1.3 54.95 -1.25 55.95 -0.7 56.65 0.0 Q57.6 1.2 58.35 2.65 L58.8 3.6 59.3 5.65 59.65 8.8 59.6 9.8 59.15 11.05 59.05 11.2 58.85 11.2 58.9 11.8 58.8 12.0 58.7 12.1 58.55 12.2 58.5 12.2 58.4 12.2 58.05 12.15 57.05 10.9 56.25 9.8 56.0 9.8 55.55 9.3 54.25 7.8 53.3 6.35 52.05 4.8 52.0 4.6 52.0 4.45 52.0 4.05 52.0 3.9 52.1 3.7 52.2 3.5 52.2 2.8 52.05 1.2 51.55 -0.6 M56.25 4.5 L56.25 4.55 55.95 4.6 55.75 4.7 55.35 4.9 55.15 5.05 54.95 5.25 54.85 5.45 54.75 5.65 54.75 5.8 54.8 6.0 54.9 6.2 55.5 6.4 56.0 6.35 56.75 6.05 Q57.1 6.0 57.3 5.75 L57.45 5.35 57.5 5.2 57.45 5.0 57.3 4.8 57.1 4.65 56.75 4.55 56.25 4.5 M55.85 2.65 L56.15 2.3 56.2 2.1 56.25 1.95 56.2 1.75 56.05 1.55 55.85 1.4 55.5 1.3 55.25 1.25 55.25 1.3 54.85 1.4 54.65 1.55 54.45 1.75 54.3 1.95 54.25 2.15 54.25 2.3 54.3 2.5 54.4 2.7 54.55 2.9 55.25 2.9 55.85 2.65 M56.7 7.65 L56.5 7.8 56.5 7.85 56.75 8.2 56.8 8.25 56.7 7.65 M9.3 15.2 L9.5 14.35 9.4 14.05 9.5 14.1 Q12.5 12.3 13.9 8.65 L16.55 6.35 Q17.95 6.45 19.4 5.25 L24.75 5.05 25.85 5.2 27.2 5.35 27.5 6.15 27.75 6.75 27.95 7.8 27.9 8.85 Q27.8 10.45 26.6 11.6 L25.8 10.55 25.2 10.1 Q24.55 9.7 23.7 9.55 L22.6 9.45 Q20.9 9.35 19.3 10.0 L19.35 9.9 19.15 9.4 18.65 9.0 18.15 8.6 17.6 8.3 Q17.25 8.05 17.0 8.4 L16.9 8.65 Q16.9 8.95 17.05 9.1 L17.6 9.5 18.1 9.9 18.6 10.3 Q16.9 11.2 15.5 12.6 14.25 13.85 12.55 14.1 11.35 14.25 10.35 14.75 9.8 14.9 9.3 15.2 M23.45 7.35 L22.9 7.0 22.3 7.05 22.2 7.35 Q22.2 7.65 22.35 7.8 L22.45 8.15 22.85 8.7 23.05 8.85 23.25 9.0 23.55 9.05 23.8 8.85 23.9 8.45 23.8 7.9 23.8 7.8 23.45 7.35" fill="#007d00" fill-rule="evenodd" stroke="none"/>
    <path d="M28.4 -32.9 L28.85 -32.75 Q29.35 -32.4 29.05 -32.05 L28.85 -31.75 Q28.15 -31.15 27.35 -31.0 L27.0 -30.95 26.8 -31.0 25.95 -30.6 Q24.1 -29.7 23.25 -28.05 L23.0 -27.5 23.0 -29.5 23.5 -30.05 24.85 -31.65 25.9 -32.05 23.0 -32.5 23.0 -33.95 26.75 -33.3 27.0 -33.25 28.4 -32.9 M29.3 -25.65 L29.8 -25.4 Q30.7 -25.3 31.5 -24.7 L32.9 -23.35 33.3 -23.45 34.0 -23.5 35.8 -22.55 35.9 -22.4 36.1 -20.4 Q33.6 -16.7 30.0 -13.8 L29.95 -13.75 28.8 -12.4 28.35 -10.75 28.25 -9.1 28.25 -8.95 28.5 -8.95 Q28.4 -8.35 27.75 -8.7 L27.45 -8.95 27.2 -8.95 26.9 -9.45 26.65 -10.1 25.35 -12.95 Q24.25 -15.3 23.45 -17.6 23.15 -17.75 23.25 -18.05 23.1 -18.05 23.2 -18.5 L23.3 -21.15 23.35 -21.9 23.45 -23.0 24.05 -24.25 Q25.0 -25.0 25.85 -25.4 L28.2 -25.65 29.3 -25.65 M33.35 -22.15 L33.05 -21.75 33.05 -21.8 32.3 -21.85 Q31.9 -23.2 30.85 -23.9 29.9 -24.6 28.5 -24.45 L28.4 -24.4 27.25 -24.4 Q26.3 -24.1 25.45 -23.45 L24.9 -22.95 Q24.2 -21.05 24.35 -18.95 L24.65 -17.1 Q25.4 -14.25 27.55 -12.35 28.0 -13.5 29.15 -14.75 L29.8 -15.3 31.35 -16.55 Q33.55 -18.55 34.85 -21.25 L34.75 -21.85 34.2 -22.3 34.0 -22.3 Q33.85 -22.3 33.75 -22.4 L33.35 -22.15 M55.2 -16.65 Q52.1 -16.1 50.55 -13.45 L50.4 -13.2 Q49.4 -11.25 47.3 -10.45 L45.9 -10.2 44.8 -10.35 43.45 -11.9 42.4 -12.8 42.5 -13.65 41.45 -15.55 41.4 -16.95 42.3 -18.45 Q42.95 -19.7 44.25 -20.05 L46.25 -20.3 49.25 -19.75 49.6 -19.65 51.95 -19.35 53.65 -19.05 Q56.35 -18.4 55.2 -16.65 M52.75 -17.15 L46.7 -19.4 44.65 -18.75 44.1 -18.5 42.85 -16.65 Q43.1 -15.6 44.15 -14.4 L44.15 -14.2 Q43.8 -13.4 44.05 -12.75 44.4 -11.9 45.7 -11.2 L47.7 -11.6 50.35 -14.8 51.2 -15.8 52.75 -17.15 M48.35 -0.95 L46.85 -0.05 46.15 1.15 45.85 2.3 Q45.7 2.8 45.8 3.55 46.8 7.3 50.6 9.0 L52.15 9.8 Q55.3 11.55 57.7 14.0 L57.05 12.95 58.0 11.6 58.35 12.15 58.3 9.8 58.4 8.65 Q58.7 6.3 58.15 3.8 57.25 0.4 54.35 -0.7 L53.15 -1.35 51.75 -0.3 Q50.6 -0.05 48.85 -0.85 L48.35 -0.95 M48.65 -2.2 L51.1 -1.65 51.15 -1.75 51.35 -1.95 51.85 -2.35 52.6 -2.5 53.05 -2.6 53.6 -2.45 Q58.3 -1.05 59.2 3.5 59.7 6.65 59.75 9.8 L59.7 11.2 Q59.7 12.9 60.0 14.7 L59.95 15.15 58.7 16.35 58.65 16.3 55.05 13.2 49.75 9.8 49.2 9.45 Q45.95 7.65 44.5 4.05 L44.3 3.75 Q44.1 2.8 44.55 1.9 L45.15 0.65 46.1 -0.8 Q47.0 -1.65 48.2 -2.3 L48.45 -2.25 48.65 -2.2 M45.7 14.25 L45.35 13.85 44.6 12.95 Q43.9 12.2 42.8 11.8 L40.1 11.65 37.05 11.6 Q35.4 11.1 34.6 9.6 L34.95 7.2 34.15 5.35 34.35 3.6 35.05 2.75 Q36.1 1.8 37.3 1.75 L37.4 1.8 38.55 2.05 39.25 2.35 39.75 2.35 Q43.8 4.35 44.55 8.75 44.9 10.85 46.5 12.4 L46.55 12.45 Q47.55 13.35 46.65 14.5 45.95 14.7 45.7 14.25 M42.05 5.7 L41.45 5.1 Q39.6 3.2 36.9 3.25 L36.55 3.3 35.55 4.3 35.7 5.25 36.45 6.9 36.3 8.05 36.3 9.65 Q37.0 10.2 37.8 10.1 40.95 9.95 43.65 10.85 L42.05 5.7 M57.95 14.1 L58.4 14.6 58.35 14.2 57.95 14.1 M-12.1 14.15 L-12.35 13.7 -13.9 13.95 -14.15 14.5 -14.3 15.15 -13.75 17.55 -13.1 18.75 -12.9 19.0 -12.2 19.85 -9.2 21.85 Q-7.1 22.9 -5.25 24.05 L-3.75 25.75 -3.65 23.15 -3.45 19.0 -3.4 17.9 Q-3.3 14.9 -5.35 13.05 L-8.2 12.1 -9.4 12.4 -9.7 12.55 -9.85 12.85 -10.7 13.45 -10.9 13.6 -11.55 14.45 -12.1 14.15 M-19.45 9.8 Q-19.6 9.05 -20.05 8.05 -21.65 7.1 -23.2 6.4 L-28.15 4.05 -28.25 3.9 -28.4 3.85 -29.9 2.75 -29.65 3.9 Q-29.1 5.95 -30.15 7.9 -31.05 9.55 -30.35 11.25 L-29.8 12.05 Q-27.0 14.9 -23.2 15.3 -20.75 14.8 -20.0 12.5 -19.5 11.3 -19.45 10.4 L-19.45 9.8 M-18.35 9.4 Q-18.2 10.6 -18.6 11.95 -18.7 12.8 -19.05 13.45 -20.9 17.0 -24.55 16.15 -27.6 15.45 -30.3 13.35 L-31.3 11.55 Q-31.9 9.85 -31.05 7.6 L-30.9 7.2 Q-30.3 4.25 -31.45 1.5 L-31.85 1.1 -32.4 0.25 Q-33.3 -0.35 -32.4 -0.7 -27.3 4.0 -20.6 6.35 -18.65 7.1 -18.35 9.4 M-9.0 10.95 L-7.25 11.25 Q-5.55 11.4 -4.1 12.65 -3.0 13.6 -2.8 14.85 -2.5 16.85 -2.45 19.0 -2.3 22.95 -3.0 27.1 L-3.0 27.55 Q-2.5 28.7 -3.4 29.05 -3.95 29.0 -4.1 28.3 L-4.5 27.0 Q-5.85 24.1 -8.85 23.35 -13.5 22.25 -14.9 17.8 L-15.1 17.5 Q-15.85 15.6 -15.25 13.95 L-15.25 13.75 -15.15 13.65 -13.6 12.4 -11.75 12.8 -9.0 10.95 M-53.8 -2.15 L-53.85 -2.1 Q-56.8 0.1 -57.25 4.2 L-56.9 5.0 Q-56.05 6.7 -55.5 8.45 L-55.15 9.75 -53.8 9.0 -50.75 7.45 -46.9 5.4 -45.75 4.55 -45.2 3.55 Q-44.4 1.25 -46.2 -0.3 L-49.65 -0.5 -49.6 -0.8 -49.4 -1.1 -48.5 -1.4 -48.7 -2.75 -49.1 -3.25 Q-51.7 -3.7 -53.8 -2.15 M-53.8 -3.85 L-53.65 -3.9 Q-51.0 -5.25 -48.25 -4.15 L-47.8 -3.4 -47.65 -3.0 -47.6 -2.7 -47.45 -1.9 -47.45 -1.55 -45.35 -1.25 -45.25 -1.1 -45.1 -1.05 Q-44.15 0.1 -44.05 1.25 -43.55 4.15 -45.7 6.0 -47.9 8.05 -50.75 8.65 L-51.5 8.75 Q-52.95 9.2 -53.8 10.1 L-54.05 10.35 -54.05 10.65 -54.15 11.1 -54.2 11.1 -54.35 11.15 -54.85 11.15 -54.95 11.1 -55.05 11.0 -55.4 11.15 -55.85 11.5 -56.25 11.75 -56.6 11.45 Q-56.8 11.0 -56.6 10.6 L-56.35 9.85 Q-56.35 7.95 -57.65 6.55 -58.35 5.7 -58.3 4.25 L-58.05 2.75 Q-57.95 1.45 -57.45 0.25 -56.25 -2.65 -53.8 -3.85 M-58.75 -19.95 L-58.75 -18.75 -59.05 -17.5 -59.15 -16.6 -58.95 -13.85 -58.8 -13.35 Q-58.2 -11.45 -56.7 -10.45 L-55.5 -10.5 -55.05 -11.6 -54.9 -11.75 -54.55 -11.75 -54.2 -11.6 -54.0 -11.2 -53.05 -11.5 Q-52.1 -11.7 -51.55 -12.4 L-51.35 -12.7 -50.65 -13.25 -50.95 -13.85 -51.35 -14.55 Q-52.6 -16.75 -54.95 -17.9 L-58.75 -19.95 M-61.1 -22.2 L-60.85 -22.3 -59.9 -21.75 -56.1 -19.95 Q-53.05 -18.65 -51.1 -16.35 -49.9 -14.7 -49.45 -13.05 L-49.55 -12.85 Q-51.35 -10.35 -54.2 -10.2 L-54.7 -9.55 -55.85 -9.15 Q-57.8 -9.45 -59.05 -10.85 L-59.6 -12.5 Q-60.6 -15.0 -60.15 -17.7 -59.9 -18.7 -60.05 -19.65 -60.2 -20.35 -60.7 -20.7 -61.35 -21.25 -61.1 -22.2 M27.0 8.8 L26.95 8.1 26.95 7.8 Q27.05 6.65 25.8 6.15 L25.3 5.9 Q22.8 4.85 20.1 5.45 14.05 9.0 10.5 14.85 L10.2 15.3 11.5 15.6 17.0 16.75 19.7 17.25 22.25 17.8 Q24.95 18.35 27.0 16.55 28.25 15.65 27.55 13.85 L27.5 13.8 27.05 12.9 26.05 11.9 25.7 10.9 26.1 10.15 27.0 8.8 M27.35 5.25 L27.65 6.0 27.9 6.6 28.2 7.4 28.25 7.7 28.35 8.6 Q28.55 9.5 28.0 10.25 L27.35 11.3 27.6 11.5 Q28.35 12.3 28.8 13.9 L28.95 14.9 28.8 15.6 Q27.65 18.3 24.8 19.05 L20.35 19.35 18.5 18.8 17.3 18.3 16.2 17.75 13.85 17.15 13.5 17.15 12.0 17.0 Q10.5 16.8 9.15 17.0 L7.4 17.5 7.05 17.55 6.4 17.15 6.45 17.1 Q6.4 16.7 6.5 16.5 L9.5 14.1 10.55 13.0 13.9 8.4 18.2 5.2 Q20.65 3.8 23.25 3.85 L23.5 3.85 24.5 4.15 25.4 4.35 Q26.45 4.25 27.35 5.25" fill="#000000" fill-rule="evenodd" stroke="none"/>
  </g>
</svg>
