<?xml version="1.0" encoding="UTF-8" standalone="no"?>
<svg xmlns:ffdec="https://www.free-decompiler.com/flash" xmlns:xlink="http://www.w3.org/1999/xlink" ffdec:objectType="shape" height="12.45px" width="21.15px" xmlns="http://www.w3.org/2000/svg">
  <g transform="matrix(1.0, 0.0, 0.0, 1.0, 10.55, 8.35)">
    <path d="M-10.0 -5.4 L-10.2 -5.45 -10.25 -5.45 -10.4 -6.0 -10.2 -6.4 -10.1 -6.5 -10.1 -6.6 -9.9 -6.7 -8.3 -6.75 -8.15 -6.9 -7.95 -6.9 -7.75 -6.9 -7.7 -6.85 -7.6 -6.85 -7.3 -6.9 -7.2 -6.9 -7.2 -6.95 -7.1 -6.95 -7.0 -7.0 -6.9 -7.0 -6.4 -7.2 -6.25 -7.25 -6.25 -7.3 -6.2 -7.3 -6.1 -7.35 -5.95 -7.35 -5.9 -7.35 -5.9 -7.4 -5.85 -7.4 -5.85 -7.45 -5.75 -7.5 -5.7 -7.55 -5.65 -7.55 -5.55 -7.55 -5.25 -7.5 -5.15 -7.5 -4.85 -7.4 -4.8 -7.4 -4.1 -7.25 -3.85 -7.15 -3.8 -7.15 -3.65 -7.15 -3.6 -7.1 -3.5 -7.05 -2.75 -6.9 -2.5 -6.85 -2.45 -6.8 -2.4 -6.8 -2.35 -6.75 -2.3 -6.75 -2.15 -6.75 -2.1 -6.7 -2.05 -6.7 -2.05 -6.65 -1.8 -6.6 -1.65 -6.6 -1.6 -6.6 -1.55 -6.55 -0.8 -6.5 -0.65 -6.5 -0.6 -6.45 -0.55 -6.45 0.15 -6.35 0.25 -6.35 0.3 -6.3 Q3.35 -5.8 6.5 -6.25 L8.15 -6.45 9.05 -6.65 9.45 -6.8 9.5 -6.8 9.6 -6.85 9.7 -6.9 9.8 -6.9 9.9 -6.9 10.0 -6.85 10.05 -6.85 10.05 -6.8 10.1 -6.8 10.1 -6.7 10.05 -6.65 10.1 -6.6 10.15 -6.55 10.05 -5.8 10.0 -5.65 10.0 -5.9 -10.0 -5.9 -10.0 -5.4 M-4.75 -6.15 L-4.8 -6.2 -4.8 -6.05 -4.75 -6.15" fill="#33ccff" fill-opacity="0.49803922" fill-rule="evenodd" stroke="none"/>
    <path d="M10.0 -5.65 L10.0 4.1 -10.0 4.1 -10.0 -5.4 -10.0 -5.9 10.0 -5.9 10.0 -5.65" fill="#33ccff" fill-opacity="0.5019608" fill-rule="evenodd" stroke="none"/>
    <path d="M10.1 -6.25 L5.0 -5.85 Q-1.1 -5.85 -5.5 -7.85 -7.6 -6.9 -10.05 -6.4" fill="none" stroke="#000000" stroke-linecap="round" stroke-linejoin="round" stroke-width="1.0"/>
  </g>
</svg>
