<?xml version="1.0" encoding="UTF-8" standalone="no"?>
<svg xmlns:ffdec="https://www.free-decompiler.com/flash" xmlns:xlink="http://www.w3.org/1999/xlink" ffdec:objectType="shape" height="12.45px" width="21.05px" xmlns="http://www.w3.org/2000/svg">
  <g transform="matrix(1.0, 0.0, 0.0, 1.0, 10.45, 8.35)">
    <path d="M-10.0 -5.6 L-10.1 -5.8 -10.05 -6.0 -10.05 -6.1 -9.95 -6.15 -10.05 -6.2 -9.95 -6.4 -5.4 -6.75 -4.8 -6.8 -4.6 -6.85 -4.4 -6.9 -4.0 -6.95 -3.95 -6.95 -3.9 -7.0 -3.55 -7.05 -3.3 -7.1 -3.1 -7.15 -2.85 -7.25 -2.8 -7.25 -2.55 -7.35 -2.15 -7.45 -2.05 -7.45 -1.95 -7.5 -1.9 -7.5 -1.75 -7.55 -1.65 -7.55 -1.55 -7.55 -1.5 -7.55 -1.45 -7.6 -1.4 -7.6 -1.25 -7.6 -1.15 -7.6 -0.85 -7.5 -0.75 -7.4 -0.45 -7.35 -0.4 -7.35 -0.3 -7.3 -0.25 -7.25 1.0 -6.8 1.6 -6.75 2.75 -6.6 2.8 -6.55 5.05 -6.45 5.15 -6.45 8.35 -6.3 8.55 -6.35 9.25 -6.45 9.3 -6.5 9.35 -6.5 9.5 -6.5 9.7 -6.55 9.75 -6.6 9.85 -6.6 9.9 -6.65 10.0 -6.65 10.1 -6.65 10.2 -6.6 10.25 -6.6 10.3 -6.55 10.3 -6.4 10.25 -6.35 10.3 -6.3 10.3 -5.9 10.05 -5.55 10.0 -5.55 10.0 -5.9 -10.0 -5.9 -10.0 -5.6" fill="#33ccff" fill-opacity="0.49803922" fill-rule="evenodd" stroke="none"/>
    <path d="M10.0 -5.55 L10.0 4.1 -10.0 4.1 -10.0 -5.6 -10.0 -5.9 10.0 -5.9 10.0 -5.55" fill="#33ccff" fill-opacity="0.5019608" fill-rule="evenodd" stroke="none"/>
    <path d="M10.1 -5.85 L9.0 -5.85 Q2.9 -5.85 -1.5 -7.85 -5.15 -6.2 -9.95 -5.9" fill="none" stroke="#000000" stroke-linecap="round" stroke-linejoin="round" stroke-width="1.0"/>
  </g>
</svg>
