<?xml version="1.0" encoding="UTF-8" standalone="no"?>
<svg xmlns:ffdec="https://www.free-decompiler.com/flash" xmlns:xlink="http://www.w3.org/1999/xlink" ffdec:objectType="shape" height="22.2px" width="22.05px" xmlns="http://www.w3.org/2000/svg">
  <g transform="matrix(1.0, 0.0, 0.0, 1.0, 11.45, 14.7)">
    <path d="M10.1 -13.95 L10.1 -11.55 9.9 -10.85 9.9 7.5 9.8 7.5 -6.9 -9.3 -6.95 -9.3 -7.05 -9.35 -7.25 -9.45 -7.45 -9.65 -7.5 -9.7 -7.5 -9.75 -7.75 -10.05 -8.0 -10.35 -8.5 -10.85 -8.45 -10.85 -9.35 -11.55 -10.8 -12.6 -10.9 -12.7 -10.9 -12.9 -10.9 -13.0 -10.9 -13.05 -10.85 -13.15 -10.8 -13.2 -10.65 -13.3 -10.55 -13.35 -10.45 -13.4 -10.35 -13.4 -9.85 -13.25 -9.7 -13.1 -9.3 -13.0 -8.9 -12.7 -7.75 -12.0 -6.85 -11.35 -6.55 -11.25 -6.4 -11.05 -6.3 -10.85 3.9 -10.85 3.95 -10.95 4.3 -11.2 5.0 -11.1 5.0 -11.2 5.1 -11.25 5.1 -11.3 5.35 -11.4 5.85 -11.4 5.9 -11.45 5.9 -11.55 5.95 -11.55 5.95 -11.6 6.0 -11.65 6.05 -11.7 6.1 -11.75 6.6 -11.9 6.75 -11.85 6.85 -11.95 7.15 -12.1 8.05 -12.65 8.15 -12.7 8.3 -12.75 8.5 -12.8 8.85 -12.8 8.85 -12.85 8.9 -12.9 9.0 -13.05 9.05 -13.1 9.05 -13.2 9.15 -13.3 9.2 -13.35 9.2 -13.45 9.25 -13.5 9.3 -13.55 9.4 -13.6 9.45 -13.65 9.5 -13.75 9.6 -13.9 9.75 -13.95 9.85 -13.95 9.95 -13.95 10.1 -13.95" fill="#33ccff" fill-opacity="0.49803922" fill-rule="evenodd" stroke="none"/>
    <path d="M10.1 -14.2 Q5.4 -10.75 -1.05 -10.75 -6.65 -10.75 -10.95 -13.4" fill="none" stroke="#000000" stroke-linecap="round" stroke-linejoin="round" stroke-width="1.0"/>
  </g>
</svg>
