<?xml version="1.0" encoding="UTF-8" standalone="no"?>
<svg xmlns:ffdec="https://www.free-decompiler.com/flash" xmlns:xlink="http://www.w3.org/1999/xlink" ffdec:objectType="shape" height="21.55px" width="21.9px" xmlns="http://www.w3.org/2000/svg">
  <g transform="matrix(1.0, 0.0, 0.0, 1.0, 11.65, 13.8)">
    <path d="M0.0 -4.8 L0.05 -4.7 0.15 -4.65 0.25 -4.55 0.35 -4.45 0.4 -4.35 0.45 -4.25 0.5 -4.15 0.5 -4.05 0.55 -3.95 1.0 -3.2 1.7 -2.1 2.5 -1.05 2.65 -0.9 2.75 -0.8 2.85 -0.7 2.95 -0.6 3.0 -0.5 3.15 -0.4 3.3 -0.3 3.4 -0.2 3.55 -0.05 3.6 0.05 4.1 0.4 4.55 0.9 5.15 1.45 5.35 1.55 5.5 1.65 5.6 1.75 5.7 1.85 5.8 1.95 5.9 2.05 6.0 2.2 6.2 2.3 6.25 2.4 6.35 2.5 6.45 2.6 6.55 2.7 6.65 2.8 6.75 2.85 6.85 2.95 6.95 3.05 7.0 3.15 7.15 3.25 7.25 3.35 7.35 3.45 7.5 3.55 7.6 3.6 7.75 3.7 7.85 3.8 7.9 3.9 7.95 4.0 8.0 4.1 8.0 4.2 8.1 4.3 8.25 4.35 8.35 4.45 8.4 4.55 8.45 4.65 8.5 4.75 8.5 4.85 8.55 4.95 8.6 5.05 8.7 5.1 8.85 5.2 8.95 5.3 9.05 5.4 9.1 5.5 9.2 5.6 9.35 5.7 9.4 5.8 9.45 5.85 9.5 5.95 9.75 6.05 9.95 6.15 10.0 6.25 10.1 6.35 10.15 6.45 10.2 6.55 10.25 6.6 10.25 6.7 10.25 6.8 10.25 6.9 10.25 7.0 10.25 7.1 10.2 7.2 10.15 7.3 10.1 7.35 10.0 7.45 9.85 7.55 9.75 7.6 Q9.6 7.7 9.4 7.75 L8.6 7.6 8.45 7.55 8.25 7.35 8.05 7.15 7.95 6.95 7.8 6.8 7.7 6.7 7.55 6.6 7.4 6.5 7.3 6.4 7.25 6.3 7.2 6.2 7.1 6.1 7.05 6.05 6.95 5.95 6.95 5.85 6.9 5.75 6.85 5.65 6.8 5.55 6.75 5.45 6.7 5.4 6.6 5.25 6.5 5.1 6.45 5.0 6.3 4.9 6.2 4.8 6.1 4.7 6.0 4.65 5.85 4.55 5.75 4.45 5.7 4.35 5.55 4.25 5.45 4.15 5.35 4.05 5.25 3.95 5.1 3.85 5.05 3.8 4.95 3.7 4.85 3.6 4.75 3.5 4.65 3.4 4.55 3.3 4.5 3.2 4.35 3.1 4.25 3.05 4.1 2.95 3.8 2.65 3.45 2.3 2.9 1.9 2.8 1.8 2.75 1.7 2.7 1.6 2.6 1.55 2.45 1.45 2.35 1.35 2.25 1.25 2.15 1.15 2.0 1.05 1.85 0.95 1.8 0.85 1.35 0.4 0.9 -0.25 0.35 -1.0 0.3 -1.1 0.2 -1.2 0.1 -1.3 0.05 -1.35 -0.05 -1.45 -0.1 -1.55 -0.15 -1.65 -0.15 -1.75 -0.2 -1.85 -0.25 -1.95 -0.3 -2.05 -0.35 -2.15 -0.4 -2.2 -0.5 -2.4 -0.7 -2.6 -0.8 -2.8 -0.95 -2.95 -1.05 -3.05 -1.05 -3.15 -1.1 -3.25 -1.15 -3.35 -1.2 -3.45 -1.25 -3.55 -1.4 -3.65 -1.45 -3.7 -1.55 -3.8 -1.55 -3.9 -1.6 -4.0 -1.7 -4.1 -1.8 -4.2 -1.9 -4.3 -1.95 -4.4 -2.45 -4.65 -2.85 -4.9 -3.25 -5.2 -3.4 -5.3 -3.5 -5.4 -3.55 -5.4 -3.75 -5.5 -3.9 -5.55 -4.0 -5.6 -4.05 -5.65 -4.25 -5.75 -4.4 -5.8 -4.5 -5.85 -4.55 -5.9 -4.75 -6.0 -4.9 -6.05 -5.0 -6.15 -5.05 -6.25 -5.3 -6.45 -5.55 -6.7 -5.95 -7.0 -6.1 -7.1 -6.35 -7.35 -6.75 -7.75 -7.15 -8.15 -7.2 -8.2 -7.3 -8.3 -7.4 -8.4 -7.5 -8.5 -7.6 -8.6 -7.7 -8.7 -7.75 -8.8 -7.9 -8.9 -7.95 -8.95 -8.1 -9.05 -8.25 -9.15 -8.35 -9.25 -8.45 -9.35 -8.5 -9.45 -8.65 -9.55 -8.7 -9.6 -8.8 -9.7 -8.9 -9.8 -9.05 -10.0 -9.2 -10.2 -9.3 -10.35 -9.4 -10.55 -9.6 -10.75 -9.8 -10.95 -9.85 -11.05 -10.0 -11.1 -10.15 -11.2 -10.3 -11.3 -10.4 -11.4 -10.5 -11.5 -10.6 -11.6 -10.7 -11.7 -10.75 -11.8 -10.8 -11.9 -10.85 -11.95 -10.9 -12.05 -10.95 -12.05 -11.15 -12.15 -11.3 -12.2 -11.4 -12.3 -11.5 -12.4 -11.55 -12.5 -11.6 -12.6 -11.6 -12.7 -11.65 -12.8 -11.65 -12.9 -11.65 -12.95 -11.65 -13.05 -11.6 -13.15 -11.55 -13.25 -11.55 -13.35 -11.45 -13.45 -11.4 -13.55 -11.25 -13.6 -11.15 -13.7 -11.05 -13.7 -10.95 -13.75 -10.75 -13.75 -10.75 -13.8 -10.55 -13.75 -10.4 -13.7 -10.25 -13.6 -10.15 -13.5 -10.05 -13.4 -10.0 -13.3 -9.95 -13.2 -9.9 -13.15 -9.9 -13.1 -9.45 -12.95 -8.95 -12.6 -8.65 -12.4 -8.35 -12.0 -8.0 -11.6 -7.6 -11.15 -7.45 -10.95 -7.3 -10.9 -7.15 -10.8 -7.05 -10.7 -7.0 -10.6 -6.95 -10.5 -6.9 -10.4 -6.8 -10.3 -6.7 -10.2 -6.6 -10.15 -6.5 -10.05 -6.4 -9.95 -6.3 -9.85 -6.2 -9.75 -5.95 -9.45 -5.6 -9.1 -5.15 -8.75 -5.0 -8.65 -4.9 -8.55 -4.85 -8.45 -4.6 -8.25 -4.4 -8.05 -4.25 -7.9 -4.15 -7.8 -3.4 -7.35 -2.3 -6.75 -2.0 -6.55 -1.9 -6.45 -1.75 -6.35 -1.6 -6.25 -1.5 -6.15 -1.4 -6.1 -0.95 -5.85 -0.6 -5.55 -0.25 -5.3 -0.15 -5.2 -0.1 -5.1 -0.05 -5.0 0.0 -4.9 0.0 -4.8" fill="#000000" fill-rule="evenodd" stroke="none"/>
  </g>
</svg>
