<?xml version="1.0" encoding="UTF-8" standalone="no"?>
<svg xmlns:ffdec="https://www.free-decompiler.com/flash" xmlns:xlink="http://www.w3.org/1999/xlink" ffdec:objectType="shape" height="22.5px" width="20.35px" xmlns="http://www.w3.org/2000/svg">
  <g transform="matrix(1.0, 0.0, 0.0, 1.0, 10.2, 15.0)">
    <path d="M0.65 -12.15 L0.7 -12.1 1.6 -11.9 2.15 -11.65 Q3.05 -11.95 3.95 -11.4 4.55 -11.0 5.3 -10.85 L9.9 -10.85 9.9 7.5 9.8 7.5 -7.7 -10.1 -7.85 -10.15 -7.95 -10.25 -8.0 -10.35 -8.1 -10.45 -8.2 -10.6 -8.3 -10.7 -8.5 -10.85 -8.4 -10.85 -8.45 -10.9 -8.45 -11.0 -8.5 -11.1 -8.5 -11.15 -8.5 -11.25 -8.5 -11.35 -8.45 -11.4 -8.3 -11.55 -8.05 -11.7 -7.95 -11.7 -7.85 -11.7 -7.7 -11.65 -7.65 -11.6 -7.5 -11.65 -7.3 -11.7 -7.1 -11.85 -7.0 -11.9 -6.9 -11.95 -6.8 -11.95 -6.8 -12.0 -6.75 -12.0 -6.75 -12.05 -6.7 -12.15 -6.45 -12.25 -6.25 -12.3 -6.0 -12.25 -5.8 -12.1 -5.75 -12.1 -5.75 -12.15 -5.7 -12.2 -5.7 -12.25 -5.6 -12.4 -5.3 -12.5 -5.15 -12.55 -5.05 -12.55 -4.95 -12.5 -4.8 -12.5 -4.8 -12.65 -4.75 -12.75 -4.75 -12.8 -4.65 -12.9 -4.55 -13.0 -4.55 -13.1 -4.5 -13.15 -4.4 -13.3 -4.35 -13.3 -4.2 -13.35 -4.1 -13.4 -4.0 -13.4 -3.9 -13.4 -3.8 -13.35 -3.75 -13.35 -3.65 -13.4 -3.55 -13.5 -3.45 -13.6 -3.45 -13.65 -3.4 -13.7 -3.4 -13.95 -3.35 -13.95 -3.25 -14.1 -3.05 -14.15 -2.85 -14.2 -2.5 -14.1 -2.3 -14.0 -2.15 -13.95 -1.9 -13.8 -1.85 -13.7 -1.65 -13.6 -1.55 -13.4 -1.5 -13.3 -1.45 -13.2 -1.25 -13.1 -1.2 -13.05 -1.2 -13.0 -1.15 -12.95 -1.15 -12.9 -1.1 -12.9 -0.5 -12.75 -0.1 -12.55 0.2 -12.5 0.55 -12.25 0.6 -12.2 0.65 -12.15" fill="#33ccff" fill-opacity="0.49803922" fill-rule="evenodd" stroke="none"/>
    <path d="M-9.7 -11.2 L-8.5 -11.5 M9.65 -11.1 Q2.15 -10.75 -2.7 -14.5 -5.1 -12.65 -7.9 -11.75" fill="none" stroke="#000000" stroke-linecap="round" stroke-linejoin="round" stroke-width="1.0"/>
  </g>
</svg>
