<?xml version="1.0" encoding="UTF-8" standalone="no"?>
<svg xmlns:ffdec="https://www.free-decompiler.com/flash" xmlns:xlink="http://www.w3.org/1999/xlink" ffdec:objectType="shape" height="120.3px" width="202.5px" xmlns="http://www.w3.org/2000/svg">
  <g transform="matrix(1.0, 0.0, 0.0, 1.0, 93.5, 111.2)">
    <path d="M36.1 -100.7 L20.35 -100.9 9.75 -98.7 Q7.5 -98.25 5.55 -97.25 L3.95 -96.5 3.25 -95.85 0.0 -95.4 Q-2.1 -95.15 -3.95 -94.05 L-6.45 -92.5 -7.2 -91.9 -9.5 -91.2 -10.4 -90.5 -11.1 -89.8 -11.8 -89.1 -12.4 -88.35 -12.75 -87.75 -12.9 -87.05 -12.95 -85.65 -12.95 -84.95 -12.95 -84.25 -12.9 -83.55 -12.75 -82.85 -12.5 -82.15 -12.0 -81.5 -11.3 -80.8 -10.75 -80.35 -11.85 -76.2 -11.3 -74.6 -11.55 -74.3 -11.8 -73.6 Q-12.2 -71.9 -12.1 -70.15 L-11.8 -67.4 -11.35 -65.95 -11.2 -65.25 -11.1 -63.2 -11.05 -61.8 -10.9 -61.1 -10.4 -60.4 -9.95 -59.7 -9.7 -59.0 -9.5 -58.35 -9.25 -57.65 -9.25 -56.95 -9.2 -56.25 -9.05 -55.55 -8.6 -54.85 -7.5 -52.75 -6.9 -51.4 -6.5 -50.7 -6.45 -50.0 -6.25 -49.3 -5.95 -48.65 -5.6 -47.9 -5.3 -47.25 -4.85 -46.5 -4.15 -45.85 -3.75 -45.1 -3.45 -44.45 -3.0 -43.75 Q-0.25 -40.95 2.95 -38.8 L7.45 -36.0 7.4 -35.65 7.4 -34.95 7.45 -34.25 7.65 -33.55 8.65 -32.25 10.05 -30.9 12.25 -29.4 13.0 -28.8 Q15.5 -27.1 18.05 -25.65 L23.85 -21.75 Q29.4 -19.9 35.2 -18.7 L41.55 -18.5 Q59.2 -21.05 76.6 -18.05 L78.0 -17.35 78.7 -16.65 79.4 -16.0 80.3 -15.3 82.4 -14.8 86.1 -13.9 Q86.35 -13.75 86.55 -13.65 87.6 -13.1 88.7 -12.65 L90.7 -11.95 90.95 -11.8 91.45 -11.35 92.35 -10.65 94.45 -10.2 96.3 -10.65 97.4 -11.4 98.15 -12.05 98.4 -12.7 98.85 -13.4 99.0 -14.15 99.05 -14.8 99.05 -15.5 98.8 -16.2 98.4 -16.9 98.15 -17.6 97.5 -18.25 97.45 -18.3 94.05 -27.1 94.2 -27.55 94.4 -28.25 94.45 -28.95 94.45 -29.65 94.4 -30.3 94.2 -31.0 93.8 -31.75 93.45 -32.4 93.1 -33.1 92.75 -33.75 92.4 -34.5 92.1 -35.15 91.65 -35.9 91.6 -36.55 91.45 -37.25 91.15 -37.95 90.8 -38.7 90.45 -39.35 90.1 -40.05 89.85 -40.75 89.8 -41.45 89.55 -42.1 89.15 -42.85 88.95 -43.5 88.9 -44.2 87.95 -46.3 87.25 -47.7 86.55 -49.05 86.1 -49.75 85.65 -50.45 85.2 -51.15 84.7 -52.55 84.0 -54.65 83.5 -56.0 82.85 -57.4 82.4 -58.1 81.9 -58.75 81.25 -59.5 80.95 -60.15 80.55 -60.9 80.05 -61.55 79.4 -62.25 79.1 -62.95 78.75 -63.7 78.4 -64.35 78.05 -65.05 77.75 -65.75 77.1 -66.45 76.6 -67.15 76.2 -67.85 75.9 -68.5 75.25 -69.2 74.55 -69.9 73.15 -71.3 72.45 -72.0 71.75 -72.7 71.05 -73.4 70.8 -74.05 70.4 -74.8 70.1 -75.45 69.7 -76.2 69.45 -76.85 68.7 -77.5 67.9 -78.3 67.35 -78.95 67.1 -79.6 66.65 -80.3 66.2 -81.0 65.25 -81.65 63.95 -82.5 63.4 -83.1 63.15 -83.75 62.75 -84.5 62.05 -85.2 60.65 -86.55 59.95 -87.25 59.0 -87.95 58.1 -88.65 57.65 -89.35 57.15 -90.05 56.25 -90.75 Q51.75 -94.65 46.05 -96.05 42.55 -100.55 36.1 -100.7 M22.7 -105.15 L23.6 -105.15 34.0 -105.9 33.95 -104.7 33.8 -103.8 34.3 -104.05 34.25 -104.35 34.85 -106.05 37.7 -106.75 Q44.2 -106.25 50.45 -103.5 L50.45 -103.45 51.0 -102.85 52.6 -101.45 54.6 -99.95 56.25 -98.6 58.55 -97.9 60.45 -96.6 61.8 -95.85 63.2 -95.15 67.3 -90.95 72.25 -85.9 74.8 -83.5 76.25 -81.6 76.45 -81.25 76.85 -80.55 77.55 -79.85 77.95 -79.15 78.3 -78.5 78.65 -77.75 78.95 -77.1 79.15 -76.4 79.8 -75.65 80.3 -75.0 80.55 -74.3 80.8 -73.6 81.05 -72.95 81.5 -72.2 82.15 -71.5 82.85 -70.85 83.3 -70.1 83.6 -69.45 84.0 -68.75 84.7 -68.05 85.15 -67.35 85.45 -66.7 86.3 -65.25 86.6 -64.6 87.05 -63.9 87.75 -63.2 88.15 -62.45 88.45 -61.85 88.9 -61.1 89.5 -60.35 89.75 -59.7 89.8 -59.0 90.1 -58.35 90.5 -57.65 90.95 -56.95 91.2 -56.25 91.45 -55.55 91.65 -54.85 91.9 -54.15 92.15 -53.5 92.6 -52.75 93.2 -52.05 93.5 -51.4 93.5 -50.0 93.5 -49.3 93.5 -47.9 93.55 -47.25 93.75 -46.5 94.0 -45.85 94.45 -45.15 94.5 -44.45 94.65 -43.75 94.95 -43.1 95.3 -42.35 95.65 -41.7 96.0 -40.95 96.25 -40.25 96.3 -39.6 96.55 -38.9 97.0 -38.2 97.4 -37.45 97.75 -36.85 98.15 -36.1 98.85 -35.4 99.25 -34.7 99.55 -34.05 100.2 -32.6 100.5 -31.95 100.9 -31.25 100.9 -30.55 101.0 -29.85 101.15 -29.15 101.45 -28.5 101.8 -27.75 102.1 -27.1 102.35 -26.4 102.75 -25.7 102.85 -25.0 103.0 -24.3 103.3 -23.65 103.6 -22.9 103.7 -22.2 103.7 -21.55 103.7 -20.85 103.75 -20.15 104.0 -19.45 104.4 -18.75 104.55 -18.05 104.7 -17.35 104.9 -16.7 105.3 -15.95 105.5 -15.25 105.55 -13.9 105.55 -13.2 105.55 -11.8 105.6 -11.1 105.8 -10.4 106.05 -9.75 106.35 -9.0 106.5 -8.35 106.5 -7.65 106.5 -6.95 106.5 -6.25 106.55 -5.55 106.7 -4.85 107.0 -4.2 107.4 -3.45 107.45 -2.8 107.65 -2.1 107.9 -1.4 108.35 -0.7 108.35 0.0 108.35 0.7 108.8 2.1 108.95 2.65 109.0 4.4 Q109.0 6.05 107.75 7.55 106.45 9.1 105.0 9.1 104.45 9.1 101.55 5.65 97.85 1.15 93.3 -1.9 77.35 -12.6 46.0 -11.5 32.35 -11.05 20.4 -16.8 16.0 -18.9 2.0 -28.55 -6.1 -33.95 -11.45 -49.65 -15.15 -60.5 -15.85 -69.9 L-16.4 -69.75 Q-17.2 -67.65 -18.45 -65.1 -22.65 -56.45 -29.45 -49.1 -48.65 -28.55 -78.0 -28.55 -88.5 -28.55 -93.5 -32.45 L-93.5 -35.9 -93.5 -38.65 -93.5 -39.35 -93.3 -40.05 -93.05 -40.75 -92.85 -41.45 -92.6 -42.15 -92.6 -42.8 -92.55 -43.5 -92.3 -44.2 -91.9 -44.9 -91.7 -45.6 -91.65 -46.3 -91.6 -47.0 -91.45 -47.7 -90.75 -49.1 -90.45 -49.75 -90.1 -50.5 -89.8 -51.15 -89.8 -51.85 -89.8 -52.55 -89.8 -53.25 -89.8 -53.95 -89.4 -54.65 -88.65 -56.0 -86.3 -60.85 -84.55 -64.35 -84.25 -65.05 -84.25 -65.75 -84.2 -66.4 -84.05 -67.15 -82.7 -69.95 -82.0 -71.3 -81.7 -72.0 -81.5 -72.7 -81.5 -73.4 -81.45 -74.05 -81.25 -74.75 -80.85 -75.5 -80.6 -76.15 -80.55 -76.85 -79.85 -77.55 -79.2 -78.25 -78.7 -78.95 -78.25 -79.65 -78.0 -80.3 -77.8 -81.0 -77.55 -81.7 -76.85 -82.4 Q-74.65 -83.35 -73.05 -85.1 -71.85 -86.45 -70.2 -87.4 L-69.45 -87.95 Q-63.7 -90.3 -57.4 -90.8 L-56.0 -90.95 Q-50.95 -93.3 -45.35 -94.0 L-38.1 -94.85 Q-37.0 -94.55 -35.95 -94.05 L-33.6 -92.8 -32.65 -92.15 -30.6 -91.55 -30.1 -91.2 -29.4 -90.5 -28.65 -89.85 -27.55 -89.1 -26.6 -88.4 -26.35 -87.75 -25.95 -87.05 -25.25 -86.35 -24.8 -85.6 -24.5 -84.95 -24.1 -84.25 -23.4 -83.55 -22.95 -82.85 -22.65 -82.2 -22.2 -81.5 -21.5 -80.8 -20.6 -80.1 -20.05 -79.95 -20.05 -79.8 -20.0 -79.95 -18.5 -79.65 -17.15 -79.85 -16.25 -80.35 -15.3 -81.0 -14.8 -81.7 -14.65 -81.95 -14.0 -80.65 Q-13.45 -80.85 -12.85 -81.25 L-12.35 -81.55 Q-13.3 -82.35 -13.95 -83.8 L-13.9 -84.5 -13.9 -85.2 -13.95 -85.85 -14.1 -86.55 -14.55 -87.3 -14.85 -87.95 -15.0 -88.2 Q-13.75 -88.9 -12.8 -90.15 -11.2 -92.3 -11.05 -94.75 L-7.2 -99.1 -7.6 -96.45 Q3.45 -104.75 20.0 -104.35 L22.7 -105.15 M-49.3 -111.2 L-49.2 -111.2 -49.2 -111.15 -49.3 -111.2 M-87.3 -40.5 L-86.1 -40.0 -86.1 -39.8 -86.05 -39.15 -85.9 -38.4 -85.65 -37.75 -85.15 -37.05 -84.45 -36.35 -83.55 -35.65 Q-72.05 -34.65 -60.9 -38.4 L-60.4 -38.85 -59.5 -39.6 Q-52.6 -41.45 -46.9 -45.75 -41.3 -49.95 -36.1 -54.65 -35.75 -55.75 -34.9 -56.65 L-30.1 -61.55 -28.0 -63.65 -27.6 -64.35 -27.25 -65.0 -26.9 -65.75 -26.6 -66.45 -25.9 -67.05 -24.8 -67.9 Q-24.4 -68.15 -24.1 -68.5 L-23.8 -69.2 -23.4 -69.9 -23.2 -70.6 -23.15 -71.2 -20.95 -73.65 -21.0 -74.9 -21.0 -75.25 -21.55 -74.6 Q-22.7 -73.5 -23.8 -73.4 L-24.1 -74.05 -24.8 -74.7 -25.95 -75.45 -26.9 -75.65 -32.45 -80.4 Q-41.8 -87.35 -48.6 -87.35 -69.4 -87.35 -80.25 -64.9 -85.7 -53.65 -87.0 -42.2 -87.0 -41.4 -87.3 -40.5" fill="#000000" fill-rule="evenodd" stroke="none"/>
  </g>
</svg>
