<?xml version="1.0" encoding="UTF-8" standalone="no"?>
<svg xmlns:ffdec="https://www.free-decompiler.com/flash" xmlns:xlink="http://www.w3.org/1999/xlink" ffdec:objectType="shape" height="268.75px" width="165.05px" xmlns="http://www.w3.org/2000/svg">
  <g transform="matrix(1.0, 0.0, 0.0, 1.0, 70.3, 286.45)">
    <path d="M11.1 -226.65 Q11.1 -222.85 15.3 -216.05 L24.55 -202.35 Q37.95 -182.2 37.95 -167.05 37.95 -163.55 37.55 -160.05 44.15 -157.9 44.15 -149.5 43.65 -140.3 40.85 -131.95 35.2 -115.5 23.7 -115.5 20.9 -115.5 19.4 -116.6 2.25 -92.7 -16.15 -92.7 -21.45 -92.7 -27.85 -118.7 -30.7 -130.25 -36.1 -159.45 L-43.2 -190.1 Q-50.05 -220.1 -50.05 -225.75 -50.05 -234.1 -40.55 -252.75 L-27.6 -277.5 Q-22.4 -290.05 -17.25 -285.05 -15.25 -283.05 -14.3 -279.1 -13.3 -275.1 -13.9 -271.6 -12.6 -264.05 -10.15 -256.8 -9.7 -255.6 -9.4 -254.2 -6.5 -252.8 -2.75 -249.15 2.6 -244.05 6.8 -237.4 11.1 -230.5 11.1 -226.65" fill="#00b3ff" fill-rule="evenodd" stroke="none"/>
    <path d="M8.7 -204.2 Q10.85 -203.55 11.45 -202.9 12.55 -201.75 12.55 -198.75 12.55 -197.05 8.8 -191.8 5.0 -186.55 3.65 -186.55 -0.65 -186.55 -6.4 -190.7 L-15.0 -197.5 Q-18.15 -192.3 -20.8 -186.8 -23.35 -181.65 -23.85 -180.85 -25.1 -178.9 -26.8 -178.3 L-32.5 -177.75 Q-37.3 -177.75 -37.5 -182.0 -37.6 -184.25 -37.0 -188.05 -37.6 -191.35 -38.9 -194.2 -39.9 -196.35 -39.9 -198.75 -39.9 -201.75 -35.35 -204.65 -28.3 -209.25 -26.8 -210.75 -26.4 -215.65 -23.75 -219.05 -20.25 -223.45 -13.5 -223.95 -6.0 -224.5 -3.35 -220.1 -1.25 -214.35 1.4 -211.95 3.8 -205.65 8.7 -204.2 M6.25 -138.55 Q10.6 -133.8 11.6 -133.3 11.8 -134.9 12.85 -136.15 14.15 -137.7 16.2 -137.7 18.9 -137.7 20.05 -135.15 20.7 -133.8 20.7 -132.35 20.7 -128.7 16.15 -121.2 10.5 -111.8 3.65 -111.8 1.9 -111.8 -1.5 -114.05 -5.45 -116.7 -5.9 -119.6 -6.45 -120.15 -8.3 -120.15 -9.25 -120.15 -10.25 -119.3 -11.25 -118.5 -12.15 -118.5 -19.35 -118.5 -21.45 -128.05 -22.55 -132.9 -22.2 -138.35 -22.2 -139.65 -21.45 -140.9 -20.3 -142.85 -17.7 -142.85 L-14.9 -142.15 Q-13.1 -141.45 -12.15 -141.45 -12.0 -141.45 -10.4 -143.55 -8.45 -145.75 -6.65 -145.85 -2.1 -146.25 -1.7 -144.65 L-1.3 -143.4 Q-0.8 -142.85 0.75 -142.85 2.35 -142.85 6.25 -138.55 M66.85 -80.55 Q65.05 -78.3 61.4 -79.4 60.9 -74.3 57.55 -74.35 L54.45 -74.4 Q52.55 -74.2 51.25 -72.75 L48.95 -67.8 Q47.8 -65.15 44.4 -65.15 43.5 -65.15 42.5 -65.9 41.5 -66.65 40.55 -66.65 35.25 -66.65 33.85 -65.9 32.7 -65.3 32.7 -63.05 32.7 -62.4 35.95 -59.6 39.15 -56.8 39.15 -54.75 39.15 -51.4 34.55 -50.15 L36.05 -48.0 Q36.9 -46.6 36.9 -46.0 36.9 -45.15 30.1 -35.9 23.25 -26.6 22.5 -26.6 13.55 -26.6 9.95 -33.45 8.1 -36.9 8.05 -40.65 8.05 -43.4 13.75 -47.05 19.4 -50.65 19.4 -52.55 L17.8 -55.3 16.2 -57.8 Q16.2 -58.95 17.3 -60.05 L20.05 -62.3 17.1 -65.45 Q16.2 -66.65 16.2 -68.25 L16.95 -75.45 Q16.95 -77.25 18.1 -78.6 20.0 -80.85 24.35 -79.75 24.6 -85.7 32.2 -89.3 36.0 -91.1 39.9 -91.75 41.5 -91.75 45.75 -88.65 L50.7 -85.1 48.8 -88.35 Q48.05 -89.55 48.05 -90.25 48.05 -103.4 68.05 -83.8 68.05 -82.05 66.85 -80.55 M63.65 -26.25 Q63.65 -28.25 68.5 -34.0 73.7 -40.15 79.2 -44.1 85.9 -48.95 89.9 -47.9 94.75 -46.6 94.75 -36.65 L92.5 -30.6 Q90.25 -25.0 90.25 -22.5 90.25 -20.75 89.25 -19.4 88.0 -17.7 85.85 -17.7 77.45 -17.7 69.75 -21.8 63.65 -25.1 63.65 -26.25 M-46.55 -78.55 Q-46.55 -77.0 -47.25 -74.75 L-48.65 -70.5 Q-44.3 -70.55 -40.7 -66.15 -37.75 -62.55 -37.75 -60.25 -37.75 -57.0 -41.8 -51.05 -46.9 -43.65 -53.3 -43.65 -59.4 -43.65 -59.2 -47.85 -59.1 -50.15 -57.55 -54.05 -58.75 -54.35 -64.75 -54.05 -68.2 -54.05 -69.55 -56.5 -70.3 -57.75 -70.3 -59.15 L-69.55 -75.0 Q-69.55 -80.05 -65.95 -82.9 -62.85 -85.45 -58.05 -85.6 -53.5 -85.8 -50.15 -83.9 -46.55 -81.85 -46.55 -78.55" fill="#8adcff" fill-rule="evenodd" stroke="none"/>
  </g>
</svg>
