<?xml version="1.0" encoding="UTF-8" standalone="no"?>
<svg xmlns:ffdec="https://www.free-decompiler.com/flash" xmlns:xlink="http://www.w3.org/1999/xlink" ffdec:objectType="shape" height="207.8px" width="107.3px" xmlns="http://www.w3.org/2000/svg">
  <g transform="matrix(1.0, 0.0, 0.0, 1.0, 59.2, 290.05)">
    <path d="M2.1 -244.2 L2.8 -243.5 3.0 -242.8 3.25 -242.1 4.65 -240.75 6.0 -239.35 7.4 -237.95 7.65 -237.25 7.85 -236.55 8.55 -235.85 9.25 -235.2 9.95 -234.5 10.65 -233.8 11.05 -233.05 11.4 -232.4 11.8 -231.7 12.5 -231.0 13.2 -230.3 13.9 -229.6 14.4 -228.25 14.75 -227.5 15.1 -226.85 15.5 -226.15 16.2 -225.45 16.9 -224.75 17.6 -224.05 Q17.85 -222.9 18.35 -221.9 L19.6 -219.85 20.35 -218.5 21.1 -217.85 22.0 -217.1 22.2 -216.45 22.5 -215.75 22.9 -215.05 23.6 -214.35 24.35 -212.95 24.7 -212.25 24.95 -211.55 25.0 -210.85 25.25 -210.2 25.7 -209.5 26.15 -208.8 26.4 -208.1 26.6 -207.4 26.85 -206.7 26.85 -206.0 26.9 -205.35 27.1 -204.6 28.3 -202.6 Q29.2 -200.45 30.35 -198.4 L31.5 -196.3 32.15 -195.6 33.2 -193.45 34.25 -191.15 34.25 -190.75 34.3 -190.05 34.5 -189.35 35.85 -186.65 38.15 -181.7 Q38.75 -180.25 39.6 -178.95 L40.25 -178.2 40.75 -177.55 40.75 -176.85 40.75 -176.15 Q41.1 -174.65 41.85 -173.35 43.1 -171.05 44.0 -168.55 44.55 -167.05 45.35 -165.75 L46.1 -165.05 47.0 -164.35 47.05 -164.35 Q48.1 -157.75 48.1 -151.6 48.1 -142.45 44.95 -135.75 41.95 -129.3 32.7 -118.05 25.55 -109.4 7.95 -97.15 -8.85 -85.45 -12.6 -85.45 L-14.05 -85.5 Q-14.45 -84.7 -15.2 -84.0 -17.1 -82.25 -20.15 -82.25 -29.6 -82.25 -34.05 -107.75 -35.15 -113.8 -37.1 -129.9 -38.85 -143.55 -40.2 -149.5 -41.35 -154.5 -50.55 -181.0 -59.2 -207.35 -59.2 -216.7 -59.2 -231.1 -47.1 -257.75 -43.15 -266.8 -36.7 -277.8 -31.15 -287.6 -25.25 -289.45 -19.75 -291.2 -19.65 -284.75 L-21.3 -285.2 -21.3 -285.05 -22.7 -284.85 -23.4 -284.7 -24.75 -283.55 -25.4 -282.8 -25.7 -282.15 -25.85 -281.45 -25.95 -280.8 -26.35 -280.05 -26.6 -279.4 -26.85 -278.7 -26.85 -278.0 -26.9 -277.35 -27.1 -277.3 -27.75 -276.8 -28.45 -276.15 -29.15 -275.45 Q-29.4 -274.3 -30.0 -273.3 L-30.55 -272.0 -30.85 -271.3 -31.25 -270.6 -31.95 -269.9 -32.65 -269.2 -33.35 -267.85 -33.75 -267.1 -34.05 -266.45 -34.25 -265.75 -34.25 -265.05 -34.3 -264.35 -34.5 -263.65 -35.95 -260.9 -37.75 -256.0 Q-38.3 -254.2 -39.1 -252.55 L-39.8 -251.85 -40.25 -251.15 -40.55 -250.5 -40.95 -249.75 -41.65 -249.05 -42.15 -248.35 -42.35 -247.7 -42.85 -246.3 -43.05 -245.6 -43.35 -244.9 -43.75 -244.2 -44.45 -243.5 -45.85 -242.1 -46.55 -241.45 -47.2 -240.75 -47.95 -239.35 -48.4 -238.65 -48.8 -237.95 -49.1 -237.25 -49.1 -236.55 -49.1 -235.85 -49.1 -235.2 -49.1 -234.5 -49.55 -233.8 -50.2 -233.05 -50.7 -232.4 Q-51.1 -230.0 -51.0 -227.55 -50.95 -224.05 -51.15 -220.6 -51.35 -217.6 -50.25 -215.05 L-50.05 -214.35 -49.95 -213.65 -49.7 -213.0 -49.3 -212.25 -49.15 -211.55 -49.1 -209.5 -49.1 -208.1 -49.1 -207.4 -49.1 -206.7 -47.85 -203.25 -46.95 -201.15 -46.3 -199.75 -46.3 -199.05 -46.25 -198.4 -46.05 -197.7 -45.85 -197.0 -45.35 -196.3 -44.7 -195.6 -44.25 -194.9 -43.55 -193.5 -43.3 -192.8 -43.0 -192.15 -42.6 -191.45 -42.55 -190.75 -42.35 -190.05 -42.1 -189.35 -41.65 -188.65 -41.6 -187.95 -41.45 -187.25 -41.15 -186.6 -40.85 -185.85 -40.75 -185.2 -40.75 -183.8 -40.7 -183.1 -40.45 -182.45 -40.05 -181.7 -39.85 -180.3 -39.8 -179.6 -39.75 -178.95 -39.6 -178.25 -38.9 -176.85 -38.65 -176.15 -38.4 -175.5 -37.95 -174.75 -37.95 -174.05 -37.95 -173.35 -37.75 -172.7 -37.5 -172.0 -37.25 -171.3 -37.05 -170.6 -37.05 -169.9 -37.0 -169.2 -36.75 -168.55 -36.35 -167.8 -36.15 -167.1 -36.1 -166.45 -36.05 -165.75 -35.9 -165.05 -35.2 -163.65 -34.9 -163.0 -34.55 -162.25 -34.25 -161.55 -34.25 -160.85 -34.2 -160.2 -34.05 -159.5 -33.75 -158.8 -33.35 -158.1 -33.35 -157.4 -33.35 -156.75 -33.35 -156.7 -33.35 -156.0 -33.35 -155.3 -32.85 -153.95 -32.2 -151.9 -32.2 -151.85 -31.7 -150.45 -31.5 -149.75 -31.5 -149.05 -31.5 -148.4 -31.5 -147.7 -31.3 -147.0 -30.45 -144.85 -29.85 -143.5 -29.65 -142.8 -29.65 -142.15 -29.65 -141.45 -29.6 -140.75 -29.4 -140.05 -29.15 -139.35 -28.45 -138.0 -28.05 -137.25 -27.8 -136.55 -27.8 -135.9 -27.7 -135.2 -27.55 -134.5 -27.25 -133.8 -26.85 -133.1 -26.85 -132.4 -26.85 -131.7 -25.95 -128.95 -24.75 -125.45 -24.1 -123.4 -24.1 -122.7 -24.1 -122.0 -24.1 -121.95 -24.1 -120.6 -24.15 -117.15 Q-24.2 -115.95 -23.4 -115.05 L-23.25 -114.6 -23.35 -112.05 Q-23.5 -106.75 -22.7 -101.6 L-22.2 -100.95 -21.5 -100.25 -21.2 -100.05 -21.2 -99.75 -21.05 -99.05 -19.25 -96.95 -17.8 -95.65 -16.9 -94.9 -12.95 -94.6 -11.6 -94.65 -10.65 -95.05 -8.8 -95.6 -8.1 -95.85 Q-3.35 -99.8 2.15 -102.85 13.05 -108.9 21.3 -118.5 L21.55 -119.2 22.0 -119.9 22.5 -120.55 23.15 -121.3 23.4 -121.95 24.1 -123.35 24.5 -124.1 24.75 -124.75 25.85 -126.2 27.4 -128.9 28.25 -130.3 29.1 -131.05 29.65 -131.7 30.05 -132.4 30.75 -133.8 31.05 -134.45 31.5 -135.2 32.15 -135.9 32.65 -136.55 33.65 -139.3 35.15 -142.5 Q36.3 -143.6 36.95 -145.05 L38.25 -148.6 38.9 -150.7 38.9 -155.55 38.9 -160.4 38.9 -163.2 38.65 -163.9 38.4 -164.6 38.2 -165.25 37.95 -165.95 37.95 -166.65 37.95 -167.35 37.9 -168.05 37.75 -168.75 37.45 -169.4 37.05 -170.15 37.0 -170.8 36.8 -171.5 36.55 -172.2 36.1 -172.9 35.6 -173.6 34.95 -174.3 34.2 -175.65 32.4 -177.75 31.45 -178.5 Q29.8 -183.55 27.55 -188.75 22.05 -201.55 9.2 -222.3 -5.0 -245.05 -9.25 -253.75 -15.45 -266.5 -17.05 -277.3 L-16.9 -277.75 -16.65 -278.45 -16.65 -279.15 -16.65 -280.55 -16.75 -281.25 -16.9 -281.95 -17.3 -282.65 -17.55 -283.3 -17.6 -284.5 Q-17.6 -288.35 -15.4 -289.6 -13.5 -290.65 -10.6 -289.35 L-10.0 -289.05 -10.15 -288.65 -10.2 -287.95 -9.9 -286.6 -9.7 -285.85 -9.5 -285.2 -9.25 -284.5 -9.25 -283.8 -9.25 -283.1 -9.25 -282.4 -9.25 -281.7 -9.05 -281.0 -8.8 -280.3 -8.55 -279.6 -8.35 -278.95 -8.35 -278.25 -8.3 -277.55 -8.05 -276.85 -7.65 -276.15 -7.45 -275.45 -7.4 -274.75 -7.4 -274.05 -7.4 -273.35 -7.2 -272.7 -6.95 -272.0 -6.7 -271.3 -6.5 -270.6 -6.5 -269.9 -6.5 -267.8 -6.3 -266.45 -5.8 -265.05 -5.6 -264.35 -5.55 -263.65 -5.5 -262.95 -5.35 -262.25 -5.05 -261.6 -4.65 -260.85 -4.65 -260.2 -4.6 -259.5 -4.4 -258.8 -3.2 -256.05 -2.55 -254.6 -1.85 -253.25 -1.85 -252.55 -1.8 -251.85 -1.6 -251.15 -1.35 -250.5 -0.95 -249.75 -0.65 -249.1 -0.25 -248.35 0.45 -247.65 0.9 -247.0 1.0 -246.3 1.15 -245.6 1.4 -244.9 2.1 -244.2" fill="#000000" fill-rule="evenodd" stroke="none"/>
  </g>
</svg>
