<?xml version="1.0" encoding="UTF-8" standalone="no"?>
<svg xmlns:ffdec="https://www.free-decompiler.com/flash" xmlns:xlink="http://www.w3.org/1999/xlink" ffdec:objectType="shape" height="213.85px" width="99.4px" xmlns="http://www.w3.org/2000/svg">
  <g transform="matrix(1.0, 0.0, 0.0, 1.0, 54.95, 297.65)">
    <path d="M5.8 -219.2 L7.15 -217.8 7.85 -217.1 8.3 -216.4 8.6 -215.75 9.05 -215.05 9.7 -214.35 12.5 -211.55 13.9 -210.2 14.1 -209.5 14.35 -208.8 15.05 -208.1 15.75 -207.4 16.45 -206.7 16.7 -206.05 17.15 -205.3 17.6 -204.65 18.3 -203.95 18.55 -203.25 19.25 -201.85 19.65 -201.15 19.9 -200.45 20.6 -199.8 24.15 -196.35 25.7 -194.9 27.75 -194.45 27.8 -194.45 27.85 -194.2 28.0 -193.5 28.5 -192.85 29.15 -192.1 29.65 -191.45 29.7 -190.75 29.85 -190.05 30.1 -189.35 30.8 -188.65 31.5 -187.95 32.15 -187.25 32.85 -186.55 33.3 -185.85 33.6 -185.2 34.0 -184.5 34.7 -183.8 35.15 -183.05 35.45 -182.45 35.9 -181.7 36.55 -181.0 37.0 -180.3 37.3 -179.65 37.7 -178.9 37.95 -178.25 37.95 -177.55 38.0 -176.85 38.2 -176.15 38.9 -174.75 39.55 -173.35 39.75 -172.65 39.8 -172.0 40.1 -171.3 40.9 -169.85 41.25 -169.25 41.65 -168.5 42.3 -167.75 42.6 -167.1 42.65 -166.45 42.85 -165.75 43.3 -165.05 43.45 -164.35 43.5 -163.65 43.55 -162.95 43.75 -162.25 44.0 -161.6 44.35 -160.85 44.45 -160.2 44.45 -153.95 44.45 -144.9 44.45 -137.25 44.0 -136.55 43.75 -135.9 43.5 -135.2 43.5 -134.5 43.45 -133.8 43.3 -133.1 42.85 -132.4 42.55 -131.75 42.15 -131.0 41.9 -130.3 41.65 -129.65 40.95 -128.95 40.25 -128.25 39.6 -127.55 38.9 -126.85 38.45 -126.15 38.15 -125.5 37.75 -124.75 37.05 -124.05 36.6 -123.35 35.9 -122.0 35.15 -120.6 34.7 -119.9 34.0 -119.2 33.6 -118.5 33.3 -117.85 32.85 -117.15 32.15 -116.45 31.2 -115.8 29.85 -115.05 28.5 -113.65 25.7 -110.85 24.3 -109.5 Q22.9 -108.8 21.45 -108.25 13.9 -105.4 6.0 -103.45 5.3 -103.1 4.6 -102.85 L1.4 -101.6 0.25 -101.15 -1.7 -99.85 -4.2 -97.7 -5.55 -96.3 -5.95 -95.55 -6.25 -94.9 -6.5 -94.2 -6.5 -93.5 -6.45 -92.85 -6.25 -92.15 -6.0 -91.45 -5.5 -90.75 -4.95 -90.15 Q-16.05 -85.45 -17.6 -85.45 L-18.1 -85.45 -18.35 -85.2 Q-20.2 -83.8 -23.2 -83.8 -26.95 -83.8 -28.95 -88.1 L-28.25 -88.25 -27.55 -88.4 -27.05 -88.85 -26.2 -89.65 -25.7 -90.25 -25.45 -90.95 -25.25 -91.65 -25.05 -92.35 -25.0 -93.05 -25.1 -93.75 -25.45 -95.15 -25.7 -95.85 -25.95 -96.5 -25.95 -100.0 -25.95 -106.95 -25.95 -111.8 -25.7 -112.5 -25.45 -113.2 -25.25 -113.9 -25.0 -114.6 -25.0 -118.05 -25.0 -122.2 -25.0 -124.3 -24.6 -125.0 -24.3 -125.7 -24.1 -126.4 -24.1 -129.85 -24.25 -134.7 Q-24.35 -136.3 -23.4 -137.5 -23.25 -137.85 -23.25 -138.2 L-23.15 -140.95 -23.15 -143.05 -23.15 -143.75 -22.75 -144.45 -22.45 -145.15 -22.2 -145.85 -22.2 -146.5 -22.2 -149.3 -22.3 -151.4 -22.45 -152.1 -22.75 -152.75 -23.05 -153.5 -23.15 -154.15 -23.15 -156.95 -23.05 -161.1 Q-23.05 -162.3 -23.85 -163.2 -24.25 -164.9 -24.15 -166.65 L-24.0 -171.5 Q-23.9 -172.95 -24.3 -174.3 L-24.6 -174.95 -24.9 -175.7 -25.0 -176.4 -25.0 -177.1 -25.0 -179.85 -25.1 -181.95 Q-25.1 -182.3 -25.25 -182.65 L-25.5 -183.3 -25.95 -184.0 -26.0 -184.7 -26.15 -185.4 -26.4 -186.1 -27.1 -187.5 -27.5 -188.2 -27.8 -188.9 -27.8 -189.6 -27.8 -190.25 -27.8 -190.95 -28.55 -193.0 -30.1 -195.85 -31.0 -197.2 -31.4 -197.95 -31.55 -198.6 -31.7 -199.3 -31.95 -200.0 -32.4 -200.7 -32.9 -201.35 -33.55 -202.1 -33.85 -202.75 -34.5 -204.15 -34.9 -204.9 -35.2 -205.55 -35.2 -206.25 -35.2 -206.95 -35.4 -207.65 -35.7 -208.3 -36.1 -209.0 -36.65 -209.65 -37.45 -210.45 -37.95 -211.1 -38.4 -211.8 -38.7 -212.45 -39.1 -213.2 -39.8 -213.9 -40.95 -216.0 -42.65 -219.4 -43.75 -221.5 -44.3 -222.3 -44.45 -222.9 -44.45 -223.6 -44.95 -224.95 -45.65 -226.35 -46.0 -227.1 -46.3 -227.75 -46.35 -228.45 -46.6 -229.15 -47.0 -229.85 -47.15 -230.55 -47.2 -231.25 -47.3 -231.95 -47.45 -232.65 -47.75 -233.3 -49.1 -236.1 -49.75 -237.5 -50.0 -238.2 -50.0 -238.9 -50.0 -239.6 -50.05 -240.25 -50.25 -240.95 -50.5 -241.65 -50.95 -242.35 -50.95 -243.05 -50.95 -243.75 -51.15 -244.45 -51.4 -245.15 -51.6 -245.85 -51.85 -246.5 -51.85 -247.9 -51.9 -250.0 -52.2 -251.35 -52.55 -252.1 Q-52.95 -253.75 -52.85 -255.55 L-53.0 -259.0 Q-53.15 -259.7 -53.45 -260.4 L-53.65 -261.8 -53.7 -263.9 -53.7 -265.25 -53.7 -265.95 -53.95 -266.65 -54.15 -267.35 -54.4 -268.05 -54.65 -268.75 -54.65 -272.2 -54.9 -280.55 Q-55.1 -284.25 -53.95 -287.5 L-53.75 -288.2 -53.7 -288.9 -53.7 -289.6 -53.5 -290.25 -52.7 -292.35 -52.1 -293.75 -51.85 -294.45 -51.85 -295.15 -51.85 -295.85 -51.4 -297.2 -51.35 -297.25 Q-49.25 -299.0 -44.45 -293.35 L-44.45 -292.8 -44.35 -291.45 -44.2 -290.75 -43.75 -290.05 -43.35 -289.3 -43.0 -288.65 -42.6 -287.95 -42.0 -287.2 -41.65 -286.55 -41.6 -285.9 -41.4 -285.2 -40.95 -284.5 -40.8 -283.8 -40.75 -283.1 -40.75 -282.4 -40.75 -281.7 -40.5 -281.0 -40.3 -280.3 -40.05 -279.6 -39.8 -278.95 -39.8 -278.25 -39.75 -277.55 -39.6 -276.85 Q-38.7 -275.5 -38.1 -274.0 L-36.4 -270.55 -35.2 -268.5 -34.5 -267.8 -34.05 -267.1 -33.35 -265.7 -33.1 -265.05 -32.85 -264.35 -32.2 -263.65 -31.5 -262.95 -30.8 -262.25 -30.35 -261.55 -30.05 -260.9 -29.65 -260.2 -28.95 -259.5 -28.25 -258.8 -27.85 -258.05 -27.5 -257.4 -27.1 -256.7 -26.4 -256.0 -25.7 -255.3 -25.0 -254.6 -24.75 -253.95 -24.55 -253.25 -23.85 -252.55 -23.15 -251.85 -22.45 -251.15 -22.05 -250.45 -21.7 -249.8 -21.3 -249.05 -20.6 -248.35 -20.2 -247.65 -19.85 -247.0 -19.45 -246.3 -18.75 -245.6 -18.05 -244.9 -17.65 -244.2 -17.3 -243.55 -16.9 -242.8 -15.45 -241.5 -13.65 -240.05 -12.75 -239.35 -12.45 -238.65 -12.05 -237.95 -5.8 -231.7 -0.95 -226.85 -0.7 -226.15 -0.45 -225.45 0.95 -224.1 2.6 -222.75 3.7 -222.0 4.0 -221.3 4.4 -220.6 5.8 -219.2 M35.9 -147.95 Q35.9 -163.75 23.45 -183.8 13.1 -200.45 -5.25 -219.05 L-22.8 -236.4 Q-33.4 -247.5 -36.1 -254.4 -36.55 -255.8 -45.0 -270.55 L-47.8 -275.85 -47.55 -271.45 Q-46.6 -253.95 -37.9 -233.0 -24.95 -201.7 -22.8 -195.75 -14.65 -172.7 -14.65 -157.35 -14.65 -154.8 -16.65 -129.95 -18.55 -105.85 -18.6 -97.9 L-17.6 -98.55 Q-13.55 -100.85 -3.3 -104.2 8.65 -108.1 13.1 -110.05 21.75 -113.95 25.2 -118.7 30.0 -125.25 32.95 -133.3 35.9 -141.3 35.9 -147.95" fill="#000000" fill-rule="evenodd" stroke="none"/>
  </g>
</svg>
