<?xml version="1.0" encoding="UTF-8" standalone="no"?>
<svg xmlns:ffdec="https://www.free-decompiler.com/flash" xmlns:xlink="http://www.w3.org/1999/xlink" ffdec:objectType="shape" height="251.6px" width="184.25px" xmlns="http://www.w3.org/2000/svg">
  <g transform="matrix(1.0, 0.0, 0.0, 1.0, 82.85, 267.05)">
    <path d="M18.15 -178.15 L17.7 -175.85 17.35 -169.9 18.85 -167.25 20.75 -163.65 Q20.75 -162.4 17.2 -152.5 13.05 -141.05 8.3 -130.5 -1.85 -107.8 -9.05 -101.65 -8.5 -99.7 -8.5 -99.05 -8.5 -97.15 -10.25 -95.8 -12.2 -94.35 -15.15 -94.35 -24.05 -94.35 -31.85 -119.85 -35.75 -132.6 -37.9 -145.6 -37.9 -168.35 -29.8 -202.25 L-24.25 -224.0 Q-21.7 -233.55 -21.7 -235.3 L-23.75 -246.2 Q-25.8 -257.45 -25.8 -260.0 -25.8 -263.95 -23.5 -265.8 -21.35 -267.55 -18.4 -266.85 -15.4 -266.1 -13.5 -263.1 -12.45 -261.45 -11.9 -259.45 L-10.0 -258.1 Q-3.55 -253.1 0.65 -246.4 4.35 -239.6 10.1 -227.0 11.1 -224.85 15.35 -208.35 19.75 -191.25 19.75 -188.4 L19.45 -186.95 19.45 -186.35 Q19.4 -183.65 18.15 -178.15" fill="#00b3ff" fill-rule="evenodd" stroke="none"/>
    <path d="M10.75 -171.1 Q13.2 -170.35 13.2 -166.4 13.2 -162.55 11.1 -155.9 8.35 -147.35 4.65 -147.35 1.3 -147.35 0.4 -149.55 -0.5 -151.75 -1.85 -151.75 -2.8 -151.75 -3.85 -152.7 -4.95 -153.65 -5.9 -153.65 -9.2 -153.65 -11.2 -152.3 -13.25 -151.0 -17.3 -151.0 L-20.15 -150.35 Q-22.1 -149.7 -23.05 -149.7 -23.95 -149.7 -25.0 -148.9 -26.05 -148.1 -27.0 -148.1 -30.5 -148.1 -31.45 -150.55 -31.95 -151.75 -31.75 -153.15 L-31.45 -157.6 Q-30.95 -162.6 -30.0 -166.8 -27.0 -180.0 -20.7 -180.0 -17.7 -180.0 -16.8 -177.55 -15.9 -175.1 -12.55 -175.1 -10.65 -175.1 -8.65 -177.35 L-5.65 -181.0 Q-4.0 -182.5 -2.6 -181.2 -0.8 -179.6 1.4 -173.3 6.0 -171.75 10.75 -171.1 M56.5 -71.25 L64.65 -73.3 Q71.4 -73.3 73.65 -69.05 74.7 -67.05 74.7 -63.15 74.7 -61.05 73.8 -59.65 72.55 -57.75 69.9 -57.75 68.35 -57.75 64.2 -60.15 L63.0 -57.2 Q62.5 -55.45 62.5 -54.05 62.5 -53.45 63.8 -51.2 L65.05 -48.75 Q65.05 -45.15 59.55 -44.95 L55.75 -44.6 Q54.0 -44.15 54.0 -42.55 54.0 -41.6 54.75 -40.9 55.5 -40.2 55.5 -39.25 55.5 -38.15 54.05 -35.95 52.55 -33.7 52.55 -31.75 52.55 -27.35 46.55 -27.35 37.55 -27.35 34.2 -30.5 32.5 -32.05 32.5 -34.1 32.5 -36.0 34.35 -38.3 36.9 -41.55 41.25 -41.8 L35.05 -46.9 Q33.25 -48.35 33.25 -50.4 33.25 -51.5 36.1 -55.1 39.6 -59.6 43.2 -60.0 41.0 -62.2 40.45 -63.05 39.9 -64.0 39.9 -65.5 39.9 -66.8 41.55 -68.4 43.75 -70.55 45.0 -73.3 47.1 -77.85 50.65 -75.2 L53.6 -72.65 Q55.3 -71.25 56.5 -71.25 M10.3 -90.0 Q10.3 -86.55 6.05 -79.75 L1.75 -73.3 Q1.75 -72.35 2.7 -70.65 3.65 -68.95 3.65 -68.05 3.65 -66.6 0.45 -63.25 -2.7 -60.0 -4.0 -60.0 -9.3 -60.0 -11.05 -66.15 -11.95 -69.25 -11.8 -72.55 -11.8 -86.45 1.4 -91.0 1.45 -99.9 5.9 -97.35 7.55 -96.4 8.9 -94.15 10.3 -91.9 10.3 -90.0 M100.1 -16.75 Q98.75 -15.45 96.55 -15.45 92.05 -15.45 89.25 -19.2 L87.35 -22.85 Q87.35 -29.4 94.4 -26.35 97.05 -25.2 99.2 -23.2 101.4 -21.15 101.4 -19.85 101.4 -18.0 100.1 -16.75 M-1.8 -220.1 Q-3.5 -218.4 -9.65 -218.4 -15.15 -218.4 -18.45 -227.65 -20.7 -234.05 -20.7 -238.0 -20.7 -252.15 -10.7 -239.9 -7.55 -236.0 -3.85 -230.0 -0.75 -224.95 -0.75 -224.6 -0.75 -221.1 -1.8 -220.1 M-33.3 -84.95 L-32.65 -85.65 Q-28.3 -89.5 -24.15 -81.8 -20.7 -73.55 -20.7 -71.8 -20.7 -69.95 -23.05 -66.25 -26.0 -61.7 -29.7 -61.5 -31.2 -57.75 -34.75 -57.75 -39.55 -57.75 -39.2 -61.5 -39.0 -63.4 -37.85 -65.3 -45.85 -83.0 -45.9 -82.0 -45.9 -83.85 -44.25 -85.4 -42.6 -86.95 -40.2 -87.3 -36.25 -87.85 -33.3 -84.95 M-64.85 -63.9 L-65.9 -61.65 Q-62.25 -57.45 -61.2 -55.45 -60.0 -53.25 -60.0 -50.25 -60.0 -39.15 -67.3 -39.15 -74.15 -39.15 -79.0 -47.55 -82.85 -54.1 -82.85 -58.65 -82.85 -65.35 -79.95 -70.4 -77.4 -74.95 -73.6 -76.45 -69.9 -77.95 -67.3 -75.55 -64.4 -72.85 -64.4 -66.35 -64.4 -65.15 -64.85 -63.9" fill="#8adcff" fill-rule="evenodd" stroke="none"/>
  </g>
</svg>
