<?xml version="1.0" encoding="UTF-8" standalone="no"?>
<svg xmlns:ffdec="https://www.free-decompiler.com/flash" xmlns:xlink="http://www.w3.org/1999/xlink" ffdec:objectType="shape" height="193.0px" width="193.0px" xmlns="http://www.w3.org/2000/svg">
  <g transform="matrix(1.0, 0.0, 0.0, 1.0, 96.5, 96.5)">
    <path d="M-6.75 -68.25 Q-3.95 -96.5 0.0 -96.5 3.95 -96.5 6.7 -68.25 9.5 -39.95 9.5 0.0 9.5 39.95 6.7 68.2 3.95 96.5 0.0 96.5 -3.95 96.5 -6.75 68.2 -9.5 39.95 -9.5 0.0 -9.5 -39.95 -6.75 -68.25" fill="url(#gradient0)" fill-rule="evenodd" stroke="none"/>
    <path d="M68.25 -6.75 Q96.5 -3.95 96.5 0.0 96.5 3.95 68.25 6.7 39.95 9.5 0.0 9.5 -39.95 9.5 -68.2 6.7 -96.5 3.95 -96.5 0.0 -96.5 -3.95 -68.2 -6.75 -39.95 -9.5 0.0 -9.5 39.95 -9.5 68.25 -6.75" fill="url(#gradient1)" fill-rule="evenodd" stroke="none"/>
    <path d="M24.75 -24.85 Q35.0 -14.55 35.0 0.0 35.0 14.55 24.75 24.7 14.5 35.0 0.0 35.0 -14.5 35.0 -24.7 24.7 -35.0 14.55 -35.0 0.0 -35.0 -14.55 -24.7 -24.85 -14.5 -35.0 0.0 -35.0 14.5 -35.0 24.75 -24.85" fill="url(#gradient2)" fill-rule="evenodd" stroke="none"/>
  </g>
  <defs>
    <radialGradient cx="0" cy="0" gradientTransform="matrix(0.0116, 0.0, 0.0, 0.1183, 0.0, 0.0)" gradientUnits="userSpaceOnUse" id="gradient0" r="819.2" spreadMethod="pad">
      <stop offset="0.0" stop-color="#ffffff" stop-opacity="0.5019608"/>
      <stop offset="1.0" stop-color="#ffffff" stop-opacity="0.0"/>
    </radialGradient>
    <radialGradient cx="0" cy="0" gradientTransform="matrix(0.0, 0.0116, -0.1183, 0.0, 0.0, 0.0)" gradientUnits="userSpaceOnUse" id="gradient1" r="819.2" spreadMethod="pad">
      <stop offset="0.0" stop-color="#ffffff" stop-opacity="0.5019608"/>
      <stop offset="1.0" stop-color="#ffffff" stop-opacity="0.0"/>
    </radialGradient>
    <radialGradient cx="0" cy="0" gradientTransform="matrix(0.0, 0.0427, -0.0429, 0.0, 0.0, 0.0)" gradientUnits="userSpaceOnUse" id="gradient2" r="819.2" spreadMethod="pad">
      <stop offset="0.0" stop-color="#ffffff" stop-opacity="0.5019608"/>
      <stop offset="1.0" stop-color="#ffffff" stop-opacity="0.0"/>
    </radialGradient>
  </defs>
</svg>
