<?xml version="1.0" encoding="UTF-8" standalone="no"?>
<svg xmlns:ffdec="https://www.free-decompiler.com/flash" xmlns:xlink="http://www.w3.org/1999/xlink" ffdec:objectType="shape" height="244.7px" width="166.45px" xmlns="http://www.w3.org/2000/svg">
  <g transform="matrix(1.0, 0.0, 0.0, 1.0, 85.85, 269.05)">
    <path d="M19.25 -180.4 Q20.85 -175.3 21.85 -169.25 L21.95 -168.9 24.45 -166.5 Q25.75 -162.95 25.75 -155.95 26.1 -150.2 25.15 -145.3 23.6 -137.1 18.45 -135.9 L12.95 -124.1 Q-1.2 -95.15 -8.5 -95.15 -9.65 -95.15 -11.9 -96.25 -14.25 -97.4 -15.4 -97.4 -16.25 -97.4 -18.0 -95.9 -19.8 -94.35 -21.7 -94.35 -27.95 -94.35 -29.05 -100.1 -29.65 -103.05 -29.05 -106.9 L-29.6 -106.7 -31.85 -106.55 Q-35.75 -106.55 -43.7 -118.1 -52.25 -130.5 -55.5 -142.8 -59.25 -157.3 -59.5 -163.0 L-59.45 -169.65 -60.3 -174.0 Q-61.25 -180.65 -61.25 -186.8 -62.25 -189.65 -62.25 -190.2 -62.25 -194.05 -51.9 -219.0 -42.05 -242.75 -38.9 -248.0 -37.6 -250.2 -37.25 -255.6 -36.7 -262.25 -36.35 -263.9 -34.25 -272.6 -21.7 -266.55 -21.7 -261.2 -20.15 -251.65 L-19.15 -245.05 Q-14.9 -244.35 -10.25 -239.45 -8.4 -236.8 -7.75 -231.8 L-6.45 -224.1 Q-4.1 -216.1 -1.55 -209.5 L-0.8 -207.7 Q1.45 -206.6 3.25 -202.5 L4.85 -197.25 Q5.75 -196.5 6.5 -196.5 14.25 -196.5 19.25 -180.4" fill="#00b3ff" fill-rule="evenodd" stroke="none"/>
    <path d="M60.45 -70.0 Q63.35 -71.3 68.8 -67.3 72.05 -70.3 73.55 -70.3 76.8 -70.3 79.05 -64.0 L80.6 -57.45 Q80.6 -55.15 79.2 -53.75 77.25 -51.9 73.2 -52.75 73.2 -50.5 71.2 -46.35 L69.15 -42.15 Q69.15 -41.25 70.1 -40.4 71.05 -39.55 71.05 -38.6 71.05 -37.65 70.3 -36.05 69.55 -34.45 69.55 -33.55 69.55 -31.05 64.25 -27.7 58.9 -24.35 54.75 -24.35 46.3 -24.35 43.75 -28.0 42.5 -29.8 42.9 -31.85 42.9 -33.1 46.0 -38.7 49.5 -44.9 51.8 -46.0 L50.75 -47.75 Q50.3 -48.7 50.3 -49.95 50.3 -50.95 51.25 -52.1 L53.4 -54.9 50.45 -58.05 Q49.55 -59.25 49.55 -60.8 49.55 -63.05 51.4 -64.3 53.65 -65.85 57.55 -64.4 58.1 -68.9 60.45 -70.0 M31.0 -88.75 Q31.0 -87.05 29.65 -85.65 27.75 -83.65 24.15 -84.75 L23.9 -84.3 Q23.6 -83.9 23.6 -82.75 L26.95 -75.5 Q30.25 -68.3 30.25 -67.5 30.25 -62.15 29.4 -61.0 27.75 -58.85 20.6 -58.85 17.8 -58.85 12.25 -51.25 6.75 -43.65 5.05 -43.65 -1.65 -43.65 -5.5 -54.85 -8.05 -62.3 -8.05 -67.0 -8.05 -70.15 0.7 -74.1 9.4 -78.0 13.1 -76.75 L13.4 -76.8 Q13.65 -76.9 13.65 -78.05 L12.0 -81.35 Q10.3 -84.75 10.3 -85.85 10.3 -91.5 13.55 -94.1 16.3 -96.3 20.65 -95.9 24.6 -95.55 27.75 -93.4 31.0 -91.2 31.0 -88.75 M-24.0 -250.35 Q-22.05 -250.6 -20.7 -249.2 -19.2 -247.6 -19.2 -244.65 -19.2 -242.75 -20.15 -241.0 -21.55 -238.5 -24.35 -238.5 -27.5 -238.5 -28.5 -240.8 -29.0 -241.95 -28.85 -243.25 -28.85 -246.35 -27.35 -248.35 -26.0 -250.1 -24.0 -250.35 M-0.45 -191.0 Q5.05 -187.3 5.05 -184.55 5.05 -179.1 -0.95 -175.1 -7.05 -171.05 -15.35 -171.05 -18.5 -171.05 -20.1 -169.65 -20.9 -168.95 -22.15 -166.6 -24.45 -162.15 -30.75 -162.15 L-35.8 -162.35 Q-38.75 -163.05 -39.05 -165.9 L-41.3 -164.0 Q-42.8 -162.9 -44.05 -162.9 -48.1 -162.9 -50.7 -168.65 -52.05 -171.55 -52.55 -174.65 -52.55 -177.7 -49.6 -185.5 -45.8 -195.45 -41.4 -195.45 -35.05 -195.45 -33.3 -193.35 -30.8 -190.4 -27.15 -189.35 -28.35 -195.5 -23.55 -197.15 -19.5 -198.5 -12.3 -196.45 -5.75 -194.55 -0.45 -191.0 M-22.2 -104.6 Q-27.9 -104.05 -30.6 -108.25 -32.5 -111.2 -32.5 -115.2 -32.5 -116.35 -28.1 -120.0 -23.65 -123.65 -22.2 -123.65 -20.05 -123.65 -18.8 -122.4 L-17.6 -121.2 -11.2 -121.95 -4.8 -122.9 Q2.15 -123.3 2.15 -117.25 2.15 -114.6 -0.75 -110.05 -4.3 -104.45 -8.3 -106.95 -8.95 -103.6 -9.55 -101.35 -10.75 -97.0 -14.8 -97.0 -20.2 -97.0 -21.7 -100.15 -22.2 -101.25 -22.2 -104.6 M-85.85 -51.35 Q-85.85 -64.0 -76.95 -54.0 -74.0 -50.7 -70.85 -45.7 -68.05 -41.35 -68.05 -40.75 -68.05 -34.75 -72.55 -34.75 -75.7 -34.75 -76.7 -37.2 -77.2 -38.45 -77.25 -40.1 -77.65 -39.6 -78.35 -39.2 -79.5 -38.5 -80.7 -38.5 -83.7 -38.5 -85.1 -45.0 -85.75 -48.25 -85.85 -51.35 M-35.5 -82.85 Q-35.5 -82.0 -36.35 -80.65 -37.25 -79.25 -38.5 -78.05 -31.4 -74.75 -31.5 -71.5 -31.55 -70.6 -32.3 -68.6 -33.05 -66.6 -33.05 -65.4 -33.05 -64.85 -31.3 -62.1 -29.6 -59.4 -29.6 -58.5 -29.6 -57.05 -31.5 -54.1 -33.95 -50.3 -37.0 -50.3 -43.9 -50.3 -52.6 -63.85 -55.45 -68.2 -57.95 -73.25 L-60.0 -77.8 Q-60.0 -81.25 -56.15 -83.9 -52.8 -86.2 -47.75 -87.05 -42.85 -87.9 -39.35 -86.9 -35.5 -85.75 -35.5 -82.85" fill="#8adcff" fill-rule="evenodd" stroke="none"/>
  </g>
</svg>
