<?xml version="1.0" encoding="UTF-8" standalone="no"?>
<svg xmlns:ffdec="https://www.free-decompiler.com/flash" xmlns:xlink="http://www.w3.org/1999/xlink" ffdec:objectType="shape" height="256.3px" width="165.6px" xmlns="http://www.w3.org/2000/svg">
  <g transform="matrix(1.0, 0.0, 0.0, 1.0, 73.95, 113.8)">
    <path d="M45.6 -103.4 L48.05 -93.3 Q42.0 -70.3 35.15 -70.3 23.5 -70.3 19.4 -77.9 17.55 -81.35 17.55 -86.3 17.55 -86.75 21.95 -93.4 27.15 -101.35 31.6 -106.45 45.6 -122.55 45.6 -103.4 M65.1 -69.05 Q63.85 -71.5 63.85 -72.05 63.85 -76.25 69.0 -79.05 73.3 -81.45 77.75 -81.45 84.4 -81.45 88.35 -78.85 91.65 -76.7 91.65 -74.1 91.65 -73.1 86.7 -64.25 81.75 -55.45 81.45 -55.45 74.65 -55.45 68.65 -63.4 66.65 -66.0 65.1 -69.05 M15.65 111.5 Q18.5 114.1 18.5 116.6 18.5 122.95 16.6 124.7 14.55 126.55 7.1 126.55 6.1 126.55 5.35 128.55 4.6 130.5 1.75 130.5 -0.65 130.5 -1.95 129.05 L-3.4 126.8 -3.65 129.45 Q-3.95 131.75 -4.8 133.4 -7.45 138.55 -15.9 138.55 -16.2 138.55 -17.4 140.55 -18.6 142.5 -21.25 142.5 -25.05 142.5 -31.35 129.2 L-36.9 115.65 Q-36.9 110.2 -32.3 110.2 -29.5 110.2 -28.65 111.5 L-27.15 113.85 Q-26.75 113.6 -25.3 110.55 -24.25 108.3 -21.25 108.3 -19.05 108.3 -15.9 110.95 -12.8 113.6 -9.1 113.6 -7.8 113.6 -6.65 110.95 -5.5 108.1 -3.8 107.8 L2.9 107.45 Q4.95 108.3 6.4 108.3 12.1 108.3 15.65 111.5 M-61.5 -103.7 Q-57.15 -105.2 -54.15 -104.3 -50.8 -103.3 -50.8 -99.6 -50.8 -97.9 -53.3 -93.55 -55.2 -90.15 -56.15 -89.05 -53.95 -88.45 -50.8 -83.7 -48.05 -79.5 -48.05 -78.6 -48.05 -76.05 -50.8 -74.45 -54.7 -72.2 -63.85 -72.2 -64.6 -72.2 -69.3 -77.15 L-73.95 -82.4 Q-73.95 -83.35 -72.0 -85.55 -70.05 -87.7 -70.05 -88.55 -70.05 -89.75 -71.1 -90.5 -72.2 -91.3 -72.2 -92.5 -72.2 -96.05 -68.85 -99.3 -65.85 -102.2 -61.5 -103.7" fill="#8adcff" fill-rule="evenodd" stroke="none"/>
  </g>
</svg>
