<?xml version="1.0" encoding="UTF-8" standalone="no"?>
<svg xmlns:ffdec="https://www.free-decompiler.com/flash" xmlns:xlink="http://www.w3.org/1999/xlink" ffdec:objectType="shape" height="259.65px" width="175.7px" xmlns="http://www.w3.org/2000/svg">
  <g transform="matrix(1.0, 0.0, 0.0, 1.0, 77.65, 107.9)">
    <path d="M5.35 -107.4 Q7.35 -106.35 7.35 -103.65 7.35 -102.75 3.65 -98.1 -0.05 -93.45 -0.8 -93.45 -4.3 -93.45 -5.2 -96.7 -5.7 -98.35 -5.45 -100.2 -5.45 -102.9 -3.45 -105.0 -1.65 -106.9 0.95 -107.6 L5.35 -107.4 M65.7 -100.3 Q63.9 -98.35 58.5 -97.6 L58.95 -96.85 Q59.25 -96.3 59.25 -94.85 59.25 -92.55 56.8 -89.85 L51.15 -83.95 Q54.6 -80.6 54.6 -77.4 54.6 -74.4 52.75 -71.45 50.3 -67.55 46.15 -67.55 42.45 -67.55 36.6 -73.5 33.65 -76.45 31.45 -79.55 31.45 -80.8 33.4 -84.75 35.3 -88.6 35.85 -88.8 L34.6 -90.55 Q34.2 -91.35 34.2 -92.95 34.2 -95.7 38.85 -100.3 43.65 -105.05 47.1 -105.05 51.35 -105.05 55.95 -106.0 L62.0 -107.35 Q64.5 -107.8 65.5 -106.95 66.6 -106.0 66.6 -102.7 66.6 -101.2 65.7 -100.3 M96.95 -56.2 Q95.65 -54.6 92.5 -54.6 86.55 -54.6 83.0 -57.85 80.5 -60.15 80.5 -61.95 80.5 -63.6 83.25 -65.5 86.0 -67.4 89.3 -68.05 98.05 -69.7 98.05 -60.8 98.05 -57.6 96.95 -56.2 M17.25 89.0 Q19.65 87.85 23.0 87.85 28.1 87.85 29.8 90.05 30.5 90.95 30.5 92.5 30.5 95.1 17.8 99.8 5.1 104.5 -1.75 104.5 -14.1 104.5 -25.85 100.85 -39.75 96.45 -39.75 89.85 -39.75 82.65 -36.35 81.85 -33.75 81.25 -27.65 84.65 L-15.8 91.35 Q-8.35 95.1 -3.05 95.1 7.5 95.1 13.2 91.5 L17.25 89.0 M4.8 130.75 Q5.55 131.9 5.55 133.2 5.55 136.55 -2.05 142.25 -9.45 147.8 -13.3 147.8 L-15.1 149.8 Q-16.95 151.75 -18.85 151.75 -23.6 151.75 -27.5 143.15 L-30.5 134.3 Q-30.5 128.6 -25.85 128.6 -24.65 128.6 -22.1 129.8 -19.55 130.95 -18.4 130.95 -18.05 130.95 -17.05 129.3 -15.8 127.35 -14.9 126.65 -11.6 123.95 -7.35 131.65 -6.85 131.65 -4.1 130.15 -1.35 128.6 0.0 128.6 3.45 128.6 4.8 130.75 M-65.6 -103.5 Q-60.75 -104.45 -58.5 -101.25 -55.8 -97.45 -57.8 -88.8 -54.8 -87.25 -52.15 -82.5 -49.95 -78.5 -49.95 -76.95 -49.95 -71.25 -60.05 -71.25 -65.65 -71.25 -65.8 -74.45 -65.9 -76.15 -64.2 -79.05 L-64.0 -79.3 Q-73.65 -79.1 -74.85 -82.4 -75.45 -84.15 -74.2 -87.0 L-75.9 -89.45 -77.65 -91.55 Q-77.65 -95.4 -73.75 -99.1 -70.0 -102.6 -65.6 -103.5" fill="#8adcff" fill-rule="evenodd" stroke="none"/>
  </g>
</svg>
