<?xml version="1.0" encoding="UTF-8" standalone="no"?>
<svg xmlns:ffdec="https://www.free-decompiler.com/flash" xmlns:xlink="http://www.w3.org/1999/xlink" ffdec:objectType="shape" height="193.45px" width="196.4px" xmlns="http://www.w3.org/2000/svg">
  <g transform="matrix(1.0, 0.0, 0.0, 1.0, 102.05, 108.6)">
    <path d="M25.05 -3.7 L25.6 -5.95 Q31.6 -29.45 47.45 -29.05 L48.1 -29.5 48.1 -29.6 55.0 -29.0 59.5 -28.05 61.55 -27.55 62.2 -26.8 62.75 -26.2 63.65 -25.45 63.8 -24.75 63.85 -24.05 63.85 -23.8 64.8 -23.3 Q67.1 -4.6 59.2 12.5 40.85 7.25 25.05 -3.7 M29.4 -3.05 Q42.55 6.1 58.35 8.6 65.8 -8.1 58.25 -23.8 L57.85 -24.3 57.35 -24.65 56.0 -25.2 55.35 -25.85 53.2 -26.0 Q51.1 -26.1 49.45 -26.7 34.25 -23.35 30.05 -5.85 L29.4 -3.05 M58.65 -5.85 Q60.2 -2.3 57.5 0.25 54.6 3.0 51.55 0.6 48.6 -1.75 49.9 -5.55 50.85 -8.35 53.45 -9.3 57.15 -9.4 58.65 -5.85 M17.6 30.25 L17.55 30.8 17.65 31.5 17.8 32.2 18.8 34.25 19.6 35.7 19.95 36.35 20.35 37.05 21.05 37.75 21.75 38.45 22.15 39.15 22.5 39.8 22.9 40.5 23.6 41.2 27.0 44.75 Q28.1 45.85 29.35 46.75 L31.45 47.25 35.0 49.4 Q37.25 50.6 39.8 50.95 L40.95 51.6 42.35 52.2 44.4 52.8 47.0 54.05 Q50.4 55.4 53.95 55.5 L53.95 55.55 54.0 55.9 54.05 56.25 54.0 56.6 53.9 56.9 53.8 57.25 53.65 57.65 53.45 58.0 52.95 58.75 52.0 59.55 Q44.7 60.05 37.65 56.85 30.8 53.65 24.9 48.8 23.2 47.45 22.0 45.65 20.8 44.7 20.05 43.4 L17.9 39.85 16.8 38.2 16.4 37.9 16.15 37.65 15.95 37.3 15.6 36.7 15.15 35.7 15.0 35.35 14.95 35.0 14.9 34.65 14.85 34.3 14.8 33.95 14.75 33.6 14.8 33.25 14.9 32.85 15.0 32.5 15.15 32.15 15.35 31.85 15.65 31.4 15.95 31.0 16.6 30.6 17.4 30.25 17.6 30.25" fill="#000000" fill-rule="evenodd" stroke="none"/>
    <path d="M58.65 -5.85 Q57.15 -9.4 53.45 -9.3 50.85 -8.35 49.9 -5.55 48.6 -1.75 51.55 0.6 54.6 3.0 57.5 0.25 60.2 -2.3 58.65 -5.85 M29.4 -3.05 L30.05 -5.85 Q34.25 -23.35 49.45 -26.7 51.1 -26.1 53.2 -26.0 L55.35 -25.85 56.0 -25.2 57.35 -24.65 57.85 -24.3 58.25 -23.8 Q65.8 -8.1 58.35 8.6 42.55 6.1 29.4 -3.05" fill="#66ffff" fill-rule="evenodd" stroke="none"/>
    <path d="M88.75 -30.8 Q88.35 -28.45 88.8 -26.25 99.9 27.75 61.25 66.55 28.85 91.7 -11.0 82.25 -67.45 68.75 -89.65 16.8 L-91.8 4.1 -84.05 1.4 Q-76.5 45.8 -36.2 68.1 22.9 100.85 66.6 48.95 67.55 48.4 68.1 47.55 97.35 6.7 78.95 -41.25 L82.8 -44.85 88.75 -30.8 M66.2 -49.55 L64.5 -51.65 65.35 -51.85 66.2 -49.55" fill="#000000" fill-rule="evenodd" stroke="none"/>
    <path d="M22.25 -99.7 Q27.55 -95.35 31.2 -88.8 L32.4 -86.5 32.55 -87.1 Q34.9 -83.95 39.75 -83.95 41.25 -83.95 50.65 -94.9 L54.65 -99.65 Q59.8 -98.0 64.55 -93.7 L78.0 -75.3 Q87.0 -62.7 87.0 -61.75 87.0 -60.05 86.65 -58.7 L89.65 -57.95 Q92.4 -57.3 93.25 -56.55 94.35 -55.55 94.35 -52.85 94.35 -47.9 90.35 -45.85 L87.25 -43.45 Q81.2 -39.55 72.65 -39.55 65.65 -39.55 63.15 -43.0 62.05 -44.55 62.05 -46.8 62.05 -47.75 62.75 -48.8 L62.45 -48.8 Q43.5 -48.8 35.8 -61.75 L34.9 -63.35 Q33.7 -52.2 30.45 -41.95 22.9 -18.2 8.75 -18.2 3.4 -18.2 1.15 -21.75 0.0 -23.55 -0.05 -25.55 L0.55 -26.85 Q-1.15 -26.0 -2.9 -25.3 -20.3 -8.9 -36.15 -8.9 -42.75 -8.9 -44.75 -12.8 -45.35 -14.1 -45.45 -15.45 -64.35 -9.75 -75.55 -8.45 -76.95 -7.7 -78.55 -6.9 L-81.75 -5.25 Q-85.65 -1.35 -89.85 2.6 L-94.45 6.75 Q-99.5 6.75 -101.2 2.9 -102.05 0.95 -101.9 -1.2 L-101.9 -1.35 -102.05 -1.5 Q-99.05 -14.2 -99.05 -22.0 -99.05 -27.1 -100.4 -30.45 L-100.05 -31.0 Q-96.6 -37.65 -96.6 -38.6 -96.6 -39.55 -97.8 -41.7 L-99.0 -44.2 -98.1 -44.2 Q-93.9 -44.2 -80.35 -61.45 -66.45 -80.15 -63.9 -83.0 L-62.35 -84.7 Q-57.2 -86.9 -48.35 -91.95 L-32.2 -101.55 Q-24.9 -105.0 -17.5 -106.95 L-9.65 -108.6 -6.35 -107.35 0.25 -104.6 Q5.8 -102.5 8.3 -102.5 10.4 -102.5 12.1 -103.05 L13.3 -103.4 Q17.0 -104.0 22.25 -99.7 M3.45 -88.05 L0.95 -89.3 Q3.5 -87.1 4.35 -86.95 L4.4 -87.55 3.45 -88.05" fill="#00b3ff" fill-rule="evenodd" stroke="none"/>
  </g>
</svg>
