<?xml version="1.0" encoding="UTF-8" standalone="no"?>
<svg xmlns:ffdec="https://www.free-decompiler.com/flash" xmlns:xlink="http://www.w3.org/1999/xlink" ffdec:objectType="shape" height="142.65px" width="345.25px" xmlns="http://www.w3.org/2000/svg">
  <g transform="matrix(1.0, 0.0, 0.0, 1.0, 244.2, 123.2)">
    <path d="M-205.75 -54.75 Q-198.35 -59.25 -193.25 -62.5 -171.75 -76.3 -157.55 -93.25 -154.2 -97.25 -142.45 -103.5 -129.9 -110.2 -117.45 -114.1 -102.75 -118.7 -94.05 -117.15 L-91.95 -116.65 Q-87.0 -123.2 -69.4 -116.9 -61.85 -114.2 -54.35 -109.95 -50.25 -111.3 -44.35 -108.15 -38.0 -104.8 -33.2 -98.35 -28.15 -91.5 -28.15 -85.45 -28.15 -82.7 -32.5 -78.65 -37.15 -74.4 -41.1 -74.4 -45.05 -74.4 -53.15 -85.4 L-56.3 -89.75 -56.4 -89.75 -67.75 -88.4 Q-76.05 -87.2 -83.95 -84.7 L-85.9 -84.15 -92.7 -78.45 Q-97.8 -74.35 -102.25 -71.45 L-102.25 -70.45 Q-102.25 -68.55 -105.35 -60.0 -109.3 -49.15 -114.5 -39.85 -130.4 -11.35 -149.95 -11.35 -156.05 -11.35 -160.05 -12.4 -162.0 -11.35 -164.2 -11.35 -172.1 -11.35 -178.0 -18.7 -181.3 -22.8 -182.5 -23.85 -185.3 -26.25 -188.8 -26.4 -198.55 -26.8 -201.1 -32.05 -201.65 -33.15 -201.9 -35.65 -205.0 -35.95 -207.65 -36.8 -211.85 -38.15 -215.15 -38.15 -218.25 -38.15 -219.35 -40.8 -219.9 -42.1 -219.8 -42.9 -219.8 -51.4 -210.55 -49.5 L-210.55 -49.95 Q-210.55 -51.55 -205.75 -54.75" fill="#00b3ff" fill-rule="evenodd" stroke="none"/>
    <path d="M72.4 -61.05 Q66.6 -47.1 59.1 -47.1 53.35 -47.1 52.0 -52.55 51.3 -55.3 51.75 -58.3 51.75 -63.9 52.65 -65.45 L59.1 -75.6 Q63.05 -84.5 70.1 -83.3 72.9 -82.85 74.85 -80.7 76.8 -78.5 76.8 -75.6 75.35 -68.05 72.4 -61.05 M8.65 -21.25 Q2.15 -21.25 0.65 -27.1 -0.1 -30.15 0.55 -33.7 -3.35 -37.3 -6.05 -36.65 L-8.3 -35.75 Q-9.75 -35.15 -11.0 -35.15 -16.4 -35.15 -17.9 -40.35 L-18.8 -43.95 Q-19.4 -45.6 -20.75 -45.6 -21.95 -45.6 -24.25 -44.5 -26.6 -43.45 -27.75 -43.45 -28.65 -43.45 -37.85 -50.0 -47.1 -56.6 -47.1 -57.2 -47.1 -60.2 -45.75 -61.75 -44.0 -63.75 -37.85 -66.6 L-38.6 -68.1 -38.8 -70.4 Q-38.8 -71.55 -37.65 -73.0 -36.55 -74.4 -36.55 -75.6 -36.55 -76.8 -37.65 -78.6 -38.8 -80.4 -38.8 -81.55 -38.8 -83.65 -36.5 -87.0 -34.2 -90.3 -34.2 -94.4 -34.2 -99.6 -29.7 -102.2 -25.8 -104.45 -19.8 -104.1 -14.1 -103.75 -9.95 -101.35 -5.45 -98.7 -5.45 -95.1 -5.45 -94.0 -6.7 -92.1 L-8.55 -88.8 Q-7.0 -87.65 -3.85 -80.8 -0.95 -74.45 -0.95 -73.6 -0.95 -71.4 -1.45 -70.1 -2.55 -67.4 -5.9 -65.9 2.6 -60.05 10.35 -53.7 23.0 -43.4 23.0 -39.9 23.0 -21.25 8.65 -21.25 M-165.65 -33.25 Q-165.65 -34.3 -166.1 -36.1 -166.5 -37.65 -166.35 -38.8 -172.4 -39.0 -180.6 -48.15 -187.85 -56.15 -187.85 -58.3 -152.7 -105.2 -152.7 -78.35 -152.7 -75.05 -157.1 -71.8 -161.5 -68.5 -161.5 -64.95 -161.5 -63.2 -157.8 -61.8 L-149.65 -59.35 Q-137.85 -55.6 -137.85 -48.45 L-139.7 -41.65 -141.55 -34.9 Q-141.55 -33.7 -140.65 -31.75 -139.75 -29.75 -139.75 -28.6 L-139.75 -28.3 Q-137.15 -27.65 -135.05 -26.25 -131.45 -23.75 -131.45 -20.05 -131.45 -17.05 -133.45 -15.2 -135.85 -12.9 -140.7 -12.9 -146.9 -12.9 -150.4 -14.65 -152.05 -13.85 -153.65 -13.85 -160.35 -13.85 -163.65 -23.5 -165.3 -28.3 -165.65 -33.25 M-90.4 -104.75 Q-92.95 -101.35 -92.95 -97.7 -92.95 -94.45 -89.95 -89.0 -87.0 -83.55 -87.0 -81.45 -87.0 -76.45 -91.45 -74.7 -95.4 -73.15 -106.0 -73.15 -109.0 -73.15 -121.2 -87.75 -121.2 -88.9 -120.05 -90.7 -118.95 -92.45 -118.95 -93.65 -118.95 -94.85 -120.05 -96.25 -121.2 -97.7 -121.2 -98.9 -121.2 -101.9 -116.0 -106.75 -110.9 -111.5 -104.5 -114.6 -97.5 -118.1 -93.05 -117.4 -87.85 -116.55 -87.85 -109.95 -87.85 -108.2 -90.4 -104.75 M-83.3 -59.0 Q-78.2 -61.45 -75.0 -59.55 -71.25 -57.3 -71.25 -49.25 -71.25 -48.05 -72.2 -46.45 -73.15 -44.85 -73.15 -43.7 -73.15 -38.35 -69.25 -35.2 -67.25 -33.6 -60.6 -30.7 -54.55 -28.05 -51.95 -25.4 -48.05 -21.3 -48.05 -14.35 -48.05 -10.9 -50.3 -6.65 -53.45 -0.8 -58.75 -0.8 -64.8 -0.8 -67.8 -7.45 -69.35 -10.85 -70.05 -15.4 L-72.55 -14.25 -75.4 -13.85 -82.45 -14.25 -87.5 -14.7 Q-92.55 -14.7 -95.3 -24.45 -96.7 -29.3 -97.1 -34.2 L-96.2 -40.05 -95.35 -45.35 Q-95.35 -48.35 -91.6 -52.6 -87.85 -56.85 -83.3 -59.0" fill="#8adcff" fill-rule="evenodd" stroke="none"/>
    <path d="M33.75 -86.8 Q32.75 -88.9 31.15 -90.0 -4.8 -114.8 -46.95 -92.85 -62.6 -90.05 -73.25 -76.0 -98.8 -42.2 -97.95 -1.05 L-94.0 -0.2 -94.15 0.85 Q-84.6 -2.15 -74.7 -4.15 -42.65 -10.3 -11.3 -19.3 39.45 -34.05 33.75 -86.8 M62.4 -88.1 L55.95 -92.0 43.35 -81.65 Q43.9 -70.3 48.05 -60.15 57.35 -37.45 80.75 -43.95 L88.55 -51.4 Q87.6 -51.8 86.85 -52.4 69.15 -66.05 62.4 -88.1 M40.5 -92.35 Q46.7 -89.9 51.45 -95.7 57.1 -102.65 63.1 -96.55 77.2 -82.35 88.1 -65.3 L96.95 -56.0 100.8 -55.75 Q102.6 -44.2 91.9 -39.1 77.65 -32.35 62.45 -36.3 49.3 -39.6 42.35 -50.95 L41.65 -48.6 37.7 -48.6 Q25.2 -23.55 -1.5 -12.75 -26.8 -2.6 -54.3 -0.3 -84.25 1.75 -108.35 19.45 -110.15 18.7 -110.1 16.95 -109.4 -2.6 -105.65 -22.6 -97.3 -67.45 -57.55 -93.45 -16.4 -120.35 28.05 -102.75 L38.15 -92.6 40.5 -92.35" fill="#000000" fill-rule="evenodd" stroke="none"/>
    <path d="M-162.95 -81.45 L-163.45 -80.75 -163.7 -80.1 -164.0 -79.1 -164.8 -78.3 Q-174.6 -68.05 -177.5 -65.3 -184.8 -58.3 -191.75 -53.95 -202.7 -47.1 -216.6 -44.45 L-213.3 -43.15 Q-204.85 -39.5 -192.0 -31.5 -176.7 -22.05 -172.6 -19.9 -162.5 -14.65 -155.65 -14.65 L-155.45 -14.65 -154.85 -14.15 -153.95 -13.4 -151.85 -13.15 Q-149.35 -13.05 -146.8 -13.25 L-146.1 -13.4 Q-143.55 -14.6 -141.45 -16.35 -138.95 -18.45 -136.6 -20.8 L-135.2 -22.2 Q-134.05 -22.9 -133.0 -23.75 L-130.8 -25.7 -129.4 -27.05 -128.75 -27.75 -128.45 -28.45 -128.1 -29.2 -127.75 -29.8 -127.4 -30.55 -127.1 -31.25 -126.45 -31.95 -125.95 -32.6 -125.55 -33.35 -125.25 -34.0 -124.6 -34.75 -124.1 -35.4 -123.7 -36.1 -123.4 -36.8 -122.7 -37.5 -122.0 -38.2 -121.3 -38.85 -120.65 -40.25 -117.9 -45.85 Q-116.8 -47.85 -115.95 -49.95 L-115.3 -51.35 -114.6 -52.05 -113.9 -52.75 -113.65 -53.45 -113.25 -54.15 -112.95 -54.8 -112.55 -55.55 -112.3 -56.25 -111.65 -56.95 -111.15 -57.6 -110.7 -58.35 -110.45 -59.0 -110.25 -59.7 -110.2 -60.4 -109.8 -61.1 -109.45 -61.75 -109.1 -62.5 -108.75 -63.15 -108.35 -63.85 -107.65 -64.55 -107.25 -65.3 -106.9 -65.95 -106.5 -66.65 -105.8 -67.35 -105.4 -68.05 -105.05 -68.7 -104.65 -69.45 -101.25 -72.95 Q-96.6 -77.9 -91.4 -82.15 -89.15 -84.0 -87.05 -86.1 L-82.9 -87.7 -80.15 -88.7 -78.75 -89.35 -75.95 -89.8 -74.55 -90.05 -73.85 -90.25 Q-69.2 -92.8 -64.05 -94.05 L-59.05 -93.75 -58.1 -93.3 -58.15 -93.3 -59.3 -92.6 -60.9 -91.9 -61.6 -91.2 -62.25 -90.45 -62.75 -89.8 Q-63.1 -88.8 -63.05 -87.7 L-62.9 -86.35 -62.75 -85.65 -62.7 -85.45 -63.0 -85.15 -63.0 -85.1 -66.95 -83.95 Q-83.4 -79.35 -89.75 -72.5 -102.4 -58.6 -108.55 -49.55 L-113.65 -39.7 Q-118.2 -30.75 -122.65 -24.65 -136.95 -4.9 -155.55 -4.9 L-157.1 -4.9 -157.45 -5.05 -159.5 -5.75 -160.0 -6.2 -161.15 -6.85 -163.2 -7.6 -166.2 -9.75 Q-167.95 -10.95 -169.9 -11.85 L-174.1 -13.85 -174.85 -14.5 -175.95 -15.25 -177.8 -15.8 Q-178.25 -15.95 -178.7 -16.2 L-181.5 -17.6 Q-183.0 -19.4 -185.2 -20.4 L-187.2 -21.3 -187.3 -21.5 -187.55 -22.2 -187.95 -22.95 -188.25 -23.55 -188.65 -24.3 -188.9 -25.0 -189.65 -25.6 -190.75 -26.35 -192.55 -26.95 -193.1 -27.3 Q-194.85 -29.1 -197.3 -29.95 -203.15 -32.05 -208.75 -34.6 -213.65 -36.8 -218.75 -38.2 L-220.45 -39.15 Q-226.35 -41.8 -232.5 -43.75 -238.65 -45.75 -244.2 -48.9 -243.75 -51.2 -242.75 -53.25 L-241.9 -53.1 -240.75 -51.85 -240.05 -51.15 -239.15 -50.45 Q-225.4 -48.0 -211.6 -50.2 -209.1 -51.7 -206.85 -53.55 -205.7 -54.5 -204.65 -55.55 L-200.55 -57.7 -198.4 -59.0 -196.35 -59.8 -195.2 -60.45 -194.45 -61.1 -194.25 -61.65 Q-188.35 -64.95 -183.4 -69.35 -177.5 -74.6 -173.25 -81.3 L-169.55 -87.55 Q-151.65 -106.7 -129.55 -116.05 -109.5 -124.45 -91.05 -122.95 -67.9 -124.5 -48.65 -115.9 -41.55 -112.7 -36.9 -108.95 -32.75 -105.65 -32.75 -103.85 -32.75 -102.1 -34.15 -100.75 L-34.2 -100.7 -35.2 -101.35 -37.05 -101.65 -41.7 -101.85 -41.7 -101.7 -43.0 -101.6 -46.2 -103.35 -46.3 -103.7 -47.0 -104.4 -47.75 -105.05 -48.65 -105.7 -50.0 -106.45 -50.75 -107.1 -51.9 -107.85 -53.25 -108.55 -54.65 -109.25 -55.4 -109.9 -56.5 -110.65 -60.2 -111.55 -72.1 -114.2 -84.3 -115.7 Q-97.05 -116.3 -110.2 -113.95 L-131.05 -109.95 Q-135.4 -108.5 -138.5 -105.15 L-139.15 -105.1 Q-142.8 -102.95 -145.95 -100.1 L-151.65 -94.65 -153.05 -94.0 Q-154.9 -93.25 -156.25 -91.9 L-156.95 -91.2 -157.25 -90.5 -157.85 -89.1 -158.15 -88.45 -158.6 -87.7 -159.3 -87.0 -159.95 -86.35 -160.65 -85.65 -160.95 -84.95 -161.55 -83.55 -161.85 -82.9 -162.3 -82.15 -162.95 -81.45" fill="#000000" fill-rule="evenodd" stroke="none"/>
  </g>
</svg>
