<?xml version="1.0" encoding="UTF-8" standalone="no"?>
<svg xmlns:ffdec="https://www.free-decompiler.com/flash" xmlns:xlink="http://www.w3.org/1999/xlink" ffdec:objectType="shape" height="138.5px" width="358.7px" xmlns="http://www.w3.org/2000/svg">
  <g transform="matrix(1.0, 0.0, 0.0, 1.0, 257.65, 119.05)">
    <path d="M-207.8 -113.2 L-203.65 -112.15 -198.0 -113.35 Q-183.5 -115.6 -165.9 -112.5 -159.4 -111.15 -149.8 -107.95 -137.95 -104.05 -133.05 -102.75 -118.75 -98.9 -100.3 -97.45 L-97.4 -97.25 -77.05 -96.6 -75.3 -98.75 Q-73.45 -100.9 -71.25 -101.0 L-65.8 -100.35 -61.75 -99.55 Q-60.75 -99.55 -56.8 -101.35 -52.85 -103.15 -51.3 -103.15 -44.8 -103.15 -40.05 -95.1 -38.55 -92.5 -37.4 -89.45 L-36.55 -86.75 Q-36.55 -82.4 -40.95 -79.65 -45.25 -76.9 -51.75 -76.9 L-56.2 -74.2 Q-60.15 -71.55 -63.4 -71.55 -65.35 -71.55 -73.15 -76.15 L-76.6 -78.25 Q-87.05 -69.2 -100.25 -59.3 L-103.7 -56.75 Q-108.1 -50.75 -112.9 -44.95 -127.75 -27.1 -134.3 -25.4 -140.05 -21.55 -145.8 -21.55 -159.5 -21.55 -182.95 -40.35 -191.1 -46.9 -198.0 -53.75 -204.1 -59.85 -204.1 -60.85 L-204.05 -62.0 -205.0 -62.3 Q-208.25 -63.25 -210.2 -63.25 -213.85 -63.25 -215.9 -64.75 -217.25 -65.75 -218.8 -68.3 -220.5 -71.2 -221.75 -72.4 -224.0 -74.6 -227.75 -75.6 L-242.45 -79.15 Q-245.8 -80.15 -245.8 -83.3 -245.8 -87.45 -242.45 -92.7 -239.15 -97.8 -233.65 -102.45 -220.9 -113.2 -207.8 -113.2" fill="#00b3ff" fill-rule="evenodd" stroke="none"/>
    <path d="M51.8 -68.25 Q50.65 -61.0 44.4 -61.0 39.3 -61.0 37.6 -66.3 L37.05 -63.95 Q35.45 -60.05 30.0 -60.05 22.3 -60.05 15.85 -74.9 12.65 -82.35 11.0 -89.85 11.0 -96.55 15.2 -97.7 19.0 -98.7 24.45 -95.05 29.9 -91.35 33.65 -85.15 36.0 -81.3 37.05 -77.35 37.15 -84.95 39.35 -89.3 41.4 -93.4 44.4 -93.25 47.4 -93.05 49.45 -88.85 51.75 -84.2 51.75 -76.55 52.4 -71.95 51.8 -68.25 M72.0 -61.7 Q75.3 -63.6 80.0 -63.1 84.7 -62.65 87.95 -59.95 91.55 -57.0 91.55 -52.45 91.55 -50.55 90.0 -48.3 87.85 -45.2 84.15 -45.2 75.9 -45.2 71.5 -49.5 68.4 -52.55 68.4 -55.45 68.4 -59.55 72.0 -61.7 M-209.0 -111.25 Q-206.55 -114.7 -201.95 -115.0 -197.85 -115.2 -193.1 -113.0 -188.65 -110.9 -185.6 -107.6 -182.4 -104.2 -182.4 -101.25 -182.4 -97.9 -184.15 -96.15 -185.25 -95.05 -188.0 -94.05 -190.9 -93.05 -191.9 -92.2 -193.65 -90.7 -193.65 -87.75 -193.65 -86.85 -190.3 -82.7 -187.0 -78.55 -187.0 -75.6 -187.0 -71.3 -189.7 -65.9 -193.15 -59.1 -198.15 -59.1 -209.5 -59.1 -214.1 -64.7 -216.6 -67.7 -216.6 -71.35 -216.6 -72.9 -215.85 -74.3 L-214.3 -76.55 Q-216.35 -78.25 -221.2 -91.55 -221.2 -93.2 -215.75 -101.4 L-209.0 -111.25 M-137.2 -102.8 Q-134.45 -103.9 -130.95 -103.75 -125.3 -103.5 -121.1 -100.1 -116.6 -96.5 -116.6 -91.3 -121.7 -71.25 -121.7 -68.4 -121.7 -64.45 -115.45 -57.65 -109.25 -50.8 -109.25 -46.15 -109.25 -43.1 -110.8 -40.85 -112.85 -37.85 -117.05 -37.85 -133.65 -37.85 -140.9 -46.15 -145.55 -51.5 -145.55 -58.4 -145.55 -60.1 -147.75 -64.25 -149.95 -68.4 -149.95 -70.15 L-147.65 -78.0 Q-146.15 -82.7 -145.6 -85.9 -150.0 -88.15 -152.65 -93.15 -155.05 -97.7 -155.4 -102.2 -155.4 -109.5 -151.35 -110.3 -148.0 -111.0 -142.45 -107.15 -139.7 -105.25 -137.2 -102.8 M-95.6 -9.05 Q-94.95 -10.8 -93.65 -11.95 L-99.35 -17.65 Q-99.95 -18.4 -99.95 -20.4 -99.95 -25.8 -96.3 -27.65 -92.95 -29.35 -88.25 -27.55 -83.45 -25.7 -80.2 -21.35 -76.55 -16.5 -76.55 -10.45 -76.55 -9.55 -73.9 -6.65 -71.25 -3.75 -71.25 -2.45 -71.25 0.15 -73.4 2.25 -75.8 4.6 -79.55 4.6 -86.5 4.6 -91.75 0.2 -96.15 -3.45 -96.15 -6.25 -96.15 -7.65 -95.6 -9.05 M-27.75 -89.15 Q-27.75 -85.25 -32.5 -74.2 L-34.25 -70.4 Q-33.15 -68.1 -31.0 -64.95 -26.2 -57.85 -25.85 -55.45 L-23.65 -56.0 -20.75 -56.4 Q-6.2 -56.4 -1.8 -43.25 0.0 -37.85 0.0 -25.15 0.0 -22.2 -2.0 -19.05 -4.75 -14.7 -9.6 -14.7 -15.5 -14.7 -21.45 -18.95 -25.85 -10.05 -29.55 -10.05 -33.8 -10.05 -35.85 -13.5 -37.05 -15.6 -37.05 -17.45 -37.05 -18.7 -35.15 -23.65 -33.25 -28.65 -33.25 -29.55 -33.25 -30.35 -35.15 -31.15 -36.5 -32.3 -36.85 -35.15 -42.0 -35.25 -46.6 -38.7 -53.85 -39.75 -56.8 -41.75 -60.05 -43.9 -60.05 -49.5 -60.05 -51.65 -58.3 -54.7 -59.9 -58.1 -61.15 -61.75 -62.9 -67.0 -62.9 -69.35 -62.9 -73.3 -58.25 -78.85 -53.8 -84.15 -48.05 -87.45 -44.7 -89.35 -42.0 -89.9 L-38.35 -93.9 Q-34.05 -97.75 -31.05 -96.85 -27.75 -95.85 -27.75 -89.15" fill="#8adcff" fill-rule="evenodd" stroke="none"/>
    <path d="M33.75 -86.8 Q32.75 -88.9 31.15 -90.0 -4.8 -114.8 -46.95 -92.85 -62.6 -90.05 -73.25 -76.0 -98.8 -42.2 -97.95 -1.05 L-94.0 -0.2 -94.15 0.85 Q-84.6 -2.15 -74.7 -4.15 -42.65 -10.3 -11.3 -19.3 39.45 -34.05 33.75 -86.8 M40.5 -92.35 Q46.7 -89.9 51.45 -95.7 57.1 -102.65 63.1 -96.55 77.2 -82.35 88.1 -65.3 L96.95 -56.0 100.8 -55.75 Q102.6 -44.2 91.9 -39.1 77.65 -32.35 62.45 -36.3 49.3 -39.6 42.35 -50.95 L41.65 -48.6 37.7 -48.6 Q25.2 -23.55 -1.5 -12.75 -26.8 -2.6 -54.3 -0.3 -84.25 1.75 -108.35 19.45 -110.15 18.7 -110.1 16.95 -109.4 -2.6 -105.65 -22.6 -97.3 -67.45 -57.55 -93.45 -16.4 -120.35 28.05 -102.75 L38.15 -92.6 40.5 -92.35 M62.4 -88.1 L55.95 -92.0 43.35 -81.65 Q43.9 -70.3 48.05 -60.15 57.35 -37.45 80.75 -43.95 L88.55 -51.4 Q87.6 -51.8 86.85 -52.4 69.15 -66.05 62.4 -88.1" fill="#000000" fill-rule="evenodd" stroke="none"/>
    <path d="M-206.55 -116.8 L-206.5 -116.8 -204.65 -117.0 -200.0 -117.6 -198.65 -117.8 -197.7 -118.25 -196.3 -118.95 -163.9 -117.75 -151.7 -116.5 -151.65 -116.2 -151.4 -115.5 -150.9 -114.85 -150.25 -114.15 -149.35 -113.4 -147.3 -112.85 -140.6 -110.65 -138.2 -109.5 -138.05 -109.4 -137.3 -108.8 -136.5 -108.6 -135.2 -108.25 -135.0 -108.2 Q-132.55 -106.8 -129.9 -106.0 -123.55 -104.1 -117.05 -103.25 -105.95 -101.85 -94.95 -103.4 L-86.2 -101.5 Q-76.95 -100.05 -68.3 -102.3 L-67.6 -102.75 -66.25 -103.45 -64.85 -104.15 -61.0 -104.35 -42.25 -103.4 -42.5 -102.8 Q-43.55 -101.0 -47.35 -99.8 -57.5 -96.6 -90.7 -96.6 -115.0 -96.6 -128.7 -99.1 -138.3 -100.9 -145.45 -104.65 -154.45 -109.4 -156.95 -110.25 -164.85 -112.75 -179.2 -112.75 -213.65 -112.75 -235.3 -93.55 -241.1 -88.5 -247.35 -80.4 L-247.8 -79.8 -244.25 -79.7 -237.95 -78.65 -237.75 -78.45 -237.05 -77.75 -236.35 -77.1 -235.45 -76.35 -231.8 -75.25 -226.0 -73.3 Q-221.0 -71.9 -217.4 -68.25 L-214.6 -66.9 -211.85 -65.5 Q-209.95 -64.1 -208.05 -62.8 -205.35 -60.9 -203.0 -58.55 L-198.85 -54.4 -197.55 -53.6 -197.0 -53.0 -195.95 -51.7 -194.25 -50.2 -192.6 -48.85 -192.35 -48.15 -191.9 -47.45 -188.4 -44.0 -184.4 -39.7 Q-181.8 -36.8 -178.5 -34.95 L-177.8 -34.25 -177.1 -33.6 -176.15 -32.9 -174.8 -32.15 -174.05 -31.5 -172.95 -30.75 -171.8 -30.0 -171.1 -29.4 -166.5 -26.5 Q-162.7 -23.95 -158.5 -24.1 -150.65 -21.3 -141.45 -23.6 L-140.95 -24.05 Q-136.95 -27.2 -132.5 -29.7 -126.25 -33.2 -121.55 -38.65 L-121.15 -39.35 -120.8 -40.0 -120.5 -40.55 -109.9 -51.75 -109.3 -52.3 Q-106.4 -54.7 -103.75 -57.4 L-103.45 -58.05 -102.5 -59.45 -101.85 -60.15 -101.2 -60.85 -100.75 -61.6 -100.7 -61.7 -98.8 -63.7 -93.75 -66.6 Q-86.1 -70.65 -78.95 -75.7 L-75.0 -76.75 -73.65 -77.05 -72.75 -77.55 -71.8 -78.25 -71.35 -78.85 -67.45 -77.8 -67.6 -77.75 -68.3 -77.05 -69.0 -76.35 -69.25 -75.7 -69.45 -75.0 -70.15 -74.3 -70.8 -73.55 -71.1 -72.9 -71.25 -71.5 -71.3 -70.1 -71.25 -69.45 -71.2 -69.3 -73.75 -69.5 Q-80.2 -69.5 -88.9 -61.0 -91.45 -58.5 -105.45 -42.25 -116.45 -29.5 -124.5 -23.5 -135.95 -15.0 -147.1 -15.0 -165.7 -15.0 -182.85 -28.7 -188.5 -33.2 -194.1 -39.3 L-200.45 -46.6 Q-203.35 -49.7 -208.35 -53.85 -213.8 -58.4 -219.7 -62.5 -234.5 -72.8 -246.35 -73.65 -249.1 -73.85 -252.3 -73.7 -253.45 -73.75 -253.85 -74.4 -256.45 -74.65 -257.35 -76.55 L-257.65 -77.5 -257.65 -77.55 -257.25 -78.25 -256.9 -78.9 -256.5 -79.6 -255.8 -80.3 -252.35 -83.8 -250.25 -85.85 -249.85 -86.6 -249.5 -87.25 -249.1 -87.95 Q-246.75 -89.5 -244.75 -91.45 L-242.6 -93.5 -242.35 -94.2 -241.65 -95.55 -241.25 -96.3 -241.0 -96.95 Q-235.25 -102.7 -228.0 -106.1 -217.1 -111.2 -206.55 -116.8" fill="#000000" fill-rule="evenodd" stroke="none"/>
  </g>
</svg>
