<?xml version="1.0" encoding="UTF-8" standalone="no"?>
<svg xmlns:ffdec="https://www.free-decompiler.com/flash" xmlns:xlink="http://www.w3.org/1999/xlink" ffdec:objectType="shape" height="141.45px" width="370.5px" xmlns="http://www.w3.org/2000/svg">
  <g transform="matrix(1.0, 0.0, 0.0, 1.0, 269.45, 122.0)">
    <path d="M-213.95 -113.4 L-212.65 -113.0 Q-210.2 -114.15 -206.3 -114.2 -197.2 -114.3 -183.35 -108.85 -170.15 -103.65 -160.45 -96.6 -155.65 -93.15 -153.05 -90.15 -146.95 -87.35 -140.05 -85.1 L-139.15 -84.8 -137.5 -84.3 -123.6 -80.45 -119.7 -79.25 -118.65 -79.7 Q-102.2 -85.2 -95.15 -88.1 -83.15 -93.2 -71.75 -89.6 -70.3 -91.4 -67.4 -91.9 -64.95 -92.35 -61.9 -91.9 L-60.9 -92.2 Q-56.7 -93.05 -50.05 -90.0 -44.0 -87.15 -39.25 -82.7 -34.35 -78.1 -34.35 -74.95 -34.35 -72.8 -35.45 -70.8 -36.35 -69.15 -37.8 -68.3 L-38.05 -68.0 Q-40.2 -65.45 -43.6 -65.45 -47.25 -65.45 -51.85 -69.6 L-52.95 -68.0 Q-55.05 -65.45 -58.35 -65.45 -60.45 -65.45 -66.25 -70.05 -72.05 -74.7 -75.9 -74.7 -92.8 -74.7 -106.25 -68.3 L-109.75 -63.35 Q-113.55 -58.3 -118.1 -53.25 L-120.25 -48.85 Q-124.25 -41.35 -129.95 -34.5 -145.85 -15.45 -163.1 -15.45 -182.55 -15.45 -197.8 -38.85 -203.8 -48.05 -207.4 -57.75 -211.55 -64.3 -215.05 -71.4 -233.4 -94.15 -233.4 -93.8 -233.4 -96.15 -233.05 -97.85 L-235.1 -97.55 Q-237.2 -97.05 -241.0 -94.3 -243.8 -92.3 -246.1 -93.05 -249.3 -94.1 -254.85 -100.6 -255.95 -101.7 -256.7 -103.25 -257.5 -104.95 -257.5 -106.3 -257.5 -111.0 -248.5 -112.45 L-236.55 -112.8 Q-234.65 -114.55 -231.15 -115.15 -224.55 -116.35 -213.95 -113.4" fill="#00b3ff" fill-rule="evenodd" stroke="none"/>
    <path d="M11.35 -99.65 Q14.45 -96.1 14.45 -90.45 14.45 -89.55 16.25 -88.15 18.1 -86.7 18.4 -84.15 18.45 -83.1 18.0 -81.3 17.55 -79.4 17.55 -78.25 17.55 -75.25 24.95 -60.4 L32.3 -45.95 Q32.3 -43.4 29.55 -40.45 26.3 -37.05 22.05 -37.05 16.5 -37.05 10.0 -47.25 3.9 -56.75 3.9 -62.7 -1.15 -62.6 -3.25 -65.85 -4.6 -67.85 -4.6 -70.85 -4.6 -72.5 -3.75 -73.8 L-0.95 -78.1 Q-4.3 -80.65 -5.0 -82.0 -5.45 -82.8 -5.45 -85.1 -5.45 -86.3 -4.3 -87.9 -3.2 -89.55 -3.2 -90.7 -3.2 -91.9 -4.3 -93.5 -5.45 -95.1 -5.45 -96.3 -5.45 -100.2 -2.35 -102.25 0.55 -104.15 4.5 -103.5 8.65 -102.8 11.35 -99.65 M-206.15 -99.05 L-215.4 -98.55 Q-217.25 -98.55 -218.25 -97.15 L-219.6 -94.15 Q-221.4 -89.75 -226.3 -89.75 -233.0 -89.75 -237.05 -95.65 -239.05 -98.65 -239.75 -101.85 -239.75 -104.0 -234.1 -107.95 -228.25 -112.05 -221.7 -114.2 -213.95 -116.75 -209.3 -114.95 -203.65 -112.8 -203.65 -104.6 -203.65 -99.95 -206.15 -99.05 M-164.25 -94.45 Q-160.4 -93.85 -157.1 -92.35 -154.9 -92.45 -152.25 -91.5 -147.55 -89.85 -144.3 -85.9 L-144.0 -85.55 Q-141.55 -86.05 -139.6 -85.55 -135.1 -84.35 -135.1 -77.75 L-136.05 -66.95 Q-136.05 -65.8 -137.15 -64.0 -138.3 -62.2 -138.3 -61.0 L-135.25 -52.1 Q-132.25 -43.05 -132.25 -41.3 -132.25 -36.35 -136.8 -29.75 -142.65 -21.25 -151.4 -21.25 L-157.25 -21.75 Q-159.6 -20.3 -162.45 -20.3 -168.65 -20.3 -171.45 -25.15 -173.1 -27.95 -173.1 -30.4 -173.1 -32.8 -171.8 -34.05 L-168.75 -35.75 Q-164.15 -37.85 -163.4 -42.95 L-163.25 -43.85 Q-165.55 -42.5 -168.95 -42.5 -175.45 -42.5 -177.55 -45.95 -178.6 -47.65 -178.6 -51.3 -178.6 -54.35 -176.75 -57.1 -174.9 -59.85 -174.9 -62.3 -174.9 -67.35 -177.7 -73.6 -180.5 -79.9 -180.5 -81.8 -180.5 -89.45 -175.45 -92.7 -171.05 -95.5 -164.25 -94.45 M-99.95 -4.5 Q-99.95 -7.8 -97.35 -9.95 -94.95 -11.9 -91.55 -12.0 -88.15 -12.1 -85.8 -10.25 -83.2 -8.2 -83.2 -4.35 -83.2 -1.75 -85.3 0.3 -87.75 2.7 -91.65 2.7 -96.65 2.7 -98.8 -0.65 -99.95 -2.5 -99.95 -4.5 M-78.6 -58.15 Q-78.6 -61.1 -74.0 -67.7 -69.25 -74.6 -63.95 -78.75 -57.75 -83.7 -54.1 -81.85 -49.65 -79.65 -49.95 -67.65 -47.35 -66.25 -39.9 -57.9 -32.3 -49.35 -32.3 -47.5 -32.3 -47.1 -35.85 -33.95 -35.85 -28.95 -29.9 -23.45 L-25.8 -19.4 Q-23.95 -17.0 -23.95 -14.6 -23.95 -12.05 -26.85 -8.9 -30.1 -5.45 -33.7 -5.45 -36.75 -5.45 -41.75 -8.2 -46.7 -11.0 -51.75 -11.0 -56.85 -11.0 -58.95 -16.6 -60.0 -19.4 -60.05 -22.2 -60.05 -25.0 -58.75 -26.95 -56.1 -31.05 -55.1 -33.25 -57.1 -35.45 -65.8 -38.65 -73.15 -41.35 -73.15 -43.9 -73.15 -47.55 -75.85 -51.65 -78.6 -55.75 -78.6 -58.15" fill="#8adcff" fill-rule="evenodd" stroke="none"/>
    <path d="M33.75 -86.8 Q32.75 -88.9 31.15 -90.0 -4.8 -114.8 -46.95 -92.85 -62.6 -90.05 -73.25 -76.0 -98.8 -42.2 -97.95 -1.05 L-94.0 -0.2 -94.15 0.85 Q-84.6 -2.15 -74.7 -4.15 -42.65 -10.3 -11.3 -19.3 39.45 -34.05 33.75 -86.8 M40.5 -92.35 Q46.7 -89.9 51.45 -95.7 57.1 -102.65 63.1 -96.55 77.2 -82.35 88.1 -65.3 L96.95 -56.0 100.8 -55.75 Q102.6 -44.2 91.9 -39.1 77.65 -32.35 62.45 -36.3 49.3 -39.6 42.35 -50.95 L41.65 -48.6 37.7 -48.6 Q25.2 -23.55 -1.5 -12.75 -26.8 -2.6 -54.3 -0.3 -84.25 1.75 -108.35 19.45 -110.15 18.7 -110.1 16.95 -109.4 -2.6 -105.65 -22.6 -97.3 -67.45 -57.55 -93.45 -16.4 -120.35 28.05 -102.75 L38.15 -92.6 40.5 -92.35 M62.4 -88.1 L55.95 -92.0 43.35 -81.65 Q43.9 -70.3 48.05 -60.15 57.35 -37.45 80.75 -43.95 L88.55 -51.4 Q87.6 -51.8 86.85 -52.4 69.15 -66.05 62.4 -88.1" fill="#000000" fill-rule="evenodd" stroke="none"/>
    <path d="M-241.45 -116.2 L-240.95 -116.65 -240.05 -117.35 Q-236.5 -118.6 -232.8 -119.05 L-212.8 -122.0 -202.15 -119.75 -195.85 -118.05 -195.35 -117.6 -194.2 -116.9 -192.85 -116.2 -191.45 -115.5 -190.7 -114.85 -189.6 -114.15 -188.2 -113.5 -186.15 -112.85 -185.9 -112.7 -185.4 -112.3 -183.1 -110.9 -180.35 -109.45 -177.55 -108.1 -176.9 -107.4 Q-175.65 -106.0 -173.9 -105.25 -172.45 -104.6 -171.05 -104.05 -169.35 -103.35 -167.55 -103.05 L-166.85 -102.95 -166.0 -102.3 -163.9 -101.85 -162.75 -101.6 -162.25 -101.2 -161.1 -100.45 Q-158.1 -97.3 -154.4 -95.1 L-149.9 -91.85 Q-147.75 -90.15 -145.15 -89.55 L-144.7 -89.15 -143.75 -88.4 Q-130.6 -85.35 -117.1 -84.7 L-116.9 -84.5 -116.0 -83.8 -113.9 -83.3 -112.05 -83.7 -107.45 -84.3 -106.05 -84.5 -105.35 -84.7 -104.65 -85.15 -103.3 -85.9 -102.35 -86.55 -100.95 -87.0 -99.1 -87.45 -96.3 -87.95 -94.95 -88.2 Q-94.45 -88.4 -94.0 -88.65 L-92.65 -89.35 -92.35 -89.5 Q-84.85 -90.75 -79.1 -93.1 L-70.35 -92.75 -61.35 -91.9 -60.45 -91.2 -58.35 -90.75 -57.7 -90.85 Q-62.7 -88.35 -74.15 -84.9 -95.8 -78.4 -111.65 -78.4 -127.8 -78.4 -142.8 -84.0 -151.85 -87.35 -167.7 -96.25 -183.65 -105.25 -192.5 -108.55 -207.3 -114.15 -223.15 -114.15 -242.55 -114.15 -253.5 -106.0 L-253.8 -105.75 -250.5 -104.7 -250.0 -104.5 -250.0 -104.4 -249.95 -103.7 -249.8 -103.0 -248.8 -101.65 -248.15 -100.9 -247.45 -100.25 -246.55 -99.5 Q-244.6 -98.85 -242.75 -97.85 -237.8 -95.2 -233.8 -91.2 L-228.05 -85.65 -227.1 -85.4 -225.95 -83.3 -225.25 -82.6 -224.55 -81.95 -223.85 -81.25 -223.15 -80.55 -222.95 -79.85 -222.7 -79.15 -222.0 -78.45 -220.6 -77.05 -219.3 -75.65 -218.75 -75.0 -218.3 -73.6 -217.3 -70.85 -216.45 -68.75 -215.75 -67.35 -215.75 -66.65 -215.75 -65.95 -215.55 -65.25 -215.3 -64.55 -215.05 -63.85 -214.85 -63.2 -214.85 -62.5 -214.8 -61.8 -214.6 -61.1 -214.2 -60.4 -213.95 -59.7 -213.85 -59.0 -213.7 -58.3 -213.2 -57.65 -212.5 -56.95 -211.8 -55.55 -211.4 -54.85 -210.65 -53.45 -210.2 -52.75 -209.5 -52.05 -209.1 -51.35 -208.75 -50.7 -208.35 -50.0 -207.65 -49.3 -207.25 -48.55 -206.9 -47.9 -206.5 -47.2 -205.8 -46.5 -205.1 -45.8 -204.7 -45.1 -204.35 -44.45 -203.95 -43.75 -201.9 -41.65 -199.8 -39.55 -197.45 -37.5 -196.6 -37.4 -196.35 -36.8 -196.05 -36.1 -195.6 -35.4 -194.95 -34.7 -194.25 -34.0 -193.0 -33.15 Q-174.85 -16.7 -149.8 -22.65 L-147.75 -23.9 -146.1 -25.25 -145.55 -25.7 Q-141.2 -28.0 -137.15 -32.35 -134.2 -35.5 -122.55 -52.2 -113.05 -65.8 -104.7 -72.05 -92.65 -81.1 -76.85 -81.1 -73.45 -81.1 -72.05 -78.65 L-71.3 -76.25 Q-71.3 -73.8 -72.95 -72.5 L-73.15 -72.65 -75.05 -72.95 -85.2 -73.15 -85.25 -73.0 -86.6 -72.85 -87.3 -72.65 Q-89.1 -71.65 -91.05 -71.05 L-100.2 -67.95 -100.95 -67.6 -101.65 -66.9 -104.4 -65.45 -105.6 -64.85 -107.2 -64.1 -110.1 -61.85 -111.6 -60.65 -112.3 -59.95 -113.35 -57.8 -114.8 -54.35 -115.3 -53.0 -115.55 -52.3 -116.4 -50.9 -116.75 -50.25 -117.1 -49.5 -117.4 -48.85 -117.55 -48.1 -117.6 -47.45 -118.05 -46.7 -118.3 -46.05 -118.55 -45.35 -118.55 -44.65 -118.6 -44.0 -118.75 -43.25 -119.75 -41.15 Q-120.2 -40.05 -120.8 -39.05 L-121.15 -38.45 -121.55 -37.7 -122.25 -37.0 -122.65 -36.3 -123.0 -35.65 -123.4 -34.95 -127.55 -30.75 Q-128.95 -29.4 -130.6 -28.4 -136.65 -24.8 -141.9 -20.15 L-144.45 -17.6 -144.6 -17.35 -144.95 -17.35 -146.1 -16.9 -148.4 -16.2 -153.7 -16.35 -156.25 -15.95 -156.95 -15.25 -157.65 -14.55 -158.1 -13.85 -158.2 -13.6 Q-186.4 -14.55 -202.45 -33.45 -207.8 -39.8 -211.95 -48.5 L-216.3 -58.1 -222.05 -69.3 Q-225.45 -76.05 -229.95 -81.0 -233.35 -84.8 -237.95 -87.8 L-238.0 -87.95 -238.7 -88.6 -239.85 -89.3 -241.2 -90.05 -242.6 -90.75 -243.35 -91.35 -244.45 -92.1 -246.25 -92.7 -246.8 -93.05 Q-248.5 -94.3 -250.5 -95.1 L-253.75 -96.1 -256.05 -96.5 -256.3 -96.7 -257.45 -97.2 -258.15 -97.85 -259.3 -98.6 -261.1 -99.15 Q-264.7 -100.5 -268.6 -101.1 L-269.3 -101.2 -269.45 -101.95 -269.25 -102.1 -268.55 -102.75 -265.8 -104.2 -264.65 -104.9 -263.9 -105.55 -260.6 -107.55 -259.55 -108.35 -258.6 -109.0 Q-255.35 -110.1 -252.35 -111.85 -247.2 -114.9 -241.45 -116.2 M-53.85 -94.2 Q-53.85 -93.7 -54.4 -93.05 L-54.2 -93.75 -53.95 -94.45 -53.85 -94.75 -53.85 -94.2" fill="#000000" fill-rule="evenodd" stroke="none"/>
  </g>
</svg>
