<?xml version="1.0" encoding="UTF-8" standalone="no"?>
<svg xmlns:ffdec="https://www.free-decompiler.com/flash" xmlns:xlink="http://www.w3.org/1999/xlink" ffdec:objectType="shape" height="137.0px" width="353.2px" xmlns="http://www.w3.org/2000/svg">
  <g transform="matrix(1.0, 0.0, 0.0, 1.0, 252.15, 117.55)">
    <path d="M-166.25 -103.8 L-160.0 -106.4 Q-149.65 -110.25 -138.15 -112.45 -126.8 -114.55 -118.55 -114.25 -109.4 -111.6 -99.9 -110.7 L-86.9 -110.0 Q-81.35 -109.65 -79.3 -108.25 -77.1 -106.65 -76.85 -102.5 L-74.95 -101.45 Q-72.75 -100.7 -71.25 -99.3 L-69.05 -98.5 Q-57.5 -94.05 -57.5 -87.4 -57.5 -84.6 -59.55 -82.55 -61.8 -80.3 -65.35 -80.3 -66.7 -80.3 -77.25 -83.75 L-78.35 -84.1 -79.7 -84.35 -81.45 -83.25 Q-96.9 -73.1 -106.8 -56.9 L-110.35 -51.2 Q-114.55 -45.0 -119.65 -39.85 -135.6 -23.75 -154.3 -23.75 -167.15 -23.75 -171.85 -30.6 -172.95 -32.15 -173.5 -33.95 L-173.65 -33.95 Q-176.2 -33.95 -180.65 -37.45 L-189.5 -45.05 Q-202.2 -56.2 -210.2 -56.2 -214.0 -56.2 -221.6 -62.5 -228.75 -68.4 -228.75 -69.95 -228.75 -74.45 -208.0 -83.7 -191.25 -91.2 -182.65 -92.45 -180.2 -95.85 -175.3 -99.05 -171.3 -104.1 -167.6 -104.25 L-166.25 -103.8" fill="#00b3ff" fill-rule="evenodd" stroke="none"/>
    <path d="M55.45 -70.5 Q59.5 -76.4 65.65 -79.45 71.55 -82.4 75.85 -81.1 80.5 -79.65 80.5 -73.85 80.45 -75.05 73.95 -56.15 73.95 -53.05 68.6 -48.1 63.6 -43.45 61.5 -43.45 53.35 -43.45 51.3 -49.3 50.25 -52.3 50.8 -55.8 50.8 -63.8 55.45 -70.5 M20.95 -62.2 Q26.8 -59.35 26.8 -54.25 26.8 -50.45 21.85 -45.2 18.7 -41.9 11.0 -35.7 17.35 -36.4 19.85 -33.0 21.25 -31.1 21.25 -28.1 21.25 -20.3 11.5 -20.3 -0.65 -20.3 -6.15 -24.45 -10.05 -27.4 -10.05 -31.8 -10.05 -34.85 -6.95 -39.8 L-1.75 -47.35 -1.3 -47.85 Q-7.25 -46.35 -17.5 -50.75 -22.65 -52.95 -26.8 -55.45 -31.8 -55.45 -33.5 -59.35 -34.35 -61.3 -34.2 -63.5 -34.2 -66.35 -31.8 -70.1 -28.45 -75.25 -27.75 -77.05 -32.1 -79.9 -37.0 -82.6 -39.75 -84.5 -39.75 -87.75 -39.75 -94.45 -34.65 -97.8 -28.7 -101.75 -15.3 -101.75 -1.45 -101.75 2.25 -99.75 4.5 -98.5 4.5 -94.15 4.5 -91.95 -3.0 -81.65 L-10.55 -71.6 Q-10.55 -68.95 -4.7 -67.6 L8.15 -65.55 Q16.8 -64.2 20.95 -62.2 M-165.65 -89.4 Q-165.65 -85.55 -172.7 -80.95 -179.75 -76.35 -179.75 -75.6 L-174.1 -59.8 Q-168.5 -44.05 -168.5 -41.2 -168.5 -38.2 -170.1 -36.15 -172.3 -33.25 -177.25 -33.25 -187.25 -33.25 -193.65 -37.65 -199.0 -41.35 -199.0 -45.35 -199.0 -46.7 -197.2 -52.3 -195.4 -58.0 -194.35 -59.85 -199.7 -62.2 -201.45 -64.3 -202.7 -65.8 -202.7 -68.5 -202.7 -70.35 -199.95 -76.0 -197.2 -81.65 -197.2 -84.05 -197.2 -87.3 -192.25 -91.2 -187.55 -94.95 -181.4 -96.85 -174.8 -98.95 -170.6 -97.45 -165.65 -95.75 -165.65 -89.4 M-123.1 -111.05 Q-117.7 -115.35 -114.25 -114.8 -110.9 -114.2 -110.3 -109.05 L-109.3 -108.3 -108.3 -107.3 Q-104.0 -109.25 -100.9 -109.25 -94.25 -109.25 -90.45 -102.95 -87.85 -98.6 -87.85 -95.35 -87.85 -92.65 -91.5 -85.7 -95.25 -78.6 -95.35 -76.55 -95.45 -75.1 -94.75 -71.35 -94.05 -67.45 -94.15 -65.6 -94.35 -59.1 -102.7 -59.1 L-103.9 -59.1 Q-104.7 -56.4 -107.6 -52.2 -112.4 -45.2 -118.0 -45.2 -122.7 -45.2 -126.1 -53.45 -127.8 -57.6 -128.6 -61.95 L-128.45 -66.45 Q-127.8 -69.85 -125.15 -71.0 -129.9 -73.75 -130.45 -77.2 -130.85 -79.8 -128.8 -83.2 -136.05 -84.95 -136.05 -90.6 -136.05 -94.9 -132.0 -101.1 -128.2 -106.95 -123.1 -111.05 M-81.7 -59.25 Q-77.55 -64.8 -72.15 -68.7 -66.35 -72.95 -62.65 -72.45 -58.3 -71.85 -58.3 -64.6 -58.3 -62.85 -61.95 -55.1 -65.65 -47.4 -65.65 -45.1 -65.65 -43.95 -64.75 -41.4 -63.85 -38.85 -63.85 -37.6 -57.4 -39.75 -55.1 -39.75 -47.8 -39.75 -40.75 -29.3 -38.5 -26.0 -36.65 -22.05 -35.15 -19.0 -35.15 -18.6 -35.15 -14.95 -39.35 -8.55 -44.4 -0.8 -50.45 -0.8 -55.1 -0.8 -56.85 -2.6 -57.8 -3.6 -58.55 -6.85 -59.3 -10.15 -60.8 -11.85 -63.25 -14.6 -68.95 -15.9 -71.9 -16.55 -74.65 -19.65 -77.25 -22.6 -80.5 -23.0 -87.85 -24.1 -87.85 -31.1 -87.85 -32.4 -85.75 -38.55 L-83.7 -44.65 Q-83.7 -45.8 -84.85 -47.25 -86.05 -48.65 -86.05 -49.85 -86.05 -53.45 -81.7 -59.25 M-98.45 -7.6 Q-96.2 -9.4 -93.0 -9.05 -89.8 -8.75 -87.55 -6.6 -85.1 -4.2 -85.1 -0.55 -85.1 1.7 -86.35 3.85 -88.3 7.35 -92.5 7.35 -97.2 7.35 -99.55 2.45 -100.7 0.05 -100.9 -1.9 -100.9 -5.65 -98.45 -7.6" fill="#8adcff" fill-rule="evenodd" stroke="none"/>
    <path d="M33.75 -86.8 Q32.75 -88.9 31.15 -90.0 -4.8 -114.8 -46.95 -92.85 -62.6 -90.05 -73.25 -76.0 -98.8 -42.2 -97.95 -1.05 L-94.0 -0.2 -94.15 0.85 Q-84.6 -2.15 -74.7 -4.15 -42.65 -10.3 -11.3 -19.3 39.45 -34.05 33.75 -86.8 M40.5 -92.35 Q46.7 -89.9 51.45 -95.7 57.1 -102.65 63.1 -96.55 77.2 -82.35 88.1 -65.3 L96.95 -56.0 100.8 -55.75 Q102.6 -44.2 91.9 -39.1 77.65 -32.35 62.45 -36.3 49.3 -39.6 42.35 -50.95 L41.65 -48.6 37.7 -48.6 Q25.2 -23.55 -1.5 -12.75 -26.8 -2.6 -54.3 -0.3 -84.25 1.75 -108.35 19.45 -110.15 18.7 -110.1 16.95 -109.4 -2.6 -105.65 -22.6 -97.3 -67.45 -57.55 -93.45 -16.4 -120.35 28.05 -102.75 L38.15 -92.6 40.5 -92.35 M62.4 -88.1 L55.95 -92.0 43.35 -81.65 Q43.9 -70.3 48.05 -60.15 57.35 -37.45 80.75 -43.95 L88.55 -51.4 Q87.6 -51.8 86.85 -52.4 69.15 -66.05 62.4 -88.1" fill="#000000" fill-rule="evenodd" stroke="none"/>
    <path d="M-200.55 -51.3 L-199.8 -50.7 -197.05 -49.25 -195.9 -48.55 -195.15 -47.9 -192.85 -46.5 -191.9 -45.85 -190.55 -45.1 -189.85 -44.45 -189.15 -43.75 -188.45 -43.05 -187.75 -42.35 -185.45 -40.9 -184.5 -40.3 -183.1 -39.55 Q-181.6 -37.75 -179.45 -36.75 -177.65 -36.0 -176.2 -34.7 L-174.15 -34.1 -173.65 -33.8 -172.95 -33.1 -170.15 -31.7 -167.4 -30.3 Q-163.0 -26.95 -157.65 -27.1 L-156.75 -26.35 Q-153.85 -25.35 -150.9 -26.25 L-147.7 -27.05 -144.35 -28.5 -140.05 -30.15 Q-134.1 -32.55 -129.65 -37.0 -127.9 -37.7 -126.55 -39.0 L-125.6 -40.0 Q-122.0 -42.8 -118.65 -46.4 L-117.95 -47.15 -116.8 -48.0 -113.0 -50.9 Q-112.6 -52.05 -111.8 -52.95 L-106.15 -58.4 Q-104.1 -60.25 -103.05 -62.7 L-102.35 -63.4 -101.65 -64.1 -100.95 -64.8 -100.65 -65.45 Q-99.8 -67.05 -98.45 -68.3 L-97.0 -69.65 -96.3 -70.35 -96.0 -71.0 Q-93.5 -74.75 -89.65 -77.05 -80.65 -82.45 -71.3 -87.0 L-71.05 -87.7 -70.6 -88.4 -70.45 -89.1 -70.4 -89.8 -70.4 -90.4 Q-67.95 -91.35 -66.0 -91.5 L-67.55 -92.8 Q-72.65 -97.05 -78.1 -99.95 -97.6 -110.35 -130.2 -110.35 -143.75 -110.35 -160.95 -103.35 -170.95 -99.25 -192.05 -87.9 -208.7 -79.0 -218.95 -74.45 L-220.4 -75.0 -220.4 -74.85 -221.8 -74.75 -222.95 -74.3 -223.65 -73.6 -224.3 -72.85 -224.8 -72.2 -224.85 -71.95 -227.3 -71.05 -225.0 -70.2 -225.0 -70.1 -225.0 -69.45 -224.95 -68.75 -224.8 -68.05 -224.55 -67.35 -224.05 -66.7 -223.4 -66.0 -222.45 -65.25 -220.4 -64.8 -210.2 -59.8 -210.2 -59.7 -210.15 -59.0 -209.95 -58.3 -209.5 -57.65 -208.8 -56.95 -208.1 -56.25 -205.85 -54.8 -204.85 -54.2 -203.5 -53.45 -202.75 -52.8 -201.65 -52.05 -200.55 -51.3 M-179.05 -100.4 Q-176.05 -101.3 -173.05 -102.35 -164.25 -105.4 -156.75 -110.85 L-154.7 -111.65 Q-154.05 -111.9 -153.55 -112.3 L-152.8 -112.95 Q-149.4 -114.15 -146.1 -115.6 L-107.8 -117.55 -104.6 -116.95 -97.7 -115.5 -97.0 -115.05 Q-96.3 -114.7 -95.6 -114.45 L-93.55 -113.9 -92.15 -113.65 -91.45 -113.2 -90.05 -112.6 -88.0 -112.0 -86.35 -111.6 -84.3 -111.1 -83.85 -110.85 -83.1 -110.45 -81.7 -109.8 -79.65 -109.25 -79.2 -109.0 -77.1 -107.9 -74.1 -106.4 -72.95 -105.8 Q-72.25 -105.4 -71.55 -105.1 L-70.15 -104.4 -69.45 -103.75 -68.3 -103.0 -66.9 -102.3 -65.55 -101.6 -64.85 -100.9 -64.1 -100.25 -63.2 -99.55 -61.85 -98.85 -61.15 -98.15 -60.45 -97.45 -59.75 -96.75 -59.05 -96.05 -58.55 -95.55 -58.35 -94.05 Q-58.35 -92.4 -59.75 -91.0 L-60.95 -90.05 Q-58.35 -87.65 -58.35 -81.35 -58.35 -79.5 -59.55 -78.15 -60.85 -76.6 -62.95 -76.6 -65.45 -76.6 -67.0 -78.8 L-68.55 -81.0 Q-75.5 -81.0 -85.0 -71.65 L-103.35 -51.0 Q-115.65 -37.15 -125.6 -30.4 -139.45 -21.05 -153.8 -21.05 -171.3 -21.05 -187.25 -31.85 -195.5 -37.5 -203.2 -45.35 -215.75 -54.9 -231.4 -62.5 L-241.25 -67.0 Q-246.9 -65.85 -252.15 -65.55 L-251.85 -67.55 -251.65 -68.8 -251.2 -69.2 Q-248.8 -69.75 -246.7 -70.9 L-239.85 -74.5 Q-234.45 -74.75 -229.2 -76.15 L-228.25 -76.55 -225.0 -77.7 -223.65 -78.0 Q-220.7 -78.65 -218.5 -80.5 L-216.7 -81.95 -214.85 -82.35 -213.45 -82.65 -212.75 -82.85 -212.25 -83.3 -211.35 -84.0 -207.4 -85.1 -206.05 -85.4 -205.15 -85.9 -204.2 -86.55 Q-197.8 -87.9 -192.2 -91.4 -185.45 -95.65 -179.05 -100.4" fill="#000000" fill-rule="evenodd" stroke="none"/>
  </g>
</svg>
