<?xml version="1.0" encoding="UTF-8" standalone="no"?>
<svg xmlns:ffdec="https://www.free-decompiler.com/flash" xmlns:xlink="http://www.w3.org/1999/xlink" ffdec:objectType="shape" height="83.2px" width="71.2px" xmlns="http://www.w3.org/2000/svg">
  <g transform="matrix(1.0, 0.0, 0.0, 1.0, 49.0, -81.5)">
    <path d="M9.05 85.6 L10.0 86.5 10.05 86.7 9.05 85.6 M13.9 94.1 L14.65 94.95 Q15.6 97.6 17.25 100.35 18.45 102.3 20.0 103.9 L21.4 111.6 Q21.4 113.9 19.9 116.4 L19.55 117.0 19.3 116.8 Q19.8 115.95 19.8 115.0 19.8 113.85 17.8 106.35 L15.3 97.6 13.9 94.1" fill="#990000" fill-rule="evenodd" stroke="none"/>
    <path d="M3.2 160.6 L2.2 160.7 Q-1.35 160.7 -2.7 152.4 -3.6 142.75 -4.2 140.0 -5.35 133.25 -6.3 129.5 L-8.5 124.7 Q-10.6 120.2 -10.6 119.45 L-10.55 119.1 Q-10.45 117.8 -9.35 116.85 -8.4 117.9 -6.6 117.9 L-4.8 117.75 -2.1 128.6 Q-0.65 133.6 0.55 136.5 L0.8 138.0 Q2.6 149.15 2.6 151.85 L2.2 153.65 1.8 155.45 2.3 158.75 3.2 160.6 M-44.0 129.65 L-44.7 129.6 Q-46.6 128.6 -46.6 126.45 -46.6 125.25 -43.95 123.3 -41.4 121.35 -38.2 120.1 -31.35 117.5 -30.05 120.9 -26.85 121.45 -24.15 122.75 -25.0 124.1 -25.0 126.1 L-24.85 127.55 -34.05 128.75 -34.2 128.75 -34.2 128.8 -35.8 129.0 Q-38.1 129.0 -38.95 128.45 -39.75 127.9 -40.8 127.9 -42.6 127.9 -43.9 129.5 L-44.0 129.65 M-22.55 116.95 L-23.4 115.5 -23.8 113.1 Q-23.8 111.45 -21.65 103.4 L-19.5 95.4 Q-19.4 86.6 -14.2 83.9 -12.15 82.85 -10.6 83.85 L-10.05 84.3 Q-12.05 85.2 -12.85 87.15 -13.7 89.15 -14.1 92.9 L-15.95 98.9 -17.4 104.45 -17.35 104.7 -17.7 106.1 -19.2 110.5 -19.4 111.15 Q-22.3 113.8 -22.55 116.95" fill="#00c3ff" fill-rule="evenodd" stroke="none"/>
    <path d="M4.6 86.4 Q5.1 85.25 6.35 84.8 7.7 84.35 9.05 85.6 L10.05 86.7 11.4 88.9 13.9 94.1 15.3 97.6 17.8 106.35 Q19.8 113.85 19.8 115.0 19.8 115.95 19.3 116.8 18.5 118.3 16.6 118.3 13.75 118.3 12.0 112.25 10.6 105.25 10.0 103.3 L6.8 95.45 Q4.2 89.35 4.2 88.3 4.2 87.15 4.6 86.4 M-1.0 99.9 Q0.55 100.8 0.6 105.85 L0.6 106.05 0.65 106.65 1.4 112.45 2.2 119.2 2.2 119.55 2.8 122.4 3.65 125.45 Q4.8 126.45 6.0 128.9 L6.85 133.4 7.6 137.9 8.75 146.9 Q9.4 152.25 9.4 155.75 L9.2 159.2 9.0 159.9 Q8.15 161.9 5.8 161.9 4.2 161.9 3.2 160.6 L2.3 158.75 1.8 155.45 2.2 153.65 2.6 151.85 Q2.6 149.15 0.8 138.0 L0.55 136.5 Q-0.65 133.6 -2.1 128.6 L-4.8 117.75 -6.6 117.9 Q-8.4 117.9 -9.35 116.85 L-9.7 116.4 Q-10.2 115.6 -10.2 114.75 L-8.05 111.05 Q-5.9 107.35 -5.8 105.3 -5.6 101.35 -4.0 101.0 L-2.6 99.9 Q-1.65 99.55 -1.0 99.9 M-12.5 119.15 Q-9.4 120.95 -9.4 125.5 -9.4 126.5 -10.0 127.4 L-10.2 127.6 -10.3 127.75 Q-11.55 130.25 -16.1 133.0 L-17.15 133.65 -18.0 134.1 Q-23.75 137.1 -29.6 137.1 -33.3 137.1 -34.3 135.45 L-34.3 135.4 -37.4 135.5 -39.2 135.45 Q-42.8 135.2 -44.2 134.0 -45.0 133.3 -45.0 131.9 -45.0 130.9 -44.0 129.65 L-43.9 129.5 Q-42.6 127.9 -40.8 127.9 -39.75 127.9 -38.95 128.45 -38.1 129.0 -35.8 129.0 L-34.2 128.8 -34.05 128.75 -24.85 127.55 -25.0 126.1 Q-25.0 124.1 -24.15 122.75 -23.55 121.8 -22.6 121.2 L-21.35 120.6 -22.3 119.45 -22.6 117.65 -22.55 116.95 Q-22.3 113.8 -19.4 111.15 L-19.2 110.5 -17.7 106.1 -17.35 104.7 -17.4 104.45 -15.95 98.9 -14.1 92.9 Q-13.7 89.15 -12.85 87.15 -12.05 85.2 -10.05 84.3 -8.9 83.75 -7.35 83.6 -5.6 81.3 -3.6 82.05 -1.4 82.85 -1.4 85.2 L-1.4 85.25 -1.8 86.6 -1.8 86.95 Q-1.8 88.45 -6.9 97.9 L-6.95 98.05 -8.7 103.55 Q-10.05 106.9 -11.6 108.05 L-12.35 110.2 Q-12.2 110.8 -12.2 111.6 -12.2 112.2 -13.3 114.0 L-13.55 116.4 Q-13.9 117.7 -14.45 118.5 L-13.2 118.8 -12.5 119.15 M-17.4 120.25 L-16.8 120.35 -16.65 119.85 -17.4 119.9 -17.6 119.9 -17.9 120.2 -17.4 120.25" fill="#009cdf" fill-rule="evenodd" stroke="none"/>
    <path d="M-1.4 85.25 Q0.05 83.4 1.9 83.6 4.35 83.85 4.6 86.4 4.2 87.15 4.2 88.3 4.2 89.35 6.8 95.45 L10.0 103.3 Q10.6 105.25 12.0 112.25 13.75 118.3 16.6 118.3 18.5 118.3 19.3 116.8 L19.55 117.0 Q17.3 120.2 13.05 120.3 L11.4 120.7 Q10.7 120.7 9.8 119.6 L8.7 118.5 8.45 117.5 Q6.65 114.35 4.2 108.1 L0.5 97.4 -0.8 99.55 -1.0 99.9 Q-1.65 99.55 -2.6 99.9 L-4.0 101.0 Q-5.6 101.35 -5.8 105.3 -5.9 107.35 -8.05 111.05 L-10.2 114.75 Q-10.2 115.6 -9.7 116.4 L-9.35 116.85 Q-10.45 117.8 -10.55 119.1 L-10.6 119.1 Q-11.5 119.1 -12.1 118.75 L-12.5 119.15 -13.2 118.8 -14.45 118.5 Q-13.9 117.7 -13.55 116.4 L-13.3 114.0 Q-12.2 112.2 -12.2 111.6 -12.2 110.8 -12.35 110.2 L-11.6 108.05 Q-10.05 106.9 -8.7 103.55 L-6.95 98.05 -6.9 97.9 Q-1.8 88.45 -1.8 86.95 L-1.8 86.6 -1.4 85.25 M0.65 106.65 Q2.15 106.0 3.9 108.3 5.95 112.5 6.3 114.3 L9.0 126.3 Q10.7 133.6 11.45 138.15 12.6 144.95 12.6 150.3 L12.6 155.4 Q12.0 159.8 9.0 159.9 L9.2 159.2 9.4 155.75 Q9.4 152.25 8.75 146.9 L7.6 137.9 6.85 133.4 6.0 128.9 Q4.8 126.45 3.65 125.45 L2.8 122.4 2.2 119.55 2.2 119.2 1.4 112.45 0.65 106.65 M-10.0 127.4 L-9.9 127.45 Q-8.2 128.4 -8.2 130.4 -8.2 132.35 -10.9 136.1 L-13.05 138.55 Q-13.2 139.45 -13.9 140.1 -14.95 141.1 -16.8 141.1 -22.1 141.1 -25.85 139.4 -28.75 139.05 -33.05 137.5 -36.9 137.5 -40.45 135.85 L-39.2 135.45 -37.4 135.5 -34.3 135.4 -34.3 135.45 Q-33.3 137.1 -29.6 137.1 -23.75 137.1 -18.0 134.1 L-17.9 134.2 Q-17.5 134.0 -17.15 133.65 L-16.1 133.0 Q-11.55 130.25 -10.3 127.75 L-10.2 127.6 -10.0 127.4" fill="#007bb0" fill-rule="evenodd" stroke="none"/>
    <path d="M11.3 85.7 L11.4 86.0 11.6 86.3 11.7 86.6 11.9 86.9 12.1 87.2 12.2 87.5 12.5 87.8 12.7 88.1 12.8 88.4 13.0 88.7 13.1 89.0 13.2 89.3 13.3 89.6 13.4 89.9 13.7 90.2 14.0 90.5 14.3 90.8 14.4 91.1 14.6 91.4 14.7 91.7 14.9 92.0 15.0 92.2 15.1 92.4 15.4 92.7 15.7 93.0 15.9 93.3 16.0 93.6 16.2 93.9 16.3 94.2 16.5 94.5 16.6 94.8 16.8 95.1 16.9 95.4 17.1 95.7 17.2 96.0 17.4 96.3 17.5 96.6 17.7 96.9 17.8 97.2 18.0 97.5 18.1 97.8 18.2 98.1 18.2 98.4 18.4 98.7 18.5 99.0 18.7 99.3 18.8 99.6 18.9 99.9 19.0 100.2 19.1 100.5 19.2 100.8 19.3 101.1 19.4 101.4 19.5 101.7 19.6 102.0 19.8 102.3 19.9 102.6 20.1 102.9 20.2 103.2 20.2 103.5 20.2 103.8 20.4 104.1 20.6 104.4 20.8 104.7 20.9 105.0 21.1 105.3 21.2 105.6 21.3 105.9 21.4 106.2 21.4 106.5 21.4 106.8 21.4 107.1 21.4 107.4 21.5 107.7 21.6 108.0 21.7 108.3 21.8 108.6 21.8 108.9 21.8 109.2 21.8 109.5 21.9 109.8 22.1 110.1 22.2 110.4 22.2 110.7 22.2 111.0 22.2 111.3 22.2 111.6 22.2 111.9 22.2 112.2 22.2 112.5 22.2 112.8 22.2 113.1 22.2 113.4 22.2 113.7 22.2 114.0 22.2 114.3 22.2 114.6 22.2 114.9 22.1 115.2 22.0 115.5 21.9 115.8 21.8 116.1 21.8 116.4 21.8 116.7 21.8 117.0 21.8 117.3 21.8 117.6 21.7 117.9 21.6 118.2 21.5 118.5 21.3 118.8 21.2 119.1 21.0 119.4 20.9 119.7 20.7 120.0 20.6 120.3 20.4 120.6 20.3 120.9 20.1 121.2 19.8 121.5 19.5 121.8 19.2 122.1 18.9 122.4 18.5 122.7 18.0 123.0 17.4 123.3 16.6 123.5 13.0 123.5 12.1 123.3 11.8 123.1 10.9 122.9 10.6 122.7 10.2 122.6 10.3 122.9 10.5 123.2 10.6 123.5 10.7 123.8 10.9 124.1 11.0 124.4 11.0 124.7 11.1 125.0 11.3 125.3 11.4 125.6 11.4 125.9 11.4 126.2 11.5 126.5 11.6 126.8 11.7 127.1 11.8 127.4 11.8 127.7 11.9 128.0 12.0 128.3 12.1 128.6 12.2 128.9 12.2 129.2 12.2 129.5 12.2 129.8 12.2 130.1 12.3 130.4 12.4 130.7 12.5 131.0 12.6 131.3 12.7 131.6 12.8 131.9 12.9 132.2 13.0 132.5 13.0 132.8 13.0 133.1 13.0 133.4 13.0 133.7 13.0 134.0 13.0 134.3 13.1 134.6 13.3 134.9 13.4 135.2 13.4 135.5 13.4 135.8 13.5 136.1 13.6 136.4 13.7 136.7 13.8 137.0 13.8 137.3 13.8 137.6 13.8 137.9 13.9 138.2 14.1 138.5 14.2 138.8 14.2 139.1 14.2 139.4 14.2 139.7 14.2 140.0 14.4 140.3 14.5 140.6 14.6 140.9 14.6 141.2 14.6 141.5 14.6 141.8 14.6 142.1 14.6 142.4 14.8 142.7 14.9 143.0 15.0 143.3 15.0 143.6 15.0 143.9 15.0 144.2 15.0 144.5 15.0 144.8 15.0 145.1 15.1 145.4 15.3 145.7 15.4 146.0 15.4 146.3 15.4 146.6 15.4 146.9 15.4 147.2 15.4 147.5 15.4 147.8 15.4 148.1 15.4 148.4 15.4 148.7 15.4 149.0 15.4 149.3 15.4 149.6 15.4 149.9 15.4 150.2 15.4 150.5 15.4 150.8 15.4 151.1 15.4 151.4 15.4 151.7 15.4 152.0 15.4 152.3 15.4 152.6 15.4 152.9 15.4 153.2 15.4 153.5 15.4 153.8 15.4 154.1 15.4 154.4 15.4 154.7 15.4 155.0 15.4 155.3 15.4 155.6 15.3 155.9 15.2 156.2 15.1 156.5 15.0 156.8 15.0 157.1 15.0 157.4 15.0 157.7 15.0 158.0 14.9 158.3 14.8 158.6 14.7 158.9 14.6 159.2 14.5 159.5 14.4 159.8 14.3 160.1 14.1 160.4 13.8 160.7 13.5 161.0 13.3 161.3 13.1 161.6 13.0 161.9 12.7 162.2 12.2 162.5 11.6 162.8 11.0 163.1 10.7 163.3 10.4 163.4 9.6 163.6 9.2 163.8 8.4 164.0 8.0 164.2 7.2 164.4 6.8 164.6 6.2 164.7 2.6 164.7 1.7 164.5 1.3 164.2 1.0 163.9 0.7 163.6 0.4 163.3 0.1 163.0 -0.2 162.7 -0.4 162.4 -0.5 162.1 -0.7 161.8 -1.0 161.5 -1.2 161.2 -1.3 160.9 -1.5 160.6 -1.7 160.3 -1.8 160.0 -1.8 159.7 -1.9 159.4 -2.1 159.1 -2.2 158.8 -2.2 158.5 -2.2 158.2 -2.2 157.9 -2.2 157.6 -2.4 157.3 -2.5 157.0 -2.6 156.7 -2.6 156.4 -2.6 156.1 -2.6 155.8 -2.6 155.5 -2.6 155.2 -2.8 154.9 -2.9 154.6 -3.0 154.3 -3.0 154.0 -3.0 153.7 -3.0 153.4 -3.0 153.1 -3.0 152.8 -3.0 152.5 -3.1 152.2 -3.3 151.9 -3.4 151.6 -3.4 151.3 -3.4 151.0 -3.4 150.7 -3.4 150.4 -3.6 150.1 -3.7 149.8 -3.8 149.5 -3.8 149.2 -3.8 148.9 -3.8 148.6 -3.8 148.3 -3.8 148.0 -4.0 147.7 -4.1 147.4 -4.2 147.1 -4.2 146.8 -4.2 146.5 -4.2 146.2 -4.3 145.9 -4.4 145.6 -4.5 145.3 -4.6 145.0 -4.6 144.7 -4.6 144.4 -4.6 144.1 -4.6 143.8 -4.6 143.5 -4.6 143.2 -4.8 142.9 -4.9 142.6 -5.0 142.3 -5.0 142.0 -5.0 141.7 -5.0 141.4 -5.0 141.1 -5.0 140.8 -5.0 140.5 -5.0 140.2 -5.1 139.9 -5.2 139.6 -5.3 139.3 -5.4 139.0 -5.4 138.7 -5.4 138.4 -5.6 138.1 -5.7 137.8 -5.8 137.5 -5.8 137.2 -5.8 136.9 -5.9 136.6 -6.1 136.3 -6.2 136.0 -6.2 135.7 -6.2 135.4 -6.3 135.1 -6.4 134.8 -6.45 134.6 -6.5 134.6 -6.7 134.9 -6.9 135.2 -7.0 135.5 -7.2 135.8 -7.3 136.1 -7.5 136.4 -7.9 136.7 -8.2 137.0 -8.4 137.3 -8.7 137.6 -8.8 137.9 -9.0 138.2 -9.2 138.5 -9.5 138.8 -9.6 139.1 -9.8 139.4 -10.0 139.7 -10.3 140.0 -10.6 140.3 -10.8 140.6 -10.9 140.9 -11.1 141.2 -11.4 141.5 -11.7 141.8 -12.0 142.1 -12.3 142.4 -12.6 142.7 -12.9 143.0 -13.4 143.3 -13.9 143.6 -14.3 143.9 -14.5 144.1 -14.8 144.2 -15.6 144.4 -16.0 144.6 -16.6 144.7 -18.6 144.7 -19.5 144.5 -21.4 144.3 -22.3 144.1 -22.6 143.9 -23.5 143.7 -24.2 143.5 -25.1 143.3 -25.4 143.1 -26.3 142.9 -27.0 142.7 -27.9 142.5 -28.6 142.3 -29.5 142.1 -29.8 141.9 -30.7 141.7 -31.0 141.5 -31.9 141.3 -32.3 141.1 -33.1 140.9 -34.2 140.7 -35.1 140.5 -35.5 140.3 -36.3 140.1 -37.4 139.9 -38.3 139.7 -39.0 139.5 -39.9 139.3 -40.2 139.1 -41.1 138.9 -41.4 138.7 -42.3 138.5 -42.9 138.2 -43.3 138.0 -43.5 137.9 -44.3 137.7 -44.6 137.5 -45.5 137.3 -46.1 137.0 -46.6 136.7 -46.9 136.4 -47.2 136.1 -47.5 135.8 -47.8 135.5 -48.1 135.2 -48.4 134.9 -48.7 134.6 -48.9 134.3 -49.0 134.0 -49.0 133.7 -49.0 133.4 -49.0 133.1 -49.0 132.8 -49.0 132.5 -49.0 132.2 -49.0 131.9 -49.0 131.6 -48.9 131.3 -48.8 131.0 -48.6 130.7 -48.5 130.4 -48.4 130.1 -48.2 129.8 -48.2 129.5 -48.1 129.2 -48.0 128.9 -47.8 128.6 -47.8 128.3 -47.8 128.0 -47.7 127.7 -47.6 127.4 -47.4 127.1 -47.1 126.8 -47.0 126.5 -47.0 126.2 -46.9 125.9 -46.7 125.6 -46.5 125.3 -46.4 125.0 -46.3 124.7 -46.2 124.4 -46.1 124.1 -46.0 123.8 -45.9 123.5 -45.8 123.2 -45.7 122.9 -45.6 122.6 -45.4 122.3 -45.1 122.0 -44.8 121.7 -44.6 121.4 -44.6 121.1 -44.5 120.8 -44.4 120.5 -44.1 120.2 -43.8 119.9 -43.7 119.6 -43.6 119.3 -43.3 119.0 -43.0 118.7 -42.7 118.4 -42.4 118.1 -42.1 117.8 -41.4 117.5 -40.9 117.2 -40.3 116.9 -39.4 116.8 -39.4 116.7 -34.6 116.7 -33.8 116.9 -33.4 117.1 -32.6 117.3 -31.4 117.5 -30.6 117.7 -29.8 117.9 -29.0 118.1 -28.6 118.3 -27.8 118.5 -25.8 118.7 -25.4 118.8 -25.4 118.7 -25.4 118.4 -25.4 118.1 -25.4 117.8 -25.4 117.5 -25.4 117.2 -25.4 116.9 -25.4 116.6 -25.4 116.3 -25.4 116.0 -25.4 115.7 -25.4 115.4 -25.4 115.1 -25.4 114.8 -25.4 114.5 -25.4 114.2 -25.4 113.9 -25.4 113.6 -25.4 113.3 -25.4 113.0 -25.4 112.7 -25.4 112.4 -25.3 112.1 -25.2 111.8 -25.1 111.5 -25.0 111.2 -25.0 110.9 -25.0 110.6 -25.0 110.3 -25.0 110.0 -25.0 109.7 -25.0 109.4 -25.0 109.1 -25.0 108.8 -25.0 108.5 -25.0 108.2 -24.9 107.9 -24.7 107.6 -24.6 107.3 -24.6 107.0 -24.6 106.7 -24.5 106.4 -24.4 106.1 -24.2 105.8 -24.2 105.5 -24.2 105.2 -24.1 104.9 -24.0 104.6 -23.9 104.3 -23.8 104.0 -23.8 103.7 -23.8 103.4 -23.7 103.1 -23.5 102.8 -23.4 102.5 -23.4 102.2 -23.4 101.9 -23.4 101.6 -23.3 101.3 -23.2 101.0 -23.1 100.7 -23.0 100.4 -23.0 100.1 -23.0 99.8 -22.9 99.5 -22.7 99.2 -22.6 98.9 -22.6 98.6 -22.5 98.3 -22.3 98.0 -22.2 97.7 -22.2 97.4 -22.2 97.1 -22.2 96.8 -22.2 96.5 -22.2 96.2 -22.1 95.9 -21.9 95.6 -21.6 95.3 -21.4 95.0 -21.4 94.7 -21.4 94.4 -21.3 94.1 -21.2 93.8 -21.1 93.5 -21.0 93.2 -21.0 92.9 -21.0 92.6 -20.9 92.3 -20.7 92.0 -20.6 91.7 -20.6 91.4 -20.5 91.1 -20.3 90.8 -20.1 90.5 -20.0 90.2 -19.9 89.9 -19.8 89.6 -19.8 89.3 -19.8 89.0 -19.7 88.7 -19.5 88.4 -19.3 88.1 -19.2 87.8 -19.1 87.5 -19.0 87.2 -18.9 86.9 -18.8 86.6 -18.6 86.3 -18.5 86.0 -18.4 85.7 -18.2 85.4 -18.1 85.1 -17.9 84.8 -17.7 84.5 -17.6 84.2 -17.4 83.9 -17.3 83.6 -17.2 83.3 -17.0 83.0 -16.9 82.7 -16.7 82.4 -16.4 82.1 -16.1 81.8 -15.6 81.6 -15.0 81.6 -15.0 81.5 -14.2 81.7 -13.7 82.0 -13.4 82.3 -13.3 82.6 -13.1 82.9 -13.0 83.2 -13.0 83.5 -13.0 83.8 -13.0 84.1 -13.1 84.4 -13.2 84.7 -13.4 85.0 -13.5 85.3 -13.7 85.6 -13.8 85.9 -14.0 86.2 -14.1 86.5 -14.3 86.8 -14.6 87.1 -14.6 87.4 -14.7 87.7 -14.9 88.0 -15.0 88.3 -15.0 88.6 -15.1 88.9 -15.3 89.2 -15.4 89.5 -15.6 89.8 -15.7 90.1 -15.8 90.4 -15.8 90.7 -15.8 91.0 -15.9 91.3 -16.1 91.6 -16.2 91.9 -16.4 92.2 -16.5 92.5 -16.6 92.8 -16.7 93.1 -16.8 93.4 -16.9 93.7 -17.0 94.0 -17.0 94.3 -17.0 94.6 -17.1 94.9 -17.3 95.2 -17.4 95.5 -17.4 95.8 -17.5 96.1 -17.6 96.4 -17.8 96.7 -17.9 97.0 -18.1 97.3 -18.2 97.6 -18.2 97.9 -18.2 98.2 -18.2 98.5 -18.3 98.8 -18.4 99.1 -18.5 99.4 -18.6 99.7 -18.7 100.0 -18.8 100.3 -18.9 100.6 -19.0 100.9 -19.0 101.2 -19.0 101.5 -19.0 101.8 -19.1 102.1 -19.3 102.4 -19.4 102.7 -19.4 103.0 -19.4 103.3 -19.5 103.6 -19.6 103.9 -19.7 104.2 -19.8 104.5 -19.8 104.8 -19.8 105.1 -19.9 105.4 -20.1 105.7 -20.2 106.0 -20.2 106.3 -20.2 106.6 -20.3 106.9 -20.4 107.2 -20.6 107.5 -20.6 107.8 -20.6 108.1 -20.6 108.4 -20.7 108.7 -20.8 109.0 -20.9 109.3 -21.0 109.6 -21.0 109.9 -21.0 110.2 -21.0 110.5 -21.0 110.8 -21.0 111.1 -21.0 111.4 -21.0 111.7 -21.0 112.0 -21.0 112.3 -21.0 112.6 -21.1 112.9 -21.3 113.2 -21.4 113.5 -21.4 113.8 -21.4 114.1 -21.4 114.4 -21.4 114.7 -21.4 115.0 -21.4 115.3 -21.4 115.6 -21.4 115.9 -21.4 116.2 -21.4 116.5 -21.4 116.8 -21.4 117.1 -21.4 117.4 -21.3 117.7 -21.2 118.0 -21.0 118.3 -20.9 118.6 -20.7 118.9 -20.4 119.2 -20.0 119.4 -19.4 119.5 -18.6 119.7 -17.8 119.9 -16.5 119.8 -16.2 119.5 -15.7 119.2 -15.2 118.9 -14.9 118.6 -14.6 118.3 -14.5 118.0 -14.4 117.7 -14.2 117.4 -14.1 117.1 -13.9 116.8 -13.7 116.5 -13.6 116.2 -13.4 115.9 -13.3 115.6 -13.2 115.3 -13.0 115.0 -13.0 114.7 -12.9 114.4 -12.8 114.1 -12.5 113.8 -12.3 113.5 -12.1 113.2 -12.0 112.9 -11.7 112.6 -11.5 112.3 -11.3 112.0 -11.2 111.7 -10.9 111.4 -10.7 111.1 -10.5 110.8 -10.4 110.5 -10.2 110.2 -10.1 109.9 -9.9 109.6 -9.6 109.3 -9.4 109.0 -9.3 108.7 -9.1 108.4 -9.0 108.1 -9.0 107.8 -8.9 107.5 -8.7 107.2 -8.4 106.9 -8.2 106.6 -8.1 106.3 -7.9 106.0 -7.7 105.7 -7.6 105.4 -7.5 105.1 -7.3 104.8 -7.2 104.5 -7.0 104.2 -6.9 103.9 -6.7 103.6 -6.4 103.3 -6.2 103.0 -6.2 102.7 -6.1 102.4 -6.0 102.1 -5.7 101.8 -5.5 101.5 -5.4 101.2 -5.3 100.9 -5.2 100.6 -5.1 100.3 -5.0 100.0 -4.9 99.7 -4.8 99.4 -4.6 99.1 -4.3 98.8 -4.2 98.5 -4.2 98.2 -4.1 97.9 -3.9 97.6 -3.8 97.3 -3.8 97.0 -3.7 96.7 -3.5 96.4 -3.4 96.1 -3.4 95.8 -3.3 95.5 -3.1 95.2 -2.9 94.9 -2.8 94.6 -2.7 94.3 -2.6 94.0 -2.6 93.7 -2.6 93.4 -2.6 93.1 -2.5 92.8 -2.4 92.5 -2.2 92.2 -2.2 91.9 -2.1 91.6 -2.0 91.3 -1.8 91.0 -1.8 90.7 -1.8 90.4 -1.7 90.1 -1.6 89.8 -1.5 89.5 -1.4 89.2 -1.4 88.9 -1.4 88.6 -1.3 88.3 -1.1 88.0 -0.9 87.7 -0.8 87.4 -0.6 87.1 -0.5 86.8 -0.4 86.5 -0.1 86.2 0.2 85.9 0.5 85.7 0.8 85.6 1.4 85.5 2.2 85.7 2.7 86.0 3.0 86.3 3.1 86.6 3.3 86.9 3.4 87.2 3.4 87.5 3.4 87.8 3.4 88.1 3.3 88.4 3.2 88.7 3.0 89.0 2.9 89.3 2.7 89.6 2.6 89.9 2.6 90.2 2.6 90.5 2.5 90.8 2.4 91.1 2.2 91.4 2.2 91.7 2.2 92.0 2.1 92.3 2.0 92.6 1.9 92.9 1.7 93.2 1.6 93.5 1.5 93.8 1.4 94.1 1.4 94.4 1.4 94.7 1.4 95.0 1.3 95.3 1.2 95.6 1.0 95.9 1.0 96.2 0.9 96.5 0.7 96.8 0.6 97.1 0.6 97.4 0.6 97.6 1.0 97.7 1.5 98.0 1.8 98.3 1.9 98.6 2.1 98.9 2.2 99.2 2.2 99.5 2.3 99.8 2.5 100.1 2.6 100.4 2.8 100.7 2.9 101.0 3.0 101.3 3.1 101.6 3.4 101.9 3.5 102.2 3.7 102.5 3.8 102.8 3.8 103.1 4.0 103.4 4.1 103.7 4.3 104.0 4.4 104.3 4.6 104.6 4.7 104.9 4.9 105.2 5.0 105.5 5.1 105.8 5.3 106.1 5.4 106.4 5.4 106.7 5.4 107.0 5.5 107.3 5.6 107.6 5.8 107.9 5.9 108.2 6.0 108.5 6.1 108.8 6.2 109.1 6.3 109.4 6.5 109.7 6.6 110.0 6.7 110.3 6.8 110.6 6.9 110.9 7.0 111.2 7.1 111.5 7.2 111.8 7.3 112.1 7.4 112.4 7.5 112.7 7.6 113.0 7.7 113.3 7.8 113.6 7.9 113.9 8.0 114.2 8.1 114.5 8.2 114.8 8.2 115.1 8.2 115.4 8.2 115.7 8.2 116.0 8.2 116.3 8.3 116.6 8.4 116.9 8.5 117.2 8.6 117.5 8.7 117.8 8.8 118.1 8.85 118.15 8.9 118.1 9.2 118.0 9.8 117.9 10.2 117.9 11.0 118.1 11.5 118.4 11.8 118.7 12.4 119.0 13.4 119.3 15.7 119.3 16.6 119.0 16.7 118.7 16.9 118.4 17.1 118.1 17.2 117.8 17.4 117.5 17.5 117.2 17.6 116.9 17.8 116.6 17.8 116.3 17.8 116.0 17.8 115.7 17.8 115.4 17.8 115.1 17.9 114.8 18.0 114.5 18.2 114.2 18.2 113.9 18.2 113.6 18.2 113.3 18.2 113.0 18.2 112.7 18.2 112.4 18.2 112.1 18.2 111.8 18.1 111.5 18.0 111.2 17.9 110.9 17.8 110.6 17.8 110.3 17.8 110.0 17.8 109.7 17.7 109.4 17.5 109.1 17.4 108.8 17.4 108.5 17.4 108.2 17.4 107.9 17.4 107.6 17.2 107.3 17.1 107.0 17.0 106.7 17.0 106.4 16.8 106.1 16.7 105.8 16.5 105.5 16.4 105.2 16.3 104.9 16.2 104.6 16.1 104.3 16.0 104.0 15.9 103.7 15.8 103.4 15.7 103.1 15.6 102.8 15.5 102.5 15.3 102.2 15.1 101.9 15.0 101.6 15.0 101.3 14.9 101.0 14.7 100.7 14.6 100.4 14.4 100.1 14.3 99.8 14.2 99.5 14.2 99.2 14.0 98.9 13.9 98.6 13.8 98.3 13.6 98.0 13.5 97.7 13.3 97.4 13.0 97.1 12.8 96.8 12.7 96.5 12.5 96.2 12.3 95.9 12.2 95.6 12.0 95.3 11.7 95.0 11.4 94.7 11.2 94.4 11.1 94.1 11.0 93.8 11.0 93.5 11.0 93.2 10.8 92.9 10.5 92.6 10.2 92.3 10.0 92.0 9.8 91.7 9.7 91.4 9.5 91.1 9.4 90.8 9.3 90.5 9.2 90.2 9.0 89.9 8.8 89.6 8.6 89.3 8.5 89.0 8.2 88.7 8.0 88.4 7.9 88.1 7.7 87.8 7.5 87.5 7.4 87.2 7.4 86.9 7.4 86.6 7.4 86.3 7.4 86.0 7.5 85.7 7.6 85.4 7.8 85.1 8.1 84.8 8.5 84.5 9.4 84.4 9.4 84.3 10.2 84.5 10.7 84.8 11.0 85.1 11.1 85.4 11.3 85.7 M0.0 104.8 L-0.1 104.5 -0.2 104.2 -0.3 103.9 -0.4 103.6 -0.6 103.3 -0.7 103.0 -0.9 102.7 -1.0 102.4 -1.2 102.1 -1.3 101.8 -1.4 101.9 -1.4 102.2 -1.4 102.5 -1.5 102.8 -1.6 103.1 -1.8 103.4 -2.0 103.7 -2.2 104.0 -2.3 104.3 -2.4 104.6 -2.5 104.9 -2.7 105.2 -3.0 105.5 -3.2 105.8 -3.3 106.1 -3.5 106.4 -3.8 106.7 -3.8 107.0 -3.9 107.3 -4.1 107.6 -4.2 107.9 -4.5 108.2 -4.7 108.5 -4.9 108.8 -5.0 109.1 -5.1 109.4 -5.3 109.7 -5.4 110.0 -5.6 110.3 -5.7 110.6 -5.9 110.9 -6.1 111.2 -6.2 111.5 -6.5 111.8 -6.7 112.1 -6.8 112.4 -7.0 112.7 -7.1 113.0 -7.3 113.3 -7.5 113.6 -7.8 113.9 -7.9 114.2 -8.1 114.5 -8.3 114.8 -8.6 115.1 -8.7 115.4 -8.9 115.7 -9.0 116.0 -9.1 116.3 -9.2 116.6 -9.3 116.9 -9.5 117.2 -9.6 117.5 -9.8 117.8 -9.9 118.1 -10.1 118.4 -10.2 118.7 -10.4 119.0 -10.45 119.15 -10.2 119.1 -9.4 119.3 -8.9 119.6 -8.6 119.9 -8.3 120.2 -8.1 120.5 -8.0 120.8 -7.8 121.1 -7.7 121.4 -7.5 121.7 -7.4 122.0 -7.2 122.3 -7.1 122.6 -6.9 122.9 -6.8 123.2 -6.6 123.5 -6.5 123.8 -6.3 124.1 -6.2 124.4 -6.2 124.7 -6.1 125.0 -5.9 125.3 -5.8 125.6 -5.8 125.9 -5.7 126.2 -5.5 126.5 -5.4 126.8 -5.4 127.1 -5.1 127.4 -4.9 127.7 -4.8 128.0 -4.6 128.3 -4.5 128.6 -4.3 128.9 -4.2 129.2 -4.0 129.5 -3.9 129.8 -3.7 130.1 -3.6 130.4 -3.4 130.7 -3.3 131.0 -3.1 131.3 -3.0 131.6 -3.0 131.9 -2.9 132.2 -2.7 132.5 -2.6 132.8 -2.6 133.1 -2.5 133.4 -2.3 133.7 -2.2 134.0 -2.2 134.3 -2.2 134.6 -2.1 134.9 -2.0 135.2 -1.9 135.5 -1.8 135.8 -1.8 136.1 -1.8 136.4 -1.6 136.7 -1.5 137.0 -1.4 137.3 -1.4 137.6 -1.4 137.9 -1.4 138.2 -1.3 138.5 -1.2 138.8 -1.1 139.1 -1.0 139.4 -1.0 139.7 -1.0 140.0 -1.0 140.3 -1.0 140.6 -1.0 140.9 -1.0 141.2 -0.8 141.5 -0.7 141.8 -0.6 142.1 -0.6 142.4 -0.6 142.7 -0.6 143.0 -0.6 143.3 -0.6 143.6 -0.6 143.9 -0.5 144.2 -0.3 144.5 -0.2 144.8 -0.2 145.1 -0.2 145.4 -0.2 145.7 -0.2 146.0 -0.2 146.3 -0.1 146.6 0.1 146.9 0.2 147.2 0.2 147.5 0.2 147.8 0.2 148.1 0.2 148.4 0.4 148.7 0.5 149.0 0.6 149.3 0.6 149.6 0.6 149.9 0.6 150.2 0.7 150.5 0.8 150.8 0.9 151.1 1.0 151.4 1.0 151.7 1.0 152.0 1.0 152.3 1.0 152.6 1.0 152.9 1.0 153.2 1.0 153.5 1.1 153.8 1.3 154.1 1.4 154.4 1.4 154.7 1.4 155.0 1.4 155.3 1.4 155.6 1.4 155.9 1.5 156.2 1.7 156.5 1.8 156.8 1.8 157.1 1.8 157.4 1.9 157.7 2.0 158.0 2.2 158.3 2.3 158.6 2.5 158.9 2.6 159.2 2.6 159.5 2.9 159.8 3.1 160.1 3.3 160.4 3.6 160.6 5.7 160.5 6.3 160.2 6.8 160.0 7.4 159.9 8.1 159.7 9.1 159.4 9.7 159.1 10.1 158.8 10.3 158.5 10.4 158.2 10.6 157.9 10.7 157.6 10.8 157.3 11.0 157.0 11.0 156.7 11.0 156.4 11.0 156.1 11.0 155.8 11.0 155.5 11.1 155.2 11.2 154.9 11.4 154.6 11.4 154.3 11.4 154.0 11.4 153.7 11.4 153.4 11.4 153.1 11.4 152.8 11.4 152.5 11.4 152.2 11.4 151.9 11.4 151.6 11.4 151.3 11.4 151.0 11.4 150.7 11.4 150.4 11.4 150.1 11.4 149.8 11.4 149.5 11.4 149.2 11.4 148.9 11.4 148.6 11.4 148.3 11.4 148.0 11.4 147.7 11.4 147.4 11.3 147.1 11.2 146.8 11.1 146.5 11.0 146.2 11.0 145.9 11.0 145.6 11.0 145.3 11.0 145.0 11.0 144.7 11.0 144.4 10.8 144.1 10.7 143.8 10.6 143.5 10.6 143.2 10.6 142.9 10.6 142.6 10.6 142.3 10.6 142.0 10.4 141.7 10.3 141.4 10.2 141.1 10.2 140.8 10.2 140.5 10.2 140.2 10.1 139.9 10.0 139.6 9.9 139.3 9.8 139.0 9.8 138.7 9.8 138.4 9.8 138.1 9.8 137.8 9.7 137.5 9.6 137.2 9.5 136.9 9.4 136.6 9.4 136.3 9.4 136.0 9.2 135.7 9.1 135.4 9.0 135.1 9.0 134.8 9.0 134.5 9.0 134.2 9.0 133.9 9.0 133.6 9.0 133.3 8.9 133.0 8.7 132.7 8.6 132.4 8.6 132.1 8.5 131.8 8.3 131.5 8.2 131.2 8.2 130.9 8.2 130.6 8.2 130.3 8.2 130.0 8.2 129.7 8.1 129.4 7.9 129.1 7.8 128.8 7.8 128.5 7.8 128.2 7.7 127.9 7.6 127.6 7.5 127.3 7.4 127.0 7.3 126.7 7.2 126.4 7.1 126.1 7.0 125.8 7.0 125.5 7.0 125.2 6.8 124.9 6.5 124.6 6.3 124.3 6.2 124.0 6.2 123.7 6.2 123.4 6.1 123.1 6.0 122.8 5.8 122.5 5.7 122.2 5.5 121.9 5.4 121.6 5.4 121.3 5.4 121.0 5.4 120.7 5.3 120.4 5.2 120.1 5.1 119.8 5.0 119.5 4.9 119.2 4.8 118.9 4.7 118.6 4.6 118.3 4.5 118.0 4.4 117.7 4.3 117.4 4.2 117.1 4.2 116.8 4.2 116.5 4.2 116.2 4.2 115.9 4.2 115.6 4.1 115.3 4.0 115.0 3.9 114.7 3.8 114.4 3.7 114.1 3.6 113.8 3.5 113.5 3.4 113.2 3.3 112.9 3.2 112.6 3.1 112.3 3.0 112.0 2.9 111.7 2.8 111.4 2.7 111.1 2.6 110.8 2.4 110.5 2.3 110.2 2.2 109.9 2.1 109.6 2.0 109.3 1.9 109.0 1.7 108.7 1.6 108.4 1.5 108.1 1.4 107.8 1.4 107.5 1.4 107.2 1.2 106.9 1.1 106.6 0.9 106.3 0.8 106.0 0.6 105.7 0.5 105.4 0.2 105.1 0.0 104.8 M-13.0 122.3 L-13.3 122.6 -13.6 122.9 -14.0 123.2 -14.6 123.5 -14.9 123.7 -15.2 123.8 -16.0 124.0 -16.4 124.2 -17.0 124.3 -17.4 124.3 -18.3 124.1 -19.0 123.9 -19.9 123.7 -20.6 123.5 -21.5 123.3 -21.8 123.1 -22.45 122.95 -22.8 123.2 -23.2 123.4 -23.8 123.5 -24.7 123.3 -25.4 123.1 -26.3 122.9 -28.2 122.7 -29.1 122.5 -29.4 122.3 -30.3 122.1 -31.0 121.9 -31.9 121.7 -33.0 121.5 -33.9 121.3 -34.6 121.1 -35.5 120.9 -38.6 120.9 -39.6 121.2 -40.0 121.5 -40.2 121.8 -40.4 122.1 -40.7 122.4 -40.8 122.7 -40.9 123.0 -41.1 123.3 -41.3 123.6 -41.4 123.9 -41.7 124.2 -41.8 124.5 -41.9 124.8 -42.0 125.1 -42.2 125.4 -42.2 125.7 -42.3 126.0 -42.4 126.3 -42.6 126.6 -42.7 126.9 -42.9 127.2 -43.0 127.5 -43.0 127.8 -43.1 128.1 -43.3 128.4 -43.4 128.7 -43.6 129.0 -43.7 129.3 -43.8 129.6 -43.9 129.9 -44.0 130.2 -44.1 130.5 -44.2 130.8 -44.3 131.1 -44.4 131.4 -44.5 131.7 -44.7 132.0 -44.8 132.3 -44.9 132.6 -44.7 132.9 -44.4 133.2 -44.0 133.4 -43.8 133.5 -43.0 133.7 -42.4 134.0 -41.9 134.2 -41.7 134.3 -41.0 134.5 -40.6 134.7 -39.8 134.9 -39.4 135.1 -38.6 135.3 -38.2 135.5 -37.4 135.7 -36.2 135.9 -35.4 136.1 -34.9 136.3 -34.2 136.5 -33.0 136.7 -32.2 136.9 -31.7 137.1 -31.0 137.3 -30.2 137.5 -29.4 137.7 -29.0 137.9 -28.2 138.1 -27.4 138.3 -26.6 138.5 -25.8 138.7 -25.0 138.9 -24.6 139.1 -23.8 139.3 -23.0 139.5 -22.2 139.7 -21.4 139.9 -20.6 140.1 -18.6 140.3 -17.8 140.5 -17.1 140.5 -16.5 140.2 -16.2 139.9 -15.7 139.6 -15.2 139.3 -14.9 139.0 -14.6 138.7 -14.3 138.4 -14.0 138.1 -13.8 137.8 -13.7 137.5 -13.5 137.2 -13.2 136.9 -12.9 136.6 -12.6 136.3 -12.5 136.0 -12.4 135.7 -12.1 135.4 -11.8 135.1 -11.7 134.8 -11.6 134.5 -11.3 134.2 -11.0 133.9 -10.7 133.6 -10.5 133.3 -10.4 133.0 -10.2 132.7 -9.9 132.4 -9.7 132.1 -9.6 131.8 -9.4 131.5 -9.1 131.2 -8.8 130.9 -8.5 130.6 -8.2 130.3 -8.5 130.0 -8.8 129.7 -8.9 129.4 -9.0 129.1 -9.2 128.8 -9.3 128.5 -9.4 128.2 -9.5 127.9 -9.6 127.6 -9.7 127.3 -9.8 127.0 -9.9 126.7 -10.0 126.4 -10.1 126.1 -10.2 125.8 -10.3 125.5 -10.4 125.2 -10.5 124.9 -10.7 124.6 -10.9 124.3 -11.0 124.0 -11.2 123.7 -11.3 123.4 -11.4 123.1 -11.7 122.8 -12.0 122.5 -12.1 122.2 -12.2 121.9 -12.2 121.6 -12.2 121.5 -12.4 121.7 -12.7 122.0 -13.0 122.3" fill="#000000" fill-rule="evenodd" stroke="none"/>
  </g>
</svg>
