<?xml version="1.0" encoding="UTF-8" standalone="no"?>
<svg xmlns:ffdec="https://www.free-decompiler.com/flash" xmlns:xlink="http://www.w3.org/1999/xlink" ffdec:objectType="shape" height="15.85px" width="20.9px" xmlns="http://www.w3.org/2000/svg">
  <g transform="matrix(1.0, 0.0, 0.0, 1.0, 9.55, 30.95)">
    <path d="M5.05 -30.15 L5.35 -29.4 5.1 -28.75 4.15 -28.25 4.2 -27.35 Q4.1 -26.9 3.6 -26.7 L3.7 -26.55 3.75 -26.15 3.7 -25.8 3.45 -25.35 4.05 -24.45 4.25 -23.8 4.15 -23.3 4.05 -22.75 3.9 -22.4 3.6 -21.8 4.0 -21.2 4.15 -20.7 3.05 -18.95 Q1.85 -17.3 1.35 -17.3 0.5 -17.3 -0.05 -19.15 L-0.45 -21.15 Q-0.45 -21.65 0.15 -21.9 0.75 -22.1 0.75 -22.6 L0.65 -23.05 0.55 -23.5 Q0.55 -24.25 1.0 -24.85 L1.5 -25.8 1.25 -26.4 Q0.95 -26.95 0.95 -27.2 0.95 -27.85 1.35 -28.0 L1.25 -28.45 1.15 -28.95 Q1.15 -29.35 1.3 -29.55 1.55 -30.0 2.05 -29.8 L2.05 -30.05 Q2.05 -31.1 2.4 -30.95 L2.8 -30.75 Q3.1 -30.5 3.3 -30.5 L3.55 -30.75 3.85 -30.9 Q4.65 -30.9 5.05 -30.15 M11.1 -20.35 L11.35 -19.0 Q11.35 -18.65 10.6 -17.6 9.85 -16.65 9.85 -16.0 9.85 -15.45 9.55 -15.25 L8.85 -15.1 Q7.4 -15.1 6.85 -16.35 6.55 -17.0 6.55 -17.9 6.55 -18.5 7.2 -19.95 7.9 -21.6 8.35 -21.6 L8.6 -21.35 Q8.75 -21.2 8.85 -21.2 9.1 -21.2 9.85 -22.45 10.6 -23.35 10.85 -21.75 L11.1 -20.35 M-6.8 -29.05 L-6.4 -29.2 -5.3 -28.95 Q-4.85 -28.65 -4.85 -28.25 L-4.95 -27.7 -5.05 -27.2 -5.25 -26.45 -5.85 -25.55 -5.6 -24.9 -5.55 -24.25 Q-5.1 -24.25 -4.95 -23.8 L-4.85 -23.35 Q-4.85 -23.05 -5.35 -22.25 L-5.8 -21.75 -5.75 -21.6 Q-5.75 -21.2 -5.9 -20.9 -6.2 -20.55 -6.95 -20.55 -7.9 -20.55 -8.45 -21.95 -8.85 -23.05 -8.85 -24.1 L-8.7 -24.6 -8.4 -25.3 -9.3 -26.1 -9.55 -26.75 -9.1 -27.8 -8.1 -28.8 Q-7.5 -29.35 -7.1 -29.25 -6.9 -29.25 -6.8 -29.05" fill="#8adcff" fill-rule="evenodd" stroke="none"/>
  </g>
</svg>
