<?xml version="1.0" encoding="UTF-8" standalone="no"?>
<svg xmlns:ffdec="https://www.free-decompiler.com/flash" xmlns:xlink="http://www.w3.org/1999/xlink" ffdec:objectType="shape" height="23.1px" width="27.3px" xmlns="http://www.w3.org/2000/svg">
  <g transform="matrix(1.0, 0.0, 0.0, 1.0, 13.25, 32.35)">
    <path d="M6.15 -31.7 L6.25 -31.6 6.45 -31.35 6.7 -31.05 6.95 -30.75 7.25 -30.6 7.5 -30.35 7.7 -30.2 7.9 -30.05 8.45 -29.25 9.1 -28.25 9.45 -27.7 9.65 -27.35 9.65 -27.25 9.7 -27.1 9.8 -27.05 9.85 -26.9 9.9 -26.75 9.95 -26.6 10.0 -26.45 10.05 -26.3 10.1 -26.15 10.2 -26.0 10.2 -25.95 10.25 -25.8 10.3 -25.65 10.35 -25.5 10.45 -25.35 10.55 -25.2 10.6 -25.05 10.65 -25.0 10.7 -24.85 10.8 -24.7 10.85 -24.55 10.9 -24.4 11.0 -24.1 11.05 -23.95 11.1 -23.85 11.2 -23.75 11.25 -23.6 11.3 -23.45 11.35 -23.3 11.45 -23.15 11.45 -23.0 11.45 -22.85 11.5 -22.75 11.55 -22.6 11.65 -22.45 11.65 -22.3 11.7 -22.2 11.7 -22.05 11.75 -21.9 11.8 -21.75 11.85 -21.6 11.95 -21.5 11.95 -21.35 11.95 -21.05 11.95 -20.9 11.95 -20.65 12.0 -20.55 12.0 -20.4 12.05 -20.25 12.1 -20.1 12.1 -19.95 12.15 -19.8 12.15 -19.65 12.2 -19.5 12.25 -19.45 12.3 -19.3 12.35 -19.15 12.35 -19.0 12.4 -18.85 12.45 -18.7 12.5 -18.55 12.55 -18.4 12.6 -18.25 12.7 -18.2 12.75 -18.05 12.8 -17.9 12.9 -17.6 12.9 -17.45 12.95 -17.3 12.95 -17.15 13.0 -17.1 13.0 -16.95 13.05 -16.8 13.1 -16.65 13.15 -16.5 13.15 -16.35 13.2 -16.2 13.25 -16.05 13.25 -16.0 13.3 -15.85 13.35 -15.7 13.35 -15.55 13.35 -15.4 13.35 -15.25 13.35 -15.1 13.4 -15.0 13.45 -14.85 13.45 -14.7 13.5 -14.6 13.5 -14.45 13.55 -14.3 13.6 -14.15 13.6 -13.9 13.6 -13.75 13.6 -13.45 13.6 -13.3 13.65 -13.15 13.65 -13.05 13.7 -12.9 13.75 -12.8 13.75 -12.65 13.75 -12.5 13.75 -12.35 13.75 -12.2 13.75 -12.05 13.8 -11.9 13.85 -11.75 13.85 -11.7 13.9 -11.55 13.9 -11.4 14.0 -11.25 14.0 -11.1 14.0 -10.95 14.05 -10.65 14.05 -10.6 14.05 -10.2 13.9 -9.65 13.5 -9.25 13.05 -10.0 11.95 -11.5 Q9.8 -13.6 5.55 -13.4 3.7 -13.3 2.1 -14.45 1.5 -14.85 -0.4 -16.8 -1.45 -17.9 -2.2 -21.0 -2.7 -23.15 -2.8 -25.05 L-2.85 -25.0 -3.15 -24.1 Q-3.7 -22.3 -4.65 -20.9 -7.2 -16.8 -11.2 -16.8 -12.6 -16.8 -13.25 -17.6 L-13.25 -18.25 -13.25 -18.8 -13.25 -18.95 -13.25 -19.1 -13.2 -19.25 -13.2 -19.35 -13.15 -19.5 -13.15 -19.65 -13.15 -19.75 -13.1 -19.9 -13.05 -20.05 -13.05 -20.2 -13.0 -20.35 -13.0 -20.5 -13.0 -20.65 -12.9 -20.9 -12.85 -21.0 -12.8 -21.15 -12.75 -21.3 -12.75 -21.45 -12.75 -21.6 -12.75 -21.75 -12.75 -21.9 -12.7 -22.05 -12.6 -22.25 -12.3 -23.2 -12.05 -23.95 -12.0 -24.1 -12.0 -24.25 -12.0 -24.3 -12.0 -24.45 -11.8 -25.05 -11.7 -25.35 -11.7 -25.4 -11.65 -25.55 -11.65 -25.7 -11.65 -25.85 -11.6 -26.0 -11.55 -26.15 -11.55 -26.3 -11.5 -26.4 -11.45 -26.55 -11.35 -26.7 -11.25 -26.85 -11.2 -26.95 -11.2 -27.1 -11.15 -27.25 -11.1 -27.4 -11.0 -27.5 -10.5 -28.1 -10.15 -28.5 -10.05 -28.6 Q-9.25 -29.1 -8.4 -29.2 L-8.2 -29.25 -6.75 -29.85 -5.8 -30.0 -5.5 -29.85 -5.2 -29.65 -5.05 -29.5 -4.9 -29.4 -4.8 -29.25 -4.65 -29.1 -4.45 -28.9 -4.3 -28.6 -4.15 -28.3 -3.95 -28.0 -3.9 -27.85 -3.8 -27.8 -3.75 -27.65 -3.7 -27.5 -3.65 -27.35 -3.55 -27.2 -3.45 -27.05 -3.35 -27.05 Q-3.25 -26.95 -3.15 -26.95 -3.05 -26.95 -2.95 -27.05 L-2.85 -27.1 -2.7 -27.25 -2.65 -27.4 -2.55 -27.2 -2.4 -27.25 -2.3 -27.35 -2.55 -27.8 -2.55 -27.85 -2.5 -27.95 -2.4 -28.0 -2.4 -27.85 -2.4 -27.8 -2.35 -27.65 -2.35 -27.5 -2.25 -27.35 -2.2 -27.2 -2.1 -27.1 -2.25 -26.3 -2.2 -25.95 -2.25 -25.8 -2.3 -25.05 -2.25 -24.55 -2.2 -24.25 -2.15 -24.1 -2.15 -23.75 -2.15 -23.45 -2.1 -23.3 -2.05 -23.15 -2.0 -23.0 -1.95 -22.85 -1.95 -22.75 -1.9 -22.6 -1.9 -22.45 -1.9 -22.3 -1.85 -22.2 -1.8 -22.05 -1.65 -21.6 -1.6 -21.35 -1.55 -21.2 -1.5 -21.05 -1.5 -20.9 -1.45 -20.8 -1.4 -20.65 -1.35 -20.55 -1.3 -20.4 -1.2 -20.25 -1.15 -20.1 -1.1 -19.95 -1.05 -19.8 -0.25 -18.85 0.35 -18.25 0.35 -18.2 0.35 -18.05 0.35 -17.9 0.4 -17.8 0.5 -17.55 0.7 -17.25 1.0 -16.95 1.1 -16.85 1.8 -16.2 2.55 -15.45 4.1 -14.8 4.95 -14.8 9.7 -14.7 9.9 -14.6 9.95 -14.45 10.05 -14.3 10.2 -14.15 10.45 -14.05 10.95 -13.9 11.05 -13.85 11.3 -13.6 11.6 -13.45 11.65 -13.45 11.7 -13.4 11.8 -13.25 12.1 -13.15 12.35 -13.25 12.5 -13.4 12.6 -13.55 12.65 -13.6 12.7 -13.75 12.7 -13.9 12.7 -14.05 12.7 -14.2 12.7 -14.35 12.65 -14.5 12.6 -14.65 12.5 -14.7 12.05 -16.5 12.05 -16.55 12.1 -16.7 12.1 -16.85 12.1 -17.0 12.1 -17.15 12.05 -17.3 12.0 -17.45 11.95 -17.55 11.9 -17.7 11.85 -17.8 11.8 -17.95 11.8 -18.1 11.7 -18.25 11.7 -18.4 11.7 -18.55 11.65 -18.65 11.6 -18.8 11.55 -18.95 11.5 -19.1 11.5 -19.25 11.45 -19.35 11.45 -19.5 11.4 -19.65 11.35 -19.75 11.35 -19.9 11.2 -20.35 11.15 -20.65 11.05 -20.85 10.95 -21.0 10.9 -21.15 10.85 -21.3 10.8 -21.6 10.7 -22.05 10.6 -22.25 10.55 -22.55 10.45 -22.7 10.4 -22.85 10.3 -23.0 10.3 -23.05 10.2 -23.2 10.15 -23.35 10.05 -23.5 10.05 -23.65 10.0 -23.8 9.95 -23.95 9.9 -24.1 9.85 -24.25 9.75 -24.3 9.7 -24.45 9.65 -24.6 9.6 -24.75 9.5 -24.9 9.4 -25.05 9.2 -25.35 9.15 -25.4 9.05 -25.55 8.95 -25.7 8.9 -25.85 8.85 -26.0 8.8 -26.15 8.75 -26.3 8.75 -26.4 8.6 -26.55 8.5 -26.7 8.45 -26.85 8.4 -26.95 8.35 -27.1 8.3 -27.25 8.15 -27.35 8.0 -27.55 7.9 -27.65 7.85 -27.8 7.8 -27.95 7.75 -28.1 7.55 -28.4 7.45 -28.5 7.3 -28.6 7.2 -28.75 7.15 -28.9 7.05 -29.05 6.95 -29.2 Q6.35 -30.0 5.55 -30.2 5.1 -31.1 4.2 -31.2 L2.1 -31.2 0.65 -30.75 0.1 -30.5 -0.1 -30.35 -0.2 -30.2 -0.65 -30.15 -1.2 -29.85 -1.5 -29.55 -1.6 -29.4 -1.95 -29.25 -1.95 -29.2 -2.0 -29.25 -2.0 -29.4 -2.05 -29.55 -2.05 -29.7 -2.1 -29.85 -2.0 -30.0 -1.8 -30.3 -1.65 -30.45 -1.7 -30.3 -1.0 -30.95 Q0.3 -32.0 2.05 -31.9 L2.4 -32.05 2.55 -32.05 3.95 -32.2 3.95 -31.9 3.9 -31.75 4.0 -31.85 3.95 -31.9 4.05 -32.2 4.45 -32.35 Q5.3 -32.3 6.15 -31.7 M-3.8 -25.3 L-3.5 -25.8 -3.5 -26.0 -3.5 -26.1 -3.55 -25.95 -3.85 -25.7 -3.9 -25.85 -4.0 -26.0 -4.15 -26.15 -4.3 -26.15 -5.05 -27.1 Q-6.3 -28.5 -7.2 -28.5 -10.0 -28.5 -11.5 -24.0 -12.2 -21.8 -12.4 -19.5 L-12.45 -19.15 -12.25 -19.1 -12.25 -18.95 -12.25 -18.8 -12.2 -18.65 -12.15 -18.5 -12.05 -18.35 -11.95 -18.2 Q-10.4 -18.05 -8.85 -18.8 L-8.8 -18.85 -8.7 -19.0 Q-7.75 -19.35 -7.0 -20.25 L-5.5 -22.05 -5.35 -22.4 -4.7 -23.35 -4.45 -23.8 -4.4 -23.95 -4.35 -24.0 -4.3 -24.25 -4.25 -24.3 -4.15 -24.45 -4.0 -24.6 -3.9 -24.75 -3.85 -24.9 -3.8 -25.05 -3.8 -25.2 -3.8 -25.3" fill="#000000" fill-rule="evenodd" stroke="none"/>
  </g>
</svg>
