<?xml version="1.0" encoding="UTF-8" standalone="no"?>
<svg xmlns:ffdec="https://www.free-decompiler.com/flash" xmlns:xlink="http://www.w3.org/1999/xlink" ffdec:objectType="shape" height="3.15px" width="5.7px" xmlns="http://www.w3.org/2000/svg">
  <g transform="matrix(1.0, 0.0, 0.0, 1.0, 4.6, 26.55)">
    <path d="M-4.25 -23.7 L-4.2 -23.75 -4.2 -23.45 -4.6 -23.4 -4.25 -23.7 M-4.1 -23.85 L-4.15 -23.8 -4.1 -23.85 M-4.0 -24.0 L-3.95 -24.05 -3.75 -24.05 -3.85 -24.0 -3.95 -24.0 -4.0 -23.95 -4.0 -24.0 M-1.85 -25.05 L-1.5 -25.15 -1.4 -25.25 -1.3 -25.35 -1.2 -25.4 -1.15 -25.5 -1.1 -25.6 -1.05 -25.7 -1.05 -25.9 -1.05 -26.0 -1.05 -26.1 -1.05 -26.15 -1.0 -26.3 -0.9 -26.15 -0.9 -26.05 -0.9 -25.95 -0.9 -25.85 -0.9 -25.75 -0.85 -25.65 -0.8 -25.6 -0.8 -25.55 -1.05 -25.3 -1.3 -24.65 -1.85 -24.05 -1.75 -24.45 Q-2.4 -23.95 -3.2 -23.7 L-3.2 -23.75 -3.25 -23.8 -3.25 -23.85 -3.45 -24.05 -3.55 -24.05 -3.65 -24.05 -3.5 -24.1 -3.35 -24.1 -3.05 -24.25 -2.6 -24.6 -2.25 -24.75 -1.95 -24.95 -1.85 -25.05 M-0.9 -26.55 L-0.7 -26.55 -0.75 -26.5 -0.8 -26.4 -0.9 -26.55 M0.4 -26.4 L0.6 -26.3 1.05 -25.85 1.1 -25.8 1.1 -25.75 1.1 -25.5 1.1 -25.3 1.05 -25.3 0.9 -25.4 0.8 -25.5 0.75 -25.6 0.7 -25.7 0.6 -25.8 0.55 -25.9 0.5 -26.0 0.45 -26.1 0.35 -26.15 0.3 -26.25 0.25 -26.35 0.2 -26.45 0.1 -26.55 0.2 -26.55 0.25 -26.5 0.4 -26.4" fill="#000000" fill-rule="evenodd" stroke="none"/>
  </g>
</svg>
