<?xml version="1.0" encoding="UTF-8" standalone="no"?>
<svg xmlns:ffdec="https://www.free-decompiler.com/flash" xmlns:xlink="http://www.w3.org/1999/xlink" ffdec:objectType="shape" height="27.85px" width="13.0px" xmlns="http://www.w3.org/2000/svg">
  <g transform="matrix(1.0, 0.0, 0.0, 1.0, 8.45, 26.25)">
    <path d="M4.5 -14.85 L4.5 -13.25 3.9 -11.65 2.9 -10.05 1.55 -7.65 1.1 -6.85 Q-0.1 -5.1 -0.55 -3.05 -0.85 -1.4 -0.6 0.2 L-0.3 1.6 -0.8 1.3 -1.3 1.35 -1.75 1.0 -2.6 -0.6 -3.25 -2.05 Q-4.35 -4.3 -5.8 -6.4 -6.8 -7.75 -7.45 -9.15 L-7.4 -9.25 -7.35 -9.3 -7.3 -9.5 -7.3 -9.6 -7.3 -9.7 -7.35 -9.8 -7.35 -9.9 -7.45 -10.05 -7.5 -10.15 -7.55 -10.25 -7.55 -10.35 -7.55 -10.45 -7.6 -10.55 -7.6 -10.65 -7.7 -10.8 -7.75 -10.9 -7.8 -11.0 -7.8 -11.1 -7.8 -11.2 -7.85 -11.3 -7.85 -11.4 -7.95 -11.55 -8.0 -11.65 -8.1 -11.75 -8.1 -11.85 -8.15 -11.95 -8.15 -12.05 -8.15 -12.15 -8.2 -12.25 -8.2 -12.3 -8.25 -12.4 -8.3 -12.8 -8.3 -13.25 -8.4 -13.55 -8.45 -14.0 -8.4 -15.15 -8.4 -15.45 -8.35 -15.55 -8.35 -15.65 -8.3 -15.75 -8.3 -15.8 -8.3 -15.9 -8.25 -16.0 -8.2 -16.1 -8.15 -16.2 -8.15 -16.3 -8.15 -16.4 -8.15 -16.5 -8.15 -16.55 -8.05 -16.85 -8.0 -17.05 -7.95 -17.15 -7.9 -17.25 -7.8 -17.4 -7.75 -17.5 -7.7 -17.6 -7.7 -17.7 -7.65 -17.8 -7.6 -17.9 -7.4 -18.1 -7.35 -18.15 -7.25 -18.25 -7.2 -18.35 -7.15 -18.45 -6.9 -18.7 -6.4 -19.2 -5.75 -19.75 -5.7 -19.85 -5.7 -19.95 -5.45 -20.1 -5.2 -20.35 -5.1 -20.4 -4.9 -20.5 -4.75 -20.6 -4.7 -20.7 -4.6 -20.8 -4.6 -20.9 -4.5 -21.0 -4.45 -21.1 -4.35 -21.15 -4.05 -21.35 -3.85 -21.55 -3.75 -21.65 -3.7 -21.75 -3.7 -21.8 -3.5 -22.0 -3.4 -22.1 -3.3 -22.2 -3.25 -22.3 -3.2 -22.4 -3.15 -22.5 -3.05 -22.55 -2.95 -22.65 -2.85 -22.75 -2.85 -22.85 -2.7 -23.15 -2.6 -23.35 -2.55 -23.4 -2.55 -23.6 -2.55 -23.8 -2.6 -23.9 -2.6 -24.0 -2.7 -24.05 -2.35 -24.4 -1.4 -25.5 -1.4 -25.75 -1.25 -25.9 -1.15 -26.0 -1.1 -26.05 -1.05 -26.15 -0.95 -26.2 -0.8 -26.25 -0.65 -26.2 Q-0.9 -25.75 -0.65 -25.25 L-0.05 -24.25 0.1 -24.0 2.5 -20.7 2.6 -20.45 3.3 -18.7 4.3 -15.7 4.5 -14.85 M1.3 -21.0 L-0.2 -23.3 Q-0.1 -24.1 -1.0 -24.05 L-1.35 -24.0 -2.3 -22.8 -2.4 -22.7 -3.1 -22.15 -4.0 -21.15 -4.9 -20.2 -5.05 -20.0 -6.05 -18.7 -6.25 -18.5 -6.4 -18.1 Q-7.5 -16.45 -7.3 -14.5 L-7.2 -13.85 -7.1 -12.25 -7.1 -11.75 -6.85 -10.35 Q-6.8 -9.75 -6.4 -9.25 L-5.6 -7.95 -4.7 -6.15 -3.6 -4.2 -2.95 -3.05 Q-2.55 -2.3 -1.85 -2.35 L-1.7 -2.4 -1.65 -2.45 -1.55 -2.35 -1.55 -2.6 -1.45 -2.7 Q-1.1 -6.1 1.15 -8.7 2.3 -10.0 3.25 -11.45 4.15 -12.8 3.9 -14.45 3.5 -16.65 2.6 -18.7 L1.3 -21.0" fill="#000000" fill-rule="evenodd" stroke="none"/>
  </g>
</svg>
