<?xml version="1.0" encoding="UTF-8" standalone="no"?>
<svg xmlns:ffdec="https://www.free-decompiler.com/flash" xmlns:xlink="http://www.w3.org/1999/xlink" ffdec:objectType="shape" height="17.4px" width="22.3px" xmlns="http://www.w3.org/2000/svg">
  <g transform="matrix(1.0, 0.0, 0.0, 1.0, 10.15, 32.05)">
    <path d="M-0.9 -31.1 L-0.75 -31.25 -0.65 -31.4 -0.6 -31.55 -0.55 -31.7 -0.4 -31.75 0.7 -32.05 Q-0.65 -30.15 -2.05 -29.65 L-2.05 -29.7 -2.1 -29.85 -2.0 -30.0 -1.8 -30.3 -1.65 -30.5 -1.45 -30.8 -1.2 -30.9 -1.0 -30.95 -0.9 -31.1" fill="#00b3ff" fill-rule="evenodd" stroke="none"/>
    <path d="M4.75 -29.4 L5.55 -28.75 6.2 -28.1 5.95 -28.75 5.85 -29.1 Q5.85 -31.7 8.55 -27.8 L8.35 -27.1 Q8.15 -26.7 7.65 -26.9 7.55 -25.95 7.1 -25.95 L6.7 -25.95 6.25 -25.55 5.95 -24.6 Q5.8 -24.1 5.35 -24.1 5.2 -24.1 5.1 -24.25 L4.8 -24.4 3.9 -24.25 Q3.75 -24.1 3.75 -23.65 L4.2 -23.0 4.65 -22.05 Q4.65 -21.35 4.0 -21.05 L4.2 -20.7 4.35 -20.25 3.4 -18.25 2.4 -16.4 Q1.2 -16.4 0.7 -17.75 0.45 -18.5 0.45 -19.25 0.45 -19.75 1.2 -20.5 1.95 -21.2 1.95 -21.6 L1.75 -22.1 1.55 -22.6 1.7 -23.05 2.05 -23.5 1.65 -24.15 1.55 -24.7 1.65 -26.15 Q1.65 -26.55 1.8 -26.75 2.05 -27.2 2.65 -26.95 2.65 -28.15 3.7 -28.9 L4.75 -29.4 M11.4 -14.95 L10.95 -14.65 Q9.8 -14.65 8.75 -15.45 L7.95 -16.35 8.6 -17.9 10.05 -19.9 Q10.95 -20.85 11.5 -20.65 12.15 -20.4 12.15 -18.4 L11.85 -17.25 11.55 -15.6 11.4 -14.95 M-7.4 -27.85 Q-6.95 -27.4 -6.95 -26.75 L-7.05 -26.0 -7.2 -25.15 Q-6.65 -25.15 -6.15 -24.3 -5.75 -23.6 -5.75 -23.15 -5.75 -22.45 -6.3 -21.3 -7.0 -19.8 -7.85 -19.8 -8.65 -19.8 -8.65 -20.65 L-8.4 -21.9 -9.4 -21.9 Q-9.85 -21.9 -10.05 -22.4 L-10.15 -22.9 -10.05 -26.0 Q-10.05 -27.05 -9.55 -27.65 -9.15 -28.15 -8.5 -28.15 L-7.4 -27.85" fill="#8adcff" fill-rule="evenodd" stroke="none"/>
  </g>
</svg>
