<?xml version="1.0" encoding="UTF-8" standalone="no"?>
<svg xmlns:ffdec="https://www.free-decompiler.com/flash" xmlns:xlink="http://www.w3.org/1999/xlink" ffdec:objectType="shape" height="26.2px" width="12.7px" xmlns="http://www.w3.org/2000/svg">
  <g transform="matrix(1.0, 0.0, 0.0, 1.0, 8.75, 24.95)">
    <path d="M2.65 -3.35 L0.95 0.0 Q0.2 1.7 -0.45 1.05 L-0.85 0.25 -0.9 -0.8 -1.45 -2.8 -1.55 -3.15 -2.45 -3.8 -3.7 -5.4 Q-4.3 -6.35 -4.3 -6.85 -4.3 -7.35 -4.85 -8.3 L-6.1 -10.15 Q-7.9 -12.85 -7.9 -14.9 L-7.85 -15.85 Q-8.75 -16.15 -8.75 -17.25 L-8.55 -18.7 -8.3 -19.65 Q-7.55 -21.85 -6.0 -21.85 L-5.4 -21.7 Q-3.1 -24.95 -0.6 -24.95 0.1 -24.95 0.95 -21.45 L1.55 -18.7 2.05 -15.95 3.05 -11.8 3.95 -6.95 Q3.95 -5.85 2.65 -3.35" fill="#00b3ff" fill-rule="evenodd" stroke="none"/>
    <path d="M1.6 -13.45 Q2.25 -13.45 2.25 -12.9 L2.2 -12.05 2.45 -11.25 2.6 -10.6 Q2.6 -10.2 1.95 -9.8 L0.8 -9.0 0.4 -7.9 Q-0.05 -7.3 -1.0 -7.2 -2.0 -7.15 -2.35 -7.75 L-3.0 -8.85 Q-3.3 -9.7 -3.95 -9.9 L-4.35 -10.05 -4.5 -10.6 -4.0 -11.55 -3.3 -12.25 Q-2.7 -12.25 -1.95 -11.7 L-0.8 -10.8 0.0 -12.25 0.4 -13.05 0.8 -13.4 1.6 -13.45 M0.2 -18.75 L0.2 -18.7 0.1 -18.45 Q-0.05 -18.15 -0.4 -18.15 L-0.8 -18.25 -1.15 -18.35 -1.4 -18.05 Q-1.65 -17.75 -1.9 -17.75 L-2.55 -17.9 -2.6 -18.1 -2.9 -18.15 -3.6 -18.7 -3.65 -18.75 -4.35 -19.45 -4.55 -19.05 Q-4.7 -18.85 -5.0 -18.85 -5.35 -18.85 -5.5 -19.2 L-5.6 -19.6 -5.0 -21.1 Q-4.2 -22.35 -3.3 -22.35 L-2.6 -22.05 -2.0 -21.3 -1.7 -21.25 -1.4 -21.35 -1.15 -21.45 Q-0.2 -21.45 0.1 -20.15 L0.2 -18.75" fill="#8adcff" fill-rule="evenodd" stroke="none"/>
  </g>
</svg>
