<?xml version="1.0" encoding="UTF-8" standalone="no"?>
<svg xmlns:ffdec="https://www.free-decompiler.com/flash" xmlns:xlink="http://www.w3.org/1999/xlink" ffdec:objectType="shape" height="17.7px" width="24.0px" xmlns="http://www.w3.org/2000/svg">
  <g transform="matrix(1.0, 0.0, 0.0, 1.0, 11.35, 32.2)">
    <path d="M-0.65 -31.4 L-0.6 -31.55 -0.55 -31.7 -0.4 -31.75 1.0 -32.2 Q-0.2 -30.95 -1.55 -30.65 L-1.45 -30.8 -1.2 -30.9 -1.0 -30.95 -0.9 -31.1 -0.75 -31.25 -0.65 -31.4" fill="#00b3ff" fill-rule="evenodd" stroke="none"/>
    <path d="M3.9 -26.0 L4.3 -25.85 4.7 -25.65 Q4.4 -26.55 5.1 -27.25 L6.1 -27.95 6.65 -27.55 7.15 -27.2 Q7.4 -28.9 8.3 -28.25 L8.9 -27.5 9.15 -26.75 8.95 -25.95 8.75 -25.2 Q8.75 -24.3 7.25 -23.2 L6.2 -22.4 5.75 -21.6 5.95 -20.8 6.15 -20.25 5.95 -19.65 5.75 -19.0 5.2 -17.7 Q4.65 -16.55 4.3 -16.55 3.1 -16.55 2.45 -17.3 1.95 -17.9 1.95 -18.35 L2.35 -19.35 2.75 -20.25 2.8 -20.7 3.1 -21.05 Q2.85 -21.3 2.85 -21.8 L3.0 -22.55 Q2.45 -23.15 2.45 -23.8 L2.6 -24.4 3.3 -24.7 3.25 -24.75 3.25 -25.15 3.35 -25.65 3.9 -26.0 M10.35 -15.45 L9.95 -16.35 Q9.95 -17.4 10.35 -17.8 10.75 -18.2 11.3 -18.05 11.85 -17.8 12.2 -17.25 L12.65 -15.6 Q12.65 -14.5 11.45 -14.5 10.85 -14.5 10.35 -15.45 M-10.85 -26.6 L-10.05 -27.85 Q-9.55 -28.3 -9.25 -27.7 -8.85 -27.1 -8.85 -25.15 L-8.05 -23.65 -7.25 -22.05 -7.7 -20.35 Q-8.2 -18.95 -8.5 -18.95 -8.95 -18.95 -9.1 -19.35 L-9.15 -19.9 -9.05 -20.35 -8.85 -20.85 -9.1 -21.0 -9.4 -21.05 -9.65 -20.9 -9.95 -20.7 Q-10.6 -20.7 -11.05 -21.95 L-11.35 -23.3 -11.3 -24.1 -11.25 -25.2 -10.85 -26.6" fill="#8adcff" fill-rule="evenodd" stroke="none"/>
  </g>
</svg>
