<?xml version="1.0" encoding="UTF-8" standalone="no"?>
<svg xmlns:ffdec="https://www.free-decompiler.com/flash" xmlns:xlink="http://www.w3.org/1999/xlink" ffdec:objectType="shape" height="25.0px" width="12.05px" xmlns="http://www.w3.org/2000/svg">
  <g transform="matrix(1.0, 0.0, 0.0, 1.0, 7.8, 24.6)">
    <path d="M0.25 -23.9 L0.05 -22.45 -0.15 -21.4 -0.05 -21.25 0.0 -20.95 -0.1 -20.65 -0.05 -20.2 0.15 -19.0 0.1 -18.7 -0.1 -16.8 -0.35 -14.05 -0.3 -13.15 0.35 -11.75 0.9 -9.85 1.4 -8.25 2.75 -5.55 Q3.7 -3.55 3.7 -2.6 L3.6 -2.35 4.25 -0.55 3.95 0.1 3.25 0.4 Q2.3 0.5 2.0 -0.9 L0.8 -3.55 0.75 -3.6 -1.0 -5.65 -2.15 -7.15 -2.55 -7.55 -4.25 -9.65 -4.7 -10.2 -6.2 -12.6 -6.6 -13.7 Q-7.05 -14.1 -7.35 -14.85 L-7.8 -16.65 -7.5 -18.7 Q-7.05 -20.35 -5.85 -21.85 -3.8 -24.25 -1.1 -24.25 L-0.55 -24.6 Q0.0 -24.6 0.2 -24.25 L0.25 -23.9 M-1.3 -8.9 L-1.25 -8.95 -1.4 -9.0 -1.3 -8.9" fill="#00b3ff" fill-rule="evenodd" stroke="none"/>
    <path d="M1.8 -7.95 Q1.8 -7.25 1.15 -7.1 L0.0 -7.05 -0.25 -6.95 Q-0.4 -6.85 -0.5 -6.85 -0.9 -6.85 -1.3 -7.55 L-1.6 -8.25 -0.8 -9.3 0.05 -10.15 Q0.85 -10.15 1.4 -9.05 L1.8 -7.95 M-0.3 -18.6 Q-0.3 -16.6 -1.85 -16.45 L-3.15 -16.65 -4.25 -17.4 -5.1 -17.05 -5.7 -16.95 Q-6.05 -16.95 -6.25 -17.4 L-6.4 -17.85 -6.1 -18.7 -5.4 -19.6 -4.2 -20.55 -2.9 -20.05 -2.05 -19.6 -1.6 -19.75 -1.05 -19.85 Q-0.5 -19.85 -0.35 -19.25 L-0.3 -18.7 -0.3 -18.6" fill="#8adcff" fill-rule="evenodd" stroke="none"/>
  </g>
</svg>
