<?xml version="1.0" encoding="UTF-8" standalone="no"?>
<svg xmlns:ffdec="https://www.free-decompiler.com/flash" xmlns:xlink="http://www.w3.org/1999/xlink" ffdec:objectType="shape" height="25.0px" width="7.9px" xmlns="http://www.w3.org/2000/svg">
  <g transform="matrix(1.0, 0.0, 0.0, 1.0, 5.6, 26.4)">
    <path d="M0.4 -4.2 L0.7 -2.35 Q0.7 -1.8 0.35 -1.55 L-0.3 -1.45 -1.0 -1.95 -1.2 -2.45 -1.45 -2.6 -2.9 -4.2 -4.15 -6.8 -4.85 -9.3 -5.45 -12.0 -5.45 -12.2 -5.45 -12.3 -5.25 -13.4 -5.2 -13.7 -5.15 -14.5 -5.35 -14.85 -5.6 -15.35 -5.1 -16.85 -4.4 -18.7 -3.9 -19.85 Q-2.55 -22.9 -1.6 -23.75 L-1.65 -24.1 -1.4 -24.5 -0.75 -24.7 Q0.45 -24.7 1.5 -21.25 L2.15 -18.7 2.3 -17.8 Q2.3 -14.7 1.2 -10.15 L0.45 -7.2 0.15 -5.7 0.4 -4.2" fill="#00b3ff" fill-rule="evenodd" stroke="none"/>
    <path d="M1.05 -25.85 L1.1 -25.8 1.1 -25.75 Q0.8 -25.8 0.45 -26.4 L0.6 -26.3 1.05 -25.85 M1.45 -16.15 L1.25 -14.95 Q0.85 -13.15 0.0 -13.15 L-0.55 -13.5 -1.1 -13.8 -1.65 -13.5 -2.05 -13.0 Q-2.25 -12.8 -2.45 -13.0 L-3.0 -14.05 -4.25 -14.35 Q-4.6 -14.45 -4.6 -15.0 L-4.3 -16.4 Q-3.95 -17.55 -3.45 -17.55 -3.0 -17.55 -2.85 -17.25 L-2.55 -16.95 -2.3 -16.85 Q-2.15 -16.7 -2.0 -16.7 L-1.3 -16.9 -0.45 -17.05 -0.1 -17.15 0.3 -17.25 0.55 -17.35 0.85 -17.45 1.45 -17.15 1.5 -16.8 1.45 -16.15 M-2.3 -6.4 L-2.7 -7.15 -2.55 -7.75 -1.5 -7.95 Q-0.75 -7.95 -0.3 -6.7 L0.0 -5.3 Q0.0 -3.4 -1.35 -5.05 L-2.3 -6.4" fill="#8adcff" fill-rule="evenodd" stroke="none"/>
  </g>
</svg>
