<?xml version="1.0" encoding="UTF-8" standalone="no"?>
<svg xmlns:ffdec="https://www.free-decompiler.com/flash" xmlns:xlink="http://www.w3.org/1999/xlink" ffdec:objectType="shape" height="28.45px" width="9.35px" xmlns="http://www.w3.org/2000/svg">
  <g transform="matrix(1.0, 0.0, 0.0, 1.0, 6.15, 26.25)">
    <path d="M2.05 -18.7 Q1.65 -20.55 0.45 -22.5 L-0.75 -24.25 -1.15 -23.65 -2.75 -21.65 -4.35 -18.7 Q-5.05 -16.9 -5.05 -15.0 L-5.05 -14.6 -5.1 -14.5 -5.1 -14.4 -5.15 -14.35 -5.2 -14.25 -5.2 -13.5 -5.2 -12.55 -5.1 -11.8 -5.05 -11.6 -5.05 -11.35 -5.05 -11.15 -5.05 -11.05 -5.0 -10.95 -5.0 -10.85 -4.95 -10.75 -4.95 -10.65 -4.95 -10.6 -4.95 -10.5 -4.95 -10.4 -4.85 -10.1 -4.75 -9.85 -4.7 -9.65 -4.7 -9.55 -4.7 -9.45 -4.65 -9.35 -4.65 -9.25 -4.4 -8.8 -4.05 -8.05 -3.8 -7.5 -3.8 -7.4 -3.75 -7.3 -3.55 -6.85 -3.3 -6.35 -3.2 -6.1 -3.1 -6.0 -3.0 -5.9 -2.9 -5.8 -2.85 -5.7 -2.8 -5.6 -2.75 -5.5 -2.6 -5.4 -2.55 -5.35 -2.4 -5.05 -2.25 -4.75 -2.05 -4.6 -2.0 -4.5 -1.95 -4.4 -1.9 -4.3 -1.8 -4.2 -1.7 -4.1 -1.55 -4.0 -1.35 -3.95 0.0 -2.2 -0.1 -3.9 -0.15 -5.65 Q-0.15 -7.85 1.05 -11.55 2.3 -15.25 2.3 -16.7 L2.05 -18.7 M3.05 -21.0 L3.05 -21.1 3.2 -20.8 3.05 -21.0 M0.75 -23.5 L0.8 -23.3 0.9 -23.1 0.95 -23.0 1.0 -22.9 1.05 -22.8 1.1 -22.75 1.1 -22.65 1.15 -22.55 1.2 -22.45 1.3 -22.35 1.3 -22.25 1.35 -22.15 1.4 -22.1 1.45 -22.0 1.45 -21.9 1.5 -21.8 1.5 -21.7 1.6 -21.5 1.65 -21.4 1.7 -21.3 1.7 -21.25 1.75 -21.15 1.8 -21.05 1.8 -20.95 1.8 -20.85 1.8 -20.75 1.8 -20.65 1.95 -20.4 2.45 -19.35 2.65 -18.7 2.7 -18.6 2.85 -18.35 2.9 -18.2 2.9 -18.15 2.85 -18.1 2.8 -18.0 2.8 -17.9 2.8 -17.7 2.8 -17.6 2.85 -17.5 2.85 -17.4 2.9 -17.35 2.95 -17.25 2.95 -17.15 2.95 -17.05 2.95 -16.95 2.95 -16.85 2.9 -16.75 2.85 -16.65 2.8 -16.0 2.85 -15.1 2.75 -14.5 2.7 -14.4 2.7 -13.95 2.65 -13.6 2.6 -13.4 2.6 -13.3 2.55 -13.2 2.55 -13.1 2.55 -13.0 2.5 -12.9 2.45 -12.85 2.45 -12.75 2.45 -12.65 2.45 -12.55 2.45 -12.45 2.4 -12.35 2.35 -12.25 2.3 -12.15 2.3 -12.1 2.3 -12.0 2.3 -11.9 2.15 -11.3 2.0 -10.85 1.95 -10.65 1.9 -10.55 1.85 -10.5 1.8 -10.4 1.8 -10.3 1.8 -10.2 1.8 -10.1 1.55 -9.55 1.25 -8.7 1.05 -8.25 1.05 -8.15 1.05 -7.95 1.05 -7.85 1.05 -7.75 1.05 -7.65 1.0 -7.6 1.0 -7.5 0.95 -7.4 0.95 -7.3 0.95 -7.0 0.95 -6.85 0.9 -6.75 0.85 -6.65 0.85 -6.55 0.8 -6.45 0.8 -6.35 0.8 -6.25 0.8 -6.15 0.75 -6.1 0.75 -6.0 0.7 -5.9 0.7 -5.8 0.7 -5.5 0.7 -5.35 0.7 -5.25 0.7 -5.15 0.75 -5.05 0.75 -4.95 0.8 -4.85 0.8 -4.75 0.8 -4.6 0.8 -4.1 0.85 -3.75 0.85 -3.55 0.9 -3.45 0.95 -3.35 0.95 -3.25 0.95 -3.15 0.95 -3.1 0.95 -3.0 0.95 -2.9 1.0 -2.8 1.0 -2.7 1.05 -2.6 1.05 -2.5 1.05 -2.3 1.05 -2.05 1.05 -1.85 1.1 -1.75 1.1 -1.65 1.15 -1.6 1.2 -1.5 1.25 -1.4 1.3 -1.3 1.3 -1.2 1.3 -1.1 1.3 -0.9 1.35 -0.75 1.35 -0.65 1.4 -0.55 1.45 -0.45 1.45 -0.35 1.45 -0.25 1.5 -0.15 1.5 -0.1 1.55 0.0 1.6 0.1 1.65 0.2 1.7 0.3 1.7 0.4 1.75 0.5 1.8 0.6 1.8 0.65 1.8 0.75 1.8 0.85 1.8 0.95 1.85 1.05 1.9 1.15 1.9 1.25 1.95 1.35 1.95 1.4 1.95 1.5 2.0 1.6 2.05 1.7 2.05 1.8 2.05 1.9 2.1 2.0 2.2 2.15 2.2 2.2 Q2.0 2.2 1.7 2.0 L1.65 2.0 Q1.4 2.1 0.95 1.75 L0.95 1.7 0.95 1.5 0.9 1.4 0.85 1.35 0.75 1.25 0.6 0.95 0.35 0.5 0.25 0.2 0.2 0.1 0.2 0.0 0.15 -0.1 0.0 -0.25 -0.1 -0.35 -0.15 -0.45 -0.2 -0.55 -0.25 -0.65 -0.4 -0.85 -0.5 -0.9 -0.6 -1.0 -0.65 -1.1 -0.7 -1.2 -0.75 -1.3 -0.85 -1.4 -0.9 -1.5 -0.95 -1.6 -1.0 -1.65 -1.2 -1.85 -1.4 -2.05 -1.5 -2.15 -1.65 -2.45 -1.75 -2.6 -1.8 -2.7 -2.0 -2.9 -2.35 -3.25 -2.55 -3.45 -2.6 -3.55 -2.6 -3.65 -2.8 -3.85 -2.9 -3.9 -2.95 -4.0 -3.0 -4.1 -3.0 -4.2 -3.1 -4.3 -3.1 -4.4 -3.2 -4.5 -3.25 -4.6 -3.35 -4.65 -3.35 -4.75 -3.45 -4.85 -3.55 -4.95 -3.65 -5.05 -3.7 -5.15 -4.25 -6.05 -4.7 -6.5 -5.8 -10.3 -5.8 -10.4 -5.85 -10.5 -5.85 -10.6 -5.9 -10.7 -5.95 -10.85 -5.95 -11.25 -5.9 -11.9 -6.0 -12.3 -6.05 -12.75 -6.05 -13.25 -6.1 -13.4 -6.1 -13.5 -6.15 -13.6 -6.15 -13.7 -6.1 -13.8 -6.1 -13.9 -6.05 -14.0 -6.05 -14.1 -6.05 -14.45 -6.0 -14.75 -5.95 -14.8 -5.9 -15.2 -5.95 -15.75 -5.95 -16.05 -5.85 -16.15 -5.85 -16.25 -5.8 -16.35 -5.8 -16.4 -5.75 -16.5 -5.7 -16.6 -5.7 -16.7 -5.7 -16.8 -5.7 -17.0 -5.7 -17.1 -5.7 -17.15 -5.6 -17.25 -5.6 -17.35 -5.55 -17.45 -5.55 -17.55 -5.55 -17.65 -5.5 -17.75 -5.45 -17.85 -5.45 -17.9 -5.45 -18.0 -5.4 -18.1 -5.35 -18.2 -5.3 -18.3 -5.3 -18.4 -5.2 -18.6 -5.15 -18.7 -5.1 -18.75 -5.1 -18.85 -5.05 -18.95 -4.95 -19.05 -4.85 -19.15 -4.85 -19.25 -4.8 -19.35 -4.8 -19.4 -4.75 -19.5 -4.6 -19.9 -4.5 -20.05 -4.45 -20.15 -4.35 -20.25 -4.35 -20.35 -4.2 -20.65 -4.15 -20.85 -4.1 -20.9 -4.0 -21.0 -3.9 -21.1 -3.85 -21.2 -3.8 -21.3 -3.8 -21.4 -3.75 -21.5 -3.7 -21.6 -3.7 -21.65 -3.65 -21.75 -3.65 -21.85 -3.45 -22.05 -3.1 -22.45 -2.95 -22.6 -2.95 -22.7 -2.9 -22.8 -2.85 -22.9 -2.75 -23.0 -2.7 -23.1 -2.6 -23.25 -2.6 -23.35 -2.55 -23.45 -2.25 -23.75 -2.1 -23.9 -2.0 -24.0 -1.95 -24.1 -1.9 -24.2 -1.85 -24.3 -1.75 -24.4 -1.65 -24.5 -1.55 -24.6 -1.5 -24.65 -1.45 -24.75 -1.4 -24.85 -1.4 -24.95 -1.45 -25.05 -1.45 -25.15 -1.5 -25.25 -1.55 -25.3 -1.65 -25.4 -1.55 -25.45 -1.45 -25.6 -1.25 -25.9 -1.15 -26.0 -1.1 -26.05 -1.05 -26.15 -0.65 -26.25 -0.65 -26.2 -0.65 -26.1 -0.65 -26.0 -0.6 -25.85 -0.5 -25.65 -0.45 -25.55 -0.4 -25.45 -0.35 -25.35 -0.2 -25.25 -0.15 -25.15 -0.05 -25.0 0.05 -24.8 0.1 -24.7 0.1 -24.6 0.3 -24.25 0.5 -23.85 0.6 -23.65 0.7 -23.55 0.75 -23.5" fill="#000000" fill-rule="evenodd" stroke="none"/>
  </g>
</svg>
