<?xml version="1.0" encoding="UTF-8" standalone="no"?>
<svg xmlns:ffdec="https://www.free-decompiler.com/flash" xmlns:xlink="http://www.w3.org/1999/xlink" ffdec:objectType="shape" height="26.35px" width="62.1px" xmlns="http://www.w3.org/2000/svg">
  <g transform="matrix(1.0, 0.0, 0.0, 1.0, 31.35, 13.9)">
    <path d="M1.8 -0.65 L2.35 -0.75 2.35 -0.6 1.8 -0.65 M26.85 0.05 L26.85 0.8 26.75 0.95 26.0 0.95 26.0 0.05 26.15 -0.05 26.2 0.0 26.3 0.0 26.25 0.1 26.25 0.2 26.6 0.55 26.6 0.15 26.85 0.05 M25.2 0.35 L25.25 0.25 25.35 0.35 25.2 0.35 M9.1 0.95 L7.9 0.95 7.95 0.5 7.95 0.45 8.0 0.25 6.25 0.35 5.6 0.25 5.15 0.25 5.35 -0.05 Q5.6 0.25 6.25 0.25 L7.8 0.0 8.25 0.45 8.8 0.9 9.15 0.75 9.1 0.85 9.1 0.95 M-0.5 0.45 L1.1 0.2 1.3 0.25 0.75 0.35 0.7 0.45 0.65 0.45 -0.5 0.45 M3.3 0.0 L3.3 -0.15 3.4 0.05 3.3 0.0 M9.2 0.65 L9.2 0.45 Q9.2 -0.05 9.75 -0.05 L10.25 0.1 9.95 0.1 9.45 0.25 9.2 0.65 M12.35 0.25 L12.65 0.1 12.8 0.4 12.7 0.35 12.35 0.25 M14.85 0.35 L15.05 0.15 Q15.15 0.45 15.9 0.45 L16.4 0.4 16.5 0.45 Q16.95 0.45 17.1 0.1 L21.85 -0.05 22.3 0.1 21.8 0.0 21.6 0.0 19.3 0.35 19.25 0.45 19.15 0.45 14.85 0.35 M-23.95 0.45 L-23.9 0.25 -23.85 -0.2 -23.55 0.0 -23.2 -0.05 -22.7 0.0 -20.85 -0.25 -20.25 -0.35 -18.9 -0.5 -18.85 -0.5 -16.75 -0.25 -16.5 -0.3 -16.4 0.15 -17.75 0.35 -17.85 0.45 -17.9 0.45 -22.3 0.35 -22.45 0.35 -22.5 0.35 -22.6 0.4 -23.95 0.45 M-26.25 0.95 L-26.5 0.95 -26.5 0.9 -26.5 0.8 -26.6 0.6 -26.7 0.35 -26.7 0.15 -26.7 0.05 -26.75 0.0 -26.7 -0.05 Q-26.65 0.2 -25.9 0.25 L-26.25 0.85 -26.25 0.95 M-25.85 0.2 L-25.85 0.1 -25.55 0.0 -25.45 0.25 -25.85 0.2 M-24.45 0.15 L-24.25 0.1 -24.2 0.1 -24.2 0.2 -24.45 0.15 M-14.65 -0.5 L-14.7 -0.5 -14.65 -0.65 -14.65 -0.5 M-10.2 -0.15 L-10.1 -0.15 -10.1 -0.05 -10.0 -0.05 -10.2 0.0 -10.5 -0.15 -10.2 -0.15 M-9.5 -0.3 L-9.45 -0.4 -9.4 -0.4 -9.5 -0.3 M-5.2 0.45 L-4.7 -0.2 -4.3 -0.25 -4.35 0.35 -4.35 0.45 -5.2 0.45 M-9.45 0.95 L-9.65 0.95 -9.45 0.8 -9.4 0.7 -9.45 0.85 -9.45 0.95 M-6.75 0.25 L-6.5 -0.15 -6.15 0.25 -6.75 0.25 M-2.7 -0.3 L-1.95 -0.35 -2.7 -0.05 -3.25 -0.05 -3.25 -0.25 -2.7 -0.3" fill="#504627" fill-rule="evenodd" stroke="none"/>
    <path d="M25.35 0.35 L25.45 0.4 25.45 0.45 Q25.45 0.8 25.7 0.95 L25.35 0.95 25.35 0.8 25.4 0.75 25.4 0.7 25.45 0.65 25.45 0.6 25.4 0.6 25.3 0.5 25.05 0.5 25.1 0.65 25.1 0.7 25.05 0.75 25.05 0.8 25.0 0.85 24.85 0.9 24.65 0.95 24.3 0.95 24.55 0.45 24.75 0.45 25.2 0.35 25.35 0.35 M10.0 0.95 L9.1 0.95 9.1 0.85 9.15 0.75 9.2 0.65 9.45 0.25 9.95 0.1 10.25 0.1 10.35 0.1 10.75 0.15 12.2 0.25 12.3 0.25 12.35 0.25 12.7 0.35 12.8 0.4 13.25 0.8 13.65 0.85 Q14.4 0.85 14.85 0.35 L19.15 0.45 19.25 0.45 19.3 0.35 21.6 0.0 21.8 0.0 22.3 0.1 22.4 0.15 23.05 0.45 23.2 0.45 23.25 0.65 23.4 0.85 22.0 0.9 21.8 0.9 21.7 0.85 21.6 0.9 21.55 0.9 14.15 0.85 14.05 0.9 14.0 0.9 13.7 0.9 13.35 0.85 13.3 0.85 13.25 0.8 13.1 0.8 13.05 0.75 10.8 0.65 10.25 0.6 10.1 0.6 10.1 0.75 10.0 0.95 M7.9 0.95 L6.8 0.95 6.8 0.8 6.85 0.75 6.85 0.7 6.9 0.65 6.9 0.6 6.85 0.6 6.75 0.5 6.45 0.5 6.6 0.65 6.6 0.7 6.55 0.75 6.45 0.8 6.4 0.85 6.3 0.9 6.1 0.95 5.75 0.95 5.5 0.95 5.35 0.95 4.9 0.85 3.5 0.9 3.3 0.9 3.15 0.85 3.05 0.9 3.0 0.9 -2.7 0.9 -0.5 0.45 0.65 0.45 0.7 0.45 0.75 0.35 1.3 0.25 2.4 0.45 Q3.0 0.45 3.15 0.1 L3.3 0.0 3.4 0.05 3.4 0.1 Q3.9 0.6 4.7 0.6 L5.15 0.25 5.6 0.25 6.25 0.35 8.0 0.25 7.95 0.45 7.9 0.45 7.95 0.5 7.9 0.95 M-16.4 0.15 Q-16.1 0.75 -15.5 0.75 L-15.0 0.45 -14.9 0.45 -13.0 0.45 -11.65 0.45 Q-11.25 0.45 -10.9 0.95 L-11.7 0.95 -11.7 0.8 -11.7 0.7 -11.65 0.65 -11.65 0.6 -11.7 0.6 -11.75 0.5 -12.05 0.5 -11.9 0.65 -11.9 0.7 -11.95 0.75 -12.05 0.8 -12.1 0.85 -12.15 0.9 -12.4 0.95 -13.1 0.95 -13.65 0.85 -15.05 0.9 -15.3 0.9 -15.4 0.85 -15.45 0.9 -15.5 0.9 -22.9 0.85 -22.95 0.9 -23.0 0.9 -23.3 0.9 -23.7 0.85 -23.8 0.85 -23.8 0.8 -24.0 0.8 -24.05 0.75 -24.2 0.75 -24.2 0.7 -24.25 0.7 -24.6 0.65 -25.1 0.6 -25.2 0.6 -25.2 0.7 -25.2 0.75 -25.3 0.95 -26.25 0.95 -26.25 0.85 -25.9 0.25 -25.85 0.25 -25.85 0.2 -25.45 0.25 -24.5 0.15 -24.45 0.15 -24.2 0.2 -24.2 0.7 -23.95 0.45 -22.6 0.4 -22.5 0.35 -22.45 0.35 -22.3 0.35 -17.9 0.45 -17.85 0.45 -17.75 0.35 -16.4 0.15 M-4.35 0.45 L-3.9 0.9 -4.4 0.85 -4.5 0.9 -4.55 0.9 -4.8 0.9 -5.1 0.85 -5.2 0.85 -5.25 0.8 -5.45 0.8 -5.6 0.75 -7.75 0.65 -8.3 0.6 -8.35 0.6 -8.35 0.75 -8.45 0.95 -9.45 0.95 -9.45 0.85 -9.4 0.7 Q-8.8 0.2 -8.3 0.2 L-7.2 0.45 Q-6.9 0.45 -6.75 0.25 L-6.15 0.25 -5.65 0.45 -5.2 0.45 -4.35 0.45" fill="#635830" fill-rule="evenodd" stroke="none"/>
    <path d="M25.35 0.95 L24.65 0.95 24.85 0.9 25.0 0.85 25.05 0.8 25.05 0.75 25.1 0.7 25.1 0.65 25.05 0.5 25.3 0.5 25.4 0.6 25.45 0.6 25.45 0.65 25.4 0.7 25.4 0.75 25.35 0.8 25.35 0.95 M23.4 0.85 L23.55 0.95 10.0 0.95 10.1 0.75 10.1 0.6 10.25 0.6 10.8 0.65 13.05 0.75 13.1 0.8 13.25 0.8 13.3 0.85 13.35 0.85 13.7 0.9 14.0 0.9 14.05 0.9 14.15 0.85 21.55 0.9 21.6 0.9 21.7 0.85 21.8 0.9 22.0 0.9 23.4 0.85 M6.8 0.95 L6.1 0.95 6.3 0.9 6.4 0.85 6.45 0.8 6.55 0.75 6.6 0.7 6.6 0.65 6.45 0.5 6.75 0.5 6.85 0.6 6.9 0.6 6.9 0.65 6.85 0.7 6.85 0.75 6.8 0.8 6.8 0.95 M5.35 0.95 L-3.25 0.95 -2.7 0.9 3.0 0.9 3.05 0.9 3.15 0.85 3.3 0.9 3.5 0.9 4.9 0.85 5.35 0.95 M-11.7 0.95 L-12.4 0.95 -12.15 0.9 -12.1 0.85 -12.05 0.8 -11.95 0.75 -11.9 0.7 -11.9 0.65 -12.05 0.5 -11.75 0.5 -11.7 0.6 -11.65 0.6 -11.65 0.65 -11.7 0.7 -11.7 0.8 -11.7 0.95 M-13.1 0.95 L-25.3 0.95 -25.2 0.75 -25.2 0.7 -25.2 0.6 -25.1 0.6 -24.6 0.65 -24.25 0.7 -24.2 0.7 -24.2 0.75 -24.05 0.75 -24.0 0.8 -23.8 0.8 -23.8 0.85 -23.7 0.85 -23.3 0.9 -23.0 0.9 -22.95 0.9 -22.9 0.85 -15.5 0.9 -15.45 0.9 -15.4 0.85 -15.3 0.9 -15.05 0.9 -13.65 0.85 -13.1 0.95 M-3.9 0.9 L-3.6 0.95 -8.45 0.95 -8.35 0.75 -8.35 0.6 -8.3 0.6 -7.75 0.65 -5.6 0.75 -5.45 0.8 -5.25 0.8 -5.2 0.85 -5.1 0.85 -4.8 0.9 -4.55 0.9 -4.5 0.9 -4.4 0.85 -3.9 0.9" fill="#706436" fill-rule="evenodd" stroke="none"/>
    <path d="M7.95 0.45 L7.95 0.5 7.9 0.45 7.95 0.45" fill="#8b8b8b" fill-rule="evenodd" stroke="none"/>
    <path d="M2.2 -10.35 L2.95 -10.35 3.3 -10.25 3.35 -10.2 3.4 -10.15 3.4 -10.1 3.4 -10.0 3.4 -9.95 3.4 -9.85 3.4 -9.8 3.35 -9.65 3.3 -9.65 3.15 -9.55 3.05 -9.55 2.95 -9.55 2.9 -9.65 2.85 -9.8 2.8 -9.85 2.7 -9.95 2.7 -10.0 2.65 -10.05 2.6 -10.1 2.45 -10.25 2.2 -10.35 M1.85 -9.5 L1.5 -9.5 0.2 -9.5 0.25 -9.6 0.3 -9.65 1.7 -9.65 1.8 -9.6 1.85 -9.5 M-4.4 -9.45 L-4.5 -9.5 -4.5 -9.55 -4.55 -9.6 -4.55 -9.65 -4.6 -9.65 -4.6 -9.75 -4.65 -9.8 -4.65 -9.85 -4.65 -9.95 -4.6 -10.0 -4.6 -10.05 -4.55 -10.1 -3.85 -10.3 -3.75 -10.3 -1.65 -10.3 -1.7 -10.25 -1.7 -10.15 -1.95 -10.2 -2.25 -10.2 -4.1 -10.25 -4.2 -10.2 -4.3 -10.2 -4.35 -10.15 -4.45 -10.05 -4.5 -10.05 -4.5 -10.0 -4.55 -9.95 -4.55 -9.65 -4.5 -9.6 -4.45 -9.55 -4.45 -9.5 -4.4 -9.45 M-7.8 -9.65 L-7.9 -9.65 -7.95 -9.6 -8.0 -9.55 -8.1 -9.5 -8.2 -9.45 -8.3 -9.5 -8.5 -9.55 -8.6 -9.65 -8.65 -9.65 -13.0 -9.65 -13.0 -9.75 -13.05 -9.8 -13.1 -9.9 -13.1 -10.0 -13.15 -10.1 -13.15 -10.15 -13.1 -10.2 -13.1 -10.3 -13.05 -10.3 -12.75 -10.45 -11.3 -10.55 -9.95 -10.45 -9.95 -10.55 -9.9 -10.65 -9.0 -10.85 -8.65 -10.8 -5.9 -11.05 -5.1 -11.05 -4.85 -10.85 -4.8 -10.85 -4.8 -10.7 -4.75 -10.65 -4.75 -10.55 -4.8 -10.4 -4.8 -10.3 -4.85 -10.3 -4.9 -10.25 -4.95 -10.2 -7.75 -9.95 -7.75 -9.9 -7.75 -9.8 -7.8 -9.65 M18.65 -10.55 L19.05 -10.45 19.75 -10.25 19.8 -10.2 19.8 -10.1 19.9 -10.05 19.9 -9.85 19.8 -9.8 19.8 -9.65 19.75 -9.65 19.65 -9.55 19.5 -9.5 17.35 -9.85 15.7 -9.95 15.6 -9.9 15.2 -9.65 14.85 -9.5 14.75 -9.45 14.65 -9.5 14.55 -9.55 14.4 -9.65 14.4 -10.1 14.55 -10.25 15.1 -10.6 15.15 -10.6 Q15.4 -10.8 15.7 -10.85 L18.15 -10.6 18.65 -10.55" fill="#999999" fill-rule="evenodd" stroke="none"/>
    <path d="M8.3 -10.4 L8.45 -10.35 8.55 -10.3 8.55 -10.25 8.6 -10.2 8.6 -10.1 8.6 -10.0 8.55 -9.9 8.55 -9.85 8.3 -9.65 8.2 -9.6 5.45 -9.65 5.25 -9.75 5.2 -9.8 5.15 -9.85 5.15 -10.2 Q5.45 -10.55 5.95 -10.4 L6.7 -10.3 8.0 -10.3 8.25 -10.35 8.3 -10.4 M2.2 -10.35 L2.45 -10.25 2.6 -10.1 2.65 -10.05 2.7 -10.0 2.7 -9.95 2.8 -9.85 2.85 -9.8 2.9 -9.65 2.95 -9.55 2.95 -9.5 2.95 -9.35 2.95 -9.2 2.8 -9.15 2.7 -9.0 2.65 -9.0 2.45 -9.0 2.35 -9.0 2.25 -9.1 2.25 -9.15 2.15 -9.2 2.1 -9.35 2.05 -9.35 1.9 -9.5 1.85 -9.5 1.8 -9.6 1.7 -9.65 0.3 -9.65 0.25 -9.6 0.2 -9.5 0.2 -9.45 0.05 -9.35 -0.15 -9.3 -4.4 -9.45 -4.45 -9.5 -4.45 -9.55 -4.5 -9.6 -4.55 -9.65 -4.55 -9.95 -4.5 -10.0 -4.5 -10.05 -4.45 -10.05 -4.35 -10.15 -4.3 -10.2 -4.2 -10.2 -4.1 -10.25 -2.25 -10.2 -1.95 -10.2 -1.7 -10.15 -1.7 -10.25 -1.65 -10.3 -1.55 -10.3 -1.55 -10.35 -1.5 -10.4 -1.45 -10.45 -1.4 -10.45 -1.25 -10.55 1.65 -10.4 1.9 -10.4 2.2 -10.35 M-4.65 -9.85 L-4.7 -9.8 -4.75 -9.75 -4.8 -9.75 -5.45 -9.65 -7.8 -9.65 -7.75 -9.8 -7.75 -9.9 -7.75 -9.95 -4.95 -10.2 -4.9 -10.25 -4.85 -10.3 -4.8 -10.3 -4.8 -10.4 -4.75 -10.55 -4.75 -10.65 -4.8 -10.7 -4.75 -10.8 -4.35 -10.8 Q-4.1 -10.8 -3.95 -10.65 L-3.9 -10.6 -3.9 -10.4 -3.85 -10.35 -3.85 -10.3 -4.55 -10.1 -4.6 -10.05 -4.6 -10.0 -4.65 -9.95 -4.65 -9.85 M-13.0 -9.75 L-15.05 -9.8 -15.2 -9.85 -15.2 -9.9 -15.3 -9.95 -15.35 -10.0 -15.35 -10.1 -15.4 -10.15 -15.4 -10.3 -15.35 -10.3 -15.35 -10.35 -15.2 -10.4 Q-15.15 -10.6 -14.95 -10.6 L-9.9 -10.65 -9.95 -10.55 -9.95 -10.45 -11.3 -10.55 -12.75 -10.45 -13.05 -10.3 -13.1 -10.3 -13.1 -10.2 -13.15 -10.15 -13.15 -10.1 -13.1 -10.0 -13.1 -9.9 -13.05 -9.8 -13.0 -9.75 M26.6 -1.0 L26.55 -1.1 26.55 -1.15 26.6 -1.2 26.6 -1.0" fill="#cccccc" fill-rule="evenodd" stroke="none"/>
    <path d="M10.45 -9.85 L9.65 -9.8 10.25 -9.95 10.35 -9.9 10.45 -9.85 M11.65 -10.65 L13.1 -10.65 19.95 -10.45 Q19.9 -10.15 20.1 -9.95 L19.7 -10.0 16.85 -10.3 15.7 -10.2 Q15.1 -10.3 14.65 -9.85 L14.65 -9.75 13.15 -10.2 11.75 -10.6 11.65 -10.65 M23.7 -10.15 L24.15 -10.0 Q25.1 -9.35 25.25 -8.35 L25.25 -6.85 25.45 -3.55 25.5 -2.6 25.4 -2.6 25.2 -2.55 24.7 -2.55 24.65 -3.45 24.85 -4.05 Q25.25 -4.95 25.25 -5.8 25.25 -7.8 24.6 -9.2 L24.3 -9.55 24.3 -9.6 24.25 -9.65 23.95 -9.9 23.8 -10.0 23.7 -10.15 M25.6 -1.35 L25.6 -0.4 25.45 0.4 25.35 0.35 25.25 0.25 25.2 0.35 24.85 0.45 24.7 0.45 24.6 0.45 24.3 0.45 24.25 0.35 24.15 0.2 24.1 0.15 23.95 0.1 23.75 -0.05 23.7 -0.15 23.75 -0.5 23.75 -1.65 23.75 -1.9 23.85 -1.75 Q24.4 -1.0 24.75 -1.0 25.2 -1.0 25.35 -1.3 L25.4 -1.3 25.6 -1.35 M26.65 1.25 L26.65 1.35 26.65 1.45 26.7 1.6 26.7 1.7 26.75 1.8 26.75 1.9 26.75 2.0 26.15 2.0 26.0 1.9 26.0 1.7 25.9 1.7 25.95 1.65 26.0 1.45 26.0 1.25 26.35 1.25 26.5 1.25 26.65 1.25 M-24.1 -0.05 L-24.05 -0.3 -24.05 -0.4 -23.9 -0.65 -23.85 -0.85 -23.85 -0.4 -23.85 -0.25 -24.1 -0.05 M-3.95 1.6 L-3.9 1.6 -3.75 1.7 -3.75 1.85 -3.8 1.85 -10.2 2.05 -12.3 2.05 -12.3 1.95 -12.25 1.85 -12.2 1.7 -12.1 1.6 -12.0 1.6 -11.95 1.5 -11.85 1.5 -11.5 1.6 -11.25 1.65 -7.55 1.65 -7.4 1.6 -6.8 1.4 -6.8 1.3 -5.0 1.45 -3.95 1.6 M-4.8 0.0 L-5.2 0.45 -5.3 0.45 -5.9 0.4 Q-5.5 0.35 -5.4 0.1 L-5.2 0.15 -4.95 -0.05 -4.85 -0.05 -4.8 0.0 M-12.1 -3.2 L-13.05 -3.25 -12.9 -3.35 -12.5 -3.35 -12.1 -3.2 M-16.3 -0.4 L-16.1 -0.65 -16.1 -0.4 -16.1 -0.35 -16.3 -0.4 M-16.55 -3.0 L-17.05 -3.15 -16.6 -3.4 -16.55 -3.2 -16.55 -3.15 -16.55 -3.05 -16.55 -3.0 M-18.2 -3.2 L-18.7 -3.1 -20.25 -3.3 -20.9 -3.25 -20.3 -3.7 -19.55 -3.85 -19.3 -3.9 -19.2 -3.9 -19.15 -3.9 Q-19.1 -3.65 -18.75 -3.65 L-18.4 -3.75 -18.35 -3.4 -18.2 -3.2 M-21.8 -3.2 L-22.8 -3.2 -22.6 -3.3 -22.4 -3.25 -22.0 -3.35 -21.8 -3.2 M-25.2 -5.6 L-25.2 -5.95 -25.15 -5.95 -24.85 -6.15 -24.9 -5.65 -25.2 -5.6 M-16.1 -10.3 L-15.65 -10.35 -15.55 -10.35 -15.75 -10.25 -15.85 -10.15 -16.1 -10.3 M-15.3 -10.35 L-15.2 -10.35 -14.5 -10.35 -14.95 -10.1 Q-15.0 -9.65 -14.7 -9.5 L-15.05 -9.35 -15.05 -9.4 -15.15 -9.55 -15.15 -9.75 Q-15.15 -10.25 -15.3 -10.35 M-6.55 -10.35 L-6.05 -10.45 -3.25 -11.0 -3.55 -10.55 -3.4 -10.3 -3.6 -10.2 -3.9 -10.2 -3.9 -10.3 -3.95 -10.3 -4.15 -10.4 Q-4.8 -10.65 -4.9 -10.0 L-5.15 -9.45 Q-5.6 -10.2 -6.35 -10.3 L-6.55 -10.35 M-2.15 -11.1 L-1.05 -11.15 Q-1.4 -10.8 -1.5 -10.8 L-2.1 -11.05 -2.15 -11.1 M1.0 -11.25 L4.8 -11.15 5.25 -11.05 5.35 -11.0 5.15 -10.8 5.15 -10.35 4.85 -10.15 4.85 -10.3 Q5.0 -11.0 4.25 -11.0 L3.85 -10.35 3.75 -9.6 3.75 -9.2 Q3.8 -8.85 4.4 -8.85 L4.85 -8.95 4.85 -8.9 4.85 -8.4 4.7 -8.4 Q4.3 -8.4 3.95 -7.55 L3.95 -7.45 3.85 -7.7 3.65 -7.8 3.6 -7.85 3.6 -8.1 3.6 -8.8 Q3.65 -9.65 3.0 -9.95 2.7 -9.9 2.6 -9.65 L2.65 -9.8 2.45 -9.8 2.2 -9.95 2.05 -10.0 Q3.5 -10.1 3.5 -10.7 3.5 -11.15 2.95 -11.15 L1.65 -11.05 1.0 -11.25 M4.85 -6.15 L4.9 -6.05 4.95 -5.8 Q5.15 -5.35 5.65 -5.35 L7.45 -5.3 7.35 -5.1 7.0 -4.5 6.9 -4.9 6.4 -5.2 5.4 -4.5 4.95 -3.75 4.75 -5.1 4.85 -6.15 M8.6 -5.2 L10.05 -5.15 10.9 -4.95 10.35 -4.5 9.95 -4.5 9.9 -4.5 9.4 -4.7 8.9 -4.55 8.9 -4.5 8.7 -4.5 8.6 -5.2 M12.85 -5.4 L13.1 -5.8 13.25 -6.35 13.3 -7.1 13.3 -7.2 13.5 -8.1 13.55 -9.15 14.5 -8.9 14.4 -8.65 Q14.05 -7.45 14.0 -6.15 L14.05 -5.65 13.55 -5.1 13.3 -5.1 12.9 -5.05 12.9 -5.1 12.85 -5.4 M0.3 -10.6 L0.2 -10.6 -0.2 -10.55 0.05 -10.65 0.3 -10.6 M-5.4 -7.1 L-5.5 -6.7 -5.4 -6.3 -5.6 -6.3 -5.6 -7.0 -5.6 -7.1 -5.45 -7.1 -5.4 -7.1 M2.95 -4.8 L2.85 -3.6 2.6 -3.6 2.0 -3.7 Q1.95 -4.1 1.45 -4.1 L0.4 -3.9 Q0.05 -3.9 -0.3 -4.65 L0.05 -4.75 0.35 -4.75 0.75 -4.9 1.45 -4.75 1.9 -4.85 2.2 -4.9 2.95 -4.8 M3.8 -2.15 L4.4 -1.95 4.45 -1.95 4.45 -1.75 4.6 -1.1 4.6 -1.05 4.6 -0.9 4.25 -0.8 4.3 -1.1 4.05 -1.65 3.8 -2.1 3.8 -2.15 M-0.8 -3.55 L-1.5 -3.55 -0.8 -3.9 -0.8 -3.55 M-5.7 -3.0 L-5.9 -3.1 -5.9 -3.15 -6.05 -3.2 -6.05 -3.25 Q-6.15 -3.45 -6.35 -3.45 -5.9 -3.65 -6.15 -4.25 L-6.2 -4.35 -6.35 -4.4 -6.35 -4.5 -6.55 -4.6 -6.5 -4.65 -6.15 -4.75 -6.1 -4.8 -6.1 -4.25 -5.7 -3.35 -5.7 -3.0 M-8.8 -4.3 L-9.15 -4.3 -8.85 -4.45 -8.8 -4.4 -8.8 -4.3 M-7.9 -4.35 L-7.6 -4.4 -7.9 -4.3 -7.9 -4.35 M-4.55 -4.95 Q-4.45 -4.95 -4.35 -5.05 L-3.95 -4.95 -3.85 -5.1 -3.7 -4.95 -3.15 -4.95 -2.85 -4.75 -2.45 -4.65 Q-2.35 -4.5 -2.05 -4.45 L-1.9 -4.45 -2.25 -4.15 -3.6 -4.05 -4.5 -4.1 -4.55 -4.95 M12.75 -3.2 L12.7 -3.55 12.7 -3.6 12.9 -3.75 13.3 -4.05 13.3 -3.6 13.3 -3.55 12.75 -3.2 M11.95 -4.1 L11.8 -4.25 11.95 -4.4 11.95 -4.1 M12.85 -0.25 L12.9 -0.5 12.9 -0.55 Q13.2 -0.05 13.45 0.1 L13.5 0.2 13.6 0.45 13.45 0.45 13.3 0.2 12.85 -0.25 M17.15 -9.35 L17.35 -9.35 17.4 -9.3 17.15 -9.35 M22.8 -4.5 L23.05 -4.5 23.25 -4.55 23.65 -4.6 23.7 -4.65 23.95 -5.05 23.95 -5.1 24.1 -5.15 24.15 -5.2 24.15 -4.85 24.15 -4.7 24.1 -4.75 23.6 -4.4 23.5 -3.9 23.5 -3.45 23.65 -3.2 23.45 -2.9 23.25 -3.1 23.05 -3.15 23.2 -3.6 Q23.2 -4.25 22.7 -4.25 L22.4 -4.15 22.4 -4.5 22.5 -4.5 22.8 -4.5 M15.65 -4.75 L15.95 -4.7 15.9 -4.6 15.8 -4.6 15.65 -4.75 M14.6 -3.4 L14.6 -3.1 15.1 -2.8 15.4 -2.8 15.3 -2.05 Q14.75 -2.65 14.7 -1.7 L14.5 -2.05 14.2 -2.25 14.0 -3.15 14.4 -3.4 14.6 -3.4 M18.85 -4.55 L20.05 -4.5 19.6 -4.3 19.1 -4.45 18.85 -4.55 M20.25 -3.55 L20.85 -3.7 21.5 -3.4 20.25 -3.55 M22.9 -9.55 L22.95 -9.5 23.05 -9.4 23.05 -9.35 23.2 -9.3 23.2 -9.2 23.35 -9.1 23.5 -8.85 23.5 -8.7 23.0 -9.15 21.0 -9.65 20.95 -9.75 22.8 -9.6 22.9 -9.55 M7.55 2.25 L9.45 2.3 10.95 2.25 11.9 2.25 10.4 2.35 7.95 2.45 7.6 2.3 7.55 2.25 M-21.6 -9.85 L-21.35 -9.85 -21.2 -9.5 -21.4 -8.95 -21.4 -8.7 -22.4 -8.8 -22.35 -9.15 -22.3 -9.15 -22.25 -9.2 Q-21.6 -9.4 -21.6 -9.75 L-21.6 -9.85 M-23.1 -5.35 L-23.1 -5.4 -21.95 -5.35 -21.65 -5.35 -21.6 -5.35 -21.55 -5.15 -21.55 -5.1 -22.05 -5.15 -22.25 -5.2 -22.3 -5.2 -23.1 -5.35 M-20.05 -8.7 L-20.0 -8.8 -19.95 -8.8 -19.95 -8.7 -20.05 -8.7 M-19.0 -9.6 L-18.95 -9.6 -18.5 -9.75 -18.5 -9.65 -19.0 -9.35 -19.0 -9.6 M-16.4 -8.3 L-16.4 -8.15 -16.5 -8.35 -16.5 -8.6 -16.45 -8.5 -16.4 -8.3 M-16.4 -5.55 L-16.35 -5.5 -16.35 -5.35 -16.35 -5.05 -16.55 -5.35 -16.4 -5.55 M-12.55 -5.65 L-12.35 -5.65 -12.5 -5.6 -12.55 -5.65 M-11.8 -5.8 L-11.0 -5.85 -9.15 -5.6 -8.85 -5.6 -9.4 -5.4 -9.75 -5.35 -10.1 -5.3 -10.1 -5.4 -10.2 -5.5 -10.35 -5.6 -10.4 -5.65 -10.5 -5.65 -10.55 -5.65 Q-10.55 -5.6 -10.65 -5.6 L-10.75 -5.55 -10.8 -5.5 -10.9 -5.5 -11.75 -5.65 -11.8 -5.8 M-8.65 -5.6 L-8.45 -5.6 -8.4 -5.55 -8.65 -5.6 M-7.2 -5.85 L-7.05 -5.95 -6.6 -6.4 -6.7 -6.15 -6.75 -5.8 -7.0 -5.6 -7.2 -5.8 -7.2 -5.85 M-6.55 -6.55 L-6.55 -6.8 Q-6.55 -8.5 -7.0 -8.9 L-7.1 -9.0 -7.05 -9.1 -6.9 -9.15 -6.8 -9.15 -6.8 -9.0 -6.7 -8.85 -6.6 -8.8 -6.6 -8.45 -6.55 -8.05 Q-6.35 -7.3 -6.55 -6.55 M-15.8 -4.1 L-15.75 -3.9 -15.8 -4.0 -15.8 -4.1 M-14.35 -4.3 L-14.4 -4.6 -14.55 -5.15 -13.65 -5.1 -13.6 -5.15 -13.55 -5.15 -13.55 -5.1 -14.1 -4.65 -14.4 -4.65 -14.4 -4.6 -14.1 -4.55 -14.2 -4.35 -14.35 -4.3 M-15.0 -5.6 L-15.1 -5.6 -15.15 -5.6 -15.1 -5.8 -15.0 -5.6 M-18.2 -5.4 L-18.9 -5.1 -19.0 -5.3 -19.05 -5.4 -18.45 -5.4 -18.15 -5.5 -18.2 -5.4 M-15.4 0.0 L-15.4 -0.15 -15.3 -0.05 -15.4 0.0 M-12.4 -4.5 L-11.9 -4.5 -11.8 -4.5 -11.7 -4.5 -11.7 -4.45 -12.15 -4.45 -12.4 -4.5 M-21.25 1.7 L-20.45 1.65 -20.5 1.7 -20.5 1.85 -20.5 1.95 -20.5 2.0 -20.45 2.05 -23.6 2.05 -23.7 2.05 -24.05 1.95 -21.25 1.7 M-24.2 2.0 L-24.2 2.05 -24.5 2.05 -24.5 2.0 -24.2 2.0" fill="#cccccc" fill-rule="evenodd" stroke="none"/>
    <path d="M9.65 -9.8 L9.3 -9.65 9.2 -10.15 9.1 -10.25 10.25 -9.95 9.65 -9.8 M26.75 2.0 L26.75 2.05 26.15 2.05 26.15 2.0 26.75 2.0 M-10.05 -3.15 Q-10.55 -2.8 -10.9 -2.8 L-12.1 -3.2 -12.5 -3.35 -10.75 -3.45 -10.05 -3.15 M-17.6 -3.15 L-17.8 -3.15 -18.2 -3.2 -18.35 -3.4 -18.4 -3.75 -18.75 -3.65 Q-19.1 -3.65 -19.15 -3.9 L-18.3 -4.15 -18.3 -3.9 Q-18.1 -3.3 -17.6 -3.15 M-20.9 -3.25 L-21.2 -3.15 -21.45 -3.15 -20.95 -3.75 -20.85 -4.0 -20.6 -3.75 Q-20.3 -3.75 -20.1 -3.9 L-20.0 -3.9 Q-19.65 -3.9 -19.6 -4.05 -19.5 -3.9 -19.3 -3.9 L-19.55 -3.85 -20.3 -3.7 -20.9 -3.25 M-22.6 -3.3 L-22.5 -3.45 -22.3 -3.6 -22.0 -3.35 -22.4 -3.25 -22.6 -3.3 M-22.5 -10.35 L-22.3 -10.4 -22.05 -10.3 -22.0 -10.2 -22.4 -10.2 -22.5 -10.35 M-16.5 -10.2 L-16.1 -10.3 -15.85 -10.15 -16.4 -9.65 -16.7 -9.65 -16.5 -10.2 M-12.85 -10.1 L-12.3 -10.2 -12.4 -10.15 -12.6 -10.1 -12.75 -10.1 -12.9 -10.0 -12.85 -10.1 M-7.25 -10.25 L-6.55 -10.35 -6.35 -10.3 Q-5.6 -10.2 -5.15 -9.45 L-5.2 -9.15 -5.35 -7.35 -5.4 -7.1 -5.45 -7.1 -5.6 -7.1 -5.6 -8.2 -5.6 -8.3 -5.65 -8.4 -5.7 -8.65 -5.7 -8.8 -5.8 -9.3 -5.8 -9.35 -5.85 -9.4 -5.9 -9.45 -5.95 -9.65 -6.1 -9.75 Q-6.35 -10.2 -7.1 -10.25 L-7.25 -10.25 M-3.25 -11.0 L-2.6 -11.3 -2.15 -11.1 -2.1 -11.05 -1.5 -10.8 Q-1.4 -10.8 -1.05 -11.15 L-0.15 -11.7 Q0.35 -11.85 0.75 -11.4 L1.0 -11.25 1.65 -11.05 2.95 -11.15 Q3.5 -11.15 3.5 -10.7 3.5 -10.1 2.05 -10.0 L1.8 -10.1 1.7 -10.15 1.7 -10.2 1.25 -10.4 0.3 -10.6 0.05 -10.65 -0.2 -10.55 -0.6 -10.45 -1.55 -10.4 -3.4 -10.3 -3.55 -10.55 -3.25 -11.0 M5.15 -10.35 L5.2 -10.25 4.95 -10.0 5.0 -9.85 5.05 -9.75 4.9 -9.55 4.85 -8.95 4.4 -8.85 Q3.8 -8.85 3.75 -9.2 L3.75 -9.6 3.85 -10.35 4.25 -11.0 Q5.0 -11.0 4.85 -10.3 L4.85 -10.15 5.15 -10.35 M4.85 -8.4 L4.8 -8.3 Q4.5 -7.2 4.85 -6.15 L4.75 -5.1 4.95 -3.75 5.4 -4.5 6.4 -5.2 6.9 -4.9 7.0 -4.5 7.35 -5.1 7.45 -5.3 8.6 -5.2 8.7 -4.5 8.1 -4.55 7.2 -4.5 Q5.8 -4.4 5.0 -3.2 L4.7 -2.5 4.6 -2.5 4.55 -2.4 4.45 -1.95 4.4 -1.95 3.8 -2.15 3.8 -2.4 3.75 -2.65 3.75 -2.85 3.9 -3.3 3.8 -3.55 3.6 -3.65 3.35 -3.7 3.15 -3.7 3.1 -3.7 3.1 -3.65 3.05 -3.65 2.95 -3.6 2.85 -3.6 2.95 -4.8 3.6 -5.2 3.8 -5.65 3.8 -6.15 3.95 -6.8 3.95 -7.45 3.95 -7.55 Q4.3 -8.4 4.7 -8.4 L4.85 -8.4 M10.9 -4.95 L11.45 -5.05 11.8 -5.1 Q12.4 -5.1 12.85 -5.4 L12.9 -5.1 12.9 -5.05 13.3 -5.1 13.55 -5.1 13.45 -4.7 13.3 -4.05 12.9 -3.75 12.7 -3.6 12.65 -3.75 12.05 -4.0 11.95 -4.0 11.95 -4.1 11.95 -4.4 11.8 -4.25 11.55 -4.3 11.15 -4.35 10.9 -4.35 10.35 -4.5 10.9 -4.95 M13.55 -9.15 L13.45 -9.65 13.3 -9.8 13.2 -9.85 13.1 -9.95 12.9 -10.1 11.75 -10.6 13.15 -10.2 14.65 -9.75 14.6 -9.75 14.65 -9.15 14.5 -8.9 13.55 -9.15 M-5.4 -6.3 L-5.3 -6.15 -5.4 -6.05 -5.45 -5.95 -5.5 -5.9 -5.6 -6.05 -5.6 -6.3 -5.4 -6.3 M-0.3 -4.65 Q0.05 -3.9 0.4 -3.9 L1.45 -4.1 Q1.95 -4.1 2.0 -3.7 L0.65 -3.75 0.05 -3.65 -0.45 -3.55 -0.8 -3.55 -0.8 -3.9 -1.5 -3.55 -2.35 -3.55 -2.8 -3.35 -3.0 -3.3 -3.65 -3.15 -3.55 -3.4 -3.6 -3.75 -3.8 -3.9 -4.1 -4.05 -4.7 -3.75 -4.85 -3.2 -5.0 -2.4 -5.1 -1.55 -5.2 -1.55 -5.3 -1.5 -5.3 -1.75 -5.3 -2.1 Q-5.2 -2.55 -5.35 -2.85 L-5.6 -3.0 -5.7 -3.0 -5.7 -3.35 -6.1 -4.25 -6.1 -4.8 -5.95 -4.9 -5.9 -4.95 -5.85 -5.2 -5.8 -5.3 -5.5 -5.6 -5.45 -5.5 -4.95 -5.2 -4.8 -5.1 -4.55 -4.95 -4.5 -4.1 -3.6 -4.05 -2.25 -4.15 -1.9 -4.45 Q-1.55 -4.5 -1.45 -4.65 L-0.6 -4.75 -0.5 -4.7 -0.3 -4.65 M-6.35 -4.4 L-6.55 -4.45 -6.7 -4.45 -6.75 -4.4 -6.8 -4.4 -7.9 -4.3 -8.2 -4.3 -8.8 -4.3 -8.8 -4.4 -8.5 -4.4 -8.35 -4.45 -7.9 -4.35 -7.9 -4.3 -7.6 -4.4 -7.55 -4.45 -7.45 -4.45 -7.2 -4.5 -7.0 -4.55 -6.55 -4.6 -6.35 -4.5 -6.35 -4.4 M-9.15 -4.3 L-9.45 -4.35 -9.15 -4.45 -8.95 -4.45 -8.85 -4.45 -9.15 -4.3 M3.8 -2.1 L4.05 -1.65 4.3 -1.1 4.25 -0.8 4.0 -0.8 3.9 -1.4 3.8 -2.1 M8.9 -4.5 L8.9 -4.55 9.4 -4.7 9.9 -4.5 8.9 -4.5 M5.85 -1.8 L5.85 -1.85 5.9 -1.95 6.0 -2.05 6.15 -2.25 6.2 -2.4 6.25 -2.4 6.3 -2.5 7.0 -2.5 6.05 -1.8 5.85 -1.8 M24.15 -5.2 L24.15 -5.35 24.6 -6.6 24.6 -8.3 24.35 -8.8 24.35 -9.1 24.35 -9.3 24.35 -9.4 24.3 -9.55 24.6 -9.2 Q25.25 -7.8 25.25 -5.8 25.25 -4.95 24.85 -4.05 L24.65 -3.45 24.15 -3.6 23.65 -3.2 23.5 -3.45 23.5 -3.9 23.6 -4.4 24.1 -4.75 24.15 -4.7 24.15 -4.85 24.15 -5.2 M15.55 -8.65 L15.5 -9.15 16.3 -9.15 16.85 -9.3 16.5 -8.9 15.75 -8.65 15.55 -8.65 M16.05 -3.05 L16.1 -3.1 16.45 -3.55 17.2 -3.25 17.6 -3.35 17.8 -3.25 18.2 -3.45 18.4 -3.4 18.2 -3.3 Q17.25 -2.65 16.7 -2.65 16.25 -2.65 16.05 -3.05 M14.6 -3.4 L14.4 -3.4 14.6 -3.6 14.6 -3.55 14.6 -3.4 M15.35 -4.05 L15.55 -4.05 15.5 -3.9 15.35 -4.05 M15.85 -4.55 L15.8 -4.6 15.9 -4.6 15.85 -4.55 M18.85 -4.5 L18.85 -4.55 19.1 -4.45 18.85 -4.5 M23.4 2.05 L22.8 2.05 23.05 2.1 23.6 2.1 23.8 2.05 23.75 2.1 23.7 2.2 23.7 2.25 22.6 2.35 20.8 2.45 19.05 2.4 17.05 2.25 18.0 2.25 18.2 2.25 18.75 2.25 18.8 2.25 20.75 2.25 20.8 2.2 20.85 2.1 20.85 2.05 22.05 2.05 22.25 2.0 23.7 2.0 23.4 2.05 M10.4 2.35 L12.35 2.45 12.5 2.55 12.5 2.65 12.5 2.75 12.5 2.8 12.45 2.85 12.45 2.95 12.4 2.95 7.8 2.8 7.35 2.7 0.95 2.05 6.15 2.05 6.3 2.15 7.35 2.25 7.55 2.25 7.6 2.3 7.95 2.45 10.4 2.35 M7.45 2.0 L7.55 2.0 Q11.7 1.7 15.75 2.05 L7.4 2.05 7.45 2.0 M-21.4 -8.7 L-21.4 -8.95 -21.2 -9.5 -20.85 -9.0 -21.15 -8.45 -21.4 -8.7 M-24.2 -6.95 L-24.2 -7.0 -24.15 -6.95 -24.2 -6.95 M-23.35 -7.05 L-23.2 -7.2 -23.15 -6.95 -23.3 -7.05 -23.35 -7.05 M-23.15 -5.3 L-23.1 -5.35 -22.3 -5.2 Q-22.7 -5.15 -22.7 -4.6 -22.75 -4.95 -23.15 -5.3 M-23.25 -5.95 L-23.35 -6.05 -23.15 -6.25 -23.25 -5.95 M-19.95 -8.8 Q-19.45 -8.95 -19.45 -9.65 L-19.0 -9.6 -19.0 -9.35 -18.5 -9.65 Q-18.4 -9.15 -17.85 -9.15 L-17.8 -9.15 -17.85 -8.65 -17.85 -8.5 -18.05 -8.8 Q-18.95 -7.85 -19.25 -7.85 -19.85 -7.85 -19.95 -8.7 L-19.95 -8.8 M-21.55 -5.1 L-21.65 -4.75 -22.05 -5.15 -21.55 -5.1 M-14.7 -9.5 L-14.65 -9.45 -14.8 -9.35 -14.9 -9.2 -14.95 -9.1 -15.15 -8.8 -15.2 -8.8 -15.2 -8.65 -15.45 -8.8 -15.5 -8.85 -15.5 -8.9 -15.55 -8.95 -15.45 -9.1 -15.15 -9.55 -15.05 -9.4 -15.05 -9.35 -14.7 -9.5 M-16.3 -8.65 L-16.4 -8.3 -16.45 -8.5 -16.5 -8.6 -16.5 -8.65 -16.35 -8.65 -16.3 -8.65 M-13.95 -8.7 L-14.1 -8.65 -14.1 -8.7 -13.95 -8.7 M-14.45 -8.0 L-14.35 -7.85 -14.55 -6.95 -14.6 -7.3 -14.45 -8.0 M-8.85 -5.6 L-8.65 -5.6 -8.4 -5.55 -8.35 -5.4 -9.2 -5.4 -9.4 -5.4 -8.85 -5.6 M-7.1 -9.0 Q-7.25 -8.85 -7.45 -8.85 L-7.5 -8.8 Q-7.7 -8.65 -7.9 -8.65 L-8.35 -8.95 -8.8 -9.35 -7.2 -9.35 -6.9 -9.15 -7.05 -9.1 -7.1 -9.0 M-8.95 -9.35 Q-9.35 -9.35 -9.8 -8.9 -10.35 -8.55 -10.75 -8.55 -11.5 -8.55 -11.85 -8.85 L-12.2 -9.15 -11.8 -9.2 -8.95 -9.35 M-16.95 -8.65 L-16.75 -8.65 -16.9 -8.5 -17.15 -8.4 -16.95 -8.65 M-15.8 -4.1 L-15.4 -4.3 -15.35 -4.65 -15.2 -5.8 -15.2 -6.0 -15.15 -5.85 -15.1 -5.8 -15.15 -5.6 -15.1 -5.6 -15.0 -5.6 -14.55 -5.15 -14.4 -4.6 -14.35 -4.3 -14.7 -4.0 -14.7 -3.75 -15.05 -3.3 -15.2 -3.15 -15.2 -3.1 -15.75 -3.75 -15.75 -3.9 -15.8 -4.1 M-18.2 -5.4 L-18.15 -5.5 -18.1 -5.5 -18.1 -5.4 -18.2 -5.4 M-10.9 -5.5 L-11.0 -5.5 -11.2 -5.5 -11.2 -5.4 -11.3 -5.5 -11.65 -5.5 -11.7 -5.55 -11.75 -5.65 -10.9 -5.5 M-11.7 -4.5 L-11.5 -4.45 -11.7 -4.45 -12.75 -4.3 -13.6 -4.35 -14.2 -4.35 -14.1 -4.55 -14.1 -4.65 -13.55 -5.1 -13.5 -4.9 Q-13.35 -4.65 -13.1 -4.6 L-12.4 -4.5 -12.15 -4.45 -11.7 -4.45 -11.7 -4.5 M-5.4 0.1 Q-5.3 -0.05 -5.5 -0.55 L-5.45 -0.75 -5.45 -0.8 -5.2 -0.5 -5.2 -0.35 -5.15 -0.3 -4.95 -0.05 -5.2 0.15 -5.4 0.1 M-10.2 2.05 L-2.7 2.05 -1.9 2.0 -1.95 2.05 0.1 2.05 -2.05 2.25 -3.2 2.35 -8.85 2.65 -9.65 2.7 -12.1 2.7 -14.3 2.65 -14.4 2.65 -14.95 2.65 -16.8 2.5 -17.9 2.4 -17.85 2.35 -17.8 2.25 -17.65 2.15 -17.5 2.15 -16.95 2.05 -12.3 2.05 -10.2 2.05 M-24.5 2.05 L-25.3 2.05 -25.75 2.05 -25.75 2.0 -25.75 1.85 -25.75 1.8 -25.65 1.7 -24.9 1.6 -24.2 1.55 -24.2 1.3 -24.15 1.3 -23.65 1.3 -21.55 1.4 -21.25 1.6 -21.25 1.7 -24.05 1.95 -24.2 1.9 -24.2 2.0 -24.5 2.0 -24.5 2.05" fill="#999999" fill-rule="evenodd" stroke="none"/>
    <path d="M-25.2 -5.95 Q-25.45 -5.95 -25.55 -6.15 L-25.2 -6.55 -24.35 -7.4 -24.4 -7.7 -24.15 -8.1 -23.85 -8.8 -23.8 -8.5 Q-23.6 -7.85 -23.15 -7.85 L-22.7 -8.8 -22.25 -9.85 -22.4 -10.2 -22.0 -10.2 Q-21.65 -10.2 -21.6 -9.85 L-21.6 -9.75 Q-21.6 -9.4 -22.25 -9.2 L-22.3 -9.15 -22.35 -9.15 -22.4 -8.8 -22.75 -7.9 -23.2 -7.2 -23.35 -7.05 -23.6 -7.1 -23.7 -7.1 -23.8 -7.1 -23.8 -7.05 -23.85 -7.0 -23.95 -6.95 -24.15 -6.95 -24.2 -7.0 -24.2 -6.95 -24.45 -6.85 -24.85 -6.15 -25.15 -5.95 -25.2 -5.95 M-24.4 -11.95 L-24.1 -12.15 -23.85 -12.3 -23.2 -12.65 Q-22.5 -12.8 -22.5 -12.05 L-23.25 -11.0 -23.2 -10.7 -23.2 -10.6 -23.6 -10.55 -23.9 -11.45 -24.4 -11.95 M-22.3 -10.4 L-22.55 -10.9 -22.5 -11.0 Q-22.8 -11.1 -22.8 -11.5 -21.6 -12.8 -21.15 -11.95 L-20.6 -12.15 Q-20.55 -13.2 -20.05 -12.9 L-20.25 -12.15 -20.3 -10.85 -20.65 -11.25 -20.7 -11.15 -20.4 -10.45 -20.4 -10.3 -20.4 -10.2 Q-20.5 -9.75 -19.95 -9.75 -19.6 -9.75 -19.2 -10.8 -18.85 -11.65 -18.85 -11.95 L-19.15 -12.7 Q-18.95 -13.8 -17.75 -11.4 L-17.85 -11.75 Q-17.85 -12.8 -17.2 -12.8 -16.75 -12.7 -16.7 -11.5 L-16.95 -11.7 Q-17.6 -11.85 -17.6 -11.15 L-17.7 -9.75 -17.8 -9.15 -17.85 -9.15 Q-18.4 -9.15 -18.5 -9.65 L-18.5 -9.75 -18.95 -9.6 -19.0 -9.6 -19.45 -9.65 Q-19.45 -8.95 -19.95 -8.8 L-20.0 -8.8 -20.05 -8.7 -20.15 -8.55 Q-20.6 -7.8 -20.7 -7.8 -21.15 -7.8 -21.15 -8.35 L-21.15 -8.45 -20.85 -9.0 -21.2 -9.5 -21.35 -9.85 -21.4 -10.05 -21.6 -10.35 -21.8 -10.3 -22.05 -10.3 -22.3 -10.4 M-15.55 -10.35 L-15.3 -10.35 Q-15.15 -10.25 -15.15 -9.75 L-15.15 -9.55 -15.45 -9.1 -15.55 -8.95 -15.65 -9.0 -15.85 -9.15 -16.1 -8.95 -16.3 -8.65 -16.35 -8.65 -16.5 -8.65 -16.75 -8.65 -16.95 -8.65 -16.75 -9.35 -16.7 -9.65 -16.4 -9.65 -15.85 -10.15 -15.75 -10.25 -15.55 -10.35 M15.95 -4.7 L16.55 -4.7 17.05 -4.0 17.6 -3.35 17.2 -3.25 16.45 -3.55 16.1 -3.1 16.05 -3.05 Q15.8 -2.85 15.4 -2.8 L15.1 -2.8 14.6 -3.1 14.6 -3.4 14.6 -3.55 14.6 -3.6 15.25 -4.05 15.35 -4.05 15.5 -3.9 15.55 -4.05 Q15.95 -4.1 15.95 -4.5 L15.85 -4.55 15.9 -4.6 15.95 -4.7 M14.2 -2.25 L14.5 -2.05 14.7 -1.7 Q14.75 -2.65 15.3 -2.05 L16.4 0.0 16.6 -0.15 Q16.95 -0.4 17.05 0.2 L17.15 0.45 17.05 0.65 17.05 0.85 15.6 0.85 Q15.85 0.45 15.65 -0.25 L15.55 -0.35 15.3 -0.4 14.9 -0.2 14.75 0.1 13.6 0.45 13.5 0.2 13.45 0.1 13.6 0.15 Q14.1 0.15 14.2 -0.5 L14.25 -1.4 14.2 -2.25 M20.05 -4.5 L21.05 -4.45 21.2 -4.35 21.45 -4.4 21.45 -4.35 21.55 -3.4 21.5 -3.4 20.85 -3.7 20.25 -3.55 20.15 -3.45 19.6 -3.25 18.6 -3.4 18.4 -3.4 18.2 -3.45 18.6 -3.85 18.85 -4.5 19.1 -4.45 19.6 -4.3 20.05 -4.5 M23.05 -3.1 L23.05 -2.85 Q23.05 -2.15 22.6 -2.15 22.4 -2.15 22.3 -2.4 L22.9 -2.9 23.05 -3.1 M21.95 0.8 L18.65 0.85 18.75 0.8 19.35 0.65 19.35 0.35 Q19.35 -1.4 20.0 -0.65 L20.9 0.45 21.35 0.25 Q21.95 0.25 21.95 0.7 L21.95 0.8 M18.6 0.85 L17.5 0.85 18.0 0.75 18.6 0.85 M-20.45 -5.9 L-20.7 -5.95 -21.45 -5.4 -21.55 -5.15 -21.6 -5.35 -21.8 -5.6 Q-21.8 -6.15 -21.15 -6.25 -20.6 -6.35 -20.45 -5.9 M-20.1 -3.9 Q-20.3 -3.75 -20.6 -3.75 L-20.85 -4.0 -20.7 -4.55 -20.5 -4.15 -20.1 -3.9 M-16.35 -5.05 L-16.3 -4.85 -16.4 -4.85 -17.3 -4.15 Q-17.45 -5.1 -17.9 -5.2 -18.35 -5.3 -18.35 -4.5 L-18.3 -4.15 -19.15 -3.9 -19.2 -3.9 -19.3 -3.9 Q-19.5 -3.9 -19.6 -4.05 L-19.4 -4.25 -19.2 -4.7 Q-19.2 -5.05 -19.65 -5.4 L-20.15 -5.8 -19.65 -5.95 Q-19.3 -5.95 -19.05 -5.4 L-19.0 -5.3 -18.9 -5.1 -18.2 -5.4 -18.1 -5.4 -18.1 -5.5 Q-17.9 -6.15 -17.2 -5.8 L-16.55 -5.35 -16.35 -5.05 M-18.95 -11.35 L-18.85 -11.05 -18.75 -11.05 -18.95 -11.35" fill="#006600" fill-rule="evenodd" stroke="none"/>
    <path d="M25.5 -2.6 Q25.85 -2.6 25.85 -2.05 L25.6 -1.35 25.4 -1.3 25.35 -1.3 Q25.2 -1.0 24.75 -1.0 24.4 -1.0 23.85 -1.75 L23.75 -1.9 23.25 -2.55 23.45 -2.9 23.65 -3.2 24.15 -3.6 24.65 -3.45 24.7 -2.55 25.2 -2.55 25.4 -2.6 25.5 -2.6 M-17.05 -3.15 L-17.3 -3.15 -17.6 -3.15 Q-18.1 -3.3 -18.3 -3.9 L-18.3 -4.15 -18.35 -4.5 Q-18.35 -5.3 -17.9 -5.2 -17.45 -5.1 -17.3 -4.15 L-16.4 -4.85 -16.3 -4.85 -16.3 -4.65 -16.1 -4.35 -16.3 -4.35 -16.7 -3.9 -16.6 -3.4 -17.05 -3.15 M-21.45 -3.15 L-21.6 -3.15 -21.8 -3.2 -22.0 -3.35 -22.3 -3.6 -22.7 -4.55 -22.7 -4.5 Q-22.7 -3.65 -24.15 -3.65 L-24.2 -3.75 -24.45 -3.9 -24.9 -4.05 -25.05 -4.05 -25.15 -4.0 -25.15 -3.9 -25.25 -3.9 -25.3 -3.75 -26.0 -4.15 Q-26.4 -4.5 -26.4 -4.8 L-26.0 -5.4 -25.2 -5.6 -24.9 -5.65 -24.9 -5.6 Q-24.9 -4.75 -24.15 -5.15 L-23.95 -5.15 -23.8 -5.1 Q-23.35 -4.95 -23.15 -5.3 -22.75 -4.95 -22.7 -4.6 -22.7 -5.15 -22.3 -5.2 L-22.25 -5.2 -22.05 -5.15 -21.65 -4.75 -21.55 -5.1 -21.55 -5.15 -21.45 -5.4 -20.7 -5.95 -20.45 -5.9 -20.15 -5.8 -19.65 -5.4 Q-19.2 -5.05 -19.2 -4.7 L-19.4 -4.25 -19.6 -4.05 Q-19.65 -3.9 -20.0 -3.9 L-20.1 -3.9 -20.5 -4.15 -20.7 -4.55 -20.85 -4.0 -20.95 -3.75 -21.45 -3.15 M-25.55 -6.15 Q-26.25 -5.4 -26.45 -5.4 -27.05 -5.4 -27.55 -7.1 -27.55 -7.8 -26.0 -8.1 L-25.75 -8.1 -26.0 -8.3 -26.25 -8.9 Q-26.25 -11.3 -25.1 -10.55 L-25.0 -10.45 -25.05 -11.0 -24.8 -11.85 -24.4 -11.95 -23.9 -11.45 -23.6 -10.55 -23.2 -10.6 -22.95 -10.6 -22.5 -10.35 -22.4 -10.2 -22.25 -9.85 -22.7 -8.8 -23.15 -7.85 Q-23.6 -7.85 -23.8 -8.5 L-23.85 -8.8 -24.15 -8.1 -24.4 -7.7 -24.35 -7.4 -25.2 -6.55 -25.55 -6.15 M-20.05 -12.9 L-19.5 -12.95 -19.15 -12.7 -18.85 -11.95 Q-18.85 -11.65 -19.2 -10.8 -19.6 -9.75 -19.95 -9.75 -20.5 -9.75 -20.4 -10.2 L-20.4 -10.3 -20.3 -10.85 -20.25 -12.15 -20.05 -12.9 M-16.7 -11.5 L-16.45 -10.85 -16.5 -10.2 -16.7 -9.65 -16.75 -9.35 -16.95 -8.65 -17.15 -8.4 -17.3 -8.15 Q-17.85 -8.15 -17.85 -8.5 L-17.85 -8.65 -17.8 -9.15 -17.7 -9.75 -17.6 -11.15 Q-17.6 -11.85 -16.95 -11.7 L-16.7 -11.5 M12.3 -2.3 Q12.7 -2.25 12.8 -2.8 L12.75 -3.2 13.3 -3.55 13.3 -3.6 13.3 -4.05 13.45 -4.7 13.55 -5.1 14.05 -5.65 Q14.2 -4.95 15.1 -4.9 L15.3 -4.8 15.65 -4.75 15.8 -4.6 15.85 -4.55 15.95 -4.5 Q15.95 -4.1 15.55 -4.05 L15.35 -4.05 15.25 -4.05 14.6 -3.6 14.4 -3.4 14.0 -3.15 14.2 -2.25 14.25 -1.4 14.2 -0.5 Q14.1 0.15 13.6 0.15 L13.45 0.1 Q13.2 -0.05 12.9 -0.55 L12.75 -0.8 12.25 -1.8 12.3 -2.3 M16.55 -4.7 L17.2 -4.8 Q18.1 -4.9 17.8 -5.65 L17.7 -5.8 17.45 -5.9 Q17.9 -6.15 17.95 -5.3 L18.15 -5.3 18.15 -5.15 18.15 -5.05 18.2 -4.9 Q18.3 -4.7 18.6 -4.65 L18.85 -4.55 18.85 -4.5 18.6 -3.85 18.2 -3.45 17.8 -3.25 17.6 -3.35 17.05 -4.0 16.55 -4.7 M21.65 -5.1 L21.95 -5.2 Q22.3 -5.15 22.4 -4.5 L22.4 -4.15 22.7 -4.25 Q23.2 -4.25 23.2 -3.6 L23.05 -3.15 23.05 -3.1 22.9 -2.9 22.3 -2.4 22.25 -2.4 Q21.75 -2.4 21.55 -3.4 L21.45 -4.35 21.45 -4.4 21.75 -4.85 21.65 -5.1" fill="#009900" fill-rule="evenodd" stroke="none"/>
    <path d="M9.3 -9.65 L8.65 -9.4 6.25 -9.35 6.2 -9.3 5.8 -9.2 5.85 -8.45 5.65 -7.55 5.6 -7.0 5.8 -6.35 5.85 -6.25 9.85 -6.15 10.75 -6.15 Q11.2 -6.0 11.75 -6.15 L12.2 -6.25 12.35 -7.05 12.45 -7.7 12.5 -8.8 12.6 -8.85 12.6 -8.95 12.2 -9.4 10.65 -9.85 10.6 -9.85 10.45 -9.85 10.35 -9.9 10.25 -9.95 9.1 -10.25 9.2 -10.15 9.3 -9.65 M5.35 -11.0 L5.9 -11.15 8.0 -11.35 9.35 -11.3 9.85 -11.15 10.45 -10.9 10.8 -10.85 11.0 -10.85 Q11.3 -10.7 11.65 -10.65 L11.75 -10.6 12.9 -10.1 13.1 -9.95 13.2 -9.85 13.3 -9.8 13.45 -9.65 13.55 -9.15 13.5 -8.1 13.3 -7.2 13.3 -7.1 13.25 -6.35 13.1 -5.8 12.85 -5.4 Q12.4 -5.1 11.8 -5.1 L11.45 -5.05 10.9 -4.95 10.05 -5.15 8.6 -5.2 7.45 -5.3 5.65 -5.35 Q5.15 -5.35 4.95 -5.8 L4.9 -6.05 4.85 -6.15 Q4.5 -7.2 4.8 -8.3 L4.85 -8.4 4.85 -8.9 4.85 -8.95 4.9 -9.55 5.05 -9.75 5.0 -9.85 4.95 -10.0 5.2 -10.25 5.15 -10.35 5.15 -10.8 5.35 -11.0 M19.95 -10.45 L19.95 -10.55 20.0 -10.65 20.1 -10.7 20.15 -10.8 20.25 -10.85 20.4 -10.85 20.85 -10.8 21.0 -10.65 22.9 -10.6 23.25 -10.45 23.5 -10.3 23.65 -10.2 23.7 -10.15 23.8 -10.0 23.95 -9.9 24.25 -9.65 24.3 -9.6 24.3 -9.55 24.35 -9.4 24.35 -9.3 24.35 -9.1 24.35 -8.8 24.6 -8.3 24.6 -6.6 24.15 -5.35 24.15 -5.2 24.1 -5.15 23.95 -5.1 23.95 -5.05 23.7 -4.65 23.65 -4.6 23.25 -4.55 23.05 -4.5 22.8 -4.5 Q22.45 -4.55 22.45 -4.95 L22.5 -5.1 22.5 -5.15 22.6 -5.3 22.8 -5.4 22.9 -6.05 22.85 -6.7 22.8 -7.4 22.7 -8.15 22.65 -8.15 22.35 -8.4 22.3 -8.45 21.55 -8.65 20.65 -8.8 20.5 -8.85 20.15 -8.85 Q19.8 -8.9 19.5 -9.1 L17.9 -9.15 17.4 -9.3 17.35 -9.35 17.15 -9.35 16.9 -9.35 16.85 -9.3 16.3 -9.15 15.5 -9.15 15.55 -8.65 15.3 -8.15 15.05 -7.05 Q15.0 -6.55 15.1 -6.0 L15.4 -5.85 15.55 -5.8 17.05 -5.85 17.45 -5.9 17.7 -5.8 17.8 -5.65 Q18.1 -4.9 17.2 -4.8 L16.55 -4.7 15.95 -4.7 15.65 -4.75 15.3 -4.8 15.1 -4.9 Q14.2 -4.95 14.05 -5.65 L14.0 -6.15 Q14.05 -7.45 14.4 -8.65 L14.5 -8.9 14.65 -9.15 14.6 -9.75 14.65 -9.75 14.65 -9.85 Q15.1 -10.3 15.7 -10.2 L16.85 -10.3 19.7 -10.0 20.1 -9.95 Q19.9 -10.15 19.95 -10.45 M26.55 0.85 L26.8 0.85 26.7 1.05 26.7 1.15 26.65 1.25 26.5 1.25 26.35 1.25 26.0 1.25 26.0 1.45 25.95 1.65 25.9 1.7 26.0 1.7 26.0 1.9 26.15 2.0 26.15 2.05 26.75 2.05 26.75 2.1 26.75 2.85 26.75 3.0 26.35 3.0 24.15 3.3 23.5 3.55 22.05 3.5 21.9 3.5 11.0 3.5 10.7 3.55 Q8.7 3.85 7.0 3.1 -1.1 3.3 -9.2 3.0 L-16.95 2.85 -23.25 2.8 -23.95 2.95 -24.2 3.0 -24.25 3.0 -24.25 3.05 -25.45 2.8 -26.25 2.9 -26.25 2.6 -26.25 2.05 -26.25 1.85 -26.3 1.65 -26.35 1.55 -26.4 1.45 -26.45 1.35 -26.5 1.3 -26.5 1.2 -26.5 1.0 -26.5 0.95 -25.85 0.95 -24.95 0.95 -24.2 0.95 -24.2 1.05 -24.05 0.95 -8.45 1.05 -8.1 1.05 Q-5.95 0.9 -3.95 1.6 L-5.0 1.45 -6.8 1.3 -6.8 1.4 -7.4 1.6 -7.55 1.65 -11.25 1.65 -11.5 1.6 -11.85 1.5 -11.95 1.5 -12.0 1.6 -12.1 1.6 -12.2 1.7 -12.25 1.85 -12.3 1.95 -12.3 2.05 -16.95 2.05 -17.5 2.15 -17.65 2.15 -17.8 2.25 -17.85 2.35 -17.9 2.4 -16.8 2.5 -14.95 2.65 -14.4 2.65 -14.3 2.65 -12.1 2.7 -9.65 2.7 -8.85 2.65 -3.2 2.35 -2.05 2.25 0.1 2.05 -1.95 2.05 -1.9 2.0 -2.7 2.05 -10.2 2.05 -3.8 1.85 -3.75 1.85 -3.55 1.9 -3.5 1.45 -3.5 1.4 -3.15 0.95 -3.0 0.95 -2.7 0.9 -1.7 0.8 -1.25 0.75 2.95 0.8 5.0 0.8 5.6 0.8 5.8 0.8 12.4 0.85 15.6 0.85 17.05 0.85 17.5 0.85 18.6 0.85 18.65 0.85 21.95 0.8 22.25 0.8 23.15 0.8 26.55 0.85 M3.05 -0.4 L3.0 -0.55 2.95 -0.6 2.9 -0.75 2.85 -0.8 2.7 -1.25 2.4 -1.85 0.7 -2.25 0.3 -2.3 0.05 -2.5 -3.6 -2.3 -3.9 -2.6 -3.9 -2.85 -3.95 -2.8 -4.0 -2.65 -4.15 -0.55 Q-4.15 0.15 -4.8 0.0 L-4.85 -0.05 -4.95 -0.05 -5.15 -0.3 -5.2 -0.35 -5.2 -0.5 -5.45 -0.8 -5.45 -0.75 -5.5 -0.55 Q-5.3 -0.05 -5.4 0.1 -5.5 0.35 -5.9 0.4 L-6.25 0.15 -6.55 -0.2 -6.8 -0.4 -6.8 -0.55 -6.75 -2.5 -8.8 -3.0 -9.0 -3.15 -9.7 -3.15 -10.05 -3.15 -10.75 -3.45 -12.5 -3.35 -12.9 -3.35 -13.05 -3.25 -13.35 -3.2 -14.1 -3.05 -14.1 -3.0 -14.2 -2.9 -14.2 -2.85 -14.25 -2.8 -14.35 -2.65 -14.4 -1.75 -14.35 -1.3 Q-14.25 -1.05 -14.4 -0.75 L-14.4 -0.3 -14.55 -0.3 -15.3 -0.05 -15.4 -0.15 -15.4 0.0 -15.4 0.1 -15.55 0.15 -15.6 0.15 -15.7 0.15 -15.75 0.15 -15.95 0.1 -15.95 -0.05 -16.0 -0.15 -16.05 -0.25 -16.1 -0.35 -16.1 -0.4 -16.1 -0.65 -16.25 -2.5 -16.35 -2.6 -16.55 -2.9 -16.55 -3.0 -16.55 -3.05 -16.55 -3.15 -16.55 -3.2 -16.6 -3.4 -16.7 -3.9 -16.3 -4.35 -16.1 -4.35 -16.3 -4.65 -16.3 -4.85 -16.35 -5.05 -16.35 -5.35 -16.35 -5.5 -16.4 -5.55 -16.4 -5.6 -16.3 -7.3 -16.35 -7.65 -16.4 -8.15 -16.4 -8.3 -16.3 -8.65 -16.1 -8.95 -15.85 -9.15 -15.65 -9.0 -15.55 -8.95 -15.5 -8.9 -15.5 -8.85 -15.45 -8.8 -15.2 -8.65 -15.2 -8.8 -15.15 -8.8 -14.95 -9.1 -14.9 -9.2 -14.8 -9.35 -14.65 -9.45 -14.7 -9.5 Q-15.0 -9.65 -14.95 -10.1 L-14.5 -10.35 -13.5 -10.65 -13.4 -10.65 -13.15 -10.6 -13.0 -10.4 -12.85 -10.1 -12.9 -10.0 -12.75 -10.1 -12.6 -10.1 -12.4 -10.15 -12.3 -10.2 -12.2 -10.2 -11.85 -10.3 -11.7 -10.3 -11.65 -10.35 -8.85 -10.3 -8.8 -10.3 -7.25 -10.25 -7.1 -10.25 Q-6.35 -10.2 -6.1 -9.75 L-5.95 -9.65 -5.9 -9.45 -5.85 -9.4 -5.8 -9.35 -5.8 -9.3 -5.7 -8.8 -5.7 -8.65 -5.65 -8.4 -5.6 -8.3 -5.6 -8.2 -5.6 -7.1 -5.6 -7.0 -5.6 -6.3 -5.6 -6.05 -5.5 -5.9 -5.45 -5.95 -5.4 -6.05 -5.3 -6.15 -5.4 -6.3 -5.5 -6.7 -5.4 -7.1 -5.35 -7.35 -5.2 -9.15 -5.15 -9.45 -4.9 -10.0 Q-4.8 -10.65 -4.15 -10.4 L-3.95 -10.3 -3.9 -10.3 -3.9 -10.2 -3.6 -10.2 -3.4 -10.3 -1.55 -10.4 -0.6 -10.45 -0.2 -10.55 0.2 -10.6 0.3 -10.6 1.25 -10.4 1.7 -10.2 1.7 -10.15 1.8 -10.1 2.05 -10.0 2.2 -9.95 2.45 -9.8 2.5 -9.75 2.55 -9.6 2.6 -9.65 Q2.7 -9.9 3.0 -9.95 3.65 -9.65 3.6 -8.8 L3.6 -8.1 3.6 -7.85 3.65 -7.8 3.85 -7.7 3.95 -7.45 3.95 -6.8 3.8 -6.15 3.8 -5.65 3.6 -5.2 2.95 -4.8 2.2 -4.9 1.9 -4.85 1.45 -4.75 0.75 -4.9 0.35 -4.75 0.05 -4.75 -0.3 -4.65 -0.5 -4.7 -0.6 -4.75 -1.45 -4.65 Q-1.55 -4.5 -1.9 -4.45 L-2.05 -4.45 Q-2.35 -4.5 -2.45 -4.65 L-2.85 -4.75 -3.15 -4.95 -3.7 -4.95 -3.85 -5.1 -3.95 -4.95 -4.35 -5.05 Q-4.45 -4.95 -4.55 -4.95 L-4.8 -5.1 -4.95 -5.2 -5.45 -5.5 -5.5 -5.6 -5.8 -5.3 -5.85 -5.2 -5.9 -4.95 -5.95 -4.9 -6.1 -4.8 -6.15 -4.75 -6.5 -4.65 -6.55 -4.6 -7.0 -4.55 -7.2 -4.5 -7.45 -4.45 -7.55 -4.45 -7.6 -4.4 -7.9 -4.35 -8.35 -4.45 -8.5 -4.4 -8.8 -4.4 -8.85 -4.45 -8.95 -4.45 -9.15 -4.45 -9.45 -4.35 -9.15 -4.3 -8.8 -4.3 -8.2 -4.3 -7.9 -4.3 -6.8 -4.4 -6.75 -4.4 -6.7 -4.45 -6.55 -4.45 -6.35 -4.4 -6.2 -4.35 -6.15 -4.25 Q-5.9 -3.65 -6.35 -3.45 -6.15 -3.45 -6.05 -3.25 L-6.05 -3.2 -5.9 -3.15 -5.9 -3.1 -5.7 -3.0 -5.6 -3.0 -5.35 -2.85 Q-5.2 -2.55 -5.3 -2.1 L-5.3 -1.75 -5.3 -1.5 -5.2 -1.55 -5.1 -1.55 -5.0 -2.4 -4.85 -3.2 -4.7 -3.75 -4.1 -4.05 -3.8 -3.9 -3.6 -3.75 -3.55 -3.4 -3.65 -3.15 -3.0 -3.3 -2.8 -3.35 -2.35 -3.55 -1.5 -3.55 -0.8 -3.55 -0.45 -3.55 0.05 -3.65 0.65 -3.75 2.0 -3.7 2.6 -3.6 2.85 -3.6 2.95 -3.6 3.05 -3.65 3.1 -3.65 3.1 -3.7 3.15 -3.7 3.35 -3.7 3.6 -3.65 3.8 -3.55 3.9 -3.3 3.75 -2.85 3.75 -2.65 3.8 -2.4 3.8 -2.15 3.8 -2.1 3.9 -1.4 4.0 -0.8 4.25 -0.8 4.6 -0.9 4.6 -1.05 4.6 -1.1 4.45 -1.75 4.45 -1.95 4.55 -2.4 4.6 -2.5 4.7 -2.5 5.0 -3.2 Q5.8 -4.4 7.2 -4.5 L8.1 -4.55 8.7 -4.5 8.9 -4.5 9.9 -4.5 9.95 -4.5 10.35 -4.5 10.9 -4.35 11.15 -4.35 11.55 -4.3 11.8 -4.25 11.95 -4.1 11.95 -4.0 12.05 -4.0 12.65 -3.75 12.7 -3.6 12.7 -3.55 12.75 -3.2 12.8 -2.8 Q12.7 -2.25 12.3 -2.3 L12.05 -2.4 11.95 -2.55 7.0 -2.5 6.3 -2.5 6.25 -2.4 6.2 -2.4 6.15 -2.25 6.0 -2.05 5.9 -1.95 5.85 -1.85 5.85 -1.8 5.8 -1.75 5.8 -1.55 5.8 -1.5 Q6.3 -0.75 5.75 -0.55 L5.65 -0.4 5.6 -0.4 Q5.2 -0.5 5.05 -0.15 L5.0 0.0 5.0 0.1 5.0 0.2 4.9 0.35 4.9 0.4 4.05 0.4 3.75 0.0 3.05 -0.4 M-24.15 -3.65 Q-24.0 -3.0 -24.85 -2.85 L-25.1 -2.85 -25.15 -2.85 Q-25.35 -2.9 -25.35 -3.35 L-25.3 -3.75 -25.25 -3.9 -25.15 -3.9 -25.15 -4.0 -25.05 -4.05 -24.9 -4.05 -24.45 -3.9 -24.2 -3.75 -24.15 -3.65 M1.65 -8.85 L1.6 -8.9 1.4 -9.1 0.7 -9.15 -0.25 -9.1 -0.8 -9.1 -2.35 -9.15 -4.2 -9.2 -4.2 -9.15 -4.3 -8.8 -4.35 -8.8 -4.2 -8.5 Q-4.15 -8.2 -4.35 -8.05 L-4.35 -6.85 -4.35 -6.8 -3.85 -6.6 -3.8 -6.55 -3.45 -6.3 -3.4 -6.25 -3.35 -6.15 -2.75 -6.05 -2.65 -5.95 -2.65 -5.9 -2.6 -5.9 -2.6 -5.85 -2.0 -5.6 -1.95 -5.55 -1.9 -5.55 -1.05 -5.8 -0.5 -5.9 -0.2 -5.85 0.7 -5.95 1.25 -5.8 1.8 -5.85 2.0 -6.15 1.85 -6.15 1.85 -6.25 1.8 -7.35 1.8 -8.65 1.65 -8.85 M18.15 -5.3 L18.15 -5.35 18.2 -5.4 18.25 -5.55 18.4 -5.6 18.6 -5.6 21.35 -5.3 21.65 -5.1 21.75 -4.85 21.45 -4.4 21.2 -4.35 21.05 -4.45 20.05 -4.5 18.85 -4.55 18.6 -4.65 Q18.3 -4.7 18.2 -4.9 L18.15 -5.05 18.15 -5.15 18.15 -5.3 M22.9 -9.55 L22.8 -9.6 20.95 -9.75 21.0 -9.65 23.0 -9.15 23.5 -8.7 23.5 -8.85 23.35 -9.1 23.2 -9.2 23.2 -9.3 23.05 -9.35 23.05 -9.4 22.95 -9.5 22.9 -9.55 M23.4 2.05 L23.7 2.0 22.25 2.0 22.05 2.05 20.85 2.05 20.85 2.1 20.8 2.2 20.75 2.25 18.8 2.25 18.75 2.25 18.2 2.25 18.0 2.25 17.05 2.25 19.05 2.4 20.8 2.45 22.6 2.35 23.7 2.25 23.7 2.2 23.75 2.1 23.8 2.05 23.6 2.1 23.05 2.1 22.8 2.05 23.4 2.05 M7.55 2.25 L7.35 2.25 6.3 2.15 6.15 2.05 0.95 2.05 7.35 2.7 7.8 2.8 12.4 2.95 12.45 2.95 12.45 2.85 12.5 2.8 12.5 2.75 12.5 2.65 12.5 2.55 12.35 2.45 10.4 2.35 11.9 2.25 10.95 2.25 9.45 2.3 7.55 2.25 M7.45 2.0 L7.4 2.05 15.75 2.05 Q11.7 1.7 7.55 2.0 L7.45 2.0 M-24.2 -6.95 L-24.15 -6.95 -23.95 -6.95 -23.85 -7.0 -23.8 -7.05 -23.8 -7.1 -23.7 -7.1 -23.6 -7.1 -23.35 -7.05 -23.3 -7.05 -23.15 -6.95 -23.0 -6.45 -23.15 -6.25 -23.35 -6.05 -23.25 -5.95 -23.15 -5.6 -23.1 -5.4 -23.1 -5.35 -23.15 -5.3 Q-23.35 -4.95 -23.8 -5.1 L-23.95 -5.15 -24.15 -5.15 Q-24.9 -4.75 -24.9 -5.6 L-24.9 -5.65 -24.85 -6.15 -24.45 -6.85 -24.2 -6.95 M-12.2 -9.15 L-12.85 -9.1 Q-13.25 -8.9 -13.7 -8.8 -13.85 -8.7 -13.95 -8.7 L-14.1 -8.7 -14.1 -8.65 -14.15 -8.55 -14.3 -8.3 -14.35 -8.2 -14.45 -8.0 -14.6 -7.3 -14.55 -6.95 -14.5 -6.7 -14.5 -6.65 -14.4 -6.55 -14.4 -6.4 -14.35 -6.3 -14.35 -6.25 -14.3 -6.25 -14.2 -6.15 -14.15 -6.05 -14.15 -6.0 -13.7 -5.95 -13.6 -5.95 -13.45 -5.85 -13.0 -5.65 -12.9 -5.6 -12.75 -5.65 -12.6 -5.65 -12.55 -5.65 -12.5 -5.6 -12.35 -5.65 -12.1 -5.85 -11.8 -5.8 -11.75 -5.65 -11.7 -5.55 -11.65 -5.5 -11.3 -5.5 -11.2 -5.4 -11.2 -5.5 -11.0 -5.5 -10.9 -5.5 -10.8 -5.5 -10.75 -5.55 -10.65 -5.6 Q-10.55 -5.6 -10.55 -5.65 L-10.5 -5.65 -10.4 -5.65 -10.35 -5.6 -10.2 -5.5 -10.1 -5.4 -10.1 -5.3 -9.75 -5.35 -9.4 -5.4 -9.2 -5.4 -8.35 -5.4 -8.4 -5.55 -8.45 -5.6 -8.45 -6.0 -8.35 -6.15 -8.3 -6.25 -8.25 -6.25 -8.15 -6.25 -8.1 -6.25 Q-7.55 -6.15 -7.2 -5.85 L-7.2 -5.8 -7.0 -5.6 -6.75 -5.8 -6.7 -6.15 -6.6 -6.4 -6.55 -6.55 Q-6.35 -7.3 -6.55 -8.05 L-6.6 -8.45 -6.6 -8.8 -6.7 -8.85 -6.8 -9.0 -6.8 -9.15 -6.9 -9.15 -7.2 -9.35 -8.8 -9.35 -8.95 -9.35 -11.8 -9.2 -12.2 -9.15 M-15.1 -5.8 L-15.15 -5.85 -15.2 -6.0 -15.2 -5.8 -15.35 -4.65 -15.4 -4.3 -15.8 -4.1 -15.8 -4.0 -15.75 -3.9 -15.75 -3.75 -15.2 -3.1 -15.2 -3.15 -15.05 -3.3 -14.7 -3.75 -14.7 -4.0 -14.35 -4.3 -14.2 -4.35 -13.6 -4.35 -12.75 -4.3 -11.7 -4.45 -11.5 -4.45 -11.7 -4.5 -11.8 -4.5 -11.9 -4.5 -12.4 -4.5 -13.1 -4.6 Q-13.35 -4.65 -13.5 -4.9 L-13.55 -5.1 -13.55 -5.15 -13.6 -5.15 -13.65 -5.1 -14.55 -5.15 -15.0 -5.6 -15.1 -5.8 M-3.9 -3.0 L-3.9 -2.9 -3.8 -3.0 -3.9 -3.0 M-21.25 1.7 L-21.25 1.6 -21.55 1.4 -23.65 1.3 -24.15 1.3 -24.2 1.3 -24.2 1.55 -24.9 1.6 -25.65 1.7 -25.75 1.8 -25.75 1.85 -25.75 2.0 -25.75 2.05 -25.3 2.05 -24.5 2.05 -24.2 2.05 -24.2 2.0 -24.2 1.9 -24.05 1.95 -23.7 2.05 -23.6 2.05 -20.45 2.05 -20.5 2.0 -20.5 1.95 -20.5 1.85 -20.5 1.7 -20.45 1.65 -21.25 1.7" fill="#666666" fill-rule="evenodd" stroke="none"/>
    <path d="M24.85 0.45 L25.35 0.45 25.4 0.45 25.55 0.45 Q25.75 0.15 26.05 0.15 26.25 0.15 26.45 0.4 L26.55 0.85 23.15 0.8 22.9 0.35 22.9 0.0 22.95 -0.05 23.05 -0.25 23.2 -0.3 23.25 -0.3 23.7 -0.15 23.75 -0.05 23.95 0.1 24.1 0.15 24.15 0.2 24.25 0.35 24.3 0.45 24.6 0.45 24.7 0.45 24.85 0.45 M-24.95 0.95 L-25.5 0.5 Q-25.75 0.2 -25.6 -0.3 L-25.15 -0.55 -25.05 -0.4 -24.9 -0.35 -24.9 -0.3 -24.85 -0.3 -24.8 -0.2 -24.75 -0.15 Q-24.7 -0.05 -24.55 -0.05 L-24.4 0.1 -24.1 -0.05 -23.85 -0.25 -23.65 -0.4 -23.45 -0.55 -23.3 -0.65 -23.15 -0.75 -23.1 -0.8 -22.95 -0.8 -22.75 -0.75 -22.7 -0.6 Q-22.4 0.15 -23.15 0.5 L-23.8 0.85 -24.05 0.95 -24.2 1.05 -24.2 0.95 -24.95 0.95 M2.95 0.8 L2.8 0.6 2.55 0.4 2.5 -0.15 2.6 -0.3 2.7 -0.4 2.85 -0.4 2.95 -0.4 3.05 -0.4 3.75 0.0 4.05 0.4 4.9 0.4 4.9 0.35 5.0 0.2 5.0 0.1 5.0 0.0 5.05 -0.15 Q5.2 -0.5 5.6 -0.4 L5.65 -0.4 5.85 -0.25 Q6.05 0.45 5.8 0.8 L5.6 0.8 5.0 0.8 2.95 0.8 M-5.2 0.45 L-4.75 0.35 Q-4.45 0.0 -3.95 0.0 L-3.75 0.15 -3.65 0.6 -3.85 0.95 -6.85 0.95 -7.0 0.95 -7.55 -0.05 -7.5 -0.3 -7.45 -0.4 Q-7.4 -0.4 -7.25 -0.5 L-7.25 -0.55 -7.15 -0.55 -6.8 -0.4 -6.55 -0.2 -6.25 0.15 -5.9 0.4 -5.3 0.45 -5.2 0.45 M-14.4 -0.3 L-14.2 -0.15 Q-14.05 0.15 -14.25 0.45 L-14.6 0.75 -14.7 0.8 -14.95 0.95 -16.35 0.95 -16.5 0.9 -16.8 0.65 -16.9 0.0 -16.75 -0.35 -16.45 -0.4 -16.3 -0.4 -16.1 -0.35 -16.05 -0.25 -16.0 -0.15 -15.95 -0.05 -15.95 0.1 -15.75 0.15 -15.7 0.15 -15.6 0.15 -15.55 0.15 -15.4 0.1 -15.4 0.0 -15.3 -0.05 -14.55 -0.3 -14.4 -0.3 M12.4 0.85 Q12.1 0.45 12.15 -0.05 L12.85 -0.25 13.3 0.2 13.45 0.45 13.6 0.45 14.75 0.1 14.9 -0.2 15.3 -0.4 15.55 -0.35 15.65 -0.25 Q15.85 0.45 15.6 0.85 L12.4 0.85" fill="#000000" fill-rule="evenodd" stroke="none"/>
    <path d="M-7.25 0.15 L-7.45 0.0 -7.95 -0.05 -8.05 -0.05 -8.1 -0.05 -8.2 0.0 -8.3 0.1 -8.3 0.15 Q-8.4 -0.05 -8.6 -0.05 L-8.7 -0.05 -8.95 -0.15 -8.4 -0.6 -8.3 -0.6 -8.1 -0.65 -7.55 -0.5 -7.3 -0.35 -7.25 -0.15 -7.2 0.1 -7.2 0.2 -7.25 0.15 M-18.2 -0.55 L-19.05 -0.55 -19.0 -0.6 -18.85 -0.6 -18.7 -0.65 -18.2 -0.55 M13.55 0.35 L13.55 0.25 13.25 0.1 12.9 0.15 12.8 0.15 12.45 0.1 12.3 0.1 11.45 0.25 11.4 0.25 11.4 0.2 11.4 0.1 11.35 0.0 11.3 -0.05 11.0 -0.3 10.4 -0.15 10.3 -0.15 9.7 -0.35 7.65 -0.35 7.0 -0.2 6.85 -0.15 6.4 -0.15 6.15 0.0 6.0 -0.05 5.6 0.15 4.9 0.15 4.9 0.1 4.9 -0.05 4.9 -0.2 4.9 -0.5 4.95 -0.55 5.15 -0.8 5.45 -1.05 5.6 -1.05 5.8 -1.1 6.7 -1.0 9.05 -0.75 9.5 -0.6 12.1 -0.4 12.3 -0.25 12.45 0.1 13.55 0.0 14.0 0.25 13.55 0.35 M14.4 0.2 L16.0 0.1 16.05 0.15 15.95 0.15 15.95 0.2 14.65 0.15 14.4 0.2 M17.35 0.1 L17.5 0.1 17.4 0.25 17.35 0.25 17.35 0.1 M22.4 -0.25 L22.7 -0.2 22.6 -0.2 22.6 -0.15 22.45 -0.15 22.4 -0.25 M23.4 -0.05 L23.85 0.0 24.2 0.25 24.35 0.75 24.25 0.75 24.2 0.7 24.15 0.6 23.85 0.35 23.4 -0.05 M-7.05 0.25 L-6.55 0.2 -6.55 0.35 -6.8 0.35 -6.85 0.35 -7.0 0.25 -7.05 0.25" fill="#333333" fill-opacity="0.45882353" fill-rule="evenodd" stroke="none"/>
    <path d="M3.3 0.1 L2.85 -0.15 2.55 -0.05 Q2.5 -0.05 2.35 -0.15 L1.05 -0.2 -2.75 0.1 Q-3.2 0.15 -3.5 0.45 L-3.55 0.35 Q-3.7 0.1 -3.9 0.15 L-4.35 0.35 -4.8 0.45 -5.5 0.85 -5.65 0.85 -6.35 0.85 -6.35 0.8 -6.55 0.75 -6.7 0.7 Q-6.85 0.45 -7.0 0.45 L-7.25 0.2 -7.25 0.15 -7.2 0.2 -7.05 0.25 -7.0 0.25 -6.85 0.35 -6.8 0.35 -6.55 0.35 -6.55 0.2 Q-5.65 -0.75 -4.2 -0.2 L-3.6 0.1 -2.85 0.1 -2.35 -0.05 -1.3 0.0 -0.15 -0.4 0.8 -1.05 1.0 -1.05 1.15 -1.1 Q2.1 -1.15 2.8 -0.55 L3.45 0.0 4.05 -0.05 Q4.5 -0.15 4.85 0.15 L4.9 0.15 5.6 0.15 5.5 0.2 5.15 0.65 5.0 0.65 4.9 0.45 Q4.6 0.1 4.2 0.1 L3.3 0.1 M-15.4 0.45 L-16.25 0.35 -16.3 0.1 -16.3 -0.05 Q-15.9 0.1 -15.65 0.4 L-15.4 0.35 -15.4 0.45 M-23.9 0.1 L-23.95 0.1 -23.95 0.15 -24.2 0.3 -24.2 -0.6 -24.65 -0.55 -24.75 -0.55 -24.65 -0.6 -24.45 -0.6 -24.25 -0.65 -24.05 -0.6 -23.75 -0.5 -23.0 -0.4 -23.9 0.1 M6.85 0.95 L6.9 0.9 7.2 0.95 6.85 0.95 M14.05 0.95 L13.7 0.75 13.6 0.6 13.55 0.45 13.55 0.35 14.0 0.25 14.4 0.2 14.65 0.15 15.95 0.2 14.25 0.95 14.05 0.95 M24.35 0.75 L25.2 0.75 24.4 0.95 24.25 0.75 24.35 0.75" fill="#333333" fill-opacity="0.67058825" fill-rule="evenodd" stroke="none"/>
    <path d="M-8.3 0.15 L-8.35 0.2 -8.35 0.25 -8.4 0.2 -8.45 0.15 -8.45 0.1 -8.6 -0.05 Q-8.4 -0.05 -8.3 0.15 M-9.2 -0.05 L-9.9 0.15 -10.35 0.25 -11.4 0.45 -12.8 0.15 -13.0 0.0 -13.3 -0.15 -13.4 -0.15 -13.5 -0.05 -13.55 -0.05 -13.65 0.0 Q-14.2 -0.15 -14.7 0.35 L-15.4 0.45 -15.4 0.35 -15.4 0.15 -15.35 0.1 -15.1 -0.2 -14.8 -0.4 -14.65 -0.4 -14.5 -0.4 -12.55 -0.4 -9.2 -0.05 M-20.3 -0.55 L-22.5 -0.5 -22.95 -0.2 -23.0 -0.2 -23.45 -0.15 -23.6 -0.05 -23.9 0.1 -23.0 -0.4 -21.65 -0.55 -20.3 -0.55 M-25.0 -0.4 L-25.2 -0.3 -25.75 -0.15 -25.75 -0.2 -25.85 -0.3 -26.0 -0.35 -26.1 -0.35 -26.0 -0.4 -25.85 -0.4 -25.65 -0.4 -25.3 -0.4 -25.0 -0.4 M5.0 0.65 L3.95 0.65 3.8 0.6 3.75 0.5 3.55 0.45 3.45 0.4 3.4 0.2 3.3 0.1 4.2 0.1 Q4.6 0.1 4.9 0.45 L5.0 0.65" fill="#333333" fill-opacity="0.8509804" fill-rule="evenodd" stroke="none"/>
    <path d="M-7.25 0.15 L-7.25 0.2 -7.0 0.45 Q-6.85 0.45 -6.7 0.7 L-6.55 0.75 -6.35 0.8 -6.35 0.85 -5.65 0.85 -5.5 0.85 -4.8 0.45 -4.35 0.35 -3.9 0.15 Q-3.7 0.1 -3.55 0.35 L-3.5 0.45 Q-3.2 0.15 -2.75 0.1 L1.05 -0.2 2.35 -0.15 Q2.5 -0.05 2.55 -0.05 L2.85 -0.15 3.3 0.1 3.4 0.2 3.45 0.4 3.55 0.45 3.75 0.5 3.8 0.6 3.95 0.65 5.0 0.65 5.15 0.65 5.5 0.2 5.6 0.15 6.0 -0.05 6.15 0.0 6.4 -0.15 6.85 -0.15 7.0 -0.2 7.65 -0.35 9.7 -0.35 10.3 -0.15 10.4 -0.15 11.0 -0.3 11.3 -0.05 11.35 0.0 11.4 0.1 11.4 0.2 11.4 0.25 11.45 0.25 12.3 0.1 12.45 0.1 12.8 0.15 12.9 0.15 13.25 0.1 13.55 0.25 13.55 0.35 13.55 0.45 13.6 0.6 13.7 0.75 14.05 0.95 7.2 0.95 6.9 0.9 6.85 0.95 -18.5 0.95 -21.8 0.95 -26.5 0.95 -26.5 0.9 -26.5 0.8 -26.6 0.6 -26.7 0.35 -26.7 0.15 -26.7 0.05 -26.75 -0.05 -26.8 -0.15 -26.9 -0.2 -26.45 -0.4 -26.1 -0.35 -26.0 -0.35 -25.85 -0.3 -25.75 -0.2 -25.75 -0.15 -25.2 -0.3 -25.0 -0.4 -24.95 -0.4 -24.85 -0.55 -24.75 -0.55 -24.65 -0.55 -24.2 -0.6 -24.2 0.3 -23.95 0.15 -23.95 0.1 -23.9 0.1 -23.6 -0.05 -23.45 -0.15 -23.0 -0.2 -22.95 -0.2 -22.5 -0.5 -20.3 -0.55 -19.05 -0.55 -18.2 -0.55 -18.05 -0.55 -17.8 -0.55 -17.2 -0.55 -17.05 -0.55 -17.0 -0.6 -16.95 -0.6 -16.7 -0.55 -16.6 -0.55 -16.35 -0.4 -16.3 -0.05 -16.3 0.1 -16.25 0.35 -15.4 0.45 -14.7 0.35 Q-14.2 -0.15 -13.65 0.0 L-13.55 -0.05 -13.5 -0.05 -13.4 -0.15 -13.3 -0.15 -13.0 0.0 -12.8 0.15 -11.4 0.45 -10.35 0.25 -9.9 0.15 -9.2 -0.05 -9.1 -0.15 -8.95 -0.15 -8.7 -0.05 -8.6 -0.05 -8.45 0.1 -8.45 0.15 -8.4 0.2 -8.35 0.25 -8.35 0.2 -8.3 0.15 -8.3 0.1 -8.2 0.0 -8.1 -0.05 -8.05 -0.05 -7.95 -0.05 -7.45 0.0 -7.25 0.15 M16.05 0.15 L16.1 0.1 16.2 0.1 16.3 -0.05 16.35 -0.15 16.4 -0.3 16.5 -0.35 16.6 -0.4 16.75 -0.4 17.05 -0.35 17.25 -0.2 17.35 0.1 17.35 0.25 17.4 0.25 17.5 0.1 Q17.95 -0.35 18.6 -0.35 L19.1 -0.4 22.05 -0.4 22.4 -0.25 22.45 -0.15 22.6 -0.15 22.6 -0.2 22.7 -0.2 22.8 -0.3 22.9 -0.35 23.0 -0.35 23.4 -0.05 23.85 0.35 24.15 0.6 24.2 0.7 24.25 0.75 24.4 0.95 25.2 0.75 25.4 0.65 25.45 0.6 Q25.65 0.45 26.0 0.45 L26.0 -0.2 26.1 -0.2 26.4 -0.05 26.55 0.0 26.7 -0.15 26.8 -0.2 26.85 -0.2 26.85 0.8 26.75 0.95 24.4 0.95 21.85 0.95 20.85 0.95 14.25 0.95 15.95 0.2 15.95 0.15 16.05 0.15 M-25.85 -0.4 L-25.85 -0.6 -25.3 -0.4 -25.65 -0.4 -25.85 -0.4" fill="#000000" fill-rule="evenodd" stroke="none"/>
    <path d="M9.5 -11.95 L20.6 -11.95 20.85 -11.85 21.0 -11.85 21.8 -11.7 23.75 -11.6 24.3 -11.5 24.6 -11.35 24.6 -11.3 24.85 -11.15 25.0 -11.1 25.05 -11.1 25.4 -10.85 25.45 -10.8 25.55 -10.8 25.65 -10.7 25.7 -10.65 25.85 -10.3 25.85 -10.2 25.85 -10.1 25.85 -9.85 26.15 -8.55 26.2 -8.1 26.2 -8.0 26.2 -7.5 26.25 -6.9 26.45 -3.9 26.0 -4.15 26.15 -3.65 26.7 -2.85 26.85 -2.4 26.45 -1.2 26.5 -1.15 26.55 -1.15 26.55 -1.1 26.6 -1.0 26.8 -0.7 26.75 -0.7 26.6 -0.55 26.55 -0.45 26.5 -0.4 26.5 -0.2 26.45 0.1 26.45 0.35 26.45 0.45 26.6 0.85 26.6 1.1 26.65 1.25 26.65 1.35 26.65 1.45 26.65 1.55 26.6 1.6 23.5 1.45 23.25 1.25 23.1 0.95 23.05 0.8 23.05 0.6 23.1 0.45 23.05 0.45 22.4 0.15 22.3 0.1 21.85 -0.05 17.1 0.1 Q16.95 0.45 16.5 0.45 L16.4 0.4 15.8 1.15 15.15 1.7 12.1 1.45 12.0 1.3 12.0 1.25 11.95 1.25 11.7 1.2 11.6 1.15 11.45 0.85 Q11.35 0.5 11.55 0.25 L10.75 0.15 10.35 0.1 10.25 0.1 9.75 -0.05 Q9.2 -0.05 9.2 0.45 9.2 0.9 8.8 0.9 L8.25 0.45 7.8 0.0 7.55 0.1 7.55 0.2 7.55 0.35 7.5 0.4 7.2 0.75 6.8 1.15 6.75 1.2 6.7 1.25 6.2 1.65 5.9 1.95 3.6 1.8 3.55 1.8 3.3 1.65 2.5 0.75 2.5 0.25 2.5 0.2 2.45 0.1 2.45 0.05 2.45 -0.25 2.45 -0.4 2.45 -0.55 2.45 -0.65 2.45 -1.15 2.45 -1.8 2.4 -1.9 2.35 -1.95 2.25 -1.9 2.2 -1.9 -0.1 -1.85 -0.3 -1.9 -0.4 -1.95 -2.95 -1.95 -3.15 -2.0 -3.2 -2.0 -3.15 -1.65 -3.15 -1.55 -3.15 -0.9 -3.15 -0.75 -3.15 -0.3 -3.0 -0.25 -2.9 -0.15 -2.9 -0.05 -2.8 0.15 -2.8 0.25 -2.8 0.4 -2.8 0.45 -2.9 0.6 -2.95 0.8 -3.15 0.95 -3.4 1.25 -4.4 1.9 -4.55 2.0 -6.3 1.95 -6.35 1.85 -6.5 1.8 -8.0 1.15 -8.15 0.85 -8.1 0.25 -8.3 0.2 Q-8.8 0.2 -9.4 0.7 L-9.45 0.8 -9.65 0.95 -10.9 0.95 Q-11.25 0.45 -11.65 0.45 L-13.0 0.45 -13.6 0.45 -13.7 0.75 -14.2 1.25 -14.5 1.45 -16.85 1.5 -16.95 1.45 -17.0 1.4 -17.15 1.25 -17.2 1.25 -17.6 1.15 -17.75 0.85 -17.65 0.25 Q-17.1 -0.25 -16.5 0.25 L-15.05 0.35 -15.15 -0.05 -14.85 -0.5 -14.7 -0.5 -14.65 -0.5 -14.65 -0.65 -14.65 -1.35 -14.5 -2.75 -14.55 -2.9 Q-14.55 -3.45 -14.1 -3.4 L-11.9 -3.2 -9.1 -3.4 Q-7.65 -3.4 -7.05 -2.9 L-6.85 -2.85 -6.5 -2.3 -6.5 -0.35 -6.5 -0.15 -6.75 0.25 -6.75 0.35 Q-6.3 0.45 -5.95 0.7 -4.95 0.85 -4.15 0.3 L-4.15 -0.3 -4.15 -1.4 -4.15 -1.85 -4.3 -1.9 -4.4 -1.95 -4.45 -2.05 -4.5 -2.05 -4.5 -2.15 -4.5 -2.25 -4.5 -2.3 -4.45 -2.35 -4.4 -2.4 -4.35 -2.5 -4.25 -2.55 -4.1 -2.6 -3.9 -2.6 -3.9 -2.55 -3.85 -2.6 -3.8 -2.7 -3.8 -2.75 -3.7 -2.85 -3.5 -2.85 -3.4 -2.9 -3.15 -2.9 -2.9 -2.95 -2.8 -3.0 -2.5 -3.1 -1.35 -3.15 -1.25 -3.25 -1.1 -3.25 0.0 -3.25 0.2 -3.2 0.3 -3.1 0.4 -3.1 0.75 -3.05 1.0 -3.0 1.1 -2.95 1.55 -2.9 2.75 -2.85 2.95 -2.85 3.1 -2.85 3.2 -2.75 3.3 -2.7 3.35 -2.6 3.4 -2.55 3.4 -2.4 3.4 -2.35 3.4 -2.25 3.4 -2.1 3.4 -2.05 3.4 -1.95 3.4 -1.9 3.4 -1.8 3.45 -1.75 3.5 -1.65 3.55 -1.55 3.6 -1.5 3.6 -1.4 3.6 -1.3 3.7 -1.2 3.75 -1.2 3.75 -1.1 3.8 -1.05 3.8 -0.95 3.85 -0.9 3.95 -0.8 3.95 -0.75 4.0 -0.7 4.0 -0.6 4.0 -0.45 4.0 -0.3 3.95 -0.25 3.95 -0.15 3.85 -0.05 3.8 0.0 3.75 0.05 3.6 0.1 3.4 0.1 3.5 0.2 3.7 0.45 4.05 0.7 4.15 0.75 Q5.2 0.95 6.05 0.25 5.55 0.2 5.35 -0.05 L5.2 -0.35 5.2 -0.9 5.3 -2.05 Q5.6 -2.9 6.25 -2.9 L7.8 -2.75 10.9 -3.25 11.0 -3.25 12.2 -3.2 Q13.55 -2.75 13.55 -2.25 13.55 -1.55 12.7 -1.95 L12.65 -1.85 13.05 -0.55 12.75 -0.05 12.65 0.1 12.6 0.2 12.65 0.25 Q12.9 0.45 13.2 0.45 L13.3 0.45 15.0 0.4 15.1 0.25 15.05 0.15 15.0 0.1 15.0 0.0 15.2 0.0 15.5 -0.5 15.55 -0.55 15.7 -0.55 15.4 -1.05 14.7 -2.5 15.1 -3.35 15.95 -4.1 Q16.7 -4.25 16.9 -3.65 L17.3 -2.75 18.2 -3.15 Q18.8 -3.65 19.3 -3.65 21.45 -3.65 22.95 -3.05 24.4 -2.4 24.4 -1.55 L24.15 -0.55 23.7 0.1 23.95 0.2 24.1 0.25 25.45 0.35 25.6 -0.4 25.55 -0.55 25.45 -1.35 25.95 -2.4 25.4 -2.9 Q24.8 -3.1 24.8 -3.55 L25.35 -5.1 25.25 -6.85 25.25 -8.1 25.25 -8.3 25.2 -8.35 25.2 -8.4 25.2 -8.65 25.2 -8.7 24.15 -10.0 22.85 -10.3 21.2 -10.45 18.65 -10.55 18.15 -10.6 15.7 -10.85 Q15.4 -10.8 15.15 -10.6 L15.1 -10.6 13.1 -10.65 8.25 -10.7 8.2 -10.7 7.5 -10.65 4.05 -10.6 3.8 -10.45 1.65 -10.4 -1.25 -10.55 -1.4 -10.45 -1.45 -10.45 -1.5 -10.4 -1.55 -10.35 -1.55 -10.3 -1.65 -10.3 -3.7 -10.4 -3.9 -10.4 -3.9 -10.6 -3.95 -10.65 Q-4.1 -10.8 -4.35 -10.8 L-4.75 -10.8 -4.8 -10.7 -4.8 -10.85 -4.85 -10.85 -5.1 -11.05 -5.9 -11.05 -8.65 -10.8 -9.0 -10.85 -9.9 -10.65 -14.95 -10.6 Q-15.15 -10.6 -15.2 -10.4 L-17.0 -10.15 -17.15 -10.15 Q-16.95 -10.35 -17.05 -10.85 L-17.2 -11.15 -16.95 -11.15 -16.95 -12.1 -17.0 -12.15 -17.2 -11.55 Q-17.45 -11.1 -17.9 -11.1 -18.7 -11.1 -19.0 -11.85 L-19.35 -12.85 -19.6 -12.8 -19.55 -12.15 -19.7 -11.5 -20.3 -11.0 -20.95 -11.15 -21.35 -11.6 Q-21.45 -11.15 -21.8 -11.15 L-22.6 -11.65 -23.15 -11.15 Q-23.7 -11.15 -23.75 -11.55 L-23.75 -12.2 -24.4 -12.2 -24.8 -11.55 Q-24.25 -11.0 -24.25 -10.6 -24.25 -10.15 -25.1 -9.9 -25.8 -9.65 -25.8 -9.3 L-25.45 -8.7 -25.15 -8.2 Q-25.15 -7.35 -26.85 -7.0 L-26.9 -6.95 -26.4 -7.05 Q-26.0 -7.05 -25.65 -5.6 L-25.45 -4.1 Q-25.45 -3.75 -25.65 -3.7 L-25.1 -2.8 -25.05 -0.9 -25.0 -0.9 -24.2 -0.9 -24.2 0.1 -24.25 0.1 -24.5 0.15 -24.75 0.2 -24.75 0.75 Q-25.0 1.8 -26.0 1.7 L-26.0 1.85 -25.9 1.95 -25.9 2.05 -25.9 2.1 -25.1 2.65 -24.55 2.65 -24.45 2.65 -22.05 2.7 -21.95 2.7 -20.95 2.75 -20.7 2.8 -16.15 2.95 -15.5 2.75 -14.25 2.8 -14.1 2.9 -14.05 2.95 -13.95 2.95 -13.85 2.95 -12.85 2.95 -12.65 2.85 -12.35 2.7 -12.1 2.6 -10.55 2.45 -10.0 2.65 -9.85 2.7 -9.5 2.8 -9.3 2.9 -9.15 2.95 -9.1 2.95 9.1 2.95 9.4 2.9 13.2 2.65 16.4 2.7 17.15 2.95 25.7 2.95 25.75 2.95 25.9 2.85 26.0 2.8 26.0 2.5 26.25 2.45 26.45 2.4 26.65 2.3 26.65 2.45 26.65 2.9 26.65 3.0 26.35 3.0 24.15 3.3 Q22.35 3.75 22.25 4.8 L20.8 4.8 20.45 4.85 17.5 4.8 17.0 4.75 16.45 4.55 16.4 4.5 16.35 4.4 16.3 4.3 13.1 4.25 12.75 4.2 11.0 4.2 10.7 4.3 10.45 4.3 10.1 4.5 4.05 5.05 3.7 5.0 -6.75 5.05 -7.45 4.8 -10.05 4.45 -10.35 4.3 -10.5 4.25 -10.6 4.2 -10.8 4.15 -11.3 4.15 -11.55 4.15 -11.65 4.25 -11.7 4.3 -11.8 4.4 -11.85 4.5 -12.05 4.5 -12.15 4.55 -12.25 4.6 -12.3 4.65 -14.65 4.55 -15.05 4.5 Q-17.85 4.95 -20.6 4.55 L-20.7 4.55 -21.6 4.3 -23.4 4.35 Q-23.75 2.8 -25.45 2.8 L-26.25 2.9 -26.25 2.6 -26.25 2.05 -26.25 1.85 -26.3 1.65 -26.35 1.55 -26.4 1.45 -26.45 0.9 -26.4 0.4 -26.45 -0.15 -26.45 -0.25 -26.5 -0.35 -26.55 -0.45 -25.85 -0.7 -25.85 -0.9 -25.8 -0.9 -26.1 -3.65 Q-26.7 -3.7 -26.85 -4.8 L-26.6 -5.85 -26.6 -5.9 -27.4 -5.65 Q-28.0 -5.65 -27.85 -6.6 -27.85 -8.15 -26.45 -8.3 L-26.8 -8.8 -26.85 -9.2 Q-26.85 -9.75 -26.25 -10.45 L-25.65 -11.5 Q-25.65 -13.65 -23.35 -13.65 -23.0 -13.65 -22.9 -13.05 -22.75 -12.5 -21.9 -12.5 L-21.3 -12.8 Q-20.95 -12.8 -20.65 -12.35 -20.3 -14.05 -19.5 -13.9 -18.8 -13.85 -17.95 -12.55 L-17.65 -13.2 -16.95 -13.65 Q-16.55 -13.65 -16.05 -12.5 L-15.75 -11.7 -15.55 -11.85 Q-9.9 -11.7 -4.35 -11.85 L-0.7 -11.7 0.1 -11.85 2.5 -11.85 3.15 -11.85 3.4 -11.95 6.7 -11.95 6.8 -11.95 8.45 -11.95 8.65 -11.9 9.5 -11.95 M8.2 -9.6 L8.3 -9.65 8.55 -9.85 10.8 -9.9 Q12.1 -10.0 12.45 -9.45 L12.5 -9.4 12.6 -9.35 12.5 -8.3 Q12.5 -7.65 12.85 -7.0 L13.1 -6.4 Q13.1 -5.95 12.6 -5.95 L12.45 -5.95 11.35 -6.15 9.05 -5.95 7.95 -5.8 5.85 -5.35 Q5.4 -5.35 5.25 -6.05 L5.2 -6.3 5.2 -6.85 5.2 -7.2 Q5.2 -8.95 5.45 -9.65 L8.2 -9.6 M6.2 -8.2 L6.2 -6.6 11.75 -7.2 11.5 -8.95 9.75 -8.85 6.25 -9.1 6.2 -8.2 M0.2 -9.45 L0.2 -9.5 1.5 -9.5 2.25 -9.1 2.35 -9.0 2.55 -8.8 2.8 -8.45 3.0 -6.4 3.0 -5.9 Q2.95 -5.4 2.35 -5.4 L-1.1 -5.6 -3.3 -5.4 Q-3.95 -5.4 -4.4 -6.15 L-4.65 -6.9 -4.75 -8.3 -4.7 -9.3 -4.65 -9.5 -4.55 -9.65 -4.55 -9.6 -4.5 -9.55 -4.5 -9.5 -4.4 -9.45 -0.15 -9.3 0.05 -9.35 0.2 -9.45 M2.1 -6.7 Q2.1 -7.9 1.6 -8.3 0.4 -9.1 -3.75 -8.8 L-3.8 -8.15 Q-3.75 -6.45 -3.15 -6.45 L-0.25 -6.6 2.1 -6.6 2.1 -6.7 M6.2 -0.75 L6.7 -0.75 7.55 -1.0 8.6 -0.65 8.9 -0.9 9.75 -1.1 10.9 -0.9 11.85 -0.9 11.85 -1.1 12.1 -1.0 11.15 -2.75 Q10.9 -2.4 10.95 -2.15 L10.25 -2.05 6.4 -1.85 6.25 -1.55 6.2 -1.25 6.2 -0.75 M15.55 -7.0 L15.65 -6.25 15.95 -6.15 Q15.5 -6.05 15.2 -5.55 L15.0 -5.15 Q14.75 -5.4 14.7 -5.8 L14.6 -7.8 14.6 -8.65 14.7 -9.15 Q14.85 -9.35 15.1 -9.35 L15.35 -9.3 16.8 -9.15 18.85 -9.2 21.3 -9.4 Q23.15 -9.2 23.6 -7.8 L23.75 -6.55 23.5 -5.05 Q23.2 -4.5 22.5 -4.5 L22.0 -4.5 21.8 -4.5 20.85 -4.65 19.95 -4.9 19.25 -4.75 18.8 -4.6 Q18.1 -4.6 18.0 -5.05 L18.0 -5.65 Q17.8 -4.5 16.4 -4.5 15.7 -4.5 15.4 -4.9 L15.3 -5.4 Q15.3 -5.95 15.75 -5.95 L16.2 -5.65 16.4 -5.5 Q17.15 -5.5 17.15 -6.0 17.2 -6.65 17.5 -6.85 18.35 -7.3 18.7 -6.65 L19.0 -5.85 19.95 -5.95 21.55 -5.6 22.5 -5.5 22.85 -6.55 22.55 -7.3 21.7 -8.1 19.95 -8.35 15.55 -8.1 15.55 -7.0 M16.0 -2.25 Q16.0 -2.05 16.55 -1.15 L17.15 -0.3 Q18.0 -0.55 18.9 -1.1 L21.8 -1.2 22.35 -1.05 22.85 -0.9 22.85 -1.25 23.4 -1.4 Q23.2 -1.75 22.0 -2.15 L19.3 -2.65 18.6 -2.15 17.35 -1.7 Q16.4 -1.7 16.4 -1.95 L16.3 -2.5 16.1 -2.4 16.0 -2.25 M-23.35 -8.15 L-22.75 -8.35 -21.75 -8.55 -19.2 -8.8 -16.95 -8.65 -16.5 -8.35 -16.4 -8.15 -16.25 -6.95 Q-16.1 -6.4 -16.25 -6.15 -16.3 -5.35 -16.8 -5.35 -16.9 -5.1 -17.2 -5.1 L-18.35 -5.4 -18.8 -5.1 -19.35 -4.7 Q-19.95 -4.7 -20.15 -5.1 L-20.45 -5.65 -22.35 -4.25 Q-22.9 -4.25 -23.35 -5.6 L-23.15 -6.15 -23.8 -6.15 -23.75 -6.35 Q-23.45 -6.7 -23.45 -7.8 L-23.35 -8.15 M-22.55 -7.35 L-22.55 -6.6 -22.3 -6.65 -21.8 -6.45 -21.65 -6.35 -21.4 -6.35 -20.95 -6.8 Q-20.75 -7.1 -20.2 -6.8 L-19.6 -6.25 -19.3 -5.9 Q-19.15 -6.4 -18.4 -6.4 L-18.15 -6.4 -18.25 -6.55 -17.2 -6.6 -17.15 -7.0 -17.25 -7.65 -19.1 -7.8 -20.3 -7.65 -22.55 -7.35 M-23.15 -1.75 L-22.75 -1.55 Q-22.75 -1.05 -22.4 -1.05 L-20.9 -1.35 Q-20.15 -1.55 -18.3 -1.35 L-16.95 -1.35 -16.9 -1.55 -16.9 -2.05 -18.45 -2.15 Q-18.95 -1.8 -19.2 -1.8 -19.85 -1.8 -20.05 -2.15 L-20.15 -2.75 -21.55 -2.65 -23.0 -2.9 -23.2 -1.95 -23.15 -1.75 M-24.15 -1.9 L-24.05 -3.15 Q-23.75 -3.9 -22.05 -3.9 -19.6 -3.9 -19.15 -2.9 L-18.8 -3.35 -18.2 -3.65 Q-17.75 -3.65 -17.7 -3.25 -16.3 -3.2 -16.0 -2.6 L-15.95 -1.9 Q-15.95 -0.5 -16.5 -0.3 L-16.75 -0.25 -18.85 -0.5 -18.9 -0.5 -20.25 -0.35 -20.85 -0.25 -22.7 0.0 -23.2 -0.05 -23.55 0.0 -23.85 -0.2 Q-24.1 -0.55 -24.15 -1.9 M-14.65 -7.55 L-14.65 -8.85 -11.2 -9.15 -9.2 -9.35 -7.5 -9.2 Q-7.25 -9.15 -7.15 -9.0 L-7.0 -8.9 Q-6.55 -8.5 -6.55 -6.8 -6.55 -6.15 -7.05 -5.95 -7.55 -5.6 -9.15 -5.6 L-11.0 -5.85 -13.4 -5.6 Q-14.45 -5.6 -14.65 -6.6 L-14.65 -7.55 M-13.7 -8.15 L-13.7 -6.6 -12.9 -6.6 -12.75 -6.8 -11.75 -6.85 -9.15 -6.6 -7.6 -6.9 -7.55 -6.85 -7.5 -7.0 -7.7 -8.3 -13.65 -8.35 -13.7 -8.15 M-13.6 -0.6 L-13.6 -0.55 -12.15 -0.55 -10.55 -0.3 -10.5 -0.15 -10.2 0.0 -10.0 -0.05 -9.5 -0.3 -9.4 -0.4 -9.3 -0.4 -7.45 -0.75 -7.4 -2.05 -9.1 -2.4 -11.9 -2.15 -13.65 -2.3 -13.65 -1.5 -13.65 -0.65 -13.6 -0.6" fill="#000000" fill-rule="evenodd" stroke="none"/>
    <path d="M25.85 -10.45 Q26.6 -10.25 26.6 -9.4 L26.6 -5.75 Q26.55 -4.4 25.95 -4.4 25.25 -4.4 25.25 -5.55 L25.35 -7.1 25.1 -9.75 Q25.1 -10.65 25.85 -10.45" fill="#000000" fill-rule="evenodd" stroke="none"/>
    <path d="M26.0 2.2 L26.0 3.0 25.8 3.05 26.0 2.2 M24.65 8.95 L23.85 9.2 23.35 9.05 23.3 8.95 23.25 8.9 23.7 8.9 24.95 8.65 24.9 8.7 24.65 8.95 M-11.75 0.05 L-11.65 0.05 -11.65 0.15 -11.75 0.05" fill="#ffa620" fill-rule="evenodd" stroke="none"/>
    <path d="M-12.2 0.05 L-11.75 0.05 -11.65 0.15 -12.45 0.35 -12.35 0.25 -12.2 0.05 M18.7 0.4 L19.9 0.35 20.15 0.35 19.95 0.5 19.5 1.1 Q19.1 0.6 18.7 0.4 M22.85 0.3 L23.45 0.25 23.5 0.2 23.8 0.2 23.9 0.2 24.55 0.15 24.75 0.2 24.7 0.2 24.15 0.55 Q23.35 0.55 22.95 1.05 L22.6 0.55 22.85 0.3 M22.4 8.7 L23.25 8.9 21.4 9.05 Q21.7 8.7 22.4 8.7 M24.95 8.65 Q25.7 8.25 26.0 7.25 25.95 8.35 25.05 8.65 L24.9 8.7 24.95 8.65" fill="#ffb74a" fill-rule="evenodd" stroke="none"/>
    <path d="M25.45 0.1 L25.5 0.1 26.0 0.15 26.05 0.3 26.15 0.75 26.05 1.15 26.15 3.0 26.0 3.0 26.0 2.2 26.0 2.15 26.0 1.1 25.9 0.6 25.5 0.15 25.45 0.1 M22.15 -2.5 L22.25 -2.5 23.0 -2.1 22.4 -2.1 22.35 -2.15 22.25 -2.2 22.15 -2.3 21.95 -2.35 20.9 -2.4 22.15 -2.5 M26.15 6.7 L26.15 7.5 Q26.15 8.9 25.3 8.9 L24.65 8.95 24.9 8.7 25.05 8.65 Q25.95 8.35 26.0 7.25 L26.15 6.7 M23.35 9.05 L21.35 9.1 21.4 9.05 23.25 8.9 23.3 8.95 23.35 9.05 M19.95 9.15 L18.9 9.2 15.0 9.35 15.1 9.25 15.35 8.55 Q15.8 8.9 16.4 8.9 L16.9 8.75 17.35 8.9 17.8 8.75 18.95 9.05 19.9 9.05 19.95 9.15 M-12.25 9.3 L-13.1 9.25 -12.65 8.9 -12.25 9.3 M-20.15 9.25 L-20.9 9.25 -20.7 9.05 -20.1 9.2 -20.15 9.25 M-21.6 9.25 L-23.35 9.2 -23.9 8.9 -23.8 8.9 -23.25 8.75 -22.75 8.6 -21.6 9.25 M-25.3 7.2 L-25.35 7.0 -25.25 7.0 -25.3 7.2 M-25.1 2.85 L-25.45 2.8 -25.45 2.75 -25.25 2.75 -25.05 2.7 -25.1 2.85 M-23.2 -0.2 L-23.15 -0.2 -22.5 -0.1 -23.0 0.3 -23.2 -0.2 M-20.8 -0.05 L-20.7 -0.05 -20.45 -0.05 -20.7 0.25 -20.8 -0.05 M-19.6 0.0 L-18.0 0.05 -18.3 0.3 -18.8 0.45 -19.4 0.05 -19.6 0.0 M-14.85 0.05 L-13.55 0.05 -13.65 0.15 -14.0 0.8 -14.4 0.5 Q-14.55 0.15 -14.85 0.05 M-12.45 0.05 L-12.2 0.05 -12.35 0.25 -12.45 0.05 M-10.55 0.1 L-10.3 0.1 -10.55 0.15 -10.55 0.1 M-8.6 0.1 L-6.15 0.15 -6.75 0.55 -7.5 1.1 Q-8.45 1.1 -8.55 0.45 L-8.6 0.1 M-5.45 0.2 L-4.85 0.2 -5.15 0.5 -5.4 0.25 -5.45 0.2 M21.3 0.3 L22.85 0.3 22.6 0.55 22.2 0.5 Q21.8 0.5 21.55 0.8 L21.3 0.3 M24.55 0.15 L24.85 0.15 24.75 0.2 24.55 0.15" fill="#ffcc33" fill-rule="evenodd" stroke="none"/>
    <path d="M-15.05 0.05 L-14.85 0.05 Q-14.55 0.15 -14.4 0.5 L-14.8 0.3 -15.05 0.35 -15.05 0.25 -15.05 0.05" fill="#f49300" fill-rule="evenodd" stroke="none"/>
    <path d="M-6.25 9.4 L-6.65 9.45 -7.2 9.35 -9.45 8.4 Q-9.75 9.05 -10.15 9.05 L-10.65 8.75 -11.05 8.4 -11.45 8.85 -11.85 9.3 -12.05 9.3 -12.25 9.3 -12.65 8.9 -13.1 9.25 -13.25 9.3 -13.6 9.25 -17.1 9.2 -20.1 9.25 -20.1 9.2 -20.7 9.05 Q-21.15 8.7 -21.15 7.8 L-20.85 6.85 -21.0 6.2 Q-21.0 5.05 -19.35 2.4 L-19.15 2.15 Q-19.1 1.1 -18.3 0.3 L-18.0 0.05 -15.05 0.05 -15.05 0.25 -15.05 0.35 -14.8 0.3 -14.4 0.5 -14.0 0.8 -13.65 0.15 -13.55 0.05 -12.65 0.05 -12.45 0.05 -12.35 0.25 -12.45 0.35 -11.65 0.15 -11.65 0.05 -10.55 0.1 -10.55 0.15 -10.3 0.1 -8.6 0.1 -8.55 0.45 Q-8.45 1.1 -7.5 1.1 L-6.75 0.55 -6.15 0.15 -5.45 0.2 -5.4 0.25 -5.15 0.5 -4.85 0.2 -4.6 0.2 -3.4 0.25 -3.3 1.05 Q-4.7 8.6 -6.25 9.4 M-10.1 2.75 L-10.15 2.8 -11.2 2.9 -14.3 2.8 Q-15.0 3.7 -15.0 5.55 L-14.95 6.2 -14.1 6.3 -14.2 5.6 Q-14.2 3.1 -12.3 2.95 -10.45 2.75 -10.45 4.8 -10.45 5.05 -11.0 5.95 L-11.2 6.2 -11.05 6.15 -10.75 6.45 -10.3 6.3 -10.15 6.3 Q-9.65 5.35 -9.65 4.85 -9.65 3.5 -10.1 2.75 M-11.45 6.6 L-11.35 6.45 -11.5 6.6 -11.45 6.6" fill="#999999" fill-rule="evenodd" stroke="none"/>
    <path d="M10.45 9.4 L0.15 9.45 -6.25 9.4 Q-4.7 8.6 -3.3 1.05 L-3.4 0.25 -0.55 0.3 2.7 0.35 8.3 0.6 9.1 0.4 11.35 0.4 11.15 0.55 10.8 1.05 10.65 2.15 9.55 4.65 Q9.25 5.05 9.25 6.3 9.25 6.9 9.55 7.2 L9.55 7.25 Q9.1 7.75 9.1 8.15 9.1 8.85 9.5 9.1 L10.45 9.4 M-7.2 9.35 L-11.85 9.3 -11.45 8.85 -11.05 8.4 -10.65 8.75 -10.15 9.05 Q-9.75 9.05 -9.45 8.4 L-7.2 9.35 M-20.1 9.25 L-20.15 9.25 -20.1 9.2 -20.1 9.25 M-20.9 9.25 L-21.15 9.3 -21.6 9.25 -22.75 8.6 -23.25 8.75 -23.8 8.9 -23.9 8.9 Q-25.15 8.85 -25.35 7.3 L-25.3 7.2 -25.25 7.0 -25.1 7.0 Q-22.5 7.0 -21.85 6.5 L-21.65 5.75 Q-21.65 5.25 -21.9 4.9 -22.3 4.25 -23.4 4.45 -23.6 2.95 -25.1 2.85 L-25.05 2.7 -25.25 2.75 -25.45 2.75 Q-26.15 2.6 -26.1 1.6 -26.1 0.5 -25.35 -0.35 L-23.6 -0.3 -23.2 -0.2 -23.0 0.3 -22.5 -0.1 -22.05 -0.1 -20.8 -0.05 -20.7 0.25 -20.45 -0.05 -19.6 0.0 -19.4 0.05 -18.8 0.45 -18.3 0.3 Q-19.1 1.1 -19.15 2.15 L-19.35 2.4 Q-21.0 5.05 -21.0 6.2 L-20.85 6.85 -21.15 7.8 Q-21.15 8.7 -20.7 9.05 L-20.9 9.25 M3.1 2.65 L1.85 2.55 0.65 2.5 -0.6 2.8 Q-1.05 3.95 -1.05 6.0 L-1.05 6.35 -0.15 6.3 -0.25 6.0 -0.05 4.6 0.3 3.05 Q0.65 2.35 2.0 2.65 3.4 2.9 3.4 4.35 L2.8 6.55 3.75 6.55 3.75 6.45 4.25 4.3 Q4.25 3.45 3.65 2.65 L3.1 2.65 M2.2 1.4 L1.6 1.25 Q0.7 1.15 0.05 1.65 L0.65 1.7 Q0.95 1.45 2.2 1.4" fill="#666666" fill-rule="evenodd" stroke="none"/>
    <path d="M25.45 0.1 L25.5 0.15 25.9 0.6 26.0 1.1 26.0 2.15 Q25.95 1.2 25.25 1.1 24.4 0.9 23.7 3.45 22.65 3.8 22.4 4.4 L21.85 4.7 Q20.1 5.7 20.1 7.2 20.1 8.35 21.0 8.35 L21.95 7.95 22.05 8.4 22.4 8.7 Q21.7 8.7 21.4 9.05 L21.35 9.1 21.3 9.15 20.75 9.6 Q20.15 9.6 20.0 9.25 L19.95 9.15 19.9 9.05 18.95 9.05 17.8 8.75 17.35 8.9 16.9 8.75 16.4 8.9 Q15.8 8.9 15.35 8.55 L15.1 9.25 15.0 9.35 13.3 9.6 10.45 9.4 9.5 9.1 Q9.1 8.85 9.1 8.15 9.1 7.75 9.55 7.25 L9.55 7.2 Q9.25 6.9 9.25 6.3 9.25 5.05 9.55 4.65 L10.65 2.15 10.8 1.05 11.15 0.55 11.35 0.4 14.35 0.4 14.35 0.6 14.55 1.2 14.95 1.2 15.15 0.75 15.15 0.4 16.5 0.4 18.05 0.35 18.7 0.4 Q19.1 0.6 19.5 1.1 L19.95 0.5 20.15 0.35 21.3 0.3 21.55 0.8 Q21.8 0.5 22.2 0.5 L22.6 0.55 22.95 1.05 Q23.35 0.55 24.15 0.55 L24.7 0.2 24.75 0.2 24.85 0.15 25.4 0.1 25.45 0.1 M17.3 3.55 L16.4 3.45 16.45 3.9 16.25 5.05 Q15.9 6.2 15.1 6.2 14.05 6.2 13.55 5.25 13.15 4.6 13.15 3.7 L13.2 3.4 12.35 3.35 12.3 3.65 Q12.3 4.8 12.75 5.75 L13.45 6.75 13.95 6.65 16.4 6.7 16.85 5.85 17.3 3.85 17.3 3.55" fill="#555555" fill-rule="evenodd" stroke="none"/>
    <path d="M26.0 2.15 L26.0 2.2 25.8 3.05 24.15 3.3 23.7 3.45 Q24.4 0.9 25.25 1.1 25.95 1.2 26.0 2.15 M22.4 4.4 Q22.25 4.6 22.25 4.9 L22.4 5.55 22.65 5.95 23.0 6.1 24.6 6.15 26.2 6.25 26.15 6.7 26.0 7.25 Q25.7 8.25 24.95 8.65 L23.7 8.9 23.25 8.9 22.4 8.7 22.05 8.4 21.95 7.95 21.0 8.35 Q20.1 8.35 20.1 7.2 20.1 5.7 21.85 4.7 L22.4 4.4" fill="#333333" fill-rule="evenodd" stroke="none"/>
    <path d="M14.35 0.4 L14.35 0.1 Q14.35 -1.05 14.75 -1.05 15.15 -1.05 15.15 0.1 L15.15 0.4 15.15 0.75 14.95 1.2 14.55 1.2 14.35 0.6 14.35 0.4" fill="#006600" fill-rule="evenodd" stroke="none"/>
    <path d="M19.75 3.25 L-18.8 3.25 -26.35 3.9 -26.3 3.65 -26.5 3.65 Q-27.8 3.65 -27.9 3.15 L-27.8 2.2 -28.0 0.75 -27.8 -0.05 Q-26.45 -1.95 -25.45 -1.1 L-24.9 -0.15 -22.5 -0.3 -20.4 -0.3 -18.15 -0.4 -15.65 -0.4 -13.0 -0.45 -10.1 -0.45 -8.55 -0.45 -7.0 -0.5 -5.3 -0.5 -3.65 -0.5 -1.9 -0.5 -0.1 -0.5 1.8 -0.45 7.6 -0.6 9.7 -0.6 11.8 -0.6 13.3 -0.6 Q13.3 -0.9 13.55 -1.0 L13.9 -0.85 14.0 -0.7 14.45 0.05 15.65 0.65 15.95 1.05 16.25 1.3 16.6 1.3 Q16.55 0.7 16.0 0.3 L15.5 -0.3 Q14.9 -0.75 14.8 -0.3 L14.6 -0.6 16.2 -0.6 18.5 -0.6 19.55 -0.6 19.5 -0.2 19.5 -0.1 19.3 -0.05 19.3 -0.1 Q18.7 -0.5 18.7 0.2 L18.85 0.85 19.05 1.3 18.9 1.3 18.7 1.3 18.7 1.15 Q18.7 0.05 18.3 0.05 18.05 0.05 17.95 0.4 17.45 0.6 17.4 1.2 L17.5 1.2 Q17.75 1.2 17.8 1.4 L18.05 1.75 18.45 2.0 18.5 2.05 17.9 2.0 17.05 2.1 16.9 2.05 16.65 2.1 15.75 2.1 15.4 1.55 15.1 1.3 15.0 1.3 13.45 1.3 12.0 1.3 9.05 1.3 6.15 1.3 4.9 1.3 4.05 1.25 1.1 1.4 0.35 1.4 -1.1 1.4 -5.35 1.4 -6.8 1.4 -8.15 1.4 -10.2 1.4 -12.1 1.35 -14.5 1.1 Q-15.0 1.1 -15.1 1.4 L-17.95 1.45 -18.7 1.45 -19.55 1.45 -19.85 1.5 -23.5 1.55 -24.1 1.5 -24.8 1.6 -25.15 1.6 -25.15 1.7 -25.1 1.75 -25.25 1.8 -24.9 1.85 Q-6.5 1.9 -2.45 2.05 L-2.35 2.25 19.15 2.25 18.85 2.15 19.75 1.75 20.5 1.6 21.85 1.45 21.95 1.45 Q22.25 1.5 22.25 1.85 L22.2 2.25 23.0 2.25 23.25 2.25 Q24.1 2.5 24.4 2.7 L24.45 2.7 24.45 2.6 24.35 2.25 24.35 2.15 24.3 1.85 24.35 1.55 24.35 1.5 24.35 1.4 24.4 1.35 24.5 0.75 24.35 0.2 24.55 -0.15 24.35 -0.6 25.05 -0.55 Q25.2 -0.95 25.9 -0.8 L27.0 -0.5 Q27.65 -0.5 27.45 1.25 L27.45 2.55 Q27.2 3.35 25.8 3.4 L25.3 3.5 Q24.7 3.5 24.55 3.25 L23.75 3.45 Q23.1 3.65 22.8 3.95 L22.85 3.55 23.05 3.3 23.0 3.25 22.2 3.25 22.3 3.5 22.45 4.15 22.45 4.25 22.3 4.6 22.05 4.75 22.15 5.15 22.15 5.45 22.35 5.3 22.4 5.55 21.25 5.5 Q21.05 4.7 20.5 4.55 L20.5 4.5 20.5 4.3 20.45 4.1 20.35 3.7 20.25 3.3 20.25 3.25 20.0 3.25 19.9 3.25 19.75 3.25 M20.3 -0.6 L20.6 -0.6 21.0 -0.35 20.4 0.1 20.35 0.1 20.35 -0.2 20.3 -0.6 M22.8 -0.65 L23.4 -0.65 23.5 -0.15 Q23.75 0.6 24.15 0.6 L24.2 0.6 24.35 1.25 24.15 1.25 23.95 1.0 23.5 0.35 Q22.9 -0.2 22.9 0.6 L23.1 1.25 22.45 1.25 22.4 1.25 22.5 0.9 Q22.5 -0.15 21.8 0.45 L21.35 1.0 21.1 0.7 21.7 0.35 22.4 -0.2 22.55 -0.35 22.8 -0.65 M-20.2 5.6 L-20.5 5.75 -20.4 5.9 Q-8.0 5.65 -3.25 5.7 L6.45 5.8 6.55 6.15 6.55 6.3 7.8 6.25 20.75 6.0 25.65 6.05 25.65 5.95 Q25.65 5.4 26.15 5.45 26.65 5.5 27.15 6.1 L27.25 6.45 27.35 6.75 27.35 6.95 27.35 7.55 27.3 8.25 Q27.3 8.95 26.95 9.55 26.35 10.65 25.2 10.65 L24.75 10.4 24.7 10.1 Q24.7 10.0 25.55 9.35 L2.5 10.25 Q-7.8 9.4 -16.45 9.85 L-16.35 9.55 -16.5 9.45 -16.75 10.1 -17.05 10.25 -17.9 9.95 -18.95 10.0 -18.95 10.4 Q-19.3 11.0 -20.95 11.0 L-21.7 10.75 -21.65 10.3 -23.75 11.1 -24.05 10.95 -24.2 10.75 -24.45 11.05 Q-24.85 11.35 -25.6 11.35 -26.75 11.35 -26.75 10.5 L-26.85 9.65 -26.9 9.65 Q-27.65 9.65 -27.5 8.05 L-27.65 7.7 -28.05 6.6 -27.8 6.7 Q-27.8 6.3 -27.25 6.15 L-26.85 6.1 Q-26.35 5.65 -25.85 5.95 L-25.75 6.0 -23.8 5.95 -21.65 5.95 -21.65 5.75 -21.65 5.55 -21.25 5.55 -21.2 5.5 -21.4 4.7 -21.4 4.65 -20.0 4.95 -20.2 5.3 -20.2 5.6 M-19.1 5.1 L-18.3 5.2 -18.25 5.2 -17.6 5.25 Q-17.2 5.35 -17.1 5.7 L-18.6 5.7 -18.65 5.6 Q-18.7 5.3 -18.9 5.4 L-19.1 5.25 -19.1 5.1 M25.45 1.2 L25.3 1.2 25.25 1.4 25.45 1.5 25.45 1.2 M21.7 4.05 Q21.4 3.55 21.45 3.3 L21.45 3.25 21.4 3.25 21.5 4.2 21.55 4.2 21.7 4.05 M-17.25 8.25 L-17.0 8.25 -10.25 8.25 -10.1 8.25 -9.6 8.25 -6.55 8.4 -3.25 8.6 0.45 8.75 3.8 8.75 5.2 8.55 9.0 8.25 10.15 8.2 11.25 8.15 11.6 8.1 12.95 8.1 13.05 8.05 14.5 8.25 17.25 8.4 17.3 8.4 Q20.0 8.75 22.45 8.45 L25.75 8.3 25.7 7.6 25.65 7.15 25.5 7.1 25.2 7.1 4.85 7.5 -13.75 7.5 -18.6 7.75 -20.7 7.65 -21.1 7.5 -21.15 7.3 Q-21.85 7.9 -22.25 7.9 L-22.5 7.9 -23.75 7.8 -24.4 7.65 -24.9 7.45 -25.3 7.25 -25.4 7.25 -26.7 7.45 -26.7 7.65 -26.7 7.75 -26.5 7.95 -26.5 7.9 -26.35 8.15 -26.3 8.25 -26.05 8.5 -26.0 8.55 -25.55 8.95 -25.6 9.15 -25.55 9.35 -25.55 9.5 -25.8 9.85 -25.8 10.3 -25.65 10.3 -25.15 10.3 -24.55 9.3 -23.85 8.6 Q-23.35 8.6 -23.35 9.15 L-23.35 9.85 Q-22.9 9.85 -22.45 9.5 L-21.8 9.1 -21.45 9.15 -21.15 8.85 -20.65 8.85 -20.45 8.85 -20.45 8.9 -20.15 9.85 -19.85 9.85 -19.75 9.7 -19.9 8.95 Q-19.9 8.45 -19.6 8.35 -19.6 8.6 -19.2 8.6 L-18.85 8.35 Q-18.3 8.55 -17.25 9.05 L-17.25 8.25 M-18.5 8.2 L-17.7 8.25 -18.0 8.65 -18.6 8.35 -18.5 8.2 M19.15 4.4 L19.25 4.5 18.9 4.5 19.15 4.4 M-23.5 4.1 L-23.35 3.95 -23.15 3.8 -22.9 3.75 -22.7 4.1 -22.05 4.45 -21.95 4.5 -21.95 4.85 Q-22.35 4.25 -23.4 4.45 L-23.5 4.1 M-26.55 1.6 L-26.45 1.8 -26.1 1.75 -26.55 1.6 M-24.8 8.5 L-24.55 8.4 -24.45 8.4 -24.4 8.5 -24.45 8.5 -24.8 8.55 -24.8 8.5 M-22.45 8.25 L-22.2 8.5 -22.35 8.95 -22.35 9.0 -22.7 9.1 -22.7 8.75 -22.75 8.3 -22.45 8.25" fill="#000000" fill-rule="evenodd" stroke="none"/>
    <path d="M19.9 3.25 L20.0 3.25 20.25 3.25 20.25 3.3 20.15 3.35 19.9 3.3 19.9 3.25 M20.5 4.5 L20.5 4.55 20.15 4.5 20.35 4.1 20.5 4.5 M22.35 5.3 L22.15 5.45 22.15 5.15 22.05 4.75 22.3 4.6 22.25 4.9 22.35 5.3 M22.45 4.25 L22.45 4.15 22.3 3.5 22.2 3.25 23.0 3.25 23.05 3.3 22.85 3.55 22.6 3.35 22.6 3.3 22.4 3.55 22.55 3.7 22.8 3.95 Q22.6 4.05 22.45 4.25 M24.35 -0.6 L24.55 -0.15 24.35 0.2 24.5 0.75 24.4 1.35 24.35 1.4 24.35 1.25 24.2 0.6 24.15 0.6 Q23.75 0.6 23.5 -0.15 L23.4 -0.65 23.3 -0.85 Q23.3 -1.9 23.95 -1.25 L24.35 -0.6 M24.35 1.55 L24.3 1.85 24.35 2.15 24.35 2.25 24.45 2.6 24.4 2.7 Q24.1 2.5 23.25 2.25 L23.0 2.25 23.25 1.75 23.1 1.35 23.1 1.25 22.9 0.6 Q22.9 -0.2 23.5 0.35 L23.95 1.0 24.15 1.25 24.2 1.65 24.35 1.55 M21.95 1.45 L21.85 1.45 20.5 1.6 20.4 1.35 19.85 0.75 Q19.75 0.3 19.3 -0.05 L19.5 -0.1 19.5 -0.2 19.55 -0.6 Q19.65 -1.0 19.95 -1.0 L20.3 -0.6 20.35 -0.2 20.35 0.1 20.4 0.1 21.0 -0.35 20.6 -0.6 20.55 -0.65 Q20.25 -0.9 20.25 -1.1 20.25 -1.65 21.5 -1.4 22.8 -1.15 22.8 -0.75 L22.8 -0.65 22.55 -0.35 22.6 -0.5 Q22.6 -1.65 21.0 -0.35 L20.55 0.0 20.6 0.25 Q20.7 0.5 21.15 0.5 L22.4 -0.2 21.7 0.35 21.1 0.7 21.35 1.0 21.8 0.45 Q22.5 -0.15 22.5 0.9 L22.4 1.25 22.4 1.4 21.95 1.45 M18.45 2.0 L18.05 1.75 17.8 1.4 Q17.75 1.2 17.5 1.2 L17.4 1.2 Q17.45 0.6 17.95 0.4 18.05 0.05 18.3 0.05 18.7 0.05 18.7 1.15 L18.7 1.3 18.7 1.45 18.9 1.3 19.05 1.3 19.1 1.4 18.65 1.8 18.45 2.0 M14.6 -0.6 L14.8 -0.3 Q14.9 -0.75 15.5 -0.3 L16.0 0.3 Q16.55 0.7 16.6 1.3 L16.25 1.3 15.95 1.05 15.65 0.65 14.45 0.05 14.0 -0.7 13.9 -0.85 14.4 -0.75 14.6 -0.6 M-18.6 5.7 L-19.1 5.6 -19.6 5.5 -19.85 5.55 -19.1 5.25 -18.9 5.4 Q-18.7 5.3 -18.65 5.6 L-18.6 5.7 M21.7 4.05 L21.55 4.2 21.5 4.2 21.4 3.25 21.45 3.25 21.45 3.3 Q21.4 3.55 21.7 4.05 M-20.3 7.95 L-20.2 8.05 -20.05 8.3 Q-20.05 8.75 -20.45 8.85 L-20.65 8.85 -21.15 8.85 -22.15 8.5 -22.2 8.5 -22.45 8.25 -22.55 7.95 -22.5 7.9 -22.25 7.9 Q-21.85 7.9 -21.15 7.3 L-21.1 7.5 -21.15 7.5 -21.3 7.5 -21.4 7.6 -21.3 7.6 -20.3 7.95 M-19.6 8.05 L-18.75 8.2 -18.85 8.35 -19.2 8.6 Q-19.6 8.6 -19.6 8.35 L-19.6 8.05 M-26.05 8.5 L-26.3 8.25 -26.35 8.15 -26.35 7.95 Q-26.35 7.45 -25.6 7.5 L-25.25 7.6 -25.3 7.25 -24.9 7.45 -24.4 7.65 -24.5 8.3 -24.55 8.4 -24.8 8.5 -25.0 8.4 Q-25.15 8.6 -25.55 8.6 L-26.05 8.5 M19.25 4.3 L19.3 4.35 19.25 4.35 19.15 4.35 19.25 4.3" fill="#006600" fill-rule="evenodd" stroke="none"/>
    <path d="M19.75 3.25 L19.9 3.25 19.9 3.3 20.3 4.0 20.35 4.05 20.35 4.1 20.15 4.5 19.5 4.5 19.3 4.35 19.25 4.3 Q19.75 3.95 19.75 3.25 M23.0 2.25 L22.2 2.25 22.25 1.85 Q22.25 1.5 21.95 1.45 L22.4 1.4 22.45 1.45 23.0 2.25 M20.5 1.6 L19.75 1.75 18.85 2.15 18.5 2.05 18.45 2.0 18.65 1.8 19.1 1.4 19.05 1.3 18.85 0.85 18.7 0.2 Q18.7 -0.5 19.3 -0.1 L19.3 -0.05 Q19.75 0.3 19.85 0.75 L20.4 1.35 20.5 1.6 M22.55 -0.35 L22.4 -0.2 21.15 0.5 Q20.7 0.5 20.6 0.25 L20.55 0.0 21.0 -0.35 Q22.6 -1.65 22.6 -0.5 L22.55 -0.35 M-16.45 9.85 L-16.5 9.9 -16.75 10.1 -16.5 9.45 -16.35 9.55 -16.45 9.85 M-20.2 5.6 L-19.95 4.95 -19.1 5.1 -19.1 5.25 -19.85 5.55 -20.2 5.6 M-20.7 7.65 L-20.65 7.7 -20.3 7.9 -20.3 7.95 -21.3 7.6 -21.4 7.6 -21.3 7.5 -21.15 7.5 -21.1 7.5 -20.7 7.65 M-20.2 8.05 L-20.2 8.0 -20.25 7.9 -19.6 8.05 -19.6 8.35 Q-19.9 8.45 -19.9 8.95 L-19.75 9.7 -19.85 9.85 -20.15 9.85 -20.45 8.9 -20.45 8.85 Q-20.05 8.75 -20.05 8.3 L-20.2 8.05 M-18.75 8.2 L-18.5 8.2 -18.6 8.35 -18.0 8.65 -17.7 8.25 -17.25 8.25 -17.25 9.05 Q-18.3 8.55 -18.85 8.35 L-18.75 8.2 M-21.15 8.85 L-21.45 9.15 -21.8 9.1 -22.45 9.5 Q-22.9 9.85 -23.35 9.85 L-23.35 9.15 Q-23.35 8.6 -23.85 8.6 L-24.55 9.3 -25.15 10.3 -25.65 10.3 -25.75 9.95 -25.55 9.55 -25.55 9.5 -25.55 9.35 -25.6 9.15 -25.55 8.95 -26.0 8.55 -26.05 8.5 -25.55 8.6 Q-25.15 8.6 -25.0 8.4 L-24.8 8.5 -24.8 8.55 -24.45 8.5 -24.4 8.5 -24.45 8.4 -24.5 8.3 -24.4 7.65 -23.75 7.8 -22.5 7.9 -22.55 7.95 -22.8 8.25 -22.75 8.3 -22.7 8.75 -22.7 9.1 -22.35 9.0 -22.35 8.95 -22.2 8.5 -22.15 8.5 -21.15 8.85 M-26.35 8.15 L-26.5 7.9 -26.7 7.65 -26.7 7.45 -25.4 7.25 -25.3 7.25 -25.25 7.6 -25.6 7.5 Q-26.35 7.45 -26.35 7.95 L-26.35 8.15" fill="#009900" fill-rule="evenodd" stroke="none"/>
    <path d="M26.95 8.0 L27.15 8.45 Q27.15 8.95 26.75 9.3 L24.95 10.55 Q22.4 11.75 18.75 11.55 L11.8 11.1 8.4 11.45 Q7.6 11.45 7.45 10.85 L6.7 11.1 4.8 11.35 4.3 11.45 Q-0.2 12.45 -5.25 12.45 L-17.2 12.3 -17.85 11.85 -18.1 11.25 -18.25 11.25 -21.5 12.2 -24.65 12.3 -25.55 12.35 -25.5 12.0 -26.6 10.5 Q-27.4 9.55 -27.6 8.5 L-27.7 7.7 -27.55 6.75 -26.4 6.95 -26.0 7.0 -26.15 7.4 -26.3 7.8 -24.95 8.85 -23.9 9.5 Q-23.65 9.0 -22.7 9.0 L-21.6 9.05 -20.85 8.65 -20.4 8.45 Q-20.0 8.45 -19.8 8.7 L-19.3 8.55 Q-18.85 8.55 -18.65 9.05 L-18.6 9.1 -15.4 8.3 Q-14.1 8.3 -13.75 8.85 L-13.7 9.0 -13.65 9.0 -12.0 9.0 -11.85 9.0 -9.4 8.85 Q-4.9 8.65 -2.95 8.95 L1.55 9.45 6.0 8.7 7.15 8.5 11.15 7.85 Q21.5 6.3 21.5 7.85 L21.5 7.95 23.95 7.8 25.85 7.8 26.15 7.8 Q26.8 7.55 26.95 8.0 M-25.1 2.85 L-25.3 2.8 -25.45 2.8 -25.6 2.8 Q-26.25 2.8 -26.7 3.1 -26.95 2.85 -27.25 2.75 L-27.5 2.7 -26.75 1.95 -26.15 1.45 Q-25.0 0.7 -25.0 2.3 L-25.1 2.85" fill="#000000" fill-opacity="0.3019608" fill-rule="evenodd" stroke="none"/>
    <path d="M25.9 -12.25 L28.65 -12.25 28.85 -12.2 29.05 -12.15 29.2 -12.05 29.75 -12.0 29.9 -11.95 30.15 -11.9 30.3 -11.8 30.4 -11.7 30.5 -11.65 30.6 -11.55 30.6 -11.45 30.65 -11.35 30.7 -11.25 30.7 -11.15 30.75 -11.05 30.75 -10.95 30.75 -10.9 30.7 -10.8 30.65 -10.7 30.65 -10.6 30.6 -10.5 30.5 -10.4 30.45 -10.3 30.35 -10.2 30.2 -10.15 30.1 -10.05 29.85 -10.0 29.85 -9.9 29.75 -9.8 29.75 -9.7 29.7 -9.65 29.65 -9.55 29.65 -9.45 29.6 -9.35 29.55 -9.25 29.5 -9.15 29.5 -9.05 29.45 -8.95 29.4 -8.9 29.35 -8.8 29.3 -8.7 29.25 -8.6 29.15 -8.5 29.15 -8.4 29.15 -8.3 29.1 -8.2 29.1 -8.15 29.1 -8.05 29.05 -7.95 29.0 -7.85 29.0 -7.75 28.95 -7.65 28.95 -7.55 28.95 -7.45 28.9 -7.4 28.9 -7.3 28.9 -7.2 28.9 -7.1 28.85 -7.0 28.85 -6.9 28.8 -6.8 28.75 -6.7 28.7 -6.65 28.65 -6.55 28.65 -6.45 28.6 -6.35 28.55 -6.25 28.55 -6.15 28.5 -6.05 28.5 -5.95 28.5 -5.9 28.5 -5.8 28.5 -5.7 28.5 -5.6 28.5 -5.5 28.45 -5.4 28.4 -5.3 28.4 -5.2 28.4 -5.15 28.35 -5.05 28.35 -4.95 28.3 -4.85 28.25 -4.75 28.25 -4.65 28.25 -4.55 28.2 -4.45 28.15 -4.4 28.15 -4.3 28.15 -4.2 28.15 -4.1 28.15 -4.0 28.15 -3.9 28.15 -3.8 28.15 -3.7 28.15 -3.65 28.1 -3.55 28.1 -3.45 28.05 -3.35 28.0 -3.25 27.9 -3.15 27.85 -3.05 27.75 -2.95 27.75 -2.9 27.65 -2.8 27.65 -2.7 27.6 -2.6 27.6 -2.5 27.6 -2.4 27.5 -2.3 27.5 -2.2 27.4 -2.15 27.4 -2.05 27.35 -1.95 27.3 -1.85 27.25 -1.75 27.15 -1.65 27.1 -1.55 27.0 -1.45 26.85 -1.4 26.75 -1.3 26.6 -1.3 26.55 -1.25 26.5 -1.15 26.5 -1.05 26.5 -0.95 26.5 -0.9 26.45 -0.8 26.4 -0.7 26.4 -0.6 26.35 -0.5 26.25 -0.4 26.2 -0.3 26.1 -0.2 25.95 -0.15 25.85 -0.05 25.65 -0.05 25.5 0.0 25.4 0.0 25.2 -0.05 25.0 -0.1 24.8 -0.2 24.7 -0.3 24.6 -0.4 24.55 -0.45 24.5 -0.55 24.45 -0.65 24.4 -0.75 24.4 -0.85 24.4 -1.2 24.4 -1.9 24.4 -2.65 24.4 -3.4 24.4 -3.65 24.35 -3.75 24.3 -3.85 24.25 -3.95 24.25 -4.05 24.25 -4.15 24.2 -4.2 24.15 -4.3 24.15 -4.4 24.1 -4.5 24.05 -4.6 24.0 -4.7 24.0 -4.8 24.0 -4.9 23.95 -4.95 23.9 -5.05 23.9 -5.15 23.85 -5.25 23.8 -5.35 23.75 -5.45 23.75 -5.55 23.75 -5.65 23.7 -5.7 23.7 -5.8 23.65 -5.9 23.65 -6.0 23.65 -6.1 23.65 -6.2 23.6 -6.3 23.6 -6.4 23.6 -6.45 23.55 -6.55 23.5 -6.65 23.5 -6.75 23.5 -6.85 23.5 -7.2 23.5 -7.9 23.5 -8.65 23.5 -8.85 23.5 -8.95 23.5 -9.05 23.5 -9.15 23.5 -9.2 23.5 -9.3 23.5 -9.4 23.5 -9.5 23.5 -9.55 23.5 -9.65 23.5 -9.75 23.55 -9.85 23.6 -9.95 23.6 -10.05 23.65 -10.15 23.65 -10.2 23.65 -10.3 23.65 -10.4 23.65 -10.5 23.65 -10.6 23.65 -10.7 23.65 -10.8 23.65 -10.9 23.65 -10.95 23.7 -11.05 23.75 -11.15 23.85 -11.25 23.9 -11.35 24.0 -11.45 24.2 -11.55 24.3 -11.6 24.4 -11.6 24.4 -11.5 24.4 -11.4 24.4 -11.3 24.4 -11.2 24.4 -11.15 24.4 -11.05 24.4 -10.95 24.45 -10.85 24.5 -10.75 24.6 -10.65 24.65 -10.55 24.75 -10.45 24.85 -10.4 25.0 -10.3 25.05 -10.2 25.15 -10.1 25.25 -10.0 25.35 -9.9 25.4 -9.8 25.5 -9.7 25.65 -9.65 25.85 -9.55 25.9 -9.45 25.95 -9.35 26.0 -9.25 26.1 -9.15 26.15 -9.05 26.15 -8.7 26.15 -8.15 26.15 -7.75 26.15 -7.4 26.15 -6.9 26.15 -6.65 26.1 -6.55 26.1 -6.45 26.05 -6.35 26.0 -6.25 26.0 -6.15 26.0 -6.05 26.0 -5.95 25.95 -5.9 25.9 -5.8 25.9 -5.7 25.9 -5.6 25.9 -5.3 25.9 -5.15 25.9 -4.85 25.9 -4.55 25.9 -4.3 25.9 -4.1 25.9 -4.0 25.95 -3.9 26.0 -3.8 26.05 -3.7 26.1 -3.65 26.2 -3.55 26.3 -3.45 26.5 -3.35 26.7 -3.3 26.9 -3.25 27.1 -3.3 27.25 -3.3 27.3 -3.35 27.4 -3.4 27.55 -3.5 27.65 -3.6 27.7 -3.7 27.75 -3.8 27.8 -3.9 27.85 -3.95 27.9 -4.05 27.9 -4.15 27.95 -4.25 28.0 -4.35 28.0 -4.45 28.0 -4.55 28.0 -4.65 27.95 -4.7 27.9 -4.8 27.9 -4.9 27.9 -5.0 27.9 -5.1 27.9 -5.2 27.9 -5.3 27.9 -5.4 27.95 -5.45 27.95 -5.55 28.0 -5.65 28.0 -5.75 28.05 -5.85 28.1 -5.95 28.1 -6.05 28.15 -6.15 28.15 -6.8 28.15 -7.65 28.15 -8.3 28.15 -8.95 28.15 -9.5 28.1 -9.6 28.1 -9.7 28.05 -9.8 28.0 -9.9 27.95 -9.95 27.9 -10.05 27.85 -10.15 27.85 -10.25 27.75 -10.35 27.75 -10.45 27.65 -10.55 27.6 -10.65 27.5 -10.7 27.4 -10.8 27.35 -10.9 27.3 -11.0 27.2 -11.1 27.1 -11.2 26.95 -11.3 26.75 -11.4 26.65 -11.45 26.6 -11.55 26.5 -11.65 26.4 -11.75 26.3 -11.85 26.25 -11.95 26.15 -12.05 26.1 -12.1 25.95 -12.2 25.9 -12.25 M-25.9 -12.65 L-25.85 -12.6 -25.75 -12.55 -25.65 -12.45 -25.65 -12.35 -25.5 -12.25 -25.35 -12.15 -25.25 -12.05 -25.2 -11.95 -25.15 -11.9 -25.1 -11.8 -25.05 -11.7 -25.05 -11.6 -25.0 -11.5 -25.0 -11.4 -25.0 -11.3 -25.0 -11.2 -24.85 -11.15 -24.7 -11.05 -24.6 -10.95 -24.5 -10.9 -24.4 -10.8 -24.35 -10.7 -24.3 -10.6 -24.25 -10.5 -24.2 -10.4 -24.15 -10.3 -24.15 -10.2 -24.1 -10.15 -24.1 -8.15 -24.1 -5.65 -24.1 -3.1 -24.1 -1.6 -24.15 -1.5 -24.15 -1.4 -24.15 -1.3 -24.25 -1.2 -24.25 -1.15 -24.3 -1.05 -24.35 -0.95 -24.35 -0.85 -24.4 -0.75 -24.4 -0.65 -24.4 -0.55 -24.5 -0.45 -24.5 -0.4 -24.55 -0.3 -24.55 -0.2 -24.6 -0.1 -24.65 0.0 -24.75 0.1 -24.8 0.2 -24.9 0.3 -25.05 0.35 -25.15 0.45 -25.3 0.45 -25.6 0.5 -25.8 0.55 -25.95 0.65 -26.15 0.7 -26.35 0.75 -26.55 0.7 -26.75 0.65 -26.95 0.55 -27.05 0.45 -27.15 0.35 -27.2 0.3 -27.25 0.2 -27.3 0.1 -27.3 0.0 -27.35 -0.1 -27.35 -0.2 -27.35 -0.3 -27.35 -0.4 -27.4 -0.45 -27.4 -0.55 -27.45 -0.65 -27.5 -0.75 -27.55 -0.85 -27.55 -0.95 -27.6 -1.05 -27.65 -1.15 -27.65 -1.2 -27.7 -1.3 -27.75 -1.4 -27.75 -1.5 -27.75 -1.6 -27.8 -1.7 -27.8 -1.8 -27.8 -1.9 -27.85 -1.95 -27.9 -2.0 -28.1 -2.1 -28.2 -2.2 -28.3 -2.3 -28.35 -2.4 -28.4 -2.45 -28.45 -2.55 -28.5 -2.65 -28.5 -2.75 -28.55 -2.85 -28.6 -2.95 -28.65 -3.05 -28.7 -3.15 -28.75 -3.2 -28.75 -3.3 -28.75 -3.35 -28.7 -3.3 -28.6 -3.2 -28.4 -3.1 -28.2 -3.05 -28.0 -3.0 -27.8 -3.05 -27.65 -3.05 -27.55 -3.15 -27.4 -3.2 -27.3 -3.3 -27.25 -3.4 -27.15 -3.5 -27.1 -3.6 -27.05 -3.7 -27.05 -3.8 -27.0 -3.9 -27.0 -3.95 -27.0 -4.05 -27.0 -4.15 -27.0 -4.25 -27.05 -4.35 -27.05 -4.45 -27.05 -4.55 -27.1 -4.65 -27.1 -4.7 -27.15 -4.8 -27.15 -4.9 -27.15 -5.0 -27.25 -5.1 -27.25 -5.2 -27.3 -5.3 -27.3 -5.4 -27.35 -5.45 -27.35 -5.55 -27.4 -5.65 -27.4 -5.7 -27.3 -5.8 -27.25 -5.9 -27.15 -6.0 -27.1 -6.1 -27.05 -6.2 -27.05 -6.3 -27.0 -6.4 -27.0 -6.65 -27.0 -6.95 -27.0 -7.15 -27.0 -7.2 -27.0 -7.3 -27.0 -7.4 -27.0 -7.5 -26.95 -7.6 -26.9 -7.7 -26.9 -7.8 -26.85 -7.9 -26.85 -7.95 -26.85 -8.05 -26.8 -8.15 -26.8 -8.25 -26.75 -8.35 -26.75 -8.45 -26.75 -8.55 -26.75 -8.65 -26.75 -8.7 -26.75 -8.8 -26.65 -8.9 -26.65 -9.0 -26.65 -9.1 -26.6 -9.2 -26.6 -9.3 -26.6 -9.4 -26.55 -9.45 -26.55 -9.55 -26.5 -9.65 -26.45 -9.75 -26.4 -9.85 -26.35 -9.95 -26.3 -10.05 -26.3 -10.15 -26.25 -10.2 -26.2 -10.3 -26.15 -10.4 -26.1 -10.5 -26.05 -10.6 -26.05 -10.7 -26.0 -10.8 -26.0 -10.95 -26.0 -11.15 -26.0 -11.25 -26.0 -11.35 -26.0 -11.45 -26.0 -11.55 -26.0 -11.65 -26.0 -11.7 -25.9 -11.8 -25.9 -11.9 -25.9 -12.0 -25.85 -12.1 -25.85 -12.2 -25.85 -12.3 -25.85 -12.4 -25.85 -12.45 -25.9 -12.55 -25.9 -12.65 M-29.5 -5.3 L-29.55 -5.4 -29.55 -5.45 -29.6 -5.55 -29.6 -5.65 -29.6 -5.75 -29.6 -5.85 -29.55 -5.8 -29.55 -5.7 -29.5 -5.65 -29.5 -5.55 -29.5 -5.45 -29.5 -5.35 -29.5 -5.3 M-26.25 -10.0 L-26.25 -9.95 -26.3 -9.85 -26.3 -9.75 -26.2 -9.7 -26.15 -9.75 -26.15 -9.8 -26.2 -9.9 -26.25 -10.0" fill="#000000" fill-opacity="0.36862746" fill-rule="evenodd" stroke="none"/>
    <path d="M24.4 -11.6 L24.4 -11.7 24.45 -11.8 24.5 -11.9 24.55 -11.95 24.65 -12.05 24.75 -12.15 24.85 -12.25 25.0 -12.3 25.05 -12.35 25.2 -12.4 25.4 -12.4 25.6 -12.35 25.8 -12.3 25.9 -12.25 25.95 -12.2 26.1 -12.1 26.15 -12.05 26.25 -11.95 26.3 -11.85 26.4 -11.75 26.5 -11.65 26.6 -11.55 26.65 -11.45 26.75 -11.4 26.95 -11.3 27.1 -11.2 27.2 -11.1 27.3 -11.0 27.35 -10.9 27.4 -10.8 27.5 -10.7 27.6 -10.65 27.65 -10.55 27.75 -10.45 27.75 -10.35 27.85 -10.25 27.85 -10.15 27.9 -10.05 27.95 -9.95 28.0 -9.9 28.05 -9.8 28.1 -9.7 28.1 -9.6 28.15 -9.5 28.15 -8.95 28.15 -8.3 28.15 -7.65 28.15 -6.8 28.15 -6.15 28.1 -6.05 28.1 -5.95 28.05 -5.85 28.0 -5.75 28.0 -5.65 27.95 -5.55 27.95 -5.45 27.9 -5.4 27.9 -5.3 27.9 -5.2 27.9 -5.1 27.9 -5.0 27.9 -4.9 27.9 -4.8 27.95 -4.7 28.0 -4.65 28.0 -4.55 28.0 -4.45 28.0 -4.35 27.95 -4.25 27.9 -4.15 27.9 -4.05 27.85 -3.95 27.8 -3.9 27.75 -3.8 27.7 -3.7 27.65 -3.6 27.55 -3.5 27.4 -3.4 27.3 -3.35 27.25 -3.3 27.1 -3.3 26.9 -3.25 26.7 -3.3 26.5 -3.35 26.3 -3.45 26.2 -3.55 26.1 -3.65 26.05 -3.7 26.0 -3.8 25.95 -3.9 25.9 -4.0 25.9 -4.1 25.9 -4.3 25.9 -4.55 25.9 -4.85 25.9 -5.15 25.9 -5.3 25.9 -5.6 25.9 -5.7 25.9 -5.8 25.95 -5.9 26.0 -5.95 26.0 -6.05 26.0 -6.15 26.0 -6.25 26.05 -6.35 26.1 -6.45 26.1 -6.55 26.15 -6.65 26.15 -6.9 26.15 -7.4 26.15 -7.75 26.15 -8.15 26.15 -8.7 26.15 -9.05 26.1 -9.15 26.0 -9.25 25.95 -9.35 25.9 -9.45 25.85 -9.55 25.65 -9.65 25.5 -9.7 25.4 -9.8 25.35 -9.9 25.25 -10.0 25.15 -10.1 25.05 -10.2 25.0 -10.3 24.85 -10.4 24.75 -10.45 24.65 -10.55 24.6 -10.65 24.5 -10.75 24.45 -10.85 24.4 -10.95 24.4 -11.05 24.4 -11.15 24.4 -11.2 24.4 -11.3 24.4 -11.4 24.4 -11.5 24.4 -11.6 M-30.1 -12.05 L-30.1 -12.1 -30.05 -12.2 -30.05 -12.3 -30.0 -12.4 -29.95 -12.45 -29.85 -12.55 -29.75 -12.65 -29.65 -12.75 -29.55 -12.8 -29.55 -12.75 -29.65 -12.65 -29.75 -12.55 -29.85 -12.45 -29.9 -12.4 -29.95 -12.3 -30.0 -12.2 -30.05 -12.1 -30.1 -12.05 M-27.9 -12.95 L-27.85 -12.95 -27.75 -13.05 -27.65 -13.15 -27.55 -13.25 -27.4 -13.3 -27.35 -13.35 -27.2 -13.4 -27.0 -13.4 -26.85 -13.4 -26.65 -13.35 -26.45 -13.3 -26.3 -13.2 -26.15 -13.1 -26.05 -13.05 -26.0 -12.95 -26.0 -12.85 -25.9 -12.75 -25.9 -12.65 -25.9 -12.55 -25.85 -12.45 -25.85 -12.4 -25.85 -12.3 -25.85 -12.2 -25.85 -12.1 -25.9 -12.0 -25.9 -11.9 -25.9 -11.8 -26.0 -11.7 -26.0 -11.65 -26.0 -11.55 -26.0 -11.45 -26.0 -11.35 -26.0 -11.25 -26.0 -11.15 -26.0 -10.95 -26.0 -10.8 -26.05 -10.7 -26.05 -10.6 -26.1 -10.5 -26.15 -10.4 -26.2 -10.3 -26.25 -10.2 -26.3 -10.15 -26.3 -10.05 -26.35 -9.95 -26.4 -9.85 -26.45 -9.75 -26.5 -9.65 -26.55 -9.55 -26.55 -9.45 -26.6 -9.4 -26.6 -9.3 -26.6 -9.2 -26.65 -9.1 -26.65 -9.0 -26.65 -8.9 -26.75 -8.8 -26.75 -8.7 -26.75 -8.65 -26.75 -8.55 -26.75 -8.45 -26.75 -8.35 -26.8 -8.25 -26.8 -8.15 -26.85 -8.05 -26.85 -7.95 -26.85 -7.9 -26.9 -7.8 -26.9 -7.7 -26.95 -7.6 -27.0 -7.5 -27.0 -7.4 -27.0 -7.3 -27.0 -7.2 -27.0 -7.15 -27.0 -6.95 -27.0 -6.65 -27.0 -6.4 -27.05 -6.3 -27.05 -6.2 -27.1 -6.1 -27.15 -6.0 -27.25 -5.9 -27.3 -5.8 -27.4 -5.7 -27.4 -5.75 -27.4 -5.85 -27.5 -5.95 -27.5 -6.05 -27.5 -6.15 -27.55 -6.2 -27.55 -6.3 -27.6 -6.4 -27.65 -6.5 -27.7 -6.6 -27.75 -6.7 -27.8 -6.8 -27.85 -6.9 -27.9 -6.95 -27.95 -7.05 -28.0 -7.15 -28.05 -7.25 -28.15 -7.35 -28.15 -7.45 -28.25 -7.55 -28.3 -7.65 -28.35 -7.7 -28.4 -7.8 -28.45 -7.9 -28.5 -8.0 -28.55 -8.1 -28.65 -8.2 -28.75 -8.3 -28.8 -8.4 -28.9 -8.45 -29.0 -8.55 -29.1 -8.65 -29.1 -8.75 -29.15 -8.85 -29.15 -8.95 -29.2 -9.05 -29.25 -9.15 -29.3 -9.2 -29.3 -9.3 -29.3 -9.4 -29.25 -9.5 -29.2 -9.6 -29.15 -9.7 -29.15 -9.8 -29.05 -9.9 -29.0 -9.95 -28.95 -10.05 -28.9 -10.15 -28.8 -10.25 -28.8 -10.35 -28.75 -10.45 -28.7 -10.55 -28.65 -10.65 -28.6 -10.7 -28.55 -10.8 -28.45 -10.9 -28.35 -11.0 -28.3 -11.1 -28.25 -11.2 -28.15 -11.3 -28.05 -11.4 -28.0 -11.45 -27.9 -11.55 -27.8 -11.65 -27.75 -11.75 -27.7 -11.85 -27.65 -11.95 -27.65 -12.05 -27.6 -12.15 -27.6 -12.2 -27.6 -12.3 -27.65 -12.4 -27.65 -12.5 -27.65 -12.6 -27.75 -12.7 -27.75 -12.8 -27.8 -12.9 -27.9 -12.95" fill="#000000" fill-opacity="0.7294118" fill-rule="evenodd" stroke="none"/>
    <path d="M-30.1 -12.05 L-30.05 -12.1 -30.0 -12.2 -29.95 -12.3 -29.9 -12.4 -29.85 -12.45 -29.75 -12.55 -29.65 -12.65 -29.55 -12.75 -29.55 -12.8 -29.5 -12.85 -29.4 -12.95 -29.25 -13.05 -29.05 -13.15 -28.95 -13.2 -28.8 -13.2 -28.6 -13.25 -28.4 -13.2 -28.2 -13.15 -28.05 -13.05 -27.9 -12.95 -27.8 -12.9 -27.75 -12.8 -27.75 -12.7 -27.65 -12.6 -27.65 -12.5 -27.65 -12.4 -27.6 -12.3 -27.6 -12.2 -27.6 -12.15 -27.65 -12.05 -27.65 -11.95 -27.7 -11.85 -27.75 -11.75 -27.8 -11.65 -27.9 -11.55 -28.0 -11.45 -28.05 -11.4 -28.15 -11.3 -28.25 -11.2 -28.3 -11.1 -28.35 -11.0 -28.45 -10.9 -28.55 -10.8 -28.6 -10.7 -28.65 -10.65 -28.7 -10.55 -28.75 -10.45 -28.8 -10.35 -28.8 -10.25 -28.9 -10.15 -28.95 -10.05 -29.0 -9.95 -29.05 -9.9 -29.15 -9.8 -29.15 -9.7 -29.2 -9.6 -29.25 -9.5 -29.3 -9.4 -29.3 -9.3 -29.3 -9.2 -29.25 -9.15 -29.2 -9.05 -29.15 -8.95 -29.15 -8.85 -29.1 -8.75 -29.1 -8.65 -29.0 -8.55 -28.9 -8.45 -28.8 -8.4 -28.75 -8.3 -28.65 -8.2 -28.55 -8.1 -28.5 -8.0 -28.45 -7.9 -28.4 -7.8 -28.35 -7.7 -28.3 -7.65 -28.25 -7.55 -28.15 -7.45 -28.15 -7.35 -28.05 -7.25 -28.0 -7.15 -27.95 -7.05 -27.9 -6.95 -27.85 -6.9 -27.8 -6.8 -27.75 -6.7 -27.7 -6.6 -27.65 -6.5 -27.6 -6.4 -27.55 -6.3 -27.55 -6.2 -27.5 -6.15 -27.5 -6.05 -27.5 -5.95 -27.4 -5.85 -27.4 -5.75 -27.4 -5.7 -27.4 -5.65 -27.35 -5.55 -27.35 -5.45 -27.3 -5.4 -27.3 -5.3 -27.25 -5.2 -27.25 -5.1 -27.15 -5.0 -27.15 -4.9 -27.15 -4.8 -27.1 -4.7 -27.1 -4.65 -27.05 -4.55 -27.05 -4.45 -27.05 -4.35 -27.0 -4.25 -27.0 -4.15 -27.0 -4.05 -27.0 -3.95 -27.0 -3.9 -27.05 -3.8 -27.05 -3.7 -27.1 -3.6 -27.15 -3.5 -27.25 -3.4 -27.3 -3.3 -27.4 -3.2 -27.55 -3.15 -27.65 -3.05 -27.8 -3.05 -28.0 -3.0 -28.2 -3.05 -28.4 -3.1 -28.6 -3.2 -28.7 -3.3 -28.75 -3.35 -28.8 -3.4 -28.85 -3.45 -28.9 -3.55 -28.95 -3.65 -29.0 -3.75 -29.0 -3.85 -29.0 -3.95 -29.05 -4.05 -29.05 -4.15 -29.1 -4.2 -29.15 -4.3 -29.2 -4.4 -29.25 -4.5 -29.25 -4.6 -29.25 -4.7 -29.25 -4.8 -29.3 -4.9 -29.35 -4.95 -29.4 -5.05 -29.45 -5.15 -29.5 -5.25 -29.5 -5.3 -29.5 -5.35 -29.5 -5.45 -29.5 -5.55 -29.5 -5.65 -29.55 -5.7 -29.55 -5.8 -29.6 -5.85 -29.65 -5.9 -29.7 -6.0 -29.75 -6.1 -29.85 -6.2 -29.9 -6.3 -29.95 -6.4 -30.0 -6.45 -30.05 -6.55 -30.15 -6.65 -30.2 -6.75 -30.25 -6.85 -30.25 -6.95 -30.3 -7.05 -30.4 -7.15 -30.5 -7.2 -30.55 -7.3 -30.65 -7.4 -30.75 -7.5 -30.85 -7.6 -30.9 -7.7 -30.95 -7.8 -31.0 -7.9 -31.05 -7.95 -31.05 -8.05 -31.15 -8.15 -31.25 -8.25 -31.3 -8.35 -31.3 -8.45 -31.3 -8.55 -31.35 -8.65 -31.35 -8.7 -31.35 -8.8 -31.35 -8.9 -31.35 -9.0 -31.35 -9.2 -31.35 -9.4 -31.35 -9.55 -31.3 -9.65 -31.3 -9.75 -31.3 -9.85 -31.25 -9.95 -31.25 -10.05 -31.2 -10.15 -31.15 -10.2 -31.1 -10.3 -31.1 -10.4 -31.05 -10.5 -31.05 -10.6 -31.0 -10.7 -31.0 -10.8 -30.9 -10.9 -30.85 -10.95 -30.75 -11.05 -30.65 -11.15 -30.55 -11.25 -30.55 -11.35 -30.5 -11.45 -30.45 -11.55 -30.4 -11.65 -30.35 -11.7 -30.3 -11.8 -30.25 -11.9 -30.15 -12.0 -30.1 -12.05" fill="#000000" fill-opacity="0.30980393" fill-rule="evenodd" stroke="none"/>
  </g>
</svg>
