<?xml version="1.0" encoding="UTF-8" standalone="no"?>
<svg xmlns:ffdec="https://www.free-decompiler.com/flash" xmlns:xlink="http://www.w3.org/1999/xlink" ffdec:objectType="shape" height="20.2px" width="17.55px" xmlns="http://www.w3.org/2000/svg">
  <g transform="matrix(1.0, 0.0, 0.0, 1.0, 7.35, 11.95)">
    <path d="M10.15 8.0 L10.05 8.1 10.05 8.15 9.95 8.2 9.9 8.2 9.85 8.25 9.8 8.25 9.7 8.25 9.5 8.2 9.35 8.1 9.25 8.0 9.1 7.95 9.0 7.9 8.85 7.8 8.75 7.7 8.65 7.6 8.5 7.45 8.4 7.4 8.3 7.3 8.3 7.25 8.25 7.25 8.15 7.15 8.0 7.0 8.0 6.95 7.95 6.9 7.95 6.85 7.9 6.8 7.85 6.75 7.8 6.7 7.55 6.45 7.55 6.4 7.5 6.35 7.5 6.3 7.45 6.25 7.4 6.2 7.4 6.15 7.35 6.1 7.3 6.05 7.25 6.0 7.15 5.95 7.05 5.9 6.95 5.85 6.8 5.7 6.6 5.55 6.5 5.45 6.3 5.3 6.1 5.1 5.85 4.9 5.7 4.65 5.65 4.6 5.6 4.55 5.55 4.5 5.5 4.45 5.5 4.4 5.45 4.35 5.45 4.3 5.2 4.05 4.85 3.6 4.65 3.3 4.65 3.25 4.6 3.2 4.25 2.75 3.85 2.15 3.5 1.75 3.5 1.7 3.45 1.65 3.45 1.35 3.5 1.3 3.5 1.25 3.6 1.2 3.6 1.15 3.7 1.1 3.75 1.05 3.85 1.05 3.9 1.0 -7.35 -11.95 10.0 -11.95 10.0 7.35 10.05 7.35 10.05 7.4 10.1 7.45 10.15 7.5 10.15 7.55 10.2 7.6 10.2 7.85 10.15 7.9 10.15 8.0 M6.95 4.5 L6.4 3.9 6.6 4.15 6.95 4.5" fill="#004600" fill-rule="evenodd" stroke="none"/>
  </g>
</svg>
