<?xml version="1.0" encoding="UTF-8" standalone="no"?>
<svg xmlns:ffdec="https://www.free-decompiler.com/flash" xmlns:xlink="http://www.w3.org/1999/xlink" ffdec:objectType="shape" height="18.25px" width="21.65px" xmlns="http://www.w3.org/2000/svg">
  <g transform="matrix(1.0, 0.0, 0.0, 1.0, 10.9, 9.35)">
    <path d="M2.7 -7.55 L2.85 -7.7 3.35 -7.8 3.5 -7.75 3.9 -7.6 4.25 -7.5 4.35 -7.65 4.7 -7.9 5.15 -8.05 Q6.5 -8.0 7.35 -6.85 L7.45 -6.75 Q7.85 -6.15 8.35 -5.7 L8.6 -5.45 8.7 -5.25 8.9 -4.85 9.15 -4.4 9.15 -4.3 9.15 -3.65 9.2 -3.6 9.25 -3.4 9.35 -3.15 9.25 -2.85 8.9 -2.3 8.85 -2.2 8.65 -1.8 8.6 -1.8 8.25 -1.2 8.1 -1.15 7.9 -1.0 8.85 -2.2 7.9 -1.0 Q7.0 -0.5 6.45 0.45 L6.1 1.1 5.2 2.7 5.15 2.75 5.15 2.8 4.6 3.15 Q3.75 4.45 2.5 5.4 L2.45 5.4 Q1.1 6.35 0.4 7.8 L0.3 8.0 0.15 7.95 0.0 7.9 -0.1 7.8 -0.2 7.65 -0.25 7.6 -0.35 7.4 -0.4 7.25 -0.4 7.15 -0.4 6.95 -0.35 6.65 -0.25 6.3 -0.1 6.15 2.6 1.6 3.8 -1.05 4.65 -3.55 4.65 -3.65 4.65 -3.75 4.65 -3.85 4.65 -3.95 4.65 -4.0 4.65 -4.1 4.6 -4.2 4.55 -4.3 4.5 -4.4 4.45 -4.5 4.2 -4.65 3.8 -5.05 3.55 -5.45 3.15 -5.7 Q2.65 -5.9 2.45 -6.35 L2.35 -6.65 2.35 -6.75 2.35 -6.85 2.35 -6.9 2.35 -7.1 2.4 -7.2 2.5 -7.4 2.7 -7.55 M2.5 5.4 L6.1 1.1 2.5 5.4" fill="#00a5ce" fill-rule="evenodd" stroke="none"/>
    <path d="M7.45 -6.75 L7.95 -6.25 8.1 -6.05 8.25 -5.85 8.35 -5.7 Q7.85 -6.15 7.45 -6.75 M-0.1 6.15 L-0.4 5.5 -0.65 4.75 -0.65 4.65 -0.65 4.55 -0.65 4.5 -0.85 4.15 -1.35 3.2 -1.65 2.4 -1.65 2.3 -1.65 2.25 -1.75 1.95 -1.9 1.65 -2.1 1.5 -2.15 1.2 -2.4 0.25 -2.8 -0.65 -3.6 -3.35 -3.8 -3.95 Q-2.5 -4.4 -0.1 -5.4 L0.5 -5.65 0.9 -5.75 1.15 -5.85 1.25 -6.0 1.25 -6.05 1.35 -6.25 1.4 -6.45 1.4 -6.5 1.4 -6.7 1.35 -6.9 1.25 -7.1 1.2 -7.2 Q0.9 -7.5 0.4 -7.5 L-3.15 -7.55 -4.55 -7.35 -4.6 -7.4 -5.35 -7.4 -5.45 -7.45 -5.9 -7.55 -6.9 -7.1 -6.45 -7.6 -5.55 -8.0 -5.2 -8.05 1.3 -7.85 2.7 -7.55 2.5 -7.4 2.4 -7.2 2.35 -7.1 2.35 -6.9 2.35 -6.85 2.35 -6.75 2.35 -6.65 2.45 -6.35 Q2.65 -5.9 3.15 -5.7 L3.55 -5.45 3.8 -5.05 4.2 -4.65 4.45 -4.5 4.5 -4.4 4.55 -4.3 4.6 -4.2 4.65 -4.1 4.65 -4.0 4.65 -3.95 4.65 -3.85 4.65 -3.75 4.65 -3.65 4.65 -3.55 3.8 -1.05 2.6 1.6 -0.1 6.15 M-7.8 -6.1 L-7.9 -6.0 -8.35 -5.55 -8.6 -5.25 -8.6 -5.2 -8.65 -5.1 -8.65 -5.0 -8.65 -4.9 -8.95 -4.55 -8.95 -4.65 -8.9 -4.85 -8.8 -5.05 -8.75 -5.25 -8.25 -5.8 -7.8 -6.1 M-7.7 -1.7 L-7.35 -1.3 -7.0 -0.85 -6.85 -0.7 -6.85 -0.65 -6.6 -0.4 -6.4 -0.05 -7.6 -1.0 Q-8.3 -1.5 -8.8 -2.25 L-8.9 -2.8 -8.9 -3.0 -8.4 -2.45 -7.7 -1.7 M-5.75 0.75 L-6.1 0.0 -6.4 -0.45 -5.35 1.0 -3.8 3.15 -3.75 3.25 -3.75 3.35 -3.95 3.6 Q-4.25 3.9 -3.6 4.35 L-2.8 4.95 -2.65 5.2 -2.65 5.3 -2.6 5.45 -2.8 5.4 -3.25 5.25 -3.65 5.1 -4.0 4.7 -4.25 4.3 -4.45 3.75 -4.45 3.6 -4.45 3.4 -4.45 3.2 -4.45 3.0 -4.45 2.85 -5.05 2.1 -6.05 0.75 -6.1 0.55 -6.15 0.4 -6.15 0.35 -5.95 0.65 Q-5.6 1.25 -5.75 0.75 L-3.75 3.35 -5.75 0.75 M-0.4 7.7 L-0.25 7.6 -0.2 7.65 -0.35 7.7 -0.45 7.7 -0.4 7.7 -0.35 7.7 -0.4 7.7 M8.25 -1.2 L8.6 -1.8 8.65 -1.8 8.35 -1.25 8.25 -1.2 M-2.4 6.1 L-2.45 6.0 -2.45 5.95 -2.4 6.05 -2.4 6.1 M-6.85 -0.65 L-6.4 -0.05 -6.85 -0.65 M-4.6 1.65 L-4.75 1.55 -4.65 1.55 -4.6 1.65 M-0.9 -5.35 L-0.9 -5.5 -0.05 -5.6 -0.9 -5.35" fill="#00ccff" fill-rule="evenodd" stroke="none"/>
    <path d="M-6.9 -7.1 L-5.9 -7.55 -5.45 -7.45 -5.35 -7.4 -4.6 -7.4 -4.55 -7.35 -3.15 -7.55 0.4 -7.5 Q0.9 -7.5 1.2 -7.2 L1.25 -7.1 1.35 -6.9 1.4 -6.7 1.4 -6.5 1.4 -6.45 1.35 -6.25 1.25 -6.05 1.25 -6.0 1.15 -5.85 0.9 -5.75 0.5 -5.65 -0.1 -5.4 Q-2.5 -4.4 -3.8 -3.95 L-3.6 -3.35 -2.8 -0.65 -2.4 0.25 -2.15 1.2 -2.1 1.5 -1.9 1.65 -1.75 1.95 -1.65 2.25 -1.65 2.3 -1.65 2.4 -1.35 3.2 -0.85 4.15 -0.65 4.5 -0.65 4.55 -0.65 4.65 -0.65 4.75 -0.4 5.5 -0.1 6.15 -0.25 6.3 -0.35 6.65 -0.4 6.95 -0.4 7.15 -0.4 7.25 -0.35 7.4 -0.25 7.6 -0.4 7.7 -3.75 3.35 -0.4 7.7 -0.45 7.7 -0.75 7.8 -0.9 7.8 -1.5 7.6 -1.9 7.25 -2.1 6.9 -2.2 6.6 -2.25 6.5 -2.35 6.35 -2.35 6.2 -2.4 6.1 -2.4 6.05 -2.45 5.95 -2.5 5.85 -2.55 5.75 -2.55 5.65 -2.6 5.5 -2.6 5.45 -2.65 5.3 -2.65 5.2 -2.8 4.95 -3.6 4.35 Q-4.25 3.9 -3.95 3.6 L-3.75 3.35 -3.75 3.25 -3.8 3.15 -5.35 1.0 -6.4 -0.45 -6.1 0.0 -5.75 0.75 -6.4 -0.05 -5.75 0.75 Q-5.6 1.25 -5.95 0.65 L-6.15 0.35 -6.4 -0.05 -6.6 -0.4 -6.85 -0.65 -6.85 -0.7 -7.0 -0.85 -7.35 -1.3 -7.7 -1.7 -9.25 -3.5 -7.7 -1.7 -8.4 -2.45 -8.9 -3.0 -9.1 -3.2 -9.2 -3.35 -9.25 -3.5 -9.35 -3.65 -9.35 -3.75 -9.35 -3.85 -9.3 -4.0 -9.25 -4.2 -8.95 -4.55 -8.65 -4.9 -8.65 -5.0 -8.65 -5.1 -8.6 -5.2 -8.6 -5.25 -8.35 -5.55 -7.9 -6.0 -7.8 -6.1 -7.0 -7.05 -6.9 -7.1 M-4.6 -6.9 L-5.85 -6.85 -5.95 -6.75 -6.2 -6.5 -6.35 -6.35 -6.4 -6.3 -6.5 -6.2 -6.6 -6.1 -6.75 -5.95 -6.85 -5.85 -6.95 -5.8 -7.4 -5.3 -7.45 -5.2 -7.55 -5.1 -7.6 -4.8 -7.45 -4.75 -7.4 -4.65 -7.3 -4.55 -7.25 -4.45 -7.2 -4.35 -7.2 -4.3 -7.2 -4.2 -7.15 -4.1 -7.05 -4.0 -7.0 -3.9 -6.95 -3.8 -6.95 -3.75 -6.5 -3.55 -6.35 -3.3 -6.35 -3.2 -6.35 -3.05 -6.35 -2.95 -6.35 -2.85 -6.05 -2.45 -5.9 -2.3 -5.85 -2.2 -5.85 -2.1 -5.8 -2.0 -5.7 -1.9 -5.65 -1.8 -5.6 -1.7 -5.5 -1.65 -5.35 -1.6 -5.25 -1.6 -5.2 -1.65 -5.15 -1.75 -4.95 -1.8 -4.8 -1.9 -4.75 -2.0 -5.0 -2.45 -5.2 -2.75 -5.2 -2.85 -5.2 -2.95 -5.55 -3.45 -5.7 -3.85 -5.7 -3.95 -5.7 -4.55 -5.75 -4.85 -5.6 -4.85 -5.55 -4.95 -5.5 -5.05 -4.3 -5.3 -4.2 -5.4 -4.15 -5.5 -4.1 -5.75 -4.1 -6.15 -4.2 -6.5 -4.35 -6.8 -4.5 -6.95 -4.6 -6.9 M-5.2 -4.05 L-4.95 -4.35 -5.0 -4.35 -5.15 -4.3 -5.2 -4.05 M-0.9 -5.35 L-0.05 -5.6 -0.9 -5.5 -0.9 -5.35 M-4.6 1.65 L-4.65 1.55 -4.75 1.55 -4.6 1.65" fill="#7de6ff" fill-rule="evenodd" stroke="none"/>
    <path d="M-5.2 -4.05 L-5.15 -4.3 -5.0 -4.35 -4.95 -4.35 -5.2 -4.05 M-4.6 -6.9 L-4.5 -6.95 -4.35 -6.8 -4.2 -6.5 -4.1 -6.15 -4.1 -5.75 -4.15 -5.5 -4.2 -5.4 -4.3 -5.3 -5.5 -5.05 -5.55 -4.95 -5.6 -4.85 -5.75 -4.85 -5.7 -4.55 -5.7 -3.95 -5.7 -3.85 -5.55 -3.45 -5.2 -2.95 -5.2 -2.85 -5.2 -2.75 -5.0 -2.45 -4.75 -2.0 -4.8 -1.9 -4.95 -1.8 -5.15 -1.75 -5.2 -1.65 -5.25 -1.6 -5.35 -1.6 -5.5 -1.65 -5.6 -1.7 -5.65 -1.8 -5.7 -1.9 -5.8 -2.0 -5.85 -2.1 -5.85 -2.2 -5.9 -2.3 -6.05 -2.45 -6.35 -2.85 -6.35 -2.95 -6.35 -3.05 -6.35 -3.2 -6.35 -3.3 -6.5 -3.55 -6.95 -3.75 -6.95 -3.8 -7.0 -3.9 -7.05 -4.0 -7.15 -4.1 -7.2 -4.2 -7.2 -4.3 -7.2 -4.35 -7.25 -4.45 -7.3 -4.55 -7.4 -4.65 -7.45 -4.75 -7.6 -4.8 -7.55 -5.1 -7.45 -5.2 -7.4 -5.3 -6.95 -5.8 -6.85 -5.85 -6.75 -5.95 -6.6 -6.1 -6.5 -6.2 -6.4 -6.3 -6.35 -6.35 -6.2 -6.5 -5.95 -6.75 -5.85 -6.85 -4.6 -6.9" fill="#ccf4ff" fill-rule="evenodd" stroke="none"/>
    <path d="M8.85 -2.2 L9.6 -3.1 M-9.25 -3.5 L-7.7 -1.7 -7.35 -1.3 -7.0 -0.85 -6.85 -0.7 -6.85 -0.65 -6.4 -0.05 -5.75 0.75 -3.75 3.35 -0.4 7.7 -0.35 7.7 0.0 7.9 M8.85 -2.2 L7.9 -1.0 6.1 1.1 2.5 5.4 0.4 7.8 M-9.9 -4.0 L-6.4 -8.35 6.35 -8.35 9.75 -4.0" fill="none" stroke="#000000" stroke-linecap="round" stroke-linejoin="round" stroke-width="2.0"/>
  </g>
</svg>
