<?xml version="1.0" encoding="UTF-8" standalone="no"?>
<svg xmlns:ffdec="https://www.free-decompiler.com/flash" xmlns:xlink="http://www.w3.org/1999/xlink" ffdec:objectType="shape" height="436.25px" width="601.25px" xmlns="http://www.w3.org/2000/svg">
  <g transform="matrix(1.0, 0.0, 0.0, 1.0, 301.25, 218.7)">
    <path d="M-298.5 46.5 L-298.0 47.05 Q-298.0 55.35 -298.5 63.55 L-298.5 46.5 M271.8 217.5 L271.55 217.55 227.2 217.55 228.0 216.8 271.8 217.5 M287.25 214.8 L287.25 217.55 282.9 217.55 283.6 216.55 285.65 216.1 287.25 214.8 M289.65 59.7 L289.9 55.95 290.15 52.5 290.15 76.4 289.35 76.4 Q289.2 70.7 289.45 64.95 L289.55 61.95 289.65 59.7 M283.05 -217.4 Q283.5 -213.05 283.05 -208.8 282.35 -202.9 282.1 -197.1 281.3 -181.0 281.1 -164.8 280.95 -161.7 280.95 -158.6 L280.75 -144.35 279.6 -143.05 281.9 -95.0 280.75 -93.7 280.5 -89.7 Q280.25 -87.1 280.15 -84.35 279.8 -78.7 279.8 -73.1 L279.85 -67.9 281.1 -67.45 282.45 -66.85 283.6 -66.25 284.15 -65.55 284.75 -64.95 285.1 -64.25 285.3 -63.65 285.65 -62.95 285.65 -62.35 285.65 -61.65 285.65 -61.05 285.3 -60.35 285.1 -59.75 284.5 -59.05 284.15 -58.45 283.35 -57.75 282.45 -57.15 281.3 -56.45 280.4 -56.0 280.5 -54.4 Q281.1 -45.9 282.35 -37.5 L282.7 -34.75 283.95 -34.4 285.3 -33.75 286.25 -33.1 286.8 -32.45 287.05 -31.8 287.6 -31.2 287.6 -30.5 287.95 -29.9 287.95 -29.2 287.6 -28.6 287.4 -27.9 287.05 -27.3 286.45 -26.6 285.9 -26.0 284.85 -25.3 284.15 -24.85 283.05 -24.6 283.05 -24.4 284.15 -23.1 285.3 -8.85 286.45 -7.55 286.45 23.65 283.05 35.35 283.05 41.85 281.9 43.15 280.75 61.3 281.9 62.6 282.5 85.55 283.95 86.0 285.3 86.6 286.25 87.3 286.8 87.9 287.05 88.6 287.6 89.2 287.6 89.9 287.95 90.5 287.95 91.2 287.6 91.8 287.4 92.5 287.05 93.1 286.45 93.8 285.9 94.4 284.85 95.1 284.15 95.55 283.6 95.7 282.75 95.9 283.05 109.4 281.9 110.7 281.9 135.55 282.55 136.0 283.35 136.65 284.3 137.3 284.85 137.95 285.1 138.6 285.45 139.25 286.0 139.9 286.0 140.55 286.25 141.2 286.25 141.85 286.25 142.5 286.25 143.15 286.0 143.75 286.0 144.45 285.65 145.05 285.45 145.75 284.85 146.35 284.3 147.05 283.7 147.65 282.8 148.35 Q282.35 148.6 282.0 148.95 L281.9 149.05 281.9 149.65 283.05 150.95 283.05 162.65 284.15 163.95 283.3 179.0 283.7 179.1 290.0 179.3 291.75 179.55 293.7 180.0 295.4 180.6 296.55 181.3 297.45 181.9 298.05 182.6 298.6 183.2 299.2 183.85 299.4 184.5 299.75 185.15 299.75 185.8 300.0 186.45 300.0 187.1 300.0 187.75 299.75 188.4 299.4 189.05 299.2 189.7 298.85 190.35 298.25 191.0 297.7 191.65 296.9 192.3 296.0 192.95 294.6 193.55 293.1 194.0 291.75 194.25 290.0 194.45 283.15 194.45 282.4 194.4 281.9 202.95 279.45 213.3 222.6 211.6 217.35 217.55 200.25 217.55 206.55 216.95 206.1 213.5 202.75 213.2 202.0 213.75 200.6 214.35 199.1 214.8 197.75 215.05 196.0 215.25 191.45 215.25 189.7 215.05 188.25 214.8 187.45 214.6 181.1 214.35 179.4 214.2 177.9 213.95 177.1 213.75 169.65 213.5 167.95 213.3 103.05 216.0 97.9 216.1 72.55 216.2 64.55 216.2 50.45 215.9 45.75 215.85 41.05 215.65 40.25 214.95 -1.5 211.85 -2.95 211.85 -9.85 211.85 -12.05 211.95 -19.6 212.3 -20.75 212.3 Q-46.55 213.35 -72.45 213.5 L-73.1 213.6 -81.45 213.9 -83.1 214.2 -84.75 214.45 -86.4 214.75 -108.3 215.05 -110.25 215.35 -112.15 215.6 -114.1 215.9 -165.3 215.9 -199.8 216.55 -206.8 216.6 -214.1 216.7 Q-244.85 218.0 -275.0 215.25 L-281.75 214.6 -294.6 213.05 Q-295.15 206.4 -294.25 199.9 L-294.25 199.65 Q-293.65 195.75 -291.85 192.0 L-291.25 190.7 Q-294.35 184.55 -293.9 177.9 -293.8 176.0 -293.3 174.15 L-293.1 173.05 Q-292.75 170.55 -293.1 168.1 L-293.65 161.9 Q-293.8 157.65 -293.2 153.55 L-293.45 152.85 -293.8 152.25 -293.8 151.55 -293.8 150.95 -293.8 150.25 -293.45 149.65 -294.0 148.95 Q-294.45 148.6 -294.95 148.35 L-295.5 147.65 -295.75 147.05 -296.05 146.35 -296.05 145.75 -296.05 145.05 -296.05 144.45 -295.75 143.75 -295.5 143.15 -295.15 142.5 -294.35 141.85 -293.55 141.35 -293.8 141.0 -293.8 140.3 -294.7 139.7 -295.75 139.0 -296.65 138.4 -297.45 137.7 -297.8 137.1 -298.0 136.4 -298.0 145.75 -298.5 146.3 -298.5 114.05 -298.0 114.6 -298.0 133.2 -297.8 132.5 -297.2 131.9 -296.3 131.2 -295.5 130.6 -294.0 129.9 -292.3 129.3 -290.55 128.9 -290.1 128.9 -290.25 125.85 Q-290.55 117.6 -292.5 109.5 -293.45 105.95 -293.3 102.4 L-293.2 99.0 -293.0 94.85 -293.0 93.65 -292.5 83.65 -292.1 71.25 -292.85 70.6 -293.8 70.0 -294.35 69.3 -294.6 68.7 -295.15 68.0 -295.15 67.4 -295.5 66.7 -295.5 66.1 -295.5 65.4 -295.5 64.8 -295.15 64.1 -295.15 63.5 -294.95 62.8 -294.6 62.2 -294.0 61.5 -293.2 60.9 -292.3 60.2 -291.55 59.65 Q-291.35 52.45 -292.05 45.4 L-292.65 38.0 -292.75 35.45 Q-293.0 28.75 -292.85 22.25 L-292.75 18.9 Q-292.4 9.8 -291.25 0.8 -290.25 -7.2 -290.1 -15.15 -290.0 -18.95 -290.25 -22.75 L-290.45 -26.05 -291.05 -34.95 -292.85 -35.0 -294.6 -35.25 -295.75 -35.95 -296.65 -36.55 -297.45 -37.25 -297.8 -37.85 -298.0 -38.55 -298.35 -39.15 -298.35 -39.85 -298.35 -40.45 -298.35 -41.15 -298.0 -41.75 -297.8 -42.45 -297.2 -43.05 -296.3 -43.75 -294.6 -45.05 -292.05 -46.95 -291.8 -47.15 -291.95 -50.85 -292.4 -64.45 -292.65 -64.5 -293.2 -64.8 -295.15 -65.15 -296.9 -65.8 -297.8 -66.45 -298.6 -67.1 -299.5 -67.7 -300.1 -68.4 -300.3 -69.0 -300.9 -69.7 -300.9 -70.3 -301.25 -71.0 -301.25 -71.6 -301.25 -72.3 -301.25 -72.9 -301.25 -73.6 -301.25 -74.2 -301.25 -74.9 Q-301.0 -75.15 -300.9 -75.5 L-300.9 -76.2 -300.3 -76.8 -300.1 -77.5 -299.5 -78.1 -298.6 -78.8 -298.35 -78.95 -298.35 -79.4 -298.35 -80.1 -298.0 -80.7 -297.8 -81.4 -297.2 -82.0 -296.3 -82.7 -295.5 -83.3 -294.6 -83.75 -292.85 -84.0 -292.5 -84.0 -292.65 -91.45 -292.85 -116.05 -293.45 -130.35 Q-293.65 -135.9 -294.15 -141.45 L-294.55 -147.6 -295.75 -148.1 -296.65 -148.7 -297.45 -149.4 -298.35 -150.0 -298.95 -150.7 -299.15 -151.3 -299.75 -152.0 -299.75 -152.6 -300.1 -153.3 -300.1 -153.9 -300.1 -154.6 -300.1 -155.2 -300.1 -155.9 -300.1 -156.5 -299.75 -157.2 -299.5 -157.8 -299.15 -158.5 -298.6 -159.1 -298.0 -159.8 -297.2 -160.4 -296.3 -161.1 -295.15 -161.7 -294.9 -161.8 Q-294.95 -170.5 -294.35 -179.2 L-293.8 -185.85 -292.75 -195.9 -291.5 -204.65 -290.1 -212.45 -290.0 -213.25 -289.45 -213.05 -284.15 -212.25 -277.5 -212.8 -273.05 -213.25 -271.9 -213.25 -265.7 -213.5 -252.05 -214.6 -222.95 -214.6 -221.2 -214.35 -218.25 -213.9 Q-205.85 -212.2 -193.25 -211.65 L-187.5 -211.5 Q-175.6 -211.25 -163.55 -212.0 L-153.7 -212.55 -148.45 -212.6 Q-120.0 -212.45 -91.9 -214.0 L-91.5 -214.0 -91.4 -214.15 -90.0 -215.05 -88.1 -215.6 -86.4 -215.9 -50.4 -216.15 -49.6 -216.45 -48.2 -216.75 -46.55 -217.05 -32.4 -217.3 -31.85 -217.6 -30.45 -217.9 -28.8 -217.9 -28.8 -218.2 18.8 -218.2 20.5 -217.9 21.85 -217.6 22.4 -217.3 43.2 -217.05 44.85 -216.75 46.25 -216.45 46.8 -216.15 64.7 -216.0 65.35 -216.45 66.7 -216.25 68.75 -216.0 83.05 -215.9 84.75 -215.6 85.25 -215.45 88.6 -215.55 Q124.25 -218.6 160.05 -218.7 L187.9 -218.25 Q235.45 -215.75 283.05 -217.4" fill="#666666" fill-rule="evenodd" stroke="none"/>
    <path d="M58.2 -194.3 L59.4 -195.9 55.7 -191.8 58.2 -194.3 M276.45 -206.4 Q276.9 -202.25 276.45 -198.15 275.8 -192.5 275.6 -186.9 274.8 -171.4 274.6 -155.8 L274.5 -149.8 274.3 -136.15 273.2 -134.9 275.35 -88.6 274.3 -87.35 274.05 -83.55 273.75 -78.35 Q273.4 -72.95 273.4 -67.5 273.4 -58.5 274.05 -49.5 274.6 -41.35 275.8 -33.25 276.65 -27.0 276.45 -20.65 L277.55 -19.4 278.6 -5.65 279.7 -4.4 279.7 25.6 276.45 36.85 276.45 43.1 275.35 44.35 274.3 61.85 275.35 63.1 276.45 108.1 275.35 109.35 275.35 146.9 276.45 148.15 276.45 159.4 277.55 160.65 275.35 198.15 273.1 208.15 219.2 206.5 214.2 212.25 198.0 212.25 204.0 211.65 203.55 208.3 192.7 207.5 186.25 207.15 182.35 207.25 176.6 207.4 167.35 208.15 105.85 210.75 101.0 210.8 76.95 210.9 69.35 210.9 56.0 210.65 51.55 210.55 47.1 210.4 46.35 209.75 6.8 206.75 5.4 206.75 -1.15 206.75 -3.2 206.8 -10.4 207.15 -11.45 207.15 Q-41.65 208.4 -72.0 208.3 L-73.3 208.4 Q-127.15 210.4 -181.15 211.25 L-187.8 211.3 -194.75 211.4 Q-223.85 212.65 -252.45 210.0 L-258.85 209.4 -271.0 207.9 Q-271.55 201.5 -270.7 195.25 L-270.7 195.0 Q-270.15 191.25 -268.4 187.65 L-267.85 186.4 Q-270.8 180.45 -270.35 174.05 L-269.85 170.45 -269.6 169.4 Q-269.3 166.95 -269.6 164.65 L-269.7 163.95 Q-272.3 162.15 -273.0 158.9 L-273.2 157.05 -273.1 156.45 Q-271.9 154.15 -269.95 152.65 -269.7 149.8 -269.05 147.05 L-268.85 146.2 Q-267.65 140.65 -267.1 134.95 L-266.8 129.6 -266.9 123.95 Q-267.2 116.05 -269.05 108.2 -269.95 104.8 -269.85 101.35 -269.7 99.8 -269.7 98.1 L-269.5 94.1 -269.5 92.95 -269.05 83.35 -268.4 66.25 -268.3 64.1 -268.2 60.7 Q-268.0 53.5 -268.65 46.5 L-269.15 39.45 -269.3 36.95 -269.4 24.25 -269.3 21.0 Q-268.95 12.25 -267.85 3.6 -266.9 -4.1 -266.8 -11.75 -266.65 -17.0 -267.1 -22.25 L-268.2 -38.6 -268.2 -39.5 -268.5 -46.1 Q-269.05 -56.5 -269.05 -66.85 L-269.05 -75.35 -269.15 -85.2 -269.4 -108.85 -269.95 -122.6 -270.6 -133.3 Q-271.15 -140.45 -271.25 -147.55 -273.75 -149.7 -272.85 -153.65 L-272.65 -154.3 -271.35 -155.65 -270.8 -169.65 -270.25 -176.05 Q-269.95 -180.9 -269.3 -185.7 L-268.1 -194.15 -266.8 -201.65 -266.65 -202.4 -266.15 -202.25 Q-263.65 -201.55 -261.15 -201.5 L-254.85 -202.0 -250.6 -202.4 -249.5 -202.4 -243.65 -202.65 -230.7 -203.75 Q-216.9 -208.9 -203.1 -203.75 L-201.5 -203.5 -198.65 -203.05 Q-186.95 -201.4 -179.6 -203.4 -172.25 -205.4 -165.25 -205.25 -158.25 -205.1 -150.2 -203.35 -142.15 -201.65 -138.35 -203.35 -134.55 -205.05 -119.7 -205.7 -104.9 -206.4 -90.25 -204.85 L-72.4 -203.5 -60.15 -204.4 -59.75 -202.15 Q-47.65 -202.85 -24.75 -202.3 48.9 -200.6 68.25 -204.15 L70.15 -205.5 71.45 -205.3 73.4 -205.05 73.75 -205.1 Q82.3 -206.45 79.85 -204.55 86.05 -204.4 92.2 -204.65 125.95 -207.55 159.85 -207.65 173.0 -207.65 186.25 -207.25 231.35 -204.8 276.45 -206.4" fill="url(#gradient0)" fill-rule="evenodd" stroke="none"/>
    <path d="M269.9 -199.85 L270.7 -199.8 271.1 -199.8 271.75 -199.45 272.4 -199.0 272.25 -198.5 273.2 -198.1 273.6 -198.1 274.0 -198.05 274.4 -198.05 274.75 -197.85 275.05 -197.7 275.9 -197.55 276.45 -197.1 Q276.55 -196.05 275.6 -195.7 L275.0 -195.65 274.45 -195.15 274.1 -195.35 273.45 -195.7 272.45 -196.25 272.1 -196.25 271.6 -196.15 271.5 -196.2 270.05 -194.1 269.5 -193.75 269.1 -193.55 268.7 -193.4 264.4 -189.3 Q263.15 -188.1 261.55 -187.2 L259.8 -184.95 258.95 -184.2 258.65 -184.4 258.3 -185.05 Q258.2 -185.4 258.25 -185.75 L259.9 -188.85 260.45 -189.15 261.9 -189.7 262.4 -189.9 264.9 -192.65 264.4 -192.5 263.9 -192.35 263.55 -192.5 263.25 -192.7 262.9 -192.85 262.65 -193.2 261.9 -194.35 261.7 -194.65 261.35 -194.85 261.05 -195.0 260.7 -195.2 260.35 -195.2 259.9 -195.2 259.15 -195.35 258.6 -195.15 258.05 -195.05 257.7 -195.05 257.35 -195.05 256.8 -194.95 256.45 -195.15 Q256.25 -195.25 256.15 -195.3 L255.85 -195.35 254.65 -193.85 254.1 -193.45 253.65 -193.25 253.3 -193.15 253.05 -193.05 252.55 -192.6 252.0 -192.45 251.7 -192.35 251.45 -192.15 Q251.0 -191.85 250.45 -191.7 L250.1 -191.8 249.85 -192.0 249.7 -192.45 249.7 -193.1 250.2 -194.0 250.7 -194.35 251.15 -194.55 251.5 -194.7 251.75 -194.85 252.3 -195.3 252.75 -195.45 253.1 -195.55 254.55 -197.5 255.45 -197.5 256.65 -197.35 256.95 -197.2 257.9 -197.4 259.35 -197.6 259.65 -197.4 260.0 -197.25 260.45 -197.25 260.9 -197.35 Q261.2 -197.15 261.55 -197.0 L262.9 -196.3 263.2 -196.1 263.45 -195.8 263.7 -195.45 263.95 -195.1 264.25 -194.95 264.6 -194.75 266.95 -195.65 268.3 -196.1 268.3 -196.2 268.85 -196.55 269.1 -196.65 270.45 -198.6 270.2 -198.6 268.5 -199.45 Q267.9 -199.75 268.45 -200.35 L269.25 -200.15 269.9 -199.85 M271.05 -198.65 L270.65 -198.6 270.9 -198.6 271.1 -198.6 271.05 -198.65 M65.05 -207.45 L65.05 -207.05 65.05 -206.7 65.8 -204.85 66.15 -203.7 66.45 -203.35 66.9 -202.95 Q67.15 -202.15 67.6 -201.5 L68.3 -200.7 68.35 -200.55 68.8 -200.55 69.15 -200.35 70.3 -200.05 70.35 -199.95 72.55 -200.8 72.75 -201.2 72.8 -201.25 72.3 -207.2 72.9 -201.45 73.15 -201.85 73.5 -202.1 73.55 -202.2 75.25 -201.9 75.55 -201.7 75.25 -201.4 73.9 -200.95 73.65 -200.55 73.25 -199.85 73.05 -199.55 72.95 -199.4 72.9 -199.4 72.5 -199.25 71.05 -198.9 70.85 -198.7 70.7 -198.65 70.7 -198.55 Q70.7 -197.5 70.15 -196.65 L70.1 -196.6 70.05 -196.15 Q70.05 -195.55 70.65 -195.05 L70.8 -195.05 70.95 -194.8 71.05 -194.65 71.05 -194.6 71.05 -194.4 71.05 -194.3 71.75 -193.95 72.05 -193.65 Q72.25 -192.8 73.05 -192.05 L73.55 -191.4 73.6 -191.35 73.7 -189.2 73.95 -189.4 74.05 -189.35 73.9 -191.25 74.3 -191.05 74.45 -190.8 74.65 -190.65 Q75.1 -190.2 75.1 -189.55 L74.9 -187.7 75.4 -187.05 76.8 -185.55 77.15 -184.8 77.35 -184.25 77.55 -184.15 78.35 -183.1 78.65 -182.65 78.9 -182.3 79.0 -181.9 79.05 -181.55 79.05 -181.15 79.1 -180.85 79.45 -180.0 79.55 -179.65 79.55 -179.4 79.55 -179.35 80.3 -179.05 80.65 -178.65 81.4 -177.9 81.55 -177.55 81.65 -177.15 81.95 -176.85 82.4 -176.4 82.5 -175.65 82.55 -174.9 82.55 -174.55 83.05 -173.45 83.4 -172.65 83.55 -171.9 Q83.3 -171.6 83.05 -171.6 L82.6 -171.95 82.55 -172.3 82.25 -172.65 81.55 -173.4 81.55 -174.15 81.55 -174.9 81.55 -175.3 81.35 -175.6 80.55 -176.4 80.5 -176.8 80.4 -177.15 79.5 -177.85 78.8 -178.3 78.6 -178.7 78.55 -179.4 78.3 -179.8 78.05 -180.15 78.05 -180.55 78.05 -180.9 78.05 -181.3 77.85 -181.6 77.05 -182.4 76.95 -182.75 76.55 -183.4 73.5 -184.6 Q72.5 -185.05 72.55 -185.95 L72.35 -186.0 72.6 -184.3 72.55 -182.8 72.0 -182.2 71.55 -181.9 72.1 -180.05 72.55 -178.9 72.55 -178.55 72.55 -178.15 73.15 -176.65 73.55 -175.9 73.55 -175.15 73.55 -174.4 73.35 -174.05 72.9 -173.3 73.05 -171.05 73.05 -169.55 73.45 -168.4 73.55 -167.3 73.35 -166.95 72.9 -166.3 72.1 -165.85 71.55 -165.3 71.15 -165.95 71.05 -166.65 72.05 -167.4 72.55 -167.8 72.45 -168.15 72.05 -168.9 72.05 -170.8 72.05 -172.3 71.9 -172.65 71.55 -173.4 71.95 -174.15 72.55 -174.9 72.0 -176.4 71.55 -177.15 71.55 -177.55 71.55 -177.9 71.55 -178.3 71.35 -178.65 71.05 -179.05 71.05 -179.4 71.05 -179.8 71.05 -180.15 70.85 -180.5 70.55 -180.9 70.55 -181.65 70.55 -182.8 70.7 -183.0 71.55 -183.4 71.55 -184.15 71.55 -184.9 71.0 -185.65 70.55 -186.05 70.55 -186.4 70.55 -186.8 70.55 -187.15 70.35 -187.5 70.05 -187.9 70.05 -188.3 70.05 -188.65 69.85 -189.0 69.55 -189.4 69.55 -191.3 69.55 -192.8 68.3 -193.3 Q67.85 -194.5 67.95 -195.95 L68.05 -197.8 67.85 -198.15 67.55 -198.55 67.55 -198.9 67.55 -199.05 67.05 -199.55 66.7 -200.25 Q66.45 -200.6 66.7 -200.9 L66.15 -201.65 65.8 -202.3 65.4 -202.7 65.05 -203.05 65.05 -203.45 65.05 -203.8 64.8 -204.2 64.55 -204.55 64.55 -204.95 64.55 -205.3 64.3 -205.7 64.05 -206.05 64.05 -206.45 64.05 -206.8 63.85 -207.15 63.6 -207.5 65.05 -207.5 65.05 -207.45 M69.5 -198.4 L69.55 -198.05 69.55 -198.15 69.55 -198.9 69.2 -199.0 69.4 -198.8 69.5 -198.4 M73.4 -186.55 L73.75 -186.45 73.95 -186.25 73.9 -186.4 73.7 -186.65 73.55 -186.7 73.35 -186.7 73.4 -186.55 M71.8 -186.6 L72.0 -186.4 71.95 -186.5 71.55 -187.0 71.55 -186.9 71.8 -186.6 M69.9 -194.25 L69.4 -194.65 69.3 -194.9 69.05 -194.8 69.05 -194.4 69.95 -194.15 69.9 -194.25 M70.75 -192.1 L70.65 -192.25 70.65 -192.3 70.65 -192.1 70.75 -192.1 M70.55 -189.9 L70.8 -189.55 70.85 -189.45 70.95 -189.9 Q70.8 -190.2 70.8 -190.55 L70.6 -190.75 70.55 -189.9 M74.7 -185.25 L75.7 -184.75 75.4 -185.15 74.7 -185.25 M44.8 -122.3 L44.95 -122.1 45.0 -121.9 45.0 -121.55 45.0 -121.15 45.0 -120.8 45.0 -120.55 45.05 -120.35 45.2 -120.15 45.25 -119.95 45.25 -119.8 45.25 -119.6 45.25 -119.4 45.25 -119.2 45.25 -119.05 45.3 -118.85 45.45 -118.65 45.5 -118.45 45.5 -118.3 45.4 -118.1 45.45 -117.9 45.65 -117.7 45.75 -117.55 45.75 -117.35 45.8 -117.3 45.85 -117.25 45.95 -117.15 45.95 -117.1 46.0 -116.95 46.0 -116.9 46.15 -116.7 46.3 -116.55 46.45 -116.35 46.75 -116.15 46.9 -115.95 47.0 -115.8 47.05 -115.6 47.2 -115.4 47.25 -115.2 47.3 -115.05 47.45 -114.85 47.7 -114.65 47.9 -114.45 48.05 -114.3 48.2 -114.1 48.45 -113.9 48.5 -113.7 48.5 -113.55 48.5 -113.35 48.45 -113.15 48.15 -113.1 48.0 -113.3 48.0 -113.45 47.75 -113.65 47.65 -113.85 47.45 -114.05 47.25 -114.2 47.0 -114.4 46.9 -114.6 46.75 -114.8 46.75 -114.95 46.7 -115.15 46.55 -115.35 46.5 -115.55 46.4 -115.7 46.0 -115.9 45.9 -116.1 45.7 -116.3 45.5 -116.45 45.5 -116.65 45.4 -116.8 45.25 -116.95 44.9 -117.1 44.7 -117.3 44.45 -117.5 44.45 -117.4 44.2 -117.2 44.05 -117.05 44.0 -116.85 44.0 -116.65 43.95 -116.45 43.9 -116.3 43.95 -116.1 44.0 -115.9 44.0 -115.7 44.0 -115.55 44.0 -115.35 44.0 -115.15 44.0 -114.95 44.0 -114.8 43.9 -114.6 43.65 -114.6 43.5 -114.8 43.5 -114.95 43.5 -115.15 43.5 -115.35 43.5 -115.55 43.5 -115.7 43.25 -115.9 43.25 -116.1 43.25 -116.3 43.3 -116.45 43.45 -116.65 43.5 -116.85 43.5 -117.05 43.5 -117.2 43.5 -117.4 43.75 -117.6 43.9 -117.8 43.75 -117.95 43.5 -118.15 43.5 -118.3 43.5 -118.45 43.5 -118.55 43.5 -118.7 43.5 -118.85 43.5 -118.9 43.5 -119.1 43.65 -119.3 43.8 -119.45 44.0 -119.65 44.0 -119.85 44.2 -120.05 44.4 -120.2 44.5 -120.4 44.5 -120.55 44.5 -120.6 44.5 -120.8 44.5 -121.15 44.5 -121.55 44.5 -121.7 44.25 -121.9 44.25 -122.1 44.25 -122.3 44.3 -122.4 44.35 -122.45 44.5 -122.45 44.65 -122.45 44.8 -122.3 M193.0 189.8 L193.6 189.5 194.6 189.5 195.2 189.8 195.6 190.1 195.85 190.35 196.1 190.5 196.75 190.75 197.1 191.1 197.35 191.35 199.75 191.75 200.15 192.5 200.6 193.65 200.6 194.0 201.25 194.75 202.1 195.9 202.1 196.25 202.1 196.65 202.35 197.0 202.6 197.4 202.6 198.15 202.6 199.65 202.6 200.0 202.45 200.35 202.25 200.75 202.1 201.15 202.1 201.5 202.1 201.9 203.95 203.55 205.0 204.5 205.1 204.5 205.7 204.8 205.85 204.95 208.25 205.25 208.45 205.65 208.6 205.95 208.6 205.75 208.35 205.4 208.1 205.0 208.05 203.15 Q208.05 202.45 208.85 202.65 L209.05 203.4 209.1 204.15 209.45 204.9 209.6 205.25 209.6 206.0 209.5 206.75 209.0 206.9 209.1 207.9 209.25 208.25 209.45 208.65 209.6 209.0 209.6 209.4 209.6 209.7 209.9 210.5 209.75 211.25 208.1 211.15 207.75 210.7 207.1 210.4 207.1 210.0 207.1 209.25 207.1 208.15 206.95 207.8 206.6 207.4 206.6 207.25 204.1 207.0 203.5 206.7 203.1 206.4 202.85 206.15 197.15 204.25 Q195.5 203.75 194.0 202.75 L191.15 202.3 190.1 201.9 190.15 201.5 190.55 200.85 191.1 200.5 194.6 200.5 195.15 200.85 196.35 201.9 196.75 202.25 200.35 203.15 200.0 202.75 199.6 202.4 199.6 202.0 199.6 201.65 199.6 201.25 199.8 200.85 200.45 199.7 200.6 199.4 200.6 199.0 200.6 198.65 200.6 198.25 200.45 197.9 200.25 197.5 200.0 196.75 199.6 196.4 199.25 196.0 199.1 195.65 198.95 195.3 198.6 194.9 198.6 194.5 198.6 194.15 198.45 193.9 196.6 193.5 196.0 193.2 195.6 192.9 195.35 192.65 195.1 192.5 194.5 192.25 194.1 191.85 193.85 191.6 193.6 191.5 192.7 190.8 192.6 190.5 192.7 190.15 193.0 189.8 M-271.6 -1.1 L-271.45 -1.1 -270.8 -0.95 -270.7 -0.85 -270.6 -0.95 -270.45 -1.15 -270.15 -1.2 -264.55 -0.6 -264.0 -0.75 -263.6 -0.8 -262.7 -0.85 -262.2 -1.0 -261.85 -1.05 -261.55 -1.1 -260.75 -0.95 -260.75 -1.05 -260.65 -1.1 -260.6 -1.15 -260.45 -1.2 -260.2 -1.2 -260.1 -1.25 -259.9 -1.25 -259.6 -1.25 -259.45 -1.35 -259.3 -1.45 -259.2 -1.45 -259.0 -1.5 -258.75 -1.5 -258.6 -1.6 -258.5 -1.65 -258.35 -1.6 -257.6 -1.6 -257.5 -1.65 -257.35 -1.7 -257.25 -1.65 -257.0 -1.75 -256.9 -1.85 -256.75 -1.85 -256.55 -1.95 -256.45 -2.05 -256.3 -2.1 -256.15 -2.2 -256.05 -2.2 -255.85 -2.25 -255.75 -2.35 -255.65 -2.45 -255.6 -2.4 -255.45 -2.45 -255.3 -2.5 -255.15 -2.55 -255.05 -2.6 -254.95 -2.65 -254.75 -2.65 -254.75 -2.75 -254.7 -2.85 -254.75 -2.95 -254.8 -3.05 -254.8 -3.1 -254.8 -3.2 -254.7 -3.3 -254.65 -3.4 -254.6 -3.5 -254.5 -3.55 -254.35 -3.55 -254.05 -3.55 -253.95 -3.55 -253.0 -3.55 -253.0 -3.6 -252.9 -3.7 -252.8 -3.75 -252.75 -3.8 -252.7 -3.9 -252.6 -4.0 -252.5 -4.05 -252.4 -4.15 -252.35 -4.25 -252.25 -4.2 -252.1 -4.25 -251.95 -4.25 -251.9 -4.25 -251.8 -4.45 -251.8 -4.65 -251.75 -4.85 -251.65 -5.0 -251.55 -5.2 -251.35 -5.35 -251.2 -5.45 -251.1 -5.5 -250.85 -5.55 -249.95 -5.55 -249.45 -5.7 -249.3 -5.8 -249.0 -5.85 -248.8 -6.0 -248.6 -6.0 -248.15 -6.1 -247.65 -6.2 -247.5 -6.35 -247.15 -6.4 -246.95 -6.5 -246.75 -6.55 -246.3 -6.6 -245.9 -6.7 -242.8 -6.35 -242.6 -6.55 -242.4 -6.7 -242.35 -6.9 -242.2 -7.05 -241.75 -7.2 -241.55 -7.35 -241.3 -7.35 -239.65 -7.25 -239.3 -7.35 -237.15 -7.15 -236.8 -7.2 -236.55 -7.15 -236.2 -7.0 -236.05 -7.0 -235.7 -7.1 -235.5 -7.25 -235.15 -7.3 -234.95 -7.45 -234.8 -7.55 -234.7 -7.6 -234.45 -7.65 -234.05 -7.7 -233.8 -7.9 -233.65 -8.0 -233.35 -8.1 -233.35 -8.25 -233.3 -8.6 -233.45 -8.6 -233.55 -8.8 -233.4 -9.0 -233.25 -9.15 -233.15 -9.3 -233.05 -9.5 -232.9 -9.7 -232.85 -10.1 -232.75 -10.8 -232.7 -11.25 -232.7 -11.45 -232.65 -11.55 -232.55 -12.25 -232.55 -12.45 -232.4 -12.65 -232.3 -12.7 -232.4 -12.75 -232.45 -12.95 -232.45 -13.15 -232.65 -13.3 -232.65 -13.55 -232.75 -13.75 -232.8 -13.95 -232.85 -14.1 -233.2 -14.35 -233.3 -14.55 -233.25 -14.75 -233.25 -14.9 -233.6 -15.2 -233.7 -15.4 -233.65 -15.6 -233.6 -15.75 -233.25 -15.8 -233.15 -15.6 -232.8 -15.5 -232.7 -15.25 -232.7 -15.05 -232.75 -14.85 -232.6 -14.7 -232.45 -14.45 -232.3 -14.25 -232.1 -14.0 -232.1 -13.85 -232.1 -13.65 -232.05 -13.6 -231.95 -13.7 -231.85 -13.9 -231.8 -14.1 -231.8 -14.25 -231.7 -14.4 -231.6 -14.6 -231.45 -14.8 -231.45 -14.95 -231.35 -15.15 -231.25 -15.3 -231.1 -15.5 -231.1 -15.65 -231.05 -15.85 -230.95 -16.05 -230.8 -16.25 -230.8 -16.4 -230.8 -16.6 -230.75 -16.8 -230.6 -16.95 -230.4 -17.1 -230.2 -17.25 -230.15 -17.4 -230.1 -17.6 -230.05 -17.75 -229.85 -17.95 -229.8 -18.15 -229.8 -18.35 -229.95 -18.5 -230.0 -18.7 -230.05 -18.95 -230.15 -19.15 -230.35 -19.3 -230.4 -19.55 -230.35 -19.75 -230.25 -19.9 -230.0 -19.9 -229.8 -19.65 -229.65 -19.45 -229.4 -19.2 -229.45 -19.05 -229.4 -18.85 -229.25 -18.6 -229.25 -18.4 -229.3 -18.25 -229.3 -18.05 -229.35 -17.85 -229.35 -17.65 -229.35 -17.5 -229.6 -17.35 -229.7 -17.2 -229.7 -17.0 -229.7 -16.85 -229.85 -16.75 -229.75 -16.65 -229.8 -16.45 -229.8 -16.1 -229.85 -15.9 -229.9 -15.5 -229.95 -15.15 -230.1 -14.95 -230.25 -14.8 -230.25 -14.65 -230.3 -14.45 -230.3 -14.25 -230.35 -14.05 -230.35 -13.9 -230.55 -13.7 -230.65 -13.5 -230.7 -13.3 -230.7 -13.15 -230.95 -13.0 -231.0 -12.8 -231.05 -12.6 -231.05 -12.45 -231.1 -12.25 -231.1 -12.05 -231.15 -11.9 -231.2 -11.55 -231.3 -11.35 -231.45 -11.15 -231.5 -11.05 -231.55 -10.85 -231.5 -10.6 -231.35 -10.4 -231.35 -10.25 -231.4 -10.05 -231.4 -9.9 -231.05 -9.7 -230.9 -9.45 -230.75 -9.25 -230.75 -9.1 -230.7 -9.05 -230.35 -9.0 -229.9 -9.15 -229.7 -9.25 -229.45 -9.3 -223.0 -8.45 -222.7 -8.25 -222.3 -8.05 -221.55 -7.7 -221.5 -7.5 -219.0 -7.25 -218.6 -7.35 -218.2 -7.4 -217.85 -7.5 -217.75 -7.45 -217.6 -7.45 -216.9 -7.45 -216.55 -7.6 -216.25 -7.4 -216.1 -7.2 -216.1 -7.0 -216.15 -6.8 -216.15 -6.6 Q-216.3 -6.5 -216.35 -6.5 L-216.45 -6.35 -216.7 -6.35 -217.45 -6.25 -217.65 -6.15 -217.75 -6.0 -218.05 -5.95 -218.15 -5.75 -218.35 -5.55 -218.55 -5.4 -218.65 -5.25 -218.75 -5.05 -218.9 -4.95 -218.95 -4.9 -219.2 -4.8 -219.35 -4.7 -219.5 -4.5 -219.75 -4.35 -219.95 -4.2 -220.05 -4.05 -220.35 -4.05 -220.8 -3.95 -221.2 -3.8 -221.4 -3.75 -221.7 -3.7 -221.85 -3.55 -222.25 -3.5 -222.5 -3.35 -222.65 -3.2 -222.7 -3.15 -223.05 -3.1 -223.3 -2.95 -223.45 -2.8 -223.55 -2.75 -223.75 -2.75 -224.25 -2.65 -224.55 -2.6 -226.05 -2.8 -226.4 -2.9 -226.75 -3.1 -227.1 -3.25 -227.15 -3.45 -227.5 -3.6 -228.35 -3.7 -228.65 -3.65 -229.4 -3.6 -229.7 -3.5 -230.7 -3.5 -231.1 -3.35 -231.25 -3.25 -231.5 -3.25 -234.2 -3.45 -234.5 -3.4 -234.75 -3.25 -234.95 -3.15 -235.05 -3.0 -235.3 -3.0 -238.05 -3.2 -238.3 -3.15 -239.0 -3.1 -239.35 -3.0 -240.3 -3.0 -240.5 -2.85 -240.75 -2.7 -240.65 -2.65 -240.6 -2.45 -240.45 -2.4 -240.15 -2.2 -239.95 -2.05 -239.9 -1.9 -239.75 -1.85 -239.45 -1.65 -239.3 -1.55 -239.0 -1.35 -238.8 -1.15 -238.85 -0.95 -238.85 -0.75 -238.9 -0.55 -238.9 -0.4 -238.85 -0.2 -238.7 0.0 -238.75 0.1 -238.5 0.3 -238.35 0.55 -238.2 0.75 -238.05 0.95 -237.85 1.15 -237.65 1.35 -237.4 1.45 -237.2 1.65 -236.9 1.8 -236.75 2.0 -236.6 2.25 -236.45 2.4 -236.25 2.65 -236.1 2.8 -235.8 2.95 -235.7 3.05 -235.6 3.1 -235.0 3.1 -234.85 3.0 -234.45 2.9 -234.3 2.85 -234.05 2.8 -232.6 3.0 -232.3 3.15 -230.9 3.5 -230.6 3.65 -230.45 3.85 Q-230.4 3.85 -230.3 3.95 L-230.2 3.9 -229.9 3.9 -228.75 3.9 -228.4 3.85 -227.95 3.9 -227.65 4.05 -227.6 4.1 -227.15 4.1 -226.85 3.95 -226.8 3.8 -226.55 3.6 -226.1 3.45 -226.05 3.3 -226.0 3.2 -225.8 3.15 -224.45 3.4 -224.35 3.6 -224.5 3.75 -225.65 3.8 -225.65 4.0 -225.75 4.1 -225.95 4.1 -226.4 4.2 -226.5 4.4 -226.7 4.55 -226.9 4.7 -227.7 4.7 -227.75 4.8 -228.2 4.95 -228.3 5.0 -228.55 5.05 -229.75 5.0 -230.1 5.1 -230.85 5.0 -231.15 4.8 -231.3 4.6 -231.45 4.5 -232.75 4.25 -233.1 4.05 -234.15 3.95 -234.6 4.1 -234.85 4.25 -234.95 4.3 -235.05 4.3 -235.3 4.35 -235.25 4.4 -235.05 4.55 -235.1 4.75 -235.1 4.95 -235.1 5.2 -234.9 5.35 -234.7 5.6 -234.6 5.8 -234.5 6.0 -234.5 6.15 -234.55 6.35 -234.55 6.55 -234.6 6.9 -234.65 7.1 -234.3 7.35 -234.2 7.6 -234.2 7.75 -234.2 7.95 -234.2 8.15 -234.1 8.35 -234.1 8.5 -234.1 8.7 -234.35 8.75 -234.5 8.7 -234.65 8.55 -234.75 8.35 -234.75 8.1 -234.75 7.9 -234.75 7.85 Q-234.9 7.75 -235.1 7.6 L-235.2 7.45 -235.15 7.25 -235.15 7.05 -235.1 6.85 -235.05 6.5 -235.05 6.3 -235.15 6.1 -235.35 5.9 -235.4 5.7 -235.65 5.45 -235.65 5.25 -235.65 5.1 -235.6 4.9 -235.8 4.7 -235.95 4.45 -236.15 4.3 -236.15 4.15 -236.35 4.1 -236.4 4.05 -236.75 4.0 -237.1 3.8 -237.2 3.6 -237.35 3.45 -237.45 3.4 -237.75 3.2 -237.9 3.0 -238.05 2.85 -239.55 2.6 -239.9 2.4 -240.05 2.3 Q-240.2 2.15 -240.35 2.1 L-240.5 1.85 -240.65 1.7 -240.8 1.5 -240.85 1.45 -242.2 1.25 -242.5 1.05 -242.65 0.9 -243.0 0.75 -243.1 0.5 -243.3 0.35 -243.4 0.15 -243.45 0.1 -243.8 0.0 -244.15 -0.2 -244.45 -0.25 -244.75 -0.1 -245.75 -0.25 -246.1 -0.45 -246.95 -0.55 -247.25 -0.45 -247.6 -0.65 -247.65 -0.85 -247.7 -1.0 -247.8 -1.0 -248.05 -0.8 -248.2 -0.7 -248.3 -0.7 -248.6 -0.6 -248.8 -0.5 -249.05 -0.45 -249.5 -0.4 -249.75 -0.2 -249.8 -0.05 -249.85 0.1 -250.05 0.3 -250.4 0.35 -250.85 0.45 -251.05 0.6 -251.2 0.7 -251.55 0.8 -251.75 0.9 -252.1 1.0 -252.3 1.05 -252.6 1.2 -252.8 1.25 -253.1 1.25 -253.75 1.35 -254.05 1.4 -254.1 1.45 -254.35 1.4 -254.05 1.55 -253.9 1.7 -253.95 1.9 -253.8 2.1 -253.75 2.3 -253.0 2.55 -252.65 2.7 -252.55 2.9 -252.5 3.1 -252.5 3.25 -252.45 3.3 -252.15 3.3 -251.8 3.2 -250.8 3.35 -250.5 3.5 -250.3 3.65 -250.05 3.8 -249.9 4.05 -249.8 4.15 -249.4 4.3 -249.15 4.45 -248.95 4.65 -249.0 4.85 -248.85 4.95 -248.75 5.05 -248.65 5.15 -248.55 5.35 -248.35 5.55 -248.2 5.8 -248.0 6.0 -247.85 6.15 -247.85 6.2 -247.05 6.45 -246.95 6.65 -246.95 6.8 -246.95 7.0 -246.9 7.25 -246.75 7.45 -246.8 7.6 -246.55 7.85 -246.6 8.05 -246.7 8.1 -246.85 8.15 -246.85 8.2 -247.25 8.05 -247.35 7.9 -247.3 7.7 -247.5 7.45 -247.5 7.25 -247.5 7.1 -247.45 6.95 -247.5 6.9 -248.1 6.65 -248.3 6.45 -248.5 6.25 -248.8 6.0 -249.0 5.8 -249.85 5.85 -250.15 6.05 -250.25 6.15 -250.45 6.2 -250.65 6.25 -250.65 6.45 -250.8 6.55 -250.95 6.6 -250.95 6.65 -251.35 6.5 -251.45 6.3 -251.3 6.15 -251.15 5.95 -251.05 5.75 -251.0 5.65 -250.85 5.6 -250.55 5.55 -250.3 5.35 -250.25 5.25 -250.3 5.2 -250.6 5.0 -250.7 4.8 -250.85 4.65 -251.0 4.6 -251.25 4.4 -251.6 4.35 -251.85 4.55 -252.0 4.6 -252.25 4.7 -252.55 4.5 -252.75 4.35 -253.0 4.2 -253.2 4.05 -253.5 3.85 -253.55 3.65 -253.65 3.6 -254.15 3.4 -254.4 3.25 -254.55 3.15 -254.8 3.05 -254.9 2.9 -254.9 2.85 -255.1 2.75 -255.2 2.6 -255.4 2.5 -255.5 2.4 -255.65 2.3 -255.75 2.2 -255.8 2.1 -255.85 2.05 -255.95 2.0 -256.1 2.0 -256.25 1.85 -256.45 1.8 -256.55 1.75 -259.5 1.3 -259.65 1.2 -259.7 1.2 -260.0 1.1 -260.2 1.05 -260.25 0.95 -260.35 0.85 -260.45 0.75 -263.85 0.25 -263.9 0.25 -264.3 0.35 -264.55 0.4 -264.8 0.45 -264.85 0.5 -266.55 0.25 -266.6 0.4 -266.85 0.55 -267.1 0.7 -268.45 0.4 -268.55 0.3 -268.7 0.25 -268.85 0.35 -268.85 0.55 -269.15 0.65 -269.4 0.75 -269.6 0.9 -269.85 1.1 -270.0 1.2 -270.25 1.4 -270.4 1.55 -270.55 1.75 -270.65 1.9 -271.1 2.05 -271.3 2.1 -271.35 2.15 -271.95 2.0 -272.1 1.8 -271.95 1.6 -272.05 1.4 -271.9 1.2 -272.0 1.05 -271.95 0.85 -271.95 0.65 -271.9 0.45 -271.9 0.3 -271.85 0.1 -271.75 -0.1 -271.65 -0.25 -271.8 -0.45 -271.75 -0.65 -271.75 -0.8 -271.6 -1.0 -271.6 -1.1 M-243.55 -3.65 L-243.6 -3.55 -243.5 -3.6 -243.45 -3.65 -243.55 -3.65 M-240.45 -4.2 L-239.3 -4.15 -239.2 -4.15 -240.2 -4.25 -240.45 -4.2 M-241.35 -6.15 L-241.6 -6.05 -241.75 -5.9 -241.75 -5.85 -241.6 -5.95 -241.35 -6.15 M-235.75 -4.15 L-235.55 -4.15 -235.4 -4.25 -235.55 -4.25 -235.75 -4.15 M-232.45 -9.4 L-232.2 -9.4 -232.2 -9.45 -232.15 -9.65 -232.1 -9.8 -232.05 -9.85 -232.1 -9.95 -232.15 -9.75 -232.35 -9.6 -232.45 -9.45 -232.45 -9.4 M-228.4 -4.8 L-229.0 -4.95 -229.1 -4.95 -229.3 -4.8 -228.65 -4.75 -228.4 -4.8 M-239.05 1.5 L-239.15 1.3 -239.3 1.15 -239.35 1.1 -239.6 1.05 -239.7 1.0 -239.5 1.25 -239.1 1.5 -239.05 1.5 M-241.05 0.25 L-241.25 0.2 -241.3 0.25 -241.05 0.25" fill="#000000" fill-rule="evenodd" stroke="none"/>
  </g>
  <defs>
    <linearGradient gradientTransform="matrix(0.184, 0.2166, -0.2794, 0.1398, 3.2, 2.25)" gradientUnits="userSpaceOnUse" id="gradient0" spreadMethod="pad" x1="-819.2" x2="819.2">
      <stop offset="0.0" stop-color="#888888" stop-opacity="0.13725491"/>
      <stop offset="1.0" stop-color="#000000" stop-opacity="0.2627451"/>
    </linearGradient>
  </defs>
</svg>
