<?xml version="1.0" encoding="UTF-8" standalone="no"?>
<svg xmlns:ffdec="https://www.free-decompiler.com/flash" xmlns:xlink="http://www.w3.org/1999/xlink" ffdec:objectType="shape" height="122.45px" width="160.5px" xmlns="http://www.w3.org/2000/svg">
  <g transform="matrix(1.0, 0.0, 0.0, 1.0, 375.5, 35.5)">
    <path d="M-305.5 -13.15 L-305.4 -13.5 -305.1 -13.85 -304.75 -14.25 -304.4 -14.65 -304.0 -15.0 -303.9 -15.4 -303.75 -15.75 -302.25 -17.25 -300.4 -19.15 Q-299.45 -19.55 -298.55 -20.15 -297.8 -20.65 -297.15 -21.25 -281.95 -24.15 -266.65 -21.3 L-266.4 -21.65 -265.75 -21.85 -265.0 -22.0 -242.95 -22.95 Q-237.05 -23.55 -231.25 -24.75 -229.0 -27.3 -226.4 -29.4 -225.05 -30.5 -223.4 -31.15 L-221.55 -33.0 -219.15 -35.25 -218.05 -35.45 -218.0 -35.5 -217.05 -35.15 -216.05 -34.5 -215.65 -34.15 -215.4 -33.75 -215.25 -33.4 -215.15 -33.0 -215.0 -32.65 -215.0 -32.25 -215.0 -31.9 -215.0 -31.15 -215.0 -30.75 -215.15 -30.4 -215.3 -30.0 -215.5 -29.65 -215.5 -29.25 -215.5 -28.9 -216.5 -26.05 -216.5 -23.15 -216.5 -22.4 -216.65 -22.0 -216.75 -21.65 -216.9 -21.25 -217.0 -20.9 -217.0 -20.5 -217.0 -20.15 -217.15 -19.75 -217.35 -19.35 -217.5 -19.0 -217.5 -18.65 -217.5 -18.25 -217.5 -17.9 -217.65 -17.5 -217.75 -17.15 -217.9 -16.75 -218.0 -16.4 -218.0 -16.0 -218.0 -15.65 -218.0 -15.25 -218.3 -14.55 -218.75 -13.4 -219.0 -12.65 -219.0 -12.25 -219.0 -11.9 -219.7 -10.0 -221.0 -7.0 -221.0 -6.65 -221.0 -6.25 -221.3 -5.55 -221.75 -4.4 -222.0 -3.65 -222.0 -3.25 -222.0 -2.9 -222.0 -2.5 -222.0 -2.15 -223.05 0.45 -223.5 1.55 -223.4 1.6 -223.05 2.0 -222.85 2.35 -222.55 3.15 -222.5 3.5 -222.55 3.85 -222.65 4.25 -222.85 4.65 -223.0 5.0 -223.4 5.35 -223.8 5.75 -224.25 6.1 -225.45 6.4 -225.5 6.5 -225.9 6.85 -226.55 7.2 -227.5 7.5 -228.65 7.25 -228.85 7.1 Q-249.7 11.3 -271.0 12.2 L-274.2 12.25 -275.85 15.95 Q-276.85 18.2 -278.5 20.0 L-278.75 20.4 -278.9 20.75 -279.15 21.1 -279.5 21.5 -280.1 22.25 -280.5 23.0 -280.9 23.35 -281.65 24.1 -282.0 24.5 Q-285.25 30.5 -291.0 34.25 L-291.8 34.75 -286.0 38.1 Q-282.85 39.75 -280.5 42.5 -279.1 43.05 -278.05 44.0 L-276.5 45.5 -276.35 45.85 -276.15 46.25 -276.0 46.6 -276.0 48.5 -276.0 50.35 -276.0 52.25 -276.0 52.6 -276.15 53.0 -276.25 53.35 -276.4 53.75 -276.5 54.1 -276.5 54.85 -276.5 56.0 -276.5 57.1 -276.65 57.5 -276.75 57.85 -276.9 58.25 -277.15 58.6 -277.5 59.0 Q-277.55 59.8 -278.0 60.5 L-279.0 62.35 -279.5 63.5 -279.5 63.85 -279.5 64.25 -281.3 67.65 -283.1 70.95 -284.4 73.25 Q-284.35 74.2 -283.85 75.15 L-282.6 77.05 Q-282.05 77.7 -282.0 78.5 L-282.05 78.85 -282.15 79.25 -282.35 79.65 -282.5 80.0 Q-283.15 80.7 -284.0 80.85 L-284.3 81.2 -284.75 81.6 -285.3 81.8 -286.0 82.0 Q-298.1 84.05 -308.9 79.1 -310.3 78.8 -311.55 78.05 L-312.4 77.6 -313.15 76.85 -314.65 75.35 -315.0 75.0 -315.25 74.6 -315.4 74.25 -315.5 73.85 -315.5 73.5 -315.5 73.1 -315.5 72.75 -315.5 72.0 -315.4 71.6 -315.25 71.25 -315.05 70.85 -314.65 70.1 -314.25 69.75 -313.9 69.35 -313.15 68.95 -312.65 68.6 -311.9 67.85 -311.25 67.65 -310.4 67.35 -310.0 67.0 -309.4 66.6 -308.9 66.25 -308.75 65.9 -308.5 65.5 -308.15 65.1 -307.75 64.75 -307.4 64.35 -306.5 64.0 -305.75 63.25 -304.65 62.1 -304.25 61.75 -303.4 60.15 -303.05 59.6 Q-306.35 59.3 -309.75 57.45 L-312.95 55.7 -314.5 54.5 -314.7 54.15 -320.65 53.85 -324.5 53.0 -324.5 52.55 -324.7 52.9 -325.0 53.5 -328.7 57.3 Q-329.9 58.65 -331.5 59.5 L-335.3 63.2 -337.9 65.85 Q-343.35 71.0 -349.85 74.75 L-352.0 76.15 -352.0 76.6 -352.0 77.0 -351.35 78.1 -349.5 80.0 -349.1 80.7 -348.2 82.25 -348.0 83.0 -348.05 83.35 -348.15 83.75 -348.5 84.5 -348.9 84.85 -349.25 85.2 -349.75 85.6 Q-359.45 88.25 -369.15 85.75 L-369.6 85.35 -370.35 84.6 -370.9 83.85 -371.0 83.5 -371.25 83.1 -371.4 82.75 -371.5 82.35 -371.5 82.0 -371.5 81.6 -371.5 81.25 -371.65 80.9 -371.85 80.5 -372.0 80.1 -372.0 79.75 -372.0 79.35 -373.35 75.95 -374.6 73.05 -375.0 71.85 -375.0 71.5 -375.0 71.1 -375.0 70.75 -375.15 70.4 -375.35 70.0 -375.5 69.6 -375.5 67.35 -375.5 64.35 -375.5 63.6 -375.4 63.25 -375.25 62.85 -374.9 62.1 -374.75 61.75 -374.4 61.35 -374.0 61.0 -373.9 60.6 -373.75 60.25 -372.65 59.1 -370.65 57.25 Q-367.3 56.3 -364.9 53.85 L-364.15 53.1 -363.9 52.75 -363.75 52.4 -363.5 52.0 -362.0 50.5 -360.15 48.6 -359.9 48.25 -359.75 47.9 -359.5 47.5 -358.0 46.0 -356.15 44.1 -355.9 43.75 -355.75 43.4 -355.5 43.0 -355.15 42.6 -354.75 42.25 -354.55 41.85 -354.35 41.5 -354.15 41.1 -353.75 40.75 -353.4 40.35 -353.0 40.0 -352.9 39.6 -352.75 39.25 -352.4 38.85 -352.0 38.5 -351.9 38.1 -351.75 37.75 -351.4 37.35 -351.0 37.0 -350.65 36.6 -350.4 36.25 -350.25 35.9 -350.0 35.5 -349.65 35.1 -348.9 34.35 -348.5 34.0 Q-348.05 32.5 -347.1 31.3 -346.05 29.95 -345.25 28.4 L-345.0 28.0 -344.65 27.6 -343.9 26.85 -343.5 26.5 Q-342.65 24.5 -341.6 22.65 -340.65 21.05 -340.0 19.4 L-339.65 18.6 -339.25 18.25 -338.9 17.85 -338.5 17.5 -338.4 17.1 -338.25 16.75 Q-334.0 12.55 -329.0 9.4 L-325.35 7.05 -325.25 6.75 -324.9 6.0 -324.5 5.25 -324.5 4.85 -324.5 4.5 -324.4 4.1 -324.25 3.75 -324.0 3.35 -324.0 3.0 -324.0 2.6 -324.0 1.85 -324.0 1.1 -323.9 0.75 -323.75 0.35 -323.65 0.0 -323.5 -0.4 -323.5 -1.5 -323.5 -3.4 -323.5 -4.5 -322.65 -6.4 -321.35 -9.0 -321.15 -9.4 Q-318.9 -11.8 -316.25 -13.7 L-313.15 -15.75 -312.0 -15.95 -312.0 -16.0 -311.5 -15.95 -310.55 -15.7 -309.9 -15.4 -309.55 -15.0 -309.35 -14.65 -309.05 -13.85 -309.0 -13.5 -309.05 -13.15 -309.15 -12.75 -309.35 -12.35 -309.5 -12.0 Q-310.65 -10.75 -312.15 -9.9 L-314.0 -9.0 -315.15 -7.9 -317.0 -6.0 -317.45 -5.3 -318.05 -3.75 -318.5 -2.65 -318.5 -1.5 -318.5 0.75 -318.5 1.85 -318.65 2.25 -318.85 2.65 -319.0 3.0 -319.0 3.35 -319.0 3.75 -319.0 4.5 -319.0 5.25 -319.15 5.6 -319.3 6.0 -319.5 6.35 -319.5 6.75 -319.5 7.1 -319.65 7.5 -319.75 7.85 -319.9 8.25 -320.15 8.6 -320.5 9.0 -320.5 9.05 -320.5 9.25 -320.5 9.3 -320.55 9.35 -320.65 9.75 -320.85 10.15 -321.0 10.5 -321.4 10.85 -322.05 11.2 -322.3 11.3 Q-324.8 13.85 -328.15 15.75 L-333.0 19.0 -333.35 19.4 -333.6 19.75 -334.0 20.5 -334.4 20.85 -334.9 21.25 -336.8 25.35 Q-337.6 27.15 -338.8 28.7 L-339.5 29.5 -342.4 34.05 -344.7 37.4 -345.15 38.1 -345.5 38.5 -346.25 39.25 -346.65 39.6 -347.15 40.7 -348.35 42.65 -348.5 43.0 -350.3 44.95 -352.0 47.5 -354.3 49.65 Q-355.45 50.65 -356.0 52.0 L-357.15 53.1 -359.0 55.0 -359.25 55.4 -359.4 55.75 -359.65 56.1 Q-361.35 58.1 -363.5 59.55 L-365.9 61.25 -366.25 61.35 -368.0 62.0 -368.4 62.35 -369.15 63.1 -369.5 63.5 -369.75 63.85 -370.15 64.6 -370.5 65.35 -370.5 65.75 -370.5 66.5 -370.5 67.6 -370.5 68.0 -370.35 68.35 -370.15 68.75 -370.0 69.1 -370.0 69.5 -370.0 69.85 -369.6 71.05 -368.65 73.25 -368.5 73.6 -368.5 74.0 -368.5 74.35 Q-367.8 75.2 -367.5 76.25 L-366.5 79.25 -366.5 80.0 -366.5 80.85 -355.75 81.25 -356.6 80.15 -357.4 77.85 -357.5 77.5 -357.5 77.1 -357.5 77.0 -357.75 76.6 -357.9 76.25 -358.0 75.85 -358.0 75.5 -358.0 75.1 -357.95 74.35 -357.9 74.0 -357.6 73.65 -357.25 73.25 -356.9 72.85 Q-353.35 70.65 -349.65 68.75 L-348.9 68.35 -341.1 61.65 -337.65 58.6 -337.4 58.25 -337.25 57.9 -337.0 57.5 Q-335.2 55.45 -332.9 54.05 L-330.75 52.25 -330.55 51.85 -330.35 51.5 -330.15 51.1 -329.75 50.75 -329.4 50.35 -329.0 50.0 -328.9 49.6 -328.75 49.25 -327.65 48.1 -325.75 46.25 -325.55 45.85 -325.35 45.5 -325.15 45.1 -324.75 44.75 -324.4 44.35 -324.0 44.0 -323.9 43.6 -323.75 43.25 -323.4 42.85 -323.0 42.5 -322.65 42.25 -322.25 42.15 -321.5 42.05 -321.5 42.0 -320.55 42.3 -319.9 42.6 -319.55 43.0 -319.35 43.35 -319.0 44.1 -319.0 44.5 -319.0 44.85 -319.0 45.25 -319.15 45.6 -319.5 46.35 -320.0 47.5 -320.95 48.45 Q-318.35 48.85 -315.65 48.55 L-309.0 48.3 -307.4 48.6 -307.05 49.0 -306.85 49.35 -306.75 49.65 -306.75 49.1 -306.5 48.75 -306.15 48.35 -305.75 48.0 -304.9 47.55 -304.5 47.25 Q-302.55 44.2 -301.15 40.85 -300.25 38.65 -299.65 36.35 L-299.6 36.35 -299.75 36.1 -299.9 35.75 -300.0 35.35 -300.0 35.0 -300.0 34.6 -299.95 33.85 -299.9 33.5 Q-297.5 31.0 -294.25 29.7 L-292.4 28.85 -290.5 27.0 -288.25 24.75 -287.8 24.05 -286.85 22.5 -286.65 22.1 -286.25 21.75 -285.9 21.35 -285.5 21.0 -285.4 20.6 -285.25 20.25 -284.9 19.85 -284.5 19.5 -284.15 19.1 -283.9 18.75 -283.75 18.4 -283.5 18.0 -283.15 17.6 -282.75 17.25 Q-281.65 15.6 -280.95 13.8 L-280.0 11.75 -285.15 11.3 -288.25 14.55 -290.15 16.35 -290.5 16.6 -291.15 16.85 -291.5 17.25 -291.75 17.5 Q-293.65 18.25 -295.75 18.0 L-297.05 19.95 -298.0 21.75 -298.4 22.1 -298.75 22.5 -298.9 22.85 -299.0 23.25 -299.4 23.6 -299.75 24.0 -299.9 24.35 -300.0 24.75 -300.75 25.5 -301.5 26.25 -301.75 26.65 -301.9 27.0 -302.15 27.35 -302.9 28.1 -303.65 28.85 Q-304.55 30.6 -306.1 31.9 L-307.65 33.35 -308.0 33.6 -308.65 33.85 -312.05 37.2 -313.75 39.0 -314.0 39.1 -314.65 39.35 -315.35 40.15 -316.5 41.1 -317.5 41.15 -318.3 40.95 -318.75 40.25 -318.75 39.85 -318.7 39.55 -318.4 39.1 -318.0 38.75 -317.65 38.35 -317.25 38.0 Q-316.25 37.65 -315.55 36.85 L-314.9 36.1 Q-312.9 34.9 -311.35 33.15 L-309.9 31.6 -309.5 31.4 -308.9 31.1 -308.75 30.75 -308.65 30.35 Q-307.6 29.5 -306.7 28.5 L-305.65 27.35 -305.4 27.0 -305.25 26.65 -305.0 26.25 -303.5 24.75 -302.4 23.6 -300.8 20.6 -299.65 18.35 -299.25 18.0 -298.9 17.6 -298.5 17.25 -298.3 16.85 -298.25 16.5 -297.9 16.1 -297.5 15.75 -297.25 15.5 Q-295.35 14.75 -293.25 15.0 L-292.4 14.6 -289.0 11.25 -287.5 9.75 -287.35 9.4 -287.4 9.35 -287.5 9.0 -287.5 8.6 -287.5 8.25 -287.4 7.5 -287.1 7.15 -286.75 6.75 -286.4 6.35 Q-279.6 6.65 -272.65 6.3 L-238.15 3.75 Q-233.75 2.45 -229.3 1.65 -228.7 0.35 -228.4 -1.0 L-227.95 -1.8 -227.4 -3.25 -227.0 -4.4 -227.0 -4.75 -227.0 -5.15 -226.7 -5.9 -226.35 -7.0 -226.0 -7.75 -226.0 -8.15 -226.0 -8.5 -224.6 -12.2 -223.0 -16.75 -223.0 -17.15 -223.0 -17.5 -223.0 -17.9 -222.9 -18.25 -222.75 -18.65 -222.65 -19.0 -222.5 -19.4 -222.5 -19.75 -222.5 -20.15 -222.5 -20.5 -222.4 -20.9 -222.25 -21.25 -222.05 -21.65 -222.0 -22.0 Q-222.95 -22.0 -224.3 -20.25 -225.45 -18.85 -227.0 -18.0 L-227.6 -17.2 -228.6 -15.7 -229.0 -15.0 Q-229.75 -14.2 -230.65 -13.5 -231.7 -12.75 -233.0 -12.5 -239.0 -12.4 -244.5 -13.5 -264.25 -14.35 -283.7 -17.4 L-287.0 -17.65 Q-291.25 -17.65 -295.25 -16.25 L-295.8 -15.9 -296.5 -15.5 -298.45 -13.55 -300.4 -11.4 -300.5 -11.0 -300.5 -10.65 -300.5 -10.25 -300.65 -9.9 -300.8 -9.5 -301.0 -9.15 -301.3 -8.8 -301.75 -8.4 Q-302.0 -8.25 -302.3 -8.2 L-303.0 -8.0 -303.5 -8.05 -304.65 -8.25 -305.1 -8.65 -305.5 -9.0 -305.75 -9.4 -305.9 -9.75 -306.0 -10.15 -306.0 -10.5 -306.0 -10.9 -305.9 -11.25 -305.75 -11.65 -305.5 -12.4 -305.5 -12.75 -305.5 -13.15 M-233.25 -18.65 L-232.9 -19.05 -234.8 -18.6 -233.25 -18.65 M-281.15 48.5 Q-283.25 47.3 -285.0 45.45 -286.2 44.2 -287.9 43.6 -290.35 41.5 -293.25 40.0 L-296.15 37.85 -296.35 37.5 -296.45 37.3 -296.75 37.35 -297.25 37.45 -297.25 37.85 -297.3 38.2 -297.5 38.6 -297.75 39.0 -297.75 39.35 -297.75 39.75 -297.75 40.1 -298.65 42.05 -299.4 43.85 -299.55 44.2 -299.9 44.6 -300.25 45.0 -300.4 45.35 -300.7 46.15 -300.9 46.85 -301.05 47.2 -301.75 48.0 -302.15 48.35 -302.3 48.7 -302.8 49.45 -303.15 49.85 -303.5 50.1 -304.15 50.35 -304.5 50.75 -304.75 50.95 -305.0 51.1 -305.45 51.1 -306.5 50.7 -306.55 50.85 -306.65 51.25 -307.0 52.0 -307.7 52.35 -301.95 54.25 Q-300.1 54.8 -298.4 55.6 L-298.05 56.0 -297.85 56.35 -297.55 57.15 -297.5 57.5 -297.5 57.6 -297.35 57.85 -297.15 58.25 -297.0 58.6 -297.0 59.0 -297.0 59.35 -297.0 59.75 Q-297.35 60.75 -297.85 61.65 L-299.65 64.6 -302.2 67.3 Q-303.25 68.4 -304.65 69.1 L-304.8 69.5 -305.0 69.85 Q-306.1 70.95 -307.55 71.65 L-309.4 72.85 Q-299.75 78.4 -288.65 77.35 L-289.2 76.2 -290.0 74.35 -290.0 74.0 -290.0 73.25 -289.95 72.5 -289.9 72.1 -289.7 71.75 -289.4 71.35 -289.0 71.0 Q-288.4 69.4 -287.4 68.05 -286.35 66.65 -286.0 65.0 -285.65 63.7 -284.75 62.75 L-284.55 62.35 -284.5 62.0 -284.5 61.6 -284.4 61.25 -284.25 60.85 -283.9 60.1 -283.75 59.75 -283.4 59.35 -283.15 59.0 -282.7 57.9 -282.05 56.35 -281.5 55.25 -281.5 54.5 -281.5 53.35 -281.5 52.25 -281.5 51.85 -281.35 51.5 -281.15 51.1 -281.0 50.75 -281.0 50.35 -281.0 49.6 -281.05 48.85 -281.15 48.5" fill="#000000" fill-rule="evenodd" stroke="none"/>
    <path d="M-309.0 -13.5 L-305.5 -13.15 -305.5 -12.75 -305.5 -12.4 -305.75 -11.65 -305.9 -11.25 -306.0 -10.9 -306.0 -10.5 -306.0 -10.15 -305.9 -9.75 -305.75 -9.4 -305.5 -9.0 -305.1 -8.65 -304.65 -8.25 -303.5 -8.05 -303.0 -8.0 -302.3 -8.2 Q-302.0 -8.25 -301.75 -8.4 L-301.3 -8.8 -301.0 -9.15 -300.8 -9.5 -300.65 -9.9 -300.5 -10.25 -300.5 -10.65 -300.5 -11.0 -300.4 -11.4 -298.45 -13.55 -296.5 -15.5 -295.8 -15.9 -295.25 -16.25 Q-291.25 -17.65 -287.0 -17.65 L-283.7 -17.4 Q-264.25 -14.35 -244.5 -13.5 -239.0 -12.4 -233.0 -12.5 -231.7 -12.75 -230.65 -13.5 -229.75 -14.2 -229.0 -15.0 L-228.6 -15.7 -227.6 -17.2 -227.0 -18.0 Q-225.45 -18.85 -224.3 -20.25 -222.95 -22.0 -222.0 -22.0 L-222.05 -21.65 -222.25 -21.25 -222.4 -20.9 -222.5 -20.5 -222.5 -20.15 -222.5 -19.75 -222.5 -19.4 -222.65 -19.0 -222.75 -18.65 -222.9 -18.25 -223.0 -17.9 -223.0 -17.5 -223.0 -17.15 -223.0 -16.75 -224.6 -12.2 -226.0 -8.5 -226.0 -8.15 -226.0 -7.75 -226.35 -7.0 -226.7 -5.9 -227.0 -5.15 -227.0 -4.75 -227.0 -4.4 -227.4 -3.25 -227.95 -1.8 -228.4 -1.0 Q-228.7 0.35 -229.3 1.65 -233.75 2.45 -238.15 3.75 L-272.65 6.3 Q-279.6 6.65 -286.4 6.35 L-286.75 6.75 -287.1 7.15 -287.4 7.5 -287.5 8.25 -287.5 8.6 -287.5 9.0 -287.4 9.35 -287.35 9.4 -287.5 9.75 -289.0 11.25 -292.4 14.6 -293.25 15.0 Q-295.35 14.75 -297.25 15.5 L-297.5 15.75 -297.9 16.1 -298.25 16.5 -298.3 16.85 -298.5 17.25 -298.9 17.6 -299.25 18.0 -299.65 18.35 -300.8 20.6 -302.4 23.6 -303.5 24.75 -305.0 26.25 -305.25 26.65 -305.4 27.0 -305.65 27.35 -306.7 28.5 Q-307.6 29.5 -308.65 30.35 L-308.75 30.75 -308.9 31.1 -309.5 31.4 -309.9 31.6 -311.35 33.15 Q-312.9 34.9 -314.9 36.1 L-315.55 36.85 Q-316.25 37.65 -317.25 38.0 L-317.65 38.35 -318.0 38.75 -318.4 39.1 -318.7 39.55 -318.75 39.85 -318.75 40.25 -318.3 40.95 -319.9 42.6 -320.55 42.3 -321.5 42.0 -321.5 42.05 -322.25 42.15 -322.65 42.25 -323.0 42.5 -323.4 42.85 -323.75 43.25 -323.9 43.6 -324.0 44.0 -324.4 44.35 -324.75 44.75 -325.15 45.1 -325.35 45.5 -325.55 45.85 -325.75 46.25 -327.65 48.1 -328.75 49.25 -328.9 49.6 -329.0 50.0 -329.4 50.35 -329.75 50.75 -330.15 51.1 -330.35 51.5 -330.55 51.85 -330.75 52.25 -332.9 54.05 Q-335.2 55.45 -337.0 57.5 L-337.25 57.9 -337.4 58.25 -337.65 58.6 -341.1 61.65 -348.9 68.35 -349.65 68.75 Q-353.35 70.65 -356.9 72.85 L-357.25 73.25 -357.6 73.65 -357.9 74.0 -357.95 74.35 -358.0 75.1 -358.0 75.5 -358.0 75.85 -357.9 76.25 -357.75 76.6 -357.5 77.0 -357.5 77.1 -357.5 77.5 -357.4 77.85 -356.6 80.15 -355.75 81.25 -366.5 80.85 -366.5 80.0 -366.5 79.25 -367.5 76.25 Q-367.8 75.2 -368.5 74.35 L-368.5 74.0 -368.5 73.6 -368.65 73.25 -369.6 71.05 -370.0 69.85 -370.0 69.5 -370.0 69.1 -370.15 68.75 -370.35 68.35 -370.5 68.0 -370.5 67.6 -370.5 66.5 -370.5 65.75 -370.5 65.35 -370.15 64.6 -369.75 63.85 -369.5 63.5 -369.15 63.1 -368.4 62.35 -368.0 62.0 -366.25 61.35 -365.9 61.25 -363.5 59.55 Q-361.35 58.1 -359.65 56.1 L-359.4 55.75 -359.25 55.4 -359.0 55.0 -357.15 53.1 -356.0 52.0 Q-355.45 50.65 -354.3 49.65 L-352.0 47.5 -350.3 44.95 -348.5 43.0 -348.35 42.65 -347.15 40.7 -346.65 39.6 -346.25 39.25 -345.5 38.5 -345.15 38.1 -344.7 37.4 -342.4 34.05 -339.5 29.5 -338.8 28.7 Q-337.6 27.15 -336.8 25.35 L-334.9 21.25 -334.4 20.85 -334.0 20.5 -333.6 19.75 -333.35 19.4 -333.0 19.0 -328.15 15.75 Q-324.8 13.85 -322.3 11.3 L-322.05 11.2 -321.4 10.85 -321.0 10.5 -320.85 10.15 -320.65 9.75 -320.55 9.35 -320.5 9.3 -320.5 9.25 -320.5 9.05 -320.5 9.0 -320.15 8.6 -319.9 8.25 -319.75 7.85 -319.65 7.5 -319.5 7.1 -319.5 6.75 -319.5 6.35 -319.3 6.0 -319.15 5.6 -319.0 5.25 -319.0 4.5 -319.0 3.75 -319.0 3.35 -319.0 3.0 -318.85 2.65 -318.65 2.25 -318.5 1.85 -318.5 0.75 -318.5 -1.5 -318.5 -2.65 -318.05 -3.75 -317.45 -5.3 -317.0 -6.0 -315.15 -7.9 -314.0 -9.0 -312.15 -9.9 Q-310.65 -10.75 -309.5 -12.0 L-309.35 -12.35 -309.15 -12.75 -309.05 -13.15 -309.0 -13.5" fill="#b1e34d" fill-rule="evenodd" stroke="none"/>
    <path d="M-318.3 40.95 L-317.5 41.15 -316.5 41.1 -315.35 40.15 -314.65 39.35 -314.0 39.1 -313.75 39.0 -312.05 37.2 -308.65 33.85 -308.0 33.6 -307.65 33.35 -306.1 31.9 Q-304.55 30.6 -303.65 28.85 L-302.9 28.1 -302.15 27.35 -301.9 27.0 -301.75 26.65 -301.5 26.25 -300.75 25.5 -300.0 24.75 -299.9 24.35 -299.75 24.0 -299.4 23.6 -299.0 23.25 -298.9 22.85 -298.75 22.5 -298.4 22.1 -298.0 21.75 -297.05 19.95 -295.75 18.0 Q-293.65 18.25 -291.75 17.5 L-291.5 17.25 -291.15 16.85 -290.5 16.6 -290.15 16.35 -288.25 14.55 -285.15 11.3 -280.0 11.75 -280.95 13.8 Q-281.65 15.6 -282.75 17.25 L-283.15 17.6 -283.5 18.0 -283.75 18.4 -283.9 18.75 -284.15 19.1 -284.5 19.5 -284.9 19.85 -285.25 20.25 -285.4 20.6 -285.5 21.0 -285.9 21.35 -286.25 21.75 -286.65 22.1 -286.85 22.5 -287.8 24.05 -288.25 24.75 -290.5 27.0 -292.4 28.85 -294.25 29.7 Q-297.5 31.0 -299.9 33.5 L-299.95 33.85 -300.0 34.6 -300.0 35.0 -300.0 35.35 -299.9 35.75 -299.75 36.1 -299.6 36.35 -299.65 36.35 Q-300.25 38.65 -301.15 40.85 -302.55 44.2 -304.5 47.25 L-304.9 47.55 -305.75 48.0 -306.15 48.35 -306.5 48.75 -306.75 49.1 -306.75 49.65 -306.85 49.35 -307.05 49.0 -307.4 48.6 -309.0 48.3 -315.65 48.55 Q-318.35 48.85 -320.95 48.45 L-320.0 47.5 -319.5 46.35 -319.15 45.6 -319.0 45.25 -319.0 44.85 -319.0 44.5 -319.0 44.1 -319.35 43.35 -319.55 43.0 -319.9 42.6 -318.3 40.95" fill="#cc3300" fill-rule="evenodd" stroke="none"/>
    <path d="M-281.15 48.5 L-281.05 48.85 -281.0 49.6 -281.0 50.35 -281.0 50.75 -281.15 51.1 -281.35 51.5 -281.5 51.85 -281.5 52.25 -281.5 53.35 -281.5 54.5 -281.5 55.25 -282.05 56.35 -282.7 57.9 -283.15 59.0 -283.4 59.35 -283.75 59.75 -283.9 60.1 -284.25 60.85 -284.4 61.25 -284.5 61.6 -284.5 62.0 -284.55 62.35 -284.75 62.75 Q-285.65 63.7 -286.0 65.0 -286.35 66.65 -287.4 68.05 -288.4 69.4 -289.0 71.0 L-289.4 71.35 -289.7 71.75 -289.9 72.1 -289.95 72.5 -290.0 73.25 -290.0 74.0 -290.0 74.35 -289.2 76.2 -288.65 77.35 Q-299.75 78.4 -309.4 72.85 L-307.55 71.65 Q-306.1 70.95 -305.0 69.85 L-304.8 69.5 -304.65 69.1 Q-303.25 68.4 -302.2 67.3 L-299.65 64.6 -297.85 61.65 Q-297.35 60.75 -297.0 59.75 L-297.0 59.35 -297.0 59.0 -297.0 58.6 -297.15 58.25 -297.35 57.85 -297.5 57.6 -297.5 57.5 -297.55 57.15 -297.85 56.35 -298.05 56.0 -298.4 55.6 Q-300.1 54.8 -301.95 54.25 L-307.7 52.35 -307.0 52.0 -306.65 51.25 -306.55 50.85 -306.5 50.7 -305.45 51.1 -305.0 51.1 -304.75 50.95 -304.5 50.75 -304.15 50.35 -303.5 50.1 -303.15 49.85 -302.8 49.45 -302.3 48.7 -302.15 48.35 -301.75 48.0 -301.05 47.2 -300.9 46.85 -300.7 46.15 -300.4 45.35 -300.25 45.0 -299.9 44.6 -299.55 44.2 -299.4 43.85 -298.65 42.05 -297.75 40.1 -297.75 39.75 -297.75 39.35 -297.75 39.0 -297.5 38.6 -297.3 38.2 -297.25 37.85 -297.25 37.45 -296.75 37.35 -296.45 37.3 -296.35 37.5 -296.15 37.85 -293.25 40.0 Q-290.35 41.5 -287.9 43.6 -286.2 44.2 -285.0 45.45 -283.25 47.3 -281.15 48.5" fill="#80a839" fill-rule="evenodd" stroke="none"/>
  </g>
</svg>
