<?xml version="1.0" encoding="UTF-8" standalone="no"?>
<svg xmlns:ffdec="https://www.free-decompiler.com/flash" xmlns:xlink="http://www.w3.org/1999/xlink" ffdec:objectType="shape" height="421.3px" width="562.75px" xmlns="http://www.w3.org/2000/svg">
  <g transform="matrix(1.0, 0.0, 0.0, 1.0, 44.25, 46.5)">
    <path d="M507.85 -43.55 Q509.9 -43.45 511.75 -42.5 L512.95 -42.45 513.6 -42.4 513.85 -42.4 514.45 -42.5 514.95 -42.4 516.05 -41.8 516.35 -41.5 516.4 -41.15 516.25 -40.6 516.45 -40.25 516.45 -39.5 516.45 -39.15 516.45 -38.9 516.45 -36.5 516.45 -36.25 516.45 -35.9 516.45 -35.5 516.45 -35.15 516.45 -34.25 516.45 -33.65 516.45 -32.5 516.45 -32.15 516.7 -31.75 517.0 -30.65 517.0 -27.25 516.85 -23.5 516.6 -23.15 516.2 -22.8 515.45 -22.5 514.95 -22.55 514.35 -22.65 514.1 -22.6 513.45 -22.5 512.7 -22.4 512.55 -22.05 512.35 -21.75 512.1 -21.65 511.45 -21.5 510.6 -21.75 510.2 -22.1 509.7 -22.5 509.0 -22.55 508.15 -22.85 507.7 -23.15 507.55 -23.5 507.45 -23.9 507.45 -24.25 507.45 -24.65 507.2 -25.0 506.95 -25.35 506.6 -25.75 506.5 -26.15 506.45 -26.5 506.35 -26.85 505.95 -27.65 505.95 -28.0 505.95 -28.4 505.95 -28.75 505.95 -30.25 505.95 -31.75 505.95 -32.15 505.8 -32.5 505.45 -32.9 505.15 -33.3 504.95 -33.65 504.9 -33.8 504.45 -34.0 503.6 -34.25 503.25 -34.65 503.0 -35.0 502.85 -35.35 502.8 -35.45 502.75 -35.35 502.55 -35.05 502.2 -34.65 501.7 -34.3 500.95 -34.0 500.1 -34.25 499.7 -34.65 499.35 -35.0 499.1 -35.4 499.0 -35.75 499.0 -35.95 499.15 -35.85 500.0 -35.55 500.45 -35.5 501.1 -35.65 501.35 -35.75 501.55 -36.0 502.1 -36.2 502.45 -36.4 502.7 -36.75 502.95 -37.5 502.95 -37.9 502.95 -38.2 503.45 -38.0 504.2 -38.3 504.6 -38.65 504.8 -39.0 505.05 -39.75 505.2 -40.15 505.7 -40.55 505.95 -40.5 506.7 -40.8 507.1 -41.15 507.35 -41.5 507.4 -41.85 507.6 -42.0 507.7 -42.4 507.9 -43.15 507.85 -43.5 507.85 -43.55 M498.4 -36.95 L498.1 -37.25 498.05 -37.65 498.1 -37.7 498.45 -37.85 498.4 -37.25 498.4 -36.95 M501.3 -43.45 L501.45 -43.45 501.35 -43.4 501.3 -43.45 M516.45 -38.9 L516.4 -39.25 516.25 -39.65 516.05 -39.95 515.7 -40.4 515.2 -40.7 514.45 -40.95 513.95 -41.0 513.95 -40.95 513.15 -40.65 512.7 -40.4 512.55 -37.5 512.0 -35.85 Q511.65 -34.45 512.2 -33.2 L512.0 -29.55 511.65 -28.9 511.2 -28.15 510.15 -27.7 509.7 -27.4 509.35 -27.0 509.1 -26.65 509.0 -26.25 508.95 -25.9 508.95 -25.5 509.25 -25.2 510.45 -24.5 510.6 -24.4 510.75 -24.15 511.1 -23.75 512.0 -23.55 512.45 -23.5 514.05 -24.15 Q515.35 -24.95 515.95 -26.25 L515.95 -26.65 515.95 -27.0 515.95 -27.4 Q516.65 -28.4 516.65 -29.65 516.65 -30.85 516.1 -31.9 L515.7 -32.2 515.25 -32.4 Q515.35 -34.65 515.6 -36.8 L515.95 -37.65 515.95 -38.0 516.1 -38.15 516.3 -38.5 516.45 -38.9 M511.6 362.1 L510.7 368.75 510.35 368.75 509.95 368.75 509.9 368.75 509.95 368.25 509.9 368.25 509.6 367.45 509.35 367.0 506.45 366.85 504.8 366.3 502.15 366.5 498.5 366.3 497.85 365.95 497.1 365.5 496.65 364.45 496.35 364.0 495.95 363.65 495.6 363.4 495.2 363.3 494.85 363.25 494.45 363.25 494.15 363.55 493.45 364.75 493.35 364.9 493.1 365.05 492.95 365.15 493.45 363.25 493.3 362.75 493.35 362.75 494.1 362.75 494.45 362.6 494.85 362.4 495.2 362.25 495.6 362.25 495.95 362.25 496.35 362.25 496.7 362.25 497.1 362.05 497.85 361.8 498.2 361.75 498.6 361.75 499.35 361.45 Q500.8 360.85 501.95 359.85 L502.6 359.25 502.75 359.2 502.85 358.95 504.2 357.5 504.3 357.1 504.4 357.1 504.35 357.05 504.85 355.8 504.95 355.85 505.15 356.4 505.35 356.75 505.7 357.0 506.45 357.25 506.85 357.25 507.15 357.25 506.95 357.75 507.25 358.5 507.6 358.9 507.95 359.1 508.7 359.35 509.1 359.5 509.5 360.0 509.45 360.25 509.75 361.0 510.1 361.4 510.45 361.65 510.8 361.7 510.95 361.9 511.35 362.0 511.6 362.1 M493.35 368.75 L492.95 368.65 492.4 367.6 492.35 367.15 492.45 366.6 492.45 366.75 493.1 368.35 493.35 368.75 M506.2 352.7 L506.25 352.5 506.6 352.35 506.65 352.4 506.8 352.75 506.2 352.7 M-40.4 -35.8 L-39.5 -42.45 -39.15 -42.45 -38.75 -42.45 -38.7 -42.45 -38.75 -41.95 -38.7 -41.95 -38.4 -41.15 -38.15 -40.7 -35.25 -40.55 -33.6 -40.0 -30.95 -40.2 -27.3 -40.0 -26.65 -39.65 -25.9 -39.2 -25.45 -38.15 -25.15 -37.7 -24.75 -37.35 -24.4 -37.1 -24.0 -37.0 -23.65 -36.95 -23.25 -36.95 -22.95 -37.25 -22.25 -38.45 -22.15 -38.6 -21.9 -38.75 -21.75 -38.85 -22.25 -36.95 -22.1 -36.45 -22.15 -36.45 -22.9 -36.45 -23.25 -36.3 -23.65 -36.1 -24.0 -35.95 -24.4 -35.95 -24.75 -35.95 -25.15 -35.95 -25.5 -35.95 -25.9 -35.75 -26.65 -35.5 -27.0 -35.45 -27.4 -35.45 -28.15 -35.15 Q-29.6 -34.55 -30.75 -33.55 L-31.4 -32.95 -31.55 -32.9 -31.65 -32.65 -33.0 -31.2 -33.1 -30.8 -33.2 -30.8 -33.15 -30.75 -33.65 -29.5 -33.75 -29.55 -33.95 -30.1 -34.15 -30.45 -34.5 -30.7 -35.25 -30.95 -35.65 -30.95 -35.95 -30.95 -35.75 -31.45 -36.05 -32.2 -36.4 -32.6 -36.75 -32.8 -37.5 -33.05 -37.9 -33.2 -38.3 -33.7 -38.25 -33.95 -38.55 -34.7 -38.9 -35.1 -39.25 -35.35 -39.6 -35.4 -39.75 -35.6 -40.15 -35.7 -40.4 -35.8 M-22.15 -42.45 L-21.75 -42.35 -21.2 -41.3 -21.15 -40.85 -21.25 -40.3 -21.25 -40.45 -21.9 -42.05 -22.15 -42.45 M-35.0 -26.4 L-35.05 -26.2 -35.4 -26.05 -35.45 -26.1 -35.6 -26.45 -35.0 -26.4 M-37.1 351.8 L-37.25 351.8 -38.85 352.45 -39.25 352.75 -39.15 352.3 -38.1 351.75 -37.65 351.7 -37.1 351.8 M-39.25 369.25 L-38.75 369.3 -38.75 369.25 -37.95 368.95 -37.5 368.7 -37.35 365.8 -36.8 364.15 Q-36.45 362.75 -37.0 361.5 L-36.8 357.85 -36.45 357.2 -36.0 356.45 -34.95 356.0 -34.5 355.7 -34.15 355.3 -33.9 354.95 -33.8 354.55 -33.75 354.2 -33.75 353.8 -34.05 353.5 -35.25 352.8 -35.4 352.7 -35.55 352.45 -35.65 352.3 -33.75 352.8 -33.25 352.65 -33.25 352.7 -33.25 353.45 -33.1 353.8 -32.9 354.2 -32.75 354.55 -32.75 354.95 -32.75 355.3 -32.75 355.7 -32.75 356.05 -32.55 356.45 -32.3 357.2 -32.25 357.55 -32.25 357.95 -31.95 358.7 Q-31.35 360.15 -30.35 361.3 L-29.75 361.95 -29.7 362.1 -29.45 362.25 -28.0 363.55 -27.6 363.7 -27.55 363.7 -26.3 364.25 -26.35 364.3 -26.9 364.5 -27.25 364.7 -27.5 365.05 -27.75 365.8 -27.75 366.2 -27.75 366.5 -28.25 366.3 -29.0 366.6 -29.4 366.95 -29.6 367.3 -29.85 368.05 -30.0 368.45 -30.5 368.85 -30.75 368.8 -31.5 369.1 -31.9 369.45 -32.15 369.8 -32.2 370.15 -32.4 370.3 -32.5 370.7 -32.6 371.0 -39.25 370.05 -39.25 369.7 -39.25 369.3 -39.25 369.25 M-23.2 365.55 L-23.0 365.6 -22.85 366.0 -22.9 366.0 -23.25 366.15 -23.2 365.55" fill="#ffcc00" fill-rule="evenodd" stroke="none"/>
    <path d="M499.0 -35.95 L498.7 -36.15 498.4 -36.95 498.4 -37.25 498.45 -37.85 498.1 -37.7 498.05 -37.65 497.45 -37.5 Q496.8 -37.65 496.2 -37.95 L495.45 -38.5 495.55 -39.25 495.95 -40.4 496.1 -40.75 496.45 -41.15 496.85 -41.5 496.95 -41.9 497.1 -42.25 498.6 -43.75 Q499.25 -44.45 499.95 -44.5 L500.7 -44.2 501.1 -43.9 501.3 -43.5 501.3 -43.45 501.35 -43.4 501.45 -43.45 Q502.4 -44.2 503.45 -44.5 L504.45 -44.35 505.25 -44.05 506.45 -44.5 507.15 -44.15 507.85 -43.55 507.85 -43.5 507.9 -43.15 507.7 -42.4 507.6 -42.0 507.4 -41.85 507.35 -41.5 507.1 -41.15 506.7 -40.8 505.95 -40.5 505.7 -40.55 505.2 -40.15 505.05 -39.75 504.8 -39.0 504.6 -38.65 504.2 -38.3 503.45 -38.0 502.95 -38.2 502.95 -37.9 502.95 -37.5 502.7 -36.75 502.45 -36.4 502.1 -36.2 501.55 -36.0 501.35 -35.75 501.1 -35.65 500.45 -35.5 500.0 -35.55 499.15 -35.85 499.0 -35.95 M511.85 352.05 Q512.1 357.15 511.6 362.1 L511.35 362.0 510.95 361.9 510.8 361.7 510.45 361.65 510.1 361.4 509.75 361.0 509.45 360.25 509.5 360.0 509.1 359.5 508.7 359.35 507.95 359.1 507.6 358.9 507.25 358.5 506.95 357.75 507.15 357.25 506.85 357.25 506.45 357.25 505.7 357.0 505.35 356.75 505.15 356.4 504.95 355.85 504.85 355.8 505.05 355.45 506.2 352.7 506.8 352.75 506.65 352.4 506.6 352.35 509.45 352.0 511.7 351.9 511.85 352.05 M-40.5 -25.6 L-40.65 -25.75 Q-40.9 -30.85 -40.4 -35.8 L-40.15 -35.7 -39.75 -35.6 -39.6 -35.4 -39.25 -35.35 -38.9 -35.1 -38.55 -34.7 -38.25 -33.95 -38.3 -33.7 -37.9 -33.2 -37.5 -33.05 -36.75 -32.8 -36.4 -32.6 -36.05 -32.2 -35.75 -31.45 -35.95 -30.95 -35.65 -30.95 -35.25 -30.95 -34.5 -30.7 -34.15 -30.45 -33.95 -30.1 -33.75 -29.55 -33.65 -29.5 -33.85 -29.15 -35.0 -26.4 -35.6 -26.45 -35.45 -26.1 -35.4 -26.05 -38.25 -25.7 -40.5 -25.6 M-26.3 364.25 L-25.95 364.4 -23.2 365.55 -23.25 366.15 -22.9 366.0 -22.85 366.0 Q-22.35 367.3 -22.5 368.8 -22.65 370.05 -22.4 371.1 L-22.55 371.2 Q-27.65 371.45 -32.6 371.0 L-32.5 370.7 -32.4 370.3 -32.2 370.15 -32.15 369.8 -31.9 369.45 -31.5 369.1 -30.75 368.8 -30.5 368.85 -30.0 368.45 -29.85 368.05 -29.6 367.3 -29.4 366.95 -29.0 366.6 -28.25 366.3 -27.75 366.5 -27.75 366.2 -27.75 365.8 -27.5 365.05 -27.25 364.7 -26.9 364.5 -26.35 364.3 -26.3 364.25" fill="#ffd735" fill-rule="evenodd" stroke="none"/>
    <path d="M516.45 -38.9 L516.3 -38.5 516.1 -38.15 515.95 -38.0 515.95 -37.65 515.6 -36.8 Q515.35 -34.65 515.25 -32.4 L515.7 -32.2 516.1 -31.9 Q516.65 -30.85 516.65 -29.65 516.65 -28.4 515.95 -27.4 L515.95 -27.0 515.95 -26.65 515.95 -26.25 Q515.35 -24.95 514.05 -24.15 L512.45 -23.5 512.0 -23.55 511.1 -23.75 510.75 -24.15 510.6 -24.4 510.45 -24.5 509.25 -25.2 508.95 -25.5 508.95 -25.9 509.0 -26.25 509.1 -26.65 509.35 -27.0 509.7 -27.4 510.15 -27.7 511.2 -28.15 511.65 -28.9 512.0 -29.55 512.2 -33.2 Q511.65 -34.45 512.0 -35.85 L512.55 -37.5 512.7 -40.4 513.15 -40.65 513.95 -40.95 513.95 -41.0 514.45 -40.95 515.2 -40.7 515.7 -40.4 516.05 -39.95 516.25 -39.65 516.4 -39.25 516.45 -38.9 M509.9 368.75 L509.6 368.75 509.2 368.9 508.8 369.1 508.45 369.25 507.35 369.3 503.95 369.25 503.6 369.25 503.2 369.25 502.85 369.25 502.1 369.25 500.95 369.25 500.6 369.25 500.2 369.4 499.8 369.6 499.45 369.75 499.1 369.75 498.7 369.75 498.35 369.75 497.95 369.75 497.6 369.75 497.2 369.75 496.85 369.75 496.45 369.6 496.05 369.4 495.7 369.25 494.95 369.25 494.6 369.25 494.45 369.25 494.05 369.0 493.35 368.75 493.1 368.35 492.45 366.75 492.45 366.6 492.55 366.3 492.95 365.15 493.1 365.05 493.35 364.9 493.45 364.75 494.15 363.55 494.45 363.25 494.85 363.25 495.2 363.3 495.6 363.4 495.95 363.65 496.35 364.0 496.65 364.45 497.1 365.5 497.85 365.95 498.5 366.3 502.15 366.5 504.8 366.3 506.45 366.85 509.35 367.0 509.6 367.45 509.9 368.25 509.95 368.25 509.9 368.75 M-38.7 -42.45 L-38.4 -42.45 -38.0 -42.6 -37.6 -42.8 -37.25 -42.95 -36.15 -43.0 -32.75 -42.95 -32.4 -42.95 -32.0 -42.95 -31.65 -42.95 -30.9 -42.95 -29.75 -42.95 -29.4 -42.95 -29.0 -43.1 -28.6 -43.3 -28.25 -43.45 -27.9 -43.45 -27.5 -43.45 -27.15 -43.45 -26.75 -43.45 -26.4 -43.45 -26.0 -43.45 -25.65 -43.45 -25.25 -43.3 -24.85 -43.1 -24.5 -42.95 -23.75 -42.95 -23.4 -42.95 -23.25 -42.95 -22.85 -42.7 -22.15 -42.45 -21.9 -42.05 -21.25 -40.45 -21.25 -40.3 -21.35 -40.0 -21.75 -38.85 -21.9 -38.75 -22.15 -38.6 -22.25 -38.45 -22.95 -37.25 -23.25 -36.95 -23.65 -36.95 -24.0 -37.0 -24.4 -37.1 -24.75 -37.35 -25.15 -37.7 -25.45 -38.15 -25.9 -39.2 -26.65 -39.65 -27.3 -40.0 -30.95 -40.2 -33.6 -40.0 -35.25 -40.55 -38.15 -40.7 -38.4 -41.15 -38.7 -41.95 -38.75 -41.95 -38.7 -42.45 M-37.1 351.8 L-36.8 351.9 -35.65 352.3 -35.55 352.45 -35.4 352.7 -35.25 352.8 -34.05 353.5 -33.75 353.8 -33.75 354.2 -33.8 354.55 -33.9 354.95 -34.15 355.3 -34.5 355.7 -34.95 356.0 -36.0 356.45 -36.45 357.2 -36.8 357.85 -37.0 361.5 Q-36.45 362.75 -36.8 364.15 L-37.35 365.8 -37.5 368.7 -37.95 368.95 -38.75 369.25 -38.75 369.3 -39.25 369.25 -39.25 368.95 -39.4 368.55 -39.6 368.15 -39.75 367.8 -39.8 366.7 -39.75 363.3 -39.75 362.95 -39.75 362.55 -39.75 362.2 -39.75 361.45 -39.75 360.3 -39.75 359.95 -39.9 359.55 -40.1 359.15 -40.25 358.8 -40.25 358.45 -40.25 358.05 -40.25 357.7 -40.25 357.3 -40.25 356.95 -40.25 356.55 -40.25 356.2 -40.1 355.8 -39.9 355.4 -39.75 355.05 -39.75 354.3 -39.75 353.95 -39.75 353.8 -39.5 353.4 -39.25 352.75 -38.85 352.45 -37.25 351.8 -37.1 351.8" fill="#ecbd00" fill-rule="evenodd" stroke="none"/>
    <path d="M511.85 352.05 L511.85 351.9 511.7 351.9 509.45 352.0 506.6 352.35 506.25 352.5 506.2 352.7 505.05 355.45 504.85 355.8 504.35 357.05 504.3 357.1 504.2 357.5 502.85 358.95 502.6 359.25 501.95 359.85 Q500.8 360.85 499.35 361.45 L498.6 361.75 498.2 361.75 497.85 361.8 497.1 362.05 496.7 362.25 496.35 362.25 495.95 362.25 495.6 362.25 495.2 362.25 494.85 362.4 494.45 362.6 494.1 362.75 493.35 362.75 493.3 362.75 493.45 363.25 492.95 365.15 492.55 366.3 492.45 366.6 492.35 367.15 492.4 367.6 492.95 368.65 493.35 368.75 494.05 369.0 494.45 369.25 494.6 369.25 494.95 369.25 495.7 369.25 496.05 369.4 496.45 369.6 496.85 369.75 497.2 369.75 497.6 369.75 497.95 369.75 498.35 369.75 498.7 369.75 499.1 369.75 499.45 369.75 499.8 369.6 500.2 369.4 500.6 369.25 500.95 369.25 502.1 369.25 502.85 369.25 503.2 369.25 503.6 369.25 503.95 369.25 507.35 369.3 508.45 369.25 508.8 369.1 509.2 368.9 509.6 368.75 509.9 368.75 509.95 368.75 510.35 368.75 510.7 368.75 511.6 362.1 Q512.1 357.15 511.85 352.05 M511.75 348.45 L511.75 348.35 513.45 349.75 515.4 351.3 515.45 355.0 Q515.6 363.05 513.3 370.35 L512.85 371.4 512.45 371.6 512.05 371.75 511.7 371.75 511.35 371.8 510.95 371.9 510.6 372.05 510.2 372.25 509.45 372.25 507.95 372.25 507.6 372.25 507.2 372.25 506.85 372.25 502.7 372.25 Q501.85 372.25 501.2 372.75 L500.85 372.75 499.7 372.75 498.95 372.75 498.6 372.75 498.2 372.75 497.85 372.8 495.2 372.45 494.85 372.25 494.45 372.25 494.1 372.25 493.7 372.25 493.35 372.25 492.95 372.25 492.6 372.25 492.2 372.25 491.8 372.05 491.5 371.85 491.2 371.65 491.1 371.45 491.0 371.35 489.85 370.25 Q488.15 366.55 490.2 362.9 L490.9 362.2 490.75 362.0 490.45 361.25 490.8 360.45 491.1 360.0 491.45 359.85 491.85 359.75 492.2 359.75 492.6 359.75 492.95 359.6 493.35 359.4 493.7 359.25 494.1 359.25 494.45 359.25 494.85 359.25 495.2 359.25 495.6 359.0 495.95 358.75 496.35 358.75 496.7 358.75 497.1 358.75 497.45 358.75 499.05 357.95 500.5 356.7 501.45 355.65 502.45 352.85 502.95 351.45 502.95 351.25 503.05 350.8 503.6 349.5 503.95 349.35 504.7 349.25 505.45 349.25 505.8 349.1 506.2 348.9 506.6 348.75 508.45 348.75 511.1 348.75 511.45 348.6 511.75 348.45 M-41.25 -45.3 L-40.85 -45.45 -40.5 -45.45 -40.15 -45.5 -39.75 -45.6 -39.4 -45.75 -39.0 -45.95 -38.25 -45.95 -36.75 -45.95 -36.4 -45.95 -36.0 -45.95 -35.65 -45.95 -31.5 -45.95 Q-30.65 -45.95 -30.0 -46.45 L-29.65 -46.45 -28.5 -46.45 -27.75 -46.45 -27.4 -46.45 -27.0 -46.45 -26.65 -46.5 -24.0 -46.15 -23.65 -45.95 -23.25 -45.95 -22.9 -45.95 -22.5 -45.95 -22.15 -45.95 -21.75 -45.95 -21.4 -45.95 -21.0 -45.95 -20.6 -45.75 -20.3 -45.55 -20.0 -45.35 -19.9 -45.15 -19.8 -45.05 -18.65 -43.95 Q-16.95 -40.25 -19.0 -36.6 L-19.7 -35.9 -19.55 -35.7 -19.25 -34.95 -19.6 -34.15 -19.9 -33.7 Q-20.05 -33.6 -20.25 -33.55 L-20.65 -33.45 -21.0 -33.45 -21.4 -33.45 -21.75 -33.3 -22.15 -33.1 -22.5 -32.95 -22.9 -32.95 -23.25 -32.95 -23.65 -32.95 -24.0 -32.95 -24.4 -32.7 -24.75 -32.45 -25.15 -32.45 -25.5 -32.45 -25.9 -32.45 -26.25 -32.45 -27.85 -31.65 -29.3 -30.4 -30.25 -29.35 -31.25 -26.55 -31.75 -25.15 -31.75 -24.95 -31.85 -24.5 -32.4 -23.2 -32.75 -23.05 -33.5 -22.95 -34.25 -22.95 -34.6 -22.8 -35.0 -22.6 -35.4 -22.45 -37.25 -22.45 -39.9 -22.45 -40.25 -22.3 -40.55 -22.15 -40.55 -22.05 -42.25 -23.45 -44.2 -25.0 -44.25 -28.7 Q-44.4 -36.75 -42.1 -44.05 L-41.65 -45.1 -41.25 -45.3 M-40.65 -25.75 L-40.65 -25.6 -40.5 -25.6 -38.25 -25.7 -35.4 -26.05 -35.05 -26.2 -35.0 -26.4 -33.85 -29.15 -33.65 -29.5 -33.15 -30.75 -33.1 -30.8 -33.0 -31.2 -31.65 -32.65 -31.4 -32.95 -30.75 -33.55 Q-29.6 -34.55 -28.15 -35.15 L-27.4 -35.45 -27.0 -35.45 -26.65 -35.5 -25.9 -35.75 -25.5 -35.95 -25.15 -35.95 -24.75 -35.95 -24.4 -35.95 -24.0 -35.95 -23.65 -36.1 -23.25 -36.3 -22.9 -36.45 -22.15 -36.45 -22.1 -36.45 -22.25 -36.95 -21.75 -38.85 -21.35 -40.0 -21.25 -40.3 -21.15 -40.85 -21.2 -41.3 -21.75 -42.35 -22.15 -42.45 -22.85 -42.7 -23.25 -42.95 -23.4 -42.95 -23.75 -42.95 -24.5 -42.95 -24.85 -43.1 -25.25 -43.3 -25.65 -43.45 -26.0 -43.45 -26.4 -43.45 -26.75 -43.45 -27.15 -43.45 -27.5 -43.45 -27.9 -43.45 -28.25 -43.45 -28.6 -43.3 -29.0 -43.1 -29.4 -42.95 -29.75 -42.95 -30.9 -42.95 -31.65 -42.95 -32.0 -42.95 -32.4 -42.95 -32.75 -42.95 -36.15 -43.0 -37.25 -42.95 -37.6 -42.8 -38.0 -42.6 -38.4 -42.45 -38.7 -42.45 -38.75 -42.45 -39.15 -42.45 -39.5 -42.45 -40.4 -35.8 Q-40.9 -30.85 -40.65 -25.75 M-41.85 350.35 L-40.75 349.2 Q-37.05 347.5 -33.4 349.55 L-32.7 350.25 -32.5 350.1 -31.75 349.8 -30.95 350.15 Q-30.7 350.25 -30.5 350.45 L-30.35 350.8 -30.25 351.2 -30.25 351.55 -30.25 351.95 -30.1 352.3 -29.9 352.7 -29.75 353.05 -29.75 353.45 -29.75 353.8 -29.75 354.2 -29.75 354.55 -29.5 354.95 -29.25 355.3 -29.25 355.7 -29.25 356.05 -29.25 356.45 -29.25 356.8 -28.45 358.4 -27.2 359.85 -26.15 360.8 -23.35 361.8 Q-22.55 361.95 -21.95 362.3 L-21.75 362.3 -21.3 362.4 -20.0 362.95 -19.85 363.3 -19.75 364.05 -19.75 364.8 -19.6 365.15 -19.4 365.55 -19.25 365.95 -19.25 367.8 -19.25 370.45 -19.1 370.8 -18.95 371.1 -18.85 371.1 -20.25 372.8 -21.8 374.75 -25.5 374.8 Q-33.55 374.95 -40.85 372.65 L-41.9 372.2 -42.1 371.8 -42.25 371.4 -42.25 371.05 -42.3 370.7 -42.4 370.3 -42.55 369.95 -42.75 369.55 -42.75 368.8 -42.75 367.3 -42.75 366.95 -42.75 366.55 -42.75 366.2 -42.75 362.05 Q-42.75 361.2 -43.25 360.55 L-43.25 360.2 -43.25 359.05 -43.25 358.3 -43.25 357.95 -43.25 357.55 -43.3 357.2 Q-43.4 355.8 -42.95 354.55 L-42.75 354.2 -42.75 353.8 -42.75 353.45 -42.75 353.05 -42.75 352.7 -42.75 352.3 -42.75 351.95 -42.75 351.55 -42.55 351.15 -42.35 350.85 -42.15 350.55 -41.95 350.45 -41.85 350.35 M-35.65 352.3 L-36.8 351.9 -37.1 351.8 -37.65 351.7 -38.1 351.75 -39.15 352.3 -39.25 352.75 -39.5 353.4 -39.75 353.8 -39.75 353.95 -39.75 354.3 -39.75 355.05 -39.9 355.4 -40.1 355.8 -40.25 356.2 -40.25 356.55 -40.25 356.95 -40.25 357.3 -40.25 357.7 -40.25 358.05 -40.25 358.45 -40.25 358.8 -40.1 359.15 -39.9 359.55 -39.75 359.95 -39.75 360.3 -39.75 361.45 -39.75 362.2 -39.75 362.55 -39.75 362.95 -39.75 363.3 -39.8 366.7 -39.75 367.8 -39.6 368.15 -39.4 368.55 -39.25 368.95 -39.25 369.25 -39.25 369.3 -39.25 369.7 -39.25 370.05 -32.6 371.0 Q-27.65 371.45 -22.55 371.2 L-22.4 371.2 -22.4 371.1 Q-22.65 370.05 -22.5 368.8 -22.35 367.3 -22.85 366.0 L-23.0 365.6 -23.2 365.55 -25.95 364.4 -26.3 364.25 -27.55 363.7 -27.6 363.7 -28.0 363.55 -29.45 362.25 -29.75 361.95 -30.35 361.3 Q-31.35 360.15 -31.95 358.7 L-32.25 357.95 -32.25 357.55 -32.3 357.2 -32.55 356.45 -32.75 356.05 -32.75 355.7 -32.75 355.3 -32.75 354.95 -32.75 354.55 -32.9 354.2 -33.1 353.8 -33.25 353.45 -33.25 352.7 -33.25 352.65 -33.75 352.8 -35.65 352.3" fill="#000000" fill-rule="evenodd" stroke="none"/>
    <path d="M517.3 -43.5 L517.45 -43.1 517.45 -42.75 517.5 -42.4 517.6 -42.0 517.75 -41.65 517.95 -41.25 517.95 -40.5 517.95 -39.0 517.95 -38.65 517.95 -38.25 517.95 -37.9 517.95 -33.75 Q517.95 -32.9 518.45 -32.25 L518.45 -31.9 518.45 -30.75 518.45 -30.0 518.45 -29.65 518.45 -29.25 518.5 -28.9 Q518.6 -27.5 518.15 -26.25 L517.95 -25.9 517.95 -25.5 517.95 -25.15 517.95 -24.75 517.95 -24.4 517.95 -24.0 517.95 -23.65 517.95 -23.25 517.75 -22.85 517.55 -22.55 517.35 -22.25 517.15 -22.15 517.05 -22.05 515.95 -20.9 Q512.25 -19.2 508.6 -21.25 L507.9 -21.95 507.7 -21.8 506.95 -21.5 506.15 -21.85 505.7 -22.15 505.55 -22.5 505.45 -22.9 505.45 -23.25 505.45 -23.65 505.3 -24.0 505.1 -24.4 504.95 -24.75 504.95 -25.15 504.95 -25.5 504.95 -25.9 504.95 -26.25 504.7 -26.65 504.45 -27.0 504.45 -27.4 504.45 -27.75 504.45 -28.15 504.45 -28.5 503.65 -30.1 502.4 -31.55 501.35 -32.5 498.55 -33.5 497.15 -34.0 496.95 -34.0 496.5 -34.1 495.2 -34.65 495.05 -35.0 494.95 -35.75 494.95 -36.5 494.8 -36.85 494.6 -37.25 494.45 -37.65 494.45 -39.5 494.45 -42.15 494.3 -42.5 494.15 -42.8 494.05 -42.8 495.45 -44.5 497.0 -46.45 500.7 -46.5 Q508.75 -46.65 516.05 -44.35 L517.1 -43.9 517.3 -43.5 M514.95 -39.5 L514.8 -39.85 514.6 -40.25 514.45 -40.65 514.45 -41.0 514.45 -41.4 514.45 -41.75 Q506.2 -43.3 497.6 -42.9 497.85 -41.8 497.7 -40.5 497.55 -38.8 498.2 -37.3 L501.15 -36.1 Q502.15 -35.6 503.2 -35.25 L505.55 -33.0 Q506.55 -31.85 507.15 -30.4 L507.45 -29.65 507.45 -29.25 507.5 -28.9 507.75 -28.15 507.95 -27.75 507.95 -27.4 507.95 -27.0 507.95 -26.65 507.95 -26.25 508.1 -25.9 508.3 -25.5 508.45 -25.15 508.45 -24.4 508.45 -24.35 508.95 -24.5 512.0 -23.6 512.85 -23.4 513.3 -23.45 514.35 -24.0 Q514.45 -24.55 514.7 -25.1 L514.95 -25.5 514.95 -25.65 514.95 -26.0 514.95 -26.75 515.1 -27.1 515.3 -27.5 515.45 -27.9 515.45 -28.25 515.45 -28.65 515.45 -29.0 515.45 -29.4 515.45 -29.75 515.45 -30.15 515.45 -30.5 515.3 -30.85 515.1 -31.25 514.95 -31.65 514.95 -32.0 514.95 -33.15 514.95 -33.9 514.95 -34.25 514.95 -34.65 514.95 -35.0 515.0 -38.4 514.95 -39.5" fill="#000000" fill-rule="evenodd" stroke="none"/>
  </g>
</svg>
