<?xml version="1.0" encoding="UTF-8" standalone="no"?>
<svg xmlns:ffdec="https://www.free-decompiler.com/flash" xmlns:xlink="http://www.w3.org/1999/xlink" ffdec:objectType="shape" height="77.3px" width="59.5px" xmlns="http://www.w3.org/2000/svg">
  <g transform="matrix(1.0, 0.0, 0.0, 1.0, 236.2, 58.2)">
    <path d="M-211.9 -37.35 Q-208.75 -38.05 -206.05 -36.55 L-202.05 -33.7 -201.35 -32.65 Q-200.4 -31.2 -199.7 -29.55 L-198.05 -25.1 -198.05 -24.7 -198.05 -24.35 -198.05 -23.6 -198.05 -23.2 -198.05 -22.85 -198.05 -22.45 -197.9 -22.1 -197.8 -21.7 -197.65 -21.35 -197.55 -20.95 -197.55 -20.6 -197.55 -19.45 -197.55 -17.95 -197.55 -16.1 -197.55 -15.7 -197.65 -15.35 -197.8 -14.95 -197.65 -14.6 -197.55 -14.2 -197.55 -13.85 -197.55 -13.45 -197.55 -13.1 -197.55 -12.7 -197.7 -12.35 -198.0 -11.6 -198.3 -10.9 -198.6 -9.7 -198.65 -9.35 -198.9 -8.95 -199.05 -8.75 -199.05 -8.1 -199.15 -7.7 -199.3 -7.35 -199.4 -6.95 -199.55 -6.6 -199.55 -6.2 -199.55 -5.85 -200.2 -3.95 Q-200.8 -2.4 -201.55 -0.95 L-202.9 1.65 -203.3 2.05 -204.1 2.7 -205.3 3.55 Q-213.85 11.35 -224.25 5.15 L-225.05 4.55 -225.3 4.15 -225.65 3.4 -226.1 2.7 -226.65 1.9 -226.75 1.55 -226.8 1.15 -226.8 0.8 -226.9 0.4 -227.05 0.05 -227.15 -0.35 -227.3 -0.7 -227.3 -1.45 -227.3 -2.95 -227.25 -4.45 -227.15 -5.2 -226.9 -5.6 -226.55 -5.95 -226.15 -6.3 -225.8 -6.6 -225.55 -6.7 -224.9 -6.85 -224.05 -6.6 -223.55 -6.2 -223.3 -5.85 -223.15 -5.45 -223.1 -5.1 -223.05 -4.7 -223.1 -4.35 -223.15 -3.95 -223.3 -3.6 -223.55 -3.2 -223.55 -2.85 -223.55 -2.45 -223.55 -2.1 -223.55 -1.7 -223.3 -1.1 -223.05 -1.15 -222.45 -1.3 -222.4 -1.35 -221.8 -1.15 -221.8 -1.7 -221.8 -2.45 -221.65 -2.85 -221.45 -3.25 -221.3 -3.6 -221.3 -3.95 -221.3 -4.7 -221.3 -5.45 -221.1 -5.8 -220.4 -6.6 -220.05 -6.95 -219.55 -7.15 -218.95 -7.3 -218.9 -7.35 -218.05 -7.1 -217.55 -6.7 -217.3 -6.35 -217.15 -5.95 -217.05 -5.6 -217.05 -5.2 -217.05 -4.85 -217.05 -4.45 -217.15 -4.1 -217.3 -3.7 -217.55 -2.95 -217.55 -2.6 -217.55 -2.2 -217.7 -1.85 -217.9 -1.45 -218.05 -1.1 -218.05 -0.7 -218.0 -0.35 -217.9 0.4 -217.6 0.7 -216.9 1.1 -216.05 1.4 -215.55 1.8 -215.4 1.95 -214.5 1.3 -213.3 0.55 -213.0 -0.25 -212.45 -1.75 -212.3 -2.1 -212.3 -2.45 -212.3 -3.2 -212.15 -4.35 -211.8 -4.7 -211.3 -5.1 -210.45 -5.25 -210.4 -5.35 -209.55 -5.1 -209.05 -4.7 -208.8 -4.35 -208.65 -3.95 -208.55 -3.6 -208.55 -2.85 -208.55 -1.7 -208.55 -0.95 -208.6 -0.75 -208.4 -0.75 -207.55 -0.6 -207.05 -0.2 -206.8 0.15 -206.3 -0.2 -205.4 -1.7 -204.25 -4.4 -203.3 -6.6 -203.3 -6.85 -203.8 -7.25 -204.15 -7.6 -204.25 -7.95 -204.3 -8.35 -204.3 -8.7 -204.4 -9.1 -205.05 -9.4 -206.8 -9.9 Q-208.1 -10.2 -208.65 -11.35 L-208.75 -11.7 -208.8 -12.1 -208.75 -12.45 -208.65 -12.85 -208.3 -13.2 -207.8 -13.6 -206.95 -13.8 -206.9 -13.85 -206.2 -13.75 -206.15 -13.85 -205.7 -14.6 -205.3 -15.35 -205.3 -15.7 -205.25 -16.1 -205.15 -16.85 -204.8 -17.2 -204.3 -17.6 -203.9 -17.65 -204.15 -18.25 -204.75 -19.3 -205.4 -20.85 -205.8 -21.2 -206.15 -21.6 -206.55 -22.15 -207.15 -20.95 -207.3 -20.6 -207.55 -20.25 -208.05 -19.85 -208.9 -19.6 -209.8 -19.85 -210.3 -20.25 -210.65 -20.6 -210.75 -21.0 -210.8 -21.7 -210.8 -22.45 -210.5 -23.25 -210.45 -23.4 -211.05 -23.95 -211.4 -24.35 -212.1 -25.8 Q-212.4 -26.85 -213.15 -27.75 L-213.4 -28.1 -214.0 -28.5 -214.4 -28.85 -214.7 -29.6 -214.7 -30.7 -214.6 -31.1 -214.8 -31.25 -215.15 -31.65 -215.3 -31.95 -215.3 -32.35 -215.25 -32.7 -215.15 -33.1 -215.0 -33.45 -214.65 -33.85 -214.3 -34.2 -213.8 -34.7 -213.8 -34.85 -213.8 -35.2 -213.8 -35.6 -213.75 -35.95 -213.65 -36.35 -213.3 -36.7 -212.8 -37.1 -211.95 -37.3 -211.9 -37.35 M-211.15 -31.25 L-210.65 -30.8 -210.75 -31.05 -211.15 -31.25 M-209.3 -29.35 L-209.8 -29.75 -209.35 -29.15 -209.3 -29.2 -209.15 -29.3 -209.3 -29.35 M-206.05 -26.1 L-206.05 -24.4 -205.8 -24.6 -205.25 -24.7 -205.55 -24.95 -205.7 -25.35 -205.9 -25.75 -206.05 -26.1 M-221.2 2.7 L-221.3 2.5 -221.35 2.6 -221.2 2.7" fill="#ff6600" fill-rule="evenodd" stroke="none"/>
    <path d="M-196.9 -56.05 Q-194.0 -56.95 -191.95 -58.2 -190.2 -58.1 -188.65 -57.45 -188.05 -57.2 -187.7 -56.45 L-187.85 -55.8 Q-188.3 -54.95 -189.0 -54.25 L-189.95 -53.45 -190.4 -52.7 -190.7 -51.95 -190.95 -51.2 -191.95 -50.45 -192.45 -49.65 -193.75 -46.75 -194.7 -45.2 -194.7 -44.45 -194.7 -43.7 -194.7 -42.2 -195.05 -41.5 -195.7 -40.7 -195.7 -39.95 -195.7 -37.7 -195.7 -36.2 -195.55 -35.5 -194.85 -33.9 -194.7 -33.2 -194.05 -32.4 -193.7 -31.7 -193.45 -30.95 -191.85 -29.55 Q-189.6 -27.85 -186.95 -26.7 L-177.5 -25.65 -176.7 -25.2 Q-177.65 -23.85 -178.2 -22.3 -179.15 -19.9 -180.75 -17.75 -181.55 -16.65 -181.95 -15.45 L-182.7 -14.7 -183.4 -13.9 -183.95 -13.2 -187.05 -12.1 Q-190.25 -11.3 -191.7 -9.45 -191.7 -9.05 -191.85 -8.75 L-192.35 -7.9 -192.7 -7.2 -192.7 -6.45 -192.7 -4.95 -192.7 -3.45 -192.8 -2.75 -193.2 -1.95 -193.7 -1.2 -193.55 -0.5 -193.05 0.35 -192.7 1.05 -192.7 1.8 -192.7 4.05 -192.7 5.55 -191.9 6.2 -190.45 7.05 Q-185.05 7.15 -180.7 8.8 L-180.75 9.55 -181.25 11.05 -181.7 11.8 -181.7 12.55 -181.7 13.3 -182.4 14.1 Q-184.0 16.1 -186.35 17.25 L-186.95 17.8 -193.0 19.0 -195.7 19.05 Q-197.05 18.3 -198.5 17.7 -200.55 16.8 -202.7 16.05 L-203.45 15.3 -204.95 13.8 -205.7 13.05 -206.1 12.3 -206.2 11.55 -206.2 10.8 Q-209.5 10.75 -212.75 13.25 L-216.7 16.3 Q-217.1 16.7 -217.45 16.7 L-220.2 16.3 -220.2 15.55 -220.2 14.8 -220.2 13.3 -220.35 12.65 -220.85 11.75 -221.2 11.05 -221.2 10.3 -221.2 8.05 -221.2 6.55 Q-227.9 3.35 -236.15 2.3 L-236.2 2.3 -236.05 1.65 -235.45 0.8 -234.7 0.05 -224.0 -2.8 -222.95 -3.2 -219.5 -2.65 -218.7 -2.2 -218.7 -1.45 -218.65 -0.75 -218.55 -0.5 -217.85 1.1 Q-217.7 1.45 -217.7 1.8 L-217.05 2.6 -216.7 3.3 -216.45 4.05 -215.7 4.35 -210.45 4.55 -209.45 3.8 Q-207.7 2.35 -205.5 1.4 -204.95 1.2 -204.45 0.8 L-204.15 0.1 -203.3 -1.5 -202.65 -2.9 -202.2 -3.7 -202.2 -4.45 -202.2 -5.2 -202.2 -6.7 -202.2 -8.2 -202.75 -8.9 -203.45 -9.7 -204.85 -11.25 -205.2 -11.95 -204.8 -12.55 -202.9 -14.1 -199.95 -15.7 -199.2 -16.45 -198.45 -17.2 -197.75 -18.0 -197.2 -18.7 -197.2 -19.45 -197.2 -20.95 -197.2 -23.2 -197.2 -24.7 -197.35 -25.35 -197.85 -26.25 -198.2 -26.95 -198.2 -27.7 -198.2 -28.45 -198.95 -29.2 -199.7 -29.95 -200.15 -30.7 -200.45 -31.45 -201.9 -32.25 -204.0 -33.65 -204.95 -34.2 -205.2 -34.3 -207.95 -34.2 -209.45 -33.45 Q-209.55 -33.05 -209.8 -32.75 L-210.4 -31.9 -210.95 -31.2 -211.95 -30.9 -213.6 -31.15 -214.05 -31.5 Q-215.35 -31.05 -216.7 -30.95 L-217.5 -31.6 -219.95 -33.2 -220.7 -33.95 -222.2 -35.45 -222.95 -36.2 Q-223.85 -36.55 -224.6 -37.1 L-225.2 -37.7 -225.2 -38.45 -225.1 -39.95 -224.95 -40.7 -212.2 -41.2 -211.65 -41.9 -210.95 -42.7 -210.2 -43.45 -210.1 -44.15 -209.7 -44.95 -208.95 -45.7 -207.45 -47.2 -206.7 -47.95 -206.3 -48.75 -206.2 -49.45 -205.45 -50.2 -203.95 -51.7 -202.5 -52.55 Q-201.1 -53.45 -199.95 -54.7 -198.5 -55.55 -196.9 -56.05 M-197.35 -32.4 L-197.9 -33.45 -198.5 -33.15 -196.95 -31.5 -197.35 -32.4 M-208.2 7.05 L-208.95 7.3 -210.95 7.75 -210.6 8.5 -208.1 7.25 -208.2 7.05 M-226.45 1.75 L-225.9 0.95 -226.95 1.3 -226.45 1.75" fill="#ffcc00" fill-rule="evenodd" stroke="none"/>
  </g>
</svg>
