<?xml version="1.0" encoding="UTF-8" standalone="no"?>
<svg xmlns:ffdec="https://www.free-decompiler.com/flash" xmlns:xlink="http://www.w3.org/1999/xlink" ffdec:objectType="shape" height="419.1px" width="558.9px" xmlns="http://www.w3.org/2000/svg">
  <g transform="matrix(1.0, 0.0, 0.0, 1.0, -38.65, -30.6)">
    <path d="M147.7 60.3 L244.0 60.7 316.8 58.1 315.4 57.3 338.9 57.45 342.55 57.5 348.75 57.55 352.9 58.0 Q357.05 58.55 360.75 56.85 L390.95 57.25 390.95 56.7 409.1 56.5 427.25 55.7 433.2 55.45 475.3 55.25 477.55 55.25 479.4 55.55 485.55 56.05 Q493.2 56.55 500.95 56.15 L501.3 56.45 Q504.4 57.8 508.25 57.3 L510.25 57.3 514.75 57.3 520.4 56.95 524.55 56.1 562.3 55.5 565.1 58.4 565.35 60.35 563.55 65.8 573.7 65.25 573.3 64.45 586.7 62.7 586.7 53.35 586.7 52.75 586.6 51.15 586.3 49.1 Q585.15 44.65 587.9 41.35 L578.8 40.65 568.95 40.0 563.45 39.65 549.5 38.9 538.95 38.7 Q507.2 38.85 475.3 35.65 L468.4 34.95 Q456.7 34.6 445.0 34.75 L426.3 35.75 401.35 38.35 383.55 40.15 371.65 40.95 Q365.3 41.3 358.85 41.05 344.7 40.3 330.45 38.25 L315.5 37.75 307.35 37.7 280.0 35.9 264.2 35.7 255.8 34.7 Q240.75 34.45 225.75 35.0 L206.9 35.65 160.45 38.35 152.3 38.8 144.7 39.15 137.7 39.5 131.25 39.6 125.35 39.7 118.4 39.75 116.35 39.75 101.95 39.6 99.8 39.6 95.2 39.5 75.95 39.2 45.25 38.25 45.25 39.3 45.05 42.35 44.85 45.7 Q44.7 52.25 45.15 59.0 L45.35 62.55 45.45 63.55 45.7 67.35 Q45.95 69.75 45.65 72.25 L45.0 72.75 44.6 77.5 Q44.3 80.2 44.3 82.95 44.25 101.05 45.05 119.2 L45.3 125.35 Q45.7 136.95 46.45 148.55 L46.95 155.65 47.35 162.1 47.45 164.0 47.75 169.8 48.05 176.45 48.3 182.05 48.45 186.65 48.5 188.5 48.35 204.2 48.15 206.85 47.95 209.55 47.65 213.75 Q47.35 218.65 47.8 223.45 L48.15 223.85 48.0 225.1 Q51.25 228.1 55.55 228.95 L56.85 229.25 59.9 229.9 63.6 230.65 Q65.75 231.1 67.6 230.0 L67.85 225.25 67.35 224.55 67.5 219.0 Q68.5 217.8 68.8 215.55 L68.8 209.35 Q68.3 187.8 68.3 177.0 L68.05 168.9 67.85 164.0 67.8 160.8 Q67.8 156.55 66.4 155.15 L66.3 155.05 66.3 85.5 Q67.1 82.7 68.0 73.4 L68.8 63.5 68.7 59.85 68.75 59.75 142.75 59.5 147.7 60.3 M568.2 35.55 Q577.35 35.3 586.45 35.7 L589.1 35.95 Q593.25 36.05 596.85 38.05 597.75 38.55 597.5 39.7 L593.95 41.8 593.05 44.4 Q592.7 45.5 592.6 46.65 591.7 54.4 592.15 61.85 L590.95 62.5 589.6 66.0 585.0 65.45 584.65 66.0 583.2 66.85 581.65 67.25 583.55 67.35 581.9 69.0 582.1 69.5 581.35 69.7 582.45 70.85 Q585.25 72.05 587.95 73.75 L591.6 76.45 Q592.4 77.1 592.8 77.95 594.35 80.9 591.9 83.5 590.4 104.4 593.15 125.3 594.35 134.35 593.6 143.4 L592.2 157.0 591.45 164.0 Q590.75 172.75 591.15 181.45 591.5 190.05 591.3 198.55 590.85 217.1 591.35 235.75 591.95 256.55 590.0 277.25 589.1 286.9 588.55 296.55 L588.55 296.95 Q588.45 299.35 588.75 301.55 589.2 304.55 590.05 307.2 590.4 308.35 590.35 309.45 592.55 310.5 592.35 312.85 L591.9 317.7 591.2 325.35 Q590.45 334.05 590.3 342.65 L590.15 342.95 591.35 343.65 591.35 345.7 587.35 351.2 588.15 352.1 587.35 353.1 587.15 354.6 590.85 355.55 590.95 358.35 590.5 358.95 590.45 376.9 Q590.25 391.95 589.5 407.05 589.3 410.95 589.8 414.8 L591.65 430.5 592.2 435.9 592.55 441.1 Q592.65 443.55 590.6 445.0 L591.4 445.65 590.75 447.15 585.15 447.85 573.65 447.5 561.2 446.9 539.5 445.5 530.0 446.05 Q528.9 445.35 527.55 445.3 525.8 444.95 524.0 445.3 L522.3 445.7 521.85 445.9 519.05 442.75 518.95 442.25 516.9 440.35 516.6 439.6 516.15 439.45 515.65 439.55 514.95 439.85 514.05 439.8 514.05 439.85 514.0 440.1 513.95 440.35 513.85 440.6 513.7 440.85 513.75 440.9 514.35 441.05 513.6 441.3 512.25 443.05 512.0 446.15 511.4 445.8 503.45 446.0 500.2 446.85 487.75 447.65 460.0 448.85 Q436.2 450.45 412.5 448.95 407.8 448.45 403.3 447.35 394.55 445.35 385.3 444.8 L362.1 444.4 Q351.95 444.25 341.9 444.8 335.95 444.9 330.1 446.05 327.45 443.95 323.95 444.5 L309.5 446.4 263.65 448.3 Q257.75 448.4 251.85 448.15 L237.1 447.6 225.0 447.3 203.7 447.1 179.55 446.0 Q168.8 445.4 158.05 446.0 149.4 446.2 140.7 445.85 L130.4 445.35 123.25 444.25 118.75 443.5 Q116.35 446.1 112.95 446.2 L108.4 446.05 92.75 445.3 76.45 444.65 63.25 444.65 Q59.15 444.75 55.8 446.9 L55.65 447.55 49.3 447.25 Q46.45 447.15 43.65 446.25 42.85 446.1 42.3 445.55 41.05 444.5 41.2 443.8 L41.55 442.2 40.75 441.0 Q39.9 439.55 39.55 437.8 38.4 432.25 40.0 426.7 L41.4 422.3 Q42.75 418.5 43.2 414.3 43.5 411.45 43.4 408.6 L43.35 406.95 42.3 376.8 41.95 363.8 Q41.8 355.9 42.0 347.95 L42.5 327.95 43.05 305.8 43.1 296.95 42.85 286.85 Q42.75 284.8 41.45 283.4 43.0 275.5 42.55 267.55 L42.5 264.3 42.6 251.1 Q42.5 246.6 41.7 242.05 41.05 238.6 40.75 235.75 L42.4 235.85 42.7 235.6 43.0 235.55 43.45 235.15 43.85 234.75 46.45 233.8 46.35 234.7 52.9 231.7 Q48.15 229.4 44.6 225.3 L44.0 224.55 44.25 223.9 Q45.3 220.55 44.2 217.2 43.8 216.05 43.85 214.9 44.2 209.7 44.0 204.6 43.1 184.25 43.5 164.0 L43.65 157.7 44.2 132.85 Q44.3 127.1 44.55 121.2 44.7 117.45 43.2 114.15 42.45 112.45 40.6 112.25 L40.85 110.85 40.6 89.2 40.4 62.8 Q40.4 58.7 39.45 54.85 L38.65 34.55 39.05 34.0 41.95 34.35 Q42.65 33.75 43.65 33.75 49.85 33.45 55.5 33.9 L66.95 34.4 89.55 35.4 110.55 36.8 122.15 36.8 136.5 36.8 165.95 36.8 182.2 36.3 Q188.55 36.3 194.55 34.45 196.2 33.85 197.9 33.6 212.95 31.6 228.15 31.1 L242.15 30.65 267.35 31.55 276.4 31.7 283.95 32.6 289.8 33.45 303.0 34.7 321.0 35.2 339.9 35.55 356.8 36.65 Q369.8 37.35 382.7 35.95 L386.9 35.25 398.05 35.2 400.9 34.85 Q401.95 34.55 402.8 33.8 L410.65 33.6 429.4 32.9 447.3 32.4 465.45 32.05 Q475.15 31.9 484.6 32.5 L501.3 34.25 512.1 35.2 530.95 35.75 550.6 35.8 568.2 35.55 M574.75 70.25 L574.25 69.8 570.6 69.0 564.55 68.6 564.25 68.0 563.4 68.0 563.45 69.3 Q563.65 71.85 565.5 73.4 564.45 78.55 564.45 83.9 L564.55 133.05 563.7 134.25 563.3 135.45 Q563.05 137.75 563.15 140.15 L564.1 163.25 564.15 164.0 564.1 166.9 Q563.7 177.2 563.6 187.75 563.5 194.55 563.75 201.45 564.0 207.95 565.45 214.45 567.05 221.7 567.3 229.2 L568.3 252.5 568.3 257.6 Q567.8 264.75 566.25 272.1 565.8 274.3 565.85 276.6 L566.0 296.95 Q566.0 317.5 565.55 338.05 L565.15 345.2 Q564.5 351.85 564.75 358.55 L565.45 380.3 565.3 390.8 564.5 401.65 Q563.55 411.95 565.25 422.1 564.05 422.65 562.85 422.7 L517.95 423.15 511.9 423.85 Q507.4 425.15 508.95 429.4 L508.15 430.15 509.25 430.75 509.4 431.9 511.6 433.1 511.9 433.65 513.15 434.5 520.65 438.1 522.4 440.95 525.45 441.15 532.0 441.9 Q544.8 442.5 557.55 442.2 571.35 441.85 585.35 443.85 L586.0 442.35 586.45 440.75 Q587.15 436.2 585.45 431.8 588.35 423.75 585.3 416.0 L585.7 413.45 Q586.3 407.45 585.65 401.3 585.4 399.15 585.5 397.1 586.05 384.8 587.35 372.6 587.9 367.35 584.95 363.15 L585.0 359.1 582.3 361.2 579.65 362.1 579.65 363.1 576.05 365.25 574.75 367.8 574.7 368.35 574.05 369.2 573.8 363.6 575.55 361.6 580.55 353.6 580.55 352.85 582.8 350.1 583.25 347.8 Q587.65 342.55 588.05 335.5 L588.5 329.3 Q588.9 325.05 586.85 321.65 587.55 319.35 587.4 317.05 586.75 307.0 586.9 296.95 L587.2 287.2 587.7 272.25 Q587.85 265.2 588.5 258.7 L588.7 256.2 Q588.8 251.2 588.4 246.25 L587.2 227.2 Q586.9 222.1 586.95 217.1 587.15 203.1 588.35 189.05 589.4 176.55 589.45 164.0 L589.3 153.25 Q590.45 152.55 590.8 150.95 591.45 147.75 591.45 144.35 591.4 140.0 590.15 135.8 588.4 129.7 588.25 123.2 587.9 108.95 586.5 94.75 L586.5 92.2 Q587.0 85.05 588.35 77.85 L580.7 73.3 580.35 73.65 580.2 73.65 576.5 70.5 574.75 70.25 M556.25 65.35 L556.0 66.5 555.9 66.0 555.6 65.6 555.75 65.45 556.25 65.35 M560.3 147.05 L559.05 121.9 560.05 120.85 560.4 102.25 560.9 94.4 560.9 93.95 560.9 93.6 560.9 90.85 561.35 87.25 Q564.45 83.2 561.6 79.55 L561.1 79.0 562.0 59.6 549.75 59.5 548.6 58.85 Q542.5 56.25 535.75 57.45 L534.25 57.9 548.8 59.5 529.15 60.0 Q519.85 60.15 510.45 59.95 L491.45 59.35 480.9 58.9 461.4 58.7 Q451.65 58.65 441.9 58.9 432.15 59.1 422.4 59.45 L402.9 60.65 390.95 60.65 379.5 60.65 368.55 60.65 358.1 60.65 338.7 60.75 321.3 60.8 309.05 61.55 290.9 62.3 271.95 62.75 253.25 63.0 245.35 62.6 199.75 63.65 197.65 62.2 196.3 63.6 177.05 64.35 148.15 64.0 129.15 61.8 113.9 61.25 97.9 62.7 79.15 63.95 77.45 63.8 73.5 63.15 73.4 64.0 71.3 78.95 Q70.4 86.3 69.95 93.7 69.55 101.1 69.6 108.5 L70.05 123.3 70.45 132.6 70.85 144.8 71.1 156.9 71.2 164.0 71.25 169.0 71.35 181.1 Q71.45 187.25 71.7 193.4 72.1 203.1 72.8 212.85 73.4 220.9 73.3 229.1 L73.1 236.0 69.8 240.35 71.85 243.15 72.1 245.5 71.15 270.1 71.45 275.65 Q72.45 285.4 72.05 295.15 L72.0 296.95 71.3 311.45 Q70.8 319.7 70.95 327.95 L71.0 330.55 Q71.05 332.05 71.4 333.55 73.5 342.1 73.45 351.05 73.4 359.35 71.45 367.35 69.65 375.0 70.75 382.7 71.25 386.15 70.6 389.65 69.4 395.9 72.4 401.65 71.05 404.2 70.45 406.95 L70.05 409.1 Q69.3 414.7 69.6 420.4 85.45 422.5 101.55 423.35 115.45 424.0 129.5 423.65 L136.7 423.45 148.15 423.25 167.05 422.95 185.95 422.55 204.75 422.2 209.0 422.1 223.55 421.6 242.4 421.1 256.6 420.8 272.6 420.55 288.5 420.3 304.45 419.75 Q311.95 419.55 319.45 419.75 L337.25 420.7 355.05 422.0 355.7 422.55 Q365.95 423.0 376.1 423.05 L396.35 423.0 416.65 422.75 436.9 422.05 457.2 421.05 466.0 420.45 472.35 420.0 Q479.6 420.05 486.85 420.25 L492.8 420.5 495.55 422.05 497.75 421.95 498.05 421.95 498.1 421.8 498.2 421.25 498.3 421.05 Q500.05 424.35 503.75 423.45 L503.75 423.6 504.0 425.2 504.45 425.9 510.5 419.15 558.95 420.6 562.7 384.9 562.7 378.85 562.0 378.15 562.0 368.35 561.0 367.25 561.0 334.6 562.0 333.45 561.0 294.3 560.05 293.2 560.65 283.65 Q562.9 276.5 562.8 269.0 L562.8 268.85 Q563.85 265.2 564.1 261.5 564.95 248.55 564.95 235.5 L564.0 234.4 563.0 222.45 562.0 221.35 561.95 215.85 561.75 213.15 560.7 203.3 Q558.45 183.7 560.0 164.0 L560.05 163.3 561.0 162.2 560.7 156.35 Q562.65 155.65 562.65 154.0 562.65 153.15 562.25 152.75 L561.4 152.25 561.1 152.35 Q563.15 150.8 563.15 150.35 L563.05 149.55 562.9 149.5 Q562.1 149.45 560.95 150.0 561.45 148.45 560.45 147.15 L560.3 147.05 M434.15 395.55 L434.2 395.4 434.55 396.0 434.0 396.0 434.0 395.95 434.1 395.7 434.15 395.55 M484.3 90.8 L484.2 92.6 484.2 90.6 484.3 90.8 M583.8 354.0 L583.55 353.8 582.8 355.1 583.8 354.0 M496.65 425.45 Q486.9 423.2 476.8 423.5 L466.0 423.85 457.45 424.2 438.9 425.05 419.6 426.1 Q410.5 427.0 401.3 425.7 L396.15 425.4 Q386.15 425.0 376.2 425.1 369.0 425.15 361.75 424.7 L357.35 424.05 351.3 424.3 333.5 424.0 317.95 423.9 Q309.65 424.0 301.4 423.6 L281.55 423.15 262.3 423.75 257.55 424.65 239.2 425.45 238.25 426.0 238.2 426.1 225.25 426.25 209.35 426.35 209.0 426.35 191.3 426.5 158.7 426.45 Q126.75 426.15 95.15 426.15 L91.95 426.5 85.8 425.55 75.1 423.5 Q71.35 422.85 67.6 423.6 67.2 423.2 67.6 421.0 L67.8 418.3 67.9 406.95 67.9 405.3 Q67.95 396.65 68.75 387.95 L69.35 379.25 70.3 362.05 Q70.55 357.85 69.75 353.9 L69.3 351.15 Q68.85 347.45 68.75 343.8 L68.5 327.95 68.35 312.1 68.3 296.95 68.25 285.0 Q68.25 281.15 67.25 277.4 66.4 274.35 66.85 271.0 L67.15 267.15 Q67.25 261.25 67.6 255.25 L67.9 248.15 Q68.0 245.15 66.15 242.85 L65.7 242.35 66.0 238.65 67.45 237.7 Q67.35 235.5 64.9 235.15 58.7 234.4 52.9 236.55 L48.3 238.1 Q47.65 238.25 47.1 238.6 L46.1 238.6 44.75 293.9 Q45.6 295.35 45.9 296.95 46.25 298.8 45.8 300.9 45.3 303.25 45.2 305.6 44.9 314.9 44.85 324.2 L44.85 327.95 44.55 341.2 44.25 354.2 Q44.25 358.6 44.55 363.25 45.6 378.4 46.95 393.4 47.6 400.2 47.7 406.95 L47.7 407.4 Q47.8 411.6 47.1 415.65 45.45 424.75 44.2 433.95 43.95 435.55 44.5 437.0 44.95 438.15 45.9 439.05 47.3 440.25 47.5 442.05 L97.4 442.25 77.5 442.9 Q130.5 442.45 183.45 442.8 L205.75 442.85 218.85 442.95 250.7 444.6 269.65 445.25 285.45 444.65 299.35 443.25 314.1 441.9 317.85 441.65 331.25 441.55 352.7 441.65 362.2 442.05 372.0 442.45 386.0 442.9 Q412.6 445.65 439.1 444.9 449.4 444.6 459.5 444.75 L464.9 444.85 479.5 444.85 488.45 444.55 493.45 444.35 495.65 444.3 Q502.1 444.25 508.15 442.25 508.8 442.05 509.2 441.25 L509.55 437.15 508.15 435.55 508.35 434.6 505.55 432.6 505.3 432.05 504.8 431.95 Q504.15 430.05 502.25 429.1 L500.65 428.25 500.4 428.05 497.9 426.1 495.65 423.8 495.15 423.85 494.9 423.85 495.85 424.2 496.65 425.45 M59.7 234.05 L58.3 234.6 61.9 234.4 59.7 234.05 M498.9 427.7 L498.8 427.7 498.8 427.65 498.9 427.7" fill="#000000" fill-rule="evenodd" stroke="none"/>
    <path d="M147.7 60.3 L142.75 59.5 146.75 59.55 147.0 59.6 147.7 60.3 M245.35 62.6 Q238.75 63.95 231.75 64.3 L218.5 64.15 214.25 63.75 211.3 64.1 211.2 64.1 200.15 64.1 199.75 63.65 245.35 62.6 M196.3 63.6 L195.95 64.1 186.5 64.25 177.1 64.8 177.05 64.55 177.05 64.35 196.3 63.6 M554.95 296.95 L554.7 296.15 555.7 295.4 555.3 296.95 555.15 297.7 554.95 296.95 M554.85 261.75 L553.7 268.15 553.7 267.6 Q553.6 264.55 554.85 261.75 M496.65 425.45 L495.85 424.2 494.9 423.85 495.15 423.85 495.65 423.8 497.9 426.1 496.65 425.45 M500.4 428.05 L500.65 428.25 498.9 427.7 498.8 427.65 498.75 427.65 498.7 427.3 498.95 427.5 500.4 428.05" fill="#63561d" fill-rule="evenodd" stroke="none"/>
    <path d="M556.25 65.35 L556.25 65.2 555.3 65.25 Q555.3 61.85 554.8 61.35 L549.9 61.05 Q527.85 63.5 507.4 63.5 L503.35 63.5 480.9 62.8 Q478.55 62.75 476.7 61.95 472.4 63.4 467.2 62.75 L465.6 63.05 324.7 63.05 321.3 60.8 338.7 60.75 358.1 60.65 368.55 60.65 379.5 60.65 390.95 60.65 402.9 60.65 422.4 59.45 Q432.15 59.1 441.9 58.9 451.65 58.65 461.4 58.7 L480.9 58.9 491.45 59.35 510.45 59.95 Q519.85 60.15 529.15 60.0 L548.8 59.5 549.75 59.5 562.0 59.6 561.1 79.0 560.9 78.85 560.9 77.75 560.55 74.85 560.5 77.4 Q561.4 80.75 561.4 84.0 L561.35 87.25 560.9 90.85 560.8 91.25 560.8 91.45 560.9 93.6 560.9 93.95 560.9 94.4 560.85 94.5 560.65 95.05 560.4 95.25 560.4 102.25 560.05 120.85 559.05 121.9 560.3 147.05 559.65 146.95 559.9 150.55 558.75 151.2 Q556.15 152.9 556.15 153.35 L556.15 153.65 555.65 153.75 556.4 136.25 556.3 124.55 555.45 121.5 555.35 111.0 Q555.05 108.05 554.85 102.9 556.9 90.25 556.9 76.1 L556.6 71.8 556.0 66.5 556.25 65.35 M148.15 64.0 L148.05 64.05 147.75 64.55 141.55 66.05 129.85 66.25 82.5 66.5 81.25 66.75 Q79.3 66.2 77.9 64.95 L77.6 64.35 77.45 63.8 79.15 63.95 97.9 62.7 113.9 61.25 129.15 61.8 148.15 64.0 M73.4 64.0 L74.45 63.8 76.35 64.25 77.6 64.75 78.3 65.35 78.65 65.8 79.35 66.85 79.35 67.2 Q75.3 64.7 75.05 74.0 L74.55 81.3 74.05 88.55 Q73.75 98.3 73.55 117.4 L73.8 137.25 74.05 164.0 74.05 168.8 73.75 182.95 Q73.55 193.25 73.9 199.8 74.55 213.6 77.7 217.9 L77.55 219.5 77.55 230.15 Q76.5 232.3 74.75 234.25 L73.1 236.0 73.3 229.1 Q73.4 220.9 72.8 212.85 72.1 203.1 71.7 193.4 71.45 187.25 71.35 181.1 L71.25 169.0 71.2 164.0 71.1 156.9 70.85 144.8 70.45 132.6 70.05 123.3 69.6 108.5 Q69.55 101.1 69.95 93.7 70.4 86.3 71.3 78.95 L73.4 64.0 M72.1 245.5 Q72.25 248.95 72.95 252.2 L75.3 261.25 Q75.95 263.65 76.05 271.85 L76.4 273.9 76.85 280.35 Q77.25 284.6 77.05 286.25 76.65 289.8 76.8 295.35 L76.85 296.95 77.05 304.55 77.05 377.3 76.2 399.05 Q76.25 403.8 76.9 406.95 77.2 408.5 77.65 409.7 L76.5 410.8 Q75.55 412.15 75.55 413.5 L75.45 415.15 Q75.75 416.4 77.75 417.25 83.6 419.8 104.75 419.8 153.25 419.3 157.5 418.8 L163.75 418.25 165.8 417.75 Q169.0 418.75 186.05 418.95 L209.0 419.0 228.5 419.0 243.55 418.85 255.15 420.25 Q272.2 421.35 295.3 417.05 L304.75 415.2 313.75 416.0 362.6 418.5 Q390.35 419.3 409.4 419.3 L439.5 418.2 Q442.8 416.7 456.4 416.3 L466.0 415.95 483.6 414.65 487.05 416.75 488.2 417.35 489.1 418.6 Q490.2 419.75 491.65 419.75 L492.25 419.7 492.8 420.5 486.85 420.25 Q479.6 420.05 472.35 420.0 L466.0 420.45 457.2 421.05 436.9 422.05 416.65 422.75 396.35 423.0 376.1 423.05 Q365.95 423.0 355.7 422.55 L355.05 422.0 337.25 420.7 319.45 419.75 Q311.95 419.55 304.45 419.75 L288.5 420.3 272.6 420.55 256.6 420.8 242.4 421.1 223.55 421.6 209.0 422.1 204.75 422.2 185.95 422.55 167.05 422.95 148.15 423.25 144.55 423.0 143.85 423.15 136.7 423.45 129.5 423.65 Q115.45 424.0 101.55 423.35 85.45 422.5 69.6 420.4 69.3 414.7 70.05 409.1 L70.45 406.95 Q71.05 404.2 72.4 401.65 69.4 395.9 70.6 389.65 71.25 386.15 70.75 382.7 69.65 375.0 71.45 367.35 73.4 359.35 73.45 351.05 73.5 342.1 71.4 333.55 71.05 332.05 71.0 330.55 L70.95 327.95 Q70.8 319.7 71.3 311.45 L72.0 296.95 72.05 295.15 Q72.45 285.4 71.45 275.65 L72.05 270.4 71.35 270.2 71.15 270.1 72.1 245.5 M503.75 423.6 L504.0 422.9 504.1 422.55 Q505.3 421.6 506.3 418.55 L506.8 416.5 507.65 415.4 508.75 413.75 515.1 412.95 Q532.7 412.95 550.25 413.6 L553.15 413.75 Q552.05 410.9 552.15 407.8 552.95 412.0 553.9 412.0 557.3 412.0 558.95 355.05 L559.9 297.65 559.9 296.95 Q559.8 291.3 558.2 291.1 L559.95 286.05 560.65 283.65 560.05 293.2 561.0 294.3 562.0 333.45 561.0 334.6 561.0 367.25 562.0 368.35 562.0 378.15 562.7 378.85 562.7 384.9 558.95 420.6 510.5 419.15 504.45 425.9 504.0 425.2 503.75 423.6 M562.8 268.85 Q562.7 264.55 563.5 255.15 564.3 245.05 564.3 240.6 564.1 232.65 563.4 231.5 562.6 230.25 561.8 229.7 L561.8 227.65 Q561.8 226.15 558.3 205.15 554.8 184.15 554.8 178.55 L554.8 171.05 555.3 169.1 555.95 166.35 Q555.45 166.25 554.95 165.95 L555.1 164.0 555.4 159.1 555.45 158.7 555.45 158.55 555.45 158.1 555.55 156.7 557.4 156.75 560.7 156.35 561.0 162.2 560.05 163.3 560.0 164.0 Q558.45 183.7 560.7 203.3 L561.75 213.15 561.95 215.85 562.0 221.35 563.0 222.45 564.0 234.4 564.95 235.5 Q564.95 248.55 564.1 261.5 563.85 265.2 562.8 268.85" fill="#5a5c5f" fill-rule="evenodd" stroke="none"/>
  </g>
</svg>
