<?xml version="1.0" encoding="UTF-8" standalone="no"?>
<svg xmlns:ffdec="https://www.free-decompiler.com/flash" xmlns:xlink="http://www.w3.org/1999/xlink" ffdec:objectType="shape" height="10.6px" width="12.0px" xmlns="http://www.w3.org/2000/svg">
  <g transform="matrix(1.0, 0.0, 0.0, 1.0, 9.35, 9.7)">
    <path d="M0.9 -9.6 L1.05 -9.65 1.2 -9.65 1.4 -9.7 1.6 -9.65 1.75 -9.65 1.9 -9.6 2.05 -9.5 2.2 -9.4 2.3 -9.3 2.4 -9.2 2.45 -9.1 2.5 -9.0 2.55 -8.9 2.6 -8.85 2.6 -8.75 2.6 -8.65 2.65 -8.55 2.65 -8.45 2.65 -8.35 2.6 -8.25 2.6 -8.15 2.6 -8.1 2.55 -8.0 2.5 -7.9 2.45 -7.8 2.4 -7.7 2.3 -7.6 2.25 -7.5 2.15 -7.4 2.05 -7.35 1.95 -7.25 1.85 -7.15 1.75 -7.05 1.7 -6.95 1.65 -6.85 1.55 -6.75 1.45 -6.65 1.4 -6.6 1.3 -6.5 1.25 -6.4 1.15 -6.3 1.05 -6.2 0.9 -6.1 0.8 -6.0 0.7 -5.9 0.6 -5.85 0.5 -5.75 0.3 -5.55 0.15 -5.45 0.05 -5.35 -0.1 -5.25 -0.15 -5.15 -0.25 -5.1 -0.35 -5.0 -0.4 -4.9 -0.5 -4.8 -0.6 -4.7 -0.7 -4.6 -0.85 -4.5 -1.0 -4.4 -1.15 -4.35 -1.25 -4.25 -1.35 -4.15 -1.45 -4.05 -1.6 -3.95 -1.7 -3.85 -1.8 -3.75 -1.85 -3.65 -1.95 -3.6 -2.1 -3.5 -2.2 -3.4 -2.4 -3.3 -2.45 -3.2 -2.65 -3.0 -2.85 -2.85 -3.1 -2.55 -3.5 -2.15 -3.55 -2.1 -3.6 -2.0 -3.65 -1.9 -3.75 -1.8 -3.85 -1.7 -3.85 -1.6 -3.9 -1.5 -4.0 -1.4 -4.1 -1.35 -4.15 -1.25 -4.25 -1.15 -4.35 -1.05 -4.45 -0.95 -4.5 -0.85 -4.6 -0.75 -4.65 -0.65 -4.75 -0.6 -4.8 -0.5 -4.85 -0.4 -4.9 -0.3 -4.95 -0.2 -5.15 0.0 -5.25 0.1 -5.4 0.25 -5.6 0.45 -5.7 0.55 -5.85 0.65 -6.0 0.75 -6.15 0.8 -6.25 0.85 -6.4 0.85 -6.6 0.9 -6.8 0.85 -6.95 0.8 -7.15 0.75 -7.35 0.65 -7.45 0.6 -7.55 0.5 -7.6 0.4 -7.65 0.3 -7.75 0.2 -7.75 0.1 -7.8 0.0 -7.85 -0.1 -7.85 -0.15 -7.85 -0.25 -7.85 -0.35 -7.85 -0.45 -7.85 -0.55 -7.85 -0.65 -7.85 -0.75 -7.8 -0.85 -7.75 -0.9 -7.75 -1.0 -7.65 -1.1 -7.6 -1.2 -7.55 -1.3 -7.45 -1.4 -7.35 -1.5 -7.25 -1.55 -7.15 -1.65 -7.1 -1.75 -7.0 -1.85 -6.95 -1.95 -6.9 -2.05 -6.8 -2.15 -6.75 -2.25 -6.7 -2.35 -6.65 -2.4 -6.55 -2.5 -6.5 -2.6 -6.4 -2.7 -6.3 -2.8 -6.2 -2.9 -6.1 -3.0 -6.05 -3.1 -6.0 -3.15 -5.9 -3.25 -5.85 -3.35 -5.8 -3.45 -5.7 -3.55 -5.6 -3.65 -5.5 -3.75 -5.4 -3.85 -5.35 -3.9 -5.25 -4.0 -5.15 -4.1 -5.1 -4.2 -5.05 -4.3 -4.95 -4.4 -4.85 -4.5 -4.75 -4.6 -4.65 -4.65 -4.6 -4.75 -4.45 -4.85 -4.35 -4.95 -4.3 -5.05 -4.2 -5.15 -4.1 -5.25 -4.0 -5.35 -3.85 -5.4 -3.7 -5.5 -3.6 -5.6 -3.55 -5.7 -3.45 -5.8 -3.35 -5.9 -3.15 -6.0 -3.0 -6.1 -2.9 -6.15 -2.8 -6.25 -2.65 -6.35 -2.5 -6.45 -2.4 -6.55 -2.35 -6.65 -2.25 -6.75 -2.15 -6.85 -2.05 -6.9 -2.0 -7.0 -1.85 -7.1 -1.75 -7.2 -1.6 -7.3 -1.5 -7.4 -1.45 -7.5 -1.4 -7.6 -1.3 -7.65 -1.25 -7.75 -1.1 -7.85 -0.95 -7.95 -0.8 -8.05 -0.7 -8.15 -0.6 -8.25 -0.5 -8.35 -0.4 -8.4 -0.35 -8.5 -0.25 -8.6 -0.2 -8.7 -0.15 -8.8 0.1 -9.0 0.3 -9.2 0.65 -9.45 0.9 -9.6 M-4.85 -9.0 L-4.8 -8.9 -4.75 -8.85 -4.75 -8.75 -4.75 -8.65 -4.7 -8.55 -4.7 -8.45 -4.7 -8.35 -4.7 -8.25 -4.7 -8.15 -4.7 -8.1 -4.75 -8.0 -4.75 -7.9 -4.8 -7.8 -4.85 -7.7 -4.85 -7.6 -4.9 -7.5 -5.0 -7.4 -5.1 -7.35 -5.15 -7.25 -5.25 -7.15 -5.35 -7.05 -5.4 -6.95 -5.45 -6.85 -5.55 -6.75 -5.6 -6.65 -5.65 -6.6 -5.7 -6.5 -5.75 -6.4 -5.8 -6.3 -5.85 -6.2 -5.95 -6.1 -6.05 -6.0 -6.15 -5.9 -6.25 -5.85 -6.25 -5.75 -6.3 -5.65 -6.35 -5.55 -6.4 -5.45 -6.45 -5.35 -6.55 -5.25 -6.65 -5.15 -6.75 -5.05 -6.85 -5.0 -6.9 -4.9 -7.0 -4.8 -7.1 -4.7 -7.4 -4.55 -7.6 -4.5 -7.9 -4.4 -8.1 -4.35 -8.3 -4.4 -8.45 -4.45 -8.65 -4.5 -8.85 -4.6 -8.95 -4.65 -9.05 -4.75 -9.1 -4.85 -9.15 -4.95 -9.25 -5.05 -9.25 -5.15 -9.3 -5.25 -9.35 -5.35 -9.35 -5.4 -9.35 -5.5 -9.35 -5.6 -9.35 -5.7 -9.35 -5.8 -9.35 -5.9 -9.3 -6.0 -9.25 -6.1 -9.25 -6.15 -9.15 -6.25 -9.1 -6.35 -9.05 -6.45 -8.95 -6.55 -8.85 -6.65 -8.75 -6.75 -8.65 -6.85 -8.6 -6.9 -8.5 -7.0 -8.45 -7.1 -8.4 -7.2 -8.3 -7.3 -8.25 -7.4 -8.2 -7.5 -8.15 -7.6 -8.05 -7.65 -8.0 -7.75 -7.85 -7.85 -7.85 -7.95 -7.8 -8.05 -7.75 -8.15 -7.7 -8.25 -7.65 -8.35 -7.55 -8.4 -7.5 -8.5 -7.35 -8.6 -7.3 -8.7 -7.25 -8.8 -7.15 -8.9 -7.1 -9.0 -7.05 -9.1 -7.0 -9.15 -6.9 -9.25 -6.85 -9.35 -6.7 -9.45 -6.55 -9.55 -6.4 -9.6 -6.3 -9.65 -6.15 -9.65 -5.95 -9.7 -5.75 -9.65 -5.6 -9.65 -5.4 -9.6 -5.25 -9.5 -5.15 -9.4 -5.05 -9.3 -4.95 -9.2 -4.9 -9.1 -4.85 -9.0" fill="#9fffff" fill-opacity="0.18431373" fill-rule="evenodd" stroke="none"/>
  </g>
</svg>
