<?xml version="1.0" encoding="UTF-8" standalone="no"?>
<svg xmlns:ffdec="https://www.free-decompiler.com/flash" xmlns:xlink="http://www.w3.org/1999/xlink" ffdec:objectType="shape" height="414.1px" width="556.35px" xmlns="http://www.w3.org/2000/svg">
  <g transform="matrix(1.0, 0.0, 0.0, 1.0, 380.95, 217.4)">
    <path d="M87.1 -161.3 Q69.2 -155.05 50.45 -153.55 L19.35 -152.25 Q7.6 -153.0 -4.0 -151.6 -17.45 -150.3 -28.9 -143.0 L-29.15 -138.0 -29.15 -142.8 Q-42.85 -132.65 -53.5 -119.85 -58.5 -113.95 -60.65 -106.45 L-60.75 -104.6 -61.65 -103.45 Q-62.65 -93.9 -58.25 -85.3 -54.25 -77.5 -48.65 -70.45 -38.8 -66.45 -28.75 -69.5 -24.95 -70.7 -21.75 -73.2 L-19.65 -74.95 -16.0 -74.5 -17.65 -63.7 -17.65 -62.2 Q-24.9 -50.5 -33.4 -40.05 -35.1 -37.9 -37.3 -36.25 -50.15 -26.95 -65.6 -22.85 -71.8 -21.15 -78.05 -22.05 -83.1 -22.35 -86.25 -18.6 L-88.15 -15.95 -83.9 -11.7 -77.65 -10.2 Q-91.7 0.8 -109.65 0.9 -124.4 1.0 -138.15 -4.7 L-142.35 -6.2 Q-149.3 -8.0 -154.05 -13.4 L-161.95 -22.25 -160.9 -23.2 -159.4 -22.95 Q-151.4 -14.7 -139.9 -15.7 -131.35 -16.65 -124.1 -20.95 -121.6 -22.5 -120.5 -25.3 -119.3 -28.4 -119.8 -31.65 L-119.15 -32.45 -120.15 -33.95 Q-121.2 -45.2 -130.1 -52.45 -138.05 -58.95 -148.3 -59.5 -154.45 -59.9 -159.75 -57.2 -162.7 -55.6 -165.35 -56.9 L-163.85 -80.4 -187.4 -70.95 Q-192.6 -64.9 -192.15 -57.4 -191.8 -52.25 -188.8 -48.15 L-191.65 -46.95 -195.9 -52.2 -196.15 -54.45 Q-205.4 -66.25 -201.3 -80.45 -199.55 -86.45 -196.9 -92.2 L-194.65 -91.2 -192.65 -83.7 -190.9 -81.45 Q-189.55 -89.15 -182.15 -93.15 -169.35 -100.15 -154.85 -101.3 -146.2 -101.8 -137.65 -100.2 L-136.65 -97.95 Q-140.3 -94.85 -142.65 -90.75 -143.95 -88.5 -144.65 -85.95 -144.35 -77.55 -137.75 -72.75 -131.9 -68.55 -124.4 -68.1 -117.95 -67.4 -111.65 -69.2 -106.35 -70.75 -101.45 -73.75 -97.95 -75.85 -95.35 -78.85 -89.0 -86.15 -86.6 -95.5 L-85.8 -99.65 -85.15 -100.45 Q-86.3 -112.25 -85.4 -124.35 -85.25 -126.4 -84.6 -128.4 -71.85 -148.0 -53.95 -163.5 -49.75 -167.1 -45.05 -170.05 -29.55 -179.95 -11.7 -184.5 -9.95 -184.9 -8.0 -184.5 L-7.65 -182.0 -8.65 -180.5 -8.95 -174.55 -9.65 -173.75 Q-9.85 -166.9 -3.15 -166.85 8.2 -166.8 19.6 -167.5 55.8 -170.05 92.15 -169.4 L97.8 -170.0 Q100.5 -170.8 103.15 -172.25 L105.4 -171.25 Q101.55 -165.8 94.7 -163.7 L87.1 -161.3 M175.4 147.85 Q174.9 155.9 169.95 161.2 162.65 169.05 152.15 166.9 L149.4 166.1 145.9 161.6 Q149.55 159.15 154.05 160.7 155.1 161.0 156.3 160.7 161.9 159.35 164.75 154.35 165.5 153.05 165.9 151.6 169.95 141.9 161.5 135.25 151.6 127.4 139.25 129.5 137.0 129.8 135.5 131.45 130.5 130.85 126.9 134.45 112.0 149.55 92.35 157.85 89.35 159.1 86.2 159.8 L79.4 160.6 Q66.65 165.15 52.7 163.75 L46.4 163.5 52.65 167.1 62.65 167.1 65.25 169.0 63.15 171.35 Q17.4 170.95 -25.65 155.85 -41.95 150.05 -55.3 139.0 -59.95 135.2 -64.8 131.75 -76.2 123.6 -84.2 112.1 -93.4 98.8 -102.15 84.8 L-103.65 84.05 Q-109.65 74.35 -120.25 72.7 L-123.65 72.55 -125.65 75.55 -124.85 86.85 -118.65 93.05 -124.9 93.8 Q-112.45 99.4 -104.7 110.35 L-104.65 111.85 -103.75 113.0 Q-101.05 117.9 -100.65 123.65 -100.0 133.1 -103.9 141.55 L-106.65 147.85 -107.0 153.8 -107.65 154.6 -108.3 165.05 -107.65 165.85 -107.0 171.6 Q-112.85 169.85 -117.1 164.85 -119.3 162.3 -121.15 159.35 L-121.25 156.75 -122.15 155.6 Q-122.65 145.8 -121.5 136.05 -120.5 127.25 -124.65 119.55 -125.85 117.35 -127.6 115.55 L-130.65 112.05 Q-136.7 104.05 -146.1 100.45 -154.7 97.35 -163.65 99.2 -168.8 100.2 -172.5 103.55 -175.6 106.4 -176.8 110.7 L-179.15 107.55 -179.15 106.05 -180.15 104.55 -180.15 103.05 -182.15 94.05 -183.15 92.55 Q-184.25 77.3 -176.7 64.0 -175.0 61.05 -171.85 59.3 -168.65 57.55 -166.35 55.1 L-164.75 56.0 -167.65 76.8 -166.95 78.55 -165.65 77.05 Q-145.45 77.05 -127.6 86.5 -136.25 77.55 -144.3 68.1 -147.65 64.25 -150.25 59.8 -155.85 50.2 -156.15 39.05 L-154.35 36.0 -151.2 38.6 -150.65 43.8 -145.7 47.4 -138.9 44.8 -130.9 51.3 Q-121.55 52.5 -118.4 44.55 -115.1 36.15 -118.8 27.7 -121.15 22.4 -126.2 19.45 -129.75 17.4 -133.7 17.85 -136.2 18.25 -137.95 16.35 L-135.5 12.2 -130.9 10.8 Q-91.0 17.15 -59.95 42.4 -55.3 46.2 -52.3 51.4 -59.5 52.35 -65.55 54.9 -68.55 56.1 -68.85 59.5 -69.0 60.85 -68.4 62.05 -59.8 79.95 -43.1 90.4 -28.65 99.45 -12.9 105.8 4.7 112.95 23.25 117.1 40.75 121.05 58.6 122.35 77.9 123.65 97.1 121.2 107.6 120.0 117.65 116.45 128.3 112.75 139.45 112.15 L141.1 110.95 Q157.2 112.45 168.15 124.35 L168.4 125.85 Q170.9 130.35 172.45 135.15 174.4 141.35 175.4 147.85 M-242.8 -143.6 Q-244.5 -145.7 -245.55 -148.3 -244.4 -150.5 -241.1 -148.0 -226.25 -137.05 -219.7 -119.75 L-219.7 -118.25 -218.7 -116.7 -219.0 -111.55 -219.7 -110.7 -219.8 -109.6 -220.7 -108.45 -220.7 -106.95 -221.7 -105.45 -221.7 -103.2 -222.7 -101.7 -222.7 -100.2 -223.8 -97.6 -224.7 -96.45 -224.8 -94.6 -226.45 -92.7 -227.0 -88.3 -227.7 -87.45 -228.0 -81.5 -228.7 -80.7 -228.7 -79.2 -229.7 -77.7 Q-230.7 -68.45 -223.7 -63.6 L-218.2 -64.05 -214.7 -61.7 Q-215.95 -60.2 -213.05 -59.25 L-209.7 -58.75 -208.75 -58.55 -207.4 -57.75 -206.3 -56.9 -212.4 -51.95 -213.05 -46.35 -215.4 -46.7 -216.55 -49.6 Q-220.15 -52.65 -224.2 -50.45 L-225.4 -49.7 -225.65 -40.7 -222.4 -24.05 Q-234.05 -28.75 -236.2 -40.95 L-251.2 -54.45 -251.3 -56.3 -252.2 -57.45 -252.3 -59.3 -253.2 -60.45 Q-251.7 -72.85 -248.35 -84.65 -246.4 -91.4 -242.2 -97.35 L-237.65 -103.05 Q-233.4 -107.9 -230.45 -113.7 L-235.2 -127.25 -238.2 -131.75 Q-238.35 -138.2 -242.8 -143.6 M-204.0 89.55 L-202.2 87.6 -202.2 82.05 -203.9 76.35 -198.7 81.05 -201.7 93.3 -199.05 98.5 -200.45 100.05 -202.7 100.05 -206.95 96.8 -207.7 98.3 Q-206.7 104.2 -201.9 107.1 -199.4 108.6 -196.65 109.55 -187.95 112.75 -183.8 121.0 L-183.8 132.2 -184.7 133.35 -184.8 135.2 Q-186.05 136.9 -186.9 138.9 -188.8 143.4 -193.45 145.5 -196.2 146.7 -198.55 145.55 -192.65 141.95 -191.2 132.6 L-193.4 127.6 -196.75 122.95 Q-202.25 118.6 -210.55 114.55 -212.1 113.75 -213.25 112.35 -216.45 108.2 -218.2 103.3 L-218.2 101.05 -219.2 99.55 -218.2 81.55 -212.9 77.15 -212.45 89.05 -210.45 90.45 -209.9 90.8 Q-207.3 91.85 -205.15 90.4 L-204.0 89.55 M-295.7 45.55 Q-295.85 47.75 -294.8 49.55 -292.5 53.3 -288.3 55.3 -283.05 57.65 -278.45 54.05 L-277.8 56.2 Q-282.6 63.25 -291.4 64.65 -295.2 65.35 -298.85 66.8 -307.9 70.7 -314.7 77.8 L-314.4 86.8 -308.8 92.1 -307.7 95.05 -308.7 112.35 -309.7 113.85 -315.7 128.1 Q-322.95 136.75 -333.45 140.2 -340.85 142.5 -348.45 141.55 -363.2 139.2 -374.05 128.5 L-375.65 126.8 Q-382.9 118.9 -380.2 107.85 -378.55 101.1 -371.35 99.6 -365.25 98.5 -361.75 103.75 L-362.1 105.45 -365.95 104.95 -376.4 111.8 Q-370.05 121.65 -359.3 125.75 -357.05 126.7 -354.5 126.95 -347.45 127.85 -335.95 117.9 -324.5 107.95 -328.9 94.05 L-336.25 83.8 Q-338.05 70.55 -333.0 58.4 -329.8 50.7 -323.4 45.6 -309.0 34.2 -291.1 37.55 L-289.85 40.4 -292.0 40.8 -295.7 45.55" fill="#ffff4a" fill-rule="evenodd" stroke="none"/>
    <path d="M88.85 -183.15 Q45.8 -162.0 3.95 -138.35 L-79.2 -91.1 Q-88.15 -86.0 -97.15 -80.95 L-97.15 -77.2 -97.35 -67.0 -97.5 -66.0 Q-98.2 -65.65 -98.85 -65.65 -99.75 -65.65 -100.55 -66.0 L-100.55 -71.05 -100.55 -78.2 -100.55 -79.05 Q-119.9 -68.2 -139.35 -57.7 -136.8 -53.6 -135.1 -48.95 -132.05 -40.65 -132.45 -31.7 -137.6 -11.35 -149.6 4.65 -154.2 14.5 -162.05 22.55 -146.45 40.65 -130.05 58.2 L-114.4 74.9 -112.2 72.1 Q-111.0 70.4 -109.35 69.15 -107.7 64.25 -104.9 59.75 -103.6 57.7 -102.75 55.4 L-111.8 45.65 Q-114.0 43.3 -114.1 40.3 L-113.75 39.6 -113.45 39.35 -112.4 39.25 -111.75 39.25 -110.8 40.3 -110.1 41.3 -109.7 42.3 -101.9 50.75 -101.9 49.8 -101.55 48.75 -101.15 47.75 -100.55 46.75 -100.55 45.7 -100.55 43.7 -100.55 42.65 -100.1 41.65 -99.6 40.55 -99.15 39.6 -99.15 37.55 -99.15 34.5 -99.15 33.5 -98.5 31.45 Q-97.9 29.6 -96.1 29.7 L-95.45 29.75 Q-94.95 30.75 -95.15 31.65 L-95.8 34.85 -95.8 36.9 -95.8 39.95 -95.8 40.95 -96.2 41.9 -96.75 43.0 -97.15 44.0 -97.15 45.05 -97.15 46.05 -97.15 47.05 -97.8 49.1 -98.5 51.15 -98.5 52.15 -98.5 53.2 -98.5 54.2 -93.65 58.9 Q-88.2 64.15 -82.2 68.8 -88.65 70.75 -95.15 63.65 L-99.9 58.5 Q-101.05 61.0 -102.65 63.35 -104.55 66.05 -105.3 69.5 -108.35 73.75 -111.85 77.6 -87.55 103.3 -62.8 128.5 -38.2 153.45 -14.7 179.45 L-14.1 180.5 -13.6 181.45 -13.15 182.5 Q-13.0 183.0 -13.0 183.55 -13.5 184.0 -14.1 184.2 L-15.75 184.55 Q-49.55 146.65 -85.45 110.35 L-102.15 93.1 -114.35 80.2 -118.6 84.15 Q-104.55 98.9 -92.45 115.6 -79.1 134.15 -64.7 151.95 -63.6 153.3 -63.2 155.05 L-64.35 155.7 -65.9 156.05 Q-87.7 129.15 -108.75 101.8 -114.9 93.85 -121.4 86.45 -127.5 91.2 -134.55 94.85 -137.7 96.5 -140.95 97.65 L-142.4 96.7 -142.65 95.95 -140.8 94.05 -139.55 93.25 Q-130.75 89.7 -123.6 84.0 -133.35 73.15 -144.0 63.35 L-143.65 62.7 -143.3 62.4 -142.3 62.35 -141.6 62.35 Q-130.8 71.6 -120.9 81.75 L-116.75 77.6 Q-141.0 51.55 -164.1 24.55 -167.4 27.65 -171.2 30.45 -203.75 54.2 -243.1 47.25 L-247.65 46.35 -247.85 46.75 -261.9 61.85 Q-268.65 69.2 -274.35 77.3 -274.9 77.75 -275.45 77.85 L-278.4 77.6 -253.05 44.85 Q-259.5 42.85 -265.0 39.75 L-285.6 54.9 Q-300.55 65.35 -315.15 76.15 L-324.25 82.4 -325.05 83.45 -325.45 84.3 -326.3 85.45 -327.85 85.1 -328.55 84.35 -328.65 83.4 Q-306.9 63.15 -280.65 46.4 L-268.15 37.85 Q-283.7 27.75 -290.65 8.3 -300.65 -19.55 -293.0 -48.55 -286.4 -73.7 -269.05 -91.3 L-273.35 -97.95 -292.65 -128.7 -294.45 -127.5 -296.05 -126.4 -297.0 -125.3 -297.5 -124.45 -298.1 -123.35 -300.85 -122.9 Q-301.2 -122.9 -301.5 -123.35 -301.75 -125.15 -300.55 -126.45 L-298.8 -128.45 -296.75 -130.5 -294.4 -131.5 -297.45 -136.45 -305.25 -149.5 Q-306.8 -150.5 -307.9 -151.85 -308.55 -152.85 -307.55 -153.45 L-306.6 -153.9 -304.55 -153.55 -303.2 -152.55 -291.4 -133.55 -288.95 -134.15 -286.9 -134.55 Q-286.6 -133.55 -286.85 -132.7 -287.25 -131.5 -288.25 -130.5 L-289.3 -130.2 -266.15 -94.1 -261.4 -98.3 -258.0 -100.75 Q-265.3 -115.1 -272.25 -129.55 -275.25 -135.6 -277.05 -141.7 L-276.7 -142.35 -276.4 -142.55 -275.35 -142.7 -274.7 -142.7 Q-265.0 -122.7 -254.2 -102.8 -250.7 -104.4 -246.85 -105.0 -245.15 -104.9 -243.85 -104.05 -243.15 -103.65 -242.8 -102.65 -247.55 -101.2 -252.3 -99.3 L-246.7 -89.15 Q-228.15 -100.7 -207.45 -105.0 -181.6 -106.05 -166.0 -85.8 -158.95 -76.7 -154.7 -66.1 L-151.65 -68.1 -152.15 -68.7 -151.4 -69.25 -150.45 -69.35 -149.75 -69.35 Q-132.45 -81.0 -115.6 -93.55 L-103.6 -102.35 Q-107.95 -117.95 -115.0 -132.8 -119.05 -141.4 -124.35 -148.7 L-127.95 -145.55 Q-142.35 -133.15 -158.25 -122.65 L-160.9 -122.75 -161.65 -123.35 Q-144.0 -137.15 -126.6 -151.75 -130.4 -156.6 -134.8 -160.85 L-155.55 -140.65 -175.9 -120.3 -177.6 -119.6 Q-178.5 -119.95 -179.1 -120.55 L-179.3 -121.3 Q-158.75 -142.7 -137.4 -163.25 -147.2 -172.05 -159.6 -178.0 L-160.95 -178.35 -167.75 -178.5 -168.45 -179.05 -168.2 -179.9 -167.05 -181.0 -165.7 -181.75 -165.05 -182.0 -164.1 -182.2 -164.0 -182.4 Q-149.85 -179.9 -139.45 -170.0 L-134.95 -165.6 Q-118.15 -181.7 -100.85 -195.65 -102.85 -190.6 -109.2 -184.65 L-132.5 -163.05 -125.65 -155.6 -124.4 -153.6 Q-108.2 -167.25 -92.25 -181.6 -71.15 -200.55 -49.25 -217.4 -53.2 -209.75 -62.5 -201.7 L-122.4 -150.35 Q-116.95 -141.5 -111.95 -132.3 -104.7 -118.9 -100.6 -104.5 -73.85 -123.5 -45.55 -140.0 L-44.5 -140.0 -43.85 -140.0 Q-46.65 -134.1 -56.15 -128.65 -77.65 -116.3 -97.5 -101.2 L-99.4 -99.8 -98.65 -96.6 -97.15 -90.4 -97.15 -85.35 -97.15 -83.95 Q-62.35 -103.25 -27.95 -123.2 13.4 -147.2 55.45 -170.2 89.1 -188.7 124.5 -202.45 122.15 -196.85 111.7 -193.0 100.05 -188.75 88.85 -183.15 M-250.65 -86.45 L-254.8 -94.45 -256.4 -97.6 -258.4 -96.75 Q-262.05 -95.1 -265.35 -92.8 L-257.3 -80.6 Q-254.3 -83.8 -250.65 -86.45 M-255.4 -77.65 L-254.85 -76.85 Q-237.15 -50.15 -216.95 -25.25 L-216.95 -24.35 Q-217.2 -23.75 -217.8 -23.45 L-219.35 -23.2 Q-239.8 -48.25 -258.05 -74.9 L-259.05 -73.8 -259.5 -72.85 -260.1 -71.75 -259.9 -70.95 -258.8 -69.7 -257.7 -68.7 -257.7 -67.8 Q-257.95 -67.2 -258.55 -66.95 L-260.1 -66.65 -262.15 -67.75 -263.5 -68.7 -263.5 -69.7 -263.5 -70.75 -263.5 -71.75 -263.5 -72.75 -259.9 -77.6 -268.25 -90.05 Q-291.95 -57.4 -292.2 -17.1 -292.5 19.3 -264.4 35.0 L-254.2 26.75 -252.6 25.4 Q-256.75 20.05 -260.3 14.3 -264.5 7.5 -266.2 -0.45 L-266.2 -5.55 -266.2 -11.65 -266.2 -14.7 -265.85 -15.75 -265.5 -16.75 -265.2 -17.75 -263.55 -19.9 -261.45 -22.85 -260.75 -23.9 -259.05 -24.9 -257.9 -23.75 -257.35 -22.85 -258.75 -20.85 -260.85 -17.85 -261.8 -16.75 -262.15 -15.75 -262.45 -14.7 -262.8 -13.7 -262.8 -9.6 -262.8 -4.55 -262.8 -1.5 Q-258.6 13.8 -249.85 23.05 L-230.9 7.0 -230.3 5.9 -229.85 4.95 Q-225.8 2.4 -222.7 -1.35 -220.8 -3.7 -218.4 -4.4 L-218.35 -4.55 -216.45 -4.0 -215.3 -3.15 -215.75 -2.3 -217.6 -0.05 -218.35 0.9 -220.7 1.9 -223.9 4.85 -226.8 7.0 -227.25 7.95 -227.85 9.05 Q-237.35 17.5 -247.2 25.65 -244.5 28.05 -241.4 29.95 -231.95 18.25 -221.4 7.35 L-221.0 6.35 -220.35 5.3 -219.6 4.45 -216.3 2.25 -215.5 1.1 -214.35 -0.55 Q-213.8 -1.15 -212.95 -1.6 L-212.9 -1.8 -209.65 -1.2 -208.5 -0.45 -208.95 0.4 -211.0 2.4 -212.2 2.95 -213.3 3.9 Q-215.15 5.65 -217.3 7.0 L-217.7 7.95 -218.35 9.05 Q-227.05 17.6 -234.55 27.1 L-238.1 31.8 Q-225.15 38.3 -206.25 37.0 -199.0 36.55 -192.2 33.5 -179.05 27.55 -168.65 19.15 L-178.5 7.4 -181.95 9.85 Q-198.4 21.25 -218.0 16.2 L-220.05 15.1 -221.2 13.95 -221.4 13.1 Q-221.05 12.55 -220.55 12.35 L-219.0 12.1 -217.3 12.65 -211.2 14.15 Q-199.15 15.55 -188.55 10.0 -184.3 7.8 -180.4 5.1 L-195.6 -14.05 -195.25 -14.7 -194.9 -15.0 -193.9 -15.05 -193.2 -15.05 -178.15 3.5 Q-174.5 0.7 -171.15 -2.5 -153.2 -24.7 -155.4 -49.1 L-163.05 -45.05 Q-181.25 -35.5 -199.65 -33.75 -178.7 -42.45 -157.8 -52.35 -159.85 -54.75 -162.05 -56.8 -170.05 -51.85 -178.15 -47.05 L-202.05 -33.05 Q-203.6 -33.4 -204.9 -34.15 L-205.1 -34.75 -204.95 -35.75 -204.35 -36.65 -203.4 -37.1 -201.35 -37.45 Q-182.95 -47.95 -165.05 -59.35 -170.3 -63.55 -176.6 -66.3 L-176.35 -67.15 -174.9 -68.35 Q-167.85 -65.1 -162.35 -61.1 L-158.4 -63.65 Q-159.55 -67.1 -161.05 -70.6 -175.65 -104.6 -212.35 -99.25 -220.45 -98.05 -228.2 -95.1 -237.3 -91.6 -245.05 -86.2 -235.35 -68.65 -227.85 -50.0 -223.1 -43.8 -219.35 -36.8 -216.85 -32.1 -213.9 -27.6 L-215.8 -26.45 -217.3 -26.6 Q-233.85 -54.6 -249.0 -83.3 L-255.4 -77.65 M-310.25 -55.1 Q-311.35 -52.8 -313.05 -51.05 L-313.05 -50.0 -313.05 -49.0 -313.5 -48.05 -314.4 -46.95 -314.4 -42.9 -314.4 -38.8 -314.4 -37.8 -317.1 -37.35 -317.8 -37.8 -317.8 -41.9 -317.8 -45.95 -317.8 -46.95 -317.65 -48.0 -317.1 -49.0 -316.45 -50.0 -316.45 -51.05 -316.45 -52.05 Q-314.1 -54.8 -313.45 -58.15 -312.95 -61.45 -310.0 -61.25 -308.65 -58.65 -310.25 -55.1 M-167.4 -1.5 L-176.25 5.75 -166.5 17.35 Q-157.65 9.7 -151.0 0.15 -145.4 -14.9 -148.55 -33.5 -149.4 -38.35 -151.4 -42.7 -151.5 -39.9 -151.85 -37.1 -152.35 -34.15 -152.45 -31.0 L-154.1 -25.9 Q-155.55 -21.05 -158.25 -16.75 -162.75 -9.8 -166.8 -2.55 L-167.4 -1.5 M-100.55 -87.35 L-100.55 -89.4 -102.35 -97.55 Q-124.05 -81.35 -146.6 -66.6 -143.65 -63.75 -141.25 -60.5 -125.9 -68.2 -110.6 -76.55 L-100.55 -82.1 -100.55 -87.35 M-157.3 -59.75 L-159.2 -58.6 -156.4 -56.0 -157.3 -59.75 M-144.95 -58.65 L-149.2 -64.9 -153.25 -62.3 -151.45 -56.45 -151.45 -55.4 -144.95 -58.65 M-151.45 -50.2 Q-140.6 -35.0 -144.3 -12.55 L-144.8 -10.05 Q-140.6 -18.0 -137.65 -27.05 L-135.85 -33.05 Q-135.9 -42.6 -140.4 -50.95 L-143.1 -55.7 -151.45 -51.2 -151.45 -50.2 M-139.9 189.65 Q-149.15 160.4 -162.3 132.4 -171.45 113.05 -177.95 92.9 L-178.9 91.75 -179.3 90.85 -179.5 87.8 Q-179.75 85.5 -177.6 85.45 L-176.9 85.45 Q-176.45 85.9 -176.25 86.5 -175.9 87.45 -175.9 88.5 L-175.2 89.5 -174.55 90.5 -174.55 91.55 -174.55 92.55 Q-164.5 121.2 -151.85 148.85 -143.0 168.2 -136.5 188.3 L-133.8 192.3 Q-132.85 193.75 -132.45 195.45 L-133.0 196.05 Q-134.0 196.55 -135.15 196.7 L-138.0 192.7 -139.9 189.65 M-164.0 20.3 L-163.25 19.6 -164.0 20.3 M-166.2 22.1 L-172.65 27.2 Q-205.65 51.3 -240.45 35.0 L-245.3 42.5 Q-209.1 52.05 -177.85 31.6 -171.2 27.25 -166.0 22.3 L-166.2 22.1 M-247.85 31.1 L-250.3 28.25 -261.05 36.75 Q-256.0 39.2 -250.15 41.1 L-248.15 38.45 -244.05 33.2 -247.85 31.1" fill="#ffffff" fill-rule="evenodd" stroke="none"/>
  </g>
</svg>
