<?xml version="1.0" encoding="UTF-8" standalone="no"?>
<svg xmlns:ffdec="https://www.free-decompiler.com/flash" xmlns:xlink="http://www.w3.org/1999/xlink" ffdec:objectType="shape" height="329.0px" width="444.8px" xmlns="http://www.w3.org/2000/svg">
  <g transform="matrix(1.0, 0.0, 0.0, 1.0, 280.1, 142.9)">
    <path d="M31.5 -23.3 Q52.05 -14.15 68.55 1.45 75.4 7.9 81.05 15.3 L81.75 16.2 Q89.6 26.75 93.55 39.65 L42.15 35.55 40.4 37.0 Q28.15 47.4 19.3 60.45 15.6 65.8 17.5 72.35 26.65 104.6 60.65 111.7 93.45 118.4 125.3 106.3 140.9 100.4 154.5 90.9 157.7 88.6 160.2 85.8 L164.7 87.55 162.7 102.55 Q144.35 133.15 112.6 149.15 99.1 155.95 86.75 164.95 78.45 171.0 68.9 174.85 47.8 183.2 26.05 185.35 3.1 187.65 -20.55 183.1 -54.1 176.45 -79.05 152.35 -105.05 127.2 -123.65 96.6 L-127.1 99.2 -129.4 105.05 -127.4 123.05 -123.4 136.55 -111.75 154.5 -113.9 157.55 Q-128.05 160.0 -141.2 153.85 -149.9 149.85 -159.4 148.05 -180.55 136.3 -196.55 119.4 -205.25 110.15 -212.45 99.45 -215.7 94.65 -217.6 89.0 -218.85 85.45 -220.4 82.05 L-221.4 44.95 Q-240.55 49.15 -259.95 52.45 -270.15 54.0 -280.1 51.75 -258.85 13.4 -227.85 -17.55 L-230.0 -19.2 -234.9 -19.5 Q-261.2 -58.4 -274.4 -103.5 L-274.4 -106.5 -276.4 -109.5 -274.75 -115.9 -247.4 -101.0 -245.9 -98.0 -205.15 -58.75 Q-202.9 -67.0 -199.75 -74.9 -193.3 -91.4 -185.9 -107.5 -154.1 -131.7 -115.45 -139.9 L-103.55 -142.0 -82.2 -142.7 Q-57.05 -140.6 -33.95 -131.25 -19.3 -125.25 -9.55 -114.5 -33.8 -98.1 -51.55 -73.9 -58.8 -64.0 -63.35 -52.5 L-59.4 -39.7 Q-18.6 -41.9 18.75 -28.4 25.15 -26.1 31.5 -23.3" fill="#fd6602" fill-rule="evenodd" stroke="none"/>
  </g>
</svg>
