<?xml version="1.0" encoding="UTF-8" standalone="no"?>
<svg xmlns:ffdec="https://www.free-decompiler.com/flash" xmlns:xlink="http://www.w3.org/1999/xlink" ffdec:objectType="shape" height="200.6px" width="339.3px" xmlns="http://www.w3.org/2000/svg">
  <g transform="matrix(1.0, 0.0, 0.0, 1.0, 243.6, 103.7)">
    <path d="M-224.75 -40.7 Q-209.7 -43.15 -195.2 -47.15 -185.5 -50.7 -175.75 -53.35 -141.9 -65.5 -110.95 -87.1 -99.7 -94.95 -85.75 -97.15 -46.95 -103.35 -15.55 -87.95 -14.6 -87.5 -16.85 -87.9 -83.15 -101.15 -137.3 -63.1 -139.75 -61.4 -142.2 -59.85 L-109.85 -61.05 Q-100.35 -60.75 -92.15 -55.65 -78.05 -46.9 -77.65 -35.9 L-76.9 -36.1 Q-76.0 -36.35 -77.3 -34.95 L-77.6 -34.7 Q-77.6 -32.35 -78.35 -29.8 -78.7 -28.4 -80.7 -30.9 L-81.15 -31.5 Q-100.7 -14.9 -119.35 -28.8 -120.35 -29.5 -119.1 -30.8 -101.2 -30.05 -83.4 -34.3 -110.65 -65.6 -150.05 -54.9 -168.35 -44.35 -187.7 -39.65 -190.25 -38.7 -192.85 -37.9 -198.35 -36.0 -201.0 -37.15 L-225.5 -36.05 Q-226.1 -37.1 -225.85 -38.2 -225.7 -39.75 -224.75 -40.7 M-117.5 -25.75 Q-107.9 -23.4 -99.5 -9.4 -93.15 1.25 -101.8 -3.35 L-102.15 -3.35 Q-153.25 6.65 -184.75 46.3 -152.1 24.7 -113.85 42.25 -106.35 45.7 -97.5 44.4 -75.95 41.25 -73.2 56.6 -72.85 58.05 -75.55 57.5 -102.25 52.1 -129.4 47.25 -137.8 45.7 -146.45 44.85 -171.9 42.45 -192.6 57.5 -197.25 66.45 -192.7 76.3 -188.4 86.05 -183.15 92.85 -182.4 93.8 -184.85 93.25 -208.7 87.7 -204.35 60.65 -201.75 44.8 -189.55 33.7 -152.05 -3.4 -102.6 -3.8 -104.8 -5.05 -107.75 -7.15 -118.85 -14.8 -117.5 -25.75 M-66.05 65.25 Q-81.45 64.7 -93.75 71.5 -70.65 65.75 -45.25 72.05 -23.85 77.35 -2.55 83.75 22.9 91.45 -4.7 87.45 L-55.05 79.55 Q-75.25 76.1 -94.5 80.85 -101.55 82.65 -108.55 82.7 -109.6 82.65 -110.15 81.45 -110.75 80.5 -110.55 79.4 -110.35 77.8 -109.4 76.85 L-106.0 75.45 Q-106.15 73.85 -104.95 72.3 L-103.0 69.65 Q-82.25 50.1 -64.05 64.2 -62.65 65.4 -66.05 65.25" fill="#ff0000" fill-rule="evenodd" stroke="none"/>
    <path d="M22.05 -83.8 Q8.7 -85.45 -1.75 -89.9 -8.15 -88.05 -16.0 -89.05 L-16.0 -89.15 -15.85 -89.5 Q-32.6 -89.65 -49.15 -93.75 -87.25 -103.25 -119.1 -83.35 L-137.7 -71.65 Q-170.55 -51.05 -207.7 -44.1 L-221.65 -41.2 Q-206.2 -37.25 -191.0 -44.35 -168.15 -54.9 -142.65 -58.5 -140.5 -58.75 -138.9 -59.25 L-120.55 -58.0 -102.9 -54.95 Q-93.65 -53.05 -86.3 -47.2 -81.5 -43.35 -81.5 -39.25 L-81.25 -38.9 -80.85 -38.2 -80.65 -37.5 -80.55 -36.8 -80.65 -35.45 -80.9 -34.05 -81.25 -33.35 Q-98.2 -26.65 -116.7 -27.55 L-116.65 -27.25 Q-115.35 -21.5 -113.1 -16.05 -110.8 -10.45 -105.9 -7.55 -103.55 -6.15 -101.6 -3.75 -100.5 -2.45 -101.2 -0.95 -105.1 2.3 -108.55 1.6 L-108.8 1.85 -109.3 2.3 Q-134.95 3.3 -158.35 12.45 -177.35 19.85 -190.25 35.1 -205.05 52.6 -201.25 73.75 -199.5 83.75 -189.2 88.0 L-190.75 85.15 -192.45 81.05 Q-194.35 76.7 -194.4 72.0 L-194.45 65.75 Q-194.45 63.65 -194.6 61.55 -194.7 60.0 -193.95 58.7 -193.1 57.2 -191.9 56.0 L-191.25 55.3 Q-186.9 50.25 -180.75 47.75 -174.0 45.0 -166.7 44.45 L-142.65 45.2 -119.65 47.25 -96.2 49.5 Q-87.95 50.15 -83.5 54.8 L-80.6 55.05 Q-79.3 55.2 -78.2 56.0 L-77.1 57.15 -76.95 57.85 -76.85 58.55 -76.95 59.25 -77.1 59.95 -77.4 60.6 -78.25 62.0 Q-80.05 63.7 -82.5 63.45 -92.45 62.45 -99.15 70.25 L-101.2 72.9 -103.85 76.25 Q-96.5 75.15 -89.55 72.55 -85.4 71.0 -81.5 70.35 L-69.5 70.75 Q-65.95 71.0 -62.75 72.5 -61.85 72.9 -61.15 73.45 L-53.4 75.3 Q-42.3 78.4 -30.95 80.75 -17.55 83.5 -3.7 83.7 -0.85 83.75 0.0 86.55 L0.0 86.75 Q23.05 85.85 44.6 76.35 72.7 64.0 81.95 34.4 95.5 -8.95 74.3 -48.45 57.65 -79.4 22.05 -83.8 M-167.0 -66.25 Q-163.1 -69.0 -158.85 -71.15 -136.5 -82.25 -114.2 -93.65 -103.0 -99.4 -91.7 -103.7 L-73.4 -103.15 -52.1 -102.05 Q-41.7 -101.35 -31.6 -99.2 L-14.85 -95.65 -14.3 -98.3 -4.0 -96.65 -2.75 -96.3 Q47.85 -97.45 76.5 -59.45 97.75 -31.2 95.5 5.15 92.45 53.75 52.7 79.85 42.6 86.5 31.4 89.65 4.9 97.1 -19.5 90.95 L-25.15 90.35 Q-46.05 87.6 -65.85 81.8 L-73.15 80.0 -73.1 78.0 Q-82.05 77.75 -91.1 81.5 -98.35 84.5 -106.75 84.85 L-111.1 84.75 -113.9 84.0 -114.3 83.3 -114.45 83.0 Q-115.55 82.55 -116.5 81.9 L-117.35 80.75 -117.6 80.1 Q-117.85 78.5 -116.7 77.6 -111.75 73.9 -108.25 68.9 L-106.1 65.95 Q-103.1 61.9 -98.85 58.75 L-122.85 53.55 Q-154.1 46.95 -181.6 58.3 -187.2 60.6 -187.1 66.4 L-186.55 71.9 Q-186.0 75.05 -184.7 78.0 L-179.65 89.35 -179.9 90.0 -180.35 90.75 -180.85 91.35 -181.75 92.0 Q-180.2 93.8 -179.9 96.3 -194.75 99.85 -205.7 83.15 -214.35 69.95 -208.6 54.7 -197.7 25.5 -170.0 10.9 -144.35 -2.65 -116.1 -5.15 -119.25 -10.3 -121.25 -16.0 -122.95 -20.65 -125.05 -25.0 L-126.8 -29.05 -128.7 -29.9 Q-130.8 -30.95 -132.35 -32.7 -133.4 -33.9 -133.3 -35.4 L-133.1 -36.8 -107.9 -36.1 Q-99.55 -35.85 -91.5 -37.9 -93.8 -39.45 -96.15 -41.3 -107.2 -50.15 -122.25 -50.15 -161.65 -50.2 -197.15 -34.3 -206.85 -29.9 -217.7 -30.65 -228.85 -31.4 -235.35 -37.85 -240.95 -36.9 -243.55 -42.15 -243.85 -44.95 -241.1 -45.35 -212.75 -49.65 -185.1 -57.6 -175.35 -60.35 -167.0 -66.25" fill="#000000" fill-rule="evenodd" stroke="none"/>
  </g>
</svg>
