<?xml version="1.0" encoding="UTF-8" standalone="no"?>
<svg xmlns:ffdec="https://www.free-decompiler.com/flash" xmlns:xlink="http://www.w3.org/1999/xlink" ffdec:objectType="shape" height="195.05px" width="314.25px" xmlns="http://www.w3.org/2000/svg">
  <g transform="matrix(1.0, 0.0, 0.0, 1.0, 218.55, 100.8)">
    <path d="M-167.2 -36.1 L-166.5 -37.6 Q-123.2 -33.9 -79.55 -36.9 L-79.2 -36.6 Q-98.15 -25.15 -126.4 -25.05 -139.9 -25.0 -151.8 -28.05 -131.5 -18.0 -109.45 -10.5 -103.15 -11.5 -97.3 -7.1 L-97.95 -6.8 -92.0 -5.05 -91.9 -4.55 Q-97.9 -4.15 -103.7 -4.3 -130.15 7.2 -159.15 25.15 -162.6 27.25 -166.05 28.65 -123.65 34.75 -80.7 42.7 -75.0 43.7 -70.3 46.2 L-69.4 45.0 -68.95 44.9 -68.65 47.25 Q-64.85 49.6 -61.7 53.05 L-68.95 53.8 Q-71.3 64.15 -85.0 68.45 -34.75 81.25 16.95 88.95 17.4 89.05 17.65 89.7 -13.65 100.85 -48.85 84.8 -57.05 80.95 -66.4 80.9 -87.85 80.8 -99.75 70.95 -105.85 70.85 -110.05 67.3 -110.5 66.0 -110.0 64.85 L-109.15 63.2 -106.8 63.2 -107.2 62.55 -105.0 63.25 Q-87.6 62.55 -76.45 52.9 -83.15 51.5 -90.65 47.9 -109.45 38.85 -130.8 39.75 -163.45 41.15 -192.5 29.35 L-192.7 29.0 -195.05 27.95 Q-195.85 26.7 -195.35 25.45 L-194.4 23.85 Q-154.45 26.2 -122.45 -3.45 L-119.1 -6.25 Q-148.65 -12.25 -171.15 -37.4 -171.4 -37.75 -171.05 -38.25 L-167.2 -36.1 M-158.95 -61.5 L-152.7 -62.85 Q-152.8 -63.5 -152.5 -64.25 L-151.6 -65.95 Q-96.25 -86.1 -40.2 -99.45 -23.7 -103.4 -9.6 -95.65 -18.05 -88.6 -34.7 -91.75 -59.9 -96.65 -83.3 -82.8 -106.75 -68.95 -130.55 -64.1 -102.1 -62.05 -79.85 -39.15 -79.6 -38.9 -79.7 -38.35 -96.0 -40.55 -114.4 -49.8 -135.95 -60.7 -159.0 -56.35 -160.05 -57.45 -159.85 -59.1 -159.8 -60.6 -158.95 -61.5" fill="#ff0000" fill-rule="evenodd" stroke="none"/>
    <path d="M8.3 -96.05 Q51.05 -93.2 76.5 -59.45 97.75 -31.2 95.5 5.15 92.45 53.75 52.7 79.85 42.6 86.5 31.4 89.65 4.9 97.1 -19.5 90.95 L-25.15 90.35 -41.05 87.8 -40.95 87.5 -40.6 86.75 -40.3 86.15 Q-52.45 86.8 -66.9 84.75 -81.65 82.65 -95.65 77.9 L-99.1 76.4 Q-108.0 71.55 -113.0 63.2 L-112.95 62.5 -112.75 61.8 -112.45 61.1 -112.0 60.45 -111.05 59.85 Q-110.2 59.5 -109.3 59.25 L-107.85 60.25 Q-106.55 59.6 -104.75 59.9 -95.7 61.5 -88.9 56.7 L-88.85 56.0 -88.7 55.5 Q-96.95 51.95 -106.45 49.4 -108.6 48.8 -110.75 48.55 L-176.65 40.3 Q-183.3 39.45 -189.1 35.8 -194.15 32.65 -198.65 28.7 L-198.85 28.0 -199.05 27.3 -199.1 26.6 -199.1 25.9 -199.05 25.25 -198.8 24.55 -198.4 23.85 -197.9 23.2 -197.25 22.7 -196.75 22.55 -195.4 22.35 -195.4 22.2 -193.85 23.25 Q-173.8 23.75 -156.2 13.5 -147.65 8.55 -139.75 2.3 -135.65 -0.9 -132.05 -4.5 -137.2 -5.65 -142.7 -9.0 -150.7 -13.9 -158.25 -20.15 -163.0 -24.1 -167.0 -28.65 -171.15 -33.35 -173.15 -38.65 L-172.9 -39.35 -172.45 -40.05 -171.95 -40.7 -171.3 -41.2 -170.85 -41.35 -170.25 -41.4 -170.1 -41.6 -169.45 -42.1 -169.0 -42.3 -167.65 -42.5 -167.6 -42.6 Q-161.2 -40.8 -154.55 -39.95 L-134.45 -36.9 Q-124.25 -35.1 -114.1 -37.85 -108.15 -39.45 -102.15 -39.75 L-103.15 -40.5 Q-110.75 -46.8 -120.5 -49.1 -145.15 -55.0 -168.05 -54.65 L-168.3 -55.35 -168.5 -56.05 -168.55 -56.7 -168.5 -57.4 -168.3 -58.1 -167.8 -58.8 -167.15 -59.5 -166.4 -60.15 -166.05 -60.35 Q-156.0 -70.2 -139.35 -72.85 -137.0 -73.25 -134.9 -74.0 -112.45 -82.3 -89.1 -88.0 L-81.05 -90.15 Q-45.45 -100.45 -8.35 -98.15 L3.65 -97.7 Q6.2 -97.5 8.3 -96.05 M2.75 -88.2 L2.75 -90.5 Q-34.65 -92.1 -74.35 -83.9 -78.95 -82.95 -83.35 -81.45 -105.6 -73.8 -128.7 -67.1 -136.3 -64.9 -143.7 -61.9 L-140.7 -61.55 Q-132.05 -60.3 -123.45 -58.45 -113.85 -56.4 -104.85 -51.9 -96.8 -47.85 -91.7 -41.0 -91.8 -39.65 -92.4 -38.85 L-91.7 -37.5 -91.75 -36.85 -91.9 -36.1 -92.2 -35.45 -92.65 -34.75 -93.3 -34.05 -107.15 -30.2 Q-110.4 -29.25 -113.9 -29.1 -128.8 -28.65 -143.55 -28.9 -150.8 -29.05 -157.0 -30.9 L-156.0 -29.95 Q-150.0 -24.35 -142.9 -20.45 -135.55 -16.5 -127.6 -13.9 -120.15 -11.5 -118.75 -5.55 -121.0 -4.6 -123.35 -4.2 -127.35 5.15 -137.25 11.45 -146.95 17.6 -157.1 22.65 -169.2 28.65 -182.45 29.85 -176.6 32.75 -170.35 34.9 -166.9 36.1 -163.2 36.25 -147.0 37.05 -130.8 37.0 -113.75 36.95 -97.75 42.3 -87.1 45.9 -78.5 52.75 L-78.05 53.5 -77.85 54.15 -77.8 54.85 -77.8 55.55 -77.8 56.25 -77.85 56.9 -78.05 57.6 -78.55 58.3 -79.9 59.7 -81.55 58.85 Q-81.85 60.1 -82.7 61.4 -85.8 66.05 -91.35 67.35 L-94.9 68.05 -90.3 70.35 Q-82.35 74.15 -73.45 74.85 L-50.05 76.4 Q-42.7 76.8 -37.6 79.4 L-37.55 79.35 -30.95 80.75 Q-17.55 83.5 -3.7 83.7 -0.85 83.75 0.0 86.55 L0.0 86.75 Q23.05 85.85 44.6 76.35 72.7 64.0 81.95 34.4 95.5 -8.95 74.3 -48.45 57.65 -79.4 22.05 -83.8 12.0 -85.05 3.65 -87.85 L3.45 -87.3 3.2 -86.6 2.9 -85.95 2.75 -85.7 2.75 -88.2 M-218.55 47.9 L-218.5 47.2 -218.25 46.55 -217.8 45.85 -217.15 45.15 -216.55 45.1 -216.6 47.9 -216.6 49.25 -218.55 48.6 -218.55 47.9" fill="#000000" fill-rule="evenodd" stroke="none"/>
  </g>
</svg>
