<?xml version="1.0" encoding="UTF-8" standalone="no"?>
<svg xmlns:ffdec="https://www.free-decompiler.com/flash" xmlns:xlink="http://www.w3.org/1999/xlink" ffdec:objectType="shape" height="83.5px" width="44.8px" xmlns="http://www.w3.org/2000/svg">
  <g transform="matrix(1.0, 0.0, 0.0, 1.0, 20.1, -80.4)">
    <path d="M18.7 86.05 Q20.7 86.75 20.7 89.5 20.7 90.5 20.0 92.75 22.05 93.45 22.7 97.8 L23.25 103.85 23.5 108.15 Q23.5 109.45 22.7 110.4 L22.15 110.95 Q21.3 109.5 19.7 109.75 18.9 109.85 18.25 110.45 16.9 108.7 16.3 104.0 L16.25 102.65 14.8 106.0 13.5 110.05 Q12.0 110.9 11.65 113.3 10.9 113.35 10.2 113.95 8.3 115.45 8.3 117.35 L8.35 118.2 Q7.55 118.15 6.6 118.6 5.2 119.2 4.65 120.45 L4.2 119.7 3.9 117.75 4.0 117.15 4.5 116.5 4.95 115.5 Q8.0 115.35 9.15 110.75 L10.0 105.1 Q13.2 95.9 13.5 94.25 L15.5 88.8 16.05 87.4 Q17.8 86.95 18.7 86.05 M20.45 122.3 L21.4 129.2 22.5 139.75 Q23.5 149.95 23.5 152.3 23.5 154.6 23.3 155.3 22.7 157.5 20.3 157.5 20.05 153.65 18.4 146.85 16.45 138.75 16.3 134.0 16.1 125.6 15.7 121.7 L15.4 118.65 Q16.1 118.45 16.65 118.0 L16.7 118.7 Q17.6 122.3 19.9 122.3 L20.45 122.3 M-4.05 140.7 L-5.45 140.5 -4.5 139.45 Q-4.0 138.45 -4.15 137.25 L-0.1 136.7 Q1.45 136.55 2.35 135.45 3.1 134.6 3.1 133.6 3.1 132.7 2.6 132.0 3.5 131.15 3.5 129.6 3.5 127.5 0.2 126.4 1.15 125.0 2.7 124.9 3.55 124.85 4.35 125.25 L4.7 128.4 4.0 138.6 Q2.95 137.25 0.3 137.05 -4.1 136.75 -4.1 140.35 L-4.05 140.7" fill="#990000" fill-rule="evenodd" stroke="none"/>
    <path d="M8.7 159.7 L7.5 159.9 Q4.85 159.9 3.9 154.2 L3.5 148.2 3.75 142.95 3.8 142.9 Q4.7 142.05 4.7 140.8 4.7 139.45 4.0 138.6 L4.7 128.4 4.35 125.25 4.2 122.95 Q4.15 121.5 4.65 120.45 5.2 119.2 6.6 118.6 7.55 118.15 8.35 118.2 L8.85 122.55 9.5 128.0 9.9 138.95 Q9.9 144.45 9.3 149.1 8.7 153.75 8.7 157.7 L8.7 159.7 M-14.9 136.25 Q-16.85 136.0 -17.5 134.35 L-17.7 132.25 Q-17.7 129.45 -14.4 127.65 -11.5 126.05 -7.1 125.75 -2.85 125.4 0.2 126.4 3.5 127.5 3.5 129.6 3.5 131.15 2.6 132.0 2.0 131.25 0.75 130.75 L0.6 130.7 Q-0.95 128.25 -7.1 130.4 -10.1 131.4 -12.75 133.05 -15.3 134.7 -15.3 135.5 L-14.9 136.25 M4.0 117.15 Q3.2 117.9 1.9 117.9 -1.15 117.9 -1.7 112.2 L-1.7 106.35 Q-1.7 102.25 -1.25 99.25 -0.85 96.3 0.4 91.8 2.65 83.55 6.4 82.55 L7.3 82.45 Q6.7 83.25 6.7 84.35 6.7 85.35 7.4 86.3 L8.75 87.45 8.1 88.6 6.35 93.1 Q4.7 97.6 4.7 98.35 L4.8 99.0 Q3.5 102.3 3.5 103.95 L3.7 104.9 3.25 106.3 Q1.5 111.9 1.5 112.35 1.5 113.15 2.0 114.0 2.85 115.5 4.7 115.5 L4.95 115.5 4.5 116.5 4.0 117.15" fill="#ff0200" fill-rule="evenodd" stroke="none"/>
    <path d="M7.3 82.45 Q8.6 80.55 13.1 80.4 19.5 80.2 19.5 84.0 19.5 85.2 18.7 86.05 17.8 86.95 16.05 87.4 L15.5 88.8 13.5 94.25 Q13.2 95.9 10.0 105.1 L9.15 110.75 Q8.0 115.35 4.95 115.5 L4.7 115.5 Q2.85 115.5 2.0 114.0 1.5 113.15 1.5 112.35 1.5 111.9 3.25 106.3 L3.7 104.9 3.5 103.95 Q3.5 102.3 4.8 99.0 L4.7 98.35 Q4.7 97.6 6.35 93.1 L8.1 88.6 8.75 87.45 7.4 86.3 Q6.7 85.35 6.7 84.35 6.7 83.25 7.3 82.45 M22.15 110.95 Q23.1 112.5 23.1 116.2 L23.1 119.5 Q22.65 122.0 20.45 122.3 L19.9 122.3 Q17.6 122.3 16.7 118.7 L16.65 118.0 Q16.1 118.45 15.4 118.65 L15.7 121.7 Q16.1 125.6 16.3 134.0 16.45 138.75 18.4 146.85 20.05 153.65 20.3 157.5 L20.3 158.6 Q20.3 160.85 18.8 161.9 17.15 163.1 13.1 163.1 9.45 163.1 8.7 160.4 L8.7 159.7 8.7 157.7 Q8.7 153.75 9.3 149.1 9.9 144.45 9.9 138.95 L9.5 128.0 8.85 122.55 8.35 118.2 8.3 117.35 Q8.3 115.45 10.2 113.95 10.9 113.35 11.65 113.3 12.0 110.9 13.5 110.05 L14.9 109.55 Q16.25 109.35 17.25 110.3 L17.75 110.95 18.25 110.45 Q18.9 109.85 19.7 109.75 21.3 109.5 22.15 110.95 M3.75 142.95 Q2.75 143.9 0.9 143.9 -2.15 143.9 -3.4 142.3 -4.0 141.6 -4.05 140.7 L-4.1 140.35 Q-4.1 136.75 0.3 137.05 2.95 137.25 4.0 138.6 4.7 139.45 4.7 140.8 4.7 142.05 3.8 142.9 L3.75 142.95 M-5.45 140.5 Q-6.4 141.1 -7.9 141.1 -12.15 141.1 -14.9 136.25 L-15.3 135.5 Q-15.3 134.7 -12.75 133.05 -10.1 131.4 -7.1 130.4 -0.95 128.25 0.6 130.7 L0.75 130.75 Q2.0 131.25 2.6 132.0 3.1 132.7 3.1 133.6 3.1 134.6 2.35 135.45 1.45 136.55 -0.1 136.7 L-4.15 137.25 Q-4.0 138.45 -4.5 139.45 L-5.45 140.5" fill="#ce0000" fill-rule="evenodd" stroke="none"/>
    <path d="M18.1 82.9 L18.4 82.6 18.9 82.4 19.5 82.3 20.3 82.5 20.8 82.8 21.1 83.1 21.2 83.4 21.4 83.7 21.5 84.0 21.5 84.3 21.5 84.6 21.5 84.9 21.5 85.2 21.9 85.3 22.4 85.6 22.7 85.9 22.8 86.2 23.0 86.5 23.1 86.8 23.1 87.1 23.2 87.4 23.4 87.7 23.5 88.0 23.5 88.3 23.5 88.6 23.5 88.9 23.5 89.2 23.5 89.5 23.5 89.8 23.6 90.1 23.7 90.4 23.8 90.7 23.9 91.0 23.9 91.3 23.9 91.6 23.9 91.9 23.9 92.2 23.9 92.5 23.9 92.8 23.9 93.1 23.9 93.4 23.9 93.7 23.9 94.0 23.9 94.3 23.9 94.6 23.9 94.9 23.9 95.2 23.9 95.5 23.9 95.8 23.9 96.1 23.9 96.4 23.9 96.7 23.9 97.0 23.9 97.3 23.9 97.6 23.9 97.9 23.9 98.2 23.9 98.5 23.9 98.8 23.9 99.1 23.9 99.4 23.9 99.7 23.9 100.0 23.9 100.3 24.0 100.6 24.2 100.9 24.3 101.2 24.3 101.5 24.3 101.8 24.3 102.1 24.3 102.4 24.3 102.7 24.3 103.0 24.3 103.3 24.3 103.6 24.3 103.9 24.3 104.2 24.3 104.5 24.3 104.8 24.3 105.1 24.3 105.4 24.3 105.7 24.3 106.0 24.3 106.3 24.3 106.6 24.3 106.9 24.3 107.2 24.3 107.5 24.3 107.8 24.3 108.1 24.3 108.4 24.3 108.7 24.3 109.0 24.3 109.3 24.3 109.6 24.3 109.9 24.3 110.2 24.3 110.5 24.3 110.8 24.5 111.1 24.6 111.4 24.7 111.7 24.7 112.0 24.7 112.3 24.7 112.6 24.7 112.9 24.7 113.2 24.7 113.5 24.7 113.8 24.7 114.1 24.7 114.4 24.7 114.7 24.7 115.0 24.7 115.3 24.7 115.6 24.7 115.9 24.7 116.2 24.7 116.5 24.7 116.8 24.7 117.1 24.7 117.4 24.7 117.7 24.7 118.0 24.7 118.3 24.7 118.6 24.7 118.9 24.7 119.2 24.7 119.5 24.7 119.8 24.7 120.1 24.7 120.4 24.7 120.7 24.7 121.0 24.6 121.3 24.4 121.6 24.3 121.9 24.0 122.2 23.5 122.5 22.7 122.7 21.9 122.9 21.1 123.1 21.1 123.4 21.1 123.7 21.2 124.0 21.3 124.3 21.4 124.6 21.5 124.9 21.5 125.2 21.5 125.5 21.5 125.8 21.5 126.1 21.5 126.4 21.5 126.7 21.5 127.0 21.6 127.3 21.7 127.6 21.8 127.9 21.9 128.2 21.9 128.5 21.9 128.8 21.9 129.1 22.0 129.4 22.2 129.7 22.3 130.0 22.3 130.3 22.3 130.6 22.4 130.9 22.5 131.2 22.6 131.5 22.7 131.8 22.7 132.1 22.7 132.4 22.7 132.7 22.7 133.0 22.7 133.3 22.7 133.6 22.7 133.9 22.7 134.2 22.7 134.5 22.7 134.8 22.7 135.1 22.7 135.4 22.8 135.7 22.9 136.0 23.0 136.3 23.1 136.6 23.1 136.9 23.1 137.2 23.1 137.5 23.2 137.8 23.4 138.1 23.5 138.4 23.5 138.7 23.5 139.0 23.5 139.3 23.5 139.6 23.5 139.9 23.5 140.2 23.5 140.5 23.5 140.8 23.5 141.1 23.5 141.4 23.5 141.7 23.5 142.0 23.5 142.3 23.6 142.6 23.8 142.9 23.9 143.2 23.9 143.5 23.9 143.8 23.9 144.1 23.9 144.4 23.9 144.7 23.9 145.0 23.9 145.3 23.9 145.6 23.9 145.9 23.9 146.2 23.9 146.5 23.9 146.8 23.9 147.1 23.9 147.4 23.9 147.7 23.9 148.0 23.9 148.3 23.9 148.6 23.9 148.9 23.9 149.2 23.9 149.5 23.9 149.8 23.9 150.1 23.9 150.4 23.9 150.7 23.9 151.0 23.9 151.3 23.9 151.6 23.9 151.9 23.9 152.2 23.9 152.5 23.9 152.8 23.9 153.1 23.9 153.4 23.9 153.7 23.9 154.0 23.9 154.3 23.9 154.6 23.9 154.9 23.9 155.2 23.9 155.5 23.9 155.8 23.9 156.1 23.8 156.4 23.7 156.7 23.5 157.0 23.5 157.3 23.5 157.6 23.5 157.9 23.5 158.2 23.4 158.5 23.2 158.8 23.1 159.1 23.1 159.4 23.0 159.7 22.8 160.0 22.7 160.3 22.4 160.6 22.1 160.9 21.8 161.2 21.5 161.5 21.2 161.8 20.9 162.1 20.6 162.4 20.3 162.7 20.0 163.0 19.5 163.3 18.7 163.5 17.9 163.7 17.1 163.9 9.9 163.9 9.0 163.7 8.7 163.5 7.8 163.3 7.2 163.0 6.7 162.7 6.4 162.4 6.1 162.1 5.8 161.8 5.5 161.5 5.2 161.2 4.9 160.9 4.6 160.6 4.4 160.3 4.3 160.0 4.1 159.7 4.0 159.4 3.9 159.1 3.9 158.8 3.9 158.5 3.9 158.2 3.9 157.9 3.9 157.6 3.9 157.3 3.8 157.0 3.6 156.7 3.5 156.4 3.5 156.1 3.5 155.8 3.5 155.5 3.5 155.2 3.5 154.9 3.5 154.6 3.5 154.3 3.5 154.0 3.5 153.7 3.5 153.4 3.5 153.1 3.6 152.8 3.7 152.5 3.6 152.2 3.5 151.9 3.5 151.6 3.5 151.3 3.5 151.0 3.5 150.7 3.5 150.4 3.5 150.1 3.5 149.8 3.5 149.5 3.5 149.2 3.5 148.9 3.5 148.6 3.5 148.3 3.5 148.0 3.5 147.7 3.5 147.4 3.5 147.1 3.5 146.8 3.5 146.5 3.5 146.2 3.5 145.9 3.5 145.6 3.5 145.3 3.5 145.0 3.4 144.7 3.3 144.4 3.1 144.5 2.3 144.7 -2.9 144.7 -3.8 144.5 -4.5 144.3 -5.4 144.1 -6.5 143.9 -7.4 143.7 -7.7 143.5 -8.6 143.3 -9.0 143.1 -9.8 142.9 -10.9 142.7 -11.8 142.5 -12.1 142.3 -13.0 142.1 -13.6 141.8 -14.1 141.5 -14.8 141.2 -15.1 140.9 -15.6 140.6 -16.1 140.3 -16.4 140.0 -16.7 139.7 -17.2 139.4 -17.7 139.1 -18.0 138.8 -18.3 138.5 -18.6 138.2 -18.8 137.9 -18.9 137.6 -19.1 137.3 -19.2 137.0 -19.3 136.7 -19.5 136.4 -19.6 136.1 -19.8 135.8 -20.0 135.5 -20.1 135.2 -20.1 134.9 -20.1 134.6 -20.1 134.3 -20.1 134.0 -20.1 133.7 -20.1 133.4 -20.1 133.1 -20.1 132.8 -20.1 132.5 -20.1 132.2 -20.0 131.9 -19.8 131.6 -19.7 131.3 -19.7 131.0 -19.6 130.7 -19.4 130.4 -19.2 130.1 -19.1 129.8 -18.9 129.5 -18.8 129.2 -18.7 128.9 -18.4 128.6 -18.1 128.3 -17.8 128.0 -17.5 127.7 -17.3 127.4 -17.2 127.1 -17.0 126.8 -16.8 126.5 -16.7 126.2 -16.5 125.9 -16.2 125.6 -16.0 125.3 -15.9 125.0 -15.7 124.7 -15.4 124.4 -15.1 124.1 -14.8 123.8 -14.5 123.5 -14.2 123.2 -13.8 122.9 -12.9 122.7 -12.2 122.5 -11.3 122.4 -11.3 122.3 -7.7 122.3 -6.9 122.5 -4.9 122.7 -4.1 122.9 -2.1 123.1 -1.3 123.3 0.1 123.3 0.4 123.0 0.9 122.8 1.5 122.7 1.9 122.8 1.9 122.5 1.9 122.2 1.9 121.9 1.9 121.6 1.9 121.5 1.0 121.3 0.4 121.0 -0.1 120.7 -0.4 120.4 -0.7 120.1 -1.0 119.8 -1.3 119.5 -1.6 119.2 -1.9 118.9 -2.2 118.6 -2.5 118.3 -2.8 118.0 -3.1 117.7 -3.4 117.4 -3.6 117.1 -3.7 116.8 -3.9 116.5 -4.0 116.2 -4.1 115.9 -4.1 115.6 -4.3 115.3 -4.6 115.0 -4.8 114.7 -4.9 114.4 -4.9 114.1 -5.0 113.8 -5.2 113.5 -5.3 113.2 -5.3 112.9 -5.3 112.6 -5.3 112.3 -5.3 112.0 -5.3 111.7 -5.3 111.4 -5.3 111.1 -5.3 110.8 -5.3 110.5 -5.3 110.2 -5.3 109.9 -5.3 109.6 -5.3 109.3 -5.3 109.0 -5.3 108.7 -5.3 108.4 -5.3 108.1 -5.3 107.8 -5.2 107.5 -5.0 107.2 -4.9 106.9 -4.9 106.6 -4.9 106.3 -4.9 106.0 -4.9 105.7 -4.9 105.4 -4.9 105.1 -4.9 104.8 -4.9 104.5 -4.9 104.2 -4.9 103.9 -4.8 103.6 -4.7 103.3 -4.5 103.0 -4.5 102.7 -4.4 102.4 -4.3 102.1 -4.1 101.8 -4.1 101.5 -4.1 101.2 -4.0 100.9 -3.9 100.6 -3.8 100.3 -3.7 100.0 -3.7 99.7 -3.7 99.4 -3.7 99.1 -3.6 98.8 -3.5 98.5 -3.3 98.2 -3.3 97.9 -3.2 97.6 -3.1 97.3 -2.9 97.0 -2.9 96.7 -2.9 96.4 -2.9 96.1 -2.9 95.8 -2.9 95.5 -2.8 95.2 -2.7 94.9 -2.5 94.6 -2.4 94.3 -2.2 94.0 -2.1 93.7 -2.1 93.4 -2.1 93.1 -2.0 92.8 -1.9 92.5 -1.7 92.2 -1.7 91.9 -1.7 91.6 -1.6 91.3 -1.5 91.0 -1.4 90.7 -1.3 90.4 -1.3 90.1 -1.3 89.8 -1.2 89.5 -1.0 89.2 -0.8 88.9 -0.7 88.6 -0.6 88.3 -0.5 88.0 -0.4 87.7 -0.3 87.4 -0.2 87.1 0.0 86.8 0.1 86.5 0.3 86.2 0.3 85.9 0.4 85.6 0.5 85.3 0.8 85.0 1.0 84.7 1.1 84.4 1.2 84.1 1.3 83.8 1.5 83.5 1.6 83.2 1.7 82.9 2.0 82.6 2.3 82.3 2.6 82.1 2.9 82.0 3.5 82.0 3.5 81.9 3.9 81.9 4.7 82.1 5.2 82.4 5.5 82.7 5.6 83.0 5.8 83.3 5.9 83.6 5.9 83.9 5.9 84.2 5.8 84.5 5.6 84.8 5.5 85.1 5.2 85.4 5.0 85.7 4.9 86.0 4.7 86.3 4.6 86.6 4.4 86.9 4.3 87.2 4.2 87.5 4.1 87.8 4.0 88.1 3.8 88.4 3.5 88.7 3.5 89.0 3.4 89.3 3.3 89.6 3.1 89.9 3.1 90.2 3.0 90.5 2.8 90.8 2.7 91.1 2.7 91.4 2.6 91.7 2.5 92.0 2.3 92.3 2.3 92.6 2.3 92.9 2.2 93.2 2.1 93.5 2.0 93.8 1.9 94.1 1.9 94.4 1.9 94.7 1.8 95.0 1.6 95.3 1.5 95.6 1.3 95.9 1.2 96.2 1.1 96.5 1.1 96.8 1.1 97.1 1.1 97.4 1.1 97.7 1.0 98.0 0.9 98.3 0.8 98.6 0.7 98.9 0.7 99.2 0.6 99.5 0.5 99.8 0.4 100.1 0.3 100.4 0.3 100.7 0.3 101.0 0.2 101.3 0.1 101.6 -0.1 101.9 -0.1 102.2 -0.1 102.5 -0.1 102.8 -0.2 103.1 -0.3 103.4 -0.4 103.7 -0.5 104.0 -0.6 104.3 -0.7 104.6 -0.8 104.9 -0.9 105.2 -0.9 105.5 -0.9 105.8 -0.9 106.1 -0.9 106.4 -0.9 106.7 -0.9 107.0 -0.9 107.3 -0.9 107.6 -0.9 107.9 -0.9 108.2 -1.0 108.5 -1.2 108.8 -1.3 109.1 -1.3 109.4 -1.3 109.7 -1.3 110.0 -1.3 110.3 -1.3 110.6 -1.3 110.9 -1.3 111.2 -1.3 111.5 -1.3 111.8 -1.2 112.1 -1.1 112.4 -1.0 112.7 -0.9 113.0 -0.7 113.3 -0.5 113.6 -0.3 113.9 -0.2 114.2 0.0 114.5 0.1 114.8 0.3 115.1 0.5 115.4 0.9 115.7 1.1 116.0 1.3 116.3 1.4 116.6 1.9 116.9 2.4 117.2 2.6 117.4 3.5 117.5 4.1 117.6 4.5 117.6 5.2 117.4 5.9 117.1 6.2 116.8 6.5 116.5 6.8 116.2 7.1 115.9 7.4 115.6 7.7 115.3 7.9 115.0 8.0 114.7 8.2 114.4 8.5 114.1 8.7 113.8 8.7 113.5 8.8 113.2 8.9 112.9 9.1 112.6 9.2 112.3 9.4 112.0 9.6 111.7 9.7 111.4 9.9 111.1 10.2 110.8 10.3 110.5 10.3 110.2 10.4 109.9 10.6 109.6 10.8 109.3 10.9 109.0 11.0 108.7 11.1 108.4 11.1 108.1 11.1 107.8 11.2 107.5 11.4 107.2 11.6 106.9 11.7 106.6 11.8 106.3 11.9 106.0 12.0 105.7 12.1 105.4 12.2 105.1 12.3 104.8 12.3 104.5 12.3 104.2 12.4 103.9 12.6 103.6 12.7 103.3 12.7 103.0 12.7 102.7 12.7 102.4 12.8 102.1 12.9 101.8 13.0 101.5 13.1 101.2 13.1 100.9 13.1 100.6 13.1 100.3 13.1 100.0 13.1 99.7 13.1 99.4 13.2 99.1 13.4 98.8 13.5 98.5 13.5 98.2 13.6 97.9 13.8 97.6 13.9 97.3 13.9 97.0 13.9 96.7 13.9 96.4 13.9 96.1 13.9 95.8 14.0 95.5 14.2 95.2 14.4 94.9 14.5 94.6 14.6 94.3 14.7 94.0 14.8 93.7 14.9 93.4 15.0 93.1 15.1 92.8 15.2 92.5 15.3 92.2 15.4 91.9 15.5 91.6 15.6 91.3 15.7 91.0 15.8 90.7 15.9 90.4 15.9 90.1 15.9 89.8 16.0 89.5 16.2 89.2 16.4 88.9 16.5 88.6 16.7 88.3 16.8 88.0 16.9 87.7 17.1 87.4 17.1 87.1 17.2 86.8 17.3 86.5 17.5 86.2 17.5 85.9 17.5 85.6 17.5 85.3 17.5 85.0 17.5 84.7 17.5 84.4 17.5 84.1 17.5 83.8 17.6 83.5 17.8 83.2 18.1 82.9 M19.5 92.7 L19.5 93.0 19.4 93.3 19.2 93.6 19.1 93.9 19.1 94.2 19.0 94.5 18.8 94.8 18.7 95.1 18.6 95.4 18.4 95.7 18.3 96.0 18.2 96.3 18.1 96.6 18.0 96.9 17.9 97.2 17.9 97.5 17.9 97.8 17.9 98.1 17.8 98.4 17.7 98.7 17.6 99.0 17.5 99.3 17.4 99.6 17.3 99.9 17.2 100.2 17.1 100.5 17.1 100.8 17.1 101.1 17.1 101.4 17.1 101.7 17.1 102.0 17.1 102.3 17.1 102.6 17.1 102.9 17.0 103.2 16.9 103.5 16.7 103.8 16.7 104.1 16.7 104.4 16.6 104.7 16.6 104.8 17.1 104.9 17.6 105.2 17.9 105.5 18.0 105.8 18.2 106.1 18.3 106.4 18.3 106.7 18.4 107.0 18.6 107.3 18.7 107.6 18.7 107.9 18.7 108.2 18.8 108.5 19.0 108.8 19.1 109.1 19.2 109.4 19.3 109.55 19.45 109.2 19.5 109.3 19.5 109.6 19.5 109.9 19.5 110.0 19.5 110.2 19.5 110.3 19.5 110.5 19.5 110.6 19.5 110.8 19.5 110.9 19.5 111.1 19.5 111.2 19.6 111.5 19.7 111.8 19.8 112.1 19.9 112.4 20.0 112.7 20.1 113.0 20.2 113.3 20.4 113.6 20.5 113.9 20.6 114.2 20.7 114.5 20.7 114.2 20.7 113.9 20.7 113.6 20.7 113.3 20.7 113.0 20.6 112.7 20.5 112.4 20.4 112.1 20.3 111.8 20.3 111.5 20.3 111.2 20.3 110.9 20.3 110.6 20.3 110.3 20.3 110.0 20.3 109.7 20.3 109.4 20.3 109.1 20.3 108.8 20.3 108.5 20.3 108.2 20.3 107.9 20.3 107.6 20.3 107.3 20.3 107.0 20.3 106.7 20.3 106.4 20.3 106.1 20.3 105.8 20.3 105.5 20.3 105.2 20.3 104.9 20.3 104.6 20.3 104.3 20.3 104.0 20.3 103.7 20.3 103.4 20.3 103.1 20.3 102.8 20.3 102.5 20.3 102.2 20.2 101.9 20.1 101.6 20.0 101.3 19.9 101.0 19.9 100.7 19.9 100.4 19.9 100.1 19.9 99.8 19.9 99.5 19.9 99.2 19.9 98.9 19.9 98.6 19.9 98.3 19.9 98.0 19.9 97.7 19.9 97.4 19.9 97.1 19.9 96.8 19.9 96.5 19.9 96.2 19.9 95.9 19.9 95.6 19.9 95.3 19.9 95.0 19.9 94.7 19.9 94.4 19.9 94.1 19.9 93.8 19.9 93.5 19.9 93.2 19.9 92.9 19.9 92.6 19.9 92.3 19.9 92.0 19.9 91.8 19.8 92.1 19.6 92.4 19.5 92.7 M20.35 117.85 L20.4 118.0 20.5 118.3 20.6 118.6 20.65 118.75 20.7 118.7 20.7 118.4 20.7 118.1 20.7 117.8 20.7 117.5 20.4 117.8 20.35 117.85 M15.05 109.95 L15.0 110.1 14.8 110.4 14.7 110.7 14.5 111.0 14.4 111.3 14.3 111.6 14.2 111.9 14.1 112.2 14.0 112.5 13.8 112.8 13.5 113.1 13.3 113.4 13.2 113.7 13.0 114.0 12.9 114.3 12.7 114.6 12.7 114.9 12.6 115.2 12.5 115.5 12.3 115.8 12.2 116.1 12.0 116.4 11.9 116.7 11.6 117.0 11.4 117.3 11.2 117.6 11.1 117.9 10.8 118.2 10.5 118.5 10.2 118.8 9.8 119.1 9.5 119.4 9.3 119.7 9.0 120.0 8.7 120.3 8.4 120.6 7.9 120.9 6.9 121.2 6.3 121.5 6.0 121.7 5.9 121.75 5.9 122.0 5.9 122.3 5.9 122.6 5.9 122.9 5.9 123.2 5.9 123.5 5.9 123.8 5.9 124.1 5.9 124.4 5.9 124.7 5.9 125.0 5.9 125.3 5.9 125.6 5.9 125.9 5.9 126.2 5.9 126.5 5.9 126.8 5.9 127.1 5.9 127.4 5.9 127.7 5.9 128.0 5.9 128.3 5.9 128.6 5.9 128.9 5.9 129.2 5.9 129.5 5.9 129.8 5.9 130.1 5.9 130.4 5.9 130.7 5.9 131.0 6.0 131.3 6.1 131.6 6.2 131.9 6.3 132.2 6.3 132.5 6.3 132.8 6.3 133.1 6.3 133.4 6.4 133.7 6.5 134.0 6.6 134.3 6.7 134.6 6.7 134.9 6.7 135.2 6.7 135.5 6.7 135.8 6.7 136.1 6.7 136.4 6.7 136.7 6.7 137.0 6.7 137.3 6.7 137.6 6.7 137.9 6.7 138.2 6.8 138.5 6.9 138.8 7.0 139.1 7.1 139.4 7.1 139.7 7.1 140.0 7.1 140.3 7.1 140.6 7.1 140.9 7.1 141.2 7.1 141.5 7.1 141.8 7.1 142.1 7.1 142.4 7.1 142.7 7.2 143.0 7.4 143.3 7.5 143.6 7.5 143.9 7.5 144.2 7.5 144.5 7.5 144.8 7.5 145.1 7.5 145.4 7.5 145.7 7.5 146.0 7.5 146.3 7.5 146.6 7.5 146.9 7.5 147.2 7.5 147.5 7.5 147.8 7.5 148.1 7.5 148.4 7.5 148.7 7.5 149.0 7.5 149.3 7.5 149.6 7.5 149.9 7.5 150.2 7.5 150.5 7.5 150.8 7.7 151.1 7.8 151.4 7.9 151.7 7.9 152.0 7.9 152.3 7.9 152.6 7.9 152.9 7.9 153.2 7.8 153.5 7.7 153.8 7.6 154.1 7.5 154.4 7.5 154.7 7.5 155.0 7.6 155.3 7.7 155.6 7.8 155.9 7.9 156.2 7.9 156.5 7.9 156.8 7.9 157.1 7.9 157.4 8.0 157.7 8.1 158.0 8.3 158.3 8.6 158.6 8.9 158.9 9.2 159.2 9.4 159.4 9.5 159.5 10.3 159.7 16.6 159.7 17.6 159.4 17.9 159.1 18.2 158.8 18.5 158.5 18.8 158.2 19.0 157.9 19.1 157.6 19.2 157.3 19.3 157.0 19.4 156.7 19.5 156.4 19.5 156.1 19.5 155.8 19.6 155.5 19.8 155.2 19.9 154.9 19.9 154.6 19.9 154.3 19.9 154.0 19.9 153.7 19.9 153.4 19.9 153.1 19.9 152.8 19.9 152.5 19.9 152.2 19.9 151.9 19.9 151.6 19.9 151.3 19.9 151.0 19.9 150.7 19.9 150.4 19.9 150.1 19.9 149.8 19.9 149.5 19.9 149.2 19.9 148.9 19.9 148.6 19.9 148.3 19.9 148.0 19.9 147.7 19.9 147.4 19.9 147.1 19.9 146.8 19.9 146.5 19.9 146.2 19.9 145.9 19.9 145.6 19.9 145.3 19.9 145.0 19.9 144.7 19.9 144.4 19.9 144.1 19.8 143.8 19.6 143.5 19.5 143.2 19.5 142.9 19.5 142.6 19.5 142.3 19.5 142.0 19.5 141.7 19.5 141.4 19.5 141.1 19.5 140.8 19.5 140.5 19.5 140.2 19.5 139.9 19.5 139.6 19.3 139.3 19.2 139.0 19.1 138.7 19.1 138.4 19.1 138.1 19.1 137.8 19.0 137.5 18.9 137.2 18.8 136.9 18.7 136.6 18.7 136.3 18.7 136.0 18.7 135.7 18.7 135.4 18.7 135.1 18.7 134.8 18.7 134.5 18.7 134.2 18.7 133.9 18.7 133.6 18.7 133.3 18.6 133.0 18.4 132.7 18.3 132.4 18.3 132.1 18.3 131.8 18.3 131.5 18.3 131.2 18.1 130.9 18.0 130.6 17.9 130.3 17.9 130.0 17.9 129.7 17.9 129.4 17.9 129.1 17.9 128.8 17.7 128.5 17.6 128.2 17.5 127.9 17.5 127.6 17.5 127.3 17.5 127.0 17.5 126.7 17.5 126.4 17.5 126.1 17.5 125.8 17.4 125.5 17.3 125.2 17.2 124.9 17.1 124.6 17.1 124.3 17.1 124.0 17.1 123.7 17.1 123.4 17.1 123.1 17.1 122.8 17.1 122.5 17.1 122.2 17.0 121.9 16.9 121.6 16.8 121.3 16.7 121.0 16.7 120.7 16.7 120.4 16.7 120.1 16.7 119.8 16.6 119.5 16.5 119.2 16.4 118.9 16.3 118.6 16.3 118.3 16.3 118.0 16.3 117.7 16.3 117.4 16.3 117.1 16.3 116.8 16.3 116.5 16.3 116.2 16.2 115.9 16.1 115.6 16.0 115.3 15.9 115.0 15.9 114.7 15.9 114.4 15.9 114.1 15.9 113.8 15.9 113.5 15.9 113.3 15.85 113.1 15.7 112.9 15.6 112.6 15.5 112.3 15.5 112.1 15.5 112.0 15.5 111.8 15.5 111.7 15.5 111.5 15.5 111.4 15.5 111.2 15.5 111.1 15.5 110.9 15.4 110.6 15.2 110.3 15.1 110.0 15.05 109.95 M1.9 127.9 L1.9 127.6 1.9 127.35 1.7 127.4 1.1 127.5 -1.7 127.5 -2.6 127.3 -4.5 127.1 -5.4 126.9 -7.3 126.7 -8.2 126.5 -10.9 126.5 -11.9 126.8 -12.3 127.1 -12.5 127.4 -12.7 127.7 -13.0 128.0 -13.1 128.3 -13.3 128.6 -13.4 128.9 -13.6 129.2 -13.7 129.5 -14.0 129.8 -14.3 130.1 -14.6 130.4 -14.7 130.7 -14.9 131.0 -15.1 131.3 -15.4 131.6 -15.5 131.9 -15.7 132.2 -15.7 132.5 -15.8 132.8 -15.9 133.1 -16.1 133.4 -16.1 133.7 -16.1 134.0 -15.9 134.3 -15.8 134.6 -15.5 134.9 -15.3 135.2 -15.1 135.5 -15.0 135.8 -14.7 136.1 -14.4 136.4 -14.1 136.7 -13.5 137.0 -12.9 137.3 -12.3 137.6 -11.8 137.9 -11.4 138.2 -10.5 138.5 -9.3 138.7 -8.5 138.9 -7.9 139.2 -7.4 139.4 -6.9 139.5 -6.1 139.7 -4.9 139.9 -4.1 140.1 -3.3 140.3 -2.5 140.5 2.3 140.7 3.1 140.9 3.1 140.8 3.1 140.5 3.0 140.2 2.8 139.9 2.7 139.6 2.7 139.3 2.7 139.0 2.7 138.7 2.7 138.4 2.7 138.1 2.7 137.8 2.7 137.5 2.7 137.2 2.7 136.9 2.7 136.6 2.7 136.3 2.7 136.0 2.7 135.7 2.6 135.4 2.4 135.1 2.3 134.8 2.3 134.5 2.3 134.2 2.3 133.9 2.3 133.6 2.3 133.3 2.2 133.0 2.0 132.7 1.9 132.4 1.9 132.1 1.9 131.8 1.9 131.5 1.9 131.2 1.9 130.9 1.9 130.6 1.9 130.3 1.9 130.0 1.9 129.7 1.9 129.4 1.9 129.1 1.9 128.8 1.9 128.5 1.9 128.2 1.9 127.9" fill="#000000" fill-rule="evenodd" stroke="none"/>
  </g>
</svg>
