<?xml version="1.0" encoding="UTF-8" standalone="no"?>
<svg xmlns:ffdec="https://www.free-decompiler.com/flash" xmlns:xlink="http://www.w3.org/1999/xlink" ffdec:objectType="shape" height="433.2px" width="570.1px" xmlns="http://www.w3.org/2000/svg">
  <g transform="matrix(1.0, 0.0, 0.0, 1.0, 383.2, 215.75)">
    <path d="M87.15 -150.7 Q66.35 -143.5 44.45 -146.35 24.4 -148.55 4.9 -154.9 -0.7 -156.6 -6.45 -157.55 -10.55 -158.2 -14.0 -160.3 -38.1 -159.15 -50.75 -138.7 L-54.1 -133.35 -54.9 -132.5 -62.65 -114.45 Q-64.55 -98.5 -59.65 -83.7 L-55.9 -78.7 Q-47.45 -73.35 -38.1 -77.85 -28.1 -82.65 -22.4 -92.2 L-19.4 -92.95 Q-14.9 -83.4 -16.1 -72.75 L-16.65 -65.95 -17.65 -64.45 -17.65 -62.95 -18.65 -61.45 Q-21.2 -48.85 -31.35 -41.05 -37.2 -36.45 -43.55 -32.55 -52.6 -26.95 -63.05 -26.15 -66.9 -25.85 -70.9 -26.2 L-73.65 -23.2 Q-69.1 -17.6 -62.15 -15.25 L-58.65 -14.2 Q-68.85 -1.85 -84.65 1.15 -107.9 5.5 -130.65 -1.25 -136.55 -2.95 -142.2 -5.35 -143.05 -5.7 -143.65 -6.6 L-142.9 -9.2 Q-128.6 -5.4 -114.95 -10.35 -113.15 -11.0 -111.6 -12.3 -108.8 -14.65 -107.15 -17.7 L-108.15 -34.2 -109.15 -35.7 -109.15 -37.2 -110.15 -38.7 -110.15 -40.2 Q-119.75 -57.4 -139.55 -61.3 -149.05 -63.35 -158.65 -61.45 L-160.05 -60.0 -162.15 -62.2 Q-164.45 -73.5 -162.05 -84.75 -161.4 -87.8 -160.15 -90.7 L-161.3 -91.2 Q-165.2 -89.05 -169.15 -86.95 -180.7 -87.2 -190.7 -81.7 L-190.95 -80.2 -192.55 -78.65 -195.7 -73.45 -195.7 -71.95 -196.7 -70.45 -196.7 -68.2 -197.7 -66.7 -197.8 -62.65 -200.45 -62.7 Q-206.15 -72.05 -202.8 -81.9 -200.2 -89.6 -196.45 -96.5 -192.6 -103.75 -186.95 -110.0 L-185.65 -102.7 Q-170.3 -113.4 -151.85 -115.8 -142.65 -116.7 -133.65 -114.45 -123.6 -112.15 -117.15 -104.6 -115.8 -103.05 -116.5 -101.95 -126.85 -106.1 -137.05 -101.4 -143.85 -98.2 -147.65 -91.7 L-147.65 -74.45 Q-140.8 -62.15 -126.05 -62.4 L-119.9 -63.05 -119.9 -61.9 Q-108.2 -62.35 -98.65 -68.95 -93.65 -69.4 -90.05 -73.2 L-86.25 -77.05 -84.85 -76.95 Q-78.0 -81.25 -76.15 -88.95 L-76.15 -90.45 -75.15 -91.95 Q-75.45 -107.45 -79.3 -122.35 -83.3 -137.7 -75.1 -151.25 -72.7 -155.2 -69.6 -158.65 -65.25 -163.4 -60.5 -167.7 -54.05 -173.6 -46.0 -177.35 -41.7 -179.45 -37.3 -181.0 -32.35 -182.85 -27.05 -183.95 -10.0 -187.0 6.4 -183.5 L9.5 -182.7 14.65 -180.75 Q15.9 -180.25 16.3 -178.75 L15.35 -175.75 7.1 -176.25 -1.4 -172.0 13.75 -168.0 11.1 -167.9 Q27.55 -162.95 44.4 -159.0 71.55 -152.65 95.95 -164.8 103.05 -168.45 108.9 -173.7 L111.65 -180.65 113.15 -173.8 110.4 -169.75 Q107.35 -159.25 96.85 -154.45 92.05 -152.35 87.15 -150.7 M178.65 120.0 L180.0 120.5 Q186.7 128.55 186.9 138.9 L186.75 140.8 186.0 147.45 Q185.9 148.4 185.4 149.35 183.4 156.2 178.1 161.75 173.95 166.1 169.05 168.65 L168.65 168.9 163.9 170.1 Q154.75 168.7 146.85 164.9 142.75 162.85 140.55 158.05 140.0 156.85 140.15 155.35 L142.95 155.55 145.15 158.35 145.4 159.85 Q149.1 164.15 154.55 164.9 L160.35 164.6 164.2 164.85 Q177.35 157.4 177.5 142.6 177.55 138.0 175.9 133.6 L173.9 130.6 173.8 128.75 164.15 120.85 Q153.2 119.35 143.0 122.85 138.3 124.45 134.45 127.55 L129.7 131.05 Q126.45 133.2 123.5 135.75 113.45 144.4 102.05 151.1 96.05 154.65 89.35 156.2 75.3 159.3 61.3 156.3 L59.3 156.2 Q59.25 160.35 64.15 163.4 73.3 169.2 83.95 168.05 L62.4 176.35 Q14.45 184.3 -26.65 158.5 -36.5 152.2 -44.9 144.05 -47.1 141.9 -49.65 140.1 -64.3 125.9 -77.45 109.85 -81.85 104.4 -83.15 97.85 L-95.1 80.0 -97.15 78.55 -105.9 77.8 -110.65 81.55 -110.65 83.05 -112.65 88.3 -109.35 95.6 -114.5 95.65 -110.4 97.05 Q-99.85 106.6 -97.65 120.35 L-96.65 121.85 -96.0 134.5 -96.65 135.35 -96.65 139.1 Q-101.05 151.3 -109.9 160.9 -110.9 161.95 -111.45 163.4 L-112.65 166.35 -111.65 172.35 -106.85 179.3 Q-115.8 182.3 -120.7 173.7 -121.35 172.6 -121.45 171.55 -122.15 164.2 -122.15 156.8 L-124.15 156.35 Q-119.25 151.9 -119.15 145.1 L-118.15 143.6 -119.15 124.1 -122.6 114.55 Q-125.55 106.5 -132.95 104.1 L-133.05 102.8 Q-145.2 96.6 -157.4 101.3 -164.05 103.75 -168.55 109.35 L-176.7 119.35 -179.05 119.65 -182.2 112.6 -183.2 111.1 -183.2 109.6 Q-190.45 91.0 -183.15 72.55 -180.9 66.8 -175.9 63.05 L-173.75 66.35 Q-173.75 73.8 -173.25 81.25 L-172.7 82.8 -172.7 84.3 -171.7 85.8 -171.7 87.3 -166.65 92.2 Q-156.3 77.8 -138.3 80.4 -145.45 73.95 -149.6 65.3 -151.15 62.15 -152.15 58.8 L-154.15 52.05 -150.9 50.05 -148.65 56.8 -144.4 59.3 -142.15 57.3 -142.0 55.95 -139.65 55.8 -137.5 54.35 Q-134.9 62.05 -125.95 62.6 -117.85 63.55 -110.85 59.75 -101.75 54.8 -102.35 44.75 -103.4 27.4 -118.8 19.15 -122.6 17.15 -126.85 16.6 L-127.1 13.05 Q-118.85 5.3 -107.75 8.65 -102.95 10.0 -97.95 10.85 -73.7 14.55 -57.7 33.05 -49.6 42.4 -42.95 53.0 -42.65 53.55 -42.65 54.3 L-41.65 55.8 -39.0 67.55 -53.05 65.8 Q-54.75 70.35 -52.4 74.3 -50.65 77.15 -49.65 80.55 -43.15 91.4 -33.3 98.85 -6.35 119.1 26.85 126.0 43.7 129.6 60.8 129.9 80.25 130.25 98.3 123.05 105.15 120.25 111.55 116.2 L120.3 111.3 123.15 109.85 124.15 110.5 Q142.95 106.05 161.85 109.8 169.9 111.25 176.15 116.35 L178.65 120.0 M-218.7 -140.75 L-217.7 -139.25 -218.0 -121.3 Q-219.35 -117.5 -221.55 -114.3 -228.7 -103.6 -236.7 -93.45 L-236.8 -91.6 -237.7 -90.45 Q-238.45 -83.9 -236.9 -77.95 -236.55 -76.65 -235.65 -75.6 -227.4 -75.75 -219.75 -71.8 -217.15 -70.55 -216.35 -67.85 L-225.3 -65.95 -225.25 -65.1 Q-228.6 -63.4 -232.05 -65.5 -237.1 -68.45 -242.55 -66.55 L-240.8 -62.3 -240.7 -61.2 -228.7 -40.7 -232.7 -39.95 Q-242.85 -44.65 -246.2 -55.05 -251.0 -57.35 -254.4 -61.45 -256.15 -63.55 -256.2 -66.2 L-257.2 -67.7 -257.3 -70.3 -258.2 -71.45 -259.1 -90.2 Q-255.1 -105.2 -242.5 -115.45 -239.5 -117.85 -238.0 -120.95 -233.85 -129.6 -231.2 -139.0 L-232.2 -140.5 Q-233.75 -150.05 -242.65 -153.25 -245.35 -154.25 -247.3 -156.55 L-246.95 -158.25 Q-238.75 -157.35 -231.0 -154.25 -225.1 -151.85 -220.95 -146.75 L-218.7 -142.25 -218.7 -140.75 M-216.95 89.55 L-217.0 92.15 -215.0 93.5 -215.4 100.7 -212.8 102.45 -208.85 101.2 -200.95 90.95 -197.7 91.8 -199.7 97.05 -200.7 98.55 -199.7 100.05 -199.7 102.3 -198.7 103.8 -198.7 105.3 -197.7 106.8 -198.05 109.6 -203.95 107.8 -205.7 102.55 -207.45 107.05 Q-206.55 110.35 -204.05 112.55 -201.1 115.0 -196.95 116.15 -187.6 118.55 -180.7 125.25 -177.25 128.6 -175.65 133.35 L-177.65 145.35 Q-183.3 148.85 -189.3 151.35 -191.3 152.2 -193.65 152.1 L-196.95 149.05 -196.6 147.2 -191.8 149.35 -185.15 142.35 Q-183.6 136.05 -188.7 132.5 -193.65 129.05 -199.9 127.8 -210.35 125.9 -216.35 117.4 -218.35 114.55 -218.2 111.1 L-219.2 109.6 -219.2 108.1 -220.2 106.55 -219.5 90.15 -216.95 89.55 M-302.05 42.25 Q-311.35 42.2 -314.6 49.9 -315.9 53.0 -314.95 56.6 -312.45 66.1 -302.2 69.15 -294.5 71.35 -287.95 66.8 L-286.85 69.3 Q-294.05 76.7 -304.1 78.05 L-309.7 77.55 Q-315.9 77.9 -320.45 81.0 L-312.75 93.1 -312.7 95.3 -309.7 105.8 -310.8 114.45 -311.7 115.55 -311.8 120.45 -312.7 121.55 -312.7 123.1 Q-321.55 136.05 -336.3 140.5 -344.4 142.9 -352.95 142.75 -361.55 142.55 -369.7 140.1 L-380.2 129.6 -380.2 128.1 -381.2 126.6 -381.2 125.1 -382.2 123.6 -382.2 122.05 -383.2 120.55 -381.2 107.05 -381.2 105.55 Q-374.05 96.25 -363.75 100.65 -355.45 104.15 -353.85 113.15 L-355.65 113.1 -357.2 111.3 -357.2 109.8 -365.7 104.55 Q-368.65 105.5 -370.95 107.4 -374.95 110.55 -375.55 115.5 L-373.7 123.85 Q-369.25 130.6 -361.6 132.15 -351.8 134.25 -342.25 131.2 -336.35 129.4 -331.45 125.5 -330.5 124.75 -329.85 123.65 -323.65 113.55 -326.2 102.45 -326.6 100.65 -327.15 98.95 -328.15 96.0 -327.3 92.9 L-327.45 92.85 -327.8 92.9 -328.45 92.75 -329.2 91.7 Q-336.05 90.7 -340.85 85.85 -343.8 82.85 -344.2 79.05 L-345.2 77.55 -345.2 73.05 -346.2 71.55 -343.2 54.3 Q-340.1 42.95 -329.7 38.3 -317.7 33.0 -305.35 37.35 L-299.45 39.05 -297.25 43.95 -299.7 44.05 -302.05 42.25" fill="#ffff2a" fill-rule="evenodd" stroke="none"/>
    <path d="M51.45 -203.0 Q48.5 -196.2 39.25 -191.5 27.35 -185.4 16.35 -177.7 -12.7 -157.15 -42.6 -137.9 L-91.25 -106.7 Q-90.25 -101.7 -90.1 -96.5 -89.75 -84.15 -89.75 -71.75 L-90.0 -71.0 -90.5 -69.5 -90.75 -68.75 -90.75 -68.0 -90.75 -66.5 -90.75 -65.75 -90.75 -65.0 -91.1 -64.3 -91.75 -63.5 -91.75 -62.75 -91.75 -62.0 -92.05 -61.6 -94.25 -61.75 -94.25 -62.5 -94.25 -63.25 -94.25 -64.0 -93.95 -64.75 -93.55 -65.55 -93.25 -66.25 -93.25 -67.0 -93.25 -68.5 -93.25 -69.25 -93.25 -70.0 -93.0 -70.75 -92.5 -72.25 -92.25 -73.0 Q-92.3 -86.15 -93.3 -99.2 -93.5 -102.1 -94.0 -104.9 L-102.9 -99.25 -133.5 -80.0 -136.25 -80.75 -136.1 -81.4 -134.75 -83.0 Q-131.3 -83.65 -128.8 -86.0 L-128.0 -86.75 Q-111.5 -97.7 -94.7 -108.3 -95.35 -111.15 -96.3 -113.9 L-105.0 -107.75 Q-106.65 -108.25 -108.1 -109.05 L-108.25 -109.5 -106.95 -110.1 -104.25 -110.75 -96.9 -115.6 Q-98.25 -119.1 -100.0 -122.5 L-103.25 -125.5 Q-105.25 -127.3 -103.0 -128.25 L-101.6 -127.85 -100.75 -127.25 -100.6 -126.7 Q-99.65 -125.75 -98.5 -125.0 -96.2 -121.2 -94.5 -117.15 L-58.5 -141.45 Q-43.55 -151.65 -27.8 -160.0 L-27.05 -160.0 -26.55 -160.0 Q-27.7 -156.3 -34.1 -153.1 L-40.3 -149.5 Q-63.7 -133.85 -87.85 -119.3 L-93.85 -115.55 Q-92.8 -112.85 -92.05 -110.0 L-64.05 -127.35 Q-33.65 -145.8 -4.5 -166.25 22.9 -185.5 51.05 -202.9 L51.45 -203.0 M152.7 -215.65 L158.2 -215.75 95.95 -187.05 Q63.7 -172.2 32.35 -155.45 2.25 -139.4 -25.6 -119.7 L-25.0 -117.75 -24.8 -117.0 -24.8 -116.25 -24.8 -115.5 -24.8 -114.75 -24.55 -114.0 -24.25 -113.3 -23.8 -112.5 -23.75 -109.35 -13.35 -115.45 21.7 -136.75 22.95 -136.95 23.45 -137.0 Q22.4 -132.7 16.05 -129.25 1.35 -121.25 -13.1 -112.75 L-23.75 -106.6 -23.75 -100.5 -23.8 -99.0 -24.05 -98.25 -24.35 -97.55 -24.8 -96.75 -24.8 -96.0 -24.85 -95.25 -25.05 -94.5 -26.05 -94.25 -27.3 -94.5 -27.3 -95.25 -27.3 -96.0 -27.3 -97.5 -27.0 -98.25 -26.6 -99.05 -26.3 -99.75 -26.3 -104.25 -26.3 -105.2 Q-49.25 -92.35 -73.05 -81.35 L-74.55 -80.75 Q-76.25 -78.75 -78.55 -77.4 L-81.0 -75.5 -83.15 -75.85 -83.25 -76.25 -83.25 -77.0 Q-81.65 -79.8 -78.4 -81.1 -76.9 -81.75 -75.75 -83.0 -50.45 -94.25 -26.3 -107.9 L-26.3 -109.5 -26.3 -111.0 -26.55 -111.75 -26.85 -112.5 -27.3 -113.25 -27.3 -114.0 -27.3 -114.75 -27.3 -116.25 -27.85 -118.1 Q-44.5 -106.2 -62.05 -96.0 L-63.1 -96.7 Q-63.3 -96.9 -63.3 -97.25 L-55.75 -102.1 Q-51.1 -105.2 -46.6 -108.6 -44.0 -110.6 -41.8 -113.0 L-29.25 -121.15 -32.05 -126.0 -32.55 -126.75 -33.3 -127.5 -33.95 -128.3 -34.3 -129.0 -36.0 -130.7 Q-36.5 -131.4 -35.7 -131.9 L-35.05 -132.25 -33.55 -132.0 -32.55 -131.25 -32.1 -130.5 -31.75 -129.8 -31.3 -129.0 -30.55 -128.25 -29.8 -127.5 Q-28.85 -125.1 -27.35 -122.95 L-27.05 -122.55 3.5 -141.75 Q31.75 -159.05 61.65 -173.1 L139.5 -209.65 152.2 -215.5 152.7 -215.65 M8.7 187.5 L-45.65 136.35 Q-70.8 112.85 -95.05 88.5 -102.5 81.1 -108.25 72.75 L-108.0 72.25 -107.75 72.05 -107.0 72.0 -106.5 72.0 Q-81.75 97.6 -55.85 122.55 L-4.5 171.7 11.2 186.75 10.85 187.35 Q10.45 187.75 9.95 187.75 L8.7 187.5 M-332.0 -63.25 L-316.8 -60.15 -316.25 -60.0 -316.25 -60.5 -316.25 -61.25 -316.0 -62.0 -315.7 -62.75 -315.25 -63.5 -315.25 -64.25 -315.25 -65.75 -315.25 -66.5 -314.95 -67.25 -314.55 -68.05 -314.25 -68.75 -314.25 -69.5 -314.25 -70.25 -313.75 -71.0 -313.25 -71.75 -313.25 -72.5 -313.25 -73.25 Q-312.25 -74.25 -311.9 -75.4 -311.4 -76.95 -310.0 -77.0 L-309.5 -77.0 Q-308.15 -76.05 -309.05 -74.5 -309.7 -73.4 -310.75 -72.5 L-310.75 -71.75 -310.75 -71.0 -311.1 -70.3 -311.75 -69.5 -311.75 -68.75 -311.75 -68.0 -312.0 -67.25 -312.3 -66.55 -312.75 -65.75 -312.75 -65.0 -312.75 -63.5 -312.75 -62.75 -313.05 -62.05 -313.45 -61.25 -313.75 -60.5 -313.75 -59.75 -313.75 -59.25 Q-309.3 -57.75 -305.75 -55.0 L-306.15 -54.5 -307.75 -54.0 Q-310.85 -55.45 -314.2 -56.05 L-314.25 -56.0 -314.75 -54.5 -314.75 -49.25 -314.75 -44.0 -314.45 -43.3 -314.05 -42.5 -313.75 -41.75 -315.75 -41.4 Q-316.15 -41.4 -316.5 -41.75 -317.8 -44.75 -317.5 -48.55 -317.25 -52.25 -317.25 -56.0 L-317.05 -56.5 Q-322.2 -57.45 -326.5 -60.25 -329.65 -60.65 -332.55 -61.65 -333.85 -62.1 -332.7 -62.9 L-332.0 -63.25 M-94.5 -205.0 Q-97.15 -197.2 -104.7 -189.9 -114.5 -180.4 -123.9 -170.55 L-120.0 -166.75 -118.8 -164.5 -117.55 -161.5 -116.95 -159.8 -110.85 -165.1 Q-105.2 -170.25 -99.0 -174.75 L-96.35 -178.7 Q-95.45 -180.0 -94.0 -180.0 L-93.5 -180.0 Q-94.85 -173.35 -101.9 -167.95 L-115.6 -157.35 -115.25 -157.0 -114.5 -156.25 Q-100.0 -168.4 -86.3 -181.55 -75.95 -191.45 -65.55 -200.0 -66.1 -195.55 -70.9 -191.05 -87.95 -175.05 -105.85 -160.05 L-113.2 -154.15 -112.85 -153.25 -112.25 -151.75 -111.75 -150.25 -112.15 -149.65 Q-112.5 -149.25 -113.0 -149.25 L-114.25 -149.5 -114.5 -150.25 -115.1 -151.75 -115.4 -152.45 -123.0 -147.0 Q-123.65 -147.25 -124.1 -147.7 L-124.25 -148.25 -116.4 -154.6 -116.5 -154.75 -117.3 -156.05 -128.05 -147.75 Q-130.85 -145.6 -134.0 -144.0 L-134.7 -143.2 -135.75 -141.75 Q-137.7 -140.05 -140.1 -138.9 -141.15 -138.4 -142.25 -138.0 L-143.7 -138.25 -144.25 -138.75 Q-142.25 -140.95 -138.8 -142.6 L-137.75 -143.25 -137.25 -144.0 -136.75 -144.75 -136.25 -145.5 Q-127.2 -151.45 -118.8 -158.3 L-124.25 -166.2 -125.95 -168.4 -130.65 -163.35 Q-132.65 -161.15 -135.0 -159.25 -135.7 -158.0 -136.7 -156.9 L-137.75 -155.5 Q-142.8 -151.85 -147.2 -147.45 -149.65 -144.95 -152.25 -142.75 -152.65 -142.0 -153.2 -141.8 L-155.25 -141.75 Q-146.65 -151.7 -136.8 -161.55 L-127.9 -170.6 Q-131.45 -174.3 -135.9 -177.05 -136.5 -177.4 -135.65 -177.75 L-134.5 -178.0 Q-129.8 -176.05 -126.15 -172.65 L-126.0 -172.5 Q-113.55 -185.55 -101.65 -199.3 -98.4 -203.0 -94.5 -205.0 M-206.05 -129.1 L-206.0 -129.25 Q-184.9 -129.95 -167.15 -118.65 -157.25 -112.3 -149.85 -102.9 L-147.0 -99.75 -146.6 -99.0 -145.0 -96.0 Q-144.2 -94.75 -143.05 -93.75 L-142.25 -93.0 -141.85 -92.2 -140.5 -88.5 -139.5 -85.5 -138.75 -83.25 -138.75 -82.5 -138.85 -81.0 -139.0 -79.5 -140.0 -79.25 -141.25 -79.5 -141.25 -80.25 -141.25 -81.0 -141.25 -81.75 -141.25 -82.5 -141.5 -83.25 -142.95 -87.8 Q-143.5 -89.75 -144.6 -91.45 -145.7 -93.15 -147.25 -94.5 -153.25 -103.9 -161.7 -111.55 -180.8 -128.75 -206.85 -126.75 L-207.25 -127.5 -207.2 -128.25 -207.0 -128.75 -206.75 -128.9 -206.05 -129.1 M-226.75 -120.25 L-226.75 -119.5 -226.85 -118.0 -227.0 -117.25 -227.95 -117.1 Q-229.15 -117.25 -230.25 -117.75 -245.35 -117.55 -258.25 -111.1 -251.45 -97.45 -243.75 -84.25 L-244.1 -83.8 -246.25 -83.5 -260.6 -109.9 -262.85 -108.6 -262.75 -108.5 -260.5 -104.0 Q-259.25 -101.85 -258.75 -99.5 L-258.1 -98.7 -257.8 -98.0 -257.75 -97.25 -258.1 -96.8 -260.25 -96.5 Q-261.25 -99.5 -262.8 -102.5 L-265.15 -107.15 Q-268.95 -104.65 -272.55 -101.55 L-267.0 -91.5 -268.0 -91.25 -269.25 -91.5 -274.45 -99.85 -277.7 -96.75 -264.9 -81.8 Q-256.9 -72.5 -250.0 -62.5 L-250.0 -62.05 Q-250.75 -61.4 -251.75 -61.0 L-275.95 -90.3 -279.6 -94.7 -280.0 -94.3 Q-292.95 -79.95 -298.0 -61.1 L-301.0 -49.75 Q-301.0 -49.0 -301.15 -48.3 -301.9 -44.95 -301.8 -41.5 L-301.75 -40.0 -301.75 -36.25 -301.75 -33.25 -301.55 -32.5 Q-300.75 -28.75 -299.35 -25.1 L-298.5 -23.5 -296.1 -19.7 -295.75 -19.0 -296.15 -18.5 Q-296.9 -18.15 -297.75 -18.0 L-298.45 -18.8 Q-301.25 -22.2 -302.65 -26.3 L-303.1 -27.75 -304.05 -31.5 -304.25 -32.25 Q-305.15 -49.7 -299.5 -66.1 -293.15 -84.55 -281.55 -97.1 L-292.25 -110.5 -292.2 -111.25 -291.95 -111.65 -291.0 -111.95 -290.5 -112.0 -289.75 -111.25 -289.0 -110.5 -288.7 -109.8 -288.25 -109.0 -279.65 -99.05 -276.05 -102.4 -301.65 -143.35 -324.25 -179.25 -324.0 -179.75 -323.75 -179.9 -323.0 -180.0 -322.5 -180.0 -321.5 -179.25 Q-304.7 -153.65 -288.3 -127.8 -280.8 -116.05 -274.0 -104.15 L-266.95 -109.2 -268.3 -111.5 Q-269.0 -113.2 -270.25 -114.5 -270.35 -116.1 -270.95 -117.6 -271.5 -119.15 -270.0 -119.0 L-269.5 -119.0 Q-268.0 -116.85 -266.8 -114.5 L-265.0 -110.75 -264.8 -110.55 -261.8 -112.2 -275.0 -138.0 -293.15 -175.0 -292.5 -175.0 -291.5 -174.25 Q-276.0 -148.7 -263.3 -121.6 L-259.4 -113.45 Q-248.85 -118.65 -236.0 -121.25 L-227.55 -120.7 -226.75 -120.25 M-298.7 -125.9 L-297.05 -127.1 -297.0 -127.25 -295.6 -126.85 -294.75 -126.25 Q-295.25 -124.9 -296.4 -123.9 L-298.5 -121.75 -298.9 -121.2 Q-299.75 -120.5 -300.8 -120.4 L-301.25 -120.75 -301.2 -121.5 -300.75 -123.0 -300.25 -124.5 -298.7 -125.9 M-125.5 -32.0 L-125.2 -31.3 -124.75 -30.5 -124.75 -27.5 -124.75 -24.5 -124.25 -23.0 -123.75 -21.5 -123.75 -17.0 -123.75 -12.7 Q-112.0 -10.2 -100.0 -8.6 -77.2 -5.5 -55.05 0.75 L-54.15 1.6 -53.8 2.25 Q-54.15 2.6 -54.6 2.8 L-55.8 3.0 Q-88.05 -5.05 -120.85 -10.45 L-124.1 -11.0 Q-124.25 -9.85 -124.75 -8.75 L-124.75 -8.15 -105.3 -3.85 -83.95 1.1 Q-81.6 1.65 -82.0 3.5 -97.35 2.05 -113.5 -2.1 L-124.8 -4.8 Q-128.5 10.25 -139.05 21.25 -144.55 27.0 -151.0 31.75 L-152.7 31.7 -153.25 31.25 Q-137.9 21.25 -130.85 4.1 L-127.3 -5.35 -137.95 -7.5 Q-144.4 -8.65 -141.0 -11.25 L-127.25 -8.65 -127.25 -10.0 -126.75 -11.45 -141.2 -14.55 Q-153.5 -17.5 -162.5 -23.05 L-162.0 -23.25 Q-144.4 -17.25 -126.35 -13.25 -126.15 -14.6 -126.2 -16.0 L-126.25 -20.5 -126.75 -22.0 -127.25 -23.5 -127.25 -25.75 -127.25 -28.75 -127.75 -30.25 -128.25 -31.75 -128.5 -35.5 Q-128.85 -38.0 -126.5 -38.0 -125.35 -36.85 -125.6 -35.0 L-125.75 -32.75 -125.5 -32.0 M-70.3 32.5 L-69.8 34.0 -69.8 34.75 -69.8 36.25 -69.8 37.0 -69.3 38.5 -68.8 40.0 -68.65 48.25 Q-68.5 51.75 -69.8 55.0 L-69.75 57.25 -69.8 59.5 -70.1 61.0 Q-70.25 62.15 -70.8 63.25 L-70.8 64.0 -70.8 65.5 -70.8 66.25 -72.8 66.6 -73.3 66.25 -73.1 62.5 Q-72.95 60.6 -72.3 58.75 L-72.3 56.5 -72.3 54.25 -71.95 52.7 Q-71.8 51.55 -71.3 50.5 L-71.3 45.25 -71.3 40.75 -71.8 39.25 -72.3 37.75 -72.3 37.0 -72.3 35.5 -72.3 34.75 -72.6 34.0 -73.0 33.2 -73.3 32.5 -73.4 29.5 Q-73.5 27.85 -72.0 27.95 L-71.55 28.0 -70.95 29.55 -70.8 31.0 -70.3 32.5 M-62.75 86.05 L-62.05 86.0 -61.55 86.0 Q-52.55 93.9 -43.1 101.4 -36.2 106.85 -29.05 111.5 -28.9 111.85 -29.0 112.15 -29.15 112.6 -29.6 112.75 L-30.8 113.0 -33.3 111.55 -35.05 110.75 Q-43.1 103.5 -52.0 97.2 -58.6 92.55 -63.3 86.75 L-63.0 86.25 -62.75 86.05 M-94.5 92.0 Q-96.75 98.75 -105.15 103.45 L-105.3 103.55 -104.75 104.5 Q-86.95 126.3 -70.85 149.55 -59.95 165.3 -48.05 180.25 L-47.55 181.75 -47.3 182.5 -47.05 183.25 -45.55 184.75 -44.05 186.25 -43.35 187.75 -42.8 189.25 -43.6 189.75 -44.8 190.0 -46.95 187.1 -49.05 184.75 -49.75 183.2 -50.05 182.5 -50.3 181.75 Q-67.1 159.35 -83.15 136.45 -94.5 120.2 -107.5 105.25 L-107.65 104.85 -115.25 109.0 Q-118.25 109.3 -121.0 110.25 -125.15 111.6 -125.25 108.5 -120.8 106.8 -115.75 106.25 -112.25 104.6 -109.05 102.5 -109.5 101.7 -109.25 100.75 L-109.0 100.25 -108.75 100.05 -108.0 100.0 -107.5 100.0 -106.85 100.95 Q-103.7 98.65 -100.85 95.9 -97.9 93.05 -94.5 92.0 M-91.8 115.85 Q-79.3 128.3 -67.8 142.0 L-51.75 160.65 -51.25 161.35 -50.9 162.1 -50.6 162.8 -50.25 163.55 -47.35 166.4 Q-46.1 167.5 -45.55 169.15 L-45.85 169.7 -47.45 170.3 -49.25 168.25 Q-50.4 166.65 -52.1 165.45 L-52.65 164.7 -53.0 164.0 -53.3 163.3 -53.6 162.55 Q-64.95 148.7 -77.25 135.7 -86.35 126.15 -92.55 116.0 L-91.8 115.85 M-201.5 35.0 L-200.5 68.4 Q-187.65 64.55 -177.0 55.75 -176.5 56.1 -176.15 56.55 L-175.75 57.25 Q-187.6 66.65 -200.45 70.8 L-199.45 105.5 Q-198.75 129.85 -198.75 154.25 L-200.75 154.6 Q-201.0 154.6 -201.25 154.25 -201.0 118.45 -202.8 83.0 L-203.2 71.6 Q-224.2 77.4 -247.95 69.55 -259.3 65.8 -268.9 59.15 L-273.7 64.3 Q-271.8 65.3 -269.45 65.75 -265.5 66.5 -261.7 67.6 -261.25 67.75 -261.0 68.5 -268.55 70.15 -275.55 66.35 -280.35 71.7 -284.85 77.35 L-288.0 81.75 -289.25 82.5 -290.25 83.25 -290.55 83.95 -291.0 84.75 -292.55 86.2 -293.5 87.0 -294.65 86.75 -295.25 86.25 Q-295.15 84.85 -293.9 83.8 -292.9 82.95 -292.5 81.75 L-291.7 81.05 Q-291.15 80.6 -290.5 80.25 L-277.95 64.8 Q-280.0 62.8 -281.65 60.6 -283.2 58.55 -281.0 58.05 L-280.5 58.0 -279.5 58.75 Q-278.15 61.1 -276.2 62.7 L-271.5 57.3 Q-276.75 53.4 -281.4 48.6 -288.8 40.95 -291.25 30.75 L-291.25 30.0 -291.25 28.5 -291.25 27.75 -291.75 26.25 -292.25 24.75 Q-292.25 22.5 -292.5 20.25 -292.8 17.75 -290.5 18.0 -289.35 19.15 -289.55 21.0 L-289.75 24.0 -289.25 25.5 -288.75 27.0 -288.75 27.75 -288.75 29.25 -288.75 30.0 Q-287.85 34.0 -285.8 37.5 L-283.25 42.0 Q-276.95 49.75 -269.9 55.45 -263.0 47.85 -255.5 42.0 -257.85 48.05 -264.05 54.2 L-267.3 57.5 Q-243.25 75.25 -210.5 70.55 L-203.25 69.15 Q-203.5 52.05 -202.15 35.05 L-201.5 35.0 M-296.0 55.95 L-295.5 56.0 Q-295.15 56.75 -295.25 57.4 -295.4 58.6 -296.0 59.75 L-297.85 61.15 -299.25 62.0 -323.35 82.85 Q-331.75 90.1 -339.5 98.0 L-340.65 97.75 -341.25 97.25 Q-330.8 84.85 -318.0 74.15 -308.65 66.4 -299.0 59.0 -297.85 58.1 -297.35 56.8 -297.0 55.8 -296.0 55.95 M-284.0 89.75 Q-290.4 95.55 -295.55 102.65 L-303.25 113.75 -303.85 114.35 -305.0 115.0 -306.05 114.3 -306.25 113.75 Q-302.05 106.0 -296.6 99.2 -291.3 92.6 -285.5 86.75 -283.25 84.5 -281.3 82.0 -279.7 80.05 -277.5 80.0 -276.45 82.45 -279.55 84.75 L-282.75 87.5 -283.2 88.25 -283.55 88.95 -284.0 89.75 M-167.5 123.0 Q-156.6 150.35 -147.7 178.7 -141.5 198.2 -132.75 216.7 L-133.1 217.15 -135.25 217.45 -137.35 213.75 -139.25 210.7 Q-147.35 184.3 -157.35 158.25 -164.15 140.5 -168.15 123.0 L-167.5 123.0" fill="#ffffff" fill-rule="evenodd" stroke="none"/>
  </g>
</svg>
