<?xml version="1.0" encoding="UTF-8" standalone="no"?>
<svg xmlns:ffdec="https://www.free-decompiler.com/flash" xmlns:xlink="http://www.w3.org/1999/xlink" ffdec:objectType="shape" height="347.95px" width="468.25px" xmlns="http://www.w3.org/2000/svg">
  <g transform="matrix(1.0, 0.0, 0.0, 1.0, 261.55, 156.65)">
    <path d="M62.15 -63.5 L64.15 -55.1 60.65 -54.5 60.8 -42.65 Q57.95 -42.25 56.25 -44.3 47.45 -55.15 34.2 -58.85 29.05 -60.35 24.1 -60.0 0.05 -57.9 -23.85 -54.0 24.3 -47.4 67.7 -25.95 96.9 -11.4 120.0 11.75 132.75 24.55 143.95 38.4 L138.4 41.7 136.15 41.05 118.15 47.55 112.65 55.05 112.65 58.05 109.15 62.55 107.45 71.4 Q114.2 76.95 122.2 79.95 129.75 82.65 137.7 81.45 167.55 76.85 193.2 59.55 L200.35 46.3 206.7 49.55 Q198.8 58.95 196.7 71.55 L196.7 74.55 194.7 77.55 194.7 80.55 192.7 83.55 Q186.75 101.9 173.45 116.75 166.05 125.0 158.05 132.8 128.85 161.3 90.35 173.3 51.0 185.65 10.45 176.15 -3.85 172.65 -15.8 164.65 L-32.2 153.35 Q-31.95 156.55 -30.25 159.3 -20.0 175.7 -6.95 189.6 -27.4 193.1 -47.95 189.35 -105.65 178.85 -156.95 150.4 -163.0 147.05 -167.25 142.0 -186.35 119.4 -203.9 95.55 L-202.3 75.15 -206.6 73.9 Q-213.75 72.05 -220.8 74.5 -229.15 77.5 -237.9 77.55 L-254.85 89.9 -260.4 88.55 Q-261.75 79.35 -261.5 69.95 -261.2 57.85 -257.25 46.55 -249.5 24.4 -240.9 2.55 -246.65 -9.5 -251.75 -21.8 -255.4 -30.5 -255.9 -39.65 -257.4 -67.25 -256.4 -95.0 -255.55 -96.15 -255.2 -97.4 -253.55 -102.9 -251.35 -108.05 -246.65 -119.25 -240.85 -129.95 L-234.15 -129.1 -210.85 -103.95 Q-208.65 -104.75 -207.0 -106.2 -187.7 -122.75 -165.85 -135.75 -122.95 -161.15 -73.4 -155.7 -23.6 -149.95 16.15 -119.6 46.15 -96.55 62.15 -63.5" fill="#ff4900" fill-opacity="0.84313726" fill-rule="evenodd" stroke="none"/>
  </g>
</svg>
