<?xml version="1.0" encoding="UTF-8" standalone="no"?>
<svg xmlns:ffdec="https://www.free-decompiler.com/flash" xmlns:xlink="http://www.w3.org/1999/xlink" ffdec:objectType="shape" height="384.1px" width="580.3px" xmlns="http://www.w3.org/2000/svg">
  <g transform="matrix(1.0, 0.0, 0.0, 1.0, 389.25, 191.05)">
    <path d="M-65.15 -92.2 L-65.65 -93.85 Q-65.65 -92.3 -64.95 -91.15 L-65.15 -92.2 M-198.2 -101.2 L-194.8 -105.6 -193.05 -108.15 Q-192.4 -109.35 -191.4 -110.15 -188.0 -112.9 -184.7 -115.95 L-183.3 -116.15 Q-180.15 -116.85 -177.5 -118.7 -174.4 -120.9 -171.1 -119.4 L-170.65 -119.2 -172.65 -114.7 -172.65 -114.35 Q-155.9 -121.35 -137.8 -117.7 -127.2 -116.65 -120.5 -108.85 -117.8 -105.65 -115.65 -102.2 L-115.65 -100.7 -113.65 -93.95 -114.8 -93.2 -119.15 -98.2 -120.65 -98.95 -121.4 -100.45 Q-123.05 -101.05 -124.55 -102.35 -131.5 -108.0 -139.85 -107.15 -145.95 -106.4 -147.9 -101.2 L-151.65 -97.45 -151.65 -95.2 -152.65 -93.7 -152.95 -91.5 -153.9 -88.45 Q-155.85 -83.45 -153.6 -78.7 -152.6 -76.55 -152.65 -74.2 L-151.35 -71.9 -137.9 -64.45 -157.65 -64.95 -157.7 -63.7 -159.9 -63.4 -162.2 -70.45 -162.2 -71.95 -163.2 -73.45 -163.2 -74.95 -164.2 -76.45 -165.2 -80.95 -164.65 -86.75 -165.85 -87.7 -163.15 -100.45 -159.05 -105.25 -159.75 -105.0 -162.35 -102.9 Q-168.7 -97.05 -177.5 -95.9 L-190.25 -94.65 -189.9 -94.1 -190.0 -93.5 -199.85 -84.35 -199.8 -83.95 -199.75 -83.2 -199.85 -82.95 -200.0 -82.75 -200.7 -82.6 -200.7 -82.45 -200.7 -81.7 -200.75 -80.95 -200.85 -80.7 -200.95 -80.55 -201.7 -80.5 -201.5 -75.15 -202.45 -75.3 -203.35 -76.35 -204.2 -77.95 -201.6 -95.4 -200.0 -96.0 -198.2 -101.2 M-233.45 -159.0 L-232.75 -158.2 -231.45 -158.0 -228.15 -155.4 -224.45 -152.2 Q-220.7 -148.65 -218.7 -143.75 L-219.8 -129.85 -220.7 -128.75 -225.5 -120.8 Q-225.6 -119.75 -226.15 -119.1 -229.2 -115.6 -232.4 -112.4 L-234.1 -110.6 Q-243.2 -100.5 -244.0 -87.55 L-243.8 -85.6 -241.9 -84.55 -241.45 -84.25 Q-234.3 -85.45 -226.9 -83.35 -221.75 -81.95 -219.7 -78.1 L-239.5 -71.9 -242.95 -72.8 -243.2 -74.45 -249.7 -76.15 Q-250.7 -66.55 -246.7 -58.2 L-247.45 -54.25 -249.2 -54.45 -259.9 -71.4 Q-262.4 -86.0 -260.2 -100.95 -255.3 -111.85 -246.95 -119.75 L-243.7 -122.0 -243.2 -123.5 Q-235.15 -129.5 -230.2 -138.5 L-228.2 -143.75 -229.2 -150.5 -237.2 -158.0 -235.95 -159.1 -233.45 -159.0 M-242.45 -163.0 Q-240.75 -161.5 -242.1 -159.7 -244.35 -156.6 -247.8 -154.7 L-250.3 -154.95 -251.15 -156.1 -248.45 -160.25 -247.95 -161.75 -242.45 -163.0 M179.35 143.95 L180.35 143.3 Q183.2 144.9 181.25 148.95 180.05 151.55 181.6 151.9 L181.25 157.45 179.4 160.2 181.6 160.65 Q185.2 161.2 186.45 164.0 L181.75 167.4 181.55 168.8 Q172.35 173.05 162.05 172.45 153.6 172.0 146.7 167.05 L140.55 154.65 141.9 153.7 142.6 146.7 144.15 145.75 Q145.2 145.8 145.0 147.45 144.4 152.35 145.0 157.1 L146.55 161.1 Q157.1 167.55 168.45 162.85 L169.15 161.45 175.65 155.25 178.7 149.8 179.35 143.95 M0.05 -187.95 Q1.8 -187.5 3.45 -186.7 14.6 -180.95 22.3 -171.95 L22.35 -169.75 15.5 -168.15 16.6 -168.0 Q21.35 -162.45 27.7 -158.95 52.75 -145.2 80.15 -152.25 L82.4 -150.5 Q82.2 -148.9 80.6 -147.95 L78.05 -146.65 Q72.65 -143.7 67.15 -141.45 L67.0 -138.35 Q54.9 -138.45 42.6 -141.1 38.95 -141.95 35.85 -143.8 28.3 -148.15 20.35 -151.0 L9.1 -159.25 Q8.8 -160.6 7.75 -161.35 L4.4 -163.4 Q-14.1 -174.75 -33.55 -167.15 L-30.2 -166.1 Q-30.85 -165.35 -31.65 -164.9 -34.55 -163.2 -37.85 -162.1 -44.05 -160.1 -48.9 -155.5 L-49.25 -154.7 Q-49.95 -152.6 -51.4 -151.0 -56.15 -145.9 -58.5 -139.7 -60.2 -135.1 -62.65 -130.7 L-62.65 -92.45 -61.65 -90.95 -57.9 -82.7 Q-55.35 -75.1 -47.6 -71.55 -43.45 -69.65 -39.05 -71.15 -29.4 -74.6 -27.15 -84.2 L-26.15 -85.7 -26.15 -87.95 -25.15 -89.45 -24.95 -91.65 -24.6 -93.25 Q-22.5 -99.8 -25.9 -105.2 L-27.85 -105.35 -27.75 -108.6 -26.9 -109.2 -24.6 -108.3 Q-20.75 -106.65 -19.4 -102.95 L-16.9 -101.45 -14.65 -96.2 -12.65 -93.2 Q-12.7 -92.05 -12.35 -91.05 -11.6 -89.15 -11.3 -87.25 -10.25 -80.7 -11.1 -73.85 -11.55 -70.0 -12.65 -66.2 L-12.65 -64.7 -14.65 -62.45 Q-14.7 -61.4 -15.0 -60.3 -15.3 -59.0 -16.15 -57.95 -18.85 -54.3 -20.9 -50.45 L-21.8 -49.65 Q-26.85 -43.45 -33.7 -39.25 L-37.25 -36.8 Q-50.85 -26.15 -67.8 -29.45 L-66.0 -28.25 Q-62.4 -25.8 -58.3 -24.5 -51.85 -22.4 -47.9 -20.5 L-52.4 -15.95 Q-52.95 -14.1 -54.45 -13.05 L-56.4 -11.25 Q-70.9 4.85 -92.3 5.95 -76.1 10.35 -63.45 21.1 -55.7 27.65 -50.15 36.05 -44.25 44.85 -41.65 54.8 L-40.65 56.3 -36.7 72.8 -37.65 75.05 -36.8 76.45 -36.9 78.8 -39.85 78.65 -40.15 76.55 -54.15 68.55 -55.85 69.0 -54.65 76.8 -52.65 79.8 -51.65 85.8 -49.9 87.3 -49.65 88.8 -45.45 93.3 -45.0 93.95 Q-39.85 100.0 -33.3 104.65 -22.0 112.55 -9.6 119.05 L-2.0 122.8 Q25.5 135.15 55.65 133.95 L64.95 133.05 Q75.05 133.05 82.1 127.35 L88.05 126.05 Q91.8 125.2 95.4 123.45 109.0 116.7 121.85 108.9 127.4 105.6 132.25 101.45 138.05 96.55 145.4 96.9 L154.85 97.15 Q166.8 96.85 175.65 104.1 L186.4 116.8 189.4 124.35 191.05 137.6 Q188.75 138.6 187.15 135.85 L186.1 133.55 Q183.9 128.2 178.6 125.6 L177.55 127.85 160.9 112.55 149.2 108.05 147.8 108.15 Q142.85 110.8 138.65 114.55 134.65 118.85 130.9 123.35 125.85 129.3 122.5 136.3 120.9 139.65 117.8 142.05 98.0 157.35 73.55 151.8 L70.15 151.15 74.7 155.75 Q76.0 157.15 77.65 157.9 87.1 161.9 97.15 164.35 L97.4 164.15 98.65 163.85 100.15 163.9 101.6 164.15 Q102.45 164.5 102.4 165.6 L91.9 175.1 Q90.0 175.45 88.4 176.35 76.45 182.6 63.1 183.95 L63.1 185.2 Q55.35 185.7 47.55 184.9 43.7 184.35 40.05 183.3 27.35 179.8 14.35 177.1 L13.0 176.15 Q7.2 174.0 1.35 172.15 -1.3 171.25 -3.6 169.85 -5.8 168.6 -7.95 167.75 -26.7 160.2 -41.95 147.45 -56.95 134.95 -64.15 117.05 L-64.15 115.55 -68.15 104.3 -68.15 102.8 -69.15 101.3 -69.15 99.8 -70.15 98.3 -70.15 96.05 -71.15 94.55 -71.15 92.3 -80.4 77.3 Q-85.4 73.1 -91.05 69.9 L-93.15 68.8 -103.55 70.15 Q-111.2 71.6 -111.65 79.05 L-112.6 81.3 -111.65 82.8 -111.45 85.0 Q-111.0 87.2 -109.6 89.55 L-107.55 92.15 Q-102.35 97.0 -95.3 99.65 L-94.95 100.35 -95.15 100.7 -92.9 101.55 -102.65 101.65 -97.15 107.9 -96.9 110.0 -95.6 111.55 -95.35 116.75 -95.35 118.25 Q-95.95 122.4 -93.55 125.85 L-93.95 131.1 -95.1 132.6 -95.3 134.85 -96.4 136.35 -96.55 137.85 -97.65 139.35 -97.8 140.85 -99.3 143.85 -105.65 151.35 -106.2 152.7 -111.55 158.85 -118.1 168.6 -118.3 170.85 -119.45 172.35 -119.7 175.35 -119.15 176.5 Q-116.95 181.35 -111.35 182.45 L-105.3 182.85 Q-112.8 189.65 -122.1 183.45 -125.4 181.2 -127.4 177.6 L-127.25 176.1 -128.1 174.6 -126.9 163.4 -126.1 162.6 Q-125.65 158.65 -123.5 155.1 L-114.9 141.1 -115.15 141.05 -115.25 140.35 -113.05 126.1 -113.9 124.6 -116.25 116.3 -116.1 114.8 -116.95 113.3 -116.85 111.8 Q-118.35 108.5 -120.2 105.3 L-121.4 103.15 Q-123.65 98.65 -128.7 98.05 L-129.95 96.8 -133.65 95.85 Q-143.75 93.1 -153.7 97.8 L-162.7 108.3 -162.8 109.45 -163.7 110.55 -166.7 121.05 -167.7 122.55 -167.7 124.85 -168.7 126.35 -168.95 128.6 -171.05 130.15 -174.7 128.95 -175.7 131.35 -176.0 135.75 -176.7 136.6 -176.7 138.85 -177.7 140.35 -177.7 143.35 -179.7 144.1 -182.2 142.6 -185.45 136.6 Q-190.65 133.5 -197.1 132.9 -206.7 132.35 -214.2 126.6 L-219.2 117.55 -221.2 106.3 -220.6 94.15 -218.05 94.5 -216.95 97.1 Q-215.8 97.15 -215.6 98.8 -215.5 99.8 -215.75 100.8 -217.4 107.85 -211.45 112.05 L-208.2 111.35 -208.2 108.05 -207.2 106.55 -206.6 103.15 -199.45 103.05 -196.05 110.45 -201.2 108.55 -200.85 106.9 -203.3 106.55 Q-202.8 107.2 -202.85 108.05 -202.95 111.1 -205.4 113.05 -201.65 119.1 -194.65 120.25 -186.6 121.55 -180.15 124.6 L-181.85 121.4 -181.5 120.25 -183.1 118.3 -186.2 111.55 -186.2 110.05 -187.2 108.55 -188.2 103.3 -187.2 85.05 -186.2 79.05 -184.95 76.6 -184.0 80.0 -181.8 81.2 -182.3 82.45 -182.75 86.05 Q-183.0 91.55 -180.7 96.55 L-178.2 100.05 -175.0 100.4 -174.05 103.85 -173.4 102.25 -172.9 100.95 Q-168.0 90.4 -159.55 82.7 -152.8 76.5 -144.2 76.05 L-148.2 71.55 -147.85 67.55 -146.1 67.5 -145.65 69.25 -143.45 69.05 -136.95 72.3 -137.25 65.95 -135.2 65.25 Q-134.2 65.75 -133.3 66.4 -129.55 69.1 -125.4 69.85 -115.5 71.35 -106.9 66.4 -103.4 64.4 -100.65 61.55 -94.75 55.3 -91.15 47.55 -91.5 42.6 -91.1 37.8 -91.05 37.05 -91.25 36.35 L-93.4 29.55 -95.25 26.95 -97.05 26.25 Q-97.25 23.8 -98.9 21.8 -101.7 18.6 -105.25 16.3 -109.0 13.85 -112.9 11.8 L-116.9 10.85 Q-119.15 10.2 -119.65 8.15 L-107.75 5.5 Q-120.1 4.55 -131.7 0.2 -134.8 -0.9 -133.55 -2.8 L-132.9 -3.05 -129.4 -2.45 Q-119.55 -0.2 -111.15 -5.25 -108.15 -7.15 -105.9 -9.4 -101.35 -13.9 -97.4 -18.95 -98.05 -18.95 -98.35 -19.25 L-98.2 -19.7 -96.15 -23.45 -96.15 -24.95 -95.15 -26.45 -94.4 -29.45 -96.15 -38.45 -103.4 -50.45 -111.9 -56.2 -115.45 -56.05 -116.4 -56.95 -123.85 -58.85 Q-124.8 -59.15 -125.15 -60.2 L-121.7 -60.4 Q-110.5 -58.1 -98.95 -59.45 -96.2 -59.8 -93.7 -61.0 -89.5 -63.25 -84.9 -64.7 L-82.65 -66.95 Q-79.0 -70.05 -76.55 -73.9 L-73.3 -78.7 Q-70.7 -82.3 -70.15 -86.45 L-69.15 -87.95 -69.15 -89.45 -68.15 -90.95 -68.5 -109.65 -69.15 -110.45 -72.15 -124.7 -76.15 -136.7 -75.15 -155.5 -74.15 -157.0 -74.15 -158.5 Q-72.35 -161.15 -70.95 -164.0 -66.35 -173.1 -57.4 -179.0 -54.9 -180.7 -52.2 -181.95 -27.2 -193.55 0.05 -187.95 M108.4 -190.35 L110.15 -191.05 115.25 -185.6 116.85 -173.45 116.1 -171.9 116.5 -169.2 115.5 -166.3 Q114.5 -164.95 113.95 -163.45 112.0 -157.95 107.6 -154.8 103.7 -152.05 100.05 -149.1 96.8 -146.55 93.85 -148.65 L100.95 -154.75 100.55 -157.45 96.85 -159.25 109.0 -177.55 Q108.6 -179.65 109.35 -181.6 L109.65 -183.25 Q109.7 -187.0 108.4 -190.35 M-138.1 75.8 L-137.95 75.8 Q-137.7 74.9 -138.1 75.8 M-355.7 102.85 L-355.7 104.35 -354.7 105.85 -355.6 116.15 -358.1 115.3 -357.35 113.1 Q-359.45 107.1 -366.25 105.7 L-373.95 106.65 -374.25 104.1 Q-381.3 104.15 -386.55 109.8 L-388.95 109.65 -389.25 105.6 -388.25 103.3 Q-384.25 94.55 -374.45 93.45 -361.9 92.55 -355.7 102.85 M-217.25 111.85 L-217.05 112.05 Q-217.8 108.65 -217.7 111.3 L-217.25 111.85 M-171.2 125.8 L-171.2 125.75 -171.25 125.75 -171.2 125.8 M-201.05 145.65 L-199.9 144.55 -197.7 145.6 -197.7 148.6 Q-194.15 152.8 -188.95 150.85 L-188.95 154.2 -193.55 154.0 -192.3 157.65 -194.7 158.1 -199.95 153.5 -201.2 150.6 -201.05 145.65 M-311.75 74.65 L-311.95 75.3 -310.9 74.25 Q-311.45 74.3 -311.75 74.65 M-314.1 33.55 L-312.95 35.25 -322.35 35.85 Q-327.85 38.15 -330.7 43.55 L-330.7 45.05 -331.7 46.55 -330.7 60.05 -330.7 61.55 -329.7 63.05 -329.7 64.55 Q-327.75 67.95 -324.5 70.0 -323.3 70.75 -321.95 70.7 -314.45 70.55 -307.05 69.2 -304.75 68.95 -303.05 70.4 -303.0 70.65 -303.1 70.75 L-305.15 72.55 -314.9 80.65 -311.95 83.3 -307.7 96.8 -307.05 117.75 -307.7 118.6 -309.95 126.85 Q-312.5 128.7 -314.15 131.55 -315.2 133.4 -317.3 133.75 -319.85 134.25 -322.0 136.0 -329.75 142.25 -339.3 143.9 L-340.2 143.2 Q-341.85 142.8 -341.25 144.4 L-345.85 144.6 Q-356.05 144.35 -364.3 138.5 -355.55 139.25 -346.9 141.4 -344.95 141.8 -343.95 140.35 L-339.1 140.25 -338.7 139.1 -332.6 138.0 -329.65 135.75 Q-322.55 131.6 -319.2 124.35 L-319.2 122.85 -318.2 121.35 -317.95 115.65 -318.25 115.3 -318.25 114.55 -318.25 113.8 -318.25 113.05 -317.95 112.35 -317.8 112.05 -317.55 106.4 -318.2 105.6 -318.55 100.4 -319.2 99.6 Q-322.6 89.8 -331.1 83.25 -341.15 83.75 -346.35 75.05 -347.35 73.45 -347.6 71.75 -348.6 65.15 -347.9 58.35 L-347.2 57.5 -347.2 56.05 -346.2 55.3 -346.2 53.8 -345.2 52.3 -345.2 50.8 -343.95 48.65 Q-338.55 37.1 -326.95 32.8 L-314.1 33.55 M-185.4 91.35 L-185.7 92.8 -185.3 92.8 Q-185.3 90.95 -185.4 91.35" fill="#ffe500" fill-rule="evenodd" stroke="none"/>
    <path d="M90.2 -187.55 L90.95 -186.5 89.95 -185.8 85.9 -185.9 85.7 -186.5 86.45 -187.25 87.25 -187.9 87.95 -188.25 Q89.2 -188.15 90.2 -187.55 M57.45 -173.0 Q55.45 -167.65 47.1 -164.55 42.2 -162.7 37.5 -160.15 L3.2 -141.55 1.95 -141.0 0.9 -141.7 0.7 -142.25 1.25 -142.95 2.0 -143.7 2.95 -144.25 Q18.65 -152.6 34.25 -161.25 45.15 -167.3 56.2 -173.0 L56.95 -173.0 57.45 -173.0 M38.45 -149.0 Q38.85 -148.25 38.75 -147.55 38.6 -146.4 37.95 -145.25 30.1 -137.15 20.4 -131.5 15.05 -128.35 9.45 -125.75 4.25 -121.05 -2.8 -120.4 L-3.3 -120.75 -3.1 -121.4 -1.8 -123.0 Q3.85 -123.95 7.95 -127.75 19.6 -133.15 29.75 -140.9 33.0 -143.4 35.7 -146.5 L36.65 -147.85 38.0 -148.9 38.45 -149.0 M17.95 -180.95 L18.45 -181.0 Q18.2 -176.85 12.2 -174.0 2.55 -169.45 -6.15 -163.2 -22.55 -151.45 -39.8 -141.25 L-41.7 -141.3 -42.3 -141.75 Q-25.35 -153.2 -7.8 -165.4 4.1 -173.65 16.7 -180.75 L17.95 -180.95 M11.45 185.0 L11.95 185.75 12.45 186.5 Q15.1 187.6 17.35 189.35 18.85 190.5 20.2 191.75 19.45 193.85 17.2 192.55 15.65 191.65 14.45 190.25 L12.7 189.5 10.95 188.75 10.25 187.95 9.7 187.25 8.7 185.75 Q0.2 179.25 -7.5 171.7 L-18.8 160.25 -24.45 156.4 Q-28.75 153.6 -25.95 152.1 L-25.55 152.0 Q-22.95 152.85 -21.15 154.9 -19.5 156.75 -17.3 158.0 L-16.8 158.75 -16.3 159.5 -15.3 161.0 Q-9.45 165.3 -4.05 170.2 0.35 174.2 3.7 179.0 L7.75 181.95 10.95 184.25 11.45 185.0 M-326.5 -187.0 L-326.0 -186.2 -325.75 -184.75 -325.2 -184.05 -323.75 -182.5 Q-323.35 -181.25 -322.45 -180.3 L-321.0 -178.75 Q-318.15 -171.95 -314.1 -165.65 -311.15 -160.95 -307.25 -157.0 L-306.7 -155.55 -306.05 -154.0 -305.75 -153.25 Q-306.4 -152.65 -307.15 -152.4 L-308.25 -152.5 -308.95 -154.05 -309.5 -155.5 -310.8 -156.95 -312.25 -158.5 Q-315.3 -163.85 -318.95 -168.85 -321.8 -172.75 -323.25 -177.25 L-323.8 -177.95 -325.25 -179.5 -325.75 -180.25 -326.5 -181.75 -327.25 -182.5 -328.0 -183.25 Q-328.4 -184.35 -328.45 -185.5 -328.45 -186.4 -327.65 -186.75 L-326.5 -187.0 M-173.8 -125.2 L-172.75 -124.5 -170.75 -123.0 Q-170.9 -122.65 -171.15 -122.4 -171.5 -122.0 -172.05 -121.95 L-173.75 -122.0 -174.55 -122.7 -175.25 -123.25 -175.8 -123.45 -177.75 -124.1 -179.2 -124.85 -181.25 -126.25 -187.2 -126.65 Q-191.5 -126.3 -194.1 -128.0 L-194.25 -128.5 -193.5 -129.25 -193.0 -129.75 -192.75 -129.9 -192.05 -130.1 -192.0 -130.25 -185.75 -129.85 Q-181.1 -129.8 -177.75 -126.75 L-175.55 -125.95 -173.8 -125.2 M-283.25 -157.25 L-283.55 -158.0 -283.95 -158.8 -284.25 -159.5 -285.6 -161.1 -286.25 -162.5 -286.2 -163.25 -286.0 -163.75 -285.75 -163.9 -285.0 -164.0 -284.5 -164.0 Q-283.65 -162.4 -282.35 -160.95 -281.2 -159.65 -280.75 -158.0 L-280.75 -157.25 -280.75 -156.5 -278.95 -152.8 -276.75 -148.25 -276.75 -147.5 -276.75 -146.75 -276.25 -146.05 -275.55 -145.2 -275.0 -144.5 Q-274.9 -142.85 -273.95 -141.55 -272.9 -140.0 -273.0 -138.5 L-274.0 -138.25 -275.25 -138.5 -276.25 -140.0 -277.25 -141.5 -277.25 -142.25 -277.25 -143.0 -277.6 -143.7 -278.25 -144.5 -279.0 -145.25 -279.2 -146.0 -279.25 -146.75 -279.25 -147.5 -281.25 -151.25 -283.25 -155.75 -283.25 -156.5 -283.25 -157.25 M-298.05 -140.1 L-298.0 -140.25 -296.5 -140.0 -294.75 -138.5 Q-293.6 -137.5 -292.9 -136.2 L-292.75 -135.5 -292.95 -135.0 Q-293.75 -134.4 -294.75 -134.4 -295.0 -134.4 -295.25 -134.75 -295.65 -135.5 -296.25 -135.85 -298.0 -136.85 -299.25 -138.5 L-299.2 -139.25 -299.0 -139.75 -298.75 -139.9 -298.05 -140.1 M-247.0 -126.25 Q-245.75 -126.15 -244.8 -125.55 -244.25 -125.25 -244.0 -124.5 -246.65 -122.9 -250.0 -122.15 L-256.0 -120.75 Q-257.4 -120.9 -258.5 -121.5 -259.0 -121.75 -259.25 -122.5 -254.85 -124.2 -250.0 -125.1 -248.1 -125.45 -247.0 -126.25 M-280.5 -108.0 Q-283.35 -101.25 -290.3 -94.55 -294.2 -90.85 -297.2 -86.35 L-298.5 -84.75 Q-299.95 -81.35 -301.9 -78.25 -303.95 -74.95 -305.15 -71.3 L-305.75 -69.75 -305.75 -69.0 -305.75 -67.5 -305.75 -66.75 -306.25 -65.25 -306.5 -64.5 -306.75 -63.75 -306.75 -60.0 -306.75 -56.25 -306.75 -54.0 -307.1 -53.35 -308.0 -52.5 -310.15 -52.85 -310.25 -53.25 -310.2 -54.0 -309.9 -54.7 -309.25 -55.5 -309.25 -59.25 -309.25 -63.0 -309.25 -64.5 -308.75 -66.0 -308.5 -66.75 -308.25 -67.5 -308.25 -68.25 -308.25 -69.75 -308.25 -70.5 Q-307.0 -74.0 -305.1 -77.15 -303.05 -80.4 -301.8 -84.0 L-301.25 -85.5 -299.75 -87.0 -298.25 -88.5 Q-295.6 -95.1 -290.5 -100.25 -285.75 -105.05 -280.5 -108.0 M-24.3 -161.75 L-23.0 -161.95 -22.55 -162.0 Q-24.9 -156.75 -32.55 -152.6 -41.95 -147.55 -51.8 -143.25 L-53.7 -143.3 -54.3 -143.75 -33.4 -156.0 Q-28.75 -158.7 -24.3 -161.75 M-79.15 -182.25 Q-83.5 -179.95 -87.0 -176.5 L-89.15 -176.85 -89.25 -177.25 Q-87.05 -180.9 -82.6 -183.4 -79.95 -184.85 -77.8 -187.0 -75.85 -187.75 -74.65 -189.35 -74.0 -190.15 -73.0 -190.05 L-72.55 -190.0 Q-73.05 -185.45 -79.15 -182.25 M-48.55 -137.0 Q-48.15 -136.25 -48.15 -135.5 -48.15 -134.75 -48.55 -134.0 L-53.8 -131.55 -55.05 -131.0 -56.1 -131.7 Q-56.3 -131.9 -56.3 -132.25 L-55.0 -133.75 -53.8 -135.0 -53.0 -135.25 -51.05 -135.75 -50.2 -136.4 -49.0 -136.95 -48.55 -137.0 M-25.05 -130.25 L-22.55 -130.0 -21.85 -129.2 -21.15 -127.7 -20.8 -126.25 -21.1 -125.55 -21.6 -124.8 -22.55 -124.0 -23.7 -124.25 -24.3 -124.75 -24.15 -125.45 -23.85 -126.3 Q-23.8 -126.65 -24.05 -127.0 L-25.5 -127.4 Q-26.05 -127.75 -26.3 -128.5 L-26.2 -129.25 -26.0 -129.75 -25.75 -129.9 -25.05 -130.1 -25.05 -130.25 M-24.1 -108.7 Q-24.3 -108.9 -24.3 -109.25 -22.55 -111.75 -19.95 -113.3 -18.8 -114.0 -17.8 -115.0 L-17.0 -115.25 -15.05 -115.75 -14.2 -116.4 -13.0 -116.95 -12.55 -117.0 Q-11.15 -116.05 -12.5 -114.75 L-14.05 -113.25 -17.05 -112.25 -18.55 -110.75 -20.05 -109.25 -23.05 -108.0 -24.1 -108.7 M-97.0 -179.05 L-96.5 -179.0 Q-98.55 -173.65 -105.65 -169.05 -110.35 -166.05 -114.75 -162.5 L-116.0 -162.0 Q-116.65 -162.25 -117.1 -162.7 L-117.25 -163.25 -115.3 -165.55 -113.75 -167.0 Q-111.0 -168.35 -108.95 -170.65 L-106.0 -173.75 -102.5 -175.25 -98.8 -178.6 Q-98.0 -179.15 -97.0 -179.05 M-118.75 -163.3 L-117.8 -162.45 -117.0 -161.75 -116.9 -161.0 Q-116.9 -160.65 -117.15 -160.5 L-118.75 -160.0 -120.0 -160.8 -122.0 -162.25 -122.15 -163.0 -121.9 -163.6 -121.05 -164.1 -121.0 -164.25 -119.5 -164.0 -118.75 -163.3 M-132.55 -179.2 Q-131.75 -178.5 -131.25 -177.6 L-130.75 -176.25 -131.15 -175.65 Q-131.5 -175.25 -132.0 -175.25 L-133.25 -175.5 -133.4 -176.2 -133.75 -177.0 -134.3 -177.35 Q-137.25 -178.15 -139.6 -179.7 -140.25 -180.15 -139.0 -180.25 L-133.5 -180.0 -132.55 -179.2 M-129.5 -170.25 L-128.7 -170.8 -127.5 -171.0 Q-126.2 -169.0 -128.85 -167.0 -130.5 -165.75 -132.5 -165.0 L-133.65 -165.25 -134.25 -165.75 -134.1 -166.4 -132.75 -168.0 -131.0 -168.75 -129.5 -170.25 M-155.0 -109.25 L-153.6 -108.85 -152.75 -108.25 Q-151.65 -106.55 -150.85 -104.55 -150.0 -102.55 -148.75 -100.75 -149.15 -100.4 -149.6 -100.25 L-151.75 -100.0 -152.95 -102.3 -154.75 -106.0 -156.0 -107.65 Q-156.45 -108.4 -155.7 -108.9 L-155.0 -109.25 M-90.1 -120.45 L-89.25 -119.0 -88.75 -118.25 -88.75 -117.5 -88.75 -116.75 -88.2 -115.3 -87.05 -113.0 -86.75 -112.25 -86.75 -111.5 -86.75 -110.75 -86.5 -110.0 -86.2 -109.3 -85.75 -108.5 -85.8 -104.75 -85.8 -99.5 -85.75 -98.75 Q-86.15 -98.4 -86.5 -98.4 L-89.25 -98.75 -89.1 -99.45 -88.6 -100.3 -88.25 -101.0 -88.25 -102.5 -88.25 -104.75 -88.25 -107.0 -88.5 -107.75 -88.75 -108.5 -89.25 -110.0 -89.5 -111.45 -90.5 -113.75 -91.25 -115.25 -91.25 -116.0 -91.35 -116.75 -91.5 -117.5 -92.9 -118.85 Q-94.2 -119.85 -94.25 -121.25 L-94.0 -121.75 -93.75 -121.9 -93.05 -122.1 -93.0 -122.25 -91.6 -121.85 -90.75 -121.25 -90.1 -120.45 M-86.5 -86.0 Q-86.15 -85.25 -86.15 -84.5 -86.15 -83.75 -86.5 -83.0 -87.9 -80.9 -89.1 -82.85 L-89.25 -83.5 -88.55 -84.8 -87.0 -85.9 -86.5 -86.0 M-122.9 -3.95 Q-122.45 -5.2 -121.0 -5.05 L-120.5 -5.0 -119.95 -3.45 -119.75 -2.0 -120.1 -1.3 -120.75 -0.5 -120.75 0.25 -120.75 1.0 -121.1 1.7 -121.75 2.5 -122.25 3.85 Q-122.9 4.95 -122.75 6.25 L-123.3 6.95 -124.75 8.5 -125.4 9.95 -126.25 12.0 -128.7 11.7 -129.25 11.25 -129.1 10.6 -127.75 9.0 -127.4 8.2 -127.25 7.5 -126.5 6.75 -125.75 6.0 -124.65 3.9 Q-124.15 2.75 -124.25 1.5 L-123.6 0.7 -123.25 0.0 -123.25 -0.75 -123.25 -1.5 Q-123.25 -2.8 -122.9 -3.95 M-101.5 -3.0 L-91.05 -0.5 Q-85.05 0.95 -82.0 3.5 -88.45 5.35 -95.1 2.15 -98.25 0.65 -101.6 -0.45 -102.5 -0.75 -103.25 -1.5 L-103.2 -2.25 -103.0 -2.75 -102.75 -2.9 -102.0 -3.0 -101.5 -3.0 M-67.05 -2.25 L-63.55 -2.0 -60.7 -1.0 Q-58.2 -0.35 -55.8 0.75 L-54.3 1.5 Q-50.1 1.8 -46.15 2.95 -43.15 3.8 -41.8 6.25 L-42.6 6.7 -44.8 7.0 Q-46.05 6.35 -47.35 5.9 -49.05 5.25 -50.85 4.75 L-54.8 4.0 Q-58.1 2.15 -61.8 1.65 -66.25 1.0 -67.45 -1.85 L-67.05 -2.25 M-70.0 30.25 L-69.75 30.05 -69.05 30.0 -68.55 30.0 -67.8 30.75 -67.05 31.5 -66.85 32.25 -66.8 33.0 -66.8 33.75 -66.65 34.4 -66.1 35.3 -65.8 36.0 -65.75 37.5 -65.85 39.75 -66.05 40.5 -67.05 40.75 -68.3 40.5 -68.3 39.75 -68.3 39.0 -68.3 38.25 Q-68.3 37.85 -68.45 37.55 L-68.95 36.7 -69.3 36.0 -69.3 35.25 -69.3 34.5 -69.9 33.05 Q-70.55 32.05 -70.3 30.75 L-70.0 30.25 M-66.55 53.0 L-65.95 54.55 -65.8 56.0 Q-66.8 56.5 -67.8 56.6 L-68.3 56.25 -67.9 54.15 Q-67.65 53.5 -66.95 53.1 L-66.55 53.0 M-103.5 113.0 Q-107.95 113.45 -112.0 115.25 L-113.65 114.75 -114.25 114.25 Q-112.85 111.55 -109.1 110.8 L-103.0 110.0 -102.5 110.0 Q-102.25 110.75 -102.45 111.35 -102.75 112.25 -103.5 113.0 M-153.5 161.0 L-152.5 161.75 Q-151.75 163.6 -151.15 165.5 L-149.75 170.0 -148.85 171.5 -147.75 173.75 -147.75 174.5 -147.75 175.25 -146.45 178.2 Q-145.4 180.0 -144.75 182.0 L-144.75 182.75 -144.75 183.5 -144.45 184.2 -144.05 185.0 -143.75 185.75 -143.75 186.5 -143.75 187.25 -143.5 188.0 -143.25 188.75 -142.75 189.45 -142.1 190.3 -141.75 191.0 -143.8 191.55 Q-144.15 191.6 -144.5 191.25 L-145.2 190.4 -146.0 188.95 -146.25 188.25 -146.25 187.5 -146.25 186.75 -146.55 186.0 -146.95 185.2 -147.25 184.5 -147.25 183.75 -147.25 183.0 Q-147.8 181.45 -148.6 180.0 L-150.25 176.25 -150.25 175.5 -150.25 174.75 -150.55 174.0 -151.35 172.55 -152.0 171.75 Q-152.7 168.6 -154.2 165.8 -156.15 161.95 -153.5 161.0 M-19.05 122.75 L-20.3 122.5 Q-21.75 120.85 -23.65 119.7 -26.25 118.1 -27.3 115.75 L-27.0 115.25 -26.75 115.05 -26.05 115.0 -25.55 115.0 Q-23.3 116.35 -21.3 118.05 -19.35 119.7 -17.8 121.75 L-18.15 122.35 Q-18.55 122.75 -19.05 122.75 M-31.55 139.0 L-27.35 142.45 Q-25.4 143.9 -23.8 145.75 L-24.05 146.45 -24.35 146.9 -25.05 147.25 -26.8 147.0 -27.55 146.25 -28.3 145.5 -29.05 144.75 -30.7 143.85 -31.55 143.25 -33.05 141.15 Q-33.9 139.9 -32.65 139.25 L-31.55 139.0 M-53.0 163.25 L-52.75 163.05 -52.05 163.0 -51.55 163.0 Q-49.55 163.7 -48.0 165.2 L-45.05 168.25 -44.6 169.0 -44.3 169.75 -43.7 170.4 -42.75 171.2 -41.55 172.0 -40.85 172.8 -40.05 174.25 -39.3 175.75 -38.25 176.45 -37.05 177.25 -36.6 178.0 -36.25 178.7 -35.8 179.5 -33.55 181.75 -30.6 184.8 -30.05 185.5 Q-29.9 185.85 -30.0 186.15 -30.15 186.6 -30.6 186.75 L-31.8 187.0 -34.85 184.05 Q-37.15 181.95 -38.8 179.5 L-39.55 178.8 -40.8 178.0 -41.45 177.15 -42.3 175.75 -43.05 174.25 -43.8 173.55 -45.0 172.65 -45.8 172.0 -46.75 170.45 Q-47.5 169.2 -48.5 168.2 L-50.05 166.75 -51.7 165.85 -52.55 165.25 -53.3 164.5 -53.2 163.75 -53.0 163.25 M-68.75 153.05 L-68.05 153.0 -67.55 153.0 -65.0 156.85 Q-63.75 158.6 -62.8 160.5 -57.1 167.25 -52.35 174.8 -48.95 180.25 -45.05 185.25 -44.3 186.95 -43.1 188.3 -42.0 189.6 -41.8 191.25 L-42.6 191.75 -43.8 192.0 -46.2 188.05 Q-47.4 186.0 -49.3 184.5 -53.4 177.6 -57.95 170.9 -61.4 165.75 -65.55 161.25 L-66.3 159.75 -67.0 158.2 -67.3 157.5 -68.6 155.85 -69.3 154.5 -69.2 153.75 -69.0 153.25 -68.75 153.05 M-192.25 67.75 L-191.65 67.2 -190.5 67.0 Q-188.95 70.4 -193.0 73.35 -195.15 74.85 -197.0 76.75 L-198.7 77.55 -199.25 78.0 Q-203.7 79.85 -204.25 76.5 -198.9 75.55 -195.2 71.55 L-193.0 69.25 -192.25 67.75 M-286.25 42.75 L-285.75 44.25 -283.75 45.75 -282.75 46.5 Q-277.55 53.3 -269.65 57.5 -266.55 59.1 -264.0 61.5 -264.25 62.25 -264.8 62.65 -265.15 63.0 -265.75 63.0 -273.9 58.4 -281.05 52.55 L-284.25 49.5 -284.7 48.7 -285.0 48.0 -286.25 47.2 -287.25 46.5 Q-288.3 45.6 -288.65 44.3 L-289.25 42.75 -289.35 40.5 Q-289.45 39.55 -288.65 39.2 L-287.5 39.0 -287.0 39.8 Q-286.75 40.5 -286.75 41.25 L-286.25 42.75 M-284.0 72.25 L-283.25 71.5 -282.95 70.75 -282.5 70.0 -281.9 69.35 Q-281.25 68.85 -280.5 68.5 L-280.25 67.75 -280.0 67.25 -279.75 67.05 -279.05 66.85 -279.0 66.75 -277.6 67.15 -276.75 67.75 -277.1 68.45 -278.3 69.95 -279.0 70.75 -280.25 71.5 Q-281.25 73.2 -282.75 74.5 -284.15 75.75 -284.75 77.5 L-285.55 78.2 -286.5 79.0 -287.65 78.75 -288.25 78.25 -287.5 76.75 -286.75 75.25 -286.25 74.5 -285.5 73.75 -284.0 72.25 M-258.65 66.85 L-259.15 66.2 -259.25 65.5 -258.7 65.1 -258.0 65.0 -257.5 65.0 Q-253.65 66.85 -249.65 68.15 L-243.75 69.75 -243.75 70.5 -243.9 71.15 -244.5 72.0 -250.75 70.8 -253.75 70.0 -255.85 68.6 -258.65 66.85 M-294.5 105.0 L-295.1 105.6 -296.5 106.5 -296.8 107.2 -297.25 108.0 -298.85 109.4 -300.0 110.25 -301.6 112.55 -302.25 114.0 Q-303.5 114.5 -304.8 114.6 L-305.25 114.25 Q-305.05 113.05 -304.35 111.95 L-303.5 110.5 -302.75 109.0 -300.5 107.45 -299.5 106.75 -299.25 106.0 -299.0 105.25 -296.65 103.1 Q-295.9 102.5 -294.95 102.05 L-294.5 102.0 Q-294.15 102.75 -294.15 103.5 -294.15 104.25 -294.5 105.0 M-197.55 146.0 L-197.75 156.5 -197.9 157.15 -198.75 158.75 -198.75 162.5 -198.75 166.25 -200.75 166.6 Q-201.0 166.6 -201.25 166.25 L-201.25 161.75 -201.25 158.0 -200.95 157.25 -200.55 156.45 -200.25 155.75 Q-200.25 148.25 -200.95 140.8 -201.55 134.1 -198.5 131.0 -197.2 138.1 -197.55 146.0 M-340.65 95.1 Q-340.15 94.6 -339.5 94.25 L-336.45 90.3 Q-335.4 89.05 -334.0 89.0 L-333.5 89.0 Q-332.15 89.95 -333.5 91.25 L-335.75 93.5 -336.2 94.25 -336.5 95.0 -338.3 96.45 -339.25 97.25 -339.55 97.95 -340.0 98.75 -341.25 99.5 -342.25 100.25 -342.55 100.95 -343.0 101.75 -344.25 102.5 -345.5 103.25 -346.0 104.0 -346.45 104.75 -346.75 105.5 -348.0 106.0 -349.25 105.5 -349.2 104.75 -349.0 104.0 -348.75 103.25 Q-347.9 101.95 -346.75 101.0 L-344.75 99.5 -343.65 98.1 -341.75 96.5 -340.65 95.1" fill="#ffffff" fill-rule="evenodd" stroke="none"/>
  </g>
</svg>
