<?xml version="1.0" encoding="UTF-8" standalone="no"?>
<svg xmlns:ffdec="https://www.free-decompiler.com/flash" xmlns:xlink="http://www.w3.org/1999/xlink" ffdec:objectType="shape" height="288.65px" width="202.35px" xmlns="http://www.w3.org/2000/svg">
  <g transform="matrix(1.0, 0.0, 0.0, 1.0, 93.45, 54.7)">
    <path d="M74.95 -53.3 Q101.85 -17.25 101.6 28.35 101.4 71.15 97.5 111.15 L95.6 112.55 93.9 113.15 91.95 109.8 91.5 109.95 Q74.9 75.15 74.8 34.55 74.8 31.7 75.95 35.35 82.55 56.3 87.95 77.45 88.8 73.15 90.25 68.65 96.95 47.75 94.6 25.1 90.3 -16.85 73.95 -54.0 73.2 -55.65 74.95 -53.3 M72.45 40.5 Q76.45 73.9 55.0 103.4 52.65 106.65 52.7 111.15 L50.8 112.55 49.1 113.15 47.65 109.8 46.7 111.55 Q42.05 109.5 37.8 107.0 26.1 130.85 31.1 156.75 30.3 157.7 29.2 158.15 L27.5 158.75 Q24.35 155.2 22.5 150.8 0.0 129.3 7.05 101.15 7.35 99.85 7.95 102.25 12.35 119.75 20.1 135.65 20.25 132.6 20.75 129.3 23.4 112.35 34.15 104.7 22.5 96.9 14.6 85.35 13.65 83.9 15.2 84.6 22.95 87.95 32.2 90.95 42.0 94.15 46.0 98.4 46.75 87.3 56.0 75.0 68.6 58.25 71.95 39.4 72.15 38.25 72.45 40.5 M12.85 71.5 Q-10.65 110.15 -11.95 153.75 -12.6 174.9 -3.4 194.8 6.6 216.35 -3.7 233.95 -10.35 208.9 -14.65 182.15 -40.9 145.75 -59.45 103.55 -62.4 96.9 -62.35 89.55 -72.95 111.05 -70.0 134.3 -70.0 134.6 -70.9 134.75 L-71.9 133.1 -72.5 133.15 Q-104.3 69.6 -87.85 -2.2 -86.25 -9.35 -85.75 -1.85 -84.6 15.1 -84.75 32.15 -85.15 68.2 -78.05 102.95 -77.05 94.75 -73.45 85.9 -67.3 70.55 -60.4 75.85 -59.35 73.0 -58.5 77.85 -57.6 79.35 -58.0 81.05 L-57.6 84.6 Q-54.8 113.95 -34.5 135.85 -24.35 146.85 -17.85 159.35 L-19.25 146.25 Q-21.45 123.4 -11.85 102.35 -2.15 81.15 13.2 70.05 14.1 69.4 12.85 71.5 M100.6 131.3 Q98.75 145.95 108.9 155.15 L108.2 156.25 Q106.95 157.9 105.1 157.95 87.0 149.05 98.5 130.35 101.3 125.75 100.6 131.3" fill="#ff0000" fill-rule="evenodd" stroke="none"/>
    <path d="M92.4 -4.45 L93.9 -7.05 Q95.0 -8.85 95.4 -6.35 96.95 4.05 97.4 14.7 L97.25 14.75 96.15 3.7 Q95.55 -1.45 92.4 -4.45 M97.9 42.3 L97.95 42.5 Q104.15 64.2 92.25 75.35 94.2 63.8 95.8 52.05 L96.3 52.75 Q97.3 52.7 97.35 52.0 L97.9 42.3 M82.95 67.5 Q80.75 62.35 79.7 56.55 81.7 61.6 82.8 66.75 L82.95 67.5 M55.1 91.75 L51.55 114.95 50.7 115.55 Q44.0 112.4 38.55 108.5 32.3 126.85 22.7 139.55 1.8 116.0 5.15 82.0 L7.9 82.05 Q7.2 92.35 7.65 102.4 8.4 120.15 21.9 128.35 33.05 118.55 33.15 102.55 33.2 95.1 30.1 96.9 L30.85 93.2 Q35.75 96.55 40.7 99.55 L43.65 99.2 Q50.2 99.85 49.1 92.75 52.95 93.8 55.1 91.75 M-1.05 81.3 Q1.35 84.0 1.1 91.25 0.95 96.2 -0.7 101.75 -7.55 124.5 -14.9 145.35 -8.05 153.55 -11.1 163.0 -12.05 165.85 -14.9 165.95 -41.05 143.4 -49.2 115.5 L-49.3 115.55 Q-63.55 104.25 -65.1 83.75 L-65.1 83.15 Q-68.85 109.75 -77.25 98.35 L-75.05 89.4 Q-69.6 80.55 -66.5 70.3 L-65.5 66.65 Q-63.35 66.35 -59.6 64.25 -58.05 63.4 -56.65 63.1 -56.85 76.65 -53.45 90.8 -48.2 112.6 -40.2 134.55 -36.9 143.65 -30.2 140.95 L-29.9 141.05 -24.5 143.55 Q-23.8 143.5 -23.75 143.05 -22.65 133.25 -20.25 123.8 -17.1 112.85 -12.95 102.3 -9.4 94.05 -4.8 86.15 -3.1 83.2 -2.75 81.0 L-1.05 81.3 M-86.65 73.65 Q-90.65 46.25 -84.85 22.35 L-84.3 22.85 Q-85.15 27.0 -84.95 31.8 L-84.7 39.05 Q-85.45 51.45 -85.45 64.05 -85.45 69.0 -86.65 73.65 M86.5 46.6 L86.55 46.7 86.5 46.95 86.5 46.6" fill="#ff0800" fill-rule="evenodd" stroke="none"/>
    <path d="M-77.25 98.35 L-77.95 101.35 Q-78.3 102.7 -79.7 102.75 -84.3 97.55 -83.15 88.8 -81.9 92.15 -79.7 94.75 -78.6 94.7 -77.9 93.75 L-75.05 89.4 -77.25 98.35 M-83.2 88.7 Q-89.45 84.35 -86.7 73.9 L-86.65 73.65 Q-85.45 69.0 -85.45 64.05 -85.45 51.45 -84.7 39.05 -84.0 58.45 -84.65 77.9 -84.85 84.0 -83.2 88.7 M86.5 46.6 Q86.6 36.6 79.5 34.4 L80.25 33.0 78.7 30.7 Q75.5 25.8 76.55 19.35 71.45 10.85 80.6 4.05 L80.65 3.3 Q80.9 -0.7 77.4 -1.85 74.95 7.55 70.95 -3.6 68.3 -11.05 76.25 -8.4 90.6 -3.55 89.5 12.65 90.9 21.75 90.55 31.05 88.85 38.95 86.55 46.7 L86.5 46.6 M18.1 75.35 L21.7 75.0 Q20.5 69.35 23.35 62.25 25.85 56.05 30.9 55.55 33.45 52.2 37.6 53.65 41.0 49.95 45.25 51.55 46.85 52.15 48.55 53.5 L51.45 56.2 Q53.7 58.6 52.65 62.1 51.35 66.7 47.35 68.25 43.7 75.35 38.05 80.8 38.7 83.35 39.7 85.75 41.2 89.3 37.5 89.95 24.6 84.95 22.0 76.2 L19.05 76.0 17.6 76.2 18.1 75.35 M15.55 80.85 L15.75 80.25 17.15 81.15 17.2 81.9 17.25 82.45 Q18.55 81.35 20.65 83.4 L22.8 85.9 Q23.65 85.6 24.4 86.95 25.75 89.25 26.2 91.2 L26.25 91.3 26.3 91.5 26.8 93.6 Q27.6 95.8 27.45 97.7 30.05 98.65 28.0 91.25 L27.95 91.15 30.85 93.2 30.1 96.9 Q28.6 97.8 26.4 100.8 L25.75 101.65 Q21.9 107.05 18.8 113.35 17.25 104.85 16.65 96.2 13.75 91.25 16.25 84.15 L16.3 84.0 16.3 83.95 Q16.3 82.15 15.55 80.85 M63.0 52.8 L63.65 53.25 62.45 55.75 59.0 56.35 58.45 56.25 61.7 53.85 63.0 52.8 M-69.0 32.85 L-68.4 31.55 Q-67.8 30.4 -66.7 31.75 -58.25 42.05 -63.75 51.9 -64.65 53.45 -66.8 54.0 L-67.6 54.15 Q-70.6 63.4 -76.1 71.15 -82.2 65.4 -78.7 55.4 -76.6 49.5 -77.3 43.0 -78.7 30.25 -69.0 32.85 M-21.75 62.5 Q-18.2 64.85 -16.75 68.5 -15.3 72.1 -14.7 76.15 L-14.65 76.45 -12.95 77.4 Q-22.7 102.3 -30.5 128.45 -37.6 107.7 -43.55 86.75 -45.55 79.8 -45.7 72.65 -45.75 70.2 -46.15 68.0 L-42.9 69.15 Q-45.4 55.6 -32.55 58.55 -29.8 57.65 -27.3 59.9 L-27.05 60.1 Q-24.0 61.05 -21.75 62.5" fill="#ff4a00" fill-rule="evenodd" stroke="none"/>
    <path d="M-84.85 22.35 L-85.6 21.55 Q-95.1 19.2 -88.55 7.75 -81.3 -4.95 -67.75 3.25 -48.7 14.85 -49.0 37.95 L-49.0 38.15 Q-47.3 37.55 -45.4 37.25 -43.4 36.95 -41.25 35.85 -15.5 23.05 3.1 46.15 6.0 49.75 6.5 53.8 8.9 54.55 10.2 56.5 L11.55 54.15 Q16.15 46.65 22.9 40.7 36.6 28.7 53.05 25.25 L58.05 24.65 Q63.7 24.4 67.55 26.15 65.95 22.1 65.0 17.4 62.75 6.25 61.95 -5.05 60.55 -23.5 67.8 -39.3 L71.25 -46.65 Q74.6 -53.8 77.7 -46.0 78.7 -43.4 79.3 -40.7 81.35 -37.95 82.3 -34.45 91.8 -27.85 92.0 -15.05 92.1 -10.15 91.1 -5.55 L92.4 -4.45 Q95.55 -1.45 96.15 3.7 L97.25 14.75 97.4 14.7 Q98.55 14.55 98.95 17.55 99.5 21.5 99.05 25.75 L98.05 34.55 97.9 42.3 97.35 52.0 Q97.3 52.7 96.3 52.75 L95.8 52.05 Q94.2 63.8 92.25 75.35 L91.2 81.7 Q91.1 82.3 90.3 82.35 85.05 76.55 82.95 67.5 L82.8 66.75 Q81.7 61.6 79.7 56.55 L78.8 54.3 Q77.45 51.2 76.55 48.1 71.75 68.65 59.75 83.7 57.9 85.95 56.9 88.85 56.2 90.7 55.1 91.75 52.95 93.8 49.1 92.75 50.2 99.85 43.65 99.2 L40.7 99.55 Q35.75 96.55 30.85 93.2 L27.95 91.15 28.0 91.25 Q30.05 98.65 27.45 97.7 27.6 95.8 26.8 93.6 L26.3 91.5 26.25 91.3 26.2 91.2 Q25.75 89.25 24.4 86.95 23.65 85.6 22.8 85.9 L20.65 83.4 Q18.55 81.35 17.25 82.45 L17.2 81.9 17.15 81.15 15.75 80.25 14.95 79.65 14.9 79.85 15.2 80.25 15.55 80.85 Q16.3 82.15 16.3 83.95 L16.3 84.0 16.25 84.15 Q13.75 91.25 16.65 96.2 17.25 104.85 18.8 113.35 21.9 107.05 25.75 101.65 L26.4 100.8 Q28.6 97.8 30.1 96.9 33.2 95.1 33.15 102.55 33.05 118.55 21.9 128.35 8.4 120.15 7.65 102.4 7.2 92.35 7.9 82.05 L5.15 82.0 -1.05 81.3 -2.75 81.0 Q-3.1 83.2 -4.8 86.15 -9.4 94.05 -12.95 102.3 -17.1 112.85 -20.25 123.8 -22.65 133.25 -23.75 143.05 -23.8 143.5 -24.5 143.55 L-29.9 141.05 -30.2 140.95 Q-36.9 143.65 -40.2 134.55 -48.2 112.6 -53.45 90.8 -56.85 76.65 -56.65 63.1 -58.05 63.4 -59.6 64.25 -63.35 66.35 -65.5 66.65 L-66.5 70.3 Q-69.6 80.55 -75.05 89.4 L-77.9 93.75 Q-78.6 94.7 -79.7 94.75 -81.9 92.15 -83.15 88.8 L-83.2 88.7 Q-84.85 84.0 -84.65 77.9 -84.0 58.45 -84.7 39.05 L-84.95 31.8 Q-85.15 27.0 -84.3 22.85 L-84.85 22.35 M86.55 46.7 Q88.85 38.95 90.55 31.05 90.9 21.75 89.5 12.65 90.6 -3.55 76.25 -8.4 68.3 -11.05 70.95 -3.6 74.95 7.55 77.4 -1.85 80.9 -0.7 80.65 3.3 L80.6 4.05 Q71.45 10.85 76.55 19.35 75.5 25.8 78.7 30.7 L80.25 33.0 79.5 34.4 Q86.6 36.6 86.5 46.6 L86.5 46.95 86.55 46.7 M58.75 44.8 L59.7 43.9 Q55.3 43.75 50.9 45.85 L52.3 46.25 Q55.75 45.95 58.75 44.8 M68.0 33.8 L62.6 35.45 66.55 35.95 68.0 33.8 M38.9 38.85 L39.0 38.75 Q37.45 39.85 36.4 41.3 L36.5 41.25 38.9 38.85 M45.25 51.55 Q41.0 49.95 37.6 53.65 33.45 52.2 30.9 55.55 25.85 56.05 23.35 62.25 20.5 69.35 21.7 75.0 L18.1 75.35 12.0 75.45 Q13.9 75.8 14.65 77.1 15.5 76.55 17.6 76.2 L19.05 76.0 22.0 76.2 Q24.6 84.95 37.5 89.95 41.2 89.3 39.7 85.75 38.7 83.35 38.05 80.8 43.7 75.35 47.35 68.25 51.35 66.7 52.65 62.1 53.7 58.6 51.45 56.2 L48.55 53.5 49.95 52.45 Q47.8 52.1 45.4 51.35 L45.25 51.55 M63.65 53.25 L64.55 51.45 63.0 52.8 61.7 53.85 58.45 56.25 59.0 56.35 62.45 55.75 63.65 53.25 M-23.6 42.1 L-23.5 42.25 -22.7 43.6 -20.3 44.6 Q-20.0 42.2 -23.6 42.1 M-69.0 32.85 Q-78.7 30.25 -77.3 43.0 -76.6 49.5 -78.7 55.4 -82.2 65.4 -76.1 71.15 -70.6 63.4 -67.6 54.15 L-66.8 54.0 Q-64.65 53.45 -63.75 51.9 -58.25 42.05 -66.7 31.75 -67.8 30.4 -68.4 31.55 L-69.0 32.85 M-27.3 59.9 Q-29.8 57.65 -32.55 58.55 -45.4 55.6 -42.9 69.15 L-46.15 68.0 Q-45.75 70.2 -45.7 72.65 -45.55 79.8 -43.55 86.75 -37.6 107.7 -30.5 128.45 -22.7 102.3 -12.95 77.4 L-14.65 76.45 -14.7 76.15 Q-15.3 72.1 -16.75 68.5 -18.2 64.85 -21.75 62.5 L-22.4 60.95 -22.5 60.65 -27.3 59.9 M-43.5 52.45 Q-41.8 53.2 -39.9 53.3 L-39.7 53.25 -40.7 51.75 -40.8 51.45 Q-42.6 51.3 -43.5 52.45 M-5.45 69.05 L-3.6 68.9 -6.3 66.95 -5.45 69.05" fill="#ff3300" fill-rule="evenodd" stroke="none"/>
  </g>
</svg>
