<?xml version="1.0" encoding="UTF-8" standalone="no"?>
<svg xmlns:ffdec="https://www.free-decompiler.com/flash" xmlns:xlink="http://www.w3.org/1999/xlink" ffdec:objectType="shape" height="43.05px" width="93.7px" xmlns="http://www.w3.org/2000/svg">
  <g transform="matrix(1.0, 0.0, 0.0, 1.0, 418.2, 1.25)">
    <path d="M-365.15 -1.15 Q-358.2 -1.65 -351.65 0.45 -345.75 2.25 -340.5 5.45 L-339.0 6.1 Q-336.3 7.4 -333.6 8.9 -330.35 10.75 -327.15 13.15 L-326.75 13.55 -326.45 13.9 -325.95 14.3 -325.1 15.05 -324.9 15.4 -324.7 15.8 -324.6 16.15 -324.5 16.55 -324.6 16.9 -324.7 17.3 -324.9 17.7 -325.15 18.0 -325.5 18.4 -325.45 18.8 -325.35 19.15 -325.25 19.55 -325.1 19.9 -325.15 20.3 -325.1 20.65 -324.85 21.05 -324.7 21.4 -324.5 21.8 -324.5 22.15 -324.5 22.55 -324.5 22.95 -324.5 23.7 -324.5 24.1 -324.5 24.85 -324.7 25.2 -324.85 25.6 -325.1 25.95 -325.1 26.35 -325.1 26.7 -325.25 27.1 -325.35 27.45 -325.5 27.85 -325.75 28.25 -325.95 28.6 -326.2 28.95 -326.2 29.35 -326.2 29.7 -326.45 30.45 -327.05 32.4 Q-327.8 34.65 -329.35 36.3 L-333.3 39.4 -333.75 39.8 -334.15 40.2 -334.65 40.6 -335.2 40.85 -337.1 41.4 Q-340.15 42.15 -343.2 41.45 L-346.4 39.45 Q-350.3 37.1 -353.6 34.1 -356.1 31.75 -358.6 29.55 -361.4 27.45 -364.65 26.1 -373.2 22.5 -383.0 23.85 L-386.5 24.8 Q-392.35 25.55 -397.4 28.1 L-399.8 29.45 -400.15 29.75 -400.35 30.0 -400.75 30.3 -401.5 30.95 -401.9 31.3 -402.15 31.65 -402.3 31.95 -402.6 32.25 -402.95 32.6 -403.35 32.9 -403.75 33.25 -404.85 34.2 Q-405.4 34.5 -405.55 35.15 L-406.0 35.45 -406.7 36.15 -409.5 37.85 Q-410.75 38.2 -411.65 39.1 L-412.0 39.2 -412.7 39.25 -413.2 39.2 Q-413.8 38.95 -414.25 38.85 L-414.65 38.75 Q-416.3 38.25 -417.35 37.15 L-417.65 36.8 -417.8 36.45 -417.8 36.1 -417.9 35.75 -418.05 35.35 -418.15 34.95 -418.2 34.65 -418.2 34.25 -418.2 33.9 -418.15 33.55 -418.1 32.8 -418.1 32.45 -418.05 31.75 -417.9 31.4 -417.75 31.05 -417.55 30.65 -417.25 30.0 Q-417.25 29.55 -416.9 29.25 L-416.5 28.55 Q-416.4 28.3 -416.1 28.2 L-415.75 27.85 -415.35 27.55 -415.2 27.15 -415.05 26.8 -414.7 26.5 -414.35 26.15 -413.9 25.8 -413.5 25.5 -413.15 25.15 -412.75 24.45 Q-412.5 23.7 -412.05 23.1 -411.3 21.35 -410.0 19.95 L-407.4 16.75 -407.05 16.4 -406.6 16.1 -406.25 15.8 Q-406.05 15.6 -405.85 15.55 L-405.5 15.15 -405.35 14.9 -405.25 14.5 -405.2 14.2 -404.85 13.85 -404.5 13.55 -404.1 13.25 -402.65 11.95 Q-401.8 11.05 -400.6 10.75 L-400.2 10.45 -399.85 10.15 Q-399.65 9.95 -399.45 9.9 -398.85 9.1 -397.9 8.65 -396.95 7.8 -396.0 7.1 -391.85 5.15 -387.5 3.6 -378.5 0.0 -368.5 -0.85 L-365.15 -1.15 M-342.3 10.75 L-345.15 9.2 Q-348.6 7.6 -351.9 6.35 L-355.5 5.0 -356.65 4.8 -357.1 4.7 -358.95 4.2 -359.35 4.1 -362.6 3.85 -367.7 4.1 Q-377.2 4.9 -385.55 8.25 -391.5 10.45 -396.45 13.8 L-396.85 14.05 -397.25 14.35 -398.35 15.3 -399.55 16.2 -400.7 17.15 -400.9 17.5 -401.1 17.8 -401.45 18.1 -402.15 18.75 -402.4 19.1 -402.55 19.45 -402.9 19.75 -403.2 20.05 Q-403.4 20.15 -403.6 20.4 L-403.95 20.7 Q-404.25 20.75 -404.35 21.0 L-405.25 22.45 -406.45 24.15 -407.05 25.0 -408.95 27.95 Q-410.0 29.3 -411.3 30.25 L-411.45 30.65 -411.7 30.95 -412.0 31.3 -412.75 32.0 -412.75 32.35 -412.85 32.7 -412.95 33.05 -413.0 33.45 -412.95 33.5 Q-411.85 33.3 -410.95 32.7 L-410.2 32.05 -409.8 31.8 -409.65 31.4 -409.5 31.1 -409.15 30.75 -408.7 30.45 Q-408.4 30.05 -407.95 29.85 -407.65 29.35 -407.15 29.2 L-406.8 28.85 -406.55 28.5 -406.4 28.25 -406.1 27.85 -403.85 25.9 Q-401.7 23.95 -398.95 23.0 -396.25 22.05 -393.75 20.65 -378.25 16.15 -362.55 21.65 -357.5 23.3 -353.25 26.55 -352.05 27.4 -351.25 28.65 L-349.4 29.95 -345.95 33.1 Q-343.75 35.2 -340.6 36.25 L-340.3 36.35 -339.25 36.35 -338.45 36.25 Q-336.6 35.7 -335.2 34.3 L-332.9 31.85 -332.75 31.5 -332.65 31.15 -332.4 30.35 -332.1 29.55 -331.8 28.75 -331.6 28.4 -331.6 28.0 -331.6 27.65 -331.55 27.2 -331.35 26.85 -331.05 26.45 -330.7 25.7 -330.5 25.3 -330.5 24.9 -330.5 24.55 -330.4 24.15 -330.25 23.8 -329.95 23.45 -330.15 23.05 -330.25 22.65 -330.5 21.9 -330.75 21.2 -331.05 20.45 -331.2 20.1 -331.45 19.75 -331.85 19.4 -332.2 19.0 -332.55 18.7 -332.65 18.3 -332.65 17.95 -332.65 17.55 -332.65 17.2 -332.5 16.75 -332.35 16.4 -332.3 16.0 -332.6 15.7 -333.05 15.3 -333.85 14.6 -334.65 13.9 -335.45 13.6 -335.95 13.35 Q-337.45 12.5 -338.8 12.05 L-340.45 11.45 -340.8 11.15 -341.05 10.9 -342.3 10.75" fill="#000000" fill-rule="evenodd" stroke="none"/>
    <path d="M-342.3 10.75 L-341.05 10.9 -340.8 11.15 -340.45 11.45 -338.8 12.05 Q-337.45 12.5 -335.95 13.35 L-335.45 13.6 -334.65 13.9 -333.85 14.6 -333.05 15.3 -332.6 15.7 -332.3 16.0 -332.35 16.4 -332.5 16.75 -332.65 17.2 -332.65 17.55 -332.65 17.95 -332.65 18.3 -332.55 18.7 -332.2 19.0 -331.85 19.4 -331.45 19.75 -331.2 20.1 -331.05 20.45 -330.75 21.2 -330.5 21.9 -330.25 22.65 -330.15 23.05 -329.95 23.45 -330.25 23.8 -330.4 24.15 -330.5 24.55 -330.5 24.9 -330.5 25.3 -330.7 25.7 -331.05 26.45 -331.35 26.85 -331.55 27.2 -331.6 27.65 -331.6 28.0 -331.6 28.4 -331.8 28.75 -332.1 29.55 -332.4 30.35 -332.65 31.15 -332.75 31.5 -332.9 31.85 -335.2 34.3 Q-336.6 35.7 -338.45 36.25 L-339.25 36.35 -340.3 36.35 -340.6 36.25 Q-343.75 35.2 -345.95 33.1 L-349.4 29.95 -351.25 28.65 Q-352.05 27.4 -353.25 26.55 -357.5 23.3 -362.55 21.65 -378.25 16.15 -393.75 20.65 -396.25 22.05 -398.95 23.0 -401.7 23.95 -403.85 25.9 L-406.1 27.85 -406.4 28.25 -406.55 28.5 -406.8 28.85 -407.15 29.2 Q-407.65 29.35 -407.95 29.85 -408.4 30.05 -408.7 30.45 L-409.15 30.75 -409.5 31.1 -409.65 31.4 -409.8 31.8 -410.2 32.05 -410.95 32.7 Q-411.85 33.3 -412.95 33.5 L-413.0 33.45 -412.95 33.05 -412.85 32.7 -412.75 32.35 -412.75 32.0 -412.0 31.3 -411.7 30.95 -411.45 30.65 -411.3 30.25 Q-410.0 29.3 -408.95 27.95 L-407.05 25.0 -406.45 24.15 -405.25 22.45 -404.35 21.0 Q-404.25 20.75 -403.95 20.7 L-403.6 20.4 Q-403.4 20.15 -403.2 20.05 L-402.9 19.75 -402.55 19.45 -402.4 19.1 -402.15 18.75 -401.45 18.1 -401.1 17.8 -400.9 17.5 -400.7 17.15 -399.55 16.2 -398.35 15.3 -397.25 14.35 -396.85 14.05 -396.45 13.8 Q-391.5 10.45 -385.55 8.25 -377.2 4.9 -367.7 4.1 L-362.6 3.85 -359.35 4.1 -358.95 4.2 -357.1 4.7 -356.65 4.8 -355.5 5.0 -351.9 6.35 Q-348.6 7.6 -345.15 9.2 L-342.3 10.75" fill="#80a839" fill-rule="evenodd" stroke="none"/>
  </g>
</svg>
