<?xml version="1.0" encoding="UTF-8" standalone="no"?>
<svg xmlns:ffdec="https://www.free-decompiler.com/flash" xmlns:xlink="http://www.w3.org/1999/xlink" ffdec:objectType="shape" height="289.5px" width="200.0px" xmlns="http://www.w3.org/2000/svg">
  <g transform="matrix(1.0, 0.0, 0.0, 1.0, 97.4, 59.55)">
    <path d="M67.1 -58.85 Q105.45 -29.95 102.35 19.2 99.8 59.9 102.3 98.35 L100.4 99.75 98.7 100.35 98.25 99.2 96.3 100.35 Q83.25 84.1 77.2 65.0 76.7 68.85 74.05 72.65 48.1 110.2 41.15 153.75 39.65 163.25 46.9 169.95 47.75 170.75 47.3 171.95 46.8 173.55 45.25 174.2 L43.5 174.75 41.35 172.25 40.3 172.35 Q0.95 134.6 17.7 84.65 18.25 83.0 18.05 85.6 16.4 108.4 24.35 129.6 L31.15 147.15 Q30.7 131.4 43.65 113.7 63.6 86.4 66.5 55.25 67.75 42.0 74.25 53.35 72.9 46.15 72.4 38.55 72.0 33.05 74.25 38.7 77.1 45.95 80.7 52.9 L92.2 75.45 Q89.5 56.75 92.4 35.55 99.8 -18.75 66.4 -58.85 65.25 -60.2 67.1 -58.85 M9.6 75.4 Q18.75 102.0 1.1 127.0 -16.05 151.3 -11.3 177.55 -12.25 178.85 -13.7 179.25 L-14.9 179.55 -16.6 176.25 Q-49.85 139.85 -61.75 91.65 -62.8 87.3 -63.1 83.55 -77.7 111.25 -69.5 144.4 -67.8 151.2 -73.3 153.95 L-74.65 148.95 -75.7 149.95 Q-88.55 106.15 -95.5 57.4 -102.2 10.7 -85.25 -32.65 -78.5 -49.9 -81.8 -33.45 -86.5 -10.05 -87.95 13.45 -90.8 59.75 -80.4 104.7 -77.8 87.0 -62.5 74.8 -60.65 67.35 -53.95 63.4 -52.7 62.7 -52.85 66.15 -55.5 118.55 -20.7 159.1 -21.1 142.85 -8.95 125.15 7.55 101.15 8.85 74.45 8.9 73.3 9.6 75.4 M-13.35 191.6 Q-1.0 207.1 -17.45 222.3 -23.0 227.4 -29.3 229.95 -34.1 220.2 -19.8 207.25 -12.8 200.9 -15.25 192.15 -16.55 187.55 -13.35 191.6" fill="#ff0000" fill-rule="evenodd" stroke="none"/>
    <path d="M88.95 -13.65 Q92.9 -13.4 93.95 -8.8 95.85 -0.55 96.25 7.25 95.5 5.5 94.35 3.95 L94.15 1.8 Q93.5 -4.55 90.0 -9.5 89.7 -11.7 88.95 -13.65 M94.9 32.75 Q95.05 39.35 94.6 45.6 94.7 65.55 91.8 82.75 91.7 83.4 90.7 83.55 85.1 77.8 82.7 70.1 76.15 61.55 74.5 52.3 L76.05 50.75 Q80.7 60.05 90.3 66.75 91.3 66.7 91.4 65.95 92.7 55.35 93.7 43.55 94.15 38.15 94.9 32.75 M65.9 71.0 Q61.2 99.8 43.35 118.65 42.95 119.1 41.7 119.35 39.9 135.8 33.0 148.85 32.5 149.8 31.5 149.95 18.1 135.95 15.4 116.15 16.5 117.95 18.1 119.35 L18.2 119.65 Q21.15 132.25 29.9 141.15 33.15 140.75 34.1 137.8 39.3 121.9 47.1 106.35 56.0 88.55 65.9 71.0 M12.45 104.75 L10.2 104.35 12.5 102.05 12.45 103.55 12.45 104.75 M5.0 108.65 Q-4.05 128.45 -12.75 148.95 -13.55 150.75 -16.1 150.95 -14.7 155.7 -17.4 159.6 -18.9 161.85 -21.3 161.95 -34.85 150.45 -43.8 131.55 -54.8 108.3 -55.9 81.9 -56.05 78.2 -55.8 75.3 -53.6 88.65 -52.1 102.1 -50.75 114.15 -42.5 118.75 L-42.45 119.05 Q-39.65 136.6 -27.7 146.35 -26.45 146.3 -25.6 145.2 -23.05 141.8 -21.6 137.8 -19.45 135.9 -17.75 133.55 -6.45 122.5 0.7 107.05 1.9 107.6 2.7 108.5 3.7 109.55 4.65 108.9 L5.0 108.65 M-56.15 73.3 L-59.8 73.5 Q-58.35 70.2 -57.3 66.55 L-56.15 73.3 M-61.0 76.05 Q-63.25 85.35 -70.25 88.6 -64.65 83.25 -61.0 76.05 M-73.55 90.5 Q-74.1 99.05 -79.75 104.25 -80.55 104.95 -81.3 105.15 -83.1 102.15 -84.55 98.8 L-84.05 98.95 Q-76.1 100.45 -73.55 90.5 M-86.25 94.4 Q-89.8 84.35 -90.7 71.7 L-91.15 64.0 -86.25 94.4 M-83.25 75.45 L-84.15 69.6 -82.5 72.35 Q-82.8 73.9 -83.25 75.45 M-85.5 59.5 L-85.85 56.65 -85.2 57.95 -85.4 58.85 -85.5 59.5 M-76.9 35.6 Q-75.1 33.55 -76.8 35.55 L-76.9 35.6 M-50.65 66.15 L-50.2 66.35 -50.0 69.45 -50.65 66.15 M-27.0 129.25 L-26.8 128.85 -25.7 128.3 -24.65 127.7 -26.2 131.45 -27.0 129.25 M-19.4 98.65 L-19.45 98.95 Q-21.45 110.3 -23.1 121.75 L-23.15 121.75 Q-22.15 109.95 -19.4 98.65 M16.05 70.8 L17.65 70.35 18.25 71.4 16.35 72.6 16.3 72.6 Q16.35 71.65 16.05 70.8" fill="#ff0800" fill-rule="evenodd" stroke="none"/>
    <path d="M84.0 -20.6 L84.25 -20.4 Q87.45 -17.6 88.95 -13.65 89.7 -11.7 90.0 -9.5 L89.55 -10.1 Q88.05 -12.05 87.0 -12.85 L84.05 -20.5 84.0 -20.6 M-78.9 -29.05 Q-75.9 -31.5 -70.9 -27.3 -70.1 -26.6 -70.25 -24.95 L-70.35 -23.5 -70.75 -22.3 -71.65 -19.05 -72.2 -18.65 -72.9 -18.8 Q-75.6 -19.3 -76.85 -18.85 -76.6 -24.0 -78.7 -28.65 L-78.9 -29.05 M-76.7 16.65 L-76.85 16.7 Q-75.25 14.5 -76.7 16.65 M-80.45 -2.2 L-80.6 -2.1 -80.45 -2.75 -80.45 -2.2 M-78.9 -8.95 L-78.9 -9.05 -78.85 -9.0 -78.9 -8.95 M-77.85 -12.8 L-77.2 -15.55 -75.85 -13.5 -76.4 -12.05 -78.2 -11.55 -77.85 -12.8 M-85.85 56.65 Q-87.1 44.35 -86.15 32.3 L-84.5 33.95 Q-80.05 32.1 -80.95 26.5 -74.05 22.2 -65.85 19.55 L-62.75 18.4 -61.75 19.95 Q-49.25 27.15 -55.95 43.0 L-56.45 43.95 Q-55.8 52.05 -62.55 54.65 -73.75 70.9 -80.8 90.35 L-83.25 75.45 Q-82.8 73.9 -82.5 72.35 L-84.15 69.6 -85.4 60.2 -85.5 59.5 -85.4 58.85 -85.2 57.95 -85.85 56.65 M-62.2 27.8 Q-60.65 31.5 -61.4 34.8 -60.4 35.1 -59.6 35.7 -59.0 30.65 -62.25 27.6 L-62.2 27.8 M-76.9 35.6 L-76.8 35.55 Q-75.1 33.55 -76.9 35.6 M-50.65 66.15 L-51.3 62.3 Q-48.9 64.1 -46.0 65.05 L-44.8 66.55 Q-41.3 57.6 -32.95 58.05 L-31.05 58.3 Q-28.25 58.8 -24.95 60.2 -22.65 61.2 -20.5 62.4 L-20.15 62.55 -19.85 62.75 Q-18.15 63.75 -16.55 64.8 -11.95 67.95 -7.95 72.1 -5.45 74.7 -4.6 76.95 -3.6 78.85 -4.25 80.5 -4.65 82.4 -6.5 84.0 -4.1 85.7 -1.65 85.9 -8.9 100.8 -14.4 117.05 L-15.75 117.35 Q-21.4 120.95 -24.65 127.7 L-25.7 128.3 -26.8 128.85 -27.0 129.25 Q-30.0 120.75 -32.6 112.15 -35.55 102.6 -37.0 92.85 -39.1 79.0 -49.1 73.75 L-50.0 69.45 -50.2 66.35 -50.65 66.15 M-44.0 67.55 L-42.8 68.9 -41.4 70.25 -40.0 66.95 -39.0 65.45 Q-41.45 66.15 -44.0 67.55 M3.2 72.05 L4.45 71.75 3.5 74.45 Q3.6 73.0 3.2 72.05 M-35.7 75.15 L-36.4 75.25 -35.75 75.95 -35.7 75.15 M-19.4 98.65 Q-22.15 109.95 -23.15 121.75 L-23.1 121.75 Q-21.45 110.3 -19.45 98.95 L-19.4 98.65 M-21.6 137.8 L-21.0 136.05 -20.2 135.9 -17.75 133.55 Q-19.45 135.9 -21.6 137.8 M83.0 10.6 L82.9 13.1 Q85.25 13.85 88.1 15.35 90.25 16.5 88.75 18.95 87.2 21.5 85.15 23.55 L86.9 26.4 Q86.45 33.2 85.25 40.0 84.55 43.8 84.7 47.0 L83.65 43.65 82.75 41.0 Q82.25 43.6 80.9 46.1 80.6 46.7 79.9 46.75 70.0 37.3 71.7 21.55 72.8 10.75 81.75 12.8 L83.1 7.25 83.0 10.6 M78.0 20.5 Q77.7 21.2 78.2 21.05 L79.75 19.95 79.95 19.2 Q78.95 17.85 78.0 20.5 M31.65 68.55 Q33.15 62.5 39.95 61.65 49.85 60.4 51.55 67.45 L51.75 68.5 55.7 66.0 Q42.15 94.0 29.8 123.15 29.25 108.3 31.05 93.35 31.95 85.85 28.8 82.45 L30.55 81.4 Q29.9 75.5 31.65 68.55 M24.2 77.0 L24.9 76.55 24.95 76.7 24.2 77.0 M46.65 71.65 L48.25 70.65 47.65 70.35 45.9 69.15 46.65 71.65" fill="#ff4a00" fill-rule="evenodd" stroke="none"/>
    <path d="M12.7 -34.05 Q1.35 -39.45 -1.25 -48.85 -1.65 -50.3 0.4 -49.6 12.9 -45.45 14.05 -35.2 14.2 -34.1 12.7 -34.05 M-70.35 -23.5 Q-68.75 -27.65 -66.25 -22.65 -64.8 -19.8 -64.45 -16.4 L-64.25 -13.2 Q-45.6 8.6 -42.8 35.85 -36.45 30.6 -25.65 32.05 L-16.6 33.35 Q-11.05 29.6 -2.5 34.65 L-1.0 35.15 Q9.65 38.3 16.0 48.25 17.45 47.6 18.85 46.9 L20.65 43.65 Q24.95 36.5 32.1 38.55 40.65 22.85 54.05 26.5 53.35 25.65 53.6 23.95 57.95 -5.35 72.65 -30.2 L75.25 -30.25 Q76.8 -28.85 76.7 -26.75 85.95 -32.95 83.85 -21.8 L83.7 -21.2 84.0 -20.6 84.05 -20.5 87.0 -12.85 Q88.05 -12.05 89.55 -10.1 L90.0 -9.5 Q93.5 -4.55 94.15 1.8 L94.35 3.95 Q95.5 5.5 96.25 7.25 98.65 12.65 97.2 19.55 95.85 26.1 94.9 32.75 94.15 38.15 93.7 43.55 92.7 55.35 91.4 65.95 91.3 66.7 90.3 66.75 80.7 60.05 76.05 50.75 L74.5 52.3 74.0 52.75 Q70.95 62.05 65.9 71.0 56.0 88.55 47.1 106.35 39.3 121.9 34.1 137.8 33.15 140.75 29.9 141.15 21.15 132.25 18.2 119.65 L18.1 119.35 Q16.5 117.95 15.4 116.15 12.55 111.65 12.45 104.75 L12.45 103.55 12.5 102.05 10.2 104.35 5.0 108.65 4.65 108.9 Q3.7 109.55 2.7 108.5 1.9 107.6 0.7 107.05 -6.45 122.5 -17.75 133.55 L-20.2 135.9 -21.0 136.05 -21.6 137.8 Q-23.05 141.8 -25.6 145.2 -26.45 146.3 -27.7 146.35 -39.65 136.6 -42.45 119.05 L-42.5 118.75 Q-50.75 114.15 -52.1 102.1 -53.6 88.65 -55.8 75.3 L-56.15 73.3 -57.3 66.55 Q-58.35 70.2 -59.8 73.5 L-61.0 76.05 Q-64.65 83.25 -70.25 88.6 L-72.35 90.5 -73.5 90.35 -73.55 90.5 Q-76.1 100.45 -84.05 98.95 L-84.55 98.8 Q-85.6 98.3 -85.9 96.6 L-86.25 94.4 -91.15 64.0 -94.4 44.35 Q-95.85 35.8 -94.8 27.15 -99.1 20.65 -95.1 10.75 L-87.5 -8.6 Q-88.15 -10.65 -86.15 -12.05 L-81.95 -23.1 -80.4 -27.15 -79.75 -28.9 Q-79.4 -29.8 -78.9 -29.05 L-78.7 -28.65 Q-76.6 -24.0 -76.85 -18.85 -75.6 -19.3 -72.9 -18.8 L-72.2 -18.65 -71.65 -19.05 -70.75 -22.3 -70.35 -23.5 M78.85 -11.45 L79.6 -11.25 80.15 -12.85 80.0 -14.35 78.4 -11.6 78.85 -11.45 M75.7 -4.8 Q72.15 7.55 69.9 19.85 73.6 6.4 76.35 -6.9 L75.7 -4.8 M68.3 -2.65 Q67.55 -0.7 67.15 1.55 L67.2 1.55 68.25 -2.35 68.3 -2.65 M-77.85 -12.8 L-78.2 -11.55 -76.4 -12.05 -75.85 -13.5 -77.2 -15.55 -77.85 -12.8 M-78.9 -8.95 L-78.85 -9.0 -78.9 -9.05 -78.9 -8.95 M-80.45 -2.2 L-80.45 -2.75 -80.6 -2.1 -80.45 -2.2 M-76.7 16.65 Q-75.25 14.5 -76.85 16.7 L-76.7 16.65 M-83.25 75.45 L-80.8 90.35 Q-73.75 70.9 -62.55 54.65 -55.8 52.05 -56.45 43.95 L-55.95 43.0 Q-49.25 27.15 -61.75 19.95 L-62.75 18.4 -65.85 19.55 Q-74.05 22.2 -80.95 26.5 -80.05 32.1 -84.5 33.95 L-86.15 32.3 Q-87.1 44.35 -85.85 56.65 L-85.5 59.5 -85.4 60.2 -84.15 69.6 -83.25 75.45 M-62.2 27.8 L-62.25 27.6 Q-59.0 30.65 -59.6 35.7 -60.4 35.1 -61.4 34.8 -60.65 31.5 -62.2 27.8 M-32.95 58.05 Q-41.3 57.6 -44.8 66.55 L-46.0 65.05 Q-48.9 64.1 -51.3 62.3 L-50.65 66.15 -50.0 69.45 -49.1 73.75 Q-39.1 79.0 -37.0 92.85 -35.55 102.6 -32.6 112.15 -30.0 120.75 -27.0 129.25 L-26.2 131.45 -24.65 127.7 Q-21.4 120.95 -15.75 117.35 L-14.4 117.05 Q-8.9 100.8 -1.65 85.9 -4.1 85.7 -6.5 84.0 -4.65 82.4 -4.25 80.5 -3.6 78.85 -4.6 76.95 -5.45 74.7 -7.95 72.1 -11.95 67.95 -16.55 64.8 -17.25 63.0 -17.55 59.9 -17.7 58.15 -18.6 57.35 -18.95 61.15 -20.15 62.55 L-20.5 62.4 Q-22.65 61.2 -24.95 60.2 -28.25 58.8 -31.05 58.3 -31.45 57.15 -31.3 55.45 L-32.95 58.05 M-44.0 67.55 Q-41.45 66.15 -39.0 65.45 L-40.0 66.95 -41.4 70.25 -42.8 68.9 -44.0 67.55 M4.45 71.75 Q5.55 69.35 6.9 68.15 L5.4 66.75 Q-0.2 70.2 -2.3 63.25 -4.7 68.6 -9.1 64.35 -10.65 66.0 -11.95 66.75 -10.0 67.15 -8.35 69.55 -5.25 65.25 -1.3 70.15 2.35 69.65 3.2 72.05 3.6 73.0 3.5 74.45 L4.45 71.75 M-35.7 75.15 L-35.75 75.95 -36.4 75.25 -35.7 75.15 M83.0 10.6 L83.1 7.25 81.75 12.8 Q72.8 10.75 71.7 21.55 70.0 37.3 79.9 46.75 80.6 46.7 80.9 46.1 82.25 43.6 82.75 41.0 L83.65 43.65 84.7 47.0 Q84.55 43.8 85.25 40.0 86.45 33.2 86.9 26.4 L85.15 23.55 Q87.2 21.5 88.75 18.95 90.25 16.5 88.1 15.35 85.25 13.85 82.9 13.1 L83.0 10.6 M78.0 20.5 Q78.95 17.85 79.95 19.2 L79.75 19.95 78.2 21.05 Q77.7 21.2 78.0 20.5 M54.9 43.35 L59.1 39.8 59.1 38.65 54.9 43.35 M40.85 36.5 L50.5 31.7 Q44.7 32.35 40.85 36.5 M59.85 28.9 L61.6 30.5 Q63.55 32.75 64.5 34.45 L66.15 32.65 66.55 31.25 Q61.25 28.2 60.75 21.05 L60.7 20.65 Q60.95 27.5 58.2 28.05 L59.85 28.9 M31.65 68.55 Q29.9 75.5 30.55 81.4 L28.8 82.45 Q31.95 85.85 31.05 93.35 29.25 108.3 29.8 123.15 42.15 94.0 55.7 66.0 L51.75 68.5 51.55 67.45 Q49.85 60.4 39.95 61.65 33.15 62.5 31.65 68.55 M3.8 54.55 Q1.25 51.55 3.8 54.6 L3.8 54.55 M17.65 70.35 Q17.05 69.05 17.3 67.15 L17.3 66.85 13.0 67.15 12.65 67.5 13.8 68.1 Q15.5 69.1 16.05 70.8 16.35 71.65 16.3 72.6 L16.35 72.6 18.25 71.4 17.65 70.35 M24.2 77.0 L24.95 76.7 24.9 76.55 24.2 77.0 M46.65 71.65 L45.9 69.15 47.65 70.35 48.25 70.65 46.65 71.65" fill="#ff3300" fill-rule="evenodd" stroke="none"/>
  </g>
</svg>
