<?xml version="1.0" encoding="UTF-8" standalone="no"?>
<svg xmlns:ffdec="https://www.free-decompiler.com/flash" xmlns:xlink="http://www.w3.org/1999/xlink" ffdec:objectType="shape" height="325.7px" width="211.45px" xmlns="http://www.w3.org/2000/svg">
  <g transform="matrix(1.0, 0.0, 0.0, 1.0, 102.7, 93.15)">
    <path d="M76.75 -62.4 Q103.3 -33.0 107.15 5.7 108.3 17.35 108.75 29.05 L108.35 28.85 106.95 17.3 Q105.85 15.5 104.35 14.1 105.95 21.25 107.15 28.4 L105.15 27.9 Q105.1 31.9 104.5 35.85 102.65 48.7 101.15 61.4 99.6 74.15 101.6 86.65 103.2 96.55 103.45 106.5 L102.95 107.15 102.0 107.7 100.25 108.25 100.2 108.35 98.6 106.35 98.4 106.4 98.35 106.5 Q92.0 104.1 87.55 98.7 83.35 93.55 79.65 88.1 76.5 83.5 74.1 78.65 71.35 84.6 66.2 90.2 59.85 97.1 55.3 105.6 47.4 120.3 44.7 136.35 42.4 150.2 44.45 164.4 45.35 170.35 50.6 174.1 51.0 174.4 51.1 175.1 L51.05 175.75 50.85 176.45 50.4 177.15 49.9 177.8 49.25 178.3 48.75 178.5 47.4 178.8 46.95 178.55 46.7 179.0 46.2 179.65 45.55 180.15 45.05 180.35 43.7 180.5 43.7 180.65 Q32.45 175.25 24.8 165.15 17.4 155.35 12.05 144.2 8.1 135.85 6.25 126.95 1.6 137.05 -4.25 146.3 -9.8 155.1 -9.1 165.6 L-7.95 182.95 -8.7 183.6 -9.6 184.0 -10.95 184.25 -11.0 184.35 -12.75 182.4 -12.8 182.4 -12.85 182.5 Q-24.6 171.75 -35.0 159.05 -45.3 146.4 -52.0 131.7 L-63.9 105.65 Q-66.3 114.4 -67.45 123.55 -68.8 134.25 -67.9 144.55 -67.2 152.85 -67.3 160.5 L-67.8 161.1 -68.45 161.65 -68.9 161.8 -70.25 162.0 -70.3 162.1 -72.2 159.55 Q-80.1 153.8 -82.7 142.7 -85.15 132.35 -87.2 121.75 -89.25 110.95 -92.05 100.4 -93.3 95.75 -92.6 91.65 L-94.35 87.1 Q-104.0 61.85 -102.5 33.55 -101.1 5.95 -94.35 -20.5 -91.35 -32.4 -85.7 -43.1 L-86.05 -43.65 Q-86.8 -44.8 -87.9 -45.55 -84.35 -51.4 -80.05 -57.0 -57.7 -86.25 -21.8 -91.45 12.85 -96.5 41.85 -86.7 L41.85 -86.0 41.8 -85.35 41.8 -85.3 Q61.65 -79.1 76.75 -62.4 M28.0 -83.95 L27.95 -84.2 Q-3.65 -85.95 -34.25 -80.55 -39.45 -79.65 -44.45 -76.7 -65.65 -64.2 -77.9 -46.7 -78.8 -35.1 -83.95 -22.6 -91.4 -4.75 -94.0 14.7 -97.7 42.1 -92.05 68.85 -90.25 77.3 -87.75 85.55 L-87.05 85.8 Q-86.5 86.0 -86.1 86.4 L-85.6 87.05 -82.6 103.05 Q-80.85 112.15 -79.35 121.2 -78.0 129.25 -75.9 137.15 L-74.55 119.2 Q-73.7 107.75 -71.1 96.75 -70.15 92.55 -68.4 88.75 -68.15 84.15 -66.1 79.85 L-64.75 79.8 Q-63.8 79.85 -62.95 80.25 -62.4 80.45 -62.0 80.85 L-61.5 81.5 -61.5 81.95 -61.1 82.1 Q-60.55 82.3 -60.15 82.7 L-59.65 83.35 Q-59.85 86.85 -60.35 90.3 -58.95 97.3 -56.0 103.95 L-45.45 127.7 Q-38.4 143.3 -27.0 155.9 L-18.15 166.1 -17.95 162.2 Q-16.8 149.8 -9.7 139.35 -2.75 129.2 0.2 117.4 2.3 109.15 6.15 102.1 L7.55 102.05 9.35 102.45 10.25 103.1 11.2 103.4 12.1 104.0 12.65 104.65 Q13.45 111.85 13.55 119.25 13.7 129.65 17.95 139.05 22.8 149.75 30.65 158.6 L33.9 162.25 Q32.75 156.95 33.6 150.3 35.2 137.7 38.95 125.75 44.05 109.6 52.5 94.8 60.6 80.75 71.05 68.5 L71.5 68.1 71.95 67.85 72.2 67.8 72.4 67.1 73.15 66.45 Q73.45 66.2 73.85 66.05 L75.2 65.9 77.05 66.2 Q80.35 68.9 81.1 73.0 81.95 77.55 84.35 81.55 87.5 86.95 91.45 91.75 L92.6 93.1 Q91.6 88.35 91.75 82.9 92.1 68.8 93.6 55.05 95.05 41.25 95.1 27.25 95.1 20.4 97.2 15.25 97.15 9.85 97.9 4.8 L98.55 4.75 96.7 -5.9 Q90.3 -38.0 65.2 -61.2 48.75 -76.45 28.15 -83.25 L28.0 -83.95 M-14.45 189.9 L-14.2 189.25 -13.75 188.55 -13.05 187.85 -12.35 187.35 Q-3.45 189.6 -4.95 200.15 L-6.95 214.75 Q-8.15 223.7 -16.25 226.7 -23.2 229.3 -29.5 232.55 L-31.35 232.4 -33.0 232.05 Q-37.1 227.85 -37.2 221.65 -37.3 214.2 -32.55 208.8 -28.3 203.95 -25.05 198.5 -22.3 193.85 -20.25 188.5 L-19.75 188.35 -18.4 188.2 Q-17.45 188.3 -16.65 188.75 L-15.25 190.0 -14.9 190.6 -14.75 190.55 -14.45 189.9 M-14.65 195.0 Q-14.0 200.0 -17.15 203.7 L-26.4 214.8 Q-29.2 218.3 -28.25 223.15 L-27.9 223.05 -25.8 222.4 -23.95 221.9 -22.1 221.5 -18.2 220.75 -17.25 220.25 Q-16.45 219.0 -16.0 217.6 L-14.9 214.15 Q-13.85 210.65 -13.8 207.05 -13.75 203.15 -13.05 199.35 -12.35 195.4 -14.45 192.0 -14.85 193.4 -14.65 195.0" fill="#000000" fill-rule="evenodd" stroke="none"/>
  </g>
</svg>
