<?xml version="1.0" encoding="UTF-8" standalone="no"?>
<svg xmlns:ffdec="https://www.free-decompiler.com/flash" xmlns:xlink="http://www.w3.org/1999/xlink" ffdec:objectType="shape" height="58.55px" width="82.6px" xmlns="http://www.w3.org/2000/svg">
  <g transform="matrix(1.0, 0.0, 0.0, 1.0, 70.05, 48.7)">
    <path d="M5.7 -1.5 L5.7 -1.6 5.35 -0.95 5.7 -1.5 M8.0 -10.35 L8.2 -9.0 Q12.55 -3.6 12.55 -1.4 12.55 2.5 9.45 5.45 4.9 9.85 -5.1 9.85 -11.3 9.85 -14.9 8.05 L-15.7 8.05 -16.15 8.05 Q-19.9 8.05 -22.25 6.8 L-22.8 6.5 Q-27.95 6.25 -38.0 6.15 L-40.4 4.5 -41.35 3.3 -43.75 3.25 Q-46.1 2.4 -48.0 1.05 L-47.45 0.85 -50.2 0.8 Q-58.3 -0.45 -66.05 -2.8 L-65.45 -4.1 Q-64.45 -5.85 -55.35 -5.5 -51.4 -3.7 -45.5 -1.7 -33.8 2.25 -25.85 2.25 -24.55 2.25 -23.9 1.5 L-22.55 -0.45 Q-27.5 -1.35 -44.6 -7.4 L-49.5 -8.9 -48.55 -9.0 -40.25 -8.7 -46.25 -11.35 -46.9 -11.75 -46.95 -11.75 -47.4 -12.05 -51.75 -13.2 Q-70.05 -18.2 -70.05 -19.7 -70.05 -21.3 -60.85 -21.25 L-43.8 -20.05 -44.3 -21.35 -34.15 -14.25 Q-19.25 -4.15 -16.6 -4.15 L-15.2 -4.3 -14.25 -4.15 Q-12.8 -4.15 -12.15 -4.7 -11.7 -5.3 -11.5 -5.3 -17.95 -11.9 -34.95 -25.1 -34.35 -25.75 -31.85 -26.15 L-32.1 -26.2 -36.4 -26.2 -39.25 -28.4 -43.75 -31.8 -41.75 -31.7 -41.1 -32.0 Q-46.25 -34.85 -46.7 -37.3 -46.85 -38.05 -46.45 -38.7 L-46.05 -39.3 Q-44.0 -42.85 -34.8 -38.35 L-38.1 -43.6 Q-40.15 -46.7 -40.55 -48.7 -31.5 -47.15 -24.4 -38.0 -18.6 -34.8 -10.2 -27.55 -1.35 -19.9 5.45 -12.25 L5.9 -11.75 Q7.0 -11.7 7.6 -11.05 L8.0 -10.35 M-51.45 -32.4 L-44.95 -26.5 Q-49.85 -28.45 -51.3 -27.05 L-48.0 -24.15 -54.3 -27.85 -55.5 -29.15 Q-55.85 -29.85 -55.05 -31.15 -54.4 -32.3 -51.45 -32.4 M-29.4 -27.8 L-29.9 -26.4 -28.3 -26.6 -22.15 -22.85 Q-23.65 -25.0 -24.5 -25.5 -26.6 -26.7 -29.4 -27.8 M-14.5 -20.6 L-14.25 -20.0 -14.1 -20.3 -14.5 -20.6" fill="#c7fafe" fill-opacity="0.4" fill-rule="evenodd" stroke="none"/>
    <path d="M-44.95 -26.55 Q-49.85 -28.45 -51.3 -27.05 -48.35 -23.9 -34.15 -14.25 -19.25 -4.15 -16.6 -4.15 L-15.2 -4.3 -14.25 -4.15 Q-12.8 -4.15 -12.15 -4.7 -11.7 -5.3 -11.5 -5.3 L-15.35 -9.0 Q-5.9 -5.35 -5.9 -4.35 L-5.9 -3.45 Q1.3 0.8 1.3 2.95 1.3 5.3 1.05 4.95 L0.85 5.45 Q0.5 5.9 -0.95 5.9 -2.0 5.9 -7.95 2.55 L-8.9 4.25 Q-9.45 4.95 -11.5 4.95 -15.15 4.95 -16.15 3.9 -17.85 2.0 -18.35 1.8 -19.9 1.1 -23.35 0.75 L-22.55 -0.45 Q-25.8 -1.05 -34.35 -3.85 -22.65 -4.25 -16.0 -2.1 L-19.45 -4.2 -30.1 -8.1 -52.95 -17.3 -53.2 -18.75 Q-51.2 -20.4 -40.95 -17.65 -52.25 -25.05 -52.25 -26.45 -52.25 -30.85 -45.75 -27.25 L-44.95 -26.55 M-57.95 -2.9 L-56.4 -3.2 -50.1 -3.35 -45.5 -1.7 -38.4 0.45 -56.4 1.3 -58.1 0.8 Q-58.75 0.45 -58.75 -1.05 -58.75 -2.55 -57.95 -2.9 M-22.7 -29.25 Q-8.9 -17.25 -2.25 -7.1 -2.35 -6.2 -2.6 -5.75 -3.1 -4.95 -4.6 -4.95 L-21.15 -20.05 -37.4 -35.35 Q-37.4 -42.0 -22.7 -29.25" fill="#c7fafe" fill-opacity="0.4" fill-rule="evenodd" stroke="none"/>
  </g>
</svg>
