<?xml version="1.0" encoding="UTF-8" standalone="no"?>
<svg xmlns:ffdec="https://www.free-decompiler.com/flash" xmlns:xlink="http://www.w3.org/1999/xlink" ffdec:objectType="shape" height="61.95px" width="104.8px" xmlns="http://www.w3.org/2000/svg">
  <g transform="matrix(1.0, 0.0, 0.0, 1.0, 92.25, 52.35)">
    <path d="M12.55 -1.55 L2.7 -2.25 -0.5 -2.55 -0.75 -3.35 -1.05 -4.3 -1.05 -2.6 -4.5 -3.2 -70.5 -3.2 Q-79.65 -5.15 -88.55 -8.05 -88.55 -10.15 -79.5 -10.65 -73.4 -11.0 -65.25 -10.55 L-72.45 -14.1 -77.0 -16.4 -55.45 -11.5 Q-27.35 -4.95 -22.65 -4.95 L-20.2 -5.2 -19.35 -4.95 Q-17.85 -4.95 -17.5 -5.4 L-17.3 -5.9 Q-17.1 -5.7 -17.1 -8.05 -17.1 -8.6 -27.05 -15.9 -37.6 -23.65 -43.45 -27.05 L-50.35 -32.9 -47.65 -33.0 -41.95 -32.4 -43.7 -34.15 Q-57.1 -47.7 -57.1 -48.05 -57.1 -55.5 -49.45 -50.1 -46.85 -53.35 -37.75 -45.7 -33.95 -42.5 -27.5 -36.0 L-19.8 -28.5 Q-18.05 -26.65 -12.3 -23.1 L-1.45 -16.35 Q12.35 -7.4 12.55 -1.55 M-92.25 -24.7 Q-92.25 -30.0 -81.3 -26.4 -76.6 -27.35 -63.7 -23.3 L-74.65 -31.2 -74.45 -32.2 -75.6 -33.0 Q-75.6 -40.95 -60.1 -32.5 L-55.75 -29.95 -55.0 -29.6 Q-55.15 -30.4 -54.85 -31.0 L-45.15 -23.25 Q-35.9 -15.95 -29.9 -11.55 -47.1 -16.0 -55.75 -17.7 -78.1 -22.15 -81.25 -18.6 -92.25 -24.25 -92.25 -24.7 M-12.75 -11.45 L-13.4 -12.15 Q-13.9 -11.8 -14.35 -11.8 L-15.45 -12.05 -15.25 -11.7 -14.35 -11.35 -12.5 -10.3 -12.75 -11.45 M-1.35 7.95 Q-6.65 7.65 -9.7 6.3 L-14.85 5.55 -17.6 3.7 -43.75 3.25 Q-45.75 2.5 -47.35 1.5 L-4.95 1.75 3.3 2.6 11.8 3.05 Q9.9 7.65 3.5 8.05 L1.85 9.6 1.75 9.55 0.35 9.3 -0.05 9.25 -1.35 7.95" fill="#c7fafe" fill-opacity="0.4" fill-rule="evenodd" stroke="none"/>
    <path d="M-84.65 -21.45 Q-79.35 -23.5 -76.95 -23.65 -74.85 -23.75 -69.35 -22.5 -55.25 -19.2 -36.7 -16.65 -32.9 -13.75 -29.9 -11.55 -47.1 -16.0 -55.75 -17.7 -77.15 -21.95 -80.95 -18.85 L-84.4 -20.05 -84.65 -21.45 M-49.25 -35.15 Q-33.3 -30.0 -26.25 -26.5 -12.95 -19.95 -11.5 -12.45 L-11.95 -11.25 Q-12.4 -10.55 -13.85 -10.55 L-14.65 -10.75 -14.95 -9.85 -18.9 -9.75 -26.25 -15.3 -22.3 -14.85 -32.95 -21.65 Q-49.5 -32.5 -49.5 -33.0 -49.5 -35.35 -49.25 -35.15 M-52.35 -4.55 Q-53.9 -5.65 -55.1 -6.85 -53.9 -8.9 -53.2 -9.3 L-51.3 -9.0 Q-46.0 -6.45 -40.7 -5.9 -33.55 -3.55 -27.65 -4.45 L-24.9 -5.15 -22.65 -4.95 -20.2 -5.2 -19.35 -4.95 Q-17.85 -4.95 -17.5 -5.4 L-17.3 -5.9 Q-17.15 -5.75 -17.1 -7.4 -14.2 -7.9 -11.8 -7.0 -9.15 -6.05 -5.85 -3.2 L-50.15 -3.2 Q-51.35 -3.85 -52.35 -4.55 M-4.95 1.75 L-1.9 2.2 -2.7 3.3 Q-3.3 4.0 -4.15 4.0 -23.15 4.0 -35.65 1.55 L-4.95 1.75" fill="#c7fafe" fill-opacity="0.4" fill-rule="evenodd" stroke="none"/>
  </g>
</svg>
