<?xml version="1.0" encoding="UTF-8" standalone="no"?>
<svg xmlns:ffdec="https://www.free-decompiler.com/flash" xmlns:xlink="http://www.w3.org/1999/xlink" ffdec:objectType="shape" height="66.25px" width="97.7px" xmlns="http://www.w3.org/2000/svg">
  <g transform="matrix(1.0, 0.0, 0.0, 1.0, 85.85, 57.0)">
    <path d="M8.25 -4.3 Q11.75 -0.75 11.75 1.4 L11.85 3.75 Q11.75 5.1 10.8 5.9 8.85 7.5 2.4 7.95 L0.45 9.15 0.25 9.25 -0.05 9.25 -1.25 8.05 -2.35 8.05 -8.75 6.45 -14.85 5.55 -16.5 4.45 -19.5 3.7 -43.75 3.25 Q-46.2 2.35 -48.15 0.95 L-49.1 0.95 Q-59.2 -0.5 -68.9 -3.7 L-59.45 -4.65 -78.6 -6.65 Q-85.85 -7.45 -85.85 -10.8 -85.85 -13.4 -84.85 -13.9 L-78.55 -14.15 -71.25 -13.3 -58.7 -9.6 Q-20.4 1.3 0.0 1.3 1.3 1.3 1.95 0.55 L3.2 -1.3 -1.75 -2.25 Q-14.4 -16.8 -29.7 -29.8 -42.2 -40.45 -51.95 -45.9 L-56.15 -51.3 Q-56.15 -66.25 -38.55 -41.95 -36.25 -42.3 -31.05 -36.0 L-31.45 -36.85 -33.95 -40.35 -33.85 -42.15 -35.45 -46.05 Q-34.45 -46.35 -32.55 -44.8 -29.0 -46.95 -16.2 -30.05 -10.05 -21.9 -3.85 -12.35 -1.9 -11.65 0.5 -10.25 4.9 -7.65 8.25 -4.3 M-50.75 -27.25 L-48.05 -27.7 -45.1 -27.45 -44.15 -28.85 -43.85 -29.1 -42.9 -28.45 Q-43.15 -29.75 -43.05 -31.8 L-43.05 -31.95 Q-29.3 -19.9 -8.75 -3.65 -31.6 -8.4 -57.3 -15.2 -49.8 -15.4 -38.6 -12.65 L-35.55 -11.9 -39.85 -14.4 -42.35 -14.75 -63.9 -27.35 Q-64.65 -28.15 -64.8 -29.3 -64.85 -30.45 -64.3 -31.4 -58.1 -31.7 -51.85 -28.0 L-50.75 -27.25" fill="#c7fafe" fill-opacity="0.4" fill-rule="evenodd" stroke="none"/>
    <path d="M-58.5 -27.75 Q-34.75 -16.45 -19.3 -5.95 L-37.35 -10.15 -39.3 -11.3 Q-58.75 -22.95 -58.75 -25.65 -58.75 -28.0 -58.5 -27.75 M-22.0 -27.8 Q-8.3 -15.75 1.15 -1.7 L-1.75 -2.25 Q-14.4 -16.8 -29.7 -29.8 L-36.6 -35.45 Q-33.9 -38.25 -22.0 -27.8 M-7.8 2.7 L-8.3 4.5 -10.55 4.95 -20.85 -0.7 -10.2 0.75 Q-8.95 1.7 -7.8 2.7 M-1.4 1.3 L0.0 1.3 Q1.3 1.3 1.95 0.55 L2.2 0.3 1.75 1.75 -0.45 2.25 -1.4 1.3" fill="#c7fafe" fill-opacity="0.4" fill-rule="evenodd" stroke="none"/>
  </g>
</svg>
