<?xml version="1.0" encoding="UTF-8" standalone="no"?>
<svg xmlns:ffdec="https://www.free-decompiler.com/flash" xmlns:xlink="http://www.w3.org/1999/xlink" ffdec:objectType="shape" height="57.9px" width="106.85px" xmlns="http://www.w3.org/2000/svg">
  <g transform="matrix(1.0, 0.0, 0.0, 1.0, 100.7, 48.35)">
    <path d="M-93.9 -38.3 L-95.1 -39.75 Q-95.4 -40.45 -94.6 -41.8 -93.85 -43.05 -93.0 -43.0 L-91.5 -42.4 Q-81.7 -38.35 -67.6 -34.4 -60.75 -30.2 -50.9 -25.0 -44.45 -21.6 -40.05 -19.65 L-58.5 -22.9 Q-75.0 -29.9 -79.3 -31.35 -82.9 -32.55 -85.75 -32.95 L-93.9 -38.3 M-93.8 -21.75 L-78.65 -21.2 -74.15 -20.5 -74.4 -22.45 Q-74.35 -22.95 -73.85 -23.25 L-63.15 -19.8 Q-56.25 -17.5 -32.9 -12.1 -9.95 -6.85 -7.35 -6.85 -5.85 -6.85 -5.35 -7.8 -5.05 -8.3 -4.95 -9.25 -7.6 -12.6 -29.75 -17.5 L-29.3 -17.85 -28.1 -19.8 Q-35.0 -23.45 -50.3 -31.85 -56.85 -34.95 -61.35 -35.55 L-59.5 -35.95 Q-56.05 -36.25 -51.05 -33.35 L-50.0 -35.6 Q-49.2 -37.05 -47.8 -36.6 -47.05 -36.4 -39.65 -33.1 -40.8 -34.55 -42.85 -40.2 -45.1 -46.4 -44.8 -48.35 -39.1 -45.9 -33.15 -39.2 -27.75 -37.35 -15.7 -24.1 -5.45 -12.7 4.9 1.25 L5.6 2.05 5.95 2.65 6.15 2.95 6.15 3.4 6.15 3.65 6.0 4.3 5.7 5.05 Q5.0 6.5 2.7 8.05 L2.55 8.05 2.2 8.7 1.75 9.55 0.35 9.3 -0.05 9.25 -1.25 8.05 -3.0 8.05 -3.9 8.55 -7.35 8.9 -14.65 8.05 -38.8 8.05 -64.9 6.65 Q-66.45 5.6 -78.6 5.2 -79.9 4.25 -81.35 3.35 -82.15 2.75 -82.15 2.0 -82.15 0.75 -81.55 -0.25 -80.65 -1.65 -78.85 -1.5 L-78.6 -1.3 Q-51.55 0.65 -26.8 4.95 L-18.4 4.95 -16.9 4.6 Q-16.15 4.1 -16.15 2.6 -16.15 1.1 -16.85 0.75 L-18.4 0.35 Q-42.2 -1.75 -69.2 -5.3 L-63.95 -5.2 Q-50.95 -4.85 -50.05 -5.1 L-48.0 -4.95 Q-51.4 -6.3 -63.75 -8.95 L-75.75 -11.7 Q-77.8 -12.85 -77.6 -13.4 -77.85 -13.55 -76.7 -15.5 -84.25 -16.2 -97.1 -14.95 L-99.7 -16.8 Q-100.7 -17.6 -100.7 -18.25 -100.7 -21.0 -93.8 -21.75 M-18.25 -6.65 L-18.0 -6.75 -18.65 -7.15 -18.25 -6.65 M-7.45 0.1 L-7.55 -0.1 -7.55 0.1 -7.45 0.1" fill="#c7fafe" fill-opacity="0.4" fill-rule="evenodd" stroke="none"/>
    <path d="M-69.9 -22.0 L-63.15 -19.8 Q-56.7 -17.65 -35.85 -12.75 -31.15 -10.95 -29.05 -9.7 L-30.35 -7.65 Q-31.0 -6.85 -32.4 -6.85 L-49.3 -11.95 Q-66.05 -17.2 -72.4 -17.55 L-72.5 -17.9 -72.65 -20.05 Q-72.65 -21.75 -69.9 -22.0 M-32.7 -22.25 Q-33.7 -23.25 -33.7 -23.6 -33.7 -29.05 -12.1 -12.85 -17.3 -14.6 -26.15 -16.65 L-28.75 -18.75 -28.1 -19.8 -32.7 -22.25 M-5.45 -5.9 L-5.9 -5.25 Q-6.3 -4.95 -7.8 -4.95 -9.75 -4.95 -14.55 -8.05 L-7.35 -6.85 Q-5.95 -6.85 -5.4 -7.7 L-4.95 -7.35 -5.45 -5.9 M-36.5 -4.5 Q-32.55 -3.9 -9.7 1.3 L-9.85 3.4 -10.45 3.7 -12.45 4.0 Q-14.55 4.0 -16.2 3.25 L-16.15 2.6 Q-16.15 1.1 -16.85 0.75 L-18.4 0.35 -45.8 -2.4 Q-45.7 -5.85 -36.5 -4.5" fill="#c7fafe" fill-opacity="0.4" fill-rule="evenodd" stroke="none"/>
  </g>
</svg>
