<?xml version="1.0" encoding="UTF-8" standalone="no"?>
<svg xmlns:ffdec="https://www.free-decompiler.com/flash" xmlns:xlink="http://www.w3.org/1999/xlink" ffdec:objectType="shape" height="59.35px" width="98.4px" xmlns="http://www.w3.org/2000/svg">
  <g transform="matrix(1.0, 0.0, 0.0, 1.0, 88.55, 49.5)">
    <path d="M-88.55 -25.65 Q-88.55 -29.15 -80.95 -28.95 -75.05 -28.75 -66.3 -26.45 L-58.75 -21.25 Q-41.6 -9.7 -37.05 -9.7 -35.65 -9.7 -35.1 -10.3 L-33.7 -12.45 Q-45.7 -20.15 -55.75 -26.0 -61.65 -29.45 -65.75 -31.55 L-66.35 -32.3 Q-66.35 -40.75 -52.7 -31.9 -50.1 -30.2 -47.65 -28.35 L-47.35 -29.0 -50.35 -32.85 Q-55.0 -39.05 -59.0 -45.35 -59.0 -52.1 -48.35 -45.95 -39.75 -35.55 -25.85 -20.9 -11.15 -5.35 -9.2 -4.95 -43.05 -8.8 -69.7 -12.85 L-72.45 -14.8 -83.75 -23.05 Q-88.55 -26.45 -88.55 -25.65 M-71.1 -4.25 Q-66.05 -4.8 -57.05 -4.5 L-56.45 -4.6 -56.8 -4.8 -42.2 -3.35 -12.45 -0.45 -7.6 -0.55 -6.85 -2.85 Q-6.85 -3.15 -7.6 -3.9 L-9.1 -4.95 Q-7.55 -4.95 -7.2 -5.6 L-6.85 -7.35 Q-16.8 -21.5 -25.1 -30.35 L-31.7 -36.9 -32.6 -39.75 Q-34.8 -47.1 -34.25 -48.1 L-33.5 -49.25 -32.85 -49.5 Q-31.4 -48.45 -26.7 -42.65 L-20.3 -34.3 Q-15.9 -31.95 -7.9 -23.35 1.0 -13.8 9.85 -1.75 9.85 -0.3 8.6 0.65 9.85 2.6 9.85 3.55 9.85 6.55 8.5 7.8 6.3 9.85 -0.45 9.85 L-41.45 5.7 -74.0 1.5 -74.1 1.5 Q-82.15 0.1 -82.15 -0.7 -82.15 -4.35 -77.3 -4.35 L-71.1 -4.25" fill="#c7fafe" fill-opacity="0.4" fill-rule="evenodd" stroke="none"/>
    <path d="M-56.85 -28.25 Q-56.85 -32.35 -44.55 -24.15 L-30.95 -14.25 -32.1 -12.25 Q-32.75 -11.5 -34.2 -11.5 L-34.35 -11.5 -33.7 -12.45 -55.55 -25.85 Q-56.85 -27.45 -56.85 -28.25 M-46.0 -43.15 Q-39.55 -35.55 -30.55 -25.9 -32.6 -27.1 -38.75 -31.4 -47.8 -37.75 -50.2 -38.55 L-50.25 -38.35 -50.35 -40.0 Q-50.35 -44.5 -46.0 -43.15 M-70.45 -17.65 Q-74.45 -20.85 -74.45 -21.45 -74.45 -26.8 -66.85 -22.1 -63.15 -19.85 -57.8 -15.2 -54.95 -12.95 -40.35 -8.85 L-39.7 -8.65 -61.95 -11.7 Q-66.6 -14.55 -70.45 -17.65 M-45.25 -3.65 L-42.2 -3.35 -24.5 -1.6 -24.8 -1.1 Q-25.45 -0.35 -26.8 -0.35 -35.75 -0.35 -45.25 -3.65" fill="#c7fafe" fill-opacity="0.4" fill-rule="evenodd" stroke="none"/>
  </g>
</svg>
