<?xml version="1.0" encoding="UTF-8" standalone="no"?>
<svg xmlns:ffdec="https://www.free-decompiler.com/flash" xmlns:xlink="http://www.w3.org/1999/xlink" ffdec:objectType="shape" height="66.95px" width="90.2px" xmlns="http://www.w3.org/2000/svg">
  <g transform="matrix(1.0, 0.0, 0.0, 1.0, 78.45, 57.35)">
    <path d="M-53.2 -23.6 Q-47.7 -19.15 -41.3 -15.7 -30.2 -9.7 -21.25 -9.7 -19.9 -9.7 -19.35 -10.3 L-18.05 -12.45 Q-37.55 -22.65 -39.25 -23.35 -48.5 -27.1 -53.2 -23.6 M0.5 -4.4 L0.95 -4.95 1.3 -6.4 Q-5.6 -15.85 -22.25 -28.65 -35.75 -39.0 -43.75 -41.35 L-44.15 -43.1 Q-44.15 -50.15 -38.15 -47.0 -39.95 -52.95 -38.65 -55.1 L-37.45 -57.0 -37.1 -57.35 Q-34.75 -56.05 -32.8 -52.95 L-29.4 -46.2 Q-26.9 -41.35 -23.45 -37.2 -19.95 -39.1 -6.45 -22.35 -0.55 -15.0 6.05 -5.55 L9.15 -1.05 Q11.75 0.1 11.75 1.9 L11.65 2.7 11.75 2.95 Q11.75 5.05 11.05 5.7 9.65 7.1 4.5 7.1 L1.85 9.6 1.75 9.55 0.35 9.3 -0.05 9.25 -1.9 7.4 -14.85 5.55 -15.35 5.2 -21.25 5.2 Q-54.45 3.95 -66.3 2.25 -78.45 0.5 -78.45 -3.2 -78.45 -5.8 -76.7 -6.5 L-68.8 -6.7 -67.1 -6.5 Q-65.3 -5.25 -62.65 -4.35 -55.55 -2.05 -33.25 0.35 L-18.4 0.35 -16.9 0.0 Q-16.15 -0.4 -16.15 -1.9 -16.15 -3.35 -16.85 -3.7 L-18.4 -4.15 Q-52.5 -5.85 -61.65 -9.55 L-57.3 -10.25 -48.9 -10.9 -48.75 -10.9 Q-75.6 -29.2 -75.6 -30.5 -75.6 -35.15 -69.55 -33.95 L-67.35 -33.7 Q-64.95 -33.05 -60.8 -30.75 -56.25 -28.65 -50.35 -25.2 L-50.2 -26.2 -50.15 -26.3 -50.85 -28.4 -48.95 -29.5 -48.15 -29.55 -46.85 -30.8 Q-44.55 -31.55 -39.7 -27.75 -39.75 -29.35 -39.1 -30.45 L-38.7 -31.0 -39.6 -32.65 -41.15 -35.55 -20.6 -19.35 -1.3 -4.15 0.5 -4.4 M-7.5 5.2 L-4.75 6.65 -4.25 6.3 -4.3 6.1 -5.2 5.75 -6.55 5.2 -7.5 5.2" fill="#c7fafe" fill-opacity="0.4" fill-rule="evenodd" stroke="none"/>
    <path d="M-51.8 -22.5 Q-46.9 -18.7 -41.3 -15.7 -30.2 -9.7 -21.25 -9.7 -19.9 -9.7 -19.35 -10.3 L-18.75 -11.35 -18.15 -10.95 -8.65 -4.1 Q-3.15 -0.1 -0.45 1.3 L-0.55 3.4 -3.2 4.0 Q-9.35 1.15 -16.35 -3.2 L-16.85 -3.7 -17.55 -3.95 -19.7 -5.3 -27.15 -10.0 -25.4 -8.05 Q-25.4 -5.7 -25.65 -5.9 L-25.9 -5.4 Q-26.3 -4.95 -27.75 -4.95 -29.3 -4.95 -39.7 -11.55 -49.45 -17.75 -53.2 -20.75 L-51.8 -22.5 M-37.25 -42.25 L-37.3 -42.05 -37.4 -43.7 Q-37.4 -51.65 -21.15 -35.5 -15.05 -29.4 -10.0 -23.1 -4.95 -16.8 -4.95 -15.2 L-5.0 -13.75 -5.0 -13.7 Q-10.9 -19.75 -19.9 -26.8 L-20.35 -27.35 Q-28.6 -37.05 -37.25 -42.25" fill="#c7fafe" fill-opacity="0.4" fill-rule="evenodd" stroke="none"/>
  </g>
</svg>
