<?xml version="1.0" encoding="UTF-8" standalone="no"?>
<svg xmlns:ffdec="https://www.free-decompiler.com/flash" xmlns:xlink="http://www.w3.org/1999/xlink" ffdec:objectType="shape" height="73.95px" width="59.65px" xmlns="http://www.w3.org/2000/svg">
  <g transform="matrix(1.0, 0.0, 0.0, 1.0, 229.8, 54.25)">
    <path d="M-211.55 -43.0 L-211.05 -43.25 -210.45 -43.3 -210.4 -43.35 Q-205.65 -43.75 -201.05 -42.5 -197.45 -41.45 -194.8 -39.0 L-194.05 -38.55 -193.55 -38.2 -193.15 -37.85 -192.4 -37.1 -192.05 -36.75 -191.8 -36.35 -191.65 -36.0 -191.35 -35.65 -190.55 -34.55 -189.8 -33.35 -189.65 -32.95 -189.55 -32.6 -189.45 -32.25 -189.0 -31.05 -188.4 -29.95 -188.15 -29.6 -188.05 -29.2 -187.3 -27.0 -186.2 -24.05 -185.05 -20.6 -185.05 -20.2 -185.05 -19.85 -185.05 -19.45 -185.05 -19.1 -185.0 -18.75 -184.8 -18.35 -184.65 -17.95 -184.55 -17.6 -184.55 -17.2 -184.55 -16.85 -184.55 -16.45 -184.4 -16.1 -184.3 -15.7 -184.15 -15.35 -184.05 -14.95 -184.05 -14.6 -184.05 -14.2 -184.05 -13.85 -184.05 -13.1 -184.05 -12.35 -184.05 -11.95 -184.15 -11.6 -184.3 -11.2 -184.4 -10.85 -184.55 -10.45 -184.55 -10.1 -184.55 -9.7 -184.55 -9.35 -184.55 -8.6 -184.55 -7.45 -184.55 -6.7 -184.7 -6.35 -184.9 -5.95 -185.05 -5.6 -185.05 -5.2 -185.05 -4.85 -185.15 -4.45 -185.3 -4.1 -185.5 -3.7 -185.85 -2.95 -186.05 -2.2 -186.15 -1.85 -186.4 -1.45 -186.65 -1.1 -186.8 -0.7 -187.05 0.05 -187.3 0.8 -187.4 1.15 -187.8 1.55 -188.15 1.9 -188.3 2.3 -188.45 2.65 -188.65 3.05 -188.8 3.4 -189.05 3.8 -189.4 4.15 -189.8 4.55 -190.15 4.9 -190.55 5.3 -190.7 5.65 -190.9 6.05 -191.2 6.4 -192.3 7.55 -193.05 8.3 -193.2 8.65 -193.4 9.05 -194.7 10.4 Q-197.3 13.0 -200.55 14.6 L-205.8 17.3 Q-215.65 19.55 -224.35 15.2 -227.1 13.8 -229.15 11.4 L-229.3 11.05 -229.45 10.65 -229.65 10.25 -229.75 9.9 -229.8 9.15 -229.65 8.8 -229.4 8.45 -229.2 8.2 -229.35 7.3 -229.3 5.4 -229.3 4.65 -229.0 3.9 -228.6 2.8 -228.3 2.05 -228.3 1.65 -228.25 1.3 -228.15 0.9 -228.05 0.55 -227.65 0.2 -227.3 -0.1 -227.05 -0.2 -226.45 -0.3 -226.4 -0.35 -225.95 -0.3 -225.05 -0.1 -224.55 0.3 -224.3 0.65 -224.15 1.05 -224.05 1.4 -224.45 2.9 -224.3 3.15 -224.15 3.55 -224.05 3.9 -224.1 4.3 -224.2 4.65 -224.4 5.05 -224.25 5.75 -223.8 7.3 -223.65 7.65 -223.3 8.05 -222.9 8.4 -222.55 8.8 -222.1 8.9 Q-221.25 8.65 -220.6 8.1 L-220.3 7.8 -220.2 7.75 -219.85 6.9 Q-219.7 5.9 -219.05 5.05 L-218.8 4.65 -218.6 3.95 -218.1 2.8 -215.85 6.4 Q-215.75 6.95 -215.9 7.15 -216.05 8.3 -216.65 9.3 L-216.4 9.7 -214.9 11.9 -214.55 12.3 -214.15 12.65 -213.8 13.05 -213.6 13.15 -212.05 12.05 -211.2 10.9 -210.3 9.05 -210.15 8.65 -209.8 8.3 -209.4 7.9 -209.05 7.55 -208.55 7.35 -207.95 7.25 -207.9 7.15 -207.05 7.4 -206.55 7.8 -206.3 8.15 -206.2 8.55 -206.05 9.3 -206.4 10.1 -205.4 9.9 -205.0 9.55 -204.55 9.3 -203.95 9.25 -203.9 9.15 -203.8 9.15 -203.8 8.55 -203.6 8.2 -202.9 7.4 -202.55 7.05 -202.3 6.65 -202.15 6.3 -202.1 6.2 -202.3 6.15 -202.8 5.8 -203.1 5.35 -203.45 4.65 -203.8 3.9 -203.8 3.55 -203.75 2.8 -203.55 2.05 -203.15 1.7 -202.8 1.4 -202.55 1.3 -201.95 1.2 -201.9 1.15 -201.05 1.4 -200.85 1.55 -200.8 1.4 -200.8 1.05 -200.75 0.65 -200.65 0.3 -200.4 -0.1 -200.0 -0.45 -199.55 -0.7 -198.95 -0.8 -198.9 -0.85 -198.05 -0.6 -198.0 -0.6 -196.8 -3.7 -197.05 -4.45 -197.55 -5.65 -197.8 -6.35 -197.75 -6.7 -197.65 -7.1 -197.15 -7.85 -196.8 -8.1 -196.55 -8.15 -195.95 -8.3 -195.9 -8.35 -195.05 -8.1 -194.3 -7.45 -194.3 -7.95 -194.3 -13.2 -194.15 -13.6 -194.05 -13.95 -193.8 -14.7 -193.8 -15.45 -193.75 -16.15 -194.3 -16.75 -194.9 -16.6 -195.4 -16.65 -196.3 -16.85 -196.8 -17.25 -197.1 -17.6 -197.3 -17.95 -197.3 -18.35 -197.25 -18.7 -197.15 -19.1 -197.05 -19.45 -196.65 -19.8 -196.05 -20.2 -195.7 -20.6 -195.5 -20.95 -195.15 -21.7 -194.9 -22.1 -194.5 -22.5 -194.8 -22.7 -195.1 -23.15 -195.3 -23.45 -195.4 -23.85 -195.8 -24.2 -196.1 -24.65 -196.25 -25.0 -196.3 -25.35 -196.25 -25.7 -196.25 -25.85 -196.3 -26.95 -196.3 -27.7 -196.35 -28.1 -196.5 -28.5 -196.65 -28.85 -196.8 -29.2 -196.8 -29.6 -196.8 -29.95 -196.8 -30.35 -196.8 -30.7 -197.05 -31.45 -197.25 -32.25 -197.3 -32.95 -197.1 -33.3 -197.05 -33.3 -199.15 -32.55 -199.8 -32.2 -200.4 -32.1 -201.3 -32.35 -201.7 -32.65 -202.3 -32.85 -202.8 -33.25 -203.15 -33.6 -203.6 -34.25 Q-204.95 -34.7 -206.0 -35.75 L-207.7 -37.2 -208.3 -35.7 -208.45 -35.4 -208.9 -35.0 -209.3 -34.7 -209.9 -34.6 -210.8 -34.85 -211.3 -35.25 -211.65 -35.6 -211.75 -36.0 -211.8 -36.35 -211.8 -37.1 -211.8 -37.85 -211.5 -38.6 -212.3 -38.85 -212.8 -39.25 -213.15 -39.6 -213.25 -40.0 -213.3 -40.35 -213.3 -40.75 -213.3 -41.1 -213.25 -41.45 -213.15 -41.85 -212.8 -42.2 -212.3 -42.55 -211.55 -43.0 M-201.3 -38.25 L-201.4 -37.85 -200.25 -37.8 -201.3 -38.25 M-195.4 -34.35 L-196.05 -34.95 -196.05 -34.85 -196.15 -34.45 -196.3 -34.1 -195.45 -34.3 -195.4 -34.35 M-189.75 -4.7 L-190.15 -3.85 -190.05 -3.45 -190.05 -2.95 -189.85 -3.5 -189.45 -4.6 -189.75 -4.7 M-220.1 12.85 L-218.75 13.2 -218.8 13.05 -218.9 12.65 -219.2 12.4 -219.55 12.65 -220.1 12.85 M-208.35 13.65 L-208.4 13.65 -208.3 13.65 -208.35 13.65" fill="#ff6600" fill-rule="evenodd" stroke="none"/>
    <path d="M-196.95 -54.25 L-194.0 -53.55 -190.85 -52.35 Q-189.5 -51.75 -188.4 -50.75 L-187.8 -50.45 -187.3 -50.1 -187.05 -49.85 -186.9 -49.75 -186.3 -49.45 -185.8 -49.1 -185.5 -48.95 -183.8 -48.7 Q-181.75 -48.8 -180.65 -47.25 L-180.7 -46.85 -180.8 -46.5 -181.05 -46.1 -181.4 -45.75 -181.8 -45.35 -182.15 -45.0 -182.55 -44.6 -182.95 -44.4 -183.4 -44.25 -184.3 -43.95 -184.9 -43.75 -187.4 -43.75 -188.15 -44.0 -188.9 -44.25 -189.7 -44.5 -191.3 -44.5 -191.95 -44.25 -192.25 -44.1 -192.65 -43.35 -192.8 -43.0 -192.6 -42.25 -192.2 -41.1 -192.2 -40.35 -192.2 -39.25 -192.2 -38.85 -192.35 -38.5 -192.55 -38.1 -192.7 -37.75 -192.7 -37.35 -192.7 -37.0 -193.2 -35.5 Q-193.5 -34.5 -194.05 -33.6 -194.8 -33.15 -195.7 -32.95 L-196.05 -32.6 -196.4 -32.25 -193.75 -31.7 -193.15 -31.5 -192.9 -31.6 -192.3 -31.85 -191.95 -32.25 -191.7 -32.5 -191.4 -32.6 -189.85 -33.4 -187.9 -34.25 -184.4 -34.25 -183.8 -34.0 -182.35 -33.4 Q-181.8 -33.15 -181.4 -32.75 L-180.35 -32.05 Q-178.85 -30.9 -178.1 -29.15 L-177.15 -26.5 -177.15 -26.1 -177.15 -25.75 -177.15 -25.35 -177.1 -25.0 -176.9 -24.6 -176.65 -24.25 -176.65 -23.85 -176.65 -23.5 -176.65 -23.1 -176.65 -22.35 -176.65 -21.6 -176.4 -21.25 -176.05 -20.85 -175.8 -20.45 -175.4 -19.75 -175.05 -19.35 -174.65 -19.0 -174.4 -18.75 -173.8 -18.45 -173.3 -18.1 -172.95 -17.7 -172.8 -17.35 -172.75 -17.0 -172.8 -16.6 -172.95 -16.25 -173.15 -16.0 Q-173.3 -15.9 -173.4 -15.9 L-177.4 -15.25 -177.9 -15.3 -180.15 -16.05 -181.15 -16.5 -181.55 -16.85 -181.8 -17.1 -181.95 -17.2 -182.65 -17.55 -183.05 -17.85 -183.55 -17.95 -184.4 -17.7 -185.55 -17.1 -185.85 -16.7 -187.25 -14.55 Q-188.1 -13.3 -189.4 -12.75 L-191.7 -10.25 -190.95 -10.25 -190.3 -10.05 -188.35 -9.35 -187.05 -8.35 -186.45 -8.2 Q-185.0 -7.75 -183.95 -6.7 L-182.05 -4.85 -181.8 -4.45 -181.65 -4.1 -181.4 -3.75 -181.05 -3.35 -180.2 -2.2 -179.5 -0.7 -179.15 0.0 -178.8 0.4 -178.4 0.75 -178.3 1.15 -177.8 2.65 -176.9 4.55 -176.55 5.65 -176.15 5.95 -174.4 7.25 Q-173.6 7.95 -173.05 8.75 L-171.4 8.8 -170.85 9.1 Q-170.6 9.2 -170.45 9.4 L-170.15 9.8 -170.2 10.15 -170.3 10.5 -170.55 10.9 -171.45 11.2 -173.3 11.6 -173.9 11.8 -174.9 11.8 -179.15 10.9 -180.15 10.55 -180.55 10.15 -180.8 9.9 -180.95 9.8 -181.65 9.55 -182.05 9.15 -182.3 8.9 -183.5 8.4 Q-185.65 7.25 -188.05 7.4 L-190.4 8.65 Q-192.75 9.95 -195.45 10.3 L-199.45 10.3 Q-199.8 10.1 -200.2 9.95 L-200.2 10.15 -200.1 10.5 -199.95 10.9 -199.7 11.3 -199.7 12.05 -199.7 13.15 -199.7 13.55 -199.4 13.75 -198.45 14.45 -198.2 14.8 -198.2 15.15 -198.35 15.5 -198.55 15.9 -198.95 16.15 -199.55 16.45 -199.95 16.65 -200.45 16.75 -201.45 16.8 Q-205.05 16.4 -208.05 14.65 L-208.75 13.7 -208.8 13.9 Q-209.25 14.75 -210.0 15.45 L-211.55 16.9 -211.95 17.15 -212.55 17.4 -212.95 17.8 -213.2 18.05 -213.45 18.15 -214.05 18.4 -214.45 18.8 -214.7 19.05 -214.95 19.15 -215.55 19.45 -215.95 19.65 -216.4 19.7 -217.15 19.45 -217.55 19.15 -217.65 18.4 -217.7 17.3 -217.7 16.9 -217.85 16.55 -218.05 16.15 -218.2 15.8 -218.2 15.05 -218.2 13.55 -218.2 12.8 -218.4 12.15 -218.45 12.15 -224.45 12.3 Q-226.9 11.65 -229.05 10.65 L-229.4 10.25 -229.6 9.9 -229.7 9.15 -229.4 8.8 -229.15 8.55 -228.3 8.15 -227.95 7.8 Q-227.8 7.65 -227.65 7.6 L-226.95 7.35 -226.95 7.3 -226.75 7.3 -226.7 7.05 -226.4 6.6 -221.75 5.5 -220.6 4.4 -219.5 3.25 -219.2 2.5 -218.8 1.75 -218.65 1.35 -218.2 1.05 Q-217.9 0.85 -217.5 0.75 L-217.0 0.8 Q-216.7 0.85 -216.4 1.05 L-216.0 1.35 -215.8 1.75 -215.75 2.1 -215.75 2.85 -215.75 3.25 -215.6 3.6 -215.4 4.0 -215.0 4.75 -214.6 5.05 -214.0 5.35 -213.05 5.15 -211.4 4.6 -210.9 3.8 -210.25 2.75 -210.3 2.35 -210.4 2.0 -210.6 1.6 -210.75 1.25 -210.75 0.85 -210.75 0.5 -210.7 0.15 -210.5 -0.25 -210.25 -0.5 -210.0 -0.6 -209.5 -0.75 Q-208.1 -0.4 -206.95 0.45 L-206.15 1.1 -205.9 1.5 -205.7 1.85 -205.25 2.5 -200.25 2.5 -199.4 2.05 -199.0 1.75 -198.65 1.35 -198.4 1.0 -198.25 0.6 -198.25 -0.15 -198.25 -1.25 -198.25 -1.65 -198.4 -2.0 -198.6 -2.4 -198.75 -2.75 -198.9 -3.15 -199.25 -3.5 -199.65 -3.9 -200.25 -4.5 Q-203.25 -5.25 -206.05 -6.5 L-206.25 -6.75 -206.25 -7.15 -206.2 -7.45 -205.9 -7.9 -203.65 -10.15 -202.25 -11.5 Q-201.6 -11.75 -201.0 -12.1 L-199.75 -12.65 -199.75 -12.75 -199.75 -13.5 -199.4 -14.7 -198.65 -16.15 -198.25 -16.5 -197.9 -16.9 -197.75 -17.25 -197.65 -17.65 -197.25 -18.0 -196.5 -18.75 -196.25 -19.0 -196.0 -19.1 -195.4 -19.4 -195.0 -19.75 -194.75 -20.0 -194.5 -20.1 -193.9 -20.4 -193.5 -20.75 -193.25 -21.0 -193.0 -21.1 -192.4 -21.4 -191.6 -22.1 -190.65 -23.25 -190.95 -23.95 -191.4 -25.15 -192.15 -25.9 -192.9 -26.65 Q-196.7 -27.65 -200.25 -29.5 L-200.65 -29.9 -201.0 -30.25 -201.4 -30.65 -202.2 -31.05 -202.65 -31.4 -203.0 -31.75 -203.25 -32.15 -203.4 -32.5 -203.85 -32.4 -205.0 -31.9 -208.0 -31.75 -208.75 -32.0 -209.5 -32.75 -210.65 -33.9 -210.75 -34.25 -210.9 -34.6 -211.25 -35.0 -211.25 -35.4 -211.25 -35.75 -211.4 -36.1 -211.75 -36.5 -211.75 -39.5 -211.75 -42.5 -211.7 -42.85 -211.65 -42.9 -211.7 -43.1 -211.7 -43.5 -211.7 -44.25 -211.7 -44.6 -211.6 -44.95 -211.35 -45.4 -211.15 -45.75 -210.5 -47.25 -210.2 -48.0 -209.8 -48.35 -209.45 -48.75 -209.05 -49.1 -208.85 -49.5 -208.65 -49.85 -208.45 -50.25 -208.05 -50.6 -207.7 -51.0 -207.3 -51.35 -206.7 -52.0 -206.45 -52.1 -204.8 -52.85 Q-202.6 -53.8 -200.45 -54.25 L-196.95 -54.25 M-221.95 -44.75 L-220.95 -44.75 -220.35 -44.45 -219.95 -44.1 -219.7 -43.75 -219.75 -43.4 -220.15 -42.7 Q-220.65 -42.2 -220.2 -41.5 L-220.3 -41.1 -220.5 -40.75 -220.8 -40.35 -221.95 -39.8 -224.05 -39.1 -224.45 -38.75 -224.7 -38.5 -224.95 -38.35 -225.45 -38.3 Q-226.05 -38.35 -226.6 -38.65 L-227.2 -39.25 -227.2 -39.6 -227.1 -39.95 -226.8 -40.35 -224.95 -42.25 -223.05 -44.1 -222.65 -44.4 -221.95 -44.65 -221.95 -44.75 M-196.1 -40.4 L-196.2 -40.1 -196.15 -40.05 -196.1 -40.4 M-196.55 -32.1 L-196.45 -32.15 -196.45 -32.2 -196.55 -32.1 M-198.4 -31.75 L-197.6 -31.35 -197.45 -31.75 -197.35 -31.8 -197.45 -31.8 -198.4 -31.75" fill="#ffcc00" fill-rule="evenodd" stroke="none"/>
  </g>
</svg>
