<?xml version="1.0" encoding="UTF-8" standalone="no"?>
<svg xmlns:ffdec="https://www.free-decompiler.com/flash" xmlns:xlink="http://www.w3.org/1999/xlink" ffdec:objectType="shape" height="18.25px" width="23.2px" xmlns="http://www.w3.org/2000/svg">
  <g transform="matrix(1.0, 0.0, 0.0, 1.0, 11.95, 16.6)">
    <path d="M4.85 -12.9 L5.45 -13.1 5.65 -13.35 Q5.95 -13.8 6.25 -13.25 L6.45 -13.45 6.6 -13.45 6.6 -13.6 6.7 -13.6 6.7 -13.7 7.2 -13.85 7.35 -13.85 7.65 -13.95 7.85 -14.65 Q8.05 -15.05 8.4 -14.85 L8.6 -14.55 8.65 -14.5 8.8 -14.55 8.8 -14.75 8.95 -15.05 9.1 -15.25 9.2 -15.25 9.3 -15.35 Q10.5 -15.35 10.4 -12.9 L10.45 -11.85 Q10.65 -9.65 9.45 -9.65 9.15 -8.3 8.4 -8.8 8.1 -8.95 7.9 -9.4 L7.85 -9.2 7.8 -9.1 7.75 -8.95 7.45 -8.5 7.35 -8.5 7.1 -7.6 Q6.85 -7.35 6.45 -7.45 6.05 -6.9 5.7 -7.7 L5.6 -8.5 5.45 -8.5 5.3 -8.5 5.0 -7.55 Q4.8 -6.9 4.4 -7.0 4.0 -5.95 3.4 -6.85 L3.25 -7.35 3.2 -6.85 3.05 -6.15 3.0 -6.05 2.95 -5.95 2.95 -5.75 2.9 -5.5 Q2.6 -4.95 2.25 -5.25 L1.9 -5.6 Q1.45 -4.8 1.05 -5.75 L0.95 -6.55 Q0.65 -5.85 0.15 -6.3 L-0.05 -6.9 Q-0.25 -6.65 -0.5 -6.65 L-0.7 -6.75 Q-1.3 -5.25 -1.75 -6.75 L-1.85 -7.6 Q-2.0 -7.2 -2.35 -7.1 -2.65 -7.0 -2.9 -7.55 L-3.35 -7.45 Q-3.5 -7.45 -3.65 -7.6 L-3.75 -7.15 -10.7 -14.7 -10.7 -14.75 -10.55 -14.85 -10.45 -14.85 -10.35 -14.85 -10.3 -14.85 -10.1 -14.95 -9.7 -14.55 -9.45 -14.5 -9.15 -14.25 -5.75 -13.15 -4.9 -13.0 -0.6 -12.3 3.0 -12.55 4.25 -12.9 4.85 -12.9 M3.85 -11.5 L3.9 -11.6 3.8 -11.6 3.85 -11.5 M3.2 -11.5 L2.25 -11.4 2.45 -11.15 2.65 -10.7 3.2 -11.5 M0.55 -11.3 L0.6 -11.5 0.2 -11.5 Q0.35 -11.5 0.55 -11.3 M-1.2 -11.7 L-1.3 -11.6 -1.45 -11.6 -1.65 -11.6 -1.5 -11.5 -1.2 -11.0 -0.65 -11.15 Q-0.55 -11.05 -0.45 -11.05 L0.0 -11.5 -0.45 -11.6 -1.0 -11.7 -1.05 -11.7 -1.2 -11.7 M-1.9 -11.6 L-3.4 -11.6 -4.9 -11.7 -5.5 -11.7 -5.5 -11.6 -5.6 -11.5 -5.6 -11.4 -5.3 -11.15 -5.1 -10.8 -5.1 -10.7 -5.0 -10.7 Q-4.8 -11.4 -4.4 -11.3 -4.15 -11.3 -4.0 -10.9 L-3.5 -10.8 -3.35 -10.7 Q-3.1 -11.4 -2.6 -11.05 L-2.3 -11.0 -1.9 -11.6 M-6.7 -11.5 L-6.55 -11.5 -6.9 -11.7 -7.1 -11.7 -7.2 -11.7 -7.25 -11.7 -7.2 -11.6 -6.9 -11.5 -6.7 -11.5" fill="#fe8001" fill-rule="evenodd" stroke="none"/>
    <path d="M9.3 -11.3 L9.45 -11.05 9.5 -10.8 9.55 -10.2 10.15 -10.2 10.35 -10.0 10.45 -7.8 10.3 -5.85 Q10.7 -4.75 10.2 -3.75 9.95 -3.15 9.5 -3.75 L9.35 -3.95 9.05 -3.95 8.9 -3.95 8.75 -3.25 8.6 -2.6 Q8.35 -2.05 7.95 -2.05 L7.65 -2.25 7.4 -1.8 7.1 -1.55 Q6.9 -0.05 6.15 -0.5 L5.85 -1.0 Q5.75 0.3 5.1 0.75 L4.6 0.75 4.5 0.9 4.45 1.2 4.45 1.3 4.25 1.65 -3.6 -7.0 Q-3.3 -7.55 -2.9 -6.65 L-2.8 -6.4 Q-2.85 -7.6 -2.25 -8.0 -2.0 -8.25 -1.8 -7.7 L-1.7 -6.85 -1.7 -5.95 Q-1.6 -7.0 -0.95 -7.0 L-0.65 -6.75 -0.6 -6.4 -0.5 -6.15 -0.5 -6.05 Q-0.15 -6.85 0.25 -6.2 L0.4 -6.05 0.9 -6.05 1.1 -5.75 1.15 -5.45 1.2 -5.25 1.2 -5.05 Q1.25 -6.15 1.65 -6.85 2.05 -7.55 2.4 -6.85 L2.4 -6.75 2.45 -6.65 2.45 -6.55 Q2.8 -6.85 3.05 -6.55 L3.25 -6.2 Q3.45 -7.2 4.0 -6.9 L4.15 -6.75 Q4.25 -7.8 4.7 -8.3 5.0 -8.7 5.3 -8.15 L5.35 -7.8 5.4 -7.55 5.4 -7.35 5.9 -9.4 Q6.25 -10.35 6.8 -9.65 L6.8 -9.5 6.85 -9.4 7.2 -9.5 7.5 -9.5 Q7.6 -10.35 8.1 -10.35 L8.45 -10.35 8.55 -10.9 8.8 -11.4 8.9 -11.5 9.0 -11.5 9.3 -11.3" fill="#ff4d00" fill-rule="evenodd" stroke="none"/>
    <path d="M10.5 -15.85 Q5.95 -11.85 -0.35 -11.85 -6.65 -11.85 -11.2 -15.85" fill="none" stroke="#000000" stroke-linecap="round" stroke-linejoin="round" stroke-width="1.5"/>
  </g>
</svg>
