<?xml version="1.0" encoding="UTF-8" standalone="no"?>
<svg xmlns:ffdec="https://www.free-decompiler.com/flash" xmlns:xlink="http://www.w3.org/1999/xlink" ffdec:objectType="shape" height="385.8px" width="581.9px" xmlns="http://www.w3.org/2000/svg">
  <g transform="matrix(1.0, 0.0, 0.0, 1.0, 386.25, 196.45)">
    <path d="M110.7 -192.35 L116.9 -182.3 116.85 -180.8 117.75 -179.25 114.8 -161.35 Q115.0 -157.8 111.7 -154.95 L111.25 -154.4 110.5 -153.2 Q108.15 -149.55 104.05 -150.5 L111.4 -163.55 108.7 -165.85 110.4 -182.4 109.5 -183.95 109.55 -185.45 108.65 -187.0 107.85 -190.75 110.7 -192.35 M83.95 -143.1 L74.1 -136.7 63.55 -136.55 67.9 -132.6 Q53.95 -131.0 40.9 -137.1 28.75 -142.8 20.75 -153.5 14.4 -162.05 6.7 -169.2 4.05 -171.65 1.0 -173.6 -9.05 -179.8 -20.55 -179.85 L-19.85 -176.35 Q-26.8 -176.2 -33.95 -174.9 -44.65 -172.85 -52.55 -165.3 -55.3 -162.65 -57.65 -159.6 L-57.55 -157.95 -62.0 -150.05 -62.0 -148.3 -63.1 -146.7 -63.05 -144.95 Q-64.2 -141.25 -64.45 -137.45 -65.0 -130.1 -64.65 -122.7 L-65.4 -121.6 -62.65 -110.25 -62.65 -96.85 -61.65 -96.2 -63.65 -86.2 Q-61.15 -74.35 -57.25 -62.95 -56.75 -61.5 -54.7 -60.75 -47.6 -58.0 -40.05 -58.45 -36.6 -58.85 -33.55 -61.1 -31.45 -62.6 -29.7 -64.4 -26.8 -67.35 -26.2 -71.45 L-23.9 -85.95 -23.9 -86.15 Q-24.45 -89.9 -21.4 -91.95 L-18.9 -89.7 -17.65 -86.7 -17.65 -80.7 -16.65 -79.2 -16.95 -73.3 -17.65 -72.45 -11.0 -70.5 Q-10.9 -60.45 -18.15 -52.4 L-20.5 -49.3 Q-22.3 -46.35 -24.7 -43.8 -31.65 -36.25 -40.85 -31.4 -48.5 -29.65 -56.55 -28.85 -60.65 -28.3 -64.65 -28.95 L-66.4 -29.0 -68.6 -26.3 Q-66.9 -20.25 -60.9 -18.75 -52.55 -16.75 -44.5 -19.85 -40.65 -21.25 -37.85 -23.7 L-35.8 -22.7 Q-40.5 -14.0 -48.65 -7.8 -58.15 -0.5 -69.9 3.0 L-81.25 6.65 Q-58.4 14.1 -45.55 34.95 -42.8 39.4 -40.65 44.3 L-39.65 45.8 -39.65 47.3 -36.65 56.3 -36.65 59.3 -35.65 60.8 -35.65 65.3 -34.65 66.8 -34.65 71.3 -33.65 72.8 -33.0 92.65 -35.65 93.05 -52.35 81.85 -56.65 86.3 -56.95 90.25 -53.7 92.1 -53.65 93.55 Q-41.7 107.7 -26.65 118.65 -18.45 124.65 -9.0 128.4 25.25 141.7 62.0 143.85 L70.1 144.3 Q92.15 142.0 110.0 128.6 119.4 121.55 127.0 112.55 130.85 108.0 135.65 104.3 149.7 93.25 167.45 92.25 176.9 92.35 184.15 98.65 191.35 104.9 194.4 113.4 197.3 121.35 193.45 128.35 L190.7 139.0 186.95 138.35 189.2 135.45 Q190.6 133.05 191.05 130.6 L191.2 129.6 Q191.4 128.1 191.25 126.4 L191.95 125.6 192.45 121.25 Q192.75 119.1 192.15 117.05 L191.6 114.4 190.05 114.05 186.2 108.85 184.55 113.15 182.05 112.3 181.95 110.85 Q176.05 101.9 165.75 103.0 156.3 103.9 148.3 108.65 145.9 110.1 143.95 112.15 139.2 117.05 135.4 123.35 L135.4 124.85 134.15 127.85 Q127.8 135.75 120.7 143.0 116.95 146.75 112.2 148.95 104.7 152.5 96.95 155.7 95.8 156.1 94.9 157.1 L94.65 160.85 Q100.45 166.65 108.95 165.55 L116.6 164.3 118.15 163.85 119.3 165.0 Q117.25 171.9 110.3 175.25 104.65 178.05 98.75 180.3 80.5 187.4 60.9 186.45 19.55 185.45 -15.25 162.8 -21.7 158.55 -27.05 152.8 -38.35 140.65 -46.5 126.25 L-52.25 115.35 Q-55.75 108.1 -61.85 102.9 L-62.4 104.1 -71.0 106.65 Q-73.6 101.65 -71.85 95.55 L-69.9 88.9 -69.15 87.3 Q-70.15 80.05 -71.85 73.05 -72.25 71.35 -73.55 70.05 -78.55 65.1 -85.75 64.0 -92.3 63.35 -98.65 64.65 L-100.1 63.0 Q-97.25 60.35 -93.25 60.35 -90.8 60.35 -88.75 59.25 -83.5 56.2 -81.4 50.65 -80.5 48.25 -79.15 46.05 -79.35 35.65 -79.85 25.3 -79.9 24.25 -80.45 23.35 -84.6 16.15 -92.4 12.35 -96.9 10.1 -101.8 10.35 -104.95 9.85 -107.5 8.2 L-105.15 7.05 -110.6 4.45 -112.1 2.95 Q-111.05 1.9 -109.55 1.7 -99.35 0.1 -90.45 -4.25 -81.75 -8.4 -77.15 -16.7 L-77.3 -23.4 Q-82.15 -29.95 -89.05 -34.15 -85.35 -37.7 -82.0 -41.5 -81.5 -42.05 -81.5 -42.9 -81.45 -48.35 -85.65 -52.05 -90.4 -56.15 -96.8 -56.15 L-100.8 -56.4 -100.6 -57.95 Q-106.95 -58.2 -112.8 -60.95 -114.95 -62.05 -117.0 -63.3 L-119.05 -64.75 -115.4 -65.95 Q-102.35 -57.2 -87.35 -62.15 -80.0 -64.5 -74.25 -69.9 -69.75 -74.0 -68.15 -79.45 -64.85 -90.65 -65.25 -102.7 L-65.45 -108.65 -68.15 -122.25 -69.25 -122.55 Q-77.1 -145.25 -74.05 -168.75 -73.5 -172.9 -71.25 -176.45 -65.2 -186.1 -55.6 -191.7 -50.65 -194.5 -45.05 -196.3 L-42.8 -195.45 Q-21.9 -198.7 -1.9 -191.6 11.45 -186.9 22.75 -178.25 31.65 -171.45 38.15 -162.4 L37.6 -159.65 Q32.8 -162.75 28.4 -166.65 26.75 -168.2 24.65 -169.2 21.35 -170.7 17.6 -171.05 23.95 -155.05 38.7 -146.55 45.35 -142.75 52.85 -140.7 64.95 -137.6 76.45 -142.3 L81.2 -144.35 83.95 -143.1 M12.05 -168.8 Q13.55 -167.3 12.0 -168.95 L12.05 -168.8 M61.45 -134.8 L61.3 -134.85 Q60.55 -134.2 61.45 -134.8 M179.6 118.6 Q177.65 116.15 176.2 113.35 L177.7 113.1 180.2 115.35 180.1 118.25 Q179.85 118.85 179.6 118.6 M176.4 154.55 Q176.85 154.1 177.5 154.1 178.15 154.1 178.6 154.55 179.05 155.0 179.05 155.6 L178.6 156.65 Q178.15 157.1 177.5 157.1 L176.4 156.65 Q175.95 156.2 175.95 155.6 175.95 155.0 176.4 154.55 M174.7 172.1 Q157.1 180.5 142.55 167.55 140.9 166.1 140.1 164.2 137.15 156.9 140.9 150.1 L140.9 147.6 146.75 140.25 149.3 140.4 Q151.7 139.8 155.8 140.35 158.7 140.7 160.25 143.2 L159.65 144.75 Q151.0 140.2 144.65 148.1 L146.4 150.35 143.4 152.6 148.9 166.1 Q160.95 171.05 170.4 162.1 L173.05 162.55 167.15 169.35 174.6 170.0 174.7 172.1 M112.55 169.1 L113.15 168.85 Q111.2 168.8 112.55 169.1 M161.35 172.0 Q164.6 172.65 161.35 171.9 L161.35 172.0 M-226.95 -156.25 Q-230.6 -156.65 -231.95 -160.2 L-231.85 -160.4 -226.4 -159.05 -226.95 -156.25 M-225.0 -154.1 L-224.55 -154.6 -221.75 -152.75 -220.7 -148.85 -219.7 -148.25 Q-220.35 -142.25 -222.5 -136.85 -224.2 -132.5 -227.25 -128.6 L-227.95 -127.25 Q-245.25 -114.55 -247.95 -93.25 L-246.95 -91.5 -250.7 -91.0 -253.85 -104.05 -259.7 -89.5 -255.7 -67.95 -257.0 -65.15 -262.2 -72.45 -262.2 -73.95 Q-267.5 -89.25 -263.45 -104.8 -261.45 -112.55 -256.65 -118.9 -255.35 -120.55 -253.8 -121.45 -238.9 -129.5 -226.2 -140.75 L-224.2 -147.75 -224.65 -148.95 -225.05 -150.05 -225.55 -151.7 -225.65 -152.4 -225.6 -153.1 -225.35 -153.65 -225.0 -154.1 M-198.2 -108.6 Q-186.25 -125.55 -165.65 -126.05 -160.55 -126.2 -155.85 -124.85 L-155.95 -122.65 -146.9 -124.25 Q-130.2 -121.7 -118.4 -110.0 -114.55 -106.15 -111.8 -101.15 -107.25 -92.8 -108.9 -83.25 L-111.85 -83.4 Q-114.0 -101.2 -130.0 -108.5 -137.15 -111.85 -144.9 -111.25 L-147.25 -108.85 -149.1 -109.05 -149.1 -109.15 -149.1 -109.5 -149.2 -109.65 -149.4 -109.7 -149.95 -109.35 -152.45 -107.1 Q-153.95 -105.35 -154.45 -103.05 L-154.9 -100.5 -156.4 -99.0 -157.65 -99.25 Q-159.0 -96.8 -159.05 -94.05 -159.1 -92.7 -159.4 -91.3 -160.05 -88.3 -159.4 -85.35 L-158.65 -81.45 -157.75 -80.3 -157.65 -78.45 -152.45 -73.1 -146.0 -68.25 -146.7 -67.65 -148.7 -67.0 -152.25 -68.05 Q-153.25 -68.3 -154.1 -68.8 L-158.6 -67.25 Q-164.75 -83.2 -160.0 -100.0 -159.25 -102.6 -157.25 -104.75 L-157.15 -106.25 -153.4 -113.25 Q-170.6 -106.85 -188.9 -105.25 -192.9 -102.25 -196.05 -98.55 -198.6 -95.5 -199.65 -91.75 L-201.65 -91.0 -201.35 -86.2 -204.15 -86.75 Q-204.5 -94.85 -201.65 -102.2 -200.3 -105.55 -198.2 -108.6 M-247.95 -162.1 L-245.7 -161.25 -248.7 -157.5 -248.85 -155.6 -252.2 -154.5 Q-252.2 -158.75 -248.8 -161.4 L-247.95 -162.1 M-253.85 -88.05 Q-253.25 -88.05 -252.8 -87.35 -252.4 -86.65 -252.4 -85.65 -252.4 -84.65 -252.8 -83.95 -253.25 -83.25 -253.85 -83.25 -254.45 -83.25 -254.85 -83.95 -255.3 -84.65 -255.3 -85.65 -255.3 -86.65 -254.85 -87.35 -254.45 -88.05 -253.85 -88.05 M-249.75 -68.6 Q-249.75 -67.9 -250.25 -67.4 -250.75 -66.9 -251.45 -66.9 -252.15 -66.9 -252.65 -67.4 -253.15 -67.9 -253.15 -68.6 -253.15 -69.3 -252.65 -69.8 -252.15 -70.3 -251.45 -70.3 -250.75 -70.3 -250.25 -69.8 -249.75 -69.3 -249.75 -68.6 M-249.2 -81.0 L-228.95 -87.25 -227.55 -86.8 -227.7 -81.75 -229.7 -79.5 -229.7 -78.0 Q-235.7 -69.55 -245.25 -73.5 -250.15 -75.65 -249.2 -81.0 M-35.1 -109.5 Q-33.45 -110.3 -31.9 -111.25 -21.7 -111.25 -14.75 -104.0 L-15.9 -102.75 -24.55 -102.8 -24.75 -101.3 -28.9 -104.5 -30.7 -103.8 -31.9 -104.5 -38.95 -103.65 Q-38.65 -107.65 -35.1 -109.5 M-105.5 3.35 Q-105.15 2.9 -106.2 3.15 L-105.5 3.35 M-141.4 72.05 L-138.9 74.3 -135.15 73.3 -133.9 71.95 -131.4 72.05 Q-127.4 75.45 -122.65 74.15 -117.4 72.75 -112.5 70.05 L-111.6 68.2 -109.95 68.9 -107.65 67.05 -103.0 67.3 -114.65 77.3 -114.65 89.3 -108.35 95.45 -106.9 94.95 -103.65 98.05 -105.1 99.55 Q-99.0 105.4 -93.2 111.6 -92.8 112.05 -92.65 112.8 L-90.7 115.1 -90.65 116.55 -89.75 117.75 -88.65 120.3 -87.95 131.5 -88.65 132.35 -89.65 141.35 Q-98.3 151.7 -111.1 156.1 -114.6 157.3 -117.45 159.8 -120.25 162.2 -122.65 165.1 L-122.75 166.2 -123.65 167.35 -122.65 175.6 -115.25 183.6 -118.65 184.1 -121.6 182.05 -123.65 182.1 -131.15 171.6 -131.25 169.75 -132.15 168.6 -131.15 155.85 -110.65 141.75 -112.15 140.6 Q-106.7 132.95 -107.85 122.95 -108.3 119.0 -108.9 115.1 -109.75 109.8 -112.0 105.0 -113.75 101.25 -117.6 99.15 L-117.8 96.45 Q-122.7 90.5 -130.0 88.3 -141.25 85.1 -151.75 90.8 -161.45 96.0 -166.65 105.55 L-166.65 107.05 -168.25 111.2 -167.55 112.15 Q-167.4 115.1 -168.2 117.95 -168.95 120.4 -168.4 122.95 L-167.65 126.8 -165.65 129.85 -165.65 131.35 -163.65 132.85 -163.95 135.35 -176.65 131.1 -176.65 134.1 -177.65 135.6 -177.65 137.1 -178.65 138.6 -178.65 140.1 -181.4 144.8 -183.15 144.6 -182.15 137.1 Q-185.15 128.8 -193.25 128.1 -196.45 127.65 -199.5 128.9 -205.8 131.65 -212.65 131.1 L-215.75 128.95 -221.15 117.55 Q-221.7 108.95 -219.75 100.8 -219.55 99.9 -218.9 99.15 L-215.65 111.55 -214.65 113.05 -214.65 114.55 -209.4 119.3 -207.25 113.05 -204.65 115.05 -205.0 116.25 -203.65 119.8 -186.6 120.1 Q-194.95 108.5 -192.25 95.15 L-190.9 94.1 -184.65 109.05 -184.65 110.55 Q-182.5 113.25 -179.85 115.15 -177.75 116.7 -175.15 117.3 L-175.15 115.05 -176.15 113.55 -176.15 106.05 Q-173.45 97.1 -169.0 88.8 -167.2 85.45 -164.15 82.85 -153.7 74.15 -140.8 76.9 L-143.1 72.85 -141.4 72.05 M-108.0 185.65 L-103.85 182.25 -104.1 179.25 -100.6 176.2 -98.45 176.25 -99.65 182.1 -105.85 187.15 -108.0 185.65 M-309.2 67.8 L-306.05 67.55 -307.7 74.05 -314.05 81.45 Q-307.85 86.35 -304.95 93.8 L-303.7 96.8 -303.7 101.3 -302.7 102.8 Q-302.65 110.7 -303.0 118.6 -303.15 122.45 -304.95 125.7 -308.3 131.6 -314.15 134.95 -320.4 138.4 -327.1 140.9 -329.1 141.55 -330.9 140.65 -325.25 134.55 -319.2 128.75 -316.7 126.4 -315.4 123.05 -313.95 119.5 -312.2 116.3 -311.9 100.5 -322.3 88.85 -325.5 85.25 -330.2 84.25 L-331.2 85.05 Q-340.35 85.15 -347.1 79.7 L-348.75 78.05 -353.2 72.3 -353.2 64.05 -351.1 55.85 Q-342.3 41.25 -326.95 33.8 L-324.7 34.8 -336.7 51.55 -336.7 53.05 -337.7 54.55 -337.7 56.8 -338.7 58.3 -337.2 67.3 Q-332.2 71.1 -326.55 73.65 -323.8 74.9 -320.85 74.75 -316.7 74.1 -312.85 72.6 L-309.2 67.8 M-198.45 143.75 Q-197.65 144.75 -197.65 146.2 -197.65 147.65 -198.45 148.65 -199.25 149.65 -200.35 149.65 -201.45 149.65 -202.25 148.65 -203.05 147.65 -203.05 146.2 -203.05 144.75 -202.25 143.75 -201.45 142.75 -200.35 142.75 -199.25 142.75 -198.45 143.75 M-168.6 130.7 L-169.1 131.6 -168.0 132.15 -168.6 130.7 M-336.45 42.55 L-338.55 45.95 -335.35 42.3 -336.45 42.55 M-384.0 87.8 L-367.45 89.05 Q-362.7 93.15 -359.8 98.35 -356.35 104.6 -356.05 112.0 -355.9 115.3 -357.1 118.65 L-359.95 118.85 -359.7 112.8 -359.7 116.3 -358.45 114.3 -359.2 109.8 -363.9 104.85 -366.75 104.85 -369.65 104.55 -370.6 104.5 -371.45 104.25 -372.15 104.0 -372.7 103.55 -373.4 102.6 -373.6 101.95 -368.95 99.8 -371.2 97.85 -374.0 95.65 Q-375.25 94.75 -376.7 94.35 L-381.8 93.1 Q-384.35 92.3 -385.25 89.8 L-384.0 87.8 M-379.6 97.9 Q-377.9 99.0 -379.6 99.8 L-385.65 102.75 -386.25 100.05 -380.45 97.05 -379.6 97.9 M-340.55 66.5 Q-340.35 67.0 -340.55 66.4 L-340.55 66.5 M-339.65 69.4 L-339.7 69.55 Q-339.0 70.3 -339.65 69.4 M-336.85 143.15 L-339.45 145.05 -351.2 143.55 Q-344.6 140.65 -338.05 142.75 L-336.85 143.15" fill="#ffcf00" fill-rule="evenodd" stroke="none"/>
    <path d="M62.45 -175.0 L62.5 -173.65 Q62.2 -172.75 61.45 -172.0 56.55 -170.3 51.95 -167.75 49.35 -166.3 47.7 -167.75 48.75 -170.1 51.85 -171.1 L55.0 -172.2 56.7 -172.75 57.7 -173.55 58.2 -174.0 61.0 -174.7 62.45 -175.0 M20.9 -179.55 L20.2 -178.75 19.45 -178.0 11.9 -174.35 8.95 -173.0 7.9 -173.7 7.7 -174.25 Q10.35 -178.0 14.9 -179.05 16.9 -179.5 18.35 -180.9 L18.95 -181.25 20.4 -180.85 21.2 -180.25 20.9 -179.55 M18.4 -153.2 L18.95 -152.5 Q19.5 -150.6 17.35 -151.4 L15.7 -152.5 15.85 -153.2 Q15.95 -153.65 16.3 -153.85 L16.95 -154.0 17.45 -154.0 18.4 -153.2 M30.5 -140.3 Q29.95 -140.75 29.7 -141.5 31.1 -144.3 34.8 -145.7 L37.45 -146.0 Q38.85 -143.4 34.95 -142.25 32.9 -141.65 31.45 -140.0 30.85 -140.0 30.5 -140.3 M13.0 -129.95 L13.45 -130.0 Q13.85 -129.25 13.85 -128.5 13.85 -127.75 13.45 -127.0 12.1 -127.4 10.9 -128.05 10.7 -128.15 10.7 -128.5 L12.05 -129.6 13.0 -129.95 M1.45 176.0 L2.2 176.75 2.95 177.5 3.25 178.2 3.75 178.95 4.45 179.75 9.85 183.65 11.2 185.0 9.85 185.85 8.2 186.0 5.9 184.25 5.7 183.75 4.2 183.0 1.1 180.15 Q-0.2 179.15 -0.3 177.75 L-0.2 177.0 Q-0.15 176.6 0.1 176.45 0.7 176.1 1.45 176.0 M-328.0 -186.2 L-326.8 -185.45 -326.0 -184.75 -325.9 -184.0 Q-325.9 -183.65 -326.15 -183.5 L-327.75 -183.0 -329.0 -183.75 -330.2 -184.55 -331.0 -185.25 -331.15 -186.0 -330.9 -186.5 -329.5 -187.0 -328.0 -186.2 M-181.5 -128.0 L-183.6 -128.4 -185.25 -129.5 -185.2 -130.25 -185.0 -130.75 -184.75 -131.0 -184.05 -131.1 -183.5 -131.25 -182.0 -131.2 -180.6 -130.85 Q-180.15 -130.65 -179.75 -130.25 L-180.1 -129.55 -180.75 -128.75 -181.5 -128.0 M-283.0 -160.25 Q-283.65 -160.25 -284.2 -160.6 L-285.0 -161.25 -285.75 -162.05 -286.1 -162.8 -286.25 -164.25 -287.9 -165.75 Q-288.25 -166.25 -288.25 -167.0 L-287.9 -167.6 -287.0 -167.95 -286.5 -168.0 -285.55 -167.2 -284.75 -166.5 -284.0 -165.75 -283.8 -165.0 -283.75 -164.25 -282.65 -162.85 Q-281.6 -161.75 -282.0 -160.5 L-283.0 -160.25 M-303.3 -79.55 Q-303.4 -78.75 -303.75 -78.0 L-303.75 -77.25 -303.75 -76.5 -305.0 -73.5 Q-305.7 -71.85 -306.75 -70.5 L-306.75 -69.75 -306.8 -69.0 -307.0 -68.25 -309.7 -68.35 -310.25 -68.75 -310.05 -70.2 -309.4 -71.8 -309.25 -72.5 -308.5 -73.25 -307.75 -74.0 -307.35 -74.8 -307.25 -75.5 -307.25 -76.25 -306.75 -77.0 -306.25 -77.75 Q-306.55 -79.05 -305.8 -80.05 -304.95 -81.2 -303.5 -81.0 -303.25 -80.25 -303.3 -79.55 M-21.15 -162.6 L-22.05 -161.75 -22.7 -160.95 -23.05 -160.25 Q-24.6 -159.0 -26.2 -157.9 L-28.05 -156.5 -28.9 -156.4 Q-29.65 -156.65 -30.3 -157.25 -29.55 -159.6 -27.0 -161.35 L-23.7 -163.9 -23.05 -164.25 -21.6 -163.85 -20.8 -163.25 Q-20.9 -162.9 -21.15 -162.6 M-4.05 -161.5 Q-4.9 -160.1 -6.6 -161.25 -7.9 -162.1 -6.7 -162.9 L-6.05 -163.25 Q-5.3 -163.15 -4.8 -162.7 -4.3 -162.25 -4.05 -161.5 M-96.0 -180.25 L-94.6 -179.85 -93.75 -179.25 -94.1 -178.55 -94.6 -177.7 -94.75 -177.0 -95.15 -176.45 Q-95.9 -175.9 -96.75 -175.5 L-97.5 -174.75 -99.0 -173.25 -99.75 -172.5 -101.0 -172.0 -102.1 -172.7 -102.25 -173.25 Q-101.05 -174.9 -99.45 -176.15 -97.75 -177.5 -97.25 -179.25 L-97.0 -179.75 -96.75 -179.9 -96.05 -180.1 -96.0 -180.25 M-152.5 -109.0 L-151.75 -108.25 -151.1 -107.45 -150.75 -106.75 Q-152.65 -104.65 -154.1 -106.85 L-154.25 -107.5 -154.2 -108.25 -154.0 -108.75 -153.75 -108.9 -153.0 -109.0 -152.5 -109.0 M-87.5 -111.0 Q-88.15 -111.0 -88.5 -111.3 L-89.25 -112.5 -89.15 -113.2 -88.7 -113.85 -88.0 -114.0 -87.5 -114.0 Q-87.15 -113.25 -87.15 -112.5 -87.15 -111.75 -87.5 -111.0 M-42.05 5.5 Q-42.55 5.85 -43.0 5.85 L-48.45 5.0 -49.3 4.5 -49.2 3.75 -49.0 3.25 -48.75 3.1 -48.05 2.85 -48.05 2.75 -45.75 3.45 Q-43.8 4.1 -41.95 5.1 L-42.05 5.5 M-85.0 3.5 L-86.1 4.05 Q-90.15 5.6 -89.7 2.55 -89.65 2.25 -89.1 1.9 L-89.0 1.75 Q-87.25 1.85 -85.75 2.55 -85.25 2.75 -85.0 3.5 M-142.75 186.75 L-142.75 187.5 -142.9 188.15 -143.5 189.0 -144.65 188.7 -146.25 187.5 -146.2 186.75 -145.95 186.35 -145.05 185.9 -145.0 185.75 -143.6 186.15 -142.75 186.75 M-44.45 185.35 Q-42.8 186.75 -42.8 188.75 -43.4 189.35 -44.05 189.35 -45.05 189.35 -46.05 188.75 L-46.75 187.95 -47.25 187.2 -47.55 186.5 -49.55 184.75 -50.3 183.5 -50.2 182.75 -50.0 182.25 -49.75 182.05 -49.05 182.0 -48.55 182.0 -44.45 185.35 M-28.8 184.25 Q-30.65 186.35 -32.1 184.1 L-32.3 183.5 -32.2 182.75 -32.0 182.25 -31.75 182.05 -31.05 182.0 -30.55 182.0 -29.8 182.75 -29.1 183.55 -28.8 184.25 M-283.1 49.45 L-285.75 50.0 -286.75 49.25 -288.1 48.1 -288.25 47.5 -288.2 46.75 -288.0 46.25 -287.75 46.05 -287.05 45.85 -287.0 45.75 -285.5 46.0 -284.85 46.8 -284.5 47.5 Q-283.75 47.85 -283.15 48.4 L-282.75 49.0 -283.1 49.45 M-270.1 60.55 L-269.8 61.25 -269.75 62.0 -270.15 62.5 -271.75 63.0 -272.55 62.3 -274.1 61.05 -274.25 60.5 -274.2 59.75 -274.0 59.25 -273.75 59.05 -273.0 58.75 -271.6 59.15 -270.75 59.75 -270.1 60.55 M-306.05 116.45 L-306.75 118.0 -307.0 118.75 -307.8 119.4 -309.0 120.0 -310.25 119.5 -310.15 118.75 -309.75 118.0 -309.25 117.25 -309.2 116.5 -308.8 115.45 -308.05 114.9 -308.0 114.75 -306.6 115.15 -305.75 115.75 -306.05 116.45 M-197.6 166.15 L-196.75 166.75 -197.1 167.4 -197.6 168.3 -197.75 169.0 -197.75 169.75 -197.75 170.5 -197.65 171.2 -197.25 172.0 -196.75 172.75 -196.75 173.5 -196.75 174.25 -196.75 175.0 -197.15 175.5 -198.75 176.0 -199.15 175.2 -199.25 174.5 -199.25 173.75 -199.75 173.0 -200.25 172.25 -200.35 170.0 Q-200.45 168.05 -199.7 166.35 L-199.0 165.75 -197.6 166.15 M-348.5 103.0 Q-348.25 103.75 -348.45 104.35 -348.75 105.25 -349.5 106.0 L-349.75 106.75 -350.0 107.5 -352.2 107.2 -353.0 106.75 -353.15 106.0 -352.9 105.3 -352.25 104.5 -349.95 103.3 -349.0 103.0 -348.5 103.0" fill="#ffffff" fill-rule="evenodd" stroke="none"/>
  </g>
</svg>
