<?xml version="1.0" encoding="UTF-8" standalone="no"?>
<svg xmlns:ffdec="https://www.free-decompiler.com/flash" xmlns:xlink="http://www.w3.org/1999/xlink" ffdec:objectType="shape" height="55.9px" width="49.7px" xmlns="http://www.w3.org/2000/svg">
  <g transform="matrix(1.0, 0.0, 0.0, 1.0, 26.5, 51.0)">
    <path d="M7.0 -50.0 L7.35 -50.25 7.75 -50.4 8.6 -50.65 9.25 -50.9 10.0 -50.9 10.0 -51.0 10.5 -51.0 11.5 -50.75 12.1 -50.4 12.5 -50.0 12.6 -49.65 12.85 -49.25 13.0 -48.9 13.0 -48.5 13.0 -48.15 13.1 -47.75 13.25 -47.4 13.35 -47.0 13.5 -46.65 13.5 -46.25 13.5 -45.9 13.5 -45.5 13.5 -45.15 13.5 -44.75 13.5 -44.4 13.5 -44.0 13.75 -43.9 14.5 -44.0 15.5 -43.75 16.1 -43.4 16.5 -43.0 16.6 -42.65 16.85 -42.25 17.0 -41.9 17.0 -41.5 17.0 -41.15 17.0 -40.75 17.0 -40.4 17.0 -40.0 17.0 -39.65 17.0 -39.25 17.0 -38.9 17.0 -38.5 17.0 -38.15 17.0 -37.75 17.0 -37.5 17.5 -37.5 18.5 -37.25 19.1 -36.9 19.5 -36.5 19.6 -36.15 19.85 -35.75 20.0 -35.4 20.0 -35.0 20.0 -34.65 20.0 -34.25 20.0 -33.9 20.0 -33.5 20.0 -33.15 20.0 -32.75 20.0 -32.4 20.0 -32.0 20.0 -31.65 20.0 -31.25 20.0 -30.9 20.0 -30.5 20.0 -30.15 20.0 -29.75 20.0 -29.4 20.0 -29.0 20.0 -28.65 20.0 -28.25 20.0 -27.9 20.0 -27.5 20.0 -27.15 20.0 -26.75 20.0 -26.4 20.0 -26.0 20.0 -25.65 20.0 -25.25 20.0 -24.9 20.0 -24.5 20.0 -24.15 20.0 -23.75 20.0 -23.4 20.0 -23.0 20.0 -22.65 20.0 -22.25 20.0 -21.9 20.0 -21.5 20.0 -21.15 20.0 -20.75 20.0 -20.4 20.0 -20.0 20.0 -19.65 20.0 -19.25 20.0 -18.9 20.0 -18.5 20.0 -18.15 20.0 -17.75 20.0 -17.4 20.0 -17.0 20.0 -16.65 20.0 -16.25 20.0 -15.9 20.0 -15.5 20.0 -15.15 20.0 -14.75 20.0 -14.4 20.0 -14.0 20.0 -13.65 20.0 -13.25 20.0 -12.9 20.0 -12.5 20.0 -12.15 20.0 -11.75 20.0 -11.4 20.0 -11.0 19.85 -10.65 19.75 -10.25 19.6 -9.9 19.5 -9.5 19.5 -9.15 19.5 -8.75 19.5 -8.4 19.5 -8.0 19.5 -7.65 19.35 -7.25 19.25 -6.9 19.0 -6.5 19.0 -6.15 19.0 -5.75 19.0 -5.4 19.0 -5.0 19.0 -4.65 19.0 -4.25 19.0 -3.9 19.0 -3.5 19.0 -3.15 19.0 -2.75 18.85 -2.4 18.75 -2.0 18.5 -1.65 18.25 -1.25 17.75 -0.9 17.25 -0.65 16.5 -0.5 16.0 -0.5 14.85 -0.75 14.35 -1.15 14.0 -1.5 13.75 -1.9 13.6 -2.25 13.5 -2.65 13.5 -3.0 13.5 -3.4 13.5 -3.75 13.35 -4.15 13.0 -4.5 12.6 -4.9 12.25 -5.25 12.1 -5.65 12.0 -6.0 12.0 -6.4 12.0 -6.75 12.0 -7.15 12.0 -7.5 12.0 -7.9 11.35 -8.25 10.85 -8.65 10.5 -9.0 10.25 -9.4 10.1 -9.75 10.0 -10.15 10.0 -10.5 10.0 -10.9 10.0 -11.25 10.0 -11.65 10.0 -12.0 10.0 -12.4 10.0 -12.75 10.0 -13.15 10.0 -13.5 10.0 -13.9 10.0 -14.25 10.0 -14.65 10.1 -15.0 10.35 -15.4 10.5 -15.75 10.5 -16.15 10.5 -16.5 10.5 -16.9 10.5 -17.25 10.5 -17.65 10.5 -18.0 10.5 -18.4 10.6 -18.75 10.75 -19.15 10.85 -19.5 11.0 -19.9 11.0 -20.25 11.0 -20.65 10.75 -20.9 10.25 -20.65 9.5 -20.5 8.35 -20.75 7.85 -21.15 7.5 -21.5 7.25 -21.9 7.1 -22.25 7.0 -22.65 7.0 -23.0 7.0 -23.4 7.0 -23.75 7.0 -24.15 7.0 -24.5 7.0 -24.9 7.0 -25.25 7.0 -25.65 6.85 -26.0 6.6 -26.4 6.25 -26.75 6.1 -27.15 6.0 -27.5 6.0 -27.9 6.0 -28.25 6.0 -28.65 6.0 -29.0 6.0 -29.4 6.0 -29.75 5.85 -30.15 5.5 -30.5 5.1 -30.9 4.75 -31.25 4.6 -31.65 4.5 -32.0 4.5 -32.4 4.5 -32.75 4.5 -33.15 4.5 -33.5 4.5 -33.9 4.5 -34.25 4.5 -34.65 4.5 -35.0 4.5 -35.4 4.5 -35.75 4.5 -36.15 4.5 -36.4 1.5 -36.25 0.5 -36.0 -2.0 -35.75 -3.0 -35.5 -4.6 -35.4 -4.0 -35.25 -3.4 -34.9 -3.0 -34.5 -2.9 -34.15 -2.65 -33.75 -2.5 -33.4 -2.5 -33.0 -2.5 -32.65 -2.5 -32.25 -2.65 -31.9 -2.75 -31.5 -3.0 -31.15 -3.0 -30.75 -3.0 -30.4 -3.0 -30.0 -3.0 -29.65 -3.0 -29.25 -3.0 -28.9 -3.0 -28.5 -3.0 -28.15 -3.0 -27.75 -3.0 -27.4 -3.0 -27.0 -3.0 -26.65 -3.0 -26.25 -3.0 -25.9 -3.0 -25.5 -3.0 -25.15 -3.0 -24.75 -3.0 -24.4 -3.15 -24.0 -3.25 -23.65 -3.4 -23.25 -3.5 -22.9 -3.5 -22.5 -3.5 -22.15 -3.5 -21.75 -3.5 -21.4 -3.5 -21.0 -3.5 -20.65 -3.65 -20.25 -3.75 -19.9 -4.0 -19.5 -4.0 -19.15 -4.0 -18.75 -4.0 -18.4 -4.15 -18.0 -4.25 -17.65 -4.4 -17.25 -4.65 -16.9 -5.15 -16.5 -5.4 -16.25 -5.75 -16.15 -6.5 -16.0 -7.0 -16.0 -8.15 -16.25 -8.65 -16.65 -9.0 -17.0 -9.0 -16.9 -9.0 -16.5 -9.0 -16.15 -9.0 -15.75 -9.0 -15.4 -9.15 -15.0 -9.25 -14.65 -9.4 -14.25 -9.65 -13.9 -9.75 -13.5 -10.0 -13.15 -10.0 -12.75 -10.15 -12.4 -10.25 -12.0 -10.5 -11.65 -10.65 -11.25 -10.9 -10.9 -11.0 -10.5 -11.25 -10.15 -11.4 -9.75 -11.65 -9.4 -12.0 -9.0 -12.0 -8.65 -12.0 -8.25 -12.15 -7.9 -12.25 -7.5 -12.5 -7.15 -12.65 -6.75 -12.9 -6.4 -13.0 -6.0 -13.0 -5.65 -13.15 -5.25 -13.4 -4.9 -13.5 -4.5 -13.9 -4.15 -14.0 -3.75 -14.0 -3.4 -14.15 -3.0 -14.25 -2.65 -14.4 -2.25 -14.65 -1.9 -15.0 -1.5 -15.25 -1.15 -15.4 -0.75 -15.65 -0.4 -15.75 0.0 -16.0 0.35 -16.25 0.75 -16.75 1.1 -17.25 1.35 -18.0 1.5 -19.15 1.25 -19.65 0.85 -20.0 0.5 -20.25 0.1 -20.4 -0.25 -20.5 -0.65 -20.5 -1.0 -20.5 -1.4 -20.5 -1.5 -20.75 -1.9 -20.9 -2.25 -21.0 -2.65 -21.0 -3.0 -21.0 -3.4 -21.0 -3.75 -21.0 -4.0 -21.4 -4.4 -21.75 -4.75 -21.9 -5.15 -22.0 -5.5 -22.0 -5.9 -22.0 -6.25 -22.0 -6.65 -22.0 -7.0 -22.0 -7.4 -22.0 -7.75 -22.0 -8.15 -22.0 -8.5 -22.0 -8.9 -22.0 -9.25 -22.0 -9.65 -21.9 -10.0 -21.65 -10.4 -21.5 -10.75 -21.5 -11.15 -21.5 -11.5 -21.5 -11.9 -21.5 -12.25 -21.5 -12.65 -21.5 -13.0 -21.5 -13.4 -21.5 -13.75 -21.5 -14.15 -21.5 -14.5 -21.4 -14.9 -21.25 -15.25 -21.0 -15.65 -20.9 -16.0 -20.75 -16.4 -21.15 -16.75 -21.65 -17.15 -22.0 -17.5 -22.25 -17.9 -22.4 -18.25 -22.5 -18.65 -22.5 -19.0 -22.5 -19.4 -22.5 -19.75 -22.5 -20.15 -22.5 -20.5 -22.5 -20.9 -22.4 -21.25 -22.25 -21.65 -22.15 -22.0 -22.0 -22.4 -21.9 -22.75 -21.75 -23.15 -21.5 -23.5 -21.15 -23.9 -21.0 -24.25 -21.0 -24.65 -21.0 -25.0 -20.9 -25.4 -20.75 -25.75 -20.4 -26.15 -20.15 -26.5 -20.0 -26.9 -19.9 -27.25 -19.75 -27.65 -19.65 -28.0 -19.5 -28.4 -19.4 -28.75 -19.4 -29.15 -20.0 -29.5 -20.4 -29.9 -20.75 -30.25 -21.15 -30.65 -21.4 -31.0 -21.5 -31.4 -21.5 -31.75 -21.5 -32.15 -21.5 -32.5 -21.5 -32.9 -21.5 -33.25 -21.5 -33.65 -21.65 -34.0 -22.4 -34.4 -23.15 -34.75 -23.9 -35.15 -24.5 -35.5 -25.4 -35.9 -25.75 -36.25 -26.15 -36.65 -26.4 -37.0 -26.5 -37.4 -26.5 -37.75 -26.5 -38.15 -26.5 -38.5 -26.4 -38.9 -26.25 -39.25 -25.9 -39.65 -25.5 -40.0 -25.15 -40.25 -24.75 -40.4 -24.0 -40.5 -20.75 -40.75 -20.5 -41.15 -20.5 -41.5 -20.5 -41.9 -20.4 -42.25 -20.25 -42.65 -20.15 -43.0 -20.0 -43.4 -19.9 -43.75 -19.75 -44.15 -19.65 -44.5 -19.5 -44.9 -19.5 -45.25 -19.5 -45.65 -19.5 -46.0 -19.4 -46.4 -19.25 -46.75 -18.9 -47.15 -18.65 -47.5 -18.5 -47.9 -18.4 -48.25 -18.25 -48.65 -18.0 -49.0 -17.65 -49.4 -17.25 -49.75 -16.9 -50.15 -16.25 -50.4 -15.5 -50.5 -14.5 -50.25 -13.9 -49.9 -13.5 -49.5 -13.4 -49.15 -13.15 -48.75 -13.05 -48.5 -12.9 -48.65 -12.25 -48.9 -11.4 -49.15 -11.15 -49.4 -10.75 -49.75 -10.4 -50.15 -10.0 -50.5 -9.65 -50.75 -9.25 -50.9 -8.5 -50.9 -8.5 -51.0 -7.5 -50.75 -6.9 -50.4 -6.5 -50.0 -6.4 -49.65 -6.15 -49.25 -6.05 -49.0 -2.0 -49.0 -0.5 -49.0 6.15 -49.0 6.25 -49.25 6.6 -49.65 7.0 -50.0 M-5.5 -40.75 L-3.65 -40.75 -3.75 -40.9 -4.5 -41.0 -5.5 -41.2 -5.5 -41.0 -5.5 -40.75" fill="#333333" fill-rule="evenodd" stroke="none"/>
    <path d="M1.25 -37.6 L0.75 -37.7 0.5 -37.7 0.3 -37.75 0.2 -37.8 -0.6 -37.9 -6.0 -38.0 -6.0 -37.95 -6.15 -37.95 -6.25 -37.9 -6.3 -37.85 -6.3 -37.8 -6.35 -37.9 -6.4 -38.0 -6.4 -38.15 -6.4 -38.35 -6.45 -38.45 -6.5 -38.55 -6.5 -38.75 -6.5 -38.9 -6.5 -39.1 -6.5 -39.2 -6.55 -39.3 -6.65 -39.5 -6.75 -39.55 -6.8 -39.65 -7.0 -39.75 -7.0 -39.7 -7.15 -39.7 -7.25 -39.65 -7.35 -39.55 -7.4 -39.45 -7.4 -39.35 -7.4 -39.25 -7.4 -39.15 -7.35 -39.05 -7.25 -38.95 -7.25 -38.9 -7.25 -38.7 -7.25 -38.5 -7.25 -38.45 -7.35 -38.75 -7.4 -38.8 -7.45 -38.9 -7.5 -39.0 -7.5 -39.1 -7.55 -39.2 -7.55 -39.4 -7.45 -39.95 -1.25 -39.95 -1.0 -39.95 0.4 -39.85 6.65 -39.75 6.6 -39.7 6.6 -39.25 6.65 -38.55 6.6 -38.1 6.55 -38.0 6.5 -37.9 6.5 -37.8 6.45 -37.7 6.4 -37.65 6.35 -37.55 6.35 -37.45 6.35 -37.35 6.35 -37.25 6.4 -37.15 6.5 -37.05 6.75 -36.7 7.4 -36.0 8.1 -35.3 8.25 -35.0 8.5 -34.7 8.6 -34.65 8.6 -34.6 8.5 -34.65 8.5 -34.6 8.25 -34.55 8.25 -34.5 1.55 -34.55 -2.65 -34.7 -4.35 -34.85 -7.8 -35.1 -7.5 -35.5 -6.85 -36.45 -6.3 -37.25 -6.3 -37.3 -6.25 -37.2 -6.0 -37.15 -5.85 -37.15 -5.8 -37.2 -0.55 -37.2 -0.4 -37.15 -0.25 -37.15 -0.05 -37.1 0.0 -37.05 0.25 -37.0 0.5 -36.95 0.75 -36.9 1.2 -36.85 1.25 -36.8 1.5 -36.75 2.15 -36.7 3.2 -36.6 3.3 -36.55 3.5 -36.5 4.75 -36.45 4.85 -36.4 Q5.5 -36.25 6.15 -36.4 L6.25 -36.5 6.3 -36.6 6.35 -36.7 6.35 -36.8 6.35 -36.9 6.25 -36.95 6.2 -37.05 6.0 -37.15 5.1 -37.15 4.9 -37.2 3.7 -37.25 3.6 -37.3 3.4 -37.4 2.15 -37.4 2.05 -37.45 1.9 -37.45 1.55 -37.5 1.45 -37.55 1.25 -37.6 M7.5 -38.7 L7.5 -38.6 7.45 -38.4 7.35 -38.3 7.35 -38.6 7.4 -39.25 7.55 -38.8 7.5 -38.8 7.5 -38.7 M9.25 -28.0 L9.55 -28.0 9.4 -27.8 9.2 -27.5 9.2 -27.55 9.25 -27.65 9.25 -27.75 9.25 -27.8 9.25 -28.0 M8.35 -28.0 L8.4 -27.9 8.45 -27.8 8.4 -27.7 8.35 -27.6 8.35 -27.5 8.35 -27.4 8.35 -27.3 8.35 -27.25 8.3 -27.15 8.25 -27.05 8.25 -26.95 8.2 -26.85 8.15 -26.75 8.1 -26.65 8.1 -26.55 8.1 -26.5 8.0 -26.4 8.0 -26.3 8.0 -26.2 7.95 -26.1 7.9 -26.0 7.85 -25.9 7.85 -25.8 7.85 -25.75 7.75 -25.65 7.25 -25.6 7.1 -25.6 7.0 -25.55 1.95 -25.25 -0.4 -25.25 -7.35 -25.25 -7.55 -25.3 -7.45 -25.4 -7.3 -25.65 -7.15 -25.95 -7.15 -26.15 -7.15 -26.2 -7.25 -26.3 -7.3 -26.4 -7.5 -26.5 -7.5 -26.45 -7.75 -26.4 -7.8 -26.3 -7.85 -26.2 -7.9 -26.15 -7.95 -26.05 -8.0 -25.95 -8.15 -25.85 -8.3 -25.75 -8.4 -25.65 -8.4 -25.75 -8.4 -25.85 -8.4 -25.95 -8.45 -26.05 -8.5 -26.15 -8.5 -26.3 -8.5 -26.7 -8.5 -27.0 -8.5 -27.15 -8.55 -27.25 -8.6 -27.35 -8.65 -27.55 -8.65 -27.75 -8.65 -27.8 -8.65 -27.9 -8.7 -28.0 -8.8 -28.2 -7.9 -28.2 -7.7 -28.2 -4.75 -28.05 8.35 -28.0 M8.5 -30.8 L8.55 -30.75 8.6 -30.65 8.6 -30.6 8.55 -30.7 8.5 -30.8 8.45 -31.1 8.45 -31.2 8.5 -31.3 8.5 -31.2 8.5 -31.1 8.5 -31.0 8.5 -30.9 8.5 -30.8 M9.35 -29.6 L9.3 -29.7 9.4 -29.6 9.4 -29.1 9.45 -29.0 9.0 -29.0 9.2 -29.05 9.25 -29.15 9.35 -29.25 9.35 -29.3 9.35 -29.4 9.35 -29.5 9.35 -29.6 M1.55 -30.9 L1.75 -30.8 2.85 -30.6 3.0 -30.55 3.25 -30.5 4.4 -30.5 4.5 -30.55 6.0 -30.65 6.15 -30.65 6.65 -30.75 6.75 -30.8 7.25 -30.9 7.4 -30.9 7.55 -30.95 7.55 -30.9 7.6 -30.8 7.6 -30.75 7.85 -30.35 8.35 -29.7 8.6 -29.25 8.7 -29.15 8.75 -29.05 9.0 -29.0 -5.15 -29.05 -7.9 -29.15 -9.45 -29.2 -9.3 -29.8 -9.25 -29.95 -9.1 -30.2 -9.15 -30.1 -9.15 -30.0 -9.15 -29.9 -9.15 -29.8 -9.15 -29.75 -9.05 -29.65 -9.0 -29.55 -8.75 -29.5 -8.6 -29.5 -8.45 -29.5 -8.4 -29.55 -8.35 -29.6 -8.3 -29.7 -8.25 -29.8 -8.2 -29.9 -8.05 -30.1 -7.5 -30.75 -6.8 -31.4 -6.65 -31.65 -1.25 -31.5 1.55 -30.9 M8.75 -32.7 L8.75 -32.8 8.75 -33.0 8.75 -33.15 8.75 -33.3 8.9 -32.45 8.95 -32.35 8.85 -32.3 8.8 -32.25 8.75 -32.15 8.75 -32.1 8.55 -32.1 8.6 -32.3 8.7 -32.6 8.75 -32.7 M6.6 -31.6 L6.45 -31.55 6.1 -31.45 6.0 -31.4 4.35 -31.35 4.2 -31.3 3.25 -31.25 2.15 -31.45 Q0.55 -32.2 -1.25 -32.35 L-1.35 -32.35 -6.1 -32.45 -6.0 -32.8 -6.0 -32.9 -6.1 -32.95 -6.15 -33.05 -6.35 -33.15 -6.35 -33.1 -6.5 -33.1 -6.75 -32.85 -6.9 -32.55 -7.1 -32.65 -7.1 -32.6 -7.25 -32.6 -7.35 -32.55 -7.4 -32.5 -7.4 -32.55 -7.4 -32.8 -7.4 -33.0 -7.3 -33.2 -7.3 -33.3 -7.25 -33.4 -7.25 -33.5 -7.25 -33.65 -7.25 -33.95 -6.0 -33.9 -4.35 -33.8 8.0 -33.4 8.0 -33.35 8.0 -33.05 8.0 -32.9 7.95 -32.8 7.9 -32.7 7.8 -32.3 7.75 -31.95 7.75 -31.9 7.6 -31.85 7.2 -31.65 6.75 -31.6 6.6 -31.6 M7.25 -37.75 L7.25 -37.65 7.25 -37.55 7.25 -37.5 7.25 -37.4 7.25 -37.35 7.2 -37.45 7.2 -37.5 7.2 -37.55 7.25 -37.75 M8.95 -26.7 L9.0 -26.7 8.95 -26.6 8.9 -26.5 8.9 -26.4 8.9 -26.3 8.9 -26.25 8.9 -26.15 8.85 -26.05 8.8 -25.95 8.8 -25.9 8.75 -25.9 8.75 -25.95 8.75 -26.05 8.75 -26.15 8.85 -26.25 8.85 -26.3 8.85 -26.4 8.85 -26.5 8.9 -26.6 8.95 -26.7 M10.35 -20.2 L10.35 -20.15 10.35 -20.05 10.35 -20.0 10.35 -19.9 10.3 -19.8 10.25 -19.7 10.25 -19.6 10.25 -19.5 10.25 -19.4 10.2 -19.3 10.15 -19.2 10.1 -19.15 10.1 -19.05 10.1 -18.95 10.05 -18.85 10.0 -18.75 10.0 -18.65 9.95 -18.55 9.85 -18.45 9.85 -18.4 9.8 -18.3 9.8 -18.2 9.65 -17.9 9.55 -17.75 9.4 -17.55 9.35 -17.45 9.35 -17.4 9.3 -17.45 9.15 -17.45 8.75 -17.5 8.5 -17.4 8.45 -17.3 8.35 -17.2 8.25 -17.15 8.2 -17.05 8.05 -16.95 7.9 -16.9 7.75 -16.85 7.6 -16.8 7.4 -16.75 7.2 -16.8 7.0 -16.9 6.1 -16.95 0.0 -17.7 -1.35 -17.8 -9.3 -18.0 -9.4 -18.05 -9.45 -18.05 -9.45 -18.1 -9.4 -18.2 -9.4 -18.3 -9.4 -18.4 -9.5 -18.45 -9.55 -18.55 -9.75 -18.65 -9.75 -18.6 -9.9 -18.6 -10.0 -18.5 -10.0 -18.55 -10.0 -18.65 -10.0 -19.3 -10.0 -20.05 -10.0 -20.7 -10.05 -20.8 -10.05 -20.85 -0.05 -20.55 0.25 -20.5 9.45 -20.55 9.5 -20.5 9.55 -20.4 9.55 -20.3 9.6 -20.25 9.6 -20.15 9.7 -20.05 9.75 -19.95 10.0 -19.9 10.15 -19.9 10.25 -20.0 10.3 -20.1 10.35 -20.2 M7.4 -24.8 L7.6 -24.8 7.6 -24.75 7.6 -24.25 7.6 -23.9 7.7 -23.8 7.75 -23.7 7.85 -23.6 7.85 -23.5 7.9 -23.4 7.95 -23.3 8.0 -23.25 8.0 -23.15 8.05 -23.05 8.1 -22.95 8.3 -22.65 8.6 -22.3 8.85 -22.0 8.85 -21.9 8.9 -21.8 8.95 -21.75 9.05 -21.55 -0.05 -21.55 -0.3 -21.55 -2.45 -21.7 -4.35 -21.8 -10.25 -21.85 -10.3 -21.9 -10.5 -22.0 -10.5 -21.95 -10.65 -21.95 -10.75 -21.9 -10.75 -21.85 -10.95 -21.85 -11.0 -21.9 -11.05 -21.95 -11.15 -22.05 -11.15 -22.1 -11.15 -22.15 -11.1 -22.15 -10.95 -22.25 -10.85 -22.25 -10.75 -22.25 -10.55 -22.3 -9.95 -22.85 -8.85 -23.95 -8.1 -24.7 -8.05 -24.7 -7.85 -24.65 -7.6 -24.55 -7.35 -24.5 -0.85 -24.6 1.9 -24.5 2.15 -24.55 2.35 -24.6 3.4 -24.65 3.5 -24.7 7.3 -24.75 7.4 -24.8 M8.35 -24.95 L8.5 -25.0 8.65 -25.0 8.65 -24.65 8.65 -24.25 8.75 -24.0 8.8 -23.9 8.85 -23.8 8.85 -23.7 8.95 -23.6 9.05 -23.45 9.3 -23.25 9.55 -23.05 9.6 -22.95 9.75 -22.85 9.85 -22.65 10.7 -21.85 10.75 -21.8 10.75 -21.7 10.75 -21.55 9.95 -21.55 9.8 -21.8 9.3 -22.65 8.75 -23.3 8.75 -23.4 8.7 -23.5 8.65 -23.55 8.6 -23.65 8.6 -23.75 8.55 -23.85 8.5 -23.95 8.45 -24.05 8.4 -24.15 8.35 -24.25 8.35 -24.4 8.35 -24.7 8.35 -24.95 M10.55 -18.1 L10.6 -18.2 10.65 -18.3 10.7 -18.4 10.75 -18.5 10.75 -17.45 10.75 -16.8 10.75 -16.75 10.2 -17.35 10.35 -17.65 10.45 -17.8 10.55 -18.0 10.55 -18.1 M8.95 -10.95 L9.0 -11.0 9.15 -11.0 9.25 -11.05 9.5 -11.15 9.8 -11.25 10.05 -11.3 10.9 -11.4 11.15 -11.45 11.15 -11.4 11.25 -11.3 11.35 -11.25 11.45 -11.15 11.5 -11.05 11.5 -10.95 11.6 -10.85 11.7 -10.75 11.7 -10.65 11.75 -10.55 11.75 -10.5 11.85 -10.4 11.95 -10.3 12.0 -10.2 12.1 -10.1 12.1 -10.0 12.15 -9.9 12.2 -9.8 12.25 -9.75 12.25 -9.65 12.3 -9.55 12.35 -9.45 12.35 -9.35 12.35 -9.25 12.35 -9.15 12.4 -9.05 12.45 -9.0 -13.85 -9.05 -13.65 -9.3 -13.45 -9.5 -13.35 -9.55 -13.2 -9.65 -12.6 -10.25 -12.1 -10.65 -12.0 -10.65 -9.2 -10.8 -8.15 -10.95 -4.45 -11.4 -0.55 -11.2 3.75 -10.85 3.9 -10.8 4.15 -10.75 8.3 -10.75 8.4 -10.8 8.65 -10.9 8.95 -10.95 M10.85 -15.65 L11.7 -14.75 -3.5 -14.8 -9.65 -14.95 -12.2 -15.1 -12.85 -15.15 -12.6 -15.15 -12.4 -15.2 -12.35 -15.3 -12.25 -15.4 -12.2 -15.5 -12.0 -15.55 -11.7 -15.85 -10.45 -16.9 -10.0 -17.35 -10.0 -17.3 -9.25 -17.2 -6.95 -17.15 -1.6 -17.1 0.6 -16.85 2.0 -16.6 4.75 -16.35 5.0 -16.3 5.25 -16.25 7.0 -16.1 7.15 -16.05 7.4 -16.0 7.65 -16.0 7.8 -16.0 7.9 -16.05 8.15 -16.15 8.35 -16.2 8.6 -16.4 8.75 -16.5 8.9 -16.55 8.95 -16.65 9.15 -16.65 9.85 -16.6 9.9 -16.55 10.85 -15.65 M11.95 -12.6 L11.95 -12.55 11.95 -12.5 11.9 -12.5 11.9 -12.45 11.9 -12.55 11.95 -12.6 M11.35 -13.1 L11.3 -13.0 11.25 -12.9 11.2 -12.8 11.1 -12.75 11.1 -12.65 11.1 -12.55 11.05 -12.45 11.0 -12.35 11.0 -12.25 10.15 -12.1 9.6 -11.95 9.25 -11.9 9.0 -11.8 8.85 -11.75 8.7 -11.65 8.4 -11.65 8.25 -11.6 8.1 -11.55 4.15 -11.5 3.95 -11.55 3.75 -11.65 0.4 -11.95 Q-2.9 -12.55 -6.25 -11.95 L-11.5 -11.4 -11.5 -11.45 -11.5 -11.55 -11.5 -11.65 -11.5 -11.7 -11.6 -11.8 -11.65 -11.9 -11.85 -12.0 -11.85 -11.95 -12.0 -11.95 -12.1 -11.9 -12.2 -11.8 -12.25 -11.7 -12.25 -12.1 -12.25 -12.55 -12.25 -12.95 -12.3 -13.05 -12.3 -13.15 -12.35 -13.25 -12.4 -13.3 -12.4 -13.4 -12.4 -13.5 -12.4 -13.6 -12.4 -13.7 -12.45 -13.8 -12.5 -13.9 -12.5 -14.0 -12.5 -14.05 -12.25 -14.05 -9.45 -13.9 -3.1 -13.75 11.6 -13.75 11.55 -13.55 11.5 -13.5 11.5 -13.4 11.4 -13.3 11.35 -13.2 11.35 -13.1 M6.55 -6.35 L6.35 -6.3 4.8 -6.25 4.7 -6.3 1.85 -6.45 1.25 -6.35 1.1 -6.3 0.75 -6.25 -0.2 -6.05 -0.4 -5.95 -1.25 -5.85 -1.45 -5.8 -3.65 -5.6 -3.8 -5.55 -5.25 -5.35 -5.45 -5.3 -6.95 -5.25 -7.05 -5.3 -7.25 -5.4 -7.85 -5.45 -8.1 -5.45 -8.3 -5.5 -8.4 -5.55 -9.1 -5.7 -10.0 -5.75 -10.05 -5.8 -10.25 -5.9 -11.5 -5.9 -11.6 -5.95 -11.75 -6.0 -11.95 -6.0 -12.05 -6.05 -12.6 -6.2 -13.5 -6.25 -13.55 -6.3 -13.75 -6.4 -13.9 -6.4 -13.95 -6.45 -14.1 -6.5 -14.25 -6.45 -14.3 -6.4 -14.4 -6.35 -14.45 -6.25 -14.45 -6.15 -14.5 -6.05 -14.45 -6.0 -14.4 -5.9 -14.3 -5.8 -14.25 -5.75 -14.3 -5.75 -14.5 -5.65 -14.55 -5.55 -14.65 -5.5 -14.65 -5.65 -14.65 -5.75 -14.55 -5.95 -14.55 -6.05 -14.5 -6.15 -14.5 -6.25 -14.5 -6.8 -14.45 -7.35 -14.5 -7.75 -14.6 -7.8 -14.65 -7.9 -14.85 -8.0 -14.85 -7.95 -15.0 -7.95 -15.1 -7.9 -15.2 -7.8 -15.25 -7.7 -15.25 -7.5 -15.3 -7.6 -15.3 -7.7 -15.35 -7.8 -15.4 -7.9 -15.4 -8.0 -15.45 -8.0 -15.4 -8.1 -15.25 -8.2 -15.0 -8.25 -14.8 -8.2 -14.65 -8.1 -14.6 -8.0 13.25 -8.05 13.2 -8.0 13.0 -7.9 12.85 -7.85 12.75 -7.8 12.65 -7.7 12.5 -7.6 12.35 -7.5 12.3 -7.4 12.2 -7.3 12.1 -7.2 12.05 -7.15 12.0 -7.05 12.0 -6.95 12.0 -6.75 12.0 -6.55 12.0 -6.5 12.0 -6.4 12.1 -6.3 12.1 -6.2 12.2 -6.1 12.3 -6.0 12.45 -5.9 13.05 -5.35 14.25 -4.35 14.25 -4.25 14.25 -4.15 14.25 -4.05 14.3 -4.0 14.35 -3.9 14.4 -3.8 14.4 -3.7 14.4 -3.3 14.4 -3.15 14.25 -3.25 14.25 -3.2 14.1 -3.2 14.0 -3.15 13.95 -3.1 4.5 -3.15 4.0 -3.2 -15.85 -3.25 -16.0 -3.05 -16.0 -3.1 -15.95 -3.15 -15.9 -3.25 -15.75 -3.45 -15.6 -3.65 -15.5 -3.75 -15.35 -3.8 -15.3 -3.9 -15.25 -4.0 -15.2 -4.1 -15.1 -4.2 -14.9 -4.3 -14.75 -4.4 -14.6 -4.5 -14.55 -4.55 -14.5 -4.65 -14.4 -4.75 -14.25 -4.85 -14.15 -4.95 -13.95 -5.0 -13.85 -5.05 -13.8 -5.15 -13.7 -5.35 -13.65 -5.45 -13.65 -5.5 -13.6 -5.5 -12.75 -5.45 -12.65 -5.4 -12.5 -5.4 -12.3 -5.35 -12.25 -5.3 -11.5 -5.15 -10.4 -5.1 -10.3 -5.05 -10.1 -5.0 -8.85 -4.9 -8.65 -4.85 -8.55 -4.8 -8.35 -4.75 -7.85 -4.65 -7.3 -4.6 -7.25 -4.55 -7.0 -4.5 -5.35 -4.55 -5.2 -4.55 -3.85 -4.75 -3.7 -4.75 -3.55 -4.8 -1.35 -5.05 -1.2 -5.05 1.15 -5.5 1.3 -5.5 1.4 -5.55 1.75 -5.65 1.9 -5.65 2.0 -5.7 3.95 -5.7 4.1 -5.65 4.25 -5.65 4.45 -5.6 4.5 -5.55 4.75 -5.5 6.4 -5.5 6.55 -5.5 6.65 -5.55 6.8 -5.65 7.65 -5.75 7.8 -5.75 7.85 -5.8 7.95 -5.85 8.25 -5.95 8.5 -6.0 8.65 -6.0 8.75 -6.05 8.9 -6.15 9.15 -6.2 9.3 -6.25 9.4 -6.3 9.65 -6.4 9.8 -6.4 9.85 -6.45 11.05 -6.5 11.1 -6.55 11.15 -6.6 11.2 -6.7 11.25 -6.8 11.25 -6.9 11.25 -6.95 11.15 -7.05 11.1 -7.15 10.9 -7.25 9.75 -7.25 9.75 -7.2 9.6 -7.2 9.5 -7.15 9.4 -7.15 9.25 -7.1 8.65 -6.85 7.75 -6.65 7.6 -6.6 7.5 -6.55 6.55 -6.35 M4.0 -2.25 L4.2 -2.2 14.45 -2.1 14.6 -1.95 14.65 -1.9 14.65 -1.8 14.65 -1.75 14.65 -1.65 14.65 -1.55 14.65 -1.45 14.7 -1.35 14.7 -1.25 14.75 -1.15 14.75 -1.0 14.75 -0.6 14.75 -0.4 13.5 -0.4 13.5 -0.35 13.35 -0.35 13.2 -0.3 12.25 -0.2 11.35 -0.1 11.2 -0.05 10.65 0.05 9.5 0.15 9.35 0.15 9.2 0.2 8.85 0.3 8.4 0.35 8.25 0.4 8.1 0.45 7.75 0.55 7.25 0.6 7.1 0.65 6.95 0.7 6.6 0.8 6.0 0.85 5.85 0.9 5.7 0.95 0.55 1.0 0.45 0.95 0.25 0.85 -0.45 0.8 -1.05 0.7 -1.25 0.6 -2.55 0.6 -2.85 0.55 -6.9 0.55 -7.05 0.6 -12.5 0.5 -12.65 0.45 -12.85 0.35 -13.5 0.3 -13.75 0.3 -14.05 0.25 -14.15 0.2 -14.35 0.15 -14.8 0.05 -14.85 0.05 -15.0 0.0 -15.15 0.05 -15.25 0.1 -15.3 0.15 -15.35 0.25 -15.4 0.35 -15.4 0.45 -15.4 0.5 -15.4 0.6 -15.3 0.7 -15.25 0.8 -15.0 0.85 -14.4 0.9 -14.3 0.95 -14.1 1.0 -13.35 1.1 -12.9 1.15 -12.75 1.2 -12.5 1.25 -7.1 1.35 -6.8 1.3 -2.8 1.3 -2.5 1.35 -1.25 1.4 -0.85 1.5 -0.35 1.6 0.2 1.65 0.25 1.7 0.5 1.75 5.9 1.75 6.0 1.7 6.65 1.6 7.0 1.5 7.15 1.5 7.25 1.45 7.65 1.35 7.9 1.3 8.15 1.25 8.3 1.25 8.4 1.2 8.75 1.1 9.0 1.05 9.25 1.0 9.4 1.0 9.5 0.95 10.4 0.8 11.15 0.75 11.3 0.75 11.45 0.7 12.15 0.6 13.25 0.5 13.4 0.5 13.5 0.45 14.9 0.4 14.9 0.45 14.9 0.6 14.9 0.8 14.95 0.9 15.0 1.0 15.0 1.1 15.0 1.2 15.0 1.25 15.0 1.35 15.0 1.45 15.0 1.55 15.05 1.65 15.1 1.75 15.15 1.85 15.15 1.95 15.15 2.0 15.0 2.1 14.9 2.2 14.85 2.3 14.85 2.4 14.75 2.5 14.5 2.75 14.4 2.95 14.3 3.15 14.2 3.25 14.0 3.3 13.95 3.35 13.6 3.3 13.55 3.25 13.5 3.15 13.35 3.05 13.2 3.0 13.1 2.95 12.9 2.85 12.7 2.95 12.65 3.0 -3.4 2.95 -3.75 2.95 -15.5 2.9 -15.5 2.8 -15.6 2.7 -15.65 2.6 -15.85 2.5 -16.25 2.5 -16.3 2.45 -16.5 2.35 -17.2 2.3 -17.25 2.25 -17.25 2.15 -17.3 2.05 -17.35 1.95 -17.4 1.85 -17.4 1.75 -17.4 1.4 -17.4 1.0 -17.4 0.85 -17.35 0.75 -17.3 0.65 -17.25 0.55 -17.25 0.45 -17.25 0.25 -17.25 0.0 -17.25 -0.3 -17.25 -0.5 -17.15 -0.55 -17.15 -0.65 -17.15 -0.75 -17.15 -0.85 -17.15 -0.95 -17.1 -1.05 -17.05 -1.15 -17.0 -1.25 -17.0 -1.3 -17.0 -1.4 -16.95 -1.5 -16.95 -1.6 -16.9 -1.7 -16.8 -1.8 -16.75 -1.9 -16.75 -2.0 -16.7 -2.05 -16.65 -2.15 -16.55 -2.25 4.0 -2.25 M13.1 -9.45 L13.25 -9.25 13.4 -9.1 13.4 -9.05 13.4 -9.0 13.25 -9.0 13.25 -9.05 13.2 -9.15 13.15 -9.25 13.1 -9.35 13.1 -9.45 M13.5 -7.25 L13.45 -7.15 13.45 -7.05 13.4 -7.0 13.4 -6.9 13.4 -6.8 13.4 -6.7 13.4 -6.6 13.4 -6.5 13.4 -6.4 13.45 -6.3 13.45 -6.25 13.5 -6.15 13.5 -6.05 13.6 -5.95 13.65 -5.8 13.45 -6.0 12.75 -6.75 12.9 -6.8 12.95 -6.9 13.05 -7.0 13.2 -7.1 13.35 -7.2 13.5 -7.25 M12.75 -10.55 L12.75 -10.45 12.6 -10.65 12.1 -11.4 11.95 -11.65 12.25 -11.7 12.3 -11.6 12.35 -11.5 12.35 -11.4 12.45 -11.3 12.45 -11.25 12.5 -11.15 12.5 -11.05 12.55 -10.95 12.6 -10.85 12.6 -10.75 12.7 -10.65 12.75 -10.55 M14.1 -5.5 L13.95 -5.6 14.1 -5.5 M-7.25 -38.15 L-7.25 -38.3 -7.2 -38.25 -7.15 -38.15 -7.15 -38.05 -7.15 -37.95 -7.15 -37.85 -7.15 -37.75 -7.1 -37.65 -7.05 -37.55 -7.1 -37.5 -7.15 -37.4 -7.2 -37.3 -7.25 -37.25 -7.3 -37.15 -7.35 -37.05 -7.4 -36.95 -7.4 -37.05 -7.35 -37.15 -7.3 -37.25 -7.3 -37.3 -7.25 -37.4 -7.25 -37.8 -7.25 -38.15 M-18.45 -28.7 L-18.4 -28.8 -18.3 -28.85 -18.4 -28.2 -18.45 -28.25 -18.5 -28.35 -18.5 -28.45 -18.5 -28.55 -18.5 -28.65 -18.45 -28.7 M-7.4 -36.95 L-7.4 -36.85 -7.6 -36.6 -7.4 -36.95 M-7.9 -36.2 L-7.9 -36.1 -8.0 -36.0 -8.2 -35.8 -8.2 -35.75 -8.2 -35.9 -7.85 -36.25 -7.9 -36.2 M-8.15 -34.0 L-8.0 -34.0 -8.0 -33.8 -8.0 -33.75 -8.0 -33.65 -8.0 -33.6 -8.05 -33.7 -8.1 -33.8 -8.15 -33.9 -8.15 -34.0 M-7.85 -31.9 L-7.75 -31.9 -7.6 -31.9 -7.5 -32.0 -7.4 -31.9 -7.35 -31.85 -7.4 -31.8 -7.5 -31.75 -8.15 -31.15 -8.25 -31.05 -8.2 -31.15 -8.15 -31.25 -8.1 -31.35 -8.05 -31.45 -8.0 -31.55 -7.95 -31.65 -7.9 -31.75 -7.85 -31.9 M-9.4 -27.55 L-9.45 -27.75 -9.4 -27.65 -9.4 -27.55 M-8.75 -30.5 L-8.65 -30.55 -8.65 -30.5 -8.75 -30.4 -8.9 -30.35 -9.0 -30.3 -9.1 -30.2 -8.9 -30.4 -8.75 -30.5 M-9.25 -26.8 L-9.25 -26.75 -9.25 -26.45 -9.35 -26.75 -9.35 -26.8 -9.35 -27.0 -9.35 -27.1 -9.3 -27.0 -9.25 -26.9 -9.25 -26.8 M-9.25 -26.0 L-9.2 -25.9 -9.15 -25.6 -9.15 -25.3 -9.15 -25.15 -9.05 -25.05 -9.0 -24.95 -8.95 -24.95 -9.75 -24.15 -9.9 -24.0 -9.9 -24.05 -9.9 -24.15 -9.95 -24.25 -9.8 -24.4 -9.75 -24.5 -9.55 -24.65 -9.5 -24.75 -9.5 -24.85 -9.45 -24.95 -9.4 -25.05 -9.35 -25.15 -9.3 -25.25 -9.25 -25.7 -9.25 -26.0 M-13.15 -15.3 L-13.05 -15.2 -12.9 -15.15 -13.3 -15.15 -13.3 -15.2 -13.2 -15.4 -13.15 -15.3 M-10.8 -18.8 L-10.75 -19.0 -10.75 -18.5 -10.65 -18.4 -10.55 -18.3 -10.35 -18.25 -10.25 -18.25 -11.2 -17.25 -12.9 -15.9 -12.95 -15.9 -12.85 -16.2 -12.8 -16.3 -12.1 -16.7 Q-11.6 -17.15 -11.3 -17.75 L-11.25 -17.85 -11.25 -17.95 -11.2 -18.05 -11.15 -18.15 -11.0 -18.4 -10.9 -18.6 -10.8 -18.8 M-13.3 -14.05 L-13.3 -14.0 -13.25 -13.9 -13.25 -13.8 -13.25 -13.75 -13.25 -13.65 -13.2 -13.55 -13.15 -13.45 -13.15 -13.35 -13.15 -13.25 -13.15 -13.15 -13.05 -13.0 -13.05 -12.9 -13.0 -12.8 -13.0 -12.7 -13.0 -12.6 -13.0 -12.15 -13.0 -11.75 -13.0 -11.5 -12.9 -11.4 -12.8 -11.3 -12.65 -11.25 -13.2 -10.65 -13.4 -10.45 -13.4 -10.5 -13.4 -10.55 -13.4 -10.65 -13.35 -10.75 -13.3 -10.85 -13.3 -10.95 -13.25 -11.05 -13.2 -11.15 -13.15 -11.25 -13.1 -11.6 -13.1 -12.05 -13.1 -12.35 -13.1 -12.65 -13.15 -12.75 -13.15 -12.8 -13.2 -12.9 -13.25 -13.0 -13.25 -13.1 -13.25 -13.2 -13.25 -13.3 -13.25 -13.4 -13.25 -13.5 -13.25 -13.55 -13.25 -13.65 -13.3 -13.75 -13.3 -13.85 -13.35 -13.95 -13.4 -14.05 -13.3 -14.05 M-14.9 -9.1 L-14.7 -9.15 -14.75 -9.05 -15.05 -9.05 -14.9 -9.1 M-16.75 -3.55 L-16.75 -3.65 -16.75 -3.75 -16.7 -3.75 -16.6 -3.75 -16.5 -3.75 -16.6 -3.7 -16.65 -3.6 -16.75 -3.55 M-15.25 -6.85 L-15.25 -6.75 -15.25 -6.55 -15.3 -6.65 -15.25 -6.85" fill="#666666" fill-rule="evenodd" stroke="none"/>
    <path d="M7.2 -44.45 L7.35 -44.35 7.4 -44.25 7.45 -44.15 7.5 -44.05 7.5 -44.0 7.5 -43.9 7.5 -43.8 7.5 -43.7 7.55 -43.6 7.6 -43.5 7.65 -43.4 7.65 -43.25 7.7 -42.95 7.7 -42.75 7.75 -42.65 7.8 -42.55 7.85 -42.5 7.85 -42.4 7.9 -42.3 7.95 -42.2 7.95 -42.0 8.0 -41.65 8.1 -41.25 8.15 -41.15 8.15 -41.05 8.15 -41.0 8.15 -40.8 8.15 -40.75 8.55 -40.75 8.6 -40.65 8.6 -40.55 8.65 -40.5 8.65 -40.45 8.65 -40.25 8.65 -40.05 8.45 -40.0 8.25 -39.9 8.0 -39.75 7.9 -39.65 7.85 -39.55 7.75 -39.45 7.75 -39.35 7.7 -39.25 7.7 -39.15 7.6 -39.05 7.6 -39.0 7.55 -38.9 7.55 -38.8 7.4 -39.25 7.35 -38.6 7.35 -38.3 7.35 -38.25 7.3 -38.15 7.25 -38.05 7.25 -37.95 7.25 -37.85 7.25 -37.75 7.2 -37.55 7.2 -37.5 7.2 -37.45 7.25 -37.35 7.25 -37.2 7.3 -37.1 7.35 -37.0 7.35 -36.9 7.45 -36.8 Q7.85 -36.3 8.5 -36.0 L9.3 -35.75 9.65 -34.6 9.65 -34.5 9.75 -34.5 9.8 -34.05 9.6 -33.9 9.55 -33.8 9.45 -33.7 9.4 -33.65 9.35 -33.55 9.3 -33.45 9.3 -33.35 9.25 -33.25 9.25 -33.15 9.25 -33.05 9.2 -33.0 9.15 -32.9 9.1 -32.8 9.05 -32.7 9.0 -32.6 9.0 -32.5 8.95 -32.4 8.95 -32.35 8.9 -32.45 8.75 -33.3 8.75 -33.15 8.75 -33.0 8.75 -32.8 8.75 -32.7 8.7 -32.6 8.6 -32.3 8.55 -32.1 8.75 -32.1 8.7 -32.05 8.6 -31.95 8.6 -31.85 8.55 -31.75 8.5 -31.65 8.5 -31.55 8.5 -31.4 8.5 -31.3 8.45 -31.2 8.45 -31.1 8.5 -30.8 8.55 -30.7 8.6 -30.6 8.6 -30.55 8.65 -30.45 9.3 -29.7 9.35 -29.6 9.35 -29.5 9.35 -29.4 9.35 -29.3 9.35 -29.25 9.25 -29.15 9.2 -29.05 9.0 -29.0 9.45 -29.0 9.4 -29.1 9.4 -29.6 9.5 -29.55 Q9.9 -29.2 10.45 -29.1 L10.45 -29.0 10.5 -29.0 10.6 -28.55 10.1 -28.45 Q9.7 -28.35 9.55 -28.0 L9.25 -28.0 9.25 -27.8 9.25 -27.75 9.25 -27.65 9.2 -27.55 9.2 -27.5 9.1 -27.45 9.1 -27.35 9.05 -27.25 9.0 -27.15 9.0 -27.05 9.0 -27.0 9.0 -26.9 9.0 -26.8 9.0 -26.7 8.95 -26.7 8.9 -26.6 8.85 -26.5 8.85 -26.4 8.85 -26.3 8.85 -26.25 8.75 -26.15 8.75 -26.05 8.75 -25.95 8.75 -25.9 8.8 -25.9 8.75 -25.85 8.75 -25.75 8.7 -25.65 8.7 -25.55 8.65 -25.5 8.65 -25.2 8.65 -25.0 8.5 -25.0 8.35 -24.95 8.35 -24.7 8.35 -24.4 8.35 -24.25 8.4 -24.15 8.45 -24.05 8.5 -23.95 8.55 -23.85 8.6 -23.75 8.6 -23.65 8.65 -23.55 8.7 -23.5 8.75 -23.4 8.75 -23.3 9.3 -22.65 9.8 -21.8 9.95 -21.55 10.75 -21.55 10.75 -21.7 10.75 -21.8 11.65 -21.5 12.0 -21.55 12.0 -21.45 12.05 -21.35 12.1 -21.25 12.1 -21.15 12.15 -21.05 12.2 -21.0 12.25 -20.7 12.0 -20.75 11.45 -20.65 11.05 -20.35 10.85 -20.05 10.85 -20.0 10.8 -19.9 10.75 -19.8 10.75 -19.7 10.75 -18.55 10.75 -18.5 10.7 -18.4 10.65 -18.3 10.6 -18.2 10.55 -18.1 10.55 -18.0 10.45 -17.8 10.35 -17.65 10.2 -17.35 10.75 -16.75 10.75 -16.7 10.8 -16.6 10.85 -16.5 10.85 -16.4 10.95 -16.3 11.0 -16.25 11.05 -16.15 11.1 -16.05 11.15 -15.95 11.3 -15.75 Q11.4 -15.65 11.55 -15.6 L11.8 -15.4 11.85 -15.3 11.95 -15.2 12.0 -15.1 12.45 -14.85 12.8 -14.7 13.1 -14.6 13.15 -14.35 12.6 -14.25 12.2 -13.95 12.0 -13.65 12.0 -13.55 11.95 -13.5 11.95 -13.4 11.9 -13.3 11.9 -13.2 11.9 -13.1 11.9 -13.0 11.9 -12.9 11.9 -12.8 11.9 -12.75 11.9 -12.65 11.95 -12.6 11.9 -12.55 11.9 -12.45 11.9 -12.5 11.95 -12.5 11.95 -12.45 12.0 -12.35 12.0 -12.25 12.05 -12.15 12.05 -12.05 12.1 -12.0 12.15 -11.9 12.2 -11.8 12.25 -11.7 11.95 -11.65 12.1 -11.4 12.6 -10.65 12.75 -10.45 12.75 -10.4 12.75 -10.3 12.8 -10.2 12.85 -10.1 12.85 -10.0 12.95 -9.9 13.0 -9.8 13.0 -9.75 13.05 -9.65 13.1 -9.55 13.1 -9.45 13.1 -9.35 13.15 -9.25 13.2 -9.15 13.25 -9.05 13.25 -9.0 13.4 -9.0 13.4 -9.05 13.4 -9.1 Q14.25 -8.45 15.3 -8.95 L15.35 -8.95 15.5 -8.85 15.55 -8.75 15.6 -8.65 15.65 -8.55 15.65 -8.5 15.6 -8.4 15.6 -8.3 15.5 -8.2 15.4 -8.1 15.35 -8.05 14.65 -8.05 14.7 -8.0 14.65 -8.0 14.45 -7.95 14.2 -7.9 14.0 -7.8 13.75 -7.65 13.65 -7.55 13.6 -7.45 13.5 -7.35 13.5 -7.25 13.35 -7.2 13.2 -7.1 13.05 -7.0 12.95 -6.9 12.9 -6.8 12.75 -6.75 13.45 -6.0 13.65 -5.8 13.7 -5.75 13.95 -5.6 14.1 -5.5 14.3 -5.4 14.35 -5.4 Q14.6 -5.2 14.85 -5.15 L15.15 -5.05 15.2 -5.0 15.2 -4.9 15.25 -4.8 15.25 -4.7 15.25 -4.6 15.25 -4.5 15.25 -4.45 15.35 -4.3 15.35 -4.2 15.35 -4.15 15.4 -3.95 15.4 -3.55 15.4 -3.2 15.4 -3.1 15.45 -3.0 15.45 -2.9 15.5 -2.8 15.5 -2.75 15.5 -2.65 15.5 -2.55 15.5 -2.45 15.55 -2.35 15.6 -2.25 15.65 -2.05 15.65 -1.8 15.75 -1.65 16.1 -1.0 16.1 -0.9 16.1 -0.8 16.1 -0.75 16.15 -0.65 16.2 -0.55 16.25 -0.45 16.25 -0.25 16.25 0.0 16.25 0.05 16.35 0.1 16.35 0.2 16.35 0.3 16.3 0.4 16.25 0.5 16.25 0.6 16.3 0.7 16.35 0.75 16.35 0.85 16.35 0.95 16.35 1.05 16.35 1.15 16.35 1.25 16.35 1.35 16.35 1.45 16.35 1.5 16.25 1.6 16.25 1.7 16.25 1.8 16.2 1.9 16.2 2.05 16.25 2.15 16.25 2.25 16.25 2.35 16.25 2.45 16.25 2.5 16.25 2.6 16.3 2.7 16.35 2.8 16.35 2.9 16.4 3.0 16.4 3.1 16.45 3.2 16.5 3.25 16.55 3.35 16.6 3.45 16.6 3.55 16.65 3.65 16.65 3.75 16.7 3.85 16.75 3.95 16.85 4.0 16.9 4.1 16.95 4.2 16.95 4.3 17.0 4.4 16.95 4.5 16.95 4.6 16.9 4.7 16.8 4.75 16.75 4.85 16.7 4.85 16.5 4.9 16.4 4.9 16.15 4.85 16.0 4.75 15.95 4.65 15.9 4.55 15.85 4.45 15.75 4.35 15.75 4.25 15.7 4.2 15.7 4.1 15.65 4.0 15.65 3.9 15.6 3.8 15.5 3.7 15.5 3.6 15.5 3.5 15.45 3.35 15.4 3.15 15.35 3.05 15.25 3.15 14.9 3.7 14.75 3.75 14.7 3.85 14.6 3.95 14.2 4.05 13.5 4.1 13.25 4.05 13.15 4.0 -3.45 3.95 -3.6 3.95 -18.35 3.9 -18.6 3.85 -18.75 3.75 -18.8 3.65 -18.8 3.55 -18.85 3.45 -18.85 3.35 -18.85 3.25 -18.8 3.2 -18.75 3.15 -18.85 3.15 -19.1 3.1 -19.25 3.0 -19.3 2.9 -19.3 2.8 -19.35 2.7 -19.35 2.6 -19.35 2.45 -19.3 2.25 -19.3 2.15 -19.25 2.05 -19.15 1.95 -19.15 1.85 -19.1 1.75 -19.05 1.7 -19.05 1.6 -19.0 1.5 -19.0 1.4 -19.0 1.3 -19.0 1.2 -18.95 1.1 -18.9 0.95 -18.8 0.75 -18.75 0.65 -18.75 0.55 -18.7 0.45 -18.65 0.35 -18.6 0.25 -18.6 0.0 -18.5 -0.5 -18.35 -0.95 -18.35 -1.05 -18.35 -1.15 -18.3 -1.25 -18.3 -1.3 -18.25 -1.4 -18.25 -1.5 -18.2 -1.6 -18.15 -1.7 -18.1 -1.8 -18.1 -1.9 -18.1 -2.0 -18.05 -2.05 -18.0 -2.15 -18.0 -2.25 -18.0 -2.35 -18.0 -2.55 -18.0 -2.75 -17.95 -2.8 -17.9 -2.9 -17.85 -3.0 -17.85 -3.1 -17.85 -3.2 -17.85 -3.3 -17.85 -3.4 -17.85 -3.5 -17.8 -3.55 -17.8 -3.65 -17.75 -3.75 -17.7 -3.85 -17.65 -3.95 -17.6 -4.15 -17.6 -4.2 -17.55 -4.15 -17.15 -3.9 -16.7 -3.75 -16.75 -3.75 -16.75 -3.65 -16.75 -3.55 -16.65 -3.6 -16.6 -3.7 -16.5 -3.75 -16.05 -3.9 -15.7 -4.15 -15.5 -4.4 -15.5 -4.5 -15.45 -4.6 -15.4 -4.7 -15.4 -4.8 -15.35 -4.9 -15.3 -4.9 -15.3 -5.0 -15.25 -5.05 -15.2 -5.15 -15.15 -5.35 -15.1 -5.45 -15.05 -5.55 -15.05 -5.65 -15.0 -5.75 -15.0 -5.8 -15.0 -5.9 -15.0 -6.0 -15.05 -6.1 -15.05 -6.2 -15.1 -6.3 -15.15 -6.4 -15.2 -6.5 -15.25 -6.55 -15.25 -6.75 -15.25 -6.85 -15.25 -7.05 -15.25 -7.25 -15.25 -7.3 -15.25 -7.5 -15.25 -7.7 -15.2 -7.8 -15.1 -7.9 -15.0 -7.95 -14.85 -7.95 -14.85 -8.0 -14.65 -7.9 -14.6 -7.8 -14.5 -7.75 -14.45 -7.35 -14.5 -6.8 -14.5 -6.25 -14.5 -6.15 -14.55 -6.05 -14.55 -5.95 -14.65 -5.75 -14.65 -5.65 -14.65 -5.5 -14.55 -5.55 -14.5 -5.65 -14.3 -5.75 -14.25 -5.75 -14.3 -5.8 -14.4 -5.9 -14.45 -6.0 -14.5 -6.05 -14.45 -6.15 -14.45 -6.25 -14.4 -6.35 -14.3 -6.4 -14.25 -6.45 -14.1 -6.5 -13.95 -6.45 -13.9 -6.4 -13.75 -6.4 -13.55 -6.3 -13.5 -6.25 -12.6 -6.2 -12.05 -6.05 -11.95 -6.0 -11.75 -6.0 -11.6 -5.95 -11.5 -5.9 -10.25 -5.9 -10.05 -5.8 -10.0 -5.75 -9.1 -5.7 -8.4 -5.55 -8.3 -5.5 -8.1 -5.45 -7.85 -5.45 -7.25 -5.4 -7.05 -5.3 -6.95 -5.25 -5.45 -5.3 -5.25 -5.35 -3.8 -5.55 -3.65 -5.6 -1.45 -5.8 -1.25 -5.85 -0.4 -5.95 -0.2 -6.05 0.75 -6.25 1.1 -6.3 1.25 -6.35 1.85 -6.45 4.7 -6.3 4.8 -6.25 6.35 -6.3 6.55 -6.35 7.5 -6.55 7.6 -6.6 7.75 -6.65 8.65 -6.85 9.25 -7.1 9.4 -7.15 9.5 -7.15 9.6 -7.2 9.75 -7.2 9.75 -7.25 10.9 -7.25 11.1 -7.15 11.15 -7.05 11.25 -6.95 11.25 -6.9 11.25 -6.8 11.2 -6.7 11.15 -6.6 11.1 -6.55 11.05 -6.5 9.85 -6.45 9.8 -6.4 9.65 -6.4 9.4 -6.3 9.3 -6.25 9.15 -6.2 8.9 -6.15 8.75 -6.05 8.65 -6.0 8.5 -6.0 8.25 -5.95 7.95 -5.85 7.85 -5.8 7.8 -5.75 7.65 -5.75 6.8 -5.65 6.65 -5.55 6.55 -5.5 6.4 -5.5 4.75 -5.5 4.5 -5.55 4.45 -5.6 4.25 -5.65 4.1 -5.65 3.95 -5.7 2.0 -5.7 1.9 -5.65 1.75 -5.65 1.4 -5.55 1.3 -5.5 1.15 -5.5 -1.2 -5.05 -1.35 -5.05 -3.55 -4.8 -3.7 -4.75 -3.85 -4.75 -5.2 -4.55 -5.35 -4.55 -7.0 -4.5 -7.25 -4.55 -7.3 -4.6 -7.85 -4.65 -8.35 -4.75 -8.55 -4.8 -8.65 -4.85 -8.85 -4.9 -10.1 -5.0 -10.3 -5.05 -10.4 -5.1 -11.5 -5.15 -12.25 -5.3 -12.3 -5.35 -12.5 -5.4 -12.65 -5.4 -12.75 -5.45 -13.6 -5.5 -13.65 -5.5 -13.65 -5.45 -13.7 -5.35 -13.8 -5.15 -13.85 -5.05 -13.95 -5.0 -14.15 -4.95 -14.25 -4.85 -14.4 -4.75 -14.5 -4.65 -14.55 -4.55 -14.6 -4.5 -14.75 -4.4 -14.9 -4.3 -15.1 -4.2 -15.2 -4.1 -15.25 -4.0 -15.3 -3.9 -15.35 -3.8 -15.5 -3.75 -15.6 -3.65 -15.75 -3.45 -15.9 -3.25 -15.95 -3.15 -16.0 -3.1 -16.0 -3.05 -15.85 -3.25 4.0 -3.2 4.5 -3.15 13.95 -3.1 14.0 -3.15 14.1 -3.2 14.25 -3.2 14.25 -3.25 14.4 -3.15 14.4 -3.3 14.4 -3.7 14.4 -3.8 14.35 -3.9 14.3 -4.0 14.25 -4.05 14.25 -4.15 14.25 -4.25 14.25 -4.35 13.05 -5.35 12.45 -5.9 12.3 -6.0 12.2 -6.1 12.1 -6.2 12.1 -6.3 12.0 -6.4 12.0 -6.5 12.0 -6.55 12.0 -6.75 12.0 -6.95 12.0 -7.05 12.05 -7.15 12.1 -7.2 12.2 -7.3 12.3 -7.4 12.35 -7.5 12.5 -7.6 12.65 -7.7 12.75 -7.8 12.85 -7.85 13.0 -7.9 13.2 -8.0 13.25 -8.05 -14.6 -8.0 -14.65 -8.1 -14.8 -8.2 -15.0 -8.25 -15.25 -8.2 -15.4 -8.1 -15.45 -8.0 -15.45 -8.05 -15.6 -8.35 -16.1 -8.7 -16.15 -8.7 -16.15 -8.75 -16.15 -8.85 -16.1 -8.95 -16.1 -9.05 -16.05 -9.05 -16.05 -9.1 -16.05 -9.15 -16.0 -9.2 -15.8 -9.15 -15.25 -9.0 -15.05 -9.05 -14.75 -9.05 -14.7 -9.15 -14.55 -9.2 -14.25 -9.35 -14.15 -9.45 -13.75 -9.9 -13.55 -10.2 -13.4 -10.45 -13.2 -10.65 -12.65 -11.25 -12.8 -11.3 -12.9 -11.4 -13.0 -11.5 -13.0 -11.75 -13.0 -12.15 -13.0 -12.6 -13.0 -12.7 -13.0 -12.8 -13.05 -12.9 -13.05 -13.0 -13.15 -13.15 -13.15 -13.25 -13.15 -13.35 -13.15 -13.45 -13.2 -13.55 -13.25 -13.65 -13.25 -13.75 -13.25 -13.8 -13.25 -13.9 -13.3 -14.0 -13.3 -14.05 -13.4 -14.05 -13.4 -14.15 -13.45 -14.25 -13.5 -14.3 -13.55 -14.4 -13.6 -14.5 -13.6 -14.6 -13.65 -14.7 -13.65 -14.8 -13.65 -14.9 -13.7 -15.0 -13.85 -15.25 -13.9 -15.3 -13.85 -15.75 -13.75 -16.15 -13.65 -16.35 -13.25 -16.3 -12.8 -16.3 -12.85 -16.2 -12.95 -15.9 -12.9 -15.9 -11.2 -17.25 -10.25 -18.25 -10.35 -18.25 -10.55 -18.3 -10.65 -18.4 -10.75 -18.5 -10.75 -19.0 -10.7 -19.05 -10.65 -19.15 -10.65 -19.25 -10.6 -19.35 -10.6 -19.45 -10.6 -19.55 -10.5 -19.8 -10.5 -20.5 -10.5 -20.95 -10.6 -21.25 -10.65 -21.3 -10.7 -21.4 -10.75 -21.5 -10.75 -21.6 -10.9 -21.8 -10.95 -21.85 -10.75 -21.85 -10.75 -21.9 -10.65 -21.95 -10.5 -21.95 -10.5 -22.0 -10.3 -21.9 -10.25 -21.85 -4.35 -21.8 -2.45 -21.7 -0.3 -21.55 -0.05 -21.55 9.05 -21.55 8.95 -21.75 8.9 -21.8 8.85 -21.9 8.85 -22.0 8.6 -22.3 8.3 -22.65 8.1 -22.95 8.05 -23.05 8.0 -23.15 8.0 -23.25 7.95 -23.3 7.9 -23.4 7.85 -23.5 7.85 -23.6 7.75 -23.7 7.7 -23.8 7.6 -23.9 7.6 -24.25 7.6 -24.75 7.6 -24.8 7.4 -24.8 7.3 -24.75 3.5 -24.7 3.4 -24.65 2.35 -24.6 2.15 -24.55 1.9 -24.5 -0.85 -24.6 -7.35 -24.5 -7.6 -24.55 -7.85 -24.65 -8.05 -24.7 -8.1 -24.7 -8.85 -23.95 -9.95 -22.85 -10.55 -22.3 -10.75 -22.25 -10.85 -22.25 -10.95 -22.25 -10.7 -22.45 -10.1 -23.0 -9.9 -23.4 -9.9 -23.5 -9.9 -23.55 -9.85 -23.65 -9.85 -23.75 -9.85 -23.85 -9.9 -23.95 -9.9 -24.0 -9.75 -24.15 -8.95 -24.95 -9.0 -24.95 -9.05 -25.05 -9.15 -25.15 -9.15 -25.3 -9.15 -25.6 -9.2 -25.9 -9.25 -26.0 -9.25 -26.15 -9.25 -26.45 -9.25 -26.75 -9.25 -26.8 -9.25 -26.9 -9.3 -27.0 -9.35 -27.1 -9.35 -27.2 -9.35 -27.3 -9.35 -27.4 -9.35 -27.5 -9.4 -27.55 -9.4 -27.65 -9.45 -27.75 -9.5 -27.95 -9.55 -28.05 -9.6 -28.25 -9.6 -28.3 -9.85 -28.7 -10.35 -29.0 -9.85 -29.2 -9.3 -29.8 -9.45 -29.2 -7.9 -29.15 -5.15 -29.05 9.0 -29.0 8.75 -29.05 8.7 -29.15 8.6 -29.25 8.35 -29.7 7.85 -30.35 7.6 -30.75 7.6 -30.8 7.55 -30.9 7.55 -30.95 7.4 -30.9 7.25 -30.9 6.75 -30.8 6.65 -30.75 6.15 -30.65 6.0 -30.65 4.5 -30.55 4.4 -30.5 3.25 -30.5 3.0 -30.55 2.85 -30.6 1.75 -30.8 1.55 -30.9 -1.25 -31.5 -6.65 -31.65 -6.8 -31.4 -7.5 -30.75 -8.05 -30.1 -8.2 -29.9 -8.25 -29.8 -8.3 -29.7 -8.35 -29.6 -8.4 -29.55 -8.45 -29.5 -8.6 -29.5 -8.75 -29.5 -9.0 -29.55 -9.05 -29.65 -9.15 -29.75 -9.15 -29.8 -9.15 -29.9 -9.15 -30.0 -9.15 -30.1 -9.1 -30.2 -9.0 -30.3 -8.9 -30.35 -8.75 -30.4 -8.65 -30.5 -8.65 -30.55 -8.6 -30.6 -8.5 -30.7 -8.4 -30.8 -8.35 -30.9 -8.3 -31.0 -8.25 -31.05 -8.15 -31.15 -7.5 -31.75 -7.4 -31.8 -7.35 -31.85 -7.4 -31.9 -7.5 -32.0 -7.6 -31.9 -7.75 -31.9 -7.85 -31.9 -7.85 -32.1 -7.85 -32.55 -7.85 -32.85 -7.85 -33.15 -7.9 -33.25 -7.9 -33.3 -7.95 -33.4 -8.0 -33.5 -8.0 -33.65 -8.0 -33.75 -8.0 -33.8 -8.0 -34.0 -8.15 -34.0 -8.2 -34.05 -8.25 -34.15 -8.25 -34.25 -8.25 -34.35 -8.3 -34.45 -8.3 -34.55 -8.3 -34.65 -8.35 -34.75 -8.55 -35.0 -9.0 -35.35 -9.1 -35.4 Q-8.65 -35.5 -8.2 -35.9 L-8.2 -35.75 -8.2 -35.8 -8.0 -36.0 -7.9 -36.1 -7.9 -36.2 -7.85 -36.25 -7.7 -36.45 -7.6 -36.6 -7.4 -36.85 -7.4 -36.95 -7.35 -37.05 -7.3 -37.15 -7.25 -37.25 -7.2 -37.3 -7.15 -37.4 -7.1 -37.5 -7.05 -37.55 -7.1 -37.65 -7.15 -37.75 -7.15 -37.85 -7.15 -37.95 -7.15 -38.05 -7.15 -38.15 -7.2 -38.25 -7.25 -38.3 -7.25 -38.4 -7.25 -38.5 -7.25 -38.7 -7.25 -38.9 -7.25 -38.95 -7.35 -39.05 -7.4 -39.15 -7.4 -39.25 -7.4 -39.35 -7.4 -39.45 -7.35 -39.55 -7.25 -39.65 -7.15 -39.7 -7.0 -39.7 -7.0 -39.75 -6.8 -39.65 -6.75 -39.55 -6.65 -39.5 -6.55 -39.3 -6.5 -39.2 -6.5 -39.1 -6.5 -38.9 -6.5 -38.75 -6.5 -38.55 -6.45 -38.45 -6.4 -38.35 -6.4 -38.15 -6.4 -38.0 -6.35 -37.9 -6.3 -37.8 -6.3 -37.85 -6.25 -37.9 -6.15 -37.95 -6.0 -37.95 -6.0 -38.0 -0.6 -37.9 0.2 -37.8 0.3 -37.75 0.5 -37.7 0.75 -37.7 1.25 -37.6 1.45 -37.55 1.55 -37.5 1.9 -37.45 2.05 -37.45 2.15 -37.4 3.4 -37.4 3.6 -37.3 3.7 -37.25 4.9 -37.2 5.1 -37.15 6.0 -37.15 6.2 -37.05 6.25 -36.95 6.35 -36.9 6.35 -36.8 6.35 -36.7 6.3 -36.6 6.25 -36.5 6.15 -36.4 Q5.5 -36.25 4.85 -36.4 L4.75 -36.45 3.5 -36.5 3.3 -36.55 3.2 -36.6 2.15 -36.7 1.5 -36.75 1.25 -36.8 1.2 -36.85 0.75 -36.9 0.5 -36.95 0.25 -37.0 0.0 -37.05 -0.05 -37.1 -0.25 -37.15 -0.4 -37.15 -0.55 -37.2 -5.8 -37.2 -5.85 -37.15 -6.0 -37.15 -6.25 -37.2 -6.3 -37.3 -6.3 -37.25 -6.85 -36.45 -7.5 -35.5 -7.8 -35.1 -4.35 -34.85 -2.65 -34.7 1.55 -34.55 8.25 -34.5 8.25 -34.55 8.5 -34.6 8.5 -34.65 8.6 -34.6 8.6 -34.65 8.5 -34.7 8.25 -35.0 8.1 -35.3 7.4 -36.0 6.75 -36.7 6.5 -37.05 6.4 -37.15 6.35 -37.25 6.35 -37.35 6.35 -37.45 6.35 -37.55 6.4 -37.65 6.45 -37.7 6.5 -37.8 6.5 -37.9 6.55 -38.0 6.6 -38.1 6.65 -38.55 6.6 -39.25 6.6 -39.7 6.65 -39.75 0.4 -39.85 -1.0 -39.95 -1.25 -39.95 -7.45 -39.95 -7.55 -39.4 -7.55 -39.2 -7.8 -39.5 -8.4 -40.05 -8.5 -40.1 -8.5 -40.15 -8.45 -40.25 -8.45 -40.3 -8.4 -40.4 -8.4 -40.5 -8.35 -40.6 -8.35 -40.95 -8.25 -40.95 -8.1 -41.45 -8.05 -42.1 -7.85 -42.95 -7.75 -43.7 -7.75 -43.8 -7.7 -43.9 -7.65 -44.0 -7.65 -44.05 -7.6 -44.15 -7.6 -44.25 -7.6 -44.35 -7.55 -44.45 -7.55 -44.55 -7.5 -44.65 -7.5 -44.75 -7.45 -44.8 -7.4 -44.9 -7.2 -45.1 -7.1 -45.2 -6.85 -45.25 -6.65 -45.2 -6.5 -45.1 -6.45 -45.0 -6.4 -44.9 -6.35 -44.8 -6.35 -44.75 -6.4 -44.65 -6.4 -44.55 -6.5 -44.45 -6.55 -44.35 -6.55 -44.25 -6.6 -44.15 -6.6 -44.05 -6.6 -44.0 -6.65 -43.9 -6.65 -43.8 -6.7 -43.7 -6.75 -43.6 -6.75 -43.5 -6.8 -42.85 -7.05 -42.0 -7.1 -41.25 -7.2 -40.95 -1.5 -40.95 -0.25 -40.85 0.4 -40.8 7.15 -40.75 7.15 -41.0 7.1 -41.2 6.95 -41.55 6.9 -41.95 6.9 -42.15 6.85 -42.25 6.75 -42.4 6.7 -42.7 6.65 -43.05 6.65 -43.15 6.6 -43.25 6.55 -43.35 6.5 -43.45 6.5 -43.55 6.5 -43.75 6.5 -43.9 6.5 -44.1 6.55 -44.2 6.6 -44.3 6.65 -44.4 6.75 -44.45 6.8 -44.45 7.0 -44.5 7.2 -44.45 M6.1 -31.45 L6.45 -31.55 6.6 -31.6 6.75 -31.6 7.2 -31.65 7.6 -31.85 7.75 -31.9 7.75 -31.95 7.8 -32.3 7.9 -32.7 7.95 -32.8 8.0 -32.9 8.0 -33.05 8.0 -33.35 8.0 -33.4 -4.35 -33.8 -6.0 -33.9 -7.25 -33.95 -7.25 -33.65 -7.25 -33.5 -7.25 -33.4 -7.3 -33.3 -7.3 -33.2 -7.4 -33.0 -7.4 -32.8 -7.4 -32.55 -7.4 -32.5 -7.35 -32.55 -7.25 -32.6 -7.1 -32.6 -7.1 -32.65 -6.9 -32.55 -6.75 -32.85 -6.5 -33.1 -6.35 -33.1 -6.35 -33.15 -6.15 -33.05 -6.1 -32.95 -6.0 -32.9 -6.0 -32.8 -6.1 -32.45 -1.35 -32.35 -1.25 -32.35 Q0.55 -32.2 2.15 -31.45 L3.25 -31.25 4.2 -31.3 4.35 -31.35 6.0 -31.4 6.1 -31.45 M8.35 -28.0 L-4.75 -28.05 -7.7 -28.2 -7.9 -28.2 -8.8 -28.2 -8.7 -28.0 -8.65 -27.9 -8.65 -27.8 -8.65 -27.75 -8.65 -27.55 -8.6 -27.35 -8.55 -27.25 -8.5 -27.15 -8.5 -27.0 -8.5 -26.7 -8.5 -26.3 -8.5 -26.15 -8.45 -26.05 -8.4 -25.95 -8.4 -25.85 -8.4 -25.75 -8.4 -25.65 -8.3 -25.75 -8.15 -25.85 -8.0 -25.95 -7.95 -26.05 -7.9 -26.15 -7.85 -26.2 -7.8 -26.3 -7.75 -26.4 -7.5 -26.45 -7.5 -26.5 -7.3 -26.4 -7.25 -26.3 -7.15 -26.2 -7.15 -26.15 -7.15 -25.95 -7.3 -25.65 -7.45 -25.4 -7.55 -25.3 -7.35 -25.25 -0.4 -25.25 1.95 -25.25 7.0 -25.55 7.1 -25.6 7.25 -25.6 7.75 -25.65 7.85 -25.75 7.85 -25.8 7.85 -25.9 7.9 -26.0 7.95 -26.1 8.0 -26.2 8.0 -26.3 8.0 -26.4 8.1 -26.5 8.1 -26.55 8.1 -26.65 8.15 -26.75 8.2 -26.85 8.25 -26.95 8.25 -27.05 8.3 -27.15 8.35 -27.25 8.35 -27.3 8.35 -27.4 8.35 -27.5 8.35 -27.6 8.4 -27.7 8.45 -27.8 8.4 -27.9 8.35 -28.0 M10.35 -20.2 L10.3 -20.1 10.25 -20.0 10.15 -19.9 10.0 -19.9 9.75 -19.95 9.7 -20.05 9.6 -20.15 9.6 -20.25 9.55 -20.3 9.55 -20.4 9.5 -20.5 9.45 -20.55 0.25 -20.5 -0.05 -20.55 -10.05 -20.85 -10.05 -20.8 -10.0 -20.7 -10.0 -20.05 -10.0 -19.3 -10.0 -18.65 -10.0 -18.55 -10.0 -18.5 -9.9 -18.6 -9.75 -18.6 -9.75 -18.65 -9.55 -18.55 -9.5 -18.45 -9.4 -18.4 -9.4 -18.3 -9.4 -18.2 -9.45 -18.1 -9.45 -18.05 -9.4 -18.05 -9.3 -18.0 -1.35 -17.8 0.0 -17.7 6.1 -16.95 7.0 -16.9 7.2 -16.8 7.4 -16.75 7.6 -16.8 7.75 -16.85 7.9 -16.9 8.05 -16.95 8.2 -17.05 8.25 -17.15 8.35 -17.2 8.45 -17.3 8.5 -17.4 8.75 -17.5 9.15 -17.45 9.3 -17.45 9.35 -17.4 9.35 -17.45 9.4 -17.55 9.55 -17.75 9.65 -17.9 9.8 -18.2 9.8 -18.3 9.85 -18.4 9.85 -18.45 9.95 -18.55 10.0 -18.65 10.0 -18.75 10.05 -18.85 10.1 -18.95 10.1 -19.05 10.1 -19.15 10.15 -19.2 10.2 -19.3 10.25 -19.4 10.25 -19.5 10.25 -19.6 10.25 -19.7 10.3 -19.8 10.35 -19.9 10.35 -20.0 10.35 -20.05 10.35 -20.15 10.35 -20.2 M11.35 -13.1 L11.35 -13.2 11.4 -13.3 11.5 -13.4 11.5 -13.5 11.55 -13.55 11.6 -13.75 -3.1 -13.75 -9.45 -13.9 -12.25 -14.05 -12.5 -14.05 -12.5 -14.0 -12.5 -13.9 -12.45 -13.8 -12.4 -13.7 -12.4 -13.6 -12.4 -13.5 -12.4 -13.4 -12.4 -13.3 -12.35 -13.25 -12.3 -13.15 -12.3 -13.05 -12.25 -12.95 -12.25 -12.55 -12.25 -12.1 -12.25 -11.7 -12.2 -11.8 -12.1 -11.9 -12.0 -11.95 -11.85 -11.95 -11.85 -12.0 -11.65 -11.9 -11.6 -11.8 -11.5 -11.7 -11.5 -11.65 -11.5 -11.55 -11.5 -11.45 -11.5 -11.4 -6.25 -11.95 Q-2.9 -12.55 0.4 -11.95 L3.75 -11.65 3.95 -11.55 4.15 -11.5 8.1 -11.55 8.25 -11.6 8.4 -11.65 8.7 -11.65 8.85 -11.75 9.0 -11.8 9.25 -11.9 9.6 -11.95 10.15 -12.1 11.0 -12.25 11.0 -12.35 11.05 -12.45 11.1 -12.55 11.1 -12.65 11.1 -12.75 11.2 -12.8 11.25 -12.9 11.3 -13.0 11.35 -13.1 M10.85 -15.65 L9.9 -16.55 9.85 -16.6 9.15 -16.65 8.95 -16.65 8.9 -16.55 8.75 -16.5 8.6 -16.4 8.35 -16.2 8.15 -16.15 7.9 -16.05 7.8 -16.0 7.65 -16.0 7.4 -16.0 7.15 -16.05 7.0 -16.1 5.25 -16.25 5.0 -16.3 4.75 -16.35 2.0 -16.6 0.6 -16.85 -1.6 -17.1 -6.95 -17.15 -9.25 -17.2 -10.0 -17.3 -10.0 -17.35 -10.45 -16.9 -11.7 -15.85 -12.0 -15.55 -12.2 -15.5 -12.25 -15.4 -12.35 -15.3 -12.4 -15.2 -12.6 -15.15 -12.85 -15.15 -12.2 -15.1 -9.65 -14.95 -3.5 -14.8 11.7 -14.75 10.85 -15.65 M9.8 -11.25 L9.5 -11.15 9.25 -11.05 9.15 -11.0 9.0 -11.0 8.95 -10.95 8.65 -10.9 8.4 -10.8 8.3 -10.75 4.15 -10.75 3.9 -10.8 3.75 -10.85 -0.55 -11.2 -4.45 -11.4 -8.15 -10.95 -9.2 -10.8 -12.0 -10.65 -12.1 -10.65 -12.6 -10.25 -13.2 -9.65 -13.35 -9.55 -13.45 -9.5 -13.65 -9.3 -13.85 -9.05 12.45 -9.0 12.4 -9.05 12.35 -9.15 12.35 -9.25 12.35 -9.35 12.35 -9.45 12.3 -9.55 12.25 -9.65 12.25 -9.75 12.2 -9.8 12.15 -9.9 12.1 -10.0 12.1 -10.1 12.0 -10.2 11.95 -10.3 11.85 -10.4 11.75 -10.5 11.75 -10.55 11.7 -10.65 11.7 -10.75 11.6 -10.85 11.5 -10.95 11.5 -11.05 11.45 -11.15 11.35 -11.25 11.25 -11.3 11.15 -11.4 11.15 -11.45 10.9 -11.4 10.05 -11.3 9.8 -11.25 M4.0 -2.25 L-16.55 -2.25 -16.65 -2.15 -16.7 -2.05 -16.75 -2.0 -16.75 -1.9 -16.8 -1.8 -16.9 -1.7 -16.95 -1.6 -16.95 -1.5 -17.0 -1.4 -17.0 -1.3 -17.0 -1.25 -17.05 -1.15 -17.1 -1.05 -17.15 -0.95 -17.15 -0.85 -17.15 -0.75 -17.15 -0.65 -17.15 -0.55 -17.25 -0.5 -17.25 -0.3 -17.25 0.0 -17.25 0.25 -17.25 0.45 -17.25 0.55 -17.3 0.65 -17.35 0.75 -17.4 0.85 -17.4 1.0 -17.4 1.4 -17.4 1.75 -17.4 1.85 -17.35 1.95 -17.3 2.05 -17.25 2.15 -17.25 2.25 -17.2 2.3 -16.5 2.35 -16.3 2.45 -16.25 2.5 -15.85 2.5 -15.65 2.6 -15.6 2.7 -15.5 2.8 -15.5 2.9 -3.75 2.95 -3.4 2.95 12.65 3.0 12.7 2.95 12.9 2.85 13.1 2.95 13.2 3.0 13.35 3.05 13.5 3.15 13.55 3.25 13.6 3.3 13.95 3.35 14.0 3.3 14.2 3.25 14.3 3.15 14.4 2.95 14.5 2.75 14.75 2.5 14.85 2.4 14.85 2.3 14.9 2.2 15.0 2.1 15.15 2.0 15.15 1.95 15.15 1.85 15.1 1.75 15.05 1.65 15.0 1.55 15.0 1.45 15.0 1.35 15.0 1.25 15.0 1.2 15.0 1.1 15.0 1.0 14.95 0.9 14.9 0.8 14.9 0.6 14.9 0.45 14.9 0.4 13.5 0.45 13.4 0.5 13.25 0.5 12.15 0.6 11.45 0.7 11.3 0.75 11.15 0.75 10.4 0.8 9.5 0.95 9.4 1.0 9.25 1.0 9.0 1.05 8.75 1.1 8.4 1.2 8.3 1.25 8.15 1.25 7.9 1.3 7.65 1.35 7.25 1.45 7.15 1.5 7.0 1.5 6.65 1.6 6.0 1.7 5.9 1.75 0.5 1.75 0.25 1.7 0.2 1.65 -0.35 1.6 -0.85 1.5 -1.25 1.4 -2.5 1.35 -2.8 1.3 -6.8 1.3 -7.1 1.35 -12.5 1.25 -12.75 1.2 -12.9 1.15 -13.35 1.1 -14.1 1.0 -14.3 0.95 -14.4 0.9 -15.0 0.85 -15.25 0.8 -15.3 0.7 -15.4 0.6 -15.4 0.5 -15.4 0.45 -15.4 0.35 -15.35 0.25 -15.3 0.15 -15.25 0.1 -15.15 0.05 -15.0 0.0 -14.85 0.05 -14.8 0.05 -14.35 0.15 -14.15 0.2 -14.05 0.25 -13.75 0.3 -13.5 0.3 -12.85 0.35 -12.65 0.45 -12.5 0.5 -7.05 0.6 -6.9 0.55 -2.85 0.55 -2.55 0.6 -1.25 0.6 -1.05 0.7 -0.45 0.8 0.25 0.85 0.45 0.95 0.55 1.0 5.7 0.95 5.85 0.9 6.0 0.85 6.6 0.8 6.95 0.7 7.1 0.65 7.25 0.6 7.75 0.55 8.1 0.45 8.25 0.4 8.4 0.35 8.85 0.3 9.2 0.2 9.35 0.15 9.5 0.15 10.65 0.05 11.2 -0.05 11.35 -0.1 12.25 -0.2 13.2 -0.3 13.35 -0.35 13.5 -0.35 13.5 -0.4 14.75 -0.4 14.75 -0.6 14.75 -1.0 14.75 -1.15 14.7 -1.25 14.7 -1.35 14.65 -1.45 14.65 -1.55 14.65 -1.65 14.65 -1.75 14.65 -1.8 14.65 -1.9 14.6 -1.95 14.45 -2.1 4.2 -2.2 4.0 -2.25 M-13.2 -15.4 L-13.3 -15.2 -13.3 -15.15 -12.9 -15.15 -13.05 -15.2 -13.15 -15.3 -13.2 -15.4 M-18.15 2.25 L-18.15 2.35 -18.2 2.45 -18.25 2.5 -18.3 2.6 -18.3 2.7 -18.4 2.8 -18.4 2.85 -18.45 2.9 -18.45 2.95 -18.35 2.9 -17.85 2.9 -17.9 2.85 -18.0 2.75 -18.0 2.7 -18.0 2.6 -18.05 2.5 -18.1 2.4 -18.1 2.25 -18.15 2.25" fill="#000000" fill-rule="evenodd" stroke="none"/>
    <path d="M23.2 3.35 L-24.6 3.35 -24.6 -50.45 23.2 -50.45 23.2 3.35" fill="url(#gradient0)" fill-rule="evenodd" stroke="none"/>
  </g>
  <defs>
    <linearGradient gradientTransform="matrix(0.0, 0.0328, -0.0292, 0.0, -0.7, -23.55)" gradientUnits="userSpaceOnUse" id="gradient0" spreadMethod="pad" x1="-819.2" x2="819.2">
      <stop offset="0.08235294117647059" stop-color="#000000"/>
      <stop offset="1.0" stop-color="#000000" stop-opacity="0.0"/>
    </linearGradient>
  </defs>
</svg>
