<?xml version="1.0" encoding="UTF-8" standalone="no"?>
<svg xmlns:ffdec="https://www.free-decompiler.com/flash" xmlns:xlink="http://www.w3.org/1999/xlink" ffdec:objectType="shape" height="52.1px" width="40.6px" xmlns="http://www.w3.org/2000/svg">
  <g transform="matrix(1.0, 0.0, 0.0, 1.0, 21.3, 26.5)">
    <path d="M18.05 -24.15 L18.05 -25.6 18.05 -25.7 16.1 -25.6 16.1 -25.5 13.95 -25.4 13.75 -25.5 13.55 -25.55 13.35 -25.6 12.5 -25.6 12.5 -25.55 12.3 -25.55 12.05 -25.5 11.85 -25.4 11.75 -25.3 11.15 -25.3 10.55 -25.3 1.2 -25.25 0.95 -25.3 0.7 -25.35 -5.95 -25.55 -18.45 -25.5 -18.4 -19.55 -18.45 -14.8 -18.55 -12.0 -18.5 -11.9 -18.45 -11.8 -18.45 -11.75 -18.45 -11.65 -18.45 -11.55 -18.45 -11.45 -18.45 -7.0 -18.45 -0.7 -18.45 5.6 -18.45 7.1 -18.55 7.95 -18.55 8.0 -19.0 10.4 -19.55 13.0 -19.6 14.05 -19.65 15.2 -19.65 15.85 -19.6 16.0 -19.55 16.3 -19.55 16.45 -19.55 16.85 -19.55 16.95 -19.55 17.0 -19.6 17.1 -19.65 17.2 -19.7 17.3 -19.7 17.4 -19.7 17.5 -19.7 17.6 -19.7 17.7 -19.75 17.75 -19.75 17.85 -19.8 17.95 -19.85 18.15 -19.95 18.35 -20.05 18.45 -20.05 18.5 -20.05 18.6 -20.05 18.7 -20.05 18.8 -20.1 18.9 -20.15 19.0 -20.2 19.1 -20.2 19.75 -20.2 20.45 -20.25 20.45 -20.35 20.5 -20.45 20.6 -20.5 20.7 -20.55 20.8 -20.6 20.9 -20.6 21.0 -20.65 21.1 -20.65 21.55 -20.65 22.0 -20.65 22.75 -20.65 23.25 -20.6 23.35 -20.6 23.45 -20.55 23.5 -20.55 23.6 -20.55 23.7 -20.55 23.8 -20.55 23.9 -20.5 24.0 -20.45 24.1 -20.4 24.2 -20.35 24.25 -20.25 24.35 -20.15 24.45 -19.95 24.55 -19.75 24.6 -19.55 24.65 -19.35 24.6 -19.2 24.6 -19.15 24.55 -18.85 24.35 -18.75 24.45 -18.65 24.55 -18.55 24.6 -18.45 24.7 -18.25 24.8 -18.2 24.85 -18.45 24.95 -18.55 25.0 -18.6 25.0 -18.8 25.1 -18.9 25.2 -19.1 25.25 -19.15 25.3 -19.25 25.35 -19.45 25.4 -19.55 25.5 -19.65 25.6 -19.8 25.6 -19.9 25.6 -20.1 25.55 -20.2 25.45 -20.25 25.35 -20.3 25.25 -20.25 25.2 -20.2 25.1 -20.15 25.0 -20.1 24.95 -20.25 24.85 -20.4 24.75 -20.45 24.8 -20.65 24.85 -20.85 24.8 -20.95 24.7 -21.05 24.6 -21.05 24.2 -21.1 24.1 -21.2 24.0 -21.25 23.95 -21.25 23.85 -21.3 23.75 -21.3 23.65 -21.3 23.45 -21.25 23.35 -21.2 23.3 -21.1 23.2 -21.05 23.2 -21.05 21.8 -21.05 20.85 -20.9 20.2 -20.95 19.45 -20.95 18.9 -20.9 18.8 -20.85 18.7 -20.8 18.6 -20.8 18.5 -20.8 18.45 -20.8 18.35 -20.75 18.25 -20.7 18.15 -20.7 18.05 -20.65 17.95 -20.6 17.85 -20.55 17.75 -20.5 17.7 -20.5 17.6 -20.45 17.5 -20.45 17.4 -20.45 17.3 -20.45 17.2 -20.45 17.1 -20.4 17.05 -20.35 16.95 -20.3 16.85 -20.3 16.65 -20.3 16.25 -20.3 15.9 -20.3 15.8 -20.2 15.55 -20.2 15.05 -20.15 14.6 -20.1 14.5 -20.05 14.4 -20.05 14.3 -20.05 14.2 -20.05 14.1 -20.05 14.0 -20.0 13.95 -19.95 13.85 -19.95 13.75 -19.95 13.55 -19.95 13.25 -19.95 12.9 -19.95 12.8 -19.9 12.7 -19.85 12.6 -19.8 12.5 -19.8 12.35 -19.8 12.05 -19.8 11.75 -19.8 11.7 -19.75 11.6 -19.7 11.5 -19.7 11.4 -19.7 11.3 -19.65 11.2 -19.6 11.1 -19.55 11.0 -19.55 10.95 -19.55 10.85 -19.55 10.75 -19.45 10.55 -19.45 10.2 -19.45 9.8 -19.45 9.7 -19.4 9.6 -19.35 9.5 -19.3 9.45 -19.25 8.6 -19.3 7.55 -19.2 6.9 -19.2 3.75 -19.2 3.65 -19.2 3.55 -19.2 3.45 -19.2 3.35 -19.2 3.25 -19.2 3.2 -19.2 3.1 -19.2 3.0 -19.2 2.9 -19.2 2.8 -19.2 2.7 -19.2 0.8 -19.2 -3.2 -19.2 -3.3 -19.2 -3.4 -19.2 -3.5 -19.2 -5.5 -19.2 -9.95 -19.2 -10.05 -19.2 -10.15 -19.2 -10.4 -19.2 -10.5 -19.2 -10.6 -19.2 -10.7 -19.2 -10.8 -19.2 -10.9 -19.2 -11.15 -19.2 -11.25 -19.2 -11.35 -19.2 -11.45 -19.2 -11.55 -19.2 -11.65 -19.2 -11.8 -19.2 -11.9 -19.2 -12.0 -19.2 -12.1 -19.2 -12.2 -19.2 -12.3 -19.2 -12.4 -19.2 -12.5 -19.2 -12.55 -19.2 -12.65 -19.2 -12.75 -19.2 -12.85 -19.2 -12.95 -19.2 -13.05 -19.2 -13.15 -19.2 -13.25 -19.2 -13.3 -19.2 -13.4 -19.2 -13.5 -19.2 -13.6 -19.2 -13.7 -19.2 -13.8 -19.2 -13.9 -19.2 -14.0 -19.2 -14.05 -19.2 -14.15 -19.2 -14.25 -19.2 -14.35 -19.2 -14.45 -19.2 -14.55 -19.2 -14.65 -19.2 -18.05 -19.2 -24.3 -19.2 -24.7 -19.2 -25.3 -19.3 -25.4 -19.3 -25.5 -19.3 -25.55 -19.3 -25.75 -19.3 -25.95 -19.3 -26.05 -19.25 -26.15 -19.2 -26.2 -19.1 -26.3 -18.9 -26.4 -18.7 -26.4 -18.55 -26.4 -6.0 -26.3 -5.75 -26.3 0.7 -26.15 0.95 -26.05 1.15 -26.0 16.1 -26.25 16.1 -26.3 16.45 -26.35 16.75 -26.35 17.65 -26.4 17.8 -26.45 17.95 -26.45 17.95 -26.5 18.95 -26.5 19.15 -26.4 19.2 -26.3 19.3 -26.2 19.3 -26.15 19.3 -26.05 19.25 -25.95 19.2 -25.85 19.15 -25.8 18.8 -25.75 18.8 -20.05 18.95 -13.85 19.1 -7.55 19.05 -3.0 19.05 -1.3 19.0 5.0 18.95 11.25 18.95 11.85 18.95 11.95 18.9 12.1 18.85 12.3 18.8 12.4 18.8 15.75 18.8 19.35 18.8 20.6 18.8 20.7 18.8 21.0 18.85 21.1 18.9 21.2 18.95 21.3 19.0 21.6 18.95 22.05 18.95 22.5 18.95 22.6 18.9 22.7 18.75 22.9 18.7 23.0 18.6 23.1 18.55 23.2 18.55 23.25 18.45 23.35 18.4 23.45 18.3 23.55 18.2 23.65 18.2 23.75 18.15 23.85 18.1 23.95 18.1 24.85 17.6 24.85 17.15 24.85 17.2 24.75 17.2 24.65 17.3 24.55 17.35 24.45 17.45 24.35 17.5 24.3 17.55 24.2 17.55 24.1 18.0 24.1 17.95 24.0 17.85 24.0 17.3 24.05 17.25 24.1 17.0 24.15 16.9 24.2 16.95 24.3 17.05 24.35 17.05 24.45 17.05 24.55 17.0 24.65 16.95 24.75 16.9 24.8 16.7 24.85 16.1 24.85 16.1 24.0 16.2 23.9 16.2 23.8 16.25 23.7 16.3 23.65 16.75 23.45 Q17.1 23.25 17.5 23.2 L17.55 23.1 17.65 23.05 17.85 22.85 17.9 22.75 17.95 22.65 18.0 22.55 18.1 22.45 18.2 22.35 18.2 22.25 18.2 22.2 18.2 22.1 18.2 21.8 18.2 21.6 18.2 21.55 18.1 21.45 18.05 17.75 18.05 14.0 18.05 12.25 18.1 12.15 18.15 11.95 18.2 11.75 18.2 11.7 18.25 5.6 18.3 -0.6 18.35 -6.9 18.2 -13.15 18.1 -15.8 18.05 -19.45 18.05 -20.5 18.05 -20.6 18.05 -20.7 18.05 -23.6 18.05 -24.15" fill="#000000" fill-rule="evenodd" stroke="none"/>
    <path d="M17.6 24.85 L18.1 24.85 18.1 25.0 17.95 24.95 17.7 24.9 17.6 24.85 M-20.45 24.8 L-20.4 24.75 -20.25 24.85 -20.1 24.95 -20.15 25.0 -20.2 25.1 -20.25 25.05 -20.3 24.95 -20.4 24.85 -20.45 24.8 M-19.15 25.3 L-19.1 25.25 -18.9 25.2 -18.8 25.1 -18.6 25.0 -18.55 25.0 -18.65 25.1 -18.8 25.2 -18.9 25.25 -19.0 25.25 -19.15 25.3" fill="#8d5b17" fill-rule="evenodd" stroke="none"/>
    <path d="M-14.3 24.95 L-13.25 24.95 -13.05 24.9 -12.9 24.85 -12.8 24.9 -12.65 25.0 -14.3 24.95 M10.7 10.65 L10.7 10.55 10.7 10.45 10.75 10.45 10.9 10.35 10.9 10.45 10.9 10.55 10.9 10.65 10.9 10.75 10.9 10.85 10.9 10.95 10.85 11.05 10.85 11.1 10.85 11.15 10.55 11.15 10.6 11.05 10.6 10.95 10.65 10.85 10.65 10.75 10.7 10.65" fill="#b9892e" fill-rule="evenodd" stroke="none"/>
    <path d="M-15.35 -3.65 L-15.35 -3.7 -15.35 -3.8 -15.35 -3.9 -15.35 -4.0 -15.3 -4.05 -15.3 -4.15 -15.3 -4.25 -15.25 -4.35 -15.2 -4.45 -15.2 -4.4 -15.2 -4.3 -15.2 -4.2 -15.25 -4.15 -15.25 -4.05 -15.25 -3.95 -15.3 -3.85 -15.3 -3.75 -15.35 -3.65 M12.95 15.3 L12.95 15.2 13.0 15.1 13.0 15.15 13.0 15.25 13.0 15.35 13.0 15.45 13.0 15.55 13.05 15.6 13.05 15.7 13.1 15.8 13.1 15.85 12.95 15.8 12.8 15.75 12.65 15.75 12.7 15.7 12.75 15.6 12.8 15.5 12.85 15.4 12.95 15.3" fill="#c48f3b" fill-rule="evenodd" stroke="none"/>
    <path d="M18.05 -24.15 L18.05 -23.6 18.0 -23.7 17.95 -23.8 17.9 -23.9 17.9 -23.95 17.95 -24.0 18.0 -24.1 18.05 -24.15 M18.2 22.2 L18.2 22.25 18.2 22.35 18.1 22.45 18.1 22.35 18.15 22.25 18.2 22.2 M-17.25 -4.8 L-17.2 -4.75 -17.2 -4.65 -17.2 -4.6 -17.25 -4.7 -17.25 -4.8" fill="#a37830" fill-rule="evenodd" stroke="none"/>
    <path d="M-7.95 16.75 L-7.8 16.8 -7.6 16.85 -7.45 16.9 -7.2 16.95 -7.1 17.0 -6.85 17.05 -6.8 17.05 -6.8 17.1 -6.85 17.2 -6.85 17.3 -6.9 17.35 -6.9 17.4 -7.0 17.3 -7.15 17.2 -7.4 17.1 -7.55 17.05 -7.6 17.0 -7.75 17.0 -7.8 16.95 -7.9 16.85 -7.95 16.75 M-5.2 19.55 L-5.05 19.55 -5.1 19.65 -5.1 19.75 -5.15 19.65 -5.2 19.55" fill="#bd8b37" fill-rule="evenodd" stroke="none"/>
    <path d="M-1.45 -13.45 L-1.35 -13.45 -1.3 -13.4 -1.3 -13.3 -1.25 -13.2 -1.2 -13.1 -1.55 -13.1 -1.55 -13.15 -1.55 -13.25 -1.5 -13.35 -1.45 -13.45 M-10.05 9.2 L-10.05 9.1 -10.1 9.05 -10.05 8.95 -10.05 9.0 -10.0 9.1 -9.95 9.2 -9.9 9.3 -9.9 9.35 -9.85 9.45 -9.8 9.55 -9.7 9.65 -9.7 9.7 -9.75 9.7 -9.85 9.75 -9.9 9.7 -9.9 9.6 -9.95 9.5 -9.95 9.4 -10.0 9.3 -10.05 9.2" fill="#a99755" fill-rule="evenodd" stroke="none"/>
    <path d="M10.8 -12.85 L10.6 -12.8 10.5 -12.8 10.3 -12.85 10.05 -12.9 9.8 -13.0 9.6 -13.1 9.6 -13.15 9.55 -13.2 9.55 -13.3 9.5 -13.4 10.55 -13.4 10.6 -13.3 10.65 -13.2 10.7 -13.1 10.7 -13.0 10.75 -12.9 10.8 -12.85" fill="#709aad" fill-rule="evenodd" stroke="none"/>
    <path d="M5.25 -10.3 L5.35 -10.2 5.45 -10.1 5.55 -10.0 5.6 -9.9 5.7 -9.8 5.8 -9.7 5.9 -9.65 5.95 -9.55 6.05 -9.45 6.1 -9.35 6.15 -9.25 6.2 -9.15 6.25 -9.05 6.3 -8.95 6.3 -8.9 6.4 -8.8 6.5 -8.7 6.6 -8.6 6.7 -8.5 6.8 -8.4 6.85 -8.3 6.95 -8.2 7.05 -8.15 7.15 -8.05 7.25 -7.95 7.35 -7.85 7.45 -7.75 7.55 -7.65 7.6 -7.55 7.7 -7.45 7.7 -7.4 7.75 -7.3 7.8 -7.2 7.8 -7.1 7.85 -7.0 7.85 -6.9 7.85 -6.8 7.85 -6.7 7.85 -6.65 7.85 -6.55 7.85 -6.45 7.85 -6.35 7.85 -6.25 7.85 -6.15 7.85 -6.05 7.85 -5.95 7.85 -5.9 7.9 -5.9 7.95 -5.8 8.05 -5.7 8.1 -5.6 8.15 -5.5 8.2 -5.4 8.3 -5.3 8.3 -5.2 8.4 -5.15 8.45 -5.05 8.55 -4.95 8.6 -4.85 8.6 -4.75 8.65 -4.65 8.7 -4.55 8.7 -4.45 8.75 -4.4 8.8 -4.3 8.8 -4.2 8.85 -4.1 8.85 -4.0 8.85 -3.9 8.85 -3.8 8.85 -3.7 8.85 -3.65 8.85 -3.55 8.8 -3.45 8.8 -3.35 8.75 -3.25 8.7 -3.15 8.65 -3.05 8.6 -2.95 8.6 -2.85 8.6 -2.75 8.6 -2.65 8.6 -2.55 8.6 -2.45 8.6 -2.4 8.6 -2.3 8.6 -2.2 8.6 -2.1 8.6 -2.0 8.6 -1.9 8.6 -1.8 8.6 -1.7 8.6 -1.65 8.55 -1.55 8.55 -1.45 8.5 -1.35 8.45 -1.25 8.4 -1.15 8.35 -1.05 8.25 -0.95 8.2 -0.9 8.2 -0.8 8.2 -0.7 8.2 -0.65 8.2 -0.55 8.15 -0.45 8.1 -0.35 8.1 -0.25 8.05 -0.15 8.05 -0.05 8.0 0.05 7.95 0.1 7.85 0.2 7.8 0.3 7.8 0.4 7.75 0.5 7.7 0.6 7.7 0.7 7.65 0.8 7.65 0.9 7.6 1.0 7.6 1.1 7.6 1.2 7.6 1.3 7.6 1.35 7.55 1.45 7.55 1.55 7.5 1.65 7.45 1.75 7.4 1.85 7.35 1.95 7.4 2.0 7.45 2.1 7.5 2.2 7.55 2.3 7.55 2.35 7.6 2.45 7.6 2.55 7.6 2.65 7.6 2.75 7.6 2.85 7.6 2.95 7.6 3.05 7.6 3.1 7.6 3.2 7.6 3.3 7.6 3.4 7.6 3.5 7.65 3.6 7.7 3.7 7.7 3.8 7.8 3.85 7.85 3.95 7.95 4.05 8.0 4.15 8.05 4.25 8.1 4.35 8.2 4.45 8.3 4.55 8.3 4.6 8.35 4.7 8.45 4.8 8.5 4.9 8.55 5.0 8.6 5.1 8.7 5.2 8.7 5.3 8.75 5.35 8.8 5.45 8.85 5.55 8.9 5.65 8.95 5.75 9.0 5.85 9.05 5.95 9.05 6.05 9.1 6.1 9.1 6.2 9.2 6.3 9.25 6.4 9.3 6.5 9.3 6.6 9.3 6.7 9.35 6.8 9.35 6.85 9.35 6.95 9.35 7.05 9.35 7.15 9.35 7.25 9.35 7.35 9.35 7.45 9.35 7.55 9.35 7.6 9.35 7.7 9.35 7.8 9.35 7.9 9.35 8.0 9.35 8.1 9.35 8.2 9.3 8.3 9.3 8.35 9.25 8.45 9.2 8.55 9.2 8.65 9.1 8.75 9.05 8.85 9.05 8.95 9.0 9.05 8.95 9.1 8.85 9.2 8.8 9.3 8.7 9.4 8.6 9.5 8.45 9.6 8.3 9.7 8.15 9.8 8.0 9.85 7.9 9.95 7.75 10.05 7.6 10.15 7.45 10.25 7.3 10.35 7.15 10.45 7.05 10.5 6.95 10.55 6.8 10.55 6.5 10.6 6.35 10.7 6.2 10.8 6.05 10.8 5.85 10.85 4.85 10.85 4.7 10.9 4.7 10.95 4.7 11.05 4.7 11.15 4.7 11.25 4.7 11.35 4.7 11.45 4.7 11.55 4.7 11.6 4.7 11.7 4.7 11.8 4.7 11.9 4.7 12.0 4.7 12.1 4.7 12.2 4.7 12.3 4.7 12.35 4.7 12.45 4.7 12.55 4.7 12.65 4.7 12.75 4.7 12.85 4.7 12.95 4.7 13.05 4.7 13.1 4.7 13.2 4.7 13.3 4.7 13.4 4.7 13.5 4.7 13.6 4.7 13.7 4.7 13.8 4.7 13.85 4.7 13.95 4.7 14.05 4.7 14.15 4.7 14.25 4.65 14.35 4.6 14.45 4.6 14.55 4.6 14.6 4.6 14.7 4.55 14.8 4.55 14.9 4.5 15.0 4.45 15.1 4.4 15.2 4.35 15.3 4.3 15.35 4.2 15.45 4.15 15.55 4.05 15.65 3.95 15.75 3.75 15.85 3.55 15.9 3.35 15.95 3.25 15.95 3.05 15.9 2.8 15.85 2.75 15.8 2.65 15.85 2.5 15.95 2.35 16.05 2.2 16.1 2.05 16.15 1.85 16.2 1.7 16.3 1.55 16.3 1.35 16.35 -1.65 16.35 -1.85 16.3 -2.1 16.25 -2.9 16.2 -3.1 16.15 -3.35 16.1 -3.55 16.0 -3.65 15.9 -3.7 15.8 -3.8 15.7 -3.9 15.6 -3.9 15.55 -3.95 15.45 -3.95 15.35 -4.0 15.25 -4.0 15.15 -4.0 15.05 -4.0 14.95 -4.0 14.85 -4.0 14.8 -4.0 14.7 -4.0 14.6 -4.0 14.5 -4.0 14.4 -4.0 14.3 -4.0 14.2 -4.0 14.1 -4.0 14.05 -4.0 13.95 -4.0 13.85 -4.0 13.75 -4.0 13.65 -4.0 13.55 -4.0 13.45 -4.0 13.35 -3.95 13.3 -3.95 13.2 -3.95 13.1 -3.9 13.0 -3.85 12.9 -3.85 12.8 -3.8 12.7 -3.8 12.6 -3.75 12.55 -3.75 12.45 -3.75 12.35 -3.7 12.25 -3.7 12.15 -3.65 12.05 -3.65 11.95 -3.6 11.85 -3.55 11.8 -3.55 11.7 -3.55 11.6 -3.5 11.5 -3.5 11.4 -3.9 11.35 -4.1 11.3 -4.35 11.25 -5.25 11.2 -5.45 11.15 -5.7 11.1 -5.9 11.0 -5.95 10.9 -6.05 10.8 -6.15 10.7 -6.2 10.6 -6.3 10.55 -6.35 10.45 -6.4 10.35 -6.45 10.25 -6.45 10.15 -6.5 10.05 -6.55 9.95 -6.55 9.85 -6.6 9.8 -6.6 9.7 -6.6 9.6 -6.6 9.5 -6.6 9.4 -6.6 9.3 -6.6 9.2 -6.65 9.1 -6.65 9.05 -6.7 8.95 -6.7 8.85 -6.75 8.75 -6.75 8.65 -6.75 8.55 -6.8 8.5 -6.85 8.4 -6.9 8.3 -6.95 8.2 -6.95 8.1 -7.0 8.05 -7.0 7.95 -7.0 7.85 -7.0 7.75 -7.0 7.65 -7.0 7.55 -7.0 7.45 -7.0 7.35 -7.0 7.15 -7.0 7.05 -7.0 6.95 -7.0 6.85 -7.0 6.8 -7.0 6.7 -7.0 6.6 -7.0 6.5 -7.0 6.4 -6.95 6.3 -6.95 6.2 -6.9 6.1 -6.9 6.05 -6.85 5.95 -6.8 5.85 -6.8 5.75 -6.75 5.65 -6.75 5.55 -6.75 5.45 -6.7 5.35 -6.7 5.3 -6.7 5.2 -6.65 5.1 -6.6 5.0 -6.55 4.9 -6.5 4.8 -6.5 4.7 -6.5 4.6 -6.5 4.55 -6.5 4.45 -6.5 4.35 -6.45 4.25 -6.45 4.15 -6.4 4.05 -6.4 3.95 -6.3 3.85 -6.2 3.8 -6.15 3.7 -6.05 3.6 -6.0 3.6 -6.05 3.55 -6.15 3.45 -6.2 3.35 -6.3 3.3 -6.35 3.2 -6.45 3.1 -6.5 3.0 -6.55 2.9 -6.6 2.8 -6.7 2.7 -6.7 2.6 -6.8 2.55 -6.85 2.45 -6.95 2.35 -7.0 2.25 -7.05 2.15 -7.1 2.05 -7.15 1.95 -7.2 1.85 -7.2 1.8 -7.25 1.7 -7.3 1.6 -7.3 1.5 -7.35 1.4 -7.4 1.3 -7.45 1.2 -7.45 1.1 -7.5 1.05 -7.5 0.95 -7.5 0.85 -7.5 0.75 -7.5 0.65 -7.5 0.55 -7.5 0.45 -7.5 0.35 -7.5 0.3 -7.5 0.2 -7.5 0.1 -7.5 0.0 -7.5 -0.1 -7.5 -0.2 -7.5 -0.3 -7.5 -0.4 -7.5 -0.45 -7.5 -0.55 -7.6 -0.65 -7.65 -0.75 -7.7 -0.85 -7.7 -0.95 -7.75 -1.05 -7.8 -1.15 -7.8 -1.2 -7.85 -1.3 -7.9 -1.4 -7.95 -1.5 -7.95 -1.6 -8.0 -1.7 -8.05 -1.8 -8.15 -1.9 -8.15 -1.95 -8.2 -2.05 -8.2 -2.15 -8.25 -2.25 -8.25 -2.35 -8.25 -2.45 -8.25 -2.55 -8.25 -2.65 -8.25 -2.7 -8.25 -2.8 -8.25 -2.9 -8.25 -3.0 -8.25 -3.1 -8.25 -3.2 -8.25 -3.3 -8.25 -3.4 -8.25 -3.45 -8.25 -3.55 -8.25 -3.65 -8.25 -3.75 -8.25 -3.85 -8.25 -3.95 -8.25 -4.05 -8.25 -4.15 -8.25 -4.2 -8.25 -4.3 -8.25 -4.4 -8.25 -4.5 -8.25 -4.6 -8.25 -4.7 -8.2 -4.8 -8.2 -4.9 -8.15 -4.95 -8.15 -5.05 -8.1 -5.15 -8.1 -5.25 -8.1 -5.35 -8.05 -5.45 -8.05 -5.55 -8.0 -5.65 -7.95 -5.7 -7.95 -5.8 -7.9 -5.9 -7.85 -6.0 -7.75 -6.1 -7.7 -6.2 -7.65 -6.3 -7.55 -6.4 -7.45 -6.45 -7.45 -6.55 -7.4 -6.65 -7.35 -6.75 -7.25 -6.85 -7.15 -6.95 -7.05 -7.05 -6.95 -7.15 -6.9 -7.2 -6.8 -7.3 -6.7 -7.4 -6.6 -7.5 -6.5 -7.6 -6.4 -7.7 -6.3 -7.8 -6.2 -7.9 -6.15 -7.95 -6.05 -8.05 -5.9 -8.15 -5.7 -8.25 -5.6 -8.35 -5.5 -8.45 -5.4 -8.55 -5.25 -8.65 -5.1 -8.7 -4.95 -8.75 -4.8 -8.85 -4.6 -8.95 -4.4 -9.05 -4.3 -9.15 -4.2 -9.2 -4.15 -9.3 -3.95 -9.4 -3.7 -9.5 -3.65 -9.5 -3.65 -9.55 -3.45 -9.65 -3.35 -9.75 -3.25 -9.85 -3.15 -9.95 -3.05 -10.05 -2.9 -10.15 -2.75 -10.2 -2.6 -10.2 -2.45 -10.25 -2.35 -10.3 -2.2 -10.3 -2.0 -10.35 -1.7 -10.4 -1.35 -10.5 -1.1 -10.55 -0.9 -10.6 -0.45 -10.65 -0.2 -10.7 0.0 -10.7 0.0 -10.75 2.7 -10.75 2.75 -10.8 2.9 -10.8 3.1 -10.8 3.1 -10.85 3.35 -10.85 3.55 -10.8 3.75 -10.75 4.25 -10.75 4.45 -10.7 4.65 -10.65 4.85 -10.55 5.0 -10.45 5.15 -10.4 5.25 -10.3" fill="#333333" fill-rule="evenodd" stroke="none"/>
    <path d="M-7.95 16.75 L-8.0 16.65 -8.05 16.55 -8.15 16.45 -8.2 16.35 -8.2 16.3 -8.3 16.2 -8.4 16.1 -8.45 16.0 -8.6 15.9 -8.65 15.8 -8.75 15.7 -8.8 15.6 -8.8 15.55 -8.9 15.45 -8.95 15.35 -8.95 15.25 -9.0 15.15 -9.05 15.05 -9.15 14.95 -9.2 14.85 -9.3 14.8 -9.4 14.7 -9.45 14.6 -9.5 14.5 -9.55 14.4 -9.65 14.3 -9.7 14.2 -9.75 14.1 -9.8 14.05 -9.8 13.95 -9.9 13.85 -9.95 13.75 -10.0 13.65 -10.05 13.55 -10.15 13.45 -10.2 13.35 -10.2 13.3 -10.25 13.2 -10.3 13.1 -10.35 13.0 -10.4 12.9 -10.4 12.8 -10.4 12.7 -10.4 12.6 -10.4 12.55 -10.4 12.45 -10.4 12.35 -10.4 12.25 -10.4 12.15 -10.4 12.05 -10.4 11.95 -10.4 11.85 -10.4 11.8 -10.4 11.7 -10.4 11.6 -10.4 11.5 -10.4 11.4 -10.4 11.3 -10.4 11.2 -10.45 11.1 -10.45 11.05 -10.5 10.95 -10.55 10.85 -10.55 10.75 -10.55 10.65 -10.55 10.55 -10.55 10.45 -10.55 10.35 -10.55 10.3 -10.55 10.2 -10.55 10.1 -10.55 10.0 -10.55 9.9 -10.55 9.8 -10.55 9.7 -10.55 9.6 -10.55 9.55 -10.55 9.45 -10.55 9.35 -10.55 9.25 -10.55 9.15 -10.55 9.05 -10.55 8.95 -10.55 8.85 -10.55 8.8 -10.55 8.7 -10.55 8.6 -10.55 8.5 -10.55 8.4 -10.55 8.3 -10.55 8.2 -10.55 8.1 -10.55 8.05 -10.6 7.95 -10.6 7.85 -10.65 7.75 -10.65 7.65 -10.65 7.55 -10.65 7.45 -10.65 7.35 -10.65 7.3 -10.65 7.2 -10.65 7.1 -10.65 7.0 -10.65 6.9 -10.65 6.8 -10.65 6.7 -10.7 6.6 -10.7 6.55 -10.75 6.45 -10.8 6.35 -10.85 6.25 -10.9 6.15 -10.9 6.05 -10.9 5.95 -10.9 5.85 -10.9 5.8 -10.95 5.7 -10.95 5.6 -10.95 5.5 -11.0 5.4 -11.05 5.3 -11.05 5.2 -11.05 5.1 -11.05 5.05 -11.05 4.95 -11.05 4.85 -11.05 4.75 -11.05 4.65 -11.05 4.55 -11.05 4.45 -11.05 4.35 -11.05 4.3 -11.05 4.2 -11.05 4.1 -11.05 4.0 -11.05 3.9 -11.05 3.8 -11.05 3.7 -11.05 3.6 -11.05 3.55 -11.05 3.45 -11.05 3.35 -11.05 3.25 -11.05 3.15 -11.05 3.05 -11.05 2.95 -11.05 2.85 -11.05 2.8 -11.05 2.7 -11.05 2.6 -11.05 2.5 -11.05 2.4 -11.05 2.3 -11.05 2.2 -11.05 2.1 -11.05 2.05 -11.05 1.95 -11.05 1.85 -11.05 1.75 -11.05 1.65 -11.05 1.55 -11.05 1.45 -11.05 1.35 -11.05 1.3 -11.05 1.2 -11.05 1.1 -11.05 1.0 -11.05 0.9 -11.05 0.8 -11.05 0.7 -11.05 0.6 -11.05 0.55 -11.05 0.45 -11.05 0.35 -11.05 0.25 -11.05 0.15 -11.05 0.05 -11.05 -0.05 -11.05 -0.15 -11.05 -0.2 -11.05 -0.3 -11.05 -0.4 -11.05 -0.5 -11.05 -0.6 -11.05 -0.7 -11.05 -0.8 -11.05 -0.9 -11.05 -0.95 -11.05 -1.05 -11.05 -1.15 -11.05 -1.25 -11.05 -1.35 -11.05 -1.45 -11.05 -1.55 -11.05 -1.65 -11.05 -1.7 -11.05 -1.8 -11.05 -1.9 -11.05 -2.0 -11.05 -2.1 -11.05 -2.2 -11.05 -2.3 -11.05 -2.4 -11.05 -2.45 -11.05 -2.55 -11.05 -2.65 -11.05 -2.75 -11.05 -2.85 -11.05 -2.95 -11.05 -3.05 -11.05 -3.15 -11.05 -3.2 -11.05 -3.3 -11.05 -3.4 -11.05 -3.5 -11.05 -3.6 -11.05 -3.7 -11.05 -3.8 -11.05 -3.9 -11.05 -3.95 -11.05 -4.05 -11.05 -4.15 -11.05 -4.25 -11.05 -4.35 -11.05 -4.45 -11.05 -4.55 -11.0 -4.65 -10.95 -4.7 -10.95 -4.8 -10.9 -4.9 -10.9 -5.0 -10.9 -5.1 -10.9 -5.2 -10.9 -5.3 -10.9 -5.4 -10.9 -5.45 -10.9 -5.55 -10.9 -5.65 -10.9 -5.75 -10.9 -5.85 -10.9 -5.95 -10.9 -6.05 -10.85 -6.15 -10.85 -6.2 -10.8 -6.3 -10.8 -6.4 -10.8 -6.5 -10.75 -6.6 -10.7 -6.7 -10.7 -6.8 -10.65 -6.9 -10.65 -6.95 -10.65 -7.05 -10.65 -7.15 -10.65 -7.25 -10.65 -7.35 -10.65 -7.45 -10.65 -7.55 -10.65 -7.65 -10.65 -7.7 -10.65 -7.8 -10.6 -7.9 -10.55 -8.0 -10.5 -8.1 -10.45 -8.2 -10.45 -8.3 -10.4 -8.4 -10.4 -8.45 -10.4 -8.55 -10.4 -8.65 -10.4 -8.75 -10.4 -8.85 -10.4 -8.95 -10.4 -9.05 -10.4 -9.15 -10.35 -9.2 -10.35 -9.3 -10.3 -9.4 -10.25 -9.5 -10.2 -9.6 -10.2 -9.7 -10.15 -9.8 -10.15 -9.9 -10.15 -9.95 -10.15 -10.05 -10.1 -10.15 -10.05 -10.25 -10.0 -10.35 -9.95 -10.45 -9.9 -10.55 -9.8 -10.65 -9.75 -10.7 -9.7 -10.8 -9.7 -10.9 -9.7 -11.0 -9.65 -11.1 -9.55 -11.2 -9.55 -11.3 -9.5 -11.4 -9.45 -11.45 -9.4 -11.55 -9.35 -11.65 -9.3 -11.75 -9.2 -11.85 -9.2 -11.95 -9.15 -12.05 -9.05 -12.15 -9.0 -12.2 -8.95 -12.3 -8.95 -12.4 -8.9 -12.5 -8.8 -12.6 -8.8 -12.7 -8.75 -12.8 -8.7 -12.9 -8.65 -12.95 -8.55 -13.05 -8.45 -13.15 -8.4 -13.25 -8.3 -13.35 -8.2 -13.45 -8.2 -13.55 -8.15 -13.65 -8.05 -13.7 -8.0 -13.8 -7.95 -13.9 -7.9 -14.0 -7.8 -14.1 -7.7 -14.2 -7.6 -14.3 -7.5 -14.4 -7.4 -14.45 -7.35 -14.55 -7.3 -14.65 -7.2 -14.75 -7.15 -14.85 -7.05 -14.95 -7.0 -15.05 -6.9 -15.15 -6.8 -15.2 -6.75 -15.3 -6.7 -15.4 -6.65 -15.5 -6.55 -15.6 -6.45 -15.7 -6.25 -15.8 -6.1 -15.9 -6.0 -15.95 -5.9 -16.05 -5.85 -16.15 -5.7 -16.25 7.15 -16.25 7.4 -16.2 7.6 -16.15 7.85 -16.1 7.95 -16.0 8.1 -15.9 8.3 -15.8 8.45 -15.7 8.7 -15.65 8.8 -15.55 8.85 -15.45 8.95 -15.35 9.15 -15.25 9.3 -15.15 9.4 -15.05 9.5 -14.95 9.6 -14.9 9.7 -14.8 9.7 -14.7 9.8 -14.6 9.85 -14.5 9.9 -14.4 10.0 -14.3 10.1 -14.2 10.2 -14.15 10.3 -14.05 10.4 -13.95 10.45 -13.85 10.45 -13.75 10.5 -13.65 10.5 -13.55 10.55 -13.45 10.55 -13.4 9.5 -13.4 9.55 -13.3 9.55 -13.2 9.6 -13.15 9.6 -13.1 9.8 -13.0 10.05 -12.9 10.3 -12.85 10.5 -12.8 10.6 -12.8 10.8 -12.85 10.8 -12.8 10.85 -12.7 10.95 -12.65 11.0 -12.55 11.05 -12.45 11.1 -12.35 11.2 -12.25 11.2 -12.15 11.25 -12.05 11.3 -11.95 11.35 -11.9 11.45 -11.8 11.5 -11.7 11.55 -11.6 11.6 -11.5 11.65 -11.4 11.75 -11.3 11.85 -11.2 11.95 -11.15 12.05 -11.05 12.1 -10.95 12.2 -10.85 12.4 -10.75 12.65 -10.7 12.85 -10.65 12.9 -10.65 12.9 -10.55 12.9 -10.45 12.9 -10.35 12.9 -10.25 12.9 -10.15 12.9 -10.05 12.9 -9.95 12.9 -9.9 12.9 -9.8 12.9 -9.7 12.9 -9.6 12.9 -9.5 12.9 -9.4 12.9 -9.3 12.9 -9.2 12.9 -9.15 12.9 -9.05 12.9 -8.95 12.9 -8.85 12.9 -8.75 12.9 -8.65 12.9 -8.55 12.9 -8.45 12.9 -8.4 12.9 -8.3 12.9 -8.2 12.9 -8.1 12.9 -8.0 12.9 -7.9 12.9 -7.8 12.9 -7.7 12.9 -7.65 12.9 -7.55 12.9 -7.45 12.9 -7.35 12.9 -7.25 12.9 -7.15 12.9 -7.05 12.9 -6.95 12.9 -6.9 12.9 -6.8 12.9 -6.7 12.9 -6.6 12.9 -6.5 12.9 -6.4 12.9 -6.3 12.9 -6.2 12.9 -6.15 12.9 -6.05 12.9 -5.95 12.9 -5.85 12.9 -5.75 12.9 -5.65 12.9 -5.55 12.9 -5.45 12.9 -5.4 12.9 -5.3 12.9 -5.2 12.9 -5.1 12.9 -5.0 12.9 -4.9 12.9 -4.8 12.9 -4.7 12.9 -4.65 12.9 -4.55 12.9 -4.45 12.9 -4.35 12.9 -4.25 12.9 -4.15 12.9 -4.05 12.9 -3.95 12.9 -3.9 12.9 -3.8 12.9 -3.7 12.9 -3.6 12.85 -3.5 12.8 -3.4 12.8 -3.3 12.8 -3.2 12.75 -3.15 12.75 -3.05 12.75 -2.95 12.75 -2.85 12.75 -2.75 12.75 -2.65 12.75 -2.55 12.75 -2.45 12.75 -2.4 12.75 -2.3 12.75 -2.2 12.75 -2.1 12.75 -2.0 12.75 -1.9 12.75 -1.8 12.75 -1.7 12.7 -1.65 12.7 -1.55 12.65 -1.45 12.65 -1.35 12.65 -1.25 12.65 -1.15 12.65 -1.05 12.65 -0.95 12.65 -0.9 12.65 -0.8 12.65 -0.7 12.65 -0.6 12.65 -0.5 12.65 -0.4 12.6 -0.3 12.6 -0.2 12.55 -0.15 12.55 -0.05 12.5 0.05 12.5 0.15 12.5 0.25 12.5 0.35 12.5 0.45 12.5 0.55 12.5 0.6 12.5 0.7 12.5 0.8 12.5 0.9 12.5 1.0 12.5 1.1 12.5 1.2 12.5 1.3 12.5 1.35 12.5 1.45 12.5 1.55 12.5 1.65 12.5 1.75 12.5 1.85 12.5 1.95 12.5 2.05 12.5 2.1 12.45 2.2 12.45 2.3 12.4 2.4 12.4 2.5 12.4 2.6 12.4 2.7 12.4 2.8 12.4 2.85 12.4 2.95 12.4 3.05 12.4 3.15 12.4 3.25 12.4 3.35 12.4 3.45 12.4 3.55 12.4 3.6 12.4 3.7 12.4 3.8 12.4 3.9 12.4 4.0 12.4 4.1 12.4 4.2 12.25 4.2 12.15 4.25 12.05 4.3 11.9 4.4 11.8 4.5 11.7 4.6 11.65 4.7 11.6 4.8 11.55 4.85 11.55 4.95 11.5 5.05 11.5 5.15 11.5 5.25 11.5 5.35 11.5 5.45 11.5 5.55 11.5 5.6 11.5 5.7 11.5 5.8 11.5 5.9 11.5 6.0 11.5 6.1 11.5 6.2 11.5 6.3 11.5 6.35 11.5 6.45 11.5 6.55 11.5 6.65 11.5 6.75 11.5 6.85 11.5 6.95 11.5 7.05 11.5 7.1 11.5 7.2 11.5 7.3 11.5 7.4 11.5 7.5 11.5 7.6 11.5 7.7 11.5 7.8 11.5 7.85 11.5 7.95 11.5 8.05 11.5 8.15 11.5 8.25 11.5 8.35 11.5 8.45 11.5 8.55 11.5 8.6 11.5 8.7 11.5 8.8 11.5 8.9 11.5 9.0 11.5 9.1 11.5 9.2 11.5 9.3 11.5 9.35 11.5 9.45 11.5 9.55 11.5 9.65 11.5 9.75 11.5 9.85 11.5 9.95 11.5 10.05 11.5 10.1 11.5 10.2 11.5 10.3 11.5 10.4 11.5 10.5 11.5 10.6 11.5 10.7 11.5 10.8 11.5 10.85 11.45 10.95 11.35 11.05 11.35 11.15 11.3 11.25 11.3 11.35 11.25 11.45 11.25 11.55 11.2 11.6 11.1 11.7 11.1 11.8 11.05 11.9 11.05 12.0 10.95 12.1 10.9 12.2 10.85 12.3 10.8 12.35 10.8 12.45 10.7 12.55 10.65 12.65 10.55 12.75 10.5 12.85 10.45 12.95 10.35 13.05 10.3 13.1 10.2 13.2 10.1 13.3 10.1 13.4 10.05 13.5 10.05 13.6 9.95 13.7 9.9 13.8 9.85 13.85 9.8 13.95 9.75 14.05 9.65 14.15 9.6 14.25 9.55 14.35 9.45 14.45 9.35 14.55 9.3 14.6 9.2 14.7 9.1 14.8 9.0 14.9 8.9 15.0 8.85 15.1 8.8 15.2 8.8 15.3 8.7 15.35 8.6 15.45 8.55 15.55 8.45 15.65 8.4 15.75 8.35 15.85 8.3 15.95 8.25 16.05 8.2 16.1 8.1 16.2 8.0 16.3 7.9 16.4 7.85 16.5 7.8 16.6 7.8 16.7 7.75 16.8 7.7 16.85 7.65 16.95 7.6 17.05 7.5 17.15 7.4 17.25 7.35 17.35 7.3 17.45 7.3 17.55 7.2 17.6 7.1 17.7 7.05 17.8 7.0 17.9 6.9 18.0 6.85 18.1 6.8 18.2 6.75 18.3 6.7 18.35 6.6 18.45 6.5 18.55 6.4 18.65 6.3 18.75 6.2 18.85 6.1 18.95 6.05 19.05 5.95 19.1 5.85 19.2 5.75 19.3 5.65 19.4 5.55 19.5 5.45 19.6 5.35 19.7 5.2 19.8 5.0 19.85 4.8 19.95 4.65 19.95 4.5 20.05 4.3 20.1 4.05 20.2 3.9 20.2 3.35 20.25 3.15 20.3 2.9 20.35 1.15 20.35 0.95 20.3 0.75 20.25 -4.4 20.2 -4.55 20.2 -4.65 20.1 -4.8 20.05 -4.9 19.95 -5.05 19.85 -5.1 19.75 -5.1 19.65 -5.05 19.55 -5.2 19.55 -5.25 19.55 -5.35 19.45 -5.5 19.35 -5.55 19.3 -5.65 19.2 -5.7 19.1 -5.75 19.0 -5.8 18.9 -5.9 18.8 -6.0 18.7 -6.15 18.6 -6.3 18.55 -6.4 18.45 -6.45 18.35 -6.55 18.25 -6.7 18.15 -6.8 18.05 -6.9 17.95 -6.95 17.85 -7.05 17.8 -7.15 17.7 -7.2 17.65 -7.1 17.55 -7.0 17.45 -6.9 17.4 -6.9 17.35 -6.85 17.3 -6.85 17.2 -6.8 17.1 -6.8 17.05 -6.85 17.05 -7.1 17.0 -7.2 16.95 -7.45 16.9 -7.6 16.85 -7.8 16.8 -7.95 16.75 M5.25 -10.3 L5.15 -10.4 5.0 -10.45 4.85 -10.55 4.65 -10.65 4.45 -10.7 4.25 -10.75 3.75 -10.75 3.55 -10.8 3.35 -10.85 3.1 -10.85 3.1 -10.8 2.9 -10.8 2.75 -10.8 2.7 -10.75 0.0 -10.75 0.0 -10.7 -0.2 -10.7 -0.45 -10.65 -0.9 -10.6 -1.1 -10.55 -1.35 -10.5 -1.7 -10.4 -2.0 -10.35 -2.2 -10.3 -2.35 -10.3 -2.45 -10.25 -2.6 -10.2 -2.75 -10.2 -2.9 -10.15 -3.05 -10.05 -3.15 -9.95 -3.25 -9.85 -3.35 -9.75 -3.45 -9.65 -3.65 -9.55 -3.65 -9.5 -3.7 -9.5 -3.95 -9.4 -4.15 -9.3 -4.2 -9.2 -4.3 -9.15 -4.4 -9.05 -4.6 -8.95 -4.8 -8.85 -4.95 -8.75 -5.1 -8.7 -5.25 -8.65 -5.4 -8.55 -5.5 -8.45 -5.6 -8.35 -5.7 -8.25 -5.9 -8.15 -6.05 -8.05 -6.15 -7.95 -6.2 -7.9 -6.3 -7.8 -6.4 -7.7 -6.5 -7.6 -6.6 -7.5 -6.7 -7.4 -6.8 -7.3 -6.9 -7.2 -6.95 -7.15 -7.05 -7.05 -7.15 -6.95 -7.25 -6.85 -7.35 -6.75 -7.4 -6.65 -7.45 -6.55 -7.45 -6.45 -7.55 -6.4 -7.65 -6.3 -7.7 -6.2 -7.75 -6.1 -7.85 -6.0 -7.9 -5.9 -7.95 -5.8 -7.95 -5.7 -8.0 -5.65 -8.05 -5.55 -8.05 -5.45 -8.1 -5.35 -8.1 -5.25 -8.1 -5.15 -8.15 -5.05 -8.15 -4.95 -8.2 -4.9 -8.2 -4.8 -8.25 -4.7 -8.25 -4.6 -8.25 -4.5 -8.25 -4.4 -8.25 -4.3 -8.25 -4.2 -8.25 -4.15 -8.25 -4.05 -8.25 -3.95 -8.25 -3.85 -8.25 -3.75 -8.25 -3.65 -8.25 -3.55 -8.25 -3.45 -8.25 -3.4 -8.25 -3.3 -8.25 -3.2 -8.25 -3.1 -8.25 -3.0 -8.25 -2.9 -8.25 -2.8 -8.25 -2.7 -8.25 -2.65 -8.25 -2.55 -8.25 -2.45 -8.25 -2.35 -8.25 -2.25 -8.2 -2.15 -8.2 -2.05 -8.15 -1.95 -8.15 -1.9 -8.05 -1.8 -8.0 -1.7 -7.95 -1.6 -7.95 -1.5 -7.9 -1.4 -7.85 -1.3 -7.8 -1.2 -7.8 -1.15 -7.75 -1.05 -7.7 -0.95 -7.7 -0.85 -7.65 -0.75 -7.6 -0.65 -7.5 -0.55 -7.5 -0.45 -7.5 -0.4 -7.5 -0.3 -7.5 -0.2 -7.5 -0.1 -7.5 0.0 -7.5 0.1 -7.5 0.2 -7.5 0.3 -7.5 0.35 -7.5 0.45 -7.5 0.55 -7.5 0.65 -7.5 0.75 -7.5 0.85 -7.5 0.95 -7.5 1.05 -7.45 1.1 -7.45 1.2 -7.4 1.3 -7.35 1.4 -7.3 1.5 -7.3 1.6 -7.25 1.7 -7.2 1.8 -7.2 1.85 -7.15 1.95 -7.1 2.05 -7.05 2.15 -7.0 2.25 -6.95 2.35 -6.85 2.45 -6.8 2.55 -6.7 2.6 -6.7 2.7 -6.6 2.8 -6.55 2.9 -6.5 3.0 -6.45 3.1 -6.35 3.2 -6.3 3.3 -6.2 3.35 -6.15 3.45 -6.05 3.55 -6.0 3.6 -6.05 3.6 -6.15 3.7 -6.2 3.8 -6.3 3.85 -6.4 3.95 -6.4 4.05 -6.45 4.15 -6.45 4.25 -6.5 4.35 -6.5 4.45 -6.5 4.55 -6.5 4.6 -6.5 4.7 -6.5 4.8 -6.55 4.9 -6.6 5.0 -6.65 5.1 -6.7 5.2 -6.7 5.3 -6.7 5.35 -6.75 5.45 -6.75 5.55 -6.75 5.65 -6.8 5.75 -6.8 5.85 -6.85 5.95 -6.9 6.05 -6.9 6.1 -6.95 6.2 -6.95 6.3 -7.0 6.4 -7.0 6.5 -7.0 6.6 -7.0 6.7 -7.0 6.8 -7.0 6.85 -7.0 6.95 -7.0 7.05 -7.0 7.15 -7.0 7.35 -7.0 7.45 -7.0 7.55 -7.0 7.65 -7.0 7.75 -7.0 7.85 -7.0 7.95 -7.0 8.05 -6.95 8.1 -6.95 8.2 -6.9 8.3 -6.85 8.4 -6.8 8.5 -6.75 8.55 -6.75 8.65 -6.75 8.75 -6.7 8.85 -6.7 8.95 -6.65 9.05 -6.65 9.1 -6.6 9.2 -6.6 9.3 -6.6 9.4 -6.6 9.5 -6.6 9.6 -6.6 9.7 -6.6 9.8 -6.55 9.85 -6.55 9.95 -6.5 10.05 -6.45 10.15 -6.45 10.25 -6.4 10.35 -6.35 10.45 -6.3 10.55 -6.2 10.6 -6.15 10.7 -6.05 10.8 -5.95 10.9 -5.9 11.0 -5.7 11.1 -5.45 11.15 -5.25 11.2 -4.35 11.25 -4.1 11.3 -3.9 11.35 -3.5 11.4 -3.5 11.5 -3.55 11.6 -3.55 11.7 -3.55 11.8 -3.6 11.85 -3.65 11.95 -3.65 12.05 -3.7 12.15 -3.7 12.25 -3.75 12.35 -3.75 12.45 -3.75 12.55 -3.8 12.6 -3.8 12.7 -3.85 12.8 -3.85 12.9 -3.9 13.0 -3.95 13.1 -3.95 13.2 -3.95 13.3 -4.0 13.35 -4.0 13.45 -4.0 13.55 -4.0 13.65 -4.0 13.75 -4.0 13.85 -4.0 13.95 -4.0 14.05 -4.0 14.1 -4.0 14.2 -4.0 14.3 -4.0 14.4 -4.0 14.5 -4.0 14.6 -4.0 14.7 -4.0 14.8 -4.0 14.85 -4.0 14.95 -4.0 15.05 -4.0 15.15 -4.0 15.25 -3.95 15.35 -3.95 15.45 -3.9 15.55 -3.9 15.6 -3.8 15.7 -3.7 15.8 -3.65 15.9 -3.55 16.0 -3.35 16.1 -3.1 16.15 -2.9 16.2 -2.1 16.25 -1.85 16.3 -1.65 16.35 1.35 16.35 1.55 16.3 1.7 16.3 1.85 16.2 2.05 16.15 2.2 16.1 2.35 16.05 2.5 15.95 2.65 15.85 2.75 15.8 2.8 15.85 3.05 15.9 3.25 15.95 3.35 15.95 3.55 15.9 3.75 15.85 3.95 15.75 4.05 15.65 4.15 15.55 4.2 15.45 4.3 15.35 4.35 15.3 4.4 15.2 4.45 15.1 4.5 15.0 4.55 14.9 4.55 14.8 4.6 14.7 4.6 14.6 4.6 14.55 4.6 14.45 4.65 14.35 4.7 14.25 4.7 14.15 4.7 14.05 4.7 13.95 4.7 13.85 4.7 13.8 4.7 13.7 4.7 13.6 4.7 13.5 4.7 13.4 4.7 13.3 4.7 13.2 4.7 13.1 4.7 13.05 4.7 12.95 4.7 12.85 4.7 12.75 4.7 12.65 4.7 12.55 4.7 12.45 4.7 12.35 4.7 12.3 4.7 12.2 4.7 12.1 4.7 12.0 4.7 11.9 4.7 11.8 4.7 11.7 4.7 11.6 4.7 11.55 4.7 11.45 4.7 11.35 4.7 11.25 4.7 11.15 4.7 11.05 4.7 10.95 4.7 10.9 4.85 10.85 5.85 10.85 6.05 10.8 6.2 10.8 6.35 10.7 6.5 10.6 6.8 10.55 6.95 10.55 7.05 10.5 7.15 10.45 7.3 10.35 7.45 10.25 7.6 10.15 7.75 10.05 7.9 9.95 8.0 9.85 8.15 9.8 8.3 9.7 8.45 9.6 8.6 9.5 8.7 9.4 8.8 9.3 8.85 9.2 8.95 9.1 9.0 9.05 9.05 8.95 9.05 8.85 9.1 8.75 9.2 8.65 9.2 8.55 9.25 8.45 9.3 8.35 9.3 8.3 9.35 8.2 9.35 8.1 9.35 8.0 9.35 7.9 9.35 7.8 9.35 7.7 9.35 7.6 9.35 7.55 9.35 7.45 9.35 7.35 9.35 7.25 9.35 7.15 9.35 7.05 9.35 6.95 9.35 6.85 9.35 6.8 9.3 6.7 9.3 6.6 9.3 6.5 9.25 6.4 9.2 6.3 9.1 6.2 9.1 6.1 9.05 6.05 9.05 5.95 9.0 5.85 8.95 5.75 8.9 5.65 8.85 5.55 8.8 5.45 8.75 5.35 8.7 5.3 8.7 5.2 8.6 5.1 8.55 5.0 8.5 4.9 8.45 4.8 8.35 4.7 8.3 4.6 8.3 4.55 8.2 4.45 8.1 4.35 8.05 4.25 8.0 4.15 7.95 4.05 7.85 3.95 7.8 3.85 7.7 3.8 7.7 3.7 7.65 3.6 7.6 3.5 7.6 3.4 7.6 3.3 7.6 3.2 7.6 3.1 7.6 3.05 7.6 2.95 7.6 2.85 7.6 2.75 7.6 2.65 7.6 2.55 7.6 2.45 7.55 2.35 7.55 2.3 7.5 2.2 7.45 2.1 7.4 2.0 7.35 1.95 7.4 1.85 7.45 1.75 7.5 1.65 7.55 1.55 7.55 1.45 7.6 1.35 7.6 1.3 7.6 1.2 7.6 1.1 7.6 1.0 7.65 0.9 7.65 0.8 7.7 0.7 7.7 0.6 7.75 0.5 7.8 0.4 7.8 0.3 7.85 0.2 7.95 0.1 8.0 0.05 8.05 -0.05 8.05 -0.15 8.1 -0.25 8.1 -0.35 8.15 -0.45 8.2 -0.55 8.2 -0.65 8.2 -0.7 8.2 -0.8 8.2 -0.9 8.25 -0.95 8.35 -1.05 8.4 -1.15 8.45 -1.25 8.5 -1.35 8.55 -1.45 8.55 -1.55 8.6 -1.65 8.6 -1.7 8.6 -1.8 8.6 -1.9 8.6 -2.0 8.6 -2.1 8.6 -2.2 8.6 -2.3 8.6 -2.4 8.6 -2.45 8.6 -2.55 8.6 -2.65 8.6 -2.75 8.6 -2.85 8.6 -2.95 8.65 -3.05 8.7 -3.15 8.75 -3.25 8.8 -3.35 8.8 -3.45 8.85 -3.55 8.85 -3.65 8.85 -3.7 8.85 -3.8 8.85 -3.9 8.85 -4.0 8.85 -4.1 8.8 -4.2 8.8 -4.3 8.75 -4.4 8.7 -4.45 8.7 -4.55 8.65 -4.65 8.6 -4.75 8.6 -4.85 8.55 -4.95 8.45 -5.05 8.4 -5.15 8.3 -5.2 8.3 -5.3 8.2 -5.4 8.15 -5.5 8.1 -5.6 8.05 -5.7 7.95 -5.8 7.9 -5.9 7.85 -5.9 7.85 -5.95 7.85 -6.05 7.85 -6.15 7.85 -6.25 7.85 -6.35 7.85 -6.45 7.85 -6.55 7.85 -6.65 7.85 -6.7 7.85 -6.8 7.85 -6.9 7.85 -7.0 7.8 -7.1 7.8 -7.2 7.75 -7.3 7.7 -7.4 7.7 -7.45 7.6 -7.55 7.55 -7.65 7.45 -7.75 7.35 -7.85 7.25 -7.95 7.15 -8.05 7.05 -8.15 6.95 -8.2 6.85 -8.3 6.8 -8.4 6.7 -8.5 6.6 -8.6 6.5 -8.7 6.4 -8.8 6.3 -8.9 6.3 -8.95 6.25 -9.05 6.2 -9.15 6.15 -9.25 6.1 -9.35 6.05 -9.45 5.95 -9.55 5.9 -9.65 5.8 -9.7 5.7 -9.8 5.6 -9.9 5.55 -10.0 5.45 -10.1 5.35 -10.2 5.25 -10.3 M10.7 10.65 L10.65 10.75 10.65 10.85 10.6 10.95 10.6 11.05 10.55 11.15 10.85 11.15 10.85 11.1 10.85 11.05 10.9 10.95 10.9 10.85 10.9 10.75 10.9 10.65 10.9 10.55 10.9 10.45 10.9 10.35 10.75 10.45 10.7 10.45 10.7 10.55 10.7 10.65 M-1.45 -13.45 L-1.5 -13.35 -1.55 -13.25 -1.55 -13.15 -1.55 -13.1 -1.2 -13.1 -1.25 -13.2 -1.3 -13.3 -1.3 -13.4 -1.35 -13.45 -1.45 -13.45 M-10.05 9.2 L-10.0 9.3 -9.95 9.4 -9.95 9.5 -9.9 9.6 -9.9 9.7 -9.85 9.75 -9.75 9.7 -9.7 9.7 -9.7 9.65 -9.8 9.55 -9.85 9.45 -9.9 9.35 -9.9 9.3 -9.95 9.2 -10.0 9.1 -10.05 9.0 -10.05 8.95 -10.1 9.05 -10.05 9.1 -10.05 9.2" fill="#666666" fill-rule="evenodd" stroke="none"/>
    <path d="M-10.8 24.55 L-10.8 24.5 -10.75 24.4 -10.7 24.3 -10.7 24.2 -10.65 24.1 -10.65 24.05 -10.65 23.95 -10.7 23.85 -10.7 23.75 -10.7 23.65 -10.75 23.55 -10.8 23.45 -10.9 23.35 -10.95 23.3 -11.05 23.2 -11.15 23.1 -11.35 23.0 -11.55 22.95 -11.6 22.9 -11.75 22.85 -11.95 22.8 -12.15 22.75 -12.3 22.7 -12.4 22.6 -12.6 22.5 -12.8 22.4 -12.95 22.3 -13.1 22.2 -13.25 22.1 -13.4 22.05 -13.55 21.95 -13.75 21.85 -13.95 21.75 -14.05 21.65 -14.15 21.55 -14.2 21.45 -14.25 21.35 -14.35 21.3 -14.45 21.2 -14.55 21.1 -14.65 21.0 -14.7 20.9 -14.8 20.8 -14.85 20.7 -14.95 20.6 -15.05 20.55 -15.15 20.45 -15.2 20.35 -15.3 20.25 -15.4 20.15 -15.5 20.05 -15.6 19.95 -15.7 19.85 -15.8 19.8 -15.9 19.7 -16.05 19.6 -16.1 19.5 -16.15 19.4 -16.2 19.3 -16.25 19.2 -16.3 19.1 -16.3 19.05 -16.4 18.95 -16.4 18.85 -16.35 18.75 -16.3 18.7 -16.3 18.6 -16.25 18.5 -16.25 18.4 -16.25 18.3 -16.25 18.2 -16.25 18.1 -16.25 18.0 -16.25 17.95 -16.25 17.85 -16.25 17.75 -16.25 17.65 -16.25 17.55 -16.25 17.45 -16.25 17.35 -16.25 17.25 -16.25 17.2 -16.25 17.1 -16.25 17.0 -16.25 16.9 -16.25 16.8 -16.25 16.7 -16.25 16.6 -16.25 16.5 -16.25 16.45 -16.25 16.35 -16.25 16.25 -16.25 16.15 -16.25 16.05 -16.25 15.95 -16.25 15.85 -16.25 15.75 -16.25 15.7 -16.25 15.6 -16.25 15.5 -16.25 15.4 -16.25 15.3 -16.25 15.2 -16.25 15.1 -16.25 15.0 -16.25 14.95 -16.25 14.85 -16.25 14.75 -16.25 14.65 -16.25 14.55 -16.25 14.45 -16.25 14.35 -16.25 14.25 -16.25 14.2 -16.25 14.1 -16.25 14.0 -16.25 13.9 -16.25 13.8 -16.25 13.7 -16.25 13.6 -16.25 13.5 -16.25 13.45 -16.25 13.35 -16.25 13.25 -16.25 13.15 -16.25 13.05 -16.25 12.95 -16.25 12.85 -16.25 12.75 -16.25 12.7 -16.25 12.6 -16.25 12.5 -16.2 12.4 -16.2 12.3 -16.15 12.2 -16.15 12.1 -16.15 12.0 -16.15 11.95 -16.1 11.85 -16.05 11.75 -16.05 11.65 -16.05 11.55 -16.0 11.45 -16.0 11.35 -16.0 11.25 -16.0 11.2 -16.0 11.1 -16.0 11.0 -16.0 10.9 -16.0 10.8 -16.0 10.7 -15.95 10.6 -15.9 10.5 -15.9 10.45 -15.9 10.35 -15.9 10.25 -15.9 10.15 -15.9 10.05 -15.9 9.95 -15.9 9.85 -15.85 9.75 -15.8 9.7 -15.8 9.6 -15.75 9.5 -15.75 9.4 -15.75 9.3 -15.75 9.2 -15.75 9.1 -15.75 9.0 -15.75 8.95 -15.75 8.85 -15.7 8.75 -15.65 8.65 -15.6 8.55 -15.55 8.45 -15.55 8.35 -15.5 8.25 -15.5 8.2 -15.5 8.1 -15.5 8.0 -15.45 7.9 -15.45 7.8 -15.4 7.7 -15.4 7.6 -15.45 7.5 -15.45 7.4 -15.45 7.3 -15.5 7.2 -15.55 7.1 -15.65 7.05 -15.65 6.95 -15.7 6.85 -15.7 6.75 -15.75 6.65 -15.75 6.55 -15.75 6.45 -15.8 6.35 -15.8 6.3 -15.85 6.2 -15.85 6.1 -15.85 6.0 -15.85 5.9 -15.85 5.8 -15.85 5.7 -15.85 5.6 -15.85 5.55 -15.85 5.45 -15.85 5.35 -15.9 5.25 -15.95 5.15 -15.95 5.05 -15.95 4.95 -16.0 4.85 -16.0 4.8 -16.0 4.7 -16.0 4.6 -16.0 4.5 -16.0 4.4 -16.0 4.3 -16.0 4.2 -16.0 4.1 -16.0 4.05 -16.0 3.95 -16.0 3.85 -16.0 3.75 -16.0 3.65 -16.0 3.55 -16.0 3.45 -16.0 3.35 -16.05 3.3 -16.05 3.2 -16.05 3.1 -16.1 3.0 -16.1 2.9 -16.1 2.8 -16.1 2.7 -16.1 2.6 -16.1 2.55 -16.1 2.45 -16.1 2.35 -16.1 2.25 -16.1 2.15 -16.1 2.05 -16.1 1.95 -16.1 1.85 -16.1 1.8 -16.1 1.7 -16.1 1.6 -16.1 1.5 -16.1 1.4 -16.1 1.3 -16.1 1.2 -16.1 1.1 -16.1 1.05 -16.1 0.95 -16.1 0.85 -16.1 0.75 -16.1 0.65 -16.1 0.55 -16.1 0.45 -16.1 0.35 -16.1 0.3 -16.1 0.2 -16.1 0.1 -16.1 0.0 -16.1 -0.1 -16.05 -0.2 -16.05 -0.3 -16.0 -0.4 -15.95 -0.45 -15.95 -0.55 -15.95 -0.65 -15.9 -0.75 -15.85 -0.85 -15.85 -0.95 -15.85 -1.05 -15.85 -1.15 -15.8 -1.2 -15.8 -1.3 -15.8 -1.4 -15.75 -1.5 -15.75 -1.6 -15.75 -1.7 -15.75 -1.8 -15.75 -1.9 -15.7 -1.95 -15.7 -2.05 -15.7 -2.15 -15.65 -2.25 -15.6 -2.35 -15.55 -2.45 -15.5 -2.55 -15.5 -2.65 -15.45 -2.7 -15.45 -2.8 -15.45 -2.9 -15.4 -3.0 -15.35 -3.1 -15.35 -3.2 -15.35 -3.3 -15.35 -3.4 -15.35 -3.45 -15.35 -3.55 -15.35 -3.65 -15.3 -3.75 -15.3 -3.85 -15.25 -3.95 -15.25 -4.05 -15.25 -4.15 -15.2 -4.2 -15.2 -4.3 -15.2 -4.4 -15.2 -4.45 -15.15 -4.5 -15.1 -4.6 -15.1 -4.7 -15.1 -4.8 -15.1 -4.9 -15.1 -4.95 -15.1 -5.05 -15.1 -5.15 -15.05 -5.25 -15.05 -5.35 -15.05 -5.4 -15.05 -5.5 -15.05 -5.6 -15.1 -5.7 -15.15 -5.8 -15.15 -5.9 -15.15 -6.0 -15.15 -6.05 -15.15 -6.15 -15.15 -6.25 -15.15 -6.35 -15.15 -6.45 -15.15 -6.55 -15.15 -6.65 -15.2 -6.75 -15.25 -6.8 -15.25 -6.9 -15.25 -7.0 -15.25 -7.1 -15.25 -7.2 -15.25 -7.3 -15.25 -7.4 -15.25 -7.5 -15.25 -7.55 -15.25 -7.65 -15.25 -7.75 -15.25 -7.85 -15.3 -7.95 -15.3 -8.05 -15.35 -8.15 -15.4 -8.25 -15.4 -8.3 -15.4 -8.4 -15.4 -8.5 -15.4 -8.6 -15.4 -8.7 -15.4 -8.8 -15.4 -8.9 -15.4 -9.0 -15.4 -9.05 -15.4 -9.15 -15.4 -9.25 -15.4 -9.35 -15.4 -9.45 -15.4 -9.55 -15.4 -9.65 -15.4 -9.75 -15.4 -9.8 -15.4 -9.9 -15.4 -10.0 -15.4 -10.1 -15.4 -10.2 -15.4 -10.3 -15.4 -10.4 -15.4 -10.5 -15.4 -10.55 -15.4 -10.65 -15.4 -10.75 -15.4 -10.85 -15.4 -10.95 -15.4 -11.05 -15.4 -11.15 -15.4 -11.25 -15.4 -11.3 -15.4 -11.4 -15.4 -11.5 -15.4 -11.6 -15.4 -11.7 -15.4 -11.8 -15.4 -11.9 -15.4 -12.0 -15.4 -12.05 -15.4 -12.15 -15.4 -12.25 -15.4 -12.35 -15.4 -12.45 -15.4 -12.55 -15.4 -12.65 -15.4 -12.75 -15.4 -12.8 -15.4 -12.9 -15.4 -13.0 -15.4 -13.1 -15.4 -13.2 -15.4 -13.3 -15.4 -13.4 -15.4 -13.5 -15.4 -13.55 -15.4 -13.65 -15.4 -13.75 -15.4 -13.85 -15.4 -13.95 -15.4 -14.05 -15.4 -14.15 -15.4 -14.25 -15.4 -14.3 -15.4 -14.4 -15.45 -14.5 -15.45 -14.6 -15.5 -14.7 -15.5 -14.8 -15.5 -14.9 -15.5 -15.0 -15.5 -15.05 -15.5 -15.15 -15.5 -15.25 -15.5 -15.35 -15.5 -15.45 -15.5 -15.55 -15.5 -15.65 -15.5 -15.75 -15.5 -15.8 -15.5 -15.9 -15.5 -16.0 -15.5 -16.1 -15.5 -16.2 -15.5 -16.3 -15.5 -16.4 -15.5 -16.5 -15.5 -16.55 -15.5 -16.65 -15.5 -16.75 -15.5 -16.85 -15.5 -16.95 -15.5 -17.05 -15.5 -17.15 -15.5 -17.25 -15.55 -17.3 -15.55 -17.4 -15.6 -17.5 -15.65 -17.6 -15.65 -17.7 -15.65 -17.8 -15.65 -17.9 -15.65 -18.0 -15.65 -18.05 -15.65 -18.15 -15.7 -18.25 -15.7 -18.35 -15.75 -18.45 -15.75 -18.55 -15.75 -18.65 -15.75 -18.75 -15.75 -18.8 -15.75 -18.9 -15.8 -19.0 -15.8 -19.1 -15.8 -19.2 -15.85 -19.3 -15.9 -19.4 -15.9 -19.5 -15.9 -19.55 -15.8 -19.65 -15.75 -19.75 -15.65 -19.85 -15.55 -19.95 -15.55 -20.05 -15.45 -20.15 -15.4 -20.25 -15.3 -20.3 -15.25 -20.4 -15.15 -20.5 -15.05 -20.6 -15.0 -20.7 -14.9 -20.8 -14.9 -20.9 -14.85 -21.0 -14.75 -21.05 -14.65 -21.15 -14.6 -21.25 -14.55 -21.35 -14.4 -21.45 -14.25 -21.55 -14.1 -21.65 -14.0 -21.75 -13.9 -21.8 -13.85 -21.9 -13.8 -22.0 -13.75 -22.1 -13.75 -22.2 -13.7 -22.25 -9.2 -22.25 -9.05 -22.2 -8.85 -22.15 -8.2 -22.1 -7.95 -22.05 -7.75 -22.0 -5.2 -22.0 -5.05 -21.95 -4.85 -21.9 0.5 -21.9 0.7 -21.95 0.85 -22.0 3.15 -22.0 3.35 -22.05 3.5 -22.05 3.65 -22.15 3.95 -22.2 4.1 -22.25 8.0 -22.25 8.2 -22.3 8.4 -22.35 8.55 -22.25 8.8 -22.2 9.0 -22.15 9.2 -22.2 9.4 -22.25 9.6 -22.35 10.0 -22.35 10.0 -22.25 11.6 -22.25 11.8 -22.2 12.0 -22.15 12.2 -22.05 12.3 -21.95 12.4 -21.9 12.5 -21.8 12.6 -21.7 12.7 -21.6 12.8 -21.5 12.85 -21.4 12.95 -21.3 13.05 -21.2 13.05 -21.15 13.1 -21.05 13.2 -20.95 13.25 -20.85 13.3 -20.75 13.3 -20.65 13.3 -20.55 13.35 -20.45 13.35 -20.4 13.35 -20.3 13.4 -20.2 13.4 -20.15 13.45 -20.05 13.5 -19.95 13.55 -19.9 13.55 -19.8 13.6 -19.7 13.6 -19.6 13.65 -19.5 13.65 -19.4 13.65 -19.3 13.65 -19.2 13.65 -19.15 13.65 -19.05 13.7 -18.95 13.7 -18.85 13.7 -18.75 13.75 -18.65 13.8 -18.55 13.85 -18.45 13.9 -18.4 13.9 -18.3 13.9 -18.2 13.9 -18.1 13.9 -18.0 13.95 -17.9 13.95 -17.8 13.95 -17.7 14.0 -17.65 14.05 -17.55 14.05 -17.45 14.05 -17.35 14.1 -17.25 14.15 -17.15 14.15 -17.05 14.2 -17.0 14.15 -16.95 14.15 -16.85 14.15 -16.75 14.15 -16.65 14.1 -16.55 14.1 -16.45 14.1 -16.35 14.1 -16.25 14.15 -16.15 14.15 -16.05 14.2 -15.95 14.2 -15.9 14.25 -15.8 14.3 -15.7 14.3 -15.6 14.35 -15.5 14.35 -15.4 14.35 -15.3 14.35 -15.2 14.35 -15.15 14.35 -15.05 14.4 -14.95 14.4 -14.85 14.45 -14.75 14.45 -14.65 14.45 -14.55 14.45 -14.45 14.45 -14.4 14.45 -14.3 14.5 -14.2 14.55 -14.1 14.55 -14.0 14.55 -13.9 14.6 -13.8 14.6 -13.7 14.65 -13.65 14.7 -13.55 14.7 -13.45 14.7 -13.35 14.7 -13.25 14.75 -13.15 14.8 -13.05 14.8 -12.95 14.85 -12.9 14.85 -12.8 14.85 -12.7 14.85 -12.6 14.85 -12.5 14.85 -12.4 14.85 -12.3 14.85 -12.2 14.9 -12.15 14.95 -12.05 14.95 -11.95 14.95 -11.85 14.95 -11.75 14.95 -11.65 15.0 -11.55 15.05 -11.45 15.05 -11.4 15.1 -11.3 15.1 -11.2 15.1 -11.1 15.1 -11.0 15.1 -10.9 15.1 -10.8 15.1 -10.7 15.1 -10.65 15.1 -10.55 15.1 -10.45 15.1 -10.35 15.1 -10.25 15.1 -10.15 15.1 -10.05 15.1 -9.95 15.1 -9.9 15.1 -9.8 15.1 -9.7 15.1 -9.6 15.1 -9.5 15.1 -9.4 15.1 -9.3 15.1 -9.2 15.1 -9.15 15.1 -9.05 15.1 -8.95 15.1 -8.85 15.1 -8.75 15.1 -8.65 15.1 -8.55 15.1 -8.45 15.1 -8.4 15.1 -8.3 15.1 -8.2 15.1 -8.1 15.1 -8.0 15.1 -7.9 15.1 -7.8 15.1 -7.7 15.1 -7.65 15.1 -7.55 15.1 -7.45 15.1 -7.35 15.1 -7.25 15.1 -7.15 15.1 -7.05 15.1 -6.95 15.1 -6.9 15.1 -6.8 15.1 -6.7 15.1 -6.6 15.1 -6.5 15.1 -6.4 15.1 -6.3 15.1 -6.2 15.1 -6.15 15.1 -6.05 15.1 -5.95 15.1 -5.85 15.1 -5.75 15.1 -5.65 15.1 -5.55 15.1 -5.45 15.1 -5.4 15.1 -5.3 15.1 -5.2 15.1 -5.1 15.1 -5.0 15.1 -4.9 15.1 -4.8 15.1 -4.7 15.1 -4.65 15.1 -4.55 15.1 -4.45 15.1 -4.35 15.1 -4.25 15.1 -4.15 15.1 -4.05 15.1 -3.95 15.1 -3.9 15.1 -3.8 15.1 -3.7 15.1 -3.6 15.1 -3.5 15.1 -3.4 15.1 -3.3 15.1 -3.2 15.1 -3.15 15.1 -3.05 15.05 -2.95 15.05 -2.85 15.0 -2.75 14.95 -2.65 14.95 -2.55 14.95 -2.45 14.95 -2.4 14.95 -2.3 14.95 -2.2 14.95 -2.1 14.95 -2.0 14.95 -1.9 14.95 -1.8 14.95 -1.7 14.95 -1.65 14.95 -1.55 14.95 -1.45 14.95 -1.35 14.9 -1.25 14.9 -1.15 14.85 -1.05 14.85 -0.95 14.85 -0.9 14.85 -0.8 14.85 -0.7 14.85 -0.6 14.85 -0.5 14.85 -0.4 14.85 -0.3 14.85 -0.2 14.85 -0.15 14.85 -0.05 14.85 0.05 14.85 0.15 14.8 0.25 14.8 0.35 14.8 0.45 14.75 0.55 14.7 0.6 14.7 0.7 14.7 0.8 14.7 0.9 14.7 1.0 14.7 1.1 14.7 1.2 14.7 1.3 14.7 1.35 14.7 1.45 14.7 1.55 14.7 1.65 14.7 1.75 14.7 1.85 14.7 1.95 14.7 2.05 14.7 2.1 14.7 2.2 14.7 2.3 14.7 2.4 14.7 2.5 14.7 2.6 14.7 2.7 14.65 2.8 14.65 2.85 14.6 2.95 14.6 3.05 14.6 3.15 14.6 3.25 14.6 3.35 14.6 3.45 14.6 3.55 14.6 3.6 14.6 3.7 14.6 3.8 14.6 3.9 14.6 4.0 14.6 4.1 14.6 4.2 14.6 4.3 14.6 4.35 14.6 4.45 14.6 4.55 14.6 4.65 14.6 4.75 14.6 4.85 14.6 4.95 14.6 5.05 14.6 5.1 14.6 5.2 14.6 5.3 14.6 5.4 14.6 5.5 14.6 5.6 14.6 5.7 14.6 5.8 14.6 5.85 14.6 5.95 14.6 6.05 14.6 6.15 14.6 6.25 14.6 6.35 14.6 6.45 14.6 6.55 14.6 6.6 14.6 6.7 14.65 6.8 14.65 6.9 14.7 7.0 14.7 7.1 14.7 7.2 14.7 7.3 14.7 7.35 14.7 7.45 14.7 7.55 14.7 7.65 14.7 7.75 14.7 7.85 14.7 7.95 14.7 8.05 14.75 8.1 14.8 8.2 14.8 8.3 14.85 8.4 14.85 8.5 14.85 8.6 14.85 8.7 14.85 8.8 14.85 8.85 14.85 8.95 14.9 9.05 14.9 9.15 14.95 9.25 15.0 9.35 15.05 9.45 15.05 9.55 15.1 9.6 15.1 9.7 15.1 9.8 15.1 9.9 15.1 10.0 15.1 10.1 15.1 10.2 15.1 10.3 15.1 10.35 15.1 10.45 15.1 10.55 15.1 10.65 15.1 10.75 15.1 10.85 15.1 10.95 15.1 11.05 15.1 11.1 15.1 11.2 15.1 11.3 15.1 11.4 15.1 11.5 15.1 11.6 15.1 11.7 15.1 11.8 15.1 11.85 15.1 11.95 15.1 12.05 15.1 12.15 15.1 12.25 15.15 12.35 15.15 12.45 15.2 12.55 15.2 12.6 15.2 12.7 15.2 12.8 15.2 12.9 15.2 13.0 15.2 13.1 15.2 13.2 15.2 13.3 15.2 13.35 15.2 13.45 15.2 13.55 15.2 13.65 15.2 13.75 15.2 13.85 15.2 13.95 15.2 14.05 15.2 14.1 15.2 14.2 15.2 14.3 15.2 14.4 15.2 14.5 15.2 14.6 15.2 14.7 15.2 14.8 15.2 14.85 15.2 14.95 15.25 15.05 15.3 15.15 15.3 15.25 15.3 15.35 15.35 15.45 15.35 15.55 15.35 15.6 15.35 15.7 15.35 15.8 15.35 15.9 15.35 16.0 15.35 16.1 15.35 16.2 15.35 16.3 15.35 16.35 15.35 16.45 15.35 16.55 15.35 16.65 15.35 16.75 15.35 16.85 15.35 16.95 15.35 17.05 15.35 17.1 15.35 17.2 15.35 17.3 15.35 17.4 15.35 17.5 15.4 17.6 15.45 17.7 15.45 17.8 15.5 17.85 15.45 17.9 15.4 18.0 15.35 18.1 15.3 18.2 15.3 18.3 15.25 18.35 15.2 18.45 15.1 18.55 15.1 18.65 15.05 18.75 15.0 18.85 14.95 18.95 14.9 19.05 14.85 19.1 14.8 19.2 14.8 19.3 14.7 19.4 14.65 19.5 14.6 19.6 14.55 19.7 14.55 19.8 14.55 19.85 14.45 19.95 14.4 20.05 14.3 20.15 14.25 20.25 14.2 20.35 14.2 20.45 14.15 20.55 14.1 20.6 14.05 20.7 14.0 20.8 13.9 20.9 13.85 21.0 13.8 21.1 13.8 21.2 13.75 21.3 13.6 21.35 13.35 21.45 13.15 21.55 12.9 21.6 12.7 21.7 12.55 21.8 12.35 21.85 12.1 21.95 11.9 22.05 11.75 22.05 11.6 22.1 11.45 22.2 11.35 22.3 11.2 22.4 10.9 22.5 10.55 22.6 10.25 22.65 10.05 22.7 9.9 22.7 9.75 22.75 9.55 22.8 9.4 22.8 9.25 22.85 9.05 22.95 8.8 23.0 8.6 23.1 8.55 23.2 8.45 23.3 8.35 23.35 8.3 23.45 8.25 23.55 8.2 23.65 8.2 23.75 8.15 23.85 8.15 23.95 8.15 24.05 8.15 24.1 8.15 24.2 8.15 24.3 8.15 24.4 8.2 24.5 8.2 24.6 8.25 24.7 8.3 24.8 8.35 24.85 3.15 24.85 1.0 25.2 -2.65 25.1 -3.05 25.0 -3.45 24.9 -3.65 24.85 -4.05 24.75 -4.45 24.65 -4.55 24.65 -10.8 24.55 M10.55 -13.4 L10.55 -13.45 10.5 -13.55 10.5 -13.65 10.45 -13.75 10.45 -13.85 10.4 -13.95 10.3 -14.05 10.2 -14.15 10.1 -14.2 10.0 -14.3 9.9 -14.4 9.85 -14.5 9.8 -14.6 9.7 -14.7 9.7 -14.8 9.6 -14.9 9.5 -14.95 9.4 -15.05 9.3 -15.15 9.15 -15.25 8.95 -15.35 8.85 -15.45 8.8 -15.55 8.7 -15.65 8.45 -15.7 8.3 -15.8 8.1 -15.9 7.95 -16.0 7.85 -16.1 7.6 -16.15 7.4 -16.2 7.15 -16.25 -5.7 -16.25 -5.85 -16.15 -5.9 -16.05 -6.0 -15.95 -6.1 -15.9 -6.25 -15.8 -6.45 -15.7 -6.55 -15.6 -6.65 -15.5 -6.7 -15.4 -6.75 -15.3 -6.8 -15.2 -6.9 -15.15 -7.0 -15.05 -7.05 -14.95 -7.15 -14.85 -7.2 -14.75 -7.3 -14.65 -7.35 -14.55 -7.4 -14.45 -7.5 -14.4 -7.6 -14.3 -7.7 -14.2 -7.8 -14.1 -7.9 -14.0 -7.95 -13.9 -8.0 -13.8 -8.05 -13.7 -8.15 -13.65 -8.2 -13.55 -8.2 -13.45 -8.3 -13.35 -8.4 -13.25 -8.45 -13.15 -8.55 -13.05 -8.65 -12.95 -8.7 -12.9 -8.75 -12.8 -8.8 -12.7 -8.8 -12.6 -8.9 -12.5 -8.95 -12.4 -8.95 -12.3 -9.0 -12.2 -9.05 -12.15 -9.15 -12.05 -9.2 -11.95 -9.2 -11.85 -9.3 -11.75 -9.35 -11.65 -9.4 -11.55 -9.45 -11.45 -9.5 -11.4 -9.55 -11.3 -9.55 -11.2 -9.65 -11.1 -9.7 -11.0 -9.7 -10.9 -9.7 -10.8 -9.75 -10.7 -9.8 -10.65 -9.9 -10.55 -9.95 -10.45 -10.0 -10.35 -10.05 -10.25 -10.1 -10.15 -10.15 -10.05 -10.15 -9.95 -10.15 -9.9 -10.15 -9.8 -10.2 -9.7 -10.2 -9.6 -10.25 -9.5 -10.3 -9.4 -10.35 -9.3 -10.35 -9.2 -10.4 -9.15 -10.4 -9.05 -10.4 -8.95 -10.4 -8.85 -10.4 -8.75 -10.4 -8.65 -10.4 -8.55 -10.4 -8.45 -10.4 -8.4 -10.45 -8.3 -10.45 -8.2 -10.5 -8.1 -10.55 -8.0 -10.6 -7.9 -10.65 -7.8 -10.65 -7.7 -10.65 -7.65 -10.65 -7.55 -10.65 -7.45 -10.65 -7.35 -10.65 -7.25 -10.65 -7.15 -10.65 -7.05 -10.65 -6.95 -10.65 -6.9 -10.7 -6.8 -10.7 -6.7 -10.75 -6.6 -10.8 -6.5 -10.8 -6.4 -10.8 -6.3 -10.85 -6.2 -10.85 -6.15 -10.9 -6.05 -10.9 -5.95 -10.9 -5.85 -10.9 -5.75 -10.9 -5.65 -10.9 -5.55 -10.9 -5.45 -10.9 -5.4 -10.9 -5.3 -10.9 -5.2 -10.9 -5.1 -10.9 -5.0 -10.9 -4.9 -10.95 -4.8 -10.95 -4.7 -11.0 -4.65 -11.05 -4.55 -11.05 -4.45 -11.05 -4.35 -11.05 -4.25 -11.05 -4.15 -11.05 -4.05 -11.05 -3.95 -11.05 -3.9 -11.05 -3.8 -11.05 -3.7 -11.05 -3.6 -11.05 -3.5 -11.05 -3.4 -11.05 -3.3 -11.05 -3.2 -11.05 -3.15 -11.05 -3.05 -11.05 -2.95 -11.05 -2.85 -11.05 -2.75 -11.05 -2.65 -11.05 -2.55 -11.05 -2.45 -11.05 -2.4 -11.05 -2.3 -11.05 -2.2 -11.05 -2.1 -11.05 -2.0 -11.05 -1.9 -11.05 -1.8 -11.05 -1.7 -11.05 -1.65 -11.05 -1.55 -11.05 -1.45 -11.05 -1.35 -11.05 -1.25 -11.05 -1.15 -11.05 -1.05 -11.05 -0.95 -11.05 -0.9 -11.05 -0.8 -11.05 -0.7 -11.05 -0.6 -11.05 -0.5 -11.05 -0.4 -11.05 -0.3 -11.05 -0.2 -11.05 -0.15 -11.05 -0.05 -11.05 0.05 -11.05 0.15 -11.05 0.25 -11.05 0.35 -11.05 0.45 -11.05 0.55 -11.05 0.6 -11.05 0.7 -11.05 0.8 -11.05 0.9 -11.05 1.0 -11.05 1.1 -11.05 1.2 -11.05 1.3 -11.05 1.35 -11.05 1.45 -11.05 1.55 -11.05 1.65 -11.05 1.75 -11.05 1.85 -11.05 1.95 -11.05 2.05 -11.05 2.1 -11.05 2.2 -11.05 2.3 -11.05 2.4 -11.05 2.5 -11.05 2.6 -11.05 2.7 -11.05 2.8 -11.05 2.85 -11.05 2.95 -11.05 3.05 -11.05 3.15 -11.05 3.25 -11.05 3.35 -11.05 3.45 -11.05 3.55 -11.05 3.6 -11.05 3.7 -11.05 3.8 -11.05 3.9 -11.05 4.0 -11.05 4.1 -11.05 4.2 -11.05 4.3 -11.05 4.35 -11.05 4.45 -11.05 4.55 -11.05 4.65 -11.05 4.75 -11.05 4.85 -11.05 4.95 -11.05 5.05 -11.05 5.1 -11.05 5.2 -11.05 5.3 -11.0 5.4 -10.95 5.5 -10.95 5.6 -10.95 5.7 -10.9 5.8 -10.9 5.85 -10.9 5.95 -10.9 6.05 -10.9 6.15 -10.85 6.25 -10.8 6.35 -10.75 6.45 -10.7 6.55 -10.7 6.6 -10.65 6.7 -10.65 6.8 -10.65 6.9 -10.65 7.0 -10.65 7.1 -10.65 7.2 -10.65 7.3 -10.65 7.35 -10.65 7.45 -10.65 7.55 -10.65 7.65 -10.65 7.75 -10.6 7.85 -10.6 7.95 -10.55 8.05 -10.55 8.1 -10.55 8.2 -10.55 8.3 -10.55 8.4 -10.55 8.5 -10.55 8.6 -10.55 8.7 -10.55 8.8 -10.55 8.85 -10.55 8.95 -10.55 9.05 -10.55 9.15 -10.55 9.25 -10.55 9.35 -10.55 9.45 -10.55 9.55 -10.55 9.6 -10.55 9.7 -10.55 9.8 -10.55 9.9 -10.55 10.0 -10.55 10.1 -10.55 10.2 -10.55 10.3 -10.55 10.35 -10.55 10.45 -10.55 10.55 -10.55 10.65 -10.55 10.75 -10.55 10.85 -10.5 10.95 -10.45 11.05 -10.45 11.1 -10.4 11.2 -10.4 11.3 -10.4 11.4 -10.4 11.5 -10.4 11.6 -10.4 11.7 -10.4 11.8 -10.4 11.85 -10.4 11.95 -10.4 12.05 -10.4 12.15 -10.4 12.25 -10.4 12.35 -10.4 12.45 -10.4 12.55 -10.4 12.6 -10.4 12.7 -10.4 12.8 -10.4 12.9 -10.35 13.0 -10.3 13.1 -10.25 13.2 -10.2 13.3 -10.2 13.35 -10.15 13.45 -10.05 13.55 -10.0 13.65 -9.95 13.75 -9.9 13.85 -9.8 13.95 -9.8 14.05 -9.75 14.1 -9.7 14.2 -9.65 14.3 -9.55 14.4 -9.5 14.5 -9.45 14.6 -9.4 14.7 -9.3 14.8 -9.2 14.85 -9.15 14.95 -9.05 15.05 -9.0 15.15 -8.95 15.25 -8.95 15.35 -8.9 15.45 -8.8 15.55 -8.8 15.6 -8.75 15.7 -8.65 15.8 -8.6 15.9 -8.45 16.0 -8.4 16.1 -8.3 16.2 -8.2 16.3 -8.2 16.35 -8.15 16.45 -8.05 16.55 -8.0 16.65 -7.95 16.75 -7.9 16.85 -7.8 16.95 -7.75 17.0 -7.6 17.0 -7.55 17.05 -7.4 17.1 -7.15 17.2 -7.0 17.3 -6.9 17.4 -7.0 17.45 -7.1 17.55 -7.2 17.65 -7.15 17.7 -7.05 17.8 -6.95 17.85 -6.9 17.95 -6.8 18.05 -6.7 18.15 -6.55 18.25 -6.45 18.35 -6.4 18.45 -6.3 18.55 -6.15 18.6 -6.0 18.7 -5.9 18.8 -5.8 18.9 -5.75 19.0 -5.7 19.1 -5.65 19.2 -5.55 19.3 -5.5 19.35 -5.35 19.45 -5.25 19.55 -5.2 19.55 -5.15 19.65 -5.1 19.75 -5.05 19.85 -4.9 19.95 -4.8 20.05 -4.65 20.1 -4.55 20.2 -4.4 20.2 0.75 20.25 0.95 20.3 1.15 20.35 2.9 20.35 3.15 20.3 3.35 20.25 3.9 20.2 4.05 20.2 4.3 20.1 4.5 20.05 4.65 19.95 4.8 19.95 5.0 19.85 5.2 19.8 5.35 19.7 5.45 19.6 5.55 19.5 5.65 19.4 5.75 19.3 5.85 19.2 5.95 19.1 6.05 19.05 6.1 18.95 6.2 18.85 6.3 18.75 6.4 18.65 6.5 18.55 6.6 18.45 6.7 18.35 6.75 18.3 6.8 18.2 6.85 18.1 6.9 18.0 7.0 17.9 7.05 17.8 7.1 17.7 7.2 17.6 7.3 17.55 7.3 17.45 7.35 17.35 7.4 17.25 7.5 17.15 7.6 17.05 7.65 16.95 7.7 16.85 7.75 16.8 7.8 16.7 7.8 16.6 7.85 16.5 7.9 16.4 8.0 16.3 8.1 16.2 8.2 16.1 8.25 16.05 8.3 15.95 8.35 15.85 8.4 15.75 8.45 15.65 8.55 15.55 8.6 15.45 8.7 15.35 8.8 15.3 8.8 15.2 8.85 15.1 8.9 15.0 9.0 14.9 9.1 14.8 9.2 14.7 9.3 14.6 9.35 14.55 9.45 14.45 9.55 14.35 9.6 14.25 9.65 14.15 9.75 14.05 9.8 13.95 9.85 13.85 9.9 13.8 9.95 13.7 10.05 13.6 10.05 13.5 10.1 13.4 10.1 13.3 10.2 13.2 10.3 13.1 10.35 13.05 10.45 12.95 10.5 12.85 10.55 12.75 10.65 12.65 10.7 12.55 10.8 12.45 10.8 12.35 10.85 12.3 10.9 12.2 10.95 12.1 11.05 12.0 11.05 11.9 11.1 11.8 11.1 11.7 11.2 11.6 11.25 11.55 11.25 11.45 11.3 11.35 11.3 11.25 11.35 11.15 11.35 11.05 11.45 10.95 11.5 10.85 11.5 10.8 11.5 10.7 11.5 10.6 11.5 10.5 11.5 10.4 11.5 10.3 11.5 10.2 11.5 10.1 11.5 10.05 11.5 9.95 11.5 9.85 11.5 9.75 11.5 9.65 11.5 9.55 11.5 9.45 11.5 9.35 11.5 9.3 11.5 9.2 11.5 9.1 11.5 9.0 11.5 8.9 11.5 8.8 11.5 8.7 11.5 8.6 11.5 8.55 11.5 8.45 11.5 8.35 11.5 8.25 11.5 8.15 11.5 8.05 11.5 7.95 11.5 7.85 11.5 7.8 11.5 7.7 11.5 7.6 11.5 7.5 11.5 7.4 11.5 7.3 11.5 7.2 11.5 7.1 11.5 7.05 11.5 6.95 11.5 6.85 11.5 6.75 11.5 6.65 11.5 6.55 11.5 6.45 11.5 6.35 11.5 6.3 11.5 6.2 11.5 6.1 11.5 6.0 11.5 5.9 11.5 5.8 11.5 5.7 11.5 5.6 11.5 5.55 11.5 5.45 11.5 5.35 11.5 5.25 11.5 5.15 11.5 5.05 11.55 4.95 11.55 4.85 11.6 4.8 11.65 4.7 11.7 4.6 11.8 4.5 11.9 4.4 12.05 4.3 12.15 4.25 12.25 4.2 12.4 4.2 12.4 4.1 12.4 4.0 12.4 3.9 12.4 3.8 12.4 3.7 12.4 3.6 12.4 3.55 12.4 3.45 12.4 3.35 12.4 3.25 12.4 3.15 12.4 3.05 12.4 2.95 12.4 2.85 12.4 2.8 12.4 2.7 12.4 2.6 12.4 2.5 12.4 2.4 12.45 2.3 12.45 2.2 12.5 2.1 12.5 2.05 12.5 1.95 12.5 1.85 12.5 1.75 12.5 1.65 12.5 1.55 12.5 1.45 12.5 1.35 12.5 1.3 12.5 1.2 12.5 1.1 12.5 1.0 12.5 0.9 12.5 0.8 12.5 0.7 12.5 0.6 12.5 0.55 12.5 0.45 12.5 0.35 12.5 0.25 12.5 0.15 12.5 0.05 12.55 -0.05 12.55 -0.15 12.6 -0.2 12.6 -0.3 12.65 -0.4 12.65 -0.5 12.65 -0.6 12.65 -0.7 12.65 -0.8 12.65 -0.9 12.65 -0.95 12.65 -1.05 12.65 -1.15 12.65 -1.25 12.65 -1.35 12.65 -1.45 12.7 -1.55 12.7 -1.65 12.75 -1.7 12.75 -1.8 12.75 -1.9 12.75 -2.0 12.75 -2.1 12.75 -2.2 12.75 -2.3 12.75 -2.4 12.75 -2.45 12.75 -2.55 12.75 -2.65 12.75 -2.75 12.75 -2.85 12.75 -2.95 12.75 -3.05 12.75 -3.15 12.8 -3.2 12.8 -3.3 12.8 -3.4 12.85 -3.5 12.9 -3.6 12.9 -3.7 12.9 -3.8 12.9 -3.9 12.9 -3.95 12.9 -4.05 12.9 -4.15 12.9 -4.25 12.9 -4.35 12.9 -4.45 12.9 -4.55 12.9 -4.65 12.9 -4.7 12.9 -4.8 12.9 -4.9 12.9 -5.0 12.9 -5.1 12.9 -5.2 12.9 -5.3 12.9 -5.4 12.9 -5.45 12.9 -5.55 12.9 -5.65 12.9 -5.75 12.9 -5.85 12.9 -5.95 12.9 -6.05 12.9 -6.15 12.9 -6.2 12.9 -6.3 12.9 -6.4 12.9 -6.5 12.9 -6.6 12.9 -6.7 12.9 -6.8 12.9 -6.9 12.9 -6.95 12.9 -7.05 12.9 -7.15 12.9 -7.25 12.9 -7.35 12.9 -7.45 12.9 -7.55 12.9 -7.65 12.9 -7.7 12.9 -7.8 12.9 -7.9 12.9 -8.0 12.9 -8.1 12.9 -8.2 12.9 -8.3 12.9 -8.4 12.9 -8.45 12.9 -8.55 12.9 -8.65 12.9 -8.75 12.9 -8.85 12.9 -8.95 12.9 -9.05 12.9 -9.15 12.9 -9.2 12.9 -9.3 12.9 -9.4 12.9 -9.5 12.9 -9.6 12.9 -9.7 12.9 -9.8 12.9 -9.9 12.9 -9.95 12.9 -10.05 12.9 -10.15 12.9 -10.25 12.9 -10.35 12.9 -10.45 12.9 -10.55 12.9 -10.65 12.85 -10.65 12.65 -10.7 12.4 -10.75 12.2 -10.85 12.1 -10.95 12.05 -11.05 11.95 -11.15 11.85 -11.2 11.75 -11.3 11.65 -11.4 11.6 -11.5 11.55 -11.6 11.5 -11.7 11.45 -11.8 11.35 -11.9 11.3 -11.95 11.25 -12.05 11.2 -12.15 11.2 -12.25 11.1 -12.35 11.05 -12.45 11.0 -12.55 10.95 -12.65 10.85 -12.7 10.8 -12.8 10.8 -12.85 10.75 -12.9 10.7 -13.0 10.7 -13.1 10.65 -13.2 10.6 -13.3 10.55 -13.4 M12.95 15.3 L12.85 15.4 12.8 15.5 12.75 15.6 12.7 15.7 12.65 15.75 12.8 15.75 12.95 15.8 13.1 15.85 13.1 15.8 13.05 15.7 13.05 15.6 13.0 15.55 13.0 15.45 13.0 15.35 13.0 15.25 13.0 15.15 13.0 15.1 12.95 15.2 12.95 15.3" fill="#515151" fill-rule="evenodd" stroke="none"/>
    <path d="M-18.2 24.85 L-18.25 24.8 -18.45 24.7 -18.55 24.6 -18.65 24.55 -18.75 24.45 -18.85 24.35 -19.15 24.55 -19.2 24.6 -19.35 24.6 -19.55 24.65 -19.75 24.6 -19.95 24.55 -20.15 24.45 -20.25 24.35 -20.35 24.25 -20.4 24.2 -20.45 24.1 -20.5 24.0 -20.55 23.9 -20.55 23.8 -20.55 23.7 -20.55 23.6 -20.55 23.5 -20.6 23.45 -20.6 23.35 -20.65 23.25 -20.65 22.75 -20.65 22.0 -20.65 21.55 -20.65 21.1 -20.6 21.0 -20.6 20.9 -20.55 20.8 -20.5 20.7 -20.45 20.6 -20.35 20.5 -20.25 20.45 -20.2 20.45 -20.2 19.75 -20.2 19.1 -20.15 19.0 -20.1 18.9 -20.05 18.8 -20.05 18.7 -20.05 18.6 -20.05 18.5 -20.05 18.45 -19.95 18.35 -19.85 18.15 -19.8 17.95 -19.75 17.85 -19.75 17.75 -19.7 17.7 -19.7 17.6 -19.7 17.5 -19.7 17.4 -19.7 17.3 -19.65 17.2 -19.6 17.1 -19.55 17.0 -19.55 16.95 -19.55 16.85 -19.55 16.45 -19.55 16.3 -19.6 16.0 -19.65 15.85 -19.65 15.2 -19.6 14.05 -19.55 13.0 -19.0 10.4 -18.55 8.0 -18.55 7.95 -18.45 7.1 -18.45 5.6 -18.45 -0.7 -18.45 -7.0 -18.45 -11.45 -18.45 -11.55 -18.45 -11.65 -18.45 -11.75 -18.45 -11.8 -18.5 -11.9 -18.55 -12.0 -18.45 -14.8 -18.4 -19.55 -18.45 -25.5 -5.95 -25.55 0.7 -25.35 0.95 -25.3 1.2 -25.25 10.55 -25.3 11.15 -25.3 11.75 -25.3 11.85 -25.4 12.05 -25.5 12.3 -25.55 12.5 -25.55 12.5 -25.6 13.35 -25.6 13.55 -25.55 13.75 -25.5 13.95 -25.4 16.1 -25.5 16.1 -25.6 18.05 -25.7 18.05 -25.6 18.05 -24.15 18.0 -24.1 17.95 -24.0 17.9 -23.95 17.9 -23.9 17.95 -23.8 18.0 -23.7 18.05 -23.6 18.05 -20.7 18.05 -20.6 18.05 -20.5 18.05 -19.45 18.1 -15.8 18.2 -13.15 18.35 -6.9 18.3 -0.6 18.25 5.6 18.2 11.7 18.2 11.75 18.15 11.95 18.1 12.15 18.05 12.25 18.05 14.0 18.05 17.75 18.1 21.45 18.2 21.55 18.2 21.6 18.2 21.8 18.2 22.1 18.2 22.2 18.15 22.25 18.1 22.35 18.1 22.45 18.0 22.55 17.95 22.65 17.9 22.75 17.85 22.85 17.65 23.05 17.55 23.1 17.5 23.2 Q17.1 23.25 16.75 23.45 L16.3 23.65 16.25 23.7 16.2 23.8 16.2 23.9 16.1 24.0 16.1 24.85 16.05 24.85 15.85 24.75 15.7 24.75 15.5 24.85 15.45 24.85 15.3 24.95 15.15 25.05 15.0 25.1 14.9 25.2 14.85 25.25 14.75 25.3 14.6 25.4 14.4 25.5 14.2 25.55 14.0 25.6 11.6 25.6 11.4 25.55 11.15 25.5 9.85 25.45 9.65 25.4 9.5 25.35 9.25 25.35 9.05 25.3 8.8 25.25 8.6 25.15 8.55 25.05 8.45 24.95 8.35 24.85 8.3 24.8 8.25 24.7 8.2 24.6 8.2 24.5 8.15 24.4 8.15 24.3 8.15 24.2 8.15 24.1 8.15 24.05 8.15 23.95 8.15 23.85 8.2 23.75 8.2 23.65 8.25 23.55 8.3 23.45 8.35 23.35 8.45 23.3 8.55 23.2 8.6 23.1 8.8 23.0 9.05 22.95 9.25 22.85 9.4 22.8 9.55 22.8 9.75 22.75 9.9 22.7 10.05 22.7 10.25 22.65 10.55 22.6 10.9 22.5 11.2 22.4 11.35 22.3 11.45 22.2 11.6 22.1 11.75 22.05 11.9 22.05 12.1 21.95 12.35 21.85 12.55 21.8 12.7 21.7 12.9 21.6 13.15 21.55 13.35 21.45 13.6 21.35 13.75 21.3 13.8 21.2 13.8 21.1 13.85 21.0 13.9 20.9 14.0 20.8 14.05 20.7 14.1 20.6 14.15 20.55 14.2 20.45 14.2 20.35 14.25 20.25 14.3 20.15 14.4 20.05 14.45 19.95 14.55 19.85 14.55 19.8 14.55 19.7 14.6 19.6 14.65 19.5 14.7 19.4 14.8 19.3 14.8 19.2 14.85 19.1 14.9 19.05 14.95 18.95 15.0 18.85 15.05 18.75 15.1 18.65 15.1 18.55 15.2 18.45 15.25 18.35 15.3 18.3 15.3 18.2 15.35 18.1 15.4 18.0 15.45 17.9 15.5 17.85 15.45 17.8 15.45 17.7 15.4 17.6 15.35 17.5 15.35 17.4 15.35 17.3 15.35 17.2 15.35 17.1 15.35 17.05 15.35 16.95 15.35 16.85 15.35 16.75 15.35 16.65 15.35 16.55 15.35 16.45 15.35 16.35 15.35 16.3 15.35 16.2 15.35 16.1 15.35 16.0 15.35 15.9 15.35 15.8 15.35 15.7 15.35 15.6 15.35 15.55 15.35 15.45 15.3 15.35 15.3 15.25 15.3 15.15 15.25 15.05 15.2 14.95 15.2 14.85 15.2 14.8 15.2 14.7 15.2 14.6 15.2 14.5 15.2 14.4 15.2 14.3 15.2 14.2 15.2 14.1 15.2 14.05 15.2 13.95 15.2 13.85 15.2 13.75 15.2 13.65 15.2 13.55 15.2 13.45 15.2 13.35 15.2 13.3 15.2 13.2 15.2 13.1 15.2 13.0 15.2 12.9 15.2 12.8 15.2 12.7 15.2 12.6 15.2 12.55 15.15 12.45 15.15 12.35 15.1 12.25 15.1 12.15 15.1 12.05 15.1 11.95 15.1 11.85 15.1 11.8 15.1 11.7 15.1 11.6 15.1 11.5 15.1 11.4 15.1 11.3 15.1 11.2 15.1 11.1 15.1 11.05 15.1 10.95 15.1 10.85 15.1 10.75 15.1 10.65 15.1 10.55 15.1 10.45 15.1 10.35 15.1 10.3 15.1 10.2 15.1 10.1 15.1 10.0 15.1 9.9 15.1 9.8 15.1 9.7 15.1 9.6 15.05 9.55 15.05 9.45 15.0 9.35 14.95 9.25 14.9 9.15 14.9 9.05 14.85 8.95 14.85 8.85 14.85 8.8 14.85 8.7 14.85 8.6 14.85 8.5 14.85 8.4 14.8 8.3 14.8 8.2 14.75 8.1 14.7 8.05 14.7 7.95 14.7 7.85 14.7 7.75 14.7 7.65 14.7 7.55 14.7 7.45 14.7 7.35 14.7 7.3 14.7 7.2 14.7 7.1 14.7 7.0 14.65 6.9 14.65 6.8 14.6 6.7 14.6 6.6 14.6 6.55 14.6 6.45 14.6 6.35 14.6 6.25 14.6 6.15 14.6 6.05 14.6 5.95 14.6 5.85 14.6 5.8 14.6 5.7 14.6 5.6 14.6 5.5 14.6 5.4 14.6 5.3 14.6 5.2 14.6 5.1 14.6 5.05 14.6 4.95 14.6 4.85 14.6 4.75 14.6 4.65 14.6 4.55 14.6 4.45 14.6 4.35 14.6 4.3 14.6 4.2 14.6 4.1 14.6 4.0 14.6 3.9 14.6 3.8 14.6 3.7 14.6 3.6 14.6 3.55 14.6 3.45 14.6 3.35 14.6 3.25 14.6 3.15 14.6 3.05 14.6 2.95 14.65 2.85 14.65 2.8 14.7 2.7 14.7 2.6 14.7 2.5 14.7 2.4 14.7 2.3 14.7 2.2 14.7 2.1 14.7 2.05 14.7 1.95 14.7 1.85 14.7 1.75 14.7 1.65 14.7 1.55 14.7 1.45 14.7 1.35 14.7 1.3 14.7 1.2 14.7 1.1 14.7 1.0 14.7 0.9 14.7 0.8 14.7 0.7 14.7 0.6 14.75 0.55 14.8 0.45 14.8 0.35 14.8 0.25 14.85 0.15 14.85 0.05 14.85 -0.05 14.85 -0.15 14.85 -0.2 14.85 -0.3 14.85 -0.4 14.85 -0.5 14.85 -0.6 14.85 -0.7 14.85 -0.8 14.85 -0.9 14.85 -0.95 14.85 -1.05 14.9 -1.15 14.9 -1.25 14.95 -1.35 14.95 -1.45 14.95 -1.55 14.95 -1.65 14.95 -1.7 14.95 -1.8 14.95 -1.9 14.95 -2.0 14.95 -2.1 14.95 -2.2 14.95 -2.3 14.95 -2.4 14.95 -2.45 14.95 -2.55 14.95 -2.65 15.0 -2.75 15.05 -2.85 15.05 -2.95 15.1 -3.05 15.1 -3.15 15.1 -3.2 15.1 -3.3 15.1 -3.4 15.1 -3.5 15.1 -3.6 15.1 -3.7 15.1 -3.8 15.1 -3.9 15.1 -3.95 15.1 -4.05 15.1 -4.15 15.1 -4.25 15.1 -4.35 15.1 -4.45 15.1 -4.55 15.1 -4.65 15.1 -4.7 15.1 -4.8 15.1 -4.9 15.1 -5.0 15.1 -5.1 15.1 -5.2 15.1 -5.3 15.1 -5.4 15.1 -5.45 15.1 -5.55 15.1 -5.65 15.1 -5.75 15.1 -5.85 15.1 -5.95 15.1 -6.05 15.1 -6.15 15.1 -6.2 15.1 -6.3 15.1 -6.4 15.1 -6.5 15.1 -6.6 15.1 -6.7 15.1 -6.8 15.1 -6.9 15.1 -6.95 15.1 -7.05 15.1 -7.15 15.1 -7.25 15.1 -7.35 15.1 -7.45 15.1 -7.55 15.1 -7.65 15.1 -7.7 15.1 -7.8 15.1 -7.9 15.1 -8.0 15.1 -8.1 15.1 -8.2 15.1 -8.3 15.1 -8.4 15.1 -8.45 15.1 -8.55 15.1 -8.65 15.1 -8.75 15.1 -8.85 15.1 -8.95 15.1 -9.05 15.1 -9.15 15.1 -9.2 15.1 -9.3 15.1 -9.4 15.1 -9.5 15.1 -9.6 15.1 -9.7 15.1 -9.8 15.1 -9.9 15.1 -9.95 15.1 -10.05 15.1 -10.15 15.1 -10.25 15.1 -10.35 15.1 -10.45 15.1 -10.55 15.1 -10.65 15.1 -10.7 15.1 -10.8 15.1 -10.9 15.1 -11.0 15.1 -11.1 15.1 -11.2 15.1 -11.3 15.05 -11.4 15.05 -11.45 15.0 -11.55 14.95 -11.65 14.95 -11.75 14.95 -11.85 14.95 -11.95 14.95 -12.05 14.9 -12.15 14.85 -12.2 14.85 -12.3 14.85 -12.4 14.85 -12.5 14.85 -12.6 14.85 -12.7 14.85 -12.8 14.85 -12.9 14.8 -12.95 14.8 -13.05 14.75 -13.15 14.7 -13.25 14.7 -13.35 14.7 -13.45 14.7 -13.55 14.65 -13.65 14.6 -13.7 14.6 -13.8 14.55 -13.9 14.55 -14.0 14.55 -14.1 14.5 -14.2 14.45 -14.3 14.45 -14.4 14.45 -14.45 14.45 -14.55 14.45 -14.65 14.45 -14.75 14.4 -14.85 14.4 -14.95 14.35 -15.05 14.35 -15.15 14.35 -15.2 14.35 -15.3 14.35 -15.4 14.35 -15.5 14.3 -15.6 14.3 -15.7 14.25 -15.8 14.2 -15.9 14.2 -15.95 14.15 -16.05 14.15 -16.15 14.1 -16.25 14.1 -16.35 14.1 -16.45 14.1 -16.55 14.15 -16.65 14.15 -16.75 14.15 -16.85 14.15 -16.95 14.2 -17.0 14.15 -17.05 14.15 -17.15 14.1 -17.25 14.05 -17.35 14.05 -17.45 14.05 -17.55 14.0 -17.65 13.95 -17.7 13.95 -17.8 13.95 -17.9 13.9 -18.0 13.9 -18.1 13.9 -18.2 13.9 -18.3 13.9 -18.4 13.85 -18.45 13.8 -18.55 13.75 -18.65 13.7 -18.75 13.7 -18.85 13.7 -18.95 13.65 -19.05 13.65 -19.15 13.65 -19.2 13.65 -19.3 13.65 -19.4 13.65 -19.5 13.6 -19.6 13.6 -19.7 13.55 -19.8 13.55 -19.9 13.5 -19.95 13.45 -20.05 13.4 -20.15 13.4 -20.2 13.35 -20.3 13.35 -20.4 13.35 -20.45 13.3 -20.55 13.3 -20.65 13.3 -20.75 13.25 -20.85 13.2 -20.95 13.1 -21.05 13.05 -21.15 13.05 -21.2 12.95 -21.3 12.85 -21.4 12.8 -21.5 12.7 -21.6 12.6 -21.7 12.5 -21.8 12.4 -21.9 12.3 -21.95 12.2 -22.05 12.0 -22.15 11.8 -22.2 11.6 -22.25 10.0 -22.25 10.0 -22.35 9.6 -22.35 9.4 -22.25 9.2 -22.2 9.0 -22.15 8.8 -22.2 8.55 -22.25 8.4 -22.35 8.2 -22.3 8.0 -22.25 4.1 -22.25 3.95 -22.2 3.65 -22.15 3.5 -22.05 3.35 -22.05 3.15 -22.0 0.85 -22.0 0.7 -21.95 0.5 -21.9 -4.85 -21.9 -5.05 -21.95 -5.2 -22.0 -7.75 -22.0 -7.95 -22.05 -8.2 -22.1 -8.85 -22.15 -9.05 -22.2 -9.2 -22.25 -13.7 -22.25 -13.75 -22.2 -13.75 -22.1 -13.8 -22.0 -13.85 -21.9 -13.9 -21.8 -14.0 -21.75 -14.1 -21.65 -14.25 -21.55 -14.4 -21.45 -14.55 -21.35 -14.6 -21.25 -14.65 -21.15 -14.75 -21.05 -14.85 -21.0 -14.9 -20.9 -14.9 -20.8 -15.0 -20.7 -15.05 -20.6 -15.15 -20.5 -15.25 -20.4 -15.3 -20.3 -15.4 -20.25 -15.45 -20.15 -15.55 -20.05 -15.55 -19.95 -15.65 -19.85 -15.75 -19.75 -15.8 -19.65 -15.9 -19.55 -15.9 -19.5 -15.9 -19.4 -15.85 -19.3 -15.8 -19.2 -15.8 -19.1 -15.8 -19.0 -15.75 -18.9 -15.75 -18.8 -15.75 -18.75 -15.75 -18.65 -15.75 -18.55 -15.75 -18.45 -15.7 -18.35 -15.7 -18.25 -15.65 -18.15 -15.65 -18.05 -15.65 -18.0 -15.65 -17.9 -15.65 -17.8 -15.65 -17.7 -15.65 -17.6 -15.6 -17.5 -15.55 -17.4 -15.55 -17.3 -15.5 -17.25 -15.5 -17.15 -15.5 -17.05 -15.5 -16.95 -15.5 -16.85 -15.5 -16.75 -15.5 -16.65 -15.5 -16.55 -15.5 -16.5 -15.5 -16.4 -15.5 -16.3 -15.5 -16.2 -15.5 -16.1 -15.5 -16.0 -15.5 -15.9 -15.5 -15.8 -15.5 -15.75 -15.5 -15.65 -15.5 -15.55 -15.5 -15.45 -15.5 -15.35 -15.5 -15.25 -15.5 -15.15 -15.5 -15.05 -15.5 -15.0 -15.5 -14.9 -15.5 -14.8 -15.5 -14.7 -15.45 -14.6 -15.45 -14.5 -15.4 -14.4 -15.4 -14.3 -15.4 -14.25 -15.4 -14.15 -15.4 -14.05 -15.4 -13.95 -15.4 -13.85 -15.4 -13.75 -15.4 -13.65 -15.4 -13.55 -15.4 -13.5 -15.4 -13.4 -15.4 -13.3 -15.4 -13.2 -15.4 -13.1 -15.4 -13.0 -15.4 -12.9 -15.4 -12.8 -15.4 -12.75 -15.4 -12.65 -15.4 -12.55 -15.4 -12.45 -15.4 -12.35 -15.4 -12.25 -15.4 -12.15 -15.4 -12.05 -15.4 -12.0 -15.4 -11.9 -15.4 -11.8 -15.4 -11.7 -15.4 -11.6 -15.4 -11.5 -15.4 -11.4 -15.4 -11.3 -15.4 -11.25 -15.4 -11.15 -15.4 -11.05 -15.4 -10.95 -15.4 -10.85 -15.4 -10.75 -15.4 -10.65 -15.4 -10.55 -15.4 -10.5 -15.4 -10.4 -15.4 -10.3 -15.4 -10.2 -15.4 -10.1 -15.4 -10.0 -15.4 -9.9 -15.4 -9.8 -15.4 -9.75 -15.4 -9.65 -15.4 -9.55 -15.4 -9.45 -15.4 -9.35 -15.4 -9.25 -15.4 -9.15 -15.4 -9.05 -15.4 -9.0 -15.4 -8.9 -15.4 -8.8 -15.4 -8.7 -15.4 -8.6 -15.4 -8.5 -15.4 -8.4 -15.4 -8.3 -15.4 -8.25 -15.35 -8.15 -15.3 -8.05 -15.3 -7.95 -15.25 -7.85 -15.25 -7.75 -15.25 -7.65 -15.25 -7.55 -15.25 -7.5 -15.25 -7.4 -15.25 -7.3 -15.25 -7.2 -15.25 -7.1 -15.25 -7.0 -15.25 -6.9 -15.25 -6.8 -15.2 -6.75 -15.15 -6.65 -15.15 -6.55 -15.15 -6.45 -15.15 -6.35 -15.15 -6.25 -15.15 -6.15 -15.15 -6.05 -15.15 -6.0 -15.15 -5.9 -15.15 -5.8 -15.1 -5.7 -15.05 -5.6 -15.05 -5.5 -15.05 -5.4 -15.05 -5.35 -15.05 -5.25 -15.1 -5.15 -15.1 -5.05 -15.1 -4.95 -15.1 -4.9 -15.1 -4.8 -15.1 -4.7 -15.1 -4.6 -15.15 -4.5 -15.2 -4.45 -15.25 -4.35 -15.3 -4.25 -15.3 -4.15 -15.3 -4.05 -15.35 -4.0 -15.35 -3.9 -15.35 -3.8 -15.35 -3.7 -15.35 -3.65 -15.35 -3.55 -15.35 -3.45 -15.35 -3.4 -15.35 -3.3 -15.35 -3.2 -15.35 -3.1 -15.4 -3.0 -15.45 -2.9 -15.45 -2.8 -15.45 -2.7 -15.5 -2.65 -15.5 -2.55 -15.55 -2.45 -15.6 -2.35 -15.65 -2.25 -15.7 -2.15 -15.7 -2.05 -15.7 -1.95 -15.75 -1.9 -15.75 -1.8 -15.75 -1.7 -15.75 -1.6 -15.75 -1.5 -15.8 -1.4 -15.8 -1.3 -15.8 -1.2 -15.85 -1.15 -15.85 -1.05 -15.85 -0.95 -15.85 -0.85 -15.9 -0.75 -15.95 -0.65 -15.95 -0.55 -15.95 -0.45 -16.0 -0.4 -16.05 -0.3 -16.05 -0.2 -16.1 -0.1 -16.1 0.0 -16.1 0.1 -16.1 0.2 -16.1 0.3 -16.1 0.35 -16.1 0.45 -16.1 0.55 -16.1 0.65 -16.1 0.75 -16.1 0.85 -16.1 0.95 -16.1 1.05 -16.1 1.1 -16.1 1.2 -16.1 1.3 -16.1 1.4 -16.1 1.5 -16.1 1.6 -16.1 1.7 -16.1 1.8 -16.1 1.85 -16.1 1.95 -16.1 2.05 -16.1 2.15 -16.1 2.25 -16.1 2.35 -16.1 2.45 -16.1 2.55 -16.1 2.6 -16.1 2.7 -16.1 2.8 -16.1 2.9 -16.1 3.0 -16.05 3.1 -16.05 3.2 -16.05 3.3 -16.0 3.35 -16.0 3.45 -16.0 3.55 -16.0 3.65 -16.0 3.75 -16.0 3.85 -16.0 3.95 -16.0 4.05 -16.0 4.1 -16.0 4.2 -16.0 4.3 -16.0 4.4 -16.0 4.5 -16.0 4.6 -16.0 4.7 -16.0 4.8 -16.0 4.85 -15.95 4.95 -15.95 5.05 -15.95 5.15 -15.9 5.25 -15.85 5.35 -15.85 5.45 -15.85 5.55 -15.85 5.6 -15.85 5.7 -15.85 5.8 -15.85 5.9 -15.85 6.0 -15.85 6.1 -15.85 6.2 -15.8 6.3 -15.8 6.35 -15.75 6.45 -15.75 6.55 -15.75 6.65 -15.7 6.75 -15.7 6.85 -15.65 6.95 -15.65 7.05 -15.55 7.1 -15.5 7.2 -15.45 7.3 -15.45 7.4 -15.45 7.5 -15.4 7.6 -15.4 7.7 -15.45 7.8 -15.45 7.9 -15.5 8.0 -15.5 8.1 -15.5 8.2 -15.5 8.25 -15.55 8.35 -15.55 8.45 -15.6 8.55 -15.65 8.65 -15.7 8.75 -15.75 8.85 -15.75 8.95 -15.75 9.0 -15.75 9.1 -15.75 9.2 -15.75 9.3 -15.75 9.4 -15.75 9.5 -15.8 9.6 -15.8 9.7 -15.85 9.75 -15.9 9.85 -15.9 9.95 -15.9 10.05 -15.9 10.15 -15.9 10.25 -15.9 10.35 -15.9 10.45 -15.9 10.5 -15.95 10.6 -16.0 10.7 -16.0 10.8 -16.0 10.9 -16.0 11.0 -16.0 11.1 -16.0 11.2 -16.0 11.25 -16.0 11.35 -16.0 11.45 -16.05 11.55 -16.05 11.65 -16.05 11.75 -16.1 11.85 -16.15 11.95 -16.15 12.0 -16.15 12.1 -16.15 12.2 -16.2 12.3 -16.2 12.4 -16.25 12.5 -16.25 12.6 -16.25 12.7 -16.25 12.75 -16.25 12.85 -16.25 12.95 -16.25 13.05 -16.25 13.15 -16.25 13.25 -16.25 13.35 -16.25 13.45 -16.25 13.5 -16.25 13.6 -16.25 13.7 -16.25 13.8 -16.25 13.9 -16.25 14.0 -16.25 14.1 -16.25 14.2 -16.25 14.25 -16.25 14.35 -16.25 14.45 -16.25 14.55 -16.25 14.65 -16.25 14.75 -16.25 14.85 -16.25 14.95 -16.25 15.0 -16.25 15.1 -16.25 15.2 -16.25 15.3 -16.25 15.4 -16.25 15.5 -16.25 15.6 -16.25 15.7 -16.25 15.75 -16.25 15.85 -16.25 15.95 -16.25 16.05 -16.25 16.15 -16.25 16.25 -16.25 16.35 -16.25 16.45 -16.25 16.5 -16.25 16.6 -16.25 16.7 -16.25 16.8 -16.25 16.9 -16.25 17.0 -16.25 17.1 -16.25 17.2 -16.25 17.25 -16.25 17.35 -16.25 17.45 -16.25 17.55 -16.25 17.65 -16.25 17.75 -16.25 17.85 -16.25 17.95 -16.25 18.0 -16.25 18.1 -16.25 18.2 -16.25 18.3 -16.25 18.4 -16.25 18.5 -16.3 18.6 -16.3 18.7 -16.35 18.75 -16.4 18.85 -16.4 18.95 -16.3 19.05 -16.3 19.1 -16.25 19.2 -16.2 19.3 -16.15 19.4 -16.1 19.5 -16.05 19.6 -15.9 19.7 -15.8 19.8 -15.7 19.85 -15.6 19.95 -15.5 20.05 -15.4 20.15 -15.3 20.25 -15.2 20.35 -15.15 20.45 -15.05 20.55 -14.95 20.6 -14.85 20.7 -14.8 20.8 -14.7 20.9 -14.65 21.0 -14.55 21.1 -14.45 21.2 -14.35 21.3 -14.25 21.35 -14.2 21.45 -14.15 21.55 -14.05 21.65 -13.95 21.75 -13.75 21.85 -13.55 21.95 -13.4 22.05 -13.25 22.1 -13.1 22.2 -12.95 22.3 -12.8 22.4 -12.6 22.5 -12.4 22.6 -12.3 22.7 -12.15 22.75 -11.95 22.8 -11.75 22.85 -11.6 22.9 -11.55 22.95 -11.35 23.0 -11.15 23.1 -11.05 23.2 -10.95 23.3 -10.9 23.35 -10.8 23.45 -10.75 23.55 -10.7 23.65 -10.7 23.75 -10.7 23.85 -10.65 23.95 -10.65 24.05 -10.65 24.1 -10.7 24.2 -10.7 24.3 -10.75 24.4 -10.8 24.5 -10.8 24.55 -10.85 24.6 -10.9 24.7 -11.0 24.8 -11.1 24.85 -11.25 24.95 -11.4 25.05 -11.55 25.05 -11.75 25.1 -12.15 25.1 -12.35 25.05 -12.6 25.0 -12.65 25.0 -12.8 24.9 -12.9 24.85 -13.05 24.9 -13.25 24.95 -14.3 24.95 -14.65 24.95 -16.15 24.95 -16.35 24.9 -16.5 24.85 -16.9 24.9 -17.1 25.0 -17.3 25.05 -17.5 25.1 -17.7 25.05 -17.95 25.0 -18.15 24.9 -18.2 24.85 M-17.25 -4.8 L-17.25 -4.7 -17.2 -4.6 -17.2 -4.65 -17.2 -4.75 -17.25 -4.8" fill="#404040" fill-rule="evenodd" stroke="none"/>
  </g>
</svg>
