<?xml version="1.0" encoding="UTF-8" standalone="no"?>
<svg xmlns:ffdec="https://www.free-decompiler.com/flash" xmlns:xlink="http://www.w3.org/1999/xlink" ffdec:objectType="shape" height="413.1px" width="676.45px" xmlns="http://www.w3.org/2000/svg">
  <g transform="matrix(1.0, 0.0, 0.0, 1.0, 212.2, 175.25)">
    <path d="M142.6 -100.25 Q129.65 -90.75 112.8 -90.45 107.25 -90.35 101.8 -88.85 90.95 -85.55 81.25 -79.9 112.7 -82.2 136.8 -61.6 161.15 -40.7 187.65 -22.65 210.95 -6.75 236.2 5.85 243.3 9.35 251.15 10.6 280.9 15.5 310.0 7.05 326.8 2.3 338.95 -9.75 363.75 -34.4 385.6 -62.0 L385.7 -65.0 408.05 -93.6 Q428.1 -113.1 455.5 -115.75 457.7 -115.75 459.9 -114.9 L464.25 -113.0 454.55 -108.3 450.75 -109.0 416.7 -73.0 416.7 -70.0 400.7 -44.5 400.7 -41.5 398.7 -38.5 398.7 -34.0 Q388.5 -22.4 388.05 -7.1 L384.05 22.9 382.7 24.55 380.45 52.3 360.2 85.55 Q346.85 102.8 329.6 116.2 307.65 133.2 281.6 143.25 L261.4 150.6 Q251.6 154.0 242.55 159.2 L250.2 168.55 297.45 186.35 298.4 190.8 Q288.5 200.95 275.0 206.05 248.95 215.9 222.2 223.3 183.2 234.0 142.9 236.95 104.15 239.55 65.55 234.5 44.45 231.8 23.9 226.6 -23.8 214.5 -66.0 189.1 -69.1 187.2 -70.4 183.55 -83.65 175.9 -93.7 164.9 L-96.05 161.85 Q-104.0 150.8 -112.3 140.05 L-122.4 119.05 Q-72.0 108.55 -31.7 139.6 -28.5 142.05 -26.15 145.15 -17.3 156.85 -6.85 167.2 0.6 147.9 -1.05 126.65 L-2.4 125.05 Q-2.35 106.35 -12.4 90.55 -22.65 64.7 -45.85 47.85 -67.65 32.1 -92.4 21.05 -78.25 -7.05 -53.4 -26.25 -77.45 -37.6 -101.5 -28.35 -104.55 -27.2 -107.85 -26.85 L-104.0 -45.0 Q-82.1 -76.3 -52.15 -100.4 -114.2 -123.8 -173.8 -95.1 -182.45 -90.9 -189.75 -84.3 -197.2 -77.6 -207.15 -75.8 L-212.2 -78.85 Q-186.2 -116.3 -150.1 -143.35 -134.05 -155.3 -114.6 -160.2 -107.9 -161.75 -101.35 -164.05 -66.4 -176.05 -29.4 -175.2 -13.0 -174.85 3.15 -172.95 42.25 -168.35 76.15 -149.45 83.75 -145.2 91.8 -141.7 123.6 -128.15 142.6 -100.25 M-180.1 -108.6 L-197.1 -86.05 Q-194.65 -88.95 -191.65 -91.45 -181.9 -99.3 -169.9 -102.45 L-180.1 -108.6" fill="#ff4900" fill-opacity="0.52156866" fill-rule="evenodd" stroke="none"/>
  </g>
</svg>
