<?xml version="1.0" encoding="UTF-8" standalone="no"?>
<svg xmlns:ffdec="https://www.free-decompiler.com/flash" xmlns:xlink="http://www.w3.org/1999/xlink" ffdec:objectType="shape" height="31.0px" width="35.4px" xmlns="http://www.w3.org/2000/svg">
  <g transform="matrix(1.0, 0.0, 0.0, 1.0, 17.45, 16.3)">
    <path d="M11.75 -2.8 L13.7 0.2 13.75 0.25 Q16.5 4.6 16.5 5.8 L16.25 6.25 16.25 6.8 15.6 8.65 14.4 10.5 13.45 12.25 Q12.65 13.3 11.15 13.7 L7.55 13.75 6.25 13.8 5.6 14.0 2.95 14.0 Q2.2 13.9 1.9 13.45 L-5.65 13.45 Q-5.65 13.25 -5.85 13.45 L-10.1 13.4 -10.95 13.7 Q-11.8 13.7 -12.2 12.8 L-12.3 12.4 Q-13.15 11.6 -14.1 9.6 L-15.25 7.9 -16.0 6.55 -16.4 6.05 -16.5 5.4 -14.95 2.8 Q-13.1 0.2 -12.55 -1.1 L-10.85 -4.3 Q-10.3 -5.45 -9.6 -5.7 L-9.5 -5.95 -6.6 -10.75 -4.7 -14.2 -4.75 -14.45 -4.5 -15.15 Q-4.2 -15.7 -3.6 -15.6 L2.45 -15.6 4.3 -15.35 4.65 -15.35 Q5.3 -15.15 5.65 -14.55 L6.05 -13.5 6.75 -11.8 Q7.15 -10.6 7.65 -9.95 11.7 -4.05 11.75 -2.8" fill="#ffcc00" fill-rule="evenodd" stroke="none"/>
    <path d="M11.7 -3.95 L5.05 -15.55 -0.45 -15.55 -0.6 -15.55 -4.45 -15.55 -16.7 5.55 -11.8 13.95 12.3 13.95 17.2 5.55 17.2 5.5 13.4 -1.1 13.4 -1.15 11.95 -3.5" fill="none" stroke="#ffcc00" stroke-linecap="round" stroke-linejoin="round" stroke-width="1.5"/>
  </g>
</svg>
