<?xml version="1.0" encoding="UTF-8" standalone="no"?>
<svg xmlns:ffdec="https://www.free-decompiler.com/flash" xmlns:xlink="http://www.w3.org/1999/xlink" ffdec:objectType="shape" height="385.2px" width="577.55px" xmlns="http://www.w3.org/2000/svg">
  <g transform="matrix(1.0, 0.0, 0.0, 1.0, 381.05, 200.25)">
    <path d="M109.65 -191.0 Q119.2 -181.3 118.15 -167.8 L114.4 -177.8 113.65 -171.3 111.9 -171.5 Q112.6 -178.3 110.2 -184.6 109.0 -187.75 107.15 -190.7 L109.65 -191.0 M117.4 -159.25 L115.65 -157.0 112.2 -157.4 114.45 -159.85 117.4 -159.25 M7.85 -184.5 L4.35 -183.5 Q10.8 -178.75 15.75 -172.5 19.6 -167.6 22.35 -162.2 L24.35 -161.25 Q26.5 -149.1 36.85 -142.4 53.1 -131.85 73.4 -137.15 41.65 -118.65 25.9 -151.4 18.5 -166.75 5.95 -177.45 -6.1 -187.75 -21.85 -190.0 L-22.1 -188.7 -25.65 -190.5 -23.65 -186.0 Q-59.15 -185.2 -67.5 -165.55 -75.85 -145.9 -69.7 -131.1 L-71.5 -130.35 -70.9 -128.45 -73.65 -127.95 Q-85.5 -153.1 -75.45 -173.9 -65.4 -194.7 -38.9 -200.25 0.55 -200.1 28.35 -173.2 L29.0 -172.35 25.6 -172.75 Q22.85 -176.25 19.05 -178.75 13.8 -182.25 7.85 -184.5 M176.45 96.25 Q182.05 99.7 184.7 105.8 L185.4 107.35 184.35 108.75 169.95 97.6 171.65 96.75 174.9 97.2 176.45 96.25 M191.7 97.1 Q155.95 85.75 141.2 124.25 138.65 130.95 132.2 134.95 L126.55 138.4 127.45 142.1 Q126.05 142.9 124.65 143.8 114.95 149.6 105.05 155.2 L104.75 156.9 102.45 158.25 101.9 165.1 Q105.9 170.0 111.95 172.15 115.85 173.45 119.7 173.25 L120.5 176.0 Q100.85 181.0 80.4 180.65 58.85 180.15 36.8 173.75 L40.1 178.95 Q-8.15 169.0 -37.15 135.55 -43.9 127.75 -49.4 118.85 L-50.9 101.85 -50.9 121.0 Q-54.2 114.5 -57.0 107.35 -59.1 101.95 -62.05 96.95 L-64.85 96.85 -75.3 105.05 Q-77.25 93.35 -69.45 82.2 L-66.5 81.65 Q-65.1 65.7 -80.15 57.3 -73.9 53.75 -70.3 47.5 -68.0 43.4 -66.15 39.3 -64.7 17.95 -83.75 7.95 -95.45 9.4 -105.15 2.8 L-103.65 1.05 Q-78.65 0.45 -72.75 -23.25 L-72.35 -25.55 -76.0 -28.95 -75.6 -30.65 -77.2 -34.25 -80.55 -34.2 -81.8 -35.85 -75.1 -40.7 -74.25 -45.2 -77.35 -52.7 -84.4 -56.1 -87.3 -56.25 Q-89.1 -56.0 -90.7 -56.7 -91.5 -57.0 -92.15 -57.45 -73.1 -59.5 -65.5 -77.1 -65.05 -78.1 -65.0 -79.2 L-63.35 -79.7 Q-68.85 -52.65 -45.95 -50.2 -33.1 -49.05 -26.15 -60.75 -24.4 -63.75 -25.1 -67.2 L-24.1 -68.7 -24.1 -70.2 -23.1 -71.7 -24.5 -83.9 -21.6 -84.2 Q-19.05 -77.3 -20.55 -69.95 -21.15 -67.1 -22.6 -64.45 L-22.25 -57.7 -20.35 -59.2 -16.95 -59.5 -16.6 -56.95 Q-31.45 -20.6 -64.65 -30.45 -65.65 -30.7 -66.5 -31.3 L-68.6 -28.7 -68.6 -27.2 -69.6 -25.7 -67.25 -15.25 Q-54.85 -10.0 -43.75 -17.15 -40.2 -19.45 -37.85 -23.2 L-35.6 -22.2 Q-48.6 -0.8 -72.4 6.05 -41.95 18.95 -33.65 50.8 L-33.65 56.2 -32.6 56.85 -33.6 61.35 -26.5 85.3 Q-43.2 81.6 -50.6 66.1 L-57.9 64.8 -60.65 68.55 Q-58.5 86.7 -50.9 101.3 L-50.9 101.35 Q-45.9 108.95 -39.05 115.65 -22.75 131.4 4.0 141.5 21.3 148.0 39.45 150.05 85.5 155.75 117.15 133.4 L117.15 129.8 Q122.9 125.25 128.45 119.85 148.6 100.15 174.0 92.4 183.85 89.5 192.45 95.6 L191.7 97.1 M196.5 110.6 Q196.5 111.65 196.0 112.4 195.45 113.1 194.7 113.1 193.95 113.1 193.45 112.4 192.9 111.65 192.9 110.6 192.9 109.55 193.45 108.85 193.95 108.1 194.7 108.1 195.45 108.1 196.0 108.85 196.5 109.55 196.5 110.6 M195.95 124.75 Q196.45 125.45 196.45 126.45 196.45 127.45 195.95 128.15 195.4 128.85 194.7 128.85 194.0 128.85 193.5 128.15 192.95 127.45 192.95 126.45 192.95 125.45 193.5 124.75 194.0 124.05 194.7 124.05 195.4 124.05 195.95 124.75 M150.2 139.85 Q157.2 139.6 161.45 145.2 162.85 147.05 163.3 149.4 L160.35 149.0 153.95 142.75 150.05 142.6 150.2 139.85 M139.7 151.1 Q139.25 163.8 151.65 166.1 L153.7 166.1 169.45 175.35 Q152.75 181.8 142.05 167.65 136.85 160.75 137.8 152.2 L139.7 151.1 M146.45 168.8 L146.6 169.05 146.8 168.8 146.45 168.8 M-225.0 -158.5 Q-225.0 -157.9 -225.3 -157.45 -225.65 -157.0 -226.1 -157.0 -226.55 -157.0 -226.85 -157.45 -227.2 -157.9 -227.2 -158.5 L-226.85 -159.55 Q-226.55 -160.0 -226.1 -160.0 -225.65 -160.0 -225.3 -159.55 -225.0 -159.1 -225.0 -158.5 M-222.5 -145.8 L-225.95 -128.5 -230.7 -124.75 -230.95 -123.25 -244.45 -113.5 -247.7 -105.65 -250.2 -105.7 -250.4 -110.4 -252.2 -108.85 -253.8 -107.25 -256.5 -103.75 -257.65 -101.85 Q-259.2 -98.85 -260.05 -95.4 L-261.7 -95.4 -261.8 -88.65 -264.2 -88.7 Q-265.4 -96.65 -263.5 -104.35 -261.55 -112.1 -256.95 -118.75 -250.45 -119.35 -244.35 -121.6 -229.55 -127.0 -226.4 -140.7 -226.0 -142.4 -226.2 -144.25 L-223.95 -146.25 -222.5 -145.8 M-251.8 -156.9 Q-252.2 -157.45 -252.2 -158.2 -252.2 -158.95 -251.8 -159.45 -251.45 -160.0 -250.95 -160.0 L-250.05 -159.45 Q-249.7 -158.95 -249.7 -158.2 -249.7 -157.45 -250.05 -156.9 -250.45 -156.4 -250.95 -156.4 -251.45 -156.4 -251.8 -156.9 M-261.7 -102.45 L-261.7 -100.2 -259.9 -103.6 -261.7 -102.45 M-248.55 -101.35 Q-247.95 -101.35 -247.5 -100.9 -247.1 -100.5 -247.1 -99.9 -247.1 -99.3 -247.5 -98.85 -247.95 -98.45 -248.55 -98.45 -249.15 -98.45 -249.55 -98.85 -250.0 -99.3 -250.0 -99.9 -250.0 -100.5 -249.55 -100.9 -249.15 -101.35 -248.55 -101.35 M-246.6 -77.85 Q-242.6 -78.35 -239.3 -80.95 -236.75 -82.95 -235.35 -85.8 -234.3 -88.05 -233.95 -90.2 L-232.05 -89.55 -238.2 -72.95 -242.95 -71.7 -244.9 -72.35 -246.6 -77.85 M-263.65 -82.0 L-260.9 -82.0 -260.9 -73.55 -263.65 -73.55 -263.65 -82.0 M-166.65 -81.05 Q-158.7 -78.95 -154.25 -71.9 L-159.7 -70.85 -160.5 -69.15 -168.2 -76.45 -167.7 -80.5 -166.65 -81.05 M-162.7 -101.6 L-160.2 -101.6 -160.2 -93.55 -162.7 -93.55 -162.7 -101.6 M-65.9 -117.2 L-64.4 -116.95 -63.7 -116.15 -62.9 -114.7 -62.65 -113.95 -62.65 -113.2 -62.65 -112.45 -62.5 -111.75 -62.15 -110.95 -61.65 -110.2 -61.65 -109.45 -61.7 -107.95 -61.9 -106.45 -62.9 -106.2 -64.15 -106.45 -64.15 -107.2 -64.15 -107.95 -64.15 -108.7 -64.45 -109.45 -64.85 -110.25 -65.15 -110.95 -65.15 -111.7 -65.15 -112.45 -65.15 -113.2 -66.65 -115.75 Q-67.35 -117.1 -65.9 -117.1 L-65.9 -117.2 M-25.15 -111.65 Q-24.95 -108.45 -29.55 -105.1 -33.85 -101.95 -39.1 -101.1 L-37.1 -108.5 Q-34.1 -110.7 -30.5 -111.6 -27.9 -112.35 -25.15 -111.65 M-20.55 -106.4 L-19.35 -107.05 Q-18.65 -107.05 -18.1 -106.4 -17.6 -105.75 -17.6 -104.85 -17.6 -103.95 -18.1 -103.3 -18.65 -102.65 -19.35 -102.65 -20.05 -102.65 -20.55 -103.3 -21.1 -103.95 -21.1 -104.85 -21.1 -105.75 -20.55 -106.4 M-152.7 -121.25 L-142.9 -117.5 Q-174.85 -118.2 -202.05 -100.65 -183.25 -136.65 -144.25 -127.5 -103.2 -118.05 -110.7 -79.0 L-113.15 -80.95 -112.05 -82.55 -112.15 -84.95 Q-112.8 -100.65 -126.9 -105.85 -138.65 -110.15 -151.2 -109.75 L-149.65 -112.0 Q-139.35 -114.45 -129.55 -111.05 -122.1 -108.35 -116.45 -102.6 -125.35 -114.05 -139.05 -118.6 -145.6 -120.85 -152.7 -121.25 M-13.85 -69.95 Q-14.8 -69.95 -15.45 -70.4 -16.1 -70.9 -16.1 -71.6 -16.1 -72.3 -15.45 -72.75 L-13.85 -73.25 Q-12.9 -73.25 -12.25 -72.75 -11.6 -72.3 -11.6 -71.6 -11.6 -70.9 -12.25 -70.4 -12.9 -69.95 -13.85 -69.95 M-108.7 65.8 Q-117.65 75.65 -114.05 87.8 -146.6 76.5 -169.7 102.35 L-170.45 111.1 -169.05 113.4 -169.7 116.6 -168.8 117.75 -168.7 119.6 -167.8 120.75 -167.7 121.85 -157.9 132.25 Q-170.55 135.25 -180.7 126.55 L-177.8 136.15 -180.95 135.85 Q-181.5 126.15 -190.4 123.55 -192.95 122.75 -195.4 123.1 L-197.05 126.8 Q-216.1 139.3 -224.2 117.35 L-222.95 112.85 -220.7 113.85 -221.5 115.95 -219.95 116.9 Q-219.2 120.3 -216.5 122.3 -214.3 123.9 -211.75 123.2 L-210.05 122.85 -208.0 119.05 -204.05 119.5 -202.45 122.85 -188.65 120.05 -195.15 113.1 -194.9 110.55 -193.45 110.1 Q-183.45 119.75 -170.6 123.65 L-174.25 106.3 Q-168.0 68.7 -125.5 71.8 -120.25 72.5 -115.2 70.35 L-110.95 64.95 -108.7 65.8 M-108.35 101.0 Q-98.25 108.55 -88.65 116.85 L-88.65 121.35 -87.65 122.85 Q-84.1 143.9 -103.4 149.3 -117.2 153.05 -127.7 161.35 L-127.7 170.0 -123.05 177.95 -127.9 176.7 Q-140.05 143.3 -102.75 134.75 -97.15 133.5 -98.25 127.2 -101.15 110.9 -112.65 99.0 -110.25 99.6 -108.35 101.0 M-101.9 183.4 Q-101.9 184.05 -102.65 184.5 L-104.55 184.95 -106.4 184.5 Q-107.2 184.05 -107.2 183.4 -107.2 182.75 -106.4 182.3 L-104.55 181.85 Q-103.45 181.85 -102.65 182.3 -101.9 182.75 -101.9 183.4 M-314.05 67.85 L-312.95 67.0 Q-312.05 67.7 -311.75 68.9 -310.95 72.55 -312.5 76.45 L-314.35 81.15 Q-309.8 85.1 -307.15 90.35 -304.45 95.65 -304.7 101.55 L-303.7 103.05 -303.7 104.55 -302.7 106.05 -305.2 120.05 -307.2 121.05 Q-307.15 122.7 -307.7 124.2 -308.6 126.75 -310.4 128.65 L-313.95 132.2 -316.2 131.35 Q-298.55 110.1 -315.55 91.5 -319.15 87.6 -324.05 85.25 L-342.7 88.05 -350.15 82.05 Q-359.4 64.9 -349.2 46.8 L-345.45 44.05 Q-350.4 78.0 -317.9 74.3 -316.65 74.25 -315.45 73.8 L-314.05 67.85 M-322.65 134.1 Q-322.0 134.1 -321.55 134.55 -321.1 135.0 -321.1 135.6 -321.1 136.2 -321.55 136.65 -322.0 137.1 -322.65 137.1 -323.3 137.1 -323.75 136.65 L-324.2 135.6 Q-324.2 135.0 -323.75 134.55 -323.3 134.1 -322.65 134.1 M-198.0 143.6 Q-198.0 144.2 -198.3 144.65 -198.65 145.1 -199.1 145.1 -199.55 145.1 -199.85 144.65 L-200.2 143.6 Q-200.2 143.0 -199.85 142.55 -199.55 142.1 -199.1 142.1 -198.65 142.1 -198.3 142.55 -198.0 143.0 -198.0 143.6 M-163.7 130.1 L-169.75 128.65 -164.7 130.6 -163.7 130.1 M-368.8 86.45 Q-367.95 87.3 -367.95 88.5 -367.95 89.7 -368.8 90.55 -369.7 91.4 -370.9 91.4 -372.1 91.4 -372.95 90.55 -373.85 89.7 -373.85 88.5 -373.85 87.3 -372.95 86.45 -372.1 85.6 -370.9 85.6 -369.7 85.6 -368.8 86.45 M-379.55 95.6 Q-378.95 95.6 -378.5 96.05 -378.05 96.5 -378.05 97.1 -378.05 97.7 -378.5 98.15 -378.95 98.6 -379.55 98.6 -380.15 98.6 -380.6 98.15 -381.05 97.7 -381.05 97.1 -381.05 96.5 -380.6 96.05 -380.15 95.6 -379.55 95.6 M-363.3 88.0 L-361.45 88.05 -356.7 97.05 -357.7 111.3 -361.5 113.3 -360.65 106.7 Q-360.6 106.2 -360.7 105.8 -361.1 103.3 -362.95 101.55 L-363.6 97.2 -362.3 96.05 -364.1 89.1 -363.3 88.0 M-339.55 141.25 Q-338.95 141.65 -338.95 142.2 -338.95 142.75 -339.55 143.15 -340.2 143.55 -341.05 143.55 -341.9 143.55 -342.5 143.15 -343.15 142.75 -343.15 142.2 -343.15 141.65 -342.5 141.25 L-341.05 140.85 Q-340.2 140.85 -339.55 141.25" fill="#ffad00" fill-rule="evenodd" stroke="none"/>
  </g>
</svg>
