<?xml version="1.0" encoding="UTF-8" standalone="no"?>
<svg xmlns:ffdec="https://www.free-decompiler.com/flash" xmlns:xlink="http://www.w3.org/1999/xlink" ffdec:objectType="shape" height="38.5px" width="45.3px" xmlns="http://www.w3.org/2000/svg">
  <g transform="matrix(1.0, 0.0, 0.0, 1.0, 22.0, 15.95)">
    <path d="M14.7 -14.4 L21.35 -5.95 21.35 -5.4 21.35 -5.1 21.55 -5.0 21.7 -4.35 21.95 -4.0 21.7 -3.25 15.6 3.9 15.3 4.1 3.25 18.4 Q2.25 19.5 1.55 21.1 L1.3 21.0 Q1.0 21.35 0.4 21.35 -0.9 21.35 -4.75 15.9 L-8.1 10.8 -8.15 10.75 Q-9.8 9.7 -10.3 8.1 L-10.4 7.8 -10.85 8.1 -10.95 8.0 -12.25 6.35 -12.8 5.6 -12.75 4.7 -14.9 2.1 -16.15 0.2 -18.7 -2.0 Q-20.05 -3.15 -20.05 -4.25 L-20.05 -4.5 -21.25 -5.3 -20.3 -5.1 -20.3 -5.3 -20.3 -5.45 -20.1 -5.95 -19.95 -6.3 -19.8 -6.45 -18.75 -8.7 Q-17.8 -10.1 -16.85 -10.4 L-16.85 -10.45 Q-16.85 -11.75 -15.9 -13.1 -14.3 -15.1 -11.3 -15.1 L-10.1 -14.95 3.8 -14.65 3.85 -14.85 Q4.35 -15.7 5.2 -15.5 L11.9 -15.5 Q13.45 -15.7 14.25 -14.85 L14.55 -14.5 14.7 -14.4" fill="#444444" fill-rule="evenodd" stroke="none"/>
    <path d="M14.2 -15.2 L-14.45 -15.2 -21.25 -5.3 0.05 21.8 22.55 -4.35 14.2 -15.2 Z" fill="none" stroke="#444444" stroke-linecap="round" stroke-linejoin="round" stroke-width="1.5"/>
  </g>
</svg>
