<?xml version="1.0" encoding="UTF-8" standalone="no"?>
<svg xmlns:ffdec="https://www.free-decompiler.com/flash" xmlns:xlink="http://www.w3.org/1999/xlink" ffdec:objectType="shape" height="46.15px" width="91.0px" xmlns="http://www.w3.org/2000/svg">
  <g transform="matrix(1.0, 0.0, 0.0, 1.0, 415.5, 4.15)">
    <path d="M-350.35 -1.35 Q-344.55 1.2 -339.5 5.0 -338.75 5.35 -338.05 5.8 -335.45 7.35 -332.95 9.05 L-326.9 13.6 -326.55 14.0 -326.25 14.35 -325.8 14.75 -325.0 15.5 -324.85 15.85 -324.65 16.25 -324.55 16.6 -324.5 17.0 -324.55 17.35 -324.65 17.75 -324.85 18.15 -325.05 18.45 -325.4 18.85 -325.35 19.25 -325.25 19.6 -325.15 20.0 -325.0 20.35 -325.0 20.75 -325.0 21.1 -324.8 21.5 -324.65 21.85 -324.5 22.25 -324.5 22.6 -324.5 23.0 -324.5 23.35 -324.5 24.1 -324.5 24.5 -324.5 25.25 -324.65 25.6 -324.8 26.0 -325.0 26.35 -325.0 26.75 -325.0 27.1 -325.15 27.5 -325.25 27.85 -325.4 28.25 -325.6 28.65 -325.8 29.0 -326.0 29.35 -326.0 29.75 -326.0 30.1 -326.25 30.85 -326.8 32.75 Q-327.4 34.95 -328.9 36.6 -330.55 38.3 -332.5 39.5 L-332.9 39.85 -333.25 40.25 -333.75 40.6 -334.25 40.8 -336.0 41.2 Q-338.8 41.75 -341.65 40.75 L-344.65 38.5 Q-348.35 35.85 -351.55 32.55 L-356.4 27.6 Q-359.1 25.35 -362.35 23.8 -370.75 19.85 -380.5 22.25 -382.1 23.15 -383.9 23.65 -389.65 25.2 -394.65 28.55 L-397.0 30.25 -397.35 30.65 -397.55 30.95 -397.9 31.35 -398.65 32.1 -399.0 32.5 -399.25 32.9 -399.4 33.25 -399.65 33.6 -400.0 34.0 -400.4 34.35 -400.75 34.75 -401.85 35.9 -402.5 37.0 -402.9 37.35 -403.6 38.15 Q-404.75 39.45 -406.3 40.25 L-408.4 41.75 -408.75 41.85 -409.5 42.0 -410.0 41.95 -411.1 41.7 -411.5 41.6 Q-413.2 41.3 -414.4 40.1 L-414.75 39.75 -414.9 39.35 -414.95 39.0 -415.05 38.65 -415.25 38.25 -415.4 37.85 -415.5 37.5 -415.5 37.1 -415.5 36.75 -415.5 36.35 -415.5 35.6 -415.5 35.25 -415.5 34.5 -415.4 34.1 -415.25 33.75 -415.05 33.35 -414.8 32.65 -414.5 31.85 -414.15 31.1 -413.75 30.75 -413.4 30.35 -413.0 30.0 -412.9 29.6 -412.75 29.25 -412.4 28.85 -412.0 28.5 -411.65 28.1 -411.25 27.75 -410.9 27.35 -410.55 26.6 -409.9 25.1 Q-409.15 23.3 -408.0 21.65 L-405.5 18.0 -405.15 17.6 -404.75 17.25 -404.4 16.85 -404.0 16.5 -403.65 16.1 -403.55 15.75 -403.45 15.35 -403.4 15.0 -403.1 14.65 -402.75 14.25 -402.35 13.9 -400.9 12.35 Q-400.05 11.35 -398.9 10.85 L-398.5 10.5 -398.15 10.1 -397.75 9.75 -396.25 8.25 -394.4 6.35 -385.9 1.65 Q-376.9 -3.1 -367.0 -4.0 -358.25 -4.85 -350.35 -1.35 M-343.9 8.4 Q-347.05 6.35 -350.45 4.7 L-354.0 3.0 -355.1 2.7 -355.5 2.55 -357.4 1.85 -357.75 1.7 -360.95 1.25 Q-363.5 0.75 -366.0 1.25 -375.4 1.9 -383.75 6.35 -389.5 9.4 -394.5 13.5 L-394.9 13.85 -395.25 14.25 -396.35 15.35 -397.5 16.5 -398.65 17.6 -398.8 18.0 -399.0 18.35 -399.3 18.7 -400.0 19.5 -400.25 19.9 -400.4 20.25 -400.65 20.6 -401.0 21.0 -401.4 21.35 -401.75 21.75 -402.15 22.1 Q-402.4 23.0 -402.9 23.75 L-404.05 25.65 -404.6 26.65 -406.4 29.9 Q-407.3 31.45 -408.65 32.6 L-408.8 33.0 -409.0 33.35 -409.3 33.7 -410.0 34.5 -410.0 34.85 -410.05 35.25 -410.15 35.6 -410.2 36.0 -410.15 36.05 Q-409.0 35.85 -408.15 35.1 L-407.4 34.35 -407.0 34.0 -406.9 33.6 -406.75 33.25 -406.4 32.85 -406.0 32.5 -405.25 31.75 -404.5 31.0 -404.15 30.6 -403.9 30.25 -403.75 29.9 -403.5 29.5 -401.3 27.2 Q-399.2 24.9 -396.5 23.5 -393.8 22.15 -391.4 20.35 -376.1 13.15 -360.45 19.4 -355.45 21.4 -351.35 25.1 -350.2 26.1 -349.4 27.35 L-347.65 28.85 -344.3 32.3 Q-342.15 34.6 -339.25 35.85 L-339.0 36.0 -338.0 36.1 -337.25 36.05 Q-335.5 35.75 -334.3 34.4 L-332.15 32.1 -332.05 31.75 -331.95 31.4 -331.7 30.6 -331.45 29.9 -331.15 29.1 -331.0 28.75 -331.0 28.35 -331.0 28.0 -330.9 27.6 -330.75 27.25 -330.5 26.85 -330.15 26.1 -330.0 25.75 -330.0 25.35 -330.0 25.0 -329.9 24.6 -329.75 24.25 -329.5 23.85 -329.65 23.5 -329.75 23.1 -330.0 22.35 -330.25 21.6 -330.5 20.85 -330.65 20.5 -330.9 20.15 -331.25 19.75 -331.6 19.35 -331.9 19.0 -332.0 18.6 -332.0 18.25 -332.0 17.85 -332.0 17.5 -331.9 17.1 -331.75 16.75 -331.65 16.35 -332.0 16.0 -332.4 15.6 -333.15 14.85 -333.9 14.1 -334.6 13.7 -335.15 13.4 Q-336.45 12.5 -337.85 11.85 L-339.4 11.1 -339.75 10.75 -340.0 10.5 -341.15 10.25 Q-342.5 9.25 -343.9 8.4" fill="#000000" fill-rule="evenodd" stroke="none"/>
    <path d="M-343.9 8.4 Q-342.5 9.25 -341.15 10.25 L-340.0 10.5 -339.75 10.75 -339.4 11.1 -337.85 11.85 Q-336.45 12.5 -335.15 13.4 L-334.6 13.7 -333.9 14.1 -333.15 14.85 -332.4 15.6 -332.0 16.0 -331.65 16.35 -331.75 16.75 -331.9 17.1 -332.0 17.5 -332.0 17.85 -332.0 18.25 -332.0 18.6 -331.9 19.0 -331.6 19.35 -331.25 19.75 -330.9 20.15 -330.65 20.5 -330.5 20.85 -330.25 21.6 -330.0 22.35 -329.75 23.1 -329.65 23.5 -329.5 23.85 -329.75 24.25 -329.9 24.6 -330.0 25.0 -330.0 25.35 -330.0 25.75 -330.15 26.1 -330.5 26.85 -330.75 27.25 -330.9 27.6 -331.0 28.0 -331.0 28.35 -331.0 28.75 -331.15 29.1 -331.45 29.9 -331.7 30.6 -331.95 31.4 -332.05 31.75 -332.15 32.1 -334.3 34.4 Q-335.5 35.75 -337.25 36.05 L-338.0 36.1 -339.0 36.0 -339.25 35.85 Q-342.15 34.6 -344.3 32.3 L-347.65 28.85 -349.4 27.35 Q-350.2 26.1 -351.35 25.1 -355.45 21.4 -360.45 19.4 -376.1 13.15 -391.4 20.35 -393.8 22.15 -396.5 23.5 -399.2 24.9 -401.3 27.2 L-403.5 29.5 -403.75 29.9 -403.9 30.25 -404.15 30.6 -404.5 31.0 -405.25 31.75 -406.0 32.5 -406.4 32.85 -406.75 33.25 -406.9 33.6 -407.0 34.0 -407.4 34.35 -408.15 35.1 Q-409.0 35.85 -410.15 36.05 L-410.2 36.0 -410.15 35.6 -410.05 35.25 -410.0 34.85 -410.0 34.5 -409.3 33.7 -409.0 33.35 -408.8 33.0 -408.65 32.6 Q-407.3 31.45 -406.4 29.9 L-404.6 26.65 -404.05 25.65 -402.9 23.75 Q-402.4 23.0 -402.15 22.1 L-401.75 21.75 -401.4 21.35 -401.0 21.0 -400.65 20.6 -400.4 20.25 -400.25 19.9 -400.0 19.5 -399.3 18.7 -399.0 18.35 -398.8 18.0 -398.65 17.6 -397.5 16.5 -396.35 15.35 -395.25 14.25 -394.9 13.85 -394.5 13.5 Q-389.5 9.4 -383.75 6.35 -375.4 1.9 -366.0 1.25 -363.5 0.75 -360.95 1.25 L-357.75 1.7 -357.4 1.85 -355.5 2.55 -355.1 2.7 -354.0 3.0 -350.45 4.7 Q-347.05 6.35 -343.9 8.4" fill="#80a839" fill-rule="evenodd" stroke="none"/>
  </g>
</svg>
