<?xml version="1.0" encoding="UTF-8" standalone="no"?>
<svg xmlns:ffdec="https://www.free-decompiler.com/flash" xmlns:xlink="http://www.w3.org/1999/xlink" ffdec:objectType="shape" height="26.9px" width="32.25px" xmlns="http://www.w3.org/2000/svg">
  <g transform="matrix(1.0, 0.0, 0.0, 1.0, 16.25, 11.9)">
    <path d="M4.9 -11.1 L4.95 -11.3 5.85 -11.5 6.2 -11.4 6.75 -11.1 7.4 -10.95 7.55 -11.2 8.15 -11.65 8.9 -11.9 10.6 -11.5 15.55 -5.15 15.55 -4.8 15.55 -4.55 15.7 -4.45 15.8 -4.0 16.0 -3.7 15.8 -3.15 11.25 2.2 11.05 2.35 2.05 13.0 0.35 14.85 0.3 14.75 0.1 14.65 -0.1 14.45 -0.1 14.35 -0.25 13.95 -0.35 13.7 -0.35 13.55 -0.35 13.2 -0.25 12.8 -0.1 12.1 0.1 11.85 Q2.55 8.3 4.6 4.25 5.85 2.05 6.6 -0.15 7.55 -2.2 8.05 -4.35 L8.05 -4.55 8.05 -4.65 8.05 -4.85 8.05 -5.25 7.95 -5.45 7.95 -5.65 Q7.85 -5.65 7.85 -5.8 7.7 -5.8 7.7 -5.95 L7.4 -6.2 6.6 -6.9 6.2 -7.55 5.6 -8.0 Q4.7 -8.25 4.4 -9.05 L4.15 -9.55 4.15 -9.75 4.15 -10.0 4.15 -10.35 4.25 -10.55 4.4 -10.75 4.9 -11.1" fill="#363636" fill-rule="evenodd" stroke="none"/>
    <path d="M-11.3 -10.35 L-10.55 -11.1 Q-9.85 -11.65 -9.05 -11.7 -8.7 -11.7 -8.55 -11.9 L2.4 -11.65 4.9 -11.1 4.4 -10.75 4.25 -10.55 4.15 -10.35 4.15 -10.0 4.15 -9.75 4.15 -9.55 4.4 -9.05 Q4.7 -8.25 5.6 -8.0 L6.2 -7.55 6.6 -6.9 7.4 -6.2 7.7 -5.95 Q7.7 -5.8 7.85 -5.8 7.85 -5.65 7.95 -5.65 L7.95 -5.45 8.05 -5.25 8.05 -4.85 8.05 -4.65 8.05 -4.55 8.05 -4.35 Q7.55 -2.2 6.6 -0.15 5.85 2.05 4.6 4.25 2.55 8.3 0.1 11.85 L-0.35 10.8 -0.9 9.55 -0.9 9.45 -0.9 9.2 -0.9 9.15 -1.15 8.6 -1.95 7.0 -2.6 5.6 -2.6 5.4 -2.65 4.85 -2.9 4.35 -3.25 4.15 -3.35 3.6 -3.75 1.95 -4.45 0.75 -5.4 -1.05 Q-6.1 -2.15 -7.45 -2.15 L-7.9 -2.95 -8.0 -3.3 -8.0 -3.5 -8.05 -3.6 -8.0 -3.7 -7.9 -3.9 -7.9 -4.0 -6.65 -4.85 Q-4.2 -5.65 -1.8 -6.55 L-1.45 -7.0 -1.35 -7.45 -1.2 -7.55 1.75 -8.1 2.2 -8.25 2.4 -8.6 2.55 -8.85 2.65 -9.2 2.65 -9.35 2.65 -9.65 2.55 -10.0 Q2.4 -10.1 2.4 -10.35 L2.3 -10.55 0.85 -10.95 -5.0 -11.1 -7.75 -10.65 -8.05 -10.55 -8.35 -10.55 -7.9 -10.9 -8.55 -10.75 -8.8 -10.9 -9.6 -11.1 Q-10.55 -10.9 -11.3 -10.35" fill="#494949" fill-rule="evenodd" stroke="none"/>
    <path d="M-0.5 14.5 L-1.05 14.65 -4.1 10.7 -4.2 10.45 -4.2 10.35 -4.2 10.15 -4.9 8.8 -5.9 7.3 -6.1 7.0 -6.1 6.9 -6.1 6.7 Q-6.3 6.2 -6.75 5.95 -7.1 5.25 -7.9 4.95 L-8.65 5.4 Q-8.65 4.95 -9.45 4.85 -10.2 4.7 -10.0 3.6 -9.85 2.35 -10.1 2.2 L-10.4 1.5 -10.9 0.95 -11.35 0.15 -12.25 -1.05 -12.4 -1.15 -12.65 -1.25 -12.75 -1.4 -12.85 -1.5 -12.85 -1.35 -12.95 -1.7 -13.2 -1.9 -13.2 -2.15 -13.2 -2.4 -13.3 -2.4 -13.3 -2.5 -13.7 -3.15 -13.95 -3.15 -14.4 -3.3 -14.6 -3.5 -14.9 -3.75 -15.15 -4.0 -16.25 -4.65 -15.55 -4.55 -15.55 -4.65 -15.55 -4.85 -15.4 -5.15 -15.3 -5.45 -14.75 -6.0 -14.25 -6.55 -14.25 -6.75 -14.25 -7.0 -14.15 -7.1 -14.15 -7.2 -13.7 -7.7 -12.95 -8.5 -12.85 -8.65 -11.35 -10.2 -11.3 -10.35 Q-10.55 -10.9 -9.6 -11.1 L-8.8 -10.9 -8.75 -10.7 Q-9.8 -10.55 -10.3 -10.0 L-11.3 -8.75 -11.35 -8.65 Q-12.15 -8.0 -12.4 -7.1 L-12.5 -6.15 -11.95 -5.15 Q-11.3 -4.45 -10.3 -4.35 -9.3 -4.45 -8.55 -5.15 -7.9 -5.65 -7.75 -6.55 -7.3 -6.65 -7.1 -7.0 L-6.75 -7.55 -6.65 -8.1 -6.65 -8.75 -6.75 -9.35 -6.95 -9.85 -7.75 -10.45 -7.75 -10.65 -5.0 -11.1 0.85 -10.95 2.3 -10.55 2.4 -10.35 Q2.4 -10.1 2.55 -10.0 L2.65 -9.65 2.65 -9.35 2.65 -9.2 2.55 -8.85 2.4 -8.6 2.2 -8.25 1.75 -8.1 -1.2 -7.55 -1.35 -7.45 -1.45 -7.0 -1.8 -6.55 Q-4.2 -5.65 -6.65 -4.85 L-7.9 -4.0 -7.9 -3.9 -8.0 -3.7 -8.05 -3.6 -8.0 -3.5 -8.0 -3.3 -7.9 -2.95 -7.45 -2.15 Q-6.1 -2.15 -5.4 -1.05 L-4.45 0.75 -3.75 1.95 -3.35 3.6 -3.25 4.15 -2.9 4.35 -2.65 4.85 -2.6 5.4 -2.6 5.6 -1.95 7.0 -1.15 8.6 -0.9 9.15 -0.9 9.2 -0.9 9.45 -0.9 9.55 -0.35 10.8 0.1 11.85 -0.1 12.1 -0.25 12.8 -0.35 13.2 -0.35 13.55 -0.35 13.7 -0.25 13.95 -0.1 14.35 -0.5 14.5" fill="#747474" fill-rule="evenodd" stroke="none"/>
    <path d="M2.05 13.0 Q1.3 13.85 0.75 15.0 L0.3 14.85 0.35 14.85 2.05 13.0" fill="#990000" fill-rule="evenodd" stroke="none"/>
    <path d="M0.3 14.85 L0.3 14.75 0.35 14.85 0.3 14.85" fill="#26bf00" fill-rule="evenodd" stroke="none"/>
    <path d="M-7.75 -10.45 L-6.95 -9.85 -6.75 -9.35 -6.65 -8.75 -6.65 -8.1 -6.75 -7.55 -7.1 -7.0 Q-7.3 -6.65 -7.75 -6.55 -7.9 -5.65 -8.55 -5.15 -9.3 -4.45 -10.3 -4.35 -11.3 -4.45 -11.95 -5.15 L-12.5 -6.15 -12.4 -7.1 Q-12.15 -8.0 -11.35 -8.65 L-11.3 -8.75 -10.3 -10.0 Q-9.8 -10.55 -8.75 -10.7 L-8.55 -10.75 -7.9 -10.9 -8.35 -10.55 -8.05 -10.55 -7.75 -10.45" fill="#959595" fill-rule="evenodd" stroke="none"/>
    <path d="M-7.75 -10.65 L-7.75 -10.45 -8.05 -10.55 -7.75 -10.65" fill="#dddddd" fill-opacity="0.29803923" fill-rule="evenodd" stroke="none"/>
    <path d="M-8.75 -10.7 L-8.8 -10.9 -8.55 -10.75 -8.75 -10.7" fill="#33ff00" fill-rule="evenodd" stroke="none"/>
    <path d="M-0.1 14.45 L-0.5 14.5 -0.1 14.35 -0.1 14.45" fill="#00ccff" fill-rule="evenodd" stroke="none"/>
  </g>
</svg>
