<?xml version="1.0" encoding="UTF-8" standalone="no"?>
<svg xmlns:ffdec="https://www.free-decompiler.com/flash" xmlns:xlink="http://www.w3.org/1999/xlink" ffdec:objectType="shape" height="26.9px" width="32.4px" xmlns="http://www.w3.org/2000/svg">
  <g transform="matrix(1.0, 0.0, 0.0, 1.0, 16.7, 12.05)">
    <path d="M4.5 -11.25 L4.55 -11.55 5.45 -11.7 5.85 -11.65 6.35 -11.25 7.0 -11.15 7.15 -11.35 7.8 -11.85 8.6 -12.05 10.25 -11.7 15.2 -5.3 15.2 -4.95 15.2 -4.75 15.4 -4.65 15.5 -4.15 15.7 -3.85 15.5 -3.35 10.95 2.0 10.7 2.2 1.7 12.95 1.6 13.1 1.55 13.15 -0.1 14.8 -0.1 14.65 -0.3 14.55 -0.5 14.35 -0.5 14.2 -0.65 13.85 -0.75 13.65 -0.75 13.5 -0.75 13.45 -0.75 13.1 -0.65 12.65 -0.5 12.0 -0.3 11.75 Q2.15 8.15 4.25 4.1 L6.2 -0.3 Q7.15 -2.4 7.7 -4.5 L7.7 -4.75 7.7 -4.85 7.7 -5.1 7.7 -5.45 7.55 -5.6 7.55 -5.9 7.5 -6.0 7.35 -6.1 7.0 -6.35 6.2 -7.1 5.85 -7.75 5.25 -8.2 Q4.35 -8.45 4.05 -9.3 L3.75 -9.75 3.75 -10.0 3.75 -10.2 3.75 -10.55 3.85 -10.8 4.05 -10.95 4.5 -11.25" fill="#c64f00" fill-rule="evenodd" stroke="none"/>
    <path d="M-11.75 -10.55 L-11.0 -11.25 Q-10.25 -11.85 -9.5 -11.95 L-8.95 -12.05 2.0 -11.85 4.5 -11.25 4.05 -10.95 3.85 -10.8 3.75 -10.55 3.75 -10.2 3.75 -10.0 3.75 -9.75 4.05 -9.3 Q4.35 -8.45 5.25 -8.2 L5.85 -7.75 6.2 -7.1 7.0 -6.35 7.35 -6.1 7.5 -6.0 7.55 -5.9 7.55 -5.6 7.7 -5.45 7.7 -5.1 7.7 -4.85 7.7 -4.75 7.7 -4.5 Q7.15 -2.4 6.2 -0.3 L4.25 4.1 Q2.15 8.15 -0.3 11.75 L-0.75 10.7 -1.25 9.45 -1.25 9.3 -1.25 9.1 -1.25 9.0 -1.5 8.45 -2.35 6.9 -3.0 5.4 -3.0 5.25 -3.05 4.7 -3.35 4.25 -3.65 4.0 -3.7 3.5 -4.15 1.8 -4.9 0.55 -5.85 -1.25 Q-6.5 -2.3 -7.85 -2.3 L-8.35 -3.1 -8.4 -3.45 -8.4 -3.7 -8.5 -3.7 -8.4 -3.85 -8.35 -4.05 -8.35 -4.15 Q-7.75 -4.85 -7.05 -5.1 L-2.2 -6.75 -1.85 -7.15 -1.75 -7.65 -1.65 -7.75 1.35 -8.3 1.8 -8.45 2.0 -8.7 2.15 -9.05 2.25 -9.4 2.25 -9.5 2.25 -9.8 2.15 -10.2 Q2.0 -10.3 2.0 -10.55 L1.9 -10.8 0.45 -11.15 -5.4 -11.25 -8.2 -10.9 -8.5 -10.8 -8.7 -10.8 -8.35 -11.05 -8.95 -10.95 -9.25 -11.05 -10.05 -11.25 -11.75 -10.55" fill="#ff6600" fill-rule="evenodd" stroke="none"/>
    <path d="M-0.9 14.45 L-1.4 14.55 -4.5 10.6 -4.6 10.35 -4.6 10.25 -4.6 10.0 -5.3 8.7 -6.25 7.15 -6.5 6.9 -6.5 6.8 -6.5 6.55 -7.15 5.8 Q-7.55 5.1 -8.35 4.8 L-9.1 5.25 Q-9.1 4.8 -9.85 4.7 -10.65 4.55 -10.4 3.5 -10.25 2.2 -10.55 2.0 L-10.85 1.3 -11.3 0.85 -11.8 0.05 -12.7 -1.25 -12.85 -1.3 -13.1 -1.4 -13.2 -1.6 -13.3 -1.75 -13.3 -1.5 -13.4 -1.85 -13.6 -2.1 -13.6 -2.3 -13.6 -2.55 -13.7 -2.55 -13.7 -2.65 -14.15 -3.35 -14.4 -3.35 -14.8 -3.45 -15.05 -3.7 -15.4 -3.95 -15.6 -4.15 -16.7 -4.85 -15.9 -4.75 -15.9 -4.85 -15.9 -5.1 -15.85 -5.3 -15.75 -5.6 -15.2 -6.15 -14.75 -6.75 -14.75 -6.95 -14.75 -7.15 -14.65 -7.3 -14.65 -7.4 -14.15 -7.9 -13.4 -8.6 -13.3 -8.85 -11.8 -10.4 -11.75 -10.55 -10.05 -11.25 -9.25 -11.05 -8.95 -10.95 Q-10.2 -10.8 -10.75 -10.2 L-11.75 -8.95 -11.8 -8.85 Q-12.6 -8.2 -12.85 -7.3 L-12.95 -6.3 -12.4 -5.3 Q-11.75 -4.65 -10.75 -4.5 -9.75 -4.65 -8.95 -5.3 -8.35 -5.9 -8.2 -6.75 L-7.55 -7.15 -7.15 -7.75 -7.05 -8.3 -7.05 -8.95 -7.15 -9.5 -7.4 -10.1 -8.2 -10.6 -8.2 -10.9 -5.4 -11.25 0.45 -11.15 1.9 -10.8 2.0 -10.55 Q2.0 -10.3 2.15 -10.2 L2.25 -9.8 2.25 -9.5 2.25 -9.4 2.15 -9.05 2.0 -8.7 1.8 -8.45 1.35 -8.3 -1.65 -7.75 -1.75 -7.65 -1.85 -7.15 -2.2 -6.75 -7.05 -5.1 Q-7.75 -4.85 -8.35 -4.15 L-8.35 -4.05 -8.4 -3.85 -8.5 -3.7 -8.4 -3.7 -8.4 -3.45 -8.35 -3.1 -7.85 -2.3 Q-6.5 -2.3 -5.85 -1.25 L-4.9 0.55 -4.15 1.8 -3.7 3.5 -3.65 4.0 -3.35 4.25 -3.05 4.7 -3.0 5.25 -3.0 5.4 -2.35 6.9 -1.5 8.45 -1.25 9.0 -1.25 9.1 -1.25 9.3 -1.25 9.45 -0.75 10.7 -0.3 11.75 -0.5 12.0 -0.65 12.65 -0.75 13.1 -0.75 13.45 -0.75 13.5 -0.75 13.65 -0.65 13.85 -0.5 14.2 -0.7 14.35 -0.9 14.45" fill="#ff9d5b" fill-rule="evenodd" stroke="none"/>
    <path d="M-8.95 -10.95 L-8.35 -11.05 -8.7 -10.8 -8.5 -10.8 -8.2 -10.6 -7.4 -10.1 -7.15 -9.5 -7.05 -8.95 -7.05 -8.3 -7.15 -7.75 -7.55 -7.15 -8.2 -6.75 Q-8.35 -5.9 -8.95 -5.3 -9.75 -4.65 -10.75 -4.5 -11.75 -4.65 -12.4 -5.3 L-12.95 -6.3 -12.85 -7.3 Q-12.6 -8.2 -11.8 -8.85 L-11.75 -8.95 -10.75 -10.2 Q-10.2 -10.8 -8.95 -10.95" fill="#ffc49b" fill-rule="evenodd" stroke="none"/>
    <path d="M-8.5 -10.8 L-8.2 -10.9 -8.2 -10.6 -8.5 -10.8" fill="#dddddd" fill-opacity="0.29803923" fill-rule="evenodd" stroke="none"/>
    <path d="M1.55 13.15 L1.25 13.5 0.7 14.35 0.35 14.85 -0.1 14.8 1.55 13.15" fill="#990000" fill-rule="evenodd" stroke="none"/>
    <path d="M-0.5 14.35 L-0.9 14.45 -0.7 14.35 -0.5 14.2 -0.5 14.35" fill="#00ccff" fill-rule="evenodd" stroke="none"/>
  </g>
</svg>
