<?xml version="1.0" encoding="UTF-8" standalone="no"?>
<svg xmlns:ffdec="https://www.free-decompiler.com/flash" xmlns:xlink="http://www.w3.org/1999/xlink" ffdec:objectType="shape" height="78.5px" width="61.65px" xmlns="http://www.w3.org/2000/svg">
  <g transform="matrix(1.0, 0.0, 0.0, 1.0, 237.65, 54.15)">
    <path d="M-225.1 -33.45 Q-216.1 -49.1 -199.9 -53.95 -188.05 -55.4 -181.75 -45.75 -177.55 -39.3 -179.4 -31.7 L-179.05 -29.45 Q-178.9 -27.95 -178.9 -26.45 -178.85 -24.15 -179.3 -22.0 L-179.75 -20.1 -179.55 -19.4 Q-174.4 -14.5 -176.7 -4.95 -178.75 3.55 -186.45 5.5 -197.25 25.75 -222.85 24.25 -237.25 23.4 -237.65 9.55 -237.8 2.55 -232.2 -1.7 L-232.0 -2.45 -231.85 -3.95 -231.65 -5.45 -231.35 -6.95 -230.9 -8.45 Q-231.75 -21.8 -225.1 -33.45" fill="#0000ff" fill-rule="evenodd" stroke="none"/>
  </g>
</svg>
