<?xml version="1.0" encoding="UTF-8" standalone="no"?>
<svg xmlns:ffdec="https://www.free-decompiler.com/flash" xmlns:xlink="http://www.w3.org/1999/xlink" ffdec:objectType="shape" height="30.9px" width="26.95px" xmlns="http://www.w3.org/2000/svg">
  <g transform="matrix(1.0, 0.0, 0.0, 1.0, 13.5, 16.4)">
    <path d="M0.65 -15.35 Q1.15 -15.0 1.8 -14.8 6.2 -12.75 9.85 -9.85 L11.85 -8.25 12.35 -8.05 12.7 -7.75 13.0 -7.7 13.0 -7.6 13.0 -7.0 Q12.35 -4.75 12.55 -2.25 12.75 1.45 12.4 5.05 L12.4 5.8 12.45 6.55 Q10.15 7.8 7.8 9.25 L1.65 12.25 0.1 13.25 -0.5 14.0 -1.1 13.55 -1.0 13.25 -0.85 12.85 -1.45 12.3 -2.45 11.85 -9.35 8.25 -11.2 6.45 -11.65 7.0 -11.8 7.05 -11.95 6.6 -12.65 5.55 -12.4 4.7 Q-12.05 2.3 -12.75 0.75 L-13.25 -0.15 -13.15 -1.95 -13.15 -2.0 -12.75 -2.35 -12.5 -2.45 Q-12.4 -3.45 -12.55 -4.25 L-12.35 -5.45 -12.1 -6.85 -12.1 -6.95 -12.2 -7.15 -12.1 -7.25 -12.1 -7.3 Q-12.1 -8.05 -12.35 -8.45 L-12.35 -8.6 -12.1 -8.8 -11.6 -9.15 -11.35 -9.3 -11.2 -9.1 -6.3 -11.95 -3.65 -13.55 -2.5 -14.3 -2.3 -14.45 Q-2.0 -14.4 -1.55 -14.75 L-1.1 -15.0 -1.0 -15.05 0.15 -15.35 0.65 -15.35 M9.4 -0.9 L9.5 -0.7 9.5 -0.9 9.4 -0.9 M8.05 -7.4 L8.0 -7.4 8.0 -7.3 8.05 -7.4" fill="#ffcc00" fill-rule="evenodd" stroke="none"/>
    <path d="M-0.05 -15.65 L12.7 -8.35 12.7 6.4 1.65 12.95 -0.05 13.75 -0.1 13.75 -0.2 13.7 -0.25 13.7 -12.75 6.4 -12.75 -8.35 -0.05 -15.65 Z" fill="none" stroke="#ffcc00" stroke-linecap="round" stroke-linejoin="round" stroke-width="1.5"/>
  </g>
</svg>
