<?xml version="1.0" encoding="UTF-8" standalone="no"?>
<svg xmlns:ffdec="https://www.free-decompiler.com/flash" xmlns:xlink="http://www.w3.org/1999/xlink" ffdec:objectType="shape" height="433.7px" width="515.65px" xmlns="http://www.w3.org/2000/svg">
  <g transform="matrix(1.0, 0.0, 0.0, 1.0, 97.6, 180.75)">
    <path d="M133.65 -132.05 Q171.1 -108.1 199.95 -74.25 203.85 -69.7 208.15 -65.45 L212.3 -57.2 Q208.75 -54.3 204.45 -53.0 198.2 -50.9 191.7 -50.15 177.75 -48.3 164.1 -45.35 178.05 -41.35 191.35 -35.2 213.5 -25.15 232.15 -9.45 L233.15 -6.45 Q248.3 4.95 265.4 13.25 294.8 27.6 326.75 20.2 337.1 17.75 346.85 12.8 364.25 3.95 377.1 -10.45 394.6 -30.0 395.0 -56.7 395.4 -82.7 385.45 -106.65 L370.65 -126.6 383.2 -127.95 399.7 -109.95 414.7 -63.45 416.7 -60.45 418.05 -20.55 416.7 -18.95 Q417.0 -10.1 414.5 -1.5 412.0 7.1 408.3 15.35 398.55 36.9 384.85 55.2 370.2 74.85 350.7 89.6 342.35 95.95 331.95 98.0 336.05 101.15 341.0 102.4 354.2 105.3 367.8 105.55 374.95 105.65 381.3 108.4 L382.45 114.35 380.7 116.6 380.7 119.6 Q357.55 149.9 327.95 174.65 320.15 181.2 311.25 186.65 292.6 198.15 273.3 208.65 248.9 221.85 222.55 230.3 173.6 245.85 122.8 248.7 121.1 248.4 119.35 248.7 93.15 254.55 65.95 252.3 43.85 250.15 22.55 244.1 -2.4 237.25 -23.95 222.95 -32.75 217.1 -37.75 207.9 L-30.9 206.1 Q-16.7 211.8 -1.65 214.55 29.35 220.25 59.4 211.7 81.45 205.25 103.15 197.6 104.95 191.8 110.4 189.1 121.5 183.45 129.8 174.4 136.15 167.45 139.3 158.5 L142.05 149.45 Q133.25 147.65 124.3 148.45 98.95 149.8 75.1 141.5 57.0 135.2 40.3 126.05 12.15 110.7 -4.4 83.1 L-5.05 66.7 -6.4 65.1 Q-6.4 60.9 -6.85 56.6 -7.25 52.85 -6.65 49.05 L-6.1 46.75 -2.4 35.05 Q1.75 30.45 7.15 27.3 27.05 15.65 48.35 23.15 56.7 26.1 65.2 27.95 60.8 -0.6 45.95 -25.75 37.75 -39.55 26.4 -50.75 19.2 -57.9 9.15 -61.15 4.35 -62.65 1.6 -66.95 3.35 -70.2 6.9 -70.95 35.95 -76.9 65.65 -79.45 L45.1 -110.95 24.75 -128.5 Q6.3 -144.45 -16.4 -152.95 L-30.8 -158.15 Q-37.55 -160.45 -44.45 -162.4 -64.5 -167.95 -83.85 -163.9 L-92.4 -161.8 Q-95.35 -160.95 -97.6 -162.8 L-96.85 -164.95 -95.55 -166.4 Q-93.95 -167.55 -92.2 -168.45 -91.35 -169.0 -90.35 -169.35 L-88.35 -169.65 Q-83.95 -169.75 -79.95 -171.85 L-79.4 -172.05 -73.3 -172.55 Q-63.4 -174.15 -53.4 -176.9 -33.3 -182.65 -12.6 -179.85 42.65 -172.95 93.85 -152.45 114.7 -144.15 133.65 -132.05 M-13.95 217.65 Q-14.7 217.1 -15.7 217.1 -16.7 217.1 -17.4 217.65 -18.15 218.15 -18.15 218.9 -18.15 219.65 -17.4 220.2 -16.7 220.7 -15.7 220.7 -14.7 220.7 -13.95 220.2 -13.25 219.65 -13.25 218.9 -13.25 218.15 -13.95 217.65" fill="#ff4900" fill-opacity="0.3019608" fill-rule="evenodd" stroke="none"/>
  </g>
</svg>
