<?xml version="1.0" encoding="UTF-8" standalone="no"?>
<svg xmlns:ffdec="https://www.free-decompiler.com/flash" xmlns:xlink="http://www.w3.org/1999/xlink" ffdec:objectType="shape" height="33.5px" width="101.65px" xmlns="http://www.w3.org/2000/svg">
  <g transform="matrix(1.0, 0.0, 0.0, 1.0, -35.0, 73.0)">
    <path d="M59.0 -61.75 L66.0 -62.35 68.15 -62.4 68.35 -62.35 68.65 -62.3 69.65 -62.2 69.9 -62.15 70.05 -62.05 70.15 -61.95 70.25 -61.9 70.35 -61.8 70.35 -61.7 70.45 -61.6 70.45 -61.5 70.45 -61.4 70.5 -61.3 70.5 -61.2 70.5 -61.15 70.45 -61.05 70.45 -60.95 70.4 -60.85 70.35 -60.75 70.3 -60.7 70.3 -60.65 70.95 -60.7 71.75 -60.75 72.0 -60.7 73.9 -60.45 Q74.95 -60.3 75.75 -59.65 L75.8 -59.55 75.85 -59.45 75.9 -59.4 75.9 -59.3 75.95 -59.2 76.0 -59.1 76.0 -59.0 76.0 -58.9 75.95 -58.8 75.9 -58.7 75.9 -58.65 75.85 -58.55 75.8 -58.45 75.75 -58.35 75.65 -58.25 75.55 -58.15 75.45 -58.05 75.35 -57.95 75.25 -57.9 75.1 -57.7 74.95 -57.6 Q73.7 -56.8 72.25 -56.45 L70.8 -56.1 64.15 -53.9 60.7 -52.65 57.85 -51.6 55.6 -50.75 54.25 -50.2 61.8 -50.65 65.75 -51.1 73.05 -52.0 76.35 -52.4 80.25 -52.65 81.05 -52.8 81.15 -52.9 81.25 -53.0 81.35 -53.1 81.5 -53.15 81.55 -53.2 81.7 -53.2 81.9 -53.25 82.1 -53.2 82.3 -53.15 82.45 -53.05 82.5 -53.0 84.5 -53.4 86.55 -53.8 87.35 -54.0 87.5 -54.05 90.75 -54.65 95.85 -55.4 93.55 -56.35 Q92.4 -56.7 91.4 -57.3 L90.3 -57.7 89.4 -58.05 88.9 -58.3 88.85 -58.4 88.75 -58.5 88.65 -58.6 88.6 -58.7 88.55 -58.8 88.5 -58.9 88.5 -58.95 88.5 -59.05 88.5 -59.15 88.5 -59.25 88.5 -59.35 88.5 -59.45 88.55 -59.55 88.6 -59.65 88.65 -59.7 88.75 -59.8 88.85 -59.9 88.95 -60.0 89.1 -60.05 93.0 -60.5 98.0 -60.55 98.05 -60.65 98.1 -60.75 98.15 -60.85 98.25 -60.95 98.35 -61.05 98.5 -61.1 98.65 -61.2 98.8 -61.2 99.0 -61.25 101.6 -60.85 104.25 -60.45 106.8 -60.2 108.35 -59.95 109.15 -59.9 109.55 -59.8 109.7 -59.7 109.85 -59.6 109.9 -59.55 110.0 -59.45 110.0 -59.35 110.1 -59.25 110.1 -59.15 110.1 -59.05 110.15 -58.95 110.15 -58.9 110.15 -58.8 110.1 -58.7 110.1 -58.6 110.05 -58.5 110.0 -58.4 109.9 -58.3 109.85 -58.2 109.75 -58.15 109.6 -58.05 109.5 -57.95 109.35 -57.95 109.15 -57.9 108.25 -57.9 103.7 -58.4 103.0 -58.45 93.75 -58.45 95.4 -57.8 96.85 -57.15 98.1 -56.6 98.25 -56.5 98.5 -56.3 98.75 -56.15 98.95 -55.95 99.15 -55.75 99.25 -55.65 99.3 -55.55 99.35 -55.45 99.4 -55.4 99.4 -55.3 99.45 -55.2 99.5 -55.1 99.5 -55.0 99.5 -54.9 99.45 -54.8 99.4 -54.7 99.4 -54.65 99.35 -54.55 99.3 -54.45 99.25 -54.35 99.15 -54.25 99.05 -54.15 98.9 -54.05 Q96.6 -53.3 94.15 -53.1 L90.75 -52.65 86.55 -51.8 84.35 -51.35 83.35 -51.15 83.25 -51.05 83.15 -50.95 83.05 -50.85 82.9 -50.75 82.65 -50.7 80.75 -50.7 79.3 -50.5 Q76.55 -50.15 74.0 -48.95 L75.75 -48.65 79.45 -48.45 79.65 -48.4 79.8 -48.3 79.9 -48.2 80.0 -48.15 80.1 -48.05 80.1 -47.95 80.15 -47.85 80.2 -47.75 80.2 -47.65 80.25 -47.55 80.25 -47.45 80.25 -47.4 80.2 -47.3 80.15 -47.2 80.15 -47.1 80.1 -47.0 80.0 -46.9 79.95 -46.8 79.85 -46.7 79.7 -46.65 79.6 -46.55 79.4 -46.55 79.25 -46.5 63.35 -46.45 62.45 -46.4 61.8 -46.3 61.05 -46.15 60.5 -46.0 60.1 -45.9 59.7 -45.8 59.6 -45.8 59.5 -45.7 Q61.4 -44.65 63.5 -44.0 L66.45 -43.1 68.1 -42.7 71.05 -42.15 71.2 -42.05 71.35 -41.95 71.45 -41.9 71.5 -41.8 71.5 -41.7 71.6 -41.6 71.6 -41.5 71.6 -41.4 71.65 -41.3 71.65 -41.2 71.65 -41.15 71.6 -41.05 71.6 -40.95 71.55 -40.85 71.5 -40.75 71.45 -40.65 71.35 -40.55 71.25 -40.45 71.1 -40.4 71.0 -40.3 70.85 -40.3 70.65 -40.25 70.05 -40.2 66.45 -39.8 66.0 -39.8 51.5 -39.75 50.35 -39.95 49.35 -40.15 48.85 -40.25 Q48.3 -40.4 47.85 -40.65 L47.7 -40.7 47.65 -40.7 47.45 -40.75 47.3 -40.8 47.1 -40.85 46.9 -40.95 46.8 -41.05 46.7 -41.15 46.65 -41.2 46.55 -41.3 46.5 -41.4 46.45 -41.5 46.45 -41.6 46.45 -41.7 46.4 -41.8 46.4 -41.9 46.4 -41.95 46.4 -42.05 46.45 -42.15 46.45 -42.25 46.5 -42.35 46.55 -42.45 46.6 -42.55 46.7 -42.65 46.8 -42.7 47.0 -42.8 47.2 -42.85 47.4 -42.9 47.6 -42.85 47.8 -42.8 47.95 -42.7 48.05 -42.65 48.15 -42.6 48.6 -42.45 49.0 -42.3 49.25 -42.2 49.65 -42.1 50.05 -42.0 50.55 -41.9 51.1 -41.8 51.3 -41.8 63.8 -41.8 60.95 -42.8 Q60.0 -43.1 59.2 -43.6 L57.55 -44.45 57.45 -44.55 57.35 -44.65 57.25 -44.7 57.2 -44.8 57.1 -44.9 57.0 -45.0 56.9 -45.1 56.85 -45.2 56.8 -45.3 56.75 -45.4 56.75 -45.45 56.75 -45.55 56.75 -45.65 56.75 -45.75 56.75 -45.85 56.75 -45.95 56.75 -46.05 56.75 -46.15 56.75 -46.2 56.75 -46.3 56.8 -46.4 56.85 -46.5 56.95 -46.6 57.0 -46.7 57.1 -46.8 57.2 -46.9 57.3 -46.95 57.4 -47.05 Q58.8 -47.75 60.35 -48.05 L63.35 -48.45 70.4 -48.55 70.4 -48.65 70.4 -48.75 70.4 -48.85 70.4 -48.95 70.45 -49.05 70.45 -49.15 70.5 -49.2 70.5 -49.3 70.55 -49.4 70.6 -49.5 70.7 -49.6 70.7 -49.65 69.85 -49.55 61.5 -48.65 57.75 -48.3 56.95 -48.25 47.75 -48.15 47.55 -48.2 47.35 -48.25 47.15 -48.35 47.05 -48.45 46.95 -48.55 46.9 -48.65 46.85 -48.7 46.8 -48.8 46.75 -48.9 46.75 -49.0 46.75 -49.1 46.75 -49.2 46.75 -49.3 46.75 -49.4 46.75 -49.45 46.8 -49.55 46.85 -49.65 46.95 -49.75 47.0 -49.85 47.1 -49.95 47.25 -50.0 Q49.65 -51.1 52.15 -51.6 L53.1 -51.9 59.95 -54.5 64.2 -54.5 64.2 -56.1 65.0 -56.4 71.75 -58.45 72.4 -58.65 72.25 -58.65 65.4 -58.2 64.2 -58.05 64.2 -60.4 47.05 -60.4 47.25 -60.45 50.0 -61.25 54.55 -62.65 54.85 -62.75 54.65 -62.75 50.3 -62.05 45.95 -61.25 41.65 -60.4 36.95 -60.4 36.95 -58.35 36.25 -58.5 36.05 -58.6 35.9 -58.7 35.85 -58.75 35.75 -58.8 35.6 -58.85 35.4 -58.95 35.3 -59.05 35.2 -59.15 35.15 -59.2 35.1 -59.3 35.05 -59.4 35.0 -59.5 35.0 -59.6 35.0 -59.7 35.0 -59.8 35.0 -59.9 35.0 -59.95 35.0 -60.05 35.05 -60.15 35.1 -60.25 35.2 -60.35 35.2 -60.45 35.25 -60.55 35.35 -60.65 35.45 -60.7 35.55 -60.8 35.75 -60.9 Q37.85 -61.8 40.1 -62.15 L44.35 -62.95 46.85 -63.45 48.5 -63.75 51.4 -64.25 56.0 -64.9 59.5 -65.25 64.65 -65.25 64.85 -65.2 65.05 -65.15 65.2 -65.05 65.35 -64.95 65.45 -64.9 65.5 -64.8 65.5 -64.7 65.6 -64.6 65.6 -64.5 65.6 -64.4 65.65 -64.3 65.65 -64.2 65.65 -64.15 65.6 -64.05 65.6 -63.95 65.55 -63.85 65.5 -63.75 65.45 -63.65 65.35 -63.55 65.25 -63.45 65.1 -63.4 62.15 -62.45 61.15 -62.2 59.7 -61.9 59.0 -61.75 M136.05 -65.9 L136.2 -65.8 136.3 -65.7 136.4 -65.65 136.5 -65.55 136.5 -65.45 136.6 -65.35 136.6 -65.25 136.6 -65.15 136.65 -65.05 136.65 -64.95 136.65 -64.9 136.6 -64.8 136.6 -64.7 136.55 -64.6 136.5 -64.5 136.4 -64.4 136.35 -64.3 136.25 -64.2 136.1 -64.15 135.95 -64.05 135.85 -63.95 133.3 -63.45 129.1 -62.85 126.1 -62.25 124.5 -61.8 124.35 -61.7 124.0 -61.5 123.65 -61.3 123.15 -61.05 123.8 -60.8 127.05 -59.75 130.35 -58.05 131.9 -56.8 132.0 -56.7 132.0 -56.6 132.1 -56.5 132.1 -56.4 132.1 -56.3 132.15 -56.2 132.15 -56.15 132.15 -56.05 132.1 -55.95 132.1 -55.85 132.05 -55.75 132.0 -55.55 131.9 -55.3 131.8 -55.0 131.75 -54.9 131.7 -54.8 131.65 -54.7 131.65 -54.65 131.6 -54.55 131.6 -54.45 131.55 -54.35 131.5 -54.25 131.4 -54.15 131.35 -54.05 131.25 -53.95 131.1 -53.9 130.05 -53.2 128.6 -52.2 128.15 -51.9 126.55 -51.15 121.95 -48.95 120.5 -48.15 120.2 -47.95 120.5 -47.9 120.65 -47.85 120.9 -47.8 121.05 -47.7 121.15 -47.6 121.25 -47.55 121.35 -47.45 121.4 -47.35 121.5 -47.25 121.55 -47.15 121.6 -47.05 121.6 -46.95 121.65 -46.9 121.65 -46.8 121.65 -46.7 121.65 -46.6 121.6 -46.5 121.6 -46.4 121.6 -46.3 121.5 -46.2 121.5 -46.15 121.4 -46.05 121.35 -45.95 121.2 -45.85 121.05 -45.75 120.8 -45.65 120.65 -45.55 120.5 -45.45 Q119.45 -44.8 118.25 -44.6 L115.4 -44.5 115.2 -44.55 115.0 -44.6 114.8 -44.7 114.7 -44.8 114.6 -44.9 114.55 -44.95 114.5 -45.05 114.45 -45.15 114.4 -45.25 114.4 -45.35 114.4 -45.45 114.4 -45.55 114.4 -45.65 114.4 -45.7 114.4 -45.8 114.45 -45.9 114.5 -46.0 114.55 -46.05 112.15 -45.95 103.1 -45.0 102.1 -44.8 99.0 -44.15 Q95.0 -44.0 91.0 -44.3 89.6 -44.45 88.35 -44.95 L88.2 -45.05 88.1 -45.15 88.0 -45.25 87.9 -45.35 87.8 -45.45 87.75 -45.55 87.7 -45.65 87.65 -45.7 87.65 -45.8 87.65 -45.9 87.65 -46.0 87.65 -46.1 87.65 -46.2 87.65 -46.3 87.65 -46.4 87.65 -46.45 87.65 -46.55 87.7 -46.65 87.75 -46.75 87.85 -46.85 87.9 -46.95 88.0 -47.05 88.2 -47.1 88.3 -47.2 88.45 -47.2 88.65 -47.25 88.85 -47.2 89.05 -47.15 89.2 -47.05 89.35 -46.95 89.4 -46.9 89.5 -46.8 89.5 -46.7 89.6 -46.6 92.15 -46.2 99.1 -46.2 102.85 -46.95 106.75 -47.45 113.05 -48.0 116.9 -48.2 120.65 -50.5 123.6 -51.95 Q126.05 -52.95 128.2 -54.4 L129.8 -55.45 129.85 -55.55 129.85 -55.65 129.9 -55.7 129.9 -55.8 129.9 -55.9 129.85 -56.0 129.7 -56.1 129.6 -56.2 129.45 -56.3 129.2 -56.45 129.1 -56.55 128.1 -57.05 Q125.7 -58.2 123.1 -58.95 L121.6 -59.35 121.4 -59.45 121.15 -59.55 121.0 -59.6 120.55 -59.8 120.35 -59.9 120.25 -60.0 120.15 -60.1 120.05 -60.2 120.0 -60.3 119.95 -60.4 119.9 -60.45 119.9 -60.55 119.9 -60.65 119.9 -60.75 119.9 -60.85 119.9 -60.95 119.9 -61.05 119.9 -61.15 119.9 -61.2 119.95 -61.3 120.0 -61.4 120.1 -61.5 120.15 -61.6 120.25 -61.7 120.35 -61.8 120.5 -61.85 120.8 -62.05 120.9 -62.15 123.3 -63.35 Q124.55 -63.95 125.95 -64.25 L128.55 -64.75 131.15 -65.15 130.05 -65.45 125.45 -66.75 Q124.45 -67.0 123.55 -67.4 L122.2 -68.05 122.1 -68.15 122.0 -68.25 121.9 -68.35 121.8 -68.45 121.75 -68.55 121.7 -68.65 121.65 -68.7 121.65 -68.8 121.65 -68.9 121.65 -69.0 121.65 -69.1 121.65 -69.2 121.65 -69.3 121.65 -69.4 121.65 -69.45 121.7 -69.55 121.75 -69.65 121.85 -69.75 121.9 -69.85 122.0 -69.95 122.15 -70.05 122.3 -70.1 122.4 -70.15 122.75 -70.2 123.45 -70.35 124.4 -70.5 125.9 -70.5 126.1 -70.45 126.3 -70.4 126.45 -70.3 126.6 -70.2 126.65 -70.15 126.75 -70.05 126.75 -69.95 126.85 -69.85 126.85 -69.75 126.85 -69.65 126.9 -69.55 126.9 -69.45 126.9 -69.4 126.9 -69.3 126.85 -69.2 126.85 -69.1 126.8 -69.0 126.75 -68.9 126.65 -68.8 126.6 -68.7 126.5 -68.65 126.4 -68.55 127.85 -68.15 131.95 -67.0 133.65 -66.65 135.65 -66.0 135.85 -65.95 136.05 -65.9" fill="#999999" fill-opacity="0.49803922" fill-rule="evenodd" stroke="none"/>
    <path d="M53.4 -60.7 L59.75 -60.35 60.5 -60.35 64.0 -60.25 64.45 -60.1 64.75 -59.95 64.95 -59.75 65.05 -59.55 65.15 -59.35 65.2 -59.2 65.25 -59.0 65.25 -58.8 65.25 -58.6 65.2 -58.45 65.05 -58.25 64.95 -58.05 64.7 -57.9 64.4 -57.7 64.2 -57.5 64.0 -57.3 63.8 -57.1 63.6 -56.95 63.4 -56.75 63.25 -56.6 63.1 -56.6 62.75 -56.5 62.4 -56.35 62.3 -56.2 62.15 -56.0 62.0 -55.85 61.85 -55.85 61.5 -55.75 60.75 -55.75 60.25 -55.85 60.0 -56.05 59.8 -56.25 59.7 -56.45 59.55 -56.6 59.5 -56.8 59.5 -57.0 59.5 -57.2 59.55 -57.35 59.7 -57.55 59.8 -57.75 60.0 -57.85 60.15 -57.95 60.65 -58.05 60.9 -58.2 61.05 -58.25 59.75 -58.35 54.0 -58.65 53.4 -58.7 51.65 -58.85 51.05 -58.9 49.0 -59.0 48.5 -59.1 48.25 -59.3 48.15 -59.5 48.05 -59.7 48.0 -59.85 48.0 -60.05 48.0 -60.25 48.05 -60.45 48.2 -60.6 48.4 -60.8 48.65 -60.95 49.0 -60.95 49.0 -61.0 52.0 -61.0 52.45 -60.85 52.75 -60.75 53.4 -60.7 M80.65 -67.75 L80.55 -67.95 80.5 -68.05 80.5 -68.1 74.2 -67.45 73.25 -67.35 66.5 -67.25 65.95 -67.4 65.4 -67.55 65.05 -67.75 64.95 -67.95 64.8 -68.1 64.75 -68.3 64.75 -68.5 64.75 -68.7 64.8 -68.85 64.95 -69.05 65.05 -69.25 65.25 -69.35 65.4 -69.4 65.75 -69.5 66.3 -69.35 79.5 -70.0 84.05 -70.85 91.55 -72.35 95.75 -73.0 99.5 -73.0 99.95 -72.85 100.2 -72.7 100.3 -72.5 100.45 -72.3 100.5 -72.1 100.5 -71.95 100.45 -71.75 100.4 -71.55 100.25 -71.35 100.05 -71.2 99.9 -71.05 99.5 -71.0 97.25 -70.85 96.6 -70.7 Q93.75 -69.95 90.75 -69.7 L89.25 -69.5 86.3 -69.0 83.75 -68.5 83.45 -68.3 Q85.8 -67.3 88.3 -67.0 L95.8 -66.25 104.4 -65.3 105.25 -65.1 106.9 -65.5 107.15 -65.55 107.4 -65.6 107.65 -65.7 108.0 -65.75 108.65 -65.8 109.25 -65.85 109.9 -65.95 110.5 -66.0 116.0 -66.0 116.45 -65.85 116.7 -65.7 116.8 -65.5 116.95 -65.3 117.0 -65.1 117.0 -64.95 117.0 -64.8 127.0 -64.1 128.15 -63.95 130.15 -63.65 131.45 -63.35 131.75 -63.2 131.9 -63.0 131.95 -62.8 132.05 -62.6 132.15 -62.45 132.2 -62.25 132.25 -62.05 132.25 -61.85 132.2 -61.7 132.05 -61.5 131.95 -61.3 131.8 -61.1 131.55 -60.95 131.3 -60.75 131.05 -60.55 130.55 -60.2 129.35 -59.6 125.4 -58.0 123.5 -57.3 115.9 -54.7 110.8 -52.6 111.5 -52.5 112.0 -52.35 112.4 -52.2 112.75 -52.0 113.2 -51.9 113.5 -51.8 114.15 -51.6 114.9 -51.25 115.05 -51.05 115.15 -50.85 115.2 -50.7 115.25 -50.5 115.25 -50.3 115.25 -50.1 115.55 -49.95 115.9 -49.75 116.05 -49.6 116.15 -49.6 117.15 -49.4 118.75 -48.75 119.15 -48.6 119.7 -48.35 119.95 -48.2 120.05 -48.0 120.2 -47.8 120.25 -47.6 120.25 -47.45 120.2 -47.25 120.15 -47.05 120.0 -46.85 119.8 -46.7 119.65 -46.55 119.25 -46.5 119.0 -46.5 118.5 -46.6 118.15 -46.8 117.75 -47.0 117.4 -47.2 117.15 -47.3 116.9 -47.35 116.65 -47.45 115.75 -47.5 115.25 -47.6 115.0 -47.8 114.8 -48.0 114.5 -48.2 114.0 -48.35 113.75 -48.55 113.65 -48.75 113.55 -48.95 113.45 -49.1 113.3 -49.3 113.25 -49.5 113.25 -49.7 113.2 -49.8 113.05 -49.85 112.75 -49.95 112.45 -50.0 112.0 -50.1 111.65 -50.3 111.4 -50.45 110.0 -50.5 109.5 -50.6 109.15 -50.8 108.75 -51.0 108.4 -51.2 108.0 -51.35 107.75 -51.55 107.55 -51.75 107.45 -51.95 107.3 -52.1 107.25 -52.3 107.25 -52.5 107.25 -52.7 107.25 -52.85 107.3 -53.05 107.4 -53.25 107.5 -53.45 107.75 -53.6 110.2 -54.65 113.8 -55.95 Q115.95 -56.7 118.1 -57.6 121.3 -58.95 124.65 -59.9 L127.2 -60.9 129.2 -61.75 128.9 -61.8 124.15 -62.4 120.75 -62.6 115.0 -62.6 114.7 -62.45 111.5 -60.75 110.75 -60.35 109.7 -59.8 107.95 -58.85 105.2 -57.35 104.5 -57.0 104.25 -56.85 101.8 -55.3 101.5 -55.15 101.05 -54.95 100.7 -54.75 100.25 -54.55 99.85 -54.4 99.45 -54.2 99.0 -54.0 98.65 -53.8 98.35 -53.65 97.3 -52.9 96.2 -52.1 95.95 -51.95 95.65 -51.75 95.3 -51.55 95.0 -51.35 95.5 -51.3 95.8 -51.35 98.75 -51.95 99.45 -52.05 100.15 -52.2 100.8 -52.3 103.05 -52.85 105.5 -53.5 105.95 -53.35 106.2 -53.2 106.3 -53.0 106.45 -52.8 106.5 -52.6 106.5 -52.45 106.45 -52.25 106.4 -52.05 106.25 -51.85 106.05 -51.7 105.7 -51.5 101.95 -50.5 101.25 -50.35 100.55 -50.25 99.5 -50.05 96.9 -49.55 95.25 -49.25 92.0 -49.25 91.5 -49.35 91.25 -49.55 91.15 -49.75 91.05 -49.95 91.0 -50.1 91.0 -50.3 91.0 -50.5 91.05 -50.7 91.2 -50.85 91.25 -51.05 91.4 -51.25 91.5 -51.45 91.7 -51.6 Q92.8 -52.45 94.0 -53.15 L94.3 -53.3 94.65 -53.5 94.95 -53.7 95.2 -53.85 95.75 -54.25 96.1 -54.45 93.15 -53.7 89.55 -53.0 86.75 -52.55 86.25 -52.4 83.6 -51.6 82.25 -51.2 80.7 -50.7 80.8 -50.55 84.15 -49.55 86.4 -48.85 88.3 -48.3 89.5 -47.7 89.7 -47.5 89.8 -47.3 89.9 -47.1 89.95 -46.95 90.0 -46.75 89.95 -46.55 89.9 -46.35 89.8 -46.2 89.7 -46.0 88.8 -45.2 86.95 -43.85 86.15 -43.2 85.55 -42.6 85.65 -42.45 86.2 -42.25 87.0 -42.05 88.4 -41.8 98.45 -41.85 99.0 -42.05 99.45 -42.25 99.7 -42.45 100.3 -42.8 101.15 -43.4 101.55 -43.75 101.7 -43.95 101.8 -44.1 101.95 -44.3 102.05 -44.5 102.2 -44.7 102.25 -44.85 102.4 -45.05 102.5 -45.25 102.65 -45.45 102.75 -45.6 102.8 -45.8 102.95 -46.0 103.05 -46.2 103.2 -46.35 103.25 -46.55 103.4 -46.75 103.45 -46.95 103.55 -47.1 103.65 -47.3 103.75 -47.5 103.8 -47.7 103.95 -47.85 104.15 -48.05 104.4 -48.2 104.75 -48.25 105.2 -48.1 105.45 -47.95 105.55 -47.75 105.7 -47.55 105.75 -47.35 105.75 -47.2 105.7 -47.0 105.65 -46.8 105.55 -46.6 105.45 -46.45 105.4 -46.25 105.25 -46.05 105.2 -45.85 105.05 -45.7 105.0 -45.5 104.9 -45.3 104.75 -45.1 104.7 -44.95 104.55 -44.75 104.45 -44.55 104.3 -44.35 104.2 -44.2 104.15 -44.0 104.0 -43.8 103.9 -43.6 103.75 -43.45 103.65 -43.25 103.55 -43.05 103.45 -42.85 103.3 -42.7 103.2 -42.5 102.35 -41.8 100.3 -40.5 Q99.35 -39.95 98.25 -39.75 L88.75 -39.75 87.65 -39.95 85.45 -40.4 Q84.75 -40.6 84.15 -40.95 L83.95 -41.1 83.75 -41.3 83.65 -41.5 83.55 -41.7 83.5 -41.85 83.5 -42.05 83.5 -42.25 83.5 -42.45 83.5 -42.6 83.5 -42.8 83.5 -43.0 83.55 -43.2 83.7 -43.35 83.75 -43.55 83.9 -43.75 84.0 -43.95 84.4 -44.3 85.1 -45.05 Q85.65 -45.65 86.35 -46.05 L86.95 -46.35 87.0 -46.55 84.65 -47.25 81.35 -48.25 79.9 -48.8 78.0 -49.35 77.75 -49.55 77.65 -49.75 77.55 -49.95 77.5 -50.1 77.5 -50.3 77.5 -50.5 77.5 -50.7 77.55 -50.85 77.7 -51.05 77.8 -51.25 78.15 -51.45 78.5 -51.6 78.75 -51.8 79.05 -52.0 79.3 -52.2 79.9 -52.55 80.15 -52.7 85.9 -54.3 87.7 -54.65 91.4 -55.35 92.15 -55.55 92.65 -55.7 94.15 -56.05 95.9 -56.5 Q96.75 -56.7 97.5 -57.1 L97.25 -57.25 81.0 -58.3 78.15 -58.8 77.05 -58.5 76.25 -58.25 76.3 -58.05 76.55 -57.85 76.7 -57.7 76.8 -57.5 76.95 -57.3 77.0 -57.1 77.0 -56.95 76.95 -56.75 76.9 -56.55 76.75 -56.35 76.65 -56.2 73.45 -53.65 71.4 -52.05 69.75 -50.7 67.95 -49.4 67.7 -49.25 67.55 -49.05 67.4 -48.85 67.25 -48.7 67.05 -48.5 66.95 -48.3 66.8 -48.1 66.65 -47.95 66.5 -47.75 66.4 -47.55 66.25 -47.35 66.15 -47.2 66.05 -47.0 66.0 -46.8 66.0 -46.6 66.0 -46.45 66.0 -46.25 66.15 -46.05 66.3 -45.85 66.5 -45.7 Q69.5 -44.4 72.7 -43.6 L75.1 -43.05 76.4 -42.5 76.55 -42.3 76.65 -42.1 76.7 -41.95 76.75 -41.75 76.7 -41.55 76.65 -41.35 76.55 -41.2 76.4 -41.0 76.25 -40.85 76.1 -40.85 75.75 -40.75 59.75 -39.8 58.0 -39.5 48.25 -39.5 47.75 -39.6 47.5 -39.8 47.4 -40.0 47.3 -40.2 47.25 -40.35 47.25 -40.55 47.25 -40.75 47.3 -40.95 47.45 -41.1 47.65 -41.3 47.9 -41.45 48.25 -41.5 58.2 -41.55 62.3 -42.3 67.95 -42.7 68.25 -42.8 67.25 -43.2 Q66.3 -43.5 65.4 -43.95 L65.2 -44.1 65.0 -44.3 64.8 -44.5 64.65 -44.7 64.45 -44.85 64.3 -45.05 64.25 -45.25 64.15 -45.45 64.05 -45.6 64.0 -45.8 64.0 -46.0 64.0 -46.2 64.0 -46.35 64.0 -46.75 64.0 -47.1 64.0 -47.3 64.05 -47.5 64.15 -47.7 64.2 -47.85 64.25 -48.05 64.4 -48.25 64.5 -48.45 64.65 -48.6 64.75 -48.8 64.95 -49.0 65.05 -49.2 65.2 -49.35 65.3 -49.55 65.5 -49.75 65.65 -49.95 65.8 -50.1 65.95 -50.3 66.05 -50.5 68.55 -52.4 70.4 -53.85 71.5 -54.8 72.4 -55.55 72.7 -55.75 72.95 -55.95 73.25 -56.1 71.65 -56.2 71.4 -56.1 71.15 -56.05 70.75 -56.0 70.5 -56.0 70.0 -56.1 69.75 -56.3 69.65 -56.5 69.55 -56.7 69.5 -56.85 69.5 -57.05 69.5 -57.25 69.55 -57.45 69.7 -57.6 69.9 -57.8 70.15 -57.95 Q71.6 -58.2 72.95 -58.85 L75.5 -60.1 75.65 -60.2 79.25 -61.25 82.55 -62.8 84.8 -63.65 87.0 -64.75 87.55 -65.0 Q85.35 -65.4 83.2 -66.15 L81.4 -66.8 81.05 -67.0 80.95 -67.2 80.8 -67.35 80.7 -67.55 80.65 -67.75 M82.1 -60.2 L99.8 -58.8 100.7 -58.6 100.95 -58.45 101.05 -58.25 101.2 -58.05 101.25 -57.85 101.25 -57.7 101.25 -57.5 101.2 -57.35 101.4 -57.45 101.7 -57.6 102.0 -57.8 102.3 -58.0 102.65 -58.2 102.95 -58.35 103.25 -58.55 103.5 -58.75 103.85 -58.95 106.6 -60.45 106.95 -60.6 107.3 -60.8 107.65 -61.0 108.35 -61.4 109.05 -61.75 110.25 -62.35 104.0 -62.5 103.5 -62.6 103.25 -62.8 103.0 -62.85 102.75 -63.05 102.65 -63.25 102.55 -63.45 97.4 -64.2 90.1 -64.75 90.05 -64.7 89.95 -64.5 89.95 -64.45 90.05 -64.25 90.2 -64.05 90.25 -63.85 90.25 -63.7 90.2 -63.5 90.15 -63.3 90.0 -63.1 89.8 -62.95 89.65 -62.8 87.25 -62.35 85.15 -61.6 82.9 -60.55 82.1 -60.2" fill="#999999" fill-opacity="0.49803922" fill-rule="evenodd" stroke="none"/>
  </g>
</svg>
