<?xml version="1.0" encoding="UTF-8" standalone="no"?>
<svg xmlns:ffdec="https://www.free-decompiler.com/flash" xmlns:xlink="http://www.w3.org/1999/xlink" ffdec:objectType="shape" height="386.55px" width="541.9px" xmlns="http://www.w3.org/2000/svg">
  <g transform="matrix(1.0, 0.0, 0.0, 1.0, 361.2, 200.95)">
    <path d="M-189.9 -77.85 Q-182.95 -78.55 -176.3 -76.8 -171.55 -75.6 -167.15 -73.35 L-166.8 -73.0 -166.4 -72.6 -165.9 -72.25 -165.15 -71.85 -164.8 -71.5 -164.05 -70.75 -163.3 -70.0 -162.15 -68.85 -161.8 -68.5 -161.05 -68.1 -160.55 -67.75 -160.3 -67.35 -159.85 -66.65 -159.55 -66.2 -159.3 -65.85 -158.9 -65.1 -158.8 -64.75 -158.65 -64.35 -158.3 -64.0 -157.9 -63.6 -157.8 -63.25 -157.2 -62.05 -156.8 -61.35 -156.45 -60.6 -156.1 -59.9 -155.65 -59.1 -155.55 -58.75 -155.35 -58.0 -155.2 -57.6 -155.05 -57.25 -154.85 -56.5 -154.7 -56.1 -154.55 -55.75 -154.55 -55.35 -154.55 -55.0 -154.4 -54.6 -154.3 -54.25 -154.15 -53.85 -154.05 -53.5 -154.05 -53.1 -154.05 -52.75 -154.05 -52.35 -154.05 -52.0 -154.05 -51.6 -153.95 -51.25 -153.8 -50.85 -153.65 -50.5 -153.55 -50.1 -153.55 -49.75 -153.55 -48.25 -153.5 -46.35 -153.5 -46.15 -153.3 -45.85 -153.15 -45.45 -153.05 -44.75 -153.55 -44.0 -153.55 -41.5 -153.65 -41.1 -153.8 -40.75 -153.9 -40.35 -154.05 -40.0 -154.05 -39.6 -154.05 -39.25 -154.05 -38.85 -154.05 -38.5 -154.15 -38.1 -154.55 -37.0 -154.9 -35.85 -155.15 -35.1 -155.6 -33.95 -156.05 -33.2 -156.4 -32.85 -157.15 -32.1 -157.55 -31.75 -158.05 -31.4 Q-158.4 -31.15 -158.8 -30.95 L-159.15 -30.6 -159.55 -30.2 -159.9 -29.85 -160.4 -29.5 -160.8 -29.2 -161.4 -29.1 Q-165.15 -28.15 -168.7 -29.55 L-171.3 -30.35 -171.75 -30.75 -172.15 -31.1 -172.5 -31.5 -172.65 -31.85 -172.8 -32.2 -172.8 -32.6 -172.75 -32.95 -172.65 -33.35 -172.55 -33.4 -172.8 -33.6 -173.9 -34.35 -174.2 -35.1 -174.3 -35.85 -174.25 -36.2 -174.05 -36.95 -173.65 -37.35 -173.3 -37.6 -173.05 -37.75 -172.4 -37.8 -172.4 -37.85 -171.55 -37.6 Q-170.1 -36.45 -168.3 -35.95 L-168.3 -36.5 -168.25 -36.85 -168.15 -37.25 -167.9 -37.6 -167.5 -37.95 -167.05 -38.25 -166.4 -38.3 -166.4 -38.35 -165.55 -38.1 -165.05 -37.7 -164.8 -37.5 -162.45 -36.95 -162.6 -37.15 -162.8 -37.5 -162.7 -38.2 -162.15 -39.7 -161.9 -40.1 -161.55 -40.5 -160.75 -41.2 -160.3 -41.6 -160.05 -41.6 -161.45 -41.9 -165.8 -42.85 -166.25 -43.25 -166.6 -43.65 -166.8 -44.0 -166.75 -44.35 -166.6 -45.05 -166.15 -45.85 -161.45 -46.35 -161.9 -47.2 -162.15 -47.6 Q-163.75 -48.8 -165.65 -49.45 L-166.8 -49.85 -167.25 -50.25 -167.6 -50.65 -167.8 -51.0 -167.8 -51.35 -167.75 -51.7 -167.45 -52.45 -167.15 -52.85 -166.5 -53.15 -164.9 -53.6 -164.1 -54.25 Q-163.25 -54.8 -162.55 -55.5 L-162.35 -55.85 -162.3 -56.25 -162.25 -57.0 -162.15 -57.35 -161.75 -57.7 -161.65 -57.8 -161.7 -57.85 -162.05 -58.25 -162.55 -58.4 -165.75 -59.35 -167.3 -60.0 -167.8 -59.75 -168.4 -59.6 -168.9 -59.65 -169.8 -59.85 -170.25 -60.25 -170.65 -60.6 -170.75 -61.0 -170.8 -61.35 -170.8 -61.75 -170.8 -62.1 -170.75 -62.5 -170.65 -62.85 -170.25 -63.2 -169.8 -63.6 -168.95 -63.75 -169.0 -63.8 Q-170.05 -64.25 -170.65 -65.25 L-170.75 -65.6 -170.8 -66.0 -170.8 -66.35 -170.8 -66.75 -170.65 -67.1 -170.5 -67.45 -170.25 -67.9 -170.3 -68.25 -170.65 -68.6 -171.05 -68.95 -171.8 -69.35 -173.05 -69.35 -173.8 -69.0 -174.55 -67.9 Q-174.9 -66.85 -175.6 -65.95 L-176.0 -65.2 -176.05 -64.85 -175.9 -64.1 -175.65 -63.35 Q-175.45 -62.8 -175.55 -62.25 L-175.7 -61.85 -175.9 -61.5 -176.2 -61.15 -176.55 -60.85 -176.8 -60.75 -177.4 -60.6 -177.9 -60.65 -178.8 -60.85 -179.25 -61.25 -179.65 -61.6 -179.85 -63.1 -179.8 -65.35 -179.8 -66.5 -179.8 -66.85 -179.95 -67.2 -180.15 -67.6 -180.3 -68.0 -180.3 -68.35 -180.3 -68.75 -180.3 -69.1 -180.3 -69.5 Q-180.8 -70.25 -182.2 -70.7 -183.35 -71.05 -184.4 -71.5 L-184.5 -71.1 -184.55 -70.75 -184.55 -70.35 -184.55 -70.0 -184.65 -69.6 -184.8 -69.25 -184.75 -68.85 -184.65 -68.5 -184.55 -68.1 -184.55 -65.85 -184.55 -64.0 -184.55 -61.75 -184.55 -61.0 -184.65 -60.6 -184.8 -60.25 -184.95 -59.9 -185.4 -59.5 -185.8 -59.25 -186.4 -59.1 -187.3 -59.35 -187.75 -59.75 -188.15 -60.1 -188.5 -60.5 -188.65 -60.85 -188.75 -61.6 -188.8 -62.35 -188.8 -63.1 -188.8 -63.5 -188.95 -63.85 -189.15 -64.25 -189.3 -64.6 -189.5 -65.0 -189.65 -65.35 -190.25 -64.95 -190.65 -64.6 -191.55 -63.85 -192.4 -63.65 -193.15 -63.5 -193.3 -63.1 -193.5 -62.7 -193.7 -62.35 -193.9 -62.0 -194.95 -61.3 -196.4 -60.6 -196.9 -60.65 -197.8 -60.85 -198.3 -61.25 -198.65 -61.6 -198.75 -62.0 -198.8 -62.35 -198.8 -62.75 -198.8 -63.1 -198.8 -63.5 -198.65 -63.85 -198.4 -64.25 -198.2 -64.6 -198.0 -64.95 -197.8 -65.35 -197.8 -68.75 -197.85 -71.35 -197.85 -71.9 -198.3 -72.25 -198.65 -72.6 -198.75 -73.0 -198.8 -73.35 -198.8 -73.75 -198.8 -74.1 -198.8 -74.5 -198.6 -74.85 -198.3 -75.25 -197.9 -75.6 -197.55 -76.0 -197.05 -76.2 -194.0 -76.95 -189.9 -77.85 M-164.05 -33.0 L-164.05 -32.9 -163.4 -32.95 -164.05 -33.0 M-181.2 19.7 L-180.65 20.4 -180.3 21.5 -179.4 23.05 -179.15 23.4 -178.8 24.5 -178.3 26.0 -178.05 26.8 -178.05 27.9 -178.05 29.4 -178.05 30.55 -178.15 30.9 -178.3 31.3 -178.4 31.65 -178.55 32.05 -178.55 32.4 -178.55 32.8 -178.7 33.15 -178.85 33.55 -179.05 34.3 -179.15 34.65 -179.4 35.05 -179.65 35.45 -179.8 35.8 -179.9 36.15 -180.3 36.55 -180.65 36.9 -180.8 37.3 -180.95 37.65 -181.3 38.4 -181.55 38.8 -181.9 39.15 -182.3 39.55 -182.65 39.9 -182.8 40.3 -182.9 40.65 -183.3 41.05 -183.65 41.4 -183.8 41.8 -183.9 42.15 -185.15 43.2 -186.55 44.8 -186.7 45.15 -186.9 45.55 Q-194.1 50.7 -203.3 52.3 -220.95 57.45 -236.55 48.05 L-237.35 47.35 Q-237.9 46.9 -238.55 46.55 L-239.3 45.8 -240.4 44.65 -241.15 43.6 -242.05 42.05 -242.3 41.3 -242.3 40.9 -242.3 40.55 -242.25 39.8 -242.05 39.05 -241.65 38.7 -241.3 38.45 -241.05 38.3 -240.85 38.3 -240.8 38.05 -240.8 37.65 -240.8 36.9 -240.8 35.8 -239.95 33.1 -238.65 30.15 -238.3 29.8 -237.9 29.4 -237.55 29.05 -237.05 28.85 -236.45 28.75 -236.4 28.65 -235.55 28.9 -235.05 29.3 -234.8 29.7 -234.7 30.05 -234.55 30.8 -235.75 33.45 -236.35 35.15 -236.25 35.55 -235.7 37.05 -235.55 37.4 -235.55 37.8 -235.55 38.15 -235.4 38.55 -235.2 38.95 -235.05 39.3 -235.05 39.65 -235.05 40.05 -234.85 40.55 -234.55 40.8 -234.3 41.2 -234.15 41.55 -234.1 41.95 -234.05 42.3 -232.9 43.0 -232.05 43.45 -231.4 43.8 -230.65 43.9 -229.55 43.25 -228.55 42.5 -227.7 41.4 -227.55 41.05 -227.15 40.65 -226.8 40.3 -226.3 39.9 -225.4 39.65 -224.55 39.9 -224.05 40.3 -223.8 40.7 -223.65 41.05 -223.55 41.45 -223.55 41.8 -223.55 42.15 -223.65 42.55 -223.8 42.9 -224.0 43.3 -224.2 43.65 -224.3 43.9 -221.8 43.8 -220.65 43.55 -220.15 43.15 -219.9 42.8 -219.7 42.4 -219.5 42.1 -219.15 41.65 -218.8 41.45 -218.55 41.3 -217.9 41.15 -217.45 41.2 -216.55 41.4 -216.05 41.8 -215.8 42.2 -215.65 42.55 -215.55 42.9 -215.55 43.3 -215.7 43.65 -215.9 44.05 -216.05 44.4 -216.05 44.8 -216.05 45.15 -216.05 45.55 -216.05 45.9 -216.05 46.3 -216.05 46.65 Q-214.7 46.85 -213.4 46.2 -212.2 45.65 -210.9 45.6 L-210.05 45.55 -209.8 45.15 -209.65 44.8 -209.45 44.4 -209.3 44.05 -209.15 43.65 -208.8 43.3 -208.4 42.9 Q-208.2 42.2 -208.25 41.4 L-208.35 38.8 -208.15 35.8 -207.9 35.45 -207.5 35.1 -207.05 34.8 -206.4 34.65 -205.55 34.9 -205.05 35.3 -204.8 35.7 -204.65 36.05 -204.55 36.4 -204.55 36.8 -204.55 37.15 -204.55 37.55 -204.55 37.9 -204.55 38.3 -204.55 38.65 -204.4 39.05 -204.2 39.45 -204.05 39.8 -204.05 40.55 -204.05 40.9 -204.05 41.65 -204.0 42.4 -203.9 42.8 -203.7 42.4 -203.5 42.1 -203.15 41.7 -202.8 41.4 -202.55 41.3 -201.9 41.15 -201.05 41.35 -199.65 41.4 -199.8 40.7 -199.95 40.3 -200.3 39.55 -200.7 38.4 -200.8 37.65 -200.65 37.3 -200.4 36.95 -200.05 36.55 -199.55 36.35 -198.9 36.15 -198.4 36.2 -197.55 36.4 -197.05 36.8 -196.8 37.2 -196.65 37.55 -196.4 37.9 -196.05 38.3 -195.65 38.65 -195.3 39.05 -194.9 39.4 -194.05 39.25 -193.25 38.95 -192.15 38.55 -191.65 38.15 -191.3 37.8 -190.95 37.4 -190.8 37.05 -191.15 36.3 -191.3 35.95 -191.5 35.55 -191.65 35.15 -191.8 34.8 -191.8 34.4 -191.8 34.05 -192.15 32.9 -192.75 31.4 Q-193.5 30.0 -193.75 28.4 L-193.8 28.05 -193.6 27.7 -193.25 27.3 -192.8 26.9 -191.9 26.65 -191.4 26.7 -190.55 26.9 -190.05 27.3 -189.65 28.05 -189.45 28.45 -189.15 29.15 -188.9 29.9 -188.65 30.65 -188.45 30.7 -188.05 30.55 -187.55 30.3 -186.9 30.15 -186.05 30.4 -185.55 30.8 -185.2 31.55 -185.05 31.9 -184.95 32.25 -184.75 32.45 -184.4 32.4 -184.3 32.05 -184.3 31.65 -184.45 31.3 -184.65 30.9 -184.8 30.55 -184.8 30.15 -184.8 29.8 Q-184.9 29.0 -185.35 28.25 -186.25 26.9 -187.5 25.75 -188.4 24.95 -188.8 23.8 L-188.8 23.4 -188.75 23.05 -188.65 22.65 -188.25 22.3 -187.8 21.9 -186.95 21.75 -186.9 21.65 -184.5 22.1 -184.8 21.8 -185.15 21.4 -185.3 21.05 -185.4 20.65 -185.8 20.3 -186.05 19.9 -186.3 19.15 -186.25 18.8 -186.15 18.4 -186.0 18.05 -185.65 17.65 -185.3 17.4 -185.05 17.35 -184.4 17.25 -184.4 17.15 -183.9 17.2 -183.05 17.4 -182.55 17.8 -182.3 18.2 -182.15 18.55 -181.9 18.9 -181.55 19.3 -181.2 19.7" fill="#ff6600" fill-rule="evenodd" stroke="none"/>
    <path d="M-219.1 31.55 L-218.9 31.45 -218.45 31.35 -218.45 31.3 -218.2 31.4 -219.1 31.55" fill="#ff3300" fill-rule="evenodd" stroke="none"/>
    <path d="M-196.7 -69.5 L-196.95 -69.9 -196.6 -70.15 -196.3 -70.5 -196.2 -70.85 -196.2 -71.25 -196.2 -71.6 -196.2 -72.0 -197.5 -75.8 Q-199.05 -79.9 -202.95 -81.75 L-203.3 -82.1 -203.8 -82.45 -204.45 -82.75 -205.8 -84.1 -206.95 -85.25 -207.8 -86.65 -208.2 -87.85 -208.2 -88.25 -208.2 -88.6 -208.35 -89.0 -208.55 -89.4 -208.7 -89.75 -208.7 -92.75 -208.7 -95.0 -207.6 -96.8 -207.2 -98.0 -206.8 -98.35 -206.45 -98.75 -206.3 -99.1 -206.2 -99.5 -205.8 -99.85 -205.45 -100.25 -205.3 -100.6 -204.8 -101.0 -204.4 -101.3 -204.2 -101.35 -204.1 -101.05 -203.85 -100.6 -203.7 -100.25 -203.7 -99.85 -203.7 -97.6 -203.7 -96.1 -202.15 -93.8 -200.8 -91.6 -200.45 -91.25 -200.05 -90.85 -199.7 -90.5 -198.95 -90.2 -196.3 -89.6 -196.05 -89.35 -195.7 -89.0 -194.9 -88.75 -194.3 -88.6 -194.05 -88.35 -193.7 -88.0 Q-191.55 -87.25 -189.45 -86.75 L-185.9 -86.75 -185.3 -87.0 -184.15 -87.0 Q-180.55 -86.8 -177.15 -85.5 L-176.9 -85.25 -176.55 -84.85 -176.15 -84.5 -175.45 -84.2 -175.3 -84.1 -175.1 -83.85 -174.45 -82.7 -174.15 -82.0 -173.8 -81.6 -173.4 -81.25 -173.25 -80.85 -172.7 -79.75 -172.15 -79.0 -171.4 -78.75 -170.4 -78.8 -169.9 -78.85 -169.55 -79.15 -169.4 -79.25 -167.4 -79.3 -166.9 -79.35 -166.55 -79.6 -164.95 -80.4 -164.4 -80.75 -164.3 -81.1 -164.15 -81.5 -163.8 -81.85 -163.4 -82.25 -163.3 -82.6 -163.15 -82.95 -162.9 -83.35 -162.65 -83.75 -162.65 -84.1 -162.65 -84.5 -162.3 -84.85 -161.95 -85.25 -161.8 -85.6 -161.7 -86.0 -161.6 -86.35 -161.4 -86.75 -161.05 -87.1 -160.8 -87.5 -160.65 -87.85 -160.65 -88.25 -160.65 -88.6 -160.65 -89.0 -160.4 -89.35 -160.2 -89.75 -160.15 -90.1 -160.15 -90.5 -160.15 -90.85 -160.15 -91.25 -160.0 -91.6 -159.8 -92.0 -159.65 -92.35 -159.65 -93.85 -159.65 -95.35 -159.65 -96.1 -159.8 -96.45 -160.0 -96.85 -160.15 -97.25 -160.15 -98.35 -160.15 -99.1 -160.15 -99.5 -159.9 -99.85 -159.65 -100.25 -159.65 -100.6 -159.65 -101.0 -159.2 -101.75 -158.5 -102.9 -158.05 -103.6 -155.8 -105.85 -153.55 -108.1 -152.95 -108.4 -152.55 -108.6 -151.8 -109.35 -151.4 -109.75 -151.05 -110.1 Q-150.0 -110.55 -149.05 -111.1 -146.55 -112.5 -145.3 -112.35 L-145.65 -112.0 -146.05 -111.6 -146.45 -110.35 -148.25 -107.15 Q-149.15 -105.5 -149.65 -103.75 L-149.65 -103.35 -149.65 -103.0 -149.65 -102.6 -149.9 -102.25 -150.1 -101.85 -150.15 -101.5 -150.15 -100.35 -150.15 -98.1 -150.15 -97.0 -149.85 -96.6 -149.65 -96.25 -149.65 -95.85 -149.65 -95.5 -149.65 -95.1 -149.4 -94.75 -149.15 -94.35 -149.15 -94.0 -149.15 -93.6 -148.9 -93.25 -148.65 -92.85 -148.65 -92.5 -148.65 -92.1 -148.45 -91.7 -147.5 -89.85 -146.9 -88.75 -144.65 -86.5 -142.4 -84.25 -142.2 -83.85 -142.1 -83.5 -141.8 -83.1 -139.55 -80.85 -138.05 -79.35 -137.8 -78.95 -137.65 -78.6 -137.4 -78.25 -135.5 -76.35 -134.05 -74.85 -133.6 -74.15 -133.0 -73.0 -132.65 -72.2 -132.65 -71.85 -132.65 -71.45 -132.65 -71.1 -132.4 -70.7 -132.15 -70.35 -132.15 -69.95 -132.15 -69.6 -131.9 -69.2 -131.7 -68.85 -131.65 -68.45 -131.65 -68.1 -131.65 -67.7 -131.65 -67.35 -131.65 -66.95 -131.35 -66.55 -131.15 -66.2 -131.15 -65.45 -131.15 -65.1 -131.15 -64.7 -131.15 -64.35 -131.3 -64.0 -131.5 -63.6 -131.65 -63.2 -131.65 -62.45 -131.65 -62.1 -131.65 -61.7 -131.65 -61.35 -131.95 -60.55 Q-132.25 -59.45 -132.9 -58.4 L-133.4 -57.2 -133.8 -56.85 -134.15 -56.45 -134.15 -56.1 -134.15 -55.7 -134.35 -55.35 -134.6 -54.95 -134.7 -54.6 -134.9 -54.2 -135.65 -53.45 -136.4 -52.7 -136.8 -52.35 -137.4 -52.05 -137.8 -51.85 -138.55 -51.1 -138.9 -50.7 -139.3 -50.35 -139.9 -50.1 -140.15 -49.95 -140.4 -49.7 -140.8 -49.35 -141.4 -49.05 -141.8 -48.85 -142.65 -48.45 -143.05 -48.1 -143.4 -47.7 -143.8 -47.35 -144.4 -47.1 -145.65 -46.4 -146.05 -46.1 -146.15 -45.35 -146.15 -44.95 -146.15 -44.6 -146.15 -44.2 -145.85 -43.45 -145.2 -42.3 -144.8 -41.6 -144.4 -41.2 -142.9 -39.7 -142.15 -38.95 -140.4 -38.25 Q-134.8 -36.15 -128.9 -34.7 L-124.4 -34.85 -123.25 -35.4 Q-119.6 -37.0 -117.65 -36.1 L-117.7 -35.7 -117.8 -35.35 -118.15 -34.95 -118.15 -34.6 -118.15 -34.2 -118.55 -33.45 -119.65 -31.15 -120.4 -29.7 -120.8 -29.35 -121.15 -28.95 -121.55 -28.6 -121.65 -28.2 -121.8 -27.85 -122.55 -27.1 -123.3 -26.35 -123.65 -25.95 -123.7 -25.6 -123.9 -25.2 -125.8 -23.35 -127.3 -21.85 -127.9 -21.55 -128.3 -21.35 -129.05 -20.6 -129.4 -20.2 -129.8 -19.85 Q-132.0 -18.75 -134.3 -17.8 L-143.9 -14.1 -145.8 -14.4 Q-148.1 -14.7 -150.05 -15.85 L-150.3 -16.1 -150.65 -16.45 -151.05 -16.85 -151.45 -17.55 -152.0 -18.35 -152.15 -18.7 -152.15 -19.45 -152.15 -19.85 -152.15 -20.2 -152.15 -20.6 -152.3 -20.95 -152.5 -21.35 -152.65 -21.7 -152.65 -22.1 -152.65 -22.45 -152.65 -22.85 -152.65 -23.2 -152.95 -23.55 -153.75 -24.65 -154.3 -25.45 -154.9 -25.75 -155.3 -25.95 -155.9 -26.2 -158.5 -26.1 -157.9 -26.35 -156.9 -26.85 -156.65 -27.0 -156.4 -27.25 -156.05 -27.6 -155.4 -27.85 -155.15 -28.0 -154.9 -28.25 -154.55 -28.6 -154.3 -29.0 -153.95 -29.75 -153.8 -30.1 -153.65 -30.45 -153.4 -30.85 -153.2 -31.25 -153.05 -31.6 -152.65 -32.0 -152.3 -32.35 -151.95 -32.75 -151.8 -33.1 -151.7 -33.5 -151.65 -33.85 -151.65 -34.25 -151.65 -34.6 -151.65 -35.0 -151.4 -35.35 -151.2 -35.75 -151.0 -36.1 -150.8 -36.5 -150.65 -36.85 -150.65 -37.25 -150.65 -37.6 -150.65 -38.0 -150.65 -38.35 -150.45 -38.75 -150.3 -39.1 -150.15 -39.5 -150.15 -39.85 -150.15 -40.25 -150.15 -40.6 -150.3 -40.95 -150.5 -41.35 -150.65 -41.75 -150.65 -43.6 -150.65 -45.85 -150.65 -47.0 -150.65 -47.75 -150.65 -48.5 -151.25 -49.95 -152.0 -52.2 -152.45 -53.4 -152.7 -54.1 -153.05 -54.85 -153.4 -55.25 -153.8 -55.6 -154.15 -56.0 -154.55 -56.35 -154.9 -56.75 -155.3 -57.1 -155.2 -57.35 -154.4 -57.7 -151.9 -58.25 -151.4 -58.35 -149.8 -59.4 -149.4 -59.75 -149.05 -60.1 -148.3 -60.85 -147.9 -61.25 -147.8 -61.6 -147.65 -62.0 -146.9 -62.75 -146.55 -63.1 -146.2 -63.5 -145.9 -63.85 -145.7 -64.25 -145.65 -64.6 -145.65 -65.0 -145.6 -65.35 -145.45 -65.75 -145.3 -66.1 -145.15 -66.5 -145.15 -66.85 -145.15 -67.25 -145.15 -67.6 -145.0 -67.95 -144.8 -68.35 -144.65 -68.75 -144.5 -69.1 -144.3 -69.5 -144.15 -69.85 -144.15 -70.25 -144.15 -70.6 -144.15 -71.0 -144.15 -71.35 -144.15 -71.75 -144.4 -72.1 -144.6 -72.5 -144.65 -72.85 -144.65 -73.25 -144.65 -73.6 -144.65 -74.0 -144.65 -74.35 -144.65 -74.75 -144.9 -75.1 -145.15 -75.5 -145.3 -75.85 -145.45 -76.2 -145.8 -76.6 -146.3 -76.95 -146.9 -77.15 -147.4 -77.1 -147.65 -76.95 -147.9 -76.75 -148.3 -76.35 -148.65 -76.0 -148.7 -75.65 -148.9 -75.25 -149.3 -74.85 -149.65 -74.5 -150.05 -74.1 -150.4 -73.75 -150.8 -73.35 -151.4 -73.1 -151.65 -73.0 -151.9 -72.75 -152.3 -72.35 -152.9 -72.1 -153.3 -71.9 -153.9 -71.6 -154.25 -71.35 -154.65 -71.0 -156.7 -70.6 -161.65 -70.0 -163.8 -70.0 -165.9 -70.75 -167.4 -71.3 -168.4 -71.75 -169.55 -72.35 -169.9 -72.75 -170.3 -73.1 -170.8 -73.45 -171.4 -73.75 -171.55 -73.85 -172.15 -74.5 -172.55 -74.85 -172.9 -75.25 -173.3 -75.6 -173.8 -75.95 -174.4 -76.25 -174.55 -76.35 -174.8 -76.6 -175.3 -76.95 -175.9 -77.25 -176.85 -77.95 Q-179.05 -79.0 -181.45 -79.45 L-186.9 -80.75 -189.9 -80.75 -189.95 -80.65 -190.4 -80.55 -190.8 -80.35 -191.15 -80.0 -191.15 -79.6 -191.15 -79.25 -191.15 -78.85 -191.15 -78.5 -191.15 -78.1 -191.15 -77.75 -191.35 -77.4 -191.6 -76.95 -191.75 -76.65 -191.9 -76.25 -192.15 -75.85 -192.15 -75.5 -192.15 -75.1 -192.4 -74.75 -193.05 -73.6 -193.15 -73.25 -193.35 -72.9 -193.6 -72.45 -193.75 -72.15 -193.9 -71.75 -194.3 -71.35 -194.65 -71.0 -195.05 -70.6 -195.4 -70.25 -195.8 -69.85 -196.4 -69.6 -196.7 -69.5 M-173.15 -29.5 L-172.65 -29.5 -171.55 -28.35 -171.15 -28.0 -170.8 -27.6 -170.4 -27.25 -170.05 -26.85 -169.65 -26.5 -168.95 -26.2 -168.65 -26.05 Q-168.3 -25.85 -167.9 -25.75 L-167.15 -25.5 -166.4 -25.25 -161.4 -25.25 -159.15 -25.9 -159.65 -25.45 -160.4 -24.7 -160.65 -24.35 -160.65 -23.95 -160.65 -23.6 -160.9 -23.2 -161.1 -22.8 -161.15 -22.45 -161.15 -21.7 -161.15 -21.35 -161.15 -20.95 -161.15 -20.6 -160.9 -20.2 -160.65 -19.85 -160.65 -19.45 -160.65 -19.1 -160.4 -18.7 -160.2 -18.3 -160.15 -17.95 -161.65 -17.45 -163.15 -16.95 -164.3 -16.95 -164.95 -17.2 -165.55 -17.35 -165.65 -17.45 -165.9 -17.7 -166.85 -18.4 -167.4 -18.7 -167.8 -19.05 -168.3 -19.45 -169.05 -19.85 -169.2 -20.2 -170.4 -21.75 -171.15 -22.45 -171.15 -22.85 -171.15 -23.2 -171.6 -24.0 -172.05 -25.15 -172.15 -25.85 -172.2 -26.2 -172.4 -26.6 -172.6 -27.0 -172.65 -27.35 -172.65 -27.7 -172.65 -28.1 -172.8 -28.45 -173.0 -28.85 -173.15 -29.2 -173.15 -29.5 M-241.8 38.4 L-242.55 37.65 -243.2 36.9 -243.35 36.15 -244.05 34.65 -244.7 33.15 -244.7 32.8 -244.7 32.4 -244.7 32.05 -244.8 31.65 -244.95 31.3 -245.15 30.9 -245.2 30.55 -245.2 30.15 -245.2 29.8 -245.2 29.4 -245.3 29.05 -245.2 28.65 -245.2 28.3 -245.15 27.9 -245.05 27.65 -244.8 28.05 -244.4 28.75 -244.05 29.15 -243.65 29.45 -242.95 29.8 -242.8 29.9 -242.55 30.15 -242.2 30.55 -240.5 31.35 -238.45 32.3 -232.95 32.15 -232.55 31.95 -231.95 31.65 -231.7 31.55 -231.45 31.3 -231.05 30.9 -229.85 30.1 -228.8 29.05 -228.65 27.9 -228.7 27.15 -228.7 26.05 -228.8 25.65 -228.95 25.3 -229.15 24.9 -229.55 24.15 -230.4 23.35 -230.7 23.05 -230.7 22.65 -230.7 21.9 -230.7 21.15 -230.7 20.4 -230.85 20.05 -231.05 19.65 -231.2 19.3 -231.2 18.9 -231.2 18.15 -231.2 17.4 -231.2 16.65 -230.95 16.25 -230.8 15.9 -230.7 15.55 -230.7 15.15 -230.7 14.8 -230.7 14.05 -230.7 13.65 -230.35 12.9 -230.0 12.2 Q-229.7 11.6 -229.7 11.0 L-229.7 10.65 -229.7 10.25 -229.35 9.5 -229.0 8.45 -228.45 7.25 -228.05 6.9 -227.7 6.5 -226.95 5.75 -226.8 5.4 -226.7 5.0 -226.3 4.65 -225.2 3.5 -224.55 2.4 -223.95 2.15 -223.7 2.0 -223.45 1.75 -222.6 1.15 -222.3 1.15 -222.6 1.9 -222.7 2.65 -222.7 3.75 -222.85 4.1 -223.2 4.5 -223.2 4.9 -223.2 5.25 -223.35 5.6 -223.6 6.05 -223.7 6.4 -223.7 7.15 -223.7 11.65 -223.7 15.4 -223.45 15.8 -223.25 16.15 -223.2 16.55 -223.2 16.9 -223.2 17.3 -222.85 18.05 -222.45 19.1 -221.95 20.3 -220.8 21.4 -219.7 22.55 -218.8 22.9 -218.45 23.3 -218.05 23.65 -217.7 24.05 Q-217.3 24.15 -216.95 24.35 -214.5 25.8 -211.4 25.8 L-209.9 25.8 -208.0 25.0 -206.65 24.55 -206.4 24.3 -206.05 23.9 -205.05 23.4 -204.05 22.9 -203.65 22.55 -203.3 22.15 -202.55 21.4 -201.85 21.0 -201.4 20.65 -201.15 20.3 -200.65 19.55 -200.15 18.8 -200.15 17.3 -200.15 14.65 -200.15 12.4 -200.45 11.65 Q-200.6 10.85 -201.05 10.15 L-201.65 8.65 -201.7 7.5 -201.65 6.75 -201.65 5.65 -201.4 5.3 -201.05 4.9 -200.8 4.5 -200.7 4.15 -200.6 3.8 -200.4 3.4 -200.15 3.05 -199.8 2.65 -199.4 2.25 -199.3 1.9 -199.15 1.5 -198.8 1.15 -198.4 0.75 -197.65 0.0 -196.45 -0.4 -195.4 -0.85 -195.25 -0.6 -195.2 -0.25 -195.3 0.15 -195.65 0.9 -195.65 1.65 -195.65 6.15 -195.65 9.9 -195.4 10.25 -195.15 10.65 -195.15 11.0 -195.1 11.4 -194.9 11.8 -194.6 12.2 -194.15 12.9 -193.9 13.3 -193.55 13.65 -192.4 14.75 -191.3 15.9 -191.15 16.3 -191.0 16.6 -190.65 17.05 -189.95 17.3 -189.8 17.4 -189.55 17.65 -189.15 18.05 -188.4 18.3 -186.9 18.8 -182.4 18.65 -182.05 18.45 -180.45 17.6 -179.15 17.05 -178.9 16.8 -178.15 16.0 -177.05 14.9 -176.8 14.5 -175.75 12.6 -174.8 11.15 -174.7 11.4 -174.65 11.75 -174.5 12.15 -174.15 12.9 -174.15 14.4 -174.15 18.15 -174.15 21.15 -174.3 21.5 -174.5 21.9 -174.65 22.3 -174.8 23.05 -175.05 23.4 Q-176.15 24.8 -176.85 26.3 L-177.8 28.65 -178.4 28.9 -178.65 29.05 -178.9 29.3 -179.3 29.65 -179.55 29.95 -179.9 29.8 -179.9 29.85 Q-180.8 29.8 -181.1 30.7 L-181.2 30.95 Q-181.3 30.35 -181.7 29.8 L-182.5 28.3 -182.8 27.9 -183.3 27.55 -183.9 27.3 -186.9 27.3 Q-189.95 27.65 -192.8 29.1 L-194.65 30.05 -194.9 30.3 -195.3 30.65 -195.9 30.9 -196.15 31.05 -196.4 31.3 -196.8 31.65 -197.4 31.95 -197.8 32.15 -198.95 33.25 -200.45 34.8 -200.8 35.15 -201.1 35.55 -201.25 35.85 -201.55 36.05 -201.9 35.4 Q-203.35 33.0 -205.5 31.1 -206.8 29.95 -208.45 29.3 L-211.4 29.35 -211.95 29.4 -212.3 29.65 -212.9 29.9 -213.2 30.05 -213.45 30.3 -213.8 30.65 -214.7 30.9 -218.2 31.4 -218.45 31.3 -218.45 31.35 -218.9 31.45 -219.1 31.55 -224.2 32.55 -225.2 33.5 -226.7 35.05 -227.05 35.4 -227.2 35.8 -227.35 36.15 -227.7 36.55 -227.7 36.9 -227.7 37.3 -227.85 37.65 -228.1 38.05 -228.2 38.4 -228.2 41.05 -228.2 43.3 -228.2 43.65 -233.05 42.15 Q-237.15 40.85 -240.95 38.8 L-241.8 38.4" fill="#ffcc66" fill-rule="evenodd" stroke="none"/>
    <path d="M-196.95 -69.9 L-197.45 -69.75 -198.45 -69.75 -199.15 -70.05 -199.5 -70.4 -199.7 -70.75 -199.7 -71.1 -199.6 -71.45 -199.2 -72.25 -199.35 -72.6 -199.55 -73.0 -199.7 -73.75 -199.85 -74.1 -200.2 -74.5 -200.55 -74.85 -201.2 -76.35 -202.45 -78.25 -202.85 -78.55 -203.7 -79.0 -204.05 -79.35 -204.3 -79.6 -205.15 -80.0 -206.2 -80.5 -207.7 -82.0 -208.8 -83.1 -209.65 -84.65 -210.7 -86.1 -210.7 -86.5 -210.7 -86.85 -210.7 -87.25 -210.85 -87.6 -211.2 -88.0 -211.2 -91.75 -211.2 -95.5 Q-210.25 -98.05 -208.6 -100.35 -207.45 -102.0 -206.45 -103.75 L-205.7 -104.5 -204.55 -105.6 -204.15 -105.9 -203.45 -106.2 -203.45 -106.25 -202.95 -106.2 -202.35 -105.95 -201.95 -105.6 Q-201.55 -105.15 -201.6 -104.5 L-201.7 -102.6 -201.7 -102.25 -201.55 -101.9 -201.35 -101.5 -201.2 -101.1 -201.2 -100.0 -201.2 -98.1 -201.2 -97.75 -200.0 -95.9 -199.2 -94.0 -198.8 -93.6 -198.45 -93.25 -198.05 -92.85 -189.3 -89.5 -186.15 -89.5 -185.4 -89.75 -183.9 -89.75 -183.3 -89.5 -179.4 -89.25 Q-174.8 -87.95 -172.1 -84.0 L-170.4 -82.1 Q-169.1 -82.45 -167.9 -83.05 L-167.9 -82.05 -166.65 -82.5 -166.35 -82.9 -166.15 -83.25 -166.05 -83.6 -165.65 -84.0 -165.3 -84.35 -165.2 -84.75 -165.15 -85.1 -165.15 -85.5 Q-164.65 -85.9 -164.4 -86.55 L-163.3 -88.85 -163.15 -89.25 -163.15 -89.6 -163.15 -90.0 -163.1 -90.35 -162.9 -90.75 -162.65 -91.1 -162.65 -91.5 -162.65 -91.85 -162.65 -92.25 -162.5 -92.6 -162.3 -93.0 -162.15 -93.35 -162.15 -93.75 -162.15 -94.1 -162.15 -94.5 -162.2 -94.85 -162.4 -95.25 -162.65 -95.6 -162.65 -96.75 -162.65 -99.0 -162.65 -100.1 -162.6 -100.45 -162.35 -100.9 -162.15 -101.25 -162.15 -101.6 -162.15 -102.0 -161.85 -102.4 -161.65 -102.75 -161.55 -103.1 -161.15 -103.5 -160.8 -103.85 -160.65 -104.25 -160.55 -104.6 -160.15 -105.0 -159.8 -105.35 -159.65 -105.75 -159.55 -106.1 -158.75 -106.85 -157.65 -107.95 -157.3 -108.35 -156.9 -108.6 -156.3 -108.85 -155.55 -109.6 -154.05 -111.1 -153.65 -111.5 -152.8 -111.85 -152.4 -112.25 -152.05 -112.6 -151.65 -113.0 Q-147.9 -114.95 -143.65 -115.55 L-142.9 -115.75 -141.9 -115.75 -141.3 -115.45 -140.45 -114.7 -140.3 -114.35 -140.2 -114.0 -140.15 -113.6 -140.2 -113.25 -140.4 -112.85 -140.8 -112.55 Q-141.15 -112.3 -141.55 -112.1 L-142.15 -111.75 -142.45 -111.35 -142.8 -111.0 -143.3 -110.6 -143.45 -110.25 -143.8 -109.85 -144.15 -109.5 -144.15 -109.1 -144.15 -108.75 -145.85 -106.15 -146.85 -103.5 -147.15 -102.75 -147.15 -102.35 -147.15 -102.0 -147.3 -101.6 -147.45 -101.25 -147.65 -100.85 -147.65 -100.5 -147.65 -99.75 -147.65 -98.6 -147.65 -98.25 -147.5 -97.85 -147.3 -97.45 -147.15 -97.1 -147.15 -96.75 -147.15 -96.35 -147.1 -96.0 -146.9 -95.6 -146.65 -95.25 -146.65 -94.85 -146.65 -94.5 -146.4 -94.1 -146.15 -93.75 -146.15 -93.35 -146.15 -93.0 -145.95 -92.6 -145.55 -91.85 -144.9 -90.75 -143.4 -89.25 -141.55 -87.35 -141.3 -86.95 -141.15 -86.6 -140.9 -86.25 -140.55 -85.85 -140.2 -85.45 -139.65 -84.75 -139.05 -84.35 -138.8 -83.95 -138.65 -83.6 -138.4 -83.25 -133.1 -78.05 Q-130.85 -76.0 -130.15 -73.1 L-130.15 -72.7 -130.15 -72.35 -130.1 -72.0 -129.9 -71.6 -129.65 -71.2 -129.65 -70.85 -129.65 -70.45 -129.4 -70.1 -129.2 -69.7 -129.15 -69.35 -129.15 -68.95 -129.1 -68.6 -128.8 -67.85 -128.65 -67.45 -128.65 -66.35 -128.65 -64.1 -128.65 -62.95 -128.8 -62.6 -128.95 -62.25 -129.15 -61.85 -129.15 -61.45 -129.15 -61.1 -129.15 -60.7 -129.15 -60.35 -129.55 -59.2 Q-129.85 -58.0 -130.55 -56.9 L-130.9 -56.2 -131.3 -55.85 -131.65 -55.45 -131.65 -55.1 -131.65 -54.7 -131.9 -54.35 -132.15 -53.95 -132.3 -53.6 -132.4 -53.2 -132.8 -52.85 -133.15 -52.45 -133.3 -52.1 -133.4 -51.7 -133.8 -51.35 -134.3 -51.0 -135.05 -50.6 -135.4 -50.2 -135.8 -49.85 -136.55 -49.1 -136.9 -48.85 -137.55 -48.6 -138.3 -47.9 -140.55 -46.6 -141.35 -45.9 -142.9 -44.7 -142.95 -44.35 -142.65 -43.6 -142.15 -42.45 -141.8 -42.1 -141.4 -41.7 -141.15 -41.45 -141.0 -41.4 -139.85 -40.85 -139.05 -40.35 -129.4 -37.65 -128.8 -37.45 -125.15 -37.45 -117.7 -40.1 -115.9 -40.7 -115.4 -40.65 -114.85 -40.4 -114.15 -39.7 -114.15 -39.35 -114.35 -38.6 -114.65 -37.45 -114.65 -37.1 -114.7 -36.75 -114.9 -36.35 -115.15 -35.95 -115.15 -35.6 -115.15 -35.2 -115.15 -34.85 -115.55 -33.7 Q-115.85 -32.5 -116.55 -31.4 L-116.9 -30.7 -117.25 -30.3 -117.55 -29.95 -117.6 -29.6 -117.65 -29.2 -117.9 -28.85 -118.2 -28.5 -118.9 -27.7 -119.15 -27.35 -119.3 -26.95 -119.65 -26.2 -119.9 -25.85 -120.3 -25.5 -121.05 -25.1 -121.2 -24.75 -121.7 -24.0 -122.4 -23.2 -122.65 -22.8 -122.8 -22.45 -123.05 -22.1 -123.4 -21.85 -124.05 -21.6 -124.8 -20.85 -125.9 -19.7 -126.15 -19.45 -126.4 -19.35 -127.05 -19.1 -127.2 -18.7 -127.4 -18.35 Q-132.55 -15.25 -138.1 -13.05 -140.7 -12.05 -143.4 -11.2 L-144.4 -11.2 Q-147.9 -11.85 -150.95 -13.2 L-151.65 -13.45 -152.05 -13.85 -152.8 -14.6 -153.55 -15.35 -153.65 -15.7 -153.8 -16.1 -154.15 -16.45 -154.55 -16.85 -154.6 -17.2 -154.65 -17.95 -154.65 -19.1 -154.65 -19.45 -154.7 -19.8 -154.9 -20.2 -155.15 -20.6 -155.15 -20.95 -155.15 -21.35 -155.15 -21.7 -155.35 -22.05 -155.6 -22.5 -155.65 -22.85 -155.8 -23.1 -155.95 -23.2 -156.65 -23.45 -157.65 -23.35 -158.05 -23.1 -158.15 -22.7 -158.2 -22.35 -158.3 -21.95 -158.3 -21.6 -158.2 -21.2 -158.15 -20.85 -158.15 -20.45 -158.1 -20.1 -157.95 -19.7 -157.8 -19.35 -157.65 -18.95 -157.3 -18.6 -156.95 -18.2 -156.8 -17.85 -156.65 -17.45 -156.65 -17.1 -156.7 -16.75 -156.9 -16.35 Q-158.35 -15.05 -160.25 -14.75 L-162.4 -14.2 -164.9 -14.2 -165.95 -14.7 -167.65 -15.45 -168.05 -15.85 -168.4 -16.2 -168.8 -16.6 -169.65 -16.95 -171.15 -18.45 -173.4 -20.7 -173.6 -21.1 -173.65 -21.45 -173.65 -21.85 -173.9 -22.2 -174.15 -22.6 -174.55 -23.35 -174.65 -23.7 -174.65 -24.1 -174.65 -24.45 -174.65 -24.85 -174.65 -25.2 -174.85 -25.55 -175.15 -25.95 -175.15 -26.35 -175.15 -26.7 -175.15 -27.1 -175.3 -27.45 -175.5 -27.85 -175.65 -28.2 -175.65 -30.1 -175.65 -32.35 -175.65 -34.2 -175.5 -34.6 -175.3 -35.0 -175.2 -35.35 -175.15 -35.7 -175.0 -36.05 -174.3 -36.85 -173.4 -37.6 -172.95 -37.65 -172.35 -37.4 -171.9 -37.1 -171.8 -36.6 -171.45 -36.65 -170.85 -36.45 -170.4 -36.1 -170.2 -35.7 -170.15 -35.35 -170.15 -35.0 -170.15 -34.6 -170.15 -34.25 -170.15 -33.5 -170.3 -33.1 -170.4 -32.75 -170.3 -32.35 -170.15 -32.0 -170.15 -31.6 -170.15 -31.25 -170.0 -30.85 -169.8 -30.45 -169.65 -30.1 -169.4 -29.75 -169.05 -29.35 -168.65 -29.0 -168.4 -28.75 -167.8 -28.5 -166.9 -28.2 -166.3 -28.0 -161.65 -28.0 -160.9 -28.25 -160.15 -28.5 -159.4 -28.75 -158.65 -29.0 -158.3 -29.35 -157.9 -29.6 -157.3 -29.9 -156.9 -30.25 -156.55 -30.6 -156.3 -31.0 -156.15 -31.35 -155.9 -31.75 -155.7 -32.1 -155.65 -32.5 -155.3 -32.85 -154.9 -33.25 -154.7 -33.6 -154.6 -33.95 -154.35 -34.4 -154.15 -34.75 -154.15 -35.1 -154.15 -35.5 -154.1 -35.85 -153.9 -36.25 -153.65 -36.6 -153.65 -37.0 -153.65 -37.35 -153.4 -37.75 -153.15 -38.1 -153.15 -38.5 -153.15 -38.85 -153.15 -39.25 -153.15 -39.6 -153.15 -39.95 -153.05 -40.35 -153.15 -41.1 -153.15 -41.85 -153.15 -43.0 -153.15 -45.25 -153.15 -47.1 -153.3 -47.45 -153.5 -47.85 -153.65 -48.25 -153.65 -48.6 -153.65 -49.0 -153.7 -49.35 -153.9 -49.75 -154.15 -50.1 -154.3 -50.45 -154.5 -50.85 -154.85 -51.55 -155.15 -52.0 -155.15 -52.35 -155.15 -52.75 -155.35 -53.1 -155.65 -53.5 -156.05 -53.85 -156.4 -54.25 -156.8 -54.6 -157.8 -55.6 -157.95 -55.7 -158.65 -56.05 -159.05 -56.35 -159.15 -56.75 -159.15 -57.1 -159.15 -57.5 -159.15 -57.85 -158.9 -58.2 -158.55 -58.6 -158.15 -59.0 -157.8 -59.35 -156.8 -59.85 -155.9 -60.15 -152.7 -61.05 -151.3 -61.5 -151.15 -61.85 -150.9 -62.25 -150.45 -62.65 -150.15 -62.95 -149.8 -63.35 -149.4 -63.75 -149.05 -64.1 -148.8 -64.5 -148.65 -64.85 -148.4 -65.25 -148.15 -65.6 -148.15 -66.0 -148.15 -66.35 -147.9 -66.75 -147.65 -67.1 -147.65 -67.5 -147.65 -67.85 -147.65 -68.25 -147.55 -68.6 -147.4 -68.95 -147.15 -69.35 -147.15 -69.75 -147.15 -70.1 -147.15 -70.5 -147.05 -70.85 -147.15 -71.25 -147.15 -71.6 -147.15 -72.0 -147.15 -72.35 -147.15 -72.75 -147.4 -72.7 -147.8 -72.4 -148.3 -72.0 -149.05 -71.6 -149.4 -71.25 -149.8 -70.9 -150.3 -70.5 -151.05 -70.1 -151.4 -69.75 -151.65 -69.5 -151.9 -69.35 -152.9 -68.9 -153.55 -68.6 -153.95 -68.45 -156.4 -67.75 -160.8 -67.5 -161.4 -67.25 -164.4 -67.25 -165.9 -67.75 -167.4 -68.3 -168.45 -68.7 -170.15 -69.5 -170.55 -69.85 -170.9 -70.25 -171.3 -70.6 -172.15 -71.05 -172.45 -71.2 -173.15 -71.5 -173.55 -71.85 -173.9 -72.25 -174.3 -72.6 -174.65 -73.0 -175.05 -73.35 -176.15 -74.5 -178.1 -75.6 Q-181.1 -77.0 -184.4 -77.4 L-187.65 -78.0 -188.65 -78.0 -188.65 -77.6 -188.65 -77.25 -188.65 -76.85 -188.85 -76.55 -189.3 -75.4 -189.55 -74.6 -190.3 -73.1 -190.8 -71.6 -190.95 -71.25 -191.3 -70.85 -191.65 -70.5 -191.8 -70.1 -191.9 -69.75 -192.3 -69.35 -193.05 -68.6 -193.4 -68.25 -193.8 -67.9 Q-194.55 -67.3 -195.45 -66.9 L-195.9 -66.75 -196.4 -66.8 -197.15 -67.05 -197.5 -67.4 -197.7 -67.75 -197.7 -68.1 -197.6 -68.45 -197.3 -68.85 -196.95 -69.25 -196.7 -69.5 -196.4 -69.6 -195.8 -69.85 -195.4 -70.25 -195.05 -70.6 -194.65 -71.0 -194.3 -71.35 -193.9 -71.75 -193.75 -72.15 -193.6 -72.45 -193.35 -72.9 -193.15 -73.25 -193.05 -73.6 -192.4 -74.75 -192.15 -75.1 -192.15 -75.5 -192.15 -75.85 -191.9 -76.25 -191.75 -76.65 -191.6 -76.95 -191.35 -77.4 -191.15 -77.75 -191.15 -78.1 -191.15 -78.5 -191.15 -78.85 -191.15 -79.25 -191.15 -79.6 -191.15 -80.0 -190.8 -80.35 -190.4 -80.55 -189.95 -80.65 -189.9 -80.75 -186.9 -80.75 -181.45 -79.45 Q-179.05 -79.0 -176.85 -77.95 L-175.9 -77.25 -175.3 -76.95 -174.8 -76.6 -174.55 -76.35 -174.4 -76.25 -173.8 -75.95 -173.3 -75.6 -172.9 -75.25 -172.55 -74.85 -172.15 -74.5 -171.55 -73.85 -171.4 -73.75 -170.8 -73.45 -170.3 -73.1 -169.9 -72.75 -169.55 -72.35 -168.4 -71.75 -167.4 -71.3 -165.9 -70.75 -163.8 -70.0 -161.65 -70.0 -156.7 -70.6 -154.65 -71.0 -154.25 -71.35 -153.9 -71.6 -153.3 -71.9 -152.9 -72.1 -152.3 -72.35 -151.9 -72.75 -151.65 -73.0 -151.4 -73.1 -150.8 -73.35 -150.4 -73.75 -150.05 -74.1 -149.65 -74.5 -149.3 -74.85 -148.9 -75.25 -148.7 -75.65 -148.65 -76.0 -148.3 -76.35 -147.9 -76.75 -147.65 -76.95 -147.4 -77.1 -146.9 -77.15 -146.3 -76.95 -145.8 -76.6 -145.45 -76.2 -145.3 -75.85 -145.15 -75.5 -144.9 -75.1 -144.65 -74.75 -144.65 -74.35 -144.65 -74.0 -144.65 -73.6 -144.65 -73.25 -144.65 -72.85 -144.6 -72.5 -144.4 -72.1 -144.15 -71.75 -144.15 -71.35 -144.15 -71.0 -144.15 -70.6 -144.15 -70.25 -144.15 -69.85 -144.3 -69.5 -144.5 -69.1 -144.65 -68.75 -144.8 -68.35 -145.0 -67.95 -145.15 -67.6 -145.15 -67.25 -145.15 -66.85 -145.15 -66.5 -145.3 -66.1 -145.45 -65.75 -145.6 -65.35 -145.65 -65.0 -145.65 -64.6 -145.7 -64.25 -145.9 -63.85 -146.2 -63.5 -146.55 -63.1 -146.9 -62.75 -147.65 -62.0 -147.8 -61.6 -147.9 -61.25 -148.3 -60.85 -149.05 -60.1 -149.4 -59.75 -149.8 -59.4 -151.4 -58.35 -151.9 -58.25 -154.4 -57.7 -155.2 -57.35 -155.3 -57.1 -154.9 -56.75 -154.55 -56.35 -154.15 -56.0 -153.8 -55.6 -153.4 -55.25 -153.05 -54.85 -152.7 -54.1 -152.45 -53.4 -152.0 -52.2 -151.25 -49.95 -150.65 -48.5 -150.65 -47.75 -150.65 -47.0 -150.65 -45.85 -150.65 -43.6 -150.65 -41.75 -150.5 -41.35 -150.3 -40.95 -150.15 -40.6 -150.15 -40.25 -150.15 -39.85 -150.15 -39.5 -150.3 -39.1 -150.45 -38.75 -150.65 -38.35 -150.65 -38.0 -150.65 -37.6 -150.65 -37.25 -150.65 -36.85 -150.8 -36.5 -151.0 -36.1 -151.2 -35.75 -151.4 -35.35 -151.65 -35.0 -151.65 -34.6 -151.65 -34.25 -151.65 -33.85 -151.7 -33.5 -151.8 -33.1 -151.95 -32.75 -152.3 -32.35 -152.65 -32.0 -153.05 -31.6 -153.2 -31.25 -153.4 -30.85 -153.65 -30.45 -153.8 -30.1 -153.95 -29.75 -154.3 -29.0 -154.55 -28.6 -154.9 -28.25 -155.15 -28.0 -155.4 -27.85 -156.05 -27.6 -156.4 -27.25 -156.65 -27.0 -156.9 -26.85 -157.9 -26.35 -158.5 -26.1 -155.9 -26.2 -155.3 -25.95 -154.9 -25.75 -154.3 -25.45 -153.75 -24.65 -152.95 -23.55 -152.65 -23.2 -152.65 -22.85 -152.65 -22.45 -152.65 -22.1 -152.65 -21.7 -152.5 -21.35 -152.3 -20.95 -152.15 -20.6 -152.15 -20.2 -152.15 -19.85 -152.15 -19.45 -152.15 -18.7 -152.0 -18.35 -151.45 -17.55 -151.05 -16.85 -150.65 -16.45 -150.3 -16.1 -150.05 -15.85 Q-148.1 -14.7 -145.8 -14.4 L-143.9 -14.1 -134.3 -17.8 Q-132.0 -18.75 -129.8 -19.85 L-129.4 -20.2 -129.05 -20.6 -128.3 -21.35 -127.9 -21.55 -127.3 -21.85 -125.8 -23.35 -123.9 -25.2 -123.7 -25.6 -123.65 -25.95 -123.3 -26.35 -122.55 -27.1 -121.8 -27.85 -121.65 -28.2 -121.55 -28.6 -121.15 -28.95 -120.8 -29.35 -120.4 -29.7 -119.65 -31.15 -118.55 -33.45 -118.15 -34.2 -118.15 -34.6 -118.15 -34.95 -117.8 -35.35 -117.7 -35.7 -117.65 -36.1 Q-119.6 -37.0 -123.25 -35.4 L-124.4 -34.85 -128.9 -34.7 Q-134.8 -36.15 -140.4 -38.25 L-142.15 -38.95 -142.9 -39.7 -144.4 -41.2 -144.8 -41.6 -145.2 -42.3 -145.85 -43.45 -146.15 -44.2 -146.15 -44.6 -146.15 -44.95 -146.15 -45.35 -146.05 -46.1 -145.65 -46.4 -144.4 -47.1 -143.8 -47.35 -143.4 -47.7 -143.05 -48.1 -142.65 -48.45 -141.8 -48.85 -141.4 -49.05 -140.8 -49.35 -140.4 -49.7 -140.15 -49.95 -139.9 -50.1 -139.3 -50.35 -138.9 -50.7 -138.55 -51.1 -137.8 -51.85 -137.4 -52.05 -136.8 -52.35 -136.4 -52.7 -135.65 -53.45 -134.9 -54.2 -134.7 -54.6 -134.6 -54.95 -134.35 -55.35 -134.15 -55.7 -134.15 -56.1 -134.15 -56.45 -133.8 -56.85 -133.4 -57.2 -132.9 -58.4 Q-132.25 -59.45 -131.95 -60.55 L-131.65 -61.35 -131.65 -61.7 -131.65 -62.1 -131.65 -62.45 -131.65 -63.2 -131.5 -63.6 -131.3 -64.0 -131.15 -64.35 -131.15 -64.7 -131.15 -65.1 -131.15 -65.45 -131.15 -66.2 -131.35 -66.55 -131.65 -66.95 -131.65 -67.35 -131.65 -67.7 -131.65 -68.1 -131.65 -68.45 -131.7 -68.85 -131.9 -69.2 -132.15 -69.6 -132.15 -69.95 -132.15 -70.35 -132.4 -70.7 -132.65 -71.1 -132.65 -71.45 -132.65 -71.85 -132.65 -72.2 -133.0 -73.0 -133.6 -74.15 -134.05 -74.85 -135.5 -76.35 -137.4 -78.25 -137.65 -78.6 -137.8 -78.95 -138.05 -79.35 -139.55 -80.85 -141.8 -83.1 -142.1 -83.5 -142.2 -83.85 -142.4 -84.25 -144.65 -86.5 -146.9 -88.75 -147.5 -89.85 -148.45 -91.7 -148.65 -92.1 -148.65 -92.5 -148.65 -92.85 -148.9 -93.25 -149.15 -93.6 -149.15 -94.0 -149.15 -94.35 -149.4 -94.75 -149.65 -95.1 -149.65 -95.5 -149.65 -95.85 -149.65 -96.25 -149.85 -96.6 -150.15 -97.0 -150.15 -98.1 -150.15 -100.35 -150.15 -101.5 -150.1 -101.85 -149.9 -102.25 -149.65 -102.6 -149.65 -103.0 -149.65 -103.35 -149.65 -103.75 Q-149.15 -105.5 -148.25 -107.15 L-146.45 -110.35 -146.05 -111.6 -145.65 -112.0 -145.3 -112.35 Q-146.55 -112.5 -149.05 -111.1 -150.0 -110.55 -151.05 -110.1 L-151.4 -109.75 -151.8 -109.35 -152.55 -108.6 -152.95 -108.4 -153.55 -108.1 -155.8 -105.85 -158.05 -103.6 -158.5 -102.9 -159.2 -101.75 -159.65 -101.0 -159.65 -100.6 -159.65 -100.25 -159.9 -99.85 -160.15 -99.5 -160.15 -99.1 -160.15 -98.35 -160.15 -97.25 -160.0 -96.85 -159.8 -96.45 -159.65 -96.1 -159.65 -95.35 -159.65 -93.85 -159.65 -92.35 -159.8 -92.0 -160.0 -91.6 -160.15 -91.25 -160.15 -90.85 -160.15 -90.5 -160.15 -90.1 -160.2 -89.75 -160.4 -89.35 -160.65 -89.0 -160.65 -88.6 -160.65 -88.25 -160.65 -87.85 -160.8 -87.5 -161.05 -87.1 -161.4 -86.75 -161.6 -86.35 -161.7 -86.0 -161.8 -85.6 -161.95 -85.25 -162.3 -84.85 -162.65 -84.5 -162.65 -84.1 -162.65 -83.75 -162.9 -83.35 -163.15 -82.95 -163.3 -82.6 -163.4 -82.25 -163.8 -81.85 -164.15 -81.5 -164.3 -81.1 -164.4 -80.75 -164.95 -80.4 -166.55 -79.6 -166.9 -79.35 -167.4 -79.3 -169.4 -79.25 -169.55 -79.15 -169.9 -78.85 -170.4 -78.8 -171.4 -78.75 -172.15 -79.0 -172.7 -79.75 -173.25 -80.85 -173.4 -81.25 -173.8 -81.6 -174.15 -82.0 -174.45 -82.7 -175.1 -83.85 -175.3 -84.1 -175.45 -84.2 -176.15 -84.5 -176.55 -84.85 -176.9 -85.25 -177.15 -85.5 Q-180.55 -86.8 -184.15 -87.0 L-185.3 -87.0 -185.9 -86.75 -189.45 -86.75 Q-191.55 -87.25 -193.7 -88.0 L-194.05 -88.35 -194.3 -88.6 -194.9 -88.75 -195.7 -89.0 -196.05 -89.35 -196.3 -89.6 -198.95 -90.2 -199.7 -90.5 -200.05 -90.85 -200.45 -91.25 -200.8 -91.6 -202.15 -93.8 -203.7 -96.1 -203.7 -97.6 -203.7 -99.85 -203.7 -100.25 -203.85 -100.6 -204.1 -101.05 -204.2 -101.35 -204.4 -101.3 -204.8 -101.0 -205.3 -100.6 -205.45 -100.25 -205.8 -99.85 -206.2 -99.5 -206.3 -99.1 -206.45 -98.75 -206.8 -98.35 -207.2 -98.0 -207.6 -96.8 -208.7 -95.0 -208.7 -92.75 -208.7 -89.75 -208.55 -89.4 -208.35 -89.0 -208.2 -88.6 -208.2 -88.25 -208.2 -87.85 -207.8 -86.65 -206.95 -85.25 -205.8 -84.1 -204.45 -82.75 -203.8 -82.45 -203.3 -82.1 -202.95 -81.75 Q-199.05 -79.9 -197.5 -75.8 L-196.2 -72.0 -196.2 -71.6 -196.2 -71.25 -196.2 -70.85 -196.3 -70.5 -196.6 -70.15 -196.95 -69.9 M-224.4 -1.1 L-223.8 -1.35 -223.45 -1.75 -223.2 -2.0 -222.45 -2.25 -220.95 -2.75 -220.45 -2.7 -219.85 -2.45 -219.45 -2.1 -219.25 -1.7 -219.2 -1.35 -219.2 -1.0 -219.2 -0.6 -219.25 -0.25 -219.45 0.15 -219.7 0.5 -219.7 0.9 -219.7 1.25 -219.7 1.65 -219.85 2.0 -220.05 2.4 -220.2 2.75 -220.2 3.15 -220.2 3.5 -220.2 4.25 -220.2 4.65 -220.55 5.8 -221.2 7.25 -221.2 10.25 -221.2 13.65 -221.1 14.0 -220.95 14.4 -220.7 15.15 -220.45 16.7 -219.7 18.55 -217.8 20.4 -216.45 21.8 Q-213.65 23.15 -210.4 22.9 -208.8 22.45 -207.3 21.65 L-206.3 21.15 -205.9 20.8 -205.65 20.55 -205.4 20.4 -204.8 20.15 -204.05 19.4 -203.3 18.65 -203.15 18.3 -203.0 17.9 -202.8 17.5 -202.65 17.15 -202.65 16.05 -202.65 14.15 -202.65 13.8 -202.85 13.45 -203.15 13.05 -203.15 12.65 -203.15 12.3 -203.6 11.5 -203.95 10.8 -204.15 10.4 -204.2 7.75 -204.15 4.75 -204.0 4.45 -203.65 4.0 -203.3 3.65 Q-203.1 2.85 -202.6 2.2 L-201.4 0.25 -199.9 -1.25 -198.8 -2.35 -195.4 -4.1 -193.9 -4.75 -193.45 -4.7 -192.85 -4.45 -192.4 -4.1 -192.25 -3.35 -192.15 -2.25 -192.15 -1.5 -192.3 -1.1 -192.45 -0.75 -192.65 -0.35 -192.65 0.0 -192.65 0.4 -192.65 0.75 -192.65 1.15 -192.8 1.5 -193.0 1.9 -193.15 2.25 -193.15 5.25 -193.15 8.65 -192.55 10.15 -191.65 12.05 -189.8 13.9 -188.4 15.3 -187.8 15.55 -187.4 15.75 -186.8 16.05 -183.65 16.05 -181.8 15.15 -180.8 14.65 -180.05 13.9 -178.9 12.8 -178.7 12.4 -178.65 12.05 -178.3 11.65 -177.9 11.25 -177.4 10.1 -176.65 8.65 -176.65 8.25 -176.65 7.9 -176.6 7.15 -176.4 6.75 -176.15 6.55 -175.9 6.4 -175.4 6.25 -174.95 6.35 -174.3 6.55 -173.8 6.9 Q-173.05 7.95 -172.55 9.15 L-171.65 11.4 -171.65 16.65 -171.65 21.9 -171.7 22.25 -171.9 22.65 -172.15 23.05 -172.15 23.4 -172.15 23.8 -172.4 24.15 -172.7 24.5 -173.05 24.9 -173.15 25.3 -173.2 25.65 -173.3 26.05 -174.1 27.2 Q-174.65 28.05 -174.8 29.05 L-176.15 30.55 -177.65 32.05 -177.8 32.4 -177.9 32.8 -178.3 33.15 -178.65 33.55 -179.7 33.55 -179.9 33.8 -180.15 34.05 -180.4 34.15 -181.05 34.4 -181.4 34.8 -181.7 35.0 -181.9 35.15 -182.9 35.2 Q-183.95 35.2 -184.15 34.3 L-184.15 33.9 -184.1 33.55 -183.8 33.15 -183.4 32.8 -183.25 32.65 -183.65 32.45 -184.05 32.15 -184.15 31.8 -184.15 31.4 -184.25 30.65 -184.4 30.3 -184.8 30.1 Q-187.75 30.25 -190.65 31.05 L-191.1 31.35 -193.05 32.45 -194.05 32.9 -194.4 33.3 -194.65 33.55 -194.95 33.65 -195.55 33.9 -195.9 34.3 -197.45 35.8 -198.55 36.9 -198.7 37.25 -199.3 38.4 -200.05 39.9 -200.4 40.3 -200.7 40.5 -200.9 40.65 -201.4 40.7 -202.15 40.45 -202.55 40.15 -202.9 39.75 -203.6 38.25 -204.3 36.4 -204.65 36.05 -205.05 35.65 -205.4 35.3 -205.65 34.9 -205.8 34.55 -206.05 34.15 -206.4 33.8 -206.8 33.4 -207.2 33.05 -207.45 32.8 -208.45 32.3 -209.2 32.05 -210.8 32.05 -211.55 32.4 -211.95 32.8 -212.2 33.05 -212.35 33.15 -212.2 33.3 -212.2 33.65 -212.2 34.05 -212.3 34.4 -212.45 34.75 -212.8 35.15 -213.55 35.9 -213.95 36.15 -214.4 36.2 -215.2 36.05 -215.55 35.65 -215.8 35.4 -215.95 35.3 -216.7 35.05 -217.05 34.65 -217.3 34.4 -217.5 34.35 -220.8 34.55 -221.45 34.75 -222.7 35.05 -223.1 35.4 -223.7 35.8 -223.95 36.15 -224.45 36.95 -225.2 38.05 -225.2 38.4 -225.2 38.8 -225.45 39.15 -225.7 39.55 -225.7 40.65 -225.65 44.4 -225.8 47.05 -226.1 47.4 -226.45 47.6 -226.95 47.8 -227.4 47.75 -228.2 47.55 -228.55 47.15 -228.8 46.9 -228.95 46.8 -229.7 46.55 -230.05 46.15 -230.3 45.9 Q-233.35 44.5 -236.7 43.6 L-239.95 42.4 -239.95 43.65 -240.2 43.55 -241.3 42.4 -242.3 41.4 -242.45 41.3 -243.2 41.05 -243.85 40.35 -245.05 39.15 -245.9 37.25 -247.2 35.05 -247.2 34.65 -247.2 34.3 -247.2 33.9 -247.2 33.55 -247.25 33.15 -247.45 32.8 -247.7 32.4 -247.7 32.05 -247.7 31.65 -247.7 30.9 -247.7 30.55 -247.75 30.15 -247.95 29.8 -248.2 29.4 -248.2 27.9 -248.2 25.65 -248.2 25.3 -248.05 24.9 -247.85 24.5 -247.7 24.15 -247.7 23.4 -247.7 22.3 -247.7 21.55 -247.3 21.15 -246.9 20.8 -246.45 20.4 -245.95 20.35 Q-245.6 20.4 -245.35 20.6 L-244.95 20.9 -244.75 21.3 -244.7 21.65 -244.7 22.05 -244.45 22.4 -244.25 22.8 -244.2 23.15 Q-244.3 23.8 -244.05 24.35 L-243.05 26.15 -241.95 27.3 -240.95 28.3 -239.3 29.05 -238.3 29.55 -233.7 29.55 -233.3 29.15 -232.95 28.8 -232.7 28.55 -232.45 28.4 -231.95 28.05 -231.95 27.8 -232.1 27.4 -232.2 27.05 -232.15 26.65 -232.05 26.3 -232.3 25.9 -232.7 25.55 -232.75 25.15 -232.95 24.8 -233.2 24.4 -233.2 23.3 -233.2 21.8 -233.2 21.4 -233.35 21.05 -233.55 20.65 -233.7 20.3 -233.7 18.4 -233.7 15.8 -233.55 15.4 -233.35 15.0 -233.2 14.65 -233.2 14.3 -233.2 13.9 -233.2 13.15 -233.2 12.8 -232.85 12.0 -232.35 10.9 -232.2 10.5 -232.2 10.15 -232.2 9.75 -232.2 9.4 -232.1 9.05 -231.85 8.6 -231.7 8.25 -231.7 7.9 -231.7 7.5 -231.35 7.1 -231.2 6.75 -231.05 6.4 -230.7 6.0 -230.3 5.65 -230.2 5.25 -230.05 4.9 -229.3 4.15 -228.55 3.4 -228.35 3.0 -228.2 2.65 -226.05 0.4 -224.7 -1.0 -224.4 -1.1 M-172.65 -29.5 L-172.65 -29.85 -172.65 -30.25 -172.65 -30.6 -172.65 -31.0 -172.75 -31.35 -172.9 -31.75 -173.15 -32.1 -173.15 -30.7 -173.15 -29.5 -173.15 -29.2 -173.0 -28.85 -172.8 -28.45 -172.65 -28.1 -172.65 -27.7 -172.65 -27.35 -172.6 -27.0 -172.4 -26.6 -172.2 -26.2 -172.15 -25.85 -172.05 -25.15 -171.6 -24.0 -171.15 -23.2 -171.15 -22.85 -171.15 -22.45 -170.4 -21.75 -169.2 -20.2 -169.05 -19.85 -168.3 -19.45 -167.8 -19.05 -167.4 -18.7 -166.85 -18.4 -165.9 -17.7 -165.65 -17.45 -165.55 -17.35 -164.95 -17.2 -164.3 -16.95 -163.15 -16.95 -161.65 -17.45 -160.15 -17.95 -160.2 -18.3 -160.4 -18.7 -160.65 -19.1 -160.65 -19.45 -160.65 -19.85 -160.9 -20.2 -161.15 -20.6 -161.15 -20.95 -161.15 -21.35 -161.15 -21.7 -161.15 -22.45 -161.1 -22.8 -160.9 -23.2 -160.65 -23.6 -160.65 -23.95 -160.65 -24.35 -160.4 -24.7 -159.65 -25.45 -159.15 -25.9 -161.4 -25.25 -166.4 -25.25 -167.15 -25.5 -167.9 -25.75 Q-168.3 -25.85 -168.65 -26.05 L-168.95 -26.2 -169.65 -26.5 -170.05 -26.85 -170.4 -27.25 -170.8 -27.6 -171.15 -28.0 -171.55 -28.35 -172.65 -29.5 M-218.2 31.4 L-214.7 30.9 -213.8 30.65 -213.45 30.3 -213.2 30.05 -212.9 29.9 -212.3 29.65 -211.95 29.4 -211.4 29.35 -208.45 29.3 Q-206.8 29.95 -205.5 31.1 -203.35 33.0 -201.9 35.4 L-201.55 36.05 -201.25 35.85 -201.1 35.55 -200.8 35.15 -200.45 34.8 -198.95 33.25 -197.8 32.15 -197.4 31.95 -196.8 31.65 -196.4 31.3 -196.15 31.05 -195.9 30.9 -195.3 30.65 -194.9 30.3 -194.65 30.05 -192.8 29.1 Q-189.95 27.65 -186.9 27.3 L-183.9 27.3 -183.3 27.55 -182.8 27.9 -182.5 28.3 -181.7 29.8 Q-181.3 30.35 -181.2 30.95 L-181.1 30.7 Q-180.8 29.8 -179.9 29.85 L-179.9 29.8 -179.55 29.95 -179.3 29.65 -178.9 29.3 -178.65 29.05 -178.4 28.9 -177.8 28.65 -176.85 26.3 Q-176.15 24.8 -175.05 23.4 L-174.8 23.05 -174.65 22.3 -174.5 21.9 -174.3 21.5 -174.15 21.15 -174.15 18.15 -174.15 14.4 -174.15 12.9 -174.5 12.15 -174.65 11.75 -174.7 11.4 -174.8 11.15 -175.75 12.6 -176.8 14.5 -177.05 14.9 -178.15 16.0 -178.9 16.8 -179.15 17.05 -180.45 17.6 -182.05 18.45 -182.4 18.65 -186.9 18.8 -188.4 18.3 -189.15 18.05 -189.55 17.65 -189.8 17.4 -189.95 17.3 -190.65 17.05 -191.0 16.6 -191.15 16.3 -191.3 15.9 -192.4 14.75 -193.55 13.65 -193.9 13.3 -194.15 12.9 -194.6 12.2 -194.9 11.8 -195.1 11.4 -195.15 11.0 -195.15 10.65 -195.4 10.25 -195.65 9.9 -195.65 6.15 -195.65 1.65 -195.65 0.9 -195.3 0.15 -195.2 -0.25 -195.25 -0.6 -195.4 -0.85 -196.45 -0.4 -197.65 0.0 -198.4 0.75 -198.8 1.15 -199.15 1.5 -199.3 1.9 -199.4 2.25 -199.8 2.65 -200.15 3.05 -200.4 3.4 -200.6 3.8 -200.7 4.15 -200.8 4.5 -201.05 4.9 -201.4 5.3 -201.65 5.65 -201.65 6.75 -201.7 7.5 -201.65 8.65 -201.05 10.15 Q-200.6 10.85 -200.45 11.65 L-200.15 12.4 -200.15 14.65 -200.15 17.3 -200.15 18.8 -200.65 19.55 -201.15 20.3 -201.4 20.65 -201.85 21.0 -202.55 21.4 -203.3 22.15 -203.65 22.55 -204.05 22.9 -205.05 23.4 -206.05 23.9 -206.4 24.3 -206.65 24.55 -208.0 25.0 -209.9 25.8 -211.4 25.8 Q-214.5 25.8 -216.95 24.35 -217.3 24.15 -217.7 24.05 L-218.05 23.65 -218.45 23.3 -218.8 22.9 -219.7 22.55 -220.8 21.4 -221.95 20.3 -222.45 19.1 -222.85 18.05 -223.2 17.3 -223.2 16.9 -223.2 16.55 -223.25 16.15 -223.45 15.8 -223.7 15.4 -223.7 11.65 -223.7 7.15 -223.7 6.4 -223.6 6.05 -223.35 5.6 -223.2 5.25 -223.2 4.9 -223.2 4.5 -222.85 4.1 -222.7 3.75 -222.7 2.65 -222.6 1.9 -222.3 1.15 -222.6 1.15 -223.45 1.75 -223.7 2.0 -223.95 2.15 -224.55 2.4 -225.2 3.5 -226.3 4.65 -226.7 5.0 -226.8 5.4 -226.95 5.75 -227.7 6.5 -228.05 6.9 -228.45 7.25 -229.0 8.45 -229.35 9.5 -229.7 10.25 -229.7 10.65 -229.7 11.0 Q-229.7 11.6 -230.0 12.2 L-230.35 12.9 -230.7 13.65 -230.7 14.05 -230.7 14.8 -230.7 15.15 -230.7 15.55 -230.8 15.9 -230.95 16.25 -231.2 16.65 -231.2 17.4 -231.2 18.15 -231.2 18.9 -231.2 19.3 -231.05 19.65 -230.85 20.05 -230.7 20.4 -230.7 21.15 -230.7 21.9 -230.7 22.65 -230.7 23.05 -230.4 23.35 -229.55 24.15 -229.15 24.9 -228.95 25.3 -228.8 25.65 -228.7 26.05 -228.7 27.15 -228.65 27.9 -228.8 29.05 -229.85 30.1 -231.05 30.9 -231.45 31.3 -231.7 31.55 -231.95 31.65 -232.55 31.95 -232.95 32.15 -238.45 32.3 -240.5 31.35 -242.2 30.55 -242.55 30.15 -242.8 29.9 -242.95 29.8 -243.65 29.45 -244.05 29.15 -244.4 28.75 -244.8 28.05 -245.05 27.65 -245.15 27.9 -245.2 28.3 -245.2 28.65 -245.3 29.05 -245.2 29.4 -245.2 29.8 -245.2 30.15 -245.2 30.55 -245.15 30.9 -244.95 31.3 -244.8 31.65 -244.7 32.05 -244.7 32.4 -244.7 32.8 -244.7 33.15 -244.05 34.65 -243.35 36.15 -243.2 36.9 -242.55 37.65 -241.8 38.4 -241.55 38.65 -241.4 38.75 -241.15 38.85 -240.95 38.8 Q-237.15 40.85 -233.05 42.15 L-228.2 43.65 -228.2 43.3 -228.2 41.05 -228.2 38.4 -228.1 38.05 -227.85 37.65 -227.7 37.3 -227.7 36.9 -227.7 36.55 -227.35 36.15 -227.2 35.8 -227.05 35.4 -226.7 35.05 -225.2 33.5 -224.2 32.55 -219.1 31.55 -218.2 31.4 M-238.35 9.1 Q-238.1 9.2 -237.95 9.4 L-237.75 9.8 -237.7 10.15 -237.7 10.5 -237.45 10.9 -237.2 11.25 -237.25 12.4 Q-237.4 13.3 -236.8 13.9 L-236.4 14.15 Q-235.6 14.45 -235.2 15.3 L-235.2 15.65 -235.35 16.4 -235.7 17.05 -236.4 17.1 -238.2 16.55 -238.6 16.2 Q-238.85 15.95 -239.2 15.95 L-239.45 16.15 -239.3 16.85 Q-239.05 17.4 -239.2 18.05 L-239.3 18.4 -239.5 18.75 -239.95 19.15 -240.4 19.2 -241.2 19.05 -241.5 18.6 -241.85 17.95 -242.2 17.55 -242.2 16.8 -242.2 15.65 -242.2 15.3 -241.05 11.45 Q-240.6 9.35 -238.95 8.75 L-238.35 9.1" fill="#ffcc00" fill-rule="evenodd" stroke="none"/>
    <path d="M112.15 -186.25 L114.6 -185.25 116.05 -182.5 109.95 -184.15 112.15 -186.25 M17.65 -188.35 Q18.35 -188.35 18.85 -187.85 19.35 -187.35 19.35 -186.65 19.35 -185.95 18.85 -185.45 18.35 -184.95 17.65 -184.95 16.95 -184.95 16.45 -185.45 15.95 -185.95 15.95 -186.65 15.95 -187.35 16.45 -187.85 16.95 -188.35 17.65 -188.35 M1.6 -196.8 L-10.6 -199.75 Q-4.0 -202.55 1.15 -197.45 L1.6 -196.8 M9.9 -176.1 L11.4 -174.5 12.5 -169.25 Q10.1 -168.95 9.3 -171.3 L8.1 -175.35 9.9 -176.1 M0.4 -184.0 Q-23.15 -203.85 -51.9 -190.9 L-54.15 -191.75 Q-22.9 -212.6 2.45 -186.25 L2.95 -185.4 0.4 -184.0 M40.25 -132.0 L35.4 -131.0 Q29.65 -132.75 29.75 -137.0 L38.45 -133.05 40.25 -132.0 M53.55 -130.95 L52.05 -130.55 Q51.2 -130.55 50.6 -130.95 49.95 -131.35 49.95 -131.9 49.95 -132.45 50.6 -132.85 51.2 -133.25 52.05 -133.25 L53.55 -132.85 Q54.15 -132.45 54.15 -131.9 54.15 -131.35 53.55 -130.95 M180.15 90.8 Q180.7 91.35 180.7 92.2 180.7 93.05 180.15 93.65 179.55 94.2 178.7 94.2 177.85 94.2 177.3 93.65 176.7 93.05 176.7 92.2 176.7 91.35 177.3 90.8 177.85 90.2 178.7 90.2 179.55 90.2 180.15 90.8 M35.15 181.6 Q12.3 182.3 -5.95 165.5 -15.45 156.75 -24.9 148.85 L-28.3 139.1 -30.65 138.1 -37.9 129.85 -37.85 126.55 -36.4 126.1 -19.85 141.35 -18.3 141.15 Q19.9 166.0 64.85 161.95 81.6 160.55 94.05 149.65 L97.0 149.55 95.9 152.0 Q101.7 150.1 107.05 147.05 113.25 143.35 116.9 137.6 L118.35 136.25 119.7 134.8 Q122.8 130.95 127.6 130.25 L128.3 133.4 Q116.2 144.3 101.45 151.35 95.4 154.2 89.6 158.15 87.75 159.4 88.9 160.05 L85.5 161.9 84.4 164.85 88.9 173.3 90.65 173.1 101.4 178.6 Q83.4 189.15 61.95 183.85 49.65 180.85 39.0 174.05 35.9 172.05 32.15 171.85 L30.45 173.75 31.4 177.85 35.15 181.6 M133.2 121.65 L133.3 118.95 Q133.8 113.2 138.65 110.1 L140.4 113.1 135.4 121.35 133.2 121.65 M140.45 159.25 L144.25 160.9 146.4 172.1 144.55 172.75 Q140.95 169.4 140.05 164.55 139.55 161.8 140.45 159.25 M-222.2 -133.3 Q-222.75 -132.65 -223.45 -132.65 -224.15 -132.65 -224.65 -133.3 -225.2 -133.95 -225.2 -134.85 -225.2 -135.75 -224.65 -136.4 L-223.45 -137.05 Q-222.75 -137.05 -222.2 -136.4 -221.7 -135.75 -221.7 -134.85 -221.7 -133.95 -222.2 -133.3 M-233.55 -122.9 Q-232.95 -122.5 -232.95 -121.9 -232.95 -121.3 -233.55 -120.9 -234.2 -120.5 -235.05 -120.5 -235.9 -120.5 -236.5 -120.9 -237.15 -121.3 -237.15 -121.9 -237.15 -122.5 -236.5 -122.9 L-235.05 -123.3 Q-234.2 -123.3 -233.55 -122.9 M-240.2 -116.55 L-240.55 -116.25 -241.15 -115.9 -241.8 -115.9 -242.55 -116.05 -259.85 -113.4 Q-254.15 -123.35 -241.15 -118.15 L-240.25 -117.4 -240.2 -116.55 M-167.9 -128.25 L-154.4 -127.0 -149.1 -121.6 -164.9 -124.25 -165.9 -123.5 -168.0 -124.35 -166.75 -126.8 -167.9 -128.25 M-188.2 -115.85 Q-187.7 -115.35 -187.7 -114.65 -187.7 -113.95 -188.2 -113.45 -188.7 -112.95 -189.4 -112.95 -190.1 -112.95 -190.6 -113.45 -191.1 -113.95 -191.1 -114.65 -191.1 -115.35 -190.6 -115.85 -190.1 -116.35 -189.4 -116.35 -188.7 -116.35 -188.2 -115.85 M-264.5 -97.9 Q-264.1 -97.5 -264.1 -96.9 -264.1 -96.3 -264.5 -95.85 -264.95 -95.45 -265.55 -95.45 -266.15 -95.45 -266.55 -95.85 -267.0 -96.3 -267.0 -96.9 L-266.55 -97.9 Q-266.15 -98.35 -265.55 -98.35 -264.95 -98.35 -264.5 -97.9 M-164.5 -80.2 Q-163.8 -80.2 -163.3 -79.8 -162.85 -79.45 -162.85 -78.9 -162.85 -78.35 -163.3 -77.95 -163.8 -77.6 -164.5 -77.6 -165.2 -77.6 -165.65 -77.95 -166.15 -78.35 -166.15 -78.9 -166.15 -79.45 -165.65 -79.8 -165.2 -80.2 -164.5 -80.2 M-235.3 -75.75 Q-236.0 -75.05 -236.95 -75.05 -237.9 -75.05 -238.6 -75.75 -239.3 -76.45 -239.3 -77.45 -239.3 -78.45 -238.6 -79.15 -237.9 -79.85 -236.95 -79.85 -236.0 -79.85 -235.3 -79.15 -234.6 -78.45 -234.6 -77.45 -234.6 -76.45 -235.3 -75.75 M-68.75 -174.9 L-69.9 -172.25 -72.9 -170.25 -74.8 -170.85 Q-72.65 -178.0 -67.6 -183.0 L-64.9 -185.25 -62.65 -184.25 -68.75 -174.9 M-76.8 -148.05 Q-76.2 -148.05 -75.75 -147.35 -75.35 -146.65 -75.35 -145.65 -75.35 -144.65 -75.75 -143.95 -76.2 -143.25 -76.8 -143.25 -77.4 -143.25 -77.8 -143.95 -78.25 -144.65 -78.25 -145.65 -78.25 -146.65 -77.8 -147.35 -77.4 -148.05 -76.8 -148.05 M-38.25 -105.6 Q-38.25 -106.6 -37.8 -107.3 -37.4 -108.0 -36.8 -108.0 -36.2 -108.0 -35.75 -107.3 -35.35 -106.6 -35.35 -105.6 -35.35 -104.6 -35.75 -103.9 -36.2 -103.2 -36.8 -103.2 -37.4 -103.2 -37.8 -103.9 -38.25 -104.6 -38.25 -105.6 M-152.1 -129.65 Q-116.0 -128.35 -104.65 -90.8 L-105.05 -89.4 -106.5 -89.0 -107.85 -91.2 -110.65 -90.95 -116.85 -102.5 Q-113.7 -103.15 -112.3 -100.2 L-111.4 -98.35 -109.2 -94.2 -111.15 -100.25 -114.15 -104.75 -114.15 -106.0 Q-128.2 -123.15 -150.2 -128.35 L-152.1 -129.65 M-66.9 -53.45 Q-59.9 -43.65 -48.9 -38.7 -38.2 -37.85 -29.85 -44.1 L-27.6 -42.45 Q-42.5 -22.6 -62.55 -36.35 L-63.75 -37.35 -63.65 -40.3 -70.8 -54.1 -66.9 -53.45 M-68.7 -4.55 Q-60.6 0.3 -51.95 -3.65 -50.3 -4.4 -48.65 -3.2 -66.75 13.95 -89.65 6.1 L-81.9 5.3 -72.15 -3.7 -72.15 -7.2 -69.9 -8.95 -68.7 -4.55 M-52.9 43.8 L-59.65 51.3 -58.9 55.8 -59.55 56.95 -59.05 60.65 Q-61.9 61.3 -64.55 59.7 -66.25 58.65 -67.0 57.05 -61.8 54.4 -62.15 49.05 -46.45 38.4 -51.9 22.8 -55.9 11.3 -68.0 8.65 L-66.8 7.45 Q-35.45 10.65 -40.05 43.0 -40.15 43.8 -40.65 44.55 L-40.65 46.05 -42.4 52.05 -41.0 59.45 -44.05 58.05 -46.15 46.8 -48.2 44.2 -52.9 43.8 M-40.95 67.95 L-39.4 68.05 -38.65 70.3 -34.65 71.8 -32.65 77.05 -36.65 78.05 Q-40.7 75.8 -41.5 72.2 L-42.1 69.8 -40.95 67.95 M-61.6 85.15 L-64.15 87.0 -65.3 91.55 -67.05 91.9 Q-69.9 90.05 -72.95 88.8 -74.6 88.1 -76.65 88.0 L-76.65 87.75 -75.95 85.6 -74.85 83.8 -73.35 82.25 -71.4 80.95 -61.35 78.75 -61.6 85.15 M-135.05 76.55 Q-150.8 74.85 -162.05 86.5 L-164.75 89.35 -167.1 88.9 Q-154.65 70.65 -135.75 74.85 L-134.9 75.3 -135.05 76.55 M-114.2 72.9 L-116.9 73.8 -117.55 74.8 Q-118.8 76.65 -118.65 78.85 -118.55 80.5 -117.65 82.05 L-118.8 82.9 -119.55 82.25 Q-121.05 80.75 -121.3 78.65 -121.5 76.8 -121.15 74.8 L-116.9 70.95 -114.2 72.9 M-99.35 108.6 Q-99.8 109.05 -100.45 109.05 -101.1 109.05 -101.55 108.6 -102.0 108.15 -102.0 107.5 -102.0 106.85 -101.55 106.4 -101.1 105.95 -100.45 105.95 -99.8 105.95 -99.35 106.4 -98.9 106.85 -98.9 107.5 -98.9 108.15 -99.35 108.6 M-96.9 115.1 L-95.0 115.55 -89.65 124.1 -89.65 125.6 -87.75 133.45 -88.65 134.6 -88.65 136.1 -93.15 143.1 -96.3 143.6 -94.9 145.6 Q-97.75 147.9 -101.25 147.15 -116.3 144.25 -130.15 151.0 L-131.9 159.6 -134.15 159.6 Q-134.55 154.25 -132.2 149.35 -129.9 144.55 -125.65 141.1 -117.6 140.3 -109.75 141.25 -98.65 142.9 -91.35 134.55 L-91.35 128.55 -91.95 127.5 -96.9 115.1 M-148.25 128.95 Q-156.9 135.55 -169.5 132.2 L-171.05 130.2 -160.65 129.0 -162.35 128.45 -162.75 126.95 Q-159.8 124.8 -156.9 127.35 L-152.85 126.85 -148.25 128.95 M-313.7 79.8 Q-315.25 84.95 -320.1 86.75 -336.25 93.0 -351.95 84.8 L-356.2 78.05 -355.5 73.4 Q-351.8 80.9 -343.9 83.2 -328.35 87.45 -313.7 79.8 M-311.8 84.5 L-304.75 86.65 -300.95 92.55 -303.2 92.55 Q-304.7 90.65 -306.55 89.3 -309.15 87.5 -312.05 86.25 L-311.8 84.5 M-301.45 96.75 Q-300.75 96.75 -300.2 97.5 -299.7 98.25 -299.7 99.35 -299.7 100.45 -300.2 101.2 -300.75 101.95 -301.45 101.95 -302.15 101.95 -302.65 101.2 -303.2 100.45 -303.2 99.35 -303.2 98.25 -302.65 97.5 -302.15 96.75 -301.45 96.75 M-303.1 117.15 Q-303.1 117.75 -303.5 118.2 -303.95 118.6 -304.55 118.6 -305.15 118.6 -305.55 118.2 L-306.0 117.15 -305.55 116.15 Q-305.15 115.7 -304.55 115.7 -303.95 115.7 -303.5 116.15 -303.1 116.55 -303.1 117.15 M-199.6 130.65 Q-201.45 130.8 -201.85 129.45 L-194.4 124.1 -194.4 127.1 Q-196.05 130.5 -199.6 130.65 M-176.1 125.75 L-176.1 128.8 -181.85 128.8 -181.85 125.75 -176.1 125.75 M-353.25 66.2 Q-352.75 66.7 -352.75 67.4 -352.75 68.1 -353.25 68.6 -353.75 69.1 -354.45 69.1 -355.15 69.1 -355.65 68.6 -356.15 68.1 -356.15 67.4 -356.15 66.7 -355.65 66.2 -355.15 65.7 -354.45 65.7 -353.75 65.7 -353.25 66.2 M-360.65 100.55 Q-360.15 100.05 -359.45 100.05 -358.75 100.05 -358.2 100.55 -357.7 101.05 -357.7 101.75 -357.7 102.45 -358.2 102.95 -358.75 103.45 -359.45 103.45 -360.15 103.45 -360.65 102.95 -361.2 102.45 -361.2 101.75 -361.2 101.05 -360.65 100.55" fill="#fc7600" fill-rule="evenodd" stroke="none"/>
  </g>
</svg>
