<?xml version="1.0" encoding="UTF-8" standalone="no"?>
<svg xmlns:ffdec="https://www.free-decompiler.com/flash" xmlns:xlink="http://www.w3.org/1999/xlink" ffdec:objectType="shape" height="395.75px" width="355.6px" xmlns="http://www.w3.org/2000/svg">
  <g transform="matrix(1.0, 0.0, 0.0, 1.0, -59.65, 142.4)">
    <path d="M130.15 -132.85 Q139.4 -132.3 149.35 -126.25 173.5 -111.4 191.95 -89.3 L197.45 -83.15 Q208.2 -71.75 219.75 -60.95 L225.9 -55.15 284.7 1.55 284.2 7.55 213.25 10.55 Q221.25 22.15 230.05 33.2 234.65 38.95 241.05 42.75 288.1 71.3 339.6 53.2 353.65 48.25 364.0 37.6 371.4 29.9 373.7 20.05 L375.7 17.05 375.7 14.05 377.7 11.05 377.7 8.05 379.7 5.05 379.75 0.05 386.15 0.9 384.05 29.4 382.75 31.05 382.5 34.8 374.75 52.05 Q387.6 52.15 400.3 52.7 L400.1 53.1 Q399.65 57.85 399.6 62.95 399.55 73.1 395.0 82.1 390.3 91.3 387.15 101.15 386.6 102.9 386.5 104.8 L384.75 107.05 384.75 110.05 376.75 123.55 376.75 126.55 Q351.8 154.85 324.65 180.9 316.75 188.45 307.45 194.15 267.2 219.2 223.6 236.9 213.9 240.8 203.55 243.35 183.1 248.35 162.2 250.85 120.65 256.35 79.35 249.75 69.5 248.25 59.65 245.6 82.25 242.95 105.35 241.7 113.3 241.4 121.1 239.8 166.0 230.35 196.8 197.1 200.9 192.75 205.5 188.85 219.3 177.05 229.6 162.05 L229.7 159.05 233.5 154.5 244.7 126.55 239.7 132.05 Q212.85 135.0 186.3 130.15 155.9 124.9 130.95 107.6 126.5 104.55 123.05 100.4 108.5 82.7 118.3 62.55 124.85 48.95 133.9 37.25 149.65 16.85 174.45 20.9 L193.7 23.05 172.2 -2.5 Q165.65 -14.7 156.05 -24.7 134.25 -47.4 109.75 -67.7 L112.15 -71.5 Q131.25 -72.15 149.9 -68.85 168.4 -65.4 185.7 -58.0 L152.0 -114.15 139.25 -117.35 138.05 -119.85 144.55 -122.3 130.15 -132.85 M293.1 -135.3 Q301.25 -141.1 314.75 -142.2 346.4 -143.8 375.2 -131.4 390.3 -124.85 403.85 -115.35 L411.9 -105.75 415.25 -97.15 366.85 -105.15 363.95 -102.8 366.5 -84.55 363.0 -84.15 361.35 -91.45 Q347.5 -101.2 336.85 -113.65 332.15 -119.2 325.3 -121.9 313.5 -126.55 301.05 -129.25 295.7 -130.35 293.1 -135.3 M378.7 23.25 L378.7 23.5 Q380.6 23.95 378.7 23.25" fill="#ff4900" fill-opacity="0.3019608" fill-rule="evenodd" stroke="none"/>
  </g>
</svg>
