<?xml version="1.0" encoding="UTF-8" standalone="no"?>
<svg xmlns:ffdec="https://www.free-decompiler.com/flash" xmlns:xlink="http://www.w3.org/1999/xlink" ffdec:objectType="shape" height="144.55px" width="106.65px" xmlns="http://www.w3.org/2000/svg">
  <g transform="matrix(1.0, 0.0, 0.0, 1.0, 245.8, 83.15)">
    <path d="M-169.5 -75.3 Q-151.05 -69.9 -141.75 -51.95 -138.55 -45.7 -139.3 -38.75 -141.3 -20.3 -160.8 -22.05 -167.75 -22.65 -172.05 -26.05 L-172.8 -25.65 Q-171.65 -22.5 -171.9 -18.95 -169.0 -12.8 -170.85 -6.35 -172.8 0.55 -178.2 3.3 -178.7 5.15 -179.65 6.8 -168.95 12.15 -170.3 27.25 -172.35 50.65 -196.4 50.75 L-198.05 50.7 Q-213.75 67.7 -234.2 57.65 -236.95 56.3 -238.95 53.85 -252.05 37.95 -240.1 23.9 -244.95 8.65 -236.7 -6.15 -234.7 -9.85 -233.2 -13.85 -227.5 -29.15 -219.1 -43.15 L-217.65 -45.45 Q-219.1 -53.05 -214.9 -59.35 L-213.55 -61.25 -213.8 -62.6 Q-216.4 -81.15 -196.65 -82.55 L-193.9 -82.95 Q-187.2 -83.65 -180.75 -82.0 -176.1 -80.75 -172.9 -77.2 L-169.5 -75.3" fill="#0000ff" fill-rule="evenodd" stroke="none"/>
  </g>
</svg>
