<?xml version="1.0" encoding="UTF-8" standalone="no"?>
<svg xmlns:ffdec="https://www.free-decompiler.com/flash" xmlns:xlink="http://www.w3.org/1999/xlink" ffdec:objectType="shape" height="20.15px" width="18.1px" xmlns="http://www.w3.org/2000/svg">
  <g transform="matrix(1.0, 0.0, 0.0, 1.0, 7.35, 11.95)">
    <path d="M10.15 7.55 L10.2 7.6 10.2 7.85 10.15 7.9 10.15 8.0 10.05 8.1 10.05 8.15 10.0 8.2 8.55 6.15 6.25 3.6 3.7 1.1 3.75 1.05 3.85 1.05 3.9 1.0 -7.35 -11.95 10.0 -11.95 10.0 7.35 10.05 7.35 10.05 7.4 10.1 7.45 10.15 7.5 10.15 7.55" fill="#33cc00" fill-rule="evenodd" stroke="none"/>
    <path d="M10.25 1.3 L10.25 1.85 10.35 2.05 10.35 2.15 10.4 2.25 10.4 2.35 10.45 2.45 10.45 2.8 10.55 2.9 10.6 3.0 10.65 3.2 10.7 3.2 10.75 3.3 10.75 4.15 10.7 4.25 10.7 4.35 10.65 4.45 10.65 4.55 10.6 4.55 10.5 4.65 10.45 4.75 10.3 4.85 10.5 5.25 10.5 5.3 10.55 5.3 10.6 5.4 10.6 5.5 10.65 5.6 10.65 5.7 10.7 5.8 10.7 6.2 10.65 6.3 10.65 6.4 10.6 6.5 10.6 6.6 10.55 6.65 10.5 6.75 10.45 6.85 10.35 6.85 10.2 6.95 9.9 6.95 6.3 2.75 7.05 1.95 8.25 0.6 9.75 0.6 9.95 0.7 10.05 0.8 10.2 1.1 10.25 1.3" fill="#216400" fill-opacity="0.5254902" fill-rule="evenodd" stroke="none"/>
  </g>
</svg>
