<?xml version="1.0" encoding="UTF-8" standalone="no"?>
<svg xmlns:ffdec="https://www.free-decompiler.com/flash" xmlns:xlink="http://www.w3.org/1999/xlink" ffdec:objectType="shape" height="24.2px" width="21.9px" xmlns="http://www.w3.org/2000/svg">
  <g transform="matrix(1.0, 0.0, 0.0, 1.0, 11.55, 16.0)">
    <path d="M0.3 -4.1 L0.4 -4.0 0.55 -3.85 0.7 -3.65 0.75 -3.55 0.8 -3.5 0.85 -3.45 0.85 -3.4 0.9 -3.35 0.9 -3.25 1.05 -3.1 1.2 -2.95 1.4 -2.7 1.4 -2.65 1.5 -2.55 1.55 -2.5 1.55 -2.45 1.6 -2.4 1.6 -2.35 1.65 -2.3 1.65 -2.25 1.7 -2.2 1.7 -2.15 1.75 -2.1 1.8 -2.05 1.9 -1.95 2.1 -1.8 2.1 -1.75 2.25 -1.65 2.4 -1.5 2.55 -1.35 2.65 -1.25 2.7 -1.25 2.8 -1.15 2.85 -1.05 2.9 -1.0 2.95 -0.95 3.0 -0.9 3.15 -0.75 3.15 -0.7 3.8 -0.15 4.5 0.5 4.75 0.9 4.9 1.05 5.05 1.25 5.25 1.5 5.45 1.75 5.5 1.8 5.6 1.9 5.7 2.05 5.9 2.25 5.95 2.35 6.0 2.4 6.1 2.45 6.2 2.55 6.25 2.6 6.3 2.65 6.35 2.7 6.4 2.8 6.45 2.85 6.55 2.9 6.65 3.0 6.7 3.1 6.85 3.15 6.95 3.2 7.0 3.2 7.0 3.25 7.1 3.3 7.2 3.4 7.25 3.5 7.35 3.55 7.5 3.65 7.65 3.8 7.75 3.95 7.8 3.95 7.85 4.0 7.9 4.05 8.0 4.15 8.0 4.2 8.05 4.25 8.05 4.3 8.2 4.4 8.35 4.55 8.4 4.65 8.5 4.75 8.55 4.8 8.65 4.85 8.75 4.95 8.8 5.1 8.9 5.25 9.0 5.35 9.05 5.45 9.15 5.55 9.25 5.7 9.3 5.8 9.3 5.85 9.35 5.9 9.45 6.0 9.55 6.1 9.55 6.2 9.6 6.25 9.75 6.4 9.95 6.65 10.15 6.95 10.2 7.0 10.2 7.05 10.25 7.1 10.3 7.15 10.3 7.25 10.35 7.3 10.35 7.45 10.35 7.55 10.35 7.65 10.35 7.75 10.35 7.8 10.3 7.85 10.3 7.9 10.25 7.95 10.25 8.0 10.2 8.05 10.15 8.1 10.1 8.15 10.0 8.2 9.95 8.2 9.8 8.2 9.7 8.2 9.6 8.15 9.5 8.1 9.45 8.05 9.4 8.0 9.35 8.0 9.35 7.95 9.3 7.9 9.3 7.6 9.25 7.55 9.2 7.45 9.1 7.3 9.05 7.25 8.9 7.0 8.65 6.65 8.4 6.35 8.4 6.25 8.25 6.15 8.2 6.05 8.1 5.9 8.05 5.8 7.95 5.7 7.85 5.55 7.7 5.45 7.6 5.35 7.55 5.3 7.5 5.25 7.45 5.15 7.4 5.1 7.3 5.0 7.2 4.9 7.1 4.75 7.05 4.65 7.0 4.6 6.95 4.55 6.9 4.5 6.85 4.45 6.8 4.4 6.65 4.35 6.55 4.3 6.4 4.15 6.2 4.0 6.0 3.8 5.8 3.65 5.7 3.55 5.7 3.5 5.6 3.45 5.6 3.4 5.5 3.35 5.45 3.3 5.4 3.25 5.3 3.15 5.25 3.1 5.2 3.05 5.1 3.0 5.1 2.95 5.05 2.9 4.65 2.45 4.2 1.85 3.85 1.4 3.8 1.35 3.8 1.3 3.7 1.2 3.5 1.0 3.25 0.75 2.55 0.1 1.8 -0.65 1.45 -0.95 1.4 -1.0 1.35 -1.05 1.25 -1.1 1.2 -1.2 1.2 -1.25 1.05 -1.35 0.95 -1.45 0.8 -1.6 0.75 -1.65 0.75 -1.8 0.7 -1.85 0.65 -1.9 0.6 -1.95 0.55 -2.05 0.5 -2.1 0.5 -2.2 0.4 -2.25 0.35 -2.3 0.25 -2.4 0.15 -2.55 0.0 -2.7 -0.05 -2.8 -0.2 -2.95 -0.25 -3.0 -0.3 -3.05 -0.3 -3.2 -0.4 -3.35 -0.55 -3.55 -0.75 -3.8 -0.8 -3.85 -0.85 -3.9 -0.9 -3.95 -1.05 -4.1 -1.2 -4.15 -1.3 -4.25 -1.35 -4.35 -1.4 -4.4 -1.45 -4.45 -1.55 -4.55 -1.7 -4.65 -1.85 -4.7 -1.95 -4.8 -2.1 -4.95 -2.15 -5.0 -2.2 -5.05 -2.3 -5.1 -2.4 -5.15 -2.65 -5.4 -2.95 -5.75 -3.25 -6.05 -3.25 -6.1 -3.35 -6.15 -3.45 -6.2 -3.55 -6.3 -3.6 -6.3 -3.6 -6.35 -3.65 -6.45 -3.65 -6.5 -3.7 -6.55 -3.8 -6.6 -3.85 -6.65 -3.9 -6.7 -3.95 -6.75 -4.0 -6.8 -4.1 -6.85 -4.2 -6.9 -4.25 -6.95 -4.4 -7.05 -4.45 -7.05 -4.45 -7.1 -4.5 -7.15 -4.5 -7.2 -4.55 -7.25 -4.55 -7.3 -4.6 -7.35 -4.6 -7.6 -4.7 -7.65 -4.8 -7.7 -4.85 -7.75 -4.9 -7.8 -4.95 -7.8 -5.0 -7.85 -5.1 -7.9 -5.15 -7.95 -5.2 -8.05 -5.25 -8.1 -5.35 -8.15 -5.4 -8.2 -5.65 -8.45 -6.05 -8.75 -6.25 -9.0 -6.25 -9.15 -6.3 -9.2 -6.35 -9.3 -6.4 -9.35 -6.45 -9.45 -6.45 -9.5 -6.5 -9.55 -6.5 -9.6 -6.55 -9.65 -6.55 -9.8 -6.6 -9.85 -6.65 -9.9 -6.65 -9.95 -6.7 -10.0 -6.75 -10.1 -6.75 -10.15 -6.8 -10.2 -6.8 -10.25 -6.85 -10.3 -6.85 -10.35 -7.0 -10.5 -7.0 -10.65 -7.05 -10.7 -7.1 -10.75 -7.15 -10.8 -7.2 -10.85 -7.3 -10.9 -7.4 -10.95 -7.55 -11.05 -7.55 -11.1 -7.65 -11.1 -7.7 -11.15 -7.8 -11.25 -7.9 -11.35 -8.0 -11.45 -8.1 -11.55 -8.25 -11.65 -8.35 -11.8 -8.5 -11.95 -8.75 -12.15 -8.8 -12.2 -8.85 -12.25 -8.9 -12.3 -9.05 -12.4 -9.15 -12.55 -9.25 -12.75 -9.35 -12.85 -9.45 -12.95 -9.5 -13.0 -9.55 -13.05 -9.6 -13.1 -9.65 -13.15 -9.7 -13.2 -9.75 -13.25 -9.8 -13.35 -9.85 -13.35 -9.9 -13.4 -9.95 -13.45 -10.05 -13.55 -10.15 -13.65 -10.2 -13.7 -10.25 -13.75 -10.3 -13.8 -10.3 -13.85 -10.35 -13.9 -10.4 -13.95 -10.45 -14.0 -10.55 -14.1 -10.65 -14.2 -10.65 -14.25 -10.8 -14.4 -10.9 -14.5 -11.0 -14.6 -11.05 -14.65 -11.1 -14.7 -11.15 -14.8 -11.2 -14.85 -11.2 -14.9 -11.25 -14.95 -11.25 -15.0 -11.4 -15.15 -11.5 -15.25 -11.5 -15.3 -11.55 -15.35 -11.55 -15.6 -11.5 -15.65 -11.5 -15.7 -11.45 -15.75 -11.45 -15.8 -9.9 -14.95 -9.85 -14.9 -9.8 -14.8 -9.7 -14.7 -9.65 -14.65 -9.55 -14.55 -9.5 -14.5 -9.45 -14.45 -9.4 -14.4 -9.25 -14.3 -9.2 -14.2 -9.1 -14.1 -8.95 -14.0 -8.9 -13.95 -8.85 -13.9 -8.8 -13.85 -8.75 -13.8 -8.75 -13.75 -8.65 -13.65 -8.4 -13.4 -8.15 -13.0 -7.85 -12.7 -7.7 -12.55 -7.55 -12.4 -7.3 -12.2 -7.2 -12.15 -7.1 -12.1 -7.0 -12.0 -6.95 -11.9 -6.9 -11.85 -6.8 -11.8 -6.75 -11.8 -6.65 -11.75 -6.6 -11.7 -6.5 -11.6 -6.45 -11.55 -6.45 -11.5 -6.35 -11.45 -6.25 -11.35 -6.25 -11.3 -6.2 -11.25 -6.2 -11.2 -6.15 -11.15 -6.1 -11.1 -6.05 -10.95 -5.95 -10.8 -5.8 -10.65 -5.8 -10.6 -5.75 -10.55 -5.75 -10.45 -5.7 -10.4 -5.7 -10.35 -5.65 -10.35 -5.6 -10.3 -5.6 -10.2 -5.55 -10.15 -5.55 -10.1 -5.5 -10.0 -5.5 -9.9 -5.45 -9.85 -5.4 -9.8 -5.4 -9.75 -5.35 -9.7 -5.35 -9.65 -5.3 -9.6 -5.2 -9.45 -5.0 -9.25 -4.8 -9.0 -4.75 -8.95 -4.65 -8.9 -4.55 -8.85 -4.5 -8.8 -4.45 -8.8 -4.4 -8.75 -4.35 -8.7 -4.1 -8.5 -4.0 -8.45 -3.85 -8.4 -3.65 -8.25 -3.45 -8.15 -3.35 -8.1 -3.2 -8.0 -3.15 -7.95 -3.05 -7.9 -2.85 -7.7 -2.75 -7.65 -2.6 -7.55 -2.55 -7.45 -2.55 -7.4 -2.45 -7.35 -2.35 -7.3 -2.25 -7.2 -2.1 -7.05 -2.1 -7.0 -2.05 -6.95 -2.05 -6.9 -1.85 -6.75 -1.7 -6.55 -1.5 -6.25 -1.35 -6.1 -1.2 -5.95 -0.95 -5.7 -0.95 -5.65 -0.8 -5.5 -0.8 -5.45 -0.75 -5.4 -0.75 -5.35 -0.7 -5.3 -0.7 -5.25 -0.6 -5.2 -0.55 -5.15 -0.5 -5.05 -0.4 -5.0 -0.4 -4.95 -0.15 -4.7 0.1 -4.35 0.3 -4.1 M-10.4 -15.6 L-10.25 -15.4 -10.25 -15.35 -11.25 -15.95 -11.15 -16.0 -11.05 -16.0 -10.95 -16.0 -10.85 -15.95 -10.65 -15.8 -10.4 -15.6" fill="#000000" fill-rule="evenodd" stroke="none"/>
  </g>
</svg>
