<?xml version="1.0" encoding="UTF-8" standalone="no"?>
<svg xmlns:ffdec="https://www.free-decompiler.com/flash" xmlns:xlink="http://www.w3.org/1999/xlink" ffdec:objectType="shape" height="17.35px" width="21.15px" xmlns="http://www.w3.org/2000/svg">
  <g transform="matrix(1.0, 0.0, 0.0, 1.0, 10.3, 16.6)">
    <path d="M9.75 -13.95 L9.85 -13.95 10.0 -13.85 10.05 -13.85 10.05 -13.8 10.1 -13.8 10.1 -13.6 10.05 -13.45 10.1 -13.35 10.15 -13.25 10.05 -11.75 Q10.2 -11.05 9.95 -10.1 L9.45 -9.3 Q9.15 -9.1 8.9 -9.5 L8.55 -9.5 Q8.45 -9.4 8.35 -9.4 L8.35 -9.3 8.25 -9.2 8.2 -9.0 8.2 -8.95 8.15 -8.5 8.0 -7.9 Q7.7 -7.35 7.3 -7.6 L7.2 -7.7 Q6.9 -7.0 6.45 -7.35 L6.2 -7.7 5.85 -7.8 5.65 -8.0 Q5.2 -6.65 4.65 -7.9 L4.55 -8.7 4.55 -9.1 Q4.4 -8.3 4.05 -7.9 3.65 -7.55 3.35 -8.25 L3.0 -8.25 2.7 -8.25 Q2.6 -7.2 2.05 -7.2 1.7 -7.1 1.55 -7.6 1.25 -7.0 0.85 -7.45 L0.7 -7.6 0.65 -7.55 0.55 -7.2 0.55 -7.1 Q-0.15 -6.15 -0.55 -7.55 L-0.6 -8.15 Q-1.0 -7.8 -1.3 -8.5 L-1.4 -8.8 Q-1.65 -7.55 -2.35 -7.8 -2.6 -7.9 -2.65 -8.4 L-2.8 -8.6 -3.5 -9.3 -3.6 -9.7 Q-3.95 -8.6 -4.6 -9.1 L-4.85 -9.4 Q-5.25 -9.2 -5.6 -9.8 -5.75 -9.55 -6.0 -9.5 L-9.65 -13.6 -8.9 -13.7 -8.75 -13.95 -8.55 -13.95 -8.35 -13.95 -8.3 -13.85 -8.2 -13.85 -8.05 -13.85 Q-7.75 -14.65 -7.15 -14.65 L-6.85 -14.55 -6.8 -14.65 -6.8 -14.75 -6.75 -14.75 -6.65 -14.85 -6.6 -14.85 -6.5 -14.95 -6.3 -15.2 -6.25 -15.25 -6.2 -15.25 -6.1 -15.25 -5.75 -15.2 -5.65 -15.2 -5.35 -14.95 -5.3 -14.95 -4.6 -14.65 -4.35 -14.5 -4.25 -14.5 -4.1 -14.5 -4.05 -14.4 -3.95 -14.25 -3.2 -13.95 -2.95 -13.85 -2.9 -13.8 -2.85 -13.8 -2.8 -13.7 -2.75 -13.7 -2.55 -13.7 -2.5 -13.6 -2.45 -13.6 -2.45 -13.45 -2.2 -13.35 -2.05 -13.35 -2.0 -13.35 -1.95 -13.25 -1.2 -13.15 -1.0 -13.15 -0.95 -13.1 -0.9 -13.1 -0.2 -12.9 -0.1 -12.9 -0.05 -12.75 Q3.1 -11.75 6.35 -12.65 L8.05 -13.1 9.0 -13.45 9.4 -13.8 9.45 -13.8 9.55 -13.85 9.65 -13.95 9.75 -13.95 M6.85 -11.5 L6.15 -11.7 6.05 -11.85 6.05 -11.95 5.35 -11.85 5.4 -11.75 6.15 -11.6 6.2 -11.4 6.55 -11.3 6.8 -11.4 6.85 -11.5 M3.9 -10.9 L4.15 -11.6 2.4 -11.6 2.45 -11.4 2.45 -11.3 2.9 -11.3 3.1 -11.05 3.8 -11.0 3.9 -10.9 M1.25 -11.5 L1.35 -11.7 0.7 -11.85 0.7 -11.5 0.6 -11.4 -0.4 -11.4 -0.1 -11.15 0.05 -11.0 0.1 -10.8 0.15 -10.5 0.15 -10.35 0.75 -11.3 Q0.95 -11.6 1.25 -11.5 M-1.85 -11.4 L-2.1 -11.4 -2.0 -11.0 -1.85 -11.4" fill="#74ff51" fill-rule="evenodd" stroke="none"/>
    <path d="M9.55 -9.4 L9.55 -9.1 9.65 -8.95 9.85 -8.6 10.0 -7.9 10.0 -6.9 Q10.5 -6.15 10.3 -4.8 L10.1 -3.85 9.85 -3.55 Q9.75 -3.45 9.65 -3.45 L9.6 -3.4 9.6 -3.25 9.55 -3.15 9.55 -3.05 9.25 -2.75 9.0 -2.7 Q9.0 -1.45 8.55 -0.85 L7.95 -0.75 7.65 -0.3 7.35 -0.05 Q6.7 1.5 6.2 -0.2 L6.1 -0.75 Q5.7 0.3 4.95 -0.3 L4.85 -0.4 Q4.4 1.6 3.7 0.05 3.5 -0.2 3.5 -0.6 L3.5 -1.1 Q3.15 -1.0 2.9 -1.35 L2.75 -1.8 Q2.45 -0.85 1.9 -1.35 L1.8 -1.55 1.7 -1.3 1.7 -1.15 -4.2 -7.65 -7.2 -10.95 Q-7.0 -11.65 -6.55 -11.3 L-6.35 -11.0 -6.2 -11.6 -5.75 -12.1 -5.45 -11.85 -5.35 -11.7 -5.25 -11.0 -5.3 -10.1 -5.25 -10.2 -5.25 -10.35 Q-4.95 -11.3 -4.5 -10.8 L-4.35 -10.6 -4.2 -8.3 -4.2 -7.65 -3.85 -9.3 -3.5 -9.65 -3.2 -9.2 -3.2 -9.1 -3.15 -9.0 -3.15 -8.95 -3.1 -8.8 Q-3.1 -10.0 -2.45 -9.9 L-2.15 -9.65 -2.05 -9.2 -1.95 -8.4 Q-1.8 -9.4 -1.25 -9.3 L-0.9 -9.0 -0.85 -8.6 -0.8 -8.0 Q-0.7 -8.8 -0.25 -8.8 0.0 -8.95 0.15 -8.5 L0.2 -8.25 0.25 -7.8 0.25 -7.7 Q0.7 -9.3 1.35 -8.15 L1.45 -7.7 Q1.7 -8.3 2.2 -8.15 L2.4 -7.8 2.4 -7.7 2.45 -7.6 2.5 -7.45 Q2.6 -8.6 3.2 -8.7 L3.65 -8.3 3.65 -8.25 3.7 -8.15 3.7 -8.0 3.75 -7.9 Q4.0 -8.15 4.25 -7.9 L4.45 -7.6 4.5 -7.55 4.55 -7.2 4.55 -6.9 Q4.8 -7.8 5.3 -7.55 L5.5 -7.2 5.55 -6.85 5.65 -6.2 Q5.65 -7.55 6.1 -8.4 6.35 -8.95 6.65 -8.6 6.95 -9.65 7.45 -9.2 L7.65 -9.0 8.1 -9.1 8.35 -9.0 Q8.5 -10.9 9.3 -10.2 L9.55 -9.4" fill="#2fea00" fill-rule="evenodd" stroke="none"/>
    <path d="M10.1 -12.65 Q7.6 -11.85 4.8 -11.85 -1.5 -11.85 -6.05 -15.85 -7.7 -14.4 -9.55 -13.45" fill="none" stroke="#000000" stroke-linecap="round" stroke-linejoin="round" stroke-width="1.5"/>
  </g>
</svg>
