<?xml version="1.0" encoding="UTF-8" standalone="no"?>
<svg xmlns:ffdec="https://www.free-decompiler.com/flash" xmlns:xlink="http://www.w3.org/1999/xlink" ffdec:objectType="shape" height="10.55px" width="21.25px" xmlns="http://www.w3.org/2000/svg">
  <g transform="matrix(1.0, 0.0, 0.0, 1.0, 10.5, 5.9)">
    <path d="M10.0 2.5 L-10.0 2.5 -10.0 -5.9 10.0 -5.9 10.0 2.5" fill="#33cc00" fill-rule="evenodd" stroke="none"/>
    <path d="M-10.45 3.15 L-10.45 2.9 -10.4 2.85 -10.4 2.8 -10.35 2.75 -10.35 2.65 -10.4 2.6 -10.4 2.35 -10.35 2.3 -10.45 2.2 -10.45 2.15 -10.5 2.1 -10.5 1.75 -10.45 1.7 -10.45 1.65 -10.35 1.5 -10.2 1.4 -10.05 1.3 -10.15 1.2 -10.15 1.15 -10.2 1.1 -10.2 1.05 -10.25 1.05 -10.25 0.75 -10.25 0.65 -10.25 0.6 -10.2 0.55 -10.2 0.5 -10.15 0.45 -10.15 0.4 -10.05 0.35 -9.95 0.2 -9.9 0.15 -9.8 0.1 -9.45 0.0 5.1 -0.15 5.3 -0.2 6.5 -0.3 9.65 -0.3 9.85 -0.25 9.95 -0.2 10.1 -0.05 10.15 0.05 10.15 0.35 10.25 0.45 10.25 0.5 10.3 0.55 10.3 0.6 10.35 0.65 10.35 0.85 10.45 0.9 10.5 0.95 10.55 1.05 10.6 1.05 10.65 1.1 10.65 1.55 10.6 1.6 10.6 1.65 10.55 1.7 10.55 1.75 10.5 1.75 10.4 1.8 10.35 1.85 10.2 1.9 10.4 2.1 10.4 2.15 10.45 2.15 10.5 2.2 10.5 2.25 10.55 2.3 10.55 2.35 10.6 2.4 10.6 2.6 10.55 2.65 10.55 2.7 10.5 2.75 10.5 2.8 10.45 2.85 10.4 2.9 10.35 2.95 10.25 2.95 10.1 3.0 8.2 3.0 7.65 3.05 7.1 3.15 6.1 3.3 5.8 3.35 3.9 3.5 3.85 3.5 3.75 3.5 3.05 3.55 2.35 3.75 -1.65 3.55 -9.95 3.55 -10.25 3.45 -10.35 3.35 -10.35 3.3 -10.4 3.25 -10.4 3.2 -10.45 3.15 7.1 3.15 -10.45 3.15" fill="#33cc00" fill-rule="evenodd" stroke="none"/>
    <path d="M10.25 0.95 L10.25 1.25 10.35 1.35 10.35 1.4 10.4 1.45 10.4 1.5 10.45 1.55 10.45 1.75 10.55 1.8 10.6 1.85 10.65 1.95 10.7 1.95 10.75 2.0 10.75 2.45 10.7 2.5 10.7 2.55 10.65 2.6 10.65 2.65 10.6 2.65 10.5 2.7 10.45 2.75 10.3 2.8 10.5 3.0 10.5 3.05 10.55 3.05 10.6 3.1 10.6 3.15 10.65 3.2 10.65 3.25 10.7 3.3 10.7 3.5 10.65 3.55 10.65 3.6 10.6 3.65 10.6 3.7 10.55 3.75 10.5 3.8 10.45 3.85 10.35 3.85 10.2 3.9 8.3 3.9 7.75 3.95 6.2 4.2 5.9 4.25 4.0 4.4 3.95 4.4 3.85 4.4 3.15 4.45 2.45 4.65 -1.55 4.45 -9.85 4.45 -10.15 4.35 -10.25 4.25 -10.25 4.2 -10.3 4.15 -10.3 4.1 -10.35 4.05 -10.35 3.8 -10.3 3.75 -10.3 3.7 -10.25 3.65 -10.25 3.55 -10.3 3.5 -10.3 3.25 -10.25 3.2 -10.35 3.1 -10.35 3.05 -10.4 3.0 -10.4 2.65 -10.35 2.6 -10.35 2.55 -10.25 2.4 -10.1 2.3 -9.95 2.2 -10.05 2.1 -10.05 2.05 -10.1 2.0 -10.1 1.95 -10.15 1.95 -10.15 1.65 -10.15 1.55 -10.15 1.5 -10.1 1.45 -10.1 1.4 -10.05 1.35 -10.05 1.3 -9.95 1.25 -9.85 1.1 -9.8 1.05 -9.7 1.0 -9.35 0.9 5.2 0.75 5.4 0.7 6.6 0.6 9.75 0.6 9.95 0.65 10.05 0.7 10.2 0.85 10.25 0.95" fill="#216400" fill-opacity="0.5254902" fill-rule="evenodd" stroke="none"/>
  </g>
</svg>
