<?xml version="1.0" encoding="UTF-8" standalone="no"?>
<svg xmlns:ffdec="https://www.free-decompiler.com/flash" xmlns:xlink="http://www.w3.org/1999/xlink" ffdec:objectType="shape" height="8.05px" width="21.15px" xmlns="http://www.w3.org/2000/svg">
  <g transform="matrix(1.0, 0.0, 0.0, 1.0, 10.55, 8.35)">
    <path d="M5.7 -7.45 L5.8 -7.4 5.85 -7.4 6.45 -7.5 6.65 -7.4 7.05 -7.35 7.25 -7.2 7.3 -7.1 7.3 -7.05 7.4 -7.0 7.8 -6.9 8.0 -6.8 9.85 -6.45 10.25 -6.3 10.3 -6.25 10.3 -6.15 10.15 -6.1 10.05 -6.05 9.95 -5.65 9.95 -5.6 Q10.1 -5.0 9.7 -4.4 L8.9 -4.35 8.75 -4.45 8.4 -4.45 8.15 -4.6 Q7.75 -4.55 7.45 -4.8 L7.35 -4.95 Q6.9 -4.9 6.6 -5.3 L6.55 -5.35 6.3 -5.35 6.0 -5.45 5.95 -5.45 5.6 -5.45 5.55 -5.45 5.5 -5.5 4.35 -5.45 4.3 -5.45 4.3 -5.55 4.2 -5.55 4.1 -5.5 3.95 -5.5 3.85 -5.5 3.65 -5.15 3.4 -4.7 2.65 -4.65 2.6 -4.7 Q2.15 -4.1 1.65 -4.55 L1.5 -4.7 Q1.1 -4.05 0.5 -4.35 L0.3 -4.4 Q-0.1 -3.65 -0.7 -4.2 L-0.8 -4.35 -1.65 -4.3 -1.8 -4.45 Q-2.25 -4.05 -2.75 -4.25 L-2.8 -4.3 -3.45 -4.25 -3.6 -4.3 -3.65 -4.2 -3.75 -4.1 -4.15 -3.95 -4.3 -3.95 Q-4.95 -3.55 -5.2 -4.1 -5.55 -3.8 -5.9 -4.1 L-6.05 -4.3 -6.6 -3.9 -7.15 -4.0 -7.95 -4.05 -8.05 -4.15 -8.35 -4.15 -8.55 -4.25 -8.9 -4.1 Q-9.6 -3.65 -9.9 -4.4 L-9.95 -4.5 -10.05 -4.6 -10.2 -4.75 -10.2 -4.8 -10.2 -5.8 -10.05 -6.15 -10.05 -6.2 -10.05 -6.35 -10.1 -6.35 -10.2 -6.4 -10.25 -6.45 -10.25 -6.5 -10.25 -6.65 -10.2 -6.7 -10.05 -6.75 -8.7 -6.6 -7.65 -6.35 -6.15 -6.05 -3.65 -6.1 -3.3 -6.1 -1.95 -6.2 2.5 -6.7 2.6 -6.75 3.5 -6.85 4.25 -7.5 4.5 -7.6 4.8 -7.75 5.0 -7.85 Q5.4 -7.85 5.55 -7.45 L5.6 -7.45 5.7 -7.45 M-5.3 -5.05 L-5.0 -5.65 -4.85 -5.7 -6.6 -5.8 -6.65 -5.7 -6.5 -5.65 -6.25 -5.6 -6.25 -5.55 -6.2 -5.55 -5.5 -5.35 -5.3 -5.05" fill="#74ff51" fill-rule="evenodd" stroke="none"/>
    <path d="M6.3 -6.6 L6.6 -6.5 6.75 -6.4 6.85 -6.1 6.85 -5.7 7.0 -5.7 7.3 -5.6 Q8.05 -6.25 8.35 -5.3 L8.45 -4.8 8.45 -4.6 8.75 -4.55 8.8 -4.55 9.15 -4.85 9.25 -4.9 9.35 -4.9 Q10.4 -4.65 10.15 -3.5 L9.95 -2.35 10.0 -2.2 10.05 -1.8 Q10.4 -1.05 9.7 -0.95 L9.65 -0.9 9.6 -0.85 9.6 -0.8 9.55 -0.75 9.55 -0.7 9.5 -0.65 9.5 -0.6 9.45 -0.55 9.45 -0.5 9.4 -0.45 9.35 -0.4 9.3 -0.35 9.2 -0.35 9.15 -0.3 9.05 -0.3 8.95 -0.3 8.85 -0.35 8.75 -0.4 8.65 -0.5 8.65 -0.55 8.6 -0.6 8.6 -0.65 8.55 -0.65 8.55 -0.8 8.5 -0.85 8.5 -0.9 8.45 -0.95 8.35 -1.0 8.25 -1.1 8.25 -1.15 8.2 -1.2 8.15 -1.25 8.1 -1.25 8.0 -1.2 7.9 -1.2 7.8 -1.2 7.7 -1.25 7.6 -1.3 7.5 -1.4 7.5 -1.45 7.45 -1.5 7.4 -1.55 7.35 -1.7 7.3 -1.9 7.25 -2.1 7.25 -2.4 7.2 -2.4 7.1 -2.4 7.05 -2.4 6.95 -2.45 6.85 -2.45 6.8 -2.4 6.75 -2.4 6.65 -2.35 6.6 -2.3 6.55 -2.25 6.5 -2.25 6.45 -2.2 6.35 -2.2 6.25 -2.2 6.15 -2.25 6.05 -2.3 6.0 -2.35 5.9 -2.45 5.9 -2.55 5.85 -2.6 5.85 -2.65 5.8 -2.7 5.8 -2.65 5.75 -2.65 5.6 -2.55 5.4 -2.5 5.35 -2.5 5.15 -2.55 5.05 -2.55 5.0 -2.5 5.0 -2.45 4.95 -2.4 4.9 -2.35 4.9 -2.25 4.85 -2.2 4.85 -2.15 4.8 -2.1 4.75 -2.05 4.65 -2.0 4.6 -1.95 4.4 -1.9 4.25 -1.95 4.05 -2.0 4.0 -2.05 3.9 -2.15 3.9 -2.25 3.85 -2.3 3.85 -2.35 3.8 -2.25 3.75 -2.2 3.7 -2.15 3.65 -2.1 3.65 -2.05 3.6 -2.0 3.6 -1.95 3.5 -1.85 3.4 -1.8 3.35 -1.75 3.15 -1.7 3.0 -1.75 2.8 -1.8 2.75 -1.8 2.7 -1.75 2.7 -1.7 2.65 -1.65 2.6 -1.6 2.55 -1.55 2.45 -1.55 2.4 -1.5 2.3 -1.5 2.15 -1.5 2.05 -1.55 1.95 -1.6 1.85 -1.7 1.85 -1.75 1.8 -1.8 1.8 -1.85 1.75 -1.9 1.75 -2.15 1.7 -2.1 1.65 -2.05 1.6 -2.0 1.55 -1.95 1.45 -1.95 1.4 -1.9 1.3 -1.9 1.25 -1.9 1.15 -1.9 1.05 -1.9 1.0 -1.85 0.95 -1.75 0.9 -1.7 0.8 -1.6 0.7 -1.55 0.5 -1.5 0.3 -1.5 0.2 -1.55 0.15 -1.45 0.05 -1.35 0.0 -1.25 -0.05 -1.15 -0.1 -1.1 -0.15 -1.05 -0.25 -1.05 -0.3 -1.0 -0.4 -1.0 -0.55 -1.0 -0.65 -1.05 -0.75 -1.1 -0.85 -1.2 -0.85 -1.25 -0.9 -1.3 -0.9 -1.35 -0.95 -1.4 -0.95 -1.45 -1.05 -1.4 -1.1 -1.35 -1.2 -1.25 -1.3 -1.2 -1.6 -1.15 -1.9 -1.25 -2.0 -1.35 -2.0 -1.4 -2.05 -1.45 -2.1 -1.4 -2.25 -1.35 -2.4 -1.25 -2.5 -1.2 -2.55 -1.15 -2.65 -1.15 -2.75 -1.2 -2.85 -1.2 -2.95 -1.25 -3.0 -1.3 -3.05 -1.35 -3.1 -1.25 -3.2 -1.15 -3.3 -1.1 -3.6 -1.05 -3.9 -1.15 -4.0 -1.25 -4.05 -1.2 -4.1 -1.15 -4.15 -1.1 -4.25 -1.1 -4.3 -1.05 -4.4 -1.05 -4.55 -1.05 -4.65 -1.1 -4.75 -1.15 -4.85 -1.25 -5.0 -1.25 -5.2 -1.3 -5.4 -1.35 -5.5 -1.45 -5.5 -1.5 -5.55 -1.55 -5.55 -1.6 -5.65 -1.6 -5.75 -1.55 -5.85 -1.55 -5.9 -1.55 -6.0 -1.55 -6.25 -1.5 -6.35 -1.5 -6.45 -1.5 -6.55 -1.55 -6.65 -1.6 -6.75 -1.7 -6.85 -1.7 -6.95 -1.7 -7.05 -1.75 -7.15 -1.75 -7.25 -1.55 -7.4 -1.4 -7.55 -1.2 -7.7 -1.1 -7.8 -1.05 -7.9 -1.05 -8.05 -1.05 -8.15 -1.1 -8.25 -1.15 -8.35 -1.25 -8.35 -1.3 -8.4 -1.35 -8.4 -1.4 -8.5 -1.4 -8.6 -1.4 -8.7 -1.45 -8.8 -1.45 -8.9 -1.5 -9.0 -1.4 -9.05 -1.25 -9.15 -1.15 -9.4 -1.0 -9.5 -0.95 -9.6 -0.95 -9.7 -0.95 -9.8 -1.0 -9.9 -1.05 -10.0 -1.15 -10.0 -1.2 -10.05 -1.25 -10.05 -1.3 -10.1 -1.35 -10.1 -1.7 -10.05 -1.75 -10.05 -1.8 -10.0 -1.85 -10.0 -2.15 -9.95 -2.2 -9.95 -2.45 -9.95 -2.4 -9.9 -3.8 Q-10.05 -4.35 -9.55 -4.6 L-9.05 -4.55 -8.25 -4.65 -8.2 -4.6 -7.8 -4.6 -7.6 -4.45 -7.6 -4.4 -7.55 -4.35 -7.25 -4.4 -7.0 -4.45 Q-6.85 -4.9 -6.35 -4.85 L-6.05 -4.7 -6.0 -4.6 -6.0 -4.55 -5.95 -4.45 -5.45 -4.45 -5.25 -4.3 -5.2 -4.2 -5.2 -4.15 -5.15 -4.1 -4.3 -4.05 -4.25 -3.95 Q-3.8 -4.55 -3.2 -4.2 L-3.15 -4.1 -2.85 -4.2 -2.5 -4.25 -1.95 -4.3 -1.75 -4.3 -1.3 -4.65 -0.95 -4.65 Q-0.65 -5.3 0.0 -5.15 L0.2 -5.1 0.6 -5.15 0.8 -5.1 Q1.1 -5.45 1.5 -5.3 L1.7 -5.15 1.75 -5.05 1.75 -5.0 1.8 -4.9 2.2 -4.95 2.4 -5.0 Q2.5 -5.8 3.25 -5.9 L3.7 -5.75 3.75 -5.6 3.8 -5.5 3.8 -5.45 4.6 -6.15 4.95 -6.15 Q5.15 -6.55 5.6 -6.45 L5.85 -6.35 5.95 -6.45 6.05 -6.55 6.1 -6.55 6.2 -6.55 6.3 -6.6 M8.1 -3.45 L8.05 -3.5 8.05 -3.45 8.1 -3.45 M7.45 -4.3 L7.5 -4.3 7.4 -4.35 7.45 -4.3" fill="#2fea00" fill-rule="evenodd" stroke="none"/>
    <path d="M10.1 -6.4 Q7.6 -6.9 5.5 -7.85 1.1 -5.85 -5.0 -5.85 L-10.05 -6.25" fill="none" stroke="#000000" stroke-linecap="round" stroke-linejoin="round" stroke-width="1.0"/>
  </g>
</svg>
