<?xml version="1.0" encoding="UTF-8" standalone="no"?>
<svg xmlns:ffdec="https://www.free-decompiler.com/flash" xmlns:xlink="http://www.w3.org/1999/xlink" ffdec:objectType="shape" height="16.7px" width="28.3px" xmlns="http://www.w3.org/2000/svg">
  <g transform="matrix(1.0, 0.0, 0.0, 1.0, 14.4, 21.2)">
    <path d="M7.05 -11.05 L11.75 -11.05 Q13.9 -11.6 13.9 -10.4 13.9 -9.65 10.75 -8.65 L7.45 -7.8 7.2 -7.65 4.75 -7.05 4.45 -6.95 3.9 -6.85 3.35 -6.35 3.25 -6.35 2.6 -5.8 0.6 -5.2 -0.45 -4.95 Q-1.5 -4.9 -2.35 -4.5 L-7.95 -6.1 -9.55 -6.7 Q-11.9 -7.7 -14.4 -8.3 -14.35 -8.8 -13.9 -8.9 L-13.15 -8.9 -12.9 -9.0 -10.45 -9.45 -9.65 -9.75 -8.9 -9.7 -7.65 -8.95 -4.65 -7.95 Q-1.75 -7.05 -1.75 -6.35 L-0.6 -6.7 0.75 -7.3 2.75 -7.7 2.6 -8.3 Q2.6 -8.85 3.2 -9.1 L5.05 -9.65 5.0 -10.1 Q5.0 -10.8 5.95 -11.0 L7.05 -11.05" fill="#000000" fill-opacity="0.34117648" fill-rule="evenodd" stroke="none"/>
    <path d="M-0.2 -12.35 L-0.15 -12.5 -0.2 -12.6 Q-0.2 -13.45 2.7 -17.2 3.4 -18.2 3.65 -19.5 3.85 -20.65 4.45 -20.7 L4.8 -20.6 5.0 -19.9 4.7 -18.3 4.45 -17.6 4.4 -17.45 4.35 -17.15 4.3 -16.95 3.55 -14.25 3.5 -13.45 3.5 -12.6 3.45 -12.45 3.35 -11.45 3.5 -10.55 3.5 -10.25 3.5 -10.05 3.3 -9.25 2.85 -8.95 2.5 -8.9 2.45 -8.9 1.9 -9.3 1.85 -9.3 Q1.4 -9.3 1.05 -9.95 L0.75 -10.8 0.15 -11.6 0.05 -11.75 0.05 -11.8 -0.2 -12.3 -0.2 -12.35" fill="#999999" fill-rule="evenodd" stroke="none"/>
    <path d="M4.8 -20.6 L4.45 -20.7 Q3.85 -20.65 3.65 -19.5 3.4 -18.2 2.7 -17.2 -0.2 -13.45 -0.2 -12.6 L-0.15 -12.5 -0.2 -12.35 -0.95 -13.5 -2.2 -15.25 -2.7 -16.35 -1.65 -14.7 -1.4 -14.4 -1.3 -14.45 -1.0 -14.4 1.2 -17.3 2.0 -18.3 2.7 -19.3 Q3.2 -20.25 3.7 -20.4 L3.7 -20.5 Q3.75 -21.0 4.15 -21.15 4.7 -21.3 4.8 -20.6 M0.05 -11.75 L0.15 -11.6 0.75 -10.8 1.05 -9.95 Q1.4 -9.3 1.85 -9.3 L1.9 -9.3 2.45 -8.9 2.55 -8.75 1.9 -8.35 1.9 -8.3 1.85 -8.35 1.3 -8.55 Q0.75 -9.05 -0.9 -9.35 L-4.45 -10.25 -7.85 -11.1 -9.35 -11.55 -9.25 -11.55 -9.2 -11.55 -9.1 -11.65 -5.05 -11.65 -4.85 -11.4 -4.4 -10.95 -3.75 -11.3 -3.7 -11.35 -3.25 -10.95 Q-2.9 -10.95 -2.8 -11.15 -2.5 -11.25 -2.45 -11.55 -1.95 -10.95 -0.5 -10.95 0.1 -10.95 0.1 -11.6 L0.05 -11.75 M3.5 -10.25 L3.5 -10.55 3.7 -10.55 3.8 -10.55 3.5 -10.25 M3.45 -12.45 L3.5 -12.6 4.45 -12.8 5.95 -12.95 4.7 -12.65 3.45 -12.45 M3.5 -13.45 L3.55 -14.25 4.3 -16.95 3.85 -15.25 3.5 -13.45 M8.35 -12.4 L8.4 -12.6 Q8.4 -13.1 7.95 -13.15 L7.3 -12.85 7.2 -12.95 Q8.5 -13.7 8.5 -12.7 L8.35 -12.4 M4.9 -11.6 L4.25 -11.0 4.45 -11.5 4.9 -11.6 M6.35 -11.0 L6.8 -11.3 6.55 -11.0 6.4 -11.0 6.35 -11.0 M-0.35 -6.55 L0.1 -6.75 1.05 -7.35 1.05 -7.3 0.3 -6.75 -0.35 -6.55 M-4.5 -18.8 Q-4.55 -19.2 -5.05 -19.3 L-5.6 -19.3 Q-5.5 -19.9 -4.95 -19.55 L-4.45 -19.05 Q-4.0 -18.85 -3.85 -18.35 L-3.65 -18.05 -3.8 -18.05 -4.5 -18.8 M-5.0 -13.75 L-4.95 -13.6 -4.95 -13.25 -5.0 -13.15 -5.0 -13.75 M-9.35 -10.4 L-8.55 -9.95 -8.4 -9.85 Q-9.05 -10.15 -9.35 -10.4" fill="#ffffff" fill-rule="evenodd" stroke="none"/>
    <path d="M-2.7 -16.35 L-2.2 -15.25 -0.95 -13.5 -0.2 -12.35 -0.2 -12.3 0.05 -11.8 0.05 -11.75 0.1 -11.6 Q0.1 -10.95 -0.5 -10.95 -1.95 -10.95 -2.45 -11.55 L-2.4 -11.85 Q-2.4 -12.55 -3.5 -15.9 L-3.8 -17.9 -3.8 -18.05 -3.65 -18.05 -3.6 -18.05 -3.2 -17.55 -3.05 -17.15 -2.7 -16.35 M2.45 -8.9 L2.5 -8.9 2.85 -8.95 2.55 -8.75 2.45 -8.9 M3.3 -9.25 L3.5 -10.05 3.5 -10.25 3.8 -10.55 4.2 -10.95 4.25 -11.0 4.9 -11.6 6.5 -11.9 Q7.3 -12.1 7.3 -12.6 L7.3 -12.85 7.95 -13.15 Q8.4 -13.1 8.4 -12.6 L8.35 -12.4 Q8.15 -12.0 7.3 -11.55 L6.8 -11.3 6.35 -11.0 6.2 -11.05 6.05 -11.0 5.95 -11.0 3.3 -9.25" fill="#cccccc" fill-rule="evenodd" stroke="none"/>
    <path d="M-9.35 -11.55 L-7.85 -11.1 -4.45 -10.25 -0.9 -9.35 Q0.75 -9.05 1.3 -8.55 L1.85 -8.35 1.9 -8.3 1.05 -7.35 0.1 -6.75 -0.35 -6.55 Q-1.1 -6.15 -1.65 -6.05 L-2.45 -6.5 -3.5 -7.1 -3.65 -7.15 -3.75 -7.2 -5.3 -7.95 -6.35 -8.55 -6.6 -8.7 -6.85 -8.85 -7.65 -9.25 -8.15 -9.6 -8.25 -9.65 -8.4 -9.85 -8.55 -9.95 -9.35 -10.4 -9.65 -10.5 Q-10.2 -10.65 -10.2 -11.05 -10.2 -11.7 -9.5 -11.65 L-9.35 -11.55 M-5.6 -19.3 L-5.05 -19.3 Q-4.55 -19.2 -4.5 -18.8 L-4.6 -18.9 Q-5.45 -19.4 -5.45 -18.5 L-4.95 -16.75 -4.95 -13.6 -5.0 -13.75 -5.05 -13.75 Q-5.65 -15.4 -5.65 -16.7 L-5.6 -17.35 -5.75 -18.8 -5.6 -19.3 M-2.8 -11.15 Q-2.9 -10.95 -3.25 -10.95 L-3.7 -11.35 -3.75 -11.3 -4.4 -10.95 -4.85 -11.4 -4.45 -11.3 Q-4.3 -11.3 -4.15 -11.45 L-3.95 -11.65 Q-3.2 -11.15 -2.95 -11.15 L-2.8 -11.15" fill="#666666" fill-rule="evenodd" stroke="none"/>
    <path d="M-4.95 -13.6 L-4.95 -16.75 -5.45 -18.5 Q-5.45 -19.4 -4.6 -18.9 L-4.5 -18.8 -3.8 -18.05 -3.8 -17.9 -3.5 -15.9 Q-2.4 -12.55 -2.4 -11.85 L-2.45 -11.55 Q-2.5 -11.25 -2.8 -11.15 L-2.95 -11.15 Q-3.2 -11.15 -3.95 -11.65 L-4.15 -11.45 Q-4.3 -11.3 -4.45 -11.3 L-4.85 -11.4 -5.05 -11.65 -5.0 -13.15 -4.95 -13.25 -4.95 -13.6" fill="#333333" fill-rule="evenodd" stroke="none"/>
  </g>
</svg>
