<?xml version="1.0" encoding="UTF-8" standalone="no"?>
<svg xmlns:ffdec="https://www.free-decompiler.com/flash" xmlns:xlink="http://www.w3.org/1999/xlink" ffdec:objectType="shape" height="14.85px" width="25.55px" xmlns="http://www.w3.org/2000/svg">
  <g transform="matrix(1.0, 0.0, 0.0, 1.0, 12.8, 7.45)">
    <path d="M5.45 -6.4 L6.05 -7.05 Q6.8 -7.75 6.95 -7.25 L6.95 -4.5 6.75 1.1 6.8 1.55 7.6 1.4 11.4 1.4 12.15 1.45 Q12.4 1.3 12.7 1.6 L12.75 1.85 Q12.75 2.25 10.0 3.0 L6.9 3.7 4.4 4.4 1.0 4.9 -2.25 5.55 -5.1 5.85 -6.15 6.35 Q-5.3 6.8 -5.3 7.1 -5.3 7.4 -5.6 7.4 -5.85 7.4 -6.7 6.8 L-7.65 6.2 -9.35 5.0 -11.2 3.85 -12.1 3.4 -12.8 2.7 Q-12.85 2.35 -12.5 2.4 L-5.25 2.35 Q-4.9 1.45 -4.8 0.2 L-4.8 -1.95 -4.75 -2.8 Q-4.7 -3.6 -4.8 -4.0 L-5.05 -5.9 Q-5.05 -6.75 -4.75 -6.75 L-3.55 -5.45 -1.8 -3.3 1.15 0.1 4.35 -5.1 5.45 -6.4" fill="#00cc00" fill-rule="evenodd" stroke="none"/>
  </g>
</svg>
