<?xml version="1.0" encoding="UTF-8" standalone="no"?>
<svg xmlns:ffdec="https://www.free-decompiler.com/flash" xmlns:xlink="http://www.w3.org/1999/xlink" ffdec:objectType="shape" height="19.0px" width="25.25px" xmlns="http://www.w3.org/2000/svg">
  <g transform="matrix(1.0, 0.0, 0.0, 1.0, 13.4, 22.55)">
    <path d="M3.1 -10.4 L2.85 -8.95 M2.2 -8.55 L1.35 -9.85 0.45 -9.45 M10.8 -14.2 L10.5 -13.9 Q6.7 -12.3 4.4 -9.95 M3.5 -12.55 L10.5 -13.9 M7.0 -12.8 L1.35 -9.85 -1.4 -14.1 -5.35 -20.7 -2.45 -11.4 M-5.65 -21.25 L-5.0 -11.85 M-5.65 -21.25 L-5.35 -20.7 M-12.55 -12.05 L-11.8 -12.0 -10.8 -11.95 -0.5 -10.9 M-4.15 -7.35 L-11.8 -12.0 M0.4 -6.8 L-1.6 -6.05 M-10.8 -11.95 L1.65 -8.15 M-1.4 -14.1 L4.9 -21.85 -0.05 -13.15" fill="none" stroke="#cccccc" stroke-linecap="round" stroke-linejoin="round" stroke-width="1.0"/>
    <path d="M4.3 -9.9 L2.1 -8.5 1.7 -8.45 1.95 -8.35 1.9 -8.35 Q1.2 -7.9 1.05 -7.3 L0.1 -6.65 -1.4 -6.3 -1.35 -5.95 -1.35 -5.9 -1.4 -5.95 -1.55 -6.0 -2.45 -6.5 -3.5 -7.1 -3.65 -7.15 -3.75 -7.2 -4.3 -7.45 -4.2 -7.5 -4.4 -7.5 Q-5.1 -7.55 -5.2 -7.95 L-5.25 -8.1 Q-5.25 -8.9 -3.8 -9.35 L-1.85 -9.75 -1.05 -10.2 -0.7 -10.35 0.05 -11.4 1.95 -11.7 Q2.8 -11.7 2.95 -11.3 L2.95 -11.8 Q2.9 -12.25 4.3 -9.9 M2.65 -10.55 L2.9 -10.95 2.9 -11.0 2.65 -10.55" fill="#000000" fill-opacity="0.5058824" fill-rule="evenodd" stroke="none"/>
    <path d="M11.85 -14.2 Q11.85 -13.55 9.2 -12.4 L6.55 -10.7 4.05 -8.95 2.5 -7.6 3.1 -6.45 3.95 -5.0 Q3.95 -4.55 3.55 -4.55 L1.95 -5.7 1.15 -6.3 0.85 -6.4 0.45 -6.15 0.05 -5.7 -0.65 -5.1 -1.3 -4.25 Q-1.55 -3.55 -1.85 -3.55 -2.25 -3.55 -2.25 -4.0 L-2.05 -5.1 -2.15 -5.4 -2.15 -5.45 -2.5 -5.65 -5.2 -5.65 -5.65 -5.6 Q-6.7 -5.6 -6.7 -6.1 -6.7 -6.5 -5.3 -7.2 L-8.0 -8.65 -10.95 -10.45 Q-13.15 -11.75 -13.15 -12.0 L-13.15 -12.1 -13.4 -12.45 Q-13.4 -12.85 -12.45 -12.85 L-7.05 -12.5 -6.3 -12.5 -6.35 -13.35 -6.5 -20.15 -6.6 -21.1 Q-6.55 -21.9 -6.0 -21.9 L-5.8 -21.85 -5.6 -22.05 Q-5.35 -22.2 -5.1 -21.9 L-4.5 -21.1 -3.4 -19.6 Q-2.05 -18.05 -1.2 -16.55 L-1.05 -16.3 0.15 -17.6 2.15 -19.55 3.7 -21.3 4.5 -22.2 5.1 -22.55 5.4 -22.15 5.4 -22.1 5.65 -21.7 5.65 -21.6 5.7 -21.3 5.25 -20.1 4.9 -18.95 4.6 -16.65 4.4 -14.3 4.3 -13.45 5.2 -13.65 7.55 -14.1 8.95 -14.35 9.75 -14.55 11.15 -14.7 11.6 -14.55 11.85 -14.2 M4.0 -20.35 L2.5 -18.75 0.85 -17.15 -0.65 -15.6 0.5 -13.4 1.3 -15.25 2.6 -17.8 3.95 -20.25 4.0 -20.35 M0.9 -12.6 L1.35 -11.7 2.25 -12.25 2.95 -12.7 3.35 -12.9 3.75 -15.05 3.85 -17.5 4.1 -18.85 3.2 -17.1 1.95 -14.75 Q1.3 -12.9 0.9 -12.6 M10.05 -13.75 L9.8 -13.7 7.8 -13.3 4.1 -12.55 Q3.9 -12.1 3.7 -12.1 L3.6 -12.1 2.8 -11.6 1.75 -10.95 1.95 -10.5 1.95 -10.4 2.05 -10.15 2.55 -8.8 3.6 -9.7 6.2 -11.5 Q7.5 -12.5 9.1 -13.3 L10.05 -13.75 M0.85 -10.75 L0.7 -11.05 -0.65 -11.1 -0.75 -11.1 -5.85 -11.7 -7.2 -11.7 -10.75 -11.85 -10.2 -11.75 -10.1 -11.65 -5.6 -10.1 -2.3 -9.1 -1.75 -9.15 -0.1 -8.9 1.15 -8.5 1.75 -8.45 Q1.55 -8.75 1.5 -9.45 L0.85 -10.65 0.85 -10.75 M0.35 -7.05 L-0.05 -7.4 -1.0 -7.85 -2.4 -8.45 -3.05 -8.6 -4.35 -9.0 -6.9 -9.9 -9.7 -10.85 -10.25 -11.0 -7.55 -9.35 Q-6.55 -8.65 -4.2 -7.55 L-2.6 -6.7 -2.2 -6.45 -1.65 -6.1 -1.6 -6.05 -0.6 -6.6 -0.2 -6.75 0.35 -7.05 M-5.0 -20.35 L-5.3 -20.8 -5.3 -20.5 -4.15 -16.95 Q-2.65 -12.8 -2.65 -12.35 L-2.75 -12.1 -0.7 -11.95 -0.65 -11.95 -0.4 -11.95 0.25 -11.9 -0.2 -12.95 -1.8 -15.9 Q-2.45 -17.2 -3.85 -18.85 L-5.0 -20.35 M-5.7 -19.6 L-5.7 -15.2 Q-5.45 -14.1 -5.45 -12.45 L-3.3 -12.1 -3.1 -12.1 Q-3.65 -12.55 -4.75 -16.7 L-5.45 -18.8 -5.7 -19.6" fill="#000000" fill-rule="evenodd" stroke="none"/>
  </g>
</svg>
