<?xml version="1.0" encoding="UTF-8" standalone="no"?>
<svg xmlns:ffdec="https://www.free-decompiler.com/flash" xmlns:xlink="http://www.w3.org/1999/xlink" ffdec:objectType="shape" height="5.1px" width="10.35px" xmlns="http://www.w3.org/2000/svg">
  <g transform="matrix(1.0, 0.0, 0.0, 1.0, 5.0, 9.25)">
    <path d="M1.3 -7.7 L2.55 -8.05 3.1 -7.9 3.15 -7.9 3.2 -8.0 3.55 -8.6 Q3.95 -9.15 4.4 -9.15 4.7 -9.15 5.35 -7.45 5.35 -6.5 4.75 -6.4 L3.85 -6.2 4.0 -5.3 4.0 -4.65 Q3.9 -4.15 3.5 -4.15 3.0 -4.15 2.55 -4.6 L2.2 -4.95 1.95 -4.65 Q1.75 -4.4 1.55 -4.4 L0.85 -4.6 0.3 -4.3 -1.85 -4.7 -2.8 -5.05 -3.05 -4.75 Q-3.35 -4.4 -3.65 -4.4 -4.75 -4.4 -5.0 -5.45 L-4.3 -6.8 -4.5 -7.2 -4.75 -8.45 -4.4 -9.05 Q-2.9 -9.55 -2.9 -8.65 L-3.0 -8.35 -3.1 -8.25 -2.95 -8.25 Q-2.55 -8.2 -2.5 -7.55 L-1.6 -7.4 -1.25 -6.7 -1.25 -6.65 -0.65 -6.55 -0.6 -6.6 Q0.15 -6.9 0.35 -7.15 L1.3 -7.7" fill="#000000" fill-opacity="0.41568628" fill-rule="evenodd" stroke="none"/>
  </g>
</svg>
