<?xml version="1.0" encoding="UTF-8" standalone="no"?>
<svg xmlns:ffdec="https://www.free-decompiler.com/flash" xmlns:xlink="http://www.w3.org/1999/xlink" ffdec:objectType="shape" height="18.35px" width="13.05px" xmlns="http://www.w3.org/2000/svg">
  <g transform="matrix(1.0, 0.0, 0.0, 1.0, 6.5, 9.2)">
    <path d="M3.25 -9.2 Q3.75 -9.2 3.95 -8.25 L4.4 -6.45 5.0 -4.55 5.2 -4.6 Q5.5 -4.6 5.55 -4.05 L5.3 -3.05 4.8 -2.15 4.1 -0.3 3.75 0.7 3.9 0.5 5.15 -0.8 5.3 -0.95 Q5.35 -1.3 5.75 -1.4 L6.1 -1.35 6.3 -0.9 6.25 -0.7 6.3 0.0 6.3 3.1 6.4 3.45 6.55 3.85 5.7 5.35 4.8 6.55 3.95 7.9 3.65 8.6 Q3.4 9.15 2.75 9.15 L1.0 8.9 -0.15 8.65 -1.75 8.2 -2.15 8.1 -2.75 8.1 Q-4.15 9.15 -4.6 9.15 -5.15 9.15 -5.2 8.7 L-5.2 8.1 -5.4 7.6 -5.4 7.3 -5.65 5.8 -5.7 4.2 -5.9 2.6 -6.5 -0.5 -6.5 -0.6 -6.5 -0.7 -5.2 -3.0 -4.5 -4.1 Q-4.25 -5.15 -3.65 -5.15 -3.2 -5.15 -3.2 -4.5 L-2.9 -3.75 -2.25 -2.35 -1.65 -1.4 -1.65 -3.55 -1.5 -4.55 Q-1.65 -5.1 -1.3 -5.25 L0.6 -7.15 1.9 -8.2 2.4 -8.75 3.2 -9.2 3.25 -9.2" fill="#00cc00" fill-rule="evenodd" stroke="none"/>
  </g>
</svg>
