<?xml version="1.0" encoding="UTF-8" standalone="no"?>
<svg xmlns:ffdec="https://www.free-decompiler.com/flash" xmlns:xlink="http://www.w3.org/1999/xlink" ffdec:objectType="shape" height="399.1px" width="259.1px" xmlns="http://www.w3.org/2000/svg">
  <g transform="matrix(1.0, 0.0, 0.0, 1.0, -135.6, 142.45)">
    <path d="M155.5 -48.4 Q157.1 -49.55 159.2 -50.0 173.7 -40.1 189.9 -33.55 204.3 -27.75 219.7 -27.95 L222.5 -28.35 219.7 -48.5 212.05 -56.7 213.7 -59.0 211.7 -62.0 215.2 -68.0 Q232.3 -40.7 256.6 -20.45 270.2 -9.1 286.9 -2.7 312.35 7.1 338.7 12.95 324.6 24.85 305.45 30.15 277.25 38.0 248.65 32.4 219.6 26.7 199.35 5.2 L173.3 -22.1 Q172.2 -23.25 170.7 -24.0 L155.1 -47.15 Q155.05 -48.1 155.5 -48.4 M309.9 -139.5 Q335.25 -143.95 360.75 -141.7 372.35 -140.8 379.8 -132.3 L377.75 -128.0 Q366.75 -125.65 356.1 -122.35 349.0 -120.15 344.75 -114.0 L346.4 -109.1 Q324.4 -110.65 302.65 -119.45 299.55 -120.8 296.0 -120.45 292.5 -119.95 289.0 -118.55 L285.95 -122.0 Q293.05 -136.65 309.9 -139.5 M349.05 79.25 Q359.1 66.05 365.75 51.05 L374.3 49.65 368.75 96.05 394.7 98.3 390.75 109.55 390.5 114.8 388.75 117.05 388.5 120.8 Q376.55 148.0 357.15 171.4 352.85 176.5 348.65 181.75 332.5 202.0 310.45 216.45 295.3 226.45 279.35 235.15 250.2 251.0 216.9 255.35 197.7 257.95 178.2 255.3 L165.75 253.45 191.7 250.8 190.7 246.3 Q201.25 246.6 211.2 241.85 237.9 229.15 254.25 204.45 261.1 194.2 265.45 182.8 L265.7 176.05 267.7 173.05 267.05 144.7 265.7 143.05 Q265.3 134.95 261.9 127.3 258.8 120.15 251.95 116.5 251.35 116.2 251.6 116.8 253.35 124.25 245.55 130.45 222.8 148.75 193.65 141.3 182.25 138.3 172.75 131.6 156.5 120.2 141.9 106.5 L139.7 100.55 139.0 88.65 Q132.95 77.3 137.6 64.55 141.5 53.8 146.15 43.4 147.65 40.15 150.95 38.1 175.1 23.25 203.45 28.95 222.2 32.65 232.2 47.75 L230.8 53.0 236.7 71.55 240.2 74.55 Q249.95 92.6 270.2 100.6 307.75 115.5 338.95 89.75 344.5 85.2 349.05 79.25" fill="#ff4900" fill-opacity="0.3019608" fill-rule="evenodd" stroke="none"/>
  </g>
</svg>
