<?xml version="1.0" encoding="UTF-8" standalone="no"?>
<svg xmlns:ffdec="https://www.free-decompiler.com/flash" xmlns:xlink="http://www.w3.org/1999/xlink" ffdec:objectType="shape" height="20.1px" width="19.75px" xmlns="http://www.w3.org/2000/svg">
  <g transform="matrix(1.0, 0.0, 0.0, 1.0, 13.55, 19.65)">
    <path d="M1.4 -15.2 L2.8 -12.4 2.8 -12.35 2.75 -11.4 2.75 -11.35 2.95 -10.65 3.6 -10.15 Q3.9 -9.9 4.2 -10.0 4.35 -8.85 4.85 -7.45 5.55 -5.6 6.2 -4.75 L5.7 -4.05 4.7 -2.4 Q4.3 -1.55 4.4 -0.85 L2.8 -0.7 1.9 -0.5 -2.45 0.45 Q-2.65 -0.3 -3.2 -1.25 L-3.7 -2.0 Q-4.55 -3.45 -5.45 -4.3 L-5.8 -4.6 -6.3 -4.65 -7.75 -4.95 -8.15 -4.95 -8.65 -5.0 -9.85 -4.8 -10.25 -5.65 -11.85 -7.9 -13.55 -10.75 -13.35 -11.0 -13.1 -11.7 -9.0 -18.65 -9.1 -19.65 -7.35 -19.25 -4.15 -18.75 -1.05 -18.05 -0.45 -17.9 -0.25 -17.65 1.4 -15.2 M2.1 -11.5 L2.4 -11.9 Q1.25 -13.1 -0.4 -15.7 L-1.25 -17.35 -1.4 -17.6 -3.15 -17.8 -4.55 -18.0 -7.85 -18.4 -8.25 -18.5 Q-8.3 -17.95 -8.8 -17.0 L-10.3 -14.85 -11.55 -12.7 -12.25 -11.6 Q-11.45 -10.75 -10.85 -8.95 L-10.4 -8.4 -9.25 -7.0 -8.9 -6.4 -8.7 -6.2 -7.7 -6.3 -7.5 -6.3 Q-6.05 -6.45 -5.0 -5.85 -4.2 -6.0 -3.3 -4.55 -2.55 -3.35 -1.65 -0.95 L-1.65 -0.9 -0.05 -1.25 2.55 -1.55 3.45 -2.75 5.05 -5.2 5.3 -5.6 Q4.85 -6.55 4.45 -7.85 L4.0 -8.95 3.85 -8.8 2.25 -8.7 1.95 -8.85 Q0.85 -9.8 2.1 -11.5" fill="#000000" fill-rule="evenodd" stroke="none"/>
    <path d="M2.95 -10.65 L3.35 -11.35 2.75 -11.4 M3.35 -11.35 L3.5 -11.55 2.8 -12.4 M-1.25 -17.35 L-3.15 -17.8 M-7.85 -18.4 L-4.4 -12.65 2.1 -11.5 M1.95 -8.85 L1.55 -8.1 -0.8 -8.55 M3.85 -8.8 L4.45 -7.85 M-3.3 -4.55 L-1.2 -8.35 1.2 -5.2 1.35 -5.0 5.05 -5.2 M2.8 -0.7 L2.75 -0.55 1.9 -0.5 M-5.45 -4.3 L-5.8 -4.35 -3.7 -2.0 M-8.65 -5.0 L-8.35 -4.5 -8.4 -4.7 -8.3 -4.65 -8.15 -4.95 M-8.35 -4.5 L-8.3 -4.65 -5.8 -4.35 M-7.5 -6.3 L-4.4 -12.65 M-1.65 -0.95 L1.2 -5.2" fill="none" stroke="#000000" stroke-linecap="round" stroke-linejoin="round" stroke-width="1.0"/>
  </g>
</svg>
