<?xml version="1.0" encoding="UTF-8" standalone="no"?>
<svg xmlns:ffdec="https://www.free-decompiler.com/flash" xmlns:xlink="http://www.w3.org/1999/xlink" ffdec:objectType="shape" height="15.45px" width="23.1px" xmlns="http://www.w3.org/2000/svg">
  <g transform="matrix(1.0, 0.0, 0.0, 1.0, 15.4, 19.5)">
    <path d="M-14.6 -12.75 L-10.05 -5.1 -10.0 -5.0 -2.25 -5.3 -2.35 -5.35 -7.0 -12.95 -14.5 -13.15 -9.0 -18.3 -1.8 -19.0 -1.65 -18.8 -0.75 -17.0 0.05 -17.9 4.8 -17.55 7.1 -12.4 4.6 -8.35 4.7 -8.2 -0.7 -7.3 -2.35 -5.35 M4.6 -8.35 L2.35 -13.65 -1.6 -13.3 0.7 -9.0 -0.7 -7.3 M2.35 -13.65 L2.6 -13.7 4.8 -17.55 M-1.65 -18.8 L-7.0 -12.95 M-1.5 -13.75 L0.1 -15.55 -0.75 -17.0" fill="none" stroke="#000000" stroke-linecap="round" stroke-linejoin="round" stroke-width="1.0"/>
    <path d="M2.45 -17.95 L5.4 -17.55 5.75 -16.8 6.6 -15.1 Q7.1 -14.25 7.7 -14.0 6.55 -12.05 5.15 -7.5 L3.3 -7.8 -0.95 -7.45 -1.25 -7.05 -2.3 -6.0 -3.25 -4.15 -4.25 -4.25 -6.9 -4.1 -10.3 -4.25 -10.35 -4.5 -10.85 -5.1 -14.5 -12.3 -15.4 -12.75 -14.1 -14.0 -11.95 -16.45 -9.7 -18.65 -9.25 -19.15 -8.95 -19.15 -5.95 -19.2 -2.85 -18.9 -2.0 -18.25 -0.55 -18.3 Q-0.2 -18.45 -0.1 -18.75 L2.45 -17.95 M4.2 -17.3 L0.7 -18.05 Q1.0 -17.0 -0.05 -16.45 -1.8 -15.55 -2.65 -18.3 L-7.4 -18.0 -9.5 -18.15 -11.55 -15.7 Q-13.1 -13.65 -13.95 -12.9 -13.5 -12.5 -13.0 -11.6 L-11.95 -9.1 -10.85 -6.95 -10.3 -5.75 -7.35 -5.5 -6.6 -5.6 -4.8 -5.75 -4.1 -5.8 -3.85 -5.8 -3.4 -6.8 Q-2.7 -8.15 -1.55 -8.8 -0.9 -10.15 4.45 -8.9 L4.95 -10.5 6.15 -12.85 Q5.8 -13.4 5.55 -14.2 L4.2 -17.3" fill="#000000" fill-rule="evenodd" stroke="none"/>
  </g>
</svg>
