<?xml version="1.0" encoding="UTF-8" standalone="no"?>
<svg xmlns:ffdec="https://www.free-decompiler.com/flash" xmlns:xlink="http://www.w3.org/1999/xlink" ffdec:objectType="shape" height="20.85px" width="36.95px" xmlns="http://www.w3.org/2000/svg">
  <g transform="matrix(1.0, 0.0, 0.0, 1.0, 17.5, 22.55)">
    <path d="M13.75 -14.85 L15.55 -19.25 14.8 -14.7 19.4 -9.25 13.5 -13.85 13.75 -14.85 M4.8 -14.1 L1.85 -9.3 0.4 -9.25 0.25 -9.5 0.4 -9.55 0.5 -9.7 0.35 -9.9 1.3 -10.85 Q1.8 -11.15 2.9 -12.6 L4.05 -14.25 4.5 -14.7 4.8 -14.1 M3.7 -3.15 L3.65 -3.1 3.7 -3.15 M2.9 -1.95 L2.75 -1.75 2.55 -2.05 2.9 -1.95 M0.0 -6.2 L-1.2 -8.15 -0.4 -9.2 -0.35 -9.2 -0.2 -9.35 -0.15 -9.25 -0.3 -9.2 -0.7 -8.5 -0.75 -7.75 -0.35 -7.25 -0.05 -6.8 0.0 -6.2 M-7.05 -11.55 L-1.8 -10.4 -1.25 -10.9 -0.85 -10.1 -7.85 -10.2 -8.1 -10.95 -7.85 -11.25 -7.6 -11.55 -7.2 -11.1 -7.0 -11.25 -6.95 -11.4 -7.05 -11.55 M-0.35 -9.2 L-0.3 -9.2 -0.35 -9.2" fill="#cccccc" fill-rule="evenodd" stroke="none"/>
    <path d="M13.75 -14.85 L13.5 -13.85 4.8 -14.1 4.5 -14.7 5.2 -15.35 5.7 -15.85 5.75 -15.55 13.75 -14.85 M3.65 -3.1 L3.8 -2.45 Q3.65 -1.95 3.05 -1.9 L2.9 -1.95 2.55 -2.05 1.95 -2.75 0.5 -4.9 0.0 -6.2 -0.05 -6.8 -0.35 -7.25 -0.75 -7.75 -0.7 -8.5 -0.3 -9.2 -0.15 -9.25 0.0 -8.95 0.45 -8.15 1.35 -6.5 2.25 -4.85 2.9 -3.75 3.5 -3.1 3.65 -3.1 M-7.4 -8.3 L-10.15 -5.45 -12.15 -5.6 -9.2 -9.25 -8.55 -9.7 -8.45 -9.7 -7.7 -9.7 -7.4 -8.3 M-10.7 -13.3 Q-11.7 -14.55 -11.55 -15.5 L-11.5 -15.7 -11.45 -16.05 -11.15 -16.4 -10.95 -16.55 -10.05 -15.9 -8.7 -14.75 -8.5 -14.55 -7.45 -13.35 Q-7.2 -12.9 -7.35 -12.4 L-7.4 -12.2 Q-8.55 -14.3 -9.1 -14.7 L-9.3 -15.0 Q-10.45 -15.85 -10.65 -15.55 L-10.85 -15.35 -10.15 -14.6 -10.0 -14.35 -9.45 -13.25 -8.8 -12.1 -8.55 -11.3 Q-8.75 -11.35 -8.95 -11.5 L-9.25 -11.85 -9.4 -11.85 -9.9 -12.3 -10.7 -13.3 M-1.25 -10.9 L3.95 -15.65 4.2 -15.25 3.8 -14.85 2.6 -13.1 1.05 -11.3 -0.25 -10.0 -0.35 -10.0 -0.5 -10.1 -0.85 -10.1 -1.25 -10.9 M12.85 -14.7 L11.95 -14.9 5.15 -14.9 4.9 -14.65 Q4.9 -14.4 5.15 -14.4 L11.85 -14.4 12.6 -14.25 13.15 -14.1 13.45 -14.35 Q13.45 -14.6 12.85 -14.7 M1.3 -7.6 L0.45 -9.15 1.2 -8.4 1.3 -7.6" fill="#ffffff" fill-rule="evenodd" stroke="none"/>
    <path d="M1.85 -9.3 L6.4 -3.15 3.75 -3.3 3.75 -3.4 2.7 -5.0 2.5 -5.3 2.45 -5.45 1.7 -6.9 1.3 -7.6 1.2 -8.4 0.45 -9.15 0.4 -9.25 1.85 -9.3 M-10.15 -5.45 L-9.55 -2.05 -11.55 -4.0 -15.05 -3.3 -14.45 -3.85 -14.15 -4.3 -12.15 -5.6 -10.15 -5.45 M-13.1 -11.8 L-13.1 -11.85 -12.7 -11.85 -10.15 -11.85 -9.4 -11.85 -9.25 -11.85 -8.95 -11.5 -8.1 -10.4 Q-8.1 -10.15 -8.4 -10.15 -9.3 -10.15 -10.45 -10.9 L-11.0 -11.1 -12.75 -11.2 -13.2 -11.65 -13.1 -11.8 M-7.4 -12.2 L-7.05 -11.55 -6.95 -11.4 -7.0 -11.25 -7.2 -11.1 -7.6 -11.55 -7.85 -11.25 -8.1 -10.95 -8.15 -10.95 -8.55 -11.3 -8.8 -12.1 -9.45 -13.25 -10.0 -14.35 -10.15 -14.6 -10.85 -15.35 -10.65 -15.55 Q-10.45 -15.85 -9.3 -15.0 L-9.1 -14.7 Q-8.55 -14.3 -7.4 -12.2 M3.95 -15.65 L4.05 -22.5 5.6 -16.25 Q5.25 -16.4 4.2 -15.25 L3.95 -15.65 M12.85 -14.7 Q13.45 -14.6 13.45 -14.35 L13.15 -14.1 12.6 -14.25 11.85 -14.4 5.15 -14.4 Q4.9 -14.4 4.9 -14.65 L5.15 -14.9 11.95 -14.9 12.85 -14.7 M-9.6 -11.15 L-9.35 -11.15 -9.6 -11.35 -9.6 -11.15" fill="#999999" fill-rule="evenodd" stroke="none"/>
    <path d="M3.75 -3.3 L3.7 -3.15 3.65 -3.1 3.5 -3.1 2.9 -3.75 2.25 -4.85 1.35 -6.5 0.45 -8.15 0.0 -8.95 -0.15 -9.25 -0.2 -9.35 -0.35 -9.2 -0.4 -9.2 -0.6 -9.45 -0.55 -9.55 -0.65 -9.6 -7.7 -9.7 -8.45 -9.7 -8.55 -9.7 -9.2 -9.25 -17.45 -12.9 -13.1 -11.8 -13.2 -11.65 -12.75 -11.2 -11.0 -11.1 -10.45 -10.9 Q-9.3 -10.15 -8.4 -10.15 -8.1 -10.15 -8.1 -10.4 L-8.95 -11.5 Q-8.75 -11.35 -8.55 -11.3 L-8.15 -10.95 -8.1 -10.95 -7.85 -10.2 -0.85 -10.1 -0.5 -10.1 -0.35 -10.0 -0.25 -10.0 1.05 -11.3 2.6 -13.1 3.8 -14.85 4.2 -15.25 Q5.25 -16.4 5.6 -16.25 L5.7 -15.95 5.7 -15.85 5.2 -15.35 4.5 -14.7 4.05 -14.25 2.9 -12.6 Q1.8 -11.15 1.3 -10.85 L0.35 -9.9 0.5 -9.7 0.4 -9.55 0.25 -9.5 0.4 -9.25 0.45 -9.15 1.3 -7.6 1.7 -6.9 2.45 -5.45 2.5 -5.3 2.7 -5.0 3.75 -3.4 3.75 -3.3 M-10.15 -11.85 L-10.7 -13.3 -9.9 -12.3 -9.4 -11.85 -10.15 -11.85 M-11.55 -15.5 L-12.2 -17.2 -11.45 -16.05 -11.5 -15.7 -11.55 -15.5 M-9.6 -11.15 L-9.6 -11.35 -9.35 -11.15 -9.6 -11.15" fill="#000000" fill-rule="evenodd" stroke="none"/>
    <path d="M-1.2 -8.15 L-6.8 -8.9 -7.4 -8.3 -7.7 -9.7 -0.65 -9.6 -0.55 -9.55 -0.6 -9.45 -0.4 -9.2 -1.2 -8.15" fill="#666666" fill-rule="evenodd" stroke="none"/>
    <path d="M13.5 -13.85 L19.4 -9.25 14.8 -14.7 15.55 -19.25 13.75 -14.85 13.5 -13.85 4.8 -14.1 1.85 -9.3 6.4 -3.15 3.75 -3.3 3.7 -3.15 3.65 -3.1 M2.9 -1.95 L2.75 -1.75 2.55 -2.05 M0.0 -6.2 L-1.2 -8.15 -6.8 -8.9 -7.4 -8.3 -10.15 -5.45 -9.55 -2.05 -11.55 -4.0 -15.05 -3.3 M-14.15 -4.3 L-12.15 -5.6 -9.2 -9.25 -17.45 -12.9 -13.1 -11.8 M-10.15 -11.85 L-10.7 -13.3 M-11.55 -15.5 L-12.2 -17.2 -11.45 -16.05 M-7.05 -11.55 L-1.8 -10.4 -1.25 -10.9 3.95 -15.65 4.05 -22.5 5.6 -16.25 M5.7 -15.85 L5.75 -15.55 13.75 -14.85 M4.2 -15.25 L3.95 -15.65 M4.5 -14.7 L4.8 -14.1 M0.4 -9.25 L1.85 -9.3 M2.5 -5.3 L2.7 -5.0 M-10.15 -5.45 L-12.15 -5.6 M-1.25 -10.9 L-0.85 -10.1 M-7.85 -10.2 L-8.1 -10.95 M-0.4 -9.2 L-1.2 -8.15 M-0.3 -9.2 L-0.35 -9.2 M-7.7 -9.7 L-7.4 -8.3 M-9.2 -9.25 L-8.55 -9.7" fill="none" stroke="#000000" stroke-linecap="round" stroke-linejoin="round" stroke-width="0.1"/>
  </g>
</svg>
