<?xml version="1.0" encoding="UTF-8" standalone="no"?>
<svg xmlns:ffdec="https://www.free-decompiler.com/flash" xmlns:xlink="http://www.w3.org/1999/xlink" ffdec:objectType="shape" height="12.95px" width="31.35px" xmlns="http://www.w3.org/2000/svg">
  <g transform="matrix(1.0, 0.0, 0.0, 1.0, 15.65, 6.5)">
    <path d="M3.65 -6.2 L3.8 -6.0 5.45 -2.75 9.5 -2.5 11.25 -2.15 11.7 -2.15 12.25 -3.1 13.05 -3.95 Q13.5 -3.95 13.6 -3.45 L13.7 -2.7 Q13.8 -1.85 14.05 -1.3 L14.75 0.25 14.9 0.5 15.7 1.5 15.25 1.95 14.9 1.8 14.8 1.8 Q14.4 1.8 13.95 1.1 L12.3 -0.25 3.85 -0.3 3.45 -0.4 3.45 -0.45 2.65 0.45 Q1.15 2.2 0.6 3.1 L1.4 4.1 1.6 4.35 0.6 4.9 -1.7 6.1 -1.8 5.95 Q-2.2 5.25 -2.75 5.15 L-4.2 5.1 -6.95 4.5 -8.9 6.1 -9.35 6.45 Q-10.75 5.8 -11.15 5.7 L-12.15 5.4 -11.05 4.45 -11.1 4.25 -13.35 2.95 -14.9 2.3 Q-15.65 1.95 -15.65 1.6 -15.65 1.15 -15.2 1.15 L-11.95 1.1 -11.7 0.8 -12.75 -1.9 -12.9 -2.05 Q-13.45 -2.5 -13.45 -3.0 L-13.2 -3.55 Q-12.9 -3.75 -12.4 -3.25 L-11.4 -2.1 -9.5 0.0 -9.15 0.35 -8.5 1.05 -8.25 1.15 -5.95 1.65 -3.85 2.35 -2.6 2.65 Q-2.4 2.7 -2.3 2.85 L-2.1 2.65 -2.15 2.5 Q-2.15 2.15 -1.25 1.15 L-0.1 -0.1 1.45 -1.5 2.75 -2.45 2.75 -3.1 2.8 -6.15 2.85 -6.2 3.1 -6.5 3.5 -6.35 3.6 -6.35 3.65 -6.2" fill="#00cc00" fill-rule="evenodd" stroke="none"/>
  </g>
</svg>
