<?xml version="1.0" encoding="UTF-8" standalone="no"?>
<svg xmlns:ffdec="https://www.free-decompiler.com/flash" xmlns:xlink="http://www.w3.org/1999/xlink" ffdec:objectType="shape" height="21.8px" width="34.8px" xmlns="http://www.w3.org/2000/svg">
  <g transform="matrix(1.0, 0.0, 0.0, 1.0, 16.0, 22.85)">
    <path d="M15.9 -19.25 L16.0 -18.5 Q15.9 -14.95 15.4 -14.15 L15.65 -13.9 Q15.8 -13.4 16.8 -12.55 L17.95 -11.1 18.8 -9.85 18.45 -9.55 18.0 -9.85 Q15.75 -11.1 15.25 -11.55 L14.05 -12.4 13.05 -13.25 5.6 -13.25 4.75 -13.25 4.35 -12.8 3.45 -11.7 Q2.8 -10.2 2.35 -9.8 L2.65 -9.4 3.25 -8.4 4.45 -6.6 5.7 -4.9 6.1 -4.0 6.55 -3.15 Q6.55 -2.75 6.2 -2.75 L6.0 -2.9 5.85 -2.9 3.85 -3.0 3.85 -2.5 Q3.95 -1.45 3.5 -1.45 L3.45 -1.45 Q3.45 -1.05 2.9 -1.05 2.05 -1.05 0.7 -4.55 L-0.4 -6.45 -1.2 -7.9 -1.35 -7.9 -2.8 -7.9 -4.7 -8.2 -6.05 -8.2 -6.6 -8.2 -8.25 -7.05 -9.25 -6.1 -9.9 -5.55 -9.9 -5.45 -9.9 -5.2 -9.55 -4.05 -9.2 -2.95 -9.0 -1.85 Q-9.0 -1.5 -9.3 -1.5 L-9.45 -1.55 -9.5 -1.55 -10.85 -2.55 -11.45 -3.1 -11.85 -3.35 -12.1 -3.3 -13.35 -3.15 -14.15 -2.85 -15.05 -2.65 -15.45 -2.7 -15.65 -2.65 Q-16.1 -2.65 -16.0 -2.95 L-14.35 -4.5 -12.4 -5.8 -10.95 -8.0 -10.15 -9.25 Q-9.05 -10.6 -9.05 -9.7 L-9.65 -8.6 -10.55 -7.35 -11.25 -6.15 Q-11.85 -5.25 -12.2 -5.25 L-12.25 -5.25 -14.5 -3.45 -14.05 -3.6 -11.7 -4.1 -11.45 -3.95 -11.4 -3.85 -10.75 -3.4 -10.1 -2.9 -9.85 -2.7 -10.05 -3.35 -10.55 -5.25 -10.55 -5.4 -10.8 -5.7 -8.9 -7.45 -7.75 -8.2 -7.25 -8.7 -7.25 -8.8 -7.15 -8.9 -7.0 -8.9 -6.55 -9.05 -6.35 -8.9 -6.35 -8.85 -4.6 -8.8 -3.35 -8.65 -2.6 -8.55 -1.35 -8.5 -1.05 -8.4 -0.95 -8.4 Q-0.65 -8.4 -0.5 -7.9 L0.05 -6.95 1.2 -5.1 1.95 -3.25 2.2 -2.75 2.6 -2.25 Q2.75 -1.85 2.95 -1.8 L3.3 -1.7 3.25 -2.0 3.25 -2.5 3.3 -3.1 3.25 -3.3 3.25 -3.45 3.4 -3.6 3.55 -3.7 3.7 -3.6 5.1 -3.6 5.6 -3.55 5.15 -4.45 3.9 -6.2 2.75 -8.0 2.1 -8.95 1.65 -9.8 1.8 -10.05 Q3.8 -14.1 4.75 -14.1 4.95 -14.1 5.05 -13.9 L12.95 -13.85 13.2 -13.8 13.25 -13.8 16.15 -11.8 16.75 -11.45 16.3 -12.05 15.4 -13.1 Q14.5 -14.15 14.5 -14.4 14.5 -15.0 14.95 -14.6 L15.05 -15.05 15.15 -15.8 15.3 -17.7 14.85 -17.05 14.1 -16.2 13.6 -15.5 13.55 -15.45 6.75 -15.5 Q6.45 -15.45 6.45 -15.8 L6.45 -15.95 6.55 -16.05 6.5 -16.05 Q6.25 -16.05 5.75 -17.35 L5.0 -19.3 4.3 -20.45 4.25 -17.15 4.3 -16.1 4.2 -15.5 4.2 -15.35 3.45 -14.75 Q2.35 -14.15 1.4 -13.1 L-0.05 -11.8 -1.15 -10.9 -1.0 -10.6 Q-1.0 -10.3 -1.3 -10.3 L-4.75 -11.05 -5.95 -11.45 Q-6.6 -11.75 -6.85 -11.95 L-7.95 -13.05 -9.1 -14.5 -10.55 -15.8 -11.35 -16.4 -11.8 -16.75 -11.7 -16.55 -11.05 -15.2 -9.8 -12.6 -9.8 -12.4 -9.8 -12.3 Q-9.8 -11.95 -10.65 -11.95 L-12.7 -11.95 -13.2 -11.75 -12.45 -11.5 -11.45 -11.15 -10.25 -10.6 Q-9.9 -10.35 -9.9 -10.05 -9.9 -9.75 -10.2 -9.75 L-10.7 -10.0 -11.25 -10.35 -12.2 -10.7 -13.15 -10.95 Q-14.0 -11.3 -14.0 -11.55 L-13.9 -11.75 -14.05 -12.0 -13.7 -12.35 -12.8 -12.55 -10.5 -12.6 -10.85 -13.2 -11.55 -14.65 Q-11.75 -15.45 -12.2 -16.0 L-12.55 -16.95 Q-12.3 -17.8 -12.0 -17.25 L-11.65 -17.4 Q-11.3 -17.4 -10.1 -16.35 L-8.5 -14.85 -6.65 -12.5 -6.6 -12.5 -3.7 -11.55 -1.8 -11.15 -1.3 -11.75 -0.45 -12.4 0.95 -13.65 3.1 -15.35 3.7 -15.65 3.6 -16.15 3.65 -17.2 3.65 -19.0 3.65 -20.85 3.55 -21.95 3.65 -22.55 3.7 -22.7 4.0 -22.85 4.55 -22.15 4.75 -21.2 5.15 -20.4 5.65 -19.6 Q6.85 -16.95 6.85 -16.4 L6.75 -16.1 12.85 -16.1 13.2 -16.05 13.6 -16.65 14.45 -17.65 14.95 -18.55 15.45 -19.05 Q15.5 -19.5 15.9 -19.25" fill="#000000" fill-rule="evenodd" stroke="none"/>
  </g>
</svg>
