<?xml version="1.0" encoding="UTF-8" standalone="no"?>
<svg xmlns:ffdec="https://www.free-decompiler.com/flash" xmlns:xlink="http://www.w3.org/1999/xlink" ffdec:objectType="shape" height="24.3px" width="26.8px" xmlns="http://www.w3.org/2000/svg">
  <g transform="matrix(1.0, 0.0, 0.0, 1.0, 12.95, 25.85)">
    <path d="M5.9 -7.05 L5.75 -7.5 Q5.75 -7.95 6.25 -8.5 6.75 -9.1 7.15 -8.4 L7.35 -6.8 7.0 -5.95 Q6.9 -3.5 4.9 -2.9 L1.7 -2.8 0.8 -2.3 0.3 -2.05 -0.3 -1.9 -0.8 -1.9 -1.2 -1.9 Q-2.8 -1.9 -3.5 -2.3 L-4.6 -2.95 Q-5.8 -2.65 -7.35 -3.85 L-9.1 -5.55 Q-9.55 -6.1 -9.55 -6.8 L-9.5 -7.15 -9.4 -7.95 -9.65 -8.15 -9.9 -8.5 Q-10.4 -8.85 -10.4 -9.15 -10.4 -9.7 -9.85 -9.75 -9.25 -9.8 -8.4 -9.2 L-8.3 -9.1 -7.85 -9.05 -6.15 -8.75 Q-5.4 -8.7 -5.4 -8.15 -5.4 -7.55 -6.85 -7.3 L-7.9 -6.9 -8.2 -6.75 Q-8.1 -6.0 -7.4 -5.5 L-6.25 -4.85 -5.9 -4.9 Q-5.65 -4.9 -5.3 -4.55 -3.55 -4.5 -2.85 -4.05 L-2.15 -3.4 -0.75 -3.3 -0.6 -3.2 -0.2 -3.3 0.3 -3.65 Q0.9 -4.15 1.2 -4.25 L3.15 -5.05 Q3.7 -5.35 4.65 -6.0 L5.1 -6.45 Q5.4 -6.7 5.8 -6.75 L5.9 -7.05" fill="#000000" fill-opacity="0.41568628" fill-rule="evenodd" stroke="none"/>
    <path d="M-0.85 -7.9 L-1.6 -6.4 Q-3.3 -8.4 -3.65 -7.25 -5.5 -7.8 -5.8 -8.0 L-9.95 -8.9 -10.35 -8.95 -10.85 -10.65 -11.85 -14.0 -12.7 -17.15 -12.85 -17.85 -12.95 -18.5 -11.1 -18.8 -8.05 -19.4 Q-7.55 -19.4 -5.95 -20.0 -5.35 -20.25 -4.95 -20.45 0.15 -14.9 1.35 -14.7 L1.4 -14.7 1.7 -14.6 3.4 -16.85 4.05 -17.75 1.45 -12.5 1.35 -12.55 0.55 -13.35 -1.95 -16.25 -2.9 -17.2 -4.4 -18.7 -5.05 -19.1 -5.75 -18.8 -7.3 -18.4 -7.9 -18.2 Q-9.55 -17.55 -11.35 -17.55 L-11.55 -17.55 -11.75 -17.6 -11.9 -17.85 -11.7 -15.35 -11.1 -12.8 Q-10.75 -11.15 -10.75 -10.45 L-9.55 -10.4 -8.85 -10.3 -8.8 -10.3 Q-6.7 -10.0 -5.9 -9.55 L-2.85 -9.05 -2.25 -8.95 -2.15 -8.95 Q-1.4 -9.1 -1.0 -8.5 L-0.95 -8.25 -0.85 -7.9" fill="#000000" fill-rule="evenodd" stroke="none"/>
    <path d="M-0.85 -7.9 L-0.95 -8.25 -1.0 -8.5 Q-1.4 -9.1 -2.15 -8.95 L-2.25 -8.95 -2.85 -9.05 -8.5 -14.55 -5.75 -18.8 -5.05 -19.1 -4.4 -18.7 -2.9 -17.2 -1.95 -16.25 0.55 -13.35 1.35 -12.55 1.45 -12.5 0.7 -10.95 -0.85 -7.9 M-8.85 -10.3 L-9.55 -10.4 -10.1 -10.6 -11.55 -17.55 -11.35 -17.55 -9.3 -13.2 -8.85 -10.3 M-0.95 -8.25 L0.7 -10.95 -0.95 -8.25" fill="#999999" fill-rule="evenodd" stroke="none"/>
    <path d="M-11.35 -17.55 Q-9.55 -17.55 -7.9 -18.2 L-7.3 -18.4 -5.75 -18.8 -8.5 -14.55 -9.3 -13.2 -11.35 -17.55" fill="#ffffff" fill-rule="evenodd" stroke="none"/>
    <path d="M-2.85 -9.05 L-5.9 -9.55 Q-6.7 -10.0 -8.8 -10.3 L-8.85 -10.3 -9.3 -13.2 -8.5 -14.55 -2.85 -9.05" fill="#cccccc" fill-rule="evenodd" stroke="none"/>
    <path d="M4.0 -4.25 Q4.0 -3.55 3.15 -3.55 2.65 -3.55 2.5 -4.05 L2.0 -4.05 2.5 -3.0 Q2.5 -2.5 2.15 -2.4 L0.95 -2.15 -0.1 -1.75 -0.95 -1.55 Q-1.55 -1.55 -1.75 -2.25 L-3.25 -2.15 Q-4.4 -2.15 -4.1 -3.15 -4.65 -3.15 -5.1 -3.6 L-5.5 -4.2 Q-5.5 -4.75 -4.75 -5.3 L-3.35 -5.4 -3.05 -5.0 -2.8 -4.45 Q-2.65 -4.2 -2.65 -3.6 L-0.8 -3.5 -0.55 -3.25 0.25 -3.35 0.7 -3.55 0.6 -4.3 0.7 -5.05 1.75 -5.35 1.75 -5.4 2.0 -5.4 2.15 -5.4 2.9 -5.3 Q4.0 -5.1 4.0 -4.25" fill="#000000" fill-opacity="0.41568628" fill-rule="evenodd" stroke="none"/>
    <path d="M-8.5 -14.55 L-9.3 -13.2 -8.85 -10.3 M-5.75 -18.8 L-8.5 -14.55 -2.85 -9.05 M-11.55 -17.55 L-10.1 -10.6 -9.55 -10.4 M-9.3 -13.2 L-11.35 -17.55 M0.7 -10.95 L-0.95 -8.25" fill="none" stroke="#000000" stroke-linecap="round" stroke-linejoin="round" stroke-width="1.0"/>
    <path d="M-3.55 -8.5 L-3.75 -8.1 -6.5 -4.3 Q-8.1 -4.3 -9.3 -6.4 -9.3 -6.85 -6.95 -7.9 -4.65 -9.0 -3.75 -9.0 L-3.65 -8.9 -3.55 -8.5 M-7.5 -6.3 L-7.4 -6.25 -7.3 -6.35 -7.5 -6.3" fill="#999999" fill-rule="evenodd" stroke="none"/>
    <path d="M-3.55 -8.5 L-3.3 -8.6 Q-2.8 -8.6 -2.25 -7.3 L-1.05 -5.85 -0.05 -4.35 Q-0.05 -3.95 -1.25 -3.3 L-2.5 -3.3 Q-2.95 -3.6 -3.4 -5.4 L-3.8 -7.6 -3.75 -8.1 -3.55 -8.5" fill="#ffffff" fill-rule="evenodd" stroke="none"/>
    <path d="M0.15 -6.15 L-1.9 -8.1 -1.9 -12.3 -1.9 -14.3 -1.75 -14.3 -1.15 -20.25 4.45 -12.95 0.15 -6.15 M-1.9 -12.3 L-1.75 -14.3 -1.9 -12.3" fill="#999999" fill-rule="evenodd" stroke="none"/>
    <path d="M13.2 -14.45 L3.35 -4.95 0.15 -6.15 4.45 -12.95 13.2 -14.45" fill="#ffffff" fill-rule="evenodd" stroke="none"/>
    <path d="M8.85 -24.55 L13.2 -14.45 4.45 -12.95 8.85 -24.55" fill="#666666" fill-rule="evenodd" stroke="none"/>
    <path d="M-1.15 -20.25 L8.85 -24.55 4.45 -12.95 -1.15 -20.25" fill="#cccccc" fill-rule="evenodd" stroke="none"/>
    <path d="M8.85 -24.55 L13.2 -14.45 3.35 -4.95 0.15 -6.15 -1.9 -8.1 M-1.9 -14.3 L-1.75 -14.3 -1.15 -20.25 8.85 -24.55 4.45 -12.95 13.2 -14.45 M4.45 -12.95 L0.15 -6.15 M-1.75 -14.3 L-1.9 -12.3 M-1.15 -20.25 L4.45 -12.95" fill="none" stroke="#000000" stroke-linecap="round" stroke-linejoin="round" stroke-width="1.0"/>
    <path d="M9.05 -25.85 L9.55 -25.5 10.35 -23.0 Q11.45 -20.25 12.0 -19.45 L13.85 -14.9 13.6 -14.6 Q12.0 -13.55 9.1 -10.65 4.55 -5.95 3.95 -4.1 L3.85 -4.05 3.35 -4.35 Q3.15 -4.15 2.65 -4.15 1.95 -4.15 1.25 -4.55 L1.0 -4.7 0.95 -4.65 1.0 -4.2 Q1.0 -3.8 0.45 -3.2 -0.1 -2.55 -0.55 -2.55 L-1.3 -2.65 -2.45 -2.9 -2.75 -2.8 Q-3.45 -2.8 -4.1 -5.4 -5.0 -4.35 -5.75 -4.0 -5.9 -3.65 -6.4 -3.65 L-6.95 -3.85 -7.25 -4.05 -9.25 -5.95 -9.3 -6.0 Q-9.75 -6.3 -9.75 -6.7 -9.75 -7.2 -8.85 -7.6 -7.55 -8.05 -6.9 -8.4 L-4.7 -9.4 -3.85 -9.45 Q-3.5 -10.1 -1.9 -8.45 L-1.9 -8.9 -0.1 -7.45 0.35 -7.15 3.2 -6.1 Q5.55 -9.45 8.6 -12.2 L9.3 -12.85 12.4 -15.45 8.6 -24.25 -1.35 -20.05 -1.0 -14.35 -1.9 -14.0 -1.9 -19.9 -1.75 -21.4 9.05 -25.85 M1.0 -5.75 L-0.05 -6.3 0.65 -5.4 1.0 -5.75 M-4.45 -7.25 L-4.55 -7.85 -5.45 -7.45 Q-7.15 -6.7 -7.75 -6.5 L-6.55 -5.25 -6.2 -5.55 -4.85 -6.65 -4.45 -7.25 M-2.9 -7.05 L-2.9 -6.8 -2.3 -4.1 -2.0 -4.15 -0.85 -3.9 -0.25 -4.5 -1.0 -5.25 -1.9 -6.5 -2.75 -7.3 -2.9 -7.05" fill="#000000" fill-rule="evenodd" stroke="none"/>
  </g>
</svg>
