<?xml version="1.0" encoding="UTF-8" standalone="no"?>
<svg xmlns:ffdec="https://www.free-decompiler.com/flash" xmlns:xlink="http://www.w3.org/1999/xlink" ffdec:objectType="shape" height="11.85px" width="8.65px" xmlns="http://www.w3.org/2000/svg">
  <g transform="matrix(1.0, 0.0, 0.0, 1.0, 1.9, 16.3)">
    <path d="M-1.65 -8.4 L-1.6 -7.3 -1.9 -6.45 -1.9 -16.3 -1.45 -16.25 -1.3 -15.65 -0.45 -13.75 Q0.15 -12.65 0.7 -12.25 1.15 -12.05 1.9 -10.25 2.45 -8.75 3.25 -9.1 3.8 -9.3 3.35 -10.45 L5.1 -10.3 6.75 -10.3 6.45 -9.9 5.15 -8.4 Q4.95 -8.05 5.05 -7.2 L5.65 -6.3 Q5.95 -5.65 5.4 -5.45 4.95 -5.25 4.15 -5.7 L3.8 -6.05 3.4 -6.5 3.4 -6.3 3.75 -5.45 Q4.0 -4.75 3.4 -4.5 2.75 -4.2 1.95 -5.2 L1.15 -6.5 1.45 -5.75 Q1.6 -5.25 1.15 -5.05 0.05 -4.6 -1.4 -8.05 L-1.4 -8.1 -1.6 -8.65 -1.75 -8.6 -1.65 -8.4" fill="#000000" fill-opacity="0.6117647" fill-rule="evenodd" stroke="none"/>
    <path d="M3.8 -6.05 L3.6 -6.1 3.4 -6.3 3.4 -6.5 3.8 -6.05 M-1.4 -8.1 L-1.55 -8.3 -1.6 -8.45 -1.65 -8.4 -1.75 -8.6 -1.6 -8.65 -1.4 -8.1" fill="#000000" fill-opacity="0.5529412" fill-rule="evenodd" stroke="none"/>
  </g>
</svg>
