<?xml version="1.0" encoding="UTF-8" standalone="no"?>
<svg xmlns:ffdec="https://www.free-decompiler.com/flash" xmlns:xlink="http://www.w3.org/1999/xlink" ffdec:objectType="shape" height="23.0px" width="24.6px" xmlns="http://www.w3.org/2000/svg">
  <g transform="matrix(1.0, 0.0, 0.0, 1.0, 12.3, 11.5)">
    <path d="M1.2 -8.95 L1.95 -9.65 2.85 -10.5 Q3.45 -10.95 3.7 -10.4 L4.3 -8.8 4.9 -7.3 4.7 -6.8 3.75 -5.75 3.6 -5.5 3.0 -5.4 2.3 -5.5 1.6 -5.5 1.0 -4.1 2.25 -2.95 5.3 -2.95 5.6 -2.8 5.8 -2.55 6.35 -1.55 7.0 -0.5 7.85 0.45 9.6 0.5 Q10.05 0.4 10.05 1.3 L9.8 2.75 Q11.25 2.8 11.6 3.1 L11.95 3.85 Q12.3 4.5 12.3 5.25 12.3 6.05 11.8 6.6 11.25 7.85 10.65 7.85 L9.45 7.0 9.25 6.8 9.05 6.85 8.3 7.2 7.3 8.3 Q6.0 10.2 5.15 10.2 L3.5 9.65 2.25 9.1 1.4 10.3 Q0.6 11.5 0.1 11.5 L-1.85 10.45 -3.1 9.9 -3.35 9.35 -3.2 8.85 -2.75 8.15 -4.4 7.6 -5.25 7.1 -5.55 6.3 -5.55 5.15 -5.55 3.65 -4.9 2.95 -4.45 2.25 Q-4.45 1.9 -5.5 1.05 L-6.55 -0.2 -6.1 -1.7 -5.95 -2.2 -6.35 -2.25 -8.4 -2.2 -8.5 -2.15 -10.45 -2.15 Q-10.85 -2.4 -10.85 -2.95 L-10.8 -3.9 -10.85 -4.8 -11.1 -5.65 Q-11.1 -6.2 -10.3 -6.2 L-10.1 -6.45 -10.4 -7.05 -10.9 -7.7 -11.6 -8.35 -11.65 -8.4 -11.8 -8.3 Q-12.3 -8.3 -12.3 -8.8 L-11.85 -9.5 -10.8 -10.25 Q-9.45 -11.5 -8.7 -11.5 -8.25 -11.5 -7.65 -10.55 L-7.0 -9.2 -3.7 -9.2 -3.0 -10.4 Q-2.5 -11.2 -2.05 -11.2 L-1.25 -10.55 -0.45 -9.7 0.5 -9.05 0.9 -8.7 1.2 -8.95" fill="#00cc00" fill-rule="evenodd" stroke="none"/>
  </g>
</svg>
