<?xml version="1.0" encoding="UTF-8" standalone="no"?>
<svg xmlns:ffdec="https://www.free-decompiler.com/flash" xmlns:xlink="http://www.w3.org/1999/xlink" ffdec:objectType="shape" height="25.75px" width="26.4px" xmlns="http://www.w3.org/2000/svg">
  <g transform="matrix(1.0, 0.0, 0.0, 1.0, 12.15, 11.45)">
    <path d="M3.75 -8.55 Q4.6 -8.55 5.15 -7.95 5.8 -7.25 5.8 -6.1 L5.55 -4.7 Q5.05 -3.75 3.75 -3.75 2.4 -3.75 1.9 -4.85 L1.7 -6.1 Q1.7 -7.25 2.35 -7.95 2.9 -8.55 3.75 -8.55 M1.2 -4.7 L0.8 -4.2 Q1.55 -4.1 2.1 -3.35 2.75 -2.45 2.75 -1.05 L2.75 -0.35 2.6 0.65 2.45 1.05 4.05 1.5 3.75 0.65 3.55 -0.2 Q3.55 -2.0 4.4 -2.35 5.15 -2.65 6.35 -1.85 7.4 -1.1 8.25 0.1 L8.8 1.1 9.75 0.95 Q10.9 0.85 11.7 1.3 11.5 3.05 12.9 3.95 L13.55 5.15 12.45 4.3 12.4 4.25 12.25 4.4 12.05 4.6 12.35 4.7 Q13.25 5.1 13.25 6.55 L13.0 7.35 12.25 8.55 Q11.1 10.0 9.85 10.0 8.55 10.0 8.0 9.05 L7.7 8.35 7.3 8.5 7.35 8.55 Q8.3 9.1 8.3 10.25 8.3 11.05 7.75 11.65 6.95 12.5 5.2 12.5 3.45 12.5 2.75 11.65 L2.75 11.85 Q2.75 12.55 2.35 13.1 1.7 13.95 0.35 13.95 -1.45 13.95 -2.4 12.75 L-2.9 11.85 -3.0 11.2 Q-3.0 10.0 -2.1 9.5 L-0.25 9.35 -0.45 9.05 -0.75 7.95 Q-0.75 6.6 0.1 5.6 L0.5 5.2 Q-0.75 5.0 -1.25 4.3 L-1.6 3.6 -1.6 3.25 -1.55 2.85 Q-1.85 3.55 -2.35 3.9 L-1.75 4.5 Q-0.95 5.65 -0.95 7.35 -0.95 8.1 -1.5 8.7 -2.1 9.4 -3.2 9.4 -5.05 9.4 -5.75 7.8 L-6.1 5.95 Q-6.1 4.5 -5.3 3.75 L-5.05 3.55 -5.25 3.15 -5.45 1.8 Q-5.45 0.1 -4.75 -0.95 -4.15 -1.85 -3.2 -2.0 -2.35 -2.15 -1.65 -1.6 L-1.4 -1.35 Q-1.35 -2.7 -0.75 -3.5 L-0.5 -3.75 -0.55 -3.75 Q-1.45 -3.75 -2.15 -4.7 L-2.8 -3.8 Q-4.0 -2.3 -5.6 -2.3 L-5.85 -2.35 -5.65 -1.25 Q-5.65 -0.6 -6.0 0.0 -6.55 1.0 -7.75 1.0 -9.55 1.0 -10.15 -0.5 -10.45 -1.2 -10.4 -1.95 -10.4 -3.25 -9.7 -3.85 -10.95 -4.15 -11.35 -5.2 -11.6 -5.9 -11.45 -6.65 -11.45 -8.55 -10.7 -9.9 -10.05 -11.05 -9.05 -11.35 -8.1 -11.65 -7.4 -10.85 -6.65 -10.0 -6.65 -8.15 L-6.5 -7.75 -6.05 -7.3 -5.7 -6.9 -4.95 -7.3 -3.4 -7.8 Q-3.35 -8.75 -2.65 -9.25 L-0.95 -9.6 Q0.05 -9.4 0.75 -8.55 1.5 -7.55 1.5 -6.05 L1.2 -4.7 M14.0 6.65 L14.05 6.95 14.25 8.75 14.15 8.85 Q13.6 9.0 13.2 9.3 L13.15 9.15 13.05 8.6 Q13.05 7.3 13.8 6.75 L14.0 6.65 M5.2 3.5 L4.8 4.45 4.25 4.85 4.7 5.6 5.25 4.85 5.95 4.15 5.2 3.5 M3.6 8.5 L3.4 8.75 Q4.15 8.25 5.15 8.15 L4.7 7.6 4.5 7.2 4.45 7.25 3.6 8.5 M2.35 10.45 Q2.35 9.95 2.6 9.5 L1.45 10.0 1.85 10.35 2.35 10.85 2.35 10.45 M-0.6 1.6 L-1.05 1.1 -1.35 2.35 -0.6 1.6" fill="#000000" fill-opacity="0.3647059" fill-rule="evenodd" stroke="none"/>
    <path d="M4.9 -2.05 Q6.25 -1.45 7.55 -0.9 L4.45 1.15 4.9 -2.05 M5.6 -5.4 L1.95 -6.1 4.55 -8.15 5.6 -5.4 M1.8 -1.35 L-1.9 -1.1 0.1 -3.7 1.8 -1.35 M-6.75 -7.45 L-10.4 -8.2 -7.8 -10.2 -6.75 -7.45 M-10.05 -3.9 L-7.15 -3.45 -9.6 -0.65 -10.05 -3.9 M-2.8 -0.65 L-4.45 2.7 -5.7 -0.3 -2.8 -0.65 M-4.6 -2.8 L-7.2 -4.75 -4.85 -6.5 -4.6 -2.8 M-2.35 -5.85 L-1.95 -9.1 0.7 -7.9 -2.35 -5.85 M-0.6 5.7 L2.2 8.15 -1.05 8.6 -0.6 5.7 M-5.3 5.2 L-2.6 6.35 -5.7 8.45 -5.3 5.2 M-2.45 11.25 L-0.05 9.5 0.2 13.2 -2.45 11.25 M10.8 9.7 L9.75 6.95 13.4 7.7 10.8 9.7 M4.85 4.2 L7.75 4.65 5.3 7.45 4.85 4.2 M5.0 8.4 L6.2 11.9 3.15 10.7 5.0 8.4 M6.9 4.4 L8.1 1.75 10.15 4.8 6.9 4.4 M2.35 0.75 L1.6 4.4 -0.4 1.85 2.35 0.75" fill="#999999" fill-rule="evenodd" stroke="none"/>
    <path d="M0.35 -5.15 L-2.35 -5.85 0.7 -7.9 0.35 -5.15 M5.6 -5.4 L3.35 -3.7 1.95 -6.1 5.6 -5.4 M10.15 4.8 L8.1 1.75 10.9 2.1 10.15 4.8 M12.35 5.85 L12.45 6.95 12.55 7.2 12.7 7.55 9.75 6.95 12.0 5.25 12.35 5.85 M4.05 3.0 L1.6 4.4 2.35 0.75 4.05 3.0 M6.2 11.9 L5.0 8.4 7.6 9.5 6.2 11.9 M5.3 7.45 L7.75 4.65 8.1 7.45 5.3 7.45 M4.45 1.15 L7.55 -0.9 7.2 1.9 4.45 1.15 M2.2 8.15 L-0.6 5.7 2.2 5.35 2.2 8.15 M0.2 13.2 L-0.05 9.5 2.15 11.25 0.2 13.2 M0.1 0.9 L-1.9 -1.1 1.8 -1.35 0.1 0.9 M-7.15 -3.45 L-6.8 -0.65 -9.6 -0.65 -7.15 -3.45 M-2.6 -4.75 L-4.6 -2.8 -4.85 -6.5 -2.6 -4.75 M-9.0 -5.75 L-10.4 -8.2 -6.75 -7.45 -9.0 -5.75 M-2.6 6.35 L-3.0 9.15 -5.7 8.45 -2.6 6.35 M-4.45 2.7 L-2.8 -0.65 -1.7 2.0 -4.45 2.7" fill="#ffffff" fill-rule="evenodd" stroke="none"/>
    <path d="M5.55 -8.6 L5.55 -8.5 5.6 -8.2 6.1 -6.0 5.3 -4.8 Q4.65 -4.05 4.55 -3.65 L4.0 -3.65 Q3.35 -3.4 3.35 -2.95 3.35 -1.95 6.5 -2.35 L7.85 -0.4 8.35 0.65 8.6 1.3 11.55 1.45 12.0 1.45 Q11.6 2.25 11.6 3.4 L11.6 3.9 Q11.7 4.35 12.35 4.35 L12.8 3.75 13.6 6.55 13.9 7.8 Q13.45 8.0 13.15 8.65 L11.25 10.4 11.05 10.3 10.7 9.55 Q10.55 9.2 10.2 9.35 10.0 9.2 9.65 9.35 8.9 9.6 8.1 10.95 L7.05 12.2 6.65 12.75 6.4 12.9 5.0 12.35 3.95 12.1 2.9 12.15 2.7 12.3 0.9 14.3 -0.05 13.6 -2.1 12.55 -4.0 11.6 -4.15 11.45 -3.7 11.05 -3.0 10.1 Q-3.0 9.6 -3.45 9.5 L-5.2 8.8 -5.4 8.7 -5.4 8.5 -5.5 7.35 -5.4 5.45 -5.45 4.05 -5.25 3.45 Q-5.25 3.1 -5.8 2.5 L-6.4 1.8 -6.15 1.3 Q-6.0 0.95 -6.6 0.6 -6.65 0.5 -6.8 0.5 -6.95 0.05 -7.6 -0.05 L-10.5 -0.05 -10.8 0.05 -10.85 -1.35 -10.9 -3.95 -11.2 -4.6 -10.95 -4.8 -10.7 -5.0 -10.55 -5.15 Q-10.55 -5.6 -11.0 -6.05 L-11.85 -6.75 -12.15 -7.25 -11.6 -8.0 -9.65 -9.45 -7.45 -10.9 -7.45 -10.85 Q-6.9 -9.1 -6.25 -8.35 -6.2 -7.8 -4.7 -7.8 -3.5 -7.8 -3.0 -8.4 L-2.9 -8.4 Q-2.55 -8.4 -2.25 -9.35 L-2.0 -10.6 -2.0 -10.65 -1.7 -10.5 -1.35 -10.65 Q0.55 -8.05 1.8 -8.05 2.75 -8.05 4.25 -10.1 L4.45 -10.15 4.7 -10.1 5.55 -8.6 M0.5 -7.7 L0.0 -8.35 -0.6 -8.9 -1.05 -9.25 -1.45 -9.7 Q-1.5 -8.95 -1.95 -8.05 -2.45 -7.1 -2.7 -7.1 -3.05 -7.1 -3.2 -7.35 L-4.15 -6.95 -5.65 -6.6 -5.95 -6.6 -6.1 -6.6 Q-6.5 -6.6 -7.0 -7.6 L-7.5 -8.6 -8.05 -9.65 -9.6 -8.65 -10.6 -7.7 -9.8 -6.45 -8.95 -5.15 Q-8.95 -4.75 -9.25 -4.5 L-9.8 -4.1 -10.1 -3.65 -9.8 -2.85 -9.8 -0.8 -8.05 -0.6 -6.8 -0.35 -6.7 -0.5 -6.2 -1.1 -5.65 -1.3 -5.2 -1.05 -5.05 -0.6 -5.35 0.3 -5.65 1.1 -5.0 2.1 -4.3 3.6 -3.5 3.45 -2.35 3.5 -1.9 3.4 -0.75 4.2 Q0.2 5.0 0.2 5.5 L-0.1 6.05 -0.45 6.15 -1.1 5.75 -2.05 4.8 -2.2 4.65 -4.4 4.95 -4.45 4.95 -4.55 5.4 -4.7 6.85 Q-4.65 7.65 -4.75 8.15 L-3.55 8.75 Q-1.65 9.65 -1.65 10.05 -1.65 10.4 -2.05 10.7 L-2.3 10.85 -2.5 11.05 -1.0 12.1 0.7 13.0 1.1 12.7 1.8 12.1 Q2.9 11.15 3.45 11.15 L4.75 11.45 5.75 11.75 Q6.1 11.75 6.7 11.15 L7.9 9.9 9.1 8.6 Q9.7 8.05 10.0 8.05 10.25 8.05 10.5 8.4 L11.05 9.05 12.3 8.15 12.95 7.75 12.7 7.55 12.55 7.2 12.45 6.95 12.35 5.85 12.3 5.6 12.0 4.85 Q11.7 5.7 11.25 5.7 L10.6 5.3 10.55 4.9 10.95 3.4 10.8 3.2 Q10.8 2.55 11.0 2.4 L10.45 2.35 9.4 2.35 Q8.15 2.35 7.85 1.8 L7.05 0.1 6.4 -1.1 5.55 -1.3 4.65 -1.45 4.2 0.0 4.0 0.4 Q3.9 0.65 3.6 0.7 L3.5 0.7 Q3.35 0.9 3.05 0.9 2.45 0.9 2.2 0.0 L1.95 -1.35 1.9 -2.0 1.65 -2.6 0.9 -3.3 0.6 -3.7 Q0.6 -4.95 1.5 -4.55 1.5 -5.0 2.3 -5.0 L3.0 -4.65 Q3.55 -4.35 3.95 -4.35 L4.25 -4.6 4.6 -5.25 5.15 -5.9 4.7 -7.05 4.1 -8.55 3.45 -8.05 2.8 -7.5 Q2.05 -6.9 1.55 -6.9 1.05 -6.9 0.5 -7.7 M1.95 4.8 Q1.95 4.25 3.7 3.1 5.4 1.95 5.4 3.3 L4.95 4.05 4.85 4.15 5.1 5.1 5.3 7.2 5.3 7.8 Q5.25 8.25 4.7 8.25 4.3 8.25 4.05 7.3 3.2 10.2 2.55 10.2 1.8 10.2 1.95 9.4 1.95 8.85 2.5 7.7 L3.05 6.2 2.5 5.6 Q1.95 5.15 1.95 4.8 M3.6 4.8 L3.7 4.85 3.7 4.75 3.6 4.8 M-1.55 -3.85 Q-1.55 -3.4 -1.85 -3.05 -0.95 -2.55 -0.95 -2.1 -0.95 -1.45 -1.65 -1.45 -1.9 -1.45 -2.35 -1.8 L-2.95 -2.1 -3.85 -1.65 Q-4.65 -1.15 -4.75 -1.15 -5.4 -1.15 -5.45 -1.5 L-5.05 -2.3 -4.0 -3.1 -3.1 -3.45 -3.1 -3.55 -2.75 -4.2 -2.25 -4.5 -1.75 -4.3 -1.55 -3.85" fill="#000000" fill-rule="evenodd" stroke="none"/>
  </g>
</svg>
