<?xml version="1.0" encoding="UTF-8" standalone="no"?>
<svg xmlns:ffdec="https://www.free-decompiler.com/flash" xmlns:xlink="http://www.w3.org/1999/xlink" ffdec:objectType="shape" height="165.65px" width="124.75px" xmlns="http://www.w3.org/2000/svg">
  <g transform="matrix(1.0, 0.0, 0.0, 1.0, 253.35, 83.15)">
    <path d="M-164.9 -81.95 Q-138.6 -82.0 -130.55 -58.35 -126.2 -45.5 -131.5 -33.35 -132.3 -31.55 -133.5 -29.9 -130.65 -19.1 -143.1 -9.55 -146.05 -7.3 -149.9 -7.0 -163.65 -6.05 -170.2 -12.9 -169.9 -9.7 -170.85 -6.35 -172.8 0.55 -178.2 3.3 -178.7 5.15 -179.65 6.8 L-178.15 7.65 -174.9 7.05 Q-169.75 7.1 -165.45 9.85 -162.35 11.8 -160.65 15.05 -147.4 22.35 -148.25 37.6 -149.2 54.8 -165.9 58.05 -170.45 57.8 -173.8 55.65 L-176.9 56.25 -177.85 56.4 -183.8 56.7 Q-192.85 56.65 -200.5 53.15 L-201.0 53.6 Q-201.4 56.6 -202.85 59.35 L-204.9 63.05 Q-208.75 84.95 -232.8 82.2 -253.6 79.8 -253.35 60.05 -253.25 47.6 -245.7 39.7 -246.6 31.55 -240.1 23.9 -244.95 8.65 -236.7 -6.15 -234.7 -9.85 -233.2 -13.85 -227.5 -29.15 -219.1 -43.15 L-217.65 -45.45 Q-219.1 -53.05 -214.9 -59.35 L-213.55 -61.25 -213.8 -62.6 Q-216.4 -81.15 -196.65 -82.55 L-193.9 -82.95 Q-187.2 -83.65 -180.75 -82.0 -177.1 -81.05 -174.35 -78.65 -170.45 -81.55 -164.9 -81.95" fill="#0000ff" fill-rule="evenodd" stroke="none"/>
  </g>
</svg>
