<?xml version="1.0" encoding="UTF-8" standalone="no"?>
<svg xmlns:ffdec="https://www.free-decompiler.com/flash" xmlns:xlink="http://www.w3.org/1999/xlink" ffdec:objectType="shape" height="10.9px" width="23.25px" xmlns="http://www.w3.org/2000/svg">
  <g transform="matrix(1.0, 0.0, 0.0, 1.0, 60.25, 7.0)">
    <path d="M-58.5 -7.0 Q-57.6 -6.65 -56.85 -6.15 L-55.0 -4.75 -54.25 -4.0 Q-54.0 -3.75 -53.7 -3.65 L-51.5 -3.0 -50.5 -2.3 -49.75 -1.75 Q-43.75 0.3 -37.65 1.65 -37.25 1.75 -37.0 2.5 -39.25 5.05 -43.75 3.0 -46.45 1.15 -49.7 0.65 -51.15 0.45 -52.25 -0.5 L-54.75 -1.0 Q-56.7 -3.3 -59.3 -4.7 -61.05 -5.65 -59.55 -6.75 L-58.5 -7.0" fill="#fe9956" fill-rule="evenodd" stroke="none"/>
  </g>
</svg>
