<?xml version="1.0" encoding="UTF-8" standalone="no"?>
<svg xmlns:ffdec="https://www.free-decompiler.com/flash" xmlns:xlink="http://www.w3.org/1999/xlink" ffdec:objectType="shape" height="162.65px" width="122.3px" xmlns="http://www.w3.org/2000/svg">
  <g transform="matrix(1.0, 0.0, 0.0, 1.0, 252.3, 77.85)">
    <path d="M-166.05 -19.35 Q-165.45 -18.05 -164.4 -17.1 L-164.25 -16.75 -164.05 -16.35 -163.9 -15.95 -163.8 -15.6 -163.1 -14.8 -162.9 -15.1 -162.5 -15.45 Q-162.3 -15.6 -162.05 -15.7 L-161.4 -15.8 -161.4 -15.85 -160.55 -15.6 -160.05 -15.2 -159.8 -14.85 -159.35 -14.1 -159.2 -13.9 -159.15 -14.2 -158.9 -14.6 -158.5 -14.95 -158.0 -15.15 -157.4 -15.3 -157.4 -15.35 -155.95 -14.65 -154.9 -13.95 -154.7 -13.6 -154.55 -13.2 -154.55 -12.85 -154.25 -12.5 -153.9 -12.1 -153.15 -11.35 -152.8 -10.95 -152.75 -10.9 -152.75 -11.45 -152.65 -12.2 -152.4 -12.6 -152.0 -12.95 -151.55 -13.2 -150.9 -13.3 -150.9 -13.35 -150.4 -13.3 -149.55 -13.1 -149.05 -12.7 -148.8 -12.35 -148.75 -12.3 -148.05 -12.1 -147.55 -11.7 -146.6 -9.35 -144.2 -9.25 -144.0 -9.45 -143.75 -9.7 -143.0 -10.45 -142.5 -10.65 -141.9 -10.8 -141.9 -10.85 -141.8 -10.85 -141.75 -11.95 -141.6 -12.35 -141.4 -12.75 -141.25 -13.1 -141.25 -13.45 -141.25 -13.85 -141.2 -14.05 -141.65 -14.85 -141.75 -15.2 -141.75 -15.6 -141.75 -15.95 -141.65 -16.35 -141.25 -16.7 -140.9 -17.1 -140.5 -17.45 -140.15 -17.6 -140.1 -17.7 -139.9 -18.1 -139.75 -18.45 -139.75 -18.85 -139.75 -19.2 -139.65 -19.6 -139.5 -19.95 -139.25 -20.35 -139.25 -20.45 -139.3 -21.1 -139.3 -22.2 -139.25 -22.95 -139.1 -23.3 -138.65 -23.8 -138.65 -23.85 -138.45 -24.0 -138.4 -24.1 -138.35 -24.15 -138.35 -24.2 -138.25 -26.3 -138.45 -26.5 Q-139.35 -27.45 -140.5 -27.95 L-141.8 -29.9 -143.45 -32.55 -143.75 -33.2 -143.75 -33.6 -143.75 -33.95 -143.65 -34.35 -143.25 -34.7 -142.75 -35.1 -141.9 -35.3 -141.9 -35.35 -139.8 -34.9 Q-138.75 -34.35 -137.5 -34.1 L-137.25 -33.9 -137.25 -34.35 -137.6 -35.1 -138.05 -36.25 -138.25 -36.95 -138.45 -37.3 -138.75 -37.7 -139.15 -38.1 -139.3 -38.45 -139.6 -39.25 -139.75 -40.0 -139.75 -40.35 -139.6 -40.7 -139.4 -41.1 -139.0 -41.45 -138.5 -41.65 -137.9 -41.8 -139.5 -44.7 Q-140.5 -46.75 -140.75 -48.95 L-140.6 -49.3 -140.25 -49.7 -139.75 -50.1 -138.9 -50.3 -138.9 -50.35 -138.0 -50.1 Q-136.15 -48.45 -135.4 -46.0 L-135.15 -45.25 -134.75 -45.6 -133.9 -45.8 -133.9 -45.85 -133.4 -45.8 -132.5 -45.6 -132.0 -45.2 -131.6 -44.5 -131.15 -43.35 -131.0 -42.95 -131.0 -42.6 -131.0 -42.2 -130.8 -41.85 -130.65 -41.45 -130.5 -41.1 -130.5 -38.85 -130.5 -35.85 -130.5 -35.45 -130.4 -35.1 -130.25 -34.7 -130.15 -34.35 -130.0 -33.95 -130.0 -30.2 -130.0 -25.7 -130.15 -25.35 -130.3 -25.0 -130.5 -24.6 -130.5 -24.2 -130.5 -23.85 -130.65 -23.45 -130.8 -23.1 -131.0 -22.7 -131.0 -22.35 -131.0 -21.95 -131.0 -21.6 -131.0 -21.2 -131.35 -20.45 -131.7 -19.35 -132.0 -18.6 -132.0 -18.2 -132.0 -17.85 -132.0 -17.1 -132.0 -16.7 -132.15 -16.35 -132.35 -15.95 -132.5 -15.6 -132.5 -15.2 -132.5 -14.85 -132.5 -14.1 -132.5 -13.7 -133.85 -11.15 -135.5 -7.7 -135.9 -7.35 -136.25 -6.95 -137.0 -6.2 Q-137.95 -4.5 -139.55 -3.2 L-142.0 -1.35 Q-154.95 2.25 -164.9 -6.35 L-165.5 -7.5 Q-165.95 -8.6 -166.9 -9.35 L-167.15 -9.75 -167.3 -10.05 -167.9 -10.85 -168.15 -11.2 -168.25 -11.6 -168.3 -11.95 -168.2 -12.7 -168.05 -13.45 -167.65 -13.8 -167.3 -14.05 -167.4 -14.25 -167.55 -14.6 -167.65 -14.95 -167.9 -15.35 -168.3 -15.7 -168.65 -16.1 -168.8 -16.45 -169.0 -16.85 -169.4 -17.6 -169.55 -17.95 -170.25 -18.75 -170.7 -19.5 -170.8 -19.85 -170.75 -20.2 -170.65 -20.6 -170.5 -20.95 -170.15 -21.35 -169.8 -21.6 -169.5 -21.65 -168.9 -21.8 -168.9 -21.85 -168.4 -21.8 -167.55 -21.6 -167.05 -21.2 -166.05 -19.35 M-157.4 -76.35 L-155.75 -76.1 -155.75 -76.25 -155.65 -76.6 -155.5 -76.95 -155.15 -77.35 -154.75 -77.6 -154.5 -77.7 -153.9 -77.8 -153.9 -77.85 Q-149.95 -77.7 -146.6 -75.5 -143.95 -73.8 -142.4 -71.1 L-142.0 -70.75 -141.65 -70.35 -141.4 -70.0 -141.15 -69.6 -141.0 -69.25 -140.75 -68.5 -140.5 -67.75 -140.15 -66.95 -140.0 -66.6 -140.0 -66.25 -140.0 -66.1 -139.5 -65.75 -137.9 -62.8 Q-137.05 -61.1 -137.15 -59.35 L-137.4 -59.0 -137.7 -58.65 -138.0 -58.35 -138.3 -58.25 -138.9 -58.1 -139.75 -58.35 -140.25 -58.75 -140.65 -59.1 -141.0 -59.5 -141.15 -59.85 -141.3 -60.1 -141.4 -60.1 -141.65 -60.15 -141.7 -60.15 -142.0 -59.85 -142.3 -59.75 -142.9 -59.6 -143.75 -59.85 -144.25 -60.25 -144.6 -60.65 -144.7 -60.85 -146.8 -61.35 -147.65 -62.1 -148.0 -62.5 -148.15 -62.85 -148.3 -63.25 -148.3 -63.6 -148.25 -63.95 -148.15 -64.35 -147.75 -64.7 -147.3 -65.1 -147.0 -65.15 -147.3 -65.35 Q-149.25 -66.7 -150.3 -68.75 L-150.3 -69.1 -150.25 -69.45 -150.15 -69.85 -149.75 -70.2 -149.45 -70.45 -150.8 -71.0 Q-151.7 -71.4 -152.15 -72.25 L-152.25 -72.6 -152.3 -73.0 -152.25 -73.35 -152.15 -73.7 -153.05 -73.95 -153.05 -73.85 -153.15 -73.5 -153.3 -73.1 -153.55 -72.75 -154.05 -72.35 -154.9 -72.1 -155.4 -72.15 -156.3 -72.35 -156.8 -72.25 -157.4 -72.1 -158.3 -72.35 -158.75 -72.75 -159.15 -73.1 -159.25 -73.5 -159.3 -73.85 -159.3 -74.25 -159.25 -75.0 -159.15 -75.35 -158.75 -75.7 -158.3 -76.1 -157.4 -76.3 -157.4 -76.35 M-134.5 -40.35 L-135.4 -40.1 -135.25 -39.7 -135.2 -39.65 -135.0 -39.6 -134.5 -39.2 -134.25 -38.7 -134.25 -39.6 -134.25 -39.95 -134.4 -40.35 -134.4 -40.4 -134.5 -40.35 M-134.4 -28.1 L-134.25 -27.7 -134.15 -27.35 -134.1 -26.95 -134.15 -26.6 -134.25 -26.2 -134.45 -25.9 -134.5 -25.8 -134.55 -25.45 -134.5 -24.45 -134.45 -24.6 -134.1 -25.7 -133.75 -26.45 -133.75 -29.1 Q-134.2 -28.75 -134.75 -28.5 L-134.4 -28.1 M-156.35 -9.3 L-155.8 -8.45 -156.05 -8.95 -156.35 -9.3 M-153.15 -4.65 L-153.25 -4.75 -153.65 -5.1 -153.75 -5.45 -153.75 -5.7 -154.25 -6.2 -154.2 -5.85 -154.15 -5.1 -154.2 -4.9 -153.15 -4.65 M-149.25 -4.7 L-149.8 -4.45 -149.2 -4.5 -149.25 -4.7 M-137.2 -14.2 L-137.15 -13.95 -137.0 -13.6 -137.1 -13.2 -136.45 -14.85 -136.9 -14.45 -137.2 -14.2 M-136.0 -17.45 L-135.75 -17.85 -135.8 -18.6 -136.0 -18.2 -136.0 -17.85 -136.05 -17.45 -136.15 -17.1 -136.0 -17.45 M-157.25 20.65 L-157.15 20.3 -156.9 19.95 -156.5 19.6 -156.05 19.3 -155.4 19.25 -155.4 19.15 -154.05 19.45 -152.55 19.9 -151.3 21.05 -149.65 22.15 -148.2 23.75 Q-147.5 24.55 -147.1 25.55 L-146.8 26.3 -146.5 26.6 -145.9 27.05 -145.4 27.4 -145.3 27.8 -145.15 28.15 -144.8 28.55 -144.4 28.9 -144.05 30.05 -143.5 31.55 -143.0 33.05 -143.0 33.8 -143.05 34.55 -143.05 35.65 -143.0 36.4 -142.95 36.8 -142.8 37.2 -142.65 37.55 -142.5 37.9 -142.55 39.05 -142.55 39.95 -142.5 40.3 -142.55 40.4 -142.55 41.3 -142.5 41.65 -142.65 42.05 -142.8 42.4 -143.0 42.8 -143.0 43.15 -143.0 43.55 -143.0 43.9 -143.0 44.3 -143.0 44.65 -143.15 45.05 -143.3 45.4 -143.5 45.8 -143.5 46.15 -143.5 46.55 -144.3 48.4 -145.7 50.65 -146.4 52.15 -147.15 52.9 -147.95 53.65 -148.8 54.3 Q-160.55 57.95 -172.9 58.95 L-188.3 57.7 -188.75 57.3 -189.1 56.9 -189.3 56.55 -189.3 56.2 -189.25 55.8 -189.15 55.45 -189.0 55.1 -188.65 54.7 -178.65 54.3 -180.65 52.8 -180.75 52.4 -180.8 52.05 -180.75 51.7 -180.65 51.3 -180.4 50.95 -180.0 50.6 -179.55 50.3 -178.9 50.25 -178.9 50.15 -178.4 50.2 -177.55 50.4 -177.05 50.8 -176.8 51.05 -167.15 51.7 -167.3 51.65 -167.75 51.3 -168.1 50.9 -168.3 50.55 -168.25 50.2 -168.1 49.45 -167.65 48.65 -159.55 48.5 -159.6 48.4 -159.8 48.05 -159.8 47.65 -159.75 47.3 -159.65 46.9 -159.5 46.6 -159.15 46.15 -158.75 45.95 -158.5 45.85 -157.9 45.75 -157.9 45.65 -153.95 46.0 -153.65 46.05 -153.75 45.8 -153.8 45.4 -153.75 45.05 -153.65 44.65 -153.25 44.3 -152.8 43.9 -151.9 43.75 -151.9 43.65 -150.05 44.05 -149.3 44.35 -149.15 43.45 -149.0 43.2 -151.8 43.15 -152.25 42.8 -152.6 42.4 -152.8 42.05 -152.8 41.65 -152.75 41.3 -152.45 40.6 -152.15 40.15 -148.55 38.9 -148.2 38.85 -148.25 38.8 -148.95 38.1 -149.05 38.15 -149.3 38.25 -149.9 38.4 Q-151.4 38.15 -152.6 37.15 -153.65 36.35 -153.8 35.15 L-153.75 34.8 -153.65 34.4 -153.5 34.05 -153.15 33.65 -152.75 33.45 -152.5 33.35 -151.9 33.25 -151.9 33.15 -151.8 33.2 -151.65 32.4 -151.55 32.05 -151.5 32.0 -151.65 31.65 -151.75 31.3 -151.8 30.9 -151.8 30.55 -151.8 30.15 Q-152.15 29.85 -152.6 29.7 L-153.9 29.35 -154.8 29.15 -155.65 28.4 -156.0 28.0 -156.15 27.65 -156.3 27.3 -156.3 26.9 -156.25 26.55 -156.15 26.2 Q-161.35 25.2 -166.8 25.15 L-167.25 24.8 -167.6 24.4 -167.8 24.05 -167.8 23.65 -167.75 23.3 -167.65 22.9 -167.5 22.55 -167.15 22.15 -166.75 21.95 -166.5 21.85 -165.9 21.75 -165.9 21.65 -158.05 22.1 -156.7 22.25 -157.15 21.8 -157.25 21.4 -157.3 21.05 -157.25 20.65 M-146.9 34.3 L-146.9 34.4 -146.8 34.5 -146.9 34.3 M-148.05 45.8 L-148.05 46.15 -148.15 46.55 -148.1 46.75 -148.05 46.75 -147.7 45.85 -148.05 45.75 -148.05 45.8 M-202.9 61.2 L-202.05 61.45 -201.55 61.8 -201.3 62.2 -201.15 62.55 -201.05 62.95 -201.05 63.3 -201.05 64.05 -201.05 64.8 -201.2 65.15 -201.4 65.55 -201.55 65.95 -201.55 66.3 -201.55 66.7 -201.65 67.05 -201.8 67.4 -202.05 67.8 -202.05 68.2 -202.05 68.55 -202.05 69.3 -202.2 69.65 -202.4 70.05 -202.55 70.45 -202.55 70.8 -202.55 71.2 -202.55 71.55 -202.9 72.7 Q-203.15 73.7 -203.65 74.55 L-203.8 74.95 -204.05 75.25 -204.55 75.7 -204.65 75.75 -206.3 77.55 -208.15 79.45 Q-225.3 88.1 -243.8 82.7 L-244.3 82.35 -245.55 81.55 -246.65 80.45 -248.2 78.95 -250.4 73.8 Q-251.55 71.35 -252.3 68.8 L-252.3 68.05 -252.3 66.55 -252.3 65.8 -252.2 65.45 -252.05 65.05 -251.8 64.7 -251.8 63.95 -251.8 62.8 -251.8 62.05 -251.65 61.7 -251.5 61.3 -251.3 60.55 -251.1 60.2 -250.45 59.45 -250.05 59.05 -249.95 59.05 Q-249.45 58.05 -249.3 57.05 L-249.15 56.7 -248.8 56.3 -248.55 55.95 -248.05 54.85 -247.2 52.9 -247.05 52.55 -246.65 52.15 -246.3 51.8 -245.8 51.4 -244.95 51.25 -244.9 51.15 -244.05 51.4 -243.55 51.8 -243.3 52.2 -243.2 52.55 -243.05 53.3 -243.1 53.65 -243.15 54.05 -243.3 54.45 Q-244.6 56.15 -245.4 58.2 L-246.5 60.8 -246.05 60.95 -245.55 61.3 -245.3 61.7 -245.2 62.05 -245.05 62.8 -245.1 63.15 -245.2 63.55 -245.55 64.3 -245.55 64.7 -245.55 65.05 -245.55 65.45 -245.7 65.8 -245.9 66.2 -246.05 66.55 -246.05 67.3 -246.05 68.45 -246.05 69.2 -245.8 68.55 -245.65 68.2 -245.3 67.8 -244.8 67.45 -243.95 67.25 -243.9 67.2 -243.05 67.45 -242.55 67.8 -242.3 68.2 -242.2 68.55 -242.05 69.3 -242.2 70.05 -242.9 71.55 -243.05 71.95 -243.05 72.3 -243.05 72.45 -242.55 72.8 Q-242.1 73.5 -241.8 74.3 L-241.05 76.55 -241.05 76.95 -241.05 77.3 -241.05 77.7 -241.15 78.05 -241.3 78.45 -241.45 78.65 -240.8 78.95 -240.85 77.7 -240.8 74.7 -240.8 74.3 -240.5 73.55 -239.9 72.45 -239.55 72.05 -239.05 71.85 -238.45 71.75 -238.4 71.7 -237.55 71.95 -237.05 72.3 -236.8 72.7 -236.7 73.05 -236.55 73.8 -236.6 74.15 -236.7 74.55 -237.05 75.3 -237.05 75.7 -237.05 76.45 -237.05 77.55 -236.9 77.95 -236.75 78.7 -236.65 79.45 -236.85 79.8 -237.15 80.25 -236.8 80.35 -236.8 80.2 -236.6 79.45 -236.25 78.85 -236.15 78.3 -235.55 77.55 -234.3 76.45 -233.45 76.25 -233.4 76.2 -232.55 76.45 -232.05 76.8 -231.8 77.2 -231.7 77.55 -231.65 77.55 Q-230.8 76.85 -229.8 76.4 L-228.55 75.8 -227.95 75.75 -227.9 75.7 -227.05 75.95 -226.55 76.3 -226.3 76.7 -226.2 77.05 -226.1 77.45 -224.55 76.05 -223.9 74.95 -222.55 73.05 -222.05 72.85 -221.45 72.75 -221.4 72.7 -220.55 72.95 -220.05 73.3 -219.8 73.7 -219.7 74.05 -219.55 74.8 -219.75 75.5 -219.1 75.15 -218.9 74.65 -217.8 72.05 -217.8 71.7 -217.75 71.3 -217.65 70.95 -217.55 70.55 -217.15 70.2 -216.8 69.95 -216.55 69.8 -215.95 69.75 -215.9 69.7 -215.45 69.7 -214.55 69.95 -214.05 70.3 -213.8 70.7 -213.65 71.05 -213.55 71.45 Q-213.45 72.05 -213.7 72.65 L-214.45 74.45 -214.65 75.2 -215.2 76.05 -215.1 76.8 -215.15 77.15 -214.55 76.55 -214.35 76.15 -214.25 75.8 -214.15 75.45 -214.0 75.1 -213.65 74.7 -213.2 74.25 -213.25 74.05 -213.3 73.7 -213.25 72.95 -213.15 72.2 -212.8 71.8 -212.3 71.45 -211.45 71.25 -211.4 71.2 -211.15 71.2 -210.8 70.95 -209.95 70.75 -209.9 70.7 -209.4 70.7 -208.55 70.95 -208.05 71.3 -207.8 71.7 -207.65 72.05 -207.55 72.45 -207.55 72.8 -207.7 73.15 -207.95 73.55 -207.95 73.6 -207.8 73.45 -207.3 73.3 -207.3 72.7 -207.0 71.9 -206.45 70.4 -206.3 70.05 -206.3 69.7 -206.3 69.3 -206.3 68.55 -206.15 68.2 -205.95 67.8 -205.8 67.45 -205.8 67.05 -205.8 66.7 -205.65 66.3 -205.45 65.9 -205.3 65.55 -205.3 65.2 -205.3 64.8 -205.3 64.05 -205.15 63.7 -204.85 62.9 -204.65 62.2 -204.3 61.8 -203.8 61.45 -202.95 61.25 -202.9 61.2 M-223.65 80.4 L-223.7 80.3 -223.9 80.45 -223.65 80.4 M-215.8 78.05 L-215.75 78.0 -216.05 78.2 -216.25 78.3 -216.35 78.45 -215.8 78.25 -215.8 78.05" fill="#ff6600" fill-rule="evenodd" stroke="none"/>
  </g>
</svg>
