<?xml version="1.0" encoding="UTF-8" standalone="no"?>
<svg xmlns:ffdec="https://www.free-decompiler.com/flash" xmlns:xlink="http://www.w3.org/1999/xlink" ffdec:objectType="shape" height="381.45px" width="476.35px" xmlns="http://www.w3.org/2000/svg">
  <g transform="matrix(1.0, 0.0, 0.0, 1.0, 334.2, 199.25)">
    <path d="M-21.55 -198.9 L-20.9 -199.25 -18.6 -198.6 -15.4 -198.0 -13.55 -196.6 -12.0 -195.55 -11.65 -195.0 Q-11.75 -194.6 -12.0 -194.35 -12.4 -194.0 -12.9 -193.95 L-14.65 -194.0 -15.9 -194.7 -16.85 -195.3 -17.15 -195.5 -19.65 -196.0 -21.95 -197.7 Q-22.15 -197.85 -22.0 -198.2 L-21.55 -198.9 M-246.95 -119.45 L-245.7 -117.95 Q-246.3 -117.35 -246.95 -117.3 -248.2 -117.2 -249.45 -117.7 L-250.05 -119.25 Q-250.5 -120.9 -248.95 -120.95 L-248.45 -120.95 -246.95 -119.45 M-68.8 -179.1 Q-69.35 -179.4 -68.55 -179.75 L-67.4 -180.0 Q-65.85 -177.5 -68.8 -179.1 M-151.65 -124.65 Q-151.15 -124.2 -150.9 -123.45 -151.8 -122.05 -153.5 -123.2 -154.75 -124.05 -153.6 -124.9 L-152.9 -125.2 Q-152.15 -125.1 -151.65 -124.65 M-134.8 -126.1 Q-135.35 -126.4 -134.55 -126.75 L-133.4 -126.95 Q-131.9 -124.5 -134.8 -126.1 M-119.5 -120.2 Q-120.75 -121.05 -119.6 -121.9 L-118.9 -122.2 Q-118.15 -122.1 -117.65 -121.65 -117.15 -121.2 -116.9 -120.45 -117.75 -119.05 -119.5 -120.2 M-113.4 -114.95 Q-112.1 -113.35 -111.25 -111.25 -110.6 -109.65 -109.65 -108.2 L-109.65 -107.45 -109.65 -106.7 -109.65 -105.95 -110.0 -105.45 -111.65 -104.95 -112.05 -105.75 -112.15 -106.45 -112.15 -107.2 -114.45 -110.8 Q-115.25 -112.3 -115.15 -113.95 L-114.75 -114.55 -113.9 -114.95 -113.4 -114.95 M-107.4 -99.95 Q-105.9 -97.5 -108.8 -99.1 -109.35 -99.4 -108.55 -99.75 L-107.4 -99.95 M-52.9 -32.2 L-53.0 -32.95 -52.75 -33.55 -51.9 -34.2 -50.4 -33.95 -49.6 -33.25 -48.9 -32.7 -48.6 -32.5 -45.65 -31.45 -43.15 -31.8 -41.9 -32.2 Q-36.7 -33.75 -36.9 -30.45 -39.8 -28.95 -43.9 -28.7 -46.8 -29.0 -49.65 -29.95 L-50.85 -30.75 -52.9 -32.2 M-38.65 26.55 L-38.65 31.8 -38.65 33.3 Q-39.0 33.7 -39.45 33.8 L-41.65 34.05 -42.0 33.3 -42.3 32.65 -42.8 31.75 -43.15 31.05 -43.15 30.3 -43.15 29.55 -44.15 28.05 -45.0 26.5 -45.15 25.8 -45.05 25.1 -44.75 24.55 Q-44.15 24.2 -43.4 24.05 L-42.65 24.8 -41.95 25.6 -41.5 26.1 -41.15 26.05 -41.15 25.3 -41.3 24.65 -41.8 23.75 -42.15 23.05 -42.95 22.35 -44.1 21.5 -44.9 20.8 -45.0 20.05 -44.75 19.5 -43.95 18.95 -43.9 18.8 -42.4 19.05 -40.7 20.65 -39.35 22.05 -38.65 22.8 -38.65 26.55 M-75.95 1.95 L-75.9 1.8 Q-73.55 2.1 -71.4 2.95 -69.35 3.75 -69.65 5.8 -70.3 7.85 -72.55 6.85 -75.2 5.65 -77.15 3.55 L-77.05 2.8 -76.85 2.35 -76.6 2.15 -75.95 1.95 M-40.65 40.35 Q-40.15 40.8 -39.9 41.55 -40.75 43.0 -42.5 41.85 -43.75 41.0 -42.55 40.15 L-41.9 39.8 Q-41.15 39.95 -40.65 40.35 M-157.65 82.4 Q-157.15 82.85 -156.9 83.6 -157.75 85.0 -159.5 83.85 -160.8 83.0 -159.6 82.15 L-158.9 81.85 Q-158.15 81.95 -157.65 82.4 M-113.2 142.9 Q-120.8 145.55 -126.0 143.05 L-126.15 142.6 -126.1 141.85 -125.85 141.45 -124.95 141.0 -124.9 140.85 -113.5 141.8 Q-113.15 141.85 -112.9 142.6 L-113.2 142.9 M-92.05 137.65 Q-91.3 136.15 -89.9 136.1 L-89.4 136.1 Q-87.7 137.6 -88.9 139.4 L-90.65 141.35 -92.65 141.7 -93.15 141.35 Q-93.0 139.35 -92.05 137.65 M-151.4 132.1 L-152.4 131.8 -153.15 130.6 -153.05 129.9 -152.55 129.25 -151.9 129.1 -151.4 129.1 Q-151.05 129.85 -151.05 130.6 -151.05 131.35 -151.4 132.1 M-131.9 143.35 L-131.65 143.2 -130.95 143.0 -130.9 142.85 -129.5 143.25 -128.65 143.85 -128.0 144.65 Q-127.8 144.95 -127.9 145.25 L-128.4 146.1 -131.45 145.55 Q-131.9 145.35 -132.15 144.6 L-132.1 143.85 -131.9 143.35 M-3.0 160.05 L1.4 162.6 Q6.4 163.85 11.65 164.1 L12.55 164.9 13.15 165.6 Q12.05 167.45 9.25 167.3 L9.05 167.8 8.4 168.6 9.05 169.4 9.4 170.1 9.2 170.45 9.4 170.6 Q12.1 170.85 14.05 172.7 L15.4 174.1 15.0 174.75 Q14.65 175.1 14.1 175.15 L12.4 175.1 8.1 172.85 6.4 172.1 5.65 171.35 4.9 170.6 4.15 169.85 2.4 169.1 Q-0.95 165.85 -4.8 163.35 L-9.0 160.75 Q-11.3 159.4 -11.15 157.1 L-10.75 156.5 -9.95 156.0 -9.9 155.85 -8.4 156.1 Q-5.75 158.25 -3.0 160.05 M-334.15 87.85 L-333.95 87.35 -333.7 87.15 -333.0 86.95 -332.95 86.85 -330.0 87.1 -327.7 87.85 -328.05 88.5 -328.7 89.35 -329.45 90.1 -333.4 89.1 Q-333.85 88.95 -334.2 88.6 L-334.15 87.85 M5.9 168.1 L5.9 168.0 5.85 168.05 5.9 168.1 M74.15 168.85 Q75.05 168.1 76.15 168.0 L76.15 167.85 77.55 168.25 78.4 168.85 78.4 169.6 78.4 170.35 78.4 171.1 78.05 171.8 77.4 172.6 77.4 173.35 77.3 174.85 77.15 175.6 Q79.05 176.75 82.4 177.85 82.4 178.25 82.55 178.3 L84.55 179.3 85.4 179.85 85.05 180.55 84.4 181.35 83.65 182.1 Q73.75 182.65 64.4 180.1 L63.65 179.35 63.15 178.85 62.85 178.7 60.4 178.1 58.8 176.7 Q57.7 175.8 57.9 174.35 L58.0 173.65 Q58.15 173.35 58.45 173.15 L59.15 172.85 Q65.7 172.05 72.15 170.35 L74.15 168.85 M65.15 174.85 L64.1 175.25 62.4 175.6 65.8 175.25 65.7 175.05 65.15 174.85 M131.0 120.9 L131.5 120.25 132.15 120.1 132.65 120.1 Q133.05 120.85 133.05 121.6 133.05 122.35 132.65 123.1 L131.65 122.8 Q131.15 122.35 130.9 121.6 L131.0 120.9 M119.65 140.1 L118.15 140.85 116.05 140.05 Q115.9 139.95 115.9 139.6 115.85 137.6 118.15 137.3 L118.75 137.25 119.65 137.1 Q120.4 138.35 120.05 138.55 L120.05 138.6 Q120.05 139.35 119.65 140.1 M141.4 161.4 L142.15 162.6 Q141.3 164.0 139.55 162.85 138.3 162.0 139.5 161.2 L140.15 160.85 Q140.9 160.95 141.4 161.4" fill="#e84400" fill-rule="evenodd" stroke="none"/>
  </g>
</svg>
