<?xml version="1.0" encoding="UTF-8" standalone="no"?>
<svg xmlns:ffdec="https://www.free-decompiler.com/flash" xmlns:xlink="http://www.w3.org/1999/xlink" ffdec:objectType="shape" height="18.15px" width="10.25px" xmlns="http://www.w3.org/2000/svg">
  <g transform="matrix(1.0, 0.0, 0.0, 1.0, 70.25, 24.15)">
    <path d="M-68.5 -24.05 L-67.95 -23.2 -67.75 -21.8 Q-66.75 -20.8 -66.45 -19.6 L-65.75 -18.05 -65.75 -17.3 -65.75 -16.55 -65.1 -15.7 -64.75 -15.05 -64.75 -14.3 -64.75 -13.55 -64.0 -12.8 -63.25 -12.05 -62.85 -11.25 -62.75 -10.5 -61.3 -9.0 -60.0 -7.5 Q-60.25 -6.75 -60.75 -6.35 -61.1 -6.0 -61.75 -6.0 L-63.25 -7.5 -64.75 -9.0 -65.6 -10.45 -66.75 -12.05 -67.15 -12.8 -67.25 -13.55 -67.25 -14.3 -67.75 -15.05 -68.25 -15.8 -68.25 -16.55 -68.25 -17.3 Q-69.1 -18.3 -69.55 -19.5 L-70.25 -21.05 -70.1 -23.25 Q-70.0 -24.3 -69.0 -24.1 L-68.5 -24.05" fill="#fd802d" fill-rule="evenodd" stroke="none"/>
  </g>
</svg>
