<?xml version="1.0" encoding="UTF-8" standalone="no"?>
<svg xmlns:ffdec="https://www.free-decompiler.com/flash" xmlns:xlink="http://www.w3.org/1999/xlink" ffdec:objectType="shape" height="161.8px" width="135.8px" xmlns="http://www.w3.org/2000/svg">
  <g transform="matrix(1.0, 0.0, 0.0, 1.0, 257.8, 77.85)">
    <path d="M-147.9 -77.85 Q-146.4 -77.75 -145.1 -77.0 L-143.05 -75.75 -142.8 -75.35 -142.65 -75.0 -142.55 -74.6 -142.55 -74.25 -142.55 -73.85 -142.55 -73.5 -142.8 -72.75 -142.9 -72.35 -143.05 -72.0 -143.15 -71.6 -143.3 -71.25 -143.45 -70.9 -143.9 -70.5 -144.3 -70.25 -144.9 -70.1 -145.8 -70.35 -146.25 -70.75 -146.65 -71.1 -146.75 -71.5 -146.8 -71.85 -146.8 -72.25 -146.8 -72.6 -146.85 -72.9 -147.3 -73.35 -147.65 -73.6 -147.9 -73.6 -148.4 -73.65 -149.3 -73.85 -149.75 -74.25 -150.1 -74.65 -150.3 -75.0 -150.3 -75.35 -150.25 -75.75 -150.15 -76.1 -150.0 -76.45 -149.65 -76.85 -149.25 -77.2 -148.8 -77.6 -147.9 -77.8 -147.9 -77.85 M-132.4 -37.35 L-131.9 -37.3 -131.0 -37.1 -130.55 -36.7 -130.15 -36.35 -129.4 -35.6 -128.9 -34.1 -128.25 -31.85 -128.0 -31.1 -128.0 -30.7 -128.0 -30.35 -127.7 -29.6 -127.3 -28.8 -127.0 -28.1 -127.0 -27.7 -127.0 -27.35 -126.75 -27.0 -126.55 -26.75 -126.4 -26.6 -125.9 -25.95 -125.45 -25.15 -125.4 -25.1 -125.35 -24.9 -125.25 -24.7 -125.15 -24.45 -125.0 -24.1 -125.0 -23.35 -125.0 -23.3 -125.0 -23.2 -125.0 -23.15 -125.05 -22.2 -125.0 -21.1 -124.95 -20.75 -124.8 -20.35 -124.65 -19.95 -124.5 -19.6 -124.5 -19.2 -124.5 -18.85 -124.5 -18.7 -124.5 -18.65 -124.5 -18.45 -124.4 -18.1 -124.25 -17.7 -124.15 -17.35 -124.0 -16.95 -124.0 -16.6 -124.0 -16.2 -124.0 -15.85 -124.0 -15.45 -123.9 -15.1 -123.75 -14.7 -123.65 -14.35 -123.5 -13.95 -123.5 -13.6 -123.5 -13.2 -123.3 -12.85 -123.15 -12.45 -123.0 -12.1 -123.0 -11.7 -123.0 -11.35 -122.85 -11.0 -122.65 -10.6 -122.5 -10.2 -122.5 -9.85 -122.5 -9.45 -122.4 -9.1 -122.25 -8.7 -122.15 -8.35 -122.0 -7.95 -122.0 -6.1 -122.0 -3.1 -122.0 -2.35 -122.15 -1.95 -122.3 -1.6 -122.5 -1.2 -122.5 -0.85 -122.5 -0.45 -122.5 -0.1 -122.5 0.3 -122.65 0.65 -122.85 1.05 -123.0 1.4 -123.0 1.8 -123.0 2.15 -123.0 2.55 -123.0 3.3 -123.8 5.1 -124.55 7.8 -124.65 8.15 -125.4 9.35 -126.25 10.8 -126.4 11.15 -128.25 13.05 -130.15 14.9 Q-134.7 17.5 -139.45 18.25 L-138.0 20.3 -137.65 20.65 -137.25 21.05 -136.9 21.4 -136.5 21.8 -135.6 23.35 -134.7 24.75 -133.65 27.05 -133.5 27.4 -133.5 27.8 -133.5 28.15 -133.35 28.55 -133.15 28.95 -133.0 29.3 -133.0 29.65 -133.0 30.05 -133.0 30.4 -132.95 30.8 -132.8 31.2 -132.65 31.55 -132.5 31.9 -132.5 33.8 -132.5 36.05 -132.5 39.4 -132.5 40.15 -132.65 40.55 -132.8 40.9 -133.0 41.3 -133.0 41.65 -133.0 42.05 -133.0 42.4 -133.0 42.8 -133.0 43.15 -133.15 43.55 -133.3 43.9 -133.5 44.3 -133.5 44.65 -133.5 45.05 Q-134.2 47.45 -135.35 49.55 -137.85 54.15 -142.35 56.7 L-143.25 57.3 Q-151.7 58.95 -160.3 58.2 L-160.75 57.8 -161.1 57.4 -161.3 57.05 -161.3 56.7 -161.25 56.3 -161.15 55.95 -161.0 55.6 -160.65 55.2 -155.35 54.3 -155.8 54.2 -156.25 53.8 -156.6 53.4 -156.8 53.05 -156.8 52.65 -156.75 52.3 -156.45 51.6 -156.15 51.15 -147.8 50.9 -147.15 50.7 -147.15 50.65 Q-146.6 50.2 -145.9 50.1 L-145.5 50.0 -144.25 49.4 -143.65 49.3 -143.75 49.05 -143.75 48.65 -143.75 48.3 -143.45 47.6 -143.2 47.2 -143.25 47.05 -143.25 46.65 -143.25 46.3 -143.0 45.55 -139.75 43.4 -139.75 43.3 -139.75 42.15 -139.6 41.8 -139.45 41.4 -139.15 40.65 -138.4 39.9 -138.0 39.55 -138.15 39.4 -138.25 39.05 -138.25 38.3 -138.25 37.55 -137.8 36.35 -137.0 35.1 -137.25 35.3 -137.9 35.4 -138.75 35.15 -139.25 34.8 -139.65 34.4 -139.8 33.3 -139.75 31.4 -139.65 30.65 -139.75 30.3 -139.75 29.55 -139.65 28.8 -139.4 28.45 -139.25 28.3 -139.75 28.15 -140.25 27.8 -140.65 27.4 -141.0 27.05 -141.45 26.3 Q-141.8 25.65 -142.3 25.1 L-142.75 24.4 -142.75 24.05 -142.75 23.65 -142.6 23.3 -142.4 22.9 -142.1 22.7 -142.9 22.9 -143.4 22.85 -144.25 22.65 -145.1 21.85 -145.6 21.15 -145.8 20.8 -145.8 20.4 -145.75 20.05 -145.65 19.65 -145.25 19.3 -144.8 18.9 -145.8 18.45 -146.75 18.35 -146.9 18.55 -147.2 18.9 -147.55 19.15 -147.8 19.25 -148.4 19.4 -148.9 19.35 -149.8 19.15 -150.3 18.8 -150.8 18.45 -151.55 18.05 -152.25 17.25 -152.45 16.95 -153.3 16.65 -153.8 16.3 -154.3 15.95 -155.05 15.55 -156.15 14.4 -157.65 12.9 -157.8 12.55 -157.9 12.15 -158.3 11.8 -158.65 11.4 -158.8 11.05 -158.9 10.65 -159.2 10.3 -159.65 9.9 -160.05 9.55 -160.15 9.15 -160.25 8.8 -160.25 8.05 -160.15 7.3 -159.9 6.95 -159.5 6.55 -159.25 6.4 -159.3 6.3 -159.45 6.0 -160.0 5.5 -160.4 5.15 -160.6 4.75 -160.75 4.05 Q-160.85 3.25 -160.55 2.55 L-160.15 2.2 -159.75 1.9 -159.55 1.8 -158.9 1.75 -158.9 1.65 -157.9 1.75 -157.05 1.9 -156.55 2.3 -156.25 3.05 -155.7 4.55 -155.55 5.3 -155.3 5.65 -155.2 5.8 -155.0 5.55 -154.55 5.3 -153.9 5.25 -153.9 5.15 -153.05 5.4 -152.2 6.2 -151.55 7.3 -151.55 7.6 -151.3 7.4 -150.4 7.25 -150.4 7.15 -149.55 7.4 -149.05 7.8 -148.75 8.55 -148.15 10.05 -148.05 10.4 -146.55 11.55 -146.8 10.9 -146.8 10.55 -146.75 10.15 -146.65 9.4 -146.55 9.05 -146.15 8.7 -145.75 8.4 -145.55 8.3 -144.9 8.25 -144.9 8.15 -144.0 8.4 -143.55 8.8 -142.9 9.55 -142.65 9.9 -142.25 11.45 -141.8 12.3 -141.75 10.55 -141.65 9.8 -141.4 9.45 -140.65 8.7 -140.25 8.4 -140.0 8.35 -139.4 8.25 -139.4 8.15 -138.5 8.4 -138.0 8.8 -137.9 8.95 -137.55 9.05 Q-136.55 9.3 -135.9 10.05 L-135.65 10.45 -135.55 10.8 -135.55 11.15 -135.65 11.55 -135.05 12.3 -134.8 12.7 -133.75 12.15 -134.25 11.75 -134.65 11.4 -134.75 11.05 -134.75 10.65 -134.75 9.9 -134.75 9.55 -134.6 9.2 -134.4 8.8 -134.25 8.4 -134.25 8.05 -134.25 7.65 -134.25 6.9 -134.15 6.15 -133.75 5.8 -133.55 5.65 -133.5 5.55 -133.15 5.2 -132.75 4.9 -132.65 4.9 -133.0 4.55 -133.4 4.15 -133.65 3.4 -134.15 1.85 -134.25 1.15 -134.1 0.8 -133.9 0.45 -133.5 0.05 -133.0 -0.15 -132.4 -0.25 -132.4 -0.35 -131.5 -0.1 -131.15 0.2 -131.25 -0.1 -131.25 -0.45 -131.85 -1.15 -132.65 -2.35 -132.75 -2.7 -132.75 -3.1 -132.75 -3.45 -132.65 -3.85 -132.25 -4.2 -131.75 -4.6 -130.9 -4.75 -130.9 -4.85 -130.4 -4.8 -129.5 -4.6 -129.0 -4.2 -128.8 -3.85 -128.6 -3.5 -128.05 -2.7 -127.75 -2.35 -127.65 -1.95 -127.55 -1.6 -127.5 -1.2 -127.15 -0.85 -126.75 -0.45 -126.55 -0.25 -126.4 -0.6 -126.25 -0.95 -126.25 -1.35 -126.25 -1.7 -126.25 -2.1 -126.25 -2.45 -126.1 -2.85 -125.9 -3.25 -125.8 -3.4 -126.25 -3.75 -126.65 -4.1 -127.4 -4.85 -127.6 -5.25 -127.8 -5.6 -128.0 -5.95 -128.4 -6.1 -129.25 -6.35 -129.75 -6.75 -130.15 -7.1 -130.25 -7.45 -130.25 -7.85 -130.25 -8.6 -130.15 -9.35 -129.75 -9.7 -129.25 -10.1 -128.4 -10.25 -128.4 -10.35 -128.6 -10.75 -128.8 -11.1 -129.0 -11.45 -131.25 -13.7 -133.15 -15.6 -133.25 -15.95 -133.25 -16.35 -133.25 -17.1 -133.15 -17.85 -132.75 -18.2 -132.25 -18.6 -131.4 -18.8 -131.4 -18.85 -130.9 -18.8 -130.0 -18.6 -129.5 -18.2 -129.3 -17.85 -129.15 -17.5 -128.8 -16.7 -128.65 -16.35 -127.85 -15.55 -128.0 -16.0 -128.15 -16.35 -128.25 -16.7 -128.25 -17.1 -128.25 -17.45 -128.25 -17.7 -130.4 -19.8 Q-131.65 -21.1 -133.15 -22.1 L-133.25 -22.45 -133.25 -22.85 -133.25 -23.6 -133.15 -24.35 -132.75 -24.7 -132.25 -25.1 -131.4 -25.3 -131.4 -25.35 -130.9 -25.3 -130.2 -25.15 -130.25 -25.35 -130.65 -26.35 Q-130.9 -27.5 -131.45 -28.6 L-131.75 -29.35 -131.75 -29.7 -131.75 -30.1 -132.0 -30.85 -132.25 -31.6 -132.4 -32.35 -132.55 -32.55 -133.25 -32.85 -134.1 -33.65 -134.6 -34.35 -134.75 -34.7 -134.75 -35.1 -134.75 -35.45 -134.65 -35.85 -134.25 -36.2 -133.9 -36.6 -133.5 -36.95 -133.0 -37.15 -132.4 -37.3 -132.4 -37.35 M-129.5 2.55 L-129.9 2.15 -130.0 1.9 -130.0 2.15 -129.5 2.55 M-129.9 6.05 L-129.65 6.4 -129.55 7.15 -129.6 7.95 -129.25 7.15 -129.25 6.4 -129.25 5.45 -129.4 5.55 -129.75 5.8 -130.05 5.85 -129.9 6.05 M-128.65 3.65 L-128.6 3.7 -128.4 3.55 -128.75 3.25 -129.0 3.0 -128.8 3.3 -128.65 3.65 M-129.75 8.7 L-129.8 8.9 -129.75 8.8 -129.75 8.7 M-141.4 22.1 L-141.55 22.25 -141.7 22.4 -141.5 22.35 -141.2 22.3 -141.4 22.1 M-136.35 34.45 L-136.25 34.45 -136.25 34.35 -136.35 34.45 M-206.9 75.7 L-206.05 75.95 -205.55 76.3 -205.3 76.7 -205.2 77.05 -205.05 77.8 -205.05 78.2 -205.15 78.55 -205.3 78.95 -205.6 79.25 -206.8 80.05 Q-208.15 81.45 -209.95 82.25 L-211.4 82.95 -211.9 82.9 -212.8 82.7 -213.3 82.3 -213.6 81.9 -213.8 81.55 -213.8 81.2 -213.75 80.8 -213.65 80.45 Q-212.7 78.8 -210.85 78.0 -210.1 77.7 -209.55 77.05 L-208.8 76.65 -207.8 75.95 -206.95 75.75 -206.9 75.7 M-256.3 72.95 L-256.05 72.85 -255.45 72.75 -255.45 72.7 -254.45 72.75 -254.3 72.8 -253.05 72.05 -252.25 71.35 -250.55 70.3 -249.95 70.25 -249.95 70.2 -249.05 70.45 -248.55 70.8 -248.35 71.2 -248.2 71.55 -248.05 72.3 -248.45 73.05 Q-249.1 74.1 -250.3 74.55 L-250.7 74.9 -251.55 75.7 -251.75 75.9 -251.1 76.05 Q-249.8 76.35 -249.2 77.45 L-249.1 77.8 -249.1 78.2 -249.2 78.55 -249.3 78.95 -249.6 79.3 -249.7 79.45 -249.7 79.55 -249.55 80.3 -249.6 80.7 -249.7 81.05 -249.6 81.45 -249.55 81.8 -249.7 82.15 -249.95 82.55 -250.6 83.3 -251.05 83.7 -251.95 83.95 Q-253.45 83.9 -254.6 82.85 L-256.2 81.45 -256.3 81.05 -256.45 80.7 -256.8 80.3 -257.2 79.95 -257.25 79.55 -257.3 79.2 -257.3 78.8 -257.35 78.45 -257.55 78.05 -257.7 77.7 -257.8 77.3 -257.8 76.95 -257.8 76.2 -257.75 74.7 -257.7 74.3 -257.4 73.95 -257.05 73.55 -256.3 72.95" fill="#ff6600" fill-rule="evenodd" stroke="none"/>
  </g>
</svg>
