<?xml version="1.0" encoding="UTF-8" standalone="no"?>
<svg xmlns:ffdec="https://www.free-decompiler.com/flash" xmlns:xlink="http://www.w3.org/1999/xlink" ffdec:objectType="shape" height="395.25px" width="239.05px" xmlns="http://www.w3.org/2000/svg">
  <g transform="matrix(1.0, 0.0, 0.0, 1.0, -139.7, 149.65)">
    <path d="M320.7 -121.5 L287.0 -115.05 284.35 -116.85 Q290.2 -134.25 306.25 -143.95 308.6 -145.45 311.25 -146.4 320.1 -147.05 328.6 -149.05 L337.1 -149.45 319.4 -131.25 320.7 -121.5 M263.05 -14.8 Q278.95 -9.3 295.75 -5.25 327.8 2.4 360.75 -0.45 353.4 14.95 338.4 24.15 328.85 30.05 318.0 33.25 278.8 44.8 239.4 34.45 229.7 31.8 220.5 27.75 208.65 22.4 197.2 16.75 196.55 16.4 196.1 15.65 195.75 14.1 196.65 13.95 L209.3 13.45 Q240.25 17.3 270.3 10.35 273.0 9.75 274.9 7.6 L266.1 -4.65 267.65 -6.15 262.55 -13.9 263.05 -14.8 M355.25 42.05 L362.75 55.55 362.75 58.55 364.75 61.55 364.05 97.45 362.75 99.05 363.0 117.9 375.75 115.9 378.75 117.55 378.5 122.8 376.75 125.05 372.75 147.55 Q365.05 169.1 348.75 186.55 L348.25 189.55 Q307.45 238.85 244.95 245.6 L267.15 221.35 285.45 186.8 285.7 183.05 287.45 180.8 289.05 136.65 287.7 135.05 287.7 129.05 275.95 116.35 Q301.4 112.3 323.05 98.3 L325.7 96.55 343.75 66.55 343.75 63.55 345.75 60.55 345.75 57.55 347.75 54.55 347.75 50.05 351.4 42.15 355.25 42.05 M224.7 47.05 L216.7 62.05 Q225.25 79.6 240.6 92.05 253.6 112.2 242.35 133.1 236.1 144.75 223.6 149.4 187.7 162.85 159.1 136.8 150.9 129.3 146.6 119.15 142.75 110.0 139.7 101.05 L145.7 65.05 Q170.4 34.95 208.55 38.65 214.8 39.2 220.7 41.55 L224.7 47.05" fill="#ff4900" fill-opacity="0.3019608" fill-rule="evenodd" stroke="none"/>
  </g>
</svg>
