<?xml version="1.0" encoding="UTF-8" standalone="no"?>
<svg xmlns:ffdec="https://www.free-decompiler.com/flash" xmlns:xlink="http://www.w3.org/1999/xlink" ffdec:objectType="shape" height="174.6px" width="157.35px" xmlns="http://www.w3.org/2000/svg">
  <g transform="matrix(1.0, 0.0, 0.0, 1.0, 266.3, 83.15)">
    <path d="M-164.9 -81.95 Q-138.6 -82.0 -130.55 -58.35 -128.4 -52.05 -128.6 -45.9 -118.85 -45.2 -115.35 -36.4 -114.65 -34.6 -114.25 -32.75 -106.8 -27.85 -109.85 -16.2 -111.65 -9.5 -117.35 -7.15 L-119.15 -4.8 -118.85 -4.25 Q-116.6 0.3 -116.05 5.2 -110.45 10.8 -113.0 21.45 -115.8 33.3 -124.1 34.9 -125.15 41.3 -129.2 46.7 -135.15 54.75 -144.9 56.05 L-146.8 55.85 Q-153.2 61.9 -163.75 64.1 L-171.85 64.45 Q-182.15 63.1 -185.0 56.7 L-189.8 56.3 Q-189.0 58.4 -188.9 60.8 -178.65 78.3 -196.45 88.9 -200.3 91.2 -204.9 91.05 -218.65 90.55 -223.05 82.2 L-229.9 82.45 Q-233.65 87.0 -241.3 89.85 -255.6 95.3 -262.9 82.15 -266.65 75.35 -266.25 67.55 -265.45 52.25 -251.3 48.55 -249.4 43.55 -245.7 39.7 -246.6 31.55 -240.1 23.9 -244.95 8.65 -236.7 -6.15 -234.7 -9.85 -233.2 -13.85 -227.5 -29.15 -219.1 -43.15 L-217.65 -45.45 Q-219.1 -53.05 -214.9 -59.35 L-213.55 -61.25 -213.8 -62.6 Q-216.4 -81.15 -196.65 -82.55 L-193.9 -82.95 Q-187.2 -83.65 -180.75 -82.0 -177.1 -81.05 -174.35 -78.65 -170.45 -81.55 -164.9 -81.95" fill="#0000ff" fill-rule="evenodd" stroke="none"/>
  </g>
</svg>
