<?xml version="1.0" encoding="UTF-8" standalone="no"?>
<svg xmlns:ffdec="https://www.free-decompiler.com/flash" xmlns:xlink="http://www.w3.org/1999/xlink" ffdec:objectType="shape" height="202.05px" width="169.7px" xmlns="http://www.w3.org/2000/svg">
  <g transform="matrix(1.0, 0.0, 0.0, 1.0, 260.2, 120.75)">
    <path d="M-125.75 -7.2 L-125.8 -7.6 -125.75 -7.95 -125.65 -8.35 -125.25 -8.7 -124.8 -9.1 -123.9 -9.25 -123.9 -9.35 -121.4 -8.85 -119.8 -8.3 -119.8 -8.45 -118.9 -9.6 -118.2 -10.1 -118.4 -10.1 -118.9 -10.15 -119.8 -10.35 -120.25 -10.75 -120.6 -11.1 -120.8 -11.45 -120.8 -11.85 -120.75 -12.2 -120.65 -12.6 -119.85 -13.8 -118.75 -14.75 -119.1 -15.1 -119.3 -15.45 -119.25 -15.85 -119.05 -16.55 -118.65 -17.35 Q-117.6 -18.0 -116.3 -18.3 -115.45 -18.5 -114.75 -19.1 L-114.5 -19.15 -113.9 -19.3 -113.9 -19.35 -113.0 -19.1 -112.5 -18.7 -112.4 -18.55 -112.25 -18.95 -112.25 -19.7 -112.25 -21.6 -112.25 -24.6 -112.25 -24.95 -112.55 -25.75 -113.3 -27.6 -113.4 -27.75 -113.55 -27.25 -114.25 -25.3 -113.5 -25.1 -113.0 -24.7 -112.8 -24.35 -112.65 -23.95 -112.5 -23.2 -112.55 -22.85 -112.65 -22.45 -112.75 -22.1 -113.6 -21.4 -113.65 -21.35 -113.6 -20.7 -113.65 -20.35 -113.9 -19.95 -114.2 -19.6 -114.5 -19.35 -116.3 -18.8 -118.8 -18.85 -119.25 -19.25 -119.6 -19.6 -119.8 -19.95 -119.8 -20.35 -119.75 -20.7 -119.65 -21.1 -119.55 -21.45 -119.15 -21.8 -118.5 -22.15 -117.75 -22.4 -117.75 -22.7 -117.5 -23.45 -117.1 -23.8 -116.4 -24.2 -116.75 -24.35 -117.25 -24.75 -117.65 -25.1 -117.75 -25.85 -117.8 -26.95 -117.75 -27.7 -117.65 -28.1 -117.25 -28.85 -117.1 -29.15 -117.4 -29.1 -118.3 -29.35 -118.75 -29.75 -119.15 -30.1 -119.35 -31.2 -119.15 -33.1 -119.05 -33.45 -118.65 -33.85 -118.5 -33.9 -118.5 -33.95 -118.15 -34.35 -117.75 -34.6 -117.5 -34.7 -116.9 -34.8 -116.9 -34.85 -114.9 -34.7 -112.65 -33.85 -112.25 -33.45 -111.9 -33.1 -111.5 -32.7 -111.35 -32.35 -110.65 -31.15 Q-109.95 -30.35 -109.55 -29.4 L-109.15 -28.6 -109.05 -28.2 -109.0 -27.85 -109.0 -27.45 -108.9 -27.1 -108.75 -26.7 -108.65 -26.35 -108.5 -25.95 -108.5 -24.45 -108.5 -20.7 -108.5 -17.7 -109.0 -16.5 Q-109.5 -15.2 -110.15 -13.95 L-111.4 -11.35 -111.75 -10.95 -112.15 -10.6 -112.5 -10.2 -112.7 -9.85 -113.2 -9.15 -114.25 -7.95 -114.65 -7.6 -115.35 -7.15 -116.15 -6.55 -116.15 -6.45 -116.0 -6.1 -116.0 -5.7 -116.0 -5.35 -115.5 -4.2 -114.65 -1.95 -114.5 -1.6 -114.5 -1.2 -114.5 -0.85 -114.35 -0.5 -114.15 -0.1 -114.0 0.3 -114.0 0.65 -114.0 1.05 -113.9 1.4 -113.75 1.8 -113.65 2.15 -113.5 2.55 -113.5 2.9 -113.5 3.3 -113.5 3.65 -113.5 4.05 -113.4 4.4 -113.25 4.8 -113.15 5.15 -113.0 5.55 -113.0 5.9 -113.0 6.3 -112.75 7.05 -112.3 8.2 -112.0 8.9 -112.0 9.3 -112.0 9.65 -112.0 10.4 -112.0 11.15 -111.85 11.55 -111.65 11.95 -111.5 12.3 -111.5 12.65 -111.5 13.05 -111.4 13.4 -111.25 13.8 -110.9 14.55 -110.65 14.9 -110.45 17.55 -110.5 20.9 -110.5 21.3 -110.65 21.65 -110.85 22.05 -111.0 22.4 -111.05 23.15 -111.05 24.3 -111.0 25.05 -111.15 25.4 -111.25 25.8 -111.4 26.15 -111.5 26.55 -111.5 26.9 -111.5 27.3 -111.5 27.65 -112.3 29.5 -113.4 32.15 -114.15 33.1 -114.15 33.15 -114.4 33.55 -114.7 33.9 -115.0 34.15 -115.25 34.2 Q-117.95 36.4 -121.7 36.35 L-121.65 36.55 -121.55 36.95 -121.55 37.3 -121.55 37.65 -121.4 38.05 -121.2 38.45 -121.05 38.8 -121.05 39.15 -121.05 39.55 -121.05 40.3 -121.05 41.05 -120.9 41.4 -120.8 41.8 -120.65 42.15 -120.55 42.55 -120.55 42.9 -120.55 43.3 -120.55 43.65 -120.65 44.05 -120.8 44.4 -121.05 44.8 -121.05 45.15 -121.05 45.55 -121.5 46.6 -122.2 48.55 -122.3 48.9 -123.1 50.1 -124.3 51.9 Q-131.6 61.9 -142.85 58.55 L-143.05 58.7 -143.9 58.95 -146.25 58.05 -149.3 56.7 -149.8 56.8 -150.4 56.95 -151.3 56.7 -151.75 56.3 -152.15 55.9 -152.25 55.55 -152.3 55.15 -152.3 54.8 -152.3 54.4 -152.25 54.05 -152.15 53.65 -151.75 53.3 -151.3 52.9 -150.4 52.75 -150.4 52.65 Q-148.35 52.45 -146.6 53.6 L-145.9 54.0 -145.8 53.95 -145.5 53.8 -144.9 53.65 -145.15 53.4 -145.25 53.05 -145.3 52.3 -145.25 51.95 -145.15 51.15 -144.75 50.8 -144.3 50.4 -143.4 50.25 -143.4 50.15 -142.55 50.4 -141.6 51.15 -140.4 51.9 -140.25 52.3 -140.05 52.65 -139.15 53.15 -138.75 52.8 -138.45 52.55 -138.95 52.0 -139.3 51.3 -139.3 50.9 -139.25 50.55 -139.15 50.15 -138.75 49.8 -138.3 49.4 -137.4 49.25 -137.4 49.15 -135.2 50.05 -135.15 49.8 -134.9 49.4 -134.5 49.1 Q-134.3 48.9 -134.0 48.85 L-133.4 48.65 -133.15 48.65 -132.75 48.3 -132.3 47.9 -131.4 47.75 -131.4 47.65 -129.05 48.0 -126.9 48.35 -126.75 48.1 -126.6 47.9 Q-127.65 47.9 -128.55 47.35 L-130.05 46.55 -130.8 45.85 Q-131.4 45.4 -131.3 44.65 L-131.25 44.3 -131.1 43.95 -130.65 43.15 -130.25 42.95 -130.0 42.85 -129.4 42.75 -129.4 42.65 -128.9 42.7 -128.05 42.9 -127.8 43.1 -127.8 42.4 -127.8 42.3 -129.3 42.15 -129.75 41.8 -130.15 41.4 -130.55 41.05 -131.3 40.7 -131.9 40.45 -132.8 40.15 -133.25 39.8 -133.6 39.4 -133.8 39.05 -133.8 38.65 -133.75 38.3 -133.65 37.9 -133.5 37.55 -133.15 37.15 -132.75 36.95 -132.5 36.85 -131.9 36.75 -131.9 36.65 Q-130.1 36.6 -128.55 37.4 L-128.7 37.2 -129.15 36.45 -129.4 36.15 -129.55 36.1 -130.4 35.9 -131.3 35.65 -131.75 35.3 -132.1 34.9 -132.3 34.55 -132.3 34.15 -132.25 33.8 -132.15 33.4 -132.0 33.1 -132.05 33.1 -133.05 32.8 -133.3 32.8 -133.9 32.9 -134.8 32.65 -135.25 32.3 -135.65 31.9 -135.75 31.55 -135.8 31.15 -135.8 30.8 -135.8 30.4 -135.75 30.05 -135.65 29.65 -135.25 29.3 -135.0 29.1 -136.1 28.3 Q-137.15 27.6 -137.8 26.55 L-139.2 25.45 -140.4 23.9 -140.65 23.55 -141.75 22.75 -142.85 21.6 -143.3 20.9 -143.3 20.55 -143.25 20.15 -143.15 19.8 -142.9 19.4 -142.5 19.1 Q-142.3 18.9 -142.0 18.85 L-141.4 18.75 -141.4 18.65 -140.55 18.95 -139.9 19.3 Q-139.55 19.5 -139.15 19.65 L-138.85 20.0 -138.05 20.8 -137.3 21.55 -137.15 21.9 -136.9 22.3 -136.65 22.65 -136.25 23.0 -135.75 23.35 -135.75 22.55 -135.65 21.8 -135.4 21.45 -135.0 21.1 -134.55 20.8 -133.9 20.75 -133.9 20.65 -133.05 20.9 -132.55 21.3 -132.3 21.7 -132.15 22.05 -131.9 22.4 Q-130.4 24.2 -128.3 25.1 L-126.3 26.05 -125.25 26.25 -125.25 26.15 -125.15 25.8 -124.9 25.4 -124.5 25.1 Q-124.3 24.9 -124.0 24.85 L-123.4 24.75 -123.4 24.65 Q-122.2 25.0 -121.1 25.6 L-120.5 25.95 -120.35 25.4 -120.15 24.65 -119.9 24.45 -120.0 24.45 -120.55 24.65 -121.4 24.9 -122.3 24.65 -122.75 24.3 -123.15 23.9 -123.25 23.55 -123.3 22.8 -123.25 22.05 -123.15 21.3 -122.9 20.95 -122.5 20.6 -122.05 20.3 -121.4 20.25 -121.4 20.15 -119.4 20.25 -118.55 20.4 -117.6 21.1 -117.3 21.3 -117.2 20.2 -120.3 19.65 -120.75 19.3 -121.1 18.9 -121.3 18.55 -121.3 18.15 -121.25 17.8 -121.15 17.4 -121.0 17.05 -120.65 16.65 -120.25 16.4 -120.0 16.35 -119.4 16.25 -119.4 16.15 -116.95 16.35 -115.35 16.7 -115.65 16.4 -116.4 15.65 -117.5 13.85 -119.0 11.55 -119.55 10.8 -121.05 9.9 Q-122.15 9.2 -122.65 8.15 L-122.75 7.8 -122.8 7.4 -122.75 7.05 -122.65 6.65 -122.25 6.3 -121.8 5.9 -120.9 5.75 -120.9 5.65 -120.4 5.7 -119.55 5.9 -118.25 7.0 -117.95 7.3 Q-118.4 6.3 -119.3 5.6 -121.1 4.2 -122.3 2.4 L-122.3 2.05 -122.25 1.65 -122.15 1.3 -121.9 0.9 -121.5 0.55 -121.0 0.35 -120.4 0.25 -120.4 0.15 -119.9 0.2 -119.05 0.4 -118.1 1.25 -118.15 1.15 -118.3 0.8 -118.3 0.4 -118.3 0.05 -118.3 -0.35 -119.1 -2.25 -120.05 -4.6 -122.95 -4.85 Q-124.75 -5.35 -125.65 -6.85 L-125.75 -7.2 M-115.55 -30.75 L-115.6 -30.65 -115.5 -30.7 -115.55 -30.75 M-115.65 -13.95 L-115.5 -13.2 -115.55 -12.85 -115.65 -12.45 -115.7 -12.25 -115.4 -12.6 -114.95 -13.75 -114.45 -14.6 -115.25 -14.2 -115.7 -14.15 -115.65 -13.95 M-146.9 12.25 L-146.05 12.4 -145.55 12.8 -145.3 13.2 -145.15 13.55 -145.05 13.9 -145.05 14.3 -145.05 14.65 -145.15 15.05 -145.3 15.4 -145.55 15.75 -146.05 16.15 -146.9 16.4 -147.8 16.3 -149.4 16.4 -150.3 16.15 -150.75 15.75 -151.15 15.4 -151.25 15.05 -151.3 14.65 -151.25 13.9 -151.15 13.15 -150.75 12.8 -150.3 12.4 -149.4 12.25 -149.4 12.15 -146.9 12.25 M-125.5 30.25 L-126.75 29.85 -126.7 29.95 -126.55 30.3 -125.5 30.25" fill="#ff6600" fill-rule="evenodd" stroke="none"/>
    <path d="M-211.85 -113.0 L-211.7 -113.35 -211.7 -113.75 -211.7 -114.1 -211.7 -114.5 -211.3 -114.85 -210.95 -115.25 -210.8 -115.6 Q-209.95 -116.55 -208.5 -116.95 L-205.3 -118.0 Q-202.5 -118.8 -200.05 -117.55 -198.25 -116.65 -196.3 -116.1 L-196.4 -115.25 -197.45 -115.25 -200.35 -114.45 -201.7 -113.5 -203.9 -112.55 Q-208.0 -110.2 -211.95 -112.25 L-211.85 -113.0 M-215.05 -105.55 L-214.8 -105.3 -214.7 -104.6 Q-214.2 -104.15 -214.1 -103.5 L-213.95 -102.75 Q-214.1 -102.55 -214.35 -102.45 L-215.45 -102.1 -215.65 -102.3 -216.05 -102.9 -216.2 -103.25 -216.05 -104.4 -215.3 -105.5 -215.05 -105.55 M-196.15 -99.5 L-195.95 -99.75 -195.8 -100.1 -195.3 -100.5 Q-192.65 -101.25 -193.55 -100.1 -194.1 -99.5 -194.85 -99.05 -196.55 -98.0 -197.7 -98.35 L-197.0 -99.0 -196.15 -99.5 M-180.45 -32.65 L-180.15 -33.6 -179.95 -33.7 -179.15 -31.6 -178.5 -29.85 -178.45 -29.45 -178.55 -29.05 -178.75 -28.55 -179.05 -28.2 -179.6 -27.9 -180.9 -27.9 -181.05 -27.95 -181.1 -28.2 -181.25 -28.5 -181.35 -28.9 -181.45 -29.25 -181.4 -29.65 -181.35 -30.05 -181.35 -30.5 -180.85 -31.4 -180.65 -31.85 -180.45 -32.65 M-145.05 -99.1 L-144.05 -99.65 -141.4 -100.75 -140.8 -101.0 -137.15 -101.0 -136.15 -100.5 -134.4 -99.7 -134.3 -99.6 -133.65 -99.0 -132.9 -98.25 -132.55 -97.85 -132.3 -97.5 -132.15 -97.15 -131.9 -96.75 -131.65 -96.35 -131.65 -96.0 -131.6 -95.65 -131.4 -95.25 -131.1 -94.85 -130.65 -94.15 -130.25 -93.35 -130.15 -93.0 -130.15 -92.6 -130.15 -92.25 -130.0 -91.85 -129.8 -91.45 -129.65 -91.1 -129.65 -90.75 -129.65 -90.35 -129.65 -90.0 -129.65 -89.6 -129.65 -89.25 -129.8 -88.9 -130.85 -87.0 -131.95 -84.75 -132.0 -84.6 -132.15 -84.5 -132.15 -84.35 -132.15 -84.1 -132.15 -84.0 -132.2 -83.75 -132.3 -83.35 -132.65 -83.0 -133.05 -82.6 -133.7 -81.15 Q-134.0 -80.45 -134.65 -80.1 L-134.65 -80.6 -134.65 -82.1 -134.65 -82.85 -134.45 -83.25 -134.3 -83.6 -134.15 -84.0 -134.15 -84.35 -134.15 -84.55 -134.15 -85.25 -134.15 -87.1 -134.15 -87.5 -133.9 -87.85 -133.7 -88.25 -133.65 -88.6 -133.65 -89.75 -133.65 -91.25 -133.65 -92.75 -133.65 -93.1 -133.8 -93.5 -134.1 -94.25 -134.35 -94.95 -134.55 -95.35 -135.3 -96.05 Q-136.0 -96.6 -136.8 -96.95 L-137.4 -97.25 -141.4 -97.25 -143.4 -96.65 -146.15 -95.45 -146.55 -95.1 -146.6 -94.75 -146.65 -94.0 -146.6 -93.25 -146.55 -92.85 -146.15 -92.55 Q-145.8 -92.35 -145.4 -92.25 L-144.8 -92.55 -144.4 -92.85 -144.3 -92.95 -144.15 -92.6 -144.15 -91.85 -144.15 -91.1 -144.15 -90.35 -144.3 -90.0 -144.95 -88.55 -145.3 -87.35 -146.4 -86.35 -148.3 -84.35 -148.85 -84.1 -148.5 -84.9 -148.15 -85.6 -148.15 -87.1 -148.15 -88.6 -148.15 -90.1 -148.3 -90.45 -148.5 -90.85 -148.65 -91.25 -148.65 -91.6 -148.65 -92.0 -148.65 -92.35 -148.65 -92.75 -150.85 -96.35 -151.15 -96.75 -150.9 -96.75 -149.45 -97.3 Q-147.75 -98.05 -145.9 -98.4 L-145.65 -98.5 -145.4 -98.75 -145.05 -99.1 M-140.05 -38.3 L-139.45 -38.05 -139.5 -37.65 -139.6 -37.3 -139.9 -36.95 -140.2 -36.65 -140.3 -36.25 -140.5 -35.2 -140.9 -33.3 -141.05 -32.6 -140.95 -32.2 -140.85 -31.8 -140.75 -31.4 -140.85 -31.0 -140.9 -30.7 -141.0 -30.3 -140.8 -29.85 -140.65 -29.45 -140.7 -29.1 -140.8 -28.7 -140.6 -28.25 -140.45 -27.9 -140.5 -27.55 -140.65 -26.8 -140.75 -26.4 -140.8 -26.05 -141.75 -24.75 -142.3 -23.65 -142.55 -23.35 -145.15 -21.55 -146.5 -20.7 -147.75 -20.7 -148.55 -20.6 -151.15 -21.1 -151.75 -21.4 -152.75 -21.9 -152.85 -21.95 -152.85 -22.2 -153.25 -23.45 -153.35 -24.25 -153.35 -24.6 -153.1 -26.1 -152.65 -27.15 -152.4 -27.45 -152.1 -27.15 -151.8 -26.75 -151.5 -26.25 -150.8 -25.85 -150.15 -26.05 -149.7 -26.3 -149.4 -26.65 -149.3 -26.95 -149.05 -27.05 -148.85 -27.4 -148.65 -27.8 -148.55 -28.15 -148.5 -28.45 -146.8 -31.2 -146.3 -32.25 -144.85 -34.6 -144.3 -35.3 -143.5 -35.95 -142.85 -36.55 -142.65 -36.9 -142.15 -37.15 -141.3 -37.75 -140.85 -38.05 -140.05 -38.3 M-153.25 -1.9 L-152.95 -2.65 -152.75 -3.4 Q-152.3 -3.25 -152.1 -2.3 L-151.25 -0.4 -151.25 0.0 -151.25 0.35 -150.45 1.9 Q-149.85 2.95 -149.65 4.1 L-148.9 4.85 -147.75 6.0 -146.25 6.5 -145.5 7.25 -142.5 10.25 -142.3 10.65 -142.25 11.0 -141.9 11.35 -141.5 11.75 -141.2 12.45 -140.75 13.25 -140.75 14.0 -140.75 14.75 -140.6 15.1 -140.4 15.5 -140.25 15.85 -140.2 17.75 Q-140.15 18.7 -140.4 19.6 L-142.4 20.0 -143.4 19.5 -145.15 18.6 -145.75 18.0 -146.5 17.25 -147.45 15.35 -149.25 12.0 -149.25 11.6 -149.25 11.25 -149.7 10.45 -150.0 9.75 -150.4 9.4 -151.25 8.25 -151.8 6.4 -152.75 3.75 -152.75 2.6 -152.75 1.5 -153.0 0.75 -153.25 0.0 -153.25 -0.4 -153.25 -1.15 -153.25 -1.9 M-108.25 -13.75 L-108.15 -13.4 -107.0 -12.25 -106.25 -11.5 -105.5 -11.25 -102.75 -10.15 -102.75 -9.4 -102.75 -9.0 -102.75 -8.65 -103.0 -8.25 -103.25 -7.85 -103.4 -7.5 -104.75 -7.05 -107.25 -6.0 -107.5 -5.75 -107.9 -5.4 -108.75 -5.0 -109.9 -3.9 -110.65 -3.15 -110.75 -2.75 -110.9 -2.4 -111.25 -2.0 -111.65 -1.65 -111.75 -1.25 -111.9 -0.9 -112.6 -0.1 -113.25 0.6 -113.25 1.0 -113.25 1.35 -113.5 1.75 -113.75 2.1 -113.75 2.5 -113.75 2.85 -114.0 3.25 -114.25 3.6 -114.25 4.0 -114.25 4.35 -114.9 5.5 -115.25 6.25 -115.25 6.6 -115.25 7.0 -115.25 7.35 -115.5 7.75 -115.7 8.15 -115.75 8.5 -115.8 11.5 -115.65 14.1 Q-111.75 15.6 -107.5 16.25 L-105.0 16.1 Q-103.15 15.2 -101.65 13.85 -99.05 11.5 -97.75 8.1 L-97.75 7.75 -97.75 7.35 -97.75 7.0 -96.95 5.45 Q-96.6 4.65 -95.9 4.1 L-95.8 4.85 -95.75 5.25 -95.75 5.6 -95.9 6.0 -96.1 6.4 -96.25 6.75 -96.25 7.5 -96.25 8.6 -96.25 9.35 -96.5 9.75 -96.7 10.15 -96.75 10.5 -96.75 10.85 -96.75 12.75 -96.75 13.85 -97.0 14.25 -97.2 14.65 -97.25 15.0 -97.25 15.35 -97.25 17.25 -97.25 18.75 -97.1 19.1 -96.9 19.5 -96.75 19.85 -96.75 20.25 -96.75 22.1 -96.75 23.6 -97.1 24.4 -97.3 25.1 -97.4 25.5 -98.45 26.95 -98.9 28.1 -99.25 28.5 -99.65 28.85 -99.75 29.25 -99.9 29.6 -101.4 31.1 -104.4 34.1 Q-109.25 37.0 -114.75 38.0 L-117.9 38.0 Q-120.95 38.25 -123.2 36.75 L-120.5 36.75 -119.0 36.25 -118.25 36.0 -118.0 35.75 -117.25 35.0 -116.5 34.25 -116.35 33.9 -116.05 33.1 -115.75 32.35 -115.75 31.25 -115.75 29.75 -115.75 28.25 -116.0 27.85 -116.2 27.45 -116.25 27.1 -116.25 26.75 -116.25 26.35 -116.4 26.0 -117.8 23.4 -119.15 21.1 -120.35 19.95 -121.0 19.25 Q-120.85 18.55 -119.55 17.65 L-118.25 16.25 -118.25 15.85 -118.25 15.5 -118.0 15.1 -117.8 14.7 -117.75 14.35 -117.75 14.0 -117.7 13.65 -117.55 13.25 -117.4 12.85 -117.25 12.5 -117.25 11.0 -117.25 8.75 -117.25 6.85 -117.4 6.5 -117.6 6.1 -117.75 5.75 -117.75 5.35 -117.75 5.0 -117.75 4.6 -117.75 4.25 -117.75 3.85 -117.9 3.5 -118.1 3.1 -118.25 2.75 -118.25 2.35 -118.25 2.0 -118.25 1.6 -118.25 1.25 -118.7 0.45 -119.5 -0.9 -120.25 -2.5 -120.2 -2.9 -118.5 -2.75 -116.5 -2.75 -116.1 -2.95 -115.5 -2.75 -114.9 -3.05 -114.5 -3.4 -113.65 -4.85 -113.15 -5.65 -112.5 -5.9 -112.15 -6.15 -111.0 -7.25 -108.9 -9.5 Q-108.65 -11.0 -108.85 -12.5 -109.1 -14.55 -108.25 -14.9 L-108.25 -14.15 -108.25 -13.75 M-104.75 -44.0 L-105.0 -43.75 -105.4 -43.4 -106.0 -43.1 -106.4 -42.9 -107.15 -42.15 -107.9 -41.4 -108.75 -40.95 -109.15 -40.65 -109.5 -40.25 -109.75 -39.85 -109.9 -39.5 -110.15 -39.15 -110.5 -38.75 -110.9 -38.4 -111.25 -38.0 -113.5 -38.15 -113.8 -38.5 -114.1 -38.9 -114.25 -39.25 -114.25 -40.0 -114.25 -40.75 -114.25 -41.5 -114.0 -41.9 -113.8 -42.25 -113.65 -42.65 -112.9 -43.4 -112.15 -44.15 -111.5 -44.4 -111.1 -44.6 -110.5 -44.9 -104.75 -44.0 M-161.25 37.1 L-161.25 36.75 -161.25 36.35 -161.25 36.0 Q-160.65 35.7 -160.4 36.55 -160.15 37.65 -159.4 38.5 L-159.3 38.85 -159.25 39.25 -159.15 39.6 -158.75 40.0 -158.4 40.35 -158.25 40.7 -157.75 41.5 -157.0 41.75 -156.9 41.85 -156.65 42.1 -156.25 42.5 -155.55 42.8 -154.4 43.35 -154.15 43.6 -153.75 44.0 Q-151.55 45.15 -149.0 45.75 -146.0 45.6 -143.0 45.75 L-142.35 45.55 Q-141.3 45.4 -140.5 44.75 L-139.9 46.15 -138.75 48.0 -137.9 48.35 -137.5 48.75 -136.75 49.5 -133.5 50.75 -131.5 50.75 -130.85 50.55 -129.25 50.0 -129.0 49.75 -128.65 49.35 -128.0 49.1 Q-126.5 48.4 -125.4 47.1 L-125.3 47.5 -125.25 47.85 -125.25 48.25 -124.95 49.0 -124.75 49.75 -124.9 50.1 -125.25 50.85 -125.25 51.6 -125.25 52.35 -125.5 52.75 -125.75 53.1 -125.75 53.5 -125.75 53.85 -126.5 54.95 -126.9 56.1 -127.65 56.85 -129.9 59.1 Q-134.05 61.4 -138.75 62.0 L-139.9 62.0 Q-142.4 61.35 -144.75 60.5 L-145.0 60.25 Q-145.7 59.5 -146.65 59.1 L-146.9 58.35 -146.9 57.6 -146.55 57.2 -146.25 56.5 -145.9 56.1 -145.5 55.75 Q-145.3 54.9 -144.75 54.25 -144.0 53.3 -144.5 52.35 L-144.9 52.05 -145.5 51.75 -146.5 51.75 -147.25 52.0 -150.9 52.0 -154.65 51.1 -154.9 50.9 -156.15 50.1 -157.45 49.1 Q-158.9 48.35 -159.75 46.85 L-159.8 46.5 -159.9 46.1 -160.0 45.75 -160.4 45.35 -160.75 45.0 -160.75 44.6 -160.75 44.25 -161.0 43.85 -161.25 43.5 -161.25 43.1 -161.25 42.75 -161.45 42.35 -161.75 41.6 -161.75 40.1 -161.75 38.25 -161.6 37.9 -161.4 37.5 -161.25 37.1 M-175.65 14.8 L-175.5 15.05 Q-173.45 16.15 -172.8 16.15 L-173.7 16.5 -175.15 17.05 -177.3 17.05 -177.9 16.75 -178.05 16.65 -178.3 16.4 -178.5 15.65 -178.3 14.9 -178.15 14.55 -177.4 14.25 -176.8 14.05 -175.85 14.2 -175.7 14.4 -175.65 14.8 M-227.25 23.4 L-226.75 22.75 Q-225.2 23.15 -223.8 23.9 L-223.55 24.15 -223.2 24.55 -222.45 24.8 -222.3 24.9 -221.65 25.5 Q-221.05 25.95 -221.2 26.65 -221.5 27.9 -222.8 26.9 L-224.35 25.7 Q-225.7 24.35 -227.25 23.4 M-210.4 58.8 Q-208.9 59.35 -207.65 60.15 L-207.2 60.85 -206.3 62.05 -206.2 62.4 -206.15 62.8 -206.05 63.15 -205.65 63.5 -203.9 63.65 Q-203.4 63.4 -203.0 62.95 L-201.9 61.8 -200.95 59.45 -199.4 56.15 -199.35 56.1 Q-199.05 57.5 -199.1 59.3 L-199.15 63.4 -199.4 63.8 -199.6 64.2 -199.65 64.55 -199.65 64.9 -199.65 65.3 -199.65 65.65 -199.95 66.45 Q-200.15 67.1 -200.65 67.55 L-200.65 67.9 -200.7 68.3 -200.8 68.65 -201.15 69.05 -201.65 69.8 -201.7 70.15 -201.8 70.55 -202.05 70.9 -202.4 71.3 -203.55 72.4 -203.65 72.8 -203.85 73.15 -204.15 73.55 -204.3 73.65 -204.35 73.6 -204.9 73.3 -205.4 73.45 -205.8 73.7 -205.85 73.75 -206.9 73.9 -207.3 74.15 -208.2 74.55 -215.55 74.5 -215.85 74.4 -215.7 73.65 -215.7 73.4 Q-215.1 72.95 -213.2 73.05 L-212.95 72.8 -212.55 72.4 -211.95 72.15 -211.7 72.05 -209.45 70.05 Q-207.35 68.3 -206.65 65.8 L-206.85 65.05 -207.15 64.3 -207.15 63.9 -207.2 63.55 -207.3 63.15 -207.5 62.85 -208.2 62.05 -208.3 61.65 -208.45 61.3 -209.2 60.55 -211.7 58.3 -210.4 58.8 M-238.95 67.65 L-238.85 67.6 Q-238.55 68.05 -238.65 68.9 L-238.7 70.8 -238.1 71.85 Q-237.7 72.4 -237.7 73.05 L-237.3 73.4 -236.95 73.8 -236.6 74.5 -236.3 74.9 -235.95 75.3 -235.2 76.05 Q-234.8 76.15 -234.45 76.35 L-234.3 76.4 -233.65 77.05 Q-233.15 77.5 -233.05 78.15 L-236.3 78.55 -236.95 78.35 Q-238.45 77.95 -239.7 77.05 L-240.2 76.3 -240.7 75.55 -240.7 75.15 -240.7 74.8 -240.95 74.4 -241.15 74.05 -241.2 73.65 -240.45 71.0 Q-239.9 69.25 -238.95 67.65 M-173.15 62.85 L-172.35 62.55 -171.5 62.2 -170.9 62.0 -170.65 61.95 -170.25 62.0 -168.75 62.55 -167.75 63.0 -173.15 62.85" fill="#ffcc66" fill-rule="evenodd" stroke="none"/>
    <path d="M-205.95 -120.75 L-199.95 -120.75 -199.3 -120.45 -195.85 -118.85 Q-194.5 -118.25 -193.4 -117.25 L-192.8 -117.0 -192.5 -116.6 -191.7 -115.5 -191.05 -114.35 -190.65 -114.0 -190.0 -113.2 -189.65 -112.5 -189.8 -112.1 -189.95 -111.75 -190.2 -111.5 -190.4 -111.35 -190.9 -111.3 -191.9 -111.3 -192.9 -111.25 Q-196.4 -113.2 -199.95 -111.4 -204.2 -109.15 -208.95 -108.25 L-209.4 -108.3 -213.15 -109.6 -213.55 -109.85 -213.9 -110.25 -214.3 -111.0 -214.7 -111.75 -214.7 -112.1 -214.7 -112.5 -214.7 -112.85 -214.7 -113.25 -214.55 -113.6 -214.35 -114.0 -214.2 -114.35 -214.2 -114.75 -214.2 -115.1 -214.1 -115.45 -213.85 -115.9 -213.7 -116.25 -213.55 -116.6 -213.2 -117.0 -212.45 -117.75 -211.7 -118.5 -210.95 -118.75 -208.7 -119.5 -208.3 -119.85 -207.95 -120.1 -207.45 -120.25 -205.95 -120.7 -205.95 -120.75 M-196.3 -116.1 Q-198.25 -116.65 -200.05 -117.55 -202.5 -118.8 -205.3 -118.0 L-208.5 -116.95 Q-209.95 -116.55 -210.8 -115.6 L-210.95 -115.25 -211.3 -114.85 -211.7 -114.5 -211.7 -114.1 -211.7 -113.75 -211.7 -113.35 -211.85 -113.0 -211.95 -112.6 -211.95 -112.25 Q-208.0 -110.2 -203.9 -112.55 L-201.7 -113.5 -200.35 -114.45 -197.45 -115.25 -196.4 -115.25 -195.8 -115.0 -194.65 -115.0 -194.95 -115.2 -195.65 -115.5 -196.05 -115.85 -196.3 -116.1 M-216.95 -107.75 L-215.0 -107.95 -213.95 -108.25 -213.3 -108.0 Q-212.45 -106.95 -212.0 -105.7 L-211.2 -103.5 -211.2 -103.1 -211.2 -102.35 -211.3 -101.6 -211.5 -101.3 -212.2 -100.5 -212.55 -100.1 -212.95 -99.9 -213.55 -99.6 -213.95 -99.35 -214.45 -99.3 -215.45 -99.25 -216.95 -99.75 -217.7 -100.0 -218.0 -100.4 -218.35 -101.1 -218.7 -101.5 -218.7 -102.6 -218.7 -104.1 -218.7 -104.5 -218.6 -104.85 -218.45 -105.25 -218.2 -105.6 -218.2 -106.0 -218.15 -106.35 -218.05 -107.1 -217.65 -107.45 -216.95 -107.75 M-215.05 -105.55 L-215.3 -105.5 -216.05 -104.4 -216.2 -103.25 -216.05 -102.9 -215.65 -102.3 -215.45 -102.1 -214.35 -102.45 Q-214.1 -102.55 -213.95 -102.75 L-214.1 -103.5 Q-214.2 -104.15 -214.7 -104.6 L-214.8 -105.3 -215.05 -105.55 M-198.4 -101.25 L-197.3 -102.35 -196.9 -102.6 -195.9 -103.1 -195.4 -103.25 -192.4 -103.25 -191.8 -103.0 -190.4 -102.3 -189.65 -101.75 -189.65 -101.35 Q-189.65 -100.8 -189.95 -100.25 L-190.55 -99.1 -190.95 -98.9 -191.55 -98.6 -192.7 -97.55 Q-194.5 -96.0 -196.8 -95.45 L-197.45 -95.25 -197.9 -95.3 -200.15 -96.1 -200.55 -96.35 -200.65 -96.75 -200.7 -97.5 -200.7 -98.25 -200.7 -99.0 -200.3 -99.35 -198.4 -101.25 M-196.15 -99.5 L-197.0 -99.0 -197.7 -98.35 Q-196.55 -98.0 -194.85 -99.05 -194.1 -99.5 -193.55 -100.1 -192.65 -101.25 -195.3 -100.5 L-195.8 -100.1 -195.95 -99.75 -196.15 -99.5 M-162.4 -116.25 L-161.9 -116.25 -161.3 -116.0 -160.7 -115.2 -160.3 -114.5 -160.15 -114.1 -160.15 -112.6 -160.15 -111.1 -160.15 -110.35 Q-160.55 -109.35 -161.25 -108.55 L-163.4 -106.35 -165.4 -106.25 -166.4 -106.75 -167.55 -107.35 -167.7 -108.5 -167.65 -109.6 -167.65 -110.75 -167.05 -112.2 -166.5 -113.75 -166.15 -114.5 -165.8 -114.85 -165.4 -115.25 -165.05 -115.9 -164.4 -116.55 -163.9 -116.75 -163.3 -116.45 -162.9 -116.25 -162.4 -116.25 M-179.75 -37.6 L-178.35 -38.05 -177.65 -37.95 -177.25 -37.9 -176.75 -38.05 -175.35 -38.5 -174.65 -38.4 -174.25 -38.2 -173.85 -37.95 -173.75 -37.55 -173.6 -36.85 -173.65 -36.45 -173.75 -36.15 -173.95 -35.95 -174.4 -35.7 -175.35 -35.45 -175.85 -35.25 -176.4 -34.85 -176.55 -34.4 -176.75 -33.6 -176.8 -33.15 -176.85 -32.75 -176.6 -32.05 -176.25 -30.95 -175.7 -29.2 -175.7 -28.8 -175.7 -28.4 -176.15 -27.45 -176.4 -26.95 -176.7 -26.65 -177.2 -26.15 -177.45 -25.85 -177.9 -25.55 -179.3 -25.1 -180.1 -25.1 -181.2 -25.25 -181.7 -25.45 -182.65 -25.95 -183.1 -26.2 -183.2 -26.55 -183.55 -27.65 -183.7 -27.95 -184.05 -29.05 -184.1 -29.4 -184.1 -29.85 -184.05 -30.65 -183.8 -31.1 -183.55 -31.6 -183.5 -32.0 -183.55 -32.4 -183.35 -32.8 -182.6 -34.25 -182.4 -34.7 -181.95 -35.55 -181.75 -35.7 -180.5 -36.95 -180.15 -37.25 -179.75 -37.6 M-180.45 -32.65 L-180.65 -31.85 -180.85 -31.4 -181.35 -30.5 -181.35 -30.05 -181.4 -29.65 -181.45 -29.25 -181.35 -28.9 -181.25 -28.5 -181.1 -28.2 -181.05 -27.95 -180.9 -27.9 -179.6 -27.9 -179.05 -28.2 -178.75 -28.55 -178.55 -29.05 -178.45 -29.45 -178.5 -29.85 -179.15 -31.6 -179.95 -33.7 -180.15 -33.6 -180.45 -32.65 M-175.3 -22.0 L-175.2 -21.2 -175.15 -20.1 -175.3 -18.6 -175.5 -18.3 -176.35 -17.55 -176.9 -17.2 -178.9 -17.2 -179.65 -17.45 -180.05 -17.85 -180.4 -18.25 -181.15 -19.0 -181.15 -19.35 -181.15 -19.75 -181.15 -20.1 -181.15 -20.5 -181.1 -20.85 -180.9 -21.25 -180.7 -21.6 -180.65 -22.0 -180.3 -22.35 -179.8 -22.75 -179.55 -23.1 -179.15 -23.4 -178.45 -23.65 -178.4 -23.75 -177.4 -23.75 -176.35 -23.05 -175.55 -22.35 -175.3 -22.0 M-145.4 -102.1 L-143.35 -102.95 -141.4 -103.75 -136.4 -103.75 -135.8 -103.5 Q-133.7 -102.6 -132.0 -101.15 L-130.05 -99.35 -129.8 -99.0 -129.45 -98.25 -129.2 -97.5 -129.15 -97.1 -128.9 -96.75 -128.55 -96.35 -128.3 -96.0 -128.2 -95.6 -128.0 -94.9 -127.65 -94.1 -127.65 -93.75 -127.65 -93.35 -127.6 -93.0 -127.4 -92.6 -127.15 -92.25 -127.15 -91.85 -127.15 -90.35 -127.15 -88.85 -127.15 -88.1 -127.25 -87.8 -127.85 -86.55 -127.65 -86.25 -127.7 -85.85 -127.8 -85.5 -128.05 -85.1 -128.4 -84.75 -128.8 -84.35 -129.1 -84.0 -129.15 -84.0 Q-129.45 -83.0 -130.0 -82.1 L-130.9 -80.25 -131.3 -79.85 -131.65 -79.5 Q-132.5 -77.6 -133.5 -75.8 L-135.05 -73.1 -135.4 -72.75 -135.7 -72.5 -135.9 -72.35 -136.35 -72.35 -137.55 -72.85 -137.7 -75.5 -137.65 -78.5 -137.6 -78.85 -137.4 -79.25 -137.15 -79.6 -137.15 -81.5 -137.15 -83.75 -137.0 -84.1 -136.8 -84.5 -136.65 -84.85 -136.65 -85.25 -136.65 -85.35 -136.65 -87.6 -136.65 -88.75 -136.5 -89.1 -136.3 -89.5 -136.15 -89.85 -136.15 -90.25 -136.15 -90.6 -136.15 -91.0 -136.15 -91.35 -136.15 -91.75 -136.35 -92.1 -136.65 -92.5 -136.65 -92.85 -136.7 -93.25 -136.8 -93.6 -137.15 -94.0 -137.45 -94.2 -138.15 -94.5 -140.8 -94.5 -141.4 -94.3 -141.75 -94.2 Q-141.5 -93.35 -141.55 -92.35 L-141.65 -89.35 -142.35 -87.9 -142.8 -86.0 -143.1 -85.65 -143.65 -85.25 -144.55 -84.1 -146.05 -82.6 -146.45 -82.4 -147.05 -82.1 -147.4 -81.75 -147.65 -81.5 -150.0 -80.55 -151.9 -79.75 -153.9 -79.75 -154.2 -79.5 -154.4 -79.35 -154.9 -79.35 Q-155.5 -79.55 -155.95 -79.95 L-156.15 -80.25 -156.15 -80.6 -156.1 -80.95 -155.8 -81.35 -155.4 -81.75 -155.05 -82.1 -154.65 -82.5 -153.8 -82.85 -153.4 -83.25 -153.05 -83.6 -152.65 -84.0 Q-152.25 -84.15 -151.8 -84.4 L-151.4 -84.75 -151.2 -85.15 -151.15 -85.5 -151.15 -85.85 -150.9 -86.25 -150.65 -86.6 -150.65 -87.35 -150.65 -88.1 -150.65 -88.85 -150.65 -89.25 -150.85 -89.6 -151.15 -90.0 -151.15 -90.35 -151.15 -90.75 -151.15 -91.1 -151.7 -92.25 -152.45 -93.7 -153.05 -94.85 -153.3 -95.2 -153.8 -95.6 -154.4 -95.7 -155.4 -95.75 Q-155.8 -95.85 -156.15 -96.05 L-156.55 -96.35 -156.6 -96.75 -157.9 -96.75 Q-158.3 -96.85 -158.65 -97.05 L-159.0 -97.4 -159.15 -97.75 -159.15 -98.1 -159.1 -98.45 -158.8 -98.85 -158.4 -99.1 Q-153.3 -98.4 -148.8 -100.35 L-146.3 -101.35 -145.9 -101.75 -145.65 -102.0 -145.4 -102.1 M-145.05 -99.1 L-145.4 -98.75 -145.65 -98.5 -145.9 -98.4 Q-147.75 -98.05 -149.45 -97.3 L-150.9 -96.75 -151.15 -96.75 -150.85 -96.35 -148.65 -92.75 -148.65 -92.35 -148.65 -92.0 -148.65 -91.6 -148.65 -91.25 -148.5 -90.85 -148.3 -90.45 -148.15 -90.1 -148.15 -88.6 -148.15 -87.1 -148.15 -85.6 -148.5 -84.9 -148.85 -84.1 -148.3 -84.35 -146.4 -86.35 -145.3 -87.35 -144.95 -88.55 -144.3 -90.0 -144.15 -90.35 -144.15 -91.1 -144.15 -91.85 -144.15 -92.6 -144.3 -92.95 -144.4 -92.85 -144.8 -92.55 -145.4 -92.25 Q-145.8 -92.35 -146.15 -92.55 L-146.55 -92.85 -146.6 -93.25 -146.65 -94.0 -146.6 -94.75 -146.55 -95.1 -146.15 -95.45 -143.4 -96.65 -141.4 -97.25 -137.4 -97.25 -136.8 -96.95 Q-136.0 -96.6 -135.3 -96.05 L-134.55 -95.35 -134.35 -94.95 -134.1 -94.25 -133.8 -93.5 -133.65 -93.1 -133.65 -92.75 -133.65 -91.25 -133.65 -89.75 -133.65 -88.6 -133.7 -88.25 -133.9 -87.85 -134.15 -87.5 -134.15 -87.1 -134.15 -85.25 -134.15 -84.55 -134.15 -84.35 -134.15 -84.0 -134.3 -83.6 -134.45 -83.25 -134.65 -82.85 -134.65 -82.1 -134.65 -80.6 -134.65 -80.1 Q-134.0 -80.45 -133.7 -81.15 L-133.05 -82.6 -132.65 -83.0 -132.3 -83.35 -132.2 -83.75 -132.15 -84.0 -132.15 -84.1 -132.15 -84.35 -132.15 -84.5 -132.0 -84.6 -131.95 -84.75 -130.85 -87.0 -129.8 -88.9 -129.65 -89.25 -129.65 -89.6 -129.65 -90.0 -129.65 -90.35 -129.65 -90.75 -129.65 -91.1 -129.8 -91.45 -130.0 -91.85 -130.15 -92.25 -130.15 -92.6 -130.15 -93.0 -130.25 -93.35 -130.65 -94.15 -131.1 -94.85 -131.4 -95.25 -131.6 -95.65 -131.65 -96.0 -131.65 -96.35 -131.9 -96.75 -132.15 -97.15 -132.3 -97.5 -132.55 -97.85 -132.9 -98.25 -133.65 -99.0 -134.3 -99.6 -134.4 -99.7 -136.15 -100.5 -137.15 -101.0 -140.8 -101.0 -141.4 -100.75 -144.05 -99.65 -145.05 -99.1 M-137.75 -42.7 L-134.3 -42.0 -133.85 -41.9 -132.85 -41.7 -132.3 -41.3 -132.05 -40.9 -131.8 -40.5 -131.95 -40.1 -132.1 -39.75 -132.45 -39.45 -132.85 -39.3 -134.1 -39.05 -134.6 -38.85 -136.0 -37.75 Q-137.05 -36.85 -137.5 -35.65 L-138.1 -34.55 -138.15 -34.2 -138.25 -33.8 -138.25 -33.45 -138.2 -33.05 -138.1 -32.65 -138.05 -32.25 -138.1 -31.9 -138.2 -31.5 -138.25 -31.15 -138.3 -30.8 -138.05 -29.95 -137.75 -28.75 -137.85 -28.05 -138.3 -25.85 -138.6 -24.35 -138.75 -24.0 -139.0 -23.65 -139.3 -23.35 -139.4 -23.0 -139.45 -22.6 -140.2 -21.9 -139.95 -21.55 Q-139.8 -20.1 -141.2 -19.15 L-143.4 -17.65 -143.8 -17.5 -144.5 -17.4 -144.9 -17.05 -145.2 -16.85 -147.05 -16.45 -148.65 -16.25 -151.1 -16.75 -152.4 -17.75 -152.85 -18.15 -153.55 -18.5 -154.2 -19.35 -154.45 -19.8 -155.1 -20.25 -155.35 -20.7 -155.7 -21.95 Q-155.8 -22.65 -156.2 -23.15 L-155.95 -24.25 -155.5 -26.45 -155.15 -28.25 -154.95 -28.65 -154.65 -29.0 -154.45 -29.3 -154.35 -29.65 -154.3 -30.05 -154.15 -30.75 -154.05 -31.1 -153.85 -31.5 -153.55 -31.85 -153.4 -32.15 -153.3 -32.5 -153.1 -32.8 -152.25 -33.45 -151.2 -34.0 -150.7 -33.95 -150.15 -33.6 -149.85 -33.2 -149.75 -32.8 -149.8 -32.05 -149.85 -31.95 -149.5 -32.25 -149.2 -32.6 -149.15 -32.95 -149.05 -33.3 -148.75 -33.65 -148.3 -34.3 -147.7 -34.95 -147.65 -35.35 -147.55 -35.65 -147.5 -36.05 -147.15 -36.35 -146.3 -36.95 -145.85 -37.25 -145.65 -37.6 -145.45 -37.95 -145.0 -38.2 -144.6 -38.55 -144.35 -38.85 -144.2 -39.25 -143.75 -39.45 -142.85 -39.7 -142.35 -40.05 -139.3 -42.05 -138.85 -42.4 -138.55 -42.5 -137.75 -42.7 M-139.45 -38.05 L-138.75 -38.7 -137.85 -39.65 -138.0 -39.55 -138.4 -39.35 -139.1 -39.25 -139.3 -38.9 -139.6 -38.55 -140.05 -38.3 -140.85 -38.05 -141.3 -37.75 -142.15 -37.15 -142.65 -36.9 -142.85 -36.55 -143.5 -35.95 -144.3 -35.3 -144.85 -34.6 -146.3 -32.25 -146.8 -31.2 -148.5 -28.45 -148.55 -28.15 -148.65 -27.8 -148.85 -27.4 -149.05 -27.05 -149.3 -26.95 -149.4 -26.65 -149.7 -26.3 -150.15 -26.05 -150.8 -25.85 -151.5 -26.25 -151.8 -26.75 -152.1 -27.15 -152.4 -27.45 -152.65 -27.15 -153.1 -26.1 -153.35 -24.6 -153.35 -24.25 -153.25 -23.45 -152.85 -22.2 -152.85 -21.95 -152.75 -21.9 -151.75 -21.4 -151.15 -21.1 -148.55 -20.6 -147.75 -20.7 -146.5 -20.7 -145.15 -21.55 -142.55 -23.35 -142.3 -23.65 -141.75 -24.75 -140.8 -26.05 -140.75 -26.4 -140.65 -26.8 -140.5 -27.55 -140.45 -27.9 -140.6 -28.25 -140.8 -28.7 -140.7 -29.1 -140.65 -29.45 -140.8 -29.85 -141.0 -30.3 -140.9 -30.7 -140.85 -31.0 -140.75 -31.4 -140.85 -31.8 -140.95 -32.2 -141.05 -32.6 -140.9 -33.3 -140.5 -35.2 -140.3 -36.25 -140.2 -36.65 -139.9 -36.95 -139.6 -37.3 -139.5 -37.65 -139.45 -38.05 M-122.9 -35.2 Q-121.5 -34.9 -120.35 -34.0 L-118.4 -32.2 -118.3 -31.85 -118.15 -31.5 -117.9 -31.1 -117.65 -30.7 -117.65 -29.95 -117.65 -28.85 -117.7 -27.35 -117.8 -26.95 -118.4 -26.25 -119.15 -25.5 -119.9 -24.85 -120.9 -24.85 -122.4 -25.2 -123.15 -25.45 -124.3 -26.6 -125.8 -28.1 -126.55 -28.85 -126.6 -29.6 -126.65 -30.7 -126.65 -32.2 -126.65 -32.95 -126.25 -33.35 -125.9 -33.55 -125.4 -33.95 Q-125.2 -34.15 -125.15 -34.45 L-124.75 -34.85 -124.4 -35.05 -123.9 -35.15 -123.9 -35.2 -122.9 -35.2 M-152.5 -8.75 L-151.5 -8.75 -150.9 -8.45 -150.5 -8.15 -150.35 -7.75 -150.25 -7.0 -150.25 -5.5 -150.0 -4.35 -149.0 -2.15 -148.75 -1.75 -148.75 -1.4 -148.75 -1.0 -148.5 -0.65 -148.25 -0.25 -148.25 0.1 -148.25 0.5 -148.0 0.9 -147.6 1.6 -147.0 2.75 -146.65 3.1 -146.25 3.5 -146.0 3.75 -145.4 4.05 -144.9 4.4 -144.5 4.75 Q-143.6 5.0 -142.95 5.65 -142.05 6.5 -141.65 7.6 -140.5 8.7 -139.6 9.95 -138.75 11.1 -138.25 12.5 L-138.25 12.85 -138.25 13.25 -138.25 13.6 -138.2 13.95 -138.0 14.35 -137.75 14.75 -137.75 17.0 -137.75 20.35 -137.75 20.75 -138.0 21.1 -138.65 21.85 -139.5 22.6 -143.0 22.75 -144.0 22.25 -145.75 21.5 -146.15 21.1 -146.4 20.85 -146.5 20.75 -147.25 20.5 -147.65 20.1 -148.0 19.75 -148.4 19.35 -148.7 18.95 -148.8 18.65 -149.0 18.25 -149.4 17.85 -149.75 17.5 -149.75 17.1 -149.75 16.75 -149.95 16.4 -150.2 15.95 -150.5 15.25 -150.9 14.85 -151.25 14.5 -151.3 14.15 -151.5 13.75 -151.75 13.35 -151.75 13.0 -151.75 12.6 -151.75 12.25 -151.95 11.95 -152.7 11.45 -153.15 11.1 -153.5 10.75 -153.7 10.35 -153.75 10.0 -153.75 9.6 -153.75 9.25 -153.95 8.9 -154.25 8.5 -154.25 8.1 -154.25 7.75 -154.45 7.4 -154.75 7.0 -154.75 6.6 -154.75 6.25 -154.75 5.85 -154.9 5.5 -155.1 5.1 -155.25 4.75 -155.25 4.35 -155.25 4.0 -155.25 3.25 -155.25 2.85 -155.4 2.5 -155.6 2.1 -155.75 1.75 -155.75 0.25 -155.75 -2.4 -155.75 -2.75 -155.6 -3.1 -155.4 -3.5 -155.25 -3.9 -155.25 -4.25 -155.25 -4.65 -155.25 -5.0 -155.0 -5.75 -154.3 -7.25 -154.15 -7.65 -153.75 -8.0 -152.95 -8.55 -152.5 -8.75 M-153.25 -1.9 L-153.25 -1.15 -153.25 -0.4 -153.25 0.0 -153.0 0.75 -152.75 1.5 -152.75 2.6 -152.75 3.75 -151.8 6.4 -151.25 8.25 -150.4 9.4 -150.0 9.75 -149.7 10.45 -149.25 11.25 -149.25 11.6 -149.25 12.0 -147.45 15.35 -146.5 17.25 -145.75 18.0 -145.15 18.6 -143.4 19.5 -142.4 20.0 -140.4 19.6 Q-140.15 18.7 -140.2 17.75 L-140.25 15.85 -140.4 15.5 -140.6 15.1 -140.75 14.75 -140.75 14.0 -140.75 13.25 -141.2 12.45 -141.5 11.75 -141.9 11.35 -142.25 11.0 -142.3 10.65 -142.5 10.25 -145.5 7.25 -146.25 6.5 -147.75 6.0 -148.9 4.85 -149.65 4.1 Q-149.85 2.95 -150.45 1.9 L-151.25 0.35 -151.25 0.0 -151.25 -0.4 -152.1 -2.3 Q-152.3 -3.25 -152.75 -3.4 L-152.95 -2.65 -153.25 -1.9 M-123.0 -7.7 L-123.0 -7.75 -120.85 -7.1 -119.15 -5.9 -118.5 -5.75 -117.9 -5.65 Q-117.7 -5.7 -117.55 -5.8 L-117.25 -6.0 -117.0 -6.15 -116.35 -6.2 -116.0 -6.75 -115.65 -7.15 -115.25 -7.5 -114.9 -7.9 -114.5 -8.1 -113.9 -8.4 -112.35 -9.85 -111.4 -11.0 -111.2 -12.9 -111.25 -15.5 -111.2 -15.85 -111.0 -16.25 -110.75 -16.65 -110.75 -17.0 -110.75 -17.4 -110.75 -17.75 -110.6 -18.1 -110.25 -18.5 -109.9 -18.9 -109.75 -19.25 -109.65 -19.65 -108.5 -20.75 Q-108.0 -21.2 -107.5 -21.25 L-106.9 -20.95 -106.5 -20.65 Q-106.1 -19.95 -106.2 -19.1 L-106.25 -17.25 -106.1 -16.9 -105.9 -16.5 -105.75 -16.15 -105.75 -15.75 -105.75 -15.4 -105.75 -15.0 -104.95 -14.3 -103.9 -13.5 Q-101.85 -13.7 -100.5 -12.25 -100.15 -11.15 -100.2 -10.0 L-100.25 -7.4 -100.6 -6.6 Q-100.95 -5.75 -101.65 -5.15 L-106.0 -3.4 -106.65 -3.15 -108.15 -1.65 -109.25 -0.5 -109.4 -0.15 -109.5 0.25 -109.9 0.6 -110.25 1.0 -110.55 1.75 -111.1 2.9 -111.25 3.25 -111.25 3.6 -111.25 4.0 -111.4 4.35 -111.7 5.15 -111.9 5.85 -112.05 6.2 -112.4 6.6 -112.75 7.0 -112.75 7.35 -112.75 7.75 -112.75 8.1 -112.9 8.5 -113.1 8.9 -113.25 9.25 -113.25 10.35 -113.25 11.85 -113.25 12.1 -113.0 12.25 -112.4 12.5 -108.5 12.75 -107.9 13.0 -106.9 13.5 -106.25 13.5 Q-104.2 12.75 -102.65 11.35 L-101.9 10.6 -101.6 9.9 -101.0 8.75 -100.75 8.35 -100.75 8.0 -100.75 7.6 -100.5 7.25 -100.25 6.85 -100.25 6.5 -100.25 6.1 -100.0 5.75 -99.75 5.35 -99.75 5.0 -99.75 4.6 -99.1 3.9 -98.0 2.75 -97.8 2.35 -97.75 2.0 -95.9 0.15 -94.75 -1.0 -93.9 -1.4 -93.5 -1.75 -93.25 -2.0 -93.0 -2.15 -92.5 -2.2 -91.5 -2.25 -90.9 -1.95 -90.5 -1.65 Q-90.3 0.4 -91.75 2.3 -92.7 3.6 -93.25 5.1 L-93.25 5.5 -93.25 5.85 -93.25 6.6 -93.4 7.0 -93.6 7.4 -93.75 7.75 -93.75 8.5 -93.75 9.6 -93.75 10.0 -93.9 10.35 -94.05 10.75 -94.25 11.1 -94.25 12.25 -94.25 14.1 -94.25 14.5 -94.4 14.85 -94.55 15.25 -94.75 15.6 -94.75 16.0 -94.75 16.35 -94.75 17.1 -94.7 17.45 -94.5 17.85 -94.25 18.25 -94.25 21.6 -94.25 25.0 Q-94.85 26.6 -95.85 27.95 -96.6 28.95 -97.0 30.25 L-97.4 30.6 -97.75 31.0 -97.9 31.35 -98.0 31.75 -100.65 34.35 -102.15 35.85 -104.5 37.1 -106.15 37.85 -106.5 38.25 -106.75 38.5 Q-110.45 40.2 -114.5 40.75 L-118.0 40.75 Q-121.2 40.6 -124.25 39.5 L-125.4 38.35 -126.5 37.25 -126.95 36.55 -127.25 35.65 -127.7 35.45 -128.15 35.1 -128.25 34.35 -128.2 33.65 -128.0 33.25 -127.75 33.0 -127.5 32.9 -127.0 32.75 -126.4 33.05 -125.9 33.4 -125.65 33.6 -125.5 33.75 -124.9 34.0 -121.25 34.0 -119.8 33.4 -119.4 33.1 -118.8 32.35 -118.4 31.6 -118.25 31.25 -118.25 30.85 -118.25 30.5 -118.25 30.1 -118.25 29.75 -118.25 29.35 -118.6 28.2 -119.0 27.05 -119.4 26.0 -119.65 25.65 -120.0 25.25 -120.25 24.85 -120.3 24.5 -120.55 24.15 -121.0 23.75 -121.25 23.35 -121.4 23.0 -121.65 22.6 -122.4 21.85 -123.5 20.75 -123.7 20.35 -123.75 20.0 -123.75 19.6 -124.0 19.25 -124.25 18.85 -124.25 18.5 -124.25 18.1 -124.25 17.75 -124.1 17.4 -123.75 17.0 -123.4 16.6 -123.0 16.4 -122.5 16.25 -121.75 16.0 -121.25 15.6 -120.8 14.85 -120.4 14.1 -120.25 13.75 -120.25 13.35 -120.25 13.0 -120.2 12.65 -120.0 12.25 -119.75 11.85 -119.75 10.75 -119.75 9.6 -119.75 8.5 -119.8 8.15 -120.0 7.75 -120.25 7.35 -120.25 7.0 -120.25 6.6 -120.25 6.25 -120.25 5.85 -120.25 5.5 -120.3 5.15 -120.5 4.75 -120.75 4.35 -120.75 4.0 -120.75 3.6 -120.75 3.25 -120.75 2.85 -122.3 -0.55 -124.0 -4.6 -124.25 -5.0 -124.25 -5.75 -124.2 -6.5 -124.0 -7.25 -123.75 -7.5 -123.5 -7.6 -123.0 -7.7 M-99.8 -48.0 L-99.75 -47.65 -99.75 -47.25 -100.0 -46.9 -100.3 -46.5 -100.65 -46.15 -100.75 -45.75 -100.75 -45.4 -100.75 -45.0 -100.75 -44.25 -102.0 -42.75 -103.75 -41.0 -104.0 -40.9 -104.65 -40.65 -105.0 -40.25 -105.25 -40.0 -105.5 -39.9 Q-105.8 -39.75 -106.15 -39.65 L-106.9 -38.85 -108.0 -37.75 -108.25 -37.35 -108.4 -37.0 -108.65 -36.65 Q-109.0 -36.25 -109.45 -35.95 L-110.5 -35.25 -114.0 -35.25 -114.75 -35.5 -115.5 -36.25 -116.65 -37.4 -116.8 -38.1 -117.1 -38.9 -117.25 -39.25 -117.25 -39.65 -117.25 -40.0 -117.2 -40.35 -117.0 -40.75 -116.75 -41.15 -116.75 -41.5 -116.75 -41.9 -116.75 -42.25 -116.6 -42.6 -116.4 -43.0 -116.3 -43.4 -116.25 -43.75 -115.4 -44.9 -114.25 -46.0 -113.4 -46.4 -113.0 -46.75 -112.75 -47.0 -112.5 -47.1 -111.9 -47.4 -111.5 -47.65 -109.5 -47.75 -107.5 -47.2 -106.9 -47.0 -104.75 -47.0 -103.9 -47.4 -103.4 -47.75 -103.3 -48.5 Q-103.3 -49.15 -102.7 -49.4 L-102.0 -49.75 -100.9 -49.45 Q-100.15 -49.15 -99.9 -48.4 L-99.8 -48.0 M-104.75 -44.0 L-110.5 -44.9 -111.1 -44.6 -111.5 -44.4 -112.15 -44.15 -112.9 -43.4 -113.65 -42.65 -113.8 -42.25 -114.0 -41.9 -114.25 -41.5 -114.25 -40.75 -114.25 -40.0 -114.25 -39.25 -114.1 -38.9 -113.8 -38.5 -113.5 -38.15 -111.25 -38.0 -110.9 -38.4 -110.5 -38.75 -110.15 -39.15 -109.9 -39.5 -109.75 -39.85 -109.5 -40.25 -109.15 -40.65 -108.75 -40.95 -107.9 -41.4 -107.15 -42.15 -106.4 -42.9 -106.0 -43.1 -105.4 -43.4 -105.0 -43.75 -104.75 -44.0 M-108.25 -13.75 L-108.25 -14.15 -108.25 -14.9 Q-109.1 -14.55 -108.85 -12.5 -108.65 -11.0 -108.9 -9.5 L-111.0 -7.25 -112.15 -6.15 -112.5 -5.9 -113.15 -5.65 -113.65 -4.85 -114.5 -3.4 -114.9 -3.05 -115.5 -2.75 -116.1 -2.95 -116.5 -2.75 -118.5 -2.75 -120.2 -2.9 -120.25 -2.5 -119.5 -0.9 -118.7 0.45 -118.25 1.25 -118.25 1.6 -118.25 2.0 -118.25 2.35 -118.25 2.75 -118.1 3.1 -117.9 3.5 -117.75 3.85 -117.75 4.25 -117.75 4.6 -117.75 5.0 -117.75 5.35 -117.75 5.75 -117.6 6.1 -117.4 6.5 -117.25 6.85 -117.25 8.75 -117.25 11.0 -117.25 12.5 -117.4 12.85 -117.55 13.25 -117.7 13.65 -117.75 14.0 -117.75 14.35 -117.8 14.7 -118.0 15.1 -118.25 15.5 -118.25 15.85 -118.25 16.25 -119.55 17.65 Q-120.85 18.55 -121.0 19.25 L-120.35 19.95 -119.15 21.1 -117.8 23.4 -116.4 26.0 -116.25 26.35 -116.25 26.75 -116.25 27.1 -116.2 27.45 -116.0 27.85 -115.75 28.25 -115.75 29.75 -115.75 31.25 -115.75 32.35 -116.05 33.1 -116.35 33.9 -116.5 34.25 -117.25 35.0 -118.0 35.75 -118.25 36.0 -119.0 36.25 -120.5 36.75 -123.2 36.75 Q-120.95 38.25 -117.9 38.0 L-114.75 38.0 Q-109.25 37.0 -104.4 34.1 L-101.4 31.1 -99.9 29.6 -99.75 29.25 -99.65 28.85 -99.25 28.5 -98.9 28.1 -98.45 26.95 -97.4 25.5 -97.3 25.1 -97.1 24.4 -96.75 23.6 -96.75 22.1 -96.75 20.25 -96.75 19.85 -96.9 19.5 -97.1 19.1 -97.25 18.75 -97.25 17.25 -97.25 15.35 -97.25 15.0 -97.2 14.65 -97.0 14.25 -96.75 13.85 -96.75 12.75 -96.75 10.85 -96.75 10.5 -96.7 10.15 -96.5 9.75 -96.25 9.35 -96.25 8.6 -96.25 7.5 -96.25 6.75 -96.1 6.4 -95.9 6.0 -95.75 5.6 -95.75 5.25 -95.8 4.85 -95.9 4.1 Q-96.6 4.65 -96.95 5.45 L-97.75 7.0 -97.75 7.35 -97.75 7.75 -97.75 8.1 Q-99.05 11.5 -101.65 13.85 -103.15 15.2 -105.0 16.1 L-107.5 16.25 Q-111.75 15.6 -115.65 14.1 L-115.8 11.5 -115.75 8.5 -115.7 8.15 -115.5 7.75 -115.25 7.35 -115.25 7.0 -115.25 6.6 -115.25 6.25 -114.9 5.5 -114.25 4.35 -114.25 4.0 -114.25 3.6 -114.0 3.25 -113.75 2.85 -113.75 2.5 -113.75 2.1 -113.5 1.75 -113.25 1.35 -113.25 1.0 -113.25 0.6 -112.6 -0.1 -111.9 -0.9 -111.75 -1.25 -111.65 -1.65 -111.25 -2.0 -110.9 -2.4 -110.75 -2.75 -110.65 -3.15 -109.9 -3.9 -108.75 -5.0 -107.9 -5.4 -107.5 -5.75 -107.25 -6.0 -104.75 -7.05 -103.4 -7.5 -103.25 -7.85 -103.0 -8.25 -102.75 -8.65 -102.75 -9.0 -102.75 -9.4 -102.75 -10.15 -105.5 -11.25 -106.25 -11.5 -107.0 -12.25 -108.15 -13.4 -108.25 -13.75 M-157.85 30.0 L-158.75 31.75 -158.75 32.1 -158.75 32.85 -158.75 33.6 -158.7 33.95 -158.5 34.35 -158.25 34.75 -158.25 35.1 -158.25 35.5 -157.9 35.85 -157.5 36.25 -157.05 37.4 -156.25 38.85 -156.15 39.1 -156.0 39.2 -154.9 39.9 -154.5 40.25 -153.9 40.55 -153.15 41.1 -153.0 41.25 -150.35 42.45 -148.9 43.0 -146.75 43.0 -146.0 42.75 -145.0 42.75 -144.4 43.0 -143.75 43.0 -140.9 42.1 -139.8 40.95 -138.5 39.85 -137.55 39.9 Q-137.0 40.05 -136.5 40.35 -136.0 41.3 -136.7 42.3 L-137.75 44.1 -137.65 44.45 -137.05 45.3 -136.9 45.6 -135.9 46.4 -135.15 47.1 -134.4 47.5 -133.4 48.0 -131.75 48.0 -130.5 47.4 -129.9 47.1 -129.5 46.75 -129.25 46.5 -129.0 46.35 -128.4 46.1 -127.65 45.35 -126.9 44.6 -126.8 44.25 -126.65 43.55 -126.4 43.1 -126.0 42.9 -125.5 42.75 -125.0 42.75 -124.4 43.0 -123.35 44.5 -122.75 46.0 -122.75 46.35 -122.75 46.75 -122.6 47.1 -122.4 47.5 -122.25 47.85 -122.25 49.0 -122.25 50.5 -122.25 50.85 -122.3 51.2 -122.5 51.6 -122.75 52.0 -122.75 52.35 -122.75 52.75 -122.75 53.5 Q-123.45 56.45 -125.45 58.8 -126.85 60.35 -128.65 61.35 L-129.0 61.75 -129.25 62.0 Q-133.55 64.35 -138.5 64.75 L-140.0 64.75 Q-143.6 64.05 -146.75 62.5 L-148.25 61.0 -149.4 59.85 -149.7 59.45 -149.75 59.1 -149.75 58.75 -149.95 58.4 -150.2 57.95 -150.25 57.6 Q-150.35 56.9 -149.8 56.45 L-148.65 55.35 Q-152.35 54.9 -156.75 53.0 L-157.15 52.6 -157.4 52.35 -157.5 52.25 -158.25 52.0 -158.65 51.6 -159.0 51.25 -159.4 50.85 -160.25 50.5 -160.65 50.1 -161.0 49.75 -161.4 49.35 -162.55 47.1 -163.75 44.85 -163.75 44.5 -163.75 44.1 -164.0 43.75 -164.25 43.35 -164.25 40.35 -164.25 37.0 -164.2 36.65 -164.0 36.25 -163.75 35.85 -163.75 35.5 -163.75 35.1 -163.5 34.75 -163.25 34.35 -163.25 34.0 -163.25 33.6 -163.0 33.25 -162.8 32.85 -162.75 32.5 -162.4 32.1 -162.0 31.75 -161.35 30.2 -160.15 28.35 -159.7 28.1 -159.05 27.8 -159.0 27.75 -158.4 28.05 -158.0 28.35 Q-157.45 29.1 -157.85 30.0 M-161.25 37.1 L-161.4 37.5 -161.6 37.9 -161.75 38.25 -161.75 40.1 -161.75 41.6 -161.45 42.35 -161.25 42.75 -161.25 43.1 -161.25 43.5 -161.0 43.85 -160.75 44.25 -160.75 44.6 -160.75 45.0 -160.4 45.35 -160.0 45.75 -159.9 46.1 -159.8 46.5 -159.75 46.85 Q-158.9 48.35 -157.45 49.1 L-156.15 50.1 -154.9 50.9 -154.65 51.1 -150.9 52.0 -147.25 52.0 -146.5 51.75 -145.5 51.75 -144.9 52.05 -144.5 52.35 Q-144.0 53.3 -144.75 54.25 -145.3 54.9 -145.5 55.75 L-145.9 56.1 -146.25 56.5 -146.55 57.2 -146.9 57.6 -146.9 58.35 -146.65 59.1 Q-145.7 59.5 -145.0 60.25 L-144.75 60.5 Q-142.4 61.35 -139.9 62.0 L-138.75 62.0 Q-134.05 61.4 -129.9 59.1 L-127.65 56.85 -126.9 56.1 -126.5 54.95 -125.75 53.85 -125.75 53.5 -125.75 53.1 -125.5 52.75 -125.25 52.35 -125.25 51.6 -125.25 50.85 -124.9 50.1 -124.75 49.75 -124.95 49.0 -125.25 48.25 -125.25 47.85 -125.3 47.5 -125.4 47.1 Q-126.5 48.4 -128.0 49.1 L-128.65 49.35 -129.0 49.75 -129.25 50.0 -130.85 50.55 -131.5 50.75 -133.5 50.75 -136.75 49.5 -137.5 48.75 -137.9 48.35 -138.75 48.0 -139.9 46.15 -140.5 44.75 Q-141.3 45.4 -142.35 45.55 L-143.0 45.75 Q-146.0 45.6 -149.0 45.75 -151.55 45.15 -153.75 44.0 L-154.15 43.6 -154.4 43.35 -155.55 42.8 -156.25 42.5 -156.65 42.1 -156.9 41.85 -157.0 41.75 -157.75 41.5 -158.25 40.7 -158.4 40.35 -158.75 40.0 -159.15 39.6 -159.25 39.25 -159.3 38.85 -159.4 38.5 Q-160.15 37.65 -160.4 36.55 -160.65 35.7 -161.25 36.0 L-161.25 36.35 -161.25 36.75 -161.25 37.1 M-154.4 63.0 L-154.0 63.2 -153.4 63.55 -152.15 64.6 -151.9 65.0 -151.75 65.35 -151.55 65.75 -151.25 66.5 -151.25 66.9 -150.9 67.1 -150.8 67.5 -150.9 67.85 -151.05 68.2 -151.2 68.45 -151.2 69.1 Q-151.15 70.1 -151.4 71.0 L-151.65 71.35 -152.0 71.6 -152.5 71.75 -153.55 71.75 -153.65 71.85 -154.0 72.1 -154.5 72.2 -156.0 72.25 -158.55 71.35 -161.55 69.8 -162.25 69.5 -162.65 69.1 -163.0 68.75 -163.4 68.35 -164.25 68.0 -164.65 67.6 -165.0 67.25 -165.4 66.85 -166.25 66.45 -166.55 66.3 Q-166.9 66.1 -167.25 66.0 L-176.9 66.0 -177.5 66.2 -178.4 66.5 -179.0 66.75 -179.5 66.7 -180.2 66.45 -180.65 66.1 -180.75 65.75 -180.75 65.35 -180.75 65.0 -180.75 64.6 -180.5 64.25 -179.75 63.5 -178.65 62.35 -178.25 62.0 -175.55 60.65 Q-173.35 59.7 -171.0 59.3 L-171.0 59.25 -169.5 59.25 -160.7 62.55 -155.0 62.75 -154.4 63.0 M-174.3 11.5 L-172.8 12.1 -172.3 12.4 -171.95 12.8 -171.8 13.15 -171.3 13.55 -170.45 13.85 -169.35 14.5 -168.8 15.15 -168.7 15.55 -168.65 15.9 -168.65 16.3 -168.9 16.65 -169.2 17.0 -169.55 17.4 -170.95 18.15 Q-172.75 19.0 -174.65 19.55 L-175.4 19.8 -177.4 19.8 -178.15 19.5 -179.15 19.05 -180.15 18.55 -180.5 18.15 -180.65 17.8 -180.85 17.45 -181.15 17.05 -181.15 16.65 -181.15 15.9 -181.15 15.15 -181.15 14.05 -180.8 13.65 -180.05 12.9 -179.3 12.15 -178.9 11.95 -178.4 11.75 -177.65 11.55 -176.9 11.3 -174.9 11.3 -174.3 11.5 M-175.65 14.8 L-175.7 14.4 -175.85 14.2 -176.8 14.05 -177.4 14.25 -178.15 14.55 -178.3 14.9 -178.5 15.65 -178.3 16.4 -178.05 16.65 -177.9 16.75 -177.3 17.05 -175.15 17.05 -173.7 16.5 -172.8 16.15 Q-173.45 16.15 -175.5 15.05 L-175.65 14.8 M-195.5 24.25 Q-194.2 24.8 -193.3 26.0 -192.65 26.85 -192.25 27.85 L-192.25 30.1 -192.3 33.5 -192.4 33.85 -192.55 34.2 -193.0 34.6 -194.0 35.1 -194.5 35.2 -196.0 35.25 -196.75 35.0 -197.6 33.45 -198.6 31.6 -198.75 31.25 -198.75 29.75 -198.75 27.5 -198.75 26.75 -198.6 26.4 -198.25 26.0 -197.9 25.6 -197.5 25.4 -196.9 25.1 -196.65 24.85 -196.25 24.5 -195.55 24.3 -195.5 24.25 M-220.8 22.55 L-220.3 22.95 -219.95 23.3 -219.55 23.65 -219.35 24.05 -219.15 24.4 -218.95 24.8 -218.7 25.55 -218.7 25.9 -218.7 27.05 -218.75 28.55 -218.95 29.3 -219.2 29.5 -219.45 29.65 -219.95 29.8 -223.45 29.8 -224.2 29.55 -224.55 29.15 -224.8 28.9 -224.95 28.8 -225.7 28.55 -226.05 28.15 -226.8 27.4 -227.95 26.3 -228.3 25.9 -229.2 25.55 -229.55 25.15 -229.8 24.9 -229.95 24.8 -230.65 24.45 -231.05 24.15 -231.4 23.75 -231.6 23.4 -231.65 23.05 -231.45 22.3 -231.15 22.05 -230.95 21.9 -230.35 21.5 Q-230.2 21.3 -230.2 20.9 L-230.1 20.55 -229.8 20.2 -229.4 19.95 -228.95 19.8 -226.45 19.8 -224.95 20.35 Q-223.6 20.9 -222.35 21.6 L-221.45 22.3 -220.8 22.55 M-226.75 22.75 L-228.3 22.55 -227.8 22.95 -227.45 23.3 -227.25 23.4 Q-225.7 24.35 -224.35 25.7 L-222.8 26.9 Q-221.5 27.9 -221.2 26.65 -221.05 25.95 -221.65 25.5 L-222.3 24.9 -222.45 24.8 -223.2 24.55 -223.55 24.15 -223.8 23.9 Q-225.2 23.15 -226.75 22.75 M-210.4 58.8 L-211.7 58.3 -209.2 60.55 -208.45 61.3 -208.3 61.65 -208.2 62.05 -207.5 62.85 -207.3 63.15 -207.2 63.55 -207.15 63.9 -207.15 64.3 -206.85 65.05 -206.65 65.8 Q-207.35 68.3 -209.45 70.05 L-211.7 72.05 -211.95 72.15 -212.55 72.4 -212.95 72.8 -213.2 73.05 Q-215.1 72.95 -215.7 73.4 L-215.7 73.65 -215.85 74.4 -215.55 74.5 -208.2 74.55 -207.3 74.15 -206.9 73.9 -205.85 73.75 -205.8 73.7 -205.4 73.45 -204.9 73.3 -204.35 73.6 -204.3 73.65 -204.15 73.55 -203.85 73.15 -203.65 72.8 -203.55 72.4 -202.4 71.3 -202.05 70.9 -201.8 70.55 -201.7 70.15 -201.65 69.8 -201.15 69.05 -200.8 68.65 -200.7 68.3 -200.65 67.9 -200.65 67.55 Q-200.15 67.1 -199.95 66.45 L-199.65 65.65 -199.65 65.3 -199.65 64.9 -199.65 64.55 -199.6 64.2 -199.4 63.8 -199.15 63.4 -199.1 59.3 Q-199.05 57.5 -199.35 56.1 L-199.4 56.15 -200.95 59.45 -201.9 61.8 -203.0 62.95 Q-203.4 63.4 -203.9 63.65 L-205.65 63.5 -206.05 63.15 -206.15 62.8 -206.2 62.4 -206.3 62.05 -207.2 60.85 -207.65 60.15 Q-208.9 59.35 -210.4 58.8 M-202.65 56.9 L-202.65 56.55 -201.85 55.05 -201.15 52.8 -200.7 52.05 Q-200.2 51.35 -199.4 51.35 L-199.4 51.3 Q-198.85 51.6 -198.35 52.0 L-197.55 52.65 -197.3 53.05 -196.95 53.8 -196.65 54.55 -196.7 59.05 -196.65 63.9 -196.75 64.3 -196.9 64.65 -197.15 65.05 -197.15 65.4 -197.15 65.8 -197.15 66.15 -197.15 66.55 -197.45 67.75 -198.05 69.25 -198.3 69.9 -198.45 70.25 -198.8 70.65 -199.15 71.05 -199.3 71.4 -199.4 71.8 -199.8 72.15 -200.15 72.55 -200.55 72.9 Q-201.3 74.45 -202.6 75.65 L-203.7 76.65 -203.8 76.9 Q-204.6 78.15 -205.85 79.15 L-207.4 80.15 -211.8 80.25 -211.95 80.3 -213.45 80.3 -213.5 80.3 -214.95 80.3 -216.4 79.6 -216.95 79.3 -217.7 79.05 -218.0 78.65 -218.35 77.95 -218.7 77.55 -218.7 77.15 -218.7 76.8 -218.85 76.45 -219.2 76.05 -219.2 75.65 -219.2 74.9 -219.2 74.3 -219.2 74.15 -219.2 73.15 -219.1 71.7 -218.95 71.3 Q-217.15 70.0 -214.7 70.55 L-213.8 70.15 -211.1 67.65 Q-210.15 66.8 -209.7 65.65 L-209.75 64.95 -210.0 64.15 -210.3 63.4 -212.95 60.8 -214.8 58.9 -215.65 58.55 -216.7 58.05 -217.05 57.65 -217.3 57.4 -217.45 57.3 -218.15 57.0 -218.55 56.65 -218.65 56.3 -218.6 55.55 -218.45 54.8 -218.15 54.55 -217.9 54.45 -217.45 54.3 -214.45 54.3 Q-209.55 55.45 -205.75 58.65 L-204.3 59.8 -204.15 59.55 -203.8 59.15 -203.4 58.8 -203.25 58.4 -203.1 58.1 -202.85 57.65 -202.65 57.3 -202.65 56.9 M-236.95 61.85 Q-236.6 61.9 -236.35 62.1 L-235.95 62.4 -235.75 63.2 -235.7 64.3 -235.7 65.05 -235.8 65.4 -235.95 65.8 -236.2 66.15 -236.2 67.3 -236.2 68.8 -236.2 69.15 -236.15 69.55 -235.95 69.9 -235.7 70.3 -235.7 70.65 -235.7 71.05 -234.9 71.75 Q-234.35 72.25 -234.2 72.9 L-234.05 73.15 -233.9 73.3 -232.8 73.9 -232.45 74.35 -232.3 74.65 -231.8 75.05 -231.45 75.4 -230.8 76.55 -230.2 78.05 -230.2 78.4 -230.2 78.8 -230.2 79.15 -230.3 79.55 -230.95 80.3 -232.45 81.3 -236.95 81.3 -240.2 80.05 -241.2 79.55 -241.55 79.15 -241.95 78.8 -242.3 78.4 -242.6 78.0 -242.75 77.7 -243.2 76.9 -243.2 76.55 -243.2 76.15 -243.2 75.8 -243.35 75.45 -243.7 75.05 -243.7 74.3 -243.7 73.15 -243.7 72.4 -243.6 72.1 -243.35 71.65 -243.2 71.3 -243.2 70.9 -243.2 70.55 -243.15 70.2 -242.95 69.8 -242.7 69.4 -242.7 69.05 -242.7 68.65 -242.45 68.3 -242.25 67.9 -242.2 67.55 -241.8 67.15 -241.45 66.8 -241.25 66.4 -241.2 66.05 -240.8 65.65 -240.45 65.3 -240.25 64.9 -240.2 64.55 -239.8 64.15 -239.45 63.8 -239.05 63.4 -238.7 62.65 Q-238.45 62.15 -237.9 61.95 L-237.45 61.8 -236.95 61.85 M-238.95 67.65 Q-239.9 69.25 -240.45 71.0 L-241.2 73.65 -241.15 74.05 -240.95 74.4 -240.7 74.8 -240.7 75.15 -240.7 75.55 -240.2 76.3 -239.7 77.05 Q-238.45 77.95 -236.95 78.35 L-236.3 78.55 -233.05 78.15 Q-233.15 77.5 -233.65 77.05 L-234.3 76.4 -234.45 76.35 Q-234.8 76.15 -235.2 76.05 L-235.95 75.3 -236.3 74.9 -236.6 74.5 -236.95 73.8 -237.3 73.4 -237.7 73.05 Q-237.7 72.4 -238.1 71.85 L-238.7 70.8 -238.65 68.9 Q-238.55 68.05 -238.85 67.6 L-238.95 67.65 M-211.2 77.3 L-213.8 77.3 -213.5 77.45 -211.45 77.45 -211.2 77.3 M-173.15 62.85 L-167.75 63.0 -168.75 62.55 -170.25 62.0 -170.65 61.95 -170.9 62.0 -171.5 62.2 -172.35 62.55 -173.15 62.85 M-162.4 65.85 L-161.85 65.35 -163.45 65.05 -163.4 65.05 -162.5 65.75 -162.4 65.85 M-253.95 15.8 L-252.95 15.8 -252.35 16.05 -251.95 16.3 -251.45 16.3 -250.95 16.3 -250.35 16.6 -249.95 16.95 -249.7 17.3 -249.7 17.65 -249.9 18.8 -250.2 19.55 -250.3 19.9 -250.5 20.25 -250.8 20.65 -251.2 21.05 -251.3 21.4 -251.45 21.8 -251.95 22.15 -252.7 22.55 -253.05 22.9 -253.8 23.65 -254.55 24.4 -254.95 24.65 -255.55 24.9 -255.95 25.3 -256.2 25.5 -256.45 25.65 -256.95 25.75 -258.45 25.8 -259.15 25.5 -259.55 25.15 -259.9 24.8 -260.15 24.4 -260.2 24.05 -260.2 23.65 -260.2 23.3 -260.2 22.9 -260.2 22.55 -260.15 22.2 -260.0 21.75 -259.7 21.05 -259.3 20.65 -258.95 20.3 -258.55 19.9 -258.35 19.55 -258.15 19.2 -257.95 18.8 -257.2 18.05 -256.05 16.9 -255.7 16.55 -254.8 16.2 -253.95 15.85 -253.95 15.8 M-254.95 19.3 L-255.3 19.65 -255.7 20.05 -255.8 20.4 -255.95 20.8 -256.3 21.15 -256.7 21.55 -257.05 21.9 -257.2 22.3 -257.45 22.65 -257.7 23.05 -257.25 22.95 -256.8 22.7 -256.45 22.4 -255.8 22.15 -254.25 20.75 Q-253.0 19.8 -252.8 18.4 -252.8 18.35 -252.95 18.3 L-253.8 18.6 -254.55 18.9 -254.95 19.3 M-248.8 52.15 Q-248.6 52.7 -248.65 53.3 L-248.7 54.4 -248.7 54.8 -249.25 55.5 -250.35 56.6 -251.45 57.3 -251.95 57.25 -252.7 57.05 -253.05 56.65 -253.3 56.4 -253.45 56.3 -254.15 56.0 -254.55 55.65 -254.65 54.9 -254.7 53.4 -254.7 51.55 -254.3 51.15 -253.65 50.65 -252.95 50.35 -252.95 50.3 -251.45 50.3 -250.8 50.55 -249.85 51.1 -248.95 51.8 -248.8 52.15 M-252.05 53.75 L-251.7 54.3 Q-250.9 53.9 -251.3 53.2 -251.55 52.8 -252.05 52.95 L-252.2 53.05 -252.05 53.75" fill="#ffcc00" fill-rule="evenodd" stroke="none"/>
  </g>
</svg>
