<?xml version="1.0" encoding="UTF-8" standalone="no"?>
<svg xmlns:ffdec="https://www.free-decompiler.com/flash" xmlns:xlink="http://www.w3.org/1999/xlink" ffdec:objectType="shape" height="203.05px" width="202.0px" xmlns="http://www.w3.org/2000/svg">
  <g transform="matrix(1.0, 0.0, 0.0, 1.0, 259.25, 125.8)">
    <path d="M-81.05 -37.7 L-80.8 -37.35 -80.65 -37.0 -80.4 -36.6 -80.25 -36.2 -80.15 -35.85 -80.0 -35.45 -80.0 -35.1 -80.0 -34.7 -80.0 -34.35 -79.85 -34.0 -79.65 -33.6 -79.5 -33.2 -79.5 -32.85 -79.5 -32.45 -79.5 -32.1 -79.5 -31.35 -79.5 -30.6 -79.5 -29.85 -79.5 -29.45 -79.4 -29.1 -79.25 -28.7 -79.15 -28.35 -79.0 -27.95 -79.0 -27.6 -79.0 -27.2 -79.0 -26.85 -79.0 -26.45 -79.0 -26.1 -79.0 -25.35 -79.0 -24.6 -79.15 -24.25 -79.35 -23.85 -79.5 -23.45 -79.5 -23.1 -79.5 -22.7 -79.5 -22.35 -79.65 -22.0 -79.95 -21.2 -80.2 -20.5 Q-80.4 -19.9 -80.75 -19.4 L-81.1 -18.2 -81.15 -17.85 -81.4 -17.45 -81.65 -17.1 -82.0 -16.7 -82.4 -15.95 -82.75 -15.2 -82.9 -14.85 -83.35 -14.45 -86.2 -11.35 -87.1 -10.45 -87.15 -10.35 Q-90.3 -7.8 -94.05 -5.95 -95.4 -5.25 -96.55 -4.35 L-97.8 -3.95 -98.15 -3.6 -98.55 -3.35 -98.8 -3.25 -99.4 -3.1 -99.9 -3.15 -100.8 -3.35 -101.25 -3.75 -101.6 -4.1 -101.8 -4.45 -101.8 -4.85 -101.75 -5.2 -101.65 -5.6 Q-98.95 -8.25 -95.05 -9.55 L-95.1 -9.6 -95.3 -9.95 -95.3 -10.25 -95.4 -10.25 -96.3 -10.35 -96.75 -10.75 -97.1 -11.1 -97.3 -11.45 -97.3 -11.85 -97.25 -12.2 -96.95 -12.95 -96.65 -13.35 -92.8 -14.9 -91.3 -15.6 -90.4 -15.75 -90.4 -15.85 -89.9 -15.8 -89.05 -15.6 -88.55 -15.2 -88.45 -15.1 -88.25 -15.3 -88.3 -15.35 -88.75 -15.75 -89.1 -16.1 -89.3 -16.45 -89.3 -16.6 -89.4 -16.65 -90.3 -16.85 -90.75 -17.25 -91.1 -17.6 -91.3 -17.95 -91.3 -18.35 -91.25 -18.7 -91.15 -19.1 -91.05 -19.45 -90.2 -20.15 -90.1 -20.3 -88.8 -21.45 -88.65 -21.65 -89.0 -22.0 -89.15 -22.35 -89.25 -23.1 -89.15 -24.6 -89.05 -24.95 -88.65 -25.35 -88.25 -25.6 -88.05 -25.7 -87.4 -25.8 -87.4 -25.85 -86.55 -25.6 -86.05 -25.2 -85.8 -24.85 -85.85 -26.6 Q-85.95 -27.95 -85.7 -29.2 L-85.8 -29.2 -89.9 -27.6 -90.4 -27.65 -91.3 -27.85 -91.75 -28.25 -92.1 -28.6 -92.3 -28.95 -92.3 -29.2 -92.9 -29.1 -93.8 -29.35 -94.25 -29.75 -94.6 -30.1 -94.8 -30.45 -94.8 -30.85 -94.75 -31.2 -94.65 -31.6 Q-92.5 -34.3 -88.8 -34.8 L-87.3 -35.1 -87.3 -35.2 -91.3 -34.45 -91.65 -34.1 -92.05 -33.85 -92.3 -33.75 -92.9 -33.6 -93.8 -33.85 -94.25 -34.25 -94.65 -34.6 -94.75 -35.0 -94.8 -35.35 -94.8 -35.5 -95.0 -35.45 -96.8 -35.35 -97.25 -35.75 -97.6 -36.15 -97.8 -36.45 -97.8 -36.85 -97.75 -37.1 -99.8 -36.45 -100.15 -36.1 -100.55 -35.85 -100.8 -35.75 -101.8 -35.45 -102.15 -35.1 -102.55 -34.75 -103.05 -34.35 -103.9 -34.1 -104.8 -34.35 -105.25 -34.75 -105.65 -35.1 -105.7 -35.4 -106.65 -35.05 -107.3 -34.7 -107.9 -34.6 -108.8 -34.85 -109.25 -35.25 -109.6 -35.65 -109.8 -35.95 -109.8 -36.35 -109.9 -36.35 Q-110.8 -35.7 -111.8 -35.3 L-113.9 -34.6 -114.8 -34.85 -115.25 -35.25 -115.6 -35.65 -115.8 -35.95 -115.8 -36.35 -115.75 -36.7 -115.65 -37.1 -115.5 -37.45 -114.75 -38.2 -114.3 -38.6 Q-109.6 -40.3 -104.8 -41.5 L-104.5 -41.7 -103.75 -42.05 -102.05 -42.7 -101.4 -42.8 -101.4 -42.85 -88.95 -42.4 Q-84.2 -41.35 -81.05 -37.7 M-107.05 23.8 L-105.65 26.4 Q-104.7 28.05 -104.05 29.8 L-104.05 30.15 -104.05 30.55 -104.05 30.9 -103.8 31.65 -103.3 33.15 -103.05 33.9 -103.05 34.3 -103.05 34.65 -102.9 35.05 -102.8 35.4 -102.55 36.15 -102.55 36.55 -102.55 36.9 -102.55 37.3 -102.45 37.65 -102.3 38.05 -102.05 38.8 -102.05 39.15 -102.05 39.55 -102.05 39.9 -101.9 40.3 -101.8 40.65 -101.55 41.4 -101.55 41.8 -101.55 42.55 -101.55 43.3 -101.45 43.65 -101.3 44.05 -101.05 44.8 -101.0 46.65 -101.05 48.9 -101.05 49.65 -101.15 50.05 -101.3 50.4 -102.2 51.9 -102.9 53.05 -103.65 53.8 -105.5 55.3 -106.05 55.7 -111.65 55.95 -111.55 56.3 -111.55 56.7 -111.55 57.05 -111.4 57.45 -111.3 57.8 -111.15 58.2 -111.05 58.55 -111.05 61.2 -111.05 65.3 -111.05 66.05 -111.3 66.8 -111.8 68.3 -112.55 69.8 -112.9 70.2 -113.3 70.55 -113.65 70.95 -114.9 71.7 -116.15 72.45 -116.55 72.8 -116.95 73.15 -118.15 73.95 -118.55 74.3 -118.9 74.65 -119.4 75.05 -119.8 75.3 Q-132.3 80.8 -140.65 70.95 L-140.8 70.55 -140.9 70.2 -141.3 69.8 -141.65 69.45 -141.8 69.05 -141.9 68.7 -142.3 68.3 -142.65 67.95 -142.75 67.55 -142.8 66.8 -142.8 66.3 -143.15 65.95 Q-143.25 65.1 -143.5 64.35 L-144.4 62.2 -144.8 61.45 -144.8 61.05 -144.8 60.7 -144.95 60.3 -145.15 59.9 -145.3 59.55 -145.3 59.2 -145.3 58.8 Q-145.35 58.2 -145.65 57.7 L-146.65 55.8 -146.8 55.45 -146.8 55.05 -146.75 54.7 -146.65 53.95 -146.55 53.55 -146.15 53.2 -145.8 52.95 -145.55 52.8 -144.95 52.75 -144.9 52.65 -144.05 52.9 -143.55 53.35 -142.95 54.05 -142.65 54.45 -142.5 55.15 -141.85 56.7 -141.55 57.35 -141.55 57.3 -140.95 57.25 -140.9 57.2 -140.05 57.45 -139.55 57.8 -139.3 58.2 -138.85 58.9 -138.3 59.7 -138.15 60.05 -138.05 60.45 -137.9 60.8 Q-137.15 61.65 -136.7 62.65 L-136.4 63.35 -135.95 63.25 -135.9 63.2 -135.4 63.2 -134.55 63.45 -134.05 63.8 -133.8 64.2 -133.65 64.55 -133.3 65.3 -133.15 65.7 -132.8 66.05 -132.4 66.45 -132.05 66.8 -131.8 67.2 -131.65 67.55 -131.55 67.95 -130.65 68.7 -130.15 69.15 -130.15 68.95 -130.05 68.55 -129.65 68.2 -129.3 67.95 -129.05 67.8 -128.4 67.75 -128.4 67.7 -127.55 67.95 -127.05 68.3 -126.75 68.6 -126.75 68.2 -126.65 67.45 -126.55 67.05 -126.15 66.7 -125.8 66.45 -125.55 66.3 -124.9 66.25 -124.9 66.2 -124.05 66.45 -121.7 68.7 Q-120.75 69.75 -120.6 71.0 L-118.9 69.85 -121.05 68.55 -122.15 67.45 -122.3 67.05 -122.45 66.7 -122.8 65.95 -122.8 65.55 -122.7 64.8 -122.55 64.05 -122.15 63.7 -121.8 63.45 -121.55 63.3 -120.9 63.25 -120.9 63.2 -120.05 63.45 -119.55 63.8 -119.3 64.2 -119.15 64.55 -118.9 64.95 -118.55 65.3 -118.15 65.7 -117.75 65.95 -116.55 66.45 -116.05 66.8 -115.8 67.2 -115.75 67.25 -115.55 67.05 -115.35 66.65 -115.25 66.4 -115.4 66.45 -116.3 66.2 -117.15 65.45 -117.8 64.3 -117.8 63.95 -117.75 63.55 -117.65 63.2 -117.25 62.8 -116.8 62.45 -115.95 62.25 -115.9 62.2 -115.4 62.2 -114.8 62.4 -114.8 61.5 -115.05 61.7 -115.9 61.95 -116.8 61.7 -117.65 60.9 -119.15 59.45 -119.25 59.05 -119.3 58.3 -119.15 57.2 -118.75 56.8 -118.3 56.45 -117.45 56.25 -117.4 56.2 -116.55 56.45 -115.4 57.5 -116.05 55.85 -116.4 55.95 -117.3 55.7 -117.75 55.3 -118.15 54.95 -118.55 54.55 -118.7 54.2 -118.9 53.8 -119.25 53.05 -119.4 52.65 -119.8 52.3 -120.15 51.9 -120.65 51.15 -120.8 50.95 -120.9 50.9 -121.8 50.65 -122.25 50.3 -122.65 49.9 -122.75 49.55 -122.8 49.15 -122.75 48.45 -122.65 47.65 -122.25 47.3 -121.8 46.9 -123.25 44.25 -126.05 38.55 -126.4 38.15 -126.8 37.8 -127.15 37.4 -127.3 37.05 -127.55 36.7 -128.15 35.9 -128.3 35.55 -128.4 35.15 -128.8 34.8 -129.05 34.4 -129.3 33.65 -129.25 33.3 -129.15 32.9 -129.0 32.55 -128.65 32.15 -128.3 31.95 -128.05 31.85 -127.4 31.75 -127.4 31.65 -126.55 31.9 -126.05 32.3 -125.3 33.05 -124.9 33.4 -124.45 34.65 -123.3 36.05 -122.9 36.4 -119.9 41.5 -119.65 41.2 -119.3 40.9 -119.05 40.85 -118.4 40.75 -118.4 40.65 -117.55 40.9 -117.05 41.3 -116.8 41.7 -116.7 42.05 -116.55 42.8 -116.05 43.15 -114.9 43.9 -114.65 44.3 -114.4 44.65 -113.9 45.05 -113.4 45.4 -113.15 45.8 -112.9 46.15 -112.45 46.5 -112.25 46.3 -111.8 45.9 -110.9 45.75 -110.9 45.65 -109.5 46.3 -109.4 46.25 -109.4 46.15 -108.55 46.4 -108.05 46.8 -107.75 47.05 -107.05 47.05 -106.5 46.85 -105.9 46.65 -105.05 46.9 -104.8 47.1 -104.8 46.65 -104.8 45.9 -104.85 45.55 -104.95 45.25 -105.3 45.15 -106.15 44.4 -107.15 43.3 -107.35 41.8 -107.25 40.25 -107.75 38.55 -107.8 38.15 -107.65 37.8 -107.4 37.45 -107.05 37.05 -106.5 36.85 -106.3 36.85 -106.4 36.55 -106.55 36.15 -106.8 35.4 -106.8 35.05 -106.8 34.65 -107.05 33.9 -107.45 32.8 -107.8 32.05 -107.8 31.65 -107.8 31.3 -107.8 30.9 -108.55 29.05 -110.15 26.4 -110.25 26.05 -110.3 25.3 -110.15 24.15 -109.75 23.8 -109.3 23.4 -108.4 23.25 -108.4 23.15 -107.55 23.4 -107.05 23.8 M-135.9 70.45 L-135.55 70.8 -135.15 71.2 -133.7 72.1 -133.8 71.8 -133.9 71.45 -134.05 71.05 -135.0 69.65 -135.05 69.7 -135.3 69.8 -135.9 69.95 -136.6 69.75 -136.3 70.05 -135.9 70.45 M-108.7 51.9 L-108.75 51.95 -108.65 51.95 -108.7 51.9" fill="#ff6600" fill-rule="evenodd" stroke="none"/>
    <path d="M-207.6 -124.1 L-206.9 -124.6 -206.5 -124.9 -205.95 -125.0 -205.05 -125.15 -204.55 -125.3 -204.05 -125.55 -203.55 -125.75 -202.65 -125.8 -202.2 -125.8 -201.7 -125.75 -201.65 -125.8 -198.4 -124.5 -197.9 -124.05 -195.65 -121.9 Q-195.0 -121.25 -194.7 -120.3 L-194.25 -119.8 -193.4 -118.4 Q-192.95 -117.45 -192.9 -116.5 L-192.95 -116.1 -193.05 -115.75 -193.25 -115.4 -193.6 -114.75 -193.95 -114.5 -194.4 -114.4 -194.9 -114.45 -195.45 -115.0 -195.7 -115.5 -195.7 -115.85 -195.65 -116.0 -196.2 -116.65 -197.05 -117.6 -197.4 -118.05 -197.8 -117.95 -198.5 -117.95 -199.0 -117.7 -199.5 -117.55 -199.95 -117.3 -200.45 -117.1 -200.65 -116.75 -200.85 -116.5 -201.1 -116.15 -201.7 -115.6 -201.85 -115.25 -202.0 -114.9 -202.1 -114.55 -202.25 -114.2 -202.65 -113.95 Q-203.25 -113.5 -203.95 -113.2 L-205.9 -112.55 -206.4 -112.65 -207.8 -113.15 -208.4 -113.7 -209.6 -114.75 -210.35 -115.55 -210.55 -116.05 -211.0 -117.05 -211.4 -118.0 -211.3 -118.35 -210.8 -119.75 -210.1 -121.5 -209.7 -122.55 -209.4 -122.8 -208.95 -123.05 -208.45 -123.3 -208.2 -123.55 -207.95 -123.85 -207.6 -124.1 M-207.25 -120.95 L-207.85 -120.35 -208.0 -120.0 -208.15 -119.65 -208.3 -119.3 -208.55 -118.6 -208.4 -118.15 -207.95 -117.15 -207.75 -116.65 -207.15 -116.15 -206.65 -115.7 -206.05 -115.45 -205.6 -115.7 -204.6 -116.1 -204.25 -116.35 -204.0 -116.65 -203.85 -116.95 -203.7 -117.35 -203.55 -117.65 -203.05 -118.25 -202.1 -119.2 -201.55 -119.7 -201.05 -119.9 -200.1 -120.3 -199.75 -120.45 -199.5 -120.45 -198.85 -120.55 Q-198.65 -120.6 -198.45 -120.75 -198.9 -121.7 -200.15 -122.15 L-202.15 -123.0 -202.95 -122.95 -204.05 -122.85 -204.55 -122.65 Q-205.05 -122.45 -205.5 -122.2 L-206.0 -122.05 -206.6 -121.45 -207.25 -120.95 M-216.55 -108.2 L-216.5 -108.25 -215.5 -107.75 -214.4 -107.1 -214.0 -106.75 -213.8 -106.0 -213.75 -105.25 -213.75 -104.15 -214.05 -103.4 -214.4 -102.65 -214.75 -102.0 -215.5 -101.85 -217.5 -101.75 -218.25 -102.0 -218.6 -102.4 -218.75 -102.75 -218.95 -103.1 -219.25 -103.5 -219.25 -103.9 -219.25 -104.25 -219.25 -104.65 -219.25 -105.0 -219.25 -105.4 -218.6 -106.1 -218.25 -106.5 -217.9 -106.9 -217.75 -107.25 -217.65 -107.65 -217.2 -107.9 -216.55 -108.2 M-198.0 -103.25 L-197.65 -103.65 -197.2 -103.9 -196.5 -104.2 -196.5 -104.25 -196.0 -104.25 -194.5 -104.25 -193.9 -103.95 -193.4 -103.6 -192.4 -102.5 -192.25 -102.15 -192.35 -101.4 -192.85 -100.3 -193.5 -98.75 -193.75 -98.5 -194.0 -98.4 -195.0 -97.9 -196.0 -97.4 -196.5 -97.3 -197.5 -97.25 -198.25 -97.55 -198.55 -97.7 -199.65 -98.4 -200.0 -98.75 -200.2 -99.15 -200.25 -99.5 -200.25 -99.9 -200.25 -100.25 -200.1 -100.6 -199.9 -101.0 -199.75 -101.35 -199.5 -101.75 -199.15 -102.15 -198.75 -102.5 -198.0 -103.25 M-196.9 -100.4 L-197.25 -100.0 Q-196.2 -99.9 -195.55 -100.8 -195.4 -101.05 -195.4 -101.4 L-195.5 -101.4 -196.15 -101.15 -196.5 -100.75 -196.9 -100.4 M-163.0 -112.15 L-162.8 -111.35 -162.75 -110.65 -162.75 -109.5 -163.05 -108.75 -163.25 -108.35 -163.65 -107.65 -164.4 -106.9 -164.9 -106.55 -165.5 -106.25 -166.75 -106.6 Q-167.25 -106.75 -167.75 -107.05 L-168.15 -107.4 -168.25 -108.15 -168.25 -108.9 -168.25 -110.4 -168.25 -110.75 -167.9 -111.5 -167.7 -111.85 -167.15 -112.65 -166.7 -112.9 -166.05 -113.2 -166.0 -113.25 -164.9 -112.95 -163.4 -112.4 -163.0 -112.15 M-180.55 -38.3 L-179.5 -38.7 -179.5 -38.75 -179.0 -38.7 -178.4 -38.5 -178.0 -38.25 -177.5 -38.25 -177.0 -38.25 Q-176.1 -38.0 -175.5 -37.25 L-174.9 -36.5 -174.8 -35.75 -174.75 -34.65 -174.75 -33.9 -175.35 -32.8 -175.9 -31.65 -176.0 -31.25 -176.9 -30.55 -178.0 -29.9 -180.5 -29.75 -181.2 -30.05 -181.65 -30.4 -182.0 -30.75 -182.2 -31.15 -182.25 -31.9 -182.5 -32.25 -182.75 -32.65 -182.75 -33.0 -182.75 -33.4 -182.75 -33.75 Q-182.3 -34.45 -182.2 -35.25 L-181.85 -36.45 -181.65 -37.15 -180.55 -38.3 M-179.4 -35.4 L-179.75 -34.65 -179.8 -33.9 -180.0 -33.15 -179.6 -32.7 -178.4 -32.9 Q-177.75 -33.3 -177.6 -33.95 L-177.25 -34.75 Q-177.5 -35.45 -178.05 -36.0 L-179.15 -36.15 -179.4 -35.4 M-152.25 -100.5 L-152.0 -100.6 -151.5 -100.75 -151.0 -100.7 -150.4 -100.5 -149.75 -100.5 -148.9 -100.9 -148.5 -101.25 -148.15 -101.65 -147.75 -102.0 -147.0 -102.75 -146.8 -103.15 -146.7 -103.45 -146.4 -103.9 -146.0 -104.1 -145.5 -104.25 -144.9 -104.45 -143.9 -104.9 -143.5 -105.25 -143.25 -105.5 -143.0 -105.6 -142.4 -105.9 -142.0 -106.05 -141.5 -106.2 -141.5 -106.25 -137.5 -106.25 -136.85 -106.05 -134.95 -105.4 -134.0 -104.75 -133.4 -104.5 -132.5 -104.25 -131.9 -103.95 -131.0 -103.25 -130.4 -103.0 -130.05 -102.6 -129.8 -102.25 -129.65 -101.9 -129.25 -101.5 -128.9 -101.15 -128.5 -100.75 -128.4 -100.4 -128.25 -100.0 -128.0 -99.65 -127.75 -99.25 -127.75 -98.9 -127.75 -98.5 -127.75 -98.15 -127.75 -97.75 -127.6 -97.4 -127.4 -97.0 -127.25 -96.65 -127.25 -96.25 -127.25 -95.5 -127.25 -94.0 -127.25 -92.9 -127.25 -92.5 -127.4 -92.15 -128.1 -90.3 -129.0 -87.65 -129.25 -86.5 -129.25 -86.15 -129.3 -85.75 -129.5 -85.4 -129.75 -85.0 -129.75 -84.65 -129.75 -84.25 -130.0 -83.9 -130.25 -83.5 -130.25 -83.15 -130.3 -82.75 -130.5 -82.4 -130.9 -82.05 -131.5 -81.75 -132.2 -82.05 -132.65 -82.4 -133.0 -82.75 -133.2 -83.15 -133.25 -83.5 -133.25 -83.9 -133.25 -84.25 -133.25 -84.65 -133.25 -85.75 -133.25 -86.5 -133.2 -86.85 -133.0 -87.25 -132.75 -87.65 -132.75 -88.0 -132.75 -89.15 -132.75 -91.0 -132.75 -92.5 -132.8 -92.85 -133.0 -93.25 -133.25 -93.65 -133.25 -94.0 -133.25 -94.4 -133.5 -94.75 -133.75 -95.15 -133.9 -95.5 -134.75 -97.0 -135.05 -97.2 -136.7 -98.1 -139.5 -98.9 -140.0 -98.85 -141.35 -98.4 -143.15 -97.65 -143.5 -97.25 -143.9 -96.9 -144.4 -96.55 -145.0 -96.25 -148.2 -96.25 -147.5 -95.8 Q-145.95 -94.75 -144.65 -93.4 -144.45 -93.0 -144.4 -92.6 -144.35 -92.0 -143.95 -91.45 L-143.4 -90.35 -143.25 -90.0 -143.25 -89.25 -143.25 -88.15 -143.25 -86.65 -143.25 -85.9 -143.4 -85.5 -143.6 -85.1 -143.8 -84.75 -144.0 -84.4 -144.4 -84.05 -145.0 -83.75 -145.5 -83.8 -146.2 -84.05 -146.6 -84.4 -146.75 -84.75 -146.75 -85.15 -146.7 -85.45 -146.4 -85.9 -146.15 -86.25 -146.4 -86.6 -146.75 -87.0 -147.15 -87.4 -147.5 -87.75 -147.75 -88.15 -147.9 -88.5 -148.15 -88.85 -148.4 -89.15 -148.5 -89.2 -149.6 -89.05 -150.0 -88.9 -150.5 -88.75 -154.5 -88.75 -155.25 -89.05 -155.55 -89.2 -156.2 -89.55 -156.65 -89.9 -156.7 -90.25 -156.75 -91.0 -156.75 -92.15 -156.75 -93.25 -156.6 -93.6 -156.4 -94.0 -156.25 -94.35 -156.0 -94.75 -155.65 -95.15 -155.25 -95.5 -154.8 -95.9 -154.25 -96.5 -154.0 -96.6 -153.5 -96.75 -152.75 -97.0 -152.0 -97.25 -150.5 -97.25 -150.65 -97.4 -150.9 -97.65 -151.5 -97.75 -152.2 -98.05 -152.65 -98.4 -152.75 -98.75 -152.75 -99.15 -152.75 -99.5 -152.7 -99.85 -152.5 -100.25 -152.25 -100.5 M-92.0 -52.15 L-91.5 -52.15 -90.9 -51.95 -90.5 -51.65 -90.35 -51.25 -90.25 -49.75 -90.25 -48.25 -89.75 -48.1 Q-88.05 -47.95 -86.4 -48.9 L-86.0 -49.25 -85.65 -49.65 -85.25 -50.0 -84.4 -50.4 -84.0 -50.75 -82.15 -52.65 -81.4 -53.4 -81.25 -53.75 -80.4 -55.55 -79.75 -57.5 -79.4 -57.9 -79.0 -58.25 -78.8 -58.65 -78.75 -59.0 -78.4 -59.4 -78.0 -59.75 -77.8 -60.15 -76.95 -62.05 -75.9 -63.5 -75.8 -63.9 -75.75 -64.25 -75.6 -64.6 -75.25 -65.0 -74.9 -65.4 -74.75 -65.75 -74.65 -66.15 -74.25 -66.5 -73.15 -67.65 -72.4 -68.4 -72.0 -68.6 -71.4 -68.9 -71.0 -69.25 -70.65 -69.65 -70.25 -70.0 -69.5 -70.15 Q-67.75 -70.2 -66.5 -70.75 L-64.0 -70.75 -63.4 -70.45 -63.05 -70.1 -62.75 -69.75 -62.8 -69.4 -62.9 -69.0 -63.15 -68.65 -63.5 -68.25 -64.25 -67.5 -64.65 -67.15 -64.8 -66.8 -65.55 -65.25 Q-65.85 -64.4 -66.5 -63.75 L-66.95 -62.65 -67.95 -59.55 -68.75 -57.75 -68.75 -57.4 -68.75 -56.65 -68.75 -55.5 -68.75 -55.15 -68.8 -54.75 -69.0 -54.4 -69.25 -54.0 -69.25 -53.65 -69.25 -53.25 -69.25 -52.9 -69.2 -52.5 -69.0 -52.15 -68.75 -51.75 -68.75 -51.4 -68.75 -50.65 -68.75 -49.5 -68.55 -48.75 Q-68.2 -47.35 -67.5 -46.15 L-66.5 -44.25 -66.15 -43.9 -65.75 -43.5 -65.15 -42.9 -65.0 -42.8 -63.5 -42.25 -62.9 -42.0 -59.75 -42.0 -59.0 -42.25 -58.55 -42.2 -57.9 -41.95 -57.5 -41.65 Q-57.05 -41.15 -57.4 -40.5 L-59.1 -37.4 -60.15 -35.65 -60.5 -35.25 -61.25 -34.5 -62.0 -33.75 -62.25 -33.35 -62.4 -33.0 -62.7 -32.7 -63.25 -32.25 -63.5 -31.9 -63.8 -31.5 -64.15 -31.15 -64.55 -30.9 -65.15 -30.65 -65.5 -30.25 -65.75 -30.0 -66.0 -29.9 -67.0 -29.4 -67.65 -29.15 -68.0 -28.75 -68.25 -28.5 -72.05 -27.5 Q-74.6 -27.0 -76.4 -25.65 L-76.55 -25.3 -76.85 -24.85 -77.25 -24.15 -77.25 -23.75 -77.1 -23.4 -76.9 -23.0 -76.75 -22.65 -75.85 -22.7 -71.5 -24.25 -71.05 -24.15 -70.05 -23.6 -69.75 -23.25 Q-70.05 -22.05 -70.75 -20.9 L-73.0 -17.25 -73.65 -16.15 -74.0 -15.75 -74.75 -15.0 -75.15 -14.65 -75.3 -14.25 Q-75.75 -13.4 -76.5 -12.75 L-77.65 -11.65 -78.0 -11.4 -78.65 -11.15 -79.0 -10.75 -79.75 -10.0 -80.15 -9.65 -80.5 -9.4 -81.15 -9.15 -81.5 -8.75 -81.75 -8.5 -84.25 -7.25 Q-86.55 -6.2 -89.0 -5.75 L-91.5 -5.75 -92.25 -5.95 Q-93.35 -6.2 -94.1 -6.95 L-94.25 -7.25 -94.25 -7.65 -94.2 -7.95 -93.9 -8.4 -93.5 -8.75 -93.25 -9.0 -93.0 -9.1 -90.75 -9.5 -90.4 -9.9 -89.65 -10.65 -88.9 -11.4 -88.75 -11.75 -88.65 -12.15 -88.25 -12.5 -87.9 -12.9 -87.75 -13.25 -87.65 -13.65 -87.25 -14.0 -86.55 -14.75 -85.9 -15.5 Q-85.8 -15.7 -85.85 -15.85 L-86.15 -16.65 -86.9 -17.65 -87.0 -17.7 Q-88.1 -18.1 -89.05 -18.75 L-90.15 -19.4 -90.2 -19.75 -90.25 -20.5 -90.25 -21.65 -90.15 -21.95 Q-89.75 -22.45 -89.5 -23.1 L-89.0 -24.25 -87.15 -26.15 -83.4 -29.9 -83.25 -30.25 -83.15 -30.65 -82.75 -31.0 -82.4 -31.4 -82.25 -31.75 -81.65 -32.8 Q-81.25 -33.35 -81.25 -34.0 L-80.9 -34.4 -80.5 -34.75 -80.3 -35.15 -80.25 -35.5 -80.25 -35.9 -80.0 -36.25 -79.75 -36.65 -79.75 -37.0 -79.75 -37.4 -79.5 -37.75 -79.25 -38.15 -79.25 -38.5 -79.25 -38.9 -79.3 -39.6 -79.4 -39.9 -79.75 -39.5 -80.15 -39.15 -80.5 -38.9 -81.1 -38.6 -82.5 -37.9 -83.15 -37.65 -83.5 -37.25 -83.75 -37.0 -84.0 -36.9 Q-85.15 -36.7 -86.15 -36.1 L-86.5 -35.9 -87.0 -35.8 -89.5 -35.75 -90.25 -35.95 -93.75 -37.0 -97.75 -37.0 -98.15 -36.65 -98.5 -36.25 -99.0 -35.9 -99.5 -35.85 -100.7 -36.1 -101.15 -36.4 -101.2 -36.75 -101.25 -37.9 -101.25 -38.05 -101.65 -38.4 -101.8 -39.9 -101.75 -41.75 -101.75 -42.5 -101.5 -43.75 Q-101.3 -44.35 -100.5 -44.6 L-100.0 -44.75 Q-98.9 -44.35 -98.05 -43.5 L-97.95 -43.4 -97.9 -43.45 -97.75 -43.65 -97.7 -43.95 -97.45 -44.4 -97.25 -44.75 -97.25 -45.15 -97.25 -45.5 -96.95 -45.9 -96.55 -46.55 Q-96.2 -47.1 -96.25 -47.75 L-95.7 -48.45 -93.15 -51.15 -92.0 -52.15 M-130.9 -96.0 L-130.55 -94.9 -130.25 -94.15 -130.25 -93.75 -130.25 -93.4 -130.2 -93.25 -130.0 -93.25 -129.85 -93.65 -129.75 -94.4 -129.75 -95.15 -129.9 -95.5 -130.1 -95.9 -130.25 -96.25 -130.9 -96.0 M-146.95 -91.3 L-146.75 -91.25 -147.3 -91.95 -148.4 -93.15 -148.5 -92.25 -147.9 -91.95 -146.95 -91.3 M-131.4 -40.5 L-131.65 -40.15 -132.0 -39.9 -132.5 -39.75 -133.0 -39.8 -133.7 -40.05 -134.15 -40.4 -134.65 -40.5 -135.0 -40.4 -135.5 -40.25 -138.25 -40.0 -138.65 -39.65 -139.0 -39.25 -139.25 -39.0 -140.15 -39.0 -140.3 -38.4 -140.65 -37.65 -141.5 -35.75 -142.9 -32.0 -143.15 -31.65 -143.5 -31.25 -143.9 -30.9 -144.25 -30.5 -144.65 -30.15 -145.0 -29.9 -145.6 -29.6 -146.0 -29.4 -146.5 -29.3 -147.5 -29.25 -148.25 -29.55 -148.55 -29.7 -149.25 -30.0 -149.65 -30.4 -150.0 -30.75 -150.4 -31.15 -150.7 -31.55 -150.75 -31.9 -150.75 -32.25 -150.95 -32.6 -151.25 -33.0 -151.25 -33.4 -151.25 -33.75 -151.25 -34.15 -151.25 -34.5 -151.25 -34.9 -151.25 -36.0 -151.25 -36.75 -151.1 -37.1 -150.9 -37.5 -150.75 -37.9 -150.75 -38.25 -150.75 -38.65 -150.7 -38.95 -150.45 -39.4 -150.25 -39.75 -150.1 -40.1 -149.9 -40.5 -149.65 -41.0 -148.25 -41.0 -148.05 -41.25 -147.8 -41.65 -147.75 -42.0 -147.4 -42.4 -147.0 -42.75 -146.75 -43.0 -146.5 -43.1 -145.9 -43.4 -145.5 -43.75 -145.25 -44.0 -145.0 -44.1 -144.4 -44.4 -144.0 -44.55 -143.5 -44.7 -143.5 -44.75 -139.5 -44.75 -137.0 -44.4 Q-134.75 -44.2 -132.95 -43.05 -131.65 -42.25 -131.25 -40.9 L-131.4 -40.5 M-140.65 -41.65 L-142.65 -42.05 -142.9 -42.0 -143.65 -41.65 -144.65 -41.15 -145.0 -40.75 -145.25 -40.35 -145.4 -40.0 -145.65 -39.65 -146.35 -39.0 -147.4 -39.0 -147.8 -38.3 -148.25 -37.5 -148.25 -37.15 -148.25 -36.75 -148.5 -36.4 -148.75 -36.0 -148.75 -35.65 -148.75 -35.25 -148.75 -34.9 -148.75 -34.5 -148.7 -34.15 -148.45 -33.35 -148.25 -32.65 -147.5 -32.45 -146.0 -32.75 Q-145.4 -33.2 -145.15 -33.85 L-144.4 -35.4 -144.25 -35.75 -144.25 -36.15 -144.25 -36.5 Q-143.75 -36.95 -143.55 -37.6 L-143.1 -39.0 -143.3 -39.0 -143.0 -39.35 -142.95 -39.5 -142.75 -40.25 -142.3 -41.0 -141.25 -41.0 -140.65 -41.65 M-123.0 -35.55 L-122.55 -35.7 -122.5 -35.75 -121.5 -35.75 -120.45 -35.05 Q-119.6 -34.45 -119.0 -33.65 L-118.75 -33.25 -118.75 -32.9 -118.75 -32.15 -118.75 -31.4 -118.75 -31.0 -118.9 -30.65 -119.05 -30.25 -119.4 -29.5 -119.65 -29.15 -120.0 -28.9 -120.6 -28.6 -121.0 -28.4 -121.5 -28.3 -123.5 -28.25 -124.25 -28.55 -124.55 -28.7 -125.25 -29.0 -125.6 -29.4 -125.75 -29.75 -125.95 -30.1 -126.25 -30.5 -126.25 -31.25 -126.25 -32.4 -126.25 -33.5 -125.9 -33.9 -125.5 -34.25 -125.25 -34.5 -125.0 -34.6 -124.5 -34.75 -123.75 -35.0 -123.35 -35.35 -123.0 -35.55 M-121.9 -32.65 Q-122.1 -31.8 -123.0 -31.7 L-123.75 -31.5 -121.45 -31.45 -121.25 -31.75 -121.5 -32.45 -121.8 -32.7 -121.9 -32.65 M-153.5 -34.15 L-153.35 -33.35 -153.25 -32.25 -153.25 -31.9 Q-153.1 -31.1 -152.55 -30.45 -151.9 -29.75 -151.65 -28.9 L-149.35 -26.65 -148.4 -25.5 -148.25 -24.4 -148.3 -22.9 -148.4 -22.5 -149.05 -21.95 -150.0 -21.4 -153.0 -21.25 -153.75 -21.5 -154.15 -21.9 -154.4 -22.15 -154.5 -22.25 -155.2 -22.55 -155.65 -22.9 -156.2 -23.65 -156.75 -24.75 -156.75 -28.15 -156.75 -31.15 -156.75 -31.5 -156.7 -31.85 -156.5 -32.25 -156.25 -32.65 -156.25 -33.0 -156.2 -33.35 -156.0 -33.75 -155.6 -34.05 -154.55 -34.7 -154.5 -34.75 -153.9 -34.45 -153.5 -34.15 M-154.25 -27.0 L-154.25 -26.65 -154.25 -26.25 -153.9 -25.5 -153.5 -24.75 -152.4 -24.0 -151.25 -24.0 Q-151.7 -25.3 -153.3 -26.75 -153.95 -27.35 -154.25 -27.4 L-154.25 -27.0 M-152.25 -10.0 L-151.35 -10.35 -150.55 -10.7 -150.5 -10.75 -149.0 -10.75 -148.4 -10.45 -148.05 -10.1 -147.75 -9.75 -147.75 -9.4 -147.8 -9.0 -147.9 -8.65 -148.05 -8.35 -149.55 -6.8 -150.25 -6.0 -150.4 -5.65 -150.75 -4.9 -151.15 -4.15 -150.95 -3.8 -150.0 -2.65 -149.15 -1.9 -148.9 -1.5 -148.45 -0.8 -147.9 0.0 -147.8 0.35 -147.75 0.75 -147.75 1.1 -147.7 1.45 -147.5 1.85 -147.25 2.25 -147.3 2.6 -147.4 3.0 -147.6 3.4 -147.75 3.75 -147.75 4.1 -147.75 4.5 -147.75 4.85 -147.85 5.2 -148.2 6.0 -148.5 6.75 -148.9 7.1 -149.4 7.45 -150.15 7.85 -150.5 8.25 -150.75 8.45 -151.0 8.6 -151.5 8.7 -154.5 8.75 -155.2 8.4 Q-156.15 7.85 -157.2 7.4 L-157.65 7.1 -158.2 6.35 -158.95 4.5 -159.25 3.75 -159.25 3.35 -159.25 3.0 -159.25 2.25 -159.25 1.85 -159.2 1.55 -158.95 1.1 -158.75 0.75 -158.75 0.35 -158.75 0.0 -158.75 -0.75 -158.75 -1.15 -158.7 -1.45 -158.45 -1.9 -158.25 -2.25 -158.25 -2.65 -158.25 -3.0 -158.25 -3.4 -158.0 -3.75 -157.45 -4.55 -157.0 -5.25 -156.65 -5.65 -155.9 -6.4 -155.15 -7.15 -154.9 -7.5 -154.75 -7.85 -154.5 -8.25 -154.25 -8.5 -154.0 -8.65 -153.4 -8.9 -153.0 -9.25 -152.65 -9.65 -152.25 -10.0 M-154.0 -4.4 L-154.3 -4.0 -154.65 -3.65 -155.0 -3.25 -155.65 -1.75 Q-155.8 -0.95 -156.25 -0.25 L-156.25 0.5 -156.25 1.25 -156.25 2.0 -156.4 2.35 -156.5 2.75 Q-156.7 3.3 -156.35 3.9 L-155.4 5.35 -155.15 5.6 -155.0 5.7 -154.4 6.0 -151.4 5.6 -150.8 4.85 -150.4 4.1 -150.25 3.75 -150.25 3.0 -150.25 2.25 -150.25 1.85 Q-150.4 1.2 -150.9 0.65 L-151.65 -0.4 -152.8 -1.5 -153.75 -2.65 -153.75 -3.4 -153.7 -4.15 Q-153.65 -4.5 -153.85 -4.45 L-154.0 -4.4 M-83.5 -47.75 L-84.25 -47.0 -84.65 -46.65 Q-85.3 -46.25 -86.05 -46.0 L-88.0 -45.25 -90.5 -45.25 -91.5 -45.75 -92.65 -46.4 -92.75 -46.75 -92.75 -47.15 -92.85 -47.5 -93.0 -47.75 -93.4 -47.0 -93.8 -46.25 -94.25 -45.5 -94.25 -45.15 -94.25 -44.75 -94.7 -44.0 -95.1 -43.3 -95.25 -42.15 -95.3 -41.75 -95.55 -41.4 -95.9 -41.0 -96.5 -40.7 -97.4 -40.15 -93.0 -39.75 Q-91.3 -39.05 -89.5 -38.7 L-88.9 -38.5 -87.25 -38.5 -85.0 -39.6 -83.4 -40.4 -83.0 -40.75 -82.75 -41.0 -82.5 -41.1 -81.9 -41.4 -81.5 -41.75 -80.75 -42.5 -80.4 -42.9 -80.25 -43.25 -80.15 -43.65 -79.75 -44.0 -79.35 -44.35 -79.0 -44.65 -78.5 -44.7 -77.5 -44.75 -76.9 -44.45 -76.5 -44.15 Q-76.1 -43.65 -76.2 -43.0 L-76.25 -41.5 -76.25 -40.4 -76.4 -40.0 -76.6 -39.6 -76.75 -39.25 -76.75 -38.9 -76.75 -38.15 -76.75 -37.4 -76.75 -37.0 -77.45 -35.15 Q-77.95 -33.75 -78.7 -32.45 L-79.0 -31.75 -79.4 -31.4 -79.75 -31.0 -79.9 -30.65 -80.25 -29.85 -80.4 -29.5 -80.65 -29.15 -81.0 -28.75 -81.75 -28.0 -82.15 -27.65 Q-82.7 -26.3 -83.8 -25.3 L-86.4 -23.15 -86.55 -22.8 -87.2 -21.95 -87.25 -21.65 Q-87.25 -20.55 -86.05 -20.2 -84.9 -19.85 -84.15 -18.9 L-83.9 -18.5 -83.55 -17.75 -83.4 -17.4 -83.25 -17.0 -83.25 -16.25 -83.2 -15.15 -83.4 -14.0 -84.05 -13.25 -85.15 -12.15 -85.5 -11.75 -85.75 -11.35 -85.9 -11.0 -86.15 -10.65 -86.5 -10.25 -86.9 -9.9 -87.25 -9.5 -85.25 -10.0 -82.4 -11.4 -81.65 -12.15 -80.5 -13.25 -80.25 -13.5 -80.0 -13.6 -79.4 -13.9 -78.55 -14.65 -77.9 -15.35 -77.5 -15.75 -77.3 -16.15 -77.25 -16.5 -76.9 -16.9 -76.5 -17.25 -76.15 -17.65 -75.9 -18.0 -75.75 -18.35 -75.5 -18.75 -75.15 -19.15 -74.75 -19.5 -74.4 -19.9 -74.65 -20.0 -75.05 -19.9 -75.5 -19.75 -77.5 -19.75 -78.25 -20.05 -78.65 -20.4 -78.95 -20.8 -79.4 -21.5 -79.75 -22.25 -79.75 -23.0 -79.75 -24.15 -79.75 -25.25 -79.4 -26.0 -79.05 -26.75 -78.75 -27.5 -78.4 -27.9 -78.0 -28.25 -77.75 -28.5 -69.9 -30.95 -68.9 -31.4 -68.5 -31.75 -68.25 -32.0 -68.0 -32.15 -67.0 -32.6 -66.4 -32.9 -65.25 -34.0 -64.15 -35.15 -63.9 -35.5 -63.75 -35.85 -63.5 -36.25 -63.15 -36.65 -62.75 -37.0 -62.4 -37.4 -62.25 -37.75 -62.1 -38.1 -61.9 -38.5 -61.75 -38.9 -65.0 -39.75 -65.75 -40.0 -66.15 -40.4 -66.5 -40.75 -66.9 -41.15 -67.75 -41.5 -68.15 -41.9 -68.5 -42.25 -68.9 -42.65 -69.9 -44.5 -70.95 -47.1 -71.25 -47.5 -71.25 -48.25 -71.25 -49.4 -71.25 -50.5 -71.3 -50.85 -71.5 -51.25 -71.75 -51.65 -71.75 -52.4 -71.75 -53.5 -71.75 -54.65 -71.7 -54.95 -71.45 -55.4 -71.25 -55.75 -71.25 -56.9 -71.25 -58.0 -71.25 -59.15 -71.2 -59.45 -70.95 -59.9 -70.75 -60.25 -70.75 -60.65 -70.75 -61.0 Q-69.85 -62.15 -69.35 -63.55 L-67.9 -67.0 -67.75 -67.4 -67.7 -67.5 -68.65 -67.6 -68.9 -67.5 -69.65 -67.15 -70.4 -66.4 -71.4 -65.65 -71.55 -65.3 -72.25 -64.5 -72.65 -64.15 -72.8 -63.75 -73.25 -63.0 -73.4 -62.65 -73.5 -62.25 -73.9 -61.9 -74.25 -61.5 -74.7 -60.35 Q-75.05 -59.6 -75.55 -58.9 L-76.0 -57.75 -76.4 -57.4 -76.75 -57.0 Q-77.65 -54.9 -78.7 -52.85 -79.95 -50.3 -82.25 -48.5 L-82.5 -48.4 -83.15 -48.15 -83.5 -47.75 M-104.25 -44.15 Q-104.2 -43.55 -104.4 -43.0 L-105.35 -41.85 -106.8 -40.55 -107.0 -40.4 -109.5 -40.25 -110.25 -40.5 -111.0 -41.25 -111.75 -42.0 -111.75 -42.75 -111.75 -43.5 -111.75 -44.65 -111.7 -44.95 -111.45 -45.4 -111.25 -45.75 -111.15 -46.15 -110.75 -46.5 -110.0 -47.25 -109.75 -47.5 -109.0 -47.75 -107.55 -48.2 -107.5 -48.25 -105.9 -47.95 -104.5 -46.75 -104.25 -45.65 -104.25 -44.15 M-109.25 -43.65 L-109.0 -43.25 -108.85 -43.0 -108.75 -42.9 -107.75 -43.0 -107.3 -43.75 -106.9 -44.5 -106.75 -44.9 -106.9 -45.1 -107.0 -45.2 -108.15 -45.15 -108.85 -44.35 -109.25 -43.65 M-98.0 -1.25 L-97.45 -0.95 -96.75 -0.25 Q-96.8 0.95 -97.2 2.0 L-98.25 4.6 -98.25 5.0 -98.25 5.75 -98.25 6.5 -97.55 8.75 -96.75 11.35 -95.95 12.55 Q-95.5 13.2 -95.25 14.0 L-93.1 16.3 -91.5 17.75 -91.4 18.1 -91.25 18.5 Q-89.45 20.05 -88.5 22.25 L-87.25 24.85 -87.25 25.25 -87.25 26.0 -87.25 26.75 -87.1 27.1 -86.9 27.5 -86.75 27.85 -86.75 30.1 -86.75 32.75 -86.75 33.1 -87.55 35.4 -88.4 38.0 -89.45 39.45 -89.9 41.0 -92.35 43.65 -93.75 45.0 -94.0 45.1 -94.65 45.35 -95.0 45.75 -95.25 46.0 -93.0 45.75 -92.0 45.75 -91.4 46.05 -91.0 46.35 -90.8 46.75 -90.75 47.1 -90.75 47.85 -90.8 48.2 -91.0 48.6 -91.25 49.0 -91.25 49.35 -91.25 49.75 -91.25 50.5 -91.4 50.85 -91.65 51.65 -91.75 52.35 -91.85 52.7 -92.3 53.45 -92.65 53.85 -92.75 54.25 -92.8 54.6 -92.9 55.0 -93.45 55.75 -94.15 56.85 -94.9 57.6 -95.65 58.35 -96.0 58.6 -96.65 58.85 -97.45 59.55 -98.5 60.25 -99.5 60.25 -99.8 60.45 -100.0 60.6 -104.5 60.75 -105.2 60.4 -105.75 59.75 -105.75 59.35 -105.7 59.05 -105.4 58.6 -105.0 58.35 -104.0 57.75 -103.65 57.35 -103.45 56.95 -103.4 56.6 -105.35 57.05 -106.0 57.25 -107.5 57.25 Q-112.6 56.6 -117.25 54.5 L-117.65 54.1 -117.9 53.85 -118.0 53.75 -118.7 53.45 -119.15 53.1 -119.65 52.3 Q-119.9 51.75 -120.4 51.35 L-120.5 51.25 -121.25 51.0 -121.55 50.6 -121.95 49.9 -122.25 49.5 -122.25 48.35 -122.25 46.85 -122.25 46.5 -121.9 46.1 -121.25 45.5 -121.0 45.35 -117.5 45.25 -116.9 45.5 -114.75 45.5 -114.0 45.25 -113.25 45.0 -112.85 44.65 -111.9 44.1 -111.5 43.75 -111.15 43.35 -110.75 43.0 -109.9 42.6 -109.55 42.25 -109.3 41.85 -109.25 41.5 -108.9 41.1 -108.5 40.75 -108.15 40.35 Q-107.7 39.9 -107.6 39.3 -107.35 38.25 -106.75 37.35 L-106.75 37.0 -106.75 36.6 -106.75 36.25 -106.6 35.9 -106.4 35.5 -107.3 35.05 -108.75 34.5 -111.9 34.5 -112.4 34.85 -112.85 35.95 Q-113.1 37.0 -113.65 37.85 L-114.5 38.0 -115.65 37.7 Q-115.95 37.55 -115.65 36.7 L-116.25 36.5 -116.65 36.1 -117.0 35.75 -117.4 35.35 -117.7 34.95 -117.75 34.6 -117.75 34.25 -117.95 33.9 -118.25 33.5 -118.65 33.1 -118.8 31.6 -118.75 29.75 -118.75 29.35 Q-118.3 28.3 -118.0 27.05 -117.65 25.85 -116.75 24.95 L-116.75 24.5 -116.75 22.6 -116.75 22.25 -116.6 21.9 -116.45 21.45 -116.25 20.75 -115.7 20.05 -114.65 18.85 -114.4 18.5 -114.25 18.15 -114.0 17.75 -113.25 17.0 -112.5 16.35 -112.05 16.35 -111.0 16.85 Q-110.6 18.1 -110.65 19.5 L-110.75 22.5 -110.55 23.25 -109.9 24.35 -108.9 25.05 -107.4 25.5 -106.75 25.5 -105.9 25.05 -105.5 24.75 -105.3 24.35 -105.25 24.0 -105.25 23.6 -105.0 23.25 -104.75 22.85 -104.75 15.75 -104.75 9.35 -104.7 9.05 -104.45 8.6 -104.25 8.25 -104.25 7.85 -104.25 7.5 -104.25 6.75 -104.1 6.4 -103.9 6.0 -103.75 5.6 -103.75 5.25 -103.75 4.85 -103.75 4.5 Q-103.75 3.85 -103.4 3.3 L-102.65 1.85 -101.9 1.1 -100.75 0.0 -98.9 -0.9 -98.0 -1.25 M-87.0 -4.25 L-86.5 -4.15 -86.0 -4.15 -85.5 -4.25 -84.45 -3.9 -83.5 -3.25 Q-83.2 -2.55 -83.25 -1.75 L-83.25 -0.25 -83.25 0.5 -84.3 2.7 Q-85.25 4.45 -87.0 5.25 L-89.0 5.25 -89.75 5.0 -90.5 4.25 -91.25 3.5 -91.25 2.35 -91.25 1.6 -91.25 0.5 -91.2 0.15 -91.0 -0.25 -90.8 -0.65 -90.75 -1.0 -90.4 -1.4 -90.0 -1.75 -89.8 -2.15 -89.75 -2.5 -89.4 -2.9 -89.0 -3.25 -88.75 -3.5 -87.9 -3.85 -87.05 -4.2 -87.0 -4.25 M-87.15 -1.15 L-88.0 -0.05 -88.75 1.1 -88.75 1.5 -88.75 1.85 -88.75 2.25 -88.75 2.5 -88.65 2.55 -87.25 2.5 -86.3 1.0 -85.75 -0.5 -85.8 -0.9 -85.95 -1.15 -86.5 -1.4 -87.15 -1.15 M-101.1 4.9 L-101.25 5.6 -101.25 6.35 -101.3 6.7 -101.5 7.1 -101.75 7.5 -101.75 7.85 -101.75 8.6 -101.75 9.35 -101.8 9.7 -102.0 10.1 -102.25 10.5 -102.25 17.25 -102.25 23.6 -102.4 24.0 -102.6 24.4 -102.75 24.75 -102.75 25.1 -102.8 25.5 -102.9 25.85 -103.05 26.2 -103.75 27.0 -104.15 27.35 -104.5 27.6 -105.1 27.9 -105.5 28.1 -108.0 28.25 -110.55 27.3 -111.25 27.0 -111.65 26.6 -112.0 26.25 -112.4 25.85 -112.7 25.45 -113.05 24.75 -113.25 24.35 -113.25 23.6 -113.25 22.5 -113.25 21.75 -113.45 21.8 -113.9 22.5 -114.25 23.25 -114.25 23.6 -114.25 24.0 -114.25 24.75 -114.1 25.1 -113.85 25.9 -113.75 26.6 -113.9 27.0 -114.15 27.35 -114.5 27.6 -114.95 27.6 -115.25 27.55 -115.25 27.85 -115.25 28.25 -115.25 28.6 -115.6 29.4 -116.2 30.55 -116.25 30.85 Q-116.35 31.5 -115.95 32.05 -115.5 32.7 -115.25 33.5 L-114.5 34.2 -114.45 34.25 Q-112.7 31.05 -108.0 31.75 -106.4 32.25 -104.95 33.1 -104.45 33.35 -104.0 33.75 L-103.85 34.5 -103.75 36.0 -103.75 36.35 -103.8 36.7 -104.0 37.1 -104.25 37.5 -104.25 37.85 -104.25 38.25 -104.25 38.6 -105.6 41.2 -106.9 43.5 -107.15 43.85 -107.5 44.25 -107.75 44.5 -108.0 44.6 -108.65 44.85 -109.45 45.55 -110.65 46.35 -111.0 46.75 -111.25 47.0 -112.1 47.4 -113.5 48.1 -117.5 48.25 -118.25 48.0 -119.75 48.0 -119.5 48.35 -119.3 48.75 -119.15 49.1 -117.65 50.6 -116.65 51.6 Q-111.95 54.3 -106.5 54.35 -104.1 54.0 -102.0 52.85 L-101.5 52.8 -100.5 52.75 -99.9 53.05 -99.5 53.35 Q-99.15 54.45 -99.75 55.6 L-100.75 57.75 -100.1 57.8 -100.0 57.75 -98.4 57.1 -97.25 56.0 -96.15 54.85 -95.05 53.1 -94.25 51.1 -94.25 50.75 -94.25 50.35 -94.2 50.05 -93.95 49.6 -93.75 49.0 -100.0 48.5 -101.15 48.1 -101.2 47.75 -101.25 47.0 -101.25 46.25 -101.1 45.9 -100.75 45.5 -100.4 45.1 -98.75 44.45 -97.25 44.0 -96.9 43.6 -96.5 43.25 -96.25 43.0 -96.0 42.85 -95.4 42.6 -93.45 40.8 -92.4 39.6 -91.75 38.15 -90.75 36.25 -90.75 35.85 -90.75 35.5 -90.45 35.1 -90.25 34.75 -90.25 34.35 -90.25 34.0 -89.95 33.6 -89.75 33.25 -89.75 32.85 -89.75 32.5 -89.45 32.1 -89.25 31.75 -89.25 30.6 -89.25 29.1 -89.25 28.75 -89.45 28.4 -89.75 28.0 -89.75 27.6 -89.75 27.25 -89.75 26.5 -89.8 26.15 -90.0 25.75 -90.25 25.35 -90.25 25.0 -90.25 24.6 -91.25 23.2 -92.15 21.6 -93.2 20.45 Q-93.75 19.85 -94.4 19.35 L-94.7 18.95 -94.8 18.65 -95.0 18.25 -95.75 17.5 -96.9 16.35 -97.2 15.95 -97.3 15.65 -97.5 15.25 -97.9 14.85 -98.25 14.5 Q-98.45 13.7 -98.8 12.95 -99.2 12.15 -99.75 11.5 L-99.75 11.1 -99.75 10.75 -99.95 10.4 -100.25 10.0 -100.25 9.6 -100.25 9.25 -100.45 8.9 -100.75 8.5 -100.7 6.7 -100.7 6.6 Q-100.65 5.5 -100.9 4.5 L-101.1 4.9 M-141.75 10.0 L-141.7 10.35 -141.4 11.1 -141.25 11.5 -141.25 11.85 -141.25 12.25 -141.25 12.6 -141.4 13.0 -141.6 13.4 -141.8 14.1 -141.9 14.5 -142.15 14.85 -142.5 15.25 -142.75 15.45 -143.0 15.6 -143.5 15.7 -146.5 15.75 -147.25 15.5 -147.65 15.1 -148.4 14.35 -149.15 13.6 -149.2 13.25 -149.25 11.75 -149.25 9.85 -149.25 9.5 -148.85 9.15 -148.1 8.3 -147.75 7.6 -147.5 7.25 -147.25 7.0 -147.0 6.9 -146.5 6.8 -146.5 6.75 -144.5 6.75 -143.9 7.05 -142.25 8.45 Q-141.75 8.95 -141.75 9.6 L-141.75 10.0 M-144.7 9.95 L-144.75 9.6 -144.9 9.45 -145.75 9.45 -145.75 9.5 -145.9 9.85 -146.0 10.25 -146.6 11.05 -146.75 11.75 -146.35 12.45 -146.0 12.85 Q-144.65 13.75 -144.2 12.65 L-144.0 12.25 -144.2 11.5 -144.25 11.1 -144.25 10.75 -144.45 10.4 -144.7 9.95 M-160.0 24.25 L-158.9 24.55 Q-158.15 24.85 -157.9 25.6 L-157.8 26.0 -157.9 26.35 -158.0 26.75 -158.9 27.45 -159.65 27.85 -159.5 28.25 -159.4 28.6 -159.25 29.0 -159.25 29.35 -159.25 29.75 -159.25 30.1 -159.25 30.85 -159.3 31.2 -159.5 31.6 -159.7 32.0 -159.75 32.35 -159.3 33.9 -158.5 35.75 -158.25 36.5 -157.2 37.7 -156.0 38.75 -155.9 39.1 -155.75 39.5 -155.4 39.85 -155.0 40.25 -154.65 40.6 -154.25 41.35 -153.9 42.1 -153.75 42.5 -153.75 42.85 -153.75 43.25 -153.6 43.6 -153.4 44.0 -153.25 44.35 -153.25 44.75 -153.25 45.1 -153.25 45.5 -153.25 45.85 -153.55 46.6 -153.85 47.35 -154.0 47.75 -154.75 48.5 -155.5 49.25 -155.75 49.5 -156.65 49.9 -157.6 50.4 -158.0 50.6 -161.0 50.75 -161.75 50.45 -162.05 50.3 -162.75 50.0 -163.9 48.85 -165.0 47.75 -165.4 47.0 -166.0 45.9 -166.25 45.5 -166.25 45.1 -166.25 44.75 -166.45 44.4 -166.75 44.0 -166.75 43.6 -166.75 43.25 -166.75 42.85 -166.9 42.5 -167.1 42.1 -167.25 41.75 -167.25 39.85 -167.25 38.0 -167.25 36.85 -167.2 36.55 -166.95 36.1 -166.75 35.75 -166.75 35.35 -166.75 35.0 -165.25 31.65 -163.5 28.25 -163.15 27.85 -162.75 27.5 -162.4 27.1 -162.1 26.4 -161.45 25.25 -161.15 24.85 -160.7 24.6 -160.05 24.3 -160.0 24.25 M-161.95 34.4 L-162.25 34.0 -162.25 32.85 -162.25 32.25 Q-162.3 31.95 -162.5 32.25 L-162.7 32.65 -162.8 33.0 -162.9 33.35 -163.4 34.1 -163.75 34.5 -163.75 34.85 -163.75 35.25 -164.0 35.6 -164.25 36.0 -164.25 36.35 -164.25 36.75 -164.25 37.1 -164.4 37.5 -164.6 37.9 -164.75 38.25 -164.75 39.35 -164.75 40.1 -164.75 40.5 -163.9 43.15 Q-163.5 44.2 -163.25 45.35 L-161.9 46.9 -161.15 47.6 -159.25 48.0 -157.75 47.5 -156.35 45.95 -156.0 45.25 -156.2 44.5 -156.25 43.75 -156.7 42.95 -157.0 42.25 -157.4 41.85 -157.75 41.5 -157.8 41.15 -158.0 40.75 -159.15 39.6 -159.9 38.85 -160.85 37.0 -161.75 35.5 -161.75 35.1 -161.75 34.75 -161.95 34.4 M-140.25 47.6 Q-139.9 46.75 -139.0 46.8 L-139.0 46.75 -138.45 47.05 -137.75 47.75 -137.8 48.1 -137.85 48.6 -137.75 48.75 -137.8 49.1 -138.2 49.85 -138.25 49.95 -138.25 51.5 -138.25 53.75 -138.25 54.1 -138.2 54.45 -137.8 55.25 -137.65 55.6 -137.25 56.0 -136.9 56.35 -136.6 56.55 -135.4 57.0 -133.25 57.0 -131.25 56.5 -130.85 56.15 -130.4 55.7 -130.15 55.35 -129.9 54.6 Q-129.85 53.95 -129.4 53.5 L-129.35 53.15 -129.5 52.75 -129.75 52.35 -129.75 52.0 -129.75 51.6 -130.05 51.25 -130.4 50.85 -130.75 50.5 -130.8 50.15 -131.0 49.75 -131.25 49.35 -131.25 49.0 -131.25 48.25 -131.25 47.5 -130.85 47.15 -130.5 46.9 -130.0 46.75 -129.4 47.0 -128.45 48.0 Q-127.9 48.75 -127.65 49.6 -125.85 50.65 -124.45 52.2 L-123.5 53.25 Q-122.95 53.55 -122.45 53.95 L-121.65 54.6 -120.9 55.0 -119.85 56.5 -119.25 58.0 -119.25 58.35 -119.25 58.75 -119.1 59.1 -118.9 59.5 -118.75 59.85 -118.75 62.5 -118.75 65.5 Q-119.35 67.4 -120.3 69.2 L-121.75 72.6 -121.8 74.1 -121.8 74.5 -121.85 74.5 -121.85 74.6 Q-121.8 74.8 -121.9 75.0 L-121.95 75.1 -121.25 75.75 -121.3 76.1 -121.7 76.8 -122.0 77.1 -124.0 77.25 -124.75 77.0 -125.9 75.85 -126.55 75.2 -126.55 75.05 -129.05 75.95 -131.5 76.75 -137.5 76.75 -139.25 76.0 -140.75 75.5 -141.15 75.1 -141.4 74.85 -141.5 74.75 -142.25 74.5 -142.65 74.1 -142.9 73.85 -143.0 73.75 -143.75 73.5 -144.15 73.1 -144.4 72.85 -144.5 72.75 -145.25 72.5 -145.65 72.1 -146.0 71.75 -146.4 71.35 -147.25 71.0 -148.15 69.45 -148.5 68.6 -148.75 68.5 -149.5 67.75 -150.65 66.6 -150.75 66.25 -150.9 65.85 -151.25 65.5 -151.65 65.1 -151.75 64.75 -151.9 64.35 -152.25 64.0 -152.65 63.6 -152.75 63.25 -152.95 62.9 -153.25 62.5 -153.25 62.1 -153.25 61.75 -153.45 61.4 -153.75 61.0 -153.75 59.1 -153.75 56.85 -153.75 56.5 -153.35 56.15 -153.0 55.9 -152.5 55.75 -151.45 56.45 -150.65 57.1 -149.9 57.5 -149.25 57.5 -147.75 56.95 -146.9 56.6 -144.6 54.25 -143.15 52.85 -142.25 51.3 -141.25 49.85 -141.25 49.5 -141.2 49.15 -141.0 48.75 -140.65 48.5 -140.25 47.6 M-126.15 54.6 L-126.5 54.25 -127.2 55.35 -128.0 57.25 -128.4 57.6 -128.75 58.0 -129.15 58.35 Q-130.6 59.35 -132.35 59.55 L-133.0 59.75 -136.0 59.75 -138.05 58.75 Q-138.55 58.45 -139.15 58.1 L-139.95 57.0 Q-140.2 56.15 -140.75 55.5 L-140.75 54.45 -143.25 57.0 -145.15 58.85 -146.85 59.6 -148.0 60.1 Q-150.05 59.9 -150.75 60.6 L-149.9 62.5 -148.5 64.75 -147.75 65.5 -146.65 66.6 -144.95 69.3 -144.65 69.6 -143.9 70.0 -142.9 70.5 -142.55 70.9 -142.25 71.25 -141.65 71.65 -141.25 72.0 -141.0 72.25 Q-140.0 72.65 -139.0 73.2 L-137.4 74.0 -131.75 74.0 Q-129.8 73.55 -128.0 72.75 L-127.25 72.5 -126.9 72.1 -126.5 71.75 -126.0 71.35 -125.55 71.35 Q-125.0 71.55 -124.55 71.9 L-124.35 72.15 -124.25 72.05 -124.25 71.85 -124.25 71.5 -124.2 71.15 -124.0 70.75 -123.75 70.35 -123.75 70.0 -123.75 69.6 -122.8 67.75 -121.75 65.85 -121.75 65.5 -121.75 65.1 -121.5 64.75 -121.25 64.35 -121.25 63.25 -121.25 61.35 -121.25 61.0 -121.3 60.65 -121.5 60.25 -121.75 59.85 -121.75 59.5 -121.75 59.1 -122.25 58.35 -122.75 57.25 -122.95 56.95 -123.75 56.5 -124.15 56.1 -124.5 55.75 -124.9 55.35 -125.75 55.0 -126.15 54.6 M-161.9 64.6 L-161.8 65.0 -161.7 65.35 -161.4 66.1 -161.25 66.5 -161.25 66.85 -161.25 67.25 -161.25 67.6 -161.3 68.75 -161.4 69.5 -161.65 69.85 -162.0 70.1 -162.45 70.25 -162.5 70.25 -165.5 70.25 -166.25 70.0 -166.65 69.6 -167.0 69.25 -167.4 68.85 -168.5 67.75 -168.9 67.35 -169.75 67.0 -170.15 66.6 -170.4 66.35 -171.5 66.2 -172.0 66.15 -172.25 66.15 -172.5 66.2 -180.4 67.9 -182.5 68.25 -183.0 68.2 -183.7 67.95 -184.1 67.6 -184.25 67.25 -184.25 66.85 -184.2 66.55 -183.9 66.1 -183.75 65.75 -183.75 65.35 -183.75 65.0 -183.4 64.6 -183.25 64.25 -183.25 63.85 -183.2 63.55 -182.9 63.1 -182.5 62.9 -181.9 62.6 -181.5 62.25 -181.15 61.85 -180.75 61.5 -180.4 61.35 -179.9 61.1 -179.5 60.9 -178.9 60.6 -178.5 60.35 -178.0 60.35 -174.0 60.1 -174.0 59.75 -173.0 59.75 -170.5 59.75 -170.0 59.75 -169.4 59.85 Q-167.8 59.9 -166.45 60.6 -165.6 61.0 -165.0 61.75 L-164.4 62.05 -163.9 62.4 -163.5 62.75 -162.4 63.85 -162.0 64.25 -161.9 64.6 M-179.9 12.35 L-177.45 13.2 Q-176.95 13.35 -176.55 13.75 L-175.9 14.5 -175.75 15.6 -175.75 16.0 -175.75 17.1 -175.75 18.25 -176.0 18.6 -176.25 19.0 -176.65 19.35 -177.6 19.9 -178.0 20.1 -178.6 20.4 -179.0 20.6 -179.5 20.7 -180.5 20.75 -181.25 20.45 -182.25 20.0 Q-182.8 19.55 -183.0 18.9 L-183.1 18.45 Q-183.25 17.85 -183.75 17.35 L-183.75 17.0 -183.75 16.25 -183.75 15.85 -183.75 15.5 -183.7 15.15 -183.5 14.75 -183.25 14.35 -183.25 14.0 -183.25 13.6 -182.25 12.5 -181.85 12.15 -181.0 11.75 -180.4 12.05 -179.9 12.35 M-181.25 16.1 L-181.0 16.85 -180.6 17.6 -180.25 18.0 -178.95 17.45 -178.25 16.85 Q-178.25 16.5 -178.4 16.15 L-178.75 15.5 Q-179.0 15.2 -179.25 15.5 L-180.05 15.95 -181.25 16.1 M-193.35 24.6 L-193.25 26.5 -193.25 27.6 -193.4 28.0 -193.6 28.35 -194.0 29.1 -194.4 29.45 -194.9 29.85 -195.05 30.2 -195.25 30.45 -195.5 30.6 -196.0 30.7 -197.5 30.75 -198.25 30.5 -198.65 30.1 -199.4 29.35 -199.75 29.0 -199.75 28.25 -199.8 26.35 -199.65 24.85 -199.2 24.6 -197.25 24.0 -196.85 23.65 -196.5 23.45 -196.0 23.3 -196.0 23.25 -194.5 23.25 -193.9 23.55 -193.5 23.85 -193.35 24.6 M-200.9 46.0 Q-199.65 47.65 -198.65 49.45 -197.5 51.55 -196.75 53.85 L-196.75 54.25 -196.75 54.6 -196.75 55.0 -196.7 55.35 -196.55 55.75 -196.4 56.1 -196.25 56.5 -196.25 57.25 -196.25 58.0 -196.25 58.75 -196.25 59.1 -196.4 59.5 -196.6 59.9 -196.75 60.25 -196.75 60.6 -196.75 61.0 -197.85 63.2 Q-198.6 64.5 -199.75 65.5 L-200.15 65.85 -201.0 66.2 -202.5 66.75 -205.0 66.75 -205.75 66.5 -206.5 65.75 -207.25 65.0 -207.25 63.5 -207.25 62.0 -207.25 60.5 -207.2 60.15 -207.0 59.75 -206.75 59.35 -206.75 59.0 -206.75 58.6 -206.5 58.25 -206.25 57.85 -206.25 57.5 -206.25 57.1 -206.0 56.75 -205.75 56.35 -205.75 56.0 -205.75 55.6 -205.5 55.25 -205.15 54.85 -204.9 54.5 -204.55 53.4 -204.25 52.65 -203.75 51.85 -203.75 51.5 -203.75 51.1 -203.75 50.75 -204.4 49.7 -204.95 48.55 -205.4 47.85 -205.5 47.75 -206.2 47.45 -206.65 47.1 -207.0 46.75 -207.2 46.35 -207.25 46.0 -207.25 45.6 -206.35 44.4 Q-205.8 43.8 -205.0 43.8 L-205.0 43.75 Q-203.9 43.85 -202.9 44.5 -202.2 45.0 -201.65 45.6 L-200.9 46.0 M-222.75 23.6 L-222.9 24.35 -223.4 25.1 -224.15 25.85 -224.5 26.1 -227.5 26.25 -228.25 25.95 -228.55 25.8 -229.25 25.5 -229.6 25.1 -229.75 24.75 -229.9 24.35 -230.25 24.0 -230.65 23.6 -230.7 23.25 -230.75 22.85 -230.75 22.5 -230.75 21.75 -230.4 21.0 -229.95 20.25 -229.75 20.0 -227.25 19.4 -226.5 19.25 Q-225.95 19.35 -225.45 19.6 L-224.15 20.6 -223.7 21.35 -223.15 22.15 -222.9 22.5 -222.8 22.85 -222.75 23.25 -222.75 23.6 M-227.5 23.25 L-227.15 23.4 -225.65 23.1 -226.05 22.8 -227.0 22.25 -227.6 22.65 -227.5 23.25 M-210.4 55.05 L-210.0 55.4 -209.75 55.75 -209.75 56.1 -209.8 56.5 -209.9 56.85 -210.4 57.6 -211.15 58.35 -211.75 59.0 -212.0 59.1 -212.5 59.25 -213.35 59.5 -214.0 59.75 -216.5 59.75 -217.25 59.45 -217.55 59.3 Q-217.9 59.1 -218.25 59.0 L-218.65 58.6 -219.0 58.25 -219.5 57.85 -219.75 58.0 -220.0 58.1 -220.5 58.25 -221.0 58.2 -221.7 57.95 -222.1 57.6 -222.25 57.25 -222.25 56.85 -222.2 56.55 -221.9 56.1 -221.5 55.9 -220.9 55.6 -220.8 55.25 -220.75 54.85 -220.75 54.5 -220.75 54.1 -220.5 53.75 -220.15 53.35 -219.75 53.0 -217.25 52.45 -216.5 52.25 -215.5 52.25 -213.4 53.05 Q-212.05 53.55 -211.15 54.6 L-210.4 55.05 M-203.25 57.35 L-203.25 57.75 -204.05 59.65 Q-204.25 60.45 -204.75 61.1 L-204.85 62.6 -204.5 63.75 -202.45 63.8 Q-202.15 63.6 -201.75 63.5 L-201.0 62.75 -200.65 62.35 -199.9 60.8 -199.25 59.75 -199.25 59.35 -199.25 59.0 -198.9 58.6 -198.75 58.25 -198.75 57.85 -198.75 57.5 -199.05 56.75 -199.25 56.35 -199.25 55.6 -199.25 54.85 -200.05 53.05 -200.4 51.5 -201.0 50.75 -201.25 50.55 -201.25 50.6 -201.25 51.35 -201.25 52.1 -201.25 52.5 -202.0 54.35 -202.4 55.85 -202.9 56.6 -203.25 57.0 -203.25 57.35 M-215.5 55.25 L-216.5 55.25 -217.9 55.5 -217.5 55.9 -217.3 56.25 -217.15 56.6 -216.4 57.0 -214.75 57.0 -214.1 56.65 Q-213.8 56.45 -213.65 56.1 L-213.9 55.9 -214.75 55.5 -215.5 55.25 M-208.5 68.75 L-206.0 69.25 Q-205.1 69.5 -204.5 70.25 L-204.3 71.0 -204.25 71.35 -204.25 72.1 -204.25 72.85 -204.55 73.6 -204.7 74.0 -205.2 75.15 -205.65 75.85 -206.0 76.25 -206.25 76.45 -206.5 76.6 -208.5 76.75 -209.25 76.5 -209.65 76.1 -210.0 75.75 -210.4 75.35 -210.7 74.95 -210.8 74.65 -211.0 74.25 -211.4 73.85 -211.75 73.5 -211.75 73.1 -211.75 72.75 -211.75 72.35 -211.75 72.0 -211.7 71.65 -211.5 71.25 -211.3 70.85 -211.25 70.5 -210.9 70.1 -210.5 69.75 -210.25 69.5 -209.4 69.1 -209.0 68.95 -208.5 68.8 -208.5 68.75 M-209.15 72.35 L-208.7 73.15 -208.0 74.0 -207.35 73.3 -206.9 72.6 Q-207.3 71.8 -209.0 72.3 L-209.15 72.35 M-240.15 61.35 L-239.7 61.1 -239.0 60.8 -239.0 60.75 -238.5 60.8 Q-238.2 60.85 -237.9 61.05 L-237.4 61.35 Q-236.85 61.8 -236.6 62.45 L-235.9 64.0 -235.75 64.35 -235.75 66.25 -235.75 68.85 -235.75 69.25 -235.9 69.6 -236.1 70.0 -236.2 70.35 -236.25 70.75 -236.5 71.1 -236.75 71.5 -236.9 71.85 -237.0 72.25 -237.75 72.95 -238.5 73.6 -241.5 73.75 -242.25 73.45 -242.55 73.3 -243.25 73.0 -243.6 72.6 -243.75 72.25 -243.9 71.9 -244.25 71.5 -244.25 70.75 -244.25 69.6 -244.25 68.85 -244.2 68.55 -243.9 68.1 -243.75 67.75 -243.75 67.35 -243.75 67.0 -243.4 66.6 -243.25 66.25 -243.25 65.85 -243.25 65.5 -243.05 65.1 -242.9 64.75 -242.8 64.35 -242.75 64.0 -242.4 63.6 -242.25 63.25 -242.15 62.85 -241.7 62.55 -240.9 62.1 -240.5 61.75 -240.15 61.35 M-173.0 63.25 L-172.0 63.25 -170.5 63.25 -170.5 63.6 -169.5 63.8 Q-168.6 64.0 -168.0 64.75 L-167.4 65.05 -166.9 65.4 -165.4 66.85 -164.75 67.5 -164.65 67.55 -163.9 67.5 -164.1 67.1 -164.25 66.75 -164.3 66.35 -164.4 66.0 -164.65 65.65 -165.0 65.25 -165.4 64.85 -165.75 64.5 -166.05 64.3 -166.75 64.0 -167.15 63.6 -167.4 63.35 -168.3 63.05 -171.85 62.45 -172.4 62.5 -173.0 62.75 -177.4 63.0 -178.1 63.4 -178.5 63.75 -179.35 64.5 -179.5 64.75 -179.0 64.7 -177.3 64.4 -174.0 63.65 -174.0 63.25 -173.5 63.25 -173.0 63.25 M-254.5 16.25 L-253.0 16.25 -252.4 16.55 -251.9 16.9 -251.5 17.25 -251.4 17.6 -251.3 18.35 -251.25 19.85 -251.25 20.25 -252.1 21.4 Q-253.5 22.85 -255.5 23.25 L-257.0 23.25 -257.75 22.95 -258.7 22.45 -259.15 22.1 -259.25 21.75 -259.25 21.35 -259.25 21.0 -259.25 20.25 -259.1 19.9 -258.7 19.15 Q-258.25 18.65 -258.25 18.0 L-257.9 17.6 -257.5 17.25 -257.25 17.0 -257.0 16.9 -255.25 16.45 -254.5 16.25 M-255.0 19.25 L-256.05 19.95 -256.25 20.25 -256.3 20.45 -254.4 20.0 -254.25 19.65 -254.05 19.25 -254.0 19.05 -254.4 19.0 -255.0 19.25" fill="#ffcc00" fill-rule="evenodd" stroke="none"/>
    <path d="M-207.25 -120.95 L-206.6 -121.45 -206.0 -122.05 -205.5 -122.2 Q-205.05 -122.45 -204.55 -122.65 L-204.05 -122.85 -202.95 -122.95 -202.15 -123.0 -200.15 -122.15 Q-198.9 -121.7 -198.45 -120.75 -198.65 -120.6 -198.85 -120.55 L-199.5 -120.45 -199.75 -120.45 -200.1 -120.3 -201.05 -119.9 -201.55 -119.7 -202.1 -119.2 -203.05 -118.25 -203.55 -117.65 -203.7 -117.35 -203.85 -116.95 -204.0 -116.65 -204.25 -116.35 -204.6 -116.1 -205.6 -115.7 -206.05 -115.45 -206.65 -115.7 -207.15 -116.15 -207.75 -116.65 -207.95 -117.15 -208.4 -118.15 -208.55 -118.6 -208.3 -119.3 -208.15 -119.65 -208.0 -120.0 -207.85 -120.35 -207.25 -120.95 M-196.9 -100.4 L-196.5 -100.75 -196.15 -101.15 -195.5 -101.4 -195.4 -101.4 Q-195.4 -101.05 -195.55 -100.8 -196.2 -99.9 -197.25 -100.0 L-196.9 -100.4 M-179.4 -35.4 L-179.15 -36.15 -178.05 -36.0 Q-177.5 -35.45 -177.25 -34.75 L-177.6 -33.95 Q-177.75 -33.3 -178.4 -32.9 L-179.6 -32.7 -180.0 -33.15 -179.8 -33.9 -179.75 -34.65 -179.4 -35.4 M-140.65 -41.65 L-141.25 -41.0 -142.3 -41.0 -142.75 -40.25 -142.95 -39.5 -143.0 -39.35 -143.3 -39.0 -143.1 -39.0 -143.55 -37.6 Q-143.75 -36.95 -144.25 -36.5 L-144.25 -36.15 -144.25 -35.75 -144.4 -35.4 -145.15 -33.85 Q-145.4 -33.2 -146.0 -32.75 L-147.5 -32.45 -148.25 -32.65 -148.45 -33.35 -148.7 -34.15 -148.75 -34.5 -148.75 -34.9 -148.75 -35.25 -148.75 -35.65 -148.75 -36.0 -148.5 -36.4 -148.25 -36.75 -148.25 -37.15 -148.25 -37.5 -147.8 -38.3 -147.4 -39.0 -146.35 -39.0 -145.65 -39.65 -145.4 -40.0 -145.25 -40.35 -145.0 -40.75 -144.65 -41.15 -143.65 -41.65 -142.9 -42.0 -142.65 -42.05 -140.65 -41.65 M-121.9 -32.65 L-121.8 -32.7 -121.5 -32.45 -121.25 -31.75 -121.45 -31.45 -123.75 -31.5 -123.0 -31.7 Q-122.1 -31.8 -121.9 -32.65 M-154.25 -27.0 L-154.25 -27.4 Q-153.95 -27.35 -153.3 -26.75 -151.7 -25.3 -151.25 -24.0 L-152.4 -24.0 -153.5 -24.75 -153.9 -25.5 -154.25 -26.25 -154.25 -26.65 -154.25 -27.0 M-83.5 -47.75 L-83.15 -48.15 -82.5 -48.4 -82.25 -48.5 Q-79.95 -50.3 -78.7 -52.85 -77.65 -54.9 -76.75 -57.0 L-76.4 -57.4 -76.0 -57.75 -75.55 -58.9 Q-75.05 -59.6 -74.7 -60.35 L-74.25 -61.5 -73.9 -61.9 -73.5 -62.25 -73.4 -62.65 -73.25 -63.0 -72.8 -63.75 -72.65 -64.15 -72.25 -64.5 -71.55 -65.3 -71.4 -65.65 -70.4 -66.4 -69.65 -67.15 -68.9 -67.5 -68.65 -67.6 -67.7 -67.5 -67.75 -67.4 -67.9 -67.0 -69.35 -63.55 Q-69.85 -62.15 -70.75 -61.0 L-70.75 -60.65 -70.75 -60.25 -70.95 -59.9 -71.2 -59.45 -71.25 -59.15 -71.25 -58.0 -71.25 -56.9 -71.25 -55.75 -71.45 -55.4 -71.7 -54.95 -71.75 -54.65 -71.75 -53.5 -71.75 -52.4 -71.75 -51.65 -71.5 -51.25 -71.3 -50.85 -71.25 -50.5 -71.25 -49.4 -71.25 -48.25 -71.25 -47.5 -70.95 -47.1 -69.9 -44.5 -68.9 -42.65 -68.5 -42.25 -68.15 -41.9 -67.75 -41.5 -66.9 -41.15 -66.5 -40.75 -66.15 -40.4 -65.75 -40.0 -65.0 -39.75 -61.75 -38.9 -61.9 -38.5 -62.1 -38.1 -62.25 -37.75 -62.4 -37.4 -62.75 -37.0 -63.15 -36.65 -63.5 -36.25 -63.75 -35.85 -63.9 -35.5 -64.15 -35.15 -65.25 -34.0 -66.4 -32.9 -67.0 -32.6 -68.0 -32.15 -68.25 -32.0 -68.5 -31.75 -68.9 -31.4 -69.9 -30.95 -77.75 -28.5 -78.0 -28.25 -78.4 -27.9 -78.75 -27.5 -79.05 -26.75 -79.4 -26.0 -79.75 -25.25 -79.75 -24.15 -79.75 -23.0 -79.75 -22.25 -79.4 -21.5 -78.95 -20.8 -78.65 -20.4 -78.25 -20.05 -77.5 -19.75 -75.5 -19.75 -75.05 -19.9 -74.65 -20.0 -74.4 -19.9 -74.75 -19.5 -75.15 -19.15 -75.5 -18.75 -75.75 -18.35 -75.9 -18.0 -76.15 -17.65 -76.5 -17.25 -76.9 -16.9 -77.25 -16.5 -77.3 -16.15 -77.5 -15.75 -77.9 -15.35 -78.55 -14.65 -79.4 -13.9 -80.0 -13.6 -80.25 -13.5 -80.5 -13.25 -81.65 -12.15 -82.4 -11.4 -85.25 -10.0 -87.25 -9.5 -86.9 -9.9 -86.5 -10.25 -86.15 -10.65 -85.9 -11.0 -85.75 -11.35 -85.5 -11.75 -85.15 -12.15 -84.05 -13.25 -83.4 -14.0 -83.2 -15.15 -83.25 -16.25 -83.25 -17.0 -83.4 -17.4 -83.55 -17.75 -83.9 -18.5 -84.15 -18.9 Q-84.9 -19.85 -86.05 -20.2 -87.25 -20.55 -87.25 -21.65 L-87.2 -21.95 -86.55 -22.8 -86.4 -23.15 -83.8 -25.3 Q-82.7 -26.3 -82.15 -27.65 L-81.75 -28.0 -81.0 -28.75 -80.65 -29.15 -80.4 -29.5 -80.25 -29.85 -79.9 -30.65 -79.75 -31.0 -79.4 -31.4 -79.0 -31.75 -78.7 -32.45 Q-77.95 -33.75 -77.45 -35.15 L-76.75 -37.0 -76.75 -37.4 -76.75 -38.15 -76.75 -38.9 -76.75 -39.25 -76.6 -39.6 -76.4 -40.0 -76.25 -40.4 -76.25 -41.5 -76.2 -43.0 Q-76.1 -43.65 -76.5 -44.15 L-76.9 -44.45 -77.5 -44.75 -78.5 -44.7 -79.0 -44.65 -79.35 -44.35 -79.75 -44.0 -80.15 -43.65 -80.25 -43.25 -80.4 -42.9 -80.75 -42.5 -81.5 -41.75 -81.9 -41.4 -82.5 -41.1 -82.75 -41.0 -83.0 -40.75 -83.4 -40.4 -85.0 -39.6 -87.25 -38.5 -88.9 -38.5 -89.5 -38.7 Q-91.3 -39.05 -93.0 -39.75 L-97.4 -40.15 -96.5 -40.7 -95.9 -41.0 -95.55 -41.4 -95.3 -41.75 -95.25 -42.15 -95.1 -43.3 -94.7 -44.0 -94.25 -44.75 -94.25 -45.15 -94.25 -45.5 -93.8 -46.25 -93.4 -47.0 -93.0 -47.75 -92.85 -47.5 -92.75 -47.15 -92.75 -46.75 -92.65 -46.4 -91.5 -45.75 -90.5 -45.25 -88.0 -45.25 -86.05 -46.0 Q-85.3 -46.25 -84.65 -46.65 L-84.25 -47.0 -83.5 -47.75 M-154.0 -4.4 L-153.85 -4.45 Q-153.65 -4.5 -153.7 -4.15 L-153.75 -3.4 -153.75 -2.65 -152.8 -1.5 -151.65 -0.4 -150.9 0.65 Q-150.4 1.2 -150.25 1.85 L-150.25 2.25 -150.25 3.0 -150.25 3.75 -150.4 4.1 -150.8 4.85 -151.4 5.6 -154.4 6.0 -155.0 5.7 -155.15 5.6 -155.4 5.35 -156.35 3.9 Q-156.7 3.3 -156.5 2.75 L-156.4 2.35 -156.25 2.0 -156.25 1.25 -156.25 0.5 -156.25 -0.25 Q-155.8 -0.95 -155.65 -1.75 L-155.0 -3.25 -154.65 -3.65 -154.3 -4.0 -154.0 -4.4 M-109.25 -43.65 L-108.85 -44.35 -108.15 -45.15 -107.0 -45.2 -106.9 -45.1 -106.75 -44.9 -106.9 -44.5 -107.3 -43.75 -107.75 -43.0 -108.75 -42.9 -108.85 -43.0 -109.0 -43.25 -109.25 -43.65 M-101.1 4.9 L-100.9 4.5 Q-100.65 5.5 -100.7 6.6 L-100.7 6.7 -100.75 8.5 -100.45 8.9 -100.25 9.25 -100.25 9.6 -100.25 10.0 -99.95 10.4 -99.75 10.75 -99.75 11.1 -99.75 11.5 Q-99.2 12.15 -98.8 12.95 -98.45 13.7 -98.25 14.5 L-97.9 14.85 -97.5 15.25 -97.3 15.65 -97.2 15.95 -96.9 16.35 -95.75 17.5 -95.0 18.25 -94.8 18.65 -94.7 18.95 -94.4 19.35 Q-93.75 19.85 -93.2 20.45 L-92.15 21.6 -91.25 23.2 -90.25 24.6 -90.25 25.0 -90.25 25.35 -90.0 25.75 -89.8 26.15 -89.75 26.5 -89.75 27.25 -89.75 27.6 -89.75 28.0 -89.45 28.4 -89.25 28.75 -89.25 29.1 -89.25 30.6 -89.25 31.75 -89.45 32.1 -89.75 32.5 -89.75 32.85 -89.75 33.25 -89.95 33.6 -90.25 34.0 -90.25 34.35 -90.25 34.75 -90.45 35.1 -90.75 35.5 -90.75 35.85 -90.75 36.25 -91.75 38.15 -92.4 39.6 -93.45 40.8 -95.4 42.6 -96.0 42.85 -96.25 43.0 -96.5 43.25 -96.9 43.6 -97.25 44.0 -98.75 44.45 -100.4 45.1 -100.75 45.5 -101.1 45.9 -101.25 46.25 -101.25 47.0 -101.2 47.75 -101.15 48.1 -100.0 48.5 -93.75 49.0 -93.95 49.6 -94.2 50.05 -94.25 50.35 -94.25 50.75 -94.25 51.1 -95.05 53.1 -96.15 54.85 -97.25 56.0 -98.4 57.1 -100.0 57.75 -100.1 57.8 -100.75 57.75 -99.75 55.6 Q-99.15 54.45 -99.5 53.35 L-99.9 53.05 -100.5 52.75 -101.5 52.8 -102.0 52.85 Q-104.1 54.0 -106.5 54.35 -111.95 54.3 -116.65 51.6 L-117.65 50.6 -119.15 49.1 -119.3 48.75 -119.5 48.35 -119.75 48.0 -118.25 48.0 -117.5 48.25 -113.5 48.1 -112.1 47.4 -111.25 47.0 -111.0 46.75 -110.65 46.35 -109.45 45.55 -108.65 44.85 -108.0 44.6 -107.75 44.5 -107.5 44.25 -107.15 43.85 -106.9 43.5 -105.6 41.2 -104.25 38.6 -104.25 38.25 -104.25 37.85 -104.25 37.5 -104.0 37.1 -103.8 36.7 -103.75 36.35 -103.75 36.0 -103.85 34.5 -104.0 33.75 Q-104.45 33.35 -104.95 33.1 -106.4 32.25 -108.0 31.75 -112.7 31.05 -114.45 34.25 L-114.5 34.2 -115.25 33.5 Q-115.5 32.7 -115.95 32.05 -116.35 31.5 -116.25 30.85 L-116.2 30.55 -115.6 29.4 -115.25 28.6 -115.25 28.25 -115.25 27.85 -115.25 27.55 -114.95 27.6 -114.5 27.6 -114.15 27.35 -113.9 27.0 -113.75 26.6 -113.85 25.9 -114.1 25.1 -114.25 24.75 -114.25 24.0 -114.25 23.6 -114.25 23.25 -113.9 22.5 -113.45 21.8 -113.25 21.75 -113.25 22.5 -113.25 23.6 -113.25 24.35 -113.05 24.75 -112.7 25.45 -112.4 25.85 -112.0 26.25 -111.65 26.6 -111.25 27.0 -110.55 27.3 -108.0 28.25 -105.5 28.1 -105.1 27.9 -104.5 27.6 -104.15 27.35 -103.75 27.0 -103.05 26.2 -102.9 25.85 -102.8 25.5 -102.75 25.1 -102.75 24.75 -102.6 24.4 -102.4 24.0 -102.25 23.6 -102.25 17.25 -102.25 10.5 -102.0 10.1 -101.8 9.7 -101.75 9.35 -101.75 8.6 -101.75 7.85 -101.75 7.5 -101.5 7.1 -101.3 6.7 -101.25 6.35 -101.25 5.6 -101.1 4.9 M-87.15 -1.15 L-86.5 -1.4 -85.95 -1.15 -85.8 -0.9 -85.75 -0.5 -86.3 1.0 -87.25 2.5 -88.65 2.55 -88.75 2.5 -88.75 2.25 -88.75 1.85 -88.75 1.5 -88.75 1.1 -88.0 -0.05 -87.15 -1.15 M-144.7 9.95 L-144.45 10.4 -144.25 10.75 -144.25 11.1 -144.2 11.5 -144.0 12.25 -144.2 12.65 Q-144.65 13.75 -146.0 12.85 L-146.35 12.45 -146.75 11.75 -146.6 11.05 -146.0 10.25 -145.9 9.85 -145.75 9.5 -145.75 9.45 -144.9 9.45 -144.75 9.6 -144.7 9.95 M-161.95 34.4 L-161.75 34.75 -161.75 35.1 -161.75 35.5 -160.85 37.0 -159.9 38.85 -159.15 39.6 -158.0 40.75 -157.8 41.15 -157.75 41.5 -157.4 41.85 -157.0 42.25 -156.7 42.95 -156.25 43.75 -156.2 44.5 -156.0 45.25 -156.35 45.95 -157.75 47.5 -159.25 48.0 -161.15 47.6 -161.9 46.9 -163.25 45.35 Q-163.5 44.2 -163.9 43.15 L-164.75 40.5 -164.75 40.1 -164.75 39.35 -164.75 38.25 -164.6 37.9 -164.4 37.5 -164.25 37.1 -164.25 36.75 -164.25 36.35 -164.25 36.0 -164.0 35.6 -163.75 35.25 -163.75 34.85 -163.75 34.5 -163.4 34.1 -162.9 33.35 -162.8 33.0 -162.7 32.65 -162.5 32.25 Q-162.3 31.95 -162.25 32.25 L-162.25 32.85 -162.25 34.0 -161.95 34.4 M-126.15 54.6 L-125.75 55.0 -124.9 55.35 -124.5 55.75 -124.15 56.1 -123.75 56.5 -122.95 56.95 -122.75 57.25 -122.25 58.35 -121.75 59.1 -121.75 59.5 -121.75 59.85 -121.5 60.25 -121.3 60.65 -121.25 61.0 -121.25 61.35 -121.25 63.25 -121.25 64.35 -121.5 64.75 -121.75 65.1 -121.75 65.5 -121.75 65.85 -122.8 67.75 -123.75 69.6 -123.75 70.0 -123.75 70.35 -124.0 70.75 -124.2 71.15 -124.25 71.5 -124.25 71.85 -124.25 72.05 -124.35 72.15 -124.55 71.9 Q-125.0 71.55 -125.55 71.35 L-126.0 71.35 -126.5 71.75 -126.9 72.1 -127.25 72.5 -128.0 72.75 Q-129.8 73.55 -131.75 74.0 L-137.4 74.0 -139.0 73.2 Q-140.0 72.65 -141.0 72.25 L-141.25 72.0 -141.65 71.65 -142.25 71.25 -142.55 70.9 -142.9 70.5 -143.9 70.0 -144.65 69.6 -144.95 69.3 -146.65 66.6 -147.75 65.5 -148.5 64.75 -149.9 62.5 -150.75 60.6 Q-150.05 59.9 -148.0 60.1 L-146.85 59.6 -145.15 58.85 -143.25 57.0 -140.75 54.45 -140.75 55.5 Q-140.2 56.15 -139.95 57.0 L-139.15 58.1 Q-138.55 58.45 -138.05 58.75 L-136.0 59.75 -133.0 59.75 -132.35 59.55 Q-130.6 59.35 -129.15 58.35 L-128.75 58.0 -128.4 57.6 -128.0 57.25 -127.2 55.35 -126.5 54.25 -126.15 54.6 M-181.25 16.1 L-180.05 15.95 -179.25 15.5 Q-179.0 15.2 -178.75 15.5 L-178.4 16.15 Q-178.25 16.5 -178.25 16.85 L-178.95 17.45 -180.25 18.0 -180.6 17.6 -181.0 16.85 -181.25 16.1 M-215.5 55.25 L-214.75 55.5 -213.9 55.9 -213.65 56.1 Q-213.8 56.45 -214.1 56.65 L-214.75 57.0 -216.4 57.0 -217.15 56.6 -217.3 56.25 -217.5 55.9 -217.9 55.5 -216.5 55.25 -215.5 55.25 M-203.25 57.35 L-203.25 57.0 -202.9 56.6 -202.4 55.85 -202.0 54.35 -201.25 52.5 -201.25 52.1 -201.25 51.35 -201.25 50.6 -201.25 50.55 -201.0 50.75 -200.4 51.5 -200.05 53.05 -199.25 54.85 -199.25 55.6 -199.25 56.35 -199.05 56.75 -198.75 57.5 -198.75 57.85 -198.75 58.25 -198.9 58.6 -199.25 59.0 -199.25 59.35 -199.25 59.75 -199.9 60.8 -200.65 62.35 -201.0 62.75 -201.75 63.5 Q-202.15 63.6 -202.45 63.8 L-204.5 63.75 -204.85 62.6 -204.75 61.1 Q-204.25 60.45 -204.05 59.65 L-203.25 57.75 -203.25 57.35 M-209.15 72.35 L-209.0 72.3 Q-207.3 71.8 -206.9 72.6 L-207.35 73.3 -208.0 74.0 -208.7 73.15 -209.15 72.35 M-173.0 63.25 L-173.5 63.25 -174.0 63.25 -174.0 63.65 -177.3 64.4 -179.0 64.7 -179.5 64.75 -179.35 64.5 -178.5 63.75 -178.1 63.4 -177.4 63.0 -173.0 62.75 -172.4 62.5 -171.85 62.45 -168.3 63.05 -167.4 63.35 -167.15 63.6 -166.75 64.0 -166.05 64.3 -165.75 64.5 -165.4 64.85 -165.0 65.25 -164.65 65.65 -164.4 66.0 -164.3 66.35 -164.25 66.75 -164.1 67.1 -163.9 67.5 -164.65 67.55 -164.75 67.5 -165.4 66.85 -166.9 65.4 -167.4 65.05 -168.0 64.75 Q-168.6 64.0 -169.5 63.8 L-170.5 63.6 -170.5 63.25 -172.0 63.25 -173.0 63.25 M-255.0 19.25 L-254.4 19.0 -254.0 19.05 -254.05 19.25 -254.25 19.65 -254.4 20.0 -256.3 20.45 -256.25 20.25 -256.05 19.95 -255.0 19.25" fill="#ffcc66" fill-rule="evenodd" stroke="none"/>
  </g>
</svg>
