<?xml version="1.0" encoding="UTF-8" standalone="no"?>
<svg xmlns:ffdec="https://www.free-decompiler.com/flash" xmlns:xlink="http://www.w3.org/1999/xlink" ffdec:objectType="shape" height="293.55px" width="202.3px" xmlns="http://www.w3.org/2000/svg">
  <g transform="matrix(1.0, 0.0, 0.0, 1.0, 122.15, 111.2)">
    <path d="M-111.9 -111.2 L-110.5 -110.8 -109.65 -110.2 -109.65 -109.45 -109.65 -108.7 -109.65 -107.95 Q-109.75 -107.6 -109.95 -107.6 L-112.4 -107.7 -113.0 -109.25 Q-113.5 -110.9 -111.9 -111.1 L-111.9 -111.2 M-40.6 -31.4 Q-40.15 -31.2 -39.9 -30.45 L-40.2 -30.05 Q-40.5 -29.8 -40.9 -29.7 L-43.9 -28.7 -45.55 -29.15 -46.4 -29.7 -47.15 -30.45 -47.05 -31.2 -46.85 -31.7 -46.65 -31.95 -45.9 -32.0 -45.4 -32.2 -43.9 -32.15 Q-42.15 -32.05 -40.6 -31.4 M-39.9 27.55 L-40.85 27.9 Q-42.0 27.8 -43.15 27.3 L-43.15 24.3 Q-43.2 22.65 -41.4 23.05 L-40.85 23.9 -40.65 25.3 -40.4 26.05 -39.9 27.55 M-74.8 3.95 Q-75.35 3.65 -74.55 3.3 L-73.4 3.05 Q-71.85 5.55 -74.8 3.95 M-118.65 141.55 Q-118.15 141.85 -117.9 142.6 -119.15 144.3 -121.5 142.8 -122.75 142.0 -121.6 141.2 -121.3 140.95 -120.9 140.85 -119.65 140.95 -118.65 141.55 M-1.85 160.85 L1.65 161.1 2.4 161.8 Q3.65 162.85 4.5 164.2 L5.15 165.6 4.85 165.9 2.45 165.85 Q2.0 165.7 1.65 165.35 0.9 164.6 0.05 164.45 -4.15 163.75 -2.4 161.25 L-1.85 160.85 M7.45 168.2 L8.15 167.85 Q8.9 168.0 9.35 168.4 L10.15 169.6 Q9.25 171.05 7.55 169.85 6.25 169.0 7.45 168.2 M66.15 172.85 L68.4 173.45 72.6 174.35 73.4 174.85 73.4 175.6 73.3 176.3 72.9 177.1 72.4 177.85 72.4 178.6 72.4 179.35 71.55 179.9 70.4 180.1 67.45 178.95 66.65 178.35 66.05 177.55 65.9 176.85 65.9 176.1 65.05 174.55 64.95 173.85 Q65.1 172.85 66.15 173.0 L66.15 172.85 M80.15 181.6 Q79.3 183.0 77.55 181.85 76.3 181.0 77.45 180.2 L78.15 179.85 79.4 180.4 80.15 181.6" fill="#d92100" fill-rule="evenodd" stroke="none"/>
  </g>
</svg>
