<?xml version="1.0" encoding="UTF-8" standalone="no"?>
<svg xmlns:ffdec="https://www.free-decompiler.com/flash" xmlns:xlink="http://www.w3.org/1999/xlink" ffdec:objectType="shape" height="174.6px" width="210.9px" xmlns="http://www.w3.org/2000/svg">
  <g transform="matrix(1.0, 0.0, 0.0, 1.0, 266.3, 83.15)">
    <path d="M-164.9 -81.95 Q-138.6 -82.0 -130.55 -58.35 -128.4 -52.05 -128.6 -45.9 -122.9 -45.5 -119.3 -42.3 -115.3 -44.6 -110.9 -44.95 L-109.3 -45.25 Q-106.65 -49.2 -101.25 -51.05 -95.0 -53.2 -88.9 -53.95 L-85.15 -54.3 Q-81.2 -57.8 -75.9 -57.95 -71.25 -57.65 -67.4 -55.2 -63.95 -53.0 -62.4 -49.2 -53.1 -42.35 -56.15 -31.45 -59.3 -20.3 -71.3 -18.9 L-75.4 -18.2 Q-79.1 -14.3 -83.25 -10.8 -88.0 -6.85 -92.4 -2.45 L-93.2 -1.0 -94.1 0.6 -95.0 2.0 -96.15 3.55 Q-97.15 6.55 -99.5 8.65 -103.95 12.65 -109.9 13.05 L-112.4 12.45 -112.2 15.4 Q-109.4 16.95 -107.4 19.55 -104.6 21.75 -102.75 24.05 -89.3 30.1 -92.45 47.95 -96.8 72.5 -120.75 79.7 -129.5 82.3 -135.9 78.5 L-138.9 79.05 Q-155.35 76.0 -153.25 60.45 -157.85 62.85 -163.75 64.1 L-171.85 64.45 Q-182.15 63.1 -185.0 56.7 L-189.8 56.3 Q-189.0 58.4 -188.9 60.8 -178.65 78.3 -196.45 88.9 -200.3 91.2 -204.9 91.05 -218.65 90.55 -223.05 82.2 L-229.9 82.45 Q-233.65 87.0 -241.3 89.85 -255.6 95.3 -262.9 82.15 -266.65 75.35 -266.25 67.55 -265.45 52.25 -251.3 48.55 -249.4 43.55 -245.7 39.7 -246.6 31.55 -240.1 23.9 -244.95 8.65 -236.7 -6.15 -234.7 -9.85 -233.2 -13.85 -227.5 -29.15 -219.1 -43.15 L-217.65 -45.45 Q-219.1 -53.05 -214.9 -59.35 L-213.55 -61.25 -213.8 -62.6 Q-216.4 -81.15 -196.65 -82.55 L-193.9 -82.95 Q-187.2 -83.65 -180.75 -82.0 -177.1 -81.05 -174.35 -78.65 -170.45 -81.55 -164.9 -81.95" fill="#0000ff" fill-rule="evenodd" stroke="none"/>
  </g>
</svg>
