<?xml version="1.0" encoding="UTF-8" standalone="no"?>
<svg xmlns:ffdec="https://www.free-decompiler.com/flash" xmlns:xlink="http://www.w3.org/1999/xlink" ffdec:objectType="shape" height="51.5px" width="61.5px" xmlns="http://www.w3.org/2000/svg">
  <g transform="matrix(1.0, 0.0, 0.0, 1.0, 371.5, 57.5)">
    <path d="M-334.5 -57.5 L-331.05 -57.3 -329.4 -56.9 -329.05 -56.45 -328.85 -56.15 -328.65 -55.75 -328.5 -55.4 -328.5 -55.0 -328.5 -54.65 -328.5 -53.9 -328.5 -53.15 -328.4 -52.75 -327.9 -51.25 -327.0 -48.65 -327.0 -48.25 -327.0 -47.9 -327.0 -47.5 -326.85 -47.15 -326.7 -46.75 -326.35 -45.65 -326.0 -44.9 -326.0 -44.5 -326.0 -44.15 -325.85 -43.75 -325.4 -42.6 -324.55 -40.35 -324.5 -40.0 -324.2 -39.6 -323.55 -38.5 Q-323.1 -37.4 -322.15 -36.65 L-321.9 -36.25 -321.75 -35.9 -321.5 -35.5 -321.15 -35.15 -318.5 -32.65 Q-317.55 -31.8 -317.15 -30.65 L-316.5 -30.25 -315.9 -29.9 -315.55 -29.5 -315.25 -29.15 -314.5 -28.75 -313.15 -28.0 -312.65 -27.65 -311.55 -27.2 -310.9 -26.9 -310.55 -26.5 -310.35 -26.15 -310.05 -25.35 -310.0 -25.0 -310.05 -24.65 -310.15 -24.25 -310.35 -23.85 -310.5 -23.5 -310.55 -23.15 -310.65 -22.75 -311.0 -22.0 Q-315.0 -20.25 -319.15 -19.8 L-316.9 -18.9 -316.55 -18.5 -316.35 -18.15 -316.15 -17.75 -316.0 -17.4 -316.0 -17.0 -316.0 -16.65 -315.85 -16.3 -315.0 -15.55 -313.75 -14.75 -313.5 -14.4 -313.3 -14.0 -313.15 -13.65 -313.0 -13.25 -313.0 -12.9 -313.0 -12.5 -312.85 -12.15 -312.65 -11.75 -312.5 -11.4 -312.5 -11.0 -312.5 -10.65 -312.5 -10.25 -312.65 -9.9 -312.8 -9.5 -313.0 -9.15 -313.3 -8.8 -313.75 -8.4 Q-326.95 -7.35 -340.35 -8.95 -341.4 -9.1 -342.25 -9.75 L-342.6 -10.15 -342.85 -10.5 -343.15 -11.6 -343.4 -12.25 -343.4 -12.3 -344.5 -12.25 Q-356.6 -9.6 -368.5 -6.0 L-369.0 -6.05 -370.15 -6.25 -370.6 -6.65 -371.0 -7.0 -371.25 -7.4 -371.4 -7.75 -371.5 -8.15 -371.5 -8.5 -371.5 -8.9 -371.5 -9.25 -371.5 -10.0 -371.4 -10.4 -371.25 -10.75 -371.0 -11.15 -371.0 -11.5 -371.0 -11.9 -371.0 -12.25 -371.0 -12.65 -370.85 -13.0 -370.65 -13.4 -370.5 -13.75 -370.5 -14.15 -370.5 -14.5 -370.5 -14.9 Q-369.4 -18.5 -367.9 -21.95 L-364.15 -29.9 -363.75 -30.25 -363.4 -30.65 -363.0 -31.0 -362.9 -31.4 -362.75 -31.75 -362.4 -32.15 -361.65 -32.9 -360.5 -34.0 -360.4 -34.4 -360.3 -34.55 Q-362.75 -34.75 -365.2 -36.1 -366.4 -36.75 -367.25 -37.75 L-367.4 -38.15 -367.45 -38.5 -367.5 -39.25 -367.5 -40.4 -367.4 -40.75 -367.25 -41.15 -367.0 -41.5 -366.65 -41.9 -366.25 -42.6 -366.0 -43.0 Q-363.4 -45.4 -360.35 -47.2 L-353.65 -51.25 Q-345.8 -54.55 -337.6 -56.7 L-334.5 -57.5 M-333.65 -52.4 Q-339.45 -51.1 -344.95 -48.85 L-345.05 -48.8 -347.75 -47.65 -351.15 -46.4 Q-353.4 -44.85 -355.8 -43.6 -358.55 -42.15 -361.0 -40.25 L-360.5 -40.1 Q-358.15 -39.9 -356.0 -39.1 L-354.15 -40.75 Q-351.15 -42.2 -348.3 -43.95 L-345.4 -45.65 -345.0 -46.0 -344.6 -46.35 -344.15 -46.75 -343.0 -47.0 -340.5 -47.45 -340.5 -47.5 -339.05 -47.35 -337.4 -46.9 -337.05 -46.5 -336.85 -46.15 -336.65 -45.75 -336.5 -45.4 -336.5 -45.0 -336.5 -44.65 -336.5 -43.9 -336.5 -43.15 -336.65 -42.75 -336.85 -42.35 -337.0 -42.0 -337.0 -41.65 -336.9 -41.25 -336.75 -40.9 -336.5 -40.15 -336.5 -39.75 -336.5 -39.4 -336.5 -39.0 -336.5 -38.65 -335.65 -36.45 -333.6 -31.85 -333.5 -31.5 -333.15 -31.1 -332.9 -30.75 -332.75 -30.4 -332.65 -30.0 -332.05 -28.85 -331.65 -28.15 -331.25 -27.75 -330.9 -27.4 -330.5 -27.0 -330.35 -26.65 -330.15 -26.25 -329.1 -25.5 -327.9 -24.75 -319.3 -25.3 -321.0 -27.05 -325.25 -31.75 -325.4 -32.15 -325.5 -32.5 -325.9 -32.9 -326.25 -33.25 -326.4 -33.65 -326.5 -34.0 -326.9 -34.4 -327.25 -34.75 -328.0 -35.5 -328.25 -35.9 -329.5 -38.5 -330.9 -41.5 -331.0 -41.9 -331.0 -42.25 -331.0 -42.65 -331.15 -43.0 -331.25 -43.4 -331.4 -43.75 -331.5 -44.15 -331.5 -44.5 -331.5 -44.9 -331.75 -45.25 -331.9 -45.65 -332.0 -46.0 -332.0 -46.4 -332.0 -46.75 -332.15 -47.1 -332.35 -47.5 -332.5 -47.9 -332.5 -48.25 -332.5 -48.65 -332.65 -49.0 -333.05 -50.1 -333.55 -52.0 -333.65 -52.4 M-365.5 -12.75 Q-353.7 -16.1 -340.95 -17.25 -340.2 -17.35 -339.65 -16.65 L-339.25 -15.9 -338.9 -15.15 -338.5 -14.4 -338.25 -14.0 -338.05 -13.7 -337.5 -13.25 -322.15 -13.25 Q-321.55 -13.45 -321.1 -13.75 L-321.0 -14.0 -321.0 -14.4 Q-322.2 -15.35 -324.0 -15.95 -325.35 -16.45 -326.4 -17.4 L-326.5 -17.45 -327.65 -17.75 -328.9 -18.85 -330.5 -20.0 -331.4 -20.4 -332.9 -21.9 -334.4 -23.4 -335.5 -24.5 -337.05 -27.15 -338.75 -30.05 Q-339.35 -31.15 -339.5 -32.4 L-339.8 -32.75 -340.1 -33.15 -340.4 -33.5 -340.7 -34.6 -340.85 -35.4 -341.35 -36.55 -341.5 -36.9 -341.5 -37.25 -341.5 -37.65 -341.5 -38.0 -341.55 -38.35 -341.75 -38.75 -341.9 -39.15 -342.0 -39.5 -342.0 -40.25 -342.0 -40.65 -342.0 -41.0 -342.1 -41.3 -342.25 -41.35 -342.5 -41.25 Q-343.7 -40.4 -345.0 -39.7 -346.0 -39.15 -347.15 -38.9 L-347.65 -38.5 -348.15 -38.15 -348.4 -37.75 -348.65 -37.4 -349.1 -37.0 -349.4 -36.75 -349.75 -36.65 -350.75 -36.35 -351.5 -36.0 -352.25 -35.3 -352.75 -34.9 -353.5 -34.5 -353.9 -34.15 -354.25 -33.75 -354.65 -33.4 -355.0 -33.0 -355.25 -32.6 -355.4 -32.25 -355.65 -31.9 -356.35 -31.1 -356.65 -30.75 -356.85 -30.35 -357.0 -30.0 -357.4 -29.65 -357.75 -29.25 -358.15 -28.9 -358.5 -28.5 Q-360.25 -26.0 -361.6 -23.25 L-364.0 -17.65 -365.0 -15.0 -365.0 -14.65 -365.0 -14.25 -365.15 -13.9 -365.3 -13.5 -365.45 -13.1 -365.5 -12.75" fill="#000000" fill-rule="evenodd" stroke="none"/>
    <path d="M-365.5 -12.75 L-365.45 -13.1 -365.3 -13.5 -365.15 -13.9 -365.0 -14.25 -365.0 -14.65 -365.0 -15.0 -364.0 -17.65 -361.6 -23.25 Q-360.25 -26.0 -358.5 -28.5 L-358.15 -28.9 -357.75 -29.25 -357.4 -29.65 -357.0 -30.0 -356.85 -30.35 -356.65 -30.75 -356.35 -31.1 -355.65 -31.9 -355.4 -32.25 -355.25 -32.6 -355.0 -33.0 -354.65 -33.4 -354.25 -33.75 -353.9 -34.15 -353.5 -34.5 -352.75 -34.9 -352.25 -35.3 -351.5 -36.0 -350.75 -36.35 -349.75 -36.65 -349.4 -36.75 -349.1 -37.0 -348.65 -37.4 -348.4 -37.75 -348.15 -38.15 -347.65 -38.5 -347.15 -38.9 Q-346.0 -39.15 -345.0 -39.7 -343.7 -40.4 -342.5 -41.25 L-342.25 -41.35 -342.1 -41.3 -342.0 -41.0 -342.0 -40.65 -342.0 -40.25 -342.0 -39.5 -341.9 -39.15 -341.75 -38.75 -341.55 -38.35 -341.5 -38.0 -341.5 -37.65 -341.5 -37.25 -341.5 -36.9 -341.35 -36.55 -340.85 -35.4 -340.7 -34.6 -340.4 -33.5 -340.1 -33.15 -339.8 -32.75 -339.5 -32.4 Q-339.35 -31.15 -338.75 -30.05 L-337.05 -27.15 -335.5 -24.5 -334.4 -23.4 -332.9 -21.9 -331.4 -20.4 -330.5 -20.0 -328.9 -18.85 -327.65 -17.75 -326.5 -17.45 -326.4 -17.4 Q-325.35 -16.45 -324.0 -15.95 -322.2 -15.35 -321.0 -14.4 L-321.0 -14.0 -321.1 -13.75 Q-321.55 -13.45 -322.15 -13.25 L-337.5 -13.25 -338.05 -13.7 -338.25 -14.0 -338.5 -14.4 -338.9 -15.15 -339.25 -15.9 -339.65 -16.65 Q-340.2 -17.35 -340.95 -17.25 -353.7 -16.1 -365.5 -12.75 M-333.65 -52.4 L-333.55 -52.0 -333.05 -50.1 -332.65 -49.0 -332.5 -48.65 -332.5 -48.25 -332.5 -47.9 -332.35 -47.5 -332.15 -47.1 -332.0 -46.75 -332.0 -46.4 -332.0 -46.0 -331.9 -45.65 -331.75 -45.25 -331.5 -44.9 -331.5 -44.5 -331.5 -44.15 -331.4 -43.75 -331.25 -43.4 -331.15 -43.0 -331.0 -42.65 -331.0 -42.25 -331.0 -41.9 -330.9 -41.5 -329.5 -38.5 -328.25 -35.9 -328.0 -35.5 -327.25 -34.75 -326.9 -34.4 -326.5 -34.0 -326.4 -33.65 -326.25 -33.25 -325.9 -32.9 -325.5 -32.5 -325.4 -32.15 -325.25 -31.75 -321.0 -27.05 -319.3 -25.3 -327.9 -24.75 -329.1 -25.5 -330.15 -26.25 -330.35 -26.65 -330.5 -27.0 -330.9 -27.4 -331.25 -27.75 -331.65 -28.15 -332.05 -28.85 -332.65 -30.0 -332.75 -30.4 -332.9 -30.75 -333.15 -31.1 -333.5 -31.5 -333.6 -31.85 -335.65 -36.45 -336.5 -38.65 -336.5 -39.0 -336.5 -39.4 -336.5 -39.75 -336.5 -40.15 -336.75 -40.9 -336.9 -41.25 -337.0 -41.65 -337.0 -42.0 -336.85 -42.35 -336.65 -42.75 -336.5 -43.15 -336.5 -43.9 -336.5 -44.65 -336.5 -45.0 -336.5 -45.4 -336.65 -45.75 -336.85 -46.15 -337.05 -46.5 -337.4 -46.9 -339.05 -47.35 -340.5 -47.5 -340.5 -47.45 -343.0 -47.0 -344.15 -46.75 -344.6 -46.35 -345.0 -46.0 -345.4 -45.65 -348.3 -43.95 Q-351.15 -42.2 -354.15 -40.75 L-356.0 -39.1 Q-358.15 -39.9 -360.5 -40.1 L-361.0 -40.25 Q-358.55 -42.15 -355.8 -43.6 -353.4 -44.85 -351.15 -46.4 L-347.75 -47.65 -345.05 -48.8 -344.95 -48.85 Q-339.45 -51.1 -333.65 -52.4" fill="#80a839" fill-rule="evenodd" stroke="none"/>
  </g>
</svg>
