<?xml version="1.0" encoding="UTF-8" standalone="no"?>
<svg xmlns:ffdec="https://www.free-decompiler.com/flash" xmlns:xlink="http://www.w3.org/1999/xlink" ffdec:objectType="shape" height="389.05px" width="227.65px" xmlns="http://www.w3.org/2000/svg">
  <g transform="matrix(1.0, 0.0, 0.0, 1.0, -149.1, 141.35)">
    <path d="M314.7 -118.0 Q306.45 -108.45 293.95 -106.2 L288.2 -108.5 289.7 -132.5 294.7 -138.0 303.6 -141.35 Q302.35 -129.2 310.7 -120.8 312.45 -119.0 314.7 -118.0 M362.5 -11.25 L360.75 -9.0 360.5 -3.75 358.75 -1.5 Q353.05 16.35 337.7 28.4 323.85 39.25 306.65 43.25 287.7 47.55 268.25 44.2 288.95 35.95 304.45 17.15 L309.7 10.55 291.75 -0.35 Q326.4 -3.65 358.25 -18.5 L362.75 -16.5 362.5 -11.25 M340.35 88.5 Q348.8 95.2 349.05 105.4 L352.75 106.55 354.4 120.8 353.2 122.9 354.05 125.15 352.75 130.55 371.3 122.15 376.75 123.55 376.5 136.3 364.5 170.8 362.75 173.05 362.75 176.05 Q350.0 198.35 331.85 216.8 317.65 231.2 301.0 242.25 L299.25 242.15 297.65 242.95 Q291.75 246.7 284.7 247.6 278.0 248.2 271.75 245.45 277.15 244.55 282.35 242.9 293.8 239.0 301.5 230.1 305.45 225.6 307.7 219.6 L309.7 216.6 309.7 213.6 311.7 210.6 311.7 207.6 Q314.7 197.05 315.95 186.35 317.35 174.6 317.05 162.7 L307.8 138.4 308.5 135.0 324.2 136.55 333.75 129.05 327.7 99.55 325.7 96.55 325.7 93.55 323.7 90.55 325.1 80.35 Q328.9 81.5 332.35 83.35 336.55 85.55 340.35 88.5 M178.85 45.05 Q176.3 48.3 175.75 52.85 175.3 56.8 173.55 60.2 L183.2 78.05 Q208.55 71.0 228.2 88.55 L228.7 91.55 236.2 100.55 236.7 105.05 238.45 107.35 Q243.45 129.2 226.1 142.9 202.95 161.1 178.2 146.35 166.8 139.5 158.05 129.4 148.8 118.75 149.1 105.05 149.7 79.55 156.45 54.8 157.8 49.85 161.95 45.75 170.25 37.6 180.75 31.45 L194.7 31.55 Q185.35 36.6 178.85 45.05" fill="#ff4900" fill-opacity="0.3019608" fill-rule="evenodd" stroke="none"/>
  </g>
</svg>
