<?xml version="1.0" encoding="UTF-8" standalone="no"?>
<svg xmlns:ffdec="https://www.free-decompiler.com/flash" xmlns:xlink="http://www.w3.org/1999/xlink" ffdec:objectType="shape" height="174.6px" width="233.9px" xmlns="http://www.w3.org/2000/svg">
  <g transform="matrix(1.0, 0.0, 0.0, 1.0, 266.3, 83.15)">
    <path d="M-164.9 -81.95 Q-138.6 -82.0 -130.55 -58.35 -128.4 -52.05 -128.6 -45.9 -122.9 -45.5 -119.3 -42.3 -115.3 -44.6 -110.9 -44.95 L-109.3 -45.25 Q-106.65 -49.2 -101.25 -51.05 -95.0 -53.2 -88.9 -53.95 L-85.65 -54.3 Q-84.9 -59.0 -82.15 -63.6 -76.7 -72.6 -68.3 -76.8 -66.6 -75.5 -64.4 -74.9 -60.2 -73.8 -55.9 -73.45 -53.95 -72.6 -52.15 -71.45 L-47.65 -68.45 -46.55 -67.05 -44.9 -65.45 -43.4 -63.95 -43.1 -63.25 -42.3 -61.75 -41.75 -60.9 -41.15 -59.45 -41.15 -58.7 -41.15 -57.95 -40.9 -57.2 -40.65 -56.45 -40.4 -55.7 -39.65 -54.95 -38.85 -54.25 -37.9 -53.45 -36.35 -53.0 -35.8 -52.85 Q-32.9 -46.7 -32.4 -39.95 L-33.35 -39.2 -34.1 -38.45 -34.65 -37.7 -34.9 -36.95 -35.15 -36.2 -35.15 -35.45 -35.15 -34.7 -35.15 -33.95 Q-36.7 -30.25 -39.5 -27.3 L-44.15 -22.45 Q-44.4 -20.5 -45.0 -18.25 -46.95 -10.95 -53.35 -9.25 L-53.4 -9.2 -54.15 -7.7 -54.95 -6.25 -55.9 -4.7 -60.75 -1.5 -62.4 -0.1 Q-66.35 -0.7 -69.9 -2.7 -72.1 -3.95 -73.9 -5.7 -76.8 -4.3 -79.85 -2.3 -83.05 -0.3 -86.9 0.05 -90.2 -0.7 -92.7 -1.8 L-93.2 -1.0 -94.1 0.6 -95.0 2.0 -96.15 3.55 Q-97.15 6.55 -99.5 8.65 -103.95 12.65 -109.9 13.05 L-112.4 12.45 -112.2 15.4 Q-109.4 16.95 -107.4 19.55 -104.6 21.75 -102.75 24.05 -89.4 30.05 -92.4 47.65 -91.5 48.55 -90.75 49.65 -87.5 54.3 -87.9 60.05 -83.6 81.85 -106.7 86.15 -119.1 88.45 -126.1 83.05 -127.85 85.0 -130.55 86.25 -133.55 87.7 -136.9 88.05 -156.5 85.95 -153.25 68.0 L-153.15 67.45 Q-153.8 64.35 -153.25 60.45 -157.85 62.85 -163.75 64.1 L-171.85 64.45 Q-182.15 63.1 -185.0 56.7 L-189.8 56.3 Q-189.0 58.4 -188.9 60.8 -178.65 78.3 -196.45 88.9 -200.3 91.2 -204.9 91.05 -218.65 90.55 -223.05 82.2 L-229.9 82.45 Q-233.65 87.0 -241.3 89.85 -255.6 95.3 -262.9 82.15 -266.65 75.35 -266.25 67.55 -265.45 52.25 -251.3 48.55 -249.4 43.55 -245.7 39.7 -246.6 31.55 -240.1 23.9 -244.95 8.65 -236.7 -6.15 -234.7 -9.85 -233.2 -13.85 -227.5 -29.15 -219.1 -43.15 L-217.65 -45.45 Q-219.1 -53.05 -214.9 -59.35 L-213.55 -61.25 -213.8 -62.6 Q-216.4 -81.15 -196.65 -82.55 L-193.9 -82.95 Q-187.2 -83.65 -180.75 -82.0 -177.1 -81.05 -174.35 -78.65 -170.45 -81.55 -164.9 -81.95" fill="#0000ff" fill-rule="evenodd" stroke="none"/>
  </g>
</svg>
