<?xml version="1.0" encoding="UTF-8" standalone="no"?>
<svg xmlns:ffdec="https://www.free-decompiler.com/flash" xmlns:xlink="http://www.w3.org/1999/xlink" ffdec:objectType="shape" height="208.85px" width="202.6px" xmlns="http://www.w3.org/2000/svg">
  <g transform="matrix(1.0, 0.0, 0.0, 1.0, 208.25, 125.25)">
    <path d="M-38.4 -63.1 L-37.9 -61.6 -37.25 -60.05 -35.2 -55.55 -33.5 -51.1 -33.5 -50.75 -33.5 -50.35 -33.5 -50.0 -33.5 -49.6 -33.5 -49.2 -33.5 -48.85 -33.5 -48.45 -33.4 -48.1 -33.25 -47.7 -33.15 -47.35 -33.0 -46.95 -33.0 -45.45 -33.0 -43.95 -33.0 -40.2 -33.0 -34.95 -33.15 -34.6 -33.25 -34.2 -33.4 -33.85 -33.5 -33.45 -33.5 -33.1 -33.5 -32.7 -33.5 -32.35 -33.5 -31.95 -33.65 -31.6 -33.75 -31.2 -33.9 -30.85 -34.0 -30.45 -34.0 -30.1 -34.0 -29.7 -34.0 -29.35 -34.0 -28.95 -34.15 -28.6 -34.25 -28.2 -34.4 -27.85 -34.5 -27.45 -34.5 -27.1 -34.5 -26.7 -34.65 -26.35 -34.85 -25.95 -35.0 -25.6 -35.0 -25.2 -35.0 -24.85 -35.15 -24.45 -35.3 -24.1 -35.5 -23.7 -35.5 -23.35 -35.5 -22.95 -35.65 -22.6 -35.75 -22.2 -35.9 -21.85 -36.0 -21.45 -36.15 -21.1 -36.25 -20.7 -36.4 -20.35 -36.5 -19.95 -36.5 -19.6 -36.5 -19.2 -36.9 -18.45 -37.25 -17.7 -37.4 -17.35 -37.95 -16.2 Q-38.45 -15.1 -39.35 -14.3 L-40.15 -13.6 -40.25 -13.2 -40.4 -12.85 -40.75 -12.45 -41.15 -12.1 -41.25 -11.7 -41.4 -11.35 -41.75 -10.95 -42.5 -10.2 -42.9 -9.85 -43.25 -9.45 -44.05 -8.8 -45.25 -7.95 -45.65 -7.6 -46.05 -7.25 Q-46.25 -7.05 -46.55 -6.9 -46.95 -6.65 -47.4 -6.45 L-48.15 -6.1 -50.0 -4.35 Q-50.85 -3.75 -51.85 -3.35 -54.7 -2.1 -57.6 -1.0 L-58.25 -0.7 -65.85 -1.1 Q-69.05 -2.0 -71.8 -3.6 L-71.9 -3.6 -72.75 -3.85 -73.25 -4.25 -73.65 -4.6 -73.7 -4.85 -74.5 -5.45 -74.65 -5.85 -74.9 -6.2 -75.1 -6.6 -75.25 -6.95 -75.25 -7.35 -75.25 -7.7 -75.15 -8.1 -75.0 -8.45 -74.65 -8.85 -74.4 -8.95 -74.75 -9.25 -75.15 -9.6 -75.25 -9.95 -75.3 -10.7 -75.25 -11.85 -75.4 -12.2 -75.6 -12.6 -75.75 -12.95 -75.8 -13.7 -75.8 -14.85 -75.75 -15.6 -76.0 -16.35 -76.5 -17.8 -76.75 -18.6 -76.75 -18.95 -76.7 -19.7 -76.5 -20.45 -76.15 -20.8 -75.75 -21.1 -75.5 -21.2 -74.9 -21.3 -74.9 -21.35 -74.0 -21.1 -73.5 -20.7 -72.85 -19.2 -72.15 -16.95 -72.0 -16.6 -72.0 -16.2 -72.05 -15.45 -72.0 -14.35 -71.85 -14.0 -71.65 -13.6 -71.55 -13.35 -70.9 -14.1 -70.5 -14.45 -70.0 -14.65 -69.4 -14.8 -69.4 -14.85 -68.5 -14.6 -68.0 -14.2 -67.8 -13.85 -67.65 -13.45 -67.5 -13.1 -67.55 -12.7 -67.65 -12.35 -68.0 -11.6 -68.0 -11.2 -68.0 -10.85 -68.3 -10.1 -68.85 -8.6 -68.65 -8.8 -68.25 -9.1 -68.0 -9.15 -67.4 -9.3 -67.4 -9.35 -66.5 -9.1 -66.2 -8.85 -66.2 -9.2 -66.0 -9.95 -65.65 -10.3 -65.25 -10.6 -65.0 -10.7 -64.4 -10.8 -64.4 -10.85 -63.9 -10.8 -63.0 -10.6 -62.85 -10.5 -62.75 -10.6 -62.5 -10.7 -61.9 -10.8 -61.9 -10.85 -61.6 -10.75 -61.6 -10.8 -60.9 -11.6 -60.5 -11.95 -60.0 -12.15 -59.4 -12.3 -59.4 -12.35 -58.5 -12.1 -58.0 -11.7 -57.8 -11.35 -57.65 -10.95 -57.5 -10.6 -57.5 -10.2 -57.5 -9.85 -57.35 -9.5 -57.2 -9.05 -57.0 -8.35 -57.05 -7.95 -57.15 -7.6 -57.25 -7.2 -57.45 -6.9 -57.9 -6.45 -58.25 -6.2 -58.9 -6.1 -59.1 -6.15 -59.1 -6.1 -59.15 -5.35 -59.4 -4.95 -59.7 -4.6 -59.7 -4.55 -59.25 -4.6 -57.15 -5.45 -57.15 -5.6 -54.85 -8.1 -54.9 -8.1 -55.75 -8.35 -56.25 -8.7 -56.6 -9.15 -56.9 -9.85 -57.25 -10.6 -57.25 -11.35 -57.25 -12.45 -57.15 -13.2 -56.85 -13.55 -56.1 -14.3 -55.75 -14.6 -55.5 -14.65 -54.9 -14.8 -54.9 -14.85 -54.0 -14.6 -53.5 -14.2 -53.3 -13.85 -53.15 -13.45 -53.0 -12.7 -52.95 -12.4 -52.4 -11.95 -51.9 -11.6 -51.75 -11.2 -51.7 -11.1 -51.7 -11.15 -49.6 -12.95 -49.35 -13.7 -49.75 -13.85 -50.25 -14.25 -51.0 -14.95 -51.4 -15.35 -51.8 -16.05 -52.2 -17.2 -52.25 -17.95 -52.1 -18.3 -51.75 -18.7 -51.25 -19.1 -50.4 -19.3 -50.4 -19.35 -49.5 -19.1 -49.05 -18.7 -48.65 -18.35 -48.4 -17.95 -47.9 -17.85 -47.0 -17.6 -46.5 -17.2 -46.3 -16.85 -46.25 -16.75 -46.15 -16.85 -45.65 -17.6 -45.75 -17.95 -45.75 -18.7 -45.75 -19.45 -45.65 -19.65 -46.15 -20.1 -46.45 -20.5 -46.75 -21.2 -46.75 -21.6 -46.75 -21.95 -46.65 -22.35 -46.25 -22.7 -45.75 -23.1 -44.9 -23.3 -44.9 -23.35 -44.75 -23.35 -44.75 -23.7 -44.65 -24.1 -44.5 -24.45 -44.1 -24.8 -43.5 -25.2 -43.4 -25.25 -43.25 -25.6 -43.25 -25.95 -43.25 -26.35 -43.75 -26.75 -44.15 -27.1 -44.2 -27.45 -44.3 -28.2 -44.15 -29.35 -43.75 -29.7 -42.45 -30.45 -42.45 -30.5 -42.75 -30.75 -43.1 -31.1 -43.1 -31.15 -43.4 -31.1 -44.25 -31.35 -44.75 -31.75 -45.15 -32.1 -45.25 -32.5 -45.3 -33.2 -45.2 -34.2 -45.25 -34.25 -45.6 -34.65 -45.75 -34.95 -45.75 -35.35 -45.6 -36.1 -44.9 -37.6 -44.5 -37.9 -43.0 -38.7 -42.45 -39.0 -42.75 -39.25 -43.45 -40.0 -43.65 -40.35 -43.7 -40.75 -43.75 -41.45 -43.65 -42.2 -42.9 -42.9 -43.1 -43.15 -43.25 -43.45 -43.25 -43.85 -43.25 -44.2 -43.1 -44.65 -43.65 -45.1 Q-44.15 -45.55 -44.25 -46.2 L-44.25 -46.6 -44.25 -46.95 -44.15 -47.35 -43.75 -47.7 -43.4 -48.1 -43.9 -48.15 -44.75 -48.35 -45.25 -48.75 -45.65 -49.1 -45.75 -49.5 -45.8 -50.2 -45.65 -51.35 -44.9 -51.85 -45.15 -52.1 -45.25 -52.85 -45.25 -53.75 -45.65 -54.1 -45.75 -54.5 -45.75 -55.25 -45.75 -56.0 -45.6 -56.3 -45.45 -56.45 -45.6 -56.65 -45.75 -57.0 -45.75 -57.35 -45.75 -57.7 -45.7 -57.85 -45.75 -57.85 -46.25 -58.25 -46.65 -58.6 -46.75 -59.0 -46.75 -59.05 -47.0 -58.85 -47.9 -58.6 -48.75 -58.85 -49.25 -59.25 -49.65 -59.6 -49.75 -60.0 -49.75 -60.75 -49.7 -61.85 -49.65 -62.25 -49.35 -62.6 -48.7 -63.2 -48.85 -64.25 -48.8 -65.3 -49.05 -65.65 -49.75 -65.85 -50.25 -66.25 -50.6 -66.65 -50.75 -67.0 -50.75 -67.3 -51.6 -67.8 Q-52.55 -68.25 -53.05 -69.1 L-53.4 -69.15 -54.3 -69.3 -54.5 -69.3 -54.65 -69.15 -55.0 -68.85 -55.9 -68.55 -59.75 -68.35 -60.25 -68.75 -60.6 -69.15 -60.75 -69.5 -60.75 -69.85 -60.75 -70.2 -60.65 -70.6 -60.5 -71.0 -60.1 -71.35 -59.5 -71.7 -58.0 -72.25 -57.75 -72.25 -57.0 -73.0 -56.5 -73.15 -56.25 -73.2 -56.25 -73.35 -57.3 -73.5 -57.5 -73.35 -57.8 -73.25 -59.95 -72.9 -60.55 -72.25 -60.65 -72.1 -60.75 -71.75 -60.95 -71.4 -61.1 -71.2 -61.15 -71.1 -61.4 -70.35 -61.55 -70.0 -61.5 -69.75 Q-61.75 -68.0 -63.0 -66.7 L-65.75 -64.25 -66.4 -64.1 -66.9 -64.15 -67.75 -64.35 -68.25 -64.75 -68.35 -64.8 -69.1 -64.05 -71.0 -62.35 -71.3 -62.25 -71.9 -62.1 -72.75 -62.35 -73.25 -62.75 -73.6 -63.15 -73.75 -63.5 -73.75 -63.85 -73.75 -64.2 -73.65 -64.6 -72.45 -66.15 -70.9 -67.6 -70.8 -68.0 -70.75 -68.35 -70.65 -68.75 -70.35 -69.1 -69.3 -70.25 -69.0 -70.6 -68.85 -71.0 -68.75 -71.35 -68.75 -71.75 -68.65 -72.1 -68.5 -72.45 -68.25 -72.85 -68.3 -74.35 -68.25 -75.7 -68.25 -75.85 -68.25 -76.25 -68.15 -76.6 -68.05 -76.8 -68.0 -77.0 -67.7 -77.3 -67.65 -77.35 -67.25 -77.7 -66.75 -78.1 -65.9 -78.3 -65.9 -78.35 -55.9 -77.25 Q-51.85 -76.65 -48.0 -75.1 L-47.5 -74.75 -47.3 -74.35 -47.1 -74.0 -46.9 -73.6 -46.5 -73.25 -46.15 -72.85 -45.9 -72.5 -45.65 -72.1 -45.5 -71.75 -44.75 -71.0 -44.0 -70.25 -43.65 -69.85 -42.55 -68.7 -41.0 -67.25 -40.8 -66.85 -40.6 -66.5 -40.35 -66.1 -40.05 -65.7 -39.75 -65.35 -39.65 -65.0 -39.5 -64.6 -39.4 -64.25 -39.1 -63.85 -38.75 -63.5 -38.4 -63.1 M-38.5 -53.0 L-38.4 -52.6 -38.25 -52.25 -38.15 -51.85 -38.0 -51.5 -38.0 -51.1 -38.0 -50.75 -37.95 -50.35 -37.8 -49.95 -37.65 -49.6 -37.5 -49.2 -37.5 -48.85 -37.5 -48.45 -37.5 -48.1 -37.5 -47.75 -37.5 -47.7 -37.5 -47.35 -37.35 -47.0 -37.25 -46.8 -37.15 -46.8 -37.15 -46.85 -37.25 -47.2 -37.25 -47.6 -37.25 -47.95 -37.25 -48.35 -37.25 -48.7 -37.25 -49.1 -37.25 -49.45 -37.25 -49.85 -37.6 -51.0 -37.9 -52.2 -38.5 -53.6 -38.5 -53.0 M-64.5 -74.1 L-64.5 -73.45 -64.25 -73.75 -64.25 -73.85 -64.2 -74.1 -64.5 -74.1 M-51.55 -72.2 L-51.3 -71.85 -50.9 -71.8 -50.65 -71.75 -51.55 -72.2 M-41.9 -60.3 L-41.6 -60.25 -41.65 -60.35 -41.7 -60.7 -41.9 -60.5 -42.0 -60.3 -41.9 -60.3 M-37.25 -41.75 L-37.5 -41.65 -37.3 -41.35 -37.25 -41.3 -36.75 -41.15 -36.75 -42.05 -37.0 -41.85 -37.25 -41.75 M-37.0 -35.4 L-36.9 -35.6 -36.75 -35.95 -36.75 -36.2 -37.0 -35.6 -37.0 -35.4 M-40.25 -20.9 L-40.25 -20.95 -40.25 -21.35 -40.15 -21.55 -40.4 -21.35 -40.45 -21.05 -40.25 -20.9 M-123.45 78.75 L-123.4 78.7 -121.55 78.9 -119.5 79.1 -119.25 78.85 -118.8 78.45 -114.4 78.95 -114.0 78.6 -113.55 78.3 -112.9 78.25 -112.9 78.2 -111.45 78.85 -111.05 79.1 -110.5 79.1 -110.55 79.05 -111.3 78.3 -111.95 77.5 -112.3 76.8 -112.3 76.45 -112.25 76.05 -112.15 75.7 -111.75 75.3 -111.3 74.95 -110.4 74.75 -110.4 74.7 -107.3 75.85 Q-105.65 76.55 -104.65 77.95 L-104.55 78.3 -104.55 78.7 -99.65 77.8 -99.9 77.8 -102.8 77.7 -103.65 76.9 -104.0 76.55 -104.15 76.2 -104.3 75.8 -104.3 75.45 -104.25 75.05 -104.15 74.7 -103.75 74.3 -103.3 73.95 -102.4 73.75 -102.4 73.7 -101.05 73.95 -99.8 74.3 -99.8 74.2 -99.75 73.8 -99.55 73.05 -99.1 72.75 -97.8 71.95 -96.9 71.75 -96.9 71.7 -96.05 71.95 -95.55 72.3 -95.4 72.55 -95.25 72.45 -95.05 72.3 -94.4 72.2 -93.9 72.2 -92.15 72.45 -92.25 72.05 -92.3 71.7 -92.3 71.3 -92.4 71.05 -92.7 71.4 -93.05 71.7 -93.3 71.8 -93.9 71.95 -94.4 71.9 -95.3 71.7 -95.75 71.3 -96.1 70.9 -96.3 70.55 -96.3 70.2 -96.25 69.8 -95.95 69.1 -95.65 68.7 -95.25 68.45 -95.0 68.35 -94.55 68.3 -94.8 67.8 -94.8 67.45 -94.75 67.05 -94.65 66.7 -94.3 66.35 -94.3 66.05 -94.3 65.7 -94.45 65.3 -94.65 64.9 -94.8 64.55 -94.8 64.2 -94.8 63.8 -94.75 63.05 -94.65 62.7 -94.25 62.3 -93.8 61.95 -92.9 61.75 -92.9 61.7 -92.05 61.95 -91.55 62.35 -90.9 63.05 -90.65 63.45 -90.55 63.8 -90.55 64.2 -90.55 64.55 -90.05 65.6 -89.15 67.55 -89.05 67.95 -89.05 68.3 -89.05 68.7 -88.7 69.45 -88.35 70.55 -88.05 71.3 -88.05 71.7 -88.05 72.05 -88.05 72.8 -88.05 73.2 -88.4 74.35 Q-88.95 75.5 -90.05 76.2 L-92.65 76.7 -94.3 78.85 -96.55 81.2 Q-106.35 84.65 -116.65 82.35 L-116.7 82.4 -117.05 82.7 -117.9 82.9 Q-121.2 83.8 -124.1 82.4 -124.9 82.0 -125.15 81.2 L-125.25 80.8 -125.3 80.45 -125.25 80.05 -125.15 79.7 -124.75 79.3 -124.3 78.95 -123.45 78.75 M-104.05 67.95 L-103.55 68.3 -103.3 68.7 -103.2 69.05 -103.1 69.8 -103.15 70.2 -103.4 70.55 -103.7 70.9 -104.05 71.2 -104.3 71.3 -104.9 71.45 -105.4 71.4 -106.3 71.2 -106.75 70.8 -107.1 70.4 -107.3 70.05 -107.3 69.7 -107.25 69.3 -106.95 68.6 -106.65 68.2 -106.3 67.95 -106.0 67.85 -105.4 67.75 -105.4 67.7 -104.9 67.7 -104.05 67.95 M-98.05 75.85 L-98.05 75.95 -98.05 76.3 -98.15 76.7 -98.4 77.05 -98.7 77.4 -98.95 77.65 -98.65 77.55 Q-97.9 77.15 -97.35 76.5 L-96.8 75.8 -97.4 75.95 -97.9 75.9 -98.05 75.85" fill="#ff6600" fill-rule="evenodd" stroke="none"/>
    <path d="M-205.0 -125.25 L-204.0 -125.25 -203.4 -124.95 -202.9 -124.65 -202.55 -124.2 -202.2 -123.55 -201.75 -122.75 -201.75 -122.4 -201.75 -121.65 -201.8 -120.5 -201.9 -120.15 -202.05 -119.8 -202.9 -119.05 -203.5 -118.75 -206.5 -118.75 -207.2 -119.05 -207.65 -119.4 -208.0 -119.75 -208.2 -120.15 -208.25 -120.5 -208.25 -120.9 -208.25 -121.65 -208.2 -122.75 -208.15 -123.15 -207.7 -123.45 -207.0 -123.75 -206.4 -124.0 -206.25 -124.35 -206.0 -124.7 -205.5 -125.1 -205.0 -125.25 M-6.0 -102.15 Q-5.6 -100.55 -5.65 -98.75 L-5.75 -95.4 -6.15 -94.25 Q-6.3 -93.45 -6.75 -92.75 L-6.75 -92.0 -6.75 -90.9 -6.75 -90.15 -7.85 -87.5 Q-8.45 -86.2 -9.5 -85.25 L-10.15 -84.15 -11.0 -82.25 -11.4 -81.9 -11.75 -81.5 -12.15 -81.15 -12.5 -80.9 -13.15 -80.65 -15.0 -78.75 -16.15 -77.65 -16.5 -77.4 -17.15 -77.15 Q-17.45 -76.25 -18.1 -75.6 L-19.65 -74.15 -19.8 -73.75 -20.0 -73.4 -20.25 -73.0 -20.25 -72.65 -20.25 -72.25 -20.25 -71.9 -20.65 -70.75 Q-20.8 -69.95 -21.25 -69.25 L-21.25 -68.9 -21.25 -68.5 -21.2 -68.15 -21.05 -67.75 -20.75 -67.0 -20.75 -66.65 -20.75 -66.25 -20.75 -65.5 -20.55 -64.75 Q-20.4 -64.05 -19.9 -63.65 L-19.5 -63.3 -17.9 -62.5 -15.75 -62.5 -15.4 -62.9 -15.0 -63.25 -14.75 -63.5 -14.5 -63.6 -13.9 -63.95 Q-13.7 -64.05 -13.5 -64.25 -12.9 -64.7 -12.65 -65.35 L-11.9 -66.9 -11.05 -67.0 -10.0 -66.65 -9.85 -65.85 -9.75 -64.75 -9.75 -64.4 -9.9 -64.0 -10.1 -63.6 -10.25 -63.25 -10.1 -62.9 -9.9 -62.5 -9.75 -62.15 -9.75 -57.65 -9.75 -53.15 -9.8 -52.8 -10.0 -52.4 -10.25 -52.0 -10.25 -51.65 -10.25 -51.25 -10.25 -50.9 -10.4 -50.5 -10.6 -50.1 -10.75 -49.75 -10.75 -49.4 -10.75 -49.0 -10.75 -48.65 -10.8 -48.3 -11.0 -47.9 -11.25 -47.5 -11.25 -47.15 -11.25 -46.75 -11.5 -46.4 -11.75 -46.0 -11.75 -45.65 -11.75 -45.25 Q-13.0 -42.7 -14.65 -40.45 L-17.25 -37.5 -20.55 -35.9 -22.15 -35.15 Q-25.05 -33.05 -28.65 -32.15 L-29.4 -31.4 -30.15 -30.65 -30.55 -29.9 -31.25 -29.0 -30.5 -29.25 -30.05 -29.2 -29.4 -28.95 -29.0 -28.65 -28.8 -28.25 -28.75 -27.9 -28.75 -27.15 -28.75 -26.75 -29.0 -26.4 -29.3 -26.0 -29.65 -25.65 -30.65 -25.15 -31.65 -24.65 -32.0 -24.25 -32.1 -24.15 -34.5 -25.75 -34.15 -26.15 -33.85 -26.35 -34.25 -26.5 -35.15 -26.5 -34.95 -26.85 -37.9 -26.5 -38.1 -26.1 -38.3 -25.75 -38.5 -25.4 -38.75 -25.0 -38.75 -24.25 -38.75 -23.5 -38.75 -22.4 -38.7 -22.05 -38.4 -21.65 -38.0 -21.25 -37.9 -20.9 -37.75 -20.5 -37.4 -20.15 -37.0 -19.75 -36.9 -19.4 -36.75 -19.0 -36.4 -18.65 -36.0 -18.25 -35.9 -17.9 -35.7 -17.55 -35.4 -17.15 -32.5 -15.25 Q-31.3 -14.35 -30.75 -13.0 L-30.9 -12.65 -31.05 -12.3 -31.4 -11.9 Q-33.05 -10.9 -35.0 -10.75 L-36.25 -10.85 -36.5 -10.65 -36.3 -10.25 -36.3 -9.9 -36.4 -9.5 -36.65 -9.15 -37.05 -8.9 -37.25 -8.8 -37.25 -8.4 -37.25 -8.0 -37.2 -7.65 -37.05 -7.25 -36.75 -6.5 -36.75 -6.15 -36.75 -5.75 -36.75 -5.0 -36.9 -4.65 -37.0 -4.25 -37.05 -3.9 -36.9 -3.5 -36.75 -3.15 -36.75 -2.75 -36.75 -2.4 -36.7 -2.05 -36.5 -1.65 -36.25 -1.25 -36.25 -0.9 -36.25 -0.5 -35.55 0.55 -34.75 2.5 Q-32.35 3.5 -30.0 4.75 L-28.9 5.35 -24.25 5.5 -23.4 5.1 -23.0 4.75 -22.75 4.5 -22.5 4.35 -21.5 3.9 -21.0 3.75 -20.55 3.85 Q-20.0 4.05 -19.5 4.35 -19.1 5.2 -19.2 6.25 L-19.25 8.5 -20.35 10.7 -21.5 12.6 -21.9 12.95 -22.65 13.35 -23.0 13.75 -23.25 14.0 -23.5 14.1 -24.15 14.35 -24.5 14.75 -24.75 15.0 Q-26.8 16.05 -29.0 16.75 L-30.5 17.25 -32.0 17.25 Q-39.45 17.2 -45.75 13.5 L-46.15 13.1 -46.4 12.85 -47.75 12.45 -48.75 12.0 -50.25 10.5 -51.4 9.35 -52.25 7.85 -52.9 6.35 -53.25 6.0 -54.0 5.25 -54.25 5.0 -57.0 4.25 -57.5 4.1 -57.95 4.2 -59.0 4.75 -59.2 5.15 -59.25 5.5 -59.25 6.25 -58.9 7.0 -58.4 8.1 -58.25 8.5 -57.9 8.9 -57.4 9.65 -57.25 10.0 -57.25 10.35 -57.3 10.7 -57.5 11.1 -57.9 11.45 -59.0 12.1 -61.0 12.25 Q-63.75 11.3 -66.25 10.0 L-67.25 9.5 -67.65 9.1 -68.0 8.75 -68.4 8.35 -69.55 7.8 -70.25 7.5 -70.6 7.1 -70.75 6.75 -70.9 6.35 -71.6 5.6 -72.25 4.85 -72.25 4.5 -72.25 4.1 -72.25 3.35 -72.4 3.0 -72.6 2.6 -72.75 2.25 -72.75 1.85 -72.75 1.5 -72.75 0.75 -72.95 0.4 -73.25 0.0 -73.25 -0.75 -73.25 -1.9 -73.25 -2.65 -73.4 -3.0 -73.6 -3.4 -73.75 -3.75 -73.75 -4.5 -73.75 -5.65 -73.75 -6.0 -73.7 -6.35 -73.5 -6.75 -73.25 -7.15 -73.25 -7.5 -73.2 -7.85 -73.0 -8.25 -72.6 -8.6 -72.2 -8.85 Q-74.95 -8.25 -77.65 -7.15 L-78.45 -6.45 -79.5 -5.75 -80.0 -5.8 -80.75 -6.05 -81.15 -6.4 -81.3 -7.9 -81.25 -9.75 -81.25 -10.5 -81.2 -10.85 -81.0 -11.25 -80.75 -11.65 -80.75 -12.0 -80.75 -12.4 -80.5 -12.75 -80.25 -13.15 -80.25 -13.5 -80.25 -13.9 -80.0 -14.25 -79.75 -14.65 -79.75 -15.0 -79.75 -15.4 -79.35 -16.15 -78.8 -17.3 -78.65 -17.65 -76.8 -19.55 -75.5 -20.25 -74.65 -19.95 -74.35 -20.35 -73.5 -20.75 -72.45 -20.4 -71.5 -19.75 -71.4 -19.4 -71.3 -19.0 -71.25 -18.65 -70.7 -17.85 -70.0 -16.75 -69.65 -16.4 -69.25 -16.0 -69.0 -15.75 -68.4 -15.45 -67.9 -15.1 -67.65 -14.9 Q-65.65 -14.2 -63.5 -14.25 L-62.75 -14.5 -62.0 -14.75 -59.5 -14.75 Q-57.1 -14.2 -54.9 -13.0 L-54.0 -12.25 -53.4 -11.95 -52.9 -11.65 -52.55 -11.25 -52.4 -10.9 -52.25 -10.5 -51.9 -10.15 -51.5 -9.75 -51.15 -9.4 -50.9 -9.0 -50.75 -8.65 -50.5 -8.25 -50.35 -8.65 -50.25 -9.4 -50.25 -10.15 -50.2 -10.45 -49.95 -10.9 -49.75 -11.25 -49.75 -11.65 -49.75 -12.0 -49.8 -12.35 -50.0 -12.75 -50.25 -13.15 -50.25 -13.5 -50.25 -13.9 -50.25 -14.25 -51.05 -15.75 -51.9 -17.65 -52.25 -18.0 -52.65 -18.4 -52.75 -18.75 -52.9 -19.15 -53.65 -19.9 -54.4 -20.65 Q-57.45 -22.0 -60.65 -22.9 L-60.75 -23.65 -60.7 -24.35 -60.5 -24.75 -56.9 -26.4 -55.5 -27.25 -55.15 -27.65 -54.9 -28.0 -54.5 -28.75 -53.75 -29.5 -52.65 -30.65 -51.2 -32.85 -49.75 -35.15 -49.75 -35.5 -49.75 -35.9 Q-48.6 -37.85 -47.6 -39.95 L-45.5 -43.75 -45.15 -44.15 -44.75 -44.5 -44.4 -44.9 -44.25 -45.25 -44.15 -45.65 -41.5 -48.25 -40.0 -49.65 -42.0 -50.25 -42.75 -50.5 -43.9 -51.65 -45.0 -52.75 -45.2 -53.15 -45.25 -53.5 -45.25 -53.9 -45.5 -54.25 -45.75 -54.65 -45.75 -57.25 -45.75 -59.9 -45.75 -60.25 -45.6 -60.6 -45.4 -61.0 -45.25 -61.4 -45.25 -61.75 -45.25 -62.15 -45.2 -62.45 -44.95 -62.9 -44.75 -63.25 -44.75 -63.65 -44.75 -64.0 -44.45 -64.4 -44.25 -64.75 -44.25 -65.15 -44.25 -65.5 -43.95 -65.9 -43.75 -66.25 -43.75 -66.65 -43.75 -67.0 -43.45 -67.4 -43.25 -67.75 -43.25 -68.15 -43.25 -68.5 -42.9 -68.9 -42.55 -69.25 -42.25 -69.65 Q-43.45 -69.4 -45.05 -68.45 -45.85 -68.0 -46.65 -67.65 -48.35 -65.7 -50.9 -65.4 L-51.5 -65.25 -60.4 -65.0 -63.0 -64.25 -63.75 -64.0 -64.15 -63.65 -64.5 -63.4 -65.1 -63.1 -65.5 -62.9 -66.15 -62.65 -67.45 -60.05 -68.8 -57.55 -69.0 -57.4 -69.5 -57.3 -70.0 -57.3 -70.75 -57.5 -71.6 -59.05 -72.65 -60.9 -73.4 -61.65 -74.15 -62.4 -74.3 -63.9 -74.25 -66.15 -74.2 -66.45 -73.95 -66.9 -73.75 -67.25 -73.75 -67.65 -73.75 -68.0 -73.75 -68.4 -73.75 -68.75 -73.6 -69.1 -73.5 -69.3 -73.5 -68.0 -73.2 -68.0 -72.95 -68.55 -72.75 -68.9 -72.75 -69.25 -72.75 -69.65 -72.75 -70.0 -72.7 -70.35 -72.5 -70.75 -72.25 -71.15 -72.25 -71.5 -72.25 -71.9 -72.0 -72.25 -71.75 -72.65 -71.75 -73.0 -71.75 -73.4 -71.5 -73.75 -71.3 -74.15 -71.25 -74.5 -70.9 -74.9 -70.5 -75.25 -70.3 -75.65 -69.9 -76.4 -69.75 -76.75 -69.75 -77.15 -69.75 -77.5 -70.15 -77.5 -70.25 -77.65 -70.25 -78.4 -70.25 -79.5 -70.25 -80.25 -70.1 -80.6 -69.9 -81.0 -69.75 -81.4 -69.75 -81.75 -69.75 -82.15 -69.75 -82.9 -69.75 -83.25 -69.6 -83.6 -69.25 -84.35 -68.75 -85.0 -68.5 -85.05 -67.4 -84.9 -66.9 -84.65 -65.95 -83.15 -65.15 -81.4 Q-62.9 -80.45 -60.55 -80.2 L-60.4 -80.4 -56.9 -81.4 -56.5 -81.75 -56.25 -82.0 -54.4 -82.85 Q-53.6 -83.2 -53.0 -83.75 L-52.7 -84.15 -52.25 -84.85 -52.0 -85.25 -49.4 -87.9 -47.9 -89.4 -47.75 -89.75 -47.65 -90.15 -47.25 -90.5 -46.9 -90.9 -46.5 -91.25 -46.3 -91.65 -46.25 -92.0 -45.9 -92.4 -45.5 -92.75 -45.3 -93.15 -45.25 -93.5 -44.9 -93.9 -44.5 -94.25 -44.25 -94.5 -43.5 -94.7 -42.25 -95.0 -41.9 -95.4 -41.5 -95.75 -41.25 -96.0 -40.5 -96.25 -39.0 -96.75 -38.45 -96.45 -37.75 -95.75 -37.75 -95.4 -37.8 -95.0 -37.9 -94.65 -38.05 -94.3 -38.4 -93.9 -38.75 -93.5 -38.75 -93.15 -38.75 -92.75 -38.75 -92.05 -38.0 -92.25 -34.0 -92.25 -29.4 -91.5 -25.5 -91.25 -24.9 -91.0 -22.25 -91.0 -18.0 -92.75 -17.25 -93.0 -16.5 -93.75 -15.4 -94.9 -15.0 -95.1 -14.4 -95.4 -14.0 -95.75 -13.65 -96.15 -13.25 -96.5 -12.4 -96.95 -12.0 -97.25 -11.7 -97.65 -11.25 -98.35 -11.0 -98.75 -9.5 -100.25 -8.4 -101.4 -8.25 -101.75 -8.15 -102.15 -7.7 -102.4 -7.05 -102.7 -7.0 -102.75 -6.4 -102.45 -6.0 -102.15 M-142.5 -108.6 L-141.25 -109.0 -140.5 -109.25 -139.0 -109.25 -138.0 -108.8 Q-136.9 -108.35 -136.15 -107.35 L-135.9 -107.0 -135.8 -106.65 -135.75 -105.9 -135.75 -105.5 -135.75 -105.15 -135.8 -104.75 -136.0 -104.4 -136.25 -104.0 -136.25 -103.65 -136.25 -103.25 -136.8 -102.55 -137.95 -101.45 -139.0 -100.75 -141.5 -100.75 -142.25 -101.05 -143.25 -101.5 -143.65 -101.9 -144.0 -102.25 -144.4 -102.65 -144.7 -103.05 -144.8 -103.35 -145.0 -103.75 -145.25 -104.15 -145.25 -104.5 -145.25 -104.9 -145.25 -105.25 -145.1 -105.6 -144.9 -106.0 -144.75 -106.35 -144.5 -106.75 -144.15 -107.15 -143.4 -107.9 -142.75 -108.5 -142.5 -108.6 M-142.0 -103.8 L-141.4 -103.5 -139.4 -103.5 -139.0 -104.25 Q-138.5 -105.0 -138.7 -105.7 -138.9 -106.4 -139.5 -106.4 L-141.4 -105.95 Q-142.25 -105.75 -142.5 -104.9 L-142.4 -104.5 -142.25 -104.15 -142.15 -103.9 -142.0 -103.8 M-127.5 -103.25 L-127.3 -102.5 -127.3 -101.75 -127.4 -101.0 -127.65 -100.65 -128.0 -100.25 -128.3 -100.05 -128.5 -99.9 -129.45 -99.95 -130.65 -100.4 -130.8 -101.5 -130.65 -103.35 -130.5 -103.75 -130.25 -104.0 -130.0 -104.1 -129.55 -104.2 -129.5 -104.25 -128.45 -103.9 -127.5 -103.25 M-81.25 -77.75 L-81.25 -78.15 -81.25 -78.5 -80.55 -79.3 Q-80.15 -79.75 -79.5 -79.7 L-79.5 -79.75 -78.9 -79.45 -78.5 -79.15 Q-78.1 -76.8 -78.2 -74.25 L-78.25 -69.75 -78.1 -69.4 -77.9 -69.0 -77.75 -68.65 -78.1 -67.9 -78.5 -66.75 -78.9 -66.4 -79.25 -66.0 -79.4 -65.65 -79.5 -65.25 -79.9 -64.9 -80.25 -64.5 -80.65 -64.15 Q-81.5 -63.55 -82.55 -63.35 L-84.4 -63.0 -85.15 -62.65 -85.5 -62.25 -85.9 -61.9 -86.25 -61.5 -86.55 -60.75 -87.15 -59.65 -87.5 -59.25 -87.8 -59.0 -88.0 -58.9 -88.45 -58.9 Q-89.05 -59.05 -89.65 -59.4 L-90.0 -59.75 -90.2 -60.15 -90.25 -60.5 -90.25 -61.25 -90.25 -62.4 -90.25 -62.75 -90.1 -63.1 -89.95 -63.5 -89.75 -64.25 -89.85 -64.55 -90.6 -65.45 -90.75 -65.75 -90.6 -66.4 Q-90.25 -66.95 -90.15 -67.65 L-84.9 -72.9 -83.0 -74.75 -82.8 -75.15 -82.75 -75.5 -82.4 -75.9 -82.0 -76.25 -81.8 -76.65 -81.4 -77.4 -81.25 -77.75 M-84.25 -69.75 Q-84.9 -68.6 -85.9 -67.75 L-87.75 -66.0 -87.5 -65.65 -87.3 -65.25 -87.25 -64.9 -87.25 -64.65 -84.45 -65.45 Q-83.05 -65.8 -82.0 -66.75 L-81.45 -67.55 -81.0 -68.25 -80.75 -68.65 -80.75 -70.5 -80.7 -72.0 Q-80.6 -72.85 -81.0 -72.75 L-82.85 -70.85 Q-83.45 -70.15 -84.25 -69.75 M-146.5 -46.25 L-145.5 -46.25 -143.95 -45.45 -142.65 -44.35 -142.4 -44.0 -142.3 -43.65 -142.25 -42.9 -142.25 -42.5 -142.25 -42.15 -142.35 -41.8 -142.75 -41.0 -142.9 -40.65 -143.0 -40.25 -144.1 -39.1 Q-144.9 -38.15 -146.0 -37.75 L-148.5 -37.75 -149.25 -38.05 -149.65 -38.4 -149.95 -38.8 -150.4 -39.5 -150.75 -40.25 -150.75 -40.65 -150.75 -41.0 -150.7 -41.35 -150.5 -41.75 -150.25 -42.15 -150.25 -42.5 -150.25 -42.9 -150.0 -43.25 -149.25 -44.0 -148.9 -44.4 -148.5 -44.6 -147.9 -44.9 -147.75 -45.25 -147.65 -45.65 -147.2 -45.9 -146.55 -46.2 -146.5 -46.25 M-147.7 -40.85 L-145.9 -40.9 -145.3 -41.65 -145.0 -42.4 Q-144.95 -42.9 -145.4 -42.95 L-145.5 -42.9 Q-146.0 -42.55 -146.55 -42.3 L-147.65 -41.5 -147.75 -41.25 -147.7 -40.85 M-156.5 -9.1 L-156.0 -9.25 -154.5 -9.25 -153.9 -8.95 -153.0 -8.25 -152.65 -7.9 -152.4 -7.5 -152.25 -7.15 -151.9 -6.35 -151.75 -6.0 -151.9 -5.65 -152.05 -5.25 -152.2 -4.85 -152.25 -4.5 -152.3 -4.15 -152.55 -3.4 -152.85 -2.6 -153.0 -2.25 -153.4 -1.9 -153.75 -1.5 -154.5 -0.9 -155.0 -0.8 -157.5 -0.75 -158.25 -1.0 -158.65 -1.4 -159.0 -1.75 -159.75 -2.5 -159.75 -2.9 -159.75 -3.65 -159.75 -4.75 -159.75 -5.5 -159.7 -5.85 -159.5 -6.25 -159.3 -6.65 -159.25 -7.0 -158.9 -7.4 -158.5 -7.75 -158.25 -8.0 -158.0 -8.15 -157.4 -8.4 -157.0 -8.75 -156.75 -9.0 -156.5 -9.1 M-157.15 -4.15 L-157.0 -3.75 -156.65 -3.6 -155.4 -3.9 -155.05 -4.25 -154.8 -4.65 -154.75 -5.0 -154.75 -5.4 -154.75 -5.75 -154.85 -6.1 -155.0 -6.4 -155.6 -6.1 -156.0 -5.9 -156.65 -5.65 -157.0 -4.85 -157.15 -4.15 M-106.1 -6.9 L-105.9 -6.5 -105.75 -6.15 -105.75 -5.75 -105.75 -5.4 -105.4 -4.15 -104.5 -2.75 -103.75 -2.0 -102.65 -0.9 Q-96.9 1.3 -91.45 3.95 L-91.0 4.25 -89.95 4.95 -89.15 5.6 -88.4 6.0 -88.05 6.4 -87.8 6.75 -87.65 7.1 -87.25 7.5 -86.9 7.85 -86.5 8.25 -86.25 8.95 -84.95 8.3 -84.25 10.0 -84.25 10.35 -84.25 10.75 -84.1 11.1 -83.9 11.5 -83.75 11.85 -83.75 15.25 -83.75 18.6 -84.55 20.1 -85.5 21.6 -85.9 21.95 -86.65 22.35 -87.0 22.75 -87.3 22.95 -87.5 23.1 -91.0 23.25 -91.75 22.95 -92.75 22.5 -93.15 22.1 -93.4 21.85 -93.55 21.75 -94.25 21.45 -94.65 21.1 -95.15 20.3 Q-95.45 19.7 -96.0 19.25 L-96.2 18.85 -96.25 18.5 -96.25 18.1 -96.5 17.75 -96.75 17.35 -96.75 17.0 -96.75 16.6 -96.75 15.85 Q-97.45 13.9 -98.4 12.2 L-100.15 9.1 -105.0 4.25 -106.9 2.35 -107.2 1.95 -107.3 1.65 -107.5 1.25 -107.9 0.85 -108.25 0.5 -108.55 -0.25 -109.1 -1.4 -109.25 -1.75 -109.25 -2.15 -109.25 -2.5 -109.3 -2.85 -109.5 -3.25 -109.75 -3.65 -109.75 -6.65 -109.75 -10.0 -109.35 -10.35 -109.0 -10.6 -108.5 -10.75 -107.9 -10.45 -107.5 -10.15 -107.35 -9.7 -106.9 -9.45 -106.5 -9.15 -106.35 -8.75 -106.25 -8.0 -106.25 -7.25 -106.1 -6.9 M-8.35 -97.7 L-8.45 -97.7 -8.75 -97.4 -8.9 -97.0 -9.15 -96.65 -11.0 -94.75 Q-11.7 -94.0 -12.65 -93.65 L-13.75 -92.5 -14.75 -91.5 -15.0 -91.4 -15.65 -91.15 -16.0 -90.75 -16.25 -90.5 -20.35 -88.9 -21.5 -88.4 -25.0 -88.25 -34.75 -89.5 -37.9 -89.5 -39.3 -89.2 -39.35 -89.0 -39.5 -88.25 -39.8 -88.0 -40.0 -87.9 -40.5 -87.75 -41.25 -88.05 -41.65 -88.4 -41.8 -89.9 -41.7 -91.75 -41.65 -92.15 -42.0 -92.15 -42.75 -92.0 -43.55 -90.9 -44.5 -89.75 -45.2 -88.7 -46.15 -87.15 -50.25 -83.0 -52.15 -81.15 -52.55 -80.9 -53.15 -80.65 -53.5 -80.25 -53.75 -80.0 -54.65 -79.6 -54.9 -79.5 -52.8 -79.5 -52.9 -79.4 -54.25 -78.0 -59.0 -77.25 -60.0 -77.25 Q-63.0 -77.5 -65.75 -78.5 L-66.45 -79.3 -66.75 -79.65 -66.75 -79.4 -66.75 -78.65 -66.8 -78.25 -67.0 -77.9 -67.25 -77.5 -67.25 -76.75 -67.25 -75.65 -67.25 -75.25 Q-68.45 -73.7 -69.1 -71.8 L-70.25 -69.25 -70.25 -68.9 -70.25 -68.5 -70.25 -68.15 -70.3 -67.75 -70.5 -67.4 -70.75 -67.0 -70.75 -66.65 -70.75 -66.25 -71.0 -65.9 -71.25 -65.5 -71.25 -65.15 -71.3 -64.75 -71.5 -64.4 -71.7 -64.2 Q-71.6 -63.6 -71.15 -63.1 L-69.65 -62.15 -69.2 -62.85 Q-68.75 -63.35 -68.6 -63.95 L-68.4 -64.4 -68.0 -64.6 -67.4 -64.9 -67.0 -65.25 -66.75 -65.5 Q-59.8 -69.35 -51.5 -68.65 L-49.4 -68.9 -49.0 -69.25 -48.75 -69.5 -47.9 -69.9 -46.9 -70.4 -46.5 -70.75 -46.25 -71.0 -45.4 -71.4 -43.75 -72.0 -43.35 -72.35 -43.0 -72.65 -42.4 -72.9 -42.0 -73.1 -41.4 -73.4 -41.0 -73.75 -40.65 -74.15 -40.25 -74.5 -39.4 -74.9 -39.0 -75.25 -38.75 -75.5 -37.9 -75.9 -36.25 -76.5 -35.85 -76.85 -35.5 -77.05 -35.05 -77.2 -35.0 -77.25 Q-34.45 -77.15 -33.95 -76.85 L-33.25 -76.25 -33.25 -75.9 -33.3 -75.5 -33.4 -75.15 -33.5 -74.75 -33.8 -74.5 -34.0 -74.4 Q-34.35 -74.25 -34.65 -74.15 L-36.5 -72.25 -38.0 -70.75 -38.25 -70.35 -38.4 -70.0 -38.65 -69.65 -39.4 -68.9 -40.15 -68.15 -40.65 -66.95 -41.25 -65.5 -41.25 -65.15 -41.35 -64.8 -41.75 -64.0 -41.75 -63.65 -41.75 -63.25 -42.0 -62.9 -42.25 -62.5 -42.25 -62.15 -42.25 -61.75 -42.5 -61.4 -42.75 -61.0 -42.75 -60.65 -42.75 -60.25 -43.0 -59.9 -43.25 -59.5 -43.25 -58.4 -43.25 -56.9 -43.25 -56.5 -43.0 -55.75 -42.65 -54.65 -42.5 -54.25 -41.85 -53.55 -41.15 -52.9 -40.5 -52.75 -39.9 -52.5 -35.75 -52.5 -35.0 -52.75 -32.5 -52.75 -31.9 -52.45 -31.55 -52.1 -31.25 -51.75 -31.3 -51.4 -31.4 -51.0 -31.65 -50.65 -35.5 -48.85 -37.15 -48.15 -37.5 -47.75 -37.75 -47.5 -38.0 -47.4 -38.65 -47.15 -40.5 -45.25 -42.0 -43.75 -42.25 -43.35 -42.4 -43.0 -42.65 -42.65 -43.0 -42.25 -43.4 -41.9 -43.75 -41.5 Q-44.75 -39.4 -45.9 -37.35 -46.9 -35.55 -47.4 -33.65 L-47.55 -33.3 -47.9 -32.9 -48.25 -32.5 -48.55 -31.75 -48.9 -31.0 -49.15 -30.65 -49.5 -30.25 -49.9 -29.9 -50.25 -29.5 -50.4 -29.15 -50.5 -28.75 -51.4 -28.05 -52.15 -27.65 Q-52.4 -26.75 -52.9 -26.0 -53.5 -25.0 -54.5 -24.4 -54.5 -23.5 -52.3 -21.85 -50.5 -20.5 -49.25 -18.5 -48.35 -17.1 -47.75 -15.5 L-47.75 -15.15 -47.75 -14.75 -47.6 -14.4 -47.4 -14.0 -47.25 -13.65 -47.25 -12.15 -47.25 -9.9 -47.4 -9.5 -47.6 -9.1 -47.75 -8.75 -47.75 -8.4 -47.75 -8.0 -47.75 -7.65 -47.8 -7.3 -48.0 -6.9 -48.25 -6.5 -48.25 -6.15 -48.25 -5.75 -48.3 -5.4 -48.4 -5.0 -48.65 -4.65 -49.0 -4.25 -49.3 -4.05 -49.5 -3.9 -50.0 -3.85 -50.75 -4.05 -51.15 -4.4 -52.3 -5.8 -53.15 -7.4 -53.5 -7.75 -53.9 -8.15 -54.2 -8.55 -54.3 -8.85 -54.5 -9.25 -54.9 -9.65 -55.25 -10.0 -56.25 -10.5 -57.25 -11.0 -57.65 -11.4 -57.9 -11.65 -60.25 -12.0 -61.4 -12.0 -63.4 -11.5 -64.0 -11.25 Q-66.8 -11.35 -69.05 -12.7 L-69.75 -13.0 -70.15 -13.4 -70.4 -13.65 -70.5 -13.75 -71.25 -14.0 -71.65 -14.4 -72.0 -14.75 -72.4 -15.15 -73.1 -16.2 -73.9 -18.15 -74.0 -18.25 -74.15 -18.15 -75.65 -16.65 -76.75 -15.5 -76.9 -15.15 -77.05 -14.75 -77.2 -14.35 -77.25 -14.0 Q-77.15 -13.15 -77.65 -12.4 L-78.25 -11.0 -78.25 -10.65 -78.2 -10.3 -78.0 -10.2 -77.5 -10.25 -74.0 -11.25 -71.5 -11.25 -70.9 -10.95 -70.55 -10.6 -70.25 -10.25 -70.3 -9.9 -70.4 -9.5 -70.65 -9.15 -71.1 -9.05 -70.9 -8.95 -70.5 -8.65 Q-70.0 -7.7 -70.55 -6.65 L-71.25 -4.9 -71.2 -4.55 -71.0 -4.15 -70.75 -3.75 -70.75 -3.0 -70.75 -1.9 -70.75 -1.5 -70.7 -1.15 -70.55 -0.75 -70.25 0.0 -70.25 0.35 -70.25 0.75 -70.1 1.1 -69.9 1.5 -69.75 1.85 -69.75 2.25 -69.75 2.6 -69.75 3.0 -69.55 3.75 Q-69.4 4.45 -68.9 4.85 L-67.95 5.65 -66.65 6.6 -64.9 7.55 -64.0 8.25 -62.35 8.85 -61.15 9.1 -61.25 8.75 -61.45 8.4 -61.75 8.0 -61.75 6.1 -61.75 3.85 -61.7 3.5 -61.3 2.7 -61.15 2.35 Q-60.15 1.5 -58.75 1.4 L-58.0 1.25 Q-55.05 1.45 -52.65 3.15 L-52.5 3.25 -51.9 3.55 -51.4 3.85 -50.2 5.7 -49.15 7.6 -48.0 8.75 -47.0 9.75 -44.95 10.6 Q-44.2 10.95 -43.65 11.6 -41.75 12.15 -39.95 13.15 L-38.4 14.0 -31.0 14.35 Q-29.15 14.05 -27.5 13.3 L-26.75 13.0 -26.35 12.65 -26.0 12.35 -25.4 12.1 -25.0 11.75 -24.75 11.5 -24.5 11.35 -23.9 11.1 -23.55 10.7 -23.3 10.35 -23.25 10.0 -22.9 9.6 -22.5 9.25 -22.3 8.85 -21.9 8.1 -21.75 7.75 -22.0 7.7 -22.6 7.9 -23.0 8.1 -29.0 8.25 -29.75 7.95 -30.75 7.5 -31.15 7.1 -31.4 6.85 Q-33.25 6.1 -35.25 5.4 L-36.25 5.0 -36.6 4.6 -36.75 4.25 -36.9 3.85 -37.25 3.5 -37.65 3.1 -37.75 2.75 -37.95 2.4 -38.25 2.0 -38.25 1.6 -38.25 1.25 -38.45 0.9 -38.75 0.5 -38.75 0.1 -38.75 -0.25 -38.95 -0.6 -39.25 -1.0 -39.25 -1.4 -39.25 -1.75 -39.45 -2.1 -39.75 -2.5 -39.75 -3.65 -39.7 -5.5 -39.65 -5.9 -39.8 -8.9 -39.75 -10.5 -39.3 -10.5 -39.3 -10.9 -39.25 -12.75 -39.25 -13.5 -38.85 -13.85 -38.5 -14.1 -38.0 -14.25 -36.0 -13.9 -35.0 -13.75 -36.0 -14.25 -37.15 -14.9 -38.05 -15.9 -38.9 -17.5 -39.15 -17.9 -39.5 -18.25 -39.9 -18.65 -40.55 -19.75 -41.1 -20.9 -41.25 -21.25 -41.25 -22.75 -41.25 -24.65 -41.25 -25.75 -41.1 -26.1 -40.9 -26.5 -40.8 -26.9 -40.75 -27.25 -40.25 -28.0 -39.5 -28.75 -39.25 -29.0 -35.0 -29.7 -35.0 -29.75 -34.3 -29.75 -34.25 -29.85 -34.0 -30.25 -33.65 -30.65 -33.25 -31.0 -32.9 -31.4 -32.75 -31.75 -32.65 -32.15 -31.5 -33.25 -30.4 -34.4 Q-28.05 -35.6 -25.5 -36.3 L-24.75 -36.5 -23.4 -37.45 -22.4 -37.9 -22.0 -38.25 -21.75 -38.5 -20.9 -38.9 -19.25 -39.5 -16.7 -42.2 Q-16.05 -43.05 -15.75 -44.0 L-15.4 -44.4 -15.0 -44.75 -14.8 -45.15 -14.4 -45.9 -14.25 -46.25 -14.25 -46.65 -14.25 -47.0 -13.95 -47.4 -13.75 -47.75 -13.75 -48.15 -13.75 -48.5 -13.7 -48.85 -13.5 -49.25 -13.25 -49.65 -13.25 -50.0 -13.25 -50.4 -13.25 -50.75 -13.1 -51.1 -12.9 -51.5 -12.75 -51.9 -12.75 -52.25 -12.75 -52.65 -12.7 -52.95 -12.45 -53.4 -12.25 -53.75 -12.15 -57.5 Q-12.1 -59.5 -12.5 -61.25 L-12.7 -61.35 -13.5 -60.75 -13.75 -60.5 -14.0 -60.4 -14.6 -60.1 -15.0 -59.9 -18.5 -59.75 -19.25 -60.0 -19.65 -60.4 -19.9 -60.65 -20.75 -61.0 -21.75 -61.5 -22.1 -61.9 -22.25 -62.25 -22.4 -62.65 -22.75 -63.0 -23.15 -63.4 -23.2 -64.15 -23.25 -65.25 -23.25 -65.65 -23.4 -66.0 -23.6 -66.4 -23.75 -66.75 -23.75 -67.9 -23.75 -69.75 -23.75 -70.15 -23.7 -70.45 -23.45 -70.9 -23.25 -71.25 -23.25 -71.65 -23.25 -72.0 -23.2 -72.35 -23.0 -72.75 -22.75 -73.15 -22.75 -73.5 -22.75 -73.9 -22.5 -74.25 -22.25 -74.65 -22.25 -75.0 -22.25 -75.4 -17.5 -80.25 -15.75 -82.0 -15.5 -82.1 -14.9 -82.4 -14.15 -83.15 -13.4 -83.9 -13.25 -84.25 -13.15 -84.65 -12.75 -85.0 -12.4 -85.4 -12.25 -85.75 -12.15 -86.15 -11.75 -86.5 -11.4 -86.9 -11.25 -87.25 -11.15 -87.65 -10.75 -88.0 -10.4 -88.4 -10.1 -89.1 -9.5 -90.25 -9.25 -90.65 -9.25 -91.75 -9.25 -93.65 -9.25 -94.0 -9.2 -94.35 -9.0 -94.75 -8.75 -95.15 -8.75 -95.5 -8.75 -95.9 -8.55 -96.25 -8.3 -97.0 -8.25 -97.4 -8.35 -97.7 M-78.45 27.15 L-77.5 27.75 -77.3 28.5 -76.9 29.65 -76.75 30.0 -76.75 33.35 -76.75 36.75 -76.75 37.85 -77.1 38.6 -77.6 39.7 -77.9 40.1 -77.8 40.85 -77.75 42.0 -77.75 42.35 -77.85 42.7 -78.2 43.5 -78.5 44.25 -79.65 45.35 -81.15 46.85 -81.55 47.1 -82.15 47.4 -82.5 47.6 -83.0 47.7 -84.5 47.75 -85.25 47.45 -85.65 47.1 Q-85.75 46.95 -85.9 46.95 L-87.5 47.25 -99.0 47.25 -100.75 46.45 -102.15 45.6 -102.5 45.25 -102.7 44.85 -102.75 44.5 -102.75 44.1 -102.75 43.75 -102.65 43.35 Q-101.35 42.35 -99.8 41.95 L-98.25 41.5 -97.85 41.15 -97.5 40.85 -96.9 40.55 -96.5 40.25 -95.15 38.35 -94.25 36.5 -94.3 36.15 -94.5 35.75 -94.75 35.35 -94.75 35.0 -94.75 34.6 -94.75 33.85 -94.75 33.5 -94.8 33.15 -95.0 32.75 -95.25 32.35 -95.25 32.0 -95.25 31.6 -95.65 30.85 Q-95.95 30.2 -96.45 29.7 L-96.75 29.35 -96.75 28.25 -96.75 26.75 -96.75 26.0 -96.35 25.65 -96.0 25.4 -95.5 25.25 -94.9 25.55 -94.4 25.85 -93.95 26.65 -93.25 27.75 -93.25 28.1 -93.25 28.5 -92.5 29.25 -91.15 30.6 -91.0 30.7 -89.9 31.4 -89.5 31.75 -88.5 32.25 -87.0 33.0 -85.9 32.6 -84.9 32.1 -84.5 31.75 -84.15 31.35 -83.75 31.0 -82.95 30.55 -82.75 30.25 Q-82.15 29.2 -81.2 28.3 L-79.5 26.85 -78.45 27.15 M-79.15 31.6 Q-79.1 30.65 -79.75 31.0 L-81.65 32.85 -83.15 34.35 Q-84.3 35.0 -85.55 35.45 L-87.5 36.25 -88.7 35.9 -89.15 35.6 Q-89.25 34.6 -90.25 34.35 L-91.25 34.0 -91.65 33.65 -92.15 33.35 -92.25 33.5 -92.2 33.85 -92.05 34.25 -91.9 34.6 -91.75 35.0 -91.75 36.1 -91.75 37.25 -91.75 38.0 -92.5 39.4 -93.4 41.0 -93.65 41.35 -94.5 42.15 -95.15 42.85 -96.5 43.6 -98.15 44.35 -87.75 44.25 -86.25 44.0 -85.85 43.65 -85.5 43.35 -84.9 43.1 -84.5 42.9 -84.0 42.75 -83.55 42.8 -82.9 43.0 -82.55 43.4 -82.25 43.75 -82.0 43.8 -81.4 43.6 -80.8 42.85 -80.4 42.1 -80.25 41.75 -80.25 41.35 -80.25 41.0 -80.25 40.6 -80.15 40.25 -80.25 39.85 -80.25 39.5 -80.25 39.1 -80.25 38.75 -79.9 38.0 -79.5 37.25 -79.25 36.85 -79.25 34.25 -79.15 31.6 M-89.8 8.65 L-90.0 8.25 -90.4 7.9 -91.25 7.5 -91.65 7.1 -92.0 6.75 -92.4 6.35 Q-93.3 5.85 -94.25 5.45 L-95.25 5.0 -95.65 4.6 -95.9 4.35 Q-99.75 3.8 -103.25 2.0 L-103.65 1.6 -103.9 1.35 -104.05 1.25 -103.9 1.5 -103.75 1.85 -103.65 2.1 Q-101.25 3.6 -99.45 5.8 L-98.0 7.35 -95.85 10.8 -94.75 13.0 -94.75 13.35 -94.75 13.75 -94.6 14.1 -94.4 14.5 -94.25 14.85 -94.25 15.25 -94.25 15.6 -94.25 16.0 -93.9 17.15 -93.15 18.6 -92.75 19.0 -92.4 19.35 -92.15 19.6 -92.0 19.7 -91.4 20.05 -90.9 20.35 Q-89.25 21.5 -87.9 20.1 L-86.95 18.6 -86.25 17.1 -86.25 15.6 -86.25 13.75 -86.25 13.35 -86.4 13.0 -86.6 12.6 -86.75 12.25 -86.75 12.15 -87.25 12.0 -87.65 11.6 -88.0 11.25 -88.4 10.85 -88.7 10.45 -88.8 10.15 -89.0 9.75 -89.4 9.35 -89.75 9.0 -89.8 8.65 M-108.3 8.5 L-108.25 9.25 -108.25 9.6 -108.65 10.35 -109.35 11.9 -109.5 12.25 -109.9 12.6 -110.65 13.35 -111.0 13.6 -111.5 13.7 -113.0 13.75 -113.75 13.45 -114.15 13.1 -114.2 12.35 -114.25 11.25 -114.25 10.85 -113.85 9.7 -112.65 7.85 -111.5 7.35 -110.0 6.75 -109.4 7.05 -108.9 7.4 -108.5 7.75 -108.4 8.1 -108.3 8.5 M-112.5 23.25 L-111.5 23.25 -110.5 23.25 -109.9 23.55 -109.4 23.9 -109.0 24.25 -108.9 24.6 -108.8 25.35 -108.75 26.5 -108.75 27.25 -109.0 27.6 -109.25 28.0 -109.75 28.75 -110.0 29.1 -110.4 29.45 -111.0 29.75 -112.5 30.25 -113.5 30.25 -114.25 29.95 -114.65 29.6 -115.0 29.25 -115.2 28.85 -115.25 28.5 -115.25 28.1 -115.25 27.75 -115.25 27.35 -115.2 27.05 -114.95 26.6 -114.75 26.25 -114.75 25.85 -114.75 25.5 -114.45 25.1 -114.25 24.75 -114.15 24.35 -113.75 24.0 -113.35 23.65 -113.0 23.4 -112.5 23.25 M-112.1 26.6 Q-110.75 26.05 -111.75 26.0 -112.75 26.85 -112.1 26.6 M-161.25 28.85 L-161.25 30.35 -161.25 30.75 -162.35 33.3 Q-163.45 35.6 -165.5 37.1 L-166.0 37.2 -168.0 37.25 -168.7 36.95 -169.15 36.6 -169.2 35.85 -169.25 34.35 -169.25 32.5 -169.2 32.15 -169.0 31.75 -168.75 31.35 -168.75 31.0 -168.75 30.6 -168.75 30.25 -168.6 29.9 -168.25 29.5 -167.9 29.1 -167.75 28.75 -167.65 28.35 -167.25 28.0 -166.5 27.25 -166.15 26.85 -165.7 26.6 -165.05 26.3 -165.0 26.25 -163.5 26.25 -162.9 26.5 -161.9 27.05 -161.5 27.35 -161.35 27.75 -161.25 28.85 M-129.0 56.75 L-128.4 57.05 -128.0 57.35 -127.8 57.75 -127.75 58.1 -127.75 58.5 -127.55 58.9 -127.3 59.6 -127.25 60.0 -127.2 60.4 -126.9 60.5 -126.3 61.25 -125.95 61.8 -125.5 62.25 -125.4 62.6 -125.25 63.0 -124.15 64.1 -123.0 65.25 -122.9 65.6 -122.75 66.0 -122.4 66.35 -122.0 66.75 -121.65 67.1 -120.75 69.35 -119.75 72.0 -119.75 72.35 -119.75 72.75 -119.75 73.1 -119.7 73.45 -119.5 73.85 -119.25 74.25 -119.25 74.6 -119.25 75.0 -119.25 75.35 -119.3 75.7 -119.5 76.1 -119.75 76.5 -119.75 77.25 -119.75 78.35 -119.75 78.75 -121.0 80.25 -122.15 81.35 -124.1 82.4 -125.5 83.1 -126.05 83.15 -126.2 83.3 -126.5 83.6 -127.65 83.3 -127.75 83.25 -128.5 83.25 -128.75 83.15 -129.0 83.25 -130.0 83.25 -132.25 82.45 -133.25 82.0 -134.0 81.25 -134.75 80.5 -134.75 80.1 -134.75 79.75 -134.75 79.35 -134.9 79.0 -135.1 78.6 -135.25 78.25 -135.25 77.85 -135.25 77.5 -135.25 77.1 -135.25 76.75 -135.1 76.4 -134.9 76.0 -134.8 75.6 -134.75 75.25 -134.6 74.9 -134.25 74.5 -133.9 74.1 -133.75 73.75 -133.65 73.35 -133.25 73.0 -132.9 72.6 -132.5 72.25 -132.3 71.85 -132.2 71.55 -131.9 71.1 -131.5 70.9 -130.9 70.6 -130.55 70.2 -130.3 69.85 -130.25 69.5 -129.55 68.7 -128.9 68.0 -128.8 67.6 -128.75 67.25 -128.75 66.85 -128.7 66.55 -128.45 66.1 -128.25 65.75 -128.25 65.35 -128.25 65.0 -128.25 64.25 -128.25 63.85 -128.65 63.15 -128.8 63.0 -129.75 61.85 -129.75 61.5 -129.75 61.1 -129.75 60.75 -129.8 60.65 Q-130.6 60.5 -130.75 59.75 L-130.7 59.35 -130.75 59.25 -130.75 58.85 -130.75 58.1 -130.5 57.75 -130.15 57.35 -129.75 57.0 -129.05 56.8 -129.0 56.75 M-141.75 52.25 L-141.8 52.6 -141.9 53.0 -142.15 53.35 -142.55 53.55 -144.7 54.1 -145.15 54.35 -145.7 55.15 -146.4 56.6 -146.75 57.75 -146.75 58.1 -146.75 58.85 -146.75 59.6 -146.75 60.0 -146.7 60.35 -146.55 60.75 -146.4 61.1 -146.25 61.5 -146.25 61.85 -146.25 62.25 -146.1 62.6 -145.9 63.0 -145.75 63.35 -145.75 64.1 -145.7 66.0 Q-145.65 66.95 -145.9 67.85 L-146.05 68.2 -147.6 69.4 -148.0 69.6 -152.0 69.75 -152.75 69.5 -153.15 69.1 -153.9 68.35 -154.65 67.6 -154.75 67.25 -154.8 66.9 -155.1 66.1 -155.25 65.75 -155.25 64.25 -155.25 61.25 -155.25 59.35 -155.2 59.05 -154.95 58.6 -154.75 58.25 -154.75 57.85 -154.75 57.5 -154.45 57.1 -154.1 56.4 -153.75 55.6 -153.5 55.25 -152.4 54.1 -150.5 52.25 -150.25 52.0 -148.4 51.05 -142.55 50.9 -142.15 51.15 -141.9 51.5 -141.75 51.85 -141.75 52.25 M-139.75 73.85 L-139.75 74.6 -139.9 75.0 -140.1 75.4 -140.3 75.75 -140.5 76.1 -140.9 76.45 -141.65 76.9 -142.0 77.1 -142.5 77.2 -144.0 77.25 -144.7 76.9 -145.15 76.6 -145.5 76.2 -145.7 75.85 -145.75 75.5 -145.75 75.1 -145.75 74.35 -145.75 73.6 -145.75 72.85 -145.7 72.55 -145.4 72.1 -145.0 71.75 -144.8 71.35 -144.25 70.75 -143.55 70.3 -143.5 70.25 -142.5 70.25 -141.45 70.95 Q-140.6 71.55 -140.0 72.35 L-139.75 72.75 -139.75 73.1 -139.75 73.5 -139.75 73.85 M-125.75 66.5 L-125.75 66.85 -125.8 67.2 -126.0 67.6 -126.25 68.0 -126.25 68.35 -126.25 68.75 -126.3 69.1 -126.4 69.5 -127.05 70.2 -127.75 71.0 -127.9 71.35 -128.0 71.75 -128.9 72.45 -129.65 72.85 -130.0 73.25 -130.25 73.6 -130.65 74.35 -131.0 74.75 -131.4 75.1 -131.75 75.5 -132.05 76.2 -132.4 77.35 -132.5 77.75 -132.4 78.1 -132.3 78.5 -132.2 78.85 -132.0 79.25 Q-130.6 80.2 -129.0 80.4 L-128.95 80.4 -128.5 80.25 -128.0 80.45 -126.5 80.25 -126.35 80.3 -124.9 79.6 -123.9 79.1 -123.15 78.35 -122.4 77.6 Q-122.15 76.7 -122.2 75.75 L-122.25 73.85 -122.25 73.5 -122.3 73.15 -122.5 72.75 -122.75 72.35 -122.75 72.0 -122.75 71.6 -123.0 71.25 -123.25 70.85 -123.25 70.5 -123.25 70.1 -124.25 68.7 -125.15 67.1 -125.75 66.5 M-148.5 54.25 L-149.4 54.95 -150.15 55.35 -151.6 57.7 -152.75 60.25 -152.75 61.75 -152.75 64.0 -152.75 64.75 -152.4 65.5 -152.25 65.85 -151.9 66.6 -149.25 67.0 -148.4 66.6 -148.3 66.25 -148.25 65.85 -148.25 65.5 -148.25 64.75 -148.45 64.4 -148.75 64.0 -148.75 63.6 -148.75 63.25 -148.75 62.85 -148.75 62.5 -148.8 62.15 -149.0 61.75 -149.25 61.35 -149.25 59.85 -149.25 57.6 -149.25 56.85 -149.2 56.55 -148.95 56.1 -148.75 55.75 -148.65 55.05 -148.45 54.6 -148.45 54.2 -148.5 54.25 M-99.5 67.85 L-96.0 67.75 -94.95 68.45 -94.15 69.1 -93.4 69.5 -93.0 69.7 -92.4 70.0 -90.25 70.0 -89.5 69.75 -88.9 69.5 -88.7 68.75 -88.4 68.0 -88.25 67.6 -88.25 67.25 -88.25 66.85 -88.2 66.55 -87.95 66.1 -87.75 65.75 -87.75 65.35 -87.75 65.0 -87.7 64.65 -87.5 64.25 -87.25 64.0 -87.0 63.9 -86.5 63.8 -86.5 63.75 -86.0 63.8 -85.4 64.0 -85.05 64.4 -84.8 64.75 -84.65 65.1 -83.9 65.85 -83.15 66.6 -82.6 67.75 -82.0 68.85 -81.75 69.25 -81.75 70.0 -81.75 70.75 -81.75 71.5 -81.9 71.85 -82.05 72.25 -82.25 72.6 -82.25 73.0 -82.25 73.35 -82.25 73.75 -82.25 74.1 -82.6 74.9 -82.8 75.6 -82.9 76.0 -83.45 76.75 -83.9 77.5 -84.15 77.85 -86.0 79.75 Q-86.9 80.6 -88.0 81.1 L-91.0 81.75 -98.5 81.75 -100.7 80.9 -101.15 80.6 -101.5 80.2 -101.7 79.85 -101.75 79.1 -102.25 78.35 -102.6 77.6 -102.75 77.25 -102.75 75.35 -102.75 73.5 -102.75 72.75 -102.6 72.4 -102.4 72.0 -102.3 71.6 -102.25 71.25 -102.1 70.9 -101.75 70.5 -101.4 70.1 -101.25 69.75 -101.15 69.35 -100.4 68.6 -99.75 68.0 -99.5 67.85 M-99.6 72.4 L-100.25 73.5 -100.25 74.6 -100.25 75.75 Q-99.8 76.45 -99.65 77.2 L-99.0 78.6 -98.8 78.45 -98.35 78.15 -98.0 77.85 Q-97.1 77.55 -96.35 78.35 L-96.0 78.75 -94.0 78.25 -93.4 78.55 -93.0 78.85 Q-90.45 79.1 -87.75 78.0 L-87.3 77.2 -87.15 76.85 -86.4 76.1 -86.0 75.75 -85.3 74.25 -84.75 73.1 -84.75 72.75 -84.75 72.35 -84.75 72.0 -84.5 71.25 -84.25 70.5 -84.6 69.8 -85.25 69.0 -85.5 68.25 -85.65 68.0 -85.75 68.0 -85.75 68.1 Q-85.75 68.7 -86.05 69.2 -86.4 69.75 -86.25 70.35 L-86.6 71.05 -87.15 71.85 Q-87.95 72.35 -88.85 72.55 L-89.5 72.75 -93.0 72.75 -95.05 71.8 -95.75 71.5 -96.5 70.75 -96.75 70.5 Q-97.9 69.9 -98.65 70.85 L-99.6 72.4 M-201.9 48.05 L-201.55 48.4 -201.25 48.75 Q-201.45 49.7 -200.0 49.65 -198.9 49.65 -198.15 50.6 L-197.9 51.0 -197.8 51.35 -197.75 51.75 -197.75 52.1 -197.75 52.5 -198.05 53.65 -198.7 55.15 -199.15 55.85 -199.5 56.25 -199.75 56.45 -200.0 56.6 -203.0 56.75 -203.75 56.45 -204.05 56.3 -204.75 56.0 -205.1 55.6 -205.3 55.25 -205.75 54.5 -205.75 53.35 -205.75 51.85 -205.75 50.35 -205.7 50.05 -205.45 49.6 -205.15 48.85 -204.75 48.5 -203.95 47.95 -203.5 47.75 -202.5 47.75 -201.9 48.05 M-165.7 30.3 Q-166.3 30.8 -166.25 31.5 L-166.35 32.2 -166.5 32.6 -166.75 33.0 -166.75 33.35 -166.75 33.75 -166.75 34.1 -166.75 34.5 -165.95 34.05 -165.15 33.35 -164.35 31.45 -163.75 29.6 -163.95 29.35 -164.5 29.2 -164.75 29.25 -165.7 30.3 M-203.15 53.6 Q-202.0 54.75 -200.9 53.6 L-200.7 52.9 -200.4 52.1 Q-201.85 51.4 -203.25 51.75 L-203.2 52.85 -203.15 53.6 M-180.95 61.45 L-179.5 62.85 -179.25 63.25 -179.25 63.6 -179.25 64.35 -179.3 65.1 -179.4 65.85 -179.55 66.2 -179.9 66.6 -180.65 67.35 -181.0 67.6 -181.6 67.9 -182.0 68.1 -182.5 68.2 -183.5 68.25 -185.0 67.7 -186.15 67.1 -186.45 66.7 -186.9 66.0 -187.25 65.25 -187.25 64.85 -187.25 64.5 -187.2 64.15 -187.0 63.75 -186.8 63.35 -186.75 63.0 -186.4 62.6 -186.0 62.25 -185.25 61.5 -184.5 61.25 -183.05 60.8 -183.0 60.75 -182.0 60.75 Q-181.45 61.05 -180.95 61.45 M-183.75 64.0 L-183.95 64.7 -183.5 65.35 -182.4 65.0 -182.0 64.75 Q-181.85 63.5 -183.6 63.9 L-183.75 64.0" fill="#ffcc00" fill-rule="evenodd" stroke="none"/>
    <path d="M-142.0 -103.8 L-142.15 -103.9 -142.25 -104.15 -142.4 -104.5 -142.5 -104.9 Q-142.25 -105.75 -141.4 -105.95 L-139.5 -106.4 Q-138.9 -106.4 -138.7 -105.7 -138.5 -105.0 -139.0 -104.25 L-139.4 -103.5 -141.4 -103.5 -142.0 -103.8 M-84.25 -69.75 Q-83.45 -70.15 -82.85 -70.85 L-81.0 -72.75 Q-80.6 -72.85 -80.7 -72.0 L-80.75 -70.5 -80.75 -68.65 -81.0 -68.25 -81.45 -67.55 -82.0 -66.75 Q-83.05 -65.8 -84.45 -65.45 L-87.25 -64.65 -87.25 -64.9 -87.3 -65.25 -87.5 -65.65 -87.75 -66.0 -85.9 -67.75 Q-84.9 -68.6 -84.25 -69.75 M-147.7 -40.85 L-147.75 -41.25 -147.65 -41.5 -146.55 -42.3 Q-146.0 -42.55 -145.5 -42.9 L-145.4 -42.95 Q-144.95 -42.9 -145.0 -42.4 L-145.3 -41.65 -145.9 -40.9 -147.7 -40.85 M-157.15 -4.15 L-157.0 -4.85 -156.65 -5.65 -156.0 -5.9 -155.6 -6.1 -155.0 -6.4 -154.85 -6.1 -154.75 -5.75 -154.75 -5.4 -154.75 -5.0 -154.8 -4.65 -155.05 -4.25 -155.4 -3.9 -156.65 -3.6 -157.0 -3.75 -157.15 -4.15 M-8.35 -97.7 L-8.25 -97.4 -8.3 -97.0 -8.55 -96.25 -8.75 -95.9 -8.75 -95.5 -8.75 -95.15 -9.0 -94.75 -9.2 -94.35 -9.25 -94.0 -9.25 -93.65 -9.25 -91.75 -9.25 -90.65 -9.5 -90.25 -10.1 -89.1 -10.4 -88.4 -10.75 -88.0 -11.15 -87.65 -11.25 -87.25 -11.4 -86.9 -11.75 -86.5 -12.15 -86.15 -12.25 -85.75 -12.4 -85.4 -12.75 -85.0 -13.15 -84.65 -13.25 -84.25 -13.4 -83.9 -14.15 -83.15 -14.9 -82.4 -15.5 -82.1 -15.75 -82.0 -17.5 -80.25 -22.25 -75.4 -22.25 -75.0 -22.25 -74.65 -22.5 -74.25 -22.75 -73.9 -22.75 -73.5 -22.75 -73.15 -23.0 -72.75 -23.2 -72.35 -23.25 -72.0 -23.25 -71.65 -23.25 -71.25 -23.45 -70.9 -23.7 -70.45 -23.75 -70.15 -23.75 -69.75 -23.75 -67.9 -23.75 -66.75 -23.6 -66.4 -23.4 -66.0 -23.25 -65.65 -23.25 -65.25 -23.2 -64.15 -23.15 -63.4 -22.75 -63.0 -22.4 -62.65 -22.25 -62.25 -22.1 -61.9 -21.75 -61.5 -20.75 -61.0 -19.9 -60.65 -19.65 -60.4 -19.25 -60.0 -18.5 -59.75 -15.0 -59.9 -14.6 -60.1 -14.0 -60.4 -13.75 -60.5 -13.5 -60.75 -12.7 -61.35 -12.5 -61.25 Q-12.1 -59.5 -12.15 -57.5 L-12.25 -53.75 -12.45 -53.4 -12.7 -52.95 -12.75 -52.65 -12.75 -52.25 -12.75 -51.9 -12.9 -51.5 -13.1 -51.1 -13.25 -50.75 -13.25 -50.4 -13.25 -50.0 -13.25 -49.65 -13.5 -49.25 -13.7 -48.85 -13.75 -48.5 -13.75 -48.15 -13.75 -47.75 -13.95 -47.4 -14.25 -47.0 -14.25 -46.65 -14.25 -46.25 -14.4 -45.9 -14.8 -45.15 -15.0 -44.75 -15.4 -44.4 -15.75 -44.0 Q-16.05 -43.05 -16.7 -42.2 L-19.25 -39.5 -20.9 -38.9 -21.75 -38.5 -22.0 -38.25 -22.4 -37.9 -23.4 -37.45 -24.75 -36.5 -25.5 -36.3 Q-28.05 -35.6 -30.4 -34.4 L-31.5 -33.25 -32.65 -32.15 -32.75 -31.75 -32.9 -31.4 -33.25 -31.0 -33.65 -30.65 -34.0 -30.25 -34.25 -29.85 -34.3 -29.75 -35.0 -29.75 -35.0 -29.7 -39.25 -29.0 -39.5 -28.75 -40.25 -28.0 -40.75 -27.25 -40.8 -26.9 -40.9 -26.5 -41.1 -26.1 -41.25 -25.75 -41.25 -24.65 -41.25 -22.75 -41.25 -21.25 -41.1 -20.9 -40.55 -19.75 -39.9 -18.65 -39.5 -18.25 -39.15 -17.9 -38.9 -17.5 -38.05 -15.9 -37.15 -14.9 -36.0 -14.25 -35.0 -13.75 -36.0 -13.9 -38.0 -14.25 -38.5 -14.1 -38.85 -13.85 -39.25 -13.5 -39.25 -12.75 -39.3 -10.9 -39.3 -10.5 -39.75 -10.5 -39.8 -8.9 -39.65 -5.9 -39.7 -5.5 -39.75 -3.65 -39.75 -2.5 -39.45 -2.1 -39.25 -1.75 -39.25 -1.4 -39.25 -1.0 -38.95 -0.6 -38.75 -0.25 -38.75 0.1 -38.75 0.5 -38.45 0.9 -38.25 1.25 -38.25 1.6 -38.25 2.0 -37.95 2.4 -37.75 2.75 -37.65 3.1 -37.25 3.5 -36.9 3.85 -36.75 4.25 -36.6 4.6 -36.25 5.0 -35.25 5.4 Q-33.25 6.1 -31.4 6.85 L-31.15 7.1 -30.75 7.5 -29.75 7.95 -29.0 8.25 -23.0 8.1 -22.6 7.9 -22.0 7.7 -21.75 7.75 -21.9 8.1 -22.3 8.85 -22.5 9.25 -22.9 9.6 -23.25 10.0 -23.3 10.35 -23.55 10.7 -23.9 11.1 -24.5 11.35 -24.75 11.5 -25.0 11.75 -25.4 12.1 -26.0 12.35 -26.35 12.65 -26.75 13.0 -27.5 13.3 Q-29.15 14.05 -31.0 14.35 L-38.4 14.0 -39.95 13.15 Q-41.75 12.15 -43.65 11.6 -44.2 10.95 -44.95 10.6 L-47.0 9.75 -48.0 8.75 -49.15 7.6 -50.2 5.7 -51.4 3.85 -51.9 3.55 -52.5 3.25 -52.65 3.15 Q-55.05 1.45 -58.0 1.25 L-58.75 1.4 Q-60.15 1.5 -61.15 2.35 L-61.3 2.7 -61.7 3.5 -61.75 3.85 -61.75 6.1 -61.75 8.0 -61.45 8.4 -61.25 8.75 -61.15 9.1 -62.35 8.85 -64.0 8.25 -64.9 7.55 -66.65 6.6 -67.95 5.65 -68.9 4.85 Q-69.4 4.45 -69.55 3.75 L-69.75 3.0 -69.75 2.6 -69.75 2.25 -69.75 1.85 -69.9 1.5 -70.1 1.1 -70.25 0.75 -70.25 0.35 -70.25 0.0 -70.55 -0.75 -70.7 -1.15 -70.75 -1.5 -70.75 -1.9 -70.75 -3.0 -70.75 -3.75 -71.0 -4.15 -71.2 -4.55 -71.25 -4.9 -70.55 -6.65 Q-70.0 -7.7 -70.5 -8.65 L-70.9 -8.95 -71.1 -9.05 -70.65 -9.15 -70.4 -9.5 -70.3 -9.9 -70.25 -10.25 -70.55 -10.6 -70.9 -10.95 -71.5 -11.25 -74.0 -11.25 -77.5 -10.25 -78.0 -10.2 -78.2 -10.3 -78.25 -10.65 -78.25 -11.0 -77.65 -12.4 Q-77.15 -13.15 -77.25 -14.0 L-77.2 -14.35 -77.05 -14.75 -76.9 -15.15 -76.75 -15.5 -75.65 -16.65 -74.15 -18.15 -74.0 -18.25 -73.9 -18.15 -73.1 -16.2 -72.4 -15.15 -72.0 -14.75 -71.65 -14.4 -71.25 -14.0 -70.5 -13.75 -70.4 -13.65 -70.15 -13.4 -69.75 -13.0 -69.05 -12.7 Q-66.8 -11.35 -64.0 -11.25 L-63.4 -11.5 -61.4 -12.0 -60.25 -12.0 -57.9 -11.65 -57.65 -11.4 -57.25 -11.0 -56.25 -10.5 -55.25 -10.0 -54.9 -9.65 -54.5 -9.25 -54.3 -8.85 -54.2 -8.55 -53.9 -8.15 -53.5 -7.75 -53.15 -7.4 -52.3 -5.8 -51.15 -4.4 -50.75 -4.05 -50.0 -3.85 -49.5 -3.9 -49.3 -4.05 -49.0 -4.25 -48.65 -4.65 -48.4 -5.0 -48.3 -5.4 -48.25 -5.75 -48.25 -6.15 -48.25 -6.5 -48.0 -6.9 -47.8 -7.3 -47.75 -7.65 -47.75 -8.0 -47.75 -8.4 -47.75 -8.75 -47.6 -9.1 -47.4 -9.5 -47.25 -9.9 -47.25 -12.15 -47.25 -13.65 -47.4 -14.0 -47.6 -14.4 -47.75 -14.75 -47.75 -15.15 -47.75 -15.5 Q-48.35 -17.1 -49.25 -18.5 -50.5 -20.5 -52.3 -21.85 -54.5 -23.5 -54.5 -24.4 -53.5 -25.0 -52.9 -26.0 -52.4 -26.75 -52.15 -27.65 L-51.4 -28.05 -50.5 -28.75 -50.4 -29.15 -50.25 -29.5 -49.9 -29.9 -49.5 -30.25 -49.15 -30.65 -48.9 -31.0 -48.55 -31.75 -48.25 -32.5 -47.9 -32.9 -47.55 -33.3 -47.4 -33.65 Q-46.9 -35.55 -45.9 -37.35 -44.75 -39.4 -43.75 -41.5 L-43.4 -41.9 -43.0 -42.25 -42.65 -42.65 -42.4 -43.0 -42.25 -43.35 -42.0 -43.75 -40.5 -45.25 -38.65 -47.15 -38.0 -47.4 -37.75 -47.5 -37.5 -47.75 -37.15 -48.15 -35.5 -48.85 -31.65 -50.65 -31.4 -51.0 -31.3 -51.4 -31.25 -51.75 -31.55 -52.1 -31.9 -52.45 -32.5 -52.75 -35.0 -52.75 -35.75 -52.5 -39.9 -52.5 -40.5 -52.75 -41.15 -52.9 -41.85 -53.55 -42.5 -54.25 -42.65 -54.65 -43.0 -55.75 -43.25 -56.5 -43.25 -56.9 -43.25 -58.4 -43.25 -59.5 -43.0 -59.9 -42.75 -60.25 -42.75 -60.65 -42.75 -61.0 -42.5 -61.4 -42.25 -61.75 -42.25 -62.15 -42.25 -62.5 -42.0 -62.9 -41.75 -63.25 -41.75 -63.65 -41.75 -64.0 -41.35 -64.8 -41.25 -65.15 -41.25 -65.5 -40.65 -66.95 -40.15 -68.15 -39.4 -68.9 -38.65 -69.65 -38.4 -70.0 -38.25 -70.35 -38.0 -70.75 -36.5 -72.25 -34.65 -74.15 Q-34.35 -74.25 -34.0 -74.4 L-33.8 -74.5 -33.5 -74.75 -33.4 -75.15 -33.3 -75.5 -33.25 -75.9 -33.25 -76.25 -33.95 -76.85 Q-34.45 -77.15 -35.0 -77.25 L-35.05 -77.2 -35.5 -77.05 -35.85 -76.85 -36.25 -76.5 -37.9 -75.9 -38.75 -75.5 -39.0 -75.25 -39.4 -74.9 -40.25 -74.5 -40.65 -74.15 -41.0 -73.75 -41.4 -73.4 -42.0 -73.1 -42.4 -72.9 -43.0 -72.65 -43.35 -72.35 -43.75 -72.0 -45.4 -71.4 -46.25 -71.0 -46.5 -70.75 -46.9 -70.4 -47.9 -69.9 -48.75 -69.5 -49.0 -69.25 -49.4 -68.9 -51.5 -68.65 Q-59.8 -69.35 -66.75 -65.5 L-67.0 -65.25 -67.4 -64.9 -68.0 -64.6 -68.4 -64.4 -68.6 -63.95 Q-68.75 -63.35 -69.2 -62.85 L-69.65 -62.15 -71.15 -63.1 Q-71.6 -63.6 -71.7 -64.2 L-71.5 -64.4 -71.3 -64.75 -71.25 -65.15 -71.25 -65.5 -71.0 -65.9 -70.75 -66.25 -70.75 -66.65 -70.75 -67.0 -70.5 -67.4 -70.3 -67.75 -70.25 -68.15 -70.25 -68.5 -70.25 -68.9 -70.25 -69.25 -69.1 -71.8 Q-68.45 -73.7 -67.25 -75.25 L-67.25 -75.65 -67.25 -76.75 -67.25 -77.5 -67.0 -77.9 -66.8 -78.25 -66.75 -78.65 -66.75 -79.4 -66.75 -79.65 -66.45 -79.3 -65.75 -78.5 Q-63.0 -77.5 -60.0 -77.25 L-59.0 -77.25 -54.25 -78.0 -52.9 -79.4 -52.8 -79.5 -54.9 -79.5 -54.65 -79.6 -53.75 -80.0 -53.5 -80.25 -53.15 -80.65 -52.55 -80.9 -52.15 -81.15 -50.25 -83.0 -46.15 -87.15 -45.2 -88.7 -44.5 -89.75 -43.55 -90.9 -42.75 -92.0 -42.0 -92.15 -41.65 -92.15 -41.7 -91.75 -41.8 -89.9 -41.65 -88.4 -41.25 -88.05 -40.5 -87.75 -40.0 -87.9 -39.8 -88.0 -39.5 -88.25 -39.35 -89.0 -39.3 -89.2 -37.9 -89.5 -34.75 -89.5 -25.0 -88.25 -21.5 -88.4 -20.35 -88.9 -16.25 -90.5 -16.0 -90.75 -15.65 -91.15 -15.0 -91.4 -14.75 -91.5 -13.75 -92.5 -12.65 -93.65 Q-11.7 -94.0 -11.0 -94.75 L-9.15 -96.65 -8.9 -97.0 -8.75 -97.4 -8.45 -97.7 -8.35 -97.7 M-89.8 8.65 L-89.75 9.0 -89.4 9.35 -89.0 9.75 -88.8 10.15 -88.7 10.45 -88.4 10.85 -88.0 11.25 -87.65 11.6 -87.25 12.0 -86.75 12.15 -86.75 12.25 -86.6 12.6 -86.4 13.0 -86.25 13.35 -86.25 13.75 -86.25 15.6 -86.25 17.1 -86.95 18.6 -87.9 20.1 Q-89.25 21.5 -90.9 20.35 L-91.4 20.05 -92.0 19.7 -92.15 19.6 -92.4 19.35 -92.75 19.0 -93.15 18.6 -93.9 17.15 -94.25 16.0 -94.25 15.6 -94.25 15.25 -94.25 14.85 -94.4 14.5 -94.6 14.1 -94.75 13.75 -94.75 13.35 -94.75 13.0 -95.85 10.8 -98.0 7.35 -99.45 5.8 Q-101.25 3.6 -103.65 2.1 L-103.75 1.85 -103.9 1.5 -104.05 1.25 -103.9 1.35 -103.65 1.6 -103.25 2.0 Q-99.75 3.8 -95.9 4.35 L-95.65 4.6 -95.25 5.0 -94.25 5.45 Q-93.3 5.85 -92.4 6.35 L-92.0 6.75 -91.65 7.1 -91.25 7.5 -90.4 7.9 -90.0 8.25 -89.8 8.65 M-79.15 31.6 L-79.25 34.25 -79.25 36.85 -79.5 37.25 -79.9 38.0 -80.25 38.75 -80.25 39.1 -80.25 39.5 -80.25 39.85 -80.15 40.25 -80.25 40.6 -80.25 41.0 -80.25 41.35 -80.25 41.75 -80.4 42.1 -80.8 42.85 -81.4 43.6 -82.0 43.8 -82.25 43.75 -82.55 43.4 -82.9 43.0 -83.55 42.8 -84.0 42.75 -84.5 42.9 -84.9 43.1 -85.5 43.35 -85.85 43.65 -86.25 44.0 -87.75 44.25 -98.15 44.35 -96.5 43.6 -95.15 42.85 -94.5 42.15 -93.65 41.35 -93.4 41.0 -92.5 39.4 -91.75 38.0 -91.75 37.25 -91.75 36.1 -91.75 35.0 -91.9 34.6 -92.05 34.25 -92.2 33.85 -92.25 33.5 -92.15 33.35 -91.65 33.65 -91.25 34.0 -90.25 34.35 Q-89.25 34.6 -89.15 35.6 L-88.7 35.9 -87.5 36.25 -85.55 35.45 Q-84.3 35.0 -83.15 34.35 L-81.65 32.85 -79.75 31.0 Q-79.1 30.65 -79.15 31.6 M-148.5 54.25 L-148.45 54.2 -148.45 54.6 -148.65 55.05 -148.75 55.75 -148.95 56.1 -149.2 56.55 -149.25 56.85 -149.25 57.6 -149.25 59.85 -149.25 61.35 -149.0 61.75 -148.8 62.15 -148.75 62.5 -148.75 62.85 -148.75 63.25 -148.75 63.6 -148.75 64.0 -148.45 64.4 -148.25 64.75 -148.25 65.5 -148.25 65.85 -148.3 66.25 -148.4 66.6 -149.25 67.0 -151.9 66.6 -152.25 65.85 -152.4 65.5 -152.75 64.75 -152.75 64.0 -152.75 61.75 -152.75 60.25 -151.6 57.7 -150.15 55.35 -149.4 54.95 -148.5 54.25 M-125.75 66.5 L-125.15 67.1 -124.25 68.7 -123.25 70.1 -123.25 70.5 -123.25 70.85 -123.0 71.25 -122.75 71.6 -122.75 72.0 -122.75 72.35 -122.5 72.75 -122.3 73.15 -122.25 73.5 -122.25 73.85 -122.2 75.75 Q-122.15 76.7 -122.4 77.6 L-123.15 78.35 -123.9 79.1 -124.9 79.6 -126.35 80.3 -126.5 80.25 -128.0 80.45 -128.5 80.25 -128.95 80.4 -129.0 80.4 Q-130.6 80.2 -132.0 79.25 L-132.2 78.85 -132.3 78.5 -132.4 78.1 -132.5 77.75 -132.4 77.35 -132.05 76.2 -131.75 75.5 -131.4 75.1 -131.0 74.75 -130.65 74.35 -130.25 73.6 -130.0 73.25 -129.65 72.85 -128.9 72.45 -128.0 71.75 -127.9 71.35 -127.75 71.0 -127.05 70.2 -126.4 69.5 -126.3 69.1 -126.25 68.75 -126.25 68.35 -126.25 68.0 -126.0 67.6 -125.8 67.2 -125.75 66.85 -125.75 66.5 M-99.6 72.4 L-98.65 70.85 Q-97.9 69.9 -96.75 70.5 L-96.5 70.75 -95.75 71.5 -95.05 71.8 -93.0 72.75 -89.5 72.75 -88.85 72.55 Q-87.95 72.35 -87.15 71.85 L-86.6 71.05 -86.25 70.35 Q-86.4 69.75 -86.05 69.2 -85.75 68.7 -85.75 68.1 L-85.75 68.0 -85.65 68.0 -85.5 68.25 -85.25 69.0 -84.6 69.8 -84.25 70.5 -84.5 71.25 -84.75 72.0 -84.75 72.35 -84.75 72.75 -84.75 73.1 -85.3 74.25 -86.0 75.75 -86.4 76.1 -87.15 76.85 -87.3 77.2 -87.75 78.0 Q-90.45 79.1 -93.0 78.85 L-93.4 78.55 -94.0 78.25 -96.0 78.75 -96.35 78.35 Q-97.1 77.55 -98.0 77.85 L-98.35 78.15 -98.8 78.45 -99.0 78.6 -99.65 77.2 Q-99.8 76.45 -100.25 75.75 L-100.25 74.6 -100.25 73.5 -99.6 72.4 M-203.15 53.6 L-203.2 52.85 -203.25 51.75 Q-201.85 51.4 -200.4 52.1 L-200.7 52.9 -200.9 53.6 Q-202.0 54.75 -203.15 53.6 M-165.7 30.3 L-164.75 29.25 -164.5 29.2 -163.95 29.35 -163.75 29.6 -164.35 31.45 -165.15 33.35 -165.95 34.05 -166.75 34.5 -166.75 34.1 -166.75 33.75 -166.75 33.35 -166.75 33.0 -166.5 32.6 -166.35 32.2 -166.25 31.5 Q-166.3 30.8 -165.7 30.3 M-183.75 64.0 L-183.6 63.9 Q-181.85 63.5 -182.0 64.75 L-182.4 65.0 -183.5 65.35 -183.95 64.7 -183.75 64.0" fill="#ffcc66" fill-rule="evenodd" stroke="none"/>
  </g>
</svg>
