<?xml version="1.0" encoding="UTF-8" standalone="no"?>
<svg xmlns:ffdec="https://www.free-decompiler.com/flash" xmlns:xlink="http://www.w3.org/1999/xlink" ffdec:objectType="shape" height="179.35px" width="240.65px" xmlns="http://www.w3.org/2000/svg">
  <g transform="matrix(1.0, 0.0, 0.0, 1.0, 266.3, 83.15)">
    <path d="M-164.9 -81.95 Q-138.6 -82.0 -130.55 -58.35 -128.4 -52.05 -128.6 -45.9 -122.9 -45.5 -119.3 -42.3 -115.3 -44.6 -110.9 -44.95 L-109.3 -45.25 Q-106.65 -49.2 -101.25 -51.05 -95.0 -53.2 -88.9 -53.95 L-85.65 -54.3 Q-84.9 -59.0 -82.15 -63.6 -80.4 -66.5 -78.3 -68.9 -76.25 -76.95 -66.95 -80.35 -63.3 -81.7 -59.9 -81.95 L-51.65 -81.2 -51.6 -81.2 -51.5 -81.0 Q-46.45 -75.2 -38.5 -74.65 L-32.95 -73.7 -32.25 -71.25 -32.25 -70.5 -32.25 -69.75 -32.25 -69.0 -32.0 -68.25 -31.75 -67.5 -31.5 -66.75 -31.25 -66.0 -31.25 -65.25 -31.25 -64.5 -31.25 -63.75 -31.25 -63.0 -31.0 -62.25 -30.75 -61.5 -30.5 -60.75 -30.25 -60.0 -30.25 -59.25 -30.25 -57.0 -30.25 -55.5 -30.25 -54.0 -30.5 -53.25 -30.75 -52.5 -31.0 -51.75 -31.25 -51.0 -31.25 -50.25 -31.25 -49.5 -31.25 -48.75 -31.25 -48.0 -31.0 -47.25 -30.75 -46.5 -30.5 -45.75 -29.75 -45.0 -29.0 -44.3 -28.25 -43.7 -28.25 -42.5 -28.25 -41.0 -28.0 -40.25 -27.75 -39.5 -27.5 -38.75 -27.25 -38.0 Q-27.25 -30.5 -27.75 -23.05 -28.25 -15.7 -25.65 -9.15 -26.3 -6.9 -26.25 -4.5 -27.0 -3.5 -27.15 -2.25 -27.35 -0.7 -27.9 0.8 L-28.25 2.25 -29.45 3.8 -30.35 5.2 -31.5 6.75 -31.75 7.5 -32.0 8.25 -32.25 9.0 -32.5 9.75 -33.9 11.3 -35.2 13.3 Q-39.45 15.3 -44.0 16.5 L-44.75 17.0 -45.5 17.75 -46.25 18.5 -47.0 19.25 -50.0 19.8 -53.0 20.5 -53.45 20.85 -54.05 20.85 Q-57.0 20.4 -59.75 19.25 -62.05 17.4 -64.65 16.0 -67.1 14.7 -69.8 14.7 L-73.35 11.75 -73.75 11.0 -73.75 10.25 -73.75 9.5 Q-74.35 6.85 -76.2 4.95 -78.2 2.95 -81.0 2.75 L-81.05 2.85 -82.5 3.05 -83.5 3.25 -84.0 3.55 -84.55 4.0 -84.55 -0.3 -86.9 0.05 Q-90.2 -0.7 -92.7 -1.8 L-93.2 -1.0 -94.1 0.6 -95.0 2.0 -96.15 3.55 Q-97.15 6.55 -99.5 8.65 -103.95 12.65 -109.9 13.05 L-112.4 12.45 -112.2 15.4 Q-109.4 16.95 -107.4 19.55 -104.6 21.75 -102.75 24.05 -89.4 30.05 -92.4 47.65 -91.5 48.55 -90.75 49.65 -87.5 54.3 -87.9 60.05 -87.55 61.9 -87.35 63.65 -78.0 68.8 -81.95 81.6 -83.9 88.0 -90.4 89.95 -107.75 95.2 -125.95 96.15 L-135.05 95.7 Q-142.5 94.55 -149.6 92.05 -157.3 89.3 -158.75 81.4 -160.65 70.7 -153.3 66.6 -153.7 63.8 -153.25 60.45 -157.85 62.85 -163.75 64.1 L-171.85 64.45 Q-182.15 63.1 -185.0 56.7 L-189.8 56.3 Q-189.0 58.4 -188.9 60.8 -178.65 78.3 -196.45 88.9 -200.3 91.2 -204.9 91.05 -218.65 90.55 -223.05 82.2 L-229.9 82.45 Q-233.65 87.0 -241.3 89.85 -255.6 95.3 -262.9 82.15 -266.65 75.35 -266.25 67.55 -265.45 52.25 -251.3 48.55 -249.4 43.55 -245.7 39.7 -246.6 31.55 -240.1 23.9 -244.95 8.65 -236.7 -6.15 -234.7 -9.85 -233.2 -13.85 -227.5 -29.15 -219.1 -43.15 L-217.65 -45.45 Q-219.1 -53.05 -214.9 -59.35 L-213.55 -61.25 -213.8 -62.6 Q-216.4 -81.15 -196.65 -82.55 L-193.9 -82.95 Q-187.2 -83.65 -180.75 -82.0 -177.1 -81.05 -174.35 -78.65 -170.45 -81.55 -164.9 -81.95" fill="#0000ff" fill-rule="evenodd" stroke="none"/>
  </g>
</svg>
