<?xml version="1.0" encoding="UTF-8" standalone="no"?>
<svg xmlns:ffdec="https://www.free-decompiler.com/flash" xmlns:xlink="http://www.w3.org/1999/xlink" ffdec:objectType="shape" height="12.3px" width="15.5px" xmlns="http://www.w3.org/2000/svg">
  <g transform="matrix(1.0, 0.0, 0.0, 1.0, 61.25, 43.3)">
    <path d="M-60.7 -40.35 L-61.25 -40.8 -59.9 -42.15 -59.0 -42.8 -58.7 -43.0 -58.0 -43.3 Q-53.5 -42.6 -50.05 -39.7 L-45.75 -35.3 -45.75 -34.55 -45.75 -33.8 -45.75 -33.05 -45.8 -32.3 -46.0 -31.55 Q-46.5 -31.15 -47.05 -31.05 L-48.65 -31.25 -49.15 -31.8 -49.25 -32.55 -48.6 -33.35 Q-48.35 -33.65 -48.35 -34.05 L-48.5 -34.8 -50.7 -37.05 Q-53.15 -39.6 -56.75 -40.05 L-60.7 -40.35" fill="#ff6600" fill-rule="evenodd" stroke="none"/>
  </g>
</svg>
