<?xml version="1.0" encoding="UTF-8" standalone="no"?>
<svg xmlns:ffdec="https://www.free-decompiler.com/flash" xmlns:xlink="http://www.w3.org/1999/xlink" ffdec:objectType="shape" height="199.5px" width="177.5px" xmlns="http://www.w3.org/2000/svg">
  <g transform="matrix(1.0, 0.0, 0.0, 1.0, 168.25, 121.25)">
    <path d="M-34.15 -69.15 L-34.5 -68.85 -34.75 -68.75 -36.5 -68.35 -37.4 -68.1 -38.25 -68.35 -38.75 -68.75 -39.1 -69.15 -39.25 -69.5 -39.25 -69.85 -39.25 -70.2 -39.15 -70.6 -38.95 -70.95 -38.65 -71.35 -38.1 -71.8 -38.45 -71.65 -39.15 -71.1 -39.5 -70.85 -39.75 -70.75 -40.4 -70.6 -40.9 -70.65 -41.75 -70.85 -42.25 -71.25 -42.6 -71.65 -42.75 -72.0 -42.75 -72.35 -42.75 -72.75 -42.65 -73.1 -42.5 -73.35 -43.45 -73.15 Q-44.7 -72.9 -45.75 -72.25 L-46.4 -72.15 -47.4 -72.15 -48.25 -72.35 -48.75 -72.75 -49.1 -73.15 -49.25 -73.5 -49.25 -73.85 -49.25 -74.25 -49.2 -74.3 -52.25 -74.85 -52.75 -75.25 -53.1 -75.65 -53.25 -76.0 -53.25 -76.35 -53.25 -76.75 -53.15 -77.1 -52.95 -77.45 -52.65 -77.85 -52.25 -78.1 -52.0 -78.2 -51.4 -78.3 -51.4 -78.35 -48.55 -78.25 Q-44.3 -75.05 -38.5 -74.65 L-32.95 -73.7 -32.25 -71.25 -32.25 -70.5 -32.25 -69.75 -32.25 -69.0 -32.0 -68.25 -31.75 -67.5 -31.5 -66.75 -31.25 -66.0 -31.25 -65.25 -31.25 -64.5 -31.25 -63.75 -31.25 -63.0 -31.0 -62.25 -30.75 -61.5 -30.5 -60.75 -30.25 -60.0 -30.25 -59.25 -30.25 -57.0 -30.25 -55.5 -30.25 -54.0 -30.5 -53.25 -30.75 -52.5 -31.0 -51.75 -31.25 -51.0 -31.25 -50.25 -31.25 -49.5 -31.25 -48.75 -31.25 -48.0 -31.0 -47.25 -30.75 -46.5 -30.5 -45.75 -29.75 -45.0 -29.0 -44.3 -28.25 -43.7 -28.25 -42.5 -28.25 -41.0 -28.0 -40.25 -27.75 -39.5 -27.5 -38.75 -27.25 -38.0 -27.35 -31.15 -27.9 -31.1 -28.4 -31.15 -28.45 -31.15 -28.5 -30.95 -28.5 -30.2 -28.55 -29.5 -27.35 -30.5 -27.75 -23.05 Q-28.25 -15.7 -25.65 -9.15 -26.3 -6.9 -26.25 -4.5 -27.0 -3.5 -27.15 -2.25 -27.35 -0.7 -27.9 0.8 L-28.25 2.25 -29.45 3.8 -30.35 5.2 -31.5 6.75 -31.75 7.5 -32.0 8.25 -32.25 9.0 -32.5 9.75 -33.9 11.3 -35.2 13.3 Q-39.45 15.3 -44.0 16.5 L-44.75 17.0 -45.5 17.75 -46.25 18.5 -47.0 19.25 -50.0 19.8 -53.0 20.5 -53.45 20.85 -54.1 20.85 Q-57.0 20.4 -59.75 19.25 -62.05 17.4 -64.65 16.0 -67.1 14.7 -69.8 14.7 L-70.0 14.5 -70.15 14.2 -70.4 13.8 -71.0 13.05 -71.2 12.3 -71.65 11.15 -72.15 10.4 -72.25 10.05 -72.45 9.3 -72.75 8.55 -72.75 8.15 -72.75 7.8 -73.15 6.4 -73.2 6.25 -74.0 4.05 -74.25 3.3 -74.3 2.15 -74.3 0.65 -74.25 -0.45 -74.1 -0.8 -73.4 -1.6 -73.0 -1.95 -72.5 -2.2 -72.2 -2.25 -72.15 -2.35 -71.75 -2.6 -71.5 -2.65 -70.9 -2.75 -70.9 -2.85 -69.4 -2.75 -68.5 -2.6 -68.0 -2.2 -67.8 -1.85 -67.65 -1.45 -67.6 -0.7 -67.65 -0.35 -67.9 0.05 -68.2 0.4 -68.5 0.65 -68.8 0.75 -69.5 0.9 -69.5 1.3 -69.5 2.05 -69.5 2.8 -69.65 3.15 -69.75 3.55 -69.65 3.9 -69.55 4.3 -69.5 4.5 -69.4 4.85 -69.0 4.9 -68.5 5.3 -68.3 5.7 -68.15 6.05 -68.1 6.8 -68.1 6.9 -68.15 7.65 -68.4 8.05 -68.5 8.2 -68.5 8.4 -68.5 8.8 -68.3 9.15 -68.25 9.25 -67.8 8.45 -67.55 7.6 Q-67.1 6.15 -66.0 5.05 L-65.5 4.85 -64.9 4.75 -64.9 4.65 -64.4 4.7 -64.4 4.65 -63.65 4.85 -63.5 4.9 -63.0 5.3 -62.8 5.7 -62.65 6.05 -62.55 6.4 -62.5 6.8 -62.65 7.1 -62.5 7.8 -62.5 8.1 -62.45 8.2 -62.4 8.2 -61.5 8.4 -61.0 8.8 -60.95 8.85 -60.4 8.75 -60.4 8.65 -60.25 8.65 -60.25 8.05 -60.1 7.7 -59.9 7.3 -59.65 6.9 -59.5 6.55 -58.5 5.8 -57.5 5.05 -57.0 4.85 -56.4 4.75 -56.4 4.65 -55.9 4.7 -55.0 4.9 -54.2 5.7 -53.7 6.45 -53.5 6.8 -53.55 7.15 -53.65 7.55 -53.75 7.9 -54.05 8.25 -54.5 8.65 -55.4 8.9 -56.25 9.05 -56.6 9.45 -56.75 9.8 -56.9 10.15 -57.35 10.55 -57.3 10.7 -57.15 11.05 -57.0 11.4 -57.05 11.8 -57.1 12.15 -55.2 13.5 -55.25 13.15 -55.25 12.8 -55.15 12.4 -55.0 12.05 -54.65 11.65 -54.25 11.4 -54.0 11.35 -53.4 11.25 -53.4 11.15 -52.9 11.2 -52.0 11.4 -51.35 11.95 -51.0 11.8 -50.4 11.75 -50.4 11.65 -49.5 11.9 -49.0 12.3 -48.8 12.7 -48.7 12.8 -48.5 12.55 -48.0 12.35 -47.4 12.25 -47.4 12.15 -46.5 12.4 -46.0 12.8 -45.8 13.2 -45.65 13.55 -45.5 13.9 -45.55 14.3 -45.0 14.4 -44.5 14.8 -44.3 15.2 -43.7 15.35 -43.8 13.3 -43.75 9.9 -43.75 9.55 -43.6 9.2 -43.15 8.4 -42.9 8.05 -42.6 7.2 -42.4 6.4 -42.0 6.15 -40.9 5.75 -40.9 5.65 -40.0 5.9 -39.5 6.3 -39.3 6.7 -39.15 7.05 -39.0 7.4 -39.0 7.8 -39.0 8.15 -39.0 8.4 -37.5 7.8 -37.3 7.8 -37.15 6.65 -35.5 5.5 -35.6 5.4 -35.75 5.05 -35.75 4.65 -35.7 4.3 -35.5 3.55 -33.25 1.75 -33.6 1.4 -33.75 1.05 -33.75 0.65 -33.75 0.3 -33.65 -0.1 -33.45 -0.4 -32.4 -1.6 -32.0 -1.95 -31.8 -2.35 -31.6 -2.7 -31.4 -3.1 -30.55 -3.65 -30.5 -3.75 -30.75 -3.85 -31.25 -4.25 -31.6 -4.6 -31.75 -4.95 -31.75 -5.35 -31.75 -5.7 -31.65 -6.1 -30.05 -8.05 -30.1 -8.1 -30.25 -8.45 -30.2 -9.2 -29.6 -10.65 -30.25 -10.85 -30.75 -11.25 -31.15 -11.6 -31.25 -12.35 -31.25 -13.45 -31.15 -14.2 -30.5 -14.95 -29.0 -16.45 -28.25 -16.85 -27.8 -17.05 -28.1 -17.7 -28.4 -17.45 -28.75 -17.2 -29.4 -17.15 -31.25 -17.35 -31.75 -17.75 -32.1 -18.1 -32.25 -18.45 -32.25 -18.85 -32.2 -19.2 -32.0 -19.95 -31.6 -20.3 -30.75 -20.85 -31.25 -21.25 -31.65 -21.6 -31.7 -21.95 -31.75 -22.7 -31.75 -23.45 -31.6 -23.8 -30.9 -24.6 -30.5 -24.95 -29.8 -25.4 -29.25 -25.75 -29.65 -26.1 -29.7 -26.45 -29.75 -27.2 -30.4 -27.1 -30.9 -27.15 -31.75 -27.35 -32.25 -27.75 -32.65 -28.1 -32.8 -29.2 -32.75 -30.75 -33.15 -31.1 -33.2 -31.5 -33.25 -32.2 -33.25 -32.95 -32.45 -34.15 -32.25 -34.3 -32.25 -34.75 -32.65 -35.1 -32.8 -36.3 -33.1 -36.65 -33.25 -36.95 -33.25 -37.35 -33.25 -37.7 -33.15 -38.1 -32.95 -38.45 -32.75 -38.65 -32.75 -39.6 -32.75 -39.7 -33.4 -39.6 -34.25 -39.85 -34.75 -40.25 -35.15 -40.6 -35.2 -41.35 -35.2 -42.85 -35.15 -43.6 -34.25 -44.75 -32.5 -45.7 -31.9 -45.8 -31.9 -45.85 -31.4 -45.7 -31.4 -45.75 -31.25 -46.1 -31.25 -46.6 -31.4 -46.6 -31.9 -46.65 -32.05 -46.65 -32.4 -46.6 -33.25 -46.85 -33.75 -47.25 -34.15 -47.6 -34.2 -48.0 -34.25 -48.7 -34.25 -49.45 -33.75 -50.3 -33.75 -50.6 -33.75 -51.0 -33.6 -51.35 -33.4 -51.75 -33.25 -52.1 -33.25 -52.5 -33.25 -52.85 -33.25 -53.25 -33.35 -53.45 -33.5 -53.35 -34.4 -53.1 -34.9 -53.15 -35.75 -53.35 -36.25 -53.7 Q-36.9 -54.15 -37.15 -54.85 L-37.25 -55.25 -37.25 -55.6 -37.25 -55.95 -37.15 -56.35 -36.0 -57.5 -34.65 -58.4 -34.75 -59.1 -34.7 -60.2 -34.65 -60.3 -34.7 -60.5 -34.8 -61.25 -34.65 -62.35 -34.25 -62.7 -32.65 -63.65 -32.9 -63.6 -33.4 -63.65 -34.25 -63.85 -35.1 -64.65 -35.6 -65.35 -35.75 -65.75 -35.75 -66.1 -35.75 -66.45 -35.65 -66.85 -35.25 -67.2 -34.75 -67.6 -33.9 -67.8 -33.9 -67.85 -33.4 -67.8 -32.9 -67.7 -33.1 -68.1 -33.25 -68.5 -33.4 -68.85 -33.75 -69.25 -33.95 -69.4 -34.15 -69.15 M-31.75 -64.05 L-32.0 -63.85 -32.4 -63.75 -31.9 -63.8 -31.9 -63.85 -31.75 -63.8 -31.75 -64.0 -31.75 -64.05" fill="#ff6600" fill-rule="evenodd" stroke="none"/>
    <path d="M8.6 -120.95 L8.95 -120.6 9.25 -120.25 9.25 -119.9 9.2 -119.5 9.1 -119.15 9.0 -118.75 8.7 -118.5 8.5 -118.4 7.85 -118.15 7.5 -117.75 7.25 -117.5 7.0 -117.4 6.35 -117.15 6.0 -116.75 Q5.1 -115.9 4.0 -115.4 L3.35 -115.15 3.0 -114.75 -0.4 -111.35 -1.5 -110.25 -1.75 -109.85 -2.5 -108.35 -3.25 -106.9 -3.25 -106.5 -3.25 -106.15 -3.25 -105.75 -3.25 -105.4 -3.4 -105.0 -3.6 -104.6 -3.75 -104.25 -3.6 -103.9 -2.75 -102.0 -2.25 -100.15 -2.0 -99.8 Q-1.35 -99.1 -1.05 -98.25 -0.8 -97.4 -0.25 -96.75 L-0.25 -96.4 -0.25 -96.0 0.0 -95.65 0.25 -95.25 0.25 -94.9 0.25 -92.25 0.25 -89.65 -0.05 -88.9 -1.55 -85.55 -2.5 -83.25 -2.9 -82.9 -3.25 -82.5 -3.4 -82.15 -3.5 -81.75 -3.9 -81.4 -4.25 -81.0 -4.65 -80.65 -4.8 -80.25 Q-5.25 -79.4 -6.0 -78.75 L-7.15 -77.65 -7.5 -77.4 -8.15 -77.15 -8.5 -76.75 Q-9.85 -75.6 -11.5 -74.85 L-12.5 -74.4 -13.0 -74.3 -14.0 -74.25 -14.3 -74.35 -17.25 -74.5 -18.0 -73.75 -18.75 -73.0 -19.05 -71.8 Q-19.25 -71.05 -19.75 -70.4 L-19.75 -69.65 -19.75 -68.5 -19.75 -67.75 -19.1 -66.3 -18.25 -64.0 -17.5 -63.25 -16.5 -62.25 Q-13.25 -61.7 -10.5 -63.25 L-9.0 -65.55 -7.75 -67.75 -7.75 -68.15 -7.75 -68.5 -7.45 -68.9 -7.25 -69.25 -7.25 -69.65 -7.25 -70.0 -7.25 -70.4 -7.25 -70.75 -7.45 -71.1 -7.65 -71.55 -7.75 -72.25 -7.6 -72.6 -7.2 -72.95 -6.5 -73.25 -6.0 -73.2 -5.4 -72.95 -5.0 -72.65 -4.7 -71.85 -4.4 -71.6 -4.0 -71.25 -3.9 -70.9 -3.8 -70.5 -3.75 -69.75 -3.75 -69.4 -3.7 -69.0 -3.5 -68.65 -3.25 -68.25 -3.25 -67.9 -3.25 -67.5 -3.25 -66.75 -3.25 -66.4 -3.2 -66.05 -3.0 -65.65 -2.75 -65.25 -2.75 -64.5 -2.75 -63.4 -2.75 -62.65 -2.8 -62.3 -3.0 -61.9 -3.25 -61.5 -3.25 -60.75 -3.25 -59.65 -3.25 -58.9 -3.4 -58.5 -3.6 -58.1 -3.75 -57.75 -3.75 -57.4 -3.75 -57.0 Q-4.6 -54.65 -5.95 -52.6 -7.15 -50.8 -8.0 -48.75 L-8.75 -48.0 -9.75 -47.0 -10.0 -46.9 -10.65 -46.65 -11.0 -46.25 -11.85 -45.5 -12.15 -45.15 -12.5 -44.9 -13.1 -44.6 -13.5 -44.25 Q-13.35 -42.75 -10.45 -42.2 L-9.75 -41.75 -9.75 -41.4 -9.8 -41.0 -9.9 -40.65 -10.05 -40.3 -10.75 -39.5 -11.15 -39.15 -11.5 -38.9 -12.15 -38.65 -12.95 -37.95 -14.15 -37.15 -14.5 -36.75 -15.25 -36.0 -15.65 -35.65 Q-16.3 -35.25 -17.05 -35.0 L-19.0 -34.25 -23.9 -34.0 -24.5 -33.75 -24.6 -33.75 -23.8 -32.25 -23.65 -31.9 -23.25 -31.5 -22.9 -31.15 -22.65 -30.9 -22.5 -30.75 -21.45 -30.05 -20.9 -29.4 -20.85 -29.0 -20.9 -28.65 -21.0 -28.25 -21.3 -28.05 -21.5 -27.9 -22.5 -27.4 -23.5 -27.3 -26.0 -27.25 -28.25 -27.95 -30.25 -28.5 -30.65 -28.9 -30.9 -29.15 Q-38.05 -31.7 -45.7 -32.85 L-46.25 -33.25 -46.25 -33.65 -46.2 -33.95 -45.9 -34.4 -45.5 -34.75 -45.25 -35.0 -45.0 -35.1 -44.5 -35.25 -43.75 -35.5 -43.35 -35.85 -42.0 -36.6 -41.4 -36.9 -41.0 -37.25 -40.65 -37.65 -40.25 -38.0 -39.4 -38.4 -37.9 -39.9 -36.0 -41.75 -35.8 -42.15 -35.75 -42.5 -34.65 -43.65 -33.15 -45.15 -32.85 -45.9 -32.25 -47.4 -31.75 -48.15 -31.75 -48.5 -31.75 -48.9 -31.75 -49.25 -29.45 -51.95 -27.25 -54.0 -27.0 -54.1 -26.8 -54.2 -28.25 -54.65 -29.25 -55.0 -29.6 -55.4 -29.75 -55.75 -29.9 -56.15 -30.25 -56.5 -30.65 -56.9 -30.75 -57.25 -30.9 -57.65 -31.25 -58.0 -31.65 -58.4 -31.75 -58.75 -31.95 -59.1 -32.25 -59.5 -32.25 -59.9 -32.25 -60.25 -32.7 -61.05 -33.05 -61.75 -33.25 -62.15 -33.25 -62.5 -33.25 -62.9 -33.25 -63.25 -33.45 -63.6 -33.75 -64.0 -33.75 -67.0 -33.75 -69.65 -33.75 -70.75 -33.6 -71.1 -33.4 -71.5 -33.25 -71.9 -33.25 -72.25 -33.25 -72.65 -33.25 -73.0 -32.9 -74.2 -32.15 -75.65 -31.75 -76.0 -31.4 -76.4 -31.25 -76.75 -31.15 -77.15 -30.75 -77.5 -30.4 -77.9 -30.25 -78.25 -30.15 -78.65 -29.75 -79.0 -29.25 -79.4 -29.0 -79.75 -28.8 -80.15 -28.75 -80.5 -28.4 -80.9 -28.0 -81.25 -27.65 -81.65 -27.4 -82.0 -27.25 -82.35 -27.0 -82.75 -26.25 -83.5 -25.15 -84.65 -25.5 -84.7 -27.0 -84.75 Q-29.7 -85.6 -32.5 -85.25 L-34.0 -85.75 -34.5 -85.9 Q-37.15 -85.6 -39.65 -84.65 L-40.0 -84.25 -40.25 -84.0 -40.5 -83.9 Q-40.8 -83.75 -41.15 -83.65 L-42.65 -82.1 -43.75 -81.0 -44.05 -80.25 -44.6 -79.1 -44.75 -78.75 -44.75 -78.4 -44.8 -78.0 -44.9 -77.65 -45.0 -77.25 -45.3 -77.0 -45.5 -76.9 -45.8 -76.8 -45.8 -76.75 -46.0 -76.4 -46.4 -76.05 -47.0 -75.75 -48.15 -76.2 -48.75 -76.75 -48.7 -77.1 -48.4 -77.9 -48.25 -78.25 -48.25 -78.65 -48.25 -79.0 -47.95 -79.4 -47.75 -79.75 -47.75 -81.65 -47.75 -83.9 -47.75 -84.25 -48.1 -85.05 Q-48.25 -85.65 -48.75 -86.15 L-48.75 -88.75 -48.75 -91.4 -48.75 -91.75 -48.6 -92.1 -48.4 -92.5 -48.25 -92.9 -48.25 -93.25 -48.25 -93.65 -48.2 -93.95 -47.95 -94.4 -47.75 -94.75 -47.75 -95.15 -47.75 -95.5 -47.7 -95.85 -47.35 -96.65 -47.25 -97.0 -46.5 -97.75 -46.45 -97.8 -46.65 -98.65 -46.25 -99.0 -44.4 -100.85 -43.25 -102.0 -42.4 -102.4 -42.0 -102.75 -41.25 -103.5 -40.9 -103.9 -40.5 -104.1 Q-38.1 -105.15 -35.5 -105.7 L-35.5 -105.75 -32.5 -105.75 -31.9 -105.45 -31.55 -105.1 -31.25 -104.75 -31.3 -104.4 -32.15 -102.8 -32.75 -101.75 -32.75 -101.4 -32.75 -100.05 -32.4 -99.45 Q-31.95 -98.8 -31.25 -98.5 L-31.1 -98.4 -29.0 -97.75 -28.4 -97.5 -25.25 -97.5 -24.5 -97.75 -23.75 -98.0 -23.35 -98.35 -23.0 -98.65 -22.4 -98.9 -22.0 -99.25 -19.75 -101.5 -19.0 -102.25 -18.8 -102.65 -18.4 -103.4 -18.15 -104.15 -17.75 -104.5 -17.4 -104.9 -17.0 -105.25 -16.8 -105.65 -16.75 -106.0 -16.4 -106.4 -16.0 -106.75 -15.8 -107.15 -15.75 -107.5 -15.4 -107.9 -13.9 -109.4 -13.15 -110.15 -12.9 -110.5 -12.55 -111.25 -12.25 -112.0 -11.9 -112.4 -11.5 -112.75 -11.3 -113.15 -11.2 -113.45 -10.9 -113.9 -10.5 -114.1 -9.9 -114.4 -9.5 -114.75 -7.25 -117.0 -6.25 -118.0 -1.85 -119.8 Q1.3 -121.0 4.5 -121.25 L8.0 -121.25 8.6 -120.95 M2.75 -118.0 L0.45 -117.8 -4.25 -116.0 -4.65 -115.65 -5.0 -115.4 -5.65 -115.15 -6.0 -114.75 -8.25 -112.5 -9.4 -111.4 -9.7 -110.95 -9.75 -110.65 -9.75 -110.25 -10.0 -109.9 -12.1 -107.6 -13.25 -106.5 -13.4 -106.15 Q-13.95 -104.75 -14.85 -103.6 L-16.25 -102.0 -16.4 -101.65 -16.75 -100.9 -17.15 -100.15 -17.5 -99.75 -18.4 -99.0 -18.9 -98.65 -19.05 -98.3 -20.15 -97.15 -20.75 -96.5 -21.0 -96.4 -23.5 -95.3 -25.0 -94.75 -29.0 -94.75 -29.75 -95.0 -32.75 -96.0 -33.15 -96.4 -33.95 -97.25 -34.0 -97.25 -34.7 -97.55 -35.15 -97.9 -35.2 -98.25 -35.2 -98.6 -35.25 -98.65 -35.25 -99.0 -35.25 -99.4 -35.25 -100.15 -35.25 -100.5 -35.25 -102.4 -35.35 -102.55 -39.15 -101.65 -39.5 -101.25 -40.25 -100.5 -40.65 -100.15 -41.0 -99.9 -41.65 -99.65 -42.0 -99.25 -42.8 -98.45 -42.9 -98.15 -43.05 -97.8 -43.4 -97.4 -43.75 -97.0 -43.9 -96.65 -44.0 -96.25 -44.4 -95.9 -44.75 -95.5 -45.05 -94.3 -45.65 -92.85 -45.75 -92.5 -45.8 -92.15 -46.05 -91.4 -46.25 -91.0 -46.25 -89.9 -46.25 -88.4 -46.25 -88.0 -46.05 -87.25 -45.5 -86.1 -45.25 -85.75 -45.25 -83.55 -44.6 -84.25 -43.25 -85.5 -43.0 -85.6 -42.4 -85.9 -42.0 -86.25 -41.65 -86.65 -41.25 -87.0 -35.5 -88.75 -34.5 -88.75 -32.5 -88.2 -31.9 -88.0 -30.75 -88.0 -30.0 -88.25 -29.0 -88.25 -27.5 -87.75 -26.9 -87.5 -26.25 -87.5 Q-23.05 -87.9 -20.5 -89.25 L-19.45 -88.85 -18.75 -88.25 -18.75 -87.9 -18.8 -87.5 -18.9 -87.15 Q-20.65 -84.95 -22.75 -82.95 L-25.0 -80.75 -25.25 -80.35 -25.4 -80.0 -25.65 -79.65 -26.0 -79.25 -26.4 -78.9 -26.75 -78.5 -26.9 -78.15 -27.0 -77.75 -27.4 -77.4 -27.75 -77.0 -27.9 -76.65 -28.0 -76.25 -28.4 -75.9 -28.75 -75.5 -28.9 -75.15 -29.0 -74.75 -29.4 -74.4 -29.75 -74.0 -30.05 -73.25 -30.6 -72.1 -30.75 -71.75 -30.75 -71.4 -30.75 -71.0 -30.75 -70.65 -30.8 -70.25 -31.0 -69.9 -31.25 -69.5 -31.25 -68.0 -31.25 -66.15 -31.25 -65.75 -31.1 -65.4 -30.9 -65.0 -30.75 -64.65 -30.75 -64.25 -30.75 -63.9 -29.95 -61.55 -28.9 -59.35 -28.75 -59.0 -28.4 -58.65 -28.0 -58.25 -27.9 -57.9 -27.75 -57.5 -23.4 -55.5 -22.0 -54.65 -21.8 -54.25 -21.75 -53.9 -21.75 -53.15 -21.75 -52.75 -22.05 -52.4 -22.4 -52.05 -23.0 -51.75 -23.5 -51.8 -24.25 -52.05 -24.6 -52.35 -25.15 -52.15 -27.0 -50.25 -29.0 -48.4 -29.2 -48.0 -29.25 -47.65 -29.25 -47.25 -29.5 -46.9 -29.75 -46.5 -29.75 -46.15 -29.75 -45.75 -30.2 -45.0 -30.9 -43.5 -31.15 -43.15 -31.55 -42.9 -32.15 -42.65 Q-32.9 -41.3 -33.9 -40.1 L-36.25 -37.5 -36.5 -37.4 -37.15 -37.15 -37.9 -36.4 -39.25 -35.0 -39.5 -34.9 -40.15 -34.65 Q-35.15 -33.85 -29.4 -31.45 L-28.9 -31.15 -27.5 -30.75 -25.9 -30.4 Q-26.3 -31.4 -27.05 -32.4 L-28.35 -34.75 -28.75 -35.5 -28.75 -35.9 -28.75 -36.25 -28.75 -36.65 -28.75 -37.0 -28.35 -37.35 -28.0 -37.6 -27.5 -37.75 -26.9 -37.5 -26.6 -37.05 -26.4 -36.95 -25.9 -36.65 -19.25 -37.0 -18.4 -37.4 -17.4 -37.9 -17.0 -38.25 -16.25 -39.0 -15.9 -39.4 -15.5 -39.6 -14.9 -39.95 -14.5 -40.25 -14.35 -40.5 -15.1 -41.4 -15.4 -41.65 -15.5 -41.75 -16.2 -42.05 -16.65 -42.4 -17.0 -42.75 -17.2 -43.15 -17.25 -43.5 -17.25 -43.9 -17.25 -44.25 -17.25 -44.65 -17.25 -45.0 -16.85 -45.35 -16.5 -45.6 -15.9 -45.9 -15.5 -46.25 -15.15 -46.65 -14.75 -47.0 -13.9 -47.4 -13.5 -47.75 -12.75 -48.5 -12.4 -48.9 Q-11.6 -49.25 -11.0 -49.85 L-9.9 -50.9 -9.75 -51.25 -9.65 -51.65 -9.25 -52.0 -8.9 -52.4 -8.8 -52.75 -8.75 -53.15 -8.75 -53.5 -8.4 -53.9 -8.0 -54.25 -6.9 -56.95 -5.75 -59.9 -5.75 -60.65 -5.75 -61.75 -5.75 -62.15 -5.7 -62.45 -5.45 -62.9 -5.25 -63.25 -5.25 -63.65 -5.25 -64.0 -5.3 -64.35 -5.5 -64.75 -5.75 -65.15 -5.75 -65.45 -5.9 -65.15 Q-6.2 -64.35 -6.65 -63.65 L-8.9 -61.4 -10.25 -60.0 -12.35 -59.45 -13.0 -59.25 -13.5 -59.3 -14.25 -59.5 -14.9 -59.5 -15.5 -59.25 -16.5 -59.25 -17.25 -59.5 -17.65 -59.9 -17.9 -60.15 -18.0 -60.25 -18.75 -60.5 -19.15 -60.9 -19.5 -61.25 -19.9 -61.65 -20.2 -62.05 -20.3 -62.35 -20.5 -62.75 -20.9 -63.15 -21.25 -63.5 -21.25 -63.9 -21.25 -64.25 -21.45 -64.6 -21.75 -65.0 -21.75 -65.4 -21.75 -65.75 -21.95 -66.1 -22.25 -66.5 -22.25 -68.4 -22.25 -70.65 -22.25 -71.0 -22.2 -71.35 -22.0 -71.75 -21.75 -72.15 -21.75 -72.5 -21.75 -72.9 -21.75 -73.25 -21.6 -73.6 -21.4 -74.0 -21.0 -74.75 -19.9 -75.85 -18.75 -77.0 -13.0 -77.75 -12.4 -77.55 -11.25 -78.0 -10.8 -78.4 -10.5 -78.75 -10.15 -79.15 -9.75 -79.45 -8.9 -79.9 -8.5 -80.25 -7.75 -81.0 -7.0 -81.75 -6.8 -82.15 -6.75 -82.5 -6.4 -82.9 -6.0 -83.25 -5.65 -83.65 -5.4 -84.0 -5.05 -84.75 -4.75 -85.5 -4.4 -85.9 -4.0 -86.25 -3.8 -86.65 -3.75 -87.0 -3.75 -87.4 -3.55 -87.75 -3.2 -88.5 -2.75 -89.25 -2.75 -89.65 -2.75 -90.0 -2.45 -90.4 -2.25 -90.75 -2.25 -91.15 -2.25 -92.25 -2.25 -93.75 -2.45 -94.1 -2.75 -94.5 -2.75 -94.9 -2.75 -95.25 -2.95 -95.6 -3.25 -96.0 -3.25 -96.4 -3.25 -96.75 -3.45 -97.1 -3.75 -97.5 -4.5 -98.25 -4.7 -98.65 -4.75 -99.0 -4.75 -99.4 -5.0 -99.75 -5.25 -100.15 -5.25 -100.5 -5.25 -100.9 -5.5 -101.25 -5.75 -101.65 -5.75 -102.0 -5.75 -102.4 -6.0 -102.75 -6.25 -103.15 -6.25 -103.5 -6.25 -104.25 -6.25 -105.4 -6.25 -105.75 -6.1 -106.1 -5.9 -106.5 -5.75 -106.9 -5.75 -107.25 -5.75 -107.65 -5.75 -108.0 -5.65 -108.3 -5.0 -109.4 Q-4.75 -109.95 -4.65 -110.65 L-4.25 -111.0 -3.9 -111.4 -3.5 -111.75 -3.3 -112.15 -3.25 -112.5 -2.9 -112.9 -2.15 -113.65 -1.4 -114.4 -1.0 -114.6 -0.4 -114.9 -0.25 -115.25 -0.15 -115.65 0.25 -116.0 0.6 -116.4 1.25 -117.0 1.5 -117.1 2.1 -117.4 2.5 -117.75 2.75 -118.0 M-61.6 -99.5 L-61.1 -99.5 -61.1 -99.55 -60.6 -99.45 -60.05 -99.1 -59.7 -98.75 -59.55 -98.35 -59.55 -98.0 -59.6 -97.6 -58.85 -95.65 -58.1 -93.6 -58.15 -93.25 -58.2 -92.9 -57.9 -92.5 -57.55 -92.05 -57.35 -91.3 -57.1 -90.4 -57.05 -90.1 -57.0 -88.5 -56.5 -86.6 -56.55 -86.25 -56.6 -85.85 -56.7 -85.1 -56.75 -84.75 -56.85 -84.4 -57.0 -84.0 -57.05 -83.65 -56.95 -83.3 -57.15 -82.55 -57.5 -81.8 -57.7 -81.45 -57.75 -81.1 -57.8 -80.75 -57.9 -80.0 -57.95 -79.65 -57.95 -79.25 -57.8 -78.85 -57.6 -78.45 -57.65 -78.1 -57.65 -77.75 -57.4 -77.3 -57.15 -77.0 -57.05 -76.9 -56.5 -76.5 -56.2 -76.1 -56.0 -75.7 -55.9 -75.35 -55.55 -74.9 -55.25 -74.5 -55.05 -74.2 -54.9 -74.1 -54.4 -73.65 -53.8 -72.9 -53.9 -72.55 -54.1 -72.2 -54.7 -71.65 -56.7 -71.75 -62.2 -74.25 -64.15 -74.5 -64.6 -74.2 -65.0 -74.0 -65.65 -73.85 -66.05 -73.5 -66.5 -73.2 -66.9 -72.85 -67.1 -72.55 -67.25 -72.15 -67.7 -71.85 -68.1 -71.5 -68.15 -71.15 -68.2 -70.75 -68.75 -70.05 -69.2 -69.4 -69.4 -69.05 -69.45 -68.65 -69.5 -68.3 -69.55 -67.9 -69.6 -67.55 -69.3 -66.75 -69.0 -65.9 -68.85 -65.55 -68.9 -65.2 -69.0 -64.8 -69.25 -64.5 -69.7 -64.2 -70.35 -64.0 -71.05 -64.4 -71.3 -64.55 -72.0 -64.95 -73.25 -66.7 -74.25 -67.95 -74.8 -69.05 -75.25 -70.7 -75.2 -71.1 -75.15 -71.45 -75.15 -71.8 -75.3 -72.2 -75.5 -72.65 -75.2 -74.85 -74.9 -77.1 -74.85 -77.45 -74.75 -77.8 -74.5 -78.15 -74.2 -78.5 -74.15 -78.85 -74.1 -79.2 -73.95 -79.6 -73.95 -80.0 -74.0 -80.35 -73.9 -80.75 -73.65 -81.05 -73.25 -81.4 -72.95 -81.7 -71.95 -83.4 -70.55 -85.2 -67.2 -87.7 -65.5 -89.05 -64.3 -91.2 -62.65 -93.6 -62.5 -94.7 -62.3 -96.2 -62.25 -96.6 -62.35 -96.95 -62.5 -97.4 -62.6 -97.75 -62.55 -98.15 -62.5 -98.5 -62.4 -98.85 -62.15 -99.2 -61.9 -99.4 -61.6 -99.5 M-85.25 -81.4 L-85.25 -81.75 -85.15 -82.15 -84.7 -82.4 -84.05 -82.7 -84.0 -82.75 -83.35 -82.55 -81.5 -82.2 -80.9 -82.0 -79.8 -80.5 -78.1 -77.2 -77.75 -76.0 -77.75 -75.65 -77.75 -75.25 -77.75 -74.9 -77.75 -74.5 -78.05 -73.75 -78.8 -71.5 Q-79.05 -70.5 -79.65 -69.65 L-80.0 -69.25 -80.25 -69.0 -80.5 -68.9 -81.1 -68.6 -81.5 -68.4 -82.0 -68.3 -83.5 -68.25 -84.25 -68.55 -84.55 -68.7 -85.65 -69.4 -85.75 -69.75 -85.75 -70.15 -85.75 -71.65 -85.75 -73.15 -85.7 -73.45 -85.45 -73.9 -84.9 -75.4 -84.25 -76.9 -84.25 -77.25 -84.25 -77.65 -84.25 -78.0 -84.25 -78.75 -84.4 -79.1 -84.7 -79.55 -85.05 -80.25 -85.25 -80.65 -85.25 -81.0 -85.25 -81.4 M-81.75 -78.25 L-81.75 -76.75 -81.75 -75.65 -82.05 -74.9 -82.25 -74.5 -82.25 -74.15 -82.25 -73.75 Q-82.8 -73.1 -83.0 -72.25 L-83.25 -71.5 Q-82.8 -70.65 -82.05 -71.3 L-81.65 -71.65 -81.35 -72.4 -81.25 -73.15 -80.9 -73.9 -80.75 -74.25 -80.75 -74.65 -80.75 -75.0 -80.65 -75.4 -80.95 -77.3 Q-81.15 -78.05 -81.75 -78.3 L-81.75 -78.25 M-105.5 -12.75 L-104.95 -12.45 -104.25 -11.75 -104.25 -11.4 -104.3 -11.0 -104.5 -10.25 -104.75 -10.05 -105.0 -9.9 -105.65 -9.65 -105.8 -9.25 -106.0 -8.9 -106.25 -8.5 -106.25 -8.15 -106.25 -7.75 -106.5 -7.4 -106.75 -7.0 -106.75 -6.65 -106.75 -6.25 -106.75 -5.9 -106.7 -5.55 -106.3 -4.75 -106.25 -4.4 -106.3 -4.0 -106.4 -3.65 -106.75 -2.9 -106.75 -2.5 -106.8 -1.75 -106.9 -1.0 -107.15 -0.65 -107.5 -0.4 -108.0 -0.25 -109.5 -0.25 -110.25 -0.5 -110.65 -0.9 -111.0 -1.25 -111.4 -1.65 -111.7 -2.05 -111.75 -2.4 -111.75 -2.75 -111.9 -3.1 -112.25 -3.5 -112.25 -4.25 -112.25 -5.4 -112.25 -6.15 -112.2 -6.45 -111.9 -6.9 -111.75 -7.25 -111.75 -7.65 -111.75 -8.0 -111.3 -8.8 -110.75 -9.85 -110.5 -10.25 -109.75 -11.0 -109.0 -11.65 -108.5 -11.7 -107.75 -11.75 Q-107.05 -12.05 -106.4 -12.4 L-105.5 -12.75 M-109.5 -5.9 Q-109.9 -5.4 -109.8 -4.75 -109.65 -4.05 -109.25 -4.25 L-109.2 -5.4 Q-109.15 -5.9 -109.4 -5.95 L-109.5 -5.9 M-83.2 -11.6 L-83.05 -11.8 -82.7 -12.2 -82.05 -12.35 -81.65 -12.4 -80.95 -12.5 -80.45 -12.35 -80.0 -12.25 -79.3 -12.25 -78.75 -12.2 -78.35 -12.05 -77.95 -11.85 -77.7 -11.6 -77.5 -11.25 -77.3 -10.95 -77.05 -10.65 -76.95 -9.25 Q-76.9 -8.35 -77.1 -7.4 L-77.2 -6.9 -77.1 -6.05 -77.05 -5.2 -76.95 -4.35 -76.75 -4.05 -76.55 -3.7 -76.55 -3.3 -76.55 -2.8 -76.35 -2.55 -76.2 -2.2 -76.1 -1.75 -76.25 -1.25 -76.55 -0.65 -77.3 -0.5 -77.9 -0.55 -79.15 -0.95 -80.25 -1.6 -80.65 -1.8 -81.75 -3.35 -83.2 -5.5 -83.85 -6.45 -84.0 -6.7 -84.0 -7.25 -84.1 -7.6 -84.25 -8.0 -84.1 -8.5 -83.95 -9.05 -83.85 -9.45 -83.45 -9.8 -83.05 -10.25 -83.05 -10.45 -83.25 -10.8 -83.25 -11.25 -83.2 -11.6 M-81.7 -9.45 L-81.5 -9.1 -81.2 -7.9 -81.0 -6.7 -80.6 -6.1 -80.15 -5.45 -80.1 -5.4 -80.0 -6.3 -80.05 -7.05 -79.8 -8.6 -79.8 -9.05 Q-80.2 -9.9 -81.3 -9.95 L-81.95 -9.75 -81.9 -9.75 -81.7 -9.45 M-59.8 -88.3 L-59.75 -88.7 -59.7 -89.05 -60.05 -91.05 Q-60.25 -91.95 -60.9 -91.7 L-62.0 -89.15 -63.4 -87.15 Q-64.85 -86.0 -66.35 -84.95 L-67.4 -84.25 -68.05 -83.65 -68.85 -82.95 -69.55 -81.9 -70.4 -80.9 -70.4 -80.55 -70.45 -80.15 -70.75 -79.8 -71.05 -79.45 -71.1 -79.1 -71.15 -78.7 -71.2 -78.35 -72.05 -76.95 -72.55 -75.85 -72.65 -75.15 -72.75 -74.4 -72.8 -74.05 -72.65 -73.25 -72.5 -72.5 -72.55 -71.3 -72.05 -70.15 -71.75 -70.45 -71.15 -71.15 -71.1 -71.55 -71.05 -71.9 -70.65 -72.25 -70.45 -72.55 -70.4 -72.95 -70.35 -73.3 -69.55 -73.95 -69.15 -74.3 -68.85 -74.6 -68.65 -74.95 -68.35 -75.3 -67.5 -75.95 -67.1 -76.3 -65.6 -76.8 -64.55 -77.25 -60.3 -77.0 -60.3 -77.4 -60.45 -77.8 -60.65 -78.25 -60.35 -80.8 -59.85 -83.4 -59.85 -84.15 -59.75 -84.9 -59.7 -85.25 -59.5 -85.6 -59.25 -85.95 -59.6 -87.1 -59.8 -88.3 M-55.5 -25.75 L-53.5 -25.75 -52.0 -25.25 -49.0 -24.25 -48.4 -24.0 -48.05 -23.6 -47.8 -23.25 -47.65 -22.9 -47.25 -22.5 -46.5 -21.75 -45.75 -21.0 -45.0 -20.25 -44.9 -19.9 -44.75 -19.5 -44.5 -19.3 -43.9 -19.0 -43.55 -18.6 -43.3 -18.25 -43.15 -17.9 -42.75 -17.5 -42.4 -17.15 -42.0 -16.75 -41.9 -16.4 -41.75 -16.0 -41.4 -15.65 -41.0 -15.25 -40.65 -14.9 -40.4 -14.5 -40.05 -13.75 -39.7 -13.05 -39.45 -12.55 -39.35 -12.4 -38.25 -11.0 -37.4 -10.45 -36.65 -9.9 Q-33.15 -9.0 -29.9 -7.5 -29.15 -7.15 -28.9 -6.4 L-28.85 -6.0 -28.9 -5.65 -29.05 -5.3 -29.25 -5.0 -30.0 -4.8 -31.25 -4.5 -31.65 -4.15 -32.0 -3.9 -33.65 -3.1 -35.0 -2.4 -37.7 -2.25 -37.55 -1.75 -37.4 -1.4 -37.3 -1.0 -37.3 -0.9 -37.1 -0.25 -36.3 2.0 -36.25 2.35 -35.65 3.15 -35.0 4.25 Q-30.7 7.25 -25.4 7.5 L-22.75 7.5 -18.9 6.6 -17.0 4.75 -15.5 3.25 -14.4 0.55 -13.4 -2.0 -13.25 -2.4 -13.25 -2.75 -13.25 -3.15 -13.25 -3.5 -13.3 -3.85 -13.5 -4.25 -13.75 -4.65 -13.75 -5.75 -13.75 -7.25 -13.75 -8.0 -13.35 -8.35 -13.0 -8.6 -12.5 -8.75 -12.0 -8.7 -11.4 -8.45 -11.0 -8.15 Q-10.6 -7.65 -10.7 -7.0 L-10.75 -5.5 -10.75 -4.75 -10.6 -4.4 -10.4 -4.0 -10.25 -3.65 -10.25 -0.65 -10.25 2.35 -10.25 3.1 -10.2 3.45 -10.0 3.85 -9.75 4.25 -9.75 5.0 -9.75 5.75 -9.75 6.5 -10.4 8.35 -11.2 10.65 -11.25 11.0 -11.25 11.35 -11.35 11.7 -11.75 12.5 -11.75 12.85 -11.75 13.25 -11.8 13.6 -11.9 14.0 -15.05 17.45 Q-15.95 18.35 -17.15 18.85 L-17.5 19.25 -17.75 19.5 -18.0 19.6 -18.5 19.75 -19.25 20.0 Q-22.65 22.05 -26.55 23.15 L-29.0 23.75 -32.5 23.75 Q-41.75 22.35 -50.05 18.3 L-50.75 18.0 -53.4 18.0 -54.15 18.4 -54.75 18.75 -55.0 19.1 -55.3 19.5 -55.65 19.85 -55.7 20.6 -55.75 21.75 -55.75 22.1 -55.5 22.85 -55.1 23.6 -54.75 24.0 Q-53.7 24.7 -52.4 25.05 L-50.9 25.5 -49.75 25.5 -46.9 24.6 -46.5 24.35 -45.45 24.65 -44.75 25.25 -44.8 26.0 -45.25 27.15 -45.65 27.85 -46.0 28.1 -46.65 28.35 -47.4 29.1 -48.15 29.85 Q-49.15 30.5 -50.35 30.6 L-51.0 30.75 -58.5 30.75 -62.3 29.05 -63.75 28.5 -64.15 28.1 -64.4 27.85 -64.5 27.75 -65.25 27.5 -65.65 27.1 -65.9 26.85 -66.0 26.75 -66.75 26.5 -67.9 25.35 -69.0 24.25 -69.25 23.85 -69.4 23.5 -69.75 22.75 -69.75 22.7 -70.25 22.5 -71.0 21.75 -71.1 21.65 -71.15 21.6 -72.15 20.6 -72.45 19.05 -73.1 17.6 -73.25 17.25 -73.25 13.85 -73.25 10.1 -73.25 9.35 -73.2 9.05 -72.95 8.6 -72.75 8.25 -72.75 7.85 -72.75 7.5 -72.75 7.1 -72.75 6.75 -71.85 4.5 -70.8 2.25 -70.65 1.85 -69.5 0.75 -68.4 -0.4 -68.25 -0.75 -68.15 -1.15 -67.7 -1.4 -67.05 -1.7 -67.0 -1.75 -65.95 -1.35 -65.35 -0.9 -65.25 -1.0 -65.0 -1.1 -64.5 -1.25 -63.9 -1.0 Q-63.1 -0.2 -62.85 0.9 L-62.0 2.75 -61.65 3.1 -61.25 3.5 -61.0 3.75 Q-59.6 4.55 -58.0 4.8 L-57.4 5.0 -56.25 5.0 -55.5 4.75 -48.0 4.75 -47.4 5.0 -46.5 4.8 -46.65 4.6 -46.8 2.0 -46.75 -1.0 -46.7 -1.35 -46.5 -1.75 -46.25 -2.15 -46.25 -2.5 -46.25 -2.9 -46.15 -3.65 -45.7 -3.9 -45.25 -4.1 -45.25 -4.65 -45.2 -5.75 -45.15 -6.15 -44.75 -6.35 -44.75 -6.4 -44.75 -6.75 -44.75 -7.15 -44.95 -7.45 Q-45.35 -8.0 -45.4 -8.6 L-45.55 -9.4 Q-45.75 -10.1 -46.25 -10.5 L-46.25 -10.9 -46.25 -11.25 -46.45 -11.6 -46.75 -12.0 -47.15 -12.4 -47.3 -12.75 -47.85 -13.85 -48.15 -14.65 Q-48.45 -15.3 -49.0 -15.75 L-49.2 -16.15 -49.25 -16.5 -49.25 -16.9 -49.55 -17.25 -49.9 -17.65 -50.25 -18.0 -50.3 -18.35 -50.5 -18.75 -50.9 -19.15 -51.25 -19.5 -51.3 -19.85 -51.5 -20.25 -51.9 -20.65 -52.25 -21.0 -52.65 -21.4 -52.9 -21.65 -53.0 -21.75 -54.75 -22.55 Q-55.25 -22.75 -55.75 -23.05 L-56.15 -23.4 -56.5 -23.75 -56.7 -24.15 -56.75 -24.5 -56.7 -24.85 -56.5 -25.25 -56.25 -25.5 -56.0 -25.6 -55.5 -25.7 -55.5 -25.75 M-46.75 -17.9 Q-46.55 -16.8 -45.9 -15.9 L-43.9 -12.7 -42.75 -10.0 -42.75 -9.65 -42.75 -9.25 -42.6 -8.9 -42.4 -8.5 -42.25 -8.15 -42.25 -7.75 -42.25 -7.4 -42.25 -7.0 -42.25 -6.65 -42.25 -6.25 -42.25 -5.9 -42.2 -5.55 -42.0 -5.15 -41.75 -4.75 -41.75 -4.4 -41.75 -4.0 -41.75 -3.65 -41.75 -3.25 -41.75 -2.9 -41.75 -2.5 -41.75 -2.45 -41.75 -2.15 -41.8 -1.8 -42.0 -1.4 -42.25 -1.0 -42.25 -0.65 -42.25 -0.25 -42.25 0.1 -42.6 0.9 -42.7 1.2 -43.25 0.4 -43.25 0.6 -43.25 3.25 -43.55 3.55 -43.9 3.85 -43.5 4.25 -43.15 4.6 Q-42.6 5.5 -42.2 6.45 -41.8 7.55 -41.75 8.75 L-42.05 9.05 -43.0 9.75 -44.25 9.4 -45.25 9.0 -45.65 8.6 -45.9 8.35 Q-46.85 7.8 -48.0 7.65 L-48.75 7.5 -54.9 7.5 -55.5 7.75 -57.5 7.75 Q-60.3 7.3 -62.75 6.0 L-63.15 5.6 -63.5 5.25 -63.9 4.85 -64.2 4.45 -64.3 4.15 -64.5 3.75 -64.9 3.35 -65.25 3.0 -65.25 2.6 -65.25 2.25 -65.25 1.85 -65.4 1.5 -65.6 1.1 -65.75 0.75 -65.75 0.45 -66.65 1.85 -67.4 2.6 -68.15 3.35 -69.2 5.65 -70.15 7.85 -70.25 8.25 -70.25 8.6 -70.25 9.0 -70.25 9.35 -70.3 9.7 -70.5 10.1 -70.75 10.5 -70.75 12.75 -70.75 15.0 -70.75 15.75 -70.4 16.9 -69.85 18.4 -69.75 18.75 -69.6 19.1 -69.4 19.35 -68.9 19.55 -68.4 19.85 -67.85 20.65 -67.25 21.25 -67.25 21.6 -67.25 21.75 -66.25 23.25 -65.65 23.6 -64.05 25.0 Q-63.2 25.5 -62.5 26.25 -60.85 26.75 -59.4 27.5 L-58.4 28.0 -52.25 28.0 -55.5 26.75 -56.25 26.5 -56.65 26.1 -57.0 25.75 -57.4 25.35 -57.7 24.95 -57.85 24.65 -58.25 23.85 -58.25 22.0 -58.25 19.75 -58.25 19.35 -58.2 19.05 -57.95 18.6 -57.65 17.85 -56.9 17.1 -55.75 16.0 -54.25 15.5 -53.5 15.25 -50.0 15.25 Q-47.15 16.25 -44.4 17.55 L-43.5 18.25 Q-38.1 20.25 -32.4 21.0 L-29.75 21.0 Q-25.15 20.2 -20.9 18.1 L-20.5 17.75 -20.25 17.5 -20.0 17.4 -19.5 17.25 -18.75 17.0 -18.35 16.65 -18.0 16.35 -17.4 16.1 -17.05 15.75 -16.8 15.35 -16.75 15.0 -15.65 13.9 -14.5 12.75 -14.3 12.35 -14.25 12.0 -14.25 11.6 -14.0 11.25 -13.75 10.85 -13.75 10.5 -13.75 10.1 -13.75 9.75 -12.95 7.45 -12.35 5.2 Q-12.3 5.05 -12.4 4.85 -13.85 4.95 -15.3 6.95 -16.25 8.2 -17.65 8.85 L-18.0 9.25 -18.25 9.5 -22.5 10.25 -25.5 10.25 Q-30.15 9.95 -34.25 8.0 L-34.65 7.6 -34.9 7.35 -35.5 7.2 -36.25 7.0 -36.65 6.6 -37.0 6.25 -37.4 5.85 -37.7 5.45 -37.8 5.15 -38.0 4.75 -38.4 4.35 -38.75 4.0 -38.75 3.6 -38.75 3.25 -38.75 2.85 -39.35 1.4 Q-39.6 0.3 -40.25 -0.5 L-40.25 -1.25 -40.25 -1.45 -40.25 -1.5 -40.25 -1.9 -40.25 -2.25 -40.25 -2.4 -40.25 -2.65 -40.25 -3.0 -40.25 -3.15 -40.25 -3.2 -40.5 -3.45 -38.25 -5.1 -37.75 -5.15 -37.75 -5.0 -36.25 -5.0 -35.9 -5.1 Q-30.8 -2.35 -35.25 -5.1 L-35.45 -5.25 -34.75 -5.55 -33.9 -5.9 -37.75 -7.5 -38.3 -7.75 -38.25 -7.4 -38.25 -7.0 -40.5 -8.55 -41.3 -9.35 -41.5 -9.75 -41.75 -10.15 -41.75 -10.5 -41.75 -10.9 -42.0 -11.25 -42.25 -11.65 -42.4 -12.0 -42.55 -12.3 -42.65 -12.4 -43.75 -13.5 -43.75 -13.9 -43.75 -14.25 -43.9 -14.65 -44.25 -15.0 -44.65 -15.4 -45.0 -15.75 -45.25 -16.15 -45.4 -16.5 -45.65 -16.9 -46.0 -17.25 -46.4 -17.6 -46.75 -17.9 M-76.75 24.25 L-76.75 24.6 -76.75 25.0 -76.45 26.15 -75.6 28.3 -75.25 29.5 -75.25 30.25 -75.25 32.1 -75.25 34.0 -75.4 34.35 -75.55 34.75 -75.75 35.1 -75.75 35.5 -75.75 35.85 -75.75 36.25 -75.75 36.6 -75.9 37.0 -76.1 37.4 -76.25 37.75 -76.25 38.1 -76.3 38.5 -76.4 38.85 -76.55 39.2 -76.9 39.6 -77.25 40.0 -77.4 40.35 -77.5 40.75 -78.25 41.5 -80.15 43.35 -80.75 44.0 -81.65 44.35 -84.1 45.4 -84.5 45.6 -89.0 45.75 -91.0 45.3 Q-92.05 45.15 -92.25 44.25 L-92.25 43.85 -92.2 43.55 -91.9 43.1 -91.5 42.75 -91.25 42.5 -91.0 42.35 -89.4 41.6 -88.4 41.1 -88.0 40.75 -87.25 40.0 -86.5 39.25 -86.3 38.85 -86.25 38.5 -86.25 38.1 -86.0 37.75 -85.85 37.35 Q-85.8 37.2 -85.9 37.0 L-86.15 36.65 -86.5 36.25 -86.9 35.85 -87.75 35.5 -88.15 35.1 -88.4 34.85 -89.0 34.7 -90.7 33.9 -91.15 33.6 -91.5 33.2 -91.7 32.85 -91.75 32.5 -91.75 32.1 -92.0 31.75 -92.25 31.35 -92.25 31.0 -92.25 30.6 -92.25 30.25 -92.15 29.85 -91.7 29.55 -91.0 29.25 -90.5 29.3 Q-90.2 29.35 -89.9 29.55 L-89.4 29.85 -89.15 30.0 -86.25 30.0 -85.4 29.6 -84.0 28.9 -83.4 28.6 -83.0 28.2 -82.8 27.85 -82.75 27.5 -82.4 27.1 -82.05 26.75 -81.75 26.35 -81.9 26.0 -82.1 25.6 -82.25 25.25 -82.25 24.85 -82.25 24.5 -82.25 24.1 -82.25 23.75 -82.1 23.35 -81.75 22.6 -81.0 21.9 -80.5 21.75 -79.0 21.75 -78.4 22.05 -77.55 22.75 -76.9 23.5 -76.8 23.85 -76.75 24.25 M-79.15 26.65 L-79.25 26.6 -79.25 27.0 -79.25 27.35 -79.25 27.75 -80.15 28.85 -80.5 29.25 -80.9 30.0 -81.15 30.35 -81.5 30.75 -81.75 31.0 -84.6 32.4 -86.4 33.0 Q-84.6 33.75 -83.55 35.4 L-82.75 36.85 -83.05 37.6 -83.25 38.0 -83.25 38.35 -83.25 38.75 -83.5 39.1 -83.75 39.5 -83.75 39.85 -83.8 40.2 -84.0 40.6 -84.7 41.3 -85.25 41.75 -85.8 42.45 -86.15 42.85 Q-85.8 43.1 -83.95 42.35 L-82.75 42.0 -80.5 39.75 -79.4 38.6 -78.95 37.05 -78.45 35.95 -78.25 35.6 -78.25 35.25 -78.25 34.85 -78.25 34.5 -77.95 33.75 -77.75 33.35 -77.75 32.25 -77.75 31.1 -77.75 30.75 -77.95 30.4 -78.25 30.0 -78.25 29.6 -78.25 29.25 -78.4 28.9 -78.75 28.5 -78.85 27.4 -79.15 26.65 M-80.75 66.25 L-80.75 66.6 -80.75 67.0 -80.75 67.75 -80.75 68.1 -80.7 68.45 -80.5 68.85 -80.25 69.25 -80.25 70.0 -80.25 70.75 -80.25 71.5 -80.25 71.85 -81.0 73.75 -82.2 75.65 -82.65 76.35 -83.95 77.35 -86.0 78.25 -89.5 78.25 -90.2 77.95 -90.65 77.6 -91.2 76.85 -91.6 76.1 -91.75 75.75 -91.75 75.0 -91.75 74.25 -91.75 73.5 -91.5 72.75 -90.95 71.55 -90.65 70.85 -90.25 70.5 -89.9 70.1 -89.75 69.75 -89.65 69.35 -88.15 67.85 -87.25 67.0 -87.25 66.75 -86.9 65.6 -86.25 64.1 -86.35 62.6 -86.35 62.4 -87.25 61.5 -87.25 61.1 -87.3 60.4 -87.5 59.6 -88.0 59.25 -89.05 58.55 -89.25 58.25 -89.25 57.85 -89.2 57.55 -88.9 57.1 -88.5 56.75 -88.25 56.55 -87.55 56.3 -87.5 56.25 Q-86.0 57.0 -84.8 58.3 L-83.0 60.25 -82.35 61.8 Q-81.8 62.65 -81.55 63.6 L-81.25 64.35 -81.25 64.75 -81.25 65.1 -81.2 65.45 -81.0 65.85 -80.75 66.25 M-89.8 2.9 L-88.05 3.85 -87.65 4.35 -86.55 5.5 -86.25 6.0 -86.15 6.55 -86.15 6.9 -85.9 7.5 -85.65 8.1 -85.45 8.6 -85.3 9.05 -85.3 9.55 -85.3 9.9 -85.35 10.35 -85.35 10.75 -85.4 11.15 -85.6 11.45 -85.75 11.8 -85.8 12.2 -85.8 12.65 -85.85 13.0 -86.0 13.35 -86.2 13.7 -86.35 14.05 -86.55 14.35 -86.75 14.65 -87.1 14.9 -87.5 15.15 -87.8 15.35 -88.1 15.65 -88.6 15.8 -89.1 16.0 -89.6 16.1 -90.05 16.15 -90.5 16.0 -92.75 14.9 -94.3 13.55 -96.35 11.6 -96.55 11.05 -96.7 10.55 -96.85 10.05 -97.45 9.35 -99.35 8.3 -100.15 8.35 -100.6 8.35 -101.05 8.2 -102.4 7.55 -102.9 6.95 -103.15 6.45 -103.0 6.1 -102.85 5.7 -102.7 5.4 -102.5 5.15 -101.8 4.6 -101.05 4.15 -100.5 3.6 -100.0 3.45 -98.45 3.0 -96.6 2.4 -96.3 2.4 -95.7 2.45 -95.15 2.35 -94.65 2.15 -94.15 2.05 -92.15 2.4 -89.85 2.95 -89.8 2.9 M-90.75 6.8 L-91.35 6.35 -91.5 5.8 -91.65 5.5 Q-91.7 5.4 -91.8 5.4 L-92.1 5.35 -93.9 5.25 -95.6 5.05 -96.1 5.2 -97.15 5.55 -97.65 5.65 -95.5 7.25 -94.5 8.7 Q-94.2 9.15 -94.05 9.7 L-94.0 10.0 -92.5 11.4 -91.4 12.5 -89.95 13.3 -89.45 13.1 -89.15 12.85 -88.85 12.55 Q-88.3 12.3 -88.3 11.5 L-88.35 10.8 -88.15 9.55 -88.25 9.1 -88.6 8.05 -88.75 7.55 -89.0 7.1 -89.45 6.75 -89.85 6.95 -90.3 7.0 -90.75 6.8 M-161.65 28.6 L-161.3 29.4 -161.0 30.05 Q-160.7 30.6 -160.75 31.25 L-160.75 31.6 -161.2 32.3 -162.4 33.45 -163.5 34.1 -164.0 34.2 -165.5 34.25 -166.25 33.95 -167.25 33.45 -167.65 33.1 -168.0 32.75 -168.2 32.35 -168.25 32.0 -168.25 31.6 -168.25 30.85 -168.25 30.1 -168.25 29.35 -168.2 29.05 -167.9 28.6 -167.75 28.25 -167.65 27.85 -167.2 27.6 -166.55 27.3 -166.5 27.25 -165.5 27.25 -164.9 27.5 -164.25 27.5 -163.5 27.25 -162.9 27.55 -162.0 28.25 -161.65 28.6 M-131.5 56.25 L-130.45 56.65 -129.75 57.25 -129.75 57.6 -129.75 58.0 -129.75 58.35 -129.55 58.75 -129.4 59.1 -129.25 59.5 -128.5 60.25 -127.5 61.25 Q-124.15 61.95 -121.65 64.15 L-120.5 65.25 -120.4 65.6 -120.25 65.95 -119.75 66.75 -119.75 67.1 -119.75 67.5 -119.75 68.25 -119.75 68.6 -119.7 68.95 -119.5 69.35 -119.25 69.75 -119.25 70.85 -119.25 72.35 -119.25 73.1 Q-120.05 75.2 -122.05 76.2 L-124.5 77.6 -125.0 77.7 -126.0 77.75 -126.75 77.45 -127.05 77.3 -127.75 77.0 -128.15 76.6 -128.5 76.25 -128.9 75.85 -129.2 75.45 -129.35 75.15 -129.75 74.35 -129.75 73.25 -129.75 71.75 -129.75 71.35 -129.3 70.25 Q-128.8 69.55 -128.75 68.75 L-128.95 68.0 -129.25 67.25 -129.4 66.85 -129.75 66.5 -130.15 66.1 -130.25 65.75 -130.4 65.35 -130.75 65.0 -131.15 64.6 -131.45 63.5 Q-131.7 62.65 -132.25 62.0 L-132.25 61.6 -132.25 61.25 -132.45 60.9 -132.75 60.5 -132.75 59.0 -132.65 57.15 -132.5 56.75 -132.25 56.5 -132.0 56.4 -131.5 56.3 -131.5 56.25 M-122.25 67.6 Q-123.9 65.15 -126.7 64.3 L-127.9 64.35 -127.5 64.75 -127.15 65.1 -126.75 65.85 -126.4 66.6 -126.25 67.0 -126.25 68.1 -126.25 69.6 -126.25 70.0 -126.55 71.15 Q-126.75 71.95 -127.25 72.6 L-127.0 73.35 -126.25 74.5 Q-125.2 74.95 -124.0 74.25 L-122.9 73.6 -122.4 72.8 -121.75 71.75 -121.75 71.35 -121.75 71.0 -121.8 70.65 -122.0 70.25 -122.25 69.85 -122.25 69.1 -122.25 68.0 -122.25 67.6 M-144.4 52.0 L-142.9 52.55 -142.5 52.85 -142.3 53.25 -142.25 53.6 -142.25 54.0 -142.25 54.35 -142.25 54.75 -142.55 55.1 -142.9 55.45 -143.5 55.75 -144.25 55.5 -144.9 55.5 -145.5 55.75 -146.25 56.0 -146.65 56.35 -147.0 56.6 -147.65 56.85 -148.0 57.25 -148.5 57.65 -148.9 58.0 -149.1 58.4 -149.3 58.75 -149.5 59.1 -149.85 59.85 -150.0 60.25 -150.4 60.6 -150.75 61.0 -151.15 61.35 -151.5 61.6 -152.1 61.9 -152.5 62.1 -153.0 62.2 -154.0 62.25 -154.75 61.95 -155.05 61.8 -155.75 61.5 -156.1 61.1 -156.25 60.75 -156.45 60.4 -156.75 60.0 -156.75 59.6 -156.75 59.25 -156.75 58.85 -156.75 58.1 -156.75 57.35 -156.7 57.0 -156.3 56.2 -155.45 54.75 -155.15 54.35 -154.7 54.05 -153.9 53.6 -153.5 53.25 -153.25 53.0 -153.0 52.85 -152.0 52.45 -150.0 51.75 -145.0 51.75 -144.4 52.0 M-149.9 54.5 L-151.0 55.1 -152.65 55.85 -153.45 56.95 -154.1 58.55 -154.0 58.85 -153.75 59.2 -153.5 59.3 -152.9 59.1 -152.3 58.35 -151.9 57.6 -151.65 56.85 -150.9 56.1 -149.75 55.0 -149.4 54.6 -149.2 54.5 -149.65 54.4 -149.9 54.5 M-83.5 67.75 L-84.05 68.1 -84.65 68.35 -85.0 68.75 -85.25 69.0 -86.5 70.25 -87.65 71.35 -88.05 72.1 -88.3 72.45 -88.65 72.85 -88.8 73.6 -88.9 74.0 -89.25 74.75 Q-88.75 76.3 -86.75 75.5 L-85.3 74.9 -84.9 74.6 Q-84.15 73.75 -83.75 72.75 L-82.85 70.8 -82.75 70.5 -83.05 69.75 -83.25 69.35 -83.25 68.6 -83.3 67.85 -83.4 67.7 -83.5 67.75 M-165.5 30.0 L-165.75 30.6 -165.65 30.9 -165.0 31.5 -164.5 31.4 Q-163.5 31.25 -163.9 30.35 L-164.2 29.95 -164.5 29.55 -164.9 29.5 -165.5 30.0" fill="#ffcc00" fill-rule="evenodd" stroke="none"/>
    <path d="M2.75 -118.0 L2.5 -117.75 2.1 -117.4 1.5 -117.1 1.25 -117.0 0.6 -116.4 0.25 -116.0 -0.15 -115.65 -0.25 -115.25 -0.4 -114.9 -1.0 -114.6 -1.4 -114.4 -2.15 -113.65 -2.9 -112.9 -3.25 -112.5 -3.3 -112.15 -3.5 -111.75 -3.9 -111.4 -4.25 -111.0 -4.65 -110.65 Q-4.75 -109.95 -5.0 -109.4 L-5.65 -108.3 -5.75 -108.0 -5.75 -107.65 -5.75 -107.25 -5.75 -106.9 -5.9 -106.5 -6.1 -106.1 -6.25 -105.75 -6.25 -105.4 -6.25 -104.25 -6.25 -103.5 -6.25 -103.15 -6.0 -102.75 -5.75 -102.4 -5.75 -102.0 -5.75 -101.65 -5.5 -101.25 -5.25 -100.9 -5.25 -100.5 -5.25 -100.15 -5.0 -99.75 -4.75 -99.4 -4.75 -99.0 -4.7 -98.65 -4.5 -98.25 -3.75 -97.5 -3.45 -97.1 -3.25 -96.75 -3.25 -96.4 -3.25 -96.0 -2.95 -95.6 -2.75 -95.25 -2.75 -94.9 -2.75 -94.5 -2.45 -94.1 -2.25 -93.75 -2.25 -92.25 -2.25 -91.15 -2.25 -90.75 -2.45 -90.4 -2.75 -90.0 -2.75 -89.65 -2.75 -89.25 -3.2 -88.5 -3.55 -87.75 -3.75 -87.4 -3.75 -87.0 -3.8 -86.65 -4.0 -86.25 -4.4 -85.9 -4.75 -85.5 -5.05 -84.75 -5.4 -84.0 -5.65 -83.65 -6.0 -83.25 -6.4 -82.9 -6.75 -82.5 -6.8 -82.15 -7.0 -81.75 -7.75 -81.0 -8.5 -80.25 -8.9 -79.9 -9.75 -79.45 -10.15 -79.15 -10.5 -78.75 -10.8 -78.4 -11.25 -78.0 -12.4 -77.55 -13.0 -77.75 -18.75 -77.0 -19.9 -75.85 -21.0 -74.75 -21.4 -74.0 -21.6 -73.6 -21.75 -73.25 -21.75 -72.9 -21.75 -72.5 -21.75 -72.15 -22.0 -71.75 -22.2 -71.35 -22.25 -71.0 -22.25 -70.65 -22.25 -68.4 -22.25 -66.5 -21.95 -66.1 -21.75 -65.75 -21.75 -65.4 -21.75 -65.0 -21.45 -64.6 -21.25 -64.25 -21.25 -63.9 -21.25 -63.5 -20.9 -63.15 -20.5 -62.75 -20.3 -62.35 -20.2 -62.05 -19.9 -61.65 -19.5 -61.25 -19.15 -60.9 -18.75 -60.5 -18.0 -60.25 -17.9 -60.15 -17.65 -59.9 -17.25 -59.5 -16.5 -59.25 -15.5 -59.25 -14.9 -59.5 -14.25 -59.5 -13.5 -59.3 -13.0 -59.25 -12.35 -59.45 -10.25 -60.0 -8.9 -61.4 -6.65 -63.65 Q-6.2 -64.35 -5.9 -65.15 L-5.75 -65.45 -5.75 -65.15 -5.5 -64.75 -5.3 -64.35 -5.25 -64.0 -5.25 -63.65 -5.25 -63.25 -5.45 -62.9 -5.7 -62.45 -5.75 -62.15 -5.75 -61.75 -5.75 -60.65 -5.75 -59.9 -6.9 -56.95 -8.0 -54.25 -8.4 -53.9 -8.75 -53.5 -8.75 -53.15 -8.8 -52.75 -8.9 -52.4 -9.25 -52.0 -9.65 -51.65 -9.75 -51.25 -9.9 -50.9 -11.0 -49.85 Q-11.6 -49.25 -12.4 -48.9 L-12.75 -48.5 -13.5 -47.75 -13.9 -47.4 -14.75 -47.0 -15.15 -46.65 -15.5 -46.25 -15.9 -45.9 -16.5 -45.6 -16.85 -45.35 -17.25 -45.0 -17.25 -44.65 -17.25 -44.25 -17.25 -43.9 -17.25 -43.5 -17.2 -43.15 -17.0 -42.75 -16.65 -42.4 -16.2 -42.05 -15.5 -41.75 -15.4 -41.65 -15.1 -41.4 -14.35 -40.5 -14.5 -40.25 -14.9 -39.95 -15.5 -39.6 -15.9 -39.4 -16.25 -39.0 -17.0 -38.25 -17.4 -37.9 -18.4 -37.4 -19.25 -37.0 -25.9 -36.65 -26.4 -36.95 -26.6 -37.05 -26.9 -37.5 -27.5 -37.75 -28.0 -37.6 -28.35 -37.35 -28.75 -37.0 -28.75 -36.65 -28.75 -36.25 -28.75 -35.9 -28.75 -35.5 -28.35 -34.75 -27.05 -32.4 Q-26.3 -31.4 -25.9 -30.4 L-27.5 -30.75 -28.9 -31.15 -29.4 -31.45 Q-35.15 -33.85 -40.15 -34.65 L-39.5 -34.9 -39.25 -35.0 -37.9 -36.4 -37.15 -37.15 -36.5 -37.4 -36.25 -37.5 -33.9 -40.1 Q-32.9 -41.3 -32.15 -42.65 L-31.55 -42.9 -31.15 -43.15 -30.9 -43.5 -30.2 -45.0 -29.75 -45.75 -29.75 -46.15 -29.75 -46.5 -29.5 -46.9 -29.25 -47.25 -29.25 -47.65 -29.2 -48.0 -29.0 -48.4 -27.0 -50.25 -25.15 -52.15 -24.6 -52.35 -24.25 -52.05 -23.5 -51.8 -23.0 -51.75 -22.4 -52.05 -22.05 -52.4 -21.75 -52.75 -21.75 -53.15 -21.75 -53.9 -21.8 -54.25 -22.0 -54.65 -23.4 -55.5 -27.75 -57.5 -27.9 -57.9 -28.0 -58.25 -28.4 -58.65 -28.75 -59.0 -28.9 -59.35 -29.95 -61.55 -30.75 -63.9 -30.75 -64.25 -30.75 -64.65 -30.9 -65.0 -31.1 -65.4 -31.25 -65.75 -31.25 -66.15 -31.25 -68.0 -31.25 -69.5 -31.0 -69.9 -30.8 -70.25 -30.75 -70.65 -30.75 -71.0 -30.75 -71.4 -30.75 -71.75 -30.6 -72.1 -30.05 -73.25 -29.75 -74.0 -29.4 -74.4 -29.0 -74.75 -28.9 -75.15 -28.75 -75.5 -28.4 -75.9 -28.0 -76.25 -27.9 -76.65 -27.75 -77.0 -27.4 -77.4 -27.0 -77.75 -26.9 -78.15 -26.75 -78.5 -26.4 -78.9 -26.0 -79.25 -25.65 -79.65 -25.4 -80.0 -25.25 -80.35 -25.0 -80.75 -22.75 -82.95 Q-20.65 -84.95 -18.9 -87.15 L-18.8 -87.5 -18.75 -87.9 -18.75 -88.25 -19.45 -88.85 -20.5 -89.25 Q-23.05 -87.9 -26.25 -87.5 L-26.9 -87.5 -27.5 -87.75 -29.0 -88.25 -30.0 -88.25 -30.75 -88.0 -31.9 -88.0 -32.5 -88.2 -34.5 -88.75 -35.5 -88.75 -41.25 -87.0 -41.65 -86.65 -42.0 -86.25 -42.4 -85.9 -43.0 -85.6 -43.25 -85.5 -44.6 -84.25 -45.25 -83.55 -45.25 -85.75 -45.5 -86.1 -46.05 -87.25 -46.25 -88.0 -46.25 -88.4 -46.25 -89.9 -46.25 -91.0 -46.05 -91.4 -45.8 -92.15 -45.75 -92.5 -45.65 -92.85 -45.05 -94.3 -44.75 -95.5 -44.4 -95.9 -44.0 -96.25 -43.9 -96.65 -43.75 -97.0 -43.4 -97.4 -43.05 -97.8 -42.9 -98.15 -42.8 -98.45 -42.0 -99.25 -41.65 -99.65 -41.0 -99.9 -40.65 -100.15 -40.25 -100.5 -39.5 -101.25 -39.15 -101.65 -35.35 -102.55 -35.25 -102.4 -35.25 -100.5 -35.25 -100.15 -35.25 -99.4 -35.25 -99.0 -35.25 -98.65 -35.2 -98.6 -35.2 -98.25 -35.15 -97.9 -34.7 -97.55 -34.0 -97.25 -33.95 -97.25 -33.15 -96.4 -32.75 -96.0 -29.75 -95.0 -29.0 -94.75 -25.0 -94.75 -23.5 -95.3 -21.0 -96.4 -20.75 -96.5 -20.15 -97.15 -19.05 -98.3 -18.9 -98.65 -18.4 -99.0 -17.5 -99.75 -17.15 -100.15 -16.75 -100.9 -16.4 -101.65 -16.25 -102.0 -14.85 -103.6 Q-13.95 -104.75 -13.4 -106.15 L-13.25 -106.5 -12.1 -107.6 -10.0 -109.9 -9.75 -110.25 -9.75 -110.65 -9.7 -110.95 -9.4 -111.4 -8.25 -112.5 -6.0 -114.75 -5.65 -115.15 -5.0 -115.4 -4.65 -115.65 -4.25 -116.0 0.45 -117.8 2.75 -118.0 M-81.75 -78.25 L-81.75 -78.3 Q-81.15 -78.05 -80.95 -77.3 L-80.65 -75.4 -80.75 -75.0 -80.75 -74.65 -80.75 -74.25 -80.9 -73.9 -81.25 -73.15 -81.35 -72.4 -81.65 -71.65 -82.05 -71.3 Q-82.8 -70.65 -83.25 -71.5 L-83.0 -72.25 Q-82.8 -73.1 -82.25 -73.75 L-82.25 -74.15 -82.25 -74.5 -82.05 -74.9 -81.75 -75.65 -81.75 -76.75 -81.75 -78.25 M-59.8 -88.3 L-59.6 -87.1 -59.25 -85.95 -59.5 -85.6 -59.7 -85.25 -59.75 -84.9 -59.85 -84.15 -59.85 -83.4 -60.35 -80.8 -60.65 -78.25 -60.45 -77.8 -60.3 -77.4 -60.3 -77.0 -64.55 -77.25 -65.6 -76.8 -67.1 -76.3 -67.5 -75.95 -68.35 -75.3 -68.65 -74.95 -68.85 -74.6 -69.15 -74.3 -69.55 -73.95 -70.35 -73.3 -70.4 -72.95 -70.45 -72.55 -70.65 -72.25 -71.05 -71.9 -71.1 -71.55 -71.15 -71.15 -71.75 -70.45 -72.05 -70.15 -72.55 -71.3 -72.5 -72.5 -72.65 -73.25 -72.8 -74.05 -72.75 -74.4 -72.65 -75.15 -72.55 -75.85 -72.05 -76.95 -71.2 -78.35 -71.15 -78.7 -71.1 -79.1 -71.05 -79.45 -70.75 -79.8 -70.45 -80.15 -70.4 -80.55 -70.4 -80.9 -69.55 -81.9 -68.85 -82.95 -68.05 -83.65 -67.4 -84.25 -66.35 -84.95 Q-64.85 -86.0 -63.4 -87.15 L-62.0 -89.15 -60.9 -91.7 Q-60.25 -91.95 -60.05 -91.05 L-59.7 -89.05 -59.75 -88.7 -59.8 -88.3 M-81.7 -9.45 L-81.9 -9.75 -81.95 -9.75 -81.3 -9.95 Q-80.2 -9.9 -79.8 -9.05 L-79.8 -8.6 -80.05 -7.05 -80.0 -6.3 -80.1 -5.4 -80.15 -5.45 -80.6 -6.1 -81.0 -6.7 -81.2 -7.9 -81.5 -9.1 -81.7 -9.45 M-46.75 -17.9 L-46.4 -17.6 -46.0 -17.25 -45.65 -16.9 -45.4 -16.5 -45.25 -16.15 -45.0 -15.75 -44.65 -15.4 -44.25 -15.0 -43.9 -14.65 -43.75 -14.25 -43.75 -13.9 -43.75 -13.5 -42.65 -12.4 -42.55 -12.3 -42.4 -12.0 -42.25 -11.65 -42.0 -11.25 -41.75 -10.9 -41.75 -10.5 -41.75 -10.15 -41.5 -9.75 -41.3 -9.35 -40.5 -8.55 -38.25 -7.0 -38.25 -7.4 -38.3 -7.75 -37.75 -7.5 -33.9 -5.9 -34.75 -5.55 -35.45 -5.25 -35.25 -5.1 Q-30.8 -2.35 -35.9 -5.1 L-36.25 -5.0 -37.75 -5.0 -37.75 -5.15 -38.25 -5.1 -40.5 -3.45 -40.25 -3.2 -40.25 -3.15 -40.25 -3.0 -40.25 -2.65 -40.25 -2.4 -40.25 -2.25 -40.25 -1.9 -40.25 -1.5 -40.25 -1.45 -40.25 -1.25 -40.25 -0.5 Q-39.6 0.3 -39.35 1.4 L-38.75 2.85 -38.75 3.25 -38.75 3.6 -38.75 4.0 -38.4 4.35 -38.0 4.75 -37.8 5.15 -37.7 5.45 -37.4 5.85 -37.0 6.25 -36.65 6.6 -36.25 7.0 -35.5 7.2 -34.9 7.35 -34.65 7.6 -34.25 8.0 Q-30.15 9.95 -25.5 10.25 L-22.5 10.25 -18.25 9.5 -18.0 9.25 -17.65 8.85 Q-16.25 8.2 -15.3 6.95 -13.85 4.95 -12.4 4.85 -12.3 5.05 -12.35 5.2 L-12.95 7.45 -13.75 9.75 -13.75 10.1 -13.75 10.5 -13.75 10.85 -14.0 11.25 -14.25 11.6 -14.25 12.0 -14.3 12.35 -14.5 12.75 -15.65 13.9 -16.75 15.0 -16.8 15.35 -17.05 15.75 -17.4 16.1 -18.0 16.35 -18.35 16.65 -18.75 17.0 -19.5 17.25 -20.0 17.4 -20.25 17.5 -20.5 17.75 -20.9 18.1 Q-25.15 20.2 -29.75 21.0 L-32.4 21.0 Q-38.1 20.25 -43.5 18.25 L-44.4 17.55 Q-47.15 16.25 -50.0 15.25 L-53.5 15.25 -54.25 15.5 -55.75 16.0 -56.9 17.1 -57.65 17.85 -57.95 18.6 -58.2 19.05 -58.25 19.35 -58.25 19.75 -58.25 22.0 -58.25 23.85 -57.85 24.65 -57.7 24.95 -57.4 25.35 -57.0 25.75 -56.65 26.1 -56.25 26.5 -55.5 26.75 -52.25 28.0 -58.4 28.0 -59.4 27.5 Q-60.85 26.75 -62.5 26.25 -63.2 25.5 -64.05 25.0 L-65.65 23.6 -66.25 23.25 -67.25 21.75 -67.25 21.6 -67.25 21.25 -67.85 20.65 -68.4 19.85 -68.9 19.55 -69.4 19.35 -69.6 19.1 -69.75 18.75 -69.85 18.4 -70.4 16.9 -70.75 15.75 -70.75 15.0 -70.75 12.75 -70.75 10.5 -70.5 10.1 -70.3 9.7 -70.25 9.35 -70.25 9.0 -70.25 8.6 -70.25 8.25 -70.15 7.85 -69.2 5.65 -68.15 3.35 -67.4 2.6 -66.65 1.85 -65.75 0.45 -65.75 0.75 -65.6 1.1 -65.4 1.5 -65.25 1.85 -65.25 2.25 -65.25 2.6 -65.25 3.0 -64.9 3.35 -64.5 3.75 -64.3 4.15 -64.2 4.45 -63.9 4.85 -63.5 5.25 -63.15 5.6 -62.75 6.0 Q-60.3 7.3 -57.5 7.75 L-55.5 7.75 -54.9 7.5 -48.75 7.5 -48.0 7.65 Q-46.85 7.8 -45.9 8.35 L-45.65 8.6 -45.25 9.0 -44.25 9.4 -43.0 9.75 -42.05 9.05 -41.75 8.75 Q-41.8 7.55 -42.2 6.45 -42.6 5.5 -43.15 4.6 L-43.5 4.25 -43.9 3.85 -43.55 3.55 -43.25 3.25 -43.25 0.6 -43.25 0.4 -42.7 1.2 -42.6 0.9 -42.25 0.1 -42.25 -0.25 -42.25 -0.65 -42.25 -1.0 -42.0 -1.4 -41.8 -1.8 -41.75 -2.15 -41.75 -2.45 -41.75 -2.5 -41.75 -2.9 -41.75 -3.25 -41.75 -3.65 -41.75 -4.0 -41.75 -4.4 -41.75 -4.75 -42.0 -5.15 -42.2 -5.55 -42.25 -5.9 -42.25 -6.25 -42.25 -6.65 -42.25 -7.0 -42.25 -7.4 -42.25 -7.75 -42.25 -8.15 -42.4 -8.5 -42.6 -8.9 -42.75 -9.25 -42.75 -9.65 -42.75 -10.0 -43.9 -12.7 -45.9 -15.9 Q-46.55 -16.8 -46.75 -17.9 M-79.15 26.65 L-78.85 27.4 -78.75 28.5 -78.4 28.9 -78.25 29.25 -78.25 29.6 -78.25 30.0 -77.95 30.4 -77.75 30.75 -77.75 31.1 -77.75 32.25 -77.75 33.35 -77.95 33.75 -78.25 34.5 -78.25 34.85 -78.25 35.25 -78.25 35.6 -78.45 35.95 -78.95 37.05 -79.4 38.6 -80.5 39.75 -82.75 42.0 -83.95 42.35 Q-85.8 43.1 -86.15 42.85 L-85.8 42.45 -85.25 41.75 -84.7 41.3 -84.0 40.6 -83.8 40.2 -83.75 39.85 -83.75 39.5 -83.5 39.1 -83.25 38.75 -83.25 38.35 -83.25 38.0 -83.05 37.6 -82.75 36.85 -83.55 35.4 Q-84.6 33.75 -86.4 33.0 L-84.6 32.4 -81.75 31.0 -81.5 30.75 -81.15 30.35 -80.9 30.0 -80.5 29.25 -80.15 28.85 -79.25 27.75 -79.25 27.35 -79.25 27.0 -79.25 26.6 -79.15 26.65 M-90.75 6.8 L-90.3 7.0 -89.85 6.95 -89.45 6.75 -89.0 7.1 -88.75 7.55 -88.6 8.05 -88.25 9.1 -88.15 9.55 -88.35 10.8 -88.3 11.5 Q-88.3 12.3 -88.85 12.55 L-89.15 12.85 -89.45 13.1 -89.95 13.3 -91.4 12.5 -92.5 11.4 -94.0 10.0 -94.05 9.7 Q-94.2 9.15 -94.5 8.7 L-95.5 7.25 -97.65 5.65 -97.15 5.55 -96.1 5.2 -95.6 5.05 -93.9 5.25 -92.1 5.35 -91.8 5.4 Q-91.7 5.4 -91.65 5.5 L-91.5 5.8 -91.35 6.35 -90.75 6.8 M-122.25 67.6 L-122.25 68.0 -122.25 69.1 -122.25 69.85 -122.0 70.25 -121.8 70.65 -121.75 71.0 -121.75 71.35 -121.75 71.75 -122.4 72.8 -122.9 73.6 -124.0 74.25 Q-125.2 74.95 -126.25 74.5 L-127.0 73.35 -127.25 72.6 Q-126.75 71.95 -126.55 71.15 L-126.25 70.0 -126.25 69.6 -126.25 68.1 -126.25 67.0 -126.4 66.6 -126.75 65.85 -127.15 65.1 -127.5 64.75 -127.9 64.35 -126.7 64.3 Q-123.9 65.15 -122.25 67.6 M-165.5 30.0 L-164.9 29.5 -164.5 29.55 -164.2 29.95 -163.9 30.35 Q-163.5 31.25 -164.5 31.4 L-165.0 31.5 -165.65 30.9 -165.75 30.6 -165.5 30.0 M-83.5 67.75 L-83.4 67.7 -83.3 67.85 -83.25 68.6 -83.25 69.35 -83.05 69.75 -82.75 70.5 -82.85 70.8 -83.75 72.75 Q-84.15 73.75 -84.9 74.6 L-85.3 74.9 -86.75 75.5 Q-88.75 76.3 -89.25 74.75 L-88.9 74.0 -88.8 73.6 -88.65 72.85 -88.3 72.45 -88.05 72.1 -87.65 71.35 -86.5 70.25 -85.25 69.0 -85.0 68.75 -84.65 68.35 -84.05 68.1 -83.5 67.75 M-149.9 54.5 L-149.65 54.4 -149.2 54.5 -149.4 54.6 -149.75 55.0 -150.9 56.1 -151.65 56.85 -151.9 57.6 -152.3 58.35 -152.9 59.1 -153.5 59.3 -153.75 59.2 -154.0 58.85 -154.1 58.55 -153.45 56.95 -152.65 55.85 -151.0 55.1 -149.9 54.5" fill="#ffcc66" fill-rule="evenodd" stroke="none"/>
  </g>
</svg>
