<?xml version="1.0" encoding="UTF-8" standalone="no"?>
<svg xmlns:ffdec="https://www.free-decompiler.com/flash" xmlns:xlink="http://www.w3.org/1999/xlink" ffdec:objectType="shape" height="211.55px" width="113.3px" xmlns="http://www.w3.org/2000/svg">
  <g transform="matrix(1.0, 0.0, 0.0, 1.0, 44.15, 34.2)">
    <path d="M-42.9 -34.2 L-41.45 -33.8 -40.65 -33.2 -40.65 -32.45 Q-40.65 -32.05 -40.8 -31.75 L-41.4 -30.95 Q-42.5 -30.95 -43.4 -31.4 L-44.15 -32.45 -44.05 -33.2 -43.8 -33.55 -42.95 -34.05 -42.9 -34.2 M-1.1 161.6 L0.2 160.5 1.15 160.15 1.65 160.1 2.0 161.6 1.65 163.1 -0.35 162.65 -1.1 161.6 M66.45 175.2 L67.15 174.85 Q67.9 175.0 68.4 175.4 L69.15 176.6 Q68.3 178.0 66.55 176.85 65.3 176.0 66.45 175.2" fill="#cc0000" fill-rule="evenodd" stroke="none"/>
  </g>
</svg>
