<?xml version="1.0" encoding="UTF-8" standalone="no"?>
<svg xmlns:ffdec="https://www.free-decompiler.com/flash" xmlns:xlink="http://www.w3.org/1999/xlink" ffdec:objectType="shape" height="119.5px" width="73.75px" xmlns="http://www.w3.org/2000/svg">
  <g transform="matrix(1.0, 0.0, 0.0, 1.0, 76.25, 77.35)">
    <path d="M-39.25 -76.6 L-39.0 -76.7 -38.15 -77.0 -37.5 -77.25 -36.9 -77.3 -36.9 -77.35 -33.05 -77.0 -28.0 -76.1 -27.5 -75.75 -27.3 -75.35 -27.15 -75.0 -27.0 -74.6 -27.0 -74.25 -27.0 -73.85 -27.0 -73.5 -27.15 -73.1 -27.25 -72.75 -27.4 -72.35 -27.5 -72.0 -27.5 -71.6 -27.45 -71.25 -27.3 -70.85 -27.15 -70.5 -27.0 -70.1 -27.0 -69.75 -27.0 -69.35 -27.0 -69.0 -27.0 -68.6 -27.0 -68.25 -27.0 -67.1 -27.0 -66.35 -26.85 -66.0 -26.65 -65.6 -26.5 -65.25 -26.5 -64.85 -26.5 -64.5 -26.5 -64.1 -26.55 -63.75 -26.65 -63.35 -26.9 -63.0 -27.15 -62.65 -27.5 -62.35 -27.75 -62.25 -28.4 -62.1 -29.25 -62.35 -29.75 -62.75 -30.15 -63.1 -30.25 -63.5 -30.3 -63.85 -30.4 -64.2 -30.6 -64.6 -30.75 -65.0 -30.75 -65.35 -30.75 -65.75 -30.75 -66.1 -30.75 -66.5 -30.75 -66.85 -30.75 -68.0 -30.75 -68.75 -30.8 -69.1 -31.0 -69.5 -31.15 -69.85 -31.25 -70.25 -31.25 -70.6 -31.25 -71.0 -31.25 -71.35 -31.25 -71.75 -31.25 -72.1 -31.35 -72.45 -31.75 -72.85 -34.75 -73.15 -38.4 -73.25 -39.25 -73.35 -39.75 -73.75 -40.1 -74.15 -40.25 -74.5 -40.25 -74.85 -40.25 -75.25 -40.15 -75.6 -40.0 -76.0 -39.6 -76.35 -39.25 -76.6 M-9.65 -40.35 L-9.25 -39.95 -8.9 -39.6 -8.75 -39.2 -8.65 -38.85 -8.25 -38.45 -7.9 -38.1 -7.75 -37.7 -7.65 -37.35 -7.5 -36.95 -7.25 -36.25 -6.85 -35.5 -6.65 -35.1 -6.45 -34.4 -5.8 -32.8 -4.75 -29.85 -4.0 -27.6 -4.0 -27.2 -4.0 -26.85 -3.8 -26.45 -3.65 -26.1 -3.5 -25.7 -3.5 -25.35 -3.5 -24.95 -3.5 -24.6 -3.4 -24.2 -3.25 -23.85 -3.15 -23.45 -3.0 -23.1 -3.0 -22.7 -3.0 -22.35 -3.0 -21.95 -2.9 -21.6 -2.75 -21.2 -2.65 -20.85 -2.5 -20.45 -2.5 -20.1 -2.5 -19.7 -2.5 -19.35 -2.5 -18.95 -2.5 -18.6 -2.5 -18.2 -2.5 -17.85 -2.65 -17.45 -2.8 -17.1 -3.0 -16.7 -3.0 -15.95 -3.0 -14.45 -3.0 -11.85 -3.0 -9.2 -3.15 -8.85 -3.35 -8.45 -3.5 -8.1 -3.5 -7.7 -3.5 -7.35 -3.5 -6.95 -3.5 -6.2 -3.5 -5.45 -3.5 -4.7 -3.65 -4.35 -3.85 -3.95 -4.0 -3.6 -4.0 -3.2 -4.0 -2.85 -4.0 -2.45 -4.0 -2.1 -4.0 -1.7 -4.15 -1.35 -4.35 -0.95 -4.5 -0.6 -4.7 0.15 -5.0 0.9 -5.0 1.3 -5.0 1.65 -5.15 2.05 -5.25 2.4 -5.55 2.75 -5.9 3.15 -6.0 3.55 -6.3 4.3 -6.8 5.4 -7.55 6.95 -7.9 7.65 -8.25 8.05 -8.65 8.4 -8.75 8.8 -8.9 9.15 -11.1 11.45 Q-14.95 15.4 -20.0 17.65 L-20.25 17.8 -20.9 17.85 -26.0 18.2 -26.15 18.4 -26.25 18.8 -26.45 19.1 -26.9 19.55 -27.25 19.8 -27.8 19.9 -28.0 20.3 -28.0 20.65 -28.0 21.05 -28.0 21.8 -28.15 22.15 -28.35 22.55 -28.5 22.9 -28.5 23.3 -28.5 23.65 -28.65 24.05 -28.8 24.4 -29.0 24.8 -29.0 25.15 -29.0 25.9 -29.0 26.65 -29.15 27.05 -29.25 27.4 -30.35 28.9 -31.4 31.15 -31.75 31.55 -32.15 31.9 -32.25 32.3 -32.4 32.65 -32.75 33.05 -33.5 33.8 -33.9 34.15 -34.1 34.55 -34.25 34.9 -34.55 35.25 -35.75 36.05 Q-37.3 37.7 -39.25 38.85 L-40.5 39.65 Q-54.0 45.5 -66.0 37.55 L-66.4 37.15 Q-67.05 36.4 -68.0 36.05 L-69.15 34.9 -70.65 33.4 -70.75 33.05 -70.9 32.65 -71.25 32.3 -71.65 31.9 -72.0 31.55 -72.2 31.2 -72.7 30.45 -73.4 29.65 -74.3 27.45 -75.25 24.8 -75.25 24.4 -75.25 24.05 -75.4 23.7 -75.6 23.3 -75.75 22.9 -75.75 22.55 -75.75 22.15 -75.75 21.8 -75.85 21.45 -76.0 21.05 -76.25 20.3 -76.25 18.8 -76.25 16.55 -76.25 15.8 -76.15 15.4 -76.0 15.05 -75.75 14.65 -75.75 14.3 -75.75 13.9 -75.75 13.55 -75.6 13.2 -74.9 12.4 -74.5 12.05 -74.0 11.85 -73.4 11.75 -73.4 11.65 -72.5 11.9 -72.0 12.3 -71.8 12.7 -71.65 13.05 -71.5 13.8 -71.55 14.15 -71.55 14.3 -71.4 14.25 -71.4 14.15 -70.9 14.2 -70.0 14.4 -69.5 14.8 -69.3 15.2 -69.15 15.55 -69.0 15.9 -69.05 16.3 -69.15 16.65 -69.35 17.05 -69.5 17.4 -69.5 17.8 -69.5 18.15 -69.65 18.55 -69.8 18.9 -70.0 19.3 -70.0 19.65 -70.0 20.05 -69.65 19.7 -69.25 19.4 -69.0 19.3 -68.4 19.25 -68.4 19.15 -67.5 19.4 -67.0 19.8 -66.8 20.2 -66.65 20.55 -66.55 20.8 -66.0 20.9 -65.5 21.3 -65.3 21.7 -65.15 22.05 -65.05 22.4 -65.0 22.8 -65.15 23.15 -65.4 23.55 -66.0 24.3 -66.05 24.65 -66.15 25.05 -66.45 25.8 -66.5 26.15 -66.5 26.55 -66.4 26.9 -66.15 27.65 -66.0 28.05 -66.0 28.4 -66.0 28.8 -66.0 29.15 -65.65 29.9 -65.55 30.15 -64.9 29.4 -64.5 29.05 -64.0 28.85 -63.4 28.75 -63.4 28.65 -62.5 28.9 -62.1 29.25 -61.75 28.9 -60.9 28.75 -60.9 28.65 -60.4 28.7 -59.8 28.85 -59.4 28.75 -59.4 28.65 -58.5 28.9 -58.0 29.3 -57.8 29.7 -57.65 30.05 -57.5 30.4 -57.5 30.8 -57.5 31.55 -57.5 32.3 -57.65 32.65 -57.85 33.05 -58.0 33.4 -57.95 33.75 -57.45 34.55 -57.0 35.3 -57.0 35.55 -56.9 35.3 -56.75 34.9 -56.75 34.55 -56.75 34.15 -56.6 33.8 -56.45 33.4 -56.15 32.65 -55.75 32.3 -55.25 31.9 -54.75 31.85 -54.75 31.8 -54.65 31.4 -54.45 31.1 -53.75 30.4 -53.5 30.35 -52.9 30.25 -52.9 30.15 -52.0 30.4 -51.55 30.8 -50.9 31.55 -50.75 31.75 -50.85 27.9 Q-50.95 24.7 -50.5 21.55 L-50.15 21.2 -49.75 20.9 -49.5 20.8 -48.9 20.75 -48.9 20.65 -48.0 20.9 -47.5 21.3 -47.3 21.7 -47.15 22.05 -47.0 22.4 -47.0 27.3 -46.9 27.25 -46.9 27.15 -46.0 27.4 -45.5 27.8 -45.3 28.2 -45.15 28.55 -45.0 28.9 -45.0 29.3 -45.0 30.05 -45.0 30.8 -45.15 31.15 -45.35 31.55 -45.5 31.9 -45.5 33.0 -45.4 32.8 -45.25 32.4 -45.25 32.05 -45.25 31.65 -45.15 31.3 -44.85 30.95 -44.1 30.2 -43.75 29.9 -43.5 29.85 -42.9 29.75 -42.9 29.65 -42.3 29.85 -41.9 29.75 -41.9 29.65 -41.2 29.85 -41.15 29.3 -40.85 28.95 -40.5 28.6 -40.0 28.3 -39.4 28.25 -39.4 28.15 -38.5 28.4 -38.0 28.8 -37.8 29.2 -37.65 29.55 -37.5 29.9 -37.5 31.4 -37.5 32.5 -37.4 32.4 -37.0 32.05 -36.7 31.65 -36.75 31.55 -36.75 31.15 -36.75 30.4 -36.8 30.05 -37.1 29.3 -37.25 28.15 -37.15 27.9 -37.35 25.65 -37.35 25.5 -37.6 25.95 -37.9 26.65 -38.4 27.05 -38.75 27.3 -39.4 27.4 -40.25 27.15 -40.75 26.8 -41.15 26.4 -41.2 26.05 -41.25 25.3 -41.25 24.55 -41.1 24.2 -40.4 23.4 -40.0 23.05 -39.75 22.95 -39.75 22.9 -39.75 22.15 -39.75 21.05 -39.65 20.3 -39.35 19.95 -39.0 19.55 -38.5 19.3 -37.9 19.25 -37.9 19.15 -37.0 19.4 -36.5 19.8 -36.3 20.2 -36.15 20.55 -36.0 21.3 -35.65 21.7 -35.55 21.8 -35.4 21.75 -35.4 21.65 -35.2 21.75 -35.25 21.55 -35.25 21.15 -35.25 20.8 -35.2 20.05 -35.15 19.65 -34.75 19.3 -34.25 18.9 -33.4 18.75 -33.4 18.65 -33.2 18.7 -33.25 18.3 -33.25 17.15 -33.0 16.4 -32.9 16.15 -33.4 15.65 -33.65 15.2 -33.75 15.15 -34.25 14.75 -34.95 14.0 -35.15 13.65 -35.25 12.9 -35.2 11.8 -35.0 11.05 -34.6 10.7 -34.25 10.4 -34.0 10.3 -33.4 10.25 -33.4 10.15 -32.75 10.35 -32.95 9.7 -33.0 9.6 -33.25 9.8 -33.9 9.9 -34.4 9.85 -35.25 9.65 -35.75 9.25 -36.15 8.9 -36.2 8.55 -36.25 7.8 -36.2 6.65 -36.15 6.3 -35.85 5.95 -35.5 5.55 -35.0 5.3 -34.4 5.25 -34.4 5.15 -32.85 5.75 -32.0 6.3 -31.4 6.25 -31.4 6.15 -30.75 6.35 -30.6 6.2 -30.25 5.9 -30.0 5.8 -29.4 5.75 -29.4 5.65 -28.5 5.9 -28.0 6.3 -27.8 6.65 -27.65 7.05 -27.5 7.4 -27.5 8.15 Q-27.45 8.95 -27.7 9.65 L-27.9 10.05 -28.15 10.4 -28.5 10.65 -28.6 10.7 -28.5 10.9 -28.5 11.3 -28.25 11.55 -27.9 11.9 -27.75 12.3 -27.65 12.65 -27.25 12.95 Q-25.95 13.65 -24.5 13.8 L-24.3 13.85 -25.5 13.25 -26.5 12.55 -26.6 12.15 -26.75 11.4 -26.75 11.05 -26.65 10.3 -26.35 9.95 -26.0 9.55 -25.5 9.3 -24.9 9.25 -24.9 9.15 -24.75 9.2 -24.75 9.15 -24.7 8.8 -24.45 8.05 -24.15 7.65 -23.75 7.4 -23.5 7.3 -22.9 7.15 -22.0 7.4 -21.5 7.8 -21.25 8.05 -20.9 8.15 -20.0 8.4 -19.5 8.8 -19.3 9.15 -19.15 9.55 -19.0 10.3 -19.1 10.6 -18.45 9.85 -17.75 9.25 -18.1 8.9 -18.25 8.55 -18.25 8.15 -18.2 7.8 -17.95 7.05 -17.65 6.65 -17.25 6.4 -17.0 6.35 -16.4 6.25 -16.4 6.15 -15.9 6.2 -15.55 6.3 -15.15 4.9 -13.65 1.9 -13.5 1.55 -13.25 1.3 -13.25 0.8 -13.1 0.4 -12.75 -0.35 -12.4 -1.1 -12.0 -1.45 -11.95 -1.45 -12.1 -1.6 -12.25 -1.95 -12.25 -2.35 -12.2 -2.7 -11.95 -3.45 -11.65 -3.85 -11.25 -4.1 -11.0 -4.15 -10.75 -4.2 -10.75 -4.35 -10.55 -5.05 -10.15 -5.85 -9.75 -6.1 -9.6 -6.15 -9.75 -6.25 -10.15 -6.6 -10.2 -7.35 -10.2 -7.7 -10.25 -7.75 -10.65 -8.1 -10.7 -8.85 -10.7 -9.95 -10.65 -10.7 -10.4 -11.0 -10.75 -11.25 -11.1 -11.6 -11.25 -11.95 -11.25 -12.35 -11.2 -12.7 -10.95 -13.45 -10.65 -13.85 -10.25 -14.1 -10.0 -14.2 -9.4 -14.3 -9.4 -14.35 -8.4 -14.3 -8.25 -14.25 -8.25 -14.45 -8.15 -15.2 -7.85 -15.6 -7.5 -15.95 -7.0 -16.2 -6.75 -16.2 -6.75 -16.6 -6.9 -16.6 -7.75 -16.85 -8.25 -17.25 -8.65 -17.6 -8.75 -17.95 -8.75 -18.2 -9.4 -18.1 Q-10.9 -18.4 -12.05 -19.45 L-12.75 -20.6 -12.75 -20.95 -12.7 -21.35 -12.4 -22.1 -11.75 -22.45 -11.85 -23.2 -11.6 -25.1 -11.5 -25.45 -11.45 -25.5 -11.75 -25.75 -12.4 -26.55 -12.75 -27.2 -12.75 -27.6 -12.75 -27.95 -12.65 -28.35 -12.45 -28.5 -12.75 -28.75 -13.15 -29.1 -13.2 -29.85 -13.2 -30.95 -13.15 -31.7 -12.85 -32.1 -12.5 -32.45 -12.45 -32.45 -12.6 -32.65 -13.15 -33.35 -13.2 -33.65 -13.4 -33.6 -13.9 -33.65 -14.75 -33.85 -15.25 -34.25 -15.65 -34.6 -15.7 -35.0 -15.8 -35.7 -15.65 -36.8 -15.75 -36.85 -16.25 -37.25 -16.6 -37.65 -16.75 -37.95 -16.75 -38.35 -16.7 -38.7 -16.55 -39.15 -16.9 -39.1 -17.75 -39.35 -18.25 -39.75 -18.65 -40.1 -18.7 -40.5 -18.75 -41.1 -18.9 -41.1 -19.75 -41.35 -20.25 -41.75 -20.6 -42.15 -20.75 -42.5 -20.75 -42.85 -20.7 -43.15 -21.5 -42.35 -22.4 -42.1 -22.9 -42.15 -23.75 -42.35 -24.25 -42.75 -24.6 -43.15 -24.9 -43.1 -25.75 -43.35 -26.15 -43.7 -26.75 -43.85 -27.25 -44.25 -27.6 -44.65 -27.75 -45.0 -27.7 -45.7 -27.1 -47.2 -26.5 -48.0 -26.0 -48.15 -25.4 -48.3 -25.4 -48.35 -24.9 -48.3 -24.0 -48.1 -23.9 -48.0 -23.75 -48.1 -23.5 -48.2 -22.9 -48.3 -22.9 -48.35 -17.4 -47.85 Q-15.4 -47.35 -13.65 -46.35 L-12.85 -45.6 -11.6 -44.15 Q-10.75 -42.9 -10.05 -41.5 L-9.65 -40.35 M-14.8 -41.75 L-15.15 -40.5 -15.2 -40.25 -14.9 -40.3 -14.9 -40.35 -13.95 -40.3 -14.4 -41.35 -14.75 -41.7 -14.8 -41.75 M-6.75 -11.65 L-6.9 -11.45 -7.15 -11.1 -7.35 -10.95 -7.3 -10.85 -7.15 -10.45 -7.0 -10.1 -6.95 -10.05 -6.9 -10.25 -6.75 -10.6 -6.75 -11.35 -6.75 -11.65 M-7.5 -5.85 L-7.6 -5.8 -7.55 -5.75 -7.5 -5.85 M-8.0 -2.85 L-8.1 -2.8 -8.05 -2.45 -7.8 -2.95 -8.0 -2.85 M-8.65 -1.05 L-8.65 -0.95 -8.6 -0.85 -8.5 -1.25 -8.45 -1.35 -8.65 -1.1 -8.65 -1.05 M-20.0 11.8 L-19.75 11.8 -19.65 11.4 -19.6 11.35 -20.05 11.75 -20.1 11.85 -20.0 11.8 M-21.65 12.5 L-21.5 12.4 -21.65 12.4 -21.65 12.5 M-22.75 13.8 L-23.2 13.9 -22.75 13.9 -22.75 13.8 M-33.5 25.75 L-33.5 26.15 -33.25 25.8 -33.5 25.75 M-70.75 24.25 L-71.25 24.4 -71.0 25.0 -71.0 24.95 -70.75 24.55 -70.75 24.25 M-50.55 35.1 L-50.5 35.1 -50.55 35.0 -50.55 35.1 M-45.65 36.1 L-45.65 36.35 -45.3 37.2 -44.95 37.05 -45.45 36.5 -45.65 36.15 -45.65 36.1 M-57.25 36.4 L-57.55 36.75 -58.0 37.15 -57.25 37.4 -57.25 36.8 -57.25 36.4" fill="#ff6600" fill-rule="evenodd" stroke="none"/>
  </g>
</svg>
