<?xml version="1.0" encoding="UTF-8" standalone="no"?>
<svg xmlns:ffdec="https://www.free-decompiler.com/flash" xmlns:xlink="http://www.w3.org/1999/xlink" ffdec:objectType="shape" height="198.0px" width="164.5px" xmlns="http://www.w3.org/2000/svg">
  <g transform="matrix(1.0, 0.0, 0.0, 1.0, 155.75, 123.25)">
    <path d="M4.05 -122.4 L4.75 -121.75 4.7 -121.4 4.6 -121.0 4.35 -120.65 4.0 -120.4 3.5 -120.3 2.5 -120.25 1.75 -120.5 1.1 -120.5 0.85 -120.15 -1.6 -119.05 -3.65 -118.15 -3.75 -117.75 -3.8 -117.4 -4.1 -116.6 -4.25 -116.25 -4.25 -115.9 -4.25 -115.5 -4.25 -115.15 -4.25 -114.75 -4.1 -114.4 -3.9 -114.0 -3.75 -113.65 -3.75 -113.25 -3.75 -112.9 -3.75 -112.15 -3.75 -111.75 -3.05 -109.9 -2.35 -108.0 -1.75 -106.5 -1.4 -106.15 -1.0 -105.75 -0.9 -105.4 -0.75 -105.0 -0.25 -104.25 -0.25 -103.9 -0.25 -103.5 0.0 -103.15 0.25 -102.75 0.25 -102.4 0.25 -102.0 0.25 -101.65 0.25 -101.25 0.4 -100.9 0.6 -100.5 0.75 -100.15 0.75 -98.65 0.75 -96.75 0.75 -95.65 0.7 -95.25 0.5 -94.9 0.25 -94.5 0.25 -94.15 0.25 -93.75 0.25 -93.4 -0.3 -92.3 -1.3 -90.4 -1.65 -89.65 -2.0 -89.25 -2.3 -88.95 -2.4 -88.65 Q-2.7 -87.95 -3.3 -87.4 L-4.25 -86.5 -4.5 -86.4 -5.15 -86.15 -5.5 -85.75 -5.75 -85.5 -7.6 -84.6 -9.25 -84.0 -9.65 -83.65 -10.0 -83.4 Q-13.6 -82.5 -17.0 -80.9 L-17.65 -80.65 Q-18.0 -80.25 -18.45 -79.95 L-19.65 -79.15 -20.45 -78.45 -21.65 -77.65 -22.4 -76.9 -23.5 -75.75 -23.75 -75.35 -23.8 -75.25 -23.75 -75.15 -23.8 -74.8 -24.0 -74.4 -24.25 -74.0 -24.25 -73.65 -24.25 -73.25 -24.5 -72.9 -24.75 -72.5 -24.75 -72.15 -24.75 -71.75 -25.0 -71.4 -25.25 -71.0 -25.25 -70.65 -25.3 -70.3 -25.5 -69.9 -25.9 -69.55 -26.5 -69.25 -27.25 -69.5 -27.6 -69.9 -27.8 -70.25 -28.25 -71.0 -28.25 -71.75 -28.25 -72.9 -28.25 -73.65 -28.2 -73.95 -27.95 -74.4 -27.75 -74.75 -27.75 -75.15 -27.75 -75.5 -27.7 -75.85 -27.5 -76.25 -27.25 -76.65 -27.25 -77.0 -27.25 -77.4 -26.25 -79.25 -25.25 -81.5 -23.35 -83.35 -21.9 -84.9 -23.4 -84.9 -24.0 -84.75 Q-26.95 -85.35 -29.75 -86.5 L-30.15 -86.9 -30.4 -87.15 -31.25 -87.5 -32.25 -88.0 -32.65 -88.4 -33.0 -88.75 -33.4 -89.15 -33.8 -89.85 -34.45 -91.0 -34.65 -91.4 -35.75 -92.5 -36.9 -93.65 -37.2 -94.05 -37.3 -94.35 -37.5 -94.75 -38.55 -95.2 -39.75 -95.5 -40.4 -95.5 -40.85 -95.1 -41.0 -94.75 Q-41.4 -94.1 -41.35 -93.25 L-41.3 -91.4 -41.4 -91.0 -41.65 -90.65 -42.05 -90.4 -42.5 -90.25 -43.0 -90.3 -43.75 -90.5 -44.5 -91.25 -45.25 -92.0 -45.6 -92.4 -45.8 -92.75 -46.25 -93.5 -46.25 -93.9 -46.25 -94.25 -46.45 -94.6 -46.75 -95.0 -46.75 -95.4 -46.75 -95.75 -46.75 -96.15 -46.9 -96.5 -47.1 -96.9 -47.25 -97.25 -47.25 -98.4 -47.25 -99.9 -47.25 -100.25 -47.15 -100.45 -47.25 -100.75 -47.25 -101.15 -47.25 -101.5 -47.25 -101.9 -46.75 -102.45 -46.75 -102.5 -46.05 -103.3 -45.7 -103.55 -44.0 -105.25 -41.75 -107.5 -40.9 -107.9 -40.5 -108.1 -39.9 -108.4 -39.5 -108.75 -39.25 -109.0 -38.5 -109.25 -37.05 -109.8 -33.75 -110.6 -33.0 -110.75 -30.5 -110.75 -27.05 -110.2 -23.85 -109.6 Q-22.5 -109.4 -21.75 -108.25 L-21.75 -107.9 -21.8 -107.5 -21.9 -107.15 -22.0 -106.75 Q-22.25 -106.55 -22.55 -106.45 L-23.85 -105.9 -25.6 -105.05 Q-26.6 -104.55 -27.65 -104.15 L-28.0 -103.75 -28.4 -103.4 -28.75 -103.0 -29.15 -102.65 -29.5 -102.25 -29.75 -101.85 -29.9 -101.5 -30.15 -101.15 -30.5 -100.75 -30.75 -100.4 -30.75 -100.0 -30.75 -99.65 -30.75 -99.25 -30.75 -98.9 -30.75 -98.5 -30.7 -98.15 -30.55 -97.75 -30.4 -97.4 -30.25 -97.0 -29.9 -96.65 -29.5 -96.25 -29.15 -95.9 -28.75 -95.5 -28.5 -95.25 -27.9 -95.0 -27.5 -94.8 -26.9 -94.5 -24.25 -94.5 -23.4 -94.9 -23.0 -95.1 -22.5 -95.25 -20.4 -95.95 -19.4 -96.4 -19.0 -96.75 -18.65 -97.15 -18.25 -97.5 -17.9 -97.9 -17.5 -98.25 -17.3 -98.65 -17.2 -98.95 -16.9 -99.4 -16.7 -99.45 -16.75 -100.0 -16.75 -100.4 -16.75 -100.75 -16.6 -101.1 -16.4 -101.5 -16.25 -101.9 -16.25 -102.25 -16.25 -103.4 -16.25 -105.25 -16.25 -105.65 -16.2 -105.95 -15.95 -106.4 -15.75 -106.75 -15.75 -107.15 -15.75 -107.5 -15.75 -107.9 -15.75 -108.25 -15.75 -108.65 -15.7 -108.95 -15.45 -109.4 -15.25 -109.75 -15.25 -110.15 -15.25 -110.5 -15.2 -110.85 -15.0 -111.25 -14.75 -111.65 -14.75 -112.0 -14.75 -112.4 -14.5 -112.75 -14.25 -113.15 -14.25 -113.5 -14.25 -113.9 -14.0 -114.25 -13.8 -114.65 -13.75 -115.0 -13.4 -115.4 -13.0 -115.75 -12.65 -116.15 -12.4 -116.5 -12.25 -116.85 -12.0 -117.25 -11.65 -117.65 -10.15 -119.15 -8.75 -120.5 -8.5 -120.65 Q-6.3 -121.75 -3.95 -122.5 L-2.0 -123.25 2.5 -123.25 3.1 -123.0 4.05 -122.4 M0.6 -45.95 L1.0 -45.65 1.35 -44.15 1.25 -42.25 1.25 -41.9 0.85 -41.15 0.45 -40.4 0.25 -40.0 0.25 -39.65 0.25 -39.25 -0.3 -38.55 -0.8 -37.95 -1.1 -37.4 -1.6 -36.3 -1.65 -36.15 1.75 -35.75 1.35 -35.6 1.0 -35.4 0.75 -35.3 1.1 -35.0 5.25 -35.0 6.75 -35.5 7.5 -35.75 8.1 -35.45 8.5 -35.15 8.7 -34.75 8.75 -34.4 8.75 -33.65 8.7 -33.3 8.5 -32.9 8.25 -32.5 8.25 -32.15 8.25 -31.75 8.25 -31.4 7.75 -30.7 7.05 -29.55 6.85 -29.15 5.35 -27.65 3.85 -26.15 Q2.65 -25.5 1.45 -24.95 L-0.5 -23.9 -6.0 -23.75 -6.75 -24.05 -7.75 -24.5 -8.15 -24.9 -8.4 -25.15 -12.25 -26.6 Q-12.75 -26.75 -13.25 -27.0 L-14.4 -27.0 -15.0 -26.75 -15.75 -27.05 -16.1 -27.35 -16.5 -27.25 -19.5 -27.25 -20.2 -27.6 -20.75 -28.25 -20.75 -28.65 -20.7 -28.95 -20.4 -29.4 -20.0 -29.6 -19.4 -29.9 -17.6 -33.3 Q-16.85 -34.5 -16.25 -35.9 L-16.25 -40.4 -16.25 -44.5 -16.2 -44.85 -16.0 -45.25 -15.75 -45.65 -15.75 -46.75 -15.7 -48.25 -15.65 -48.5 Q-20.45 -47.85 -24.75 -50.0 L-26.25 -51.5 -27.4 -52.65 -27.7 -53.05 -28.05 -53.75 -28.25 -54.15 -28.25 -54.5 -28.25 -54.9 -29.0 -56.45 -29.75 -58.25 -29.75 -60.5 -29.75 -63.5 -29.05 -64.3 -28.75 -64.5 -28.6 -65.0 -28.3 -65.0 -28.2 -65.15 -27.15 -66.35 -26.5 -66.75 -25.5 -66.75 -24.9 -66.45 -24.55 -66.1 -24.25 -65.75 -24.3 -65.4 -24.4 -65.0 -24.05 -65.0 -23.6 -64.25 -22.5 -62.25 -22.15 -61.9 -21.4 -61.15 -21.15 -60.9 -21.0 -60.8 -19.9 -60.1 -19.5 -59.75 -18.9 -59.5 -15.25 -59.5 Q-13.75 -59.8 -12.4 -60.4 L-11.65 -61.15 -10.9 -61.9 -10.25 -63.35 -9.25 -65.25 -9.25 -65.65 -9.25 -66.0 -8.9 -66.4 -8.5 -66.75 -8.3 -67.15 -8.25 -67.5 -8.25 -67.9 -8.0 -68.25 -7.75 -68.65 -7.75 -69.4 -7.7 -70.5 -7.5 -71.25 -7.5 -71.6 -7.65 -72.05 -7.75 -72.75 -7.6 -73.1 -7.25 -73.45 -6.5 -73.75 -6.05 -73.7 -5.4 -73.45 -5.0 -73.15 -4.85 -72.45 Q-4.25 -71.85 -4.0 -70.95 L-3.25 -69.15 -3.25 -67.65 -3.25 -65.75 -3.25 -65.4 -3.2 -65.05 -3.0 -64.65 -2.75 -64.25 -2.75 -60.15 -2.75 -56.0 -2.9 -55.65 -3.05 -55.25 -3.25 -54.9 -3.25 -54.15 -3.25 -53.0 -3.25 -52.65 -3.3 -52.3 -3.5 -51.9 -3.75 -51.5 -3.75 -51.15 -3.75 -50.75 -4.0 -50.4 -4.25 -50.0 -4.25 -49.65 -4.25 -49.25 -4.5 -48.9 -4.75 -48.5 -4.75 -48.15 -4.75 -47.75 -5.0 -47.4 -5.25 -47.0 -5.25 -46.65 -5.25 -46.25 -5.55 -45.9 -6.1 -45.1 -6.25 -44.75 -6.35 -44.55 -3.75 -44.5 -3.4 -44.9 -3.0 -45.25 -2.75 -45.5 -0.8 -46.05 0.0 -46.25 0.6 -45.95 M2.1 -28.4 L4.05 -30.2 5.25 -31.75 Q3.8 -32.5 -0.25 -32.5 L-0.65 -32.9 -0.9 -33.15 -1.5 -33.3 -2.25 -33.5 -2.65 -33.9 -3.4 -34.65 -3.75 -35.0 -3.75 -35.4 -3.75 -35.75 -3.75 -36.15 -3.75 -36.5 -3.65 -36.5 -3.75 -36.75 -3.75 -37.15 -3.75 -37.5 -3.7 -37.85 -3.5 -38.25 -3.25 -38.65 -3.25 -38.7 -3.25 -39.4 -3.05 -39.6 -2.75 -39.95 -2.2 -40.85 -1.25 -42.75 -1.9 -42.4 -3.0 -41.75 -8.5 -41.75 -10.15 -42.65 -10.75 -43.25 -10.75 -43.65 -10.7 -43.95 -10.4 -44.4 -9.65 -45.15 -8.9 -45.9 -8.75 -46.25 -8.65 -46.65 -8.25 -47.0 -7.9 -47.4 -7.8 -47.75 -7.75 -48.15 -7.75 -48.5 -7.45 -48.9 -7.25 -49.25 -7.25 -49.65 -7.25 -50.0 -6.95 -50.4 -6.75 -50.75 -6.75 -51.15 -6.75 -51.5 -6.45 -51.9 -6.25 -52.25 -6.25 -52.65 -6.25 -53.0 -5.95 -53.4 -5.75 -53.75 -5.75 -54.5 -5.75 -55.65 -5.75 -56.0 -5.7 -56.35 -5.5 -56.75 -5.25 -57.15 -5.25 -59.75 -5.25 -63.15 -5.4 -63.5 -5.6 -63.9 -5.75 -64.25 -5.75 -65.4 -5.75 -66.0 -5.9 -65.65 -6.05 -65.3 -6.4 -64.9 -6.75 -64.5 -7.45 -63.05 -8.5 -60.75 -8.9 -60.4 -9.25 -60.0 -9.65 -59.65 -9.8 -59.25 -10.0 -58.9 -11.15 -58.2 -12.0 -57.75 -12.0 -57.65 -12.1 -57.65 -14.5 -56.75 -19.0 -56.75 -20.5 -57.25 -21.25 -57.5 -21.65 -57.9 -22.0 -58.25 -22.4 -58.65 -23.25 -59.0 -23.65 -59.4 -24.0 -59.75 -24.4 -60.15 -24.7 -60.55 -24.8 -60.85 -25.0 -61.25 -25.4 -61.65 -25.75 -62.0 -25.8 -62.35 -26.0 -62.75 -26.2 -62.95 -26.65 -62.15 -27.0 -61.75 -27.25 -61.55 -27.25 -61.5 -27.25 -60.75 -27.25 -60.0 -27.2 -59.65 -27.05 -59.25 -26.75 -58.5 -26.75 -58.15 -26.75 -57.75 -26.1 -56.2 -25.15 -54.4 -24.0 -53.25 -23.0 -52.25 -21.5 -51.75 -20.9 -51.5 -15.75 -51.5 -13.9 -52.4 -13.0 -52.75 -12.55 -52.65 -11.5 -52.15 Q-11.05 -50.75 -11.95 -49.3 L-13.25 -46.9 -13.25 -46.5 -13.25 -45.75 -13.25 -45.0 -13.4 -44.65 -13.55 -44.25 -13.75 -43.9 -13.75 -39.4 -13.75 -34.9 -14.65 -32.65 Q-15.15 -31.5 -15.75 -30.5 L-13.0 -30.25 -12.45 -29.95 -12.0 -29.5 -7.0 -27.25 -5.4 -26.5 -0.9 -26.9 -0.5 -27.1 0.0 -27.25 0.75 -27.5 1.1 -27.85 1.5 -28.15 2.1 -28.4 M-55.0 -100.65 Q-54.6 -99.2 -54.7 -97.6 L-54.75 -94.65 -54.8 -94.25 -55.0 -93.9 -55.25 -93.5 -55.25 -93.15 -55.25 -92.75 -55.25 -92.0 -55.4 -91.65 -55.55 -91.25 -55.75 -90.9 -55.75 -90.5 -55.75 -90.15 -55.75 -89.4 Q-56.2 -88.1 -56.95 -87.0 -57.55 -86.0 -58.5 -85.25 L-58.75 -84.85 -59.1 -84.1 -59.25 -83.75 -59.25 -83.4 -59.25 -83.0 -59.25 -82.65 -57.8 -80.9 Q-57.25 -80.2 -57.25 -79.25 L-57.55 -78.95 -58.5 -78.25 -60.0 -78.25 -60.75 -78.55 -61.75 -79.0 -62.1 -79.4 -62.25 -79.75 -62.4 -80.15 -62.75 -80.5 -63.15 -80.9 -65.75 -82.0 -67.0 -82.4 -67.0 -83.0 -70.4 -83.0 Q-70.05 -82.1 -70.75 -81.25 L-72.25 -79.0 -72.25 -78.65 -72.25 -78.25 -72.95 -77.15 Q-73.35 -76.45 -73.25 -75.65 L-73.6 -74.9 -74.15 -74.15 -74.5 -73.9 -75.0 -73.85 -75.75 -74.05 -76.15 -74.4 -76.25 -74.75 -76.25 -75.15 -76.25 -75.5 -76.3 -75.85 -76.5 -76.25 -76.75 -76.65 -76.75 -78.9 -76.75 -81.9 -76.75 -82.25 -76.6 -82.6 -76.4 -83.0 -76.75 -83.0 -76.7 -83.35 -76.35 -84.15 -76.25 -84.5 -76.2 -84.5 -76.2 -84.85 -76.0 -85.25 -75.75 -85.5 -75.5 -85.6 -75.1 -85.65 -74.9 -86.0 -74.75 -86.35 -74.5 -86.75 -73.75 -87.5 -73.0 -88.25 -72.8 -88.65 -72.7 -88.95 -72.4 -89.4 -72.0 -89.6 -71.4 -89.9 -71.0 -90.25 -70.75 -90.5 -69.9 -90.9 -68.25 -91.5 -67.85 -91.85 -67.5 -92.15 Q-64.3 -92.6 -61.4 -93.9 L-61.0 -94.25 -60.65 -94.65 -60.25 -95.0 -59.4 -95.45 -59.0 -95.75 -58.5 -96.55 -57.75 -97.65 -57.75 -98.0 -57.75 -98.4 -57.5 -98.75 -57.25 -99.15 -57.25 -99.5 -57.25 -99.9 -57.15 -100.65 -56.75 -100.9 -56.05 -101.2 -56.0 -101.25 -55.4 -100.95 -55.0 -100.65 M-41.75 -103.5 L-42.0 -103.4 -42.65 -103.15 -43.0 -102.75 -43.25 -102.35 -43.4 -102.0 -43.65 -101.65 -43.85 -101.4 -44.2 -100.85 -44.25 -100.5 -44.25 -100.15 -44.35 -99.8 -44.75 -99.0 -44.7 -98.65 -44.55 -98.25 -44.4 -97.9 -44.25 -97.5 -44.25 -97.15 -44.25 -96.75 -44.15 -96.4 Q-43.6 -95.85 -43.05 -96.55 L-41.75 -98.0 -41.5 -98.15 -37.5 -98.25 Q-36.4 -97.85 -35.55 -96.95 -34.9 -96.25 -34.65 -95.4 L-32.25 -92.75 -31.15 -90.9 -30.75 -90.5 -30.4 -90.15 -30.15 -89.9 Q-29.3 -89.4 -28.35 -89.15 -27.25 -88.85 -26.4 -88.15 -22.5 -87.1 -18.9 -88.9 L-18.5 -89.25 -18.15 -89.65 -17.75 -90.0 -16.5 -90.6 -15.9 -90.9 -13.65 -93.15 -12.25 -94.5 -12.0 -94.6 -11.4 -94.9 -11.0 -95.15 -10.0 -94.85 -9.25 -94.25 -9.25 -93.9 -9.3 -93.5 -9.4 -93.15 -9.95 -92.4 -10.65 -91.65 Q-12.1 -89.3 -14.2 -87.45 L-16.75 -85.0 -17.65 -84.6 -18.65 -84.15 -21.25 -81.5 -21.75 -81.0 -21.5 -81.1 -20.9 -81.4 -20.5 -81.75 -20.15 -82.15 -19.75 -82.5 -18.5 -83.1 -17.9 -83.4 -17.5 -83.75 -17.25 -84.0 Q-12.65 -85.3 -8.4 -87.45 L-6.4 -88.4 -4.95 -89.9 -4.45 -90.35 -4.3 -90.65 -4.25 -91.0 -3.9 -91.4 -3.5 -91.75 -3.2 -92.45 -2.4 -94.0 -2.25 -94.4 -2.25 -94.75 -2.25 -95.15 -2.2 -95.45 -1.95 -95.9 -1.75 -96.25 -1.75 -97.0 -1.75 -98.5 -1.75 -99.25 -1.95 -99.6 -2.25 -100.0 -2.25 -100.4 -2.25 -100.75 -2.25 -101.15 -2.25 -101.5 -3.85 -104.8 -5.35 -107.85 -5.75 -108.65 -5.75 -109.0 -5.75 -109.4 -5.75 -109.75 -5.95 -110.1 -6.25 -110.5 -6.25 -110.9 -6.25 -111.25 -6.25 -111.65 -6.25 -112.0 -6.3 -112.35 -6.5 -112.75 -6.75 -113.15 -6.75 -114.65 -6.75 -116.5 -6.75 -117.65 -6.7 -117.95 -6.45 -118.4 -6.35 -118.55 -6.55 -118.45 Q-6.85 -118.25 -7.15 -118.15 L-7.5 -117.75 -8.65 -116.6 -9.75 -115.5 -9.9 -115.15 -10.0 -114.75 -10.4 -114.4 -10.75 -114.0 -11.15 -113.65 -11.3 -113.25 -11.5 -112.9 -11.75 -112.5 -11.75 -112.15 -11.75 -111.75 -12.0 -111.35 -12.4 -110.65 -12.75 -109.9 -12.75 -109.5 -12.75 -109.15 -12.75 -108.75 -12.75 -108.4 -12.9 -108.0 -13.1 -107.6 -13.25 -107.25 -13.25 -106.9 -13.25 -106.5 -13.25 -106.15 -13.25 -105.75 -13.25 -105.4 -13.4 -105.0 -13.6 -104.6 -13.75 -104.25 -13.75 -103.9 -13.75 -102.75 -13.75 -100.9 -13.75 -100.5 -13.9 -100.15 -14.25 -99.4 -14.65 -98.65 -14.75 -98.55 -14.75 -98.4 -14.8 -98.0 -14.9 -97.65 -15.05 -97.3 -15.4 -96.9 -15.75 -96.5 -15.9 -96.15 -16.0 -95.75 -16.4 -95.4 -16.75 -95.0 -17.15 -94.65 -17.5 -94.25 -17.75 -94.0 -18.65 -93.6 -19.0 -93.4 Q-19.75 -93.0 -20.55 -92.9 -21.9 -92.7 -23.0 -91.9 L-23.5 -91.8 -27.5 -91.75 -28.25 -92.05 -28.55 -92.2 -29.25 -92.55 -29.55 -92.7 -30.25 -93.0 -30.65 -93.4 -31.0 -93.75 -31.4 -94.15 -31.75 -94.5 -32.15 -94.9 -32.5 -95.25 -32.7 -95.65 -32.75 -96.0 -32.75 -96.4 -33.0 -96.75 -33.25 -97.15 -33.25 -97.5 -33.25 -97.9 -33.25 -98.25 -33.25 -98.65 -33.25 -99.0 -33.25 -100.15 -33.25 -101.25 -33.1 -101.6 -32.9 -102.0 -32.75 -102.35 -32.5 -102.75 -32.3 -103.15 -32.25 -103.5 -31.9 -103.9 -31.5 -104.25 -31.15 -104.65 -30.75 -105.0 -30.4 -105.4 -29.75 -106.0 -29.5 -106.1 -28.9 -106.4 -28.5 -106.75 -28.25 -107.0 -28.0 -107.15 -27.65 -107.4 -27.9 -107.55 -30.0 -107.85 -30.75 -108.0 -32.9 -108.0 -35.35 -107.45 -36.85 -106.95 -39.05 -105.9 -39.65 -105.65 -40.0 -105.25 -40.4 -104.9 -40.9 -104.5 -41.4 -104.15 -41.55 -103.8 -41.75 -103.5 M-81.2 -82.05 L-80.75 -81.25 -80.75 -80.9 -80.75 -79.4 Q-80.7 -78.4 -80.9 -77.5 L-81.15 -77.15 -81.85 -76.35 -83.0 -75.4 -83.5 -75.3 -85.0 -75.25 -85.75 -75.5 -86.15 -75.9 -86.4 -76.15 -86.55 -76.2 -87.25 -76.55 -87.65 -76.9 -87.75 -77.25 -87.8 -77.6 -88.1 -78.4 -88.25 -78.75 -88.25 -79.15 -88.25 -79.5 -88.25 -79.9 -88.25 -80.65 -88.2 -80.95 -87.95 -81.4 -87.75 -81.75 -87.65 -82.15 -87.25 -82.5 -86.55 -83.3 Q-86.15 -83.75 -85.5 -83.7 L-85.5 -83.75 -83.0 -83.75 -82.4 -83.45 -81.9 -83.15 -81.6 -82.7 -81.2 -82.05 M-85.4 -80.65 L-85.55 -80.25 -85.75 -79.9 -85.5 -79.15 -85.15 -78.4 -83.9 -78.0 -83.75 -78.35 -83.5 -78.75 -83.25 -79.15 -83.3 -79.9 -83.4 -80.65 Q-84.1 -81.6 -85.25 -81.0 L-85.4 -80.65 M-107.95 -12.6 L-106.9 -11.5 -106.8 -10.75 -106.75 -9.65 -106.75 -8.5 -106.9 -8.15 -107.25 -7.4 -107.65 -6.65 -108.45 -5.95 -109.5 -5.25 -111.5 -5.25 -112.25 -5.55 -112.65 -5.9 -113.0 -6.25 -113.2 -6.65 -113.25 -7.0 -113.25 -7.75 -113.25 -8.9 -113.25 -10.0 -112.15 -11.15 -110.75 -12.5 -110.5 -12.65 -109.5 -13.1 -109.0 -13.25 -107.95 -12.6 M-109.5 -9.9 L-110.1 -9.55 -110.75 -8.9 -110.75 -8.5 -110.75 -8.15 -110.75 -7.9 -109.9 -8.0 -109.45 -8.7 Q-109.15 -9.2 -109.35 -9.7 L-109.5 -9.9 M-81.5 -9.2 L-80.9 -9.0 -79.75 -7.5 -78.75 -5.65 -78.75 -4.9 -78.8 -3.75 -78.9 -3.0 -79.5 -2.25 Q-80.1 -1.5 -81.0 -1.25 L-83.0 -1.25 -84.0 -1.75 -85.15 -2.4 -85.7 -3.15 -86.1 -3.9 -86.25 -4.25 -86.25 -4.65 -86.25 -5.0 -86.25 -5.4 -86.25 -5.75 -85.65 -6.8 -85.1 -8.0 -84.9 -8.4 Q-83.95 -8.95 -82.75 -9.1 L-82.0 -9.25 -81.5 -9.2 M-81.7 -5.9 Q-81.9 -6.45 -82.5 -6.25 L-82.75 -6.15 -83.25 -5.4 Q-83.7 -4.75 -83.25 -4.25 -82.95 -4.05 -82.6 -4.0 L-81.75 -4.0 -81.25 -4.4 -81.7 -5.9 M-58.65 -92.65 Q-61.0 -90.3 -64.35 -89.8 -66.9 -89.4 -69.15 -88.15 L-69.5 -87.75 -69.75 -87.5 -70.0 -87.4 -70.65 -87.15 -71.2 -86.35 -71.4 -86.0 -71.65 -85.65 -72.4 -84.9 -72.75 -84.5 -73.15 -84.15 -73.55 -83.4 -73.75 -83.05 -73.75 -82.9 -73.75 -82.5 -73.9 -82.15 -74.05 -81.75 -74.2 -81.35 -74.25 -81.15 -73.7 -81.7 -72.95 -82.75 -72.65 -83.15 -72.25 -83.45 -71.5 -83.75 -71.3 -83.65 -71.0 -84.25 -70.75 -84.5 -70.5 -84.6 -69.9 -84.9 -69.5 -85.15 -66.5 -85.25 -64.0 -84.25 Q-63.0 -83.7 -61.9 -83.75 L-61.8 -84.0 -61.75 -84.4 -61.75 -84.75 -61.6 -85.1 -61.4 -85.5 -61.3 -85.9 -61.25 -86.25 -60.45 -87.45 -59.25 -88.5 -58.9 -88.9 -58.8 -89.25 -58.75 -89.65 -58.75 -90.0 -58.45 -90.4 -58.25 -90.75 -58.25 -91.5 -58.35 -92.25 -58.6 -92.7 -58.65 -92.65 M-40.55 -14.2 L-40.5 -14.25 -40.05 -14.2 -39.4 -14.0 -38.8 -13.25 -38.4 -12.5 -38.25 -12.15 -38.25 -11.9 Q-36.65 -9.4 -35.9 -6.45 -35.2 -3.65 -34.15 -0.9 L-33.4 -0.45 -32.25 0.5 -29.0 1.7 -28.25 2.25 -28.25 2.6 -28.3 3.0 -28.4 3.35 -28.55 3.7 -28.9 4.1 -29.25 4.5 -29.4 4.85 -29.5 5.25 -30.75 6.2 Q-31.5 6.6 -31.25 7.5 L-30.9 7.85 -30.65 8.1 -30.5 8.25 -29.5 8.75 -28.4 9.35 -27.0 9.75 -26.4 10.0 -25.75 10.0 -24.0 10.25 -19.5 8.85 -18.9 8.6 -18.5 8.25 -18.25 8.0 -18.0 7.9 -17.4 7.55 -17.0 7.25 -15.45 4.6 -14.25 1.6 -14.25 1.25 -14.25 0.85 -14.2 0.55 -13.95 0.1 -13.75 -0.25 -13.75 -0.65 -13.75 -1.0 -13.75 -1.4 -13.75 -1.5 -13.75 -1.9 -13.75 -2.15 -13.9 -2.5 -14.1 -2.9 -14.25 -3.25 -14.25 -3.65 -14.25 -4.0 -14.2 -4.0 -18.95 -17.3 -18.75 -17.5 -18.5 -17.6 -18.05 -17.7 -18.0 -17.75 -16.95 -17.4 Q-16.4 -17.2 -16.0 -16.75 L-15.4 -16.45 -14.9 -16.1 -14.5 -15.75 Q-13.2 -15.25 -12.3 -14.1 L-11.5 -13.25 -11.4 -12.9 -11.25 -12.5 -10.9 -12.15 -10.5 -11.75 -10.15 -11.4 -8.05 -7.25 Q-7.0 -5.25 -6.25 -3.15 L-6.25 -2.75 -6.25 -2.65 -6.25 -2.4 -6.25 -1.9 -6.25 -1.65 -6.25 -1.5 -6.25 -0.75 -6.25 0.0 -6.2 0.35 -6.05 0.75 -5.9 1.1 -5.75 1.5 -5.75 1.85 -5.75 2.25 -5.75 3.0 -5.75 3.35 -5.8 3.7 -6.0 4.1 -6.25 4.5 -6.25 5.25 -6.25 6.35 -6.25 7.1 -6.4 7.5 -6.6 7.9 -6.75 8.25 -6.75 8.6 -6.75 9.0 -6.75 9.75 -6.75 10.1 -8.15 13.4 -9.45 16.5 -9.65 16.85 -10.4 17.6 -11.15 18.35 -11.3 18.75 -11.5 19.1 -13.6 20.4 -14.65 20.85 -15.0 21.25 -15.25 21.5 Q-16.95 22.0 -18.55 22.65 L-20.5 23.25 Q-23.55 23.0 -26.5 23.25 -29.05 23.05 -31.15 21.8 L-31.75 21.25 -31.75 21.2 -32.25 21.0 -32.65 20.6 -32.9 20.35 -33.75 20.0 -34.75 19.5 -35.15 19.1 -35.4 18.85 -35.55 18.75 -36.25 18.5 -37.4 17.35 -38.5 16.25 -39.3 14.75 -40.25 12.85 -40.25 12.5 -40.25 12.1 -41.0 10.6 Q-41.25 9.65 -41.75 8.75 L-41.75 6.85 -41.75 4.25 -41.75 3.85 -41.7 3.55 -41.45 3.1 -41.25 2.75 -41.25 2.35 -41.25 2.0 -41.25 1.6 -41.25 1.25 -41.1 0.9 -40.9 0.5 -40.75 0.1 -40.75 -0.25 -40.75 -0.65 -40.7 -0.95 -40.45 -1.4 -40.25 -1.75 -40.25 -2.15 -40.25 -2.5 -40.25 -2.9 -40.25 -3.25 -40.1 -3.6 -39.9 -4.0 -39.75 -4.4 -39.75 -4.75 -39.75 -5.15 -39.75 -5.9 -39.75 -6.25 -39.95 -6.6 -40.25 -7.0 -40.25 -7.4 -40.25 -7.75 -40.25 -8.15 -40.25 -8.5 -40.3 -8.85 -40.5 -9.25 -40.75 -9.65 -40.75 -10.0 -40.75 -10.4 -40.75 -10.75 -41.45 -11.8 Q-41.9 -12.5 -41.75 -13.4 L-41.5 -13.75 -41.25 -13.95 -40.55 -14.2 M-26.9 -38.9 L-26.75 -38.5 -26.5 -38.3 -25.45 -37.55 -24.65 -36.9 -23.9 -36.5 -23.4 -36.1 -23.0 -35.75 -22.9 -35.4 -22.8 -34.65 -22.75 -33.15 -22.75 -32.75 -23.05 -32.4 -23.65 -31.65 -24.25 -31.0 -24.5 -30.9 -25.15 -30.65 -25.5 -30.25 Q-26.45 -29.2 -27.9 -28.95 L-28.5 -28.75 -30.0 -28.75 -30.75 -29.0 -32.75 -29.5 -33.15 -29.85 Q-34.7 -30.75 -35.9 -32.1 L-36.65 -32.9 -36.75 -33.25 -36.8 -33.6 -37.1 -34.4 -37.25 -34.75 -37.25 -35.15 -37.25 -35.9 -37.25 -37.0 -37.25 -37.4 -37.0 -37.75 -36.45 -38.55 -36.0 -39.25 -35.75 -39.45 -34.9 -39.9 -34.0 -40.25 -28.5 -40.25 -27.9 -39.95 -27.4 -39.65 -27.05 -39.25 -26.9 -38.9 M-34.15 -37.15 L-34.5 -36.75 -34.75 -36.4 -34.65 -35.7 -34.3 -34.5 -34.25 -34.15 -32.85 -32.7 -31.65 -31.9 -31.0 -31.75 -30.25 -31.5 -28.75 -31.5 -28.0 -31.75 -27.25 -32.0 -26.05 -33.2 -25.4 -33.9 -25.95 -34.6 -26.65 -35.4 -27.5 -35.75 -28.25 -36.0 -28.65 -36.4 -28.9 -36.65 -30.25 -37.1 -30.65 -37.4 -33.75 -37.5 -34.15 -37.15 M-37.75 -1.65 L-37.75 -1.25 -37.75 -0.9 -37.75 -0.5 -37.9 -0.15 -38.05 0.25 -38.2 0.65 -38.25 1.0 -38.25 1.35 -38.35 1.7 -38.75 2.5 -38.75 2.85 -38.75 3.25 -38.75 3.6 -38.75 4.0 -38.9 4.35 -39.05 4.75 -39.25 5.1 -39.25 5.5 -39.25 5.85 -39.25 6.6 -39.25 7.0 -38.9 8.5 -37.75 10.75 -37.75 11.1 -37.75 11.5 Q-37.15 12.35 -36.7 13.35 L-35.65 15.6 -34.4 16.4 -34.0 16.75 -32.4 17.55 Q-31.9 17.8 -31.5 18.25 -29.9 18.75 -28.4 19.5 -27.85 19.75 -27.55 20.25 L-25.0 20.25 -24.4 20.5 -20.75 20.5 Q-18.5 20.05 -16.5 18.9 L-15.9 18.6 -15.5 18.25 -15.25 18.0 -14.55 17.7 -13.4 17.1 -13.05 16.75 -12.8 16.35 -12.75 16.0 -12.4 15.6 -12.0 15.25 -11.8 14.85 -11.75 14.5 -11.4 14.1 -11.0 13.75 -10.8 13.35 -10.75 13.0 -10.75 12.6 -10.35 11.85 -9.75 10.75 -9.75 10.35 -9.75 10.0 -9.7 9.65 -9.5 9.25 -9.25 8.85 -9.25 8.5 -9.25 8.1 -9.25 7.35 -9.25 7.0 -9.2 6.65 -9.0 6.25 -8.75 5.85 -8.75 5.1 -8.75 4.0 -8.75 3.25 -8.6 2.9 -8.4 2.5 -8.6 2.1 -8.75 1.75 -8.75 0.6 -8.75 -0.9 -8.75 -1.5 -8.75 -1.65 -8.9 -2.0 -8.95 -2.1 -9.25 -2.5 -9.25 -2.75 -9.25 -2.9 -9.25 -3.15 -9.25 -3.25 -9.25 -3.5 -9.25 -3.65 -10.4 -5.8 -11.4 -8.15 -11.75 -8.5 -12.15 -8.9 -12.45 -9.6 -12.8 -10.2 -13.05 -9.9 -13.4 -9.55 -13.45 -9.5 -13.15 -8.7 -11.25 -3.5 -11.25 -3.15 -11.25 -3.0 -11.25 -2.75 -11.25 -2.4 -11.25 -2.0 -11.25 -1.9 -11.2 -1.65 -11.15 -1.5 -11.25 -1.5 -11.25 -0.4 -11.25 0.35 -11.3 0.7 -11.5 1.1 -11.75 1.5 -11.75 1.85 -11.75 2.25 -11.75 2.6 -12.6 5.3 Q-13.05 7.05 -14.5 8.25 L-14.75 8.65 -14.9 9.0 -15.15 9.35 -15.5 9.75 -15.75 10.0 -16.65 10.4 -17.65 10.85 -18.0 11.25 -18.25 11.5 Q-20.25 12.3 -22.4 12.55 L-23.0 12.75 -24.5 12.75 -24.75 12.65 -25.0 12.75 -26.5 12.75 -29.75 12.0 -30.15 11.6 -30.4 11.35 -30.55 11.25 -31.25 11.0 -32.8 9.5 -33.75 8.35 -33.75 8.0 -33.75 7.6 -33.75 7.25 -33.95 6.9 -34.2 6.45 -34.25 6.1 -34.2 5.75 -33.75 5.0 -33.4 4.6 -33.0 4.4 -32.45 4.05 -32.15 3.75 -32.3 3.55 Q-32.65 3.35 -33.0 3.25 L-33.75 3.0 -35.65 1.1 -37.15 -0.4 -37.25 -0.75 -37.45 -1.5 -37.7 -2.1 -37.75 -2.0 -37.75 -1.65 M-19.15 -16.2 L-19.2 -16.8 -18.85 -15.7 -19.15 -16.2 M-39.4 24.5 L-39.25 24.85 -39.25 25.25 -39.25 25.6 -39.25 26.0 -39.25 26.35 -39.3 26.7 -39.5 27.1 -39.75 27.5 -39.75 27.85 -39.75 28.25 -40.0 28.6 -40.25 29.0 -40.25 29.35 -40.25 29.75 -40.25 30.1 -40.25 30.5 -40.55 31.25 -40.7 31.65 -40.75 32.35 Q-41.2 33.55 -42.05 34.6 L-44.15 36.85 -44.55 37.1 -45.0 37.25 -45.75 37.5 -46.15 37.85 -46.5 38.1 -52.5 39.75 -58.5 39.75 -61.55 38.3 -63.25 37.5 -64.4 36.35 -65.5 35.25 -65.75 34.85 -65.9 34.5 -66.15 34.1 -66.5 33.75 -66.9 33.35 -67.2 32.95 -67.25 32.6 -67.25 32.25 -67.7 31.45 -68.05 30.75 -68.25 30.35 -68.25 30.0 -68.25 29.6 -68.25 29.25 -68.7 28.45 -69.05 27.75 -69.25 27.35 -69.25 26.6 -69.25 25.85 -69.25 24.75 -68.9 24.0 -68.45 23.25 -68.15 22.85 -67.75 22.55 -67.0 22.25 -65.95 22.95 Q-65.55 23.2 -63.5 26.35 L-63.15 26.6 Q-62.55 26.45 -62.65 25.75 L-62.75 24.25 -62.75 23.85 -62.7 23.55 -62.45 23.1 -62.25 22.75 -62.25 22.35 -62.25 22.0 -62.25 21.25 -61.55 19.75 -60.65 17.85 -60.25 17.5 -59.9 17.1 -59.75 16.75 -59.65 16.35 -57.75 14.5 -56.75 13.5 -56.5 13.4 -55.9 13.1 -55.5 12.75 -55.15 12.35 -54.75 12.0 Q-52.8 10.95 -50.5 10.8 L-50.5 10.75 -49.95 11.05 -49.7 11.25 -48.0 11.25 -47.4 11.55 -47.05 11.9 -46.75 12.25 -46.75 12.6 -46.8 13.0 -46.9 13.35 -47.0 13.75 -47.3 13.9 Q-49.0 14.5 -50.65 15.35 L-51.65 15.85 -52.0 16.25 -52.4 16.6 -52.75 17.0 -52.9 17.35 -53.8 19.2 -54.75 21.1 -54.75 21.5 -54.75 22.25 -54.75 23.35 -54.75 23.75 -54.6 24.1 -54.1 24.9 -53.25 26.0 -53.0 26.15 Q-51.7 26.6 -50.5 27.2 L-49.9 27.5 -46.25 27.5 -45.4 27.1 -44.0 26.4 -43.4 26.1 -43.05 25.75 -42.8 25.35 -42.75 25.0 -42.5 24.75 -42.7 24.0 -42.75 23.6 -42.5 23.25 -42.25 23.0 -42.0 22.9 -41.5 22.75 -41.05 22.8 -40.4 23.0 -39.8 23.75 -39.4 24.5 M-55.75 16.5 L-56.0 16.75 -57.15 17.85 -58.6 20.55 -59.2 21.65 -59.75 22.75 -59.75 23.1 -59.75 23.5 -59.9 23.85 -60.05 24.25 -60.25 24.6 -60.2 24.95 -60.0 25.35 -59.75 25.75 -59.75 26.1 -59.75 26.5 -58.95 27.45 Q-58.35 28.2 -58.25 29.1 L-58.4 29.5 -58.65 29.85 -59.0 30.1 -61.0 30.25 -64.5 28.7 -65.65 28.1 -66.15 27.3 Q-66.4 26.75 -66.0 26.3 L-66.65 25.85 -65.8 28.5 -64.75 31.5 -64.4 31.85 -64.0 32.25 -63.9 32.6 -63.75 33.0 -63.0 33.75 -61.9 34.85 -61.65 35.1 -59.9 36.05 -57.9 37.0 -53.25 37.0 Q-50.45 36.5 -47.75 35.5 L-47.35 35.15 -47.0 34.85 -46.5 34.75 -45.75 34.5 -45.4 34.1 -45.0 33.75 -44.65 33.35 -44.2 32.65 -43.65 31.85 -43.4 31.5 -43.25 30.75 -43.1 30.35 -42.75 29.6 -42.75 29.25 -42.75 29.0 -43.0 29.1 -44.0 29.6 -45.0 30.1 -45.5 30.2 -50.5 30.25 -51.25 29.95 -54.05 28.75 -54.75 28.5 -55.15 28.1 -55.5 27.75 -55.9 27.35 -56.2 26.95 -56.3 26.65 -56.5 26.25 -56.9 25.85 -57.25 25.5 -57.25 25.1 -57.25 22.85 -57.25 21.0 -57.25 20.25 -57.15 19.85 -56.3 18.05 -55.75 16.5 M-64.4 5.1 L-64.25 5.5 -63.75 6.25 -63.75 7.0 -63.75 8.1 -63.75 10.0 -64.5 12.65 Q-65.25 15.45 -68.0 16.6 L-68.5 16.7 -70.0 16.75 -70.75 16.45 -71.15 16.1 -71.5 15.75 -71.7 15.35 -71.75 15.0 -71.75 14.6 -72.0 14.25 -72.25 13.85 -72.25 13.5 -72.25 13.1 -72.25 12.75 -72.25 12.0 -72.25 11.25 -72.15 10.85 -72.0 10.5 -71.75 10.1 -71.75 9.75 -71.75 9.35 -71.75 9.0 -71.75 8.6 -71.75 8.25 -71.65 7.85 -71.5 7.5 -71.3 7.1 -71.25 6.75 -71.25 6.35 -71.2 6.05 -70.9 5.6 -70.5 5.25 -70.15 4.85 -69.9 4.5 -69.75 4.15 -69.5 3.75 -69.0 3.4 -68.5 3.25 -67.5 3.25 -66.05 3.8 -64.9 4.35 -64.55 4.75 -64.4 5.1 M-66.4 6.85 L-66.85 6.45 -68.15 6.35 -68.65 7.15 -68.75 7.85 -69.0 8.25 -69.15 8.6 -69.25 9.0 -69.25 9.35 -69.25 10.1 -69.25 10.5 -69.5 11.25 -69.7 12.0 -69.75 12.35 -69.6 13.1 -69.2 13.85 -69.0 14.0 -68.55 13.8 -67.65 13.25 -67.0 11.35 -66.25 9.5 -66.25 8.35 -66.3 7.25 -66.4 6.85 M-78.9 21.6 L-78.75 22.0 -78.4 22.35 -78.0 22.75 -77.6 23.8 -77.0 25.35 -76.75 25.75 -76.75 26.1 -76.75 26.5 -76.5 26.85 -76.25 27.25 -76.25 27.6 -76.25 28.0 -76.0 28.35 -75.75 28.75 -75.75 31.35 -75.75 34.75 -75.75 35.5 -75.9 35.85 -76.05 36.25 -76.25 36.6 -76.25 37.0 -76.25 37.35 -76.25 37.75 -76.25 38.1 -77.0 39.65 -77.9 41.5 -78.15 41.85 -78.95 42.55 -80.0 43.25 -81.25 42.9 -82.65 42.1 -82.8 38.75 -82.75 34.25 -82.75 33.85 -84.0 33.25 Q-84.6 32.95 -85.15 32.6 L-85.25 32.25 -85.25 31.85 -85.25 31.5 -85.25 31.1 -83.8 28.85 -82.75 26.6 -82.75 26.25 -82.75 25.85 -82.75 25.5 -82.65 25.1 -82.75 24.35 -82.75 23.6 -82.65 22.85 -82.3 22.1 -82.25 21.35 -82.25 21.0 -81.85 20.65 -81.5 20.45 -81.05 20.3 -81.0 20.25 -80.55 20.3 Q-80.2 20.35 -79.9 20.55 L-79.4 20.85 -79.05 21.25 -78.9 21.6 M-80.2 27.0 L-80.25 27.35 -80.25 27.75 -80.5 28.1 -80.75 28.5 -80.75 28.85 -80.75 29.25 -81.0 29.6 -81.4 30.35 Q-81.35 31.1 -80.75 31.85 -80.4 32.35 -80.25 33.0 L-80.25 36.35 -80.25 39.35 -79.5 38.25 -78.75 36.75 -78.75 36.0 -78.75 35.25 -78.6 34.9 -78.4 34.5 -78.25 34.1 -78.25 32.25 -78.25 30.35 -78.9 28.05 Q-79.15 26.8 -80.0 26.6 L-80.2 27.0 M-80.0 65.25 L-79.9 65.6 -79.75 66.0 -79.4 66.35 -79.0 66.75 -78.9 67.1 -78.75 67.45 -78.5 67.85 -78.25 68.25 -78.25 68.6 -78.25 69.35 -78.25 70.1 -78.25 70.5 -78.3 70.85 -78.6 71.6 -78.9 72.35 -79.0 72.75 -79.4 73.1 -80.1 73.9 -81.0 74.6 -81.5 74.7 -83.0 74.75 -83.75 74.5 -85.25 74.0 -85.6 73.6 -85.75 73.25 -85.9 72.85 -86.25 72.5 -86.65 72.1 -86.75 71.75 -86.8 71.4 -87.1 70.6 -87.25 70.25 -87.25 69.85 -87.25 69.1 -87.25 68.0 -87.25 67.25 -87.1 66.85 -86.9 66.45 -86.75 66.1 -86.5 65.75 -86.15 65.35 -85.75 65.0 -85.7 64.6 -85.75 64.25 -85.75 63.85 -85.75 63.5 -85.35 63.15 Q-85.2 63.0 -85.0 62.95 L-84.5 62.8 -84.5 62.75 -83.0 62.75 Q-82.45 63.05 -81.95 63.45 L-80.4 64.85 -80.0 65.25 M-80.8 69.4 L-81.1 68.6 -81.4 67.85 -81.75 67.5 -82.15 67.1 -82.25 66.75 -82.3 66.5 -82.4 66.4 -82.65 66.4 -82.9 66.5 Q-83.25 66.65 -83.6 66.9 L-84.5 67.6 -84.7 68.0 -84.75 68.35 -84.75 69.1 -84.7 69.45 -84.5 69.85 -84.25 70.25 -84.25 70.6 -84.2 70.95 -83.9 71.35 -83.65 71.6 -83.5 71.7 -82.9 72.0 -82.25 72.0 -81.4 71.6 -81.25 71.25 -81.0 70.5 -80.75 69.75 -80.8 69.4 M-89.25 5.5 L-89.25 6.6 -89.25 7.35 -89.55 8.1 -89.75 8.5 -89.9 8.85 -90.0 9.25 -90.9 9.95 -91.65 10.4 -92.0 10.6 -94.5 10.75 -95.5 10.25 -96.5 9.75 -97.25 9.5 -98.05 8.4 -98.75 6.85 -99.25 5.75 -99.25 5.35 -99.25 5.0 -99.0 4.25 -98.65 3.55 Q-98.25 3.05 -98.15 2.35 L-97.75 2.0 -97.4 1.6 -97.0 1.25 -96.75 1.0 -96.0 0.8 -94.05 0.3 -94.0 0.25 -92.0 0.7 Q-90.9 1.15 -90.15 2.1 L-89.75 2.85 -89.55 3.25 -89.4 3.6 -89.25 4.0 -89.25 4.75 -89.25 5.5 M-96.05 4.25 L-96.4 5.0 Q-96.5 5.75 -96.05 6.6 L-95.25 7.5 -94.5 7.75 -93.9 8.0 -93.25 8.0 -92.0 7.25 Q-91.6 6.6 -91.6 5.75 -91.6 4.9 -92.0 4.25 L-92.3 3.95 -92.6 3.9 -93.0 4.1 -93.5 4.15 -94.25 4.0 -94.6 3.6 -94.75 3.35 -95.65 3.4 -95.75 3.5 -96.05 4.25 M-132.0 63.25 L-130.5 63.25 -127.0 63.25 -126.0 63.65 -125.7 63.75 -123.5 63.75 -122.9 64.05 Q-122.0 64.65 -121.25 65.5 L-120.5 66.25 -120.4 66.6 -120.25 67.0 -120.0 67.35 -119.75 67.75 -119.75 68.1 -119.75 68.5 -119.75 68.85 -119.75 69.6 -119.9 70.0 Q-120.35 71.05 -121.1 71.9 -121.9 72.8 -123.0 73.25 L-126.0 73.25 -126.75 73.0 -127.15 72.6 -127.9 71.85 -128.65 71.1 -128.75 70.75 -128.8 70.4 -129.1 69.6 -129.25 69.25 -129.25 68.85 -129.25 68.1 -129.25 67.7 -130.5 67.75 -131.25 67.5 -131.65 67.1 -132.0 66.75 -132.4 66.35 -132.75 65.6 -132.95 65.2 -133.2 64.5 -133.25 64.1 -133.0 63.75 -132.75 63.5 -132.5 63.4 -132.0 63.3 -132.0 63.25 M-124.0 66.6 L-124.4 66.95 -125.0 67.25 -125.75 67.0 -126.35 67.1 -126.6 67.4 -126.75 67.75 -126.7 68.5 -126.55 69.25 -125.9 70.35 -123.75 70.5 -123.3 70.1 -123.0 69.75 -122.65 69.35 Q-122.25 68.85 -122.45 68.15 -122.7 67.3 -123.4 66.65 L-124.0 66.6 M-146.3 51.75 L-146.25 52.1 -146.3 52.5 -146.4 52.85 -146.3 53.6 -146.2 54.35 Q-146.15 54.95 -146.4 55.5 L-146.65 55.85 -147.0 56.1 -147.65 56.35 -148.0 56.75 -148.25 57.0 -149.15 57.4 -150.1 57.9 -150.5 58.1 -154.0 58.25 -154.75 58.0 -155.1 57.6 -155.25 57.25 -155.45 56.9 -155.75 56.5 -155.75 55.75 -155.75 54.6 -155.75 53.5 -155.4 53.1 -155.0 52.75 -154.75 52.5 Q-152.75 51.4 -150.45 50.9 L-148.5 50.25 -147.5 50.75 -146.5 51.35 -146.3 51.75 M-151.85 54.1 L-153.0 54.75 -153.05 55.1 -152.85 55.35 -151.25 55.5 -150.4 55.1 -150.0 54.85 -149.0 54.25 -149.0 53.9 -149.3 53.6 -150.15 53.45 -150.4 53.5 -151.85 54.1" fill="#ffcc00" fill-rule="evenodd" stroke="none"/>
    <path d="M2.1 -28.4 L1.5 -28.15 1.1 -27.85 0.75 -27.5 0.0 -27.25 -0.5 -27.1 -0.9 -26.9 -5.4 -26.5 -7.0 -27.25 -12.0 -29.5 -12.45 -29.95 -13.0 -30.25 -15.75 -30.5 Q-15.15 -31.5 -14.65 -32.65 L-13.75 -34.9 -13.75 -39.4 -13.75 -43.9 -13.55 -44.25 -13.4 -44.65 -13.25 -45.0 -13.25 -45.75 -13.25 -46.5 -13.25 -46.9 -11.95 -49.3 Q-11.05 -50.75 -11.5 -52.15 L-12.55 -52.65 -13.0 -52.75 -13.9 -52.4 -15.75 -51.5 -20.9 -51.5 -21.5 -51.75 -23.0 -52.25 -24.0 -53.25 -25.15 -54.4 -26.1 -56.2 -26.75 -57.75 -26.75 -58.15 -26.75 -58.5 -27.05 -59.25 -27.2 -59.65 -27.25 -60.0 -27.25 -60.75 -27.25 -61.5 -27.25 -61.55 -27.0 -61.75 -26.65 -62.15 -26.2 -62.95 -26.0 -62.75 -25.8 -62.35 -25.75 -62.0 -25.4 -61.65 -25.0 -61.25 -24.8 -60.85 -24.7 -60.55 -24.4 -60.15 -24.0 -59.75 -23.65 -59.4 -23.25 -59.0 -22.4 -58.65 -22.0 -58.25 -21.65 -57.9 -21.25 -57.5 -20.5 -57.25 -19.0 -56.75 -14.5 -56.75 -12.1 -57.65 -12.0 -57.65 -12.0 -57.75 -11.15 -58.2 -10.0 -58.9 -9.8 -59.25 -9.65 -59.65 -9.25 -60.0 -8.9 -60.4 -8.5 -60.75 -7.45 -63.05 -6.75 -64.5 -6.4 -64.9 -6.05 -65.3 -5.9 -65.65 -5.75 -66.0 -5.75 -65.4 -5.75 -64.25 -5.6 -63.9 -5.4 -63.5 -5.25 -63.15 -5.25 -59.75 -5.25 -57.15 -5.5 -56.75 -5.7 -56.35 -5.75 -56.0 -5.75 -55.65 -5.75 -54.5 -5.75 -53.75 -5.95 -53.4 -6.25 -53.0 -6.25 -52.65 -6.25 -52.25 -6.45 -51.9 -6.75 -51.5 -6.75 -51.15 -6.75 -50.75 -6.95 -50.4 -7.25 -50.0 -7.25 -49.65 -7.25 -49.25 -7.45 -48.9 -7.75 -48.5 -7.75 -48.15 -7.8 -47.75 -7.9 -47.4 -8.25 -47.0 -8.65 -46.65 -8.75 -46.25 -8.9 -45.9 -9.65 -45.15 -10.4 -44.4 -10.7 -43.95 -10.75 -43.65 -10.75 -43.25 -10.15 -42.65 -8.5 -41.75 -3.0 -41.75 -1.9 -42.4 -1.25 -42.75 -2.2 -40.85 -2.75 -39.95 -3.05 -39.6 -3.25 -39.4 -3.25 -38.7 -3.25 -38.65 -3.5 -38.25 -3.7 -37.85 -3.75 -37.5 -3.75 -37.15 -3.75 -36.75 -3.65 -36.5 -3.75 -36.5 -3.75 -36.15 -3.75 -35.75 -3.75 -35.4 -3.75 -35.0 -3.4 -34.65 -2.65 -33.9 -2.25 -33.5 -1.5 -33.3 -0.9 -33.15 -0.65 -32.9 -0.25 -32.5 Q3.8 -32.5 5.25 -31.75 L4.05 -30.2 2.1 -28.4 M-41.75 -103.5 L-41.55 -103.8 -41.4 -104.15 -40.9 -104.5 -40.4 -104.9 -40.0 -105.25 -39.65 -105.65 -39.05 -105.9 -36.85 -106.95 -35.35 -107.45 -32.9 -108.0 -30.75 -108.0 -30.0 -107.85 -27.9 -107.55 -27.65 -107.4 -28.0 -107.15 -28.25 -107.0 -28.5 -106.75 -28.9 -106.4 -29.5 -106.1 -29.75 -106.0 -30.4 -105.4 -30.75 -105.0 -31.15 -104.65 -31.5 -104.25 -31.9 -103.9 -32.25 -103.5 -32.3 -103.15 -32.5 -102.75 -32.75 -102.35 -32.9 -102.0 -33.1 -101.6 -33.25 -101.25 -33.25 -100.15 -33.25 -99.0 -33.25 -98.65 -33.25 -98.25 -33.25 -97.9 -33.25 -97.5 -33.25 -97.15 -33.0 -96.75 -32.75 -96.4 -32.75 -96.0 -32.7 -95.65 -32.5 -95.25 -32.15 -94.9 -31.75 -94.5 -31.4 -94.15 -31.0 -93.75 -30.65 -93.4 -30.25 -93.0 -29.55 -92.7 -29.25 -92.55 -28.55 -92.2 -28.25 -92.05 -27.5 -91.75 -23.5 -91.8 -23.0 -91.9 Q-21.9 -92.7 -20.55 -92.9 -19.75 -93.0 -19.0 -93.4 L-18.65 -93.6 -17.75 -94.0 -17.5 -94.25 -17.15 -94.65 -16.75 -95.0 -16.4 -95.4 -16.0 -95.75 -15.9 -96.15 -15.75 -96.5 -15.4 -96.9 -15.05 -97.3 -14.9 -97.65 -14.8 -98.0 -14.75 -98.4 -14.75 -98.55 -14.65 -98.65 -14.25 -99.4 -13.9 -100.15 -13.75 -100.5 -13.75 -100.9 -13.75 -102.75 -13.75 -103.9 -13.75 -104.25 -13.6 -104.6 -13.4 -105.0 -13.25 -105.4 -13.25 -105.75 -13.25 -106.15 -13.25 -106.5 -13.25 -106.9 -13.25 -107.25 -13.1 -107.6 -12.9 -108.0 -12.75 -108.4 -12.75 -108.75 -12.75 -109.15 -12.75 -109.5 -12.75 -109.9 -12.4 -110.65 -12.0 -111.35 -11.75 -111.75 -11.75 -112.15 -11.75 -112.5 -11.5 -112.9 -11.3 -113.25 -11.15 -113.65 -10.75 -114.0 -10.4 -114.4 -10.0 -114.75 -9.9 -115.15 -9.75 -115.5 -8.65 -116.6 -7.5 -117.75 -7.15 -118.15 Q-6.85 -118.25 -6.55 -118.45 L-6.35 -118.55 -6.45 -118.4 -6.7 -117.95 -6.75 -117.65 -6.75 -116.5 -6.75 -114.65 -6.75 -113.15 -6.5 -112.75 -6.3 -112.35 -6.25 -112.0 -6.25 -111.65 -6.25 -111.25 -6.25 -110.9 -6.25 -110.5 -5.95 -110.1 -5.75 -109.75 -5.75 -109.4 -5.75 -109.0 -5.75 -108.65 -5.35 -107.85 -3.85 -104.8 -2.25 -101.5 -2.25 -101.15 -2.25 -100.75 -2.25 -100.4 -2.25 -100.0 -1.95 -99.6 -1.75 -99.25 -1.75 -98.5 -1.75 -97.0 -1.75 -96.25 -1.95 -95.9 -2.2 -95.45 -2.25 -95.15 -2.25 -94.75 -2.25 -94.4 -2.4 -94.0 -3.2 -92.45 -3.5 -91.75 -3.9 -91.4 -4.25 -91.0 -4.3 -90.65 -4.45 -90.35 -4.95 -89.9 -6.4 -88.4 -8.4 -87.45 Q-12.65 -85.3 -17.25 -84.0 L-17.5 -83.75 -17.9 -83.4 -18.5 -83.1 -19.75 -82.5 -20.15 -82.15 -20.5 -81.75 -20.9 -81.4 -21.5 -81.1 -21.75 -81.0 -21.25 -81.5 -18.65 -84.15 -17.65 -84.6 -16.75 -85.0 -14.2 -87.45 Q-12.1 -89.3 -10.65 -91.65 L-9.95 -92.4 -9.4 -93.15 -9.3 -93.5 -9.25 -93.9 -9.25 -94.25 -10.0 -94.85 -11.0 -95.15 -11.4 -94.9 -12.0 -94.6 -12.25 -94.5 -13.65 -93.15 -15.9 -90.9 -16.5 -90.6 -17.75 -90.0 -18.15 -89.65 -18.5 -89.25 -18.9 -88.9 Q-22.5 -87.1 -26.4 -88.15 -27.25 -88.85 -28.35 -89.15 -29.3 -89.4 -30.15 -89.9 L-30.4 -90.15 -30.75 -90.5 -31.15 -90.9 -32.25 -92.75 -34.65 -95.4 Q-34.9 -96.25 -35.55 -96.95 -36.4 -97.85 -37.5 -98.25 L-41.5 -98.15 -41.75 -98.0 -43.05 -96.55 Q-43.6 -95.85 -44.15 -96.4 L-44.25 -96.75 -44.25 -97.15 -44.25 -97.5 -44.4 -97.9 -44.55 -98.25 -44.7 -98.65 -44.75 -99.0 -44.35 -99.8 -44.25 -100.15 -44.25 -100.5 -44.2 -100.85 -43.85 -101.4 -43.65 -101.65 -43.4 -102.0 -43.25 -102.35 -43.0 -102.75 -42.65 -103.15 -42.0 -103.4 -41.75 -103.5 M-85.4 -80.65 L-85.25 -81.0 Q-84.1 -81.6 -83.4 -80.65 L-83.3 -79.9 -83.25 -79.15 -83.5 -78.75 -83.75 -78.35 -83.9 -78.0 -85.15 -78.4 -85.5 -79.15 -85.75 -79.9 -85.55 -80.25 -85.4 -80.65 M-109.5 -9.9 L-109.35 -9.7 Q-109.15 -9.2 -109.45 -8.7 L-109.9 -8.0 -110.75 -7.9 -110.75 -8.15 -110.75 -8.5 -110.75 -8.9 -110.1 -9.55 -109.5 -9.9 M-58.65 -92.65 L-58.6 -92.7 -58.35 -92.25 -58.25 -91.5 -58.25 -90.75 -58.45 -90.4 -58.75 -90.0 -58.75 -89.65 -58.8 -89.25 -58.9 -88.9 -59.25 -88.5 -60.45 -87.45 -61.25 -86.25 -61.3 -85.9 -61.4 -85.5 -61.6 -85.1 -61.75 -84.75 -61.75 -84.4 -61.8 -84.0 -61.9 -83.75 Q-63.0 -83.7 -64.0 -84.25 L-66.5 -85.25 -69.5 -85.15 -69.9 -84.9 -70.5 -84.6 -70.75 -84.5 -71.0 -84.25 -71.3 -83.65 -71.5 -83.75 -72.25 -83.45 -72.65 -83.15 -72.95 -82.75 -73.7 -81.7 -74.25 -81.15 -74.2 -81.35 -74.05 -81.75 -73.9 -82.15 -73.75 -82.5 -73.75 -82.9 -73.75 -83.05 -73.55 -83.4 -73.15 -84.15 -72.75 -84.5 -72.4 -84.9 -71.65 -85.65 -71.4 -86.0 -71.2 -86.35 -70.65 -87.15 -70.0 -87.4 -69.75 -87.5 -69.5 -87.75 -69.15 -88.15 Q-66.9 -89.4 -64.35 -89.8 -61.0 -90.3 -58.65 -92.65 M-81.7 -5.9 L-81.25 -4.4 -81.75 -4.0 -82.6 -4.0 Q-82.95 -4.05 -83.25 -4.25 -83.7 -4.75 -83.25 -5.4 L-82.75 -6.15 -82.5 -6.25 Q-81.9 -6.45 -81.7 -5.9 M-37.75 -1.65 L-37.75 -2.0 -37.7 -2.1 -37.45 -1.5 -37.25 -0.75 -37.15 -0.4 -35.65 1.1 -33.75 3.0 -33.0 3.25 Q-32.65 3.35 -32.3 3.55 L-32.15 3.75 -32.45 4.05 -33.0 4.4 -33.4 4.6 -33.75 5.0 -34.2 5.75 -34.25 6.1 -34.2 6.45 -33.95 6.9 -33.75 7.25 -33.75 7.6 -33.75 8.0 -33.75 8.35 -32.8 9.5 -31.25 11.0 -30.55 11.25 -30.4 11.35 -30.15 11.6 -29.75 12.0 -26.5 12.75 -25.0 12.75 -24.75 12.65 -24.5 12.75 -23.0 12.75 -22.4 12.55 Q-20.25 12.3 -18.25 11.5 L-18.0 11.25 -17.65 10.85 -16.65 10.4 -15.75 10.0 -15.5 9.75 -15.15 9.35 -14.9 9.0 -14.75 8.65 -14.5 8.25 Q-13.05 7.05 -12.6 5.3 L-11.75 2.6 -11.75 2.25 -11.75 1.85 -11.75 1.5 -11.5 1.1 -11.3 0.7 -11.25 0.35 -11.25 -0.4 -11.25 -1.5 -11.15 -1.5 -11.2 -1.65 -11.25 -1.9 -11.25 -2.0 -11.25 -2.4 -11.25 -2.75 -11.25 -3.0 -11.25 -3.15 -11.25 -3.5 -13.15 -8.7 -13.45 -9.5 -13.4 -9.55 -13.05 -9.9 -12.8 -10.2 -12.45 -9.6 -12.15 -8.9 -11.75 -8.5 -11.4 -8.15 -10.4 -5.8 -9.25 -3.65 -9.25 -3.5 -9.25 -3.25 -9.25 -3.15 -9.25 -2.9 -9.25 -2.75 -9.25 -2.5 -8.95 -2.1 -8.9 -2.0 -8.75 -1.65 -8.75 -1.5 -8.75 -0.9 -8.75 0.6 -8.75 1.75 -8.6 2.1 -8.4 2.5 -8.6 2.9 -8.75 3.25 -8.75 4.0 -8.75 5.1 -8.75 5.85 -9.0 6.25 -9.2 6.65 -9.25 7.0 -9.25 7.35 -9.25 8.1 -9.25 8.5 -9.25 8.85 -9.5 9.25 -9.7 9.65 -9.75 10.0 -9.75 10.35 -9.75 10.75 -10.35 11.85 -10.75 12.6 -10.75 13.0 -10.8 13.35 -11.0 13.75 -11.4 14.1 -11.75 14.5 -11.8 14.85 -12.0 15.25 -12.4 15.6 -12.75 16.0 -12.8 16.35 -13.05 16.75 -13.4 17.1 -14.55 17.7 -15.25 18.0 -15.5 18.25 -15.9 18.6 -16.5 18.9 Q-18.5 20.05 -20.75 20.5 L-24.4 20.5 -25.0 20.25 -27.55 20.25 Q-27.85 19.75 -28.4 19.5 -29.9 18.75 -31.5 18.25 -31.9 17.8 -32.4 17.55 L-34.0 16.75 -34.4 16.4 -35.65 15.6 -36.7 13.35 Q-37.15 12.35 -37.75 11.5 L-37.75 11.1 -37.75 10.75 -38.9 8.5 -39.25 7.0 -39.25 6.6 -39.25 5.85 -39.25 5.5 -39.25 5.1 -39.05 4.75 -38.9 4.35 -38.75 4.0 -38.75 3.6 -38.75 3.25 -38.75 2.85 -38.75 2.5 -38.35 1.7 -38.25 1.35 -38.25 1.0 -38.2 0.65 -38.05 0.25 -37.9 -0.15 -37.75 -0.5 -37.75 -0.9 -37.75 -1.25 -37.75 -1.65 M-34.15 -37.15 L-33.75 -37.5 -30.65 -37.4 -30.25 -37.1 -28.9 -36.65 -28.65 -36.4 -28.25 -36.0 -27.5 -35.75 -26.65 -35.4 -25.95 -34.6 -25.4 -33.9 -26.05 -33.2 -27.25 -32.0 -28.0 -31.75 -28.75 -31.5 -30.25 -31.5 -31.0 -31.75 -31.65 -31.9 -32.85 -32.7 -34.25 -34.15 -34.3 -34.5 -34.65 -35.7 -34.75 -36.4 -34.5 -36.75 -34.15 -37.15 M-55.75 16.5 L-56.3 18.05 -57.15 19.85 -57.25 20.25 -57.25 21.0 -57.25 22.85 -57.25 25.1 -57.25 25.5 -56.9 25.85 -56.5 26.25 -56.3 26.65 -56.2 26.95 -55.9 27.35 -55.5 27.75 -55.15 28.1 -54.75 28.5 -54.05 28.75 -51.25 29.95 -50.5 30.25 -45.5 30.2 -45.0 30.1 -44.0 29.6 -43.0 29.1 -42.75 29.0 -42.75 29.25 -42.75 29.6 -43.1 30.35 -43.25 30.75 -43.4 31.5 -43.65 31.85 -44.2 32.65 -44.65 33.35 -45.0 33.75 -45.4 34.1 -45.75 34.5 -46.5 34.75 -47.0 34.85 -47.35 35.15 -47.75 35.5 Q-50.45 36.5 -53.25 37.0 L-57.9 37.0 -59.9 36.05 -61.65 35.1 -61.9 34.85 -63.0 33.75 -63.75 33.0 -63.9 32.6 -64.0 32.25 -64.4 31.85 -64.75 31.5 -65.8 28.5 -66.65 25.85 -66.0 26.3 Q-66.4 26.75 -66.15 27.3 L-65.65 28.1 -64.5 28.7 -61.0 30.25 -59.0 30.1 -58.65 29.85 -58.4 29.5 -58.25 29.1 Q-58.35 28.2 -58.95 27.45 L-59.75 26.5 -59.75 26.1 -59.75 25.75 -60.0 25.35 -60.2 24.95 -60.25 24.6 -60.05 24.25 -59.9 23.85 -59.75 23.5 -59.75 23.1 -59.75 22.75 -59.2 21.65 -58.6 20.55 -57.15 17.85 -56.0 16.75 -55.75 16.5 M-66.4 6.85 L-66.3 7.25 -66.25 8.35 -66.25 9.5 -67.0 11.35 -67.65 13.25 -68.55 13.8 -69.0 14.0 -69.2 13.85 -69.6 13.1 -69.75 12.35 -69.7 12.0 -69.5 11.25 -69.25 10.5 -69.25 10.1 -69.25 9.35 -69.25 9.0 -69.15 8.6 -69.0 8.25 -68.75 7.85 -68.65 7.15 -68.15 6.35 -66.85 6.45 -66.4 6.85 M-80.2 27.0 L-80.0 26.6 Q-79.15 26.8 -78.9 28.05 L-78.25 30.35 -78.25 32.25 -78.25 34.1 -78.4 34.5 -78.6 34.9 -78.75 35.25 -78.75 36.0 -78.75 36.75 -79.5 38.25 -80.25 39.35 -80.25 36.35 -80.25 33.0 Q-80.4 32.35 -80.75 31.85 -81.35 31.1 -81.4 30.35 L-81.0 29.6 -80.75 29.25 -80.75 28.85 -80.75 28.5 -80.5 28.1 -80.25 27.75 -80.25 27.35 -80.2 27.0 M-80.8 69.4 L-80.75 69.75 -81.0 70.5 -81.25 71.25 -81.4 71.6 -82.25 72.0 -82.9 72.0 -83.5 71.7 -83.65 71.6 -83.9 71.35 -84.2 70.95 -84.25 70.6 -84.25 70.25 -84.5 69.85 -84.7 69.45 -84.75 69.1 -84.75 68.35 -84.7 68.0 -84.5 67.6 -83.6 66.9 Q-83.25 66.65 -82.9 66.5 L-82.65 66.4 -82.4 66.4 -82.3 66.5 -82.25 66.75 -82.15 67.1 -81.75 67.5 -81.4 67.85 -81.1 68.6 -80.8 69.4 M-96.05 4.25 L-95.75 3.5 -95.65 3.4 -94.75 3.35 -94.6 3.6 -94.25 4.0 -93.5 4.15 -93.0 4.1 -92.6 3.9 -92.3 3.95 -92.0 4.25 Q-91.6 4.9 -91.6 5.75 -91.6 6.6 -92.0 7.25 L-93.25 8.0 -93.9 8.0 -94.5 7.75 -95.25 7.5 -96.05 6.6 Q-96.5 5.75 -96.4 5.0 L-96.05 4.25 M-124.0 66.6 L-123.4 66.65 Q-122.7 67.3 -122.45 68.15 -122.25 68.85 -122.65 69.35 L-123.0 69.75 -123.3 70.1 -123.75 70.5 -125.9 70.35 -126.55 69.25 -126.7 68.5 -126.75 67.75 -126.6 67.4 -126.35 67.1 -125.75 67.0 -125.0 67.25 -124.4 66.95 -124.0 66.6 M-151.85 54.1 L-150.4 53.5 -150.15 53.45 -149.3 53.6 -149.0 53.9 -149.0 54.25 -150.0 54.85 -150.4 55.1 -151.25 55.5 -152.85 55.35 -153.05 55.1 -153.0 54.75 -151.85 54.1" fill="#ffcc66" fill-rule="evenodd" stroke="none"/>
  </g>
</svg>
