<?xml version="1.0" encoding="UTF-8" standalone="no"?>
<svg xmlns:ffdec="https://www.free-decompiler.com/flash" xmlns:xlink="http://www.w3.org/1999/xlink" ffdec:objectType="shape" height="257.2px" width="219.85px" xmlns="http://www.w3.org/2000/svg">
  <g transform="matrix(1.0, 0.0, 0.0, 1.0, -144.9, 30.0)">
    <path d="M346.75 -22.0 L357.25 -30.0 Q362.15 -14.4 359.0 1.45 357.95 6.6 354.75 10.55 351.85 21.8 340.9 28.8 L329.85 36.15 Q328.05 37.35 325.95 37.1 L322.75 35.2 331.55 16.45 Q337.5 3.55 327.75 -5.5 L345.25 -19.0 346.75 -22.0 M358.15 138.65 L364.75 139.55 360.5 186.8 358.75 189.05 358.5 192.8 Q356.1 195.95 355.0 200.0 351.4 213.15 341.45 222.95 338.3 226.1 334.65 227.2 L329.5 185.35 327.75 183.05 322.95 140.75 335.75 147.1 344.2 114.5 356.75 133.55 358.15 138.65 M199.45 91.9 L219.2 94.05 232.7 107.55 234.05 125.45 232.7 127.05 Q229.15 145.0 209.9 151.4 182.15 160.5 160.55 140.3 152.8 133.05 147.35 124.05 L149.7 123.05 147.7 115.55 Q141.45 97.1 149.2 78.4 150.7 74.8 151.7 71.05 L160.35 61.95 Q163.7 63.1 163.1 66.55 160.5 81.45 158.7 96.55 L156.7 97.55 163.25 113.95 192.0 119.15 189.65 116.6 191.7 97.55 199.45 91.9" fill="#ff4900" fill-opacity="0.3019608" fill-rule="evenodd" stroke="none"/>
  </g>
</svg>
