<?xml version="1.0" encoding="UTF-8" standalone="no"?>
<svg xmlns:ffdec="https://www.free-decompiler.com/flash" xmlns:xlink="http://www.w3.org/1999/xlink" ffdec:objectType="shape" height="135.85px" width="91.25px" xmlns="http://www.w3.org/2000/svg">
  <g transform="matrix(1.0, 0.0, 0.0, 1.0, 76.25, 68.85)">
    <path d="M5.35 -55.85 L5.75 -55.5 6.1 -55.1 6.5 -54.75 9.05 -49.5 11.85 -42.35 13.0 -39.0 13.0 -38.6 13.0 -38.25 13.3 -37.45 13.55 -36.75 13.7 -36.35 14.0 -35.6 14.0 -35.2 14.0 -35.1 14.5 -34.7 14.7 -34.35 14.85 -33.95 15.0 -33.6 15.0 -33.2 15.0 -32.85 15.0 -32.45 14.95 -32.3 15.0 -32.2 15.0 -31.95 14.85 -31.95 14.75 -31.7 14.5 -30.95 14.5 -30.6 14.5 -30.2 14.5 -29.85 14.35 -29.45 14.2 -29.1 14.0 -28.7 14.0 -27.2 14.0 -24.95 14.0 -24.2 13.85 -23.85 13.65 -23.45 13.5 -23.1 13.5 -22.7 13.5 -22.35 13.35 -21.95 13.2 -21.6 13.0 -21.2 13.0 -17.1 13.0 -12.2 12.85 -11.85 12.65 -11.45 12.5 -11.1 12.5 -10.7 12.5 -10.35 12.5 -9.95 12.6 -9.6 12.75 -9.2 13.0 -8.45 13.0 -6.2 13.0 -3.2 13.0 -2.85 12.85 -2.45 12.7 -2.1 12.5 -1.7 12.5 -0.2 12.5 2.05 12.5 2.4 12.55 2.75 12.7 3.2 13.0 3.9 13.0 4.3 13.0 5.05 13.0 5.8 12.85 6.15 12.65 6.55 12.5 6.9 12.5 8.05 12.5 9.9 12.5 10.65 12.65 11.0 12.85 11.4 12.95 11.55 13.5 11.55 13.5 11.65 13.0 12.85 13.0 12.9 Q13.05 13.55 12.6 14.05 L12.35 14.4 12.25 14.5 11.95 15.1 11.25 16.9 Q10.25 18.1 9.5 19.5 8.65 21.2 7.25 22.55 L5.35 24.4 5.25 24.8 5.1 25.15 3.75 26.3 2.25 27.05 0.75 28.55 -0.55 29.6 -2.15 30.4 -2.5 30.8 -2.9 31.15 -3.75 31.8 Q-15.6 37.4 -26.85 31.75 L-28.5 30.55 -29.25 29.05 -29.8 27.95 -30.4 26.8 -30.65 26.4 -30.75 25.65 -30.75 24.9 -30.75 24.55 -30.75 24.15 -30.65 23.8 -30.55 23.65 -31.1 22.75 -32.75 19.8 -32.75 19.4 -32.75 19.05 -32.65 18.65 -32.25 18.3 -31.75 17.9 -30.9 17.75 -30.9 17.65 -30.0 17.9 -29.55 18.3 -28.75 19.05 -28.4 19.4 -28.25 19.8 -28.15 20.15 -28.0 20.55 -27.9 20.9 -27.85 20.95 -27.75 20.8 -27.0 20.05 -26.5 19.85 -25.9 19.75 -25.9 19.65 -25.0 19.9 -24.5 20.3 -24.3 20.7 -24.15 21.05 -24.0 21.4 -24.05 21.8 -24.15 22.15 -24.1 22.2 -23.75 21.9 -22.9 21.75 -22.9 21.65 -22.0 21.9 -21.5 22.3 -21.3 22.7 -21.15 23.05 -21.0 23.4 -21.0 23.8 -21.0 24.15 -20.65 25.3 -20.55 25.6 -20.25 25.3 -19.75 24.9 -18.9 24.75 -18.9 24.65 -18.0 24.9 -17.5 25.3 -17.3 25.7 -17.15 26.05 -17.0 26.4 -17.05 26.8 -17.15 27.15 -17.25 27.55 Q-16.0 28.2 -14.0 28.4 L-13.5 28.8 -13.3 29.2 -13.1 29.9 -13.1 30.55 Q-10.4 30.15 -7.7 29.1 L-8.25 29.05 -11.25 28.65 -11.75 28.3 -12.1 27.9 -12.25 27.55 -12.25 27.15 -12.25 26.8 -12.15 26.4 -11.95 26.05 -11.65 25.65 -11.25 25.4 -11.0 25.35 -10.4 25.25 -10.4 25.15 -7.0 25.45 -2.0 25.9 -1.9 25.95 -1.0 25.05 -0.85 24.9 -4.9 25.4 -5.75 25.15 -6.25 24.75 -6.6 24.4 -6.75 24.05 -6.75 23.65 -6.75 23.3 -6.65 22.9 -6.45 22.55 -6.15 22.15 -5.25 21.4 -1.9 20.95 -1.75 20.8 -1.25 20.4 -0.15 20.05 0.5 19.8 1.1 19.75 1.1 19.65 4.1 19.75 4.3 19.8 4.4 19.7 5.0 19.3 6.1 17.75 6.25 17.45 4.1 17.9 3.25 17.65 2.75 17.25 2.4 16.9 2.25 16.55 2.25 16.15 2.25 15.8 2.35 15.4 2.55 15.05 2.85 14.65 3.75 13.9 4.6 13.75 4.6 13.65 5.25 13.65 5.25 13.3 5.35 12.9 5.5 12.55 Q6.2 11.8 7.2 11.35 L8.5 10.8 8.75 10.8 8.75 9.4 8.75 8.05 8.35 8.4 8.25 8.8 8.1 9.15 7.6 9.55 Q7.45 9.65 7.25 9.8 L6.6 9.9 6.1 9.85 5.25 9.65 4.75 9.25 4.4 8.9 4.25 8.55 4.3 7.8 4.9 6.3 5.1 5.9 5.85 5.15 7.0 4.05 7.5 3.85 8.1 3.7 8.1 3.65 8.8 3.85 8.75 3.8 8.75 2.9 8.6 2.9 7.75 2.65 7.25 2.25 6.85 1.9 6.7 0.4 6.8 -1.85 6.85 -2.2 7.15 -2.6 7.5 -2.95 8.0 -3.2 8.6 -3.3 8.6 -3.35 8.85 -3.25 8.9 -3.35 9.1 -3.75 9.25 -4.1 9.25 -5.2 9.25 -6.35 8.75 -6.7 8.4 -7.1 8.35 -7.2 8.35 -6.95 8.45 -6.6 8.45 -6.25 8.1 -5.5 7.85 -5.1 7.5 -4.85 7.25 -4.75 6.6 -4.6 5.75 -4.85 5.25 -5.25 4.9 -5.6 4.35 -6.35 4.25 -6.7 4.25 -7.1 4.25 -7.85 4.25 -8.2 4.35 -8.6 4.5 -8.95 4.9 -9.7 5.1 -10.1 5.5 -10.45 5.9 -10.85 6.25 -11.1 6.5 -11.15 7.1 -11.3 7.1 -11.35 7.6 -11.3 7.75 -11.25 7.75 -11.7 7.1 -11.6 6.25 -11.85 5.75 -12.25 5.35 -12.6 5.25 -13.35 5.25 -14.45 5.35 -15.2 5.65 -15.6 6.0 -15.95 6.5 -16.2 7.1 -16.3 7.1 -16.35 7.75 -16.15 7.75 -17.2 7.25 -17.35 6.75 -17.75 6.05 -18.5 5.85 -18.85 Q5.65 -19.4 5.7 -19.95 L5.8 -21.85 5.85 -22.2 6.15 -22.6 6.5 -22.95 7.0 -23.2 7.6 -23.3 7.6 -23.35 7.75 -23.3 7.75 -23.45 7.75 -23.6 7.6 -23.65 6.75 -23.85 6.25 -24.25 5.85 -24.6 5.8 -25.0 5.7 -25.7 5.85 -26.85 6.25 -27.2 6.75 -27.6 7.6 -27.8 7.6 -27.85 8.25 -27.65 8.25 -28.25 7.85 -28.6 7.8 -29.0 7.8 -29.15 7.25 -29.35 6.75 -29.75 6.35 -30.1 6.25 -30.85 6.25 -31.95 6.35 -32.65 5.75 -32.85 5.25 -33.25 4.9 -33.65 4.75 -33.95 4.75 -34.35 4.95 -35.0 4.85 -35.1 4.8 -35.85 4.8 -37.35 4.85 -38.1 5.3 -38.9 6.25 -40.25 6.25 -40.35 5.85 -41.15 5.6 -41.1 5.1 -41.15 4.25 -41.35 3.75 -41.75 3.35 -42.1 3.25 -42.85 3.25 -43.95 3.3 -44.1 3.1 -44.1 2.25 -44.35 1.75 -44.75 1.35 -45.1 Q1.15 -45.65 1.2 -46.25 L1.2 -46.4 1.2 -47.0 1.25 -47.9 1.25 -48.1 1.1 -48.1 0.25 -48.35 -0.25 -48.75 -0.95 -49.5 -1.15 -49.85 -1.25 -50.25 -1.25 -50.6 -1.25 -51.35 -1.1 -51.65 -1.75 -51.85 -2.25 -52.25 -2.65 -52.6 -2.7 -53.0 -2.75 -53.75 -2.75 -54.25 -3.4 -54.1 -3.9 -54.15 -4.75 -54.35 -5.25 -54.75 -5.6 -55.15 -5.75 -55.5 -5.75 -55.85 -5.75 -56.1 -5.9 -56.15 -6.75 -56.35 -7.25 -56.75 -7.6 -57.15 -7.75 -57.5 -7.75 -57.85 -7.75 -58.25 -7.65 -58.6 -7.45 -58.9 -7.6 -59.05 -7.9 -58.5 -8.15 -58.15 -8.5 -57.85 -8.75 -57.75 -9.4 -57.6 -10.25 -57.85 -10.75 -58.25 -11.15 -58.6 -11.65 -58.1 -11.95 -57.7 -12.05 -57.35 -12.25 -56.6 -12.55 -56.25 -13.0 -55.85 -13.9 -55.6 -14.4 -55.65 -15.25 -55.85 -15.75 -56.25 -16.15 -56.6 -16.25 -57.0 -16.25 -57.6 -16.9 -56.85 -17.0 -56.5 -17.1 -55.75 -17.4 -55.0 -17.65 -54.65 -18.0 -54.35 -18.25 -54.25 -18.9 -54.1 -19.75 -54.35 -20.25 -54.75 -20.65 -55.1 -20.75 -55.85 -20.75 -57.35 -20.65 -58.1 -18.35 -61.35 -16.5 -64.5 -15.8 -65.25 -15.75 -65.3 -15.75 -65.6 -15.75 -66.0 -15.65 -66.35 Q-14.75 -67.3 -13.5 -67.65 -12.3 -68.0 -11.25 -68.6 L-11.0 -68.75 -10.4 -68.8 -10.4 -68.85 -9.9 -68.8 -9.0 -68.6 Q-7.6 -67.45 -5.9 -66.75 -4.25 -66.15 -3.15 -64.85 L-1.95 -64.05 -1.15 -63.35 Q0.25 -62.7 1.3 -61.5 L2.75 -60.0 3.1 -59.6 3.25 -59.25 3.35 -58.85 3.75 -58.5 4.1 -58.1 4.25 -57.75 4.35 -57.35 4.75 -57.0 5.1 -56.6 5.25 -56.25 5.35 -55.85 M0.1 -56.85 L-2.6 -59.35 -3.35 -59.95 -3.3 -59.85 -3.15 -59.5 -3.0 -58.75 -2.9 -58.8 -2.9 -58.85 -2.0 -58.6 -1.5 -58.25 -1.3 -57.85 -1.15 -57.5 -1.0 -56.75 -1.0 -56.7 -0.4 -56.85 0.15 -56.7 0.1 -56.85 M3.6 -51.8 L3.35 -52.25 3.1 -51.75 3.6 -51.8 M-9.9 -64.35 L-10.85 -64.35 -11.55 -64.2 -11.65 -64.0 -11.7 -63.7 -11.25 -64.1 -10.4 -64.3 -10.4 -64.35 -9.65 -64.15 -9.6 -64.15 -9.9 -64.35 M-7.05 -62.75 L-7.0 -62.6 -7.0 -62.25 -7.0 -62.0 -6.5 -62.5 -7.05 -62.75 M-13.3 -62.1 L-13.5 -61.75 -13.9 -61.35 -14.25 -61.0 -14.45 -60.55 -13.85 -61.1 Q-12.8 -61.95 -12.25 -63.15 L-13.15 -62.5 -13.3 -62.1 M-29.0 29.8 L-28.45 30.95 -27.65 33.15 -27.5 33.55 -27.5 33.9 -27.5 34.3 -27.5 34.65 -27.65 35.05 -27.8 35.4 -28.0 35.8 -28.0 38.4 -28.0 42.15 -28.3 42.9 -28.75 44.0 -29.0 44.8 -29.0 45.55 -29.0 46.65 -29.0 47.8 -29.15 48.15 -29.35 48.55 -29.55 49.3 -29.65 49.65 -30.25 50.8 -30.9 52.65 -31.0 53.05 -31.0 53.4 -31.0 53.8 -31.15 54.15 -31.4 54.55 -32.0 55.3 Q-32.1 56.3 -32.6 57.2 L-34.0 59.8 Q-42.4 69.4 -55.4 66.2 -61.15 64.8 -66.0 61.55 L-66.8 60.85 Q-67.4 60.4 -68.0 60.05 L-69.15 58.9 -70.65 57.4 -71.95 54.1 -73.25 50.3 -73.25 49.9 -73.25 49.55 -73.4 49.2 -73.6 48.8 -73.75 48.4 -73.75 48.05 -73.75 47.65 -73.75 46.9 -73.75 46.55 -73.9 46.2 -74.1 45.8 -74.25 45.4 -74.25 45.05 -74.25 44.65 -74.4 44.3 -74.6 43.9 -74.75 43.55 -74.75 43.15 -74.75 42.8 -75.0 42.05 -75.5 40.55 -75.75 39.8 -75.8 35.65 -75.75 30.8 -76.0 30.05 -76.2 29.3 -76.25 28.55 -76.1 28.2 -75.75 27.8 -75.25 27.4 -74.4 27.25 -74.4 27.15 -73.9 27.2 -73.0 27.4 -72.5 27.8 -72.3 28.2 -72.15 28.55 -72.0 28.9 -72.05 33.05 -72.05 33.85 -72.0 33.8 -71.4 33.75 -71.4 33.65 -70.9 33.7 -70.0 33.9 -69.5 34.3 -69.3 34.7 -69.15 35.05 -69.0 35.4 -69.05 35.8 -69.15 36.15 -69.35 36.55 -69.5 36.9 -69.5 37.3 -69.5 37.65 -69.5 38.05 -69.5 38.4 -69.65 38.8 -69.85 39.2 -70.0 39.55 -69.9 42.55 -69.5 42.3 -68.9 42.25 -68.9 42.15 -68.0 42.4 -67.5 42.8 -67.3 43.2 -67.15 43.55 -67.0 43.9 -67.05 44.65 -67.05 45.8 -67.0 46.3 -66.4 46.25 -66.4 46.15 -65.5 46.4 -65.0 46.8 -64.8 47.2 -64.65 47.55 -64.5 47.9 -64.55 48.65 -64.55 49.8 -64.5 50.55 -64.65 50.9 -64.75 51.3 -64.4 51.25 -64.4 51.15 -63.9 51.2 -63.0 51.4 -62.5 51.8 -62.3 52.2 -62.15 52.55 -62.05 52.95 -62.0 53.3 -61.5 53.4 -61.0 53.8 -60.8 54.2 -60.65 54.55 -60.5 54.9 -60.5 55.3 -60.5 56.05 -60.5 56.6 -59.9 55.9 -59.5 55.55 -59.0 55.35 -58.4 55.25 -58.4 55.15 -57.5 55.4 -57.0 55.8 -56.8 56.2 -56.65 56.55 -56.5 57.3 -56.65 57.65 -56.9 58.05 -57.15 58.4 -57.15 58.8 -57.15 59.15 -57.15 59.9 -57.3 60.25 -57.85 60.95 -56.2 61.45 -56.25 61.15 -56.25 60.05 -56.25 59.3 -56.0 58.55 -55.35 57.45 -55.0 57.05 -54.5 56.85 -53.9 56.75 -53.9 56.65 -53.0 56.9 -52.5 57.3 -52.3 57.7 -52.15 58.05 -52.0 58.4 -52.0 58.8 -52.05 59.55 -52.15 60.3 -52.1 60.65 -52.1 61.05 -52.15 61.4 -52.3 61.75 -52.65 62.2 -50.0 62.5 -50.25 62.3 -50.6 61.9 -50.75 61.55 Q-50.9 60.5 -50.6 59.55 -50.1 58.15 -49.0 57.05 L-48.5 56.85 -47.9 56.75 -47.9 56.65 -47.0 56.9 -46.5 57.3 -46.3 57.7 -46.15 58.05 -46.1 58.35 -46.0 58.3 -45.4 58.25 -45.4 58.15 -44.5 58.4 -44.0 58.8 -43.45 59.9 Q-43.2 60.8 -43.1 61.8 -40.7 60.45 -38.65 58.65 L-38.3 58.3 -38.75 58.15 -39.25 57.8 -39.65 57.35 -40.4 58.55 -40.65 58.9 -41.0 59.15 -41.25 59.25 -41.9 59.4 -42.4 59.4 -43.25 59.15 -43.75 58.8 -44.15 58.4 -44.25 58.05 -44.25 57.65 -44.25 56.9 -44.25 56.55 -43.7 55.85 -42.6 54.7 -42.25 54.4 -42.0 54.35 -41.4 54.25 -41.4 54.15 -40.9 54.2 -40.25 54.35 -40.3 51.05 -40.25 45.05 -40.1 44.7 -39.8 43.9 -39.65 43.15 -39.25 42.8 -38.75 42.4 -37.9 42.25 -37.9 42.15 -37.0 42.4 -36.5 42.8 -36.3 43.2 -36.2 43.4 -36.1 43.2 -35.9 42.8 -35.75 42.4 -35.75 41.3 -35.75 39.4 -35.75 38.65 -35.9 38.3 -36.2 37.5 -36.25 36.8 -36.15 36.4 -35.95 36.1 -35.25 35.4 -35.0 35.35 -34.4 35.25 -34.4 35.15 -33.5 35.4 -33.0 35.8 -32.8 36.2 -32.4 36.95 -32.0 38.05 -32.0 39.9 -32.0 41.6 -31.9 41.4 -31.75 41.05 -31.75 37.65 -31.75 33.55 -31.9 33.2 -32.1 32.8 -32.25 32.4 -32.25 32.05 -32.25 31.65 -32.25 30.9 -32.15 30.15 -31.75 29.8 -31.25 29.4 -30.4 29.15 -29.5 29.4 -29.0 29.8 M-36.5 46.55 L-36.5 47.1 -36.4 46.9 -36.25 46.55 -36.25 45.8 -36.5 46.55 M-47.15 62.4 L-47.15 62.35 -47.4 62.55 -47.4 62.6 -46.95 62.6 -47.15 62.4 M-35.25 52.15 L-35.75 51.8 -36.1 51.4 -36.4 50.7 -36.5 50.5 -36.5 54.4 -36.45 54.75 -36.25 55.05 -36.2 54.9 -34.9 52.3 -35.25 52.15" fill="#ff6600" fill-rule="evenodd" stroke="none"/>
  </g>
</svg>
