<?xml version="1.0" encoding="UTF-8" standalone="no"?>
<svg xmlns:ffdec="https://www.free-decompiler.com/flash" xmlns:xlink="http://www.w3.org/1999/xlink" ffdec:objectType="shape" height="32.15px" width="98.5px" xmlns="http://www.w3.org/2000/svg">
  <g transform="matrix(1.0, 0.0, 0.0, 1.0, 417.5, -3.95)">
    <path d="M-320.05 9.0 L-319.85 9.35 -319.65 9.75 -319.55 10.1 -319.5 10.5 -319.55 10.85 -319.65 11.25 -319.85 11.65 -320.0 12.0 -319.5 13.35 -319.5 13.75 -319.5 14.1 -319.5 14.5 -319.5 14.85 -319.4 15.25 -319.25 15.6 -319.15 16.0 -319.0 16.35 -319.0 16.75 -319.0 17.5 -319.0 18.6 -319.0 19.35 Q-324.25 30.75 -335.85 35.1 -339.8 36.55 -343.9 35.85 -348.3 36.05 -352.6 34.7 L-359.15 32.25 -359.65 31.85 Q-360.7 31.0 -362.1 30.65 L-362.85 30.3 Q-363.85 29.65 -365.0 29.5 -366.25 29.35 -367.25 28.65 L-367.5 28.5 Q-371.25 26.95 -375.1 25.7 -382.55 23.25 -390.5 23.0 -397.45 22.8 -403.0 26.5 L-403.4 26.85 -404.15 27.6 -404.5 28.0 -404.9 28.35 -405.25 28.75 -405.75 29.1 -406.5 29.5 -406.85 29.9 Q-407.55 30.65 -408.5 31.0 L-409.25 31.4 Q-411.7 32.75 -414.5 32.45 L-415.65 32.25 -416.1 31.85 -416.5 31.5 -416.9 31.1 -417.2 30.7 -417.4 30.35 -417.45 30.0 -417.5 29.6 -417.5 29.25 -417.5 28.85 -417.5 28.5 -417.5 28.1 -417.5 27.75 -417.5 27.0 -417.4 26.6 -417.25 26.25 -417.05 25.85 -416.85 25.5 -416.65 25.1 -416.5 24.75 -416.5 24.35 -416.5 24.0 -416.4 23.6 -416.25 23.25 -416.0 22.85 -416.0 22.5 -416.0 22.1 -415.9 21.75 -415.75 21.4 -415.55 21.0 -415.4 20.6 -415.25 20.25 -414.9 19.85 -414.5 19.5 -414.4 19.1 -414.25 18.75 -414.05 18.35 -413.85 18.0 -413.65 17.6 -413.4 17.25 -413.25 16.9 -413.0 16.5 Q-411.7 15.15 -410.2 14.1 -405.75 10.75 -400.5 8.6 L-392.5 5.55 Q-386.9 3.6 -381.0 4.0 -363.25 4.25 -345.95 7.95 -338.0 9.65 -330.0 8.8 L-330.0 8.75 -330.0 8.35 -329.9 7.6 -329.7 7.25 -329.4 6.85 -329.0 6.5 -328.65 6.25 -328.25 6.15 -327.5 6.05 -327.5 6.0 Q-325.05 6.25 -323.1 7.85 -321.65 7.85 -320.4 8.6 L-320.05 9.0 M-325.1 13.8 L-328.5 14.1 -332.5 14.25 Q-342.15 14.9 -351.4 12.35 L-351.75 12.2 -359.0 11.45 -360.1 11.15 -361.25 10.6 Q-375.1 8.55 -388.95 10.55 L-393.75 11.6 Q-397.2 12.65 -400.5 14.0 L-400.85 14.4 Q-401.55 15.15 -402.5 15.5 L-403.15 15.8 -403.25 15.85 Q-405.1 16.7 -406.7 17.8 L-407.5 18.5 -408.65 19.6 -408.75 20.0 -409.15 20.75 -409.35 21.15 -409.55 21.5 -409.75 21.9 -409.9 22.2 -410.5 23.0 -410.75 23.35 -410.9 23.75 -411.0 24.1 -411.0 24.5 -411.0 24.85 -411.15 25.25 -411.35 25.65 -411.5 26.0 -411.5 26.1 -410.9 26.1 -410.3 25.7 -408.9 24.6 -408.3 24.2 -406.8 22.7 -405.35 21.65 -403.9 20.85 -401.45 19.35 Q-397.7 17.5 -393.0 17.7 L-391.0 17.75 Q-382.15 17.8 -373.7 20.5 -368.75 22.05 -364.15 24.35 -362.6 24.55 -361.15 25.15 -358.3 26.4 -355.55 27.8 -348.25 31.5 -340.05 29.7 L-337.0 29.0 -336.05 29.3 -335.75 29.45 Q-334.05 28.8 -332.45 27.85 L-330.0 26.0 -327.75 23.75 -327.05 22.65 -325.9 20.75 -325.25 19.25 -324.9 18.85 -324.5 18.5 -324.4 18.1 -324.25 17.75 -324.2 17.4 -324.35 17.0 -324.5 16.6 -324.5 16.25 -324.5 15.85 -324.5 15.5 -324.5 14.75 -325.1 13.8" fill="#000000" fill-rule="evenodd" stroke="none"/>
    <path d="M-325.1 13.8 L-324.5 14.75 -324.5 15.5 -324.5 15.85 -324.5 16.25 -324.5 16.6 -324.35 17.0 -324.2 17.4 -324.25 17.75 -324.4 18.1 -324.5 18.5 -324.9 18.85 -325.25 19.25 -325.9 20.75 -327.05 22.65 -327.75 23.75 -330.0 26.0 -332.45 27.85 Q-334.05 28.8 -335.75 29.45 L-336.05 29.3 -337.0 29.0 -340.05 29.7 Q-348.25 31.5 -355.55 27.8 -358.3 26.4 -361.15 25.15 -362.6 24.55 -364.15 24.35 -368.75 22.05 -373.7 20.5 -382.15 17.8 -391.0 17.75 L-393.0 17.7 Q-397.7 17.5 -401.45 19.35 L-403.9 20.85 -405.35 21.65 -406.8 22.7 -408.3 24.2 -408.9 24.6 -410.3 25.7 -410.9 26.1 -411.5 26.1 -411.5 26.0 -411.35 25.65 -411.15 25.25 -411.0 24.85 -411.0 24.5 -411.0 24.1 -410.9 23.75 -410.75 23.35 -410.5 23.0 -409.9 22.2 -409.75 21.9 -409.55 21.5 -409.35 21.15 -409.15 20.75 -408.75 20.0 -408.65 19.6 -407.5 18.5 -406.7 17.8 Q-405.1 16.7 -403.25 15.85 L-403.15 15.8 -402.5 15.5 Q-401.55 15.15 -400.85 14.4 L-400.5 14.0 Q-397.2 12.65 -393.75 11.6 L-388.95 10.55 Q-375.1 8.55 -361.25 10.6 L-360.1 11.15 -359.0 11.45 -351.75 12.2 -351.4 12.35 Q-342.15 14.9 -332.5 14.25 L-328.5 14.1 -325.1 13.8" fill="#80a839" fill-rule="evenodd" stroke="none"/>
  </g>
</svg>
