<?xml version="1.0" encoding="UTF-8" standalone="no"?>
<svg xmlns:ffdec="https://www.free-decompiler.com/flash" xmlns:xlink="http://www.w3.org/1999/xlink" ffdec:objectType="shape" height="183.15px" width="297.1px" xmlns="http://www.w3.org/2000/svg">
  <g transform="matrix(1.0, 0.0, 0.0, 1.0, 266.3, 86.95)">
    <path d="M25.9 -51.45 Q28.55 -34.15 21.6 -18.95 20.2 -15.8 17.55 -13.3 15.7 -11.55 13.8 -10.15 14.8 -3.95 12.15 2.05 L12.05 3.55 11.85 5.05 11.4 6.55 11.15 7.3 Q13.1 24.2 7.05 39.2 1.2 53.8 -14.25 51.9 -21.25 51.05 -26.35 46.7 -25.15 54.15 -26.85 61.8 -31.2 82.9 -53.45 78.65 -72.5 75.0 -77.05 56.65 -79.3 47.55 -76.65 40.35 -83.05 30.3 -82.05 19.3 -82.9 16.1 -82.7 12.2 -85.05 6.4 -84.55 -0.3 L-86.9 0.05 Q-90.2 -0.7 -92.7 -1.8 L-93.2 -1.0 -94.1 0.6 -95.0 2.0 -96.15 3.55 Q-97.15 6.55 -99.5 8.65 -103.95 12.65 -109.9 13.05 L-112.4 12.45 -112.2 15.4 Q-109.4 16.95 -107.4 19.55 -104.6 21.75 -102.75 24.05 -89.4 30.05 -92.4 47.65 -91.5 48.55 -90.75 49.65 -87.5 54.3 -87.9 60.05 -87.55 61.9 -87.35 63.65 -78.0 68.8 -81.95 81.6 -83.9 88.0 -90.4 89.95 -107.75 95.2 -125.95 96.15 L-135.05 95.7 Q-142.5 94.55 -149.6 92.05 -157.3 89.3 -158.75 81.4 -160.65 70.7 -153.3 66.6 -153.7 63.8 -153.25 60.45 -157.85 62.85 -163.75 64.1 L-171.85 64.45 Q-182.15 63.1 -185.0 56.7 L-189.8 56.3 Q-189.0 58.4 -188.9 60.8 -178.65 78.3 -196.45 88.9 -200.3 91.2 -204.9 91.05 -218.65 90.55 -223.05 82.2 L-229.9 82.45 Q-233.65 87.0 -241.3 89.85 -255.6 95.3 -262.9 82.15 -266.65 75.35 -266.25 67.55 -265.45 52.25 -251.3 48.55 -249.4 43.55 -245.7 39.7 -246.6 31.55 -240.1 23.9 -244.95 8.65 -236.7 -6.15 -234.7 -9.85 -233.2 -13.85 -227.5 -29.15 -219.1 -43.15 L-217.65 -45.45 Q-219.1 -53.05 -214.9 -59.35 L-213.55 -61.25 -213.8 -62.6 Q-216.4 -81.15 -196.65 -82.55 L-193.9 -82.95 Q-187.2 -83.65 -180.75 -82.0 -177.1 -81.05 -174.35 -78.65 -170.45 -81.55 -164.9 -81.95 -138.6 -82.0 -130.55 -58.35 -128.4 -52.05 -128.6 -45.9 -122.9 -45.5 -119.3 -42.3 -115.3 -44.6 -110.9 -44.95 L-109.3 -45.25 Q-106.65 -49.2 -101.25 -51.05 -95.0 -53.2 -88.9 -53.95 L-85.65 -54.3 Q-84.9 -59.0 -82.15 -63.6 -80.4 -66.5 -78.3 -68.9 -76.25 -76.95 -66.95 -80.35 -63.3 -81.7 -59.9 -81.95 L-51.65 -81.2 Q-45.55 -86.05 -36.9 -86.95 -21.05 -83.7 -20.0 -67.65 -19.7 -63.3 -21.2 -59.75 -19.65 -60.65 -17.65 -61.2 -9.6 -77.75 9.15 -79.95 16.55 -80.25 21.05 -77.9 28.45 -75.35 30.4 -66.35 32.25 -57.75 25.9 -51.45 M-27.7 -51.65 L-27.4 -52.6 -28.4 -51.95 -28.4 -51.75 -27.7 -51.65" fill="#0000ff" fill-rule="evenodd" stroke="none"/>
  </g>
</svg>
