<?xml version="1.0" encoding="UTF-8" standalone="no"?>
<svg xmlns:ffdec="https://www.free-decompiler.com/flash" xmlns:xlink="http://www.w3.org/1999/xlink" ffdec:objectType="shape" height="166.45px" width="111.35px" xmlns="http://www.w3.org/2000/svg">
  <g transform="matrix(1.0, 0.0, 0.0, 1.0, 75.85, 81.85)">
    <path d="M33.25 -74.85 L33.65 -74.15 34.2 -73.3 34.75 -72.25 35.0 -71.5 35.0 -71.1 35.0 -70.75 35.0 -70.35 35.0 -70.0 35.0 -69.6 35.0 -68.85 35.0 -68.5 35.1 -68.1 35.25 -67.75 35.35 -67.35 35.5 -67.0 35.5 -66.25 35.5 -65.5 35.5 -64.35 35.5 -62.85 35.5 -61.35 35.5 -61.0 35.35 -60.6 35.25 -60.25 35.1 -59.85 35.0 -59.5 35.0 -59.1 35.0 -58.75 34.7 -57.95 34.45 -57.25 34.35 -57.0 34.65 -57.0 Q34.5 -56.4 34.15 -55.95 L34.1 -55.85 34.0 -55.45 34.0 -55.25 34.0 -54.85 33.85 -54.5 33.7 -54.1 33.5 -53.75 33.5 -53.35 33.5 -53.0 33.35 -52.6 33.25 -52.25 33.05 -51.95 31.9 -50.8 30.85 -49.6 28.8 -48.35 Q27.6 -47.55 26.25 -47.0 L25.5 -46.25 23.6 -44.35 22.85 -43.6 22.1 -43.2 21.5 -42.85 20.75 -42.5 20.4 -42.05 20.25 -41.75 20.1 -41.35 19.75 -40.95 19.5 -40.6 19.45 -40.25 19.35 -39.85 19.1 -39.5 18.3 -38.4 Q17.95 -37.85 17.75 -37.2 L17.6 -36.85 17.25 -36.45 16.85 -36.1 16.45 -34.95 15.45 -33.05 Q14.85 -31.95 14.5 -30.85 L14.5 -30.5 14.6 -30.1 14.8 -29.35 14.85 -28.6 14.75 -28.2 14.55 -27.9 14.1 -27.5 13.75 -27.2 13.1 -27.1 12.6 -27.15 11.75 -27.35 11.25 -27.75 10.85 -28.1 10.8 -28.85 10.75 -30.35 10.75 -31.45 10.75 -32.2 11.75 -34.45 13.65 -38.2 14.6 -39.75 14.7 -40.1 14.75 -40.5 14.9 -40.8 15.25 -41.25 15.5 -41.45 15.35 -41.6 15.3 -42.0 15.25 -42.75 15.25 -43.5 Q15.65 -44.35 16.45 -45.05 L18.0 -46.5 18.35 -46.65 18.25 -46.75 17.85 -47.1 17.8 -47.5 17.75 -48.25 17.75 -49.0 17.9 -49.3 18.6 -50.1 19.0 -50.5 20.75 -51.6 20.85 -52.35 23.6 -54.45 25.1 -55.35 25.4 -55.7 26.0 -56.45 26.35 -56.85 26.6 -57.25 26.75 -57.6 27.0 -58.0 27.35 -58.35 27.75 -58.75 27.75 -58.85 27.75 -59.25 28.05 -59.95 28.55 -61.45 28.65 -61.65 27.75 -61.85 27.25 -62.25 26.9 -62.65 26.75 -62.95 26.4 -63.75 26.25 -64.1 26.25 -64.5 26.25 -64.85 26.25 -65.25 26.35 -65.6 26.5 -65.95 26.75 -66.35 26.75 -66.75 26.75 -67.1 26.75 -67.5 26.9 -67.85 27.1 -68.25 27.55 -68.95 27.85 -69.35 28.25 -69.6 28.5 -69.7 28.85 -69.75 28.45 -70.2 28.0 -69.85 27.1 -69.6 26.6 -69.6 23.0 -69.85 22.15 -69.45 21.7 -69.3 21.1 -69.1 20.25 -69.35 19.75 -69.75 19.4 -70.15 19.25 -70.5 19.25 -70.85 19.25 -71.25 19.35 -71.6 19.55 -71.95 20.25 -72.7 Q21.0 -73.3 21.9 -73.7 L21.6 -73.75 20.95 -73.4 20.1 -73.1 19.65 -73.15 18.75 -73.35 18.25 -73.75 17.9 -74.15 17.75 -74.5 17.75 -74.85 17.75 -75.1 16.75 -75.0 Q15.1 -73.7 13.0 -73.0 11.75 -72.6 10.75 -71.75 L10.1 -71.6 9.25 -71.85 8.75 -72.25 8.35 -72.6 8.25 -73.0 8.25 -73.35 8.25 -74.1 8.3 -74.55 6.75 -74.0 6.35 -73.65 5.0 -72.85 4.25 -72.5 3.85 -72.1 3.45 -71.75 3.0 -71.35 2.1 -71.1 1.25 -71.35 0.75 -71.75 0.4 -72.15 0.25 -72.5 0.25 -72.85 0.4 -73.6 1.1 -75.1 2.55 -76.0 2.75 -76.25 3.1 -76.6 3.5 -77.0 3.9 -77.35 4.25 -77.6 8.25 -79.05 13.55 -81.0 16.1 -81.85 Q21.1 -81.8 25.6 -79.7 28.9 -78.15 31.75 -76.0 L32.5 -75.6 33.0 -75.25 33.25 -74.85 M24.35 -76.05 L24.45 -75.9 24.5 -76.0 24.35 -76.05 M24.25 -74.6 L23.95 -74.25 23.5 -73.85 24.65 -73.8 Q24.35 -74.15 24.3 -74.65 L24.25 -74.6 M11.2 6.65 L11.35 7.05 11.5 7.4 11.5 10.8 11.5 14.9 11.6 15.3 11.75 15.65 12.0 16.4 12.0 16.8 12.0 17.55 12.0 18.3 12.1 18.65 12.25 19.4 12.5 20.15 12.5 21.65 12.5 24.3 12.5 24.65 12.6 25.05 12.75 25.4 13.0 26.15 13.0 26.9 13.0 28.4 13.0 28.8 13.3 29.55 13.7 30.7 14.0 31.4 14.0 31.8 14.0 32.15 14.0 32.2 14.0 32.9 14.0 33.65 14.3 34.45 14.65 35.5 15.0 36.3 15.0 38.9 15.0 42.3 15.0 42.65 13.0 47.15 Q12.2 49.35 10.35 50.9 L10.25 51.3 10.1 51.65 9.75 52.05 9.35 52.4 9.25 52.8 9.1 53.15 Q7.65 54.9 5.7 55.95 4.95 56.3 4.25 56.8 -8.25 60.65 -20.0 55.55 L-20.8 54.85 -22.0 54.05 -23.15 52.9 -24.65 51.4 -24.75 51.05 -24.9 50.65 -25.25 50.3 -25.65 49.9 -26.3 48.45 -27.4 46.15 -27.75 45.8 -28.15 45.4 -28.45 44.7 -28.5 44.6 -28.5 46.8 -28.5 46.9 -28.5 47.15 -28.5 52.9 -28.5 58.55 -28.65 58.9 -28.75 59.3 -29.0 60.05 -29.05 60.8 -29.05 61.9 -29.0 62.65 -29.15 63.05 -29.3 63.4 -29.5 63.8 -29.5 64.9 -29.5 66.8 -29.5 67.2 -29.65 67.55 -29.8 67.9 -30.0 68.3 -30.0 69.05 -30.0 70.55 -30.0 71.3 -30.15 71.65 -30.35 72.05 -30.5 72.45 -30.5 72.8 -30.5 73.2 -30.85 73.9 -31.45 75.45 -31.65 76.2 -31.9 76.55 -31.9 78.6 -34.8 80.85 -36.0 81.7 Q-40.25 83.4 -44.35 84.05 L-44.4 84.05 -44.75 84.3 -48.5 84.4 Q-59.7 84.7 -69.55 76.8 L-71.55 75.05 -72.65 73.15 -73.8 70.95 -73.8 70.55 -73.8 70.2 -73.95 69.8 -74.15 69.4 -74.3 69.05 -74.3 68.7 -74.3 68.3 -74.35 67.95 -74.5 67.55 -74.8 66.8 -74.8 66.45 -74.8 66.05 -74.8 65.7 -74.95 65.3 -75.15 64.9 -75.3 64.55 -75.3 63.4 -75.3 61.55 -75.3 61.15 -75.45 60.8 -75.65 60.4 -75.8 60.05 -75.8 57.05 -75.65 52.9 -75.5 52.6 -74.75 51.8 -74.3 51.4 -73.4 51.25 -73.4 51.15 -72.55 51.4 -72.05 51.8 -71.8 52.2 -71.7 52.55 -71.55 53.3 -71.55 53.65 -71.65 54.05 -72.05 54.8 -72.05 55.15 -72.0 55.1 -71.55 54.8 -70.9 54.75 -70.9 54.65 -70.05 54.9 -69.55 55.3 -69.3 55.7 -69.15 56.05 -69.05 56.4 -69.05 59.8 -69.05 63.9 -68.9 64.3 -68.85 64.45 -68.55 60.55 -68.15 60.2 -67.75 59.95 -67.55 59.8 -66.9 59.75 -66.9 59.65 -66.05 59.9 -65.55 60.3 -65.3 60.7 -65.15 61.05 -65.05 61.4 -65.05 66.3 -64.4 66.25 -64.4 66.2 -63.55 66.45 -63.05 66.8 -62.8 67.2 -62.65 67.55 -62.55 67.95 -62.55 69.35 -62.5 69.35 -61.9 69.25 -61.9 69.2 -61.05 69.45 -60.55 69.8 -60.3 70.2 -60.15 70.55 -60.05 70.95 -60.05 71.3 -59.9 71.25 -59.9 71.2 -59.05 71.45 -58.55 71.8 -58.3 72.2 -58.15 72.55 -58.05 72.95 -58.05 73.3 -58.05 73.7 -58.05 74.0 -57.4 73.75 -57.4 73.7 -56.55 73.95 -56.15 74.25 -56.0 74.1 -55.55 73.8 -54.9 73.75 -54.9 73.7 -54.05 73.95 -53.55 74.3 -53.3 74.7 -53.15 75.05 -53.05 75.45 -53.05 76.2 -53.05 77.3 -53.05 78.05 -53.15 78.45 -53.3 78.8 -53.45 79.15 -53.9 79.55 -54.3 79.8 -54.6 79.9 -51.75 80.3 -52.15 79.95 -52.25 79.55 -52.3 78.8 -52.3 77.7 -52.1 77.35 Q-51.7 76.8 -51.65 76.2 L-51.4 75.45 -51.0 75.15 -49.9 74.75 -49.9 74.7 -49.0 74.95 -48.5 75.3 -48.3 75.7 -48.15 76.05 -48.0 76.45 -48.0 76.8 -48.05 77.55 -48.0 78.7 -48.15 79.05 -48.25 79.45 -48.55 79.75 -49.1 80.35 -45.15 79.15 -45.0 79.0 -45.25 78.8 -45.65 78.45 -45.75 77.7 -45.75 76.55 -45.65 75.8 -45.4 75.45 -45.0 75.1 -44.5 74.8 -43.9 74.75 -43.9 74.7 -43.4 74.7 -43.25 74.75 -43.3 74.3 -43.15 73.2 -42.75 72.8 -42.25 72.45 -41.4 72.25 -41.4 72.2 -40.5 72.45 -40.2 72.65 -40.25 72.4 -40.25 70.95 -40.25 70.2 -40.1 69.8 -39.9 69.4 -39.75 69.05 -39.75 68.7 -39.75 68.3 -39.5 67.55 -39.15 67.2 -38.75 66.95 -38.5 66.8 -37.9 66.75 -37.9 66.7 -37.0 66.95 -36.8 67.1 -36.75 65.95 -36.75 65.55 -36.6 65.2 -36.4 64.8 -36.25 64.4 -36.25 63.3 -36.25 61.4 -36.25 60.65 -36.4 60.3 -36.6 59.9 -36.75 59.55 -36.75 59.15 -36.75 58.8 -36.75 58.05 -36.65 57.65 -36.25 57.3 -35.75 56.9 -34.9 56.75 -34.9 56.65 -34.4 56.7 -33.5 56.9 -33.0 57.3 -32.8 57.7 -32.65 58.05 -32.55 58.25 -32.4 57.9 -32.25 57.55 -32.3 51.9 -32.2 47.4 -32.3 45.3 -32.25 41.9 -32.25 41.55 -32.1 41.2 -31.9 40.8 -31.75 40.4 -31.8 38.55 -31.75 35.9 -31.75 35.55 -31.35 34.4 -30.75 32.55 -30.65 32.15 -30.25 31.8 -29.75 31.4 -28.9 31.25 -28.9 31.15 -28.0 31.4 -27.5 31.8 -27.0 31.9 -26.5 32.3 -26.3 32.7 -26.15 33.05 -26.0 33.4 -26.0 33.8 -26.0 34.15 -26.0 34.55 -25.7 35.7 -25.65 35.85 -25.5 35.9 Q-24.8 36.35 -24.4 37.05 -23.85 37.9 -23.5 38.9 L-23.5 39.1 -23.25 38.95 -23.0 38.8 -22.4 38.75 -22.4 38.65 -21.5 38.9 -21.0 39.3 -20.8 39.7 -20.65 40.05 -20.5 40.4 -20.5 40.8 -20.5 41.55 -20.5 42.65 -20.35 43.05 -20.15 43.45 -20.0 43.8 -20.0 44.1 -19.75 43.95 -19.5 43.8 -18.9 43.75 -18.9 43.65 -18.0 43.9 -17.5 44.3 -17.3 44.7 -17.15 45.05 -17.0 45.4 -17.0 46.15 -17.0 47.6 -16.75 47.45 -16.5 47.3 -15.9 47.25 -15.9 47.15 -15.0 47.4 -14.5 47.8 -14.4 47.75 -14.4 47.65 -13.5 47.9 -13.0 48.3 -11.7 50.95 -10.25 53.8 -10.25 53.4 -10.25 52.65 -10.4 52.3 -10.6 51.9 -10.75 51.55 -10.75 51.15 -10.75 50.4 -10.65 49.65 -10.25 49.3 -9.75 48.9 -8.9 48.75 -8.9 48.65 -8.0 48.9 -7.5 49.3 -7.3 49.7 -7.25 49.85 -7.0 49.6 -6.5 49.3 -5.9 49.25 -5.9 49.15 -5.0 49.4 -4.8 49.55 -4.65 48.8 -3.95 48.2 -2.25 46.9 -2.0 46.85 -1.4 46.75 -1.4 46.65 -0.5 46.9 0.0 47.3 0.2 47.7 0.25 47.7 0.25 47.15 0.25 46.05 0.35 45.3 0.65 44.95 1.0 44.6 1.5 44.3 2.1 44.25 2.1 44.15 3.0 44.4 3.5 44.8 3.7 45.2 3.75 45.3 4.25 44.9 5.1 44.75 5.1 44.65 6.0 44.75 6.6 44.75 6.3 44.05 5.8 42.15 5.75 41.8 5.85 41.4 6.05 41.1 6.75 40.4 7.0 40.3 7.6 40.15 8.35 40.3 8.85 40.15 9.25 39.95 9.5 39.8 10.1 39.75 10.1 39.65 11.0 39.9 11.25 40.1 11.25 39.9 11.1 39.9 10.25 39.65 9.75 39.3 9.25 38.9 9.1 38.9 8.25 38.65 7.75 38.3 7.35 37.9 7.3 37.55 7.25 36.8 7.25 36.05 7.1 35.7 6.9 35.3 6.75 34.9 6.75 34.55 6.75 34.15 6.75 33.8 6.7 33.45 6.5 33.05 6.25 32.3 6.25 31.55 6.25 30.4 6.35 29.65 6.75 29.3 7.25 28.9 8.1 28.75 8.1 28.65 9.0 28.9 9.25 29.1 9.25 27.4 9.25 27.05 9.1 26.65 9.0 26.3 8.75 25.55 8.8 22.9 Q8.9 20.95 8.25 19.15 L8.25 18.8 8.25 18.05 8.25 16.9 8.1 16.55 8.0 16.15 7.75 15.4 7.7 11.3 Q7.65 9.0 7.85 6.8 L8.15 6.45 8.5 6.05 9.0 5.8 9.6 5.75 9.6 5.65 10.5 5.9 11.0 6.3 11.2 6.65 M-68.9 71.05 L-69.05 71.15 -68.8 71.7 -68.8 71.0 -68.9 71.05 M-64.0 76.0 L-64.0 75.95 -64.1 75.95 -63.95 76.05 -64.0 76.0 M-36.4 71.05 L-36.35 71.4 -36.15 72.15 Q-35.95 72.7 -36.0 73.3 L-36.15 73.65 -36.4 74.05 -36.5 74.2 -36.5 74.3 -36.5 74.45 -36.0 74.8 -35.8 75.2 -35.75 75.3 -35.75 75.2 -34.9 72.9 -34.25 71.3 -34.9 71.45 -35.75 71.2 -36.25 70.8 -36.4 71.05" fill="#ff6600" fill-rule="evenodd" stroke="none"/>
  </g>
</svg>
