<?xml version="1.0" encoding="UTF-8" standalone="no"?>
<svg xmlns:ffdec="https://www.free-decompiler.com/flash" xmlns:xlink="http://www.w3.org/1999/xlink" ffdec:objectType="shape" height="34.15px" width="99.5px" xmlns="http://www.w3.org/2000/svg">
  <g transform="matrix(1.0, 0.0, 0.0, 1.0, 418.0, -4.45)">
    <path d="M-320.0 9.0 L-319.5 9.5 -319.35 9.85 -319.15 10.25 -319.0 10.6 -318.8 11.0 -318.65 11.35 -318.5 11.75 -318.55 12.1 -318.65 12.5 -318.75 12.85 -318.9 13.25 -319.15 13.6 -319.5 13.9 -319.5 14.35 -319.5 17.0 -319.5 19.25 -319.65 19.6 -319.8 20.0 -320.0 20.35 -320.0 20.75 -320.0 21.1 -320.15 21.5 -320.25 21.85 -320.4 22.25 -320.95 23.0 -321.7 24.05 -322.65 25.6 -323.0 26.0 -323.4 26.35 -323.75 26.75 -324.15 27.1 -324.3 27.5 -324.5 27.85 -324.8 28.2 -325.3 28.6 -326.0 29.0 -326.75 29.75 -327.9 30.85 -328.75 31.6 Q-335.5 34.6 -342.3 35.85 -352.4 40.3 -363.6 37.5 -368.2 36.35 -372.0 33.5 L-372.25 33.1 -372.4 32.75 -372.45 32.55 -373.55 32.1 Q-377.4 30.5 -380.75 28.1 L-381.5 28.0 -382.65 27.75 -383.1 27.35 -383.5 27.0 -383.9 26.6 Q-392.65 21.6 -403.0 21.75 -408.55 24.75 -414.5 23.5 L-415.65 23.25 -416.1 22.85 -416.5 22.5 -416.75 22.1 -416.9 21.75 -417.15 21.35 -417.4 21.0 -417.45 20.6 -417.5 20.25 -417.5 19.5 -417.5 19.0 -417.75 18.65 -417.9 18.3 -418.0 17.9 -418.0 17.55 -418.0 17.15 -418.0 16.8 -418.0 16.4 -417.85 16.05 -417.65 15.6 -417.4 15.25 -417.25 14.9 -417.0 14.45 -416.65 14.05 -416.25 13.65 -415.9 13.2 -415.15 12.75 -414.65 12.35 -414.25 11.95 -413.9 11.55 -413.15 11.05 Q-410.55 8.95 -407.4 7.95 L-401.25 5.65 -400.5 5.5 -400.5 5.45 -388.05 4.95 Q-383.3 4.95 -379.5 7.55 L-378.55 7.75 -377.0 8.25 Q-375.85 8.7 -375.0 9.65 L-374.25 9.95 -373.75 10.25 -373.4 10.6 -373.0 10.95 -372.4 11.1 -370.0 11.6 -370.0 10.65 -368.0 11.1 -366.3 11.7 Q-363.5 12.75 -360.55 12.3 L-356.05 11.55 -355.75 11.25 -355.4 10.85 -354.75 10.65 -353.9 10.35 -353.0 10.0 -352.25 9.65 -351.4 9.35 -350.35 8.75 Q-348.1 7.75 -345.7 7.05 -342.55 6.15 -339.65 4.75 L-339.25 4.65 -338.5 4.55 -338.5 4.5 Q-332.4 4.15 -326.55 5.6 -324.15 6.2 -322.05 7.5 L-320.9 7.6 -320.55 8.0 -320.35 8.35 -320.15 8.75 -320.0 9.0 M-411.7 18.7 Q-395.1 13.25 -380.15 22.85 -363.05 33.65 -344.6 30.65 -343.6 30.1 -342.5 30.0 L-342.0 30.05 -341.65 30.1 Q-336.6 29.0 -331.4 26.85 L-330.65 26.1 -329.45 25.05 -328.25 24.25 -328.05 23.85 -327.85 23.5 -327.65 23.1 -327.25 22.75 -326.9 22.35 -326.5 22.0 -326.15 21.6 -326.05 21.25 -326.0 20.85 -325.9 20.5 -325.6 20.15 -325.25 19.75 -325.05 19.35 -325.0 19.0 -325.0 18.6 -324.9 18.25 -324.75 17.85 -324.65 17.5 -324.5 17.1 -324.5 16.75 -324.5 16.35 -324.5 15.6 -324.55 14.85 -324.65 14.5 -324.9 14.15 -325.25 13.75 -325.65 13.35 -326.0 13.0 -326.5 12.85 -327.5 13.0 -328.65 12.75 -329.1 12.35 -329.5 12.0 -329.6 11.85 Q-340.35 11.6 -350.4 15.5 -356.75 17.9 -363.3 17.75 L-368.0 17.6 -370.0 17.25 -371.1 16.95 -372.25 16.5 -385.1 11.3 Q-391.95 8.3 -400.0 10.55 -406.35 12.3 -411.6 16.3 L-411.5 16.6 -411.5 17.0 -411.5 17.35 -411.5 17.75 -411.65 18.1 -411.75 18.5 -411.9 18.75 -411.7 18.7" fill="#000000" fill-rule="evenodd" stroke="none"/>
    <path d="M-411.75 18.5 L-411.65 18.1 -411.5 17.75 -411.5 17.35 -411.5 17.0 -411.5 16.6 -411.6 16.3 Q-406.35 12.3 -400.0 10.55 -391.95 8.3 -385.1 11.3 L-372.25 16.5 -371.1 16.95 -370.0 17.25 -368.0 17.6 -363.3 17.75 Q-356.75 17.9 -350.4 15.5 -340.35 11.6 -329.6 11.85 L-329.5 12.0 -329.1 12.35 -328.65 12.75 -327.5 13.0 -326.5 12.85 -326.0 13.0 -325.65 13.35 -325.25 13.75 -324.9 14.15 -324.65 14.5 -324.55 14.85 -324.5 15.6 -324.5 16.35 -324.5 16.75 -324.5 17.1 -324.65 17.5 -324.75 17.85 -324.9 18.25 -325.0 18.6 -325.0 19.0 -325.05 19.35 -325.25 19.75 -325.6 20.15 -325.9 20.5 -326.0 20.85 -326.05 21.25 -326.15 21.6 -326.5 22.0 -326.9 22.35 -327.25 22.75 -327.65 23.1 -327.85 23.5 -328.05 23.85 -328.25 24.25 -329.45 25.05 -330.65 26.1 -331.4 26.85 Q-336.6 29.0 -341.65 30.1 L-342.0 30.05 -342.5 30.0 Q-343.6 30.1 -344.6 30.65 -363.05 33.65 -380.15 22.85 -395.1 13.25 -411.7 18.7 L-411.75 18.5" fill="#80a839" fill-rule="evenodd" stroke="none"/>
  </g>
</svg>
