<?xml version="1.0" encoding="UTF-8" standalone="no"?>
<svg xmlns:ffdec="https://www.free-decompiler.com/flash" xmlns:xlink="http://www.w3.org/1999/xlink" ffdec:objectType="shape" height="170.05px" width="138.85px" xmlns="http://www.w3.org/2000/svg">
  <g transform="matrix(1.0, 0.0, 0.0, 1.0, 74.85, 83.95)">
    <path d="M48.15 -74.9 L45.35 -75.8 40.6 -75.95 Q38.25 -76.55 37.25 -78.6 L37.25 -79.0 37.3 -79.3 32.7 -79.5 31.25 -79.4 30.75 -79.35 28.5 -79.35 27.75 -78.95 27.35 -78.65 27.0 -78.35 Q25.5 -77.95 24.15 -77.15 22.95 -76.45 21.6 -76.1 L20.75 -76.35 20.25 -76.75 19.85 -77.1 19.75 -77.5 19.75 -77.85 19.75 -78.6 19.85 -79.35 Q21.1 -80.6 22.8 -81.2 L25.35 -82.0 Q29.6 -84.45 34.6 -83.85 L35.6 -83.8 36.5 -83.6 37.0 -83.25 37.2 -83.0 39.9 -82.6 45.5 -81.6 47.65 -80.15 Q50.3 -78.65 52.4 -76.4 L56.5 -72.25 56.7 -71.85 57.0 -71.1 57.25 -70.35 57.35 -70.0 57.45 -69.6 57.5 -69.25 57.85 -68.85 58.55 -67.75 58.85 -67.0 59.2 -66.2 59.9 -65.1 59.95 -64.75 Q59.95 -64.1 60.3 -63.55 L60.7 -62.85 60.95 -62.1 61.5 -60.6 61.5 -60.25 61.5 -59.85 61.65 -59.5 61.95 -58.7 62.2 -58.0 62.35 -57.6 62.5 -57.25 62.5 -56.85 62.5 -56.5 62.65 -56.1 62.75 -55.75 62.9 -55.35 63.0 -55.0 63.0 -54.6 63.0 -54.25 63.0 -53.85 63.0 -53.5 63.15 -53.1 63.25 -52.75 63.4 -52.35 63.5 -52.0 63.5 -51.6 63.5 -50.1 63.5 -49.35 63.5 -47.85 63.5 -46.35 63.65 -46.0 63.85 -45.6 64.0 -45.25 64.0 -44.85 64.0 -43.35 64.0 -42.25 64.0 -40.35 64.0 -38.5 63.9 -38.1 63.75 -37.75 63.65 -37.35 63.5 -37.0 63.5 -36.6 63.5 -36.25 63.5 -35.85 63.35 -35.5 62.6 -34.0 62.1 -33.2 61.0 -31.7 60.65 -31.35 60.4 -30.95 60.25 -30.6 60.0 -30.25 59.65 -29.85 58.15 -28.35 57.0 -27.2 55.75 -26.25 54.8 -25.9 51.75 -25.8 50.25 -26.35 49.75 -26.75 49.35 -27.1 49.05 -27.5 48.85 -27.85 48.75 -28.25 48.75 -28.6 48.8 -28.95 48.85 -29.35 49.2 -29.65 49.2 -30.1 49.25 -32.0 49.25 -34.25 49.2 -34.6 49.0 -35.0 48.85 -35.35 48.8 -35.75 48.75 -36.1 48.25 -36.85 47.9 -37.6 47.4 -38.75 47.25 -39.1 46.6 -39.85 45.85 -40.6 Q45.4 -41.05 45.1 -41.6 L44.25 -41.85 Q43.55 -42.35 42.95 -42.95 L42.4 -43.15 Q40.4 -43.75 39.35 -45.35 L39.3 -45.75 39.25 -46.1 39.25 -46.2 38.6 -46.6 37.75 -46.85 35.25 -47.35 34.75 -47.75 34.4 -48.15 34.25 -48.5 34.25 -48.85 34.25 -49.25 34.35 -49.6 34.55 -49.95 34.85 -50.35 35.25 -50.6 35.5 -50.7 36.1 -50.8 36.1 -50.85 Q38.85 -51.1 41.25 -49.65 43.0 -48.55 44.35 -46.85 L45.1 -46.45 45.35 -46.3 45.5 -46.45 46.0 -46.65 46.6 -46.8 46.6 -46.85 47.5 -46.6 48.4 -45.9 49.6 -45.1 49.85 -44.75 50.1 -44.35 Q51.75 -43.45 52.25 -41.75 52.8 -39.8 53.65 -38.0 L53.85 -37.6 54.0 -37.0 54.25 -37.25 54.6 -37.6 55.0 -38.0 55.5 -38.2 56.2 -38.55 56.35 -38.75 56.65 -39.1 56.85 -39.3 56.75 -39.35 56.25 -39.75 55.85 -40.1 55.8 -40.5 55.75 -40.85 55.75 -41.6 55.75 -42.0 55.6 -42.35 55.45 -42.75 55.25 -43.5 55.25 -43.85 55.4 -44.2 55.65 -44.6 56.0 -45.0 56.5 -45.15 57.1 -45.3 57.1 -45.35 57.15 -45.35 57.0 -45.7 56.6 -46.85 55.85 -47.6 Q55.3 -48.1 54.85 -48.75 L54.6 -49.1 54.0 -49.5 53.6 -49.85 53.35 -50.65 Q53.25 -51.15 53.3 -51.7 L53.5 -52.5 53.9 -52.85 54.05 -52.95 53.6 -53.35 53.4 -53.75 53.05 -54.5 52.75 -55.25 52.75 -55.6 52.75 -56.35 53.0 -57.5 53.4 -57.85 53.75 -58.1 54.0 -58.25 54.6 -58.3 54.6 -58.35 55.5 -58.1 55.8 -57.9 55.75 -58.0 55.75 -58.35 55.7 -58.75 55.6 -59.1 55.45 -59.45 55.3 -59.65 55.1 -59.5 54.75 -59.25 54.1 -59.1 53.65 -59.15 52.75 -59.35 52.25 -59.75 51.85 -60.1 51.1 -60.85 50.85 -61.65 50.4 -63.15 50.25 -63.85 50.4 -64.2 50.65 -64.6 51.0 -65.0 51.15 -65.05 50.75 -65.85 50.8 -66.25 50.85 -66.6 51.05 -66.95 51.35 -67.35 51.75 -67.6 52.0 -67.7 52.6 -67.8 52.6 -67.85 52.9 -67.75 51.6 -68.85 50.1 -70.35 49.85 -70.55 49.65 -70.65 48.75 -70.85 48.25 -71.25 47.9 -71.65 47.75 -72.0 47.75 -72.35 47.8 -72.75 47.85 -73.1 48.05 -73.45 48.4 -73.85 48.85 -74.25 48.6 -74.6 48.15 -74.9 M53.8 -67.35 L54.5 -66.75 54.25 -67.2 53.8 -67.35 M60.15 -40.6 L59.45 -40.8 59.35 -40.6 59.25 -40.25 59.05 -39.9 58.85 -39.65 59.0 -39.6 59.5 -39.25 59.75 -38.85 59.9 -38.55 59.9 -38.6 60.05 -38.95 60.25 -39.35 60.25 -39.75 60.25 -40.6 60.15 -40.6 M57.9 -33.95 L57.8 -33.75 58.1 -34.1 58.25 -34.5 58.1 -34.35 57.9 -33.95 M53.2 -29.9 L53.0 -30.05 53.0 -29.85 53.2 -29.9 M19.25 47.45 L19.5 47.35 20.1 47.25 20.1 47.15 20.6 47.2 21.5 47.4 22.8 48.45 24.75 50.05 25.4 50.9 25.5 50.85 26.1 50.75 26.1 50.65 26.6 50.7 27.5 50.9 29.9 53.0 30.3 53.4 30.75 53.45 30.75 53.3 30.85 52.9 31.05 52.55 31.4 52.2 31.75 51.9 32.0 51.85 32.6 51.75 32.6 51.65 33.1 51.7 34.0 51.9 34.5 52.3 34.7 52.7 34.85 53.05 35.0 53.4 35.0 53.8 35.2 54.2 35.35 54.55 35.45 55.3 35.35 55.65 35.0 55.9 35.0 56.4 35.0 60.15 34.7 60.9 34.3 62.0 34.0 62.8 34.0 63.15 34.0 63.55 32.55 66.8 30.5 70.3 30.1 70.65 29.75 71.05 29.35 71.4 29.25 71.8 29.1 72.15 28.6 72.55 28.0 72.9 27.75 73.3 27.6 73.65 27.1 74.0 26.35 74.4 26.0 74.8 25.6 75.15 24.75 75.8 Q14.05 78.4 3.25 77.8 L0.15 77.15 Q-5.75 74.95 -9.75 70.4 L-9.75 70.05 -9.75 69.7 -9.65 69.5 -13.75 67.3 -14.1 66.9 -14.25 66.55 -14.75 66.15 -15.25 65.8 -15.6 65.4 -15.75 65.05 -16.25 64.65 -16.75 64.3 -17.1 63.9 -17.55 63.2 -18.15 62.4 -18.25 62.05 -18.3 61.65 -18.4 61.3 -18.65 60.95 -19.0 60.5 -19.15 60.15 -19.25 59.4 -19.25 57.9 -19.15 57.15 -18.75 56.8 -18.25 56.4 -17.4 56.25 -17.4 56.15 -16.5 56.4 -16.0 56.8 -15.8 57.2 -15.65 57.55 -15.5 57.9 -15.5 58.3 -15.5 58.65 -15.25 59.05 -14.9 59.4 -14.75 59.8 -14.5 60.55 -14.15 61.3 -13.85 61.65 -13.4 62.05 -12.9 62.4 -12.65 62.8 -12.4 63.15 -11.9 63.55 -11.4 63.9 -11.15 64.3 -10.9 64.65 -9.6 65.25 -9.75 64.15 -9.6 63.8 -9.35 63.45 -9.0 63.05 -8.5 62.85 -7.9 62.75 -7.9 62.65 -7.0 62.9 -6.55 63.35 -5.95 64.05 -5.5 64.8 -4.4 65.55 -4.25 65.45 -4.0 65.35 -3.4 65.25 -3.4 65.15 -2.5 65.4 3.6 69.9 4.75 70.8 4.85 70.4 5.05 70.1 4.25 68.9 4.25 68.55 4.25 68.2 4.4 67.8 4.6 67.4 5.0 67.1 Q5.25 66.9 5.5 66.85 L6.1 66.75 6.1 66.65 6.95 66.95 7.6 67.3 8.35 67.65 8.6 68.05 8.85 68.4 9.25 68.75 9.85 69.2 10.6 69.9 10.75 69.95 10.75 69.65 10.8 69.3 Q10.85 68.9 11.05 68.6 L11.35 68.15 11.75 67.95 12.0 67.85 12.6 67.75 12.6 67.65 16.8 67.8 16.85 67.7 16.85 67.65 17.25 67.3 17.75 66.9 18.85 66.55 22.6 65.65 23.0 65.65 23.25 65.4 24.1 65.25 24.1 65.15 25.1 65.25 26.0 65.4 26.4 65.75 26.5 65.45 27.2 63.55 27.35 63.15 27.75 62.8 28.05 62.6 27.85 62.4 27.75 62.05 27.75 61.65 27.75 60.9 27.75 60.15 27.65 59.85 27.4 59.4 26.9 58.65 26.75 58.3 26.75 57.9 26.75 57.55 26.85 57.15 27.25 56.8 27.35 56.75 Q25.8 56.05 24.25 54.75 L22.25 53.3 21.9 52.9 21.75 52.55 21.25 52.15 20.75 51.75 20.0 51.05 18.8 50.2 18.25 49.55 18.25 49.15 18.3 48.8 Q18.35 48.4 18.55 48.1 L18.85 47.65 19.25 47.45 M17.3 72.3 L17.4 71.9 17.25 71.8 16.95 71.45 15.15 71.65 15.2 71.7 15.35 72.05 15.45 72.4 15.35 73.15 15.35 73.2 17.25 72.75 17.25 72.65 17.3 72.3 M-70.9 70.7 L-70.4 70.7 -69.55 70.95 -69.05 71.3 -68.8 71.7 -68.65 72.05 -68.55 72.45 -68.55 72.8 -68.55 72.9 -68.55 72.95 -68.55 74.05 -68.55 75.95 -68.55 76.7 -68.65 77.05 -68.8 77.45 -69.05 77.75 -69.0 78.45 Q-68.95 79.05 -69.4 79.55 L-69.55 79.8 -69.15 80.2 -68.8 80.55 -68.8 80.45 -68.75 80.05 -68.65 79.7 -68.25 79.3 -67.8 78.95 -66.95 78.75 -66.9 78.7 -66.4 78.7 -65.55 78.95 -63.85 80.35 -63.05 81.3 -62.9 81.3 -62.05 81.45 -61.55 81.8 -61.3 82.2 -61.2 82.55 -61.1 83.3 -61.15 83.7 -61.4 84.05 -61.7 84.4 -62.05 84.7 -62.3 84.8 -62.7 84.9 -63.05 85.2 Q-68.2 87.05 -71.95 82.7 L-73.05 81.55 -73.45 80.85 -74.45 79.3 -74.65 78.95 -74.85 77.8 -74.65 75.95 -74.55 75.55 -74.3 75.35 -74.3 75.05 -74.3 74.3 -74.35 73.95 -74.5 73.55 -74.8 72.8 -74.8 72.45 -74.75 72.05 -74.65 71.3 -74.4 70.95 -74.0 70.6 -73.55 70.3 -72.9 70.25 -72.9 70.2 -72.05 70.45 -71.55 70.8 -70.9 70.75 -70.9 70.7 M-42.8 79.45 L-42.5 79.35 -41.9 79.25 -41.9 79.2 -41.05 79.45 -40.55 79.85 -40.3 80.2 -40.1 80.75 Q-39.45 80.8 -38.85 81.2 L-38.05 81.05 -37.4 80.65 -37.6 80.4 -37.8 80.05 -37.8 79.7 -37.75 79.3 -37.45 78.6 -37.15 78.2 -36.75 77.95 -36.5 77.85 -35.9 77.75 -35.9 77.7 -34.9 77.75 -34.25 77.9 -34.25 77.8 -34.15 77.45 -34.0 77.1 -33.65 76.7 -32.55 75.55 -32.0 75.35 -31.95 75.35 -31.65 74.7 -31.75 74.15 -31.8 72.7 -31.55 71.55 -31.15 71.2 -30.75 70.95 -30.55 70.8 -29.9 70.75 -29.9 70.7 -29.05 70.95 -28.55 71.35 -27.95 72.1 -27.5 72.8 -27.7 73.55 -27.75 73.75 -27.65 74.05 -27.5 74.45 -27.5 74.8 -27.5 75.2 -27.5 75.55 -28.1 77.05 -28.1 77.3 -28.15 77.7 -28.4 78.05 -28.7 78.4 -28.95 78.65 -29.6 79.7 -29.6 80.3 -29.65 80.7 Q-30.3 81.75 -31.5 82.25 L-32.9 82.8 Q-33.8 83.3 -34.8 83.55 L-36.1 84.45 -36.15 84.55 -36.3 84.95 -36.55 85.25 -37.05 85.7 -37.9 85.95 -38.35 85.85 -42.8 85.7 -43.25 85.3 -43.6 84.9 -43.8 84.55 -43.8 84.2 -43.75 83.8 -43.6 83.45 -44.0 83.0 -44.15 82.7 -44.25 82.3 -44.25 81.55 -44.15 80.8 -43.9 80.45 -43.15 79.7 -42.8 79.45" fill="#ff6600" fill-rule="evenodd" stroke="none"/>
  </g>
</svg>
