<?xml version="1.0" encoding="UTF-8" standalone="no"?>
<svg xmlns:ffdec="https://www.free-decompiler.com/flash" xmlns:xlink="http://www.w3.org/1999/xlink" ffdec:objectType="shape" height="37.4px" width="97.45px" xmlns="http://www.w3.org/2000/svg">
  <g transform="matrix(1.0, 0.0, 0.0, 1.0, 416.0, -3.95)">
    <path d="M-320.05 8.95 L-319.55 9.45 -319.4 9.8 -319.2 10.2 -319.05 10.55 -318.85 10.95 -318.75 11.3 -318.55 11.75 -318.6 12.1 -318.7 12.5 -318.8 12.85 -319.0 13.2 -319.2 13.55 -319.55 13.85 -319.55 14.3 -319.55 16.95 -319.55 19.2 -319.7 19.55 -319.85 19.95 -320.05 20.3 -320.05 20.7 -320.05 21.05 -320.2 21.45 -320.3 21.8 -320.45 22.2 -321.0 22.9 -321.75 23.95 Q-322.45 24.6 -322.75 25.5 L-323.1 25.9 -323.5 26.25 -323.9 26.65 -324.3 27.0 -324.45 27.4 -324.65 27.75 -324.95 28.15 -325.5 28.5 -326.25 29.0 -327.0 29.8 -328.25 30.95 -329.15 31.7 Q-336.4 35.1 -343.85 37.2 -355.2 43.05 -366.8 40.7 -371.5 39.5 -375.2 36.3 L-375.4 35.85 -375.5 35.5 -375.55 35.25 -376.65 34.7 Q-380.4 32.7 -383.35 29.8 L-384.05 29.55 Q-384.6 29.3 -385.15 29.2 L-385.55 28.7 -385.9 28.25 -386.3 27.8 Q-391.55 23.45 -397.5 21.45 L-397.5 20.9 -398.15 20.75 -398.6 20.35 -399.0 20.0 -399.25 19.6 -410.4 24.55 -413.65 24.75 -414.1 24.35 -414.5 24.0 -414.9 23.6 -415.2 23.2 -415.4 22.85 -415.45 22.5 -415.5 22.1 -415.5 21.75 -415.5 21.35 -415.65 21.0 -415.75 20.6 -415.9 20.25 -416.0 19.85 -416.0 19.5 -416.0 18.75 -416.0 18.0 -416.0 16.85 -415.85 16.5 -415.4 15.75 -415.2 15.4 -414.65 14.6 -414.55 14.25 -414.45 13.85 -414.4 13.5 -412.65 11.6 -408.9 7.85 -408.25 7.65 -407.4 7.35 -407.0 7.0 -406.65 6.75 Q-403.35 5.5 -399.95 4.9 L-397.5 4.4 -397.5 4.0 -396.3 4.1 -396.0 4.0 Q-394.75 3.85 -393.6 4.35 L-389.85 4.85 Q-385.45 5.35 -381.85 8.45 L-381.0 8.75 -379.5 9.45 Q-378.45 9.95 -377.6 11.1 L-376.9 11.45 -376.45 11.8 -376.1 12.2 -375.7 12.6 -375.15 12.8 -372.75 13.45 -372.75 12.45 -370.8 12.95 -369.05 13.65 Q-366.4 14.75 -363.15 14.25 L-358.45 13.35 -358.15 12.95 -357.75 12.55 Q-357.55 12.35 -357.0 12.3 -356.65 12.0 -356.1 11.95 L-355.15 11.55 Q-354.85 11.35 -354.35 11.1 L-353.45 10.75 -352.35 10.1 Q-349.9 8.85 -347.3 8.0 L-340.75 5.25 -340.3 5.2 -339.5 5.0 -339.5 4.95 -326.8 5.55 Q-324.35 6.05 -322.15 7.4 L-320.95 7.5 -320.6 7.9 -320.4 8.3 -320.2 8.7 -320.05 8.95 M-330.0 11.9 Q-341.6 12.1 -352.45 17.05 -359.4 19.95 -366.15 20.0 L-370.95 19.8 -372.85 19.35 -373.95 19.0 -375.1 18.45 Q-381.4 15.4 -387.15 11.75 -389.55 10.25 -392.05 9.5 L-392.25 9.6 -392.75 9.8 -393.5 10.0 -394.0 9.95 -395.1 9.7 -395.5 9.5 Q-398.3 9.25 -400.8 10.25 L-402.25 10.75 -402.75 11.1 -403.25 11.35 -404.15 11.6 -404.6 12.0 -404.9 12.25 -405.25 12.35 -406.15 12.6 -406.9 13.35 -408.0 14.5 -409.15 15.6 -409.45 16.05 -409.55 16.35 -409.65 16.75 -409.85 17.15 -410.0 17.5 -410.4 17.85 -410.7 18.3 -410.75 18.6 -410.55 18.85 -410.0 19.0 Q-403.6 13.2 -396.25 15.4 -395.0 15.75 -394.6 16.95 -388.5 19.25 -382.7 24.35 -367.1 37.75 -346.35 32.15 -345.3 31.4 -344.05 31.25 L-343.5 31.3 -343.1 31.3 Q-337.6 29.6 -331.95 27.1 L-331.15 26.3 Q-330.6 25.65 -329.9 25.2 L-328.6 24.3 -328.4 23.9 -328.2 23.55 -327.95 23.1 -327.55 22.75 -327.2 22.3 -326.75 22.0 -326.4 21.6 -326.3 21.2 -326.25 20.8 -326.15 20.4 -325.8 20.05 -325.45 19.7 -325.25 19.3 -325.2 18.9 -325.2 18.5 -325.1 18.15 -324.9 17.75 -324.8 17.4 -324.65 17.0 -324.65 16.65 -324.65 16.25 -324.65 15.5 -324.75 14.75 -324.8 14.4 -325.1 14.05 -325.45 13.7 -325.85 13.25 -326.25 12.9 -326.75 12.8 -327.8 12.95 -329.0 12.7 -329.5 12.35 -329.9 12.05 -330.0 11.9" fill="#000000" fill-rule="evenodd" stroke="none"/>
    <path d="M-330.0 11.9 L-329.9 12.05 -329.5 12.35 -329.0 12.7 -327.8 12.95 -326.75 12.8 -326.25 12.9 -325.85 13.25 -325.45 13.7 -325.1 14.05 -324.8 14.4 -324.75 14.75 -324.65 15.5 -324.65 16.25 -324.65 16.65 -324.65 17.0 -324.8 17.4 -324.9 17.75 -325.1 18.15 -325.2 18.5 -325.2 18.9 -325.25 19.3 -325.45 19.7 -325.8 20.05 -326.15 20.4 -326.25 20.8 -326.3 21.2 -326.4 21.6 -326.75 22.0 -327.2 22.3 -327.55 22.75 -327.95 23.1 -328.2 23.55 -328.4 23.9 -328.6 24.3 -329.9 25.2 Q-330.6 25.65 -331.15 26.3 L-331.95 27.1 Q-337.6 29.6 -343.1 31.3 L-343.5 31.3 -344.05 31.25 Q-345.3 31.4 -346.35 32.15 -367.1 37.75 -382.7 24.35 -388.5 19.25 -394.6 16.95 -395.0 15.75 -396.25 15.4 -403.6 13.2 -410.0 19.0 L-410.55 18.85 -410.75 18.6 -410.7 18.3 -410.4 17.85 -410.0 17.5 -409.85 17.15 -409.65 16.75 -409.55 16.35 -409.45 16.05 -409.15 15.6 -408.0 14.5 -406.9 13.35 -406.15 12.6 -405.25 12.35 -404.9 12.25 -404.6 12.0 -404.15 11.6 -403.25 11.35 -402.75 11.1 -402.25 10.75 -400.8 10.25 Q-398.3 9.25 -395.5 9.5 L-395.1 9.7 -394.0 9.95 -393.5 10.0 -392.75 9.8 -392.25 9.6 -392.05 9.5 Q-389.55 10.25 -387.15 11.75 -381.4 15.4 -375.1 18.45 L-373.95 19.0 -372.85 19.35 -370.95 19.8 -366.15 20.0 Q-359.4 19.95 -352.45 17.05 -341.6 12.1 -330.0 11.9" fill="#80a839" fill-rule="evenodd" stroke="none"/>
  </g>
</svg>
