<?xml version="1.0" encoding="UTF-8" standalone="no"?>
<svg xmlns:ffdec="https://www.free-decompiler.com/flash" xmlns:xlink="http://www.w3.org/1999/xlink" ffdec:objectType="shape" height="239.5px" width="196.3px" xmlns="http://www.w3.org/2000/svg">
  <g transform="matrix(1.0, 0.0, 0.0, 1.0, -164.2, 30.0)">
    <path d="M347.25 -30.0 L352.65 -26.85 357.25 -24.0 Q359.6 -21.65 359.25 -17.95 358.7 -12.75 358.75 -7.5 L358.75 -4.5 Q358.0 -3.0 357.55 -1.4 356.8 1.3 355.85 3.5 354.85 5.85 352.25 7.55 L350.2 8.1 Q346.5 8.3 342.75 8.05 L341.25 6.55 339.75 5.05 338.25 3.55 337.75 2.05 337.25 0.55 336.65 -0.9 335.75 -2.5 335.75 -5.5 335.75 -10.0 335.75 -16.0 336.35 -17.45 337.15 -19.0 338.6 -22.0 339.75 -25.0 341.25 -26.5 342.85 -27.85 Q344.5 -29.0 346.3 -29.8 L347.25 -30.0 M358.6 146.1 L358.75 149.05 360.5 151.35 358.75 192.55 356.75 195.55 352.25 207.6 349.25 209.5 345.75 209.1 345.5 199.35 343.75 197.05 335.75 159.55 350.25 139.55 353.25 140.05 358.6 146.1 M206.7 120.05 L199.9 112.5 199.7 99.05 Q213.25 93.1 226.8 98.95 229.7 100.3 232.2 102.55 L234.7 111.55 234.05 123.45 232.7 125.05 Q230.2 147.7 206.7 153.15 184.65 158.1 164.2 148.35 L164.2 141.65 Q185.85 146.5 203.8 134.3 210.25 129.85 211.3 122.05 L206.7 120.05" fill="#ff4900" fill-opacity="0.3019608" fill-rule="evenodd" stroke="none"/>
  </g>
</svg>
