<?xml version="1.0" encoding="UTF-8" standalone="no"?>
<svg xmlns:ffdec="https://www.free-decompiler.com/flash" xmlns:xlink="http://www.w3.org/1999/xlink" ffdec:objectType="shape" height="184.8px" width="348.2px" xmlns="http://www.w3.org/2000/svg">
  <g transform="matrix(1.0, 0.0, 0.0, 1.0, 266.3, 87.95)">
    <path d="M76.8 -59.8 L80.9 -49.2 80.9 -48.45 80.9 -47.7 80.9 -46.95 81.15 -46.2 81.4 -45.45 81.65 -44.7 81.9 -43.95 81.9 -41.1 81.9 -40.95 81.9 -40.45 81.9 -38.7 81.9 -38.2 81.65 -37.45 81.4 -36.7 81.15 -35.95 80.9 -35.2 80.9 -34.45 80.9 -34.2 80.9 -33.7 80.9 -32.95 80.65 -32.2 80.4 -31.45 80.15 -30.7 79.9 -29.95 79.9 -29.2 79.9 -28.45 79.9 -27.7 79.9 -26.95 79.65 -26.2 79.4 -25.45 79.15 -24.7 78.9 -23.95 78.9 -23.2 78.9 -23.15 74.65 -16.2 70.05 -11.8 63.7 -5.95 52.15 -7.2 52.1 -7.05 50.65 -6.95 49.15 -6.45 48.15 -5.65 47.4 -4.95 47.15 -4.7 47.1 -9.7 43.1 -11.95 Q40.6 -13.6 39.25 -16.1 L38.15 -15.95 33.95 -16.95 29.65 -17.95 Q28.15 -15.25 25.7 -13.4 22.9 -11.25 19.6 -10.45 29.95 -7.95 32.8 3.15 34.15 8.35 34.3 13.75 35.5 11.85 36.95 10.1 41.1 5.05 46.75 3.6 L46.8 3.45 47.4 4.05 48.15 4.75 49.15 5.55 Q54.8 6.0 60.3 7.25 L60.4 7.55 60.65 8.3 61.4 9.05 62.15 9.75 63.15 10.55 64.65 11.0 66.15 11.3 67.45 11.1 67.65 11.3 69.1 12.15 69.9 12.8 71.15 15.2 72.2 17.3 72.9 18.8 72.9 19.55 72.9 20.3 73.15 21.05 73.45 21.8 73.8 22.6 73.9 23.3 73.95 24.05 Q74.0 24.8 74.2 25.55 L74.65 27.05 74.9 27.8 74.9 28.55 74.9 29.3 75.15 30.05 75.4 30.8 75.65 31.55 75.9 32.3 75.9 35.3 75.9 39.05 75.9 41.3 76.15 42.05 76.45 42.8 76.8 43.6 76.9 44.3 76.9 46.55 76.9 48.8 76.9 50.3 77.15 51.05 77.3 51.45 Q74.0 55.95 69.65 59.8 68.8 62.05 67.05 63.7 61.9 68.55 55.65 71.8 54.0 73.8 51.85 75.15 39.9 82.5 26.15 85.55 25.75 85.8 25.4 86.1 L24.65 86.8 23.9 87.6 23.4 88.3 23.3 88.6 22.15 88.55 Q15.15 88.35 8.9 85.55 -6.2 88.5 -18.35 79.6 -21.45 77.3 -23.6 74.05 -26.0 72.55 -27.65 70.75 -27.15 80.35 -35.2 85.7 -37.65 87.4 -40.65 87.8 L-42.95 89.25 -44.65 90.05 Q-59.65 104.35 -73.45 88.5 -78.25 83.0 -80.85 76.4 -81.1 78.8 -81.95 81.6 -83.9 88.0 -90.4 89.95 -107.75 95.2 -125.95 96.15 L-135.05 95.7 Q-142.5 94.55 -149.6 92.05 -157.3 89.3 -158.75 81.4 -160.65 70.7 -153.3 66.6 -153.7 63.8 -153.25 60.45 -157.85 62.85 -163.75 64.1 L-171.85 64.45 Q-182.15 63.1 -185.0 56.7 L-189.8 56.3 Q-189.0 58.4 -188.9 60.8 -178.65 78.3 -196.45 88.9 -200.3 91.2 -204.9 91.05 -218.65 90.55 -223.05 82.2 L-229.9 82.45 Q-233.65 87.0 -241.3 89.85 -255.6 95.3 -262.9 82.15 -266.65 75.35 -266.25 67.55 -265.45 52.25 -251.3 48.55 -249.4 43.55 -245.7 39.7 -246.6 31.55 -240.1 23.9 -244.95 8.65 -236.7 -6.15 -234.7 -9.85 -233.2 -13.85 -227.5 -29.15 -219.1 -43.15 L-217.65 -45.45 Q-219.1 -53.05 -214.9 -59.35 L-213.55 -61.25 -213.8 -62.6 Q-216.4 -81.15 -196.65 -82.55 L-193.9 -82.95 Q-187.2 -83.65 -180.75 -82.0 -177.1 -81.05 -174.35 -78.65 -170.45 -81.55 -164.9 -81.95 -138.6 -82.0 -130.55 -58.35 -128.4 -52.05 -128.6 -45.9 -122.9 -45.5 -119.3 -42.3 -115.3 -44.6 -110.9 -44.95 L-109.3 -45.25 Q-106.65 -49.2 -101.25 -51.05 -95.0 -53.2 -88.9 -53.95 L-85.65 -54.3 Q-84.9 -59.0 -82.15 -63.6 -80.4 -66.5 -78.3 -68.9 -76.25 -76.95 -66.95 -80.35 -63.3 -81.7 -59.9 -81.95 L-51.65 -81.2 Q-45.55 -86.05 -36.9 -86.95 -21.05 -83.7 -20.0 -67.65 -19.7 -63.3 -21.2 -59.75 -19.65 -60.65 -17.65 -61.2 -9.8 -77.35 8.25 -79.8 11.1 -86.75 21.1 -87.85 L21.15 -87.95 Q32.05 -86.55 40.6 -80.6 L42.15 -80.95 Q51.7 -82.4 60.05 -78.05 66.25 -74.8 68.9 -68.45 L69.65 -67.7 70.6 -66.65 74.1 -65.9 76.8 -59.8 M-93.2 -1.0 L-94.1 0.6 -95.0 2.0 -96.15 3.55 Q-97.15 6.55 -99.5 8.65 -103.95 12.65 -109.9 13.05 L-112.4 12.45 -112.2 15.4 Q-109.4 16.95 -107.4 19.55 -104.6 21.75 -102.75 24.05 -89.4 30.05 -92.4 47.65 -91.5 48.55 -90.75 49.65 -87.5 54.3 -87.9 60.05 -87.55 61.9 -87.35 63.65 -84.9 65.0 -83.35 66.9 L-83.4 66.65 Q-85.35 52.6 -77.85 45.4 -77.55 42.75 -76.65 40.35 -83.05 30.3 -82.05 19.3 -82.9 16.1 -82.7 12.2 -85.05 6.4 -84.55 -0.3 L-86.9 0.05 Q-90.2 -0.7 -92.7 -1.8 L-93.2 -1.0 M-27.7 -51.65 L-27.4 -52.6 -28.4 -51.95 -28.4 -51.75 -27.7 -51.65" fill="#0000ff" fill-rule="evenodd" stroke="none"/>
  </g>
</svg>
