<?xml version="1.0" encoding="UTF-8" standalone="no"?>
<svg xmlns:ffdec="https://www.free-decompiler.com/flash" xmlns:xlink="http://www.w3.org/1999/xlink" ffdec:objectType="shape" height="164.4px" width="58.3px" xmlns="http://www.w3.org/2000/svg">
  <g transform="matrix(1.0, 0.0, 0.0, 1.0, -23.25, 80.95)">
    <path d="M44.65 -80.85 Q50.05 -81.3 55.0 -79.4 L55.3 -79.75 55.75 -80.1 56.65 -80.3 56.65 -80.35 Q61.05 -80.7 64.6 -78.0 L69.65 -74.1 70.05 -73.35 71.05 -72.0 Q72.25 -70.85 72.75 -69.25 L73.15 -68.1 73.5 -67.7 73.9 -67.0 74.25 -66.25 74.65 -65.5 75.0 -65.25 75.35 -64.85 75.9 -64.1 Q76.45 -62.1 77.6 -60.25 L80.05 -55.5 80.05 -55.1 80.05 -54.75 80.25 -54.35 80.4 -54.0 80.55 -53.6 80.55 -53.25 80.55 -52.85 80.55 -52.5 80.55 -52.1 80.6 -51.75 80.75 -51.35 80.9 -51.0 81.05 -50.6 81.05 -49.85 81.0 -48.35 81.05 -46.85 81.2 -46.5 81.4 -46.1 81.55 -45.75 81.5 -40.85 81.5 -34.5 81.55 -33.35 81.4 -33.0 81.25 -32.6 81.05 -32.25 81.05 -31.85 81.05 -31.5 81.05 -31.1 81.05 -30.35 80.9 -30.0 80.75 -29.6 80.55 -29.25 80.55 -28.5 80.5 -27.35 80.55 -25.85 80.4 -25.5 80.25 -25.1 80.05 -24.75 80.05 -24.35 80.05 -24.0 79.65 -22.85 78.9 -20.6 78.55 -19.5 78.55 -19.1 78.55 -18.75 78.4 -18.35 78.2 -17.95 78.0 -17.25 77.9 -16.85 76.45 -14.3 74.15 -10.5 73.85 -10.15 72.7 -9.3 71.9 -8.6 66.65 -5.95 65.25 -5.25 Q57.5 -1.7 52.25 -6.6 L52.25 -7.0 52.3 -7.35 52.4 -7.65 52.4 -7.7 52.2 -10.6 52.25 -14.35 52.25 -14.75 52.15 -15.1 52.0 -15.5 51.9 -15.85 51.75 -16.25 51.75 -16.6 51.75 -17.0 51.75 -17.35 51.75 -17.75 50.85 -19.9 Q49.95 -21.55 49.75 -23.35 L49.9 -23.7 50.15 -24.1 50.5 -24.5 51.05 -24.65 51.65 -24.8 51.65 -24.85 52.15 -24.8 53.0 -24.6 53.5 -24.25 54.45 -22.0 55.4 -19.0 55.5 -18.6 55.5 -18.25 55.5 -17.85 55.5 -17.5 55.5 -17.1 55.65 -16.75 55.75 -16.35 55.9 -16.0 55.95 -15.75 56.5 -15.6 57.0 -15.25 57.65 -14.1 57.85 -13.6 58.65 -13.8 58.65 -13.85 59.5 -13.6 60.0 -13.25 60.25 -12.85 60.35 -12.65 60.4 -13.1 60.5 -13.5 60.9 -13.85 61.3 -14.1 61.5 -14.25 62.15 -14.3 62.15 -14.35 63.0 -14.1 63.5 -13.75 63.65 -13.55 63.65 -13.6 64.05 -13.95 64.5 -14.25 65.15 -14.3 65.15 -14.35 66.0 -14.1 66.5 -13.7 66.75 -13.45 66.75 -13.35 67.5 -13.1 68.0 -12.75 68.25 -12.35 68.5 -11.4 68.65 -11.5 70.5 -12.5 70.8 -12.7 70.25 -12.85 69.25 -13.6 68.15 -14.35 67.85 -15.15 Q67.7 -15.9 67.9 -16.6 L68.0 -17.0 68.4 -17.35 68.8 -17.6 69.0 -17.75 69.65 -17.85 70.15 -18.0 70.25 -18.25 70.4 -18.6 70.5 -19.0 70.55 -19.3 70.05 -20.5 69.75 -21.25 69.75 -22.0 69.8 -23.5 69.9 -24.25 70.15 -24.6 70.55 -24.95 71.0 -25.25 71.65 -25.3 71.65 -25.35 72.5 -25.1 72.9 -24.8 72.75 -25.1 72.75 -25.5 72.75 -25.85 72.6 -26.2 72.4 -26.6 72.25 -27.0 72.25 -27.75 72.25 -29.25 72.25 -30.0 72.4 -30.35 72.65 -30.75 72.7 -31.1 72.55 -31.5 72.25 -32.25 72.25 -32.6 72.25 -33.35 72.25 -34.5 72.45 -34.85 72.9 -35.6 73.4 -36.35 73.8 -36.6 74.05 -36.7 74.45 -36.8 74.6 -37.1 74.75 -37.5 74.6 -38.2 73.9 -39.75 73.75 -40.1 73.75 -40.85 73.8 -42.0 73.75 -42.35 73.75 -43.1 73.75 -43.85 73.35 -45.0 72.8 -46.85 72.75 -47.25 72.9 -47.6 73.05 -47.95 73.4 -48.35 73.75 -48.6 74.05 -48.7 74.65 -48.8 74.65 -48.85 75.15 -48.8 76.0 -48.6 76.55 -48.25 76.75 -47.85 76.9 -47.5 77.05 -47.1 77.05 -46.75 77.05 -46.35 77.2 -46.0 77.3 -45.8 77.3 -46.25 77.3 -47.75 77.3 -48.8 76.65 -48.6 75.75 -48.85 75.3 -49.25 74.9 -49.6 74.5 -50.0 Q74.1 -51.1 73.15 -51.9 72.2 -52.75 71.4 -53.75 L71.3 -54.1 71.25 -54.5 71.3 -55.25 71.4 -55.6 71.55 -55.95 71.9 -56.35 72.25 -56.75 Q72.15 -57.55 71.65 -58.25 L69.9 -60.1 69.75 -60.5 69.65 -60.85 69.25 -61.25 68.9 -61.6 68.75 -62.0 68.65 -62.35 68.25 -63.1 68.0 -63.5 66.9 -64.6 65.4 -66.1 64.75 -67.6 63.45 -69.9 63.25 -70.25 63.25 -70.6 63.3 -71.0 63.4 -71.35 63.8 -71.75 64.25 -72.1 65.15 -72.3 65.15 -72.35 65.65 -72.35 65.8 -72.3 63.9 -74.1 63.85 -74.15 63.9 -74.0 64.0 -73.6 64.0 -73.25 63.9 -72.85 63.65 -72.5 63.35 -72.15 63.0 -71.85 62.75 -71.75 62.15 -71.6 61.3 -71.95 Q59.7 -72.65 58.2 -73.65 56.35 -74.95 54.25 -75.9 L54.0 -76.0 52.65 -76.2 50.9 -76.75 Q50.6 -76.85 50.25 -77.0 L44.65 -77.2 43.75 -77.35 43.3 -77.75 42.95 -78.15 42.75 -78.5 42.75 -78.85 42.8 -79.25 42.9 -79.6 43.05 -79.95 43.4 -80.35 43.75 -80.6 44.0 -80.7 44.65 -80.8 44.65 -80.85 M69.0 -68.5 L68.65 -68.85 68.3 -69.2 68.5 -68.75 69.15 -68.15 69.0 -68.5 M76.3 -54.5 L76.1 -54.85 76.0 -54.95 76.0 -54.85 76.3 -54.5 M77.55 -44.1 L77.75 -43.35 77.8 -44.35 77.65 -44.75 77.55 -44.95 77.55 -44.85 77.55 -44.5 77.55 -44.1 M77.3 -33.5 L77.35 -33.6 77.15 -33.5 76.8 -33.25 76.35 -33.1 76.5 -32.5 77.1 -31.1 77.15 -31.25 77.3 -31.6 77.3 -32.0 77.3 -32.35 77.3 -32.75 77.3 -33.5 M73.5 -23.55 L73.5 -23.25 73.5 -22.85 74.45 -20.65 74.55 -20.4 75.4 -22.65 75.15 -22.6 74.25 -22.85 73.75 -23.25 73.5 -23.55 M61.0 -8.25 L61.25 -8.3 61.0 -8.5 61.0 -8.35 61.0 -8.25 M64.95 -9.7 L64.95 -9.6 65.1 -9.65 64.95 -9.7 M64.4 4.65 Q66.55 6.0 68.35 7.95 L71.65 11.4 72.95 14.45 74.55 17.75 75.5 20.05 75.5 20.4 75.5 20.8 75.5 21.15 75.65 21.5 75.85 21.9 76.0 22.3 76.0 22.65 76.0 23.05 76.0 23.4 76.0 23.8 76.0 24.15 76.55 25.25 77.25 26.8 77.9 27.9 78.05 30.15 78.0 32.05 78.0 34.65 78.05 35.05 78.15 35.4 78.3 35.8 78.4 36.15 78.55 36.55 78.5 37.65 78.5 39.15 78.5 40.3 78.55 40.65 78.4 41.05 78.25 41.4 78.05 41.8 78.05 42.15 78.05 42.55 78.05 43.3 78.05 44.05 77.9 44.4 77.8 44.8 77.65 45.15 77.55 45.55 77.55 46.3 77.55 47.05 77.55 47.8 77.55 48.15 77.4 48.55 77.25 48.9 77.05 49.3 77.05 49.65 77.05 50.05 76.75 50.8 76.4 51.9 76.15 52.65 76.0 53.05 76.0 53.4 76.0 53.8 74.95 56.05 74.15 57.85 Q73.6 58.95 73.4 60.15 L71.5 63.45 69.25 66.8 67.9 68.4 67.75 68.8 67.65 69.15 67.25 69.9 67.0 70.3 65.9 71.45 Q65.05 72.4 63.9 72.9 L62.8 74.1 Q61.95 75.05 60.75 75.55 L60.0 76.3 59.25 77.05 58.9 77.4 Q53.8 80.5 48.2 82.05 L45.85 82.75 45.1 82.95 43.65 83.4 43.15 83.35 42.9 83.3 42.15 83.35 30.15 83.4 24.25 83.15 23.8 82.8 23.45 82.4 23.25 82.05 23.3 81.65 Q23.3 81.3 23.45 80.95 L23.9 80.15 30.15 80.05 36.05 79.55 35.8 79.3 35.45 78.9 35.25 78.55 35.3 78.15 35.45 77.45 35.9 76.65 Q42.35 75.95 48.5 73.8 L49.15 73.75 49.15 73.65 50.0 73.9 50.5 74.3 50.75 74.7 50.85 75.05 51.0 75.8 50.85 76.15 50.35 76.85 50.0 77.25 53.45 75.8 52.25 75.65 51.8 75.3 51.45 74.9 51.25 74.55 51.25 74.15 51.3 73.8 51.5 73.05 Q54.0 71.4 56.3 69.55 L57.5 68.55 60.5 67.2 61.5 66.55 61.75 66.45 61.75 66.15 61.8 65.8 62.0 65.05 Q62.75 64.35 63.55 63.75 L64.75 62.9 64.95 62.85 64.75 62.55 64.75 62.15 64.8 61.8 64.9 61.4 65.1 61.1 66.15 59.9 66.5 59.55 66.75 59.15 67.2 58.45 67.5 58.05 68.05 57.85 68.65 57.75 68.65 57.65 69.5 57.9 69.95 58.25 70.45 57.1 71.25 54.8 71.25 54.55 70.5 55.15 69.65 55.4 69.15 55.35 68.25 55.15 67.8 54.75 67.45 54.4 67.25 54.05 67.25 53.65 67.3 53.3 67.4 52.9 67.95 52.2 Q68.6 51.4 69.5 51.05 L69.9 50.65 70.25 50.4 70.15 50.35 69.25 50.15 68.8 49.75 68.45 49.4 68.25 49.05 68.25 48.65 68.3 48.3 68.4 47.9 Q69.0 46.85 70.0 46.05 L71.25 44.9 71.15 44.85 70.25 44.65 69.8 44.25 69.4 43.9 69.3 43.15 69.3 42.05 69.4 41.3 Q70.0 40.45 70.75 39.75 L72.25 38.4 72.55 38.35 73.15 38.2 73.15 38.15 74.0 38.4 74.5 38.8 74.75 39.15 74.75 39.05 74.75 38.65 74.75 38.3 74.7 37.95 74.55 37.5 74.4 37.15 74.25 36.8 74.3 34.95 Q73.95 35.45 74.0 36.05 L73.9 36.4 73.75 36.8 73.65 37.15 73.15 37.55 72.75 37.8 72.15 37.9 71.65 37.85 70.75 37.65 70.3 37.25 69.9 36.9 69.8 36.55 69.75 35.8 69.75 34.65 70.25 34.0 70.95 32.8 71.15 32.4 70.25 32.15 69.8 31.75 69.4 31.4 69.3 30.65 69.25 29.55 69.25 28.8 69.8 27.3 69.95 26.9 69.8 26.75 69.4 26.4 69.3 26.0 69.25 25.65 69.25 24.9 69.25 24.15 69.4 23.85 68.75 23.65 68.3 23.25 67.55 22.5 67.4 22.15 67.3 21.4 67.25 20.3 67.25 19.55 68.05 18.05 69.15 15.4 69.25 15.35 69.15 15.1 69.0 15.15 68.75 15.3 68.15 15.4 68.0 15.35 68.0 15.55 67.9 15.9 67.75 16.3 67.65 16.65 67.15 17.0 66.75 17.3 66.15 17.3 64.25 17.15 63.8 16.75 63.4 16.4 63.3 16.0 63.25 15.3 63.25 14.55 63.35 14.35 63.15 14.4 62.65 14.35 61.75 14.15 61.5 13.95 61.5 14.3 61.35 14.65 61.15 14.95 61.15 15.0 Q61.3 17.4 60.65 19.55 L60.35 19.85 60.0 20.15 59.75 20.3 59.15 20.4 58.25 20.15 57.8 19.75 57.65 19.65 57.65 19.9 Q57.8 22.1 57.15 24.05 L57.0 24.2 57.0 24.4 56.85 24.75 56.65 25.15 56.5 25.55 56.5 26.3 56.5 27.4 56.5 28.15 56.4 28.55 56.25 28.9 56.15 29.3 56.0 29.65 56.05 31.55 55.8 34.15 55.65 34.55 55.35 34.85 55.0 35.15 54.75 35.3 54.15 35.4 53.25 35.15 52.8 34.75 52.4 34.4 52.2 32.15 52.25 29.15 52.25 28.8 52.4 28.4 52.5 28.05 52.65 27.65 52.75 27.3 52.75 26.55 52.75 25.4 52.75 24.65 52.9 24.3 53.05 23.9 53.25 23.55 53.25 20.55 53.25 16.8 53.25 16.4 53.15 16.05 53.0 15.65 52.9 15.3 52.75 14.9 52.75 14.15 52.75 13.05 52.75 12.3 52.65 11.9 52.5 11.55 52.4 11.15 52.25 10.8 52.25 10.4 52.25 10.05 52.15 9.65 52.0 9.25 51.9 8.9 51.75 8.5 51.75 8.15 51.75 7.75 51.65 7.4 51.5 7.0 51.4 6.65 51.25 6.25 51.25 5.9 51.25 5.5 51.1 5.15 50.9 4.75 50.75 4.4 50.75 4.0 50.8 3.65 50.9 2.9 51.0 2.5 51.4 2.15 51.75 1.9 52.0 1.75 52.65 1.7 52.65 1.65 53.5 1.9 53.55 1.95 54.25 1.6 55.75 0.9 56.65 0.7 56.65 0.65 57.15 0.7 58.0 0.9 58.5 1.3 58.9 1.65 59.8 1.95 61.5 2.4 63.1 3.6 64.4 4.65 M61.15 10.6 L61.0 10.9 61.0 11.0 61.15 10.75 61.25 10.65 61.15 10.6 M71.3 20.8 L71.55 20.6 71.35 20.2 71.15 20.55 71.2 20.9 71.3 20.8 M58.0 6.1 L58.3 5.8 58.0 5.7 58.0 6.1 M73.65 28.65 L72.9 30.9 74.0 30.3 74.3 30.3 74.25 30.05 73.7 28.6 73.65 28.65 M74.05 42.25 L73.0 44.25 73.5 44.4 73.75 44.6 73.75 44.3 73.9 43.9 74.05 43.55 74.25 43.15 74.25 42.4 74.25 41.9 74.05 42.25 M73.2 48.45 L72.5 48.9 72.3 49.3 72.15 49.65 72.0 49.8 72.5 49.9 72.75 50.1 72.75 49.9 72.75 49.55 73.1 48.75 73.2 48.45" fill="#ff6600" fill-rule="evenodd" stroke="none"/>
  </g>
</svg>
