<?xml version="1.0" encoding="UTF-8" standalone="no"?>
<svg xmlns:ffdec="https://www.free-decompiler.com/flash" xmlns:xlink="http://www.w3.org/1999/xlink" ffdec:objectType="shape" height="49.95px" width="93.0px" xmlns="http://www.w3.org/2000/svg">
  <g transform="matrix(1.0, 0.0, 0.0, 1.0, 414.5, 5.5)">
    <path d="M-413.9 -0.9 L-413.75 -1.25 -413.4 -1.65 -411.9 -3.15 -410.0 -5.0 -409.65 -5.25 -409.25 -5.35 -408.5 -5.45 -408.5 -5.5 -403.5 -5.35 Q-401.55 -5.2 -400.0 -4.0 L-399.0 -3.7 Q-396.3 -2.8 -394.2 -1.05 L-393.0 0.0 -392.3 0.4 -391.4 1.15 -390.65 1.85 -390.4 2.25 -390.25 2.6 -390.0 3.0 -389.65 3.35 -389.25 3.75 -388.9 4.1 -388.5 4.5 -388.1 5.25 -386.25 8.6 -384.6 12.05 -383.15 13.85 Q-382.35 15.85 -380.7 17.15 -374.7 21.8 -366.65 19.75 -354.1 13.55 -340.8 9.7 -337.5 8.75 -334.0 8.5 L-330.4 8.6 -330.0 8.5 -329.25 8.75 Q-326.75 9.1 -324.4 10.1 L-324.05 10.5 -323.85 10.85 -323.65 11.25 -323.5 11.6 -323.5 12.0 -323.5 12.35 -323.5 12.5 -323.15 12.85 -322.9 13.25 -322.75 13.6 -322.55 14.0 -322.35 14.35 -322.15 14.75 -322.0 15.1 -322.0 15.5 -322.0 15.85 -322.0 16.25 -321.95 16.6 -321.8 17.0 -321.65 17.35 -321.5 17.75 -321.5 18.1 -321.5 18.5 -321.5 18.85 -321.5 19.25 -321.5 19.6 -321.5 20.0 -321.5 20.35 -321.65 20.75 -321.85 21.15 -322.0 21.5 -322.0 21.85 -322.0 22.25 -322.15 22.6 -322.3 23.0 -322.5 23.35 -322.5 23.75 -322.5 24.1 -324.4 28.6 Q-327.4 34.95 -333.9 38.25 -347.1 40.4 -360.15 43.45 -369.75 45.7 -378.6 42.8 -382.45 41.6 -385.7 39.35 L-387.9 38.1 -388.25 37.75 -389.4 36.6 -390.5 35.5 -391.25 34.75 -391.4 34.35 -391.5 34.0 -391.9 33.6 -392.25 33.25 -392.4 32.85 -392.5 32.5 -392.9 32.1 -393.25 31.75 -393.65 31.35 -393.85 31.0 -394.0 30.6 -394.0 30.25 -394.15 29.9 -394.5 29.5 -394.9 29.1 -395.25 28.75 -395.4 28.4 -395.75 27.6 -396.0 26.85 -396.25 26.1 -396.5 25.35 -396.5 25.0 -396.5 24.6 -397.1 23.55 -397.65 22.0 -398.25 20.1 Q-398.45 19.5 -398.9 19.0 L-399.0 18.6 -399.05 18.25 -399.15 17.9 -399.35 17.5 -399.5 17.1 -399.5 16.75 -399.5 16.35 -399.65 16.0 -399.75 15.6 -399.9 15.25 -400.0 14.85 -400.0 14.5 -400.0 14.1 -400.2 13.75 -400.55 13.0 -400.85 12.25 -401.15 11.5 -401.4 10.75 -401.65 10.4 -402.0 10.0 -402.4 9.6 -402.75 9.25 -403.05 9.1 Q-404.4 8.8 -405.55 8.1 -406.3 7.6 -407.15 7.25 L-408.0 7.3 -409.0 7.5 -410.15 7.25 -410.6 6.85 -410.95 6.55 -413.15 6.25 -413.6 5.85 -414.0 5.5 -414.25 5.1 -414.4 4.75 -414.5 4.35 -414.5 4.0 -414.5 3.25 -414.5 2.1 -414.5 1.0 -414.5 0.6 -414.4 0.25 -414.25 -0.1 -414.05 -0.5 -413.9 -0.9 M-408.5 2.0 Q-402.95 2.15 -398.9 5.9 -396.1 8.45 -395.0 12.1 L-395.0 12.5 -395.0 12.85 -395.0 13.25 -394.35 15.5 -393.1 18.85 -391.5 23.35 -391.5 23.75 -391.5 24.1 -391.3 24.5 -391.1 24.85 -390.9 25.25 -390.75 25.6 -390.65 26.0 -390.5 26.35 -390.25 26.75 -389.9 27.1 -389.5 27.5 -389.35 27.85 -389.0 28.6 -388.6 29.35 -388.05 30.15 -387.65 30.85 Q-381.45 37.85 -372.0 38.6 -359.0 39.7 -346.95 35.2 L-344.5 34.8 Q-337.1 35.0 -331.4 30.35 L-329.95 28.25 Q-328.9 26.65 -328.3 24.75 L-327.0 20.6 -327.0 20.25 -327.0 19.85 -326.85 19.5 -326.65 19.1 -326.75 18.75 -326.9 18.35 -327.0 18.0 -327.0 17.6 -327.0 17.25 -327.05 16.85 -327.15 16.5 Q-327.55 15.85 -328.2 15.45 L-330.15 14.05 Q-336.95 13.3 -343.65 15.45 L-346.15 16.1 Q-356.85 22.1 -368.6 24.75 -375.05 26.15 -381.0 23.5 L-382.15 23.25 -382.6 22.85 -383.75 21.75 -385.65 19.85 -386.0 19.5 -386.25 19.1 -386.4 18.75 -386.65 18.35 -386.85 18.0 -387.25 17.25 -387.65 16.85 -388.0 16.5 -388.25 16.1 -388.7 15.45 -389.45 14.3 -389.9 13.5 -389.95 13.1 Q-389.95 12.45 -390.25 11.95 L-391.3 10.4 -391.85 9.35 -392.0 9.0 -392.4 8.6 -392.75 8.25 -392.9 7.85 -393.0 7.5 -393.4 7.1 -393.75 6.75 -393.9 6.35 -394.0 6.0 -394.4 5.65 -397.1 3.45 Q-398.05 2.4 -399.35 1.85 L-400.0 1.5 -401.1 1.15 -403.35 0.1 -404.15 -0.25 -407.25 -0.25 -407.65 0.1 -408.0 0.5 -408.4 0.85 -408.85 1.3 -409.0 1.6 -408.6 2.0 -408.55 2.05 -408.5 2.05 -408.5 2.0" fill="#000000" fill-rule="evenodd" stroke="none"/>
    <path d="M-408.55 2.05 L-408.6 2.0 -409.0 1.6 -408.85 1.3 -408.4 0.85 -408.0 0.5 -407.65 0.1 -407.25 -0.25 -404.15 -0.25 -403.35 0.1 -401.1 1.15 -400.0 1.5 -399.35 1.85 Q-398.05 2.4 -397.1 3.45 L-394.4 5.65 -394.0 6.0 -393.9 6.35 -393.75 6.75 -393.4 7.1 -393.0 7.5 -392.9 7.85 -392.75 8.25 -392.4 8.6 -392.0 9.0 -391.85 9.35 -391.3 10.4 -390.25 11.95 Q-389.95 12.45 -389.95 13.1 L-389.9 13.5 -389.45 14.3 -388.7 15.45 -388.25 16.1 -388.0 16.5 -387.65 16.85 -387.25 17.25 -386.85 18.0 -386.65 18.35 -386.4 18.75 -386.25 19.1 -386.0 19.5 -385.65 19.85 -383.75 21.75 -382.6 22.85 -382.15 23.25 -381.0 23.5 Q-375.05 26.15 -368.6 24.75 -356.85 22.1 -346.15 16.1 L-343.65 15.45 Q-336.95 13.3 -330.15 14.05 L-328.2 15.45 Q-327.55 15.85 -327.15 16.5 L-327.05 16.85 -327.0 17.25 -327.0 17.6 -327.0 18.0 -326.9 18.35 -326.75 18.75 -326.65 19.1 -326.85 19.5 -327.0 19.85 -327.0 20.25 -327.0 20.6 -328.3 24.75 Q-328.9 26.65 -329.95 28.25 L-331.4 30.35 Q-337.1 35.0 -344.5 34.8 L-346.95 35.2 Q-359.0 39.7 -372.0 38.6 -381.45 37.85 -387.65 30.85 L-388.05 30.15 -388.6 29.35 -389.0 28.6 -389.35 27.85 -389.5 27.5 -389.9 27.1 -390.25 26.75 -390.5 26.35 -390.65 26.0 -390.75 25.6 -390.9 25.25 -391.1 24.85 -391.3 24.5 -391.5 24.1 -391.5 23.75 -391.5 23.35 -393.1 18.85 -394.35 15.5 -395.0 13.25 -395.0 12.85 -395.0 12.5 -395.0 12.1 Q-396.1 8.45 -398.9 5.9 -402.95 2.15 -408.5 2.0 L-408.55 2.05" fill="#80a839" fill-rule="evenodd" stroke="none"/>
  </g>
</svg>
