<?xml version="1.0" encoding="UTF-8" standalone="no"?>
<svg xmlns:ffdec="https://www.free-decompiler.com/flash" xmlns:xlink="http://www.w3.org/1999/xlink" ffdec:objectType="shape" height="104.35px" width="39.65px" xmlns="http://www.w3.org/2000/svg">
  <g transform="matrix(1.0, 0.0, 0.0, 1.0, -86.3, 25.35)">
    <path d="M94.15 -25.35 L94.65 -25.3 95.55 -25.1 96.05 -24.75 96.25 -24.35 96.4 -24.0 96.5 -23.6 96.55 -23.25 96.9 -22.85 97.15 -22.5 97.4 -22.1 97.5 -21.75 97.6 -21.4 97.9 -20.6 98.05 -20.25 98.05 -19.85 98.05 -19.5 98.05 -19.1 98.1 -18.75 98.25 -18.35 98.4 -18.0 98.55 -17.6 98.55 -14.6 98.55 -10.5 98.55 -10.1 98.4 -9.75 98.2 -9.35 98.05 -9.0 98.05 -7.85 98.3 -7.1 98.55 -6.35 98.4 -0.35 Q98.3 2.9 99.05 6.0 L99.05 10.9 99.05 16.55 98.6 18.4 98.5 21.05 98.55 21.4 98.1 22.9 97.7 24.75 97.55 25.55 Q97.5 29.35 96.25 33.0 L94.05 39.8 94.05 40.15 94.05 40.9 94.05 41.65 93.8 42.4 93.3 43.9 93.05 44.65 93.05 45.05 93.05 45.4 92.65 46.15 92.05 47.65 91.8 48.4 91.5 48.75 90.65 49.5 90.3 49.8 89.65 49.9 88.8 49.65 88.3 49.25 87.9 48.9 87.8 48.55 87.8 47.8 87.8 47.05 88.3 46.3 89.15 44.75 89.3 44.4 89.3 44.05 89.3 43.65 89.6 42.95 90.05 41.8 90.3 41.05 90.3 40.65 90.3 39.9 90.3 39.15 Q91.7 35.15 92.6 31.1 L92.4 30.9 92.4 30.85 92.3 30.75 91.9 30.4 91.7 28.9 91.8 26.3 91.8 25.55 90.2 21.3 87.9 16.9 87.8 16.5 87.75 15.8 Q87.7 15.2 87.9 14.65 L88.3 14.3 88.8 13.9 89.3 13.8 88.65 12.9 88.05 12.5 87.3 11.8 86.9 11.4 86.8 11.0 86.8 10.3 86.8 9.55 86.9 9.15 87.3 8.8 87.8 8.4 88.3 8.3 Q87.1 7.3 86.3 5.9 L86.3 5.5 86.3 5.15 86.45 4.8 86.65 4.4 87.05 4.05 87.55 3.85 88.15 3.7 88.15 3.65 Q90.2 4.4 91.8 5.8 L91.75 4.75 91.85 2.15 91.9 1.75 92.15 1.4 92.3 1.25 92.4 0.9 92.6 0.4 92.3 0.4 92.15 0.5 91.5 1.25 91.05 1.65 90.95 1.7 90.9 2.15 90.65 2.5 90.35 2.85 90.05 3.15 89.75 3.25 89.15 3.4 88.3 3.15 87.8 2.75 87.45 2.35 87.3 2.0 87.3 1.65 87.5 0.95 87.9 0.15 87.8 -0.25 87.8 -0.6 87.8 -0.95 87.9 -1.35 88.3 -1.7 88.8 -2.1 89.65 -2.3 89.65 -2.35 90.45 -2.3 90.7 -2.9 90.9 -3.6 91.8 -5.15 92.35 -6.1 92.3 -6.25 92.3 -6.6 92.3 -6.95 92.4 -7.35 92.8 -7.7 93.3 -8.1 93.95 -8.2 93.85 -8.5 93.65 -9.25 93.4 -9.6 93.05 -10.0 92.9 -10.35 92.8 -10.75 92.8 -11.5 92.9 -12.25 93.15 -12.6 93.55 -12.95 94.05 -13.25 94.65 -13.3 94.65 -13.35 94.75 -13.3 94.8 -15.5 94.8 -16.25 94.7 -16.6 94.55 -17.0 94.4 -17.35 94.3 -17.75 94.3 -18.1 94.3 -18.5 94.3 -18.85 94.3 -19.25 93.6 -20.7 Q92.8 -21.75 92.35 -23.0 L92.3 -23.35 92.3 -23.75 92.4 -24.1 92.55 -24.45 92.9 -24.85 93.3 -25.1 93.55 -25.2 94.15 -25.3 94.15 -25.35 M122.65 36.75 L123.55 36.95 124.0 37.35 124.4 37.7 124.5 37.85 125.05 37.95 125.55 38.35 125.75 38.7 125.9 39.1 125.95 39.85 125.9 40.2 125.65 40.6 125.35 40.9 125.05 41.2 124.75 41.3 124.6 41.35 124.55 41.45 124.55 41.85 124.55 42.2 124.3 42.95 124.05 43.7 123.8 44.45 123.5 44.8 123.15 45.2 122.8 45.6 122.6 46.0 122.5 46.35 122.4 46.7 122.15 47.1 121.9 47.45 121.15 48.2 Q118.65 51.1 115.35 53.4 L112.3 55.35 111.65 55.45 111.15 55.4 110.3 55.2 109.8 54.8 109.45 54.45 109.3 54.1 109.3 53.7 109.3 53.35 109.4 52.95 Q109.85 52.0 110.75 51.45 L110.9 51.4 110.8 51.3 110.45 50.95 110.3 50.6 110.3 50.2 110.3 49.85 110.6 49.1 110.9 48.7 112.3 48.3 112.3 47.85 112.3 47.1 Q113.1 45.9 114.15 44.85 L114.2 44.8 114.4 44.45 114.55 44.1 116.55 42.6 116.75 42.2 116.95 41.85 117.15 41.45 117.55 41.1 117.9 40.7 118.3 40.45 118.55 40.35 119.15 40.25 119.15 40.2 119.6 40.35 120.6 39.55 120.45 39.3 120.3 38.6 120.3 38.2 120.45 37.85 120.65 37.45 121.05 37.1 121.55 36.9 122.15 36.75 122.15 36.7 122.65 36.75 M92.0 10.7 L92.8 11.45 92.8 11.15 92.8 11.05 92.0 10.7 M93.65 16.9 L93.55 16.9 93.55 17.15 93.8 17.9 93.8 16.9 93.65 16.9 M102.05 67.9 L102.05 68.3 102.05 68.65 102.05 69.4 102.05 69.8 101.9 70.15 101.7 70.55 101.55 70.9 101.55 71.3 101.55 71.65 100.7 73.5 99.15 76.15 98.05 77.3 96.55 78.65 Q92.85 79.5 89.3 78.15 L88.8 77.8 88.4 77.4 88.3 77.05 88.3 76.65 88.3 75.9 88.4 75.15 88.6 75.0 88.35 74.45 88.25 74.1 88.3 73.7 88.4 73.35 88.65 73.0 89.0 72.6 89.55 72.4 90.15 72.3 90.15 72.25 90.0 72.1 89.9 71.7 89.8 71.35 89.75 70.95 89.5 70.6 89.2 70.2 88.85 69.45 88.75 69.1 88.8 68.7 88.9 68.35 89.15 68.0 89.5 67.6 90.05 67.4 90.65 67.3 90.65 67.2 91.15 67.25 92.0 67.45 92.5 67.85 93.25 69.35 93.4 69.7 93.65 69.75 94.25 69.9 94.25 69.7 94.3 69.35 94.5 68.6 94.95 68.25 96.25 67.45 97.15 67.3 97.15 67.2 97.9 67.45 97.9 67.4 98.05 67.05 98.4 66.7 98.8 66.4 99.05 66.35 99.65 66.25 99.65 66.15 100.15 66.2 101.05 66.4 101.55 66.8 101.75 67.2 101.9 67.55 102.05 67.9 M92.65 73.4 L92.3 73.45 92.4 73.6 93.1 74.95 93.85 74.95 93.75 74.85 93.45 74.45 93.25 74.1 93.15 73.7 92.65 73.4 M96.25 71.4 L97.1 72.5 97.75 71.0 97.5 71.2 96.65 71.45 96.25 71.4" fill="#ff6600" fill-rule="evenodd" stroke="none"/>
  </g>
</svg>
