<?xml version="1.0" encoding="UTF-8" standalone="no"?>
<svg xmlns:ffdec="https://www.free-decompiler.com/flash" xmlns:xlink="http://www.w3.org/1999/xlink" ffdec:objectType="shape" height="214.5px" width="219.0px" xmlns="http://www.w3.org/2000/svg">
  <g transform="matrix(1.0, 0.0, 0.0, 1.0, 83.75, 124.75)">
    <path d="M4.25 -99.15 L4.25 -98.75 4.25 -98.4 4.25 -98.0 4.1 -97.65 3.95 -97.25 3.6 -96.5 3.35 -96.15 3.0 -95.75 2.1 -95.05 1.5 -94.75 0.0 -94.75 -0.75 -95.05 -1.05 -95.2 -1.75 -95.5 -3.25 -97.0 Q-4.3 -98.05 -5.0 -99.25 L-5.25 -99.65 -5.25 -100.0 -5.25 -100.4 -5.25 -100.75 -5.3 -101.1 -5.5 -101.5 -5.65 -101.9 -5.75 -102.25 -5.75 -102.65 -5.75 -103.4 -5.75 -104.15 -5.75 -104.9 -5.2 -105.65 -4.5 -106.75 Q-4.15 -107.25 -3.5 -107.2 L-3.5 -107.25 -2.5 -107.25 Q-0.2 -105.8 1.75 -103.75 3.5 -101.9 4.25 -99.5 L4.25 -99.15 M0.5 -101.25 L-1.65 -103.6 Q-2.2 -104.3 -2.9 -104.0 -3.45 -103.6 -3.2 -102.9 L-2.75 -101.75 -2.75 -101.4 -2.75 -101.0 -2.45 -100.25 -1.9 -99.15 -1.15 -98.4 -0.5 -97.75 0.1 -97.5 1.1 -97.5 1.25 -97.85 1.75 -98.65 1.0 -100.05 0.5 -101.25 M40.15 -108.85 L40.5 -109.1 41.0 -109.25 41.6 -108.95 42.1 -108.65 42.55 -107.85 43.25 -106.75 43.25 -105.65 43.25 -104.15 43.25 -103.4 43.3 -103.0 43.45 -102.6 43.75 -101.9 43.7 -101.5 43.6 -101.15 43.25 -100.4 43.25 -100.0 43.25 -99.65 43.25 -99.25 43.25 -98.9 43.1 -98.5 42.7 -97.75 42.25 -97.0 42.25 -96.65 42.25 -96.25 42.0 -95.9 41.75 -95.5 41.5 -94.75 38.9 -92.05 Q38.1 -91.15 37.0 -90.75 39.35 -90.7 40.9 -89.2 L41.1 -88.9 41.15 -88.5 41.1 -88.15 40.95 -87.8 40.75 -87.5 40.0 -87.25 38.5 -86.75 32.5 -86.75 31.75 -87.0 31.35 -87.4 31.0 -87.75 30.6 -88.15 29.75 -88.5 29.35 -88.9 29.0 -89.25 28.6 -89.65 27.75 -90.0 27.35 -90.4 26.6 -91.15 26.25 -91.5 Q24.15 -91.95 22.45 -93.0 L22.25 -93.25 22.25 -93.65 22.3 -93.95 22.6 -94.4 23.0 -94.6 23.5 -94.75 24.25 -95.0 24.65 -95.35 25.0 -95.65 31.75 -97.0 32.15 -97.35 32.5 -97.65 33.1 -97.9 33.5 -98.1 34.1 -98.4 36.75 -100.95 38.6 -102.9 38.9 -103.6 39.5 -104.75 39.75 -105.15 39.75 -106.25 39.75 -107.75 39.75 -108.5 40.15 -108.85 M72.5 -124.15 L72.7 -123.75 72.75 -123.4 72.75 -123.0 73.1 -122.65 73.5 -122.25 74.35 -120.35 Q74.85 -119.35 75.6 -118.5 L76.3 -116.25 77.25 -113.65 77.25 -113.25 77.25 -112.5 77.25 -111.75 77.4 -111.4 77.6 -111.0 77.75 -110.65 77.75 -109.9 77.75 -108.75 77.75 -108.0 77.8 -107.65 77.95 -107.25 78.25 -106.5 78.25 -106.15 78.25 -105.4 78.25 -104.65 78.2 -104.25 78.0 -103.9 77.75 -103.5 77.75 -103.15 77.75 -102.75 77.75 -102.4 77.6 -102.0 77.4 -101.6 77.25 -101.25 77.25 -100.9 77.25 -100.5 77.25 -100.15 77.2 -99.75 77.0 -99.4 76.75 -99.0 76.75 -98.65 76.75 -98.25 76.75 -97.5 74.7 -92.4 72.75 -88.25 72.5 -87.75 72.15 -87.4 72.1 -87.4 71.75 -87.0 71.35 -86.65 71.2 -86.25 71.0 -85.9 70.6 -85.55 69.85 -85.15 68.0 -83.25 66.85 -82.15 Q65.5 -81.3 63.95 -80.8 L62.0 -80.25 Q59.7 -80.3 57.85 -81.4 L57.3 -82.15 56.75 -83.25 56.75 -83.65 56.75 -84.0 56.75 -84.4 57.5 -85.15 59.1 -85.9 59.45 -86.25 59.7 -86.65 59.75 -87.0 60.1 -87.35 60.6 -87.8 60.85 -88.15 61.2 -88.9 61.2 -90.0 61.1 -90.4 Q56.85 -88.65 52.25 -87.5 L51.85 -87.15 51.5 -86.9 50.5 -86.4 49.0 -85.75 47.85 -86.2 47.25 -86.75 47.3 -87.1 47.6 -87.9 47.75 -88.25 47.75 -88.65 47.75 -89.0 47.8 -89.35 48.0 -89.75 48.25 -90.15 48.25 -90.5 48.25 -90.9 50.0 -93.7 Q50.85 -95.05 51.25 -96.5 L52.0 -97.25 53.1 -98.4 54.5 -99.05 55.75 -99.5 56.15 -99.85 56.5 -100.15 Q60.85 -101.3 65.0 -103.1 L65.6 -103.4 66.35 -104.1 67.5 -105.25 67.7 -105.65 67.75 -106.0 68.1 -106.4 68.5 -106.75 69.2 -108.25 70.25 -110.15 70.25 -110.5 70.25 -110.9 70.25 -111.25 70.4 -111.6 70.6 -112.0 70.75 -112.4 70.75 -113.15 70.75 -114.25 70.75 -114.65 70.8 -114.95 71.05 -115.4 71.25 -115.75 71.25 -116.5 71.25 -117.65 71.25 -118.0 71.2 -118.35 71.0 -118.75 70.75 -119.15 70.75 -119.5 70.75 -119.9 70.75 -120.65 70.55 -120.95 70.0 -121.75 69.75 -122.15 69.75 -122.5 69.75 -122.9 69.75 -123.25 70.25 -124.0 Q70.7 -124.7 71.5 -124.7 L71.5 -124.75 72.1 -124.45 72.5 -124.15 M40.5 -100.75 L38.25 -98.5 36.35 -96.65 35.95 -96.4 35.35 -96.15 35.0 -95.75 34.75 -95.5 Q32.8 -94.35 30.6 -94.05 29.1 -93.85 28.6 -93.15 L30.55 -91.55 31.35 -90.9 32.55 -90.05 33.25 -89.5 33.35 -89.45 33.55 -89.5 33.4 -89.9 33.25 -90.25 33.25 -90.65 33.25 -91.0 33.25 -91.4 33.5 -91.75 33.75 -92.0 34.0 -92.1 34.6 -92.4 35.0 -92.75 35.25 -93.0 35.5 -93.1 36.1 -93.4 37.6 -94.9 39.1 -96.4 39.85 -98.25 40.55 -100.2 Q40.9 -101.0 40.5 -100.75 M73.6 -114.5 L73.4 -114.1 73.25 -113.75 73.25 -112.65 73.25 -111.15 73.2 -110.75 73.0 -110.4 72.75 -110.0 72.75 -109.65 72.75 -109.25 72.75 -108.9 70.95 -105.6 69.85 -103.65 Q63.55 -98.6 55.5 -96.35 L54.85 -96.15 54.1 -95.4 53.75 -95.0 53.6 -94.65 53.5 -94.25 53.1 -93.9 52.75 -93.5 52.6 -93.15 52.5 -92.75 52.1 -92.4 51.75 -92.0 51.75 -91.65 51.75 -91.25 51.5 -90.9 51.25 -90.5 Q55.4 -91.05 60.1 -92.9 L60.85 -93.65 61.25 -94.0 62.0 -94.25 Q62.95 -94.35 63.5 -93.6 L63.75 -93.25 63.75 -92.9 63.75 -92.5 63.75 -92.15 63.95 -91.75 64.1 -91.4 64.25 -91.0 64.25 -90.25 64.25 -89.5 62.95 -86.6 61.85 -84.65 61.1 -83.9 60.6 -83.5 61.5 -83.25 Q63.2 -83.35 64.75 -84.0 L66.7 -85.9 67.25 -86.5 68.1 -86.95 68.5 -87.25 70.1 -89.5 70.75 -91.0 71.1 -91.4 71.5 -91.75 Q72.5 -93.7 73.15 -95.9 L74.25 -98.9 74.25 -99.25 74.25 -99.65 74.3 -99.95 74.55 -100.4 74.75 -100.75 74.75 -101.5 74.75 -102.25 74.9 -102.6 75.1 -103.0 75.25 -103.4 75.3 -104.1 75.6 -104.9 75.65 -105.25 75.55 -105.6 75.25 -106.0 75.25 -107.9 75.25 -109.75 75.05 -110.1 74.75 -110.5 74.75 -111.65 74.75 -112.75 74.55 -113.1 74.25 -113.5 74.15 -114.25 73.85 -114.85 73.75 -114.95 73.75 -114.9 73.6 -114.5 M77.8 -81.05 L78.6 -79.5 79.25 -78.0 79.25 -77.65 79.25 -77.25 79.4 -76.9 79.6 -76.5 79.75 -76.15 79.75 -75.75 79.75 -75.4 79.75 -75.0 79.75 -74.65 79.7 -74.25 79.5 -73.9 79.25 -73.5 79.25 -73.15 79.25 -72.75 79.0 -72.35 78.6 -71.65 78.1 -70.5 77.85 -70.15 77.1 -69.4 75.25 -67.5 74.85 -67.15 74.7 -66.75 74.3 -66.0 73.95 -65.25 73.75 -64.9 73.75 -64.5 73.75 -63.4 73.75 -61.9 73.75 -61.5 73.8 -61.15 74.25 -60.0 74.75 -58.5 75.1 -58.15 75.85 -57.4 76.5 -56.75 77.1 -56.5 82.0 -56.25 82.6 -56.0 83.25 -56.0 86.45 -57.95 89.1 -60.4 89.25 -60.75 89.4 -61.1 89.6 -61.5 89.75 -61.9 89.75 -62.25 89.75 -62.65 89.8 -62.95 90.05 -63.4 90.25 -63.75 90.25 -64.15 90.25 -64.5 90.25 -64.9 90.25 -65.25 90.25 -65.65 89.8 -66.75 89.15 -68.6 88.6 -70.15 88.25 -70.5 87.85 -70.9 87.75 -71.25 87.55 -71.6 87.25 -72.0 86.95 -72.2 84.75 -73.1 84.35 -73.4 84.3 -73.75 84.25 -74.5 84.3 -74.85 84.5 -75.25 84.75 -75.5 85.0 -75.6 85.5 -75.75 89.0 -75.75 90.9 -75.1 90.95 -74.7 91.1 -74.6 91.35 -74.4 Q92.85 -74.05 94.05 -73.05 L96.0 -71.25 96.1 -70.9 96.25 -70.5 96.6 -70.15 97.0 -69.75 97.35 -69.4 97.6 -69.0 98.05 -68.3 98.6 -67.5 98.9 -65.95 99.55 -64.5 100.25 -63.0 100.25 -62.65 100.25 -61.9 100.25 -61.15 100.25 -60.4 100.3 -60.0 100.5 -59.65 100.75 -59.25 100.75 -58.9 100.75 -58.5 100.75 -57.75 100.75 -57.4 100.8 -57.0 101.0 -56.65 101.25 -56.25 101.25 -54.4 101.25 -52.5 101.25 -50.65 101.2 -50.25 101.0 -49.9 100.75 -49.5 100.75 -49.15 100.7 -48.75 100.5 -48.4 100.1 -48.05 99.5 -47.75 98.75 -48.0 98.4 -48.4 98.1 -49.1 97.7 -49.85 97.5 -50.25 97.1 -50.65 96.35 -51.4 95.6 -52.15 94.75 -52.5 94.35 -52.9 94.0 -53.25 93.25 -54.0 93.2 -54.0 92.9 -53.4 91.85 -51.65 91.5 -51.25 91.25 -51.0 87.95 -49.4 86.35 -48.65 86.0 -48.25 85.75 -48.0 85.0 -47.75 83.5 -47.25 78.5 -47.25 73.75 -49.1 73.35 -49.4 73.0 -49.75 72.9 -49.95 72.75 -50.0 72.4 -50.4 72.25 -50.75 72.1 -51.15 71.75 -51.5 71.35 -51.9 71.0 -52.25 70.75 -52.65 70.6 -53.0 70.35 -53.35 70.1 -53.65 69.95 -53.7 69.25 -54.0 67.6 -54.0 67.1 -53.65 66.95 -53.25 66.6 -52.5 66.25 -51.75 66.25 -51.4 66.25 -50.65 66.25 -49.9 66.25 -49.5 66.3 -49.15 66.6 -48.35 66.65 -48.0 66.6 -47.65 66.45 -47.3 66.35 -47.15 Q67.25 -45.95 67.25 -45.25 L67.25 -42.65 67.25 -41.9 67.3 -41.5 67.5 -41.15 67.75 -40.75 67.75 -40.4 67.75 -40.0 67.75 -39.25 67.45 -38.95 66.5 -38.25 65.75 -38.55 65.35 -38.9 65.0 -39.25 64.8 -39.65 64.75 -40.0 64.75 -40.4 64.75 -40.75 64.75 -41.15 64.2 -42.25 63.5 -43.75 63.1 -44.15 62.75 -44.5 62.7 -44.85 62.5 -45.25 62.1 -45.6 60.85 -46.4 Q60.3 -46.8 60.05 -47.5 L59.25 -49.0 59.25 -49.4 59.25 -49.75 59.05 -50.1 58.75 -50.5 58.7 -53.15 58.75 -55.75 58.75 -56.5 58.8 -56.85 59.0 -57.25 59.25 -57.65 59.25 -58.0 59.25 -58.4 59.5 -58.75 59.75 -59.15 59.75 -59.5 59.75 -59.9 61.1 -61.65 61.6 -62.4 61.0 -62.25 56.5 -62.25 55.75 -62.45 Q54.75 -62.7 53.95 -63.2 L53.25 -63.5 52.85 -63.9 52.6 -64.15 52.45 -64.2 51.75 -64.5 51.35 -64.9 50.6 -65.65 49.85 -66.4 49.7 -66.75 49.4 -67.55 48.75 -68.65 48.75 -69.0 48.75 -69.4 48.75 -69.75 48.75 -70.5 48.7 -70.85 48.5 -71.25 48.25 -71.65 48.25 -72.0 48.25 -72.75 48.25 -73.9 48.9 -74.6 50.75 -76.5 51.1 -76.9 Q54.65 -77.7 58.1 -78.9 L59.0 -79.25 59.45 -79.2 60.1 -78.95 60.5 -78.65 Q60.95 -78.1 60.6 -77.5 L59.0 -74.9 58.75 -74.5 58.75 -74.15 58.75 -73.75 58.75 -73.4 58.75 -73.0 58.8 -72.65 58.95 -72.25 59.1 -71.9 59.25 -71.5 59.6 -71.15 60.35 -70.4 61.0 -69.75 Q65.15 -68.35 69.05 -70.45 L69.5 -70.75 70.15 -71.6 Q70.95 -72.35 72.6 -74.9 75.3 -79.0 72.75 -84.75 L74.0 -84.75 74.6 -84.5 75.0 -84.3 75.6 -84.0 75.95 -83.6 76.2 -83.25 76.35 -82.9 76.75 -82.5 77.1 -82.15 77.5 -81.75 77.8 -81.05 M71.35 -83.65 L71.25 -83.35 71.3 -83.6 71.35 -83.65 M71.25 -83.25 L70.9 -82.2 70.8 -82.6 71.2 -83.25 71.25 -83.25 M75.75 -77.9 L75.6 -77.5 75.4 -77.1 75.25 -76.75 75.25 -76.4 75.25 -76.0 75.25 -75.65 75.2 -75.25 75.0 -74.9 74.75 -74.5 74.75 -74.15 74.75 -73.75 74.5 -73.4 74.25 -73.0 74.1 -72.65 74.0 -72.25 73.6 -71.9 73.25 -71.5 73.1 -71.15 73.0 -70.75 72.6 -70.4 72.25 -70.0 72.1 -69.65 72.0 -69.25 71.6 -68.9 71.25 -68.5 70.85 -68.15 Q69.6 -67.3 68.1 -67.0 L65.0 -66.25 65.6 -65.95 65.95 -65.6 66.25 -65.25 66.2 -64.9 66.15 -64.6 Q66.25 -63.75 65.5 -62.85 L63.75 -61.0 63.6 -60.65 63.5 -60.25 63.1 -59.9 62.75 -59.5 62.45 -58.75 61.9 -57.6 61.75 -57.25 61.75 -56.9 61.75 -56.5 61.6 -56.15 61.45 -55.75 61.25 -55.4 61.25 -54.25 61.25 -52.75 61.25 -52.0 Q61.3 -51.4 61.5 -50.85 L62.1 -49.35 62.25 -49.0 62.6 -48.65 63.0 -48.25 63.35 -47.9 63.8 -47.65 63.75 -50.25 63.75 -53.25 63.9 -53.6 64.1 -54.0 64.25 -54.35 64.5 -54.75 64.85 -55.15 66.0 -56.25 Q66.5 -56.7 67.0 -56.75 L70.0 -56.75 70.6 -56.5 71.0 -56.3 71.6 -56.0 71.95 -55.6 72.2 -55.25 72.35 -54.9 72.75 -54.5 73.65 -53.65 74.0 -53.75 74.6 -53.45 75.0 -53.15 75.15 -52.75 75.25 -52.0 75.35 -51.4 Q76.4 -50.85 77.6 -50.45 L78.6 -50.0 83.25 -50.0 85.1 -50.9 86.1 -51.4 86.5 -51.75 86.75 -52.0 88.6 -52.85 90.0 -53.75 90.2 -54.15 90.25 -54.5 90.25 -55.25 90.75 -56.0 Q91.2 -56.7 92.0 -56.7 L92.0 -56.75 92.2 -56.65 92.5 -56.7 94.5 -56.75 95.1 -56.5 95.45 -56.1 95.7 -55.75 95.85 -55.4 97.0 -54.25 98.55 -52.8 98.75 -52.75 98.75 -53.15 98.75 -53.9 98.75 -54.65 98.75 -55.0 98.7 -55.35 98.5 -55.75 98.25 -56.15 98.25 -56.5 98.25 -56.9 98.25 -57.65 98.25 -58.0 98.2 -58.35 98.0 -58.75 97.75 -59.15 97.75 -59.5 97.75 -60.25 97.75 -61.0 97.75 -61.75 97.6 -62.1 97.2 -62.85 96.75 -63.65 96.75 -64.0 96.75 -64.4 96.5 -64.75 96.25 -65.15 96.25 -65.5 96.25 -65.9 96.0 -66.25 95.75 -66.65 95.35 -67.4 95.0 -67.75 94.6 -68.15 94.3 -68.55 94.2 -68.85 94.0 -69.25 93.25 -70.0 92.1 -71.15 91.75 -71.5 91.5 -71.55 91.6 -70.65 91.25 -71.0 91.1 -71.25 Q91.05 -70.6 91.45 -70.1 92.1 -69.3 92.35 -68.3 L92.75 -67.15 92.75 -66.0 92.75 -64.15 92.75 -62.65 92.7 -62.25 92.5 -61.9 92.25 -61.5 92.25 -61.15 92.25 -60.75 92.25 -60.4 91.15 -58.6 87.85 -55.15 86.85 -54.7 84.0 -53.4 83.5 -53.3 82.5 -53.25 75.75 -54.0 75.35 -54.4 75.0 -54.75 74.6 -55.15 73.75 -55.5 73.35 -55.9 73.0 -56.25 72.6 -56.65 72.3 -57.05 72.2 -57.35 72.0 -57.75 71.75 -58.15 71.75 -58.5 71.75 -58.9 71.5 -59.25 71.25 -59.65 71.25 -61.15 71.25 -64.15 71.25 -66.0 71.3 -66.35 71.65 -67.15 72.2 -68.3 72.35 -68.65 73.1 -69.4 75.0 -71.25 75.35 -71.65 75.6 -72.0 76.05 -72.75 76.6 -73.5 76.7 -73.9 76.75 -74.65 76.75 -75.0 76.85 -75.4 76.75 -75.75 76.75 -76.15 76.75 -76.5 76.4 -77.2 75.75 -78.45 75.75 -77.9 M54.6 -75.0 L54.0 -74.8 52.75 -74.5 52.35 -74.15 52.0 -73.75 51.25 -73.0 51.1 -72.65 51.2 -72.25 51.25 -71.9 51.25 -71.5 51.25 -71.15 51.25 -70.4 51.25 -70.0 51.3 -69.65 51.45 -69.25 51.6 -68.9 51.75 -68.5 52.1 -68.15 52.45 -67.75 52.6 -67.4 53.1 -67.0 53.6 -66.6 54.35 -65.9 55.15 -65.55 56.0 -65.25 56.6 -65.0 60.25 -65.0 61.0 -65.25 62.5 -65.75 63.25 -66.0 Q62.85 -66.75 60.85 -67.35 L58.75 -68.0 58.35 -68.4 58.0 -68.75 57.6 -69.15 57.3 -69.55 57.2 -69.85 57.0 -70.25 56.6 -70.65 56.25 -71.0 56.25 -71.75 56.2 -73.25 56.25 -75.0 56.25 -75.05 54.85 -75.1 54.6 -75.0 M43.75 -52.0 L44.85 -53.15 46.0 -54.15 Q48.25 -54.2 50.0 -54.75 L51.0 -54.25 52.1 -53.6 52.5 -53.25 52.7 -52.5 52.75 -51.75 52.6 -50.65 52.45 -50.3 52.1 -49.9 51.75 -49.5 51.6 -49.15 51.5 -48.75 51.1 -48.4 50.75 -48.0 50.35 -47.65 49.35 -47.1 48.95 -46.9 48.5 -46.75 47.25 -47.05 45.75 -47.5 45.0 -48.25 44.25 -49.0 43.85 -49.4 43.75 -50.15 43.75 -50.9 43.75 -52.0 M46.5 -50.75 L47.3 -50.05 Q47.6 -49.8 48.0 -49.65 L48.45 -49.7 49.1 -49.9 49.25 -50.25 49.4 -50.6 49.75 -51.0 49.75 -51.35 49.0 -51.25 47.35 -51.55 47.1 -51.5 46.65 -51.1 46.5 -50.75 M3.0 -51.25 Q3.85 -51.35 4.5 -50.8 L5.5 -50.15 5.7 -49.75 5.75 -49.4 5.75 -49.0 6.0 -48.65 6.25 -48.25 6.25 -47.5 6.25 -46.75 6.25 -45.65 5.6 -43.7 4.35 -41.15 4.0 -40.9 3.4 -40.6 3.0 -40.4 0.5 -40.25 -0.25 -40.55 -0.65 -40.9 -1.0 -41.25 -1.2 -41.65 -1.25 -42.0 -1.25 -45.0 -1.25 -48.75 -0.7 -49.45 0.0 -50.25 0.25 -50.5 2.25 -51.05 3.0 -51.25 M31.45 -42.7 L31.5 -42.75 Q33.15 -42.2 34.4 -40.9 L35.75 -38.65 35.75 -38.25 35.75 -37.9 35.75 -37.5 35.75 -37.15 35.45 -36.4 35.25 -36.0 35.0 -35.25 34.7 -35.05 34.5 -34.9 33.9 -34.6 33.5 -34.4 31.5 -34.25 30.5 -34.75 29.75 -35.0 29.0 -35.75 28.6 -36.15 28.25 -36.5 28.25 -37.25 28.25 -38.0 28.25 -38.75 28.25 -39.15 28.3 -39.45 28.55 -39.9 28.75 -40.25 28.85 -40.65 29.6 -41.4 30.0 -41.75 30.35 -42.15 30.8 -42.4 31.45 -42.7 M30.8 -38.5 L30.75 -38.15 31.0 -37.75 31.6 -37.0 32.25 -37.0 33.1 -37.4 32.35 -38.9 Q32.05 -39.35 31.5 -39.3 L31.25 -39.25 31.0 -38.9 30.8 -38.5 M39.7 -34.4 L39.6 -34.0 39.25 -33.25 39.4 -32.9 39.6 -32.5 39.7 -32.15 39.75 -31.75 39.9 -31.4 40.25 -31.0 40.6 -30.65 40.85 -30.4 41.0 -30.3 41.6 -29.95 42.1 -29.65 45.75 -29.5 46.6 -29.9 47.0 -30.1 47.6 -30.4 48.0 -30.75 48.25 -31.0 49.5 -31.55 52.1 -32.9 52.45 -33.25 52.7 -33.65 52.75 -34.0 53.1 -34.4 53.45 -34.75 53.7 -35.15 53.75 -35.5 53.5 -35.6 51.5 -35.25 47.5 -35.25 Q44.85 -36.1 42.1 -36.0 L41.5 -35.75 40.65 -35.45 39.85 -35.15 39.75 -34.75 39.7 -34.4 M37.7 -36.8 L37.85 -37.15 Q39.3 -38.35 41.25 -38.6 L42.0 -38.75 45.0 -38.75 48.1 -38.0 51.25 -38.0 54.2 -39.1 54.6 -39.4 54.95 -39.75 55.2 -40.15 55.25 -40.5 55.25 -41.25 55.3 -42.4 55.35 -43.15 55.75 -43.4 56.45 -43.7 56.5 -43.75 57.1 -43.5 57.45 -43.1 57.7 -42.75 57.75 -42.4 58.0 -42.25 58.6 -41.95 59.0 -41.65 Q59.55 -40.85 59.05 -40.0 L57.85 -38.65 57.75 -38.25 57.75 -37.9 57.75 -37.5 56.8 -35.35 55.35 -32.65 54.25 -31.5 53.25 -30.5 52.35 -30.1 51.35 -29.65 51.0 -29.25 50.75 -29.0 48.45 -27.95 46.5 -26.9 42.0 -26.75 41.25 -27.05 40.25 -27.5 39.85 -27.9 39.6 -28.15 39.45 -28.25 38.75 -28.5 38.4 -28.9 38.25 -29.25 38.1 -29.65 37.75 -30.0 37.35 -30.4 37.25 -30.75 37.05 -31.5 36.75 -32.25 36.75 -33.0 36.75 -34.15 36.75 -34.5 Q36.75 -35.15 37.1 -35.7 L37.7 -36.8 M16.1 -45.45 L17.0 -44.75 17.25 -43.65 17.25 -42.5 17.25 -40.65 17.15 -40.3 16.75 -39.5 16.6 -39.15 16.5 -38.75 16.1 -38.4 15.75 -38.0 15.35 -37.65 15.2 -37.25 15.0 -36.9 14.6 -36.55 14.0 -36.25 11.5 -36.25 10.75 -36.5 10.35 -36.9 9.6 -37.65 9.25 -38.0 9.25 -38.75 9.25 -39.5 9.25 -39.9 9.25 -40.65 9.3 -40.95 9.55 -41.4 9.75 -41.75 9.75 -42.15 9.75 -42.5 10.2 -43.25 10.55 -44.0 10.75 -44.75 10.85 -45.15 11.3 -45.4 11.95 -45.7 12.0 -45.75 14.0 -45.7 15.5 -45.75 16.1 -45.45 M13.95 -43.2 L13.25 -43.25 12.35 -41.35 11.75 -39.5 Q11.65 -38.25 13.2 -39.05 L13.6 -39.4 Q14.25 -39.8 14.4 -40.45 L14.75 -41.25 14.75 -41.65 14.75 -42.4 14.75 -42.75 13.95 -43.2 M2.6 -48.5 L2.0 -48.25 1.25 -48.0 1.25 -46.15 1.25 -43.5 1.25 -43.15 1.4 -43.0 2.25 -43.0 Q2.85 -43.6 3.1 -44.45 L3.75 -46.75 3.55 -47.45 2.95 -48.5 2.6 -48.5 M60.1 -4.4 L60.5 -4.65 Q61.2 -5.1 62.0 -5.2 L62.0 -5.25 68.5 -5.25 69.1 -5.15 Q70.7 -5.1 72.1 -4.45 73.15 -3.95 73.6 -2.9 L73.65 -2.5 73.6 -2.15 73.45 -1.8 73.2 -1.55 73.0 -1.4 72.5 -1.35 71.3 -1.65 70.6 -1.9 70.25 -2.0 69.6 -2.0 68.85 -1.6 67.45 -0.9 66.85 -0.65 66.5 -0.25 64.65 1.65 64.1 2.35 64.05 2.75 64.3 3.45 64.75 4.25 64.75 4.6 64.75 5.0 65.1 5.35 65.5 5.75 65.85 6.1 66.6 6.5 69.0 7.7 69.6 8.0 69.95 8.4 70.35 9.1 70.75 9.85 70.75 10.25 70.75 10.6 70.95 10.25 72.0 8.25 72.35 7.85 73.5 6.75 74.6 5.6 75.6 5.1 78.0 3.85 79.5 3.25 80.6 3.3 Q83.3 2.85 84.75 4.75 L84.7 5.1 84.6 5.5 84.35 5.85 83.95 6.1 83.35 6.35 83.0 6.75 82.1 7.45 81.35 7.85 81.0 8.25 80.6 8.6 80.25 9.0 80.1 9.35 80.0 9.75 79.6 10.1 79.25 10.5 78.85 10.85 78.7 11.2 78.1 12.35 77.4 13.9 77.25 14.25 77.25 14.6 77.25 16.5 77.25 18.35 77.25 19.1 77.3 19.45 77.5 19.85 77.75 20.25 77.75 20.6 77.75 21.0 78.0 21.35 78.25 21.75 78.25 22.1 78.25 22.5 78.45 22.85 78.85 23.6 79.25 24.35 79.35 24.6 79.5 24.7 80.6 25.4 80.85 25.6 81.0 25.75 81.6 25.95 84.6 26.5 87.75 26.5 88.5 26.25 89.75 26.0 90.1 25.6 90.85 24.85 91.6 24.1 91.75 23.75 92.1 23.0 92.5 22.25 92.75 21.85 92.75 20.75 92.75 18.1 92.75 14.75 92.55 14.4 92.25 14.0 92.25 13.6 92.25 13.25 92.25 12.85 92.1 12.5 91.5 10.6 90.75 8.75 90.6 8.35 90.25 8.0 89.85 7.6 89.75 7.25 89.7 6.85 89.6 6.5 89.35 6.15 89.0 5.75 88.8 5.35 88.75 5.0 88.75 4.6 88.5 4.25 88.25 3.85 88.25 3.5 88.25 3.1 88.0 2.75 87.75 2.35 87.75 2.0 87.75 1.6 87.75 1.25 87.55 0.9 87.25 0.5 87.25 -0.25 87.25 -2.15 87.25 -4.4 87.25 -5.15 87.3 -5.5 87.7 -6.25 88.1 -7.0 88.1 -7.2 85.65 -6.35 Q85.05 -6.15 84.5 -5.75 L84.2 -5.35 84.15 -5.0 84.2 -4.65 84.25 -4.25 83.95 -3.9 83.6 -3.55 83.0 -3.25 82.5 -3.2 Q82.25 -3.2 81.1 -6.5 L81.25 -6.9 81.25 -7.25 81.25 -7.65 81.25 -8.0 81.25 -8.4 81.25 -8.75 81.4 -9.1 81.75 -9.85 82.25 -10.65 82.25 -11.0 82.25 -11.4 82.5 -11.75 82.75 -12.15 82.75 -12.5 82.75 -12.9 83.0 -13.25 83.2 -13.65 83.25 -14.0 83.6 -14.4 84.0 -14.75 84.2 -15.15 84.25 -15.5 84.6 -15.9 85.75 -17.0 86.75 -18.0 89.65 -19.3 95.1 -21.9 95.5 -22.25 95.75 -22.5 96.0 -22.6 96.6 -22.9 97.0 -23.25 98.5 -24.75 99.6 -25.9 99.7 -26.25 99.75 -26.65 99.75 -27.0 100.05 -27.4 100.25 -27.75 100.25 -28.15 100.25 -28.5 100.25 -28.9 100.25 -29.25 100.4 -29.6 100.6 -30.0 100.65 -30.35 100.5 -30.75 100.25 -31.15 100.25 -31.5 100.25 -31.9 100.25 -32.25 100.25 -32.65 100.25 -33.0 100.15 -33.35 99.75 -34.15 99.25 -35.25 99.1 -35.65 98.7 -35.9 Q97.65 -36.2 96.9 -36.95 L96.75 -37.25 96.75 -37.65 96.8 -37.95 97.1 -38.4 97.5 -38.75 97.75 -39.0 98.0 -39.1 98.45 -39.2 98.5 -39.25 101.0 -39.25 101.6 -39.0 102.0 -38.8 102.6 -38.5 102.95 -38.1 103.25 -37.75 103.85 -37.35 104.6 -36.65 105.35 -35.9 105.75 -35.15 106.8 -32.85 107.75 -30.65 107.75 -30.25 107.75 -29.5 107.75 -28.75 107.75 -28.4 107.8 -28.0 108.0 -27.65 108.25 -27.25 108.2 -25.75 108.25 -22.4 108.25 -19.4 108.1 -19.05 107.45 -17.55 106.8 -16.0 106.5 -15.25 106.1 -14.9 105.75 -14.5 105.6 -14.15 105.5 -13.75 105.1 -13.4 104.75 -13.0 104.0 -11.6 Q102.9 -10.25 102.45 -8.55 L101.75 -6.25 101.75 -5.9 101.75 -5.5 101.75 -5.15 101.75 -4.75 101.9 -4.4 102.2 -4.0 102.5 -3.65 102.75 -3.25 103.35 -2.9 104.1 -2.9 104.5 -3.1 105.1 -3.4 105.5 -3.75 105.75 -4.0 106.0 -4.15 106.6 -4.4 107.0 -4.75 107.75 -5.5 108.1 -5.9 108.2 -6.25 108.25 -7.4 108.25 -8.5 108.25 -9.25 108.05 -9.6 107.75 -10.0 107.75 -10.4 107.75 -10.75 107.75 -11.15 107.75 -11.5 108.1 -11.85 108.5 -12.1 109.0 -12.25 109.45 -12.15 Q110.05 -11.95 110.55 -11.55 L111.35 -10.9 111.9 -9.8 112.65 -7.1 113.75 -4.5 113.75 -3.75 113.75 -1.9 113.75 0.35 113.75 1.1 113.6 1.5 113.4 1.9 113.25 2.25 113.25 2.6 113.25 3.0 112.95 3.7 111.6 5.9 109.85 7.85 Q109.45 9.0 108.55 9.8 L105.1 13.1 104.35 13.85 104.2 14.2 103.0 15.75 101.5 17.25 101.25 17.6 100.85 18.35 100.45 19.1 100.25 19.5 100.25 19.85 100.2 20.2 100.0 20.6 99.9 20.95 100.1 21.8 100.25 22.5 100.3 22.85 100.5 22.95 101.0 22.85 101.6 22.6 101.75 22.25 101.85 21.85 102.25 21.55 103.0 21.25 103.45 21.3 104.1 21.55 104.5 21.85 104.7 22.25 104.75 22.6 104.75 23.0 104.75 23.35 104.7 23.7 104.5 24.1 104.25 24.5 104.25 24.85 104.25 25.25 104.25 25.6 104.05 25.95 Q103.65 26.45 103.55 27.1 L103.3 28.25 103.1 29.0 102.85 29.35 102.3 30.15 101.85 30.85 101.5 31.25 101.1 31.6 100.75 32.0 100.6 32.35 100.5 32.75 100.1 33.1 99.0 34.25 97.85 35.35 97.7 35.7 97.2 36.45 96.5 37.25 95.05 39.45 Q93.7 41.4 92.75 43.65 L91.75 45.5 91.75 45.85 91.75 46.25 91.75 46.6 91.6 47.0 91.4 47.4 91.25 47.75 91.25 48.1 91.25 48.5 91.1 48.85 90.95 49.25 90.75 49.6 90.75 50.0 90.75 50.35 90.75 50.75 90.75 51.0 90.85 51.05 91.75 51.0 92.15 50.65 92.5 50.35 93.1 50.1 93.5 49.75 94.25 49.0 95.0 48.25 95.2 47.85 95.55 47.1 96.05 45.95 96.25 45.6 96.25 45.25 96.25 44.85 96.3 44.55 96.55 44.1 96.75 43.75 96.75 43.35 96.75 43.0 96.8 42.65 97.0 42.25 97.25 42.0 97.5 41.9 98.0 41.75 98.6 42.05 99.0 42.35 99.15 42.75 99.25 44.25 99.25 45.75 99.25 46.5 99.3 46.85 99.45 47.25 99.6 47.6 99.75 48.0 99.75 48.35 99.75 48.75 99.75 49.1 99.75 49.5 99.75 49.85 99.7 50.2 99.5 50.6 99.25 51.0 99.25 51.35 99.25 51.75 99.25 52.1 99.1 52.5 98.9 52.9 98.75 53.25 98.75 53.6 98.75 54.0 98.6 54.35 98.1 55.5 97.5 56.6 97.25 57.0 97.25 57.35 97.25 57.75 Q96.85 58.25 96.6 58.85 L95.55 61.15 94.35 63.35 94.0 63.75 93.6 64.1 93.25 64.5 93.1 64.85 93.0 65.25 92.6 65.6 91.1 67.1 90.0 68.25 89.75 68.65 89.6 69.0 89.35 69.35 88.65 70.15 Q87.45 71.55 85.85 72.35 L84.85 72.85 84.5 73.25 83.6 73.95 82.85 74.35 82.5 74.75 82.25 75.0 82.0 75.1 81.5 75.25 80.75 75.5 80.35 75.85 Q79.8 76.5 79.1 76.95 L78.35 77.35 Q77.55 78.35 76.35 78.85 L71.5 81.1 71.0 81.2 68.5 81.25 67.75 80.9 67.4 80.6 67.25 80.25 67.25 79.85 67.3 79.5 67.6 79.1 68.0 78.75 68.25 78.5 68.5 78.35 69.1 78.1 69.5 77.75 69.75 77.5 70.0 77.35 70.6 77.1 70.75 76.75 70.85 76.35 71.25 76.0 71.6 75.6 72.0 75.25 72.2 74.85 72.25 74.5 72.6 74.1 73.0 73.75 73.2 73.35 73.25 73.0 73.6 72.6 74.0 72.25 74.35 71.85 74.6 71.5 74.95 70.75 75.25 70.0 75.6 69.6 76.0 69.25 76.2 68.85 76.25 68.5 76.6 68.1 77.0 67.75 77.2 67.35 77.3 67.05 77.55 66.6 77.75 66.25 77.75 65.85 77.75 65.5 78.05 65.1 78.25 64.75 78.25 64.35 78.25 64.0 78.55 63.6 78.75 63.25 78.75 62.85 78.75 62.5 78.75 62.1 78.75 61.75 78.9 61.4 79.1 61.0 79.25 60.6 79.25 60.25 79.25 59.85 79.25 59.5 79.25 59.1 79.25 58.75 79.05 58.4 78.75 58.0 78.75 57.6 78.75 57.25 78.55 56.9 77.95 55.75 77.4 54.6 77.25 54.25 77.05 53.95 76.25 53.45 75.85 53.1 75.8 52.75 75.75 52.0 75.8 51.65 76.0 51.25 76.25 51.05 78.2 50.4 79.1 50.1 79.5 49.75 81.35 47.85 82.5 46.75 82.7 46.35 82.75 46.0 83.1 45.6 83.5 45.25 83.7 44.85 83.75 44.5 83.75 44.1 84.0 43.75 84.25 43.35 84.25 43.0 84.25 42.25 84.25 41.5 84.25 40.75 84.05 40.4 83.8 39.95 83.7 39.65 83.5 39.25 83.1 38.85 82.75 38.5 82.7 38.15 82.5 37.75 82.1 37.35 81.75 37.0 81.45 36.8 80.75 36.5 80.35 36.1 80.1 35.85 79.95 35.75 78.95 35.25 78.25 35.0 77.85 34.6 77.6 34.35 77.45 34.25 76.75 34.0 76.35 33.6 76.1 33.35 75.95 33.25 75.25 33.0 74.95 32.6 73.95 30.75 73.25 29.25 73.1 28.85 72.75 28.5 72.35 28.1 72.2 27.75 71.8 26.95 71.45 26.25 71.25 25.85 71.25 25.5 71.25 25.1 71.0 24.75 70.75 24.35 70.75 24.0 70.75 23.6 70.75 23.25 70.75 22.85 70.75 22.5 70.7 22.15 70.5 21.75 70.45 21.7 70.05 22.25 69.35 23.35 68.55 24.05 67.35 24.85 67.0 25.25 66.25 26.0 65.85 26.35 65.45 26.6 64.85 26.9 64.5 27.1 62.3 27.2 62.3 27.45 62.1 27.5 61.5 27.75 60.5 27.75 59.75 27.5 58.25 26.9 55.85 25.6 55.75 25.25 55.75 24.85 55.8 24.5 56.0 23.75 56.25 23.55 57.0 23.35 Q59.05 23.25 60.6 22.1 L60.7 21.75 60.75 21.35 60.75 21.0 60.8 20.65 61.0 20.25 61.25 19.85 61.25 19.5 61.25 19.1 61.25 18.75 61.05 18.4 60.8 17.95 60.7 17.65 60.5 17.25 60.1 16.85 59.75 16.5 59.35 16.1 59.1 15.85 59.0 15.75 58.0 15.25 55.5 14.25 54.75 14.0 54.35 13.6 54.0 13.25 53.6 12.85 53.3 12.45 53.2 12.15 53.0 11.75 52.75 11.35 52.75 11.0 52.75 10.6 52.5 10.25 52.25 9.85 52.25 9.5 52.25 9.1 52.25 8.75 52.25 7.25 52.25 5.75 52.4 5.4 52.95 4.3 Q53.2 3.1 53.7 2.05 L54.25 0.5 54.6 0.1 55.35 -0.65 56.85 -2.15 57.6 -2.9 58.0 -3.1 58.6 -3.4 59.0 -3.75 59.25 -4.0 59.5 -4.15 60.1 -4.4 M59.25 -0.5 L59.0 -0.4 58.35 -0.15 58.0 0.25 57.6 0.6 57.25 1.0 57.1 1.35 56.95 1.75 56.75 2.15 56.2 3.2 55.75 4.0 55.75 4.35 55.75 4.75 55.5 5.1 55.25 5.5 55.1 5.85 54.75 6.6 54.75 7.0 54.75 7.35 54.75 7.75 54.75 8.1 54.75 8.5 54.8 8.85 54.95 9.25 55.1 9.6 55.25 10.35 55.5 10.75 55.85 11.1 56.25 11.5 56.5 11.75 57.1 12.0 58.6 12.55 60.35 13.6 60.5 13.75 61.05 14.05 62.0 14.75 Q62.95 15.5 63.4 16.6 L63.75 17.35 63.75 17.75 63.75 18.1 63.75 18.5 63.75 19.6 63.75 21.1 63.6 21.5 63.4 21.9 63.25 22.25 63.05 22.95 62.75 23.75 62.65 23.95 62.65 24.6 63.25 24.5 64.55 23.65 65.25 23.0 66.1 22.6 66.85 21.85 68.0 20.75 68.2 20.35 68.25 20.0 68.35 19.25 68.25 18.85 68.25 18.5 68.3 17.75 68.35 17.35 68.8 17.1 68.85 17.1 69.0 15.35 69.15 15.35 68.85 15.1 68.8 14.75 68.75 14.0 68.75 12.85 68.6 12.5 68.4 11.7 Q68.3 11.1 67.85 10.6 L67.55 10.3 Q66.75 9.75 65.95 9.3 65.6 9.1 65.25 9.0 L64.85 8.6 64.6 8.35 64.45 8.25 63.75 7.95 63.35 7.6 63.0 7.2 62.0 5.4 61.25 3.85 61.25 3.5 61.25 3.1 61.25 2.35 61.25 2.0 61.3 1.65 61.45 1.25 61.75 0.5 62.5 -0.25 64.75 -2.5 62.6 -2.5 61.85 -2.1 61.45 -1.9 60.85 -1.6 59.85 -1.15 59.5 -0.75 59.25 -0.5 M102.75 -34.25 L102.75 -33.5 102.75 -32.75 102.75 -32.4 103.0 -31.65 103.25 -31.25 103.25 -30.5 103.25 -29.75 103.25 -29.4 103.1 -29.0 102.9 -28.6 102.75 -28.25 102.75 -27.5 102.75 -26.75 102.75 -26.4 102.3 -25.25 102.1 -24.5 99.6 -21.85 98.85 -21.15 98.45 -20.9 97.85 -20.65 97.5 -20.25 97.25 -20.0 97.0 -19.9 96.35 -19.65 96.0 -19.25 95.75 -19.0 89.35 -16.1 88.35 -15.65 86.85 -14.15 86.5 -13.75 85.7 -12.3 85.25 -11.5 85.25 -11.15 85.25 -10.75 84.55 -9.65 84.25 -8.9 Q85.2 -9.05 86.0 -9.6 L87.0 -10.15 91.0 -10.75 92.5 -10.75 93.45 -10.1 93.75 -9.75 93.7 -9.4 93.6 -9.0 93.35 -8.65 92.35 -8.1 91.75 -7.75 91.3 -7.0 91.0 -6.25 90.6 -5.9 90.25 -5.5 90.25 -5.15 90.25 -4.75 90.0 -4.4 89.75 -4.0 89.75 -2.5 89.75 -1.4 90.0 -0.65 90.25 -0.25 90.25 0.5 90.25 1.25 Q90.95 3.35 91.95 5.4 92.6 6.8 93.6 8.0 L94.05 9.9 94.75 11.35 94.75 11.75 94.75 12.1 95.0 12.85 95.25 13.25 95.3 18.85 95.1 23.35 94.6 24.1 94.25 24.5 93.75 25.65 93.35 26.35 92.25 27.5 91.85 27.85 Q90.6 28.65 89.1 29.05 L88.5 29.25 84.0 29.25 Q80.65 28.65 77.75 27.0 L77.25 26.2 77.1 25.85 76.75 25.5 76.35 25.1 76.0 23.55 75.25 22.5 75.25 22.1 75.25 21.75 75.05 21.4 74.75 21.0 74.75 16.85 74.75 13.5 75.0 12.75 75.25 12.35 75.25 12.0 75.25 11.6 76.4 10.2 76.75 9.0 77.85 7.85 78.1 7.5 76.95 7.55 76.35 7.85 74.5 9.75 73.75 10.5 73.6 10.85 73.5 11.25 73.1 11.6 72.75 12.0 72.75 12.35 72.75 12.75 72.5 13.1 72.25 13.5 72.25 15.75 72.25 18.0 72.9 19.8 73.25 21.0 73.25 21.75 73.25 22.5 Q73.65 24.45 74.6 26.3 75.2 27.5 76.1 28.5 L76.2 28.85 76.25 29.25 76.95 30.4 77.35 31.1 Q78.2 31.45 78.85 32.1 L79.0 32.25 82.1 33.9 82.5 34.25 Q84.75 35.5 86.05 37.85 L86.75 39.35 86.7 42.0 86.75 44.6 85.65 46.9 84.85 48.35 82.25 51.0 81.25 52.0 80.4 52.4 80.0 52.75 Q80.0 53.7 80.5 54.65 L81.25 55.75 81.25 56.1 81.25 56.5 81.5 56.85 81.75 57.25 81.75 59.85 81.75 62.1 81.6 62.5 81.4 62.9 81.25 63.25 81.25 63.6 81.25 64.0 81.25 64.35 80.95 65.1 80.75 65.5 80.75 65.85 80.75 66.25 79.35 68.85 Q78.85 69.75 78.5 70.75 L77.75 71.5 77.35 71.85 76.8 73.05 76.5 73.75 76.1 74.1 75.75 74.5 75.6 74.85 75.5 75.25 74.4 76.4 74.25 76.75 74.75 76.5 75.6 76.1 76.0 75.75 76.25 75.5 76.5 75.35 77.1 75.1 78.25 74.0 78.6 73.6 81.0 72.4 81.6 72.1 82.0 71.75 82.25 71.5 82.5 71.35 83.1 71.1 83.5 70.75 83.75 70.5 84.0 70.35 84.6 70.1 87.6 67.1 88.35 66.35 88.75 65.6 89.0 65.25 90.5 63.75 90.85 63.35 92.3 61.15 93.1 60.0 94.8 55.35 Q95.35 54.05 96.25 52.85 L96.25 52.5 96.25 52.1 96.25 51.75 96.4 51.4 96.55 50.95 96.6 50.6 95.1 51.95 94.35 52.35 93.1 53.45 92.5 53.75 90.0 53.75 89.25 53.5 88.75 52.75 88.25 52.0 88.25 50.5 88.25 49.0 88.5 48.25 88.75 47.85 88.75 47.1 88.75 46.35 89.1 45.6 89.25 45.25 89.25 44.85 89.25 44.5 Q89.7 43.15 90.45 41.9 L91.25 40.0 91.6 39.6 92.0 39.25 Q92.2 38.6 92.55 38.05 L92.85 37.35 93.6 36.6 94.0 36.25 94.2 35.85 94.25 35.5 94.6 35.1 95.0 34.75 95.2 34.35 95.25 34.0 97.95 31.3 98.6 30.6 98.75 30.25 98.85 29.85 99.25 29.5 99.6 29.1 99.75 28.75 99.85 28.35 100.25 28.0 100.6 27.6 100.8 26.9 101.1 26.1 Q99.95 26.05 98.35 25.1 L97.8 24.3 97.75 24.0 97.75 23.6 97.75 23.25 97.55 22.9 97.25 22.5 97.25 21.0 97.25 19.85 97.6 19.1 97.75 18.75 97.75 18.35 97.75 18.0 98.65 16.5 99.0 15.75 102.0 12.75 103.1 11.6 103.25 11.25 103.35 10.85 105.25 9.0 105.6 8.6 106.0 8.4 106.6 8.1 106.75 7.75 106.85 7.35 107.6 6.6 108.0 6.25 108.3 5.55 108.6 5.1 109.0 4.9 109.6 4.6 109.7 4.25 109.75 3.85 109.75 3.5 Q110.6 2.5 110.85 1.25 L111.25 0.1 111.25 -1.75 111.25 -3.25 110.8 -4.05 110.75 -4.4 Q109.9 -3.8 109.0 -3.0 108.5 -2.5 107.85 -2.15 L107.5 -1.75 107.25 -1.5 107.0 -1.4 106.35 -1.15 106.0 -0.75 105.75 -0.5 104.1 0.05 103.5 0.25 102.25 0.0 100.35 -1.9 100.0 -2.25 99.6 -3.0 99.25 -3.75 99.25 -5.65 99.25 -7.5 99.8 -9.0 100.25 -9.75 100.25 -10.15 100.25 -10.5 101.4 -12.3 101.75 -13.5 102.5 -14.25 102.85 -14.65 104.2 -17.3 105.25 -19.15 105.25 -19.5 105.25 -19.9 105.5 -20.25 105.75 -20.65 105.7 -23.25 105.75 -25.5 105.45 -26.25 105.25 -26.65 105.25 -28.15 105.25 -29.25 105.05 -29.6 104.75 -30.0 104.75 -30.4 104.75 -30.75 103.65 -33.05 Q103.2 -34.15 102.75 -34.25 M-40.75 -113.0 L-40.5 -113.1 -39.9 -113.4 -39.5 -113.75 -39.15 -114.15 -38.75 -114.5 -35.9 -115.9 -33.5 -116.75 -32.45 -116.4 -31.15 -115.4 -30.4 -115.0 -29.85 -114.2 -29.35 -113.1 -29.25 -112.4 Q-30.35 -110.35 -32.55 -109.4 -34.2 -108.7 -36.0 -108.25 L-38.5 -108.25 -39.5 -108.75 -40.65 -109.4 -41.0 -109.75 -41.2 -110.15 -41.25 -110.5 -41.25 -110.9 -41.25 -111.25 -41.25 -111.65 -41.25 -112.4 -41.0 -112.75 -40.75 -113.0 M-38.2 -111.4 L-35.75 -111.0 Q-34.7 -111.2 -33.8 -111.75 L-32.5 -112.75 Q-33.15 -113.15 -33.8 -113.35 L-34.9 -113.5 -35.5 -113.25 -36.25 -113.0 -36.65 -112.65 -37.0 -112.4 -37.6 -112.1 -38.0 -111.75 -38.2 -111.4 M-9.25 -119.4 L-9.25 -119.0 -9.25 -118.65 -9.05 -118.25 -8.9 -117.9 -8.75 -117.5 -8.75 -114.5 -8.75 -110.4 -8.9 -110.0 -9.05 -109.65 -9.2 -109.25 -9.25 -108.9 Q-9.2 -107.85 -9.7 -106.9 -10.4 -105.7 -11.5 -104.9 L-13.5 -104.75 -14.2 -105.05 -14.65 -105.4 -15.15 -106.2 Q-15.4 -106.8 -15.95 -107.3 L-16.25 -107.65 -16.25 -108.0 -16.25 -108.4 -16.25 -108.75 -16.45 -109.1 -16.75 -109.5 -16.75 -111.0 -16.75 -113.25 -16.75 -113.65 -16.5 -114.8 -15.9 -116.25 -15.75 -116.65 -15.75 -117.0 -15.75 -117.4 -13.35 -120.1 Q-12.45 -121.05 -11.5 -121.25 L-10.5 -120.85 Q-9.65 -120.55 -9.25 -119.75 L-9.25 -119.4 M-12.0 -117.75 L-12.4 -117.4 -12.75 -117.0 -13.15 -116.65 -13.5 -115.15 -14.25 -113.25 -14.25 -112.5 -14.25 -111.4 -14.25 -111.0 -14.2 -110.65 -14.05 -110.25 -13.75 -109.5 -13.75 -109.15 -13.7 -108.8 -13.25 -108.0 -12.85 -107.7 -12.65 -107.7 -12.25 -108.0 -12.05 -108.4 -11.9 -108.75 -11.75 -109.15 -11.75 -109.5 -11.75 -109.9 -11.6 -110.25 -11.4 -110.65 -11.25 -111.0 -11.25 -113.65 -11.25 -116.65 -11.4 -117.0 -11.6 -117.4 -11.95 -117.8 -12.0 -117.75 M-3.9 -74.0 L-3.55 -73.6 -3.15 -72.9 -2.75 -72.15 -2.75 -71.75 -2.75 -71.0 -2.75 -69.9 -2.9 -69.5 -3.8 -68.05 -5.0 -66.9 -5.5 -66.8 -7.5 -66.75 -8.25 -67.0 -8.65 -67.4 -9.4 -68.15 -10.15 -68.9 -10.2 -69.25 -10.3 -70.75 -10.15 -72.65 -9.7 -72.9 -8.25 -73.5 -7.85 -73.85 -7.5 -74.05 -7.0 -74.2 -7.0 -74.25 -4.5 -74.25 -3.9 -74.0 M-6.4 -71.5 L-7.05 -70.75 -7.75 -70.0 -7.05 -69.55 -6.25 -69.5 -5.8 -69.9 -5.5 -70.25 -5.25 -70.65 -5.25 -71.0 -5.3 -71.35 -5.4 -71.65 -6.15 -71.6 -6.4 -71.5 M-67.55 -93.2 L-67.2 -92.55 -66.75 -91.75 -66.75 -91.4 -66.75 -90.65 -66.8 -89.9 -66.9 -89.15 -67.4 -88.4 -68.55 -87.25 -69.0 -86.9 -69.5 -86.8 -71.0 -86.75 -71.75 -87.05 -72.75 -87.5 -73.9 -88.65 -75.4 -90.15 -75.7 -90.55 -75.8 -90.85 -76.0 -91.25 -76.25 -91.65 -76.25 -92.0 -76.25 -92.4 -76.25 -92.75 -76.25 -93.15 -76.2 -93.45 -75.9 -93.9 -75.75 -94.25 -75.65 -94.65 -74.45 -95.1 Q-73.3 -95.35 -72.5 -95.75 L-71.5 -95.75 -70.5 -95.3 Q-69.7 -95.0 -69.15 -94.4 L-69.0 -94.25 -68.4 -93.95 -67.9 -93.65 -67.55 -93.2 M-70.75 -92.5 L-71.4 -92.5 -72.0 -92.25 -73.65 -92.55 -73.75 -92.5 -73.5 -92.15 -73.3 -91.75 -73.15 -91.4 -72.4 -90.65 -71.65 -89.9 -70.9 -89.5 -69.45 -90.0 -69.25 -90.25 -69.3 -90.6 -69.4 -91.0 -69.65 -91.4 -70.4 -92.15 -70.75 -92.5 M-38.5 12.25 Q-38.9 12.9 -38.85 13.75 L-38.75 15.25 Q-38.15 16.3 -37.15 17.15 L-36.5 17.75 -31.9 19.5 -29.25 19.5 -31.75 18.5 -32.15 18.1 -32.4 17.85 -33.25 17.45 -33.65 17.1 -34.5 16.05 -34.9 14.85 -36.4 13.35 -36.75 13.0 -37.95 12.2 -38.5 12.25 M-35.0 11.0 L-32.65 13.1 -32.4 13.5 -32.05 14.25 -31.2 15.5 -25.45 21.5 -25.55 21.7 -25.8 21.95 -26.0 22.1 -32.0 22.25 Q-34.4 21.8 -36.55 20.8 L-38.25 20.0 -39.4 18.85 -40.9 17.35 -41.25 17.0 -41.25 15.1 -41.25 12.85 -41.25 11.0 -40.9 10.6 -40.5 10.25 -40.15 9.85 -39.7 9.6 -39.05 9.3 -39.0 9.25 -38.0 9.25 -35.0 11.0 M-37.7 23.95 L-37.25 24.75 -37.25 26.25 -37.25 29.25 -37.25 30.35 -37.35 30.7 -37.9 31.85 -38.65 33.35 -39.0 33.75 -39.95 34.45 -40.5 34.75 -41.5 34.75 -42.25 34.5 -42.65 34.1 -43.0 33.75 -43.4 33.35 -43.7 32.95 -43.8 32.65 -44.0 32.25 -44.25 31.85 -44.25 31.5 -44.25 31.1 -44.5 30.75 -44.75 30.35 -44.75 30.0 -44.75 29.25 -44.75 28.1 -44.75 27.75 -44.6 27.4 Q-44.2 26.9 -44.1 26.25 L-43.5 24.75 -43.15 24.35 -42.75 24.0 -42.25 23.6 -42.25 23.25 -42.15 22.85 -41.7 22.6 -41.05 22.3 -41.0 22.25 -39.5 22.25 -38.9 22.55 -38.4 22.85 -38.1 23.3 -37.7 23.95 M-40.5 26.65 L-41.25 26.55 -41.5 26.6 -41.7 27.0 -41.75 27.35 -41.75 27.75 -42.0 28.15 -42.25 28.85 -42.0 30.45 Q-41.75 31.4 -41.0 32.0 L-40.4 31.0 -39.75 29.85 -39.75 28.35 -39.75 26.85 -39.75 26.6 -40.5 26.65 M-0.5 40.75 L0.1 41.0 0.75 41.0 1.5 40.75 3.0 40.75 4.05 41.45 4.85 42.15 5.1 42.5 5.2 43.25 5.25 44.0 5.25 44.35 5.2 45.5 5.1 45.85 Q4.6 47.0 3.45 47.5 L0.45 48.7 -1.5 49.25 -3.5 49.25 -4.25 49.0 -5.75 48.5 -6.15 48.1 -6.9 47.35 -7.25 47.0 -7.65 46.6 -7.75 46.25 -7.75 45.85 -7.75 45.5 -7.75 45.1 -7.75 44.75 -7.6 44.4 -7.4 44.0 -7.25 43.65 -7.0 43.25 Q-6.35 42.7 -5.5 42.35 L-3.3 41.4 -1.5 40.75 -0.5 40.75 M-5.0 45.75 L-4.75 46.0 -4.6 46.1 -4.0 46.25 -3.4 46.5 -1.75 46.5 Q0.0 46.2 1.5 45.35 L2.5 44.75 2.5 44.35 -1.0 43.6 -3.65 44.2 Q-5.05 44.65 -5.0 45.75 M-70.0 42.25 L-69.65 41.85 -69.25 41.5 -68.5 41.25 -67.75 41.0 -67.05 40.8 -67.0 40.75 -61.0 40.75 -60.35 40.9 Q-58.55 41.2 -56.9 42.1 -55.9 42.65 -55.15 43.6 L-54.9 44.0 -54.75 44.35 -54.5 44.75 -54.15 45.1 -53.75 45.5 -53.4 45.85 -53.0 46.25 -52.9 46.6 -52.75 47.0 -52.5 47.35 -52.15 48.1 -51.75 48.85 -51.75 49.25 -51.75 50.0 -51.75 51.5 -51.75 53.0 -51.9 53.35 -52.05 53.75 -52.25 54.1 -52.65 54.85 -53.0 55.25 -53.25 55.45 -53.5 55.6 -54.0 55.7 -57.5 55.75 -58.25 55.5 -58.65 55.1 -59.0 54.75 -59.4 54.35 -59.75 54.0 -59.75 53.6 -59.75 53.25 -59.75 52.85 -59.75 52.1 -59.75 51.75 -59.95 51.4 -60.25 51.0 -60.25 50.6 -60.25 50.25 -60.4 49.9 -60.7 49.45 -60.8 49.15 -60.9 48.95 -60.9 48.75 Q-61.25 47.3 -61.75 46.65 L-63.1 44.7 Q-63.9 43.4 -66.9 43.5 L-67.6 43.9 -67.7 44.0 -68.25 44.0 -69.0 44.25 -69.6 44.5 -69.7 44.45 -70.15 44.1 -70.25 43.75 -70.25 43.35 -70.25 43.0 -70.25 42.6 -70.0 42.25 M-57.65 45.1 Q-57.75 45.0 -58.9 45.6 L-59.9 45.9 -59.15 46.6 -58.8 47.0 -58.5 47.35 -58.35 47.75 -58.25 48.5 -58.0 48.85 -57.75 49.25 -57.75 49.6 -57.75 50.0 -57.5 50.35 -57.25 50.75 -57.25 51.1 -57.2 52.25 -57.15 52.6 -54.9 53.0 -54.75 52.65 -54.25 51.85 -54.25 51.5 -54.25 50.75 -54.25 50.35 -54.6 49.6 -54.8 48.85 -54.9 48.5 -55.45 47.7 -55.9 47.0 -56.15 46.6 -57.25 45.5 -57.65 45.1 M-43.5 42.75 L-42.9 43.05 -42.5 43.35 -42.35 44.1 -42.3 45.6 -42.4 46.0 -42.4 46.35 -42.3 46.75 -42.25 47.1 -42.3 47.5 -42.4 47.85 -42.75 48.6 -42.75 49.0 -42.75 49.75 -42.75 50.5 -42.5 51.65 -41.75 53.5 -41.4 53.85 -41.0 54.25 -40.9 54.6 -40.8 55.0 -40.75 55.35 -40.5 55.7 -39.75 56.5 -39.5 56.75 Q-36.65 57.95 -33.95 59.5 -33.3 59.85 -32.9 60.5 -32.65 61.2 -32.7 62.0 L-32.75 63.85 -32.75 64.25 -33.05 64.55 -34.15 65.35 -34.5 65.75 -34.75 65.95 -35.0 66.1 -39.5 66.25 -41.25 65.45 -42.25 65.0 -42.65 64.6 -43.0 64.25 -43.4 63.85 -44.25 63.5 -45.85 60.5 -46.75 58.25 -46.75 57.85 -46.75 57.5 -46.75 56.75 -46.95 56.4 -47.25 56.0 -47.25 54.1 -47.25 51.85 -47.25 51.5 -47.2 51.15 -47.0 50.75 -46.75 50.35 -46.75 50.0 -46.75 49.6 -46.75 48.85 -46.25 47.75 Q-45.8 47.05 -45.75 46.25 L-45.6 45.9 -45.25 45.5 -44.9 45.1 -44.8 44.75 -44.7 44.0 -44.5 43.25 -44.25 43.0 -44.0 42.9 -43.5 42.8 -43.5 42.75 M-44.75 54.1 L-44.65 54.85 -44.4 55.6 -44.25 56.0 -44.25 56.35 -44.25 56.75 -44.1 57.1 -43.9 57.5 -43.75 57.85 -43.75 58.25 -43.75 58.6 Q-43.6 59.4 -43.05 60.05 L-42.25 61.25 Q-41.45 61.65 -40.85 62.35 L-40.65 62.6 -39.9 63.0 -38.9 63.5 -36.25 63.5 -35.55 62.65 -35.4 62.0 Q-36.9 60.4 -39.25 59.85 L-40.25 59.5 -40.65 59.1 -40.9 58.85 -41.0 58.75 -41.75 58.5 -42.5 57.75 -42.9 57.35 -43.2 56.6 -43.25 56.25 -43.7 55.45 -44.0 54.75 -44.6 54.1 -44.65 54.0 -44.75 54.0 -44.75 54.1 M-64.0 61.75 L-63.45 62.05 -62.75 62.75 -62.8 63.1 -62.95 63.85 -63.05 64.2 -63.0 64.25 -62.85 65.0 -62.75 66.5 -62.75 67.25 -62.6 67.6 -62.4 68.0 -62.25 68.35 -62.25 68.75 -62.25 69.1 -62.25 69.5 -61.6 71.3 -60.75 74.0 -60.4 74.35 -60.0 74.75 -59.9 75.1 -59.75 75.5 Q-56.45 77.75 -52.4 78.0 L-50.25 78.0 -49.0 77.35 -48.0 76.85 -47.55 76.85 Q-47.0 77.05 -46.55 77.4 L-46.25 77.75 Q-46.15 78.35 -46.4 78.85 L-47.05 80.7 -47.25 81.1 -47.25 81.5 -47.25 81.85 -47.25 82.25 -47.25 82.6 -47.95 84.15 -49.15 86.35 -49.5 86.6 -50.15 86.85 -50.5 87.25 -50.75 87.5 -54.1 88.95 -56.0 89.75 -60.0 89.75 -63.25 88.5 -64.25 88.0 -64.65 87.6 -64.9 87.35 -65.0 87.25 -65.75 87.0 -66.15 86.6 -66.4 86.35 -66.5 86.25 -67.2 85.9 -67.65 85.6 -68.6 84.1 -69.5 82.25 -69.9 81.85 -70.05 81.65 -69.25 75.1 -69.25 75.5 -69.15 75.7 -69.0 75.25 -68.45 74.1 -68.25 73.75 -68.25 73.35 -68.25 73.0 -67.9 72.6 -67.75 72.25 -67.75 71.85 -67.75 71.5 -67.5 70.75 -66.95 69.6 -66.75 69.25 -66.75 68.85 -66.75 68.5 -66.3 67.7 -65.75 66.6 -65.75 66.4 -67.0 68.5 -64.55 61.9 -64.0 61.8 -64.0 61.75 M-67.5 59.75 Q-66.95 59.85 -66.45 60.1 L-65.5 60.75 -65.4 61.1 -65.3 61.5 -65.25 61.85 -65.25 62.6 -65.4 63.0 -65.6 63.4 -65.75 63.75 -65.75 64.1 -65.75 64.5 -65.75 64.7 -67.65 67.85 -68.0 68.1 -68.65 68.35 -69.45 69.05 -70.65 69.85 -71.0 70.25 -71.25 70.5 -72.0 70.75 -73.5 71.25 -77.0 71.25 -77.75 70.95 -78.05 70.8 -78.75 70.5 -79.15 70.1 -79.4 69.85 -79.5 69.75 -80.25 69.5 -80.65 69.1 -80.9 68.85 -81.0 68.75 -81.7 68.4 -82.15 68.1 Q-82.7 67.7 -82.9 67.0 L-83.75 65.5 -83.75 65.1 -83.75 64.75 -83.75 64.35 -83.75 64.0 -83.35 63.65 -83.0 63.4 -82.5 63.25 -81.5 63.25 -78.4 64.0 -76.75 64.0 -73.75 62.95 -72.9 62.6 -72.5 62.25 -72.25 62.0 -69.4 60.55 Q-68.35 60.0 -67.5 59.75 M-70.9 67.1 L-69.75 66.0 -69.0 65.25 -68.7 64.5 -68.4 63.7 Q-68.2 63.05 -68.65 63.35 L-69.65 63.85 -70.65 64.35 -71.0 64.75 -71.25 65.0 Q-73.55 66.0 -76.05 66.65 L-77.9 67.0 -77.5 67.4 -77.3 67.75 -77.15 68.1 -73.75 68.5 -71.9 67.6 -70.9 67.1 M-64.4 71.4 L-64.75 71.0 -64.75 71.35 -64.75 71.75 -65.0 72.1 -65.25 72.5 -65.25 72.85 -65.25 73.25 -65.25 73.6 -65.6 74.4 -66.25 75.5 -66.25 75.85 -66.25 76.25 -66.5 76.6 -66.75 77.0 -66.75 77.35 -66.75 77.75 -66.75 78.5 -67.05 79.2 -67.55 80.25 -66.9 81.5 Q-66.5 82.2 -66.25 83.0 L-65.9 83.35 -65.15 84.1 -63.9 84.9 -63.5 85.25 Q-62.2 85.85 -60.9 86.5 L-59.9 87.0 -56.25 87.0 -53.4 85.6 -52.4 85.1 -51.25 84.0 -50.5 83.25 -50.2 82.5 -49.85 81.7 -49.75 81.35 Q-55.0 80.8 -60.25 78.5 L-61.75 77.0 -62.5 76.25 -63.0 75.05 Q-63.25 74.4 -63.75 74.0 L-63.75 73.6 -63.75 73.25 -63.9 72.9 -64.25 72.5 -64.25 72.1 -64.25 71.75 -64.4 71.4 M-40.75 78.0 L-40.4 77.6 -40.0 77.25 -39.65 76.55 Q-39.25 76.05 -39.15 75.35 L-38.75 75.0 -38.4 74.6 -38.25 74.25 -38.1 73.85 -37.9 73.45 -37.75 73.1 -37.75 72.35 -37.75 71.25 -37.75 70.5 -37.35 70.15 -37.0 69.9 -36.5 69.75 Q-35.4 69.85 -34.35 70.4 L-32.9 71.0 -31.25 71.0 -30.0 70.35 -29.0 69.75 -28.8 69.35 -28.75 69.0 -28.75 68.6 -28.5 68.25 -28.25 67.85 -28.25 67.1 -28.25 66.0 -28.25 65.25 -28.45 64.9 -28.75 64.5 -28.75 64.1 -28.75 63.75 -28.95 63.4 -29.25 63.0 -29.25 62.6 -29.25 62.25 -29.6 61.45 Q-29.75 60.85 -30.25 60.35 L-30.25 60.0 -30.25 59.6 -30.25 59.25 -30.15 58.85 -29.7 58.6 -29.05 58.3 -29.0 58.25 -27.9 58.6 -27.0 59.25 -26.4 59.5 -26.05 59.9 -25.8 60.25 -25.65 60.6 -24.9 61.35 -24.15 62.1 Q-23.8 62.7 -23.6 63.25 L-22.85 64.8 -22.75 65.1 -22.65 65.8 -22.25 67.0 -22.25 69.6 -22.25 72.25 -22.25 73.0 -22.4 73.35 -22.55 73.7 -22.75 74.1 -22.75 74.85 -22.75 76.0 -22.75 77.1 -23.65 79.05 -24.4 80.5 -24.65 80.85 -25.45 81.55 -26.65 82.35 -27.0 82.75 -27.25 83.0 -32.05 84.95 -34.0 85.75 -39.5 85.75 -41.0 85.25 -41.75 85.0 -42.5 84.25 -43.65 83.1 -43.8 82.4 -44.15 81.2 -44.25 80.5 Q-43.8 79.85 -43.05 79.65 L-41.4 79.1 -41.05 78.7 -40.8 78.35 -40.75 78.0 M-9.0 56.75 L-8.5 56.4 -8.0 56.25 -6.5 56.25 -5.0 56.25 -4.4 56.55 -3.5 57.2 Q-2.9 57.7 -2.75 58.35 L-2.75 58.75 -2.8 59.1 -3.15 59.85 -3.5 60.6 -3.9 60.95 -4.4 61.35 -4.55 61.7 -4.8 61.95 -5.0 62.1 -5.5 62.2 -8.0 62.25 -8.75 62.0 -9.1 61.6 -9.25 61.25 -9.45 60.9 -9.75 60.5 -9.75 60.1 -9.75 59.35 -9.75 58.6 -9.75 57.5 -9.4 57.1 -9.0 56.75 M-5.65 58.85 L-6.5 58.75 Q-6.9 58.85 -7.1 59.1 L-7.0 59.35 -6.5 59.4 -6.05 59.2 -5.65 58.85 M-0.4 65.5 L3.75 65.5 6.75 65.0 8.25 63.5 Q8.85 62.8 9.5 62.75 L10.0 62.8 Q10.3 62.85 10.6 63.05 L11.0 63.35 Q11.4 63.85 11.3 64.5 L11.2 66.0 11.1 66.35 11.2 66.75 11.25 67.1 10.15 68.95 8.75 70.5 8.6 70.85 8.5 71.25 7.6 71.95 6.85 72.35 5.6 73.45 4.5 74.1 1.5 74.75 -2.5 74.75 Q-5.3 74.3 -7.75 73.0 L-8.5 72.25 -9.65 71.1 -9.8 69.25 -9.75 66.6 -9.15 65.85 -8.0 64.85 -2.5 64.75 -1.0 65.25 -0.4 65.5 M-6.0 70.75 L-2.4 72.0 0.75 72.0 3.75 71.5 4.1 71.1 4.75 70.5 5.0 70.35 6.0 69.75 6.5 68.95 6.85 68.0 Q5.7 67.55 4.5 68.25 L-1.0 68.25 Q-3.8 67.0 -6.75 67.5 L-7.1 68.3 -7.25 69.35 -6.6 70.1 -6.0 70.75 M-35.25 73.6 Q-35.25 74.2 -35.55 74.7 L-35.9 75.85 -36.4 76.6 -36.75 77.0 Q-37.1 78.3 -37.9 79.3 L-38.65 80.35 Q-39.45 81.35 -40.55 82.0 L-40.5 82.25 -39.4 83.0 -34.75 83.0 -29.25 81.0 -28.5 80.25 -28.25 80.0 -27.4 79.55 -27.0 79.25 Q-26.4 78.8 -26.15 78.15 L-25.75 77.35 -25.75 77.0 -25.75 76.6 -25.5 76.25 -25.25 75.85 -25.25 74.35 -25.25 73.25 -25.1 72.85 -24.9 72.45 -24.75 72.1 -24.75 70.25 -24.75 68.35 -24.9 68.0 -25.1 67.6 -25.25 67.25 -25.35 66.15 -25.75 65.55 -25.75 65.6 -25.75 67.5 -25.75 69.0 -26.15 70.15 -26.4 70.85 Q-26.6 71.55 -27.25 72.0 L-27.65 72.35 -29.6 73.4 -30.0 73.6 -33.5 73.75 Q-34.85 72.95 -35.25 73.6 M134.1 33.0 L134.7 33.75 135.1 34.5 135.25 34.85 135.25 36.35 135.25 38.6 135.25 39.0 135.1 39.35 134.95 39.75 134.75 40.1 134.75 40.5 134.75 40.85 134.75 41.25 134.75 41.6 133.9 43.4 133.0 45.75 132.6 46.1 132.25 46.5 132.1 46.85 132.0 47.25 130.1 49.1 128.75 50.5 Q127.0 51.45 125.1 51.85 123.8 52.15 123.75 52.85 124.3 53.7 125.45 53.85 126.35 53.95 126.75 54.75 L126.7 55.1 126.6 55.5 126.35 55.85 126.0 56.25 125.75 56.5 124.45 56.95 122.5 57.75 119.0 57.75 Q116.15 57.6 113.75 56.5 L113.35 56.1 113.1 55.85 112.25 55.45 110.85 54.6 110.5 54.15 108.85 53.1 108.7 51.6 108.75 49.35 108.75 49.0 109.0 48.25 Q109.2 47.6 109.55 47.1 L109.75 46.75 109.75 46.35 109.75 46.0 111.6 44.1 113.1 42.6 Q119.15 39.65 126.3 40.5 127.45 40.65 128.6 40.1 L129.6 39.6 129.95 39.2 130.2 38.85 130.25 38.5 130.6 38.1 131.0 37.75 131.2 37.35 131.25 37.0 131.25 36.6 131.5 36.25 131.75 35.85 131.75 35.1 131.8 34.0 132.0 33.25 132.25 33.0 132.5 32.9 132.95 32.8 133.0 32.75 133.45 32.8 134.1 33.0 M130.25 42.5 L128.95 42.95 Q127.95 43.3 127.0 43.75 L117.1 44.0 115.6 44.55 114.85 44.85 114.05 45.55 112.85 46.35 112.7 46.75 112.5 47.1 112.25 47.5 112.25 47.85 112.25 48.25 111.8 49.0 111.3 50.15 111.25 50.5 111.5 50.7 112.1 51.0 112.7 51.75 113.1 52.5 114.05 53.15 Q114.8 53.45 115.35 54.1 L115.5 54.25 119.6 55.0 121.6 55.0 120.95 53.95 120.45 52.75 120.25 52.35 120.25 51.6 120.25 50.85 120.25 50.5 Q123.3 49.35 126.75 48.5 L129.0 46.25 130.1 45.1 130.25 44.75 130.35 44.35 130.75 44.0 131.1 43.6 131.55 42.05 132.1 40.65 Q132.2 40.45 132.0 40.75 L131.25 41.5 130.25 42.5 M104.0 69.8 L105.0 69.75 106.5 70.25 107.1 70.5 111.75 70.5 112.6 70.1 113.0 69.75 113.25 69.5 113.5 69.35 114.1 69.1 114.85 68.35 115.6 67.6 115.75 67.25 115.85 66.85 116.25 66.6 116.95 66.3 117.0 66.25 117.6 66.55 118.0 66.85 Q118.4 67.7 118.3 68.75 L118.25 71.35 118.2 71.7 118.0 72.1 117.75 72.5 117.75 72.85 117.75 73.25 117.1 74.35 116.35 75.85 Q112.0 79.25 106.35 79.35 L105.85 79.9 107.15 80.45 Q107.85 80.85 108.1 81.6 L108.15 82.0 108.1 82.35 107.95 82.7 107.75 83.0 105.5 83.75 104.0 84.25 102.5 84.25 101.75 83.9 101.45 83.7 100.0 83.75 98.5 83.25 97.75 83.0 97.0 82.25 95.85 81.1 95.65 80.0 95.75 78.5 95.75 78.1 96.3 77.35 97.25 75.85 97.25 75.5 97.25 75.1 97.5 74.75 97.7 74.35 97.75 74.0 99.6 72.1 100.75 71.0 103.1 70.1 103.5 69.85 104.0 69.8 M101.75 73.75 L100.85 74.9 99.75 76.0 99.75 76.35 99.75 76.75 99.75 77.1 99.2 78.2 98.5 79.45 98.5 79.75 99.15 80.4 100.1 81.0 101.75 81.0 102.6 80.6 102.9 79.85 103.2 79.1 103.25 78.75 Q103.5 78.05 104.1 77.55 L105.25 76.5 Q109.1 76.35 112.75 74.95 L113.6 74.55 114.0 74.25 114.9 73.2 115.25 72.0 115.2 71.85 114.85 71.85 113.5 72.6 112.5 73.1 106.5 73.25 105.75 73.0 105.0 72.75 Q103.55 72.6 102.35 73.35 L101.75 73.75 M69.75 15.65 L69.7 15.65 69.75 15.7 69.75 15.65 M23.25 21.5 L23.6 21.85 24.0 22.25 24.25 23.0 24.5 23.75 24.75 24.5 24.75 24.85 24.75 25.25 24.75 25.6 24.75 26.0 24.8 26.35 24.95 26.75 25.1 27.1 25.25 27.5 25.25 28.6 25.25 29.75 25.25 30.85 25.15 31.2 24.8 32.0 24.5 32.75 24.1 33.1 23.45 33.8 23.1 34.5 22.85 34.85 22.5 35.25 22.35 35.35 22.2 35.45 22.0 35.6 21.8 35.65 20.95 36.1 20.5 36.35 20.5 35.25 20.35 35.1 20.25 34.75 20.25 34.35 20.25 34.0 20.25 33.6 20.5 33.25 20.5 33.15 20.6 33.1 20.85 32.9 20.85 32.85 20.95 32.7 21.05 32.6 21.1 32.5 20.9 32.1 20.75 31.75 20.75 31.35 20.75 31.0 20.6 30.8 19.85 30.85 19.05 31.55 17.85 32.35 17.1 33.1 16.1 33.85 15.5 34.9 14.6 36.5 14.35 36.85 13.6 37.6 12.85 38.35 Q12.7 38.5 12.5 38.6 L11.85 38.85 11.5 39.25 11.25 39.5 11.0 39.6 10.4 39.9 9.95 40.1 9.5 40.25 8.35 39.8 7.75 39.25 7.75 38.85 7.8 38.55 8.1 38.1 8.85 37.35 10.0 36.25 10.2 35.85 10.25 35.5 12.1 33.6 13.6 32.1 13.7 31.75 13.75 31.35 13.75 31.0 13.8 30.65 14.0 30.25 14.25 29.85 14.25 27.25 14.25 24.25 14.25 23.5 14.2 23.15 14.0 22.75 13.75 22.35 13.75 22.0 13.75 21.6 13.5 21.25 13.25 20.85 13.25 20.5 13.25 20.1 12.75 19.35 12.3 18.25 12.1 17.5 11.55 16.7 11.1 16.0 10.85 15.6 10.2 14.8 9.85 14.3 9.2 14.15 Q6.6 13.7 4.35 12.6 L3.8 11.8 3.75 11.5 3.8 11.15 4.0 10.75 4.25 10.5 4.5 10.4 5.0 10.3 5.0 10.25 Q8.7 10.55 11.9 12.4 14.5 13.9 16.5 16.25 16.7 17.1 17.2 17.75 L18.55 20.0 18.75 20.4 18.8 19.5 19.0 18.75 19.25 18.5 19.5 18.4 20.0 18.3 20.0 18.25 Q21.1 18.65 21.9 19.55 L23.0 20.75 23.1 21.1 23.25 21.5 M21.0 24.0 L20.7 24.6 20.35 25.35 19.95 25.6 19.5 25.7 19.0 25.75 18.3 25.45 18.2 25.4 17.85 25.1 17.5 24.75 17.3 24.35 17.25 24.0 17.25 23.6 16.75 22.85 16.75 25.35 16.75 29.1 16.75 29.75 17.1 29.55 17.5 29.25 17.75 29.0 18.0 28.85 18.6 28.6 18.95 28.2 19.2 27.85 19.3 27.55 19.6 27.1 20.0 26.9 20.5 26.75 21.0 26.75 21.6 27.05 22.1 27.35 22.55 28.15 22.75 28.55 22.75 28.25 22.55 27.9 22.25 27.5 22.25 27.1 22.25 26.75 22.25 26.35 22.25 26.0 22.2 25.65 22.0 25.25 21.75 24.85 21.75 24.5 21.7 24.15 21.5 23.75 Q21.2 23.8 21.0 24.0 M9.75 44.1 L10.2 43.35 10.6 42.6 10.85 41.85 11.3 41.55 12.0 41.25 12.75 41.25 12.9 40.9 13.6 40.1 14.0 39.75 14.2 39.35 14.25 39.0 15.0 38.4 Q15.7 37.9 16.5 37.8 L16.5 37.75 17.05 38.05 17.75 38.75 17.7 39.1 17.6 39.5 17.35 39.85 16.6 40.6 15.85 41.35 14.95 43.25 14.45 44.7 14.25 45.1 14.25 47.35 14.25 49.25 14.25 50.0 14.3 50.35 14.45 50.75 14.75 51.5 15.1 51.85 15.5 52.25 15.6 52.6 15.8 52.95 16.0 53.25 17.1 53.55 17.6 53.9 17.85 54.1 18.5 54.25 19.1 54.5 21.25 54.5 Q23.25 54.25 25.0 53.4 L25.6 53.1 26.35 52.35 26.75 52.0 27.1 51.6 27.2 50.85 27.25 50.1 27.25 49.35 27.3 49.05 27.55 48.6 27.75 48.25 27.75 47.85 27.75 47.5 27.7 47.15 27.5 46.75 27.25 46.35 27.25 46.0 27.25 45.6 27.25 45.25 27.25 44.85 26.9 44.1 26.7 43.75 26.25 43.0 26.25 42.6 26.25 42.25 26.25 41.85 26.25 41.5 26.65 41.15 Q26.8 41.0 27.0 40.95 L27.45 40.8 27.5 40.75 Q30.15 41.65 31.25 44.15 L32.75 47.85 32.75 49.75 32.75 52.35 32.75 53.5 32.05 55.35 Q31.65 56.6 30.8 57.65 L30.6 58.0 30.3 58.3 29.75 58.75 Q28.0 61.35 25.0 62.25 L21.0 63.25 Q16.85 63.4 13.45 61.3 13.1 61.1 12.75 61.0 L12.4 60.6 12.25 60.25 12.1 59.85 11.75 59.5 11.35 59.1 11.25 58.75 11.1 58.35 10.75 58.0 10.35 57.6 10.0 56.55 9.6 55.4 9.25 54.25 9.25 53.85 9.25 53.5 9.25 53.1 9.25 52.75 9.25 52.35 9.1 52.0 8.9 51.6 8.75 51.25 8.75 50.85 8.75 50.5 8.7 50.15 8.5 49.75 8.25 49.35 8.25 49.0 8.25 48.6 8.25 48.25 8.4 47.9 8.6 47.5 8.75 47.1 8.75 46.75 8.75 46.35 8.8 46.05 9.1 45.6 9.5 45.25 9.7 44.85 9.75 44.5 9.75 44.1 M11.25 48.0 L11.25 48.35 11.2 48.75 11.1 49.1 11.3 49.85 11.45 50.25 11.75 51.0 11.75 48.35 11.75 46.5 11.6 46.85 11.25 47.6 11.25 48.0 M29.8 51.0 L29.75 51.75 29.6 52.85 29.1 53.6 28.35 54.35 27.75 55.0 27.5 55.1 26.85 55.35 26.5 55.75 26.25 56.0 26.0 56.1 25.4 56.4 25.0 56.6 21.5 57.25 19.8 57.25 19.95 57.75 18.5 57.75 16.75 56.95 15.75 56.5 15.35 56.1 15.0 55.75 14.25 55.5 13.9 55.1 13.75 54.75 13.6 54.35 13.25 54.0 12.85 53.6 12.5 53.25 12.25 52.85 11.9 52.1 11.75 51.75 11.75 52.5 11.75 53.25 12.1 54.0 12.5 54.75 12.75 55.85 14.1 57.65 Q15.05 59.15 16.6 60.0 21.75 61.1 26.1 58.6 L26.85 57.85 27.6 57.1 28.0 56.75 28.2 56.35 28.25 56.0 28.6 55.6 29.0 55.25 29.2 54.85 29.3 54.55 29.55 54.1 29.75 53.75 29.75 53.35 29.75 53.0 30.05 52.6 30.25 52.25 30.25 51.5 30.2 50.75 30.05 50.1 30.0 50.25 29.8 51.0 M62.1 72.95 Q63.15 73.15 64.0 73.75 L65.0 74.35 65.2 74.75 65.25 75.1 65.25 75.5 65.5 75.85 65.75 76.25 65.75 76.6 65.75 77.0 65.75 77.35 65.7 77.7 65.5 78.1 65.25 78.5 65.0 79.25 64.6 79.6 64.25 80.0 63.85 80.35 63.45 80.6 62.85 80.9 62.5 81.1 62.0 81.2 59.5 81.25 58.75 80.95 57.55 80.2 56.75 79.5 56.75 79.1 56.75 78.0 56.75 76.5 56.75 75.35 56.8 75.05 57.05 74.6 57.25 74.25 57.35 73.85 57.75 73.5 58.1 73.15 58.5 72.9 59.0 72.75 61.5 72.75 62.1 72.95 M59.2 77.0 L59.25 78.1 61.75 78.5 62.65 77.7 62.85 77.35 62.95 77.0 62.75 76.25 62.55 75.95 62.0 75.6 61.5 75.65 61.0 75.75 59.7 75.45 59.6 75.5 Q59.1 76.15 59.2 77.0" fill="#ffcc00" fill-rule="evenodd" stroke="none"/>
    <path d="M0.5 -101.25 L1.0 -100.05 1.75 -98.65 1.25 -97.85 1.1 -97.5 0.1 -97.5 -0.5 -97.75 -1.15 -98.4 -1.9 -99.15 -2.45 -100.25 -2.75 -101.0 -2.75 -101.4 -2.75 -101.75 -3.2 -102.9 Q-3.45 -103.6 -2.9 -104.0 -2.2 -104.3 -1.65 -103.6 L0.5 -101.25 M73.6 -114.5 L73.75 -114.9 73.75 -114.95 73.85 -114.85 74.15 -114.25 74.25 -113.5 74.55 -113.1 74.75 -112.75 74.75 -111.65 74.75 -110.5 75.05 -110.1 75.25 -109.75 75.25 -107.9 75.25 -106.0 75.55 -105.6 75.65 -105.25 75.6 -104.9 75.3 -104.1 75.25 -103.4 75.1 -103.0 74.9 -102.6 74.75 -102.25 74.75 -101.5 74.75 -100.75 74.55 -100.4 74.3 -99.95 74.25 -99.65 74.25 -99.25 74.25 -98.9 73.15 -95.9 Q72.5 -93.7 71.5 -91.75 L71.1 -91.4 70.75 -91.0 70.1 -89.5 68.5 -87.25 68.1 -86.95 67.25 -86.5 66.7 -85.9 64.75 -84.0 Q63.2 -83.35 61.5 -83.25 L60.6 -83.5 61.1 -83.9 61.85 -84.65 62.95 -86.6 64.25 -89.5 64.25 -90.25 64.25 -91.0 64.1 -91.4 63.95 -91.75 63.75 -92.15 63.75 -92.5 63.75 -92.9 63.75 -93.25 63.5 -93.6 Q62.95 -94.35 62.0 -94.25 L61.25 -94.0 60.85 -93.65 60.1 -92.9 Q55.4 -91.05 51.25 -90.5 L51.5 -90.9 51.75 -91.25 51.75 -91.65 51.75 -92.0 52.1 -92.4 52.5 -92.75 52.6 -93.15 52.75 -93.5 53.1 -93.9 53.5 -94.25 53.6 -94.65 53.75 -95.0 54.1 -95.4 54.85 -96.15 55.5 -96.35 Q63.55 -98.6 69.85 -103.65 L70.95 -105.6 72.75 -108.9 72.75 -109.25 72.75 -109.65 72.75 -110.0 73.0 -110.4 73.2 -110.75 73.25 -111.15 73.25 -112.65 73.25 -113.75 73.4 -114.1 73.6 -114.5 M40.5 -100.75 Q40.9 -101.0 40.55 -100.2 L39.85 -98.25 39.1 -96.4 37.6 -94.9 36.1 -93.4 35.5 -93.1 35.25 -93.0 35.0 -92.75 34.6 -92.4 34.0 -92.1 33.75 -92.0 33.5 -91.75 33.25 -91.4 33.25 -91.0 33.25 -90.65 33.25 -90.25 33.4 -89.9 33.55 -89.5 33.35 -89.45 33.25 -89.5 32.55 -90.05 31.35 -90.9 30.55 -91.55 28.6 -93.15 Q29.1 -93.85 30.6 -94.05 32.8 -94.35 34.75 -95.5 L35.0 -95.75 35.35 -96.15 35.95 -96.4 36.35 -96.65 38.25 -98.5 40.5 -100.75 M54.6 -75.0 L54.85 -75.1 56.25 -75.05 56.25 -75.0 56.2 -73.25 56.25 -71.75 56.25 -71.0 56.6 -70.65 57.0 -70.25 57.2 -69.85 57.3 -69.55 57.6 -69.15 58.0 -68.75 58.35 -68.4 58.75 -68.0 60.85 -67.35 Q62.85 -66.75 63.25 -66.0 L62.5 -65.75 61.0 -65.25 60.25 -65.0 56.6 -65.0 56.0 -65.25 55.15 -65.55 54.35 -65.9 53.6 -66.6 53.1 -67.0 52.6 -67.4 52.45 -67.75 52.1 -68.15 51.75 -68.5 51.6 -68.9 51.45 -69.25 51.3 -69.65 51.25 -70.0 51.25 -70.4 51.25 -71.15 51.25 -71.5 51.25 -71.9 51.2 -72.25 51.1 -72.65 51.25 -73.0 52.0 -73.75 52.35 -74.15 52.75 -74.5 54.0 -74.8 54.6 -75.0 M75.75 -77.9 L75.75 -78.45 76.4 -77.2 76.75 -76.5 76.75 -76.15 76.75 -75.75 76.85 -75.4 76.75 -75.0 76.75 -74.65 76.7 -73.9 76.6 -73.5 76.05 -72.75 75.6 -72.0 75.35 -71.65 75.0 -71.25 73.1 -69.4 72.35 -68.65 72.2 -68.3 71.65 -67.15 71.3 -66.35 71.25 -66.0 71.25 -64.15 71.25 -61.15 71.25 -59.65 71.5 -59.25 71.75 -58.9 71.75 -58.5 71.75 -58.15 72.0 -57.75 72.2 -57.35 72.3 -57.05 72.6 -56.65 73.0 -56.25 73.35 -55.9 73.75 -55.5 74.6 -55.15 75.0 -54.75 75.35 -54.4 75.75 -54.0 82.5 -53.25 83.5 -53.3 84.0 -53.4 86.85 -54.7 87.85 -55.15 91.15 -58.6 92.25 -60.4 92.25 -60.75 92.25 -61.15 92.25 -61.5 92.5 -61.9 92.7 -62.25 92.75 -62.65 92.75 -64.15 92.75 -66.0 92.75 -67.15 92.35 -68.3 Q92.1 -69.3 91.45 -70.1 91.05 -70.6 91.1 -71.25 L91.25 -71.0 91.6 -70.65 91.5 -71.55 91.75 -71.5 92.1 -71.15 93.25 -70.0 94.0 -69.25 94.2 -68.85 94.3 -68.55 94.6 -68.15 95.0 -67.75 95.35 -67.4 95.75 -66.65 96.0 -66.25 96.25 -65.9 96.25 -65.5 96.25 -65.15 96.5 -64.75 96.75 -64.4 96.75 -64.0 96.75 -63.65 97.2 -62.85 97.6 -62.1 97.75 -61.75 97.75 -61.0 97.75 -60.25 97.75 -59.5 97.75 -59.15 98.0 -58.75 98.2 -58.35 98.25 -58.0 98.25 -57.65 98.25 -56.9 98.25 -56.5 98.25 -56.15 98.5 -55.75 98.7 -55.35 98.75 -55.0 98.75 -54.65 98.75 -53.9 98.75 -53.15 98.75 -52.75 98.55 -52.8 97.0 -54.25 95.85 -55.4 95.7 -55.75 95.45 -56.1 95.1 -56.5 94.5 -56.75 92.5 -56.7 92.2 -56.65 92.0 -56.75 92.0 -56.7 Q91.2 -56.7 90.75 -56.0 L90.25 -55.25 90.25 -54.5 90.2 -54.15 90.0 -53.75 88.6 -52.85 86.75 -52.0 86.5 -51.75 86.1 -51.4 85.1 -50.9 83.25 -50.0 78.6 -50.0 77.6 -50.45 Q76.4 -50.85 75.35 -51.4 L75.25 -52.0 75.15 -52.75 75.0 -53.15 74.6 -53.45 74.0 -53.75 73.65 -53.65 72.75 -54.5 72.35 -54.9 72.2 -55.25 71.95 -55.6 71.6 -56.0 71.0 -56.3 70.6 -56.5 70.0 -56.75 67.0 -56.75 Q66.5 -56.7 66.0 -56.25 L64.85 -55.15 64.5 -54.75 64.25 -54.35 64.1 -54.0 63.9 -53.6 63.75 -53.25 63.75 -50.25 63.8 -47.65 63.35 -47.9 63.0 -48.25 62.6 -48.65 62.25 -49.0 62.1 -49.35 61.5 -50.85 Q61.3 -51.4 61.25 -52.0 L61.25 -52.75 61.25 -54.25 61.25 -55.4 61.45 -55.75 61.6 -56.15 61.75 -56.5 61.75 -56.9 61.75 -57.25 61.9 -57.6 62.45 -58.75 62.75 -59.5 63.1 -59.9 63.5 -60.25 63.6 -60.65 63.75 -61.0 65.5 -62.85 Q66.25 -63.75 66.15 -64.6 L66.2 -64.9 66.25 -65.25 65.95 -65.6 65.6 -65.95 65.0 -66.25 68.1 -67.0 Q69.6 -67.3 70.85 -68.15 L71.25 -68.5 71.6 -68.9 72.0 -69.25 72.1 -69.65 72.25 -70.0 72.6 -70.4 73.0 -70.75 73.1 -71.15 73.25 -71.5 73.6 -71.9 74.0 -72.25 74.1 -72.65 74.25 -73.0 74.5 -73.4 74.75 -73.75 74.75 -74.15 74.75 -74.5 75.0 -74.9 75.2 -75.25 75.25 -75.65 75.25 -76.0 75.25 -76.4 75.25 -76.75 75.4 -77.1 75.6 -77.5 75.75 -77.9 M46.5 -50.75 L46.65 -51.1 47.1 -51.5 47.35 -51.55 49.0 -51.25 49.75 -51.35 49.75 -51.0 49.4 -50.6 49.25 -50.25 49.1 -49.9 48.45 -49.7 48.0 -49.65 Q47.6 -49.8 47.3 -50.05 L46.5 -50.75 M39.7 -34.4 L39.75 -34.75 39.85 -35.15 40.65 -35.45 41.5 -35.75 42.1 -36.0 Q44.85 -36.1 47.5 -35.25 L51.5 -35.25 53.5 -35.6 53.75 -35.5 53.7 -35.15 53.45 -34.75 53.1 -34.4 52.75 -34.0 52.7 -33.65 52.45 -33.25 52.1 -32.9 49.5 -31.55 48.25 -31.0 48.0 -30.75 47.6 -30.4 47.0 -30.1 46.6 -29.9 45.75 -29.5 42.1 -29.65 41.6 -29.95 41.0 -30.3 40.85 -30.4 40.6 -30.65 40.25 -31.0 39.9 -31.4 39.75 -31.75 39.7 -32.15 39.6 -32.5 39.4 -32.9 39.25 -33.25 39.6 -34.0 39.7 -34.4 M30.8 -38.5 L31.0 -38.9 31.25 -39.25 31.5 -39.3 Q32.05 -39.35 32.35 -38.9 L33.1 -37.4 32.25 -37.0 31.6 -37.0 31.0 -37.75 30.75 -38.15 30.8 -38.5 M2.6 -48.5 L2.95 -48.5 3.55 -47.45 3.75 -46.75 3.1 -44.45 Q2.85 -43.6 2.25 -43.0 L1.4 -43.0 1.25 -43.15 1.25 -43.5 1.25 -46.15 1.25 -48.0 2.0 -48.25 2.6 -48.5 M13.95 -43.2 L14.75 -42.75 14.75 -42.4 14.75 -41.65 14.75 -41.25 14.4 -40.45 Q14.25 -39.8 13.6 -39.4 L13.2 -39.05 Q11.65 -38.25 11.75 -39.5 L12.35 -41.35 13.25 -43.25 13.95 -43.2 M102.75 -34.25 Q103.2 -34.15 103.65 -33.05 L104.75 -30.75 104.75 -30.4 104.75 -30.0 105.05 -29.6 105.25 -29.25 105.25 -28.15 105.25 -26.65 105.45 -26.25 105.75 -25.5 105.7 -23.25 105.75 -20.65 105.5 -20.25 105.25 -19.9 105.25 -19.5 105.25 -19.15 104.2 -17.3 102.85 -14.65 102.5 -14.25 101.75 -13.5 101.4 -12.3 100.25 -10.5 100.25 -10.15 100.25 -9.75 99.8 -9.0 99.25 -7.5 99.25 -5.65 99.25 -3.75 99.6 -3.0 100.0 -2.25 100.35 -1.9 102.25 0.0 103.5 0.25 104.1 0.05 105.75 -0.5 106.0 -0.75 106.35 -1.15 107.0 -1.4 107.25 -1.5 107.5 -1.75 107.85 -2.15 Q108.5 -2.5 109.0 -3.0 109.9 -3.8 110.75 -4.4 L110.8 -4.05 111.25 -3.25 111.25 -1.75 111.25 0.1 110.85 1.25 Q110.6 2.5 109.75 3.5 L109.75 3.85 109.7 4.25 109.6 4.6 109.0 4.9 108.6 5.1 108.3 5.55 108.0 6.25 107.6 6.6 106.85 7.35 106.75 7.75 106.6 8.1 106.0 8.4 105.6 8.6 105.25 9.0 103.35 10.85 103.25 11.25 103.1 11.6 102.0 12.75 99.0 15.75 98.65 16.5 97.75 18.0 97.75 18.35 97.75 18.75 97.6 19.1 97.25 19.85 97.25 21.0 97.25 22.5 97.55 22.9 97.75 23.25 97.75 23.6 97.75 24.0 97.8 24.3 98.35 25.1 Q99.95 26.05 101.1 26.1 L100.8 26.9 100.6 27.6 100.25 28.0 99.85 28.35 99.75 28.75 99.6 29.1 99.25 29.5 98.85 29.85 98.75 30.25 98.6 30.6 97.95 31.3 95.25 34.0 95.2 34.35 95.0 34.75 94.6 35.1 94.25 35.5 94.2 35.85 94.0 36.25 93.6 36.6 92.85 37.35 92.55 38.05 Q92.2 38.6 92.0 39.25 L91.6 39.6 91.25 40.0 90.45 41.9 Q89.7 43.15 89.25 44.5 L89.25 44.85 89.25 45.25 89.1 45.6 88.75 46.35 88.75 47.1 88.75 47.85 88.5 48.25 88.25 49.0 88.25 50.5 88.25 52.0 88.75 52.75 89.25 53.5 90.0 53.75 92.5 53.75 93.1 53.45 94.35 52.35 95.1 51.95 96.6 50.6 96.55 50.95 96.4 51.4 96.25 51.75 96.25 52.1 96.25 52.5 96.25 52.85 Q95.35 54.05 94.8 55.35 L93.1 60.0 92.3 61.15 90.85 63.35 90.5 63.75 89.0 65.25 88.75 65.6 88.35 66.35 87.6 67.1 84.6 70.1 84.0 70.35 83.75 70.5 83.5 70.75 83.1 71.1 82.5 71.35 82.25 71.5 82.0 71.75 81.6 72.1 81.0 72.4 78.6 73.6 78.25 74.0 77.1 75.1 76.5 75.35 76.25 75.5 76.0 75.75 75.6 76.1 74.75 76.5 74.25 76.75 74.4 76.4 75.5 75.25 75.6 74.85 75.75 74.5 76.1 74.1 76.5 73.75 76.8 73.05 77.35 71.85 77.75 71.5 78.5 70.75 Q78.85 69.75 79.35 68.85 L80.75 66.25 80.75 65.85 80.75 65.5 80.95 65.1 81.25 64.35 81.25 64.0 81.25 63.6 81.25 63.25 81.4 62.9 81.6 62.5 81.75 62.1 81.75 59.85 81.75 57.25 81.5 56.85 81.25 56.5 81.25 56.1 81.25 55.75 80.5 54.65 Q80.0 53.7 80.0 52.75 L80.4 52.4 81.25 52.0 82.25 51.0 84.85 48.35 85.65 46.9 86.75 44.6 86.7 42.0 86.75 39.35 86.05 37.85 Q84.75 35.5 82.5 34.25 L82.1 33.9 79.0 32.25 78.85 32.1 Q78.2 31.45 77.35 31.1 L76.95 30.4 76.25 29.25 76.2 28.85 76.1 28.5 Q75.2 27.5 74.6 26.3 73.65 24.45 73.25 22.5 L73.25 21.75 73.25 21.0 72.9 19.8 72.25 18.0 72.25 15.75 72.25 13.5 72.5 13.1 72.75 12.75 72.75 12.35 72.75 12.0 73.1 11.6 73.5 11.25 73.6 10.85 73.75 10.5 74.5 9.75 76.35 7.85 76.95 7.55 78.1 7.5 77.85 7.85 76.75 9.0 76.4 10.2 75.25 11.6 75.25 12.0 75.25 12.35 75.0 12.75 74.75 13.5 74.75 16.85 74.75 21.0 75.05 21.4 75.25 21.75 75.25 22.1 75.25 22.5 76.0 23.55 76.35 25.1 76.75 25.5 77.1 25.85 77.25 26.2 77.75 27.0 Q80.65 28.65 84.0 29.25 L88.5 29.25 89.1 29.05 Q90.6 28.65 91.85 27.85 L92.25 27.5 93.35 26.35 93.75 25.65 94.25 24.5 94.6 24.1 95.1 23.35 95.3 18.85 95.25 13.25 95.0 12.85 94.75 12.1 94.75 11.75 94.75 11.35 94.05 9.9 93.6 8.0 Q92.6 6.8 91.95 5.4 90.95 3.35 90.25 1.25 L90.25 0.5 90.25 -0.25 90.0 -0.65 89.75 -1.4 89.75 -2.5 89.75 -4.0 90.0 -4.4 90.25 -4.75 90.25 -5.15 90.25 -5.5 90.6 -5.9 91.0 -6.25 91.3 -7.0 91.75 -7.75 92.35 -8.1 93.35 -8.65 93.6 -9.0 93.7 -9.4 93.75 -9.75 93.45 -10.1 92.5 -10.75 91.0 -10.75 87.0 -10.15 86.0 -9.6 Q85.2 -9.05 84.25 -8.9 L84.55 -9.65 85.25 -10.75 85.25 -11.15 85.25 -11.5 85.7 -12.3 86.5 -13.75 86.85 -14.15 88.35 -15.65 89.35 -16.1 95.75 -19.0 96.0 -19.25 96.35 -19.65 97.0 -19.9 97.25 -20.0 97.5 -20.25 97.85 -20.65 98.45 -20.9 98.85 -21.15 99.6 -21.85 102.1 -24.5 102.3 -25.25 102.75 -26.4 102.75 -26.75 102.75 -27.5 102.75 -28.25 102.9 -28.6 103.1 -29.0 103.25 -29.4 103.25 -29.75 103.25 -30.5 103.25 -31.25 103.0 -31.65 102.75 -32.4 102.75 -32.75 102.75 -33.5 102.75 -34.25 M59.25 -0.5 L59.5 -0.75 59.85 -1.15 60.85 -1.6 61.45 -1.9 61.85 -2.1 62.6 -2.5 64.75 -2.5 62.5 -0.25 61.75 0.5 61.45 1.25 61.3 1.65 61.25 2.0 61.25 2.35 61.25 3.1 61.25 3.5 61.25 3.85 62.0 5.4 63.0 7.2 63.35 7.6 63.75 7.95 64.45 8.25 64.6 8.35 64.85 8.6 65.25 9.0 Q65.6 9.1 65.95 9.3 66.75 9.75 67.55 10.3 L67.85 10.6 Q68.3 11.1 68.4 11.7 L68.6 12.5 68.75 12.85 68.75 14.0 68.8 14.75 68.85 15.1 69.15 15.35 69.0 15.35 68.85 17.1 68.8 17.1 68.35 17.35 68.3 17.75 68.25 18.5 68.25 18.85 68.35 19.25 68.25 20.0 68.2 20.35 68.0 20.75 66.85 21.85 66.1 22.6 65.25 23.0 64.55 23.65 63.25 24.5 62.65 24.6 62.65 23.95 62.75 23.75 63.05 22.95 63.25 22.25 63.4 21.9 63.6 21.5 63.75 21.1 63.75 19.6 63.75 18.5 63.75 18.1 63.75 17.75 63.75 17.35 63.4 16.6 Q62.95 15.5 62.0 14.75 L61.05 14.05 60.5 13.75 60.35 13.6 58.6 12.55 57.1 12.0 56.5 11.75 56.25 11.5 55.85 11.1 55.5 10.75 55.25 10.35 55.1 9.6 54.95 9.25 54.8 8.85 54.75 8.5 54.75 8.1 54.75 7.75 54.75 7.35 54.75 7.0 54.75 6.6 55.1 5.85 55.25 5.5 55.5 5.1 55.75 4.75 55.75 4.35 55.75 4.0 56.2 3.2 56.75 2.15 56.95 1.75 57.1 1.35 57.25 1.0 57.6 0.6 58.0 0.25 58.35 -0.15 59.0 -0.4 59.25 -0.5 M-38.2 -111.4 L-38.0 -111.75 -37.6 -112.1 -37.0 -112.4 -36.65 -112.65 -36.25 -113.0 -35.5 -113.25 -34.9 -113.5 -33.8 -113.35 Q-33.15 -113.15 -32.5 -112.75 L-33.8 -111.75 Q-34.7 -111.2 -35.75 -111.0 L-38.2 -111.4 M-12.0 -117.75 L-11.95 -117.8 -11.6 -117.4 -11.4 -117.0 -11.25 -116.65 -11.25 -113.65 -11.25 -111.0 -11.4 -110.65 -11.6 -110.25 -11.75 -109.9 -11.75 -109.5 -11.75 -109.15 -11.9 -108.75 -12.05 -108.4 -12.25 -108.0 -12.65 -107.7 -12.85 -107.7 -13.25 -108.0 -13.7 -108.8 -13.75 -109.15 -13.75 -109.5 -14.05 -110.25 -14.2 -110.65 -14.25 -111.0 -14.25 -111.4 -14.25 -112.5 -14.25 -113.25 -13.5 -115.15 -13.15 -116.65 -12.75 -117.0 -12.4 -117.4 -12.0 -117.75 M-6.4 -71.5 L-6.15 -71.6 -5.4 -71.65 -5.3 -71.35 -5.25 -71.0 -5.25 -70.65 -5.5 -70.25 -5.8 -69.9 -6.25 -69.5 -7.05 -69.55 -7.75 -70.0 -7.05 -70.75 -6.4 -71.5 M-38.5 12.25 L-37.95 12.2 -36.75 13.0 -36.4 13.35 -34.9 14.85 -34.5 16.05 -33.65 17.1 -33.25 17.45 -32.4 17.85 -32.15 18.1 -31.75 18.5 -29.25 19.5 -31.9 19.5 -36.5 17.75 -37.15 17.15 Q-38.15 16.3 -38.75 15.25 L-38.85 13.75 Q-38.9 12.9 -38.5 12.25 M-70.75 -92.5 L-70.4 -92.15 -69.65 -91.4 -69.4 -91.0 -69.3 -90.6 -69.25 -90.25 -69.45 -90.0 -70.9 -89.5 -71.65 -89.9 -72.4 -90.65 -73.15 -91.4 -73.3 -91.75 -73.5 -92.15 -73.75 -92.5 -73.65 -92.55 -72.0 -92.25 -71.4 -92.5 -70.75 -92.5 M-40.5 26.65 L-39.75 26.6 -39.75 26.85 -39.75 28.35 -39.75 29.85 -40.4 31.0 -41.0 32.0 Q-41.75 31.4 -42.0 30.45 L-42.25 28.85 -42.0 28.15 -41.75 27.75 -41.75 27.35 -41.7 27.0 -41.5 26.6 -41.25 26.55 -40.5 26.65 M-5.0 45.75 Q-5.05 44.65 -3.65 44.2 L-1.0 43.6 2.5 44.35 2.5 44.75 1.5 45.35 Q0.0 46.2 -1.75 46.5 L-3.4 46.5 -4.0 46.25 -4.6 46.1 -4.75 46.0 -5.0 45.75 M-57.65 45.1 L-57.25 45.5 -56.15 46.6 -55.9 47.0 -55.45 47.7 -54.9 48.5 -54.8 48.85 -54.6 49.6 -54.25 50.35 -54.25 50.75 -54.25 51.5 -54.25 51.85 -54.75 52.65 -54.9 53.0 -57.15 52.6 -57.2 52.25 -57.25 51.1 -57.25 50.75 -57.5 50.35 -57.75 50.0 -57.75 49.6 -57.75 49.25 -58.0 48.85 -58.25 48.5 -58.35 47.75 -58.5 47.35 -58.8 47.0 -59.15 46.6 -59.9 45.9 -58.9 45.6 Q-57.75 45.0 -57.65 45.1 M-44.75 54.1 L-44.75 54.0 -44.65 54.0 -44.6 54.1 -44.0 54.75 -43.7 55.45 -43.25 56.25 -43.2 56.6 -42.9 57.35 -42.5 57.75 -41.75 58.5 -41.0 58.75 -40.9 58.85 -40.65 59.1 -40.25 59.5 -39.25 59.85 Q-36.9 60.4 -35.4 62.0 L-35.55 62.65 -36.25 63.5 -38.9 63.5 -39.9 63.0 -40.65 62.6 -40.85 62.35 Q-41.45 61.65 -42.25 61.25 L-43.05 60.05 Q-43.6 59.4 -43.75 58.6 L-43.75 58.25 -43.75 57.85 -43.9 57.5 -44.1 57.1 -44.25 56.75 -44.25 56.35 -44.25 56.0 -44.4 55.6 -44.65 54.85 -44.75 54.1 M-64.4 71.4 L-64.25 71.75 -64.25 72.1 -64.25 72.5 -63.9 72.9 -63.75 73.25 -63.75 73.6 -63.75 74.0 Q-63.25 74.4 -63.0 75.05 L-62.5 76.25 -61.75 77.0 -60.25 78.5 Q-55.0 80.8 -49.75 81.35 L-49.85 81.7 -50.2 82.5 -50.5 83.25 -51.25 84.0 -52.4 85.1 -53.4 85.6 -56.25 87.0 -59.9 87.0 -60.9 86.5 Q-62.2 85.85 -63.5 85.25 L-63.9 84.9 -65.15 84.1 -65.9 83.35 -66.25 83.0 Q-66.5 82.2 -66.9 81.5 L-67.55 80.25 -67.05 79.2 -66.75 78.5 -66.75 77.75 -66.75 77.35 -66.75 77.0 -66.5 76.6 -66.25 76.25 -66.25 75.85 -66.25 75.5 -65.6 74.4 -65.25 73.6 -65.25 73.25 -65.25 72.85 -65.25 72.5 -65.0 72.1 -64.75 71.75 -64.75 71.35 -64.75 71.0 -64.4 71.4 M-70.9 67.1 L-71.9 67.6 -73.75 68.5 -77.15 68.1 -77.3 67.75 -77.5 67.4 -77.9 67.0 -76.05 66.65 Q-73.55 66.0 -71.25 65.0 L-71.0 64.75 -70.65 64.35 -69.65 63.85 -68.65 63.35 Q-68.2 63.05 -68.4 63.7 L-68.7 64.5 -69.0 65.25 -69.75 66.0 -70.9 67.1 M-35.25 73.6 Q-34.85 72.95 -33.5 73.75 L-30.0 73.6 -29.6 73.4 -27.65 72.35 -27.25 72.0 Q-26.6 71.55 -26.4 70.85 L-26.15 70.15 -25.75 69.0 -25.75 67.5 -25.75 65.6 -25.75 65.55 -25.35 66.15 -25.25 67.25 -25.1 67.6 -24.9 68.0 -24.75 68.35 -24.75 70.25 -24.75 72.1 -24.9 72.45 -25.1 72.85 -25.25 73.25 -25.25 74.35 -25.25 75.85 -25.5 76.25 -25.75 76.6 -25.75 77.0 -25.75 77.35 -26.15 78.15 Q-26.4 78.8 -27.0 79.25 L-27.4 79.55 -28.25 80.0 -28.5 80.25 -29.25 81.0 -34.75 83.0 -39.4 83.0 -40.5 82.25 -40.55 82.0 Q-39.45 81.35 -38.65 80.35 L-37.9 79.3 Q-37.1 78.3 -36.75 77.0 L-36.4 76.6 -35.9 75.85 -35.55 74.7 Q-35.25 74.2 -35.25 73.6 M-6.0 70.75 L-6.6 70.1 -7.25 69.35 -7.1 68.3 -6.75 67.5 Q-3.8 67.0 -1.0 68.25 L4.5 68.25 Q5.7 67.55 6.85 68.0 L6.5 68.95 6.0 69.75 5.0 70.35 4.75 70.5 4.1 71.1 3.75 71.5 0.75 72.0 -2.4 72.0 -6.0 70.75 M130.25 42.5 L131.25 41.5 132.0 40.75 Q132.2 40.45 132.1 40.65 L131.55 42.05 131.1 43.6 130.75 44.0 130.35 44.35 130.25 44.75 130.1 45.1 129.0 46.25 126.75 48.5 Q123.3 49.35 120.25 50.5 L120.25 50.85 120.25 51.6 120.25 52.35 120.45 52.75 120.95 53.95 121.6 55.0 119.6 55.0 115.5 54.25 115.35 54.1 Q114.8 53.45 114.05 53.15 L113.1 52.5 112.7 51.75 112.1 51.0 111.5 50.7 111.25 50.5 111.3 50.15 111.8 49.0 112.25 48.25 112.25 47.85 112.25 47.5 112.5 47.1 112.7 46.75 112.85 46.35 114.05 45.55 114.85 44.85 115.6 44.55 117.1 44.0 127.0 43.75 Q127.95 43.3 128.95 42.95 L130.25 42.5 M101.75 73.75 L102.35 73.35 Q103.55 72.6 105.0 72.75 L105.75 73.0 106.5 73.25 112.5 73.1 113.5 72.6 114.85 71.85 115.2 71.85 115.25 72.0 114.9 73.2 114.0 74.25 113.6 74.55 112.75 74.95 Q109.1 76.35 105.25 76.5 L104.1 77.55 Q103.5 78.05 103.25 78.75 L103.2 79.1 102.9 79.85 102.6 80.6 101.75 81.0 100.1 81.0 99.15 80.4 98.5 79.75 98.5 79.45 99.2 78.2 99.75 77.1 99.75 76.75 99.75 76.35 99.75 76.0 100.85 74.9 101.75 73.75 M21.0 24.0 Q21.2 23.8 21.5 23.75 L21.7 24.15 21.75 24.5 21.75 24.85 22.0 25.25 22.2 25.65 22.25 26.0 22.25 26.35 22.25 26.75 22.25 27.1 22.25 27.5 22.55 27.9 22.75 28.25 22.75 28.55 22.55 28.15 22.1 27.35 21.6 27.05 21.0 26.75 20.5 26.75 20.0 26.9 19.6 27.1 19.3 27.55 19.2 27.85 18.95 28.2 18.6 28.6 18.0 28.85 17.75 29.0 17.5 29.25 17.1 29.55 16.75 29.75 16.75 29.1 16.75 25.35 16.75 22.85 17.25 23.6 17.25 24.0 17.3 24.35 17.5 24.75 17.85 25.1 18.2 25.4 18.3 25.45 19.0 25.75 19.5 25.7 19.95 25.6 20.35 25.35 20.7 24.6 21.0 24.0 M29.8 51.0 L30.0 50.25 30.05 50.1 30.2 50.75 30.25 51.5 30.25 52.25 30.05 52.6 29.75 53.0 29.75 53.35 29.75 53.75 29.55 54.1 29.3 54.55 29.2 54.85 29.0 55.25 28.6 55.6 28.25 56.0 28.2 56.35 28.0 56.75 27.6 57.1 26.85 57.85 26.1 58.6 Q21.75 61.1 16.6 60.0 15.05 59.15 14.1 57.65 L12.75 55.85 12.5 54.75 12.1 54.0 11.75 53.25 11.75 52.5 11.75 51.75 11.9 52.1 12.25 52.85 12.5 53.25 12.85 53.6 13.25 54.0 13.6 54.35 13.75 54.75 13.9 55.1 14.25 55.5 15.0 55.75 15.35 56.1 15.75 56.5 16.75 56.95 18.5 57.75 19.95 57.75 19.8 57.25 21.5 57.25 25.0 56.6 25.4 56.4 26.0 56.1 26.25 56.0 26.5 55.75 26.85 55.35 27.5 55.1 27.75 55.0 28.35 54.35 29.1 53.6 29.6 52.85 29.75 51.75 29.8 51.0 M59.2 77.0 Q59.1 76.15 59.6 75.5 L59.7 75.45 61.0 75.75 61.5 75.65 62.0 75.6 62.55 75.95 62.75 76.25 62.95 77.0 62.85 77.35 62.65 77.7 61.75 78.5 59.25 78.1 59.2 77.0" fill="#ffcc66" fill-rule="evenodd" stroke="none"/>
  </g>
</svg>
