<?xml version="1.0" encoding="UTF-8" standalone="no"?>
<svg xmlns:ffdec="https://www.free-decompiler.com/flash" xmlns:xlink="http://www.w3.org/1999/xlink" ffdec:objectType="shape" height="84.5px" width="52.3px" xmlns="http://www.w3.org/2000/svg">
  <g transform="matrix(1.0, 0.0, 0.0, 1.0, -90.25, -1.2)">
    <path d="M141.55 33.95 L142.05 34.35 142.25 34.7 142.4 35.1 142.55 35.45 142.55 38.85 142.55 43.35 142.4 43.7 142.2 44.1 142.05 44.45 142.05 44.85 142.05 45.2 141.9 45.6 141.75 45.95 141.55 46.35 141.55 46.7 141.55 47.1 140.1 50.55 140.1 50.6 137.2 50.6 137.05 50.7 Q134.7 51.55 132.45 52.55 132.2 52.65 132.05 52.85 L130.95 54.25 129.65 56.2 129.55 56.6 129.55 56.95 129.55 57.35 129.4 57.7 129.2 58.1 129.05 58.45 129.05 58.85 129.05 59.2 129.05 59.6 128.9 59.95 128.8 60.35 128.6 60.65 128.15 61.1 127.8 61.35 127.15 61.45 126.3 61.2 125.8 60.8 125.65 60.7 125.65 63.2 Q122.25 64.7 118.55 65.45 L115.65 65.5 Q112.65 65.1 110.05 63.6 L108.5 62.15 Q107.4 61.4 107.3 60.2 L107.3 59.85 107.4 59.45 107.55 59.1 107.9 58.7 108.3 58.45 108.55 58.35 108.8 58.3 Q108.35 57.3 108.3 56.2 L108.45 55.85 109.05 55.1 109.8 54.45 110.05 54.4 110.65 54.25 110.65 54.2 111.55 54.45 112.05 54.85 112.25 55.2 112.4 55.6 112.55 55.95 112.55 56.35 112.55 56.7 112.85 57.45 113.65 57.3 113.65 57.2 115.8 57.75 115.8 57.7 115.95 57.35 116.15 56.95 116.55 56.6 117.05 56.4 117.65 56.25 117.65 56.2 118.15 56.25 119.05 56.45 119.75 57.05 119.8 56.95 120.65 56.8 120.65 56.7 121.15 56.75 121.8 56.85 122.05 56.8 122.65 56.7 123.4 56.95 123.3 56.6 123.3 56.2 123.3 55.45 123.4 54.7 123.8 54.35 124.3 53.95 125.15 53.8 125.15 53.7 125.65 53.75 126.55 53.95 127.45 52.55 128.55 50.95 127.8 50.7 127.3 50.3 126.9 49.95 126.8 49.6 126.8 48.85 126.8 48.1 126.95 47.75 127.65 46.95 128.05 46.6 128.55 46.4 129.15 46.25 129.15 46.2 130.05 46.45 130.55 46.85 130.75 47.2 130.9 47.6 131.05 48.35 131.0 48.65 131.85 48.2 131.8 48.2 131.3 47.8 130.95 47.45 130.8 47.1 130.8 46.7 130.8 46.35 130.9 45.95 131.45 45.25 132.15 44.45 132.55 44.1 133.05 43.9 133.65 43.75 133.65 43.7 134.15 43.75 134.35 43.8 134.55 43.1 134.95 42.75 136.3 41.95 137.15 41.75 137.15 41.7 138.05 41.95 138.45 42.3 138.55 42.1 138.8 41.7 138.8 40.95 138.75 39.45 138.8 38.8 138.15 38.95 137.3 38.7 136.8 38.3 136.45 37.95 136.3 37.6 136.3 37.2 136.5 36.5 136.9 35.7 137.3 35.45 137.4 35.45 137.4 35.35 138.1 34.65 139.3 33.95 139.55 33.85 140.15 33.75 140.15 33.7 140.65 33.75 141.55 33.95 M136.55 45.95 L136.5 46.2 136.4 46.6 136.4 46.7 136.65 46.75 137.3 46.9 137.45 46.2 137.65 45.65 137.55 45.7 136.65 45.95 136.55 45.95 M99.0 2.95 L99.0 4.05 99.0 5.95 99.0 6.7 98.9 7.05 98.75 7.45 98.5 7.8 98.5 8.2 98.5 8.55 98.45 9.3 98.15 10.05 97.85 10.4 97.5 10.7 97.25 10.8 96.65 10.95 95.75 10.7 95.3 10.3 94.9 9.95 94.8 9.2 94.75 7.7 94.75 6.55 94.9 6.2 95.1 5.8 95.25 5.45 95.25 5.05 95.1 4.35 94.85 3.55 94.75 2.8 94.9 2.45 95.05 2.1 95.4 1.7 95.75 1.45 96.05 1.35 96.65 1.25 96.65 1.2 97.15 1.25 98.0 1.45 98.5 1.8 98.75 2.2 98.9 2.55 99.0 2.95 M121.35 61.2 L121.7 61.05 121.4 61.0 121.35 61.2 M105.55 71.6 L106.2 70.5 106.55 70.1 107.05 69.9 107.65 69.8 107.65 69.7 108.55 69.95 109.05 70.35 109.25 70.75 109.4 71.1 109.55 71.45 109.55 71.85 109.55 72.2 109.55 72.6 109.4 72.95 109.15 73.7 108.8 74.85 108.9 75.1 108.95 75.85 108.95 75.9 109.1 76.1 109.55 76.85 109.5 77.2 109.4 77.6 109.3 77.95 109.0 78.3 108.3 79.1 107.9 79.45 107.8 79.85 107.65 80.2 106.9 80.95 105.4 82.45 105.3 82.85 105.15 83.2 103.2 84.45 101.75 85.35 100.95 85.4 Q98.15 86.15 95.35 85.05 L93.05 84.8 92.15 84.95 91.25 84.7 90.8 84.35 90.4 83.95 90.3 83.6 90.25 83.2 90.25 82.85 90.25 82.45 90.3 82.1 90.4 81.7 90.8 81.35 91.25 80.95 92.15 80.8 92.15 80.7 94.9 80.8 95.25 80.45 96.15 80.3 96.15 80.2 97.05 80.4 97.8 80.55 97.75 80.2 97.8 79.45 97.9 78.7 98.3 78.35 98.75 77.95 99.65 77.8 99.65 77.7 102.15 77.8 102.3 77.85 102.65 77.45 103.0 77.1 103.55 76.9 104.15 76.8 104.15 76.7 104.8 76.9 105.05 76.55 104.95 76.45 104.75 76.1 104.75 75.7 104.8 75.35 105.1 74.6 105.3 74.3 105.3 74.2 105.25 73.1 105.3 72.35 105.55 71.6 M125.25 57.95 L125.15 57.9 124.3 57.7 124.25 57.65 124.25 57.7 124.5 58.45 124.55 58.85 124.5 59.2 124.4 59.6 124.35 59.75 124.4 59.7 124.8 59.35 125.3 58.85 125.25 58.2 125.25 57.95" fill="#ff6600" fill-rule="evenodd" stroke="none"/>
  </g>
</svg>
