<?xml version="1.0" encoding="UTF-8" standalone="no"?>
<svg xmlns:ffdec="https://www.free-decompiler.com/flash" xmlns:xlink="http://www.w3.org/1999/xlink" ffdec:objectType="shape" height="73.4px" width="88.0px" xmlns="http://www.w3.org/2000/svg">
  <g transform="matrix(1.0, 0.0, 0.0, 1.0, 409.0, 23.55)">
    <path d="M-407.0 -20.0 L-406.25 -20.75 -404.8 -22.3 -403.65 -23.25 -403.25 -23.35 -402.5 -23.45 -402.5 -23.5 Q-400.8 -23.8 -399.5 -22.75 L-397.5 -21.0 -397.0 -19.9 -395.8 -17.2 -395.0 -15.4 -395.0 -15.0 -395.0 -14.65 -395.0 -13.9 -395.0 -13.15 -395.15 -12.75 -395.35 -12.35 -395.5 -12.0 -395.5 -11.65 -395.4 -11.25 -395.25 -10.9 -395.0 -10.15 -395.0 -7.9 -395.0 -3.75 -395.0 -1.9 -395.15 -1.5 -395.25 -1.15 -395.4 -0.75 -395.5 -0.4 -395.5 1.1 -395.5 4.1 -395.5 6.35 -395.4 6.75 -395.25 7.1 -395.15 7.5 -395.0 7.85 -395.0 8.25 -395.0 8.6 -395.0 9.0 -394.85 9.35 -394.65 9.75 -394.5 10.1 -394.5 10.5 -394.5 11.25 -394.5 12.35 -394.5 13.5 -394.05 14.65 -393.25 16.8 Q-392.8 17.75 -392.5 18.75 L-392.5 19.1 -392.5 19.5 -392.5 19.85 -392.4 20.25 -392.25 20.6 -392.15 21.0 Q-381.4 28.85 -370.0 20.15 -364.9 16.25 -359.4 12.85 L-357.85 12.15 -355.65 10.75 Q-344.05 4.85 -332.6 7.15 L-332.4 6.85 -332.0 6.5 -331.6 6.25 -331.25 6.15 -330.5 6.0 -329.55 6.3 -328.9 6.6 -328.55 7.0 Q-328.3 7.35 -328.2 7.75 L-328.0 8.4 Q-324.95 9.45 -321.9 11.1 L-321.55 11.5 -321.35 11.85 -321.05 12.65 -321.0 13.0 -321.05 13.35 -321.15 13.75 -321.35 14.15 -321.5 14.5 -321.9 14.85 -322.25 15.25 -322.75 15.6 -323.25 15.8 -324.0 16.0 -325.5 15.6 -325.5 16.35 -325.65 16.75 -325.85 17.15 -326.0 17.5 -326.0 17.85 -326.0 18.6 -326.0 19.75 -326.15 20.1 -326.3 20.5 -326.5 20.85 -326.5 21.25 -326.5 21.6 -326.5 22.0 -326.5 22.35 -326.7 22.7 Q-327.1 23.25 -327.15 23.85 L-327.5 25.0 -328.65 26.1 Q-329.6 26.9 -330.0 28.0 L-330.4 28.35 -330.75 28.75 -331.15 29.1 -331.3 29.5 -331.5 29.9 -331.85 30.65 -332.0 31.0 -333.45 32.55 Q-334.35 33.5 -335.5 34.0 -337.75 35.95 -340.35 37.4 L-342.5 38.5 Q-343.65 39.75 -345.25 40.45 L-347.5 41.5 Q-365.15 54.55 -386.3 47.15 L-390.0 45.5 -391.15 45.25 -391.6 44.85 -391.9 44.6 -393.9 43.85 -395.4 43.1 -396.15 42.35 -397.65 40.85 -397.85 40.5 -398.05 40.15 -398.25 39.75 -398.65 39.35 -399.4 38.6 -399.75 38.25 -399.9 37.85 -400.0 37.5 -400.4 37.1 -400.75 36.75 -400.9 36.35 -401.0 36.0 -401.4 35.6 -402.15 34.85 -402.5 34.5 -403.8 31.85 -405.4 28.5 -405.5 28.1 -405.55 27.75 -405.85 27.0 -406.0 26.6 -406.0 26.25 -406.0 25.85 -406.15 25.5 -406.25 25.1 -406.5 24.35 -406.5 24.0 -406.5 23.6 -406.5 23.25 -406.65 22.9 -406.85 22.5 -407.0 22.1 -407.0 21.75 -407.0 21.0 -407.0 19.85 -407.0 19.5 -407.05 19.15 -407.2 18.75 -407.5 18.0 -407.5 17.6 -407.5 17.25 -407.5 16.85 -407.5 16.5 -407.55 16.15 -407.7 15.75 -408.0 15.0 -408.0 14.6 -408.0 13.85 -408.0 12.75 -408.0 12.35 -408.15 12.0 -408.25 11.6 -408.5 10.85 -408.5 6.75 -408.5 1.5 -408.55 1.15 -408.7 0.75 -409.0 0.0 -409.0 -0.4 -409.0 -0.75 -409.0 -1.15 -408.85 -1.5 -408.65 -1.9 -408.5 -2.25 -408.5 -5.65 -408.5 -10.15 -408.5 -10.5 -408.4 -10.9 -408.25 -11.25 -408.0 -11.65 -408.0 -13.15 -408.0 -13.95 -408.0 -15.4 -408.0 -16.15 -408.0 -18.15 -407.85 -18.5 -407.65 -18.9 -407.25 -19.6 -407.0 -20.0 M-400.05 -3.3 Q-399.8 -4.2 -399.9 -5.15 L-400.0 -8.15 -400.15 -8.5 -400.4 -9.25 -400.5 -9.65 -400.5 -12.65 -400.5 -15.25 -401.15 -16.45 -401.9 -17.4 -402.0 -17.4 -402.0 -17.15 -402.15 -16.75 -402.35 -16.35 -402.5 -16.0 -402.5 -15.65 -402.5 -15.25 -402.65 -14.9 -402.8 -14.5 -403.0 -14.15 -402.9 -13.75 -402.75 -13.4 -402.55 -12.6 -402.5 -12.25 -402.55 -11.9 -402.65 -11.5 -402.9 -10.75 -403.0 -10.4 -403.0 -10.0 -403.0 -9.65 -403.15 -9.25 -403.35 -8.85 -403.5 -8.5 -403.5 0.5 -403.5 9.5 -403.35 9.85 -403.15 10.25 -403.0 10.6 -403.0 11.0 -403.0 11.75 -403.0 12.85 -403.0 13.25 -402.95 13.6 -402.8 14.0 -402.5 14.75 -402.5 15.1 -402.5 15.5 -402.5 15.85 -402.4 16.25 -402.25 16.6 -402.0 17.35 -402.0 18.1 -402.0 19.6 -402.0 20.35 -401.9 20.75 -401.75 21.1 -401.5 21.85 -401.5 22.25 -401.5 22.6 -401.5 23.0 -399.75 27.8 Q-398.9 30.2 -397.65 32.35 L-397.25 32.75 -396.5 33.5 -396.15 33.85 -395.7 34.55 -394.7 36.1 -394.5 36.5 Q-381.1 47.35 -363.75 43.35 -359.45 42.35 -355.65 40.25 L-354.4 39.85 Q-347.6 35.4 -340.6 31.25 L-339.9 30.85 -339.5 30.5 -338.6 29.8 -337.9 29.35 -337.5 29.0 -336.75 28.25 -336.0 27.5 -335.9 27.1 -335.75 26.75 -335.4 26.35 -335.0 26.0 -334.65 25.6 -334.4 25.25 -334.25 24.9 -334.0 24.5 -333.65 24.1 -333.25 23.75 -332.8 23.05 Q-332.25 22.35 -331.85 21.5 L-331.5 20.75 -331.5 20.35 -331.5 20.0 -331.5 19.6 -331.4 19.25 -331.25 18.85 -331.0 18.1 -331.0 17.75 -331.0 17.0 -331.0 15.85 -330.85 15.5 -330.7 15.1 -330.5 14.35 -330.6 14.05 -330.9 13.6 -331.4 13.1 -331.55 13.05 -332.65 12.75 -333.1 12.35 -333.4 12.1 Q-345.75 10.45 -356.15 17.1 -366.9 25.4 -379.55 29.8 -383.35 31.1 -387.15 29.75 L-387.65 29.35 Q-391.15 28.7 -393.9 26.35 L-396.65 23.85 -396.85 23.5 -397.0 23.1 -397.2 22.4 -397.5 21.6 -397.5 21.25 -397.5 20.85 -397.65 20.5 -397.75 20.1 -397.9 19.75 -398.4 19.0 -398.5 18.6 -398.55 18.25 -398.65 17.9 -399.0 17.1 -399.0 16.75 -399.0 16.35 -399.15 16.0 -399.25 15.6 -399.4 15.25 -399.5 14.85 -399.5 14.5 -399.5 13.75 -399.5 12.6 -399.5 11.85 -399.65 11.5 -399.75 11.1 -399.9 10.75 -400.0 10.35 -400.0 10.0 -400.0 9.6 -400.25 9.25 -400.4 8.85 -400.5 8.5 -400.5 5.85 -400.5 4.45 -400.45 1.0 Q-400.4 0.05 -400.65 -0.9 L-400.75 -0.65 -400.95 -5.35 -400.8 -5.0 -400.65 -4.65 -400.5 -4.25 -400.5 -3.5 -400.5 -2.4 -400.5 -2.25 -400.05 -3.3" fill="#000000" fill-rule="evenodd" stroke="none"/>
    <path d="M-400.5 -3.5 L-400.5 -4.25 -400.65 -4.65 -400.8 -5.0 -400.95 -5.35 -400.75 -0.65 -400.65 -0.9 Q-400.4 0.05 -400.45 1.0 L-400.5 4.45 -400.5 5.85 -400.5 8.5 -400.4 8.85 -400.25 9.25 -400.0 9.6 -400.0 10.0 -400.0 10.35 -399.9 10.75 -399.75 11.1 -399.65 11.5 -399.5 11.85 -399.5 12.6 -399.5 13.75 -399.5 14.5 -399.5 14.85 -399.4 15.25 -399.25 15.6 -399.15 16.0 -399.0 16.35 -399.0 16.75 -399.0 17.1 -398.65 17.9 -398.55 18.25 -398.5 18.6 -398.4 19.0 -397.9 19.75 -397.75 20.1 -397.65 20.5 -397.5 20.85 -397.5 21.25 -397.5 21.6 -397.2 22.4 -397.0 23.1 -396.85 23.5 -396.65 23.85 -393.9 26.35 Q-391.15 28.7 -387.65 29.35 L-387.15 29.75 Q-383.35 31.1 -379.55 29.8 -366.9 25.4 -356.15 17.1 -345.75 10.45 -333.4 12.1 L-333.1 12.35 -332.65 12.75 -331.55 13.05 -331.4 13.1 -330.9 13.6 -330.6 14.05 -330.5 14.35 -330.7 15.1 -330.85 15.5 -331.0 15.85 -331.0 17.0 -331.0 17.75 -331.0 18.1 -331.25 18.85 -331.4 19.25 -331.5 19.6 -331.5 20.0 -331.5 20.35 -331.5 20.75 -331.85 21.5 Q-332.25 22.35 -332.8 23.05 L-333.25 23.75 -333.65 24.1 -334.0 24.5 -334.25 24.9 -334.4 25.25 -334.65 25.6 -335.0 26.0 -335.4 26.35 -335.75 26.75 -335.9 27.1 -336.0 27.5 -336.75 28.25 -337.5 29.0 -337.9 29.35 -338.6 29.8 -339.5 30.5 -339.9 30.85 -340.6 31.25 Q-347.6 35.4 -354.4 39.85 L-355.65 40.25 Q-359.45 42.35 -363.75 43.35 -381.1 47.35 -394.5 36.5 L-394.7 36.1 -395.7 34.55 -396.15 33.85 -396.5 33.5 -397.25 32.75 -397.65 32.35 Q-398.9 30.2 -399.75 27.8 L-401.5 23.0 -401.5 22.6 -401.5 22.25 -401.5 21.85 -401.75 21.1 -401.9 20.75 -402.0 20.35 -402.0 19.6 -402.0 18.1 -402.0 17.35 -402.25 16.6 -402.4 16.25 -402.5 15.85 -402.5 15.5 -402.5 15.1 -402.5 14.75 -402.8 14.0 -402.95 13.6 -403.0 13.25 -403.0 12.85 -403.0 11.75 -403.0 11.0 -403.0 10.6 -403.15 10.25 -403.35 9.85 -403.5 9.5 -403.5 0.5 -403.5 -8.5 -403.35 -8.85 -403.15 -9.25 -403.0 -9.65 -403.0 -10.0 -403.0 -10.4 -402.9 -10.75 -402.65 -11.5 -402.55 -11.9 -402.5 -12.25 -402.55 -12.6 -402.75 -13.4 -402.9 -13.75 -403.0 -14.15 -402.8 -14.5 -402.65 -14.9 -402.5 -15.25 -402.5 -15.65 -402.5 -16.0 -402.35 -16.35 -402.15 -16.75 -402.0 -17.15 -402.0 -17.4 -401.9 -17.4 -401.15 -16.45 -400.5 -15.25 -400.5 -12.65 -400.5 -9.65 -400.4 -9.25 -400.15 -8.5 -400.0 -8.15 -399.9 -5.15 Q-399.8 -4.2 -400.05 -3.3 L-400.5 -3.5" fill="#80a839" fill-rule="evenodd" stroke="none"/>
  </g>
</svg>
