<?xml version="1.0" encoding="UTF-8" standalone="no"?>
<svg xmlns:ffdec="https://www.free-decompiler.com/flash" xmlns:xlink="http://www.w3.org/1999/xlink" ffdec:objectType="shape" height="45.05px" width="75.3px" xmlns="http://www.w3.org/2000/svg">
  <g transform="matrix(1.0, 0.0, 0.0, 1.0, -102.75, -40.7)">
    <path d="M171.3 44.45 L171.3 44.1 171.4 43.7 171.8 43.35 172.3 42.95 173.15 42.75 173.15 42.7 174.0 43.0 174.65 43.3 175.4 43.7 176.15 44.45 176.85 45.25 177.4 45.95 177.5 46.35 177.6 46.7 177.75 47.1 178.05 47.85 178.0 48.95 178.05 50.85 178.05 52.7 177.75 53.9 177.0 55.75 176.15 57.2 175.4 57.95 174.25 59.05 173.55 59.7 Q169.6 61.55 165.75 59.45 L165.05 59.1 164.65 58.7 164.3 58.35 163.6 57.55 163.4 57.2 163.3 56.45 163.25 55.7 163.3 54.6 163.4 54.2 163.8 53.85 164.3 53.45 165.15 53.2 165.65 53.25 166.55 53.45 166.65 53.5 166.8 53.35 167.3 52.95 168.15 52.75 168.15 52.7 169.65 52.8 169.8 52.85 170.1 52.1 170.25 51.9 170.35 49.7 170.4 49.35 171.05 48.6 171.95 47.75 171.85 47.55 Q171.55 47.0 171.4 46.45 L171.3 45.7 171.45 45.35 171.5 45.3 171.3 44.85 171.3 44.45 M174.05 51.85 L174.15 52.0 174.15 51.95 174.2 51.8 174.05 51.85 M137.8 47.45 L138.65 47.25 138.65 47.2 Q142.35 47.15 145.75 48.65 L147.4 49.55 147.4 49.45 147.6 49.1 147.9 48.7 148.3 48.45 148.55 48.35 149.15 48.25 149.15 48.2 151.0 48.55 Q152.15 48.85 152.8 49.8 L152.8 49.7 152.8 49.35 152.9 48.95 153.1 48.6 154.15 47.45 154.35 47.3 154.3 46.85 154.3 46.1 154.45 45.7 154.9 44.95 155.2 44.55 154.3 44.2 153.8 43.8 153.45 43.45 153.3 43.1 153.3 42.7 153.3 42.35 153.4 41.95 153.6 41.6 153.9 41.2 154.3 40.95 154.55 40.85 155.15 40.75 155.15 40.7 157.0 41.1 158.4 41.7 158.8 42.1 159.15 42.45 159.55 42.85 159.95 43.55 160.45 44.7 161.05 46.6 161.05 46.95 161.05 47.35 161.05 47.7 161.05 48.1 161.05 48.85 160.65 49.6 160.3 50.35 159.75 51.45 159.55 51.85 159.15 52.2 158.8 52.6 158.4 52.95 Q152.95 58.25 145.65 55.5 L144.8 55.2 144.3 54.8 143.95 54.45 143.8 54.1 143.8 53.7 143.8 53.35 143.9 52.95 144.1 52.6 144.25 52.4 Q142.35 51.55 140.25 51.4 L138.65 51.45 138.15 51.4 137.3 51.2 136.8 50.8 136.45 50.45 136.3 50.1 136.3 49.7 136.3 49.35 136.4 48.95 136.55 48.6 136.9 48.2 137.3 47.85 137.8 47.45 M117.15 75.25 L118.05 75.45 119.3 76.55 120.8 78.1 122.55 79.15 123.0 79.5 123.4 78.7 123.8 78.45 124.05 78.4 124.65 78.3 124.65 78.2 125.95 78.35 126.05 78.1 126.4 77.7 126.8 77.45 127.05 77.4 127.65 77.3 127.65 77.2 132.6 77.65 138.3 78.35 138.6 77.6 138.9 77.2 139.55 77.0 Q141.55 76.7 143.3 75.75 L143.3 75.7 143.3 74.95 143.15 74.95 142.3 74.7 141.8 74.3 141.4 73.95 141.3 73.6 141.3 72.85 141.3 72.1 141.45 71.7 141.65 71.35 142.05 70.6 142.4 70.2 143.15 69.45 143.55 69.1 144.05 68.9 144.65 68.8 144.65 68.7 145.3 68.9 145.3 68.7 145.3 68.35 145.6 67.6 145.9 67.2 146.3 66.95 146.55 66.9 147.15 66.8 147.15 66.7 148.65 66.8 149.55 66.95 150.0 67.35 150.4 67.7 151.15 68.45 151.3 68.85 151.45 69.2 151.65 69.6 151.9 69.95 152.0 70.35 152.25 71.05 152.75 72.25 153.05 72.95 153.05 73.35 153.05 74.1 153.05 75.6 153.05 76.35 151.95 78.6 Q150.75 81.3 148.05 82.7 136.3 87.95 124.05 84.1 L123.15 83.95 122.3 83.7 121.8 83.35 121.55 83.05 Q119.95 82.35 118.55 81.1 L116.9 79.75 114.9 77.7 114.8 77.35 114.8 76.95 114.8 76.6 114.9 76.2 115.3 75.85 115.8 75.45 116.65 75.3 116.65 75.2 117.15 75.25 M104.65 80.7 L105.55 80.95 106.65 81.25 107.55 81.45 108.05 81.85 108.25 82.25 108.4 82.6 108.45 82.95 108.4 83.7 108.15 84.1 107.85 84.45 107.55 84.7 107.25 84.8 106.65 84.9 104.25 84.7 103.8 84.35 103.4 83.95 103.1 83.55 102.75 82.85 102.75 82.45 102.8 82.1 102.9 81.7 103.3 81.35 103.75 80.95 104.65 80.8 104.65 80.7 M154.35 51.4 L154.35 51.35 154.35 51.4 M148.0 73.85 L148.4 74.25 148.9 75.0 149.0 75.25 149.1 74.95 149.3 74.2 149.15 73.85 148.9 73.5 148.6 73.2 148.5 73.3 148.05 73.7 147.9 73.75 148.0 73.85 M140.5 80.35 L140.4 80.7 140.2 81.05 141.7 80.65 141.4 80.4 140.5 80.3 140.5 80.35" fill="#ff6600" fill-rule="evenodd" stroke="none"/>
  </g>
</svg>
