<?xml version="1.0" encoding="UTF-8" standalone="no"?>
<svg xmlns:ffdec="https://www.free-decompiler.com/flash" xmlns:xlink="http://www.w3.org/1999/xlink" ffdec:objectType="shape" height="214.5px" width="271.35px" xmlns="http://www.w3.org/2000/svg">
  <g transform="matrix(1.0, 0.0, 0.0, 1.0, 75.75, 127.25)">
    <path d="M1.1 -107.45 L1.6 -107.15 1.95 -106.7 2.3 -106.05 2.75 -105.25 2.75 -104.5 2.75 -103.0 2.75 -101.9 2.6 -101.5 2.4 -101.1 2.2 -100.75 2.0 -100.4 1.6 -100.05 0.85 -99.65 0.5 -99.25 0.2 -99.0 0.0 -98.9 -0.5 -98.8 -1.5 -98.75 -2.25 -99.05 -2.55 -99.2 -3.25 -99.5 -3.65 -99.9 -4.0 -100.25 -4.4 -100.65 -4.7 -101.05 -4.8 -101.35 -5.0 -101.75 -5.25 -102.15 -5.25 -102.9 -5.25 -104.4 -5.25 -105.9 -5.0 -106.25 -4.65 -106.65 -4.25 -107.0 -3.5 -107.25 -1.95 -107.4 -0.5 -107.7 -0.5 -107.75 0.5 -107.75 1.1 -107.45 M0.25 -104.4 L-0.45 -105.05 -1.0 -105.3 -1.25 -105.25 -1.95 -104.55 -2.65 -103.8 -2.75 -103.5 -2.7 -103.15 -2.55 -102.75 -2.4 -102.4 -1.35 -101.65 -1.0 -101.5 -0.55 -101.8 -0.15 -102.15 0.1 -102.5 0.2 -103.25 0.25 -103.65 0.25 -104.4 M40.1 -112.95 L40.6 -112.65 41.7 -110.75 42.75 -108.5 42.75 -108.15 42.75 -107.75 42.75 -107.4 42.75 -107.0 42.8 -106.65 42.95 -106.25 43.1 -105.9 43.25 -105.5 43.25 -102.9 43.25 -99.5 43.25 -99.15 43.2 -98.75 43.0 -98.4 42.75 -98.0 42.75 -97.65 42.75 -97.25 42.5 -96.9 42.25 -96.5 42.1 -96.15 42.0 -95.75 41.6 -95.4 41.25 -95.0 40.85 -94.65 40.45 -93.9 39.5 -92.75 39.25 -92.5 39.0 -92.4 38.35 -92.15 38.0 -91.75 37.7 -91.5 37.5 -91.4 34.5 -91.25 33.75 -91.5 33.0 -92.25 31.85 -93.4 31.75 -94.15 31.75 -94.9 31.75 -95.65 31.8 -95.95 32.05 -96.4 32.25 -96.75 32.25 -97.15 32.25 -97.5 32.25 -97.9 33.6 -99.4 35.1 -100.9 35.5 -101.1 36.1 -101.4 37.25 -102.5 38.35 -103.65 38.7 -104.4 38.9 -105.1 39.25 -105.9 39.25 -106.25 39.25 -106.65 39.25 -107.0 39.25 -107.75 39.4 -108.1 39.6 -108.5 39.45 -109.25 39.1 -110.0 38.85 -110.4 38.15 -111.15 37.75 -111.9 37.75 -112.25 37.9 -112.6 38.25 -113.0 38.95 -113.2 39.0 -113.25 39.45 -113.2 40.1 -112.95 M37.85 -99.65 L36.35 -98.15 35.1 -97.0 34.8 -96.25 34.6 -95.5 34.5 -94.75 35.3 -94.2 36.25 -94.0 37.1 -94.45 Q37.3 -94.55 37.5 -94.75 L38.05 -95.55 38.5 -96.25 38.85 -96.65 39.25 -97.0 39.6 -97.4 40.0 -98.55 40.3 -99.25 40.75 -100.4 40.75 -101.15 40.7 -101.85 40.6 -101.95 40.5 -101.9 39.05 -100.45 37.85 -99.65 M70.0 -127.25 L71.0 -126.75 72.0 -126.25 72.6 -126.0 74.5 -123.45 76.25 -120.0 76.6 -119.65 77.0 -119.25 Q77.2 -118.4 77.65 -117.7 L78.45 -115.9 78.75 -115.15 78.75 -114.75 78.75 -114.4 78.75 -114.0 78.75 -113.65 78.75 -113.25 78.9 -112.9 79.1 -112.5 79.25 -112.15 79.25 -111.4 79.25 -110.65 79.25 -109.9 79.3 -109.5 79.5 -109.15 79.75 -108.75 79.75 -106.9 79.75 -104.65 79.75 -103.5 79.6 -103.15 79.45 -102.75 79.25 -102.4 79.25 -101.65 79.25 -100.9 79.25 -99.75 79.25 -99.4 79.1 -99.0 78.9 -98.6 78.75 -98.25 78.75 -97.9 78.75 -97.5 78.6 -97.15 78.45 -96.75 78.3 -96.35 78.25 -96.0 77.5 -93.75 76.15 -91.1 76.0 -90.75 74.85 -89.6 73.35 -88.15 72.35 -87.65 71.35 -87.1 71.0 -86.9 68.5 -86.75 67.75 -87.05 67.4 -87.4 67.25 -87.75 67.35 -88.45 67.7 -89.25 67.85 -89.65 68.25 -90.0 68.6 -90.4 68.7 -90.75 68.75 -91.15 68.75 -91.5 68.8 -91.85 69.0 -92.25 69.25 -92.65 69.25 -93.75 69.25 -94.9 69.25 -95.9 69.0 -95.85 68.35 -95.65 Q67.6 -94.65 66.5 -94.25 L65.0 -93.75 62.0 -93.75 60.5 -94.25 59.75 -94.5 59.35 -94.9 59.0 -95.25 58.6 -95.65 57.75 -96.0 57.0 -96.75 56.25 -97.5 56.25 -97.9 56.25 -98.25 56.25 -98.65 56.25 -99.0 58.15 -100.85 60.25 -103.0 60.5 -103.1 61.1 -103.4 61.5 -103.75 61.75 -104.0 64.2 -105.15 66.75 -106.0 67.1 -106.4 67.5 -106.75 67.75 -107.0 68.0 -107.1 68.6 -107.4 69.75 -108.5 70.85 -109.65 71.45 -110.75 72.05 -111.9 72.25 -112.25 72.25 -113.0 72.25 -113.75 72.25 -114.5 72.3 -114.85 72.5 -115.25 72.75 -115.65 72.75 -116.4 72.75 -117.15 72.75 -118.25 72.75 -118.65 72.6 -119.0 72.4 -119.4 72.25 -119.75 72.25 -120.15 72.25 -120.5 72.25 -120.9 71.6 -121.6 70.85 -122.4 70.75 -122.75 70.75 -123.15 70.75 -123.5 70.7 -123.85 70.6 -124.15 70.45 -124.2 70.0 -124.25 69.5 -124.25 68.75 -124.55 68.4 -124.9 68.25 -125.25 68.25 -125.65 68.3 -125.95 68.6 -126.4 69.0 -126.75 69.25 -127.0 69.5 -127.1 69.95 -127.2 70.0 -127.25 M75.25 -116.25 L75.25 -115.5 75.25 -114.75 75.25 -114.4 75.1 -114.0 74.9 -113.6 74.75 -113.25 74.75 -112.15 74.75 -111.0 Q74.05 -108.85 72.5 -107.25 L70.75 -105.5 70.5 -105.4 69.85 -105.15 Q67.25 -102.95 64.0 -101.85 L63.35 -101.65 63.0 -101.25 62.75 -101.0 62.5 -100.9 61.85 -100.65 61.3 -99.85 60.85 -99.15 59.9 -98.6 59.5 -98.25 61.1 -97.1 61.35 -96.9 62.6 -96.5 64.25 -96.5 65.75 -97.0 66.5 -97.75 66.75 -98.0 67.0 -98.1 67.6 -98.4 68.35 -99.15 68.75 -99.5 69.5 -99.75 69.95 -99.7 70.6 -99.5 Q71.2 -99.05 71.4 -98.4 L71.75 -97.65 71.75 -96.9 71.75 -96.15 71.75 -95.75 72.05 -95.0 72.25 -94.25 72.05 -93.5 71.75 -92.75 71.75 -92.4 71.75 -92.0 71.5 -91.25 71.25 -90.5 71.7 -90.55 72.6 -90.9 72.75 -91.25 72.85 -91.65 73.6 -92.4 74.0 -92.75 Q74.9 -94.3 75.45 -96.1 L76.25 -98.4 76.25 -98.75 76.25 -99.15 76.6 -99.9 76.75 -100.25 76.75 -101.75 76.75 -103.25 76.9 -103.6 77.1 -104.0 77.25 -104.4 77.25 -105.9 77.25 -107.0 76.95 -107.75 76.75 -108.15 76.75 -109.65 76.75 -111.15 76.6 -111.5 76.4 -111.9 76.25 -112.25 76.25 -113.0 76.25 -113.75 76.05 -114.1 75.75 -114.5 75.7 -115.65 Q75.7 -116.05 75.3 -116.3 L75.25 -116.25 M70.75 -76.0 L70.8 -76.35 70.95 -76.75 71.25 -77.5 71.6 -77.9 72.0 -78.25 72.2 -78.65 72.25 -79.0 72.95 -79.75 73.6 -80.5 73.7 -80.9 73.65 -81.2 73.25 -82.0 73.25 -82.4 73.25 -82.75 73.25 -83.15 73.25 -83.5 73.6 -83.85 74.0 -84.05 74.45 -84.2 74.5 -84.25 74.95 -84.2 75.6 -84.0 77.1 -81.7 78.25 -79.15 78.25 -76.15 78.25 -72.4 77.9 -71.6 77.7 -70.9 77.6 -70.5 76.65 -69.35 75.5 -68.4 73.5 -68.25 72.75 -68.5 72.0 -69.25 70.85 -70.4 70.7 -71.1 70.4 -71.9 70.25 -72.25 70.25 -72.65 70.25 -73.0 70.25 -73.75 70.25 -74.15 70.3 -74.45 70.55 -74.9 70.75 -75.25 70.75 -75.65 70.75 -76.0 M75.5 -78.4 L74.5 -77.25 73.75 -76.5 73.6 -76.15 73.45 -75.75 73.25 -75.4 73.25 -75.0 73.25 -74.65 73.25 -74.25 73.25 -73.9 73.1 -73.5 72.85 -73.15 73.1 -72.4 73.3 -72.05 73.6 -71.65 74.0 -71.35 74.45 -71.35 74.85 -71.65 75.2 -72.4 75.4 -73.1 75.75 -73.9 75.75 -75.75 75.6 -78.35 75.5 -78.4 M50.5 -76.75 L51.25 -77.5 51.6 -77.9 52.0 -78.1 53.6 -78.9 54.5 -79.25 56.0 -79.25 56.6 -78.95 57.0 -78.65 57.2 -78.25 57.25 -77.9 57.2 -77.5 57.1 -77.15 57.2 -76.75 57.2 -76.4 57.1 -76.0 56.85 -75.65 56.1 -74.9 55.75 -74.5 55.6 -74.15 55.45 -73.75 55.25 -73.4 55.25 -73.0 55.25 -72.65 55.25 -71.9 55.25 -71.5 Q55.4 -70.75 55.8 -70.05 L57.6 -67.0 57.75 -66.65 57.75 -66.25 57.75 -65.5 57.7 -64.4 57.6 -64.0 57.35 -63.65 56.95 -63.4 56.5 -63.25 53.0 -63.25 52.25 -63.55 51.95 -63.7 51.25 -64.0 50.85 -64.4 50.1 -65.15 49.35 -65.9 49.25 -66.25 49.05 -66.6 48.75 -67.0 48.75 -67.4 48.75 -67.75 48.55 -68.1 48.25 -68.5 48.25 -68.9 48.25 -70.0 48.25 -71.5 48.3 -71.85 48.5 -72.25 48.75 -72.65 48.75 -73.0 48.75 -73.4 48.95 -73.75 49.7 -75.25 50.25 -76.4 50.5 -76.75 M52.25 -74.5 L51.8 -73.35 51.25 -72.25 51.25 -71.9 51.25 -71.5 51.1 -71.15 50.8 -70.35 50.75 -70.0 Q50.75 -69.4 51.1 -68.85 L51.85 -67.4 52.25 -67.0 52.6 -66.65 52.85 -66.4 53.0 -66.3 53.6 -66.0 55.1 -66.0 54.35 -67.2 53.5 -68.25 53.3 -68.65 53.25 -69.0 53.25 -69.4 53.0 -69.75 52.75 -70.15 52.65 -72.75 Q52.55 -74.2 53.1 -75.3 L53.0 -75.25 52.6 -74.9 52.25 -74.5 M60.0 -60.75 L60.2 -61.15 60.25 -61.5 61.0 -62.25 61.75 -63.0 62.1 -63.4 62.5 -63.6 63.1 -63.9 63.5 -64.25 63.75 -64.5 65.7 -65.05 66.5 -65.25 Q67.9 -65.1 69.1 -64.1 L70.75 -62.25 70.75 -61.5 70.75 -60.75 70.75 -60.0 70.45 -59.25 70.1 -58.5 69.85 -58.15 69.5 -57.75 69.25 -57.5 69.0 -57.4 68.35 -57.15 67.6 -56.4 66.85 -55.65 66.5 -55.25 66.1 -54.5 65.7 -53.75 65.25 -53.0 65.25 -52.65 65.25 -52.25 65.25 -51.9 65.25 -51.5 65.1 -51.15 64.95 -50.75 64.75 -50.4 64.75 -50.0 64.75 -49.65 64.75 -49.25 64.75 -48.9 64.75 -48.5 65.05 -47.35 65.55 -46.2 65.6 -45.5 65.35 -45.15 64.95 -44.9 64.5 -44.75 64.0 -44.8 63.25 -45.0 62.15 -46.15 61.0 -47.25 60.6 -47.65 60.2 -48.35 59.75 -49.15 59.35 -49.9 59.0 -50.25 58.6 -50.65 58.3 -51.05 58.2 -51.35 58.0 -51.75 57.75 -52.15 57.75 -53.25 57.75 -54.0 57.75 -55.15 57.8 -55.45 58.05 -55.9 58.25 -56.25 58.25 -56.65 58.25 -57.0 58.55 -57.4 58.75 -57.75 58.75 -58.15 58.75 -58.5 59.05 -58.9 59.25 -59.25 59.25 -59.65 59.25 -60.0 59.6 -60.4 60.0 -60.75 M80.75 -74.15 L80.8 -74.45 81.1 -74.9 81.5 -75.25 81.75 -75.5 82.0 -75.6 84.05 -76.4 86.5 -77.25 89.0 -77.25 90.65 -76.6 93.6 -75.45 94.6 -75.0 94.95 -74.6 95.25 -74.25 Q97.2 -72.75 98.75 -70.8 100.85 -68.25 102.4 -65.35 L103.25 -63.4 103.1 -63.0 102.85 -62.65 102.5 -62.4 102.0 -62.3 101.0 -62.25 100.25 -62.5 97.75 -63.0 97.75 -62.65 97.75 -61.9 97.75 -61.5 97.75 -61.15 97.75 -60.75 97.75 -60.4 97.05 -58.85 95.75 -56.7 93.85 -53.65 93.5 -53.25 93.25 -53.0 93.0 -52.9 92.0 -52.4 91.35 -52.1 91.0 -51.9 90.5 -51.8 88.5 -51.75 87.75 -52.05 Q87.25 -52.25 86.75 -52.55 L86.35 -52.9 86.25 -53.25 86.25 -53.65 86.25 -54.0 86.3 -54.35 86.5 -54.75 86.7 -55.15 86.75 -55.5 87.1 -55.9 87.5 -56.25 87.85 -56.65 88.1 -57.0 88.5 -57.75 88.7 -58.15 88.75 -58.5 89.1 -58.9 89.5 -59.25 89.85 -59.65 90.25 -60.4 91.05 -61.9 91.8 -63.75 92.25 -64.9 92.25 -65.25 92.25 -66.0 92.25 -66.4 92.25 -66.75 92.25 -67.15 92.1 -67.5 91.7 -68.25 91.3 -69.05 91.0 -69.75 90.6 -70.15 89.5 -71.25 88.75 -72.0 88.1 -72.65 87.95 -72.7 83.6 -73.4 83.1 -73.05 82.5 -72.75 82.0 -72.85 Q81.4 -73.05 80.95 -73.45 L80.75 -73.75 80.75 -74.15 M66.5 -62.25 L65.25 -62.0 64.85 -61.65 64.5 -61.4 63.85 -61.15 63.5 -60.75 62.75 -60.0 62.35 -59.65 62.2 -59.25 62.0 -58.9 61.75 -58.5 61.75 -58.15 61.75 -57.75 61.5 -57.35 61.1 -56.65 60.75 -55.9 61.1 -55.5 61.45 -55.1 61.75 -54.75 61.7 -54.4 61.35 -53.65 60.95 -52.9 60.75 -52.5 61.1 -52.1 61.6 -51.4 62.15 -50.85 62.25 -50.9 62.25 -51.25 62.35 -51.95 62.75 -52.75 62.75 -53.15 62.75 -53.5 62.75 -53.9 62.75 -54.25 63.05 -55.0 63.75 -56.2 64.5 -57.25 64.85 -57.65 65.25 -58.0 65.6 -58.4 66.0 -58.6 66.6 -58.9 67.0 -59.25 67.7 -60.05 68.25 -60.75 68.05 -61.1 67.35 -61.9 66.95 -62.15 66.5 -62.25 M75.5 -54.6 L76.1 -54.9 76.5 -55.05 76.95 -55.2 77.0 -55.25 78.0 -55.25 79.95 -54.7 80.6 -54.45 81.1 -54.15 81.45 -53.75 81.6 -53.4 81.75 -53.0 82.25 -52.25 82.25 -51.9 82.25 -51.5 82.25 -51.15 82.2 -50.8 82.0 -50.4 81.75 -50.0 81.75 -49.65 81.75 -49.25 81.5 -48.9 81.2 -48.5 80.85 -48.15 80.25 -47.5 80.0 -47.4 79.35 -47.1 79.0 -46.9 78.5 -46.8 77.5 -46.75 76.75 -47.05 76.45 -47.2 75.75 -47.5 75.35 -47.9 75.0 -48.25 74.6 -48.65 74.3 -49.05 74.25 -49.4 74.25 -49.75 74.05 -50.1 73.75 -50.5 73.75 -50.9 73.75 -51.25 73.75 -51.65 73.75 -52.0 73.8 -52.35 74.0 -52.75 74.2 -53.15 74.25 -53.5 74.6 -53.9 75.0 -54.25 75.25 -54.5 75.5 -54.6 M76.55 -51.45 Q76.5 -51.15 76.75 -50.75 L76.75 -50.4 76.75 -50.0 77.0 -49.8 77.6 -49.5 78.2 -49.6 78.6 -49.9 79.2 -50.65 Q79.55 -51.2 79.5 -51.75 78.95 -52.45 78.0 -52.55 L77.0 -52.25 Q76.6 -51.9 76.55 -51.45 M4.6 -52.45 L5.1 -52.1 5.5 -51.75 5.6 -51.4 5.85 -50.7 6.25 -49.5 6.25 -48.75 6.25 -47.25 6.25 -45.75 5.95 -45.45 4.85 -44.65 4.5 -44.4 4.0 -44.3 3.0 -44.25 2.0 -44.75 0.25 -45.5 -0.1 -45.9 -0.25 -46.25 -0.4 -46.65 -0.75 -47.0 -1.15 -47.4 -1.25 -47.75 -1.45 -48.1 -1.75 -48.5 -1.75 -48.9 -1.75 -49.25 -1.75 -49.65 -1.75 -50.4 -1.5 -50.75 -1.15 -51.15 -0.4 -51.9 0.5 -52.1 Q2.0 -52.25 3.0 -52.75 L4.0 -52.75 4.6 -52.45 M2.6 -50.0 L2.0 -49.75 1.2 -49.4 1.0 -49.15 1.25 -48.75 1.75 -48.05 2.5 -47.25 3.0 -47.2 3.6 -47.25 3.7 -47.65 3.75 -48.0 3.75 -48.75 3.6 -49.1 3.2 -49.85 2.85 -50.05 2.6 -50.0 M16.1 -45.1 L16.5 -44.75 16.8 -43.25 16.6 -41.0 16.35 -40.65 15.95 -40.25 15.5 -39.9 Q13.85 -39.85 12.25 -40.6 L11.85 -40.9 11.5 -41.25 11.3 -41.65 11.25 -42.0 11.25 -42.75 11.25 -43.9 11.35 -44.65 Q12.9 -45.7 15.0 -45.7 L15.0 -45.75 15.6 -45.45 16.1 -45.1 M55.5 -43.75 L56.1 -43.5 56.65 -42.7 57.25 -41.65 57.25 -40.9 57.25 -39.75 57.25 -39.4 57.1 -39.0 56.9 -38.6 56.75 -38.25 56.75 -37.9 56.75 -37.15 56.75 -36.4 55.65 -33.4 Q55.2 -31.85 54.0 -30.75 L53.75 -30.35 53.6 -30.0 53.35 -29.65 52.95 -29.4 52.35 -29.15 52.0 -28.75 51.7 -28.55 51.5 -28.4 47.0 -28.25 46.25 -28.55 45.85 -28.9 45.5 -29.25 45.3 -29.65 45.25 -30.0 45.25 -30.75 45.25 -31.9 45.25 -32.65 45.3 -33.0 45.7 -33.75 45.85 -34.15 46.25 -34.5 47.0 -35.25 47.25 -35.5 51.7 -37.05 52.6 -37.4 53.1 -38.2 53.75 -39.25 53.75 -39.65 53.8 -39.95 54.1 -40.4 54.0 -40.7 53.3 -41.6 53.25 -41.9 53.25 -42.25 53.4 -42.6 53.75 -43.0 55.0 -43.6 55.5 -43.75 M47.75 -31.15 L50.25 -31.0 51.05 -31.45 51.5 -31.75 52.05 -32.55 52.55 -33.2 Q53.0 -33.65 53.1 -34.3 L53.0 -34.4 50.95 -33.8 48.75 -33.0 48.4 -32.6 48.2 -32.25 48.0 -31.9 47.8 -31.5 47.75 -31.15 M54.75 -1.5 L55.85 -2.65 57.25 -4.0 57.5 -4.15 58.1 -4.4 58.5 -4.6 59.1 -4.9 59.5 -5.25 59.75 -5.5 60.0 -5.6 61.2 -6.1 63.0 -6.7 63.0 -6.75 65.5 -6.75 66.1 -6.55 67.25 -6.15 67.5 -6.25 69.0 -6.25 69.6 -5.95 69.95 -5.6 70.25 -5.25 70.25 -4.9 70.2 -4.5 69.95 -3.8 69.75 -3.5 69.7 -3.3 69.5 -2.9 69.1 -2.55 68.5 -2.25 67.75 -2.5 67.35 -2.9 67.1 -3.15 67.05 -3.2 66.85 -3.15 66.5 -2.75 66.25 -2.5 66.0 -2.4 64.65 -1.95 63.85 -1.65 63.5 -1.25 63.25 -1.0 63.0 -0.9 62.4 -0.6 62.0 -0.25 61.7 0.5 61.0 2.3 60.75 3.5 60.8 3.85 60.95 4.25 61.1 4.6 61.25 5.0 61.25 5.35 61.25 5.75 61.25 6.5 61.25 6.85 61.2 7.2 61.0 7.6 60.85 7.85 61.25 8.25 61.2 8.6 61.05 8.95 60.6 9.5 60.35 9.85 60.0 10.25 59.75 10.5 59.5 10.6 59.0 10.75 58.1 11.0 57.5 11.25 56.0 11.25 55.25 10.95 54.95 10.8 54.25 10.5 53.9 10.1 53.75 9.75 53.6 9.35 53.25 9.0 52.85 8.6 52.75 8.25 52.7 7.85 52.6 7.5 52.25 6.75 52.25 6.35 52.25 5.6 52.25 4.5 52.25 3.35 52.3 3.05 53.15 1.5 54.2 -0.75 54.35 -1.15 54.75 -1.5 M57.5 -0.75 L57.1 -0.4 56.75 0.0 56.6 0.35 56.25 1.1 55.7 2.2 55.25 3.0 55.25 3.35 55.25 3.75 55.0 4.1 54.8 4.5 54.75 4.85 54.8 5.2 55.05 6.0 55.45 7.1 56.0 8.25 56.5 8.3 57.45 8.2 58.1 8.05 58.25 7.75 58.25 7.35 58.25 7.0 58.3 6.65 58.5 6.25 58.5 5.9 58.3 5.45 58.25 5.1 58.25 4.75 58.25 4.0 58.25 2.85 58.25 2.5 58.3 2.15 58.5 1.75 58.75 1.35 58.75 1.0 58.75 0.6 59.0 0.25 59.25 -0.15 59.25 -0.5 59.25 -0.9 59.25 -1.25 59.4 -1.6 59.75 -2.0 60.1 -2.4 60.5 -2.6 61.1 -2.9 61.45 -3.2 60.35 -2.65 59.35 -2.15 59.0 -1.75 58.75 -1.5 58.5 -1.4 57.85 -1.15 57.5 -0.75 M80.75 -11.15 L80.8 -11.45 81.05 -11.9 81.25 -12.25 81.25 -12.65 81.25 -13.0 81.35 -13.4 81.25 -13.75 81.25 -14.15 81.25 -14.5 81.25 -14.9 81.5 -15.25 82.05 -16.05 82.5 -16.75 82.85 -17.15 83.6 -17.9 84.25 -18.5 84.5 -18.65 86.0 -19.25 87.5 -19.75 89.0 -19.75 89.6 -19.5 90.6 -19.0 91.6 -18.5 92.2 -17.7 93.15 -16.2 93.75 -15.15 93.75 -14.75 93.75 -14.4 93.75 -14.0 93.75 -13.65 93.65 -13.3 93.3 -12.5 93.0 -11.75 92.6 -11.4 92.1 -11.05 91.5 -10.75 89.5 -10.75 Q87.85 -11.0 86.5 -11.75 L84.25 -12.5 84.1 -12.15 83.8 -11.35 83.55 -10.65 83.25 -10.0 83.0 -9.9 82.5 -9.8 82.0 -9.75 81.25 -10.05 80.9 -10.4 80.75 -10.75 80.75 -11.15 M96.5 -69.75 L96.05 -70.1 95.25 -70.5 94.1 -71.65 93.1 -72.65 92.2 -72.95 91.75 -73.0 Q93.1 -71.9 93.8 -70.35 L94.75 -68.15 94.75 -66.65 94.75 -64.75 94.75 -64.0 93.95 -61.75 Q93.6 -60.4 92.85 -59.15 L92.5 -58.75 92.1 -58.4 91.75 -58.0 91.15 -56.5 90.0 -54.75 91.2 -55.1 91.6 -55.4 92.5 -56.4 92.85 -57.65 93.25 -58.0 93.6 -58.4 94.25 -59.85 95.25 -61.75 95.25 -62.9 95.25 -64.4 95.35 -65.15 Q96.7 -66.25 98.6 -66.0 L98.2 -66.75 97.65 -67.85 97.5 -68.25 97.1 -68.65 96.75 -69.0 96.7 -69.35 96.5 -69.75 M101.5 -37.25 Q102.6 -36.85 103.5 -36.0 104.95 -34.6 105.85 -32.9 L106.25 -32.15 106.25 -31.75 106.25 -31.4 106.3 -31.0 106.5 -30.65 106.75 -30.25 106.75 -29.9 106.75 -29.5 106.75 -29.15 106.75 -28.75 106.9 -28.4 107.1 -28.0 107.25 -27.65 107.25 -27.25 107.25 -26.5 107.25 -25.4 107.25 -24.65 107.2 -24.25 107.0 -23.9 106.75 -23.5 106.75 -23.15 106.75 -22.75 106.75 -22.4 106.75 -22.0 106.6 -21.65 106.45 -21.25 106.3 -20.85 106.25 -20.5 106.1 -19.8 105.6 -18.65 104.85 -17.15 104.5 -16.75 104.1 -16.4 103.75 -16.0 103.35 -15.65 102.95 -15.4 102.35 -15.1 102.0 -14.9 101.5 -14.8 99.05 -14.75 98.55 -14.15 97.85 -13.15 97.35 -12.3 97.25 -11.15 97.2 -10.35 97.2 -10.2 97.4 -10.1 98.1 -9.6 98.1 -9.25 98.1 -8.85 98.1 -8.5 98.65 -7.8 99.0 -7.5 99.0 -7.15 99.0 -6.85 99.05 -6.8 Q99.5 -6.1 100.35 -5.9 L101.25 -5.5 101.85 -5.45 102.25 -5.3 Q104.25 -5.65 106.4 -6.75 L106.75 -7.25 107.15 -7.7 107.5 -8.2 107.75 -9.0 Q107.8 -9.7 108.2 -10.3 L108.35 -10.7 108.35 -11.45 108.35 -12.55 108.35 -13.3 108.35 -13.65 108.15 -14.0 107.9 -14.3 107.9 -15.05 107.95 -16.15 108.15 -17.0 108.35 -17.3 108.6 -17.45 109.1 -17.75 Q111.2 -17.95 112.25 -16.15 L113.25 -14.2 113.25 -13.45 113.25 -12.7 113.25 -11.95 113.4 -11.65 113.6 -11.3 113.75 -11.0 113.75 -10.25 113.75 -9.1 113.75 -8.35 113.6 -7.95 113.45 -7.5 113.25 -7.1 113.25 -6.7 113.25 -6.35 113.25 -5.95 113.25 -5.6 112.7 -4.35 112.05 -2.6 109.65 0.25 108.0 1.65 107.65 2.15 107.4 2.5 Q103.55 4.2 100.15 6.4 99.15 7.6 98.85 9.0 L98.2 11.45 98.1 11.55 98.1 12.15 95.65 12.85 95.65 11.85 95.6 11.5 95.4 11.15 95.15 10.8 95.15 10.45 95.15 10.05 94.75 9.45 Q94.5 8.85 93.95 8.55 L93.75 8.25 93.7 7.9 93.7 7.5 Q93.1 6.85 92.35 6.35 L90.85 5.3 90.75 5.0 90.55 4.7 90.25 4.35 90.25 3.95 90.25 3.6 90.25 3.2 90.1 2.9 89.9 2.55 89.75 2.25 89.75 0.0 89.75 -1.9 89.75 -2.65 91.15 -6.1 92.2 -8.55 92.45 -9.0 95.0 -12.4 96.45 -14.3 96.6 -14.7 96.7 -15.1 97.4 -15.85 97.1 -16.15 96.0 -17.25 95.8 -17.65 95.75 -18.0 95.75 -18.4 95.5 -18.75 95.25 -19.15 95.25 -19.5 95.25 -19.9 95.25 -20.25 95.25 -21.0 95.25 -21.75 95.8 -22.45 97.6 -24.4 98.35 -25.15 98.6 -25.5 98.75 -25.85 99.0 -26.25 99.2 -26.65 99.25 -27.0 99.6 -27.4 100.0 -27.75 100.2 -28.15 100.55 -28.9 101.05 -30.05 101.25 -30.4 101.2 -30.75 101.05 -31.1 100.75 -31.5 100.75 -31.9 100.75 -32.25 100.55 -32.6 100.25 -33.0 99.85 -33.4 99.75 -33.75 99.6 -34.15 99.25 -34.5 98.85 -34.9 98.75 -35.25 98.7 -35.6 98.6 -36.0 98.45 -36.15 97.0 -36.75 96.25 -37.0 95.6 -37.0 95.0 -36.75 94.5 -36.8 93.75 -37.05 93.4 -37.4 93.25 -37.75 93.25 -38.15 93.3 -38.45 93.6 -38.9 94.0 -39.1 94.6 -39.4 95.0 -39.6 95.5 -39.75 97.0 -39.75 97.6 -39.5 99.05 -38.9 Q99.6 -38.7 100.0 -38.25 L100.6 -37.95 101.1 -37.6 101.35 -37.4 101.5 -37.25 M103.75 -29.4 Q103.25 -27.35 101.85 -25.6 L99.85 -22.65 98.75 -21.5 98.0 -20.75 Q97.85 -20.2 98.15 -19.6 L98.35 -18.9 Q98.75 -18.2 99.45 -17.7 L99.75 -17.5 Q100.7 -17.25 101.6 -17.9 L102.1 -18.25 103.1 -20.2 103.75 -21.25 103.75 -21.65 103.75 -22.0 103.8 -22.35 104.0 -22.75 104.25 -23.15 104.25 -23.5 104.25 -23.9 104.25 -24.25 104.55 -25.0 104.75 -25.75 104.55 -26.5 104.25 -27.25 104.3 -28.4 103.95 -29.45 103.75 -29.4 M85.6 -15.0 L87.55 -14.4 Q88.55 -13.9 89.6 -13.5 L90.55 -13.65 90.75 -13.9 90.8 -14.25 90.75 -14.65 90.6 -15.0 90.25 -15.75 89.2 -16.45 88.45 -16.8 88.0 -16.9 86.65 -16.4 Q86.05 -16.15 85.5 -15.75 L85.3 -15.4 85.6 -15.0 M96.6 -10.15 L96.6 -10.4 96.3 -9.95 96.1 -9.75 96.35 -9.95 96.6 -10.15 M95.65 -9.15 L94.75 -8.05 94.15 -6.75 93.2 -4.95 93.2 -4.6 93.2 -4.2 92.75 -3.35 92.4 -2.5 92.2 -2.1 92.2 -1.7 92.2 -1.35 92.2 -0.6 92.2 -0.2 92.25 0.15 92.4 0.5 92.55 0.8 92.7 1.15 92.7 1.5 92.7 1.9 92.85 2.25 93.05 2.6 93.45 3.2 94.9 4.25 95.9 5.1 96.1 5.45 96.15 5.8 96.15 6.2 96.45 6.45 96.85 6.75 96.9 7.0 97.1 6.65 97.2 6.25 97.95 5.3 99.05 3.85 Q101.85 1.85 104.95 1.2 105.5 0.7 106.15 0.25 L106.75 -0.25 107.15 -0.7 107.4 -1.0 107.65 -1.2 108.25 -1.65 108.95 -2.6 110.1 -4.05 110.3 -4.5 110.4 -4.85 110.8 -5.75 110.8 -6.15 110.8 -6.5 110.8 -6.9 110.8 -7.25 111.1 -8.15 111.25 -8.85 111.3 -9.3 111.15 -9.6 110.9 -9.9 110.85 -9.85 110.7 -9.45 110.3 -8.65 109.7 -7.35 109.6 -6.9 109.2 -6.45 108.85 -5.95 108.45 -5.5 108.1 -5.1 107.5 -4.65 107.15 -4.35 Q105.35 -3.75 103.7 -2.7 L102.25 -2.3 101.5 -2.35 101.15 -2.65 100.9 -2.8 100.3 -2.8 99.55 -2.8 99.15 -3.05 98.9 -3.25 98.75 -3.3 98.1 -3.4 97.7 -3.65 97.2 -4.3 96.7 -4.95 96.6 -4.95 96.3 -5.25 96.25 -5.3 96.15 -5.45 96.15 -5.55 95.95 -5.85 95.65 -6.15 95.65 -7.3 95.65 -8.8 95.65 -9.15 M195.5 24.35 L195.6 24.75 Q195.55 26.0 194.85 27.1 194.35 27.9 194.1 28.85 L193.95 29.2 193.6 29.6 193.25 30.0 193.25 30.35 193.25 30.75 192.95 31.1 192.45 31.9 191.75 33.0 191.75 33.35 191.75 33.75 191.5 34.15 190.35 36.35 Q189.85 37.25 189.5 38.25 L189.1 38.6 188.6 38.95 187.85 39.35 187.5 39.75 186.35 40.85 185.75 41.5 185.5 41.6 184.45 42.1 183.85 42.35 183.5 42.75 183.25 43.0 183.0 43.1 Q179.9 44.65 176.6 45.55 L176.0 45.75 172.1 46.0 171.35 46.4 170.95 46.6 170.35 46.85 169.95 47.25 169.15 48.0 168.5 48.75 168.3 49.15 167.45 51.75 166.75 54.0 166.8 54.35 166.95 54.75 167.1 55.1 167.25 55.5 167.5 55.85 168.0 56.25 168.1 56.6 168.25 57.0 168.5 57.15 171.1 58.0 173.75 58.0 174.5 57.75 Q175.8 57.2 177.25 57.0 L177.6 56.65 178.0 56.35 178.5 56.25 179.25 56.0 179.6 55.65 180.0 55.35 180.6 55.1 180.95 54.75 181.2 54.35 181.25 54.0 181.6 53.6 182.35 52.85 182.75 52.5 183.5 52.25 184.1 52.55 184.45 52.9 184.75 53.25 184.75 53.6 184.7 54.0 184.6 54.35 184.45 54.7 184.1 55.1 183.75 55.5 183.75 55.85 183.75 56.25 183.5 56.6 183.25 57.0 183.25 57.35 183.25 57.75 183.25 58.1 183.25 58.5 183.1 58.85 182.0 61.45 181.0 63.75 180.6 64.1 180.25 64.5 179.85 64.85 179.7 65.2 179.3 66.0 179.0 66.75 178.6 67.1 178.25 67.5 178.1 67.85 178.0 68.25 177.6 68.6 177.25 69.0 176.85 69.35 176.45 69.6 175.85 69.85 175.5 70.25 175.25 70.6 174.85 71.35 174.45 71.6 173.85 71.85 173.5 72.25 172.0 73.25 171.25 73.5 170.85 73.85 170.5 74.1 169.9 74.4 Q166.7 76.3 163.1 77.05 L162.5 77.25 157.0 77.25 156.25 77.0 Q153.5 76.15 150.75 76.25 L150.9 76.6 151.1 77.0 151.25 77.35 151.25 77.75 151.25 78.1 151.3 78.45 151.95 79.6 152.6 81.0 152.75 81.05 Q155.5 80.9 157.25 82.75 L157.25 83.1 157.2 83.5 157.1 83.85 157.0 84.25 156.7 84.45 155.0 85.25 153.5 85.75 145.0 85.75 144.25 85.5 Q142.45 84.85 140.75 83.9 L140.35 83.6 140.0 83.2 139.75 82.85 139.6 82.5 139.45 82.3 Q139.1 82.1 138.75 82.0 L138.35 81.6 138.0 81.25 137.6 80.85 136.75 80.5 136.35 80.1 136.0 79.75 135.6 79.35 135.35 78.95 134.7 77.45 133.75 76.0 133.75 75.6 133.75 75.25 133.55 75.0 Q131.35 74.0 129.35 72.8 L128.75 72.25 128.75 71.85 128.85 71.55 129.5 70.85 130.0 70.8 132.5 70.75 133.1 71.0 134.6 71.5 137.75 71.5 138.5 71.25 Q142.7 70.15 146.25 68.25 L146.4 67.9 148.25 66.0 149.25 65.0 149.5 64.85 154.6 62.6 156.35 61.6 156.0 61.25 154.85 60.1 154.1 59.35 153.8 58.95 153.65 58.65 153.25 57.85 153.25 57.5 153.25 57.1 153.0 56.75 152.55 56.0 152.1 55.35 151.95 55.25 151.25 55.0 150.85 54.6 150.2 53.9 149.75 53.5 149.4 53.1 149.2 52.75 148.75 52.0 148.75 51.6 148.7 50.85 Q148.6 50.2 149.0 49.75 L149.25 49.55 150.0 49.25 151.25 49.0 151.6 48.65 152.0 48.4 152.6 48.1 153.0 47.75 154.85 45.85 155.6 45.1 156.0 44.9 156.6 44.6 157.0 44.25 157.75 43.5 158.5 42.75 158.7 42.35 158.75 42.0 159.1 41.6 162.1 38.6 163.6 37.1 164.0 36.9 164.6 36.6 164.75 36.5 157.75 35.5 154.6 35.5 153.85 35.9 148.9 38.4 147.5 39.1 147.0 39.15 146.25 38.95 145.85 38.6 145.55 38.2 145.1 37.5 144.75 36.75 144.75 36.35 144.75 36.0 144.7 35.65 144.5 35.25 144.25 34.85 144.25 34.5 144.2 31.85 144.25 29.25 144.4 28.9 144.55 28.45 144.75 27.75 144.85 27.5 144.85 27.45 143.4 27.9 142.75 28.25 142.5 28.6 142.2 28.95 141.5 29.6 141.05 29.65 141.0 29.75 140.7 29.95 140.5 30.1 140.0 30.25 139.25 29.95 138.85 29.6 138.7 28.9 138.4 28.1 138.25 27.75 138.25 27.0 138.25 26.25 138.25 25.5 138.3 25.3 138.25 25.25 138.3 24.9 138.6 24.1 138.85 23.35 139.25 23.0 139.6 22.6 140.0 22.25 140.2 21.85 140.3 21.55 140.6 21.1 141.0 20.9 141.6 20.6 142.0 20.25 142.25 20.0 142.5 19.85 143.5 19.4 144.1 19.1 144.5 18.75 144.75 18.5 145.0 18.4 Q148.15 17.1 151.45 16.3 L151.5 16.25 157.0 16.25 157.6 16.55 158.0 16.85 158.15 17.25 Q158.3 17.9 158.0 18.45 L157.25 19.5 157.25 19.85 157.25 20.25 157.0 20.65 156.4 22.15 155.75 23.6 155.75 24.0 155.75 24.35 155.75 25.1 155.75 25.35 155.95 25.3 Q159.5 23.6 163.5 23.25 L165.0 23.25 Q167.9 23.45 170.5 24.75 173.65 26.25 177.1 27.0 L185.75 27.0 186.5 26.8 190.25 26.0 190.6 25.65 191.0 25.35 191.5 25.25 192.25 25.0 192.6 24.6 193.0 24.25 193.5 23.85 194.0 23.8 195.05 24.1 195.5 24.35 M172.8 28.35 Q169.15 26.25 164.75 26.0 L163.6 26.0 163.0 26.15 Q159.95 26.35 157.35 27.85 L157.0 28.25 156.7 28.45 156.5 28.6 156.0 28.7 155.0 28.75 154.25 28.5 153.9 28.1 153.7 27.75 153.25 27.0 153.25 26.6 153.25 24.75 153.25 22.5 153.3 22.15 153.5 21.75 153.75 21.35 153.75 21.0 153.75 20.6 154.0 20.25 154.2 19.85 154.6 19.1 154.65 19.0 151.6 19.0 151.0 19.2 145.85 20.85 145.5 21.25 145.25 21.5 145.0 21.6 144.0 22.1 143.35 22.35 143.0 22.75 142.6 23.1 142.25 23.5 142.2 23.7 142.25 23.75 Q142.3 24.4 141.85 24.85 141.4 25.3 141.1 25.85 143.65 24.65 146.5 24.25 L147.5 24.25 148.1 24.55 148.45 24.9 148.75 25.25 148.7 25.6 Q148.6 26.85 147.95 27.9 L146.75 30.1 146.75 30.5 146.75 31.6 146.75 33.1 146.75 33.5 146.8 33.85 147.05 34.65 147.35 35.6 147.45 35.65 152.6 33.55 154.0 32.85 154.5 32.8 158.5 32.75 159.1 32.95 162.1 33.5 166.5 33.75 167.1 34.05 169.05 35.15 169.75 35.75 169.7 36.1 169.6 36.5 169.35 36.85 169.0 37.25 168.75 37.5 168.5 37.6 168.0 37.75 167.25 38.0 166.85 38.35 Q166.65 38.5 166.5 38.6 L165.85 38.85 165.5 39.25 162.5 42.25 161.35 43.35 161.2 43.75 161.0 44.1 160.6 44.5 160.1 44.85 159.95 45.2 159.6 45.6 159.1 46.0 158.6 46.35 158.45 46.7 158.25 47.0 158.0 47.1 157.35 47.35 157.0 47.75 155.85 48.85 155.25 49.5 155.0 49.6 154.35 49.85 154.0 50.25 152.85 51.35 152.1 51.85 152.5 52.25 152.85 52.6 153.5 53.25 154.1 53.5 154.45 53.9 154.9 54.6 155.5 55.35 155.7 55.75 155.75 56.1 155.75 56.5 156.0 56.85 156.2 57.25 156.35 57.6 156.75 58.0 158.15 59.45 159.0 60.25 159.1 60.6 159.25 61.0 159.95 61.3 160.95 61.9 161.25 62.25 161.2 62.6 161.1 63.0 160.85 63.35 160.45 63.55 Q156.85 64.5 153.35 65.85 L153.0 66.25 152.75 66.5 152.5 66.6 151.5 67.1 150.85 67.35 150.5 67.75 149.0 69.25 148.25 70.0 148.1 70.35 148.0 70.75 Q147.3 71.25 146.45 71.6 141.45 73.5 136.25 74.5 L136.45 74.85 136.9 75.6 Q137.3 76.1 137.25 76.75 L137.4 77.05 138.1 77.85 138.85 78.6 139.55 79.05 141.6 80.85 142.35 81.6 143.1 82.0 143.6 82.35 143.9 82.55 145.6 83.0 150.55 82.8 150.35 82.6 150.0 82.2 149.8 81.85 149.75 81.1 149.45 80.75 149.1 80.35 148.75 80.0 148.75 79.6 148.75 79.25 148.75 78.85 148.6 78.5 148.4 78.1 148.0 77.35 147.75 77.5 147.5 77.6 147.0 77.75 146.5 77.65 145.45 77.05 145.25 76.75 145.3 76.4 145.6 75.6 145.85 74.85 146.25 74.6 Q148.55 73.65 151.0 73.25 L152.0 73.25 152.6 73.4 Q155.2 73.65 157.6 74.5 L161.75 74.5 162.5 74.25 Q165.65 73.45 168.6 72.1 L169.0 71.75 169.35 71.35 169.75 71.0 170.5 70.75 171.25 70.5 171.6 70.15 172.0 69.85 172.6 69.6 172.95 69.2 173.2 68.85 173.25 68.5 173.6 68.15 174.0 67.9 174.6 67.6 175.0 67.25 175.75 66.5 176.5 65.75 176.7 65.35 Q177.5 63.45 178.65 61.6 L180.1 59.0 180.1 58.8 Q177.45 59.85 174.6 60.55 L174.0 60.75 171.0 60.75 170.2 60.55 Q168.65 60.25 167.25 59.5 L166.85 59.1 166.5 58.75 166.1 58.35 165.25 57.95 164.85 57.6 164.75 57.25 164.75 56.85 164.75 56.5 164.7 56.15 164.5 55.75 164.25 55.35 164.25 55.0 164.25 53.85 164.25 52.35 164.3 52.05 164.55 51.6 164.75 51.25 164.75 50.85 164.75 50.5 165.05 50.1 165.25 49.75 165.25 49.35 165.25 49.0 165.55 48.6 165.9 47.9 166.5 46.75 166.85 46.35 168.0 45.25 168.75 44.5 169.6 44.1 170.6 43.6 171.0 43.35 Q174.2 43.55 177.2 42.4 179.95 41.4 182.6 40.1 L183.0 39.75 183.25 39.5 183.5 39.35 184.55 38.65 185.25 38.0 186.05 37.55 186.5 37.25 186.8 36.85 188.2 34.6 189.25 32.75 189.25 32.35 189.25 32.0 189.55 31.6 189.75 31.25 189.85 30.85 190.25 30.5 190.6 30.1 190.7 29.75 190.75 29.35 190.8 29.0 191.0 28.75 190.5 28.8 Q188.45 29.1 186.5 29.75 L177.0 29.75 Q174.75 29.45 172.8 28.35 M131.0 23.95 L131.45 23.8 131.5 23.75 132.1 24.0 132.5 24.25 133.0 24.25 134.0 24.25 134.6 24.55 135.0 24.85 135.2 25.25 135.25 25.6 135.25 26.0 135.5 26.35 135.75 26.75 135.7 28.25 135.75 30.5 135.75 31.6 135.2 32.7 134.8 33.5 134.5 34.25 133.75 35.0 133.35 35.35 133.0 35.75 132.75 36.0 132.5 36.1 131.85 36.4 131.5 36.6 129.0 36.75 127.95 36.25 127.25 36.0 126.8 35.2 126.5 34.5 126.25 33.75 126.25 33.35 126.25 32.6 126.25 32.25 126.25 31.85 126.65 30.35 127.45 28.45 127.75 27.75 127.8 27.4 128.15 26.65 128.5 26.25 128.7 25.85 128.75 25.5 129.1 25.1 129.5 24.75 129.75 24.5 130.6 24.1 131.0 23.95 M132.7 26.9 L132.45 26.7 132.0 26.6 131.35 26.85 131.0 27.25 130.6 27.6 130.3 28.05 130.25 28.35 130.25 28.75 129.4 30.65 Q128.85 31.9 128.75 33.25 L129.35 33.75 130.75 34.0 131.6 33.6 Q132.25 33.2 132.5 32.6 L133.1 31.0 133.25 30.6 133.25 29.5 133.15 28.0 133.0 27.25 132.7 26.9 M101.95 14.3 L102.0 14.25 102.55 14.55 103.25 15.25 103.25 15.6 103.25 16.0 103.25 16.35 103.45 16.75 103.6 17.1 103.75 17.5 103.75 18.6 103.75 20.1 103.75 20.5 103.6 20.85 103.45 21.25 103.25 21.6 103.25 22.75 103.25 24.25 103.25 24.6 Q102.3 27.1 100.95 29.4 L98.85 32.85 98.05 33.55 96.85 34.35 96.5 34.75 96.25 35.0 96.0 35.1 95.35 35.35 93.6 36.75 96.0 36.25 98.0 35.75 99.0 35.75 99.6 36.05 99.95 36.4 100.25 36.75 100.2 37.1 100.1 37.5 99.85 37.85 99.5 38.25 98.75 39.0 98.35 39.35 98.2 39.7 97.8 40.5 97.5 41.25 97.1 41.6 96.75 42.0 96.6 42.35 96.5 42.75 96.1 43.1 95.75 43.5 95.75 43.85 95.75 44.25 95.75 44.6 95.2 45.7 94.3 47.65 94.25 48.0 94.25 48.35 94.15 48.7 93.75 49.5 93.7 51.0 93.75 53.25 93.75 54.35 93.7 54.7 93.5 55.1 93.25 55.5 93.25 56.6 93.25 58.5 93.25 59.6 93.1 60.0 92.7 60.75 92.25 61.5 92.25 61.85 92.25 62.25 92.25 62.6 92.1 63.0 91.9 63.4 91.7 64.1 91.6 64.5 91.35 64.85 91.0 65.25 90.75 66.0 90.25 67.15 89.85 67.85 89.5 68.25 89.1 68.6 88.75 69.0 88.6 69.35 88.5 69.75 86.2 72.1 84.0 74.25 83.75 74.65 83.6 75.0 83.35 75.35 82.05 76.45 Q81.05 77.05 80.0 77.6 L79.5 77.65 78.75 77.45 78.35 77.1 78.25 76.75 78.25 76.35 78.25 76.0 78.25 75.6 78.8 75.1 Q79.65 74.55 80.55 74.05 L81.0 73.75 81.2 73.35 81.25 73.0 81.25 72.6 81.5 72.25 82.25 71.5 83.0 70.75 83.2 70.35 83.3 70.0 83.75 69.25 83.75 68.85 83.75 68.5 84.05 68.1 84.4 67.4 84.75 66.6 84.75 66.25 84.75 65.85 84.75 65.1 84.75 64.75 84.9 64.4 85.1 64.0 85.25 63.6 85.25 61.35 85.25 58.75 85.25 57.25 85.05 56.9 84.75 56.5 84.75 56.1 84.75 55.75 84.75 55.35 84.6 55.0 84.4 54.6 84.25 54.25 84.25 53.5 84.25 52.0 84.25 50.85 84.3 50.55 84.55 50.1 84.75 49.75 84.75 49.35 84.75 49.0 84.75 48.25 84.75 47.85 84.8 47.55 85.05 47.1 85.25 46.75 85.25 46.35 85.25 46.0 85.3 45.65 85.5 45.25 85.75 44.85 85.75 44.5 85.75 44.1 85.75 43.75 85.9 43.4 86.1 43.0 86.2 42.6 86.25 42.25 Q86.65 41.35 87.45 40.7 L89.25 39.0 89.5 38.85 90.1 38.6 90.5 38.25 90.55 38.2 88.6 38.6 88.0 38.75 85.0 38.75 82.25 38.0 81.85 37.6 81.6 37.35 81.0 37.2 80.25 37.0 79.85 36.6 79.6 36.35 79.45 36.25 78.75 36.0 77.25 34.5 76.1 33.35 75.25 33.0 74.9 32.6 74.55 31.9 74.25 31.5 74.25 31.1 74.25 30.75 74.05 30.4 73.75 30.0 73.75 29.25 73.75 28.1 73.75 27.75 73.55 27.4 73.25 27.0 73.25 26.6 73.25 26.25 73.25 25.5 73.65 25.15 73.85 25.0 73.75 24.85 73.75 24.5 73.75 24.1 73.75 23.75 73.85 23.35 74.25 23.05 75.0 22.75 75.45 22.8 76.1 23.0 76.65 23.8 77.25 24.85 77.5 25.25 79.0 26.75 80.35 28.1 80.5 28.2 81.1 28.55 81.85 29.1 82.5 29.25 83.1 29.5 87.25 29.5 91.25 28.5 92.35 27.4 93.5 26.25 94.2 24.7 94.3 24.5 94.8 24.5 94.85 24.35 95.25 24.0 95.6 23.6 95.75 23.25 95.85 22.85 96.25 22.5 96.6 22.1 97.25 20.65 98.25 18.75 98.35 18.05 Q98.7 17.35 99.4 17.3 L99.6 17.1 100.0 16.75 Q100.1 16.35 100.35 16.05 L100.85 14.85 101.25 14.6 101.95 14.3 M83.5 4.85 L83.7 5.25 83.75 5.6 83.7 6.0 83.6 6.35 83.45 6.7 83.2 6.95 83.0 7.1 82.5 7.15 81.75 7.0 80.6 7.0 80.0 7.2 79.15 7.55 78.35 7.85 77.35 8.35 77.0 8.75 76.6 9.1 76.25 9.5 75.85 9.85 75.75 10.25 75.7 10.6 75.6 11.0 75.35 11.35 75.0 11.75 74.6 12.05 73.5 12.75 71.5 12.75 70.75 12.5 70.35 12.1 70.0 11.75 69.6 11.35 69.25 11.0 69.25 10.6 69.25 10.25 69.25 9.85 69.25 8.75 69.25 6.85 69.3 6.55 69.6 6.1 70.0 5.75 70.2 5.35 70.25 5.0 70.6 4.6 71.0 4.25 71.35 3.85 72.1 3.1 72.75 2.5 73.0 2.4 73.6 2.1 74.0 1.95 74.45 1.8 74.5 1.75 78.5 1.75 79.1 1.9 82.5 2.65 Q83.35 2.95 83.75 3.75 L83.7 4.1 83.6 4.5 83.5 4.85 M100.35 20.35 L100.35 20.4 100.25 20.5 100.25 20.85 100.25 21.25 98.5 24.25 96.85 26.85 96.45 27.1 96.25 27.2 95.85 27.85 94.0 29.75 92.85 30.85 Q90.55 31.85 88.0 32.25 L82.5 32.25 80.75 31.45 79.75 31.0 79.0 30.25 78.25 29.5 Q78.1 29.35 77.95 29.3 77.6 29.1 77.25 29.0 L76.25 27.95 76.25 28.0 76.6 29.55 Q76.9 30.55 77.6 31.35 L77.9 31.6 78.6 32.0 79.1 32.35 79.45 32.75 79.6 33.1 80.1 33.5 80.85 34.1 81.0 34.25 83.65 35.45 85.1 36.0 87.25 36.0 Q89.8 35.5 92.25 34.5 L92.6 34.1 93.0 33.75 93.25 33.5 93.5 33.35 94.1 33.1 94.5 32.75 94.75 32.5 95.0 32.35 95.6 32.1 96.35 31.35 97.1 30.6 97.25 30.25 97.35 29.85 97.75 29.5 98.1 29.1 98.25 28.75 98.35 28.35 98.75 28.0 99.1 27.6 99.2 27.25 99.25 26.85 99.25 26.5 100.0 24.95 100.75 23.1 100.75 22.0 100.7 20.5 100.6 20.1 100.35 20.35 M90.1 42.1 L89.0 43.25 88.8 43.65 88.55 44.35 88.25 45.5 88.25 45.85 88.2 46.2 88.0 46.6 87.75 47.0 87.75 47.35 87.75 47.75 87.75 48.1 87.6 48.5 87.4 48.9 87.25 49.25 87.25 49.6 87.25 50.0 87.25 50.75 87.25 51.1 87.1 51.5 86.9 51.9 86.75 52.25 86.75 52.6 86.75 53.0 86.95 53.75 87.45 55.25 87.75 56.0 87.75 59.35 87.75 63.85 87.75 65.0 87.6 65.35 87.45 65.75 87.3 66.15 87.25 66.35 Q87.85 66.15 88.05 65.6 L88.8 63.65 89.25 62.85 89.25 62.5 89.25 62.1 89.5 61.75 89.75 61.35 89.75 61.0 89.75 60.6 90.0 60.25 90.25 59.85 90.25 59.5 90.25 59.1 90.5 58.75 90.75 58.35 90.75 57.25 90.75 55.35 90.75 54.25 90.9 53.9 91.1 53.5 91.25 53.1 91.25 51.25 91.25 49.35 91.25 48.25 92.0 45.95 Q92.3 45.0 92.75 44.15 L93.25 43.35 93.25 43.0 93.25 42.6 94.1 41.45 94.85 40.05 95.1 39.6 95.15 39.5 94.35 39.4 94.1 39.5 93.5 39.75 92.75 40.0 92.35 40.35 92.0 40.75 91.75 41.0 91.5 41.1 90.85 41.35 90.1 42.1 M77.0 5.4 L77.5 5.25 78.25 5.0 Q78.05 3.95 75.35 4.4 L75.1 4.5 74.35 4.9 73.75 5.25 73.5 5.6 73.2 5.95 72.5 6.75 72.25 7.15 72.1 7.5 71.75 8.25 71.75 8.6 71.75 9.0 71.75 9.35 72.0 9.7 72.35 9.9 72.85 9.85 73.1 9.5 73.45 8.75 73.75 8.0 74.1 7.6 74.85 6.85 75.25 6.5 76.1 6.1 76.5 5.75 76.75 5.5 77.0 5.4 M62.5 10.25 L66.0 10.25 66.6 10.45 Q68.3 10.8 69.45 12.05 70.05 12.75 70.35 13.6 L70.75 14.0 71.1 14.35 71.5 14.75 71.6 15.1 71.7 15.5 71.8 15.85 72.1 16.6 72.25 17.0 72.25 17.35 72.25 18.5 72.25 20.35 72.25 21.5 72.1 21.85 71.75 22.6 71.35 23.35 71.0 24.1 70.6 24.45 70.1 24.85 69.95 25.2 69.6 25.6 69.25 26.0 69.1 26.35 69.0 26.75 68.6 27.1 67.85 27.85 67.2 28.45 67.0 28.6 66.5 28.7 66.0 28.7 65.25 28.5 64.9 28.1 64.75 27.75 64.6 27.35 64.3 26.6 64.25 26.25 64.4 25.9 64.75 25.5 65.25 25.1 65.25 24.75 65.35 24.35 65.75 24.0 66.1 23.6 66.25 23.25 66.4 22.9 66.55 22.45 66.7 21.75 66.75 21.35 66.6 21.0 66.35 20.65 66.0 20.25 65.6 20.0 61.5 18.75 60.75 18.5 60.35 18.1 59.6 17.35 58.85 16.6 58.75 16.25 58.75 15.85 58.75 15.5 58.75 14.75 58.75 14.0 58.8 13.65 59.0 13.25 59.2 12.85 59.25 12.5 59.6 12.1 60.0 11.75 60.35 11.35 60.75 11.0 61.6 10.6 62.0 10.45 62.45 10.3 62.5 10.25 M68.1 14.85 L67.0 13.9 65.75 13.0 62.75 13.0 62.35 13.35 62.0 13.75 61.75 14.1 61.45 14.9 61.5 15.25 Q64.6 16.65 67.9 18.4 69.0 19.0 69.25 20.1 L69.25 20.5 69.3 20.85 69.35 20.85 69.6 20.5 69.7 19.75 69.75 18.6 69.75 18.25 69.55 17.9 69.25 17.5 69.25 17.1 69.25 16.75 69.05 16.4 68.75 16.0 68.35 15.6 68.25 15.25 68.1 14.85 M22.9 24.6 L23.1 25.0 23.25 25.35 23.25 26.1 23.25 27.25 23.2 28.75 23.1 29.5 22.85 29.85 22.5 30.25 21.55 30.95 21.0 31.25 19.5 31.25 18.75 30.95 18.45 30.8 17.75 30.5 17.35 30.1 17.0 29.75 16.25 29.0 15.85 28.6 15.75 28.25 15.75 27.85 15.75 27.5 15.7 27.15 15.5 26.75 15.25 26.35 15.25 26.0 15.25 25.6 15.0 25.25 14.75 24.85 14.75 24.5 14.75 24.1 14.75 23.35 14.75 22.6 14.75 21.5 14.7 21.15 14.5 20.75 14.1 20.0 13.75 19.25 13.75 18.85 13.75 18.5 13.7 18.15 13.5 17.75 13.25 17.35 13.25 17.0 13.2 16.6 13.1 16.35 10.95 15.35 6.35 13.1 6.0 12.75 5.8 12.35 5.8 11.65 6.0 11.25 6.25 11.0 6.5 10.9 6.95 10.8 7.0 10.75 7.6 10.95 8.95 11.3 9.6 11.5 10.25 11.5 11.0 11.25 11.6 11.55 12.1 11.9 12.35 12.1 12.5 12.25 Q13.4 12.5 14.05 13.2 L15.85 15.1 16.5 15.75 17.55 16.45 18.75 17.5 19.85 18.6 20.75 20.2 22.25 22.35 22.75 23.5 22.75 23.85 22.75 24.25 22.9 24.6 M18.0 20.75 Q17.3 20.3 17.2 19.6 17.15 19.2 16.75 19.3 L16.75 19.35 16.95 19.75 17.1 20.1 17.25 20.5 17.25 21.6 17.25 23.1 17.3 23.45 17.5 23.85 17.75 24.25 17.75 24.6 17.75 25.0 18.0 25.35 18.2 25.75 18.25 26.1 18.3 26.85 18.6 27.6 18.8 27.9 19.5 28.25 20.0 28.3 20.6 28.25 20.7 27.5 20.75 26.75 20.75 26.35 19.65 23.75 19.0 22.25 18.6 21.85 18.25 21.5 18.2 21.15 18.0 20.75 M2.5 43.25 L3.1 43.55 3.6 43.85 4.05 44.65 4.75 45.75 4.75 46.1 4.75 46.5 4.75 46.85 4.7 47.2 4.5 47.6 4.25 48.0 4.25 48.35 4.25 48.75 3.05 50.3 Q2.4 50.95 1.5 51.25 L-0.5 51.25 -1.25 50.95 -1.65 50.6 -2.15 49.8 Q-2.45 49.15 -3.0 48.7 L-3.25 48.35 -3.25 48.0 -3.25 47.6 -3.25 46.85 -3.25 46.5 Q-3.25 45.85 -2.9 45.3 L-2.3 44.2 -2.15 43.85 -1.75 43.5 -1.4 43.1 -0.4 42.6 0.5 42.25 0.95 42.3 1.6 42.5 2.0 42.85 2.25 43.1 2.5 43.25 M0.25 45.5 L-0.3 46.2 -0.75 47.35 -0.5 47.7 0.25 48.5 0.7 48.45 1.6 48.1 1.8 47.4 2.1 46.6 Q1.85 45.65 0.75 45.5 L0.25 45.5 M8.25 47.5 L8.3 47.15 8.45 46.7 8.75 46.0 9.45 45.2 Q9.85 44.75 10.5 44.8 L10.5 44.75 10.95 44.8 Q11.3 44.85 11.6 45.05 L12.0 45.35 12.2 45.75 12.25 46.1 12.25 46.85 12.25 47.25 13.35 49.4 14.6 52.1 Q16.35 53.05 17.75 54.45 L18.85 55.6 19.25 56.35 19.6 57.1 19.75 57.5 19.75 57.85 19.75 58.25 19.7 59.0 19.6 59.35 19.15 59.9 18.35 60.4 18.0 60.6 16.0 60.75 13.75 59.95 12.75 59.5 10.85 57.6 9.35 56.1 9.25 55.75 9.05 55.4 8.75 55.0 8.75 54.6 8.75 54.25 8.75 53.85 8.6 53.5 8.4 53.1 8.25 52.75 8.2 50.5 8.25 47.85 8.25 47.5 M29.1 40.05 L29.6 40.4 30.0 40.75 30.1 41.1 30.2 41.5 30.25 41.85 30.25 42.25 30.4 42.6 30.75 43.0 31.5 43.75 31.6 44.1 31.75 44.5 32.0 44.85 32.25 45.25 32.25 45.6 32.25 46.0 32.5 46.35 32.75 46.75 32.75 47.1 32.75 47.5 33.0 47.85 33.25 48.25 33.25 51.25 33.25 55.35 33.25 56.5 33.1 56.85 32.95 57.25 32.6 58.0 32.35 58.35 31.95 58.6 31.35 58.85 31.0 59.25 30.7 59.45 30.5 59.6 26.0 59.75 25.25 59.5 24.85 59.1 24.1 58.35 23.35 57.6 23.25 57.25 23.25 56.85 23.25 56.5 23.3 56.15 23.5 55.75 23.7 55.35 23.75 55.0 24.5 54.25 26.0 52.75 26.35 52.35 26.55 51.95 26.8 51.25 Q26.95 50.65 27.25 50.1 L27.25 49.75 27.25 49.35 27.3 49.05 27.55 48.6 27.75 48.25 27.75 47.5 27.75 45.6 27.75 43.75 27.55 43.4 26.45 42.3 Q25.8 41.8 25.75 41.1 L25.75 40.75 25.9 40.4 26.25 40.0 26.95 39.8 27.0 39.75 28.5 39.75 29.1 40.05 M30.25 49.1 L30.0 50.25 29.75 51.0 Q29.9 51.65 29.5 52.15 29.1 52.6 29.0 53.25 L28.6 53.6 28.25 54.0 28.1 54.35 28.0 54.75 26.9 55.9 26.35 56.6 29.25 57.0 30.1 56.2 30.35 55.85 Q31.0 54.1 30.95 52.1 30.95 50.5 30.3 49.15 L30.25 49.1 M10.75 50.6 L10.75 51.0 10.75 51.35 10.75 51.75 10.9 52.1 11.1 52.5 11.25 52.85 11.25 53.25 11.25 53.6 11.65 54.35 12.0 54.75 12.3 55.45 12.6 55.85 Q13.0 56.35 13.55 56.6 14.1 56.8 14.5 57.25 L16.15 57.9 16.6 58.0 Q16.35 56.75 15.05 55.8 14.4 55.35 13.75 55.0 L13.0 54.25 12.6 53.85 12.2 53.1 12.0 52.75 11.6 52.35 11.25 52.0 11.15 51.25 10.85 50.6 10.75 50.55 10.75 50.6 M9.45 64.4 L9.85 65.1 10.25 65.85 10.25 66.25 10.25 66.6 10.25 67.35 10.25 67.75 9.35 68.85 7.25 71.0 7.0 71.1 6.35 71.35 6.0 71.75 5.75 72.0 5.5 72.1 4.25 72.5 3.5 72.75 0.0 72.75 -0.75 72.4 -1.15 72.1 -1.5 71.7 -1.7 71.35 -1.75 71.0 -1.75 70.6 -1.75 70.25 -1.75 69.85 -1.75 69.5 -1.7 69.15 -1.55 68.7 -1.25 68.0 -0.9 67.6 -0.5 67.25 -0.25 67.0 0.0 66.85 0.6 66.6 1.0 66.25 1.25 66.0 Q2.9 65.05 4.75 64.55 L7.5 63.75 8.5 63.75 9.1 64.0 9.45 64.4 M6.0 67.15 L5.5 67.1 4.15 67.6 2.35 68.35 2.0 68.75 1.6 69.1 1.25 69.5 0.85 69.85 3.75 70.0 4.6 69.6 5.0 69.25 5.25 69.0 5.5 68.85 6.1 68.6 6.5 68.25 6.85 67.85 7.1 67.5 7.25 67.25 7.0 67.25 6.5 67.2 6.0 67.15 M59.75 76.75 L60.25 76.0 61.0 75.25 61.25 75.0 62.0 74.85 63.55 74.45 Q63.75 74.3 64.0 74.25 L65.05 74.9 66.1 76.0 66.2 76.35 66.25 76.75 66.25 77.5 66.25 77.85 66.2 78.2 66.0 78.6 65.75 79.0 65.75 79.35 65.7 79.7 65.5 80.1 65.1 80.45 64.35 80.9 64.0 81.1 63.5 81.2 62.5 81.25 61.5 80.75 60.35 80.1 60.0 79.7 59.8 79.35 59.75 79.0 59.75 78.25 59.75 77.5 59.75 76.75 M-37.35 -116.35 L-37.0 -116.55 -36.5 -116.7 -36.5 -116.75 Q-34.6 -116.4 -33.45 -114.65 -32.55 -113.25 -32.25 -111.65 L-32.55 -110.9 -32.85 -110.1 -33.0 -109.75 -33.25 -109.5 -33.5 -109.4 -34.1 -109.1 -34.5 -108.9 -37.5 -108.75 -38.5 -109.25 -39.65 -109.9 -40.0 -110.25 -40.2 -110.65 -40.25 -111.0 -40.25 -112.15 -40.25 -113.25 -40.25 -114.4 -40.0 -114.75 -39.65 -115.15 -39.25 -115.5 -38.5 -115.75 -37.75 -116.0 -37.35 -116.35 M-36.5 -113.4 L-37.0 -113.25 Q-37.4 -113.15 -37.65 -112.9 L-37.75 -112.65 -37.75 -112.25 -37.55 -111.95 -36.9 -111.5 -35.2 -112.05 -35.25 -112.25 -35.45 -112.6 -35.75 -113.0 -36.15 -113.3 -36.5 -113.4 M-7.6 -117.65 L-7.05 -116.1 -6.75 -115.4 -6.8 -115.0 -7.0 -114.25 -7.2 -113.5 -7.25 -113.15 -7.35 -112.8 -7.8 -112.0 -8.15 -111.65 -8.5 -111.4 -9.15 -111.15 -9.5 -110.75 -9.8 -110.5 -10.0 -110.4 -13.0 -110.25 -13.75 -110.55 Q-14.25 -110.75 -14.75 -111.05 L-15.15 -111.4 -15.95 -112.5 -16.5 -114.0 -16.75 -114.75 -16.75 -115.15 -16.75 -115.9 -16.75 -116.65 -16.7 -116.95 -16.45 -117.4 -16.25 -117.75 -16.25 -118.15 -16.25 -118.5 -15.9 -118.9 -15.5 -119.25 -15.25 -119.5 -15.0 -119.65 -14.0 -120.1 -13.5 -120.25 -12.5 -120.2 -11.5 -120.2 -11.0 -120.25 -9.4 -119.9 -8.0 -118.75 -7.6 -117.65 M-9.65 -115.25 L-10.0 -116.45 Q-10.25 -117.05 -10.85 -117.35 L-11.4 -117.5 -12.0 -117.25 -12.5 -117.25 -13.75 -117.25 -13.8 -116.9 -13.9 -116.5 -14.1 -116.1 -14.25 -115.75 -14.1 -115.0 -13.75 -114.25 -13.4 -113.5 Q-12.4 -112.25 -10.8 -113.1 -10.55 -113.2 -10.4 -113.4 L-9.85 -114.15 -9.75 -114.5 -9.65 -115.25 M-69.05 -95.1 L-68.8 -94.75 -68.6 -94.4 -68.25 -93.65 -68.25 -93.25 -68.25 -92.9 -68.25 -92.5 -68.4 -92.15 -68.55 -91.75 -68.75 -91.35 -69.15 -90.65 -69.9 -89.9 -70.4 -89.5 Q-71.15 -89.0 -72.0 -88.75 L-72.5 -88.8 -73.25 -89.05 -73.55 -89.2 -74.65 -89.9 -74.75 -90.25 -74.8 -90.6 -74.9 -91.0 -75.1 -91.4 -75.25 -91.75 -75.25 -92.15 -75.25 -92.5 -75.25 -92.9 -75.25 -93.65 -75.25 -94.4 -75.0 -94.75 -74.65 -95.15 -74.25 -95.5 -73.5 -95.7 -73.5 -95.75 -71.5 -95.75 -70.0 -95.75 -69.4 -95.5 -69.05 -95.1 M-72.75 -92.75 L-72.6 -92.4 -72.4 -92.0 -72.25 -91.75 -71.95 -91.95 -71.25 -92.65 -72.0 -92.75 -72.75 -92.8 -72.75 -92.75 M-38.95 11.5 L-38.75 10.85 -38.7 10.55 -38.35 10.2 -37.55 9.8 -37.5 9.75 -36.0 9.75 -35.4 10.05 -34.9 10.35 Q-34.35 10.8 -34.05 11.4 -33.45 12.5 -33.15 13.7 L-32.75 14.85 -32.75 15.6 -32.7 17.5 Q-32.65 18.45 -32.9 19.35 L-33.05 19.7 -33.9 20.45 -34.5 20.75 -36.5 20.75 -37.25 20.45 -37.55 20.3 Q-37.9 20.1 -38.25 20.0 L-38.65 19.6 -39.4 18.85 -40.15 18.1 -40.2 17.75 -40.3 17.4 -40.6 16.6 -40.75 16.25 -40.75 15.85 -40.75 15.5 -40.75 15.1 -40.75 14.35 -40.7 14.05 -40.4 13.6 -40.25 13.25 -40.25 12.85 -40.2 12.55 -39.9 12.1 -39.5 11.9 -38.95 11.5 M-35.4 15.4 L-35.75 15.0 -35.75 14.6 -35.75 14.25 -36.35 13.15 -36.75 12.7 -36.75 12.75 Q-36.7 13.4 -37.15 13.85 L-38.0 14.6 Q-38.55 15.2 -38.1 15.8 L-37.7 16.5 -37.5 16.85 -36.65 17.65 -36.25 18.0 -35.4 18.0 Q-35.15 17.45 -35.2 16.85 L-35.25 16.1 -35.25 15.75 -35.4 15.4 M-38.8 23.25 L-38.75 23.6 -38.75 24.0 -38.5 24.35 -38.25 24.75 -38.25 25.1 -38.25 25.85 -38.25 27.0 -38.25 27.35 -38.3 27.7 -38.5 28.1 -38.75 28.5 -38.75 28.85 -38.75 29.25 -39.0 29.6 -39.3 29.95 -40.0 30.6 -40.5 30.7 -42.5 30.75 -43.25 30.5 -43.65 30.1 -44.4 29.35 -44.75 29.0 -44.75 28.6 -44.75 27.85 -44.75 26.75 -44.75 26.35 -44.7 26.05 -44.4 25.6 -44.25 25.25 -44.25 24.85 -44.25 24.5 -43.9 24.1 -43.5 23.75 -43.25 23.35 -42.8 22.75 -42.0 22.25 -40.0 22.25 -39.4 22.55 -39.0 22.85 -38.8 23.25 M-61.0 41.25 L-58.5 41.25 -57.95 41.55 Q-57.0 42.15 -56.25 43.0 L-55.65 44.1 -55.25 44.5 -54.9 44.85 -54.75 45.2 -54.25 46.0 -53.75 46.75 -53.75 47.1 -53.75 47.5 -53.5 47.85 -53.25 48.25 -53.25 48.6 -53.25 49.75 -53.3 51.25 -53.4 52.0 -53.65 52.35 -54.0 52.75 -54.3 52.95 -54.5 53.1 -55.0 53.2 -56.5 53.25 -57.25 52.95 -58.55 52.3 Q-58.9 52.1 -59.25 52.0 L-59.65 51.7 -61.65 50.15 -62.4 49.35 -62.7 48.95 -63.1 48.3 -63.65 47.1 -63.75 46.75 -63.75 46.35 -63.75 45.25 -63.75 43.75 -63.75 43.0 -63.4 42.6 -63.0 42.25 -62.75 42.0 -62.5 41.85 -61.9 41.65 -61.05 41.3 -61.0 41.25 M-61.25 46.0 Q-61.05 46.85 -60.45 47.55 L-60.0 48.25 -59.65 48.6 -59.25 49.0 -57.05 50.3 Q-56.1 50.9 -55.75 50.1 -55.6 49.3 -56.0 48.55 L-56.4 47.5 -56.85 46.75 -57.25 46.0 -57.65 45.6 -58.0 45.25 -58.25 44.85 -58.65 44.1 -59.75 43.95 -59.75 44.0 -59.9 44.35 -60.05 44.7 -60.25 45.0 Q-60.75 45.1 -61.05 45.45 L-61.25 46.0 M-41.4 25.6 L-42.2 26.65 Q-42.55 27.3 -42.0 27.85 -41.0 28.0 -40.8 26.6 -40.7 25.8 -41.3 25.55 L-41.4 25.6 M-45.5 48.3 L-45.5 48.25 -45.0 48.3 -44.4 48.5 -43.85 49.3 -43.3 50.4 -43.25 50.75 -43.45 51.45 -43.7 52.25 -43.75 52.6 -43.3 53.3 -42.25 54.5 -42.0 54.75 -38.95 56.15 Q-38.1 56.5 -37.5 57.25 L-36.9 57.5 -36.3 58.25 -35.9 59.0 -35.75 59.35 -35.75 60.1 -35.8 61.25 -35.9 62.0 -36.5 62.75 Q-37.1 63.45 -38.0 63.75 L-40.5 63.75 -41.25 63.5 -41.65 63.1 -41.9 62.85 -43.05 62.35 -44.75 61.5 -45.15 61.1 -45.5 60.75 -45.9 60.35 -46.2 59.95 -46.3 59.65 -46.5 59.25 -46.9 58.85 -47.25 58.5 -47.55 57.75 -48.1 56.6 -48.25 56.25 -48.25 54.75 -48.25 52.85 -48.25 52.5 -48.2 52.15 -48.0 51.75 -47.75 51.35 -47.75 51.0 -47.75 50.6 -47.5 50.25 -47.3 49.85 -47.25 49.5 -46.55 48.7 Q-46.15 48.25 -45.5 48.3 M-45.75 55.1 L-45.15 56.6 -44.5 57.75 -43.4 58.85 -42.65 59.6 -40.5 60.7 -39.9 61.0 -38.75 61.0 -38.45 60.55 -38.5 60.25 -39.25 59.5 -39.9 58.85 -41.75 57.95 -42.75 57.5 -43.15 57.1 -43.4 56.85 -43.55 56.75 -44.25 56.5 -45.35 55.35 -45.75 55.05 -45.75 55.1 M-69.5 61.25 Q-68.3 61.25 -67.45 62.15 L-66.25 63.75 -66.25 64.5 -66.25 65.25 Q-66.2 65.85 -66.4 66.35 L-67.6 67.9 -69.15 69.35 -70.55 70.0 -72.5 70.75 -73.5 70.75 -74.5 70.25 -75.65 69.6 -75.75 69.25 -75.75 68.85 -75.75 68.5 -75.75 67.75 -75.4 67.0 -75.05 66.25 -74.75 65.5 -73.25 64.0 -71.4 62.1 -70.35 61.65 -69.55 61.3 -69.5 61.25 M-71.65 65.85 L-72.0 66.25 -72.25 66.65 -72.4 67.0 -72.6 67.4 -72.75 67.75 -71.25 67.5 -70.0 66.75 -69.05 65.75 Q-68.55 65.0 -69.25 64.5 L-69.55 64.3 -70.0 64.3 -70.15 64.35 -70.9 65.1 -71.65 65.85 M-63.3 67.75 L-63.25 68.1 -63.25 68.5 -63.0 68.85 -62.8 69.25 -62.75 69.6 -62.7 70.0 -62.5 70.75 -62.25 71.5 -62.25 71.85 -62.25 72.25 -62.25 73.0 -61.15 74.1 -60.15 75.1 -60.0 75.2 -58.9 75.9 -58.5 76.25 -57.0 76.75 -56.4 77.0 -56.05 77.4 -55.8 77.75 -55.65 78.1 -55.25 78.5 -54.55 79.3 -54.4 79.6 Q-54.2 80.15 -54.25 80.75 L-54.25 82.25 -54.25 82.6 Q-54.7 83.9 -55.65 84.85 L-57.15 86.35 -57.5 86.6 -58.1 86.9 -58.5 87.1 -61.5 87.25 -64.25 86.0 -65.25 85.5 -65.65 85.1 -66.0 84.75 -66.4 84.35 -67.1 83.3 -67.75 81.75 -67.75 79.5 -67.75 76.85 -67.1 75.35 -66.25 73.85 -66.25 73.5 -66.25 72.75 -66.25 72.0 -66.2 71.65 -66.0 71.25 -65.75 70.85 -65.75 69.75 -65.75 68.25 -65.75 67.5 -65.35 67.15 -65.0 66.9 -64.5 66.75 -63.9 67.05 -63.5 67.35 -63.3 67.75 M-64.75 77.1 L-65.25 78.25 -65.25 79.0 -65.25 79.75 -65.25 80.1 -65.2 80.45 -65.0 80.85 -64.75 81.25 -64.75 81.6 -64.75 82.0 -63.65 83.1 -63.25 83.5 Q-62.2 83.7 -61.4 84.35 L-59.25 84.5 -57.3 82.7 Q-56.75 82.2 -56.75 81.5 -56.75 80.8 -57.3 80.25 L-57.75 79.6 -59.55 78.75 -60.25 78.5 -60.65 78.1 -60.9 77.85 -61.0 77.75 -61.75 77.5 -63.15 75.9 Q-63.6 75.35 -64.0 75.6 L-64.75 77.1 M-49.75 77.0 L-49.35 76.65 -49.0 76.45 -48.55 76.3 -48.5 76.25 Q-47.95 76.55 -47.45 76.95 L-46.65 77.6 -46.25 78.35 -45.95 79.15 -45.75 79.85 -45.85 80.2 -46.2 81.0 -46.5 81.75 -47.05 82.05 -48.65 82.9 -49.0 83.1 -49.5 83.2 -50.5 83.25 -51.25 82.95 -51.65 82.6 -52.0 82.2 -52.2 81.85 -52.25 81.5 -52.25 80.75 -52.25 80.0 -52.25 79.25 -52.1 78.85 -51.75 78.15 -51.25 77.5 -51.0 77.4 -50.5 77.25 -49.75 77.0 M-24.4 60.9 L-24.0 61.25 -23.6 62.3 -23.0 63.85 -22.75 64.25 -22.75 64.6 -22.75 65.0 -22.5 65.35 -22.25 65.75 -22.25 66.1 -22.25 66.5 -22.25 66.85 -22.25 67.25 -22.1 67.6 -21.9 68.0 -21.75 68.35 -21.75 69.1 -21.75 70.6 -21.75 71.35 -21.8 71.7 -22.0 72.1 -22.25 72.5 -22.25 73.25 -22.25 74.75 -22.25 75.5 -23.7 78.85 -25.15 81.85 -25.9 82.6 -27.25 84.0 -28.55 84.45 -30.5 85.25 -35.5 85.25 -36.25 85.0 -37.0 84.25 -38.15 83.1 -38.45 82.4 -39.05 81.25 -39.25 80.85 -39.25 80.1 -39.25 78.6 -39.25 77.85 -39.2 77.55 -38.95 77.1 -38.65 76.35 -38.25 76.0 -37.9 75.6 -37.6 74.9 -37.0 73.75 -36.75 73.5 -36.5 73.4 -36.0 73.35 -35.4 73.5 -35.0 73.85 -34.75 74.1 Q-33.4 74.0 -32.4 74.9 L-32.0 75.25 -31.4 75.5 -29.25 75.5 -28.35 74.0 -27.25 71.75 -27.25 71.35 -27.25 71.0 -27.25 70.25 -27.25 69.85 -27.2 69.55 -26.95 69.1 -26.75 68.75 -26.8 65.0 -26.65 60.85 -26.25 60.6 -25.55 60.3 -25.5 60.25 -24.9 60.55 -24.4 60.9 M-25.0 73.6 L-26.3 76.2 Q-26.95 77.4 -28.0 78.1 L-32.0 78.25 -33.75 77.4 -34.15 77.1 -35.75 77.0 -36.2 78.15 -36.75 79.25 -36.2 80.35 Q-35.9 80.85 -35.75 81.5 L-35.4 81.85 -34.75 82.5 -30.75 82.5 -29.5 81.9 -28.9 81.6 -27.75 80.5 -27.4 80.1 -27.25 79.75 -27.15 79.35 -26.75 79.0 -26.4 78.6 -26.3 78.25 -26.25 77.85 -26.25 77.5 Q-25.4 76.5 -25.0 75.35 -24.6 74.25 -24.95 73.55 L-25.0 73.6" fill="#ffcc00" fill-rule="evenodd" stroke="none"/>
    <path d="M0.25 -104.4 L0.25 -103.65 0.2 -103.25 0.1 -102.5 -0.15 -102.15 -0.55 -101.8 -1.0 -101.5 -1.35 -101.65 -2.4 -102.4 -2.55 -102.75 -2.7 -103.15 -2.75 -103.5 -2.65 -103.8 -1.95 -104.55 -1.25 -105.25 -1.0 -105.3 -0.45 -105.05 0.25 -104.4 M37.85 -99.65 L39.05 -100.45 40.5 -101.9 40.6 -101.95 40.7 -101.85 40.75 -101.15 40.75 -100.4 40.3 -99.25 40.0 -98.55 39.6 -97.4 39.25 -97.0 38.85 -96.65 38.5 -96.25 38.05 -95.55 37.5 -94.75 Q37.3 -94.55 37.1 -94.45 L36.25 -94.0 35.3 -94.2 34.5 -94.75 34.6 -95.5 34.8 -96.25 35.1 -97.0 36.35 -98.15 37.85 -99.65 M75.25 -116.25 L75.3 -116.3 Q75.7 -116.05 75.7 -115.65 L75.75 -114.5 76.05 -114.1 76.25 -113.75 76.25 -113.0 76.25 -112.25 76.4 -111.9 76.6 -111.5 76.75 -111.15 76.75 -109.65 76.75 -108.15 76.95 -107.75 77.25 -107.0 77.25 -105.9 77.25 -104.4 77.1 -104.0 76.9 -103.6 76.75 -103.25 76.75 -101.75 76.75 -100.25 76.6 -99.9 76.25 -99.15 76.25 -98.75 76.25 -98.4 75.45 -96.1 Q74.9 -94.3 74.0 -92.75 L73.6 -92.4 72.85 -91.65 72.75 -91.25 72.6 -90.9 71.7 -90.55 71.25 -90.5 71.5 -91.25 71.75 -92.0 71.75 -92.4 71.75 -92.75 72.05 -93.5 72.25 -94.25 72.05 -95.0 71.75 -95.75 71.75 -96.15 71.75 -96.9 71.75 -97.65 71.4 -98.4 Q71.2 -99.05 70.6 -99.5 L69.95 -99.7 69.5 -99.75 68.75 -99.5 68.35 -99.15 67.6 -98.4 67.0 -98.1 66.75 -98.0 66.5 -97.75 65.75 -97.0 64.25 -96.5 62.6 -96.5 61.35 -96.9 61.1 -97.1 59.5 -98.25 59.9 -98.6 60.85 -99.15 61.3 -99.85 61.85 -100.65 62.5 -100.9 62.75 -101.0 63.0 -101.25 63.35 -101.65 64.0 -101.85 Q67.25 -102.95 69.85 -105.15 L70.5 -105.4 70.75 -105.5 72.5 -107.25 Q74.05 -108.85 74.75 -111.0 L74.75 -112.15 74.75 -113.25 74.9 -113.6 75.1 -114.0 75.25 -114.4 75.25 -114.75 75.25 -115.5 75.25 -116.25 M75.5 -78.4 L75.6 -78.35 75.75 -75.75 75.75 -73.9 75.4 -73.1 75.2 -72.4 74.85 -71.65 74.45 -71.35 74.0 -71.35 73.6 -71.65 73.3 -72.05 73.1 -72.4 72.85 -73.15 73.1 -73.5 73.25 -73.9 73.25 -74.25 73.25 -74.65 73.25 -75.0 73.25 -75.4 73.45 -75.75 73.6 -76.15 73.75 -76.5 74.5 -77.25 75.5 -78.4 M52.25 -74.5 L52.6 -74.9 53.0 -75.25 53.1 -75.3 Q52.55 -74.2 52.65 -72.75 L52.75 -70.15 53.0 -69.75 53.25 -69.4 53.25 -69.0 53.3 -68.65 53.5 -68.25 54.35 -67.2 55.1 -66.0 53.6 -66.0 53.0 -66.3 52.85 -66.4 52.6 -66.65 52.25 -67.0 51.85 -67.4 51.1 -68.85 Q50.75 -69.4 50.75 -70.0 L50.8 -70.35 51.1 -71.15 51.25 -71.5 51.25 -71.9 51.25 -72.25 51.8 -73.35 52.25 -74.5 M66.5 -62.25 L66.95 -62.15 67.35 -61.9 68.05 -61.1 68.25 -60.75 67.7 -60.05 67.0 -59.25 66.6 -58.9 66.0 -58.6 65.6 -58.4 65.25 -58.0 64.85 -57.65 64.5 -57.25 63.75 -56.2 63.05 -55.0 62.75 -54.25 62.75 -53.9 62.75 -53.5 62.75 -53.15 62.75 -52.75 62.35 -51.95 62.25 -51.25 62.25 -50.9 62.15 -50.85 61.6 -51.4 61.1 -52.1 60.75 -52.5 60.95 -52.9 61.35 -53.65 61.7 -54.4 61.75 -54.75 61.45 -55.1 61.1 -55.5 60.75 -55.9 61.1 -56.65 61.5 -57.35 61.75 -57.75 61.75 -58.15 61.75 -58.5 62.0 -58.9 62.2 -59.25 62.35 -59.65 62.75 -60.0 63.5 -60.75 63.85 -61.15 64.5 -61.4 64.85 -61.65 65.25 -62.0 66.5 -62.25 M76.55 -51.45 Q76.6 -51.9 77.0 -52.25 L78.0 -52.55 Q78.95 -52.45 79.5 -51.75 79.55 -51.2 79.2 -50.65 L78.6 -49.9 78.2 -49.6 77.6 -49.5 77.0 -49.8 76.75 -50.0 76.75 -50.4 76.75 -50.75 Q76.5 -51.15 76.55 -51.45 M2.6 -50.0 L2.85 -50.05 3.2 -49.85 3.6 -49.1 3.75 -48.75 3.75 -48.0 3.7 -47.65 3.6 -47.25 3.0 -47.2 2.5 -47.25 1.75 -48.05 1.25 -48.75 1.0 -49.15 1.2 -49.4 2.0 -49.75 2.6 -50.0 M47.75 -31.15 L47.8 -31.5 48.0 -31.9 48.2 -32.25 48.4 -32.6 48.75 -33.0 50.95 -33.8 53.0 -34.4 53.1 -34.3 Q53.0 -33.65 52.55 -33.2 L52.05 -32.55 51.5 -31.75 51.05 -31.45 50.25 -31.0 47.75 -31.15 M57.5 -0.75 L57.85 -1.15 58.5 -1.4 58.75 -1.5 59.0 -1.75 59.35 -2.15 60.35 -2.65 61.45 -3.2 61.1 -2.9 60.5 -2.6 60.1 -2.4 59.75 -2.0 59.4 -1.6 59.25 -1.25 59.25 -0.9 59.25 -0.5 59.25 -0.15 59.0 0.25 58.75 0.6 58.75 1.0 58.75 1.35 58.5 1.75 58.3 2.15 58.25 2.5 58.25 2.85 58.25 4.0 58.25 4.75 58.25 5.1 58.3 5.45 58.5 5.9 58.5 6.25 58.3 6.65 58.25 7.0 58.25 7.35 58.25 7.75 58.1 8.05 57.45 8.2 56.5 8.3 56.0 8.25 55.45 7.1 55.05 6.0 54.8 5.2 54.75 4.85 54.8 4.5 55.0 4.1 55.25 3.75 55.25 3.35 55.25 3.0 55.7 2.2 56.25 1.1 56.6 0.35 56.75 0.0 57.1 -0.4 57.5 -0.75 M96.5 -69.75 L96.7 -69.35 96.75 -69.0 97.1 -68.65 97.5 -68.25 97.65 -67.85 98.2 -66.75 98.6 -66.0 Q96.7 -66.25 95.35 -65.15 L95.25 -64.4 95.25 -62.9 95.25 -61.75 94.25 -59.85 93.6 -58.4 93.25 -58.0 92.85 -57.65 92.5 -56.4 91.6 -55.4 91.2 -55.1 90.0 -54.75 91.15 -56.5 91.75 -58.0 92.1 -58.4 92.5 -58.75 92.85 -59.15 Q93.6 -60.4 93.95 -61.75 L94.75 -64.0 94.75 -64.75 94.75 -66.65 94.75 -68.15 93.8 -70.35 Q93.1 -71.9 91.75 -73.0 L92.2 -72.95 93.1 -72.65 94.1 -71.65 95.25 -70.5 96.05 -70.1 96.5 -69.75 M95.65 -9.15 L95.65 -8.8 95.65 -7.3 95.65 -6.15 95.95 -5.85 96.15 -5.55 96.15 -5.45 96.25 -5.3 96.3 -5.25 96.6 -4.95 96.7 -4.95 97.2 -4.3 97.7 -3.65 98.1 -3.4 98.75 -3.3 98.9 -3.25 99.15 -3.05 99.55 -2.8 100.3 -2.8 100.9 -2.8 101.15 -2.65 101.5 -2.35 102.25 -2.3 103.7 -2.7 Q105.35 -3.75 107.15 -4.35 L107.5 -4.65 108.1 -5.1 108.45 -5.5 108.85 -5.95 109.2 -6.45 109.6 -6.9 109.7 -7.35 110.3 -8.65 110.7 -9.45 110.85 -9.85 110.9 -9.9 111.15 -9.6 111.3 -9.3 111.25 -8.85 111.1 -8.15 110.8 -7.25 110.8 -6.9 110.8 -6.5 110.8 -6.15 110.8 -5.75 110.4 -4.85 110.3 -4.5 110.1 -4.05 108.95 -2.6 108.25 -1.65 107.65 -1.2 107.4 -1.0 107.15 -0.7 106.75 -0.25 106.15 0.25 Q105.5 0.7 104.95 1.2 101.85 1.85 99.05 3.85 L97.95 5.3 97.2 6.25 97.1 6.65 96.9 7.0 96.85 6.75 96.45 6.45 96.15 6.2 96.15 5.8 96.1 5.45 95.9 5.1 94.9 4.25 93.45 3.2 93.05 2.6 92.85 2.25 92.7 1.9 92.7 1.5 92.7 1.15 92.55 0.8 92.4 0.5 92.25 0.15 92.2 -0.2 92.2 -0.6 92.2 -1.35 92.2 -1.7 92.2 -2.1 92.4 -2.5 92.75 -3.35 93.2 -4.2 93.2 -4.6 93.2 -4.95 94.15 -6.75 94.75 -8.05 95.65 -9.15 M96.6 -10.15 L96.35 -9.95 96.1 -9.75 96.3 -9.95 96.6 -10.4 96.6 -10.15 M85.6 -15.0 L85.3 -15.4 85.5 -15.75 Q86.05 -16.15 86.65 -16.4 L88.0 -16.9 88.45 -16.8 89.2 -16.45 90.25 -15.75 90.6 -15.0 90.75 -14.65 90.8 -14.25 90.75 -13.9 90.55 -13.65 89.6 -13.5 Q88.55 -13.9 87.55 -14.4 L85.6 -15.0 M103.75 -29.4 L103.95 -29.45 104.3 -28.4 104.25 -27.25 104.55 -26.5 104.75 -25.75 104.55 -25.0 104.25 -24.25 104.25 -23.9 104.25 -23.5 104.25 -23.15 104.0 -22.75 103.8 -22.35 103.75 -22.0 103.75 -21.65 103.75 -21.25 103.1 -20.2 102.1 -18.25 101.6 -17.9 Q100.7 -17.25 99.75 -17.5 L99.45 -17.7 Q98.75 -18.2 98.35 -18.9 L98.15 -19.6 Q97.85 -20.2 98.0 -20.75 L98.75 -21.5 99.85 -22.65 101.85 -25.6 Q103.25 -27.35 103.75 -29.4 M172.8 28.35 Q174.75 29.45 177.0 29.75 L186.5 29.75 Q188.45 29.1 190.5 28.8 L191.0 28.75 190.8 29.0 190.75 29.35 190.7 29.75 190.6 30.1 190.25 30.5 189.85 30.85 189.75 31.25 189.55 31.6 189.25 32.0 189.25 32.35 189.25 32.75 188.2 34.6 186.8 36.85 186.5 37.25 186.05 37.55 185.25 38.0 184.55 38.65 183.5 39.35 183.25 39.5 183.0 39.75 182.6 40.1 Q179.95 41.4 177.2 42.4 174.2 43.55 171.0 43.35 L170.6 43.6 169.6 44.1 168.75 44.5 168.0 45.25 166.85 46.35 166.5 46.75 165.9 47.9 165.55 48.6 165.25 49.0 165.25 49.35 165.25 49.75 165.05 50.1 164.75 50.5 164.75 50.85 164.75 51.25 164.55 51.6 164.3 52.05 164.25 52.35 164.25 53.85 164.25 55.0 164.25 55.35 164.5 55.75 164.7 56.15 164.75 56.5 164.75 56.85 164.75 57.25 164.85 57.6 165.25 57.95 166.1 58.35 166.5 58.75 166.85 59.1 167.25 59.5 Q168.65 60.25 170.2 60.55 L171.0 60.75 174.0 60.75 174.6 60.55 Q177.45 59.85 180.1 58.8 L180.1 59.0 178.65 61.6 Q177.5 63.45 176.7 65.35 L176.5 65.75 175.75 66.5 175.0 67.25 174.6 67.6 174.0 67.9 173.6 68.15 173.25 68.5 173.2 68.85 172.95 69.2 172.6 69.6 172.0 69.85 171.6 70.15 171.25 70.5 170.5 70.75 169.75 71.0 169.35 71.35 169.0 71.75 168.6 72.1 Q165.65 73.45 162.5 74.25 L161.75 74.5 157.6 74.5 Q155.2 73.65 152.6 73.4 L152.0 73.25 151.0 73.25 Q148.55 73.65 146.25 74.6 L145.85 74.85 145.6 75.6 145.3 76.4 145.25 76.75 145.45 77.05 146.5 77.65 147.0 77.75 147.5 77.6 147.75 77.5 148.0 77.35 148.4 78.1 148.6 78.5 148.75 78.85 148.75 79.25 148.75 79.6 148.75 80.0 149.1 80.35 149.45 80.75 149.75 81.1 149.8 81.85 150.0 82.2 150.35 82.6 150.55 82.8 145.6 83.0 143.9 82.55 143.6 82.35 143.1 82.0 142.35 81.6 141.6 80.85 139.55 79.05 138.85 78.6 138.1 77.85 137.4 77.05 137.25 76.75 Q137.3 76.1 136.9 75.6 L136.45 74.85 136.25 74.5 Q141.45 73.5 146.45 71.6 147.3 71.25 148.0 70.75 L148.1 70.35 148.25 70.0 149.0 69.25 150.5 67.75 150.85 67.35 151.5 67.1 152.5 66.6 152.75 66.5 153.0 66.25 153.35 65.85 Q156.85 64.5 160.45 63.55 L160.85 63.35 161.1 63.0 161.2 62.6 161.25 62.25 160.95 61.9 159.95 61.3 159.25 61.0 159.1 60.6 159.0 60.25 158.15 59.45 156.75 58.0 156.35 57.6 156.2 57.25 156.0 56.85 155.75 56.5 155.75 56.1 155.7 55.75 155.5 55.35 154.9 54.6 154.45 53.9 154.1 53.5 153.5 53.25 152.85 52.6 152.5 52.25 152.1 51.85 152.85 51.35 154.0 50.25 154.35 49.85 155.0 49.6 155.25 49.5 155.85 48.85 157.0 47.75 157.35 47.35 158.0 47.1 158.25 47.0 158.45 46.7 158.6 46.35 159.1 46.0 159.6 45.6 159.95 45.2 160.1 44.85 160.6 44.5 161.0 44.1 161.2 43.75 161.35 43.35 162.5 42.25 165.5 39.25 165.85 38.85 166.5 38.6 Q166.65 38.5 166.85 38.35 L167.25 38.0 168.0 37.75 168.5 37.6 168.75 37.5 169.0 37.25 169.35 36.85 169.6 36.5 169.7 36.1 169.75 35.75 169.05 35.15 167.1 34.05 166.5 33.75 162.1 33.5 159.1 32.95 158.5 32.75 154.5 32.8 154.0 32.85 152.6 33.55 147.45 35.65 147.35 35.6 147.05 34.65 146.8 33.85 146.75 33.5 146.75 33.1 146.75 31.6 146.75 30.5 146.75 30.1 147.95 27.9 Q148.6 26.85 148.7 25.6 L148.75 25.25 148.45 24.9 148.1 24.55 147.5 24.25 146.5 24.25 Q143.65 24.65 141.1 25.85 141.4 25.3 141.85 24.85 142.3 24.4 142.25 23.75 L142.2 23.7 142.25 23.5 142.6 23.1 143.0 22.75 143.35 22.35 144.0 22.1 145.0 21.6 145.25 21.5 145.5 21.25 145.85 20.85 151.0 19.2 151.6 19.0 154.65 19.0 154.6 19.1 154.2 19.85 154.0 20.25 153.75 20.6 153.75 21.0 153.75 21.35 153.5 21.75 153.3 22.15 153.25 22.5 153.25 24.75 153.25 26.6 153.25 27.0 153.7 27.75 153.9 28.1 154.25 28.5 155.0 28.75 156.0 28.7 156.5 28.6 156.7 28.45 157.0 28.25 157.35 27.85 Q159.95 26.35 163.0 26.15 L163.6 26.0 164.75 26.0 Q169.15 26.25 172.8 28.35 M132.7 26.9 L133.0 27.25 133.15 28.0 133.25 29.5 133.25 30.6 133.1 31.0 132.5 32.6 Q132.25 33.2 131.6 33.6 L130.75 34.0 129.35 33.75 128.75 33.25 Q128.85 31.9 129.4 30.65 L130.25 28.75 130.25 28.35 130.3 28.05 130.6 27.6 131.0 27.25 131.35 26.85 132.0 26.6 132.45 26.7 132.7 26.9 M77.0 5.4 L76.75 5.5 76.5 5.75 76.1 6.1 75.25 6.5 74.85 6.85 74.1 7.6 73.75 8.0 73.45 8.75 73.1 9.5 72.85 9.85 72.35 9.9 72.0 9.7 71.75 9.35 71.75 9.0 71.75 8.6 71.75 8.25 72.1 7.5 72.25 7.15 72.5 6.75 73.2 5.95 73.5 5.6 73.75 5.25 74.35 4.9 75.1 4.5 75.35 4.4 Q78.05 3.95 78.25 5.0 L77.5 5.25 77.0 5.4 M90.1 42.1 L90.85 41.35 91.5 41.1 91.75 41.0 92.0 40.75 92.35 40.35 92.75 40.0 93.5 39.75 94.1 39.5 94.35 39.4 95.15 39.5 95.1 39.6 94.85 40.05 94.1 41.45 93.25 42.6 93.25 43.0 93.25 43.35 92.75 44.15 Q92.3 45.0 92.0 45.95 L91.25 48.25 91.25 49.35 91.25 51.25 91.25 53.1 91.1 53.5 90.9 53.9 90.75 54.25 90.75 55.35 90.75 57.25 90.75 58.35 90.5 58.75 90.25 59.1 90.25 59.5 90.25 59.85 90.0 60.25 89.75 60.6 89.75 61.0 89.75 61.35 89.5 61.75 89.25 62.1 89.25 62.5 89.25 62.85 88.8 63.65 88.05 65.6 Q87.85 66.15 87.25 66.35 L87.3 66.15 87.45 65.75 87.6 65.35 87.75 65.0 87.75 63.85 87.75 59.35 87.75 56.0 87.45 55.25 86.95 53.75 86.75 53.0 86.75 52.6 86.75 52.25 86.9 51.9 87.1 51.5 87.25 51.1 87.25 50.75 87.25 50.0 87.25 49.6 87.25 49.25 87.4 48.9 87.6 48.5 87.75 48.1 87.75 47.75 87.75 47.35 87.75 47.0 88.0 46.6 88.2 46.2 88.25 45.85 88.25 45.5 88.55 44.35 88.8 43.65 89.0 43.25 90.1 42.1 M100.35 20.35 L100.6 20.1 100.7 20.5 100.75 22.0 100.75 23.1 100.0 24.95 99.25 26.5 99.25 26.85 99.2 27.25 99.1 27.6 98.75 28.0 98.35 28.35 98.25 28.75 98.1 29.1 97.75 29.5 97.35 29.85 97.25 30.25 97.1 30.6 96.35 31.35 95.6 32.1 95.0 32.35 94.75 32.5 94.5 32.75 94.1 33.1 93.5 33.35 93.25 33.5 93.0 33.75 92.6 34.1 92.25 34.5 Q89.8 35.5 87.25 36.0 L85.1 36.0 83.65 35.45 81.0 34.25 80.85 34.1 80.1 33.5 79.6 33.1 79.45 32.75 79.1 32.35 78.6 32.0 77.9 31.6 77.6 31.35 Q76.9 30.55 76.6 29.55 L76.25 28.0 76.25 27.95 77.25 29.0 Q77.6 29.1 77.95 29.3 78.1 29.35 78.25 29.5 L79.0 30.25 79.75 31.0 80.75 31.45 82.5 32.25 88.0 32.25 Q90.55 31.85 92.85 30.85 L94.0 29.75 95.85 27.85 96.25 27.2 96.45 27.1 96.85 26.85 98.5 24.25 100.25 21.25 100.25 20.85 100.25 20.5 100.35 20.4 100.35 20.35 M68.1 14.85 L68.25 15.25 68.35 15.6 68.75 16.0 69.05 16.4 69.25 16.75 69.25 17.1 69.25 17.5 69.55 17.9 69.75 18.25 69.75 18.6 69.7 19.75 69.6 20.5 69.35 20.85 69.3 20.85 69.25 20.5 69.25 20.1 Q69.0 19.0 67.9 18.4 64.6 16.65 61.5 15.25 L61.45 14.9 61.75 14.1 62.0 13.75 62.35 13.35 62.75 13.0 65.75 13.0 67.0 13.9 68.1 14.85 M18.0 20.75 L18.2 21.15 18.25 21.5 18.6 21.85 19.0 22.25 19.65 23.75 20.75 26.35 20.75 26.75 20.7 27.5 20.6 28.25 20.0 28.3 19.5 28.25 18.8 27.9 18.6 27.6 18.3 26.85 18.25 26.1 18.2 25.75 18.0 25.35 17.75 25.0 17.75 24.6 17.75 24.25 17.5 23.85 17.3 23.45 17.25 23.1 17.25 21.6 17.25 20.5 17.1 20.1 16.95 19.75 16.75 19.35 16.75 19.3 Q17.15 19.2 17.2 19.6 17.3 20.3 18.0 20.75 M0.25 45.5 L0.75 45.5 Q1.85 45.65 2.1 46.6 L1.8 47.4 1.6 48.1 0.7 48.45 0.25 48.5 -0.5 47.7 -0.75 47.35 -0.3 46.2 0.25 45.5 M10.75 50.6 L10.75 50.55 10.85 50.6 11.15 51.25 11.25 52.0 11.6 52.35 12.0 52.75 12.2 53.1 12.6 53.85 13.0 54.25 13.75 55.0 Q14.4 55.35 15.05 55.8 16.35 56.75 16.6 58.0 L16.15 57.9 14.5 57.25 Q14.1 56.8 13.55 56.6 13.0 56.35 12.6 55.85 L12.3 55.45 12.0 54.75 11.65 54.35 11.25 53.6 11.25 53.25 11.25 52.85 11.1 52.5 10.9 52.1 10.75 51.75 10.75 51.35 10.75 51.0 10.75 50.6 M30.25 49.1 L30.3 49.15 Q30.95 50.5 30.95 52.1 31.0 54.1 30.35 55.85 L30.1 56.2 29.25 57.0 26.35 56.6 26.9 55.9 28.0 54.75 28.1 54.35 28.25 54.0 28.6 53.6 29.0 53.25 Q29.1 52.6 29.5 52.15 29.9 51.65 29.75 51.0 L30.0 50.25 30.25 49.1 M6.0 67.15 L6.5 67.2 7.0 67.25 7.25 67.25 7.1 67.5 6.85 67.85 6.5 68.25 6.1 68.6 5.5 68.85 5.25 69.0 5.0 69.25 4.6 69.6 3.75 70.0 0.85 69.85 1.25 69.5 1.6 69.1 2.0 68.75 2.35 68.35 4.15 67.6 5.5 67.1 6.0 67.15 M-36.5 -113.4 L-36.15 -113.3 -35.75 -113.0 -35.45 -112.6 -35.25 -112.25 -35.2 -112.05 -36.9 -111.5 -37.55 -111.95 -37.75 -112.25 -37.75 -112.65 -37.65 -112.9 Q-37.4 -113.15 -37.0 -113.25 L-36.5 -113.4 M-9.65 -115.25 L-9.75 -114.5 -9.85 -114.15 -10.4 -113.4 Q-10.55 -113.2 -10.8 -113.1 -12.4 -112.25 -13.4 -113.5 L-13.75 -114.25 -14.1 -115.0 -14.25 -115.75 -14.1 -116.1 -13.9 -116.5 -13.8 -116.9 -13.75 -117.25 -12.5 -117.25 -12.0 -117.25 -11.4 -117.5 -10.85 -117.35 Q-10.25 -117.05 -10.0 -116.45 L-9.65 -115.25 M-72.75 -92.75 L-72.75 -92.8 -72.0 -92.75 -71.25 -92.65 -71.95 -91.95 -72.25 -91.75 -72.4 -92.0 -72.6 -92.4 -72.75 -92.75 M-35.4 15.4 L-35.25 15.75 -35.25 16.1 -35.2 16.85 Q-35.15 17.45 -35.4 18.0 L-36.25 18.0 -36.65 17.65 -37.5 16.85 -37.7 16.5 -38.1 15.8 Q-38.55 15.2 -38.0 14.6 L-37.15 13.85 Q-36.7 13.4 -36.75 12.75 L-36.75 12.7 -36.35 13.15 -35.75 14.25 -35.75 14.6 -35.75 15.0 -35.4 15.4 M-41.4 25.6 L-41.3 25.55 Q-40.7 25.8 -40.8 26.6 -41.0 28.0 -42.0 27.85 -42.55 27.3 -42.2 26.65 L-41.4 25.6 M-61.25 46.0 L-61.05 45.45 Q-60.75 45.1 -60.25 45.0 L-60.05 44.7 -59.9 44.35 -59.75 44.0 -59.75 43.95 -58.65 44.1 -58.25 44.85 -58.0 45.25 -57.65 45.6 -57.25 46.0 -56.85 46.75 -56.4 47.5 -56.0 48.55 Q-55.6 49.3 -55.75 50.1 -56.1 50.9 -57.05 50.3 L-59.25 49.0 -59.65 48.6 -60.0 48.25 -60.45 47.55 Q-61.05 46.85 -61.25 46.0 M-45.75 55.1 L-45.75 55.05 -45.35 55.35 -44.25 56.5 -43.55 56.75 -43.4 56.85 -43.15 57.1 -42.75 57.5 -41.75 57.95 -39.9 58.85 -39.25 59.5 -38.5 60.25 -38.45 60.55 -38.75 61.0 -39.9 61.0 -40.5 60.7 -42.65 59.6 -43.4 58.85 -44.5 57.75 -45.15 56.6 -45.75 55.1 M-71.65 65.85 L-70.9 65.1 -70.15 64.35 -70.0 64.3 -69.55 64.3 -69.25 64.5 Q-68.55 65.0 -69.05 65.75 L-70.0 66.75 -71.25 67.5 -72.75 67.75 -72.6 67.4 -72.4 67.0 -72.25 66.65 -72.0 66.25 -71.65 65.85 M-64.75 77.1 L-64.0 75.6 Q-63.6 75.35 -63.15 75.9 L-61.75 77.5 -61.0 77.75 -60.9 77.85 -60.65 78.1 -60.25 78.5 -59.55 78.75 -57.75 79.6 -57.3 80.25 Q-56.75 80.8 -56.75 81.5 -56.75 82.2 -57.3 82.7 L-59.25 84.5 -61.4 84.35 Q-62.2 83.7 -63.25 83.5 L-63.65 83.1 -64.75 82.0 -64.75 81.6 -64.75 81.25 -65.0 80.85 -65.2 80.45 -65.25 80.1 -65.25 79.75 -65.25 79.0 -65.25 78.25 -64.75 77.1 M-25.0 73.6 L-24.95 73.55 Q-24.6 74.25 -25.0 75.35 -25.4 76.5 -26.25 77.5 L-26.25 77.85 -26.3 78.25 -26.4 78.6 -26.75 79.0 -27.15 79.35 -27.25 79.75 -27.4 80.1 -27.75 80.5 -28.9 81.6 -29.5 81.9 -30.75 82.5 -34.75 82.5 -35.4 81.85 -35.75 81.5 Q-35.9 80.85 -36.2 80.35 L-36.75 79.25 -36.2 78.15 -35.75 77.0 -34.15 77.1 -33.75 77.4 -32.0 78.25 -28.0 78.1 Q-26.95 77.4 -26.3 76.2 L-25.0 73.6" fill="#ffcc66" fill-rule="evenodd" stroke="none"/>
  </g>
</svg>
