<?xml version="1.0" encoding="UTF-8" standalone="no"?>
<svg xmlns:ffdec="https://www.free-decompiler.com/flash" xmlns:xlink="http://www.w3.org/1999/xlink" ffdec:objectType="shape" height="45.8px" width="50.75px" xmlns="http://www.w3.org/2000/svg">
  <g transform="matrix(1.0, 0.0, 0.0, 1.0, -148.8, -32.65)">
    <path d="M163.8 47.35 L164.05 48.1 164.3 48.85 165.15 49.6 165.75 50.35 165.9 50.7 165.95 51.05 165.75 51.8 165.3 52.6 163.7 53.75 161.8 54.85 159.65 54.85 158.8 54.7 158.3 54.3 157.95 53.95 157.8 53.6 157.8 53.2 157.8 52.85 157.9 52.45 158.05 52.1 Q158.4 51.75 158.85 51.65 160.2 51.3 160.65 50.35 L160.2 49.7 158.95 48.4 158.8 48.1 158.8 47.7 158.8 47.35 158.9 46.95 159.1 46.6 159.8 45.85 160.3 45.45 161.15 45.25 161.15 45.2 162.05 45.45 162.5 45.85 163.3 46.6 163.65 46.95 163.8 47.35 M190.15 37.05 L190.15 32.65 191.4 33.2 192.75 34.8 194.75 37.75 195.15 38.45 195.9 39.2 196.7 40.25 197.4 41.45 197.5 41.85 197.55 42.2 197.7 42.55 197.9 42.95 198.05 43.35 198.05 43.7 198.05 44.1 198.2 44.45 198.5 45.2 198.8 45.95 199.05 46.7 199.05 47.1 199.05 47.45 199.05 47.85 199.25 48.2 199.4 48.6 199.55 48.95 199.55 49.35 199.55 49.7 199.55 50.1 199.4 50.45 199.3 50.85 199.1 51.15 198.65 51.55 198.3 51.85 197.65 51.95 196.8 51.7 196.3 51.3 196.05 51.1 Q193.05 50.45 190.4 51.9 189.8 52.2 189.25 52.6 L188.65 53.05 188.3 53.35 188.25 53.35 188.0 53.8 187.5 54.6 Q186.95 55.5 186.55 56.45 L186.55 56.85 186.55 57.2 186.4 57.6 186.25 57.95 186.05 58.35 186.05 58.7 186.05 59.1 185.9 59.45 185.8 59.85 185.65 60.2 185.55 60.6 185.55 60.95 185.55 61.35 185.4 61.7 185.2 62.1 185.05 62.45 185.05 62.85 185.05 63.2 185.05 63.6 185.05 64.35 185.05 65.45 185.45 66.2 185.65 66.6 186.25 67.75 186.55 68.45 186.55 68.85 186.55 69.2 186.55 69.6 186.4 69.95 186.3 70.35 186.1 70.65 185.65 71.1 185.3 71.35 184.65 71.45 183.8 71.2 183.65 71.1 183.65 72.55 Q176.55 74.5 168.55 71.1 L167.4 69.95 166.25 68.7 166.3 68.85 166.4 69.2 166.55 69.6 166.55 69.95 166.55 70.35 166.55 70.7 166.4 71.1 166.3 71.45 166.0 71.8 164.9 72.95 164.55 73.35 164.35 73.7 163.9 74.45 163.55 74.85 163.15 75.2 162.95 75.6 162.75 75.95 162.55 76.35 161.65 77.05 160.55 77.85 160.05 78.2 159.15 78.45 158.3 78.2 157.8 77.8 157.4 77.45 157.3 77.1 157.3 76.35 157.3 75.95 157.3 75.6 157.4 75.2 157.8 74.9 Q158.4 74.45 159.05 74.1 L159.4 73.7 159.45 73.7 158.5 73.35 157.8 72.95 157.65 72.95 156.0 72.35 Q155.15 72.05 154.9 71.2 L154.8 70.85 154.8 70.45 154.8 70.2 Q152.35 70.65 149.8 70.2 L149.3 69.8 148.95 69.45 148.8 69.1 148.8 68.7 148.8 68.35 149.1 67.6 149.4 67.2 150.8 66.85 150.8 66.6 150.95 66.25 151.65 65.45 152.05 65.1 152.55 64.9 153.15 64.75 153.15 64.7 154.15 64.75 154.8 64.85 Q157.85 64.45 160.8 65.5 L165.05 66.95 165.3 67.15 165.3 66.95 165.3 66.7 164.4 65.7 164.3 65.35 164.3 64.95 164.3 64.6 164.4 64.2 164.8 63.85 165.3 63.45 166.15 63.3 166.15 63.2 166.65 63.25 167.55 63.45 168.0 63.85 168.4 64.2 168.8 64.6 170.8 65.85 171.05 65.6 171.55 65.35 172.15 65.25 172.15 65.2 173.95 65.7 174.3 65.35 174.8 64.95 175.65 64.8 175.65 64.7 Q177.5 64.75 179.25 65.4 L180.25 65.85 180.65 65.75 180.65 65.7 181.3 65.75 181.3 65.35 180.65 65.45 179.8 65.2 179.3 64.8 178.9 64.45 178.8 64.1 178.8 63.7 178.8 62.95 178.8 62.6 178.95 62.25 179.3 61.85 179.65 61.5 178.8 61.2 178.3 60.8 177.9 60.45 177.8 60.1 177.8 59.7 177.8 59.35 177.85 58.6 177.9 58.2 178.3 57.85 178.8 57.45 179.65 57.25 179.65 57.2 180.55 57.5 181.15 57.7 182.05 57.95 182.1 58.0 182.3 57.7 182.3 57.35 182.3 56.95 182.3 56.6 182.45 56.2 182.6 55.9 181.8 55.7 181.3 55.3 180.95 54.95 180.8 54.6 Q180.7 54.0 180.95 53.45 L181.65 51.6 181.9 51.2 182.3 50.95 182.55 50.85 183.15 50.7 184.05 50.95 184.55 51.35 184.75 51.7 184.85 51.55 184.8 51.35 184.8 50.95 184.8 50.6 184.9 50.2 185.3 49.85 185.8 49.45 186.9 49.05 187.55 48.85 187.7 48.85 188.75 48.4 188.9 48.2 189.8 47.45 190.65 47.25 190.65 47.2 191.05 47.25 191.2 46.95 191.55 46.6 192.05 46.4 192.65 46.25 192.65 46.2 193.35 46.4 193.4 45.85 193.7 45.45 193.85 45.3 193.8 45.3 193.15 45.45 192.65 45.4 191.8 45.2 191.3 44.8 190.95 44.4 190.8 44.1 190.8 43.7 190.85 43.35 Q190.9 42.95 191.1 42.6 L191.4 42.2 191.8 41.95 192.05 41.85 192.65 41.75 192.65 41.7 192.9 41.7 192.75 41.45 192.55 41.1 192.15 40.7 191.8 40.35 191.4 39.95 191.35 39.8 191.3 39.95 191.0 40.3 190.55 40.7 189.65 40.95 189.15 40.9 188.3 40.7 187.8 40.3 187.4 39.95 187.35 39.55 187.25 38.85 Q187.2 38.25 187.4 37.7 L187.8 37.35 188.3 36.95 189.15 36.75 189.15 36.7 190.05 36.95 190.15 37.05 M161.65 70.35 L161.45 70.3 161.55 70.35 161.6 70.45 161.65 70.35 M159.15 69.8 L159.15 69.7 159.85 69.75 159.3 69.6 158.35 69.25 158.85 69.75 158.95 69.85 159.15 69.8" fill="#ff6600" fill-rule="evenodd" stroke="none"/>
  </g>
</svg>
