<?xml version="1.0" encoding="UTF-8" standalone="no"?>
<svg xmlns:ffdec="https://www.free-decompiler.com/flash" xmlns:xlink="http://www.w3.org/1999/xlink" ffdec:objectType="shape" height="39.1px" width="100.5px" xmlns="http://www.w3.org/2000/svg">
  <g transform="matrix(1.0, 0.0, 0.0, 1.0, 421.0, -3.95)">
    <path d="M-322.0 22.0 L-320.5 25.35 -320.5 25.75 -320.5 26.1 -320.5 26.5 -320.5 26.85 -320.5 27.25 -320.65 27.6 -320.8 28.0 -321.0 28.35 -321.0 28.75 -321.0 29.1 -321.0 29.5 -321.0 29.85 -321.0 30.25 -321.0 30.6 -321.15 31.0 -321.25 31.35 -321.4 31.75 -321.5 32.1 -321.75 32.85 -321.9 33.25 -322.15 33.6 -322.9 34.35 -324.0 35.5 -324.85 36.65 -325.0 37.0 -325.4 37.35 -325.75 37.75 -326.15 38.1 -326.9 38.85 -327.75 39.6 Q-339.45 46.5 -350.5 39.5 -359.8 33.6 -371.0 35.25 -386.75 45.55 -404.9 41.1 -409.7 39.95 -413.25 36.5 L-414.4 35.6 -414.75 35.25 -415.15 34.85 -415.35 34.5 -415.55 34.15 -415.75 33.75 -416.15 33.35 -416.5 33.0 -416.9 32.6 -417.25 32.25 -417.4 31.85 -417.5 31.5 -417.9 31.1 -418.25 30.75 -418.4 30.35 -418.85 29.25 -419.5 27.35 -419.95 25.85 Q-420.25 24.85 -420.9 24.0 L-420.95 23.6 -421.0 22.85 -421.0 21.35 -421.0 20.25 -421.0 18.75 -421.0 18.35 -420.85 18.0 -420.65 17.6 -420.5 17.25 -420.5 16.85 -420.5 16.5 -420.5 16.1 -420.4 15.75 -420.25 15.35 -420.15 15.0 -420.0 14.6 -419.75 13.85 -419.5 13.5 -419.15 13.1 -418.95 12.7 -418.25 11.55 -417.5 10.5 -417.15 10.1 -416.75 9.75 -416.4 9.35 -415.6 8.65 -415.15 8.25 -414.0 8.05 -411.5 8.3 -411.5 10.35 -410.9 10.6 -410.55 11.0 -410.35 11.35 -410.0 12.1 -410.0 12.5 -410.0 12.85 -410.0 13.25 -410.0 13.6 -410.15 14.0 -410.25 14.35 -410.4 14.75 -410.25 15.1 -410.15 15.5 -410.0 15.85 -410.0 16.25 -410.0 16.6 -409.8 17.0 -409.65 17.35 -409.5 17.75 -409.5 18.1 -409.5 18.5 -409.35 18.85 -408.8 20.0 -408.4 21.1 Q-406.8 22.9 -404.75 24.1 -403.45 24.85 -402.5 26.0 L-401.9 26.25 -401.75 26.35 -389.9 26.85 -389.5 26.55 -389.0 26.25 -389.0 24.05 -384.75 23.25 -371.5 14.4 Q-364.15 9.6 -356.05 6.15 L-351.25 4.1 -350.5 4.05 -350.5 4.0 Q-342.45 3.65 -335.25 7.35 -330.1 10.05 -325.9 14.1 L-325.55 14.5 -325.35 14.85 -325.15 15.25 -325.0 15.6 -325.0 16.0 -325.0 16.35 -324.55 17.15 -323.35 19.35 -322.0 22.0 M-336.4 12.6 Q-340.15 10.85 -344.15 9.75 -347.05 8.95 -350.0 9.25 L-355.8 11.3 Q-358.05 12.05 -360.0 13.5 -365.8 17.5 -372.0 21.0 L-377.0 24.15 -377.05 24.35 -377.15 24.75 -377.5 25.5 Q-388.25 35.2 -402.5 31.5 -405.35 30.75 -407.4 28.6 -409.5 27.75 -411.05 26.05 L-412.5 24.5 -413.3 22.95 -414.4 20.35 -414.5 20.0 -414.5 19.6 -414.5 19.25 -414.65 18.9 -414.85 18.5 -415.0 18.1 -415.0 17.75 -415.0 17.35 -415.1 17.15 -415.15 17.25 -415.35 17.65 -415.5 18.0 -415.5 18.35 -415.5 18.75 -415.65 19.1 -415.8 19.5 -416.0 19.85 -416.0 20.25 -416.0 20.6 -416.0 21.0 -416.0 21.35 -415.1 23.55 -414.25 25.85 -413.3 28.5 -413.15 28.85 -412.75 29.25 -412.4 29.6 -412.0 30.0 -411.65 30.35 -411.4 30.75 -411.25 31.1 -411.0 31.5 -408.25 33.7 -404.95 35.95 -404.25 36.35 Q-388.45 40.15 -374.6 31.55 -371.0 29.3 -366.65 29.3 -355.4 29.35 -346.5 36.0 -341.2 39.4 -335.45 37.15 -332.4 36.0 -329.5 34.35 L-329.35 34.0 -329.15 33.6 -328.75 33.25 -328.4 32.85 -328.0 32.5 -327.65 32.1 -327.4 31.75 -327.25 31.4 -327.0 31.0 -326.4 30.25 -326.25 29.85 -326.15 29.5 -326.0 29.1 -326.0 28.35 -326.0 28.0 -326.0 27.25 -326.0 26.85 -325.9 26.5 -326.0 26.1 -326.0 25.75 -326.2 25.4 -326.5 25.0 -326.75 24.6 -327.0 23.85 -327.3 23.15 -327.65 22.35 -328.05 21.65 -328.25 21.25 Q-328.4 21.1 -328.55 21.05 L-329.0 20.95 -330.15 20.75 -330.6 20.35 -331.0 20.0 -331.25 19.6 -331.4 19.25 -331.5 18.85 -331.5 18.5 -331.5 18.1 -331.4 17.75 -331.25 17.35 -331.15 17.0 -332.8 15.05 Q-333.7 14.1 -334.9 13.65 L-336.4 12.6" fill="#000000" fill-rule="evenodd" stroke="none"/>
    <path d="M-336.4 12.6 L-334.9 13.65 Q-333.7 14.1 -332.8 15.05 L-331.15 17.0 -331.25 17.35 -331.4 17.75 -331.5 18.1 -331.5 18.5 -331.5 18.85 -331.4 19.25 -331.25 19.6 -331.0 20.0 -330.6 20.35 -330.15 20.75 -329.0 20.95 -328.55 21.05 Q-328.4 21.1 -328.25 21.25 L-328.05 21.65 -327.65 22.35 -327.3 23.15 -327.0 23.85 -326.75 24.6 -326.5 25.0 -326.2 25.4 -326.0 25.75 -326.0 26.1 -325.9 26.5 -326.0 26.85 -326.0 27.25 -326.0 28.0 -326.0 28.35 -326.0 29.1 -326.15 29.5 -326.25 29.85 -326.4 30.25 -327.0 31.0 -327.25 31.4 -327.4 31.75 -327.65 32.1 -328.0 32.5 -328.4 32.85 -328.75 33.25 -329.15 33.6 -329.35 34.0 -329.5 34.35 Q-332.4 36.0 -335.45 37.15 -341.2 39.4 -346.5 36.0 -355.4 29.35 -366.65 29.3 -371.0 29.3 -374.6 31.55 -388.45 40.15 -404.25 36.35 L-404.95 35.95 -408.25 33.7 -411.0 31.5 -411.25 31.1 -411.4 30.75 -411.65 30.35 -412.0 30.0 -412.4 29.6 -412.75 29.25 -413.15 28.85 -413.3 28.5 -414.25 25.85 -415.1 23.55 -416.0 21.35 -416.0 21.0 -416.0 20.6 -416.0 20.25 -416.0 19.85 -415.8 19.5 -415.65 19.1 -415.5 18.75 -415.5 18.35 -415.5 18.0 -415.35 17.65 -415.15 17.25 -415.1 17.15 -415.0 17.35 -415.0 17.75 -415.0 18.1 -414.85 18.5 -414.65 18.9 -414.5 19.25 -414.5 19.6 -414.5 20.0 -414.4 20.35 -413.3 22.95 -412.5 24.5 -411.05 26.05 Q-409.5 27.75 -407.4 28.6 -405.35 30.75 -402.5 31.5 -388.25 35.2 -377.5 25.5 L-377.15 24.75 -377.05 24.35 -377.0 24.15 -372.0 21.0 Q-365.8 17.5 -360.0 13.5 -358.05 12.05 -355.8 11.3 L-350.0 9.25 Q-347.05 8.95 -344.15 9.75 -340.15 10.85 -336.4 12.6" fill="#80a839" fill-rule="evenodd" stroke="none"/>
  </g>
</svg>
