<?xml version="1.0" encoding="UTF-8" standalone="no"?>
<svg xmlns:ffdec="https://www.free-decompiler.com/flash" xmlns:xlink="http://www.w3.org/1999/xlink" ffdec:objectType="shape" height="215.5px" width="316.5px" xmlns="http://www.w3.org/2000/svg">
  <g transform="matrix(1.0, 0.0, 0.0, 1.0, 73.75, 128.75)">
    <path d="M81.25 -113.4 L81.25 -113.0 81.5 -112.65 81.75 -112.25 81.75 -111.9 81.75 -111.5 82.0 -111.15 82.25 -110.75 82.25 -108.5 82.2 -105.9 82.25 -104.4 82.1 -104.0 81.9 -103.6 81.75 -103.25 81.75 -102.9 81.75 -102.5 81.75 -102.15 81.7 -101.75 81.5 -101.4 81.25 -101.0 81.25 -100.65 81.25 -100.25 81.0 -99.9 80.75 -99.5 80.75 -99.15 80.75 -98.75 80.5 -98.4 80.25 -98.0 80.1 -97.65 80.0 -97.25 79.6 -96.9 79.1 -96.55 78.5 -96.25 77.75 -96.55 77.35 -96.9 77.25 -97.65 77.25 -98.4 77.25 -99.15 76.7 -100.25 76.25 -101.0 75.85 -101.65 75.5 -101.4 74.85 -101.15 74.5 -100.75 74.2 -100.5 74.0 -100.4 70.0 -100.25 69.25 -100.5 68.9 -100.9 68.75 -101.25 68.6 -101.65 68.25 -102.0 67.85 -102.4 67.7 -103.1 67.4 -103.9 67.25 -104.25 67.25 -105.4 67.25 -106.15 67.25 -107.25 67.4 -107.6 67.6 -108.0 67.75 -108.35 68.0 -108.75 68.35 -109.15 68.75 -109.5 69.1 -109.9 70.0 -110.2 71.25 -110.5 71.55 -110.9 71.75 -111.25 71.85 -111.65 72.6 -112.4 73.25 -113.15 73.25 -113.5 73.25 -113.9 73.25 -114.25 73.4 -114.6 73.6 -115.0 73.75 -115.4 73.7 -115.75 73.55 -116.1 73.25 -116.5 73.25 -116.9 73.25 -117.25 73.25 -117.65 73.25 -117.7 73.35 -118.0 73.5 -118.4 73.6 -118.75 73.6 -119.15 73.4 -119.85 72.7 -121.35 72.15 -122.5 72.0 -122.9 68.8 -125.65 68.25 -126.0 68.35 -126.25 68.1 -126.6 67.8 -127.05 67.75 -127.4 67.75 -127.75 67.9 -128.1 68.3 -128.4 68.95 -128.7 69.0 -128.75 71.15 -128.1 73.0 -126.75 Q74.1 -126.35 74.95 -125.45 L75.85 -123.9 76.25 -123.5 76.6 -123.15 77.0 -122.75 77.6 -121.15 78.85 -119.35 79.1 -119.0 Q79.4 -117.85 79.85 -116.8 L80.8 -114.55 81.25 -113.75 81.25 -113.4 M39.5 -110.25 L40.55 -109.55 41.35 -108.9 41.75 -108.15 42.35 -107.05 42.75 -106.25 42.75 -105.9 42.75 -105.5 43.0 -105.15 43.25 -104.75 43.25 -102.9 43.25 -100.25 43.25 -99.5 43.1 -99.15 42.75 -98.4 42.35 -97.65 41.55 -96.95 40.5 -96.25 39.0 -96.25 38.25 -96.5 37.85 -96.9 37.5 -97.25 37.1 -97.65 36.8 -98.05 36.65 -98.35 36.25 -99.15 36.25 -101.0 36.25 -103.65 36.25 -104.4 36.4 -104.75 36.6 -105.15 36.75 -105.5 36.75 -105.9 36.75 -106.25 36.75 -106.65 36.8 -106.95 37.05 -107.4 37.25 -107.75 37.35 -108.15 37.75 -108.5 38.1 -108.9 38.25 -109.25 38.35 -109.65 38.8 -109.9 39.45 -110.2 39.5 -110.25 M39.25 -105.75 L39.25 -105.4 39.25 -105.0 39.0 -104.25 38.75 -103.5 38.75 -101.65 38.75 -100.15 Q38.95 -99.3 39.75 -99.35 L40.25 -99.5 Q41.0 -100.45 40.85 -101.75 L40.75 -103.65 Q40.3 -104.35 40.25 -105.15 40.15 -106.0 39.25 -105.8 L39.25 -105.75 M75.75 -118.9 L75.85 -118.15 76.1 -117.35 76.25 -117.0 76.25 -115.5 76.25 -114.0 75.55 -112.15 74.85 -110.65 74.1 -109.9 73.75 -109.5 73.6 -109.15 73.5 -108.75 Q72.8 -108.25 71.95 -107.9 L70.75 -107.5 70.0 -106.35 69.75 -105.65 Q69.65 -105.0 70.0 -104.45 L70.6 -103.4 72.75 -103.0 74.0 -103.75 74.25 -104.5 74.5 -105.25 Q74.85 -105.65 75.3 -105.9 L76.0 -106.25 77.1 -105.6 77.5 -105.25 77.85 -103.7 Q78.1 -102.8 78.85 -102.65 L79.15 -103.4 79.25 -104.15 79.6 -104.9 79.75 -105.25 79.75 -107.5 79.75 -109.75 79.15 -110.85 78.75 -111.65 78.75 -112.0 78.75 -112.4 78.75 -112.75 77.65 -115.0 76.75 -116.5 76.75 -116.9 76.75 -117.25 76.2 -118.35 75.75 -118.95 75.75 -118.9 M70.7 -78.9 L70.95 -79.25 71.3 -79.65 72.05 -80.4 72.45 -80.6 73.7 -81.0 74.45 -81.25 75.45 -81.25 76.5 -80.55 77.95 -79.15 78.2 -78.75 78.2 -78.0 78.2 -76.5 78.2 -75.0 78.05 -74.65 77.9 -74.25 77.55 -73.5 77.3 -73.15 76.95 -72.75 76.7 -72.55 76.45 -72.4 73.45 -72.25 72.7 -72.5 72.35 -72.9 72.2 -73.25 72.05 -73.65 71.7 -74.0 71.35 -74.4 70.7 -75.15 70.7 -75.9 70.7 -77.4 70.7 -78.9 M75.15 -77.95 L74.45 -78.25 73.2 -78.0 73.2 -77.65 73.2 -76.9 73.2 -76.15 73.45 -75.8 74.2 -75.0 75.15 -75.15 75.55 -75.4 75.65 -75.75 75.65 -76.9 75.55 -77.65 75.15 -77.95 M50.1 -75.8 L50.9 -76.2 50.95 -76.25 51.45 -76.25 52.45 -76.25 53.05 -76.0 53.4 -75.6 53.7 -75.25 54.2 -74.5 54.45 -74.15 54.65 -73.75 54.7 -73.4 54.7 -73.0 54.95 -72.65 55.15 -72.25 55.2 -71.9 55.2 -71.5 55.25 -71.15 55.4 -70.75 55.7 -70.0 55.7 -69.65 55.7 -69.25 55.7 -68.9 55.35 -68.1 Q55.15 -67.5 54.65 -67.05 L53.95 -66.4 53.45 -66.3 51.95 -66.25 51.2 -66.5 50.8 -66.9 50.45 -67.25 50.05 -67.65 49.75 -68.05 49.65 -68.35 49.45 -68.75 49.05 -69.15 48.7 -69.5 48.7 -70.65 48.7 -72.5 48.7 -73.65 48.75 -73.95 49.0 -74.4 49.2 -74.75 49.3 -75.15 49.7 -75.5 50.1 -75.8 M51.2 -71.9 L51.2 -70.75 51.9 -69.6 52.3 -69.0 52.8 -69.6 52.7 -70.25 52.7 -70.65 52.7 -71.0 52.15 -72.55 Q51.8 -73.35 51.2 -73.0 L51.2 -71.9 M60.7 -61.45 L61.55 -61.9 61.95 -62.25 62.3 -62.65 62.7 -63.0 64.55 -63.5 65.45 -63.75 65.95 -63.7 66.55 -63.5 67.15 -62.7 67.55 -62.0 67.7 -61.65 67.7 -60.15 67.7 -57.9 67.7 -57.5 Q67.25 -56.1 66.4 -54.95 L64.3 -52.65 63.95 -52.4 63.35 -52.1 62.95 -51.9 60.95 -51.75 60.2 -52.05 59.9 -52.2 59.2 -52.5 58.85 -52.9 58.65 -53.25 58.2 -54.0 58.2 -55.15 58.2 -56.65 58.2 -57.0 Q58.2 -57.65 58.55 -58.2 L59.3 -59.65 59.7 -60.0 60.05 -60.4 60.2 -60.75 60.3 -61.15 60.7 -61.45 M80.7 -74.15 L80.75 -74.45 81.05 -74.9 81.45 -75.25 81.7 -75.5 81.95 -75.6 82.55 -75.9 82.95 -76.1 84.2 -76.5 84.95 -76.75 86.95 -76.75 90.4 -76.15 91.95 -75.75 Q92.85 -75.5 93.45 -74.75 L94.05 -74.45 94.55 -74.1 94.95 -73.75 95.3 -73.4 96.5 -72.55 97.3 -71.85 98.8 -69.7 99.2 -68.5 99.2 -68.15 99.2 -67.75 99.2 -67.4 99.2 -66.65 99.05 -65.5 98.8 -65.15 98.45 -64.75 98.2 -64.5 97.95 -64.4 97.45 -64.25 96.1 -63.95 95.45 -63.75 93.95 -63.75 93.2 -64.0 92.8 -64.4 92.45 -64.75 92.05 -65.15 91.3 -65.9 90.55 -66.65 90.25 -67.05 90.15 -67.35 89.95 -67.75 89.55 -68.15 89.2 -68.5 89.15 -68.85 88.95 -69.25 88.55 -69.65 88.2 -70.0 87.9 -70.35 87.05 -71.15 86.7 -71.5 86.4 -71.7 85.7 -72.05 85.4 -72.2 84.3 -72.9 84.2 -73.25 84.05 -73.45 83.55 -73.4 83.05 -73.05 82.45 -72.75 81.95 -72.8 81.25 -73.05 Q81.0 -73.2 80.85 -73.4 L80.7 -73.75 80.7 -74.15 M63.3 -60.15 L62.55 -59.4 61.8 -58.65 61.35 -57.45 60.75 -56.35 60.7 -56.0 60.75 -55.65 60.9 -55.25 61.05 -54.9 61.25 -54.65 62.2 -54.5 63.05 -54.9 63.4 -55.25 63.65 -55.65 63.7 -56.0 64.1 -56.35 64.55 -56.75 64.65 -57.15 64.7 -57.5 65.0 -57.9 65.2 -58.25 65.2 -59.4 65.25 -60.5 Q65.3 -61.35 64.7 -61.0 L63.9 -60.45 63.3 -60.15 M75.35 -53.1 L76.0 -54.25 Q76.3 -54.75 76.95 -54.7 L76.95 -54.75 78.45 -54.75 79.05 -54.45 79.55 -54.1 79.95 -53.75 80.55 -53.45 80.95 -53.15 81.1 -52.75 81.2 -51.25 81.2 -49.75 80.9 -49.4 79.4 -48.4 78.95 -48.25 78.45 -48.35 77.45 -48.7 76.7 -49.0 76.3 -49.4 75.95 -49.75 75.2 -50.5 75.2 -50.9 75.2 -51.65 75.2 -52.75 75.35 -53.1 M52.5 -38.65 L53.7 -39.0 54.1 -39.35 54.45 -39.6 54.95 -39.75 55.55 -39.45 56.05 -39.1 56.45 -38.75 56.65 -38.0 57.05 -36.85 57.2 -36.5 57.2 -35.75 57.15 -34.25 57.05 -33.5 55.75 -31.95 54.45 -30.9 53.95 -30.8 52.45 -30.75 51.75 -31.05 51.3 -31.4 50.75 -32.15 50.2 -33.25 50.2 -34.0 50.2 -35.5 50.2 -36.25 50.5 -37.0 Q50.75 -37.7 51.3 -38.15 L52.5 -38.65 M54.5 -35.85 L53.2 -36.0 52.85 -35.2 52.7 -34.15 53.0 -33.85 53.8 -33.65 54.25 -34.35 Q54.7 -34.85 54.7 -35.5 L54.5 -35.85 M58.45 -6.2 L59.05 -5.95 59.45 -5.65 59.65 -5.25 59.7 -4.9 59.7 -4.5 59.95 -4.15 60.2 -3.75 60.2 -3.4 60.2 -3.0 60.45 -2.65 60.7 -2.25 60.7 0.0 60.7 2.6 60.7 3.0 Q60.05 5.15 58.85 7.05 57.6 9.05 55.45 9.75 54.55 9.9 53.85 9.35 L52.8 8.6 52.45 8.25 52.25 7.85 52.2 7.5 52.2 4.85 52.2 1.85 53.95 -1.75 55.95 -5.25 56.45 -5.6 Q57.15 -6.1 57.95 -6.2 L57.95 -6.25 58.45 -6.2 M56.45 -1.25 L55.6 0.2 Q55.25 0.95 55.2 1.75 L54.95 2.1 54.7 2.5 54.7 4.0 54.7 5.85 54.7 6.25 56.05 6.45 56.2 6.25 56.35 5.9 56.7 5.5 57.05 5.1 57.4 3.95 Q57.65 3.15 58.05 2.45 L58.2 2.1 58.2 0.6 58.2 -0.9 58.2 -1.25 57.75 -2.05 57.5 -2.45 57.45 -2.4 57.15 -2.0 56.8 -1.65 56.45 -1.25 M76.95 -0.25 L77.55 0.05 77.95 0.35 78.15 0.75 78.2 1.1 78.2 1.5 78.55 1.85 79.3 2.65 79.55 3.0 79.65 3.35 79.7 4.5 79.7 5.6 79.7 6.0 79.55 6.35 79.2 7.1 78.8 7.85 78.45 8.0 75.45 8.25 74.7 8.0 73.2 7.5 72.8 7.1 72.45 6.75 72.05 6.35 71.75 5.95 71.6 5.65 71.2 4.85 71.2 4.5 71.2 3.75 71.2 2.6 71.2 2.25 71.35 1.9 71.7 1.5 72.05 1.1 73.05 0.6 Q74.15 0.0 75.45 -0.2 L75.45 -0.25 76.95 -0.25 M92.05 -72.65 Q90.5 -73.65 88.65 -73.55 L88.7 -73.5 90.2 -72.0 91.3 -70.9 91.7 -70.15 92.05 -69.35 92.2 -69.0 92.9 -68.25 93.5 -67.45 93.7 -67.15 93.85 -66.9 93.95 -66.8 94.45 -66.65 95.4 -66.85 96.7 -67.4 96.5 -68.1 96.15 -68.85 95.95 -69.25 95.2 -70.0 94.45 -70.75 94.05 -71.15 93.2 -71.5 92.8 -71.9 92.45 -72.25 92.05 -72.65 M94.45 -63.25 L95.45 -63.25 96.05 -62.95 96.55 -62.6 96.95 -62.25 97.55 -61.95 98.05 -61.6 98.45 -61.25 98.6 -60.5 98.7 -59.4 98.7 -58.65 98.7 -58.25 98.15 -57.55 96.55 -56.05 95.95 -55.75 94.45 -55.75 93.7 -56.0 93.3 -56.4 92.95 -56.75 92.2 -57.5 92.2 -58.25 92.2 -59.75 92.2 -61.25 92.7 -62.0 93.95 -63.05 94.45 -63.25 M94.7 -60.15 L94.75 -59.4 94.95 -58.65 95.4 -58.75 96.2 -59.25 Q95.8 -59.9 94.9 -60.15 L94.7 -60.15 M104.9 -34.25 L105.05 -33.9 105.2 -33.5 105.55 -33.15 105.95 -32.75 106.25 -32.05 106.85 -30.9 107.2 -30.15 107.2 -29.75 107.2 -29.4 107.2 -29.0 107.2 -28.25 107.35 -27.9 107.55 -27.5 107.65 -27.15 107.7 -26.75 107.65 -26.4 107.55 -26.0 107.35 -25.6 107.2 -25.25 107.2 -24.9 107.2 -24.5 107.2 -24.15 107.15 -23.75 106.95 -23.4 106.7 -23.0 106.7 -22.65 106.7 -22.25 106.45 -21.9 105.8 -21.1 104.95 -20.4 104.45 -20.3 102.95 -20.25 102.2 -20.5 101.45 -21.25 99.95 -22.75 99.55 -23.15 99.25 -23.55 99.15 -23.85 98.95 -24.25 98.7 -24.65 98.7 -26.5 98.7 -29.5 98.7 -30.65 98.75 -30.95 99.0 -31.4 99.2 -31.75 99.3 -32.15 100.1 -32.85 Q100.7 -33.4 101.1 -34.05 L101.2 -34.4 101.45 -34.75 101.7 -35.0 101.95 -35.1 102.45 -35.25 103.45 -35.25 104.05 -34.95 104.55 -34.65 104.9 -34.25 M103.2 -31.75 L102.5 -31.05 101.45 -30.25 Q101.05 -29.6 101.1 -28.75 L101.2 -26.15 101.2 -25.75 101.55 -25.0 101.7 -24.65 101.95 -24.25 102.3 -23.9 102.7 -23.5 102.95 -23.25 103.6 -23.05 104.05 -23.0 104.2 -23.75 104.35 -24.1 104.7 -24.9 104.7 -25.65 104.7 -26.0 104.8 -26.75 104.7 -27.5 104.7 -27.9 104.7 -29.0 Q104.7 -29.65 104.3 -30.2 L103.5 -31.6 Q103.3 -32.1 103.2 -31.75 M91.7 -16.65 L91.7 -15.9 91.7 -15.15 91.7 -14.75 91.45 -14.4 90.8 -13.65 90.45 -13.4 85.95 -13.25 85.25 -13.55 84.8 -13.9 84.25 -14.65 83.85 -15.4 83.7 -15.75 83.7 -16.5 83.7 -17.25 83.7 -18.0 83.75 -18.35 83.95 -18.75 84.15 -19.15 84.2 -19.5 84.55 -19.9 84.95 -20.25 85.2 -20.5 86.05 -20.85 86.9 -21.2 86.95 -21.25 Q88.05 -21.15 89.1 -20.55 L90.55 -19.65 91.05 -18.85 91.45 -18.15 91.7 -17.75 91.7 -16.65 M93.15 -12.75 L93.2 -13.15 93.2 -13.5 93.5 -13.9 93.7 -14.25 93.8 -14.65 94.2 -14.95 94.95 -15.25 95.4 -15.15 96.4 -14.6 96.7 -14.25 96.65 -13.9 96.25 -13.15 95.75 -12.35 95.7 -12.0 95.7 -11.65 95.65 -11.3 95.45 -10.9 95.2 -10.5 95.2 -10.15 95.2 -9.75 95.2 -9.4 95.2 -9.0 95.05 -8.65 94.95 -8.25 95.35 -7.2 95.95 -5.65 96.7 -4.5 Q97.55 -3.9 98.6 -3.55 L101.55 -2.5 102.2 -2.5 Q103.65 -2.9 104.95 -3.6 L106.55 -4.4 106.7 -4.75 106.8 -5.15 107.2 -5.5 107.55 -5.9 107.7 -6.25 107.85 -6.6 108.05 -7.0 108.2 -7.4 108.15 -7.75 108.0 -8.1 107.7 -8.5 107.7 -8.9 107.7 -9.25 107.05 -10.3 106.5 -11.45 Q106.2 -12.0 106.05 -12.65 L105.7 -13.0 105.3 -13.4 105.25 -13.75 105.2 -14.5 105.25 -14.85 105.45 -15.25 105.7 -15.5 105.95 -15.6 106.4 -15.7 106.45 -15.75 107.45 -15.75 108.45 -15.3 109.95 -14.25 110.3 -13.9 111.05 -12.85 111.8 -11.7 112.2 -10.5 112.2 -9.0 112.2 -6.75 112.2 -4.9 112.05 -4.5 111.75 -3.75 111.65 -3.4 111.55 -3.0 111.0 -2.25 110.35 -1.1 109.95 -0.4 109.55 -0.05 108.8 0.35 108.45 0.75 107.7 1.5 107.3 1.85 106.4 2.15 Q105.35 2.45 104.45 3.1 L96.2 4.5 95.8 4.85 95.45 5.1 94.95 5.15 94.2 5.0 93.05 3.85 91.55 2.35 91.2 2.0 91.2 1.6 91.2 1.25 91.2 0.85 91.2 0.5 91.15 0.15 90.95 -0.25 90.7 -0.65 90.7 -1.0 90.7 -1.4 90.45 -1.75 90.2 -2.15 90.2 -3.65 90.2 -5.9 90.2 -7.75 90.55 -8.9 Q90.75 -9.7 91.25 -10.3 L91.7 -11.5 92.1 -11.85 92.45 -12.1 93.05 -12.4 93.15 -12.75 M89.1 -16.35 L88.7 -17.15 88.55 -17.5 87.8 -18.1 87.05 -18.35 86.95 -18.25 86.35 -17.45 Q86.1 -16.95 86.3 -16.4 L89.05 -16.0 89.1 -16.35 M92.7 -5.9 L92.7 -4.4 92.7 -3.25 93.25 -2.15 93.7 -1.0 93.7 -0.65 93.7 -0.25 93.7 0.1 Q93.7 0.75 94.15 1.3 L94.55 1.85 Q100.45 1.25 105.8 -0.65 L102.45 0.25 100.95 0.25 96.2 -1.5 95.8 -1.9 95.55 -2.15 95.45 -2.25 94.7 -2.5 Q93.9 -3.55 93.4 -4.75 L92.7 -5.9 M207.65 5.6 L207.55 6.0 207.65 6.35 207.7 7.1 207.7 7.85 207.65 8.2 207.45 8.6 207.2 9.0 207.2 11.6 207.2 14.6 206.8 15.75 206.2 17.25 206.2 17.6 206.2 18.0 206.2 18.35 206.15 18.7 205.95 19.1 205.7 19.5 205.7 19.85 205.7 20.25 205.45 20.6 205.2 21.0 205.2 21.35 205.2 21.75 203.9 23.6 203.1 24.65 203.15 24.75 203.3 25.1 204.45 26.25 205.8 27.6 206.55 28.05 207.3 28.6 207.45 28.75 208.05 29.0 208.45 29.2 209.05 29.5 212.95 29.75 213.55 30.0 217.7 30.0 Q224.15 28.5 230.45 26.25 L233.95 26.25 236.0 27.1 Q236.8 27.45 237.2 28.25 L237.15 28.6 237.05 29.0 236.8 29.35 235.8 29.85 234.8 30.35 234.45 30.75 234.2 31.0 233.95 31.1 233.3 31.35 232.95 31.75 232.7 32.0 232.45 32.1 231.8 32.35 230.3 33.85 229.2 35.0 228.75 36.15 227.9 37.6 227.7 38.0 227.7 38.35 227.7 38.75 Q227.25 39.25 227.05 39.85 L226.35 41.4 226.2 41.75 226.2 42.5 226.2 43.25 226.2 44.0 226.05 44.35 225.9 44.75 225.7 45.1 225.65 46.6 225.7 48.1 225.7 49.25 225.85 49.6 226.05 50.0 226.2 50.35 226.2 50.75 226.2 51.1 226.25 51.45 226.45 51.85 226.7 52.25 226.7 52.6 226.7 53.0 227.7 54.85 228.45 56.35 228.7 56.75 228.7 57.1 228.7 57.5 228.95 57.85 229.15 58.25 229.3 58.6 230.05 59.35 230.8 60.1 Q232.2 61.05 233.95 61.25 L234.45 61.35 Q236.9 61.2 239.05 60.05 239.95 59.6 240.95 59.25 L241.4 59.3 242.0 59.55 242.45 59.85 Q242.85 60.35 242.75 61.0 242.65 61.55 242.7 62.1 L242.7 62.85 242.35 64.1 241.75 65.15 241.7 65.5 Q241.4 67.05 240.5 68.45 L238.6 71.9 238.45 72.25 238.05 72.6 237.7 73.0 237.55 73.35 237.45 73.75 Q233.75 78.15 228.35 79.95 L225.45 80.75 223.45 81.25 219.95 81.25 Q216.55 80.55 213.4 79.25 L212.7 79.0 212.3 78.6 212.05 78.35 211.9 78.25 211.2 78.0 210.45 77.25 209.3 76.1 209.2 76.35 209.2 76.75 209.2 77.1 209.45 77.85 209.65 78.6 209.7 79.0 210.05 79.65 210.75 80.85 210.95 81.25 211.7 82.0 Q212.2 82.5 212.2 83.1 L211.75 83.8 211.15 84.45 210.95 84.6 210.45 84.7 209.45 84.75 197.7 83.0 196.95 82.25 196.2 81.5 195.9 81.3 195.2 81.0 194.8 80.6 194.55 80.35 193.35 79.85 191.7 79.0 191.3 78.6 191.05 78.35 190.9 78.25 190.2 78.0 189.45 77.25 188.7 76.5 Q185.2 74.6 181.2 73.9 L179.7 73.5 172.05 73.5 Q170.9 73.85 169.8 74.35 L168.8 74.85 168.45 75.25 168.05 75.6 167.7 76.0 167.55 76.35 167.4 76.75 167.2 77.15 167.05 77.5 167.55 78.15 168.55 79.0 173.45 79.25 174.05 79.55 174.4 79.9 174.7 80.25 174.65 80.6 174.55 81.0 174.3 81.35 173.9 81.6 173.3 81.85 172.95 82.25 172.7 82.6 172.3 83.35 Q169.55 85.0 166.55 85.9 L163.45 86.75 157.95 86.75 Q156.75 86.25 155.45 86.25 L154.45 86.25 Q151.0 86.05 148.7 84.25 L148.7 83.85 148.8 83.55 149.25 83.05 149.55 82.6 152.9 81.6 155.2 81.0 155.55 80.6 155.95 80.25 156.3 79.85 158.05 76.8 159.75 73.15 160.2 72.35 160.2 72.0 160.2 71.6 160.4 71.2 160.75 70.5 161.15 69.7 161.3 69.35 162.45 68.25 164.7 66.0 165.05 65.6 Q166.95 64.55 168.95 63.8 170.9 63.1 172.95 62.75 L176.45 62.75 181.9 63.8 182.55 64.0 183.2 64.0 182.8 63.6 182.45 63.25 182.05 62.85 181.75 62.45 181.65 62.15 181.45 61.75 181.2 61.35 181.2 61.0 181.2 60.6 180.95 60.25 180.7 59.85 180.7 59.1 180.7 57.6 180.7 55.75 180.85 55.4 181.05 55.0 181.2 54.6 181.2 54.25 181.2 53.85 181.25 53.55 181.5 53.1 181.7 52.75 181.8 52.35 182.55 51.6 184.05 50.1 184.7 49.5 184.95 49.4 186.7 48.95 187.45 48.75 191.45 48.75 Q193.6 49.55 195.15 51.3 L198.3 54.6 198.45 54.7 199.05 55.0 199.4 55.4 199.7 55.75 200.3 56.1 200.55 56.5 200.7 56.85 200.95 57.25 201.3 57.6 201.7 58.0 201.95 58.25 207.45 60.7 211.05 62.0 212.2 62.0 213.7 61.55 216.2 61.0 215.9 60.8 214.2 59.95 213.2 59.5 212.8 59.1 212.45 58.75 212.05 58.35 211.2 58.0 210.8 57.6 210.05 56.85 209.3 56.1 209.2 55.75 209.05 55.35 208.3 54.65 206.9 53.15 206.45 52.75 205.6 51.15 203.9 48.25 203.7 47.85 203.7 47.5 203.7 47.1 203.45 46.75 203.2 46.35 203.2 46.0 203.2 45.6 203.2 45.25 203.0 44.9 202.7 44.5 202.7 44.1 202.7 43.35 202.7 42.6 202.7 42.25 202.85 41.9 203.35 40.75 Q203.45 39.95 203.95 39.25 L204.1 39.0 202.7 37.95 201.7 37.5 201.3 37.1 201.05 36.85 200.9 36.75 200.2 36.5 199.5 35.8 197.95 34.25 197.55 33.85 197.3 33.45 196.8 32.3 196.2 31.25 196.2 30.85 196.2 30.5 196.2 30.1 196.2 29.75 196.2 29.35 196.05 29.0 195.85 28.6 195.7 28.25 195.7 27.85 195.7 27.5 195.35 26.8 194.4 24.95 193.95 23.75 193.55 23.35 193.25 22.95 193.2 22.6 193.05 22.4 192.9 22.25 192.2 22.0 188.05 22.0 187.3 22.4 Q186.5 22.85 185.6 23.1 L184.8 23.35 184.45 23.75 184.05 24.1 183.7 24.5 183.55 24.85 183.2 25.6 182.8 26.35 182.45 26.5 181.2 26.35 180.8 26.1 180.75 25.75 180.7 25.0 180.7 24.25 180.7 23.85 180.75 23.55 181.0 23.1 181.2 22.75 181.3 22.35 181.7 22.0 182.05 21.6 182.2 21.25 182.3 20.85 182.7 20.5 183.05 20.1 183.2 19.75 183.3 19.35 183.7 19.0 184.45 18.25 185.2 17.5 186.05 17.1 186.45 16.75 186.8 16.35 187.2 16.0 187.95 15.8 188.65 15.65 188.95 15.35 189.95 15.3 189.95 15.25 190.2 15.25 192.7 15.0 Q195.5 13.45 198.5 12.5 L198.95 12.25 199.25 11.85 199.7 11.15 199.95 10.75 200.7 10.0 201.8 8.85 202.6 7.3 203.3 5.85 203.7 5.5 204.05 5.1 204.45 4.75 204.65 4.35 204.7 4.0 205.4 3.2 Q205.8 2.75 206.45 2.8 L206.45 2.75 207.05 3.05 207.45 3.35 207.6 4.15 207.65 5.6 M203.3 10.85 Q200.75 15.15 195.9 16.45 194.6 16.85 193.55 17.55 L193.3 17.85 192.95 18.25 192.65 18.45 192.45 18.6 191.95 18.65 191.2 18.45 190.8 18.1 190.35 18.05 188.6 18.6 187.8 18.85 192.95 19.25 194.5 20.2 196.3 22.1 196.65 22.85 197.65 24.75 198.2 25.85 198.2 26.25 198.2 26.6 198.2 27.0 198.25 27.35 198.4 27.75 198.55 28.1 198.7 28.5 198.7 28.85 198.7 29.25 198.7 29.6 198.75 29.95 199.15 30.75 199.7 31.85 199.95 32.25 200.3 32.6 201.45 33.75 202.45 34.75 203.05 35.05 203.55 35.4 203.8 35.6 208.5 36.75 Q208.85 36.85 209.2 37.25 L209.2 37.6 209.15 38.0 209.05 38.35 208.95 38.75 208.65 38.95 207.8 39.4 206.8 39.85 206.45 40.6 205.85 42.15 205.45 43.25 205.55 43.6 205.7 44.0 205.7 44.35 205.7 44.75 205.85 45.1 206.05 45.5 206.2 45.85 206.2 46.25 206.2 46.6 206.25 46.95 206.55 47.35 206.95 47.75 207.05 48.1 207.15 48.5 207.2 48.85 207.45 49.25 208.0 50.0 208.45 50.75 209.6 51.85 211.15 53.75 211.3 54.1 211.7 54.5 212.45 55.25 213.45 56.25 214.05 56.55 214.55 56.9 214.8 57.1 214.95 57.25 215.55 57.5 216.55 58.0 217.45 58.75 219.6 59.2 Q221.3 59.4 222.2 60.75 L222.15 61.1 222.05 61.5 221.8 61.85 Q218.7 63.8 215.1 64.2 L212.45 64.75 210.95 64.75 204.0 62.1 201.2 61.0 198.55 58.35 195.55 55.35 194.7 55.0 193.95 54.25 192.05 52.35 191.7 52.0 191.4 51.8 190.7 51.5 187.55 51.5 186.95 51.75 186.2 52.0 185.8 52.35 185.05 53.1 184.3 53.85 184.15 54.25 183.95 54.6 183.7 55.0 183.7 55.35 183.7 55.75 183.7 56.1 183.55 56.5 183.35 56.9 183.2 57.25 183.2 57.6 183.2 58.0 183.25 58.35 183.7 59.5 184.2 61.0 184.55 61.35 184.95 61.75 185.05 62.1 185.2 62.5 185.55 62.85 186.7 64.0 187.7 65.0 187.8 65.1 Q188.45 65.3 189.0 65.65 L189.7 66.25 189.65 66.6 189.55 67.35 189.4 67.7 189.2 68.0 188.95 68.05 187.95 68.15 186.95 68.25 Q181.4 66.45 175.7 65.5 L173.05 65.5 172.4 65.7 170.55 66.0 169.4 66.6 166.8 67.85 166.45 68.25 165.55 69.0 165.05 69.35 164.9 69.7 164.2 70.5 163.45 71.25 161.75 75.75 160.35 79.2 159.55 80.35 158.8 81.35 158.45 81.75 157.7 82.5 157.3 82.85 156.4 83.35 157.95 83.75 158.55 84.0 163.2 84.0 Q165.95 83.5 168.45 82.3 168.8 82.1 169.2 82.0 167.9 81.95 166.9 81.3 L166.2 81.0 165.45 80.25 164.3 79.1 164.2 78.75 164.2 78.35 164.2 77.6 164.2 77.25 164.55 76.1 Q164.75 75.3 165.2 74.6 L165.45 74.25 165.8 73.85 166.2 73.5 166.55 73.1 166.95 72.9 167.55 72.6 167.95 72.25 168.2 72.0 Q169.05 71.55 169.95 71.25 L171.95 70.75 180.45 70.75 Q185.25 71.8 189.5 73.95 L189.95 74.25 Q190.85 74.5 191.45 75.2 L192.45 76.25 Q194.25 77.1 195.95 78.15 L197.95 79.75 198.55 80.05 199.05 80.35 201.45 80.75 202.05 81.0 207.2 81.0 207.2 80.6 207.2 80.25 207.2 79.85 207.05 79.5 206.85 79.1 206.7 78.75 206.7 78.35 206.7 78.0 206.7 77.25 206.7 76.85 206.55 76.5 206.35 76.1 206.2 75.75 206.2 75.35 206.2 75.0 206.2 74.25 206.2 73.85 206.25 73.55 206.5 73.1 206.7 72.75 206.7 72.35 206.75 72.05 207.05 71.6 207.45 71.4 207.95 71.25 208.45 71.25 209.05 71.5 209.6 72.3 210.2 73.35 210.45 73.75 210.8 74.1 211.2 74.5 211.45 74.75 212.5 75.45 213.3 76.1 Q216.15 77.8 219.4 78.3 L220.05 78.5 222.7 78.5 Q226.75 77.75 230.5 75.95 L231.7 75.5 232.05 75.1 232.45 74.75 232.7 74.5 232.95 74.35 233.5 74.05 233.95 73.75 235.3 71.85 236.2 70.0 236.55 69.6 236.95 69.25 237.3 68.85 237.55 68.5 237.65 68.1 237.7 67.75 237.85 67.4 238.2 67.0 238.55 66.6 238.65 66.25 238.7 65.85 238.7 65.5 239.0 65.1 239.2 64.75 239.2 64.35 239.2 64.0 239.5 63.6 239.65 63.25 239.7 62.85 237.4 63.6 234.95 64.25 Q232.9 64.0 230.95 63.25 L230.2 63.0 229.8 62.6 229.55 62.35 229.4 62.25 228.7 62.0 228.3 61.6 227.95 61.25 227.55 60.85 225.95 57.9 224.2 54.5 224.2 54.1 224.2 53.75 224.0 53.4 223.7 53.0 223.7 52.6 223.7 52.25 223.7 51.85 223.55 51.5 223.35 51.1 223.2 50.75 223.15 48.1 223.2 45.5 223.2 44.35 223.25 44.05 223.5 43.6 223.7 43.25 223.7 42.5 223.7 41.75 223.7 41.0 223.95 40.25 Q224.15 39.6 224.5 39.1 L224.7 38.75 224.7 38.35 224.7 38.0 225.15 37.2 225.6 36.1 225.7 35.75 225.85 35.4 226.2 35.0 226.55 34.6 226.7 34.25 226.8 33.85 227.2 33.5 227.55 33.1 227.7 32.75 227.8 32.35 228.55 31.6 229.7 30.5 230.55 30.1 230.95 29.75 231.2 29.5 231.45 29.35 232.05 29.1 217.95 32.75 212.95 32.75 Q209.6 32.8 206.7 31.5 L206.3 31.1 206.05 30.85 205.9 30.75 205.2 30.5 204.8 30.1 204.55 29.85 204.4 29.75 203.7 29.5 202.55 28.35 201.45 27.25 201.0 26.5 200.8 26.15 199.95 26.15 Q198.9 26.15 198.7 25.25 L198.7 24.85 198.75 24.55 199.05 24.1 199.45 23.75 199.8 23.35 200.2 23.0 201.05 22.6 201.4 22.25 201.65 21.85 201.7 21.5 202.05 21.1 202.45 20.75 202.65 20.35 202.7 20.0 202.7 19.6 202.95 19.25 203.2 18.85 203.2 18.5 203.2 18.1 203.45 17.75 203.7 17.35 203.7 17.0 203.7 16.6 203.7 16.25 204.05 15.1 Q204.25 14.3 204.7 13.6 L204.7 11.75 204.55 9.5 204.4 9.7 203.7 10.5 203.3 10.85 M172.05 16.0 L172.4 16.4 172.65 16.75 172.85 17.1 173.35 17.9 173.7 18.6 173.55 19.0 173.3 19.35 172.9 19.6 172.45 19.75 171.95 19.7 171.2 19.5 170.8 19.1 170.55 18.85 169.95 18.7 169.2 18.55 167.45 18.2 166.7 18.0 159.55 18.0 158.9 18.15 156.55 18.55 155.95 18.75 151.95 18.75 151.2 18.45 150.8 18.1 150.7 17.75 150.7 17.35 150.7 17.0 150.65 16.65 150.45 16.25 150.2 15.85 150.2 15.5 150.2 15.1 150.2 14.75 150.2 14.35 150.2 14.0 150.2 13.6 150.2 13.25 150.35 12.9 150.55 12.5 150.7 12.15 150.95 11.75 151.3 11.35 151.7 11.05 152.55 10.6 152.95 10.4 153.95 9.9 154.45 9.75 156.45 9.75 Q159.25 9.95 161.95 10.7 164.7 11.5 166.95 13.25 L167.95 13.75 168.55 14.0 169.95 14.65 Q170.85 15.0 171.45 15.75 L172.05 16.0 M169.0 24.1 Q172.1 25.45 174.85 27.4 L176.45 28.75 176.55 29.1 176.65 29.5 176.7 29.85 176.95 30.25 177.5 31.05 178.05 32.1 178.2 32.5 178.2 32.85 178.2 33.6 178.2 34.75 178.2 35.85 178.2 36.25 177.95 36.6 177.65 37.0 177.35 37.4 176.95 38.1 176.5 38.4 175.05 39.0 174.45 39.25 171.45 39.25 170.7 38.95 169.65 38.55 168.2 38.0 167.8 37.6 167.05 36.85 165.95 35.75 165.7 35.35 165.25 34.7 Q164.75 34.2 164.5 33.5 L164.3 33.1 163.95 32.75 163.2 32.0 162.05 30.85 161.65 30.6 158.95 29.75 158.2 29.5 155.05 29.5 154.45 29.7 153.55 30.0 152.95 30.25 152.45 30.2 151.7 29.95 151.35 29.6 151.2 29.25 151.2 28.85 151.25 28.55 151.5 28.1 151.8 27.35 152.2 27.0 152.55 26.6 153.6 26.15 Q156.25 25.05 159.05 24.2 L161.95 23.25 166.45 23.25 169.0 24.1 M172.3 28.6 L172.05 28.35 Q170.05 27.9 168.3 26.8 165.5 25.1 162.05 26.0 L161.4 26.2 159.55 26.55 158.95 26.75 161.05 27.45 Q162.35 27.85 163.55 28.55 L164.05 28.85 164.4 29.25 164.55 29.6 165.05 30.0 165.55 30.35 165.9 30.75 166.05 31.1 166.2 31.5 166.55 31.85 166.95 32.25 167.3 32.6 167.55 33.0 167.7 33.35 167.95 33.75 168.3 34.1 168.7 34.5 169.45 35.25 169.8 35.6 170.55 35.95 171.45 36.25 172.05 36.5 173.7 36.5 174.55 36.05 174.95 35.75 175.3 35.35 175.55 35.0 175.7 34.6 175.7 34.25 175.7 33.85 175.7 33.5 175.7 33.1 175.4 32.75 175.05 32.35 174.7 32.0 174.4 31.25 173.75 30.15 172.3 28.6 M192.9 31.4 L193.2 31.75 193.2 32.1 193.2 32.5 193.2 32.75 193.95 32.75 194.55 33.05 194.95 33.35 195.1 34.1 195.2 36.0 195.2 36.75 194.9 37.05 193.8 37.85 193.45 38.1 192.95 38.2 191.45 38.25 190.7 38.0 190.3 37.6 189.55 36.85 188.8 36.1 188.75 35.75 188.7 35.0 188.7 33.5 188.75 33.15 188.9 32.75 189.2 32.0 189.55 31.6 190.25 31.1 190.95 30.75 191.95 30.75 192.55 31.05 192.9 31.4 M192.45 33.6 L191.95 33.8 Q191.55 34.0 191.3 34.3 L191.2 34.6 191.3 34.9 192.1 35.4 192.55 35.5 192.65 34.75 192.6 33.75 192.45 33.6 M154.7 12.5 L153.9 13.1 153.0 13.8 152.7 14.1 152.7 14.5 152.75 14.85 152.9 15.25 153.05 15.6 155.7 16.0 Q160.1 14.95 164.7 15.0 160.65 12.6 155.7 12.5 L154.7 12.5 M128.3 23.85 Q129.9 22.8 131.95 22.8 L131.95 22.75 132.45 22.8 133.05 23.05 133.55 23.35 133.9 23.75 134.05 24.1 134.2 24.5 134.55 24.85 134.9 25.25 135.05 25.6 135.2 26.75 135.15 28.25 135.05 29.0 134.05 30.1 132.45 31.1 129.95 31.25 129.2 31.0 128.8 30.6 128.45 30.25 128.05 29.85 127.75 29.45 127.65 29.15 127.45 28.75 127.2 28.35 127.2 27.6 127.2 26.5 127.2 25.75 127.55 25.0 128.0 24.25 128.3 23.85 M132.35 26.6 L132.2 26.25 132.2 26.0 130.3 25.95 130.2 26.0 Q129.6 26.4 129.65 27.1 129.7 27.75 130.2 28.25 L130.8 28.4 132.05 28.1 132.35 27.7 132.55 27.0 132.35 26.6 M103.7 17.5 L103.7 19.75 103.7 20.5 103.75 20.85 103.9 21.25 104.05 21.6 104.2 22.0 104.2 24.6 104.2 28.0 104.2 28.35 104.15 28.7 103.95 29.1 103.7 29.5 103.7 29.85 103.7 30.25 102.6 32.1 101.3 34.35 100.95 34.75 100.7 35.0 100.45 35.1 99.8 35.35 99.05 36.1 98.3 36.85 97.95 37.1 97.3 37.35 96.95 37.75 96.7 38.0 95.95 38.2 93.95 38.75 90.45 38.75 89.7 38.4 89.7 38.5 89.95 38.85 90.2 39.25 90.2 40.0 90.2 41.1 90.2 41.85 89.65 43.4 88.95 45.25 89.05 45.6 89.2 46.0 89.2 46.35 89.2 46.75 90.45 50.5 91.7 53.85 91.7 54.25 91.7 54.6 91.75 54.95 91.95 55.35 92.2 55.75 92.25 59.85 92.05 64.0 91.8 64.35 91.45 64.75 91.15 64.95 90.95 65.1 90.45 65.15 89.7 64.9 89.3 64.6 89.2 64.25 89.2 63.85 89.2 63.5 89.15 63.15 88.95 62.75 88.7 62.35 88.7 62.0 88.7 61.6 88.7 61.25 88.5 60.9 88.2 60.5 87.8 60.1 87.7 59.75 87.55 59.35 86.05 57.85 84.95 56.75 83.9 54.75 82.7 53.0 82.7 52.6 82.7 52.25 82.5 51.9 82.2 51.5 82.2 48.85 82.2 45.85 82.25 45.55 82.5 45.1 82.7 44.75 82.7 44.35 82.7 44.0 83.85 42.2 84.8 39.85 85.55 39.1 86.3 38.35 86.7 37.6 87.45 36.9 87.95 36.75 88.15 36.75 88.15 36.5 88.2 35.0 88.2 34.25 Q89.6 32.45 91.3 30.85 L93.55 28.6 94.95 27.9 96.55 27.1 96.85 26.4 97.4 25.2 97.7 24.5 98.05 24.1 98.45 23.75 99.3 21.85 100.2 19.6 100.2 19.25 100.2 18.85 100.2 18.5 99.9 18.15 99.45 17.7 99.25 17.35 99.2 17.0 99.25 16.65 99.45 16.25 99.7 16.0 99.95 15.85 100.55 15.6 100.1 14.85 99.75 14.1 99.7 13.75 99.85 13.4 100.25 13.1 100.9 12.8 100.95 12.75 102.0 13.1 102.95 13.75 103.2 14.5 103.45 15.25 103.7 16.0 103.7 17.5 M101.45 23.6 L101.2 24.0 101.05 24.35 100.95 24.75 100.55 25.1 100.2 25.5 100.2 25.85 100.2 26.25 97.95 29.25 Q97.0 30.3 95.55 30.5 L95.05 30.85 Q93.7 32.65 91.85 34.1 91.05 34.75 90.7 35.75 93.15 36.5 96.05 35.1 L97.55 33.6 98.2 33.0 98.45 32.85 99.05 32.6 99.4 32.2 99.7 31.5 100.05 31.1 100.45 30.75 100.65 30.35 100.7 30.0 100.7 29.6 101.35 28.55 Q101.45 28.1 101.7 27.75 L101.7 25.85 101.55 23.65 101.45 23.6 M84.05 30.55 L84.55 30.9 84.95 31.25 85.55 31.5 85.9 31.9 86.3 32.6 86.7 33.35 86.7 33.75 86.7 34.85 86.65 36.0 86.55 36.35 86.4 36.7 85.3 37.85 84.7 38.5 84.45 38.6 83.85 38.9 83.45 39.1 82.95 39.2 80.95 39.25 80.2 39.0 78.7 38.5 78.3 38.1 77.55 37.35 76.8 36.6 76.75 36.25 76.7 34.75 76.7 33.25 76.7 32.85 76.75 32.55 77.0 32.1 77.3 31.35 77.7 31.05 78.95 30.4 79.45 30.25 83.45 30.25 84.05 30.55 M82.7 36.5 L83.55 36.05 83.95 35.75 84.15 35.0 84.05 33.85 83.25 33.75 82.45 34.1 Q81.45 34.5 80.85 33.6 L80.7 33.25 80.65 33.1 79.8 32.95 79.7 33.0 Q79.0 33.55 79.05 34.5 L79.3 35.6 80.45 36.2 81.05 36.5 82.7 36.5 M86.95 41.75 L85.65 44.4 84.7 46.6 84.7 48.1 84.7 49.6 84.7 50.0 Q84.9 51.2 85.6 52.3 L86.7 54.5 88.5 56.4 89.7 57.25 89.5 56.9 89.25 56.45 89.2 56.1 89.2 55.75 89.2 55.35 88.55 53.9 88.2 52.75 88.2 52.35 88.2 52.0 Q88.2 51.35 87.8 50.8 L87.2 49.75 87.2 49.35 87.2 49.0 87.15 48.65 86.95 48.25 86.7 47.85 86.7 47.5 86.7 47.1 86.7 46.75 86.5 46.4 86.2 46.0 86.2 45.6 86.2 45.25 86.2 44.85 86.25 44.55 86.5 44.1 86.7 43.75 86.7 43.35 86.7 43.0 86.95 42.25 87.05 41.7 86.95 41.75 M88.05 67.0 L88.95 66.75 90.0 67.45 90.8 68.1 91.05 68.5 91.4 69.25 91.7 70.0 91.35 70.7 90.7 71.5 90.3 71.85 89.95 72.1 89.35 72.4 88.95 72.6 88.45 72.7 86.95 72.75 85.95 72.25 84.8 71.6 84.75 70.85 84.7 69.75 84.7 68.6 84.95 68.25 85.3 67.85 85.7 67.5 86.45 67.25 88.05 67.0 M75.95 3.25 L75.75 2.85 75.65 2.7 75.45 2.6 74.45 3.15 73.7 3.75 73.85 4.1 74.05 4.5 74.2 4.85 74.35 5.05 74.95 5.25 75.55 5.5 77.2 5.1 76.95 4.45 76.3 3.6 75.95 3.25 M67.8 12.1 L68.05 12.5 68.2 12.85 68.4 13.25 68.55 13.6 68.7 14.0 68.7 14.35 68.7 14.75 68.7 15.1 68.7 15.85 68.7 16.25 68.45 16.6 67.65 17.7 68.05 17.6 68.3 17.35 68.7 17.0 69.4 16.8 69.45 16.75 70.05 17.05 70.55 17.35 71.0 18.15 71.7 19.25 71.7 20.0 71.65 21.1 71.55 21.85 71.05 22.6 69.95 23.6 67.45 23.75 66.7 23.5 66.3 23.1 65.55 22.35 65.2 22.0 65.2 21.25 65.2 19.75 65.2 19.2 62.95 19.25 62.2 18.95 61.9 18.8 61.2 18.5 60.8 18.1 60.05 17.35 59.3 16.6 59.2 16.25 59.0 15.9 58.7 15.5 58.7 15.1 58.7 14.35 58.7 13.6 58.7 12.5 59.05 12.1 59.8 11.35 60.95 10.4 61.45 10.25 64.45 10.25 65.1 10.45 Q66.2 10.65 67.05 11.4 L67.8 12.1 M65.2 13.5 Q63.8 12.45 62.05 13.0 L61.65 13.4 61.2 14.1 61.25 14.45 61.45 14.85 61.7 15.25 62.3 15.65 62.95 16.25 63.55 16.5 64.7 16.5 65.65 15.7 65.8 15.35 65.8 14.6 Q65.7 13.9 65.2 13.5 M68.8 19.9 L68.55 20.0 Q68.15 20.2 67.7 20.35 L67.75 20.6 68.8 20.7 69.05 20.5 69.15 20.1 69.05 19.9 68.8 19.9 M18.5 18.25 Q19.1 18.7 19.3 19.35 L19.6 20.15 19.75 20.5 19.75 22.0 19.75 23.1 19.75 24.25 18.85 25.35 18.2 25.95 18.0 26.1 Q16.85 26.55 15.95 25.8 L14.85 25.1 13.05 22.05 11.25 18.35 11.25 17.6 11.25 16.85 11.25 16.5 Q11.25 15.85 11.5 15.25 11.75 14.65 12.5 14.4 L13.0 14.25 13.5 14.35 14.0 14.35 14.5 14.25 Q15.7 14.25 16.55 15.2 L18.0 16.75 18.1 17.1 18.25 17.5 18.35 17.85 18.5 18.25 M13.75 17.0 L14.35 18.9 15.0 20.75 16.1 22.2 16.6 23.0 Q17.4 23.35 17.3 22.5 L17.25 21.35 16.15 19.1 15.35 17.6 14.95 17.3 Q14.45 17.05 13.85 16.95 L13.75 17.0 M9.85 45.85 L10.3 45.6 10.95 45.3 11.0 45.25 12.5 45.25 13.1 45.55 13.6 45.85 13.95 46.3 14.3 46.95 14.75 47.75 14.75 48.1 14.75 48.5 15.1 48.85 15.45 49.25 15.6 49.6 15.7 50.0 15.75 50.35 15.75 50.75 15.9 51.1 16.1 51.5 16.25 51.85 16.25 52.25 16.25 52.6 16.25 53.0 16.25 53.35 16.2 53.7 16.0 54.1 15.65 54.85 15.5 55.25 15.1 55.6 14.75 56.0 14.0 56.6 13.5 56.7 12.0 56.75 11.25 56.45 10.95 56.3 10.25 56.0 9.85 55.6 9.5 55.25 9.1 54.85 8.8 54.45 8.7 54.15 8.5 53.75 8.25 53.35 8.25 53.0 8.25 52.6 8.25 52.25 8.05 51.9 7.75 51.5 7.75 51.1 7.75 50.75 7.75 50.35 7.75 50.0 7.8 49.65 8.0 49.25 8.25 48.85 8.25 48.5 8.25 48.1 8.25 47.75 8.4 47.4 9.1 46.6 9.85 45.85 M11.5 48.1 L11.2 48.5 10.85 48.85 10.75 49.25 10.55 49.95 10.35 50.35 10.5 50.75 10.6 51.1 10.75 51.5 10.75 51.85 10.75 52.25 11.5 53.35 12.25 54.0 12.35 54.05 13.1 54.0 13.25 53.65 13.5 53.25 13.75 52.85 13.6 52.5 13.4 52.1 13.25 51.75 13.25 51.35 13.25 51.0 13.25 50.6 12.95 50.25 12.6 49.85 12.25 49.5 11.9 48.8 11.6 48.05 11.5 48.1 M29.5 42.75 Q30.6 43.15 31.4 44.1 32.5 45.45 33.1 47.1 L33.25 47.5 33.25 47.85 33.25 48.25 33.25 48.6 33.25 49.35 33.2 49.7 33.0 50.15 32.65 50.85 32.5 51.25 32.1 51.6 31.75 52.0 31.6 52.35 31.5 52.75 31.25 52.95 31.0 53.1 30.4 53.4 30.0 53.6 26.0 53.75 25.25 53.5 24.85 53.1 24.1 52.35 23.35 51.6 23.25 51.25 23.05 50.9 22.75 50.5 22.75 50.1 22.75 49.35 22.75 48.6 22.75 47.85 22.8 47.55 23.05 47.1 23.25 46.75 23.35 46.35 23.75 46.0 24.1 45.6 24.25 45.25 24.35 44.85 24.75 44.55 26.0 43.9 26.6 43.6 27.0 43.25 27.25 43.0 27.5 42.9 28.0 42.75 29.5 42.75 M28.85 45.85 L27.95 46.2 26.8 46.6 Q26.55 46.7 26.35 46.85 L25.8 47.65 25.55 47.95 Q25.15 48.45 25.25 49.1 L25.55 49.85 25.7 50.25 25.85 50.6 Q27.8 52.3 29.6 50.6 L30.15 49.8 30.3 49.5 30.75 48.75 Q30.8 48.1 30.45 47.55 L29.5 45.95 Q29.25 45.5 28.85 45.85 M8.6 63.0 L8.95 63.4 9.35 64.1 9.75 64.85 9.75 65.25 9.75 66.35 9.75 68.25 9.5 68.6 8.05 70.05 7.0 70.75 5.0 70.75 4.3 70.45 3.85 70.1 3.5 69.7 3.3 69.35 3.25 69.0 3.25 68.6 3.25 67.5 3.25 66.0 3.3 65.65 3.45 65.25 3.75 64.5 4.1 64.1 4.5 63.75 4.85 63.35 5.3 63.1 5.95 62.8 6.0 62.75 8.0 62.75 8.6 63.0 M6.25 65.8 L6.25 65.85 6.0 66.6 5.75 67.35 Q5.6 68.3 6.4 67.75 L7.1 67.1 Q7.4 66.55 7.1 66.0 6.9 65.55 6.25 65.8 M-9.25 -119.5 L-9.0 -118.75 -8.75 -118.0 -8.75 -117.25 -8.75 -116.5 -8.75 -115.75 Q-9.1 -115.1 -9.6 -114.6 -10.4 -113.65 -11.5 -113.25 L-14.0 -113.25 -14.75 -113.5 -15.5 -114.25 -16.25 -115.0 -16.65 -115.4 -16.8 -116.5 -16.75 -118.0 -16.75 -118.75 -16.4 -119.5 -15.95 -120.2 -15.65 -120.65 Q-14.45 -121.65 -12.75 -121.65 L-12.0 -121.75 -11.0 -121.25 -9.9 -120.6 -9.5 -120.25 -9.25 -119.5 M-13.75 -118.5 Q-14.35 -118.1 -14.35 -117.4 -14.4 -116.75 -14.0 -116.25 -12.8 -115.05 -11.4 -116.4 -11.1 -116.95 -11.35 -117.5 -11.6 -118.05 -12.0 -118.4 L-13.25 -118.5 -13.75 -118.5 M-38.5 9.25 L-38.0 9.3 -37.4 9.5 -37.0 9.85 -36.75 10.1 Q-35.5 10.6 -34.4 11.4 L-33.4 12.5 Q-33.2 13.05 -33.25 13.6 L-33.25 15.1 -33.25 15.5 -33.55 16.2 -34.15 17.35 -34.5 17.75 -34.75 17.95 -35.0 18.1 -38.0 18.25 -38.75 18.0 -39.5 17.25 -40.65 16.1 -40.8 14.25 -40.75 12.75 -40.75 12.0 -40.7 11.65 -40.55 11.25 -40.25 10.5 -39.55 9.7 Q-39.15 9.25 -38.5 9.3 L-38.5 9.25 M-35.9 14.0 L-36.15 13.6 Q-36.6 12.85 -37.55 12.9 -38.05 12.95 -38.25 13.25 L-38.2 14.35 -38.15 15.1 Q-36.55 16.4 -35.75 14.75 L-35.8 14.35 -35.9 14.0 M-60.3 42.6 L-60.2 42.25 -60.15 41.85 -59.7 41.6 -59.0 41.3 -59.0 41.25 -58.0 41.25 -57.4 41.5 -56.75 41.5 -56.0 41.25 -54.45 42.2 -53.4 43.35 -53.0 43.75 -52.9 44.1 -52.75 44.5 -52.5 44.85 -52.25 45.25 -52.25 45.6 -52.25 46.35 -52.3 47.1 -52.4 47.85 -52.55 48.2 -53.25 49.0 -53.65 49.35 -54.0 49.6 -57.0 49.75 -57.75 49.45 -58.05 49.3 -58.75 49.0 -59.1 48.6 -59.25 48.25 -59.4 47.85 -59.75 47.5 -60.15 47.1 -60.5 46.75 -60.75 46.35 -60.75 46.0 -60.75 45.25 -60.75 44.5 -60.75 43.75 -60.6 43.4 -60.4 43.0 -60.3 42.6 M-58.15 44.8 L-58.25 45.1 -58.2 45.45 -57.9 45.85 -57.15 46.6 -54.9 47.0 Q-54.9 46.05 -55.65 45.15 L-56.75 43.7 Q-56.8 43.6 -57.0 43.6 L-57.4 44.0 -58.15 44.8 M-46.65 48.85 L-46.2 48.6 -45.5 48.3 -45.5 48.25 -45.0 48.25 -44.5 48.25 -43.4 48.9 -43.0 49.25 -42.6 50.75 -41.9 52.6 -41.75 53.0 -41.75 55.25 -41.75 58.25 -41.75 58.6 -42.1 59.35 -42.3 59.75 -42.5 60.1 -43.65 60.8 -44.5 61.25 Q-45.4 61.4 -46.1 60.85 -46.55 60.45 -47.15 60.1 L-48.0 59.05 -48.5 57.5 Q-48.55 57.1 -48.75 56.75 L-48.75 56.35 -48.75 56.0 -48.7 55.65 -48.5 55.25 -48.25 54.85 -48.25 54.5 -48.25 54.1 -48.25 53.75 -48.25 53.35 -48.2 53.05 -47.9 52.6 -47.75 52.25 -47.75 51.85 -47.75 51.5 -47.4 50.25 -46.8 49.2 -46.65 48.85 M-45.2 52.5 L-45.25 52.85 -45.25 53.25 -45.5 53.6 -45.75 54.0 -45.75 54.75 -45.75 55.5 -45.9 55.85 -46.0 56.25 -45.75 57.0 -45.5 57.75 -44.85 57.85 -44.25 57.35 -44.25 55.85 -44.25 54.0 -44.3 53.65 -44.75 52.85 -44.75 52.5 -44.8 52.15 -44.9 52.05 -45.0 52.1 -45.2 52.5 M-59.15 73.9 Q-58.75 74.45 -58.75 75.1 L-58.75 75.5 -58.7 75.85 -58.4 76.6 -58.25 77.0 -58.25 77.75 -58.25 78.85 -58.25 80.0 -58.4 80.35 -58.5 80.75 -58.9 81.5 -59.15 81.85 -59.5 82.25 -60.4 82.95 -61.0 83.25 -63.0 83.25 -63.75 83.0 -65.25 82.5 -65.65 82.1 -66.4 81.35 -67.15 80.6 -67.3 79.5 -67.25 77.25 -67.25 76.1 -66.6 75.4 -65.5 74.25 -65.25 74.0 -65.0 73.85 -64.4 73.6 -64.0 73.25 -63.75 73.0 -63.5 72.85 -62.85 72.65 -62.05 72.3 -62.0 72.25 -61.0 72.25 -60.4 72.55 -59.9 72.85 -59.55 73.3 -59.15 73.9 M-67.95 60.95 L-67.15 61.65 -66.9 62.0 -66.7 63.1 -66.7 65.35 Q-66.65 65.95 -66.9 66.5 L-67.55 67.2 -68.4 67.95 -69.0 68.25 -71.5 68.25 -72.2 67.95 -72.65 67.6 -72.95 67.2 -73.4 66.5 -73.75 65.75 -73.75 65.35 -73.75 65.0 -73.75 64.6 -73.75 63.85 -73.7 63.55 -73.4 63.1 -73.25 62.75 -73.15 62.35 -72.75 62.0 -72.4 61.6 -72.0 61.4 -71.4 61.1 -71.0 60.75 -70.75 60.5 -70.5 60.4 -70.0 60.25 -69.0 60.25 -67.95 60.95 M-70.9 65.5 L-70.75 65.55 -69.4 65.1 Q-69.2 64.55 -69.25 64.0 -69.3 63.55 -70.0 63.65 L-70.5 63.75 -71.05 64.55 Q-71.25 65.05 -70.9 65.5 M-62.95 75.9 L-64.2 76.8 -64.5 77.1 -64.7 77.85 -64.75 78.25 -64.75 78.6 -64.75 79.0 -64.4 79.35 -64.0 79.75 -63.65 80.1 -62.9 80.5 -61.4 80.1 -61.0 79.7 -60.8 79.35 -60.75 79.0 -60.75 78.6 -60.75 78.25 -60.75 77.85 -61.15 76.7 Q-61.3 75.95 -61.9 75.35 L-62.25 75.25 -62.95 75.9 M-33.9 74.05 L-33.0 74.75 -32.65 75.1 -32.4 75.5 -32.25 75.85 -31.9 76.6 -31.75 77.0 -31.75 77.35 -31.75 78.5 -31.75 80.35 -31.75 80.75 -32.0 81.1 -32.65 81.85 -33.5 82.6 -34.0 82.7 -36.0 82.75 -36.75 82.5 -37.15 82.1 -38.25 81.0 -39.0 80.25 -39.25 79.85 -39.4 79.5 -39.7 78.7 -39.75 78.35 -39.7 78.05 -39.4 77.6 -39.25 77.25 -39.25 76.85 -39.25 76.5 -39.2 76.15 -39.0 75.75 -38.8 75.35 -38.75 75.0 -38.4 74.6 -37.7 74.1 -37.0 73.8 -37.0 73.75 -34.5 73.75 -33.9 74.05 M-22.0 67.85 L-21.8 68.25 -21.75 68.6 -21.75 69.0 -21.5 69.35 -21.25 69.75 -21.25 71.25 -21.25 72.75 -21.25 73.85 -21.3 74.2 -21.5 74.6 -21.75 75.0 -21.75 75.35 -21.75 75.75 -22.3 76.45 -23.3 77.45 -23.5 77.6 -26.0 77.75 -26.75 77.5 -27.15 77.1 -27.5 76.75 -27.9 76.35 -28.2 75.95 -28.25 75.6 -28.25 75.25 -28.4 74.9 -28.75 74.5 -28.75 74.1 -28.75 73.75 -28.75 73.0 -28.7 72.65 -28.5 72.25 -28.25 71.85 -28.25 70.75 -28.25 69.6 -28.25 68.85 -28.2 68.5 -27.95 67.7 -27.75 67.0 -27.4 66.6 -27.25 66.25 -27.25 65.85 -27.25 65.5 -26.55 64.7 Q-26.15 64.25 -25.5 64.3 L-25.5 64.25 -24.9 64.5 -24.5 64.9 -24.3 65.25 -24.25 65.6 -23.0 66.75 -22.0 67.85 M-25.75 69.5 L-25.75 71.0 -25.75 72.5 -25.9 72.85 -26.0 73.25 -26.05 73.6 -25.9 74.0 -25.75 74.35 -25.65 74.65 -25.15 75.0 -24.5 74.85 -24.2 74.15 -23.75 73.35 -23.75 71.85 -23.75 70.75 -24.55 69.25 Q-24.95 68.45 -25.5 68.75 L-25.65 69.1 -25.75 69.5 M-34.4 77.35 Q-34.9 76.65 -35.75 76.5 L-36.25 76.5 Q-36.85 76.9 -36.9 77.6 L-36.75 78.75 -36.6 79.05 -35.9 79.85 -35.6 80.0 -34.75 80.0 -34.25 79.6 -34.25 78.5 Q-34.2 77.9 -34.4 77.35" fill="#ffcc00" fill-rule="evenodd" stroke="none"/>
    <path d="M75.75 -118.9 L75.75 -118.95 76.2 -118.35 76.75 -117.25 76.75 -116.9 76.75 -116.5 77.65 -115.0 78.75 -112.75 78.75 -112.4 78.75 -112.0 78.75 -111.65 79.15 -110.85 79.75 -109.75 79.75 -107.5 79.75 -105.25 79.6 -104.9 79.25 -104.15 79.15 -103.4 78.85 -102.65 Q78.1 -102.8 77.85 -103.7 L77.5 -105.25 77.1 -105.6 76.0 -106.25 75.3 -105.9 Q74.85 -105.65 74.5 -105.25 L74.25 -104.5 74.0 -103.75 72.75 -103.0 70.6 -103.4 70.0 -104.45 Q69.65 -105.0 69.75 -105.65 L70.0 -106.35 70.75 -107.5 71.95 -107.9 Q72.8 -108.25 73.5 -108.75 L73.6 -109.15 73.75 -109.5 74.1 -109.9 74.85 -110.65 75.55 -112.15 76.25 -114.0 76.25 -115.5 76.25 -117.0 76.1 -117.35 75.85 -118.15 75.75 -118.9 M39.25 -105.75 L39.25 -105.8 Q40.15 -106.0 40.25 -105.15 40.3 -104.35 40.75 -103.65 L40.85 -101.75 Q41.0 -100.45 40.25 -99.5 L39.75 -99.35 Q38.95 -99.3 38.75 -100.15 L38.75 -101.65 38.75 -103.5 39.0 -104.25 39.25 -105.0 39.25 -105.4 39.25 -105.75 M75.15 -77.95 L75.55 -77.65 75.65 -76.9 75.65 -75.75 75.55 -75.4 75.15 -75.15 74.2 -75.0 73.45 -75.8 73.2 -76.15 73.2 -76.9 73.2 -77.65 73.2 -78.0 74.45 -78.25 75.15 -77.95 M51.2 -71.9 L51.2 -73.0 Q51.8 -73.35 52.15 -72.55 L52.7 -71.0 52.7 -70.65 52.7 -70.25 52.8 -69.6 52.3 -69.0 51.9 -69.6 51.2 -70.75 51.2 -71.9 M63.3 -60.15 L63.9 -60.45 64.7 -61.0 Q65.3 -61.35 65.25 -60.5 L65.2 -59.4 65.2 -58.25 65.0 -57.9 64.7 -57.5 64.65 -57.15 64.55 -56.75 64.1 -56.35 63.7 -56.0 63.65 -55.65 63.4 -55.25 63.05 -54.9 62.2 -54.5 61.25 -54.65 61.05 -54.9 60.9 -55.25 60.75 -55.65 60.7 -56.0 60.75 -56.35 61.35 -57.45 61.8 -58.65 62.55 -59.4 63.3 -60.15 M54.5 -35.85 L54.7 -35.5 Q54.7 -34.85 54.25 -34.35 L53.8 -33.65 53.0 -33.85 52.7 -34.15 52.85 -35.2 53.2 -36.0 54.5 -35.85 M56.45 -1.25 L56.8 -1.65 57.15 -2.0 57.45 -2.4 57.5 -2.45 57.75 -2.05 58.2 -1.25 58.2 -0.9 58.2 0.6 58.2 2.1 58.05 2.45 Q57.65 3.15 57.4 3.95 L57.05 5.1 56.7 5.5 56.35 5.9 56.2 6.25 56.05 6.45 54.7 6.25 54.7 5.85 54.7 4.0 54.7 2.5 54.95 2.1 55.2 1.75 Q55.25 0.95 55.6 0.2 L56.45 -1.25 M92.05 -72.65 L92.45 -72.25 92.8 -71.9 93.2 -71.5 94.05 -71.15 94.45 -70.75 95.2 -70.0 95.95 -69.25 96.15 -68.85 96.5 -68.1 96.7 -67.4 95.4 -66.85 94.45 -66.65 93.95 -66.8 93.85 -66.9 93.7 -67.15 93.5 -67.45 92.9 -68.25 92.2 -69.0 92.05 -69.35 91.7 -70.15 91.3 -70.9 90.2 -72.0 88.7 -73.5 88.65 -73.55 Q90.5 -73.65 92.05 -72.65 M94.7 -60.15 L94.9 -60.15 Q95.8 -59.9 96.2 -59.25 L95.4 -58.75 94.95 -58.65 94.75 -59.4 94.7 -60.15 M103.2 -31.75 Q103.3 -32.1 103.5 -31.6 L104.3 -30.2 Q104.7 -29.65 104.7 -29.0 L104.7 -27.9 104.7 -27.5 104.8 -26.75 104.7 -26.0 104.7 -25.65 104.7 -24.9 104.35 -24.1 104.2 -23.75 104.05 -23.0 103.6 -23.05 102.95 -23.25 102.7 -23.5 102.3 -23.9 101.95 -24.25 101.7 -24.65 101.55 -25.0 101.2 -25.75 101.2 -26.15 101.1 -28.75 Q101.05 -29.6 101.45 -30.25 L102.5 -31.05 103.2 -31.75 M92.7 -5.9 L93.4 -4.75 Q93.9 -3.55 94.7 -2.5 L95.45 -2.25 95.55 -2.15 95.8 -1.9 96.2 -1.5 100.95 0.25 102.45 0.25 105.8 -0.65 Q100.45 1.25 94.55 1.85 L94.15 1.3 Q93.7 0.75 93.7 0.1 L93.7 -0.25 93.7 -0.65 93.7 -1.0 93.25 -2.15 92.7 -3.25 92.7 -4.4 92.7 -5.9 M89.1 -16.35 L89.05 -16.0 86.3 -16.4 Q86.1 -16.95 86.35 -17.45 L86.95 -18.25 87.05 -18.35 87.8 -18.1 88.55 -17.5 88.7 -17.15 89.1 -16.35 M203.3 10.85 L203.7 10.5 204.4 9.7 204.55 9.5 204.7 11.75 204.7 13.6 Q204.25 14.3 204.05 15.1 L203.7 16.25 203.7 16.6 203.7 17.0 203.7 17.35 203.45 17.75 203.2 18.1 203.2 18.5 203.2 18.85 202.95 19.25 202.7 19.6 202.7 20.0 202.65 20.35 202.45 20.75 202.05 21.1 201.7 21.5 201.65 21.85 201.4 22.25 201.05 22.6 200.2 23.0 199.8 23.35 199.45 23.75 199.05 24.1 198.75 24.55 198.7 24.85 198.7 25.25 Q198.9 26.15 199.95 26.15 L200.8 26.15 201.0 26.5 201.45 27.25 202.55 28.35 203.7 29.5 204.4 29.75 204.55 29.85 204.8 30.1 205.2 30.5 205.9 30.75 206.05 30.85 206.3 31.1 206.7 31.5 Q209.6 32.8 212.95 32.75 L217.95 32.75 232.05 29.1 231.45 29.35 231.2 29.5 230.95 29.75 230.55 30.1 229.7 30.5 228.55 31.6 227.8 32.35 227.7 32.75 227.55 33.1 227.2 33.5 226.8 33.85 226.7 34.25 226.55 34.6 226.2 35.0 225.85 35.4 225.7 35.75 225.6 36.1 225.15 37.2 224.7 38.0 224.7 38.35 224.7 38.75 224.5 39.1 Q224.15 39.6 223.95 40.25 L223.7 41.0 223.7 41.75 223.7 42.5 223.7 43.25 223.5 43.6 223.25 44.05 223.2 44.35 223.2 45.5 223.15 48.1 223.2 50.75 223.35 51.1 223.55 51.5 223.7 51.85 223.7 52.25 223.7 52.6 223.7 53.0 224.0 53.4 224.2 53.75 224.2 54.1 224.2 54.5 225.95 57.9 227.55 60.85 227.95 61.25 228.3 61.6 228.7 62.0 229.4 62.25 229.55 62.35 229.8 62.6 230.2 63.0 230.95 63.25 Q232.9 64.0 234.95 64.25 L237.4 63.6 239.7 62.85 239.65 63.25 239.5 63.6 239.2 64.0 239.2 64.35 239.2 64.75 239.0 65.1 238.7 65.5 238.7 65.85 238.65 66.25 238.55 66.6 238.2 67.0 237.85 67.4 237.7 67.75 237.65 68.1 237.55 68.5 237.3 68.85 236.95 69.25 236.55 69.6 236.2 70.0 235.3 71.85 233.95 73.75 233.5 74.05 232.95 74.35 232.7 74.5 232.45 74.75 232.05 75.1 231.7 75.5 230.5 75.95 Q226.75 77.75 222.7 78.5 L220.05 78.5 219.4 78.3 Q216.15 77.8 213.3 76.1 L212.5 75.45 211.45 74.75 211.2 74.5 210.8 74.1 210.45 73.75 210.2 73.35 209.6 72.3 209.05 71.5 208.45 71.25 207.95 71.25 207.45 71.4 207.05 71.6 206.75 72.05 206.7 72.35 206.7 72.75 206.5 73.1 206.25 73.55 206.2 73.85 206.2 74.25 206.2 75.0 206.2 75.35 206.2 75.75 206.35 76.1 206.55 76.5 206.7 76.85 206.7 77.25 206.7 78.0 206.7 78.35 206.7 78.75 206.85 79.1 207.05 79.5 207.2 79.85 207.2 80.25 207.2 80.6 207.2 81.0 202.05 81.0 201.45 80.75 199.05 80.35 198.55 80.05 197.95 79.75 195.95 78.15 Q194.25 77.1 192.45 76.25 L191.45 75.2 Q190.85 74.5 189.95 74.25 L189.5 73.95 Q185.25 71.8 180.45 70.75 L171.95 70.75 169.95 71.25 Q169.05 71.55 168.2 72.0 L167.95 72.25 167.55 72.6 166.95 72.9 166.55 73.1 166.2 73.5 165.8 73.85 165.45 74.25 165.2 74.6 Q164.75 75.3 164.55 76.1 L164.2 77.25 164.2 77.6 164.2 78.35 164.2 78.75 164.3 79.1 165.45 80.25 166.2 81.0 166.9 81.3 Q167.9 81.95 169.2 82.0 168.8 82.1 168.45 82.3 165.95 83.5 163.2 84.0 L158.55 84.0 157.95 83.75 156.4 83.35 157.3 82.85 157.7 82.5 158.45 81.75 158.8 81.35 159.55 80.35 160.35 79.2 161.75 75.75 163.45 71.25 164.2 70.5 164.9 69.7 165.05 69.35 165.55 69.0 166.45 68.25 166.8 67.85 169.4 66.6 170.55 66.0 172.4 65.7 173.05 65.5 175.7 65.5 Q181.4 66.45 186.95 68.25 L187.95 68.15 188.95 68.05 189.2 68.0 189.4 67.7 189.55 67.35 189.65 66.6 189.7 66.25 189.0 65.65 Q188.45 65.3 187.8 65.1 L187.7 65.0 186.7 64.0 185.55 62.85 185.2 62.5 185.05 62.1 184.95 61.75 184.55 61.35 184.2 61.0 183.7 59.5 183.25 58.35 183.2 58.0 183.2 57.6 183.2 57.25 183.35 56.9 183.55 56.5 183.7 56.1 183.7 55.75 183.7 55.35 183.7 55.0 183.95 54.6 184.15 54.25 184.3 53.85 185.05 53.1 185.8 52.35 186.2 52.0 186.95 51.75 187.55 51.5 190.7 51.5 191.4 51.8 191.7 52.0 192.05 52.35 193.95 54.25 194.7 55.0 195.55 55.35 198.55 58.35 201.2 61.0 204.0 62.1 210.95 64.75 212.45 64.75 215.1 64.2 Q218.7 63.8 221.8 61.85 L222.05 61.5 222.15 61.1 222.2 60.75 Q221.3 59.4 219.6 59.2 L217.45 58.75 216.55 58.0 215.55 57.5 214.95 57.25 214.8 57.1 214.55 56.9 214.05 56.55 213.45 56.25 212.45 55.25 211.7 54.5 211.3 54.1 211.15 53.75 209.6 51.85 208.45 50.75 208.0 50.0 207.45 49.25 207.2 48.85 207.15 48.5 207.05 48.1 206.95 47.75 206.55 47.35 206.25 46.95 206.2 46.6 206.2 46.25 206.2 45.85 206.05 45.5 205.85 45.1 205.7 44.75 205.7 44.35 205.7 44.0 205.55 43.6 205.45 43.25 205.85 42.15 206.45 40.6 206.8 39.85 207.8 39.4 208.65 38.95 208.95 38.75 209.05 38.35 209.15 38.0 209.2 37.6 209.2 37.25 Q208.85 36.85 208.5 36.75 L203.8 35.6 203.55 35.4 203.05 35.05 202.45 34.75 201.45 33.75 200.3 32.6 199.95 32.25 199.7 31.85 199.15 30.75 198.75 29.95 198.7 29.6 198.7 29.25 198.7 28.85 198.7 28.5 198.55 28.1 198.4 27.75 198.25 27.35 198.2 27.0 198.2 26.6 198.2 26.25 198.2 25.85 197.65 24.75 196.65 22.85 196.3 22.1 194.5 20.2 192.95 19.25 187.8 18.85 188.6 18.6 190.35 18.05 190.8 18.1 191.2 18.45 191.95 18.65 192.45 18.6 192.65 18.45 192.95 18.25 193.3 17.85 193.55 17.55 Q194.6 16.85 195.9 16.45 200.75 15.15 203.3 10.85 M172.3 28.6 L173.75 30.15 174.4 31.25 174.7 32.0 175.05 32.35 175.4 32.75 175.7 33.1 175.7 33.5 175.7 33.85 175.7 34.25 175.7 34.6 175.55 35.0 175.3 35.35 174.95 35.75 174.55 36.05 173.7 36.5 172.05 36.5 171.45 36.25 170.55 35.95 169.8 35.6 169.45 35.25 168.7 34.5 168.3 34.1 167.95 33.75 167.7 33.35 167.55 33.0 167.3 32.6 166.95 32.25 166.55 31.85 166.2 31.5 166.05 31.1 165.9 30.75 165.55 30.35 165.05 30.0 164.55 29.6 164.4 29.25 164.05 28.85 163.55 28.55 Q162.35 27.85 161.05 27.45 L158.95 26.75 159.55 26.55 161.4 26.2 162.05 26.0 Q165.5 25.1 168.3 26.8 170.05 27.9 172.05 28.35 L172.3 28.6 M154.7 12.5 L155.7 12.5 Q160.65 12.6 164.7 15.0 160.1 14.95 155.7 16.0 L153.05 15.6 152.9 15.25 152.75 14.85 152.7 14.5 152.7 14.1 153.0 13.8 153.9 13.1 154.7 12.5 M192.45 33.6 L192.6 33.75 192.65 34.75 192.55 35.5 192.1 35.4 191.3 34.9 191.2 34.6 191.3 34.3 Q191.55 34.0 191.95 33.8 L192.45 33.6 M132.35 26.6 L132.55 27.0 132.35 27.7 132.05 28.1 130.8 28.4 130.2 28.25 Q129.7 27.75 129.65 27.1 129.6 26.4 130.2 26.0 L130.3 25.95 132.2 26.0 132.2 26.25 132.35 26.6 M101.45 23.6 L101.55 23.65 101.7 25.85 101.7 27.75 Q101.45 28.1 101.35 28.55 L100.7 29.6 100.7 30.0 100.65 30.35 100.45 30.75 100.05 31.1 99.7 31.5 99.4 32.2 99.05 32.6 98.45 32.85 98.2 33.0 97.55 33.6 96.05 35.1 Q93.15 36.5 90.7 35.75 91.05 34.75 91.85 34.1 93.7 32.65 95.05 30.85 L95.55 30.5 Q97.0 30.3 97.95 29.25 L100.2 26.25 100.2 25.85 100.2 25.5 100.55 25.1 100.95 24.75 101.05 24.35 101.2 24.0 101.45 23.6 M86.95 41.75 L87.05 41.7 86.95 42.25 86.7 43.0 86.7 43.35 86.7 43.75 86.5 44.1 86.25 44.55 86.2 44.85 86.2 45.25 86.2 45.6 86.2 46.0 86.5 46.4 86.7 46.75 86.7 47.1 86.7 47.5 86.7 47.85 86.95 48.25 87.15 48.65 87.2 49.0 87.2 49.35 87.2 49.75 87.8 50.8 Q88.2 51.35 88.2 52.0 L88.2 52.35 88.2 52.75 88.55 53.9 89.2 55.35 89.2 55.75 89.2 56.1 89.25 56.45 89.5 56.9 89.7 57.25 88.5 56.4 86.7 54.5 85.6 52.3 Q84.9 51.2 84.7 50.0 L84.7 49.6 84.7 48.1 84.7 46.6 85.65 44.4 86.95 41.75 M82.7 36.5 L81.05 36.5 80.45 36.2 79.3 35.6 79.05 34.5 Q79.0 33.55 79.7 33.0 L79.8 32.95 80.65 33.1 80.7 33.25 80.85 33.6 Q81.45 34.5 82.45 34.1 L83.25 33.75 84.05 33.85 84.15 35.0 83.95 35.75 83.55 36.05 82.7 36.5 M75.95 3.25 L76.3 3.6 76.95 4.45 77.2 5.1 75.55 5.5 74.95 5.25 74.35 5.05 74.2 4.85 74.05 4.5 73.85 4.1 73.7 3.75 74.45 3.15 75.45 2.6 75.65 2.7 75.75 2.85 75.95 3.25 M68.8 19.9 L69.05 19.9 69.15 20.1 69.05 20.5 68.8 20.7 67.75 20.6 67.7 20.35 Q68.15 20.2 68.55 20.0 L68.8 19.9 M65.2 13.5 Q65.7 13.9 65.8 14.6 L65.8 15.35 65.65 15.7 64.7 16.5 63.55 16.5 62.95 16.25 62.3 15.65 61.7 15.25 61.45 14.85 61.25 14.45 61.2 14.1 61.65 13.4 62.05 13.0 Q63.8 12.45 65.2 13.5 M13.75 17.0 L13.85 16.95 Q14.45 17.05 14.95 17.3 L15.35 17.6 16.15 19.1 17.25 21.35 17.3 22.5 Q17.4 23.35 16.6 23.0 L16.1 22.2 15.0 20.75 14.35 18.9 13.75 17.0 M11.5 48.1 L11.6 48.05 11.9 48.8 12.25 49.5 12.6 49.85 12.95 50.25 13.25 50.6 13.25 51.0 13.25 51.35 13.25 51.75 13.4 52.1 13.6 52.5 13.75 52.85 13.5 53.25 13.25 53.65 13.1 54.0 12.35 54.05 12.25 54.0 11.5 53.35 10.75 52.25 10.75 51.85 10.75 51.5 10.6 51.1 10.5 50.75 10.35 50.35 10.55 49.95 10.75 49.25 10.85 48.85 11.2 48.5 11.5 48.1 M28.85 45.85 Q29.25 45.5 29.5 45.95 L30.45 47.55 Q30.8 48.1 30.75 48.75 L30.3 49.5 30.15 49.8 29.6 50.6 Q27.8 52.3 25.85 50.6 L25.7 50.25 25.55 49.85 25.25 49.1 Q25.15 48.45 25.55 47.95 L25.8 47.65 26.35 46.85 Q26.55 46.7 26.8 46.6 L27.95 46.2 28.85 45.85 M6.25 65.8 Q6.9 65.55 7.1 66.0 7.4 66.55 7.1 67.1 L6.4 67.75 Q5.6 68.3 5.75 67.35 L6.0 66.6 6.25 65.85 6.25 65.8 M-13.75 -118.5 L-13.25 -118.5 -12.0 -118.4 Q-11.6 -118.05 -11.35 -117.5 -11.1 -116.95 -11.4 -116.4 -12.8 -115.05 -14.0 -116.25 -14.4 -116.75 -14.35 -117.4 -14.35 -118.1 -13.75 -118.5 M-35.9 14.0 L-35.8 14.35 -35.75 14.75 Q-36.55 16.4 -38.15 15.1 L-38.2 14.35 -38.25 13.25 Q-38.05 12.95 -37.55 12.9 -36.6 12.85 -36.15 13.6 L-35.9 14.0 M-58.15 44.8 L-57.4 44.0 -57.0 43.6 Q-56.8 43.6 -56.75 43.7 L-55.65 45.15 Q-54.9 46.05 -54.9 47.0 L-57.15 46.6 -57.9 45.85 -58.2 45.45 -58.25 45.1 -58.15 44.8 M-45.2 52.5 L-45.0 52.1 -44.9 52.05 -44.8 52.15 -44.75 52.5 -44.75 52.85 -44.3 53.65 -44.25 54.0 -44.25 55.85 -44.25 57.35 -44.85 57.85 -45.5 57.75 -45.75 57.0 -46.0 56.25 -45.9 55.85 -45.75 55.5 -45.75 54.75 -45.75 54.0 -45.5 53.6 -45.25 53.25 -45.25 52.85 -45.2 52.5 M-62.95 75.9 L-62.25 75.25 -61.9 75.35 Q-61.3 75.95 -61.15 76.7 L-60.75 77.85 -60.75 78.25 -60.75 78.6 -60.75 79.0 -60.8 79.35 -61.0 79.7 -61.4 80.1 -62.9 80.5 -63.65 80.1 -64.0 79.75 -64.4 79.35 -64.75 79.0 -64.75 78.6 -64.75 78.25 -64.7 77.85 -64.5 77.1 -64.2 76.8 -62.95 75.9 M-70.9 65.5 Q-71.25 65.05 -71.05 64.55 L-70.5 63.75 -70.0 63.65 Q-69.3 63.55 -69.25 64.0 -69.2 64.55 -69.4 65.1 L-70.75 65.55 -70.9 65.5 M-34.4 77.35 Q-34.2 77.9 -34.25 78.5 L-34.25 79.6 -34.75 80.0 -35.6 80.0 -35.9 79.85 -36.6 79.05 -36.75 78.75 -36.9 77.6 Q-36.85 76.9 -36.25 76.5 L-35.75 76.5 Q-34.9 76.65 -34.4 77.35 M-25.75 69.5 L-25.65 69.1 -25.5 68.75 Q-24.95 68.45 -24.55 69.25 L-23.75 70.75 -23.75 71.85 -23.75 73.35 -24.2 74.15 -24.5 74.85 -25.15 75.0 -25.65 74.65 -25.75 74.35 -25.9 74.0 -26.05 73.6 -26.0 73.25 -25.9 72.85 -25.75 72.5 -25.75 71.0 -25.75 69.5" fill="#ffcc66" fill-rule="evenodd" stroke="none"/>
  </g>
</svg>
