<?xml version="1.0" encoding="UTF-8" standalone="no"?>
<svg xmlns:ffdec="https://www.free-decompiler.com/flash" xmlns:xlink="http://www.w3.org/1999/xlink" ffdec:objectType="shape" height="52.5px" width="67.0px" xmlns="http://www.w3.org/2000/svg">
  <g transform="matrix(1.0, 0.0, 0.0, 1.0, 380.5, 59.5)">
    <path d="M-348.65 -52.0 L-351.25 -51.25 -351.75 -50.9 Q-353.3 -50.4 -354.65 -49.5 -357.05 -47.95 -359.75 -47.15 L-360.65 -46.9 -360.15 -46.5 -359.65 -46.15 -359.4 -45.75 -359.25 -45.4 -359.15 -45.1 Q-355.6 -47.2 -351.8 -48.9 L-348.1 -50.2 -344.25 -50.9 -343.5 -50.95 -343.5 -51.0 -339.5 -50.75 Q-337.45 -50.6 -336.15 -49.15 L-335.9 -48.75 -335.75 -48.4 -335.65 -48.0 -335.5 -47.65 -335.5 -47.25 -335.5 -46.9 -335.5 -46.5 -335.5 -46.15 -335.65 -45.75 -335.85 -45.35 -336.0 -45.0 -336.05 -44.65 -336.4 -43.9 -336.25 -43.5 -336.15 -43.15 -336.0 -42.75 -336.0 -42.4 -336.0 -42.0 -336.0 -41.65 -336.0 -41.25 -336.0 -40.5 -335.85 -40.15 -335.65 -39.75 -335.5 -39.4 -335.5 -39.0 -335.5 -38.65 -335.2 -37.9 -333.9 -35.25 -332.15 -31.15 -331.75 -30.75 -331.4 -30.4 -331.05 -30.0 -330.9 -29.65 -330.5 -29.3 -329.9 -28.9 -329.55 -28.5 -329.1 -27.75 -328.15 -26.65 Q-327.4 -26.0 -327.15 -25.15 L-325.6 -23.85 Q-322.65 -22.25 -319.55 -21.1 L-319.5 -21.5 -319.25 -22.25 Q-319.55 -23.75 -320.4 -25.25 -322.55 -29.05 -324.3 -33.05 L-325.0 -35.0 -325.0 -35.4 -325.0 -35.75 -325.45 -36.9 -325.75 -37.6 -326.45 -39.5 -327.0 -41.0 -327.0 -41.4 -327.0 -41.75 -327.0 -42.15 -327.15 -42.5 -327.25 -42.9 -327.4 -43.25 -327.5 -43.65 -327.65 -44.0 -327.9 -44.75 -328.0 -45.15 -328.0 -45.5 -328.0 -45.9 -328.25 -46.25 -328.4 -46.65 -328.5 -47.0 -328.5 -47.4 -328.5 -47.75 -328.65 -48.1 -328.85 -48.5 -329.0 -48.9 -329.0 -49.25 -329.0 -49.65 -329.0 -50.0 -329.05 -50.35 -329.25 -50.75 -329.4 -51.15 -329.5 -51.5 -329.5 -51.9 -329.5 -52.25 -329.5 -52.65 -329.5 -53.0 Q-338.3 -55.1 -348.0 -52.2 L-348.65 -52.0 M-324.85 -57.15 L-324.65 -56.75 -324.5 -56.4 -324.5 -56.0 -324.5 -55.65 -324.5 -55.25 -324.5 -54.9 -324.5 -54.5 -324.5 -54.15 -324.5 -53.75 -324.45 -53.4 -324.3 -53.0 -324.15 -52.65 -324.0 -52.25 -324.0 -51.9 -324.0 -51.5 -324.0 -51.15 -323.9 -50.75 -323.75 -50.4 -323.65 -50.0 -323.5 -49.65 -323.5 -49.25 -323.5 -48.9 -323.3 -48.5 -323.15 -48.15 -323.0 -47.75 -323.0 -47.4 -323.0 -47.0 -322.85 -46.65 -322.65 -46.25 -322.55 -45.85 -322.5 -45.5 -322.35 -45.15 -322.15 -44.75 -322.0 -44.4 -322.0 -44.0 -322.0 -43.65 -322.0 -43.25 -322.0 -42.9 -322.0 -42.5 -319.15 -35.4 Q-316.7 -29.2 -313.5 -23.4 L-313.5 -23.0 -313.5 -22.65 -313.5 -22.25 -313.5 -21.9 -313.9 -20.75 -314.25 -20.0 -315.2 -18.1 -316.0 -16.65 -316.0 -16.25 -316.0 -15.9 -316.0 -15.5 -316.0 -15.15 -316.15 -14.75 -316.2 -14.65 -316.15 -14.5 -316.0 -14.15 -316.05 -13.75 -316.15 -13.4 -316.3 -13.0 -316.5 -12.65 -316.75 -12.25 -316.4 -11.9 -316.0 -11.5 -315.65 -11.15 -315.4 -10.75 -315.25 -10.4 -315.15 -10.0 -315.0 -9.65 -315.05 -9.25 -315.15 -8.9 -315.3 -8.5 -315.5 -8.15 -315.8 -7.8 -316.25 -7.4 -316.75 -7.2 -317.5 -7.0 Q-328.65 -8.5 -339.5 -11.0 L-340.6 -11.35 Q-341.3 -11.65 -341.95 -12.1 L-342.75 -12.75 -342.85 -13.15 -343.0 -13.9 -343.0 -14.65 -343.0 -16.15 -343.0 -16.5 -343.1 -16.75 -344.15 -17.25 -378.0 -15.0 -379.15 -15.25 -379.6 -15.65 -380.0 -16.0 -380.25 -16.4 -380.4 -16.75 -380.5 -17.15 -380.5 -17.5 -380.5 -17.9 -380.5 -18.25 -380.5 -19.0 -380.5 -20.15 -380.35 -20.5 -380.15 -20.9 -380.0 -21.25 -380.0 -21.65 -380.0 -22.0 -379.9 -22.4 -379.75 -22.75 -379.5 -23.15 -379.2 -23.9 -378.9 -25.0 -378.65 -25.4 -378.1 -26.55 -376.85 -28.8 -376.15 -29.9 -375.75 -30.25 -375.4 -30.65 -375.0 -31.0 -374.9 -31.4 -374.75 -31.75 -374.4 -32.15 -374.0 -32.5 -373.9 -32.9 -373.75 -33.25 -373.4 -33.65 -373.0 -34.0 -372.65 -34.4 -371.9 -35.15 -371.5 -35.5 -371.4 -35.9 -371.25 -36.25 -370.9 -36.65 -370.5 -37.0 -370.15 -37.4 -369.75 -37.75 -369.4 -38.15 -368.65 -38.55 -368.15 -38.9 -367.75 -39.25 -367.4 -39.65 -363.6 -42.3 -364.0 -42.4 Q-365.4 -42.7 -366.5 -43.5 L-367.65 -43.75 -368.1 -44.15 -368.5 -44.5 -368.75 -44.9 -368.9 -45.25 -369.0 -45.65 -369.0 -46.0 -369.0 -46.4 -369.0 -46.75 -368.95 -47.1 -368.9 -47.5 -368.25 -48.25 -367.5 -49.0 -367.15 -49.4 -366.4 -50.15 Q-350.8 -58.9 -333.0 -59.5 L-328.95 -59.1 Q-327.05 -58.8 -325.4 -57.9 L-325.05 -57.45 -324.85 -57.15 M-368.0 -31.5 L-369.15 -30.4 -369.5 -30.0 -370.35 -28.85 -370.9 -27.75 -371.15 -27.4 -372.1 -26.25 -372.7 -25.05 -373.6 -23.25 -374.45 -21.0 -374.5 -20.75 Q-357.45 -22.65 -340.55 -21.5 -339.4 -21.4 -338.4 -20.9 L-338.05 -20.5 -337.85 -20.15 -337.65 -19.75 -337.5 -19.4 -337.5 -18.65 -337.5 -18.25 -337.5 -17.9 -337.5 -17.15 -337.55 -16.4 -337.65 -16.0 Q-332.05 -14.15 -326.0 -13.85 L-321.9 -13.75 -322.1 -14.15 -322.5 -14.85 -322.7 -15.25 -323.0 -16.0 Q-323.25 -16.9 -324.35 -17.25 -325.15 -17.5 -325.8 -18.0 -326.95 -18.9 -328.4 -19.4 L-328.75 -19.75 -329.15 -20.15 -329.5 -20.5 -329.9 -20.9 -330.6 -21.3 -331.1 -21.65 -331.5 -22.0 -331.75 -22.4 -331.9 -22.75 -332.15 -23.15 -332.5 -23.5 -332.9 -23.9 -333.25 -24.25 -333.4 -24.65 -333.5 -25.0 -334.25 -25.75 -334.65 -26.15 -335.0 -26.5 -336.15 -27.65 -336.5 -28.0 -337.05 -29.1 -337.3 -29.85 -338.0 -31.4 -338.75 -33.25 -339.0 -34.0 -339.4 -34.4 -339.75 -34.75 -339.95 -35.5 -340.05 -35.85 -340.2 -36.25 -340.5 -37.0 -340.75 -37.75 -341.0 -38.5 -341.0 -38.9 -341.0 -39.65 -341.0 -40.0 -341.0 -40.75 -341.0 -41.15 -341.15 -41.5 -341.25 -41.9 -341.4 -42.25 -341.5 -42.65 -341.5 -43.0 -341.5 -43.75 -341.5 -44.15 -341.5 -44.9 -341.5 -45.25 -341.5 -45.65 -341.45 -45.75 -342.75 -45.85 -343.0 -45.75 Q-344.25 -45.3 -345.5 -45.1 L-348.5 -44.75 -351.45 -43.35 -356.25 -40.9 -357.0 -40.5 Q-358.65 -38.9 -360.7 -37.8 -363.7 -36.1 -366.3 -33.8 -367.45 -32.85 -368.0 -31.5" fill="#000000" fill-rule="evenodd" stroke="none"/>
    <path d="M-348.65 -52.0 L-348.0 -52.2 Q-338.3 -55.1 -329.5 -53.0 L-329.5 -52.65 -329.5 -52.25 -329.5 -51.9 -329.5 -51.5 -329.4 -51.15 -329.25 -50.75 -329.05 -50.35 -329.0 -50.0 -329.0 -49.65 -329.0 -49.25 -329.0 -48.9 -328.85 -48.5 -328.65 -48.1 -328.5 -47.75 -328.5 -47.4 -328.5 -47.0 -328.4 -46.65 -328.25 -46.25 -328.0 -45.9 -328.0 -45.5 -328.0 -45.15 -327.9 -44.75 -327.65 -44.0 -327.5 -43.65 -327.4 -43.25 -327.25 -42.9 -327.15 -42.5 -327.0 -42.15 -327.0 -41.75 -327.0 -41.4 -327.0 -41.0 -326.45 -39.5 -325.75 -37.6 -325.45 -36.9 -325.0 -35.75 -325.0 -35.4 -325.0 -35.0 -324.3 -33.05 Q-322.55 -29.05 -320.4 -25.25 -319.55 -23.75 -319.25 -22.25 L-319.5 -21.5 -319.55 -21.1 Q-322.65 -22.25 -325.6 -23.85 L-327.15 -25.15 Q-327.4 -26.0 -328.15 -26.65 L-329.1 -27.75 -329.55 -28.5 -329.9 -28.9 -330.5 -29.3 -330.9 -29.65 -331.05 -30.0 -331.4 -30.4 -331.75 -30.75 -332.15 -31.15 -333.9 -35.25 -335.2 -37.9 -335.5 -38.65 -335.5 -39.0 -335.5 -39.4 -335.65 -39.75 -335.85 -40.15 -336.0 -40.5 -336.0 -41.25 -336.0 -41.65 -336.0 -42.0 -336.0 -42.4 -336.0 -42.75 -336.15 -43.15 -336.25 -43.5 -336.4 -43.9 -336.05 -44.65 -336.0 -45.0 -335.85 -45.35 -335.65 -45.75 -335.5 -46.15 -335.5 -46.5 -335.5 -46.9 -335.5 -47.25 -335.5 -47.65 -335.65 -48.0 -335.75 -48.4 -335.9 -48.75 -336.15 -49.15 Q-337.45 -50.6 -339.5 -50.75 L-343.5 -51.0 -343.5 -50.95 -344.25 -50.9 -348.1 -50.2 -351.8 -48.9 Q-355.6 -47.2 -359.15 -45.1 L-359.25 -45.4 -359.4 -45.75 -359.65 -46.15 -360.15 -46.5 -360.65 -46.9 -359.75 -47.15 Q-357.05 -47.95 -354.65 -49.5 -353.3 -50.4 -351.75 -50.9 L-351.25 -51.25 -348.65 -52.0 M-368.0 -31.5 Q-367.45 -32.85 -366.3 -33.8 -363.7 -36.1 -360.7 -37.8 -358.65 -38.9 -357.0 -40.5 L-356.25 -40.9 -351.45 -43.35 -348.5 -44.75 -345.5 -45.1 Q-344.25 -45.3 -343.0 -45.75 L-342.75 -45.85 -341.45 -45.75 -341.5 -45.65 -341.5 -45.25 -341.5 -44.9 -341.5 -44.15 -341.5 -43.75 -341.5 -43.0 -341.5 -42.65 -341.4 -42.25 -341.25 -41.9 -341.15 -41.5 -341.0 -41.15 -341.0 -40.75 -341.0 -40.0 -341.0 -39.65 -341.0 -38.9 -341.0 -38.5 -340.75 -37.75 -340.5 -37.0 -340.2 -36.25 -340.05 -35.85 -339.95 -35.5 -339.75 -34.75 -339.4 -34.4 -339.0 -34.0 -338.75 -33.25 -338.0 -31.4 -337.3 -29.85 -337.05 -29.1 -336.5 -28.0 -336.15 -27.65 -335.0 -26.5 -334.65 -26.15 -334.25 -25.75 -333.5 -25.0 -333.4 -24.65 -333.25 -24.25 -332.9 -23.9 -332.5 -23.5 -332.15 -23.15 -331.9 -22.75 -331.75 -22.4 -331.5 -22.0 -331.1 -21.65 -330.6 -21.3 -329.9 -20.9 -329.5 -20.5 -329.15 -20.15 -328.75 -19.75 -328.4 -19.4 Q-326.95 -18.9 -325.8 -18.0 -325.15 -17.5 -324.35 -17.25 -323.25 -16.9 -323.0 -16.0 L-322.7 -15.25 -322.5 -14.85 -322.1 -14.15 -321.9 -13.75 -326.0 -13.85 Q-332.05 -14.15 -337.65 -16.0 L-337.55 -16.4 -337.5 -17.15 -337.5 -17.9 -337.5 -18.25 -337.5 -18.65 -337.5 -19.4 -337.65 -19.75 -337.85 -20.15 -338.05 -20.5 -338.4 -20.9 Q-339.4 -21.4 -340.55 -21.5 -357.45 -22.65 -374.5 -20.75 L-374.45 -21.0 -373.6 -23.25 -372.7 -25.05 -372.1 -26.25 -371.15 -27.4 -370.9 -27.75 -370.35 -28.85 -369.5 -30.0 -369.15 -30.4 -368.0 -31.5" fill="#80a839" fill-rule="evenodd" stroke="none"/>
  </g>
</svg>
