<?xml version="1.0" encoding="UTF-8" standalone="no"?>
<svg xmlns:ffdec="https://www.free-decompiler.com/flash" xmlns:xlink="http://www.w3.org/1999/xlink" ffdec:objectType="shape" height="41.25px" width="100.0px" xmlns="http://www.w3.org/2000/svg">
  <g transform="matrix(1.0, 0.0, 0.0, 1.0, 420.5, -2.4)">
    <path d="M-320.5 20.35 L-320.55 20.75 -320.65 21.1 -320.8 21.5 -321.0 21.85 -321.05 22.2 -320.95 23.35 -321.0 24.5 -321.0 26.0 -321.0 27.5 -321.0 27.85 -321.15 28.25 -321.35 28.65 -321.5 29.0 -321.5 29.35 -321.5 29.75 -321.5 30.1 -321.65 30.5 -321.9 31.25 -322.15 32.0 -322.4 32.75 -322.75 33.85 -322.9 34.25 Q-327.5 37.7 -332.6 40.6 -342.65 46.4 -353.15 40.75 L-354.5 40.0 -355.6 39.65 -357.85 38.6 -360.85 37.3 -361.5 37.0 -364.6 36.15 Q-369.9 34.45 -375.5 35.75 L-376.25 36.1 Q-378.4 37.05 -380.45 38.15 -382.95 39.5 -385.75 40.25 L-386.25 40.6 Q-395.75 44.55 -406.05 43.4 -411.9 42.75 -416.9 40.1 L-417.2 39.7 -417.4 39.35 -417.5 39.0 -417.9 38.6 -418.65 37.85 -419.0 37.5 -419.35 37.1 -419.9 36.35 -419.95 36.0 -420.0 35.6 -420.0 35.25 -420.15 34.9 -420.35 34.5 -420.5 34.1 -420.5 33.75 -420.5 33.0 -420.5 32.6 -420.5 32.25 -420.5 31.5 -420.5 30.75 -420.5 30.0 -420.4 29.6 -420.25 29.25 -420.05 28.85 -419.85 28.5 -419.65 28.1 -419.25 27.4 -419.0 27.0 -418.6 26.65 -418.15 26.25 Q-414.0 24.7 -410.85 27.0 -405.9 30.7 -399.25 29.1 -396.25 28.5 -393.65 26.85 -388.35 23.5 -383.3 19.65 -381.15 18.05 -379.4 15.85 L-378.2 15.05 -375.75 13.0 -372.0 9.5 Q-371.35 8.75 -370.4 8.35 L-370.0 8.0 -369.6 7.65 -369.1 7.25 -368.4 6.85 Q-367.55 5.85 -366.4 5.35 -362.65 3.6 -358.5 3.25 L-354.0 2.5 Q-348.65 2.05 -343.55 3.6 -339.75 4.75 -336.5 7.0 L-335.55 7.35 Q-335.0 7.6 -334.5 7.95 L-333.3 8.8 -332.5 9.5 Q-331.4 10.0 -330.45 10.7 -328.35 12.15 -326.4 13.85 L-321.5 18.5 -321.15 18.85 -320.9 19.25 -320.75 19.6 -320.65 20.0 -320.5 20.35 M-343.6 9.2 L-344.4 8.85 -344.75 8.6 -346.6 8.15 Q-350.0 7.1 -353.5 7.75 L-359.0 8.6 -363.15 9.6 -366.0 11.5 Q-368.35 13.1 -370.4 15.1 L-373.25 17.5 -373.5 17.85 -373.75 18.25 -374.25 18.6 -375.0 19.0 Q-383.45 27.15 -393.95 32.45 -401.45 36.25 -409.95 33.85 -412.7 33.05 -415.1 31.45 L-415.4 31.75 -415.45 32.1 -415.45 32.5 -415.35 32.85 -415.15 33.25 -415.05 33.6 -415.0 34.0 -414.65 34.35 -414.25 34.75 -413.9 35.1 -413.55 35.5 -413.4 35.85 Q-407.5 37.8 -401.0 38.2 L-394.65 37.75 Q-392.6 36.85 -390.4 36.25 -386.6 35.15 -383.1 33.35 L-381.9 32.85 Q-368.75 27.0 -355.7 34.1 -347.9 38.4 -339.15 38.25 L-335.6 36.45 -330.1 33.15 -327.65 31.6 -327.4 31.25 -327.25 30.85 -327.15 30.5 -327.0 30.1 -326.9 29.75 -326.75 29.35 -326.5 28.6 -326.5 28.25 -326.5 27.85 -326.5 27.5 -326.5 27.1 -326.4 26.75 -326.25 26.35 -326.15 26.0 -326.0 25.6 -326.0 25.25 -326.0 24.85 -326.0 24.5 -326.05 24.15 -326.25 23.75 -326.4 23.35 -326.5 23.0 -326.9 22.6 -327.25 22.25 -327.6 21.85 -327.9 21.5 -328.0 21.1 -328.0 20.75 -328.0 20.35 -328.0 20.0 -328.0 19.6 -329.35 18.3 -331.8 16.25 Q-333.6 14.65 -335.9 13.6 L-336.7 12.95 Q-337.95 12.0 -339.35 11.3 L-342.5 9.5 -343.6 9.2" fill="#000000" fill-rule="evenodd" stroke="none"/>
    <path d="M-343.6 9.2 L-342.5 9.5 -339.35 11.3 Q-337.95 12.0 -336.7 12.95 L-335.9 13.6 Q-333.6 14.65 -331.8 16.25 L-329.35 18.3 -328.0 19.6 -328.0 20.0 -328.0 20.35 -328.0 20.75 -328.0 21.1 -327.9 21.5 -327.6 21.85 -327.25 22.25 -326.9 22.6 -326.5 23.0 -326.4 23.35 -326.25 23.75 -326.05 24.15 -326.0 24.5 -326.0 24.85 -326.0 25.25 -326.0 25.6 -326.15 26.0 -326.25 26.35 -326.4 26.75 -326.5 27.1 -326.5 27.5 -326.5 27.85 -326.5 28.25 -326.5 28.6 -326.75 29.35 -326.9 29.75 -327.0 30.1 -327.15 30.5 -327.25 30.85 -327.4 31.25 -327.65 31.6 -330.1 33.15 -335.6 36.45 -339.15 38.25 Q-347.9 38.4 -355.7 34.1 -368.75 27.0 -381.9 32.85 L-383.1 33.35 Q-386.6 35.15 -390.4 36.25 -392.6 36.85 -394.65 37.75 L-401.0 38.2 Q-407.5 37.8 -413.4 35.85 L-413.55 35.5 -413.9 35.1 -414.25 34.75 -414.65 34.35 -415.0 34.0 -415.05 33.6 -415.15 33.25 -415.35 32.85 -415.45 32.5 -415.45 32.1 -415.4 31.75 -415.1 31.45 Q-412.7 33.05 -409.95 33.85 -401.45 36.25 -393.95 32.45 -383.45 27.15 -375.0 19.0 L-374.25 18.6 -373.75 18.25 -373.5 17.85 -373.25 17.5 -370.4 15.1 Q-368.35 13.1 -366.0 11.5 L-363.15 9.6 -359.0 8.6 -353.5 7.75 Q-350.0 7.1 -346.6 8.15 L-344.75 8.6 -344.4 8.85 -343.6 9.2" fill="#80a839" fill-rule="evenodd" stroke="none"/>
  </g>
</svg>
