<?xml version="1.0" encoding="UTF-8" standalone="no"?>
<svg xmlns:ffdec="https://www.free-decompiler.com/flash" xmlns:xlink="http://www.w3.org/1999/xlink" ffdec:objectType="shape" height="216.05px" width="324.1px" xmlns="http://www.w3.org/2000/svg">
  <g transform="matrix(1.0, 0.0, 0.0, 1.0, 67.15, 128.25)">
    <path d="M81.4 -114.75 L81.4 -114.35 81.4 -113.6 81.4 -112.5 81.4 -112.1 81.3 -111.8 80.55 -110.25 80.05 -109.1 79.65 -108.75 79.4 -108.5 79.15 -108.35 78.65 -108.3 77.65 -108.25 76.9 -108.5 75.4 -109.0 75.05 -109.35 73.55 -110.85 73.15 -111.25 72.95 -111.65 72.9 -112.0 72.9 -112.35 72.65 -112.75 72.4 -113.1 72.4 -113.5 72.4 -113.85 72.4 -114.6 72.4 -115.0 72.35 -115.35 72.15 -115.75 71.9 -116.1 71.9 -116.5 71.9 -116.85 71.9 -117.25 71.75 -117.6 71.4 -118.0 71.4 -118.75 71.45 -120.6 71.3 -122.5 71.0 -122.85 70.65 -123.25 69.9 -124.0 69.65 -124.2 68.9 -124.5 68.55 -124.9 68.45 -125.25 68.4 -125.6 67.9 -126.0 67.55 -126.4 67.4 -126.75 67.45 -127.1 67.9 -127.75 68.65 -128.25 70.65 -128.25 71.25 -127.95 71.75 -127.6 72.15 -127.25 72.75 -126.95 73.25 -126.6 73.65 -126.25 75.95 -124.55 78.55 -121.85 78.9 -121.1 80.25 -118.5 80.9 -117.0 80.9 -116.6 80.9 -116.25 80.9 -115.85 80.95 -115.5 81.15 -115.1 81.4 -114.75 M39.25 -110.0 L39.6 -109.6 39.9 -109.25 41.25 -108.45 41.75 -108.1 42.25 -107.35 42.65 -106.6 42.9 -106.25 42.9 -105.85 42.9 -105.5 42.9 -104.75 42.9 -104.35 42.1 -102.9 41.55 -101.8 41.0 -100.6 40.65 -100.4 40.05 -100.1 39.65 -99.85 39.15 -99.8 38.15 -99.75 37.4 -100.0 36.65 -100.75 35.9 -101.5 35.5 -101.85 35.4 -102.25 35.2 -102.6 34.9 -103.0 34.9 -104.5 34.9 -105.6 34.9 -106.75 35.45 -107.85 35.85 -108.65 36.25 -109.35 37.3 -109.8 38.1 -110.15 38.15 -110.25 38.65 -110.2 39.25 -110.0 M37.75 -106.6 L37.6 -106.25 37.4 -105.85 37.4 -105.1 37.4 -104.35 37.45 -104.0 37.65 -103.6 37.9 -103.25 38.1 -103.0 Q38.45 -102.8 38.9 -102.75 39.4 -103.1 39.65 -103.75 L40.25 -104.85 40.1 -105.25 39.9 -105.65 39.75 -106.0 39.6 -106.15 38.9 -106.5 38.5 -106.85 38.25 -107.05 38.05 -107.1 37.9 -107.0 37.75 -106.6 M76.25 -120.1 L75.9 -120.5 75.85 -120.85 75.65 -121.25 74.6 -122.15 73.9 -122.25 73.9 -121.1 73.9 -120.0 74.15 -119.25 74.4 -118.5 74.4 -118.1 74.4 -117.75 74.55 -117.4 74.75 -117.0 74.9 -116.6 74.9 -115.85 74.9 -115.1 74.9 -114.75 75.55 -113.25 76.05 -111.85 76.75 -111.45 77.15 -111.25 77.75 -111.35 77.9 -111.5 Q78.45 -111.9 78.6 -112.6 L78.9 -113.35 78.7 -114.1 78.4 -114.5 78.4 -114.85 78.4 -115.25 78.4 -115.6 77.65 -117.6 76.9 -118.6 76.9 -119.0 76.9 -119.35 76.25 -120.1 M75.75 -80.45 L76.3 -80.1 76.6 -79.7 76.8 -79.35 76.9 -79.0 77.3 -78.6 77.6 -78.2 77.8 -77.85 77.85 -77.5 77.9 -77.1 77.9 -76.75 77.8 -76.0 77.5 -75.65 77.15 -75.25 76.9 -75.0 76.65 -74.85 76.15 -74.8 75.15 -74.75 74.15 -75.25 73.05 -75.85 72.65 -76.25 72.45 -76.65 72.4 -77.0 72.4 -77.75 72.45 -78.85 72.55 -79.6 73.8 -80.3 74.65 -80.65 74.65 -80.75 75.15 -80.7 75.75 -80.45 M49.45 -75.9 L50.15 -76.15 50.15 -76.25 52.65 -76.25 53.25 -75.95 53.75 -75.6 54.1 -75.2 54.45 -74.5 54.9 -73.75 54.9 -73.35 54.9 -72.6 54.85 -71.5 54.75 -71.1 54.6 -70.75 53.9 -70.0 53.15 -69.35 52.65 -69.3 51.15 -69.25 50.4 -69.5 Q49.9 -69.75 49.45 -70.05 L49.0 -70.35 48.95 -70.75 48.85 -71.1 48.55 -71.85 48.4 -72.25 48.4 -72.6 48.4 -73.0 48.4 -73.35 48.4 -74.1 48.45 -74.45 48.75 -74.9 48.9 -75.25 49.0 -75.6 49.45 -75.9 M50.9 -73.25 Q51.15 -72.65 51.55 -72.35 L52.15 -72.25 Q52.25 -72.75 51.8 -73.05 L50.9 -73.3 50.9 -73.25 M59.65 -61.25 L60.75 -62.4 Q61.15 -62.85 61.65 -63.05 L62.15 -63.25 Q63.0 -63.3 63.7 -62.8 L64.75 -62.1 65.25 -61.35 65.6 -60.6 65.9 -59.85 66.0 -59.15 66.25 -58.35 66.4 -58.0 66.4 -57.6 66.4 -57.25 66.4 -56.85 66.1 -56.1 65.9 -55.35 65.75 -55.0 65.5 -54.6 65.15 -54.25 64.9 -54.0 64.65 -53.85 62.65 -53.75 61.9 -54.0 60.9 -54.5 60.5 -54.85 60.15 -55.25 59.75 -55.6 59.45 -56.0 59.35 -56.35 59.15 -56.75 58.9 -57.1 58.9 -57.85 58.9 -58.6 58.9 -59.75 59.05 -60.1 59.25 -60.5 59.4 -60.85 59.65 -61.25 M63.4 -59.25 L63.2 -59.5 62.25 -59.8 62.15 -59.75 61.55 -58.9 61.4 -58.25 Q61.65 -57.55 62.15 -57.0 62.7 -56.35 63.4 -56.6 L63.45 -56.95 63.5 -57.75 63.4 -58.1 63.4 -58.5 63.4 -58.85 63.4 -59.25 M54.65 -0.7 L56.15 -0.7 56.75 -0.45 57.15 -0.25 57.75 0.05 58.35 0.8 59.0 2.25 59.4 3.4 59.4 3.8 59.4 4.15 59.4 4.55 59.4 4.9 59.4 5.3 59.15 5.65 58.5 6.4 57.9 7.05 57.65 7.15 57.05 7.45 56.65 7.65 56.15 7.75 55.15 7.8 54.4 7.5 53.4 7.05 53.0 6.65 52.25 5.9 51.9 5.55 51.9 5.15 51.9 4.4 51.9 3.65 51.9 2.9 52.0 2.6 52.6 1.45 Q52.9 0.55 53.5 -0.1 L53.95 -0.4 54.6 -0.65 54.65 -0.7 M85.65 -76.7 L86.05 -77.1 86.4 -77.45 87.2 -78.05 87.65 -78.25 89.15 -78.25 Q91.95 -77.85 94.1 -76.2 96.3 -74.55 97.4 -72.1 L97.4 -71.75 97.4 -71.35 97.4 -71.0 97.4 -70.6 97.4 -70.25 97.15 -69.85 96.75 -69.55 96.05 -69.1 95.65 -68.85 91.15 -68.75 90.4 -69.0 90.05 -69.35 89.8 -69.6 89.65 -69.7 88.9 -70.0 88.15 -70.75 87.4 -71.5 85.9 -73.0 85.55 -73.35 85.45 -73.75 85.4 -74.1 85.4 -74.5 85.4 -75.25 85.4 -76.0 85.4 -76.35 85.65 -76.7 M88.4 -75.5 Q87.45 -74.75 88.35 -73.95 L89.55 -72.85 90.75 -72.05 91.15 -71.75 91.8 -71.5 94.4 -71.85 93.05 -73.4 91.9 -74.5 88.9 -75.45 88.4 -75.5 M107.25 -31.45 L107.9 -29.95 107.9 -29.6 107.9 -28.85 107.9 -28.1 107.9 -27.35 107.75 -27.0 107.15 -25.85 106.15 -24.85 105.65 -24.8 102.15 -24.7 101.4 -24.95 101.05 -25.35 100.3 -26.1 99.55 -26.85 99.4 -27.2 99.25 -27.55 98.9 -27.95 98.9 -28.35 98.9 -29.1 98.9 -29.85 98.9 -30.2 99.05 -30.6 99.6 -31.75 100.3 -32.85 100.65 -33.05 101.9 -33.5 102.65 -33.7 104.65 -33.7 105.25 -33.45 105.65 -33.25 106.3 -32.95 106.6 -32.55 107.25 -31.45 M105.15 -29.7 L104.9 -30.1 Q104.4 -30.85 103.15 -30.85 L102.65 -30.85 102.05 -30.6 101.9 -30.25 101.65 -29.85 101.4 -29.45 101.9 -28.7 102.3 -27.95 105.3 -27.85 105.35 -28.25 105.4 -28.6 105.4 -28.95 105.35 -29.35 105.15 -29.7 M96.25 -14.4 L96.65 -14.1 96.9 -13.7 96.85 -13.35 96.75 -13.0 96.55 -12.6 96.15 -12.2 95.9 -12.0 95.65 -11.85 95.15 -11.8 94.4 -11.95 93.3 -11.95 Q92.9 -11.8 92.6 -11.5 L92.4 -11.2 92.55 -10.85 92.75 -10.45 92.85 -10.1 92.9 -9.7 93.55 -9.35 93.75 -8.95 93.95 -8.6 94.15 -8.2 94.5 -7.85 Q95.5 -6.65 96.05 -5.2 L96.75 -3.35 96.9 -2.95 96.9 -2.6 96.9 -1.85 96.65 -0.7 96.4 -0.5 96.15 -0.35 95.65 -0.2 92.65 -0.2 91.9 -0.45 91.55 -0.85 90.4 -1.95 89.65 -2.7 89.45 -3.1 89.4 -3.45 89.4 -3.85 89.15 -4.2 88.9 -4.6 88.9 -4.95 88.9 -7.2 88.9 -9.1 88.9 -9.45 88.95 -9.85 89.15 -10.2 89.4 -10.6 89.4 -10.95 89.4 -11.35 89.65 -11.7 89.85 -12.1 89.9 -12.45 90.3 -12.85 91.85 -14.25 92.65 -14.7 95.65 -14.7 96.25 -14.4 M91.4 -6.35 L91.4 -5.95 Q91.55 -5.2 92.0 -4.5 L92.55 -3.35 93.3 -2.95 93.8 -3.1 93.9 -3.35 Q94.0 -4.05 93.5 -4.6 L93.15 -5.2 92.4 -5.95 92.05 -6.35 91.65 -7.0 91.4 -7.1 91.4 -6.7 91.4 -6.35 M110.25 -10.55 L111.65 -9.1 111.9 -8.7 111.9 -8.35 111.85 -8.0 111.6 -7.25 111.4 -6.85 111.4 -6.45 111.4 -6.1 111.4 -5.7 111.4 -5.35 111.25 -5.0 111.0 -4.6 110.7 -4.2 110.55 -3.85 110.45 -3.45 110.4 -3.1 110.4 -2.7 109.45 -1.2 108.25 1.0 108.05 1.4 107.65 1.8 107.4 2.05 107.15 2.15 106.55 2.45 106.15 2.6 105.65 2.8 104.45 2.45 103.05 1.65 102.85 0.55 102.9 -1.35 102.9 -2.85 103.05 -3.2 103.25 -3.6 103.45 -3.95 103.8 -4.35 103.85 -4.7 103.9 -5.1 103.9 -5.45 104.8 -6.85 Q105.6 -8.0 105.9 -9.2 L106.05 -9.6 106.75 -10.35 Q107.15 -10.8 107.7 -11.05 L108.15 -11.2 109.15 -11.2 110.25 -10.55 M108.05 -7.45 L107.15 -5.9 106.4 -4.45 106.4 -4.1 106.4 -3.7 105.9 -2.95 105.4 -2.2 105.4 -1.45 105.4 -0.7 105.4 -0.35 Q106.3 -0.45 106.75 -1.6 107.15 -2.6 107.8 -3.45 L108.1 -4.55 Q108.35 -5.4 108.9 -6.1 L108.9 -6.45 108.9 -6.85 108.9 -7.2 108.9 -7.45 108.9 -7.55 108.15 -7.55 108.05 -7.45 M203.65 -5.7 L204.3 -5.45 204.7 -5.25 205.3 -4.95 207.4 -1.95 Q208.35 -0.55 208.9 1.05 L208.9 1.4 208.9 1.8 209.05 2.15 209.25 2.55 209.4 2.9 209.4 7.4 209.4 13.05 209.4 13.4 207.8 16.7 Q206.8 18.45 205.15 19.65 L200.65 19.8 199.9 19.55 199.55 19.15 199.3 18.9 199.15 18.8 198.4 18.55 197.65 17.8 196.9 17.05 196.55 16.65 196.35 15.15 196.4 13.3 196.4 12.55 196.5 12.2 196.65 11.8 196.85 11.4 196.9 11.05 197.65 10.3 198.4 9.55 199.3 9.15 199.65 8.8 199.9 8.55 200.15 8.4 200.8 8.15 201.15 7.8 201.4 7.55 201.65 7.4 202.3 7.15 202.65 6.75 202.85 6.4 202.9 6.05 203.3 5.65 203.65 5.3 203.85 4.9 203.9 4.55 203.9 4.15 204.4 3.4 204.8 2.65 204.9 2.3 Q205.0 1.65 204.75 1.05 L204.1 -0.35 203.9 -0.7 203.9 -1.1 203.9 -1.45 203.9 -1.85 203.9 -2.2 203.35 -2.9 Q202.8 -3.45 202.5 -4.15 L202.4 -4.45 202.75 -5.15 203.2 -5.55 203.65 -5.7 M247.3 24.4 L242.9 22.6 Q238.2 20.95 233.3 22.55 L232.55 22.9 232.15 23.3 231.8 23.65 231.4 24.05 231.05 24.4 230.9 24.75 230.65 25.15 230.3 25.5 229.8 25.9 229.65 26.25 229.3 26.65 228.9 27.05 228.15 27.8 227.95 28.15 227.75 28.5 227.55 28.9 227.15 29.15 227.15 29.65 226.55 29.9 Q224.5 32.35 221.65 33.6 L219.65 34.65 216.4 35.05 Q218.8 36.15 221.65 35.8 L222.25 36.1 222.65 36.4 222.9 36.8 222.9 37.15 222.9 37.4 223.25 37.6 223.65 37.9 223.85 38.3 223.9 38.65 223.9 39.05 223.9 39.4 223.65 40.15 223.3 40.9 223.15 41.3 Q222.05 42.35 220.55 42.95 L219.55 43.4 218.8 44.15 217.65 45.3 217.45 45.65 217.3 46.05 216.9 46.8 216.9 47.9 216.9 49.4 216.9 49.8 217.05 50.15 217.3 50.55 217.65 51.3 220.65 54.3 222.05 55.65 222.75 56.1 223.55 56.65 223.65 56.8 230.8 58.55 233.9 58.55 234.65 58.3 235.25 58.6 235.65 58.95 235.9 59.3 235.85 60.05 235.45 61.2 235.05 61.9 232.1 64.95 Q231.2 65.9 230.05 66.4 L229.65 66.8 229.4 67.05 Q227.35 68.1 225.15 68.8 L223.65 69.3 216.65 69.3 215.95 69.0 215.65 68.85 214.9 68.55 214.55 68.15 214.3 67.9 209.65 65.8 207.9 65.05 205.3 65.05 204.8 65.4 204.6 65.75 204.3 66.15 203.9 66.55 203.8 66.9 203.65 67.3 203.45 67.7 203.4 68.05 203.8 69.55 Q204.05 70.6 204.8 71.4 205.2 71.9 205.75 72.15 206.5 72.55 207.05 73.15 L207.8 73.55 212.65 73.8 213.25 74.1 213.65 74.45 213.9 74.8 213.9 75.15 213.75 75.55 213.55 75.9 213.15 76.3 212.9 76.55 212.65 76.65 212.15 76.8 211.4 77.05 211.05 77.4 210.65 77.65 207.8 78.55 207.15 78.8 201.8 79.05 202.65 79.8 203.65 80.8 207.75 82.6 Q208.85 83.1 209.3 84.15 L209.35 84.3 213.8 85.05 216.4 85.05 220.65 83.8 221.3 83.55 221.15 83.35 220.4 83.05 219.3 81.9 218.15 80.8 217.95 80.4 217.9 80.05 217.9 79.65 217.65 79.3 217.4 78.9 217.4 77.8 217.4 76.3 217.4 75.55 217.8 75.2 218.2 74.95 218.65 74.8 219.65 74.8 224.3 76.05 224.9 76.05 231.9 74.55 232.3 74.2 232.7 73.95 233.3 73.65 233.65 73.3 233.9 73.05 234.8 72.65 235.8 72.15 236.15 71.8 236.4 71.55 236.7 71.4 237.3 71.15 238.05 70.4 238.8 69.65 239.1 68.95 239.6 67.75 239.9 67.05 240.3 66.65 240.65 66.3 241.05 65.6 241.65 64.45 241.9 63.65 241.9 63.3 241.9 62.9 241.9 62.55 242.0 62.2 242.15 61.8 242.4 61.4 242.4 59.9 242.4 57.3 242.4 56.9 242.25 56.55 242.05 56.15 241.9 55.8 241.9 55.4 241.9 55.05 241.65 54.3 241.05 53.15 240.65 52.4 239.95 53.05 239.15 53.8 238.9 54.05 Q236.05 55.6 232.8 56.1 L232.15 56.3 231.45 56.0 231.15 55.85 230.4 55.55 229.65 54.8 228.55 53.65 228.4 53.3 228.25 52.95 227.9 52.55 227.9 52.15 227.9 51.8 227.9 51.4 227.75 51.05 227.55 50.65 227.4 50.3 227.45 47.3 227.4 43.55 227.65 42.8 227.95 42.05 228.15 41.7 228.15 41.8 229.55 38.9 230.45 37.35 231.15 36.3 231.9 35.55 231.9 34.4 231.9 33.65 231.9 33.3 232.05 32.9 232.6 31.75 233.2 30.6 233.55 29.9 233.9 29.55 234.7 28.8 235.8 27.65 236.2 27.4 237.15 26.9 Q237.9 26.45 238.65 26.35 L238.65 26.3 244.15 26.3 244.8 26.5 248.2 27.7 Q249.1 28.0 249.55 28.7 L250.15 28.85 250.8 28.95 252.05 29.15 251.7 28.75 251.45 28.4 251.25 28.05 250.7 27.3 250.25 26.95 249.45 26.55 248.7 25.8 248.3 25.4 247.55 24.65 247.3 24.4 M251.55 24.65 L252.3 25.05 252.8 25.4 253.2 25.8 253.55 26.15 253.95 26.85 254.5 27.7 255.8 29.8 256.95 32.15 256.9 32.5 256.8 32.9 256.65 33.25 256.45 33.55 Q254.0 33.6 251.65 32.35 249.25 31.15 246.7 31.3 L246.7 30.35 245.65 29.85 243.9 29.05 239.3 29.05 238.55 29.4 238.15 29.65 237.55 29.9 237.15 30.3 236.8 30.65 236.4 31.05 236.05 31.4 235.85 31.75 235.25 32.9 234.8 34.0 234.4 34.8 234.4 35.15 234.4 35.55 234.4 35.9 234.4 36.3 234.15 36.65 234.15 36.8 233.95 37.15 233.75 37.5 233.55 37.9 233.15 38.3 232.8 38.65 232.4 39.05 231.3 42.0 230.55 43.6 230.0 44.45 229.9 44.65 229.9 46.15 229.9 48.8 229.9 49.15 230.0 49.5 230.15 49.9 230.4 50.3 230.4 50.65 230.4 51.05 230.65 51.4 230.9 51.8 231.05 52.15 231.4 52.55 231.8 52.9 232.05 53.15 Q234.75 53.05 237.3 51.65 L238.3 51.15 238.6 50.4 238.95 49.65 239.4 48.9 239.4 48.55 239.4 48.15 239.45 47.8 239.55 47.4 239.95 47.1 240.65 46.8 241.3 47.05 Q242.35 48.15 242.8 49.6 243.2 51.0 243.9 52.3 L243.9 52.65 243.9 53.05 244.15 53.4 244.35 53.8 244.4 54.15 244.5 54.9 244.8 55.65 244.95 56.05 244.9 58.65 244.95 62.4 244.85 62.75 244.7 63.15 244.4 63.55 244.4 63.9 244.4 64.3 244.4 64.65 244.4 65.05 Q243.65 67.1 242.45 68.95 L240.15 71.8 239.95 72.2 239.75 72.55 239.55 72.9 239.15 73.15 238.55 73.4 238.15 73.8 237.9 74.05 237.65 74.15 237.05 74.4 236.65 74.8 236.4 75.05 235.55 75.45 234.55 75.9 234.15 76.3 233.9 76.55 233.05 76.95 232.05 77.45 231.65 77.65 Q228.6 78.0 225.65 78.8 L223.65 78.8 221.7 78.25 220.9 78.05 220.4 78.2 220.4 78.4 Q220.45 79.4 221.2 80.0 L223.05 81.65 223.8 82.05 Q224.55 82.4 225.15 82.95 L225.4 83.3 225.4 83.65 225.25 84.05 225.05 84.4 224.65 84.8 224.4 85.05 Q221.7 86.6 218.7 87.35 L217.15 87.8 213.15 87.8 Q209.35 87.55 205.9 86.05 L205.55 85.65 205.3 85.4 205.15 85.3 204.45 85.0 204.05 84.65 204.0 84.1 Q203.45 83.75 202.9 83.55 L202.55 83.15 202.3 82.9 202.15 82.8 201.4 82.55 200.3 81.4 199.3 80.4 199.15 80.3 198.4 80.05 198.05 79.65 197.8 79.4 196.6 78.9 Q195.8 78.4 194.9 78.05 L194.2 77.4 Q193.45 76.95 193.4 76.15 L193.45 75.8 193.6 75.45 193.9 75.05 194.65 74.8 196.15 74.8 199.15 75.8 199.8 76.05 206.4 76.05 206.15 75.85 205.4 75.55 204.65 74.8 203.9 74.05 203.65 73.85 202.95 73.5 202.55 73.15 Q201.9 72.5 201.65 71.65 L200.9 69.8 200.9 68.65 200.9 66.8 200.9 66.4 201.0 66.1 201.3 65.65 201.65 65.3 201.85 64.9 201.9 64.55 203.0 63.4 204.15 62.4 208.15 62.3 214.75 65.15 215.65 65.8 216.3 66.05 216.7 66.25 217.3 66.55 222.9 66.55 Q225.75 65.95 228.3 64.65 L229.45 63.6 230.4 62.55 230.65 62.4 231.25 62.1 231.4 61.8 Q227.95 60.2 222.9 59.55 L222.55 59.15 222.3 58.9 221.45 58.5 220.4 58.05 217.05 54.65 215.55 53.15 215.4 52.8 215.3 52.4 214.9 52.05 214.55 51.65 214.45 51.3 214.4 50.9 214.4 50.55 214.35 50.2 214.15 49.8 213.9 49.4 213.9 49.05 213.9 48.65 213.9 48.3 214.05 47.9 214.25 47.5 214.4 47.15 214.4 46.8 214.4 46.4 214.4 45.65 214.4 45.3 214.55 44.9 214.8 44.5 215.15 43.8 216.65 42.25 217.8 41.15 219.2 40.45 220.8 39.65 220.9 38.9 220.9 38.8 Q216.85 38.55 213.4 36.55 L213.05 36.15 212.65 35.8 212.3 35.4 212.0 35.0 211.85 34.65 211.65 34.3 211.3 33.9 210.9 33.55 210.65 33.35 209.9 33.05 208.75 32.0 Q207.95 31.35 207.9 30.4 L208.0 30.05 208.3 29.65 208.65 29.4 209.15 29.3 210.15 29.3 210.8 29.55 211.15 29.9 211.4 30.3 212.0 30.7 212.4 31.05 216.3 32.05 218.4 32.05 219.15 31.8 219.9 31.55 220.3 31.15 220.65 30.9 221.15 30.75 221.9 30.55 222.65 29.8 222.9 29.55 222.9 29.4 223.0 29.05 223.3 28.65 223.65 28.3 224.05 27.9 224.4 27.55 225.25 27.1 225.65 26.8 226.05 26.4 226.25 26.0 226.45 25.65 226.65 25.3 227.05 24.9 227.4 24.55 227.8 24.15 228.55 23.4 228.75 23.0 228.95 22.65 229.15 22.3 229.55 21.9 229.9 21.55 230.3 21.15 230.9 20.55 231.2 20.4 231.8 20.15 232.15 19.9 234.9 19.45 235.7 19.35 237.65 18.8 238.65 18.8 Q242.6 19.05 246.25 20.65 249.35 22.0 251.55 24.65 M206.65 5.15 Q206.3 5.65 206.1 6.25 L205.55 7.4 202.75 9.95 201.05 10.9 199.9 12.05 199.55 12.4 199.4 12.75 199.15 13.15 198.9 13.55 198.9 14.3 198.9 15.05 Q199.25 15.8 200.0 16.25 L200.65 16.8 201.3 17.05 203.9 17.05 204.8 16.65 205.8 14.35 206.75 12.5 206.9 12.15 206.9 8.8 Q206.9 7.45 207.05 6.15 207.15 5.05 206.65 5.15 M203.25 26.55 L203.8 26.9 204.05 27.15 204.65 27.3 206.2 28.25 206.55 28.65 206.75 29.05 206.95 29.4 207.25 30.15 207.4 30.55 207.4 30.9 207.4 32.05 207.4 32.8 207.4 33.55 207.3 33.9 207.15 34.25 206.75 35.0 206.55 35.4 206.15 35.65 205.55 35.95 205.15 36.15 204.65 36.25 202.15 36.3 201.4 36.05 201.05 35.65 199.9 34.55 199.15 33.8 198.95 33.4 198.85 33.05 198.55 32.25 198.4 31.9 198.4 31.55 198.4 30.4 198.4 29.65 198.4 28.9 198.5 28.55 198.75 28.1 199.05 27.4 199.4 27.05 Q199.6 26.85 199.85 26.75 L200.65 26.35 200.65 26.3 202.65 26.3 203.25 26.55 M203.15 30.3 L202.1 29.55 201.9 29.3 201.9 29.05 201.8 28.95 201.45 28.95 201.3 29.05 201.0 29.8 200.9 30.9 201.25 32.05 201.65 32.8 Q202.6 34.15 204.3 33.55 L204.45 33.15 204.9 32.4 204.9 31.65 204.8 30.9 Q204.5 30.6 204.1 30.45 L203.15 30.3 M191.65 11.85 L191.65 11.8 193.25 12.7 194.4 14.3 194.4 15.4 194.45 16.9 194.3 18.05 194.05 18.4 193.65 18.8 193.4 19.05 193.15 19.15 192.55 19.4 191.65 19.8 190.45 19.45 189.05 18.65 188.45 17.9 188.05 17.15 187.9 16.8 187.9 16.4 187.9 16.05 187.9 15.65 187.9 15.3 188.3 14.55 188.7 13.8 189.05 13.4 189.45 13.1 190.3 12.65 190.65 12.3 190.95 12.1 191.65 11.85 M191.3 15.55 L190.65 16.0 190.65 16.3 191.85 16.25 Q192.05 15.65 191.5 15.5 L191.3 15.55 M163.8 12.05 Q163.35 12.2 162.95 12.5 L162.65 12.8 Q162.75 13.85 164.3 14.1 L166.4 14.55 170.05 14.15 167.1 12.95 165.2 12.25 164.4 12.1 163.8 12.05 M162.9 9.55 L163.65 9.3 164.65 9.3 166.65 9.8 167.3 10.05 167.65 10.3 168.15 10.3 168.65 10.3 170.7 11.25 Q172.4 12.2 173.6 13.85 L173.9 14.55 173.9 14.9 173.85 15.25 173.65 15.65 173.4 16.0 173.05 16.4 172.65 16.6 172.15 16.8 171.3 17.05 170.65 17.3 166.65 17.3 162.65 16.3 Q161.5 15.9 160.55 15.15 L160.2 14.75 159.95 14.4 159.9 14.05 159.9 13.65 159.9 13.3 159.9 12.9 159.9 12.15 159.9 11.8 160.1 11.45 160.4 11.05 160.8 10.65 161.4 10.05 161.7 9.95 162.15 9.75 162.9 9.55 M166.05 21.15 L166.15 21.3 Q166.75 21.6 167.2 22.0 L167.8 22.65 167.9 23.05 167.9 23.4 167.9 23.8 167.45 24.55 167.3 24.9 167.15 25.3 166.1 26.0 164.65 26.65 162.65 26.8 161.95 26.5 161.55 26.15 161.2 25.75 161.0 25.4 160.9 25.05 160.9 24.3 160.9 23.55 160.9 22.8 161.3 22.05 161.7 21.3 162.05 20.9 162.45 20.65 163.15 20.35 163.15 20.3 163.65 20.3 164.15 20.3 164.65 20.3 165.75 20.95 166.05 21.15 M164.05 23.55 Q165.25 23.05 163.9 23.05 162.9 24.05 164.05 23.55 M171.7 23.45 L172.15 23.3 Q174.05 23.7 175.4 25.3 L177.55 27.65 178.45 29.2 179.3 30.65 179.4 31.05 179.4 31.4 179.4 31.8 179.55 32.15 179.75 32.55 179.9 32.9 179.9 33.3 179.9 33.65 180.0 34.0 180.15 34.4 180.4 34.8 180.4 35.55 180.4 36.3 180.4 37.05 180.4 37.4 180.35 37.75 180.15 38.15 179.9 38.55 179.9 38.9 179.9 39.3 178.7 40.85 177.15 42.15 175.15 42.3 173.65 41.8 172.9 41.55 172.15 40.8 171.4 40.05 171.05 39.65 170.9 39.3 170.75 38.95 170.4 38.55 170.4 38.15 170.4 37.8 170.25 37.45 169.9 37.05 169.95 35.55 169.9 33.65 169.9 32.55 170.15 31.8 170.45 31.05 170.9 30.3 170.9 29.9 170.9 29.55 171.25 29.15 171.4 28.8 171.4 28.4 171.4 28.05 171.5 27.7 171.65 27.3 171.85 26.9 171.8 26.55 171.0 25.95 170.4 25.3 170.4 24.9 170.5 24.6 170.8 24.15 171.15 23.8 171.45 23.55 171.7 23.45 M174.15 28.65 L174.0 29.45 173.9 30.15 173.15 32.0 172.4 33.55 172.4 34.3 172.4 35.05 172.85 36.55 173.4 38.05 174.15 38.8 174.4 39.05 175.2 39.25 175.9 39.3 176.9 38.6 177.15 38.3 177.35 37.9 177.4 37.55 177.4 37.15 177.65 36.8 177.9 36.4 177.75 36.05 177.55 35.65 177.4 35.3 177.4 34.55 177.4 33.8 177.25 33.45 176.9 33.05 176.9 32.65 176.9 32.3 176.15 30.8 175.55 29.65 174.85 28.85 Q174.6 28.5 174.3 28.6 L174.15 28.65 M183.05 68.6 Q180.9 69.35 178.55 69.35 175.4 69.4 172.45 70.35 L172.0 70.7 171.55 70.95 171.1 71.3 Q170.85 71.45 170.7 71.55 L170.45 71.95 170.15 72.25 169.9 72.6 169.7 72.9 169.45 73.25 169.15 73.55 169.05 73.95 169.0 74.3 168.95 74.7 168.85 75.05 168.85 75.4 168.95 75.8 169.15 76.25 169.2 76.65 169.5 77.1 169.8 77.5 170.1 77.95 170.4 78.4 171.05 78.9 172.15 79.1 173.05 78.85 173.5 78.6 173.95 78.3 174.25 78.0 174.5 77.7 174.8 77.35 175.1 77.0 175.15 76.65 175.3 75.9 175.5 75.2 175.85 74.5 Q176.0 74.35 176.15 74.3 L176.4 74.25 176.9 74.2 177.45 74.6 177.95 75.0 178.15 75.45 178.3 75.8 178.35 76.25 178.5 76.6 178.65 77.05 178.6 77.4 178.35 78.5 178.1 80.0 177.75 81.8 177.5 82.2 177.25 82.55 Q177.1 82.65 177.1 82.85 L176.95 83.2 176.8 83.55 176.45 83.85 175.6 84.45 174.75 85.05 174.0 85.55 173.7 85.6 171.8 85.7 171.15 85.8 170.15 85.6 169.45 85.25 Q167.8 84.8 166.4 83.9 L165.75 83.5 165.15 83.4 164.45 83.45 162.4 83.6 161.9 83.5 161.25 83.1 160.9 82.75 160.55 82.6 160.3 82.95 160.05 83.3 159.85 83.65 159.4 83.9 158.0 84.4 157.1 84.65 156.65 84.5 156.0 84.15 155.65 83.7 155.6 83.35 155.65 82.95 155.8 82.65 156.2 82.3 156.6 82.0 156.9 81.8 157.15 81.7 157.85 81.6 158.2 81.25 158.7 80.6 159.25 79.9 159.5 79.6 159.9 79.35 160.35 79.0 160.55 78.7 160.75 78.35 161.0 78.0 161.3 77.7 161.55 77.35 161.85 77.0 161.95 76.65 162.0 76.25 162.1 75.95 162.3 75.6 162.55 75.25 162.8 74.9 162.85 74.55 163.0 73.8 163.15 73.1 163.4 71.6 163.5 71.2 163.65 70.95 163.95 70.55 164.2 70.25 164.25 69.85 164.3 69.5 164.75 69.15 164.95 68.85 165.05 68.45 165.1 68.1 165.55 67.8 165.95 67.5 166.25 67.15 166.35 66.8 166.85 66.5 168.1 65.65 169.85 64.45 170.35 64.1 171.4 63.8 173.9 63.6 176.4 63.4 179.35 63.95 179.95 64.3 182.65 65.9 Q183.35 66.35 183.5 67.15 L183.5 67.55 183.45 67.9 183.35 68.25 183.05 68.6 M170.75 67.25 L169.0 68.45 168.1 69.05 167.9 69.4 167.6 69.7 167.05 70.35 Q166.65 70.85 166.5 71.45 L166.45 71.75 166.3 72.1 166.05 72.45 165.75 72.8 165.65 73.15 165.6 73.55 165.4 74.6 165.15 75.75 165.1 76.1 165.0 76.45 164.7 76.8 164.4 77.15 164.35 77.5 164.25 77.85 164.2 78.2 164.1 78.6 163.95 78.95 163.75 79.3 163.4 79.6 162.95 80.25 162.8 80.4 164.25 80.6 165.0 80.55 167.0 80.95 168.35 81.7 171.7 82.95 172.2 82.95 172.95 82.85 173.45 82.5 173.85 82.25 174.25 81.9 174.65 81.65 174.6 81.4 173.9 81.35 173.45 81.65 173.15 81.8 172.9 81.9 172.4 81.9 170.4 81.6 169.8 81.15 169.5 80.95 168.65 80.25 167.95 79.85 167.7 79.4 167.35 78.95 166.75 78.1 166.5 77.65 166.4 77.25 166.3 76.9 166.05 76.45 166.15 76.05 166.2 75.7 166.4 74.55 166.7 73.1 166.85 72.35 167.0 72.1 167.3 71.7 167.55 71.35 167.6 71.0 167.65 70.65 168.15 70.3 168.55 70.05 168.8 69.7 168.95 69.35 169.4 69.05 169.8 68.75 170.7 68.15 171.15 67.85 172.65 67.45 176.9 66.6 178.0 66.5 176.8 66.15 176.55 66.2 175.9 66.25 173.5 66.15 172.7 66.4 172.25 66.55 171.65 66.65 171.15 67.0 170.75 67.25 M104.75 20.65 L104.9 21.05 104.9 24.05 104.9 28.15 104.9 28.9 104.35 30.45 103.4 32.3 103.15 32.65 102.75 33.0 102.05 33.45 101.65 33.65 99.65 33.8 98.9 33.55 98.55 33.15 98.15 32.8 97.8 32.4 97.1 31.3 96.55 30.15 96.4 29.8 96.4 28.65 96.4 27.55 96.4 26.4 96.5 26.1 96.75 25.65 96.9 25.3 97.05 24.9 97.4 24.55 97.8 24.15 98.15 23.8 98.35 23.4 98.4 23.05 99.6 22.0 100.4 20.8 Q100.5 20.15 100.25 19.6 L99.6 18.1 99.4 17.55 98.65 17.25 97.6 16.6 97.4 16.3 97.4 15.9 97.5 15.55 97.75 15.15 97.9 14.8 Q97.9 14.4 98.05 14.1 L98.7 13.5 99.15 13.3 99.65 13.35 100.25 13.55 100.8 13.9 101.1 14.3 101.3 14.65 101.75 15.05 102.15 15.4 103.35 17.65 104.75 20.65 M102.15 23.15 L100.8 24.7 99.65 25.8 99.25 26.55 99.05 26.95 98.9 27.3 98.9 27.65 98.9 28.05 98.9 28.4 98.9 28.8 99.3 29.55 99.7 30.25 100.05 30.65 100.35 30.95 100.9 31.05 101.65 29.5 102.25 28.0 102.4 27.65 102.4 25.8 102.5 23.55 Q102.5 22.9 102.15 23.15 M81.65 30.8 L82.65 30.8 Q83.75 31.2 84.6 32.1 85.45 33.15 85.9 34.4 L85.9 35.15 85.95 36.3 85.8 37.4 85.6 37.75 84.75 38.5 84.15 38.8 82.65 38.8 81.9 38.55 80.4 38.05 80.05 37.65 79.9 37.3 79.75 36.95 79.4 36.55 79.4 35.8 79.4 34.65 79.4 33.55 79.45 33.2 79.65 32.8 79.85 32.4 79.9 32.05 80.25 31.65 80.95 31.15 81.65 30.85 81.65 30.8 M82.15 34.15 Q81.65 34.85 82.25 35.45 L83.25 36.05 Q83.5 35.4 83.0 34.85 L82.45 34.25 82.15 34.15 M86.65 42.8 L86.95 43.5 87.35 44.35 87.4 44.65 Q87.6 46.2 88.15 47.7 L89.4 51.05 89.4 51.8 89.4 52.9 89.4 53.65 88.85 54.8 88.0 55.9 87.65 56.15 85.65 56.3 84.9 56.0 83.9 55.55 83.1 54.5 82.6 53.3 82.4 52.9 82.4 52.55 82.4 52.15 82.4 51.8 82.25 51.45 81.9 51.05 81.9 48.8 81.9 45.8 81.9 45.4 81.95 45.1 82.35 44.25 82.4 43.9 82.05 43.25 81.5 42.35 81.4 42.05 81.45 41.7 81.65 41.3 81.9 41.05 82.65 40.8 84.15 40.3 84.8 40.55 85.15 40.95 85.4 41.3 85.55 41.65 85.9 42.05 86.3 42.4 86.65 42.8 M84.35 47.95 L84.4 49.8 84.55 50.15 84.75 50.55 84.9 50.9 84.9 51.3 84.9 51.65 84.95 52.0 85.4 52.8 Q85.8 53.75 86.7 52.95 L86.9 52.65 Q86.5 50.35 85.75 48.1 85.2 46.35 84.65 45.65 84.25 46.7 84.35 47.95 M56.7 4.55 L56.9 4.3 56.3 3.2 Q56.05 2.4 55.65 2.15 L55.0 2.4 54.85 2.75 54.45 3.55 54.4 3.9 54.5 4.2 55.25 5.05 55.9 5.05 56.7 4.55 M17.75 15.9 L18.65 17.4 19.2 18.55 19.35 18.9 19.35 19.3 19.35 19.65 19.35 20.0 19.25 20.4 18.7 21.1 18.0 21.9 17.6 22.15 17.0 22.45 16.6 22.65 16.1 22.75 15.1 22.8 14.35 22.55 13.25 21.4 12.5 20.65 12.35 20.3 12.2 19.95 11.85 19.55 11.85 19.15 11.85 18.8 11.85 18.4 11.85 18.05 11.9 17.65 12.1 17.3 12.3 16.9 12.35 16.55 13.15 15.8 13.65 15.45 14.1 15.3 15.1 15.35 16.1 15.3 17.2 15.6 17.75 15.9 M15.25 17.7 L15.1 17.8 Q14.2 18.25 14.55 18.95 L15.35 20.05 15.85 19.95 16.75 19.65 16.25 18.55 Q15.95 17.85 15.25 17.7 M8.6 47.95 Q8.9 47.25 9.65 46.95 L10.1 46.8 10.6 46.85 11.2 47.05 11.75 47.4 12.05 47.8 12.25 48.15 12.35 48.55 12.75 48.9 13.1 49.3 13.25 49.65 13.4 51.15 13.3 53.05 13.1 53.8 12.85 54.0 12.6 54.15 12.1 54.3 10.1 54.3 9.4 53.95 9.0 53.65 8.4 52.9 8.0 52.15 7.85 51.8 7.85 51.05 7.85 49.9 7.85 49.15 8.6 47.95 M24.85 48.15 L24.85 46.3 25.05 45.95 25.75 45.15 26.35 44.55 26.6 44.4 27.65 43.95 28.1 43.8 29.6 43.8 30.2 44.1 30.6 44.4 30.8 44.8 30.85 45.15 30.85 45.55 31.1 45.9 31.35 46.3 31.35 46.65 31.35 47.8 31.35 49.3 31.1 49.65 30.5 50.4 29.6 51.15 29.1 51.25 27.6 51.3 26.85 51.05 26.5 50.65 26.25 50.4 26.1 50.3 25.4 49.95 25.0 49.65 24.9 49.3 24.85 48.15 M27.35 47.8 L27.55 48.1 28.1 48.4 28.6 48.15 28.85 47.55 28.85 47.15 28.7 46.95 28.5 46.95 28.25 47.05 Q27.85 47.2 27.55 47.5 L27.35 47.8 M-58.7 42.9 L-58.65 42.55 -58.25 42.2 -57.85 41.95 -57.25 41.65 -56.9 41.3 -56.6 41.05 -56.4 40.95 -55.9 40.85 -55.9 40.8 Q-54.2 40.95 -52.8 42.0 -51.8 42.75 -51.15 43.8 L-51.15 44.15 -51.15 44.55 -51.15 44.9 -51.15 45.3 -51.4 45.65 -51.65 46.05 -52.0 46.4 -53.0 46.9 -54.0 47.45 -54.4 47.65 -56.9 47.8 -57.9 47.3 -58.6 47.0 -59.0 46.65 -59.1 45.9 -59.15 45.55 -59.15 44.8 -59.15 44.05 -59.1 43.7 -58.9 43.3 -58.7 42.9 M-56.5 45.05 L-55.15 45.05 -54.55 44.55 Q-54.45 44.35 -54.65 44.05 L-54.75 43.95 -55.0 43.95 -55.25 44.05 -55.9 44.3 -56.55 44.65 -56.65 44.9 -56.5 45.05 M-44.9 51.35 L-44.25 51.55 -43.4 52.6 -42.75 54.15 -42.65 54.55 -42.65 54.9 -42.65 55.3 -42.65 56.05 -42.65 56.4 -42.7 56.8 -42.9 57.15 -43.15 57.55 -43.15 57.9 -43.15 58.3 -43.4 58.65 -43.65 59.0 -44.4 59.65 -46.4 59.8 -47.15 59.55 -47.5 59.15 -47.9 58.8 -48.25 58.4 -48.55 58.0 -48.7 57.7 -49.15 56.9 -49.15 56.15 -49.15 55.05 -49.15 54.3 -48.75 53.55 -48.35 52.8 -48.0 52.4 Q-47.2 51.7 -46.15 51.5 L-45.4 51.3 -44.9 51.35 M-46.0 54.4 L-46.15 54.8 -46.4 55.15 -46.65 55.55 -46.4 56.3 -46.15 57.05 -45.7 56.65 -45.15 55.9 -45.45 55.15 -45.75 54.5 Q-45.8 54.4 -46.0 54.4 M-61.25 73.95 L-60.95 74.35 -60.6 75.05 -60.15 75.8 -60.15 76.55 -60.15 77.7 -60.15 78.8 -60.4 79.15 -61.05 79.9 -61.65 80.55 -61.9 80.65 -62.5 80.95 -62.9 81.2 -63.4 81.25 -64.4 81.3 -65.1 81.0 -66.1 80.5 -66.5 80.2 -66.85 79.8 -67.1 79.4 -67.15 79.05 -67.15 78.7 -67.15 78.3 -67.15 77.95 -67.15 77.55 -67.1 77.2 -66.9 76.8 -66.7 76.4 -66.65 76.05 -65.6 74.85 Q-64.7 73.65 -63.4 73.35 L-63.4 73.3 -62.4 73.3 -61.8 73.6 -61.25 73.95 M-63.6 78.25 Q-62.9 78.0 -62.7 77.3 -62.6 76.85 -62.9 77.2 L-63.85 77.85 -64.4 78.3 -63.6 78.25 M-23.9 67.3 L-22.9 67.8 -21.8 68.45 -21.4 68.8 Q-21.05 69.5 -21.05 70.3 L-21.1 72.55 -21.15 73.3 -21.65 74.05 -22.0 74.4 -22.4 74.7 -24.9 74.8 -25.65 74.55 -26.4 73.8 -27.15 73.05 -27.5 72.7 -27.6 71.9 -27.65 71.2 -27.65 70.45 -27.55 70.1 -27.3 69.65 -27.15 69.3 -27.0 68.9 -26.65 68.55 -26.25 68.15 -25.35 67.85 -23.9 67.35 -23.9 67.3 M-24.5 70.45 L-24.65 70.8 -24.8 71.2 -24.75 71.55 -24.35 71.85 -23.75 72.05 -23.55 71.05 Q-23.55 70.6 -23.95 70.45 L-24.5 70.45" fill="#ffcc00" fill-rule="evenodd" stroke="none"/>
    <path d="M76.25 -120.1 L76.9 -119.35 76.9 -119.0 76.9 -118.6 77.65 -117.6 78.4 -115.6 78.4 -115.25 78.4 -114.85 78.4 -114.5 78.7 -114.1 78.9 -113.35 78.6 -112.6 Q78.45 -111.9 77.9 -111.5 L77.75 -111.35 77.15 -111.25 76.75 -111.45 76.05 -111.85 75.55 -113.25 74.9 -114.75 74.9 -115.1 74.9 -115.85 74.9 -116.6 74.75 -117.0 74.55 -117.4 74.4 -117.75 74.4 -118.1 74.4 -118.5 74.15 -119.25 73.9 -120.0 73.9 -121.1 73.9 -122.25 74.6 -122.15 75.65 -121.25 75.85 -120.85 75.9 -120.5 76.25 -120.1 M37.75 -106.6 L37.9 -107.0 38.05 -107.1 38.25 -107.05 38.5 -106.85 38.9 -106.5 39.6 -106.15 39.75 -106.0 39.9 -105.65 40.1 -105.25 40.25 -104.85 39.65 -103.75 Q39.4 -103.1 38.9 -102.75 38.45 -102.8 38.1 -103.0 L37.9 -103.25 37.65 -103.6 37.45 -104.0 37.4 -104.35 37.4 -105.1 37.4 -105.85 37.6 -106.25 37.75 -106.6 M50.9 -73.25 L50.9 -73.3 51.8 -73.05 Q52.25 -72.75 52.15 -72.25 L51.55 -72.35 Q51.15 -72.65 50.9 -73.25 M63.4 -59.25 L63.4 -58.85 63.4 -58.5 63.4 -58.1 63.5 -57.75 63.45 -56.95 63.4 -56.6 Q62.7 -56.35 62.15 -57.0 61.65 -57.55 61.4 -58.25 L61.55 -58.9 62.15 -59.75 62.25 -59.8 63.2 -59.5 63.4 -59.25 M88.4 -75.5 L88.9 -75.45 91.9 -74.5 93.05 -73.4 94.4 -71.85 91.8 -71.5 91.15 -71.75 90.75 -72.05 89.55 -72.85 88.35 -73.95 Q87.45 -74.75 88.4 -75.5 M105.15 -29.7 L105.35 -29.35 105.4 -28.95 105.4 -28.6 105.35 -28.25 105.3 -27.85 102.3 -27.95 101.9 -28.7 101.4 -29.45 101.65 -29.85 101.9 -30.25 102.05 -30.6 102.65 -30.85 103.15 -30.85 Q104.4 -30.85 104.9 -30.1 L105.15 -29.7 M91.4 -6.35 L91.4 -6.7 91.4 -7.1 91.65 -7.0 92.05 -6.35 92.4 -5.95 93.15 -5.2 93.5 -4.6 Q94.0 -4.05 93.9 -3.35 L93.8 -3.1 93.3 -2.95 92.55 -3.35 92.0 -4.5 Q91.55 -5.2 91.4 -5.95 L91.4 -6.35 M108.05 -7.45 L108.15 -7.55 108.9 -7.55 108.9 -7.45 108.9 -7.2 108.9 -6.85 108.9 -6.45 108.9 -6.1 Q108.35 -5.4 108.1 -4.55 L107.8 -3.45 Q107.15 -2.6 106.75 -1.6 106.3 -0.45 105.4 -0.35 L105.4 -0.7 105.4 -1.45 105.4 -2.2 105.9 -2.95 106.4 -3.7 106.4 -4.1 106.4 -4.45 107.15 -5.9 108.05 -7.45 M247.3 24.4 L247.55 24.65 248.3 25.4 248.7 25.8 249.45 26.55 250.25 26.95 250.7 27.3 251.25 28.05 251.45 28.4 251.7 28.75 252.05 29.15 250.8 28.95 250.15 28.85 249.55 28.7 Q249.1 28.0 248.2 27.7 L244.8 26.5 244.15 26.3 238.65 26.3 238.65 26.35 Q237.9 26.45 237.15 26.9 L236.2 27.4 235.8 27.65 234.7 28.8 233.9 29.55 233.55 29.9 233.2 30.6 232.6 31.75 232.05 32.9 231.9 33.3 231.9 33.65 231.9 34.4 231.9 35.55 231.15 36.3 230.45 37.35 229.55 38.9 228.15 41.8 228.15 41.7 227.95 42.05 227.65 42.8 227.4 43.55 227.45 47.3 227.4 50.3 227.55 50.65 227.75 51.05 227.9 51.4 227.9 51.8 227.9 52.15 227.9 52.55 228.25 52.95 228.4 53.3 228.55 53.65 229.65 54.8 230.4 55.55 231.15 55.85 231.45 56.0 232.15 56.3 232.8 56.1 Q236.05 55.6 238.9 54.05 L239.15 53.8 239.95 53.05 240.65 52.4 241.05 53.15 241.65 54.3 241.9 55.05 241.9 55.4 241.9 55.8 242.05 56.15 242.25 56.55 242.4 56.9 242.4 57.3 242.4 59.9 242.4 61.4 242.15 61.8 242.0 62.2 241.9 62.55 241.9 62.9 241.9 63.3 241.9 63.65 241.65 64.45 241.05 65.6 240.65 66.3 240.3 66.65 239.9 67.05 239.6 67.75 239.1 68.95 238.8 69.65 238.05 70.4 237.3 71.15 236.7 71.4 236.4 71.55 236.15 71.8 235.8 72.15 234.8 72.65 233.9 73.05 233.65 73.3 233.3 73.65 232.7 73.95 232.3 74.2 231.9 74.55 224.9 76.05 224.3 76.05 219.65 74.8 218.65 74.8 218.2 74.95 217.8 75.2 217.4 75.55 217.4 76.3 217.4 77.8 217.4 78.9 217.65 79.3 217.9 79.65 217.9 80.05 217.95 80.4 218.15 80.8 219.3 81.9 220.4 83.05 221.15 83.35 221.3 83.55 220.65 83.8 216.4 85.05 213.8 85.05 209.35 84.3 209.3 84.15 Q208.85 83.1 207.75 82.6 L203.65 80.8 202.65 79.8 201.8 79.05 207.15 78.8 207.8 78.55 210.65 77.65 211.05 77.4 211.4 77.05 212.15 76.8 212.65 76.65 212.9 76.55 213.15 76.3 213.55 75.9 213.75 75.55 213.9 75.15 213.9 74.8 213.65 74.45 213.25 74.1 212.65 73.8 207.8 73.55 207.05 73.15 Q206.5 72.55 205.75 72.15 205.2 71.9 204.8 71.4 204.05 70.6 203.8 69.55 L203.4 68.05 203.45 67.7 203.65 67.3 203.8 66.9 203.9 66.55 204.3 66.15 204.6 65.75 204.8 65.4 205.3 65.05 207.9 65.05 209.65 65.8 214.3 67.9 214.55 68.15 214.9 68.55 215.65 68.85 215.95 69.0 216.65 69.3 223.65 69.3 225.15 68.8 Q227.35 68.1 229.4 67.05 L229.65 66.8 230.05 66.4 Q231.2 65.9 232.1 64.95 L235.05 61.9 235.45 61.2 235.85 60.05 235.9 59.3 235.65 58.95 235.25 58.6 234.65 58.3 233.9 58.55 230.8 58.55 223.65 56.8 223.55 56.65 222.75 56.1 222.05 55.65 220.65 54.3 217.65 51.3 217.3 50.55 217.05 50.15 216.9 49.8 216.9 49.4 216.9 47.9 216.9 46.8 217.3 46.05 217.45 45.65 217.65 45.3 218.8 44.15 219.55 43.4 220.55 42.95 Q222.05 42.35 223.15 41.3 L223.3 40.9 223.65 40.15 223.9 39.4 223.9 39.05 223.9 38.65 223.85 38.3 223.65 37.9 223.25 37.6 222.9 37.4 222.9 37.15 222.9 36.8 222.65 36.4 222.25 36.1 221.65 35.8 Q218.8 36.15 216.4 35.05 L219.65 34.65 221.65 33.6 Q224.5 32.35 226.55 29.9 L227.15 29.65 227.15 29.15 227.55 28.9 227.75 28.5 227.95 28.15 228.15 27.8 228.9 27.05 229.3 26.65 229.65 26.25 229.8 25.9 230.3 25.5 230.65 25.15 230.9 24.75 231.05 24.4 231.4 24.05 231.8 23.65 232.15 23.3 232.55 22.9 233.3 22.55 Q238.2 20.95 242.9 22.6 L247.3 24.4 M206.65 5.15 Q207.15 5.05 207.05 6.15 206.9 7.45 206.9 8.8 L206.9 12.15 206.75 12.5 205.8 14.35 204.8 16.65 203.9 17.05 201.3 17.05 200.65 16.8 200.0 16.25 Q199.25 15.8 198.9 15.05 L198.9 14.3 198.9 13.55 199.15 13.15 199.4 12.75 199.55 12.4 199.9 12.05 201.05 10.9 202.75 9.95 205.55 7.4 206.1 6.25 Q206.3 5.65 206.65 5.15 M203.15 30.3 L204.1 30.45 Q204.5 30.6 204.8 30.9 L204.9 31.65 204.9 32.4 204.45 33.15 204.3 33.55 Q202.6 34.15 201.65 32.8 L201.25 32.05 200.9 30.9 201.0 29.8 201.3 29.05 201.45 28.95 201.8 28.95 201.9 29.05 201.9 29.3 202.1 29.55 203.15 30.3 M163.8 12.05 L164.4 12.1 165.2 12.25 167.1 12.95 170.05 14.15 166.4 14.55 164.3 14.1 Q162.75 13.85 162.65 12.8 L162.95 12.5 Q163.35 12.2 163.8 12.05 M191.3 15.55 L191.5 15.5 Q192.05 15.65 191.85 16.25 L190.65 16.3 190.65 16.0 191.3 15.55 M164.05 23.55 Q162.9 24.05 163.9 23.05 165.25 23.05 164.05 23.55 M174.15 28.65 L174.3 28.6 Q174.6 28.5 174.85 28.85 L175.55 29.65 176.15 30.8 176.9 32.3 176.9 32.65 176.9 33.05 177.25 33.45 177.4 33.8 177.4 34.55 177.4 35.3 177.55 35.65 177.75 36.05 177.9 36.4 177.65 36.8 177.4 37.15 177.4 37.55 177.35 37.9 177.15 38.3 176.9 38.6 175.9 39.3 175.2 39.25 174.4 39.05 174.15 38.8 173.4 38.05 172.85 36.55 172.4 35.05 172.4 34.3 172.4 33.55 173.15 32.0 173.9 30.15 174.0 29.45 174.15 28.65 M170.75 67.25 L171.15 67.0 171.65 66.65 172.25 66.55 172.7 66.4 173.5 66.15 175.9 66.25 176.55 66.2 176.8 66.15 178.0 66.5 176.9 66.6 172.65 67.45 171.15 67.85 170.7 68.15 169.8 68.75 169.4 69.05 168.95 69.35 168.8 69.7 168.55 70.05 168.15 70.3 167.65 70.65 167.6 71.0 167.55 71.35 167.3 71.7 167.0 72.1 166.85 72.35 166.7 73.1 166.4 74.55 166.2 75.7 166.15 76.05 166.05 76.45 166.3 76.9 166.4 77.25 166.5 77.65 166.75 78.1 167.35 78.95 167.7 79.4 167.95 79.85 168.65 80.25 169.5 80.95 169.8 81.15 170.4 81.6 172.4 81.9 172.9 81.9 173.15 81.8 173.45 81.65 173.9 81.35 174.6 81.4 174.65 81.65 174.25 81.9 173.85 82.25 173.45 82.5 172.95 82.85 172.2 82.95 171.7 82.95 168.35 81.7 167.0 80.95 165.0 80.55 164.25 80.6 162.8 80.4 162.95 80.25 163.4 79.6 163.75 79.3 163.95 78.95 164.1 78.6 164.2 78.2 164.25 77.85 164.35 77.5 164.4 77.15 164.7 76.8 165.0 76.45 165.1 76.1 165.15 75.75 165.4 74.6 165.6 73.55 165.65 73.15 165.75 72.8 166.05 72.45 166.3 72.1 166.45 71.75 166.5 71.45 Q166.65 70.85 167.05 70.35 L167.6 69.7 167.9 69.4 168.1 69.05 169.0 68.45 170.75 67.25 M102.15 23.15 Q102.5 22.9 102.5 23.55 L102.4 25.8 102.4 27.65 102.25 28.0 101.65 29.5 100.9 31.05 100.35 30.95 100.05 30.65 99.7 30.25 99.3 29.55 98.9 28.8 98.9 28.4 98.9 28.05 98.9 27.65 98.9 27.3 99.05 26.95 99.25 26.55 99.65 25.8 100.8 24.7 102.15 23.15 M82.15 34.15 L82.45 34.25 83.0 34.85 Q83.5 35.4 83.25 36.05 L82.25 35.45 Q81.65 34.85 82.15 34.15 M56.7 4.55 L55.9 5.05 55.25 5.05 54.5 4.2 54.4 3.9 54.45 3.55 54.85 2.75 55.0 2.4 55.65 2.15 Q56.05 2.4 56.3 3.2 L56.9 4.3 56.7 4.55 M84.35 47.95 Q84.25 46.7 84.65 45.65 85.2 46.35 85.75 48.1 86.5 50.35 86.9 52.65 L86.7 52.95 Q85.8 53.75 85.4 52.8 L84.95 52.0 84.9 51.65 84.9 51.3 84.9 50.9 84.75 50.55 84.55 50.15 84.4 49.8 84.35 47.95 M15.25 17.7 Q15.95 17.85 16.25 18.55 L16.75 19.65 15.85 19.95 15.35 20.05 14.55 18.95 Q14.2 18.25 15.1 17.8 L15.25 17.7 M27.35 47.8 L27.55 47.5 Q27.85 47.2 28.25 47.05 L28.5 46.95 28.7 46.95 28.85 47.15 28.85 47.55 28.6 48.15 28.1 48.4 27.55 48.1 27.35 47.8 M-56.5 45.05 L-56.65 44.9 -56.55 44.65 -55.9 44.3 -55.25 44.05 -55.0 43.95 -54.75 43.95 -54.65 44.05 Q-54.45 44.35 -54.55 44.55 L-55.15 45.05 -56.5 45.05 M-46.0 54.4 Q-45.8 54.4 -45.75 54.5 L-45.45 55.15 -45.15 55.9 -45.7 56.65 -46.15 57.05 -46.4 56.3 -46.65 55.55 -46.4 55.15 -46.15 54.8 -46.0 54.4 M-63.6 78.25 L-64.4 78.3 -63.85 77.85 -62.9 77.2 Q-62.6 76.85 -62.7 77.3 -62.9 78.0 -63.6 78.25 M-24.5 70.45 L-23.95 70.45 Q-23.55 70.6 -23.55 71.05 L-23.75 72.05 -24.35 71.85 -24.75 71.55 -24.8 71.2 -24.65 70.8 -24.5 70.45" fill="#ffcc66" fill-rule="evenodd" stroke="none"/>
  </g>
</svg>
