<?xml version="1.0" encoding="UTF-8" standalone="no"?>
<svg xmlns:ffdec="https://www.free-decompiler.com/flash" xmlns:xlink="http://www.w3.org/1999/xlink" ffdec:objectType="shape" height="50.0px" width="50.8px" xmlns="http://www.w3.org/2000/svg">
  <g transform="matrix(1.0, 0.0, 0.0, 1.0, -205.25, -36.2)">
    <path d="M255.05 36.85 L255.4 37.2 255.9 37.95 256.0 38.7 256.05 39.85 256.05 41.35 255.9 41.7 255.75 42.1 255.55 42.8 255.4 43.2 254.95 44.0 254.55 45.05 254.15 46.2 253.8 46.6 253.4 46.95 253.3 47.35 253.15 47.7 252.8 48.1 252.4 48.45 252.3 48.85 252.15 49.2 251.8 49.6 251.05 50.3 251.0 50.4 250.9 50.6 250.8 50.95 250.5 51.3 250.05 51.7 249.15 51.95 249.0 51.95 248.55 52.15 247.65 52.45 246.8 52.2 246.4 51.9 246.05 51.9 245.65 52.1 245.45 52.45 245.3 52.85 245.15 53.2 244.8 53.6 244.4 53.95 244.05 54.2 243.8 54.3 243.15 54.45 242.3 54.2 241.8 53.8 241.4 53.45 241.3 53.1 241.3 52.7 241.3 52.35 241.3 51.95 241.3 51.6 241.45 51.2 241.65 50.85 241.9 50.45 242.05 50.1 242.4 49.7 242.8 49.35 243.15 48.95 243.55 48.6 244.3 48.2 244.8 47.95 245.05 47.85 245.65 47.75 245.65 47.7 245.75 47.7 245.9 47.2 247.05 46.1 247.55 45.6 247.4 45.45 247.35 45.05 247.25 44.35 247.25 44.25 246.9 43.95 246.85 43.55 246.85 43.3 246.65 43.55 246.4 43.95 246.05 44.2 245.8 44.3 245.15 44.45 244.3 44.2 243.8 43.8 243.4 43.45 243.35 43.05 243.3 42.35 243.3 41.6 Q243.55 40.9 244.1 40.4 L245.65 38.95 245.8 38.6 245.9 38.2 246.3 37.85 246.8 37.45 247.65 37.2 248.65 36.95 249.05 36.6 249.55 36.35 250.15 36.25 250.15 36.2 251.05 36.45 251.45 36.75 251.8 36.45 252.65 36.25 252.65 36.2 253.65 36.25 254.55 36.45 255.05 36.85 M252.0 39.85 L251.7 39.6 251.5 39.8 251.25 40.15 251.25 40.2 251.4 40.6 251.55 40.95 251.55 41.35 251.55 41.7 251.55 42.1 251.5 42.3 251.85 41.35 Q251.95 40.7 252.3 40.2 L252.0 39.85 M244.05 75.95 L244.05 76.35 244.05 76.7 244.05 77.1 243.9 77.45 243.8 77.85 243.65 78.2 243.3 78.6 242.9 78.95 242.15 79.7 241.95 80.1 241.75 80.45 241.55 80.85 239.45 82.55 237.3 83.85 Q231.55 85.95 225.8 86.2 L225.3 85.8 224.95 85.45 224.8 85.1 224.8 84.7 224.8 84.35 224.9 83.95 225.05 83.6 226.3 83.1 226.3 82.7 226.3 81.95 226.3 81.9 226.05 81.6 225.9 81.25 225.5 80.45 225.3 79.7 225.3 79.35 225.4 78.95 225.6 78.6 225.9 78.2 226.3 77.95 226.55 77.9 227.15 77.8 227.15 77.7 228.05 77.95 228.5 78.35 229.05 78.85 232.55 77.9 234.15 77.55 234.45 77.25 234.8 76.95 235.05 76.85 235.65 76.8 235.65 76.7 236.55 76.95 236.8 77.15 238.0 76.5 238.8 75.95 238.85 75.95 238.75 75.35 Q238.75 74.75 238.9 74.2 L239.3 73.85 239.8 73.45 240.65 73.3 240.65 73.2 241.55 73.45 242.05 73.85 242.25 74.2 242.3 74.3 243.05 74.45 243.55 74.85 243.75 75.2 243.9 75.6 244.05 75.95 M218.1 54.8 L218.65 56.35 218.75 56.8 218.8 57.2 218.8 57.55 218.65 58.3 218.7 58.7 218.8 59.05 218.9 59.85 218.85 60.25 218.8 60.6 218.85 61.0 218.95 61.35 219.05 62.15 219.0 62.55 218.85 63.3 Q218.7 63.8 218.7 64.35 L218.7 64.8 218.8 65.15 218.95 65.95 218.9 66.3 218.75 67.05 218.6 68.15 218.35 68.5 218.2 68.85 217.85 69.55 217.8 69.95 217.7 70.3 217.65 70.7 217.45 71.0 217.25 71.3 217.0 71.7 216.9 72.1 216.85 72.4 215.75 74.5 213.85 76.9 213.5 77.6 212.6 78.95 212.3 79.25 211.5 79.95 Q210.65 80.55 209.7 80.75 L209.25 81.05 208.8 81.35 208.25 81.65 207.35 81.75 206.85 81.6 206.05 81.3 205.6 80.8 205.35 80.4 205.25 80.05 205.3 79.65 205.35 79.3 205.5 78.9 205.75 78.65 207.0 77.65 Q207.2 77.45 207.45 77.35 L208.25 77.1 209.6 76.55 Q210.1 75.15 211.2 74.15 212.5 72.8 213.3 71.1 L213.35 70.75 213.4 70.35 213.55 70.0 213.8 69.65 214.1 69.35 214.15 68.95 214.2 68.6 214.3 67.85 214.55 67.5 214.75 67.1 215.05 66.45 215.05 66.05 215.0 65.3 214.85 64.5 214.95 64.15 215.05 63.4 215.25 62.3 215.15 61.9 215.1 61.5 215.0 60.7 215.05 60.4 215.1 60.0 215.0 59.6 215.0 59.2 214.85 58.4 214.9 58.1 214.95 57.7 214.8 57.25 214.7 56.9 214.35 56.05 214.35 55.7 214.35 54.95 Q214.45 54.35 214.7 53.85 214.9 53.65 215.15 53.55 L215.7 53.25 216.55 53.2 216.6 53.15 217.45 53.55 217.85 54.0 218.1 54.8" fill="#ff6600" fill-rule="evenodd" stroke="none"/>
  </g>
</svg>
