<?xml version="1.0" encoding="UTF-8" standalone="no"?>
<svg xmlns:ffdec="https://www.free-decompiler.com/flash" xmlns:xlink="http://www.w3.org/1999/xlink" ffdec:objectType="shape" height="71.0px" width="47.0px" xmlns="http://www.w3.org/2000/svg">
  <g transform="matrix(1.0, 0.0, 0.0, 1.0, 354.5, 46.0)">
    <path d="M-325.0 -44.45 L-322.15 -45.75 -321.75 -45.85 -321.0 -45.95 -321.0 -46.0 -319.55 -45.85 -317.9 -45.4 -317.55 -45.0 -317.35 -44.65 -317.15 -44.25 -317.0 -43.9 -317.0 -43.5 -317.0 -43.15 -317.0 -42.4 -317.0 -41.25 -317.15 -40.9 -317.3 -40.5 -317.5 -40.15 -317.5 -38.25 -317.5 -34.15 -317.5 -32.65 -317.4 -32.25 -317.25 -31.9 -317.15 -31.5 -317.0 -31.15 -317.0 -30.75 -317.0 -30.4 -317.0 -30.0 -317.0 -29.25 -316.95 -28.9 -316.8 -28.5 -316.65 -28.15 -316.5 -27.75 -316.5 -27.4 -316.5 -27.0 -316.5 -26.65 -316.5 -26.25 -316.45 -25.9 -316.3 -25.5 -316.15 -25.15 -316.0 -24.75 -316.0 -24.4 -316.0 -24.0 -315.85 -23.65 -315.65 -23.25 -315.5 -22.9 -315.5 -22.5 -315.5 -22.15 -315.4 -21.75 -315.25 -21.4 -315.0 -21.05 -314.3 -20.25 Q-313.75 -19.65 -313.55 -18.95 L-308.4 -16.9 -308.05 -16.5 -307.85 -16.15 -307.65 -15.75 -307.55 -15.4 -307.5 -15.0 -307.55 -14.65 -307.65 -14.25 -307.85 -13.85 -308.0 -13.5 -308.4 -13.2 Q-309.2 -12.75 -310.0 -12.55 L-310.0 -12.25 -310.25 -11.5 -310.5 -10.75 -311.15 -9.25 -311.5 -8.5 -312.25 -7.75 -312.65 -7.4 -313.1 -7.0 -313.4 -6.75 -316.5 -6.55 -317.65 -6.75 -318.0 -7.05 -319.15 -7.25 -319.65 -7.6 -320.9 -8.3 -322.5 -9.0 -323.15 -8.9 -326.8 -6.0 -332.75 -1.4 -332.55 -1.0 -332.35 -0.65 -331.95 0.1 Q-331.65 0.6 -331.5 1.25 L-331.5 1.6 -331.5 2.0 -331.35 2.35 -331.15 2.75 -331.0 3.1 -331.0 3.5 -331.0 3.85 -331.0 4.25 -331.15 4.6 Q-331.4 5.5 -332.1 6.15 -333.35 7.4 -335.0 8.0 L-335.4 8.35 -335.75 8.75 -336.25 9.1 -337.0 9.5 -337.4 9.85 -337.75 10.25 -338.15 10.6 -338.5 11.0 -338.7 11.4 -339.6 12.75 Q-340.75 14.05 -341.5 15.5 L-341.9 15.85 -342.65 16.6 -343.85 18.15 -344.0 18.5 -344.4 18.85 -345.0 19.25 -345.35 19.65 -345.55 19.95 -346.25 20.75 -347.0 21.5 -347.25 21.9 -347.6 22.65 Q-347.9 23.5 -348.65 24.1 L-349.4 24.75 -349.75 24.85 -350.5 25.0 -351.65 24.75 -352.1 24.35 -352.5 24.0 -352.85 23.6 -353.4 22.85 -353.5 22.5 -353.5 22.1 -353.5 21.75 -353.5 21.35 -353.5 21.0 -353.55 20.65 -353.75 20.25 -353.9 19.85 -354.0 19.5 -354.0 19.1 -354.0 18.35 -354.0 16.85 -354.0 15.75 -354.15 15.4 -354.35 15.0 -354.5 14.6 -354.5 14.25 -354.5 13.85 -354.5 13.5 -354.5 13.1 -354.5 12.35 -354.35 12.0 -354.15 11.6 -354.0 11.25 -354.0 10.85 -354.0 9.35 -354.0 6.35 -354.0 5.6 -353.9 5.25 -353.75 4.85 -353.65 4.5 -353.5 4.1 -353.5 3.75 -353.5 3.35 -353.5 2.6 -353.5 1.5 -353.5 1.1 -353.4 0.75 -353.25 0.35 -353.15 0.0 -353.0 -0.4 -353.0 -0.75 -353.0 -1.15 -352.85 -1.45 Q-352.45 -2.0 -352.3 -2.6 L-351.55 -5.3 -351.4 -6.0 -351.15 -6.4 -350.9 -6.75 -350.75 -7.15 -350.65 -7.5 -350.5 -7.9 -350.5 -8.25 -350.5 -8.65 -350.5 -9.0 -350.4 -9.4 -350.25 -9.75 -350.05 -10.15 -350.0 -10.5 -349.9 -10.9 -349.7 -11.25 -349.4 -11.65 -349.15 -12.0 -349.0 -12.4 -348.9 -12.75 -348.75 -13.1 -348.4 -13.9 -348.25 -14.25 -347.9 -14.65 -347.65 -15.0 -347.5 -15.4 -347.4 -15.75 -347.25 -16.15 -347.0 -16.5 -346.6 -16.85 -346.15 -17.25 -345.75 -17.65 -345.55 -18.0 -345.4 -18.4 -345.25 -18.75 -344.9 -19.15 -344.5 -19.5 -344.15 -19.9 -343.9 -20.25 -343.75 -20.6 -343.5 -21.0 -342.4 -22.15 -340.35 -24.15 -340.4 -24.25 -340.5 -24.65 -340.5 -25.0 -340.5 -25.4 -340.5 -25.75 -340.5 -26.15 Q-339.8 -27.4 -339.25 -28.75 -338.3 -31.3 -336.75 -33.65 L-336.5 -34.0 -336.15 -34.4 -335.75 -34.75 -335.0 -35.5 -334.9 -35.9 -334.75 -36.25 -332.15 -38.9 -328.4 -42.65 -325.0 -44.45 M-326.75 -33.35 L-326.0 -33.45 -326.0 -33.5 -323.0 -33.35 -322.5 -33.25 -322.5 -33.75 -322.5 -38.65 -322.5 -39.75 Q-324.65 -39.35 -326.1 -37.55 -327.35 -35.95 -329.15 -34.9 L-329.3 -34.5 -329.5 -34.15 -329.8 -33.8 -330.5 -33.0 -331.65 -31.9 -332.4 -30.5 Q-329.9 -32.05 -327.15 -33.25 L-326.75 -33.35 M-325.25 -28.15 L-327.15 -27.4 -335.15 -21.65 Q-338.0 -19.4 -340.0 -16.5 L-340.4 -16.15 -340.75 -15.75 -341.15 -15.4 -341.3 -15.0 -341.5 -14.65 -341.8 -14.3 -342.5 -13.5 -342.9 -12.75 -344.4 -9.75 -345.5 -7.15 -345.5 -6.75 -345.5 -6.4 -345.65 -6.0 -345.75 -5.65 -345.9 -5.25 -346.25 -4.5 -346.5 -4.15 -346.5 -3.75 -346.5 -3.4 -346.65 -3.0 -346.75 -2.65 -346.9 -2.25 -347.25 -1.5 -347.5 -1.15 -347.5 -0.75 -347.5 -0.4 -347.65 0.0 -347.9 0.75 -348.25 1.85 -348.5 2.6 -348.5 3.0 -348.5 3.35 -348.5 4.1 -348.5 5.25 -348.5 5.6 -348.65 6.0 -348.75 6.35 -348.9 6.75 -349.0 7.1 -349.0 7.5 -349.0 9.0 -349.0 12.0 -349.0 12.75 -349.15 13.1 -349.25 13.5 -349.15 13.85 -349.0 14.25 -349.0 14.6 -349.0 15.0 -349.0 15.35 -349.0 15.75 -348.8 15.7 -348.4 15.35 -348.0 15.0 -347.25 14.25 -347.05 13.85 -346.85 13.5 -346.65 13.1 -346.25 12.75 -345.9 12.35 -345.5 12.0 -345.15 11.6 -344.9 11.25 -344.75 10.9 -344.5 10.5 -344.15 10.1 -343.75 9.75 -343.55 9.35 -343.35 9.0 -343.15 8.6 -342.75 7.9 -342.5 7.5 -342.15 7.1 -341.4 6.35 Q-340.55 5.35 -339.4 4.85 L-339.0 4.5 -338.6 4.15 -337.4 3.35 -337.0 3.0 -336.85 2.6 Q-336.8 2.45 -336.9 2.25 L-337.15 1.85 -337.4 1.5 -337.5 1.1 -337.7 0.4 -338.2 -0.8 -338.5 -1.5 -338.5 -1.9 -338.5 -2.25 -338.5 -2.65 -338.5 -3.0 -338.4 -3.4 -338.2 -3.75 -337.9 -4.15 -337.15 -4.9 -336.4 -5.65 -335.65 -6.05 -335.1 -6.35 -333.9 -7.15 -332.75 -8.25 Q-330.5 -10.75 -327.65 -12.4 L-327.55 -12.75 -327.5 -13.15 -327.5 -13.5 -327.5 -13.9 -327.4 -14.25 -327.25 -14.65 -327.0 -15.0 -326.6 -15.35 -326.15 -15.75 -325.0 -16.0 -324.55 -15.95 -323.0 -15.25 -321.75 -14.25 -320.5 -13.8 Q-318.2 -12.95 -316.0 -11.75 L-315.85 -11.85 -315.65 -12.15 -316.4 -12.9 -316.75 -13.25 -317.1 -13.65 -317.4 -14.0 -317.5 -14.4 -317.5 -14.7 -318.0 -15.0 -319.15 -15.25 -319.6 -15.65 -320.0 -16.0 -320.4 -16.4 -321.1 -16.8 -321.6 -17.15 -322.4 -17.9 -322.75 -18.25 -322.9 -18.65 -323.05 -19.0 -323.25 -19.4 -323.65 -20.1 -323.9 -20.5 -324.0 -20.9 -324.0 -21.25 -324.0 -21.65 -324.15 -22.0 -324.25 -22.4 -324.4 -22.75 -324.5 -23.15 -324.5 -23.5 -324.5 -23.9 -324.75 -24.25 -324.9 -24.65 -325.0 -25.0 -325.0 -25.4 -325.0 -25.75 -325.0 -26.15 -325.0 -26.5 -324.9 -26.9 -324.75 -27.25 -324.55 -27.65 -324.5 -28.0 -324.65 -28.2 -325.25 -28.15" fill="#000000" fill-rule="evenodd" stroke="none"/>
    <path d="M-325.25 -28.15 L-324.65 -28.2 -324.5 -28.0 -324.55 -27.65 -324.75 -27.25 -324.9 -26.9 -325.0 -26.5 -325.0 -26.15 -325.0 -25.75 -325.0 -25.4 -325.0 -25.0 -324.9 -24.65 -324.75 -24.25 -324.5 -23.9 -324.5 -23.5 -324.5 -23.15 -324.4 -22.75 -324.25 -22.4 -324.15 -22.0 -324.0 -21.65 -324.0 -21.25 -324.0 -20.9 -323.9 -20.5 -323.65 -20.1 -323.25 -19.4 -323.05 -19.0 -322.9 -18.65 -322.75 -18.25 -322.4 -17.9 -321.6 -17.15 -321.1 -16.8 -320.4 -16.4 -320.0 -16.0 -319.6 -15.65 -319.15 -15.25 -318.0 -15.0 -317.5 -14.7 -317.5 -14.4 -317.4 -14.0 -317.1 -13.65 -316.75 -13.25 -316.4 -12.9 -315.65 -12.15 -315.85 -11.85 -316.0 -11.75 Q-318.2 -12.95 -320.5 -13.8 L-321.75 -14.25 -323.0 -15.25 -324.55 -15.95 -325.0 -16.0 -326.15 -15.75 -326.6 -15.35 -327.0 -15.0 -327.25 -14.65 -327.4 -14.25 -327.5 -13.9 -327.5 -13.5 -327.5 -13.15 -327.55 -12.75 -327.65 -12.4 Q-330.5 -10.75 -332.75 -8.25 L-333.9 -7.15 -335.1 -6.35 -335.65 -6.05 -336.4 -5.65 -337.15 -4.9 -337.9 -4.15 -338.2 -3.75 -338.4 -3.4 -338.5 -3.0 -338.5 -2.65 -338.5 -2.25 -338.5 -1.9 -338.5 -1.5 -338.2 -0.8 -337.7 0.4 -337.5 1.1 -337.4 1.5 -337.15 1.85 -336.9 2.25 Q-336.8 2.45 -336.85 2.6 L-337.0 3.0 -337.4 3.35 -338.6 4.15 -339.0 4.5 -339.4 4.85 Q-340.55 5.35 -341.4 6.35 L-342.15 7.1 -342.5 7.5 -342.75 7.9 -343.15 8.6 -343.35 9.0 -343.55 9.35 -343.75 9.75 -344.15 10.1 -344.5 10.5 -344.75 10.9 -344.9 11.25 -345.15 11.6 -345.5 12.0 -345.9 12.35 -346.25 12.75 -346.65 13.1 -346.85 13.5 -347.05 13.85 -347.25 14.25 -348.0 15.0 -348.4 15.35 -348.8 15.7 -349.0 15.75 -349.0 15.35 -349.0 15.0 -349.0 14.6 -349.0 14.25 -349.15 13.85 -349.25 13.5 -349.15 13.1 -349.0 12.75 -349.0 12.0 -349.0 9.0 -349.0 7.5 -349.0 7.1 -348.9 6.75 -348.75 6.35 -348.65 6.0 -348.5 5.6 -348.5 5.25 -348.5 4.1 -348.5 3.35 -348.5 3.0 -348.5 2.6 -348.25 1.85 -347.9 0.75 -347.65 0.0 -347.5 -0.4 -347.5 -0.75 -347.5 -1.15 -347.25 -1.5 -346.9 -2.25 -346.75 -2.65 -346.65 -3.0 -346.5 -3.4 -346.5 -3.75 -346.5 -4.15 -346.25 -4.5 -345.9 -5.25 -345.75 -5.65 -345.65 -6.0 -345.5 -6.4 -345.5 -6.75 -345.5 -7.15 -344.4 -9.75 -342.9 -12.75 -342.5 -13.5 -341.8 -14.3 -341.5 -14.65 -341.3 -15.0 -341.15 -15.4 -340.75 -15.75 -340.4 -16.15 -340.0 -16.5 Q-338.0 -19.4 -335.15 -21.65 L-327.15 -27.4 -325.25 -28.15 M-326.75 -33.35 L-327.15 -33.25 Q-329.9 -32.05 -332.4 -30.5 L-331.65 -31.9 -330.5 -33.0 -329.8 -33.8 -329.5 -34.15 -329.3 -34.5 -329.15 -34.9 Q-327.35 -35.95 -326.1 -37.55 -324.65 -39.35 -322.5 -39.75 L-322.5 -38.65 -322.5 -33.75 -322.5 -33.25 -323.0 -33.35 -326.0 -33.5 -326.0 -33.45 -326.75 -33.35" fill="#80a839" fill-rule="evenodd" stroke="none"/>
  </g>
</svg>
