<?xml version="1.0" encoding="UTF-8" standalone="no"?>
<svg xmlns:ffdec="https://www.free-decompiler.com/flash" xmlns:xlink="http://www.w3.org/1999/xlink" ffdec:objectType="shape" height="43.7px" width="95.5px" xmlns="http://www.w3.org/2000/svg">
  <g transform="matrix(1.0, 0.0, 0.0, 1.0, 414.0, -3.0)">
    <path d="M-319.5 20.35 L-319.55 20.75 -319.65 21.1 -319.8 21.5 -320.0 21.85 -320.25 22.25 -320.0 22.6 -319.8 23.0 -319.6 23.35 -319.25 24.1 -318.9 24.85 -318.5 25.6 -318.5 26.0 -318.5 26.35 -318.5 26.75 -318.5 27.5 -318.5 27.85 -318.5 28.6 -318.65 29.0 -318.75 29.35 -318.9 29.75 -319.0 30.1 -319.0 30.5 -319.0 30.85 -319.0 31.25 -319.0 31.6 -319.0 32.0 -319.0 32.35 -319.0 32.75 -319.15 33.1 -319.3 33.5 -319.5 33.85 -319.5 34.25 -319.5 34.6 -319.65 35.0 -319.75 35.35 -319.9 35.75 -320.15 36.1 -320.7 36.9 -321.3 38.0 -322.05 39.2 -322.5 39.85 -323.3 40.55 Q-331.75 46.05 -341.5 43.3 -344.8 42.35 -347.9 40.6 L-348.25 40.25 -348.65 39.9 -349.15 39.5 -349.9 39.1 -350.25 38.75 -350.65 38.4 -351.15 38.0 -351.9 37.6 -352.25 37.25 -353.75 35.75 Q-354.8 34.75 -356.05 34.1 L-357.4 33.1 -358.6 32.7 -359.4 32.35 -360.0 32.0 -360.65 31.75 -365.05 31.85 Q-372.6 33.85 -378.55 38.9 -381.95 41.75 -385.75 44.1 L-386.25 44.3 -387.0 44.5 -387.75 44.75 -388.25 45.1 -388.75 45.3 Q-397.3 47.85 -406.15 45.75 L-406.65 45.4 -407.9 44.65 -410.05 43.55 -410.9 43.1 -411.25 42.75 -411.65 42.35 -412.0 42.0 -412.75 41.25 -413.15 40.85 -413.35 40.5 -413.55 40.15 -413.75 39.75 -413.9 39.35 -414.0 39.0 -414.0 38.6 -414.0 38.25 -414.0 37.85 -414.0 37.5 -414.0 37.1 -413.9 36.75 -413.75 36.35 -413.5 36.0 -413.15 35.6 -413.05 35.25 -412.95 34.85 -412.9 34.5 -412.6 34.15 -412.25 33.75 -411.9 33.35 -411.5 33.0 Q-411.3 32.85 -411.1 32.85 -405.95 32.1 -400.95 33.1 L-398.25 33.25 -397.85 32.9 -397.15 32.45 -396.65 32.1 -396.15 31.75 -395.05 31.45 Q-393.75 31.0 -392.7 30.05 L-391.15 28.6 -390.4 27.85 -389.7 27.45 -389.4 27.1 -389.2 26.75 -388.9 26.35 -388.5 26.0 -388.0 25.6 -387.75 25.25 -387.55 24.85 -387.35 24.5 -386.9 23.75 -386.55 23.0 -386.25 22.25 -385.9 21.85 -385.5 21.5 -385.15 21.1 -384.9 20.75 -384.75 20.4 -384.5 20.0 -383.95 19.2 -383.75 18.9 -383.5 18.5 -383.15 18.1 -382.75 17.75 -382.4 17.35 -381.65 16.6 -381.25 16.25 -381.05 15.85 -380.85 15.5 -380.6 15.15 -380.05 14.35 -379.85 14.0 -379.65 13.6 -379.25 13.25 Q-376.8 10.5 -373.95 8.3 -368.8 4.25 -362.25 3.1 L-361.5 3.05 -361.5 3.0 Q-354.5 3.0 -347.5 3.3 -344.2 3.45 -341.25 4.85 L-340.05 5.1 Q-335.85 6.2 -332.2 8.45 -329.35 10.15 -327.0 12.5 L-326.3 12.9 -324.25 14.7 -322.0 17.0 -320.15 18.85 -319.9 19.25 -319.75 19.6 -319.65 20.0 -319.5 20.35 M-408.0 38.45 L-407.25 38.9 -406.75 39.25 -406.5 39.5 -405.55 39.8 -404.9 40.15 -404.45 40.45 -403.9 40.75 -403.75 40.85 Q-396.4 42.2 -389.55 40.0 -387.2 39.25 -385.5 37.5 L-385.1 37.25 -384.75 37.1 -383.9 36.85 -381.95 35.25 Q-380.6 34.55 -379.5 33.5 L-378.4 32.35 Q-368.6 24.6 -356.95 28.15 -352.15 29.65 -348.6 33.1 -345.25 36.35 -341.0 38.5 -337.2 39.75 -333.15 39.25 -331.75 38.55 -330.25 38.1 -328.25 37.45 -326.4 36.35 -325.85 35.95 -325.65 35.3 L-325.1 34.15 -324.5 32.65 -324.0 31.1 -324.0 30.75 -324.0 30.35 -324.0 30.0 -324.0 29.6 -324.0 29.25 -324.0 28.5 -324.0 28.1 -323.9 27.75 -323.75 27.35 -323.9 27.0 -324.0 26.6 -324.0 26.25 -324.2 25.9 -324.5 25.5 -324.9 25.1 -325.2 24.7 -325.4 24.35 -325.5 24.0 -325.5 23.6 -325.5 23.25 -325.5 22.85 -325.35 22.5 -325.15 22.1 Q-325.45 20.5 -327.3 19.0 L-332.85 14.35 Q-333.75 13.55 -334.9 13.1 L-335.25 12.75 -335.65 12.35 -335.9 12.1 -337.15 11.75 -338.6 11.2 -339.75 10.6 -340.0 10.5 -342.0 9.95 -343.85 9.3 -344.25 9.1 Q-352.25 7.2 -360.5 8.25 -365.9 9.25 -370.45 12.35 -373.5 14.45 -375.5 17.5 L-376.25 18.25 -377.0 19.0 -377.75 19.75 -378.5 20.5 -379.4 22.05 -380.95 24.2 Q-382.0 25.6 -382.65 27.25 L-383.0 28.0 -389.2 33.9 Q-394.4 38.55 -401.5 39.0 L-405.0 38.0 -408.15 37.95 -408.4 38.1 -408.0 38.45" fill="#000000" fill-rule="evenodd" stroke="none"/>
    <path d="M-408.15 37.95 L-405.0 38.0 -401.5 39.0 Q-394.4 38.55 -389.2 33.9 L-383.0 28.0 -382.65 27.25 Q-382.0 25.6 -380.95 24.2 L-379.4 22.05 -378.5 20.5 -377.75 19.75 -377.0 19.0 -376.25 18.25 -375.5 17.5 Q-373.5 14.45 -370.45 12.35 -365.9 9.25 -360.5 8.25 -352.25 7.2 -344.25 9.1 L-343.85 9.3 -342.0 9.95 -340.0 10.5 -339.75 10.6 -338.6 11.2 -337.15 11.75 -335.9 12.1 -335.65 12.35 -335.25 12.75 -334.9 13.1 Q-333.75 13.55 -332.85 14.35 L-327.3 19.0 Q-325.45 20.5 -325.15 22.1 L-325.35 22.5 -325.5 22.85 -325.5 23.25 -325.5 23.6 -325.5 24.0 -325.4 24.35 -325.2 24.7 -324.9 25.1 -324.5 25.5 -324.2 25.9 -324.0 26.25 -324.0 26.6 -323.9 27.0 -323.75 27.35 -323.9 27.75 -324.0 28.1 -324.0 28.5 -324.0 29.25 -324.0 29.6 -324.0 30.0 -324.0 30.35 -324.0 30.75 -324.0 31.1 -324.5 32.65 -325.1 34.15 -325.65 35.3 Q-325.85 35.95 -326.4 36.35 -328.25 37.45 -330.25 38.1 -331.75 38.55 -333.15 39.25 -337.2 39.75 -341.0 38.5 -345.25 36.35 -348.6 33.1 -352.15 29.65 -356.95 28.15 -368.6 24.6 -378.4 32.35 L-379.5 33.5 Q-380.6 34.55 -381.95 35.25 L-383.9 36.85 -384.75 37.1 -385.1 37.25 -385.5 37.5 Q-387.2 39.25 -389.55 40.0 -396.4 42.2 -403.75 40.85 L-403.9 40.75 -404.45 40.45 -404.9 40.15 -405.55 39.8 -406.5 39.5 -406.75 39.25 -407.25 38.9 -408.0 38.45 -408.15 37.95" fill="#80a839" fill-rule="evenodd" stroke="none"/>
  </g>
</svg>
