<?xml version="1.0" encoding="UTF-8" standalone="no"?>
<svg xmlns:ffdec="https://www.free-decompiler.com/flash" xmlns:xlink="http://www.w3.org/1999/xlink" ffdec:objectType="shape" height="214.05px" width="243.0px" xmlns="http://www.w3.org/2000/svg">
  <g transform="matrix(1.0, 0.0, 0.0, 1.0, -34.9, 125.75)">
    <path d="M38.65 -110.25 L39.15 -110.2 39.75 -109.95 40.25 -109.6 40.6 -109.2 40.75 -108.85 40.9 -108.5 41.25 -108.1 41.65 -107.75 41.75 -107.35 41.9 -107.0 42.15 -106.6 42.4 -106.25 42.4 -105.85 42.4 -105.5 42.4 -105.1 42.4 -104.75 41.55 -103.55 Q40.75 -102.65 39.65 -102.25 L38.65 -102.25 Q38.25 -102.35 37.9 -102.55 L37.6 -102.7 36.9 -103.0 36.15 -103.75 35.0 -104.85 34.9 -105.25 34.9 -105.6 34.9 -106.0 34.9 -106.75 35.05 -107.1 35.25 -107.5 35.4 -107.85 35.65 -108.25 36.0 -108.6 36.4 -109.0 36.75 -109.35 37.8 -109.8 38.6 -110.15 38.65 -110.25 M37.5 -105.85 L37.9 -105.5 38.15 -105.3 38.65 -105.1 39.15 -105.15 39.75 -105.35 39.3 -106.5 Q39.05 -107.1 38.5 -107.05 L38.4 -107.0 38.0 -106.6 37.7 -106.2 37.5 -105.85 M74.65 -125.75 L75.7 -125.35 77.0 -124.35 78.05 -122.55 79.25 -119.85 79.4 -119.5 79.4 -119.1 79.4 -118.75 79.55 -118.35 79.75 -117.95 79.9 -117.6 79.9 -117.25 79.9 -116.85 79.9 -116.5 79.9 -116.1 79.6 -115.35 79.25 -114.6 78.9 -114.0 78.15 -113.8 76.65 -113.75 75.9 -114.0 75.5 -114.35 75.25 -114.6 75.15 -114.7 Q74.75 -114.85 74.45 -115.05 L74.0 -115.35 73.45 -116.15 73.0 -116.85 72.4 -117.6 72.4 -118.0 72.4 -118.35 72.4 -118.75 72.25 -119.1 71.9 -119.5 71.9 -119.85 71.9 -120.25 71.75 -120.6 71.4 -121.0 71.4 -121.35 71.4 -121.75 71.4 -122.1 71.4 -122.5 71.45 -122.85 71.65 -123.25 71.9 -123.6 71.9 -124.0 71.95 -124.35 72.15 -124.75 72.7 -125.05 74.65 -125.65 74.65 -125.75 M76.9 -118.5 Q76.9 -119.1 76.5 -119.7 76.05 -120.35 75.75 -121.1 L75.4 -121.5 75.0 -121.85 74.9 -122.25 74.75 -122.6 74.5 -122.8 74.4 -122.75 74.15 -122.0 Q74.15 -121.6 74.4 -121.25 L74.4 -120.85 74.4 -120.5 74.8 -119.7 74.9 -119.0 Q75.05 -118.15 75.75 -117.45 76.35 -116.9 77.0 -116.5 L77.15 -116.6 76.95 -117.0 76.9 -117.35 76.9 -117.75 76.9 -118.1 76.9 -118.5 M88.05 -76.6 Q88.95 -77.45 90.15 -77.75 L91.65 -78.25 92.7 -77.85 Q93.45 -77.5 94.05 -76.85 L94.45 -76.15 95.0 -75.35 95.3 -75.0 95.4 -74.6 95.4 -74.25 95.4 -73.85 95.3 -73.1 95.1 -72.75 94.8 -72.35 94.4 -72.0 94.3 -71.6 94.15 -71.25 93.9 -71.0 93.65 -70.85 93.05 -70.6 92.65 -70.35 90.65 -70.25 89.65 -70.75 88.55 -71.35 87.95 -72.15 87.55 -72.85 87.4 -73.25 87.4 -73.6 87.4 -74.0 87.4 -74.35 87.4 -74.75 87.7 -75.5 87.9 -76.25 88.05 -76.6 M90.3 -74.6 L90.15 -74.25 90.05 -73.85 90.7 -73.3 Q90.95 -73.1 91.3 -73.0 L92.25 -73.45 92.55 -73.75 92.4 -74.1 92.25 -74.5 92.05 -74.85 90.5 -75.05 90.4 -75.0 90.3 -74.6 M106.4 -31.0 L106.35 -30.25 106.25 -29.5 105.6 -28.75 104.7 -28.05 103.65 -27.35 101.15 -27.25 100.4 -27.5 100.05 -27.9 99.9 -28.25 99.7 -28.6 99.4 -29.0 99.4 -29.35 99.4 -29.75 99.4 -30.1 99.4 -30.85 99.4 -31.25 99.9 -31.95 100.6 -32.75 Q101.0 -33.25 101.65 -33.15 L101.65 -33.25 102.65 -33.25 103.15 -33.25 104.15 -33.25 104.75 -32.95 105.15 -32.75 105.7 -32.45 106.15 -32.1 106.35 -31.35 106.4 -31.0 M102.0 -30.0 L102.9 -30.0 103.35 -30.4 103.45 -30.5 103.0 -30.55 102.75 -30.5 102.0 -30.1 102.0 -30.0 M91.75 -13.5 L92.75 -12.0 Q93.15 -11.15 93.75 -10.5 L93.95 -9.35 Q93.85 -8.6 93.9 -7.85 L93.9 -7.5 93.45 -6.3 92.65 -4.85 92.25 -4.55 Q91.95 -4.35 91.65 -4.25 L90.15 -4.25 89.4 -4.5 88.65 -5.25 87.9 -6.0 87.9 -7.5 87.9 -9.35 87.9 -10.1 87.95 -10.45 88.2 -10.9 88.4 -11.25 88.4 -11.6 88.4 -12.0 88.75 -12.35 89.15 -12.75 89.4 -13.0 90.25 -13.35 91.1 -13.65 91.15 -13.75 91.75 -13.5 M90.65 -7.25 L90.95 -7.65 91.4 -8.35 Q91.5 -9.05 91.2 -9.65 91.0 -10.1 90.65 -9.85 90.25 -9.2 90.25 -8.35 90.25 -7.7 90.65 -7.25 M107.1 -6.65 L107.15 -6.75 108.15 -6.75 109.6 -6.15 110.75 -5.6 111.2 -4.8 111.85 -3.7 112.4 -2.25 112.2 -1.5 112.05 -0.7 Q111.95 -0.1 111.5 0.4 L111.15 0.6 110.55 0.9 110.15 1.15 109.65 1.25 108.15 1.25 107.15 0.75 106.15 0.3 105.4 0.0 105.05 -0.4 104.9 -0.75 104.7 -1.05 104.4 -1.5 104.4 -1.85 104.4 -2.25 104.4 -2.6 104.4 -3.35 104.4 -3.75 104.55 -4.1 104.75 -4.5 104.9 -4.85 105.15 -5.25 105.5 -5.6 106.35 -6.25 107.1 -6.65 M107.4 -3.6 L107.25 -2.4 Q107.2 -2.15 107.5 -1.85 L107.65 -1.75 108.25 -1.5 109.3 -2.0 109.4 -2.25 109.35 -2.6 109.25 -2.95 109.0 -3.35 108.1 -3.6 107.4 -3.6 M201.65 -6.75 L202.65 -6.75 203.65 -6.75 Q205.2 -6.0 206.35 -4.7 207.7 -3.25 208.65 -1.6 L208.85 -1.2 208.9 -0.85 208.9 -0.5 209.85 1.0 210.6 2.85 210.9 4.0 210.9 4.4 210.9 4.75 211.05 5.15 211.25 5.55 211.4 5.9 211.4 7.4 211.4 8.9 211.4 10.4 211.15 11.15 210.95 11.55 210.8 11.9 210.65 12.25 210.15 12.6 209.55 12.9 209.15 13.15 207.15 13.3 206.45 12.95 206.05 12.65 205.45 11.85 205.1 11.15 Q204.95 10.45 204.4 10.0 L204.4 9.65 204.4 9.25 204.4 8.9 204.25 8.55 204.05 8.15 203.9 7.75 203.9 6.65 203.9 5.5 203.9 4.0 203.85 3.65 203.65 3.25 203.4 2.9 203.4 2.5 203.4 2.15 203.4 1.75 203.25 1.45 202.9 1.0 202.9 0.65 202.9 0.25 202.75 -0.05 202.4 -0.5 202.4 -0.85 202.4 -1.25 202.4 -1.6 202.05 -2.35 201.7 -3.05 201.15 -4.25 200.5 -5.05 200.4 -5.35 200.4 -5.75 201.0 -6.35 201.65 -6.65 201.65 -6.75 M204.9 -2.25 L205.5 -0.75 205.9 0.4 205.9 0.75 205.9 1.15 205.95 1.5 206.15 1.9 206.4 2.25 206.4 4.5 206.4 6.75 207.25 8.55 207.9 10.5 208.35 10.1 208.9 9.4 208.9 8.65 208.9 7.9 208.9 7.5 208.85 7.15 208.65 6.75 208.4 6.4 208.4 5.65 208.4 4.9 207.65 2.9 206.9 1.9 206.9 1.5 206.9 1.15 205.75 -1.1 204.9 -2.25 M254.25 24.1 L254.5 24.6 255.05 25.2 255.25 25.65 255.35 26.1 255.4 26.5 255.6 27.0 255.85 27.45 256.05 27.95 256.05 28.35 256.0 28.75 256.3 29.2 256.45 29.7 256.5 30.1 256.5 30.45 256.55 30.9 256.65 31.35 256.55 31.7 256.4 32.05 256.55 32.5 256.65 32.95 256.5 33.25 256.4 33.65 256.5 34.05 256.55 34.5 256.45 34.85 256.25 35.2 255.85 35.4 255.45 35.5 254.9 35.5 254.5 35.3 253.9 34.75 253.65 34.35 253.65 34.0 253.75 33.6 253.85 33.25 253.95 32.95 253.9 32.5 253.8 32.05 253.7 31.2 253.45 30.75 253.25 30.25 253.0 29.75 252.35 29.3 251.8 28.75 251.6 28.5 251.0 28.0 244.3 25.6 243.65 25.5 239.7 24.7 234.5 22.85 233.95 22.35 233.75 22.1 233.2 21.5 232.95 21.05 232.95 20.7 233.05 20.3 233.15 20.0 233.55 18.9 233.8 18.2 233.9 17.85 234.2 17.55 234.5 17.25 234.85 16.95 235.15 16.7 235.65 16.45 236.1 16.25 236.6 16.0 236.8 15.7 237.1 15.4 Q237.3 15.25 237.55 15.25 L239.6 14.9 242.1 15.05 242.15 15.0 246.85 16.65 247.35 17.1 251.1 20.0 Q252.3 21.2 253.15 22.65 L253.65 23.1 254.05 23.6 254.25 24.1 M247.3 49.15 Q250.75 49.0 254.5 51.75 L254.8 52.05 254.9 52.4 254.9 52.8 254.9 53.55 254.9 54.65 254.75 55.05 254.55 55.45 254.4 55.8 254.4 56.15 254.4 56.55 254.4 56.9 254.4 57.3 254.4 57.65 253.85 58.75 251.95 61.05 250.9 62.05 250.65 62.15 250.05 62.45 249.65 62.65 249.05 62.9 248.65 63.3 248.4 63.5 248.15 63.65 247.65 63.75 245.15 63.8 241.9 63.05 239.9 62.55 234.3 62.55 233.1 63.05 Q232.05 63.35 231.05 63.9 L230.65 64.3 230.25 64.65 229.8 65.05 229.3 65.4 229.1 65.75 228.8 66.15 228.4 66.55 228.05 66.9 227.9 67.3 227.65 67.65 227.5 68.05 227.55 68.15 228.65 67.75 232.15 66.8 235.65 66.8 Q240.1 68.1 244.4 69.75 246.25 70.45 247.65 71.8 L249.15 72.35 250.75 73.1 251.3 73.4 Q256.45 74.6 261.2 71.95 L261.8 71.65 262.15 71.3 262.55 70.95 263.4 70.15 264.15 69.4 264.2 69.2 263.15 68.75 262.4 68.55 262.05 68.15 261.65 67.8 260.9 67.05 260.55 66.65 260.4 66.3 260.3 65.9 259.9 65.55 259.55 65.15 259.4 64.8 259.25 64.45 258.9 64.05 258.9 63.65 258.9 63.3 258.75 62.95 258.4 62.55 258.4 61.8 258.4 60.3 258.4 58.05 258.45 57.7 258.65 57.3 258.9 56.9 258.9 56.55 258.9 56.15 258.9 55.8 258.9 55.4 259.0 55.1 259.3 54.65 259.65 54.3 259.85 53.9 260.0 53.6 260.25 53.15 260.4 52.8 260.4 52.4 260.4 52.05 260.8 51.65 261.15 51.3 261.35 50.9 261.4 50.55 261.8 50.15 262.15 49.8 262.55 49.4 262.9 49.05 Q266.1 47.3 269.6 46.55 L272.4 46.05 272.9 45.55 272.8 45.4 Q268.55 42.95 263.55 43.45 L263.3 43.55 261.3 44.1 259.9 44.55 259.55 44.9 259.15 45.3 258.9 45.55 258.65 45.65 258.05 45.9 257.65 46.3 257.4 46.5 257.15 46.65 256.65 46.7 255.95 46.85 255.9 47.05 255.8 47.4 255.65 47.75 255.4 48.0 255.15 48.15 254.65 48.2 253.95 48.0 252.9 47.55 250.3 47.55 249.65 47.75 248.8 48.1 248.05 48.4 247.65 48.8 247.3 49.15 M246.8 46.15 L247.15 45.95 Q247.9 45.55 248.65 45.3 L250.15 44.8 253.15 44.8 253.8 45.0 255.25 45.0 255.4 44.65 255.7 44.3 255.95 44.05 256.15 43.9 256.8 43.65 257.15 43.3 257.4 43.05 257.65 42.9 258.3 42.65 258.65 42.3 258.9 42.05 259.15 41.9 Q260.65 41.05 262.4 40.95 L263.15 40.8 269.15 40.8 269.8 41.05 273.3 42.55 Q274.35 43.0 275.15 43.8 L275.8 44.05 276.2 44.25 276.8 44.55 277.15 44.95 277.55 45.65 277.75 46.05 277.9 46.4 277.9 46.8 Q277.2 47.9 275.8 48.15 269.95 49.15 264.55 51.4 L264.15 51.8 263.8 52.15 263.4 52.55 263.3 52.9 262.55 54.4 261.65 56.3 261.4 57.05 261.4 57.4 261.35 57.75 261.15 58.15 260.9 58.55 260.9 58.9 260.9 59.65 260.9 60.05 260.9 60.4 260.9 61.15 260.95 61.5 261.15 61.9 261.4 62.3 261.4 62.65 261.4 63.05 261.8 63.4 262.15 63.8 262.55 64.15 262.75 64.55 262.95 64.9 263.2 65.3 263.55 65.65 263.95 65.95 265.65 66.4 266.15 66.4 266.65 66.3 267.15 66.35 267.75 66.6 268.15 66.9 268.35 67.3 268.4 68.05 268.4 68.4 268.4 68.8 266.15 71.55 Q261.35 76.6 254.15 76.8 252.0 76.7 250.2 75.75 245.45 73.3 240.4 71.55 L240.05 71.15 239.8 70.9 239.2 70.75 235.65 69.75 234.9 69.55 232.8 69.55 232.15 69.7 Q230.1 69.75 228.55 70.9 L228.2 71.3 227.95 71.7 227.75 72.05 227.55 72.4 227.15 72.8 226.4 73.55 226.0 73.9 225.65 74.15 225.15 74.2 224.45 74.0 224.05 73.65 223.95 73.3 223.9 71.8 223.9 69.9 223.9 68.8 224.05 68.45 224.4 67.7 224.65 67.3 224.85 66.9 224.9 66.55 225.3 66.15 225.65 65.8 225.85 65.4 225.9 65.05 226.3 64.65 227.8 63.15 229.3 61.65 229.65 61.45 Q230.7 60.85 231.9 60.5 L234.15 59.8 240.65 59.8 241.3 60.0 245.3 61.05 246.9 61.05 247.8 60.65 248.15 60.3 248.4 60.05 248.65 59.9 249.3 59.65 249.65 59.3 250.4 58.55 251.15 57.8 251.35 57.4 251.5 57.1 251.75 56.65 251.9 56.3 251.9 55.9 251.9 55.15 252.0 54.45 252.3 53.65 252.15 53.3 251.9 53.05 251.8 52.9 250.65 52.75 249.9 52.55 247.4 52.55 247.0 52.9 246.4 53.3 246.15 53.65 245.6 54.45 245.4 54.8 245.15 55.15 244.75 55.5 244.15 55.8 243.45 55.5 243.05 55.15 242.95 54.8 242.9 53.65 242.9 52.55 242.9 51.05 242.9 50.65 243.2 50.3 243.75 49.5 243.95 49.2 244.15 48.8 244.55 48.4 245.65 47.3 246.8 46.15 M231.4 24.65 L231.4 25.05 231.65 25.4 231.9 25.8 231.9 26.15 231.9 26.55 231.9 26.9 231.85 27.25 231.65 27.65 231.4 28.05 231.4 28.4 231.4 28.8 231.4 29.15 231.3 29.55 231.0 29.9 230.65 30.3 230.3 30.65 229.9 31.05 229.8 31.4 229.65 31.8 229.3 32.15 228.9 32.55 228.55 32.9 228.15 33.15 227.55 33.4 227.15 33.8 226.9 34.05 226.65 34.15 226.05 34.45 225.65 34.65 225.15 34.75 224.15 34.8 223.45 34.5 223.15 34.35 222.45 33.95 222.05 33.65 221.7 33.25 221.45 32.9 221.4 32.55 221.4 32.15 221.4 31.8 221.4 31.4 221.4 30.65 221.4 30.3 221.55 29.9 221.75 29.5 221.9 29.15 221.9 28.8 222.1 28.45 222.4 28.05 222.8 27.65 222.9 27.3 222.9 26.9 222.9 26.55 223.25 26.15 223.4 25.8 223.55 25.4 223.9 25.05 225.0 23.9 Q225.8 23.0 226.65 22.8 L228.65 22.8 229.3 23.0 230.75 23.6 231.15 23.9 231.35 24.3 231.4 24.65 M241.35 17.6 L240.05 17.8 238.65 18.0 238.3 18.2 237.45 18.7 237.0 18.95 236.65 19.2 236.05 19.8 235.8 20.15 235.7 20.35 Q244.1 23.05 251.35 24.5 247.6 19.6 241.6 17.6 L241.35 17.6 M222.15 39.45 L223.4 39.05 224.15 38.8 226.65 38.8 227.25 39.1 228.55 40.15 229.4 41.3 229.4 41.65 229.4 42.05 229.4 42.4 229.4 43.15 229.25 43.5 229.05 43.9 228.9 44.3 228.9 44.65 228.9 45.8 228.95 47.3 229.05 47.65 229.3 48.0 230.05 48.6 230.8 49.05 233.4 49.05 234.15 48.8 234.9 48.55 235.3 48.2 235.75 47.75 236.4 47.05 237.15 46.8 237.65 46.85 Q237.95 46.9 238.25 47.1 L238.65 47.4 238.85 47.8 238.7 49.0 237.55 50.4 237.45 50.8 237.4 51.55 237.35 52.65 237.3 53.05 237.0 53.4 236.65 53.8 236.4 54.05 234.6 55.0 Q232.3 56.3 229.65 56.8 L225.15 56.8 224.4 56.6 222.6 55.85 221.9 55.55 221.55 55.15 220.4 54.05 219.65 53.3 219.45 52.9 219.0 51.75 218.4 50.3 218.4 49.9 218.4 48.05 218.4 45.4 218.5 45.05 218.75 44.65 218.9 44.3 218.9 43.9 218.9 43.55 219.2 43.15 219.55 42.4 219.9 41.65 220.15 41.3 220.55 40.9 221.3 40.15 221.9 39.55 222.15 39.45 M221.2 45.4 L220.9 46.15 220.9 46.9 220.9 48.05 220.9 49.15 221.5 50.7 Q222.25 52.25 223.65 53.3 L223.9 53.55 224.05 53.65 224.65 53.8 225.3 54.05 229.4 54.05 231.65 53.25 233.3 52.65 233.65 52.3 233.9 52.05 Q230.75 52.4 227.4 50.55 L227.1 50.15 226.9 49.8 226.75 49.45 226.4 49.05 226.4 46.4 226.35 42.65 226.3 41.9 Q226.1 41.7 225.85 41.65 L225.05 41.45 224.8 41.55 224.15 41.75 223.3 42.05 222.55 42.4 222.0 43.6 221.2 45.4 M228.9 26.3 L228.6 25.9 227.5 25.5 227.3 25.55 226.55 25.9 226.4 26.25 225.9 27.0 225.55 27.4 Q225.4 28.4 224.85 29.25 224.15 30.35 223.9 31.55 L224.3 31.7 225.3 31.65 225.65 31.45 226.3 31.15 227.85 29.7 228.8 28.55 228.9 27.8 228.9 27.05 228.9 26.3 M172.3 11.65 L172.4 12.05 172.4 12.4 172.4 13.55 172.35 14.65 172.3 15.05 172.0 15.4 170.75 16.5 169.65 17.15 169.15 17.25 168.15 17.3 167.45 17.0 166.15 16.35 165.4 16.05 165.1 15.6 164.7 14.95 164.4 14.55 164.4 14.15 164.4 13.05 164.4 11.9 164.4 11.15 164.7 10.8 165.45 9.65 Q165.65 9.15 166.15 8.95 L166.65 8.75 168.65 8.75 169.65 8.75 170.25 9.1 171.15 9.8 171.55 10.15 171.75 10.55 172.15 11.3 172.3 11.65 M167.4 11.5 L167.15 12.3 166.95 13.05 166.9 13.4 167.6 14.05 168.65 14.4 169.5 13.85 169.8 13.55 169.75 12.8 169.45 12.0 169.4 11.75 167.9 11.6 167.4 11.5 M178.3 29.4 L179.4 31.3 180.4 33.55 180.4 35.05 180.4 36.9 180.4 37.65 180.1 38.4 179.9 39.15 179.8 39.55 178.8 40.7 177.65 41.65 177.15 41.75 176.15 41.8 175.4 41.55 175.05 41.15 174.65 40.8 174.3 40.4 174.0 40.0 173.9 39.65 173.9 39.3 173.75 38.95 173.4 38.55 173.4 37.8 173.4 36.65 173.4 35.55 173.45 35.15 173.65 34.8 173.9 34.4 173.9 34.05 173.9 33.65 173.9 33.3 174.7 31.0 Q175.25 29.25 176.65 28.8 L177.15 28.85 177.75 29.05 178.3 29.4 M176.9 32.65 L176.7 33.8 176.4 34.55 176.3 35.25 175.9 36.05 175.9 36.4 175.9 36.8 175.9 37.15 Q175.9 37.8 176.25 38.35 L176.4 39.05 177.2 38.55 177.4 38.3 177.4 37.9 177.4 37.55 177.75 37.15 177.9 36.8 177.9 35.65 177.9 34.55 177.55 33.3 176.9 32.6 176.9 32.65 M170.5 67.6 L170.0 68.55 170.65 68.4 171.25 68.15 171.65 67.8 171.9 67.55 172.15 67.4 172.75 67.15 173.5 66.4 174.15 65.8 Q173.8 65.5 173.15 65.5 172.6 65.5 172.15 65.8 L171.65 66.15 171.0 66.4 170.5 67.6 M170.0 63.9 Q170.75 63.0 171.65 62.8 L173.15 62.8 174.15 62.8 174.8 63.05 176.25 63.6 Q177.0 63.9 177.25 64.65 L177.35 65.05 177.4 65.4 177.4 65.8 177.15 66.15 176.9 66.55 176.75 66.9 176.65 67.3 176.25 67.65 175.75 68.05 175.25 68.4 175.1 68.75 174.75 69.15 174.25 69.5 173.5 69.9 173.15 70.3 172.9 70.55 172.65 70.65 172.15 70.8 171.3 71.05 170.65 71.3 169.15 71.3 168.4 71.05 168.0 70.65 167.65 70.3 167.25 69.9 166.9 69.55 166.9 69.15 166.9 68.8 166.9 68.4 166.95 68.05 167.35 67.3 167.75 66.55 168.15 65.8 168.9 65.05 170.0 63.9 M173.65 71.8 L174.65 71.8 175.15 71.8 176.15 72.25 Q177.05 72.55 177.65 73.3 L178.0 73.65 178.2 74.05 178.45 74.8 178.75 75.55 178.9 75.9 178.9 77.05 178.9 78.55 178.9 80.05 178.5 81.2 177.45 82.75 177.0 83.4 Q175.3 84.45 173.15 83.8 L172.4 83.5 172.1 83.35 171.4 83.05 171.0 82.65 170.25 81.9 169.9 81.55 169.9 81.15 169.9 80.4 169.9 79.65 169.9 79.3 170.05 78.95 170.75 78.15 171.4 77.55 171.65 77.45 172.25 77.15 172.4 76.8 172.7 76.05 172.9 75.3 172.85 74.9 172.75 74.55 172.55 74.15 172.4 73.8 172.4 73.4 172.4 73.05 172.45 72.7 172.65 72.3 172.9 72.05 173.15 71.95 173.65 71.85 173.65 71.8 M175.95 76.25 L175.65 76.15 175.05 77.25 174.5 78.4 173.4 79.55 172.65 80.3 173.05 80.65 173.75 81.05 175.75 80.65 175.85 80.3 175.9 79.9 175.9 79.55 176.25 79.15 176.4 78.8 176.45 77.3 Q176.45 76.65 175.95 76.25 M210.65 62.8 L210.9 62.55 211.15 62.45 211.65 62.35 211.65 62.3 213.65 62.3 215.15 62.3 216.25 63.0 217.05 63.65 218.15 64.8 218.3 65.15 218.4 65.55 218.45 65.9 218.75 66.7 218.9 67.05 218.9 67.4 218.9 67.8 218.9 68.15 218.9 68.55 218.9 68.9 218.6 69.65 218.05 70.75 216.85 73.0 216.55 73.4 216.15 73.65 215.55 73.95 215.15 74.15 214.65 74.25 213.15 74.3 212.4 74.05 212.05 73.65 211.8 73.4 211.65 73.3 210.9 73.05 210.55 72.65 210.15 72.3 209.8 71.9 209.5 71.5 209.35 71.2 209.15 70.8 208.8 70.4 208.4 70.05 208.4 69.65 208.4 69.3 208.25 68.95 207.9 68.55 207.9 68.15 207.9 67.8 207.9 67.4 207.9 66.65 207.9 66.3 208.05 65.95 208.25 65.55 208.45 65.2 208.85 64.4 208.9 64.05 209.3 63.7 209.65 63.45 210.3 63.15 210.65 62.8 M211.55 65.4 L210.95 66.2 210.4 67.3 210.55 67.65 210.7 68.05 210.9 68.8 211.45 69.5 212.05 70.65 212.75 71.05 213.3 71.4 213.55 71.55 214.4 71.55 214.9 71.15 215.7 69.6 216.4 68.15 Q216.5 67.45 216.15 66.9 L215.3 65.55 214.8 65.6 214.15 65.8 213.15 65.4 212.15 65.15 211.55 65.4 M220.4 79.05 L217.3 79.05 216.65 79.3 215.9 79.55 215.5 79.9 214.9 80.3 214.4 81.05 213.9 81.8 213.65 82.15 213.4 82.55 213.45 82.9 213.65 83.3 213.8 83.65 213.9 84.05 214.3 84.4 214.6 84.85 214.8 85.15 217.4 85.55 220.8 84.65 221.15 84.3 221.4 84.05 222.25 83.65 222.65 83.45 223.3 83.15 224.05 82.4 224.4 82.05 224.8 81.65 Q225.05 80.9 225.45 80.2 L225.8 79.4 225.9 78.65 225.9 78.4 Q225.85 78.1 225.55 78.4 L224.75 79.1 223.65 79.8 222.15 79.8 221.15 79.35 220.4 79.05 M222.15 76.8 L223.15 76.4 224.8 75.65 225.15 75.3 225.55 74.9 225.95 74.65 226.65 74.35 226.65 74.3 227.65 74.3 228.25 74.6 228.65 74.9 Q229.05 75.4 229.0 76.05 L228.9 77.9 228.9 78.65 228.75 79.05 228.55 79.45 228.4 79.8 228.4 80.15 228.4 80.55 227.95 81.7 226.55 83.9 226.15 84.3 225.4 85.05 225.05 85.4 224.05 85.95 222.05 86.9 221.65 87.3 221.4 87.55 220.65 87.75 218.15 88.3 214.15 88.3 213.4 88.05 213.05 87.65 212.9 87.3 212.8 86.9 212.4 86.55 212.05 86.15 211.65 85.8 211.45 85.4 211.25 85.05 210.9 84.3 210.9 83.55 210.9 82.05 210.9 81.3 211.05 80.95 211.25 80.55 211.65 79.8 212.4 79.05 213.9 77.55 215.2 77.0 217.15 76.3 220.65 76.3 221.3 76.55 222.15 76.8 M102.15 18.3 L103.15 18.3 103.75 18.6 104.65 19.3 105.0 19.65 105.45 20.4 106.0 21.5 106.4 22.3 106.4 23.05 106.4 24.15 106.4 25.65 106.05 26.4 Q105.75 27.3 105.05 27.95 L104.15 28.65 103.65 28.75 102.65 28.8 101.9 28.55 100.4 28.05 100.05 27.65 99.75 27.3 99.25 26.9 98.85 26.2 98.25 25.05 97.9 24.3 97.9 23.9 97.9 23.15 97.9 22.05 97.9 21.65 98.55 20.95 99.65 19.8 99.9 19.55 100.15 19.4 100.75 19.15 101.15 18.8 101.4 18.55 101.65 18.4 102.15 18.3 M102.15 22.3 L101.0 21.95 100.9 22.05 100.75 22.4 100.6 22.75 100.4 23.15 100.65 23.9 101.0 24.65 101.75 25.4 102.0 25.65 102.8 25.95 103.25 26.05 103.4 25.65 103.65 25.3 103.9 24.9 103.9 24.15 103.9 23.4 103.5 22.65 103.15 21.9 102.9 22.05 102.65 22.15 102.15 22.3 M83.65 43.3 L84.25 43.55 85.75 45.85 87.4 48.8 87.4 49.15 87.4 49.9 87.35 50.65 87.25 51.05 87.0 51.4 86.65 51.8 86.35 52.0 86.15 52.15 83.15 52.3 82.4 52.05 82.0 51.65 81.65 51.3 81.25 50.9 80.95 50.5 80.9 50.15 80.9 49.8 80.7 49.45 80.4 49.05 80.4 48.65 80.4 48.3 80.4 47.9 80.45 47.55 80.7 47.15 80.9 46.8 80.9 46.4 80.9 46.05 80.9 45.65 80.9 45.3 81.2 44.5 Q81.4 43.95 81.95 43.65 L82.65 43.3 83.65 43.3 M83.4 47.3 L83.35 48.4 83.5 49.15 84.75 49.55 Q84.45 48.7 83.95 48.0 L83.55 47.35 83.4 47.3" fill="#ffcc00" fill-rule="evenodd" stroke="none"/>
    <path d="M37.5 -105.85 L37.7 -106.2 38.0 -106.6 38.4 -107.0 38.5 -107.05 Q39.05 -107.1 39.3 -106.5 L39.75 -105.35 39.15 -105.15 38.65 -105.1 38.15 -105.3 37.9 -105.5 37.5 -105.85 M76.9 -118.5 L76.9 -118.1 76.9 -117.75 76.9 -117.35 76.95 -117.0 77.15 -116.6 77.0 -116.5 Q76.35 -116.9 75.75 -117.45 75.05 -118.15 74.9 -119.0 L74.8 -119.7 74.4 -120.5 74.4 -120.85 74.4 -121.25 Q74.15 -121.6 74.15 -122.0 L74.4 -122.75 74.5 -122.8 74.75 -122.6 74.9 -122.25 75.0 -121.85 75.4 -121.5 75.75 -121.1 Q76.05 -120.35 76.5 -119.7 76.9 -119.1 76.9 -118.5 M90.3 -74.6 L90.4 -75.0 90.5 -75.05 92.05 -74.85 92.25 -74.5 92.4 -74.1 92.55 -73.75 92.25 -73.45 91.3 -73.0 Q90.95 -73.1 90.7 -73.3 L90.05 -73.85 90.15 -74.25 90.3 -74.6 M102.0 -30.0 L102.0 -30.1 102.75 -30.5 103.0 -30.55 103.45 -30.5 103.35 -30.4 102.9 -30.0 102.0 -30.0 M90.65 -7.25 Q90.25 -7.7 90.25 -8.35 90.25 -9.2 90.65 -9.85 91.0 -10.1 91.2 -9.65 91.5 -9.05 91.4 -8.35 L90.95 -7.65 90.65 -7.25 M107.4 -3.6 L108.1 -3.6 109.0 -3.35 109.25 -2.95 109.35 -2.6 109.4 -2.25 109.3 -2.0 108.25 -1.5 107.65 -1.75 107.5 -1.85 Q107.2 -2.15 107.25 -2.4 L107.4 -3.6 M204.9 -2.25 L205.75 -1.1 206.9 1.15 206.9 1.5 206.9 1.9 207.65 2.9 208.4 4.9 208.4 5.65 208.4 6.4 208.65 6.75 208.85 7.15 208.9 7.5 208.9 7.9 208.9 8.65 208.9 9.4 208.35 10.1 207.9 10.5 207.25 8.55 206.4 6.75 206.4 4.5 206.4 2.25 206.15 1.9 205.95 1.5 205.9 1.15 205.9 0.75 205.9 0.4 205.5 -0.75 204.9 -2.25 M247.3 49.15 L247.65 48.8 248.05 48.4 248.8 48.1 249.65 47.75 250.3 47.55 252.9 47.55 253.95 48.0 254.65 48.2 255.15 48.15 255.4 48.0 255.65 47.75 255.8 47.4 255.9 47.05 255.95 46.85 256.65 46.7 257.15 46.65 257.4 46.5 257.65 46.3 258.05 45.9 258.65 45.65 258.9 45.55 259.15 45.3 259.55 44.9 259.9 44.55 261.3 44.1 263.3 43.55 263.55 43.45 Q268.55 42.95 272.8 45.4 L272.9 45.55 272.4 46.05 269.6 46.55 Q266.1 47.3 262.9 49.05 L262.55 49.4 262.15 49.8 261.8 50.15 261.4 50.55 261.35 50.9 261.15 51.3 260.8 51.65 260.4 52.05 260.4 52.4 260.4 52.8 260.25 53.15 260.0 53.6 259.85 53.9 259.65 54.3 259.3 54.65 259.0 55.1 258.9 55.4 258.9 55.8 258.9 56.15 258.9 56.55 258.9 56.9 258.65 57.3 258.45 57.7 258.4 58.05 258.4 60.3 258.4 61.8 258.4 62.55 258.75 62.95 258.9 63.3 258.9 63.65 258.9 64.05 259.25 64.45 259.4 64.8 259.55 65.15 259.9 65.55 260.3 65.9 260.4 66.3 260.55 66.65 260.9 67.05 261.65 67.8 262.05 68.15 262.4 68.55 263.15 68.75 264.2 69.2 264.15 69.4 263.4 70.15 262.55 70.95 262.15 71.3 261.8 71.65 261.2 71.95 Q256.45 74.6 251.3 73.4 L250.75 73.1 249.15 72.35 247.65 71.8 Q246.25 70.45 244.4 69.75 240.1 68.1 235.65 66.8 L232.15 66.8 228.65 67.75 227.55 68.15 227.5 68.05 227.65 67.65 227.9 67.3 228.05 66.9 228.4 66.55 228.8 66.15 229.1 65.75 229.3 65.4 229.8 65.05 230.25 64.65 230.65 64.3 231.05 63.9 Q232.05 63.35 233.1 63.05 L234.3 62.55 239.9 62.55 241.9 63.05 245.15 63.8 247.65 63.75 248.15 63.65 248.4 63.5 248.65 63.3 249.05 62.9 249.65 62.65 250.05 62.45 250.65 62.15 250.9 62.05 251.95 61.05 253.85 58.75 254.4 57.65 254.4 57.3 254.4 56.9 254.4 56.55 254.4 56.15 254.4 55.8 254.55 55.45 254.75 55.05 254.9 54.65 254.9 53.55 254.9 52.8 254.9 52.4 254.8 52.05 254.5 51.75 Q250.75 49.0 247.3 49.15 M241.35 17.6 L241.6 17.6 Q247.6 19.6 251.35 24.5 244.1 23.05 235.7 20.35 L235.8 20.15 236.05 19.8 236.65 19.2 237.0 18.95 237.45 18.7 238.3 18.2 238.65 18.0 240.05 17.8 241.35 17.6 M228.9 26.3 L228.9 27.05 228.9 27.8 228.8 28.55 227.85 29.7 226.3 31.15 225.65 31.45 225.3 31.65 224.3 31.7 223.9 31.55 Q224.15 30.35 224.85 29.25 225.4 28.4 225.55 27.4 L225.9 27.0 226.4 26.25 226.55 25.9 227.3 25.55 227.5 25.5 228.6 25.9 228.9 26.3 M221.2 45.4 L222.0 43.6 222.55 42.4 223.3 42.05 224.15 41.75 224.8 41.55 225.05 41.45 225.85 41.65 Q226.1 41.7 226.3 41.9 L226.35 42.65 226.4 46.4 226.4 49.05 226.75 49.45 226.9 49.8 227.1 50.15 227.4 50.55 Q230.75 52.4 233.9 52.05 L233.65 52.3 233.3 52.65 231.65 53.25 229.4 54.05 225.3 54.05 224.65 53.8 224.05 53.65 223.9 53.55 223.65 53.3 Q222.25 52.25 221.5 50.7 L220.9 49.15 220.9 48.05 220.9 46.9 220.9 46.15 221.2 45.4 M167.4 11.5 L167.9 11.6 169.4 11.75 169.45 12.0 169.75 12.8 169.8 13.55 169.5 13.85 168.65 14.4 167.6 14.05 166.9 13.4 166.95 13.05 167.15 12.3 167.4 11.5 M170.5 67.6 L171.0 66.4 171.65 66.15 172.15 65.8 Q172.6 65.5 173.15 65.5 173.8 65.5 174.15 65.8 L173.5 66.4 172.75 67.15 172.15 67.4 171.9 67.55 171.65 67.8 171.25 68.15 170.65 68.4 170.0 68.55 170.5 67.6 M176.9 32.65 L176.9 32.6 177.55 33.3 177.9 34.55 177.9 35.65 177.9 36.8 177.75 37.15 177.4 37.55 177.4 37.9 177.4 38.3 177.2 38.55 176.4 39.05 176.25 38.35 Q175.9 37.8 175.9 37.15 L175.9 36.8 175.9 36.4 175.9 36.05 176.3 35.25 176.4 34.55 176.7 33.8 176.9 32.65 M175.95 76.25 Q176.45 76.65 176.45 77.3 L176.4 78.8 176.25 79.15 175.9 79.55 175.9 79.9 175.85 80.3 175.75 80.65 173.75 81.05 173.05 80.65 172.65 80.3 173.4 79.55 174.5 78.4 175.05 77.25 175.65 76.15 175.95 76.25 M220.4 79.05 L221.15 79.35 222.15 79.8 223.65 79.8 224.75 79.1 225.55 78.4 Q225.85 78.1 225.9 78.4 L225.9 78.65 225.8 79.4 225.45 80.2 Q225.05 80.9 224.8 81.65 L224.4 82.05 224.05 82.4 223.3 83.15 222.65 83.45 222.25 83.65 221.4 84.05 221.15 84.3 220.8 84.65 217.4 85.55 214.8 85.15 214.6 84.85 214.3 84.4 213.9 84.05 213.8 83.65 213.65 83.3 213.45 82.9 213.4 82.55 213.65 82.15 213.9 81.8 214.4 81.05 214.9 80.3 215.5 79.9 215.9 79.55 216.65 79.3 217.3 79.05 220.4 79.05 M211.55 65.4 L212.15 65.15 213.15 65.4 214.15 65.8 214.8 65.6 215.3 65.55 216.15 66.9 Q216.5 67.45 216.4 68.15 L215.7 69.6 214.9 71.15 214.4 71.55 213.55 71.55 213.3 71.4 212.75 71.05 212.05 70.65 211.45 69.5 210.9 68.8 210.7 68.05 210.55 67.65 210.4 67.3 210.95 66.2 211.55 65.4 M102.15 22.3 L102.65 22.15 102.9 22.05 103.15 21.9 103.5 22.65 103.9 23.4 103.9 24.15 103.9 24.9 103.65 25.3 103.4 25.65 103.25 26.05 102.8 25.95 102.0 25.65 101.75 25.4 101.0 24.65 100.65 23.9 100.4 23.15 100.6 22.75 100.75 22.4 100.9 22.05 101.0 21.95 102.15 22.3 M83.4 47.3 L83.55 47.35 83.95 48.0 Q84.45 48.7 84.75 49.55 L83.5 49.15 83.35 48.4 83.4 47.3" fill="#ffcc66" fill-rule="evenodd" stroke="none"/>
  </g>
</svg>
