<?xml version="1.0" encoding="UTF-8" standalone="no"?>
<svg xmlns:ffdec="https://www.free-decompiler.com/flash" xmlns:xlink="http://www.w3.org/1999/xlink" ffdec:objectType="shape" height="49.55px" width="26.25px" xmlns="http://www.w3.org/2000/svg">
  <g transform="matrix(1.0, 0.0, 0.0, 1.0, -257.3, -36.2)">
    <path d="M283.55 42.2 L283.55 45.95 283.55 46.35 283.4 46.7 283.2 47.1 283.05 47.45 283.05 47.85 283.05 48.2 283.05 48.6 282.75 49.3 282.4 50.1 282.05 50.85 281.65 51.2 281.15 51.6 280.8 51.85 280.15 51.95 279.3 51.7 278.8 51.3 278.45 50.95 278.35 50.75 277.9 50.95 277.55 51.3 276.65 52.05 276.3 52.35 275.65 52.45 275.2 52.4 274.3 52.2 273.8 51.8 273.45 51.45 273.3 51.1 273.3 50.7 273.3 50.35 273.4 49.95 Q274.4 48.35 276.1 47.4 L276.4 47.25 276.3 47.2 275.8 46.8 275.45 46.45 275.3 46.1 275.3 45.7 275.3 45.35 275.4 44.95 275.6 44.6 276.3 43.85 276.8 43.45 277.65 43.25 277.65 43.2 278.55 43.45 279.05 43.85 279.25 44.2 279.4 44.6 279.55 45.35 279.55 45.55 279.65 45.3 279.8 44.95 279.8 43.85 279.85 41.95 279.15 42.55 278.8 42.85 278.15 42.95 277.3 42.7 276.8 42.3 276.4 41.95 276.35 41.55 276.3 40.85 276.3 40.1 276.45 39.75 276.85 39.35 276.8 39.3 276.45 38.9 276.3 38.6 276.3 38.2 276.35 37.85 Q276.4 37.45 276.6 37.1 L276.9 36.7 277.3 36.45 277.55 36.35 278.15 36.25 278.15 36.2 278.65 36.25 279.55 36.45 280.0 36.8 280.15 36.75 280.15 36.7 280.65 36.75 281.55 36.95 282.05 37.35 282.4 37.7 283.15 38.45 283.3 38.85 283.4 39.2 283.55 39.6 283.55 42.2 M269.7 67.0 L270.45 66.25 270.8 65.95 271.05 65.9 271.65 65.75 271.65 65.7 272.55 65.95 273.05 66.35 273.25 66.7 273.4 67.1 273.55 67.45 273.5 67.85 273.4 68.2 273.05 68.95 273.05 69.35 273.05 70.1 273.05 70.85 272.9 71.2 272.7 71.6 272.55 71.95 272.6 73.45 272.55 74.7 272.55 75.2 Q272.65 76.0 272.35 76.7 L272.55 76.85 272.75 77.25 272.9 77.6 273.05 78.35 272.8 79.45 Q272.2 80.75 271.15 81.7 L270.95 82.1 270.75 82.45 270.55 82.85 268.5 84.65 Q267.65 85.25 266.65 85.45 L265.8 85.2 265.3 84.8 260.65 85.7 258.3 85.7 257.8 85.3 257.45 84.95 257.3 84.6 257.3 84.2 257.35 83.85 Q257.4 83.45 257.6 83.1 L257.9 82.7 Q258.45 82.25 259.15 82.15 L262.85 81.3 Q262.9 80.9 263.1 80.6 L263.4 80.2 263.8 79.95 264.05 79.9 264.65 79.8 264.65 79.7 265.15 79.75 266.05 79.95 266.55 80.35 266.75 80.75 266.9 81.1 266.95 81.15 267.05 81.1 267.25 80.7 267.4 80.45 267.35 80.1 267.25 79.35 267.4 78.2 267.8 77.85 269.05 77.1 268.9 76.95 268.7 75.85 268.75 74.95 268.75 74.1 268.8 71.1 268.8 70.7 268.95 70.35 269.15 69.95 269.3 69.6 269.3 69.2 269.25 68.45 Q269.2 67.85 269.4 67.35 L269.7 67.0" fill="#ff6600" fill-rule="evenodd" stroke="none"/>
  </g>
</svg>
