<?xml version="1.0" encoding="UTF-8" standalone="no"?>
<svg xmlns:ffdec="https://www.free-decompiler.com/flash" xmlns:xlink="http://www.w3.org/1999/xlink" ffdec:objectType="shape" height="54.1px" width="57.0px" xmlns="http://www.w3.org/2000/svg">
  <g transform="matrix(1.0, 0.0, 0.0, 1.0, 363.5, 48.0)">
    <path d="M-332.4 -41.65 Q-332.0 -41.8 -331.65 -42.05 L-330.75 -42.75 -330.4 -43.15 Q-326.4 -45.95 -321.9 -47.65 L-321.25 -47.9 -320.5 -47.95 -320.5 -48.0 -319.55 -47.65 -318.55 -47.0 -318.15 -46.65 -317.9 -46.25 -317.75 -45.9 -317.65 -45.5 -317.5 -45.15 -317.5 -44.75 -317.5 -44.4 -317.5 -43.65 -317.5 -43.25 -317.65 -42.9 -317.8 -42.5 -318.0 -42.15 -318.0 -41.75 -318.0 -41.4 -318.0 -40.65 -318.0 -40.25 -318.15 -39.9 -318.3 -39.5 -318.5 -39.15 -318.5 -36.15 -318.5 -32.0 -318.5 -31.65 -318.4 -31.25 -318.25 -30.9 -318.15 -30.5 -318.0 -30.15 -318.0 -29.75 -318.0 -29.4 -318.0 -29.0 -317.3 -27.45 Q-316.6 -26.05 -316.15 -24.5 L-316.0 -24.15 -315.75 -23.75 -315.4 -23.4 -315.0 -23.0 -314.85 -22.65 -314.65 -22.25 -314.5 -21.9 -314.5 -21.5 -314.5 -21.3 Q-313.75 -20.8 -313.15 -20.15 L-312.55 -19.0 Q-311.95 -17.7 -310.8 -16.7 L-310.0 -16.0 -308.55 -15.2 -307.55 -14.5 -307.15 -14.15 -306.9 -13.75 -306.75 -13.4 -306.65 -13.0 -306.5 -12.65 -306.55 -12.25 -306.65 -11.9 -306.8 -11.5 -307.0 -11.15 -307.3 -10.8 -307.75 -10.4 -308.25 -10.2 -308.5 -10.1 -308.5 -9.65 -308.65 -9.25 -308.85 -8.85 -309.0 -8.5 Q-313.9 -5.0 -320.15 -6.75 L-320.65 -7.15 Q-322.8 -7.3 -324.85 -8.15 L-325.25 -8.4 -335.35 -9.55 -336.15 -8.95 -341.5 -5.0 Q-343.9 -2.25 -346.95 -0.4 L-350.75 2.1 Q-352.25 2.5 -353.35 3.55 L-355.75 5.6 -360.15 5.75 -361.65 5.25 -362.1 4.85 -362.5 4.5 -362.75 4.1 -362.9 3.75 -363.15 3.35 -363.4 3.0 -363.5 2.6 -363.5 2.25 -363.5 1.5 -363.5 0.35 -363.5 0.0 -363.35 -0.35 -363.05 -1.15 -362.45 -2.3 -362.0 -3.0 -361.65 -3.4 -361.25 -3.75 -361.05 -4.15 -360.85 -4.5 -360.65 -4.9 -360.25 -5.25 -359.9 -5.65 -359.5 -6.0 -359.4 -6.4 -359.25 -6.75 -358.9 -7.15 -358.5 -7.5 -358.2 -8.25 -357.55 -9.3 -356.65 -10.9 -355.9 -11.65 -354.75 -12.75 -354.0 -13.5 -353.9 -13.9 -353.75 -14.25 -353.0 -15.0 -351.9 -16.15 -350.95 -17.05 -356.65 -17.25 -357.1 -17.65 -357.5 -18.0 -357.75 -18.4 -357.9 -18.75 -358.0 -19.15 -358.0 -19.5 -358.0 -19.9 -357.95 -20.65 -357.9 -21.0 -357.25 -21.75 -356.15 -22.9 -355.75 -23.25 -355.55 -23.65 -355.35 -24.0 -355.15 -24.4 -348.5 -30.25 Q-346.85 -31.65 -344.9 -32.65 L-344.5 -33.0 -343.75 -33.75 -343.4 -34.15 Q-338.85 -37.8 -333.7 -40.6 L-332.4 -41.65 M-336.65 -32.9 Q-339.4 -30.25 -342.45 -27.95 -343.6 -27.05 -345.0 -26.5 L-345.4 -26.15 -346.3 -25.45 -347.0 -25.0 -347.4 -24.65 -348.15 -23.9 -348.9 -23.15 Q-348.95 -22.4 -346.55 -22.1 L-346.0 -21.95 -343.4 -23.65 -340.35 -26.6 Q-338.4 -28.5 -335.9 -29.65 L-333.35 -32.15 -330.35 -33.95 Q-328.45 -34.75 -326.65 -35.75 L-325.5 -35.95 -325.5 -36.0 -323.55 -35.6 -323.5 -35.55 -323.5 -40.75 Q-326.15 -40.0 -328.25 -38.15 L-330.0 -37.0 Q-332.0 -35.1 -334.35 -33.7 -335.35 -33.1 -336.65 -32.9 M-326.5 -28.75 L-326.5 -29.15 Q-331.3 -27.45 -335.55 -23.8 -336.95 -22.55 -338.5 -21.5 L-341.6 -18.65 Q-343.7 -16.85 -345.75 -15.15 L-351.55 -8.1 -355.65 -2.4 -356.0 -2.0 -356.35 -1.6 -356.6 -1.25 -356.75 -1.0 -356.4 -1.2 -356.0 -1.5 -355.65 -1.75 Q-352.6 -3.3 -349.75 -5.1 -344.7 -8.35 -340.25 -12.5 L-338.25 -14.25 -337.9 -14.65 -337.65 -14.7 -336.4 -15.65 -334.9 -17.15 -331.5 -20.5 -331.1 -20.75 -330.75 -20.85 -330.0 -21.0 -329.05 -20.7 -328.4 -20.4 -328.05 -20.0 -327.85 -19.65 -327.65 -19.25 -327.5 -18.9 -327.5 -18.5 -327.5 -18.15 -327.5 -17.75 -330.05 -14.45 Q-325.85 -13.9 -321.75 -12.65 L-319.05 -12.15 -318.25 -11.9 -314.65 -11.75 -313.9 -12.15 -314.0 -12.5 -314.0 -12.55 -316.25 -14.75 -316.4 -15.15 -316.5 -15.5 -316.9 -15.9 -317.2 -16.3 -317.25 -16.5 -318.1 -16.8 -318.85 -17.15 -319.9 -17.9 -321.15 -18.25 -321.6 -18.65 -322.0 -19.0 -322.4 -19.4 -323.1 -19.8 -323.6 -20.15 -324.0 -20.5 -324.45 -21.35 -324.55 -21.6 -325.1 -23.5 Q-325.35 -24.35 -325.9 -25.0 L-326.0 -25.4 -326.0 -25.75 -326.0 -26.15 -326.0 -26.9 -326.0 -27.25 -326.15 -27.6 -326.35 -28.0 -326.5 -28.4 -326.5 -28.75" fill="#000000" fill-rule="evenodd" stroke="none"/>
    <path d="M-326.5 -28.75 L-326.5 -28.4 -326.35 -28.0 -326.15 -27.6 -326.0 -27.25 -326.0 -26.9 -326.0 -26.15 -326.0 -25.75 -326.0 -25.4 -325.9 -25.0 Q-325.35 -24.35 -325.1 -23.5 L-324.55 -21.6 -324.45 -21.35 -324.0 -20.5 -323.6 -20.15 -323.1 -19.8 -322.4 -19.4 -322.0 -19.0 -321.6 -18.65 -321.15 -18.25 -319.9 -17.9 -318.85 -17.15 -318.1 -16.8 -317.25 -16.5 -317.2 -16.3 -316.9 -15.9 -316.5 -15.5 -316.4 -15.15 -316.25 -14.75 -314.0 -12.55 -314.0 -12.5 -313.9 -12.15 -314.65 -11.75 -318.25 -11.9 -319.05 -12.15 -321.75 -12.65 Q-325.85 -13.9 -330.05 -14.45 L-327.5 -17.75 -327.5 -18.15 -327.5 -18.5 -327.5 -18.9 -327.65 -19.25 -327.85 -19.65 -328.05 -20.0 -328.4 -20.4 -329.05 -20.7 -330.0 -21.0 -330.75 -20.85 -331.1 -20.75 -331.5 -20.5 -334.9 -17.15 -336.4 -15.65 -337.65 -14.7 -337.9 -14.65 -338.25 -14.25 -340.25 -12.5 Q-344.7 -8.35 -349.75 -5.1 -352.6 -3.3 -355.65 -1.75 L-356.0 -1.5 -356.4 -1.2 -356.75 -1.0 -356.6 -1.25 -356.35 -1.6 -356.0 -2.0 -355.65 -2.4 -351.55 -8.1 -345.75 -15.15 Q-343.7 -16.85 -341.6 -18.65 L-338.5 -21.5 Q-336.95 -22.55 -335.55 -23.8 -331.3 -27.45 -326.5 -29.15 L-326.5 -28.75 M-336.65 -32.9 Q-335.35 -33.1 -334.35 -33.7 -332.0 -35.1 -330.0 -37.0 L-328.25 -38.15 Q-326.15 -40.0 -323.5 -40.75 L-323.5 -35.55 -323.55 -35.6 -325.5 -36.0 -325.5 -35.95 -326.65 -35.75 Q-328.45 -34.75 -330.35 -33.95 L-333.35 -32.15 -335.9 -29.65 Q-338.4 -28.5 -340.35 -26.6 L-343.4 -23.65 -346.0 -21.95 -346.55 -22.1 Q-348.95 -22.4 -348.9 -23.15 L-348.15 -23.9 -347.4 -24.65 -347.0 -25.0 -346.3 -25.45 -345.4 -26.15 -345.0 -26.5 Q-343.6 -27.05 -342.45 -27.95 -339.4 -30.25 -336.65 -32.9" fill="#80a839" fill-rule="evenodd" stroke="none"/>
  </g>
</svg>
