<?xml version="1.0" encoding="UTF-8" standalone="no"?>
<svg xmlns:ffdec="https://www.free-decompiler.com/flash" xmlns:xlink="http://www.w3.org/1999/xlink" ffdec:objectType="shape" height="96.05px" width="208.05px" xmlns="http://www.w3.org/2000/svg">
  <g transform="matrix(1.0, 0.0, 0.0, 1.0, -100.4, 5.25)">
    <path d="M206.65 -4.6 L206.9 -4.35 Q207.65 -4.1 208.2 -3.55 L210.15 -1.7 Q210.25 -1.1 210.6 -0.55 L211.6 1.3 211.9 2.05 211.9 2.4 211.9 2.8 211.9 3.55 211.9 3.9 211.85 4.25 211.45 5.05 211.15 5.8 210.9 6.0 210.65 6.15 209.65 6.65 209.15 6.75 207.15 6.8 206.4 6.55 204.9 6.05 204.55 5.6 204.4 5.3 204.3 4.9 203.9 4.55 203.55 4.15 203.45 3.75 203.4 3.4 203.4 3.05 203.35 2.65 203.15 2.3 202.9 1.9 202.9 1.15 202.9 -0.35 202.9 -1.45 202.95 -1.85 203.15 -2.2 203.4 -2.6 203.4 -2.95 203.4 -3.35 203.4 -4.1 203.4 -4.5 203.8 -4.85 204.15 -5.05 204.65 -5.25 205.65 -5.25 206.3 -5.0 206.65 -4.6 M205.4 -0.85 L205.4 -0.1 205.4 0.65 205.45 1.0 205.65 1.4 205.9 1.8 205.9 2.15 205.9 2.55 206.15 2.9 206.4 3.3 206.55 3.65 207.3 4.05 208.4 4.05 209.2 3.55 209.4 3.3 Q209.25 2.3 208.7 1.45 L208.15 0.3 206.8 -1.2 Q206.3 -1.85 205.8 -1.6 L205.65 -1.25 205.4 -0.85 M286.3 36.9 L286.7 37.3 287.45 38.05 287.7 38.3 288.35 38.55 289.35 38.95 291.35 39.55 294.95 39.55 295.7 39.35 298.95 38.55 300.45 38.05 300.85 37.7 301.85 37.15 303.25 36.45 303.85 36.15 304.25 35.8 304.7 35.4 305.0 35.05 305.75 34.3 306.2 33.9 306.7 33.8 307.2 33.85 Q307.55 33.9 307.8 34.1 L308.45 34.8 308.45 35.15 308.3 35.5 308.05 35.9 307.75 36.3 307.45 36.65 307.45 37.05 307.45 37.4 307.45 37.8 307.45 38.15 307.3 38.5 306.55 40.1 305.65 42.35 304.7 44.15 304.3 44.5 303.85 44.9 303.7 45.25 303.45 45.55 303.2 45.65 302.6 45.9 302.25 46.3 302.0 46.65 301.8 47.0 301.6 47.4 301.2 47.8 300.45 48.55 299.35 49.65 298.6 50.4 298.2 50.65 297.6 50.9 297.2 51.3 296.95 51.55 296.7 51.65 292.15 52.95 Q290.35 53.6 288.6 54.4 L288.2 54.8 287.1 55.9 285.65 57.45 285.45 57.8 285.3 58.2 285.35 58.55 285.45 58.9 285.7 59.6 Q286.05 60.15 285.95 60.8 L286.15 61.15 286.45 61.55 286.7 61.9 286.95 62.3 287.6 62.65 288.35 63.05 291.95 63.05 292.8 62.65 293.2 62.45 293.85 62.15 294.7 61.8 295.2 61.85 Q295.5 61.9 295.8 62.1 L296.2 62.4 296.4 62.8 296.25 64.0 295.25 65.55 294.45 66.55 294.45 66.9 294.45 67.3 294.2 67.65 293.4 68.75 292.2 70.3 291.45 71.05 291.35 71.4 291.2 71.8 290.85 72.15 290.1 72.9 289.35 73.65 288.6 74.4 288.2 74.65 287.6 74.9 287.2 75.3 285.2 76.65 282.2 77.8 275.2 77.8 274.45 77.55 272.95 77.0 271.95 76.55 271.6 76.15 271.35 75.9 271.2 75.8 270.45 75.55 270.1 75.15 269.7 74.8 269.35 74.4 268.45 74.05 268.1 73.65 267.7 73.3 267.35 72.9 266.45 72.55 265.45 72.1 263.95 71.55 259.35 71.55 258.7 71.75 256.25 72.45 Q255.75 72.6 255.35 72.9 L255.15 73.25 254.85 73.65 254.45 74.05 254.1 74.4 254.0 74.8 253.9 75.15 253.8 75.55 253.6 75.9 253.2 76.15 252.7 76.25 252.2 76.3 251.5 76.0 251.1 75.65 250.95 75.3 250.95 74.9 251.0 74.6 251.3 74.15 251.45 73.8 251.45 73.4 251.45 73.05 251.5 72.7 251.7 72.3 251.95 71.9 251.95 71.55 251.95 71.15 252.2 70.8 252.4 70.4 252.45 70.05 252.85 69.65 253.2 69.3 253.4 68.9 253.55 68.6 253.75 68.15 254.1 67.45 254.7 66.3 255.1 65.9 255.45 65.55 255.85 65.15 256.6 64.4 256.95 64.05 257.8 63.65 258.2 63.45 258.85 63.15 259.2 62.8 259.45 62.55 260.35 62.2 Q265.75 60.4 271.45 59.55 L271.9 59.15 272.2 58.8 272.6 58.4 273.35 57.65 273.7 57.3 273.9 56.9 274.05 56.55 274.3 56.15 274.45 55.8 274.6 55.4 274.95 55.05 275.35 54.65 275.45 54.3 275.6 53.9 275.8 53.5 275.95 53.15 275.95 52.8 275.95 52.4 275.95 52.05 276.0 51.7 276.2 51.3 276.45 50.9 276.45 50.55 276.45 50.15 276.7 49.8 277.1 49.4 277.45 49.05 277.85 48.65 277.95 48.3 278.1 47.9 278.45 47.55 278.85 47.15 279.2 46.8 279.6 46.4 279.4 46.1 278.45 45.5 277.2 44.85 276.45 44.55 276.1 44.15 275.7 43.8 275.35 43.4 274.6 42.65 274.45 42.3 274.35 41.9 Q274.15 41.7 273.9 41.65 269.85 40.0 265.45 40.05 L263.35 40.05 262.7 40.25 261.25 40.85 260.1 41.4 259.75 41.8 259.15 42.95 Q258.8 43.8 258.1 44.45 L257.2 45.15 256.7 45.2 256.0 44.95 255.6 44.65 255.5 44.3 255.45 43.15 255.45 41.3 255.45 39.05 255.85 38.65 256.2 38.3 256.45 38.05 256.7 37.95 257.2 37.8 257.85 37.65 257.9 37.4 257.95 37.05 258.0 36.7 258.2 36.3 258.6 35.9 259.0 35.6 259.85 35.15 260.2 34.8 260.6 34.4 260.95 34.05 261.8 33.65 265.2 31.9 Q267.2 30.85 269.2 30.3 L275.2 30.3 275.85 30.45 Q278.2 30.9 280.25 32.15 281.6 32.95 282.45 34.3 L283.05 34.7 283.45 35.05 283.7 35.3 284.3 35.55 284.8 35.9 285.1 36.15 285.2 36.3 285.8 36.55 286.3 36.9 M288.7 41.75 L287.95 41.55 287.6 41.15 287.35 40.9 287.2 40.8 286.45 40.55 286.1 40.15 285.85 39.9 285.7 39.8 284.95 39.55 284.6 39.15 284.2 38.8 283.85 38.4 282.95 38.05 282.6 37.65 282.35 37.4 282.2 37.3 281.45 37.05 280.7 36.3 279.6 35.15 278.85 34.4 Q274.7 32.2 269.85 33.05 267.6 33.45 265.65 34.55 L262.1 36.4 261.7 36.8 261.35 37.15 260.95 37.55 260.7 37.8 261.2 37.75 261.95 37.55 262.7 37.3 266.2 37.3 266.85 37.55 271.2 37.8 Q273.45 38.15 275.25 39.5 276.5 40.4 277.35 41.65 L277.85 42.05 278.2 42.25 279.3 42.95 279.6 43.15 282.85 43.9 Q284.25 44.15 284.95 45.3 L284.95 45.65 284.95 46.05 284.85 46.4 284.7 46.8 284.45 47.0 284.2 47.15 283.7 47.3 282.95 47.55 282.55 47.9 282.2 48.15 281.6 48.4 281.2 48.8 280.85 49.15 280.45 49.55 280.1 49.9 279.95 50.25 279.7 50.65 279.45 51.0 279.1 51.4 279.0 51.8 278.95 52.15 278.8 52.55 278.45 53.3 278.45 53.65 278.45 54.05 278.45 54.4 278.45 54.8 277.9 55.5 277.15 56.65 Q276.85 57.15 276.7 57.8 L276.35 58.15 275.95 58.55 275.85 58.9 275.7 59.3 274.95 60.05 273.8 61.15 273.1 61.9 Q267.45 63.1 261.85 64.6 L260.45 65.05 260.1 65.4 259.7 65.8 259.45 66.05 259.2 66.15 258.6 66.4 258.2 66.8 257.85 67.15 257.45 67.55 257.1 67.9 256.95 68.3 256.7 68.65 256.6 68.85 257.95 69.05 258.7 68.8 264.7 68.8 267.85 70.05 Q269.5 70.85 270.7 72.3 L271.3 72.6 271.8 72.95 272.1 73.15 272.2 73.3 272.8 73.6 273.3 73.95 273.6 74.15 273.7 74.3 274.35 74.5 275.2 74.8 275.85 75.05 281.95 75.05 282.7 74.8 283.45 74.55 283.85 74.2 284.2 73.9 284.85 73.65 285.2 73.3 285.6 72.9 285.95 72.55 286.85 72.15 287.6 71.4 289.1 69.9 289.85 69.15 289.95 68.8 290.1 68.4 290.45 68.05 290.85 67.65 291.2 67.3 291.4 66.9 291.55 66.6 291.85 66.15 Q289.6 66.25 286.7 65.3 L285.95 65.05 285.6 64.65 285.2 64.3 284.45 63.55 284.1 63.15 283.95 62.8 283.8 62.45 283.45 62.05 283.45 61.65 283.45 61.3 283.3 60.95 283.0 60.5 282.65 59.8 282.45 59.4 282.45 59.05 282.45 58.65 282.45 58.3 282.45 57.9 282.45 57.55 282.5 57.2 282.7 56.8 282.9 56.4 282.95 56.05 283.75 55.2 284.9 54.1 285.6 53.4 286.0 53.1 286.85 52.65 287.2 52.3 287.6 51.9 287.95 51.55 Q290.55 50.65 293.25 49.95 L296.35 48.65 297.1 47.9 298.6 46.4 299.35 45.65 299.45 45.3 299.6 44.9 299.95 44.55 300.35 44.15 300.7 43.95 301.3 43.6 301.7 43.3 302.3 42.5 303.15 41.1 303.75 39.5 303.7 39.3 300.55 40.85 295.2 42.3 290.7 42.3 289.95 42.05 288.7 41.75 M251.3 18.55 L251.5 18.9 251.65 19.3 252.05 19.65 252.4 20.05 252.8 20.4 253.4 21.55 254.05 22.65 254.4 23.4 254.4 23.8 254.4 24.15 254.4 24.55 254.4 24.9 254.15 25.65 253.8 26.4 253.65 26.8 253.3 27.15 252.75 27.5 252.15 27.8 251.15 27.8 250.45 27.5 249.4 27.05 Q247.2 25.45 245.35 23.4 243.55 21.4 242.05 19.15 L241.85 18.4 241.55 17.65 241.4 17.3 241.4 16.9 241.4 16.15 241.45 15.8 241.55 15.4 241.45 15.0 241.4 14.65 241.4 14.3 241.6 13.95 241.95 13.6 242.65 13.35 242.65 13.3 Q245.15 14.05 247.4 15.55 L251.05 18.15 251.3 18.55 M244.4 18.05 L245.85 20.3 247.05 22.15 249.05 23.65 249.4 24.05 250.55 24.6 251.15 24.8 251.7 24.55 251.9 24.3 251.1 22.85 250.55 21.65 249.85 20.9 249.3 20.15 Q247.45 18.35 245.25 17.05 L244.15 16.9 244.35 17.3 244.4 17.65 244.4 18.05 M250.3 61.15 L250.4 61.9 250.4 63.05 250.3 63.4 250.15 63.7 Q247.75 65.5 244.85 66.15 L242.7 66.8 238.7 66.8 238.0 66.45 236.0 65.45 235.55 65.15 235.5 64.8 235.45 64.05 235.45 62.9 235.45 62.55 235.8 62.15 237.3 60.65 237.95 60.05 238.2 59.95 242.2 58.85 242.2 58.8 247.2 58.8 247.8 59.05 248.3 59.45 248.7 59.8 249.3 60.05 249.8 60.45 250.2 60.8 250.3 61.15 M247.05 62.4 L247.15 62.35 246.5 61.95 246.05 61.65 242.55 61.5 242.3 61.55 240.3 62.0 Q239.3 62.25 238.55 62.9 L238.25 63.3 238.2 63.55 238.8 64.05 242.45 64.05 244.75 63.5 Q246.05 63.25 247.05 62.4 M262.2 75.8 L263.7 75.8 265.35 76.5 267.2 77.8 267.6 78.15 268.3 78.55 268.85 78.9 269.15 79.3 269.35 79.65 269.45 80.05 269.85 80.4 270.2 80.8 270.6 81.15 270.8 81.55 Q271.0 82.25 271.5 82.75 L272.2 83.8 272.6 84.15 273.35 84.9 273.6 85.15 Q274.9 85.9 276.4 86.3 L280.25 87.3 Q280.65 87.4 280.95 87.8 L280.95 88.15 280.8 88.55 280.6 88.9 Q279.1 89.9 277.35 90.2 L274.2 90.8 271.2 90.8 Q268.0 90.65 264.95 89.55 L263.1 87.65 261.2 85.8 260.45 85.05 260.45 84.65 260.45 84.3 260.45 83.9 260.3 83.55 260.1 83.15 259.95 82.8 259.95 81.65 259.95 79.8 259.95 77.9 259.95 77.55 260.35 77.15 260.7 76.8 261.1 76.4 Q261.25 76.25 261.5 76.15 L262.2 75.85 262.2 75.8 M262.35 79.95 L262.45 81.05 262.75 81.8 262.95 82.9 Q263.95 83.9 264.6 85.15 L265.2 86.3 Q267.85 88.3 271.35 88.05 L273.45 88.05 273.2 87.85 272.45 87.55 269.85 84.9 269.1 84.15 268.95 83.8 268.85 83.4 267.7 82.3 267.35 81.9 267.0 81.5 266.7 80.8 265.45 80.05 264.7 79.3 264.45 79.05 263.7 78.85 262.85 78.75 262.7 78.8 Q262.3 79.25 262.35 79.95 M227.65 22.8 L228.65 22.8 229.25 23.1 230.15 23.8 230.55 24.15 230.75 24.55 230.95 25.25 231.25 26.05 231.4 26.4 231.4 27.15 231.45 28.3 231.3 29.4 230.7 30.1 229.15 31.15 225.65 31.3 224.95 30.95 224.55 30.65 224.2 30.25 223.8 29.55 223.4 28.8 223.4 28.05 223.4 26.9 223.4 25.8 223.95 25.05 225.05 23.9 225.4 23.55 226.15 23.3 227.65 22.85 227.65 22.8 M222.7 40.8 Q224.05 41.1 225.2 40.45 L225.7 40.3 Q227.15 40.45 228.3 41.45 L229.7 42.9 229.9 43.3 229.95 43.65 229.95 44.05 230.2 44.4 230.45 44.8 230.45 45.15 230.45 45.55 230.45 45.9 230.3 46.4 230.8 46.15 231.2 45.8 231.45 45.55 232.2 45.3 234.2 44.85 234.2 44.8 235.2 45.3 236.3 45.95 236.7 46.3 236.9 47.05 236.95 47.8 236.95 48.55 236.65 49.25 236.45 49.65 236.05 50.4 235.7 50.8 235.45 51.05 235.2 51.15 234.55 51.4 234.2 51.8 233.95 52.0 233.7 52.15 230.7 52.3 229.95 52.05 229.2 51.3 228.8 50.9 228.45 50.55 228.45 50.15 228.45 49.8 228.45 49.5 228.2 49.65 227.6 49.95 227.2 50.15 223.2 50.3 222.45 50.05 221.7 49.3 220.95 48.55 220.55 48.15 220.45 47.8 220.25 47.45 219.95 47.05 219.95 45.9 219.95 45.15 219.95 44.05 220.0 43.7 220.2 43.3 220.4 42.9 220.45 42.55 221.2 41.8 221.95 41.05 222.7 40.8 M222.45 45.05 L222.45 45.4 222.45 45.8 222.8 46.55 222.95 46.9 223.2 47.25 223.45 47.55 Q225.55 48.65 226.8 47.15 L227.35 46.35 227.5 46.05 227.8 45.65 227.45 44.9 227.3 44.55 226.7 43.8 226.3 43.5 225.7 43.35 225.55 43.4 224.7 43.65 223.95 43.55 223.3 43.55 222.85 43.95 222.7 44.3 222.5 44.7 222.45 45.05 M228.15 26.15 L227.75 26.5 227.15 26.8 226.4 26.6 225.9 26.55 225.9 26.9 225.9 27.3 225.9 27.65 225.9 28.05 226.55 28.35 228.8 28.15 228.7 27.45 228.6 26.65 Q228.55 25.85 228.15 26.15 M232.45 48.05 L232.05 48.4 231.7 48.8 231.3 49.15 Q231.0 50.45 233.3 49.15 L233.75 48.35 233.45 48.05 232.55 47.95 232.45 48.05 M176.7 32.4 L177.2 32.3 178.7 32.3 179.75 32.95 181.2 34.4 181.45 34.8 181.45 35.15 181.4 36.3 181.45 37.8 181.45 38.15 181.25 38.5 180.7 39.3 180.05 40.4 179.65 40.55 177.2 40.8 176.45 40.55 176.05 40.15 175.3 39.4 174.55 38.65 174.45 38.3 174.25 37.95 173.95 37.55 173.95 37.15 173.95 36.4 173.95 35.65 173.95 35.3 174.1 34.9 174.3 34.5 174.45 34.15 174.7 33.8 174.95 33.55 175.2 33.4 175.8 33.15 176.2 32.8 176.45 32.55 176.7 32.4 M176.65 36.9 L177.05 37.65 178.45 37.85 178.8 37.65 178.9 37.3 178.95 36.9 178.95 36.55 178.65 35.8 178.2 35.15 177.8 35.05 177.5 35.35 176.95 35.85 176.7 36.15 176.55 36.55 176.65 36.9 M170.15 62.8 L171.65 62.8 172.65 63.25 Q173.75 63.7 174.5 64.7 L174.75 65.05 174.85 65.4 174.9 66.55 174.85 67.65 174.75 68.05 174.5 68.4 174.15 68.8 173.9 69.05 173.65 69.15 173.05 69.45 172.65 69.65 172.15 69.75 170.65 69.8 169.9 69.5 168.9 69.05 168.55 68.65 168.4 68.3 168.25 67.95 167.9 67.55 167.9 67.15 167.9 66.4 167.9 65.65 167.9 64.55 168.25 64.15 168.65 63.8 169.0 63.4 169.45 63.15 170.15 62.85 170.15 62.8 M170.6 66.55 L171.25 67.05 171.85 66.95 172.25 66.65 Q171.95 65.75 170.9 65.6 L170.65 65.65 Q170.15 66.1 170.6 66.55 M173.65 71.8 L174.65 71.8 175.25 72.1 175.75 72.4 176.55 73.5 Q176.95 74.55 177.65 75.45 L177.9 75.8 177.9 76.15 177.9 76.55 177.9 76.9 177.9 77.65 177.75 78.05 177.55 78.45 177.35 78.8 177.15 79.15 176.75 79.5 176.15 79.8 174.65 79.8 173.95 79.5 173.5 79.15 172.95 78.4 172.35 77.3 171.9 76.55 171.9 75.8 171.9 74.3 171.9 73.15 172.15 72.8 172.5 72.4 172.9 72.05 173.65 71.85 173.65 71.8 M212.15 69.3 L211.95 68.9 211.9 68.55 211.9 67.8 211.9 66.65 211.9 65.15 212.15 64.8 212.55 64.4 213.3 63.65 213.65 63.45 214.3 63.15 214.65 62.8 214.9 62.55 215.15 62.45 215.65 62.3 216.65 62.3 217.25 62.6 218.15 63.3 218.55 63.65 218.75 64.05 219.2 64.75 219.8 65.55 219.85 66.3 219.95 67.4 219.8 68.55 219.15 69.25 218.0 70.4 217.65 70.65 214.65 70.8 213.9 70.5 212.95 70.0 212.55 69.65 212.15 69.3 M214.4 67.3 L215.0 67.8 216.4 68.05 216.9 67.65 217.15 67.3 217.4 66.9 217.0 66.2 216.35 65.65 216.15 65.65 215.1 66.1 Q214.15 66.35 214.4 67.3 M222.2 74.3 L223.7 74.3 Q224.8 74.7 225.55 75.65 L227.45 78.3 227.45 78.65 227.45 79.4 227.45 80.15 227.45 80.9 227.35 81.25 226.8 82.4 226.05 83.9 225.7 84.3 225.45 84.55 225.2 84.65 224.6 84.95 224.2 85.15 223.7 85.25 221.7 85.3 220.95 85.05 220.55 84.65 219.8 83.9 219.05 83.15 218.95 82.8 218.75 82.45 218.45 82.05 218.45 81.65 218.45 80.9 218.45 80.15 218.45 79.4 218.5 79.05 218.9 78.25 219.45 77.2 219.7 76.8 220.05 76.4 220.45 76.05 220.95 75.65 220.95 75.3 221.05 74.9 221.5 74.65 222.15 74.35 222.2 74.3 M221.35 79.45 L221.2 79.8 220.95 80.55 221.25 81.25 221.55 81.7 222.2 82.4 222.6 82.55 223.4 82.45 223.8 82.15 224.35 81.35 224.5 81.05 224.95 80.3 224.95 79.9 224.95 79.55 224.95 79.15 224.7 78.8 224.3 78.4 224.05 78.2 223.8 78.1 223.7 78.15 223.3 78.5 222.7 78.8 221.8 78.65 221.35 79.45 M105.3 20.5 L106.2 21.1 106.9 21.8 106.9 22.15 106.85 22.55 106.75 22.9 106.6 23.25 105.85 24.0 105.15 24.65 102.15 24.8 101.4 24.45 101.0 24.15 100.65 23.75 100.45 23.4 100.4 23.05 100.4 22.65 100.4 22.3 100.4 21.9 100.4 21.55 100.45 21.15 100.6 20.75 100.9 20.05 101.25 19.65 101.95 19.15 102.65 18.8 103.65 18.8 104.25 19.05 104.6 19.4 104.8 19.8 104.9 20.15 105.3 20.5" fill="#ffcc00" fill-rule="evenodd" stroke="none"/>
    <path d="M205.4 -0.85 L205.65 -1.25 205.8 -1.6 Q206.3 -1.85 206.8 -1.2 L208.15 0.3 208.7 1.45 Q209.25 2.3 209.4 3.3 L209.2 3.55 208.4 4.05 207.3 4.05 206.55 3.65 206.4 3.3 206.15 2.9 205.9 2.55 205.9 2.15 205.9 1.8 205.65 1.4 205.45 1.0 205.4 0.65 205.4 -0.1 205.4 -0.85 M288.7 41.75 L289.95 42.05 290.7 42.3 295.2 42.3 300.55 40.85 303.7 39.3 303.75 39.5 303.15 41.1 302.3 42.5 301.7 43.3 301.3 43.6 300.7 43.95 300.35 44.15 299.95 44.55 299.6 44.9 299.45 45.3 299.35 45.65 298.6 46.4 297.1 47.9 296.35 48.65 293.25 49.95 Q290.55 50.65 287.95 51.55 L287.6 51.9 287.2 52.3 286.85 52.65 286.0 53.1 285.6 53.4 284.9 54.1 283.75 55.2 282.95 56.05 282.9 56.4 282.7 56.8 282.5 57.2 282.45 57.55 282.45 57.9 282.45 58.3 282.45 58.65 282.45 59.05 282.45 59.4 282.65 59.8 283.0 60.5 283.3 60.95 283.45 61.3 283.45 61.65 283.45 62.05 283.8 62.45 283.95 62.8 284.1 63.15 284.45 63.55 285.2 64.3 285.6 64.65 285.95 65.05 286.7 65.3 Q289.6 66.25 291.85 66.15 L291.55 66.6 291.4 66.9 291.2 67.3 290.85 67.65 290.45 68.05 290.1 68.4 289.95 68.8 289.85 69.15 289.1 69.9 287.6 71.4 286.85 72.15 285.95 72.55 285.6 72.9 285.2 73.3 284.85 73.65 284.2 73.9 283.85 74.2 283.45 74.55 282.7 74.8 281.95 75.05 275.85 75.05 275.2 74.8 274.35 74.5 273.7 74.3 273.6 74.15 273.3 73.95 272.8 73.6 272.2 73.3 272.1 73.15 271.8 72.95 271.3 72.6 270.7 72.3 Q269.5 70.85 267.85 70.05 L264.7 68.8 258.7 68.8 257.95 69.05 256.6 68.85 256.7 68.65 256.95 68.3 257.1 67.9 257.45 67.55 257.85 67.15 258.2 66.8 258.6 66.4 259.2 66.15 259.45 66.05 259.7 65.8 260.1 65.4 260.45 65.05 261.85 64.6 Q267.45 63.1 273.1 61.9 L273.8 61.15 274.95 60.05 275.7 59.3 275.85 58.9 275.95 58.55 276.35 58.15 276.7 57.8 Q276.85 57.15 277.15 56.65 L277.9 55.5 278.45 54.8 278.45 54.4 278.45 54.05 278.45 53.65 278.45 53.3 278.8 52.55 278.95 52.15 279.0 51.8 279.1 51.4 279.45 51.0 279.7 50.65 279.95 50.25 280.1 49.9 280.45 49.55 280.85 49.15 281.2 48.8 281.6 48.4 282.2 48.15 282.55 47.9 282.95 47.55 283.7 47.3 284.2 47.15 284.45 47.0 284.7 46.8 284.85 46.4 284.95 46.05 284.95 45.65 284.95 45.3 Q284.25 44.15 282.85 43.9 L279.6 43.15 279.3 42.95 278.2 42.25 277.85 42.05 277.35 41.65 Q276.5 40.4 275.25 39.5 273.45 38.15 271.2 37.8 L266.85 37.55 266.2 37.3 262.7 37.3 261.95 37.55 261.2 37.75 260.7 37.8 260.95 37.55 261.35 37.15 261.7 36.8 262.1 36.4 265.65 34.55 Q267.6 33.45 269.85 33.05 274.7 32.2 278.85 34.4 L279.6 35.15 280.7 36.3 281.45 37.05 282.2 37.3 282.35 37.4 282.6 37.65 282.95 38.05 283.85 38.4 284.2 38.8 284.6 39.15 284.95 39.55 285.7 39.8 285.85 39.9 286.1 40.15 286.45 40.55 287.2 40.8 287.35 40.9 287.6 41.15 287.95 41.55 288.7 41.75 M244.4 18.05 L244.4 17.65 244.35 17.3 244.15 16.9 245.25 17.05 Q247.45 18.35 249.3 20.15 L249.85 20.9 250.55 21.65 251.1 22.85 251.9 24.3 251.7 24.55 251.15 24.8 250.55 24.6 249.4 24.05 249.05 23.65 247.05 22.15 245.85 20.3 244.4 18.05 M247.05 62.4 Q246.05 63.25 244.75 63.5 L242.45 64.05 238.8 64.05 238.2 63.55 238.25 63.3 238.55 62.9 Q239.3 62.25 240.3 62.0 L242.3 61.55 242.55 61.5 246.05 61.65 246.5 61.95 247.15 62.35 247.05 62.4 M262.35 79.95 Q262.3 79.25 262.7 78.8 L262.85 78.75 263.7 78.85 264.45 79.05 264.7 79.3 265.45 80.05 266.7 80.8 267.0 81.5 267.35 81.9 267.7 82.3 268.85 83.4 268.95 83.8 269.1 84.15 269.85 84.9 272.45 87.55 273.2 87.85 273.45 88.05 271.35 88.05 Q267.85 88.3 265.2 86.3 L264.6 85.15 Q263.95 83.9 262.95 82.9 L262.75 81.8 262.45 81.05 262.35 79.95 M232.45 48.05 L232.55 47.95 233.45 48.05 233.75 48.35 233.3 49.15 Q231.0 50.45 231.3 49.15 L231.7 48.8 232.05 48.4 232.45 48.05 M228.15 26.15 Q228.55 25.85 228.6 26.65 L228.7 27.45 228.8 28.15 226.55 28.35 225.9 28.05 225.9 27.65 225.9 27.3 225.9 26.9 225.9 26.55 226.4 26.6 227.15 26.8 227.75 26.5 228.15 26.15 M222.45 45.05 L222.5 44.7 222.7 44.3 222.85 43.95 223.3 43.55 223.95 43.55 224.7 43.65 225.55 43.4 225.7 43.35 226.3 43.5 226.7 43.8 227.3 44.55 227.45 44.9 227.8 45.65 227.5 46.05 227.35 46.35 226.8 47.15 Q225.55 48.65 223.45 47.55 L223.2 47.25 222.95 46.9 222.8 46.55 222.45 45.8 222.45 45.4 222.45 45.05 M176.65 36.9 L176.55 36.55 176.7 36.15 176.95 35.85 177.5 35.35 177.8 35.05 178.2 35.15 178.65 35.8 178.95 36.55 178.95 36.9 178.9 37.3 178.8 37.65 178.45 37.85 177.05 37.65 176.65 36.9 M170.6 66.55 Q170.15 66.1 170.65 65.65 L170.9 65.6 Q171.95 65.75 172.25 66.65 L171.85 66.95 171.25 67.05 170.6 66.55 M214.4 67.3 Q214.15 66.35 215.1 66.1 L216.15 65.65 216.35 65.65 217.0 66.2 217.4 66.9 217.15 67.3 216.9 67.65 216.4 68.05 215.0 67.8 214.4 67.3 M221.35 79.45 L221.8 78.65 222.7 78.8 223.3 78.5 223.7 78.15 223.8 78.1 224.05 78.2 224.3 78.4 224.7 78.8 224.95 79.15 224.95 79.55 224.95 79.9 224.95 80.3 224.5 81.05 224.35 81.35 223.8 82.15 223.4 82.45 222.6 82.55 222.2 82.4 221.55 81.7 221.25 81.25 220.95 80.55 221.2 79.8 221.35 79.45" fill="#ffcc66" fill-rule="evenodd" stroke="none"/>
  </g>
</svg>
