<?xml version="1.0" encoding="UTF-8" standalone="no"?>
<svg xmlns:ffdec="https://www.free-decompiler.com/flash" xmlns:xlink="http://www.w3.org/1999/xlink" ffdec:objectType="shape" height="36.25px" width="35.75px" xmlns="http://www.w3.org/2000/svg">
  <g transform="matrix(1.0, 0.0, 0.0, 1.0, -267.8, -49.2)">
    <path d="M301.7 49.2 L302.55 49.45 303.05 49.85 303.3 50.2 303.45 50.6 303.55 50.95 303.55 52.45 303.55 55.1 303.55 55.45 303.4 55.8 303.2 56.2 303.05 56.6 303.05 56.95 303.1 57.6 303.05 59.45 303.05 59.6 303.05 59.85 303.05 60.2 303.05 60.6 303.2 60.95 303.3 61.35 303.55 62.1 303.55 63.95 303.55 66.6 303.55 66.95 303.4 67.3 303.2 67.7 303.05 68.1 303.05 68.45 303.05 68.85 301.65 71.85 Q300.8 73.45 300.2 75.2 L297.3 78.6 295.05 80.7 Q290.0 82.95 285.65 79.7 L285.4 78.95 285.35 77.9 285.3 77.85 285.0 77.45 284.65 76.7 284.3 75.95 284.3 74.85 284.35 72.95 284.4 72.2 284.8 71.85 285.3 71.45 286.15 71.3 286.15 71.2 287.05 71.45 287.55 71.85 287.75 72.2 287.9 72.6 288.05 72.95 288.05 73.35 288.05 73.7 288.05 74.45 288.1 74.8 288.35 75.6 288.55 76.35 288.75 76.75 288.9 77.1 289.55 77.45 289.8 77.45 289.7 76.85 289.95 74.95 290.05 74.6 290.45 74.25 290.8 73.95 291.05 73.85 291.65 73.8 291.65 73.7 291.8 73.75 291.8 73.45 291.85 73.1 291.9 72.7 292.85 72.05 Q293.55 71.65 294.3 71.35 L295.35 70.15 296.4 68.7 296.8 68.45 297.05 68.35 297.8 68.1 297.95 67.75 298.3 67.35 298.3 67.2 298.3 66.45 298.3 65.7 298.45 65.35 298.65 64.95 298.8 64.6 298.8 63.1 298.8 60.85 298.8 60.6 298.8 60.1 298.8 59.45 298.85 57.8 298.35 57.05 298.3 56.7 298.35 56.35 298.45 55.95 298.6 55.6 298.95 55.2 299.3 54.95 299.55 54.9 299.6 54.9 299.65 54.8 299.8 54.45 299.8 52.95 299.85 50.7 299.95 50.35 300.2 49.95 300.6 49.6 301.05 49.35 301.65 49.25 301.7 49.2 M267.95 84.45 L267.8 84.1 267.8 83.7 267.85 83.35 Q267.9 82.95 268.1 82.6 L268.4 82.2 268.8 81.95 269.05 81.9 269.65 81.8 269.65 81.7 270.15 81.75 271.05 81.95 271.55 82.35 271.75 82.75 271.9 83.1 272.0 83.85 271.9 84.2 271.65 84.6 271.4 84.95 271.05 85.2 270.8 85.3 270.15 85.45 269.7 85.4 268.8 85.2 268.3 84.8 267.95 84.45 M294.15 75.95 L293.55 75.8 293.6 76.2 293.6 76.95 294.3 76.35 294.9 75.8 294.8 75.8 294.15 75.95" fill="#ff6600" fill-rule="evenodd" stroke="none"/>
  </g>
</svg>
