<?xml version="1.0" encoding="UTF-8" standalone="no"?>
<svg xmlns:ffdec="https://www.free-decompiler.com/flash" xmlns:xlink="http://www.w3.org/1999/xlink" ffdec:objectType="shape" height="54.25px" width="57.5px" xmlns="http://www.w3.org/2000/svg">
  <g transform="matrix(1.0, 0.0, 0.0, 1.0, 369.0, 56.5)">
    <path d="M-340.15 -52.25 Q-335.65 -53.55 -331.4 -55.45 L-329.25 -56.4 -328.5 -56.45 -328.5 -56.5 -327.05 -56.35 -325.4 -55.9 -325.05 -55.45 -324.85 -55.15 -324.65 -54.75 -324.5 -54.4 -324.5 -54.0 -324.5 -53.65 -324.5 -53.25 -324.5 -52.5 -324.35 -52.15 -324.2 -51.75 -323.85 -50.65 -323.5 -49.9 -323.5 -49.5 -323.5 -49.15 -323.5 -48.4 -323.5 -47.25 -323.3 -46.5 -322.6 -44.25 -322.0 -42.75 -322.0 -42.4 -322.0 -42.0 -322.0 -41.65 -321.65 -40.5 -320.5 -37.5 -320.0 -36.4 -320.0 -36.0 -320.0 -35.65 -320.0 -35.25 -319.95 -34.9 -319.8 -34.5 -319.65 -34.15 -319.5 -33.75 -319.5 -33.4 -319.5 -33.0 -319.0 -31.9 -317.8 -28.95 -317.5 -27.75 -317.5 -27.4 -317.5 -27.0 -317.55 -26.65 -317.65 -25.9 -317.6 -25.5 -317.55 -25.15 -317.5 -24.4 -317.5 -23.25 -317.45 -22.9 -317.3 -22.5 -317.15 -22.15 -317.0 -21.75 -315.9 -21.4 -315.35 -20.65 Q-314.65 -19.6 -314.3 -18.45 L-313.9 -16.9 -313.5 -16.5 -313.15 -16.15 -312.9 -15.75 -312.75 -15.4 -312.65 -15.0 -312.5 -14.65 -312.55 -14.25 -312.65 -13.9 -312.8 -13.5 -313.0 -13.15 -313.1 -13.0 -312.9 -12.9 -312.4 -12.15 -311.65 -10.65 -311.5 -10.25 -311.5 -9.9 -311.5 -9.5 -311.5 -8.75 -311.5 -8.4 -311.65 -8.0 -311.75 -7.65 -311.9 -7.25 Q-313.15 -5.45 -315.3 -4.75 -316.95 -4.25 -318.65 -4.75 L-319.1 -5.15 -319.6 -5.65 -320.15 -5.75 -320.6 -6.15 -321.0 -6.5 -321.4 -6.9 -322.1 -7.3 -322.6 -7.65 -323.0 -8.0 Q-324.2 -8.4 -325.6 -8.0 L-329.0 -7.25 -329.75 -6.9 -330.25 -6.65 -331.15 -6.4 -333.0 -5.25 Q-334.75 -4.5 -336.25 -3.4 L-336.75 -3.2 -338.5 -3.1 -339.65 -3.25 -340.1 -3.65 -340.5 -4.0 -341.25 -4.75 -341.4 -5.15 -341.5 -5.5 -341.9 -5.9 -342.25 -6.25 Q-354.55 -2.95 -367.65 -2.25 L-368.1 -2.65 -368.5 -3.0 -368.75 -3.4 -368.9 -3.75 -368.95 -4.15 -369.0 -4.5 -368.45 -6.8 -366.6 -11.3 -366.4 -12.0 -366.15 -12.4 Q-365.8 -12.95 -365.6 -13.55 L-364.65 -15.4 -364.25 -15.75 -363.9 -16.15 -363.5 -16.5 -363.4 -16.9 -363.25 -17.25 -363.0 -17.65 -362.65 -18.4 -362.25 -18.75 -361.9 -19.15 -361.5 -19.5 -361.4 -19.9 -361.25 -20.25 -360.95 -20.6 -363.65 -21.25 -364.1 -21.65 -364.5 -22.0 -364.75 -22.4 -364.9 -22.75 -365.0 -23.15 -365.0 -23.5 -365.0 -23.9 -365.0 -24.25 -365.0 -24.65 -364.85 -25.0 -364.55 -25.75 -364.0 -27.65 -363.9 -28.0 -362.4 -30.6 -359.5 -35.5 -359.15 -35.9 -358.75 -36.25 -358.55 -36.65 -358.35 -37.0 -358.15 -37.4 -357.75 -37.75 -357.4 -38.15 -356.65 -38.9 -356.4 -39.25 -356.25 -39.6 -356.0 -40.0 -355.65 -40.4 -355.25 -40.75 -354.5 -41.5 -354.4 -41.9 -354.25 -42.25 -353.45 -42.9 Q-351.9 -43.85 -350.75 -45.25 L-350.4 -45.65 Q-349.65 -46.0 -348.9 -46.45 -347.5 -47.35 -346.4 -48.65 L-345.1 -49.35 -342.15 -51.25 -340.9 -51.65 -340.5 -52.0 -340.15 -52.25 M-328.65 -48.5 L-328.75 -48.9 -328.9 -49.25 -329.15 -50.0 -333.9 -48.75 Q-338.35 -47.35 -342.6 -44.95 -343.6 -44.4 -344.25 -43.65 L-344.75 -43.0 Q-346.0 -41.85 -347.5 -41.0 L-347.9 -40.65 -348.3 -40.3 -349.5 -39.5 -349.9 -39.15 -350.25 -38.75 -351.0 -38.0 -351.25 -37.6 -351.4 -37.25 -351.65 -36.9 -352.0 -36.5 -352.35 -36.1 -352.85 -35.35 -353.0 -35.0 -353.4 -34.65 -353.75 -34.25 -354.15 -33.9 -354.3 -33.5 -354.5 -33.15 -355.15 -32.4 -355.5 -32.0 -356.4 -30.6 -358.25 -27.15 -358.65 -26.4 -358.6 -26.25 -357.55 -25.95 -357.25 -26.25 -356.9 -26.65 -356.15 -27.4 -355.9 -27.75 -355.55 -28.5 -354.85 -30.0 -354.65 -30.4 -351.35 -33.8 -350.45 -34.7 -347.4 -37.15 Q-343.2 -41.65 -337.8 -44.45 L-333.25 -46.4 -332.5 -46.45 -332.5 -46.5 -331.05 -46.35 -329.4 -45.9 -329.05 -45.5 -328.85 -45.15 -328.65 -44.75 -328.55 -44.6 -328.5 -44.4 -328.5 -44.0 -328.5 -43.65 -328.5 -43.25 -328.65 -42.9 -328.8 -42.5 -329.0 -42.15 -329.0 -41.75 -329.0 -41.4 -329.0 -40.65 -329.0 -39.5 -328.85 -39.15 -328.65 -38.75 -328.5 -38.4 -328.5 -38.0 -328.5 -37.65 -328.4 -37.25 -328.15 -36.5 -327.65 -35.0 -327.5 -34.65 -327.5 -34.25 -327.5 -33.9 -327.3 -33.5 -326.7 -32.4 Q-326.05 -31.35 -325.9 -30.15 L-325.65 -29.75 -325.35 -29.4 -325.0 -29.0 -324.65 -28.65 -323.15 -25.9 -323.0 -25.7 -323.0 -26.4 -323.0 -27.5 -323.25 -28.25 -324.0 -30.15 -324.5 -31.65 -324.5 -32.0 -324.5 -32.4 -324.75 -32.75 -324.9 -33.15 -325.0 -33.5 -325.0 -33.9 -325.0 -34.25 -325.45 -35.4 -326.35 -38.45 -327.0 -39.9 -327.0 -40.25 -327.0 -40.65 -327.0 -41.0 -327.05 -41.35 -327.2 -41.75 -327.7 -42.9 -328.0 -43.65 -328.0 -44.0 -328.0 -44.4 -328.25 -44.75 -328.4 -45.15 -328.5 -45.5 -328.5 -45.9 -328.5 -46.25 -328.5 -47.0 -328.5 -48.15 -328.65 -48.5 M-334.0 -37.9 L-334.0 -38.25 -334.0 -39.0 -334.0 -40.15 Q-336.35 -39.55 -338.7 -37.7 L-342.0 -35.5 -343.1 -34.35 Q-344.65 -32.6 -346.65 -31.4 L-347.0 -31.0 -347.25 -30.6 -347.4 -30.25 -347.65 -29.9 -348.4 -29.15 -350.25 -27.25 -350.65 -26.9 -350.8 -26.5 -351.4 -25.4 -352.5 -23.5 -352.9 -23.15 -353.25 -22.75 -353.65 -22.4 -354.05 -21.65 -355.35 -19.35 -356.15 -17.9 -356.5 -17.5 -356.9 -17.15 -357.65 -16.4 -358.0 -16.0 -359.05 -14.15 -361.2 -10.4 -361.5 -10.0 -361.5 -9.65 -361.5 -9.25 -361.65 -8.9 -361.8 -8.5 -362.0 -8.1 -362.15 -7.75 Q-352.2 -9.25 -342.5 -12.0 -341.3 -12.05 -340.3 -11.3 L-337.25 -9.0 -336.8 -9.3 -336.35 -9.55 -334.9 -10.15 Q-329.25 -13.4 -322.5 -14.0 L-322.0 -13.95 -321.05 -13.7 -320.4 -13.4 -320.05 -13.0 -319.85 -12.65 -319.65 -12.25 -319.4 -11.9 -319.0 -11.55 -317.8 -10.7 -317.55 -10.5 -317.15 -10.5 -317.05 -10.75 -317.0 -11.15 -317.0 -11.5 -316.9 -11.9 -316.7 -12.25 -316.4 -12.55 -316.85 -12.75 -318.65 -14.15 -318.85 -14.5 -318.95 -14.9 Q-318.95 -15.5 -319.25 -16.05 L-319.5 -16.75 -320.0 -16.95 -321.15 -17.25 -321.65 -17.65 -322.15 -18.0 -322.9 -18.4 -323.25 -18.75 -323.65 -19.15 -324.4 -19.9 -325.1 -20.3 -325.6 -20.65 -326.0 -21.0 -326.25 -21.4 -326.4 -21.75 -326.65 -22.15 -327.0 -22.5 -327.4 -22.9 -328.15 -23.65 -330.5 -28.2 Q-332.1 -31.0 -333.0 -34.15 L-333.0 -34.5 -333.0 -34.9 -333.25 -35.25 -333.35 -35.65 -333.7 -36.8 -334.0 -37.5 -334.0 -37.9" fill="#000000" fill-rule="evenodd" stroke="none"/>
    <path d="M-334.0 -37.9 L-334.0 -37.5 -333.7 -36.8 -333.35 -35.65 -333.25 -35.25 -333.0 -34.9 -333.0 -34.5 -333.0 -34.15 Q-332.1 -31.0 -330.5 -28.2 L-328.15 -23.65 -327.4 -22.9 -327.0 -22.5 -326.65 -22.15 -326.4 -21.75 -326.25 -21.4 -326.0 -21.0 -325.6 -20.65 -325.1 -20.3 -324.4 -19.9 -323.65 -19.15 -323.25 -18.75 -322.9 -18.4 -322.15 -18.0 -321.65 -17.65 -321.15 -17.25 -320.0 -16.95 -319.5 -16.75 -319.25 -16.05 Q-318.95 -15.5 -318.95 -14.9 L-318.85 -14.5 -318.65 -14.15 -316.85 -12.75 -316.4 -12.55 -316.7 -12.25 -316.9 -11.9 -317.0 -11.5 -317.0 -11.15 -317.05 -10.75 -317.15 -10.5 -317.55 -10.5 -317.8 -10.7 -319.0 -11.55 -319.4 -11.9 -319.65 -12.25 -319.85 -12.65 -320.05 -13.0 -320.4 -13.4 -321.05 -13.7 -322.0 -13.95 -322.5 -14.0 Q-329.25 -13.4 -334.9 -10.15 L-336.35 -9.55 -336.8 -9.3 -337.25 -9.0 -340.3 -11.3 Q-341.3 -12.05 -342.5 -12.0 -352.2 -9.25 -362.15 -7.75 L-362.0 -8.1 -361.8 -8.5 -361.65 -8.9 -361.5 -9.25 -361.5 -9.65 -361.5 -10.0 -361.2 -10.4 -359.05 -14.15 -358.0 -16.0 -357.65 -16.4 -356.9 -17.15 -356.5 -17.5 -356.15 -17.9 -355.35 -19.35 -354.05 -21.65 -353.65 -22.4 -353.25 -22.75 -352.9 -23.15 -352.5 -23.5 -351.4 -25.4 -350.8 -26.5 -350.65 -26.9 -350.25 -27.25 -348.4 -29.15 -347.65 -29.9 -347.4 -30.25 -347.25 -30.6 -347.0 -31.0 -346.65 -31.4 Q-344.65 -32.6 -343.1 -34.35 L-342.0 -35.5 -338.7 -37.7 Q-336.35 -39.55 -334.0 -40.15 L-334.0 -39.0 -334.0 -38.25 -334.0 -37.9 M-328.65 -48.5 L-328.5 -48.15 -328.5 -47.0 -328.5 -46.25 -328.5 -45.9 -328.5 -45.5 -328.4 -45.15 -328.25 -44.75 -328.0 -44.4 -328.0 -44.0 -328.0 -43.65 -327.7 -42.9 -327.2 -41.75 -327.05 -41.35 -327.0 -41.0 -327.0 -40.65 -327.0 -40.25 -327.0 -39.9 -326.35 -38.45 -325.45 -35.4 -325.0 -34.25 -325.0 -33.9 -325.0 -33.5 -324.9 -33.15 -324.75 -32.75 -324.5 -32.4 -324.5 -32.0 -324.5 -31.65 -324.0 -30.15 -323.25 -28.25 -323.0 -27.5 -323.0 -26.4 -323.0 -25.7 -323.15 -25.9 -324.65 -28.65 -325.0 -29.0 -325.35 -29.4 -325.65 -29.75 -325.9 -30.15 Q-326.05 -31.35 -326.7 -32.4 L-327.3 -33.5 -327.5 -33.9 -327.5 -34.25 -327.5 -34.65 -327.65 -35.0 -328.15 -36.5 -328.4 -37.25 -328.5 -37.65 -328.5 -38.0 -328.5 -38.4 -328.65 -38.75 -328.85 -39.15 -329.0 -39.5 -329.0 -40.65 -329.0 -41.4 -329.0 -41.75 -329.0 -42.15 -328.8 -42.5 -328.65 -42.9 -328.5 -43.25 -328.5 -43.65 -328.5 -44.0 -328.5 -44.4 -328.55 -44.6 -328.65 -44.75 -328.85 -45.15 -329.05 -45.5 -329.4 -45.9 -331.05 -46.35 -332.5 -46.5 -332.5 -46.45 -333.25 -46.4 -337.8 -44.45 Q-343.2 -41.65 -347.4 -37.15 L-350.45 -34.7 -351.35 -33.8 -354.65 -30.4 -354.85 -30.0 -355.55 -28.5 -355.9 -27.75 -356.15 -27.4 -356.9 -26.65 -357.25 -26.25 -357.55 -25.95 -358.6 -26.25 -358.65 -26.4 -358.25 -27.15 -356.4 -30.6 -355.5 -32.0 -355.15 -32.4 -354.5 -33.15 -354.3 -33.5 -354.15 -33.9 -353.75 -34.25 -353.4 -34.65 -353.0 -35.0 -352.85 -35.35 -352.35 -36.1 -352.0 -36.5 -351.65 -36.9 -351.4 -37.25 -351.25 -37.6 -351.0 -38.0 -350.25 -38.75 -349.9 -39.15 -349.5 -39.5 -348.3 -40.3 -347.9 -40.65 -347.5 -41.0 Q-346.0 -41.85 -344.75 -43.0 L-344.25 -43.65 Q-343.6 -44.4 -342.6 -44.95 -338.35 -47.35 -333.9 -48.75 L-329.15 -50.0 -328.9 -49.25 -328.75 -48.9 -328.65 -48.5" fill="#80a839" fill-rule="evenodd" stroke="none"/>
  </g>
</svg>
