<?xml version="1.0" encoding="UTF-8" standalone="no"?>
<svg xmlns:ffdec="https://www.free-decompiler.com/flash" xmlns:xlink="http://www.w3.org/1999/xlink" ffdec:objectType="shape" height="59.75px" width="90.5px" xmlns="http://www.w3.org/2000/svg">
  <g transform="matrix(1.0, 0.0, 0.0, 1.0, 414.0, 5.0)">
    <path d="M-376.9 -1.65 L-376.05 -2.05 -372.6 -3.6 Q-370.0 -4.6 -367.5 -5.0 L-355.05 -4.65 Q-350.7 -4.45 -347.0 -2.5 L-346.0 -2.25 -343.75 -1.4 -341.8 -0.2 -341.0 0.5 -340.3 0.9 -339.0 1.95 -337.45 3.2 -335.75 4.25 -335.5 4.6 -335.3 5.0 -335.15 5.35 -334.75 5.75 -334.05 6.5 -333.75 6.85 -333.3 7.25 -332.5 8.0 -332.35 8.35 -332.0 9.1 -331.8 9.5 -331.6 9.85 -331.05 10.65 -330.65 11.35 -330.5 11.5 Q-329.35 11.6 -328.5 12.45 L-327.0 14.0 -326.7 14.75 -326.25 15.8 Q-325.95 16.35 -326.0 17.0 L-325.65 17.4 -325.4 17.75 -325.25 18.1 -325.15 18.5 -325.0 18.85 -325.0 19.25 -325.0 19.6 -324.7 20.4 -324.4 21.05 -324.0 22.25 -324.0 22.6 -324.0 23.0 -324.0 23.75 -324.0 24.5 -323.85 24.85 -323.65 25.25 -323.5 25.6 -323.5 27.85 -323.5 31.25 -323.5 32.35 -323.85 33.1 -324.55 34.3 -325.0 35.0 Q-329.3 39.15 -334.65 41.55 L-336.0 42.05 -336.05 42.35 -336.15 42.75 -336.5 43.5 Q-342.8 45.15 -348.9 41.1 L-349.25 40.75 -350.0 40.0 -350.75 39.25 -350.9 38.9 -351.4 38.15 -352.15 37.35 -354.2 33.9 -356.15 29.85 -356.5 29.5 -356.75 29.1 -356.9 28.75 -357.0 28.35 -357.25 27.6 -357.3 27.4 Q-358.9 26.2 -360.65 25.25 L-364.45 25.5 Q-366.35 25.75 -368.0 26.75 L-369.35 28.95 -371.8 34.3 Q-373.1 37.4 -375.4 39.75 L-375.75 39.85 -376.25 40.0 -376.3 40.0 -376.5 40.35 -376.8 40.75 -377.15 41.1 -377.5 41.5 -377.75 41.9 -377.9 42.25 -378.15 42.6 -378.5 43.0 -378.85 43.4 -379.15 43.75 -379.35 44.15 -379.5 44.5 -379.9 44.85 -380.65 45.6 -381.35 46.4 Q-382.05 47.15 -383.0 47.5 L-383.75 48.25 Q-388.5 52.75 -394.8 54.3 -400.15 55.6 -404.75 53.1 L-405.5 52.95 -407.0 52.5 -408.15 52.25 -408.6 51.85 -409.0 51.5 -409.25 51.1 -409.4 50.75 -409.65 50.35 -410.0 50.0 -410.75 49.25 -411.15 48.85 -411.5 48.5 -412.25 47.75 -412.4 47.35 -412.55 47.0 -412.75 46.6 -412.9 46.25 -413.15 45.9 -413.75 45.1 -413.9 44.75 -414.0 44.35 -414.0 44.0 -414.0 43.25 -414.0 42.85 -414.0 42.5 -414.0 41.75 -414.0 40.6 -413.9 40.25 -413.75 39.85 -413.5 39.5 -413.15 39.1 -412.9 38.75 -412.75 38.4 -412.5 38.0 -412.15 37.6 -411.75 37.25 -411.4 36.85 -410.75 36.65 Q-405.8 35.65 -401.45 37.75 -401.05 37.95 -400.75 38.25 L-400.65 38.3 -392.75 37.75 -392.4 37.35 -392.0 37.0 -391.65 36.6 -391.25 36.25 -391.0 35.85 -389.55 33.7 Q-388.4 32.1 -387.65 30.3 L-386.15 26.1 -386.0 25.75 -386.0 25.35 -386.0 25.0 -385.9 24.6 -385.75 24.25 -385.5 23.85 -385.5 23.5 -385.5 23.1 -385.4 22.75 -385.25 22.35 -385.15 22.0 -385.0 21.6 -385.0 21.25 -385.0 20.5 -385.0 19.75 -385.0 18.6 -385.0 17.1 -384.9 16.75 -384.75 16.35 -384.65 16.0 -384.5 15.6 -384.5 15.25 -384.5 14.1 -384.5 13.0 -384.5 11.1 -384.5 9.6 -384.35 9.25 -383.9 8.1 -383.4 7.0 -382.7 5.1 -382.4 4.0 -382.1 3.65 -380.65 2.1 -378.4 -0.15 -376.9 -1.65 M-342.25 6.25 Q-343.45 4.85 -345.0 4.0 -347.95 2.4 -351.1 1.2 L-351.25 1.1 -356.2 0.45 Q-365.7 -1.7 -373.45 3.25 -375.45 4.5 -377.25 6.1 L-377.4 6.5 Q-377.45 7.15 -377.8 7.65 L-378.45 8.7 -379.15 10.25 -379.5 11.0 -379.5 11.35 -379.5 12.5 -379.5 13.6 -379.5 15.85 -379.5 17.35 -379.5 17.75 -379.65 18.1 -379.8 18.5 -380.0 18.85 -380.0 19.25 -380.0 20.0 -380.0 20.75 -380.0 21.85 -380.0 23.35 -380.15 23.75 -380.35 24.15 -380.5 24.5 -380.5 24.85 -380.5 25.25 -380.5 25.6 -380.65 26.0 -380.75 26.35 -380.9 26.75 -381.0 27.1 -381.15 27.5 -381.4 28.25 -381.5 28.6 -381.5 29.0 -381.5 29.35 -381.65 29.7 -382.4 31.25 -383.8 34.15 -385.25 36.9 -385.65 37.6 -386.0 38.0 -386.35 38.4 -386.65 38.75 -386.85 39.15 -387.0 39.5 -387.4 39.85 -388.15 40.6 -388.9 41.35 -390.15 42.5 -390.4 42.75 -390.75 42.85 -403.15 43.25 -403.6 42.85 -404.0 42.5 -404.4 42.1 -405.65 41.95 -408.65 42.1 -408.8 42.5 -408.6 43.2 -408.05 44.05 -407.5 45.1 -407.15 45.85 -406.75 46.25 -406.4 46.6 -406.0 47.0 -405.6 47.3 Q-400.1 50.15 -394.25 48.55 L-391.9 47.85 -391.5 47.5 -391.1 47.15 -390.6 46.75 -389.9 46.35 -389.5 46.0 -389.15 45.6 -388.75 45.25 -388.4 44.85 -387.65 44.45 -387.15 44.1 -386.75 43.75 -386.4 43.35 -385.65 42.95 -384.75 42.25 -384.4 41.85 -384.0 41.5 -383.65 41.1 -383.4 40.75 -383.25 40.4 -383.0 40.0 -382.65 39.6 -382.25 39.25 -382.05 38.85 -381.85 38.5 -381.65 38.1 -381.25 37.75 -380.9 37.35 -380.5 37.0 -380.4 36.6 -380.25 36.25 -379.9 35.85 -379.5 35.5 -379.35 35.1 -379.0 34.35 -378.85 34.0 -378.65 33.6 -378.3 32.85 -378.0 32.1 -378.0 31.75 -378.0 31.35 -377.85 31.0 -377.1 29.45 -376.05 27.15 -376.0 27.1 -376.0 30.25 -375.25 29.25 -375.1 28.85 -374.75 27.75 -373.9 26.2 -373.25 24.75 -372.9 24.35 -370.5 22.3 Q-368.35 20.8 -365.75 20.1 L-365.0 20.05 -365.0 20.0 Q-361.1 19.35 -357.65 21.0 L-357.15 21.25 -356.0 21.05 -356.0 21.0 -355.05 21.3 -354.4 21.6 -354.05 22.0 -353.85 22.35 -353.5 23.1 -353.5 23.35 -352.4 24.1 -352.0 24.5 -351.25 25.25 -350.9 25.6 -350.5 26.0 -349.8 26.4 -349.25 26.75 -349.0 27.1 -348.8 27.5 -348.65 27.85 -348.0 28.25 -347.4 28.6 -347.05 29.0 -346.6 29.75 -346.4 30.1 -345.9 30.85 -345.5 31.2 -344.9 31.6 -344.5 32.0 -343.7 32.7 -342.5 33.45 -341.9 33.75 -341.75 33.8 -332.4 34.1 -332.1 34.4 -331.85 34.15 -329.15 31.6 -328.9 31.25 -328.75 30.85 -328.65 30.5 -328.5 30.1 -328.5 29.35 -328.5 28.6 -328.5 27.85 -328.5 27.5 -328.55 27.15 -328.75 26.75 -328.9 26.35 -329.0 26.0 -329.0 25.6 -329.0 25.25 -329.0 24.85 -329.0 24.5 -329.05 24.15 -329.25 23.75 -329.4 23.35 -329.5 23.0 -329.5 22.6 -329.5 22.25 -330.0 21.3 -330.15 21.25 -330.6 20.85 -331.0 20.5 -331.4 20.1 -331.75 19.75 -331.9 19.35 -332.05 19.0 -332.25 18.6 -332.4 18.25 -332.65 17.85 -332.9 17.5 -333.0 17.1 -333.0 16.75 -333.2 16.4 -333.5 16.0 -333.75 15.6 -333.9 15.25 -334.15 14.85 -334.5 14.5 -334.9 14.1 -335.25 13.75 -335.65 13.35 -335.85 13.0 -336.05 12.65 -336.3 12.25 -336.6 11.85 -336.85 11.5 -337.25 10.75 -337.65 10.35 -338.0 10.0 -338.4 9.6 -338.75 9.25 -339.15 8.85 -339.35 8.5 -339.5 8.1 -339.8 7.8 -340.4 7.35 -341.0 7.0 -341.9 6.6 -342.25 6.25" fill="#000000" fill-rule="evenodd" stroke="none"/>
    <path d="M-342.25 6.25 L-341.9 6.6 -341.0 7.0 -340.4 7.35 -339.8 7.8 -339.5 8.1 -339.35 8.5 -339.15 8.85 -338.75 9.25 -338.4 9.6 -338.0 10.0 -337.65 10.35 -337.25 10.75 -336.85 11.5 -336.6 11.85 -336.3 12.25 -336.05 12.65 -335.85 13.0 -335.65 13.35 -335.25 13.75 -334.9 14.1 -334.5 14.5 -334.15 14.85 -333.9 15.25 -333.75 15.6 -333.5 16.0 -333.2 16.4 -333.0 16.75 -333.0 17.1 -332.9 17.5 -332.65 17.85 -332.4 18.25 -332.25 18.6 -332.05 19.0 -331.9 19.35 -331.75 19.75 -331.4 20.1 -331.0 20.5 -330.6 20.85 -330.15 21.25 -330.0 21.3 -329.5 22.25 -329.5 22.6 -329.5 23.0 -329.4 23.35 -329.25 23.75 -329.05 24.15 -329.0 24.5 -329.0 24.85 -329.0 25.25 -329.0 25.6 -329.0 26.0 -328.9 26.35 -328.75 26.75 -328.55 27.15 -328.5 27.5 -328.5 27.85 -328.5 28.6 -328.5 29.35 -328.5 30.1 -328.65 30.5 -328.75 30.85 -328.9 31.25 -329.15 31.6 -331.85 34.15 -332.1 34.4 -332.4 34.1 -341.75 33.8 -341.9 33.75 -342.5 33.45 -343.7 32.7 -344.5 32.0 -344.9 31.6 -345.5 31.2 -345.9 30.85 -346.4 30.1 -346.6 29.75 -347.05 29.0 -347.4 28.6 -348.0 28.25 -348.65 27.85 -348.8 27.5 -349.0 27.1 -349.25 26.75 -349.8 26.4 -350.5 26.0 -350.9 25.6 -351.25 25.25 -352.0 24.5 -352.4 24.1 -353.5 23.35 -353.5 23.1 -353.85 22.35 -354.05 22.0 -354.4 21.6 -355.05 21.3 -356.0 21.0 -356.0 21.05 -357.15 21.25 -357.65 21.0 Q-361.1 19.35 -365.0 20.0 L-365.0 20.05 -365.75 20.1 Q-368.35 20.8 -370.5 22.3 L-372.9 24.35 -373.25 24.75 -373.9 26.2 -374.75 27.75 -375.1 28.85 -375.25 29.25 -376.0 30.25 -376.0 27.1 -376.05 27.15 -377.1 29.45 -377.85 31.0 -378.0 31.35 -378.0 31.75 -378.0 32.1 -378.3 32.85 -378.65 33.6 -378.85 34.0 -379.0 34.35 -379.35 35.1 -379.5 35.5 -379.9 35.85 -380.25 36.25 -380.4 36.6 -380.5 37.0 -380.9 37.35 -381.25 37.75 -381.65 38.1 -381.85 38.5 -382.05 38.85 -382.25 39.25 -382.65 39.6 -383.0 40.0 -383.25 40.4 -383.4 40.75 -383.65 41.1 -384.0 41.5 -384.4 41.85 -384.75 42.25 -385.65 42.95 -386.4 43.35 -386.75 43.75 -387.15 44.1 -387.65 44.45 -388.4 44.85 -388.75 45.25 -389.15 45.6 -389.5 46.0 -389.9 46.35 -390.6 46.75 -391.1 47.15 -391.5 47.5 -391.9 47.85 -394.25 48.55 Q-400.1 50.15 -405.6 47.3 L-406.0 47.0 -406.4 46.6 -406.75 46.25 -407.15 45.85 -407.5 45.1 -408.05 44.05 -408.6 43.2 -408.8 42.5 -408.65 42.1 -405.65 41.95 -404.4 42.1 -404.0 42.5 -403.6 42.85 -403.15 43.25 -390.75 42.85 -390.4 42.75 -390.15 42.5 -388.9 41.35 -388.15 40.6 -387.4 39.85 -387.0 39.5 -386.85 39.15 -386.65 38.75 -386.35 38.4 -386.0 38.0 -385.65 37.6 -385.25 36.9 -383.8 34.15 -382.4 31.25 -381.65 29.7 -381.5 29.35 -381.5 29.0 -381.5 28.6 -381.4 28.25 -381.15 27.5 -381.0 27.1 -380.9 26.75 -380.75 26.35 -380.65 26.0 -380.5 25.6 -380.5 25.25 -380.5 24.85 -380.5 24.5 -380.35 24.15 -380.15 23.75 -380.0 23.35 -380.0 21.85 -380.0 20.75 -380.0 20.0 -380.0 19.25 -380.0 18.85 -379.8 18.5 -379.65 18.1 -379.5 17.75 -379.5 17.35 -379.5 15.85 -379.5 13.6 -379.5 12.5 -379.5 11.35 -379.5 11.0 -379.15 10.25 -378.45 8.7 -377.8 7.65 Q-377.45 7.15 -377.4 6.5 L-377.25 6.1 Q-375.45 4.5 -373.45 3.25 -365.7 -1.7 -356.2 0.45 L-351.25 1.1 -351.1 1.2 Q-347.95 2.4 -345.0 4.0 -343.45 4.85 -342.25 6.25" fill="#80a839" fill-rule="evenodd" stroke="none"/>
  </g>
</svg>
