<?xml version="1.0" encoding="UTF-8" standalone="no"?>
<svg xmlns:ffdec="https://www.free-decompiler.com/flash" xmlns:xlink="http://www.w3.org/1999/xlink" ffdec:objectType="shape" height="162.65px" width="557.5px" xmlns="http://www.w3.org/2000/svg">
  <g transform="matrix(1.0, 0.0, 0.0, 1.0, 255.2, 78.7)">
    <path d="M75.6 -64.85 Q81.85 -58.85 85.55 -52.0 L85.55 -52.05 Q89.15 -45.3 91.3 -36.15 95.7 -18.65 95.7 0.4 95.7 42.75 81.4 62.4 67.2 81.7 32.5 81.7 13.0 81.7 0.95 75.55 -11.0 69.4 -18.55 57.45 L-18.6 57.4 Q-24.2 48.85 -27.2 34.15 L-28.45 27.6 Q-28.55 27.0 -29.0 26.65 -29.45 26.25 -30.05 26.3 -30.65 26.35 -31.0 26.8 -31.4 27.2 -31.4 27.8 L-31.4 83.0 -72.8 83.0 -72.8 -20.85 Q-72.85 -21.4 -73.2 -21.85 -73.6 -22.3 -74.15 -22.35 L-75.2 -22.05 Q-85.9 -14.0 -95.8 -8.95 -104.25 -4.75 -116.3 -0.75 L-116.95 -0.3 -117.3 0.4 -117.2 1.2 -87.45 80.35 -135.25 80.35 -143.0 55.3 -143.5 54.55 Q-143.95 54.25 -144.4 54.25 L-199.85 54.25 Q-200.35 54.25 -200.75 54.55 L-201.3 55.35 -208.55 80.35 -255.2 80.35 -196.95 -74.65 -145.65 -74.65 -121.8 -11.1 Q-121.65 -10.6 -121.15 -10.3 L-120.15 -10.15 Q-119.6 -10.25 -119.25 -10.65 -118.9 -11.1 -118.9 -11.6 L-118.9 -32.75 Q-96.95 -40.0 -84.75 -50.05 -72.45 -60.1 -65.35 -74.75 L-31.4 -74.75 -31.4 -27.45 Q-31.4 -26.9 -31.0 -26.45 -30.65 -26.0 -30.05 -25.95 -29.45 -25.95 -29.0 -26.3 -28.55 -26.65 -28.45 -27.25 -24.85 -49.8 -14.6 -61.15 1.25 -78.7 33.75 -78.7 49.25 -78.7 59.4 -74.8 L59.45 -74.8 Q69.35 -71.0 75.6 -64.85 M49.6 -40.75 Q43.75 -52.55 32.25 -52.5 20.35 -52.55 15.15 -40.45 10.15 -29.4 10.15 0.95 10.15 31.7 15.6 42.9 21.35 54.85 32.35 54.8 39.75 54.8 45.1 49.8 L45.15 49.75 Q50.25 44.7 52.8 34.1 55.0 23.85 55.0 2.15 55.0 -29.75 49.6 -40.7 L49.6 -40.75 M298.45 41.55 Q302.3 45.7 302.3 54.65 L302.3 82.85 287.05 82.85 287.05 57.4 Q287.05 53.5 285.5 51.7 L285.55 51.75 Q283.2 48.65 279.75 48.7 275.9 48.7 273.5 51.55 271.15 54.1 271.2 59.9 L271.2 82.85 256.05 82.85 256.05 58.3 Q256.0 54.85 255.55 53.65 254.85 51.35 253.05 50.05 L253.1 50.05 Q251.25 48.6 248.85 48.6 244.95 48.6 242.5 51.5 240.15 54.1 240.15 60.2 L240.15 82.85 224.95 82.85 224.95 38.5 238.85 38.5 238.85 43.95 Q238.85 44.4 239.15 44.8 L239.85 45.35 240.75 45.4 241.5 44.9 Q244.95 40.85 248.45 39.1 251.85 37.45 256.75 37.45 261.9 37.45 265.0 39.25 267.9 41.05 269.8 44.65 L270.5 45.3 271.4 45.4 272.25 44.95 Q276.25 40.55 279.55 39.0 282.8 37.45 287.6 37.45 294.5 37.45 298.4 41.55 L298.45 41.55 M192.55 37.45 Q205.95 37.45 212.85 45.2 218.3 51.4 218.3 60.55 218.3 70.8 211.55 77.4 204.65 83.95 192.55 83.95 181.7 83.95 175.05 78.5 166.9 71.75 166.95 60.85 166.9 50.65 173.8 44.05 180.75 37.45 192.55 37.45 M200.2 50.5 Q197.2 46.9 192.75 46.9 188.1 46.9 185.05 50.55 182.15 53.9 182.15 60.8 182.15 67.75 185.05 71.1 188.05 74.65 192.6 74.65 197.25 74.65 200.25 71.15 203.1 67.85 203.1 60.6 203.1 53.75 200.2 50.5 M154.3 41.3 Q159.25 44.75 161.65 51.0 L147.65 52.85 Q146.6 50.2 144.55 48.75 L144.6 48.75 Q142.1 46.85 138.0 46.85 132.75 46.85 129.55 50.65 L129.6 50.65 Q126.4 54.15 126.4 61.35 126.4 67.85 129.55 71.25 132.75 74.75 137.7 74.75 141.8 74.75 144.65 72.6 147.0 70.85 148.35 67.45 L162.65 69.05 Q161.3 73.1 158.75 76.15 155.7 79.85 151.0 81.9 146.15 83.95 138.75 83.95 131.4 83.95 126.6 82.6 121.95 81.25 118.6 78.4 L118.55 78.35 Q115.2 75.35 113.3 71.45 L113.3 71.4 Q111.35 67.4 111.35 60.9 111.35 54.0 113.7 49.45 115.35 46.1 118.35 43.45 121.25 40.8 124.45 39.55 L124.45 39.5 Q129.5 37.45 137.45 37.45 148.45 37.45 154.3 41.35 L154.3 41.3 M106.15 82.85 L89.75 82.85 89.75 67.7 106.15 67.7 106.15 82.85 M-173.3 -35.65 L-190.7 21.15 -190.7 22.1 -190.15 22.85 -189.25 23.1 -154.55 23.1 -153.65 22.85 -153.1 22.1 -153.1 21.15 -170.45 -35.65 -171.0 -36.4 -171.9 -36.7 -172.8 -36.4 -173.3 -35.65" fill="url(#gradient0)" fill-rule="evenodd" stroke="none"/>
  </g>
  <defs>
    <radialGradient cx="0" cy="0" gradientTransform="matrix(0.6819, 0.0, 0.0, 0.6819, 480.25, 82.05)" gradientUnits="userSpaceOnUse" id="gradient0" r="819.2" spreadMethod="pad">
      <stop offset="0.0" stop-color="#333333"/>
      <stop offset="0.06274509803921569" stop-color="#666666"/>
    </radialGradient>
  </defs>
</svg>
