<?xml version="1.0" encoding="UTF-8" standalone="no"?>
<svg xmlns:ffdec="https://www.free-decompiler.com/flash" xmlns:xlink="http://www.w3.org/1999/xlink" ffdec:objectType="shape" height="97.55px" width="108.5px" xmlns="http://www.w3.org/2000/svg">
  <g transform="matrix(1.0, 0.0, 0.0, 1.0, -204.95, 4.75)">
    <path d="M207.2 -4.25 L207.45 -4.45 207.7 -4.6 208.2 -4.75 209.2 -4.75 209.8 -4.45 210.3 -4.1 210.8 -3.35 211.55 -1.85 211.95 -1.1 211.95 -0.75 211.95 0.0 211.9 1.15 211.8 1.5 211.2 2.3 209.7 3.25 207.7 3.25 206.95 2.95 206.65 2.8 205.95 2.5 205.6 2.1 205.45 1.75 205.25 1.45 204.95 1.0 204.95 0.65 204.95 -0.1 204.95 -1.25 204.95 -1.6 205.0 -1.95 205.25 -2.4 205.45 -2.75 205.55 -3.1 205.95 -3.4 206.8 -3.85 207.2 -4.25 M208.3 -1.5 L207.85 -1.05 207.7 -0.75 207.65 -0.35 207.8 0.05 207.95 0.4 209.3 0.35 209.45 0.15 209.3 -1.15 Q209.1 -1.6 208.55 -1.55 L208.3 -1.5 M302.3 33.25 Q303.3 32.45 303.85 31.35 L304.35 30.3 304.35 28.8 304.35 26.15 304.35 24.9 304.7 24.8 305.2 24.85 305.8 25.05 306.35 25.4 306.8 26.15 307.25 26.9 307.45 27.3 307.45 27.65 307.45 28.05 307.95 28.8 308.3 29.55 308.45 29.9 308.45 30.3 308.45 30.65 308.5 31.0 308.7 31.4 308.95 31.8 308.95 32.15 308.95 32.55 308.95 32.9 308.95 33.65 309.0 34.0 309.2 34.4 309.45 34.8 309.45 37.05 309.45 39.65 309.45 40.05 309.35 40.4 309.2 40.75 309.0 41.2 308.95 41.55 308.95 41.9 308.9 42.25 308.7 42.65 308.45 43.05 308.45 43.4 308.45 43.8 308.45 44.15 308.1 44.9 307.55 46.1 307.2 46.8 306.85 47.15 306.45 47.55 306.35 47.9 306.2 48.3 304.75 49.8 303.1 50.9 302.3 51.6 301.1 52.4 300.7 52.8 300.45 53.05 300.2 53.15 299.6 53.4 299.2 53.8 298.95 54.05 298.7 54.15 298.1 54.4 297.35 55.15 296.2 56.3 296.0 56.65 295.8 57.0 295.6 57.4 295.45 57.8 295.45 58.15 295.45 58.55 295.5 58.9 295.7 59.3 299.85 59.2 300.85 58.65 300.95 58.3 301.1 57.9 301.45 57.55 301.85 57.15 302.1 56.4 302.5 55.65 302.95 54.9 302.95 54.55 303.0 54.2 303.25 53.8 303.45 53.55 304.15 53.5 305.2 53.9 305.55 55.7 305.85 55.95 306.2 56.3 306.35 56.65 306.45 57.05 306.45 57.4 306.45 58.15 306.5 58.5 306.7 58.9 306.95 59.3 306.95 59.65 306.95 60.05 307.2 60.4 307.45 60.8 307.45 61.9 307.45 63.4 307.45 64.9 307.45 66.4 307.4 66.75 307.2 67.15 306.95 67.55 306.95 67.9 306.95 68.15 306.95 68.3 306.95 68.9 306.9 69.25 306.7 69.65 306.45 70.05 306.45 70.4 306.45 70.8 306.2 71.15 305.95 71.55 305.95 71.9 305.95 72.3 305.4 73.0 304.45 74.05 303.6 74.45 302.2 75.15 301.8 75.1 301.7 75.15 301.35 75.55 300.95 75.9 300.85 76.3 300.7 76.65 300.7 76.7 299.15 77.55 Q296.55 78.75 293.7 79.3 L289.7 79.3 288.7 78.8 287.95 78.5 286.95 78.05 286.6 77.65 286.2 77.3 285.85 76.9 284.95 76.55 284.6 76.15 284.2 75.8 283.85 75.4 283.45 75.05 283.2 74.85 282.45 74.55 282.1 74.15 281.7 73.8 281.35 73.4 280.95 73.05 280.0 72.5 279.7 72.35 277.95 71.55 277.6 71.15 277.35 70.9 276.45 70.5 275.15 69.9 Q274.1 69.4 272.95 69.05 L269.85 69.05 267.85 69.6 267.1 69.95 266.7 70.15 266.2 70.2 265.5 70.0 265.1 69.65 265.0 69.3 264.95 68.9 264.95 68.55 264.95 68.15 265.2 67.8 265.6 67.4 265.95 67.05 266.35 66.65 266.7 66.45 267.35 66.15 267.7 65.8 267.95 65.55 268.7 65.3 270.75 64.55 272.7 63.8 275.2 63.8 275.85 64.05 280.95 64.05 Q283.3 63.75 285.2 62.45 L287.2 60.8 287.5 60.05 287.75 59.65 288.1 58.9 288.45 58.15 288.45 57.8 288.45 57.4 288.45 57.05 288.45 56.65 288.45 56.3 288.6 55.9 288.8 55.5 288.95 55.15 288.95 54.8 288.95 54.4 289.05 54.05 289.3 53.65 289.45 53.3 289.45 52.9 289.45 52.55 289.75 51.8 289.95 51.4 290.3 50.65 290.6 49.9 290.95 49.55 291.35 49.15 291.45 48.8 291.6 48.4 289.2 47.75 288.45 47.55 288.1 47.15 287.85 46.9 287.7 46.8 286.95 46.55 286.6 46.15 286.35 45.9 286.2 45.8 285.45 45.55 285.1 45.15 284.85 44.9 284.7 44.8 283.95 44.55 283.2 43.8 282.45 43.05 281.35 41.9 280.45 41.55 280.1 41.15 279.85 40.9 279.7 40.8 278.95 40.55 278.6 40.15 278.2 39.8 277.85 39.4 277.45 39.05 Q275.95 38.25 274.25 37.7 L270.7 36.65 269.7 36.8 Q268.6 37.0 267.65 37.6 L266.45 38.3 266.4 38.65 266.3 39.0 266.1 39.4 265.95 39.75 265.9 40.0 265.7 40.8 265.45 41.0 265.4 41.25 265.2 41.65 264.8 42.0 264.2 42.3 263.5 41.95 263.1 41.65 263.0 41.3 262.95 40.9 262.95 40.55 262.95 39.8 262.95 39.4 263.3 38.65 263.45 38.35 263.45 38.3 263.45 37.65 263.45 37.3 263.85 36.55 264.2 35.8 264.45 35.4 264.45 35.05 264.45 34.65 264.7 34.3 264.9 33.9 264.95 33.55 265.35 33.15 265.7 32.8 265.9 32.4 265.95 32.05 266.35 31.65 266.7 31.3 266.95 31.05 267.2 30.9 267.85 30.65 268.2 30.3 268.6 29.9 268.95 29.55 Q270.15 28.9 271.45 28.45 L272.7 27.9 278.7 27.8 Q281.35 28.95 283.75 30.55 L285.2 31.8 Q286.65 32.25 287.7 33.3 L288.7 34.3 Q289.65 34.55 290.25 35.25 L291.2 36.3 291.8 36.55 292.2 36.75 292.85 37.05 297.95 37.05 299.7 36.2 300.85 35.65 301.95 33.8 302.15 33.4 302.3 33.25 M284.85 34.4 L283.95 34.0 282.95 33.55 282.6 33.15 282.2 32.8 281.85 32.4 280.95 32.05 280.6 31.65 280.35 31.4 279.45 31.0 278.45 30.55 273.85 30.55 Q272.65 30.9 271.6 31.4 L270.6 31.9 270.2 32.3 269.95 32.55 269.7 32.65 269.1 32.9 268.7 33.3 268.35 33.65 267.95 34.05 267.85 34.4 267.9 34.35 269.7 33.85 269.7 33.8 270.7 33.8 275.25 35.1 Q277.5 35.8 279.2 37.3 L279.8 37.55 280.3 37.9 280.7 38.3 281.1 38.65 281.8 39.05 282.3 39.4 282.6 39.65 282.7 39.8 283.8 40.45 284.6 41.15 285.6 42.15 285.7 42.25 286.3 42.55 286.8 42.95 287.6 43.65 288.3 44.05 288.8 44.4 289.2 44.8 289.45 45.05 296.2 45.3 296.8 45.6 297.2 45.9 297.45 46.3 297.45 46.65 297.3 47.0 297.1 47.4 296.7 47.65 296.1 47.9 295.35 48.65 294.6 49.4 293.45 50.55 293.35 50.9 293.2 51.3 292.85 51.65 292.45 52.05 292.45 52.4 292.45 52.8 292.2 53.15 291.95 53.55 291.95 53.9 291.95 54.3 291.95 54.65 291.6 55.4 291.5 55.8 291.3 56.5 290.95 57.3 290.95 57.65 290.95 58.05 290.95 58.4 290.95 59.15 290.95 59.55 290.65 60.25 290.15 61.45 289.45 62.55 288.7 63.3 288.5 63.7 288.3 64.05 288.1 64.4 286.15 65.55 Q284.4 66.55 282.35 66.65 L281.7 66.8 275.85 67.05 276.8 67.55 277.2 67.75 278.6 68.65 278.7 68.8 279.7 69.3 281.3 70.1 Q282.0 70.55 282.6 71.15 L283.3 71.55 283.8 71.95 284.1 72.15 284.2 72.3 285.3 73.0 286.45 74.05 287.6 75.15 288.3 75.55 288.8 75.95 289.1 76.15 289.7 76.3 290.35 76.55 292.95 76.55 296.3 75.55 297.95 75.05 298.35 74.7 298.7 74.4 299.35 74.15 299.7 73.8 299.95 73.55 300.2 73.4 300.85 73.15 301.2 72.8 301.6 72.4 301.95 72.05 302.35 71.65 302.6 70.95 303.05 70.2 303.6 69.1 Q303.7 68.65 303.95 68.3 L303.95 67.9 303.95 67.55 304.3 67.15 304.45 66.8 304.45 66.4 304.45 66.05 304.8 65.65 304.95 65.3 304.95 64.55 304.95 64.15 304.95 63.4 304.95 62.65 304.95 62.3 304.8 61.95 304.45 61.55 304.45 61.15 304.45 60.8 304.45 60.4 304.3 60.05 304.1 59.65 303.95 59.3 303.95 58.9 303.95 58.55 303.95 58.4 302.15 61.0 Q301.9 61.1 301.7 61.3 L301.45 61.55 299.7 62.25 297.7 62.8 296.7 62.8 295.2 62.3 294.45 62.05 293.7 61.3 292.95 60.55 292.95 59.05 292.95 56.8 292.95 56.4 293.05 56.05 293.3 55.65 293.45 55.3 293.6 54.9 295.1 53.4 296.45 52.05 297.35 51.65 298.35 51.15 298.7 50.8 299.1 50.4 299.45 50.05 300.35 49.65 300.7 49.3 301.1 48.9 301.45 48.55 302.35 48.15 303.1 47.4 304.2 46.3 304.5 45.55 304.95 44.75 305.1 44.4 305.45 44.05 305.85 43.65 305.95 43.3 305.95 42.9 305.95 42.55 306.0 42.2 306.2 41.8 306.45 41.4 306.45 41.05 306.45 40.65 306.45 40.3 306.45 39.9 306.55 39.55 306.8 39.15 306.95 38.8 306.95 38.05 306.95 36.9 306.95 35.8 306.8 35.45 306.45 35.05 306.45 34.65 306.45 34.3 306.45 33.9 306.45 33.55 306.4 33.15 306.2 32.8 305.95 32.4 305.95 32.05 305.95 31.65 305.95 31.3 305.8 30.95 305.5 30.6 305.45 33.05 Q304.85 34.9 303.55 36.35 L301.45 38.55 300.15 39.0 Q299.2 39.35 298.2 39.8 L292.7 39.8 290.5 39.0 289.45 38.55 288.7 37.8 287.95 37.05 287.7 36.85 286.95 36.55 285.85 35.4 284.85 34.4 M251.85 18.4 L252.2 18.8 252.7 19.9 253.35 21.45 253.45 22.15 253.3 22.5 252.65 23.25 252.2 23.65 249.2 23.8 248.45 23.55 248.05 23.15 247.8 22.9 247.7 22.8 246.95 22.55 246.2 21.8 245.45 21.05 245.05 20.65 244.95 20.25 244.75 19.55 244.45 18.8 244.45 18.4 244.45 17.65 244.45 16.55 244.8 16.15 245.5 15.65 246.2 15.3 247.2 15.3 247.7 15.3 248.3 15.55 248.8 15.9 249.05 16.15 249.2 16.3 249.8 16.55 250.2 16.9 250.45 17.3 251.05 17.7 251.85 18.4 M247.2 18.35 L247.2 18.4 247.4 18.8 247.45 19.15 248.2 19.9 248.45 20.3 249.05 20.7 249.45 21.05 250.3 21.05 249.35 20.0 248.2 18.8 247.8 18.5 247.2 18.35 M247.15 60.3 L247.5 61.0 247.95 61.8 247.95 62.15 247.95 62.9 247.9 63.65 247.8 64.05 247.2 64.8 246.1 65.9 245.45 66.55 245.2 66.65 244.6 66.95 244.2 67.15 243.7 67.25 241.2 67.3 240.5 67.0 240.05 66.65 239.75 66.25 239.3 65.55 238.95 64.8 238.95 64.4 238.95 64.05 238.95 63.65 238.95 63.3 238.95 62.9 239.25 62.15 239.75 61.0 Q240.0 60.35 240.55 59.9 L241.0 59.6 Q241.55 59.2 242.2 58.95 L242.7 58.8 244.2 58.8 244.7 58.8 245.3 59.05 246.3 59.55 246.8 59.9 247.15 60.3 M245.0 63.05 L245.0 62.65 244.95 62.3 244.95 62.05 244.25 61.75 242.95 61.55 242.55 61.9 242.2 62.3 241.95 62.65 241.6 63.4 241.45 63.8 242.05 64.3 243.45 64.55 244.65 63.75 244.95 63.4 245.0 63.05 M277.95 85.55 L278.7 85.3 279.75 84.9 279.95 84.65 279.95 84.3 280.15 83.95 280.5 83.6 281.2 83.3 282.2 83.3 282.8 83.6 283.2 83.95 283.45 84.3 283.45 84.65 283.45 85.05 283.35 85.4 283.15 85.75 282.85 86.15 282.45 86.55 282.35 86.9 282.2 87.3 281.45 88.05 281.1 88.4 279.6 89.9 278.95 90.55 278.7 90.65 278.1 90.9 277.7 91.3 277.45 91.55 276.7 91.8 275.85 92.05 273.2 92.8 272.2 92.8 269.7 92.25 268.95 92.05 267.45 91.55 267.1 91.15 266.7 90.8 266.35 90.4 265.2 89.3 265.0 88.9 264.8 88.55 264.6 88.15 264.45 87.8 264.45 87.4 264.45 87.05 264.45 86.65 264.45 85.9 264.45 85.15 264.45 84.8 264.6 84.45 264.95 84.05 265.3 83.65 Q265.7 83.2 266.2 82.95 L266.7 82.8 268.2 82.8 Q270.3 83.2 272.2 83.85 L276.35 85.55 277.95 85.55 M267.2 85.8 Q266.65 86.55 267.3 87.4 L268.1 88.65 Q270.1 89.55 272.35 90.05 L272.95 90.05 Q275.0 89.65 276.85 88.65 273.4 86.55 268.25 85.6 L267.2 85.8 M310.7 72.8 L311.3 73.1 311.85 73.45 312.2 73.8 312.3 74.15 312.55 74.85 312.95 76.05 312.95 76.4 312.95 76.8 312.95 77.15 313.0 77.5 313.2 77.9 313.4 78.3 313.45 78.65 313.45 79.05 313.3 79.4 313.0 80.2 312.95 80.55 312.95 80.9 312.9 81.25 312.7 81.65 312.45 82.05 312.45 82.4 312.45 82.8 312.2 83.15 311.95 83.55 311.95 83.9 311.95 84.3 311.7 84.65 311.5 85.05 311.35 85.4 311.2 85.8 310.85 86.15 310.45 86.55 310.1 86.9 309.95 87.3 309.7 87.65 309.45 88.05 309.05 88.4 308.45 88.8 308.2 89.15 307.85 89.55 305.65 90.45 303.2 91.3 297.7 91.3 296.95 91.05 295.45 90.55 295.15 90.15 294.95 89.8 294.85 89.4 294.45 89.05 294.1 88.65 294.0 88.3 293.9 87.95 293.6 87.15 293.45 86.8 293.45 86.4 293.45 85.65 293.45 84.55 293.5 84.2 293.7 83.8 293.9 83.4 293.95 83.05 295.1 81.9 296.95 80.05 301.1 79.8 301.35 80.05 301.75 80.4 302.2 80.8 302.95 81.0 303.7 81.15 304.45 81.05 304.95 80.9 305.35 80.65 305.85 80.3 307.55 79.65 308.6 79.05 308.8 78.65 309.75 76.4 310.35 74.9 310.35 74.15 310.25 72.8 310.7 72.8 M297.6 82.9 L296.75 84.55 295.95 85.55 296.2 86.7 296.7 87.8 Q297.95 89.25 300.2 88.3 L300.85 88.55 302.95 88.55 305.95 87.55 307.85 85.7 308.6 84.9 309.0 84.2 309.45 83.4 309.45 83.05 309.45 82.65 309.7 82.3 309.95 81.9 309.95 81.55 309.95 81.15 310.2 80.8 310.45 80.4 310.5 78.55 Q310.55 77.75 310.2 77.1 L309.95 77.05 Q309.65 78.05 309.0 78.85 L308.1 80.4 307.7 80.8 307.45 81.05 307.2 81.15 306.6 81.4 306.2 81.8 305.95 82.05 Q302.6 83.5 298.35 82.55 L297.6 82.9 M221.45 42.55 L222.5 41.35 Q223.2 40.45 224.2 40.35 L224.2 40.3 Q225.35 40.75 226.3 41.45 L227.95 43.3 227.95 44.05 227.9 44.8 227.8 45.55 227.55 45.9 227.2 46.3 226.95 46.55 226.7 46.65 226.1 46.95 225.7 47.15 223.2 47.3 222.5 46.95 222.05 46.65 221.7 46.25 221.5 45.9 221.45 45.55 221.45 44.8 221.45 44.05 221.45 42.9 221.45 42.55 M232.85 44.2 L233.2 43.95 233.7 43.8 234.3 44.05 234.8 44.4 235.25 45.2 235.95 46.3 235.95 46.65 235.95 47.05 235.95 47.8 235.95 48.15 235.5 48.8 234.75 50.0 234.55 50.4 233.7 50.65 232.2 50.8 231.2 50.25 230.05 49.65 229.5 48.85 228.95 47.8 228.95 47.4 228.95 47.05 228.95 46.65 229.2 46.3 229.55 45.9 229.95 45.55 232.35 44.75 232.45 44.55 232.85 44.2 M224.2 73.95 L224.7 73.8 225.75 74.5 226.55 75.15 227.0 75.9 227.55 76.7 227.8 77.05 227.9 77.8 227.95 78.55 227.95 79.3 227.7 79.65 227.45 80.05 227.05 80.4 226.7 80.65 226.1 80.95 225.7 81.15 225.2 81.25 223.7 81.3 222.2 80.75 221.05 80.15 220.7 79.8 220.5 79.4 220.45 79.05 220.45 78.3 220.45 77.55 220.45 76.8 220.6 76.45 220.95 76.05 221.7 75.4 222.7 75.25 223.35 74.95 223.45 74.65 223.7 74.3 223.95 74.05 224.2 73.95 M220.95 64.9 L220.95 65.3 220.95 65.65 220.95 66.05 220.95 66.4 220.65 67.15 220.45 67.55 220.3 67.9 220.2 68.3 Q219.95 68.5 219.65 68.65 L219.1 68.95 218.7 69.15 218.2 69.3 216.95 68.95 216.65 68.85 215.95 68.55 215.2 67.8 214.8 67.4 214.45 67.05 214.45 65.9 214.45 65.15 214.45 64.05 Q215.0 63.4 215.8 63.1 L216.2 62.95 216.7 62.8 217.7 62.85 218.2 62.85 219.2 62.8 219.8 63.05 220.4 63.8 220.6 64.15 220.8 64.55 220.95 64.9 M218.25 66.0 L218.45 65.65 218.3 65.4 218.2 65.35 217.7 65.35 217.55 65.4 216.95 65.8 217.95 66.15 218.25 66.0 M223.95 76.7 L223.95 76.8 223.35 77.6 223.05 78.15 223.2 78.25 223.8 78.55 225.3 78.15 224.8 77.4 224.15 76.7 223.95 76.7" fill="#ffcc00" fill-rule="evenodd" stroke="none"/>
    <path d="M208.3 -1.5 L208.55 -1.55 Q209.1 -1.6 209.3 -1.15 L209.45 0.15 209.3 0.35 207.95 0.4 207.8 0.05 207.65 -0.35 207.7 -0.75 207.85 -1.05 208.3 -1.5 M284.85 34.4 L285.85 35.4 286.95 36.55 287.7 36.85 287.95 37.05 288.7 37.8 289.45 38.55 290.5 39.0 292.7 39.8 298.2 39.8 Q299.2 39.35 300.15 39.0 L301.45 38.55 303.55 36.35 Q304.85 34.9 305.45 33.05 L305.5 30.6 305.8 30.95 305.95 31.3 305.95 31.65 305.95 32.05 305.95 32.4 306.2 32.8 306.4 33.15 306.45 33.55 306.45 33.9 306.45 34.3 306.45 34.65 306.45 35.05 306.8 35.45 306.95 35.8 306.95 36.9 306.95 38.05 306.95 38.8 306.8 39.15 306.55 39.55 306.45 39.9 306.45 40.3 306.45 40.65 306.45 41.05 306.45 41.4 306.2 41.8 306.0 42.2 305.95 42.55 305.95 42.9 305.95 43.3 305.85 43.65 305.45 44.05 305.1 44.4 304.95 44.75 304.5 45.55 304.2 46.3 303.1 47.4 302.35 48.15 301.45 48.55 301.1 48.9 300.7 49.3 300.35 49.65 299.45 50.05 299.1 50.4 298.7 50.8 298.35 51.15 297.35 51.65 296.45 52.05 295.1 53.4 293.6 54.9 293.45 55.3 293.3 55.65 293.05 56.05 292.95 56.4 292.95 56.8 292.95 59.05 292.95 60.55 293.7 61.3 294.45 62.05 295.2 62.3 296.7 62.8 297.7 62.8 299.7 62.25 301.45 61.55 301.7 61.3 Q301.9 61.1 302.15 61.0 L303.95 58.4 303.95 58.55 303.95 58.9 303.95 59.3 304.1 59.65 304.3 60.05 304.45 60.4 304.45 60.8 304.45 61.15 304.45 61.55 304.8 61.95 304.95 62.3 304.95 62.65 304.95 63.4 304.95 64.15 304.95 64.55 304.95 65.3 304.8 65.65 304.45 66.05 304.45 66.4 304.45 66.8 304.3 67.15 303.95 67.55 303.95 67.9 303.95 68.3 Q303.7 68.65 303.6 69.1 L303.05 70.2 302.6 70.95 302.35 71.65 301.95 72.05 301.6 72.4 301.2 72.8 300.85 73.15 300.2 73.4 299.95 73.55 299.7 73.8 299.35 74.15 298.7 74.4 298.35 74.7 297.95 75.05 296.3 75.55 292.95 76.55 290.35 76.55 289.7 76.3 289.1 76.15 288.8 75.95 288.3 75.55 287.6 75.15 286.45 74.05 285.3 73.0 284.2 72.3 284.1 72.15 283.8 71.95 283.3 71.55 282.6 71.15 Q282.0 70.55 281.3 70.1 L279.7 69.3 278.7 68.8 278.6 68.65 277.2 67.75 276.8 67.55 275.85 67.05 281.7 66.8 282.35 66.65 Q284.4 66.55 286.15 65.55 L288.1 64.4 288.3 64.05 288.5 63.7 288.7 63.3 289.45 62.55 290.15 61.45 290.65 60.25 290.95 59.55 290.95 59.15 290.95 58.4 290.95 58.05 290.95 57.65 290.95 57.3 291.3 56.5 291.5 55.8 291.6 55.4 291.95 54.65 291.95 54.3 291.95 53.9 291.95 53.55 292.2 53.15 292.45 52.8 292.45 52.4 292.45 52.05 292.85 51.65 293.2 51.3 293.35 50.9 293.45 50.55 294.6 49.4 295.35 48.65 296.1 47.9 296.7 47.65 297.1 47.4 297.3 47.0 297.45 46.65 297.45 46.3 297.2 45.9 296.8 45.6 296.2 45.3 289.45 45.05 289.2 44.8 288.8 44.4 288.3 44.05 287.6 43.65 286.8 42.95 286.3 42.55 285.7 42.25 285.6 42.15 284.6 41.15 283.8 40.45 282.7 39.8 282.6 39.65 282.3 39.4 281.8 39.05 281.1 38.65 280.7 38.3 280.3 37.9 279.8 37.55 279.2 37.3 Q277.5 35.8 275.25 35.1 L270.7 33.8 269.7 33.8 269.7 33.85 267.9 34.35 267.85 34.4 267.95 34.05 268.35 33.65 268.7 33.3 269.1 32.9 269.7 32.65 269.95 32.55 270.2 32.3 270.6 31.9 271.6 31.4 Q272.65 30.9 273.85 30.55 L278.45 30.55 279.45 31.0 280.35 31.4 280.6 31.65 280.95 32.05 281.85 32.4 282.2 32.8 282.6 33.15 282.95 33.55 283.95 34.0 284.85 34.4 M247.2 18.35 L247.8 18.5 248.2 18.8 249.35 20.0 250.3 21.05 249.45 21.05 249.05 20.7 248.45 20.3 248.2 19.9 247.45 19.15 247.4 18.8 247.2 18.4 247.2 18.35 M245.0 63.05 L244.95 63.4 244.65 63.75 243.45 64.55 242.05 64.3 241.45 63.8 241.6 63.4 241.95 62.65 242.2 62.3 242.55 61.9 242.95 61.55 244.25 61.75 244.95 62.05 244.95 62.3 245.0 62.65 245.0 63.05 M267.2 85.8 L268.25 85.6 Q273.4 86.55 276.85 88.65 275.0 89.65 272.95 90.05 L272.35 90.05 Q270.1 89.55 268.1 88.65 L267.3 87.4 Q266.65 86.55 267.2 85.8 M297.6 82.9 L298.35 82.55 Q302.6 83.5 305.95 82.05 L306.2 81.8 306.6 81.4 307.2 81.15 307.45 81.05 307.7 80.8 308.1 80.4 309.0 78.85 Q309.65 78.05 309.95 77.05 L310.2 77.1 Q310.55 77.75 310.5 78.55 L310.45 80.4 310.2 80.8 309.95 81.15 309.95 81.55 309.95 81.9 309.7 82.3 309.45 82.65 309.45 83.05 309.45 83.4 309.0 84.2 308.6 84.9 307.85 85.7 305.95 87.55 302.95 88.55 300.85 88.55 300.2 88.3 Q297.95 89.25 296.7 87.8 L296.2 86.7 295.95 85.55 296.75 84.55 297.6 82.9 M223.95 76.7 L224.15 76.7 224.8 77.4 225.3 78.15 223.8 78.55 223.2 78.25 223.05 78.15 223.35 77.6 223.95 76.8 223.95 76.7 M218.25 66.0 L217.95 66.15 216.95 65.8 217.55 65.4 217.7 65.35 218.2 65.35 218.3 65.4 218.45 65.65 218.25 66.0" fill="#ffcc66" fill-rule="evenodd" stroke="none"/>
  </g>
</svg>
