<?xml version="1.0" encoding="UTF-8" standalone="no"?>
<svg xmlns:ffdec="https://www.free-decompiler.com/flash" xmlns:xlink="http://www.w3.org/1999/xlink" ffdec:objectType="shape" height="10.7px" width="8.75px" xmlns="http://www.w3.org/2000/svg">
  <g transform="matrix(1.0, 0.0, 0.0, 1.0, -296.3, -75.2)">
    <path d="M301.7 76.0 L302.1 75.6 Q302.3 75.45 302.55 75.35 L303.15 75.3 303.2 75.2 304.05 75.45 304.55 75.85 304.8 76.25 304.95 76.6 305.05 76.95 305.05 77.7 305.05 78.85 305.05 79.6 304.95 79.95 304.8 80.35 304.55 81.1 304.55 81.45 304.55 81.85 304.4 82.2 304.1 83.0 303.95 83.7 303.65 84.1 303.0 84.8 302.55 85.2 Q299.95 86.3 297.3 85.7 L296.8 85.3 296.45 84.95 296.3 84.6 296.3 84.2 296.5 83.5 296.9 82.7 Q297.45 82.25 298.15 82.1 L300.2 81.6 300.5 80.85 301.05 79.35 301.3 78.6 301.3 78.2 301.25 77.45 Q301.2 76.9 301.45 76.35 L301.7 76.0" fill="#ff6600" fill-rule="evenodd" stroke="none"/>
  </g>
</svg>
