<?xml version="1.0" encoding="UTF-8" standalone="no"?>
<svg xmlns:ffdec="https://www.free-decompiler.com/flash" xmlns:xlink="http://www.w3.org/1999/xlink" ffdec:objectType="shape" height="79.5px" width="46.5px" xmlns="http://www.w3.org/2000/svg">
  <g transform="matrix(1.0, 0.0, 0.0, 1.0, -271.45, -14.3)">
    <path d="M304.7 15.8 L305.35 16.05 305.7 16.4 305.95 16.8 306.1 17.15 306.45 17.55 307.2 18.3 308.2 19.3 308.8 19.55 309.35 19.9 309.7 20.3 310.1 20.65 310.55 21.35 Q311.2 22.25 311.65 23.3 L312.45 24.8 312.45 25.15 312.45 25.55 312.7 25.9 312.95 26.3 312.95 26.65 312.95 27.05 313.2 27.4 313.4 27.8 313.45 28.15 313.45 28.55 313.5 28.9 313.7 29.3 313.85 29.65 313.95 30.05 313.95 30.4 313.95 30.8 313.95 31.15 313.95 31.55 314.0 31.9 314.2 32.3 314.35 32.65 314.45 33.05 314.45 33.4 314.45 33.8 314.45 34.15 314.45 34.9 314.45 35.65 314.3 36.0 314.1 36.4 313.95 36.8 313.95 37.15 313.95 37.55 313.65 38.25 313.05 39.4 Q312.55 40.3 312.2 41.3 L311.85 41.65 311.45 42.05 311.1 42.4 310.95 42.75 310.7 43.15 310.45 43.5 310.1 43.9 309.7 44.15 309.1 44.4 308.7 44.8 308.45 45.05 308.2 45.15 307.6 45.4 307.2 45.8 306.95 46.0 306.7 46.15 302.2 46.3 301.95 46.2 301.95 46.3 301.95 46.65 301.9 48.15 301.85 48.9 301.65 49.25 301.3 49.65 300.8 50.0 300.2 50.3 298.7 50.3 297.95 50.05 296.85 50.05 296.2 50.25 295.35 50.55 Q294.95 50.7 294.6 50.9 L294.2 51.3 293.95 51.55 293.7 51.65 293.1 51.95 292.45 52.3 292.2 52.65 291.7 53.8 290.95 55.65 290.6 56.4 290.2 56.6 289.7 56.8 289.1 56.95 288.8 57.05 288.55 56.05 288.2 56.3 287.5 55.95 287.1 55.65 286.75 55.25 286.5 54.9 286.45 54.55 286.45 52.3 286.45 49.65 286.45 49.3 286.8 48.5 286.85 48.45 286.85 47.65 287.2 47.3 287.6 46.9 287.8 46.5 287.95 46.15 288.25 45.8 288.95 45.05 290.45 43.55 291.35 43.15 292.2 42.85 293.7 42.3 296.2 42.3 296.85 42.5 298.8 43.15 299.7 43.8 299.8 43.85 299.15 42.8 298.45 41.3 298.45 40.9 298.45 40.55 298.45 39.8 298.45 39.4 298.3 39.05 298.1 38.65 297.95 38.3 297.95 37.9 297.95 37.55 Q297.95 36.9 298.35 36.3 L299.1 34.9 301.7 32.3 303.6 30.4 304.0 30.1 304.6 29.9 304.95 29.15 304.95 28.8 304.95 28.4 304.95 28.05 305.0 27.65 305.2 27.3 305.45 26.9 305.45 26.55 305.45 26.15 305.45 25.8 305.6 25.4 305.8 25.0 305.95 24.65 305.95 24.3 305.95 24.05 305.95 23.9 305.95 23.55 305.95 23.3 305.8 22.95 305.55 22.5 305.4 22.15 305.2 21.8 304.45 21.05 Q303.85 20.55 303.55 19.85 L303.45 19.55 303.55 19.35 303.5 19.25 303.45 18.9 303.5 18.55 303.5 18.15 303.35 17.9 302.45 17.55 Q300.7 16.95 299.15 16.05 L298.95 15.8 298.95 15.4 299.05 15.05 299.35 14.75 300.2 14.35 300.2 14.3 301.7 14.3 302.35 14.5 303.8 15.1 304.7 15.8 M308.45 24.55 L308.45 24.8 308.45 25.9 308.45 28.3 308.45 28.65 308.3 29.0 308.1 29.4 307.95 29.8 307.95 30.15 307.95 30.55 307.85 30.9 307.7 31.25 307.45 31.65 307.45 32.05 307.45 32.4 307.45 32.8 307.45 33.15 307.15 33.9 306.95 34.65 306.85 35.05 306.25 35.8 305.8 36.5 305.6 36.9 305.2 37.15 304.6 37.45 304.2 37.65 303.9 37.6 303.6 37.9 303.05 39.1 302.7 39.8 302.05 40.6 301.95 40.9 Q301.9 41.55 302.25 42.1 L302.7 42.85 303.3 43.15 303.6 43.3 305.45 43.55 306.35 43.15 307.1 42.4 307.45 42.05 308.7 41.3 310.2 38.95 Q310.5 38.4 310.95 37.9 L310.95 37.55 310.95 37.15 311.2 36.8 311.45 36.4 311.45 36.05 311.45 35.65 311.45 35.3 311.6 34.9 311.85 34.55 311.65 33.8 311.45 33.4 311.45 32.65 311.45 31.9 311.45 31.55 311.2 30.8 310.95 30.4 310.95 30.05 310.95 29.65 310.95 29.3 310.8 28.95 310.45 28.55 310.45 28.15 310.45 27.8 310.45 27.4 309.25 24.75 308.45 23.65 308.45 24.55 M301.4 36.6 L301.1 36.9 301.35 36.65 301.4 36.6 M288.9 28.3 L288.95 28.65 288.95 29.05 289.0 29.4 289.15 29.8 289.45 30.55 289.45 30.9 289.45 31.3 289.6 31.65 289.8 32.05 289.95 32.4 289.95 32.8 290.15 33.15 290.45 33.55 290.85 33.9 291.6 34.65 292.35 35.0 295.75 36.2 Q296.55 36.5 296.95 37.3 L296.95 37.65 296.8 38.0 296.6 38.4 296.2 38.65 295.6 38.9 295.2 39.3 294.95 39.5 294.7 39.65 294.2 39.75 289.2 39.8 288.45 39.55 287.0 39.0 285.95 38.55 285.6 38.15 285.35 37.9 285.2 37.8 284.45 37.55 284.1 37.15 282.95 36.05 281.45 34.55 281.45 34.15 281.45 33.05 281.45 31.55 281.45 30.4 281.3 30.05 280.65 28.45 279.8 27.05 279.2 26.3 278.8 25.95 277.95 25.55 276.85 25.55 276.2 25.8 274.7 25.8 273.95 25.55 273.35 25.55 272.7 25.8 272.0 25.45 271.6 25.15 271.5 24.75 271.45 24.4 271.45 24.05 271.45 23.65 271.7 23.3 272.1 22.9 272.45 22.55 273.3 22.15 274.75 21.45 Q275.6 21.0 276.2 20.8 L280.2 20.8 281.7 21.35 Q283.85 22.2 285.7 23.55 L287.7 25.3 287.85 25.65 288.0 26.0 288.2 26.4 288.45 26.8 288.45 27.15 288.45 27.55 288.7 27.9 288.9 28.3 M283.6 25.15 L283.35 24.9 281.45 24.0 280.35 23.9 280.75 24.25 281.35 24.55 283.05 27.15 283.95 29.05 283.95 30.9 283.95 32.8 284.3 33.55 284.45 33.9 284.6 34.15 285.8 34.95 286.6 35.65 Q287.8 36.45 289.2 36.8 L289.85 37.05 290.45 37.05 289.45 36.55 288.7 35.8 288.35 35.4 287.5 33.9 286.95 32.8 286.95 32.05 286.95 31.65 286.95 31.3 286.45 30.55 286.45 29.8 286.45 29.4 285.75 27.55 284.95 26.05 283.95 25.55 283.6 25.15 M291.3 46.65 L290.0 48.05 289.85 48.55 288.95 50.05 288.95 51.15 288.95 52.65 288.95 53.05 289.0 53.1 289.25 52.5 289.85 51.35 289.95 51.05 290.35 50.65 290.7 50.3 291.45 49.55 292.35 49.15 292.7 48.8 292.95 48.55 293.8 48.1 295.45 47.5 296.2 47.3 299.2 46.95 299.1 46.65 Q297.95 45.35 296.25 45.0 L294.35 45.05 293.7 45.25 292.45 45.55 291.3 46.65 M282.95 64.05 L283.7 63.8 285.3 63.15 285.7 62.9 286.2 62.85 288.7 62.8 290.7 63.2 291.45 63.35 291.45 63.3 291.45 62.55 291.7 61.8 292.0 61.05 292.45 60.3 292.45 59.9 292.45 59.55 293.2 58.8 294.35 57.65 294.7 57.45 295.35 57.15 295.7 56.8 296.0 56.55 296.2 56.4 297.25 56.7 297.95 57.3 297.95 57.65 297.95 58.05 297.85 58.4 297.65 58.75 297.35 59.15 296.95 59.55 296.85 59.9 296.7 60.3 296.45 60.65 296.45 61.4 296.45 62.55 296.45 63.3 296.85 64.05 297.2 64.8 297.45 65.55 298.6 66.65 299.95 68.05 303.7 68.25 304.95 68.05 305.7 67.3 306.85 66.15 307.15 64.95 307.8 63.5 307.95 63.15 307.95 62.8 307.95 62.4 308.05 62.1 308.3 61.65 308.45 61.3 308.45 60.9 308.45 60.55 308.45 60.15 308.45 59.8 308.3 59.45 307.95 59.05 307.95 58.65 307.95 58.3 307.95 57.9 307.65 57.15 307.45 56.4 307.35 56.05 306.75 55.25 306.3 54.55 306.1 54.15 306.0 54.05 303.85 54.05 303.2 54.3 302.2 54.3 301.5 53.95 301.15 53.65 300.95 53.3 300.95 52.9 301.05 52.55 301.35 52.15 301.7 51.95 302.35 51.65 302.75 51.45 303.2 51.3 306.2 51.3 306.3 51.3 306.7 51.3 308.15 51.85 Q309.95 52.7 311.25 54.25 L312.7 55.8 312.85 56.15 313.2 56.9 313.6 57.65 313.95 58.4 313.95 58.8 313.95 59.15 314.0 59.5 314.2 59.9 314.4 60.3 314.45 60.65 314.45 61.05 314.5 61.4 314.7 61.8 314.85 62.15 314.95 62.55 314.95 62.9 315.0 64.8 314.95 67.05 314.95 68.55 314.8 68.9 314.6 69.7 314.2 70.8 313.6 71.9 313.2 72.3 312.85 72.65 312.45 73.05 312.1 73.4 311.95 73.75 310.75 75.3 Q309.6 76.4 308.1 76.9 L307.7 77.3 307.35 77.65 306.8 78.0 306.2 78.3 303.2 78.3 302.45 78.1 298.45 77.55 298.1 77.15 297.85 76.9 297.2 76.75 296.5 76.5 296.2 76.35 295.45 76.05 295.1 75.65 294.7 75.3 294.35 74.9 293.45 74.55 293.1 74.15 292.85 73.9 292.7 73.8 292.0 73.5 291.7 73.35 290.95 73.05 290.6 72.65 290.35 72.4 289.7 72.25 289.0 72.0 288.7 71.85 287.95 71.55 286.85 71.55 286.1 71.95 284.65 72.5 Q283.7 72.75 283.1 73.4 L283.0 73.8 282.95 74.15 282.8 74.55 282.45 75.3 282.2 75.65 281.8 76.0 281.2 76.3 280.45 76.05 280.15 75.65 279.95 75.3 279.8 74.95 279.45 74.55 279.45 74.15 279.45 73.4 279.45 72.3 279.45 70.8 279.6 70.45 279.8 70.05 279.95 69.65 279.95 69.3 279.95 68.9 280.05 68.6 280.7 67.45 281.4 65.9 281.45 65.55 281.85 65.15 282.2 64.8 282.6 64.4 282.95 64.05 M282.7 70.35 L283.7 69.9 285.3 69.15 285.7 68.9 286.2 68.85 288.7 68.8 289.3 69.1 Q290.2 69.6 291.2 69.85 292.15 70.05 292.7 70.8 L293.35 71.05 294.3 71.6 Q295.0 72.05 295.6 72.65 L296.3 73.05 296.85 73.45 297.1 73.65 297.2 73.8 297.85 74.05 299.3 74.6 299.85 74.9 300.1 75.05 302.7 75.3 303.35 75.55 305.45 75.4 305.85 75.15 306.25 74.95 306.85 74.65 307.2 74.3 307.45 74.05 307.7 73.9 308.35 73.65 308.7 73.3 309.8 72.15 311.35 70.65 311.45 70.3 311.6 69.95 311.8 69.55 311.95 69.15 311.95 68.8 311.95 68.4 312.05 68.1 312.3 67.65 312.45 67.3 312.45 66.9 312.45 66.15 312.45 65.05 312.45 63.9 312.3 63.55 312.1 63.15 311.95 62.8 311.95 62.4 311.95 62.05 311.95 61.65 311.95 61.3 311.8 60.95 311.45 60.55 311.45 60.15 311.45 59.8 311.45 59.4 311.3 59.05 311.1 58.65 310.95 58.3 310.95 59.8 310.95 61.65 310.95 62.4 310.9 62.75 310.7 63.15 310.45 63.55 310.45 63.9 310.45 64.3 310.45 64.65 310.15 65.45 309.95 66.15 309.85 66.55 309.2 67.25 308.45 68.05 308.35 68.4 308.2 68.8 307.45 69.55 306.7 70.3 306.45 70.55 305.7 70.75 303.7 71.3 302.2 71.25 301.2 71.3 299.95 71.0 298.45 70.55 296.6 68.65 295.1 67.15 294.85 66.6 294.7 66.65 294.2 66.75 293.65 66.8 293.55 66.9 293.2 67.15 292.7 67.3 292.0 67.0 291.6 66.65 291.55 66.4 287.95 65.55 286.85 65.55 286.2 65.75 285.35 66.1 284.6 66.4 284.25 66.8 283.6 67.9 282.7 69.8 282.45 70.4 282.7 70.35 M280.0 84.65 L280.7 84.35 280.7 84.3 281.7 84.3 283.2 84.85 Q283.75 85.1 284.3 85.45 L284.7 85.8 284.9 86.55 284.95 87.65 284.95 89.55 284.85 89.9 284.7 90.3 284.5 90.7 284.3 91.05 284.1 91.4 283.35 92.15 282.6 92.95 281.7 93.65 281.2 93.75 279.7 93.8 278.95 93.55 278.6 93.15 278.2 92.8 277.85 92.4 277.45 92.05 277.45 91.3 277.45 90.55 277.45 89.4 277.45 89.05 277.5 88.7 277.7 88.3 277.95 87.9 277.95 87.55 277.95 87.15 278.2 86.8 278.4 86.4 278.45 86.05 278.85 85.65 279.2 85.3 279.6 84.9 280.0 84.65 M282.4 87.7 L282.35 87.4 281.7 87.35 280.95 87.4 280.6 88.65 279.95 89.65 279.95 90.05 279.95 90.4 279.95 90.8 279.95 91.05 280.9 90.9 281.35 90.65 Q282.0 90.25 282.1 89.6 282.2 89.15 282.45 88.8 L282.45 88.05 282.4 87.7 M310.95 58.3 L310.85 57.9 310.45 57.55 310.7 57.9 310.95 58.3 M300.7 86.35 L301.35 86.55 301.9 87.35 302.4 88.45 302.45 88.8 302.2 89.15 301.8 89.5 301.2 89.8 300.2 89.8 299.5 89.5 299.1 89.15 299.0 88.4 299.0 87.65 299.1 86.9 Q299.25 86.75 299.5 86.65 L300.2 86.35 300.2 86.3 300.7 86.35 M317.3 76.7 L317.75 77.4 317.95 77.8 317.95 79.3 317.95 81.55 317.95 82.3 317.8 82.65 317.6 83.05 317.5 83.4 317.45 83.8 316.4 85.25 315.2 87.15 314.8 87.5 314.1 87.95 313.7 88.15 313.2 88.25 312.2 88.3 311.45 88.05 310.7 87.3 309.95 86.55 309.95 86.15 309.95 85.8 309.95 85.4 309.8 85.05 309.6 84.65 309.45 84.3 309.45 83.9 309.45 83.55 309.45 83.15 309.45 82.4 309.55 82.1 309.8 81.65 309.95 81.3 309.95 80.9 309.95 80.55 310.3 80.15 310.45 79.8 310.45 79.4 310.45 79.05 310.8 78.65 310.95 78.3 311.1 77.9 311.85 77.15 312.95 76.05 314.45 75.55 315.2 75.3 315.7 75.35 316.3 75.6 316.85 75.9 317.3 76.7 M315.0 78.5 L314.6 78.4 313.95 78.8 313.7 79.15 313.45 79.55 313.1 79.9 312.8 81.5 311.95 83.3 312.3 84.05 312.5 84.8 312.6 85.15 312.95 85.2 313.45 85.0 313.85 84.65 313.95 84.3 314.1 83.9 314.45 83.55 314.85 83.15 314.95 82.8 315.25 82.05 315.45 81.65 315.55 80.2 Q315.65 79.15 315.0 78.5" fill="#ffcc00" fill-rule="evenodd" stroke="none"/>
    <path d="M301.4 36.6 L301.35 36.65 301.1 36.9 301.4 36.6 M308.45 24.55 L308.45 23.65 309.25 24.75 310.45 27.4 310.45 27.8 310.45 28.15 310.45 28.55 310.8 28.95 310.95 29.3 310.95 29.65 310.95 30.05 310.95 30.4 311.2 30.8 311.45 31.55 311.45 31.9 311.45 32.65 311.45 33.4 311.65 33.8 311.85 34.55 311.6 34.9 311.45 35.3 311.45 35.65 311.45 36.05 311.45 36.4 311.2 36.8 310.95 37.15 310.95 37.55 310.95 37.9 Q310.5 38.4 310.2 38.95 L308.7 41.3 307.45 42.05 307.1 42.4 306.35 43.15 305.45 43.55 303.6 43.3 303.3 43.15 302.7 42.85 302.25 42.1 Q301.9 41.55 301.95 40.9 L302.05 40.6 302.7 39.8 303.05 39.1 303.6 37.9 303.9 37.6 304.2 37.65 304.6 37.45 305.2 37.15 305.6 36.9 305.8 36.5 306.25 35.8 306.85 35.05 306.95 34.65 307.15 33.9 307.45 33.15 307.45 32.8 307.45 32.4 307.45 32.05 307.45 31.65 307.7 31.25 307.85 30.9 307.95 30.55 307.95 30.15 307.95 29.8 308.1 29.4 308.3 29.0 308.45 28.65 308.45 28.3 308.45 25.9 308.45 24.8 308.45 24.55 M291.3 46.65 L292.45 45.55 293.7 45.25 294.35 45.05 296.25 45.0 Q297.95 45.35 299.1 46.65 L299.2 46.95 296.2 47.3 295.45 47.5 293.8 48.1 292.95 48.55 292.7 48.8 292.35 49.15 291.45 49.55 290.7 50.3 290.35 50.65 289.95 51.05 289.85 51.35 289.25 52.5 289.0 53.1 288.95 53.05 288.95 52.65 288.95 51.15 288.95 50.05 289.85 48.55 290.0 48.05 291.3 46.65 M283.6 25.15 L283.95 25.55 284.95 26.05 285.75 27.55 286.45 29.4 286.45 29.8 286.45 30.55 286.95 31.3 286.95 31.65 286.95 32.05 286.95 32.8 287.5 33.9 288.35 35.4 288.7 35.8 289.45 36.55 290.45 37.05 289.85 37.05 289.2 36.8 Q287.8 36.45 286.6 35.65 L285.8 34.95 284.6 34.15 284.45 33.9 284.3 33.55 283.95 32.8 283.95 30.9 283.95 29.05 283.05 27.15 281.35 24.55 280.75 24.25 280.35 23.9 281.45 24.0 283.35 24.9 283.6 25.15 M282.7 70.35 L282.45 70.4 282.7 69.8 283.6 67.9 284.25 66.8 284.6 66.4 285.35 66.1 286.2 65.75 286.85 65.55 287.95 65.55 291.55 66.4 291.6 66.65 292.0 67.0 292.7 67.3 293.2 67.15 293.55 66.9 293.65 66.8 294.2 66.75 294.7 66.65 294.85 66.6 295.1 67.15 296.6 68.65 298.45 70.55 299.95 71.0 301.2 71.3 302.2 71.25 303.7 71.3 305.7 70.75 306.45 70.55 306.7 70.3 307.45 69.55 308.2 68.8 308.35 68.4 308.45 68.05 309.2 67.25 309.85 66.55 309.95 66.15 310.15 65.45 310.45 64.65 310.45 64.3 310.45 63.9 310.45 63.55 310.7 63.15 310.9 62.75 310.95 62.4 310.95 61.65 310.95 59.8 310.95 58.3 311.1 58.65 311.3 59.05 311.45 59.4 311.45 59.8 311.45 60.15 311.45 60.55 311.8 60.95 311.95 61.3 311.95 61.65 311.95 62.05 311.95 62.4 311.95 62.8 312.1 63.15 312.3 63.55 312.45 63.9 312.45 65.05 312.45 66.15 312.45 66.9 312.45 67.3 312.3 67.65 312.05 68.1 311.95 68.4 311.95 68.8 311.95 69.15 311.8 69.55 311.6 69.95 311.45 70.3 311.35 70.65 309.8 72.15 308.7 73.3 308.35 73.65 307.7 73.9 307.45 74.05 307.2 74.3 306.85 74.65 306.25 74.95 305.85 75.15 305.45 75.4 303.35 75.55 302.7 75.3 300.1 75.05 299.85 74.9 299.3 74.6 297.85 74.05 297.2 73.8 297.1 73.65 296.85 73.45 296.3 73.05 295.6 72.65 Q295.0 72.05 294.3 71.6 L293.35 71.05 292.7 70.8 Q292.15 70.05 291.2 69.85 290.2 69.6 289.3 69.1 L288.7 68.8 286.2 68.85 285.7 68.9 285.3 69.15 283.7 69.9 282.7 70.35 M282.4 87.7 L282.45 88.05 282.45 88.8 Q282.2 89.15 282.1 89.6 282.0 90.25 281.35 90.65 L280.9 90.9 279.95 91.05 279.95 90.8 279.95 90.4 279.95 90.05 279.95 89.65 280.6 88.65 280.95 87.4 281.7 87.35 282.35 87.4 282.4 87.7 M310.95 58.3 L310.7 57.9 310.45 57.55 310.85 57.9 310.95 58.3 M315.0 78.5 Q315.65 79.15 315.55 80.2 L315.45 81.65 315.25 82.05 314.95 82.8 314.85 83.15 314.45 83.55 314.1 83.9 313.95 84.3 313.85 84.65 313.45 85.0 312.95 85.2 312.6 85.15 312.5 84.8 312.3 84.05 311.95 83.3 312.8 81.5 313.1 79.9 313.45 79.55 313.7 79.15 313.95 78.8 314.6 78.4 315.0 78.5" fill="#ffcc66" fill-rule="evenodd" stroke="none"/>
  </g>
</svg>
