<?xml version="1.0" encoding="UTF-8" standalone="no"?>
<svg xmlns:ffdec="https://www.free-decompiler.com/flash" xmlns:xlink="http://www.w3.org/1999/xlink" ffdec:objectType="shape" height="80.0px" width="41.5px" xmlns="http://www.w3.org/2000/svg">
  <g transform="matrix(1.0, 0.0, 0.0, 1.0, -274.45, -12.8)">
    <path d="M303.95 16.65 Q303.55 15.7 302.5 15.45 301.4 15.2 300.95 14.3 L301.05 13.55 301.35 13.25 302.2 12.85 302.2 12.8 304.25 13.25 Q305.1 13.55 305.7 14.3 307.25 15.05 308.45 16.25 309.5 17.3 310.1 18.65 312.3 20.5 313.45 23.1 L315.35 28.05 315.45 28.4 315.45 31.05 315.45 33.65 315.45 35.15 315.1 35.9 314.7 36.65 314.2 37.8 313.3 38.5 312.6 38.9 312.2 39.3 311.95 39.5 311.7 39.65 307.7 39.8 307.0 39.45 306.6 39.15 306.0 38.4 305.8 38.05 305.2 37.3 305.0 36.9 304.95 36.55 304.95 36.15 304.7 35.8 304.45 35.4 304.45 34.3 304.5 32.4 304.45 30.9 304.55 30.55 304.8 30.15 304.95 29.8 304.95 29.4 304.95 29.05 305.3 28.65 305.45 28.3 305.45 27.9 305.45 27.55 305.8 27.15 305.95 26.8 305.95 26.05 305.95 25.3 305.95 24.15 305.95 23.8 306.1 23.4 306.3 23.0 306.45 22.65 306.45 22.3 306.3 21.95 305.95 21.55 305.95 21.15 305.95 20.8 305.8 20.45 305.45 20.05 305.1 19.65 304.75 18.95 304.55 18.5 304.2 17.8 303.95 17.4 303.95 17.05 303.95 16.65 M308.45 24.65 L308.45 26.15 308.45 27.65 308.3 28.0 308.1 28.4 307.95 28.8 307.95 29.15 307.95 29.55 307.5 30.7 306.95 31.8 306.95 32.9 306.95 34.05 307.55 35.5 308.1 36.65 310.45 37.05 311.35 36.65 312.5 34.8 312.95 33.65 313.0 31.8 312.95 29.9 312.8 29.55 312.6 29.15 312.45 28.8 312.45 28.4 312.45 28.05 311.35 25.45 310.85 23.9 310.45 23.55 310.1 23.15 309.95 22.8 309.85 22.4 309.05 21.7 308.95 21.65 308.95 22.4 308.95 23.15 308.95 23.55 308.85 23.9 308.7 24.25 308.45 24.65 M284.7 21.9 L284.95 22.3 285.1 22.65 285.45 23.05 285.85 23.4 286.2 23.8 286.35 24.15 286.45 24.55 286.85 24.9 287.2 25.3 287.6 25.65 287.95 26.4 288.3 27.15 288.45 27.55 288.5 29.4 288.45 31.65 288.45 32.4 289.05 33.2 289.5 33.9 289.7 34.3 290.1 34.65 290.45 35.05 290.7 35.3 291.3 35.6 291.7 35.9 291.95 36.3 291.95 36.65 291.95 37.05 291.85 37.4 291.7 37.8 291.45 38.0 291.2 38.15 290.6 38.45 290.2 38.65 289.7 38.75 288.7 38.8 286.95 38.05 285.45 37.55 285.1 37.15 284.85 36.9 284.7 36.8 283.95 36.55 283.2 35.8 282.45 35.05 282.1 34.65 281.95 34.3 281.8 33.95 281.45 33.55 281.45 31.3 281.45 28.65 281.45 27.55 281.5 27.15 281.7 26.8 281.95 26.4 281.95 26.05 281.95 25.65 281.95 25.3 281.8 24.95 281.45 24.55 281.45 24.15 281.45 23.8 281.3 23.45 281.0 23.0 280.7 22.65 279.75 22.25 278.9 21.75 278.9 21.8 278.95 22.15 278.95 22.55 278.95 22.9 278.95 23.3 278.7 23.65 278.45 24.0 278.05 24.4 277.7 24.65 275.7 24.8 275.0 24.45 274.6 24.15 274.5 23.4 274.45 22.65 274.55 21.15 274.7 20.8 274.95 20.55 275.2 20.45 275.7 20.35 275.7 20.3 276.8 20.55 278.3 21.1 278.45 21.2 278.55 20.55 278.85 19.85 282.5 20.95 284.35 21.55 284.7 21.9 M302.8 37.1 L303.6 37.65 304.8 38.15 305.6 38.65 305.7 38.8 306.35 39.05 306.9 39.8 307.3 40.55 307.45 40.9 307.45 41.3 307.45 41.65 307.45 42.05 307.3 42.4 307.0 43.15 306.8 43.5 306.6 43.9 306.2 44.15 305.6 44.45 305.2 44.65 304.7 44.75 303.2 44.8 302.5 44.5 301.45 44.05 301.1 43.65 300.35 42.9 299.95 42.55 299.95 41.4 299.95 40.3 299.95 38.8 Q300.2 38.1 300.8 37.6 301.2 37.2 301.75 36.95 L302.2 36.8 302.8 37.1 M284.45 26.65 L284.45 27.05 284.45 27.4 284.15 28.15 283.95 28.55 283.95 30.05 283.95 31.55 284.2 32.3 284.45 33.05 286.05 34.4 286.6 34.65 286.05 33.85 285.95 33.55 285.95 31.3 285.95 29.05 285.35 27.5 284.45 26.6 284.45 26.65 M288.3 47.65 L288.45 47.3 288.6 46.9 288.95 46.55 290.1 45.4 290.85 44.65 291.2 44.45 292.2 43.95 292.7 43.8 296.2 43.8 296.8 44.1 298.1 45.15 298.95 46.3 298.95 46.65 298.95 47.4 298.95 47.8 298.95 48.15 298.95 48.2 298.95 48.9 298.9 49.25 298.75 49.65 298.35 50.4 298.2 50.8 297.95 51.0 297.7 51.15 297.1 51.4 296.7 51.8 296.45 52.05 296.2 52.15 295.2 52.65 294.2 53.15 293.7 53.25 291.7 53.3 290.95 53.15 Q289.55 53.05 288.6 52.15 L288.25 51.75 288.0 51.4 287.95 51.05 287.95 50.65 287.95 49.9 287.95 49.15 287.95 48.4 288.05 48.05 288.3 47.65 M290.45 49.3 L290.65 49.85 Q291.15 50.3 291.85 50.55 L293.45 50.55 294.7 49.9 295.7 49.3 295.95 49.05 295.95 48.9 295.95 48.15 296.25 47.8 296.4 47.65 Q296.1 46.85 295.25 46.6 L293.35 46.55 292.6 46.9 291.6 47.4 291.15 48.15 290.65 48.95 290.45 49.3 M302.45 39.9 L302.45 40.3 302.45 40.65 302.45 41.05 303.2 41.8 303.45 42.05 304.45 41.9 304.85 41.65 304.3 40.95 303.95 40.55 302.95 40.05 302.45 39.85 302.45 39.9 M282.7 62.35 L284.7 61.85 284.7 61.8 287.2 61.8 287.8 62.05 289.8 63.15 289.95 63.25 289.95 62.3 289.95 61.9 290.05 61.6 290.3 61.15 290.45 60.8 290.45 60.4 290.45 60.05 290.45 59.65 290.75 59.3 291.1 58.9 291.45 58.55 292.2 58.35 292.2 58.3 293.25 58.65 294.2 59.3 Q294.6 60.2 294.55 61.15 L294.45 63.8 294.45 64.15 294.5 64.5 294.7 64.9 294.95 65.3 295.1 65.65 295.85 66.4 296.95 67.55 297.2 67.8 304.8 70.65 305.2 70.9 Q305.6 71.4 305.55 72.05 L305.4 73.55 305.35 73.9 304.75 74.6 303.2 75.65 296.7 75.8 296.0 75.5 295.7 75.35 294.95 75.05 293.85 73.9 292.35 72.4 292.05 72.0 291.9 71.7 291.7 71.3 291.35 70.9 290.95 70.55 290.95 70.15 290.95 69.8 290.8 69.45 290.45 69.05 290.45 68.7 289.95 68.55 287.95 68.05 285.85 68.05 285.1 68.4 284.7 68.8 284.45 69.05 284.2 69.15 283.6 69.4 283.2 69.8 282.85 70.15 282.45 70.55 282.5 70.9 282.65 71.65 282.95 72.4 282.95 72.8 282.9 73.55 282.7 74.3 282.45 74.5 282.2 74.65 281.7 74.8 280.95 74.55 280.7 74.15 280.2 72.9 280.05 72.65 279.1 72.15 Q278.85 71.45 278.9 70.65 L278.95 68.8 278.95 68.4 279.05 68.1 279.3 67.65 279.45 67.3 279.45 66.9 279.45 66.55 279.45 65.8 279.95 65.05 279.95 64.8 280.15 64.45 281.2 63.3 281.95 62.55 282.7 62.35 M282.75 65.8 L282.5 66.2 282.45 66.55 282.45 66.8 282.8 66.65 283.2 66.45 283.85 66.15 284.2 65.8 284.45 65.55 284.7 65.45 285.2 65.3 287.45 65.05 287.2 64.85 286.45 64.6 285.35 64.55 284.7 64.75 283.4 65.15 283.1 65.4 282.75 65.8 M281.75 86.0 L282.2 85.8 282.8 86.05 283.2 86.25 283.85 86.55 284.2 86.95 284.45 87.3 285.05 87.7 285.35 88.05 285.5 89.15 285.4 90.3 285.35 91.05 284.7 91.8 Q284.15 92.55 283.2 92.8 L281.7 92.8 280.95 92.55 280.2 91.8 279.45 91.05 279.45 90.3 279.45 89.55 279.45 88.8 279.6 88.45 279.8 88.05 280.0 87.7 280.2 87.3 280.95 86.55 281.75 86.0 M314.95 60.4 L314.95 61.55 314.95 63.8 314.95 65.3 314.7 65.65 314.1 66.4 312.8 67.5 312.2 67.8 309.7 67.8 309.0 67.5 308.7 67.35 307.95 67.05 307.65 66.65 307.45 66.3 307.3 65.95 306.65 64.8 306.45 64.4 306.45 64.05 306.45 63.65 306.2 63.3 305.95 62.9 305.95 62.55 305.95 62.15 305.7 61.8 305.45 61.4 305.45 61.05 305.45 60.65 305.45 60.3 305.45 59.9 305.3 59.55 305.1 59.15 304.95 58.8 304.5 58.0 304.2 57.3 303.8 56.95 Q303.3 56.6 302.7 56.35 L300.6 55.15 300.25 54.75 300.0 54.4 299.95 54.05 299.95 53.65 300.25 53.3 300.6 52.9 300.95 52.5 Q301.45 51.85 302.2 51.85 L302.2 51.8 305.7 51.8 306.35 51.95 Q307.7 52.05 308.8 52.65 309.6 53.05 310.2 53.8 L310.85 54.05 311.2 54.45 311.45 54.8 311.6 55.15 311.95 55.55 312.35 55.9 312.7 56.3 312.85 56.65 312.95 57.05 313.35 57.4 313.7 57.8 314.1 58.15 314.3 58.55 314.5 58.9 314.7 59.3 314.95 60.05 314.95 60.4 M304.95 54.55 L305.25 54.75 305.85 55.05 307.2 56.9 307.95 58.4 307.95 58.8 307.95 59.15 307.95 59.55 308.65 61.8 309.6 64.65 309.75 64.75 310.35 65.05 311.45 64.9 311.85 64.65 312.2 64.25 312.4 63.9 312.45 63.55 312.45 62.8 312.45 62.05 312.45 61.3 311.45 59.4 310.1 57.15 309.35 56.4 308.35 55.4 Q306.95 54.85 305.45 54.6 L304.95 54.55 M292.95 67.75 L292.95 67.8 293.5 68.9 293.95 70.05 296.25 72.25 297.35 73.05 301.95 73.05 302.6 72.65 297.2 70.8 296.45 70.55 296.1 70.15 295.85 69.9 295.7 69.8 294.95 69.55 293.5 68.0 Q293.25 67.7 292.95 67.75 M314.95 78.4 L315.25 78.8 315.55 79.2 315.85 79.55 315.9 79.9 315.95 80.65 315.95 81.4 315.65 82.15 315.2 83.3 314.95 83.5 314.1 83.95 313.7 84.15 311.7 84.3 310.95 84.05 310.2 83.3 309.45 82.55 309.45 81.8 309.45 80.65 309.45 80.3 309.6 79.95 310.0 79.2 310.2 78.8 310.95 78.05 311.95 77.05 312.85 76.65 313.7 76.3 314.3 76.6 314.95 77.3 314.95 77.65 314.95 78.05 314.95 78.4 M312.7 80.15 L312.35 80.95 312.6 81.55 313.2 80.65 Q313.35 80.05 312.85 80.1 L312.7 80.15" fill="#ffcc00" fill-rule="evenodd" stroke="none"/>
    <path d="M308.45 24.65 L308.7 24.25 308.85 23.9 308.95 23.55 308.95 23.15 308.95 22.4 308.95 21.65 309.05 21.7 309.85 22.4 309.95 22.8 310.1 23.15 310.45 23.55 310.85 23.9 311.35 25.45 312.45 28.05 312.45 28.4 312.45 28.8 312.6 29.15 312.8 29.55 312.95 29.9 313.0 31.8 312.95 33.65 312.5 34.8 311.35 36.65 310.45 37.05 308.1 36.65 307.55 35.5 306.95 34.05 306.95 32.9 306.95 31.8 307.5 30.7 307.95 29.55 307.95 29.15 307.95 28.8 308.1 28.4 308.3 28.0 308.45 27.65 308.45 26.15 308.45 24.65 M284.45 26.65 L284.45 26.6 285.35 27.5 285.95 29.05 285.95 31.3 285.95 33.55 286.05 33.85 286.6 34.65 286.05 34.4 284.45 33.05 284.2 32.3 283.95 31.55 283.95 30.05 283.95 28.55 284.15 28.15 284.45 27.4 284.45 27.05 284.45 26.65 M302.45 39.9 L302.45 39.85 302.95 40.05 303.95 40.55 304.3 40.95 304.85 41.65 304.45 41.9 303.45 42.05 303.2 41.8 302.45 41.05 302.45 40.65 302.45 40.3 302.45 39.9 M290.45 49.3 L290.65 48.95 291.15 48.15 291.6 47.4 292.6 46.9 293.35 46.55 295.25 46.6 Q296.1 46.85 296.4 47.65 L296.25 47.8 295.95 48.15 295.95 48.9 295.95 49.05 295.7 49.3 294.7 49.9 293.45 50.55 291.85 50.55 Q291.15 50.3 290.65 49.85 L290.45 49.3 M282.75 65.8 L283.1 65.4 283.4 65.15 284.7 64.75 285.35 64.55 286.45 64.6 287.2 64.85 287.45 65.05 285.2 65.3 284.7 65.45 284.45 65.55 284.2 65.8 283.85 66.15 283.2 66.45 282.8 66.65 282.45 66.8 282.45 66.55 282.5 66.2 282.75 65.8 M292.95 67.75 Q293.25 67.7 293.5 68.0 L294.95 69.55 295.7 69.8 295.85 69.9 296.1 70.15 296.45 70.55 297.2 70.8 302.6 72.65 301.95 73.05 297.35 73.05 296.25 72.25 293.95 70.05 293.5 68.9 292.95 67.8 292.95 67.75 M304.95 54.55 L305.45 54.6 Q306.95 54.85 308.35 55.4 L309.35 56.4 310.1 57.15 311.45 59.4 312.45 61.3 312.45 62.05 312.45 62.8 312.45 63.55 312.4 63.9 312.2 64.25 311.85 64.65 311.45 64.9 310.35 65.05 309.75 64.75 309.6 64.65 308.65 61.8 307.95 59.55 307.95 59.15 307.95 58.8 307.95 58.4 307.2 56.9 305.85 55.05 305.25 54.75 304.95 54.55 M312.7 80.15 L312.85 80.1 Q313.35 80.05 313.2 80.65 L312.6 81.55 312.35 80.95 312.7 80.15" fill="#ffcc66" fill-rule="evenodd" stroke="none"/>
  </g>
</svg>
