<?xml version="1.0" encoding="UTF-8" standalone="no"?>
<svg xmlns:ffdec="https://www.free-decompiler.com/flash" xmlns:xlink="http://www.w3.org/1999/xlink" ffdec:objectType="shape" height="56.5px" width="35.0px" xmlns="http://www.w3.org/2000/svg">
  <g transform="matrix(1.0, 0.0, 0.0, 1.0, -280.45, -17.3)">
    <path d="M309.7 17.3 L310.35 17.55 310.7 17.9 310.9 18.3 310.95 18.65 311.85 19.05 312.85 20.5 313.3 21.65 313.45 22.4 313.95 23.15 314.3 23.9 314.45 24.3 314.45 24.65 314.45 25.05 314.7 26.2 315.15 27.3 315.45 28.05 315.45 28.8 315.45 29.55 315.45 29.9 315.45 30.3 315.3 30.65 315.1 31.05 314.95 31.4 314.95 31.8 314.95 32.15 314.95 32.55 314.8 32.9 314.5 33.7 314.45 34.05 314.35 34.4 314.15 34.75 313.85 35.15 313.45 35.55 313.35 35.9 313.2 36.3 312.95 36.5 312.1 36.95 311.7 37.15 309.2 37.3 308.45 37.05 308.1 36.65 307.7 36.3 307.35 35.9 307.05 35.5 306.7 34.8 306.45 34.4 306.45 34.05 306.45 33.65 306.45 33.3 306.3 32.95 305.95 32.55 305.95 29.9 305.95 26.15 305.95 25.4 306.05 25.05 306.3 24.65 306.45 24.3 306.45 23.9 306.45 23.55 306.45 23.15 306.6 22.8 306.8 22.4 306.95 21.65 307.2 21.3 307.45 20.9 307.45 20.55 307.45 20.15 307.95 19.4 308.3 18.65 308.6 17.9 309.0 17.6 309.7 17.35 309.7 17.3 M308.95 24.4 L308.95 24.8 308.95 25.15 308.8 25.5 308.6 25.9 308.45 26.3 308.45 28.9 308.45 31.15 308.7 31.9 308.9 32.65 308.95 33.05 309.0 33.4 309.2 33.8 309.35 34.15 309.85 34.55 311.35 34.15 311.85 33.35 311.95 32.65 312.2 32.3 312.45 31.9 312.45 31.55 312.45 31.15 312.45 30.8 312.7 30.05 312.95 29.3 312.65 27.7 311.95 26.3 311.95 25.9 311.95 25.55 311.95 25.15 311.85 24.8 311.7 24.4 311.45 24.05 311.1 23.65 310.75 22.1 Q310.45 21.25 309.95 21.4 L309.4 22.85 308.95 24.05 308.95 24.4 M287.85 24.55 L288.0 28.65 287.95 33.55 287.7 34.25 287.3 35.0 287.1 35.4 286.3 36.1 285.2 36.8 284.2 36.8 283.45 36.55 283.1 36.15 282.7 35.8 282.35 35.4 282.05 35.0 281.9 34.7 281.7 34.3 281.45 33.9 281.45 33.55 281.45 33.15 281.45 32.8 281.3 32.45 280.95 32.05 280.95 30.55 280.95 28.65 280.95 27.9 281.05 27.55 281.3 27.15 281.45 26.8 281.45 26.4 281.45 26.05 281.5 25.65 281.7 25.3 281.9 24.9 281.95 24.55 282.35 24.15 282.7 23.8 282.95 23.55 283.7 23.25 284.7 22.9 285.2 22.8 Q286.15 22.7 286.85 23.4 L287.85 24.55 M284.15 27.2 Q284.0 28.0 283.45 28.65 L283.45 29.4 283.45 30.15 283.45 30.55 283.7 31.3 283.95 32.05 284.05 32.75 284.35 33.55 284.85 33.5 285.45 32.9 285.65 28.8 Q285.9 26.5 284.7 25.65 284.35 26.4 284.15 27.2 M293.2 44.8 L294.2 44.8 295.3 45.45 296.05 46.2 296.35 46.55 296.4 47.3 296.45 48.8 296.45 50.3 295.95 51.0 294.3 52.5 293.7 52.8 291.7 52.8 291.0 52.45 290.6 52.15 290.25 51.75 289.85 51.05 289.45 50.3 289.45 49.9 289.45 49.55 289.45 49.15 289.45 48.8 289.6 48.4 289.8 48.0 289.95 47.65 289.95 47.3 290.15 46.95 290.85 46.15 291.45 45.55 291.7 45.4 292.35 45.2 293.2 44.85 293.2 44.8 M293.1 47.9 L292.45 48.65 Q292.05 49.2 292.2 49.8 292.95 50.35 293.45 49.55 L293.95 48.8 293.7 48.15 293.2 47.85 293.1 47.9 M302.2 38.3 L302.7 38.4 303.2 38.4 303.7 38.3 Q304.65 38.2 305.35 38.9 L306.35 40.05 306.45 40.8 306.45 41.55 306.45 41.9 306.2 42.65 305.85 43.4 305.7 43.8 304.8 44.5 304.2 44.8 303.2 44.8 302.2 44.3 301.45 44.05 300.95 43.3 300.45 42.55 300.45 41.4 300.45 40.65 300.45 39.55 301.25 38.8 301.75 38.45 302.2 38.3 M281.8 64.25 L282.45 63.55 283.75 62.95 285.7 62.35 285.7 62.3 286.7 62.3 287.8 63.0 289.2 64.4 289.2 64.3 Q289.45 63.7 290.2 63.45 L290.7 63.3 291.8 63.6 292.85 64.05 293.2 64.45 293.45 64.8 296.8 67.7 Q297.95 68.9 298.45 70.4 L298.45 70.8 298.45 71.15 298.45 71.55 298.45 71.9 298.45 72.3 298.2 72.65 297.55 73.4 297.2 73.65 294.7 73.8 293.7 73.3 292.6 72.65 292.25 72.3 292.0 71.9 291.8 71.55 291.6 71.15 290.85 70.4 290.1 69.65 289.75 68.5 289.25 67.45 288.95 67.05 288.95 67.0 288.55 67.4 287.95 68.05 287.7 68.15 287.1 68.4 286.7 68.8 285.8 69.5 285.2 69.8 282.7 69.8 281.95 69.55 281.6 69.15 281.2 68.8 280.45 68.05 280.45 67.65 280.45 67.3 280.45 66.9 280.55 66.6 280.8 66.15 280.95 65.8 280.95 65.4 280.95 65.05 281.35 64.7 281.8 64.25 M313.95 60.8 L313.9 62.3 313.85 63.05 313.55 63.4 313.2 63.8 312.95 64.0 312.7 64.15 312.2 64.25 311.2 64.3 310.5 64.0 310.2 63.85 309.45 63.55 309.1 63.15 308.7 62.8 308.35 62.4 308.05 62.0 307.9 61.7 307.7 61.3 307.35 60.9 306.95 60.55 306.95 60.15 306.95 59.8 306.35 58.65 305.6 57.15 305.45 56.8 305.5 54.9 305.4 53.05 305.6 51.9 306.0 51.6 306.7 51.35 306.7 51.3 307.8 51.65 308.7 52.3 Q310.05 52.85 311.0 54.0 L311.7 54.8 311.95 55.15 312.15 55.5 312.7 56.3 313.05 57.4 313.7 58.9 313.95 59.3 313.95 60.8 M307.95 55.65 L308.25 56.4 308.45 56.8 308.5 57.15 308.6 57.55 308.85 57.9 309.2 58.3 309.35 58.65 309.45 59.05 309.45 59.4 310.8 60.75 311.45 61.05 311.35 60.35 310.95 59.55 310.35 57.75 309.6 56.15 308.5 55.0 Q308.1 54.55 307.95 54.9 L307.95 55.3 307.95 55.65 M292.2 67.8 L292.45 68.55 294.25 70.35 294.95 71.05 295.1 71.1 295.85 71.05 295.6 70.65 295.45 70.3 295.35 69.9 293.2 67.6 Q292.5 66.8 291.95 67.05 L292.2 67.8 M283.6 66.5 Q284.2 66.85 284.95 67.05 L285.35 66.65 286.05 65.8 286.05 65.4 285.7 65.3 284.85 65.6 Q284.45 65.75 284.1 65.95 L283.7 66.3 283.6 66.5" fill="#ffcc00" fill-rule="evenodd" stroke="none"/>
    <path d="M308.95 24.4 L308.95 24.05 309.4 22.85 309.95 21.4 Q310.45 21.25 310.75 22.1 L311.1 23.65 311.45 24.05 311.7 24.4 311.85 24.8 311.95 25.15 311.95 25.55 311.95 25.9 311.95 26.3 312.65 27.7 312.95 29.3 312.7 30.05 312.45 30.8 312.45 31.15 312.45 31.55 312.45 31.9 312.2 32.3 311.95 32.65 311.85 33.35 311.35 34.15 309.85 34.55 309.35 34.15 309.2 33.8 309.0 33.4 308.95 33.05 308.9 32.65 308.7 31.9 308.45 31.15 308.45 28.9 308.45 26.3 308.6 25.9 308.8 25.5 308.95 25.15 308.95 24.8 308.95 24.4 M284.15 27.2 Q284.35 26.4 284.7 25.65 285.9 26.5 285.65 28.8 L285.45 32.9 284.85 33.5 284.35 33.55 284.05 32.75 283.95 32.05 283.7 31.3 283.45 30.55 283.45 30.15 283.45 29.4 283.45 28.65 Q284.0 28.0 284.15 27.2 M293.1 47.9 L293.2 47.85 293.7 48.15 293.95 48.8 293.45 49.55 Q292.95 50.35 292.2 49.8 292.05 49.2 292.45 48.65 L293.1 47.9 M283.6 66.5 L283.7 66.3 284.1 65.95 Q284.45 65.75 284.85 65.6 L285.7 65.3 286.05 65.4 286.05 65.8 285.35 66.65 284.95 67.05 Q284.2 66.85 283.6 66.5 M292.2 67.8 L291.95 67.05 Q292.5 66.8 293.2 67.6 L295.35 69.9 295.45 70.3 295.6 70.65 295.85 71.05 295.1 71.1 294.95 71.05 294.25 70.35 292.45 68.55 292.2 67.8 M307.95 55.65 L307.95 55.3 307.95 54.9 Q308.1 54.55 308.5 55.0 L309.6 56.15 310.35 57.75 310.95 59.55 311.35 60.35 311.45 61.05 310.8 60.75 309.45 59.4 309.45 59.05 309.35 58.65 309.2 58.3 308.85 57.9 308.6 57.55 308.5 57.15 308.45 56.8 308.25 56.4 307.95 55.65" fill="#ffcc66" fill-rule="evenodd" stroke="none"/>
  </g>
</svg>
