<?xml version="1.0" encoding="UTF-8" standalone="no"?>
<svg xmlns:ffdec="https://www.free-decompiler.com/flash" xmlns:xlink="http://www.w3.org/1999/xlink" ffdec:objectType="shape" height="53.75px" width="62.85px" xmlns="http://www.w3.org/2000/svg">
  <g transform="matrix(1.0, 0.0, 0.0, 1.0, 365.4, 56.5)">
    <path d="M-326.55 -56.3 Q-318.3 -57.25 -311.0 -54.1 L-310.35 -53.65 Q-312.3 -42.2 -309.35 -31.05 -307.5 -24.05 -302.9 -18.45 -302.05 -17.4 -303.15 -16.2 L-304.35 -14.7 -312.75 -15.3 -310.9 -13.15 -310.75 -12.8 -310.75 -12.0 -310.85 -11.25 -309.65 -8.65 Q-309.05 -6.8 -309.5 -4.8 -309.85 -3.45 -311.4 -2.75 -325.85 -5.95 -337.4 -14.5 -338.1 -15.0 -338.1 -16.15 L-365.35 -19.15 Q-365.75 -24.9 -361.45 -30.1 -355.2 -37.7 -346.8 -42.65 L-347.8 -43.25 Q-350.1 -44.6 -351.6 -46.8 L-352.3 -48.0 Q-350.3 -54.1 -342.75 -54.95 L-326.55 -56.3 M-327.55 -48.9 Q-318.4 -48.8 -322.35 -42.05 -324.55 -31.65 -319.45 -22.8 L-311.1 -20.55 -315.1 -30.3 -315.05 -31.1 Q-317.8 -40.65 -315.8 -50.8 -331.0 -52.35 -345.6 -48.25 L-341.25 -45.55 -329.1 -48.25 -327.55 -48.9 M-334.15 -42.05 Q-345.8 -39.25 -353.75 -30.05 L-358.85 -23.75 Q-345.9 -23.0 -333.55 -19.65 L-332.2 -15.1 Q-324.6 -12.05 -316.7 -10.3 -322.9 -16.8 -326.15 -26.05 -328.05 -31.35 -327.9 -37.1 L-327.45 -43.1 -334.15 -42.05" fill="#000000" fill-rule="evenodd" stroke="none"/>
    <path d="M-334.15 -42.05 L-327.45 -43.1 -327.9 -37.1 Q-328.05 -31.35 -326.15 -26.05 -322.9 -16.8 -316.7 -10.3 -324.6 -12.05 -332.2 -15.1 L-333.55 -19.65 Q-345.9 -23.0 -358.85 -23.75 L-353.75 -30.05 Q-345.8 -39.25 -334.15 -42.05 M-327.55 -48.9 L-329.1 -48.25 -341.25 -45.55 -345.6 -48.25 Q-331.0 -52.35 -315.8 -50.8 -317.8 -40.65 -315.05 -31.1 L-315.1 -30.3 -311.1 -20.55 -319.45 -22.8 Q-324.55 -31.65 -322.35 -42.05 -318.4 -48.8 -327.55 -48.9" fill="#80a839" fill-rule="evenodd" stroke="none"/>
  </g>
</svg>
