<?xml version="1.0" encoding="UTF-8" standalone="no"?>
<svg xmlns:ffdec="https://www.free-decompiler.com/flash" xmlns:xlink="http://www.w3.org/1999/xlink" ffdec:objectType="shape" height="37.0px" width="8.05px" xmlns="http://www.w3.org/2000/svg">
  <g transform="matrix(1.0, 0.0, 0.0, 1.0, -306.45, -24.3)">
    <path d="M311.2 24.3 Q312.05 24.2 312.8 24.6 313.65 25.05 314.2 25.8 L314.4 26.55 314.5 27.3 314.35 28.4 314.15 28.75 313.85 29.15 313.45 29.55 313.35 29.9 313.2 30.3 312.85 30.65 312.3 31.0 311.7 31.3 309.7 31.3 308.95 31.05 308.2 30.3 307.45 29.55 307.45 29.15 307.45 28.8 307.45 28.4 307.45 28.05 307.5 27.65 307.7 27.3 307.9 26.9 307.95 26.55 308.7 25.8 309.45 25.05 310.75 24.45 311.2 24.3 M311.35 28.15 L311.5 27.5 311.1 27.4 Q310.5 27.85 310.8 28.25 L311.35 28.15 M309.7 54.3 L310.3 54.55 310.85 54.9 311.3 55.7 311.95 56.8 311.95 57.55 311.95 58.65 311.95 59.05 311.8 59.4 311.45 60.15 311.1 60.9 310.2 61.15 308.7 61.3 307.95 61.05 307.6 60.65 306.85 59.9 306.45 59.55 306.45 58.4 306.45 56.9 306.45 56.15 306.75 55.8 307.1 55.4 307.45 55.05 308.95 54.55 309.7 54.3" fill="#ffcc00" fill-rule="evenodd" stroke="none"/>
    <path d="M311.35 28.15 L310.8 28.25 Q310.5 27.85 311.1 27.4 L311.5 27.5 311.35 28.15" fill="#ffcc66" fill-rule="evenodd" stroke="none"/>
  </g>
</svg>
