<?xml version="1.0" encoding="UTF-8" standalone="no"?>
<svg xmlns:ffdec="https://www.free-decompiler.com/flash" xmlns:xlink="http://www.w3.org/1999/xlink" ffdec:objectType="shape" height="158.2px" width="179.5px" xmlns="http://www.w3.org/2000/svg">
  <g transform="matrix(1.0, 0.0, 0.0, 1.0, 395.5, 70.2)">
    <path d="M-265.25 -54.1 L-264.8 -54.15 -264.2 -54.65 -263.6 -55.1 -262.75 -55.8 -262.15 -56.25 -261.8 -56.4 -261.45 -56.5 -260.95 -56.55 -260.1 -57.25 -258.95 -58.15 -258.35 -58.65 -257.45 -59.35 -257.1 -59.45 -256.65 -59.55 Q-256.5 -59.55 -256.3 -59.65 L-255.95 -59.9 -255.7 -60.1 -255.3 -60.25 -254.95 -60.35 -254.5 -60.4 -253.9 -60.9 -253.3 -61.35 -252.45 -62.0 -251.85 -62.5 -251.5 -62.65 -251.1 -62.75 -250.65 -62.8 -250.4 -63.0 -250.05 -63.25 -249.8 -63.5 -249.5 -63.75 -249.2 -63.95 -248.85 -64.1 -248.45 -64.2 -248.0 -64.25 -247.75 -64.5 -247.4 -64.75 -247.15 -64.95 -246.85 -65.2 -246.55 -65.4 -246.2 -65.6 -245.8 -65.7 -245.35 -65.75 -243.9 -66.9 -242.4 -68.05 -240.95 -69.2 -240.05 -69.9 -239.75 -70.05 -239.35 -70.2 -238.9 -70.2 -238.35 -70.15 -237.85 -70.05 -237.3 -70.05 -236.7 -69.7 -236.2 -69.15 -235.1 -67.4 Q-234.7 -66.3 -234.9 -65.1 -234.3 -63.9 -234.0 -62.55 -233.85 -61.7 -233.95 -60.75 -232.6 -55.05 -232.15 -49.1 -231.9 -45.65 -231.9 -42.2 -227.65 -41.2 -223.55 -39.0 L-218.3 -36.5 -217.4 -35.7 -217.4 -35.75 Q-215.8 -34.4 -216.0 -32.4 L-216.3 -29.8 -216.45 -29.35 -216.65 -29.05 -216.8 -28.6 -216.85 -28.1 -216.9 -27.55 -217.05 -26.5 -217.1 -26.0 -217.25 -25.55 -217.45 -25.2 -217.6 -24.75 -217.65 -24.3 -217.7 -23.7 -217.85 -22.65 -217.9 -22.2 -218.8 -20.1 -219.9 -16.8 -220.1 -15.35 -220.75 -13.8 -221.8 -10.7 Q-222.0 -9.95 -222.6 -9.4 L-222.7 -8.85 -222.8 -8.45 -223.0 -8.15 -223.15 -7.7 -223.2 -7.2 -223.3 -6.65 -223.6 -5.8 -223.75 -5.5 -223.8 -4.9 -223.9 -4.45 -223.95 -3.85 -224.25 -3.15 -224.7 -1.1 Q-224.8 -0.3 -225.35 0.4 L-225.65 0.6 -226.0 0.75 -226.35 0.9 -226.7 1.0 Q-229.6 8.5 -236.05 13.6 L-239.45 16.05 -240.2 16.3 -241.95 17.0 Q-242.65 17.25 -243.3 17.65 L-244.35 18.15 -245.2 18.8 Q-254.0 22.75 -263.25 22.15 -276.85 21.25 -285.4 9.95 -295.6 -3.75 -296.5 -21.1 L-296.55 -21.9 Q-295.85 -26.15 -289.95 -36.15 -284.05 -46.15 -269.75 -50.95 L-268.05 -51.5 -268.05 -51.6 -267.9 -52.05 -267.7 -52.4 -267.45 -52.7 -267.15 -52.9 -266.85 -53.15 -266.6 -53.4 Q-266.45 -53.5 -266.25 -53.65 L-266.0 -53.85 -265.65 -54.0 -265.25 -54.1 M-241.6 -38.5 L-242.25 -38.9 -236.85 -41.7 Q-237.0 -43.75 -237.5 -45.75 L-237.45 -46.25 -237.35 -46.8 -237.3 -47.3 -238.6 -57.4 Q-239.1 -60.6 -239.9 -63.7 L-240.8 -62.95 -242.0 -62.05 -242.55 -61.6 -243.45 -60.9 -243.85 -60.75 -244.25 -60.7 -244.65 -60.6 -244.9 -60.35 -245.2 -60.1 -245.5 -59.9 -245.8 -59.65 -246.1 -59.45 -246.5 -59.3 -246.9 -59.2 -247.3 -59.1 -247.55 -58.9 -247.9 -58.65 -248.15 -58.45 -248.45 -58.2 -249.05 -57.7 -249.4 -57.6 -249.8 -57.5 -250.2 -57.45 -250.8 -56.95 -251.4 -56.5 -252.3 -55.8 -252.55 -55.6 -252.95 -55.45 -253.4 -55.35 -253.75 -55.25 -254.05 -55.05 -254.35 -54.8 -254.75 -54.7 -255.15 -54.55 -255.55 -54.5 -256.45 -53.8 -257.6 -52.85 -257.65 -52.85 Q-253.95 -52.6 -250.7 -51.25 L-250.0 -52.45 -249.65 -53.3 -249.1 -53.8 -247.95 -54.7 -247.35 -55.15 -246.85 -55.15 -246.35 -55.1 -245.8 -55.05 -245.2 -54.7 -244.7 -54.15 -244.65 -54.2 -244.3 -53.25 -244.15 -52.55 Q-244.3 -51.7 -244.85 -50.95 L-246.05 -48.85 -251.3 -45.3 -251.6 -45.15 -255.6 -46.5 -262.55 -47.75 Q-273.3 -48.6 -278.9 -41.7 -288.15 -35.3 -291.0 -23.1 -293.9 -10.95 -284.6 3.9 -276.7 16.6 -262.35 17.2 -253.4 17.55 -245.4 12.9 -239.15 10.55 -234.9 5.15 -228.55 -3.1 -229.2 -13.95 -229.7 -21.95 -232.25 -28.95 L-232.3 -29.1 -232.6 -28.85 -232.85 -28.6 -233.2 -28.35 Q-234.3 -34.25 -241.6 -38.5 M-221.6 -30.05 L-221.55 -30.55 -221.4 -31.6 Q-224.7 -34.1 -229.05 -35.9 L-229.95 -36.25 Q-225.6 -28.35 -224.55 -19.65 L-224.45 -19.8 Q-224.05 -20.4 -223.95 -21.1 L-223.35 -22.65 -223.15 -22.95 -223.05 -23.5 -222.95 -24.55 -222.7 -26.65 -222.55 -27.0 -222.35 -27.8 -221.85 -29.1 -221.65 -29.5 -221.6 -30.05" fill="#000000" fill-rule="evenodd" stroke="none"/>
    <path d="M-255.6 -46.5 L-251.6 -45.15 -251.3 -45.3 -246.05 -48.85 -244.85 -50.95 Q-244.3 -51.7 -244.15 -52.55 L-244.3 -53.25 -244.65 -54.2 -244.7 -54.15 -245.2 -54.7 -245.8 -55.05 -246.35 -55.1 -246.85 -55.15 -247.35 -55.15 -247.95 -54.7 -249.1 -53.8 -249.65 -53.3 -250.0 -52.45 -250.7 -51.25 Q-253.95 -52.6 -257.65 -52.85 L-257.6 -52.85 -256.45 -53.8 -255.55 -54.5 -255.15 -54.55 -254.75 -54.7 -254.35 -54.8 -254.05 -55.05 -253.75 -55.25 -253.4 -55.35 -252.95 -55.45 -252.55 -55.6 -252.3 -55.8 -251.4 -56.5 -250.8 -56.95 -250.2 -57.45 -249.8 -57.5 -249.4 -57.6 -249.05 -57.7 -248.45 -58.2 -248.15 -58.45 -247.9 -58.65 -247.55 -58.9 -247.3 -59.1 -246.9 -59.2 -246.5 -59.3 -246.1 -59.45 -245.8 -59.65 -245.5 -59.9 -245.2 -60.1 -244.9 -60.35 -244.65 -60.6 -244.25 -60.7 -243.85 -60.75 -243.45 -60.9 -242.55 -61.6 -242.0 -62.05 -240.8 -62.95 -239.9 -63.7 Q-239.1 -60.6 -238.6 -57.4 L-237.3 -47.3 -237.35 -46.8 -237.45 -46.25 -237.5 -45.75 Q-237.0 -43.75 -236.85 -41.7 L-242.25 -38.9 -241.6 -38.5 -241.9 -38.1 -248.1 -42.0 -255.6 -46.5 M-221.6 -30.05 L-221.65 -29.5 -221.85 -29.1 -222.35 -27.8 -222.55 -27.0 -222.7 -26.65 -222.95 -24.55 -223.05 -23.5 -223.15 -22.95 -223.35 -22.65 -223.95 -21.1 Q-224.05 -20.4 -224.45 -19.8 L-224.55 -19.65 Q-225.6 -28.35 -229.95 -36.25 L-229.05 -35.9 Q-224.7 -34.1 -221.4 -31.6 L-221.55 -30.55 -221.6 -30.05" fill="#cc3300" fill-rule="evenodd" stroke="none"/>
    <path d="M-232.6 -28.85 L-232.3 -29.1 -232.25 -28.95 -232.6 -28.85" fill="#a6e34d" fill-rule="evenodd" stroke="none"/>
    <path d="M-255.6 -46.5 L-248.1 -42.0 -241.9 -38.1 -241.6 -38.5 Q-234.3 -34.25 -233.2 -28.35 L-232.85 -28.6 -232.6 -28.85 -232.25 -28.95 Q-229.7 -21.95 -229.2 -13.95 -228.55 -3.1 -234.9 5.15 -239.15 10.55 -245.4 12.9 -253.4 17.55 -262.35 17.2 -276.7 16.6 -284.6 3.9 -293.9 -10.95 -291.0 -23.1 -288.15 -35.3 -278.9 -41.7 -273.3 -48.6 -262.55 -47.75 L-255.6 -46.5" fill="#b1e34d" fill-rule="evenodd" stroke="none"/>
    <path d="M-279.8 13.9 L-274.95 18.3 -289.0 19.3 Q-295.7 19.55 -300.65 23.65 L-296.9 25.15 Q-293.95 26.35 -291.65 28.35 -288.2 30.05 -284.55 31.3 -282.25 32.1 -280.65 33.85 L-280.4 34.25 -280.25 34.6 -280.15 35.0 -279.3 35.75 -278.5 36.5 -278.15 36.85 -277.9 37.25 -277.7 37.6 -277.15 38.4 -276.9 38.75 -276.75 39.1 -276.65 39.5 -276.5 39.85 -276.5 40.25 -276.5 40.6 -276.3 41.0 -276.15 41.35 -276.0 41.75 -276.0 42.85 -276.0 44.35 -276.0 45.1 -276.0 45.85 -276.15 46.25 -276.35 46.65 -276.5 47.0 -276.5 47.35 -276.5 47.75 -276.5 48.1 -276.5 48.85 -277.15 50.35 -277.65 51.9 -278.45 53.05 -278.75 53.35 -279.25 54.85 -279.8 56.35 -280.3 57.5 -280.5 57.85 -280.5 58.25 -280.5 58.6 -280.65 59.0 -280.75 59.35 -280.9 59.75 -281.0 60.1 -281.0 60.5 -281.0 60.85 -281.0 61.25 -281.25 62.0 -281.5 62.75 -281.8 63.45 -282.0 63.85 -282.0 64.25 -282.0 64.6 -282.0 65.0 -282.0 65.75 -282.15 66.1 -282.3 66.5 -282.5 66.85 -282.5 67.25 -282.5 67.6 -282.65 68.0 -282.75 68.35 -282.9 68.75 -283.0 69.1 -283.0 69.5 -283.0 69.85 -283.0 70.25 -283.3 70.95 -283.7 72.1 -283.95 72.9 -284.0 73.25 -283.5 74.8 -282.75 76.05 -282.05 76.3 -281.4 76.6 -281.05 77.0 -280.85 77.35 -280.65 77.75 -280.5 78.1 -280.5 78.5 -280.5 78.85 -280.5 79.25 -280.65 79.6 -280.8 80.0 -281.0 80.35 -281.3 80.7 -281.5 80.9 -281.65 81.1 -282.15 81.5 -282.4 81.75 -282.75 81.85 -283.5 82.0 -284.65 81.75 -284.7 81.7 Q-292.9 83.05 -301.0 80.9 L-305.15 79.75 -305.6 79.35 -306.0 79.0 -307.15 78.75 -307.6 78.35 -308.0 78.0 -308.25 77.6 -308.4 77.25 -308.5 76.85 -308.5 76.5 -308.5 75.75 -308.5 74.6 -308.4 74.25 -308.25 73.85 -308.0 73.1 -308.0 71.25 -308.0 68.25 -308.0 67.85 -307.85 67.5 -307.65 67.1 -307.5 66.75 -307.5 66.35 -307.5 66.0 -307.5 65.6 -307.4 65.25 -307.25 64.85 -307.0 64.1 -307.0 63.75 -307.0 63.35 -307.0 63.0 -306.9 62.6 -306.75 62.25 -306.5 61.85 -306.5 61.5 -306.5 60.75 -306.5 59.6 -306.4 59.25 -306.25 58.85 -306.0 58.1 -306.0 57.75 -306.0 57.35 -306.0 57.0 -305.9 56.6 -305.75 56.25 -305.5 55.85 -305.5 55.1 -305.5 53.6 -305.5 52.5 -305.4 52.1 -305.25 51.75 -305.15 51.45 Q-308.65 51.85 -312.15 50.75 L-316.4 49.85 -316.65 50.1 -317.25 51.25 -318.35 53.1 -318.5 53.5 -318.9 53.85 -319.25 54.25 -319.5 54.65 -319.65 55.0 -319.75 55.35 -319.9 55.75 -320.55 56.45 -321.25 57.25 -321.65 57.6 -321.8 58.0 -322.0 58.35 -322.65 59.1 -323.0 59.5 -323.25 59.9 -323.4 60.25 -323.65 60.6 -324.0 61.0 -324.4 61.35 -325.15 62.1 -326.15 63.9 -328.0 67.0 Q-331.25 70.3 -335.4 72.3 -337.25 73.2 -339.25 73.75 -343.35 76.6 -348.0 78.4 L-348.0 78.5 -348.0 81.5 -348.0 82.25 -347.85 82.6 -347.55 83.0 -347.2 83.75 -347.0 84.5 -347.05 84.85 -347.15 85.25 -347.35 85.65 -347.5 86.0 -347.9 86.35 -348.55 86.7 -349.5 87.0 -350.0 86.95 -350.05 86.95 -350.3 87.2 -350.75 87.6 -351.25 87.8 -352.0 88.0 Q-360.75 87.45 -369.15 85.25 L-369.6 84.85 -370.0 84.5 -370.8 82.95 -372.0 80.35 -372.0 80.0 -372.05 79.25 -371.9 78.1 -371.7 77.75 -371.4 77.35 -371.0 77.0 -370.9 76.6 -370.75 76.25 -370.4 75.85 -370.0 75.5 -369.2 73.6 Q-368.5 72.35 -368.1 71.0 L-368.0 70.6 -368.0 70.25 -368.0 69.85 -367.85 69.5 -367.65 69.1 -367.5 68.75 -367.5 68.0 -367.5 66.1 -367.5 65.0 -367.55 64.65 -367.7 64.2 -368.0 63.5 -368.0 62.75 -368.0 61.25 -368.0 60.5 -367.9 60.1 -367.75 59.75 -367.35 59.0 -367.15 58.6 -366.4 57.85 -364.9 56.35 -361.25 54.8 -361.25 54.75 -360.9 54.35 Q-357.05 52.5 -352.9 51.35 L-346.65 47.6 -345.4 46.85 -345.0 46.5 -344.25 45.75 -343.9 45.35 -342.65 44.55 -342.0 44.15 -342.35 43.35 -342.5 43.0 -342.55 42.65 -342.7 42.25 -343.0 41.5 -343.0 41.1 -343.0 40.75 -343.15 40.4 -343.35 40.0 -343.5 39.6 -343.5 35.5 -343.5 28.75 -343.5 25.75 -343.5 25.5 -344.65 25.25 Q-349.2 22.8 -353.35 19.8 L-359.5 15.5 -360.25 15.35 -361.25 15.7 -362.4 16.2 -363.65 16.6 -364.0 17.0 -364.4 17.35 -364.9 17.75 -365.1 18.15 -365.55 18.85 -366.15 20.0 -366.5 21.1 -366.5 21.5 -366.5 21.85 -366.5 22.6 -366.5 23.35 -366.5 24.1 -366.65 24.5 -366.75 24.85 -366.9 25.25 -367.0 25.6 -367.0 26.0 -367.0 26.35 -367.0 26.75 -367.0 27.1 -367.0 27.5 -367.0 27.85 -367.15 28.25 -367.35 28.65 -367.5 29.0 -367.5 29.35 -367.5 29.75 -367.9 30.9 -369.0 33.05 -370.05 35.05 -370.15 35.25 -370.35 35.65 -370.4 35.75 -370.45 35.85 -370.5 36.0 -370.5 36.35 -370.5 36.75 -370.5 37.1 -370.75 37.85 -371.55 39.35 -374.35 43.15 -374.5 43.5 -374.9 43.85 -375.25 44.25 -375.65 44.6 -376.0 45.0 -376.25 45.4 -376.4 45.75 -376.65 46.1 Q-379.1 48.5 -381.95 50.25 -387.35 53.55 -393.65 52.75 L-394.1 52.35 -394.5 52.0 -394.75 51.6 -394.9 51.25 -395.15 50.85 -395.4 50.5 -395.45 50.1 -395.5 49.35 -395.5 49.0 -395.5 48.6 -395.5 47.85 -395.5 47.5 -395.4 47.1 -395.25 46.75 -395.0 46.35 -395.0 46.0 -395.0 45.6 -394.9 45.25 -394.75 44.85 -394.5 44.5 -393.9 43.7 -393.75 43.4 -393.55 43.0 -393.25 42.25 -391.75 40.75 -389.15 38.1 Q-388.0 36.8 -386.5 35.85 L-386.35 35.5 -386.15 35.1 -385.75 34.75 -385.4 34.35 -385.0 34.0 -384.9 33.6 -384.75 33.25 -384.55 32.85 -384.35 32.5 -384.15 32.1 -384.0 31.75 -384.0 31.35 -384.0 31.0 -383.9 30.6 -383.75 30.25 -383.5 29.85 -383.5 29.5 -383.5 28.35 -383.5 28.0 -383.5 26.5 -383.5 25.0 -383.55 24.65 -383.85 23.85 -383.95 23.5 -384.05 23.15 -384.35 22.35 -384.5 22.0 -384.5 21.6 -384.5 20.5 -384.5 20.1 -384.5 18.6 -384.5 17.5 -384.55 17.15 -384.75 16.75 -384.9 16.35 -385.0 16.0 -385.0 15.6 -385.0 15.25 -385.0 14.85 -385.0 14.5 -384.9 14.1 -384.75 13.75 -384.5 13.35 -384.5 13.0 -384.5 12.6 -384.5 12.25 -384.5 11.85 -384.5 11.5 -384.4 11.1 -384.25 10.75 -384.0 10.35 -384.0 10.0 -384.0 9.6 -383.9 9.25 -383.65 8.5 -383.5 8.1 -383.4 7.75 -383.15 7.0 -383.0 6.6 -383.0 6.25 -383.0 5.85 -382.85 5.5 -382.65 5.1 -382.55 4.75 -382.45 4.35 -382.4 4.0 -382.15 3.6 -381.9 3.25 -381.5 2.5 -381.4 2.1 -381.25 1.75 -380.9 1.35 -380.5 1.0 -380.4 0.6 -380.25 0.25 -380.05 -0.15 -379.85 -0.5 -379.65 -0.9 -379.25 -1.25 -378.9 -1.65 -378.15 -2.4 -377.75 -2.75 -377.55 -3.15 -377.35 -3.5 -377.15 -3.9 -376.75 -4.25 -376.4 -4.65 Q-376.0 -4.8 -375.65 -5.05 L-375.1 -5.35 -373.9 -6.15 -373.5 -6.5 -373.15 -6.9 -372.75 -7.25 -372.4 -7.65 -369.3 -9.45 Q-364.5 -11.85 -359.5 -13.0 L-354.0 -13.15 -351.5 -12.9 -351.5 -13.25 -351.5 -13.65 -351.5 -14.4 -351.4 -14.75 -351.25 -15.15 -351.15 -15.5 -351.0 -15.9 -351.0 -16.25 -351.0 -16.65 -351.0 -17.0 -350.3 -18.85 Q-349.05 -22.25 -347.4 -25.6 -346.7 -27.05 -346.25 -28.65 L-346.0 -29.0 -345.65 -29.4 -345.25 -29.75 -344.85 -30.45 -344.05 -31.65 -341.9 -35.0 -341.65 -35.4 -341.25 -35.75 -340.9 -36.15 -340.5 -36.5 -340.4 -36.9 -340.25 -37.25 -339.5 -38.0 -337.9 -39.35 -334.9 -42.15 -334.15 -42.55 -333.65 -42.9 -333.1 -43.25 -332.4 -43.65 -332.0 -44.0 -331.6 -44.35 -331.1 -44.7 -328.65 -46.25 -328.5 -46.3 -322.9 -47.7 -318.5 -48.3 -318.5 -48.45 -317.45 -48.4 -316.5 -48.5 -316.0 -48.45 -316.0 -48.35 -315.5 -48.35 -314.3 -48.2 -313.9 -48.65 -313.15 -49.05 -312.65 -49.4 -312.15 -49.75 Q-308.5 -51.0 -304.65 -51.25 L-303.9 -51.6 -303.25 -51.9 -302.5 -51.95 -302.5 -52.0 -301.55 -51.7 -300.9 -51.4 -300.55 -50.95 -300.35 -50.65 -300.0 -49.9 -300.0 -49.5 -300.0 -49.15 -300.0 -48.75 Q-299.1 -45.3 -297.35 -42.1 L-293.9 -36.4 -292.75 -35.6 -291.5 -34.5 -291.35 -34.15 -291.2 -33.75 -291.0 -33.0 -291.25 -32.3 -291.75 -30.8 -292.0 -30.0 -292.0 -29.65 -292.0 -29.25 -292.15 -28.9 -292.3 -28.5 -292.5 -28.15 -292.5 -27.75 -292.5 -27.0 -292.5 -25.9 -292.65 -25.5 -292.75 -25.1 -292.3 -25.95 -290.6 -29.05 -290.25 -29.75 -289.9 -30.15 -289.5 -30.5 -289.15 -30.9 -288.75 -31.25 -288.55 -31.65 -288.35 -32.0 -288.15 -32.4 -287.9 -32.75 -287.5 -33.5 Q-286.05 -35.25 -283.9 -36.2 -277.55 -38.95 -270.5 -38.95 L-270.5 -39.0 -267.5 -38.9 -264.0 -39.0 Q-256.95 -38.0 -250.2 -35.8 -242.85 -33.4 -237.65 -28.15 L-236.25 -26.9 -234.15 -25.5 -231.65 -23.65 -230.5 -22.5 -230.35 -22.15 -230.15 -21.75 -229.75 -21.4 -229.15 -21.0 -228.65 -20.65 -228.25 -20.4 Q-227.15 -20.35 -226.15 -20.8 -224.25 -21.65 -222.55 -22.85 -221.2 -23.8 -219.5 -24.0 L-219.0 -23.95 -218.05 -23.7 -217.4 -23.4 -217.05 -23.0 -216.85 -22.65 -216.65 -22.25 -216.5 -21.9 -216.5 -21.5 -216.5 -21.15 -216.5 -20.75 -216.5 -20.4 -216.5 -19.65 -216.5 -19.25 -216.65 -18.9 -216.8 -18.5 -216.95 -18.1 -217.15 -17.4 -217.3 -17.0 -217.5 -16.6 -217.85 -15.85 -218.0 -15.5 -218.0 -15.15 -218.0 -14.75 -218.3 -14.0 -218.5 -13.6 -218.95 -12.5 -219.25 -11.8 -219.7 -10.65 -220.0 -9.5 -220.0 -9.15 -220.0 -8.75 -220.0 -8.4 -220.5 -6.9 -221.25 -4.65 -222.0 -2.35 Q-222.45 -0.8 -223.15 0.6 L-224.0 2.5 -224.4 2.85 -224.75 3.25 -225.15 3.6 -225.5 4.0 -225.9 4.75 -226.1 5.15 -226.75 6.25 -227.25 7.0 -227.85 8.15 -228.0 8.5 Q-229.35 9.55 -230.95 10.15 L-236.1 10.3 Q-237.7 9.8 -238.9 8.6 L-239.35 7.85 -239.95 6.8 -240.55 5.65 -241.2 4.1 -241.75 2.6 -241.9 2.25 -242.15 1.9 -242.5 1.5 -242.75 1.1 -243.15 0.4 -243.35 0.0 -243.5 -0.4 -244.55 -0.85 Q-245.9 -1.2 -247.1 -1.85 L-249.4 -3.15 -250.0 -3.5 -251.15 -3.75 -251.6 -4.15 -252.0 -4.5 -252.25 -4.75 Q-261.05 -5.45 -269.05 -0.55 -272.65 1.65 -285.5 6.45 L-285.5 7.1 -285.5 7.5 Q-290.1 9.2 -294.95 10.05 L-300.0 10.75 -305.4 11.0 Q-309.25 11.55 -312.65 13.35 L-313.75 14.5 -314.75 15.5 -315.0 15.6 -315.65 15.85 -315.8 16.25 -316.0 16.6 -316.4 17.0 -316.9 17.35 -317.4 18.1 -318.15 18.85 -318.75 20.0 -319.75 21.5 -319.75 21.85 -319.75 22.25 -320.55 23.75 -321.25 25.6 -321.25 26.75 -321.25 28.25 -321.25 29.0 -321.4 29.35 -321.55 29.75 -321.75 30.1 -321.75 30.5 -321.75 30.85 -321.75 31.25 -321.6 31.6 -321.4 32.0 -321.25 32.35 -321.25 33.5 -321.35 35.0 -321.5 35.75 -321.75 35.95 -321.9 36.1 -320.95 36.65 -320.25 37.25 -320.3 37.6 -320.4 38.0 -320.65 38.35 -321.0 38.6 -321.5 38.7 -322.5 38.75 -323.5 38.45 -324.35 38.35 -323.65 39.1 -322.9 39.55 -322.15 40.1 -322.0 40.25 -321.4 40.55 -320.9 40.9 -320.5 41.25 Q-319.45 41.6 -318.45 42.15 L-317.75 42.75 -317.8 43.1 -317.9 43.5 -318.15 43.85 -318.5 44.1 -319.0 44.2 -320.5 44.25 -321.25 43.95 -322.25 43.5 -322.65 43.1 -323.0 42.75 -323.4 42.35 -324.25 42.0 -325.25 41.5 -326.4 40.35 -327.5 39.25 -327.9 38.5 -328.15 37.7 -328.25 37.0 -327.85 36.65 -327.5 36.45 -327.15 36.35 -326.75 35.75 -326.05 35.3 -326.0 35.25 -323.65 35.25 -323.7 34.85 -323.75 33.75 -323.75 33.35 -323.9 33.0 -324.1 32.6 -324.25 32.25 -324.25 31.1 -324.25 29.6 -324.25 29.25 -324.1 28.9 -323.9 28.5 -323.75 28.1 -323.75 27.0 -323.75 25.5 -323.75 24.75 -323.1 23.25 Q-322.85 22.25 -322.25 21.35 L-322.25 21.0 -322.25 20.6 -322.0 20.25 -321.75 19.85 -321.75 19.5 -321.75 19.1 -321.1 18.4 -320.4 17.6 -320.25 17.25 -320.15 16.85 -316.75 13.5 -314.9 11.6 -314.5 11.4 -313.9 11.1 -313.5 10.75 -313.25 10.5 -287.55 5.0 -285.5 4.45 -285.05 4.3 -285.05 4.25 -285.5 4.25 -285.65 4.25 -286.1 3.85 -286.5 3.5 -286.75 3.1 -286.9 2.75 -287.0 2.35 -287.0 2.0 -287.0 1.6 -286.9 1.25 -286.75 0.85 -286.5 0.5 -286.1 0.15 -285.65 -0.25 -284.5 -0.5 -282.65 -0.75 -279.05 -2.1 Q-276.7 -2.6 -274.55 -3.55 L-271.4 -4.65 -271.0 -5.0 -270.65 -5.25 -270.25 -5.35 -269.4 -5.65 -269.0 -6.0 -268.4 -6.35 -267.6 -6.7 -266.4 -7.15 Q-264.0 -9.0 -261.15 -9.9 -254.35 -12.15 -248.65 -8.65 -245.9 -7.15 -242.95 -6.15 -239.35 -4.9 -237.7 -1.35 -236.4 1.45 -235.4 4.35 L-235.0 4.7 -234.5 4.95 -233.5 5.1 -232.75 5.1 -232.3 4.8 -232.0 4.5 -231.7 4.1 -231.25 3.4 -231.0 3.0 -230.65 2.6 -230.55 2.25 -230.5 1.85 -230.4 1.5 -230.1 1.15 -229.75 0.75 -229.4 0.35 -229.0 0.0 -228.65 -0.4 Q-228.3 -0.95 -228.1 -1.55 L-227.3 -3.45 -226.45 -5.6 -225.65 -8.3 -225.0 -9.75 -225.0 -10.15 -225.0 -10.5 -225.0 -10.9 -224.9 -11.25 -224.75 -11.65 -224.65 -12.0 -224.4 -12.75 -224.25 -13.15 -224.15 -13.5 -224.0 -13.9 -224.0 -14.25 -224.0 -14.65 -223.85 -15.0 -223.65 -15.4 -223.4 -15.75 -223.9 -15.7 -226.0 -15.2 Q-228.3 -14.55 -230.65 -15.25 L-231.15 -15.65 -231.5 -16.0 -231.9 -16.35 -232.9 -17.1 -233.5 -17.55 -233.9 -17.9 -234.2 -18.3 -234.4 -18.65 -234.5 -19.0 -234.9 -19.4 -235.25 -19.75 -235.65 -20.1 -236.9 -20.9 -237.25 -21.25 -237.65 -21.6 -238.15 -22.0 -238.9 -22.4 -239.25 -22.75 -239.65 -23.1 -240.15 -23.5 -240.9 -23.9 -241.25 -24.25 -241.65 -24.65 -241.85 -25.0 -242.0 -25.4 -242.3 -25.7 -242.9 -26.15 -243.5 -26.55 -243.9 -26.9 -245.15 -27.25 -245.65 -27.65 -246.15 -28.0 -246.9 -28.35 -248.75 -29.35 -249.0 -29.5 -250.1 -29.8 -250.9 -30.15 -251.25 -30.35 -251.5 -30.5 -252.6 -30.8 -253.4 -31.15 -253.75 -31.4 Q-262.2 -34.05 -271.0 -33.65 -276.55 -33.45 -281.65 -31.4 L-282.15 -31.0 -282.75 -30.65 -283.1 -30.25 -283.35 -29.85 -283.55 -29.5 -283.75 -29.1 -284.15 -28.4 -284.5 -28.0 -284.9 -27.65 -285.25 -27.25 -285.65 -26.9 -286.0 -26.5 -287.1 -24.55 -288.35 -22.35 -289.9 -18.95 -291.05 -15.65 -291.5 -14.5 -291.5 -14.15 -291.5 -13.75 -291.65 -13.4 -291.8 -13.0 -292.0 -12.65 -292.3 -12.3 -292.75 -11.9 -293.25 -11.7 -294.0 -11.5 -294.5 -11.55 -295.65 -11.75 -296.1 -12.15 -296.5 -12.5 -296.75 -12.9 -296.9 -13.25 -297.0 -13.65 -297.0 -14.0 -297.0 -14.4 -296.9 -14.75 -296.75 -15.15 -296.65 -15.5 -296.5 -15.9 -296.5 -16.0 -297.0 -16.05 -298.0 -16.2 -298.0 -12.2 -311.5 -10.75 -314.25 -10.25 Q-316.1 -8.7 -318.35 -7.8 -320.25 -7.0 -321.8 -5.55 -322.55 -4.85 -323.5 -4.5 L-325.0 -3.0 -326.15 -1.9 -328.0 0.0 -329.15 1.1 -329.3 1.5 -329.8 2.2 -330.15 2.6 -330.5 3.0 -330.75 3.4 -331.2 4.1 -331.5 4.5 -331.75 4.9 -331.9 5.25 -332.15 5.6 Q-333.35 6.7 -333.95 8.2 L-336.3 13.95 -337.45 17.25 -338.0 18.35 -338.0 18.75 -338.0 19.1 -338.0 19.5 -338.0 19.85 -338.15 20.25 -338.85 26.0 Q-339.1 27.75 -338.5 28.65 L-338.5 30.75 -338.5 34.1 -338.5 36.0 -338.5 37.85 -338.4 38.25 -338.25 38.6 -338.15 39.0 -338.0 39.35 -338.0 39.75 -338.0 40.1 -337.8 40.5 -337.4 41.25 -337.25 41.6 -337.0 42.0 -336.65 42.4 -336.4 42.75 -336.25 43.1 -336.15 43.5 -336.05 43.85 -336.0 44.25 -336.05 44.6 -336.15 45.0 -336.25 45.35 -336.4 45.75 -336.65 46.1 -337.1 46.5 -337.4 46.75 -337.5 46.8 -337.65 47.1 -337.8 47.5 -338.0 47.85 Q-344.25 52.9 -351.65 56.25 -354.0 57.3 -356.5 58.05 L-356.5 59.15 Q-359.05 60.15 -361.75 60.85 -362.5 61.05 -362.75 61.85 L-362.8 62.25 -362.75 62.6 -362.5 63.35 -362.5 63.75 -362.5 64.1 -362.5 64.5 -362.5 64.85 -362.4 65.25 -362.25 65.6 -362.0 66.35 -362.0 66.75 -362.0 67.1 -362.0 67.5 -362.0 67.85 -362.15 68.25 -362.35 68.65 -362.5 69.0 -362.5 69.35 -362.5 69.75 -362.5 70.5 -362.5 70.85 -362.65 71.25 -362.85 71.65 -363.0 72.0 -363.0 72.35 -363.0 72.75 -364.35 76.1 Q-365.05 78.05 -366.4 79.55 L-366.5 79.85 Q-360.1 82.2 -353.05 83.2 L-353.05 82.6 -353.0 79.6 -353.0 78.85 -353.15 78.5 -353.25 78.1 -353.35 77.75 -353.5 77.0 -353.5 76.85 -353.5 76.6 -353.5 76.5 -353.5 76.1 -353.4 75.75 -353.25 75.35 Q-346.1 70.75 -338.05 67.95 -336.2 67.3 -334.9 65.85 L-334.15 65.45 -333.65 65.1 -333.4 64.75 -333.25 64.4 -333.0 64.0 -332.65 63.6 -332.25 63.25 -331.5 62.5 -331.4 62.1 -331.25 61.75 -330.9 61.35 -330.5 61.0 -330.4 60.6 -330.25 60.25 -329.9 59.85 -329.5 59.5 -329.4 59.1 -329.25 58.75 -328.5 58.0 -327.0 56.5 -326.65 56.1 -326.4 55.75 -326.25 55.4 -326.0 55.0 -325.65 54.6 -325.25 54.25 -324.9 53.85 -324.65 53.5 -324.5 53.1 -324.4 52.75 -324.25 52.35 -323.1 51.0 Q-322.2 49.7 -321.75 48.25 L-321.4 47.85 -321.0 47.5 -320.9 47.1 -320.75 46.75 -319.3 45.2 -318.3 44.4 -317.15 43.75 -316.8 43.7 -317.25 43.25 -317.25 42.85 -317.2 42.55 -316.9 42.1 -316.15 41.35 -315.4 40.6 -315.25 40.25 -315.15 39.85 -314.0 38.75 -312.9 37.6 -312.75 37.25 -312.65 36.85 -312.25 36.5 -311.9 36.1 -311.5 35.75 -311.3 35.35 -311.25 35.0 -310.9 34.6 -310.5 34.25 -310.15 33.85 -308.75 31.6 -307.75 29.75 -307.7 28.6 -307.75 27.1 -307.75 26.75 Q-307.15 25.7 -306.15 24.85 L-306.0 24.75 -305.9 24.0 -305.8 23.9 -305.9 23.75 -306.0 23.35 -306.0 23.0 -306.0 22.6 -305.95 21.85 -305.9 21.5 -304.95 20.3 Q-304.05 19.35 -302.9 18.85 -299.05 15.35 -294.05 14.45 L-290.65 14.1 -279.8 13.9 M-351.55 -8.2 Q-353.85 -7.25 -356.5 -7.5 -360.5 -7.85 -364.15 -5.9 L-364.6 -5.5 -364.9 -5.25 Q-366.0 -5.05 -367.0 -4.5 L-369.95 -2.7 -372.5 -0.75 -372.8 -0.35 -373.75 0.75 -374.15 1.1 -375.65 2.6 -375.75 3.0 -376.15 3.75 -376.35 4.15 -376.55 4.5 -377.15 5.6 -377.5 6.0 -377.5 6.35 -377.5 6.75 -377.65 7.1 -378.05 8.25 -378.15 8.6 -378.55 9.75 -379.0 10.85 -379.0 11.25 -379.0 11.6 -379.0 12.0 -379.0 12.35 -379.15 12.75 -379.35 13.15 -379.5 13.5 -379.5 13.85 -379.5 14.25 -379.55 14.6 -379.65 15.0 -379.6 15.35 -379.5 16.5 -379.5 16.85 -379.5 18.35 -379.5 19.85 -379.4 20.25 -379.25 20.6 -379.15 21.0 -379.0 21.35 -379.0 21.75 -379.0 22.1 -378.8 22.5 -378.65 22.85 -378.5 23.25 -378.5 23.6 -378.5 24.35 -378.5 24.75 -378.5 25.1 -378.5 25.85 -378.5 26.25 -378.45 26.6 -378.3 27.0 -378.15 27.35 -378.0 27.75 -378.0 28.1 -378.0 28.5 -378.0 28.85 -378.15 29.25 -378.35 29.65 -378.5 30.0 -378.5 30.35 -378.5 30.75 -378.5 31.1 -378.5 31.5 -378.5 31.85 -378.7 32.2 -379.15 33.35 -379.35 34.1 -380.85 37.15 -381.0 37.5 -382.5 39.0 -385.9 42.35 -388.5 45.0 -388.75 45.4 -388.9 45.7 -389.5 46.5 -389.75 46.9 -389.9 47.25 -389.95 47.35 -387.0 47.0 -384.9 46.35 -384.15 45.6 -382.9 44.6 Q-381.05 43.3 -379.5 41.5 L-379.4 41.1 -379.25 40.75 -378.9 40.35 -378.5 40.0 -378.4 39.6 -378.25 39.25 -377.9 38.85 -377.5 38.5 -377.15 38.1 -376.75 37.75 -376.55 37.35 -376.35 37.0 -375.9 36.2 -375.75 35.85 -375.65 35.5 -375.5 35.1 -375.5 34.75 -375.5 34.35 -375.35 34.0 -375.15 33.6 -375.0 33.25 -375.0 32.5 -375.0 31.5 -374.0 31.5 -373.85 31.1 -373.55 30.35 -372.95 29.2 -372.5 28.1 -372.5 27.75 -372.5 27.35 -372.35 27.0 -372.15 26.6 -372.0 26.25 -372.0 25.85 -372.0 25.5 -372.0 25.1 -372.0 24.75 -372.0 24.35 -372.0 24.0 -371.9 23.6 -371.75 23.25 -371.5 22.85 -371.5 22.5 -371.5 21.75 -371.5 21.0 -371.5 19.85 -371.5 19.5 -371.25 18.75 -370.65 17.3 -369.9 15.7 -369.5 15.0 -368.75 14.25 -367.05 12.85 -365.65 11.75 -364.4 11.3 -362.75 10.65 -361.25 10.1 -360.5 10.05 -360.5 10.0 Q-356.45 10.25 -353.3 13.0 L-348.5 17.0 -346.2 18.2 -345.5 18.55 Q-340.7 16.8 -342.5 15.1 L-342.5 14.85 -342.4 14.5 -342.15 14.1 -341.9 13.75 -341.75 13.35 -341.65 13.0 -341.5 12.6 -341.5 12.25 -341.5 11.85 -340.95 10.7 -340.55 10.0 -340.2 9.25 -339.7 8.1 -339.4 7.0 -339.15 6.6 -338.75 5.9 -338.55 5.5 -338.4 5.1 -338.25 4.75 -337.9 4.35 -337.5 4.0 -337.4 3.6 -337.25 3.25 -336.9 2.85 -336.5 2.5 -336.15 2.1 -335.9 1.75 -335.45 1.0 -335.15 0.6 -334.9 0.25 -334.75 -0.1 -334.5 -0.5 -334.15 -0.9 -333.75 -1.25 -333.55 -1.65 -333.35 -2.0 -333.15 -2.4 -332.3 -3.25 -332.65 -3.5 -333.4 -3.9 -333.75 -4.25 -334.15 -4.65 -334.5 -5.0 -336.15 -5.7 -337.65 -6.25 -338.1 -6.65 -338.35 -6.85 -341.35 -4.2 Q-343.6 -2.1 -346.25 -0.4 L-346.75 -0.2 -346.9 -0.15 -347.55 0.2 -348.5 0.5 -349.0 0.45 -350.15 0.25 -350.6 -0.15 -351.0 -0.5 -351.25 -0.9 -351.4 -1.25 -351.5 -1.65 -351.5 -2.4 -351.5 -3.5 -351.5 -6.9 -351.5 -8.0 -351.5 -8.2 -351.55 -8.2 M-329.5 -39.5 L-329.9 -39.15 -330.25 -38.75 -330.75 -38.4 -331.5 -38.0 -332.25 -37.25 -333.65 -36.0 -336.5 -33.5 -336.75 -33.1 -336.9 -32.75 -337.15 -32.4 -337.7 -31.6 -338.15 -30.9 Q-339.85 -28.8 -341.15 -26.4 -343.55 -22.05 -345.2 -17.3 L-346.0 -15.5 -346.0 -15.15 -346.0 -14.75 -346.0 -14.4 -346.15 -14.0 -346.25 -13.65 -346.4 -13.25 -346.5 -12.9 -346.5 -12.15 -346.5 -9.9 -346.5 -6.95 -343.9 -9.65 Q-342.7 -10.15 -341.75 -10.95 -339.95 -12.4 -338.4 -14.15 -333.4 -17.2 -327.9 -19.2 -326.8 -19.6 -325.75 -20.15 L-324.8 -21.3 -321.75 -24.25 -321.4 -24.65 -320.75 -24.9 -320.0 -24.95 -320.0 -25.0 -317.55 -24.55 Q-316.7 -24.35 -316.15 -23.65 L-315.9 -23.25 -315.5 -22.5 Q-315.05 -21.8 -314.95 -21.0 L-314.9 -20.65 -314.65 -20.25 -314.4 -19.9 -314.0 -19.55 -313.4 -19.25 -313.25 -19.15 -307.05 -18.15 -306.4 -17.9 -306.05 -17.5 -305.85 -17.15 -305.7 -16.75 -302.0 -17.5 -299.25 -17.45 -299.4 -17.75 -299.5 -18.15 -299.5 -18.5 -299.5 -18.85 -299.4 -19.25 -299.25 -19.65 -299.15 -20.0 -299.25 -20.4 -299.4 -20.75 -299.5 -21.15 -299.5 -21.5 -299.5 -21.9 -299.8 -22.25 -300.15 -22.6 -300.65 -23.0 -301.4 -23.4 Q-302.75 -24.95 -304.25 -26.3 L-311.65 -33.15 -311.85 -33.5 -312.05 -33.85 -312.25 -34.25 -312.4 -34.65 -312.5 -35.0 -312.9 -35.4 -313.25 -35.75 -313.4 -36.15 -313.55 -36.5 -313.75 -36.9 -313.9 -37.25 -314.4 -38.0 -314.5 -38.4 -314.55 -38.75 -314.65 -39.1 -314.9 -39.9 Q-315.05 -40.7 -315.5 -41.4 L-315.5 -41.75 -315.55 -42.1 -315.65 -42.5 -318.5 -42.9 Q-323.1 -42.7 -327.65 -40.4 L-328.45 -40.0 -329.5 -39.5 M-330.65 -12.4 L-331.15 -12.05 -332.55 -11.3 Q-333.05 -11.05 -333.65 -10.9 L-333.95 -10.65 Q-332.85 -10.3 -331.9 -9.65 L-328.7 -6.75 -328.25 -7.25 Q-323.75 -11.8 -317.9 -14.15 -317.2 -14.45 -316.55 -14.9 L-316.65 -15.0 -317.4 -15.4 -317.75 -15.75 -318.15 -16.15 -318.35 -16.5 -318.85 -17.15 -319.55 -18.35 -319.75 -18.75 -320.0 -18.5 -320.4 -18.15 -320.75 -17.75 -321.15 -17.4 -321.3 -17.0 -321.5 -16.65 -322.15 -15.9 -322.9 -15.25 Q-325.15 -14.7 -327.3 -13.65 -328.9 -12.9 -330.65 -12.4 M-303.4 -41.5 L-303.5 -41.9 -303.55 -42.25 -303.85 -43.0 -304.0 -43.4 -304.0 -43.75 -304.0 -44.15 -304.15 -44.5 -304.25 -44.9 -304.5 -45.65 Q-307.15 -46.1 -310.15 -44.9 L-310.65 -44.5 -310.75 -44.35 -310.65 -44.0 -310.4 -43.25 -310.0 -42.15 -310.0 -41.75 -310.0 -41.4 -309.65 -40.65 -309.25 -39.85 Q-308.6 -38.5 -307.75 -37.3 L-307.15 -36.15 -306.75 -35.75 -306.4 -35.4 -306.0 -35.0 -304.15 -33.45 -303.65 -33.15 -303.4 -32.75 -303.25 -32.4 -303.0 -32.0 -302.25 -31.25 -301.1 -30.2 Q-299.45 -28.95 -298.0 -27.5 L-297.7 -27.3 -297.5 -27.65 -297.5 -28.0 -297.5 -28.4 -297.5 -29.15 -297.5 -29.5 -297.4 -29.9 -297.25 -30.25 -297.0 -30.65 -297.0 -31.0 -297.0 -31.35 -296.9 -31.75 -297.15 -32.1 -297.5 -32.5 -298.25 -33.25 -298.4 -33.65 -298.5 -34.0 -298.9 -34.4 -299.25 -34.75 -299.65 -35.15 -301.25 -38.1 -303.4 -41.5 M-293.8 -23.3 L-294.25 -22.9 -294.4 -22.8 -294.35 -22.65 -294.2 -22.4 -293.7 -23.35 -293.8 -23.3 M-288.55 76.5 L-288.75 76.1 -289.0 75.35 -289.0 74.25 -289.0 72.75 -289.0 72.0 -289.0 71.25 -289.0 70.85 -288.7 70.1 -288.45 69.4 -288.15 68.6 -288.0 68.25 -288.0 67.85 -288.0 67.5 -288.0 67.1 -287.9 66.75 -287.75 66.35 -287.65 66.0 -287.5 65.6 -287.5 65.25 -287.5 64.85 -287.35 64.5 -287.15 64.1 -287.0 63.75 -287.0 63.35 -287.0 63.0 -287.0 62.6 -287.0 61.85 -286.7 61.1 -286.45 60.4 -286.15 59.6 -286.0 59.25 -286.0 58.85 -286.0 58.5 -286.0 58.1 -285.25 55.85 -284.65 54.0 -284.15 52.5 -283.75 51.35 -282.75 49.9 -282.15 48.3 -281.75 47.25 -281.5 46.85 -281.5 46.5 -281.5 46.1 -281.5 45.75 -281.5 45.0 -281.4 44.6 -281.25 44.25 -281.0 43.85 -281.15 43.5 -281.25 43.1 -281.4 42.75 -281.5 42.35 -281.5 42.0 -281.5 41.6 -281.75 41.25 -281.9 40.85 -282.0 40.5 -282.4 40.15 -283.1 39.7 -284.0 39.0 -284.25 38.6 -284.4 38.25 -284.85 37.45 -285.0 37.1 -285.65 36.75 -286.15 36.35 -286.4 36.1 -288.1 35.7 -289.65 35.25 Q-293.5 33.2 -297.45 31.25 L-303.4 28.1 -304.55 27.8 -304.5 27.85 -304.3 28.25 -304.25 28.6 -304.25 29.0 -304.25 29.35 -304.25 29.75 -305.3 31.2 Q-305.8 31.9 -306.0 32.75 L-306.4 33.1 -306.75 33.5 -306.9 33.85 -307.0 34.25 -307.4 34.6 -307.75 35.0 -307.9 35.35 -308.0 35.75 -308.4 36.1 -308.75 36.5 -309.15 36.85 Q-309.4 37.75 -310.1 38.4 L-311.65 39.85 -312.25 41.0 -313.25 42.5 -313.65 42.85 -314.25 43.25 -314.55 43.6 -314.65 43.75 -314.55 43.8 -313.9 44.1 -313.55 44.5 -313.35 44.85 -313.25 45.05 -309.45 45.9 Q-306.75 46.8 -304.0 46.0 L-303.05 46.3 -302.4 46.6 -302.05 47.0 -301.85 47.35 -301.65 47.75 -301.55 48.1 -301.5 48.5 -301.55 48.85 -301.65 49.25 -301.55 49.3 -300.9 49.6 -300.55 50.0 -300.35 50.35 -300.0 51.1 -300.0 51.5 -300.0 52.25 -300.0 53.35 -300.15 53.75 -300.35 54.15 -300.5 54.5 -300.5 54.85 -300.5 55.6 -300.5 56.75 -300.5 57.1 -300.65 57.5 -300.75 57.85 -301.0 58.6 -301.0 59.0 -301.0 59.35 -301.0 59.75 -301.0 60.1 -301.15 60.5 -301.25 60.85 -301.5 61.6 -301.5 62.0 -301.5 62.75 -301.5 63.85 -301.65 64.25 -301.85 64.65 -302.0 65.0 -302.0 65.35 -302.0 65.75 -302.0 66.1 -302.15 66.5 -302.25 66.85 -302.5 67.6 -302.5 68.0 -302.5 68.35 -302.65 68.75 -302.85 69.15 -303.0 69.5 -303.0 71.75 -303.0 74.9 Q-299.35 76.25 -295.5 76.65 -292.0 77.0 -288.55 76.75 L-288.45 76.75 -288.55 76.5" fill="#000000" fill-rule="evenodd" stroke="none"/>
    <path d="M-351.5 -8.0 L-351.5 -6.9 -351.5 -3.5 -351.5 -2.4 -351.5 -1.65 -351.4 -1.25 -351.25 -0.9 -351.0 -0.5 -350.6 -0.15 -350.15 0.25 -349.0 0.45 -348.5 0.5 -347.55 0.2 -346.9 -0.15 -346.75 -0.2 -346.25 -0.4 Q-343.6 -2.1 -341.35 -4.2 L-338.35 -6.85 -338.1 -6.65 -337.65 -6.25 -336.15 -5.7 -334.5 -5.0 -334.15 -4.65 -333.75 -4.25 -333.4 -3.9 -332.65 -3.5 -332.3 -3.25 -333.15 -2.4 -333.35 -2.0 -333.55 -1.65 -333.75 -1.25 -334.15 -0.9 -334.5 -0.5 -334.75 -0.1 -334.9 0.25 -335.15 0.6 -335.45 1.0 -335.9 1.75 -336.15 2.1 -336.5 2.5 -336.9 2.85 -337.25 3.25 -337.4 3.6 -337.5 4.0 -337.9 4.35 -338.25 4.75 -338.4 5.1 -338.55 5.5 -338.75 5.9 -339.15 6.6 -339.4 7.0 -339.7 8.1 -340.2 9.25 -340.55 10.0 -340.95 10.7 -341.5 11.85 -341.5 12.25 -341.5 12.6 -341.65 13.0 -341.75 13.35 -341.9 13.75 -342.15 14.1 -342.4 14.5 -342.5 14.85 -342.5 15.1 Q-340.7 16.8 -345.5 18.55 L-346.2 18.2 -348.5 17.0 -353.3 13.0 Q-356.45 10.25 -360.5 10.0 L-360.5 10.05 -361.25 10.1 -362.75 10.65 -364.4 11.3 -365.65 11.75 -367.05 12.85 -368.75 14.25 -369.5 15.0 -369.9 15.7 -370.65 17.3 -371.25 18.75 -371.5 19.5 -371.5 19.85 -371.5 21.0 -371.5 21.75 -371.5 22.5 -371.5 22.85 -371.75 23.25 -371.9 23.6 -372.0 24.0 -372.0 24.35 -372.0 24.75 -372.0 25.1 -372.0 25.5 -372.0 25.85 -372.0 26.25 -372.15 26.6 -372.35 27.0 -372.5 27.35 -372.5 27.75 -372.5 28.1 -372.95 29.2 -373.55 30.35 -373.85 31.1 -374.0 31.5 -375.0 31.5 -375.0 32.5 -375.0 33.25 -375.15 33.6 -375.35 34.0 -375.5 34.35 -375.5 34.75 -375.5 35.1 -375.65 35.5 -375.75 35.85 -375.9 36.2 -376.35 37.0 -376.55 37.35 -376.75 37.75 -377.15 38.1 -377.5 38.5 -377.9 38.85 -378.25 39.25 -378.4 39.6 -378.5 40.0 -378.9 40.35 -379.25 40.75 -379.4 41.1 -379.5 41.5 Q-381.05 43.3 -382.9 44.6 L-384.15 45.6 -384.9 46.35 -387.0 47.0 -389.95 47.35 -389.9 47.25 -389.75 46.9 -389.5 46.5 -388.9 45.7 -388.75 45.4 -388.5 45.0 -385.9 42.35 -382.5 39.0 -381.0 37.5 -380.85 37.15 -379.35 34.1 -379.15 33.35 -378.7 32.2 -378.5 31.85 -378.5 31.5 -378.5 31.1 -378.5 30.75 -378.5 30.35 -378.5 30.0 -378.35 29.65 -378.15 29.25 -378.0 28.85 -378.0 28.5 -378.0 28.1 -378.0 27.75 -378.15 27.35 -378.3 27.0 -378.45 26.6 -378.5 26.25 -378.5 25.85 -378.5 25.1 -378.5 24.75 -378.5 24.35 -378.5 23.6 -378.5 23.25 -378.65 22.85 -378.8 22.5 -379.0 22.1 -379.0 21.75 -379.0 21.35 -379.15 21.0 -379.25 20.6 -379.4 20.25 -379.5 19.85 -379.5 18.35 -379.5 16.85 -379.5 16.5 -379.6 15.35 -379.65 15.0 -379.55 14.6 -379.5 14.25 -379.5 13.85 -379.5 13.5 -379.35 13.15 -379.15 12.75 -379.0 12.35 -379.0 12.0 -379.0 11.6 -379.0 11.25 -379.0 10.85 -378.55 9.75 -378.15 8.6 -378.05 8.25 -377.65 7.1 -377.5 6.75 -377.5 6.35 -377.5 6.0 -377.15 5.6 -376.55 4.5 -376.35 4.15 -376.15 3.75 -375.75 3.0 -375.65 2.6 -374.15 1.1 -373.75 0.75 -372.8 -0.35 -372.5 -0.75 -369.95 -2.7 -367.0 -4.5 Q-366.0 -5.05 -364.9 -5.25 L-364.6 -5.5 -364.15 -5.9 Q-360.5 -7.85 -356.5 -7.5 -353.85 -7.25 -351.55 -8.2 L-351.5 -8.0 M-329.5 -39.5 L-328.45 -40.0 -327.65 -40.4 Q-323.1 -42.7 -318.5 -42.9 L-315.65 -42.5 -315.55 -42.1 -315.5 -41.75 -315.5 -41.4 Q-315.05 -40.7 -314.9 -39.9 L-314.65 -39.1 -314.55 -38.75 -314.5 -38.4 -314.4 -38.0 -313.9 -37.25 -313.75 -36.9 -313.55 -36.5 -313.4 -36.15 -313.25 -35.75 -312.9 -35.4 -312.5 -35.0 -312.4 -34.65 -312.25 -34.25 -312.05 -33.85 -311.85 -33.5 -311.65 -33.15 -304.25 -26.3 Q-302.75 -24.95 -301.4 -23.4 L-300.65 -23.0 -300.15 -22.6 -299.8 -22.25 -299.5 -21.9 -299.5 -21.5 -299.5 -21.15 -299.4 -20.75 -299.25 -20.4 -299.15 -20.0 -299.25 -19.65 -299.4 -19.25 -299.5 -18.85 -299.5 -18.5 -299.5 -18.15 -299.4 -17.75 -299.25 -17.45 -302.0 -17.5 -305.7 -16.75 -305.85 -17.15 -306.05 -17.5 -306.4 -17.9 -307.05 -18.15 -313.25 -19.15 -313.4 -19.25 -314.0 -19.55 -314.4 -19.9 -314.65 -20.25 -314.9 -20.65 -314.95 -21.0 Q-315.05 -21.8 -315.5 -22.5 L-315.9 -23.25 -316.15 -23.65 Q-316.7 -24.35 -317.55 -24.55 L-320.0 -25.0 -320.0 -24.95 -320.75 -24.9 -321.4 -24.65 -321.75 -24.25 -324.8 -21.3 -325.75 -20.15 Q-326.8 -19.6 -327.9 -19.2 -333.4 -17.2 -338.4 -14.15 -339.95 -12.4 -341.75 -10.95 -342.7 -10.15 -343.9 -9.65 L-346.5 -6.95 -346.5 -9.9 -346.5 -12.15 -346.5 -12.9 -346.4 -13.25 -346.25 -13.65 -346.15 -14.0 -346.0 -14.4 -346.0 -14.75 -346.0 -15.15 -346.0 -15.5 -345.2 -17.3 Q-343.55 -22.05 -341.15 -26.4 -339.85 -28.8 -338.15 -30.9 L-337.7 -31.6 -337.15 -32.4 -336.9 -32.75 -336.75 -33.1 -336.5 -33.5 -333.65 -36.0 -332.25 -37.25 -331.5 -38.0 -330.75 -38.4 -330.25 -38.75 -329.9 -39.15 -329.5 -39.5 M-303.4 -41.5 L-301.25 -38.1 -299.65 -35.15 -299.25 -34.75 -298.9 -34.4 -298.5 -34.0 -298.4 -33.65 -298.25 -33.25 -297.5 -32.5 -297.15 -32.1 -296.9 -31.75 -297.0 -31.35 -297.0 -31.0 -297.0 -30.65 -297.25 -30.25 -297.4 -29.9 -297.5 -29.5 -297.5 -29.15 -297.5 -28.4 -297.5 -28.0 -297.5 -27.65 -297.7 -27.3 -298.0 -27.5 Q-299.45 -28.95 -301.1 -30.2 L-302.25 -31.25 -303.0 -32.0 -303.25 -32.4 -303.4 -32.75 -303.65 -33.15 -304.15 -33.45 -306.0 -35.0 -306.4 -35.4 -306.75 -35.75 -307.15 -36.15 -307.75 -37.3 Q-308.6 -38.5 -309.25 -39.85 L-309.65 -40.65 -310.0 -41.4 -310.0 -41.75 -310.0 -42.15 -310.4 -43.25 -310.65 -44.0 -310.75 -44.35 -310.65 -44.5 -310.15 -44.9 Q-307.15 -46.1 -304.5 -45.65 L-304.25 -44.9 -304.15 -44.5 -304.0 -44.15 -304.0 -43.75 -304.0 -43.4 -303.85 -43.0 -303.55 -42.25 -303.5 -41.9 -303.4 -41.5 M-288.55 76.75 Q-292.0 77.0 -295.5 76.65 -299.35 76.25 -303.0 74.9 L-303.0 71.75 -303.0 69.5 -302.85 69.15 -302.65 68.75 -302.5 68.35 -302.5 68.0 -302.5 67.6 -302.25 66.85 -302.15 66.5 -302.0 66.1 -302.0 65.75 -302.0 65.35 -302.0 65.0 -301.85 64.65 -301.65 64.25 -301.5 63.85 -301.5 62.75 -301.5 62.0 -301.5 61.6 -301.25 60.85 -301.15 60.5 -301.0 60.1 -301.0 59.75 -301.0 59.35 -301.0 59.0 -301.0 58.6 -300.75 57.85 -300.65 57.5 -300.5 57.1 -300.5 56.75 -300.5 55.6 -300.5 54.85 -300.5 54.5 -300.35 54.15 -300.15 53.75 -300.0 53.35 -300.0 52.25 -300.0 51.5 -300.0 51.1 -300.35 50.35 -300.55 50.0 -300.9 49.6 -301.55 49.3 -301.65 49.25 -301.55 48.85 -301.5 48.5 -301.55 48.1 -301.65 47.75 -301.85 47.35 -302.05 47.0 -302.4 46.6 -303.05 46.3 -304.0 46.0 Q-306.75 46.8 -309.45 45.9 L-313.25 45.05 -313.35 44.85 -313.55 44.5 -313.9 44.1 -314.55 43.8 -314.65 43.75 -314.55 43.6 -314.25 43.25 -313.65 42.85 -313.25 42.5 -312.25 41.0 -311.65 39.85 -310.1 38.4 Q-309.4 37.75 -309.15 36.85 L-308.75 36.5 -308.4 36.1 -308.0 35.75 -307.9 35.35 -307.75 35.0 -307.4 34.6 -307.0 34.25 -306.9 33.85 -306.75 33.5 -306.4 33.1 -306.0 32.75 Q-305.8 31.9 -305.3 31.2 L-304.25 29.75 -304.25 29.35 -304.25 29.0 -304.25 28.6 -304.3 28.25 -304.5 27.85 -304.55 27.8 -303.4 28.1 -297.45 31.25 Q-293.5 33.2 -289.65 35.25 L-288.1 35.7 -286.4 36.1 -286.15 36.35 -285.65 36.75 -285.0 37.1 -284.85 37.45 -284.4 38.25 -284.25 38.6 -284.0 39.0 -283.1 39.7 -282.4 40.15 -282.0 40.5 -281.9 40.85 -281.75 41.25 -281.5 41.6 -281.5 42.0 -281.5 42.35 -281.4 42.75 -281.25 43.1 -281.15 43.5 -281.0 43.85 -281.25 44.25 -281.4 44.6 -281.5 45.0 -281.5 45.75 -281.5 46.1 -281.5 46.5 -281.5 46.85 -281.75 47.25 -282.15 48.3 -282.75 49.9 -283.75 51.35 -284.15 52.5 -284.65 54.0 -285.25 55.85 -286.0 58.1 -286.0 58.5 -286.0 58.85 -286.0 59.25 -286.15 59.6 -286.45 60.4 -286.7 61.1 -287.0 61.85 -287.0 62.6 -287.0 63.0 -287.0 63.35 -287.0 63.75 -287.15 64.1 -287.35 64.5 -287.5 64.85 -287.5 65.25 -287.5 65.6 -287.65 66.0 -287.75 66.35 -287.9 66.75 -288.0 67.1 -288.0 67.5 -288.0 67.85 -288.0 68.25 -288.15 68.6 -288.45 69.4 -288.7 70.1 -289.0 70.85 -289.0 71.25 -289.0 72.0 -289.0 72.75 -289.0 74.25 -289.0 75.35 -288.75 76.1 -288.55 76.5 -288.55 76.75" fill="#80a839" fill-rule="evenodd" stroke="none"/>
    <path d="M-318.3 44.4 L-319.3 45.2 -320.75 46.75 -320.9 47.1 -321.0 47.5 -321.4 47.85 -321.75 48.25 Q-322.2 49.7 -323.1 51.0 L-324.25 52.35 -324.4 52.75 -324.5 53.1 -324.65 53.5 -324.9 53.85 -325.25 54.25 -325.65 54.6 -326.0 55.0 -326.25 55.4 -326.4 55.75 -326.65 56.1 -327.0 56.5 -328.5 58.0 -329.25 58.75 -329.4 59.1 -329.5 59.5 -329.9 59.85 -330.25 60.25 -330.4 60.6 -330.5 61.0 -330.9 61.35 -331.25 61.75 -331.4 62.1 -331.5 62.5 -332.25 63.25 -332.65 63.6 -333.0 64.0 -333.25 64.4 -333.4 64.75 -333.65 65.1 -334.15 65.45 -334.9 65.85 Q-336.2 67.3 -338.05 67.95 -346.1 70.75 -353.25 75.35 L-353.4 75.75 -353.5 76.1 -353.5 76.5 -353.5 76.6 -353.5 76.85 -353.5 77.0 -353.35 77.75 -353.25 78.1 -353.15 78.5 -353.0 78.85 -353.0 79.6 -353.05 82.6 -353.05 83.2 Q-360.1 82.2 -366.5 79.85 L-366.4 79.55 Q-365.05 78.05 -364.35 76.1 L-363.0 72.75 -363.0 72.35 -363.0 72.0 -362.85 71.65 -362.65 71.25 -362.5 70.85 -362.5 70.5 -362.5 69.75 -362.5 69.35 -362.5 69.0 -362.35 68.65 -362.15 68.25 -362.0 67.85 -362.0 67.5 -362.0 67.1 -362.0 66.75 -362.0 66.35 -362.25 65.6 -362.4 65.25 -362.5 64.85 -362.5 64.5 -362.5 64.1 -362.5 63.75 -362.5 63.35 -362.75 62.6 -362.8 62.25 -362.75 61.85 Q-362.5 61.05 -361.75 60.85 -359.05 60.15 -356.5 59.15 L-356.5 58.05 Q-354.0 57.3 -351.65 56.25 -344.25 52.9 -338.0 47.85 L-337.8 47.5 -337.65 47.1 -337.5 46.8 -337.4 46.75 -337.1 46.5 -336.65 46.1 -336.4 45.75 -336.25 45.35 -336.15 45.0 -336.05 44.6 -336.0 44.25 -336.05 43.85 -336.15 43.5 -336.25 43.1 -336.4 42.75 -336.65 42.4 -337.0 42.0 -337.25 41.6 -337.4 41.25 -337.8 40.5 -338.0 40.1 -338.0 39.75 -338.0 39.35 -338.15 39.0 -338.25 38.6 -338.4 38.25 -338.5 37.85 -338.5 36.0 -338.5 34.1 -338.5 30.75 -338.5 28.65 Q-339.1 27.75 -338.85 26.0 L-338.15 20.25 -338.0 19.85 -338.0 19.5 -338.0 19.1 -338.0 18.75 -338.0 18.35 -337.45 17.25 -336.3 13.95 -333.95 8.2 Q-333.35 6.7 -332.15 5.6 L-331.9 5.25 -331.75 4.9 -331.5 4.5 -331.2 4.1 -330.75 3.4 -330.5 3.0 -330.15 2.6 -329.8 2.2 -329.3 1.5 -329.15 1.1 -328.0 0.0 -326.15 -1.9 -325.0 -3.0 -323.5 -4.5 Q-322.55 -4.85 -321.8 -5.55 -320.25 -7.0 -318.35 -7.8 -316.1 -8.7 -314.25 -10.25 L-311.5 -10.75 -298.0 -12.2 -298.0 -16.2 -297.0 -16.05 -296.5 -16.0 -296.5 -15.9 -296.65 -15.5 -296.75 -15.15 -296.9 -14.75 -297.0 -14.4 -297.0 -14.0 -297.0 -13.65 -296.9 -13.25 -296.75 -12.9 -296.5 -12.5 -296.1 -12.15 -295.65 -11.75 -294.5 -11.55 -294.0 -11.5 -293.25 -11.7 -292.75 -11.9 -292.3 -12.3 -292.0 -12.65 -291.8 -13.0 -291.65 -13.4 -291.5 -13.75 -291.5 -14.15 -291.5 -14.5 -291.05 -15.65 -289.9 -18.95 -288.35 -22.35 -287.1 -24.55 -286.0 -26.5 -285.65 -26.9 -285.25 -27.25 -284.9 -27.65 -284.5 -28.0 -284.15 -28.4 -283.75 -29.1 -283.55 -29.5 -283.35 -29.85 -283.1 -30.25 -282.75 -30.65 -282.15 -31.0 -281.65 -31.4 Q-276.55 -33.45 -271.0 -33.65 -262.2 -34.05 -253.75 -31.4 L-253.4 -31.15 -252.6 -30.8 -251.5 -30.5 -251.25 -30.35 -250.9 -30.15 -250.1 -29.8 -249.0 -29.5 -248.75 -29.35 -246.9 -28.35 -246.15 -28.0 -245.65 -27.65 -245.15 -27.25 -243.9 -26.9 -243.5 -26.55 -242.9 -26.15 -242.3 -25.7 -242.0 -25.4 -241.85 -25.0 -241.65 -24.65 -241.25 -24.25 -240.9 -23.9 -240.15 -23.5 -239.65 -23.1 -239.25 -22.75 -238.9 -22.4 -238.15 -22.0 -237.65 -21.6 -237.25 -21.25 -236.9 -20.9 -235.65 -20.1 -235.25 -19.75 -234.9 -19.4 -234.5 -19.0 -234.4 -18.65 -234.2 -18.3 -233.9 -17.9 -233.5 -17.55 -232.9 -17.1 -231.9 -16.35 -231.5 -16.0 -231.15 -15.65 -230.65 -15.25 Q-228.3 -14.55 -226.0 -15.2 L-223.9 -15.7 -223.4 -15.75 -223.65 -15.4 -223.85 -15.0 -224.0 -14.65 -224.0 -14.25 -224.0 -13.9 -224.15 -13.5 -224.25 -13.15 -224.4 -12.75 -224.65 -12.0 -224.75 -11.65 -224.9 -11.25 -225.0 -10.9 -225.0 -10.5 -225.0 -10.15 -225.0 -9.75 -225.65 -8.3 -226.45 -5.6 -227.3 -3.45 -228.1 -1.55 Q-228.3 -0.95 -228.65 -0.4 L-229.0 0.0 -229.4 0.35 -229.75 0.75 -230.1 1.15 -230.4 1.5 -230.5 1.85 -230.55 2.25 -230.65 2.6 -231.0 3.0 -231.25 3.4 -231.7 4.1 -232.0 4.5 -232.3 4.8 -232.75 5.1 -233.5 5.1 -234.5 4.95 -235.0 4.7 -235.4 4.35 Q-236.4 1.45 -237.7 -1.35 -239.35 -4.9 -242.95 -6.15 -245.9 -7.15 -248.65 -8.65 -254.35 -12.15 -261.15 -9.9 -264.0 -9.0 -266.4 -7.15 L-267.6 -6.7 -268.4 -6.35 -269.0 -6.0 -269.4 -5.65 -270.25 -5.35 -270.65 -5.25 -271.0 -5.0 -271.4 -4.65 -274.55 -3.55 Q-276.7 -2.6 -279.05 -2.1 L-282.65 -0.75 -284.5 -0.5 -285.65 -0.25 -286.1 0.15 -286.5 0.5 -286.75 0.85 -286.9 1.25 -287.0 1.6 -287.0 2.0 -287.0 2.35 -286.9 2.75 -286.75 3.1 -286.5 3.5 -286.1 3.85 -285.65 4.25 -285.5 4.25 -285.05 4.25 -285.05 4.3 -285.5 4.45 -287.55 5.0 -313.25 10.5 -313.5 10.75 -313.9 11.1 -314.5 11.4 -314.9 11.6 -316.75 13.5 -320.15 16.85 -320.25 17.25 -320.4 17.6 -321.1 18.4 -321.75 19.1 -321.75 19.5 -321.75 19.85 -322.0 20.25 -322.25 20.6 -322.25 21.0 -322.25 21.35 Q-322.85 22.25 -323.1 23.25 L-323.75 24.75 -323.75 25.5 -323.75 27.0 -323.75 28.1 -323.9 28.5 -324.1 28.9 -324.25 29.25 -324.25 29.6 -324.25 31.1 -324.25 32.25 -324.1 32.6 -323.9 33.0 -323.75 33.35 -323.75 33.75 -323.7 34.85 -323.65 35.25 -326.0 35.25 -326.05 35.3 -326.75 35.75 -327.15 36.35 -327.5 36.45 -327.85 36.65 -328.25 37.0 -328.15 37.7 -327.9 38.5 -327.5 39.25 -326.4 40.35 -325.25 41.5 -324.25 42.0 -323.4 42.35 -323.0 42.75 -322.65 43.1 -322.25 43.5 -321.25 43.95 -320.5 44.25 -319.0 44.2 -318.5 44.1 -318.3 44.4" fill="#b1e34d" fill-rule="evenodd" stroke="none"/>
    <path d="M-285.5 7.5 L-285.5 8.6 -285.5 9.75 Q-284.75 13.2 -281.25 13.7 L-279.9 13.8 -279.8 13.9 -290.65 14.1 -294.05 14.45 Q-299.05 15.35 -302.9 18.85 -304.05 19.35 -304.95 20.3 L-305.9 21.5 -305.95 21.85 -306.0 22.6 -306.0 23.0 -306.0 23.35 -305.9 23.75 -305.8 23.9 -305.9 24.0 -306.0 24.75 -306.15 24.85 Q-307.15 25.7 -307.75 26.75 L-307.75 27.1 -307.7 28.6 -307.75 29.75 -308.75 31.6 -310.15 33.85 -310.5 34.25 -310.9 34.6 -311.25 35.0 -311.3 35.35 -311.5 35.75 -311.9 36.1 -312.25 36.5 -312.65 36.85 -312.75 37.25 -312.9 37.6 -314.0 38.75 -315.15 39.85 -315.25 40.25 -315.4 40.6 -316.15 41.35 -316.9 42.1 -317.2 42.55 -317.25 42.85 -317.25 43.25 -316.8 43.7 -317.15 43.75 -318.3 44.4 -318.5 44.1 -318.15 43.85 -317.9 43.5 -317.8 43.1 -317.75 42.75 -318.45 42.15 Q-319.45 41.6 -320.5 41.25 L-320.9 40.9 -321.4 40.55 -322.0 40.25 -322.15 40.1 -322.9 39.55 -323.65 39.1 -324.35 38.35 -323.5 38.45 -322.5 38.75 -321.5 38.7 -321.0 38.6 -320.65 38.35 -320.4 38.0 -320.3 37.6 -320.25 37.25 -320.95 36.65 -321.9 36.1 -321.75 35.95 -321.5 35.75 -321.35 35.0 -321.25 33.5 -321.25 32.35 -321.4 32.0 -321.6 31.6 -321.75 31.25 -321.75 30.85 -321.75 30.5 -321.75 30.1 -321.55 29.75 -321.4 29.35 -321.25 29.0 -321.25 28.25 -321.25 26.75 -321.25 25.6 -320.55 23.75 -319.75 22.25 -319.75 21.85 -319.75 21.5 -318.75 20.0 -318.15 18.85 -317.4 18.1 -316.9 17.35 -316.4 17.0 -316.0 16.6 -315.8 16.25 -315.65 15.85 -315.0 15.6 -314.75 15.5 -313.75 14.5 -312.65 13.35 Q-309.25 11.55 -305.4 11.0 L-300.0 10.75 -294.95 10.05 Q-290.1 9.2 -285.5 7.5" fill="#cc3300" fill-rule="evenodd" stroke="none"/>
  </g>
</svg>
