<?xml version="1.0" encoding="UTF-8" standalone="no"?>
<svg xmlns:ffdec="https://www.free-decompiler.com/flash" xmlns:xlink="http://www.w3.org/1999/xlink" ffdec:objectType="shape" height="187.0px" width="156.3px" xmlns="http://www.w3.org/2000/svg">
  <g transform="matrix(1.0, 0.0, 0.0, 1.0, 371.9, 107.9)">
    <path d="M-334.05 -45.1 L-327.7 -48.6 Q-323.1 -50.9 -319.4 -54.15 -317.75 -54.55 -316.15 -55.65 L-311.7 -58.2 Q-309.15 -59.25 -306.95 -57.4 L-305.45 -56.05 Q-304.45 -65.8 -297.4 -73.85 L-297.4 -74.5 -293.3 -78.55 -291.95 -79.65 Q-289.4 -81.85 -286.45 -83.35 L-285.85 -84.45 -282.65 -90.4 -280.45 -94.75 Q-278.85 -98.25 -275.95 -100.2 -275.0 -101.75 -273.65 -103.0 -272.15 -104.5 -271.0 -106.25 -269.4 -108.65 -266.65 -107.55 -260.6 -104.95 -256.9 -99.25 -255.95 -96.95 -253.95 -95.45 -250.3 -92.65 -248.45 -88.7 -245.9 -83.3 -242.0 -78.65 L-241.7 -77.25 Q-234.1 -70.0 -230.6 -60.1 -226.7 -56.95 -223.9 -52.75 L-222.35 -50.6 Q-219.55 -46.95 -217.65 -42.9 -216.6 -41.25 -215.85 -39.2 -215.35 -37.9 -215.85 -36.9 L-216.25 -36.15 -228.5 -29.55 -224.35 -27.75 Q-221.95 -29.0 -219.5 -29.25 -218.4 -29.2 -217.95 -28.25 L-217.65 -27.65 -219.05 -23.55 -221.05 -17.9 Q-222.9 -12.6 -225.5 -7.4 L-226.4 -6.75 Q-241.15 -9.65 -256.2 -11.6 -260.15 -9.5 -264.4 -8.0 L-265.85 -6.7 Q-267.1 -5.45 -268.5 -5.7 L-268.65 -5.5 -269.05 -4.55 Q-269.55 -3.1 -270.45 -2.05 L-271.4 -0.85 -273.85 3.25 -274.85 4.2 Q-278.2 6.25 -279.65 9.75 L-279.45 10.15 -279.4 10.25 -279.65 12.1 Q-279.9 14.4 -280.5 16.7 -282.65 25.3 -283.4 33.85 L-283.8 37.8 Q-284.05 40.3 -284.65 42.8 L-286.75 50.65 -287.4 53.6 Q-287.55 55.0 -288.05 56.2 -288.8 58.15 -289.2 60.35 -290.05 64.95 -292.15 69.35 L-296.4 78.25 Q-297.95 78.15 -299.25 78.95 L-299.95 79.05 -303.05 78.45 -306.4 77.8 Q-309.85 77.0 -312.9 75.2 L-317.25 72.45 Q-320.35 70.5 -320.4 67.1 L-321.25 66.35 -321.3 65.6 Q-321.4 64.1 -321.1 62.65 -320.75 61.15 -320.55 59.2 L-320.2 57.65 Q-318.8 54.55 -317.9 51.35 L-317.6 49.85 Q-316.75 43.55 -313.65 37.95 -312.65 36.1 -313.1 34.5 L-311.25 27.85 -316.85 34.5 -317.9 34.5 -320.75 36.85 -321.0 37.6 Q-329.7 46.55 -340.45 53.0 -342.6 54.3 -345.05 53.6 -349.75 52.4 -353.6 48.95 -357.65 45.4 -360.95 41.35 -361.75 40.4 -362.2 39.3 -363.3 36.55 -363.2 33.65 -360.6 31.3 -357.6 29.55 -356.55 28.9 -356.25 27.6 -345.4 19.0 -334.05 10.8 L-338.5 8.85 -342.0 7.35 Q-351.95 7.65 -361.65 10.3 L-367.0 10.0 Q-370.1 8.85 -371.85 5.85 L-371.9 4.0 Q-370.35 1.4 -367.45 0.65 -364.3 0.0 -361.35 -1.35 -358.5 -2.65 -355.9 -4.4 L-348.65 -9.1 Q-346.1 -10.85 -342.95 -11.4 -335.0 -12.35 -327.15 -10.65 -325.6 -9.1 -323.5 -8.35 L-321.85 -7.55 -321.45 -8.1 Q-324.05 -12.45 -325.45 -17.15 -326.15 -19.4 -325.5 -21.55 -324.95 -23.25 -325.25 -25.0 -325.9 -29.2 -323.8 -32.75 -330.95 -34.0 -337.9 -36.35 -340.65 -37.3 -341.9 -39.75 L-341.75 -40.9 -340.95 -41.55 Q-337.45 -43.25 -334.05 -45.1 M-327.6 -6.05 Q-333.05 -8.6 -339.55 -7.75 -345.1 -7.5 -348.85 -4.3 -356.9 2.65 -367.4 5.1 -364.25 7.4 -360.6 6.3 -354.25 4.45 -347.5 3.3 -343.05 2.35 -339.0 4.25 -334.7 6.15 -330.2 7.7 -328.25 5.45 -325.9 5.0 L-324.5 -1.45 -323.55 -4.35 -327.6 -6.05 M-335.25 -40.15 Q-331.6 -38.55 -327.45 -37.6 -325.05 -37.15 -322.75 -36.35 L-322.1 -36.0 -318.7 -38.95 Q-314.5 -42.25 -310.0 -44.9 L-309.0 -44.55 -305.0 -46.0 Q-305.45 -48.3 -305.55 -50.5 L-306.8 -51.4 -308.75 -53.5 Q-309.8 -54.7 -310.75 -54.6 -314.65 -51.85 -318.7 -49.45 L-322.6 -46.95 Q-328.55 -42.95 -335.25 -40.15 M-259.4 -95.6 L-261.3 -97.95 Q-264.05 -100.95 -267.15 -103.5 -270.1 -101.2 -272.55 -98.45 L-273.85 -96.45 Q-275.65 -92.95 -276.6 -89.05 L-276.95 -86.8 Q-273.9 -88.3 -270.8 -88.75 -259.35 -89.35 -249.75 -83.4 L-257.0 -93.4 Q-258.5 -94.2 -259.4 -95.6 M-233.3 -49.1 L-233.7 -48.7 -233.65 -56.9 -234.25 -57.75 -234.15 -59.4 Q-238.85 -71.55 -249.8 -78.8 -258.9 -84.8 -269.7 -85.1 L-269.15 -84.75 Q-274.85 -83.8 -280.15 -81.15 -284.05 -79.25 -287.9 -76.85 -295.85 -71.85 -299.75 -63.55 -302.45 -57.9 -302.25 -52.05 L-302.15 -51.9 -302.2 -51.65 Q-302.05 -48.35 -300.95 -45.0 -298.15 -36.3 -291.5 -29.95 -284.55 -23.45 -275.35 -20.5 -265.85 -17.45 -256.25 -19.85 -247.05 -22.35 -240.95 -29.3 -239.35 -31.15 -238.2 -33.35 -236.35 -36.95 -235.35 -40.95 L-235.35 -41.0 -225.7 -40.0 -224.9 -39.85 -224.75 -38.4 -225.3 -37.65 -233.05 -36.8 -235.4 -31.15 Q-227.35 -34.0 -220.45 -38.7 -221.4 -42.65 -224.3 -46.4 L-226.75 -49.9 -228.65 -52.25 -229.0 -52.9 -229.7 -53.35 -233.3 -49.1 M-314.8 -0.75 Q-317.2 -2.35 -318.95 -4.8 L-320.95 1.3 -321.3 2.35 Q-321.8 3.55 -321.6 5.0 -321.25 7.7 -323.85 7.75 -327.25 10.85 -331.05 13.55 L-338.3 18.8 Q-339.45 19.6 -340.6 20.55 L-342.3 21.75 Q-349.2 26.1 -354.85 31.9 L-347.15 32.35 Q-346.15 33.0 -346.2 34.25 -346.3 35.8 -345.65 37.15 -345.05 38.35 -345.0 39.45 -344.85 41.9 -347.0 42.35 L-348.85 41.0 -349.9 36.5 -351.1 36.2 -353.0 36.15 Q-356.3 37.15 -358.4 35.25 L-358.6 35.4 -358.35 37.25 -357.55 38.95 -355.55 41.4 Q-350.55 46.95 -343.7 50.05 -335.1 45.05 -327.8 38.05 -323.05 33.5 -318.0 29.5 L-317.9 30.0 -312.85 23.45 -314.15 22.0 Q-315.85 19.7 -313.4 18.8 L-315.75 16.85 Q-315.65 13.05 -314.8 9.35 L-314.4 7.1 Q-313.9 3.6 -311.45 1.4 L-314.8 -0.75 M-303.9 -41.75 Q-308.15 -40.65 -311.8 -37.9 L-314.3 -36.35 Q-319.05 -33.9 -320.9 -28.9 -321.7 -26.75 -321.8 -24.15 -321.95 -20.1 -320.95 -16.3 -319.8 -12.15 -317.0 -9.15 L-314.65 -5.75 Q-306.75 0.05 -297.2 1.9 -287.6 3.6 -278.15 1.0 L-282.7 -1.9 -287.8 -6.05 Q-289.85 -7.9 -290.9 -10.3 -291.95 -12.65 -290.9 -14.9 L-293.0 -15.0 -294.7 -14.0 -295.55 -13.7 -296.5 -13.75 -297.85 -14.25 -299.9 -14.4 Q-301.7 -16.45 -303.85 -17.85 -304.8 -18.45 -305.35 -19.4 -307.9 -23.45 -308.9 -28.25 L-307.9 -29.65 -306.95 -29.75 Q-305.95 -30.0 -305.25 -29.15 -304.0 -27.5 -303.75 -25.5 L-303.65 -24.4 -298.8 -32.3 -303.9 -41.75 M-291.25 -19.25 Q-289.7 -18.95 -288.55 -18.15 -286.25 -16.3 -287.2 -12.8 L-282.4 -19.7 Q-290.3 -23.55 -296.5 -29.4 L-300.5 -21.5 -301.25 -20.95 -296.95 -17.75 -295.65 -18.0 -294.4 -19.15 -291.25 -19.25 M-285.15 -9.25 L-284.65 -8.55 Q-280.65 -3.95 -275.4 -2.5 L-267.6 -15.45 -279.3 -17.9 -285.15 -9.25 M-263.65 -12.5 L-264.2 -12.55 -264.4 -12.2 -263.65 -12.5 M-243.65 -21.85 Q-249.75 -17.4 -257.25 -16.1 L-256.2 -16.0 -255.5 -16.4 -254.95 -15.85 Q-241.6 -14.25 -228.65 -10.25 L-223.4 -23.4 -226.6 -24.5 -234.15 -26.25 -236.1 -26.5 Q-238.0 -25.9 -239.75 -24.55 L-243.65 -21.85 M-295.25 7.2 L-295.05 6.3 -308.75 2.6 -308.65 3.25 -310.15 5.85 -311.65 15.3 -310.6 16.15 Q-306.2 20.0 -301.3 21.1 L-295.25 7.2 M-285.8 20.25 L-285.0 16.5 Q-284.15 12.3 -283.9 8.0 L-282.3 6.2 -291.05 6.65 -292.25 8.75 -297.8 23.35 -298.0 25.0 -298.7 25.45 Q-301.8 26.4 -304.8 24.35 L-305.0 26.0 -306.15 26.8 -308.65 33.0 -307.95 33.0 Q-308.9 35.15 -309.55 37.6 L-309.9 38.65 -312.35 44.85 -312.75 46.25 Q-313.55 50.0 -314.65 53.75 L-317.65 65.35 -316.25 67.6 -314.85 68.7 -311.8 71.05 Q-310.25 72.15 -308.4 72.45 -304.2 73.45 -300.4 75.0 L-300.15 73.5 -298.9 72.35 -300.0 64.1 -308.9 64.6 -309.9 63.5 -309.25 61.6 Q-304.55 61.0 -300.15 59.25 -297.65 58.4 -296.75 60.9 L-296.55 61.55 -295.3 66.85 -293.55 61.25 -293.2 60.15 Q-291.7 55.65 -290.95 51.05 -290.4 47.8 -289.35 44.8 -287.65 39.9 -287.85 34.5 L-287.75 33.75 Q-286.8 29.7 -286.6 25.5 -286.45 22.85 -285.8 20.25" fill="#000000" fill-rule="evenodd" stroke="none"/>
    <path d="M-335.25 -40.15 Q-328.55 -42.95 -322.6 -46.95 L-318.7 -49.45 Q-314.65 -51.85 -310.75 -54.6 -309.8 -54.7 -308.75 -53.5 L-306.8 -51.4 -305.55 -50.5 Q-305.45 -48.3 -305.0 -46.0 L-309.0 -44.55 -310.0 -44.9 Q-314.5 -42.25 -318.7 -38.95 L-322.1 -36.0 -322.75 -36.35 Q-325.05 -37.15 -327.45 -37.6 -331.6 -38.55 -335.25 -40.15 M-327.6 -6.05 L-323.55 -4.35 -324.5 -1.45 -325.9 5.0 Q-328.25 5.45 -330.2 7.7 -334.7 6.15 -339.0 4.25 -343.05 2.35 -347.5 3.3 -354.25 4.45 -360.6 6.3 -364.25 7.4 -367.4 5.1 -356.9 2.65 -348.85 -4.3 -345.1 -7.5 -339.55 -7.75 -333.05 -8.6 -327.6 -6.05 M-243.65 -21.85 L-239.75 -24.55 Q-238.0 -25.9 -236.1 -26.5 L-234.15 -26.25 -226.6 -24.5 -223.4 -23.4 -228.65 -10.25 Q-241.6 -14.25 -254.95 -15.85 L-255.5 -16.4 -256.2 -16.0 -257.25 -16.1 Q-249.75 -17.4 -243.65 -21.85" fill="#80a839" fill-rule="evenodd" stroke="none"/>
    <path d="M-259.4 -95.6 Q-258.5 -94.2 -257.0 -93.4 L-249.75 -83.4 Q-259.35 -89.35 -270.8 -88.75 -273.9 -88.3 -276.95 -86.8 L-276.6 -89.05 Q-275.65 -92.95 -273.85 -96.45 L-272.55 -98.45 Q-270.1 -101.2 -267.15 -103.5 -264.05 -100.95 -261.3 -97.95 L-259.4 -95.6 M-235.35 -41.0 Q-234.8 -42.55 -233.3 -49.1 L-229.7 -53.35 -229.0 -52.9 -228.65 -52.25 -226.75 -49.9 -224.3 -46.4 Q-221.4 -42.65 -220.45 -38.7 -227.35 -34.0 -235.4 -31.15 L-233.05 -36.8 -225.3 -37.65 -224.75 -38.4 -224.9 -39.85 -225.7 -40.0 -235.35 -41.0 M-291.25 -19.25 L-294.4 -19.15 -295.65 -18.0 -296.95 -17.75 -301.25 -20.95 -300.5 -21.5 -296.5 -29.4 Q-290.3 -23.55 -282.4 -19.7 L-287.2 -12.8 Q-286.25 -16.3 -288.55 -18.15 -289.7 -18.95 -291.25 -19.25 M-295.25 7.2 L-301.3 21.1 Q-306.2 20.0 -310.6 16.15 L-311.65 15.3 -310.15 5.85 -308.65 3.25 -308.75 2.6 -295.05 6.3 -295.25 7.2" fill="#cc3300" fill-rule="evenodd" stroke="none"/>
    <path d="M-235.35 -41.0 L-235.35 -40.95 Q-236.35 -36.95 -238.2 -33.35 -239.35 -31.15 -240.95 -29.3 -247.05 -22.35 -256.25 -19.85 -265.85 -17.45 -275.35 -20.5 -284.55 -23.45 -291.5 -29.95 -298.15 -36.3 -300.95 -45.0 -302.05 -48.35 -302.2 -51.65 L-302.15 -51.9 -302.25 -52.05 Q-302.45 -57.9 -299.75 -63.55 -295.85 -71.85 -287.9 -76.85 -284.05 -79.25 -280.15 -81.15 -274.85 -83.8 -269.15 -84.75 L-269.7 -85.1 Q-258.9 -84.8 -249.8 -78.8 -238.85 -71.55 -234.15 -59.4 L-234.25 -57.75 -233.65 -56.9 -233.7 -48.7 -233.3 -49.1 Q-234.8 -42.55 -235.35 -41.0 M-303.9 -41.75 L-298.8 -32.3 -303.65 -24.4 -303.75 -25.5 Q-304.0 -27.5 -305.25 -29.15 -305.95 -30.0 -306.95 -29.75 L-307.9 -29.65 -308.9 -28.25 Q-307.9 -23.45 -305.35 -19.4 -304.8 -18.45 -303.85 -17.85 -301.7 -16.45 -299.9 -14.4 L-297.85 -14.25 -296.5 -13.75 -295.55 -13.7 -294.7 -14.0 -293.0 -15.0 -290.9 -14.9 Q-291.95 -12.65 -290.9 -10.3 -289.85 -7.9 -287.8 -6.05 L-282.7 -1.9 -278.15 1.0 Q-287.6 3.6 -297.2 1.9 -306.75 0.05 -314.65 -5.75 L-317.0 -9.15 Q-319.8 -12.15 -320.95 -16.3 -321.95 -20.1 -321.8 -24.15 -321.7 -26.75 -320.9 -28.9 -319.05 -33.9 -314.3 -36.35 L-311.8 -37.9 Q-308.15 -40.65 -303.9 -41.75 M-314.8 -0.75 L-311.45 1.4 Q-313.9 3.6 -314.4 7.1 L-314.8 9.35 Q-315.65 13.05 -315.75 16.85 L-313.4 18.8 Q-315.85 19.7 -314.15 22.0 L-312.85 23.45 -317.9 30.0 -318.0 29.5 Q-323.05 33.5 -327.8 38.05 -335.1 45.05 -343.7 50.05 -350.55 46.95 -355.55 41.4 L-357.55 38.95 -358.35 37.25 -358.6 35.4 -358.4 35.25 Q-356.3 37.15 -353.0 36.15 L-351.1 36.2 -349.9 36.5 -348.85 41.0 -347.0 42.35 Q-344.85 41.9 -345.0 39.45 -345.05 38.35 -345.65 37.15 -346.3 35.8 -346.2 34.25 -346.15 33.0 -347.15 32.35 L-354.85 31.9 Q-349.2 26.1 -342.3 21.75 L-340.6 20.55 Q-339.45 19.6 -338.3 18.8 L-331.05 13.55 Q-327.25 10.85 -323.85 7.75 -321.25 7.7 -321.6 5.0 -321.8 3.55 -321.3 2.35 L-320.95 1.3 -318.95 -4.8 Q-317.2 -2.35 -314.8 -0.75 M-285.15 -9.25 L-279.3 -17.9 -267.6 -15.45 -275.4 -2.5 Q-280.65 -3.95 -284.65 -8.55 L-285.15 -9.25 M-285.8 20.25 Q-286.45 22.85 -286.6 25.5 -286.8 29.7 -287.75 33.75 L-287.85 34.5 Q-287.65 39.9 -289.35 44.8 -290.4 47.8 -290.95 51.05 -291.7 55.65 -293.2 60.15 L-293.55 61.25 -295.3 66.85 -296.55 61.55 -296.75 60.9 Q-297.65 58.4 -300.15 59.25 -304.55 61.0 -309.25 61.6 L-309.9 63.5 -308.9 64.6 -300.0 64.1 -298.9 72.35 -300.15 73.5 -300.4 75.0 Q-304.2 73.45 -308.4 72.45 -310.25 72.15 -311.8 71.05 L-314.85 68.7 -316.25 67.6 -317.65 65.35 -314.65 53.75 Q-313.55 50.0 -312.75 46.25 L-312.35 44.85 -309.9 38.65 -309.55 37.6 Q-308.9 35.15 -307.95 33.0 L-308.65 33.0 -306.15 26.8 -305.0 26.0 -304.8 24.35 Q-301.8 26.4 -298.7 25.45 L-298.0 25.0 -297.8 23.35 -292.25 8.75 -291.05 6.65 -282.3 6.2 -283.9 8.0 Q-284.15 12.3 -285.0 16.5 L-285.8 20.25" fill="#b1e34d" fill-rule="evenodd" stroke="none"/>
    <path d="M-277.0 -79.2 L-276.55 -79.0 -275.5 -79.25 -265.75 -65.9 -267.5 -64.8 -268.25 -65.0 -269.85 -67.35 -270.95 -66.4 -270.25 -65.4 -270.5 -64.25 Q-274.35 -62.7 -278.2 -61.3 L-280.45 -61.25 Q-283.1 -61.3 -285.1 -63.15 -289.0 -66.65 -287.15 -71.65 L-285.75 -73.9 Q-282.7 -78.3 -277.95 -78.75 L-277.0 -79.2 M-276.6 -75.85 L-279.4 -76.0 Q-282.5 -74.45 -284.3 -71.2 L-284.9 -69.65 Q-285.8 -66.0 -282.15 -64.2 L-280.45 -63.95 Q-274.75 -64.45 -269.85 -67.45 L-273.25 -72.0 Q-272.8 -68.85 -275.5 -66.9 -279.45 -65.8 -281.25 -69.25 L-279.95 -71.95 -278.3 -71.25 -278.25 -69.9 -276.4 -70.4 -276.5 -73.75 -275.5 -74.25 -274.7 -74.0 -276.6 -75.85 M-283.0 -55.75 L-281.9 -55.15 -277.25 -49.4 -278.5 -48.25 -279.75 -48.5 Q-280.75 -50.05 -282.4 -51.3 -284.6 -53.0 -284.0 -55.25 L-283.0 -55.75 M-264.5 -64.75 L-263.9 -64.45 Q-261.95 -61.75 -259.6 -59.2 L-256.0 -55.3 Q-249.85 -48.55 -244.35 -41.35 L-244.05 -40.95 -249.2 -43.55 -251.8 -41.3 Q-253.15 -40.25 -254.7 -39.75 -258.05 -38.85 -261.45 -39.25 -264.2 -39.15 -266.6 -40.85 -268.6 -42.2 -269.15 -44.15 -270.5 -49.2 -268.75 -53.9 L-265.25 -59.5 -264.25 -60.5 -265.5 -64.25 -264.5 -64.75 M-259.75 -50.85 L-259.25 -49.9 -258.4 -49.9 -256.9 -52.75 -262.3 -58.45 -263.15 -57.65 Q-263.5 -56.6 -264.35 -55.65 -268.35 -50.75 -266.75 -44.9 -264.7 -41.35 -260.55 -40.85 -255.3 -40.2 -252.25 -44.25 L-252.25 -46.5 -251.75 -46.9 -254.05 -48.9 Q-254.65 -47.15 -256.3 -46.05 -257.8 -45.05 -259.5 -45.25 L-262.2 -47.15 -261.4 -50.9 -259.75 -50.85" fill="#000000" fill-rule="evenodd" stroke="none"/>
    <path d="M-276.6 -75.85 L-274.7 -74.0 -275.5 -74.25 -276.5 -73.75 -276.4 -70.4 -278.25 -69.9 -278.3 -71.25 -279.95 -71.95 -281.25 -69.25 Q-279.45 -65.8 -275.5 -66.9 -272.8 -68.85 -273.25 -72.0 L-269.85 -67.45 Q-274.75 -64.45 -280.45 -63.95 L-282.15 -64.2 Q-285.8 -66.0 -284.9 -69.65 L-284.3 -71.2 Q-282.5 -74.45 -279.4 -76.0 L-276.6 -75.85 M-259.75 -50.85 L-261.4 -50.9 -262.2 -47.15 -259.5 -45.25 Q-257.8 -45.05 -256.3 -46.05 -254.65 -47.15 -254.05 -48.9 L-251.75 -46.9 -252.25 -46.5 -252.25 -44.25 Q-255.3 -40.2 -260.55 -40.85 -264.7 -41.35 -266.75 -44.9 -268.35 -50.75 -264.35 -55.65 -263.5 -56.6 -263.15 -57.65 L-262.3 -58.45 -256.9 -52.75 -258.4 -49.9 -259.25 -49.9 -259.75 -50.85" fill="#ffffff" fill-rule="evenodd" stroke="none"/>
  </g>
</svg>
