<?xml version="1.0" encoding="UTF-8" standalone="no"?>
<svg xmlns:ffdec="https://www.free-decompiler.com/flash" xmlns:xlink="http://www.w3.org/1999/xlink" ffdec:objectType="shape" height="204.3px" width="146.8px" xmlns="http://www.w3.org/2000/svg">
  <g transform="matrix(1.0, 0.0, 0.0, 1.0, 366.3, 123.15)">
    <path d="M-306.65 -117.2 Q-305.7 -117.7 -304.4 -116.65 L-297.2 -110.65 Q-293.75 -107.65 -289.85 -105.0 -287.1 -103.1 -284.75 -100.7 -294.0 -102.75 -302.6 -99.45 L-302.55 -99.45 Q-306.1 -98.15 -309.2 -96.05 -312.0 -94.1 -314.55 -91.95 L-313.3 -98.2 -306.65 -117.2 M-256.5 -72.05 Q-259.25 -79.9 -264.6 -86.05 L-266.15 -87.75 Q-258.55 -86.3 -250.8 -85.4 L-250.75 -85.4 -248.3 -85.05 Q-245.25 -83.85 -242.05 -83.3 L-241.95 -83.3 -240.8 -83.05 -240.45 -82.9 -241.1 -80.1 -242.5 -73.45 Q-244.45 -63.25 -250.2 -54.75 -249.55 -62.45 -252.0 -69.7 L-252.05 -69.9 -247.35 -74.2 -247.3 -74.3 -247.3 -74.4 -247.5 -75.85 -247.55 -76.0 -247.85 -76.35 -248.45 -76.75 -251.6 -76.95 -251.7 -76.85 -256.5 -72.05 M-316.0 -20.35 Q-313.9 -24.35 -311.35 -28.15 -309.95 -30.25 -307.8 -31.45 -300.2 -27.75 -291.7 -26.5 L-293.25 -25.05 -296.1 -22.2 Q-297.1 -21.2 -297.25 -19.75 -298.95 -17.35 -299.95 -14.55 -302.0 -8.85 -303.45 -3.15 L-303.8 -1.25 -304.6 9.25 -305.15 20.8 -313.3 17.55 -315.15 16.45 -317.75 13.85 -318.45 7.95 -318.55 4.65 Q-318.35 1.0 -318.9 -2.5 L-318.9 -2.55 Q-319.55 -6.05 -318.95 -9.25 L-318.55 -11.8 Q-318.2 -16.3 -316.0 -20.35" fill="#cc3300" fill-rule="evenodd" stroke="none"/>
    <path d="M-306.65 -117.2 L-313.3 -98.2 -314.55 -91.95 Q-312.0 -94.1 -309.2 -96.05 -306.1 -98.15 -302.55 -99.45 L-302.6 -99.45 Q-294.0 -102.75 -284.75 -100.7 -287.1 -103.1 -289.85 -105.0 -293.75 -107.65 -297.2 -110.65 L-304.4 -116.65 Q-305.7 -117.7 -306.65 -117.2 M-304.55 -122.55 Q-303.0 -122.3 -302.1 -120.9 L-302.1 -120.95 -301.3 -120.05 -298.75 -117.5 Q-295.95 -114.65 -292.35 -112.4 -284.95 -107.8 -279.05 -101.15 -276.6 -100.25 -275.8 -98.0 -271.35 -96.15 -267.2 -93.55 -266.45 -93.05 -265.6 -92.85 -254.6 -91.45 -244.0 -88.7 -242.05 -88.1 -240.15 -87.3 L-240.15 -87.35 Q-238.3 -86.8 -236.7 -85.7 -235.15 -84.75 -235.65 -82.95 L-237.15 -76.95 Q-238.95 -68.0 -242.55 -59.3 -244.3 -55.2 -246.9 -51.8 L-248.4 -49.35 Q-249.25 -47.85 -250.9 -47.25 L-251.6 -45.95 -248.05 -45.85 -248.05 -45.8 Q-245.15 -44.85 -242.9 -42.5 -240.05 -39.7 -237.7 -36.8 L-232.15 -28.9 -232.1 -28.75 -232.1 -28.65 -232.15 -28.6 -227.65 -26.7 Q-225.55 -27.25 -223.9 -28.4 -221.65 -30.1 -219.9 -28.0 L-219.85 -27.9 -219.55 -26.8 -219.55 -26.65 -219.75 -26.2 -219.5 -24.9 -219.5 -24.85 Q-221.75 -14.95 -226.65 -6.0 -228.15 -3.4 -231.0 -2.9 L-231.1 -2.9 -234.65 -3.95 Q-239.45 -5.3 -243.95 -7.15 L-256.75 -11.8 Q-261.5 -13.4 -266.1 -13.4 -270.3 -6.45 -276.75 -1.55 -279.15 0.25 -281.25 2.4 L-276.55 2.75 Q-275.7 3.0 -275.35 3.95 -275.1 4.8 -275.55 5.55 L-278.5 9.8 Q-280.1 12.15 -281.1 14.85 -281.65 16.25 -282.6 17.35 L-282.55 17.4 -282.45 18.35 -277.1 19.5 -277.0 19.55 -273.75 21.8 -273.8 21.8 Q-272.5 22.85 -272.3 24.5 -270.85 26.2 -270.45 28.3 L-270.45 28.35 -269.8 31.7 Q-269.2 35.25 -270.75 38.55 L-272.2 42.05 Q-273.25 45.15 -275.6 47.1 -281.75 52.0 -289.45 50.6 L-290.15 52.3 Q-291.4 55.4 -292.0 58.65 L-293.0 65.05 Q-293.65 70.5 -293.05 76.25 L-293.05 76.4 -293.5 77.25 -293.05 79.05 -293.05 79.15 -293.1 79.3 -294.0 80.3 -294.15 80.35 Q-302.85 82.25 -311.55 79.6 -317.35 77.85 -322.75 75.3 -326.75 73.3 -329.35 70.15 L-329.4 70.0 -329.45 68.5 -329.4 68.35 Q-326.6 65.1 -322.6 63.6 L-322.5 62.65 -322.45 61.8 -322.1 55.85 -321.55 50.9 Q-321.1 47.7 -320.3 44.45 L-319.2 38.95 -319.15 38.9 -317.25 33.6 Q-336.4 35.65 -353.3 44.05 L-353.4 44.05 -353.5 44.05 -357.2 42.25 -357.3 42.1 Q-360.25 35.9 -361.65 29.7 -362.85 24.7 -364.2 20.0 L-364.2 19.95 Q-364.45 19.15 -364.95 18.45 -366.85 15.8 -366.1 12.45 L-366.05 12.35 -365.95 12.3 -364.3 11.4 -364.1 11.35 -363.45 11.6 -362.7 11.45 -362.65 11.45 Q-359.35 11.75 -356.95 14.5 L-342.85 7.75 Q-344.0 7.2 -344.5 6.0 -346.25 2.15 -345.8 -2.0 L-345.4 -3.85 -345.45 -3.85 Q-345.2 -4.65 -345.4 -5.7 -345.75 -7.9 -345.0 -9.7 L-344.75 -10.25 -344.8 -10.25 -342.5 -17.4 -342.5 -17.45 Q-341.1 -21.4 -339.05 -25.0 L-339.0 -25.1 -338.35 -25.8 -338.3 -25.8 Q-337.65 -26.55 -337.3 -27.4 L-337.3 -27.45 Q-335.9 -31.45 -332.6 -33.7 L-331.1 -34.95 Q-326.75 -39.65 -320.05 -41.6 L-321.7 -44.1 Q-327.1 -53.45 -326.35 -63.75 -325.6 -74.8 -320.25 -84.6 L-320.1 -85.1 -320.15 -85.05 Q-319.5 -87.45 -319.25 -89.85 -318.95 -93.6 -317.9 -97.0 L-312.6 -113.9 -312.1 -115.85 Q-311.2 -119.6 -308.85 -122.65 L-308.7 -122.7 -307.55 -123.1 -307.4 -123.1 Q-306.05 -122.65 -304.55 -122.55 M-266.15 -87.75 L-266.5 -87.8 -273.05 -88.15 -273.2 -88.2 -274.1 -88.95 -274.15 -89.05 -274.2 -89.15 -274.25 -91.4 -274.2 -91.5 -274.15 -91.55 -273.3 -92.3 -273.2 -92.4 -272.8 -92.5 -273.45 -92.95 -273.45 -92.9 Q-282.55 -96.95 -292.15 -96.95 -299.6 -97.75 -305.75 -93.55 -318.05 -85.35 -321.2 -70.85 -323.95 -58.55 -318.25 -47.05 -316.4 -43.25 -313.2 -40.65 -300.1 -29.9 -283.4 -29.8 L-282.1 -31.35 Q-280.1 -34.05 -277.4 -36.15 -269.9 -41.85 -260.6 -39.85 L-258.7 -41.25 -258.7 -41.3 -256.7 -45.4 Q-253.0 -53.65 -254.9 -62.8 L-255.8 -66.5 -255.8 -66.55 -255.8 -66.95 -255.9 -67.1 -255.95 -67.15 Q-257.2 -69.4 -256.7 -71.85 L-256.6 -71.95 -256.5 -72.05 -251.7 -76.85 -251.6 -76.95 -248.45 -76.75 -247.85 -76.35 -247.55 -76.0 -247.5 -75.85 -247.3 -74.4 -247.3 -74.3 -247.35 -74.2 -252.05 -69.9 -252.0 -69.7 Q-249.55 -62.45 -250.2 -54.75 -244.45 -63.25 -242.5 -73.45 L-241.1 -80.1 -240.45 -82.9 -240.8 -83.05 -241.95 -83.3 -242.05 -83.3 Q-245.25 -83.85 -248.3 -85.05 L-250.75 -85.4 -250.8 -85.4 Q-258.55 -86.3 -266.15 -87.75 M-316.0 -20.35 Q-318.2 -16.3 -318.55 -11.8 L-318.95 -9.25 Q-319.55 -6.05 -318.9 -2.55 L-318.9 -2.5 Q-318.35 1.0 -318.55 4.65 L-318.45 7.95 -317.75 13.85 -315.15 16.45 -313.3 17.55 -305.15 20.8 -304.6 9.25 -303.8 -1.25 -303.45 -3.15 Q-302.0 -8.85 -299.95 -14.55 -298.95 -17.35 -297.25 -19.75 -297.1 -21.2 -296.1 -22.2 L-293.25 -25.05 -291.7 -26.5 Q-300.2 -27.75 -307.8 -31.45 -309.95 -30.25 -311.35 -28.15 -313.9 -24.35 -316.0 -20.35 M-316.3 -31.9 L-313.2 -34.65 -316.7 -37.6 Q-320.1 -37.3 -322.8 -35.45 L-323.95 -34.65 -331.35 -28.85 -331.4 -28.85 -333.05 -25.55 Q-333.05 -24.55 -333.65 -23.9 L-334.95 -22.4 -334.9 -22.4 Q-337.95 -17.25 -339.75 -11.35 L-340.35 -9.05 -340.9 -5.7 -341.2 -3.9 Q-342.0 -0.15 -340.8 3.45 L-340.3 3.75 -339.6 3.75 -336.4 1.2 -333.6 -1.7 Q-332.25 -3.0 -330.25 -2.5 -331.1 -7.55 -328.45 -11.55 -327.15 -13.55 -326.2 -15.8 -322.45 -24.6 -316.35 -31.85 L-316.3 -31.9 M-333.75 5.1 L-326.5 3.9 -326.65 1.2 Q-327.4 1.8 -328.4 2.0 L-328.35 2.0 -331.0 2.35 -333.75 5.1 M-300.0 6.6 L-300.1 8.5 -300.35 11.5 -300.4 12.25 Q-300.05 16.8 -300.85 20.85 L-300.35 22.7 -300.35 22.9 -300.7 23.6 -300.75 23.75 Q-300.65 25.15 -301.95 25.65 L-306.75 25.4 Q-316.3 22.35 -322.75 14.65 L-322.8 14.55 -322.75 14.4 -322.3 13.3 -322.85 9.35 Q-324.05 9.85 -325.25 9.35 -326.1 8.9 -326.35 8.25 -342.75 10.8 -356.25 19.45 L-356.35 19.5 -357.05 19.4 Q-358.85 19.1 -360.0 17.6 L-359.95 18.05 -359.0 21.85 -356.75 30.05 -356.45 31.1 -353.35 39.5 Q-351.7 38.4 -349.95 37.55 -333.3 29.55 -314.85 29.4 L-312.45 25.7 -312.3 25.6 -311.45 25.35 -311.35 25.35 -311.25 25.4 -309.6 26.45 -309.5 26.55 -309.5 26.65 Q-309.05 29.8 -311.25 32.3 L-311.25 32.35 -312.0 33.55 Q-313.75 37.95 -314.85 42.6 L-314.85 42.55 Q-315.2 44.15 -315.85 45.85 L-316.15 46.95 Q-317.1 51.75 -317.6 56.6 L-317.7 57.4 Q-318.15 61.3 -317.8 65.25 L-317.85 65.4 Q-319.8 68.5 -323.35 69.6 L-321.0 70.7 Q-309.9 76.1 -297.65 76.35 L-297.55 76.35 -297.7 74.25 Q-297.3 71.45 -297.75 68.75 L-297.85 67.9 Q-297.7 63.95 -296.85 60.35 L-295.3 52.85 Q-294.85 50.4 -293.55 48.4 -289.25 41.25 -286.95 33.3 -285.8 29.15 -286.2 24.8 -286.8 18.85 -288.2 13.15 L-288.4 12.5 Q-289.7 10.05 -289.15 7.5 -289.75 5.95 -288.95 4.85 L-287.3 2.6 Q-284.65 -1.1 -281.05 -3.9 L-276.7 -7.05 -276.65 -7.05 Q-275.15 -8.05 -274.3 -9.6 L-273.45 -10.85 -273.5 -10.85 -271.05 -14.05 -273.2 -14.9 -273.3 -15.0 -273.35 -15.15 -273.45 -17.4 -273.4 -17.5 -273.35 -17.55 -272.5 -18.3 -272.35 -18.4 Q-259.2 -18.2 -246.9 -12.75 L-246.0 -12.4 Q-238.45 -8.95 -230.8 -7.9 L-230.65 -8.15 Q-226.6 -15.05 -224.5 -22.85 -227.65 -21.0 -230.45 -23.05 -232.25 -24.45 -234.65 -24.95 L-237.65 -26.05 Q-241.45 -27.95 -245.3 -29.25 -248.15 -30.25 -250.75 -31.6 -256.8 -34.7 -263.65 -35.5 L-268.75 -34.95 -268.8 -34.95 Q-274.05 -33.9 -277.7 -30.0 L-277.9 -29.6 -278.0 -29.3 -278.05 -29.25 -278.45 -28.85 -278.65 -28.5 Q-279.45 -26.5 -281.55 -25.9 L-281.65 -25.9 -281.75 -25.9 -283.25 -26.8 -283.3 -26.15 -283.35 -26.0 -283.5 -25.95 -285.35 -25.65 -287.3 -24.3 -290.95 -20.95 Q-291.15 -20.35 -291.7 -19.8 L-292.5 -18.65 -292.5 -18.6 Q-294.7 -14.5 -296.55 -10.1 -299.25 -3.8 -299.7 2.9 L-300.0 6.6 M-250.45 -41.65 L-251.0 -41.4 -250.95 -41.4 -253.1 -40.1 Q-254.1 -39.3 -255.0 -39.4 L-255.35 -38.75 -254.25 -38.75 -254.05 -38.65 -254.0 -38.5 -254.05 -38.3 -254.25 -38.1 -239.2 -31.65 Q-243.45 -37.3 -249.2 -41.65 L-250.45 -41.65 M-274.8 29.05 Q-276.65 23.55 -282.1 22.55 -281.65 26.55 -281.9 30.55 L-281.95 31.25 Q-281.95 32.5 -282.35 33.55 L-284.9 41.35 -285.5 42.7 -287.5 46.4 Q-284.75 46.55 -282.0 45.4 L-281.95 45.4 Q-280.35 44.8 -279.1 43.6 -275.2 39.7 -273.9 33.8 -274.5 33.05 -274.4 32.25 -274.25 30.65 -274.8 29.05 M-284.45 8.55 L-285.2 8.05 -284.0 10.9 -283.0 7.9 -284.15 8.6 -284.3 8.6 -284.45 8.55" fill="#000000" fill-rule="evenodd" stroke="none"/>
    <path d="M-256.5 -72.05 L-256.6 -71.95 -256.7 -71.85 Q-257.2 -69.4 -255.95 -67.15 L-255.9 -67.1 -255.8 -66.95 -255.8 -66.55 -255.8 -66.5 -254.9 -62.8 Q-253.0 -53.65 -256.7 -45.4 L-258.7 -41.3 -258.7 -41.25 -260.6 -39.85 Q-269.9 -41.85 -277.4 -36.15 -280.1 -34.05 -282.1 -31.35 L-283.4 -29.8 Q-300.1 -29.9 -313.2 -40.65 -316.4 -43.25 -318.25 -47.05 -323.95 -58.55 -321.2 -70.85 -318.05 -85.35 -305.75 -93.55 -299.6 -97.75 -292.15 -96.95 -282.55 -96.95 -273.45 -92.9 L-273.45 -92.95 -272.8 -92.5 -273.2 -92.4 -273.3 -92.3 -274.15 -91.55 -274.2 -91.5 -274.25 -91.4 -274.2 -89.15 -274.15 -89.05 -274.1 -88.95 -273.2 -88.2 -273.05 -88.15 -266.5 -87.8 -266.15 -87.75 -264.6 -86.05 Q-259.25 -79.9 -256.5 -72.05 M-300.0 6.6 L-299.7 2.9 Q-299.25 -3.8 -296.55 -10.1 -294.7 -14.5 -292.5 -18.6 L-292.5 -18.65 -291.7 -19.8 Q-291.15 -20.35 -290.95 -20.95 L-287.3 -24.3 -285.35 -25.65 -283.5 -25.95 -283.35 -26.0 -283.3 -26.15 -283.25 -26.8 -281.75 -25.9 -281.65 -25.9 -281.55 -25.9 Q-279.45 -26.5 -278.65 -28.5 L-278.45 -28.85 -278.05 -29.25 -278.0 -29.3 -277.9 -29.6 -277.7 -30.0 Q-274.05 -33.9 -268.8 -34.95 L-268.75 -34.95 -263.65 -35.5 Q-256.8 -34.7 -250.75 -31.6 -248.15 -30.25 -245.3 -29.25 -241.45 -27.95 -237.65 -26.05 L-234.65 -24.95 Q-232.25 -24.45 -230.45 -23.05 -227.65 -21.0 -224.5 -22.85 -226.6 -15.05 -230.65 -8.15 L-230.8 -7.9 Q-238.45 -8.95 -246.0 -12.4 L-246.9 -12.75 Q-259.2 -18.2 -272.35 -18.4 L-272.5 -18.3 -273.35 -17.55 -273.4 -17.5 -273.45 -17.4 -273.35 -15.15 -273.3 -15.0 -273.2 -14.9 -271.05 -14.05 -273.5 -10.85 -273.45 -10.85 -274.3 -9.6 Q-275.15 -8.05 -276.65 -7.05 L-276.7 -7.05 -281.05 -3.9 Q-284.65 -1.1 -287.3 2.6 L-288.95 4.85 Q-289.75 5.95 -289.15 7.5 -289.7 10.05 -288.4 12.5 L-288.2 13.15 Q-286.8 18.85 -286.2 24.8 -285.8 29.15 -286.95 33.3 -289.25 41.25 -293.55 48.4 -294.85 50.4 -295.3 52.85 L-296.85 60.35 Q-297.7 63.95 -297.85 67.9 L-297.75 68.75 Q-297.3 71.45 -297.7 74.25 L-297.55 76.35 -297.65 76.35 Q-309.9 76.1 -321.0 70.7 L-323.35 69.6 Q-319.8 68.5 -317.85 65.4 L-317.8 65.25 Q-318.15 61.3 -317.7 57.4 L-317.6 56.6 Q-317.1 51.75 -316.15 46.95 L-315.85 45.85 Q-315.2 44.15 -314.85 42.55 L-314.85 42.6 Q-313.75 37.95 -312.0 33.55 L-311.25 32.35 -311.25 32.3 Q-309.05 29.8 -309.5 26.65 L-309.5 26.55 -309.6 26.45 -311.25 25.4 -311.35 25.35 -311.45 25.35 -312.3 25.6 -312.45 25.7 -314.85 29.4 Q-333.3 29.55 -349.95 37.55 -351.7 38.4 -353.35 39.5 L-356.45 31.1 -356.75 30.05 -359.0 21.85 -359.95 18.05 -360.0 17.6 Q-358.85 19.1 -357.05 19.4 L-356.35 19.5 -356.25 19.45 Q-342.75 10.8 -326.35 8.25 -326.1 8.9 -325.25 9.35 -324.05 9.85 -322.85 9.35 L-322.3 13.3 -322.75 14.4 -322.8 14.55 -322.75 14.65 Q-316.3 22.35 -306.75 25.4 L-301.95 25.65 Q-300.65 25.15 -300.75 23.75 L-300.7 23.6 -300.35 22.9 -300.35 22.7 -300.85 20.85 Q-300.05 16.8 -300.4 12.25 L-300.35 11.5 -300.1 8.5 -300.0 6.6" fill="#b1e34d" fill-rule="evenodd" stroke="none"/>
    <path d="M-316.3 -31.9 L-316.35 -31.85 Q-322.45 -24.6 -326.2 -15.8 -327.15 -13.55 -328.45 -11.55 -331.1 -7.55 -330.25 -2.5 -332.25 -3.0 -333.6 -1.7 L-336.4 1.2 -339.6 3.75 -340.3 3.75 -340.8 3.45 Q-342.0 -0.15 -341.2 -3.9 L-340.9 -5.7 -340.35 -9.05 -339.75 -11.35 Q-337.95 -17.25 -334.9 -22.4 L-334.95 -22.4 -333.65 -23.9 Q-333.05 -24.55 -333.05 -25.55 L-331.4 -28.85 -331.35 -28.85 -323.95 -34.65 -322.8 -35.45 Q-320.1 -37.3 -316.7 -37.6 L-313.2 -34.65 -316.3 -31.9 M-284.45 8.55 L-284.3 8.6 -284.15 8.6 -283.0 7.9 -284.0 10.9 -285.2 8.05 -284.45 8.55 M-274.8 29.05 Q-274.25 30.65 -274.4 32.25 -274.5 33.05 -273.9 33.8 -275.2 39.7 -279.1 43.6 -280.35 44.8 -281.95 45.4 L-282.0 45.4 Q-284.75 46.55 -287.5 46.4 L-285.5 42.7 -284.9 41.35 -282.35 33.55 Q-281.95 32.5 -281.95 31.25 L-281.9 30.55 Q-281.65 26.55 -282.1 22.55 -276.65 23.55 -274.8 29.05 M-250.45 -41.65 L-249.2 -41.65 Q-243.45 -37.3 -239.2 -31.65 L-254.25 -38.1 -254.05 -38.3 -254.0 -38.5 -254.05 -38.65 -254.25 -38.75 -255.35 -38.75 -255.0 -39.4 Q-254.1 -39.3 -253.1 -40.1 L-250.95 -41.4 -251.0 -41.4 -250.45 -41.65" fill="#80a839" fill-rule="evenodd" stroke="none"/>
    <path d="M-281.9 -76.9 L-281.9 -76.95 -291.1 -80.5 -292.3 -78.5 -292.3 -77.6 -292.85 -76.7 Q-292.4 -67.3 -283.9 -63.75 -281.95 -62.8 -280.15 -63.2 -275.7 -63.7 -272.35 -66.3 -271.1 -67.25 -270.0 -68.55 L-270.7 -71.25 -270.25 -72.35 -276.2 -74.7 -279.9 -70.05 -284.95 -70.2 -288.55 -73.9 -288.35 -75.2 -285.85 -75.5 -285.2 -74.8 -281.95 -76.85 -281.9 -76.9 M-273.2 -60.8 L-275.1 -60.15 Q-280.1 -58.75 -285.15 -60.7 -292.35 -63.5 -295.05 -70.75 L-295.3 -80.15 -294.05 -81.65 Q-296.35 -81.85 -298.25 -83.15 -300.3 -84.45 -301.4 -86.45 -304.3 -79.1 -312.15 -77.95 L-314.3 -78.2 Q-316.45 -79.05 -317.3 -81.05 -318.55 -88.2 -313.05 -92.75 -310.85 -94.6 -308.2 -96.05 L-307.6 -96.95 -306.7 -97.25 Q-303.15 -91.9 -299.25 -87.9 -295.4 -83.95 -286.6 -81.25 L-266.3 -74.45 Q-262.8 -73.2 -260.0 -71.05 L-260.45 -69.75 Q-261.8 -68.75 -263.45 -69.55 L-265.45 -70.4 Q-265.85 -70.65 -266.3 -70.7 -266.9 -63.85 -273.2 -60.8 M-304.9 -87.6 L-308.85 -86.05 -310.2 -86.7 -310.3 -89.4 -308.95 -90.1 -307.85 -89.7 -306.75 -91.15 -305.4 -91.9 -306.75 -93.2 Q-310.05 -92.05 -312.35 -89.4 -313.7 -87.8 -314.5 -85.95 L-314.2 -81.95 -313.35 -81.05 Q-308.35 -80.65 -306.0 -84.9 -305.35 -86.15 -304.85 -87.55 L-303.9 -89.8 -304.9 -87.6 M-317.0 -68.4 L-319.45 -69.25 -319.5 -71.95 -318.0 -72.85 Q-308.9 -71.65 -301.3 -65.95 -294.5 -60.75 -289.35 -54.4 L-290.8 -53.2 -305.25 -64.8 Q-307.55 -66.7 -310.6 -67.65 L-315.3 -69.05 -316.0 -69.2 -317.0 -68.4" fill="#000000" fill-rule="evenodd" stroke="none"/>
    <path d="M-281.9 -76.9 L-281.95 -76.85 -285.2 -74.8 -285.85 -75.5 -288.35 -75.2 -288.55 -73.9 -284.95 -70.2 -279.9 -70.05 -276.2 -74.7 -270.25 -72.35 -270.7 -71.25 -270.0 -68.55 Q-271.1 -67.25 -272.35 -66.3 -275.7 -63.7 -280.15 -63.2 -281.95 -62.8 -283.9 -63.75 -292.4 -67.3 -292.85 -76.7 L-292.3 -77.6 -292.3 -78.5 -291.1 -80.5 -281.9 -76.95 -281.9 -76.9 M-304.85 -87.55 Q-305.35 -86.15 -306.0 -84.9 -308.35 -80.65 -313.35 -81.05 L-314.2 -81.95 -314.5 -85.95 Q-313.7 -87.8 -312.35 -89.4 -310.05 -92.05 -306.75 -93.2 L-305.4 -91.9 -306.75 -91.15 -307.85 -89.7 -308.95 -90.1 -310.3 -89.4 -310.2 -86.7 -308.85 -86.05 -304.9 -87.6 -304.85 -87.55" fill="#ffffff" fill-rule="evenodd" stroke="none"/>
  </g>
</svg>
