<?xml version="1.0" encoding="UTF-8" standalone="no"?>
<svg xmlns:ffdec="https://www.free-decompiler.com/flash" xmlns:xlink="http://www.w3.org/1999/xlink" ffdec:objectType="shape" height="203.95px" width="147.5px" xmlns="http://www.w3.org/2000/svg">
  <g transform="matrix(1.0, 0.0, 0.0, 1.0, 363.6, 121.4)">
    <path d="M-325.0 -76.55 Q-323.0 -81.5 -320.85 -85.7 L-321.25 -86.2 -321.35 -86.45 -321.3 -86.7 -316.95 -96.1 -316.85 -96.2 Q-316.55 -96.55 -316.4 -96.95 -315.05 -99.95 -313.2 -102.8 L-308.95 -109.05 -305.05 -114.5 -305.0 -114.6 -298.7 -121.0 -298.55 -121.1 Q-296.3 -122.0 -294.65 -120.2 -290.25 -115.45 -285.55 -111.15 -282.6 -108.3 -280.35 -104.9 -278.65 -102.3 -276.25 -100.45 L-276.25 -100.4 Q-274.25 -98.85 -271.95 -98.0 -269.3 -97.1 -268.85 -94.6 -257.3 -91.3 -246.05 -86.85 L-246.0 -86.85 -242.75 -85.5 Q-237.9 -83.45 -233.65 -80.4 L-233.35 -80.2 Q-232.25 -79.8 -232.1 -78.45 -231.85 -74.3 -234.65 -70.4 L-235.55 -68.6 -235.95 -66.95 -237.65 -63.35 Q-239.9 -58.65 -243.05 -54.4 L-250.1 -44.8 Q-250.9 -43.65 -251.85 -42.85 L-248.2 -42.75 Q-244.3 -42.95 -240.6 -41.6 L-240.5 -41.55 Q-239.7 -41.05 -239.2 -40.25 L-238.75 -39.6 -238.75 -39.55 -238.2 -38.8 -238.15 -38.75 -237.7 -38.1 -236.8 -36.9 -236.75 -36.75 -236.65 -36.35 -236.6 -36.25 -236.6 -36.05 -236.55 -35.9 -236.5 -35.7 -236.3 -35.35 -236.3 -35.3 -236.1 -34.85 -236.05 -34.75 -236.05 -34.4 -236.05 -34.05 -235.95 -33.9 -235.9 -33.75 -235.8 -33.35 -235.7 -33.15 -235.65 -33.0 -235.55 -32.6 -235.5 -32.5 -235.5 -32.15 -235.5 -31.9 -235.3 -31.55 -235.25 -31.5 -235.1 -31.2 -235.1 -31.1 -235.0 -30.8 -234.95 -30.75 -229.0 -28.05 -229.4 -26.9 -227.4 -25.75 Q-222.75 -22.75 -219.5 -18.65 L-219.1 -18.05 Q-217.7 -16.55 -216.7 -14.55 -215.1 -11.25 -217.65 -8.9 L-226.45 -8.35 -235.15 -9.0 -235.15 -7.9 -235.4 -5.7 Q-235.55 -5.0 -235.85 -4.4 L-235.65 -3.9 -236.05 -4.05 -236.15 -3.85 -236.15 -3.5 -236.15 -2.75 -236.1 -2.4 -236.15 -2.25 -236.45 -1.45 -236.45 -1.4 -237.15 0.15 -237.4 0.75 -237.5 0.95 -237.9 1.35 -238.35 1.75 -238.75 2.05 -239.15 2.2 -239.75 2.35 -239.95 2.35 -240.9 2.1 -241.0 2.05 -241.5 1.7 -242.75 0.95 -242.85 0.85 -243.3 0.4 -243.6 0.0 -243.95 -0.7 -244.3 -1.05 -244.35 -1.1 -245.0 -1.75 -245.45 -2.15 -245.6 -2.35 -245.7 -2.55 -245.75 -2.6 -246.15 -3.45 -246.1 -3.45 -246.7 -4.45 -246.85 -4.65 -247.45 -5.05 -247.55 -5.15 -247.95 -5.6 -248.3 -6.0 -248.65 -6.7 -249.75 -7.8 -251.25 -9.3 -251.35 -9.35 -251.55 -9.75 -251.9 -10.6 -252.0 -11.0 Q-256.55 -12.9 -261.3 -13.95 L-265.1 -12.3 Q-266.4 -10.4 -268.7 -9.5 L-270.55 -8.55 -272.2 -7.35 -290.45 3.85 Q-290.3 8.9 -290.75 13.95 L-290.6 17.75 -290.45 18.75 -289.85 18.9 -289.7 18.95 -289.2 19.35 -289.15 19.4 -288.7 19.85 -288.4 20.2 -288.3 20.3 -288.2 20.3 -287.2 20.6 -287.15 20.65 -286.65 20.75 -286.45 20.7 -285.95 20.65 -285.9 20.6 -285.2 20.45 -285.2 20.1 -285.2 19.75 -285.25 19.35 -285.25 19.05 -285.3 18.95 -285.35 18.9 -285.55 18.5 -285.6 18.4 -285.7 18.1 -285.75 17.85 -285.8 17.5 -285.8 17.1 -285.8 16.75 -285.85 15.6 -285.9 13.0 -285.85 12.8 -285.75 12.5 -285.75 12.45 -285.55 12.05 -285.45 11.8 -285.45 11.5 -285.4 11.3 -285.2 10.9 -285.2 10.85 -284.9 10.45 -284.85 10.4 -284.55 10.1 -284.5 9.9 -284.45 9.8 -284.35 9.5 -284.2 9.25 -282.2 7.75 Q-277.35 4.65 -271.9 3.6 L-271.8 3.6 -268.95 3.35 -268.9 3.35 Q-265.75 2.8 -263.0 4.15 -262.05 4.6 -261.55 5.65 L-261.5 5.75 -261.4 6.15 -261.35 6.25 -261.35 6.6 -261.35 7.0 -261.35 7.15 -261.45 7.5 -261.6 8.0 -261.7 8.1 -262.35 8.8 -263.1 9.35 -263.15 9.35 Q-264.8 10.25 -266.6 10.8 L-267.2 11.45 -267.6 11.85 -267.6 11.9 -269.75 14.05 -271.15 15.55 -271.3 15.85 -271.3 15.9 -271.45 16.25 -271.5 16.3 -271.65 16.45 -271.6 16.65 -271.55 16.75 -271.55 17.1 -271.55 17.4 -271.4 17.6 -271.1 17.95 -270.85 18.25 -270.05 19.0 -270.0 19.05 -269.6 19.45 -269.3 19.9 -269.25 19.95 -269.1 20.3 -268.95 20.5 -268.9 20.5 -267.8 21.65 -267.8 21.7 Q-265.65 23.95 -264.05 26.65 -262.95 28.45 -262.3 30.45 L-262.3 30.5 -262.15 30.9 -262.15 31.0 -262.15 31.35 -262.1 31.75 -262.1 32.1 -262.1 32.85 -262.05 34.0 -262.05 34.15 -262.3 34.95 -262.3 34.9 -262.4 35.25 -263.15 37.25 -263.1 37.25 -264.3 39.8 -264.35 39.95 -264.7 40.3 -265.15 40.75 -265.5 41.1 -266.15 41.8 -266.6 42.25 -266.7 42.3 -267.35 42.65 -267.85 43.05 -268.15 43.35 -269.45 44.5 -269.5 44.55 -270.2 44.95 -270.85 45.55 -270.9 45.6 -271.45 46.05 -271.4 46.05 Q-273.95 47.6 -276.7 48.75 -285.8 51.5 -294.4 47.65 L-295.0 47.35 -295.05 50.75 -294.6 56.6 -294.45 57.85 -293.85 63.4 -292.7 70.95 -291.85 76.2 -291.4 78.45 -291.4 78.5 Q-290.85 81.2 -293.35 81.85 L-293.75 81.8 -295.3 80.9 Q-302.7 83.65 -310.65 81.75 -319.7 79.4 -327.95 74.55 L-328.15 74.35 -328.2 74.15 -328.45 71.55 -328.4 71.25 -328.1 71.05 -323.8 69.6 Q-324.4 68.4 -324.6 67.05 L-324.7 65.75 -324.9 52.95 -324.7 45.55 -324.7 45.5 -324.7 44.35 Q-324.7 38.7 -322.0 33.7 L-330.35 33.45 Q-340.1 34.3 -348.0 37.5 L-348.0 37.45 Q-351.1 38.8 -354.65 38.6 L-354.7 38.6 -358.25 38.15 Q-361.2 38.1 -361.75 35.7 L-361.75 35.45 -361.6 35.0 -361.75 35.0 -362.1 34.9 -362.3 34.6 -363.1 28.05 -363.5 21.6 Q-363.8 13.25 -363.0 5.05 L-362.85 4.75 -362.0 4.0 -361.85 3.9 -359.7 3.7 Q-357.75 4.1 -356.75 5.9 L-354.8 6.85 Q-353.85 5.95 -352.4 5.75 L-352.45 5.8 -351.3 5.3 Q-348.45 3.45 -345.15 3.1 -347.05 2.55 -348.1 0.7 -350.65 -3.45 -350.05 -8.8 L-349.5 -12.6 -349.35 -14.75 -349.05 -17.6 -348.15 -22.4 -347.65 -23.9 -346.25 -26.0 -344.6 -28.5 Q-341.7 -32.95 -337.7 -36.35 -330.85 -42.25 -321.85 -43.2 -325.15 -47.2 -326.45 -52.1 -329.75 -64.7 -325.0 -76.55 M-336.0 -31.45 Q-339.55 -27.7 -342.05 -23.3 L-342.1 -23.25 -342.5 -22.4 Q-344.35 -16.15 -345.1 -9.4 L-345.15 -8.7 -345.15 -8.65 Q-345.6 -5.1 -344.1 -2.1 L-342.25 -1.7 Q-340.4 -7.9 -335.5 -12.0 L-335.3 -12.1 -332.45 -12.8 -332.7 -14.4 Q-332.75 -15.2 -332.2 -15.75 L-331.0 -17.25 -330.8 -17.45 -330.55 -17.5 -328.35 -17.55 Q-327.4 -23.95 -324.3 -29.85 -324.25 -30.9 -323.8 -31.6 -321.3 -35.75 -317.1 -38.3 L-317.6 -38.75 Q-327.35 -37.65 -335.1 -32.2 L-335.15 -32.15 -336.0 -31.45 M-329.8 -6.9 L-333.3 -7.0 Q-335.7 -4.45 -336.65 -1.25 -337.8 2.45 -340.7 3.25 L-340.3 3.35 Q-339.45 2.8 -338.35 2.7 L-338.3 2.7 Q-334.05 2.65 -330.15 2.75 L-329.6 -6.9 -329.8 -6.9 M-298.95 -113.85 L-302.8 -108.95 -307.05 -103.1 -311.6 -95.15 -308.55 -97.0 -308.5 -97.0 Q-295.05 -103.4 -280.8 -98.2 L-283.25 -101.05 -283.3 -101.1 -284.35 -102.6 -289.65 -108.5 Q-290.85 -109.85 -292.3 -110.8 L-292.25 -110.75 Q-294.3 -111.95 -295.45 -114.4 -296.05 -115.6 -296.9 -115.65 -298.2 -114.95 -298.95 -113.9 L-298.95 -113.85 M-256.4 -70.9 L-254.15 -72.1 -254.15 -72.05 -251.2 -73.55 -251.15 -73.6 -249.35 -74.45 -249.3 -74.45 Q-246.9 -75.65 -245.1 -73.65 L-244.95 -73.4 -244.75 -71.95 -244.85 -71.6 -245.4 -70.85 -245.65 -70.65 -251.5 -68.7 -251.1 -66.2 Q-249.85 -58.3 -252.2 -50.7 L-248.35 -55.3 -248.4 -55.3 Q-247.4 -56.6 -246.55 -58.15 L-245.7 -59.5 -245.7 -59.55 -243.75 -62.0 -243.7 -62.05 Q-242.85 -63.0 -242.5 -64.1 -241.35 -67.95 -239.45 -71.35 L-239.25 -72.35 -239.25 -72.45 -237.15 -77.25 Q-249.6 -83.5 -262.85 -87.55 L-263.7 -85.3 -263.9 -84.7 -264.15 -84.45 -264.45 -84.4 -264.75 -84.5 Q-268.55 -88.0 -273.1 -90.15 L-280.05 -93.0 Q-293.9 -98.0 -307.45 -93.35 L-307.4 -93.15 -307.4 -93.1 Q-307.25 -92.75 -307.75 -92.55 L-311.4 -89.45 Q-313.15 -87.85 -314.5 -85.95 -322.2 -75.35 -322.9 -61.85 -323.05 -59.65 -322.8 -57.5 -321.9 -49.2 -316.0 -42.8 -311.3 -37.75 -305.1 -34.35 L-305.15 -34.4 Q-297.75 -30.5 -289.55 -29.5 L-282.3 -35.0 -282.15 -35.95 -282.05 -36.15 -279.15 -39.1 -279.15 -39.15 -277.9 -40.0 Q-270.2 -44.65 -261.05 -41.9 -258.15 -46.2 -256.8 -51.3 -254.3 -60.7 -257.0 -70.1 L-256.95 -70.45 -256.75 -70.7 -256.45 -70.85 -256.5 -70.85 -256.4 -70.9 M-285.15 -24.9 L-286.6 -24.8 Q-291.3 -21.3 -294.15 -16.35 L-296.7 -12.0 -296.7 -12.05 -298.35 -8.2 -298.35 -8.25 Q-300.65 -0.75 -303.4 6.45 L-304.15 11.6 -304.35 14.85 Q-304.25 16.85 -304.7 18.8 -305.25 21.0 -307.0 22.25 L-307.3 22.3 -308.85 22.0 Q-318.55 18.0 -326.9 11.0 L-327.05 10.8 -327.1 10.6 -327.0 7.9 -327.25 7.6 -338.0 8.55 -338.05 8.55 Q-343.55 9.05 -348.8 10.4 L-353.65 11.3 Q-356.15 12.4 -358.7 10.85 L-358.8 11.5 -358.85 14.55 -359.05 18.6 Q-358.95 21.0 -358.45 23.4 -358.25 24.6 -358.2 26.1 -358.1 29.85 -357.6 33.55 -354.35 33.1 -351.25 32.15 -335.5 26.95 -318.8 28.45 L-315.45 24.55 Q-315.35 24.4 -315.2 24.4 L-314.55 24.3 -314.55 24.25 -314.2 24.1 Q-311.6 24.05 -311.25 26.7 L-311.35 27.05 -317.95 37.0 -318.0 37.4 -318.0 37.45 Q-320.7 44.65 -319.8 52.55 L-319.8 52.6 Q-319.4 56.75 -320.05 60.65 -320.55 63.15 -319.75 65.6 L-319.75 65.65 -319.5 66.25 -319.45 66.3 Q-318.65 68.25 -319.3 70.1 L-319.2 73.35 Q-318.25 74.3 -316.8 74.65 L-316.8 74.6 -315.2 75.05 Q-306.1 77.55 -297.05 76.55 -297.25 73.6 -297.75 70.7 -300.45 56.65 -299.6 42.05 L-299.35 40.55 Q-298.8 38.9 -298.6 37.25 -298.2 33.7 -297.2 30.45 -295.3 24.2 -295.35 17.75 L-295.15 13.95 Q-294.6 8.0 -295.55 1.75 L-295.5 1.45 -295.35 1.25 -270.7 -14.35 -270.6 -15.0 -273.6 -17.35 -273.7 -17.5 -273.75 -17.75 -273.8 -18.5 -273.75 -18.75 -273.55 -19.05 -273.8 -19.5 -273.9 -19.8 -273.75 -20.95 -273.6 -21.25 -272.75 -22.0 -272.55 -22.1 -271.7 -22.35 -271.4 -22.35 -266.4 -20.7 Q-260.4 -18.9 -254.65 -16.45 L-249.65 -14.3 -249.1 -13.25 Q-247.45 -13.7 -246.2 -12.65 L-245.0 -11.65 -244.4 -9.75 -243.9 -8.7 Q-242.45 -6.35 -239.9 -6.25 L-239.0 -6.75 -238.65 -13.5 Q-237.75 -14.5 -236.5 -14.35 L-235.4 -14.1 Q-231.4 -12.6 -227.15 -12.3 L-220.4 -12.65 Q-223.1 -16.9 -226.5 -20.4 -227.3 -21.25 -228.3 -21.7 L-228.5 -21.8 -230.25 -22.6 -230.45 -22.75 -231.05 -23.1 -231.65 -23.45 Q-232.85 -24.15 -233.95 -25.0 L-234.85 -24.85 -237.1 -25.85 -237.05 -25.85 -237.2 -25.9 -237.3 -25.95 -237.45 -26.05 -242.6 -28.55 Q-253.3 -33.95 -264.75 -37.9 L-269.25 -37.8 Q-271.55 -37.35 -273.45 -36.4 -276.65 -34.7 -279.1 -32.35 L-281.75 -29.5 -281.7 -29.5 -281.4 -29.4 -281.2 -29.2 -281.15 -28.9 -281.3 -28.65 -284.85 -25.05 Q-285.0 -24.9 -285.15 -24.9 M-310.6 -32.9 L-312.95 -31.6 Q-316.65 -27.75 -318.8 -22.8 -321.1 -17.7 -322.25 -12.4 -323.0 -8.65 -322.9 -4.65 L-322.7 -2.05 Q-322.55 -0.7 -322.95 1.3 -323.3 3.15 -322.5 6.5 -322.15 7.8 -322.2 8.45 L-321.15 9.35 -321.1 9.35 Q-315.75 14.15 -309.55 16.55 L-307.7 2.95 -307.65 2.75 -307.35 2.1 -307.35 2.05 Q-303.9 -9.95 -297.4 -20.55 -295.65 -23.4 -293.2 -25.8 -298.8 -26.95 -304.15 -29.55 -307.7 -31.25 -310.6 -32.9 M-256.9 -40.45 L-256.95 -40.45 -256.9 -40.45 M-249.7 -37.4 L-240.95 -33.45 -241.05 -33.7 -241.35 -34.45 -241.35 -34.4 -241.65 -35.1 -241.7 -35.1 -242.15 -35.85 -243.2 -37.2 -247.55 -37.55 -249.7 -37.4 M-272.3 9.4 L-271.8 8.9 -274.3 9.6 Q-277.3 10.8 -280.1 12.4 L-280.3 12.7 -280.45 13.0 -280.55 13.25 -280.55 13.3 -280.75 14.0 -281.1 15.1 -281.1 15.35 -281.1 15.75 -281.05 16.1 -281.05 16.4 -280.95 16.7 -280.95 16.75 -280.85 17.05 -280.65 17.45 -280.65 17.5 -280.55 17.9 -280.5 18.0 -280.5 18.35 -280.5 18.75 -280.5 19.1 -280.45 20.25 -280.4 22.5 -280.4 22.65 -280.5 23.0 -280.65 23.5 -280.85 23.85 -281.4 24.4 -281.45 24.45 -281.75 24.65 -281.9 24.75 -283.4 25.25 -284.95 25.65 Q-287.65 26.05 -290.25 25.1 L-290.3 25.05 -290.8 24.6 -290.9 24.55 -291.8 28.4 Q-293.3 33.9 -294.2 39.6 L-294.5 41.5 -294.0 41.85 -293.95 41.9 -293.6 42.2 -293.55 42.25 -293.15 42.7 -292.5 43.35 -292.45 43.35 -292.2 43.6 -292.0 43.65 -291.95 43.65 -291.1 43.95 -291.05 43.95 -290.35 44.25 -289.85 44.55 Q-281.25 45.95 -274.15 41.5 -272.25 40.3 -270.8 38.7 L-270.65 38.55 -269.9 38.2 -269.55 37.85 -269.5 37.8 -269.15 37.5 -269.1 37.45 -268.9 37.3 -268.9 37.25 -268.85 37.2 -268.5 36.5 -268.5 36.55 -268.35 36.15 -267.55 34.25 -266.85 32.25 -266.9 32.05 -267.0 31.75 -267.2 31.45 -267.2 31.4 -267.45 31.0 -267.7 30.6 -267.75 30.5 -267.85 30.15 -267.9 29.7 -268.0 29.5 -268.55 28.75 -268.6 28.75 -268.8 28.45 -268.8 28.4 -270.7 25.9 -272.55 23.95 -272.9 23.5 -272.95 23.4 -273.05 23.2 -273.05 23.15 -273.3 22.8 -273.55 22.5 -274.0 22.1 -274.05 22.05 -274.35 21.75 -274.35 21.7 -275.1 21.0 -275.15 20.95 -275.95 20.2 -276.05 20.0 -276.15 19.65 -276.25 19.1 -276.25 18.75 -276.3 18.55 -276.4 18.25 -276.6 17.75 -276.75 17.5 -276.8 17.25 -276.8 16.85 -276.8 16.5 -276.8 16.1 -276.85 15.75 -276.8 15.55 -276.65 15.25 -276.7 15.2 -276.5 14.8 -276.3 14.4 -276.3 14.35 -276.0 13.7 -276.0 13.65 -275.75 12.95 -275.6 12.75 -274.9 12.0 -274.85 11.95 -274.6 11.7 -274.55 11.65 -272.3 9.4" fill="#000000" fill-rule="evenodd" stroke="none"/>
    <path d="M-263.7 -85.3 L-262.85 -87.55 Q-249.6 -83.5 -237.15 -77.25 L-239.25 -72.45 -239.25 -72.35 -239.45 -71.35 Q-241.35 -67.95 -242.5 -64.1 -242.85 -63.0 -243.7 -62.05 L-243.75 -62.0 -245.7 -59.55 -245.7 -59.5 -246.55 -58.15 Q-247.4 -56.6 -248.4 -55.3 L-248.35 -55.3 -252.2 -50.7 Q-249.85 -58.3 -251.1 -66.2 L-251.5 -68.7 -245.65 -70.65 -245.4 -70.85 -244.85 -71.6 -244.75 -71.95 -244.95 -73.4 -245.1 -73.65 Q-246.9 -75.65 -249.3 -74.45 L-249.35 -74.45 -251.15 -73.6 -251.2 -73.55 -254.15 -72.05 -254.15 -72.1 -256.4 -70.9 -257.95 -74.8 Q-261.5 -83.45 -263.7 -85.3 M-298.95 -113.85 L-298.95 -113.9 Q-298.2 -114.95 -296.9 -115.65 -296.05 -115.6 -295.45 -114.4 -294.3 -111.95 -292.25 -110.75 L-292.3 -110.8 Q-290.85 -109.85 -289.65 -108.5 L-284.35 -102.6 -283.3 -101.1 -283.25 -101.05 -280.8 -98.2 Q-295.05 -103.4 -308.5 -97.0 L-308.55 -97.0 -311.6 -95.15 -307.05 -103.1 -302.8 -108.95 -298.95 -113.85 M-310.6 -32.9 Q-307.7 -31.25 -304.15 -29.55 -298.8 -26.95 -293.2 -25.8 -295.65 -23.4 -297.4 -20.55 -303.9 -9.95 -307.35 2.05 L-307.35 2.1 -307.65 2.75 -307.7 2.95 -309.55 16.55 Q-315.75 14.15 -321.1 9.35 L-321.15 9.35 -322.2 8.45 Q-322.15 7.8 -322.5 6.5 -323.3 3.15 -322.95 1.3 -322.55 -0.7 -322.7 -2.05 L-322.9 -4.65 Q-323.0 -8.65 -322.25 -12.4 -321.1 -17.7 -318.8 -22.8 -316.65 -27.75 -312.95 -31.6 L-310.6 -32.9" fill="#cc3300" fill-rule="evenodd" stroke="none"/>
    <path d="M-263.7 -85.3 Q-261.5 -83.45 -257.95 -74.8 L-256.4 -70.9 -256.5 -70.85 -256.45 -70.85 -256.75 -70.7 -256.95 -70.45 -257.0 -70.1 Q-254.3 -60.7 -256.8 -51.3 -258.15 -46.2 -261.05 -41.9 -270.2 -44.65 -277.9 -40.0 L-279.15 -39.15 -279.15 -39.1 -282.05 -36.15 -282.15 -35.95 -282.3 -35.0 -289.55 -29.5 Q-297.75 -30.5 -305.15 -34.4 L-305.1 -34.35 Q-311.3 -37.75 -316.0 -42.8 -321.9 -49.2 -322.8 -57.5 -323.05 -59.65 -322.9 -61.85 -322.2 -75.35 -314.5 -85.95 -313.15 -87.85 -311.4 -89.45 L-307.75 -92.55 Q-307.25 -92.75 -307.4 -93.1 L-307.4 -93.15 -307.45 -93.35 Q-293.9 -98.0 -280.05 -93.0 L-273.1 -90.15 Q-268.55 -88.0 -264.75 -84.5 L-264.45 -84.4 -264.15 -84.45 -263.9 -84.7 -263.7 -85.3 M-285.15 -24.9 Q-285.0 -24.9 -284.85 -25.05 L-281.3 -28.65 -281.15 -28.9 -281.2 -29.2 -281.4 -29.4 -281.7 -29.5 -281.75 -29.5 -279.1 -32.35 Q-276.65 -34.7 -273.45 -36.4 -271.55 -37.35 -269.25 -37.8 L-264.75 -37.9 Q-253.3 -33.95 -242.6 -28.55 L-237.45 -26.05 -237.3 -25.95 -237.2 -25.9 -237.05 -25.85 -237.1 -25.85 -234.85 -24.85 -233.95 -25.0 Q-232.85 -24.15 -231.65 -23.45 L-231.05 -23.1 -230.45 -22.75 -230.25 -22.6 -228.5 -21.8 -228.3 -21.7 Q-227.3 -21.25 -226.5 -20.4 -223.1 -16.9 -220.4 -12.65 L-227.15 -12.3 Q-231.4 -12.6 -235.4 -14.1 L-236.5 -14.35 Q-237.75 -14.5 -238.65 -13.5 L-239.0 -6.75 -239.9 -6.25 Q-242.45 -6.35 -243.9 -8.7 L-244.4 -9.75 -245.0 -11.65 -246.2 -12.65 Q-247.45 -13.7 -249.1 -13.25 L-249.65 -14.3 -254.65 -16.45 Q-260.4 -18.9 -266.4 -20.7 L-271.4 -22.35 -271.7 -22.35 -272.55 -22.1 -272.75 -22.0 -273.6 -21.25 -273.75 -20.95 -273.9 -19.8 -273.8 -19.5 -273.55 -19.05 -273.75 -18.75 -273.8 -18.5 -273.75 -17.75 -273.7 -17.5 -273.6 -17.35 -270.6 -15.0 -270.7 -14.35 -295.35 1.25 -295.5 1.45 -295.55 1.75 Q-294.6 8.0 -295.15 13.95 L-295.35 17.75 Q-295.3 24.2 -297.2 30.45 -298.2 33.7 -298.6 37.25 -298.8 38.9 -299.35 40.55 L-299.6 42.05 Q-300.45 56.65 -297.75 70.7 -297.25 73.6 -297.05 76.55 -306.1 77.55 -315.2 75.05 L-316.8 74.6 -316.8 74.65 Q-318.25 74.3 -319.2 73.35 L-319.3 70.1 Q-318.65 68.25 -319.45 66.3 L-319.5 66.25 -319.75 65.65 -319.75 65.6 Q-320.55 63.15 -320.05 60.65 -319.4 56.75 -319.8 52.6 L-319.8 52.55 Q-320.7 44.65 -318.0 37.45 L-318.0 37.4 -317.95 37.0 -311.35 27.05 -311.25 26.7 Q-311.6 24.05 -314.2 24.1 L-314.55 24.25 -314.55 24.3 -315.2 24.4 Q-315.35 24.4 -315.45 24.55 L-318.8 28.45 Q-335.5 26.95 -351.25 32.15 -354.35 33.1 -357.6 33.55 -358.1 29.85 -358.2 26.1 -358.25 24.6 -358.45 23.4 -358.95 21.0 -359.05 18.6 L-358.85 14.55 -358.8 11.5 -358.7 10.85 Q-356.15 12.4 -353.65 11.3 L-348.8 10.4 Q-343.55 9.05 -338.05 8.55 L-338.0 8.55 -327.25 7.6 -327.0 7.9 -327.1 10.6 -327.05 10.8 -326.9 11.0 Q-318.55 18.0 -308.85 22.0 L-307.3 22.3 -307.0 22.25 Q-305.25 21.0 -304.7 18.8 -304.25 16.85 -304.35 14.85 L-304.15 11.6 -303.4 6.45 Q-300.65 -0.75 -298.35 -8.25 L-298.35 -8.2 -296.7 -12.05 -296.7 -12.0 -294.15 -16.35 Q-291.3 -21.3 -286.6 -24.8 L-285.15 -24.9" fill="#b1e34d" fill-rule="evenodd" stroke="none"/>
    <path d="M-336.0 -31.45 L-335.15 -32.15 -335.1 -32.2 Q-327.35 -37.65 -317.6 -38.75 L-317.1 -38.3 Q-321.3 -35.75 -323.8 -31.6 -324.25 -30.9 -324.3 -29.85 -327.4 -23.95 -328.35 -17.55 L-330.55 -17.5 -330.8 -17.45 -331.0 -17.25 -332.2 -15.75 Q-332.75 -15.2 -332.7 -14.4 L-332.45 -12.8 -335.3 -12.1 -335.5 -12.0 Q-340.4 -7.9 -342.25 -1.7 L-344.1 -2.1 Q-345.6 -5.1 -345.15 -8.65 L-345.15 -8.7 -345.1 -9.4 Q-344.35 -16.15 -342.5 -22.4 L-342.1 -23.25 -342.05 -23.3 Q-339.55 -27.7 -336.0 -31.45 M-272.3 9.4 L-274.55 11.65 -274.6 11.7 -274.85 11.95 -274.9 12.0 -275.6 12.75 -275.75 12.95 -276.0 13.65 -276.0 13.7 -276.3 14.35 -276.3 14.4 -276.5 14.8 -276.7 15.2 -276.65 15.25 -276.8 15.55 -276.85 15.75 -276.8 16.1 -276.8 16.5 -276.8 16.85 -276.8 17.25 -276.75 17.5 -276.6 17.75 -276.4 18.25 -276.3 18.55 -276.25 18.75 -276.25 19.1 -276.15 19.65 -276.05 20.0 -275.95 20.2 -275.15 20.95 -275.1 21.0 -274.35 21.7 -274.35 21.75 -274.05 22.05 -274.0 22.1 -273.55 22.5 -273.3 22.8 -273.05 23.15 -273.05 23.2 -272.95 23.4 -272.9 23.5 -272.55 23.95 -270.7 25.9 -268.8 28.4 -268.8 28.45 -268.6 28.75 -268.55 28.75 -268.0 29.5 -267.9 29.7 -267.85 30.15 -267.75 30.5 -267.7 30.6 -267.45 31.0 -267.2 31.4 -267.2 31.45 -267.0 31.75 -266.9 32.05 -266.85 32.25 -267.55 34.25 -268.35 36.15 -268.5 36.55 -268.5 36.5 -268.85 37.2 -268.9 37.25 -268.9 37.3 -269.1 37.45 -269.15 37.5 -269.5 37.8 -269.55 37.85 -269.9 38.2 -270.65 38.55 -270.8 38.7 Q-272.25 40.3 -274.15 41.5 -281.25 45.95 -289.85 44.55 L-290.35 44.25 -291.05 43.95 -291.1 43.95 -291.95 43.65 -292.0 43.65 -292.2 43.6 -292.45 43.35 -292.5 43.35 -293.15 42.7 -293.55 42.25 -293.6 42.2 -293.95 41.9 -294.0 41.85 -294.5 41.5 -294.2 39.6 Q-293.3 33.9 -291.8 28.4 L-290.9 24.55 -290.8 24.6 -290.3 25.05 -290.25 25.1 Q-287.65 26.05 -284.95 25.65 L-283.4 25.25 -281.9 24.75 -281.75 24.65 -281.45 24.45 -281.4 24.4 -280.85 23.85 -280.65 23.5 -280.5 23.0 -280.4 22.65 -280.4 22.5 -280.45 20.25 -280.5 19.1 -280.5 18.75 -280.5 18.35 -280.5 18.0 -280.55 17.9 -280.65 17.5 -280.65 17.45 -280.85 17.05 -280.95 16.75 -280.95 16.7 -281.05 16.4 -281.05 16.1 -281.1 15.75 -281.1 15.35 -281.1 15.1 -280.75 14.0 -280.55 13.3 -280.55 13.25 -280.45 13.0 -280.3 12.7 -280.1 12.4 Q-277.3 10.8 -274.3 9.6 L-271.8 8.9 -272.3 9.4 M-249.7 -37.4 L-247.55 -37.55 -243.2 -37.2 -242.15 -35.85 -241.7 -35.1 -241.65 -35.1 -241.35 -34.4 -241.35 -34.45 -241.05 -33.7 -240.95 -33.45 -249.7 -37.4" fill="#80a839" fill-rule="evenodd" stroke="none"/>
    <path d="M-282.7 -78.1 L-282.7 -78.15 -290.6 -82.15 -291.85 -80.45 -291.9 -79.65 -292.5 -78.9 Q-292.85 -70.5 -285.55 -66.55 -283.85 -65.55 -282.2 -65.75 -278.2 -65.8 -275.0 -67.85 -273.75 -68.6 -272.75 -69.65 L-273.1 -72.1 -272.6 -73.05 -277.7 -75.7 -281.45 -71.85 -285.95 -72.45 -288.85 -76.05 -288.6 -77.2 -286.3 -77.2 -285.8 -76.55 Q-284.25 -77.3 -282.75 -78.1 L-282.7 -78.1 M-264.0 -69.85 L-266.75 -70.0 -268.45 -70.9 -269.2 -71.25 Q-270.3 -65.2 -276.15 -63.05 L-278.0 -62.6 Q-282.55 -61.75 -286.95 -64.0 -293.15 -67.1 -295.0 -73.8 L-294.45 -82.2 -293.15 -83.4 Q-295.25 -83.75 -296.85 -85.15 -298.55 -86.45 -299.35 -88.35 -302.6 -82.0 -309.75 -81.7 -310.7 -81.7 -311.6 -82.1 -313.45 -83.0 -314.1 -84.9 -314.55 -91.4 -309.3 -95.0 -307.15 -96.45 -304.7 -97.45 L-304.1 -98.2 -303.25 -98.45 Q-300.5 -93.35 -297.3 -89.45 -294.2 -85.6 -286.55 -82.4 -278.9 -79.2 -268.9 -74.55 -265.8 -73.15 -263.5 -71.05 L-264.0 -69.85 M-302.4 -89.65 L-306.1 -88.65 -307.25 -89.3 -307.1 -91.7 -305.85 -92.25 -304.85 -91.8 -303.8 -93.0 -302.55 -93.55 -303.6 -94.8 Q-306.65 -94.1 -308.9 -91.9 -310.3 -90.6 -311.15 -89.05 L-311.25 -85.4 -310.55 -84.55 Q-306.05 -83.75 -303.6 -87.35 L-302.35 -89.6 -301.3 -91.55 -302.4 -89.65 M-315.4 -77.65 Q-307.3 -75.8 -301.0 -70.05 -295.25 -64.85 -291.25 -58.7 L-292.55 -57.8 -304.55 -69.35 Q-306.55 -71.3 -309.15 -72.4 L-313.2 -74.0 -313.85 -74.25 -314.85 -73.6 -316.95 -74.6 -316.8 -77.0 -315.4 -77.65" fill="#000000" fill-rule="evenodd" stroke="none"/>
    <path d="M-282.7 -78.1 L-282.75 -78.1 Q-284.25 -77.3 -285.8 -76.55 L-286.3 -77.2 -288.6 -77.2 -288.85 -76.05 -285.95 -72.45 -281.45 -71.85 -277.7 -75.7 -272.6 -73.05 -273.1 -72.1 -272.75 -69.65 Q-273.75 -68.6 -275.0 -67.85 -278.2 -65.8 -282.2 -65.75 -283.85 -65.55 -285.55 -66.55 -292.85 -70.5 -292.5 -78.9 L-291.9 -79.65 -291.85 -80.45 -290.6 -82.15 -282.7 -78.15 -282.7 -78.1 M-302.4 -89.65 L-302.35 -89.6 -303.6 -87.35 Q-306.05 -83.75 -310.55 -84.55 L-311.25 -85.4 -311.15 -89.05 Q-310.3 -90.6 -308.9 -91.9 -306.65 -94.1 -303.6 -94.8 L-302.55 -93.55 -303.8 -93.0 -304.85 -91.8 -305.85 -92.25 -307.1 -91.7 -307.25 -89.3 -306.1 -88.65 -302.4 -89.65" fill="#ffffff" fill-rule="evenodd" stroke="none"/>
  </g>
</svg>
