<?xml version="1.0" encoding="UTF-8" standalone="no"?>
<svg xmlns:ffdec="https://www.free-decompiler.com/flash" xmlns:xlink="http://www.w3.org/1999/xlink" ffdec:objectType="shape" height="194.65px" width="121.85px" xmlns="http://www.w3.org/2000/svg">
  <g transform="matrix(1.0, 0.0, 0.0, 1.0, 337.05, 112.5)">
    <path d="M-265.65 -28.0 Q-267.15 -27.8 -268.85 -28.75 L-268.95 -29.05 -267.8 -30.6 Q-255.35 -46.45 -242.1 -26.85 L-243.7 -25.45 -244.5 -25.85 Q-250.3 -29.0 -255.0 -33.85 L-261.8 -31.35 Q-263.5 -28.35 -265.65 -28.0 M-233.1 -9.25 Q-231.8 -8.95 -230.65 -8.0 L-227.3 -4.7 Q-224.9 -2.1 -226.6 0.7 -236.35 2.4 -245.95 -1.9 -248.5 -3.0 -250.3 -4.95 L-250.6 -6.6 -250.1 -7.0 -248.85 -7.95 -246.85 -7.7 -246.1 -6.85 Q-239.7 -2.9 -232.6 -3.5 L-236.15 -7.2 -234.9 -9.45 -233.1 -9.25 M-248.75 8.5 Q-247.25 9.75 -246.2 11.4 -244.15 14.65 -246.35 16.8 L-248.9 16.55 Q-254.75 16.05 -258.6 19.3 -255.7 21.5 -253.85 24.6 -250.7 30.15 -252.65 35.35 -253.9 38.65 -256.65 40.95 L-260.7 43.75 Q-270.45 49.05 -282.25 49.55 -288.55 50.4 -296.85 49.55 -305.15 48.7 -311.4 44.0 -317.65 39.2 -321.0 34.95 -322.2 33.4 -322.55 31.55 -324.25 22.8 -316.6 18.95 -315.1 18.15 -313.45 17.95 -296.85 16.1 -280.05 21.9 L-277.5 20.6 Q-277.95 17.75 -277.5 15.1 -276.95 12.1 -274.8 10.0 -267.6 2.8 -256.35 4.95 -252.05 5.85 -248.75 8.5 M-251.5 12.0 L-252.35 10.85 Q-260.3 7.2 -267.45 10.5 -273.75 13.3 -273.25 20.35 -273.0 25.1 -278.1 26.3 L-280.85 26.0 Q-299.2 18.75 -316.45 23.8 -319.65 26.95 -317.7 31.5 -317.05 33.05 -314.65 35.95 -312.3 38.85 -305.4 42.45 -298.5 46.0 -283.35 45.45 -271.7 44.8 -263.4 39.4 L-260.65 37.65 Q-255.55 34.65 -256.75 28.8 -257.25 26.55 -258.95 24.95 L-262.2 21.3 Q-263.45 19.75 -262.8 18.2 -259.9 11.35 -251.5 12.0" fill="#000000" fill-rule="evenodd" stroke="none"/>
    <path d="M-265.65 -28.0 Q-263.5 -28.35 -261.8 -31.35 L-255.0 -33.85 Q-250.3 -29.0 -244.5 -25.85 L-233.1 -9.25 -234.9 -9.45 -236.15 -7.2 -232.6 -3.5 Q-239.7 -2.9 -246.1 -6.85 L-246.85 -7.7 -248.85 -7.95 -250.1 -7.0 Q-252.7 -9.6 -256.05 -13.95 -261.65 -21.2 -265.65 -28.0 M-251.5 12.0 Q-259.9 11.35 -262.8 18.2 -263.45 19.75 -262.2 21.3 L-258.95 24.95 Q-257.25 26.55 -256.75 28.8 -255.55 34.65 -260.65 37.65 L-263.4 39.4 Q-271.7 44.8 -283.35 45.45 -298.5 46.0 -305.4 42.45 -312.3 38.85 -314.65 35.95 -317.05 33.05 -317.7 31.5 -319.65 26.95 -316.45 23.8 -299.2 18.75 -280.85 26.0 L-278.1 26.3 Q-273.0 25.1 -273.25 20.35 -273.75 13.3 -267.45 10.5 -260.3 7.2 -252.35 10.85 L-251.5 12.0" fill="#80a839" fill-rule="evenodd" stroke="none"/>
    <path d="M-280.45 -86.75 L-287.05 -88.1 -287.25 -89.15 Q-300.25 -92.0 -313.4 -87.8 L-314.25 -87.35 -315.3 -86.5 -318.0 -84.1 -325.0 -74.75 Q-328.75 -66.8 -328.25 -57.2 -327.9 -50.05 -325.6 -44.0 L-325.65 -44.0 Q-324.1 -39.9 -321.15 -36.05 -317.85 -31.7 -312.95 -27.95 -310.35 -26.35 -306.2 -24.55 -302.3 -23.1 -296.45 -22.1 -291.0 -21.15 -284.95 -22.25 -282.05 -23.4 -280.0 -26.2 -279.3 -27.4 -278.05 -28.05 -275.1 -30.35 -271.2 -30.1 L-270.85 -30.25 -269.9 -31.3 Q-267.6 -33.05 -265.3 -36.0 L-262.5 -40.25 -260.9 -44.0 -260.85 -44.0 -259.75 -46.7 Q-258.85 -49.1 -258.6 -52.5 -257.45 -57.55 -257.55 -58.25 L-258.65 -66.25 -259.25 -67.9 Q-259.85 -70.55 -261.4 -72.7 L-261.6 -73.0 -263.05 -75.5 -264.4 -78.3 Q-262.15 -81.95 -258.8 -84.7 -255.45 -87.55 -252.85 -85.8 L-257.25 -77.25 -258.15 -77.55 -258.1 -77.4 -257.1 -75.8 Q-256.05 -74.35 -255.5 -72.65 L-254.1 -69.3 -252.05 -76.35 -251.25 -77.8 -247.85 -91.85 -248.05 -93.95 -247.55 -96.9 -271.0 -91.55 -271.05 -91.45 -271.65 -91.35 Q-274.55 -90.55 -280.05 -87.05 L-280.45 -86.75 M-327.1 -81.75 L-321.45 -89.9 -319.95 -92.0 -319.65 -92.0 -317.05 -101.85 -310.35 -112.45 -309.95 -112.5 Q-308.05 -112.1 -306.35 -110.65 -298.9 -104.2 -293.05 -96.7 L-292.1 -95.0 -291.55 -94.9 -283.0 -93.5 -268.45 -99.1 Q-257.25 -102.55 -245.35 -103.35 L-243.15 -102.1 Q-241.9 -99.6 -241.8 -96.8 -241.6 -87.75 -244.2 -79.15 -246.3 -72.1 -249.15 -65.55 L-252.35 -59.75 -252.75 -59.9 -252.75 -59.6 Q-252.7 -58.6 -253.8 -52.5 -254.4 -48.05 -255.85 -44.0 L-255.9 -44.0 Q-257.5 -39.9 -259.75 -36.0 L-263.0 -31.3 -263.15 -31.05 Q-263.35 -31.05 -263.2 -30.65 L-263.1 -30.3 -262.75 -30.1 -250.5 -27.1 -250.5 -27.15 -227.75 -21.7 -227.45 -21.75 -227.2 -21.95 Q-224.25 -25.85 -220.4 -28.4 -219.5 -29.05 -218.45 -28.95 L-217.0 -28.6 -215.2 -25.1 -225.25 -0.2 -230.2 -0.15 -247.35 -2.6 -247.3 -2.0 -258.15 -3.7 -260.5 -4.35 -260.45 -4.35 -261.8 -4.75 -261.95 -4.8 -262.9 -4.75 -263.2 -4.65 -263.35 -4.4 Q-266.3 9.5 -270.9 23.0 L-272.7 27.0 -274.2 30.2 -278.4 39.4 Q-282.5 49.65 -287.45 59.5 -292.5 69.1 -296.35 79.1 L-299.8 81.0 Q-302.75 82.1 -305.95 82.15 -311.8 81.95 -317.65 82.15 -326.25 82.1 -334.25 79.8 -334.75 79.55 -335.05 79.45 -336.35 78.7 -336.7 77.35 L-337.05 76.05 -326.65 68.4 -326.4 68.05 -326.45 67.65 Q-328.45 64.5 -330.65 61.7 L-330.7 61.7 Q-331.2 61.05 -331.15 60.4 -332.15 55.7 -331.8 51.0 -330.65 39.6 -330.1 36.2 -328.8 29.45 -325.55 22.05 L-323.9 17.85 -322.35 15.25 -322.3 14.85 -322.45 14.5 Q-322.75 14.25 -322.85 14.35 -323.8 14.35 -324.55 13.55 L-324.55 13.6 Q-328.05 9.45 -330.6 4.65 L-333.0 0.0 -333.1 -0.15 -334.2 -1.65 -335.55 -9.65 Q-332.2 -15.4 -326.3 -18.95 L-322.15 -21.8 Q-320.6 -22.9 -318.65 -23.85 -317.9 -24.4 -316.95 -24.6 L-316.5 -24.6 Q-321.5 -28.5 -325.3 -32.8 -325.45 -32.6 -327.45 -36.05 -329.1 -38.75 -331.15 -43.45 L-331.35 -44.0 -331.3 -44.0 -332.3 -47.9 Q-335.75 -65.2 -328.65 -78.05 -328.2 -80.1 -327.1 -81.75 M-329.85 -3.55 L-328.75 -1.05 -328.65 -0.85 -327.4 0.65 -327.2 2.15 -327.05 2.5 -321.4 10.2 -321.05 10.45 -320.7 10.45 -320.45 10.2 Q-317.45 2.65 -314.9 -4.95 L-314.9 -5.0 -312.85 -13.35 -312.5 -13.75 -312.35 -14.0 -310.8 -21.25 -310.85 -21.35 Q-312.3 -20.1 -316.7 -17.7 -324.45 -13.65 -329.6 -8.25 L-329.65 -8.25 Q-330.4 -7.7 -330.4 -6.6 -330.7 -5.05 -329.85 -3.55 M-306.7 -95.25 L-299.0 -95.35 -307.65 -104.4 -310.9 -94.45 -306.7 -95.25 M-310.3 -0.8 L-310.65 -0.8 -310.85 -0.55 Q-314.15 6.3 -316.85 13.95 L-319.5 20.2 Q-323.35 27.2 -324.85 33.15 -325.95 37.25 -327.1 47.1 -327.45 49.0 -327.45 51.05 -327.3 53.0 -326.6 55.1 L-325.1 59.05 Q-322.5 64.55 -320.95 70.8 L-320.75 71.1 -320.45 71.2 -320.15 71.1 Q-316.85 68.95 -314.35 65.8 -312.45 63.15 -310.2 60.65 L-310.1 60.5 -306.4 52.4 -306.35 52.15 -306.45 51.9 -306.7 51.45 Q-306.65 51.35 -306.6 51.4 L-306.35 51.3 -306.15 51.0 -305.95 50.25 -306.0 49.85 -308.45 45.6 -311.5 39.2 Q-308.35 33.05 -315.45 27.25 -313.35 27.0 -306.3 30.15 -304.65 30.75 -303.25 31.55 -304.75 33.35 -305.25 35.9 L-305.25 35.95 -305.35 36.65 -305.35 36.95 -303.5 41.45 Q-302.4 43.85 -300.35 45.8 -299.85 49.3 -301.75 52.95 -302.2 53.45 -302.3 54.15 L-302.25 54.15 Q-306.0 65.95 -315.6 73.9 L-319.2 76.3 Q-319.5 76.25 -319.45 76.55 L-319.55 76.9 -319.4 77.25 -319.05 77.35 -317.5 77.4 -317.5 77.35 -301.05 76.1 -300.75 76.0 -300.5 75.7 Q-292.65 57.0 -283.65 38.7 L-277.5 26.15 -276.1 22.9 Q-272.4 12.45 -269.95 1.6 L-268.95 -2.85 Q-268.55 -5.4 -267.6 -7.2 L-267.55 -7.6 -267.9 -7.95 -268.1 -8.1 Q-268.2 -9.05 -267.75 -9.6 -267.3 -10.25 -266.25 -10.15 -263.55 -10.05 -260.7 -9.35 L-250.5 -7.3 -247.75 -6.85 -247.8 -7.35 -244.5 -7.0 -244.45 -7.0 -240.95 -6.4 -233.85 -5.55 -226.7 -4.3 -220.4 -20.55 -225.55 -16.2 -229.8 -16.65 Q-239.5 -19.45 -249.25 -21.65 L-249.25 -21.6 -250.5 -21.85 -262.4 -24.4 Q-270.05 -26.0 -276.15 -22.8 -277.4 -22.3 -278.1 -21.0 L-278.15 -21.0 -279.35 -19.7 -280.6 -17.7 -280.8 -17.55 -281.45 -16.35 Q-282.25 -15.25 -282.7 -13.4 -283.35 -11.55 -283.25 -10.75 L-283.1 -9.1 Q-287.65 17.35 -292.4 28.6 L-294.7 29.0 -300.9 27.1 Q-306.6 25.3 -310.55 23.7 -314.5 21.85 -314.05 19.75 -313.75 17.5 -312.3 13.65 -311.05 9.75 -310.6 6.0 -310.35 2.15 -309.7 1.05 L-309.7 0.75 -309.8 -0.25 -309.95 -0.6 -310.3 -0.8 M-286.6 -15.4 L-286.3 -15.55 -286.2 -16.0 -286.2 -16.35 -292.2 -15.65 -300.05 -16.9 -302.0 -17.9 -302.4 -17.8 Q-302.7 -17.8 -302.6 -17.45 L-302.45 -17.05 Q-303.2 -13.05 -303.2 -10.3 L-303.6 -5.95 -305.9 5.25 -308.25 13.45 -309.4 16.9 -308.95 18.6 -308.8 18.9 -308.5 19.0 -307.4 19.15 -296.15 24.15 -295.8 24.15 Q-295.7 23.95 -295.4 23.9 -292.25 16.85 -290.9 9.55 -288.45 -2.9 -286.6 -15.4 L-286.95 -15.3 -286.95 -15.35 -286.6 -15.4 M-317.8 77.95 L-318.25 78.0 -317.85 78.0 -317.8 77.95 M-325.85 75.9 L-325.55 75.8 -325.35 75.6 -325.3 75.35 Q-325.15 73.85 -326.0 74.1 -326.45 73.9 -327.35 74.9 L-327.55 75.25 -327.4 75.65 -327.05 75.8 -325.85 75.9" fill="#000000" fill-rule="evenodd" stroke="none"/>
    <path d="M-264.4 -78.3 L-263.05 -75.5 -261.6 -73.0 -261.4 -72.7 Q-259.85 -70.55 -259.25 -67.9 L-258.65 -66.25 -257.55 -58.25 Q-257.45 -57.55 -258.6 -52.5 -258.85 -49.1 -259.75 -46.7 L-260.85 -44.0 -260.9 -44.0 -262.5 -40.25 -265.3 -36.0 Q-267.6 -33.05 -269.9 -31.3 L-270.85 -30.25 -271.2 -30.1 Q-275.1 -30.35 -278.05 -28.05 -279.3 -27.4 -280.0 -26.2 -282.05 -23.4 -284.95 -22.25 -291.0 -21.15 -296.45 -22.1 -302.3 -23.1 -306.2 -24.55 -310.35 -26.35 -312.95 -27.95 -317.85 -31.7 -321.15 -36.05 -324.1 -39.9 -325.65 -44.0 L-325.6 -44.0 Q-327.9 -50.05 -328.25 -57.2 -328.75 -66.8 -325.0 -74.75 L-318.0 -84.1 -315.3 -86.5 -314.25 -87.35 -313.4 -87.8 Q-300.25 -92.0 -287.25 -89.15 L-287.05 -88.1 -280.45 -86.75 -264.4 -78.3 M-329.85 -3.55 Q-330.7 -5.05 -330.4 -6.6 -330.4 -7.7 -329.65 -8.25 L-329.6 -8.25 Q-324.45 -13.65 -316.7 -17.7 -312.3 -20.1 -310.85 -21.35 L-310.8 -21.25 -312.35 -14.0 -312.5 -13.75 -312.85 -13.35 -314.9 -5.0 -314.9 -4.95 Q-317.45 2.65 -320.45 10.2 L-320.7 10.45 -321.05 10.45 -321.4 10.2 -327.05 2.5 -327.2 2.15 -327.4 0.65 -328.65 -0.85 -328.75 -1.05 -329.85 -3.55 M-310.3 -0.8 L-309.95 -0.6 -309.8 -0.25 -309.7 0.75 -309.7 1.05 Q-310.35 2.15 -310.6 6.0 -311.05 9.75 -312.3 13.65 -313.75 17.5 -314.05 19.75 -314.5 21.85 -310.55 23.7 -306.6 25.3 -300.9 27.1 L-294.7 29.0 -292.4 28.6 Q-287.65 17.35 -283.1 -9.1 L-283.25 -10.75 Q-283.35 -11.55 -282.7 -13.4 -282.25 -15.25 -281.45 -16.35 L-280.8 -17.55 -280.6 -17.7 -279.35 -19.7 -278.15 -21.0 -278.1 -21.0 Q-277.4 -22.3 -276.15 -22.8 -270.05 -26.0 -262.4 -24.4 L-250.5 -21.85 -249.25 -21.6 -249.25 -21.65 Q-239.5 -19.45 -229.8 -16.65 L-225.55 -16.2 -220.4 -20.55 -226.7 -4.3 -233.85 -5.55 -240.95 -6.4 -244.45 -7.0 -244.5 -7.0 -247.8 -7.35 -247.75 -6.85 -250.5 -7.3 -260.7 -9.35 Q-263.55 -10.05 -266.25 -10.15 -267.3 -10.25 -267.75 -9.6 -268.2 -9.05 -268.1 -8.1 L-267.9 -7.95 -267.55 -7.6 -267.6 -7.2 Q-268.55 -5.4 -268.95 -2.85 L-269.95 1.6 Q-272.4 12.45 -276.1 22.9 L-277.5 26.15 -283.65 38.7 Q-292.65 57.0 -300.5 75.7 L-300.75 76.0 -301.05 76.1 -317.5 77.35 -317.5 77.4 -319.05 77.35 -319.4 77.25 -319.55 76.9 -319.45 76.55 Q-319.5 76.25 -319.2 76.3 L-315.6 73.9 Q-306.0 65.95 -302.25 54.15 L-302.3 54.15 Q-302.2 53.45 -301.75 52.95 -299.85 49.3 -300.35 45.8 -302.4 43.85 -303.5 41.45 L-305.35 36.95 -305.35 36.65 -305.25 35.95 -305.25 35.9 Q-304.75 33.35 -303.25 31.55 -304.65 30.75 -306.3 30.15 -313.35 27.0 -315.45 27.25 -308.35 33.05 -311.5 39.2 L-308.45 45.6 -306.0 49.85 -305.95 50.25 -306.15 51.0 -306.35 51.3 -306.6 51.4 Q-306.65 51.35 -306.7 51.45 L-306.45 51.9 -306.35 52.15 -306.4 52.4 -310.1 60.5 -310.2 60.65 Q-312.45 63.15 -314.35 65.8 -316.85 68.95 -320.15 71.1 L-320.45 71.2 -320.75 71.1 -320.95 70.8 Q-322.5 64.55 -325.1 59.05 L-326.6 55.1 Q-327.3 53.0 -327.45 51.05 -327.45 49.0 -327.1 47.1 -325.95 37.25 -324.85 33.15 -323.35 27.2 -319.5 20.2 L-316.85 13.95 Q-314.15 6.3 -310.85 -0.55 L-310.65 -0.8 -310.3 -0.8 M-325.85 75.9 L-327.05 75.8 -327.4 75.65 -327.55 75.25 -327.35 74.9 Q-326.45 73.9 -326.0 74.1 -325.15 73.85 -325.3 75.35 L-325.35 75.6 -325.55 75.8 -325.85 75.9 M-317.8 77.95 L-317.85 78.0 -318.25 78.0 -317.8 77.95" fill="#b1e34d" fill-rule="evenodd" stroke="none"/>
    <path d="M-264.4 -78.3 L-280.45 -86.75 -280.05 -87.05 Q-274.55 -90.55 -271.65 -91.35 L-271.05 -91.45 -271.0 -91.55 -247.55 -96.9 -248.05 -93.95 -247.85 -91.85 -251.25 -77.8 -252.05 -76.35 -254.1 -69.3 -255.5 -72.65 Q-256.05 -74.35 -257.1 -75.8 L-258.1 -77.4 -258.15 -77.55 -257.25 -77.25 -252.85 -85.8 Q-255.45 -87.55 -258.8 -84.7 -262.15 -81.95 -264.4 -78.3 M-306.7 -95.25 L-310.9 -94.45 -307.65 -104.4 -299.0 -95.35 -306.7 -95.25 M-286.6 -15.4 L-286.95 -15.35 -286.95 -15.3 -286.6 -15.4 Q-288.45 -2.9 -290.9 9.55 -292.25 16.85 -295.4 23.9 -295.7 23.95 -295.8 24.15 L-296.15 24.15 -307.4 19.15 -308.5 19.0 -308.8 18.9 -308.95 18.6 -309.4 16.9 -308.25 13.45 -305.9 5.25 -303.6 -5.95 -303.2 -10.3 Q-303.2 -13.05 -302.45 -17.05 L-302.6 -17.45 Q-302.7 -17.8 -302.4 -17.8 L-302.0 -17.9 -300.05 -16.9 -292.2 -15.65 -286.2 -16.35 -286.2 -16.0 -286.3 -15.55 -286.6 -15.4" fill="#cc3300" fill-rule="evenodd" stroke="none"/>
    <path d="M-324.35 -76.0 Q-312.2 -69.6 -299.85 -63.6 -297.75 -62.55 -295.45 -61.9 -282.5 -58.55 -269.1 -57.05 L-269.3 -56.4 Q-264.35 -57.15 -260.15 -55.0 -259.35 -54.65 -259.0 -53.8 L-259.9 -52.55 -265.05 -52.25 Q-265.9 -46.6 -270.6 -43.85 -271.45 -43.35 -272.4 -43.15 -279.5 -41.4 -283.75 -43.0 -288.0 -44.6 -291.45 -48.1 -294.9 -51.6 -295.1 -55.0 L-295.7 -55.95 -295.6 -57.8 -298.4 -59.05 Q-304.1 -53.15 -312.5 -53.1 -316.1 -53.1 -319.5 -54.3 -320.65 -54.75 -321.65 -55.5 -325.2 -58.2 -326.3 -62.25 L-326.85 -63.1 -326.3 -68.55 -323.3 -72.0 -325.6 -73.4 -325.15 -75.8 -324.35 -76.0 M-323.5 -67.4 L-324.05 -64.5 Q-322.2 -57.55 -316.95 -56.65 -311.7 -55.75 -307.55 -57.1 -303.75 -57.6 -301.3 -60.55 L-319.75 -70.25 -323.5 -67.4 M-289.3 -49.7 Q-286.2 -46.75 -284.3 -46.15 L-281.15 -45.35 Q-276.6 -45.55 -272.35 -46.75 L-271.45 -47.3 Q-268.85 -49.65 -268.35 -53.1 L-292.2 -57.0 Q-292.4 -52.7 -289.3 -49.7 M-315.1 -41.9 L-314.8 -42.4 -297.55 -41.0 -280.8 -40.3 -269.6 -40.35 -268.25 -39.05 Q-268.3 -38.75 -268.5 -38.7 -271.8 -37.65 -275.4 -37.4 L-282.65 -37.05 Q-297.35 -36.85 -311.5 -39.9 -312.7 -40.25 -313.75 -40.95 L-315.1 -41.9" fill="#000000" fill-rule="evenodd" stroke="none"/>
    <path d="M-289.3 -49.7 Q-292.4 -52.7 -292.2 -57.0 L-268.35 -53.1 Q-268.85 -49.65 -271.45 -47.3 L-272.35 -46.75 Q-276.6 -45.55 -281.15 -45.35 L-284.3 -46.15 Q-286.2 -46.75 -289.3 -49.7 M-323.5 -67.4 L-319.75 -70.25 -301.3 -60.55 Q-303.75 -57.6 -307.55 -57.1 -311.7 -55.75 -316.95 -56.65 -322.2 -57.55 -324.05 -64.5 L-323.5 -67.4" fill="#ffffff" fill-rule="evenodd" stroke="none"/>
    <path d="M-309.0 -66.85 L-308.15 -66.45 -307.45 -66.05 -306.45 -65.6 -306.15 -65.2 -305.75 -64.75 -305.35 -64.35 -305.25 -63.5 -305.2 -62.7 -305.2 -61.4 -305.4 -61.05 -305.75 -60.6 -306.15 -60.15 -306.45 -59.75 -307.4 -59.25 -308.0 -58.9 Q-308.2 -58.7 -308.45 -58.65 L-310.25 -58.5 -310.95 -58.9 -311.8 -59.35 -312.65 -59.75 -313.0 -60.15 -313.25 -60.6 -313.4 -60.95 -313.9 -61.85 -313.9 -62.7 -313.9 -63.35 -311.05 -63.95 -311.05 -64.35 -311.05 -64.75 -311.05 -65.2 -311.05 -65.6 -311.0 -65.95 -310.35 -66.45 -309.65 -66.75 -309.0 -66.85 M-312.95 -65.05 L-313.9 -64.7 -313.9 -64.75 -313.55 -65.05 -312.95 -65.05" fill="#000000" fill-rule="evenodd" stroke="none"/>
    <path d="M-277.15 -56.05 L-276.3 -55.65 -275.6 -55.25 -274.6 -54.8 -274.3 -54.4 -273.9 -53.95 -273.5 -53.55 -273.4 -52.7 -273.35 -51.9 -273.35 -50.6 -273.55 -50.25 -273.9 -49.8 -274.3 -49.35 -274.6 -48.95 -275.55 -48.45 -276.15 -48.1 -276.6 -47.85 -278.4 -47.7 -279.1 -48.1 -279.95 -48.55 -280.8 -48.95 -281.15 -49.35 -281.4 -49.8 -281.55 -50.15 -282.05 -51.05 -282.05 -51.9 -282.05 -52.55 -279.2 -53.15 -279.2 -53.55 -279.2 -53.95 -279.2 -54.4 -279.2 -54.8 -279.15 -55.15 -278.5 -55.65 -277.8 -55.95 -277.15 -56.05 M-282.05 -53.95 L-281.7 -54.25 -281.1 -54.25 -282.05 -53.9 -282.05 -53.95" fill="#000000" fill-rule="evenodd" stroke="none"/>
  </g>
</svg>
