<?xml version="1.0" encoding="UTF-8" standalone="no"?>
<svg xmlns:ffdec="https://www.free-decompiler.com/flash" xmlns:xlink="http://www.w3.org/1999/xlink" ffdec:objectType="shape" height="193.15px" width="124.6px" xmlns="http://www.w3.org/2000/svg">
  <g transform="matrix(1.0, 0.0, 0.0, 1.0, 339.8, 111.0)">
    <path d="M-263.8 -28.7 Q-261.6 -28.7 -259.45 -31.4 L-252.35 -32.8 Q-248.5 -27.25 -243.2 -23.25 -240.2 -17.3 -234.55 -5.05 L-236.35 -5.55 -237.9 -3.5 -235.0 0.7 Q-242.1 0.2 -247.8 -4.75 L-248.45 -5.65 -250.35 -6.3 -251.75 -5.5 Q-253.85 -8.45 -256.5 -13.3 -260.9 -21.35 -263.8 -28.7 M-245.05 15.75 Q-253.05 14.1 -257.65 20.55 -258.7 22.05 -257.9 23.7 -256.95 25.75 -255.6 27.7 -254.4 29.5 -254.5 31.75 -254.8 37.75 -260.6 40.1 L-263.7 41.5 Q-273.2 45.9 -284.8 45.15 -299.7 43.9 -305.5 39.55 -311.35 35.2 -312.9 32.05 -314.45 28.9 -314.7 27.25 -315.45 22.55 -311.55 19.8 -293.35 16.8 -277.35 26.15 -276.1 26.9 -274.7 26.75 -269.4 26.2 -268.45 21.4 -267.1 14.35 -260.2 12.35 -252.4 9.95 -245.6 14.5 L-245.05 15.75" fill="#80a839" fill-rule="evenodd" stroke="none"/>
    <path d="M-243.2 -23.25 Q-248.5 -27.25 -252.35 -32.8 L-259.45 -31.4 Q-261.6 -28.7 -263.8 -28.7 -265.3 -28.7 -266.85 -30.0 L-266.9 -30.25 -265.5 -31.6 Q-250.7 -45.3 -240.7 -23.85 L-242.5 -22.75 -243.2 -23.25 M-251.75 -5.5 L-250.35 -6.3 -248.45 -5.65 -247.8 -4.75 Q-242.1 0.2 -235.0 0.7 L-237.9 -3.5 -236.35 -5.55 -234.55 -5.05 Q-233.3 -4.55 -232.35 -3.4 L-229.55 0.35 Q-227.6 3.3 -229.75 5.8 -239.65 5.95 -248.45 0.2 -250.75 -1.25 -252.3 -3.5 L-252.3 -5.15 -251.75 -5.5 M-239.7 15.75 Q-238.55 19.2 -241.25 21.1 L-243.65 20.55 Q-249.2 19.35 -253.85 22.1 -251.55 24.65 -250.6 27.9 -248.9 33.8 -252.15 38.8 -254.25 41.95 -257.55 43.9 -259.75 45.2 -262.2 46.15 -273.05 50.3 -284.8 49.4 -291.1 49.5 -299.0 47.7 -306.9 45.85 -311.8 40.4 -316.65 34.95 -318.85 30.3 -319.6 28.6 -319.45 26.7 -318.85 17.85 -310.4 14.95 -308.75 14.3 -307.05 14.3 -290.4 14.45 -275.45 22.15 L-272.6 21.15 Q-272.35 18.35 -271.2 15.7 -269.9 12.8 -267.25 10.95 -258.4 4.65 -247.95 8.15 -243.95 9.55 -241.45 12.55 -240.25 14.0 -239.7 15.75 M-245.05 15.75 L-245.6 14.5 Q-252.4 9.95 -260.2 12.35 -267.1 14.35 -268.45 21.4 -269.4 26.2 -274.7 26.75 -276.1 26.9 -277.35 26.15 -293.35 16.8 -311.55 19.8 -315.45 22.55 -314.7 27.25 -314.45 28.9 -312.9 32.05 -311.35 35.2 -305.5 39.55 -299.7 43.9 -284.8 45.15 -273.2 45.9 -263.7 41.5 L-260.6 40.1 Q-254.8 37.75 -254.5 31.75 -254.4 29.5 -255.6 27.7 -256.95 25.75 -257.9 23.7 -258.7 22.05 -257.65 20.55 -253.05 14.1 -245.05 15.75" fill="#000000" fill-rule="evenodd" stroke="none"/>
    <path d="M-330.85 -77.25 L-326.2 -86.0 -319.0 -99.25 -309.05 -110.9 -308.6 -111.0 Q-306.85 -110.8 -305.65 -109.45 -300.25 -103.5 -296.8 -96.3 -296.45 -95.55 -296.4 -94.65 L-283.85 -93.8 -268.75 -98.95 Q-257.45 -101.95 -245.55 -102.3 L-243.35 -100.9 Q-242.2 -98.4 -242.25 -95.55 -242.4 -86.5 -245.35 -78.05 -247.75 -71.05 -250.85 -64.65 L-254.25 -59.0 -254.65 -59.15 -254.65 -58.85 Q-254.3 -46.0 -262.85 -32.0 L-263.4 -31.35 -263.6 -31.1 -263.7 -30.75 -263.6 -30.4 -263.25 -30.2 -227.75 -21.7 -227.45 -21.75 -227.2 -21.95 Q-224.25 -25.85 -220.4 -28.4 -219.5 -29.05 -218.45 -28.95 L-217.0 -28.6 -215.2 -25.1 -225.25 -0.2 -230.2 -0.15 -261.4 -4.5 -263.7 -5.15 -263.65 -5.15 -265.0 -5.5 -265.15 -5.55 -266.15 -5.5 -266.45 -5.4 -266.65 -5.15 -276.15 22.0 -277.8 26.05 -279.15 29.3 -282.6 38.75 Q-285.4 49.35 -289.05 59.3 L-296.3 79.15 -299.75 81.05 Q-302.6 82.2 -305.9 82.15 L-317.6 82.15 Q-326.15 82.25 -334.2 79.85 -336.05 79.25 -336.7 77.4 L-337.1 76.1 -327.4 68.45 -327.2 68.1 -327.3 67.7 Q-329.65 64.6 -332.3 61.75 L-332.35 61.75 -333.05 60.45 Q-334.65 55.8 -335.3 51.05 -336.2 39.7 -336.0 36.2 -335.7 29.55 -332.7 22.0 L-331.0 17.8 -329.3 15.15 -329.2 14.75 -329.4 14.4 -329.8 14.25 Q-330.8 14.35 -331.5 13.5 L-331.5 13.55 Q-334.8 9.5 -336.95 4.7 L-338.75 0.05 -338.8 -0.1 -339.8 -1.6 -339.8 -9.6 Q-335.15 -15.3 -328.7 -18.95 L-324.0 -21.8 -320.2 -23.85 -318.35 -24.6 -317.9 -24.6 -321.8 -28.2 -321.9 -28.2 Q-324.2 -28.6 -330.3 -38.7 L-332.0 -43.05 Q-337.5 -59.8 -332.0 -73.4 -331.75 -75.5 -330.85 -77.25 M-281.25 -87.1 Q-300.3 -92.9 -318.0 -84.85 L-318.75 -84.3 -319.7 -83.35 -322.1 -80.65 -327.95 -70.55 Q-330.7 -62.2 -329.1 -52.7 -327.05 -40.4 -319.3 -32.0 -317.85 -30.4 -315.2 -29.0 L-313.95 -27.95 Q-311.45 -26.25 -307.55 -24.6 -303.7 -23.2 -298.05 -22.2 -292.5 -21.25 -286.4 -22.4 -283.25 -23.55 -280.95 -26.3 L-278.8 -28.15 Q-275.55 -30.25 -271.75 -30.2 L-271.35 -30.35 -270.35 -31.35 -269.45 -32.0 Q-264.4 -37.9 -261.8 -43.6 L-259.9 -50.35 Q-259.15 -53.35 -259.5 -57.7 L-260.3 -65.7 -260.8 -67.35 Q-261.3 -70.05 -262.75 -72.25 -263.9 -74.0 -265.55 -78.0 -263.2 -81.55 -259.7 -84.15 -256.25 -86.9 -253.7 -85.0 L-258.45 -76.65 -259.3 -77.0 -259.3 -76.8 -258.35 -75.2 Q-257.35 -73.7 -256.85 -72.0 L-255.65 -68.6 -253.3 -75.55 -252.45 -76.95 -248.5 -90.9 -248.6 -93.0 -247.95 -95.9 -271.65 -91.5 -271.65 -91.4 -272.3 -91.35 Q-275.35 -90.65 -281.25 -87.1 M-334.15 -0.85 L-333.1 0.65 -333.1 2.15 -333.0 2.5 -328.0 10.1 -327.7 10.35 -327.35 10.35 -327.05 10.1 -319.35 -5.1 -319.35 -5.15 -315.95 -13.45 -315.95 -13.4 -315.55 -13.85 -315.35 -14.1 -312.65 -21.3 -312.6 -21.45 Q-314.15 -20.2 -319.15 -17.75 -327.65 -13.6 -333.85 -8.25 L-333.9 -8.25 Q-334.7 -7.65 -334.95 -6.6 -335.4 -5.0 -334.9 -3.55 L-334.2 -1.05 -334.15 -0.85 M-310.8 -93.45 L-303.15 -94.35 -308.9 -102.85 -315.25 -92.2 Q-313.3 -93.0 -310.8 -93.45 M-304.65 -17.95 L-304.9 -17.6 -304.8 -17.2 Q-306.1 -13.25 -306.6 -10.5 -307.1 -7.85 -307.65 -6.2 -309.65 -0.1 -311.5 4.9 L-314.65 13.1 -315.95 16.55 -315.5 18.25 -315.35 18.55 -315.05 18.65 -313.9 18.8 -302.2 23.6 -301.8 23.6 -301.45 23.35 Q-298.45 16.3 -296.4 8.95 L-288.95 -15.7 -289.3 -15.6 -289.3 -15.65 -288.95 -15.7 -288.6 -15.85 -288.45 -16.25 -288.45 -16.6 -294.6 -15.9 Q-298.4 -16.1 -302.4 -17.1 L-304.25 -18.05 -304.65 -17.95 M-315.25 -1.05 L-315.6 -1.05 -315.85 -0.8 Q-320.4 6.15 -323.55 13.75 L-326.4 20.05 Q-330.2 27.2 -331.05 33.1 -331.65 37.2 -331.2 47.1 L-330.9 51.05 -329.35 55.1 -327.15 59.05 Q-323.55 64.6 -321.4 70.85 L-321.2 71.15 -320.9 71.25 -320.6 71.15 Q-317.45 69.05 -315.4 65.8 L-311.9 60.6 -311.8 60.45 -309.3 52.25 -309.3 52.0 -309.4 51.75 -309.75 51.3 -309.65 51.25 -309.4 51.1 -309.25 50.8 -309.2 50.05 -309.3 49.65 -312.45 45.4 -316.5 38.95 Q-314.15 32.85 -321.95 27.05 -319.75 26.8 -312.3 29.8 L-309.0 31.15 Q-310.25 33.1 -310.55 35.55 L-310.55 35.6 -310.55 36.35 -310.5 36.65 -308.0 41.15 Q-306.5 43.65 -304.15 45.5 -303.15 49.1 -304.5 52.75 L-304.85 53.95 -304.8 53.95 Q-306.8 66.0 -315.8 73.95 -317.45 75.4 -319.25 76.35 L-319.5 76.6 -319.55 76.95 -319.4 77.3 -319.05 77.4 -317.5 77.45 -317.5 77.4 -301.1 76.15 -300.8 76.05 -300.6 75.75 -288.05 38.1 -282.85 25.3 -281.5 22.0 -274.05 0.8 Q-273.45 -0.5 -272.55 -3.55 -271.8 -6.0 -270.65 -7.8 L-270.6 -8.2 -270.85 -8.55 -271.1 -8.7 Q-271.0 -9.65 -270.5 -10.15 -269.95 -10.75 -268.9 -10.7 L-263.35 -10.0 Q-253.9 -7.9 -244.5 -7.0 L-244.45 -7.0 -240.95 -6.4 -233.85 -5.55 -226.7 -4.3 -220.4 -20.55 -225.55 -16.2 -229.8 -16.65 Q-246.55 -21.45 -263.4 -24.6 -270.85 -26.15 -277.45 -23.0 -278.75 -22.45 -279.6 -21.25 L-279.65 -21.25 Q-280.5 -20.2 -281.05 -19.95 L-282.55 -18.0 -282.75 -17.85 -283.6 -16.65 -285.25 -13.75 Q-286.1 -11.95 -286.15 -11.15 L-286.25 -9.55 -298.05 28.0 -300.4 28.45 -306.95 26.65 Q-312.85 25.05 -317.05 23.4 -321.25 21.7 -320.8 19.5 -320.45 17.25 -318.85 13.4 -317.3 9.55 -316.45 5.75 -315.65 1.95 -314.9 0.8 L-314.85 0.5 -314.85 -0.5 -314.95 -0.85 -315.25 -1.05 M-318.25 78.05 L-317.85 78.05 -317.75 78.0 -318.25 78.05 M-327.65 75.3 L-327.5 75.7 -327.15 75.85 -325.95 75.95 -325.65 75.85 -325.45 75.65 -325.4 75.4 Q-325.35 74.0 -326.2 74.15 -326.65 74.0 -327.5 74.95 L-327.65 75.3" fill="#000000" fill-rule="evenodd" stroke="none"/>
    <path d="M-265.55 -78.0 Q-263.9 -74.0 -262.75 -72.25 -261.3 -70.05 -260.8 -67.35 L-260.3 -65.7 -259.5 -57.7 Q-259.15 -53.35 -259.9 -50.35 L-261.8 -43.6 Q-264.4 -37.9 -269.45 -32.0 L-270.35 -31.35 -271.35 -30.35 -271.75 -30.2 Q-275.55 -30.25 -278.8 -28.15 L-280.95 -26.3 Q-283.25 -23.55 -286.4 -22.4 -292.5 -21.25 -298.05 -22.2 -303.7 -23.2 -307.55 -24.6 -311.45 -26.25 -313.95 -27.95 L-315.2 -29.0 Q-317.85 -30.4 -319.3 -32.0 -327.05 -40.4 -329.1 -52.7 -330.7 -62.2 -327.95 -70.55 L-322.1 -80.65 -319.7 -83.35 -318.75 -84.3 -318.0 -84.85 Q-300.3 -92.9 -281.25 -87.1 L-265.55 -78.0 M-334.15 -0.85 L-334.2 -1.05 -334.9 -3.55 Q-335.4 -5.0 -334.95 -6.6 -334.7 -7.65 -333.9 -8.25 L-333.85 -8.25 Q-327.65 -13.6 -319.15 -17.75 -314.15 -20.2 -312.6 -21.45 L-312.65 -21.3 -315.35 -14.1 -315.55 -13.85 -315.95 -13.4 -315.95 -13.45 -319.35 -5.15 -319.35 -5.1 -327.05 10.1 -327.35 10.35 -327.7 10.35 -328.0 10.1 -333.0 2.5 -333.1 2.15 -333.1 0.65 -334.15 -0.85 M-327.65 75.3 L-327.5 74.95 Q-326.65 74.0 -326.2 74.15 -325.35 74.0 -325.4 75.4 L-325.45 75.65 -325.65 75.85 -325.95 75.95 -327.15 75.85 -327.5 75.7 -327.65 75.3 M-318.25 78.05 L-317.75 78.0 -317.85 78.05 -318.25 78.05 M-315.25 -1.05 L-314.95 -0.85 -314.85 -0.5 -314.85 0.5 -314.9 0.8 Q-315.65 1.95 -316.45 5.75 -317.3 9.55 -318.85 13.4 -320.45 17.25 -320.8 19.5 -321.25 21.7 -317.05 23.4 -312.85 25.05 -306.95 26.65 L-300.4 28.45 -298.05 28.0 -286.25 -9.55 -286.15 -11.15 Q-286.1 -11.95 -285.25 -13.75 L-283.6 -16.65 -282.75 -17.85 -282.55 -18.0 -281.05 -19.95 Q-280.5 -20.2 -279.65 -21.25 L-279.6 -21.25 Q-278.75 -22.45 -277.45 -23.0 -270.85 -26.15 -263.4 -24.6 -246.55 -21.45 -229.8 -16.65 L-225.55 -16.2 -220.4 -20.55 -226.7 -4.3 -233.85 -5.55 -240.95 -6.4 -244.45 -7.0 -244.5 -7.0 Q-253.9 -7.9 -263.35 -10.0 L-268.9 -10.7 Q-269.95 -10.75 -270.5 -10.15 -271.0 -9.65 -271.1 -8.7 L-270.85 -8.55 -270.6 -8.2 -270.65 -7.8 Q-271.8 -6.0 -272.55 -3.55 -273.45 -0.5 -274.05 0.8 L-281.5 22.0 -282.85 25.3 -288.05 38.1 -300.6 75.75 -300.8 76.05 -301.1 76.15 -317.5 77.4 -317.5 77.45 -319.05 77.4 -319.4 77.3 -319.55 76.95 -319.5 76.6 -319.25 76.35 Q-317.45 75.4 -315.8 73.95 -306.8 66.0 -304.8 53.95 L-304.85 53.95 -304.5 52.75 Q-303.15 49.1 -304.15 45.5 -306.5 43.65 -308.0 41.15 L-310.5 36.65 -310.55 36.35 -310.55 35.6 -310.55 35.55 Q-310.25 33.1 -309.0 31.15 L-312.3 29.8 Q-319.75 26.8 -321.95 27.05 -314.15 32.85 -316.5 38.95 L-312.45 45.4 -309.3 49.65 -309.2 50.05 -309.25 50.8 -309.4 51.1 -309.65 51.25 -309.75 51.3 -309.4 51.75 -309.3 52.0 -309.3 52.25 -311.8 60.45 -311.9 60.6 -315.4 65.8 Q-317.45 69.05 -320.6 71.15 L-320.9 71.25 -321.2 71.15 -321.4 70.85 Q-323.55 64.6 -327.15 59.05 L-329.35 55.1 -330.9 51.05 -331.2 47.1 Q-331.65 37.2 -331.05 33.1 -330.2 27.2 -326.4 20.05 L-323.55 13.75 Q-320.4 6.15 -315.85 -0.8 L-315.6 -1.05 -315.25 -1.05" fill="#b1e34d" fill-rule="evenodd" stroke="none"/>
    <path d="M-281.25 -87.1 Q-275.35 -90.65 -272.3 -91.35 L-271.65 -91.4 -271.65 -91.5 -247.95 -95.9 -248.6 -93.0 -248.5 -90.9 -252.45 -76.95 -253.3 -75.55 -255.65 -68.6 -256.85 -72.0 Q-257.35 -73.7 -258.35 -75.2 L-259.3 -76.8 -259.3 -77.0 -258.45 -76.65 -253.7 -85.0 Q-256.25 -86.9 -259.7 -84.15 -263.2 -81.55 -265.55 -78.0 L-281.25 -87.1 M-304.65 -17.95 L-304.25 -18.05 -302.4 -17.1 Q-298.4 -16.1 -294.6 -15.9 L-288.45 -16.6 -288.45 -16.25 -288.6 -15.85 -288.95 -15.7 -289.3 -15.65 -289.3 -15.6 -288.95 -15.7 -296.4 8.95 Q-298.45 16.3 -301.45 23.35 L-301.8 23.6 -302.2 23.6 -313.9 18.8 -315.05 18.65 -315.35 18.55 -315.5 18.25 -315.95 16.55 -314.65 13.1 -311.5 4.9 Q-309.65 -0.1 -307.65 -6.2 -307.1 -7.85 -306.6 -10.5 -306.1 -13.25 -304.8 -17.2 L-304.9 -17.6 -304.65 -17.95 M-310.8 -93.45 Q-313.3 -93.0 -315.25 -92.2 L-308.9 -102.85 -303.15 -94.35 -310.8 -93.45" fill="#cc3300" fill-rule="evenodd" stroke="none"/>
    <path d="M-328.5 -56.9 L-314.1 -56.05 -304.5 -54.45 Q-302.7 -54.05 -301.75 -52.65 L-301.65 -52.25 -301.65 -51.9 -301.75 -51.5 -301.9 -51.15 -302.15 -50.75 -302.55 -50.4 Q-303.45 -49.7 -304.5 -49.25 L-306.35 -48.45 Q-308.3 -47.6 -310.4 -48.4 L-310.85 -48.75 -311.2 -49.15 -311.4 -49.5 -311.4 -49.9 -311.35 -50.25 -311.25 -50.65 -311.15 -51.0 Q-311.5 -51.65 -314.85 -52.0 L-328.9 -52.9 -329.35 -53.25 -329.75 -53.65 -330.1 -54.05 -330.25 -54.4 -330.4 -54.75 -330.4 -55.15 -330.35 -55.5 -330.25 -55.9 -329.85 -56.25 -329.4 -56.65 -328.5 -56.8 -328.5 -56.9 M-264.65 -53.45 L-261.15 -53.15 -260.65 -52.75 -260.4 -52.35 -260.25 -52.0 -260.15 -51.6 -260.15 -51.25 -260.25 -50.9 -260.5 -50.5 -260.8 -50.15 -261.15 -49.9 Q-263.5 -49.05 -265.95 -49.3 L-282.9 -50.5 -284.25 -50.55 -283.65 -50.25 -283.4 -49.85 -283.25 -49.5 -283.15 -49.1 -283.15 -48.75 -283.25 -48.4 -283.5 -48.0 -283.8 -47.65 -284.15 -47.4 Q-284.25 -47.3 -284.4 -47.3 L-285.0 -47.15 -285.5 -47.15 -286.4 -47.4 -288.5 -48.85 Q-289.6 -49.6 -290.9 -49.9 L-291.75 -50.65 -292.05 -51.05 -292.2 -51.35 -292.4 -51.4 -292.85 -51.75 -293.2 -52.15 -293.4 -52.5 -293.4 -52.9 -293.35 -53.25 -293.25 -53.65 -293.1 -54.0 -292.75 -54.4 -292.4 -54.6 -292.15 -54.7 -291.5 -54.8 -291.5 -54.9 -282.1 -54.65 -264.65 -53.45 M-309.25 -42.4 L-308.9 -42.6 -308.65 -42.7 -308.0 -42.8 -308.0 -42.9 -295.6 -42.05 -283.3 -40.8 -283.25 -41.4 -282.85 -41.75 -282.4 -42.15 -281.55 -42.3 -281.5 -42.4 -281.0 -42.35 -280.15 -42.15 -279.65 -41.75 -279.4 -41.35 -279.25 -41.0 -279.15 -40.65 -279.15 -40.25 -279.3 -39.9 -279.5 -39.5 -279.65 -39.15 -279.65 -38.75 -279.65 -38.4 -279.75 -38.0 -279.9 -37.65 -280.15 -37.3 -280.65 -36.9 -281.5 -36.65 -282.4 -36.9 -282.85 -37.25 -282.95 -37.35 Q-289.85 -37.05 -296.9 -37.7 L-308.9 -39.4 -309.35 -39.75 -309.7 -40.15 -309.9 -40.5 -309.9 -40.9 -309.85 -41.25 -309.75 -41.6 -309.25 -42.4" fill="#000000" fill-rule="evenodd" stroke="none"/>
  </g>
</svg>
