<?xml version="1.0" encoding="UTF-8" standalone="no"?>
<svg xmlns:ffdec="https://www.free-decompiler.com/flash" xmlns:xlink="http://www.w3.org/1999/xlink" ffdec:objectType="shape" height="195.0px" width="124.6px" xmlns="http://www.w3.org/2000/svg">
  <g transform="matrix(1.0, 0.0, 0.0, 1.0, 339.8, 112.85)">
    <path d="M-263.8 -28.7 Q-261.6 -28.7 -259.45 -31.4 L-252.35 -32.8 Q-248.5 -27.25 -243.2 -23.25 -240.2 -17.3 -234.55 -5.05 L-236.35 -5.55 -237.9 -3.5 -235.0 0.7 Q-242.1 0.2 -247.8 -4.75 L-248.45 -5.65 -250.35 -6.3 -251.75 -5.5 Q-253.85 -8.45 -256.5 -13.3 -260.9 -21.35 -263.8 -28.7 M-245.05 15.75 Q-253.05 14.1 -257.65 20.55 -258.7 22.05 -257.9 23.7 -256.95 25.75 -255.6 27.7 -254.4 29.5 -254.5 31.75 -254.8 37.75 -260.6 40.1 L-263.7 41.5 Q-273.2 45.9 -284.8 45.15 -299.7 43.9 -305.5 39.55 -311.35 35.2 -312.9 32.05 -314.45 28.9 -314.7 27.25 -315.45 22.55 -311.55 19.8 -293.35 16.8 -277.35 26.15 -276.1 26.9 -274.7 26.75 -269.4 26.2 -268.45 21.4 -267.1 14.35 -260.2 12.35 -252.4 9.95 -245.6 14.5 L-245.05 15.75" fill="#80a839" fill-rule="evenodd" stroke="none"/>
    <path d="M-243.2 -23.25 Q-248.5 -27.25 -252.35 -32.8 L-259.45 -31.4 Q-261.6 -28.7 -263.8 -28.7 -265.3 -28.7 -266.85 -30.0 L-266.9 -30.25 -265.5 -31.6 Q-250.7 -45.3 -240.7 -23.85 L-242.5 -22.75 -243.2 -23.25 M-251.75 -5.5 L-250.35 -6.3 -248.45 -5.65 -247.8 -4.75 Q-242.1 0.2 -235.0 0.7 L-237.9 -3.5 -236.35 -5.55 -234.55 -5.05 Q-233.3 -4.55 -232.35 -3.4 L-229.55 0.35 Q-227.6 3.3 -229.75 5.8 -239.65 5.95 -248.45 0.2 -250.75 -1.25 -252.3 -3.5 L-252.3 -5.15 -251.75 -5.5 M-239.7 15.75 Q-238.55 19.2 -241.25 21.1 L-243.65 20.55 Q-249.2 19.35 -253.85 22.1 -251.55 24.65 -250.6 27.9 -248.9 33.8 -252.15 38.8 -254.25 41.95 -257.55 43.9 -259.75 45.2 -262.2 46.15 -273.05 50.3 -284.8 49.4 -291.1 49.5 -299.0 47.7 -306.9 45.85 -311.8 40.4 -316.65 34.95 -318.85 30.3 -319.6 28.6 -319.45 26.7 -318.85 17.85 -310.4 14.95 -308.75 14.3 -307.05 14.3 -290.4 14.45 -275.45 22.15 L-272.6 21.15 Q-272.35 18.35 -271.2 15.7 -269.9 12.8 -267.25 10.95 -258.4 4.65 -247.95 8.15 -243.95 9.55 -241.45 12.55 -240.25 14.0 -239.7 15.75 M-245.05 15.75 L-245.6 14.5 Q-252.4 9.95 -260.2 12.35 -267.1 14.35 -268.45 21.4 -269.4 26.2 -274.7 26.75 -276.1 26.9 -277.35 26.15 -293.35 16.8 -311.55 19.8 -315.45 22.55 -314.7 27.25 -314.45 28.9 -312.9 32.05 -311.35 35.2 -305.5 39.55 -299.7 43.9 -284.8 45.15 -273.2 45.9 -263.7 41.5 L-260.6 40.1 Q-254.8 37.75 -254.5 31.75 -254.4 29.5 -255.6 27.7 -256.95 25.75 -257.9 23.7 -258.7 22.05 -257.65 20.55 -253.05 14.1 -245.05 15.75" fill="#000000" fill-rule="evenodd" stroke="none"/>
    <path d="M-260.4 -73.35 Q-259.85 -69.15 -259.2 -67.25 -258.4 -64.8 -258.6 -62.1 L-258.5 -60.4 -258.8 -58.5 -259.05 -56.9 -258.4 -56.85 -258.5 -53.9 Q-258.7 -49.55 -259.75 -46.7 L-262.45 -40.2 Q-266.1 -34.2 -270.35 -31.35 L-271.35 -30.35 -271.75 -30.2 Q-275.55 -30.25 -278.8 -28.15 L-280.95 -26.3 Q-283.25 -23.55 -286.4 -22.4 -292.5 -21.25 -298.05 -22.2 -303.7 -23.2 -307.55 -24.6 -311.45 -26.25 -313.95 -27.95 -327.0 -38.9 -328.2 -56.2 L-328.25 -56.2 -328.2 -56.4 -328.25 -57.2 -328.3 -58.5 -328.05 -58.5 Q-327.0 -69.35 -322.9 -75.9 L-314.55 -85.0 -311.5 -87.25 -310.3 -88.05 -309.45 -88.5 Q-290.15 -93.6 -273.2 -84.85 L-260.4 -73.35 M-334.2 -1.05 L-334.9 -3.55 Q-335.4 -5.0 -334.95 -6.6 -334.7 -7.65 -333.9 -8.25 L-333.85 -8.25 Q-327.65 -13.6 -319.15 -17.75 -314.15 -20.2 -312.6 -21.45 L-312.65 -21.3 -315.35 -14.1 -315.55 -13.85 -315.95 -13.4 -315.95 -13.45 -319.35 -5.15 -319.35 -5.1 -327.05 10.1 -327.35 10.35 -327.7 10.35 -328.0 10.1 -333.0 2.5 -333.1 2.15 -333.1 0.65 -334.15 -0.85 -334.2 -1.05 M-327.65 75.3 L-327.5 74.95 Q-326.65 74.0 -326.2 74.15 -325.35 74.0 -325.4 75.4 L-325.45 75.65 -325.65 75.85 -325.95 75.95 -327.15 75.85 -327.5 75.7 -327.65 75.3 M-318.25 78.05 L-317.75 78.0 -317.85 78.05 -318.25 78.05 M-315.25 -1.05 L-314.95 -0.85 -314.85 -0.5 -314.85 0.5 -314.9 0.8 Q-315.65 1.95 -316.45 5.75 -317.3 9.55 -318.85 13.4 -320.45 17.25 -320.8 19.5 -321.25 21.7 -317.05 23.4 -312.85 25.05 -306.95 26.65 L-300.4 28.45 -298.05 28.0 -286.25 -9.55 -286.15 -11.15 Q-286.1 -11.95 -285.25 -13.75 L-283.6 -16.65 -282.75 -17.85 -282.55 -18.0 -281.05 -19.95 Q-280.5 -20.2 -279.65 -21.25 L-279.6 -21.25 Q-278.75 -22.45 -277.45 -23.0 -270.85 -26.15 -263.4 -24.6 -246.55 -21.45 -229.8 -16.65 L-225.55 -16.2 -220.4 -20.55 -226.7 -4.3 -233.85 -5.55 -240.95 -6.4 -244.45 -7.0 -244.5 -7.0 Q-253.9 -7.9 -263.35 -10.0 L-268.9 -10.7 Q-269.95 -10.75 -270.5 -10.15 -271.0 -9.65 -271.1 -8.7 L-270.85 -8.55 -270.6 -8.2 -270.65 -7.8 Q-271.8 -6.0 -272.55 -3.55 -273.45 -0.5 -274.05 0.8 L-281.5 22.0 -282.85 25.3 -288.05 38.1 -300.6 75.75 -300.8 76.05 -301.1 76.15 -317.5 77.4 -317.5 77.45 -319.05 77.4 -319.4 77.3 -319.55 76.95 -319.5 76.6 -319.25 76.35 Q-317.45 75.4 -315.8 73.95 -306.8 66.0 -304.8 53.95 L-304.85 53.95 -304.5 52.75 Q-303.15 49.1 -304.15 45.5 -306.5 43.65 -308.0 41.15 L-310.5 36.65 -310.55 36.35 -310.55 35.6 -310.55 35.55 Q-310.25 33.1 -309.0 31.15 L-312.3 29.8 Q-319.75 26.8 -321.95 27.05 -314.15 32.85 -316.5 38.95 L-312.45 45.4 -309.3 49.65 -309.2 50.05 -309.25 50.8 -309.4 51.1 -309.65 51.25 -309.75 51.3 -309.4 51.75 -309.3 52.0 -309.3 52.25 -311.8 60.45 -311.9 60.6 -315.4 65.8 Q-317.45 69.05 -320.6 71.15 L-320.9 71.25 -321.2 71.15 -321.4 70.85 Q-323.55 64.6 -327.15 59.05 L-329.35 55.1 -330.9 51.05 -331.2 47.1 Q-331.65 37.2 -331.05 33.1 -330.2 27.2 -326.4 20.05 L-323.55 13.75 Q-320.4 6.15 -315.85 -0.8 L-315.6 -1.05 -315.25 -1.05" fill="#b1e34d" fill-rule="evenodd" stroke="none"/>
    <path d="M-333.1 -58.5 Q-331.65 -71.5 -326.05 -79.35 -325.25 -81.4 -323.9 -83.0 L-317.1 -90.9 -306.65 -102.85 -293.85 -112.8 -293.45 -112.8 Q-291.8 -112.35 -290.95 -110.8 -287.3 -104.1 -285.85 -96.45 -285.7 -95.6 -285.9 -94.7 L-274.0 -91.9 -257.95 -94.55 Q-246.25 -95.7 -234.55 -94.15 L-232.8 -92.5 Q-232.35 -89.8 -233.15 -87.0 -235.7 -78.1 -240.75 -70.2 -244.95 -63.65 -249.65 -57.8 L-250.85 -56.55 -251.6 -56.55 -253.15 -54.6 -253.55 -54.8 -253.55 -54.5 Q-254.75 -41.25 -263.4 -31.35 L-263.6 -31.1 -263.7 -30.75 -263.6 -30.4 -263.25 -30.2 -227.75 -21.7 -227.45 -21.75 -227.2 -21.95 Q-224.25 -25.85 -220.4 -28.4 -219.5 -29.05 -218.45 -28.95 L-217.0 -28.6 -215.2 -25.1 -225.25 -0.2 -230.2 -0.15 -261.4 -4.5 -263.7 -5.15 -263.65 -5.15 -265.0 -5.5 -265.15 -5.55 -266.15 -5.5 -266.45 -5.4 -266.65 -5.15 -276.15 22.0 -277.8 26.05 -279.15 29.3 -282.6 38.75 Q-285.4 49.35 -289.05 59.3 L-296.3 79.15 -299.75 81.05 Q-302.6 82.2 -305.9 82.15 L-317.6 82.15 Q-326.15 82.25 -334.2 79.85 -336.05 79.25 -336.7 77.4 L-337.1 76.1 -327.4 68.45 -327.2 68.1 -327.3 67.7 Q-329.65 64.6 -332.3 61.75 L-332.35 61.75 -333.05 60.45 Q-334.65 55.8 -335.3 51.05 -336.2 39.7 -336.0 36.2 -335.7 29.55 -332.7 22.0 L-331.0 17.8 -329.3 15.15 -329.2 14.75 -329.4 14.4 -329.8 14.25 Q-330.8 14.35 -331.5 13.5 L-331.5 13.55 Q-334.8 9.5 -336.95 4.7 L-338.75 0.05 -338.8 -0.1 -339.8 -1.6 -339.8 -9.6 Q-335.15 -15.3 -328.7 -18.95 L-324.0 -21.8 -320.2 -23.85 -318.35 -24.6 -317.9 -24.6 Q-322.45 -28.4 -325.8 -32.75 -326.1 -32.3 -331.1 -43.4 L-332.3 -47.9 Q-333.15 -52.15 -333.35 -56.1 L-333.4 -58.5 -333.1 -58.5 M-273.2 -84.85 Q-290.15 -93.6 -309.45 -88.5 L-310.3 -88.05 -311.5 -87.25 -314.55 -85.0 -322.9 -75.9 Q-327.0 -69.35 -328.05 -58.5 L-328.3 -58.5 -328.25 -57.2 -328.2 -56.4 -328.25 -56.2 -328.2 -56.2 Q-327.0 -38.9 -313.95 -27.95 -311.45 -26.25 -307.55 -24.6 -303.7 -23.2 -298.05 -22.2 -292.5 -21.25 -286.4 -22.4 -283.25 -23.55 -280.95 -26.3 L-278.8 -28.15 Q-275.55 -30.25 -271.75 -30.2 L-271.35 -30.35 -270.35 -31.35 Q-266.1 -34.2 -262.45 -40.2 L-259.75 -46.7 Q-258.7 -49.55 -258.5 -53.9 L-258.4 -56.85 -259.05 -56.9 -258.8 -58.5 -258.5 -60.4 -258.6 -62.1 Q-258.4 -64.8 -259.2 -67.25 -259.85 -69.15 -260.4 -73.35 -257.15 -76.45 -253.1 -78.5 -249.05 -80.65 -247.05 -78.4 L-253.85 -70.9 -254.6 -71.35 -254.6 -71.2 -254.15 -69.45 Q-253.6 -67.8 -253.55 -66.05 L-253.25 -62.5 -249.15 -69.0 -247.95 -70.25 -240.45 -83.35 -240.0 -85.45 -238.6 -88.25 -262.75 -87.65 -262.75 -87.55 -263.4 -87.6 Q-266.55 -87.4 -273.2 -84.85 M-334.2 -1.05 L-334.15 -0.85 -333.1 0.65 -333.1 2.15 -333.0 2.5 -328.0 10.1 -327.7 10.35 -327.35 10.35 -327.05 10.1 -319.35 -5.1 -319.35 -5.15 -315.95 -13.45 -315.95 -13.4 -315.55 -13.85 -315.35 -14.1 -312.65 -21.3 -312.6 -21.45 Q-314.15 -20.2 -319.15 -17.75 -327.65 -13.6 -333.85 -8.25 L-333.9 -8.25 Q-334.7 -7.65 -334.95 -6.6 -335.4 -5.0 -334.9 -3.55 L-334.2 -1.05 M-292.5 -95.5 L-295.85 -104.8 -304.85 -95.3 -300.2 -95.8 -292.5 -95.5 M-304.8 -17.2 Q-306.1 -13.25 -306.6 -10.5 -307.1 -7.85 -307.65 -6.2 -309.65 -0.1 -311.5 4.9 L-314.65 13.1 -315.95 16.55 -315.5 18.25 -315.35 18.55 -315.05 18.65 -313.9 18.8 -302.2 23.6 -301.8 23.6 -301.45 23.35 Q-298.45 16.3 -296.4 8.95 L-288.95 -15.7 -289.3 -15.6 -289.3 -15.65 -288.95 -15.7 -288.6 -15.85 -288.45 -16.25 -288.45 -16.6 -294.6 -15.9 Q-298.4 -16.1 -302.4 -17.1 L-304.25 -18.05 -304.65 -17.95 -304.9 -17.6 -304.8 -17.2 M-315.25 -1.05 L-315.6 -1.05 -315.85 -0.8 Q-320.4 6.15 -323.55 13.75 L-326.4 20.05 Q-330.2 27.2 -331.05 33.1 -331.65 37.2 -331.2 47.1 L-330.9 51.05 -329.35 55.1 -327.15 59.05 Q-323.55 64.6 -321.4 70.85 L-321.2 71.15 -320.9 71.25 -320.6 71.15 Q-317.45 69.05 -315.4 65.8 L-311.9 60.6 -311.8 60.45 -309.3 52.25 -309.3 52.0 -309.4 51.75 -309.75 51.3 -309.65 51.25 -309.4 51.1 -309.25 50.8 -309.2 50.05 -309.3 49.65 -312.45 45.4 -316.5 38.95 Q-314.15 32.85 -321.95 27.05 -319.75 26.8 -312.3 29.8 L-309.0 31.15 Q-310.25 33.1 -310.55 35.55 L-310.55 35.6 -310.55 36.35 -310.5 36.65 -308.0 41.15 Q-306.5 43.65 -304.15 45.5 -303.15 49.1 -304.5 52.75 L-304.85 53.95 -304.8 53.95 Q-306.8 66.0 -315.8 73.95 -317.45 75.4 -319.25 76.35 L-319.5 76.6 -319.55 76.95 -319.4 77.3 -319.05 77.4 -317.5 77.45 -317.5 77.4 -301.1 76.15 -300.8 76.05 -300.6 75.75 -288.05 38.1 -282.85 25.3 -281.5 22.0 -274.05 0.8 Q-273.45 -0.5 -272.55 -3.55 -271.8 -6.0 -270.65 -7.8 L-270.6 -8.2 -270.85 -8.55 -271.1 -8.7 Q-271.0 -9.65 -270.5 -10.15 -269.95 -10.75 -268.9 -10.7 L-263.35 -10.0 Q-253.9 -7.9 -244.5 -7.0 L-244.45 -7.0 -240.95 -6.4 -233.85 -5.55 -226.7 -4.3 -220.4 -20.55 -225.55 -16.2 -229.8 -16.65 Q-246.55 -21.45 -263.4 -24.6 -270.85 -26.15 -277.45 -23.0 -278.75 -22.45 -279.6 -21.25 L-279.65 -21.25 Q-280.5 -20.2 -281.05 -19.95 L-282.55 -18.0 -282.75 -17.85 -283.6 -16.65 -285.25 -13.75 Q-286.1 -11.95 -286.15 -11.15 L-286.25 -9.55 -298.05 28.0 -300.4 28.45 -306.95 26.65 Q-312.85 25.05 -317.05 23.4 -321.25 21.7 -320.8 19.5 -320.45 17.25 -318.85 13.4 -317.3 9.55 -316.45 5.75 -315.65 1.95 -314.9 0.8 L-314.85 0.5 -314.85 -0.5 -314.95 -0.85 -315.25 -1.05 M-318.25 78.05 L-317.85 78.05 -317.75 78.0 -318.25 78.05 M-327.65 75.3 L-327.5 75.7 -327.15 75.85 -325.95 75.95 -325.65 75.85 -325.45 75.65 -325.4 75.4 Q-325.35 74.0 -326.2 74.15 -326.65 74.0 -327.5 74.95 L-327.65 75.3" fill="#000000" fill-rule="evenodd" stroke="none"/>
    <path d="M-260.4 -73.35 L-273.2 -84.85 Q-266.55 -87.4 -263.4 -87.6 L-262.75 -87.55 -262.75 -87.65 -238.6 -88.25 -240.0 -85.45 -240.45 -83.35 -247.95 -70.25 -249.15 -69.0 -253.25 -62.5 -253.55 -66.05 Q-253.6 -67.8 -254.15 -69.45 L-254.6 -71.2 -254.6 -71.35 -253.85 -70.9 -247.05 -78.4 Q-249.05 -80.65 -253.1 -78.5 -257.15 -76.45 -260.4 -73.35 M-304.8 -17.2 L-304.9 -17.6 -304.65 -17.95 -304.25 -18.05 -302.4 -17.1 Q-298.4 -16.1 -294.6 -15.9 L-288.45 -16.6 -288.45 -16.25 -288.6 -15.85 -288.95 -15.7 -289.3 -15.65 -289.3 -15.6 -288.95 -15.7 -296.4 8.95 Q-298.45 16.3 -301.45 23.35 L-301.8 23.6 -302.2 23.6 -313.9 18.8 -315.05 18.65 -315.35 18.55 -315.5 18.25 -315.95 16.55 -314.65 13.1 -311.5 4.9 Q-309.65 -0.1 -307.65 -6.2 -307.1 -7.85 -306.6 -10.5 -306.1 -13.25 -304.8 -17.2 M-292.5 -95.5 L-300.2 -95.8 -304.85 -95.3 -295.85 -104.8 -292.5 -95.5" fill="#cc3300" fill-rule="evenodd" stroke="none"/>
    <path d="M-271.7 -86.4 Q-267.15 -79.75 -268.05 -74.5 -268.95 -69.25 -271.6 -66.25 -273.2 -64.5 -274.6 -63.6 -276.7 -62.05 -281.6 -61.4 -286.55 -60.75 -289.8 -62.55 -297.8 -69.25 -295.3 -81.35 -293.55 -84.3 -290.75 -85.95 -288.9 -87.0 -286.95 -87.4 L-286.45 -87.65 -284.35 -89.7 -279.0 -90.3 -277.35 -89.85 Q-275.75 -89.45 -274.2 -88.55 -272.7 -87.8 -271.7 -86.4 M-272.3 -77.9 L-273.2 -81.25 -273.2 -81.35 Q-274.85 -85.2 -278.65 -85.1 -284.25 -85.1 -289.65 -81.5 L-289.9 -81.25 -291.75 -78.6 -291.95 -78.15 -292.2 -75.5 -292.05 -75.1 -291.3 -73.55 Q-291.65 -70.15 -289.3 -67.55 -287.3 -65.25 -284.3 -65.1 -278.2 -64.65 -275.15 -67.85 -272.1 -71.0 -272.3 -77.7 L-272.3 -77.9 M-320.6 -49.3 L-322.95 -50.7 -323.4 -52.2 -287.5 -59.15 -278.65 -61.4 Q-273.8 -62.7 -273.9 -63.3 L-269.9 -64.75 -269.1 -65.1 -264.25 -64.9 -264.25 -64.85 -263.55 -64.35 -263.1 -61.2 -263.15 -61.2 -263.2 -60.65 Q-262.55 -55.4 -264.25 -50.05 L-264.6 -48.9 Q-268.9 -37.4 -280.25 -33.75 -283.4 -32.75 -286.55 -32.35 -293.2 -31.5 -298.9 -32.65 -307.6 -34.45 -314.4 -40.8 L-311.65 -40.8 -311.2 -40.85 -310.85 -41.2 -310.7 -41.7 -310.45 -49.5 -310.55 -49.9 -310.85 -50.15 -311.15 -50.3 -320.6 -49.3 -320.7 -49.9 -320.9 -50.3 -320.6 -49.3 M-268.3 -50.3 L-268.3 -50.4 Q-267.05 -53.6 -267.2 -56.85 L-267.4 -59.1 -267.65 -59.6 -269.6 -53.65 Q-269.8 -52.85 -270.3 -52.35 -271.05 -51.7 -271.85 -51.6 L-273.9 -56.05 Q-288.45 -50.9 -303.45 -48.6 -303.5 -46.2 -305.5 -44.9 L-306.2 -45.65 -306.85 -46.45 -307.35 -41.35 -307.25 -40.85 -306.95 -40.55 Q-301.7 -37.5 -295.95 -36.6 -290.7 -35.8 -285.1 -36.7 -273.1 -38.8 -268.3 -50.3 M-270.05 -56.05 Q-269.55 -57.3 -269.45 -58.45 L-269.1 -60.4 -305.65 -51.2 -307.4 -50.95 -306.1 -48.35 -305.3 -47.1 -304.2 -50.15 Q-288.6 -53.1 -273.15 -57.8 L-271.05 -53.75 -270.05 -56.05 M-303.4 -83.15 L-302.15 -81.75 Q-299.4 -75.2 -301.35 -68.6 L-301.35 -68.55 -302.65 -65.4 Q-303.25 -64.2 -306.85 -61.4 -310.6 -58.7 -319.8 -60.9 -323.45 -62.3 -324.25 -66.05 -325.7 -72.95 -321.15 -78.3 -313.2 -87.75 -303.4 -83.15 M-317.65 -76.9 L-317.65 -76.8 -318.15 -76.35 -318.75 -75.65 -318.85 -75.6 -319.8 -74.35 -320.0 -74.05 -320.0 -73.6 -319.1 -66.7 -318.9 -66.3 Q-315.4 -62.45 -309.1 -65.25 L-308.7 -65.65 Q-305.5 -67.4 -304.9 -70.85 -304.3 -74.1 -306.35 -79.1 L-306.6 -79.55 -307.15 -79.6 -309.7 -79.05 Q-311.7 -79.55 -313.75 -79.05 -315.85 -78.55 -317.65 -76.9 M-299.75 -30.45 L-298.45 -28.55 Q-298.35 -28.3 -298.4 -27.8 -298.65 -27.4 -299.05 -27.35 L-301.7 -26.9 Q-303.35 -28.4 -305.4 -29.3 -305.75 -30.1 -305.7 -30.95 L-305.05 -32.75 Q-304.45 -32.75 -303.95 -32.4 -301.9 -31.35 -299.75 -30.45" fill="#000000" fill-rule="evenodd" stroke="none"/>
    <path d="M-272.3 -77.9 L-272.3 -77.7 Q-272.1 -71.0 -275.15 -67.85 -278.2 -64.65 -284.3 -65.1 -287.3 -65.25 -289.3 -67.55 -291.65 -70.15 -291.3 -73.55 L-292.05 -75.1 -292.2 -75.5 -291.95 -78.15 -291.75 -78.6 -289.9 -81.25 -289.65 -81.5 Q-284.25 -85.1 -278.65 -85.1 -274.85 -85.2 -273.2 -81.35 L-273.2 -81.25 -272.3 -77.9 M-270.05 -56.05 L-271.05 -53.75 -273.15 -57.8 Q-288.6 -53.1 -304.2 -50.15 L-305.3 -47.1 -306.1 -48.35 -307.4 -50.95 -305.65 -51.2 -269.1 -60.4 -269.45 -58.45 Q-269.55 -57.3 -270.05 -56.05 M-317.65 -76.9 Q-315.85 -78.55 -313.75 -79.05 -311.7 -79.55 -309.7 -79.05 L-307.15 -79.6 -306.6 -79.55 -306.35 -79.1 Q-304.3 -74.1 -304.9 -70.85 -305.5 -67.4 -308.7 -65.65 L-309.1 -65.25 Q-315.4 -62.45 -318.9 -66.3 L-319.1 -66.7 -320.0 -73.6 -320.0 -74.05 -319.8 -74.35 -318.85 -75.6 -318.75 -75.65 -318.15 -76.35 -317.65 -76.8 -317.65 -76.9" fill="#ffffff" fill-rule="evenodd" stroke="none"/>
    <path d="M-295.95 -36.6 Q-301.7 -37.5 -306.95 -40.55 L-307.25 -40.85 -307.35 -41.35 -306.85 -46.45 -306.2 -45.65 -305.5 -44.9 Q-303.5 -46.2 -303.45 -48.6 -288.45 -50.9 -273.9 -56.05 L-271.85 -51.6 Q-271.05 -51.7 -270.3 -52.35 -269.8 -52.85 -269.6 -53.65 L-267.65 -59.6 -267.4 -59.1 -267.2 -56.85 Q-267.05 -53.6 -268.3 -50.4 L-268.3 -50.3 -271.3 -50.45 Q-281.4 -50.55 -294.15 -38.4 L-295.95 -36.6" fill="#5e2c58" fill-rule="evenodd" stroke="none"/>
    <path d="M-268.3 -50.3 Q-273.1 -38.8 -285.1 -36.7 -290.7 -35.8 -295.95 -36.6 L-294.15 -38.4 Q-281.4 -50.55 -271.3 -50.45 L-268.3 -50.3" fill="#996666" fill-rule="evenodd" stroke="none"/>
    <path d="M-320.6 -49.3 L-320.9 -50.3 -320.7 -49.9 -320.6 -49.3 M-318.1 -17.75 L-318.05 -17.9 -318.05 -17.75 -318.1 -17.75" fill="#b1e34d" fill-rule="evenodd" stroke="none"/>
    <path d="M-281.65 -80.75 L-279.45 -82.1 -278.1 -82.2 -278.15 -78.8 -278.45 -78.4 -278.15 -78.15 Q-277.0 -78.0 -275.95 -78.8 L-274.55 -77.8 -274.8 -74.75 -275.15 -74.3 -275.2 -73.9 Q-276.2 -72.05 -278.15 -71.5 -280.45 -71.0 -282.15 -72.4 L-282.9 -73.35 Q-283.4 -74.35 -283.45 -75.65 -283.75 -78.75 -281.65 -80.75" fill="#000000" fill-rule="evenodd" stroke="none"/>
    <path d="M-313.8 -76.7 L-311.6 -78.05 -310.25 -78.15 -310.3 -74.75 -310.6 -74.35 -310.3 -74.1 Q-309.15 -73.95 -308.1 -74.75 L-306.7 -73.75 -306.95 -70.7 -307.3 -70.25 -307.35 -69.85 Q-308.35 -68.0 -310.3 -67.45 -312.6 -66.95 -314.3 -68.35 L-315.05 -69.3 Q-315.55 -70.3 -315.6 -71.6 -315.9 -74.7 -313.8 -76.7" fill="#000000" fill-rule="evenodd" stroke="none"/>
  </g>
</svg>
