<?xml version="1.0" encoding="UTF-8" standalone="no"?>
<svg xmlns:ffdec="https://www.free-decompiler.com/flash" xmlns:xlink="http://www.w3.org/1999/xlink" ffdec:objectType="shape" height="101.2px" width="159.0px" xmlns="http://www.w3.org/2000/svg">
  <g transform="matrix(1.0, 0.0, 0.0, 1.0, 374.5, 156.15)">
    <path d="M-217.5 -58.1 L-217.5 -54.95 -230.65 -54.95 -230.65 -58.1 -217.5 -58.1 M-311.15 -155.0 L-310.6 -155.1 -310.35 -155.6 -310.7 -156.15 -308.2 -156.0 -303.5 -143.1 -303.1 -142.5 -303.1 -141.9 -302.7 -141.3 -302.7 -140.7 -302.3 -140.1 -299.5 -129.9 -299.1 -129.3 -299.1 -128.7 -298.7 -128.1 -297.5 -121.5 -302.05 -121.5 -304.1 -127.8 -304.1 -128.4 -304.5 -129.0 -311.15 -155.0 M-242.05 -100.55 L-233.6 -108.7 -230.5 -111.1 -218.8 -122.1 -217.4 -122.0 -215.5 -118.4 -220.0 -113.3 -225.0 -109.1 -225.25 -108.55 -233.75 -101.9 -234.0 -101.3 -239.5 -97.6 -242.05 -100.55 M-374.05 -109.7 L-374.5 -109.9 -372.4 -113.65 -367.85 -109.7 -345.8 -84.8 -346.6 -83.05 -349.5 -82.0 -373.7 -108.1 -374.45 -108.7 -374.0 -109.25 -374.05 -109.7" fill="#ffffff" fill-rule="evenodd" stroke="none"/>
  </g>
</svg>
