<?xml version="1.0" encoding="UTF-8" standalone="no"?>
<svg xmlns:ffdec="https://www.free-decompiler.com/flash" xmlns:xlink="http://www.w3.org/1999/xlink" ffdec:objectType="shape" height="108.3px" width="167.95px" xmlns="http://www.w3.org/2000/svg">
  <g transform="matrix(1.0, 0.0, 0.0, 1.0, 379.05, 159.1)">
    <path d="M-379.05 -108.5 L-375.7 -112.4 -370.3 -116.95 Q-363.1 -103.4 -363.2 -103.2 L-363.8 -101.75 Q-371.5 -103.4 -378.9 -108.0 L-379.05 -108.5 M-216.6 -124.15 L-213.8 -121.2 Q-212.75 -119.9 -211.35 -118.9 L-211.2 -118.15 -211.1 -117.55 Q-223.6 -112.5 -228.6 -112.9 -228.85 -113.95 -219.9 -127.3 L-218.95 -127.0 -218.1 -126.4 -217.45 -125.6 -217.05 -124.95 -216.6 -124.15 M-212.0 -59.05 L-212.0 -50.8 -221.8 -57.05 -212.0 -59.05 M-302.05 -159.1 L-302.05 -152.85 -304.9 -140.5 -319.5 -159.1 -302.05 -159.1" fill="#ffffff" fill-rule="evenodd" stroke="none"/>
  </g>
</svg>
