<?xml version="1.0" encoding="UTF-8" standalone="no"?>
<svg xmlns:ffdec="https://www.free-decompiler.com/flash" xmlns:xlink="http://www.w3.org/1999/xlink" ffdec:objectType="shape" height="114.25px" width="176.4px" xmlns="http://www.w3.org/2000/svg">
  <g transform="matrix(1.0, 0.0, 0.0, 1.0, 383.35, 165.3)">
    <path d="M-213.05 -128.65 L-212.75 -128.1 -212.7 -128.05 -212.25 -127.2 -212.05 -127.0 -209.35 -124.15 -207.05 -121.9 -206.95 -121.8 -207.0 -121.8 Q-217.25 -117.7 -222.1 -117.45 -220.9 -119.9 -214.3 -129.75 L-214.15 -129.7 -214.15 -129.65 Q-213.85 -129.55 -213.6 -129.3 L-213.05 -128.65 M-319.45 -165.3 L-305.05 -165.3 -305.05 -160.15 -307.4 -149.95 -319.45 -165.3 M-208.2 -51.05 L-214.35 -54.95 -208.2 -56.2 -208.2 -51.05 M-380.55 -117.7 L-376.2 -121.4 Q-369.95 -109.65 -369.65 -109.65 L-369.7 -109.65 -370.0 -108.9 Q-376.8 -110.5 -383.35 -114.45 L-380.55 -117.7" fill="#ffffff" fill-rule="evenodd" stroke="none"/>
  </g>
</svg>
