<?xml version="1.0" encoding="UTF-8" standalone="no"?>
<svg xmlns:ffdec="https://www.free-decompiler.com/flash" xmlns:xlink="http://www.w3.org/1999/xlink" ffdec:objectType="shape" height="113.25px" width="175.35px" xmlns="http://www.w3.org/2000/svg">
  <g transform="matrix(1.0, 0.0, 0.0, 1.0, 383.1, 166.6)">
    <path d="M-374.05 -112.6 Q-378.65 -114.0 -383.1 -116.45 L-381.45 -118.25 -378.65 -120.65 -374.05 -112.6 -372.8 -112.25 -373.05 -111.9 -373.25 -111.45 -374.05 -112.6 M-211.05 -127.85 L-208.5 -125.2 -208.55 -125.2 -207.75 -124.35 Q-213.5 -122.15 -217.25 -121.35 L-212.05 -129.4 -212.05 -129.35 -211.5 -128.4 -211.55 -128.45 -211.1 -127.9 -211.05 -127.85 M-307.4 -163.05 L-309.0 -156.1 -317.2 -166.6 -307.4 -166.6 -307.4 -163.05 M-208.1 -53.95 L-208.1 -53.35 -208.8 -53.8 -208.1 -53.95" fill="#ffffff" fill-rule="evenodd" stroke="none"/>
  </g>
</svg>
