<?xml version="1.0" encoding="UTF-8" standalone="no"?>
<svg xmlns:ffdec="https://www.free-decompiler.com/flash" xmlns:xlink="http://www.w3.org/1999/xlink" ffdec:objectType="shape" height="7.0px" width="5.45px" xmlns="http://www.w3.org/2000/svg">
  <g transform="matrix(1.0, 0.0, 0.0, 1.0, 2.4, 13.75)">
    <path d="M1.95 -13.75 L3.05 -13.75 2.85 -11.35 2.85 -10.7 3.0 -10.35 3.05 -6.75 2.25 -6.75 2.2 -7.4 2.15 -7.8 2.0 -7.9 1.95 -8.25 2.0 -10.2 1.95 -12.35 1.95 -13.75 M-1.05 -6.75 L-2.25 -6.75 -2.2 -7.4 -2.2 -8.45 -2.25 -8.65 -2.4 -9.2 -2.2 -12.05 -2.2 -13.75 -1.2 -13.75 -1.25 -13.15 -1.05 -11.65 -1.0 -9.25 -1.05 -6.75" fill="#cecece" fill-rule="evenodd" stroke="none"/>
    <path d="M1.95 -13.75 L1.95 -12.35 2.0 -10.2 1.95 -8.25 2.0 -7.9 2.15 -7.8 2.2 -7.4 2.25 -6.75 1.4 -6.75 1.5 -12.5 1.55 -13.75 1.95 -13.75 M-0.6 -6.75 L-1.05 -6.75 -1.0 -9.25 -1.05 -11.65 -1.25 -13.15 -1.2 -13.75 -0.25 -13.75 -0.25 -13.7 -0.45 -8.95 -0.6 -6.75" fill="#dbdbdb" fill-rule="evenodd" stroke="none"/>
    <path d="M1.4 -6.75 L-0.6 -6.75 -0.45 -8.95 -0.25 -13.7 -0.25 -13.75 1.55 -13.75 1.5 -12.5 1.4 -6.75" fill="#ffffff" fill-rule="evenodd" stroke="none"/>
  </g>
</svg>
