<?xml version="1.0" encoding="UTF-8" standalone="no"?>
<svg xmlns:ffdec="https://www.free-decompiler.com/flash" xmlns:xlink="http://www.w3.org/1999/xlink" ffdec:objectType="shape" height="7.7px" width="38.15px" xmlns="http://www.w3.org/2000/svg">
  <g transform="matrix(1.0, 0.0, 0.0, 1.0, 16.9, 6.4)">
    <path d="M9.25 0.1 L9.05 -0.05 8.6 -0.45 8.5 -0.7 7.65 -1.1 7.55 -1.1 7.1 -1.25 Q5.7 -1.5 4.15 -0.8 L3.6 -0.9 3.3 -1.25 2.95 -1.75 2.8 -1.9 2.75 -2.15 2.75 -2.45 2.75 -2.75 2.85 -2.9 2.95 -3.15 3.25 -3.5 3.3 -3.55 3.45 -3.6 3.9 -3.75 3.9 -3.8 6.95 -3.55 7.05 -3.7 7.3 -3.9 7.45 -4.0 8.8 -4.55 10.4 -5.05 14.7 -4.7 15.55 -4.5 15.45 -4.5 14.95 -4.15 13.25 -4.25 13.0 -4.0 12.75 -3.85 12.5 -3.8 12.25 -3.95 12.05 -4.25 11.55 -4.45 11.3 -4.45 11.3 -4.35 10.9 -4.3 10.7 -4.25 10.3 -3.85 10.1 -3.5 10.05 -3.45 9.15 -1.85 9.05 -1.55 Q8.8 -0.65 9.25 0.1 M13.6 0.0 L13.1 -0.1 13.55 -0.45 13.55 -0.2 13.6 0.0 M-13.65 -4.05 L-13.5 -4.2 -13.35 -4.3 -12.95 -4.35 -12.95 -4.4 -6.4 -4.35 -5.9 -4.2 -5.65 -3.95 -5.5 -3.7 -5.3 -3.3 -3.0 -3.45 -3.0 -3.5 -3.0 -3.7 -2.85 -4.0 -2.3 -4.95 -1.85 -6.0 Q-1.65 -6.1 -1.55 -6.15 L-1.0 -6.35 -1.0 -6.4 0.15 -6.35 0.7 -6.15 0.9 -5.95 1.45 -5.0 1.8 -4.0 2.05 -3.7 2.25 -3.5 2.35 -3.2 2.4 -3.0 2.45 -2.7 2.4 -2.5 2.3 -2.3 2.05 -1.7 1.85 -1.6 Q1.45 -1.35 1.05 -1.4 L0.45 -1.55 0.15 -1.9 -0.2 -2.35 -0.45 -3.05 -0.65 -2.9 -0.85 -2.65 -1.3 -2.2 -1.45 -2.2 -1.55 -2.15 -1.55 -2.1 -1.6 -1.85 -1.65 -1.55 -1.75 -1.4 Q-4.05 -0.4 -6.55 0.2 L-6.45 -0.05 -6.4 -0.35 -6.05 -1.25 -5.85 -2.0 -5.85 -2.25 -5.95 -2.5 -6.2 -2.95 -6.45 -3.25 -6.6 -3.3 -7.0 -3.5 -8.95 -3.55 -9.0 -3.5 -9.1 -3.4 -9.25 -3.3 -9.4 -3.15 -9.55 -3.05 -10.75 -2.95 -11.15 -2.85 -12.1 -3.1 -12.35 -3.1 -12.9 -2.9 -12.95 -2.9 -13.25 -2.85 -13.25 -3.05 -13.25 -3.25 -13.3 -3.5 -13.45 -3.8 -13.6 -3.95 -13.65 -4.05" fill="#ffcc00" fill-rule="evenodd" stroke="none"/>
    <path d="M15.55 -4.5 L15.7 -4.65 16.1 -4.65 16.1 -4.8 17.55 -4.65 Q18.15 -4.6 18.6 -4.1 L18.75 -3.85 18.85 -3.55 18.85 -3.5 18.9 -3.4 18.95 -3.1 18.95 -3.05 19.85 -3.05 20.3 -2.9 20.55 -2.6 20.7 -2.45 20.85 -2.15 20.95 -1.9 21.0 -1.75 21.2 -1.2 21.25 -0.9 21.2 -0.45 21.0 0.25 20.8 0.55 20.65 0.65 20.5 0.7 20.1 0.9 19.5 0.7 19.25 0.5 18.95 0.2 17.9 1.0 17.4 1.3 16.4 1.3 16.1 1.15 14.15 0.95 13.85 0.8 13.7 0.55 13.65 0.25 13.6 0.0 13.55 -0.2 13.55 -0.45 13.1 -0.1 12.6 0.5 Q12.15 1.15 11.55 1.2 L11.3 1.2 10.7 1.05 10.4 0.8 10.2 0.55 10.15 0.55 9.6 0.3 9.25 0.15 9.25 0.1 Q8.8 -0.65 9.05 -1.55 L9.15 -1.85 10.05 -3.45 10.1 -3.5 10.3 -3.85 10.7 -4.25 10.9 -4.3 11.3 -4.35 11.3 -4.45 11.55 -4.45 12.05 -4.25 12.25 -3.95 12.5 -3.8 12.75 -3.85 13.0 -4.0 13.25 -4.25 14.95 -4.15 15.45 -4.5 15.55 -4.5 M-6.55 0.2 L-6.6 0.2 -6.9 0.65 -7.2 0.95 -7.8 1.15 -8.7 1.15 -8.9 1.3 -15.6 1.3 -16.1 1.15 -16.2 0.9 -16.35 0.3 -16.35 0.15 -16.55 -0.1 -16.7 -0.4 -16.85 -0.55 -16.9 -1.1 -16.85 -1.85 -16.75 -2.1 -15.8 -3.5 -15.55 -3.8 -14.75 -4.35 -14.4 -4.35 -14.4 -4.45 -13.85 -4.25 -13.65 -4.05 -13.6 -3.95 -13.45 -3.8 -13.3 -3.5 -13.25 -3.25 -13.25 -3.05 -13.25 -2.85 -12.95 -2.9 -12.9 -2.9 -12.35 -3.1 -12.1 -3.1 -11.15 -2.85 -10.75 -2.95 -9.55 -3.05 -9.4 -3.15 -9.25 -3.3 -9.1 -3.4 -9.0 -3.5 -8.95 -3.55 -7.0 -3.5 -6.6 -3.3 -6.45 -3.25 -6.2 -2.95 -5.95 -2.5 -5.85 -2.25 -5.85 -2.0 -6.05 -1.25 -6.4 -0.35 -6.45 -0.05 -6.55 0.2" fill="#b99400" fill-rule="evenodd" stroke="none"/>
  </g>
</svg>
