<?xml version="1.0" encoding="UTF-8" standalone="no"?>
<svg xmlns:ffdec="https://www.free-decompiler.com/flash" xmlns:xlink="http://www.w3.org/1999/xlink" ffdec:objectType="shape" height="252.25px" width="205.85px" xmlns="http://www.w3.org/2000/svg">
  <g transform="matrix(1.0, 0.0, 0.0, 1.0, 96.85, 141.5)">
    <path d="M17.5 -125.75 L16.25 -126.9 Q11.05 -131.3 4.55 -132.85 -3.55 -138.95 -12.65 -134.95 -14.25 -134.25 -16.1 -134.1 L-18.95 -133.6 Q-28.35 -131.9 -35.8 -126.15 L-37.35 -124.7 Q-48.35 -113.3 -51.0 -97.45 L-52.8 -91.45 Q-51.45 -90.85 -47.6 -91.5 -39.55 -93.15 -32.2 -90.4 -34.3 -98.65 -35.75 -107.4 -36.15 -109.85 -35.05 -112.05 L-33.1 -111.7 Q-32.3 -111.4 -32.3 -110.95 L-32.3 -110.9 Q-32.95 -105.8 -30.3 -101.45 L-26.65 -94.9 Q-25.95 -93.45 -25.4 -91.85 L-22.8 -84.4 Q-22.45 -83.25 -21.15 -82.75 L-20.05 -78.25 -16.05 -84.0 -14.15 -79.2 -12.35 -79.7 -14.95 -85.0 Q-12.9 -88.45 -14.85 -92.15 L-15.0 -92.6 -13.75 -103.4 -13.0 -106.0 Q-11.25 -112.4 -6.1 -115.7 -5.25 -115.7 -4.65 -115.0 -4.05 -114.35 -4.05 -113.4 -5.55 -106.65 -9.3 -100.95 -11.6 -97.35 -10.35 -93.4 -10.1 -92.6 -9.4 -92.05 -5.35 -89.1 -2.45 -93.15 0.6 -92.65 5.05 -93.25 L11.1 -93.9 21.1 -94.85 Q27.0 -94.85 27.75 -100.0 30.95 -104.55 27.9 -110.05 25.55 -114.25 23.85 -118.8 L22.4 -121.0 18.45 -124.7 17.9 -125.3 17.5 -125.75 M33.5 -110.8 L34.0 -103.45 Q30.35 -99.3 34.95 -95.6 L35.85 -94.9 54.65 -91.65 Q58.15 -86.25 64.55 -83.8 66.25 -83.15 67.6 -82.05 71.45 -78.85 74.95 -75.2 81.55 -68.35 86.15 -60.2 L86.85 -59.1 96.65 -45.6 Q105.8 -33.05 106.8 -17.6 L109.0 -9.65 Q101.15 -18.25 88.95 -20.6 L87.95 -20.8 Q69.7 -27.65 50.7 -25.45 L48.35 -22.7 Q41.2 -21.0 32.8 -22.85 17.15 -26.25 3.55 -34.65 -0.4 -37.15 -3.4 -40.7 -14.05 -53.4 -15.85 -70.1 -30.7 -44.2 -60.5 -37.4 -76.95 -33.45 -92.45 -39.0 -95.35 -40.0 -96.5 -42.9 -97.35 -45.0 -96.0 -46.75 -96.9 -66.2 -81.4 -78.15 -69.75 -87.1 -55.65 -90.4 L-57.65 -93.5 Q-54.5 -97.0 -55.1 -102.1 L-55.1 -103.5 Q-54.1 -110.05 -52.45 -116.6 -52.0 -118.4 -50.6 -120.1 -44.85 -126.75 -38.8 -133.0 L-36.7 -134.6 Q-30.35 -137.95 -23.7 -139.5 -15.2 -141.5 -6.25 -141.5 L-0.75 -140.8 Q2.3 -139.8 5.6 -140.0 17.3 -133.8 25.7 -123.35 L33.3 -112.1 33.5 -110.8 M45.7 -87.7 Q37.0 -91.0 27.75 -90.8 14.65 -90.55 1.9 -87.65 -4.85 -85.95 -9.65 -80.9 L-10.0 -79.0 -10.55 -78.9 -10.9 -78.3 -11.85 -75.3 -10.85 -72.8 Q-11.25 -68.45 -9.7 -64.35 L-7.2 -58.15 Q-4.7 -52.15 0.5 -48.1 L4.45 -44.9 Q7.15 -42.5 10.0 -40.5 L14.95 -36.8 Q18.6 -33.9 22.95 -32.8 24.35 -30.85 26.65 -30.75 L46.3 -30.15 Q49.45 -30.15 52.2 -31.6 53.4 -32.25 54.65 -32.5 65.45 -34.05 76.25 -32.15 87.85 -30.35 98.4 -25.45 88.55 -49.1 72.15 -68.95 61.4 -81.95 45.7 -87.7 M36.5 -2.25 L36.25 -3.25 Q36.0 -4.15 36.0 -5.6 36.0 -9.85 41.0 -10.6 43.05 -10.9 44.45 -10.05 46.0 -9.1 46.0 -7.1 46.0 -6.1 44.25 -3.75 42.15 -1.0 40.0 -1.0 L37.9 -1.35 36.5 -2.25 M-88.85 -57.8 Q-93.9 -51.1 -89.3 -44.25 -88.55 -43.2 -87.0 -42.85 L-85.3 -43.0 -69.5 -43.2 Q-61.3 -38.55 -53.1 -43.4 L-49.65 -45.35 Q-40.55 -49.85 -33.9 -57.45 L-28.85 -62.2 Q-26.75 -63.8 -25.0 -65.75 -22.9 -68.1 -23.2 -71.05 L-20.95 -73.2 -21.0 -74.25 -22.35 -73.45 Q-23.4 -80.4 -30.0 -84.65 -33.3 -86.8 -37.05 -88.0 -44.9 -90.25 -53.0 -88.15 -61.2 -85.9 -68.6 -81.5 L-75.75 -77.4 Q-80.95 -74.45 -84.0 -69.4 L-88.85 -57.8 M-34.1 -5.35 Q-34.5 -5.55 -35.5 -6.25 L-35.75 -7.25 -36.0 -9.6 Q-36.0 -13.85 -31.5 -14.6 -27.0 -15.4 -27.0 -10.75 -27.0 -9.3 -27.75 -7.7 -29.05 -5.0 -32.0 -5.0 L-34.1 -5.35" fill="#000000" fill-rule="evenodd" stroke="none"/>
    <path d="M17.5 -125.75 Q14.95 -127.8 12.2 -129.35 L11.1 -130.1 10.55 -130.2 Q8.2 -131.4 5.7 -132.25 L4.55 -132.85 Q11.05 -131.3 16.25 -126.9 L17.5 -125.75 M-16.1 -134.1 Q-28.1 -130.65 -35.8 -126.15 -28.35 -131.9 -18.95 -133.6 L-16.1 -134.1 M-51.0 -97.45 Q-51.55 -93.65 -52.25 -91.75 L-52.8 -91.45 -51.0 -97.45 M-35.05 -112.05 L-34.7 -113.35 Q-34.1 -114.0 -31.5 -114.0 L-30.55 -113.85 -31.05 -113.4 -31.7 -112.7 -32.2 -112.05 -32.3 -111.35 -32.3 -110.95 Q-32.3 -111.4 -33.1 -111.7 L-35.05 -112.05 M-16.05 -84.0 L-15.5 -84.5 -14.95 -85.0 -12.35 -79.7 -14.15 -79.2 -16.05 -84.0 M-15.0 -92.6 L-15.05 -92.8 -15.35 -93.5 -15.75 -94.2 -15.8 -94.9 -16.0 -95.6 -16.0 -95.65 -13.75 -103.4 -15.0 -92.6 M-6.1 -115.7 Q-4.7 -116.5 -3.25 -116.5 L-3.1 -116.2 -3.0 -114.6 -3.0 -114.5 -3.45 -114.1 -4.05 -113.4 Q-4.05 -114.35 -4.65 -115.0 -5.25 -115.7 -6.1 -115.7 M18.45 -124.7 L18.1 -125.0 18.05 -125.05 17.9 -125.3 18.45 -124.7 M33.5 -110.8 Q34.7 -107.45 34.95 -104.1 L34.5 -103.95 34.0 -103.45 33.5 -110.8" fill="#00b5ff" fill-rule="evenodd" stroke="none"/>
    <path d="M-88.65 109.95 L-91.0 110.55 -91.95 110.75 -91.55 110.35 Q-90.4 109.3 -89.7 108.0 L-89.55 108.3 -89.15 109.05 -88.45 109.75 -88.65 109.95 M-74.2 97.0 L-68.75 94.1 Q-63.3 91.4 -57.65 89.1 -48.9 85.75 -43.3 78.25 L-64.85 60.45 -74.2 97.0 M83.35 -21.85 L86.2 -21.5 Q90.6 -19.85 90.7 -15.05 90.95 -4.35 90.15 6.3 87.9 35.1 69.25 56.75 49.45 79.75 20.3 88.1 -7.95 96.2 -34.45 83.75 L-35.2 84.25 Q-38.35 81.2 -41.9 83.55 -43.05 84.25 -43.85 85.25 -46.3 88.1 -49.55 89.7 -54.5 91.9 -59.0 94.45 -69.45 100.45 -80.1 104.85 L-82.65 98.4 -81.35 94.05 -79.05 87.4 Q-77.65 83.25 -76.85 78.95 -76.15 75.4 -74.85 72.05 -70.5 60.8 -72.85 49.9 L-72.85 52.4 -73.4 51.75 Q-80.3 44.2 -83.7 34.55 -88.85 19.9 -89.55 4.65 -89.7 0.9 -90.2 -2.75 -91.95 -15.05 -87.05 -26.35 L-84.95 -31.3 Q-82.05 -38.45 -75.45 -40.25 L-74.25 -37.75 Q-78.4 -34.7 -80.4 -29.55 -87.65 -10.75 -85.8 9.55 -85.1 17.45 -82.0 23.95 -78.95 30.4 -70.05 45.9 -61.2 61.4 -43.05 73.0 -24.95 84.55 -12.3 84.75 L3.2 86.05 10.2 85.65 18.25 83.3 Q27.5 80.1 36.2 75.9 46.15 71.05 54.95 64.8 L51.2 67.35 Q79.75 41.6 83.4 17.55 87.0 -6.55 83.35 -21.85" fill="#000000" fill-rule="evenodd" stroke="none"/>
  </g>
</svg>
