<?xml version="1.0" encoding="UTF-8" standalone="no"?>
<svg xmlns:ffdec="https://www.free-decompiler.com/flash" xmlns:xlink="http://www.w3.org/1999/xlink" ffdec:objectType="shape" height="109.0px" width="187.0px" xmlns="http://www.w3.org/2000/svg">
  <g transform="matrix(1.0, 0.0, 0.0, 1.0, 88.0, 132.0)">
    <path d="M7.5 -109.0 Q-4.15 -109.0 -10.6 -112.1 -17.05 -115.25 -26.5 -115.25 -27.75 -115.25 -31.5 -114.1 -35.25 -113.0 -36.5 -113.0 -41.6 -113.0 -43.3 -116.4 -44.15 -118.15 -44.0 -120.1 -44.0 -132.0 -22.5 -132.0 -10.85 -130.4 0.75 -128.0 24.0 -123.2 24.0 -119.25 24.0 -113.75 17.5 -110.95 12.85 -109.0 7.5 -109.0 M61.35 -83.6 Q63.2 -82.75 64.8 -81.45 L66.4 -80.1 67.9 -79.7 68.0 -77.75 Q68.0 -74.75 51.55 -54.5 34.85 -34.0 31.5 -34.0 23.8 -34.0 19.5 -37.5 16.0 -40.3 16.0 -43.85 16.0 -45.75 18.55 -47.25 L24.75 -50.65 Q34.65 -56.9 39.0 -71.75 40.05 -75.35 44.7 -79.55 49.3 -83.75 54.55 -85.85 L54.85 -85.95 55.75 -85.4 Q58.05 -84.2 60.65 -84.0 L61.35 -83.6 M78.75 -40.65 Q82.25 -42.7 87.0 -42.55 92.0 -42.35 95.25 -39.75 99.0 -36.75 99.0 -31.5 99.0 -28.5 97.75 -26.25 95.95 -23.0 92.0 -23.0 84.85 -23.0 79.3 -28.5 75.0 -32.75 75.0 -34.85 75.0 -38.45 78.75 -40.65 M5.0 -96.25 Q5.0 -89.0 -4.0 -89.0 -10.25 -89.0 -12.25 -92.4 -13.25 -94.15 -13.0 -96.1 -13.0 -99.6 -10.2 -101.55 -7.7 -103.25 -4.0 -103.15 -0.4 -103.05 2.2 -101.25 5.0 -99.3 5.0 -96.25 M-88.0 -60.5 Q-88.0 -67.7 -83.8 -68.25 -80.25 -68.75 -74.5 -64.65 -69.45 -61.1 -65.2 -55.95 -61.0 -50.9 -61.0 -48.5 -61.0 -46.1 -62.25 -44.05 -64.1 -41.0 -68.0 -41.0 -78.35 -41.0 -84.2 -50.8 -87.15 -55.65 -88.0 -60.5 M-28.0 -90.75 Q-28.0 -88.95 -29.25 -87.0 -31.15 -84.0 -35.0 -84.0 -55.0 -84.0 -55.0 -93.1 -55.0 -96.9 -50.8 -98.8 -46.95 -100.6 -41.5 -100.15 -36.0 -99.75 -32.2 -97.4 -28.0 -94.75 -28.0 -90.75 M-31.0 -82.65 Q-26.6 -80.9 -23.45 -77.4 -20.0 -73.6 -20.0 -69.75 -20.0 -67.95 -21.25 -66.0 -23.15 -63.0 -27.0 -63.0 -31.2 -63.0 -36.95 -69.75 -42.0 -75.6 -42.0 -76.85 -42.0 -81.85 -38.55 -83.25 -35.55 -84.5 -31.0 -82.65" fill="#8adcff" fill-rule="evenodd" stroke="none"/>
  </g>
</svg>
