<?xml version="1.0" encoding="UTF-8" standalone="no"?>
<svg xmlns:ffdec="https://www.free-decompiler.com/flash" xmlns:xlink="http://www.w3.org/1999/xlink" ffdec:objectType="shape" height="106.0px" width="163.0px" xmlns="http://www.w3.org/2000/svg">
  <g transform="matrix(1.0, 0.0, 0.0, 1.0, 90.0, 139.0)">
    <path d="M18.95 -125.35 Q23.0 -122.7 23.0 -119.25 23.0 -112.0 14.5 -112.0 8.55 -112.0 2.2 -114.85 -4.1 -117.75 -9.5 -117.75 -19.05 -117.75 -25.9 -115.35 -32.75 -113.0 -35.5 -113.0 -41.4 -113.0 -43.3 -116.8 -44.25 -118.65 -44.0 -120.1 -44.0 -124.9 -36.55 -127.9 -34.3 -129.65 -29.95 -131.75 -20.65 -136.2 -10.0 -138.05 2.4 -140.25 9.95 -137.35 18.2 -134.2 18.95 -125.35 M70.05 -74.35 Q73.0 -69.25 73.0 -64.1 73.0 -62.0 70.35 -56.9 67.65 -51.7 63.75 -46.5 53.65 -33.0 46.5 -33.0 37.1 -33.0 32.0 -36.75 28.0 -39.7 28.0 -43.5 28.0 -47.15 30.05 -49.0 33.2 -51.8 40.75 -50.0 45.3 -58.1 51.9 -65.9 53.3 -67.55 53.65 -69.3 54.0 -71.15 54.0 -76.6 54.0 -82.1 56.95 -83.2 59.65 -84.25 63.5 -81.6 67.35 -78.95 70.05 -74.35 M11.45 -91.7 Q16.0 -90.35 16.0 -84.1 16.0 -84.45 6.15 -73.3 L-4.0 -62.0 Q-8.25 -62.0 -11.05 -69.55 -12.45 -73.35 -13.0 -77.35 -13.0 -80.2 -8.45 -84.2 -4.05 -88.1 1.5 -90.35 7.6 -92.85 11.45 -91.7 M-87.35 -57.95 Q-84.9 -60.35 -81.5 -60.1 -78.0 -59.8 -75.65 -56.75 -73.0 -53.2 -73.0 -47.25 -73.0 -44.05 -74.25 -42.0 -76.1 -39.0 -80.5 -39.0 -86.35 -39.0 -88.75 -45.0 -89.95 -48.0 -90.0 -51.0 -90.0 -55.4 -87.35 -57.95 M-10.3 -94.15 Q-7.0 -91.4 -7.0 -89.25 -7.0 -85.65 -9.0 -83.95 -11.35 -82.0 -17.0 -82.0 -24.85 -82.0 -27.2 -86.5 -28.4 -88.75 -28.0 -91.0 -28.0 -96.4 -24.7 -98.1 -21.95 -99.55 -17.5 -98.15 -13.5 -96.85 -10.3 -94.15 M-38.0 -58.0 Q-43.5 -58.0 -50.8 -67.75 -53.15 -70.9 -55.25 -74.55 L-57.0 -77.85 Q-57.0 -81.1 -55.3 -82.75 -52.9 -85.0 -47.0 -85.0 -40.6 -85.0 -35.25 -76.0 -31.0 -68.85 -31.0 -65.5 -31.0 -63.05 -32.25 -61.0 -34.1 -58.0 -38.0 -58.0" fill="#8adcff" fill-rule="evenodd" stroke="none"/>
  </g>
</svg>
