<?xml version="1.0" encoding="UTF-8" standalone="no"?>
<svg xmlns:ffdec="https://www.free-decompiler.com/flash" xmlns:xlink="http://www.w3.org/1999/xlink" ffdec:objectType="shape" height="26.55px" width="25.4px" xmlns="http://www.w3.org/2000/svg">
  <g transform="matrix(1.0, 0.0, 0.0, 1.0, 12.75, 30.9)">
    <path d="M11.35 -19.55 L11.2 -19.6 10.8 -19.65 Q11.3 -17.6 10.8 -14.35 L10.25 -12.45 -11.0 -12.45 10.25 -12.45 Q9.2 -10.1 6.45 -7.6 5.5 -6.95 4.45 -6.45 L2.0 -5.45 0.95 -5.15 0.0 -5.1 -2.1 -5.25 Q-3.8 -5.3 -6.25 -6.85 -8.7 -8.4 -9.9 -10.5 L-11.0 -12.45 -11.5 -13.45 Q-11.95 -14.35 -12.05 -15.4 -12.3 -18.15 -11.3 -20.7 -11.05 -21.4 -10.45 -21.8 L-10.65 -22.15 Q-11.2 -22.0 -11.55 -21.55 -10.7 -23.55 -9.0 -25.25 -6.25 -28.0 -2.6 -28.6 L-2.55 -28.6 -2.45 -28.6 -2.35 -28.6 -2.25 -28.65 -2.2 -28.65 -0.45 -28.8 Q4.55 -28.8 8.1 -25.25 10.6 -22.75 11.35 -19.55 M-8.45 -7.7 Q-7.55 -6.8 -6.35 -6.2 L-6.5 -6.2 -8.45 -7.6 -8.45 -7.7 M4.05 -5.4 Q6.85 -6.65 8.9 -9.05 L8.1 -8.15 Q6.25 -6.3 4.05 -5.4 M-3.65 -24.05 L-3.75 -24.05 -3.85 -24.0 -3.95 -24.0 -4.05 -23.95 -4.1 -23.9 -4.1 -23.85 -4.15 -23.8 -4.2 -23.75 -4.2 -23.35 -4.15 -23.3 -4.1 -23.3 -4.1 -23.25 -4.05 -23.2 -3.95 -23.15 -3.85 -23.1 -3.75 -23.1 -3.7 -23.1 -3.6 -23.1 -3.5 -23.15 -3.45 -23.2 -3.4 -23.25 -3.35 -23.3 -3.3 -23.3 -3.25 -23.35 -3.25 -23.4 -3.2 -23.45 -3.2 -23.75 -3.25 -23.8 -3.25 -23.85 -3.45 -24.05 -3.55 -24.05 -3.65 -24.05" fill="#00b3ff" fill-rule="evenodd" stroke="none"/>
    <path d="M10.25 -12.45 L10.8 -14.35 Q11.3 -17.6 10.8 -19.65 L11.2 -19.6 11.35 -19.55 11.8 -18.75 11.7 -15.85 Q11.6 -14.25 11.05 -12.8 L10.9 -12.45 10.25 -12.45 10.9 -12.45 9.7 -10.05 9.0 -9.15 8.9 -9.05 Q6.85 -6.65 4.05 -5.4 L2.3 -4.8 Q-1.5 -3.7 -5.1 -5.4 L-5.2 -5.35 -5.7 -5.55 -5.7 -5.6 -5.75 -5.65 -5.75 -5.85 -5.8 -5.9 -5.8 -5.95 -6.0 -6.15 -6.1 -6.15 -6.35 -6.2 Q-7.55 -6.8 -8.45 -7.7 L-8.5 -7.75 -8.5 -7.8 -8.6 -7.9 -8.65 -8.0 -8.7 -8.05 -8.8 -8.1 -9.0 -8.35 -9.3 -8.8 -9.5 -9.0 -9.6 -9.05 -9.65 -9.15 -9.75 -9.25 -9.8 -9.3 -9.85 -9.35 -9.9 -9.4 -9.95 -9.45 -9.95 -9.5 -10.0 -9.55 -10.0 -9.6 -10.05 -9.65 -10.1 -9.75 -10.1 -9.85 -10.15 -9.9 -10.15 -9.95 -10.2 -10.0 -10.2 -10.1 -10.45 -10.35 -10.6 -10.6 -10.75 -10.75 -10.85 -10.8 -10.85 -10.85 -10.9 -10.9 -10.9 -10.95 -10.95 -11.0 -10.95 -11.05 -11.0 -11.1 -11.05 -11.15 -11.1 -11.25 -11.1 -11.3 -11.15 -11.35 -11.15 -11.4 -11.2 -11.45 -11.25 -11.5 -11.25 -11.55 -11.3 -11.6 -11.3 -11.8 -11.35 -11.85 -11.35 -11.95 -11.4 -12.0 -11.5 -12.1 -11.5 -12.15 -11.55 -12.2 -11.55 -12.25 -11.6 -12.45 -11.75 -12.6 -12.0 -12.9 -12.05 -13.0 -12.55 -16.05 -12.65 -17.05 Q-12.85 -18.75 -12.2 -20.25 L-11.9 -20.95 -11.55 -21.55 Q-11.2 -22.0 -10.65 -22.15 L-10.45 -21.8 Q-11.05 -21.4 -11.3 -20.7 -12.3 -18.15 -12.05 -15.4 -11.95 -14.35 -11.5 -13.45 L-11.0 -12.45 -9.9 -10.5 Q-8.7 -8.4 -6.25 -6.85 -3.8 -5.3 -2.1 -5.25 L0.0 -5.1 0.95 -5.15 2.0 -5.45 4.45 -6.45 Q5.5 -6.95 6.45 -7.6 9.2 -10.1 10.25 -12.45 M-11.6 -12.45 L-11.0 -12.45 -11.6 -12.45" fill="#000000" fill-rule="evenodd" stroke="none"/>
    <path d="M-2.45 -24.9 L-2.4 -24.9 -2.3 -24.8 -2.15 -24.7 -1.85 -24.65 -1.6 -24.65 -1.45 -24.65 -1.35 -24.55 -1.15 -24.5 -1.0 -24.4 -0.9 -24.3 -0.6 -24.25 -0.4 -24.25 -0.3 -24.35 -0.15 -24.4 -0.1 -24.5 -0.05 -24.6 0.0 -24.7 0.0 -24.8 0.0 -24.9 0.0 -25.0 -0.05 -25.05 -0.05 -25.15 -0.15 -25.25 -0.25 -25.35 -0.3 -25.45 -0.5 -25.65 -0.6 -25.75 -0.7 -25.8 -0.85 -25.9 -1.1 -26.0 -1.45 -26.15 -1.6 -26.2 -1.75 -26.3 -1.85 -26.35 -1.85 -26.4 -1.8 -26.5 -1.75 -26.6 -1.75 -26.7 -1.75 -26.9 -1.75 -27.05 -1.75 -27.15 -1.75 -27.25 -1.7 -27.35 -1.65 -27.45 -1.65 -27.55 -1.65 -27.65 -1.65 -27.75 -1.65 -27.8 -1.65 -27.9 -1.6 -28.0 -1.55 -28.1 -1.5 -28.2 -1.45 -28.3 -1.35 -28.4 -1.25 -28.55 -1.05 -28.85 -0.95 -29.05 -0.85 -29.15 -0.8 -29.2 -0.75 -29.3 -0.75 -29.4 -0.75 -29.5 -0.75 -29.6 -0.75 -29.7 -0.8 -29.8 -0.85 -29.9 -0.95 -30.0 -1.1 -30.05 -1.25 -30.1 -0.65 -30.6 Q-0.35 -30.6 -0.2 -30.2 L-0.05 -29.7 Q4.25 -32.3 7.85 -29.2 9.2 -28.0 10.05 -26.3 10.85 -24.85 10.85 -23.8 L10.75 -23.35 10.45 -23.0 Q10.95 -21.9 11.85 -18.25 L12.65 -14.5 12.5 -13.9 12.0 -13.6 10.2 -14.35 7.5 -15.55 5.4 -15.9 Q4.55 -15.85 3.75 -16.35 L2.7 -16.95 1.85 -17.4 1.6 -17.1 Q1.4 -16.85 1.2 -16.85 0.65 -16.85 -1.0 -20.4 L-2.55 -24.0 -2.45 -24.9 M-4.45 -29.0 L-4.5 -28.95 -4.5 -28.85 -4.45 -28.75 -4.45 -28.65 -4.4 -28.55 -4.35 -28.5 -4.25 -28.4 -4.15 -28.3 -3.85 -28.25 -3.6 -28.3 -3.45 -28.4 -3.3 -28.5 -3.15 -28.55 -3.1 -28.65 -2.65 -28.75 -2.75 -28.55 -2.8 -28.45 -2.85 -28.35 -2.9 -28.25 -2.9 -28.15 -2.9 -28.05 -2.9 -28.0 -2.9 -27.9 -2.9 -27.8 -2.95 -27.7 -3.0 -27.6 -3.0 -27.5 -3.0 -27.4 -3.0 -27.3 -3.0 -27.25 -3.0 -27.15 -3.05 -27.05 -3.1 -26.95 -3.1 -26.75 -3.15 -26.3 -3.1 -25.8 -3.1 -25.7 -3.4 -25.3 -3.75 -25.0 -4.3 -23.75 -5.7 -21.35 Q-8.0 -18.2 -9.85 -18.2 L-10.15 -18.2 -10.95 -18.05 Q-11.95 -18.05 -12.25 -19.15 L-12.35 -19.95 -12.7 -20.4 -12.75 -20.85 -12.3 -22.45 -12.15 -22.85 -11.5 -25.4 Q-10.75 -27.1 -9.6 -28.0 -8.45 -29.55 -7.45 -29.55 -7.1 -29.55 -6.25 -29.05 L-5.4 -28.5 -5.15 -28.8 -4.75 -29.1 -4.45 -29.0 M9.55 -20.35 L9.55 -20.25 9.6 -20.1 9.55 -20.35" fill="#00b3ff" fill-rule="evenodd" stroke="none"/>
    <path d="M-1.25 -30.1 L-1.1 -30.05 -0.95 -30.0 -0.85 -29.9 -0.8 -29.8 -0.75 -29.7 -0.75 -29.6 -0.75 -29.5 -0.75 -29.4 -0.75 -29.3 -0.8 -29.2 -0.85 -29.15 -0.95 -29.05 -1.05 -28.85 -1.25 -28.55 -1.35 -28.4 -1.45 -28.3 -1.5 -28.2 -1.55 -28.1 -1.6 -28.0 -1.65 -27.9 -1.65 -27.8 -1.65 -27.75 -1.65 -27.65 -1.65 -27.55 -1.65 -27.45 -1.7 -27.35 -1.75 -27.25 -1.75 -27.15 -1.75 -27.05 -1.75 -26.9 -1.75 -26.7 -1.75 -26.6 -1.8 -26.5 -1.85 -26.4 -1.85 -26.35 -1.75 -26.3 -1.6 -26.2 -1.45 -26.15 -1.1 -26.0 -0.85 -25.9 -0.7 -25.8 -0.6 -25.75 -0.5 -25.65 -0.3 -25.45 -0.25 -25.35 -0.15 -25.25 -0.05 -25.15 -0.05 -25.05 0.0 -25.0 0.0 -24.9 0.0 -24.8 0.0 -24.7 -0.05 -24.6 -0.1 -24.5 -0.15 -24.4 -0.3 -24.35 -0.4 -24.25 -0.6 -24.25 -0.9 -24.3 -1.0 -24.4 -1.15 -24.5 -1.35 -24.55 -1.45 -24.65 -1.6 -24.65 -1.85 -24.65 -2.15 -24.7 -2.3 -24.8 -2.4 -24.9 -2.45 -24.9 -2.6 -25.0 -2.7 -25.05 -2.8 -25.15 -2.95 -25.35 -3.0 -25.45 -3.05 -25.55 -3.1 -25.65 -3.1 -25.7 -3.1 -25.8 -3.15 -26.3 -3.1 -26.75 -3.1 -26.95 -3.05 -27.05 -3.0 -27.15 -3.0 -27.25 -3.0 -27.3 -3.0 -27.4 -3.0 -27.5 -3.0 -27.6 -2.95 -27.7 -2.9 -27.8 -2.9 -27.9 -2.9 -28.0 -2.9 -28.05 -2.9 -28.15 -2.9 -28.25 -2.85 -28.35 -2.8 -28.45 -2.75 -28.55 -2.65 -28.75 -3.1 -28.65 -3.15 -28.55 -3.3 -28.5 -3.45 -28.4 -3.6 -28.3 -3.85 -28.25 -4.15 -28.3 -4.25 -28.4 -4.35 -28.5 -4.4 -28.55 -4.45 -28.65 -4.45 -28.75 -4.5 -28.85 -4.5 -28.95 -4.45 -29.0 -4.45 -29.05 -4.4 -29.15 -4.4 -29.25 -4.3 -29.3 -4.25 -29.4 -4.05 -29.6 -3.85 -29.8 -3.7 -29.9 -3.55 -29.95 -3.35 -29.95 -3.35 -30.0 -2.6 -30.0 -2.35 -29.9 -2.2 -29.8 -2.1 -29.75 -2.1 -29.7 -2.05 -29.75 -2.0 -29.85 -1.85 -29.95 -1.7 -30.05 -1.55 -30.1 -1.35 -30.1 -1.35 -30.15 -1.25 -30.1" fill="#000000" fill-rule="evenodd" stroke="none"/>
  </g>
</svg>
