<?xml version="1.0" encoding="UTF-8" standalone="no"?>
<svg xmlns:ffdec="https://www.free-decompiler.com/flash" xmlns:xlink="http://www.w3.org/1999/xlink" ffdec:objectType="shape" height="29.45px" width="13.25px" xmlns="http://www.w3.org/2000/svg">
  <g transform="matrix(1.0, 0.0, 0.0, 1.0, 6.8, 26.4)">
    <path d="M0.8 -24.95 L0.9 -24.85 0.95 -24.75 1.0 -24.65 1.15 -24.5 1.55 -24.1 1.75 -23.9 1.75 -23.85 1.8 -23.75 1.9 -23.65 2.0 -23.55 2.15 -23.45 2.95 -22.7 3.65 -22.0 3.8 -21.8 3.8 -21.75 3.85 -21.65 3.9 -21.65 4.0 -21.45 4.1 -21.3 4.25 -20.9 4.35 -20.75 4.45 -20.45 4.85 -19.55 5.1 -18.85 5.15 -18.7 5.2 -18.6 5.5 -18.05 5.6 -17.75 5.7 -17.45 6.0 -16.6 6.2 -16.05 6.2 -15.95 6.2 -15.85 6.2 -15.75 6.25 -15.65 6.25 -15.6 6.35 -15.45 6.35 -15.3 6.35 -14.65 6.35 -14.25 6.35 -14.15 6.4 -14.1 6.4 -14.0 6.45 -13.9 6.45 -13.4 6.45 -12.4 6.45 -12.3 6.4 -12.25 6.4 -12.15 6.35 -12.1 6.35 -12.0 6.35 -11.5 6.35 -11.05 6.35 -10.75 6.3 -10.65 6.25 -10.6 6.25 -10.5 6.2 -10.4 6.2 -10.3 6.2 -10.2 6.2 -10.1 6.15 -10.0 6.1 -9.9 6.1 -9.75 6.1 -9.55 5.95 -9.2 5.9 -9.05 5.85 -9.0 5.85 -8.9 5.85 -8.85 5.8 -8.75 5.75 -8.7 5.75 -8.6 5.7 -8.5 5.6 -8.25 5.6 -8.2 5.45 -7.85 5.4 -7.65 5.3 -7.4 5.2 -7.2 5.1 -7.1 5.05 -7.0 5.0 -6.9 5.0 -6.85 4.95 -6.75 4.9 -6.65 4.85 -6.55 4.75 -6.45 4.75 -6.35 4.7 -6.25 4.7 -6.2 4.65 -6.1 4.6 -6.0 4.5 -5.9 4.4 -5.8 4.35 -5.7 4.3 -5.6 4.25 -5.5 4.2 -5.4 4.2 -5.35 4.05 -4.95 3.75 -4.4 3.6 -4.1 3.5 -4.0 3.45 -3.9 3.4 -3.85 3.35 -3.75 3.3 -3.65 3.3 -3.55 3.2 -3.45 3.15 -3.35 3.1 -3.25 3.05 -3.15 2.95 -3.1 2.9 -3.0 2.85 -2.9 2.85 -2.8 2.8 -2.7 2.75 -2.5 2.7 -2.45 2.65 -2.3 2.6 -2.25 2.6 -2.15 2.55 -2.05 2.5 -1.95 2.5 -1.85 2.45 -1.75 2.45 -1.65 2.4 -1.6 2.35 -1.5 2.35 -1.4 2.3 -1.3 2.25 -1.1 2.1 -0.85 2.0 -0.65 1.95 -0.55 1.95 -0.45 1.95 -0.35 1.9 -0.25 1.9 -0.15 1.85 -0.1 1.8 0.0 1.8 0.3 1.8 0.6 1.8 0.75 1.75 0.85 1.7 0.95 1.7 1.05 1.65 1.15 1.6 1.25 1.6 1.35 1.55 1.4 1.55 1.5 1.55 1.6 1.5 1.7 1.5 1.8 1.45 1.9 1.45 2.0 1.45 2.1 1.45 2.15 1.4 2.25 1.35 2.35 1.3 2.45 1.3 2.9 1.3 3.05 1.1 2.9 0.7 2.35 0.65 2.35 0.2 2.05 0.2 2.0 0.2 1.9 0.2 1.8 0.15 1.7 0.15 1.6 0.1 1.5 0.1 1.4 0.1 1.35 0.05 1.25 0.0 1.15 0.0 1.05 -0.05 0.95 -0.05 0.85 -0.05 0.75 -0.05 0.65 -0.1 0.6 -0.1 0.5 -0.15 0.4 -0.15 0.3 -0.2 0.2 -0.2 0.1 -0.3 -0.1 -0.35 -0.25 -0.4 -0.35 -0.4 -0.45 -0.4 -0.55 -0.4 -0.65 -0.4 -0.75 -0.4 -0.85 -0.4 -0.9 -0.45 -1.0 -0.5 -1.1 -0.5 -1.2 -0.55 -1.3 -0.55 -1.4 -0.55 -1.5 -0.55 -1.6 -0.55 -1.65 -0.6 -1.75 -0.65 -1.95 -0.7 -2.05 -0.75 -2.15 -0.8 -2.25 -0.8 -2.3 -0.8 -2.4 -0.85 -2.5 -0.85 -2.6 -0.9 -2.7 -0.9 -2.8 -0.9 -2.9 -0.95 -3.0 -0.95 -3.05 -1.0 -3.15 -1.05 -3.25 -1.05 -3.35 -1.1 -3.45 -1.15 -3.55 -1.15 -3.65 -1.15 -3.75 -1.2 -3.8 -1.2 -3.9 -1.25 -4.0 -1.3 -4.1 -1.3 -4.2 -1.3 -4.3 -1.3 -4.4 -1.3 -4.5 -1.35 -4.6 -1.4 -4.65 -1.5 -4.75 -1.6 -4.85 -1.65 -4.95 -1.7 -5.05 -1.85 -5.35 -1.9 -5.5 -1.9 -5.6 -2.05 -5.9 -2.3 -6.35 -2.45 -6.65 -2.5 -6.75 -2.5 -6.85 -2.55 -6.9 -2.55 -7.0 -2.55 -7.1 -2.6 -7.2 -2.75 -7.5 -3.0 -8.05 -3.2 -8.3 -3.25 -8.4 -3.35 -8.5 -3.35 -8.6 -3.45 -8.7 -3.5 -8.8 -3.6 -8.9 -3.6 -9.0 -3.7 -9.05 -3.75 -9.2 -3.8 -9.25 -3.8 -9.35 -3.85 -9.45 -3.95 -9.65 -4.0 -9.75 -4.05 -9.85 -4.1 -10.0 -4.15 -10.1 -4.2 -10.2 -4.25 -10.3 -4.35 -10.4 -4.45 -10.5 -4.45 -10.65 -4.5 -10.75 -4.6 -10.85 -4.7 -10.95 -4.8 -11.25 -5.0 -11.6 -5.15 -11.8 -5.25 -12.0 -5.4 -12.25 -5.45 -12.45 -5.5 -12.55 -5.6 -12.65 -5.7 -12.75 -5.8 -12.9 -5.8 -13.0 -5.85 -13.1 -5.95 -13.2 -6.0 -13.3 -6.1 -13.35 -6.1 -13.4 -6.2 -13.5 -6.25 -13.6 -6.3 -13.65 -6.3 -13.85 -6.35 -13.95 -6.4 -14.05 -6.4 -14.15 -6.4 -14.25 -6.45 -14.35 -6.45 -14.4 -6.5 -14.5 -6.55 -14.6 -6.55 -14.7 -6.55 -14.8 -6.55 -15.15 -6.55 -15.45 -6.6 -15.55 -6.6 -15.65 -6.65 -15.75 -6.65 -15.8 -6.65 -15.9 -6.7 -16.0 -6.75 -16.1 -6.75 -16.2 -6.8 -16.3 -6.8 -16.75 -6.8 -17.4 -6.8 -17.8 -6.75 -17.9 -6.7 -18.0 -6.65 -18.1 -6.65 -18.15 -6.65 -18.25 -6.65 -18.35 -6.45 -18.7 -6.45 -18.75 -6.3 -19.1 -6.2 -19.3 -6.1 -19.4 -6.0 -19.5 -5.95 -19.6 -5.9 -19.65 -5.85 -19.75 -5.75 -19.85 -5.7 -19.95 -5.65 -20.05 -5.6 -20.15 -5.5 -20.25 -5.45 -20.35 -5.4 -20.4 -5.35 -20.5 -5.25 -20.6 -5.2 -20.7 -5.1 -20.8 -5.05 -20.9 -5.0 -21.0 -4.95 -21.1 -4.85 -21.15 -4.75 -21.25 -4.7 -21.35 -4.6 -21.55 -4.6 -21.65 -4.5 -21.75 -4.45 -21.8 -4.35 -21.9 -4.25 -22.0 -4.2 -22.1 -4.2 -22.2 -4.1 -22.3 -4.0 -22.4 -3.9 -22.5 -3.85 -22.6 -3.8 -22.65 -3.8 -22.75 -3.6 -23.05 -3.4 -23.25 -3.3 -23.3 -3.25 -23.4 -3.2 -23.5 -3.15 -23.6 -3.05 -23.7 -2.65 -24.1 -2.5 -24.25 -2.45 -24.35 -2.4 -24.45 -1.4 -25.4 -0.45 -26.35 -0.45 -26.4 -0.25 -26.3 -0.15 -26.25 -0.1 -26.15 -0.05 -26.1 -0.05 -26.0 0.0 -25.9 0.05 -25.8 0.1 -25.7 0.25 -25.5 0.65 -25.15 0.8 -24.95 M0.8 -23.1 L0.65 -23.2 -0.35 -24.3 -0.6 -24.6 -0.9 -24.25 -2.85 -22.4 Q-4.8 -20.55 -5.45 -18.7 L-5.75 -16.85 Q-5.75 -15.75 -4.6 -13.35 L-2.05 -8.55 0.5 -3.2 1.05 -1.65 1.2 -2.05 2.85 -5.7 4.55 -9.4 Q5.35 -11.45 5.35 -13.05 L5.3 -13.85 5.3 -13.9 5.35 -14.0 5.35 -14.1 5.35 -14.2 5.3 -14.3 5.25 -14.4 5.25 -14.5 5.2 -14.7 5.2 -14.75 5.2 -14.85 5.15 -14.95 5.15 -15.0 4.7 -16.7 4.7 -16.75 4.65 -16.8 4.65 -16.85 4.6 -17.0 4.6 -17.1 4.55 -17.4 4.55 -17.55 4.5 -17.65 4.45 -17.75 4.45 -17.85 4.4 -17.95 4.35 -18.05 4.35 -18.15 4.35 -18.25 4.3 -18.35 4.3 -18.4 4.2 -18.6 4.15 -18.7 4.1 -18.8 4.1 -18.9 4.1 -19.0 4.05 -19.05 3.9 -19.35 3.8 -19.55 3.75 -19.65 3.1 -20.3 2.75 -20.65 2.65 -20.75 2.65 -20.85 2.55 -20.95 2.4 -21.15 2.3 -21.25 2.2 -21.3 2.15 -21.4 2.15 -21.5 2.05 -21.6 1.95 -21.7 1.9 -21.8 1.85 -22.0 1.8 -22.05 1.75 -22.15 1.65 -22.25 1.05 -22.8 0.8 -23.1" fill="#000000" fill-rule="evenodd" stroke="none"/>
  </g>
</svg>
