<?xml version="1.0" encoding="UTF-8" standalone="no"?>
<svg xmlns:ffdec="https://www.free-decompiler.com/flash" xmlns:xlink="http://www.w3.org/1999/xlink" ffdec:objectType="shape" height="191.5px" width="190.95px" xmlns="http://www.w3.org/2000/svg">
  <g transform="matrix(1.0, 0.0, 0.0, 1.0, 92.55, 99.3)">
    <path d="M33.8 82.2 Q42.45 76.1 50.5 69.4 88.25 38.05 90.5 -9.7 94.4 0.3 92.75 10.9 84.4 63.8 34.45 84.7 -11.85 104.25 -51.85 73.0 -93.65 40.4 -89.5 -0.25 -96.35 -13.45 -87.7 -29.3 -87.1 -30.35 -86.1 -30.55 -84.1 -30.6 -82.9 -29.55 L-82.65 -30.05 -81.9 -30.3 -82.25 -28.85 -81.75 -27.95 Q-79.05 -34.0 -75.45 -40.25 L-74.95 -38.6 -74.35 -35.5 Q-73.85 -31.55 -75.5 -27.95 L-77.8 -28.7 -79.7 -28.0 -81.4 -26.75 Q-80.55 -22.9 -82.7 -15.05 -84.3 -9.2 -85.3 -3.8 -84.0 19.8 -70.6 41.0 -32.8 101.0 33.8 82.2 M78.55 -14.6 L77.0 -17.0 81.3 -21.1 Q84.75 -18.6 87.2 -15.45 L86.1 -15.65 85.2 -15.75 85.15 -15.6 83.8 -15.45 83.1 -15.3 82.45 -14.8 81.7 -14.1 Q80.25 -14.7 78.55 -14.6 M-90.25 -14.1 Q-91.2 -11.1 -90.35 -7.9 L-90.05 -7.15 Q-89.6 -10.35 -90.0 -14.1 L-90.25 -14.1" fill="#000000" fill-rule="evenodd" stroke="none"/>
    <path d="M64.75 24.55 Q65.7 29.3 63.65 33.05 L62.95 33.1 62.7 33.1 62.45 33.3 Q59.4 34.25 55.8 33.3 41.3 29.45 26.7 33.15 L25.45 33.0 25.0 33.65 24.1 33.35 23.6 33.05 23.35 32.75 Q22.95 30.15 23.05 27.5 23.2 22.9 24.2 18.45 25.7 12.2 29.5 7.0 34.75 -0.15 43.05 -2.45 49.8 -2.4 54.55 2.3 59.1 6.8 61.35 12.65 63.55 18.45 64.75 24.55 M36.5 28.4 L37.05 28.45 37.6 28.45 37.95 28.2 43.05 28.55 Q45.6 29.1 47.6 27.85 L50.45 28.3 50.95 28.3 51.1 28.45 51.5 28.75 52.2 28.9 57.05 28.75 57.3 28.55 Q59.0 28.95 60.6 29.65 L60.3 28.15 59.85 24.65 59.35 20.5 Q59.0 18.25 58.25 16.1 57.75 14.7 57.85 13.15 55.1 8.45 50.7 5.1 41.35 -2.1 33.55 7.9 28.1 14.9 27.85 23.7 27.75 27.15 26.85 29.95 L27.55 29.75 31.7 28.9 31.85 29.2 33.0 29.55 34.05 29.4 35.2 28.45 35.75 27.9 35.8 27.9 35.95 28.05 36.3 28.3 36.45 28.35 36.4 28.4 36.5 28.4 M46.0 21.45 Q46.0 22.45 44.25 24.8 42.15 27.55 40.0 27.55 L37.9 27.2 36.5 26.3 36.25 25.3 Q36.0 24.4 36.0 22.95 L36.05 22.2 Q36.45 18.65 41.0 17.95 43.05 17.65 44.45 18.5 45.5 19.15 45.85 20.3 L46.0 21.45 M32.0 26.7 Q31.95 25.85 32.05 25.1 L32.2 26.15 32.0 26.7 M35.6 45.65 L36.45 45.85 37.0 46.05 Q37.4 46.15 37.75 46.4 L38.45 47.0 38.85 47.65 Q34.75 54.8 27.95 60.0 19.55 66.45 9.3 69.9 -3.15 74.05 -15.8 70.8 -17.25 70.4 -18.2 69.3 L-18.4 68.95 -18.5 68.6 -18.55 68.25 -18.55 67.95 -18.25 66.9 -17.9 66.45 Q-18.4 65.9 -18.55 65.15 L-18.5 64.8 -18.45 64.45 -18.3 64.1 -18.05 63.8 -17.6 63.5 -16.7 63.25 -16.7 63.2 Q-15.4 63.15 -14.35 63.9 L-12.05 64.85 -9.95 65.45 -9.7 65.55 Q3.45 64.4 15.4 59.15 23.1 55.8 29.0 49.95 31.75 47.2 34.7 45.6 L35.6 45.65 M-22.9 -3.25 Q-14.5 -1.35 -12.15 7.1 -10.0 14.65 -9.05 22.45 -8.45 27.65 -9.8 32.15 L-8.95 32.6 -8.85 32.95 -8.85 33.3 -8.95 33.65 -9.05 34.0 -9.3 34.35 -9.55 34.65 -9.95 35.05 -10.2 35.25 -15.35 35.6 -26.85 33.3 -33.85 32.2 Q-43.35 31.45 -51.4 33.55 L-51.5 33.35 Q-51.8 33.6 -52.35 33.65 L-53.25 33.35 -53.7 33.05 -53.95 32.75 -54.45 31.4 Q-55.1 29.35 -55.2 27.15 -55.45 21.5 -54.85 16.05 -54.15 9.4 -50.0 4.0 -45.2 -2.25 -38.0 -4.75 -30.35 -4.9 -22.9 -3.25 M-35.95 18.2 L-35.75 17.15 Q-34.95 14.5 -31.5 13.95 -28.0 13.35 -27.2 16.0 L-27.05 16.8 -27.0 17.8 Q-27.0 19.25 -27.75 20.85 -29.05 23.55 -32.0 23.55 L-34.1 23.2 -35.5 22.3 -35.75 21.3 -36.0 18.95 -35.95 18.2 M-23.65 30.4 L-22.55 30.45 -19.75 29.8 -19.65 30.4 -17.25 30.5 -12.8 31.1 -12.9 25.55 Q-12.8 12.2 -21.15 2.35 -23.75 -0.75 -28.15 -1.25 -41.8 -2.9 -47.9 9.5 -52.85 19.55 -51.5 30.8 L-50.7 30.1 -50.0 29.7 -49.35 29.35 -48.15 28.85 -47.0 28.45 -45.85 28.1 -45.4 28.0 -45.45 27.6 -43.0 28.2 -41.85 28.45 -41.3 28.45 -40.9 28.2 -40.4 28.0 -40.0 28.1 -35.35 28.9 Q-34.45 29.55 -33.1 29.6 L-25.05 29.85 -24.45 30.15 -23.65 30.4" fill="#000000" fill-rule="evenodd" stroke="none"/>
    <path d="M36.45 28.35 L36.3 28.3 35.95 28.05 35.8 27.9 35.75 27.9 35.2 28.45 34.05 29.4 33.0 29.55 31.85 29.2 31.7 28.9 27.55 29.75 26.85 29.95 Q27.75 27.15 27.85 23.7 28.1 14.9 33.55 7.9 41.35 -2.1 50.7 5.1 55.1 8.45 57.85 13.15 57.75 14.7 58.25 16.1 59.0 18.25 59.35 20.5 L59.85 24.65 60.3 28.15 60.6 29.65 Q59.0 28.95 57.3 28.55 L57.05 28.75 52.2 28.9 51.5 28.75 51.1 28.45 50.95 28.3 50.45 28.3 47.6 27.85 Q45.6 29.1 43.05 28.55 L37.95 28.2 37.6 28.45 37.05 28.45 36.5 28.4 36.45 28.35 M46.0 21.45 L45.85 20.3 Q45.5 19.15 44.45 18.5 43.05 17.65 41.0 17.95 36.45 18.65 36.05 22.2 L36.0 22.95 Q36.0 24.4 36.25 25.3 L36.5 26.3 37.9 27.2 40.0 27.55 Q42.15 27.55 44.25 24.8 46.0 22.45 46.0 21.45 M32.0 26.7 L32.2 26.15 32.05 25.1 Q31.95 25.85 32.0 26.7 M-35.75 17.15 L-36.0 17.1 -35.95 18.2 -36.0 18.95 -35.75 21.3 -35.5 22.3 -34.1 23.2 -32.0 23.55 Q-29.05 23.55 -27.75 20.85 -27.0 19.25 -27.0 17.8 L-27.05 16.8 -27.0 15.95 -27.2 16.0 Q-28.0 13.35 -31.5 13.95 -34.95 14.5 -35.75 17.15 M-23.65 30.4 L-24.45 30.15 -25.05 29.85 -33.1 29.6 Q-34.45 29.55 -35.35 28.9 L-40.0 28.1 -40.4 28.0 -40.9 28.2 -41.3 28.45 -41.85 28.45 -43.0 28.2 -45.45 27.6 -45.4 28.0 -45.85 28.1 -47.0 28.45 -48.15 28.85 -49.35 29.35 -50.0 29.7 -50.7 30.1 -51.5 30.8 Q-52.85 19.55 -47.9 9.5 -41.8 -2.9 -28.15 -1.25 -23.75 -0.75 -21.15 2.35 -12.8 12.2 -12.9 25.55 L-12.8 31.1 -17.25 30.5 -19.65 30.4 -19.75 29.8 -22.55 30.45 -23.65 30.4" fill="#66ffff" fill-rule="evenodd" stroke="none"/>
    <path d="M79.35 -76.3 Q85.1 -68.8 85.1 -63.75 85.1 -62.55 84.6 -61.5 83.9 -60.0 82.3 -59.6 86.05 -54.0 92.5 -35.85 98.4 -19.2 98.4 -17.05 98.4 -15.3 97.3 -14.05 95.95 -12.55 93.65 -12.55 93.1 -12.55 80.55 -16.3 L60.25 -22.3 Q52.35 -24.55 44.75 -24.05 38.5 -23.65 32.5 -26.4 L24.9 -29.25 18.35 -31.5 16.6 -30.15 Q15.05 -28.85 13.55 -28.85 9.75 -28.85 -2.5 -46.65 -8.65 -55.55 -14.05 -64.65 L-13.15 -69.85 Q-11.95 -76.05 -10.5 -81.25 -5.8 -97.75 0.0 -97.75 2.1 -97.75 3.3 -95.9 L4.4 -93.45 Q36.3 -106.45 63.0 -90.6 72.85 -84.7 79.35 -76.3 M75.65 -46.2 L75.4 -46.05 76.0 -45.25 75.65 -46.2 M-85.35 -58.75 Q-83.8 -66.1 -80.25 -71.95 -75.0 -80.5 -66.25 -84.75 L-66.25 -84.8 Q-57.9 -92.5 -50.3 -92.5 -47.9 -92.5 -41.3 -90.0 L-35.05 -87.55 Q-34.5 -87.55 -33.2 -88.95 -31.9 -90.35 -30.35 -90.35 -28.25 -90.35 -26.95 -88.7 L-26.05 -87.0 Q-22.4 -95.9 -17.6 -93.4 -15.8 -92.5 -14.5 -90.2 -13.3 -88.0 -13.3 -86.15 -13.3 -76.95 -20.55 -71.2 L-22.9 -69.55 Q-23.3 -68.05 -26.95 -63.35 -31.65 -57.3 -37.55 -51.65 -54.55 -35.5 -68.05 -35.5 L-70.45 -35.7 Q-73.2 -34.75 -76.2 -34.75 -83.65 -34.75 -85.85 -40.3 -86.65 -42.35 -86.65 -44.55 -88.55 -45.0 -89.25 -46.55 -89.75 -47.65 -89.6 -48.9 -89.6 -50.45 -86.2 -57.15 L-85.35 -58.75" fill="#00b3ff" fill-rule="evenodd" stroke="none"/>
  </g>
</svg>
