<?xml version="1.0" encoding="UTF-8" standalone="no"?>
<svg xmlns:ffdec="https://www.free-decompiler.com/flash" xmlns:xlink="http://www.w3.org/1999/xlink" ffdec:objectType="shape" height="210.8px" width="69.15px" xmlns="http://www.w3.org/2000/svg">
  <g transform="matrix(1.0, 0.0, 0.0, 1.0, 44.3, 293.75)">
    <path d="M-44.3 -123.4 L-43.5 -121.75 -43.5 -121.05 -43.5 -120.95 -44.3 -123.4 M0.4 -235.15 L0.0 -235.85 -0.45 -236.55 -1.35 -237.3 -1.85 -237.95 -2.9 -240.1 Q-3.4 -241.2 -4.2 -242.1 L-5.55 -243.5 -5.95 -244.25 -6.3 -244.9 -6.7 -245.6 -7.4 -246.3 -8.15 -246.95 -9.25 -247.7 -10.6 -248.0 -20.6 -261.2 -20.0 -248.7 Q-19.65 -239.45 -19.65 -235.7 -19.65 -219.4 -28.7 -191.95 -37.75 -164.55 -37.75 -153.6 -37.75 -133.4 -24.1 -110.85 -18.6 -103.05 -15.35 -97.85 L-12.25 -102.25 -0.45 -117.05 Q16.5 -140.4 16.65 -166.45 L16.65 -166.85 16.65 -169.2 16.9 -169.9 17.15 -170.6 17.35 -171.3 17.6 -172.0 17.6 -177.55 17.8 -184.45 Q18.05 -187.45 16.9 -190.05 L16.75 -191.45 16.65 -193.5 16.65 -194.9 16.65 -195.6 16.45 -196.3 16.2 -197.0 15.95 -197.7 15.75 -198.35 15.75 -199.05 15.75 -199.75 15.75 -200.45 15.1 -202.55 14.55 -204.6 14.1 -206.0 13.9 -206.7 13.9 -207.4 13.85 -208.1 13.65 -208.8 11.8 -212.25 Q10.4 -215.0 9.4 -217.85 8.6 -220.05 7.4 -222.0 L7.35 -222.65 7.15 -223.35 5.5 -226.8 3.75 -230.35 2.8 -232.4 2.1 -233.1 1.4 -233.8 0.7 -234.5 0.4 -235.15 M0.0 -249.05 L0.65 -248.35 1.15 -247.7 1.4 -247.0 1.65 -246.3 2.05 -245.55 2.3 -244.9 2.95 -244.2 3.45 -243.5 3.9 -242.8 4.15 -242.1 4.85 -241.45 5.55 -240.75 6.25 -240.05 6.5 -239.35 Q8.25 -235.75 10.85 -232.65 12.35 -230.85 14.2 -229.3 17.4 -221.5 22.2 -201.2 L22.2 -200.25 22.45 -199.55 22.7 -198.85 22.9 -198.15 22.95 -198.0 23.15 -197.15 23.15 -194.0 23.0 -189.15 Q22.9 -187.55 23.85 -186.35 24.25 -184.65 24.15 -182.85 L24.15 -179.4 24.3 -178.0 24.6 -177.35 24.85 -176.6 24.75 -175.9 24.55 -175.25 24.3 -174.55 24.05 -173.85 24.05 -173.15 24.15 -170.35 Q24.2 -169.3 23.8 -168.3 L23.4 -167.6 Q23.0 -166.25 23.05 -164.8 L23.15 -160.65 23.15 -158.55 22.75 -157.85 22.45 -157.15 22.3 -156.45 22.2 -155.8 21.8 -155.05 21.5 -154.4 21.3 -153.7 21.3 -153.0 21.3 -151.6 21.3 -150.9 21.3 -150.25 20.9 -149.5 20.6 -148.85 20.35 -148.15 20.35 -147.45 20.3 -146.75 20.15 -146.05 19.7 -145.35 19.5 -144.65 19.45 -144.0 19.15 -143.3 18.8 -142.55 18.55 -141.9 18.5 -141.2 17.8 -139.8 17.15 -138.4 16.9 -137.75 16.65 -137.05 15.95 -136.35 15.35 -135.6 15.05 -134.95 14.85 -134.25 14.8 -133.55 14.45 -132.85 13.25 -130.05 12.65 -128.75 12.25 -128.0 11.55 -127.3 11.3 -126.65 10.45 -124.5 9.9 -123.15 9.5 -122.45 8.8 -121.75 8.15 -121.05 7.65 -120.35 7.45 -119.65 7.35 -119.0 7.15 -118.3 6.75 -117.55 6.55 -116.9 6.4 -116.2 6.25 -115.5 4.85 -114.1 2.15 -111.25 1.15 -109.95 1.0 -109.25 0.8 -108.6 0.45 -107.85 -0.25 -107.15 -0.65 -106.45 -1.35 -105.05 -1.6 -104.4 -1.85 -103.7 -3.95 -101.6 -5.35 -100.25 -6.0 -99.55 -6.25 -98.85 -6.55 -98.15 -6.95 -97.45 -7.65 -96.8 -8.55 -96.05 -9.25 -95.35 -9.7 -94.65 -9.95 -94.0 -10.2 -93.3 -10.2 -92.6 -10.15 -91.9 -9.95 -91.2 -9.7 -90.5 -9.25 -89.85 -8.55 -89.15 -7.95 -88.6 Q-11.05 -85.45 -11.55 -85.45 -13.1 -83.1 -16.1 -82.95 L-15.95 -83.35 -15.8 -84.05 -15.75 -84.7 -16.25 -86.1 -16.95 -87.5 -17.3 -88.2 -17.6 -88.9 -18.3 -89.55 -19.15 -90.35 -19.7 -90.95 -20.35 -92.35 -21.05 -93.75 -21.3 -94.45 -21.55 -95.15 -23.1 -97.95 -24.5 -100.7 -25.25 -102.1 -25.9 -102.8 -26.4 -103.45 -26.85 -104.85 -27.3 -106.25 -27.6 -106.9 -28.0 -107.65 -28.7 -108.35 -28.75 -109.0 -28.95 -109.7 -29.35 -110.45 -29.65 -111.1 -30.25 -111.85 -30.55 -112.5 -30.8 -113.2 -31.05 -113.85 -31.5 -114.6 -31.55 -115.25 -31.7 -115.95 -32.0 -116.65 -32.65 -118.05 -33.05 -118.75 -33.35 -119.45 -33.4 -120.15 -33.6 -120.8 -34.05 -121.5 -34.2 -122.25 -34.25 -122.9 -34.25 -123.6 -34.25 -124.3 -35.1 -126.3 Q-37.1 -130.0 -38.75 -133.9 -39.95 -136.7 -40.75 -139.6 L-41.75 -141.6 -42.2 -142.5 -42.15 -142.8 -41.9 -143.5 -41.65 -144.2 -41.65 -144.9 -41.65 -146.3 -41.65 -147.0 -41.7 -147.65 -41.9 -148.4 -42.2 -149.05 -42.5 -149.8 -42.6 -150.45 -42.6 -151.15 -42.6 -151.85 -42.55 -152.55 -42.3 -153.2 -41.9 -153.95 Q-41.5 -156.3 -41.55 -158.8 -41.65 -162.25 -41.9 -165.7 -42.05 -168.0 -40.95 -169.9 L-40.85 -170.6 -40.75 -174.05 -40.5 -176.8 -40.05 -178.25 -39.85 -178.95 -39.8 -179.6 -39.75 -180.3 -39.55 -181.0 -39.1 -181.7 -38.95 -182.4 -38.9 -183.1 -38.9 -183.8 -38.9 -184.5 -38.9 -185.2 -38.45 -185.9 -38.2 -186.55 -37.95 -187.25 -37.95 -187.95 -37.95 -188.65 -37.75 -189.35 Q-37.05 -191.45 -36.5 -193.55 L-35.5 -197.0 -35.2 -198.35 -34.75 -199.1 -34.5 -199.75 -34.25 -200.45 -34.25 -201.15 -34.2 -201.85 -34.05 -202.55 Q-32.85 -204.55 -32.05 -206.75 L-29.85 -212.95 -28.7 -216.45 -28.7 -217.1 -28.7 -218.5 -28.7 -219.2 -28.7 -219.9 -28.7 -220.6 -28.3 -221.3 -28.0 -222.0 -27.8 -222.7 -27.8 -223.35 -27.8 -225.45 -27.7 -226.85 -27.5 -227.5 -27.1 -228.25 -26.9 -228.95 -26.85 -229.6 -26.85 -230.3 -26.85 -231.0 -26.85 -231.7 -26.45 -232.4 -26.15 -233.1 -25.95 -233.8 -25.95 -234.5 -25.95 -236.55 -25.95 -237.95 -25.95 -238.65 -25.95 -239.35 -26.15 -240.05 -26.4 -240.75 -26.6 -241.45 -26.85 -242.1 -26.85 -243.5 -26.85 -247.0 -26.95 -249.75 Q-26.95 -250.45 -27.1 -251.15 L-27.35 -251.8 -27.7 -252.55 -27.8 -253.25 -27.8 -253.95 -27.8 -254.6 -27.8 -255.3 -27.8 -256.0 -28.0 -256.7 -28.25 -257.4 -28.45 -258.1 -28.7 -258.8 -28.7 -260.2 -28.7 -262.25 -28.7 -263.65 -28.75 -264.35 -28.95 -265.05 -29.2 -265.7 -29.6 -266.45 -29.9 -267.1 -30.3 -267.85 -30.55 -268.5 -30.55 -269.2 -30.55 -270.6 -30.65 -272.0 -30.85 -272.65 -31.25 -273.35 -31.45 -274.1 -31.5 -274.75 -31.55 -275.45 -31.7 -276.15 -32.0 -276.8 -32.35 -277.55 -32.7 -278.2 -33.05 -278.95 -33.35 -279.6 -33.4 -280.3 -33.6 -281.0 -34.05 -281.7 -34.2 -282.4 -34.25 -283.1 -34.25 -283.8 -34.25 -284.5 -34.5 -285.2 -34.7 -285.85 -34.95 -286.55 -35.2 -287.25 -35.2 -287.95 -35.25 -288.65 -35.4 -289.35 -35.85 -290.05 -36.05 -290.75 -36.1 -291.45 -36.4 -292.1 -37.05 -293.5 -37.2 -293.75 Q-35.6 -293.55 -33.4 -292.35 L-32.95 -292.1 Q-31.2 -293.0 -27.8 -290.25 L-27.8 -290.05 -27.7 -288.65 -27.55 -287.95 -27.05 -287.3 -26.4 -286.55 -25.2 -284.5 Q-24.2 -282.85 -23.5 -281.05 L-22.45 -278.95 -22.3 -278.25 -22.15 -277.55 -22.0 -276.85 -20.8 -275.5 -20.15 -274.75 -19.45 -274.05 -19.2 -273.35 -19.0 -272.7 -17.6 -271.3 -16.9 -270.6 -16.2 -269.9 -15.8 -269.2 -15.45 -268.55 -15.05 -267.8 -14.35 -267.1 -13.95 -266.4 -13.6 -265.75 -13.2 -265.05 -11.8 -263.65 -10.4 -262.25 -9.7 -261.55 -8.6 -259.45 -7.85 -258.1 -7.4 -257.4 -6.0 -256.0 -3.25 -253.25 -1.85 -251.85 -1.6 -251.15 -1.4 -250.45 0.0 -249.05" fill="#000000" fill-rule="evenodd" stroke="none"/>
  </g>
</svg>
