<?xml version="1.0" encoding="UTF-8" standalone="no"?>
<svg xmlns:ffdec="https://www.free-decompiler.com/flash" xmlns:xlink="http://www.w3.org/1999/xlink" ffdec:objectType="shape" height="287.2px" width="197.05px" xmlns="http://www.w3.org/2000/svg">
  <g transform="matrix(1.0, 0.0, 0.0, 1.0, 91.6, 112.3)">
    <path d="M54.55 63.15 Q90.65 32.75 83.15 -21.55 105.9 28.25 57.2 65.65 L57.4 66.2 Q23.55 98.6 -16.7 87.05 -34.7 83.4 -52.4 71.05 -65.2 62.15 -74.5 49.65 L-74.15 48.7 Q-107.2 3.2 -75.4 -40.2 -97.8 36.6 -30.05 78.7 -8.6 81.7 17.5 77.15 37.5 73.7 53.7 62.95 L54.55 63.15" fill="#000000" fill-rule="evenodd" stroke="none"/>
    <path d="M54.55 -59.5 Q59.1 -55.0 61.35 -49.15 63.55 -43.35 64.75 -37.25 65.7 -32.5 63.65 -28.75 L62.95 -28.7 62.7 -28.7 62.45 -28.5 Q59.4 -27.55 55.8 -28.5 41.3 -32.35 26.7 -28.65 L25.45 -28.8 25.0 -28.15 Q24.5 -28.25 24.1 -28.45 L23.6 -28.75 23.35 -29.05 Q22.95 -31.65 23.05 -34.3 23.2 -38.9 24.2 -43.35 25.7 -49.6 29.5 -54.8 34.75 -61.95 43.05 -64.25 49.8 -64.2 54.55 -59.5 M36.25 -38.35 Q36.0 -39.25 36.0 -40.7 36.0 -44.95 41.0 -45.7 43.05 -46.0 44.45 -45.15 46.0 -44.2 46.0 -42.2 46.0 -41.2 44.25 -38.85 42.15 -36.1 40.0 -36.1 L37.9 -36.45 36.5 -37.35 36.25 -38.35 M36.5 -33.4 L37.05 -33.35 37.6 -33.35 37.95 -33.6 43.05 -33.25 Q45.6 -32.7 47.6 -33.95 L50.45 -33.5 50.95 -33.5 51.1 -33.35 51.5 -33.05 52.2 -32.9 57.05 -33.05 57.3 -33.25 60.6 -32.15 60.3 -33.65 Q60.0 -35.35 59.85 -37.15 L59.35 -41.3 Q59.0 -43.55 58.25 -45.7 57.75 -47.1 57.85 -48.65 55.1 -53.35 50.7 -56.7 41.35 -63.9 33.55 -53.9 28.1 -46.9 27.85 -38.1 27.75 -34.65 26.85 -31.85 L27.55 -32.05 31.7 -32.9 31.85 -32.6 33.0 -32.25 34.05 -32.4 35.2 -33.35 35.75 -33.9 35.8 -33.9 35.95 -33.75 36.3 -33.5 36.45 -33.45 36.4 -33.4 36.5 -33.4 M32.05 -36.7 L32.2 -35.65 32.0 -35.1 32.05 -36.7 M35.6 -3.55 L36.45 -3.35 37.0 -3.15 37.75 -2.8 38.45 -2.2 38.85 -1.55 Q34.75 5.6 27.95 10.8 19.55 17.25 9.3 20.7 -3.15 24.85 -15.8 21.6 -17.25 21.2 -18.2 20.1 L-18.4 19.75 -18.5 19.4 -18.55 19.05 -18.55 18.75 -18.25 17.7 -17.9 17.25 Q-18.4 16.7 -18.55 15.95 L-18.5 15.6 -18.45 15.25 -18.3 14.9 -18.05 14.6 -17.6 14.3 -16.7 14.05 -16.7 14.0 Q-15.4 13.95 -14.35 14.7 L-12.05 15.65 -9.95 16.25 -9.7 16.35 Q3.45 15.2 15.4 9.95 23.1 6.6 29.0 0.75 31.75 -2.0 34.7 -3.6 L35.6 -3.55 M-22.9 -65.05 Q-14.5 -63.15 -12.15 -54.7 -10.0 -47.15 -9.05 -39.35 -8.45 -34.15 -9.8 -29.65 L-8.95 -29.2 -8.85 -28.85 -8.85 -28.5 -8.95 -28.15 -9.05 -27.8 -9.3 -27.45 -9.55 -27.15 -9.95 -26.75 -10.2 -26.55 -15.35 -26.2 -26.85 -28.5 -33.85 -29.6 Q-43.35 -30.35 -51.4 -28.25 L-51.5 -28.45 Q-51.8 -28.2 -52.35 -28.15 L-53.25 -28.45 -53.7 -28.75 -53.95 -29.05 -54.45 -30.4 Q-55.1 -32.45 -55.2 -34.65 -55.45 -40.3 -54.85 -45.75 -54.15 -52.4 -50.0 -57.8 -45.2 -64.05 -38.0 -66.55 -30.35 -66.7 -22.9 -65.05 M-28.15 -63.05 Q-41.8 -64.7 -47.9 -52.3 -52.85 -42.25 -51.5 -31.0 L-50.7 -31.7 -50.0 -32.1 -49.35 -32.45 -48.15 -32.95 -47.0 -33.35 -45.85 -33.7 -45.4 -33.8 -45.45 -34.2 -43.0 -33.6 -41.85 -33.35 -41.3 -33.35 -40.9 -33.6 -40.4 -33.8 -40.0 -33.7 Q-37.55 -32.95 -35.35 -32.9 -34.45 -32.25 -33.1 -32.2 L-25.05 -31.95 -24.45 -31.65 -23.65 -31.4 -22.55 -31.35 -19.75 -32.0 -19.65 -31.4 -17.25 -31.3 -12.8 -30.7 -12.9 -36.25 Q-12.8 -49.6 -21.15 -59.45 -23.75 -62.55 -28.15 -63.05 M-27.75 -42.8 Q-29.05 -40.1 -32.0 -40.1 L-34.1 -40.45 Q-34.5 -40.65 -35.5 -41.35 L-35.75 -42.35 -36.0 -44.7 Q-36.0 -48.95 -31.5 -49.7 -27.0 -50.5 -27.0 -45.85 -27.0 -44.4 -27.75 -42.8" fill="#000000" fill-rule="evenodd" stroke="none"/>
    <path d="M36.45 -33.45 L36.3 -33.5 35.95 -33.75 35.8 -33.9 35.75 -33.9 35.2 -33.35 34.05 -32.4 33.0 -32.25 31.85 -32.6 31.7 -32.9 27.55 -32.05 26.85 -31.85 Q27.75 -34.65 27.85 -38.1 28.1 -46.9 33.55 -53.9 41.35 -63.9 50.7 -56.7 55.1 -53.35 57.85 -48.65 57.75 -47.1 58.25 -45.7 59.0 -43.55 59.35 -41.3 L59.85 -37.15 Q60.0 -35.35 60.3 -33.65 L60.6 -32.15 57.3 -33.25 57.05 -33.05 52.2 -32.9 51.5 -33.05 51.1 -33.35 50.95 -33.5 50.45 -33.5 47.6 -33.95 Q45.6 -32.7 43.05 -33.25 L37.95 -33.6 37.6 -33.35 37.05 -33.35 36.5 -33.4 36.45 -33.45 M36.25 -38.35 L36.5 -37.35 37.9 -36.45 40.0 -36.1 Q42.15 -36.1 44.25 -38.85 46.0 -41.2 46.0 -42.2 46.0 -44.2 44.45 -45.15 43.05 -46.0 41.0 -45.7 36.0 -44.95 36.0 -40.7 36.0 -39.25 36.25 -38.35 M32.05 -36.7 L32.0 -35.1 32.2 -35.65 32.05 -36.7 M-27.75 -42.8 Q-27.0 -44.4 -27.0 -45.85 -27.0 -50.5 -31.5 -49.7 -36.0 -48.95 -36.0 -44.7 L-35.75 -42.35 -35.5 -41.35 Q-34.5 -40.65 -34.1 -40.45 L-32.0 -40.1 Q-29.05 -40.1 -27.75 -42.8 M-28.15 -63.05 Q-23.75 -62.55 -21.15 -59.45 -12.8 -49.6 -12.9 -36.25 L-12.8 -30.7 -17.25 -31.3 -19.65 -31.4 -19.75 -32.0 -22.55 -31.35 -23.65 -31.4 -24.45 -31.65 -25.05 -31.95 -33.1 -32.2 Q-34.45 -32.25 -35.35 -32.9 -37.55 -32.95 -40.0 -33.7 L-40.4 -33.8 -40.9 -33.6 -41.3 -33.35 -41.85 -33.35 -43.0 -33.6 -45.45 -34.2 -45.4 -33.8 -45.85 -33.7 -47.0 -33.35 -48.15 -32.95 -49.35 -32.45 -50.0 -32.1 -50.7 -31.7 -51.5 -31.0 Q-52.85 -42.25 -47.9 -52.3 -41.8 -64.7 -28.15 -63.05" fill="#66ffff" fill-rule="evenodd" stroke="none"/>
    <path d="M7.3 -109.05 Q13.5 -111.25 21.3 -111.95 28.0 -112.6 32.8 -111.7 45.7 -115.0 65.3 -95.7 L71.3 -89.45 Q72.65 -90.7 74.45 -90.7 76.9 -90.7 91.4 -68.65 105.45 -47.25 105.45 -46.3 105.45 -43.8 103.45 -42.5 102.0 -41.55 100.45 -41.55 99.6 -41.55 91.2 -47.6 L82.75 -53.65 Q79.75 -53.65 76.3 -57.7 72.85 -61.75 72.2 -61.75 70.6 -61.75 68.1 -60.0 65.6 -58.3 63.85 -58.3 61.3 -58.3 60.15 -60.1 59.0 -61.95 56.85 -61.95 L44.15 -66.6 31.45 -71.25 Q24.4 -71.25 17.7 -75.9 11.1 -80.45 11.0 -85.1 3.8 -86.65 -0.5 -92.1 L-1.6 -93.6 -1.95 -93.7 -8.8 -87.65 Q-17.15 -80.5 -19.35 -80.5 -22.45 -80.5 -23.5 -82.65 -23.95 -83.6 -23.95 -85.1 -23.95 -90.15 -21.7 -93.7 L-23.35 -94.0 -24.1 -91.65 Q-25.55 -87.5 -27.9 -83.95 -35.05 -73.15 -47.1 -73.15 L-48.55 -73.15 Q-55.95 -68.4 -62.9 -68.4 L-66.05 -68.6 Q-69.85 -67.15 -73.6 -66.75 -75.75 -65.65 -78.1 -65.65 -83.2 -65.65 -85.1 -70.1 L-85.45 -71.0 Q-86.35 -70.3 -86.9 -70.3 -90.2 -70.3 -91.2 -72.8 -91.7 -74.1 -91.55 -75.6 -91.55 -85.95 -80.85 -95.0 -71.25 -103.05 -57.25 -106.95 -43.4 -110.8 -33.7 -108.3 -28.5 -106.95 -25.8 -103.95 L-20.75 -104.35 Q-17.6 -103.85 -15.35 -102.15 -13.85 -101.0 -13.25 -99.7 L-12.35 -99.9 -5.45 -99.7 Q-5.4 -101.7 -4.5 -103.3 -4.5 -109.6 -2.7 -111.5 -1.25 -113.0 1.8 -111.75 L7.0 -108.9 7.3 -109.05 M17.55 86.05 Q21.15 86.05 22.4 88.25 23.0 89.25 23.0 90.7 L23.0 90.75 24.0 93.45 Q24.75 96.3 24.9 99.35 24.9 110.7 4.75 143.9 -1.75 154.6 -9.15 165.65 L-15.65 174.9 Q-19.85 174.9 -23.7 159.05 -27.35 140.9 -29.05 136.3 L-36.85 119.0 Q-44.25 101.95 -44.25 98.05 -44.25 92.0 -42.1 88.0 L-41.6 87.2 Q-43.45 84.9 -43.45 84.05 -43.45 80.05 -40.2 80.1 -37.7 80.15 -32.25 82.8 L-22.45 87.65 Q-16.7 90.25 -13.5 90.25 -3.55 90.25 6.5 88.15 16.55 86.05 17.55 86.05" fill="#00b3ff" fill-rule="evenodd" stroke="none"/>
  </g>
</svg>
