<?xml version="1.0" encoding="UTF-8" standalone="no"?>
<svg xmlns:ffdec="https://www.free-decompiler.com/flash" xmlns:xlink="http://www.w3.org/1999/xlink" ffdec:objectType="shape" height="309.0px" width="206.0px" xmlns="http://www.w3.org/2000/svg">
  <g transform="matrix(1.0, 0.0, 0.0, 1.0, 97.0, 118.55)">
    <path d="M-15.05 -104.5 Q-12.25 -105.9 -7.35 -111.45 L-7.6 -110.2 Q-1.75 -113.4 5.65 -114.8 L7.35 -114.75 Q12.65 -114.75 19.1 -115.95 L20.0 -115.95 22.75 -116.6 25.7 -117.15 26.3 -117.25 26.8 -117.15 26.75 -117.35 34.0 -118.35 33.95 -116.25 33.8 -115.55 34.3 -115.75 34.25 -115.95 34.9 -117.4 34.95 -117.8 Q46.55 -117.75 57.45 -112.55 72.1 -105.6 84.75 -90.15 94.5 -78.2 101.35 -63.45 107.0 -51.35 107.0 -47.05 L106.8 -44.35 Q109.0 -40.95 109.0 -36.65 109.0 -35.45 107.75 -34.35 L107.1 -33.85 106.2 -32.15 Q104.85 -30.5 102.7 -30.5 L92.7 -39.05 Q82.3 -48.0 79.8 -49.6 77.55 -51.05 72.95 -52.6 L74.5 -50.95 Q80.85 -43.85 85.0 -35.2 89.75 -25.2 89.75 -16.6 89.75 -15.25 88.8 -13.9 87.55 -12.05 85.3 -11.95 L85.2 -12.25 85.2 -12.95 85.2 -15.05 85.1 -16.4 84.95 -17.1 84.55 -17.85 83.95 -19.15 83.6 -19.9 83.35 -20.6 83.35 -21.3 83.35 -22.0 83.35 -22.7 82.8 -24.05 82.2 -25.45 81.9 -26.1 81.5 -26.85 81.5 -27.55 81.5 -28.25 80.95 -29.6 80.35 -31.0 80.05 -31.7 79.65 -32.4 79.0 -33.15 78.7 -33.8 78.2 -35.15 77.5 -36.55 77.15 -37.3 76.85 -37.95 76.1 -38.6 75.4 -39.1 Q73.65 -43.95 71.05 -48.35 68.35 -52.95 63.9 -56.0 L62.0 -56.35 60.2 -56.45 60.15 -56.35 59.3 -56.15 59.3 -56.4 52.5 -57.95 Q28.75 -63.05 27.3 -63.65 18.65 -67.1 3.7 -80.0 -9.15 -91.1 -11.45 -96.65 L-11.85 -95.45 -11.05 -93.65 -10.7 -92.9 -12.15 -92.1 -13.9 -92.5 -14.8 -92.6 -14.85 -92.45 -16.9 -92.1 -18.3 -91.4 -20.9 -89.4 -22.2 -87.95 -22.65 -87.25 -22.95 -86.6 -23.4 -85.85 Q-23.85 -85.5 -24.35 -85.25 -25.0 -84.85 -25.7 -84.5 -27.8 -82.1 -30.6 -80.65 -32.25 -79.7 -34.0 -78.9 L-34.7 -78.25 -35.4 -77.55 -36.1 -76.85 -36.8 -76.15 -39.1 -74.7 -40.05 -74.1 -41.45 -73.35 -45.95 -70.05 Q-47.7 -68.65 -49.75 -67.8 L-50.5 -67.15 -51.6 -66.4 -52.75 -65.65 -53.45 -65.05 -55.8 -64.35 -56.7 -63.65 -57.65 -63.0 Q-58.35 -62.6 -59.0 -62.25 L-60.4 -60.85 -61.8 -59.5 -62.4 -58.75 -62.75 -58.1 -63.25 -57.5 -64.6 -56.7 -65.25 -56.0 -65.95 -55.3 -66.7 -53.95 -67.1 -53.2 -67.35 -52.55 -67.6 -51.85 -68.3 -51.15 -69.0 -50.45 -69.65 -49.75 -70.1 -49.05 -70.3 -48.35 -70.35 -47.65 -70.7 -47.05 -71.3 -46.3 -72.0 -45.6 -72.7 -44.9 Q-73.4 -42.65 -74.45 -40.6 L-77.3 -35.05 -80.55 -28.95 -80.8 -27.55 -81.0 -26.85 -81.25 -26.15 -81.3 -25.9 Q-83.7 -26.25 -84.6 -28.5 -85.15 -29.8 -85.1 -31.2 -85.1 -36.15 -79.15 -45.15 -73.7 -53.4 -66.1 -60.95 L-65.65 -61.35 -71.4 -60.85 -71.5 -61.1 -71.75 -61.8 -72.05 -62.45 -72.45 -63.2 -73.15 -63.9 -73.9 -64.5 -75.0 -65.25 -76.85 -65.75 -78.2 -65.45 -79.4 -65.0 -80.8 -64.35 -91.65 -63.95 -94.95 -64.5 Q-97.0 -66.05 -97.0 -67.75 -97.0 -69.25 -96.0 -70.15 L-96.05 -70.25 Q-96.45 -72.0 -96.0 -73.95 -96.0 -86.25 -84.1 -95.9 -74.75 -103.6 -61.05 -107.4 -56.2 -107.8 -52.15 -109.4 -41.7 -111.2 -33.45 -109.55 -32.9 -109.15 -32.2 -108.8 L-32.4 -109.6 Q-29.05 -106.55 -24.0 -106.55 L-24.0 -106.25 -24.0 -105.55 Q-20.45 -102.65 -20.05 -98.05 L-18.95 -100.1 Q-17.8 -101.95 -16.2 -103.6 L-15.9 -102.7 Q-14.75 -99.45 -14.0 -98.7 L-12.85 -99.1 -12.35 -99.35 Q-14.5 -100.6 -15.05 -104.5 M9.0 -109.8 Q5.95 -108.8 2.8 -108.2 L-0.9 -107.4 -2.75 -107.35 -4.15 -107.1 -5.3 -106.7 -6.0 -106.0 -6.7 -105.3 -7.15 -104.6 -7.35 -103.9 -7.4 -103.25 -7.4 -102.55 -7.4 -102.35 -8.0 -101.9 -7.4 -101.55 -7.35 -101.15 -7.15 -100.45 -6.95 -99.75 -6.45 -99.1 -5.75 -98.4 -4.95 -97.7 -3.9 -96.55 -1.85 -94.45 -0.45 -93.05 -0.05 -92.35 0.3 -91.7 0.7 -90.95 2.1 -89.55 3.45 -88.2 4.15 -87.5 4.6 -86.75 4.9 -86.1 5.35 -85.4 7.4 -83.3 8.8 -81.95 9.5 -81.25 Q12.4 -79.35 15.45 -77.6 L22.0 -73.6 Q23.95 -72.9 25.75 -71.9 28.0 -70.7 30.55 -70.35 39.35 -65.6 48.9 -65.05 L61.85 -62.7 73.15 -60.15 73.85 -59.75 Q74.55 -59.35 75.25 -59.05 L76.85 -58.3 78.05 -57.7 81.7 -56.25 83.1 -54.85 83.8 -54.15 84.5 -53.45 85.2 -52.75 85.9 -52.1 86.8 -51.4 88.9 -50.9 89.7 -51.05 90.0 -50.65 90.5 -50.0 90.75 -49.3 90.95 -48.6 91.25 -47.95 91.65 -47.2 92.4 -46.55 93.3 -45.8 95.35 -45.35 96.75 -45.65 97.45 -45.8 97.95 -46.25 98.8 -47.05 99.3 -47.65 99.55 -48.35 99.75 -49.05 100.0 -49.75 100.0 -51.15 100.0 -51.85 99.95 -52.55 99.75 -53.25 99.35 -53.95 99.1 -54.6 97.7 -56.0 97.0 -56.7 96.3 -57.4 96.0 -58.05 95.3 -59.2 95.1 -59.7 94.7 -60.45 94.45 -61.1 93.85 -61.85 93.5 -62.5 93.3 -63.2 93.05 -63.9 92.6 -64.55 92.1 -65.25 91.45 -65.95 91.15 -66.65 90.75 -67.35 90.25 -68.0 89.6 -68.75 89.3 -69.4 88.9 -70.15 88.4 -70.8 87.75 -71.5 87.45 -72.2 87.1 -72.95 86.75 -73.6 86.4 -74.3 86.1 -75.0 84.7 -76.4 83.35 -77.75 82.65 -78.45 82.0 -79.2 81.5 -79.85 81.25 -80.55 81.0 -81.25 80.75 -81.9 80.35 -82.65 79.65 -83.3 79.2 -84.05 78.9 -84.7 78.45 -85.4 77.8 -86.1 77.35 -86.8 77.05 -87.45 76.6 -88.2 75.7 -88.9 74.75 -89.55 74.3 -90.25 73.1 -91.65 71.75 -93.05 70.35 -94.45 69.7 -95.15 68.3 -96.5 67.5 -97.85 66.35 -99.2 64.3 -100.65 62.95 -101.3 60.9 -102.05 59.25 -103.2 56.0 -105.25 54.65 -106.0 51.85 -107.4 51.1 -108.05 50.0 -108.8 41.5 -110.85 29.65 -112.55 25.0 -112.95 Q17.0 -112.35 9.0 -109.8 M-20.95 -104.9 L-19.9 -104.55 Q-20.75 -104.0 -22.0 -104.0 -22.35 -104.0 -23.4 -106.55 L-23.3 -106.55 Q-22.35 -105.55 -21.05 -104.95 L-21.0 -104.9 -20.95 -104.9 M-46.75 -106.25 L-47.9 -105.8 -50.25 -105.1 -51.15 -104.35 -51.85 -103.7 -52.0 -103.45 Q-58.75 -103.05 -64.35 -100.7 L-70.25 -98.75 Q-75.2 -97.05 -78.45 -92.8 L-80.1 -92.35 -80.75 -92.05 -81.5 -91.65 -82.15 -90.95 -86.35 -86.8 -88.4 -84.7 Q-88.9 -83.3 -89.65 -82.0 L-91.15 -79.15 -91.65 -77.75 -91.65 -77.05 -91.6 -75.0 -91.4 -73.6 -91.2 -72.9 -90.7 -72.25 -90.0 -71.55 -89.1 -70.8 -87.0 -70.6 Q-87.0 -70.1 -87.3 -69.35 -83.75 -68.2 -77.6 -68.2 -54.9 -68.2 -31.75 -85.2 L-26.6 -89.05 -26.4 -89.1 -25.5 -89.6 -24.55 -90.3 -23.85 -90.95 -23.15 -91.65 -23.05 -91.85 -20.95 -93.6 -21.0 -94.5 -21.0 -94.75 -21.55 -94.3 -22.25 -93.85 -22.2 -94.45 -22.2 -95.15 -22.5 -95.8 -22.85 -96.55 -23.15 -97.2 -26.75 -100.1 -28.95 -102.05 -29.65 -102.75 -30.35 -103.4 -31.5 -104.15 -33.3 -104.75 Q-36.4 -106.0 -39.8 -106.15 L-45.35 -106.45 -45.4 -106.35 -46.75 -106.25 M21.5 86.4 L20.65 85.85 Q20.3 84.0 20.3 83.0 20.3 77.4 22.2 77.25 23.85 77.1 26.35 80.95 28.75 84.6 30.5 89.6 32.4 94.9 32.4 98.55 32.4 109.65 25.45 119.35 L18.0 129.3 Q12.95 136.25 9.0 143.45 L-5.25 169.8 Q-14.5 187.0 -14.7 187.0 L-16.0 186.9 Q-16.8 189.65 -18.7 190.45 L-18.9 188.65 -21.05 170.6 -21.25 169.9 Q-21.55 168.5 -22.0 167.15 L-22.85 164.35 -23.15 162.95 -24.9 159.6 Q-26.5 156.5 -27.65 153.2 L-28.95 150.25 -28.7 150.0 -28.4 149.35 -28.05 148.6 -27.85 147.9 -27.75 147.25 Q-27.75 146.15 -28.2 145.15 L-30.3 140.25 -31.7 137.5 -32.0 136.15 Q-33.3 131.7 -35.65 127.8 -37.55 124.6 -39.6 121.55 L-40.25 120.85 -40.95 120.15 -41.65 119.45 -41.95 118.8 -42.75 117.35 -43.1 116.7 -43.5 116.0 -43.5 115.3 -43.5 114.6 -43.75 113.9 -44.0 113.2 -44.2 112.5 -44.45 111.8 -44.45 108.35 -44.65 102.1 Q-44.85 99.8 -43.75 97.9 -43.35 96.25 -43.45 94.45 L-43.5 91.65 -43.5 90.3 -43.3 89.6 -43.05 88.9 -42.8 88.2 -42.6 87.5 -42.6 86.8 -42.55 86.15 -42.3 85.45 -41.9 84.75 -41.75 83.35 -41.6 81.25 -41.35 79.9 -40.95 79.2 -40.8 78.45 -40.75 76.4 -40.75 75.0 -40.75 74.3 -40.25 73.6 -39.8 72.95 -39.4 72.2 -39.1 71.55 -38.95 70.85 -38.9 69.45 -38.9 69.05 -38.4 68.9 Q-36.1 68.65 -36.1 74.3 L-38.7 82.3 Q-41.3 89.9 -41.3 96.9 -41.3 104.25 -37.3 113.45 L-28.45 130.85 Q-22.5 142.45 -19.65 151.6 -18.45 155.5 -17.6 159.45 L-17.6 159.5 -17.5 160.9 -17.35 161.6 -17.15 162.3 -17.0 162.5 -16.35 166.65 -15.3 164.15 -15.05 164.35 -12.95 164.8 -11.55 164.6 -10.65 164.1 -9.8 163.4 -9.25 162.75 -8.85 162.0 -7.5 159.2 -6.45 157.2 -5.8 155.8 -5.1 155.05 -4.65 154.4 -4.15 153.7 -3.95 153.0 -3.7 152.3 -3.45 151.65 -2.8 150.95 -2.5 150.25 -2.1 149.55 -1.9 148.85 -1.85 148.15 -1.15 147.45 -0.75 146.75 -0.4 146.1 0.0 145.4 0.7 144.7 1.1 143.95 1.45 143.3 1.85 142.6 Q3.6 141.2 4.55 139.2 L6.85 134.2 8.35 131.5 9.05 130.8 9.45 130.1 9.75 129.45 10.2 128.7 10.9 128.0 11.3 127.3 11.6 126.65 12.05 125.95 13.4 124.5 13.9 123.85 14.3 123.15 14.6 122.45 15.3 121.75 17.95 118.9 18.9 117.55 19.2 116.9 Q20.5 115.75 21.25 114.2 L22.5 111.35 23.15 109.95 23.2 109.3 Q23.25 108.9 23.45 108.6 L23.85 107.9 24.0 107.2 24.1 105.1 24.15 103.7 24.35 103.05 24.75 102.3 24.95 101.6 25.0 100.95 25.0 100.25 25.25 99.55 25.45 98.85 25.7 98.15 25.95 97.45 25.95 96.75 25.95 95.4 25.95 94.7 25.85 94.0 25.7 93.3 25.05 91.9 24.7 91.25 24.35 90.5 24.1 89.8 23.4 89.1 22.9 88.45 22.5 87.7 22.2 87.05 21.5 86.4" fill="#000000" fill-rule="evenodd" stroke="none"/>
    <path d="M-15.05 -104.5 Q-14.5 -100.6 -12.35 -99.35 L-12.85 -99.1 -14.0 -98.7 Q-14.75 -99.45 -15.9 -102.7 L-16.2 -103.6 -16.35 -104.1 -15.05 -104.5 M34.95 -117.8 L34.9 -117.4 34.25 -115.95 34.3 -115.75 33.8 -115.55 33.95 -116.25 34.0 -118.35 35.0 -118.55 34.95 -117.8 M-20.95 -104.9 L-21.0 -104.9 -21.05 -104.95 -20.95 -104.9" fill="#00b5ff" fill-rule="evenodd" stroke="none"/>
  </g>
</svg>
