<?xml version="1.0" encoding="UTF-8" standalone="no"?>
<svg xmlns:ffdec="https://www.free-decompiler.com/flash" xmlns:xlink="http://www.w3.org/1999/xlink" ffdec:objectType="shape" height="266.25px" width="157.15px" xmlns="http://www.w3.org/2000/svg">
  <g transform="matrix(1.0, 0.0, 0.0, 1.0, 81.3, 108.95)">
    <path d="M10.85 -108.2 Q13.85 -106.85 13.85 -103.55 13.85 -101.7 10.45 -97.65 6.95 -93.45 5.1 -93.45 0.4 -93.45 -2.95 -97.45 -5.45 -100.4 -5.45 -101.75 -5.45 -104.2 -2.45 -106.25 0.35 -108.15 4.2 -108.75 8.2 -109.35 10.85 -108.2 M75.15 -95.9 Q75.85 -94.95 75.85 -93.45 75.85 -92.6 67.5 -87.6 59.45 -82.85 55.65 -81.2 L55.5 -81.4 Q55.3 -81.25 55.3 -79.8 55.3 -79.35 60.05 -75.0 64.8 -70.65 64.8 -68.75 64.8 -66.0 64.1 -64.6 62.8 -61.95 59.1 -61.95 51.65 -61.95 44.35 -66.6 38.0 -70.65 38.0 -73.0 38.0 -75.05 41.65 -78.1 L37.7 -83.15 Q36.1 -85.25 36.1 -86.9 36.1 -99.0 52.35 -99.75 60.5 -100.1 68.85 -98.05 73.55 -98.05 75.15 -95.9 M24.85 98.85 L24.7 100.3 Q23.8 103.65 20.3 103.65 18.25 103.65 16.7 102.25 L12.9 103.65 Q0.25 108.3 -0.8 108.3 -4.9 108.3 -9.85 106.4 -14.75 104.5 -19.8 104.5 L-26.55 103.6 -33.35 102.7 Q-38.7 102.7 -40.15 100.15 -40.6 99.3 -40.6 96.65 -40.6 82.5 -38.9 78.95 -37.5 75.95 -33.3 78.6 L-22.8 85.7 Q-14.75 90.25 -6.65 90.25 L13.4 85.1 Q14.8 85.1 16.9 86.95 18.0 85.95 19.4 85.95 21.6 86.0 23.15 88.55 24.9 91.4 24.9 96.15 L24.9 96.65 25.85 98.05 24.85 98.85 M-30.0 -101.4 Q-27.55 -100.85 -25.85 -98.7 -23.95 -96.25 -23.95 -92.7 -23.95 -89.6 -24.45 -88.1 -25.5 -85.1 -28.6 -85.1 -33.3 -85.1 -35.15 -90.5 -36.1 -93.2 -36.1 -96.05 -36.1 -99.15 -34.2 -100.6 -32.45 -101.95 -30.0 -101.4 M-60.55 -71.0 Q-63.25 -68.4 -65.65 -68.4 -76.65 -68.4 -80.0 -78.15 -81.3 -81.85 -81.3 -89.3 -81.3 -95.95 -77.7 -97.6 -74.4 -99.1 -69.7 -96.2 -65.0 -93.3 -61.75 -87.7 -58.15 -81.55 -58.15 -74.8 -58.15 -73.4 -60.55 -71.0 M-24.2 131.25 Q-21.9 130.75 -18.4 133.8 -15.1 136.7 -12.65 141.05 -10.05 145.7 -10.05 149.35 -10.05 152.85 -10.55 154.35 -11.55 157.3 -14.7 157.3 -21.75 157.3 -24.95 147.85 -26.8 142.25 -26.8 137.0 -26.8 131.8 -24.2 131.25" fill="#8adcff" fill-rule="evenodd" stroke="none"/>
  </g>
</svg>
