<?xml version="1.0" encoding="UTF-8" standalone="no"?>
<svg xmlns:ffdec="https://www.free-decompiler.com/flash" xmlns:xlink="http://www.w3.org/1999/xlink" ffdec:objectType="shape" height="165.65px" width="561.15px" xmlns="http://www.w3.org/2000/svg">
  <g transform="matrix(1.0, 0.0, 0.0, 1.0, 257.35, 80.2)">
    <path d="M76.65 -65.95 Q83.05 -59.75 86.85 -52.75 90.55 -45.85 92.75 -36.5 97.2 -18.8 97.2 0.4 97.2 43.4 82.6 63.3 68.1 83.15 32.5 83.2 12.6 83.15 0.3 76.85 -12.05 70.55 -19.85 58.25 -25.6 49.5 -28.7 34.45 L-29.9 27.8 -29.9 84.5 -74.3 84.5 -74.3 -20.85 Q-85.15 -12.7 -95.1 -7.6 -103.65 -3.35 -115.8 0.7 L-85.3 81.85 -136.35 81.85 -144.4 55.75 -199.85 55.75 -207.45 81.85 -257.35 81.85 -198.0 -76.15 -144.65 -76.15 -120.4 -11.6 -120.4 -33.85 Q-98.0 -41.1 -85.7 -51.2 -73.3 -61.35 -66.25 -76.25 L-29.9 -76.25 -29.9 -27.45 Q-26.25 -50.55 -15.7 -62.15 0.5 -80.2 33.75 -80.2 49.6 -80.2 59.95 -76.2 70.2 -72.3 76.65 -65.95 M16.5 -39.85 Q11.65 -28.95 11.65 0.95 11.65 31.2 16.95 42.25 22.25 53.3 32.35 53.3 39.15 53.3 44.1 48.7 48.9 43.85 51.35 33.75 53.5 23.65 53.5 2.15 53.5 -29.25 48.25 -40.05 42.8 -51.0 32.25 -51.0 21.35 -51.0 16.5 -39.85 M299.5 40.5 Q303.8 45.0 303.8 54.65 L303.8 84.35 285.55 84.35 285.55 57.4 Q285.55 54.15 284.35 52.65 282.45 50.2 279.75 50.2 276.6 50.15 274.65 52.5 272.7 54.75 272.7 59.9 L272.7 84.35 254.55 84.35 254.55 58.3 Q254.5 55.15 254.15 54.1 253.55 52.25 252.15 51.25 250.75 50.1 248.85 50.1 245.65 50.05 243.65 52.45 241.65 54.8 241.65 60.2 L241.65 84.35 223.45 84.35 223.45 37.0 240.35 37.0 240.35 43.95 Q244.0 39.6 247.8 37.75 251.5 35.95 256.75 35.95 262.4 35.95 265.75 37.95 269.05 39.95 271.15 43.95 275.4 39.25 278.9 37.65 282.4 35.95 287.6 35.95 295.2 35.95 299.5 40.5 M192.55 35.95 Q206.75 35.95 213.95 44.2 219.8 50.85 219.8 60.55 219.8 71.45 212.6 78.45 205.35 85.45 192.55 85.45 181.1 85.45 174.1 79.65 165.4 72.45 165.45 60.85 165.4 50.0 172.75 43.0 180.05 35.95 192.55 35.95 M186.2 70.15 Q188.75 73.15 192.6 73.15 196.55 73.15 199.1 70.2 201.6 67.2 201.6 60.6 201.6 54.45 199.05 51.45 196.5 48.4 192.75 48.4 188.8 48.4 186.2 51.5 183.65 54.55 183.65 60.8 183.65 67.1 186.2 70.15 M137.45 35.95 Q149.0 35.95 155.15 40.1 161.15 44.25 163.65 52.25 L146.6 54.5 Q145.75 51.45 143.7 49.95 141.55 48.35 138.0 48.35 133.45 48.35 130.7 51.6 127.9 54.8 127.9 61.35 127.9 67.2 130.65 70.25 133.4 73.25 137.7 73.25 141.25 73.25 143.75 71.4 146.15 69.6 147.35 65.8 L164.6 67.75 Q163.15 73.15 159.9 77.1 156.65 81.05 151.6 83.25 146.5 85.45 138.75 85.45 131.15 85.45 126.2 84.05 121.2 82.6 117.6 79.5 113.95 76.3 111.95 72.1 109.85 67.85 109.85 60.9 109.85 53.6 112.35 48.75 114.15 45.2 117.35 42.35 120.45 39.5 123.85 38.15 129.15 35.95 137.45 35.95 M88.25 66.2 L107.65 66.2 107.65 84.35 88.25 84.35 88.25 66.2 M-154.55 21.6 L-171.9 -35.2 -189.25 21.6 -154.55 21.6" fill="url(#gradient0)" fill-rule="evenodd" stroke="none"/>
  </g>
  <defs>
    <radialGradient cx="0" cy="0" gradientTransform="matrix(0.6819, 0.0, 0.0, 0.6819, 301.2, 76.05)" gradientUnits="userSpaceOnUse" id="gradient0" r="819.2" spreadMethod="pad">
      <stop offset="0.5215686274509804" stop-color="#333333"/>
      <stop offset="1.0" stop-color="#666666"/>
    </radialGradient>
  </defs>
</svg>
