<?xml version="1.0" encoding="UTF-8" standalone="no"?>
<svg xmlns:ffdec="https://www.free-decompiler.com/flash" xmlns:xlink="http://www.w3.org/1999/xlink" ffdec:objectType="shape" height="83.4px" width="77.95px" xmlns="http://www.w3.org/2000/svg">
  <g transform="matrix(1.0, 0.0, 0.0, 1.0, 40.0, 42.0)">
    <path d="M16.95 -41.65 Q17.8 -41.35 18.35 -40.65 23.25 -32.5 27.5 -23.95 30.85 -17.25 33.5 -10.25 L33.45 -9.9 33.45 -9.85 33.9 -9.35 Q38.25 -0.05 37.9 9.8 37.4 21.8 28.85 30.8 21.15 38.9 9.55 40.8 -5.1 43.1 -18.95 36.85 -26.5 33.35 -30.95 26.8 L-30.9 26.8 Q-34.1 20.65 -34.8 13.85 -35.6 6.25 -34.2 -0.85 L-34.25 -0.9 -34.4 -1.25 -34.65 -1.65 -34.9 -2.0 -35.0 -2.4 -35.0 -2.75 -35.0 -3.15 -35.5 -4.65 -36.0 -6.15 -36.5 -7.65 -36.9 -8.75 -37.0 -9.15 -37.0 -9.5 -37.0 -9.9 -37.25 -10.25 -37.35 -10.65 -37.55 -11.35 -37.7 -11.75 -38.0 -12.5 -38.0 -17.4 -38.0 -22.65 -38.0 -28.65 -38.0 -31.65 -38.15 -32.0 -38.25 -32.4 -38.4 -32.75 -38.5 -33.15 -38.5 -33.5 -38.5 -33.9 -38.5 -34.25 -38.5 -34.65 -38.75 -35.4 -39.15 -36.5 -39.45 -37.25 -39.9 -38.0 -40.0 -38.4 -40.0 -38.75 -40.0 -39.15 -40.0 -39.5 -39.9 -39.9 -39.7 -40.2 -39.4 -40.65 -39.0 -41.0 -38.65 -41.25 -38.25 -41.35 -37.5 -41.45 -37.5 -41.5 Q-27.85 -38.9 -18.65 -34.75 -15.4 -33.3 -12.2 -31.45 L-8.65 -29.45 -6.9 -29.7 0.05 -30.05 0.45 -29.8 0.8 -29.55 0.75 -29.55 1.15 -29.2 1.25 -29.15 4.45 -28.3 4.45 -28.35 Q4.4 -29.15 4.6 -29.9 L5.15 -30.6 6.25 -31.75 7.0 -32.5 Q7.5 -33.85 8.35 -35.05 L10.5 -38.5 12.1 -39.85 14.35 -41.75 14.75 -41.85 15.5 -41.95 15.5 -42.0 16.95 -41.65 M22.7 -20.7 L22.1 -21.5 Q21.7 -23.35 20.75 -25.0 19.6 -26.95 18.6 -29.0 L18.25 -30.05 17.4 -31.95 16.85 -33.15 16.5 -33.5 16.1 -33.9 15.75 -34.25 15.6 -34.65 15.5 -35.0 15.0 -35.4 14.65 -35.1 14.25 -34.75 13.85 -34.4 13.2 -32.85 11.8 -30.55 11.35 -29.9 10.65 -29.1 10.1 -28.4 9.6 -27.65 9.5 -27.25 9.5 -26.9 9.5 -26.65 15.55 -24.3 22.6 -20.45 23.1 -20.1 22.7 -20.7 M-22.45 -16.1 L-21.9 -15.6 Q-31.2 -3.85 -30.2 11.85 -29.6 22.6 -21.0 29.85 -18.7 31.7 -15.9 32.95 -8.4 36.15 -0.2 36.65 19.45 37.8 28.45 22.8 36.9 8.7 29.45 -6.95 L29.4 -7.0 29.0 -7.55 28.9 -7.65 28.5 -8.0 28.25 -8.4 28.15 -8.7 Q23.6 -14.4 17.2 -18.15 6.7 -24.35 -5.3 -24.45 L-5.5 -24.15 -5.8 -23.8 -6.25 -23.4 -6.75 -23.15 -7.5 -23.0 -8.65 -23.25 -9.55 -23.8 -14.25 -22.35 -14.35 -22.3 -15.05 -21.7 -15.1 -22.0 -16.15 -27.45 -19.75 -29.85 -20.0 -30.0 -23.05 -30.8 Q-24.4 -31.2 -25.5 -32.0 -27.65 -32.45 -29.6 -33.35 L-32.4 -34.65 -32.75 -34.75 -33.5 -34.75 -33.45 -34.4 -33.3 -34.0 -33.15 -33.65 -33.0 -33.25 -33.0 -28.4 -33.0 -23.15 -33.0 -17.5 -33.0 -14.5 -32.85 -14.15 -32.65 -13.75 -32.5 -13.4 -32.5 -13.0 -32.5 -12.65 -32.4 -12.25 -32.15 -11.5 -31.9 -10.75 -31.65 -10.0 -31.5 -9.7 -31.45 -9.9 Q-30.05 -13.3 -28.05 -16.55 L-28.05 -16.6 -27.95 -16.7 -28.15 -16.75 -28.6 -17.15 -29.0 -17.5 -28.4 -22.3 Q-27.0 -20.4 -22.45 -16.1" fill="#000000" fill-rule="evenodd" stroke="none"/>
    <path d="M-15.1 -22.0 L-15.05 -21.7 -14.35 -22.3 -14.25 -22.35 -9.55 -23.8 -8.65 -23.25 -7.5 -23.0 -6.75 -23.15 -6.25 -23.4 -5.8 -23.8 -5.5 -24.15 -5.3 -24.45 Q6.7 -24.35 17.2 -18.15 23.6 -14.4 28.15 -8.7 L28.25 -8.4 28.5 -8.0 28.9 -7.65 29.0 -7.55 29.4 -7.0 29.45 -6.95 Q36.9 8.7 28.45 22.8 19.45 37.8 -0.2 36.65 -8.4 36.15 -15.9 32.95 -18.7 31.7 -21.0 29.85 -29.6 22.6 -30.2 11.85 -31.2 -3.85 -21.9 -15.6 L-22.45 -16.1 -19.5 -18.75 -15.1 -22.0" fill="#b1e34d" fill-rule="evenodd" stroke="none"/>
    <path d="M22.6 -20.45 L15.55 -24.3 9.5 -26.65 9.5 -26.9 9.5 -27.25 9.6 -27.65 10.1 -28.4 10.65 -29.1 11.35 -29.9 11.8 -30.55 13.2 -32.85 13.85 -34.4 14.25 -34.75 14.65 -35.1 15.0 -35.4 15.5 -35.0 15.6 -34.65 15.75 -34.25 16.1 -33.9 16.5 -33.5 16.85 -33.15 17.4 -31.95 18.25 -30.05 18.6 -29.0 Q19.6 -26.95 20.75 -25.0 21.7 -23.35 22.1 -21.5 L22.7 -20.7 22.6 -20.45 M-15.1 -22.0 L-19.5 -18.75 -22.45 -16.1 Q-27.0 -20.4 -28.4 -22.3 L-29.0 -17.5 -28.6 -17.15 -28.15 -16.75 -28.05 -16.6 -28.05 -16.55 Q-30.05 -13.3 -31.45 -9.9 L-31.65 -10.0 -31.9 -10.75 -32.15 -11.5 -32.4 -12.25 -32.5 -12.65 -32.5 -13.0 -32.5 -13.4 -32.65 -13.75 -32.85 -14.15 -33.0 -14.5 -33.0 -17.5 -33.0 -23.15 -33.0 -28.4 -33.0 -33.25 -33.15 -33.65 -33.3 -34.0 -33.45 -34.4 -33.5 -34.75 -32.75 -34.75 -32.4 -34.65 -29.6 -33.35 Q-27.65 -32.45 -25.5 -32.0 -24.4 -31.2 -23.05 -30.8 L-20.0 -30.0 -19.75 -29.85 -16.15 -27.45 -15.1 -22.0" fill="#cc3300" fill-rule="evenodd" stroke="none"/>
    <path d="M-11.0 -2.4 Q-1.15 -0.35 7.95 4.4 L13.6 7.2 Q19.25 9.9 25.5 9.75 L26.75 10.75 26.35 11.85 20.25 12.25 Q18.5 17.6 14.05 20.65 11.85 22.2 9.05 22.55 0.7 24.0 -5.75 18.55 -6.8 17.7 -7.4 16.5 -9.75 11.7 -9.3 6.35 L-8.5 0.6 -10.35 0.65 -11.05 0.3 -11.75 -0.25 -11.6 -2.1 -11.0 -2.4 M-5.9 1.6 Q-7.9 7.5 -5.85 13.25 L-5.75 14.0 -5.25 14.75 -5.25 15.5 Q-0.5 21.05 6.95 20.15 10.65 19.85 13.6 17.65 L10.25 16.0 10.75 13.5 12.25 13.0 11.25 11.85 11.25 10.75 12.9 9.3 -5.5 1.25 -5.9 1.6 M-17.0 20.25 Q-9.45 25.85 -0.1 27.6 L18.9 28.15 27.55 26.7 Q29.0 26.35 29.95 27.4 L30.1 28.5 21.6 31.0 22.75 33.25 Q16.75 36.75 9.5 36.25 L8.25 34.85 8.6 34.1 20.65 30.85 Q7.4 32.35 -5.55 28.55 L-11.0 34.15 Q-14.45 31.8 -15.0 27.65 -15.1 27.05 -15.35 26.5 L-15.6 25.05 -15.5 24.25 -18.25 21.35 -17.0 20.25 M-10.75 30.15 L-9.5 29.75 -8.1 27.85 -12.45 26.3 -10.75 30.15 M32.45 8.3 L36.0 6.25 37.45 6.9 37.6 8.0 36.1 9.0 Q36.2 10.7 35.8 12.3 34.55 17.8 32.1 22.75 31.6 23.75 30.5 24.15 L28.95 23.6 28.25 22.5 28.25 21.75 27.75 21.0 29.0 11.75 28.25 11.45 27.75 10.35 28.5 9.35 29.9 9.2 31.5 7.75 32.45 8.3 M30.25 19.85 L31.75 16.75 30.75 17.0 30.25 18.5 30.25 19.85 M16.25 10.75 L14.8 10.15 Q16.25 11.85 15.8 13.85 L15.35 15.85 17.35 12.35 16.25 10.75" fill="#000000" fill-rule="evenodd" stroke="none"/>
    <path d="M-5.9 1.6 L-5.5 1.25 12.9 9.3 11.25 10.75 11.25 11.85 12.25 13.0 10.75 13.5 10.25 16.0 13.6 17.65 Q10.65 19.85 6.95 20.15 -0.5 21.05 -5.25 15.5 L-5.25 14.75 -5.75 14.0 -5.85 13.25 Q-7.9 7.5 -5.9 1.6 M-10.75 30.15 L-12.45 26.3 -8.1 27.85 -9.5 29.75 -10.75 30.15 M16.25 10.75 L17.35 12.35 15.35 15.85 15.8 13.85 Q16.25 11.85 14.8 10.15 L16.25 10.75 M30.25 19.85 L30.25 18.5 30.75 17.0 31.75 16.75 30.25 19.85" fill="#ffffff" fill-rule="evenodd" stroke="none"/>
  </g>
</svg>
