<?xml version="1.0" encoding="UTF-8" standalone="no"?>
<svg xmlns:ffdec="https://www.free-decompiler.com/flash" xmlns:xlink="http://www.w3.org/1999/xlink" ffdec:objectType="shape" height="83.75px" width="33.6px" xmlns="http://www.w3.org/2000/svg">
  <g transform="matrix(1.0, 0.0, 0.0, 1.0, 7.7, -79.35)">
    <path d="M-1.6 157.7 L-1.9 157.6 -1.7 157.25 -1.6 157.7" fill="#ff0200" fill-rule="evenodd" stroke="none"/>
    <path d="M-1.9 157.6 Q-3.7 156.8 -4.1 154.3 L-4.1 150.7 Q-4.1 146.4 -2.65 137.6 L-0.5 126.7 1.5 120.65 3.3 114.7 Q4.7 108.85 6.9 107.95 L6.9 104.35 7.1 100.75 7.1 89.8 Q7.05 83.65 10.65 83.45 L12.0 83.65 11.9 84.8 12.5 90.0 13.1 95.9 12.5 103.65 Q11.9 109.75 11.9 111.95 L11.95 114.8 Q12.45 117.5 15.1 117.5 L15.8 117.3 16.7 119.8 Q16.7 120.75 16.2 121.6 15.5 122.95 13.85 123.1 13.7 122.3 13.1 121.55 12.25 120.45 11.15 120.25 10.2 120.1 9.4 120.6 L8.75 119.35 7.95 122.05 Q7.05 123.4 6.3 125.9 L4.6 131.3 3.2 136.4 0.4 147.8 Q-1.7 156.15 -1.7 157.25 L-1.9 157.6" fill="#00c3ff" fill-rule="evenodd" stroke="none"/>
    <path d="M1.1 160.7 Q-0.8 160.45 -1.4 159.05 L-1.6 157.7 -1.7 157.25 Q-1.7 156.15 0.4 147.8 L3.2 136.4 4.6 131.3 6.3 125.9 Q7.05 123.4 7.95 122.05 8.6 121.0 9.4 120.6 10.2 120.1 11.15 120.25 12.25 120.45 13.1 121.55 13.7 122.3 13.85 123.1 L13.85 123.15 14.75 123.3 Q16.3 123.85 16.3 126.55 16.3 127.75 13.7 131.5 11.85 134.2 10.6 135.1 9.1 140.3 8.7 142.8 L7.3 152.9 Q5.55 160.7 1.7 160.7 L1.1 160.7 M12.0 83.65 Q12.3 80.85 14.2 79.65 15.95 78.55 17.35 81.6 L18.4 85.0 Q19.1 87.15 19.5 95.95 19.5 100.65 18.7 107.2 17.65 115.95 15.8 117.3 L15.1 117.5 Q12.45 117.5 11.95 114.8 L11.9 111.95 Q11.9 109.75 12.5 103.65 L13.1 95.9 12.5 90.0 11.9 84.8 12.0 83.65" fill="#009cdf" fill-rule="evenodd" stroke="none"/>
    <path d="M17.35 81.6 L18.0 81.6 Q21.7 82.2 21.9 86.9 22.55 88.15 23.05 91.4 L23.5 96.35 Q23.5 101.25 21.9 112.7 20.6 121.8 19.05 125.6 L20.5 126.75 Q23.9 130.3 23.9 133.55 23.9 136.3 22.6 139.7 20.7 144.7 17.3 144.7 15.3 144.7 14.4 143.2 L14.3 143.0 13.7 144.9 Q7.6 162.3 3.9 162.3 1.8 162.3 1.1 160.7 L1.7 160.7 Q5.55 160.7 7.3 152.9 L8.7 142.8 Q9.1 140.3 10.6 135.1 11.85 134.2 13.7 131.5 16.3 127.75 16.3 126.55 16.3 123.85 14.75 123.3 L13.85 123.15 13.85 123.1 Q15.5 122.95 16.2 121.6 16.7 120.75 16.7 119.8 L15.8 117.3 Q17.65 115.95 18.7 107.2 19.5 100.65 19.5 95.95 19.1 87.15 18.4 85.0 L17.35 81.6 M5.1 106.7 Q3.45 112.3 1.1 112.3 -1.1 112.3 -1.8 110.5 L-2.1 108.55 -1.1 104.3 Q-0.15 100.45 -0.1 99.4 0.2 93.7 3.25 95.65 6.3 97.55 6.3 100.4 6.3 102.55 5.1 106.7" fill="#007bb0" fill-rule="evenodd" stroke="none"/>
    <path d="M20.2 82.1 L20.5 82.0 21.1 82.0 21.1 81.9 21.5 81.9 22.3 82.1 22.8 82.4 23.1 82.7 23.2 83.0 23.4 83.3 23.5 83.6 23.5 83.9 23.5 84.2 23.5 84.5 23.5 84.8 23.5 85.1 23.5 85.4 23.5 85.7 23.5 86.0 23.5 86.3 23.6 86.6 23.8 86.9 23.9 87.2 23.9 87.5 23.9 87.8 23.9 88.1 23.9 88.4 23.9 88.7 23.9 89.0 23.9 89.3 23.9 89.6 23.9 89.9 24.0 90.2 24.2 90.5 24.3 90.8 24.3 91.1 24.3 91.4 24.3 91.7 24.3 92.0 24.3 92.3 24.3 92.6 24.3 92.9 24.3 93.2 24.5 93.5 24.6 93.8 24.7 94.1 24.7 94.4 24.7 94.7 24.7 95.0 24.7 95.3 24.7 95.6 24.7 95.9 24.7 96.2 24.8 96.5 24.9 96.8 25.0 97.1 25.1 97.4 25.1 97.7 25.1 98.0 25.1 98.3 25.1 98.6 25.1 98.9 25.0 99.2 24.9 99.5 24.7 99.8 24.7 100.1 24.7 100.4 24.7 100.7 24.8 101.0 25.0 101.3 25.1 101.6 25.1 101.9 25.1 102.2 25.1 102.5 25.1 102.8 25.1 103.1 25.1 103.4 25.1 103.7 25.1 104.0 25.1 104.3 25.1 104.6 25.1 104.9 25.1 105.2 25.1 105.5 25.1 105.8 25.1 106.1 25.1 106.4 25.1 106.7 25.1 107.0 25.1 107.3 25.1 107.6 25.1 107.9 25.1 108.2 25.1 108.5 25.1 108.8 25.1 109.1 25.1 109.4 25.1 109.7 25.1 110.0 25.1 110.3 25.1 110.6 25.1 110.9 25.1 111.2 25.1 111.5 25.1 111.8 25.1 112.1 25.1 112.4 25.1 112.7 25.1 113.0 25.1 113.3 25.1 113.6 25.1 113.9 25.1 114.2 25.0 114.5 24.8 114.8 24.7 115.1 24.7 115.4 24.7 115.7 24.6 116.0 24.5 116.3 24.4 116.6 24.3 116.9 24.2 117.2 24.1 117.5 23.9 117.8 23.9 118.1 23.9 118.4 23.8 118.7 23.7 119.0 23.6 119.3 23.4 119.6 23.3 119.9 23.1 120.2 23.0 120.5 22.9 120.8 22.7 121.1 22.7 121.4 22.6 121.7 22.7 121.7 23.2 122.0 23.5 122.3 23.6 122.6 23.8 122.9 23.9 123.2 23.9 123.5 23.9 123.8 23.9 124.1 23.9 124.4 24.1 124.7 24.2 125.0 24.4 125.3 24.5 125.6 24.6 125.9 24.7 126.2 24.7 126.5 24.7 126.8 24.9 127.1 25.0 127.4 25.1 127.7 25.1 128.0 25.1 128.3 25.1 128.6 25.1 128.9 25.2 129.2 25.3 129.5 25.4 129.8 25.5 130.1 25.5 130.4 25.5 130.7 25.5 131.0 25.6 131.3 25.7 131.6 25.8 131.9 25.9 132.2 25.9 132.5 25.9 132.8 25.9 133.1 25.9 133.4 25.9 133.7 25.9 134.0 25.9 134.3 25.9 134.6 25.9 134.9 25.9 135.2 25.9 135.5 25.9 135.8 25.9 136.1 25.9 136.4 25.9 136.7 25.9 137.0 25.9 137.3 25.9 137.6 25.9 137.9 25.9 138.2 25.9 138.5 25.9 138.8 25.9 139.1 25.9 139.4 25.9 139.7 25.9 140.0 25.9 140.3 25.9 140.6 25.9 140.9 25.9 141.2 25.8 141.5 25.7 141.8 25.6 142.1 25.5 142.4 25.4 142.7 25.3 143.0 25.2 143.3 25.0 143.6 24.7 143.9 24.4 144.2 23.9 144.5 23.4 144.8 23.1 145.1 22.8 145.4 22.3 145.7 21.3 146.0 20.9 146.2 20.3 146.3 15.9 146.3 15.0 146.1 14.75 145.9 14.7 146.0 14.7 146.3 14.7 146.6 14.6 146.9 14.4 147.2 14.3 147.5 14.0 147.8 13.9 148.1 13.8 148.4 13.7 148.7 13.6 149.0 13.5 149.3 13.4 149.6 13.3 149.9 13.1 150.2 13.1 150.5 13.0 150.8 12.9 151.1 12.7 151.4 12.6 151.7 12.4 152.0 12.3 152.3 12.3 152.6 12.2 152.9 12.0 153.2 11.9 153.5 11.8 153.8 11.6 154.1 11.5 154.4 11.3 154.7 11.1 155.0 11.0 155.3 10.8 155.6 10.7 155.9 10.4 156.2 10.3 156.5 10.2 156.8 10.1 157.1 9.9 157.4 9.8 157.7 9.6 158.0 9.5 158.3 9.3 158.6 9.2 158.9 9.0 159.2 8.6 159.5 8.3 159.8 8.1 160.1 7.8 160.4 7.5 160.7 7.2 161.0 6.9 161.3 6.6 161.6 6.2 161.9 6.0 162.1 5.7 162.2 4.9 162.4 4.3 162.7 4.0 162.9 3.7 163.0 3.1 163.1 0.7 163.1 -0.2 162.9 -0.8 162.6 -1.3 162.3 -2.0 162.0 -2.3 161.7 -2.8 161.4 -3.3 161.1 -3.6 160.8 -3.9 160.5 -4.2 160.2 -4.5 159.9 -4.7 159.6 -4.8 159.3 -5.0 159.0 -5.2 158.7 -5.3 158.4 -5.5 158.1 -5.8 157.8 -6.1 157.5 -6.3 157.2 -6.4 156.9 -6.5 156.6 -6.6 156.3 -6.7 156.0 -6.8 155.7 -6.9 155.4 -7.0 155.1 -7.1 154.8 -7.2 154.5 -7.3 154.2 -7.3 153.9 -7.3 153.6 -7.3 153.3 -7.3 153.0 -7.4 152.7 -7.5 152.4 -7.6 152.1 -7.7 151.8 -7.7 151.5 -7.7 151.2 -7.7 150.9 -7.7 150.6 -7.7 150.3 -7.7 150.0 -7.7 149.7 -7.7 149.4 -7.7 149.1 -7.7 148.8 -7.7 148.5 -7.7 148.2 -7.7 147.9 -7.7 147.6 -7.7 147.3 -7.7 147.0 -7.7 146.7 -7.7 146.4 -7.7 146.1 -7.7 145.8 -7.7 145.5 -7.7 145.2 -7.7 144.9 -7.7 144.6 -7.7 144.3 -7.7 144.0 -7.7 143.7 -7.7 143.4 -7.7 143.1 -7.7 142.8 -7.7 142.5 -7.7 142.2 -7.7 141.9 -7.7 141.6 -7.7 141.3 -7.7 141.0 -7.6 140.7 -7.4 140.4 -7.3 140.1 -7.3 139.8 -7.3 139.5 -7.3 139.2 -7.3 138.9 -7.3 138.6 -7.3 138.3 -7.3 138.0 -7.3 137.7 -7.3 137.4 -7.3 137.1 -7.3 136.8 -7.2 136.5 -7.1 136.2 -7.0 135.9 -6.9 135.6 -6.9 135.3 -6.9 135.0 -6.8 134.7 -6.6 134.4 -6.5 134.1 -6.5 133.8 -6.5 133.5 -6.5 133.2 -6.4 132.9 -6.3 132.6 -6.2 132.3 -6.1 132.0 -6.0 131.7 -5.9 131.4 -5.8 131.1 -5.7 130.8 -5.7 130.5 -5.7 130.2 -5.6 129.9 -5.4 129.6 -5.3 129.3 -5.3 129.0 -5.2 128.7 -5.0 128.4 -4.9 128.1 -4.9 127.8 -4.8 127.5 -4.6 127.2 -4.5 126.9 -4.3 126.6 -4.2 126.3 -4.1 126.0 -4.0 125.7 -3.9 125.4 -3.8 125.1 -3.7 124.8 -3.6 124.5 -3.5 124.2 -3.4 123.9 -3.3 123.6 -3.3 123.3 -3.3 123.0 -3.2 122.7 -3.0 122.4 -2.9 122.1 -2.9 121.9 -3.0 121.8 -3.3 121.5 -3.5 121.2 -3.6 120.9 -3.7 120.6 -3.7 120.3 -3.7 120.0 -3.7 119.7 -3.7 119.4 -3.7 119.1 -3.7 118.8 -3.7 118.5 -3.7 118.2 -3.7 117.9 -3.7 117.6 -3.7 117.3 -3.7 117.0 -3.7 116.7 -3.7 116.4 -3.7 116.1 -3.7 115.8 -3.7 115.5 -3.7 115.2 -3.7 114.9 -3.7 114.6 -3.7 114.3 -3.7 114.0 -3.7 113.7 -3.7 113.4 -3.7 113.1 -3.7 112.8 -3.7 112.5 -3.7 112.2 -3.6 111.9 -3.4 111.6 -3.3 111.3 -3.3 111.0 -3.3 110.7 -3.3 110.4 -3.3 110.1 -3.3 109.8 -3.3 109.5 -3.3 109.2 -3.3 108.9 -3.3 108.6 -3.2 108.3 -3.0 108.0 -2.9 107.7 -2.9 107.4 -2.8 107.1 -2.6 106.8 -2.5 106.5 -2.5 106.2 -2.5 105.9 -2.5 105.6 -2.5 105.3 -2.5 105.0 -2.4 104.7 -2.2 104.4 -2.0 104.1 -1.9 103.8 -1.8 103.5 -1.7 103.2 -1.7 102.9 -1.7 102.6 -1.7 102.3 -1.7 102.0 -1.6 101.7 -1.5 101.4 -1.3 101.1 -1.2 100.8 -1.1 100.5 -0.9 100.2 -0.9 99.9 -0.9 99.6 -0.8 99.3 -0.7 99.0 -0.5 98.7 -0.4 98.4 -0.3 98.1 -0.1 97.8 -0.1 97.5 -0.1 97.2 0.0 96.9 0.1 96.6 0.2 96.3 0.3 96.0 0.3 95.7 0.3 95.4 0.4 95.1 0.6 94.8 0.8 94.5 0.9 94.2 1.0 93.9 1.1 93.6 1.2 93.3 1.3 93.0 1.4 92.7 1.5 92.4 1.5 92.1 1.5 91.8 1.6 91.5 1.8 91.2 1.9 90.9 1.9 90.6 1.9 90.3 2.0 90.0 2.1 89.7 2.3 89.4 2.4 89.1 2.6 88.8 2.7 88.5 2.7 88.2 2.8 87.9 3.0 87.6 3.2 87.3 3.3 87.0 3.5 86.7 3.6 86.4 3.7 86.1 4.0 85.8 4.3 85.5 4.6 85.3 4.9 85.2 5.5 85.2 5.5 85.1 5.85 85.2 6.1 84.9 6.4 84.6 6.9 84.4 7.5 84.3 8.3 84.5 8.8 84.8 9.1 85.1 9.2 85.4 9.4 85.7 9.5 86.0 9.5 86.3 9.5 86.6 9.5 86.9 9.5 87.2 9.5 87.5 9.5 87.8 9.5 88.1 9.5 88.4 9.5 88.7 9.5 89.0 9.4 89.3 9.2 89.6 9.1 89.9 9.1 90.2 9.0 90.5 8.8 90.8 8.7 91.1 8.7 91.4 8.7 91.7 8.7 92.0 8.7 92.3 8.7 92.6 8.7 92.9 8.7 93.2 8.7 93.5 8.7 93.8 8.7 94.1 8.7 94.4 8.7 94.7 8.7 95.0 8.6 95.3 8.4 95.6 8.3 95.9 8.3 96.2 8.3 96.5 8.3 96.8 8.3 97.1 8.3 97.4 8.3 97.7 8.3 98.0 8.3 98.3 8.3 98.6 8.3 98.9 8.3 99.2 8.3 99.5 8.3 99.8 8.3 100.1 8.3 100.4 8.3 100.7 8.3 101.0 8.3 101.3 8.3 101.6 8.3 101.9 8.3 102.2 8.3 102.5 8.3 102.8 8.3 103.1 8.3 103.4 8.3 103.7 8.3 104.0 8.3 104.3 8.3 104.6 8.3 104.9 8.3 105.2 8.3 105.5 8.3 105.8 8.3 106.1 8.3 106.4 8.3 106.7 8.3 107.0 8.3 107.3 8.3 107.6 8.5 107.9 8.6 108.2 8.7 108.5 8.7 108.8 8.7 109.1 8.7 109.4 8.7 109.7 8.7 110.0 8.7 110.3 8.7 110.6 8.7 110.9 8.7 111.2 8.7 111.5 8.7 111.8 8.8 112.1 8.9 112.4 9.0 112.7 9.1 113.0 9.1 113.3 9.1 113.6 9.1 113.9 9.1 114.2 9.2 114.5 9.3 114.8 9.4 115.1 9.5 115.4 9.5 115.7 9.5 116.0 9.7 116.3 9.8 116.6 10.1 116.9 10.4 117.2 10.7 117.5 11.0 117.8 11.2 118.1 11.3 118.4 11.5 118.7 11.8 119.0 12.1 119.3 12.5 119.6 13.1 119.9 13.7 120.2 14.1 120.5 14.7 120.7 15.5 120.9 16.3 121.1 17.2 121.0 17.8 120.7 18.2 120.4 18.5 120.1 18.8 119.8 19.0 119.5 19.1 119.2 19.2 118.9 19.3 118.6 19.5 118.3 19.6 118.0 19.7 117.7 19.9 117.4 19.9 117.1 19.9 116.8 20.0 116.5 20.1 116.2 20.3 115.9 20.4 115.6 20.5 115.3 20.7 115.0 20.7 114.7 20.7 114.4 20.7 114.1 20.7 113.8 20.8 113.5 21.0 113.2 21.1 112.9 21.1 112.6 21.1 112.3 21.1 112.0 21.1 111.7 21.1 111.4 21.1 111.1 21.1 110.8 21.1 110.5 21.1 110.2 21.1 109.9 21.1 109.6 21.1 109.3 21.1 109.0 21.1 108.7 21.1 108.4 21.1 108.1 21.1 107.8 21.1 107.5 21.1 107.2 21.1 106.9 21.1 106.6 21.1 106.3 21.1 106.0 21.1 105.7 21.1 105.4 21.1 105.1 21.1 104.8 21.1 104.5 21.1 104.2 21.1 103.9 21.1 103.6 21.1 103.3 21.1 103.0 21.0 102.7 20.9 102.4 20.8 102.1 20.7 101.8 20.7 101.5 20.7 101.2 20.7 100.9 20.7 100.6 20.7 100.3 20.7 100.0 20.7 99.7 20.7 99.4 20.7 99.1 20.7 98.8 20.8 98.5 20.9 98.2 20.8 97.9 20.7 97.6 20.7 97.3 20.7 97.0 20.7 96.7 20.7 96.4 20.7 96.1 20.7 95.8 20.7 95.5 20.7 95.2 20.5 94.9 20.4 94.6 20.3 94.3 20.3 94.0 20.3 93.7 20.3 93.4 20.3 93.1 20.3 92.8 20.3 92.5 20.3 92.2 20.2 91.9 20.1 91.6 20.0 91.3 19.9 91.0 19.9 90.7 19.9 90.4 19.9 90.1 19.9 89.8 19.9 89.5 19.9 89.2 19.9 88.9 19.9 88.6 19.8 88.3 19.7 88.0 19.6 87.7 19.5 87.4 19.5 87.1 19.5 86.8 19.5 86.5 19.5 86.2 19.5 85.9 19.5 85.6 19.5 85.3 19.4 85.0 19.2 84.7 19.1 84.4 19.1 84.1 19.1 83.8 19.1 83.5 19.2 83.2 19.3 82.9 19.6 82.6 19.9 82.3 20.2 82.1 M4.3 97.8 L4.3 97.5 4.3 97.3 4.2 97.6 4.1 97.9 3.9 98.2 3.9 98.5 3.9 98.8 3.8 99.1 3.7 99.4 3.6 99.7 3.4 100.0 3.3 100.3 3.1 100.6 3.1 100.9 3.1 101.2 3.0 101.5 2.9 101.8 2.8 102.1 2.7 102.4 2.6 102.7 2.5 103.0 2.4 103.3 2.3 103.6 2.3 103.9 2.3 104.2 2.3 104.5 2.2 104.8 2.1 105.1 1.9 105.4 1.8 105.7 1.6 106.0 1.5 106.3 1.5 106.6 1.5 106.9 1.5 107.2 1.5 107.5 1.5 107.8 1.4 108.1 1.2 108.4 1.1 108.7 1.1 109.0 1.1 109.3 1.0 109.6 0.9 109.9 0.7 110.2 0.7 110.5 0.7 110.8 0.7 111.1 0.7 111.4 0.7 111.7 0.7 111.8 0.8 111.5 1.0 111.2 1.2 110.9 1.3 110.6 1.5 110.3 1.6 110.0 1.7 109.7 1.9 109.4 1.9 109.1 1.9 108.8 2.0 108.5 2.1 108.2 2.2 107.9 2.3 107.6 2.3 107.3 2.3 107.0 2.4 106.7 2.6 106.4 2.7 106.1 2.7 105.8 2.8 105.5 3.0 105.2 3.3 104.9 3.6 104.6 3.9 104.3 4.2 104.1 4.3 104.1 4.3 103.8 4.3 103.5 4.3 103.2 4.3 102.9 4.3 102.6 4.3 102.3 4.3 102.0 4.3 101.7 4.3 101.4 4.3 101.1 4.3 100.8 4.3 100.5 4.3 100.2 4.3 99.9 4.3 99.6 4.3 99.3 4.3 99.0 4.3 98.7 4.3 98.4 4.3 98.1 4.3 97.8 M5.1 114.0 L4.9 113.7 4.8 113.4 4.7 113.1 4.7 113.4 4.7 113.7 4.6 114.0 4.5 114.3 4.3 114.6 4.2 114.9 4.0 115.2 3.9 115.5 3.9 115.8 3.8 116.1 3.6 116.4 3.5 116.7 3.5 117.0 3.5 117.3 3.5 117.6 3.4 117.9 3.3 118.2 3.2 118.5 3.1 118.8 3.0 119.1 2.9 119.4 2.8 119.7 2.6 120.0 2.5 120.3 2.3 120.6 2.2 120.9 2.0 121.2 1.9 121.5 1.7 121.8 1.6 122.1 1.4 122.4 1.3 122.7 1.1 123.0 1.1 123.3 1.0 123.6 0.9 123.9 0.7 124.2 0.7 124.5 0.7 124.8 0.6 125.1 0.5 125.4 0.4 125.7 0.3 126.0 0.2 126.3 0.1 126.6 0.0 126.9 -0.1 127.2 -0.2 127.5 -0.3 127.8 -0.4 128.1 -0.6 128.4 -0.9 128.7 -0.9 129.0 -1.0 129.3 -1.1 129.6 -1.3 129.9 -1.3 130.2 -1.4 130.5 -1.5 130.8 -1.7 131.1 -1.7 131.4 -1.7 131.7 -1.7 132.0 -1.8 132.3 -1.9 132.6 -2.0 132.9 -2.1 133.2 -2.2 133.5 -2.3 133.8 -2.4 134.1 -2.5 134.4 -2.5 134.7 -2.5 135.0 -2.5 135.3 -2.6 135.6 -2.7 135.9 -2.9 136.2 -2.9 136.5 -2.9 136.8 -3.0 137.1 -3.1 137.4 -3.2 137.7 -3.3 138.0 -3.3 138.3 -3.3 138.6 -3.3 138.9 -3.3 139.2 -3.3 139.5 -3.3 139.8 -3.3 140.1 -3.3 140.4 -3.3 140.7 -3.3 141.0 -3.3 141.3 -3.4 141.6 -3.5 141.9 -3.7 142.2 -3.7 142.5 -3.7 142.8 -3.7 143.1 -3.7 143.4 -3.7 143.7 -3.7 144.0 -3.7 144.3 -3.7 144.6 -3.7 144.9 -3.7 145.2 -3.7 145.5 -3.7 145.8 -3.7 146.1 -3.7 146.4 -3.7 146.7 -3.7 147.0 -3.7 147.3 -3.7 147.6 -3.7 147.9 -3.7 148.2 -3.7 148.5 -3.7 148.8 -3.7 149.1 -3.7 149.4 -3.7 149.7 -3.7 150.0 -3.7 150.3 -3.7 150.6 -3.6 150.9 -3.5 151.2 -3.4 151.5 -3.3 151.8 -3.3 152.1 -3.3 152.4 -3.3 152.7 -3.3 153.0 -3.2 153.3 -3.1 153.6 -3.0 153.9 -2.9 154.2 -2.8 154.5 -2.7 154.8 -2.5 155.1 -2.2 155.4 -2.0 155.7 -1.9 156.0 -1.7 156.3 -1.6 156.6 -1.4 156.9 -1.2 157.2 -0.9 157.5 -0.6 157.8 -0.3 158.1 0.1 158.4 0.5 158.6 0.7 158.7 1.5 158.9 2.2 158.9 3.2 158.6 3.8 158.3 4.2 158.0 4.6 157.7 4.9 157.4 5.1 157.1 5.4 156.8 5.7 156.5 5.9 156.2 6.0 155.9 6.2 155.6 6.3 155.3 6.3 155.0 6.4 154.7 6.6 154.4 6.9 154.1 7.1 153.8 7.2 153.5 7.4 153.2 7.7 152.9 7.9 152.6 7.9 152.3 8.0 152.0 8.1 151.7 8.3 151.4 8.3 151.1 8.4 150.8 8.5 150.5 8.7 150.2 8.8 149.9 9.0 149.6 9.1 149.3 9.1 149.0 9.2 148.7 9.4 148.4 9.6 148.1 9.7 147.8 9.8 147.5 9.9 147.2 10.0 146.9 10.1 146.6 10.2 146.3 10.4 146.0 10.5 145.7 10.7 145.4 10.7 145.1 10.7 144.8 10.8 144.5 10.9 144.2 11.1 143.9 11.2 143.6 11.3 143.3 11.5 143.0 11.5 142.7 11.6 142.4 11.7 142.1 11.9 141.8 12.0 141.5 12.2 141.2 12.3 140.9 12.3 140.6 12.4 140.3 12.6 140.0 12.7 139.7 12.9 139.4 13.0 139.1 13.1 138.8 13.1 138.5 13.1 138.2 13.1 137.9 13.2 137.6 13.3 137.3 13.5 137.0 13.5 136.7 13.5 136.4 13.6 136.1 13.7 135.8 13.9 135.5 14.0 135.2 14.1 134.9 14.3 134.6 14.3 134.3 14.4 134.0 14.5 133.7 14.7 133.4 14.7 133.1 14.8 132.8 14.9 132.5 15.1 132.2 15.1 131.9 15.1 131.6 15.1 131.3 15.1 131.0 15.2 130.7 15.4 130.4 15.5 130.1 15.5 129.8 15.6 129.5 15.8 129.2 15.9 128.9 15.9 128.6 15.9 128.3 16.0 128.0 16.1 127.7 16.3 127.4 16.3 127.1 16.3 126.8 16.4 126.5 16.5 126.2 16.6 125.9 16.7 125.6 16.7 125.5 15.8 125.3 15.1 125.1 14.2 124.9 13.5 124.7 12.6 124.5 12.0 124.2 11.5 123.9 11.2 123.6 10.6 123.3 10.2 123.0 9.8 122.7 9.2 122.4 8.9 122.1 8.6 121.8 8.4 121.5 8.3 121.2 8.1 120.9 7.8 120.6 7.5 120.3 7.2 120.0 6.9 119.7 6.8 119.4 6.7 119.1 6.4 118.8 6.1 118.5 6.0 118.2 5.9 117.9 5.7 117.6 5.6 117.3 5.5 117.0 5.5 116.7 5.5 116.4 5.3 116.1 5.2 115.8 5.1 115.5 5.1 115.2 5.1 114.9 5.1 114.6 5.1 114.3 5.1 114.0 M0.4 113.2 L0.35 113.4 0.4 113.3 0.5 113.1 0.4 113.2 M19.9 129.5 L19.9 129.8 19.9 130.1 19.8 130.4 19.7 130.7 19.5 131.0 19.5 131.3 19.5 131.6 19.4 131.9 19.3 132.2 19.2 132.5 19.1 132.8 19.1 133.1 19.1 133.4 19.0 133.7 18.8 134.0 18.7 134.3 18.7 134.6 18.6 134.9 18.4 135.2 18.3 135.5 18.3 135.8 18.2 136.1 18.0 136.4 17.9 136.7 17.7 137.0 17.6 137.3 17.5 137.6 17.5 137.9 17.5 138.2 17.4 138.5 17.2 138.8 17.1 139.1 17.1 139.4 17.1 139.7 17.1 140.0 17.0 140.3 16.9 140.6 16.8 140.9 16.6 141.2 16.3 141.5 16.3 141.8 16.3 142.1 16.25 142.3 19.4 142.1 20.4 141.8 20.7 141.5 21.2 141.2 21.5 140.9 21.5 140.6 21.6 140.3 21.8 140.0 21.9 139.7 21.9 139.4 21.9 139.1 21.9 138.8 21.9 138.5 21.9 138.2 21.9 137.9 21.9 137.6 21.9 137.3 21.9 137.0 21.9 136.7 21.9 136.4 21.9 136.1 21.9 135.8 21.9 135.5 21.9 135.2 21.9 134.9 21.9 134.6 21.9 134.3 21.9 134.0 21.9 133.7 21.9 133.4 21.8 133.1 21.7 132.8 21.6 132.5 21.5 132.2 21.5 131.9 21.5 131.6 21.5 131.3 21.5 131.0 21.4 130.7 21.3 130.4 21.2 130.1 21.1 129.8 21.1 129.5 21.1 129.2 21.1 128.9 21.0 128.6 20.8 128.3 20.7 128.0 20.7 127.7 20.7 127.4 20.6 127.1 20.5 127.4 20.4 127.7 20.3 128.0 20.3 128.3 20.3 128.6 20.2 128.9 20.0 129.2 19.9 129.5" fill="#000000" fill-rule="evenodd" stroke="none"/>
  </g>
</svg>
