<?xml version="1.0" encoding="UTF-8" standalone="no"?>
<svg xmlns:ffdec="https://www.free-decompiler.com/flash" xmlns:xlink="http://www.w3.org/1999/xlink" ffdec:objectType="shape" height="86.7px" width="42.0px" xmlns="http://www.w3.org/2000/svg">
  <g transform="matrix(1.0, 0.0, 0.0, 1.0, 12.9, -79.2)">
    <path d="M11.4 113.55 L11.2 113.85 11.15 113.7 11.4 113.55 M1.95 159.1 Q0.35 158.95 -0.4 157.6 -0.9 156.75 -0.9 155.95 -0.9 147.45 3.5 145.2 L6.55 145.15 6.6 145.15 Q5.75 146.45 5.3 148.5 L3.5 153.9 Q1.9 158.3 1.9 158.85 L1.95 159.1" fill="#ff0200" fill-rule="evenodd" stroke="none"/>
    <path d="M17.75 124.25 Q19.65 124.0 20.3 122.6 20.7 121.8 20.7 119.9 L20.7 114.3 Q20.55 111.85 19.9 110.35 L19.9 104.65 19.9 94.9 Q20.25 91.75 18.7 90.45 L18.3 85.8 17.9 83.1 17.05 81.2 Q18.05 80.6 19.3 80.95 23.1 81.9 22.7 87.0 23.5 92.75 23.5 98.4 L23.9 121.2 23.8 124.2 Q23.45 125.75 22.35 126.35 23.25 127.35 24.1 129.35 26.3 134.5 26.3 137.6 26.3 140.1 24.85 141.5 22.7 143.5 17.5 143.5 L15.85 143.0 Q14.7 142.5 14.2 142.5 L13.15 142.75 14.9 144.95 Q15.9 146.75 15.9 147.95 12.6 163.9 8.3 163.9 6.25 163.9 5.5 162.25 8.3 161.25 12.7 146.0 12.7 142.5 9.55 143.1 7.95 143.4 6.9 144.7 4.25 144.55 2.65 142.35 L4.2 140.9 Q5.1 139.6 5.1 138.8 5.1 138.15 4.7 137.55 L5.45 137.4 6.7 137.5 Q10.9 137.5 13.9 134.0 L15.5 131.8 Q19.1 130.3 19.1 128.0 19.1 126.85 18.65 126.2 L18.9 126.0 Q18.2 125.35 17.75 124.25 M8.4 102.35 L7.4 106.55 5.7 113.9 Q5.7 114.35 6.4 115.25 7.1 116.15 7.1 116.6 7.1 117.75 5.9 119.6 4.45 121.9 2.7 121.9 0.35 121.9 -0.5 118.9 L-0.9 115.75 Q-0.9 114.0 0.3 108.65 L1.7 102.4 Q3.25 94.0 6.25 94.45 7.0 94.6 7.65 95.25 L8.3 101.7 8.4 102.35" fill="#007bb0" fill-rule="evenodd" stroke="none"/>
    <path d="M17.05 81.2 L17.9 83.1 18.3 85.8 18.7 90.45 Q20.25 91.75 19.9 94.9 L19.9 104.65 19.9 110.35 Q20.55 111.85 20.7 114.3 L20.7 119.9 Q20.7 121.8 20.3 122.6 19.65 124.0 17.75 124.25 L16.9 124.3 Q15.4 124.3 14.2 123.45 12.8 122.4 11.8 120.1 L11.05 117.15 10.7 115.75 Q10.7 114.6 11.2 113.85 L11.4 113.55 13.1 111.25 13.5 105.7 13.4 101.2 Q12.15 100.25 12.0 98.05 L12.3 92.3 11.7 87.15 11.15 83.1 11.1 82.85 Q11.1 80.9 12.55 79.75 14.3 78.35 16.5 80.4 L17.05 81.2 M18.65 126.2 Q19.1 126.85 19.1 128.0 19.1 130.3 15.5 131.8 L13.9 134.0 Q10.9 137.5 6.7 137.5 L5.45 137.4 4.7 137.55 Q5.1 138.15 5.1 138.8 5.1 139.6 4.2 140.9 L2.65 142.35 1.1 142.7 0.4 142.65 -1.3 143.1 Q-3.0 143.1 -3.9 142.05 L-4.4 141.3 -4.9 139.5 Q-4.9 138.1 -4.3 137.35 L-5.3 133.75 Q-5.3 131.3 -2.8 130.15 -0.7 129.2 8.5 127.0 L10.85 126.45 12.1 125.6 Q12.8 125.15 13.4 125.0 14.6 124.6 15.25 125.5 L16.2 125.35 Q17.9 125.25 18.65 126.2 M6.9 144.7 Q7.95 143.4 9.55 143.1 12.7 142.5 12.7 146.0 8.3 161.25 5.5 162.25 L5.1 162.3 Q2.9 162.3 2.2 160.65 L1.95 159.1 1.9 158.85 Q1.9 158.3 3.5 153.9 L5.3 148.5 Q5.75 146.45 6.6 145.15 L6.9 144.7" fill="#009cdf" fill-rule="evenodd" stroke="none"/>
    <path d="M11.15 83.1 L11.7 87.15 12.3 92.3 12.0 98.05 Q12.15 100.25 13.4 101.2 L13.5 105.7 13.1 111.25 11.4 113.55 11.15 113.7 Q9.6 110.05 8.4 102.35 L8.3 101.7 7.65 95.25 6.7 86.4 Q6.7 84.6 7.8 83.6 8.8 82.65 10.2 82.85 L11.15 83.1 M11.05 117.15 L11.8 120.1 Q12.8 122.4 14.2 123.45 L13.4 125.0 Q12.8 125.15 12.1 125.6 L10.85 126.45 8.5 127.0 Q-0.7 129.2 -2.8 130.15 -5.3 131.3 -5.3 133.75 L-4.3 137.35 Q-4.9 138.1 -4.9 139.5 L-4.4 141.3 -3.9 142.05 -5.3 142.3 Q-8.0 142.3 -8.9 138.1 L-9.3 133.9 Q-9.3 129.6 -8.25 128.3 -6.0 125.5 2.9 124.0 4.85 123.7 6.35 121.9 7.8 119.75 8.6 118.9 9.9 117.55 11.05 117.15" fill="#00c3ff" fill-rule="evenodd" stroke="none"/>
    <path d="M20.1 79.6 L20.7 79.6 20.7 79.5 21.5 79.7 22.0 80.0 22.3 80.3 22.4 80.6 22.6 80.9 22.7 81.2 22.7 81.5 22.7 81.8 22.8 82.1 22.9 82.4 23.1 82.7 23.2 83.0 23.4 83.3 23.5 83.6 23.5 83.9 23.6 84.2 23.8 84.5 23.9 84.8 23.9 85.1 23.9 85.4 24.0 85.7 24.1 86.0 24.2 86.3 24.3 86.6 24.3 86.9 24.3 87.2 24.3 87.5 24.3 87.8 24.4 88.1 24.5 88.4 24.6 88.7 24.7 89.0 24.7 89.3 24.7 89.6 24.7 89.9 24.7 90.2 24.7 90.5 24.7 90.8 24.7 91.1 24.7 91.4 24.7 91.7 24.7 92.0 24.7 92.3 24.7 92.6 24.7 92.9 24.7 93.2 24.7 93.5 24.7 93.8 24.8 94.1 24.9 94.4 25.0 94.7 25.1 95.0 25.1 95.3 25.1 95.6 25.1 95.9 25.1 96.2 25.1 96.5 25.1 96.8 25.1 97.1 25.2 97.4 25.4 97.7 25.5 98.0 25.5 98.3 25.5 98.6 25.5 98.9 25.5 99.2 25.5 99.5 25.5 99.8 25.5 100.1 25.6 100.4 25.7 100.7 25.8 101.0 25.9 101.3 25.9 101.6 25.9 101.9 25.9 102.2 25.9 102.5 25.9 102.8 25.9 103.1 25.9 103.4 26.0 103.7 26.1 104.0 26.2 104.3 26.3 104.6 26.4 104.9 26.5 105.2 26.6 105.5 26.7 105.8 26.7 106.1 26.7 106.4 26.7 106.7 26.7 107.0 26.7 107.3 26.7 107.6 26.7 107.9 26.7 108.2 26.8 108.5 26.9 108.8 27.0 109.1 27.1 109.4 27.1 109.7 27.1 110.0 27.3 110.3 27.4 110.6 27.5 110.9 27.5 111.2 27.5 111.5 27.5 111.8 27.5 112.1 27.5 112.4 27.5 112.7 27.5 113.0 27.5 113.3 27.5 113.6 27.5 113.9 27.5 114.2 27.5 114.5 27.5 114.8 27.5 115.1 27.5 115.4 27.5 115.7 27.5 116.0 27.5 116.3 27.5 116.6 27.5 116.9 27.5 117.2 27.5 117.5 27.5 117.8 27.5 118.1 27.5 118.4 27.5 118.7 27.5 119.0 27.5 119.3 27.5 119.6 27.5 119.9 27.5 120.2 27.4 120.5 27.3 120.8 27.1 121.1 27.1 121.4 27.1 121.7 27.0 122.0 26.9 122.3 26.7 122.6 26.7 122.9 26.7 123.2 26.6 123.5 26.5 123.8 26.4 124.1 26.3 124.3 26.4 124.5 26.5 124.8 26.7 125.1 26.8 125.4 27.0 125.7 27.1 126.0 27.1 126.3 27.2 126.6 27.4 126.9 27.5 127.2 27.5 127.5 27.5 127.8 27.6 128.1 27.7 128.4 27.8 128.7 27.9 129.0 27.9 129.3 27.9 129.6 28.1 129.9 28.2 130.2 28.4 130.5 28.5 130.8 28.6 131.1 28.7 131.4 28.7 131.7 28.7 132.0 28.7 132.3 28.7 132.6 28.8 132.9 28.9 133.2 29.0 133.5 29.1 133.8 29.1 134.1 29.1 134.4 29.1 134.7 29.1 135.0 29.1 135.3 29.1 135.6 29.1 135.9 29.1 136.2 29.1 136.5 29.1 136.8 29.1 137.1 29.1 137.4 29.1 137.7 29.1 138.0 29.1 138.3 29.1 138.6 29.1 138.9 29.1 139.2 29.1 139.5 29.1 139.8 29.1 140.1 29.1 140.4 29.1 140.7 29.1 141.0 29.1 141.3 29.1 141.6 29.0 141.9 28.9 142.2 28.8 142.5 28.6 142.8 28.3 143.1 28.0 143.4 27.7 143.7 27.3 144.0 26.7 144.3 26.4 144.5 26.1 144.6 25.3 144.8 24.9 145.0 24.3 145.1 22.7 145.3 21.9 145.5 20.3 145.7 19.5 145.9 18.7 146.1 17.9 146.3 17.85 146.3 17.9 146.5 17.9 146.8 17.9 147.1 17.9 147.4 17.9 147.7 17.9 148.0 17.9 148.3 17.9 148.6 17.9 148.9 17.9 149.2 17.9 149.5 17.9 149.8 17.9 150.1 17.9 150.4 17.8 150.7 17.7 151.0 17.6 151.3 17.5 151.6 17.5 151.9 17.5 152.2 17.5 152.5 17.5 152.8 17.5 153.1 17.5 153.4 17.5 153.7 17.5 154.0 17.5 154.3 17.5 154.6 17.5 154.9 17.5 155.2 17.5 155.5 17.5 155.8 17.5 156.1 17.5 156.4 17.5 156.7 17.5 157.0 17.5 157.3 17.5 157.6 17.5 157.9 17.5 158.2 17.4 158.5 17.2 158.8 17.1 159.1 17.1 159.4 17.0 159.7 16.8 160.0 16.7 160.3 16.5 160.6 16.4 160.9 16.2 161.2 16.1 161.5 15.9 161.8 15.7 162.1 15.4 162.4 15.0 162.7 14.6 163.0 14.4 163.3 14.2 163.6 13.8 163.9 13.3 164.2 12.9 164.5 12.5 164.8 11.9 165.1 11.3 165.4 10.7 165.7 9.9 165.9 5.9 165.9 5.0 165.7 4.3 165.5 3.4 165.3 3.1 165.1 2.2 164.9 1.8 164.6 1.5 164.3 1.2 164.0 0.9 163.7 0.6 163.4 0.3 163.1 0.0 162.8 -0.3 162.5 -0.6 162.2 -0.9 161.9 -1.1 161.6 -1.2 161.3 -1.4 161.0 -1.6 160.7 -1.7 160.4 -1.9 160.1 -2.0 159.8 -2.1 159.5 -2.3 159.2 -2.4 158.9 -2.6 158.6 -2.8 158.3 -2.9 158.0 -2.9 157.7 -2.9 157.4 -2.9 157.1 -2.9 156.8 -2.9 156.5 -2.9 156.2 -2.9 155.9 -2.9 155.6 -2.9 155.3 -2.9 155.0 -2.9 154.7 -2.9 154.4 -2.9 154.1 -2.9 153.8 -2.9 153.5 -2.9 153.2 -2.9 152.9 -2.9 152.6 -2.9 152.3 -2.9 152.0 -2.9 151.7 -2.9 151.4 -2.9 151.1 -2.9 150.8 -2.9 150.5 -2.9 150.2 -2.9 149.9 -2.9 149.6 -2.9 149.3 -2.9 149.0 -2.9 148.7 -2.9 148.4 -2.9 148.1 -2.9 147.8 -2.9 147.5 -2.9 147.2 -2.9 146.9 -2.9 146.6 -2.9 146.3 -2.9 146.0 -2.9 145.9 -3.8 145.7 -4.5 145.5 -5.4 145.3 -5.7 145.1 -6.6 144.9 -7.0 144.6 -7.4 144.3 -8.0 144.0 -8.3 143.7 -8.6 143.4 -9.0 143.1 -9.6 142.8 -9.9 142.5 -10.2 142.2 -10.5 141.9 -10.8 141.6 -11.1 141.3 -11.2 141.0 -11.3 140.7 -11.5 140.4 -11.6 140.1 -11.8 139.8 -12.0 139.5 -12.1 139.2 -12.1 138.9 -12.1 138.6 -12.1 138.3 -12.1 138.0 -12.3 137.7 -12.4 137.4 -12.5 137.1 -12.5 136.8 -12.7 136.5 -12.8 136.2 -12.9 135.9 -12.9 135.6 -12.9 135.3 -12.9 135.0 -12.9 134.7 -12.9 134.4 -12.9 134.1 -12.9 133.8 -12.9 133.5 -12.8 133.2 -12.7 132.9 -12.5 132.6 -12.5 132.3 -12.5 132.0 -12.5 131.7 -12.5 131.4 -12.5 131.1 -12.5 130.8 -12.4 130.5 -12.3 130.2 -12.2 129.9 -12.1 129.6 -12.0 129.3 -11.9 129.0 -11.7 128.7 -11.6 128.4 -11.5 128.1 -11.2 127.8 -10.9 127.5 -10.4 127.2 -9.9 126.9 -9.6 126.6 -8.9 126.3 -8.4 126.0 -7.8 125.7 -6.8 125.4 -6.3 125.2 -5.7 125.1 -3.8 124.9 -2.9 124.7 3.4 124.5 3.75 124.3 2.3 124.3 1.4 124.1 0.8 123.8 0.3 123.5 -0.4 123.2 -0.7 122.9 -1.2 122.6 -1.7 122.3 -2.0 122.0 -2.3 121.7 -2.6 121.4 -2.9 121.1 -3.1 120.8 -3.2 120.5 -3.4 120.2 -3.6 119.9 -3.7 119.6 -3.7 119.3 -3.7 119.0 -3.7 118.7 -3.7 118.4 -3.7 118.1 -3.7 117.8 -3.7 117.5 -3.6 117.2 -3.5 116.9 -3.3 116.6 -3.3 116.3 -3.3 116.0 -3.2 115.7 -3.1 115.4 -3.0 115.1 -2.9 114.8 -2.9 114.5 -2.9 114.2 -2.9 113.9 -2.9 113.6 -2.9 113.3 -2.9 113.0 -2.9 112.7 -2.8 112.4 -2.7 112.1 -2.5 111.8 -2.5 111.5 -2.5 111.2 -2.5 110.9 -2.5 110.6 -2.4 110.3 -2.2 110.0 -2.1 109.7 -2.1 109.4 -2.0 109.1 -1.8 108.8 -1.7 108.5 -1.7 108.2 -1.6 107.9 -1.4 107.6 -1.3 107.3 -1.3 107.0 -1.3 106.7 -1.3 106.4 -1.3 106.1 -1.3 105.8 -1.2 105.5 -1.0 105.2 -0.9 104.9 -0.9 104.6 -0.8 104.3 -0.6 104.0 -0.5 103.7 -0.5 103.4 -0.5 103.1 -0.5 102.8 -0.5 102.5 -0.5 102.2 -0.4 101.9 -0.2 101.6 -0.1 101.3 -0.1 101.0 0.0 100.7 0.2 100.4 0.3 100.1 0.3 99.8 0.3 99.5 0.3 99.2 0.4 98.9 0.5 98.6 0.6 98.3 0.7 98.0 0.8 97.7 0.9 97.4 1.0 97.1 1.1 96.8 1.1 96.5 1.1 96.2 1.2 95.9 1.4 95.6 1.5 95.3 1.5 95.0 1.5 94.7 1.5 94.4 1.5 94.1 1.5 93.8 1.5 93.5 1.6 93.2 1.7 92.9 1.9 92.6 1.9 92.3 1.9 92.0 1.9 91.7 1.9 91.4 2.0 91.1 2.2 90.8 2.3 90.5 2.3 90.2 2.3 89.9 2.4 89.6 2.5 89.3 2.7 89.0 2.7 88.7 2.7 88.4 2.7 88.1 2.7 87.8 2.8 87.5 3.0 87.2 3.1 86.9 3.1 86.6 3.1 86.3 3.1 86.0 3.1 85.7 3.1 85.4 3.2 85.1 3.4 84.8 3.5 84.5 3.5 84.2 3.6 83.9 3.8 83.6 4.1 83.3 4.4 83.0 4.9 82.8 5.0 82.8 5.1 82.7 5.4 82.5 5.7 82.4 6.3 82.3 7.1 82.5 7.6 82.8 7.9 83.1 8.0 83.4 8.2 83.7 8.3 84.0 8.5 84.3 8.6 84.6 8.7 84.9 8.7 85.2 8.9 85.5 9.0 85.8 9.1 86.1 9.1 86.4 9.1 86.7 9.1 87.0 9.1 87.3 9.1 87.6 9.1 87.9 9.2 88.2 9.4 88.5 9.5 88.8 9.5 89.1 9.5 89.4 9.5 89.7 9.5 90.0 9.5 90.3 9.5 90.6 9.5 90.9 9.5 91.2 9.5 91.5 9.5 91.8 9.5 92.1 9.5 92.4 9.5 92.7 9.5 93.0 9.5 93.3 9.5 93.6 9.5 93.9 9.5 94.2 9.5 94.5 9.5 94.8 9.5 95.1 9.5 95.4 9.5 95.7 9.5 96.0 9.7 96.3 9.8 96.6 9.9 96.9 9.9 97.2 9.9 97.5 9.9 97.8 9.9 98.1 9.9 98.4 9.9 98.7 10.0 99.0 10.2 99.3 10.3 99.6 10.3 99.9 10.3 100.2 10.3 100.5 10.3 100.8 10.3 101.1 10.3 101.4 10.3 101.7 10.3 102.0 10.3 102.3 10.3 102.6 10.3 102.9 10.3 103.2 10.3 103.5 10.3 103.8 10.3 104.1 10.3 104.4 10.3 104.7 10.3 105.0 10.3 105.3 10.3 105.6 10.3 105.9 10.3 106.2 10.3 106.5 10.3 106.8 10.3 107.1 10.4 107.4 10.6 107.7 10.7 108.0 10.7 108.3 10.7 108.6 10.7 108.9 10.7 109.2 10.7 109.5 10.7 109.8 10.7 110.1 10.7 110.4 10.9 110.7 11.0 111.0 11.1 111.3 11.1 111.6 11.1 111.9 11.1 112.2 11.1 112.5 11.1 112.8 11.3 113.1 11.4 113.4 11.5 113.7 11.5 114.0 11.5 114.3 11.5 114.6 11.5 114.9 11.5 115.2 11.5 115.5 11.5 115.8 11.5 116.1 11.5 116.4 11.5 116.7 11.5 117.0 11.5 117.3 11.6 117.6 11.9 117.9 12.0 118.2 12.2 118.5 12.3 118.8 12.3 119.1 12.4 119.4 12.6 119.7 12.7 120.0 12.7 120.3 13.0 120.6 13.3 120.9 13.6 121.2 13.9 121.5 14.2 121.8 14.5 122.1 14.9 122.4 15.4 122.7 15.8 123.0 16.3 123.3 16.8 123.6 17.0 123.8 17.1 123.9 17.9 124.1 18.4 124.4 18.6 124.6 21.0 124.5 21.3 124.2 21.5 123.9 21.8 123.6 22.0 123.3 22.1 123.0 22.3 122.7 22.4 122.4 22.5 122.1 22.7 121.8 22.7 121.5 22.8 121.2 22.9 120.9 23.1 120.6 23.1 120.3 23.2 120.0 23.3 119.7 23.5 119.4 23.5 119.1 23.5 118.8 23.5 118.5 23.5 118.2 23.5 117.9 23.5 117.6 23.5 117.3 23.5 117.0 23.5 116.7 23.5 116.4 23.5 116.1 23.5 115.8 23.5 115.5 23.5 115.2 23.5 114.9 23.5 114.6 23.5 114.3 23.5 114.0 23.5 113.7 23.5 113.4 23.5 113.1 23.5 112.8 23.5 112.5 23.5 112.2 23.4 111.9 23.3 111.6 23.2 111.3 23.1 111.0 23.1 110.7 23.1 110.4 22.9 110.1 22.8 109.8 22.7 109.5 22.7 109.2 22.7 108.9 22.7 108.6 22.7 108.3 22.7 108.0 22.7 107.7 22.7 107.4 22.7 107.1 22.7 106.8 22.7 106.5 22.6 106.2 22.4 105.9 22.3 105.6 22.3 105.3 22.2 105.0 22.0 104.7 21.9 104.4 21.9 104.1 21.9 103.8 21.9 103.5 21.9 103.2 21.9 102.9 21.9 102.6 21.9 102.3 21.9 102.0 21.7 101.7 21.6 101.4 21.5 101.1 21.5 100.8 21.5 100.5 21.5 100.2 21.5 99.9 21.5 99.6 21.5 99.3 21.5 99.0 21.4 98.7 21.3 98.4 21.2 98.1 21.1 97.8 21.1 97.5 21.1 97.2 21.1 96.9 21.1 96.6 21.1 96.3 21.1 96.0 20.9 95.7 20.8 95.4 20.7 95.1 20.7 94.8 20.7 94.5 20.7 94.2 20.7 93.9 20.7 93.6 20.7 93.3 20.7 93.0 20.7 92.7 20.7 92.4 20.7 92.1 20.7 91.8 20.7 91.5 20.7 91.2 20.7 90.9 20.7 90.6 20.7 90.3 20.7 90.0 20.5 89.7 20.4 89.4 20.3 89.1 20.3 88.8 20.3 88.5 20.3 88.2 20.3 87.9 20.3 87.6 20.1 87.3 20.0 87.0 19.9 86.7 19.9 86.4 19.9 86.1 19.8 85.8 19.6 85.5 19.5 85.2 19.3 84.9 19.2 84.6 19.1 84.3 19.1 84.0 18.9 83.7 18.8 83.4 18.7 83.1 18.7 82.8 18.7 82.5 18.7 82.2 18.7 81.9 18.7 81.6 18.7 81.3 18.7 81.0 18.8 80.7 19.0 80.4 19.3 80.1 19.6 79.8 20.1 79.6 M4.8 98.5 L4.7 98.8 4.7 99.1 4.7 99.4 4.6 99.7 4.4 100.0 4.3 100.3 4.3 100.6 4.3 100.9 4.2 101.2 4.1 101.5 4.0 101.8 3.9 102.1 3.8 102.4 3.7 102.7 3.6 103.0 3.5 103.3 3.5 103.6 3.5 103.9 3.5 104.2 3.5 104.5 3.5 104.8 3.4 105.1 3.3 105.4 3.2 105.7 3.0 106.0 2.9 106.3 2.8 106.6 2.7 106.9 2.7 107.2 2.7 107.5 2.7 107.8 2.7 108.1 2.7 108.4 2.6 108.7 2.5 109.0 2.4 109.3 2.3 109.6 2.2 109.9 2.1 110.2 2.0 110.5 1.9 110.8 1.8 111.1 1.7 111.4 1.6 111.7 1.5 112.0 1.5 112.3 1.5 112.6 1.5 112.9 1.4 113.2 1.3 113.5 1.1 113.8 1.1 114.1 1.1 114.4 1.1 114.7 1.1 115.0 1.1 115.3 1.1 115.6 1.1 115.9 1.0 116.2 0.8 116.5 0.7 116.8 0.7 117.1 0.7 117.4 0.7 117.7 0.6 118.0 0.5 118.3 0.6 118.6 0.9 118.9 1.2 119.2 1.5 119.5 2.1 119.8 2.7 120.1 4.3 120.3 4.7 120.4 4.7 120.3 4.7 120.0 4.7 119.7 4.7 119.4 4.7 119.1 4.7 118.8 4.7 118.5 4.7 118.2 4.7 117.9 4.7 117.6 4.7 117.3 4.7 117.0 4.7 116.7 4.7 116.4 4.7 116.1 4.7 115.8 4.8 115.5 5.0 115.2 5.1 114.9 5.1 114.6 5.1 114.3 5.1 114.0 5.1 113.7 5.1 113.4 5.1 113.1 5.1 112.8 5.1 112.5 5.1 112.2 5.2 111.9 5.4 111.6 5.5 111.3 5.5 111.0 5.5 110.7 5.5 110.4 5.5 110.1 5.5 109.8 5.5 109.5 5.5 109.2 5.5 108.9 5.5 108.6 5.5 108.3 5.5 108.0 5.5 107.7 5.5 107.4 5.5 107.1 5.5 106.8 5.6 106.5 5.7 106.2 5.8 105.9 5.9 105.6 5.9 105.3 5.9 105.0 5.9 104.7 5.9 104.4 5.9 104.1 5.9 103.8 5.9 103.5 5.9 103.2 5.9 102.9 5.9 102.6 5.9 102.3 5.9 102.0 5.9 101.7 5.8 101.4 5.6 101.1 5.5 100.8 5.5 100.5 5.5 100.2 5.5 99.9 5.5 99.6 5.3 99.3 5.2 99.0 5.1 98.7 5.1 98.4 5.1 98.1 5.1 97.9 5.0 98.2 4.8 98.5 M5.35 96.85 L5.5 96.7 5.5 96.5 5.5 96.4 5.4 96.7 5.35 96.85 M8.7 121.6 L8.7 121.9 8.7 122.2 8.7 122.5 8.6 122.8 8.5 123.1 8.3 123.4 8.3 123.7 8.3 124.0 8.3 124.3 8.3 124.6 8.3 124.9 8.2 125.2 8.1 125.5 7.9 125.8 7.8 126.1 7.6 126.4 7.5 126.7 7.3 127.0 7.2 127.3 7.0 127.6 6.6 127.9 6.4 128.1 6.1 128.2 5.5 128.3 4.7 128.5 3.9 128.7 -2.5 128.9 -3.3 129.1 -5.3 129.3 -5.9 129.6 -6.3 129.8 -7.0 130.0 -7.4 130.3 -7.9 130.6 -8.1 130.9 -8.1 131.2 -8.2 131.5 -8.3 131.8 -8.4 132.1 -8.5 132.4 -8.5 132.7 -8.5 133.0 -8.5 133.3 -8.5 133.6 -8.6 133.9 -8.7 134.2 -8.8 134.5 -8.7 134.8 -8.6 135.1 -8.5 135.4 -8.4 135.7 -8.3 136.0 -8.2 136.3 -8.1 136.6 -8.1 136.9 -8.1 137.2 -8.1 137.5 -8.0 137.8 -7.8 138.1 -7.7 138.4 -7.5 138.7 -7.4 139.0 -6.9 139.3 -6.4 139.6 -6.1 139.9 -5.9 140.2 -5.5 140.5 -5.1 140.8 -4.7 141.0 -4.5 141.1 -3.7 141.3 -2.9 141.5 -2.1 141.7 -1.5 142.0 -1.1 142.2 1.9 142.3 2.7 142.5 14.6 142.5 15.5 142.3 17.4 142.1 18.3 141.9 19.0 141.7 19.9 141.5 21.4 141.3 22.3 141.1 23.4 140.9 24.3 140.7 25.0 140.5 25.1 140.2 25.1 139.9 25.1 139.6 25.1 139.3 25.1 139.0 25.1 138.7 25.1 138.4 25.1 138.1 25.1 137.8 25.1 137.5 25.1 137.2 25.1 136.9 25.1 136.6 25.1 136.3 25.1 136.0 25.1 135.7 25.1 135.4 25.1 135.1 25.1 134.8 24.9 134.5 24.8 134.2 24.7 133.9 24.7 133.6 24.7 133.3 24.7 133.0 24.7 132.7 24.7 132.4 24.5 132.1 24.4 131.8 24.3 131.5 24.1 131.2 24.0 130.9 23.9 130.6 23.8 130.3 23.7 130.0 23.6 129.7 23.5 129.4 23.5 129.1 23.5 128.8 23.3 128.5 23.2 128.2 23.2 128.15 23.0 128.3 22.8 128.5 22.5 128.6 21.9 128.7 17.9 128.7 17.0 128.5 16.6 128.2 16.4 128.0 16.3 127.9 15.4 127.7 15.0 127.4 14.6 127.1 14.0 126.8 13.4 126.5 13.0 126.2 12.6 125.9 12.0 125.6 11.7 125.3 11.4 125.0 11.1 124.7 10.8 124.4 10.5 124.1 10.4 123.8 10.3 123.5 10.0 123.2 9.7 122.9 9.4 122.6 9.1 122.3 8.9 122.0 8.8 121.7 8.7 121.4 8.7 121.6 M1.4 146.5 L1.1 146.5 1.1 146.8 1.1 147.1 1.1 147.4 1.1 147.7 1.1 148.0 1.1 148.3 1.1 148.6 1.1 148.9 1.1 149.2 1.1 149.5 1.1 149.8 1.1 150.1 1.1 150.4 1.1 150.7 1.1 151.0 1.1 151.3 1.1 151.6 1.1 151.9 1.1 152.2 1.1 152.5 1.1 152.8 1.1 153.1 1.1 153.4 1.1 153.7 1.1 154.0 1.1 154.3 1.1 154.6 1.1 154.9 1.1 155.2 1.1 155.5 1.1 155.8 1.1 156.1 1.1 156.4 1.1 156.7 1.2 157.0 1.4 157.3 1.5 157.6 1.7 157.9 1.8 158.2 2.1 158.5 2.3 158.8 2.5 159.1 2.6 159.4 2.9 159.7 3.1 160.0 3.3 160.3 3.4 160.6 3.9 160.9 4.5 161.2 4.9 161.4 5.5 161.5 6.3 161.7 9.3 161.7 9.6 161.4 10.1 161.2 10.8 161.0 11.1 160.7 11.4 160.4 11.7 160.1 12.0 159.8 12.3 159.5 12.6 159.2 12.8 158.9 12.9 158.6 13.0 158.3 13.1 158.0 13.2 157.7 13.3 157.4 13.4 157.1 13.5 156.8 13.5 156.5 13.5 156.2 13.5 155.9 13.5 155.6 13.5 155.3 13.5 155.0 13.5 154.7 13.5 154.4 13.5 154.1 13.5 153.8 13.5 153.5 13.5 153.2 13.5 152.9 13.5 152.6 13.5 152.3 13.5 152.0 13.5 151.7 13.5 151.4 13.5 151.1 13.5 150.8 13.5 150.5 13.5 150.2 13.6 149.9 13.8 149.6 13.9 149.3 13.9 149.0 13.9 148.7 13.9 148.4 13.9 148.1 13.8 147.8 13.6 147.5 13.5 147.2 13.5 146.9 13.5 146.7 2.3 146.7 1.4 146.5" fill="#000000" fill-rule="evenodd" stroke="none"/>
  </g>
</svg>
