<?xml version="1.0" encoding="UTF-8" standalone="no"?>
<svg xmlns:ffdec="https://www.free-decompiler.com/flash" xmlns:xlink="http://www.w3.org/1999/xlink" ffdec:objectType="shape" height="32.7px" width="76.2px" xmlns="http://www.w3.org/2000/svg">
  <g transform="matrix(1.0, 0.0, 0.0, 1.0, 51.5, -133.65)">
    <path d="M19.6 144.1 Q24.7 148.7 24.7 156.25 24.7 159.5 24.05 160.55 21.85 164.05 13.75 163.15 13.15 163.75 12.9 164.7 12.7 165.45 12.15 165.7 L-0.95 166.35 Q-6.9 166.35 -8.05 162.25 -8.45 160.95 -8.3 159.35 L-8.05 157.9 Q-8.05 149.2 -2.95 144.25 1.6 139.85 8.35 139.9 14.9 139.9 19.6 144.1" fill="#c7fafe" fill-opacity="0.72156864" fill-rule="evenodd" stroke="none"/>
    <path d="M-38.3 145.9 Q-39.7 148.75 -42.15 148.75 -47.05 148.75 -49.7 145.55 -51.5 143.4 -51.5 141.65 -51.5 132.05 -44.35 133.95 -41.65 134.7 -39.5 136.85 -37.25 139.05 -37.25 141.05 -37.25 143.65 -38.3 145.9" fill="#c7fafe" fill-opacity="0.72156864" fill-rule="evenodd" stroke="none"/>
  </g>
</svg>
