<?xml version="1.0" encoding="UTF-8" standalone="no"?>
<svg xmlns:ffdec="https://www.free-decompiler.com/flash" xmlns:xlink="http://www.w3.org/1999/xlink" ffdec:objectType="shape" height="46.6px" width="125.2px" xmlns="http://www.w3.org/2000/svg">
  <g transform="matrix(1.0, 0.0, 0.0, 1.0, 87.6, -120.7)">
    <path d="M2.25 142.2 Q1.6 144.1 -0.95 145.1 L-8.3 145.1 Q-10.0 143.25 -16.05 138.35 -18.25 136.55 -18.25 132.75 -18.25 123.25 -15.0 121.25 -12.3 119.55 -7.9 123.2 -4.1 126.35 -0.8 131.7 2.45 136.95 2.45 139.75 L2.25 142.2 M27.65 142.7 Q30.9 144.8 34.6 154.4 36.4 159.2 37.6 163.75 37.6 165.2 36.65 166.15 35.5 167.3 33.25 167.3 23.35 167.3 15.45 160.5 12.8 158.25 10.9 155.65 9.35 153.55 9.35 152.95 9.35 149.7 12.2 147.7 16.35 144.7 27.65 142.7" fill="#c7fafe" fill-opacity="0.72156864" fill-rule="evenodd" stroke="none"/>
    <path d="M-87.4 152.85 L-87.6 151.05 Q-87.6 146.0 -82.8 146.8 -80.95 147.1 -79.5 148.25 -78.0 149.4 -78.0 150.65 -78.0 154.35 -82.85 154.35 -86.55 154.35 -87.4 152.85" fill="#c7fafe" fill-opacity="0.72156864" fill-rule="evenodd" stroke="none"/>
  </g>
</svg>
