<?xml version="1.0" encoding="UTF-8" standalone="no"?>
<svg xmlns:ffdec="https://www.free-decompiler.com/flash" xmlns:xlink="http://www.w3.org/1999/xlink" ffdec:objectType="shape" height="83.9px" width="65.0px" xmlns="http://www.w3.org/2000/svg">
  <g transform="matrix(1.0, 0.0, 0.0, 1.0, 418.0, 21.55)">
    <path d="M-411.3 -12.5 L-411.5 -12.15 -411.75 -11.75 -412.1 -11.35 -412.25 -11.0 -410.7 -11.6 Q-405.05 -14.45 -399.4 -11.4 L-398.85 -10.65 -397.7 -8.7 -395.5 -4.2 -394.5 -1.65 -394.5 -1.25 -394.5 -0.9 -394.5 -0.5 -394.5 0.6 -394.5 0.75 -394.5 1.1 -394.5 1.85 -394.5 3.25 -394.5 3.35 -394.5 3.75 -394.65 4.1 -394.8 4.5 -395.0 4.85 -395.0 5.25 -395.0 5.6 -395.0 6.0 -395.0 6.75 -395.15 7.1 -395.3 7.5 -395.5 7.85 -395.8 8.2 -396.25 8.6 -397.0 9.0 Q-398.45 10.4 -400.2 11.35 L-404.0 13.5 -404.4 13.85 -404.8 14.2 -406.0 15.0 -406.4 15.35 -406.75 15.75 -407.75 16.5 -408.0 16.85 -408.25 17.25 -408.75 17.6 -409.25 18.0 -409.5 18.35 -409.75 18.75 -410.15 19.1 -410.5 19.5 -411.25 21.0 -412.55 24.35 -413.0 25.5 -413.0 25.85 -413.0 26.25 -413.0 27.0 -413.0 27.75 -412.95 28.1 -412.8 28.5 -412.65 28.85 -412.5 29.25 -412.5 29.6 -412.5 30.0 -412.5 30.75 -412.5 31.85 -412.4 32.25 -412.25 32.6 -412.15 33.0 -412.0 33.35 -412.0 33.75 -412.0 34.1 -412.0 34.5 -412.0 34.85 -411.85 35.25 -411.4 36.4 -410.5 38.6 -410.5 39.0 -410.5 39.35 -408.5 44.05 Q-407.55 46.15 -406.2 48.15 -405.6 49.1 -404.65 49.85 L-404.4 50.25 -404.25 50.6 -404.0 51.0 Q-400.8 53.55 -397.2 55.65 -395.6 56.6 -393.75 57.1 -380.6 58.6 -368.45 54.0 L-368.4 53.75 -368.25 53.35 -368.0 53.0 -367.6 52.65 -367.15 52.25 -366.0 52.0 -364.45 51.6 -364.25 51.35 -364.0 51.0 -363.65 50.6 -363.25 50.25 -363.05 49.85 -362.85 49.5 -362.6 49.15 -361.75 48.05 -360.95 46.55 -360.65 46.1 -360.55 45.75 -360.5 45.35 -360.4 45.0 -360.15 44.6 -359.9 44.25 -359.75 43.85 -359.65 43.5 -359.5 43.1 -359.5 42.75 -359.5 42.35 -359.35 42.0 -359.15 41.6 -358.9 41.25 -358.65 40.5 -358.4 39.75 -358.15 39.0 -358.25 38.6 -358.4 38.25 -358.5 37.85 -358.5 37.5 -358.5 37.1 -358.5 36.75 -358.65 36.4 -358.85 36.0 -359.05 35.65 -359.25 35.25 -359.4 34.85 -359.5 34.5 -360.25 33.75 Q-361.1 32.85 -362.15 32.1 -364.8 30.3 -368.0 31.25 -375.0 36.85 -383.4 39.1 -387.4 40.2 -391.5 40.1 L-397.65 39.25 -398.1 38.85 -398.5 38.5 -398.9 38.1 -399.25 37.75 -399.65 37.35 -399.85 37.0 -400.05 36.65 -400.25 36.25 -400.6 35.85 -400.9 35.5 -400.95 35.1 -401.0 34.75 -401.0 34.35 -401.0 34.0 -401.0 33.25 -401.0 32.5 -401.05 32.15 -401.25 31.75 -401.4 31.35 -401.5 31.0 -401.5 30.6 -401.5 30.25 -401.5 29.85 -401.5 29.5 -401.5 29.1 -401.4 28.75 -401.25 28.35 -401.15 28.0 -401.0 27.6 -401.0 27.25 -401.0 26.85 -400.85 26.5 -400.65 26.1 -400.55 25.75 -400.45 25.4 -400.4 25.0 -400.1 24.65 -399.75 24.25 -399.4 23.85 -398.65 23.1 -397.9 22.35 -396.4 21.8 -392.5 20.05 Q-389.9 18.95 -388.0 17.0 L-387.9 16.6 -387.75 16.25 -387.5 15.85 -387.2 15.1 -387.0 14.4 -386.9 14.0 -386.6 13.65 -386.25 13.25 -386.0 12.85 -385.6 12.15 -385.0 11.35 -385.0 11.0 -385.0 10.6 -385.0 10.25 -385.0 9.85 -384.85 9.5 -384.65 9.1 -384.5 8.75 -384.5 8.35 -384.5 8.0 -384.4 7.6 -384.4 7.25 -384.5 6.85 -384.5 6.5 -384.5 6.1 -384.75 5.75 -384.9 5.35 -385.0 5.0 -385.0 4.6 -385.0 4.25 -385.0 3.85 -385.15 3.5 -385.25 3.1 -385.4 2.75 -385.5 2.35 -385.5 2.0 -385.5 1.6 -386.1 0.55 -387.9 -4.05 Q-389.35 -7.45 -391.25 -10.75 L-391.65 -11.15 -392.0 -11.5 -392.25 -11.9 -392.4 -12.25 -392.65 -12.65 -393.0 -13.0 -393.4 -13.4 -393.75 -13.75 -394.5 -14.5 -394.9 -14.9 -395.65 -15.25 -396.4 -15.65 Q-399.9 -16.55 -403.5 -16.25 -408.05 -15.9 -411.15 -12.9 L-411.3 -12.5 M-415.5 -16.0 L-414.35 -17.1 Q-410.25 -21.25 -404.15 -21.35 L-403.0 -21.5 Q-398.25 -21.8 -393.95 -19.95 -390.5 -18.5 -388.0 -15.5 L-387.85 -15.15 -387.65 -14.75 -387.35 -14.4 -387.0 -14.0 -386.65 -13.65 -385.65 -11.75 Q-383.95 -8.45 -382.5 -5.0 -381.05 -1.7 -380.0 1.75 L-380.0 2.1 -380.0 2.5 -380.0 2.85 -379.9 3.25 -379.75 3.6 -379.65 4.0 -379.5 4.35 -379.5 4.75 -379.5 5.1 -379.3 5.5 -379.15 5.85 -379.0 6.25 -379.0 6.6 -379.0 7.0 -379.0 7.35 -379.0 7.75 -379.0 8.1 -379.0 8.5 -379.0 8.85 -379.15 9.25 -379.35 9.65 -379.5 10.0 -379.5 10.35 -379.5 10.75 -379.65 11.1 -379.8 11.5 -380.0 11.85 -380.0 12.25 -380.0 12.6 -380.0 13.0 -380.0 13.35 -380.15 13.75 -380.35 14.15 -380.5 14.5 -380.9 14.85 -381.25 15.25 -381.65 15.6 -381.8 16.0 -381.95 16.4 -382.05 16.75 -382.45 17.9 -383.25 19.4 -383.65 20.1 -384.35 20.9 -386.5 22.75 Q-389.6 24.85 -393.15 26.1 L-393.6 26.5 -393.9 26.75 -394.25 26.85 -395.15 27.1 -395.45 27.55 -395.55 27.85 -395.65 28.25 -395.85 28.65 -396.0 29.0 -396.0 29.35 -396.05 29.75 -396.15 30.1 -396.1 30.5 -396.05 30.85 -396.0 31.25 -396.0 31.6 -396.0 32.0 -396.0 32.35 -396.0 32.75 -395.95 33.1 -395.8 33.5 -395.6 33.85 -395.25 34.25 -395.0 34.45 -394.0 34.7 -391.5 35.0 -390.75 35.1 Q-383.25 34.2 -377.2 30.2 -373.3 27.65 -368.9 26.3 L-365.0 25.5 -361.05 26.8 Q-356.25 28.55 -354.35 33.05 -353.85 34.15 -353.5 35.35 L-353.5 35.75 -353.5 36.1 -353.3 36.5 -353.15 36.85 -353.0 37.25 -353.0 37.6 -353.0 38.0 -353.0 38.35 -353.0 39.1 -353.0 39.85 -353.0 40.6 -353.6 42.5 Q-354.7 45.85 -356.3 48.9 -357.85 51.95 -360.0 54.5 L-360.25 54.9 -360.4 55.25 -360.65 55.6 -361.0 55.95 -362.05 56.6 -362.95 56.9 -363.0 57.0 Q-379.3 65.1 -397.3 60.95 -399.55 60.45 -401.5 59.3 -406.05 56.5 -409.65 52.35 L-409.85 52.0 -410.05 51.65 -410.25 51.25 -410.65 50.85 -411.0 50.5 -411.25 50.1 -411.4 49.75 -411.65 49.35 -411.9 49.0 Q-411.95 48.15 -412.25 47.45 -413.05 45.65 -414.1 44.0 L-414.9 43.0 -415.2 41.45 -416.35 38.05 Q-416.55 37.3 -417.0 36.6 L-417.0 36.25 -417.0 35.85 -417.0 35.5 -417.05 35.15 -417.25 34.75 -417.4 34.35 -417.5 34.0 -417.5 33.6 -417.5 32.85 -417.5 31.35 -417.5 31.0 -417.55 30.65 -417.75 30.25 -417.9 29.85 -418.0 29.5 -418.0 28.35 -418.0 25.35 -418.0 23.5 -417.7 22.8 Q-417.05 21.7 -416.7 20.55 L-416.4 19.0 -416.15 18.6 -415.9 18.25 -415.55 17.5 -415.25 16.75 -414.9 16.35 -414.5 16.0 -414.15 15.6 -413.9 15.25 -413.75 14.9 -413.5 14.5 -413.1 14.15 -412.6 13.75 -411.9 13.35 -411.15 12.6 -409.1 10.8 -408.4 10.35 -408.0 10.0 -407.6 9.65 -406.4 8.85 Q-405.2 7.55 -403.6 6.8 -401.75 5.95 -400.15 4.75 L-400.05 4.35 -400.0 4.0 -400.0 3.6 -400.0 2.85 -399.9 2.5 -399.5 2.05 -399.5 1.85 -399.5 1.1 -399.5 0.35 -399.65 0.0 -399.85 -0.75 -400.6 -2.65 -402.15 -5.65 -402.5 -6.4 -402.8 -6.7 -403.4 -7.15 -403.75 -7.35 -404.0 -7.5 -405.15 -7.7 -406.0 -7.7 -407.0 -7.5 -407.75 -7.25 -408.25 -6.9 -408.6 -6.45 -408.75 -6.15 -408.9 -5.75 -409.15 -5.4 -409.5 -5.0 -409.9 -4.65 -410.25 -4.25 -410.75 -3.9 -411.25 -3.65 -412.25 -3.35 -412.75 -3.2 Q-414.45 -2.75 -416.15 -3.25 L-416.6 -3.65 -417.0 -4.0 -417.25 -4.4 -417.4 -4.75 -417.65 -5.15 -417.9 -5.5 -417.95 -5.9 -418.0 -6.25 -418.0 -6.65 -418.0 -7.75 -418.0 -9.25 -418.0 -10.4 -417.9 -10.75 -417.75 -11.15 -417.65 -11.5 -417.4 -12.25 -417.0 -13.4 -416.75 -14.15 -416.5 -14.5 -416.15 -14.9 -415.9 -15.25 -415.75 -15.6 -415.5 -16.0" fill="#000000" fill-rule="evenodd" stroke="none"/>
    <path d="M-411.3 -12.5 L-411.15 -12.9 Q-408.05 -15.9 -403.5 -16.25 -399.9 -16.55 -396.4 -15.65 L-395.65 -15.25 -394.9 -14.9 -394.5 -14.5 -393.75 -13.75 -393.4 -13.4 -393.0 -13.0 -392.65 -12.65 -392.4 -12.25 -392.25 -11.9 -392.0 -11.5 -391.65 -11.15 -391.25 -10.75 Q-389.35 -7.45 -387.9 -4.05 L-386.1 0.55 -385.5 1.6 -385.5 2.0 -385.5 2.35 -385.4 2.75 -385.25 3.1 -385.15 3.5 -385.0 3.85 -385.0 4.25 -385.0 4.6 -385.0 5.0 -384.9 5.35 -384.75 5.75 -384.5 6.1 -384.5 6.5 -384.5 6.85 -384.4 7.25 -384.4 7.6 -384.5 8.0 -384.5 8.35 -384.5 8.75 -384.65 9.1 -384.85 9.5 -385.0 9.85 -385.0 10.25 -385.0 10.6 -385.0 11.0 -385.0 11.35 -385.6 12.15 -386.0 12.85 -386.25 13.25 -386.6 13.65 -386.9 14.0 -387.0 14.4 -387.2 15.1 -387.5 15.85 -387.75 16.25 -387.9 16.6 -388.0 17.0 Q-389.9 18.95 -392.5 20.05 L-396.4 21.8 -397.9 22.35 -398.65 23.1 -399.4 23.85 -399.75 24.25 -400.1 24.65 -400.4 25.0 -400.45 25.4 -400.55 25.75 -400.65 26.1 -400.85 26.5 -401.0 26.85 -401.0 27.25 -401.0 27.6 -401.15 28.0 -401.25 28.35 -401.4 28.75 -401.5 29.1 -401.5 29.5 -401.5 29.85 -401.5 30.25 -401.5 30.6 -401.5 31.0 -401.4 31.35 -401.25 31.75 -401.05 32.15 -401.0 32.5 -401.0 33.25 -401.0 34.0 -401.0 34.35 -401.0 34.75 -400.95 35.1 -400.9 35.5 -400.6 35.85 -400.25 36.25 -400.05 36.65 -399.85 37.0 -399.65 37.35 -399.25 37.75 -398.9 38.1 -398.5 38.5 -398.1 38.85 -397.65 39.25 -391.5 40.1 Q-387.4 40.2 -383.4 39.1 -375.0 36.85 -368.0 31.25 -364.8 30.3 -362.15 32.1 -361.1 32.85 -360.25 33.75 L-359.5 34.5 -359.4 34.85 -359.25 35.25 -359.05 35.65 -358.85 36.0 -358.65 36.4 -358.5 36.75 -358.5 37.1 -358.5 37.5 -358.5 37.85 -358.4 38.25 -358.25 38.6 -358.15 39.0 -358.4 39.75 -358.65 40.5 -358.9 41.25 -359.15 41.6 -359.35 42.0 -359.5 42.35 -359.5 42.75 -359.5 43.1 -359.65 43.5 -359.75 43.85 -359.9 44.25 -360.15 44.6 -360.4 45.0 -360.5 45.35 -360.55 45.75 -360.65 46.1 -360.95 46.55 -361.75 48.05 -362.6 49.15 -362.85 49.5 -363.05 49.85 -363.25 50.25 -363.65 50.6 -364.0 51.0 -364.25 51.35 -364.45 51.6 -366.0 52.0 -367.15 52.25 -367.6 52.65 -368.0 53.0 -368.25 53.35 -368.4 53.75 -368.45 54.0 Q-380.6 58.6 -393.75 57.1 -395.6 56.6 -397.2 55.65 -400.8 53.55 -404.0 51.0 L-404.25 50.6 -404.4 50.25 -404.65 49.85 Q-405.6 49.1 -406.2 48.15 -407.55 46.15 -408.5 44.05 L-410.5 39.35 -410.5 39.0 -410.5 38.6 -411.4 36.4 -411.85 35.25 -412.0 34.85 -412.0 34.5 -412.0 34.1 -412.0 33.75 -412.0 33.35 -412.15 33.0 -412.25 32.6 -412.4 32.25 -412.5 31.85 -412.5 30.75 -412.5 30.0 -412.5 29.6 -412.5 29.25 -412.65 28.85 -412.8 28.5 -412.95 28.1 -413.0 27.75 -413.0 27.0 -413.0 26.25 -413.0 25.85 -413.0 25.5 -412.55 24.35 -411.25 21.0 -410.5 19.5 -410.15 19.1 -409.75 18.75 -409.5 18.35 -409.25 18.0 -408.75 17.6 -408.25 17.25 -408.0 16.85 -407.75 16.5 -406.75 15.75 -406.4 15.35 -406.0 15.0 -404.8 14.2 -404.4 13.85 -404.0 13.5 -400.2 11.35 Q-398.45 10.4 -397.0 9.0 L-396.25 8.6 -395.8 8.2 -395.5 7.85 -395.3 7.5 -395.15 7.1 -395.0 6.75 -395.0 6.0 -395.0 5.6 -395.0 5.25 -395.0 4.85 -394.8 4.5 -394.65 4.1 -394.5 3.75 -394.5 3.35 -394.5 3.25 -394.5 1.85 -394.5 1.1 -394.5 0.75 -394.5 0.6 -394.5 -0.5 -394.5 -0.9 -394.5 -1.25 -394.5 -1.65 -395.5 -4.2 -397.7 -8.7 -398.85 -10.65 -399.4 -11.4 Q-405.05 -14.45 -410.7 -11.6 L-412.25 -11.0 -412.1 -11.35 -411.75 -11.75 -411.5 -12.15 -411.3 -12.5" fill="#80a839" fill-rule="evenodd" stroke="none"/>
  </g>
</svg>
