<?xml version="1.0" encoding="UTF-8" standalone="no"?>
<svg xmlns:ffdec="https://www.free-decompiler.com/flash" xmlns:xlink="http://www.w3.org/1999/xlink" ffdec:objectType="shape" height="15.6px" width="40.7px" xmlns="http://www.w3.org/2000/svg">
  <g transform="matrix(1.0, 0.0, 0.0, 1.0, 19.95, 0.25)">
    <path d="M20.35 15.2 L16.3 15.35 12.65 15.25 Q12.55 15.1 12.3 15.1 L10.35 15.35 9.75 15.35 2.5 15.25 -0.3 15.05 -2.8 14.8 -4.9 14.85 -6.8 14.95 -6.95 14.95 -10.25 15.1 -15.25 14.85 -14.9 14.8 -17.3 14.9 -18.65 15.1 -19.75 14.8 -19.9 14.25 -16.45 8.3 -12.55 1.9 -12.65 1.8 Q-12.45 1.6 -11.85 1.55 L-11.75 1.55 -10.25 1.55 -7.5 1.55 Q-7.95 1.45 -6.8 1.4 L-4.9 1.35 -3.75 1.35 6.25 1.55 9.75 1.25 10.55 1.1 Q11.75 0.9 11.75 1.7 L11.65 1.9 12.9 3.45 15.85 7.6 Q16.7 8.6 18.35 11.45 L19.8 14.05 20.1 14.0 Q20.75 14.0 20.75 14.5 20.75 15.1 20.35 15.2 M12.35 4.05 L11.15 2.15 10.9 2.2 10.75 2.25 10.0 2.4 9.75 2.45 9.0 2.5 6.25 2.6 3.7 2.6 -1.65 2.5 -2.1 2.5 -2.45 2.35 -4.9 2.5 -5.55 2.5 -10.25 2.6 -10.6 2.6 -11.85 2.6 -11.95 2.6 -13.4 4.65 -14.3 6.05 -15.45 7.75 -15.95 8.65 -16.45 9.6 -17.9 12.35 -18.85 14.0 -17.65 14.0 -17.3 13.95 -14.85 13.75 -15.2 13.8 -12.4 13.85 -11.85 14.0 -11.55 14.0 -7.6 14.0 -6.8 13.95 -5.45 13.9 -4.9 13.9 -2.85 13.75 -0.25 13.95 0.2 14.0 4.25 14.1 10.35 14.3 12.0 14.1 16.3 14.3 18.85 14.15 18.75 14.0 15.4 8.85 12.4 4.1 12.35 4.05" fill="#000000" fill-rule="evenodd" stroke="none"/>
    <path d="M10.9 2.2 L11.15 2.15 12.35 4.05 11.1 2.4 10.9 2.2" fill="#ff9c09" fill-rule="evenodd" stroke="none"/>
    <path d="M3.7 2.6 L6.25 2.6 9.0 2.5 8.9 2.8 9.65 4.7 9.75 4.95 10.25 5.85 10.8 6.55 10.85 6.6 11.45 7.9 11.9 9.3 11.7 9.75 11.15 9.8 10.95 9.9 10.75 10.0 10.25 9.85 9.75 9.7 9.25 10.0 8.9 9.85 8.7 9.65 7.85 9.7 7.25 10.1 6.75 9.85 6.25 10.25 Q5.9 10.25 5.75 9.95 L5.65 9.6 5.55 9.55 5.0 9.85 Q4.75 9.85 4.65 9.35 L4.5 8.75 4.4 7.6 4.5 5.85 4.9 5.45 Q4.85 4.2 4.45 3.45 L3.7 2.6" fill="#bcbcbc" fill-rule="evenodd" stroke="none"/>
    <path d="M12.35 4.05 L12.4 4.1 15.4 8.85 15.65 9.45 15.45 9.95 14.9 10.25 Q14.55 10.25 14.35 9.95 L14.25 9.6 13.75 10.0 11.45 7.9 10.85 6.6 10.8 6.55 10.25 5.85 9.75 4.95 9.65 4.7 8.9 2.8 9.0 2.5 9.75 2.45 10.0 2.4 10.75 2.25 10.9 2.2 11.1 2.4 12.35 4.05" fill="#aeaeae" fill-rule="evenodd" stroke="none"/>
    <path d="M15.4 8.85 L18.75 14.0 0.2 14.0 -0.25 13.95 -2.85 13.75 -4.9 13.9 -5.45 13.9 -6.8 13.95 -7.6 14.0 -11.55 14.0 -11.85 14.0 -12.4 13.85 -15.2 13.8 -14.85 13.75 -17.3 13.95 -17.65 14.0 -18.85 14.0 -17.9 12.35 -16.45 9.6 -16.25 9.6 -15.6 9.05 -14.95 8.35 Q-14.95 9.15 -14.0 9.75 L-13.4 9.3 -13.2 9.4 -13.05 9.5 -12.85 9.8 -12.4 10.1 -12.0 9.8 -11.85 9.6 -11.6 9.3 -11.15 9.75 Q-10.85 9.75 -10.8 9.5 L-10.65 9.2 -10.25 8.6 -6.8 5.9 -5.45 4.4 -4.9 3.8 -4.75 3.25 Q-4.75 3.0 -4.9 2.8 L-5.55 2.5 -4.9 2.5 -2.45 2.35 -2.1 2.5 -1.65 2.5 -1.9 2.8 -1.95 3.05 Q-2.75 4.0 -2.75 4.85 L-2.7 5.55 Q-3.5 7.15 -3.5 8.95 -3.5 9.5 -3.0 9.5 L-2.55 9.2 -2.3 8.85 -2.15 9.55 -1.2 9.85 -0.5 9.7 -0.25 9.45 0.55 10.1 1.3 10.25 1.75 10.0 2.0 9.7 4.0 10.35 Q4.45 10.35 4.65 9.35 4.75 9.85 5.0 9.85 L5.55 9.55 5.65 9.6 5.75 9.95 Q5.9 10.25 6.25 10.25 L6.75 9.85 7.25 10.1 7.85 9.7 8.7 9.65 8.9 9.85 9.25 10.0 9.75 9.7 10.25 9.85 10.75 10.0 10.95 9.9 11.15 9.8 11.7 9.75 11.9 9.3 11.45 7.9 13.75 10.0 14.25 9.6 14.35 9.95 Q14.55 10.25 14.9 10.25 L15.45 9.95 15.65 9.45 15.4 8.85" fill="#ffffff" fill-rule="evenodd" stroke="none"/>
    <path d="M-16.45 9.6 L-15.95 8.65 -15.45 7.75 -14.3 6.05 -13.4 4.65 -11.95 2.6 -11.85 2.6 -10.6 2.6 -10.25 2.6 -5.55 2.5 -4.9 2.8 Q-4.75 3.0 -4.75 3.25 L-4.9 3.8 -5.45 4.4 -6.8 5.9 -10.25 8.6 -10.65 9.2 -10.8 9.5 Q-10.85 9.75 -11.15 9.75 L-11.6 9.3 -11.85 9.6 -12.0 9.8 -12.4 10.1 -12.85 9.8 -13.05 9.5 -13.2 9.4 -13.4 9.3 -14.0 9.75 Q-14.95 9.15 -14.95 8.35 L-15.6 9.05 -16.25 9.6 -16.45 9.6 M-1.65 2.5 L3.7 2.6 4.45 3.45 Q4.85 4.2 4.9 5.45 L4.5 5.85 4.4 7.6 4.5 8.75 4.65 9.35 Q4.45 10.35 4.0 10.35 L2.0 9.7 1.75 10.0 1.3 10.25 0.55 10.1 -0.25 9.45 -0.5 9.7 -1.2 9.85 -2.15 9.55 -2.3 8.85 -2.55 9.2 -3.0 9.5 Q-3.5 9.5 -3.5 8.95 -3.5 7.15 -2.7 5.55 L-2.75 4.85 Q-2.75 4.0 -1.95 3.05 L-1.9 2.8 -1.65 2.5" fill="#d8d8d8" fill-rule="evenodd" stroke="none"/>
    <path d="M-9.05 2.3 L-9.05 2.15 -8.75 1.55 Q-7.65 -0.6 -7.4 -0.05 L1.85 -0.1 2.3 -0.15 3.05 -0.25 6.25 -0.2 6.4 -0.2 6.45 -0.15 6.5 -0.1 6.5 -0.05 6.55 0.0 6.55 0.05 6.6 0.2 6.6 0.35 Q6.65 -1.2 8.05 1.65 L8.05 1.75 8.05 1.85 7.1 4.05 Q6.45 6.15 6.05 6.15 5.85 6.15 5.8 6.0 L-3.5 6.0 -3.55 5.95 -3.65 5.85 -3.7 5.8 -5.0 5.75 -5.95 5.9 -6.1 5.9 Q-6.1 6.25 -6.45 6.25 -6.95 6.25 -7.75 4.25 L-8.8 2.55 -9.05 2.3 M6.75 0.8 L6.6 0.45 6.6 0.5 6.65 0.65 6.65 0.8 6.65 0.85 6.45 1.45 6.45 1.55 6.4 1.6 5.95 2.35 5.85 2.55 5.45 3.1 5.45 3.25 5.75 3.6 5.55 3.9 5.55 3.95 5.2 4.0 1.25 4.1 -2.6 4.05 -3.25 4.05 -4.35 4.05 -5.25 4.05 -5.65 4.05 -5.8 4.05 -5.85 4.0 -5.9 3.95 -6.0 3.65 -6.0 3.6 -7.0 2.3 -7.6 1.05 -7.95 1.55 -8.25 2.05 Q-7.6 2.85 -6.45 5.1 L-6.4 5.2 -6.1 5.15 -3.45 5.25 5.9 5.25 6.05 4.8 6.15 4.5 6.2 4.45 6.6 3.4 7.2 2.2 7.35 1.9 7.35 1.85 7.0 1.25 6.75 0.8 M5.85 0.8 L5.95 0.55 0.25 0.65 0.15 0.6 -0.5 0.45 -6.2 0.45 -6.35 0.45 -6.4 0.5 -6.45 0.55 -6.5 0.6 -6.5 0.65 -7.05 0.65 -6.65 1.65 -5.65 2.75 -5.4 3.35 1.2 3.35 2.6 3.35 2.75 3.25 4.1 2.9 4.85 3.0 Q5.0 2.3 5.7 1.25 L5.9 1.0 5.85 0.8" fill="#000000" fill-rule="evenodd" stroke="none"/>
    <path d="M-3.7 5.8 L-3.65 5.85 -4.6 5.8 -3.7 5.8 M6.65 0.65 L6.75 0.8 6.65 0.85 6.65 0.8 6.65 0.65 M6.2 4.45 L6.15 4.5 6.05 4.8 5.85 4.45 6.0 4.45 6.2 4.45 M-6.4 5.2 L-6.45 5.1 -6.35 5.0 -6.4 5.2 M5.6 4.05 L5.55 3.95 5.6 3.95 5.6 4.05 M3.85 4.65 L4.9 4.5 5.0 4.65 3.85 4.65 M-4.85 4.1 L-5.15 4.15 -5.2 4.1 -4.85 4.1" fill="#f49300" fill-rule="evenodd" stroke="none"/>
    <path d="M8.05 1.85 Q8.5 1.85 8.5 2.25 L8.3 2.5 8.05 2.75 7.95 3.25 7.6 4.3 7.1 5.55 6.8 6.0 6.8 6.05 6.5 6.5 0.9 6.5 -4.55 6.6 -4.65 6.6 -7.15 6.5 -7.6 6.3 -7.9 5.75 -7.75 5.55 -8.0 5.25 -8.7 4.4 -9.05 3.55 -9.35 2.7 Q-9.35 2.35 -9.05 2.3 L-8.8 2.55 -7.75 4.25 Q-6.95 6.25 -6.45 6.25 -6.1 6.25 -6.1 5.9 L-5.95 5.9 -3.55 5.95 -3.5 6.0 5.8 6.0 Q5.85 6.15 6.05 6.15 6.45 6.15 7.1 4.05 L8.05 1.85 M6.75 0.8 L7.0 1.25 7.35 1.85 7.35 1.9 7.2 2.2 6.6 3.4 6.2 4.45 6.0 4.45 5.85 4.45 5.6 4.2 5.6 4.05 5.6 3.95 5.55 3.9 5.75 3.6 5.45 3.25 5.45 3.1 5.85 2.55 5.95 2.35 6.4 1.6 6.45 1.55 6.45 1.45 6.65 0.85 6.75 0.8" fill="#aeaeae" fill-rule="evenodd" stroke="none"/>
    <path d="M6.05 4.8 L5.9 5.25 -3.45 5.25 -6.1 5.15 -6.4 5.2 -6.35 5.0 -6.2 4.5 -5.85 4.05 -5.8 4.05 -5.65 4.05 -5.25 4.05 -5.2 4.1 -5.15 4.15 -4.85 4.1 -4.35 4.05 -3.25 4.05 -3.0 4.1 -2.75 4.1 -2.6 4.05 1.25 4.1 5.2 4.0 5.55 3.95 5.6 4.05 5.6 4.2 5.85 4.45 6.05 4.8 M3.85 4.65 L5.0 4.65 4.9 4.5 3.85 4.65" fill="#c1c1c1" fill-rule="evenodd" stroke="none"/>
    <path d="M-6.45 5.1 Q-7.6 2.85 -8.25 2.05 L-7.95 1.55 -7.6 1.05 -7.0 2.3 -6.0 3.6 -6.0 3.65 -5.9 3.95 -5.85 4.0 -5.85 4.05 -6.2 4.5 -6.35 5.0 -6.45 5.1" fill="#ffffff" fill-rule="evenodd" stroke="none"/>
    <path d="M13.4 2.05 L13.6 2.6 14.5 4.65 15.2 5.85 15.6 6.6 Q15.6 6.95 15.2 6.95 14.85 6.95 14.4 6.3 L14.05 5.65 13.5 5.0 Q13.05 4.75 12.95 4.4 L12.1 2.9 11.25 1.65 9.75 2.0 8.75 2.05 Q8.3 2.05 8.15 1.8 L8.05 1.5 Q8.05 1.2 8.4 1.1 L9.75 0.9 9.95 0.85 12.3 0.75 12.55 1.2 13.05 1.6 13.4 2.05 M-8.95 2.0 L-10.1 2.05 -12.35 1.9 -12.35 2.1 -12.85 2.95 -13.45 4.2 -13.7 5.35 Q-14.05 6.2 -14.5 6.2 L-14.85 6.1 -16.9 10.1 -17.9 12.45 Q-18.65 14.0 -18.95 14.0 -19.35 14.0 -19.35 13.55 L-18.25 10.85 -16.45 7.25 -15.95 6.4 -16.1 6.05 -13.6 0.9 -13.7 0.45 -13.45 0.1 -12.85 -0.1 Q-12.4 -0.3 -12.15 0.45 L-10.6 1.05 -9.75 1.1 Q-9.25 1.05 -8.95 1.3 L-8.7 1.65 -8.95 2.0" fill="#000000" fill-rule="evenodd" stroke="none"/>
  </g>
</svg>
