<?xml version="1.0" encoding="UTF-8" standalone="no"?>
<svg xmlns:ffdec="https://www.free-decompiler.com/flash" xmlns:xlink="http://www.w3.org/1999/xlink" ffdec:objectType="shape" height="19.45px" width="57.3px" xmlns="http://www.w3.org/2000/svg">
  <g transform="matrix(1.0, 0.0, 0.0, 1.0, 28.05, -4.0)">
    <path d="M29.0 4.55 Q28.95 5.2 29.25 5.5 L29.25 7.4 Q28.85 8.35 28.6 9.6 L27.65 12.6 27.0 13.5 22.6 19.85 Q21.3 21.95 20.1 22.5 L17.35 23.4 16.55 23.2 3.75 22.5 -2.75 23.45 -6.5 23.0 -17.75 22.9 -20.6 22.5 -21.0 22.55 Q-21.05 19.55 -22.2 17.55 -24.3 14.45 -26.0 11.0 L-26.9 8.15 Q-27.35 6.8 -28.05 5.95 L-27.55 5.15 -27.35 5.15 Q-26.25 5.4 -25.5 7.3 L-24.3 10.65 Q-23.35 10.9 -23.05 11.7 L-22.5 13.5 -22.15 14.95 Q-21.4 15.05 -20.95 16.9 L-19.35 20.9 Q-18.5 20.3 -15.35 19.95 L-11.75 19.6 -8.0 19.6 -7.75 19.7 -3.3 19.7 -3.0 19.6 17.6 19.6 18.7 19.95 19.3 18.45 Q20.1 16.45 21.25 14.75 L21.65 14.25 22.55 14.25 23.4 13.1 24.05 12.25 22.45 12.25 22.7 11.9 Q24.15 9.35 25.55 7.55 27.3 5.35 29.0 4.55" fill="#000000" fill-opacity="0.3372549" fill-rule="evenodd" stroke="none"/>
    <path d="M-17.8 20.95 L-18.75 20.95 -20.05 20.7 -20.2 20.35 -21.0 17.85 Q-21.55 17.65 -21.9 16.35 L-21.95 15.9 -22.3 15.2 -23.7 12.25 -23.95 12.25 -25.4 9.45 -25.4 9.2 -25.65 8.45 -25.6 8.1 -27.1 4.65 -19.55 4.65 -18.5 4.6 -18.4 4.6 -17.3 5.05 -17.25 5.3 -17.1 5.65 -16.85 6.3 -16.4 6.85 0.85 6.85 1.35 6.85 1.65 6.75 13.9 6.7 16.75 6.4 17.75 5.45 17.9 5.25 18.1 4.85 18.2 4.85 18.75 4.4 Q18.95 4.1 19.4 4.1 L27.25 4.1 27.9 4.0 Q28.35 4.0 28.35 4.5 28.35 5.65 23.8 12.25 L20.85 17.0 19.9 18.6 19.6 19.25 18.35 21.0 15.6 20.95 14.3 20.75 5.75 20.7 4.25 20.5 -0.3 20.5 -2.15 20.7 -9.55 20.75 -11.45 20.95 -16.25 20.95 -17.8 20.9 -17.8 20.95 M-21.65 12.3 Q-20.3 14.1 -20.3 15.05 L-20.3 15.3 -20.25 15.35 -20.15 15.95 -18.6 19.05 9.05 19.05 9.35 19.15 12.0 19.2 12.3 19.3 17.55 19.3 Q17.75 18.6 19.0 16.8 L19.9 15.5 Q20.1 14.65 20.9 13.35 L22.4 10.8 Q23.8 7.4 24.85 6.35 L22.15 6.0 19.45 5.9 18.65 7.0 Q17.4 8.6 16.85 8.6 L16.5 8.6 16.45 8.6 14.95 8.85 9.5 8.7 8.4 8.8 -0.55 8.7 -6.45 9.1 -12.3 8.9 -12.5 8.95 -15.1 8.95 Q-17.25 8.95 -17.65 8.55 L-18.0 7.6 -18.2 7.3 -18.5 6.9 -19.05 6.2 -24.55 6.15 -24.05 7.15 -23.95 7.15 -22.95 8.8 -23.0 8.75 -23.2 8.9 -23.15 9.05 -23.15 9.35 -23.15 9.4 Q-22.15 11.0 -21.65 12.25 L-21.7 12.25 -21.65 12.3" fill="#000000" fill-rule="evenodd" stroke="none"/>
    <path d="M-16.25 20.95 L-17.8 20.95 -17.8 20.9 -16.25 20.95 M-21.65 12.25 Q-22.15 11.0 -23.15 9.4 L-23.15 9.35 -23.15 9.05 -23.2 8.9 -23.0 8.75 -22.95 8.8 -23.95 7.15 -24.05 7.15 -24.55 6.15 -19.05 6.2 -18.5 6.9 -18.2 7.3 -18.0 7.6 -17.65 8.55 Q-17.25 8.95 -15.1 8.95 L-12.5 8.95 -12.3 8.9 -6.45 9.1 -0.55 8.7 8.4 8.8 9.5 8.7 14.95 8.85 16.45 8.6 16.5 8.6 16.85 8.6 Q17.4 8.6 18.65 7.0 L19.45 5.9 22.15 6.0 24.85 6.35 Q23.8 7.4 22.4 10.8 L20.9 13.35 Q20.1 14.65 19.9 15.5 L19.0 16.8 Q17.75 18.6 17.55 19.3 L12.3 19.3 12.0 19.2 9.35 19.15 9.05 19.05 -18.6 19.05 -20.15 15.95 -20.25 15.35 -20.3 15.3 -20.3 15.05 Q-20.3 14.1 -21.65 12.3 L-21.65 12.25 M-17.0 12.35 L-16.5 12.35 -16.45 12.25 -17.1 12.25 -17.0 12.35" fill="#cccccc" fill-rule="evenodd" stroke="none"/>
    <path d="M19.2 10.6 L19.3 11.35 17.8 14.25 17.95 14.25 17.7 14.75 17.3 15.35 16.6 16.55 16.6 16.7 16.35 17.2 15.8 17.55 11.0 17.55 7.95 17.2 3.25 17.1 2.95 17.05 -5.7 17.05 -6.0 17.1 -13.5 17.2 -15.8 17.35 Q-16.3 17.35 -16.4 17.05 L-17.15 16.3 -18.3 14.35 -18.95 12.25 -18.9 11.85 -19.0 11.55 Q-19.0 10.1 -18.35 10.55 L-18.15 10.4 -17.35 10.05 18.4 10.05 Q19.05 10.1 19.2 10.6 M3.45 15.55 L8.25 15.55 11.35 15.9 14.75 15.9 Q14.85 15.25 15.5 14.15 L16.5 12.55 17.15 11.6 -16.95 11.7 -17.3 11.8 -17.0 12.25 -17.2 12.25 Q-15.6 14.45 -15.6 15.55 L-15.7 16.0 -15.7 16.05 -13.75 15.55 -6.05 15.55 -5.75 15.45 3.15 15.45 3.45 15.55" fill="#000000" fill-rule="evenodd" stroke="none"/>
  </g>
</svg>
