<?xml version="1.0" encoding="UTF-8" standalone="no"?>
<svg xmlns:ffdec="https://www.free-decompiler.com/flash" xmlns:xlink="http://www.w3.org/1999/xlink" ffdec:objectType="shape" height="27.45px" width="14.3px" xmlns="http://www.w3.org/2000/svg">
  <g transform="matrix(1.0, 0.0, 0.0, 1.0, 8.4, -10.35)">
    <path d="M-7.0 12.7 L-7.6 12.25 -8.2 11.6 Q-8.2 11.05 -7.35 10.65 L-4.8 10.65 -4.7 11.0 -4.7 11.1 -4.35 11.0 -3.1 11.0 -3.1 10.75 1.7 10.75 1.85 10.8 2.8 10.45 Q4.2 10.1 4.2 11.15 L4.1 11.55 4.25 11.45 Q5.2 11.1 5.2 11.9 L5.1 12.7 4.95 13.0 5.1 14.35 Q5.1 15.7 4.6 16.45 L4.5 16.6 4.6 17.35 Q4.6 19.5 3.15 26.0 L2.65 28.75 Q1.4 36.1 0.55 36.65 L-0.05 36.45 -0.1 36.15 -0.25 36.1 -0.3 34.35 -0.45 32.5 Q-0.15 32.95 0.35 32.95 1.2 32.95 1.65 26.45 1.65 24.45 0.45 17.0 L0.2 15.7 -0.55 15.3 -1.05 14.45 -1.4 15.0 Q-1.5 15.2 -1.95 15.3 L-2.1 15.3 -1.95 16.3 -1.9 16.55 -1.95 16.5 -1.95 16.85 -1.85 16.75 -1.8 17.0 -1.05 20.8 -1.05 27.1 -1.25 25.65 -2.15 17.6 -2.1 16.95 -1.95 16.85 -2.45 17.1 -3.4 17.6 -3.3 17.75 Q-3.05 17.8 -3.05 19.35 -3.05 20.65 -3.7 23.95 L-4.0 25.4 -4.45 27.85 Q-4.8 31.0 -5.2 31.0 -5.75 31.0 -5.8 30.05 L-5.9 30.05 -5.9 29.45 -5.75 27.65 -6.35 24.2 -6.15 22.75 -5.9 26.7 -5.35 26.9 Q-4.7 26.45 -4.7 24.55 L-4.85 18.45 -5.05 16.15 Q-5.6 15.0 -6.0 12.4 L-6.0 12.35 -6.55 12.8 -7.0 12.7 M-7.45 16.2 L-7.55 15.45 -7.4 14.7 -7.4 14.85 -7.45 16.2 M2.6 12.15 L2.6 12.25 2.85 12.15 2.6 12.15" fill="#b9dbdf" fill-opacity="0.21568628" fill-rule="evenodd" stroke="none"/>
    <path d="M-0.45 32.5 L-0.7 32.05 -1.05 30.8 -1.05 27.1 -1.05 20.8 -1.8 17.0 -1.85 16.75 -1.9 16.55 -1.95 16.3 -2.1 15.3 -1.95 15.3 Q-1.5 15.2 -1.4 15.0 L-1.05 14.45 -0.55 15.3 0.2 15.7 0.45 17.0 Q1.65 24.45 1.65 26.45 1.2 32.95 0.35 32.95 -0.15 32.95 -0.45 32.5 M-6.35 24.2 Q-6.45 25.25 -6.65 25.25 -7.25 25.25 -7.4 22.5 L-7.4 19.75 -7.45 16.35 -7.45 16.2 -7.4 14.85 -7.4 14.7 -7.4 14.15 -7.25 13.1 -7.0 12.7 -6.55 12.8 -6.0 12.35 -6.0 12.4 Q-5.6 15.0 -5.05 16.15 L-4.85 18.45 -4.7 24.55 Q-4.7 26.45 -5.35 26.9 L-5.9 26.7 -6.15 22.75 -6.35 24.2" fill="#e9f4f5" fill-opacity="0.38431373" fill-rule="evenodd" stroke="none"/>
    <path d="M4.75 18.9 Q2.2 37.8 1.05 37.8 0.35 37.8 0.35 37.25 L-0.25 37.0 Q-0.25 36.05 -1.4 27.0 L-2.3 19.55 -3.3 24.1 Q-4.7 30.5 -5.35 31.55 L-5.9 31.35 -5.9 30.7 -5.9 30.25 -6.0 30.25 Q-6.7 30.25 -7.35 23.9 L-7.9 17.7 -7.9 17.25 -8.05 16.15 -8.4 13.15 Q-8.4 11.3 -8.1 11.2 -7.8 11.1 -7.4 12.25 -6.45 15.25 -6.45 18.6 L-6.5 18.95 -6.15 21.15 -5.75 25.0 -5.45 27.55 -3.9 20.65 -3.1 17.45 -3.1 15.15 -2.8 15.15 -2.5 15.15 -2.4 15.1 -2.2 14.85 -2.05 15.0 -1.75 14.9 Q-1.55 14.9 -1.55 15.95 L-1.6 16.45 -1.25 18.2 -0.8 21.15 -0.4 24.0 Q-0.15 24.75 0.4 29.5 L0.85 33.65 1.4 30.7 2.65 24.2 3.6 19.15 3.55 19.05 3.55 18.4 Q3.55 16.0 4.75 12.8 5.9 9.55 5.9 12.8 L4.75 18.9" fill="#000000" fill-rule="evenodd" stroke="none"/>
  </g>
</svg>
