<?xml version="1.0" encoding="UTF-8" standalone="no"?>
<svg xmlns:ffdec="https://www.free-decompiler.com/flash" xmlns:xlink="http://www.w3.org/1999/xlink" ffdec:objectType="shape" height="90.4px" width="62.0px" xmlns="http://www.w3.org/2000/svg">
  <g transform="matrix(1.0, 0.0, 0.0, 1.0, 416.0, 27.65)">
    <path d="M-410.0 -27.5 Q-402.75 -28.35 -397.45 -23.7 -396.25 -22.65 -394.7 -22.05 -391.4 -20.9 -389.0 -18.5 L-387.55 -17.7 -385.35 -16.15 -382.65 -13.65 -382.4 -13.25 -382.15 -12.5 -381.65 -11.0 -380.9 -9.15 -380.5 -8.4 -380.5 -8.0 -380.5 -7.65 -380.4 -7.25 -380.25 -6.9 -380.15 -6.5 -380.0 -6.15 -380.0 -5.4 -380.0 -3.9 -380.0 -1.25 -380.0 0.6 -380.0 2.1 -380.15 2.5 -380.45 3.2 -381.15 4.75 -381.95 6.6 -382.4 7.35 -382.5 7.75 -382.55 8.1 -382.65 8.5 -382.75 8.85 -382.9 9.25 -383.55 9.95 -385.75 12.25 -389.35 15.5 -390.65 16.35 -390.9 16.75 -391.15 17.1 -391.5 17.5 -391.9 17.85 -392.75 18.6 -393.15 18.8 -393.4 19.25 -393.8 20.0 -394.6 21.45 -395.0 22.6 -395.0 23.0 -395.0 23.35 -395.0 23.75 -395.0 24.1 -395.0 24.5 -395.0 24.85 -395.15 25.25 -395.25 25.6 -395.15 26.0 -395.0 26.35 -395.0 26.75 -395.0 27.1 -394.8 27.5 -394.6 27.85 -394.25 28.25 -394.0 28.6 -393.75 29.0 -393.25 29.35 -392.75 29.75 -392.4 30.1 -392.15 30.35 Q-384.5 33.75 -376.75 30.65 -374.8 29.9 -372.75 29.75 -367.75 25.55 -361.5 28.0 -358.05 29.35 -355.65 32.35 L-355.25 33.1 -354.85 33.85 Q-354.45 34.35 -354.35 34.95 L-354.0 36.1 -354.0 37.25 -354.0 38.75 -354.0 40.6 -354.0 41.75 -354.15 42.1 -354.3 42.5 -354.5 42.85 -354.5 43.25 -354.5 43.6 -354.5 44.0 -354.5 44.35 -354.65 44.75 -354.85 45.15 -355.0 45.5 -355.0 45.85 -355.0 46.25 -355.0 46.6 -355.0 47.0 -355.0 47.35 -356.1 49.95 -357.8 53.2 Q-358.75 54.85 -360.65 55.6 L-360.8 56.0 -361.0 56.35 -361.8 57.05 -363.2 57.9 -364.25 58.6 Q-371.55 61.85 -379.45 62.7 -381.55 62.95 -383.4 61.85 -386.8 61.7 -390.05 60.7 -391.4 60.3 -392.5 59.5 -395.05 58.7 -397.3 57.25 L-400.9 55.1 -401.25 54.75 -401.65 54.35 -402.0 54.0 -402.4 53.6 -405.2 51.45 -408.15 48.35 -409.65 46.85 -409.85 46.5 -410.05 46.15 -410.25 45.75 -410.65 45.35 -411.0 45.0 -411.25 44.6 -411.4 44.25 -411.6 43.85 -412.05 43.15 -412.5 42.0 -412.9 41.6 -413.2 41.2 -413.4 40.85 -413.45 40.5 -413.5 40.1 -413.5 39.75 -413.65 39.4 -413.85 39.0 -414.05 38.65 -414.25 38.25 -414.4 37.85 -414.5 37.5 -414.5 37.1 -414.5 36.75 -414.5 36.35 -414.65 36.0 -414.75 35.6 -414.9 35.25 -415.0 34.85 -415.0 34.5 -415.0 34.1 -415.0 33.75 -415.0 33.35 -415.15 33.0 -415.25 32.6 -415.4 32.25 -415.65 31.5 -416.0 30.35 -416.0 27.75 -416.0 24.35 -416.0 20.6 -416.0 19.1 -415.9 18.75 -415.75 18.35 -415.65 18.0 -415.5 17.6 -415.5 17.25 -415.5 16.85 -415.5 16.5 -415.5 16.1 -415.4 15.75 -415.25 15.35 -415.15 15.0 -415.0 14.6 -415.0 14.25 -415.0 13.85 -414.85 13.5 -414.65 13.1 -414.55 12.75 -414.45 12.4 -414.4 12.0 -414.15 11.6 -413.7 10.9 -413.15 9.8 -412.4 8.25 -412.0 7.5 Q-409.65 4.8 -406.65 3.0 -401.2 -0.2 -395.35 -2.55 -394.1 -3.05 -393.5 -4.15 L-393.95 -4.8 -395.35 -6.4 Q-396.75 -7.95 -398.45 -9.1 L-399.25 -9.75 -399.55 -9.95 -400.65 -10.25 -404.05 -12.45 -411.9 -17.2 -413.5 -18.5 -413.75 -18.9 -413.9 -19.25 -414.15 -19.65 -414.4 -20.0 -414.45 -20.4 -414.5 -20.75 -414.5 -21.15 -414.5 -21.5 -414.5 -22.25 -414.5 -23.0 -414.4 -23.4 -414.25 -23.75 -414.05 -24.15 -413.95 -24.5 -413.9 -24.9 -413.7 -25.2 -413.4 -25.65 -413.0 -26.0 -412.1 -26.65 -410.75 -27.4 -410.0 -27.45 -410.0 -27.5 M-409.0 -22.1 L-409.25 -21.9 -409.15 -21.8 Q-405.05 -19.05 -400.55 -16.8 -395.15 -14.05 -390.95 -9.55 L-389.5 -8.0 -389.35 -7.65 -389.15 -7.25 -389.0 -6.9 -388.8 -6.5 -388.65 -6.15 -388.5 -5.75 -388.5 -5.4 -388.5 -5.0 -388.5 -4.65 -388.5 -3.9 -388.5 -2.75 -388.5 -1.65 -388.65 -1.25 -388.85 -0.85 -389.0 -0.5 Q-392.3 2.0 -396.25 3.6 -401.75 5.8 -406.4 9.35 L-407.0 9.75 -407.35 10.15 -407.55 10.5 -407.75 10.9 -408.15 11.6 -408.75 12.35 -408.9 12.75 -409.0 13.1 -409.15 13.5 -409.1 13.5 -409.65 15.1 -410.5 17.35 -410.5 18.1 -410.5 18.85 -410.5 19.25 -410.65 19.6 -410.8 20.0 -411.0 20.35 -411.0 24.1 -411.0 27.1 -411.0 28.25 -410.75 29.0 -410.65 29.35 -410.5 29.75 -410.5 30.1 -410.5 30.5 -410.35 30.85 -410.15 31.25 -410.0 31.6 -410.0 32.35 -410.0 33.1 -410.0 33.5 -409.85 33.85 -409.65 34.25 -409.5 34.6 -409.5 35.0 -409.5 35.35 -409.05 36.5 -408.65 37.25 -408.5 37.6 -408.5 38.0 -408.5 38.35 -407.85 39.85 -407.3 41.0 -407.15 41.35 -406.4 42.1 -406.0 42.5 Q-404.75 44.6 -402.85 46.2 -401.6 47.3 -400.5 48.5 -398.05 50.4 -395.4 52.1 L-393.65 53.35 Q-387.85 56.1 -381.5 57.0 -373.1 56.95 -365.9 53.1 -365.2 51.75 -363.65 51.15 L-362.15 50.5 -361.0 48.2 -360.15 46.0 -360.0 45.6 -360.0 44.5 -360.0 43.75 -360.0 43.35 -359.85 43.0 -359.65 42.6 -359.5 42.25 -359.5 41.85 -359.5 41.5 -359.4 41.1 -359.25 40.75 -359.0 40.35 -359.0 39.6 -359.0 38.85 -359.0 38.5 -359.4 36.95 -359.85 35.85 -360.0 35.5 -361.15 34.35 -361.9 33.6 Q-367.2 31.45 -372.25 34.6 -373.4 35.3 -374.7 35.75 -384.75 39.3 -394.65 35.25 L-395.5 34.5 -395.9 34.1 -397.9 32.65 -398.25 32.25 -398.4 31.85 -398.5 31.5 -398.9 31.1 -399.25 30.75 -399.55 30.0 -399.85 29.25 -400.0 28.85 -400.0 28.5 -400.0 28.1 -400.25 27.75 -400.4 27.35 -400.5 27.0 -400.5 25.5 -400.5 24.35 -400.5 24.0 -400.4 23.6 -400.25 23.25 -400.0 22.85 -400.0 21.75 -400.0 21.0 -400.0 20.6 -399.0 18.35 -397.9 16.1 -397.75 15.75 -395.9 13.85 -395.5 13.5 -395.0 13.5 -394.9 13.1 -394.75 12.75 -394.4 12.35 -394.0 12.05 -393.35 11.65 -391.9 10.85 -391.5 10.5 -390.75 9.75 -389.25 8.25 -387.75 6.75 -387.55 6.35 -387.5 6.0 -387.5 5.6 -387.4 5.25 -387.25 4.85 -387.0 4.5 -386.45 3.7 -385.85 2.65 -385.3 1.15 -385.0 0.35 -385.0 0.0 -385.0 -0.4 -385.0 -0.75 -385.0 -1.9 -385.0 -3.4 -385.0 -4.15 -385.15 -4.5 -385.25 -4.9 -385.4 -5.25 -385.5 -5.65 -385.5 -6.0 -385.5 -6.4 -385.75 -6.75 -385.9 -7.15 -385.95 -7.5 -386.35 -8.65 -387.0 -10.15 -387.15 -10.5 -387.4 -10.85 -387.75 -11.25 -388.15 -11.65 -388.5 -12.0 -388.9 -12.4 -389.65 -12.75 -391.0 -13.55 -393.0 -15.0 -393.4 -15.4 -394.15 -15.75 -394.85 -16.15 -395.25 -16.35 -395.5 -16.5 -396.6 -16.85 -398.0 -17.5 -400.55 -18.95 -401.4 -19.4 -401.75 -19.75 -402.15 -20.1 -402.65 -20.5 -403.75 -21.25 -404.75 -21.9 -406.0 -22.05 -407.15 -22.15 -409.0 -22.1" fill="#000000" fill-rule="evenodd" stroke="none"/>
    <path d="M-409.15 -21.8 L-409.0 -22.1 -407.15 -22.15 -406.0 -22.05 -404.75 -21.9 -403.75 -21.25 -402.65 -20.5 -402.15 -20.1 -401.75 -19.75 -401.4 -19.4 -400.55 -18.95 -398.0 -17.5 -396.6 -16.85 -395.5 -16.5 -395.25 -16.35 -394.85 -16.15 -394.15 -15.75 -393.4 -15.4 -393.0 -15.0 -391.0 -13.55 -389.65 -12.75 -388.9 -12.4 -388.5 -12.0 -388.15 -11.65 -387.75 -11.25 -387.4 -10.85 -387.15 -10.5 -387.0 -10.15 -386.35 -8.65 -385.95 -7.5 -385.9 -7.15 -385.75 -6.75 -385.5 -6.4 -385.5 -6.0 -385.5 -5.65 -385.4 -5.25 -385.25 -4.9 -385.15 -4.5 -385.0 -4.15 -385.0 -3.4 -385.0 -1.9 -385.0 -0.75 -385.0 -0.4 -385.0 0.0 -385.0 0.35 -385.3 1.15 -385.85 2.65 -386.45 3.7 -387.0 4.5 -387.25 4.85 -387.4 5.25 -387.5 5.6 -387.5 6.0 -387.55 6.35 -387.75 6.75 -389.25 8.25 -390.75 9.75 -391.5 10.5 -391.9 10.85 -393.35 11.65 -394.0 12.05 -394.4 12.35 -394.75 12.75 -394.9 13.1 -395.0 13.5 -395.5 13.5 -395.9 13.85 -397.75 15.75 -397.9 16.1 -399.0 18.35 -400.0 20.6 -400.0 21.0 -400.0 21.75 -400.0 22.85 -400.25 23.25 -400.4 23.6 -400.5 24.0 -400.5 24.35 -400.5 25.5 -400.5 27.0 -400.4 27.35 -400.25 27.75 -400.0 28.1 -400.0 28.5 -400.0 28.85 -399.85 29.25 -399.55 30.0 -399.25 30.75 -398.9 31.1 -398.5 31.5 -398.4 31.85 -398.25 32.25 -397.9 32.65 -395.9 34.1 -395.5 34.5 -394.65 35.25 Q-384.75 39.3 -374.7 35.75 -373.4 35.3 -372.25 34.6 -367.2 31.45 -361.9 33.6 L-361.15 34.35 -360.0 35.5 -359.85 35.85 -359.4 36.95 -359.0 38.5 -359.0 38.85 -359.0 39.6 -359.0 40.35 -359.25 40.75 -359.4 41.1 -359.5 41.5 -359.5 41.85 -359.5 42.25 -359.65 42.6 -359.85 43.0 -360.0 43.35 -360.0 43.75 -360.0 44.5 -360.0 45.6 -360.15 46.0 -361.0 48.2 -362.15 50.5 -363.65 51.15 Q-365.2 51.75 -365.9 53.1 -373.1 56.95 -381.5 57.0 -387.85 56.1 -393.65 53.35 L-395.4 52.1 Q-398.05 50.4 -400.5 48.5 -401.6 47.3 -402.85 46.2 -404.75 44.6 -406.0 42.5 L-406.4 42.1 -407.15 41.35 -407.3 41.0 -407.85 39.85 -408.5 38.35 -408.5 38.0 -408.5 37.6 -408.65 37.25 -409.05 36.5 -409.5 35.35 -409.5 35.0 -409.5 34.6 -409.65 34.25 -409.85 33.85 -410.0 33.5 -410.0 33.1 -410.0 32.35 -410.0 31.6 -410.15 31.25 -410.35 30.85 -410.5 30.5 -410.5 30.1 -410.5 29.75 -410.65 29.35 -410.75 29.0 -411.0 28.25 -411.0 27.1 -411.0 24.1 -411.0 20.35 -410.8 20.0 -410.65 19.6 -410.5 19.25 -410.5 18.85 -410.5 18.1 -410.5 17.35 -409.65 15.1 -409.1 13.5 -409.15 13.5 -409.0 13.1 -408.9 12.75 -408.75 12.35 -408.15 11.6 -407.75 10.9 -407.55 10.5 -407.35 10.15 -407.0 9.75 -406.4 9.35 Q-401.75 5.8 -396.25 3.6 -392.3 2.0 -389.0 -0.5 L-388.85 -0.85 -388.65 -1.25 -388.5 -1.65 -388.5 -2.75 -388.5 -3.9 -388.5 -4.65 -388.5 -5.0 -388.5 -5.4 -388.5 -5.75 -388.65 -6.15 -388.8 -6.5 -389.0 -6.9 -389.15 -7.25 -389.35 -7.65 -389.5 -8.0 -390.95 -9.55 Q-395.15 -14.05 -400.55 -16.8 -405.05 -19.05 -409.15 -21.8" fill="#80a839" fill-rule="evenodd" stroke="none"/>
  </g>
</svg>
