<?xml version="1.0" encoding="UTF-8" standalone="no"?>
<svg xmlns:ffdec="https://www.free-decompiler.com/flash" xmlns:xlink="http://www.w3.org/1999/xlink" ffdec:objectType="shape" height="80.05px" width="18.7px" xmlns="http://www.w3.org/2000/svg">
  <g transform="matrix(1.0, 0.0, 0.0, 1.0, 8.95, 40.7)">
    <path d="M5.55 37.0 L5.3 37.05 5.45 36.85 5.55 37.0 M-7.5 -31.25 L-7.5 -32.3 -7.45 -32.9 -7.2 -32.2 -7.5 -31.25 M-7.15 -35.75 L-7.3 -36.35 Q-7.3 -37.5 -6.35 -38.3 L-7.15 -35.75" fill="#ffcc00" fill-rule="evenodd" stroke="none"/>
    <path d="M7.9 -36.25 L8.1 -34.45 8.3 -17.95 8.3 -17.7 7.8 -19.3 Q7.45 -20.25 7.35 -21.1 L7.4 -22.3 7.4 -22.7 7.45 -22.95 7.65 -23.85 Q7.65 -24.9 6.85 -24.9 6.1 -24.9 5.75 -23.65 L5.6 -22.8 5.55 -22.7 5.35 -21.05 5.35 -18.35 5.35 -16.0 5.45 -14.75 5.45 -14.45 5.45 -13.35 5.45 -13.25 4.95 -10.4 5.0 -10.25 6.35 -10.2 7.3 -9.05 Q7.7 -8.3 7.7 -7.35 7.6 -4.6 7.2 -3.55 L6.95 -3.1 Q6.45 1.5 5.55 1.5 5.35 1.5 4.65 0.3 L4.5 0.0 4.35 0.65 Q4.0 2.4 4.0 3.15 L4.4 4.4 4.1 7.15 Q3.9 8.55 5.0 8.55 L5.3 8.5 5.6 9.75 5.85 10.75 5.85 11.0 5.35 15.35 4.95 16.4 Q4.45 16.85 4.25 18.0 L3.15 21.2 1.75 24.85 0.7 27.8 0.85 28.4 0.85 28.45 0.45 29.35 Q-0.55 31.8 -2.65 35.9 -2.7 37.05 -1.65 37.05 -1.15 37.05 -0.65 36.5 -0.45 37.05 0.25 37.05 L0.9 36.85 1.55 36.3 Q1.55 37.0 2.4 37.6 L2.65 37.75 1.85 37.8 0.2 37.6 -2.15 38.25 -4.0 38.9 Q-5.0 38.9 -4.95 37.6 -7.3 37.55 -7.3 35.6 -7.3 34.7 -6.8 34.45 L-7.4 29.8 -7.7 23.3 -7.4 18.3 -7.15 18.3 Q-6.25 18.3 -5.5 12.25 L-5.4 10.75 -5.25 9.3 -5.05 7.4 -5.1 6.95 -5.4 7.05 Q-6.3 7.05 -6.4 6.2 L-6.25 5.0 -7.0 4.4 -7.05 3.65 -6.75 1.9 -6.3 0.2 Q-5.95 -1.0 -5.4 -1.45 L-5.15 -2.85 Q-6.45 -5.75 -7.0 -3.35 L-7.2 -0.95 -7.35 -0.15 -7.2 -2.7 -7.3 -4.05 -7.5 -11.1 -7.5 -11.85 Q-7.45 -10.2 -6.35 -10.2 -6.0 -10.2 -5.25 -12.6 L-5.0 -13.3 -4.6 -13.25 Q-3.7 -13.25 -2.7 -17.1 L-1.4 -22.3 Q-1.0 -22.0 -0.75 -22.0 -0.1 -22.0 0.35 -23.35 L0.95 -23.9 1.8 -24.25 Q2.4 -24.75 2.85 -25.75 L3.5 -27.45 5.6 -31.35 6.95 -34.05 6.95 -34.2 7.9 -36.25 M3.65 -21.75 Q3.65 -23.0 2.75 -22.85 1.95 -22.7 1.6 -20.65 L1.3 -21.0 Q0.6 -21.7 0.15 -20.15 0.05 -19.95 0.1 -19.45 L0.05 -18.8 -0.6 -18.3 -1.3 -17.85 -2.25 -15.2 Q-3.05 -12.9 -3.05 -12.15 L-3.0 -11.95 -2.15 -14.2 Q-1.4 -16.45 -0.15 -16.85 1.05 -17.3 1.05 -15.7 L0.75 -14.75 0.4 -14.1 -1.0 -11.1 Q-2.45 -8.25 -2.7 -8.25 L-2.75 -7.8 Q-2.75 -6.6 -1.9 -6.6 -1.45 -6.6 -0.2 -9.45 L1.7 -14.1 2.9 -18.35 3.65 -21.75 M5.05 -6.95 L4.9 -6.5 Q4.3 -4.3 4.3 -3.5 L4.35 -3.15 5.0 -6.15 5.05 -6.95 M-0.65 6.95 L-1.7 9.6 -2.2 10.75 -2.35 11.25 -2.2 11.8 -3.7 16.15 Q-5.3 20.35 -5.3 21.2 -4.95 22.8 -4.0 22.8 -3.45 22.8 -2.8 21.45 L-1.95 19.55 -1.25 20.0 Q-0.25 20.0 0.0 16.2 0.0 15.0 -1.25 15.0 L0.25 10.75 0.7 9.4 2.0 5.5 Q2.0 3.55 0.8 4.8 -0.2 5.8 -0.65 6.95" fill="#cccccc" fill-rule="evenodd" stroke="none"/>
    <path d="M-6.35 -38.3 L-5.65 -38.8 -5.55 -38.8 Q-5.2 -38.75 -5.0 -38.3 L-4.85 -37.9 -4.4 -38.0 -4.3 -38.0 -3.7 -38.35 Q-3.05 -38.5 -2.85 -37.95 L-1.0 -38.1 -0.75 -38.7 Q-0.35 -39.75 0.3 -39.75 0.9 -39.75 1.05 -39.0 L1.0 -38.1 1.2 -38.1 1.55 -38.25 1.6 -38.25 Q3.4 -40.55 4.45 -38.75 5.15 -39.4 5.4 -39.4 6.45 -39.4 7.9 -36.35 L7.9 -36.25 6.95 -34.2 6.95 -34.05 5.6 -31.35 3.5 -27.45 2.85 -25.75 Q2.4 -24.75 1.8 -24.25 L0.95 -23.9 0.35 -23.35 Q-0.1 -22.0 -0.75 -22.0 -1.0 -22.0 -1.4 -22.3 L-2.7 -17.1 Q-3.7 -13.25 -4.6 -13.25 L-5.0 -13.3 -5.25 -12.6 Q-6.0 -10.2 -6.35 -10.2 -7.45 -10.2 -7.5 -11.85 L-7.5 -11.95 -7.15 -13.8 -6.95 -17.45 -6.75 -18.1 -6.95 -19.35 -6.85 -20.05 -7.5 -22.3 -7.25 -24.7 -7.7 -26.45 -7.8 -28.1 -7.75 -28.6 -7.9 -29.45 -7.5 -31.25 -7.2 -32.2 -7.45 -32.9 -7.5 -33.25 -7.15 -35.75 -6.35 -38.3 M0.35 -27.0 Q0.95 -28.15 0.95 -29.05 0.95 -30.35 0.1 -30.35 -1.7 -30.35 -4.55 -19.45 -4.7 -18.25 -3.7 -18.25 -3.4 -18.25 -1.85 -21.5 -0.3 -24.75 -0.3 -25.2 L0.35 -27.0 M4.85 -33.65 Q4.85 -36.3 3.25 -34.2 1.65 -32.1 1.65 -29.9 1.6 -28.65 2.5 -28.65 3.75 -28.65 4.85 -33.65 M-0.2 -33.35 Q-0.2 -35.4 -1.45 -34.3 -2.75 -33.25 -2.75 -31.75 -2.75 -30.65 -1.9 -30.65 -1.6 -30.65 -0.9 -31.9 -0.2 -33.05 -0.2 -33.35" fill="#e1e1e1" fill-rule="evenodd" stroke="none"/>
    <path d="M8.3 -17.7 Q7.55 -15.3 7.55 -13.45 L7.3 -9.05 6.35 -10.2 5.0 -10.25 4.95 -10.4 5.45 -13.25 5.45 -13.35 5.45 -14.45 5.45 -14.75 5.35 -16.0 5.35 -18.35 5.35 -21.05 5.55 -22.7 5.6 -22.8 5.75 -23.65 Q6.1 -24.9 6.85 -24.9 7.65 -24.9 7.65 -23.85 L7.45 -22.95 7.4 -22.7 7.4 -22.3 7.35 -21.1 Q7.45 -20.25 7.8 -19.3 L8.3 -17.7 M7.2 -3.55 Q7.6 -3.05 7.6 -2.25 L7.4 -0.5 7.65 0.15 7.9 1.0 7.65 6.95 7.9 8.85 7.8 10.75 7.7 11.95 8.0 12.2 Q8.45 12.65 8.6 13.65 L8.8 14.0 9.05 16.4 8.5 23.0 8.25 26.85 7.95 28.65 8.0 31.35 Q8.0 35.85 7.6 36.4 L7.25 36.7 Q6.9 37.8 6.3 37.8 5.9 37.8 5.65 37.35 L5.55 37.0 5.45 36.85 5.3 37.05 Q5.0 37.3 4.55 37.35 L4.35 37.75 Q4.15 38.1 3.8 38.1 L2.65 37.75 2.4 37.6 Q1.55 37.0 1.55 36.3 L0.9 36.85 0.25 37.05 Q-0.45 37.05 -0.65 36.5 -1.15 37.05 -1.65 37.05 -2.7 37.05 -2.65 35.9 -0.55 31.8 0.45 29.35 L0.85 28.45 0.85 28.4 0.7 27.8 1.75 24.85 3.15 21.2 4.25 18.0 Q4.45 16.85 4.95 16.4 L5.35 15.35 5.85 11.0 5.85 10.75 5.6 9.75 5.3 8.5 5.0 8.55 Q3.9 8.55 4.1 7.15 L4.4 4.4 4.0 3.15 Q4.0 2.4 4.35 0.65 L4.5 0.0 4.65 0.3 Q5.35 1.5 5.55 1.5 6.45 1.5 6.95 -3.1 L7.2 -3.55 M-7.4 18.3 Q-8.15 18.15 -8.0 16.9 L-7.2 12.45 -7.4 11.45 -7.25 10.75 -7.05 9.4 -7.65 8.25 -7.7 8.1 -7.65 7.9 -7.15 5.0 -7.65 4.6 -8.1 3.75 -7.35 -0.15 -7.2 -0.95 -7.0 -3.35 Q-6.45 -5.75 -5.15 -2.85 L-5.4 -1.45 Q-5.95 -1.0 -6.3 0.2 L-6.75 1.9 -7.05 3.65 -7.0 4.4 -6.25 5.0 -6.4 6.2 Q-6.3 7.05 -5.4 7.05 L-5.1 6.95 -5.05 7.4 -5.25 9.3 -5.4 10.75 -5.5 12.25 Q-6.25 18.3 -7.15 18.3 L-7.4 18.3 M4.85 -33.65 Q3.75 -28.65 2.5 -28.65 1.6 -28.65 1.65 -29.9 1.65 -32.1 3.25 -34.2 4.85 -36.3 4.85 -33.65 M0.35 -27.0 L-0.3 -25.2 Q-0.3 -24.75 -1.85 -21.5 -3.4 -18.25 -3.7 -18.25 -4.7 -18.25 -4.55 -19.45 -1.7 -30.35 0.1 -30.35 0.95 -30.35 0.95 -29.05 0.95 -28.15 0.35 -27.0 M3.65 -21.75 L2.9 -18.35 1.7 -14.1 -0.2 -9.45 Q-1.45 -6.6 -1.9 -6.6 -2.75 -6.6 -2.75 -7.8 L-2.7 -8.25 Q-2.45 -8.25 -1.0 -11.1 L0.4 -14.1 0.75 -14.75 1.05 -15.7 Q1.05 -17.3 -0.15 -16.85 -1.4 -16.45 -2.15 -14.2 L-3.0 -11.95 -3.05 -12.15 Q-3.05 -12.9 -2.25 -15.2 L-1.3 -17.85 -0.6 -18.3 0.05 -18.8 0.1 -19.45 Q0.05 -19.95 0.15 -20.15 0.6 -21.7 1.3 -21.0 L1.6 -20.65 Q1.95 -22.7 2.75 -22.85 3.65 -23.0 3.65 -21.75 M-0.2 -33.35 Q-0.2 -33.05 -0.9 -31.9 -1.6 -30.65 -1.9 -30.65 -2.75 -30.65 -2.75 -31.75 -2.75 -33.25 -1.45 -34.3 -0.2 -35.4 -0.2 -33.35 M-0.65 6.95 Q-0.2 5.8 0.8 4.8 2.0 3.55 2.0 5.5 L0.7 9.4 0.25 10.75 -1.25 15.0 Q0.0 15.0 0.0 16.2 -0.25 20.0 -1.25 20.0 L-1.95 19.55 -2.8 21.45 Q-3.45 22.8 -4.0 22.8 -4.95 22.8 -5.3 21.2 -5.3 20.35 -3.7 16.15 L-2.2 11.8 -2.35 11.25 -2.2 10.75 -1.7 9.6 -0.65 6.95" fill="#bebebe" fill-rule="evenodd" stroke="none"/>
    <path d="M0.3 -33.3 L2.35 -33.65 Q2.75 -33.65 3.3 -33.3 3.8 -32.95 4.15 -32.95 L4.25 -31.75 4.0 -26.4 4.15 -26.0 4.25 -21.0 4.1 -13.85 3.85 -10.2 3.75 -8.45 3.75 -8.2 3.65 4.95 3.95 10.75 3.95 11.25 4.15 18.25 4.0 22.15 Q4.0 23.85 4.15 24.8 L4.25 26.85 4.1 29.65 Q4.15 31.45 4.35 32.45 L1.7 32.1 -0.85 32.25 -2.3 32.45 -3.1 32.45 -3.25 31.95 -3.25 31.65 -3.5 25.55 -3.3 19.95 -3.45 10.75 -3.5 5.1 -3.4 -13.35 -2.85 -31.75 -2.85 -33.2 -1.65 -32.95 0.3 -33.3 M2.7 -32.15 L-2.45 -32.55 -2.65 -32.6 -2.65 -31.05 -2.55 -15.75 Q-2.55 -6.15 -2.85 2.5 L-3.0 10.75 -3.1 28.05 -3.1 31.0 Q-1.85 31.75 -1.05 31.75 L0.7 31.5 2.6 31.3 3.7 31.45 3.8 26.6 3.4 14.75 3.35 10.75 3.25 8.8 3.05 3.0 3.35 -7.35 Q3.2 -7.85 3.2 -8.75 L3.45 -13.65 3.6 -17.15 3.65 -21.25 3.65 -21.55 3.75 -25.75 3.75 -30.6 3.6 -32.2 2.7 -32.15" fill="#666666" fill-rule="evenodd" stroke="none"/>
    <path d="M5.35 -33.85 L5.6 -31.85 5.3 -25.3 5.1 -22.65 4.95 -18.85 4.95 0.4 Q4.9 6.35 5.1 9.4 L5.15 10.75 5.45 14.8 5.55 18.2 5.35 22.05 5.5 24.65 5.6 26.95 5.45 29.5 5.7 32.25 5.55 32.9 Q5.35 33.35 5.0 33.35 L4.95 33.35 4.95 33.5 4.75 34.25 3.4 34.6 1.6 34.35 -1.2 34.6 -2.3 34.75 -3.75 34.6 Q-4.05 35.15 -4.25 35.15 -5.15 35.15 -5.1 33.6 -5.1 32.5 -4.6 32.05 L-4.75 31.1 -4.75 29.2 -4.65 18.95 -4.85 10.75 -4.85 9.9 -4.75 1.25 -4.75 -7.3 -4.5 -22.7 -4.2 -30.4 -4.3 -32.45 Q-4.4 -33.75 -4.05 -34.3 L-3.45 -34.9 -3.3 -35.15 -2.75 -35.6 -2.35 -35.4 -2.25 -35.25 0.25 -35.55 2.45 -35.9 Q3.55 -35.9 4.4 -35.15 L5.1 -34.2 5.35 -33.85 M0.3 -33.3 L-1.65 -32.95 -2.85 -33.2 -2.85 -31.75 -3.4 -13.35 -3.5 5.1 -3.45 10.75 -3.3 19.95 -3.5 25.55 -3.25 31.65 -3.25 31.95 -3.1 32.45 -2.3 32.45 -0.85 32.25 1.7 32.1 4.35 32.45 Q4.15 31.45 4.1 29.65 L4.25 26.85 4.15 24.8 Q4.0 23.85 4.0 22.15 L4.15 18.25 3.95 11.25 3.95 10.75 3.65 4.95 3.75 -8.2 3.75 -8.45 3.85 -10.2 4.1 -13.85 4.25 -21.0 4.15 -26.0 4.0 -26.4 4.25 -31.75 4.15 -32.95 Q3.8 -32.95 3.3 -33.3 2.75 -33.65 2.35 -33.65 L0.3 -33.3" fill="#acacac" fill-rule="evenodd" stroke="none"/>
    <path d="M2.3 -38.1 L-4.65 -37.85 -6.75 -37.9 -6.75 -37.05 -7.25 -27.7 -6.9 -22.6 Q-6.55 -19.65 -6.55 -16.75 -6.55 -13.0 -7.25 5.8 L-6.95 10.15 -6.65 14.15 -6.95 20.7 -7.25 27.7 -7.1 31.75 -6.95 35.5 -6.95 36.85 -5.05 36.8 4.15 37.05 6.85 36.85 7.55 36.9 7.5 36.5 7.5 32.75 Q7.15 30.1 7.15 26.65 L7.6 22.3 8.05 16.45 Q7.15 0.9 7.15 -1.35 7.15 -4.75 7.5 -13.0 L7.15 -27.0 7.35 -32.3 7.5 -36.75 7.2 -37.25 7.0 -38.0 6.95 -38.05 4.15 -38.45 2.3 -38.1 M8.85 -39.0 Q9.25 -38.4 9.25 -36.95 L8.85 -27.05 9.15 -13.05 8.85 -1.3 Q8.85 1.1 9.0 2.7 L9.15 8.3 Q9.15 9.5 9.45 11.7 L9.75 16.45 Q9.75 19.6 8.85 26.6 L9.15 31.9 9.45 36.15 9.45 37.65 9.45 37.8 9.45 38.1 Q9.45 39.0 8.75 39.15 L4.15 39.35 2.6 39.1 1.0 38.85 -5.05 39.05 Q-7.55 39.05 -8.25 38.5 L-8.35 38.4 Q-8.75 37.85 -8.75 36.45 L-8.7 33.35 -8.95 27.9 -8.65 20.55 -8.35 14.05 -8.65 10.65 -8.95 5.85 Q-8.2 -12.05 -8.2 -16.75 -8.2 -18.4 -8.55 -22.3 L-8.95 -27.75 Q-8.95 -32.35 -8.55 -35.35 L-8.45 -37.2 -8.4 -38.85 -8.45 -39.0 Q-8.45 -39.85 -7.05 -39.8 L2.8 -40.55 7.65 -40.25 Q8.65 -39.8 8.85 -39.0" fill="#000000" fill-rule="evenodd" stroke="none"/>
  </g>
</svg>
