<?xml version="1.0" encoding="UTF-8" standalone="no"?>
<svg xmlns:ffdec="https://www.free-decompiler.com/flash" xmlns:xlink="http://www.w3.org/1999/xlink" ffdec:objectType="shape" height="30.5px" width="233.25px" xmlns="http://www.w3.org/2000/svg">
  <g transform="matrix(1.0, 0.0, 0.0, 1.0, 116.35, 15.85)">
    <path d="M7.25 -10.25 L30.2 -10.25 30.4 -10.3 30.9 -10.35 31.35 -10.45 35.25 -10.5 35.45 -10.55 35.95 -10.6 36.4 -10.7 37.95 -10.75 38.15 -10.8 38.65 -10.85 39.1 -10.95 43.0 -11.0 43.2 -11.05 43.65 -11.1 44.15 -11.2 48.05 -11.25 48.25 -11.3 48.7 -11.35 49.2 -11.45 51.4 -11.5 51.6 -11.55 52.1 -11.6 52.4 -11.55 54.8 -10.9 Q57.05 -10.35 59.8 -10.95 L62.35 -10.85 Q62.1 -10.15 62.75 -10.85 L63.55 -11.5 65.0 -11.45 65.55 -11.35 65.95 -11.3 66.25 -11.25 69.05 -11.2 69.6 -11.1 70.0 -11.05 70.25 -11.0 72.4 -10.95 72.75 -10.85 72.9 -10.85 73.2 -10.8 73.4 -10.75 74.25 -10.7 74.65 -10.6 74.95 -10.55 75.15 -10.5 78.0 -10.45 78.4 -10.35 78.7 -10.3 78.9 -10.25 82.25 -10.2 82.65 -10.1 82.95 -10.05 83.15 -10.0 84.25 -9.95 84.65 -9.85 84.95 -9.8 85.15 -9.75 97.65 -9.75 97.65 -9.85 97.65 -10.05 97.65 -10.25 97.65 -10.45 97.65 -10.6 97.65 -10.8 97.65 -11.0 97.65 -11.2 97.65 -11.35 97.65 -11.55 97.65 -11.75 97.65 -11.95 97.65 -12.1 97.65 -12.3 97.7 -12.5 97.75 -12.7 97.8 -12.85 97.95 -13.05 98.15 -13.25 98.3 -13.45 98.55 -13.6 98.8 -13.75 99.15 -13.8 99.2 -13.8 99.2 -13.85 99.3 -14.05 99.4 -14.25 99.55 -14.45 99.75 -14.6 99.95 -14.8 100.2 -14.95 100.3 -15.0 100.65 -15.05 101.0 -15.05 101.0 -15.1 101.4 -15.05 101.8 -14.95 102.05 -14.75 112.5 -14.6 112.9 -14.55 113.3 -14.45 113.55 -14.25 113.8 -14.05 114.0 -13.85 114.4 -13.8 114.8 -13.7 115.05 -13.5 115.3 -13.3 115.5 -13.1 115.65 -12.95 115.7 -12.75 115.75 -12.55 115.8 -12.35 115.9 -12.2 115.9 -12.0 115.9 -11.8 115.9 -11.6 115.9 -11.45 115.9 -11.25 115.9 -11.05 115.9 -10.85 115.9 -10.7 115.9 -10.5 115.9 -10.3 115.9 -10.1 115.9 -9.95 115.9 -9.75 115.9 -9.55 115.9 -9.35 115.9 -9.2 115.9 -9.0 115.9 -8.8 115.9 -8.6 115.9 -8.45 115.9 -8.25 115.8 -8.05 115.75 -7.85 115.7 -7.7 115.65 -7.5 115.65 -7.3 115.65 -7.1 115.65 -6.95 115.65 -6.75 115.65 -6.55 115.65 -6.35 115.65 -6.2 115.65 -6.0 115.65 -5.8 115.65 -5.6 115.65 -5.45 115.65 -5.25 115.65 -5.05 115.65 -4.85 115.65 -4.7 115.65 -4.5 115.65 -4.3 115.65 -4.1 115.65 -3.95 115.65 -3.75 115.65 -3.55 115.65 -3.35 115.65 -3.2 115.65 -3.0 115.65 -2.8 115.65 -2.6 115.65 -2.45 115.65 -2.25 115.65 -2.05 115.65 -1.85 115.65 -1.7 115.65 -1.5 115.65 -1.3 115.65 -1.1 115.65 -0.95 115.65 -0.75 115.65 -0.55 115.65 -0.35 115.65 -0.2 115.65 0.0 115.65 0.2 115.65 0.4 115.65 0.55 115.65 0.75 115.65 0.95 115.65 1.15 115.65 1.3 115.65 1.5 115.65 1.7 115.65 1.9 115.65 2.05 115.65 2.25 115.65 2.45 115.65 2.65 115.65 2.8 115.65 3.0 115.7 3.2 115.75 3.4 115.8 3.55 115.9 3.75 115.9 3.95 115.9 4.15 115.9 4.3 115.9 4.5 115.9 4.7 115.9 4.9 115.9 5.05 115.9 5.25 115.9 5.45 115.9 5.65 115.9 5.8 115.95 6.0 116.0 6.2 116.05 6.4 116.15 6.55 116.15 6.75 116.15 6.95 116.15 7.15 116.15 7.3 116.15 7.5 116.15 7.7 116.15 7.9 116.15 8.05 116.15 8.25 116.15 8.45 116.15 8.65 116.15 8.8 116.15 9.0 116.2 9.2 116.25 9.4 116.3 9.55 116.4 9.75 116.4 9.95 116.4 10.15 116.4 10.3 116.5 10.4 116.65 10.55 116.7 10.75 116.75 10.95 116.8 11.15 116.9 11.3 116.9 11.5 116.9 11.7 116.9 11.9 116.9 12.05 116.9 12.25 116.9 12.45 116.8 12.65 116.75 12.8 116.7 13.0 116.65 13.2 116.5 13.4 116.3 13.55 116.15 13.75 115.95 13.95 115.75 14.15 115.5 14.3 115.3 14.45 115.2 14.5 114.9 14.55 114.5 14.65 107.5 14.65 107.15 14.55 106.7 14.45 106.4 14.25 106.2 14.05 106.1 13.95 105.8 13.95 105.7 14.0 105.4 14.05 105.0 14.15 103.8 14.2 103.7 14.25 103.4 14.3 103.0 14.4 102.3 14.45 102.2 14.5 101.9 14.55 101.5 14.65 100.25 14.65 99.9 14.55 99.45 14.45 99.15 14.25 98.95 14.05 98.75 13.9 98.55 13.7 98.4 13.5 98.3 13.3 98.2 13.15 98.2 12.95 98.15 12.75 98.15 12.55 98.15 12.4 98.15 12.2 98.15 12.0 98.15 11.8 98.15 11.65 98.15 11.45 98.15 11.25 98.05 11.05 97.95 10.9 97.95 10.7 97.9 10.5 97.9 10.3 97.9 10.15 97.9 10.0 97.15 10.0 96.95 10.05 96.65 10.15 96.25 10.2 82.75 10.2 82.4 10.15 82.05 10.05 81.9 10.0 79.5 9.95 79.15 9.9 78.8 9.8 78.65 9.75 75.3 9.75 75.2 9.9 75.0 10.05 74.8 10.25 74.5 10.45 74.2 10.55 73.9 10.65 73.5 10.7 72.75 10.7 68.9 10.75 68.65 10.8 68.25 10.9 67.7 10.95 23.15 11.0 22.85 11.05 22.45 11.15 21.95 11.2 7.25 11.2 6.1 11.2 4.75 11.2 -8.9 11.2 -9.4 11.15 -9.95 11.05 -10.2 11.0 -10.8 10.95 -11.35 10.9 -12.1 10.75 -12.7 10.55 -13.05 10.4 -13.25 10.2 -13.55 10.0 -13.55 9.95 -15.55 10.0 -15.9 10.05 -16.35 10.15 -16.95 10.2 -45.55 10.25 -45.85 10.3 -46.3 10.4 -46.95 10.45 -64.25 10.45 -64.8 10.4 -65.3 10.3 -65.55 10.25 -69.25 10.25 -73.5 10.2 -73.85 10.15 -74.2 10.05 -74.35 10.0 -77.5 9.95 -77.85 9.9 -78.2 9.8 -78.35 9.75 -80.0 9.7 -80.35 9.65 -80.7 9.55 -80.85 9.5 -85.25 9.45 -85.6 9.4 -85.95 9.3 -86.1 9.25 -87.0 9.2 -87.35 9.15 -87.7 9.05 -87.85 9.0 -97.1 9.0 -97.1 9.15 -97.1 9.3 -97.1 9.5 -97.05 9.7 -97.0 9.9 -96.95 10.05 -96.85 10.25 -96.85 10.45 -96.85 10.65 -96.8 10.8 -96.7 11.0 -96.7 11.2 -96.6 11.4 -96.6 11.55 -96.6 11.75 -96.6 11.95 -96.6 12.15 -96.7 12.3 -96.7 12.5 -96.8 12.7 -96.85 12.9 -97.0 13.05 -97.1 13.25 -97.3 13.45 -97.6 13.65 -97.8 13.75 -98.1 13.8 -98.5 13.9 -98.85 13.8 -99.3 13.7 -99.35 13.65 -99.75 13.65 -104.5 13.65 -107.6 13.65 -107.7 13.7 -108.1 13.8 -108.5 13.9 -111.0 13.9 -111.35 13.8 -111.7 13.75 -111.8 13.7 -113.5 13.65 -113.85 13.55 -114.3 13.45 -114.4 13.4 -114.5 13.4 -114.85 13.3 -115.3 13.2 -115.6 13.0 -115.8 12.8 -116.0 12.65 -116.1 12.45 -116.25 12.25 -116.3 12.05 -116.35 11.9 -116.35 11.7 -116.35 11.5 -116.35 11.3 -116.35 11.15 -116.35 10.95 -116.35 10.75 -116.35 10.55 -116.35 10.4 -116.35 10.2 -116.35 10.0 -116.35 9.8 -116.35 9.65 -116.35 9.45 -116.35 9.25 -116.35 9.05 -116.35 8.9 -116.35 8.7 -116.35 8.5 -116.35 8.3 -116.35 8.15 -116.35 7.95 -116.35 7.75 -116.35 7.55 -116.35 7.4 -116.35 7.2 -116.35 7.0 -116.35 6.8 -116.35 6.65 -116.35 6.45 -116.3 6.25 -116.25 6.05 -116.2 5.9 -116.1 5.7 -116.1 5.5 -116.1 5.3 -116.1 5.15 -116.1 4.95 -116.1 4.75 -116.1 4.55 -116.1 4.4 -116.1 4.2 -116.1 4.0 -116.1 3.8 -116.1 3.65 -116.1 3.45 -116.1 3.25 -116.1 3.05 -116.1 2.9 -116.05 2.7 -116.0 2.5 -115.95 2.3 -115.85 2.15 -115.85 1.95 -115.85 1.75 -115.85 1.55 -115.85 1.4 -115.85 1.2 -115.85 1.0 -115.85 0.8 -115.85 0.65 -115.85 0.45 -115.85 0.25 -115.85 0.05 -115.85 -0.1 -115.85 -0.3 -115.85 -0.5 -115.85 -0.7 -115.85 -0.85 -115.85 -1.05 -115.85 -1.25 -115.85 -1.45 -115.85 -1.6 -115.85 -1.8 -115.85 -2.0 -115.85 -2.2 -115.85 -2.35 -115.85 -2.55 -115.85 -2.75 -115.85 -2.95 -115.85 -3.1 -115.85 -3.3 -115.85 -3.5 -115.85 -3.7 -115.85 -3.85 -115.85 -4.05 -115.85 -4.25 -115.85 -4.45 -115.85 -4.6 -115.85 -4.8 -115.85 -5.0 -115.85 -5.2 -115.85 -5.35 -115.95 -5.55 -116.0 -5.75 -116.05 -5.95 -116.1 -6.1 -116.1 -6.3 -116.1 -6.5 -116.1 -6.7 -116.1 -6.85 -116.1 -7.05 -116.1 -7.25 -116.1 -7.45 -116.1 -7.6 -116.1 -7.8 -116.1 -8.0 -116.1 -8.2 -116.1 -8.35 -116.1 -8.55 -116.1 -8.75 -116.1 -8.95 -116.1 -9.1 -116.1 -9.3 -116.1 -9.5 -116.1 -9.7 -116.1 -9.85 -116.1 -10.05 -116.1 -10.25 -116.1 -10.45 -116.1 -10.6 -116.1 -10.8 -116.1 -11.0 -116.1 -11.2 -116.1 -11.35 -116.1 -11.55 -116.1 -11.75 -116.1 -11.95 -116.1 -12.1 -116.1 -12.3 -116.1 -12.5 -116.1 -12.7 -116.1 -12.85 -116.1 -13.05 -116.1 -13.25 -116.1 -13.45 -116.1 -13.6 -116.1 -13.8 -116.1 -14.0 -116.1 -14.2 -116.1 -14.35 -116.05 -14.55 -116.0 -14.75 -115.85 -14.95 -115.75 -15.1 -115.55 -15.3 -115.35 -15.5 -115.05 -15.7 -114.6 -15.8 -114.25 -15.8 -114.25 -15.85 -113.85 -15.8 -113.45 -15.7 -113.2 -15.5 -112.95 -15.3 -112.75 -15.1 -112.6 -14.95 -112.55 -14.85 -112.45 -14.85 -112.25 -14.85 -111.85 -14.8 -111.45 -14.7 -106.0 -14.6 -105.6 -14.55 -105.2 -14.45 -105.1 -14.4 -102.55 -14.45 -102.45 -14.5 -102.1 -14.55 -101.75 -14.55 -101.75 -14.6 -101.2 -14.6 -101.05 -14.7 -100.6 -14.8 -100.25 -14.8 -100.25 -14.85 -99.85 -14.8 -99.45 -14.7 -99.3 -14.6 -99.2 -14.6 -99.0 -14.6 -98.6 -14.55 -98.2 -14.45 -97.95 -14.25 -97.7 -14.05 -97.5 -13.85 -97.35 -13.7 -97.3 -13.5 -97.25 -13.3 -97.2 -13.1 -97.1 -12.95 -97.1 -12.75 -97.1 -12.55 -97.1 -12.35 -97.1 -12.2 -97.1 -12.0 -97.1 -11.8 -97.1 -11.6 -97.1 -11.45 -97.1 -11.25 -97.1 -11.05 -97.1 -10.85 -97.1 -10.7 -97.1 -10.5 -97.1 -10.3 -97.1 -10.25 -86.1 -10.25 -85.95 -10.3 -85.6 -10.35 -85.25 -10.45 -72.1 -10.5 -71.95 -10.55 -71.6 -10.6 -71.25 -10.7 -69.25 -10.7 -21.95 -10.7 -21.35 -10.6 -20.85 -10.55 -20.55 -10.5 0.35 -10.45 0.95 -10.35 1.4 -10.3 1.75 -10.25 4.75 -10.25 6.1 -10.25 7.25 -10.25 M0.35 -5.8 L-0.2 -5.85 -0.75 -5.95 -0.95 -6.0 -21.95 -6.05 -22.5 -6.1 -23.05 -6.2 -23.25 -6.25 -69.25 -6.25 -70.6 -6.25 -70.8 -6.2 -71.1 -6.1 -71.5 -6.05 -84.6 -6.0 -84.8 -5.95 -85.1 -5.85 -85.5 -5.8 -99.35 -5.8 -99.5 -6.0 -99.7 -6.2 -99.85 -6.35 -100.0 -6.45 -99.75 -6.35 -99.5 -6.35 -99.25 -6.45 -99.05 -6.55 -98.95 -6.75 -98.85 -6.95 -98.85 -7.1 -98.95 -7.2 -99.2 -7.0 -99.45 -6.8 -99.85 -6.7 -100.2 -6.6 -100.25 -6.6 -100.6 -6.7 -101.05 -6.8 -101.35 -7.0 -101.55 -7.2 -101.75 -7.35 -101.85 -7.55 -101.9 -7.65 -102.1 -7.7 -102.5 -7.75 -103.0 -7.75 -103.0 -7.7 -103.35 -7.7 -103.7 -7.6 -103.95 -7.55 -104.05 -7.5 -104.3 -7.35 Q-104.45 -7.3 -104.55 -7.2 L-104.8 -7.0 -104.95 -6.8 -105.1 -6.6 -105.25 -6.45 -105.3 -6.25 -105.35 -6.05 -105.45 -5.85 -105.5 -5.7 -105.5 -5.5 -105.5 -5.3 -105.5 -5.1 -105.5 -4.95 -105.45 -4.75 -105.45 -4.55 -105.35 -4.35 -105.3 -4.2 -105.2 -4.0 -105.05 -3.8 -104.85 -3.6 -104.75 -3.45 -104.75 -3.3 -104.75 -3.1 -104.75 -2.95 -104.75 -2.75 -104.75 -2.55 -104.75 -2.35 -104.75 -2.2 -104.75 -2.0 -104.75 -1.8 -104.75 -1.6 -104.75 -1.45 -104.7 -1.25 -104.7 -1.05 -104.6 -0.85 -104.55 -0.7 -104.5 -0.5 -104.5 -0.3 -104.5 -0.1 -104.5 0.05 -104.5 0.25 -104.5 0.45 -104.5 0.65 -104.5 0.8 -104.5 1.0 -104.5 1.2 -104.5 1.4 -104.55 1.55 -104.6 1.75 -104.7 1.95 -104.75 2.15 -104.75 2.3 -104.75 2.5 -104.75 2.6 -104.8 2.7 -104.85 2.9 -104.95 3.05 -104.95 3.25 -105.0 3.45 -105.0 3.65 -105.0 3.8 -105.0 4.0 -105.0 4.2 -105.0 4.4 -104.95 4.55 -104.85 4.75 -104.8 4.95 -104.75 5.15 -104.6 5.3 -104.5 5.5 -104.35 5.7 -104.2 5.9 -103.95 6.05 -103.55 6.25 -103.2 6.4 -102.85 6.45 -102.5 6.5 -102.1 6.45 -101.8 6.4 -101.45 6.25 -101.1 6.05 -100.85 5.9 -100.7 5.75 -100.7 5.65 -100.55 5.45 -100.35 5.25 -100.2 5.05 -99.95 4.9 -99.8 4.85 -99.75 4.75 -99.55 4.55 -99.35 4.4 -99.25 4.25 -98.1 4.25 -97.95 4.2 -97.6 4.15 -97.25 4.05 -69.25 4.05 -13.5 4.05 -12.9 4.15 -12.4 4.2 -12.1 4.25 4.75 4.25 4.75 4.05 7.1 4.05 7.25 4.05 40.45 4.05 53.9 4.05 54.45 4.15 54.85 4.2 55.1 4.25 57.95 4.3 58.5 4.4 58.9 4.45 59.15 4.5 60.3 4.55 60.85 4.65 61.25 4.7 61.5 4.75 72.75 4.8 99.75 4.8 100.15 4.9 100.45 4.95 100.55 5.0 100.55 4.95 100.65 4.75 100.65 4.65 100.7 4.8 100.8 5.0 100.95 5.2 101.15 5.4 101.25 5.55 101.45 5.75 101.65 5.95 101.8 6.15 102.0 6.25 101.9 6.25 101.7 6.45 101.65 6.65 101.65 6.8 101.65 7.0 101.65 7.2 101.75 7.4 101.95 7.55 102.15 7.75 102.4 7.95 102.5 8.15 102.7 8.3 102.8 8.5 102.9 8.7 103.0 8.9 103.2 9.05 103.4 9.25 103.45 9.3 103.15 9.4 102.75 9.45 102.5 9.45 102.15 9.45 101.9 9.65 101.8 9.7 101.8 9.8 101.9 10.0 101.9 10.2 101.9 10.4 101.9 10.5 101.9 10.55 102.45 10.55 102.55 10.5 102.9 10.45 103.25 10.4 104.2 10.3 104.3 10.25 104.65 10.2 105.0 10.15 112.4 10.15 112.4 9.95 112.4 9.75 112.4 9.55 112.4 9.4 112.4 9.2 112.4 9.0 112.4 8.8 112.4 8.65 112.4 8.45 112.4 8.25 112.4 8.05 112.4 7.9 112.3 7.7 112.25 7.5 112.2 7.3 112.15 7.15 112.15 6.95 112.15 6.75 112.15 6.55 112.15 6.4 112.15 6.2 112.15 6.0 112.15 5.8 112.15 5.65 112.15 5.45 112.15 5.25 112.15 5.05 112.05 4.9 112.0 4.7 111.95 4.5 111.9 4.3 111.9 4.15 111.9 3.95 111.9 3.75 111.9 3.55 111.9 3.4 111.9 3.2 111.9 3.0 111.9 2.8 111.9 2.65 111.9 2.45 111.9 2.25 111.9 2.05 111.9 1.9 111.9 1.7 111.9 1.5 111.9 1.3 111.9 1.15 111.9 0.95 111.9 0.75 111.9 0.55 111.9 0.4 111.9 0.2 111.9 0.0 111.9 -0.2 111.9 -0.35 111.9 -0.55 111.9 -0.75 111.9 -0.95 111.9 -1.1 111.9 -1.3 111.9 -1.5 111.9 -1.7 111.9 -1.85 111.9 -2.05 111.9 -2.25 111.9 -2.45 111.9 -2.6 111.9 -2.8 111.9 -3.0 111.9 -3.2 111.9 -3.35 111.9 -3.55 111.9 -3.75 111.9 -3.95 111.9 -4.1 111.9 -4.3 111.9 -4.5 111.9 -4.7 111.9 -4.85 111.9 -5.05 111.9 -5.25 111.9 -5.45 111.9 -5.6 111.9 -5.8 111.9 -6.0 111.9 -6.2 111.9 -6.35 111.9 -6.55 111.9 -6.75 111.9 -6.95 111.9 -7.1 111.9 -7.3 111.9 -7.5 111.9 -7.7 111.9 -7.85 111.9 -8.05 111.9 -8.25 111.9 -8.45 111.9 -8.6 111.9 -8.8 111.95 -9.0 112.0 -9.2 112.05 -9.35 112.15 -9.55 112.15 -9.75 112.15 -9.95 112.15 -10.1 112.15 -10.3 112.15 -10.5 112.15 -10.7 111.8 -10.75 111.7 -10.8 101.4 -10.85 101.4 -10.7 101.4 -10.5 101.45 -10.3 101.5 -10.1 101.55 -9.95 101.65 -9.75 101.7 -9.55 101.75 -9.35 101.8 -9.2 101.9 -9.0 101.9 -8.95 102.05 -9.1 102.25 -9.3 102.65 -9.5 103.15 -9.6 103.5 -9.6 103.5 -9.7 103.6 -9.65 103.5 -9.6 103.4 -9.45 103.3 -9.25 103.2 -9.05 103.0 -8.85 102.8 -8.7 102.65 -8.5 102.65 -8.3 102.5 -8.1 102.3 -7.95 102.15 -7.75 101.95 -7.55 101.9 -7.35 101.9 -7.2 101.9 -7.0 101.9 -6.8 101.9 -6.6 101.95 -6.45 102.15 -6.25 102.5 -6.1 102.6 -6.1 102.5 -6.05 102.2 -5.85 101.8 -5.7 101.55 -5.5 101.55 -5.55 101.55 -5.75 101.55 -5.95 101.55 -6.1 101.5 -6.3 101.5 -6.35 101.45 -6.35 101.25 -6.2 101.05 -6.0 100.75 -5.8 100.4 -5.6 100.15 -5.5 99.95 -5.45 99.65 -5.35 99.25 -5.3 84.5 -5.3 84.15 -5.35 83.8 -5.45 83.65 -5.5 82.75 -5.55 82.4 -5.6 82.05 -5.7 81.9 -5.75 78.25 -5.8 77.9 -5.85 77.55 -5.95 77.4 -6.0 74.75 -6.05 74.4 -6.1 74.05 -6.2 73.9 -6.25 72.75 -6.3 72.3 -6.35 71.8 -6.45 71.6 -6.5 69.05 -6.55 68.6 -6.6 68.1 -6.7 67.9 -6.75 65.35 -6.8 64.9 -6.85 64.4 -6.95 64.2 -7.0 62.3 -7.05 61.85 -7.1 61.4 -7.2 61.2 -7.25 53.1 -7.25 52.85 -7.2 52.45 -7.1 51.9 -7.05 50.05 -7.0 49.8 -6.95 49.4 -6.85 48.85 -6.8 45.0 -6.75 44.75 -6.7 44.35 -6.6 43.8 -6.55 39.95 -6.5 39.7 -6.45 39.3 -6.35 38.75 -6.3 37.3 -6.25 37.0 -6.2 36.6 -6.1 36.05 -6.05 32.25 -6.0 31.95 -5.95 31.55 -5.85 31.0 -5.8 7.25 -5.8 6.1 -5.8 4.75 -5.8 0.35 -5.8 M105.25 -1.55 L105.5 -1.75 105.7 -1.95 105.9 -2.1 105.95 -2.15 105.95 -2.0 105.95 -1.8 105.95 -1.6 105.95 -1.45 105.95 -1.25 105.95 -1.05 105.95 -0.85 105.9 -0.7 105.9 -0.5 105.8 -0.3 105.75 -0.1 105.7 0.05 105.7 0.25 105.7 0.45 105.7 0.65 105.7 0.8 105.7 1.0 105.7 1.2 105.7 1.4 105.7 1.55 105.7 1.75 105.65 1.95 105.55 2.15 105.5 2.3 105.45 2.5 105.4 2.4 105.25 2.2 105.15 2.0 105.05 1.8 105.0 1.65 105.0 1.45 105.0 1.25 105.0 1.05 105.0 0.9 105.0 0.7 105.0 0.5 105.0 0.3 105.0 0.15 105.0 -0.05 105.0 -0.25 105.0 -0.45 105.0 -0.6 105.05 -0.8 105.15 -1.0 105.2 -1.2 105.2 -1.35 105.25 -1.55 M105.05 -9.0 L105.1 -9.0 105.15 -8.95 105.3 -8.75 105.5 -8.55 105.65 -8.35 105.7 -8.2 105.75 -8.0 105.8 -7.95 105.5 -8.0 105.25 -8.0 105.25 -7.95 104.9 -7.95 104.55 -7.85 104.2 -7.75 103.85 -7.55 103.9 -7.7 104.0 -7.85 104.2 -8.05 104.4 -8.25 104.5 -8.45 104.65 -8.6 104.7 -8.8 105.05 -9.0 M104.95 6.45 L104.95 6.65 104.95 6.8 104.95 7.0 104.95 7.2 104.95 7.4 104.9 7.55 104.9 7.75 104.8 7.95 104.75 8.15 104.65 8.3 104.55 8.4 104.45 8.3 104.25 8.15 104.05 7.95 103.9 7.75 103.8 7.55 103.75 7.4 103.55 7.2 103.4 7.0 103.2 6.8 103.05 6.7 103.15 6.7 103.5 6.75 103.9 6.7 104.2 6.65 104.55 6.5 104.9 6.3 104.95 6.25 104.95 6.45 M-111.6 -9.45 L-111.6 -9.25 -111.6 -9.05 -111.7 -8.85 -111.75 -8.7 -111.8 -8.5 -111.85 -8.3 -111.85 -8.1 -111.85 -7.95 -111.85 -7.75 -111.85 -7.55 -111.85 -7.35 -111.85 -7.2 -111.8 -7.0 -111.75 -6.8 -111.7 -6.6 -111.6 -6.45 -111.6 -6.25 -111.55 -6.05 -111.5 -5.85 -111.45 -5.7 -111.35 -5.5 -111.35 -5.3 -111.35 -5.1 -111.3 -4.95 -111.2 -4.75 -111.2 -4.55 -111.1 -4.35 -111.1 -4.2 -111.1 -4.0 -111.1 -3.8 -111.1 -3.6 -111.1 -3.45 -111.1 -3.25 -111.1 -3.05 -111.1 -2.85 -111.1 -2.7 -111.1 -2.5 -111.1 -2.3 -111.1 -2.1 -111.1 -1.95 -111.1 -1.75 -111.1 -1.55 -111.1 -1.35 -111.1 -1.2 -111.1 -1.0 -111.1 -0.8 -111.1 -0.6 -111.1 -0.45 -111.1 -0.25 -111.1 -0.05 -111.1 0.15 -111.1 0.3 -111.1 0.5 -111.1 0.7 -111.1 0.9 -111.1 1.05 -111.1 1.25 -111.1 1.45 -111.1 1.65 -111.1 1.8 -111.1 2.0 -111.1 2.2 -111.1 2.4 -111.1 2.55 -111.1 2.75 -111.1 2.95 -111.1 3.15 -111.1 3.3 -111.1 3.5 -111.1 3.7 -111.1 3.9 -111.1 4.05 -111.1 4.25 -111.1 4.45 -111.1 4.65 -111.1 4.8 -111.1 5.0 -111.1 5.2 -111.1 5.4 -111.1 5.55 -111.1 5.75 -111.1 5.95 -111.1 6.15 -111.1 6.3 -111.1 6.5 -111.1 6.7 -111.2 6.9 -111.25 7.05 -111.3 7.25 -111.35 7.45 -111.35 7.65 -111.35 7.8 -111.35 8.0 -111.35 8.2 -111.35 8.4 -111.45 8.55 -111.45 8.75 -111.55 8.95 -111.6 9.15 -110.0 9.15 -109.6 9.2 -109.3 9.25 -109.2 9.3 -107.25 9.4 -106.85 9.45 -106.55 9.5 -106.45 9.55 -104.75 9.65 -104.35 9.7 -104.05 9.75 -103.95 9.8 -101.6 9.9 -100.85 9.9 -100.85 9.75 -100.85 9.55 -100.85 9.4 -100.85 9.25 -101.05 9.3 -101.35 9.4 -101.75 9.45 -102.85 9.5 -102.75 9.4 -102.55 9.2 -102.2 9.0 -102.0 8.8 -101.85 8.65 -101.55 8.45 -101.25 8.3 -101.05 8.2 -100.95 8.0 -100.85 7.9 -100.85 7.7 -100.85 7.5 -100.85 7.3 -100.85 7.15 -100.85 6.95 -100.85 6.75 -100.85 6.55 -100.85 6.45 -101.0 6.4 -101.0 6.45 -101.25 6.45 -101.45 6.55 -101.85 6.75 -102.05 6.95 -102.2 7.15 -102.45 7.3 -102.75 7.45 -102.85 7.5 -103.0 7.65 -103.1 7.8 -103.35 8.0 -103.55 8.2 -103.75 8.4 -103.95 8.55 -104.1 8.75 -104.3 8.95 -104.5 9.15 -104.7 9.3 -104.85 9.5 -104.95 9.6 -105.35 9.5 -105.75 9.3 -105.95 9.15 -106.1 8.95 -106.3 8.75 -106.45 8.55 -106.5 8.4 -106.6 8.2 -106.6 8.0 -106.7 7.8 -106.7 7.65 -106.7 7.45 -106.7 7.25 -106.7 7.05 -106.7 6.9 -106.7 6.7 -106.7 6.5 -106.6 6.3 -106.6 6.15 -106.55 5.95 -106.5 5.75 -106.45 5.55 -106.45 5.4 -106.45 5.2 -106.45 5.0 -106.35 4.8 -106.35 4.65 -106.3 4.45 -106.25 4.25 -106.2 4.05 -106.2 3.9 -106.2 3.7 -106.2 3.5 -106.2 3.3 -106.2 3.15 -106.2 2.95 -106.2 2.75 -106.2 2.55 -106.2 2.4 -106.2 2.2 -106.2 2.0 -106.2 1.8 -106.2 1.65 -106.1 1.45 -106.05 1.25 -106.0 1.05 -105.95 0.9 -105.95 0.7 -105.95 0.5 -105.95 0.3 -105.95 0.15 -105.95 -0.05 -105.95 -0.25 -105.95 -0.45 -105.95 -0.6 -105.95 -0.8 -105.95 -1.0 -105.95 -1.2 -105.95 -1.35 -105.95 -1.55 -105.95 -1.75 -105.95 -1.95 -105.95 -2.1 -105.95 -2.3 -105.95 -2.5 -105.95 -2.7 -105.95 -2.85 -105.95 -3.05 -105.85 -3.25 -105.85 -3.45 -105.75 -3.6 -105.7 -3.8 -105.55 -3.95 -105.6 -4.05 -105.6 -4.25 -105.7 -4.45 -105.7 -4.6 -105.7 -4.8 -105.7 -5.0 -105.7 -5.2 -105.75 -5.35 -105.85 -5.55 -105.85 -5.75 -105.95 -5.95 -105.95 -6.1 -105.95 -6.3 -105.95 -6.5 -105.95 -6.7 -105.95 -6.85 -105.85 -7.05 -105.8 -7.25 -105.75 -7.45 -105.6 -7.6 -105.5 -7.8 -105.3 -8.0 -105.1 -8.2 -104.85 -8.35 -104.6 -8.5 -104.45 -8.55 -104.1 -8.6 -103.75 -8.6 -103.75 -8.7 -103.65 -8.65 -103.6 -8.8 -103.6 -8.9 -103.5 -8.85 -103.2 -8.8 -103.1 -8.75 -103.0 -8.6 -102.8 -8.45 -102.6 -8.25 -102.2 -8.05 -102.05 -7.9 -102.05 -7.95 -102.1 -8.1 -102.1 -8.3 -102.1 -8.5 -102.1 -8.7 -102.1 -8.85 -102.1 -9.05 -102.1 -9.25 -102.1 -9.45 -102.1 -9.6 -102.25 -9.8 -102.45 -10.0 -102.65 -10.05 -102.6 -10.1 -102.35 -10.25 -102.2 -10.3 -102.1 -10.3 -102.1 -10.35 -102.1 -10.55 -102.1 -10.6 -105.55 -10.55 -105.7 -10.45 -105.95 -10.25 -106.2 -10.05 -106.6 -9.95 -107.0 -9.85 -110.0 -9.85 -110.35 -9.95 -110.85 -10.05 -111.05 -10.1 -111.5 -10.1 -111.55 -10.0 -111.6 -9.8 -111.6 -9.6 -111.6 -9.45" fill="#000000" fill-opacity="0.18431373" fill-rule="evenodd" stroke="none"/>
    <path d="M6.1 -7.35 L7.25 -7.35 18.25 -7.35 18.65 -7.25 27.65 -7.1 28.05 -7.0 50.2 -6.9 50.25 -6.9 53.55 -6.9 59.3 -6.85 59.7 -6.75 72.75 -6.75 83.4 -6.75 83.75 -6.85 86.9 -7.0 87.25 -7.1 88.15 -7.25 88.5 -7.35 89.0 -7.35 89.0 -7.4 91.4 -7.5 91.75 -7.55 91.75 -7.6 100.7 -7.6 100.7 -7.7 100.7 -7.9 100.7 -8.1 100.7 -8.25 100.7 -8.45 100.7 -8.65 100.7 -8.85 100.65 -9.0 100.55 -9.2 100.45 -9.4 100.45 -9.6 100.45 -9.75 100.45 -9.95 100.35 -10.15 100.2 -10.35 100.2 -10.5 100.2 -10.7 100.3 -10.9 100.35 -11.1 100.45 -11.2 100.6 -11.25 100.85 -11.35 103.85 -11.35 104.35 -11.35 105.1 -11.35 105.35 -11.35 106.1 -11.35 106.6 -11.35 112.1 -11.35 112.2 -11.3 112.35 -11.35 112.7 -11.2 112.9 -11.0 112.95 -10.85 112.95 -10.65 112.95 -10.45 112.95 -10.25 112.95 -10.1 112.95 -9.9 112.95 -9.7 112.95 -9.5 112.95 -9.35 112.95 -9.15 112.95 -8.95 112.95 -8.75 112.95 -8.6 112.95 -8.45 112.95 -8.4 112.95 -8.25 112.95 -8.2 112.95 -8.1 112.95 -7.9 112.95 -7.7 112.95 -7.5 112.95 -7.35 112.95 -7.15 112.95 -6.95 112.95 -6.75 112.95 -6.6 112.95 -6.4 112.95 -6.2 112.95 -6.0 112.95 -5.85 112.95 -5.65 112.95 -5.45 112.95 -5.25 112.95 -5.1 112.95 -4.9 112.95 -4.7 112.95 -4.5 112.95 -4.35 112.95 -4.15 112.95 -3.95 112.95 -3.75 112.95 -3.6 112.95 -3.4 112.95 -3.2 112.95 -3.0 112.95 -2.85 112.95 -2.65 112.95 -2.45 112.95 -2.25 112.95 -2.1 112.95 -1.9 112.95 -1.7 112.95 -1.5 112.95 -1.35 112.95 -1.15 112.95 -0.95 112.95 -0.75 112.95 -0.6 112.95 -0.4 112.95 -0.2 112.95 0.0 112.95 0.15 112.95 0.35 112.95 0.55 112.8 0.75 112.7 0.9 112.7 1.1 112.7 1.3 112.7 1.5 112.7 1.65 112.7 1.85 112.7 2.05 112.7 2.25 112.7 2.4 112.7 2.6 112.7 2.8 112.7 3.0 112.7 3.15 112.7 3.35 112.7 3.55 112.7 3.75 112.7 3.9 112.7 4.1 112.7 4.3 112.7 4.5 112.7 4.65 112.7 4.85 112.7 5.05 112.7 5.25 112.7 5.4 112.7 5.6 112.7 5.8 112.7 6.0 112.7 6.15 112.7 6.3 112.9 6.5 112.95 6.65 112.95 6.85 112.95 7.05 112.95 7.25 112.95 7.4 112.95 7.6 112.95 7.8 112.95 8.0 112.95 8.15 112.95 8.35 112.95 8.55 112.95 8.75 112.95 8.9 112.95 9.1 112.95 9.3 112.95 9.5 112.95 9.65 112.95 9.85 112.95 10.05 112.95 10.25 112.95 10.4 112.95 10.6 112.95 10.8 112.95 10.9 112.95 11.0 112.95 11.1 112.95 11.3 112.8 11.5 112.6 11.6 112.35 11.6 112.35 11.65 110.85 11.65 110.55 11.55 107.85 11.4 107.55 11.3 106.1 11.3 106.1 11.15 104.7 11.3 104.35 11.35 104.35 11.4 103.6 11.4 103.3 11.3 102.7 11.3 102.35 11.4 101.1 11.4 100.8 11.3 100.6 11.1 100.45 10.9 100.45 10.75 100.55 10.55 100.55 10.5 100.45 10.4 100.45 10.25 100.45 10.05 100.45 9.85 100.45 9.65 100.45 9.5 100.45 9.3 100.45 9.1 100.45 8.9 100.45 8.75 100.45 8.55 100.45 8.35 100.45 8.15 100.45 8.0 100.45 7.8 100.45 7.6 100.45 7.4 99.85 7.4 96.75 7.4 96.4 7.25 90.0 7.25 89.0 7.25 72.75 7.25 63.75 7.25 63.35 7.4 53.55 7.4 50.2 7.4 44.8 7.4 20.3 7.5 19.9 7.65 7.25 7.65 6.45 7.65 6.1 7.65 4.75 7.65 -36.15 7.65 -47.7 7.65 -51.55 7.65 -69.25 7.65 -83.25 7.65 -83.6 7.5 -89.0 7.4 -89.35 7.25 -93.5 7.25 -95.0 7.2 -96.0 7.2 -97.5 7.2 -100.6 7.15 -100.6 7.3 -100.6 7.5 -100.6 7.7 -100.6 7.9 -100.6 8.05 -100.6 8.25 -100.6 8.45 -100.6 8.65 -100.55 8.8 -100.45 9.0 -100.35 9.2 -100.35 9.4 -100.35 9.55 -100.35 9.75 -100.25 9.95 -100.1 10.15 -100.1 10.3 -100.1 10.5 -100.2 10.7 -100.25 10.9 -100.35 11.0 -100.5 11.05 -100.75 11.15 -103.75 11.15 -104.25 11.15 -105.0 11.15 -105.25 11.15 -106.0 11.15 -106.5 11.15 -112.0 11.15 -112.1 11.1 -112.25 11.15 -112.6 11.0 -112.8 10.8 -112.85 10.65 -112.85 10.45 -112.85 10.25 -112.85 10.05 -112.85 9.9 -112.85 9.7 -112.85 9.5 -112.85 9.3 -112.85 9.15 -112.85 8.95 -112.85 8.75 -112.85 8.55 -112.85 8.4 -112.85 8.25 -112.85 8.2 -112.85 8.05 -112.85 8.0 -112.85 7.9 -112.85 7.7 -112.85 7.5 -112.85 7.3 -112.85 7.15 -112.85 6.95 -112.85 6.75 -112.85 6.55 -112.85 6.4 -112.85 6.2 -112.85 6.0 -112.85 5.8 -112.85 5.65 -112.85 5.45 -112.85 5.25 -112.85 5.05 -112.85 4.9 -112.85 4.7 -112.85 4.5 -112.85 4.3 -112.85 4.15 -112.85 3.95 -112.85 3.75 -112.85 3.55 -112.85 3.4 -112.85 3.2 -112.85 3.0 -112.85 2.8 -112.85 2.65 -112.85 2.45 -112.85 2.25 -112.85 2.05 -112.85 1.9 -112.85 1.7 -112.85 1.5 -112.85 1.3 -112.85 1.15 -112.85 0.95 -112.85 0.75 -112.85 0.55 -112.85 0.4 -112.85 0.2 -112.85 0.0 -112.85 -0.2 -112.85 -0.35 -112.85 -0.55 -112.85 -0.75 -112.7 -0.95 -112.6 -1.1 -112.6 -1.3 -112.6 -1.5 -112.6 -1.7 -112.6 -1.85 -112.6 -2.05 -112.6 -2.25 -112.6 -2.45 -112.6 -2.6 -112.6 -2.8 -112.6 -3.0 -112.6 -3.2 -112.6 -3.35 -112.6 -3.55 -112.6 -3.75 -112.6 -3.95 -112.6 -4.1 -112.6 -4.3 -112.6 -4.5 -112.6 -4.7 -112.6 -4.85 -112.6 -5.05 -112.6 -5.25 -112.6 -5.45 -112.6 -5.6 -112.6 -5.8 -112.6 -6.0 -112.6 -6.2 -112.6 -6.35 -112.6 -6.5 -112.8 -6.7 -112.85 -6.85 -112.85 -7.05 -112.85 -7.25 -112.85 -7.45 -112.85 -7.6 -112.85 -7.8 -112.85 -8.0 -112.85 -8.2 -112.85 -8.35 -112.85 -8.55 -112.85 -8.75 -112.85 -8.95 -112.85 -9.1 -112.85 -9.3 -112.85 -9.5 -112.85 -9.7 -112.85 -9.85 -112.85 -10.05 -112.85 -10.25 -112.85 -10.45 -112.85 -10.6 -112.85 -10.8 -112.85 -11.0 -112.85 -11.1 -112.85 -11.2 -112.85 -11.3 -112.85 -11.5 -112.7 -11.7 -112.5 -11.8 -112.25 -11.8 -112.25 -11.85 -110.75 -11.85 -110.45 -11.75 -107.75 -11.6 -107.45 -11.5 -106.0 -11.5 -106.0 -11.35 -104.6 -11.5 -104.25 -11.55 -104.25 -11.6 -103.5 -11.6 -103.2 -11.5 -102.6 -11.5 -102.25 -11.6 -101.0 -11.6 -100.7 -11.5 -100.5 -11.3 -100.35 -11.1 -100.35 -10.95 -100.45 -10.75 -100.45 -10.7 -100.35 -10.6 -100.35 -10.45 -100.35 -10.25 -100.35 -10.05 -100.35 -9.85 -100.35 -9.7 -100.35 -9.5 -100.35 -9.3 -100.35 -9.1 -100.35 -8.95 -100.35 -8.75 -100.35 -8.55 -100.35 -8.35 -100.35 -8.2 -100.35 -8.0 -100.35 -7.8 -100.35 -7.6 -99.75 -7.6 -99.45 -7.5 -97.5 -7.45 -96.0 -7.4 -95.0 -7.35 -94.75 -7.35 -94.45 -7.25 -93.5 -7.25 -75.6 -7.25 -75.25 -7.35 -69.25 -7.35 -51.55 -7.35 -51.1 -7.25 -47.7 -7.2 -36.15 -7.15 -36.15 -7.2 -26.1 -7.15 -20.2 -7.25 -19.65 -7.35 -4.25 -7.35 4.75 -7.35 6.1 -7.35 M4.75 -6.0 L-3.8 -6.0 -4.25 -5.85 -15.05 -5.85 -15.35 -5.95 -15.4 -5.95 -15.8 -5.85 -19.65 -5.85 -30.4 -5.85 -31.2 -5.85 -36.15 -5.85 -47.7 -5.85 -51.55 -5.85 -52.1 -6.0 -69.25 -6.0 -75.2 -6.0 -75.5 -5.85 -93.5 -5.85 -94.5 -5.85 -94.85 -6.0 -95.0 -6.0 -96.0 -6.0 -97.5 -6.05 -99.5 -6.1 -99.85 -6.25 -101.75 -6.3 -101.75 -6.85 -102.0 -6.85 -102.15 -6.9 -102.1 -6.95 -101.85 -7.1 -101.7 -7.3 -101.6 -7.4 -101.6 -7.45 -101.6 -7.6 -101.6 -7.8 -101.6 -8.0 -101.6 -8.2 -101.6 -8.35 -101.6 -8.55 -101.6 -8.75 -101.6 -8.95 -101.6 -9.1 -101.6 -9.3 -101.6 -9.5 -101.6 -9.7 -101.6 -9.85 -101.6 -10.05 -101.6 -10.25 -101.95 -10.25 -102.25 -10.1 -104.25 -10.1 -106.0 -10.1 -107.75 -10.1 -108.1 -10.25 -110.75 -10.35 -111.1 -10.5 -111.6 -10.55 -111.6 -10.35 -111.6 -10.2 -111.6 -10.0 -111.6 -9.8 -111.6 -9.6 -111.6 -9.45 -111.6 -9.25 -111.6 -9.05 -111.6 -8.85 -111.6 -8.7 -111.6 -8.5 -111.6 -8.3 -111.6 -8.1 -111.6 -7.95 -111.6 -7.75 -111.6 -7.6 -111.55 -7.6 -111.35 -7.65 -111.35 -7.5 -111.35 -7.3 -111.35 -7.1 -111.35 -6.95 -111.35 -6.75 -111.35 -6.55 -111.35 -6.35 -111.35 -6.2 -111.35 -6.0 -111.35 -5.8 -111.35 -5.6 -111.35 -5.45 -111.35 -5.25 -111.35 -5.05 -111.35 -4.85 -111.35 -4.7 -111.35 -4.5 -111.35 -4.3 -111.35 -4.1 -111.35 -3.95 -111.35 -3.75 -111.35 -3.55 -111.35 -3.35 -111.35 -3.2 -111.35 -3.0 -111.35 -2.8 -111.35 -2.6 -111.35 -2.45 -111.35 -2.25 -111.35 -2.05 -111.35 -1.85 -111.35 -1.7 -111.35 -1.5 -111.35 -1.3 -111.35 -1.1 -111.35 -0.95 -111.35 -0.75 -111.35 -0.55 -111.35 -0.35 -111.5 -0.2 -111.6 0.0 -111.6 0.2 -111.6 0.4 -111.6 0.55 -111.6 0.75 -111.6 0.95 -111.6 1.15 -111.6 1.3 -111.6 1.5 -111.6 1.7 -111.6 1.9 -111.6 2.05 -111.6 2.25 -111.6 2.45 -111.6 2.65 -111.6 2.8 -111.6 3.0 -111.6 3.2 -111.6 3.4 -111.6 3.55 -111.6 3.75 -111.6 3.95 -111.6 4.15 -111.6 4.3 -111.6 4.5 -111.6 4.7 -111.6 4.9 -111.6 5.05 -111.6 5.25 -111.6 5.45 -111.6 5.65 -111.6 5.8 -111.6 6.0 -111.6 6.2 -111.6 6.4 -111.6 6.55 -111.6 6.75 -111.6 6.95 -111.6 7.15 -111.6 7.3 -111.6 7.5 -111.5 7.7 -111.45 7.8 -111.7 8.0 -111.6 8.15 -111.6 8.3 -111.6 8.5 -111.6 8.7 -111.6 8.9 -111.6 9.05 -111.6 9.25 -111.6 9.45 -111.6 9.65 -111.6 9.8 -111.6 9.9 -107.7 9.85 -107.7 9.8 -107.5 9.7 -107.25 9.7 -107.25 9.65 -106.5 9.65 -106.2 9.75 -105.1 9.9 -104.1 9.75 -103.75 9.7 -103.75 9.65 -103.45 9.75 -103.4 9.8 -101.65 9.75 -101.75 9.65 -101.85 9.45 -101.85 9.25 -101.85 9.05 -101.85 8.9 -101.85 8.7 -101.85 8.5 -101.85 8.3 -101.85 8.15 -101.85 7.95 -101.85 7.75 -101.85 7.55 -101.85 7.4 -101.85 7.2 -101.85 7.0 -101.85 6.8 -101.85 6.65 -101.95 6.55 -102.1 6.4 -102.35 6.2 -102.45 6.15 -102.25 6.15 -101.95 6.25 -101.85 6.35 -101.85 6.25 -101.75 6.1 -101.75 5.9 -101.25 5.9 -97.5 5.9 -96.0 5.9 -95.0 5.9 -93.5 5.9 -89.0 5.9 -88.7 6.0 -83.25 6.15 -82.95 6.25 -69.25 6.25 -51.55 6.25 -47.7 6.25 -36.15 6.25 4.75 6.25 6.1 6.25 7.25 6.25 19.45 6.25 19.9 6.15 31.35 6.15 35.75 6.15 40.1 6.15 44.8 6.15 50.2 6.1 51.9 6.1 53.55 6.1 62.85 6.0 63.35 5.95 63.35 5.9 72.75 5.9 89.0 5.9 90.0 5.9 93.6 5.9 93.6 5.65 94.6 5.65 94.95 5.8 95.1 5.8 96.1 5.8 97.6 5.85 98.65 5.9 99.6 5.9 99.95 6.05 101.5 6.1 101.85 6.1 101.85 6.65 102.1 6.65 102.25 6.7 102.2 6.75 101.95 6.9 101.8 7.1 101.7 7.2 101.7 7.25 101.7 7.4 101.7 7.6 101.7 7.8 101.7 8.0 101.7 8.15 101.7 8.35 101.7 8.55 101.7 8.75 101.7 8.9 101.7 9.1 101.7 9.3 101.7 9.5 101.7 9.65 101.7 9.85 101.7 10.05 102.05 10.05 102.35 9.9 104.35 9.9 106.1 9.9 107.85 9.9 108.2 10.05 110.85 10.15 111.2 10.3 111.7 10.35 111.7 10.15 111.7 10.0 111.7 9.8 111.7 9.6 111.7 9.4 111.7 9.25 111.7 9.05 111.7 8.85 111.7 8.65 111.7 8.5 111.7 8.3 111.7 8.1 111.7 7.9 111.7 7.75 111.7 7.55 111.7 7.4 111.65 7.4 111.45 7.45 111.45 7.3 111.45 7.1 111.45 6.9 111.45 6.75 111.45 6.55 111.45 6.35 111.45 6.15 111.45 6.0 111.45 5.8 111.45 5.6 111.45 5.4 111.45 5.25 111.45 5.05 111.45 4.85 111.45 4.65 111.45 4.5 111.45 4.3 111.45 4.1 111.45 3.9 111.45 3.75 111.45 3.55 111.45 3.35 111.45 3.15 111.45 3.0 111.45 2.8 111.45 2.6 111.45 2.4 111.45 2.25 111.45 2.05 111.45 1.85 111.45 1.65 111.45 1.5 111.45 1.3 111.45 1.1 111.45 0.9 111.45 0.75 111.45 0.55 111.45 0.35 111.45 0.15 111.6 0.0 111.7 -0.2 111.7 -0.4 111.7 -0.6 111.7 -0.75 111.7 -0.95 111.7 -1.15 111.7 -1.35 111.7 -1.5 111.7 -1.7 111.7 -1.9 111.7 -2.1 111.7 -2.25 111.7 -2.45 111.7 -2.65 111.7 -2.85 111.7 -3.0 111.7 -3.2 111.7 -3.4 111.7 -3.6 111.7 -3.75 111.7 -3.95 111.7 -4.15 111.7 -4.35 111.7 -4.5 111.7 -4.7 111.7 -4.9 111.7 -5.1 111.7 -5.25 111.7 -5.45 111.7 -5.65 111.7 -5.85 111.7 -6.0 111.7 -6.2 111.7 -6.4 111.7 -6.6 111.7 -6.75 111.7 -6.95 111.7 -7.15 111.7 -7.35 111.7 -7.5 111.7 -7.7 111.6 -7.9 111.55 -8.0 111.8 -8.2 111.7 -8.35 111.7 -8.5 111.7 -8.7 111.7 -8.9 111.7 -9.1 111.7 -9.25 111.7 -9.45 111.7 -9.65 111.7 -9.85 111.7 -10.0 111.7 -10.1 107.8 -10.05 107.8 -10.0 107.6 -9.9 107.35 -9.9 107.35 -9.85 106.6 -9.85 106.3 -9.95 105.2 -10.1 104.2 -9.95 103.85 -9.9 103.85 -9.85 103.55 -9.95 103.5 -10.0 101.75 -9.95 101.85 -9.85 101.95 -9.65 101.95 -9.45 101.95 -9.25 101.95 -9.1 101.95 -8.9 101.95 -8.7 101.95 -8.5 101.95 -8.35 101.95 -8.15 101.95 -7.95 101.95 -7.75 101.95 -7.6 101.95 -7.4 101.95 -7.2 101.95 -7.0 101.95 -6.85 102.05 -6.75 102.2 -6.6 102.45 -6.4 102.55 -6.35 102.35 -6.35 102.05 -6.45 101.95 -6.55 101.95 -6.45 101.85 -6.3 101.85 -6.1 101.5 -6.1 98.65 -6.1 97.6 -6.1 96.1 -6.1 95.1 -6.1 93.6 -6.1 93.6 -6.25 92.05 -6.25 91.75 -6.1 90.0 -6.0 89.25 -6.0 89.0 -6.0 88.55 -6.0 88.25 -5.85 87.3 -5.75 87.0 -5.6 83.8 -5.5 83.5 -5.35 72.75 -5.35 59.65 -5.35 59.15 -5.5 53.55 -5.5 51.9 -5.5 50.2 -5.5 40.1 -5.55 28.0 -5.6 27.5 -5.75 18.25 -5.85 17.75 -6.0 7.25 -6.0 6.75 -6.0 4.75 -6.0 M7.25 -2.7 L15.55 -2.7 16.05 -2.6 16.6 -2.5 17.15 -2.3 17.2 -2.25 53.55 -2.25 53.55 2.5 50.75 2.5 50.45 2.55 50.05 2.65 49.55 2.7 41.0 2.75 40.7 2.8 40.3 2.9 39.75 2.95 18.9 2.95 18.45 2.9 17.75 2.75 17.2 2.55 16.95 2.4 16.8 2.25 -36.15 2.25 -36.15 -2.25 -17.5 -2.25 -17.25 -2.3 -16.7 -2.35 -16.2 -2.45 -2.1 -2.5 -1.9 -2.55 -1.35 -2.6 -0.8 -2.6 -0.8 -2.7 4.75 -2.7 6.1 -2.7 7.25 -2.7 M100.1 -1.1 L100.2 -0.9 100.2 -0.7 100.3 -0.5 100.3 -0.35 100.3 -0.15 100.3 0.05 100.2 0.25 100.2 0.4 100.15 0.6 100.1 0.8 100.1 2.05 96.45 2.05 96.3 2.1 95.95 2.15 95.6 2.15 95.6 2.25 93.6 2.25 93.6 -2.45 100.1 -2.45 100.1 -1.1" fill="#000000" fill-rule="evenodd" stroke="none"/>
    <path d="M100.1 -1.1 L100.1 -2.45 93.6 -2.45 93.6 2.25 95.6 2.25 95.6 2.15 95.95 2.15 96.3 2.1 96.45 2.05 100.1 2.05 100.1 0.8 100.15 0.6 100.2 0.4 100.2 0.25 100.3 0.05 100.3 -0.15 100.3 -0.35 100.3 -0.5 100.2 -0.7 100.2 -0.9 100.1 -1.1 M7.25 -2.7 L6.1 -2.7 4.75 -2.7 -0.8 -2.7 -0.8 -2.6 -1.35 -2.6 -1.9 -2.55 -2.1 -2.5 -16.2 -2.45 -16.7 -2.35 -17.25 -2.3 -17.5 -2.25 -36.15 -2.25 -36.15 2.25 16.8 2.25 16.95 2.4 17.2 2.55 17.75 2.75 18.45 2.9 18.9 2.95 39.75 2.95 40.3 2.9 40.7 2.8 41.0 2.75 49.55 2.7 50.05 2.65 50.45 2.55 50.75 2.5 53.55 2.5 53.55 -2.25 17.2 -2.25 17.15 -2.3 16.6 -2.5 16.05 -2.6 15.55 -2.7 7.25 -2.7 M4.75 -6.0 L6.75 -6.0 7.25 -6.0 17.75 -6.0 18.25 -5.85 27.5 -5.75 28.0 -5.6 40.1 -5.55 50.2 -5.5 51.9 -5.5 53.55 -5.5 59.15 -5.5 59.65 -5.35 72.75 -5.35 83.5 -5.35 83.8 -5.5 87.0 -5.6 87.3 -5.75 88.25 -5.85 88.55 -6.0 89.0 -6.0 89.25 -6.0 90.0 -6.0 91.75 -6.1 92.05 -6.25 93.6 -6.25 93.6 -6.1 95.1 -6.1 96.1 -6.1 97.6 -6.1 98.65 -6.1 101.5 -6.1 101.85 -6.1 101.85 -6.3 101.95 -6.45 101.95 -6.55 102.05 -6.45 102.35 -6.35 102.55 -6.35 102.45 -6.4 102.2 -6.6 102.05 -6.75 101.95 -6.85 101.95 -7.0 101.95 -7.2 101.95 -7.4 101.95 -7.6 101.95 -7.75 101.95 -7.95 101.95 -8.15 101.95 -8.35 101.95 -8.5 101.95 -8.7 101.95 -8.9 101.95 -9.1 101.95 -9.25 101.95 -9.45 101.95 -9.65 101.85 -9.85 101.75 -9.95 103.5 -10.0 103.55 -9.95 103.85 -9.85 103.85 -9.9 104.2 -9.95 105.2 -10.1 106.3 -9.95 106.6 -9.85 107.35 -9.85 107.35 -9.9 107.6 -9.9 107.8 -10.0 107.8 -10.05 111.7 -10.1 111.7 -10.0 111.7 -9.85 111.7 -9.65 111.7 -9.45 111.7 -9.25 111.7 -9.1 111.7 -8.9 111.7 -8.7 111.7 -8.5 111.7 -8.35 111.8 -8.2 111.55 -8.0 111.6 -7.9 111.7 -7.7 111.7 -7.5 111.7 -7.35 111.7 -7.15 111.7 -6.95 111.7 -6.75 111.7 -6.6 111.7 -6.4 111.7 -6.2 111.7 -6.0 111.7 -5.85 111.7 -5.65 111.7 -5.45 111.7 -5.25 111.7 -5.1 111.7 -4.9 111.7 -4.7 111.7 -4.5 111.7 -4.35 111.7 -4.15 111.7 -3.95 111.7 -3.75 111.7 -3.6 111.7 -3.4 111.7 -3.2 111.7 -3.0 111.7 -2.85 111.7 -2.65 111.7 -2.45 111.7 -2.25 111.7 -2.1 111.7 -1.9 111.7 -1.7 111.7 -1.5 111.7 -1.35 111.7 -1.15 111.7 -0.95 111.7 -0.75 111.7 -0.6 111.7 -0.4 111.7 -0.2 111.6 0.0 111.45 0.15 111.45 0.35 111.45 0.55 111.45 0.75 111.45 0.9 111.45 1.1 111.45 1.3 111.45 1.5 111.45 1.65 111.45 1.85 111.45 2.05 111.45 2.25 111.45 2.4 111.45 2.6 111.45 2.8 111.45 3.0 111.45 3.15 111.45 3.35 111.45 3.55 111.45 3.75 111.45 3.9 111.45 4.1 111.45 4.3 111.45 4.5 111.45 4.65 111.45 4.85 111.45 5.05 111.45 5.25 111.45 5.4 111.45 5.6 111.45 5.8 111.45 6.0 111.45 6.15 111.45 6.35 111.45 6.55 111.45 6.75 111.45 6.9 111.45 7.1 111.45 7.3 111.45 7.45 111.65 7.4 111.7 7.4 111.7 7.55 111.7 7.75 111.7 7.9 111.7 8.1 111.7 8.3 111.7 8.5 111.7 8.65 111.7 8.85 111.7 9.05 111.7 9.25 111.7 9.4 111.7 9.6 111.7 9.8 111.7 10.0 111.7 10.15 111.7 10.35 111.2 10.3 110.85 10.15 108.2 10.05 107.85 9.9 106.1 9.9 104.35 9.9 102.35 9.9 102.05 10.05 101.7 10.05 101.7 9.85 101.7 9.65 101.7 9.5 101.7 9.3 101.7 9.1 101.7 8.9 101.7 8.75 101.7 8.55 101.7 8.35 101.7 8.15 101.7 8.0 101.7 7.8 101.7 7.6 101.7 7.4 101.7 7.25 101.7 7.2 101.8 7.1 101.95 6.9 102.2 6.75 102.25 6.7 102.1 6.65 101.85 6.65 101.85 6.1 101.5 6.1 99.95 6.05 99.6 5.9 98.65 5.9 97.6 5.85 96.1 5.8 95.1 5.8 94.95 5.8 94.6 5.65 93.6 5.65 93.6 5.9 90.0 5.9 89.0 5.9 72.75 5.9 63.35 5.9 63.35 5.95 62.85 6.0 53.55 6.1 51.9 6.1 50.2 6.1 44.8 6.15 40.1 6.15 35.75 6.15 31.35 6.15 19.9 6.15 19.45 6.25 7.25 6.25 6.1 6.25 4.75 6.25 -36.15 6.25 -47.7 6.25 -51.55 6.25 -69.25 6.25 -82.95 6.25 -83.25 6.15 -88.7 6.0 -89.0 5.9 -93.5 5.9 -95.0 5.9 -96.0 5.9 -97.5 5.9 -101.25 5.9 -101.75 5.9 -101.75 6.1 -101.85 6.25 -101.85 6.35 -101.95 6.25 -102.25 6.15 -102.45 6.15 -102.35 6.2 -102.1 6.4 -101.95 6.55 -101.85 6.65 -101.85 6.8 -101.85 7.0 -101.85 7.2 -101.85 7.4 -101.85 7.55 -101.85 7.75 -101.85 7.95 -101.85 8.15 -101.85 8.3 -101.85 8.5 -101.85 8.7 -101.85 8.9 -101.85 9.05 -101.85 9.25 -101.85 9.45 -101.75 9.65 -101.65 9.75 -103.4 9.8 -103.45 9.75 -103.75 9.65 -103.75 9.7 -104.1 9.75 -105.1 9.9 -106.2 9.75 -106.5 9.65 -107.25 9.65 -107.25 9.7 -107.5 9.7 -107.7 9.8 -107.7 9.85 -111.6 9.9 -111.6 9.8 -111.6 9.65 -111.6 9.45 -111.6 9.25 -111.6 9.05 -111.6 8.9 -111.6 8.7 -111.6 8.5 -111.6 8.3 -111.6 8.15 -111.7 8.0 -111.45 7.8 -111.5 7.7 -111.6 7.5 -111.6 7.3 -111.6 7.15 -111.6 6.95 -111.6 6.75 -111.6 6.55 -111.6 6.4 -111.6 6.2 -111.6 6.0 -111.6 5.8 -111.6 5.65 -111.6 5.45 -111.6 5.25 -111.6 5.05 -111.6 4.9 -111.6 4.7 -111.6 4.5 -111.6 4.3 -111.6 4.15 -111.6 3.95 -111.6 3.75 -111.6 3.55 -111.6 3.4 -111.6 3.2 -111.6 3.0 -111.6 2.8 -111.6 2.65 -111.6 2.45 -111.6 2.25 -111.6 2.05 -111.6 1.9 -111.6 1.7 -111.6 1.5 -111.6 1.3 -111.6 1.15 -111.6 0.95 -111.6 0.75 -111.6 0.55 -111.6 0.4 -111.6 0.2 -111.6 0.0 -111.5 -0.2 -111.35 -0.35 -111.35 -0.55 -111.35 -0.75 -111.35 -0.95 -111.35 -1.1 -111.35 -1.3 -111.35 -1.5 -111.35 -1.7 -111.35 -1.85 -111.35 -2.05 -111.35 -2.25 -111.35 -2.45 -111.35 -2.6 -111.35 -2.8 -111.35 -3.0 -111.35 -3.2 -111.35 -3.35 -111.35 -3.55 -111.35 -3.75 -111.35 -3.95 -111.35 -4.1 -111.35 -4.3 -111.35 -4.5 -111.35 -4.7 -111.35 -4.85 -111.35 -5.05 -111.35 -5.25 -111.35 -5.45 -111.35 -5.6 -111.35 -5.8 -111.35 -6.0 -111.35 -6.2 -111.35 -6.35 -111.35 -6.55 -111.35 -6.75 -111.35 -6.95 -111.35 -7.1 -111.35 -7.3 -111.35 -7.5 -111.35 -7.65 -111.55 -7.6 -111.6 -7.6 -111.6 -7.75 -111.6 -7.95 -111.6 -8.1 -111.6 -8.3 -111.6 -8.5 -111.6 -8.7 -111.6 -8.85 -111.6 -9.05 -111.6 -9.25 -111.6 -9.45 -111.6 -9.6 -111.6 -9.8 -111.6 -10.0 -111.6 -10.2 -111.6 -10.35 -111.6 -10.55 -111.1 -10.5 -110.75 -10.35 -108.1 -10.25 -107.75 -10.1 -106.0 -10.1 -104.25 -10.1 -102.25 -10.1 -101.95 -10.25 -101.6 -10.25 -101.6 -10.05 -101.6 -9.85 -101.6 -9.7 -101.6 -9.5 -101.6 -9.3 -101.6 -9.1 -101.6 -8.95 -101.6 -8.75 -101.6 -8.55 -101.6 -8.35 -101.6 -8.2 -101.6 -8.0 -101.6 -7.8 -101.6 -7.6 -101.6 -7.45 -101.6 -7.4 -101.7 -7.3 -101.85 -7.1 -102.1 -6.95 -102.15 -6.9 -102.0 -6.85 -101.75 -6.85 -101.75 -6.3 -99.85 -6.25 -99.5 -6.1 -97.5 -6.05 -96.0 -6.0 -95.0 -6.0 -94.85 -6.0 -94.5 -5.85 -93.5 -5.85 -75.5 -5.85 -75.2 -6.0 -69.25 -6.0 -52.1 -6.0 -51.55 -5.85 -47.7 -5.85 -36.15 -5.85 -31.2 -5.85 -30.4 -5.85 -19.65 -5.85 -15.8 -5.85 -15.4 -5.95 -15.35 -5.95 -15.05 -5.85 -4.25 -5.85 -3.8 -6.0 4.75 -6.0" fill="#705832" fill-rule="evenodd" stroke="none"/>
    <path d="M40.1 -2.25 L40.1 2.5 37.3 2.5 37.0 2.55 36.6 2.65 36.05 2.7 27.5 2.75 27.25 2.8 26.85 2.9 26.3 2.95 5.45 2.95 4.95 2.9 4.75 2.85 4.75 2.25 -68.0 2.25 -68.15 2.4 -68.45 2.55 -68.75 2.75 -69.25 2.95 -69.55 3.05 -69.85 3.15 -70.25 3.2 -71.0 3.2 -71.35 3.15 -71.7 3.05 -71.85 3.0 -75.25 2.95 -75.6 2.9 -75.95 2.8 -76.1 2.75 -77.25 2.7 -77.6 2.65 -77.95 2.55 -78.1 2.5 -82.75 2.45 -83.1 2.4 -83.45 2.3 -83.6 2.25 -100.0 2.25 -100.0 0.9 -100.1 0.7 -100.1 0.5 -100.2 0.3 -100.2 0.15 -100.2 -0.05 -100.2 -0.25 -100.1 -0.45 -100.1 -0.6 -100.05 -0.8 -100.0 -1.0 -100.0 -2.25 -96.35 -2.25 -96.2 -2.3 -95.85 -2.35 -95.5 -2.35 -95.5 -2.45 -93.5 -2.45 -86.0 -2.45 -85.6 -2.35 -85.3 -2.3 -85.1 -2.25 -32.85 -2.25 -32.65 -2.3 -32.1 -2.35 -31.55 -2.45 -17.5 -2.5 -17.25 -2.55 -16.7 -2.6 -16.2 -2.6 -16.2 -2.7 4.2 -2.7 4.8 -2.6 5.4 -2.5 6.05 -2.3 6.1 -2.25 40.1 -2.25 M84.15 -2.35 L84.5 -2.45 86.9 -2.5 87.05 -2.55 87.4 -2.6 87.75 -2.7 89.0 -2.7 89.2 -2.7 90.65 -2.75 90.8 -2.8 91.15 -2.85 91.5 -2.85 91.5 -2.95 98.0 -2.95 98.4 -2.85 98.8 -2.75 99.2 -2.55 99.45 -2.35 99.6 -2.25 99.75 -2.25 99.75 -2.0 99.9 -1.8 100.0 -1.6 100.05 -1.45 100.15 -1.25 100.15 -1.05 100.2 -0.85 100.2 -0.7 100.2 -0.5 100.15 -0.3 100.05 -0.1 100.0 0.05 99.95 0.25 99.8 0.45 99.75 0.55 99.75 2.25 83.4 2.25 83.2 2.3 82.9 2.4 82.5 2.45 72.75 2.45 50.2 2.5 50.2 -2.25 83.65 -2.25 83.8 -2.3 84.15 -2.35" fill="#000000" fill-rule="evenodd" stroke="none"/>
    <path d="M106.75 -7.75 L108.25 -7.75 108.75 -7.6 109.05 -7.45 109.25 -7.25 109.45 -7.05 109.55 -6.85 109.65 -6.7 109.75 -6.5 109.8 -6.3 109.95 -6.1 110.0 -5.95 110.0 -5.75 110.0 -5.55 110.0 -5.35 110.0 -5.2 110.0 -5.0 110.0 -4.8 110.0 -4.6 110.0 -4.45 110.0 -4.25 110.0 -4.05 110.0 -3.85 110.0 -3.7 110.0 -3.5 110.0 -3.3 110.0 -3.1 110.0 -2.95 110.0 -2.75 110.0 -2.55 110.0 -2.35 110.0 -2.2 110.0 -2.0 110.0 -1.8 110.0 -1.6 110.0 -1.45 110.0 -1.25 110.0 -1.05 110.0 -0.85 110.0 -0.7 110.0 -0.5 110.0 -0.3 110.0 -0.1 110.0 0.05 110.0 0.25 110.0 0.45 110.0 0.65 110.0 0.8 110.0 1.0 110.0 1.2 110.0 1.4 110.0 1.55 110.0 1.75 110.0 1.95 110.0 2.15 110.0 2.3 110.0 2.5 110.0 2.7 110.0 2.9 110.0 3.05 110.0 3.25 110.0 3.45 110.0 3.65 110.0 3.8 110.0 4.0 110.0 4.2 110.0 4.4 110.0 4.55 110.0 4.75 110.0 4.95 110.0 5.15 110.0 5.3 110.0 5.5 110.0 5.7 110.0 5.9 110.0 6.05 110.0 6.25 110.0 6.45 110.0 6.65 110.0 6.8 109.95 7.0 109.9 7.2 109.8 7.4 109.7 7.55 109.45 7.75 109.3 7.9 109.15 7.95 108.75 8.0 105.25 8.0 104.7 7.9 104.45 7.7 104.25 7.5 104.15 7.3 104.05 7.15 104.0 6.95 104.0 6.75 104.0 6.55 104.0 6.4 104.0 6.2 104.0 6.0 104.0 5.8 104.0 5.65 104.0 5.45 104.0 5.25 104.0 5.2 104.0 5.05 104.0 5.0 104.0 4.9 104.0 4.8 104.0 4.7 104.0 4.25 104.0 4.15 104.0 4.05 104.0 3.95 104.0 3.5 104.0 3.4 104.0 3.3 104.0 3.2 104.0 3.15 104.0 3.0 104.0 2.95 104.0 2.8 104.0 2.75 104.0 2.65 104.0 2.55 104.0 2.45 104.0 2.4 104.0 2.25 104.0 2.2 104.0 2.05 104.0 2.0 104.0 1.8 104.0 1.65 104.0 1.45 104.0 1.25 104.0 1.05 104.0 0.9 104.0 0.7 104.0 0.5 104.0 0.3 104.0 0.15 104.0 -0.05 104.0 -0.25 104.0 -0.45 104.0 -0.6 104.0 -0.8 103.95 -1.0 103.9 -1.2 103.8 -1.35 103.75 -1.55 103.75 -1.75 103.75 -1.95 103.75 -2.1 103.75 -2.3 103.75 -2.5 103.75 -2.7 103.75 -2.85 103.75 -3.05 103.75 -3.25 103.75 -3.45 103.75 -3.6 103.75 -3.8 103.75 -4.0 103.75 -4.2 103.75 -4.35 103.75 -4.5 103.75 -4.55 103.75 -4.7 103.75 -4.95 103.75 -5.05 103.75 -5.25 103.75 -5.45 103.75 -5.6 103.75 -5.8 103.75 -6.0 103.8 -6.2 103.9 -6.35 104.0 -6.55 104.05 -6.75 104.2 -6.95 104.4 -7.1 104.55 -7.3 104.9 -7.45 105.25 -7.5 106.2 -7.6 106.75 -7.7 106.75 -7.75 M-103.95 -7.7 L-103.75 -7.5 -103.7 -7.3 -103.55 -7.1 -103.5 -6.95 -103.5 -6.75 -103.5 -6.55 -103.5 -6.35 -103.5 -6.2 -103.5 -6.0 -103.5 -5.8 -103.5 -5.6 -103.5 -5.45 -103.5 -5.25 -103.5 -5.05 -103.5 -4.85 -103.5 -4.7 -103.5 -4.5 -103.5 -4.3 -103.5 -4.1 -103.5 -3.95 -103.5 -3.75 -103.5 -3.55 -103.5 -3.35 -103.5 -3.2 -103.5 -3.0 -103.5 -2.8 -103.5 -2.6 -103.5 -2.45 -103.5 -2.25 -103.5 -2.05 -103.5 -1.85 -103.5 -1.7 -103.5 -1.5 -103.5 -1.3 -103.5 -1.1 -103.5 -0.95 -103.5 -0.75 -103.5 -0.55 -103.5 -0.35 -103.5 -0.2 -103.5 0.0 -103.5 0.2 -103.5 0.4 -103.5 0.55 -103.5 0.75 -103.5 0.95 -103.5 1.15 -103.5 1.3 -103.5 1.5 -103.5 1.7 -103.5 1.9 -103.5 2.05 -103.5 2.25 -103.5 2.45 -103.5 2.65 -103.5 2.8 -103.5 3.0 -103.5 3.2 -103.5 3.4 -103.5 3.55 -103.5 3.75 -103.5 3.95 -103.5 4.15 -103.5 4.3 -103.5 4.5 -103.5 4.7 -103.5 4.9 -103.5 5.05 -103.5 5.25 -103.5 5.45 -103.5 5.65 -103.5 5.8 -103.5 6.0 -103.5 6.2 -103.5 6.25 -103.45 6.45 -103.3 6.65 -103.25 6.8 -103.25 7.0 -103.25 7.2 -103.25 7.4 -103.3 7.55 -103.35 7.75 -103.5 7.95 -103.6 8.15 -103.85 8.3 -104.1 8.45 -104.5 8.5 -105.05 8.4 -108.0 8.25 -108.55 8.15 -108.8 7.95 -109.0 7.75 -109.2 7.55 -109.35 7.4 -109.45 7.2 -109.5 7.0 -109.5 6.8 -109.5 6.65 -109.5 6.45 -109.5 6.25 -109.5 6.05 -109.5 5.9 -109.5 5.7 -109.5 5.5 -109.5 5.3 -109.5 5.15 -109.5 4.95 -109.5 4.75 -109.5 4.55 -109.5 4.4 -109.5 4.2 -109.5 4.0 -109.5 3.8 -109.5 3.65 -109.5 3.45 -109.5 3.25 -109.5 3.05 -109.5 2.9 -109.5 2.7 -109.5 2.5 -109.5 2.3 -109.5 2.15 -109.5 1.95 -109.5 1.75 -109.5 1.55 -109.5 1.4 -109.5 1.2 -109.5 1.0 -109.5 0.8 -109.5 0.65 -109.5 0.45 -109.5 0.25 -109.5 0.05 -109.5 -0.1 -109.5 -0.3 -109.5 -0.5 -109.5 -0.7 -109.5 -0.85 -109.5 -1.05 -109.5 -1.25 -109.5 -1.45 -109.5 -1.6 -109.5 -1.8 -109.5 -2.0 -109.45 -2.2 -109.35 -2.35 -109.25 -2.55 -109.25 -2.75 -109.25 -2.95 -109.25 -3.1 -109.25 -3.3 -109.25 -3.5 -109.25 -3.7 -109.25 -3.85 -109.25 -4.05 -109.25 -4.25 -109.25 -4.45 -109.25 -4.6 -109.25 -4.8 -109.25 -5.0 -109.25 -5.2 -109.2 -5.35 -109.1 -5.55 -109.05 -5.75 -109.0 -5.95 -109.0 -6.1 -109.0 -6.3 -109.0 -6.5 -109.0 -6.7 -108.95 -6.85 -108.85 -7.05 -108.75 -7.25 -108.55 -7.45 -108.3 -7.6 -108.1 -7.6 -108.05 -7.7 -107.8 -7.85 -107.25 -7.95 -107.25 -8.0 -104.75 -8.0 -104.25 -7.85 -103.95 -7.7 M-106.5 -5.35 L-106.5 -5.2 -106.25 -5.1 -106.0 -5.1 -106.0 -5.3 -106.0 -5.45 -106.5 -5.45 -106.5 -5.35" fill="#000000" fill-opacity="0.99215686" fill-rule="evenodd" stroke="none"/>
  </g>
</svg>
