<?xml version="1.0" encoding="UTF-8" standalone="no"?>
<svg xmlns:ffdec="https://www.free-decompiler.com/flash" xmlns:xlink="http://www.w3.org/1999/xlink" ffdec:objectType="shape" height="69.3px" width="69.65px" xmlns="http://www.w3.org/2000/svg">
  <g transform="matrix(1.0, 0.0, 0.0, 1.0, 34.55, 34.35)">
    <path d="M7.4 -33.35 L7.5 -33.35 7.6 -33.3 7.65 -33.25 7.75 -33.2 7.85 -33.2 8.0 -33.15 8.05 -33.1 8.2 -33.1 8.25 -33.05 8.35 -33.0 8.5 -33.0 8.6 -33.0 8.7 -32.95 8.8 -32.9 8.9 -32.85 8.95 -32.85 9.05 -32.8 9.15 -32.75 9.25 -32.7 9.35 -32.7 9.45 -32.65 9.55 -32.6 9.6 -32.5 9.7 -32.4 9.8 -32.3 9.9 -32.2 10.0 -32.1 10.1 -32.0 10.2 -31.9 10.3 -31.8 10.4 -31.7 10.5 -31.6 10.6 -31.5 10.65 -31.5 10.8 -31.45 10.85 -31.4 10.95 -31.35 11.0 -31.3 11.05 -31.2 11.1 -31.1 11.15 -31.0 11.15 -30.9 11.2 -30.8 11.2 -30.65 11.2 -30.55 11.15 -30.35 11.15 -30.25 11.05 -30.15 11.05 -30.1 10.95 -29.9 10.95 -29.8 10.95 -29.6 10.9 -29.5 10.85 -29.4 10.75 -29.2 10.65 -29.05 10.55 -28.9 10.45 -28.75 10.3 -28.5 10.3 -28.35 10.3 -28.25 10.25 -28.2 10.15 -28.0 10.15 -27.9 10.1 -27.85 10.05 -27.7 10.0 -27.6 9.9 -27.5 9.85 -27.3 9.8 -27.15 9.8 -27.05 9.75 -27.0 9.7 -26.9 9.55 -26.65 9.45 -26.4 9.4 -26.25 9.4 -26.15 9.35 -26.05 9.3 -25.95 9.2 -25.75 9.1 -25.55 9.1 -25.4 9.05 -25.35 9.0 -25.25 8.9 -25.1 8.8 -24.9 8.75 -24.8 8.65 -24.6 8.6 -24.4 8.6 -24.25 8.55 -24.1 8.55 -24.0 8.55 -23.95 8.45 -23.85 8.35 -23.7 8.25 -23.5 8.2 -23.3 8.2 -23.2 8.2 -23.05 8.2 -22.95 8.2 -22.9 8.1 -22.75 8.0 -22.55 7.95 -22.4 7.8 -22.25 7.75 -22.2 7.6 -22.05 7.4 -22.0 7.25 -21.95 7.1 -21.95 7.0 -21.95 6.9 -22.0 6.8 -22.0 6.7 -22.05 6.6 -22.1 6.5 -22.1 6.4 -22.15 6.25 -22.1 6.1 -22.1 5.95 -22.1 5.85 -22.1 5.75 -22.15 5.65 -22.2 5.55 -22.2 5.5 -22.3 5.45 -22.35 5.35 -22.4 5.3 -22.5 5.25 -22.55 5.15 -22.55 5.05 -22.6 4.95 -22.65 4.85 -22.7 4.75 -22.7 4.6 -22.75 4.5 -22.75 4.4 -22.75 4.3 -22.8 4.2 -22.8 4.05 -22.85 3.95 -22.85 3.85 -22.9 3.75 -22.95 3.65 -22.95 3.5 -22.95 3.4 -22.95 3.3 -23.0 3.25 -23.05 3.1 -23.05 3.0 -23.1 2.85 -23.1 2.75 -23.1 2.6 -23.1 2.5 -23.15 2.35 -23.15 2.2 -23.1 2.1 -23.1 1.95 -23.1 1.85 -23.15 1.75 -23.15 1.65 -23.2 1.55 -23.25 1.45 -23.25 1.35 -23.3 1.2 -23.3 1.05 -23.3 0.95 -23.3 0.8 -23.3 0.65 -23.3 0.55 -23.3 0.4 -23.3 0.3 -23.3 0.2 -23.3 0.1 -23.35 -0.05 -23.35 -0.15 -23.35 -0.3 -23.4 -0.4 -23.4 -0.5 -23.45 -0.6 -23.45 -0.75 -23.45 -0.9 -23.45 -1.0 -23.5 -1.15 -23.45 -1.3 -23.45 -1.4 -23.45 -1.6 -23.4 -1.75 -23.35 -1.9 -23.35 -2.05 -23.3 -2.25 -23.3 -2.4 -23.3 -2.55 -23.25 -2.75 -23.2 -2.95 -23.15 -3.1 -23.1 -3.2 -23.1 -3.25 -23.05 -3.4 -22.95 -3.6 -22.85 -3.8 -22.8 -4.2 -22.4 -4.35 -22.25 -4.55 -22.15 -4.7 -22.05 -4.9 -22.0 -5.1 -21.95 -5.2 -21.95 -5.35 -21.95 -5.45 -22.0 -5.55 -22.0 -5.65 -22.05 -5.75 -22.1 -5.85 -22.15 -5.9 -22.2 -6.0 -22.25 -6.05 -22.3 -6.1 -22.35 -6.2 -22.45 -6.3 -22.55 -6.4 -22.65 -6.5 -22.75 -6.6 -22.85 -6.65 -22.9 -6.7 -23.0 -6.75 -23.1 -6.8 -23.15 -6.85 -23.25 -6.9 -23.35 -6.95 -23.4 -7.0 -23.5 -7.0 -23.65 -7.0 -23.75 -7.0 -23.85 -7.0 -24.0 -7.05 -24.1 -7.1 -24.2 -7.15 -24.3 -7.2 -24.35 -7.2 -24.45 -7.25 -24.55 -7.35 -24.6 -7.4 -24.65 -7.45 -24.75 -7.5 -24.85 -7.5 -24.95 -7.5 -25.1 -7.5 -25.25 -7.5 -25.35 -7.5 -25.5 -7.45 -25.6 -7.4 -25.75 -7.3 -25.8 -7.3 -25.9 -7.3 -26.05 -7.35 -26.15 -7.35 -26.3 -7.35 -26.4 -7.3 -26.55 -7.3 -26.75 -7.3 -26.85 -7.35 -26.95 -7.35 -27.05 -7.4 -27.15 -7.4 -27.3 -7.4 -27.45 -7.4 -27.55 -7.4 -27.7 -7.45 -27.75 -7.5 -27.85 -7.5 -27.95 -7.5 -28.1 -7.5 -28.25 -7.5 -28.35 -7.5 -28.5 -7.55 -28.6 -7.6 -28.7 -7.6 -28.8 -7.65 -28.9 -7.65 -29.0 -7.7 -29.1 -7.7 -29.25 -7.7 -29.4 -7.75 -29.45 -7.75 -29.6 -7.8 -29.7 -7.8 -29.8 -7.8 -29.95 -7.85 -30.0 -7.85 -30.15 -7.9 -30.25 -7.95 -30.35 -7.95 -30.4 -8.0 -30.5 -8.05 -30.6 -8.05 -30.75 -8.05 -30.85 -8.15 -30.95 -8.2 -31.0 -8.25 -31.1 -8.3 -31.15 -8.3 -31.3 -8.3 -31.4 -8.3 -31.55 -8.3 -31.65 -8.25 -31.7 -8.2 -31.85 -8.05 -31.95 -8.1 -32.0 -8.0 -32.05 -8.0 -32.1 -8.05 -32.2 -8.05 -32.35 -8.05 -32.45 -8.0 -32.6 -8.0 -32.65 -7.95 -32.75 -7.8 -32.9 -7.6 -33.1 -7.65 -33.15 -7.5 -33.25 -7.35 -33.3 -7.15 -33.35 -7.0 -33.35 -6.9 -33.35 -6.7 -33.4 -6.55 -33.45 -6.35 -33.5 -6.2 -33.55 -6.05 -33.6 -5.9 -33.65 -5.7 -33.7 -5.55 -33.7 -5.45 -33.7 -5.25 -33.75 -5.1 -33.8 -4.95 -33.8 -4.75 -33.9 -4.55 -33.95 -4.35 -33.95 -4.2 -34.0 -4.05 -34.0 -3.9 -34.05 -3.7 -34.1 -3.55 -34.15 -3.4 -34.15 -3.25 -34.15 -3.1 -34.2 -3.0 -34.2 -2.85 -34.3 -2.65 -34.35 -2.5 -34.35 -2.4 -34.3 -2.3 -34.25 -2.2 -34.25 -2.1 -34.2 -1.95 -34.2 -1.8 -34.25 -1.7 -34.25 -1.55 -34.25 -1.45 -34.2 -1.3 -34.2 -1.15 -34.25 -1.0 -34.25 -0.9 -34.25 -0.75 -34.25 -0.65 -34.2 -0.5 -34.2 -0.35 -34.25 -0.15 -34.3 -0.05 -34.3 0.1 -34.3 0.2 -34.25 0.35 -34.3 0.5 -34.3 0.65 -34.35 0.8 -34.3 0.9 -34.3 1.0 -34.3 1.15 -34.3 1.35 -34.35 1.45 -34.35 1.55 -34.3 1.7 -34.3 1.85 -34.3 2.0 -34.35 2.1 -34.35 2.2 -34.3 2.3 -34.25 2.4 -34.2 2.5 -34.2 2.7 -34.2 2.85 -34.25 2.95 -34.2 3.05 -34.2 3.15 -34.15 3.25 -34.15 3.4 -34.15 3.55 -34.15 3.65 -34.1 3.75 -34.1 3.8 -34.05 3.95 -34.0 4.05 -34.0 4.2 -34.0 4.3 -33.95 4.4 -33.95 4.45 -33.9 4.6 -33.9 4.75 -33.9 4.85 -33.9 4.95 -33.85 5.05 -33.8 5.15 -33.8 5.25 -33.75 5.4 -33.8 5.55 -33.8 5.7 -33.8 5.8 -33.75 5.9 -33.75 6.0 -33.7 6.1 -33.65 6.15 -33.6 6.3 -33.6 6.4 -33.6 6.5 -33.55 6.65 -33.55 6.7 -33.5 6.85 -33.45 6.95 -33.45 7.05 -33.4 7.15 -33.4 7.3 -33.4 7.4 -33.35 M6.15 -31.95 L6.0 -31.95 5.9 -31.95 5.75 -31.95 5.65 -32.0 5.55 -32.05 5.45 -32.05 5.3 -32.05 5.15 -32.05 5.1 -32.05 4.95 -32.05 4.85 -32.1 4.75 -32.15 4.7 -32.2 4.6 -32.25 4.45 -32.25 4.35 -32.25 4.2 -32.25 4.1 -32.3 4.0 -32.3 3.9 -32.35 3.75 -32.35 3.65 -32.35 3.55 -32.4 3.45 -32.4 3.3 -32.45 3.25 -32.45 3.1 -32.45 2.95 -32.45 2.85 -32.45 2.75 -32.5 2.65 -32.55 2.5 -32.55 2.4 -32.55 2.25 -32.55 2.15 -32.6 2.05 -32.6 1.95 -32.65 1.8 -32.65 1.7 -32.65 1.55 -32.65 1.4 -32.65 1.3 -32.65 1.15 -32.65 1.0 -32.65 0.9 -32.65 0.75 -32.65 0.7 -32.65 0.5 -32.6 0.35 -32.55 0.2 -32.55 0.1 -32.55 0.0 -32.6 -0.1 -32.65 -0.15 -32.65 -0.3 -32.6 -0.45 -32.5 -0.6 -32.45 -0.75 -32.45 -0.9 -32.45 -0.95 -32.5 -1.05 -32.55 -1.15 -32.6 -1.3 -32.6 -1.4 -32.6 -1.55 -32.6 -1.7 -32.6 -1.85 -32.55 -2.0 -32.55 -2.1 -32.55 -2.25 -32.6 -2.35 -32.6 -2.45 -32.65 -2.55 -32.65 -2.7 -32.6 -2.85 -32.55 -3.0 -32.55 -3.15 -32.55 -3.2 -32.6 -3.4 -32.5 -3.55 -32.4 -3.7 -32.4 -3.85 -32.4 -4.0 -32.35 -4.15 -32.35 -4.25 -32.3 -4.45 -32.25 -4.6 -32.2 -4.7 -32.2 -4.75 -32.2 -4.85 -32.15 -5.0 -32.05 -5.15 -32.05 -5.3 -32.05 -5.45 -32.0 -5.65 -31.95 -5.8 -31.95 -5.95 -31.9 -6.15 -31.85 -6.3 -31.8 -6.5 -31.75 -6.65 -31.7 -6.65 -31.6 -6.6 -31.5 -6.55 -31.4 -6.5 -31.3 -6.5 -31.2 -6.45 -31.1 -6.45 -31.0 -6.4 -30.9 -6.35 -30.8 -6.25 -30.75 -6.25 -30.65 -6.2 -30.55 -6.2 -30.45 -6.15 -30.35 -6.1 -30.25 -6.1 -30.15 -6.1 -30.0 -6.1 -29.85 -6.05 -29.75 -6.05 -29.65 -6.0 -29.55 -6.0 -29.4 -6.0 -29.3 -6.0 -29.2 -5.95 -29.05 -5.95 -28.95 -5.9 -28.85 -5.9 -28.75 -5.9 -28.65 -5.9 -28.5 -5.85 -28.4 -5.85 -28.25 -5.85 -28.15 -5.8 -28.05 -5.8 -27.9 -5.8 -27.75 -5.8 -27.65 -5.75 -27.55 -5.75 -27.45 -5.7 -27.3 -5.7 -27.2 -5.7 -27.1 -5.7 -26.95 -5.65 -26.85 -5.65 -26.75 -5.65 -26.6 -5.7 -26.45 -5.7 -26.3 -5.65 -26.2 -5.65 -26.05 -5.65 -25.95 -5.7 -25.8 -5.65 -25.65 -5.6 -25.6 -5.6 -25.45 -5.55 -25.35 -5.55 -25.25 -5.55 -25.1 -5.5 -25.05 -5.45 -24.95 -5.45 -24.85 -5.4 -24.75 -5.35 -24.65 -5.35 -24.5 -5.35 -24.35 -5.35 -24.3 -5.4 -24.2 -5.4 -24.1 -5.35 -23.95 -5.35 -23.85 -5.3 -23.8 -5.2 -23.7 -5.05 -23.8 -4.85 -24.0 -4.7 -24.15 -4.55 -24.25 -4.35 -24.35 -4.15 -24.45 -3.9 -24.6 -3.75 -24.65 -3.6 -24.7 -3.4 -24.7 -3.25 -24.75 -3.05 -24.85 -2.85 -24.85 -2.75 -24.85 -2.6 -24.85 -2.45 -24.9 -2.2 -25.0 -2.05 -25.05 -1.85 -25.1 -1.7 -25.15 -1.55 -25.15 -1.45 -25.1 -1.35 -25.05 -1.2 -25.1 -1.0 -25.15 -0.9 -25.15 -0.75 -25.1 -0.65 -25.1 -0.55 -25.1 -0.35 -25.15 -0.2 -25.15 -0.1 -25.1 0.0 -25.1 0.15 -25.1 0.25 -25.05 0.35 -25.05 0.45 -25.0 0.55 -24.95 0.6 -24.9 0.75 -24.9 0.85 -24.85 0.95 -24.85 1.05 -24.85 1.2 -24.85 1.35 -24.85 1.45 -24.85 1.6 -24.85 1.75 -24.85 1.85 -24.85 2.0 -24.85 2.1 -24.8 2.2 -24.8 2.35 -24.8 2.5 -24.8 2.6 -24.8 2.7 -24.75 2.85 -24.75 3.0 -24.8 3.15 -24.8 3.25 -24.75 3.35 -24.7 3.45 -24.7 3.55 -24.65 3.65 -24.65 3.75 -24.6 3.9 -24.6 4.0 -24.55 4.1 -24.55 4.2 -24.5 4.3 -24.45 4.4 -24.45 4.55 -24.45 4.65 -24.45 4.75 -24.4 4.8 -24.35 4.95 -24.35 5.05 -24.3 5.15 -24.3 5.25 -24.25 5.4 -24.25 5.55 -24.25 5.6 -24.2 5.75 -24.2 5.8 -24.15 5.9 -24.1 5.95 -24.05 6.05 -23.95 6.15 -23.85 6.25 -23.75 6.3 -23.7 6.5 -23.75 6.6 -23.85 6.65 -24.0 6.7 -24.1 6.8 -24.25 6.85 -24.4 6.9 -24.55 6.9 -24.7 7.0 -24.9 7.1 -25.05 7.2 -25.3 7.25 -25.5 7.25 -25.6 7.3 -25.65 7.35 -25.8 7.5 -26.0 7.6 -26.25 7.65 -26.35 7.65 -26.4 7.7 -26.55 7.8 -26.75 7.85 -26.85 7.85 -26.9 7.95 -27.1 8.0 -27.2 8.0 -27.25 8.05 -27.35 8.2 -27.6 8.2 -27.75 8.25 -27.85 8.25 -27.9 8.35 -28.05 8.45 -28.25 8.5 -28.45 8.6 -28.6 8.7 -28.8 8.75 -28.95 8.75 -29.1 8.85 -29.25 8.95 -29.4 9.1 -29.6 9.15 -29.75 9.2 -29.85 9.25 -30.0 9.35 -30.15 9.35 -30.25 9.35 -30.4 9.4 -30.45 9.35 -30.5 9.3 -30.6 9.25 -30.65 9.15 -30.7 9.1 -30.75 9.0 -30.85 8.95 -30.9 8.9 -31.0 8.8 -31.05 8.75 -31.1 8.65 -31.15 8.55 -31.15 8.45 -31.2 8.4 -31.25 8.3 -31.3 8.2 -31.3 8.1 -31.35 8.0 -31.4 7.9 -31.45 7.8 -31.45 7.7 -31.5 7.6 -31.55 7.45 -31.55 7.4 -31.6 7.3 -31.65 7.2 -31.7 7.1 -31.7 7.0 -31.7 6.85 -31.75 6.75 -31.75 6.7 -31.8 6.6 -31.85 6.5 -31.9 6.4 -31.9 6.3 -31.95 6.15 -31.95 M27.3 -7.75 L27.4 -7.75 27.45 -7.75 27.6 -7.8 27.75 -7.9 27.9 -8.0 28.1 -8.1 28.3 -8.1 28.35 -8.1 28.45 -8.15 28.6 -8.2 28.8 -8.3 28.95 -8.3 29.1 -8.3 29.25 -8.35 29.35 -8.35 29.5 -8.45 29.7 -8.5 29.85 -8.55 30.0 -8.6 30.15 -8.6 30.25 -8.6 30.45 -8.65 30.65 -8.7 30.75 -8.7 30.9 -8.7 31.1 -8.75 31.25 -8.8 31.4 -8.8 31.5 -8.8 31.65 -8.8 31.75 -8.75 31.9 -8.8 32.05 -8.8 32.15 -8.75 32.25 -8.7 32.35 -8.7 32.45 -8.7 32.55 -8.65 32.65 -8.6 32.75 -8.55 32.8 -8.5 32.9 -8.45 32.9 -8.35 33.0 -8.4 33.15 -8.4 33.25 -8.35 33.35 -8.3 33.45 -8.3 33.5 -8.25 33.6 -8.2 33.7 -8.1 33.7 -8.05 33.75 -7.95 33.8 -7.85 33.85 -7.75 33.85 -7.65 33.85 -7.5 33.85 -7.35 33.9 -7.3 33.95 -7.2 33.95 -7.1 34.0 -6.95 34.0 -6.85 34.05 -6.8 34.05 -6.65 34.1 -6.6 34.15 -6.45 34.2 -6.4 34.25 -6.3 34.25 -6.2 34.3 -6.1 34.3 -5.95 34.3 -5.8 34.3 -5.7 34.35 -5.6 34.35 -5.45 34.35 -5.35 34.4 -5.25 34.45 -5.15 34.45 -5.05 34.45 -4.95 34.5 -4.85 34.55 -4.75 34.55 -4.65 34.6 -4.5 34.6 -4.4 34.65 -4.3 34.65 -4.2 34.7 -4.1 34.75 -4.0 34.75 -3.9 34.8 -3.8 34.8 -3.7 34.8 -3.55 34.8 -3.45 34.85 -3.35 34.9 -3.25 34.9 -3.15 34.95 -3.0 35.0 -2.95 35.0 -2.8 35.0 -2.7 35.0 -2.55 35.0 -2.45 35.05 -2.35 35.1 -2.25 35.1 -2.1 35.1 -2.0 35.05 -1.85 35.05 -1.65 35.05 -1.55 35.05 -1.4 35.05 -1.25 35.05 -1.15 35.05 -1.0 35.05 -0.9 35.0 -0.7 35.0 -0.55 35.0 -0.45 35.0 -0.3 34.95 -0.1 34.9 0.05 34.9 0.2 34.9 0.3 34.9 0.4 34.9 0.55 34.9 0.7 34.85 0.85 34.9 0.95 34.9 1.05 34.9 1.2 34.9 1.35 34.85 1.5 34.9 1.6 34.9 1.75 34.9 1.9 34.9 2.0 34.9 2.15 34.9 2.25 34.9 2.4 34.9 2.55 34.85 2.7 34.85 2.85 34.85 2.95 34.85 3.1 34.85 3.2 34.8 3.3 34.75 3.45 34.8 3.5 34.8 3.65 34.8 3.8 34.75 3.9 34.7 4.05 34.65 4.25 34.65 4.4 34.65 4.5 34.6 4.55 34.55 4.65 34.45 4.8 34.25 4.95 34.1 5.0 34.1 5.1 34.05 5.25 34.0 5.5 33.95 5.65 33.85 5.85 33.85 6.0 33.85 6.15 33.8 6.35 33.75 6.55 33.75 6.6 33.7 6.7 33.65 6.85 33.6 7.05 33.6 7.15 33.55 7.3 33.5 7.5 33.5 7.65 33.5 7.8 33.45 7.95 33.4 8.15 33.4 8.25 33.35 8.3 33.3 8.45 33.15 8.65 33.15 8.8 33.15 8.95 33.15 9.05 33.1 9.25 33.0 9.45 33.0 9.6 32.95 9.75 32.9 9.85 32.8 10.0 32.75 10.05 32.6 10.15 32.45 10.25 32.3 10.35 32.15 10.35 32.15 10.4 32.05 10.5 31.95 10.65 31.8 10.75 31.6 10.85 31.45 10.9 31.35 10.9 31.2 10.9 31.1 10.85 31.0 10.8 30.95 10.75 30.85 10.7 30.75 10.65 30.65 10.6 30.6 10.55 30.45 10.55 30.35 10.55 30.3 10.45 30.2 10.4 30.1 10.4 29.95 10.4 29.85 10.35 29.75 10.35 29.7 10.3 29.6 10.2 29.5 10.1 29.4 10.05 29.3 9.95 29.25 9.9 29.15 9.85 29.05 9.85 28.95 9.8 28.85 9.75 28.75 9.75 28.65 9.75 28.55 9.7 28.4 9.7 28.35 9.6 28.25 9.6 28.15 9.55 28.0 9.55 27.9 9.55 27.8 9.5 27.65 9.5 27.55 9.5 27.45 9.45 27.35 9.4 27.2 9.4 27.15 9.4 27.05 9.35 26.95 9.3 26.85 9.3 26.7 9.25 26.6 9.25 26.45 9.25 26.4 9.2 26.25 9.2 26.1 9.2 26.05 9.15 25.9 9.15 25.75 9.15 25.65 9.15 25.55 9.1 25.45 9.05 25.3 9.05 25.2 9.05 25.1 9.0 25.0 9.0 24.9 9.0 24.75 9.0 24.65 8.95 24.55 8.95 24.45 8.85 24.35 8.8 24.25 8.8 24.15 8.8 24.05 8.75 23.95 8.75 23.8 8.7 23.75 8.65 23.65 8.65 23.55 8.6 23.45 8.55 23.35 8.55 23.25 8.45 23.2 8.45 23.1 8.35 23.0 8.25 22.95 8.15 22.85 8.1 22.8 8.05 22.7 7.95 22.6 7.9 22.5 7.85 22.45 7.8 22.4 7.7 22.3 7.65 22.25 7.55 22.25 7.5 22.2 7.4 22.2 7.25 22.2 7.1 22.2 7.0 22.2 6.9 22.25 6.8 22.3 6.65 22.3 6.5 22.35 6.35 22.35 6.2 22.35 6.05 22.4 5.9 22.45 5.7 22.45 5.6 22.45 5.45 22.45 5.35 22.5 5.25 22.55 5.15 22.65 5.0 22.75 4.75 22.75 4.6 22.75 4.45 22.8 4.3 22.8 4.15 22.85 4.0 22.9 3.8 22.9 3.7 22.9 3.55 22.95 3.4 23.0 3.25 23.05 3.1 23.05 2.95 23.05 2.8 23.1 2.6 23.15 2.45 23.15 2.3 23.15 2.15 23.2 2.05 23.25 1.95 23.35 1.8 23.35 1.65 23.35 1.5 23.35 1.4 23.35 1.2 23.45 1.0 23.5 0.85 23.5 0.65 23.5 0.55 23.45 0.45 23.45 0.3 23.45 0.2 23.5 0.0 23.5 -0.1 23.5 -0.25 23.5 -0.4 23.55 -0.55 23.5 -0.65 23.5 -0.8 23.5 -0.9 23.5 -1.05 23.5 -1.2 23.45 -1.25 23.45 -1.4 23.4 -1.5 23.4 -1.65 23.4 -1.75 23.45 -1.95 23.45 -2.05 23.45 -2.2 23.45 -2.3 23.4 -2.4 23.35 -2.5 23.35 -2.6 23.35 -2.75 23.35 -2.85 23.35 -3.0 23.35 -3.15 23.3 -3.2 23.25 -3.35 23.25 -3.45 23.25 -3.55 23.25 -3.7 23.2 -3.8 23.15 -3.9 23.1 -3.95 23.05 -4.05 23.05 -4.2 23.05 -4.3 23.05 -4.45 23.05 -4.55 23.0 -4.65 22.95 -4.7 22.9 -4.8 22.9 -4.85 22.85 -4.9 22.85 -5.0 22.8 -5.1 22.75 -5.2 22.7 -5.3 22.65 -5.4 22.65 -5.5 22.65 -5.65 22.7 -5.8 22.8 -6.0 22.85 -6.15 22.9 -6.25 22.95 -6.4 23.1 -6.5 23.05 -6.55 23.1 -6.6 23.4 -6.9 23.45 -6.95 23.6 -7.05 23.8 -7.1 23.95 -7.15 24.1 -7.15 24.2 -7.15 24.3 -7.1 24.4 -7.1 24.55 -7.15 24.75 -7.15 24.95 -7.25 25.1 -7.3 25.25 -7.3 25.35 -7.3 25.5 -7.35 25.7 -7.4 25.8 -7.4 25.9 -7.45 26.1 -7.5 26.25 -7.55 26.4 -7.55 26.5 -7.55 26.7 -7.6 26.8 -7.6 26.85 -7.6 27.0 -7.7 27.2 -7.75 27.3 -7.75 M28.85 -6.6 L28.65 -6.5 28.5 -6.5 28.4 -6.45 28.35 -6.35 28.15 -6.25 28.0 -6.15 27.85 -6.15 27.7 -6.15 27.55 -6.1 27.4 -6.05 27.2 -6.0 27.0 -5.95 26.85 -5.95 26.65 -5.9 26.5 -5.85 26.35 -5.8 26.3 -5.8 26.15 -5.7 26.0 -5.7 25.85 -5.7 25.7 -5.65 25.55 -5.65 25.4 -5.65 25.3 -5.65 25.2 -5.6 25.05 -5.5 24.85 -5.45 24.7 -5.45 24.55 -5.35 24.55 -5.25 24.6 -5.2 24.65 -5.1 24.7 -5.0 24.7 -4.9 24.75 -4.8 24.75 -4.7 24.75 -4.55 24.75 -4.4 24.75 -4.3 24.8 -4.2 24.85 -4.1 24.85 -4.0 24.9 -3.9 24.85 -3.75 24.85 -3.6 24.9 -3.5 24.95 -3.4 24.95 -3.3 25.0 -3.2 25.0 -3.1 25.0 -2.95 25.0 -2.8 25.05 -2.75 25.05 -2.6 25.05 -2.45 25.05 -2.35 25.1 -2.2 25.1 -2.1 25.1 -2.0 25.1 -1.85 25.1 -1.7 25.1 -1.6 25.15 -1.5 25.15 -1.4 25.2 -1.25 25.15 -1.1 25.15 -0.95 25.15 -0.85 25.15 -0.7 25.2 -0.6 25.2 -0.5 25.15 -0.3 25.15 -0.15 25.15 -0.05 25.2 0.05 25.2 0.2 25.15 0.35 25.15 0.5 25.15 0.65 25.15 0.75 25.1 0.95 25.1 1.05 25.1 1.2 25.05 1.4 25.0 1.55 25.0 1.7 25.0 1.8 25.0 1.95 25.0 2.1 24.95 2.2 24.9 2.35 24.8 2.55 24.8 2.65 24.75 2.8 24.75 2.95 24.7 3.15 24.65 3.35 24.6 3.5 24.55 3.7 24.55 3.8 24.55 3.95 24.55 4.05 24.55 4.25 24.45 4.45 24.4 4.65 24.35 4.8 24.3 5.0 24.25 5.2 24.2 5.35 24.2 5.5 24.2 5.6 24.2 5.75 24.2 5.9 24.15 6.0 24.1 6.15 24.0 6.35 23.95 6.5 23.95 6.65 23.95 6.75 23.95 6.9 24.05 6.95 24.15 7.0 24.2 7.05 24.3 7.1 24.35 7.15 24.5 7.15 24.55 7.2 24.7 7.2 24.8 7.25 24.95 7.25 25.0 7.3 25.15 7.3 25.3 7.3 25.4 7.3 25.5 7.35 25.6 7.35 25.7 7.4 25.8 7.45 25.9 7.5 26.0 7.5 26.1 7.5 26.25 7.5 26.35 7.55 26.45 7.55 26.6 7.6 26.7 7.6 26.85 7.6 26.95 7.65 27.05 7.65 27.2 7.65 27.3 7.65 27.4 7.7 27.5 7.7 27.6 7.75 27.75 7.75 27.85 7.8 27.95 7.8 28.05 7.85 28.15 7.9 28.25 7.9 28.35 7.9 28.5 7.9 28.6 7.95 28.7 8.0 28.8 8.05 28.9 8.05 29.0 8.05 29.1 8.1 29.2 8.15 29.3 8.2 29.4 8.25 29.5 8.25 29.6 8.25 29.7 8.3 29.8 8.35 29.9 8.4 29.95 8.45 30.05 8.5 30.1 8.55 30.2 8.6 30.25 8.65 30.35 8.75 30.45 8.75 30.55 8.8 30.65 8.8 30.75 8.85 30.85 8.9 30.95 8.95 31.0 9.0 31.1 9.0 31.2 9.05 31.3 9.1 31.3 9.05 31.4 8.85 31.45 8.7 31.45 8.6 31.55 8.4 31.6 8.2 31.6 8.05 31.65 8.0 31.7 7.9 31.8 7.7 31.8 7.55 31.8 7.45 31.85 7.3 31.9 7.1 31.9 6.95 31.9 6.8 31.95 6.65 32.0 6.45 32.0 6.35 32.05 6.3 32.1 6.15 32.15 6.0 32.2 5.85 32.25 5.7 32.25 5.55 32.3 5.35 32.35 5.2 32.4 5.0 32.45 4.8 32.45 4.7 32.45 4.55 32.45 4.45 32.4 4.3 32.4 4.2 32.35 4.1 32.35 4.0 32.35 3.85 32.35 3.7 32.45 3.5 32.45 3.35 32.45 3.25 32.45 3.1 32.45 2.95 32.45 2.85 32.45 2.7 32.45 2.55 32.45 2.4 32.55 2.2 32.55 2.1 32.55 1.95 32.55 1.9 32.65 1.75 32.65 1.6 32.7 1.4 32.7 1.3 32.7 1.15 32.75 1.0 32.7 0.9 32.65 0.8 32.65 0.7 32.6 0.6 32.6 0.45 32.6 0.3 32.6 0.2 32.6 0.05 32.6 -0.1 32.6 -0.2 32.6 -0.35 32.65 -0.5 32.65 -0.65 32.65 -0.8 32.65 -0.9 32.65 -1.05 32.6 -1.1 32.55 -1.25 32.55 -1.35 32.55 -1.45 32.5 -1.55 32.5 -1.65 32.45 -1.75 32.4 -1.85 32.4 -2.0 32.35 -2.05 32.35 -2.2 32.35 -2.35 32.35 -2.45 32.3 -2.55 32.25 -2.65 32.25 -2.8 32.25 -2.9 32.3 -3.05 32.25 -3.15 32.25 -3.3 32.2 -3.35 32.15 -3.45 32.1 -3.55 32.1 -3.7 32.1 -3.8 32.1 -3.95 32.1 -4.1 32.05 -4.15 32.0 -4.25 32.0 -4.35 32.0 -4.5 32.0 -4.65 32.0 -4.75 32.0 -4.9 31.95 -5.0 31.95 -5.1 31.95 -5.25 31.95 -5.4 31.9 -5.45 31.9 -5.6 31.85 -5.65 31.8 -5.8 31.8 -5.85 31.75 -6.0 31.7 -6.05 31.7 -6.2 31.65 -6.3 31.6 -6.4 31.6 -6.5 31.55 -6.6 31.55 -6.7 31.5 -6.8 31.45 -6.9 31.4 -6.95 31.4 -7.1 31.4 -7.15 31.3 -7.1 31.15 -7.0 31.0 -6.95 30.85 -6.95 30.7 -6.95 30.6 -6.95 30.4 -6.95 30.25 -6.95 30.15 -6.95 30.05 -6.9 29.85 -6.8 29.7 -6.8 29.55 -6.8 29.45 -6.75 29.3 -6.7 29.15 -6.6 29.0 -6.6 28.85 -6.6 M2.45 22.8 L2.6 22.8 2.75 22.75 2.9 22.7 3.1 22.65 3.25 22.65 3.4 22.65 3.5 22.65 3.6 22.65 3.7 22.6 3.85 22.55 4.0 22.5 4.15 22.5 4.3 22.5 4.55 22.35 4.75 22.3 4.85 22.3 4.95 22.35 5.1 22.35 5.3 22.3 5.45 22.3 5.55 22.3 5.65 22.3 5.75 22.35 5.85 22.4 5.9 22.45 6.0 22.5 6.1 22.55 6.15 22.65 6.2 22.7 6.25 22.8 6.3 22.9 6.35 22.9 6.45 22.95 6.55 23.0 6.6 23.05 6.7 23.1 6.75 23.15 6.8 23.25 6.85 23.35 6.9 23.4 6.95 23.5 7.0 23.6 7.05 23.7 7.05 23.8 7.1 23.85 7.15 23.95 7.2 24.05 7.25 24.15 7.25 24.25 7.25 24.4 7.25 24.5 7.3 24.6 7.35 24.7 7.35 24.8 7.4 24.95 7.4 25.05 7.4 25.2 7.45 25.3 7.45 25.35 7.5 25.5 7.5 25.6 7.55 25.7 7.55 25.8 7.55 25.95 7.6 26.05 7.6 26.15 7.6 26.3 7.65 26.4 7.7 26.5 7.75 26.55 7.8 26.65 7.8 26.75 7.85 26.85 7.85 26.95 7.9 27.05 7.95 27.15 7.95 27.25 8.0 27.4 8.0 27.5 8.05 27.55 8.1 27.65 8.15 27.75 8.2 27.85 8.2 27.95 8.25 28.05 8.25 28.15 8.3 28.25 8.3 28.4 8.35 28.5 8.4 28.6 8.4 28.65 8.5 28.75 8.5 28.85 8.55 28.95 8.6 29.05 8.6 29.15 8.65 29.25 8.65 29.35 8.65 29.5 8.65 29.65 8.65 29.75 8.7 29.85 8.7 29.95 8.75 30.05 8.75 30.2 8.75 30.3 8.75 30.45 8.75 30.6 8.75 30.7 8.8 30.8 8.85 30.9 8.85 31.05 8.9 31.1 8.9 31.25 8.9 31.4 8.9 31.5 8.85 31.7 8.75 31.85 8.75 31.9 8.8 32.0 8.75 32.15 8.75 32.25 8.75 32.3 8.7 32.4 8.6 32.55 8.5 32.7 8.35 32.85 8.2 32.95 8.0 33.05 7.75 33.15 7.6 33.2 7.45 33.25 7.2 33.35 7.05 33.35 6.85 33.4 6.7 33.5 6.5 33.6 6.35 33.7 6.2 33.7 6.05 33.75 5.8 33.85 5.75 33.85 5.7 33.9 5.55 34.0 5.35 34.1 5.1 34.25 4.95 34.25 4.8 34.25 4.7 34.3 4.5 34.4 4.25 34.5 4.1 34.5 3.95 34.55 3.75 34.6 3.6 34.65 3.45 34.65 3.3 34.65 3.1 34.7 2.95 34.75 2.7 34.85 2.55 34.85 2.45 34.85 2.3 34.85 2.1 34.95 1.95 34.95 1.8 34.95 1.7 34.95 1.55 34.95 1.4 34.95 1.3 34.95 1.15 34.95 1.0 34.95 0.9 34.95 0.75 34.95 0.6 34.95 0.5 34.95 0.35 34.95 0.2 34.95 0.1 34.95 -0.05 34.95 -0.15 34.95 -0.3 34.95 -0.45 34.95 -0.55 34.95 -0.7 34.95 -0.85 34.95 -0.95 34.95 -1.1 34.95 -1.25 34.95 -1.35 34.95 -1.45 34.9 -1.55 34.85 -1.7 34.85 -1.8 34.85 -1.95 34.85 -2.05 34.85 -2.2 34.85 -2.25 34.8 -2.45 34.85 -2.55 34.85 -2.7 34.85 -2.8 34.8 -2.9 34.8 -3.0 34.7 -3.05 34.65 -3.2 34.7 -3.35 34.7 -3.5 34.7 -3.6 34.65 -3.7 34.65 -3.8 34.6 -3.85 34.55 -3.95 34.5 -4.1 34.5 -4.2 34.5 -4.25 34.4 -4.35 34.4 -4.45 34.35 -4.6 34.35 -4.7 34.3 -4.8 34.3 -4.9 34.25 -4.95 34.2 -5.1 34.15 -5.2 34.15 -5.3 34.15 -5.45 34.1 -5.5 34.1 -5.65 34.05 -5.75 34.05 -5.8 33.95 -5.9 33.95 -6.05 33.95 -6.2 33.95 -6.3 33.9 -6.4 33.9 -6.5 33.9 -6.6 33.85 -6.7 33.8 -6.85 33.8 -6.95 33.75 -7.0 33.7 -7.15 33.7 -7.3 33.7 -7.4 33.7 -7.55 33.7 -7.65 33.7 -7.75 33.65 -7.8 33.6 -7.9 33.55 -8.0 33.5 -8.1 33.5 -8.2 33.45 -8.35 33.45 -8.5 33.45 -8.6 33.45 -8.7 33.4 -8.75 33.35 -8.85 33.3 -8.9 33.25 -9.0 33.25 -9.1 33.2 -9.2 33.15 -9.3 33.1 -9.4 33.1 -9.5 33.05 -9.55 33.0 -9.65 32.95 -9.7 32.9 -9.8 32.85 -9.85 32.75 -9.95 32.7 -10.0 32.65 -10.05 32.6 -10.15 32.5 -10.25 32.4 -10.35 32.3 -10.4 32.25 -10.45 32.15 -10.5 32.1 -10.6 32.0 -10.65 31.95 -10.65 31.85 -10.7 31.75 -10.7 31.6 -10.7 31.45 -10.7 31.35 -10.75 31.25 -10.8 31.15 -10.8 31.05 -10.8 30.9 -10.75 30.75 -10.75 30.6 -10.8 30.5 -10.8 30.35 -10.8 30.25 -10.75 30.1 -10.65 29.85 -10.65 29.7 -10.65 29.55 -10.6 29.35 -10.5 29.15 -10.45 29.0 -10.4 28.9 -10.35 28.8 -10.25 28.7 -10.2 28.55 -10.2 28.4 -10.15 28.2 -10.05 28.05 -9.95 27.85 -9.9 27.65 -9.85 27.55 -9.85 27.5 -9.8 27.4 -9.7 27.25 -9.5 27.0 -9.35 26.75 -9.3 26.6 -9.3 26.5 -9.3 26.45 -9.2 26.25 -9.15 26.15 -9.15 26.1 -9.1 25.95 -9.0 25.8 -9.0 25.65 -8.9 25.45 -8.9 25.3 -8.9 25.15 -8.9 25.0 -8.85 24.85 -8.85 24.7 -8.85 24.6 -8.85 24.45 -8.85 24.3 -8.8 24.15 -8.85 24.05 -8.85 23.9 -8.85 23.8 -8.85 23.65 -8.8 23.5 -8.75 23.3 -8.7 23.1 -8.65 23.0 -8.6 22.9 -8.45 22.75 -8.5 22.7 -8.45 22.7 -8.2 22.5 -8.05 22.4 -7.9 22.3 -7.75 22.3 -7.6 22.3 -7.5 22.3 -7.4 22.35 -7.3 22.35 -7.25 22.4 -7.15 22.3 -7.0 22.25 -6.8 22.2 -6.65 22.2 -6.55 22.2 -6.45 22.25 -6.35 22.3 -6.25 22.3 -6.15 22.35 -6.05 22.35 -5.95 22.4 -5.85 22.4 -5.7 22.4 -5.6 22.45 -5.45 22.45 -5.3 22.4 -5.15 22.4 -5.05 22.45 -4.95 22.5 -4.85 22.5 -4.75 22.5 -4.65 22.55 -4.55 22.6 -4.45 22.65 -4.35 22.65 -4.2 22.65 -4.1 22.7 -4.0 22.7 -3.9 22.7 -3.75 22.7 -3.6 22.7 -3.55 22.75 -3.4 22.8 -3.3 22.8 -3.2 22.85 -3.1 22.85 -3.0 22.9 -2.85 22.9 -2.75 22.9 -2.65 22.9 -2.5 22.95 -2.4 22.95 -2.25 22.95 -2.1 22.95 -2.0 22.95 -1.9 22.95 -1.8 23.0 -1.7 23.05 -1.6 23.05 -1.45 23.05 -1.3 23.05 -1.2 23.05 -1.05 23.05 -0.95 23.05 -0.8 23.05 -0.7 23.05 -0.55 23.0 -0.35 22.95 -0.2 22.95 -0.1 22.95 0.0 23.0 0.2 22.95 0.3 22.95 0.45 22.95 0.55 22.95 0.65 23.0 0.8 23.0 0.95 22.95 1.1 22.95 1.25 22.95 1.4 22.9 1.55 22.9 1.7 22.9 1.8 22.9 1.95 22.9 2.1 22.85 2.25 22.85 2.45 22.8 M0.05 24.7 L-0.1 24.7 -0.2 24.7 -0.35 24.7 -0.5 24.7 -0.6 24.7 -0.75 24.7 -0.9 24.7 -1.0 24.7 -1.15 24.7 -1.3 24.7 -1.4 24.7 -1.55 24.7 -1.7 24.7 -1.8 24.7 -1.95 24.7 -2.05 24.7 -2.15 24.65 -2.25 24.65 -2.4 24.6 -2.5 24.6 -2.65 24.6 -2.75 24.6 -2.9 24.6 -3.05 24.6 -3.2 24.6 -3.25 24.6 -3.35 24.55 -3.45 24.5 -3.55 24.45 -3.65 24.45 -3.8 24.4 -3.85 24.4 -3.95 24.35 -4.1 24.35 -4.15 24.3 -4.3 24.25 -4.4 24.25 -4.55 24.25 -4.7 24.25 -4.8 24.25 -4.9 24.2 -5.0 24.2 -5.1 24.2 -5.25 24.2 -5.4 24.2 -5.5 24.2 -5.65 24.15 -5.75 24.15 -5.8 24.05 -5.9 24.05 -6.05 24.05 -6.2 24.05 -6.25 24.05 -6.35 24.2 -6.35 24.35 -6.4 24.55 -6.4 24.65 -6.4 24.8 -6.35 24.9 -6.35 25.0 -6.4 25.15 -6.4 25.3 -6.45 25.4 -6.65 25.65 -6.65 25.75 -6.65 25.9 -6.65 26.05 -6.65 26.2 -6.75 26.35 -6.9 26.55 -6.9 26.7 -6.9 26.85 -6.9 26.95 -6.95 27.0 -7.0 27.1 -7.1 27.25 -7.2 27.45 -7.25 27.6 -7.35 27.8 -7.4 27.9 -7.45 28.0 -7.55 28.15 -7.6 28.2 -7.7 28.35 -7.7 28.45 -7.75 28.5 -7.8 28.6 -7.9 28.75 -7.95 28.9 -8.0 28.95 -8.05 29.05 -8.15 29.2 -8.25 29.35 -8.35 29.55 -8.4 29.65 -8.45 29.75 -8.55 29.9 -8.65 30.05 -8.65 30.1 -8.75 30.3 -8.8 30.45 -8.8 30.6 -8.75 30.7 -8.75 30.8 -8.7 30.9 -8.6 30.95 -8.55 31.0 -8.45 31.05 -8.4 31.15 -8.35 31.2 -8.35 31.3 -8.3 31.4 -8.25 31.5 -8.25 31.65 -8.25 31.7 -8.2 31.7 -8.1 31.7 -7.95 31.7 -7.85 31.75 -7.8 31.8 -7.7 31.8 -7.6 31.85 -7.55 31.9 -7.5 31.95 -7.4 31.95 -7.3 32.0 -7.2 32.05 -7.05 32.05 -6.95 32.05 -6.8 32.05 -6.7 32.05 -6.6 32.1 -6.5 32.15 -6.4 32.2 -6.3 32.2 -6.2 32.25 -6.1 32.25 -6.0 32.3 -5.9 32.3 -5.75 32.35 -5.65 32.35 -5.5 32.35 -5.4 32.4 -5.3 32.4 -5.2 32.4 -5.1 32.45 -5.0 32.5 -4.9 32.55 -4.8 32.6 -4.7 32.6 -4.55 32.6 -4.5 32.65 -4.35 32.65 -4.3 32.7 -4.15 32.75 -4.05 32.75 -3.95 32.8 -3.9 32.85 -3.75 32.85 -3.65 32.85 -3.55 32.9 -3.45 32.95 -3.35 32.95 -3.2 32.95 -3.1 32.95 -3.0 33.0 -2.9 33.05 -2.8 33.05 -2.7 33.1 -2.6 33.15 -2.45 33.15 -2.3 33.1 -2.15 33.1 -2.05 33.1 -1.95 33.15 -1.85 33.15 -1.75 33.2 -1.6 33.2 -1.45 33.2 -1.35 33.2 -1.25 33.25 -1.15 33.3 -1.05 33.35 -0.95 33.35 -0.8 33.35 -0.65 33.35 -0.55 33.35 -0.4 33.35 -0.25 33.35 -0.15 33.35 -0.05 33.4 0.05 33.4 0.2 33.4 0.3 33.4 0.5 33.35 0.65 33.35 0.8 33.35 0.95 33.35 1.05 33.35 1.15 33.4 1.3 33.35 1.45 33.35 1.6 33.35 1.75 33.35 1.95 33.25 2.1 33.2 2.25 33.2 2.45 33.15 2.6 33.1 2.75 33.1 2.95 33.05 3.1 33.0 3.25 33.0 3.35 33.0 3.45 32.95 3.6 32.9 3.75 32.85 3.9 32.8 4.1 32.75 4.3 32.7 4.45 32.65 4.6 32.65 4.9 32.45 5.05 32.35 5.2 32.25 5.4 32.2 5.5 32.2 5.55 32.2 5.65 32.15 5.8 32.1 5.9 32.05 6.0 32.0 6.15 31.9 6.3 31.8 6.45 31.75 6.65 31.7 6.75 31.7 6.95 31.65 7.1 31.6 7.25 31.6 7.3 31.6 7.25 31.55 7.25 31.45 7.25 31.3 7.2 31.2 7.2 31.1 7.15 31.0 7.1 30.9 7.05 30.8 7.05 30.7 7.05 30.55 7.1 30.4 7.1 30.25 7.05 30.15 7.05 30.05 7.0 29.95 6.95 29.9 6.9 29.8 6.9 29.65 6.9 29.55 6.9 29.4 6.9 29.25 6.85 29.15 6.8 29.1 6.75 29.0 6.75 28.9 6.7 28.8 6.7 28.65 6.65 28.6 6.6 28.5 6.55 28.4 6.55 28.3 6.5 28.2 6.5 28.1 6.45 28.0 6.4 27.9 6.35 27.8 6.35 27.65 6.3 27.6 6.3 27.45 6.25 27.4 6.2 27.3 6.15 27.2 6.15 27.1 6.1 27.0 6.05 26.9 6.05 26.8 6.0 26.7 6.0 26.55 6.0 26.45 5.95 26.35 5.95 26.2 5.9 26.1 5.9 26.05 5.85 25.95 5.85 25.8 5.85 25.7 5.85 25.55 5.8 25.45 5.8 25.35 5.75 25.25 5.75 25.1 5.7 25.0 5.65 24.95 5.6 24.85 5.55 24.75 5.4 24.75 5.25 24.75 5.15 24.7 5.1 24.65 5.0 24.6 4.95 24.55 4.85 24.5 4.8 24.4 4.75 24.35 4.7 24.25 4.65 24.15 4.45 24.2 4.35 24.2 4.2 24.2 4.1 24.2 3.9 24.25 3.75 24.25 3.65 24.25 3.5 24.25 3.3 24.35 3.15 24.35 2.95 24.4 2.85 24.4 2.65 24.45 2.5 24.45 2.4 24.45 2.3 24.5 2.15 24.6 2.0 24.6 1.85 24.6 1.75 24.6 1.6 24.6 1.45 24.6 1.35 24.6 1.2 24.6 1.05 24.6 0.95 24.6 0.8 24.6 0.65 24.6 0.55 24.6 0.4 24.6 0.2 24.65 0.05 24.7 M-31.75 -10.3 L-31.55 -10.35 -31.4 -10.35 -31.3 -10.4 -31.15 -10.45 -31.0 -10.5 -30.85 -10.5 -30.75 -10.5 -30.65 -10.45 -30.55 -10.4 -30.45 -10.35 -30.35 -10.35 -30.25 -10.3 -30.15 -10.3 -30.0 -10.3 -29.9 -10.25 -29.8 -10.2 -29.7 -10.2 -29.65 -10.15 -29.55 -10.05 -29.5 -10.0 -29.4 -9.95 -29.3 -9.95 -29.15 -9.95 -29.1 -9.9 -28.95 -9.85 -28.85 -9.85 -28.75 -9.8 -28.65 -9.8 -28.55 -9.75 -28.45 -9.75 -28.3 -9.7 -28.25 -9.65 -28.15 -9.65 -28.0 -9.65 -27.9 -9.6 -27.8 -9.55 -27.7 -9.55 -27.6 -9.5 -27.55 -9.45 -27.4 -9.45 -27.3 -9.4 -27.2 -9.4 -27.1 -9.35 -27.0 -9.3 -26.9 -9.25 -26.8 -9.25 -26.65 -9.25 -26.55 -9.25 -26.45 -9.2 -26.35 -9.15 -26.2 -9.2 -26.1 -9.15 -26.0 -9.15 -25.85 -9.15 -25.75 -9.1 -25.65 -9.05 -25.55 -9.05 -25.45 -9.05 -25.3 -9.0 -25.25 -8.95 -25.15 -8.9 -25.0 -8.9 -24.9 -8.9 -24.8 -8.85 -24.7 -8.85 -24.55 -8.85 -24.45 -8.85 -24.3 -8.8 -24.2 -8.8 -24.1 -8.75 -24.0 -8.75 -23.9 -8.7 -23.8 -8.7 -23.7 -8.65 -23.55 -8.65 -23.45 -8.6 -23.35 -8.6 -23.25 -8.55 -23.15 -8.5 -23.05 -8.5 -22.95 -8.5 -22.8 -8.45 -22.75 -8.4 -22.6 -8.4 -22.55 -8.3 -22.45 -8.3 -22.4 -8.25 -22.3 -8.15 -22.25 -8.1 -22.15 -8.05 -22.1 -7.95 -22.05 -7.9 -22.05 -7.8 -22.0 -7.7 -21.95 -7.6 -21.95 -7.45 -22.0 -7.3 -22.05 -7.15 -22.2 -6.95 -22.25 -6.85 -22.25 -6.7 -22.35 -6.6 -22.4 -6.4 -22.45 -6.25 -22.5 -6.1 -22.55 -5.9 -22.55 -5.8 -22.6 -5.75 -22.65 -5.55 -22.7 -5.4 -22.8 -5.15 -22.8 -5.05 -22.8 -4.9 -22.85 -4.7 -22.95 -4.5 -23.0 -4.3 -23.0 -4.2 -23.0 -4.05 -23.05 -3.85 -23.1 -3.65 -23.15 -3.5 -23.1 -3.4 -23.15 -3.25 -23.15 -3.1 -23.2 -2.95 -23.2 -2.8 -23.2 -2.6 -23.25 -2.45 -23.25 -2.35 -23.25 -2.2 -23.25 -2.05 -23.25 -1.95 -23.25 -1.8 -23.25 -1.65 -23.25 -1.55 -23.25 -1.4 -23.25 -1.25 -23.25 -1.15 -23.25 -1.0 -23.25 -0.85 -23.25 -0.75 -23.2 -0.65 -23.2 -0.5 -23.15 -0.45 -23.15 -0.3 -23.2 -0.15 -23.2 0.05 -23.2 0.15 -23.2 0.25 -23.2 0.4 -23.15 0.5 -23.15 0.65 -23.15 0.75 -23.15 0.85 -23.1 1.0 -23.1 1.1 -23.1 1.2 -23.05 1.3 -23.0 1.4 -23.0 1.5 -23.0 1.65 -23.0 1.8 -23.0 1.95 -23.0 2.05 -23.0 2.15 -23.0 2.3 -23.0 2.45 -23.0 2.55 -22.95 2.65 -22.95 2.8 -22.95 2.9 -22.95 3.05 -22.9 3.15 -22.9 3.3 -22.85 3.4 -22.85 3.5 -22.8 3.6 -22.8 3.7 -22.75 3.8 -22.75 3.95 -22.8 4.1 -22.8 4.25 -22.75 4.35 -22.7 4.4 -22.65 4.5 -22.6 4.6 -22.6 4.7 -22.55 4.8 -22.5 4.9 -22.5 5.0 -22.45 5.1 -22.45 5.2 -22.4 5.3 -22.4 5.4 -22.35 5.5 -22.3 5.6 -22.25 5.7 -22.25 5.85 -22.2 5.95 -22.2 6.05 -22.2 6.2 -22.25 6.35 -22.3 6.55 -22.4 6.7 -22.6 6.9 -22.8 7.0 -22.95 7.1 -23.1 7.1 -23.25 7.1 -23.35 7.1 -23.5 7.1 -23.6 7.1 -23.75 7.1 -23.9 7.1 -24.05 7.1 -24.15 7.1 -24.25 7.1 -24.35 7.05 -24.6 7.15 -24.75 7.2 -24.9 7.25 -25.0 7.3 -25.15 7.35 -25.3 7.4 -25.45 7.4 -25.6 7.4 -25.85 7.5 -26.0 7.5 -26.15 7.55 -26.3 7.55 -26.45 7.6 -26.6 7.65 -26.8 7.7 -27.0 7.75 -27.15 7.75 -27.35 7.8 -27.5 7.85 -27.6 7.85 -27.75 7.85 -27.95 7.9 -28.15 7.95 -28.3 8.0 -28.45 8.0 -28.6 8.0 -28.65 8.0 -28.85 8.05 -29.0 8.1 -29.1 8.1 -29.25 8.1 -29.35 8.05 -29.5 8.05 -29.65 8.1 -29.8 8.1 -29.95 8.1 -30.1 8.15 -30.25 8.2 -30.45 8.25 -30.6 8.25 -30.7 8.25 -30.8 8.2 -30.9 8.15 -31.0 8.15 -31.15 8.15 -31.3 8.25 -31.45 8.25 -31.6 8.25 -31.75 8.25 -31.85 8.25 -31.95 8.25 -32.05 8.2 -32.15 8.15 -32.2 8.1 -32.3 8.05 -32.35 7.95 -32.4 7.9 -32.5 7.85 -32.5 7.75 -32.55 7.75 -32.7 7.75 -32.85 7.75 -32.9 7.7 -33.0 7.65 -33.1 7.6 -33.15 7.55 -33.25 7.5 -33.3 7.4 -33.35 7.3 -33.4 7.25 -33.4 7.1 -33.45 7.0 -33.45 6.9 -33.45 6.75 -33.45 6.65 -33.5 6.55 -33.5 6.45 -33.5 6.3 -33.55 6.2 -33.6 6.1 -33.65 6.0 -33.65 5.95 -33.7 5.85 -33.75 5.75 -33.75 5.6 -33.75 5.5 -33.75 5.35 -33.8 5.25 -33.85 5.15 -33.85 5.05 -33.9 4.95 -33.9 4.85 -33.95 4.75 -33.95 4.6 -33.95 4.45 -34.0 4.4 -34.0 4.25 -34.05 4.2 -34.05 4.05 -34.1 4.0 -34.1 3.85 -34.1 3.7 -34.1 3.6 -34.15 3.5 -34.2 3.4 -34.2 3.3 -34.25 3.2 -34.3 3.1 -34.35 3.0 -34.35 2.9 -34.35 2.75 -34.35 2.6 -34.35 2.5 -34.35 2.35 -34.4 2.25 -34.4 2.15 -34.4 2.0 -34.4 1.9 -34.4 1.75 -34.45 1.7 -34.5 1.6 -34.5 1.45 -34.5 1.35 -34.55 1.25 -34.55 1.1 -34.55 1.0 -34.55 0.85 -34.55 0.7 -34.55 0.6 -34.55 0.45 -34.55 0.3 -34.55 0.2 -34.55 0.05 -34.55 -0.1 -34.55 -0.2 -34.55 -0.35 -34.55 -0.5 -34.55 -0.6 -34.55 -0.75 -34.55 -0.9 -34.55 -1.0 -34.5 -1.05 -34.45 -1.2 -34.4 -1.35 -34.4 -1.5 -34.4 -1.65 -34.4 -1.75 -34.4 -1.9 -34.4 -2.05 -34.4 -2.15 -34.4 -2.3 -34.4 -2.4 -34.4 -2.6 -34.35 -2.75 -34.35 -2.9 -34.3 -3.05 -34.3 -3.2 -34.25 -3.4 -34.2 -3.55 -34.2 -3.7 -34.2 -3.85 -34.2 -3.95 -34.15 -4.0 -34.1 -4.1 -34.0 -4.3 -34.0 -4.45 -33.9 -4.65 -33.9 -4.8 -33.85 -4.9 -33.85 -5.0 -33.8 -5.15 -33.75 -5.3 -33.75 -5.45 -33.7 -5.65 -33.65 -5.75 -33.6 -5.85 -33.5 -6.0 -33.5 -6.05 -33.45 -6.2 -33.4 -6.35 -33.4 -6.5 -33.35 -6.6 -33.25 -6.8 -33.15 -7.0 -33.05 -7.15 -33.05 -7.35 -33.05 -7.45 -33.0 -7.65 -32.95 -7.8 -32.9 -7.95 -32.85 -8.05 -32.7 -8.3 -32.65 -8.45 -32.6 -8.6 -32.6 -8.7 -32.55 -8.8 -32.5 -8.95 -32.45 -9.1 -32.35 -9.25 -32.35 -9.4 -32.35 -9.55 -32.3 -9.7 -32.25 -9.85 -32.1 -10.0 -32.05 -10.1 -31.9 -10.2 -31.75 -10.3 M-30.85 -8.65 L-30.9 -8.5 -30.95 -8.3 -31.1 -8.1 -31.15 -7.95 -31.15 -7.75 -31.2 -7.65 -31.3 -7.45 -31.3 -7.35 -31.35 -7.3 -31.4 -7.1 -31.45 -6.95 -31.5 -6.8 -31.55 -6.65 -31.55 -6.6 -31.65 -6.4 -31.65 -6.3 -31.7 -6.2 -31.75 -6.1 -31.85 -5.9 -31.9 -5.75 -31.95 -5.55 -32.05 -5.35 -32.1 -5.15 -32.1 -5.0 -32.1 -4.9 -32.25 -4.7 -32.25 -4.55 -32.3 -4.35 -32.35 -4.2 -32.35 -4.05 -32.45 -3.85 -32.5 -3.65 -32.55 -3.45 -32.55 -3.3 -32.6 -3.15 -32.65 -2.95 -32.7 -2.8 -32.7 -2.6 -32.75 -2.45 -32.75 -2.35 -32.8 -2.15 -32.8 -2.05 -32.8 -1.9 -32.8 -1.75 -32.8 -1.6 -32.85 -1.45 -32.8 -1.35 -32.8 -1.25 -32.8 -1.1 -32.9 -0.9 -32.9 -0.75 -32.9 -0.6 -32.9 -0.5 -32.9 -0.35 -32.9 -0.2 -32.9 -0.1 -32.9 0.05 -32.9 0.2 -32.9 0.3 -32.9 0.45 -32.9 0.6 -32.9 0.7 -32.9 0.85 -32.85 0.95 -32.8 1.05 -32.8 1.15 -32.8 1.3 -32.8 1.4 -32.8 1.55 -32.8 1.7 -32.75 1.8 -32.75 1.9 -32.75 2.05 -32.7 2.15 -32.7 2.25 -32.7 2.35 -32.65 2.45 -32.6 2.55 -32.6 2.7 -32.6 2.85 -32.6 2.95 -32.55 3.05 -32.5 3.1 -32.5 3.25 -32.45 3.3 -32.45 3.45 -32.45 3.6 -32.45 3.7 -32.4 3.8 -32.4 3.95 -32.4 4.05 -32.35 4.15 -32.35 4.3 -32.3 4.4 -32.3 4.5 -32.3 4.6 -32.25 4.7 -32.15 4.8 -32.15 4.9 -32.1 5.0 -32.1 5.1 -32.1 5.2 -32.1 5.35 -32.05 5.45 -32.0 5.55 -32.0 5.65 -32.0 5.8 -32.0 5.95 -31.95 6.05 -31.95 6.15 -31.95 6.3 -31.95 6.4 -31.9 6.5 -31.9 6.6 -31.75 6.6 -31.65 6.6 -31.45 6.55 -31.3 6.5 -31.15 6.5 -31.05 6.55 -30.9 6.5 -30.75 6.5 -30.65 6.55 -30.5 6.55 -30.35 6.5 -30.2 6.5 -30.05 6.45 -29.9 6.45 -29.8 6.45 -29.6 6.4 -29.45 6.4 -29.3 6.35 -29.15 6.35 -29.05 6.4 -28.9 6.35 -28.7 6.35 -28.6 6.35 -28.5 6.35 -28.35 6.35 -28.25 6.25 -28.1 6.2 -27.95 6.15 -27.8 6.15 -27.65 6.15 -27.55 6.15 -27.4 6.15 -27.25 6.15 -27.0 6.0 -26.8 5.95 -26.75 5.95 -26.6 5.9 -26.45 5.85 -26.3 5.8 -26.15 5.75 -25.95 5.75 -25.8 5.7 -25.65 5.7 -25.55 5.7 -25.4 5.7 -25.15 5.6 -24.9 5.5 -24.75 5.45 -24.55 5.4 -24.4 5.35 -24.25 5.35 -24.15 5.4 -24.1 5.4 -24.15 5.35 -24.15 5.25 -24.2 5.2 -24.25 5.05 -24.3 5.0 -24.3 4.9 -24.35 4.8 -24.35 4.65 -24.35 4.55 -24.4 4.45 -24.4 4.3 -24.45 4.2 -24.45 4.05 -24.45 3.95 -24.5 3.85 -24.5 3.7 -24.5 3.65 -24.5 3.5 -24.5 3.35 -24.55 3.25 -24.6 3.15 -24.6 3.05 -24.6 2.9 -24.65 2.85 -24.65 2.7 -24.65 2.55 -24.65 2.45 -24.65 2.3 -24.7 2.2 -24.7 2.1 -24.75 2.0 -24.75 1.85 -24.75 1.75 -24.7 1.55 -24.7 1.4 -24.75 1.35 -24.75 1.2 -24.75 1.05 -24.75 0.95 -24.8 0.85 -24.8 0.7 -24.8 0.6 -24.8 0.45 -24.8 0.35 -24.85 0.25 -24.85 0.1 -24.85 -0.05 -24.8 -0.2 -24.85 -0.3 -24.85 -0.4 -24.9 -0.5 -24.95 -0.55 -25.0 -0.7 -25.0 -0.8 -25.0 -0.9 -25.0 -1.05 -24.95 -1.25 -25.0 -1.35 -25.0 -1.45 -25.0 -1.6 -25.0 -1.7 -24.95 -1.9 -24.9 -2.05 -24.9 -2.2 -24.9 -2.4 -24.9 -2.5 -24.85 -2.65 -24.85 -2.8 -24.85 -2.95 -24.8 -3.1 -24.8 -3.25 -24.85 -3.35 -24.85 -3.5 -24.85 -3.6 -24.8 -3.75 -24.7 -4.0 -24.65 -4.2 -24.65 -4.3 -24.65 -4.45 -24.65 -4.6 -24.65 -4.75 -24.6 -4.9 -24.5 -5.1 -24.45 -5.25 -24.4 -5.4 -24.4 -5.55 -24.3 -5.75 -24.3 -5.95 -24.25 -6.1 -24.2 -6.25 -24.15 -6.4 -24.1 -6.6 -24.05 -6.75 -24.0 -6.9 -23.95 -7.05 -24.05 -7.1 -24.15 -7.1 -24.25 -7.15 -24.4 -7.15 -24.5 -7.15 -24.6 -7.2 -24.75 -7.2 -24.85 -7.2 -24.95 -7.25 -25.1 -7.25 -25.2 -7.3 -25.3 -7.3 -25.45 -7.3 -25.5 -7.35 -25.65 -7.35 -25.75 -7.35 -25.85 -7.4 -26.0 -7.4 -26.05 -7.5 -26.2 -7.5 -26.35 -7.45 -26.45 -7.45 -26.6 -7.45 -26.7 -7.5 -26.8 -7.55 -26.85 -7.6 -26.95 -7.65 -27.1 -7.65 -27.2 -7.65 -27.35 -7.65 -27.45 -7.7 -27.55 -7.75 -27.65 -7.75 -27.75 -7.75 -27.9 -7.75 -27.95 -7.8 -28.05 -7.85 -28.15 -7.9 -28.2 -7.95 -28.3 -8.0 -28.45 -8.0 -28.6 -8.0 -28.7 -8.05 -28.8 -8.05 -28.9 -8.1 -29.0 -8.1 -29.1 -8.1 -29.2 -8.2 -29.25 -8.25 -29.4 -8.25 -29.45 -8.3 -29.6 -8.3 -29.7 -8.35 -29.85 -8.35 -29.9 -8.4 -30.05 -8.4 -30.1 -8.45 -30.2 -8.5 -30.25 -8.55 -30.35 -8.6 -30.4 -8.7 -30.55 -8.7 -30.65 -8.7 -30.75 -8.75 -30.8 -8.75 -30.85 -8.65" fill="#000000" fill-rule="evenodd" stroke="none"/>
    <path d="M6.15 -31.95 L6.3 -31.95 6.4 -31.9 6.5 -31.9 6.6 -31.85 6.7 -31.8 6.75 -31.75 6.85 -31.75 7.0 -31.7 7.1 -31.7 7.2 -31.7 7.3 -31.65 7.4 -31.6 7.45 -31.55 7.6 -31.55 7.7 -31.5 7.8 -31.45 7.9 -31.45 8.0 -31.4 8.1 -31.35 8.2 -31.3 8.3 -31.3 8.4 -31.25 8.45 -31.2 8.55 -31.15 8.65 -31.15 8.75 -31.1 8.8 -31.05 8.9 -31.0 8.95 -30.9 9.0 -30.85 9.1 -30.75 9.15 -30.7 9.25 -30.65 9.3 -30.6 9.35 -30.5 9.4 -30.45 9.35 -30.4 9.35 -30.25 9.35 -30.15 9.25 -30.0 9.2 -29.85 9.15 -29.75 9.1 -29.6 8.95 -29.4 8.85 -29.25 8.75 -29.1 8.75 -28.95 8.7 -28.8 8.6 -28.6 8.5 -28.45 8.45 -28.25 8.35 -28.05 8.25 -27.9 8.25 -27.85 8.2 -27.75 8.2 -27.6 8.05 -27.35 8.0 -27.25 8.0 -27.2 7.95 -27.1 7.85 -26.9 7.85 -26.85 7.8 -26.75 7.7 -26.55 7.65 -26.4 7.65 -26.35 7.6 -26.25 7.5 -26.0 7.35 -25.8 7.3 -25.65 7.25 -25.6 7.25 -25.5 7.2 -25.3 7.1 -25.05 7.0 -24.9 6.9 -24.7 6.9 -24.55 6.85 -24.4 6.8 -24.25 6.7 -24.1 6.65 -24.0 6.6 -23.85 6.5 -23.75 6.3 -23.7 6.25 -23.75 6.15 -23.85 6.05 -23.95 5.95 -24.05 5.9 -24.1 5.8 -24.15 5.75 -24.2 5.6 -24.2 5.55 -24.25 5.4 -24.25 5.25 -24.25 5.15 -24.3 5.05 -24.3 4.95 -24.35 4.8 -24.35 4.75 -24.4 4.65 -24.45 4.55 -24.45 4.4 -24.45 4.3 -24.45 4.2 -24.5 4.1 -24.55 4.0 -24.55 3.9 -24.6 3.75 -24.6 3.65 -24.65 3.55 -24.65 3.45 -24.7 3.35 -24.7 3.25 -24.75 3.15 -24.8 3.0 -24.8 2.85 -24.75 2.7 -24.75 2.6 -24.8 2.5 -24.8 2.35 -24.8 2.2 -24.8 2.1 -24.8 2.0 -24.85 1.85 -24.85 1.75 -24.85 1.6 -24.85 1.45 -24.85 1.35 -24.85 1.2 -24.85 1.05 -24.85 0.95 -24.85 0.85 -24.85 0.75 -24.9 0.6 -24.9 0.55 -24.95 0.45 -25.0 0.35 -25.05 0.25 -25.05 0.15 -25.1 0.0 -25.1 -0.1 -25.1 -0.2 -25.15 -0.35 -25.15 -0.55 -25.1 -0.65 -25.1 -0.75 -25.1 -0.9 -25.15 -1.0 -25.15 -1.2 -25.1 -1.35 -25.05 -1.45 -25.1 -1.55 -25.15 -1.7 -25.15 -1.85 -25.1 -2.05 -25.05 -2.2 -25.0 -2.45 -24.9 -2.6 -24.85 -2.75 -24.85 -2.85 -24.85 -3.05 -24.85 -3.25 -24.75 -3.4 -24.7 -3.6 -24.7 -3.75 -24.65 -3.9 -24.6 -4.15 -24.45 -4.35 -24.35 -4.55 -24.25 -4.7 -24.15 -4.85 -24.0 -5.05 -23.8 -5.2 -23.7 -5.3 -23.8 -5.35 -23.85 -5.35 -23.95 -5.4 -24.1 -5.4 -24.2 -5.35 -24.3 -5.35 -24.35 -5.35 -24.5 -5.35 -24.65 -5.4 -24.75 -5.45 -24.85 -5.45 -24.95 -5.5 -25.05 -5.55 -25.1 -5.55 -25.25 -5.55 -25.35 -5.6 -25.45 -5.6 -25.6 -5.65 -25.65 -5.7 -25.8 -5.65 -25.95 -5.65 -26.05 -5.65 -26.2 -5.7 -26.3 -5.7 -26.45 -5.65 -26.6 -5.65 -26.75 -5.65 -26.85 -5.7 -26.95 -5.7 -27.1 -5.7 -27.2 -5.7 -27.3 -5.75 -27.45 -5.75 -27.55 -5.8 -27.65 -5.8 -27.75 -5.8 -27.9 -5.8 -28.05 -5.85 -28.15 -5.85 -28.25 -5.85 -28.4 -5.9 -28.5 -5.9 -28.65 -5.9 -28.75 -5.9 -28.85 -5.95 -28.95 -5.95 -29.05 -6.0 -29.2 -6.0 -29.3 -6.0 -29.4 -6.0 -29.55 -6.05 -29.65 -6.05 -29.75 -6.1 -29.85 -6.1 -30.0 -6.1 -30.15 -6.1 -30.25 -6.15 -30.35 -6.2 -30.45 -6.2 -30.55 -6.25 -30.65 -6.25 -30.75 -6.35 -30.8 -6.4 -30.9 -6.45 -31.0 -6.45 -31.1 -6.5 -31.2 -6.5 -31.3 -6.55 -31.4 -6.6 -31.5 -6.65 -31.6 -6.65 -31.7 -6.5 -31.75 -6.3 -31.8 -6.15 -31.85 -5.95 -31.9 -5.8 -31.95 -5.65 -31.95 -5.45 -32.0 -5.3 -32.05 -5.15 -32.05 -5.0 -32.05 -4.85 -32.15 -4.75 -32.2 -4.7 -32.2 -4.6 -32.2 -4.45 -32.25 -4.25 -32.3 -4.15 -32.35 -4.0 -32.35 -3.85 -32.4 -3.7 -32.4 -3.55 -32.4 -3.4 -32.5 -3.2 -32.6 -3.15 -32.55 -3.0 -32.55 -2.85 -32.55 -2.7 -32.6 -2.55 -32.65 -2.45 -32.65 -2.35 -32.6 -2.25 -32.6 -2.1 -32.55 -2.0 -32.55 -1.85 -32.55 -1.7 -32.6 -1.55 -32.6 -1.4 -32.6 -1.3 -32.6 -1.15 -32.6 -1.05 -32.55 -0.95 -32.5 -0.9 -32.45 -0.75 -32.45 -0.6 -32.45 -0.45 -32.5 -0.3 -32.6 -0.15 -32.65 -0.1 -32.65 0.0 -32.6 0.1 -32.55 0.2 -32.55 0.35 -32.55 0.5 -32.6 0.7 -32.65 0.75 -32.65 0.9 -32.65 1.0 -32.65 1.15 -32.65 1.3 -32.65 1.4 -32.65 1.55 -32.65 1.7 -32.65 1.8 -32.65 1.95 -32.65 2.05 -32.6 2.15 -32.6 2.25 -32.55 2.4 -32.55 2.5 -32.55 2.65 -32.55 2.75 -32.5 2.85 -32.45 2.95 -32.45 3.1 -32.45 3.25 -32.45 3.3 -32.45 3.45 -32.4 3.55 -32.4 3.65 -32.35 3.75 -32.35 3.9 -32.35 4.0 -32.3 4.1 -32.3 4.2 -32.25 4.35 -32.25 4.45 -32.25 4.6 -32.25 4.7 -32.2 4.75 -32.15 4.85 -32.1 4.95 -32.05 5.1 -32.05 5.15 -32.05 5.3 -32.05 5.45 -32.05 5.55 -32.05 5.65 -32.0 5.75 -31.95 5.9 -31.95 6.0 -31.95 6.15 -31.95 M28.85 -6.6 L29.0 -6.6 29.15 -6.6 29.3 -6.7 29.45 -6.75 29.55 -6.8 29.7 -6.8 29.85 -6.8 30.05 -6.9 30.15 -6.95 30.25 -6.95 30.4 -6.95 30.6 -6.95 30.7 -6.95 30.85 -6.95 31.0 -6.95 31.15 -7.0 31.3 -7.1 31.4 -7.15 31.4 -7.1 31.4 -6.95 31.45 -6.9 31.5 -6.8 31.55 -6.7 31.55 -6.6 31.6 -6.5 31.6 -6.4 31.65 -6.3 31.7 -6.2 31.7 -6.05 31.75 -6.0 31.8 -5.85 31.8 -5.8 31.85 -5.65 31.9 -5.6 31.9 -5.45 31.95 -5.4 31.95 -5.25 31.95 -5.1 31.95 -5.0 32.0 -4.9 32.0 -4.75 32.0 -4.65 32.0 -4.5 32.0 -4.35 32.0 -4.25 32.05 -4.15 32.1 -4.1 32.1 -3.95 32.1 -3.8 32.1 -3.7 32.1 -3.55 32.15 -3.45 32.2 -3.35 32.25 -3.3 32.25 -3.15 32.3 -3.05 32.25 -2.9 32.25 -2.8 32.25 -2.65 32.3 -2.55 32.35 -2.45 32.35 -2.35 32.35 -2.2 32.35 -2.05 32.4 -2.0 32.4 -1.85 32.45 -1.75 32.5 -1.65 32.5 -1.55 32.55 -1.45 32.55 -1.35 32.55 -1.25 32.6 -1.1 32.65 -1.05 32.65 -0.9 32.65 -0.8 32.65 -0.65 32.65 -0.5 32.6 -0.35 32.6 -0.2 32.6 -0.1 32.6 0.05 32.6 0.2 32.6 0.3 32.6 0.45 32.6 0.6 32.65 0.7 32.65 0.8 32.7 0.9 32.75 1.0 32.7 1.15 32.7 1.3 32.7 1.4 32.65 1.6 32.65 1.75 32.55 1.9 32.55 1.95 32.55 2.1 32.55 2.2 32.45 2.4 32.45 2.55 32.45 2.7 32.45 2.85 32.45 2.95 32.45 3.1 32.45 3.25 32.45 3.35 32.45 3.5 32.35 3.7 32.35 3.85 32.35 4.0 32.35 4.1 32.4 4.2 32.4 4.3 32.45 4.45 32.45 4.55 32.45 4.7 32.45 4.8 32.4 5.0 32.35 5.2 32.3 5.35 32.25 5.55 32.25 5.7 32.2 5.85 32.15 6.0 32.1 6.15 32.05 6.3 32.0 6.35 32.0 6.45 31.95 6.65 31.9 6.8 31.9 6.95 31.9 7.1 31.85 7.3 31.8 7.45 31.8 7.55 31.8 7.7 31.7 7.9 31.65 8.0 31.6 8.05 31.6 8.2 31.55 8.4 31.45 8.6 31.45 8.7 31.4 8.85 31.3 9.05 31.3 9.1 31.2 9.05 31.1 9.0 31.0 9.0 30.95 8.95 30.85 8.9 30.75 8.85 30.65 8.8 30.55 8.8 30.45 8.75 30.35 8.75 30.25 8.65 30.2 8.6 30.1 8.55 30.05 8.5 29.95 8.45 29.9 8.4 29.8 8.35 29.7 8.3 29.6 8.25 29.5 8.25 29.4 8.25 29.3 8.2 29.2 8.15 29.1 8.1 29.0 8.05 28.9 8.05 28.8 8.05 28.7 8.0 28.6 7.95 28.5 7.9 28.35 7.9 28.25 7.9 28.15 7.9 28.05 7.85 27.95 7.8 27.85 7.8 27.75 7.75 27.6 7.75 27.5 7.7 27.4 7.7 27.3 7.65 27.2 7.65 27.05 7.65 26.95 7.65 26.85 7.6 26.7 7.6 26.6 7.6 26.45 7.55 26.35 7.55 26.25 7.5 26.1 7.5 26.0 7.5 25.9 7.5 25.8 7.45 25.7 7.4 25.6 7.35 25.5 7.35 25.4 7.3 25.3 7.3 25.15 7.3 25.0 7.3 24.95 7.25 24.8 7.25 24.7 7.2 24.55 7.2 24.5 7.15 24.35 7.15 24.3 7.1 24.2 7.05 24.15 7.0 24.05 6.95 23.95 6.9 23.95 6.75 23.95 6.65 23.95 6.5 24.0 6.35 24.1 6.15 24.15 6.0 24.2 5.9 24.2 5.75 24.2 5.6 24.2 5.5 24.2 5.35 24.25 5.2 24.3 5.0 24.35 4.8 24.4 4.65 24.45 4.45 24.55 4.25 24.55 4.05 24.55 3.95 24.55 3.8 24.55 3.7 24.6 3.5 24.65 3.35 24.7 3.15 24.75 2.95 24.75 2.8 24.8 2.65 24.8 2.55 24.9 2.35 24.95 2.2 25.0 2.1 25.0 1.95 25.0 1.8 25.0 1.7 25.0 1.55 25.05 1.4 25.1 1.2 25.1 1.05 25.1 0.95 25.15 0.75 25.15 0.65 25.15 0.5 25.15 0.35 25.2 0.2 25.2 0.05 25.15 -0.05 25.15 -0.15 25.15 -0.3 25.2 -0.5 25.2 -0.6 25.15 -0.7 25.15 -0.85 25.15 -0.95 25.15 -1.1 25.2 -1.25 25.15 -1.4 25.15 -1.5 25.1 -1.6 25.1 -1.7 25.1 -1.85 25.1 -2.0 25.1 -2.1 25.1 -2.2 25.05 -2.35 25.05 -2.45 25.05 -2.6 25.05 -2.75 25.0 -2.8 25.0 -2.95 25.0 -3.1 25.0 -3.2 24.95 -3.3 24.95 -3.4 24.9 -3.5 24.85 -3.6 24.85 -3.75 24.9 -3.9 24.85 -4.0 24.85 -4.1 24.8 -4.2 24.75 -4.3 24.75 -4.4 24.75 -4.55 24.75 -4.7 24.75 -4.8 24.7 -4.9 24.7 -5.0 24.65 -5.1 24.6 -5.2 24.55 -5.25 24.55 -5.35 24.7 -5.45 24.85 -5.45 25.05 -5.5 25.2 -5.6 25.3 -5.65 25.4 -5.65 25.55 -5.65 25.7 -5.65 25.85 -5.7 26.0 -5.7 26.15 -5.7 26.3 -5.8 26.35 -5.8 26.5 -5.85 26.65 -5.9 26.85 -5.95 27.0 -5.95 27.2 -6.0 27.4 -6.05 27.55 -6.1 27.7 -6.15 27.85 -6.15 28.0 -6.15 28.15 -6.25 28.35 -6.35 28.4 -6.45 28.5 -6.5 28.65 -6.5 28.85 -6.6 M0.05 24.7 L0.2 24.65 0.4 24.6 0.55 24.6 0.65 24.6 0.8 24.6 0.95 24.6 1.05 24.6 1.2 24.6 1.35 24.6 1.45 24.6 1.6 24.6 1.75 24.6 1.85 24.6 2.0 24.6 2.15 24.6 2.3 24.5 2.4 24.45 2.5 24.45 2.65 24.45 2.85 24.4 2.95 24.4 3.15 24.35 3.3 24.35 3.5 24.25 3.65 24.25 3.75 24.25 3.9 24.25 4.1 24.2 4.2 24.2 4.35 24.2 4.45 24.2 4.65 24.15 4.7 24.25 4.75 24.35 4.8 24.4 4.85 24.5 4.95 24.55 5.0 24.6 5.1 24.65 5.15 24.7 5.25 24.75 5.4 24.75 5.55 24.75 5.6 24.85 5.65 24.95 5.7 25.0 5.75 25.1 5.75 25.25 5.8 25.35 5.8 25.45 5.85 25.55 5.85 25.7 5.85 25.8 5.85 25.95 5.9 26.05 5.9 26.1 5.95 26.2 5.95 26.35 6.0 26.45 6.0 26.55 6.0 26.7 6.05 26.8 6.05 26.9 6.1 27.0 6.15 27.1 6.15 27.2 6.2 27.3 6.25 27.4 6.3 27.45 6.3 27.6 6.35 27.65 6.35 27.8 6.4 27.9 6.45 28.0 6.5 28.1 6.5 28.2 6.55 28.3 6.55 28.4 6.6 28.5 6.65 28.6 6.7 28.65 6.7 28.8 6.75 28.9 6.75 29.0 6.8 29.1 6.85 29.15 6.9 29.25 6.9 29.4 6.9 29.55 6.9 29.65 6.9 29.8 6.95 29.9 7.0 29.95 7.05 30.05 7.05 30.15 7.1 30.25 7.1 30.4 7.05 30.55 7.05 30.7 7.05 30.8 7.1 30.9 7.15 31.0 7.2 31.1 7.2 31.2 7.25 31.3 7.25 31.45 7.25 31.55 7.3 31.6 7.25 31.6 7.1 31.6 6.95 31.65 6.75 31.7 6.65 31.7 6.45 31.75 6.3 31.8 6.15 31.9 6.0 32.0 5.9 32.05 5.8 32.1 5.65 32.15 5.55 32.2 5.5 32.2 5.4 32.2 5.2 32.25 5.05 32.35 4.9 32.45 4.6 32.65 4.45 32.65 4.3 32.7 4.1 32.75 3.9 32.8 3.75 32.85 3.6 32.9 3.45 32.95 3.35 33.0 3.25 33.0 3.1 33.0 2.95 33.05 2.75 33.1 2.6 33.1 2.45 33.15 2.25 33.2 2.1 33.2 1.95 33.25 1.75 33.35 1.6 33.35 1.45 33.35 1.3 33.35 1.15 33.4 1.05 33.35 0.95 33.35 0.8 33.35 0.65 33.35 0.5 33.35 0.3 33.4 0.2 33.4 0.05 33.4 -0.05 33.4 -0.15 33.35 -0.25 33.35 -0.4 33.35 -0.55 33.35 -0.65 33.35 -0.8 33.35 -0.95 33.35 -1.05 33.35 -1.15 33.3 -1.25 33.25 -1.35 33.2 -1.45 33.2 -1.6 33.2 -1.75 33.2 -1.85 33.15 -1.95 33.15 -2.05 33.1 -2.15 33.1 -2.3 33.1 -2.45 33.15 -2.6 33.15 -2.7 33.1 -2.8 33.05 -2.9 33.05 -3.0 33.0 -3.1 32.95 -3.2 32.95 -3.35 32.95 -3.45 32.95 -3.55 32.9 -3.65 32.85 -3.75 32.85 -3.9 32.85 -3.95 32.8 -4.05 32.75 -4.15 32.75 -4.3 32.7 -4.35 32.65 -4.5 32.65 -4.55 32.6 -4.7 32.6 -4.8 32.6 -4.9 32.55 -5.0 32.5 -5.1 32.45 -5.2 32.4 -5.3 32.4 -5.4 32.4 -5.5 32.35 -5.65 32.35 -5.75 32.35 -5.9 32.3 -6.0 32.3 -6.1 32.25 -6.2 32.25 -6.3 32.2 -6.4 32.2 -6.5 32.15 -6.6 32.1 -6.7 32.05 -6.8 32.05 -6.95 32.05 -7.05 32.05 -7.2 32.05 -7.3 32.0 -7.4 31.95 -7.5 31.95 -7.55 31.9 -7.6 31.85 -7.7 31.8 -7.8 31.8 -7.85 31.75 -7.95 31.7 -8.1 31.7 -8.2 31.7 -8.25 31.7 -8.25 31.65 -8.25 31.5 -8.3 31.4 -8.35 31.3 -8.35 31.2 -8.4 31.15 -8.45 31.05 -8.55 31.0 -8.6 30.95 -8.7 30.9 -8.75 30.8 -8.75 30.7 -8.8 30.6 -8.8 30.45 -8.75 30.3 -8.65 30.1 -8.65 30.05 -8.55 29.9 -8.45 29.75 -8.4 29.65 -8.35 29.55 -8.25 29.35 -8.15 29.2 -8.05 29.05 -8.0 28.95 -7.95 28.9 -7.9 28.75 -7.8 28.6 -7.75 28.5 -7.7 28.45 -7.7 28.35 -7.6 28.2 -7.55 28.15 -7.45 28.0 -7.4 27.9 -7.35 27.8 -7.25 27.6 -7.2 27.45 -7.1 27.25 -7.0 27.1 -6.95 27.0 -6.9 26.95 -6.9 26.85 -6.9 26.7 -6.9 26.55 -6.75 26.35 -6.65 26.2 -6.65 26.05 -6.65 25.9 -6.65 25.75 -6.65 25.65 -6.45 25.4 -6.4 25.3 -6.4 25.15 -6.35 25.0 -6.35 24.9 -6.4 24.8 -6.4 24.65 -6.4 24.55 -6.35 24.35 -6.35 24.2 -6.25 24.05 -6.2 24.05 -6.05 24.05 -5.9 24.05 -5.8 24.05 -5.75 24.15 -5.65 24.15 -5.5 24.2 -5.4 24.2 -5.25 24.2 -5.1 24.2 -5.0 24.2 -4.9 24.2 -4.8 24.25 -4.7 24.25 -4.55 24.25 -4.4 24.25 -4.3 24.25 -4.15 24.3 -4.1 24.35 -3.95 24.35 -3.85 24.4 -3.8 24.4 -3.65 24.45 -3.55 24.45 -3.45 24.5 -3.35 24.55 -3.25 24.6 -3.2 24.6 -3.05 24.6 -2.9 24.6 -2.75 24.6 -2.65 24.6 -2.5 24.6 -2.4 24.6 -2.25 24.65 -2.15 24.65 -2.05 24.7 -1.95 24.7 -1.8 24.7 -1.7 24.7 -1.55 24.7 -1.4 24.7 -1.3 24.7 -1.15 24.7 -1.0 24.7 -0.9 24.7 -0.75 24.7 -0.6 24.7 -0.5 24.7 -0.35 24.7 -0.2 24.7 -0.1 24.7 0.05 24.7 M-30.85 -8.65 L-30.8 -8.75 -30.75 -8.75 -30.65 -8.7 -30.55 -8.7 -30.4 -8.7 -30.35 -8.6 -30.25 -8.55 -30.2 -8.5 -30.1 -8.45 -30.05 -8.4 -29.9 -8.4 -29.85 -8.35 -29.7 -8.35 -29.6 -8.3 -29.45 -8.3 -29.4 -8.25 -29.25 -8.25 -29.2 -8.2 -29.1 -8.1 -29.0 -8.1 -28.9 -8.1 -28.8 -8.05 -28.7 -8.05 -28.6 -8.0 -28.45 -8.0 -28.3 -8.0 -28.2 -7.95 -28.15 -7.9 -28.05 -7.85 -27.95 -7.8 -27.9 -7.75 -27.75 -7.75 -27.65 -7.75 -27.55 -7.75 -27.45 -7.7 -27.35 -7.65 -27.2 -7.65 -27.1 -7.65 -26.95 -7.65 -26.85 -7.6 -26.8 -7.55 -26.7 -7.5 -26.6 -7.45 -26.45 -7.45 -26.35 -7.45 -26.2 -7.5 -26.05 -7.5 -26.0 -7.4 -25.85 -7.4 -25.75 -7.35 -25.65 -7.35 -25.5 -7.35 -25.45 -7.3 -25.3 -7.3 -25.2 -7.3 -25.1 -7.25 -24.95 -7.25 -24.85 -7.2 -24.75 -7.2 -24.6 -7.2 -24.5 -7.15 -24.4 -7.15 -24.25 -7.15 -24.15 -7.1 -24.05 -7.1 -23.95 -7.05 -24.0 -6.9 -24.05 -6.75 -24.1 -6.6 -24.15 -6.4 -24.2 -6.25 -24.25 -6.1 -24.3 -5.95 -24.3 -5.75 -24.4 -5.55 -24.4 -5.4 -24.45 -5.25 -24.5 -5.1 -24.6 -4.9 -24.65 -4.75 -24.65 -4.6 -24.65 -4.45 -24.65 -4.3 -24.65 -4.2 -24.7 -4.0 -24.8 -3.75 -24.85 -3.6 -24.85 -3.5 -24.85 -3.35 -24.8 -3.25 -24.8 -3.1 -24.85 -2.95 -24.85 -2.8 -24.85 -2.65 -24.9 -2.5 -24.9 -2.4 -24.9 -2.2 -24.9 -2.05 -24.95 -1.9 -25.0 -1.7 -25.0 -1.6 -25.0 -1.45 -25.0 -1.35 -24.95 -1.25 -25.0 -1.05 -25.0 -0.9 -25.0 -0.8 -25.0 -0.7 -24.95 -0.55 -24.9 -0.5 -24.85 -0.4 -24.85 -0.3 -24.8 -0.2 -24.85 -0.05 -24.85 0.1 -24.85 0.25 -24.8 0.35 -24.8 0.45 -24.8 0.6 -24.8 0.7 -24.8 0.85 -24.75 0.95 -24.75 1.05 -24.75 1.2 -24.75 1.35 -24.7 1.4 -24.7 1.55 -24.75 1.75 -24.75 1.85 -24.75 2.0 -24.7 2.1 -24.7 2.2 -24.65 2.3 -24.65 2.45 -24.65 2.55 -24.65 2.7 -24.65 2.85 -24.6 2.9 -24.6 3.05 -24.6 3.15 -24.55 3.25 -24.5 3.35 -24.5 3.5 -24.5 3.65 -24.5 3.7 -24.5 3.85 -24.45 3.95 -24.45 4.05 -24.45 4.2 -24.4 4.3 -24.4 4.45 -24.35 4.55 -24.35 4.65 -24.35 4.8 -24.3 4.9 -24.3 5.0 -24.25 5.05 -24.2 5.2 -24.15 5.25 -24.15 5.35 -24.1 5.4 -24.15 5.4 -24.25 5.35 -24.4 5.35 -24.55 5.4 -24.75 5.45 -24.9 5.5 -25.15 5.6 -25.4 5.7 -25.55 5.7 -25.65 5.7 -25.8 5.7 -25.95 5.75 -26.15 5.75 -26.3 5.8 -26.45 5.85 -26.6 5.9 -26.75 5.95 -26.8 5.95 -27.0 6.0 -27.25 6.15 -27.4 6.15 -27.55 6.15 -27.65 6.15 -27.8 6.15 -27.95 6.15 -28.1 6.2 -28.25 6.25 -28.35 6.35 -28.5 6.35 -28.6 6.35 -28.7 6.35 -28.9 6.35 -29.05 6.4 -29.15 6.35 -29.3 6.35 -29.45 6.4 -29.6 6.4 -29.8 6.45 -29.9 6.45 -30.05 6.45 -30.2 6.5 -30.35 6.5 -30.5 6.55 -30.65 6.55 -30.75 6.5 -30.9 6.5 -31.05 6.55 -31.15 6.5 -31.3 6.5 -31.45 6.55 -31.65 6.6 -31.75 6.6 -31.9 6.6 -31.9 6.5 -31.95 6.4 -31.95 6.3 -31.95 6.15 -31.95 6.05 -32.0 5.95 -32.0 5.8 -32.0 5.65 -32.0 5.55 -32.05 5.45 -32.1 5.35 -32.1 5.2 -32.1 5.1 -32.1 5.0 -32.15 4.9 -32.15 4.8 -32.25 4.7 -32.3 4.6 -32.3 4.5 -32.3 4.4 -32.35 4.3 -32.35 4.15 -32.4 4.05 -32.4 3.95 -32.4 3.8 -32.45 3.7 -32.45 3.6 -32.45 3.45 -32.45 3.3 -32.5 3.25 -32.5 3.1 -32.55 3.05 -32.6 2.95 -32.6 2.85 -32.6 2.7 -32.6 2.55 -32.65 2.45 -32.7 2.35 -32.7 2.25 -32.7 2.15 -32.75 2.05 -32.75 1.9 -32.75 1.8 -32.8 1.7 -32.8 1.55 -32.8 1.4 -32.8 1.3 -32.8 1.15 -32.8 1.05 -32.85 0.95 -32.9 0.85 -32.9 0.7 -32.9 0.6 -32.9 0.45 -32.9 0.3 -32.9 0.2 -32.9 0.05 -32.9 -0.1 -32.9 -0.2 -32.9 -0.35 -32.9 -0.5 -32.9 -0.6 -32.9 -0.75 -32.9 -0.9 -32.8 -1.1 -32.8 -1.25 -32.8 -1.35 -32.85 -1.45 -32.8 -1.6 -32.8 -1.75 -32.8 -1.9 -32.8 -2.05 -32.8 -2.15 -32.75 -2.35 -32.75 -2.45 -32.7 -2.6 -32.7 -2.8 -32.65 -2.95 -32.6 -3.15 -32.55 -3.3 -32.55 -3.45 -32.5 -3.65 -32.45 -3.85 -32.35 -4.05 -32.35 -4.2 -32.3 -4.35 -32.25 -4.55 -32.25 -4.7 -32.1 -4.9 -32.1 -5.0 -32.1 -5.15 -32.05 -5.35 -31.95 -5.55 -31.9 -5.75 -31.85 -5.9 -31.75 -6.1 -31.7 -6.2 -31.65 -6.3 -31.65 -6.4 -31.55 -6.6 -31.55 -6.65 -31.5 -6.8 -31.45 -6.95 -31.4 -7.1 -31.35 -7.3 -31.3 -7.35 -31.3 -7.45 -31.2 -7.65 -31.15 -7.75 -31.15 -7.95 -31.1 -8.1 -30.95 -8.3 -30.9 -8.5 -30.85 -8.65" fill="#999999" fill-rule="evenodd" stroke="none"/>
  </g>
</svg>
