<?xml version="1.0" encoding="UTF-8" standalone="no"?>
<svg xmlns:ffdec="https://www.free-decompiler.com/flash" xmlns:xlink="http://www.w3.org/1999/xlink" ffdec:objectType="shape" height="18.05px" width="17.95px" xmlns="http://www.w3.org/2000/svg">
  <g transform="matrix(1.0, 0.0, 0.0, 1.0, 9.05, 9.05)">
    <path d="M2.35 -5.7 L1.85 -6.3 1.45 -6.7 Q-0.75 -7.3 -2.65 -6.15 L-4.2 -4.95 -4.55 -4.75 -4.95 -4.55 -5.2 -4.35 -5.3 -4.2 -5.45 -4.0 -5.55 -3.8 -5.6 -3.6 -5.7 -3.45 -5.8 -3.25 -6.0 -3.05 -6.25 -2.85 -6.3 -2.7 -6.45 -2.5 -6.55 -2.3 -6.75 -2.1 -6.75 -1.95 -6.8 -1.75 -6.9 -1.55 -7.0 -1.35 -7.0 -0.6 -7.0 1.45 -7.0 3.15 -6.8 3.5 -6.35 4.45 -5.6 5.75 -3.05 6.65 0.2 7.4 0.25 7.4 0.4 7.6 0.55 7.75 0.7 7.95 0.75 8.15 0.75 8.3 0.7 8.5 0.6 8.7 0.5 8.9 0.35 9.0 -2.8 9.0 -5.3 8.05 -6.0 8.0 -6.5 7.9 -6.75 7.7 -7.25 7.1 -7.8 6.35 -7.95 6.2 -8.0 6.0 -8.2 5.6 -8.4 5.05 -8.5 4.7 -8.7 4.5 -8.8 4.3 -8.95 4.15 Q-9.4 0.25 -8.15 -3.25 -7.45 -5.05 -5.95 -6.3 -3.5 -8.35 -0.5 -9.0 1.4 -9.25 2.95 -8.25 L4.25 -7.1 4.6 -6.6 6.1 -5.0 6.9 -4.5 8.05 -2.65 Q9.05 -1.25 8.85 0.55 L8.75 1.9 8.7 2.05 8.55 2.25 8.45 2.45 8.4 2.65 8.3 2.8 8.2 3.0 7.9 3.4 7.6 3.95 7.5 4.15 7.5 4.3 7.5 4.5 7.45 4.7 7.4 4.9 7.3 5.05 7.1 5.25 6.55 5.65 6.1 6.2 6.0 6.4 5.8 6.55 5.5 6.75 5.25 7.1 4.25 7.95 3.3 8.8 3.3 9.0 1.25 9.0 1.25 8.05 1.95 7.15 2.15 6.95 Q3.75 5.85 4.8 4.3 L4.95 4.15 5.15 3.95 5.45 3.75 5.5 3.55 5.5 3.4 5.55 3.2 5.65 3.0 5.75 2.8 5.95 2.6 6.05 2.45 6.25 2.1 6.45 1.9 6.5 1.8 6.5 1.75 6.85 0.25 Q6.9 -0.75 6.5 -1.4 L6.5 -2.2 Q6.3 -2.75 5.75 -3.1 L5.6 -3.15 5.55 -3.25 4.9 -4.0 3.1 -4.95 2.35 -5.7" fill="#000000" fill-rule="evenodd" stroke="none"/>
    <path d="M0.25 7.4 L0.2 7.4 -3.05 6.65 -5.6 5.75 -6.35 4.45 -6.8 3.5 -7.0 3.15 -7.0 1.45 -7.0 -0.6 -7.0 -1.35 -6.9 -1.55 -6.8 -1.75 -6.75 -1.95 -6.75 -2.1 -6.55 -2.3 -6.45 -2.5 -6.3 -2.7 -6.25 -2.85 -6.0 -3.05 -5.8 -3.25 -5.7 -3.45 -5.6 -3.6 -5.55 -3.8 -5.45 -4.0 -5.3 -4.2 -5.2 -4.35 -4.95 -4.55 -4.55 -4.75 -4.2 -4.95 -2.65 -6.15 Q-0.75 -7.3 1.45 -6.7 L1.85 -6.3 2.35 -5.7 2.25 -5.65 2.25 -5.6 2.25 -5.45 2.2 -5.25 2.15 -5.35 1.95 -5.5 1.6 -5.6 1.4 -5.6 1.4 -5.55 1.0 -5.45 0.9 -5.4 0.8 -5.4 0.8 -5.35 0.6 -5.35 0.4 -5.4 0.4 -5.35 0.1 -5.3 -0.1 -5.25 Q-0.4 -4.95 -0.75 -4.75 L-1.6 -4.15 -2.8 -3.55 Q-3.1 -3.2 -3.5 -2.95 L-3.85 -2.65 -3.95 -2.5 -4.25 -1.9 -4.5 -1.6 -4.65 -1.15 -4.7 1.1 -3.85 3.15 -3.8 3.35 -3.7 3.45 -3.55 3.75 -3.45 3.9 -3.3 4.2 -3.2 4.35 -1.65 5.35 -1.6 5.45 -1.6 5.6 -1.6 5.75 -1.6 5.9 -1.55 6.05 -1.4 6.35 -0.5 6.8 0.45 7.05 0.3 7.25 0.25 7.4" fill="#666666" fill-rule="evenodd" stroke="none"/>
    <path d="M2.35 -5.7 L3.1 -4.95 3.0 -5.0 3.0 -4.95 2.75 -4.9 2.2 -5.2 2.2 -5.15 1.8 -5.05 1.6 -4.95 1.5 -4.8 1.4 -4.35 1.45 -4.05 1.65 -3.75 1.7 -3.6 1.8 -3.45 2.25 -3.15 2.4 -3.0 2.45 -2.85 2.85 -2.3 3.1 -1.95 3.05 -1.95 3.0 -1.5 3.1 -1.2 3.6 -0.45 3.8 0.15 3.8 0.2 3.75 0.3 3.65 0.45 3.6 0.6 3.6 0.9 3.6 1.25 2.6 2.45 2.6 2.6 2.65 3.05 2.75 3.15 2.6 3.25 2.35 3.55 2.2 3.85 2.2 4.15 2.25 4.45 2.4 4.75 2.6 4.85 3.0 5.0 3.3 4.95 3.45 4.85 3.55 4.8 3.7 4.75 3.8 4.7 4.3 4.0 4.75 3.4 5.05 3.25 5.2 3.1 5.25 3.05 5.25 3.0 5.35 2.85 5.4 2.85 5.7 2.55 6.5 1.8 6.45 1.9 6.25 2.1 6.05 2.45 5.95 2.6 5.75 2.8 5.65 3.0 5.55 3.2 5.5 3.4 5.5 3.55 5.45 3.75 5.15 3.95 4.95 4.15 4.8 4.3 Q3.75 5.85 2.15 6.95 L1.95 7.15 1.25 7.15 1.1 7.25 1.05 7.4 1.0 7.55 1.05 9.0 0.35 9.0 0.5 8.9 0.6 8.7 0.7 8.5 0.75 8.3 0.75 8.15 0.7 7.95 0.55 7.75 0.4 7.6 0.25 7.4 0.3 7.25 0.45 7.05 -0.5 6.8 -1.4 6.35 -1.55 6.05 -1.6 5.9 -1.6 5.75 -1.6 5.6 -1.6 5.45 -1.55 5.3 -1.45 5.15 -1.35 5.0 -1.2 4.9 -1.1 4.85 -0.9 4.85 -1.0 4.75 -1.55 4.15 -1.6 3.1 -1.6 2.05 -1.55 1.9 -1.5 1.85 -1.55 1.75 -1.8 1.65 -2.0 1.55 Q-2.35 0.9 -2.05 0.25 L-2.0 0.15 -2.0 -0.25 -2.0 -0.4 -1.7 -0.95 -1.7 -1.0 -1.75 -1.15 -1.8 -1.45 -1.8 -1.6 -1.1 -2.8 -0.45 -3.7 -0.4 -3.85 -0.4 -4.0 -0.35 -4.15 -0.25 -4.3 -0.1 -4.45 0.15 -4.6 0.35 -4.9 0.8 -5.35 0.9 -5.4 1.0 -5.45 1.4 -5.55 1.4 -5.6 1.6 -5.6 1.95 -5.5 2.15 -5.35 2.2 -5.25 2.25 -5.45 2.25 -5.6 2.25 -5.65 2.35 -5.7" fill="#999999" fill-rule="evenodd" stroke="none"/>
    <path d="M-1.6 5.45 L-1.65 5.35 -3.2 4.35 -3.3 4.2 -3.45 3.9 -3.55 3.75 -3.7 3.45 -3.8 3.35 -3.85 3.15 -4.7 1.1 -4.65 -1.15 -4.5 -1.6 -4.25 -1.9 -3.95 -2.5 -3.85 -2.65 -3.5 -2.95 Q-3.1 -3.2 -2.8 -3.55 L-1.6 -4.15 -0.75 -4.75 Q-0.4 -4.95 -0.1 -5.25 L0.1 -5.3 0.4 -5.35 0.4 -5.4 0.6 -5.35 0.8 -5.35 0.8 -5.4 0.9 -5.4 0.8 -5.35 0.35 -4.9 0.15 -4.6 -0.1 -4.45 -0.25 -4.3 -0.35 -4.15 -0.4 -4.0 -0.4 -3.85 -0.45 -3.7 -1.1 -2.8 -1.8 -1.6 -1.8 -1.45 -1.75 -1.15 -1.7 -1.0 -1.7 -0.95 -2.0 -0.4 -2.0 -0.25 -2.0 0.15 -2.05 0.25 Q-2.35 0.9 -2.0 1.55 L-1.8 1.65 -1.55 1.75 -1.5 1.85 -1.55 1.9 -1.6 2.05 -1.6 3.1 -1.55 4.15 -1.0 4.75 -0.9 4.85 -1.1 4.85 -1.2 4.9 -1.35 5.0 -1.45 5.15 -1.55 5.3 -1.6 5.45" fill="#7c7c7c" fill-rule="evenodd" stroke="none"/>
    <path d="M3.1 -4.95 L4.9 -4.0 5.55 -3.25 5.6 -3.15 5.75 -3.1 Q6.3 -2.75 6.5 -2.2 L6.5 -1.4 Q6.9 -0.75 6.85 0.25 L6.5 1.75 6.5 1.8 5.7 2.55 5.4 2.85 5.35 2.85 5.25 3.0 5.25 3.05 5.2 3.1 5.05 3.25 4.75 3.4 4.3 4.0 3.8 4.7 3.7 4.75 3.55 4.8 3.45 4.85 3.3 4.95 3.0 5.0 2.6 4.85 2.4 4.75 2.25 4.45 2.2 4.15 2.2 3.85 2.35 3.55 2.6 3.25 2.75 3.15 2.65 3.05 2.6 2.6 2.6 2.45 3.6 1.25 3.6 0.9 3.6 0.6 3.65 0.45 3.75 0.3 3.8 0.2 3.8 0.15 3.6 -0.45 3.1 -1.2 3.0 -1.5 3.05 -1.95 3.1 -1.95 2.85 -2.3 2.45 -2.85 2.4 -3.0 2.25 -3.15 1.8 -3.45 1.7 -3.6 1.65 -3.75 1.45 -4.05 1.4 -4.35 1.5 -4.8 1.6 -4.95 1.8 -5.05 2.2 -5.15 2.2 -5.2 2.75 -4.9 3.0 -4.95 3.0 -5.0 3.1 -4.95" fill="#aeaeae" fill-rule="evenodd" stroke="none"/>
  </g>
</svg>
