<?xml version="1.0" encoding="UTF-8" standalone="no"?>
<svg xmlns:ffdec="https://www.free-decompiler.com/flash" xmlns:xlink="http://www.w3.org/1999/xlink" ffdec:objectType="shape" height="95.0px" width="66.0px" xmlns="http://www.w3.org/2000/svg">
  <g transform="matrix(1.0, 0.0, 0.0, 1.0, 423.5, 33.5)">
    <path d="M-408.55 -31.65 L-408.35 -32.0 -408.1 -32.35 -407.75 -32.75 -407.35 -33.1 -406.75 -33.4 -406.0 -33.45 -406.0 -33.5 Q-403.6 -33.1 -401.55 -31.7 -400.15 -30.8 -399.0 -29.5 L-398.5 -28.4 -397.9 -27.25 -396.9 -25.75 -396.75 -25.4 -396.65 -25.0 -396.5 -24.65 -396.5 -24.25 -396.5 -23.9 -396.5 -23.5 -396.2 -22.75 -395.95 -22.0 -395.65 -21.25 -395.5 -20.9 -395.5 -19.0 -395.5 -16.0 -395.5 -13.0 -395.35 -12.65 -395.15 -12.25 -395.0 -11.9 -395.0 -9.65 -395.0 -6.25 -395.0 -3.65 -395.15 -3.25 -395.35 -2.85 -395.5 -2.5 -395.5 -2.15 -395.5 -1.75 -395.5 -1.4 -395.5 -1.0 -395.5 -0.65 -395.5 -0.25 -396.4 2.05 Q-397.2 4.25 -398.7 6.05 L-400.15 7.6 -400.8 8.75 -401.9 9.9 -403.0 11.0 -404.1 12.95 -405.2 15.2 -406.0 17.0 -405.8 17.75 -405.5 18.5 -405.15 19.25 -404.65 20.35 -404.25 20.75 -403.9 21.1 -403.65 21.35 Q-400.75 22.25 -398.0 23.45 L-393.75 25.1 Q-379.9 25.75 -366.55 29.15 -364.4 29.7 -362.4 30.6 L-362.05 31.0 -361.85 31.35 -361.65 31.75 -361.55 32.1 -361.5 32.5 Q-360.55 33.25 -359.95 34.25 L-358.25 37.3 -357.5 39.25 -357.5 41.5 -357.5 45.25 -357.5 47.85 -358.75 50.2 -360.8 53.5 -361.5 55.0 -362.65 56.1 -363.8 57.15 -365.0 58.0 Q-375.2 64.65 -386.4 58.6 L-387.65 58.25 -388.1 57.85 -388.4 57.6 -392.5 55.95 Q-394.25 55.25 -396.15 54.75 L-396.6 54.35 -396.9 54.1 Q-400.9 52.45 -405.0 51.05 L-409.15 49.75 -409.6 49.35 -410.0 49.0 -410.4 48.6 -412.8 46.8 -415.75 43.75 -416.15 43.35 -416.35 43.0 -416.55 42.65 -416.75 42.25 -417.15 41.85 -417.5 41.5 -418.15 40.4 -418.65 39.55 -419.45 38.45 -419.75 38.1 -419.9 37.75 -420.0 37.35 -420.15 37.0 -420.4 36.65 -420.75 36.25 Q-421.0 35.25 -421.4 34.4 L-422.25 32.15 -423.0 29.85 -423.0 29.5 -423.0 29.1 -423.25 28.75 -423.4 28.35 -423.5 28.0 -423.5 25.75 -423.5 22.0 -423.5 19.35 -423.35 19.0 -423.15 18.6 -423.0 18.25 -423.0 17.5 -423.0 17.1 -423.0 16.75 -423.0 16.35 -423.0 15.6 -422.9 15.25 -422.75 14.85 -422.65 14.5 -422.5 14.1 -422.5 13.75 -422.5 13.35 -422.5 13.0 -421.8 11.15 -420.7 8.2 Q-420.15 6.85 -419.9 5.5 L-417.75 2.55 Q-416.25 0.2 -415.2 -2.4 L-414.9 -3.5 Q-414.25 -4.35 -413.95 -5.35 L-413.25 -7.65 -412.5 -9.9 -412.5 -10.25 -412.5 -10.65 -412.35 -11.0 -412.15 -11.4 -412.0 -11.75 -412.0 -12.15 -412.0 -12.5 -411.9 -12.9 -411.75 -13.25 -411.5 -13.65 -411.5 -14.0 -411.5 -14.4 -411.4 -14.75 -411.25 -15.15 -411.15 -15.5 -411.0 -15.9 -411.0 -16.65 -411.0 -17.4 -411.0 -18.15 -411.0 -18.9 -410.9 -19.25 -410.75 -19.65 -410.65 -20.0 -410.5 -20.4 -410.5 -20.75 -410.5 -21.15 -410.5 -21.5 -410.4 -21.9 -410.25 -22.25 -410.0 -22.65 -410.0 -23.4 -410.0 -24.15 -410.0 -24.9 -410.0 -25.65 -409.85 -26.0 -409.65 -26.4 -409.5 -26.75 -409.5 -27.15 -409.5 -27.5 -409.5 -27.9 -409.5 -28.25 -409.5 -28.65 -409.35 -29.0 -409.15 -29.4 -409.0 -29.75 -409.0 -30.15 -409.0 -30.5 -408.7 -31.25 -408.55 -31.65 M-405.5 -20.15 L-405.5 -19.4 -405.5 -18.65 -405.65 -18.25 -405.85 -17.85 -406.0 -17.5 -406.0 -15.65 -406.0 -13.75 -406.15 -13.4 -406.3 -13.0 -406.5 -12.65 -406.5 -12.25 -406.5 -11.9 -406.75 -11.15 -407.0 -10.4 -407.0 -10.0 -407.0 -9.65 -407.6 -8.15 -408.0 -7.0 -408.0 -6.65 -408.0 -6.25 Q-410.2 0.8 -414.1 7.05 -416.25 10.55 -417.5 14.35 L-417.5 15.1 -417.5 15.85 -417.65 16.25 -417.85 16.65 -418.0 17.0 -418.0 18.5 -418.0 19.6 -418.25 20.35 -418.5 21.1 -418.5 24.1 -418.5 26.35 -418.25 27.1 -418.0 27.85 -418.0 28.25 -418.0 28.6 Q-417.05 31.5 -415.55 34.2 -414.6 35.85 -413.9 37.6 L-413.5 38.0 -413.15 38.35 Q-412.2 40.1 -410.65 41.4 -409.9 42.0 -409.65 42.85 -399.7 47.85 -389.0 51.75 -385.1 53.15 -381.5 55.25 -375.3 56.7 -369.4 54.85 L-368.1 53.8 -367.4 53.35 -366.65 52.6 -366.25 52.25 -363.7 48.1 -362.5 45.85 -362.5 43.25 -362.5 41.35 -363.6 38.65 -364.65 36.85 Q-366.15 34.9 -368.35 33.85 L-368.75 33.6 -397.0 29.5 Q-398.4 29.3 -399.5 28.5 L-400.65 28.25 -401.1 27.85 -401.4 27.6 Q-404.3 27.05 -406.9 25.6 L-408.75 23.75 -409.15 23.35 -410.35 20.75 -411.0 18.85 -411.0 17.0 -411.0 15.1 -410.3 13.25 -409.75 11.75 -409.4 11.35 -409.0 11.0 Q-408.65 9.7 -407.85 8.7 L-407.15 7.6 -404.9 5.35 -404.15 4.6 -403.75 3.9 -403.5 3.5 -403.15 3.1 -402.75 2.75 Q-401.85 1.3 -401.3 -0.25 L-400.5 -2.15 -400.5 -2.9 -400.5 -3.65 -400.5 -4.0 -400.4 -4.4 -400.25 -4.75 -400.0 -5.15 -400.0 -7.75 -400.0 -9.65 -400.25 -10.4 -400.5 -11.15 -400.5 -15.25 -400.5 -18.65 -400.75 -19.4 -401.0 -20.15 -401.0 -20.5 -401.0 -20.9 -401.25 -21.25 -401.4 -21.65 -401.5 -22.0 -401.5 -22.4 -401.5 -22.75 -402.95 -25.9 Q-403.45 -26.95 -404.4 -26.9 L-404.55 -25.75 -404.5 -24.65 -404.65 -24.25 -404.85 -23.85 -405.0 -23.5 -405.0 -22.4 -405.0 -21.25 -405.15 -20.9 -405.3 -20.5 -405.5 -20.15" fill="#000000" fill-rule="evenodd" stroke="none"/>
    <path d="M-405.5 -20.15 L-405.3 -20.5 -405.15 -20.9 -405.0 -21.25 -405.0 -22.4 -405.0 -23.5 -404.85 -23.85 -404.65 -24.25 -404.5 -24.65 -404.55 -25.75 -404.4 -26.9 Q-403.45 -26.95 -402.95 -25.9 L-401.5 -22.75 -401.5 -22.4 -401.5 -22.0 -401.4 -21.65 -401.25 -21.25 -401.0 -20.9 -401.0 -20.5 -401.0 -20.15 -400.75 -19.4 -400.5 -18.65 -400.5 -15.25 -400.5 -11.15 -400.25 -10.4 -400.0 -9.65 -400.0 -7.75 -400.0 -5.15 -400.25 -4.75 -400.4 -4.4 -400.5 -4.0 -400.5 -3.65 -400.5 -2.9 -400.5 -2.15 -401.3 -0.25 Q-401.85 1.3 -402.75 2.75 L-403.15 3.1 -403.5 3.5 -403.75 3.9 -404.15 4.6 -404.9 5.35 -407.15 7.6 -407.85 8.7 Q-408.65 9.7 -409.0 11.0 L-409.4 11.35 -409.75 11.75 -410.3 13.25 -411.0 15.1 -411.0 17.0 -411.0 18.85 -410.35 20.75 -409.15 23.35 -408.75 23.75 -406.9 25.6 Q-404.3 27.05 -401.4 27.6 L-401.1 27.85 -400.65 28.25 -399.5 28.5 Q-398.4 29.3 -397.0 29.5 L-368.75 33.6 -368.35 33.85 Q-366.15 34.9 -364.65 36.85 L-363.6 38.65 -362.5 41.35 -362.5 43.25 -362.5 45.85 -363.7 48.1 -366.25 52.25 -366.65 52.6 -367.4 53.35 -368.1 53.8 -369.4 54.85 Q-375.3 56.7 -381.5 55.25 -385.1 53.15 -389.0 51.75 -399.7 47.85 -409.65 42.85 -409.9 42.0 -410.65 41.4 -412.2 40.1 -413.15 38.35 L-413.5 38.0 -413.9 37.6 Q-414.6 35.85 -415.55 34.2 -417.05 31.5 -418.0 28.6 L-418.0 28.25 -418.0 27.85 -418.25 27.1 -418.5 26.35 -418.5 24.1 -418.5 21.1 -418.25 20.35 -418.0 19.6 -418.0 18.5 -418.0 17.0 -417.85 16.65 -417.65 16.25 -417.5 15.85 -417.5 15.1 -417.5 14.35 Q-416.25 10.55 -414.1 7.05 -410.2 0.8 -408.0 -6.25 L-408.0 -6.65 -408.0 -7.0 -407.6 -8.15 -407.0 -9.65 -407.0 -10.0 -407.0 -10.4 -406.75 -11.15 -406.5 -11.9 -406.5 -12.25 -406.5 -12.65 -406.3 -13.0 -406.15 -13.4 -406.0 -13.75 -406.0 -15.65 -406.0 -17.5 -405.85 -17.85 -405.65 -18.25 -405.5 -18.65 -405.5 -19.4 -405.5 -20.15" fill="#80a839" fill-rule="evenodd" stroke="none"/>
  </g>
</svg>
