<?xml version="1.0" encoding="UTF-8" standalone="no"?>
<svg xmlns:ffdec="https://www.free-decompiler.com/flash" xmlns:xlink="http://www.w3.org/1999/xlink" ffdec:objectType="shape" height="308.3px" width="305.8px" xmlns="http://www.w3.org/2000/svg">
  <g transform="matrix(1.0, 0.0, 0.0, 1.0, 152.4, 154.4)">
    <path d="M130.9 -154.15 L131.4 -153.8 131.8 -153.4 132.05 -153.05 132.3 -152.65 132.4 -152.3 132.4 -151.9 132.3 -151.55 132.15 -151.15 131.9 -150.8 131.4 -150.4 130.55 -150.15 130.05 -150.15 129.15 -150.4 115.4 -150.4 114.55 -150.15 99.9 -150.15 99.8 -149.9 99.55 -149.55 99.3 -149.15 98.9 -148.9 98.65 -148.8 98.05 -148.65 82.05 -148.65 81.15 -148.9 68.05 -149.15 67.15 -149.4 63.05 -149.65 62.15 -149.9 50.4 -149.9 49.5 -149.65 48.5 -149.4 48.0 -149.05 47.25 -148.65 46.9 -148.4 46.65 -148.3 46.0 -148.15 45.5 -148.15 44.65 -148.4 44.15 -148.8 43.75 -149.15 43.65 -149.55 43.65 -149.9 43.65 -150.3 43.75 -150.65 43.9 -151.05 44.25 -151.4 44.65 -151.8 45.15 -152.15 45.9 -152.55 46.25 -152.9 46.65 -153.15 46.9 -153.3 47.5 -153.4 49.15 -153.65 50.0 -153.8 50.0 -153.9 63.05 -153.9 63.9 -153.65 68.05 -153.4 68.9 -153.15 82.05 -152.9 82.9 -152.65 97.7 -152.4 97.8 -152.65 97.9 -153.05 98.3 -153.4 98.65 -153.65 98.9 -153.8 99.55 -153.9 114.15 -154.15 115.05 -154.3 115.05 -154.4 130.05 -154.4 130.9 -154.15 M102.15 -127.55 L116.55 -127.4 117.4 -127.15 123.05 -126.9 123.9 -126.65 128.55 -126.4 129.4 -126.15 129.9 -125.8 130.15 -125.4 130.3 -125.05 130.4 -124.65 130.4 -124.3 130.3 -123.9 130.05 -123.55 129.8 -123.15 129.4 -122.9 129.15 -122.8 128.55 -122.65 128.4 -122.65 128.4 -122.4 128.4 -122.05 128.4 -121.65 128.4 -121.3 128.4 -120.9 128.4 -120.55 128.4 -120.15 128.4 -119.8 128.4 -119.4 128.4 -119.05 128.4 -118.65 128.4 -118.3 128.4 -117.9 128.4 -117.55 128.4 -117.15 128.4 -116.8 128.4 -116.4 128.4 -116.05 128.4 -115.65 128.4 -115.3 128.4 -114.9 128.4 -114.55 128.4 -114.15 128.4 -113.8 128.4 -113.4 128.4 -113.05 128.4 -112.65 128.4 -112.3 128.4 -111.9 128.4 -111.55 128.4 -111.15 128.4 -110.8 128.4 -110.4 128.4 -110.05 128.4 -109.65 128.4 -109.3 128.4 -108.9 128.4 -108.55 128.4 -108.15 128.4 -107.8 128.4 -107.4 128.4 -107.05 128.4 -106.65 128.4 -106.3 128.4 -105.9 128.4 -105.55 128.4 -105.15 128.4 -104.8 128.4 -104.4 128.4 -104.05 128.4 -103.65 128.4 -103.3 128.4 -102.9 128.4 -102.55 128.4 -102.15 128.4 -101.8 128.4 -101.4 128.4 -101.05 128.4 -100.65 128.4 -100.3 128.4 -99.9 128.4 -99.55 128.4 -99.15 128.4 -98.8 128.4 -98.4 128.4 -98.05 128.4 -97.65 128.4 -97.3 128.4 -96.9 128.4 -96.55 128.4 -96.15 128.4 -95.8 128.4 -95.4 128.4 -95.05 128.4 -94.65 128.4 -94.3 128.4 -93.9 128.4 -93.55 128.4 -93.15 128.4 -92.8 128.4 -92.4 128.4 -92.05 128.4 -91.65 128.4 -91.3 128.4 -90.9 128.4 -90.55 128.4 -90.15 128.4 -89.8 128.4 -89.4 128.4 -89.05 128.4 -88.65 128.4 -88.3 128.4 -87.9 128.4 -87.55 128.4 -87.15 128.4 -86.8 128.4 -86.4 128.4 -86.05 128.4 -85.65 128.4 -85.3 128.4 -84.9 128.4 -84.55 128.4 -84.15 128.4 -83.8 128.4 -83.4 128.4 -83.05 128.4 -82.65 128.4 -82.3 128.4 -81.9 128.4 -81.55 128.4 -81.15 128.4 -80.8 128.4 -80.4 128.4 -80.05 128.4 -79.65 128.4 -79.3 128.4 -78.9 128.4 -78.55 128.4 -78.15 128.4 -77.8 128.4 -77.4 128.4 -77.05 128.4 -76.65 128.4 -76.25 128.4 -75.9 128.4 -75.5 128.4 -75.15 128.4 -74.75 128.4 -74.4 128.4 -74.0 128.4 -73.65 128.4 -73.25 128.4 -72.9 128.4 -72.5 128.4 -72.15 128.4 -71.75 128.4 -71.4 128.4 -71.0 128.4 -70.65 128.4 -70.25 128.4 -69.9 128.4 -69.5 128.4 -69.15 128.4 -68.75 128.4 -68.4 129.05 -68.0 129.55 -67.65 129.65 -67.25 129.8 -66.9 129.9 -66.5 129.8 -66.15 129.65 -65.75 129.55 -65.4 129.05 -65.0 128.9 -64.9 128.9 -64.75 128.8 -64.4 128.55 -64.0 128.4 -63.65 128.4 -63.25 128.4 -62.9 128.4 -62.5 128.4 -62.15 128.4 -61.75 128.4 -61.4 128.4 -61.0 128.4 -60.65 128.4 -60.25 128.4 -59.9 128.4 -59.5 128.4 -59.15 128.4 -58.75 128.4 -58.4 128.4 -58.0 128.4 -57.65 128.4 -57.25 128.4 -56.9 128.4 -56.5 128.4 -56.15 128.4 -55.75 128.4 -55.4 128.4 -55.0 128.4 -54.65 128.4 -54.25 128.4 -53.9 128.4 -53.5 128.4 -53.15 128.4 -52.75 128.4 -52.4 128.4 -52.0 128.4 -51.65 128.4 -51.25 128.4 -50.9 128.4 -50.5 128.4 -50.15 128.4 -49.75 128.4 -49.4 128.4 -49.0 128.4 -48.65 128.4 -48.25 128.4 -47.9 128.4 -47.5 128.4 -47.15 128.4 -46.75 128.4 -46.4 128.4 -46.0 128.55 -45.65 128.65 -45.25 128.8 -44.9 128.9 -44.5 128.9 -44.15 128.9 -43.75 128.9 -43.4 128.9 -43.0 128.9 -42.65 128.9 -42.25 128.9 -41.9 128.9 -41.5 128.9 -41.15 128.9 -40.75 128.9 -40.4 128.9 -40.0 128.9 -39.65 128.9 -39.25 128.9 -38.9 128.9 -38.5 128.9 -38.15 128.9 -37.75 128.9 -37.4 128.9 -37.0 128.9 -36.65 128.9 -36.25 128.9 -35.9 128.9 -35.5 128.9 -35.15 128.9 -34.75 128.9 -34.4 128.9 -34.0 128.9 -33.65 128.9 -33.25 128.9 -32.9 128.9 -32.5 128.9 -32.15 128.9 -31.75 128.9 -31.4 128.9 -31.0 128.9 -30.65 128.9 -30.25 128.9 -29.9 128.9 -29.5 128.9 -29.15 128.9 -28.75 128.9 -28.4 128.9 -28.0 128.9 -27.65 128.9 -27.25 128.9 -26.9 128.9 -26.5 128.9 -26.15 128.9 -25.75 128.9 -25.4 128.9 -25.0 128.9 -24.65 128.9 -24.25 129.15 -23.9 129.3 -23.5 129.4 -23.15 129.4 -22.75 129.4 -22.4 129.4 -22.0 129.55 -21.65 129.65 -21.25 129.8 -20.9 130.15 -20.5 130.55 -20.15 130.9 -19.75 131.15 -19.4 131.3 -19.0 131.4 -18.65 131.4 -18.25 131.3 -17.9 131.05 -17.5 130.8 -17.15 130.4 -16.9 130.15 -16.75 129.55 -16.65 129.05 -16.65 128.4 -16.8 128.4 -16.65 128.4 -16.25 128.4 -15.9 128.4 -15.5 128.4 -15.15 128.4 -14.75 128.4 -14.4 128.4 -14.0 128.4 -13.65 128.4 -13.25 128.4 -12.9 128.4 -12.5 128.4 -12.15 128.4 -11.75 128.4 -11.4 128.4 -11.0 128.4 -10.65 128.4 -10.25 128.4 -9.9 128.4 -9.5 128.4 -9.15 128.4 -8.75 128.4 -8.4 128.4 -8.0 128.4 -7.65 128.4 -7.25 128.4 -6.9 128.4 -6.5 128.4 -6.15 128.4 -5.75 128.4 -5.4 128.4 -5.0 128.4 -4.65 128.4 -4.25 128.4 -3.9 128.4 -3.5 128.4 -3.15 128.4 -2.75 128.4 -2.4 128.4 -2.0 128.4 -1.65 128.4 -1.25 128.4 -0.9 128.4 -0.5 128.4 -0.15 128.4 0.25 128.3 0.6 128.05 1.0 127.9 1.35 127.9 1.75 127.9 2.1 127.9 2.5 127.9 2.85 127.9 3.25 127.9 3.6 127.9 4.0 127.9 4.35 127.9 4.75 127.9 5.1 127.9 5.5 127.9 5.85 127.9 6.25 127.9 6.6 127.9 7.0 127.9 7.35 127.9 7.75 127.9 8.1 127.9 8.5 127.9 8.85 127.9 9.25 127.9 9.6 127.9 10.0 127.9 10.35 127.9 10.75 127.9 11.1 127.9 11.5 127.9 11.85 127.9 12.25 127.9 12.6 127.9 13.0 127.9 13.35 127.9 13.75 127.9 14.1 127.9 14.5 127.9 14.85 127.9 15.25 127.9 15.6 127.9 16.0 127.9 16.35 127.9 16.75 127.9 17.1 127.9 17.5 127.9 17.85 127.9 18.25 127.9 18.6 127.9 19.0 127.9 19.35 127.9 19.75 127.9 20.1 127.9 20.5 127.9 20.85 127.9 21.25 127.9 21.6 127.9 22.0 128.05 22.35 128.15 22.75 128.3 23.1 128.4 23.5 128.4 23.85 128.4 24.25 128.4 24.6 128.4 25.0 128.4 25.35 129.05 25.75 129.8 26.15 130.05 26.5 130.3 26.9 130.4 27.25 130.4 27.65 130.3 28.0 130.15 28.4 129.9 28.75 129.4 29.15 128.55 29.4 127.9 29.4 127.9 29.65 127.9 30.0 127.9 30.4 127.9 30.75 127.9 31.15 127.9 31.5 127.9 31.9 127.9 32.25 127.9 32.65 127.9 33.0 127.9 33.4 127.9 33.75 127.9 34.15 127.9 34.5 127.9 34.9 127.9 35.25 127.9 35.65 127.9 36.0 127.9 36.4 127.9 36.75 127.9 37.15 127.9 37.5 127.9 37.9 127.9 38.25 127.9 38.65 127.9 39.0 127.9 39.4 127.9 39.75 127.9 40.15 127.9 40.5 127.9 40.9 127.9 41.25 127.9 41.65 127.9 42.0 127.9 42.4 127.9 42.75 127.9 43.15 127.9 43.5 127.9 43.9 127.9 44.25 127.9 44.65 127.9 45.0 127.9 45.4 127.9 45.75 127.9 46.15 127.9 46.5 127.9 46.9 127.9 47.25 127.9 47.65 127.9 48.0 127.9 48.4 127.9 48.75 127.9 49.15 127.9 49.5 127.9 49.9 127.9 50.25 127.9 50.65 127.9 51.0 127.9 51.4 127.9 51.75 127.9 52.15 127.9 52.5 127.9 52.9 127.9 53.25 127.9 53.65 127.9 54.0 127.9 54.4 127.9 54.75 127.9 55.15 127.9 55.5 127.9 55.9 127.9 56.25 127.9 56.65 128.05 57.0 128.3 57.4 128.4 57.75 128.4 58.15 128.4 58.5 128.4 58.9 128.4 59.25 128.4 59.65 128.4 60.0 128.4 60.4 128.4 60.75 128.4 61.15 128.4 61.5 128.4 61.9 128.4 62.25 128.4 62.65 128.4 63.0 128.4 63.4 128.4 63.75 128.4 64.15 128.55 64.5 128.8 64.9 128.9 65.25 128.9 65.65 129.05 66.0 129.3 66.4 129.4 66.75 129.4 67.15 129.4 67.5 129.4 67.9 129.4 68.25 129.8 68.65 130.05 69.0 130.3 69.4 130.4 69.75 130.4 70.15 130.65 70.5 131.05 70.9 131.15 71.25 131.3 71.65 131.4 72.0 131.4 72.4 131.4 72.75 131.4 73.15 131.4 73.5 131.3 73.9 131.15 74.25 131.05 74.65 130.55 75.0 130.15 75.25 129.55 75.4 128.9 75.2 128.9 75.4 128.9 75.75 128.9 76.15 128.9 76.5 128.9 76.9 128.9 77.25 128.9 77.65 128.9 78.0 128.9 78.4 128.9 78.75 128.9 79.15 128.9 79.5 128.9 79.9 128.9 80.25 128.9 80.65 128.9 81.0 128.9 81.4 128.9 81.75 128.9 82.15 128.9 82.5 128.9 82.9 128.9 83.25 128.9 83.65 128.9 84.0 128.9 84.4 128.9 84.75 128.9 85.15 128.9 85.5 128.9 85.9 128.9 86.25 129.15 86.65 129.3 87.0 129.4 87.4 129.4 87.75 129.4 88.15 129.4 88.5 129.4 88.9 129.4 89.25 129.4 89.65 129.4 90.0 129.4 90.4 129.4 90.75 129.4 91.15 129.4 91.5 129.4 91.9 129.4 92.25 129.4 92.65 129.4 93.0 129.4 93.4 129.4 93.75 129.4 94.15 129.4 94.5 129.4 94.9 129.4 95.25 129.4 95.65 129.4 96.0 129.4 96.4 129.4 96.75 129.4 97.15 129.4 97.5 129.4 97.9 129.4 98.25 129.4 98.65 129.4 99.0 129.4 99.4 129.4 99.75 129.4 100.15 129.4 100.5 129.4 100.9 129.4 101.25 129.4 101.65 129.4 102.0 129.4 102.4 129.4 102.75 129.4 103.15 129.4 103.5 129.4 103.9 129.4 104.25 129.4 104.65 129.4 105.0 129.4 105.4 129.4 105.75 129.4 106.15 129.4 106.5 129.4 106.9 129.4 107.25 129.4 107.65 129.4 108.0 129.4 108.4 129.4 108.75 129.4 109.15 129.4 109.5 129.4 109.9 129.4 110.25 129.4 110.65 129.4 111.0 129.4 111.4 129.4 111.75 129.4 112.15 129.4 112.5 129.4 112.9 129.4 113.25 129.4 113.65 129.4 114.0 129.4 114.4 129.4 114.75 129.4 115.15 129.4 115.5 129.4 115.9 129.4 116.25 129.4 116.65 129.4 117.0 129.4 117.4 129.4 117.75 129.4 118.15 129.4 118.5 129.4 118.9 129.4 119.25 129.4 119.65 129.55 120.0 129.8 120.4 129.9 120.75 129.9 121.15 129.9 121.5 129.9 121.9 129.9 122.25 129.9 122.65 129.9 123.0 129.9 123.4 129.9 123.75 129.9 124.15 129.9 124.5 129.9 124.9 129.9 125.25 129.9 125.65 129.8 126.0 129.65 126.4 129.4 126.75 128.9 127.15 128.05 127.4 127.4 127.2 127.3 127.4 126.9 127.65 126.65 127.75 126.05 127.9 121.9 128.15 121.05 128.4 101.9 128.65 101.05 128.9 89.4 129.15 88.55 129.4 87.4 129.65 86.55 129.9 83.55 129.9 83.05 129.9 82.15 129.65 81.65 129.3 81.4 129.05 27.0 128.9 26.9 128.9 26.9 129.05 26.75 129.4 26.65 129.8 26.5 130.15 26.0 130.55 25.65 130.8 25.0 130.9 24.15 130.65 23.65 130.3 23.25 129.9 23.15 129.55 23.15 129.15 23.15 128.8 23.15 128.55 -9.6 128.65 -10.5 128.9 -23.0 128.9 -23.85 128.65 -32.0 128.4 -32.85 128.15 -33.3 127.8 -33.25 127.9 -33.1 128.25 -33.1 128.65 -33.1 129.05 -33.25 129.4 -33.35 129.8 -33.5 130.15 -34.0 130.55 -34.35 130.8 -35.0 130.9 -35.85 130.65 -36.35 130.3 -36.75 129.9 -37.1 129.55 -37.25 129.15 -37.35 128.8 -37.35 128.55 -42.1 128.65 -43.0 128.9 -44.65 129.15 -45.5 129.4 -61.5 129.4 -62.4 129.15 -66.5 128.9 -67.4 128.65 -81.15 128.65 -82.0 128.9 -82.15 128.85 -82.25 129.15 -82.5 129.55 -82.75 129.9 -83.15 130.15 -83.4 130.3 -84.0 130.4 -86.0 130.4 -86.9 130.15 -89.0 129.9 -89.9 129.65 -92.5 129.4 -93.4 129.15 -94.0 128.9 -94.9 128.65 -100.0 128.4 -100.9 128.15 -120.65 128.15 -121.5 128.4 -125.5 128.4 -126.4 128.15 -126.9 127.75 -127.25 127.4 -127.4 127.0 -127.4 126.65 -127.4 126.25 -127.35 126.2 -128.0 126.4 -128.9 126.15 -129.4 125.75 -129.75 125.4 -129.9 125.0 -129.9 124.65 -129.9 124.25 -129.9 123.9 -129.9 123.5 -129.9 123.15 -129.9 122.75 -129.9 122.4 -129.9 122.0 -129.9 121.65 -129.9 121.25 -129.75 120.9 -129.65 120.5 -129.4 120.15 -129.4 119.75 -129.4 119.4 -129.4 119.0 -129.4 118.65 -129.4 118.25 -129.4 117.9 -129.4 117.5 -129.4 117.15 -129.4 116.75 -129.4 116.4 -129.4 116.0 -129.4 115.65 -129.4 115.25 -129.4 114.9 -129.4 114.5 -129.4 114.15 -129.4 113.75 -129.4 113.4 -129.4 113.0 -129.4 112.65 -129.4 112.25 -129.4 111.9 -129.4 111.5 -129.4 111.15 -129.4 110.75 -129.4 110.4 -129.4 110.0 -129.4 109.65 -129.4 109.25 -129.4 108.9 -129.4 108.5 -129.4 108.15 -129.4 107.75 -129.4 107.4 -129.4 107.0 -129.4 106.65 -129.4 106.25 -129.4 105.9 -129.4 105.5 -129.4 105.15 -129.4 104.75 -129.4 104.4 -129.4 104.0 -129.4 103.65 -129.4 103.25 -129.4 102.9 -129.4 102.5 -129.25 102.15 -129.0 101.75 -128.9 101.4 -128.9 101.0 -128.9 100.65 -128.9 100.25 -128.9 99.9 -128.9 99.5 -128.9 99.15 -128.9 98.75 -128.9 98.4 -128.9 98.0 -128.9 97.65 -128.9 97.25 -128.9 96.9 -128.9 96.5 -128.9 96.15 -128.9 95.75 -128.9 95.4 -128.9 95.0 -128.9 94.65 -128.9 94.25 -128.9 93.9 -128.9 93.5 -128.9 93.15 -128.9 92.75 -128.9 92.4 -128.9 92.0 -128.9 91.65 -128.9 91.25 -128.9 90.9 -128.9 90.5 -128.9 90.15 -128.9 89.75 -128.9 89.4 -128.9 89.0 -128.9 88.65 -128.9 88.25 -128.9 87.9 -128.9 87.5 -128.9 87.15 -128.9 86.75 -128.75 86.4 -128.65 86.0 -128.4 85.65 -128.4 85.25 -128.4 84.9 -128.4 84.5 -128.4 84.15 -128.4 83.75 -128.4 83.4 -128.4 83.0 -128.25 82.65 -128.0 82.25 -127.9 81.9 -127.9 81.5 -127.9 81.15 -127.9 80.75 -127.9 80.4 -127.9 80.0 -127.9 79.65 -127.9 79.25 -127.9 78.9 -127.9 78.5 -127.9 78.15 -127.9 77.75 -127.9 77.4 -127.9 77.0 -127.75 76.65 -127.5 76.25 -127.4 75.9 -127.4 75.8 -127.9 75.65 -128.4 75.25 -128.75 74.9 -128.9 74.5 -128.9 74.15 -128.9 73.75 -128.9 73.4 -128.9 73.0 -128.9 72.65 -128.9 72.25 -128.75 71.9 -128.65 71.5 -128.25 71.15 -127.9 70.75 -127.9 70.4 -127.9 70.0 -127.9 69.65 -127.9 69.25 -127.9 68.9 -127.9 68.5 -127.9 68.15 -127.9 67.75 -127.9 67.4 -127.9 67.0 -127.9 66.65 -127.9 66.25 -127.9 65.9 -127.9 65.5 -127.9 65.15 -127.9 64.75 -127.9 64.4 -127.9 64.0 -127.9 63.65 -127.9 63.25 -127.9 62.9 -127.9 62.5 -127.9 62.15 -127.9 61.75 -127.9 61.4 -127.9 61.0 -127.9 60.65 -127.9 60.25 -127.9 59.9 -127.9 59.5 -127.9 59.15 -127.9 58.75 -127.9 58.4 -127.9 58.0 -127.9 57.65 -127.9 57.25 -127.9 56.9 -127.9 56.5 -127.9 56.15 -127.9 55.75 -127.9 55.4 -127.9 55.0 -127.9 54.65 -127.9 54.25 -127.9 53.9 -127.9 53.5 -127.9 53.15 -127.9 52.75 -127.9 52.4 -127.9 52.0 -127.9 51.65 -127.9 51.25 -127.9 50.9 -127.9 50.5 -127.9 50.15 -127.9 49.75 -127.9 49.4 -127.9 49.0 -127.9 48.65 -127.9 48.25 -127.9 47.9 -127.9 47.5 -127.9 47.15 -127.9 46.75 -127.9 46.4 -127.9 46.0 -127.9 45.65 -127.9 45.25 -127.9 44.9 -127.9 44.5 -127.9 44.15 -127.9 43.75 -127.9 43.4 -127.9 43.0 -127.9 42.65 -127.9 42.25 -127.9 41.9 -127.9 41.5 -127.9 41.15 -127.9 40.75 -127.9 40.4 -127.9 40.0 -127.9 39.65 -127.9 39.25 -127.9 38.9 -127.9 38.5 -127.9 38.15 -127.9 37.75 -127.9 37.4 -127.9 37.0 -127.9 36.65 -127.9 36.25 -127.9 35.9 -127.9 35.5 -127.9 35.15 -127.9 34.75 -127.9 34.4 -127.9 34.0 -127.9 33.65 -127.9 33.25 -127.9 32.9 -127.9 32.5 -127.9 32.15 -127.9 31.75 -127.9 31.4 -127.9 31.0 -127.9 30.65 -127.9 30.25 -127.9 29.9 -127.9 29.5 -127.9 29.15 -127.9 28.75 -127.9 28.4 -127.9 28.0 -127.9 27.65 -127.9 27.25 -127.9 27.15 -128.4 26.75 -128.75 26.4 -128.9 26.0 -128.9 25.6 -128.9 25.25 -128.75 24.85 -128.65 24.5 -128.25 24.1 -127.65 23.75 -127.4 23.35 -127.4 23.0 -127.4 22.6 -127.4 22.25 -127.4 21.85 -127.4 21.5 -127.4 21.1 -127.4 20.75 -127.4 20.35 -127.4 20.0 -127.4 19.6 -127.4 19.25 -127.4 18.85 -127.4 18.5 -127.4 18.1 -127.4 17.75 -127.4 17.35 -127.4 17.0 -127.4 16.6 -127.4 16.25 -127.4 15.85 -127.65 15.5 -127.75 15.1 -127.9 14.75 -127.9 14.35 -127.9 14.0 -127.9 13.6 -127.9 13.25 -127.9 12.85 -127.9 12.5 -127.9 12.1 -127.9 11.75 -127.9 11.35 -127.9 11.0 -127.9 10.6 -127.9 10.25 -127.9 9.85 -127.9 9.5 -127.9 9.1 -127.9 8.75 -127.9 8.35 -127.9 8.0 -127.9 7.6 -127.9 7.25 -127.9 6.85 -127.9 6.5 -127.9 6.1 -127.9 5.75 -127.9 5.35 -127.9 5.0 -127.9 4.6 -127.9 4.25 -127.9 3.85 -127.9 3.5 -127.9 3.1 -127.9 2.75 -127.9 2.35 -127.9 2.0 -127.9 1.6 -127.9 1.25 -127.9 0.85 -127.9 0.5 -127.9 0.1 -127.9 -0.25 -127.9 -0.65 -127.9 -1.0 -127.9 -1.4 -127.9 -1.75 -127.9 -2.15 -127.9 -2.5 -127.9 -2.9 -127.9 -3.25 -127.9 -3.65 -127.9 -4.0 -127.9 -4.4 -127.9 -4.75 -127.9 -5.15 -127.9 -5.5 -127.9 -5.9 -127.9 -6.25 -127.9 -6.65 -127.9 -7.0 -127.9 -7.4 -127.9 -7.75 -127.9 -8.15 -127.9 -8.5 -127.9 -8.9 -127.9 -9.25 -127.9 -9.65 -127.9 -10.0 -127.9 -10.4 -127.9 -10.75 -127.9 -11.15 -127.9 -11.5 -127.9 -11.9 -127.9 -12.25 -127.9 -12.65 -127.9 -13.0 -127.9 -13.4 -127.9 -13.75 -127.9 -14.15 -127.9 -14.5 -127.9 -14.9 -127.9 -15.25 -127.9 -15.65 -127.9 -16.0 -127.9 -16.4 -127.9 -16.75 -127.9 -17.15 -127.9 -17.5 -127.9 -17.9 -127.9 -18.25 -127.9 -18.65 -127.9 -19.0 -127.9 -19.4 -127.9 -19.75 -127.9 -20.15 -127.9 -20.5 -127.9 -20.9 -127.9 -21.25 -127.9 -21.65 -127.9 -21.9 -128.4 -22.25 -128.75 -22.65 -128.9 -23.0 -128.9 -23.4 -128.9 -23.75 -128.75 -24.15 -128.65 -24.5 -128.25 -24.9 -128.0 -25.25 -127.9 -25.65 -127.9 -26.0 -127.9 -26.4 -127.9 -26.75 -127.9 -27.15 -127.9 -27.5 -127.9 -27.9 -127.9 -28.25 -127.9 -28.65 -127.9 -29.0 -127.9 -29.4 -127.9 -29.75 -127.9 -30.15 -127.9 -30.5 -127.9 -30.9 -127.9 -31.25 -127.9 -31.65 -127.9 -32.0 -127.9 -32.4 -127.9 -32.75 -127.9 -33.15 -127.9 -33.5 -127.9 -33.9 -127.9 -34.25 -127.9 -34.65 -127.9 -35.0 -127.9 -35.4 -127.9 -35.75 -127.9 -36.15 -127.9 -36.5 -127.9 -36.9 -127.9 -37.25 -127.9 -37.65 -127.9 -38.0 -127.9 -38.4 -127.9 -38.75 -127.9 -39.15 -127.9 -39.5 -127.9 -39.9 -127.9 -40.25 -127.9 -40.65 -127.9 -41.0 -127.9 -41.4 -127.9 -41.75 -127.9 -42.15 -127.9 -42.5 -127.9 -42.9 -127.9 -43.25 -127.9 -43.65 -127.9 -44.0 -127.9 -44.4 -127.9 -44.75 -127.9 -45.15 -127.9 -45.5 -127.9 -45.9 -127.9 -46.25 -127.9 -46.65 -127.9 -47.0 -127.9 -47.4 -127.9 -47.75 -127.9 -48.15 -127.9 -48.5 -127.9 -48.9 -127.9 -49.25 -127.9 -49.65 -127.9 -50.0 -127.9 -50.4 -127.9 -50.75 -127.9 -51.15 -127.9 -51.5 -127.9 -51.9 -127.9 -52.25 -127.9 -52.65 -127.9 -53.0 -127.9 -53.4 -127.9 -53.75 -127.9 -54.15 -127.9 -54.5 -127.9 -54.9 -127.9 -55.25 -127.9 -55.65 -127.9 -56.0 -127.9 -56.4 -127.9 -56.75 -127.9 -57.15 -127.9 -57.5 -127.9 -57.9 -127.9 -58.25 -127.9 -58.65 -128.15 -59.0 -128.25 -59.4 -128.4 -59.75 -128.4 -60.15 -128.4 -60.5 -128.5 -60.9 -128.75 -61.25 -128.9 -61.65 -128.9 -62.0 -128.9 -62.4 -128.9 -62.75 -128.9 -63.15 -128.9 -63.5 -128.9 -63.9 -128.9 -64.25 -128.9 -64.65 -128.9 -65.0 -128.9 -65.4 -128.9 -65.75 -128.9 -66.15 -128.9 -66.5 -128.9 -66.9 -128.9 -67.25 -128.9 -67.65 -128.9 -68.0 -128.9 -68.4 -128.9 -68.75 -128.9 -69.15 -128.9 -69.5 -128.9 -69.75 -129.25 -70.15 -129.4 -70.5 -129.4 -70.9 -129.4 -71.25 -129.4 -71.65 -129.4 -72.0 -129.25 -72.4 -128.9 -72.75 -128.9 -73.0 -128.9 -73.4 -128.9 -73.75 -128.9 -74.15 -128.9 -74.5 -128.9 -74.9 -128.9 -75.25 -128.9 -75.65 -128.9 -76.0 -128.75 -76.4 -128.5 -76.8 -128.4 -77.15 -128.4 -77.55 -128.4 -77.9 -128.4 -78.3 -128.4 -78.65 -128.4 -79.05 -128.4 -79.4 -128.4 -79.8 -128.4 -80.15 -128.4 -80.55 -128.4 -80.9 -128.4 -81.3 -128.4 -81.65 -128.4 -82.05 -128.4 -82.4 -128.25 -82.8 -128.0 -83.15 -127.9 -83.55 -127.9 -83.9 -127.9 -84.3 -127.9 -84.65 -127.9 -85.05 -127.9 -85.4 -127.9 -85.8 -127.9 -86.15 -127.9 -86.55 -127.9 -86.9 -127.9 -87.3 -127.9 -87.65 -127.9 -88.05 -127.9 -88.4 -127.9 -88.8 -127.9 -89.15 -127.9 -89.55 -127.9 -89.9 -127.9 -90.3 -127.9 -90.65 -127.9 -91.05 -127.9 -91.4 -127.9 -91.8 -127.9 -92.15 -127.9 -92.55 -127.9 -92.9 -127.9 -93.3 -127.9 -93.65 -127.9 -94.05 -127.9 -94.4 -127.9 -94.8 -127.9 -95.15 -127.9 -95.55 -127.9 -95.9 -127.9 -96.3 -127.9 -96.65 -127.9 -97.05 -127.9 -97.4 -127.9 -97.8 -127.9 -98.15 -127.9 -98.55 -127.9 -98.9 -127.9 -99.3 -127.9 -99.65 -127.9 -100.05 -127.9 -100.4 -127.9 -100.8 -127.9 -101.15 -127.9 -101.55 -127.9 -101.9 -127.9 -102.3 -127.9 -102.65 -127.9 -103.05 -127.9 -103.4 -127.9 -103.8 -127.9 -104.15 -127.9 -104.55 -127.9 -104.9 -127.9 -105.3 -127.9 -105.65 -127.9 -106.05 -127.9 -106.4 -127.9 -106.8 -127.9 -107.15 -127.9 -107.55 -127.9 -107.9 -127.9 -108.3 -127.9 -108.65 -127.9 -109.05 -127.9 -109.4 -127.9 -109.8 -127.9 -110.15 -127.9 -110.55 -127.9 -110.9 -127.9 -111.3 -127.9 -111.65 -127.9 -112.05 -127.9 -112.4 -127.9 -112.8 -127.9 -113.15 -127.9 -113.55 -127.9 -113.9 -127.9 -114.3 -127.9 -114.65 -127.9 -115.05 -127.9 -115.4 -127.9 -115.8 -127.9 -116.15 -127.9 -116.55 -127.9 -116.9 -127.9 -117.3 -127.9 -117.65 -127.9 -118.05 -127.9 -118.4 -127.9 -118.8 -127.9 -119.15 -127.9 -119.55 -127.9 -119.9 -127.9 -120.3 -127.9 -120.65 -127.9 -121.05 -127.9 -121.4 -127.9 -121.8 -127.9 -122.05 -127.9 -122.15 -127.9 -122.4 -127.9 -122.55 -127.9 -122.8 -127.9 -122.9 -127.75 -123.3 -127.7 -123.35 -127.65 -123.55 -127.45 -123.7 -127.15 -124.05 -126.65 -124.3 -126.0 -124.3 -126.0 -124.4 -100.5 -124.4 -99.65 -124.15 -94.5 -123.9 -93.65 -123.65 -92.0 -123.65 -91.65 -124.05 -91.15 -124.3 -90.5 -124.4 -89.65 -124.15 -89.15 -123.8 -88.9 -123.4 -88.75 -123.05 -88.7 -122.9 -88.4 -123.15 -88.15 -123.3 -87.5 -123.4 -72.4 -123.65 -71.5 -123.9 -68.9 -124.15 -68.0 -124.4 -55.4 -124.65 -54.5 -124.9 -36.5 -125.15 -36.1 -125.55 -35.75 -125.9 -35.35 -126.3 -35.0 -126.65 -34.6 -127.05 -34.1 -127.3 -33.5 -127.3 -33.5 -127.4 -32.6 -127.15 -32.1 -126.8 -31.85 -126.4 -31.75 -126.05 -31.7 -125.85 -31.6 -125.8 -31.35 -125.55 -28.5 -125.4 -27.6 -125.15 -27.0 -124.9 -26.1 -124.65 -25.6 -124.3 -25.25 -123.9 -24.85 -123.55 -24.1 -123.15 -23.6 -122.8 -23.25 -122.4 -23.0 -122.05 -22.75 -121.65 -22.6 -121.3 -22.25 -120.9 -21.85 -120.55 -21.5 -120.15 -21.35 -119.8 -21.25 -119.55 -21.0 -119.4 -20.1 -119.15 -19.6 -118.8 -19.35 -118.4 -19.0 -118.05 -18.5 -117.65 -18.0 -117.3 -17.25 -116.9 -16.85 -116.55 -16.1 -116.15 -15.5 -115.8 -14.75 -115.4 -14.35 -115.05 -13.6 -114.65 -13.0 -114.3 -12.35 -114.05 -12.0 -113.9 -11.1 -113.65 -10.6 -113.3 -10.35 -113.05 -10.0 -112.9 -9.1 -112.65 -8.0 -112.4 -7.1 -112.15 -6.5 -111.9 -5.6 -111.65 4.15 -111.65 5.0 -111.9 6.65 -112.15 7.5 -112.4 9.15 -112.65 9.9 -113.05 10.4 -113.3 11.0 -113.4 12.15 -113.65 13.25 -114.05 13.9 -114.3 14.75 -114.55 15.25 -114.9 15.9 -115.3 16.65 -115.65 17.75 -116.05 18.25 -116.4 18.9 -116.8 19.65 -117.15 20.4 -117.55 20.75 -117.9 21.15 -118.3 21.65 -118.65 22.4 -119.05 23.15 -119.4 23.65 -119.8 24.15 -120.15 24.9 -120.55 25.25 -120.9 25.65 -121.3 26.0 -121.65 26.4 -122.05 26.75 -122.4 27.4 -122.8 27.75 -123.15 27.9 -123.55 28.25 -123.9 28.65 -124.15 28.9 -124.3 29.2 -124.35 29.25 -124.65 29.4 -125.05 29.75 -125.4 30.15 -125.65 30.4 -125.8 31.0 -125.9 41.65 -126.15 41.65 -126.55 41.75 -126.9 42.15 -127.3 42.65 -127.65 43.5 -127.8 43.5 -127.9 44.4 -127.65 44.9 -127.3 45.15 -126.9 84.05 -126.9 84.9 -126.65 96.55 -126.4 97.4 -126.3 97.8 -126.4 98.15 -126.8 98.15 -126.9 98.3 -127.3 98.55 -127.65 98.9 -128.05 99.4 -128.3 100.05 -128.3 100.05 -128.4 100.9 -128.15 Q101.2 -128.0 101.55 -127.8 L102.15 -127.55 M101.05 -123.4 L100.55 -123.05 99.8 -122.65 99.4 -122.4 99.15 -122.3 98.55 -122.15 97.05 -122.15 96.15 -122.4 84.05 -122.65 83.15 -122.9 44.75 -123.15 44.4 -122.8 43.9 -122.4 43.0 -122.15 31.85 -122.15 31.75 -121.9 31.5 -121.55 31.25 -121.15 31.15 -120.8 31.0 -120.4 30.65 -120.05 30.25 -119.65 29.5 -119.3 29.0 -118.9 28.65 -118.55 28.25 -118.15 27.9 -117.8 27.5 -117.4 27.0 -117.05 26.25 -116.65 25.9 -116.3 25.4 -115.9 24.5 -115.55 23.75 -115.15 23.4 -114.8 22.9 -114.4 22.0 -114.05 21.25 -113.65 20.9 -113.3 20.5 -112.9 20.0 -112.55 19.65 -112.3 18.65 -112.05 17.75 -111.65 17.0 -111.3 16.4 -110.9 15.5 -110.55 15.15 -110.3 14.5 -110.15 13.4 -109.9 12.15 -109.55 11.25 -109.15 10.9 -108.9 10.65 -108.8 10.0 -108.65 8.4 -108.4 7.5 -108.15 5.9 -107.9 5.0 -107.65 -6.5 -107.65 -7.35 -107.9 -8.0 -108.15 -8.85 -108.4 -10.0 -108.65 -10.85 -108.9 -11.6 -109.3 -12.35 -109.65 -13.25 -110.05 -14.35 -110.4 -15.1 -110.8 -15.85 -111.15 -16.6 -111.55 -17.0 -111.9 -17.6 -112.3 -18.35 -112.65 -19.1 -113.05 -19.5 -113.4 -20.1 -113.8 -20.75 -114.15 -21.1 -114.55 -21.85 -114.9 -22.35 -115.3 -22.6 -115.55 -22.6 -115.65 -23.35 -115.9 -23.85 -116.3 -24.25 -116.65 -24.6 -117.05 -24.75 -117.4 -25.0 -117.8 -25.25 -118.15 -25.6 -118.55 -26.0 -118.9 -26.25 -119.3 -26.5 -119.65 -27.1 -120.05 -27.5 -120.4 -27.85 -120.8 -28.1 -121.05 -28.5 -121.15 -29.35 -121.4 -32.0 -121.65 -32.85 -121.9 -33.6 -122.3 -34.0 -121.9 -34.5 -121.55 -34.85 -121.3 -35.5 -121.15 -53.65 -120.9 -54.5 -120.65 -67.65 -120.4 -68.5 -120.15 -71.15 -119.9 -72.0 -119.65 -87.5 -119.65 -88.4 -119.9 -88.9 -120.3 -89.0 -120.4 -89.5 -120.05 -89.9 -119.8 -90.5 -119.65 -94.5 -119.65 -95.4 -119.9 -100.0 -120.15 -100.9 -120.4 -124.15 -120.6 -124.15 -120.4 -124.15 -120.05 -124.15 -119.65 -124.15 -119.3 -124.15 -118.9 -124.15 -118.55 -124.15 -118.15 -124.15 -117.8 -124.15 -117.4 -124.15 -117.05 -124.15 -116.65 -124.15 -116.3 -124.15 -115.9 -124.15 -115.55 -124.15 -115.15 -124.15 -114.8 -124.15 -114.4 -124.15 -114.05 -124.15 -113.65 -124.15 -113.3 -124.15 -112.9 -124.15 -112.55 -124.15 -112.15 -124.15 -111.8 -124.15 -111.4 -124.15 -111.05 -124.15 -110.65 -124.15 -110.3 -124.15 -109.9 -124.15 -109.55 -124.15 -109.15 -124.15 -108.8 -124.15 -108.4 -124.15 -108.05 -124.15 -107.65 -124.15 -107.3 -124.15 -106.9 -124.15 -106.55 -124.15 -106.15 -124.15 -105.8 -124.15 -105.4 -124.15 -105.05 -124.15 -104.65 -124.15 -104.3 -124.15 -103.9 -124.15 -103.55 -124.15 -103.15 -124.15 -102.8 -124.15 -102.4 -124.15 -102.05 -124.15 -101.65 -124.15 -101.3 -124.15 -100.9 -124.15 -100.55 -124.15 -100.15 -124.15 -99.8 -124.15 -99.4 -124.15 -99.05 -124.15 -98.65 -124.15 -98.3 -124.15 -97.9 -124.15 -97.55 -124.15 -97.15 -124.15 -96.8 -124.15 -96.4 -124.15 -96.05 -124.15 -95.65 -124.15 -95.3 -124.15 -94.9 -124.15 -94.55 -124.15 -94.15 -124.15 -93.8 -124.15 -93.4 -124.15 -93.05 -124.15 -92.65 -124.15 -92.3 -124.15 -91.9 -124.15 -91.55 -124.15 -91.15 -124.15 -90.8 -124.15 -90.4 -124.15 -90.05 -124.15 -89.65 -124.15 -89.3 -124.15 -88.9 -124.15 -88.55 -124.15 -88.15 -124.15 -87.8 -124.15 -87.4 -124.15 -87.05 -124.15 -86.65 -124.15 -86.3 -124.15 -85.9 -124.15 -85.55 -124.15 -85.15 -124.15 -84.8 -124.15 -84.4 -124.15 -84.05 -124.15 -83.65 -124.15 -83.3 -124.15 -82.9 -124.15 -82.55 -124.15 -82.15 -124.15 -81.8 -124.25 -81.4 -124.5 -81.05 -124.65 -80.65 -124.65 -80.3 -124.65 -79.9 -124.65 -79.55 -124.65 -79.15 -124.65 -78.8 -124.65 -78.4 -124.65 -78.05 -124.65 -77.65 -124.65 -77.3 -124.65 -76.9 -124.65 -76.5 -124.65 -76.15 -124.65 -75.75 -124.65 -75.4 -124.75 -75.0 -124.9 -74.65 -125.15 -74.25 -125.15 -73.9 -125.15 -73.5 -125.15 -73.25 -124.9 -72.9 -124.75 -72.5 -124.65 -72.15 -124.65 -71.75 -124.75 -71.4 -125.0 -71.0 -125.15 -70.8 -125.15 -70.5 -125.2 -70.3 -125.15 -70.15 -125.15 -69.75 -125.15 -69.4 -125.15 -69.0 -125.15 -68.65 -125.15 -68.25 -125.15 -67.9 -125.15 -67.5 -125.15 -67.15 -125.15 -66.75 -125.15 -66.4 -125.15 -66.0 -125.15 -65.65 -125.15 -65.25 -125.15 -64.9 -125.15 -64.5 -125.15 -64.15 -125.15 -63.75 -125.15 -63.4 -125.0 -63.0 -124.75 -62.65 -124.65 -62.25 -124.65 -61.9 -124.65 -61.5 -124.5 -61.15 -124.4 -60.75 -124.25 -60.4 -124.15 -60.0 -124.15 -59.65 -124.15 -59.25 -124.15 -58.9 -124.15 -58.5 -124.15 -58.15 -124.15 -57.75 -124.15 -57.4 -124.15 -57.0 -124.15 -56.65 -124.15 -56.25 -124.15 -55.9 -124.15 -55.5 -124.15 -55.15 -124.15 -54.75 -124.15 -54.4 -124.15 -54.0 -124.15 -53.65 -124.15 -53.25 -124.15 -52.9 -124.15 -52.5 -124.15 -52.15 -124.15 -51.75 -124.15 -51.4 -124.15 -51.0 -124.15 -50.65 -124.15 -50.25 -124.15 -49.9 -124.15 -49.5 -124.15 -49.15 -124.15 -48.75 -124.15 -48.4 -124.15 -48.0 -124.15 -47.65 -124.15 -47.25 -124.15 -46.9 -124.15 -46.5 -124.15 -46.15 -124.15 -45.75 -124.15 -45.4 -124.15 -45.0 -124.15 -44.65 -124.15 -44.25 -124.15 -43.9 -124.15 -43.5 -124.15 -43.15 -124.15 -42.75 -124.15 -42.4 -124.15 -42.0 -124.15 -41.65 -124.15 -41.25 -124.15 -40.9 -124.15 -40.5 -124.15 -40.15 -124.15 -39.75 -124.15 -39.4 -124.15 -39.0 -124.15 -38.65 -124.15 -38.25 -124.15 -37.9 -124.15 -37.5 -124.15 -37.15 -124.15 -36.75 -124.15 -36.4 -124.15 -36.0 -124.15 -35.65 -124.15 -35.25 -124.15 -34.9 -124.15 -34.5 -124.15 -34.15 -124.15 -33.75 -124.15 -33.4 -124.15 -33.0 -124.15 -32.65 -124.15 -32.25 -124.15 -31.9 -124.15 -31.5 -124.15 -31.15 -124.15 -30.75 -124.15 -30.4 -124.15 -30.0 -124.15 -29.65 -124.15 -29.25 -124.15 -28.9 -124.15 -28.5 -124.15 -28.15 -124.15 -27.75 -124.15 -27.4 -124.15 -27.0 -124.15 -26.65 -124.15 -26.25 -124.15 -25.9 -124.15 -25.5 -124.15 -25.25 -123.9 -24.9 -123.75 -24.5 -123.65 -24.15 -123.65 -23.75 -123.75 -23.4 -124.0 -23.0 -124.15 -22.65 -124.15 -22.25 -124.15 -21.9 -124.15 -21.5 -124.15 -21.15 -124.15 -20.75 -124.15 -20.4 -124.15 -20.0 -124.15 -19.65 -124.15 -19.25 -124.15 -18.9 -124.15 -18.5 -124.15 -18.15 -124.15 -17.75 -124.15 -17.4 -124.15 -17.0 -124.15 -16.65 -124.15 -16.25 -124.15 -15.9 -124.15 -15.5 -124.15 -15.15 -124.15 -14.75 -124.15 -14.4 -124.15 -14.0 -124.15 -13.65 -124.15 -13.25 -124.15 -12.9 -124.15 -12.5 -124.15 -12.15 -124.15 -11.75 -124.15 -11.4 -124.15 -11.0 -124.15 -10.65 -124.15 -10.25 -124.15 -9.9 -124.15 -9.5 -124.15 -9.15 -124.15 -8.75 -124.15 -8.4 -124.15 -8.0 -124.15 -7.65 -124.15 -7.25 -124.15 -6.9 -124.15 -6.5 -124.15 -6.15 -124.15 -5.75 -124.15 -5.4 -124.15 -5.0 -124.15 -4.65 -124.15 -4.25 -124.15 -3.9 -124.15 -3.5 -124.15 -3.15 -124.15 -2.75 -124.15 -2.4 -124.15 -2.0 -124.15 -1.65 -124.15 -1.25 -124.15 -0.9 -124.15 -0.5 -124.15 -0.15 -124.15 0.25 -124.15 0.6 -124.15 1.0 -124.15 1.35 -124.15 1.75 -124.15 2.1 -124.15 2.5 -124.15 2.85 -124.15 3.25 -124.15 3.6 -124.15 4.0 -124.15 4.35 -124.15 4.75 -124.15 5.1 -124.15 5.5 -124.15 5.85 -124.15 6.25 -124.15 6.6 -124.15 7.0 -124.15 7.35 -124.15 7.75 -124.15 8.1 -124.15 8.5 -124.15 8.85 -124.15 9.25 -124.15 9.6 -124.15 10.0 -124.15 10.35 -124.15 10.75 -124.15 11.1 -124.15 11.5 -124.15 11.85 -124.15 12.25 -124.15 12.6 -124.15 13.0 -124.15 13.35 -124.15 13.75 -123.9 14.1 -123.75 14.5 -123.65 14.85 -123.65 15.25 -123.65 15.6 -123.65 16.0 -123.65 16.35 -123.65 16.75 -123.65 17.1 -123.65 17.5 -123.65 17.85 -123.65 18.25 -123.65 18.6 -123.65 19.0 -123.65 19.35 -123.65 19.75 -123.65 20.1 -123.65 20.5 -123.65 20.85 -123.65 21.25 -123.65 21.6 -123.65 22.0 -123.65 22.35 -123.65 22.75 -123.65 23.1 -123.65 23.5 -123.65 23.85 -123.65 24.25 -123.65 24.6 -123.65 25.0 -123.65 25.35 -123.65 25.75 -123.75 26.15 -124.0 26.5 -124.15 26.75 -124.15 27.15 -124.15 27.5 -124.15 27.9 -124.15 28.25 -124.15 28.65 -124.15 29.0 -124.15 29.4 -124.15 29.75 -124.15 30.15 -124.15 30.5 -124.15 30.9 -124.15 31.25 -124.15 31.65 -124.15 32.0 -124.15 32.4 -124.15 32.75 -124.15 33.15 -124.15 33.5 -124.15 33.9 -124.15 34.25 -124.15 34.65 -124.15 35.0 -124.15 35.4 -124.15 35.75 -124.15 36.15 -124.15 36.5 -124.15 36.9 -124.15 37.25 -124.15 37.65 -124.15 38.0 -124.15 38.4 -124.15 38.75 -124.15 39.15 -124.15 39.5 -124.15 39.9 -124.15 40.25 -124.15 40.65 -124.15 41.0 -124.15 41.4 -124.15 41.75 -124.15 42.15 -124.15 42.5 -124.15 42.9 -124.15 43.25 -124.15 43.65 -124.15 44.0 -124.15 44.4 -124.15 44.75 -124.15 45.15 -124.15 45.5 -124.15 45.9 -124.15 46.25 -124.15 46.65 -124.15 47.0 -124.15 47.4 -124.15 47.75 -124.15 48.15 -124.15 48.5 -124.15 48.9 -124.15 49.25 -124.15 49.65 -124.15 50.0 -124.15 50.4 -124.15 50.75 -124.15 51.15 -124.15 51.5 -124.15 51.9 -124.15 52.25 -124.15 52.65 -124.15 53.0 -124.15 53.4 -124.15 53.75 -124.15 54.15 -124.15 54.5 -124.15 54.9 -124.15 55.25 -124.15 55.65 -124.15 56.0 -124.15 56.4 -124.15 56.75 -124.15 57.15 -124.15 57.5 -124.15 57.9 -124.15 58.25 -124.15 58.65 -124.15 59.0 -124.15 59.4 -124.15 59.75 -124.15 60.15 -124.15 60.5 -124.15 60.9 -124.15 61.25 -124.15 61.65 -124.15 62.0 -124.15 62.4 -124.15 62.75 -124.15 63.15 -124.15 63.5 -124.15 63.9 -124.15 64.25 -124.15 64.65 -124.15 65.0 -124.15 65.4 -124.15 65.75 -124.15 66.15 -124.15 66.5 -124.15 66.9 -124.15 67.25 -124.15 67.65 -124.15 68.0 -124.15 68.4 -124.15 68.75 -124.15 69.15 -124.15 69.5 -124.15 69.9 -124.15 70.25 -124.15 70.65 -124.15 71.0 -124.15 71.4 -124.15 71.75 -124.15 72.15 -124.15 72.5 -124.25 72.9 -124.35 73.1 -124.15 73.25 -123.9 73.65 -123.75 74.0 -123.65 74.4 -123.65 74.75 -123.65 75.15 -123.65 75.5 -123.65 75.9 -123.65 76.25 -123.65 76.65 -123.65 77.0 -123.75 77.4 -123.9 77.75 -124.0 78.15 -124.15 78.5 -124.15 78.9 -124.15 79.25 -124.15 79.65 -124.15 80.0 -124.15 80.4 -124.15 80.75 -124.15 81.15 -124.15 81.5 -124.15 81.9 -124.15 82.25 -124.15 82.65 -124.15 83.0 -124.15 83.4 -124.15 83.75 -124.25 84.15 -124.5 84.5 -124.65 84.9 -124.65 85.25 -124.65 85.65 -124.65 86.0 -124.65 86.4 -124.65 86.75 -124.65 87.15 -124.75 87.5 -124.9 87.9 -125.15 88.25 -125.15 88.65 -125.15 89.0 -125.15 89.4 -125.15 89.75 -125.15 90.15 -125.15 90.5 -125.15 90.9 -125.15 91.25 -125.15 91.65 -125.15 92.0 -125.15 92.4 -125.15 92.75 -125.15 93.15 -125.15 93.5 -125.15 93.9 -125.15 94.25 -125.15 94.65 -125.15 95.0 -125.15 95.4 -125.15 95.75 -125.15 96.15 -125.15 96.5 -125.15 96.9 -125.15 97.25 -125.15 97.65 -125.15 98.0 -125.15 98.4 -125.15 98.75 -125.15 99.15 -125.15 99.5 -125.15 99.9 -125.15 100.25 -125.15 100.65 -125.15 101.0 -125.15 101.4 -125.15 101.75 -125.15 102.15 -125.15 102.5 -125.25 102.9 -125.4 103.25 -125.5 103.65 -125.65 104.0 -125.65 104.4 -125.65 104.75 -125.65 105.15 -125.65 105.5 -125.65 105.9 -125.65 106.25 -125.65 106.65 -125.65 107.0 -125.65 107.4 -125.65 107.75 -125.65 108.15 -125.65 108.5 -125.65 108.9 -125.65 109.25 -125.65 109.65 -125.65 110.0 -125.65 110.4 -125.65 110.75 -125.65 111.15 -125.65 111.5 -125.65 111.9 -125.65 112.25 -125.65 112.65 -125.65 113.0 -125.65 113.4 -125.65 113.75 -125.65 114.15 -125.65 114.5 -125.65 114.9 -125.65 115.25 -125.65 115.65 -125.65 116.0 -125.65 116.4 -125.65 116.75 -125.65 117.15 -125.65 117.5 -125.65 117.9 -125.65 118.25 -125.65 118.65 -125.65 119.0 -125.65 119.4 -125.65 119.75 -125.65 120.15 -125.65 120.5 -125.65 120.9 -125.65 121.25 -125.65 121.65 -125.75 122.0 -125.9 122.4 -126.15 122.75 -126.15 123.15 -126.15 123.5 -126.15 123.9 -126.15 124.25 -126.15 124.65 -126.15 124.8 -126.15 124.75 -125.5 124.65 -122.4 124.4 -121.5 124.25 -121.5 124.15 -100.0 124.15 -99.15 124.4 -94.0 124.65 -93.15 124.9 Q-92.8 125.0 -92.5 125.15 L-91.65 125.4 -89.0 125.65 -88.15 125.9 -85.75 126.0 -85.4 125.75 -84.9 125.4 -84.0 125.15 -83.45 125.3 -83.4 125.25 -82.9 124.9 -82.0 124.75 -82.0 124.65 -66.5 124.65 -65.65 124.9 -62.0 125.15 -61.15 125.4 -46.4 125.4 -45.5 125.15 -43.35 124.9 -42.5 124.65 -36.0 124.65 -35.1 124.9 -34.6 125.25 -34.35 125.65 -34.25 126.0 -34.0 126.4 -33.85 126.75 -33.85 126.65 -33.85 126.25 -33.75 125.9 -33.6 125.5 -33.25 125.15 -32.85 124.9 -32.6 124.75 -32.0 124.75 -32.0 124.65 -23.0 124.65 -22.1 124.9 -11.35 124.9 -10.5 124.65 24.5 124.65 25.4 124.9 25.9 125.25 26.1 125.45 26.15 125.4 26.4 125.25 27.0 125.25 27.0 125.15 83.05 125.15 83.9 125.4 84.4 125.75 84.6 126.05 86.15 125.9 87.05 125.65 88.15 125.4 89.05 125.15 100.15 124.9 101.05 124.65 120.15 124.4 121.05 124.25 121.05 124.15 126.05 124.15 126.15 124.2 126.15 124.15 126.15 123.75 126.15 123.4 126.15 123.0 126.15 122.65 126.05 122.25 125.8 121.9 125.65 121.5 125.65 121.15 125.65 120.75 125.65 120.4 125.65 120.0 125.65 119.65 125.65 119.25 125.65 118.9 125.65 118.5 125.65 118.15 125.65 117.75 125.65 117.4 125.65 117.0 125.65 116.65 125.65 116.25 125.65 115.9 125.65 115.5 125.65 115.15 125.65 114.75 125.65 114.4 125.65 114.0 125.65 113.65 125.65 113.25 125.65 112.9 125.65 112.5 125.65 112.15 125.65 111.75 125.65 111.4 125.65 111.0 125.65 110.65 125.65 110.25 125.65 109.9 125.65 109.5 125.65 109.15 125.65 108.75 125.65 108.4 125.65 108.0 125.65 107.65 125.65 107.25 125.65 106.9 125.65 106.5 125.65 106.15 125.65 105.75 125.65 105.4 125.65 105.0 125.65 104.65 125.65 104.25 125.65 103.9 125.65 103.5 125.65 103.15 125.65 102.75 125.65 102.4 125.65 102.0 125.65 101.65 125.65 101.25 125.65 100.9 125.65 100.5 125.65 100.15 125.65 99.75 125.65 99.4 125.65 99.0 125.65 98.65 125.65 98.25 125.65 97.9 125.65 97.5 125.65 97.15 125.65 96.75 125.65 96.4 125.65 96.0 125.65 95.65 125.65 95.25 125.65 94.9 125.65 94.5 125.65 94.15 125.65 93.75 125.65 93.4 125.65 93.0 125.65 92.65 125.65 92.25 125.65 91.9 125.65 91.5 125.65 91.15 125.65 90.75 125.65 90.4 125.65 90.0 125.65 89.65 125.65 89.25 125.65 88.9 125.4 88.5 125.3 88.15 125.15 87.75 125.15 87.4 125.15 87.0 125.15 86.65 125.15 86.25 125.15 85.9 125.15 85.5 125.15 85.15 125.15 84.75 125.15 84.4 125.15 84.0 125.15 83.65 125.15 83.25 125.15 82.9 125.15 82.5 125.15 82.15 125.15 81.75 125.15 81.4 125.15 81.0 125.15 80.65 125.15 80.25 125.15 79.9 125.15 79.5 125.15 79.15 125.15 78.75 125.15 78.4 125.15 78.0 125.15 77.65 125.15 77.25 125.15 76.9 125.15 76.5 125.15 76.15 125.15 75.75 125.15 75.4 125.15 75.0 125.15 74.65 125.15 74.25 125.15 73.9 125.15 73.5 125.3 73.15 125.65 72.75 126.15 72.4 126.85 72.3 126.8 72.15 126.65 71.75 126.65 71.4 126.4 71.0 126.05 70.65 125.8 70.25 125.65 69.9 125.65 69.5 125.65 69.15 125.65 68.75 125.65 68.4 125.65 68.0 125.55 67.65 125.3 67.25 125.15 66.9 124.9 66.5 124.8 66.15 124.65 65.75 124.65 65.4 124.65 65.0 124.65 64.65 124.65 64.25 124.65 63.9 124.65 63.5 124.65 63.15 124.65 62.75 124.65 62.4 124.65 62.0 124.65 61.65 124.65 61.25 124.65 60.9 124.65 60.5 124.65 60.15 124.65 59.75 124.65 59.4 124.4 59.0 124.3 58.65 124.15 58.25 124.15 57.9 124.15 57.5 124.15 57.15 124.15 56.75 124.15 56.4 124.15 56.0 124.15 55.65 124.15 55.25 124.15 54.9 124.15 54.5 124.15 54.15 124.15 53.75 124.15 53.4 124.15 53.0 124.15 52.65 124.15 52.25 124.15 51.9 124.15 51.5 124.15 51.15 124.15 50.75 124.15 50.4 124.15 50.0 124.15 49.65 124.15 49.25 124.15 48.9 124.15 48.5 124.15 48.15 124.15 47.75 124.15 47.4 124.15 47.0 124.15 46.65 124.15 46.25 124.15 45.9 124.15 45.5 124.15 45.15 124.15 44.75 124.15 44.4 124.15 44.0 124.15 43.65 124.15 43.25 124.15 42.9 124.15 42.5 124.15 42.15 124.15 41.75 124.15 41.4 124.15 41.0 124.15 40.65 124.15 40.25 124.15 39.9 124.15 39.5 124.15 39.15 124.15 38.75 124.15 38.4 124.15 38.0 124.15 37.65 124.15 37.25 124.15 36.9 124.15 36.5 124.15 36.15 124.15 35.75 124.15 35.4 124.15 35.0 124.15 34.65 124.15 34.25 124.15 33.9 124.15 33.5 124.15 33.15 124.15 32.75 124.15 32.4 124.15 32.0 124.15 31.65 124.15 31.25 124.15 30.9 124.15 30.5 124.15 30.15 124.15 29.75 124.15 29.4 124.15 29.0 124.15 28.65 124.15 28.25 124.15 27.9 124.15 27.5 124.15 27.15 124.3 26.75 124.55 26.4 124.65 26.3 124.65 26.15 124.65 25.75 124.65 25.35 124.65 25.0 124.55 24.6 124.3 24.25 124.15 23.85 124.15 23.5 124.15 23.1 124.15 22.75 124.15 22.35 124.15 22.0 124.15 21.6 124.15 21.25 124.15 20.85 124.15 20.5 124.15 20.1 124.15 19.75 124.15 19.35 124.15 19.0 124.15 18.6 124.15 18.25 124.15 17.85 124.15 17.5 124.15 17.1 124.15 16.75 124.15 16.35 124.15 16.0 124.15 15.6 124.15 15.25 124.15 14.85 124.15 14.5 124.15 14.1 124.15 13.75 124.15 13.35 124.15 13.0 124.15 12.6 124.15 12.25 124.15 11.85 124.15 11.5 124.15 11.1 124.15 10.75 124.15 10.35 124.15 10.0 124.15 9.6 124.15 9.25 124.15 8.85 124.15 8.5 124.15 8.1 124.15 7.75 124.15 7.35 124.15 7.0 124.15 6.6 124.15 6.25 124.15 5.85 124.15 5.5 124.15 5.1 124.15 4.75 124.15 4.35 124.15 4.0 124.15 3.6 124.15 3.25 124.15 2.85 124.15 2.5 124.15 2.1 124.15 1.75 124.15 1.35 124.15 1.0 124.15 0.6 124.15 0.25 124.15 -0.15 124.15 -0.5 124.3 -0.9 124.55 -1.25 124.65 -1.65 124.65 -2.0 124.65 -2.4 124.65 -2.75 124.65 -3.15 124.65 -3.5 124.65 -3.9 124.65 -4.25 124.65 -4.65 124.65 -5.0 124.65 -5.4 124.65 -5.75 124.65 -6.15 124.65 -6.5 124.65 -6.9 124.65 -7.25 124.65 -7.65 124.65 -8.0 124.65 -8.4 124.65 -8.75 124.65 -9.15 124.65 -9.5 124.65 -9.9 124.65 -10.25 124.65 -10.65 124.65 -11.0 124.65 -11.4 124.65 -11.75 124.65 -12.15 124.65 -12.5 124.65 -12.9 124.65 -13.25 124.65 -13.65 124.65 -14.0 124.65 -14.4 124.65 -14.75 124.65 -15.15 124.65 -15.5 124.65 -15.9 124.65 -16.25 124.65 -16.65 124.65 -17.0 124.65 -17.4 124.65 -17.75 124.65 -18.15 124.65 -18.5 124.8 -18.9 125.15 -19.25 125.65 -19.65 125.85 -19.65 125.8 -19.9 125.65 -20.25 125.65 -20.65 125.65 -21.0 125.65 -21.4 125.65 -21.75 125.65 -22.15 125.4 -22.5 125.3 -22.9 125.15 -23.25 125.15 -23.65 125.15 -24.0 125.15 -24.4 125.15 -24.75 125.15 -25.15 125.15 -25.5 125.15 -25.9 125.15 -26.25 125.15 -26.65 125.15 -27.0 125.15 -27.4 125.15 -27.75 125.15 -28.15 125.15 -28.5 125.15 -28.9 125.15 -29.25 125.15 -29.65 125.15 -30.0 125.15 -30.4 125.15 -30.75 125.15 -31.15 125.15 -31.5 125.15 -31.9 125.15 -32.25 125.15 -32.65 125.15 -33.0 125.15 -33.4 125.15 -33.75 125.15 -34.15 125.15 -34.5 125.15 -34.9 125.15 -35.25 125.15 -35.65 125.15 -36.0 125.15 -36.4 125.15 -36.75 125.15 -37.15 125.15 -37.5 125.15 -37.9 125.15 -38.25 125.15 -38.65 125.15 -39.0 125.15 -39.4 125.15 -39.75 125.15 -40.15 125.15 -40.5 125.15 -40.9 125.15 -41.25 125.15 -41.65 125.15 -42.0 125.15 -42.4 125.15 -42.75 125.15 -43.15 124.9 -43.5 124.8 -43.9 124.65 -44.25 124.65 -44.65 124.65 -45.0 124.65 -45.4 124.65 -45.75 124.65 -46.15 124.65 -46.5 124.65 -46.9 124.65 -47.25 124.65 -47.65 124.65 -48.0 124.65 -48.4 124.65 -48.75 124.65 -49.15 124.65 -49.5 124.65 -49.9 124.65 -50.25 124.65 -50.65 124.65 -51.0 124.65 -51.4 124.65 -51.75 124.65 -52.15 124.65 -52.5 124.65 -52.9 124.65 -53.25 124.65 -53.65 124.65 -54.0 124.65 -54.4 124.65 -54.75 124.65 -55.15 124.65 -55.5 124.65 -55.9 124.65 -56.25 124.65 -56.65 124.65 -57.0 124.65 -57.4 124.65 -57.75 124.65 -58.15 124.65 -58.5 124.65 -58.9 124.65 -59.25 124.65 -59.65 124.65 -60.0 124.65 -60.4 124.65 -60.75 124.65 -61.15 124.65 -61.5 124.65 -61.9 124.65 -62.25 124.65 -62.65 124.65 -63.0 124.65 -63.4 124.65 -63.75 124.65 -64.15 124.65 -64.5 124.65 -64.9 124.65 -65.25 124.8 -65.65 124.9 -66.0 124.8 -66.4 124.65 -66.75 124.65 -67.15 124.65 -67.5 124.65 -67.9 124.65 -68.25 124.65 -68.65 124.65 -69.0 124.65 -69.4 124.65 -69.75 124.65 -70.15 124.65 -70.5 124.65 -70.9 124.65 -71.25 124.65 -71.65 124.65 -72.0 124.65 -72.4 124.65 -72.75 124.65 -73.15 124.65 -73.5 124.65 -73.9 124.65 -74.25 124.65 -74.65 124.65 -75.0 124.65 -75.4 124.65 -75.75 124.65 -76.15 124.65 -76.5 124.65 -76.9 124.65 -77.3 124.65 -77.65 124.65 -78.05 124.65 -78.4 124.65 -78.8 124.65 -79.15 124.65 -79.55 124.65 -79.9 124.65 -80.3 124.65 -80.65 124.65 -81.05 124.65 -81.4 124.65 -81.8 124.65 -82.15 124.65 -82.55 124.65 -82.9 124.65 -83.3 124.65 -83.65 124.65 -84.05 124.65 -84.4 124.65 -84.8 124.65 -85.15 124.65 -85.55 124.65 -85.9 124.65 -86.3 124.65 -86.65 124.65 -87.05 124.65 -87.4 124.65 -87.8 124.65 -88.15 124.65 -88.55 124.65 -88.9 124.65 -89.3 124.65 -89.65 124.65 -90.05 124.65 -90.4 124.65 -90.8 124.65 -91.15 124.65 -91.55 124.65 -91.9 124.65 -92.3 124.65 -92.65 124.65 -93.05 124.65 -93.4 124.65 -93.8 124.65 -94.15 124.65 -94.55 124.65 -94.9 124.65 -95.3 124.65 -95.65 124.65 -96.05 124.65 -96.4 124.65 -96.8 124.65 -97.15 124.65 -97.55 124.65 -97.9 124.65 -98.3 124.65 -98.65 124.65 -99.05 124.65 -99.4 124.65 -99.8 124.65 -100.15 124.65 -100.55 124.65 -100.9 124.65 -101.3 124.65 -101.65 124.65 -102.05 124.65 -102.4 124.65 -102.8 124.65 -103.15 124.65 -103.55 124.65 -103.9 124.65 -104.3 124.65 -104.65 124.65 -105.05 124.65 -105.4 124.65 -105.8 124.65 -106.15 124.65 -106.55 124.65 -106.9 124.65 -107.3 124.65 -107.65 124.65 -108.05 124.65 -108.4 124.65 -108.8 124.65 -109.15 124.65 -109.55 124.65 -109.9 124.65 -110.3 124.65 -110.65 124.65 -111.05 124.65 -111.4 124.65 -111.8 124.65 -112.15 124.65 -112.55 124.65 -112.9 124.65 -113.3 124.65 -113.65 124.65 -114.05 124.65 -114.4 124.65 -114.8 124.65 -115.15 124.65 -115.55 124.65 -115.9 124.65 -116.3 124.65 -116.65 124.65 -117.05 124.65 -117.4 124.65 -117.8 124.65 -118.15 124.65 -118.55 124.65 -118.9 124.65 -119.3 124.65 -119.65 124.65 -120.05 124.65 -120.4 124.65 -120.8 124.65 -121.15 124.65 -121.55 124.65 -121.9 124.65 -122.3 124.65 -122.65 123.05 -122.65 122.15 -122.9 116.55 -123.15 115.65 -123.4 101.1 -123.65 101.05 -123.4 M151.05 -129.9 L151.9 -129.65 152.4 -129.3 152.65 -128.9 152.8 -128.55 152.9 -128.15 152.9 -127.8 152.9 -127.4 152.9 -127.05 152.9 -126.65 152.9 -126.3 152.9 -125.9 152.9 -125.55 152.9 -125.15 152.9 -124.8 152.9 -124.4 152.9 -124.05 152.9 -123.65 152.9 -123.3 152.9 -122.9 152.9 -122.55 152.9 -122.15 152.9 -121.8 152.9 -121.4 152.9 -121.05 152.9 -120.65 152.9 -120.3 152.9 -119.9 152.9 -119.55 152.8 -119.15 152.65 -118.8 152.55 -118.4 152.4 -118.05 152.4 -117.65 152.4 -117.3 152.4 -116.9 152.4 -116.55 152.4 -116.15 152.4 -115.8 152.4 -115.4 152.4 -115.05 152.4 -114.65 152.4 -114.3 152.4 -113.9 152.4 -113.55 152.4 -113.15 152.4 -112.8 152.4 -112.4 152.4 -112.05 152.4 -111.65 152.4 -111.3 152.65 -110.9 152.8 -110.55 152.9 -110.15 152.9 -109.8 152.9 -109.4 152.9 -109.05 152.9 -108.65 152.9 -108.3 152.9 -107.9 152.9 -107.55 152.9 -107.15 152.9 -106.8 152.9 -106.4 152.9 -106.05 152.9 -105.65 152.9 -105.3 152.9 -104.9 152.9 -104.55 152.9 -104.15 152.9 -103.8 152.9 -103.4 152.9 -103.05 152.9 -102.65 152.9 -102.3 153.15 -101.9 153.3 -101.55 153.4 -101.15 153.4 -100.8 153.4 -100.4 153.4 -100.05 153.4 -99.65 153.4 -99.3 153.4 -98.9 153.4 -98.55 153.4 -98.15 153.4 -97.8 153.4 -97.4 153.4 -97.05 153.4 -96.65 153.4 -96.3 153.4 -95.9 153.4 -95.55 153.4 -95.15 153.4 -94.8 153.4 -94.4 153.4 -94.05 153.4 -93.65 153.4 -93.3 153.4 -92.9 153.4 -92.55 153.4 -92.15 153.4 -91.8 153.4 -91.4 153.4 -91.05 153.4 -90.65 153.4 -90.3 153.4 -89.9 153.4 -89.55 153.4 -89.15 153.4 -88.8 153.4 -88.4 153.4 -88.05 153.4 -87.65 153.4 -87.3 153.4 -86.9 153.4 -86.55 153.4 -86.15 153.4 -85.8 153.4 -85.4 153.4 -85.05 153.4 -84.65 153.4 -84.3 153.4 -83.9 153.4 -83.55 153.4 -83.15 153.4 -82.8 153.4 -82.4 153.4 -82.05 153.4 -81.65 153.4 -81.3 153.4 -80.9 153.4 -80.55 153.4 -80.15 153.4 -79.8 153.4 -79.4 153.4 -79.05 153.4 -78.65 153.4 -78.3 153.4 -77.9 153.4 -77.55 153.4 -77.15 153.4 -76.8 153.4 -76.4 153.4 -76.0 153.4 -75.65 153.4 -75.25 153.4 -74.9 153.4 -74.5 153.4 -74.15 153.4 -73.75 153.4 -73.4 153.4 -73.0 153.4 -72.65 153.4 -72.25 153.4 -71.9 153.4 -71.5 153.4 -71.15 153.4 -70.75 153.4 -70.4 153.4 -70.0 153.4 -69.65 153.4 -69.25 153.4 -68.9 153.4 -68.5 153.4 -68.15 153.4 -67.75 153.4 -67.4 153.4 -67.0 153.3 -66.65 153.15 -66.25 153.05 -65.9 152.6 -65.5 152.9 -65.25 153.15 -64.9 153.3 -64.5 153.4 -64.15 153.4 -63.75 153.4 -63.4 153.4 -63.0 153.4 -62.65 153.4 -62.25 153.4 -61.9 153.4 -61.5 153.4 -61.15 153.4 -60.75 153.4 -60.4 153.4 -60.0 153.4 -59.65 153.4 -59.25 153.4 -58.9 153.4 -58.5 153.4 -58.15 153.4 -57.75 153.4 -57.4 153.4 -57.0 153.4 -56.65 153.4 -56.25 153.4 -55.9 153.4 -55.5 153.4 -55.15 153.4 -54.75 153.4 -54.4 153.4 -54.0 153.4 -53.65 153.4 -53.25 153.4 -52.9 153.4 -52.5 153.4 -52.15 153.4 -51.75 153.4 -51.4 153.4 -51.0 153.4 -50.65 153.4 -50.25 153.4 -49.9 153.4 -49.5 153.4 -49.15 153.4 -48.75 153.4 -48.4 153.4 -48.0 153.4 -47.65 153.4 -47.25 153.4 -46.9 153.4 -46.5 153.4 -46.15 153.4 -45.75 153.4 -45.4 153.4 -45.0 153.3 -44.65 153.15 -44.25 153.05 -43.9 152.9 -43.5 152.8 -43.15 152.65 -42.75 152.55 -42.4 152.4 -42.0 152.4 -41.65 152.4 -41.25 152.4 -40.9 152.4 -40.5 152.4 -40.15 152.4 -39.75 152.4 -39.4 152.4 -39.0 152.4 -38.65 152.4 -38.25 152.4 -37.9 152.4 -37.5 152.4 -37.15 152.4 -36.75 152.4 -36.4 152.4 -36.0 152.4 -35.65 152.4 -35.25 152.4 -34.9 152.4 -34.5 152.4 -34.15 152.4 -33.75 152.4 -33.4 152.4 -33.0 152.4 -32.65 152.4 -32.25 152.4 -31.9 152.4 -31.5 152.4 -31.15 152.4 -30.75 152.4 -30.4 152.4 -30.0 152.4 -29.65 152.4 -29.25 152.4 -28.9 152.4 -28.5 152.4 -28.15 152.4 -27.75 152.4 -27.4 152.4 -27.0 152.4 -26.65 152.4 -26.25 152.4 -25.9 152.4 -25.5 152.4 -25.15 152.4 -24.75 152.4 -24.4 152.4 -24.0 152.4 -23.65 152.4 -23.25 152.4 -22.9 152.4 -22.5 152.4 -22.15 152.4 -21.75 152.4 -21.4 152.4 -21.0 152.3 -20.65 152.15 -20.25 152.1 -20.0 152.15 -19.9 152.3 -19.5 152.4 -19.15 152.4 -18.75 152.4 -18.4 152.4 -18.0 152.4 -17.65 152.4 -17.25 152.4 -16.9 152.4 -16.5 152.4 -16.15 152.4 -15.75 152.4 -15.4 152.4 -15.0 152.4 -14.65 152.4 -14.25 152.4 -13.9 152.4 -13.5 152.4 -13.15 152.4 -12.75 152.4 -12.4 152.4 -12.0 152.4 -11.65 152.4 -11.25 152.4 -10.9 152.4 -10.5 152.4 -10.15 152.4 -9.75 152.4 -9.4 152.4 -9.0 152.4 -8.65 152.4 -8.25 152.4 -7.9 152.4 -7.5 152.4 -7.15 152.4 -6.75 152.4 -6.4 152.4 -6.0 152.4 -5.65 152.4 -5.25 152.4 -4.9 152.3 -4.5 152.15 -4.15 151.9 -3.75 151.9 -3.4 151.9 -3.0 151.9 -2.65 151.9 -2.25 151.9 -1.9 151.9 -1.5 151.9 -1.15 151.9 -0.75 151.9 -0.4 151.9 0.0 151.9 0.35 151.9 0.75 151.9 1.1 151.9 1.5 151.9 1.85 151.9 2.25 151.9 2.6 151.9 3.0 151.9 3.35 151.9 3.75 151.9 4.1 151.9 4.5 151.9 4.85 151.9 5.25 151.9 5.6 151.9 6.0 151.9 6.35 151.9 6.75 151.9 7.1 151.9 7.5 151.9 7.85 151.9 8.25 151.9 8.6 151.9 9.0 151.9 9.35 151.9 9.75 151.9 10.1 151.9 10.5 151.9 10.85 151.9 11.25 151.9 11.6 151.9 12.0 151.9 12.35 151.9 12.75 151.9 13.1 151.9 13.5 151.9 13.85 151.9 14.25 151.9 14.6 151.9 15.0 151.9 15.35 151.9 15.75 151.9 16.1 151.9 16.5 151.9 16.85 151.9 17.25 151.9 17.6 151.9 18.0 151.9 18.35 151.9 18.75 151.9 19.1 151.9 19.5 151.9 19.85 151.9 20.25 151.9 20.6 151.9 21.0 151.9 21.35 151.9 21.75 151.9 22.1 151.9 22.5 151.9 22.85 151.9 23.25 151.9 23.6 151.9 24.0 151.9 24.35 151.9 24.75 151.9 25.1 151.9 25.5 151.9 25.85 151.9 26.25 151.8 26.65 151.55 27.0 151.3 27.4 151.15 27.75 151.05 28.15 150.9 28.25 150.9 28.5 150.9 28.9 150.9 29.25 151.15 29.65 151.3 30.0 151.4 30.4 151.4 30.75 151.4 31.15 151.4 31.5 151.4 31.9 151.4 32.25 151.4 32.65 151.4 33.0 151.4 33.4 151.4 33.75 151.4 34.15 151.4 34.5 151.4 34.9 151.4 35.25 151.4 35.65 151.4 36.0 151.4 36.4 151.4 36.75 151.4 37.15 151.55 37.5 151.8 37.9 151.9 38.25 151.9 38.65 151.9 39.0 151.9 39.4 151.9 39.75 151.9 40.15 151.9 40.5 151.9 40.9 151.9 41.25 151.9 41.65 151.9 42.0 151.9 42.4 151.9 42.75 152.15 43.15 152.3 43.5 152.4 43.9 152.4 44.25 152.4 44.65 152.4 45.0 152.4 45.4 152.4 45.75 152.4 46.15 152.4 46.5 152.4 46.9 152.4 47.25 152.4 47.65 152.4 48.0 152.4 48.4 152.4 48.75 152.4 49.15 152.4 49.5 152.4 49.9 152.4 50.25 152.65 50.65 152.8 51.0 152.9 51.4 152.9 51.75 152.9 52.15 152.9 52.5 152.9 52.9 152.9 53.25 152.9 53.65 152.9 54.0 152.9 54.4 152.9 54.75 152.9 55.15 152.9 55.5 152.9 55.9 152.9 56.25 152.9 56.65 152.9 57.0 152.9 57.4 152.9 57.75 152.9 58.15 152.9 58.5 152.9 58.9 152.9 59.25 152.9 59.65 152.9 60.0 152.9 60.4 152.9 60.75 152.9 61.15 152.9 61.5 152.9 61.9 152.9 62.25 152.9 62.65 152.9 63.0 152.9 63.4 152.9 63.75 152.9 64.15 152.9 64.5 152.9 64.9 152.9 65.25 152.9 65.65 152.9 66.0 152.9 66.4 152.9 66.75 152.9 67.15 152.9 67.5 152.9 67.9 152.9 68.25 152.9 68.65 152.9 69.0 152.9 69.4 152.9 69.75 152.8 70.15 152.55 70.5 152.4 70.9 152.4 71.25 152.4 71.65 152.4 72.0 152.3 72.4 152.15 72.75 152.05 73.15 151.9 73.25 152.15 73.65 152.3 74.0 152.4 74.4 152.4 74.75 152.4 75.15 152.4 75.5 152.4 75.9 152.4 76.25 152.4 76.65 152.4 77.0 152.4 77.4 152.4 77.75 152.4 78.15 152.4 78.5 152.4 78.9 152.4 79.25 152.4 79.65 152.4 80.0 152.4 80.4 152.4 80.75 152.4 81.15 152.4 81.5 152.4 81.9 152.4 82.25 152.4 82.65 152.4 83.0 152.4 83.4 152.4 83.75 152.4 84.15 152.4 84.5 152.4 84.9 152.4 85.25 152.4 85.65 152.3 86.0 152.15 86.4 151.9 86.75 151.9 87.15 151.9 87.5 151.9 87.9 151.9 88.25 151.9 88.65 151.9 89.0 151.9 89.4 151.9 89.75 151.9 90.15 151.9 90.5 151.9 90.9 151.9 91.25 151.9 91.65 151.9 92.0 151.9 92.4 151.9 92.75 151.9 93.15 151.9 93.5 151.9 93.9 151.9 94.25 151.9 94.65 151.9 95.0 151.9 95.4 151.9 95.75 151.9 96.15 151.9 96.5 151.9 96.9 151.9 97.25 151.9 97.65 151.9 98.0 151.9 98.4 151.9 98.75 151.9 99.15 151.9 99.5 151.9 99.9 151.9 100.25 151.9 100.65 151.9 101.0 151.9 101.4 151.9 101.75 151.9 102.15 151.9 102.5 151.9 102.9 151.9 103.25 151.9 103.65 151.9 104.0 151.9 104.4 151.9 104.75 151.9 105.15 151.9 105.5 151.9 105.9 151.9 106.25 151.9 106.65 151.9 107.0 151.9 107.4 151.9 107.75 151.9 108.15 151.9 108.5 151.9 108.9 151.9 109.25 151.9 109.65 151.9 110.0 151.9 110.4 151.9 110.75 151.9 111.15 151.9 111.5 151.9 111.9 151.9 112.25 151.9 112.65 151.9 113.0 151.9 113.4 151.9 113.75 151.9 114.15 151.9 114.5 151.9 114.9 151.9 115.25 151.9 115.65 151.9 116.0 151.9 116.4 151.9 116.75 151.9 117.15 151.9 117.5 151.9 117.9 151.9 118.25 151.9 118.65 151.9 119.0 151.9 119.4 151.9 119.75 151.9 120.15 151.9 120.5 151.9 120.9 151.9 121.25 151.9 121.65 151.9 122.0 151.9 122.4 151.9 122.75 151.9 123.15 151.9 123.5 151.9 123.9 151.9 124.25 151.9 124.65 151.9 125.0 151.9 125.4 151.9 125.75 151.9 126.15 151.9 126.5 151.9 126.9 151.9 127.25 151.9 127.65 151.9 128.0 151.8 128.4 151.65 128.8 151.55 129.15 151.05 129.55 150.65 129.8 150.05 129.9 149.15 129.65 148.65 129.3 148.3 128.9 148.15 128.55 148.15 128.15 148.15 127.75 148.15 127.4 148.15 127.0 148.15 126.65 148.15 126.25 148.15 125.9 148.15 125.5 148.15 125.15 148.15 124.75 148.15 124.4 148.15 124.0 148.15 123.65 148.15 123.25 148.15 122.9 148.15 122.5 148.15 122.15 148.15 121.75 148.15 121.4 148.15 121.0 148.15 120.65 148.15 120.25 148.15 119.9 148.15 119.5 148.15 119.15 148.15 118.75 148.15 118.4 148.15 118.0 148.15 117.65 148.15 117.25 148.15 116.9 148.15 116.5 148.15 116.15 148.15 115.75 148.15 115.4 148.15 115.0 148.15 114.65 148.15 114.25 148.15 113.9 148.15 113.5 148.15 113.15 148.15 112.75 148.15 112.4 148.15 112.0 148.15 111.65 148.15 111.25 148.15 110.9 148.15 110.5 148.15 110.15 148.15 109.75 148.15 109.4 148.15 109.0 148.15 108.65 148.15 108.25 148.15 107.9 148.15 107.5 148.15 107.15 148.15 106.75 148.15 106.4 148.15 106.0 148.15 105.65 148.15 105.25 148.15 104.9 148.15 104.5 148.15 104.15 148.15 103.75 148.15 103.4 148.15 103.0 148.15 102.65 148.15 102.25 148.15 101.9 148.15 101.5 148.15 101.15 148.15 100.75 148.15 100.4 148.15 100.0 148.15 99.65 148.15 99.25 148.15 98.9 148.15 98.5 148.15 98.15 148.15 97.75 148.15 97.4 148.15 97.0 148.15 96.65 148.15 96.25 148.15 95.9 148.15 95.5 148.15 95.15 148.15 94.75 148.15 94.4 148.15 94.0 148.15 93.65 148.15 93.25 148.15 92.9 148.15 92.5 148.15 92.15 148.15 91.75 148.15 91.4 148.15 91.0 148.15 90.65 148.15 90.25 148.15 89.9 148.15 89.5 148.15 89.15 148.15 88.75 148.15 88.4 148.15 88.0 148.15 87.65 148.15 87.25 148.15 86.9 148.15 86.5 148.15 86.15 148.15 85.75 148.15 85.4 148.15 85.0 148.3 84.65 148.55 84.25 148.65 83.9 148.65 83.5 148.65 83.15 148.65 82.75 148.65 82.4 148.65 82.0 148.65 81.65 148.65 81.25 148.65 80.9 148.65 80.5 148.65 80.15 148.65 79.75 148.65 79.4 148.65 79.0 148.65 78.65 148.65 78.25 148.65 77.9 148.65 77.5 148.65 77.15 148.65 76.75 148.65 76.4 148.65 76.0 148.65 75.65 148.65 75.25 148.65 74.9 148.65 74.5 148.65 74.15 148.8 73.75 149.05 73.4 149.2 73.3 149.15 73.25 148.8 72.9 148.65 72.5 148.65 72.15 148.65 71.75 148.65 71.4 148.65 71.0 148.65 70.65 148.65 70.25 148.65 69.9 148.65 69.5 148.65 69.15 148.8 68.75 149.05 68.4 149.15 68.0 149.15 67.65 149.15 67.25 149.15 66.9 149.15 66.5 149.15 66.15 149.15 65.75 149.15 65.4 149.15 65.0 149.15 64.65 149.15 64.25 149.15 63.9 149.15 63.5 149.15 63.15 149.15 62.75 149.15 62.4 149.15 62.0 149.15 61.65 149.15 61.25 149.15 60.9 149.15 60.5 149.15 60.15 149.15 59.75 149.15 59.4 149.15 59.0 149.15 58.65 149.15 58.25 149.15 57.9 149.15 57.5 149.15 57.15 149.15 56.75 149.15 56.4 149.15 56.0 149.15 55.65 149.15 55.25 149.15 54.9 149.15 54.5 149.15 54.15 149.15 53.75 149.15 53.4 149.15 53.0 149.05 52.65 148.8 52.25 148.65 51.9 148.65 51.5 148.65 51.15 148.65 50.75 148.65 50.4 148.65 50.0 148.65 49.65 148.65 49.25 148.65 48.9 148.65 48.5 148.65 48.15 148.65 47.75 148.65 47.4 148.65 47.0 148.65 46.65 148.65 46.25 148.65 45.9 148.65 45.5 148.55 45.15 148.3 44.75 148.15 44.4 148.15 44.0 148.15 43.65 148.15 43.25 148.15 42.9 148.15 42.5 148.15 42.15 148.15 41.75 148.15 41.4 148.15 41.0 148.15 40.65 148.15 40.25 148.15 39.9 147.9 39.5 147.8 39.15 147.65 38.75 147.65 38.4 147.65 38.0 147.65 37.65 147.65 37.25 147.65 36.9 147.65 36.5 147.65 36.15 147.65 35.75 147.65 35.4 147.65 35.0 147.65 34.65 147.65 34.25 147.65 33.9 147.65 33.5 147.65 33.15 147.65 32.75 147.65 32.4 147.65 32.0 147.55 31.65 147.3 31.25 147.15 30.9 147.15 30.5 147.15 30.15 147.15 29.75 147.15 29.4 147.15 29.0 147.15 28.65 147.15 28.25 147.15 27.9 147.15 27.5 147.15 27.15 147.15 26.75 147.3 26.4 147.4 26.0 147.65 25.6 147.8 25.25 148.05 24.85 148.15 24.5 148.15 24.1 148.15 23.75 148.15 23.35 148.15 23.0 148.15 22.6 148.15 22.25 148.15 21.85 148.15 21.5 148.15 21.1 148.15 20.75 148.15 20.35 148.15 20.0 148.15 19.6 148.15 19.25 148.15 18.85 148.15 18.5 148.15 18.1 148.15 17.75 148.15 17.35 148.15 17.0 148.15 16.6 148.15 16.25 148.15 15.85 148.15 15.5 148.15 15.1 148.15 14.75 148.15 14.35 148.15 14.0 148.15 13.6 148.15 13.25 148.15 12.85 148.15 12.5 148.15 12.1 148.15 11.75 148.15 11.35 148.15 11.0 148.15 10.6 148.15 10.25 148.15 9.85 148.15 9.5 148.15 9.1 148.15 8.75 148.15 8.35 148.15 8.0 148.15 7.6 148.15 7.25 148.15 6.85 148.15 6.5 148.15 6.1 148.15 5.75 148.15 5.35 148.15 5.0 148.15 4.6 148.15 4.25 148.15 3.85 148.15 3.5 148.15 3.1 148.15 2.75 148.15 2.35 148.15 2.0 148.15 1.6 148.15 1.25 148.15 0.85 148.15 0.5 148.15 0.1 148.15 -0.25 148.15 -0.65 148.15 -1.0 148.15 -1.4 148.15 -1.75 148.15 -2.15 148.15 -2.5 148.15 -2.9 148.15 -3.25 148.15 -3.65 148.15 -4.0 148.15 -4.4 148.15 -4.75 148.3 -5.15 148.4 -5.5 148.65 -5.9 148.65 -6.25 148.65 -6.65 148.65 -7.0 148.65 -7.4 148.65 -7.75 148.65 -8.15 148.65 -8.5 148.65 -8.9 148.65 -9.25 148.65 -9.65 148.65 -10.0 148.65 -10.4 148.65 -10.75 148.65 -11.15 148.65 -11.5 148.65 -11.9 148.65 -12.25 148.65 -12.65 148.65 -13.0 148.65 -13.4 148.65 -13.75 148.65 -14.15 148.65 -14.5 148.65 -14.9 148.65 -15.25 148.65 -15.65 148.65 -16.0 148.65 -16.4 148.65 -16.75 148.65 -17.15 148.65 -17.5 148.65 -17.9 148.65 -18.25 148.65 -18.65 148.65 -18.9 148.15 -19.25 147.8 -19.65 147.65 -20.0 147.65 -20.4 147.65 -20.75 147.8 -21.15 147.9 -21.5 148.3 -21.9 148.55 -22.25 148.65 -22.65 148.65 -23.0 148.65 -23.4 148.65 -23.75 148.65 -24.15 148.65 -24.5 148.65 -24.9 148.65 -25.25 148.65 -25.65 148.65 -26.0 148.65 -26.4 148.65 -26.75 148.65 -27.15 148.65 -27.5 148.65 -27.9 148.65 -28.25 148.65 -28.65 148.65 -29.0 148.65 -29.4 148.65 -29.75 148.65 -30.15 148.65 -30.5 148.65 -30.9 148.65 -31.25 148.65 -31.65 148.65 -32.0 148.65 -32.4 148.65 -32.75 148.65 -33.15 148.65 -33.5 148.65 -33.9 148.65 -34.25 148.65 -34.65 148.65 -35.0 148.65 -35.4 148.65 -35.75 148.65 -36.15 148.65 -36.5 148.65 -36.9 148.65 -37.25 148.65 -37.65 148.65 -38.0 148.65 -38.4 148.65 -38.75 148.65 -39.15 148.65 -39.5 148.65 -39.9 148.65 -40.25 148.65 -40.65 148.65 -41.0 148.65 -41.4 148.65 -41.75 148.65 -42.15 148.65 -42.5 148.65 -42.9 148.65 -43.25 148.65 -43.65 148.65 -44.0 148.8 -44.4 149.05 -44.75 149.15 -45.15 149.15 -45.5 149.3 -45.9 149.55 -46.25 149.65 -46.65 149.65 -47.0 149.65 -47.4 149.65 -47.75 149.65 -48.15 149.65 -48.5 149.65 -48.9 149.65 -49.25 149.65 -49.65 149.65 -50.0 149.65 -50.4 149.65 -50.75 149.65 -51.15 149.65 -51.5 149.65 -51.9 149.65 -52.25 149.65 -52.65 149.65 -53.0 149.65 -53.4 149.65 -53.75 149.65 -54.15 149.65 -54.5 149.65 -54.9 149.65 -55.25 149.65 -55.65 149.65 -56.0 149.65 -56.4 149.65 -56.75 149.65 -57.15 149.65 -57.5 149.65 -57.9 149.65 -58.25 149.65 -58.65 149.65 -59.0 149.65 -59.4 149.65 -59.75 149.65 -60.15 149.65 -60.5 149.65 -60.9 149.65 -61.25 149.65 -61.65 149.65 -62.0 149.65 -62.4 149.65 -62.75 149.65 -63.15 149.65 -63.5 149.65 -63.9 149.65 -64.25 149.8 -64.65 149.85 -64.7 149.15 -64.9 148.65 -65.25 148.3 -65.65 148.15 -66.0 148.15 -66.4 148.15 -66.75 148.3 -67.15 148.4 -67.5 148.8 -67.9 149.15 -68.25 149.55 -68.65 149.65 -69.0 149.65 -69.4 149.65 -69.75 149.65 -70.15 149.65 -70.5 149.65 -70.9 149.65 -71.25 149.65 -71.65 149.65 -72.0 149.65 -72.4 149.65 -72.75 149.65 -73.15 149.65 -73.5 149.65 -73.9 149.65 -74.25 149.65 -74.65 149.65 -75.0 149.65 -75.4 149.65 -75.75 149.65 -76.15 149.65 -76.5 149.65 -76.9 149.65 -77.3 149.65 -77.65 149.65 -78.05 149.65 -78.4 149.65 -78.8 149.65 -79.15 149.65 -79.55 149.65 -79.9 149.65 -80.3 149.65 -80.65 149.65 -81.05 149.65 -81.4 149.65 -81.8 149.65 -82.15 149.65 -82.55 149.65 -82.9 149.65 -83.3 149.65 -83.65 149.65 -84.05 149.65 -84.4 149.65 -84.8 149.65 -85.15 149.65 -85.55 149.65 -85.9 149.65 -86.3 149.65 -86.65 149.65 -87.05 149.65 -87.4 149.65 -87.8 149.65 -88.15 149.65 -88.55 149.65 -88.9 149.65 -89.3 149.65 -89.65 149.65 -90.05 149.65 -90.4 149.65 -90.8 149.65 -91.15 149.65 -91.55 149.65 -91.9 149.65 -92.3 149.65 -92.65 149.65 -93.05 149.65 -93.4 149.65 -93.8 149.65 -94.15 149.65 -94.55 149.65 -94.9 149.65 -95.3 149.65 -95.65 149.65 -96.05 149.65 -96.4 149.65 -96.8 149.65 -97.15 149.65 -97.55 149.65 -97.9 149.65 -98.3 149.65 -98.65 149.65 -99.05 149.65 -99.4 149.65 -99.8 149.65 -100.15 149.4 -100.55 149.3 -100.9 149.15 -101.3 149.15 -101.65 149.15 -102.05 149.15 -102.4 149.15 -102.8 149.15 -103.15 149.15 -103.55 149.15 -103.9 149.15 -104.3 149.15 -104.65 149.15 -105.05 149.15 -105.4 149.15 -105.8 149.15 -106.15 149.15 -106.55 149.15 -106.9 149.15 -107.3 149.15 -107.65 149.15 -108.05 149.15 -108.4 149.05 -108.8 148.8 -109.15 148.65 -109.55 148.65 -109.9 148.65 -110.3 148.65 -110.65 148.65 -111.05 148.65 -111.4 148.65 -111.8 148.65 -112.15 148.65 -112.55 148.65 -112.9 148.65 -113.3 148.65 -113.65 148.65 -114.05 148.65 -114.4 148.65 -114.8 148.65 -115.15 148.65 -115.55 148.65 -115.9 148.65 -116.3 148.65 -116.65 148.65 -117.05 148.65 -117.4 148.65 -117.8 148.65 -118.15 148.65 -118.55 148.65 -118.9 148.65 -119.3 148.65 -119.65 148.65 -120.05 148.8 -120.4 149.05 -120.8 149.15 -121.15 149.15 -121.55 149.15 -121.9 149.15 -122.3 149.15 -122.65 149.15 -123.05 149.15 -123.4 149.15 -123.8 149.15 -124.15 149.15 -124.55 149.15 -124.9 149.15 -125.3 149.15 -125.65 149.15 -126.05 149.15 -126.4 149.05 -126.8 148.8 -127.15 148.65 -127.55 148.65 -127.9 148.65 -128.3 148.8 -128.65 148.9 -129.05 149.3 -129.4 149.65 -129.65 149.9 -129.8 150.55 -129.8 150.55 -129.9 151.05 -129.9 M41.9 -151.8 L42.25 -151.4 42.65 -151.05 43.0 -150.65 43.15 -150.3 43.25 -149.9 43.4 -149.55 43.25 -149.15 43.15 -148.8 43.0 -148.4 42.5 -148.05 42.15 -147.8 41.5 -147.65 40.65 -147.9 39.9 -148.3 39.4 -148.55 29.0 -148.65 28.15 -148.9 27.65 -149.3 27.25 -149.65 27.15 -150.05 27.15 -150.4 27.15 -150.8 27.25 -151.15 27.4 -151.55 27.75 -151.9 28.15 -152.15 28.4 -152.3 29.0 -152.3 29.0 -152.4 40.5 -152.4 41.4 -152.15 41.9 -151.8 M65.4 147.9 L69.55 148.15 70.4 148.4 72.05 148.65 72.9 148.9 82.65 148.9 83.4 148.55 83.65 148.15 83.65 147.8 83.8 147.4 83.9 147.05 84.15 146.65 84.3 146.3 84.55 145.9 84.9 145.55 85.4 145.3 86.05 145.3 86.05 145.15 86.9 145.4 87.4 145.8 87.65 146.15 87.8 146.55 87.9 146.9 87.9 147.3 87.9 147.65 92.55 147.65 93.4 147.9 99.55 148.15 100.4 148.4 103.55 148.65 104.4 148.9 114.65 148.9 115.55 148.65 130.05 148.65 130.9 148.9 131.4 149.3 131.65 149.65 131.8 150.05 131.9 150.4 131.9 150.8 131.8 151.15 131.55 151.55 131.3 151.9 130.9 152.15 130.65 152.3 130.05 152.4 116.4 152.65 115.55 152.9 104.05 152.9 103.15 152.65 100.05 152.4 99.15 152.15 93.05 151.9 92.15 151.65 86.3 151.4 85.55 151.8 85.05 152.15 84.55 152.55 84.15 152.8 83.55 152.9 72.55 152.9 71.65 152.65 69.55 152.4 68.65 152.15 64.55 151.9 63.65 151.65 26.5 151.4 26.05 151.3 26.0 151.3 25.4 151.65 24.5 152.05 23.75 152.4 23.4 152.65 23.15 152.8 22.5 152.9 9.0 152.9 8.15 152.65 -3.5 152.4 -4.35 152.15 -34.1 151.9 -34.1 152.3 -34.25 152.65 -34.5 153.05 -34.75 153.4 -35.1 153.65 -35.35 153.8 -36.0 153.9 -41.5 153.9 -42.35 153.65 -69.0 153.4 -69.9 153.15 -86.5 152.9 -87.4 152.65 -88.05 152.35 -88.5 152.4 -101.5 152.4 -102.4 152.15 -114.5 151.9 -115.4 151.65 -119.5 151.4 -120.4 151.15 -134.0 150.9 -134.9 150.65 -135.4 150.3 -135.75 149.9 -135.9 149.55 -135.9 149.15 -135.9 148.8 -135.75 148.4 -135.65 148.05 -135.25 147.65 -134.9 147.4 -134.65 147.3 -134.0 147.3 -134.0 147.15 -119.5 147.15 -118.65 147.4 -115.0 147.65 -114.15 147.9 -101.5 148.15 -100.65 148.4 -89.4 148.65 -89.4 148.55 -89.4 148.15 -89.25 147.8 -89.0 147.4 -88.65 147.05 -88.15 146.8 -87.5 146.8 -87.5 146.65 -86.65 146.9 -86.15 147.3 -85.9 147.65 -85.75 148.05 -85.65 148.4 -85.65 148.8 -85.4 149.05 -69.0 149.15 -68.15 149.4 -41.5 149.65 -40.6 149.9 -36.85 150.1 -36.85 149.8 -36.75 149.4 -36.6 149.05 -36.25 148.65 -35.85 148.4 -35.6 148.3 -35.0 148.15 -3.5 148.15 -2.6 148.4 9.0 148.65 9.9 148.9 21.65 148.9 22.4 148.55 23.15 148.15 23.9 147.8 24.5 147.4 24.9 147.05 25.25 146.65 25.65 146.4 25.9 146.3 26.5 146.3 26.5 146.15 27.4 146.4 27.9 146.8 28.15 147.15 28.25 147.55 28.3 147.65 64.55 147.65 65.4 147.9 M-39.35 -148.9 L-46.0 -149.15 -46.9 -149.4 -53.5 -149.65 -54.4 -149.9 -86.15 -149.9 -86.9 -149.55 -87.25 -149.15 -88.0 -148.8 -88.65 -148.4 -89.5 -148.15 -91.5 -148.15 -92.4 -148.4 -93.0 -148.65 -93.7 -148.85 -93.9 -148.8 -94.5 -148.65 -130.0 -148.65 -130.9 -148.9 -131.4 -149.3 -131.75 -149.65 -131.9 -150.05 -131.9 -150.4 -131.9 -150.8 -131.75 -151.15 -131.65 -151.55 -131.25 -151.9 -130.9 -152.15 -130.65 -152.3 -130.0 -152.3 -130.0 -152.4 -94.5 -152.4 -93.8 -152.2 -93.65 -152.3 -93.0 -152.4 -92.0 -152.4 -91.6 -152.3 -91.0 -152.3 -91.0 -152.4 -90.3 -152.2 -89.65 -152.55 -89.25 -152.9 -88.9 -153.15 -88.65 -153.3 -87.75 -153.55 -87.15 -153.8 -86.5 -153.8 -86.5 -153.9 -54.0 -153.9 -53.15 -153.65 -46.0 -153.4 -45.15 -153.15 -39.0 -152.9 -38.1 -152.65 -35.5 -152.4 -34.6 -152.15 -34.45 -152.05 -34.35 -152.15 -34.1 -152.3 -33.5 -152.4 -31.85 -152.65 -31.1 -153.05 -30.6 -153.3 -30.0 -153.4 -28.85 -153.65 -28.0 -153.8 -28.0 -153.9 -26.0 -153.9 -25.1 -153.65 -24.6 -153.3 -24.35 -152.9 -24.25 -152.55 -24.1 -152.15 -24.1 -151.8 -24.25 -151.4 -24.5 -151.05 -24.75 -150.65 Q-24.95 -150.55 -25.1 -150.4 L-25.35 -150.3 -26.0 -150.15 -27.1 -149.9 -28.0 -149.65 -29.1 -149.4 -30.35 -149.05 -30.85 -148.8 -31.5 -148.65 -33.25 -148.65 -33.6 -148.4 -34.5 -148.15 -35.5 -148.15 -36.35 -148.4 -38.5 -148.65 -39.35 -148.9 M-149.55 -133.3 L-149.55 -133.4 -148.65 -133.15 -148.15 -132.8 -147.9 -132.4 -147.8 -132.05 -147.65 -131.65 -147.65 -131.3 -147.65 -130.9 -147.65 -130.55 -147.65 -130.15 -147.65 -129.8 -147.65 -129.4 -147.65 -129.05 -147.65 -128.65 -147.65 -128.3 -147.65 -127.9 -147.65 -127.55 -147.65 -127.15 -147.65 -126.8 -147.65 -126.4 -147.65 -126.05 -147.65 -125.65 -147.65 -125.3 -147.65 -124.9 -147.65 -124.55 -147.65 -124.15 -147.65 -123.8 -147.3 -123.4 -147.0 -123.05 -146.75 -122.65 -146.65 -122.3 -146.65 -121.9 -146.75 -121.55 -146.9 -121.15 -147.15 -120.8 -147.65 -120.4 -148.55 -120.15 -148.65 -120.15 -148.65 -119.8 -148.65 -119.4 -148.65 -119.05 -148.65 -118.65 -148.65 -118.3 -148.65 -117.9 -148.65 -117.55 -148.65 -117.15 -148.65 -116.8 -148.65 -116.4 -148.65 -116.05 -148.65 -115.65 -148.65 -115.3 -148.65 -114.9 -148.65 -114.55 -148.65 -114.15 -148.65 -113.8 -148.65 -113.4 -148.65 -113.05 -148.65 -112.65 -148.65 -112.3 -148.65 -111.9 -148.65 -111.55 -148.65 -111.15 -148.65 -110.8 -148.65 -110.4 -148.65 -110.05 -148.65 -109.65 -148.65 -109.3 -148.65 -108.9 -148.65 -108.55 -148.65 -108.15 -148.65 -107.8 -148.65 -107.4 -148.65 -107.05 -148.65 -106.65 -148.65 -106.3 -148.65 -105.9 -148.65 -105.55 -148.65 -105.15 -148.65 -104.8 -148.65 -104.4 -148.55 -104.05 -148.3 -103.65 -148.15 -103.3 -148.15 -102.9 -148.15 -102.55 -148.15 -102.15 -148.15 -101.8 -148.15 -101.4 -148.15 -101.05 -148.15 -100.65 -148.15 -100.3 -148.15 -99.9 -148.15 -99.55 -148.15 -99.15 -148.15 -98.8 -148.15 -98.4 -148.15 -98.05 -148.15 -97.65 -148.15 -97.3 -148.15 -96.9 -148.15 -96.55 -148.15 -96.15 -148.15 -95.8 -148.15 -95.4 -148.15 -95.05 -148.15 -94.65 -148.15 -94.3 -148.15 -93.9 -148.15 -93.55 -148.15 -93.15 -148.15 -92.8 -148.15 -92.4 -148.15 -92.05 -148.15 -91.65 -148.15 -91.3 -148.15 -90.9 -148.15 -90.55 -148.15 -90.15 -148.15 -89.8 -148.15 -89.4 -148.15 -89.05 -148.15 -88.65 -148.15 -88.3 -148.15 -87.9 -148.15 -87.55 -148.15 -87.15 -148.15 -86.8 -148.15 -86.4 -148.15 -86.05 -148.15 -85.65 -148.15 -85.3 -148.15 -84.9 -148.15 -84.55 -148.15 -84.15 -148.15 -83.8 -148.15 -83.4 -148.15 -83.05 -148.15 -82.65 -148.15 -82.3 -148.15 -81.9 -148.15 -81.55 -148.15 -81.15 -148.15 -80.8 -148.15 -80.4 -148.15 -80.05 -148.15 -79.65 -148.15 -79.3 -148.15 -78.9 -148.15 -78.55 -148.15 -78.15 -148.15 -77.8 -148.15 -77.4 -148.15 -77.05 -148.15 -76.65 -148.15 -76.25 -147.9 -75.9 -147.8 -75.5 -147.65 -75.15 -147.65 -74.75 -147.65 -74.4 -147.65 -74.0 -147.65 -73.65 -147.65 -73.25 -147.65 -72.9 -147.55 -72.5 -147.3 -72.15 -147.15 -71.75 -147.15 -71.4 -147.15 -71.0 -147.15 -70.65 -147.15 -70.25 -147.3 -69.9 -147.55 -69.5 -147.8 -69.15 -148.15 -68.9 -148.4 -68.75 -148.6 -68.7 -148.4 -68.4 -148.3 -68.0 -148.15 -67.65 -148.15 -67.25 -148.15 -66.9 -148.15 -66.5 -148.15 -66.15 -148.15 -65.75 -148.15 -65.4 -148.15 -65.0 -148.15 -64.65 -148.15 -64.25 -148.15 -63.9 -148.15 -63.5 -148.15 -63.15 -148.15 -62.75 -148.15 -62.4 -148.15 -62.0 -148.15 -61.65 -148.15 -61.25 -148.15 -60.9 -148.15 -60.5 -148.15 -60.15 -148.15 -59.75 -148.15 -59.4 -148.15 -59.0 -148.15 -58.65 -148.15 -58.25 -148.15 -57.9 -148.15 -57.5 -148.15 -57.15 -148.15 -56.75 -148.15 -56.4 -148.15 -56.0 -148.15 -55.65 -148.15 -55.25 -148.15 -54.9 -148.15 -54.5 -148.15 -54.15 -148.15 -53.75 -148.15 -53.4 -148.15 -53.0 -148.15 -52.65 -148.15 -52.25 -148.15 -51.9 -148.15 -51.5 -148.15 -51.15 -148.15 -50.75 -148.15 -50.4 -148.15 -50.0 -148.15 -49.65 -148.15 -49.25 -148.15 -48.9 -148.15 -48.5 -148.15 -48.15 -148.15 -47.75 -148.15 -47.4 -148.15 -47.0 -148.15 -46.65 -148.15 -46.25 -148.15 -45.9 -148.15 -45.5 -148.15 -45.15 -148.15 -44.75 -148.15 -44.4 -148.15 -44.0 -148.15 -43.65 -148.15 -43.25 -148.15 -42.9 -148.15 -42.5 -148.15 -42.15 -148.15 -41.75 -148.15 -41.4 -148.15 -41.0 -148.15 -40.65 -148.15 -40.25 -148.15 -39.9 -148.15 -39.5 -148.15 -39.15 -148.15 -38.75 -148.15 -38.4 -148.15 -38.0 -148.15 -37.65 -148.15 -37.25 -148.15 -36.9 -148.15 -36.5 -148.15 -36.15 -148.15 -35.75 -148.15 -35.4 -148.15 -35.0 -148.15 -34.65 -148.15 -34.25 -148.15 -33.9 -148.15 -33.5 -148.15 -33.15 -148.15 -32.75 -148.15 -32.4 -148.15 -32.0 -148.15 -31.65 -148.15 -31.25 -148.15 -30.9 -148.15 -30.5 -148.15 -30.15 -148.15 -29.75 -148.15 -29.4 -148.15 -29.0 -148.15 -28.65 -148.15 -28.25 -148.15 -27.9 -148.15 -27.5 -148.05 -27.15 -147.9 -26.75 -147.8 -26.4 -147.65 -26.0 -147.65 -25.65 -147.4 -25.25 -146.75 -24.9 -146.5 -24.5 -146.25 -24.15 -146.15 -23.75 -146.15 -23.4 -146.25 -23.0 -146.4 -22.65 -146.65 -22.25 -147.15 -21.9 -147.3 -21.85 -147.55 -21.5 -147.65 -21.15 -147.65 -20.75 -147.65 -20.4 -147.65 -20.0 -147.65 -19.65 -147.65 -19.25 -147.65 -18.9 -147.65 -18.5 -147.65 -18.15 -147.65 -17.75 -147.65 -17.4 -147.65 -17.0 -147.65 -16.65 -147.65 -16.25 -147.65 -15.9 -147.65 -15.5 -147.65 -15.15 -147.65 -14.75 -147.65 -14.4 -147.65 -14.0 -147.65 -13.65 -147.65 -13.25 -147.65 -12.9 -147.65 -12.5 -147.65 -12.15 -147.65 -11.75 -147.65 -11.4 -147.65 -11.0 -147.65 -10.65 -147.65 -10.25 -147.65 -9.9 -147.65 -9.5 -147.65 -9.15 -147.65 -8.75 -147.65 -8.4 -147.65 -8.0 -147.65 -7.65 -147.65 -7.25 -147.65 -6.9 -147.65 -6.5 -147.65 -6.15 -147.65 -5.75 -147.65 -5.4 -147.65 -5.0 -147.65 -4.65 -147.65 -4.25 -147.65 -3.9 -147.65 -3.5 -147.65 -3.15 -147.65 -2.75 -147.65 -2.4 -147.65 -2.0 -147.65 -1.65 -147.65 -1.25 -147.65 -0.9 -147.65 -0.5 -147.65 -0.15 -147.65 0.25 -147.65 0.6 -147.65 1.0 -147.65 1.35 -147.65 1.75 -147.65 2.1 -147.65 2.5 -147.65 2.85 -147.65 3.25 -147.65 3.6 -147.65 4.0 -147.65 4.35 -147.65 4.75 -147.65 5.1 -147.65 5.5 -147.65 5.85 -147.65 6.25 -147.65 6.6 -147.65 7.0 -147.65 7.35 -147.65 7.75 -147.65 8.1 -147.65 8.5 -147.65 8.85 -147.65 9.25 -147.65 9.6 -147.65 10.0 -147.65 10.35 -147.65 10.75 -147.65 11.1 -147.65 11.5 -147.65 11.85 -147.65 12.25 -147.65 12.6 -147.65 13.0 -147.65 13.35 -147.65 13.75 -147.65 14.1 -147.65 14.5 -147.65 14.85 -147.65 15.25 -147.65 15.6 -147.65 16.0 -147.65 16.35 -147.65 16.75 -147.65 17.1 -147.65 17.5 -147.65 17.85 -147.65 18.25 -147.65 18.6 -147.8 19.0 -147.9 19.35 -148.15 19.75 -148.15 20.1 -148.15 20.5 -148.15 20.85 -148.15 21.25 -148.15 21.6 -148.15 22.0 -148.15 22.35 -148.15 22.75 -148.15 23.1 -148.05 23.4 -147.9 23.6 -147.85 23.8 -147.8 23.85 -147.65 24.25 -147.65 24.35 -147.65 24.6 -147.65 24.75 -147.65 25.1 -147.65 25.5 -147.65 25.85 -147.65 26.25 -147.65 26.65 -147.65 27.0 -147.65 27.4 -147.65 27.75 -147.65 28.15 -147.65 28.5 -147.65 28.9 -147.65 29.25 -147.65 29.65 -147.65 30.0 -147.65 30.4 -147.65 30.75 -147.65 31.15 -147.65 31.5 -147.65 31.9 -147.65 32.25 -147.65 32.65 -147.65 33.0 -147.65 33.4 -147.65 33.75 -147.65 34.15 -147.65 34.5 -147.65 34.9 -147.65 35.25 -147.4 35.65 -147.3 36.0 -147.15 36.4 -147.15 36.75 -147.15 37.15 -147.15 37.5 -147.15 37.9 -147.15 38.25 -147.15 38.65 -147.15 39.0 -147.15 39.4 -147.15 39.75 -147.15 40.15 -147.15 40.5 -147.15 40.9 -147.15 41.25 -147.15 41.65 -147.15 42.0 -147.15 42.4 -147.15 42.75 -147.15 43.15 -147.15 43.5 -147.15 43.9 -147.15 44.25 -147.15 44.65 -147.15 45.0 -147.15 45.4 -147.15 45.75 -147.15 46.15 -147.15 46.5 -147.15 46.9 -147.15 47.25 -147.15 47.65 -147.15 48.0 -147.15 48.4 -147.15 48.75 -147.15 49.15 -147.15 49.5 -147.15 49.9 -147.15 50.25 -147.15 50.65 -147.15 51.0 -147.15 51.4 -147.15 51.75 -147.15 52.15 -147.15 52.5 -147.15 52.9 -147.15 53.25 -147.15 53.65 -147.15 54.0 -147.15 54.4 -147.15 54.75 -147.15 55.15 -147.15 55.5 -147.15 55.9 -147.15 56.25 -147.15 56.65 -147.15 57.0 -147.15 57.4 -147.15 57.75 -147.15 58.15 -147.15 58.5 -147.15 58.9 -147.15 59.25 -147.15 59.65 -147.15 60.0 -147.15 60.4 -147.15 60.75 -147.15 61.15 -147.15 61.5 -147.15 61.9 -147.15 62.25 -147.15 62.65 -147.15 63.0 -147.15 63.4 -147.15 63.75 -147.15 64.15 -147.15 64.5 -147.15 64.9 -147.15 65.25 -147.15 65.65 -147.15 66.0 -147.15 66.4 -147.15 66.75 -147.15 67.15 -147.15 67.5 -147.15 67.9 -147.15 68.25 -147.15 68.65 -147.15 69.0 -147.15 69.4 -147.15 69.75 -147.15 70.15 -147.15 70.5 -147.15 70.9 -147.15 71.25 -147.3 71.65 -147.3 72.0 -147.15 72.4 -147.15 72.75 -147.3 73.15 -147.55 73.5 -147.8 73.9 -148.15 74.15 -148.15 74.25 -148.15 74.65 -148.15 75.0 -148.15 75.4 -148.15 75.75 -148.15 76.15 -148.15 76.5 -148.15 76.9 -148.15 77.25 -148.15 77.65 -148.15 78.0 -148.15 78.4 -148.15 78.75 -148.15 79.15 -148.15 79.5 -148.15 79.9 -148.15 80.25 -148.15 80.65 -148.15 81.0 -148.15 81.4 -148.15 81.75 -148.15 82.15 -148.15 82.5 -148.15 82.9 -148.15 83.25 -148.15 83.65 -148.15 84.0 -148.15 84.4 -148.15 84.75 -148.15 85.15 -148.15 85.5 -148.15 85.9 -148.15 86.25 -148.15 86.65 -148.15 87.0 -148.3 87.4 -148.4 87.75 -148.55 88.15 -148.65 88.5 -148.65 88.9 -148.65 89.25 -148.65 89.65 -148.65 90.0 -148.65 90.4 -148.65 90.75 -148.65 91.15 -148.65 91.5 -148.65 91.9 -148.65 92.25 -148.65 92.65 -148.65 93.0 -148.65 93.4 -148.65 93.75 -148.65 94.15 -148.65 94.5 -148.65 94.9 -148.65 95.25 -148.65 95.65 -148.65 96.0 -148.65 96.4 -148.65 96.75 -148.65 97.15 -148.65 97.5 -148.65 97.9 -148.65 98.25 -148.65 98.65 -148.65 99.0 -148.65 99.4 -148.65 99.75 -148.65 100.15 -148.65 100.5 -148.65 100.9 -148.65 101.25 -148.65 101.65 -148.65 102.0 -148.65 102.4 -148.65 102.75 -148.65 103.15 -148.65 103.5 -148.65 103.9 -148.65 104.25 -148.65 104.65 -148.65 105.0 -148.65 105.4 -148.65 105.75 -148.65 106.15 -148.65 106.5 -148.65 106.9 -148.65 107.25 -148.65 107.65 -148.65 108.0 -148.65 108.4 -148.65 108.75 -148.65 109.15 -148.65 109.5 -148.65 109.9 -148.65 110.25 -148.65 110.65 -148.65 111.0 -148.65 111.4 -148.65 111.75 -148.65 112.15 -148.65 112.5 -148.65 112.9 -148.65 113.25 -148.65 113.65 -148.65 114.0 -148.65 114.4 -148.65 114.75 -148.65 115.15 -148.65 115.5 -148.65 115.9 -148.65 116.25 -148.65 116.65 -148.65 117.0 -148.65 117.4 -148.65 117.75 -148.65 118.15 -148.65 118.5 -148.65 118.9 -148.65 119.25 -148.65 119.65 -148.65 120.0 -148.65 120.4 -148.65 120.75 -148.65 121.15 -148.65 121.5 -148.65 121.9 -148.65 122.25 -148.65 122.65 -148.65 123.0 -148.65 123.4 -148.65 123.75 -148.4 124.15 -148.3 124.5 -148.15 124.9 -148.15 125.25 -148.3 125.65 -148.55 126.0 -148.8 126.4 -149.15 126.65 -149.4 126.75 -150.05 126.9 -150.55 126.9 -151.4 126.65 -151.9 126.25 -152.3 125.9 -152.4 125.5 -152.4 125.15 -152.4 124.75 -152.4 124.4 -152.4 124.0 -152.4 123.65 -152.4 123.25 -152.4 122.9 -152.4 122.5 -152.4 122.15 -152.4 121.75 -152.4 121.4 -152.4 121.0 -152.4 120.65 -152.4 120.25 -152.4 119.9 -152.4 119.5 -152.4 119.15 -152.4 118.75 -152.4 118.4 -152.4 118.0 -152.4 117.65 -152.4 117.25 -152.4 116.9 -152.4 116.5 -152.4 116.15 -152.4 115.75 -152.4 115.4 -152.4 115.0 -152.4 114.65 -152.4 114.25 -152.4 113.9 -152.4 113.5 -152.4 113.15 -152.4 112.75 -152.4 112.4 -152.4 112.0 -152.4 111.65 -152.4 111.25 -152.4 110.9 -152.4 110.5 -152.4 110.15 -152.4 109.75 -152.4 109.4 -152.4 109.0 -152.4 108.65 -152.4 108.25 -152.4 107.9 -152.4 107.5 -152.4 107.15 -152.4 106.75 -152.4 106.4 -152.4 106.0 -152.4 105.65 -152.4 105.25 -152.4 104.9 -152.4 104.5 -152.4 104.15 -152.4 103.75 -152.4 103.4 -152.4 103.0 -152.4 102.65 -152.4 102.25 -152.4 101.9 -152.4 101.5 -152.4 101.15 -152.4 100.75 -152.4 100.4 -152.4 100.0 -152.4 99.65 -152.4 99.25 -152.4 98.9 -152.4 98.5 -152.4 98.15 -152.4 97.75 -152.4 97.4 -152.4 97.0 -152.4 96.65 -152.4 96.25 -152.4 95.9 -152.4 95.5 -152.4 95.15 -152.4 94.75 -152.4 94.4 -152.4 94.0 -152.4 93.65 -152.4 93.25 -152.4 92.9 -152.4 92.5 -152.4 92.15 -152.4 91.75 -152.4 91.4 -152.4 91.0 -152.4 90.65 -152.4 90.25 -152.4 89.9 -152.4 89.5 -152.4 89.15 -152.4 88.75 -152.4 88.4 -152.4 88.0 -152.4 87.65 -152.4 87.25 -152.3 86.9 -152.15 86.5 -151.9 86.15 -151.9 85.75 -151.9 85.4 -151.9 85.0 -151.9 84.65 -151.9 84.25 -151.9 83.9 -151.9 83.5 -151.9 83.15 -151.9 82.75 -151.9 82.4 -151.9 82.0 -151.9 81.65 -151.9 81.25 -151.9 80.9 -151.9 80.5 -151.9 80.15 -151.9 79.75 -151.9 79.4 -151.9 79.0 -151.9 78.65 -151.9 78.25 -151.9 77.9 -151.9 77.5 -151.9 77.15 -151.9 76.75 -151.9 76.4 -151.9 76.0 -151.9 75.65 -151.9 75.25 -151.9 74.9 -151.9 74.5 -151.9 74.15 -151.9 73.75 -151.9 73.4 -151.9 73.0 -151.9 72.65 -151.9 72.25 -151.8 71.9 -151.65 71.5 -151.4 71.25 -151.4 71.15 -151.4 70.75 -151.3 70.4 -151.15 70.0 -150.9 69.65 -150.9 69.25 -150.9 68.9 -150.9 68.5 -150.9 68.15 -150.9 67.75 -150.9 67.4 -150.9 67.0 -150.9 66.65 -150.9 66.25 -150.9 65.9 -150.9 65.5 -150.9 65.15 -150.9 64.75 -150.9 64.4 -150.9 64.0 -150.9 63.65 -150.9 63.25 -150.9 62.9 -150.9 62.5 -150.9 62.15 -150.9 61.75 -150.9 61.4 -150.9 61.0 -150.9 60.65 -150.9 60.25 -150.9 59.9 -150.9 59.5 -150.9 59.15 -150.9 58.75 -150.9 58.4 -150.9 58.0 -150.9 57.65 -150.9 57.25 -150.9 56.9 -150.9 56.5 -150.9 56.15 -150.9 55.75 -150.9 55.4 -150.9 55.0 -150.9 54.65 -150.9 54.25 -150.9 53.9 -150.9 53.5 -150.9 53.15 -150.9 52.75 -150.9 52.4 -150.9 52.0 -150.9 51.65 -150.9 51.25 -150.9 50.9 -150.9 50.5 -150.9 50.15 -150.9 49.75 -150.9 49.4 -150.9 49.0 -150.9 48.65 -150.9 48.25 -150.9 47.9 -150.9 47.5 -150.9 47.15 -150.9 46.75 -150.9 46.4 -150.9 46.0 -150.9 45.65 -150.9 45.25 -150.9 44.9 -150.9 44.5 -150.9 44.15 -150.9 43.75 -150.9 43.4 -150.9 43.0 -150.9 42.65 -150.9 42.25 -150.9 41.9 -150.9 41.5 -150.9 41.15 -150.9 40.75 -150.9 40.4 -150.9 40.0 -150.9 39.65 -150.9 39.25 -150.9 38.9 -150.9 38.5 -150.9 38.15 -151.05 37.75 -151.3 37.4 -151.4 37.0 -151.4 36.65 -151.4 36.25 -151.4 35.9 -151.4 35.5 -151.4 35.15 -151.4 34.75 -151.4 34.4 -151.4 34.0 -151.4 33.65 -151.4 33.25 -151.4 32.9 -151.4 32.5 -151.4 32.15 -151.4 31.75 -151.4 31.4 -151.4 31.0 -151.4 30.65 -151.4 30.25 -151.4 29.9 -151.4 29.5 -151.4 29.15 -151.4 28.75 -151.4 28.4 -151.4 28.0 -151.4 27.65 -151.4 27.25 -151.4 26.9 -151.4 26.5 -151.4 26.15 -151.4 25.75 -151.8 25.35 -151.9 25.0 -151.9 24.6 -151.9 24.25 -151.9 23.85 -151.9 23.5 -151.9 23.1 -151.9 22.75 -151.9 22.35 -151.9 22.0 -151.9 21.6 -151.9 21.25 -151.9 20.85 -151.9 20.5 -151.9 20.1 -151.9 19.75 -151.9 19.35 -151.9 19.0 -151.9 18.6 -151.9 18.25 -151.8 17.85 -151.65 17.5 -151.4 17.1 -151.4 16.75 -151.4 16.35 -151.4 16.0 -151.4 15.6 -151.4 15.25 -151.4 14.85 -151.4 14.5 -151.4 14.1 -151.4 13.75 -151.4 13.35 -151.4 13.0 -151.4 12.6 -151.4 12.25 -151.4 11.85 -151.4 11.5 -151.4 11.1 -151.4 10.75 -151.4 10.35 -151.4 10.0 -151.4 9.6 -151.4 9.25 -151.4 8.85 -151.4 8.5 -151.4 8.1 -151.4 7.75 -151.4 7.35 -151.4 7.0 -151.4 6.6 -151.4 6.25 -151.4 5.85 -151.4 5.5 -151.4 5.1 -151.4 4.75 -151.4 4.35 -151.4 4.0 -151.4 3.6 -151.4 3.25 -151.4 2.85 -151.4 2.5 -151.4 2.1 -151.4 1.75 -151.4 1.35 -151.4 1.0 -151.4 0.6 -151.4 0.25 -151.4 -0.15 -151.4 -0.5 -151.4 -0.9 -151.4 -1.25 -151.4 -1.65 -151.4 -2.0 -151.4 -2.4 -151.4 -2.75 -151.4 -3.15 -151.4 -3.5 -151.4 -3.9 -151.4 -4.25 -151.4 -4.65 -151.4 -5.0 -151.4 -5.4 -151.4 -5.75 -151.4 -6.15 -151.4 -6.5 -151.4 -6.9 -151.4 -7.25 -151.4 -7.65 -151.4 -8.0 -151.4 -8.4 -151.4 -8.75 -151.4 -9.15 -151.4 -9.5 -151.4 -9.9 -151.4 -10.25 -151.4 -10.65 -151.4 -11.0 -151.4 -11.4 -151.4 -11.75 -151.4 -12.15 -151.4 -12.5 -151.4 -12.9 -151.4 -13.25 -151.4 -13.65 -151.4 -14.0 -151.4 -14.4 -151.4 -14.75 -151.4 -15.15 -151.4 -15.5 -151.4 -15.9 -151.4 -16.25 -151.4 -16.65 -151.4 -17.0 -151.4 -17.4 -151.4 -17.75 -151.4 -18.15 -151.4 -18.5 -151.4 -18.9 -151.4 -19.25 -151.4 -19.65 -151.4 -20.0 -151.4 -20.4 -151.4 -20.75 -151.4 -21.15 -151.4 -21.5 -151.4 -21.9 -151.4 -22.25 -151.4 -22.65 -151.4 -23.0 -151.3 -23.4 -151.4 -23.75 -151.4 -24.15 -151.4 -24.5 -151.55 -24.9 -151.8 -25.25 -151.9 -25.65 -151.9 -26.0 -151.9 -26.4 -151.9 -26.75 -151.9 -27.15 -151.9 -27.5 -151.9 -27.9 -151.9 -28.25 -151.9 -28.65 -151.9 -29.0 -151.9 -29.4 -151.9 -29.75 -151.9 -30.15 -151.9 -30.5 -151.9 -30.9 -151.9 -31.25 -151.9 -31.65 -151.9 -32.0 -151.9 -32.4 -151.9 -32.75 -151.9 -33.15 -151.9 -33.5 -151.9 -33.9 -151.9 -34.25 -151.9 -34.65 -151.9 -35.0 -151.9 -35.4 -151.9 -35.75 -151.9 -36.15 -151.9 -36.5 -151.9 -36.9 -151.9 -37.25 -151.9 -37.65 -151.9 -38.0 -151.9 -38.4 -151.9 -38.75 -151.9 -39.15 -151.9 -39.5 -151.9 -39.9 -151.9 -40.25 -151.9 -40.65 -151.9 -41.0 -151.9 -41.4 -151.9 -41.75 -151.9 -42.15 -151.9 -42.5 -151.9 -42.9 -151.9 -43.25 -151.9 -43.65 -151.9 -44.0 -151.9 -44.4 -151.9 -44.75 -151.9 -45.15 -151.9 -45.5 -151.9 -45.9 -151.9 -46.25 -151.9 -46.65 -151.9 -47.0 -151.9 -47.4 -151.9 -47.75 -151.9 -48.15 -151.9 -48.5 -151.9 -48.9 -151.9 -49.25 -151.9 -49.65 -151.9 -50.0 -151.9 -50.4 -151.9 -50.75 -151.9 -51.15 -151.9 -51.5 -151.9 -51.9 -151.9 -52.25 -151.9 -52.65 -151.9 -53.0 -151.9 -53.4 -151.9 -53.75 -151.9 -54.15 -151.9 -54.5 -151.9 -54.9 -151.9 -55.25 -151.9 -55.65 -151.9 -56.0 -151.9 -56.4 -151.9 -56.75 -151.9 -57.15 -151.9 -57.5 -151.9 -57.9 -151.9 -58.25 -151.9 -58.65 -151.9 -59.0 -151.9 -59.4 -151.9 -59.75 -151.9 -60.15 -151.9 -60.5 -151.9 -60.9 -151.9 -61.25 -151.9 -61.65 -151.9 -62.0 -151.9 -62.4 -151.9 -62.75 -151.9 -63.15 -151.9 -63.5 -151.9 -63.9 -151.9 -64.25 -151.9 -64.65 -151.9 -65.0 -151.9 -65.4 -151.9 -65.75 -151.9 -66.15 -152.15 -66.5 -152.3 -66.9 -152.4 -67.25 -152.4 -67.65 -152.4 -68.0 -152.4 -68.4 -152.4 -68.75 -152.4 -69.15 -152.4 -69.5 -152.3 -69.9 -151.9 -70.25 -151.4 -70.65 -151.2 -70.65 -151.3 -70.75 -151.4 -71.15 -151.4 -71.5 -151.4 -71.9 -151.4 -72.25 -151.4 -72.65 -151.4 -73.0 -151.4 -73.4 -151.4 -73.75 -151.4 -74.15 -151.65 -74.5 -151.8 -74.9 -151.9 -75.25 -151.9 -75.65 -151.9 -76.0 -151.9 -76.4 -151.9 -76.8 -151.9 -77.15 -151.9 -77.55 -151.9 -77.9 -151.9 -78.3 -151.9 -78.65 -151.9 -79.05 -151.9 -79.4 -151.9 -79.8 -151.9 -80.15 -151.9 -80.55 -151.9 -80.9 -151.9 -81.3 -151.9 -81.65 -151.9 -82.05 -151.9 -82.4 -151.9 -82.8 -151.9 -83.15 -151.9 -83.55 -151.9 -83.9 -151.9 -84.3 -151.9 -84.65 -151.9 -85.05 -151.9 -85.4 -151.9 -85.8 -151.9 -86.15 -151.9 -86.55 -151.9 -86.9 -151.9 -87.3 -151.9 -87.65 -151.9 -88.05 -151.9 -88.4 -151.9 -88.8 -151.9 -89.15 -151.9 -89.55 -151.9 -89.9 -151.9 -90.3 -151.9 -90.65 -151.9 -91.05 -151.9 -91.4 -151.9 -91.8 -151.9 -92.15 -151.9 -92.55 -151.9 -92.9 -151.9 -93.3 -151.9 -93.65 -151.9 -94.05 -151.9 -94.4 -151.9 -94.8 -151.9 -95.15 -151.9 -95.55 -151.9 -95.9 -151.9 -96.3 -151.9 -96.65 -151.9 -97.05 -151.9 -97.4 -151.9 -97.8 -151.9 -98.15 -151.9 -98.55 -151.9 -98.9 -151.9 -99.3 -151.9 -99.65 -151.9 -100.05 -151.9 -100.4 -151.9 -100.8 -151.9 -101.15 -151.9 -101.55 -152.05 -101.9 -152.3 -102.3 -152.4 -102.65 -152.4 -103.05 -152.4 -103.4 -152.4 -103.8 -152.4 -104.15 -152.4 -104.55 -152.4 -104.9 -152.4 -105.3 -152.4 -105.65 -152.4 -106.05 -152.4 -106.4 -152.4 -106.8 -152.4 -107.15 -152.4 -107.55 -152.4 -107.9 -152.4 -108.3 -152.4 -108.65 -152.4 -109.05 -152.4 -109.4 -152.4 -109.8 -152.4 -110.15 -152.4 -110.55 -152.4 -110.9 -152.4 -111.3 -152.4 -111.65 -152.4 -112.05 -152.4 -112.4 -152.4 -112.8 -152.4 -113.15 -152.4 -113.55 -152.4 -113.9 -152.4 -114.3 -152.4 -114.65 -152.4 -115.05 -152.4 -115.4 -152.4 -115.8 -152.4 -116.15 -152.4 -116.55 -152.4 -116.9 -152.4 -117.3 -152.4 -117.65 -152.4 -118.05 -152.4 -118.4 -152.4 -118.8 -152.4 -119.15 -152.4 -119.55 -152.4 -119.9 -152.4 -120.3 -152.3 -120.65 -152.15 -121.05 -151.8 -121.4 -151.4 -121.65 -151.2 -121.75 -151.3 -121.9 -151.4 -122.3 -151.4 -122.65 -151.4 -123.05 -151.4 -123.4 -151.4 -123.8 -151.4 -124.15 -151.4 -124.55 -151.4 -124.9 -151.4 -125.3 -151.4 -125.65 -151.4 -126.05 -151.4 -126.4 -151.4 -126.8 -151.4 -127.15 -151.4 -127.55 -151.4 -127.9 -151.4 -128.3 -151.4 -128.65 -151.4 -129.05 -151.4 -129.4 -151.4 -129.8 -151.4 -130.15 -151.4 -130.55 -151.4 -130.9 -151.4 -131.3 -151.4 -131.65 -151.4 -132.05 -151.3 -132.4 -150.9 -132.8 -150.4 -133.15 -149.55 -133.3" fill="#000000" fill-rule="evenodd" stroke="none"/>
  </g>
</svg>
