<?xml version="1.0" encoding="UTF-8" standalone="no"?>
<svg xmlns:ffdec="https://www.free-decompiler.com/flash" xmlns:xlink="http://www.w3.org/1999/xlink" ffdec:objectType="shape" height="65.6px" width="56.15px" xmlns="http://www.w3.org/2000/svg">
  <g transform="matrix(1.0, 0.0, 0.0, 1.0, 45.6, 52.1)">
    <path d="M5.5 -30.35 Q2.75 -30.35 2.1 -32.35 1.8 -33.35 2.0 -34.5 L1.1 -36.0 Q-2.6 -31.35 -4.0 -31.35 -7.1 -31.35 -7.1 -34.75 -7.1 -35.85 -4.0 -40.35 L-2.9 -41.9 -4.2 -43.5 Q-7.1 -47.2 -7.1 -48.0 -7.1 -56.45 1.0 -47.45 2.3 -48.8 4.45 -49.85 8.55 -51.85 8.55 -47.4 8.55 -46.5 5.35 -41.85 L6.55 -39.95 Q9.05 -35.85 9.05 -34.4 9.05 -32.45 8.5 -31.6 7.7 -30.35 5.5 -30.35 M2.6 -10.75 Q4.55 -13.4 7.1 -14.35 10.55 -15.65 10.55 -11.75 10.55 -10.45 6.95 -5.3 L7.05 -5.15 Q9.55 -1.25 9.55 0.95 9.55 2.1 8.8 3.0 7.9 4.05 6.25 4.05 4.0 4.05 2.0 1.1 -1.4 5.05 -3.0 5.05 -5.4 5.05 -6.25 3.55 -6.65 2.8 -6.6 1.95 -6.6 1.5 -3.35 -2.5 L-1.0 -5.35 Q-2.05 -7.2 -4.1 -8.25 -6.6 -9.5 -6.6 -11.4 -6.6 -15.4 -4.1 -15.15 -1.9 -14.95 1.5 -11.8 L2.6 -10.75 M-40.9 -47.6 L-35.85 -43.1 Q-32.9 -38.7 -27.75 -32.75 -27.05 -33.4 -22.95 -40.15 -18.55 -46.6 -15.75 -46.6 -13.75 -46.6 -12.85 -45.1 -12.35 -44.25 -12.35 -43.4 -12.35 -43.0 -15.05 -39.2 L-18.85 -33.85 Q-19.55 -31.6 -20.95 -29.65 -23.7 -25.85 -28.0 -25.85 -31.65 -25.85 -39.0 -35.95 -42.65 -41.0 -45.6 -45.9 -45.6 -50.75 -40.9 -47.6" fill="#4b4b4b" fill-opacity="0.47058824" fill-rule="evenodd" stroke="none"/>
    <path d="M-29.5 13.35 L-29.0 13.35 -26.7 13.5 -36.9 13.5 Q-34.65 13.1 -32.05 13.45 L-31.5 13.4 -29.5 13.35" fill="#533f11" fill-opacity="0.49803922" fill-rule="evenodd" stroke="none"/>
  </g>
</svg>
