<?xml version="1.0" encoding="UTF-8" standalone="no"?>
<svg xmlns:ffdec="https://www.free-decompiler.com/flash" xmlns:xlink="http://www.w3.org/1999/xlink" ffdec:objectType="shape" height="80.7px" width="76.0px" xmlns="http://www.w3.org/2000/svg">
  <g transform="matrix(1.0, 0.0, 0.0, 1.0, 436.5, 20.0)">
    <path d="M-425.75 -19.9 L-425.0 -19.95 -425.0 -20.0 Q-423.4 -19.95 -421.95 -19.1 -420.6 -18.35 -419.65 -17.15 L-419.4 -16.75 -419.25 -16.4 -419.15 -16.0 -419.0 -15.65 -419.0 -14.9 -419.0 -14.15 -419.0 -13.0 -419.0 -12.25 -419.15 -11.9 -419.3 -11.5 -419.5 -11.15 -419.5 -10.75 -419.5 -10.4 -419.5 -10.0 -419.5 -9.65 -419.5 -9.25 -419.65 -8.9 -419.8 -8.5 -420.0 -8.15 -420.0 -7.75 -420.0 -7.4 -420.15 -7.0 -420.25 -6.65 -420.4 -6.25 -420.5 -5.9 -420.5 -4.75 -420.5 -3.25 -420.5 -0.65 -419.65 1.55 Q-418.35 4.35 -415.5 5.75 -407.1 6.9 -398.75 5.3 L-386.55 4.8 Q-383.25 5.15 -380.5 7.0 -377.8 7.95 -375.7 9.95 L-372.65 12.85 -372.4 13.25 -372.25 13.6 -372.0 14.0 Q-368.85 17.15 -366.8 21.1 -364.9 24.7 -363.5 28.6 L-363.5 29.0 -363.5 29.35 -363.5 29.75 -363.45 30.1 -363.3 30.5 -363.15 30.85 -363.0 31.25 -363.0 31.6 -363.0 32.0 -362.35 33.45 -361.7 35.3 -361.0 37.25 -361.0 37.6 -361.0 38.0 -361.0 38.35 -361.0 38.75 -360.95 39.1 -360.8 39.5 -360.65 39.85 -360.5 40.25 -360.5 42.1 -360.5 45.5 -360.5 47.75 -360.65 48.1 -360.8 48.5 -361.0 48.85 -361.0 49.25 -361.0 49.6 -361.45 50.7 -362.15 52.25 -363.0 54.5 -363.0 54.85 -363.0 55.25 Q-364.9 58.75 -368.9 59.9 -375.85 61.95 -381.9 58.6 L-383.4 57.1 -385.25 55.25 -386.0 54.5 -386.65 53.35 -387.2 52.2 -388.0 50.35 -388.0 50.0 -388.0 49.6 -388.25 49.25 -388.4 48.85 -388.5 48.5 -388.5 48.1 -388.5 47.75 -388.65 47.4 -388.85 47.0 -389.0 46.6 -389.0 43.6 -389.0 38.0 -389.0 36.5 -389.05 36.15 -389.25 35.75 -389.4 35.35 -389.5 35.0 -389.5 34.25 -389.5 33.85 -389.5 33.5 -389.5 32.75 -389.5 32.35 -389.65 32.0 -389.75 31.6 -389.9 31.25 -390.0 30.85 -390.0 30.5 -390.0 30.1 -390.6 29.35 -391.0 28.6 -391.35 27.85 -391.5 27.5 -391.9 27.1 -392.25 26.75 -392.65 26.35 -392.9 26.1 -416.55 24.2 Q-417.9 24.05 -419.15 23.25 L-420.25 22.6 -421.0 22.5 -422.15 22.25 -422.65 21.85 -423.15 21.5 -423.9 21.1 -424.25 20.75 -424.65 20.4 -425.15 20.0 -425.9 19.6 -427.0 18.5 -428.5 17.0 -429.25 16.25 -429.4 15.85 -429.5 15.5 -429.9 15.1 -430.25 14.75 -430.4 14.35 -430.5 14.0 -430.9 13.6 -431.25 13.25 -431.4 12.85 -431.5 12.5 -431.9 12.1 -432.25 11.75 -432.65 11.35 -433.4 9.9 -434.65 7.2 -435.5 5.35 -435.5 4.6 -435.5 4.25 -435.5 3.85 -435.5 3.1 -435.5 2.75 -435.8 2.0 -436.05 1.25 -436.35 0.5 -436.5 0.1 -436.5 -1.75 -436.5 -5.15 -436.5 -7.0 -435.15 -9.75 -432.25 -14.1 -432.0 -14.5 -430.85 -15.6 -429.75 -16.75 -429.0 -17.5 -428.9 -17.9 -428.75 -18.25 -428.4 -18.65 -428.0 -19.0 -427.6 -19.25 -427.25 -19.35 -426.4 -19.65 -425.75 -19.9 M-425.4 -8.4 L-425.25 -8.75 -425.0 -9.15 -425.0 -9.5 -425.0 -9.9 -424.9 -10.25 -424.75 -10.65 -424.65 -11.0 -424.5 -11.4 -424.5 -11.75 -424.5 -12.15 -424.5 -12.5 Q-424.35 -13.1 -424.35 -13.65 -424.3 -13.95 -424.7 -14.15 L-425.0 -14.15 Q-427.4 -12.0 -428.95 -9.3 -430.15 -7.15 -431.5 -5.15 L-431.5 -4.0 -431.5 -2.9 -431.5 -2.15 -431.4 -1.75 -431.25 -1.4 -431.15 -1.0 -431.0 -0.65 -431.0 -0.25 -431.0 0.1 -430.8 0.5 -430.65 0.85 -430.5 1.25 -430.5 2.0 -430.5 2.75 -430.5 3.5 -429.6 5.35 -428.85 7.25 -428.75 7.6 -428.15 8.4 -427.75 9.1 -427.5 9.5 -426.75 10.25 -426.0 11.0 -425.65 11.75 -425.25 12.5 -425.15 12.85 Q-421.6 17.15 -416.35 18.85 -415.4 19.2 -414.5 19.75 -402.75 19.75 -391.3 21.55 -390.4 21.7 -389.6 22.35 -385.9 25.45 -384.5 30.1 L-384.5 31.25 -384.5 32.35 -384.5 33.5 -384.35 33.85 -384.15 34.25 -384.0 34.6 -384.0 38.75 -384.0 43.6 -384.0 44.35 -383.9 44.75 -383.75 45.1 -383.65 45.5 -383.5 45.85 -383.5 46.25 -383.5 46.6 -383.3 47.0 -383.15 47.35 -383.0 47.75 -383.0 48.1 -383.0 48.5 -382.85 48.85 -382.65 49.25 -382.55 49.6 -382.5 50.0 -381.9 50.75 -381.5 51.5 -380.0 53.0 -378.5 54.5 Q-374.8 56.05 -370.65 55.25 L-369.5 54.5 -368.9 54.1 -368.6 53.7 -368.5 53.35 -368.4 52.6 -368.2 52.25 -367.9 51.85 -367.5 51.5 Q-367.25 50.7 -366.8 50.05 L-366.1 48.5 -366.0 48.1 -366.0 47.75 -366.0 47.35 -365.85 47.0 -365.65 46.6 -365.5 46.25 -365.5 44.35 -365.5 42.5 -365.5 41.75 -365.65 41.4 -365.85 41.0 -366.0 40.6 -366.0 39.85 -366.0 39.1 -366.0 38.75 -366.95 36.45 -367.85 33.85 -368.0 33.5 -368.0 33.1 -368.0 32.75 -368.15 32.4 -368.35 32.0 -368.5 31.6 -368.5 31.25 -368.5 30.85 -368.5 30.5 -369.15 28.65 -370.15 26.4 -370.4 26.0 -370.5 25.6 -370.5 25.25 -372.9 21.5 -375.25 17.75 Q-385.15 6.1 -400.45 10.15 -409.0 12.4 -417.65 10.75 -420.05 9.3 -422.1 7.35 L-423.65 5.85 -424.6 4.05 -425.4 1.75 -425.5 1.35 -425.5 -2.75 -425.5 -7.25 -425.5 -8.0 -425.4 -8.4" fill="#000000" fill-rule="evenodd" stroke="none"/>
    <path d="M-425.4 -8.4 L-425.5 -8.0 -425.5 -7.25 -425.5 -2.75 -425.5 1.35 -425.4 1.75 -424.6 4.05 -423.65 5.85 -422.1 7.35 Q-420.05 9.3 -417.65 10.75 -409.0 12.4 -400.45 10.15 -385.15 6.1 -375.25 17.75 L-372.9 21.5 -370.5 25.25 -370.5 25.6 -370.4 26.0 -370.15 26.4 -369.15 28.65 -368.5 30.5 -368.5 30.85 -368.5 31.25 -368.5 31.6 -368.35 32.0 -368.15 32.4 -368.0 32.75 -368.0 33.1 -368.0 33.5 -367.85 33.85 -366.95 36.45 -366.0 38.75 -366.0 39.1 -366.0 39.85 -366.0 40.6 -365.85 41.0 -365.65 41.4 -365.5 41.75 -365.5 42.5 -365.5 44.35 -365.5 46.25 -365.65 46.6 -365.85 47.0 -366.0 47.35 -366.0 47.75 -366.0 48.1 -366.1 48.5 -366.8 50.05 Q-367.25 50.7 -367.5 51.5 L-367.9 51.85 -368.2 52.25 -368.4 52.6 -368.5 53.35 -368.6 53.7 -368.9 54.1 -369.5 54.5 -370.65 55.25 Q-374.8 56.05 -378.5 54.5 L-380.0 53.0 -381.5 51.5 -381.9 50.75 -382.5 50.0 -382.55 49.6 -382.65 49.25 -382.85 48.85 -383.0 48.5 -383.0 48.1 -383.0 47.75 -383.15 47.35 -383.3 47.0 -383.5 46.6 -383.5 46.25 -383.5 45.85 -383.65 45.5 -383.75 45.1 -383.9 44.75 -384.0 44.35 -384.0 43.6 -384.0 38.75 -384.0 34.6 -384.15 34.25 -384.35 33.85 -384.5 33.5 -384.5 32.35 -384.5 31.25 -384.5 30.1 Q-385.9 25.45 -389.6 22.35 -390.4 21.7 -391.3 21.55 -402.75 19.75 -414.5 19.75 -415.4 19.2 -416.35 18.85 -421.6 17.15 -425.15 12.85 L-425.25 12.5 -425.65 11.75 -426.0 11.0 -426.75 10.25 -427.5 9.5 -427.75 9.1 -428.15 8.4 -428.75 7.6 -428.85 7.25 -429.6 5.35 -430.5 3.5 -430.5 2.75 -430.5 2.0 -430.5 1.25 -430.65 0.85 -430.8 0.5 -431.0 0.1 -431.0 -0.25 -431.0 -0.65 -431.15 -1.0 -431.25 -1.4 -431.4 -1.75 -431.5 -2.15 -431.5 -2.9 -431.5 -4.0 -431.5 -5.15 Q-430.15 -7.15 -428.95 -9.3 -427.4 -12.0 -425.0 -14.15 L-424.7 -14.15 Q-424.3 -13.95 -424.35 -13.65 -424.35 -13.1 -424.5 -12.5 L-424.5 -12.15 -424.5 -11.75 -424.5 -11.4 -424.65 -11.0 -424.75 -10.65 -424.9 -10.25 -425.0 -9.9 -425.0 -9.5 -425.0 -9.15 -425.25 -8.75 -425.4 -8.4" fill="#80a839" fill-rule="evenodd" stroke="none"/>
  </g>
</svg>
