<?xml version="1.0" encoding="UTF-8" standalone="no"?>
<svg xmlns:ffdec="https://www.free-decompiler.com/flash" xmlns:xlink="http://www.w3.org/1999/xlink" ffdec:objectType="shape" height="37.05px" width="40.55px" xmlns="http://www.w3.org/2000/svg">
  <g transform="matrix(1.0, 0.0, 0.0, 1.0, 50.6, 14.25)">
    <path d="M-46.85 -0.9 L-46.9 -0.85 -46.8 -0.75 -46.8 -0.8 -46.85 -0.9 M-48.35 -6.75 L-48.3 -6.95 -48.25 -7.15 -48.15 -7.35 -46.4 -9.5 Q-41.9 -15.15 -34.1 -14.1 L-33.55 -14.15 Q-28.65 -14.45 -24.15 -13.15 L-20.5 -12.45 Q-18.45 -12.25 -16.75 -11.2 L-16.6 -11.0 -16.5 -10.85 -16.4 -10.65 -16.35 -10.3 Q-15.1 -8.9 -14.25 -7.2 L-13.7 -6.8 -12.5 -5.55 -11.9 -4.6 -11.8 -4.4 -11.65 -4.1 -11.55 -3.65 -11.4 -3.45 -10.45 -2.35 -10.35 -2.25 Q-10.05 -1.9 -10.05 -1.4 L-10.05 -1.05 -10.1 -0.85 -10.5 -0.1 -11.5 0.35 Q-11.9 1.7 -12.8 2.85 -13.7 4.0 -14.85 4.8 L-18.85 10.3 -20.4 12.85 -20.7 13.05 -21.2 13.45 -21.4 13.6 Q-23.6 17.35 -26.75 20.25 -27.95 21.35 -29.55 21.85 L-29.9 21.85 -30.1 22.25 -30.25 22.4 -30.5 22.6 -30.75 22.7 -31.05 22.8 -31.55 22.8 -31.85 22.7 -32.25 22.55 -38.95 14.8 Q-40.7 12.75 -41.6 10.15 L-41.8 9.95 -41.9 9.8 -42.0 9.6 -42.05 9.4 -42.1 9.25 Q-44.2 6.3 -46.55 3.5 -47.95 1.75 -49.85 0.6 L-50.05 0.05 -50.0 -0.65 -50.05 -1.8 -50.3 -2.1 -50.6 -2.85 Q-50.65 -3.45 -50.3 -3.95 L-50.0 -4.35 -48.9 -6.0 -48.35 -6.75 M-46.75 -1.65 L-46.75 -1.8 -46.7 -2.35 -46.75 -1.65 M-44.75 -0.5 Q-44.1 -0.6 -43.55 -1.0 L-43.0 -1.8 -42.4 -1.1 -41.95 -0.25 -41.75 0.0 Q-38.3 2.95 -35.8 7.0 L-32.3 10.95 Q-30.8 12.6 -30.15 14.5 L-29.8 15.0 -29.8 15.15 -29.85 15.45 -29.85 15.55 -29.85 15.9 -29.75 15.95 -29.45 15.4 -29.25 14.55 Q-27.9 12.3 -26.1 10.45 L-24.55 8.9 -24.5 8.7 -24.5 8.55 -21.7 5.35 -20.4 3.85 Q-20.15 2.7 -19.4 1.85 L-18.15 0.65 -17.95 0.3 -17.4 -0.4 -17.15 -0.65 -16.85 -0.75 -16.7 -0.8 -17.05 0.4 -16.5 1.55 -16.1 1.7 -15.55 1.85 Q-15.0 1.75 -14.6 1.45 -15.0 1.1 -15.0 0.3 L-14.5 -0.6 Q-14.05 -1.35 -14.05 -1.75 L-15.25 -3.4 -16.65 -5.25 Q-17.5 -7.45 -18.85 -8.8 L-39.0 -9.0 Q-39.2 -8.15 -40.35 -7.05 L-42.9 -4.5 -43.8 -2.05 Q-44.2 -0.95 -44.75 -0.5 M-38.15 10.45 L-37.25 11.95 -36.85 11.95 -38.15 10.45" fill="#4d4d4d" fill-rule="evenodd" stroke="none"/>
  </g>
</svg>
