<?xml version="1.0" encoding="UTF-8" standalone="no"?>
<svg xmlns:ffdec="https://www.free-decompiler.com/flash" xmlns:xlink="http://www.w3.org/1999/xlink" ffdec:objectType="shape" height="18.1px" width="21.45px" xmlns="http://www.w3.org/2000/svg">
  <g transform="matrix(1.0, 0.0, 0.0, 1.0, 10.7, 9.1)">
    <path d="M8.85 -5.65 L9.1 -5.4 9.2 -5.2 9.4 -4.8 9.65 -4.35 9.65 -4.25 9.65 -3.95 9.65 -3.75 9.65 -3.6 9.7 -3.55 9.75 -3.35 9.85 -3.1 9.75 -2.8 9.4 -2.25 9.15 -1.75 9.1 -1.75 8.75 -1.15 8.6 -1.1 7.95 -0.65 7.05 0.4 6.95 0.5 6.95 0.55 5.7 2.75 5.65 2.8 5.65 2.85 5.1 3.2 Q4.25 4.5 2.95 5.45 L2.0 6.3 1.55 6.85 Q1.1 7.4 0.8 8.05 L0.65 8.0 0.55 8.0 0.5 7.95 0.4 7.85 0.3 7.7 0.25 7.65 0.15 7.45 0.1 7.3 0.1 7.2 0.1 7.0 0.15 6.7 0.25 6.35 0.4 6.2 3.1 1.65 4.3 -1.0 5.15 -3.5 5.15 -3.6 5.15 -3.7 5.15 -3.8 5.15 -3.9 5.15 -3.95 5.15 -4.05 5.1 -4.15 5.05 -4.25 5.0 -4.35 4.95 -4.45 4.7 -4.6 4.3 -5.0 4.05 -5.4 3.65 -5.65 Q3.15 -5.85 2.95 -6.3 L2.85 -6.6 2.85 -6.7 2.85 -6.8 2.85 -6.85 2.85 -7.05 2.9 -7.15 3.0 -7.35 3.2 -7.5 3.35 -7.65 3.85 -7.75 4.0 -7.7 4.4 -7.55 4.75 -7.45 4.85 -7.6 5.2 -7.85 5.65 -8.0 6.65 -7.75 7.85 -6.8 7.95 -6.7 8.85 -5.65 M9.65 -3.95 L6.65 -7.75 9.65 -3.95 M7.95 -0.65 L9.75 -2.8 7.95 -0.65 M2.0 6.3 L6.95 0.55 2.0 6.3 M0.55 8.0 L1.55 6.85 0.55 8.0" fill="#990000" fill-rule="evenodd" stroke="none"/>
    <path d="M7.95 -6.7 L8.45 -6.2 8.6 -6.0 8.75 -5.8 8.85 -5.65 7.95 -6.7 M9.15 -1.75 L8.85 -1.2 8.75 -1.15 9.1 -1.75 9.15 -1.75 M0.3 7.7 L0.05 7.75 0.25 7.65 0.3 7.7 M-1.9 6.15 L-1.95 6.05 -1.95 6.0 -1.9 6.1 -1.9 6.15 M-8.45 -4.5 L-8.45 -4.6 -8.4 -4.8 -8.3 -5.0 -8.25 -5.2 -7.75 -5.75 -7.3 -6.05 -7.4 -5.95 -7.85 -5.5 -8.1 -5.2 -8.1 -5.15 -8.15 -5.05 -8.15 -4.95 -8.15 -4.85 -8.45 -4.5" fill="#00ccff" fill-rule="evenodd" stroke="none"/>
    <path d="M-6.4 -7.05 L-5.95 -7.55 -5.05 -7.95 -4.7 -8.0 1.8 -7.8 3.2 -7.5 3.0 -7.35 2.9 -7.15 2.85 -7.05 2.85 -6.85 2.85 -6.8 2.85 -6.7 2.85 -6.6 2.95 -6.3 Q3.15 -5.85 3.65 -5.65 L4.05 -5.4 4.3 -5.0 4.7 -4.6 4.95 -4.45 5.0 -4.35 5.05 -4.25 5.1 -4.15 5.15 -4.05 5.15 -3.95 5.15 -3.9 5.15 -3.8 5.15 -3.7 5.15 -3.6 5.15 -3.5 4.3 -1.0 3.1 1.65 0.4 6.2 0.1 5.55 -0.15 4.8 -0.15 4.7 -0.15 4.6 -0.15 4.55 -0.35 4.2 -0.85 3.25 -1.15 2.45 -1.15 2.35 -1.15 2.3 -1.25 2.0 -1.4 1.7 -1.6 1.55 -1.65 1.25 -1.9 0.3 -2.35 -0.45 -2.9 -1.5 Q-3.35 -2.15 -4.1 -2.15 L-4.35 -2.6 -4.4 -2.65 -4.45 -2.85 -4.45 -2.95 -4.5 -3.05 -4.45 -3.1 -4.4 -3.2 -4.35 -3.3 Q-4.05 -3.65 -3.6 -3.8 L-0.7 -4.8 -0.55 -5.1 -0.45 -5.3 -0.4 -5.45 1.4 -5.7 1.65 -5.8 1.75 -6.0 1.85 -6.2 1.9 -6.4 1.9 -6.45 1.9 -6.65 1.85 -6.85 1.75 -7.05 1.7 -7.15 0.9 -7.45 -2.65 -7.5 -4.5 -7.15 -4.6 -7.2 -4.95 -7.4 -5.4 -7.5 -6.4 -7.05" fill="#cc0000" fill-rule="evenodd" stroke="none"/>
    <path d="M0.05 7.75 L-0.2 7.85 -0.25 7.85 -0.4 7.85 -1.0 7.65 -1.4 7.3 -1.6 6.95 -1.7 6.65 -1.75 6.55 -1.85 6.4 -1.85 6.25 -1.9 6.15 -1.9 6.1 -1.95 6.0 -2.0 5.9 -2.05 5.8 -2.05 5.75 -2.05 5.7 -2.1 5.55 -2.1 5.5 -2.15 5.35 -2.15 5.25 -2.15 5.15 -2.55 4.4 -3.15 3.45 -3.25 3.3 -3.3 3.2 -3.3 3.1 -3.65 2.6 -4.05 1.8 -4.1 1.7 -4.15 1.6 Q-5.0 1.5 -5.45 0.7 L-5.65 0.4 -5.9 0.0 -6.1 -0.35 -6.5 -0.8 -7.0 -1.5 -7.05 -1.55 -7.15 -1.65 -7.25 -1.75 -7.35 -1.85 -7.4 -1.95 -7.5 -2.05 -7.5 -2.15 -7.55 -2.2 -7.6 -2.3 -7.6 -2.4 -7.6 -2.5 -7.6 -2.6 -7.6 -2.7 -7.55 -2.8 -7.85 -2.75 -8.0 -2.8 -8.25 -2.85 -8.4 -2.95 -8.6 -3.15 -8.7 -3.3 -9.4 -3.65 -8.85 -3.6 -8.85 -3.7 -8.85 -3.8 -8.8 -3.95 -8.75 -4.15 -8.45 -4.5 -8.15 -4.85 -8.15 -4.95 -8.15 -5.05 -8.1 -5.15 -8.1 -5.2 -7.85 -5.5 -7.4 -5.95 -7.3 -6.05 -6.5 -7.0 -6.4 -7.05 -5.4 -7.5 -4.95 -7.4 -4.6 -7.2 -4.85 -7.25 -5.8 -6.85 -6.4 -6.15 -6.5 -6.05 -7.05 -5.15 -7.1 -4.55 -6.75 -3.95 Q-6.4 -3.55 -5.85 -3.5 -5.2 -3.55 -4.75 -3.95 L-4.25 -4.8 -3.9 -5.05 -3.65 -5.45 -3.6 -5.7 -3.6 -6.1 -3.7 -6.45 -3.85 -6.75 -4.3 -7.1 -4.5 -7.15 -2.65 -7.5 0.9 -7.45 1.7 -7.15 1.75 -7.05 1.85 -6.85 1.9 -6.65 1.9 -6.45 1.9 -6.4 1.85 -6.2 1.75 -6.0 1.65 -5.8 1.4 -5.7 -0.4 -5.45 -0.45 -5.3 -0.55 -5.1 -0.7 -4.8 -3.6 -3.8 Q-4.05 -3.65 -4.35 -3.3 L-4.4 -3.2 -4.45 -3.1 -4.5 -3.05 -4.45 -2.95 -4.45 -2.85 -4.4 -2.65 -4.35 -2.6 -4.1 -2.15 Q-3.35 -2.15 -2.9 -1.5 L-2.35 -0.45 -1.9 0.3 -1.65 1.25 -1.6 1.55 -1.4 1.7 -1.25 2.0 -1.15 2.3 -1.15 2.35 -1.15 2.45 -0.85 3.25 -0.35 4.2 -0.15 4.55 -0.15 4.6 -0.15 4.7 -0.15 4.8 0.1 5.55 0.4 6.2 0.25 6.35 0.15 6.7 0.1 7.0 0.1 7.2 0.1 7.3 0.15 7.45 0.25 7.65 0.05 7.75 M-0.4 7.85 L-2.05 5.75 -0.4 7.85" fill="#ff0000" fill-rule="evenodd" stroke="none"/>
    <path d="M-4.5 -7.15 L-4.3 -7.1 -3.85 -6.75 -3.7 -6.45 -3.6 -6.1 -3.6 -5.7 -3.65 -5.45 -3.9 -5.05 -4.25 -4.8 -4.75 -3.95 Q-5.2 -3.55 -5.85 -3.5 -6.4 -3.55 -6.75 -3.95 L-7.1 -4.55 -7.05 -5.15 -6.5 -6.05 -6.4 -6.15 -5.8 -6.85 -4.85 -7.25 -4.6 -7.2 -4.5 -7.15" fill="#fe8c25" fill-rule="evenodd" stroke="none"/>
    <path d="M-2.25 5.45 L-2.3 5.45 -2.75 5.3 -3.15 5.15 -3.5 4.75 -3.75 4.35 -3.95 3.8 -3.95 3.65 -3.95 3.45 -3.95 3.3 -3.95 3.25 -3.95 3.05 -3.95 2.9 -4.55 2.15 -5.55 0.8 -5.6 0.6 -5.65 0.45 -5.65 0.4 -5.45 0.7 Q-5.0 1.5 -4.15 1.6 L-4.1 1.7 -4.05 1.8 -3.65 2.6 -3.3 3.1 -3.3 3.2 -3.25 3.3 -3.15 3.45 -2.55 4.4 -2.15 5.15 -2.15 5.25 -2.15 5.35 -2.1 5.5 -2.25 5.45 -3.95 3.3 -2.25 5.45 M-7.4 -1.2 L-8.3 -2.2 -8.35 -2.4 -8.4 -2.75 -8.4 -2.95 -8.25 -2.85 -8.0 -2.8 -7.85 -2.75 -7.55 -2.8 -7.6 -2.7 -7.6 -2.6 -7.6 -2.5 -7.6 -2.4 -7.6 -2.3 -7.55 -2.2 -7.5 -2.15 -7.5 -2.05 -7.4 -1.95 -7.35 -1.85 -7.25 -1.75 -7.15 -1.65 -7.05 -1.55 -7.0 -1.5 -6.5 -0.8 -6.1 -0.35 -5.9 0.0 -7.1 -0.95 -7.4 -1.2 -8.35 -2.4 -7.4 -1.2" fill="#ff9900" fill-rule="evenodd" stroke="none"/>
    <path d="M9.65 -3.95 L9.65 -3.75 M7.95 -0.65 L7.05 0.4 6.95 0.55 2.0 6.3 1.55 6.85 0.55 8.0 M-0.25 7.85 L-0.4 7.85 -2.05 5.75 -2.25 5.45 -3.95 3.3 -7.4 -1.2 -8.35 -2.4 -9.4 -3.65 M6.65 -7.75 L6.4 -8.1 -6.35 -8.1 -9.7 -3.9 M9.75 -2.8 L7.95 -0.65 M6.65 -7.75 L9.65 -3.95" fill="none" stroke="#000000" stroke-linecap="round" stroke-linejoin="round" stroke-width="2.0"/>
  </g>
</svg>
