<?xml version="1.0" encoding="UTF-8" standalone="no"?>
<svg xmlns:ffdec="https://www.free-decompiler.com/flash" xmlns:xlink="http://www.w3.org/1999/xlink" ffdec:objectType="shape" height="11.65px" width="11.3px" xmlns="http://www.w3.org/2000/svg">
  <g transform="matrix(1.0, 0.0, 0.0, 1.0, 37.3, 13.25)">
    <path d="M-26.8 -12.55 Q-26.25 -12.25 -26.0 -11.5 L-26.35 -11.2 Q-27.65 -10.65 -29.0 -10.25 L-30.7 -8.7 -32.8 -6.55 -33.55 -5.75 -33.8 -5.0 -34.1 -4.35 -34.8 -3.5 -34.8 -2.75 -34.8 -2.0 Q-34.9 -1.65 -35.05 -1.65 L-37.3 -1.75 -37.3 -2.5 -37.3 -3.25 -37.3 -4.0 -36.55 -5.55 Q-35.85 -7.2 -34.65 -8.65 -34.15 -9.25 -33.8 -10.0 L-31.5 -11.5 -29.7 -12.9 -29.0 -13.25 Q-27.75 -13.15 -26.8 -12.55" fill="#fe8e45" fill-rule="evenodd" stroke="none"/>
  </g>
</svg>
