<?xml version="1.0" encoding="UTF-8" standalone="no"?>
<svg xmlns:ffdec="https://www.free-decompiler.com/flash" xmlns:xlink="http://www.w3.org/1999/xlink" ffdec:objectType="shape" height="36.9px" width="40.55px" xmlns="http://www.w3.org/2000/svg">
  <g transform="matrix(1.0, 0.0, 0.0, 1.0, 46.6, 17.65)">
    <path d="M-44.25 -10.75 L-44.15 -10.95 -42.4 -13.1 Q-39.4 -16.85 -34.95 -17.65 L-24.75 -17.65 -20.15 -16.75 -16.5 -16.05 Q-14.45 -15.85 -12.75 -14.8 L-12.6 -14.6 -12.5 -14.45 -12.4 -14.25 -12.35 -13.9 Q-11.1 -12.5 -10.25 -10.8 L-9.7 -10.4 -8.5 -9.15 -7.9 -8.2 -7.8 -8.0 -7.65 -7.7 -7.55 -7.25 -7.4 -7.05 -6.45 -5.95 -6.35 -5.85 Q-6.05 -5.5 -6.05 -5.0 L-6.05 -4.65 -6.1 -4.45 Q-6.2 -4.0 -6.5 -3.7 -7.0 -3.3 -7.5 -3.25 -7.9 -1.9 -8.8 -0.75 L-10.85 1.2 -14.85 6.7 -16.4 9.25 -16.7 9.45 -17.2 9.85 -17.4 10.0 Q-19.6 13.75 -22.75 16.65 -23.95 17.75 -25.55 18.25 L-25.9 18.25 -26.1 18.65 -26.25 18.8 -26.5 19.0 -26.75 19.1 -27.3 19.25 -27.85 19.1 -28.25 18.95 -34.95 11.2 Q-36.7 9.15 -37.6 6.55 L-37.8 6.35 -37.9 6.2 -38.0 6.0 -38.05 5.8 -38.1 5.65 Q-40.2 2.7 -42.55 -0.1 -43.95 -1.85 -45.85 -3.0 L-46.05 -3.55 -46.0 -4.25 -46.05 -5.4 -46.3 -5.7 -46.6 -6.45 Q-46.65 -7.05 -46.3 -7.55 L-46.0 -7.95 -44.9 -9.6 -44.35 -10.35 -44.3 -10.55 -44.25 -10.75 M-37.6 -9.25 L-40.05 -5.75 Q-40.05 -5.3 -37.1 -1.5 L-33.0 3.75 -28.35 8.8 -25.25 12.25 -18.5 5.15 -16.6 3.4 Q-17.0 2.95 -17.0 2.1 -17.0 0.9 -16.4 0.25 L-14.75 -1.75 -12.6 -4.15 -11.15 -5.75 -13.5 -7.65 Q-16.7 -10.35 -15.0 -12.05 L-35.55 -12.15 -37.6 -9.25" fill="#4d4d4d" fill-rule="evenodd" stroke="none"/>
  </g>
</svg>
