<?xml version="1.0" encoding="UTF-8" standalone="no"?>
<svg xmlns:ffdec="https://www.free-decompiler.com/flash" xmlns:xlink="http://www.w3.org/1999/xlink" ffdec:objectType="shape" height="54.25px" width="93.0px" xmlns="http://www.w3.org/2000/svg">
  <g transform="matrix(1.0, 0.0, 0.0, 1.0, 371.5, 34.6)">
    <path d="M-348.15 -26.15 L-348.35 -25.9 Q-347.5 -25.5 -346.75 -24.5 -345.9 -23.45 -345.2 -21.75 -344.15 -19.35 -344.0 -17.85 L-344.0 -17.5 -344.05 -16.35 -344.5 -16.5 -344.5 -16.45 -345.25 -16.4 -345.9 -16.15 -346.25 -15.75 -346.6 -15.35 -346.9 -15.0 -346.95 -14.65 -347.0 -11.25 -347.0 -9.0 -346.6 -7.85 -346.35 -7.15 -346.25 -6.75 -345.9 -6.4 -345.5 -6.0 -345.4 -5.65 -345.25 -5.25 -344.9 -4.9 -344.1 -4.15 -343.65 -3.75 -342.5 -3.45 -342.4 -3.4 Q-338.45 -0.85 -334.25 1.05 -330.0 3.0 -325.9 2.6 L-325.6 2.85 -325.15 3.25 -324.0 3.5 -323.25 3.35 -322.9 3.25 -322.6 3.0 -322.15 2.6 -321.9 2.25 -321.75 1.85 -321.65 1.5 -321.55 1.1 -321.5 0.75 -321.55 0.35 -321.65 0.0 -321.75 -0.4 -321.9 -0.75 -321.0 -1.0 -320.25 -1.15 -319.9 -1.25 -319.6 -1.5 -319.15 -1.9 -318.9 -2.25 -318.2 -3.8 -315.9 -8.95 -314.5 -12.4 -314.25 -12.75 -313.9 -13.15 -313.5 -13.5 -313.25 -13.25 -312.5 -12.5 -312.1 -12.15 -311.65 -11.75 -310.8 -11.4 -310.7 -11.25 -310.5 -10.9 -310.5 -10.5 -310.5 -10.15 -310.5 -9.75 -310.5 -9.4 -310.35 -9.0 -310.15 -8.6 -310.0 -8.25 -310.0 -5.65 -310.0 -2.25 -310.0 -0.4 -310.15 0.0 -310.25 0.35 -310.4 0.75 -310.5 1.1 -310.5 1.85 -310.5 2.6 -310.5 3.0 -310.5 3.35 -310.75 3.75 -310.9 4.1 -311.0 4.5 -311.0 4.85 -311.0 5.25 -311.15 5.6 -312.15 7.8 -312.6 9.35 -312.75 9.75 Q-313.4 10.4 -313.85 11.2 L-314.35 12.0 -314.5 12.35 -315.6 13.15 -316.0 13.5 -316.25 13.85 -316.4 14.25 -316.5 14.6 -316.5 14.0 -316.9 14.35 -317.5 14.5 Q-339.6 14.65 -359.0 5.0 L-359.4 4.6 -359.75 4.25 -360.25 3.9 -361.0 3.5 -361.35 3.1 -362.65 2.0 -363.75 1.2 -364.15 0.85 -364.85 -0.65 -365.8 -2.85 -366.45 -4.4 -366.5 -4.75 -366.5 -5.15 -366.5 -5.5 -366.5 -5.9 -366.4 -6.25 -366.25 -6.65 -366.15 -7.0 -366.0 -7.4 -366.0 -7.75 -366.0 -8.15 -366.0 -8.5 -365.85 -8.85 -365.65 -9.25 -365.5 -9.65 -365.5 -10.0 -365.5 -10.4 -365.15 -11.5 -364.9 -12.25 -364.65 -13.0 -364.5 -13.4 -364.5 -13.75 -364.5 -14.15 -364.3 -14.5 -364.05 -15.25 -363.95 -15.6 -363.65 -16.4 -363.5 -16.75 -363.5 -17.15 -363.5 -17.5 Q-362.55 -19.3 -361.95 -21.25 L-360.65 -24.2 -360.15 -25.4 -359.4 -26.15 -358.65 -26.9 -357.9 -27.65 -357.5 -28.0 Q-354.15 -29.75 -350.55 -28.85 -349.65 -28.6 -349.0 -28.0 L-348.9 -27.65 -348.75 -27.25 -348.55 -26.85 -348.35 -26.5 -348.15 -26.15 M-299.0 -10.65 L-298.5 -10.9 -298.25 -11.0 -294.7 -14.7 -291.9 -17.9 -291.0 -17.0 -290.9 -16.65 -290.75 -16.25 -290.4 -15.9 -290.0 -15.5 -289.65 -15.15 -289.4 -14.75 -289.25 -14.4 -289.0 -14.0 -288.6 -13.65 -288.15 -13.25 -287.75 -13.15 -286.0 -11.5 -285.55 -10.35 -284.65 -8.45 -284.0 -7.4 -284.0 -7.0 -284.0 -6.65 -283.9 -6.25 -283.9 -5.9 Q-283.95 -5.25 -284.15 -4.7 -284.7 -3.3 -285.65 -2.05 L-287.15 0.1 -289.3 2.25 -291.9 3.85 -294.55 6.45 Q-296.7 8.5 -299.4 9.85 -300.0 10.05 -300.5 10.4 -304.25 13.05 -308.55 13.1 L-307.95 11.9 -306.6 8.95 -306.0 7.35 -306.0 7.0 -306.0 6.6 -305.9 6.25 -305.75 5.85 -305.65 5.5 -305.5 5.1 -305.5 4.35 -305.5 3.6 -305.5 3.25 -305.5 2.85 -305.3 2.5 -305.15 2.1 -305.0 1.75 -305.0 -0.5 -305.0 -6.15 -305.0 -10.25 -305.15 -10.65 -305.3 -11.0 -305.45 -11.4 -305.5 -11.75 -305.5 -12.15 -305.5 -12.5 -305.5 -12.65 -304.6 -10.95 -304.1 -9.85 -304.0 -9.5 -304.0 -9.15 -304.0 -8.75 -304.0 -8.4 -303.85 -8.0 -303.65 -7.6 -303.5 -7.25 -303.5 -6.9 -303.5 -6.15 -303.5 -5.4 -303.5 -5.0 -303.5 -4.65 -303.4 -4.25 -303.25 -3.9 -303.15 -3.5 -303.0 -3.15 -303.0 -2.4 -303.0 -1.25 -303.0 -0.5 -303.0 -0.15 -302.9 0.25 -302.75 0.6 -302.5 1.0 -302.1 1.35 -301.65 1.75 -300.5 2.0 -299.75 1.85 -299.4 1.75 -299.1 1.5 -298.65 1.1 -298.4 0.75 -298.25 0.35 -298.15 0.0 -298.0 -0.4 -298.0 -1.15 -298.0 -3.4 -298.0 -4.9 -298.0 -5.25 -298.15 -5.65 -298.3 -6.0 -298.45 -6.4 -298.5 -6.75 -298.5 -7.15 -298.5 -7.9 -298.5 -8.65 -298.5 -9.0 -298.5 -9.4 -298.65 -9.75 -298.85 -10.15 -299.0 -10.5 -299.0 -10.65" fill="#b1e34d" fill-rule="evenodd" stroke="none"/>
    <path d="M-291.9 -17.9 L-289.0 -21.75 -288.65 -22.55 Q-287.25 -20.95 -286.15 -19.15 L-285.75 -18.75 -285.4 -18.4 Q-284.5 -17.9 -283.75 -17.0 L-281.65 -14.65 -280.7 -12.75 -279.55 -10.5 -279.0 -9.4 -279.0 -9.0 -279.0 -8.65 -278.9 -8.25 -278.75 -7.9 -278.65 -7.5 -278.5 -7.15 -278.5 -6.75 -278.5 -6.4 -278.5 -5.65 -278.5 -4.9 -279.35 -2.65 Q-280.0 -1.05 -280.95 0.4 L-281.5 1.5 -281.9 1.85 -282.25 2.25 -282.65 2.6 -283.05 3.35 -284.1 4.5 -284.65 4.85 -284.9 5.25 -285.15 5.6 Q-289.35 8.6 -293.25 11.95 -295.65 14.0 -298.65 15.1 -304.15 19.4 -311.15 18.25 L-312.0 17.5 -312.2 17.3 -312.25 17.4 -312.4 17.75 -312.7 18.05 -313.75 18.9 -314.75 19.6 Q-333.65 20.3 -351.5 14.0 L-352.6 13.65 -353.75 13.1 -354.0 13.0 -355.15 12.75 -355.6 12.35 -355.9 12.1 -356.5 11.95 -358.35 11.3 -359.0 11.0 -360.15 10.75 -360.6 10.35 -361.0 10.0 -361.4 9.6 Q-362.35 9.25 -363.05 8.55 L-366.95 5.4 -368.15 4.35 -368.55 3.65 Q-369.6 2.25 -370.2 0.6 L-371.5 -3.15 -371.5 -3.5 -371.5 -4.65 -371.5 -6.5 -371.5 -8.0 -371.4 -8.4 -371.25 -8.75 -371.0 -9.15 -371.0 -9.5 -371.0 -9.9 -371.0 -10.25 -371.0 -10.65 -370.85 -11.0 -370.65 -11.4 -370.5 -11.75 -370.5 -12.15 -370.5 -12.5 -370.4 -12.9 -370.25 -13.25 -370.05 -13.65 -369.85 -14.0 -369.5 -14.75 -369.5 -15.15 -369.5 -15.5 -369.4 -15.9 -369.25 -16.25 -369.0 -16.65 -369.0 -17.0 -369.0 -17.4 -368.3 -19.25 -366.3 -24.45 -364.75 -28.25 -362.5 -30.5 Q-358.95 -34.1 -354.0 -34.5 -350.45 -35.05 -347.6 -33.05 L-344.0 -30.0 -343.85 -29.65 -343.5 -28.9 -343.1 -28.15 -342.5 -26.65 -342.55 -26.25 -342.65 -25.9 -342.8 -25.5 -343.0 -25.15 -343.3 -24.8 -343.75 -24.4 -344.25 -24.2 -345.0 -24.0 -346.15 -24.25 -346.6 -24.65 -347.4 -25.4 -347.75 -25.75 -348.15 -26.15 -348.35 -26.5 -348.55 -26.85 -348.75 -27.25 -348.9 -27.65 -349.0 -28.0 Q-349.65 -28.6 -350.55 -28.85 -354.15 -29.75 -357.5 -28.0 L-357.9 -27.65 -358.65 -26.9 -359.4 -26.15 -360.15 -25.4 -360.65 -24.2 -361.95 -21.25 Q-362.55 -19.3 -363.5 -17.5 L-363.5 -17.15 -363.5 -16.75 -363.65 -16.4 -363.95 -15.6 -364.05 -15.25 -364.3 -14.5 -364.5 -14.15 -364.5 -13.75 -364.5 -13.4 -364.65 -13.0 -364.9 -12.25 -365.15 -11.5 -365.5 -10.4 -365.5 -10.0 -365.5 -9.65 -365.65 -9.25 -365.85 -8.85 -366.0 -8.5 -366.0 -8.15 -366.0 -7.75 -366.0 -7.4 -366.15 -7.0 -366.25 -6.65 -366.4 -6.25 -366.5 -5.9 -366.5 -5.5 -366.5 -5.15 -366.5 -4.75 -366.45 -4.4 -365.8 -2.85 -364.85 -0.65 -364.15 0.85 -363.75 1.2 -362.65 2.0 -361.35 3.1 -361.0 3.5 -360.25 3.9 -359.75 4.25 -359.4 4.6 -359.0 5.0 Q-339.6 14.65 -317.5 14.5 L-316.9 14.35 -316.5 14.0 -316.5 14.6 -316.4 14.25 -316.25 13.85 -316.0 13.5 -315.6 13.15 -314.5 12.35 -314.35 12.0 -313.85 11.2 Q-313.4 10.4 -312.75 9.75 L-312.6 9.35 -312.15 7.8 -311.15 5.6 -311.0 5.25 -311.0 4.85 -311.0 4.5 -310.9 4.1 -310.75 3.75 -310.5 3.35 -310.5 3.0 -310.5 2.6 -310.5 1.85 -310.5 1.1 -310.4 0.75 -310.25 0.35 -310.15 0.0 -310.0 -0.4 -310.0 -2.25 -310.0 -5.65 -310.0 -8.25 -310.15 -8.6 -310.35 -9.0 -310.5 -9.4 -310.5 -9.75 -310.5 -10.15 -310.5 -10.5 -310.5 -10.9 -310.7 -11.25 -310.8 -11.4 -311.65 -11.75 -312.1 -12.15 -312.5 -12.5 -313.25 -13.25 -313.5 -13.5 -313.9 -13.15 -314.25 -12.75 -314.5 -12.4 -315.9 -8.95 -318.2 -3.8 -318.9 -2.25 -319.15 -1.9 -319.6 -1.5 -319.9 -1.25 -320.25 -1.15 -321.0 -1.0 -321.9 -0.75 -321.75 -0.4 -321.65 0.0 -321.55 0.35 -321.5 0.75 -321.55 1.1 -321.65 1.5 -321.75 1.85 -321.9 2.25 -322.15 2.6 -322.6 3.0 -322.9 3.25 -323.25 3.35 -324.0 3.5 -325.15 3.25 -325.6 2.85 -325.9 2.6 Q-330.0 3.0 -334.25 1.05 -338.45 -0.85 -342.4 -3.4 L-342.5 -3.45 -343.65 -3.75 -344.1 -4.15 -344.9 -4.9 -345.25 -5.25 -345.4 -5.65 -345.5 -6.0 -345.9 -6.4 -346.25 -6.75 -346.35 -7.15 -346.6 -7.85 -347.0 -9.0 -347.0 -11.25 -346.95 -14.65 -346.9 -15.0 -346.6 -15.35 -346.25 -15.75 -345.9 -16.15 -345.25 -16.4 -344.5 -16.45 -344.5 -16.5 -344.05 -16.35 -344.0 -16.35 -343.55 -16.2 -342.9 -15.9 -342.55 -15.5 -342.35 -15.15 -342.0 -14.4 -342.0 -13.65 -342.0 -11.75 -342.0 -10.65 -341.9 -10.25 -341.75 -9.9 -341.35 -9.15 -341.15 -8.75 Q-334.4 -4.8 -327.0 -2.45 L-326.95 -3.5 -326.9 -3.9 -326.7 -4.2 -325.1 -5.7 Q-324.05 -6.35 -322.9 -6.65 L-322.45 -7.4 -321.45 -9.6 Q-321.05 -10.5 -320.9 -11.5 L-320.45 -12.3 -319.3 -14.45 -318.5 -16.0 -318.15 -16.4 -317.75 -16.75 -317.55 -17.15 -317.35 -17.5 -317.15 -17.9 -316.75 -18.25 -315.95 -18.95 -314.65 -19.75 -313.5 -19.95 -313.5 -20.0 -311.55 -19.85 -309.9 -19.4 -309.55 -19.0 -309.2 -18.4 -308.25 -18.9 -307.5 -18.95 -307.5 -19.0 Q-305.75 -18.9 -304.15 -18.3 -303.15 -17.95 -302.3 -17.25 L-301.5 -16.5 -301.35 -16.15 -300.4 -14.65 -299.7 -13.35 -300.0 -13.25 -300.75 -12.95 -301.0 -12.75 -301.2 -12.0 -301.2 -11.25 -301.15 -10.9 -299.95 -10.4 -299.5 -10.4 -299.1 -10.6 -299.0 -10.65 -299.0 -10.5 -298.85 -10.15 -298.65 -9.75 -298.5 -9.4 -298.5 -9.0 -298.5 -8.65 -298.5 -7.9 -298.5 -7.15 -298.5 -6.75 -298.45 -6.4 -298.3 -6.0 -298.15 -5.65 -298.0 -5.25 -298.0 -4.9 -298.0 -3.4 -298.0 -1.15 -298.0 -0.4 -298.15 0.0 -298.25 0.35 -298.4 0.75 -298.65 1.1 -299.1 1.5 -299.4 1.75 -299.75 1.85 -300.5 2.0 -301.65 1.75 -302.1 1.35 -302.5 1.0 -302.75 0.6 -302.9 0.25 -303.0 -0.15 -303.0 -0.5 -303.0 -1.25 -303.0 -2.4 -303.0 -3.15 -303.15 -3.5 -303.25 -3.9 -303.4 -4.25 -303.5 -4.65 -303.5 -5.0 -303.5 -5.4 -303.5 -6.15 -303.5 -6.9 -303.5 -7.25 -303.65 -7.6 -303.85 -8.0 -304.0 -8.4 -304.0 -8.75 -304.0 -9.15 -304.0 -9.5 -304.1 -9.85 -304.6 -10.95 -305.5 -12.65 -305.5 -12.5 -305.5 -12.15 -305.5 -11.75 -305.45 -11.4 -305.3 -11.0 -305.15 -10.65 -305.0 -10.25 -305.0 -6.15 -305.0 -0.5 -305.0 1.75 -305.15 2.1 -305.3 2.5 -305.5 2.85 -305.5 3.25 -305.5 3.6 -305.5 4.35 -305.5 5.1 -305.65 5.5 -305.75 5.85 -305.9 6.25 -306.0 6.6 -306.0 7.0 -306.0 7.35 -306.6 8.95 -307.95 11.9 -308.55 13.1 Q-304.25 13.05 -300.5 10.4 -300.0 10.05 -299.4 9.85 -296.7 8.5 -294.55 6.45 L-291.9 3.85 -289.3 2.25 -287.15 0.1 -285.65 -2.05 Q-284.7 -3.3 -284.15 -4.7 -283.95 -5.25 -283.9 -5.9 L-283.9 -6.25 -284.0 -6.65 -284.0 -7.0 -284.0 -7.4 -284.65 -8.45 -285.55 -10.35 -286.0 -11.5 -287.75 -13.15 -288.15 -13.25 -288.6 -13.65 -289.0 -14.0 -289.25 -14.4 -289.4 -14.75 -289.65 -15.15 -290.0 -15.5 -290.4 -15.9 -290.75 -16.25 -290.9 -16.65 -291.0 -17.0 -291.9 -17.9 M-316.5 15.5 L-316.45 15.5 -316.5 15.35 -316.5 15.5" fill="#000000" fill-rule="evenodd" stroke="none"/>
  </g>
</svg>
