<?xml version="1.0" encoding="UTF-8" standalone="no"?>
<svg xmlns:ffdec="https://www.free-decompiler.com/flash" xmlns:xlink="http://www.w3.org/1999/xlink" ffdec:objectType="shape" height="27.65px" width="31.7px" xmlns="http://www.w3.org/2000/svg">
  <g transform="matrix(1.0, 0.0, 0.0, 1.0, 40.7, 14.5)">
    <path d="M-17.15 -12.85 Q-17.6 -15.0 -20.6 -14.0 -21.4 -13.7 -22.2 -13.0 L-29.0 -13.0 -30.15 -13.0 -30.5 -13.0 -32.45 -12.1 -32.6 -12.1 Q-33.7 -12.15 -35.35 -11.3 -32.8 -14.25 -31.5 -14.5 L-17.0 -14.5 Q-12.65 -11.95 -10.75 -9.7 -9.0 -7.65 -9.0 -5.25 -9.0 -2.8 -19.0 4.8 L-18.2 3.95 -16.85 2.5 Q-9.6 -5.35 -9.6 -6.3 -9.6 -8.65 -11.75 -9.85 L-13.2 -10.5 -14.4 -11.35 -15.75 -11.85 -16.5 -12.05 -15.15 -11.85 -17.15 -12.85" fill="#575757" fill-opacity="0.49019608" fill-rule="evenodd" stroke="none"/>
    <path d="M-17.15 -12.85 L-15.15 -11.85 -16.5 -12.05 -15.75 -11.85 -17.15 -11.85 -17.1 -12.15 -17.15 -12.85 M-14.4 -11.35 L-13.2 -10.5 -13.25 -10.5 -14.4 -11.35 M-32.45 -12.1 L-30.5 -13.0 -30.15 -13.0 -32.1 -12.1 -32.45 -12.1 M-29.0 -13.0 L-22.2 -13.0 -23.15 -11.95 -28.2 -12.05 Q-28.45 -12.8 -29.0 -13.0 M-30.5 -7.85 L-30.75 -7.8 -30.65 -7.9 -30.5 -7.85 M-28.85 -1.1 L-29.1 -1.0 -29.55 -0.8 -30.0 -1.4 -28.85 -1.1 M-34.15 3.35 Q-29.1 9.3 -26.75 10.5 -29.25 10.5 -34.15 3.35" fill="#383838" fill-opacity="0.6" fill-rule="evenodd" stroke="none"/>
    <path d="M-30.15 -13.0 L-29.0 -13.0 Q-28.45 -12.8 -28.2 -12.05 L-32.1 -12.1 -30.15 -13.0" fill="#1f1f1f" fill-opacity="0.74509805" fill-rule="evenodd" stroke="none"/>
    <path d="M-30.5 -7.85 L-30.65 -7.9 -30.75 -7.8 -30.5 -7.85 M-34.35 -7.3 Q-33.45 -8.1 -32.5 -8.1 L-16.1 -8.0 -14.25 -6.1 -20.8 0.9 -25.5 6.05 Q-27.25 6.05 -30.95 1.1 L-36.1 -5.6 -34.35 -7.3 M-28.85 -1.1 L-30.0 -1.4 -29.55 -0.8 -29.1 -1.0 -28.85 -1.1" fill="#2d2d2d" fill-opacity="0.4" fill-rule="evenodd" stroke="none"/>
    <path d="M-26.8 11.35 L-27.25 11.45 -29.85 8.1 -29.95 7.9 -29.95 7.8 -29.95 7.65 -30.55 6.5 -31.4 5.2 -31.55 4.95 -31.55 4.85 -31.55 4.7 Q-31.7 4.25 -32.1 4.05 -32.4 3.45 -33.1 3.2 L-33.7 3.6 Q-33.7 3.2 -34.4 3.1 -35.05 3.0 -34.85 2.05 -34.75 1.0 -34.95 0.85 L-35.2 0.25 -35.65 -0.2 -36.0 -0.9 -36.8 -1.9 -36.9 -2.0 -37.15 -2.05 -37.2 -2.2 -37.3 -2.3 -37.3 -2.15 -37.4 -2.45 -37.6 -2.65 -37.6 -2.85 -37.6 -3.05 -37.7 -3.05 -37.7 -3.15 -38.0 -3.7 -38.25 -3.7 -38.6 -3.8 -38.8 -4.0 -39.05 -4.2 -39.25 -4.4 -40.2 -4.95 -39.6 -4.9 -39.6 -4.95 -39.6 -5.15 -39.45 -5.4 -39.4 -5.65 -38.9 -6.1 -38.5 -6.6 -38.5 -6.75 -38.5 -6.95 -38.4 -7.05 -38.4 -7.15 -38.0 -7.55 -37.4 -8.25 -37.3 -8.35 -36.0 -9.7 -36.0 -9.8 Q-35.35 -10.3 -34.55 -10.45 L-33.85 -10.3 -33.8 -10.1 Q-34.7 -10.0 -35.15 -9.5 L-36.0 -8.45 -36.0 -8.35 Q-36.7 -7.8 -36.9 -7.05 L-37.0 -6.25 -36.55 -5.4 Q-36.0 -4.8 -35.15 -4.7 -34.25 -4.8 -33.65 -5.4 -33.1 -5.8 -32.95 -6.6 L-32.4 -6.95 -32.1 -7.45 -32.0 -7.9 -32.0 -8.45 -32.1 -8.95 -32.25 -9.4 -32.95 -9.9 -32.95 -10.1 -30.6 -10.45 -25.65 -10.35 Q-24.85 -10.35 -24.4 -10.0 L-24.3 -9.8 -24.2 -9.5 -24.1 -9.2 -24.1 -8.95 -24.1 -8.85 -24.2 -8.55 -24.3 -8.35 -24.5 -8.05 Q-24.7 -7.9 -24.85 -7.9 L-27.4 -7.45 -27.5 -7.35 -27.6 -6.95 -27.9 -6.6 -32.0 -5.15 Q-32.55 -4.95 -33.1 -4.4 L-33.1 -4.35 -33.15 -4.15 -33.2 -4.05 -33.15 -4.0 -33.15 -3.8 -33.1 -3.5 -32.7 -2.85 Q-31.55 -2.85 -30.95 -1.9 L-30.15 -0.35 -29.55 0.65 -29.2 2.05 -29.1 2.5 -28.85 2.7 -28.6 3.1 -28.55 3.6 -28.55 3.75 -28.0 4.95 -27.35 6.3 -27.1 6.8 -27.1 7.05 -27.1 7.1 -26.65 8.2 -26.25 9.1 -26.45 9.3 -26.55 9.9 -26.65 10.25 -26.65 10.55 -26.65 10.65 -26.55 10.85 -26.45 11.2 -26.8 11.35" fill="#747474" fill-rule="evenodd" stroke="none"/>
    <path d="M-36.0 -9.8 L-35.35 -10.45 Q-34.75 -10.95 -34.05 -10.95 -33.75 -10.95 -33.65 -11.15 L-24.3 -10.95 -22.2 -10.45 -22.6 -10.15 -22.75 -10.0 -22.8 -9.8 -22.8 -9.5 -22.8 -9.3 -22.8 -9.15 -22.6 -8.7 Q-22.35 -8.05 -21.6 -7.8 L-21.1 -7.45 -20.75 -6.9 -20.05 -6.3 -19.8 -6.05 -19.65 -5.95 -19.6 -5.8 -19.6 -5.65 -19.5 -5.5 -19.5 -5.15 -19.5 -4.95 -19.5 -4.9 -19.5 -4.7 Q-19.95 -2.9 -20.75 -1.15 L-22.45 2.6 Q-24.2 6.05 -26.25 9.1 L-26.65 8.2 -27.1 7.1 -27.1 7.05 -27.1 6.8 -27.35 6.3 -28.0 4.95 -28.55 3.75 -28.55 3.6 -28.6 3.1 -28.85 2.7 -29.1 2.5 -29.2 2.05 -29.55 0.65 -30.15 -0.35 -30.95 -1.9 Q-31.55 -2.85 -32.7 -2.85 L-33.1 -3.5 -33.15 -3.8 -33.15 -4.0 -33.2 -4.05 -33.15 -4.15 -33.1 -4.35 -33.1 -4.4 Q-32.55 -4.95 -32.0 -5.15 L-27.9 -6.6 -27.6 -6.95 -27.5 -7.35 -27.4 -7.45 -24.85 -7.9 Q-24.7 -7.9 -24.5 -8.05 L-24.3 -8.35 -24.2 -8.55 -24.1 -8.85 -24.1 -8.95 -24.1 -9.2 -24.2 -9.5 -24.3 -9.8 -24.4 -10.0 Q-24.85 -10.35 -25.65 -10.35 L-30.6 -10.45 -32.95 -10.1 -33.2 -10.0 -33.45 -10.0 -33.1 -10.3 -33.65 -10.15 -33.85 -10.3 -34.55 -10.45 Q-35.35 -10.3 -36.0 -9.8" fill="#494949" fill-rule="evenodd" stroke="none"/>
    <path d="M-33.65 -10.15 L-33.1 -10.3 -33.45 -10.0 -33.2 -10.0 -32.95 -9.9 -32.25 -9.4 -32.1 -8.95 -32.0 -8.45 -32.0 -7.9 -32.1 -7.45 -32.4 -6.95 -32.95 -6.6 Q-33.1 -5.8 -33.65 -5.4 -34.25 -4.8 -35.15 -4.7 -36.0 -4.8 -36.55 -5.4 L-37.0 -6.25 -36.9 -7.05 Q-36.7 -7.8 -36.0 -8.35 L-36.0 -8.45 -35.15 -9.5 Q-34.7 -10.0 -33.8 -10.1 L-33.65 -10.15" fill="#959595" fill-rule="evenodd" stroke="none"/>
    <path d="M-33.2 -10.0 L-32.95 -10.1 -32.95 -9.9 -33.2 -10.0" fill="#dddddd" fill-opacity="0.29803923" fill-rule="evenodd" stroke="none"/>
    <path d="M-33.85 -10.3 L-33.65 -10.15 -33.8 -10.1 -33.85 -10.3" fill="#33ff00" fill-rule="evenodd" stroke="none"/>
    <path d="M-22.2 -10.45 L-22.15 -10.65 -21.4 -10.8 -21.1 -10.7 -20.6 -10.45 -20.05 -10.35 -19.95 -10.55 -19.4 -10.95 -18.8 -11.15 -17.35 -10.8 -13.1 -5.4 -13.1 -5.1 -13.1 -4.9 -13.0 -4.8 -12.9 -4.4 -12.75 -4.15 -12.9 -3.7 -16.8 0.85 -16.95 1.0 -24.6 10.05 -26.05 11.65 -26.1 11.55 -26.25 11.45 -26.45 11.3 -26.45 11.2 -26.55 10.85 -26.65 10.65 -26.65 10.55 -26.65 10.25 -26.55 9.9 -26.45 9.3 -26.25 9.1 Q-24.2 6.05 -22.45 2.6 L-20.75 -1.15 Q-19.95 -2.9 -19.5 -4.7 L-19.5 -4.9 -19.5 -4.95 -19.5 -5.15 -19.5 -5.5 -19.6 -5.65 -19.6 -5.8 -19.65 -5.95 -19.8 -6.05 -20.05 -6.3 -20.75 -6.9 -21.1 -7.45 -21.6 -7.8 Q-22.35 -8.05 -22.6 -8.7 L-22.8 -9.15 -22.8 -9.3 -22.8 -9.5 -22.8 -9.8 -22.75 -10.0 -22.6 -10.15 -22.2 -10.45" fill="#363636" fill-rule="evenodd" stroke="none"/>
    <path d="M-26.1 11.65 L-26.1 11.55 -26.05 11.65 -26.1 11.65" fill="#26bf00" fill-rule="evenodd" stroke="none"/>
    <path d="M-24.6 10.05 L-25.7 11.75 -26.1 11.65 -26.05 11.65 -24.6 10.05" fill="#990000" fill-rule="evenodd" stroke="none"/>
    <path d="M-26.45 11.3 L-26.8 11.35 -26.45 11.2 -26.45 11.3" fill="#00ccff" fill-rule="evenodd" stroke="none"/>
    <path d="M-35.35 -11.5 L-39.7 -5.15 -26.05 12.15 -11.65 -4.6 -17.05 -11.5 -35.35 -11.5 Z" fill="none" stroke="#000000" stroke-linecap="round" stroke-linejoin="round" stroke-width="2.0"/>
  </g>
</svg>
