<?xml version="1.0" encoding="UTF-8" standalone="no"?>
<svg xmlns:ffdec="https://www.free-decompiler.com/flash" xmlns:xlink="http://www.w3.org/1999/xlink" ffdec:objectType="shape" height="74.25px" width="78.5px" xmlns="http://www.w3.org/2000/svg">
  <g transform="matrix(1.0, 0.0, 0.0, 1.0, 438.5, 13.7)">
    <path d="M-436.0 -7.5 L-435.25 -8.25 -434.5 -9.0 -434.1 -9.25 -433.75 -9.35 -432.9 -9.65 -432.5 -10.0 -432.15 -10.25 -427.4 -11.7 Q-422.95 -13.1 -418.1 -12.8 L-415.5 -12.95 -413.0 -13.5 Q-400.6 -14.85 -391.85 -6.7 -385.85 -1.15 -384.0 6.75 L-384.0 7.1 -384.0 7.5 -383.85 7.85 -383.55 8.65 -383.3 9.35 -383.0 10.1 -383.0 10.5 -383.0 10.85 -382.9 11.25 -382.65 12.0 -382.4 12.75 -382.15 13.5 -382.0 13.85 -382.0 14.25 -382.0 14.6 -381.8 15.0 -381.65 15.35 -381.5 15.75 -381.5 16.1 -381.5 16.5 -381.35 16.85 -381.05 17.65 -380.85 18.35 -380.5 19.1 -380.5 19.5 -380.5 19.85 Q-379.75 22.35 -378.3 24.4 -376.4 26.95 -373.35 28.1 -363.95 31.5 -360.5 40.6 L-360.5 41.0 -360.5 41.35 -360.4 41.75 -360.25 42.1 -360.15 42.5 -360.0 42.85 -360.0 43.25 -360.0 44.0 -360.0 44.75 -360.0 45.5 -360.0 45.85 -360.0 46.25 -360.15 46.6 -360.3 47.0 -360.5 47.35 -360.5 47.75 -360.5 48.1 -360.5 48.5 -360.5 48.85 -360.65 49.25 -361.25 50.4 -361.8 51.45 -362.3 52.2 -363.0 53.0 -363.25 53.4 -363.7 54.1 -364.2 54.9 -364.65 55.6 -365.0 56.0 -365.8 56.7 -367.0 57.5 -367.25 57.9 -367.4 58.25 -367.65 58.6 -368.0 59.0 -368.4 59.35 -368.75 59.75 -369.25 60.1 Q-373.15 61.05 -377.05 60.0 L-377.1 60.0 -377.4 60.25 -377.75 60.35 -378.5 60.5 Q-381.25 59.65 -384.15 59.25 L-384.65 58.85 -385.15 58.5 -385.9 58.1 -390.05 54.3 -392.75 51.75 -395.5 46.0 -398.0 40.5 -398.0 40.1 -398.0 39.75 -398.15 39.4 -398.35 39.0 -398.5 38.6 -398.5 38.25 -398.5 37.85 -398.5 37.5 -398.55 37.15 -398.75 36.75 -398.9 36.35 -399.0 36.0 -399.0 35.6 -399.0 35.25 -399.15 34.9 -399.35 34.5 -399.5 34.1 -399.5 33.75 -399.5 33.0 -399.5 31.85 -399.5 31.5 -399.55 31.15 -399.75 30.75 -399.9 30.35 -400.0 30.0 -400.0 23.25 -400.0 15.75 -400.15 15.4 -400.5 14.6 -400.85 13.85 -401.0 13.5 -401.0 13.1 -401.0 12.75 -400.95 12.4 -400.95 12.3 -401.35 11.25 -401.8 10.15 -402.15 9.4 -402.75 8.25 -403.15 7.85 -403.5 7.5 -403.75 7.1 -403.9 6.75 -404.0 6.35 -404.15 6.0 -404.4 5.65 -405.45 4.45 -406.85 3.35 Q-407.2 3.2 -407.5 3.0 -420.75 -0.2 -434.5 2.5 L-435.6 2.2 -437.4 1.15 -438.4 0.0 -438.45 -0.4 -438.5 -1.15 -438.5 -1.9 -438.5 -2.65 -438.5 -3.0 -438.35 -3.35 -438.05 -4.15 -437.8 -4.85 -437.5 -5.65 -437.15 -6.4 -436.75 -6.75 -436.0 -7.5 M-432.45 -3.3 Q-420.55 -5.0 -407.95 -2.7 -403.6 -1.85 -400.85 1.6 L-400.15 2.35 -399.1 4.25 -398.85 4.6 -397.2 7.3 -396.1 9.85 -395.9 10.25 -395.35 11.4 -395.5 11.5 -395.75 11.85 -395.9 12.25 -395.95 12.65 -396.0 13.0 -395.95 13.35 -395.75 14.1 -395.65 14.5 -395.5 14.85 -395.5 20.85 -395.5 25.35 -395.4 25.75 -395.25 26.1 -395.15 26.5 -395.0 26.85 -395.0 27.25 -395.0 27.6 -394.85 28.0 -394.65 28.4 -394.5 28.75 -394.5 29.1 -394.5 29.5 -394.4 29.85 -394.25 30.25 -394.0 30.6 -394.0 31.0 -394.0 31.35 -393.65 32.5 -393.5 32.95 -393.5 34.1 -393.35 34.5 -393.15 34.9 -393.0 35.25 -393.0 36.35 -393.0 37.1 -393.0 37.5 -392.6 38.65 -392.35 39.35 -392.25 39.75 -391.9 40.1 -391.5 40.5 -391.5 40.6 -391.35 41.0 -391.25 41.25 -391.05 41.75 -391.0 42.1 -390.9 42.5 -390.65 42.85 -389.7 44.7 -389.15 45.85 -386.9 48.1 -385.4 49.6 -384.55 50.05 -382.65 50.9 -382.3 51.25 -380.65 52.75 -379.55 53.05 Q-378.55 53.65 -377.65 54.35 L-374.5 54.95 -372.0 55.05 -372.0 54.85 -372.0 54.5 -371.9 54.1 -371.7 53.75 -371.4 53.35 -371.0 53.0 -370.6 52.75 -370.25 52.65 -369.5 52.45 -368.75 52.25 -368.55 51.85 -368.35 51.5 -367.75 50.75 -367.55 50.35 -367.35 50.0 -367.15 49.6 -366.75 49.25 -366.4 48.85 -366.0 48.5 -365.9 48.1 -365.75 47.75 -365.5 47.35 -365.5 47.0 -365.5 46.6 -365.5 46.25 -365.5 45.85 -365.35 45.5 -365.15 45.1 -365.0 44.75 -365.15 44.4 -365.35 44.0 -365.5 43.6 -365.5 43.25 -365.5 42.85 -365.75 42.1 -366.15 41.0 -366.25 40.6 -366.85 39.45 -367.05 39.15 -367.25 38.75 -368.8 37.3 -369.4 36.85 -370.0 36.45 -371.6 35.3 -372.4 34.6 -373.55 34.05 -375.0 33.55 -376.15 33.25 -377.15 32.55 -378.9 31.4 -379.5 31.0 -380.4 30.6 -380.75 30.25 -381.15 29.85 -381.9 29.1 -382.25 28.75 -382.65 28.35 -382.85 28.0 -383.05 27.65 -383.25 27.25 -383.9 26.5 Q-383.95 25.65 -384.35 25.0 L-384.5 24.6 -384.55 24.25 -384.9 23.1 -385.3 21.55 -386.0 20.1 -386.0 19.75 -386.0 19.35 -386.15 19.0 -386.25 18.6 -386.4 18.25 -386.5 17.85 -386.5 17.5 -386.5 17.1 -386.75 16.75 -386.9 16.35 -387.0 16.0 -387.0 15.6 -387.0 15.25 -387.45 14.1 -387.7 13.4 -387.85 13.0 -388.25 11.95 -388.65 10.75 -389.0 9.6 -389.0 9.25 -389.0 8.85 -389.5 7.35 -389.65 7.0 -389.75 6.6 -390.25 5.1 -391.0 2.85 -391.4 1.75 -391.65 1.4 -392.0 1.0 -392.4 0.6 -392.75 0.25 -392.9 -0.15 -393.0 -0.5 -394.9 -2.4 -395.25 -2.75 -397.25 -4.5 -400.25 -6.4 -401.0 -6.5 -402.1 -6.85 Q-402.7 -7.05 -403.25 -7.4 -407.6 -8.75 -412.25 -8.35 L-412.5 -8.25 -417.05 -7.35 -426.2 -6.1 -430.15 -5.4 -430.65 -5.0 -431.25 -4.6 -432.1 -3.85 -432.5 -3.5 -432.75 -3.25 -432.45 -3.3" fill="#000000" fill-rule="evenodd" stroke="none"/>
    <path d="M-432.5 -3.5 L-432.1 -3.85 -431.25 -4.6 -430.65 -5.0 -430.15 -5.4 -426.2 -6.1 -417.05 -7.35 -412.5 -8.25 -412.25 -8.35 Q-407.6 -8.75 -403.25 -7.4 -402.7 -7.05 -402.1 -6.85 L-401.0 -6.5 -400.25 -6.4 -397.25 -4.5 -395.25 -2.75 -394.9 -2.4 -393.0 -0.5 -392.9 -0.15 -392.75 0.25 -392.4 0.6 -392.0 1.0 -391.65 1.4 -391.4 1.75 -391.0 2.85 -390.25 5.1 -389.75 6.6 -389.65 7.0 -389.5 7.35 -389.0 8.85 -389.0 9.25 -389.0 9.6 -388.65 10.75 -388.25 11.95 -387.85 13.0 -387.7 13.4 -387.45 14.1 -387.0 15.25 -387.0 15.6 -387.0 16.0 -386.9 16.35 -386.75 16.75 -386.5 17.1 -386.5 17.5 -386.5 17.85 -386.4 18.25 -386.25 18.6 -386.15 19.0 -386.0 19.35 -386.0 19.75 -386.0 20.1 -385.3 21.55 -384.9 23.1 -384.55 24.25 -384.5 24.6 -384.35 25.0 Q-383.95 25.65 -383.9 26.5 L-383.25 27.25 -383.05 27.65 -382.85 28.0 -382.65 28.35 -382.25 28.75 -381.9 29.1 -381.15 29.85 -380.75 30.25 -380.4 30.6 -379.5 31.0 -378.9 31.4 -377.15 32.55 -376.15 33.25 -375.0 33.55 -373.55 34.05 -372.4 34.6 -371.6 35.3 -370.0 36.45 -369.4 36.85 -368.8 37.3 -367.25 38.75 -367.05 39.15 -366.85 39.45 -366.25 40.6 -366.15 41.0 -365.75 42.1 -365.5 42.85 -365.5 43.25 -365.5 43.6 -365.35 44.0 -365.15 44.4 -365.0 44.75 -365.15 45.1 -365.35 45.5 -365.5 45.85 -365.5 46.25 -365.5 46.6 -365.5 47.0 -365.5 47.35 -365.75 47.75 -365.9 48.1 -366.0 48.5 -366.4 48.85 -366.75 49.25 -367.15 49.6 -367.35 50.0 -367.55 50.35 -367.75 50.75 -368.35 51.5 -368.55 51.85 -368.75 52.25 -369.5 52.45 -370.25 52.65 -370.6 52.75 -371.0 53.0 -371.4 53.35 -371.7 53.75 -371.9 54.1 -372.0 54.5 -372.0 54.85 -372.0 55.05 -374.5 54.95 -377.65 54.35 Q-378.55 53.65 -379.55 53.05 L-380.65 52.75 -382.3 51.25 -382.65 50.9 -384.55 50.05 -385.4 49.6 -386.9 48.1 -389.15 45.85 -389.7 44.7 -390.65 42.85 -390.9 42.5 -391.0 42.1 -391.05 41.75 -391.25 41.25 -391.35 41.0 -391.5 40.6 -391.5 40.5 -391.9 40.1 -392.25 39.75 -392.35 39.35 -392.6 38.65 -393.0 37.5 -393.0 37.1 -393.0 36.35 -393.0 35.25 -393.15 34.9 -393.35 34.5 -393.5 34.1 -393.5 32.95 -393.65 32.5 -394.0 31.35 -394.0 31.0 -394.0 30.6 -394.25 30.25 -394.4 29.85 -394.5 29.5 -394.5 29.1 -394.5 28.75 -394.65 28.4 -394.85 28.0 -395.0 27.6 -395.0 27.25 -395.0 26.85 -395.15 26.5 -395.25 26.1 -395.4 25.75 -395.5 25.35 -395.5 20.85 -395.5 14.85 -395.65 14.5 -395.75 14.1 -395.95 13.35 -396.0 13.0 -395.95 12.65 -395.9 12.25 -395.75 11.85 -395.5 11.5 -395.35 11.4 -395.9 10.25 -396.1 9.85 -397.2 7.3 -398.85 4.6 -399.1 4.25 -400.15 2.35 -400.85 1.6 Q-403.6 -1.85 -407.95 -2.7 -420.55 -5.0 -432.45 -3.3 L-432.5 -3.5" fill="#80a839" fill-rule="evenodd" stroke="none"/>
  </g>
</svg>
