<?xml version="1.0" encoding="UTF-8" standalone="no"?>
<svg xmlns:ffdec="https://www.free-decompiler.com/flash" xmlns:xlink="http://www.w3.org/1999/xlink" ffdec:objectType="shape" height="25.9px" width="109.3px" xmlns="http://www.w3.org/2000/svg">
  <g transform="matrix(1.0, 0.0, 0.0, 1.0, 54.65, 13.2)">
    <path d="M-50.4 -11.65 L0.75 -11.65 -0.1 -11.6 -0.3 -11.55 -0.45 -11.55 -0.6 -11.5 -0.8 -11.45 -1.05 -11.4 -3.35 -11.35 -3.55 -11.3 -3.7 -11.3 -6.1 -11.25 -6.3 -11.2 -6.55 -11.15 -7.1 -11.1 -7.3 -11.05 -7.45 -11.05 -8.1 -11.0 -8.3 -10.95 -8.55 -10.9 -10.45 -10.85 -10.65 -10.8 -10.8 -10.8 -10.85 -10.8 -11.1 -10.85 -12.35 -10.9 -12.5 -10.9 -12.6 -10.95 -12.75 -10.95 -12.95 -11.0 -13.15 -11.05 -13.4 -11.05 -13.6 -11.1 -16.0 -11.15 -16.15 -11.15 -16.25 -11.2 -16.4 -11.2 -16.6 -11.25 -17.35 -11.3 -17.5 -11.3 -17.7 -11.35 -19.2 -11.4 -19.4 -11.45 -19.6 -11.5 -19.85 -11.55 -20.0 -11.55 -20.2 -11.6 -21.1 -11.6 -21.1 -11.55 -21.3 -11.55 -21.45 -11.55 -21.6 -11.45 -21.8 -11.4 -22.05 -11.3 -22.2 -11.3 -22.35 -11.25 -22.55 -11.2 -22.8 -11.15 -23.2 -11.1 -28.6 -11.1 -28.8 -11.05 -28.95 -11.05 -32.35 -11.0 -32.55 -10.95 -32.7 -10.95 -32.9 -10.9 -33.05 -10.8 -33.2 -10.85 -34.3 -10.9 -34.5 -10.95 -34.7 -11.0 -37.1 -11.0 -37.2 -11.0 -38.35 -11.05 -38.5 -11.05 -38.7 -11.1 -41.15 -11.15 -41.4 -11.2 -41.6 -11.25 -44.35 -11.3 -44.5 -11.3 -44.7 -11.35 -47.7 -11.4 -47.9 -11.45 -48.1 -11.5 -49.1 -11.55 -49.25 -11.55 -49.45 -11.6 -50.4 -11.65 M16.65 -11.65 L53.05 -11.65 53.05 -11.55 53.05 -11.45 53.05 -11.35 53.05 -11.25 53.05 -11.15 53.05 -11.05 53.1 -10.95 53.15 -10.9 53.15 -10.8 53.15 -10.7 53.15 -10.6 53.15 -10.5 53.15 -10.45 53.0 -10.55 52.8 -10.65 52.55 -10.7 52.4 -10.75 49.3 -10.75 49.1 -10.7 48.85 -10.65 48.3 -10.65 48.1 -10.7 47.9 -10.75 46.4 -10.8 46.25 -10.8 46.05 -10.85 45.7 -10.9 45.5 -10.95 45.3 -11.0 38.65 -11.05 38.45 -11.15 38.25 -11.2 38.05 -11.25 31.05 -11.25 30.85 -11.2 30.6 -11.15 28.9 -11.1 28.7 -11.05 28.55 -11.05 27.9 -11.05 27.75 -11.05 27.55 -11.1 27.3 -11.15 27.1 -11.2 26.9 -11.25 25.25 -11.3 25.1 -11.3 24.9 -11.35 16.85 -11.4 16.8 -11.45 16.75 -11.55 16.65 -11.65 M53.4 -8.35 L53.45 -8.25 53.5 -8.15 53.5 -8.05 53.55 -7.95 53.55 -7.9 53.55 -7.8 53.55 -7.7 53.55 -7.6 53.55 -7.55 53.4 -7.6 53.4 -7.7 53.4 -7.8 53.4 -7.9 53.4 -7.95 53.4 -8.05 53.4 -8.15 53.4 -8.25 53.4 -8.35 M53.65 11.05 L53.65 11.15 53.65 11.25 53.65 11.35 53.65 11.45 45.15 11.45 45.35 11.4 45.5 11.35 48.15 11.35 48.35 11.3 48.55 11.25 52.9 11.2 53.05 11.15 53.25 11.1 53.4 11.1 53.55 11.05 53.65 11.05 M-4.6 11.45 L-54.2 11.45 -54.2 11.35 -54.2 11.3 -54.2 11.2 -54.2 11.15 -54.1 11.1 -54.0 11.1 -53.85 11.05 -53.65 10.95 -53.5 10.85 -53.3 10.75 -51.95 10.7 -51.75 10.65 -51.6 10.6 -50.7 10.6 -50.5 10.55 -50.3 10.5 -49.85 10.45 -49.65 10.4 -49.5 10.35 -49.2 10.35 -49.0 10.3 -48.8 10.25 -48.35 10.25 -48.3 10.3 -48.2 10.35 -48.1 10.45 -47.95 10.55 -47.85 10.65 -47.65 10.75 -47.4 10.8 -47.2 10.85 -46.95 10.85 -46.8 10.9 -46.6 10.95 -46.05 11.0 -45.8 11.05 -45.6 11.1 -44.3 11.1 -44.15 11.15 -43.95 11.2 -39.3 11.25 -39.05 11.3 -38.85 11.35 -27.45 11.35 -27.25 11.3 -27.05 11.25 -26.85 11.15 -21.45 11.1 -21.25 11.05 -21.05 11.0 -20.2 10.95 -20.0 10.9 -19.85 10.85 -6.85 10.85 -6.65 10.8 -6.4 10.75 -5.95 10.7 -5.75 10.65 -5.65 10.65 -5.65 10.7 -5.6 10.8 -5.6 10.85 -5.5 10.95 -5.4 11.05 -5.35 11.15 -5.25 11.25 -5.05 11.35 -4.8 11.4 -4.6 11.45 M-53.35 -9.5 L-53.55 -9.45 -53.55 -9.55 -51.95 -9.5 -53.35 -9.5 M50.95 3.1 L50.95 3.15 50.9 3.25 50.85 3.35 50.85 3.25 50.9 3.15 50.95 3.1 M50.8 3.55 L50.8 3.6 50.8 3.7 50.8 3.8 50.8 3.9 50.8 4.0 50.7 3.9 50.65 3.8 50.7 3.7 50.75 3.6 50.8 3.55 M-8.35 7.05 L-8.4 7.05 -8.55 7.05 -8.65 7.1 -8.75 7.15 -8.9 7.25 -9.0 7.35 -9.65 7.35 -9.9 7.3 -10.1 7.25 -13.55 7.25 -12.6 7.2 -12.4 7.15 -12.25 7.1 -9.85 7.1 -9.65 7.05 -9.5 7.05 -9.4 7.0 -9.3 6.95 -9.2 6.95 -8.6 6.95 -8.45 7.0 -8.35 7.05 M-43.1 -6.15 L-42.9 -6.15 -43.1 -6.05 -43.1 -6.15 M10.8 -5.1 L10.95 -5.1 11.0 -5.05 10.9 -5.05 10.8 -5.1 M26.65 5.2 L26.7 5.25 26.3 5.25 26.55 5.2 26.65 5.2 M24.9 5.5 L24.8 5.55 24.7 5.65 24.6 5.75 24.55 5.85 24.5 5.95 23.9 5.95 24.0 5.85 24.05 5.8 24.1 5.7 24.1 5.6 24.35 5.5 24.9 5.5 M17.5 5.95 L15.5 5.95 15.6 5.9 15.75 5.85 17.4 5.85 17.45 5.9 17.5 5.95 M5.15 5.1 L3.65 5.1 3.5 5.1 3.4 5.05 3.25 5.05 3.05 5.0 0.7 4.95 0.5 4.95 0.3 4.9 -1.05 4.85 -1.25 4.8 -1.45 4.75 -3.35 4.7 -3.6 4.7 -3.85 4.65 -5.4 4.6 -5.65 4.55 -5.85 4.5 -7.0 4.45 -7.15 4.45 -7.35 4.4 -9.85 4.4 -10.05 4.45 -10.2 4.45 -10.3 4.5 -10.4 4.55 -10.65 4.6 -10.75 4.55 -10.9 4.55 -11.1 4.5 -11.9 4.45 -12.1 4.45 -12.2 4.4 -12.4 4.35 -12.65 4.3 -12.85 4.25 -13.15 4.25 -13.05 4.2 -5.7 4.2 -5.5 4.15 -5.35 4.1 -4.7 4.1 -4.5 4.05 -4.3 4.0 -3.1 3.95 -2.95 4.0 -2.8 4.05 -2.65 4.05 -2.45 4.1 -1.7 4.1 -1.45 4.15 -1.3 4.2 -1.2 4.2 -1.1 4.25 -0.95 4.3 -0.8 4.3 -0.6 4.35 -0.35 4.35 -0.1 4.4 0.1 4.45 0.25 4.45 0.4 4.5 0.55 4.55 0.7 4.55 0.9 4.6 1.9 4.6 2.2 4.65 2.55 4.7 3.2 4.7 3.35 4.75 3.45 4.8 3.6 4.8 3.8 4.85 4.0 4.85 4.2 4.9 4.4 4.95 5.05 4.95 5.1 5.05 5.15 5.1 M-28.9 4.6 L-29.0 4.65 -29.05 4.75 -29.6 4.7 -29.75 4.7 -29.8 4.7 -29.65 4.65 -29.5 4.6 -28.9 4.6 M-32.5 4.5 L-35.6 4.5 -35.8 4.55 -35.95 4.55 -36.1 4.6 -36.25 4.7 -36.35 4.8 -36.45 4.9 -36.55 5.0 -36.6 5.1 -36.9 5.1 -37.15 5.05 -37.35 5.0 -38.35 4.95 -38.5 4.95 -38.7 4.9 -39.15 4.85 -39.4 4.8 -39.6 4.75 -39.7 4.75 -38.45 4.7 -38.25 4.65 -38.1 4.6 -37.6 4.6 -37.4 4.55 -37.15 4.5 -35.85 4.45 -35.65 4.4 -35.5 4.35 -33.7 4.35 -33.5 4.3 -33.25 4.25 -32.75 4.2 -32.75 4.25 -32.65 4.3 -32.6 4.4 -32.5 4.5 M-47.5 -3.4 L-47.45 -3.5 -47.4 -3.6 -47.4 -3.7 -47.35 -3.8 -47.2 -3.9 -47.05 -3.95 -46.9 -4.05 -47.0 -3.95 -47.1 -3.9 -47.15 -3.8 -47.25 -3.7 -47.3 -3.6 -47.4 -3.5 -47.5 -3.4 M-44.75 -3.1 L-44.7 -3.15 -44.7 -3.05 -44.7 -2.95 -44.75 -2.9 -44.9 -2.8 -45.05 -2.7 -45.15 -2.6 -45.3 -2.5 -45.4 -2.45 -45.3 -2.55 -45.2 -2.65 -45.1 -2.7 -45.0 -2.8 -44.95 -2.9 -44.85 -3.0 -44.75 -3.1 M13.3 -4.7 L13.1 -4.65 12.85 -4.55 12.65 -4.55 12.55 -4.65 12.4 -4.7 12.15 -4.8 11.95 -4.9 12.9 -4.8 13.1 -4.75 13.3 -4.7 M34.7 -6.85 L35.3 -6.9 35.45 -6.85 35.6 -6.8 35.6 -6.75 35.6 -6.65 35.65 -6.55 35.65 -6.5 34.9 -6.55 34.9 -6.6 34.85 -6.7 34.75 -6.8 34.7 -6.85 M39.25 -5.75 L39.85 -5.75 40.1 -5.7 40.3 -5.65 42.6 -5.65 42.5 -5.55 42.45 -5.5 39.45 -5.55 39.4 -5.6 39.3 -5.7 39.25 -5.75 M47.9 -1.1 L47.95 -1.0 47.95 -0.9 47.95 -0.8 47.95 -0.7 47.95 -0.65 47.95 -0.55 47.95 -0.45 47.95 -0.35 47.95 -0.25 47.95 -0.15 47.95 -0.05 47.95 0.05 48.0 0.1 48.0 0.2 48.0 0.3 47.9 0.35 47.9 0.3 47.9 0.2 47.9 0.1 47.9 0.0 47.9 -0.1 47.9 -0.2 47.9 -0.3 47.9 -0.4 47.9 -0.45 47.9 -0.55 47.9 -0.65 47.9 -0.75 47.9 -0.85 47.9 -0.95 47.9 -1.05 47.9 -1.1 M38.45 4.95 L37.65 5.0 37.45 5.05 37.2 5.1 35.8 5.15 35.6 5.2 35.45 5.2 33.15 5.25 32.95 5.3 32.7 5.35 30.55 5.35 30.35 5.3 30.15 5.25 28.85 5.25 28.8 5.2 28.75 5.1 32.3 5.1 32.5 5.05 32.7 5.0 38.45 4.95 M44.65 -8.65 L44.65 -8.6 44.55 -8.65 44.35 -8.7 44.15 -8.75 44.7 -8.75 44.65 -8.65 M-26.25 4.6 L-22.95 4.6 -22.75 4.55 -22.55 4.5 -22.05 4.5 -22.05 4.65 -25.95 4.65 -26.15 4.7 -26.3 4.7 -26.4 4.75 -26.5 4.8 -26.65 4.9 -26.75 5.0 -26.85 5.1 -26.95 5.1 -26.9 5.05 -26.8 4.95 -26.65 4.85 -26.5 4.8 -26.35 4.7 -26.25 4.6 M-45.2 0.65 L-45.2 0.75 -45.2 0.85 -45.2 0.95 -45.2 1.05 -45.2 1.1 -45.25 1.05 -45.35 0.95 -45.4 0.85 -45.5 0.75 -45.6 0.65 -45.7 0.55 -45.55 0.55 -45.35 0.6 -45.2 0.65 M-41.3 0.55 L-41.4 0.65 -41.45 0.75 -41.45 0.8 -41.5 0.75 -41.55 0.65 -41.6 0.55 -41.6 0.45 -41.4 0.4 -41.25 0.35 -41.1 0.35 -41.2 0.45 -41.3 0.55" fill="#999999" fill-rule="evenodd" stroke="none"/>
    <path d="M23.5 -2.8 L23.5 -2.75 23.55 -2.65 23.6 -2.55 23.6 -2.45 23.6 -2.4 23.6 -2.3 23.6 -2.2 23.6 -2.1 23.6 -2.0 23.65 -1.9 23.65 -1.8 23.75 -1.7 23.8 -1.65 23.85 -1.55 23.85 -1.45 23.85 -1.35 23.85 -1.25 23.85 -1.15 23.85 -1.05 23.85 -0.95 23.85 -0.9 23.85 -0.8 23.85 -0.7 23.85 -0.6 23.85 -0.5 23.85 -0.4 23.85 -0.3 23.85 -0.2 23.85 -0.15 23.85 -0.05 23.85 0.05 23.85 0.15 23.85 0.25 23.85 0.35 23.85 0.45 23.85 0.55 23.85 0.6 23.85 0.7 23.85 0.8 23.85 0.9 23.85 1.0 23.85 1.1 23.9 1.2 23.9 1.3 23.95 1.35 24.0 1.45 24.1 1.55 24.1 1.65 24.15 1.75 24.15 1.85 22.6 1.85 22.35 1.8 22.15 1.75 20.6 1.7 20.35 1.7 20.15 1.65 15.05 1.6 14.9 1.6 14.75 1.55 14.6 1.55 14.4 1.5 11.85 1.45 11.6 1.45 11.3 1.4 8.45 1.35 8.25 1.35 8.05 1.3 7.85 1.3 7.65 1.25 -0.85 1.2 -1.0 1.2 -1.2 1.15 -1.45 1.1 -1.65 1.05 -1.85 1.0 -2.0 0.95 -2.15 0.95 -2.35 0.9 -3.7 0.85 -3.9 0.8 -4.1 0.75 -4.6 0.7 -4.75 0.7 -4.95 0.65 -9.95 0.65 -10.15 0.7 -10.3 0.7 -10.4 0.75 -10.5 0.8 -10.65 0.9 -10.75 1.0 -10.85 1.1 -14.0 1.1 -14.15 1.1 -14.35 1.05 -14.5 1.05 -14.7 1.0 -16.9 0.95 -17.15 0.95 -17.45 0.9 -19.5 0.85 -19.65 0.85 -19.85 0.8 -20.0 0.8 -20.2 0.75 -21.25 0.7 -21.55 0.7 -21.85 0.65 -23.6 0.6 -23.75 0.6 -23.85 0.55 -24.0 0.55 -24.2 0.5 -26.45 0.5 -26.5 0.45 -26.6 0.35 -26.65 0.3 -26.8 0.2 -26.95 0.1 -27.1 0.0 -27.2 -0.1 -27.35 -0.2 -27.5 -0.3 -27.65 -0.4 -27.8 -0.45 -27.9 -0.55 -28.05 -0.65 -28.2 -0.75 -28.35 -0.85 -28.5 -0.9 -28.7 -0.95 -28.95 -0.95 -28.95 -0.9 -29.15 -0.9 -29.35 -0.85 -29.45 -0.75 -29.55 -0.65 -29.65 -0.55 -29.65 -0.45 -29.7 -0.4 -29.75 -0.3 -29.75 -0.2 -29.75 -0.1 -29.75 0.0 -29.7 0.1 -29.65 0.2 -29.6 0.3 -29.5 0.35 -29.45 0.4 -29.7 0.35 -29.85 0.35 -30.0 0.3 -30.15 0.3 -30.35 0.25 -34.75 0.2 -34.9 0.2 -35.1 0.15 -40.45 0.15 -40.45 0.2 -40.6 0.2 -40.5 0.15 -40.35 0.05 -40.2 -0.05 -40.1 -0.15 -40.0 -0.2 -39.95 -0.3 -39.9 -0.4 -39.85 -0.5 -39.85 -0.6 -39.8 -0.7 -39.75 -0.8 -39.75 -0.9 -39.75 -0.95 -39.8 -1.05 -39.8 -1.15 -39.85 -1.25 -39.85 -1.35 -39.9 -1.45 -40.0 -1.55 -40.05 -1.65 -40.15 -1.7 -40.25 -1.8 -40.45 -1.9 -40.65 -1.95 -40.85 -2.0 -41.05 -2.05 -41.0 -2.05 -41.0 -2.15 -40.9 -2.2 -40.85 -2.3 -40.85 -2.4 -40.8 -2.5 -40.8 -2.6 -40.75 -2.7 -40.75 -2.8 -40.75 -2.9 -40.8 -2.95 -40.85 -3.05 -40.85 -3.15 -40.9 -3.25 -40.95 -3.35 -41.0 -3.45 -41.1 -3.55 -41.2 -3.65 -41.35 -3.7 -41.5 -3.8 -41.4 -3.9 -41.25 -4.0 -41.1 -4.1 -39.35 -4.15 -39.15 -4.2 -38.9 -4.25 -36.35 -4.3 -36.15 -4.35 -36.0 -4.4 -30.3 -4.4 -30.15 -4.35 -29.95 -4.3 -27.6 -4.3 -27.6 -4.2 -27.5 -4.15 -27.4 -4.05 -27.35 -3.95 -27.25 -3.85 -27.05 -3.75 -26.8 -3.7 -26.6 -3.65 -24.7 -3.65 -24.5 -3.7 -24.3 -3.75 -21.7 -3.8 -21.5 -3.85 -21.35 -3.9 -15.65 -3.9 -15.65 -3.8 -15.6 -3.7 -15.6 -3.65 -15.5 -3.55 -15.4 -3.45 -15.35 -3.35 -15.25 -3.25 -15.05 -3.15 -14.8 -3.1 -14.6 -3.05 -7.85 -3.05 -7.65 -3.1 -7.5 -3.15 -2.0 -3.1 -1.8 -3.0 -1.55 -2.95 -1.35 -2.9 1.05 -2.9 1.25 -2.95 1.45 -3.0 8.7 -3.05 8.7 -2.95 8.7 -2.85 8.75 -2.75 8.75 -2.65 8.8 -2.55 8.85 -2.45 8.9 -2.4 9.0 -2.3 9.1 -2.2 9.15 -2.1 9.35 -2.0 9.6 -1.95 9.8 -1.9 10.8 -1.9 11.0 -1.95 11.15 -1.95 11.25 -2.0 11.35 -2.05 11.5 -2.15 11.8 -2.25 12.8 -2.3 13.0 -2.35 13.15 -2.4 13.4 -2.4 13.6 -2.45 13.8 -2.5 14.15 -2.55 14.35 -2.6 14.5 -2.65 15.55 -2.65 15.75 -2.7 15.9 -2.7 16.05 -2.8 16.35 -2.85 16.6 -2.85 16.8 -2.8 23.5 -2.8 M26.05 1.85 L26.0 1.75 26.0 1.65 25.9 1.55 25.85 1.45 25.8 1.35 25.8 1.3 25.75 1.2 25.7 1.1 25.65 1.0 25.6 0.9 25.55 0.8 25.5 0.7 25.45 0.6 25.4 0.55 25.4 0.45 25.4 0.35 25.4 0.25 25.4 0.15 25.4 0.05 25.4 -0.05 25.4 -0.15 25.4 -0.2 25.4 -0.3 25.4 -0.4 25.4 -0.5 25.4 -0.6 25.4 -0.7 25.4 -0.8 25.4 -0.9 25.4 -0.95 25.4 -1.05 25.4 -1.15 25.5 -1.05 25.7 -1.0 25.75 -0.95 25.85 -0.85 26.0 -0.75 26.15 -0.65 26.25 -0.55 26.5 -0.45 26.7 -0.4 26.9 -0.4 27.0 -0.3 27.15 -0.2 27.35 -0.15 27.4 -0.15 27.5 -0.05 27.7 0.0 27.9 0.05 28.0 0.05 28.1 0.1 28.15 0.1 28.25 0.2 28.5 0.3 28.7 0.35 28.85 0.35 28.9 0.45 29.1 0.5 29.3 0.55 29.85 0.55 29.95 0.6 30.15 0.6 30.25 0.7 30.45 0.75 30.65 0.8 31.6 0.8 31.7 0.85 31.9 0.85 33.05 0.85 33.25 0.85 33.4 0.8 33.6 0.7 33.65 0.7 33.75 0.6 33.9 0.55 34.15 0.45 34.3 0.35 34.4 0.25 34.45 0.15 34.6 0.05 34.7 -0.05 34.85 -0.15 34.95 -0.2 35.0 -0.3 35.1 -0.4 35.2 -0.5 35.35 -0.6 35.4 -0.7 35.5 -0.8 35.6 -0.9 35.75 -0.95 35.9 -1.05 36.0 -1.15 36.05 -1.15 39.05 -1.15 39.25 -1.15 39.35 -1.2 39.4 -1.2 39.5 -1.3 39.6 -1.4 39.65 -1.45 39.75 -1.55 39.75 -1.65 39.8 -1.75 39.85 -1.85 39.85 -1.95 39.8 -2.05 39.8 -2.15 39.75 -2.2 39.7 -2.3 39.65 -2.4 39.55 -2.5 39.4 -2.6 39.25 -2.65 39.05 -2.7 36.05 -2.7 36.05 -2.65 35.85 -2.65 35.8 -2.65 35.75 -2.75 35.65 -2.85 35.6 -2.95 35.5 -3.05 35.4 -3.15 35.35 -3.2 35.25 -3.3 35.2 -3.35 35.3 -3.4 35.45 -3.45 35.55 -3.5 35.9 -3.5 35.95 -3.5 36.2 -3.45 36.4 -3.4 36.65 -3.4 36.8 -3.4 36.95 -3.35 37.15 -3.3 37.4 -3.3 37.75 -3.3 38.85 -3.25 39.1 -3.2 39.3 -3.15 39.8 -3.15 41.3 -3.15 41.45 -3.1 41.5 -3.1 41.5 -3.05 41.55 -2.95 41.55 -2.9 41.55 -2.8 41.55 -2.7 41.55 -2.6 41.55 -2.5 41.55 -2.4 41.55 -2.3 41.55 -2.2 41.55 -2.15 41.6 -2.05 41.6 -1.95 41.6 -1.85 41.65 -1.75 41.7 -1.65 41.75 -1.55 41.8 -1.45 41.85 -1.4 41.85 -1.3 41.95 -1.2 42.0 -1.1 42.05 -1.0 42.1 -0.9 42.2 -0.8 42.3 -0.7 42.4 -0.65 42.5 -0.55 42.6 -0.45 42.6 -0.4 42.55 -0.4 42.4 -0.3 42.25 -0.2 42.1 -0.1 41.95 0.0 41.85 0.1 41.75 0.2 41.65 0.3 41.6 0.35 41.5 0.45 41.4 0.55 41.4 0.65 41.35 0.75 41.35 0.85 41.3 0.95 41.3 1.05 41.3 1.1 41.3 1.2 41.3 1.3 41.3 1.4 41.35 1.5 41.35 1.6 41.4 1.7 41.4 1.8 41.5 1.85 41.6 1.95 41.65 2.05 41.75 2.15 41.9 2.25 39.95 2.25 39.95 2.2 39.95 2.1 39.9 2.0 39.9 1.9 39.85 1.8 39.75 1.7 39.7 1.6 39.6 1.55 39.5 1.45 39.3 1.35 39.1 1.3 38.9 1.25 38.65 1.25 38.45 1.3 38.2 1.35 37.9 1.4 37.7 1.45 37.55 1.45 37.15 1.5 36.95 1.55 36.7 1.6 34.3 1.65 34.1 1.7 33.95 1.7 33.05 1.75 32.85 1.8 32.6 1.85 26.05 1.85 M33.2 -2.9 L33.2 -2.85 33.3 -2.75 33.4 -2.65 33.5 -2.55 33.7 -2.5 33.75 -2.45 33.85 -2.35 33.95 -2.25 34.1 -2.15 34.15 -2.05 34.25 -1.95 34.25 -1.9 34.15 -1.8 34.0 -1.7 33.9 -1.6 33.8 -1.5 33.7 -1.4 33.6 -1.3 33.5 -1.2 33.4 -1.15 33.35 -1.05 33.15 -0.95 32.9 -0.85 32.8 -0.75 32.2 -0.7 32.1 -0.75 31.9 -0.8 31.0 -0.85 30.85 -0.9 30.65 -0.95 30.45 -0.95 30.35 -1.0 30.15 -1.05 29.65 -1.1 29.5 -1.15 29.3 -1.2 29.15 -1.25 29.0 -1.35 28.85 -1.4 28.65 -1.45 28.6 -1.45 28.5 -1.5 28.35 -1.55 28.25 -1.6 28.1 -1.65 27.9 -1.7 27.8 -1.75 27.65 -1.85 27.5 -1.9 27.2 -1.95 27.1 -2.05 26.95 -2.15 26.8 -2.25 26.65 -2.35 26.45 -2.45 26.35 -2.55 26.3 -2.65 26.25 -2.7 26.2 -2.8 26.15 -2.9 26.7 -2.9 26.85 -2.85 27.05 -2.8 32.3 -2.8 32.5 -2.85 32.65 -2.9 33.2 -2.9" fill="#cccccc" fill-rule="evenodd" stroke="none"/>
    <path d="M-46.9 -4.05 L-46.85 -4.15 -46.8 -4.25 -46.7 -4.35 -46.6 -4.45 -46.5 -4.55 -46.4 -4.65 -46.35 -4.7 -46.25 -4.8 -46.15 -4.9 -46.05 -5.0 -46.0 -5.1 -45.9 -5.2 -45.85 -5.3 -45.75 -5.4 -45.65 -5.45 -45.6 -5.55 -45.55 -5.65 -45.5 -5.75 -45.5 -5.85 -45.45 -5.95 -45.4 -6.05 -45.35 -6.15 -45.25 -6.2 -45.15 -6.3 -45.1 -6.4 -44.9 -6.5 -44.65 -6.6 -44.55 -6.65 -44.45 -6.7 -44.3 -6.7 -44.1 -6.7 -44.1 -6.75 -43.9 -6.7 -43.7 -6.65 -43.5 -6.55 -43.4 -6.45 -43.3 -6.4 -43.25 -6.3 -43.15 -6.2 -43.1 -6.15 -43.1 -6.05 -42.9 -6.15 -42.65 -6.2 -42.45 -6.25 -41.8 -6.3 -41.65 -6.3 -41.45 -6.35 -39.4 -6.4 -39.15 -6.45 -38.95 -6.5 -36.2 -6.55 -36.05 -6.55 -35.85 -6.6 -34.65 -6.65 -34.55 -6.75 -34.4 -6.85 -34.3 -6.9 -34.2 -6.95 -34.05 -6.95 -33.85 -6.95 -33.85 -7.0 -22.6 -7.0 -22.4 -6.95 -22.15 -6.9 -21.45 -6.85 -21.25 -6.8 -21.1 -6.8 -20.95 -6.75 -20.75 -6.7 -20.55 -6.65 -20.35 -6.6 -20.15 -6.55 -19.95 -6.5 -19.75 -6.4 -19.65 -6.3 -19.55 -6.2 -19.5 -6.15 -19.45 -6.15 -11.7 -6.1 -11.5 -6.05 -11.35 -6.05 -11.2 -6.0 -11.0 -5.95 -10.8 -5.9 -10.6 -5.8 -10.5 -5.7 -10.4 -5.65 -10.35 -5.55 -10.25 -5.45 -10.2 -5.35 -10.15 -5.3 -7.8 -5.3 -7.65 -5.3 -7.45 -5.35 0.65 -5.35 0.85 -5.3 1.0 -5.3 10.3 -5.25 10.5 -5.2 10.7 -5.15 10.8 -5.1 10.9 -5.05 11.0 -5.05 10.95 -5.1 12.55 -5.15 12.75 -5.2 13.0 -5.25 15.55 -5.3 15.45 -5.25 15.35 -5.2 15.2 -5.1 15.1 -5.0 15.0 -4.9 14.55 -4.85 14.35 -4.8 14.2 -4.8 13.65 -4.75 13.45 -4.7 18.15 -4.7 18.35 -4.75 18.45 -4.8 18.55 -4.85 18.85 -4.9 18.95 -4.95 19.05 -5.0 19.15 -5.1 19.25 -5.2 19.3 -5.3 19.35 -5.4 19.4 -5.45 19.5 -5.55 19.5 -5.65 19.55 -5.75 19.6 -5.85 19.6 -5.95 19.55 -6.05 19.55 -6.15 19.5 -6.2 19.45 -6.3 19.4 -6.4 19.3 -6.5 19.15 -6.6 20.6 -6.6 20.7 -6.5 20.8 -6.4 20.9 -6.3 21.0 -6.2 21.1 -6.15 21.15 -6.05 21.25 -5.95 21.35 -5.85 21.45 -5.75 21.55 -5.65 21.65 -5.55 21.75 -5.45 21.85 -5.4 21.9 -5.3 22.0 -5.2 22.1 -5.1 22.2 -5.0 22.3 -4.9 22.35 -4.8 22.4 -4.7 22.45 -4.65 22.5 -4.55 22.6 -4.45 22.6 -4.35 22.65 -4.25 22.65 -4.15 22.75 -4.05 22.8 -3.95 22.8 -3.9 22.85 -3.8 22.9 -3.7 22.95 -3.6 23.05 -3.5 23.1 -3.4 23.15 -3.3 23.15 -3.2 23.2 -3.15 23.25 -3.05 23.35 -2.95 23.45 -2.85 23.5 -2.8 16.8 -2.8 16.6 -2.85 16.35 -2.85 16.05 -2.8 15.9 -2.7 15.75 -2.7 15.55 -2.65 14.5 -2.65 14.35 -2.6 14.15 -2.55 13.8 -2.5 13.6 -2.45 13.4 -2.4 13.15 -2.4 13.0 -2.35 12.8 -2.3 11.8 -2.25 11.5 -2.15 11.35 -2.05 11.25 -2.0 11.15 -1.95 11.0 -1.95 10.8 -1.9 9.8 -1.9 9.6 -1.95 9.35 -2.0 9.15 -2.1 9.1 -2.2 9.0 -2.3 8.9 -2.4 8.85 -2.45 8.8 -2.55 8.75 -2.65 8.75 -2.75 8.7 -2.85 8.7 -2.95 8.7 -3.05 1.45 -3.0 1.25 -2.95 1.05 -2.9 -1.35 -2.9 -1.55 -2.95 -1.8 -3.0 -2.0 -3.1 -7.5 -3.15 -7.65 -3.1 -7.85 -3.05 -14.6 -3.05 -14.8 -3.1 -15.05 -3.15 -15.25 -3.25 -15.35 -3.35 -15.4 -3.45 -15.5 -3.55 -15.6 -3.65 -15.6 -3.7 -15.65 -3.8 -15.65 -3.9 -21.35 -3.9 -21.5 -3.85 -21.7 -3.8 -24.3 -3.75 -24.5 -3.7 -24.7 -3.65 -26.6 -3.65 -26.8 -3.7 -27.05 -3.75 -27.25 -3.85 -27.35 -3.95 -27.4 -4.05 -27.5 -4.15 -27.6 -4.2 -27.6 -4.3 -29.95 -4.3 -30.15 -4.35 -30.3 -4.4 -36.0 -4.4 -36.15 -4.35 -36.35 -4.3 -38.9 -4.25 -39.15 -4.2 -39.35 -4.15 -41.1 -4.1 -41.25 -4.0 -41.4 -3.9 -41.5 -3.8 -41.35 -3.7 -41.2 -3.65 -41.1 -3.55 -41.0 -3.45 -40.95 -3.35 -40.9 -3.25 -40.85 -3.15 -40.85 -3.05 -40.8 -2.95 -40.75 -2.9 -40.75 -2.8 -40.75 -2.7 -40.8 -2.6 -40.8 -2.5 -40.85 -2.4 -40.85 -2.3 -40.9 -2.2 -41.0 -2.15 -41.0 -2.05 -41.05 -2.05 -40.85 -2.0 -40.65 -1.95 -40.45 -1.9 -40.25 -1.8 -40.15 -1.7 -40.05 -1.65 -40.0 -1.55 -39.9 -1.45 -39.85 -1.35 -39.85 -1.25 -39.8 -1.15 -39.8 -1.05 -39.75 -0.95 -39.75 -0.9 -39.75 -0.8 -39.8 -0.7 -39.85 -0.6 -39.85 -0.5 -39.9 -0.4 -39.95 -0.3 -40.0 -0.2 -40.1 -0.15 -40.2 -0.05 -40.35 0.05 -40.5 0.15 -40.6 0.2 -40.45 0.2 -40.45 0.15 -35.1 0.15 -34.9 0.2 -34.75 0.2 -30.35 0.25 -30.15 0.3 -30.0 0.3 -29.85 0.35 -29.7 0.35 -29.45 0.4 -29.4 0.45 -29.25 0.55 -29.15 0.65 -29.0 0.75 -28.85 0.85 -28.75 0.95 -28.55 1.0 -28.5 1.05 -28.4 1.15 -28.25 1.25 -28.1 1.35 -28.0 1.45 -27.8 1.5 -27.7 1.6 -27.6 1.7 -27.5 1.8 -27.45 1.85 -27.4 1.95 -27.35 2.05 -27.3 2.15 -27.2 2.25 -27.1 2.35 -27.0 2.45 -26.8 2.5 -26.75 2.55 -26.8 2.6 -26.9 2.7 -27.0 2.8 -27.1 2.85 -27.15 2.95 -27.2 3.05 -27.25 3.15 -27.35 3.25 -27.45 3.35 -27.55 3.45 -27.6 3.55 -27.7 3.6 -27.85 3.7 -28.0 3.8 -28.1 3.9 -28.2 4.0 -28.3 4.1 -28.4 4.2 -28.5 4.3 -28.6 4.35 -28.65 4.45 -28.85 4.55 -28.9 4.6 -29.5 4.6 -29.65 4.65 -29.8 4.7 -29.85 4.7 -31.85 4.7 -32.05 4.65 -32.3 4.6 -32.5 4.5 -32.6 4.4 -32.65 4.3 -32.75 4.25 -32.75 4.2 -33.25 4.25 -33.5 4.3 -33.7 4.35 -35.5 4.35 -35.65 4.4 -35.85 4.45 -37.15 4.5 -37.4 4.55 -37.6 4.6 -38.1 4.6 -38.25 4.65 -38.45 4.7 -39.7 4.75 -39.9 4.8 -40.1 4.85 -41.7 4.85 -41.9 4.8 -42.15 4.75 -42.35 4.65 -42.4 4.55 -42.5 4.45 -42.6 4.35 -42.65 4.3 -42.7 4.2 -42.75 4.1 -42.75 4.0 -42.8 3.9 -42.8 3.8 -42.8 3.7 -42.8 3.6 -43.1 3.6 -43.3 3.55 -43.55 3.5 -45.35 3.45 -45.55 3.4 -45.8 3.35 -46.15 3.25 -46.35 3.15 -46.45 3.05 -46.6 2.95 -46.7 2.85 -46.8 2.8 -46.9 2.7 -46.95 2.6 -47.0 2.5 -47.1 2.4 -47.15 2.3 -47.25 2.2 -47.35 2.1 -47.4 2.05 -47.5 1.95 -47.55 1.85 -47.6 1.75 -47.65 1.65 -47.7 1.55 -47.75 1.45 -47.85 1.35 -47.85 1.3 -47.9 1.2 -47.95 1.1 -48.0 1.0 -48.05 0.9 -48.1 0.8 -48.15 0.7 -48.15 0.6 -48.2 0.55 -48.2 0.45 -48.2 0.35 -48.2 0.25 -48.2 0.15 -48.2 0.05 -48.2 -0.05 -48.2 -0.15 -48.2 -0.2 -48.2 -0.3 -48.2 -0.4 -48.2 -0.5 -48.2 -0.6 -48.2 -0.7 -48.2 -0.8 -48.2 -0.9 -48.2 -0.95 -48.2 -1.05 -48.2 -1.15 -48.2 -1.25 -48.2 -1.35 -48.2 -1.45 -48.2 -1.55 -48.2 -1.65 -48.2 -1.7 -48.2 -1.8 -48.2 -1.9 -48.2 -2.0 -48.2 -2.1 -48.15 -2.2 -48.15 -2.3 -48.1 -2.4 -48.05 -2.45 -48.0 -2.55 -47.95 -2.65 -47.9 -2.75 -47.9 -2.85 -47.85 -2.95 -47.85 -3.05 -47.75 -3.15 -47.65 -3.2 -47.6 -3.3 -47.5 -3.4 -47.4 -3.5 -47.3 -3.6 -47.25 -3.7 -47.15 -3.8 -47.1 -3.9 -47.0 -3.95 -46.9 -4.05 M24.15 1.85 L24.25 1.95 24.3 2.05 24.35 2.1 24.4 2.2 24.4 2.3 24.45 2.4 24.55 2.5 24.6 2.6 24.65 2.7 24.75 2.8 24.8 2.85 24.85 2.95 24.9 3.05 24.9 3.15 24.95 3.25 25.05 3.35 25.1 3.45 25.15 3.55 25.2 3.6 25.25 3.7 25.35 3.8 25.4 3.9 25.45 4.0 25.55 4.1 25.65 4.2 25.75 4.3 25.9 4.35 25.95 4.45 26.0 4.55 26.1 4.65 26.2 4.75 26.35 4.85 26.4 4.95 26.5 5.05 26.6 5.1 26.65 5.2 26.55 5.2 26.3 5.25 26.0 5.35 25.75 5.4 25.55 5.45 24.9 5.5 24.35 5.5 24.1 5.6 24.1 5.7 24.05 5.8 24.0 5.85 23.9 5.95 23.85 6.05 23.75 6.15 23.65 6.25 23.45 6.35 23.25 6.4 23.05 6.45 18.4 6.45 18.2 6.4 17.95 6.35 17.75 6.25 17.65 6.15 17.6 6.05 17.5 5.95 17.45 5.9 17.4 5.85 15.75 5.85 15.6 5.9 15.5 5.95 15.4 5.95 10.9 5.95 10.7 5.9 10.55 5.85 9.8 5.85 9.6 5.8 9.35 5.75 8.15 5.7 7.95 5.65 7.8 5.6 6.05 5.6 5.85 5.55 5.6 5.5 5.4 5.4 5.35 5.3 5.25 5.2 5.15 5.1 5.1 5.05 5.05 4.95 4.4 4.95 4.2 4.9 4.0 4.85 3.8 4.85 3.6 4.8 3.45 4.8 3.35 4.75 3.2 4.7 2.55 4.7 2.2 4.65 1.9 4.6 0.9 4.6 0.7 4.55 0.55 4.55 0.4 4.5 0.25 4.45 0.1 4.45 -0.1 4.4 -0.35 4.35 -0.6 4.35 -0.8 4.3 -0.95 4.3 -1.1 4.25 -1.2 4.2 -1.3 4.2 -1.45 4.15 -1.7 4.1 -2.45 4.1 -2.65 4.05 -2.8 4.05 -2.95 4.0 -3.1 3.95 -4.3 4.0 -4.5 4.05 -4.7 4.1 -5.35 4.1 -5.5 4.15 -5.7 4.2 -13.05 4.2 -13.15 4.25 -13.25 4.3 -13.4 4.3 -13.6 4.35 -16.1 4.35 -16.25 4.4 -16.45 4.45 -17.1 4.45 -17.0 4.35 -16.9 4.3 -16.85 4.2 -16.75 4.1 -16.75 4.0 -16.7 3.9 -16.65 3.8 -16.65 3.7 -16.7 3.6 -16.7 3.55 -16.75 3.45 -16.8 3.35 -16.85 3.25 -16.95 3.15 -17.1 3.05 -17.25 3.0 -17.45 2.95 -17.6 2.9 -17.75 2.85 -17.95 2.8 -18.3 2.8 -18.4 2.75 -18.5 2.7 -18.6 2.65 -18.75 2.6 -18.95 2.55 -20.35 2.55 -20.55 2.6 -20.75 2.65 -24.9 2.65 -24.9 2.55 -24.9 2.45 -24.9 2.35 -24.9 2.25 -24.9 2.15 -24.95 2.05 -25.0 1.95 -25.05 1.85 -25.1 1.8 -25.15 1.7 -25.25 1.6 -25.35 1.5 -25.45 1.4 -25.6 1.3 -25.75 1.2 -25.9 1.1 -26.05 1.05 -26.15 0.95 -26.2 0.85 -26.25 0.75 -26.35 0.65 -26.4 0.55 -26.45 0.5 -24.2 0.5 -24.0 0.55 -23.85 0.55 -23.75 0.6 -23.6 0.6 -21.85 0.65 -21.55 0.7 -21.25 0.7 -20.2 0.75 -20.0 0.8 -19.85 0.8 -19.65 0.85 -19.5 0.85 -17.45 0.9 -17.15 0.95 -16.9 0.95 -14.7 1.0 -14.5 1.05 -14.35 1.05 -14.15 1.1 -14.0 1.1 -10.85 1.1 -10.75 1.0 -10.65 0.9 -10.5 0.8 -10.4 0.75 -10.3 0.7 -10.15 0.7 -9.95 0.65 -4.95 0.65 -4.75 0.7 -4.6 0.7 -4.1 0.75 -3.9 0.8 -3.7 0.85 -2.35 0.9 -2.15 0.95 -2.0 0.95 -1.85 1.0 -1.65 1.05 -1.45 1.1 -1.2 1.15 -1.0 1.2 -0.85 1.2 7.65 1.25 7.85 1.3 8.05 1.3 8.25 1.35 8.45 1.35 11.3 1.4 11.6 1.45 11.85 1.45 14.4 1.5 14.6 1.55 14.75 1.55 14.9 1.6 15.05 1.6 20.15 1.65 20.35 1.7 20.6 1.7 22.15 1.75 22.35 1.8 22.6 1.85 24.15 1.85 M-44.75 -3.1 L-44.85 -3.0 -44.95 -2.9 -45.0 -2.8 -45.1 -2.7 -45.2 -2.65 -45.3 -2.55 -45.4 -2.45 -45.3 -2.5 -45.15 -2.6 -45.05 -2.7 -44.9 -2.8 -44.75 -2.9 -44.7 -2.95 -44.7 -3.05 -44.7 -3.15 -44.75 -3.1 M13.3 -4.7 L13.1 -4.75 12.9 -4.8 11.95 -4.9 12.15 -4.8 12.4 -4.7 12.55 -4.65 12.65 -4.55 12.85 -4.55 13.1 -4.65 13.3 -4.7 M26.15 -2.9 L26.05 -3.0 25.9 -3.1 25.75 -3.15 25.55 -3.2 25.35 -3.15 25.25 -3.15 25.15 -3.1 25.15 -3.15 25.1 -3.2 25.1 -3.3 25.05 -3.4 25.0 -3.5 25.0 -3.6 24.9 -3.7 24.85 -3.8 24.75 -3.9 24.65 -3.95 24.6 -4.05 24.5 -4.15 24.5 -4.25 24.4 -4.35 24.35 -4.45 24.35 -4.55 24.3 -4.65 24.3 -4.7 24.25 -4.8 24.2 -4.9 24.15 -5.0 24.1 -5.1 24.05 -5.2 24.0 -5.3 23.95 -5.4 23.9 -5.45 23.85 -5.55 23.75 -5.65 23.75 -5.75 23.65 -5.85 23.6 -5.95 23.5 -6.05 23.4 -6.15 23.35 -6.2 23.2 -6.3 23.15 -6.4 23.05 -6.5 22.9 -6.6 22.85 -6.7 22.8 -6.75 22.9 -6.75 24.2 -6.8 24.35 -6.8 24.55 -6.8 24.55 -6.85 29.4 -6.85 29.6 -6.8 29.75 -6.8 30.2 -6.75 30.35 -6.85 30.45 -6.9 30.55 -6.95 30.7 -6.95 30.9 -7.0 31.5 -7.05 31.7 -7.15 31.95 -7.2 32.15 -7.2 32.15 -7.25 33.9 -7.25 34.1 -7.2 34.3 -7.15 34.5 -7.05 34.6 -6.95 34.7 -6.9 34.7 -6.85 34.75 -6.8 34.85 -6.7 34.9 -6.6 34.9 -6.55 35.65 -6.5 36.55 -6.5 36.75 -6.45 36.95 -6.4 37.4 -6.35 37.6 -6.3 37.75 -6.3 38.05 -6.25 38.25 -6.2 38.45 -6.15 38.65 -6.05 38.8 -5.95 39.05 -5.9 39.2 -5.8 39.25 -5.75 39.3 -5.7 39.4 -5.6 39.45 -5.55 42.45 -5.5 42.5 -5.55 42.6 -5.65 42.65 -5.7 42.75 -5.8 42.95 -5.9 43.2 -5.95 43.4 -5.95 43.4 -6.0 44.65 -6.0 44.85 -5.95 45.05 -5.9 45.25 -5.8 45.4 -5.7 45.55 -5.65 45.65 -5.55 45.75 -5.45 45.8 -5.35 45.85 -5.25 45.9 -5.15 46.0 -5.05 46.0 -4.95 46.05 -4.9 46.1 -4.8 46.1 -4.7 46.15 -4.6 46.15 -4.5 46.2 -4.45 46.2 -4.5 46.3 -4.55 46.45 -4.55 46.65 -4.6 46.8 -4.6 47.0 -4.55 47.2 -4.5 47.4 -4.4 47.5 -4.3 47.6 -4.2 47.65 -4.15 47.75 -4.05 47.8 -3.95 47.85 -3.85 47.85 -3.75 47.85 -3.65 47.9 -3.55 47.9 -3.45 47.9 -3.4 47.9 -3.3 47.9 -3.2 47.9 -3.1 47.9 -3.0 47.9 -2.9 47.9 -2.8 47.9 -2.7 47.9 -2.65 47.9 -2.55 47.9 -2.45 47.9 -2.35 47.9 -2.25 47.9 -2.15 47.9 -2.05 47.9 -1.95 47.9 -1.9 47.9 -1.8 47.9 -1.7 47.9 -1.6 47.9 -1.5 47.9 -1.4 47.9 -1.3 47.9 -1.2 47.9 -1.1 47.9 -1.05 47.9 -0.95 47.9 -0.85 47.9 -0.75 47.9 -0.65 47.9 -0.55 47.9 -0.45 47.9 -0.4 47.9 -0.3 47.9 -0.2 47.9 -0.1 47.9 0.0 47.9 0.1 47.9 0.2 47.9 0.3 47.9 0.35 47.9 0.45 47.85 0.55 47.85 0.65 47.8 0.75 47.75 0.85 47.75 0.95 47.75 1.05 47.75 1.1 47.75 1.2 47.7 1.3 47.65 1.4 47.65 1.5 47.65 1.6 47.65 1.7 47.6 1.8 47.6 1.85 47.55 1.95 47.5 2.05 47.5 2.15 47.4 2.25 47.4 2.3 47.4 2.4 47.4 2.5 47.4 2.6 47.4 2.7 47.4 2.8 47.4 2.85 47.4 2.95 47.4 3.05 47.4 3.15 47.35 3.25 47.35 3.35 47.35 3.45 47.3 3.55 47.25 3.6 47.15 3.7 47.1 3.8 47.1 3.9 47.05 4.0 47.0 4.1 46.95 4.2 46.9 4.3 46.8 4.35 46.7 4.45 46.6 4.55 46.5 4.65 46.4 4.75 46.35 4.85 46.2 4.95 46.0 5.05 45.75 5.1 45.55 5.2 45.4 5.3 45.25 5.3 45.05 5.35 44.9 5.35 44.75 5.4 44.55 5.45 44.2 5.5 44.0 5.55 43.8 5.6 43.3 5.6 43.1 5.55 42.85 5.5 42.65 5.4 42.6 5.3 42.5 5.2 42.4 5.1 42.35 5.05 42.3 4.95 38.7 4.95 38.55 4.95 38.45 4.95 32.7 5.0 32.5 5.05 32.3 5.1 28.75 5.1 28.65 5.05 28.6 4.95 28.5 4.85 28.5 4.75 28.4 4.65 28.35 4.55 28.25 4.45 28.15 4.35 28.1 4.3 27.95 4.2 27.9 4.1 27.8 4.0 27.75 3.9 27.65 3.8 27.6 3.7 27.5 3.6 27.35 3.55 27.3 3.45 27.25 3.35 27.15 3.25 27.0 3.15 26.95 3.05 26.85 2.95 26.75 2.85 26.65 2.8 26.6 2.7 26.55 2.6 26.5 2.5 26.4 2.4 26.35 2.3 26.25 2.2 26.2 2.1 26.15 2.05 26.1 1.95 26.05 1.85 32.6 1.85 32.85 1.8 33.05 1.75 33.95 1.7 34.1 1.7 34.3 1.65 36.7 1.6 36.95 1.55 37.15 1.5 37.55 1.45 37.7 1.45 37.9 1.4 38.2 1.35 38.45 1.3 38.65 1.25 38.9 1.25 39.1 1.3 39.3 1.35 39.5 1.45 39.6 1.55 39.7 1.6 39.75 1.7 39.85 1.8 39.9 1.9 39.9 2.0 39.95 2.1 39.95 2.2 39.95 2.25 41.9 2.25 41.75 2.15 41.65 2.05 41.6 1.95 41.5 1.85 41.4 1.8 41.4 1.7 41.35 1.6 41.35 1.5 41.3 1.4 41.3 1.3 41.3 1.2 41.3 1.1 41.3 1.05 41.3 0.95 41.35 0.85 41.35 0.75 41.4 0.65 41.4 0.55 41.5 0.45 41.6 0.35 41.65 0.3 41.75 0.2 41.85 0.1 41.95 0.0 42.1 -0.1 42.25 -0.2 42.4 -0.3 42.55 -0.4 42.6 -0.4 42.6 -0.45 42.5 -0.55 42.4 -0.65 42.3 -0.7 42.2 -0.8 42.1 -0.9 42.05 -1.0 42.0 -1.1 41.95 -1.2 41.85 -1.3 41.85 -1.4 41.8 -1.45 41.75 -1.55 41.7 -1.65 41.65 -1.75 41.6 -1.85 41.6 -1.95 41.6 -2.05 41.55 -2.15 41.55 -2.2 41.55 -2.3 41.55 -2.4 41.55 -2.5 41.55 -2.6 41.55 -2.7 41.55 -2.8 41.55 -2.9 41.55 -2.95 41.5 -3.05 41.5 -3.1 41.45 -3.1 41.3 -3.15 39.8 -3.15 39.3 -3.15 39.1 -3.2 38.85 -3.25 37.75 -3.3 37.4 -3.3 37.15 -3.3 36.95 -3.35 36.8 -3.4 36.65 -3.4 36.4 -3.4 36.2 -3.45 35.95 -3.5 35.9 -3.5 35.55 -3.5 35.45 -3.45 35.3 -3.4 35.2 -3.35 35.15 -3.4 35.05 -3.5 34.9 -3.6 34.75 -3.7 34.7 -3.8 34.6 -3.9 34.5 -3.95 34.45 -4.05 34.4 -4.15 34.3 -4.25 34.15 -4.35 33.95 -4.45 33.85 -4.55 33.75 -4.65 33.6 -4.7 33.45 -4.8 33.3 -4.9 33.15 -5.0 33.05 -5.1 32.9 -5.2 32.75 -5.25 32.55 -5.3 31.9 -5.3 31.9 -5.25 31.7 -5.25 31.6 -5.2 31.5 -5.2 31.4 -5.15 31.35 -5.05 31.25 -4.95 31.15 -4.85 31.15 -4.75 31.1 -4.65 31.1 -4.55 31.1 -4.45 31.1 -4.4 31.1 -4.3 31.15 -4.2 31.15 -4.1 31.2 -4.0 31.3 -3.9 31.4 -3.8 31.5 -3.7 31.7 -3.65 31.9 -3.65 32.1 -3.65 32.25 -3.7 32.35 -3.6 32.45 -3.5 32.6 -3.4 32.75 -3.3 32.85 -3.2 32.9 -3.15 33.1 -3.05 33.15 -2.95 33.2 -2.9 32.65 -2.9 32.5 -2.85 32.3 -2.8 27.05 -2.8 26.85 -2.85 26.7 -2.9 26.15 -2.9 M-26.25 4.6 L-26.2 4.5 -26.15 4.4 -26.1 4.3 -26.0 4.2 -25.9 4.1 -25.85 4.05 -25.8 4.0 -25.7 4.1 -25.6 4.2 -25.4 4.25 -25.2 4.3 -20.35 4.3 -20.15 4.25 -20.0 4.2 -19.35 4.2 -19.15 4.25 -19.0 4.3 -18.9 4.3 -18.8 4.35 -18.6 4.35 -18.35 4.45 -22.05 4.5 -22.55 4.5 -22.75 4.55 -22.95 4.6 -26.25 4.6 M-41.3 0.55 L-41.2 0.45 -41.1 0.35 -41.25 0.35 -41.4 0.4 -41.6 0.45 -41.6 0.55 -41.55 0.65 -41.5 0.75 -41.45 0.8 -41.45 0.75 -41.4 0.65 -41.3 0.55 M-45.2 0.65 L-45.35 0.6 -45.55 0.55 -45.7 0.55 -45.6 0.65 -45.5 0.75 -45.4 0.85 -45.35 0.95 -45.25 1.05 -45.2 1.1 -45.2 1.05 -45.2 0.95 -45.2 0.85 -45.2 0.75 -45.2 0.65" fill="#c3c3c3" fill-rule="evenodd" stroke="none"/>
    <path d="M-13.55 7.25 L-13.75 7.25 -13.8 7.35 -13.85 7.45 -13.95 7.55 -14.05 7.6 -14.2 7.7 -14.35 7.8 -14.5 7.8 -14.7 7.85 -26.7 7.85 -26.9 7.8 -27.15 7.75 -30.6 7.7 -30.85 7.8 -31.0 7.85 -31.15 7.95 -31.3 8.05 -31.45 8.15 -31.55 8.2 -31.65 8.25 -31.9 8.3 -32.05 8.4 -32.2 8.5 -32.3 8.55 -32.5 8.6 -32.65 8.7 -32.75 8.8 -32.8 8.8 -33.0 8.85 -33.15 8.95 -33.3 9.05 -33.4 9.05 -33.5 9.1 -33.65 9.15 -33.8 9.25 -33.9 9.3 -34.0 9.35 -34.2 9.4 -34.3 9.45 -34.4 9.5 -34.6 9.55 -34.85 9.6 -35.0 9.7 -35.15 9.75 -35.4 9.8 -35.55 9.9 -35.65 9.95 -35.75 10.0 -35.95 10.05 -36.05 10.05 -36.25 10.1 -36.35 10.2 -36.4 10.2 -36.5 10.25 -36.7 10.3 -37.1 10.3 -37.3 10.25 -37.5 10.2 -37.6 10.1 -37.7 10.0 -37.8 9.9 -37.85 9.8 -37.85 9.7 -37.9 9.6 -37.9 9.55 -37.9 9.45 -37.9 9.35 -37.85 9.25 -37.85 9.15 -37.75 9.05 -37.65 8.95 -37.6 8.85 -37.5 8.8 -37.4 8.8 -37.3 8.75 -37.15 8.7 -37.0 8.6 -36.9 8.6 -36.7 8.55 -36.5 8.5 -36.35 8.4 -36.1 8.3 -35.9 8.25 -35.65 8.2 -35.55 8.1 -35.4 8.05 -35.3 8.0 -35.05 7.95 -34.9 7.85 -34.8 7.85 -34.6 7.8 -34.4 7.75 -34.25 7.65 -34.05 7.6 -34.0 7.6 -34.05 7.55 -34.3 7.5 -35.7 7.45 -35.9 7.4 -36.05 7.35 -36.85 7.35 -37.05 7.3 -37.3 7.25 -38.35 7.2 -38.55 7.15 -38.7 7.1 -39.2 7.1 -39.4 7.05 -39.65 7.0 -41.1 6.95 -41.3 6.9 -41.45 6.85 -41.95 6.85 -42.15 6.8 -42.4 6.75 -42.7 6.7 -42.9 6.65 -43.05 6.6 -44.2 6.6 -44.4 6.55 -44.65 6.5 -44.85 6.45 -45.05 6.4 -45.2 6.35 -49.45 6.35 -49.65 6.3 -49.9 6.25 -50.1 6.2 -50.3 6.15 -50.55 6.1 -50.9 6.0 -51.1 5.9 -51.25 5.8 -51.45 5.7 -51.6 5.6 -51.75 5.55 -51.9 5.45 -52.05 5.35 -52.15 5.25 -52.25 5.15 -52.3 5.05 -52.35 4.95 -52.4 4.85 -52.4 4.8 -52.45 4.7 -52.45 4.6 -52.45 4.5 -52.45 4.4 -52.45 4.3 -52.45 4.2 -52.45 4.1 -52.45 4.05 -52.45 3.95 -52.45 3.85 -52.45 3.75 -52.45 3.65 -52.45 3.55 -52.45 3.45 -52.45 3.35 -52.4 3.3 -52.4 3.2 -52.4 3.1 -52.35 3.0 -52.3 2.9 -52.25 2.8 -52.2 2.7 -52.2 2.6 -52.15 2.55 -52.15 2.45 -52.15 2.35 -52.1 2.25 -52.05 2.15 -52.05 2.05 -52.05 1.95 -52.0 1.85 -52.0 1.8 -52.0 1.7 -51.95 1.6 -51.9 1.5 -51.85 1.4 -51.85 1.3 -51.8 1.2 -51.8 1.1 -51.8 1.05 -51.8 0.95 -51.75 0.85 -51.75 0.75 -51.7 0.65 -51.7 0.55 -51.7 0.45 -51.7 0.35 -51.7 0.3 -51.7 0.2 -51.7 0.1 -51.7 0.0 -51.7 -0.1 -51.65 -0.2 -51.65 -0.3 -51.6 -0.4 -51.6 -0.45 -51.55 -0.55 -51.55 -0.65 -51.55 -0.75 -51.55 -0.85 -51.55 -0.95 -51.55 -1.05 -51.55 -1.15 -51.55 -1.2 -51.55 -1.3 -51.55 -1.4 -51.55 -1.5 -51.55 -1.6 -51.55 -1.7 -51.55 -1.8 -51.55 -1.9 -51.55 -1.95 -51.55 -2.05 -51.55 -2.15 -51.5 -2.25 -51.5 -2.35 -51.45 -2.45 -51.4 -2.55 -51.35 -2.65 -51.25 -2.7 -51.15 -2.8 -51.1 -2.9 -50.9 -3.0 -50.7 -3.1 -50.7 -3.2 -50.7 -3.3 -50.65 -3.4 -50.65 -3.45 -50.65 -3.55 -50.6 -3.65 -50.55 -3.75 -50.6 -3.8 -50.8 -3.85 -51.05 -3.9 -51.25 -4.0 -51.35 -4.1 -51.4 -4.2 -51.5 -4.3 -51.6 -4.4 -51.7 -4.45 -51.8 -4.55 -51.85 -4.65 -51.9 -4.75 -51.9 -4.85 -51.9 -4.95 -51.95 -5.05 -51.95 -5.15 -51.95 -5.2 -51.95 -5.3 -51.95 -5.4 -51.95 -5.5 -51.95 -5.6 -51.95 -5.7 -51.95 -5.8 -51.9 -5.9 -51.9 -5.95 -51.9 -6.05 -51.85 -6.15 -51.8 -6.25 -51.8 -6.35 -51.8 -6.45 -51.75 -6.55 -51.75 -6.65 -51.7 -6.7 -51.65 -6.8 -51.6 -6.9 -51.55 -7.0 -51.5 -7.1 -51.4 -7.2 -51.4 -7.3 -51.35 -7.4 -51.3 -7.45 -51.25 -7.55 -51.15 -7.65 -51.05 -7.75 -50.95 -7.85 -50.85 -7.95 -50.75 -8.05 -50.6 -8.15 -50.4 -8.2 -50.2 -8.3 -50.05 -8.3 -49.85 -8.3 -49.85 -8.35 -49.1 -8.35 -48.9 -8.3 -48.75 -8.3 -48.6 -8.25 -48.4 -8.2 -48.2 -8.15 -48.0 -8.05 -47.95 -8.0 -47.95 -8.05 -47.85 -8.15 -47.7 -8.2 -47.55 -8.3 -47.4 -8.3 -47.2 -8.3 -47.2 -8.35 -18.7 -8.35 -18.5 -8.3 -18.3 -8.3 -16.45 -8.25 -16.25 -8.2 -16.0 -8.15 -14.45 -8.1 -14.25 -8.05 -14.1 -8.05 -14.0 -8.0 -10.2 -8.0 -10.0 -7.95 -9.75 -7.9 -8.35 -7.85 -8.15 -7.8 -7.9 -7.8 -5.6 -7.75 -5.4 -7.7 -5.15 -7.65 -3.35 -7.6 -3.15 -7.55 -2.9 -7.55 -2.35 -7.5 -2.15 -7.45 -1.9 -7.4 -0.45 -7.35 -0.25 -7.3 -0.1 -7.3 0.3 -7.25 0.5 -7.2 0.7 -7.15 0.95 -7.15 1.2 -7.2 1.4 -7.25 8.3 -7.3 8.55 -7.3 8.8 -7.35 10.5 -7.4 10.55 -7.5 10.6 -7.6 10.7 -7.7 10.8 -7.8 10.9 -7.9 11.05 -7.95 11.2 -8.05 11.35 -8.05 11.6 -8.15 11.8 -8.2 11.95 -8.2 12.15 -8.25 12.55 -8.3 12.7 -8.3 12.9 -8.35 13.85 -8.4 14.1 -8.45 14.3 -8.5 18.0 -8.55 18.2 -8.55 18.4 -8.6 18.95 -8.6 18.9 -8.65 18.85 -8.75 18.85 -8.85 18.75 -8.95 18.65 -9.05 18.6 -9.15 18.5 -9.2 18.4 -9.3 18.4 -9.4 18.35 -9.5 18.35 -9.6 18.25 -9.7 18.2 -9.8 18.15 -9.9 18.15 -9.95 18.1 -10.05 18.05 -10.15 18.0 -10.25 18.0 -10.35 18.0 -10.45 18.0 -10.55 18.0 -10.65 18.05 -10.7 18.1 -10.8 18.1 -10.9 18.2 -11.0 18.3 -11.1 18.4 -11.2 18.6 -11.25 18.8 -11.25 18.8 -11.3 19.0 -11.25 19.15 -11.2 19.3 -11.1 19.4 -11.0 19.45 -10.9 19.5 -10.8 19.6 -10.7 19.65 -10.65 19.7 -10.55 19.75 -10.45 19.8 -10.35 19.85 -10.25 19.85 -10.15 19.9 -10.05 20.0 -9.95 20.05 -9.9 20.1 -9.8 20.15 -9.7 20.25 -9.6 20.3 -9.5 20.4 -9.4 20.45 -9.3 20.5 -9.2 20.55 -9.15 20.6 -9.05 20.7 -8.95 20.8 -8.85 20.9 -8.75 24.95 -8.8 25.1 -8.8 25.3 -8.85 25.85 -8.9 26.1 -8.95 26.3 -9.0 29.45 -9.05 29.6 -9.05 29.8 -9.05 29.8 -9.1 35.15 -9.1 35.35 -9.05 35.5 -9.05 37.65 -9.0 37.85 -8.95 38.05 -8.9 38.2 -8.85 38.25 -8.8 38.4 -8.8 38.55 -8.75 38.75 -8.7 38.95 -8.65 39.15 -8.6 39.35 -8.55 39.55 -8.5 39.75 -8.4 39.85 -8.3 39.95 -8.2 40.0 -8.15 40.1 -8.05 40.25 -7.95 40.4 -7.9 43.15 -7.85 43.35 -7.8 43.5 -7.8 44.3 -7.75 44.5 -7.7 44.7 -7.65 45.05 -7.6 45.25 -7.55 45.4 -7.55 46.3 -7.5 46.5 -7.45 46.7 -7.4 47.55 -7.35 47.75 -7.3 47.9 -7.3 48.15 -7.25 48.35 -7.2 48.55 -7.15 48.8 -7.1 49.0 -7.05 49.2 -7.0 49.4 -6.9 49.5 -6.8 49.65 -6.7 49.8 -6.65 49.9 -6.55 50.1 -6.45 50.3 -6.4 50.5 -6.3 50.6 -6.2 50.7 -6.15 50.8 -6.05 50.9 -5.95 50.95 -5.85 51.0 -5.75 51.05 -5.7 51.05 -5.75 51.15 -5.75 51.3 -5.7 51.55 -5.65 51.75 -5.55 51.85 -5.45 51.95 -5.4 52.0 -5.3 52.05 -5.2 52.15 -5.1 52.15 -5.0 52.2 -4.9 52.2 -4.8 52.25 -4.7 52.25 -4.65 52.25 -4.55 52.25 -4.45 52.25 -4.35 52.25 -4.25 52.25 -4.15 52.25 -4.05 52.25 -3.95 52.25 -3.9 52.25 -3.8 52.25 -3.7 52.25 -3.6 52.25 -3.5 52.25 -3.4 52.2 -3.3 52.2 -3.2 52.15 -3.15 52.15 -3.05 52.15 -2.95 52.15 -2.85 52.15 -2.75 52.15 -2.65 52.15 -2.55 52.1 -2.45 52.1 -2.4 52.05 -2.3 52.0 -2.2 52.0 -2.1 52.0 -2.0 52.0 -1.9 51.95 -1.8 51.95 -1.7 51.9 -1.65 51.9 -1.55 51.9 -1.45 51.85 -1.35 51.85 -1.25 51.8 -1.15 51.8 -1.05 51.75 -0.95 51.65 -0.9 51.65 -0.8 51.6 -0.7 51.55 -0.6 51.55 -0.5 51.5 -0.4 51.5 -0.3 51.45 -0.2 51.45 -0.15 51.4 -0.05 51.35 0.05 51.3 0.15 51.25 0.25 51.25 0.35 51.25 0.45 51.2 0.55 51.2 0.6 51.15 0.7 51.15 0.8 51.15 0.9 51.1 1.0 51.1 1.1 51.1 1.2 51.15 1.3 51.15 1.35 51.15 1.45 51.15 1.55 51.15 1.65 51.15 1.75 51.15 1.85 51.15 1.95 51.15 2.05 51.15 2.1 51.15 2.2 51.15 2.3 51.15 2.4 51.15 2.5 51.15 2.6 51.1 2.7 51.1 2.8 51.05 2.85 51.0 2.95 51.0 3.05 50.95 3.1 50.9 3.15 50.85 3.25 50.85 3.35 50.8 3.45 50.8 3.55 50.75 3.6 50.7 3.7 50.65 3.8 50.7 3.9 50.8 4.0 50.9 4.1 51.0 4.2 51.05 4.3 51.1 4.35 51.15 4.45 51.2 4.55 51.2 4.65 51.25 4.75 51.25 4.85 51.25 4.95 51.25 5.05 51.25 5.1 51.25 5.2 51.2 5.3 51.15 5.4 51.15 5.5 51.1 5.6 51.05 5.7 51.0 5.8 50.9 5.85 50.85 5.95 50.75 6.05 50.65 6.15 50.45 6.25 50.3 6.35 50.25 6.45 50.15 6.55 50.05 6.6 49.9 6.7 49.65 6.8 49.5 6.9 49.4 7.0 49.2 7.1 49.0 7.15 48.8 7.2 47.55 7.2 47.35 7.15 47.1 7.1 46.9 7.0 46.75 6.9 46.25 6.85 46.1 6.9 45.9 6.95 40.9 6.95 40.55 6.95 40.3 7.0 40.1 7.05 39.9 7.1 38.9 7.1 38.75 7.15 38.55 7.2 37.6 7.25 37.35 7.3 37.15 7.35 35.75 7.35 35.6 7.4 35.4 7.45 33.2 7.5 33.0 7.55 32.8 7.6 32.5 7.65 32.4 7.75 32.2 7.85 32.0 7.9 31.8 7.95 31.45 8.0 31.25 8.05 31.05 8.1 30.65 8.1 30.5 8.15 30.3 8.2 11.3 8.2 11.1 8.15 10.95 8.1 10.15 8.1 9.95 8.05 9.7 8.0 9.4 7.95 9.2 7.9 9.05 7.85 8.55 7.85 8.35 7.8 8.1 7.75 8.0 7.7 7.9 7.65 7.8 7.6 7.65 7.6 7.6 7.55 7.35 7.5 7.25 7.45 7.15 7.4 7.05 7.35 4.5 7.4 4.4 7.5 4.2 7.6 4.0 7.65 3.8 7.7 3.3 7.75 3.1 7.8 2.9 7.85 -0.2 7.85 -0.4 7.8 -0.55 7.8 -0.65 7.75 -0.8 7.7 -1.7 7.7 -1.9 7.65 -2.05 7.6 -3.95 7.6 -4.15 7.55 -4.3 7.55 -4.4 7.5 -4.55 7.45 -5.1 7.45 -5.3 7.4 -5.5 7.35 -6.35 7.35 -6.55 7.3 -6.7 7.3 -6.85 7.25 -6.95 7.2 -7.45 7.2 -7.65 7.15 -7.8 7.1 -8.0 7.1 -8.15 7.05 -8.3 7.05 -8.35 7.05 -8.45 7.0 -8.6 6.95 -9.2 6.95 -9.3 6.95 -9.4 7.0 -9.5 7.05 -9.65 7.05 -9.85 7.1 -12.25 7.1 -12.4 7.15 -12.6 7.2 -13.55 7.25 M-43.1 -6.15 L-43.15 -6.2 -43.25 -6.3 -43.3 -6.4 -43.4 -6.45 -43.5 -6.55 -43.7 -6.65 -43.9 -6.7 -44.1 -6.75 -44.1 -6.7 -44.3 -6.7 -44.45 -6.7 -44.55 -6.65 -44.65 -6.6 -44.9 -6.5 -45.1 -6.4 -45.15 -6.3 -45.25 -6.2 -45.35 -6.15 -45.4 -6.05 -45.45 -5.95 -45.5 -5.85 -45.5 -5.75 -45.55 -5.65 -45.6 -5.55 -45.65 -5.45 -45.75 -5.4 -45.85 -5.3 -45.9 -5.2 -46.0 -5.1 -46.05 -5.0 -46.15 -4.9 -46.25 -4.8 -46.35 -4.7 -46.4 -4.65 -46.5 -4.55 -46.6 -4.45 -46.7 -4.35 -46.8 -4.25 -46.85 -4.15 -46.9 -4.05 -47.05 -3.95 -47.2 -3.9 -47.35 -3.8 -47.4 -3.7 -47.4 -3.6 -47.45 -3.5 -47.5 -3.4 -47.6 -3.3 -47.65 -3.2 -47.75 -3.15 -47.85 -3.05 -47.85 -2.95 -47.9 -2.85 -47.9 -2.75 -47.95 -2.65 -48.0 -2.55 -48.05 -2.45 -48.1 -2.4 -48.15 -2.3 -48.15 -2.2 -48.2 -2.1 -48.2 -2.0 -48.2 -1.9 -48.2 -1.8 -48.2 -1.7 -48.2 -1.65 -48.2 -1.55 -48.2 -1.45 -48.2 -1.35 -48.2 -1.25 -48.2 -1.15 -48.2 -1.05 -48.2 -0.95 -48.2 -0.9 -48.2 -0.8 -48.2 -0.7 -48.2 -0.6 -48.2 -0.5 -48.2 -0.4 -48.2 -0.3 -48.2 -0.2 -48.2 -0.15 -48.2 -0.05 -48.2 0.05 -48.2 0.15 -48.2 0.25 -48.2 0.35 -48.2 0.45 -48.2 0.55 -48.15 0.6 -48.15 0.7 -48.1 0.8 -48.05 0.9 -48.0 1.0 -47.95 1.1 -47.9 1.2 -47.85 1.3 -47.85 1.35 -47.75 1.45 -47.7 1.55 -47.65 1.65 -47.6 1.75 -47.55 1.85 -47.5 1.95 -47.4 2.05 -47.35 2.1 -47.25 2.2 -47.15 2.3 -47.1 2.4 -47.0 2.5 -46.95 2.6 -46.9 2.7 -46.8 2.8 -46.7 2.85 -46.6 2.95 -46.45 3.05 -46.35 3.15 -46.15 3.25 -45.8 3.35 -45.55 3.4 -45.35 3.45 -43.55 3.5 -43.3 3.55 -43.1 3.6 -42.8 3.6 -42.8 3.7 -42.8 3.8 -42.8 3.9 -42.75 4.0 -42.75 4.1 -42.7 4.2 -42.65 4.3 -42.6 4.35 -42.5 4.45 -42.4 4.55 -42.35 4.65 -42.15 4.75 -41.9 4.8 -41.7 4.85 -40.1 4.85 -39.9 4.8 -39.7 4.75 -39.6 4.75 -39.4 4.8 -39.15 4.85 -38.7 4.9 -38.5 4.95 -38.35 4.95 -37.35 5.0 -37.15 5.05 -36.9 5.1 -36.6 5.1 -36.55 5.0 -36.45 4.9 -36.35 4.8 -36.25 4.7 -36.1 4.6 -35.95 4.55 -35.8 4.55 -35.6 4.5 -32.5 4.5 -32.3 4.6 -32.05 4.65 -31.85 4.7 -29.85 4.7 -29.8 4.7 -29.75 4.7 -29.6 4.7 -29.05 4.75 -29.0 4.65 -28.9 4.6 -28.85 4.55 -28.65 4.45 -28.6 4.35 -28.5 4.3 -28.4 4.2 -28.3 4.1 -28.2 4.0 -28.1 3.9 -28.0 3.8 -27.85 3.7 -27.7 3.6 -27.6 3.55 -27.55 3.45 -27.45 3.35 -27.35 3.25 -27.25 3.15 -27.2 3.05 -27.15 2.95 -27.1 2.85 -27.0 2.8 -26.9 2.7 -26.8 2.6 -26.75 2.55 -26.8 2.5 -27.0 2.45 -27.1 2.35 -27.2 2.25 -27.3 2.15 -27.35 2.05 -27.4 1.95 -27.45 1.85 -27.5 1.8 -27.6 1.7 -27.7 1.6 -27.8 1.5 -28.0 1.45 -28.1 1.35 -28.25 1.25 -28.4 1.15 -28.5 1.05 -28.55 1.0 -28.75 0.95 -28.85 0.85 -29.0 0.75 -29.15 0.65 -29.25 0.55 -29.4 0.45 -29.45 0.4 -29.5 0.35 -29.6 0.3 -29.65 0.2 -29.7 0.1 -29.75 0.0 -29.75 -0.1 -29.75 -0.2 -29.75 -0.3 -29.7 -0.4 -29.65 -0.45 -29.65 -0.55 -29.55 -0.65 -29.45 -0.75 -29.35 -0.85 -29.15 -0.9 -28.95 -0.9 -28.95 -0.95 -28.7 -0.95 -28.5 -0.9 -28.35 -0.85 -28.2 -0.75 -28.05 -0.65 -27.9 -0.55 -27.8 -0.45 -27.65 -0.4 -27.5 -0.3 -27.35 -0.2 -27.2 -0.1 -27.1 0.0 -26.95 0.1 -26.8 0.2 -26.65 0.3 -26.6 0.35 -26.5 0.45 -26.45 0.5 -26.4 0.55 -26.35 0.65 -26.25 0.75 -26.2 0.85 -26.15 0.95 -26.05 1.05 -25.9 1.1 -25.75 1.2 -25.6 1.3 -25.45 1.4 -25.35 1.5 -25.25 1.6 -25.15 1.7 -25.1 1.8 -25.05 1.85 -25.0 1.95 -24.95 2.05 -24.9 2.15 -24.9 2.25 -24.9 2.35 -24.9 2.45 -24.9 2.55 -24.9 2.65 -20.75 2.65 -20.55 2.6 -20.35 2.55 -18.95 2.55 -18.75 2.6 -18.6 2.65 -18.5 2.7 -18.4 2.75 -18.3 2.8 -17.95 2.8 -17.75 2.85 -17.6 2.9 -17.45 2.95 -17.25 3.0 -17.1 3.05 -16.95 3.15 -16.85 3.25 -16.8 3.35 -16.75 3.45 -16.7 3.55 -16.7 3.6 -16.65 3.7 -16.65 3.8 -16.7 3.9 -16.75 4.0 -16.75 4.1 -16.85 4.2 -16.9 4.3 -17.0 4.35 -17.1 4.45 -16.45 4.45 -16.25 4.4 -16.1 4.35 -13.6 4.35 -13.4 4.3 -13.25 4.3 -13.15 4.25 -12.85 4.25 -12.65 4.3 -12.4 4.35 -12.2 4.4 -12.1 4.45 -11.9 4.45 -11.1 4.5 -10.9 4.55 -10.75 4.55 -10.65 4.6 -10.4 4.55 -10.3 4.5 -10.2 4.45 -10.05 4.45 -9.85 4.4 -7.35 4.4 -7.15 4.45 -7.0 4.45 -5.85 4.5 -5.65 4.55 -5.4 4.6 -3.85 4.65 -3.6 4.7 -3.35 4.7 -1.45 4.75 -1.25 4.8 -1.05 4.85 0.3 4.9 0.5 4.95 0.7 4.95 3.05 5.0 3.25 5.05 3.4 5.05 3.5 5.1 3.65 5.1 5.15 5.1 5.25 5.2 5.35 5.3 5.4 5.4 5.6 5.5 5.85 5.55 6.05 5.6 7.8 5.6 7.95 5.65 8.15 5.7 9.35 5.75 9.6 5.8 9.8 5.85 10.55 5.85 10.7 5.9 10.9 5.95 15.4 5.95 15.5 5.95 17.5 5.95 17.6 6.05 17.65 6.15 17.75 6.25 17.95 6.35 18.2 6.4 18.4 6.45 23.05 6.45 23.25 6.4 23.45 6.35 23.65 6.25 23.75 6.15 23.85 6.05 23.9 5.95 24.5 5.95 24.55 5.85 24.6 5.75 24.7 5.65 24.8 5.55 24.9 5.5 25.55 5.45 25.75 5.4 26.0 5.35 26.3 5.25 26.7 5.25 26.65 5.2 26.6 5.1 26.5 5.05 26.4 4.95 26.35 4.85 26.2 4.75 26.1 4.65 26.0 4.55 25.95 4.45 25.9 4.35 25.75 4.3 25.65 4.2 25.55 4.1 25.45 4.0 25.4 3.9 25.35 3.8 25.25 3.7 25.2 3.6 25.15 3.55 25.1 3.45 25.05 3.35 24.95 3.25 24.9 3.15 24.9 3.05 24.85 2.95 24.8 2.85 24.75 2.8 24.65 2.7 24.6 2.6 24.55 2.5 24.45 2.4 24.4 2.3 24.4 2.2 24.35 2.1 24.3 2.05 24.25 1.95 24.15 1.85 24.15 1.75 24.1 1.65 24.1 1.55 24.0 1.45 23.95 1.35 23.9 1.3 23.9 1.2 23.85 1.1 23.85 1.0 23.85 0.9 23.85 0.8 23.85 0.7 23.85 0.6 23.85 0.55 23.85 0.45 23.85 0.35 23.85 0.25 23.85 0.15 23.85 0.05 23.85 -0.05 23.85 -0.15 23.85 -0.2 23.85 -0.3 23.85 -0.4 23.85 -0.5 23.85 -0.6 23.85 -0.7 23.85 -0.8 23.85 -0.9 23.85 -0.95 23.85 -1.05 23.85 -1.15 23.85 -1.25 23.85 -1.35 23.85 -1.45 23.85 -1.55 23.8 -1.65 23.75 -1.7 23.65 -1.8 23.65 -1.9 23.6 -2.0 23.6 -2.1 23.6 -2.2 23.6 -2.3 23.6 -2.4 23.6 -2.45 23.6 -2.55 23.55 -2.65 23.5 -2.75 23.5 -2.8 23.45 -2.85 23.35 -2.95 23.25 -3.05 23.2 -3.15 23.15 -3.2 23.15 -3.3 23.1 -3.4 23.05 -3.5 22.95 -3.6 22.9 -3.7 22.85 -3.8 22.8 -3.9 22.8 -3.95 22.75 -4.05 22.65 -4.15 22.65 -4.25 22.6 -4.35 22.6 -4.45 22.5 -4.55 22.45 -4.65 22.4 -4.7 22.35 -4.8 22.3 -4.9 22.2 -5.0 22.1 -5.1 22.0 -5.2 21.9 -5.3 21.85 -5.4 21.75 -5.45 21.65 -5.55 21.55 -5.65 21.45 -5.75 21.35 -5.85 21.25 -5.95 21.15 -6.05 21.1 -6.15 21.0 -6.2 20.9 -6.3 20.8 -6.4 20.7 -6.5 20.6 -6.6 19.15 -6.6 19.3 -6.5 19.4 -6.4 19.45 -6.3 19.5 -6.2 19.55 -6.15 19.55 -6.05 19.6 -5.95 19.6 -5.85 19.55 -5.75 19.5 -5.65 19.5 -5.55 19.4 -5.45 19.35 -5.4 19.3 -5.3 19.25 -5.2 19.15 -5.1 19.05 -5.0 18.95 -4.95 18.85 -4.9 18.55 -4.85 18.45 -4.8 18.35 -4.75 18.15 -4.7 13.45 -4.7 13.65 -4.75 14.2 -4.8 14.35 -4.8 14.55 -4.85 15.0 -4.9 15.1 -5.0 15.2 -5.1 15.35 -5.2 15.45 -5.25 15.55 -5.3 13.0 -5.25 12.75 -5.2 12.55 -5.15 10.95 -5.1 10.8 -5.1 10.7 -5.15 10.5 -5.2 10.3 -5.25 1.0 -5.3 0.85 -5.3 0.65 -5.35 -7.45 -5.35 -7.65 -5.3 -7.8 -5.3 -10.15 -5.3 -10.2 -5.35 -10.25 -5.45 -10.35 -5.55 -10.4 -5.65 -10.5 -5.7 -10.6 -5.8 -10.8 -5.9 -11.0 -5.95 -11.2 -6.0 -11.35 -6.05 -11.5 -6.05 -11.7 -6.1 -19.45 -6.15 -19.5 -6.15 -19.55 -6.2 -19.65 -6.3 -19.75 -6.4 -19.95 -6.5 -20.15 -6.55 -20.35 -6.6 -20.55 -6.65 -20.75 -6.7 -20.95 -6.75 -21.1 -6.8 -21.25 -6.8 -21.45 -6.85 -22.15 -6.9 -22.4 -6.95 -22.6 -7.0 -33.85 -7.0 -33.85 -6.95 -34.05 -6.95 -34.2 -6.95 -34.3 -6.9 -34.4 -6.85 -34.55 -6.75 -34.65 -6.65 -35.85 -6.6 -36.05 -6.55 -36.2 -6.55 -38.95 -6.5 -39.15 -6.45 -39.4 -6.4 -41.45 -6.35 -41.65 -6.3 -41.8 -6.3 -42.45 -6.25 -42.65 -6.2 -42.9 -6.15 -43.1 -6.15 M34.7 -6.85 L34.7 -6.9 34.6 -6.95 34.5 -7.05 34.3 -7.15 34.1 -7.2 33.9 -7.25 32.15 -7.25 32.15 -7.2 31.95 -7.2 31.7 -7.15 31.5 -7.05 30.9 -7.0 30.7 -6.95 30.55 -6.95 30.45 -6.9 30.35 -6.85 30.2 -6.75 29.75 -6.8 29.6 -6.8 29.4 -6.85 24.55 -6.85 24.55 -6.8 24.35 -6.8 24.2 -6.8 22.9 -6.75 22.8 -6.75 22.85 -6.7 22.9 -6.6 23.05 -6.5 23.15 -6.4 23.2 -6.3 23.35 -6.2 23.4 -6.15 23.5 -6.05 23.6 -5.95 23.65 -5.85 23.75 -5.75 23.75 -5.65 23.85 -5.55 23.9 -5.45 23.95 -5.4 24.0 -5.3 24.05 -5.2 24.1 -5.1 24.15 -5.0 24.2 -4.9 24.25 -4.8 24.3 -4.7 24.3 -4.65 24.35 -4.55 24.35 -4.45 24.4 -4.35 24.5 -4.25 24.5 -4.15 24.6 -4.05 24.65 -3.95 24.75 -3.9 24.85 -3.8 24.9 -3.7 25.0 -3.6 25.0 -3.5 25.05 -3.4 25.1 -3.3 25.1 -3.2 25.15 -3.15 25.15 -3.1 25.25 -3.15 25.35 -3.15 25.55 -3.2 25.75 -3.15 25.9 -3.1 26.05 -3.0 26.15 -2.9 26.2 -2.8 26.25 -2.7 26.3 -2.65 26.35 -2.55 26.45 -2.45 26.65 -2.35 26.8 -2.25 26.95 -2.15 27.1 -2.05 27.2 -1.95 27.5 -1.9 27.65 -1.85 27.8 -1.75 27.9 -1.7 28.1 -1.65 28.25 -1.6 28.35 -1.55 28.5 -1.5 28.6 -1.45 28.65 -1.45 28.85 -1.4 29.0 -1.35 29.15 -1.25 29.3 -1.2 29.5 -1.15 29.65 -1.1 30.15 -1.05 30.35 -1.0 30.45 -0.95 30.65 -0.95 30.85 -0.9 31.0 -0.85 31.9 -0.8 32.1 -0.75 32.2 -0.7 32.8 -0.75 32.9 -0.85 33.15 -0.95 33.35 -1.05 33.4 -1.15 33.5 -1.2 33.6 -1.3 33.7 -1.4 33.8 -1.5 33.9 -1.6 34.0 -1.7 34.15 -1.8 34.25 -1.9 34.25 -1.95 34.15 -2.05 34.1 -2.15 33.95 -2.25 33.85 -2.35 33.75 -2.45 33.7 -2.5 33.5 -2.55 33.4 -2.65 33.3 -2.75 33.2 -2.85 33.2 -2.9 33.15 -2.95 33.1 -3.05 32.9 -3.15 32.85 -3.2 32.75 -3.3 32.6 -3.4 32.45 -3.5 32.35 -3.6 32.25 -3.7 32.1 -3.65 31.9 -3.65 31.7 -3.65 31.5 -3.7 31.4 -3.8 31.3 -3.9 31.2 -4.0 31.15 -4.1 31.15 -4.2 31.1 -4.3 31.1 -4.4 31.1 -4.45 31.1 -4.55 31.1 -4.65 31.15 -4.75 31.15 -4.85 31.25 -4.95 31.35 -5.05 31.4 -5.15 31.5 -5.2 31.6 -5.2 31.7 -5.25 31.9 -5.25 31.9 -5.3 32.55 -5.3 32.75 -5.25 32.9 -5.2 33.05 -5.1 33.15 -5.0 33.3 -4.9 33.45 -4.8 33.6 -4.7 33.75 -4.65 33.85 -4.55 33.95 -4.45 34.15 -4.35 34.3 -4.25 34.4 -4.15 34.45 -4.05 34.5 -3.95 34.6 -3.9 34.7 -3.8 34.75 -3.7 34.9 -3.6 35.05 -3.5 35.15 -3.4 35.2 -3.35 35.25 -3.3 35.35 -3.2 35.4 -3.15 35.5 -3.05 35.6 -2.95 35.65 -2.85 35.75 -2.75 35.8 -2.65 35.85 -2.65 36.05 -2.65 36.05 -2.7 39.05 -2.7 39.25 -2.65 39.4 -2.6 39.55 -2.5 39.65 -2.4 39.7 -2.3 39.75 -2.2 39.8 -2.15 39.8 -2.05 39.85 -1.95 39.85 -1.85 39.8 -1.75 39.75 -1.65 39.75 -1.55 39.65 -1.45 39.6 -1.4 39.5 -1.3 39.4 -1.2 39.35 -1.2 39.25 -1.15 39.05 -1.15 36.05 -1.15 36.0 -1.15 35.9 -1.05 35.75 -0.95 35.6 -0.9 35.5 -0.8 35.4 -0.7 35.35 -0.6 35.2 -0.5 35.1 -0.4 35.0 -0.3 34.95 -0.2 34.85 -0.15 34.7 -0.05 34.6 0.05 34.45 0.15 34.4 0.25 34.3 0.35 34.15 0.45 33.9 0.55 33.75 0.6 33.65 0.7 33.6 0.7 33.4 0.8 33.25 0.85 33.05 0.85 31.9 0.85 31.7 0.85 31.6 0.8 30.65 0.8 30.45 0.75 30.25 0.7 30.15 0.6 29.95 0.6 29.85 0.55 29.3 0.55 29.1 0.5 28.9 0.45 28.85 0.35 28.7 0.35 28.5 0.3 28.25 0.2 28.15 0.1 28.1 0.1 28.0 0.05 27.9 0.05 27.7 0.0 27.5 -0.05 27.4 -0.15 27.35 -0.15 27.15 -0.2 27.0 -0.3 26.9 -0.4 26.7 -0.4 26.5 -0.45 26.25 -0.55 26.15 -0.65 26.0 -0.75 25.85 -0.85 25.75 -0.95 25.7 -1.0 25.5 -1.05 25.4 -1.15 25.4 -1.05 25.4 -0.95 25.4 -0.9 25.4 -0.8 25.4 -0.7 25.4 -0.6 25.4 -0.5 25.4 -0.4 25.4 -0.3 25.4 -0.2 25.4 -0.15 25.4 -0.05 25.4 0.05 25.4 0.15 25.4 0.25 25.4 0.35 25.4 0.45 25.4 0.55 25.45 0.6 25.5 0.7 25.55 0.8 25.6 0.9 25.65 1.0 25.7 1.1 25.75 1.2 25.8 1.3 25.8 1.35 25.85 1.45 25.9 1.55 26.0 1.65 26.0 1.75 26.05 1.85 26.1 1.95 26.15 2.05 26.2 2.1 26.25 2.2 26.35 2.3 26.4 2.4 26.5 2.5 26.55 2.6 26.6 2.7 26.65 2.8 26.75 2.85 26.85 2.95 26.95 3.05 27.0 3.15 27.15 3.25 27.25 3.35 27.3 3.45 27.35 3.55 27.5 3.6 27.6 3.7 27.65 3.8 27.75 3.9 27.8 4.0 27.9 4.1 27.95 4.2 28.1 4.3 28.15 4.35 28.25 4.45 28.35 4.55 28.4 4.65 28.5 4.75 28.5 4.85 28.6 4.95 28.65 5.05 28.75 5.1 28.8 5.2 28.85 5.25 30.15 5.25 30.35 5.3 30.55 5.35 32.7 5.35 32.95 5.3 33.15 5.25 35.45 5.2 35.6 5.2 35.8 5.15 37.2 5.1 37.45 5.05 37.65 5.0 38.45 4.95 38.55 4.95 38.7 4.95 42.3 4.95 42.35 5.05 42.4 5.1 42.5 5.2 42.6 5.3 42.65 5.4 42.85 5.5 43.1 5.55 43.3 5.6 43.8 5.6 44.0 5.55 44.2 5.5 44.55 5.45 44.75 5.4 44.9 5.35 45.05 5.35 45.25 5.3 45.4 5.3 45.55 5.2 45.75 5.1 46.0 5.05 46.2 4.95 46.35 4.85 46.4 4.75 46.5 4.65 46.6 4.55 46.7 4.45 46.8 4.35 46.9 4.3 46.95 4.2 47.0 4.1 47.05 4.0 47.1 3.9 47.1 3.8 47.15 3.7 47.25 3.6 47.3 3.55 47.35 3.45 47.35 3.35 47.35 3.25 47.4 3.15 47.4 3.05 47.4 2.95 47.4 2.85 47.4 2.8 47.4 2.7 47.4 2.6 47.4 2.5 47.4 2.4 47.4 2.3 47.4 2.25 47.5 2.15 47.5 2.05 47.55 1.95 47.6 1.85 47.6 1.8 47.65 1.7 47.65 1.6 47.65 1.5 47.65 1.4 47.7 1.3 47.75 1.2 47.75 1.1 47.75 1.05 47.75 0.95 47.75 0.85 47.8 0.75 47.85 0.65 47.85 0.55 47.9 0.45 47.9 0.35 48.0 0.3 48.0 0.2 48.0 0.1 47.95 0.05 47.95 -0.05 47.95 -0.15 47.95 -0.25 47.95 -0.35 47.95 -0.45 47.95 -0.55 47.95 -0.65 47.95 -0.7 47.95 -0.8 47.95 -0.9 47.95 -1.0 47.9 -1.1 47.9 -1.2 47.9 -1.3 47.9 -1.4 47.9 -1.5 47.9 -1.6 47.9 -1.7 47.9 -1.8 47.9 -1.9 47.9 -1.95 47.9 -2.05 47.9 -2.15 47.9 -2.25 47.9 -2.35 47.9 -2.45 47.9 -2.55 47.9 -2.65 47.9 -2.7 47.9 -2.8 47.9 -2.9 47.9 -3.0 47.9 -3.1 47.9 -3.2 47.9 -3.3 47.9 -3.4 47.9 -3.45 47.9 -3.55 47.85 -3.65 47.85 -3.75 47.85 -3.85 47.8 -3.95 47.75 -4.05 47.65 -4.15 47.6 -4.2 47.5 -4.3 47.4 -4.4 47.2 -4.5 47.0 -4.55 46.8 -4.6 46.65 -4.6 46.45 -4.55 46.3 -4.55 46.2 -4.5 46.2 -4.45 46.15 -4.5 46.15 -4.6 46.1 -4.7 46.1 -4.8 46.05 -4.9 46.0 -4.95 46.0 -5.05 45.9 -5.15 45.85 -5.25 45.8 -5.35 45.75 -5.45 45.65 -5.55 45.55 -5.65 45.4 -5.7 45.25 -5.8 45.05 -5.9 44.85 -5.95 44.65 -6.0 43.4 -6.0 43.4 -5.95 43.2 -5.95 42.95 -5.9 42.75 -5.8 42.65 -5.7 42.6 -5.65 40.3 -5.65 40.1 -5.7 39.85 -5.75 39.25 -5.75 39.2 -5.8 39.05 -5.9 38.8 -5.95 38.65 -6.05 38.45 -6.15 38.25 -6.2 38.05 -6.25 37.75 -6.3 37.6 -6.3 37.4 -6.35 36.95 -6.4 36.75 -6.45 36.55 -6.5 35.65 -6.5 35.65 -6.55 35.6 -6.65 35.6 -6.75 35.6 -6.8 35.45 -6.85 35.3 -6.9 34.7 -6.85 M-22.05 4.5 L-18.35 4.45 -18.6 4.35 -18.8 4.35 -18.9 4.3 -19.0 4.3 -19.15 4.25 -19.35 4.2 -20.0 4.2 -20.15 4.25 -20.35 4.3 -25.2 4.3 -25.4 4.25 -25.6 4.2 -25.7 4.1 -25.8 4.0 -25.85 4.05 -25.9 4.1 -26.0 4.2 -26.1 4.3 -26.15 4.4 -26.2 4.5 -26.25 4.6 -26.35 4.7 -26.5 4.8 -26.65 4.85 -26.8 4.95 -26.9 5.05 -26.95 5.1 -26.85 5.1 -26.75 5.0 -26.65 4.9 -26.5 4.8 -26.4 4.75 -26.3 4.7 -26.15 4.7 -25.95 4.65 -22.05 4.65 -22.05 4.5" fill="#a6a6a6" fill-rule="evenodd" stroke="none"/>
    <path d="M-54.2 11.15 L-54.2 11.1 -54.2 11.0 -54.2 10.9 -54.2 10.8 -54.2 10.7 -54.2 10.6 -54.2 10.55 -54.2 10.45 -54.2 10.35 -54.2 10.25 -54.2 10.15 -54.2 10.05 -54.2 9.95 -54.2 9.85 -54.2 9.8 -54.2 9.7 -54.15 9.6 -54.15 9.5 -54.1 9.4 -54.1 9.3 -54.1 9.2 -54.1 9.1 -54.1 9.05 -54.1 8.95 -54.1 8.85 -54.1 8.75 -54.1 8.65 -54.1 8.55 -54.05 8.45 -54.0 8.35 -54.0 8.3 -54.0 8.2 -53.95 8.1 -53.95 8.0 -53.95 7.9 -53.9 7.8 -53.9 7.7 -53.85 7.6 -53.85 7.55 -53.85 7.45 -53.85 7.35 -53.85 7.25 -53.85 7.15 -53.85 7.05 -53.85 6.95 -53.85 6.85 -53.85 6.8 -53.85 6.7 -53.85 6.6 -53.85 6.5 -53.85 6.4 -53.85 6.3 -53.85 6.2 -53.85 6.1 -53.85 6.05 -53.85 5.95 -53.85 5.85 -53.85 5.75 -53.85 5.65 -53.85 5.55 -53.85 5.45 -53.85 5.35 -53.85 5.3 -53.85 5.2 -53.85 5.1 -53.85 5.0 -53.85 4.9 -53.85 4.8 -53.85 4.7 -53.85 4.6 -53.85 4.55 -53.85 4.45 -53.85 4.35 -53.85 4.25 -53.85 4.15 -53.85 4.05 -53.85 3.95 -53.85 3.85 -53.85 3.8 -53.85 3.7 -53.85 3.6 -53.85 3.5 -53.85 3.4 -53.85 3.3 -53.85 3.2 -53.85 3.1 -53.85 3.05 -53.85 2.95 -53.85 2.85 -53.85 2.75 -53.85 2.65 -53.85 2.55 -53.85 2.45 -53.85 2.35 -53.85 2.3 -53.85 2.2 -53.85 2.1 -53.85 2.0 -53.85 1.9 -53.85 1.8 -53.85 1.7 -53.85 1.6 -53.85 1.55 -53.85 1.45 -53.85 1.35 -53.85 1.25 -53.85 1.15 -53.85 1.05 -53.85 0.95 -53.85 0.85 -53.85 0.8 -53.85 0.7 -53.85 0.6 -53.85 0.5 -53.85 0.4 -53.85 0.3 -53.85 0.2 -53.85 0.1 -53.85 0.05 -53.85 -0.05 -53.85 -0.15 -53.85 -0.25 -53.85 -0.35 -53.85 -0.45 -53.85 -0.55 -53.85 -0.65 -53.85 -0.7 -53.85 -0.8 -53.85 -0.9 -53.85 -1.0 -53.85 -1.1 -53.85 -1.2 -53.85 -1.3 -53.85 -1.4 -53.85 -1.45 -53.85 -1.55 -53.85 -1.65 -53.85 -1.75 -53.85 -1.85 -53.85 -1.95 -53.85 -2.05 -53.85 -2.15 -53.85 -2.2 -53.85 -2.3 -53.85 -2.4 -53.85 -2.5 -53.85 -2.6 -53.85 -2.7 -53.85 -2.8 -53.85 -2.9 -53.85 -2.95 -53.85 -3.05 -53.85 -3.15 -53.85 -3.25 -53.85 -3.35 -53.85 -3.45 -53.85 -3.55 -53.85 -3.65 -53.85 -3.7 -53.85 -3.8 -53.85 -3.9 -53.85 -4.0 -53.85 -4.1 -53.85 -4.2 -53.85 -4.3 -53.85 -4.4 -53.85 -4.45 -53.85 -4.55 -53.85 -4.65 -53.85 -4.75 -53.85 -4.85 -53.85 -4.95 -53.85 -5.05 -53.85 -5.15 -53.85 -5.2 -53.85 -5.3 -53.85 -5.4 -53.85 -5.5 -53.85 -5.6 -53.85 -5.7 -53.85 -5.8 -53.85 -5.9 -53.85 -5.95 -53.85 -6.05 -53.85 -6.15 -53.85 -6.25 -53.85 -6.35 -53.85 -6.45 -53.85 -6.55 -53.85 -6.65 -53.85 -6.7 -53.85 -6.8 -53.85 -6.9 -53.85 -7.0 -53.85 -7.1 -53.85 -7.2 -53.85 -7.3 -53.85 -7.4 -53.85 -7.45 -53.85 -7.55 -53.85 -7.65 -53.85 -7.75 -53.85 -7.85 -53.85 -7.95 -53.85 -8.05 -53.85 -8.15 -53.85 -8.2 -53.85 -8.3 -53.85 -8.4 -53.85 -8.5 -53.85 -8.6 -53.85 -8.7 -53.85 -8.8 -53.85 -8.9 -53.85 -8.95 -53.85 -9.05 -53.85 -9.15 -53.85 -9.25 -53.85 -9.35 -53.85 -9.45 -53.85 -9.55 -53.85 -9.65 -53.85 -9.7 -53.85 -9.8 -53.85 -9.9 -53.85 -10.0 -53.85 -10.1 -53.85 -10.2 -53.85 -10.3 -53.85 -10.4 -53.85 -10.45 -53.85 -10.55 -53.85 -10.65 -53.85 -10.75 -53.85 -10.85 -53.85 -10.95 -53.85 -11.05 -53.85 -11.15 -53.85 -11.2 -53.85 -11.3 -53.85 -11.4 -53.85 -11.5 -53.85 -11.6 -53.85 -11.7 -53.85 -11.8 -51.6 -11.75 -51.4 -11.7 -51.15 -11.65 -50.4 -11.65 -49.45 -11.6 -49.25 -11.55 -49.1 -11.55 -48.1 -11.5 -47.9 -11.45 -47.7 -11.4 -44.7 -11.35 -44.5 -11.3 -44.35 -11.3 -41.6 -11.25 -41.4 -11.2 -41.15 -11.15 -38.7 -11.1 -38.5 -11.05 -38.35 -11.05 -37.2 -11.0 -37.1 -11.0 -34.7 -11.0 -34.5 -10.95 -34.3 -10.9 -33.2 -10.85 -33.05 -10.8 -32.9 -10.9 -32.7 -10.95 -32.55 -10.95 -32.35 -11.0 -28.95 -11.05 -28.8 -11.05 -28.6 -11.1 -23.2 -11.1 -22.8 -11.15 -22.55 -11.2 -22.35 -11.25 -22.2 -11.3 -22.05 -11.3 -21.8 -11.4 -21.6 -11.45 -21.45 -11.55 -21.3 -11.55 -21.1 -11.55 -21.1 -11.6 -20.2 -11.6 -20.0 -11.55 -19.85 -11.55 -19.6 -11.5 -19.4 -11.45 -19.2 -11.4 -17.7 -11.35 -17.5 -11.3 -17.35 -11.3 -16.6 -11.25 -16.4 -11.2 -16.25 -11.2 -16.15 -11.15 -16.0 -11.15 -13.6 -11.1 -13.4 -11.05 -13.15 -11.05 -12.95 -11.0 -12.75 -10.95 -12.6 -10.95 -12.5 -10.9 -12.35 -10.9 -11.1 -10.85 -10.85 -10.8 -10.8 -10.8 -10.65 -10.8 -10.45 -10.85 -8.55 -10.9 -8.3 -10.95 -8.1 -11.0 -7.45 -11.05 -7.3 -11.05 -7.1 -11.1 -6.55 -11.15 -6.3 -11.2 -6.1 -11.25 -3.7 -11.3 -3.55 -11.3 -3.35 -11.35 -1.05 -11.4 -0.8 -11.45 -0.6 -11.5 -0.45 -11.55 -0.3 -11.55 -0.1 -11.6 0.75 -11.65 1.45 -11.65 1.7 -11.7 1.9 -11.75 4.55 -11.8 4.7 -11.8 4.9 -11.85 5.35 -11.9 5.6 -11.95 5.8 -12.0 7.85 -12.05 8.1 -12.05 8.3 -12.05 8.3 -12.1 15.8 -12.1 16.0 -12.05 16.2 -12.0 16.4 -11.9 16.5 -11.8 16.6 -11.7 16.65 -11.65 16.75 -11.55 16.8 -11.45 16.85 -11.4 24.9 -11.35 25.1 -11.3 25.25 -11.3 26.9 -11.25 27.1 -11.2 27.3 -11.15 27.55 -11.1 27.75 -11.05 27.9 -11.05 28.55 -11.05 28.7 -11.05 28.9 -11.1 30.6 -11.15 30.85 -11.2 31.05 -11.25 38.05 -11.25 38.25 -11.2 38.45 -11.15 38.65 -11.05 45.3 -11.0 45.5 -10.95 45.7 -10.9 46.05 -10.85 46.25 -10.8 46.4 -10.8 47.9 -10.75 48.1 -10.7 48.3 -10.65 48.85 -10.65 49.1 -10.7 49.3 -10.75 52.4 -10.75 52.55 -10.7 52.8 -10.65 53.0 -10.55 53.15 -10.45 53.15 -10.4 53.15 -10.3 53.15 -10.2 53.15 -10.15 53.15 -10.05 53.15 -9.95 53.15 -9.85 53.15 -9.75 53.15 -9.65 53.2 -9.55 53.25 -9.45 53.3 -9.4 53.3 -9.3 53.3 -9.2 53.3 -9.1 53.3 -9.0 53.3 -8.9 53.35 -8.8 53.4 -8.7 53.4 -8.65 53.4 -8.55 53.4 -8.45 53.4 -8.35 53.4 -8.25 53.4 -8.15 53.4 -8.05 53.4 -7.95 53.4 -7.9 53.4 -7.8 53.4 -7.7 53.4 -7.6 53.55 -7.55 53.55 -7.5 53.55 -7.4 53.55 -7.3 53.55 -7.2 53.55 -7.15 53.55 -7.05 53.55 -6.95 53.55 -6.85 53.55 -6.75 53.55 -6.65 53.6 -6.55 53.65 -6.45 53.65 -6.4 53.65 -6.3 53.7 -6.2 53.75 -6.1 53.8 -6.0 53.8 -5.9 53.8 -5.8 53.8 -5.7 53.8 -5.65 53.8 -5.55 53.8 -5.45 53.85 -5.35 53.85 -5.25 53.9 -5.15 53.9 -5.05 53.9 -4.95 53.9 -4.9 53.9 -4.8 53.9 -4.7 53.9 -4.6 53.9 -4.5 53.9 -4.4 53.9 -4.3 53.9 -4.2 53.95 -4.15 54.0 -4.05 54.0 -3.95 54.05 -3.85 54.0 -3.75 54.0 -3.65 53.9 -3.55 53.9 -3.45 53.85 -3.4 53.8 -3.3 53.75 -3.2 53.7 -3.1 53.65 -3.0 53.65 -2.9 53.65 -2.8 53.65 -2.7 53.65 -2.65 53.65 -2.55 53.65 -2.45 53.65 -2.35 53.65 -2.25 53.65 -2.15 53.65 -2.05 53.65 -1.95 53.65 -1.9 53.65 -1.8 53.65 -1.7 53.65 -1.6 53.65 -1.5 53.65 -1.4 53.65 -1.3 53.65 -1.2 53.65 -1.15 53.65 -1.05 53.65 -0.95 53.65 -0.85 53.65 -0.75 53.65 -0.65 53.65 -0.55 53.65 -0.45 53.65 -0.4 53.65 -0.3 53.65 -0.2 53.65 -0.1 53.65 0.0 53.65 0.1 53.65 0.2 53.65 0.3 53.65 0.35 53.65 0.45 53.65 0.55 53.65 0.65 53.65 0.75 53.65 0.85 53.65 0.95 53.65 1.05 53.65 1.1 53.65 1.2 53.65 1.3 53.65 1.4 53.65 1.5 53.65 1.6 53.65 1.7 53.65 1.8 53.65 1.85 53.65 1.95 53.65 2.05 53.65 2.15 53.65 2.25 53.65 2.35 53.65 2.45 53.65 2.55 53.65 2.6 53.65 2.7 53.65 2.8 53.65 2.9 53.65 3.0 53.65 3.1 53.65 3.2 53.65 3.3 53.65 3.35 53.65 3.45 53.65 3.55 53.65 3.65 53.65 3.75 53.65 3.85 53.65 3.95 53.65 4.05 53.65 4.1 53.65 4.2 53.65 4.3 53.65 4.4 53.65 4.5 53.65 4.6 53.65 4.7 53.65 4.8 53.65 4.85 53.65 4.95 53.65 5.05 53.65 5.15 53.65 5.25 53.65 5.35 53.65 5.45 53.65 5.55 53.65 5.6 53.65 5.7 53.65 5.8 53.65 5.9 53.65 6.0 53.65 6.1 53.65 6.2 53.65 6.3 53.65 6.35 53.65 6.45 53.65 6.55 53.65 6.65 53.65 6.75 53.65 6.85 53.65 6.95 53.65 7.05 53.65 7.1 53.65 7.2 53.65 7.3 53.65 7.4 53.65 7.5 53.65 7.6 53.65 7.7 53.65 7.8 53.65 7.85 53.65 7.95 53.65 8.05 53.65 8.15 53.65 8.25 53.65 8.35 53.65 8.45 53.65 8.55 53.65 8.6 53.65 8.7 53.65 8.8 53.65 8.9 53.65 9.0 53.65 9.1 53.65 9.2 53.65 9.3 53.65 9.35 53.65 9.45 53.65 9.55 53.65 9.65 53.65 9.75 53.65 9.85 53.65 9.95 53.65 10.05 53.65 10.1 53.65 10.2 53.65 10.3 53.65 10.4 53.65 10.5 53.65 10.6 53.65 10.7 53.65 10.8 53.65 10.85 53.65 10.95 53.65 11.05 53.55 11.05 53.4 11.1 53.25 11.1 53.05 11.15 52.9 11.2 48.55 11.25 48.35 11.3 48.15 11.35 45.5 11.35 45.35 11.4 45.15 11.45 44.85 11.45 43.95 11.5 43.75 11.55 43.55 11.6 34.65 11.65 34.45 11.75 34.25 11.8 34.05 11.85 33.5 11.85 33.35 11.9 33.15 11.95 32.55 12.0 32.35 12.05 32.15 12.1 28.55 12.1 28.35 12.05 28.1 12.0 28.0 11.95 24.05 11.95 23.85 11.9 23.7 11.85 20.55 11.85 20.35 11.8 20.1 11.75 19.15 11.7 18.55 11.7 11.05 11.75 10.85 11.8 10.65 11.85 6.3 11.85 3.8 11.85 3.75 11.85 3.6 11.9 3.4 11.95 1.3 11.95 1.1 11.9 0.85 11.85 0.65 11.75 0.6 11.65 0.55 11.6 -1.2 11.6 -1.4 11.55 -1.65 11.5 -3.1 11.45 -4.6 11.45 -4.8 11.4 -5.05 11.35 -5.25 11.25 -5.35 11.15 -5.4 11.05 -5.5 10.95 -5.6 10.85 -5.6 10.8 -5.65 10.7 -5.65 10.65 -5.75 10.65 -5.95 10.7 -6.4 10.75 -6.65 10.8 -6.85 10.85 -19.85 10.85 -20.0 10.9 -20.2 10.95 -21.05 11.0 -21.25 11.05 -21.45 11.1 -26.85 11.15 -27.05 11.25 -27.25 11.3 -27.45 11.35 -38.85 11.35 -39.05 11.3 -39.3 11.25 -43.95 11.2 -44.15 11.15 -44.3 11.1 -45.6 11.1 -45.8 11.05 -46.05 11.0 -46.6 10.95 -46.8 10.9 -46.95 10.85 -47.2 10.85 -47.4 10.8 -47.65 10.75 -47.85 10.65 -47.95 10.55 -48.1 10.45 -48.2 10.35 -48.3 10.3 -48.35 10.25 -48.8 10.25 -49.0 10.3 -49.2 10.35 -49.5 10.35 -49.65 10.4 -49.85 10.45 -50.3 10.5 -50.5 10.55 -50.7 10.6 -51.6 10.6 -51.75 10.65 -51.95 10.7 -53.3 10.75 -53.5 10.85 -53.65 10.95 -53.85 11.05 -54.0 11.1 -54.1 11.1 -54.2 11.15 M-53.35 -9.5 L-51.95 -9.5 -53.55 -9.55 -53.55 -9.45 -53.35 -9.5 M50.95 3.1 L51.0 3.05 51.0 2.95 51.05 2.85 51.1 2.8 51.1 2.7 51.15 2.6 51.15 2.5 51.15 2.4 51.15 2.3 51.15 2.2 51.15 2.1 51.15 2.05 51.15 1.95 51.15 1.85 51.15 1.75 51.15 1.65 51.15 1.55 51.15 1.45 51.15 1.35 51.15 1.3 51.1 1.2 51.1 1.1 51.1 1.0 51.15 0.9 51.15 0.8 51.15 0.7 51.2 0.6 51.2 0.55 51.25 0.45 51.25 0.35 51.25 0.25 51.3 0.15 51.35 0.05 51.4 -0.05 51.45 -0.15 51.45 -0.2 51.5 -0.3 51.5 -0.4 51.55 -0.5 51.55 -0.6 51.6 -0.7 51.65 -0.8 51.65 -0.9 51.75 -0.95 51.8 -1.05 51.8 -1.15 51.85 -1.25 51.85 -1.35 51.9 -1.45 51.9 -1.55 51.9 -1.65 51.95 -1.7 51.95 -1.8 52.0 -1.9 52.0 -2.0 52.0 -2.1 52.0 -2.2 52.05 -2.3 52.1 -2.4 52.1 -2.45 52.15 -2.55 52.15 -2.65 52.15 -2.75 52.15 -2.85 52.15 -2.95 52.15 -3.05 52.15 -3.15 52.2 -3.2 52.2 -3.3 52.25 -3.4 52.25 -3.5 52.25 -3.6 52.25 -3.7 52.25 -3.8 52.25 -3.9 52.25 -3.95 52.25 -4.05 52.25 -4.15 52.25 -4.25 52.25 -4.35 52.25 -4.45 52.25 -4.55 52.25 -4.65 52.25 -4.7 52.2 -4.8 52.2 -4.9 52.15 -5.0 52.15 -5.1 52.05 -5.2 52.0 -5.3 51.95 -5.4 51.85 -5.45 51.75 -5.55 51.55 -5.65 51.3 -5.7 51.15 -5.75 51.05 -5.75 51.05 -5.7 51.0 -5.75 50.95 -5.85 50.9 -5.95 50.8 -6.05 50.7 -6.15 50.6 -6.2 50.5 -6.3 50.3 -6.4 50.1 -6.45 49.9 -6.55 49.8 -6.65 49.65 -6.7 49.5 -6.8 49.4 -6.9 49.2 -7.0 49.0 -7.05 48.8 -7.1 48.55 -7.15 48.35 -7.2 48.15 -7.25 47.9 -7.3 47.75 -7.3 47.55 -7.35 46.7 -7.4 46.5 -7.45 46.3 -7.5 45.4 -7.55 45.25 -7.55 45.05 -7.6 44.7 -7.65 44.5 -7.7 44.3 -7.75 43.5 -7.8 43.35 -7.8 43.15 -7.85 40.4 -7.9 40.25 -7.95 40.1 -8.05 40.0 -8.15 39.95 -8.2 39.85 -8.3 39.75 -8.4 39.55 -8.5 39.35 -8.55 39.15 -8.6 38.95 -8.65 38.75 -8.7 38.55 -8.75 38.4 -8.8 38.25 -8.8 38.2 -8.85 38.05 -8.9 37.85 -8.95 37.65 -9.0 35.5 -9.05 35.35 -9.05 35.15 -9.1 29.8 -9.1 29.8 -9.05 29.6 -9.05 29.45 -9.05 26.3 -9.0 26.1 -8.95 25.85 -8.9 25.3 -8.85 25.1 -8.8 24.95 -8.8 20.9 -8.75 20.8 -8.85 20.7 -8.95 20.6 -9.05 20.55 -9.15 20.5 -9.2 20.45 -9.3 20.4 -9.4 20.3 -9.5 20.25 -9.6 20.15 -9.7 20.1 -9.8 20.05 -9.9 20.0 -9.95 19.9 -10.05 19.85 -10.15 19.85 -10.25 19.8 -10.35 19.75 -10.45 19.7 -10.55 19.65 -10.65 19.6 -10.7 19.5 -10.8 19.45 -10.9 19.4 -11.0 19.3 -11.1 19.15 -11.2 19.0 -11.25 18.8 -11.3 18.8 -11.25 18.6 -11.25 18.4 -11.2 18.3 -11.1 18.2 -11.0 18.1 -10.9 18.1 -10.8 18.05 -10.7 18.0 -10.65 18.0 -10.55 18.0 -10.45 18.0 -10.35 18.0 -10.25 18.05 -10.15 18.1 -10.05 18.15 -9.95 18.15 -9.9 18.2 -9.8 18.25 -9.7 18.35 -9.6 18.35 -9.5 18.4 -9.4 18.4 -9.3 18.5 -9.2 18.6 -9.15 18.65 -9.05 18.75 -8.95 18.85 -8.85 18.85 -8.75 18.9 -8.65 18.95 -8.6 18.4 -8.6 18.2 -8.55 18.0 -8.55 14.3 -8.5 14.1 -8.45 13.85 -8.4 12.9 -8.35 12.7 -8.3 12.55 -8.3 12.15 -8.25 11.95 -8.2 11.8 -8.2 11.6 -8.15 11.35 -8.05 11.2 -8.05 11.05 -7.95 10.9 -7.9 10.8 -7.8 10.7 -7.7 10.6 -7.6 10.55 -7.5 10.5 -7.4 8.8 -7.35 8.55 -7.3 8.3 -7.3 1.4 -7.25 1.2 -7.2 0.95 -7.15 0.7 -7.15 0.5 -7.2 0.3 -7.25 -0.1 -7.3 -0.25 -7.3 -0.45 -7.35 -1.9 -7.4 -2.15 -7.45 -2.35 -7.5 -2.9 -7.55 -3.15 -7.55 -3.35 -7.6 -5.15 -7.65 -5.4 -7.7 -5.6 -7.75 -7.9 -7.8 -8.15 -7.8 -8.35 -7.85 -9.75 -7.9 -10.0 -7.95 -10.2 -8.0 -14.0 -8.0 -14.1 -8.05 -14.25 -8.05 -14.45 -8.1 -16.0 -8.15 -16.25 -8.2 -16.45 -8.25 -18.3 -8.3 -18.5 -8.3 -18.7 -8.35 -47.2 -8.35 -47.2 -8.3 -47.4 -8.3 -47.55 -8.3 -47.7 -8.2 -47.85 -8.15 -47.95 -8.05 -47.95 -8.0 -48.0 -8.05 -48.2 -8.15 -48.4 -8.2 -48.6 -8.25 -48.75 -8.3 -48.9 -8.3 -49.1 -8.35 -49.85 -8.35 -49.85 -8.3 -50.05 -8.3 -50.2 -8.3 -50.4 -8.2 -50.6 -8.15 -50.75 -8.05 -50.85 -7.95 -50.95 -7.85 -51.05 -7.75 -51.15 -7.65 -51.25 -7.55 -51.3 -7.45 -51.35 -7.4 -51.4 -7.3 -51.4 -7.2 -51.5 -7.1 -51.55 -7.0 -51.6 -6.9 -51.65 -6.8 -51.7 -6.7 -51.75 -6.65 -51.75 -6.55 -51.8 -6.45 -51.8 -6.35 -51.8 -6.25 -51.85 -6.15 -51.9 -6.05 -51.9 -5.95 -51.9 -5.9 -51.95 -5.8 -51.95 -5.7 -51.95 -5.6 -51.95 -5.5 -51.95 -5.4 -51.95 -5.3 -51.95 -5.2 -51.95 -5.15 -51.95 -5.05 -51.9 -4.95 -51.9 -4.85 -51.9 -4.75 -51.85 -4.65 -51.8 -4.55 -51.7 -4.45 -51.6 -4.4 -51.5 -4.3 -51.4 -4.2 -51.35 -4.1 -51.25 -4.0 -51.05 -3.9 -50.8 -3.85 -50.6 -3.8 -50.55 -3.75 -50.6 -3.65 -50.65 -3.55 -50.65 -3.45 -50.65 -3.4 -50.7 -3.3 -50.7 -3.2 -50.7 -3.1 -50.9 -3.0 -51.1 -2.9 -51.15 -2.8 -51.25 -2.7 -51.35 -2.65 -51.4 -2.55 -51.45 -2.45 -51.5 -2.35 -51.5 -2.25 -51.55 -2.15 -51.55 -2.05 -51.55 -1.95 -51.55 -1.9 -51.55 -1.8 -51.55 -1.7 -51.55 -1.6 -51.55 -1.5 -51.55 -1.4 -51.55 -1.3 -51.55 -1.2 -51.55 -1.15 -51.55 -1.05 -51.55 -0.95 -51.55 -0.85 -51.55 -0.75 -51.55 -0.65 -51.55 -0.55 -51.6 -0.45 -51.6 -0.4 -51.65 -0.3 -51.65 -0.2 -51.7 -0.1 -51.7 0.0 -51.7 0.1 -51.7 0.2 -51.7 0.3 -51.7 0.35 -51.7 0.45 -51.7 0.55 -51.7 0.65 -51.75 0.75 -51.75 0.85 -51.8 0.95 -51.8 1.05 -51.8 1.1 -51.8 1.2 -51.85 1.3 -51.85 1.4 -51.9 1.5 -51.95 1.6 -52.0 1.7 -52.0 1.8 -52.0 1.85 -52.05 1.95 -52.05 2.05 -52.05 2.15 -52.1 2.25 -52.15 2.35 -52.15 2.45 -52.15 2.55 -52.2 2.6 -52.2 2.7 -52.25 2.8 -52.3 2.9 -52.35 3.0 -52.4 3.1 -52.4 3.2 -52.4 3.3 -52.45 3.35 -52.45 3.45 -52.45 3.55 -52.45 3.65 -52.45 3.75 -52.45 3.85 -52.45 3.95 -52.45 4.05 -52.45 4.1 -52.45 4.2 -52.45 4.3 -52.45 4.4 -52.45 4.5 -52.45 4.6 -52.45 4.7 -52.4 4.8 -52.4 4.85 -52.35 4.95 -52.3 5.05 -52.25 5.15 -52.15 5.25 -52.05 5.35 -51.9 5.45 -51.75 5.55 -51.6 5.6 -51.45 5.7 -51.25 5.8 -51.1 5.9 -50.9 6.0 -50.55 6.1 -50.3 6.15 -50.1 6.2 -49.9 6.25 -49.65 6.3 -49.45 6.35 -45.2 6.35 -45.05 6.4 -44.85 6.45 -44.65 6.5 -44.4 6.55 -44.2 6.6 -43.05 6.6 -42.9 6.65 -42.7 6.7 -42.4 6.75 -42.15 6.8 -41.95 6.85 -41.45 6.85 -41.3 6.9 -41.1 6.95 -39.65 7.0 -39.4 7.05 -39.2 7.1 -38.7 7.1 -38.55 7.15 -38.35 7.2 -37.3 7.25 -37.05 7.3 -36.85 7.35 -36.05 7.35 -35.9 7.4 -35.7 7.45 -34.3 7.5 -34.05 7.55 -34.0 7.6 -34.05 7.6 -34.25 7.65 -34.4 7.75 -34.6 7.8 -34.8 7.85 -34.9 7.85 -35.05 7.95 -35.3 8.0 -35.4 8.05 -35.55 8.1 -35.65 8.2 -35.9 8.25 -36.1 8.3 -36.35 8.4 -36.5 8.5 -36.7 8.55 -36.9 8.6 -37.0 8.6 -37.15 8.7 -37.3 8.75 -37.4 8.8 -37.5 8.8 -37.6 8.85 -37.65 8.95 -37.75 9.05 -37.85 9.15 -37.85 9.25 -37.9 9.35 -37.9 9.45 -37.9 9.55 -37.9 9.6 -37.85 9.7 -37.85 9.8 -37.8 9.9 -37.7 10.0 -37.6 10.1 -37.5 10.2 -37.3 10.25 -37.1 10.3 -36.7 10.3 -36.5 10.25 -36.4 10.2 -36.35 10.2 -36.25 10.1 -36.05 10.05 -35.95 10.05 -35.75 10.0 -35.65 9.95 -35.55 9.9 -35.4 9.8 -35.15 9.75 -35.0 9.7 -34.85 9.6 -34.6 9.55 -34.4 9.5 -34.3 9.45 -34.2 9.4 -34.0 9.35 -33.9 9.3 -33.8 9.25 -33.65 9.15 -33.5 9.1 -33.4 9.05 -33.3 9.05 -33.15 8.95 -33.0 8.85 -32.8 8.8 -32.75 8.8 -32.65 8.7 -32.5 8.6 -32.3 8.55 -32.2 8.5 -32.05 8.4 -31.9 8.3 -31.65 8.25 -31.55 8.2 -31.45 8.15 -31.3 8.05 -31.15 7.95 -31.0 7.85 -30.85 7.8 -30.6 7.7 -27.15 7.75 -26.9 7.8 -26.7 7.85 -14.7 7.85 -14.5 7.8 -14.35 7.8 -14.2 7.7 -14.05 7.6 -13.95 7.55 -13.85 7.45 -13.8 7.35 -13.75 7.25 -13.55 7.25 -10.1 7.25 -9.9 7.3 -9.65 7.35 -9.0 7.35 -8.9 7.25 -8.75 7.15 -8.65 7.1 -8.55 7.05 -8.4 7.05 -8.35 7.05 -8.3 7.05 -8.15 7.05 -8.0 7.1 -7.8 7.1 -7.65 7.15 -7.45 7.2 -6.95 7.2 -6.85 7.25 -6.7 7.3 -6.55 7.3 -6.35 7.35 -5.5 7.35 -5.3 7.4 -5.1 7.45 -4.55 7.45 -4.4 7.5 -4.3 7.55 -4.15 7.55 -3.95 7.6 -2.05 7.6 -1.9 7.65 -1.7 7.7 -0.8 7.7 -0.65 7.75 -0.55 7.8 -0.4 7.8 -0.2 7.85 2.9 7.85 3.1 7.8 3.3 7.75 3.8 7.7 4.0 7.65 4.2 7.6 4.4 7.5 4.5 7.4 7.05 7.35 7.15 7.4 7.25 7.45 7.35 7.5 7.6 7.55 7.65 7.6 7.8 7.6 7.9 7.65 8.0 7.7 8.1 7.75 8.35 7.8 8.55 7.85 9.05 7.85 9.2 7.9 9.4 7.95 9.7 8.0 9.95 8.05 10.15 8.1 10.95 8.1 11.1 8.15 11.3 8.2 30.3 8.2 30.5 8.15 30.65 8.1 31.05 8.1 31.25 8.05 31.45 8.0 31.8 7.95 32.0 7.9 32.2 7.85 32.4 7.75 32.5 7.65 32.8 7.6 33.0 7.55 33.2 7.5 35.4 7.45 35.6 7.4 35.75 7.35 37.15 7.35 37.35 7.3 37.6 7.25 38.55 7.2 38.75 7.15 38.9 7.1 39.9 7.1 40.1 7.05 40.3 7.0 40.55 6.95 40.9 6.95 45.9 6.95 46.1 6.9 46.25 6.85 46.75 6.9 46.9 7.0 47.1 7.1 47.35 7.15 47.55 7.2 48.8 7.2 49.0 7.15 49.2 7.1 49.4 7.0 49.5 6.9 49.65 6.8 49.9 6.7 50.05 6.6 50.15 6.55 50.25 6.45 50.3 6.35 50.45 6.25 50.65 6.15 50.75 6.05 50.85 5.95 50.9 5.85 51.0 5.8 51.05 5.7 51.1 5.6 51.15 5.5 51.15 5.4 51.2 5.3 51.25 5.2 51.25 5.1 51.25 5.05 51.25 4.95 51.25 4.85 51.25 4.75 51.2 4.65 51.2 4.55 51.15 4.45 51.1 4.35 51.05 4.3 51.0 4.2 50.9 4.1 50.8 4.0 50.8 3.9 50.8 3.8 50.8 3.7 50.8 3.6 50.8 3.55 50.8 3.45 50.85 3.35 50.9 3.25 50.95 3.15 50.95 3.1 M44.65 -8.65 L44.7 -8.75 44.15 -8.75 44.35 -8.7 44.55 -8.65 44.65 -8.6 44.65 -8.65" fill="#9a9a9a" fill-rule="evenodd" stroke="none"/>
    <path d="M18.15 -11.05 L18.25 -11.0 18.3 -10.95 18.45 -10.9 18.6 -10.8 18.75 -10.7 18.85 -10.65 19.0 -10.55 19.15 -10.45 19.3 -10.4 19.4 -10.35 19.55 -10.3 19.7 -10.25 19.8 -10.15 19.85 -10.05 20.0 -10.0 20.05 -9.95 20.2 -9.9 20.3 -9.8 20.35 -9.7 20.35 -9.65 20.4 -9.55 20.45 -9.45 20.45 -9.35 20.5 -9.25 20.6 -9.15 20.65 -9.05 20.7 -8.95 20.75 -8.9 20.85 -8.8 20.85 -8.7 20.9 -8.6 20.95 -8.5 21.05 -8.4 21.1 -8.3 21.15 -8.2 21.25 -8.15 21.35 -8.05 21.4 -7.95 21.55 -7.85 21.6 -7.75 21.6 -7.65 21.6 -7.55 21.6 -7.45 21.65 -7.4 21.7 -7.3 21.8 -7.2 21.85 -7.1 21.85 -7.0 21.95 -6.9 22.05 -6.8 22.1 -6.7 22.15 -6.65 22.2 -6.55 22.3 -6.45 22.4 -6.35 22.45 -6.3 22.5 -6.25 22.65 -6.2 22.8 -6.15 22.9 -6.05 23.1 -5.95 23.25 -5.9 23.35 -5.8 23.4 -5.7 23.55 -5.6 23.6 -5.5 23.6 -5.4 23.65 -5.3 23.8 -5.25 23.9 -5.15 23.95 -5.05 24.0 -4.95 24.1 -4.9 24.1 -4.8 24.15 -4.7 24.15 -4.6 24.25 -4.5 24.3 -4.4 24.35 -4.3 24.35 -4.2 24.35 -4.15 24.4 -4.05 24.45 -3.95 24.45 -3.85 24.45 -3.75 24.5 -3.65 24.55 -3.55 24.6 -3.45 24.6 -3.4 24.6 -3.3 24.65 -3.2 24.65 -3.1 24.7 -3.1 24.75 -3.05 24.9 -2.95 24.9 -2.9 24.95 -2.9 25.1 -2.8 25.25 -2.7 25.35 -2.65 25.4 -2.55 25.55 -2.45 25.6 -2.35 25.7 -2.25 25.8 -2.15 25.85 -2.05 25.85 -2.0 26.8 -1.95 26.95 -1.9 27.05 -1.8 27.1 -1.75 27.3 -1.7 27.45 -1.65 27.55 -1.55 27.6 -1.5 27.65 -1.45 27.8 -1.4 27.9 -1.3 28.1 -1.25 28.15 -1.2 28.3 -1.15 28.4 -1.05 28.5 -0.95 28.6 -0.9 28.7 -0.8 28.8 -0.7 28.85 -0.6 28.85 -0.5 28.95 -0.4 29.05 -0.3 29.1 -0.2 29.1 -0.15 30.65 -0.05 30.75 -0.05 30.85 0.0 31.05 0.05 31.2 0.1 31.35 0.2 31.5 0.25 32.25 0.2 32.35 0.1 32.4 0.05 32.6 0.0 32.8 -0.05 33.35 -0.15 33.4 -0.2 33.6 -0.25 33.8 -0.3 34.1 -0.4 34.15 -0.45 34.3 -0.5 34.4 -0.6 34.45 -0.65 34.5 -0.7 34.7 -0.75 34.9 -0.8 35.15 -0.9 35.3 -0.95 35.35 -1.05 35.45 -1.15 35.7 -1.25 35.8 -1.35 35.85 -1.45 35.85 -1.55 35.9 -1.65 36.05 -1.7 36.1 -1.8 36.2 -1.9 36.35 -2.0 36.6 -2.1 36.7 -2.15 36.75 -2.2 36.9 -2.2 37.55 -2.2 37.7 -2.15 37.85 -2.15 37.95 -2.25 38.15 -2.3 38.55 -2.3 38.7 -2.25 38.8 -2.15 38.85 -2.05 38.85 -1.95 38.85 -1.9 38.85 -1.8 38.75 -1.7 38.65 -1.65 38.55 -1.6 38.35 -1.65 38.25 -1.55 38.1 -1.45 38.0 -1.4 37.9 -1.35 37.65 -1.35 37.45 -1.4 37.35 -1.5 37.35 -1.55 37.1 -1.55 37.0 -1.45 36.9 -1.45 36.65 -1.4 36.6 -1.3 36.5 -1.2 36.4 -1.1 36.35 -1.0 36.35 -0.9 36.3 -0.8 36.25 -0.75 36.15 -0.7 36.0 -0.65 35.9 -0.55 35.9 -0.45 35.75 -0.4 35.6 -0.3 35.5 -0.2 35.4 -0.2 35.1 -0.15 35.0 -0.15 34.85 -0.05 34.8 0.05 34.65 0.1 34.5 0.2 34.4 0.3 34.3 0.3 33.9 0.35 33.75 0.45 33.65 0.55 33.55 0.55 32.9 0.6 32.75 0.7 32.65 0.8 32.5 0.85 32.3 0.9 31.3 0.9 31.1 0.85 30.85 0.75 30.8 0.7 30.65 0.65 30.5 0.6 30.45 0.6 29.05 0.55 28.85 0.5 28.75 0.4 28.6 0.3 28.5 0.2 28.45 0.1 28.4 0.05 28.35 -0.05 28.3 -0.15 28.25 -0.25 28.2 -0.35 28.05 -0.45 27.9 -0.55 27.75 -0.65 27.65 -0.7 27.45 -0.75 27.35 -0.85 27.15 -0.95 27.1 -1.05 26.9 -1.1 26.7 -1.15 26.6 -1.25 26.55 -1.3 25.65 -1.35 25.45 -1.4 25.2 -1.5 25.1 -1.6 25.05 -1.7 24.9 -1.8 24.85 -1.9 24.8 -1.95 24.75 -2.05 24.6 -2.15 24.45 -2.25 24.35 -2.35 24.3 -2.45 24.2 -2.5 24.25 -2.4 24.3 -2.3 24.35 -2.2 24.35 -2.15 24.35 -2.05 24.35 -1.95 24.35 -1.85 24.35 -1.75 24.35 -1.65 24.35 -1.55 24.35 -1.45 24.35 -1.4 24.35 -1.3 24.4 -1.2 24.4 -1.1 24.5 -1.0 24.55 -0.9 24.6 -0.8 24.6 -0.7 24.65 -0.65 24.7 -0.55 24.7 -0.45 24.8 -0.35 24.85 -0.25 24.85 -0.15 24.85 -0.05 24.85 0.05 24.9 0.1 24.95 0.2 25.05 0.3 25.1 0.4 25.1 0.5 25.1 0.6 25.15 0.7 25.25 0.8 25.35 0.85 25.35 0.95 25.35 1.05 25.35 1.15 25.35 1.25 25.35 1.35 25.35 1.45 25.35 1.55 25.35 1.6 25.35 1.7 25.35 1.8 25.35 1.9 25.35 2.0 25.35 2.1 25.35 2.2 25.35 2.3 25.35 2.35 25.35 2.45 25.35 2.55 25.4 2.65 25.55 2.75 25.65 2.85 25.7 2.95 25.75 3.05 25.85 3.1 25.9 3.2 26.05 3.3 26.15 3.4 26.15 3.5 26.2 3.6 26.2 3.7 26.2 3.8 26.2 3.85 26.2 3.95 26.3 4.05 26.35 4.1 26.4 4.15 26.55 4.2 26.7 4.25 26.8 4.35 26.85 4.45 27.0 4.5 27.05 4.55 27.2 4.6 27.3 4.7 27.35 4.8 27.5 4.85 28.55 4.95 28.75 5.0 28.95 5.1 29.05 5.2 29.1 5.25 29.15 5.3 29.3 5.35 29.4 5.45 29.6 5.55 29.65 5.6 29.7 5.7 29.7 5.8 29.65 5.9 29.55 6.0 29.4 6.05 29.15 6.05 28.95 6.0 28.85 5.9 28.65 5.8 28.6 5.7 28.4 5.6 27.3 5.55 27.1 5.5 27.0 5.4 26.9 5.3 26.85 5.2 26.65 5.1 26.55 5.05 26.35 5.0 26.25 4.9 26.25 4.85 26.15 4.8 25.95 4.75 25.85 4.65 25.8 4.55 25.75 4.45 25.7 4.35 25.65 4.3 25.6 4.2 25.6 4.1 25.6 4.0 25.6 3.9 25.55 3.8 25.4 3.7 25.35 3.6 25.25 3.55 25.15 3.45 25.1 3.35 24.95 3.25 24.85 3.15 24.8 3.05 24.75 2.95 24.75 2.85 24.75 2.8 24.75 2.7 24.75 2.6 24.75 2.5 24.75 2.4 24.75 2.3 24.75 2.2 24.75 2.1 24.75 2.05 24.75 1.95 24.75 1.85 24.75 1.75 24.75 1.65 24.75 1.55 24.75 1.45 24.75 1.35 24.7 1.3 24.65 1.2 24.6 1.1 24.5 1.0 24.5 0.9 24.5 0.8 24.4 0.7 24.35 0.6 24.35 0.55 24.3 0.45 24.25 0.35 24.25 0.25 24.25 0.15 24.15 0.05 24.1 -0.05 24.1 -0.15 24.1 -0.2 24.05 -0.3 24.0 -0.4 23.95 -0.5 23.85 -0.6 23.85 -0.7 23.8 -0.8 23.75 -0.9 23.75 -0.95 23.75 -1.05 23.75 -1.15 23.75 -1.25 23.75 -1.35 23.75 -1.45 23.75 -1.55 23.75 -1.65 23.75 -1.7 23.75 -1.8 23.7 -1.9 23.6 -2.0 23.6 -2.1 23.6 -2.2 23.6 -2.3 23.6 -2.4 23.55 -2.45 23.5 -2.55 23.45 -2.65 23.35 -2.75 23.35 -2.85 23.3 -2.95 23.25 -3.05 23.2 -3.15 23.15 -3.2 23.1 -3.3 23.1 -3.4 23.1 -3.5 23.1 -3.6 23.1 -3.7 23.1 -3.8 23.15 -3.9 23.3 -3.95 23.35 -4.05 23.35 -4.15 23.35 -4.25 23.35 -4.35 23.35 -4.45 23.35 -4.55 23.35 -4.65 23.3 -4.7 23.25 -4.8 23.2 -4.9 23.1 -5.0 23.0 -5.1 22.9 -5.2 22.85 -5.3 22.75 -5.4 22.65 -5.45 22.45 -5.5 22.4 -5.55 22.3 -5.6 22.1 -5.65 22.0 -5.75 21.95 -5.85 21.8 -5.95 21.65 -6.05 21.6 -6.15 21.6 -6.2 21.55 -6.3 21.45 -6.4 21.35 -6.5 21.25 -6.6 21.25 -6.7 21.15 -6.8 21.1 -6.9 21.1 -6.95 21.05 -7.05 21.0 -7.15 21.0 -7.25 21.0 -7.35 20.9 -7.45 20.85 -7.55 20.75 -7.65 20.7 -7.7 20.65 -7.8 20.55 -7.9 20.45 -8.0 20.35 -8.1 20.35 -8.2 20.3 -8.3 20.25 -8.4 20.15 -8.45 20.1 -8.55 20.1 -8.65 19.95 -8.75 19.85 -8.85 19.85 -8.95 19.85 -9.05 19.85 -9.15 19.8 -9.2 19.75 -9.3 19.6 -9.4 19.45 -9.5 19.35 -9.6 19.35 -9.65 19.3 -9.7 19.1 -9.75 19.05 -9.8 18.9 -9.85 18.7 -9.9 18.45 -10.0 18.35 -10.1 18.3 -10.2 18.15 -10.3 18.05 -10.35 17.85 -10.4 17.7 -10.5 17.6 -10.6 17.45 -10.65 17.4 -10.7 17.2 -10.75 17.1 -10.85 16.9 -10.95 16.85 -11.05 16.75 -11.15 16.75 -11.2 16.75 -11.3 16.75 -11.4 16.75 -11.5 16.8 -11.6 16.85 -11.65 16.9 -11.7 17.05 -11.7 17.2 -11.65 17.3 -11.55 17.35 -11.5 17.4 -11.45 17.55 -11.4 17.65 -11.3 17.85 -11.25 17.9 -11.2 18.05 -11.15 18.15 -11.05 M33.4 -4.05 L33.45 -3.95 33.6 -3.9 33.75 -3.8 33.9 -3.7 34.05 -3.6 34.15 -3.55 34.25 -3.5 34.4 -3.45 34.55 -3.4 34.65 -3.3 34.75 -3.2 34.85 -3.15 34.85 -3.05 34.9 -2.95 35.05 -2.9 35.15 -2.8 35.2 -2.7 35.25 -2.65 35.4 -2.55 35.55 -2.45 35.65 -2.35 35.65 -2.25 35.8 -2.15 35.9 -2.05 35.95 -1.95 35.95 -1.9 35.9 -1.8 35.85 -1.7 35.75 -1.65 35.65 -1.6 35.4 -1.6 35.2 -1.65 35.1 -1.75 35.1 -1.85 35.1 -1.9 35.05 -1.95 34.85 -2.0 34.75 -2.1 34.65 -2.2 34.6 -2.3 34.6 -2.4 34.5 -2.45 34.4 -2.55 34.3 -2.65 34.2 -2.75 34.15 -2.8 34.05 -2.85 33.85 -2.9 33.6 -3.0 33.5 -3.1 33.45 -3.15 33.4 -3.2 33.2 -3.25 33.1 -3.35 32.9 -3.45 32.85 -3.55 32.75 -3.65 32.65 -3.7 32.6 -3.8 32.55 -3.8 31.9 -3.85 31.7 -3.9 31.6 -4.0 31.6 -4.1 31.6 -4.2 31.6 -4.3 31.65 -4.4 31.75 -4.45 31.9 -4.45 32.8 -4.45 32.95 -4.4 33.05 -4.3 33.1 -4.25 33.15 -4.2 33.3 -4.15 33.4 -4.05 M51.75 -10.55 L51.9 -10.55 52.9 -10.65 53.0 -10.7 53.05 -10.7 53.05 -10.65 53.05 -10.55 53.05 -10.45 53.05 -10.4 53.05 -10.3 53.05 -10.2 53.05 -10.1 53.05 -10.0 53.05 -9.9 53.05 -9.8 53.05 -9.7 53.05 -9.65 53.05 -9.55 53.05 -9.45 53.05 -9.35 53.05 -9.25 53.05 -9.15 53.05 -9.05 53.05 -8.95 53.05 -8.9 53.05 -8.8 53.05 -8.7 53.05 -8.6 53.05 -8.5 53.05 -8.4 53.05 -8.3 53.05 -8.2 53.05 -8.15 53.05 -8.05 53.05 -7.95 53.05 -7.85 53.05 -7.75 53.05 -7.65 53.05 -7.55 53.05 -7.45 53.05 -7.4 53.05 -7.3 53.05 -7.2 53.05 -7.1 53.05 -7.0 53.05 -6.9 53.05 -6.85 52.95 -6.9 52.85 -7.0 52.75 -7.1 52.75 -7.2 52.75 -7.3 52.75 -7.4 52.75 -7.45 52.75 -7.55 52.75 -7.65 52.75 -7.75 52.75 -7.85 52.75 -7.95 52.75 -8.05 52.75 -8.15 52.75 -8.2 52.75 -8.3 52.75 -8.4 52.75 -8.5 52.75 -8.6 52.75 -8.7 52.75 -8.8 52.75 -8.9 52.75 -8.95 52.75 -9.05 52.7 -9.15 52.6 -9.25 52.5 -9.35 52.45 -9.4 52.3 -9.45 52.1 -9.5 52.0 -9.6 51.95 -9.65 51.8 -9.7 51.6 -9.75 51.5 -9.85 51.35 -9.9 51.15 -9.95 50.95 -10.0 50.85 -10.1 50.8 -10.2 50.75 -10.3 50.75 -10.4 50.75 -10.45 50.75 -10.55 50.75 -10.65 50.85 -10.75 51.05 -10.8 51.2 -10.75 51.3 -10.65 51.4 -10.6 51.55 -10.55 51.65 -10.55 51.75 -10.55 M-41.95 -9.55 L-41.9 -9.45 -41.9 -9.4 -41.9 -9.3 -42.0 -9.2 -42.1 -9.15 -42.2 -9.1 -42.85 -9.1 -43.05 -9.15 -43.3 -9.25 -43.4 -9.35 -43.6 -9.45 -43.65 -9.55 -43.85 -9.65 -44.0 -9.7 -44.1 -9.8 -44.15 -9.9 -44.15 -10.0 -44.25 -10.1 -44.25 -10.15 -44.4 -10.15 -44.5 -10.15 -44.6 -10.1 -45.95 -10.1 -46.15 -10.15 -46.4 -10.25 -46.5 -10.35 -46.55 -10.4 -46.6 -10.45 -46.8 -10.5 -46.9 -10.6 -47.1 -10.7 -47.15 -10.8 -47.45 -10.85 -47.65 -10.9 -47.75 -11.0 -47.75 -11.1 -47.75 -11.2 -47.75 -11.3 -47.65 -11.4 -47.6 -11.45 -47.45 -11.45 -46.95 -11.45 -46.8 -11.4 -46.7 -11.3 -46.65 -11.25 -46.6 -11.2 -46.45 -11.15 -46.35 -11.05 -46.25 -11.0 -46.2 -10.95 -46.05 -10.9 -45.9 -10.8 -45.75 -10.75 -44.65 -10.75 -44.6 -10.8 -44.45 -10.8 -44.1 -10.8 -43.9 -10.75 -43.8 -10.65 -43.7 -10.55 -43.65 -10.45 -43.6 -10.4 -43.55 -10.3 -43.45 -10.2 -43.3 -10.15 -43.2 -10.05 -43.15 -10.0 -43.1 -9.95 -42.95 -9.9 -42.85 -9.8 -42.65 -9.75 -42.2 -9.7 -42.05 -9.65 -41.95 -9.55 M-29.75 -0.4 L-29.75 -0.5 -29.7 -0.6 -29.65 -0.65 -29.6 -0.7 -29.45 -0.7 -29.3 -0.65 -29.2 -0.55 -29.15 -0.5 -29.1 -0.45 -28.95 -0.4 -28.85 -0.35 -28.6 -0.3 -28.45 -0.25 -28.3 -0.15 -28.2 -0.1 -28.1 -0.05 -27.9 0.0 -27.7 0.1 -27.6 0.2 -27.4 0.25 -27.35 0.3 -27.2 0.35 -27.1 0.45 -27.0 0.55 -26.9 0.6 -26.85 0.7 -26.8 0.8 -26.8 0.9 -26.8 1.0 -26.8 1.1 -26.8 1.15 -26.2 1.2 -26.1 1.2 -26.0 1.25 -25.85 1.3 -25.7 1.35 -25.6 1.4 -25.45 1.45 -25.3 1.5 -25.15 1.6 -25.1 1.7 -25.05 1.8 -25.05 1.85 -25.05 1.95 -24.95 2.05 -24.9 2.15 -24.9 2.25 -24.9 2.35 -24.9 2.45 -24.9 2.55 -24.9 2.6 -24.9 2.7 -24.9 2.8 -24.9 2.85 -24.85 2.95 -24.7 3.05 -24.55 3.1 -24.45 3.2 -24.4 3.3 -24.4 3.35 -24.35 3.3 -24.25 3.2 -24.1 3.2 -23.9 3.1 -23.85 3.05 -23.7 3.05 -21.45 3.05 -21.3 3.1 -21.2 3.2 -21.15 3.25 -20.3 3.25 -20.25 3.2 -20.1 3.2 -19.85 3.1 -19.75 3.05 -19.55 3.0 -19.45 2.9 -19.4 2.85 -19.35 2.8 -19.2 2.8 -18.6 2.8 -18.45 2.85 -18.35 2.95 -18.25 3.05 -18.15 3.1 -18.1 3.2 -17.8 3.25 -17.75 3.2 -17.6 3.2 -17.2 3.2 -17.05 3.25 -16.95 3.35 -16.9 3.45 -16.9 3.55 -16.9 3.6 -17.0 3.7 -17.1 3.8 -17.2 3.8 -17.4 3.85 -17.5 3.85 -17.6 3.9 -18.35 3.9 -18.55 3.85 -18.65 3.75 -18.65 3.65 -18.7 3.55 -18.85 3.45 -19.0 3.45 -19.15 3.55 -19.25 3.6 -19.45 3.7 -19.5 3.75 -19.6 3.8 -19.7 3.8 -20.0 3.85 -20.1 3.85 -20.2 3.9 -21.35 3.9 -21.55 3.85 -21.65 3.75 -21.7 3.7 -23.5 3.7 -23.6 3.8 -23.7 3.8 -23.9 3.85 -24.0 3.95 -24.1 4.05 -24.2 4.05 -25.35 4.05 -25.55 4.0 -25.65 3.9 -25.65 3.85 -26.4 3.85 -26.5 3.95 -26.65 4.05 -26.65 4.15 -26.7 4.25 -26.8 4.35 -26.9 4.45 -26.95 4.55 -27.1 4.6 -27.15 4.7 -27.25 4.8 -27.35 4.9 -27.45 5.0 -27.65 5.1 -27.7 5.2 -27.75 5.25 -27.85 5.3 -27.95 5.3 -28.75 5.35 -28.9 5.45 -29.0 5.55 -29.15 5.6 -29.2 5.7 -29.35 5.8 -29.5 5.85 -29.65 5.95 -29.75 6.05 -29.9 6.15 -30.05 6.25 -30.25 6.35 -30.35 6.45 -30.4 6.5 -30.5 6.55 -30.65 6.6 -30.7 6.7 -30.75 6.75 -30.85 6.8 -31.0 6.85 -31.1 6.95 -31.2 7.05 -31.25 7.1 -31.35 7.1 -31.45 7.15 -32.0 7.2 -32.1 7.3 -32.2 7.3 -32.9 7.35 -33.0 7.45 -33.1 7.55 -33.2 7.55 -33.4 7.6 -33.5 7.7 -33.65 7.8 -33.7 7.9 -33.8 8.0 -33.9 8.1 -33.95 8.2 -34.1 8.3 -34.15 8.35 -34.25 8.45 -34.35 8.55 -34.45 8.55 -35.0 8.6 -35.1 8.6 -35.2 8.65 -35.4 8.7 -35.5 8.8 -35.65 8.85 -35.95 8.95 -36.0 9.0 -36.1 9.05 -36.2 9.05 -36.4 9.1 -36.5 9.2 -36.65 9.3 -36.85 9.4 -36.9 9.5 -37.05 9.6 -37.2 9.7 -37.35 9.8 -37.4 9.85 -37.5 9.95 -37.55 10.05 -37.55 10.15 -37.55 10.25 -37.6 10.35 -37.6 10.45 -37.65 10.55 -37.65 10.6 -37.65 10.7 -37.7 10.75 -38.4 10.75 -38.4 10.65 -38.4 10.55 -38.4 10.45 -38.35 10.35 -38.25 10.3 -38.25 10.2 -38.15 10.1 -38.15 10.0 -38.15 9.9 -38.15 9.8 -38.15 9.7 -38.1 9.6 -38.0 9.55 -38.0 9.45 -37.9 9.35 -37.8 9.25 -37.6 9.15 -37.5 9.05 -37.4 8.95 -37.35 8.85 -37.25 8.8 -37.05 8.75 -36.85 8.65 -36.75 8.55 -36.6 8.45 -36.4 8.35 -36.35 8.3 -36.2 8.3 -36.05 8.25 -36.0 8.2 -35.85 8.2 -35.65 8.1 -35.6 8.05 -35.4 8.0 -35.2 7.95 -34.65 7.85 -34.6 7.8 -34.5 7.7 -34.4 7.6 -34.3 7.5 -34.2 7.4 -34.1 7.3 -34.0 7.2 -33.9 7.1 -33.85 7.05 -33.75 6.95 -33.6 6.95 -33.4 6.85 -33.35 6.8 -33.15 6.75 -32.95 6.7 -32.35 6.6 -32.25 6.55 -32.1 6.55 -31.65 6.45 -31.6 6.35 -31.45 6.3 -31.25 6.2 -31.15 6.1 -31.05 6.0 -30.85 5.9 -30.75 5.8 -30.6 5.7 -30.4 5.6 -30.35 5.55 -30.15 5.5 -30.1 5.4 -30.05 5.35 -30.0 5.3 -29.8 5.25 -29.7 5.15 -29.6 5.05 -29.5 4.95 -29.35 4.85 -29.25 4.8 -29.05 4.75 -28.85 4.7 -28.15 4.6 -28.1 4.55 -27.9 4.45 -27.8 4.35 -27.65 4.25 -27.6 4.15 -27.5 4.05 -27.4 3.95 -27.35 3.85 -27.25 3.8 -27.25 3.7 -27.15 3.6 -27.05 3.5 -27.0 3.45 -27.0 3.35 -26.95 3.3 -26.9 3.2 -26.8 3.1 -26.55 3.0 -26.35 2.9 -26.3 2.8 -26.25 2.7 -26.15 2.6 -26.1 2.55 -26.0 2.45 -26.0 2.35 -26.0 2.25 -26.0 2.15 -25.95 2.05 -26.05 2.0 -26.1 1.95 -26.2 1.9 -26.35 1.85 -26.4 1.85 -27.1 1.8 -27.3 1.75 -27.4 1.65 -27.4 1.55 -27.4 1.45 -27.4 1.35 -27.4 1.3 -27.4 1.2 -27.4 1.1 -27.55 1.0 -27.65 0.9 -27.8 0.85 -27.85 0.8 -28.05 0.75 -28.15 0.65 -28.3 0.6 -28.45 0.55 -28.65 0.5 -28.75 0.4 -28.8 0.35 -29.1 0.3 -29.3 0.25 -29.4 0.15 -29.6 0.05 -29.65 -0.05 -29.75 -0.15 -29.75 -0.2 -29.75 -0.3 -29.75 -0.4 M-53.4 9.55 L-53.4 9.65 -53.4 9.75 -53.4 9.85 -53.4 9.95 -53.4 10.0 -52.1 10.05 -51.95 10.1 -51.85 10.2 -51.8 10.3 -51.8 10.35 -51.85 10.45 -51.9 10.55 -52.0 10.6 -52.1 10.65 -53.45 10.65 -53.45 10.55 -53.45 10.45 -53.45 10.35 -53.45 10.25 -53.45 10.15 -53.45 10.05 -53.45 9.95 -53.45 9.85 -53.45 9.8 -53.45 9.7 -53.45 9.6 -53.45 9.5 -53.45 9.4 -53.4 9.45 -53.4 9.55" fill="#666666" fill-rule="evenodd" stroke="none"/>
    <path d="M12.1 -12.45 L12.25 -12.5 12.45 -12.55 13.0 -12.55 13.1 -12.6 13.3 -12.65 16.0 -12.7 16.15 -12.75 16.35 -12.8 17.85 -12.8 17.95 -12.85 18.15 -12.85 18.15 -12.9 23.65 -12.9 23.85 -12.85 23.95 -12.8 25.85 -12.8 26.1 -12.7 26.2 -12.65 28.85 -12.65 29.05 -12.6 29.1 -12.55 31.45 -12.55 31.65 -12.45 31.75 -12.4 32.9 -12.4 33.1 -12.35 33.2 -12.3 34.7 -12.3 34.95 -12.2 35.05 -12.15 36.55 -12.15 36.75 -12.1 36.85 -12.05 38.85 -12.05 39.05 -11.95 39.15 -11.9 44.65 -11.9 44.85 -11.85 44.9 -11.8 50.45 -11.8 50.55 -11.85 50.75 -11.9 51.65 -11.9 52.95 -11.9 53.0 -11.8 53.05 -11.7 53.1 -11.65 53.15 -11.55 53.25 -11.45 53.3 -11.35 53.45 -11.25 53.5 -11.15 53.55 -11.05 53.65 -10.95 53.75 -10.9 53.85 -10.8 53.9 -10.7 53.9 -10.6 53.95 -10.5 54.0 -10.4 54.0 -10.3 54.05 -10.2 54.15 -10.15 54.15 -10.1 54.15 -10.0 54.15 -9.9 54.15 -9.8 54.15 -9.7 54.15 -9.55 54.15 -9.45 54.15 -9.35 54.15 -9.25 54.15 -9.15 54.15 -9.05 54.15 -8.95 54.15 -8.8 54.15 -8.7 54.15 -8.6 54.15 -8.5 54.15 -8.4 54.15 -8.3 54.15 -8.2 54.15 -8.15 54.15 -8.05 54.15 -7.95 54.15 -7.85 54.15 -7.75 54.15 -7.65 54.15 -7.55 54.15 -7.45 54.15 -7.4 54.15 -7.3 54.15 -7.2 54.15 -7.1 54.15 -7.0 54.15 -6.9 54.15 -6.8 54.15 -6.7 54.15 -6.65 54.15 -6.55 54.15 -6.45 54.15 -6.35 54.2 -6.25 54.25 -6.15 54.25 -6.05 54.3 -5.95 54.3 -5.9 54.3 -5.8 54.3 -5.7 54.3 -5.6 54.3 -5.5 54.3 -5.4 54.3 -5.3 54.35 -5.2 54.4 -5.15 54.4 -5.05 54.4 -4.95 54.3 -4.9 54.3 -4.8 54.25 -4.7 54.25 -4.6 54.25 -4.5 54.25 -4.4 54.25 -4.3 54.25 -4.2 54.25 -4.15 54.25 -4.05 54.25 -3.95 54.25 -3.85 54.25 -3.75 54.25 -3.65 54.25 -3.55 54.25 -3.45 54.25 -3.4 54.25 -3.3 54.25 -3.2 54.25 -3.1 54.25 -3.0 54.25 -2.9 54.25 -2.8 54.25 -2.7 54.25 -2.65 54.25 -2.55 54.25 -2.45 54.25 -2.35 54.25 -2.25 54.25 -2.15 54.25 -2.05 54.25 -1.95 54.25 -1.9 54.25 -1.8 54.25 -1.7 54.25 -1.6 54.25 -1.5 54.25 -1.4 54.25 -1.3 54.25 -1.2 54.25 -1.15 54.25 -1.05 54.25 -0.95 54.25 -0.85 54.25 -0.75 54.25 -0.65 54.25 -0.55 54.25 -0.45 54.25 -0.4 54.25 -0.3 54.25 -0.2 54.25 -0.1 54.25 0.0 54.25 0.1 54.25 0.2 54.25 0.3 54.25 0.35 54.25 0.45 54.25 0.55 54.3 0.65 54.35 0.75 54.4 0.85 54.4 0.95 54.4 1.05 54.4 1.1 54.4 1.2 54.4 1.3 54.4 1.4 54.4 1.5 54.4 1.6 54.4 1.7 54.45 1.8 54.5 1.85 54.5 1.95 54.5 2.05 54.5 2.15 54.5 2.25 54.5 2.35 54.55 2.45 54.55 2.55 54.55 2.65 54.55 2.75 54.55 2.85 54.55 2.95 54.55 3.05 54.55 3.1 54.55 3.2 54.55 3.3 54.55 3.4 54.55 3.5 54.55 3.6 54.55 3.7 54.55 3.8 54.55 3.85 54.55 3.95 54.55 4.05 54.55 4.15 54.55 4.25 54.55 4.35 54.55 4.45 54.55 4.55 54.55 4.6 54.55 4.7 54.55 4.8 54.55 4.9 54.55 5.0 54.55 5.1 54.55 5.2 54.55 5.3 54.55 5.35 54.55 5.45 54.55 5.55 54.55 5.65 54.55 5.75 54.55 5.85 54.55 5.95 54.55 6.05 54.55 6.1 54.55 6.2 54.55 6.3 54.55 6.4 54.55 6.5 54.55 6.6 54.55 6.7 54.55 6.8 54.55 6.85 54.55 6.95 54.55 7.05 54.55 7.15 54.55 7.25 54.55 7.35 54.6 7.45 54.65 7.55 54.65 7.6 54.65 7.7 54.65 7.8 54.65 7.9 54.65 8.0 54.65 8.1 54.65 8.2 54.65 8.3 54.65 8.35 54.65 8.45 54.65 8.55 54.65 8.65 54.65 8.75 54.65 8.85 54.65 8.95 54.65 9.05 54.65 9.1 54.65 9.2 54.65 9.3 54.65 9.4 54.65 9.5 54.65 9.6 54.65 9.7 54.65 9.8 54.65 9.85 54.65 9.95 54.65 10.05 54.65 10.15 54.65 10.25 54.65 10.35 54.65 10.45 54.55 10.55 54.5 10.65 54.45 10.75 54.4 10.85 54.3 10.95 54.25 11.05 54.25 11.1 54.15 11.2 54.05 11.3 54.0 11.4 53.9 11.5 53.9 11.6 53.8 11.7 53.75 11.8 53.7 11.75 53.15 11.8 53.05 11.85 52.85 11.9 52.6 11.95 52.25 12.05 52.1 12.1 51.95 12.1 51.25 12.15 51.15 12.2 51.0 12.2 49.75 12.3 49.65 12.35 49.45 12.35 48.8 12.4 48.75 12.45 48.55 12.45 33.2 12.55 33.1 12.6 32.9 12.6 30.75 12.65 30.65 12.7 30.45 12.7 16.45 12.7 16.25 12.7 16.15 12.65 14.65 12.6 14.35 12.55 14.25 12.5 12.45 12.45 12.25 12.45 12.15 12.4 9.1 12.4 9.0 12.45 8.8 12.45 5.75 12.45 5.55 12.45 5.45 12.4 3.7 12.35 3.4 12.3 3.3 12.25 2.35 12.2 2.15 12.2 2.05 12.15 -3.75 12.1 -4.05 12.05 -4.15 12.0 -17.85 11.95 -19.1 11.95 -22.35 11.95 -22.55 11.95 -22.65 11.9 -36.6 11.85 -36.9 11.8 -37.0 11.75 -52.7 11.8 -52.8 11.85 -52.9 11.85 -52.95 11.8 -53.05 11.7 -53.1 11.6 -53.15 11.5 -53.25 11.4 -53.3 11.35 -53.5 11.35 -53.65 11.35 -53.85 11.35 -54.0 11.3 -54.1 11.2 -54.2 11.1 -54.3 11.0 -54.35 10.9 -54.35 10.8 -54.4 10.7 -54.4 10.6 -54.4 10.55 -54.4 10.45 -54.4 10.35 -54.4 10.25 -54.4 10.15 -54.4 10.05 -54.4 9.95 -54.4 9.85 -54.4 9.8 -54.4 9.7 -54.4 9.6 -54.4 9.5 -54.35 9.4 -54.35 9.3 -54.35 9.2 -54.35 9.1 -54.35 9.05 -54.35 8.95 -54.35 8.85 -54.35 8.75 -54.35 8.65 -54.35 8.55 -54.35 8.45 -54.35 8.35 -54.35 8.3 -54.35 8.2 -54.35 8.1 -54.35 8.0 -54.35 7.9 -54.35 7.8 -54.35 7.7 -54.35 7.6 -54.35 7.55 -54.35 7.45 -54.35 7.35 -54.35 7.25 -54.35 7.15 -54.35 7.05 -54.35 6.95 -54.35 6.85 -54.35 6.8 -54.35 6.7 -54.35 6.6 -54.35 6.5 -54.35 6.4 -54.4 6.3 -54.4 6.2 -54.4 6.1 -54.45 6.05 -54.45 5.95 -54.45 5.85 -54.45 5.75 -54.45 5.65 -54.45 5.55 -54.45 5.45 -54.45 5.35 -54.45 5.3 -54.45 5.2 -54.45 5.1 -54.45 5.0 -54.45 4.9 -54.45 4.8 -54.45 4.7 -54.45 4.6 -54.45 4.55 -54.45 4.45 -54.45 4.35 -54.45 4.25 -54.45 4.15 -54.45 4.05 -54.45 3.95 -54.45 3.85 -54.45 3.8 -54.45 3.7 -54.45 3.6 -54.45 3.5 -54.45 3.4 -54.45 3.3 -54.45 3.2 -54.4 3.1 -54.4 3.05 -54.4 2.95 -54.35 2.85 -54.35 2.75 -54.35 2.65 -54.35 2.55 -54.35 2.45 -54.35 2.35 -54.35 2.3 -54.35 2.2 -54.35 2.1 -54.3 2.0 -54.25 1.9 -54.25 1.8 -54.2 1.7 -54.2 1.6 -54.2 1.55 -54.2 1.45 -54.2 1.35 -54.2 1.25 -54.2 1.15 -54.2 1.1 -54.25 1.0 -54.25 0.9 -54.25 0.8 -54.25 0.7 -54.25 0.6 -54.25 0.55 -54.25 0.45 -54.25 0.35 -54.25 0.25 -54.3 0.15 -54.35 0.05 -54.35 -0.05 -54.4 -0.15 -54.4 -0.2 -54.4 -0.3 -54.4 -0.4 -54.4 -0.5 -54.4 -0.6 -54.4 -0.7 -54.4 -0.8 -54.4 -0.9 -54.4 -0.95 -54.4 -1.05 -54.4 -1.15 -54.4 -1.25 -54.4 -1.35 -54.4 -1.45 -54.45 -1.55 -54.5 -1.65 -54.5 -1.7 -54.5 -1.8 -54.5 -1.9 -54.5 -2.0 -54.5 -2.1 -54.5 -2.2 -54.5 -2.3 -54.5 -2.4 -54.5 -2.45 -54.5 -2.55 -54.5 -2.65 -54.5 -2.75 -54.5 -2.85 -54.5 -2.95 -54.5 -3.05 -54.5 -3.15 -54.5 -3.2 -54.6 -3.3 -54.6 -3.4 -54.65 -3.5 -54.65 -3.6 -54.65 -3.7 -54.65 -3.8 -54.65 -3.9 -54.65 -3.95 -54.65 -4.05 -54.65 -4.15 -54.65 -4.25 -54.65 -4.35 -54.65 -4.45 -54.65 -4.55 -54.65 -4.65 -54.65 -4.7 -54.65 -4.8 -54.65 -4.9 -54.65 -5.0 -54.65 -5.1 -54.65 -5.2 -54.65 -5.3 -54.65 -5.4 -54.65 -5.45 -54.65 -5.55 -54.65 -5.65 -54.65 -5.75 -54.65 -5.85 -54.65 -5.95 -54.65 -6.05 -54.65 -6.15 -54.65 -6.2 -54.65 -6.3 -54.65 -6.4 -54.65 -6.5 -54.65 -6.6 -54.65 -6.7 -54.65 -6.8 -54.65 -6.9 -54.65 -6.95 -54.65 -7.05 -54.65 -7.15 -54.65 -7.25 -54.65 -7.35 -54.65 -7.45 -54.65 -7.55 -54.65 -7.65 -54.65 -7.7 -54.65 -7.8 -54.65 -7.9 -54.65 -8.0 -54.65 -8.1 -54.65 -8.2 -54.65 -8.3 -54.65 -8.4 -54.65 -8.45 -54.65 -8.55 -54.65 -8.65 -54.65 -8.75 -54.65 -8.85 -54.65 -8.95 -54.65 -9.05 -54.65 -9.15 -54.65 -9.2 -54.65 -9.3 -54.65 -9.4 -54.65 -9.5 -54.65 -9.6 -54.65 -9.7 -54.65 -9.8 -54.65 -9.9 -54.65 -9.95 -54.65 -10.05 -54.65 -10.15 -54.65 -10.25 -54.65 -10.35 -54.65 -10.45 -54.65 -10.55 -54.65 -10.65 -54.65 -10.7 -54.65 -10.8 -54.65 -10.9 -54.65 -11.0 -54.65 -11.1 -54.65 -11.2 -54.65 -11.3 -54.65 -11.4 -54.65 -11.45 -54.65 -11.55 -54.65 -11.65 -54.65 -11.75 -54.65 -11.85 -54.65 -11.95 -54.65 -12.05 -54.65 -12.15 -54.65 -12.2 -54.65 -12.3 -54.65 -12.4 -54.6 -12.5 -54.6 -12.6 -54.5 -12.7 -54.4 -12.8 -54.35 -12.9 -54.25 -12.95 -54.15 -12.95 -54.05 -13.0 -53.9 -13.05 -53.65 -13.1 -53.45 -13.15 -53.25 -13.15 -53.25 -13.2 -52.05 -13.2 -51.85 -13.15 -51.7 -13.1 -51.55 -13.0 -51.45 -12.9 -51.4 -12.85 -40.6 -12.85 -40.4 -12.8 -40.25 -12.8 -34.65 -12.75 -34.45 -12.7 -34.25 -12.65 -32.05 -12.6 -31.9 -12.55 -31.75 -12.55 -25.75 -12.5 -25.55 -12.45 -25.35 -12.4 -21.5 -12.35 -21.3 -12.3 -21.15 -12.3 -9.85 -12.25 -9.65 -12.2 -9.5 -12.15 -8.95 -12.2 -8.8 -12.25 -8.6 -12.3 -3.1 -12.3 -2.95 -12.2 -2.8 -12.25 9.45 -12.3 9.6 -12.3 9.8 -12.35 11.2 -12.35 11.25 -12.4 12.1 -12.45 M9.8 -10.05 L-2.8 -10.05 -2.95 -10.1 -3.1 -10.15 -3.25 -10.05 -3.4 -9.95 -3.55 -9.95 -3.75 -9.9 -9.7 -9.9 -9.9 -9.95 -10.15 -10.0 -21.25 -10.05 -21.45 -10.1 -21.6 -10.15 -25.5 -10.15 -25.7 -10.2 -25.95 -10.25 -32.05 -10.3 -32.25 -10.35 -32.4 -10.4 -34.5 -10.4 -34.7 -10.45 -34.95 -10.5 -40.35 -10.55 -40.55 -10.6 -40.7 -10.65 -51.15 -10.65 -51.2 -10.6 -51.2 -10.5 -51.2 -10.4 -51.25 -10.3 -51.25 -10.2 -51.3 -10.15 -51.35 -10.05 -51.35 -9.95 -51.45 -9.85 -51.5 -9.75 -51.6 -9.65 -51.65 -9.55 -51.7 -9.45 -51.75 -9.4 -51.8 -9.3 -51.85 -9.2 -51.85 -9.1 -51.95 -9.0 -52.0 -8.9 -52.05 -8.8 -52.1 -8.7 -52.1 -8.65 -52.15 -8.55 -52.2 -8.45 -52.2 -8.35 -52.3 -8.25 -52.35 -8.15 -52.4 -8.05 -52.4 -7.9 -52.4 -7.8 -52.4 -7.7 -52.4 -7.35 -52.4 -7.25 -52.4 -7.15 -52.4 -7.05 -52.4 -6.95 -52.4 -6.9 -52.4 -6.8 -52.4 -6.7 -52.4 -6.6 -52.4 -6.5 -52.4 -6.4 -52.4 -6.3 -52.4 -6.2 -52.4 -6.15 -52.4 -6.05 -52.4 -5.95 -52.4 -5.85 -52.4 -5.75 -52.4 -5.65 -52.4 -5.55 -52.4 -5.45 -52.4 -5.4 -52.4 -5.3 -52.4 -5.2 -52.4 -5.1 -52.4 -5.0 -52.4 -4.9 -52.4 -4.8 -52.4 -4.7 -52.4 -4.65 -52.4 -4.55 -52.4 -4.45 -52.4 -4.35 -52.4 -4.25 -52.4 -4.15 -52.4 -4.05 -52.4 -3.95 -52.4 -3.9 -52.4 -3.8 -52.4 -3.7 -52.4 -3.6 -52.4 -3.5 -52.4 -3.4 -52.4 -3.3 -52.4 -3.2 -52.4 -3.15 -52.4 -3.05 -52.4 -2.95 -52.4 -2.85 -52.4 -2.75 -52.4 -2.65 -52.4 -2.55 -52.4 -2.45 -52.4 -2.4 -52.4 -2.3 -52.4 -2.2 -52.4 -2.1 -52.4 -2.0 -52.4 -1.9 -52.4 -1.8 -52.4 -1.7 -52.4 -1.65 -52.4 -1.55 -52.4 -1.45 -52.4 -1.35 -52.4 -1.25 -52.4 -1.15 -52.4 -1.05 -52.4 -0.95 -52.4 -0.9 -52.4 -0.8 -52.4 -0.7 -52.4 -0.6 -52.4 -0.5 -52.4 -0.4 -52.4 -0.3 -52.4 -0.2 -52.4 -0.15 -52.4 -0.05 -52.4 0.05 -52.4 0.15 -52.4 0.25 -52.4 0.35 -52.4 0.45 -52.4 0.55 -52.4 0.6 -52.4 0.7 -52.4 0.8 -52.4 0.9 -52.4 1.0 -52.4 1.1 -52.4 1.2 -52.4 1.3 -52.4 1.35 -52.4 1.45 -52.4 1.55 -52.4 1.65 -52.4 1.75 -52.4 1.85 -52.4 1.95 -52.4 2.05 -52.4 2.1 -52.4 2.2 -52.4 2.3 -52.4 2.4 -52.4 2.5 -52.4 2.6 -52.4 2.7 -52.4 2.8 -52.4 2.85 -52.4 2.95 -52.4 3.05 -52.4 3.15 -52.4 3.25 -52.4 3.35 -52.4 3.45 -52.4 3.55 -52.45 3.6 -52.45 3.7 -52.45 3.8 -52.45 3.9 -52.45 4.0 -52.45 4.1 -52.45 4.2 -52.45 4.3 -52.45 4.35 -52.45 4.45 -52.45 4.55 -52.45 4.65 -52.45 4.75 -52.45 4.85 -52.45 4.95 -52.45 5.05 -52.45 5.1 -52.45 5.2 -52.45 5.3 -52.45 5.4 -52.45 5.5 -52.45 5.6 -52.45 5.7 -52.45 5.8 -52.45 5.85 -52.45 5.95 -52.45 6.05 -52.45 6.15 -52.45 6.25 -52.45 6.35 -52.45 6.45 -52.45 6.55 -52.45 6.6 -52.45 6.7 -52.45 6.8 -52.45 6.9 -52.45 7.0 -52.45 7.1 -52.45 7.2 -52.45 7.3 -52.45 7.35 -52.45 7.45 -52.45 7.55 -52.45 7.65 -52.45 7.75 -52.45 7.85 -52.45 7.95 -52.45 8.05 -52.4 8.15 -52.4 8.25 -52.4 8.35 -52.35 8.4 -52.3 8.4 -52.15 8.5 -52.1 8.55 -52.1 8.6 -51.95 8.65 -51.8 8.75 -51.7 8.85 -51.65 8.95 -51.5 9.05 -51.45 9.1 -51.4 9.2 -51.35 9.3 -51.3 9.35 -48.45 9.35 -48.25 9.3 -48.05 9.25 -37.05 9.2 -36.9 9.2 -36.7 9.15 -35.6 9.1 -35.35 9.05 -35.15 9.0 -34.0 8.95 -33.9 8.95 -33.7 8.9 -8.7 8.9 -8.5 8.95 -8.4 8.95 -5.8 9.0 -5.6 9.05 -5.4 9.1 -1.9 9.15 -1.7 9.2 -1.55 9.2 0.75 9.25 0.95 9.3 1.15 9.35 2.0 9.4 2.2 9.45 2.35 9.45 3.95 9.5 4.15 9.55 4.35 9.6 5.15 9.65 5.35 9.7 5.5 9.7 7.2 9.75 7.4 9.8 7.6 9.85 8.65 9.9 8.85 9.95 9.0 9.95 10.6 10.0 10.8 10.05 11.0 10.1 16.5 10.1 16.75 10.05 16.95 10.0 18.9 9.95 19.05 9.95 19.25 9.9 22.95 9.85 23.2 9.8 23.4 9.75 31.6 9.7 31.7 9.7 31.9 9.65 36.6 9.6 36.85 9.55 37.05 9.5 38.0 9.45 38.15 9.45 38.35 9.4 38.8 9.35 39.0 9.3 39.2 9.25 44.8 9.2 44.95 9.2 45.15 9.15 49.85 9.15 49.9 9.2 50.05 9.2 50.25 9.25 50.8 9.25 50.9 9.3 51.05 9.3 51.25 9.35 51.4 9.3 51.6 9.3 51.7 9.2 51.8 9.15 52.0 9.15 52.0 9.05 52.1 8.95 52.2 8.85 52.25 8.75 52.3 8.65 52.35 8.55 52.35 8.45 52.4 8.35 52.4 8.3 52.45 8.2 52.45 8.1 52.45 8.0 52.5 7.9 52.55 7.8 52.6 7.7 52.6 7.6 52.65 7.55 52.65 7.45 52.7 7.35 52.7 7.25 52.7 7.15 52.7 7.05 52.7 6.95 52.7 6.85 52.7 6.8 52.7 6.7 52.7 6.6 52.7 6.5 52.7 6.4 52.7 6.3 52.7 6.2 52.7 6.1 52.7 6.05 52.7 5.95 52.7 5.85 52.7 5.75 52.7 5.65 52.7 5.55 52.7 5.45 52.7 5.35 52.7 5.3 52.7 5.2 52.65 5.1 52.6 5.0 52.6 4.9 52.6 4.8 52.6 4.7 52.6 4.6 52.6 4.55 52.6 4.45 52.6 4.35 52.6 4.25 52.6 4.15 52.6 4.05 52.6 3.95 52.6 3.85 52.6 3.8 52.6 3.7 52.6 3.6 52.55 3.5 52.55 3.4 52.5 3.3 52.45 3.2 52.45 3.1 52.45 3.05 52.45 2.95 52.45 2.85 52.45 2.75 52.45 2.65 52.4 2.55 52.4 2.45 52.35 2.35 52.35 2.3 52.35 2.2 52.35 2.1 52.35 2.0 52.35 1.9 52.35 1.8 52.35 1.7 52.35 1.6 52.3 1.55 52.3 1.45 52.25 1.35 52.2 1.25 52.2 1.15 52.2 1.05 52.2 0.95 52.2 0.85 52.2 0.8 52.2 0.7 52.2 0.6 52.2 0.5 52.2 0.4 52.2 0.3 52.2 0.2 52.2 0.1 52.2 0.05 52.2 -0.05 52.2 -0.15 52.2 -0.25 52.2 -0.35 52.2 -0.45 52.2 -0.55 52.2 -0.65 52.2 -0.7 52.2 -0.8 52.2 -0.9 52.2 -1.0 52.2 -1.1 52.2 -1.2 52.2 -1.3 52.2 -1.4 52.2 -1.45 52.2 -1.55 52.2 -1.65 52.2 -1.75 52.2 -1.85 52.2 -1.95 52.2 -2.05 52.2 -2.15 52.2 -2.2 52.2 -2.3 52.2 -2.4 52.2 -2.5 52.2 -2.6 52.2 -2.7 52.2 -2.8 52.2 -2.9 52.2 -2.95 52.2 -3.05 52.2 -3.15 52.2 -3.25 52.2 -3.35 52.2 -3.45 52.2 -3.55 52.2 -3.65 52.2 -3.7 52.2 -3.8 52.2 -3.9 52.2 -4.0 52.2 -4.1 52.2 -4.2 52.2 -4.3 52.2 -4.4 52.2 -4.45 52.2 -4.55 52.2 -4.65 52.2 -4.75 52.2 -4.85 52.2 -4.95 52.25 -5.05 52.3 -5.15 52.3 -5.2 52.3 -5.3 52.35 -5.4 52.35 -5.5 52.35 -5.6 52.35 -5.7 52.35 -5.8 52.35 -5.9 52.35 -5.95 52.35 -6.05 52.35 -6.15 52.35 -6.25 52.35 -6.35 52.35 -6.45 52.35 -6.55 52.35 -6.65 52.35 -6.7 52.35 -6.8 52.35 -6.9 52.35 -7.0 52.35 -7.1 52.35 -7.2 52.35 -7.3 52.35 -7.4 52.35 -7.45 52.35 -7.55 52.35 -7.65 52.35 -7.75 52.35 -7.85 52.35 -7.95 52.35 -8.05 52.35 -8.15 52.4 -8.2 52.4 -8.3 52.45 -8.4 52.45 -8.5 52.45 -8.6 52.4 -8.7 52.4 -8.8 52.35 -8.9 52.35 -8.95 52.3 -9.05 52.25 -9.15 52.2 -9.25 52.1 -9.35 52.0 -9.45 51.85 -9.55 51.7 -9.65 51.6 -9.7 51.4 -9.7 51.25 -9.75 51.15 -9.75 51.15 -9.7 50.95 -9.7 50.8 -9.7 50.65 -9.65 50.6 -9.65 50.4 -9.65 50.2 -9.65 50.05 -9.6 49.9 -9.55 48.1 -9.5 47.95 -9.45 47.75 -9.4 41.75 -9.4 41.55 -9.45 41.3 -9.5 37.25 -9.55 37.1 -9.6 36.95 -9.65 35.2 -9.65 35.0 -9.7 34.75 -9.75 33.6 -9.8 33.45 -9.85 33.3 -9.9 32.0 -9.9 31.8 -9.95 31.6 -10.0 28.1 -10.05 27.95 -10.1 27.8 -10.15 26.55 -10.15 26.35 -10.2 26.15 -10.25 24.7 -10.3 24.5 -10.35 24.4 -10.4 17.05 -10.4 16.9 -10.35 16.7 -10.3 15.6 -10.25 15.4 -10.2 15.25 -10.15 10.1 -10.15 9.95 -10.1 9.8 -10.05" fill="#000000" fill-rule="evenodd" stroke="none"/>
  </g>
</svg>
