<?xml version="1.0" encoding="UTF-8" standalone="no"?>
<svg xmlns:ffdec="https://www.free-decompiler.com/flash" xmlns:xlink="http://www.w3.org/1999/xlink" ffdec:objectType="shape" height="71.5px" width="41.05px" xmlns="http://www.w3.org/2000/svg">
  <g transform="matrix(1.0, 0.0, 0.0, 1.0, 51.3, -142.0)">
    <path d="M-47.5 189.9 L-47.6 189.8 -47.55 189.75 -47.5 189.85 -47.5 189.9 M-18.1 190.25 L-18.4 189.95 -18.55 189.75 -18.7 189.4 -18.8 188.8 -18.6 188.05 -18.5 187.9 -18.3 187.7 -18.25 187.7 -17.25 189.4 -17.25 189.55 -17.35 189.75 -17.4 189.85 -17.55 189.9 -17.85 190.0 -18.1 190.25 M-19.7 185.7 L-20.7 184.7 -21.1 184.5 -21.3 184.3 -21.5 184.1 -21.6 183.95 -21.7 183.75 -21.75 183.55 -21.5 183.5 -20.0 185.35 -19.7 185.7 M-35.6 183.65 L-39.6 184.0 -39.2 183.3 -35.6 183.65 M-30.5 195.8 L-30.15 196.05 -30.45 196.6 -30.55 196.55 -30.55 196.2 -30.55 196.1 -30.5 195.8" fill="#533f11" fill-rule="evenodd" stroke="none"/>
    <path d="M-23.85 180.5 L-21.5 180.0 -21.0 180.0 Q-20.1 180.1 -19.5 180.85 L-19.15 181.4 -21.0 180.0 -21.0 180.05 -21.75 180.25 -22.0 180.4 -22.1 180.5 -23.85 180.5 M-18.25 187.7 L-19.7 185.7 -20.0 185.35 -21.5 183.5 -21.75 183.55 -30.45 183.95 -28.5 184.0 -21.5 183.35 -19.85 184.95 Q-18.0 186.8 -17.25 189.2 L-17.25 189.4 -18.25 187.7" fill="#33270a" fill-opacity="0.49803922" fill-rule="evenodd" stroke="none"/>
    <path d="M-40.5 144.05 L-40.5 144.15 -40.7 144.65 Q-42.0 145.3 -43.05 146.55 L-47.1 151.55 -47.25 152.8 -47.3 152.8 -47.7 152.95 -47.7 153.35 -47.7 153.5 -47.1 154.05 -46.6 154.95 -46.4 155.6 -46.25 155.55 -46.25 155.5 Q-43.7 156.8 -41.8 159.05 -40.9 160.1 -41.45 161.2 L-41.35 161.3 -41.1 161.75 -40.85 161.85 -40.3 162.25 -39.6 163.25 Q-36.2 166.0 -34.25 169.95 L-33.8 170.85 -33.35 171.8 -33.25 171.8 -31.95 171.8 Q-30.5 171.75 -29.3 172.25 -27.65 171.4 -26.05 170.35 L-24.6 169.25 Q-23.65 167.65 -22.35 166.25 L-21.35 164.65 -21.35 164.55 Q-19.55 162.0 -17.4 159.7 L-16.25 158.35 -15.55 157.45 Q-15.0 155.85 -14.1 154.5 L-13.7 153.95 -13.8 153.75 -13.95 153.55 -13.95 153.45 -14.1 152.8 -14.75 151.85 -15.05 151.5 -15.15 151.3 -15.2 151.15 -15.25 150.95 -18.6 146.6 -18.85 146.3 -18.85 146.25 -18.8 146.05 -18.75 145.9 -18.75 145.7 -18.8 145.5 -18.85 145.3 -18.95 145.1 -19.1 144.75 -19.7 144.45 -20.25 144.25 -24.55 144.45 -31.35 144.25 -38.75 143.25 -38.75 143.3 -39.3 143.45 -39.85 143.75 -40.0 143.95 -40.25 143.9 -40.55 143.8 -40.5 144.05 M-41.5 142.0 L-19.4 142.0 Q-14.75 144.85 -11.9 149.85 -11.05 151.35 -10.75 152.9 L-10.6 153.0 Q-9.8 154.5 -10.8 155.95 L-12.35 157.7 Q-14.45 161.15 -17.0 164.45 L-21.9 170.55 -24.0 172.9 Q-25.65 174.1 -27.55 174.8 L-28.25 175.0 -28.65 174.9 Q-30.5 175.9 -32.85 175.35 L-33.05 175.3 -33.75 175.5 -34.95 175.2 -36.4 172.95 -37.3 171.05 -37.5 170.85 -37.6 170.7 -37.7 170.5 -37.85 170.1 -38.2 169.55 -38.2 169.4 -38.25 169.2 -44.9 162.3 -47.6 159.25 Q-48.5 158.85 -48.85 157.95 L-49.45 156.8 -49.5 156.45 -49.9 155.7 -50.05 155.5 -50.15 155.25 -50.2 155.2 Q-51.35 152.95 -50.4 150.5 -49.6 148.55 -47.95 147.3 -47.1 145.65 -45.4 144.85 L-44.7 144.55 -43.85 143.8 -43.5 143.2 -43.35 143.0 -42.8 142.7 -42.25 142.5 -41.5 142.7 -41.5 142.55 -41.5 142.4 -41.5 142.2 -41.5 142.0 M-40.9 151.1 L-40.55 150.9 -40.0 150.8 -40.0 150.75 -25.75 151.2 -21.65 151.65 -21.3 151.45 -20.75 151.25 Q-20.05 151.6 -19.4 152.0 L-41.5 152.0 -41.45 151.8 -41.1 151.25 -40.9 151.1 M-37.2 203.0 L-41.3 203.0 -42.3 200.8 -42.5 200.6 -42.55 200.5 -42.6 200.45 -42.7 200.25 -42.75 200.05 -42.8 199.9 Q-44.9 196.95 -47.25 194.15 -48.65 192.4 -50.55 191.25 L-50.75 190.7 -50.7 190.0 -50.75 188.85 -51.0 188.55 -51.3 187.8 Q-51.35 187.2 -51.0 186.7 L-50.7 186.3 -49.6 184.65 -49.05 183.9 -49.0 183.7 -48.95 183.5 -48.85 183.3 -47.1 181.15 Q-42.6 175.5 -34.8 176.55 L-34.25 176.5 Q-29.35 176.2 -24.85 177.5 L-21.2 178.2 Q-19.15 178.4 -17.45 179.45 L-17.3 179.65 -17.2 179.8 -17.1 180.0 -17.05 180.35 Q-15.8 181.75 -14.95 183.45 L-14.4 183.85 -13.2 185.1 -12.6 186.05 -12.5 186.25 -12.35 186.55 -11.95 186.7 -11.35 187.0 -11.25 187.2 -11.1 187.55 -11.0 188.15 -11.05 188.4 Q-10.75 188.75 -10.75 189.25 L-10.75 189.6 -10.8 189.8 -11.2 190.55 Q-11.7 190.95 -12.2 191.0 -12.6 192.35 -13.5 193.5 -14.4 194.65 -15.55 195.45 L-19.2 200.5 -19.55 200.95 -20.85 203.0 -24.3 203.0 -22.05 200.5 -20.35 198.5 -19.4 197.15 Q-18.55 196.25 -18.1 195.15 L-17.85 194.95 -17.6 194.75 -17.4 194.4 -17.2 194.0 -17.05 193.8 -15.85 192.5 -15.75 192.5 -14.9 192.15 -14.6 192.0 Q-14.2 190.9 -14.25 189.85 -14.3 188.8 -14.8 187.8 -16.2 184.0 -19.15 181.4 L-19.5 180.85 Q-20.1 180.1 -21.0 180.0 L-21.5 180.0 -23.85 180.5 -26.1 180.55 -28.4 180.7 -29.7 180.55 -40.0 179.25 -40.0 179.3 -40.55 179.4 -40.9 179.6 -41.1 179.75 -41.25 179.95 -41.35 180.15 -41.45 180.3 -41.5 180.5 -41.5 180.7 -42.35 181.55 Q-43.5 183.45 -45.25 184.8 -47.9 186.75 -47.6 189.7 L-47.55 189.75 -47.6 189.8 -47.5 189.9 -47.35 190.6 -46.95 191.2 -46.1 191.6 -45.45 191.95 -45.35 192.1 -45.1 192.7 -43.9 194.2 -42.5 196.45 -42.45 196.65 -42.4 196.8 -42.3 197.0 -41.65 197.75 -40.75 198.5 -39.4 200.5 -39.05 200.9 -38.85 201.1 -37.95 202.6 -37.55 202.6 -37.2 203.0 M-40.0 193.0 L-37.2 193.0 -35.55 195.0 -35.05 195.65 -35.0 195.8 -34.95 196.0 -34.85 196.2 -34.35 197.0 Q-33.2 199.25 -31.25 199.3 L-30.95 199.7 -30.55 199.85 -30.0 200.0 -29.65 199.9 -29.2 199.75 -28.95 199.55 -27.75 198.05 -26.5 195.65 -26.0 195.0 -24.75 193.5 -24.3 193.0 -20.85 193.0 -21.1 193.5 -21.4 193.7 -21.9 194.1 -22.1 194.25 -22.55 195.0 Q-24.6 198.3 -27.45 200.9 -28.65 202.0 -30.25 202.5 L-30.6 202.5 -30.8 202.9 -30.9 203.0 -31.9 203.0 -33.0 201.6 -33.95 200.5 -36.5 197.65 Q-38.05 195.1 -40.0 193.0 M-30.9 213.0 L-30.95 213.05 -31.2 213.25 -31.45 213.35 -32.0 213.5 -32.55 213.35 -32.95 213.2 -33.1 213.0 -30.9 213.0" fill="#666666" fill-opacity="0.4509804" fill-rule="evenodd" stroke="none"/>
    <path d="M-47.25 152.8 L-47.1 151.55 -43.05 146.55 Q-42.0 145.3 -40.7 144.65 L-40.5 144.15 -40.5 144.05 -40.35 144.05 -40.25 143.9 -40.0 143.95 -39.85 143.75 -39.3 143.45 -38.75 143.3 -38.75 143.25 -31.35 144.25 -24.55 144.45 -20.25 144.25 -19.7 144.45 -19.1 144.75 -18.95 145.1 -18.85 145.3 -18.8 145.5 -18.75 145.7 -18.75 145.9 -18.8 146.05 -18.85 146.25 -18.85 146.3 -18.6 146.6 -15.25 150.95 -15.2 151.15 -15.15 151.3 -15.05 151.5 -14.75 151.85 -14.65 152.15 Q-14.45 152.7 -14.4 153.3 -14.15 153.3 -13.95 153.45 L-13.95 153.55 -13.8 153.75 -13.7 153.95 -14.1 154.5 Q-15.0 155.85 -15.55 157.45 L-16.25 158.35 -17.4 159.7 Q-19.55 162.0 -21.35 164.55 L-21.35 164.65 -22.1 165.6 -23.8 167.55 -25.2 169.3 -25.45 169.5 -25.55 169.55 -26.05 170.35 Q-27.65 171.4 -29.3 172.25 -30.5 171.75 -31.95 171.8 L-33.25 171.8 -33.3 171.5 -33.3 171.3 -33.8 170.85 -34.25 169.95 Q-36.2 166.0 -39.6 163.25 L-40.3 162.25 -40.85 161.85 -41.35 161.3 -41.45 161.2 Q-40.9 160.1 -41.8 159.05 -43.7 156.8 -46.25 155.5 L-46.25 155.55 -46.4 155.6 -46.6 154.95 -47.1 154.05 -47.2 153.4 -47.25 153.05 -47.25 152.8 M-38.45 146.75 Q-39.85 148.45 -40.85 150.4 -41.55 151.7 -42.7 152.5 L-42.7 152.65 -42.6 153.0 -42.55 153.15 -33.5 164.1 Q-31.35 166.65 -30.9 169.65 L-30.65 169.85 -30.05 170.2 Q-29.45 169.05 -28.5 168.15 -27.85 167.6 -27.6 166.8 L-27.5 166.65 -27.3 166.45 -26.85 166.05 -24.45 161.2 Q-23.45 159.15 -21.7 157.8 L-21.45 157.45 -20.8 156.7 -20.6 156.5 -19.8 156.15 -19.25 156.0 -18.45 156.2 -17.95 156.45 -17.75 156.25 -16.95 155.65 -17.7 155.45 -18.15 154.7 Q-18.35 154.0 -18.05 153.4 L-20.5 149.65 -21.9 147.45 -23.45 147.4 -37.25 146.95 -38.35 146.7 -38.45 146.75 M-37.2 203.0 L-37.55 202.6 -38.85 201.1 -39.05 200.9 -39.4 200.5 -40.75 198.5 -41.65 197.75 -42.3 197.0 -42.4 196.8 -42.45 196.65 -42.5 196.45 -43.9 194.2 -45.1 192.7 -45.35 192.1 -45.45 191.95 -46.1 191.6 -46.95 191.2 -47.35 190.6 -47.5 189.9 -47.5 189.85 -47.55 189.75 -47.6 189.7 Q-47.9 186.75 -45.25 184.8 -43.5 183.45 -42.35 181.55 L-41.5 180.7 -41.5 180.5 -41.45 180.3 -41.35 180.15 -41.25 179.95 -41.1 179.75 -40.9 179.6 -40.55 179.4 -40.0 179.3 -40.0 179.25 -29.7 180.55 -28.4 180.7 -26.1 180.55 -23.85 180.5 -22.1 180.5 -22.0 180.4 -21.75 180.25 -21.0 180.05 -21.0 180.0 -19.15 181.4 Q-16.2 184.0 -14.8 187.8 -14.3 188.8 -14.25 189.85 -14.2 190.9 -14.6 192.0 L-14.9 192.15 -15.75 192.5 -15.85 192.5 -17.05 193.8 -17.2 194.0 -17.4 194.4 -17.6 194.75 -17.85 194.95 -18.1 195.15 Q-18.55 196.25 -19.4 197.15 L-20.35 198.5 -22.05 200.5 -24.3 203.0 -28.45 203.0 -26.8 201.1 -26.15 200.5 -25.25 199.55 -25.2 199.35 -25.2 199.2 -22.4 196.0 -21.1 194.5 Q-20.85 193.35 -20.1 192.5 L-18.85 191.3 -18.65 190.95 -18.1 190.25 -17.85 190.0 -17.55 189.9 -17.4 189.85 -17.35 189.75 -17.25 189.55 -17.25 189.4 -17.25 189.2 Q-18.0 186.8 -19.85 184.95 L-21.5 183.35 -28.5 184.0 -30.45 183.95 -35.6 183.65 -39.2 183.3 -39.6 184.0 -39.95 184.55 Q-41.0 185.15 -41.55 186.25 L-42.45 187.2 -42.5 187.35 -42.75 187.75 -43.0 188.15 Q-43.4 188.3 -43.65 188.7 L-43.7 188.85 -43.1 189.55 -42.65 190.4 -42.45 190.65 -40.0 193.0 Q-38.05 195.1 -36.5 197.65 L-33.95 200.5 -33.0 201.6 -31.9 203.0 -37.2 203.0 M-37.2 193.0 L-31.9 193.0 Q-31.25 193.95 -30.9 195.0 L-30.85 195.15 -30.5 195.65 -30.5 195.8 -30.55 196.1 -30.55 196.2 -30.55 196.55 -30.45 196.6 -30.15 196.05 -29.95 195.2 -29.8 195.0 -28.45 193.0 -24.3 193.0 -24.75 193.5 -26.0 195.0 -26.5 195.65 -27.75 198.05 -28.95 199.55 -29.2 199.75 -29.65 199.9 -30.0 200.0 -30.55 199.85 -30.95 199.7 -31.25 199.3 Q-33.2 199.25 -34.35 197.0 L-34.85 196.2 -34.95 196.0 -35.0 195.8 -35.05 195.65 -35.55 195.0 -37.2 193.0" fill="#333333" fill-opacity="0.46666667" fill-rule="evenodd" stroke="none"/>
  </g>
</svg>
