<?xml version="1.0" encoding="UTF-8" standalone="no"?>
<svg xmlns:ffdec="https://www.free-decompiler.com/flash" xmlns:xlink="http://www.w3.org/1999/xlink" ffdec:objectType="shape" height="21.25px" width="26.35px" xmlns="http://www.w3.org/2000/svg">
  <g transform="matrix(1.0, 0.0, 0.0, 1.0, 15.55, 10.0)">
    <path d="M-15.4 -4.45 L-15.45 -4.0 -15.55 -3.7 -15.4 -4.45" fill="#ffcc00" fill-rule="evenodd" stroke="none"/>
    <path d="M6.3 -7.25 L6.45 -7.15 6.9 -6.75 6.8 -6.65 6.05 -6.6 5.9 -7.55 Q5.5 -8.45 3.9 -7.55 L3.85 -7.6 Q4.6 -8.7 5.9 -7.75 L6.05 -7.5 6.3 -7.25 M-5.5 9.6 L-5.8 9.45 -6.7 8.45 -5.7 8.75 -5.6 8.75 -5.55 9.05 -5.25 9.35 -5.5 9.6 M7.55 -6.0 L8.0 -5.3 8.15 -5.0 8.65 -4.2 9.5 -2.3 10.1 -1.1 Q10.8 0.6 10.8 2.25 10.8 4.1 10.05 5.35 9.2 6.85 7.45 7.3 L7.1 7.4 5.7 8.9 Q4.25 10.1 2.55 10.7 L-1.05 11.25 -1.5 11.25 -0.8 10.85 -0.1 11.0 Q0.65 11.0 1.85 9.75 L2.1 9.75 2.55 9.75 3.9 9.0 4.05 9.0 Q4.8 9.0 5.45 6.8 6.55 4.85 6.55 3.9 L6.3 2.6 6.3 2.5 6.95 -2.15 7.3 -3.25 7.55 -5.45 7.55 -6.0 M-1.85 11.25 L-3.5 10.8 -2.65 10.4 Q-2.5 11.1 -1.85 11.25 M1.95 3.95 L2.0 3.95 1.55 4.7 1.4 4.65 1.95 3.95" fill="#28cc00" fill-rule="evenodd" stroke="none"/>
    <path d="M-5.6 10.35 L-5.7 9.9 -5.5 9.6 -5.25 9.35 -5.55 9.05 -5.6 8.75 -5.7 8.75 -6.7 8.45 -6.95 7.65 Q-6.95 7.25 -2.55 4.45 -0.75 3.3 0.3 2.9 L0.8 2.25 2.95 -0.85 3.8 -3.9 Q4.2 -5.6 3.8 -7.5 L3.9 -7.55 Q5.5 -8.45 5.9 -7.55 L6.05 -6.6 6.8 -6.65 6.9 -6.75 Q7.45 -7.5 7.55 -6.0 L7.55 -5.45 7.3 -3.25 6.95 -2.15 6.3 2.5 6.3 2.6 6.55 3.9 Q6.55 4.85 5.45 6.8 4.8 9.0 4.05 9.0 L3.9 9.0 2.55 9.75 2.1 9.75 1.85 9.75 Q0.65 11.0 -0.1 11.0 L-0.8 10.85 -1.5 11.25 -1.55 11.25 -1.85 11.25 Q-2.5 11.1 -2.65 10.4 L-3.5 10.8 -4.55 11.0 Q-5.4 11.0 -5.6 10.35 M1.95 3.95 L1.4 4.65 1.55 4.7 2.0 3.95 1.95 3.95" fill="#2fe800" fill-rule="evenodd" stroke="none"/>
    <path d="M6.3 -7.55 L6.3 -7.25 6.05 -7.5 5.9 -7.75 Q4.6 -8.7 3.85 -7.6 L3.9 -7.55 3.8 -7.5 Q4.2 -5.6 3.8 -3.9 L2.95 -0.85 0.8 2.25 0.3 2.9 Q-0.75 3.3 -2.55 4.45 -6.95 7.25 -6.95 7.65 L-6.7 8.45 -5.8 9.45 -5.5 9.6 -5.7 9.9 -5.6 10.35 Q-7.15 9.7 -8.1 6.7 L-8.2 6.4 Q-8.7 6.2 -9.0 5.8 -9.5 5.15 -9.7 4.0 L-9.8 2.95 -10.2 1.55 -10.2 -0.75 Q-10.2 -2.8 -8.3 -5.1 L-8.25 -5.2 -8.05 -5.45 -6.6 -6.7 -5.05 -8.05 -3.3 -9.3 Q-3.2 -9.4 -3.05 -9.45 L-1.0 -9.55 -1.0 -9.4 -0.7 -9.45 2.6 -9.25 2.7 -9.3 Q5.95 -9.75 6.3 -7.55 M-0.45 -8.3 Q-0.6 -9.2 -1.65 -9.1 -2.85 -9.0 -4.3 -7.7 -8.2 -4.25 -8.2 1.8 L-7.75 2.65 -8.95 3.4 Q-8.9 4.5 -7.8 4.5 -3.85 4.5 -1.3 -0.25 0.55 -3.65 0.55 -5.55 0.55 -7.15 -0.45 -8.3" fill="#33ff00" fill-rule="evenodd" stroke="none"/>
    <path d="M6.3 -7.25 L6.3 -7.55 6.9 -6.75 6.45 -7.15 6.3 -7.25 M7.45 7.3 L6.4 8.4 6.15 8.6 5.7 8.9 7.1 7.4 7.45 7.3" fill="#ffffff" fill-rule="evenodd" stroke="none"/>
    <path d="M-0.45 -8.3 Q0.55 -7.15 0.55 -5.55 0.55 -3.65 -1.3 -0.25 -3.85 4.5 -7.8 4.5 -8.9 4.5 -8.95 3.4 L-7.75 2.65 -8.2 1.8 Q-8.2 -4.25 -4.3 -7.7 -2.85 -9.0 -1.65 -9.1 -0.6 -9.2 -0.45 -8.3 M-5.7 -4.65 Q-7.2 -3.5 -7.2 -2.2 -7.35 -1.0 -6.2 -1.0 -5.75 -1.0 -4.95 -2.4 -4.2 -3.7 -4.2 -4.0 -4.2 -5.75 -5.7 -4.65" fill="#60ff37" fill-rule="evenodd" stroke="none"/>
    <path d="M-5.7 -4.65 Q-4.2 -5.75 -4.2 -4.0 -4.2 -3.7 -4.95 -2.4 -5.75 -1.0 -6.2 -1.0 -7.35 -1.0 -7.2 -2.2 -7.2 -3.5 -5.7 -4.65" fill="#8dfe72" fill-rule="evenodd" stroke="none"/>
  </g>
</svg>
