<?xml version="1.0" encoding="UTF-8" standalone="no"?>
<svg xmlns:ffdec="https://www.free-decompiler.com/flash" xmlns:xlink="http://www.w3.org/1999/xlink" ffdec:objectType="shape" height="82.2px" width="63.5px" xmlns="http://www.w3.org/2000/svg">
  <g transform="matrix(1.0, 0.0, 0.0, 1.0, 423.0, 24.25)">
    <path d="M-408.75 -22.35 Q-405.5 -23.4 -402.15 -23.8 L-401.0 -24.0 Q-395.9 -24.9 -391.35 -22.8 -388.2 -21.35 -386.0 -18.5 L-385.25 -18.1 -384.75 -17.75 -384.4 -17.4 -384.0 -17.0 -383.85 -16.65 -382.4 -14.05 -380.75 -11.0 -380.0 -9.15 -380.0 -8.75 -380.0 -8.4 -379.8 -8.0 -379.65 -7.65 -379.5 -7.25 -379.5 -6.9 -379.5 -6.5 -379.35 -6.15 -379.15 -5.75 -379.0 -5.4 -379.0 -5.0 -379.0 -4.65 -379.0 -4.25 -378.95 -3.9 -378.8 -3.5 -378.65 -3.15 -378.5 -2.75 -378.5 -2.4 -378.5 0.25 -378.5 3.6 -378.5 6.6 -378.65 7.0 -378.75 7.35 -378.9 7.75 -379.0 8.1 -379.0 8.5 -379.0 8.85 -379.65 10.35 Q-380.3 13.0 -381.75 15.35 -383.55 18.35 -385.0 21.6 L-385.0 22.0 -383.25 22.0 -383.35 22.15 -383.5 22.5 -383.55 22.85 -383.8 23.65 -383.75 24.0 -383.6 24.35 -383.25 24.75 -382.9 25.1 -382.5 25.5 -382.25 25.75 Q-377.6 25.55 -373.55 27.1 -370.55 27.9 -368.05 29.85 L-364.15 33.35 -362.6 36.05 Q-361.85 37.45 -361.4 38.95 L-360.5 41.6 -360.5 42.35 -360.5 43.1 -360.5 44.25 -360.5 44.5 -359.5 44.5 -359.5 44.85 -359.5 45.25 -359.8 46.45 -360.65 48.2 -362.4 51.25 -365.95 54.0 Q-369.5 56.7 -373.75 56.85 -385.4 59.35 -397.15 56.25 L-401.3 53.55 Q-404.3 51.45 -406.75 48.75 -407.0 47.95 -407.5 47.3 -408.75 45.55 -409.45 43.45 L-410.5 40.5 -410.5 40.1 -410.5 39.75 -410.65 39.4 -410.85 39.0 -411.0 38.6 -411.0 38.25 -411.0 37.85 -411.15 37.5 -411.25 37.1 -411.4 36.75 -411.5 36.35 -411.5 36.0 -411.5 35.6 -411.75 35.25 -411.9 34.85 -412.0 34.5 -412.0 32.6 -412.0 27.75 -412.0 23.6 -411.9 23.25 -411.75 22.85 -411.65 22.5 -411.5 22.1 -411.5 21.75 -411.5 21.35 -411.5 21.0 -411.5 20.6 -411.5 20.25 -411.5 19.85 -411.15 19.1 -410.75 18.35 -409.8 16.55 Q-409.45 15.8 -409.4 15.0 L-409.1 14.65 -408.75 14.25 -408.55 13.85 -408.35 13.5 -408.15 13.1 -407.4 12.35 -407.0 12.0 -406.25 11.25 -405.5 10.5 -405.4 10.1 -405.25 9.75 -404.5 9.0 -404.15 8.6 -403.4 7.85 -402.25 6.75 -402.05 6.35 -401.85 6.0 -401.6 5.65 -401.3 5.2 -400.85 4.5 -400.65 4.1 -400.25 3.75 -399.9 3.35 -399.5 3.0 -399.4 2.6 -399.25 2.25 -398.9 1.85 -398.5 1.5 -398.15 1.1 -397.7 0.4 -397.1 -0.7 -396.0 -3.4 -395.5 -4.9 -395.7 -5.6 -395.85 -6.0 -396.2 -6.75 -396.6 -7.75 -396.65 -7.75 Q-397.4 -8.4 -398.2 -8.85 L-398.5 -8.9 -398.5 -9.0 Q-401.95 -10.8 -406.0 -9.75 L-407.15 -9.4 -407.65 -9.05 Q-408.5 -8.6 -409.2 -7.95 -410.3 -7.05 -411.65 -6.4 L-412.0 -6.0 -412.25 -5.6 -412.4 -5.25 -412.65 -4.9 -413.0 -4.5 -413.4 -4.15 -413.75 -3.75 -414.15 -3.4 -414.9 -2.75 -415.25 -2.65 Q-416.35 -2.25 -417.5 -2.2 L-420.15 -2.25 -420.6 -2.65 -421.0 -3.0 -421.25 -3.4 -421.65 -4.1 -422.2 -4.9 -422.65 -5.6 -422.9 -6.0 -422.95 -6.4 -423.0 -6.75 -423.0 -7.15 -423.0 -7.5 -423.0 -8.25 -423.0 -8.65 -422.85 -9.0 -422.65 -9.4 -422.5 -9.75 -422.5 -10.15 -422.5 -10.5 -422.5 -10.9 -422.4 -11.25 -422.15 -12.0 -421.85 -12.75 -421.55 -13.5 -419.5 -13.5 -419.5 -13.75 -419.5 -14.15 -419.45 -14.5 -419.4 -14.9 -419.2 -15.2 -418.15 -16.35 -416.65 -17.9 -415.9 -18.65 Q-415.45 -18.8 -415.05 -19.05 L-412.9 -20.1 -411.15 -21.25 -409.9 -21.65 -409.5 -22.0 -409.15 -22.25 -408.75 -22.35 M-410.9 -13.15 L-410.5 -13.5 -410.1 -13.85 -409.65 -14.25 Q-402.25 -16.75 -395.5 -13.5 -394.1 -12.85 -393.15 -11.65 L-392.9 -11.25 -392.8 -11.1 Q-391.4 -9.4 -390.5 -7.4 L-390.5 -6.65 -390.5 -6.25 -390.5 -5.15 -390.5 -3.25 -390.5 -2.9 -390.95 -1.75 -392.25 1.2 Q-393.05 3.0 -394.15 4.6 L-394.85 5.4 -395.1 5.75 -395.6 6.4 -396.5 8.0 -397.25 8.75 -397.65 9.1 -398.35 9.9 -399.0 11.0 -399.75 11.75 -400.15 12.1 -400.85 12.9 -401.5 14.0 -402.25 14.75 -402.65 15.1 -403.4 15.85 -404.15 16.6 -404.5 17.35 -404.9 18.1 -405.65 20.0 Q-405.95 21.0 -406.5 21.85 L-406.5 22.25 -406.5 22.6 -406.5 23.0 -406.5 23.35 -406.5 23.75 -406.5 24.1 -406.65 24.5 -406.75 24.85 -406.9 25.25 -407.0 25.6 -407.0 26.75 -407.0 29.0 -407.0 32.35 -407.0 32.75 -406.95 33.1 -406.8 33.5 -406.65 33.85 -406.5 34.25 -406.5 34.6 -406.5 35.0 -406.35 35.35 -406.15 35.75 -406.05 36.1 -405.95 36.5 -405.65 37.25 -405.5 37.6 -405.5 38.0 -405.5 38.35 -405.15 39.5 -404.3 41.7 -402.5 45.5 -402.15 45.85 -401.75 46.25 -401.5 46.6 -401.25 47.0 -400.75 47.35 -400.25 47.75 -399.9 48.1 -399.5 48.5 -398.75 48.9 -398.25 49.25 -397.9 49.6 -397.65 49.85 Q-384.0 55.3 -370.05 49.9 L-366.8 48.1 -366.4 47.75 -366.35 47.65 -366.0 47.0 -365.9 46.75 -366.0 46.35 -366.0 46.1 -365.5 43.75 Q-365.55 42.95 -365.85 42.25 L-366.5 40.35 -367.25 38.1 -367.4 37.75 -367.65 37.4 -368.0 37.0 -368.25 36.6 -368.4 36.25 -370.35 34.9 -371.95 33.65 Q-376.9 30.7 -383.0 30.55 -385.45 30.5 -387.05 28.55 L-387.85 27.65 -388.25 27.8 -389.0 28.0 -390.15 27.75 -390.6 27.35 -391.0 27.0 -391.25 26.6 -391.4 26.25 -391.5 25.85 -391.5 25.5 -391.5 25.1 -391.5 24.75 -391.5 24.35 -391.35 24.0 -390.95 23.2 -390.5 22.1 -390.15 21.0 -390.0 20.6 -390.0 20.25 -390.0 19.85 -389.85 19.5 -389.65 19.1 -389.55 18.75 -389.5 18.4 -389.4 18.0 -389.1 17.65 -388.1 16.15 -387.3 14.3 -386.75 12.75 -386.4 12.35 -386.0 12.0 -385.85 11.65 -385.35 10.5 -384.75 9.05 -384.15 7.1 -384.0 6.75 -384.0 6.35 -384.0 6.0 -383.9 5.6 -383.75 5.25 -383.5 4.85 -383.5 4.5 -383.5 3.0 -383.5 1.1 -383.5 -1.15 -383.65 -1.5 -383.75 -1.9 -383.9 -2.25 -384.0 -2.65 -384.0 -3.0 -384.0 -3.4 -384.25 -3.75 -384.4 -4.15 -384.5 -4.5 -384.5 -4.9 -384.5 -5.25 -384.5 -5.65 -384.65 -6.0 -384.75 -6.4 -384.9 -6.75 -385.0 -7.15 -385.0 -7.5 -385.0 -7.9 -385.2 -8.25 -386.0 -9.7 -387.2 -11.6 -388.0 -13.5 -388.4 -13.8 -390.05 -15.0 -391.5 -16.5 -391.9 -16.9 Q-396.25 -19.75 -401.55 -18.95 -406.5 -18.2 -410.4 -15.25 L-410.75 -15.15 -411.65 -14.9 -412.15 -14.55 -413.7 -13.3 -414.85 -11.85 -415.0 -11.5 -415.4 -11.15 -416.05 -10.8 -416.95 -10.5 -417.2 -9.75 -417.5 -9.0 -417.5 -8.65 -417.5 -8.25 -417.5 -7.9 Q-417.45 -7.8 -417.4 -7.85 L-417.05 -8.05 -416.9 -8.4 -416.75 -8.75 -416.4 -9.15 -416.0 -9.5 -415.65 -9.9 -414.9 -10.65 -414.5 -11.0 -414.1 -11.25 -413.75 -11.35 -412.9 -11.65 -412.5 -12.0 -412.1 -12.35 -411.6 -12.7 -410.9 -13.15" fill="#000000" fill-rule="evenodd" stroke="none"/>
    <path d="M-410.9 -13.15 L-411.6 -12.7 -412.1 -12.35 -412.5 -12.0 -412.9 -11.65 -413.75 -11.35 -414.1 -11.25 -414.5 -11.0 -414.9 -10.65 -415.65 -9.9 -416.0 -9.5 -416.4 -9.15 -416.75 -8.75 -416.9 -8.4 -417.05 -8.05 -417.4 -7.85 Q-417.45 -7.8 -417.5 -7.9 L-417.5 -8.25 -417.5 -8.65 -417.5 -9.0 -417.2 -9.75 -416.95 -10.5 -416.05 -10.8 -415.4 -11.15 -415.0 -11.5 -414.85 -11.85 -413.7 -13.3 -412.15 -14.55 -411.65 -14.9 -410.75 -15.15 -410.4 -15.25 Q-406.5 -18.2 -401.55 -18.95 -396.25 -19.75 -391.9 -16.9 L-391.5 -16.5 -390.05 -15.0 -388.4 -13.8 -388.0 -13.5 -387.2 -11.6 -386.0 -9.7 -385.2 -8.25 -385.0 -7.9 -385.0 -7.5 -385.0 -7.15 -384.9 -6.75 -384.75 -6.4 -384.65 -6.0 -384.5 -5.65 -384.5 -5.25 -384.5 -4.9 -384.5 -4.5 -384.4 -4.15 -384.25 -3.75 -384.0 -3.4 -384.0 -3.0 -384.0 -2.65 -383.9 -2.25 -383.75 -1.9 -383.65 -1.5 -383.5 -1.15 -383.5 1.1 -383.5 3.0 -383.5 4.5 -383.5 4.85 -383.75 5.25 -383.9 5.6 -384.0 6.0 -384.0 6.35 -384.0 6.75 -384.15 7.1 -384.75 9.05 -385.35 10.5 -385.85 11.65 -386.0 12.0 -386.4 12.35 -386.75 12.75 -387.3 14.3 -388.1 16.15 -389.1 17.65 -389.4 18.0 -389.5 18.4 -389.55 18.75 -389.65 19.1 -389.85 19.5 -390.0 19.85 -390.0 20.25 -390.0 20.6 -390.15 21.0 -390.5 22.1 -390.95 23.2 -391.35 24.0 -391.5 24.35 -391.5 24.75 -391.5 25.1 -391.5 25.5 -391.5 25.85 -391.4 26.25 -391.25 26.6 -391.0 27.0 -390.6 27.35 -390.15 27.75 -389.0 28.0 -388.25 27.8 -387.85 27.65 -387.05 28.55 Q-385.45 30.5 -383.0 30.55 -376.9 30.7 -371.95 33.65 L-370.35 34.9 -368.4 36.25 -368.25 36.6 -368.0 37.0 -367.65 37.4 -367.4 37.75 -367.25 38.1 -366.5 40.35 -365.85 42.25 Q-365.55 42.95 -365.5 43.75 L-366.0 46.1 -366.0 46.35 -365.9 46.75 -366.0 47.0 -366.35 47.65 -366.4 47.75 -366.8 48.1 -370.05 49.9 Q-384.0 55.3 -397.65 49.85 L-397.9 49.6 -398.25 49.25 -398.75 48.9 -399.5 48.5 -399.9 48.1 -400.25 47.75 -400.75 47.35 -401.25 47.0 -401.5 46.6 -401.75 46.25 -402.15 45.85 -402.5 45.5 -404.3 41.7 -405.15 39.5 -405.5 38.35 -405.5 38.0 -405.5 37.6 -405.65 37.25 -405.95 36.5 -406.05 36.1 -406.15 35.75 -406.35 35.35 -406.5 35.0 -406.5 34.6 -406.5 34.25 -406.65 33.85 -406.8 33.5 -406.95 33.1 -407.0 32.75 -407.0 32.35 -407.0 29.0 -407.0 26.75 -407.0 25.6 -406.9 25.25 -406.75 24.85 -406.65 24.5 -406.5 24.1 -406.5 23.75 -406.5 23.35 -406.5 23.0 -406.5 22.6 -406.5 22.25 -406.5 21.85 Q-405.95 21.0 -405.65 20.0 L-404.9 18.1 -404.5 17.35 -404.15 16.6 -403.4 15.85 -402.65 15.1 -402.25 14.75 -401.5 14.0 -400.85 12.9 -400.15 12.1 -399.75 11.75 -399.0 11.0 -398.35 9.9 -397.65 9.1 -397.25 8.75 -396.5 8.0 -395.6 6.4 -395.1 5.75 -394.85 5.4 -394.15 4.6 Q-393.05 3.0 -392.25 1.2 L-390.95 -1.75 -390.5 -2.9 -390.5 -3.25 -390.5 -5.15 -390.5 -6.25 -390.5 -6.65 -390.5 -7.4 Q-391.4 -9.4 -392.8 -11.1 L-392.9 -11.25 -393.15 -11.65 Q-394.1 -12.85 -395.5 -13.5 -402.25 -16.75 -409.65 -14.25 L-410.1 -13.85 -410.5 -13.5 -410.9 -13.15" fill="#80a839" fill-rule="evenodd" stroke="none"/>
  </g>
</svg>
