<?xml version="1.0" encoding="UTF-8" standalone="no"?>
<svg xmlns:ffdec="https://www.free-decompiler.com/flash" xmlns:xlink="http://www.w3.org/1999/xlink" ffdec:objectType="shape" height="59.55px" width="91.0px" xmlns="http://www.w3.org/2000/svg">
  <g transform="matrix(1.0, 0.0, 0.0, 1.0, 368.0, 37.0)">
    <path d="M-298.5 -10.65 L-298.0 -10.9 -297.75 -11.0 -297.5 -11.25 -297.15 -11.65 -296.75 -12.0 -293.85 -13.8 Q-290.25 -16.25 -287.4 -19.4 L-287.0 -19.0 -286.25 -18.25 -285.5 -17.5 -285.4 -17.15 -285.25 -16.75 -284.9 -16.4 -284.5 -16.0 -284.4 -15.65 -284.25 -15.25 -283.9 -14.9 -283.5 -14.5 -283.35 -14.15 -283.05 -13.35 -282.85 -13.0 -282.75 -12.6 -282.75 -12.25 -282.9 -11.9 -283.25 -11.15 -283.65 -10.4 -284.0 -9.65 -284.0 -9.25 -284.0 -8.9 -284.15 -8.5 -284.25 -8.15 -284.4 -7.75 -284.5 -7.4 -284.5 -7.0 -284.5 -6.25 -284.55 -5.5 -284.75 -4.75 -285.05 -4.4 Q-293.8 3.65 -306.0 2.35 L-306.0 -0.9 -306.0 -5.4 -306.15 -5.75 -306.35 -6.15 -306.5 -6.5 -306.5 -6.9 -306.5 -7.25 -306.5 -7.65 -306.65 -8.0 -306.75 -8.4 -306.9 -8.75 -307.0 -9.15 -307.0 -9.5 -307.0 -9.9 -307.15 -10.25 -307.35 -10.65 -307.7 -11.75 -307.85 -12.15 -308.0 -12.5 Q-309.4 -14.4 -311.35 -15.3 L-312.45 -15.75 -311.55 -18.25 -310.25 -22.0 Q-309.85 -22.95 -309.0 -23.5 L-308.15 -23.75 -307.5 -23.4 -307.1 -22.65 -306.5 -21.15 -306.15 -20.0 -306.0 -19.65 -306.0 -19.25 -306.0 -18.9 -305.85 -18.5 -305.55 -17.75 -305.35 -17.0 -305.15 -16.6 -305.0 -16.25 -305.0 -15.9 -305.0 -15.5 -305.0 -15.15 -304.9 -14.75 -304.75 -14.4 -304.65 -14.0 -304.5 -13.65 -304.5 -13.25 -304.5 -12.9 -304.5 -12.5 -304.5 -12.15 -304.4 -11.75 -304.25 -11.4 -304.15 -11.0 -304.0 -10.65 -304.0 -9.15 -304.0 -7.65 -304.0 -6.5 -304.0 -6.15 -303.9 -5.75 -303.75 -5.4 -303.5 -5.0 -303.1 -4.65 -302.65 -4.25 -301.5 -4.0 -300.75 -4.2 -300.25 -4.4 -299.8 -4.8 -299.5 -5.15 -299.3 -5.5 -299.15 -5.9 -299.0 -6.25 -299.0 -6.65 -299.0 -7.0 -299.0 -7.75 -299.0 -8.15 -299.0 -8.5 -298.85 -8.85 -298.65 -9.25 -298.5 -9.65 -298.5 -10.0 -298.5 -10.4 -298.5 -10.65 M-337.9 -6.75 L-337.5 -6.0 -337.1 -5.65 -336.6 -5.3 -335.9 -4.9 -332.95 -1.8 Q-330.65 0.7 -327.9 2.6 L-326.0 4.3 Q-324.05 5.45 -322.15 6.75 L-321.0 7.0 -320.25 6.85 -320.0 6.85 -318.9 6.75 -318.6 6.5 -318.15 6.1 -317.9 5.75 -317.75 5.35 -317.65 5.0 -317.55 4.6 -317.5 4.25 -317.65 3.85 -317.8 3.5 -318.0 3.1 -318.25 2.75 -318.35 2.7 -317.9 2.35 -317.5 2.0 -317.35 1.65 -317.15 1.25 -317.0 0.85 -317.0 -0.65 -317.0 -2.15 -317.0 -3.25 -317.0 -3.65 -316.8 -4.0 -316.65 -4.4 -316.5 -4.75 -316.5 -5.15 -316.5 -6.25 -316.5 -7.4 -316.5 -8.15 -316.5 -8.5 -316.2 -9.3 -316.0 -10.0 -315.85 -10.35 -315.65 -10.75 -314.9 -10.75 -314.65 -10.65 -314.15 -10.25 -312.95 -9.8 -312.65 -9.5 -312.25 -8.4 -311.9 -7.25 -311.65 -6.5 -311.5 -6.15 -311.5 -5.75 -311.5 -5.4 -311.5 -5.0 -311.4 -4.65 -311.25 -4.25 -311.05 -3.85 -311.0 -3.5 -311.0 0.25 -311.0 7.0 -311.0 9.6 -311.15 10.0 -311.25 10.35 -311.4 10.75 -311.5 11.1 -311.5 11.5 -311.5 11.85 -311.5 12.25 -311.5 12.6 -311.65 13.0 -311.75 13.35 -311.9 13.75 -312.15 14.1 -312.5 14.5 -312.9 14.85 -313.25 15.25 -313.4 15.6 -313.55 16.0 -313.75 16.4 -313.9 16.75 Q-323.4 16.15 -332.75 13.85 L-339.35 11.3 -345.0 9.35 -345.0 9.25 -346.5 8.5 -346.9 8.1 -347.25 7.75 -347.75 7.4 -348.5 7.0 -349.65 5.85 -350.35 5.1 -350.6 4.75 -351.0 4.0 -351.4 3.6 -351.75 3.25 -352.15 2.85 -352.3 2.5 -352.5 2.1 -352.8 1.75 -353.15 1.35 -353.5 1.0 -353.9 0.25 -354.5 -0.5 -354.75 -0.9 -355.15 -1.65 -357.55 -4.95 -360.45 -10.2 Q-361.15 -11.7 -361.5 -13.25 L-361.5 -13.65 -361.5 -14.0 -361.5 -14.4 -361.65 -14.75 -361.85 -15.15 -362.0 -15.5 -362.0 -15.9 -362.0 -16.25 -362.15 -16.65 -362.3 -17.0 -362.45 -17.4 -362.5 -17.75 -362.5 -18.15 -362.5 -18.5 -362.5 -18.9 -362.65 -19.25 -362.85 -19.65 -363.0 -20.0 -363.0 -21.15 -363.0 -22.25 -363.0 -23.0 -363.0 -23.4 -363.0 -24.15 Q-362.15 -27.05 -359.9 -29.1 -356.55 -32.15 -352.4 -31.15 L-351.75 -30.75 -350.65 -30.0 -350.1 -29.65 -348.9 -28.9 -348.5 -28.5 -348.15 -28.15 -347.7 -27.4 -347.15 -26.6 -346.9 -26.25 -346.5 -25.5 -346.1 -25.15 -345.95 -25.0 -345.95 -24.9 -345.9 -24.15 -345.7 -23.8 -345.4 -23.4 -345.0 -23.0 -344.7 -22.25 -344.0 -20.9 -344.0 -20.65 -343.9 -20.25 -343.75 -19.9 -343.5 -19.5 -343.15 -19.15 -342.8 -18.75 -342.5 -18.4 -342.5 -18.0 -342.4 -17.65 -342.25 -17.25 -342.0 -16.9 -342.0 -16.5 -342.0 -16.15 -341.9 -15.75 -341.75 -15.4 -341.5 -15.0 -341.2 -14.6 -341.0 -14.25 -341.0 -13.9 -341.0 -13.5 -340.9 -13.15 -340.75 -12.75 -340.5 -12.4 -340.5 -12.0 -340.5 -11.65 -340.35 -11.25 -340.0 -10.5 -339.9 -10.15 -339.75 -9.75 -339.4 -9.4 -339.0 -9.0 -338.7 -8.25 -337.9 -6.75" fill="#b1e34d" fill-rule="evenodd" stroke="none"/>
    <path d="M-287.4 -19.4 Q-286.1 -20.9 -284.9 -22.5 L-284.65 -23.25 -284.5 -23.6 -284.4 -23.75 Q-282.1 -22.1 -280.45 -19.75 -278.25 -16.55 -277.0 -12.9 L-277.0 -12.5 -277.0 -12.15 -277.0 -11.75 Q-277.15 -11.15 -277.45 -10.6 L-278.2 -9.1 -279.0 -7.65 -279.0 -7.25 -279.0 -6.9 -279.15 -6.5 -279.25 -6.15 -279.4 -5.75 -279.5 -5.4 -279.5 -5.0 -279.5 -4.65 -279.5 -4.25 -279.5 -3.9 -279.75 -3.15 -280.0 -2.4 -280.25 -1.65 -280.4 -1.25 -281.2 -0.6 -282.8 0.55 -283.5 1.0 -285.85 3.1 Q-287.55 4.45 -289.65 5.1 L-290.15 5.5 -290.4 5.75 Q-298.1 8.35 -306.0 6.9 L-306.0 8.85 -306.0 11.85 -306.15 12.25 -306.35 12.65 -306.5 13.0 -306.5 13.35 -306.5 13.75 -306.5 14.1 -306.75 14.85 Q-307.2 16.15 -307.9 17.25 L-309.65 20.1 Q-315.85 24.2 -323.65 21.45 -326.25 20.5 -329.0 20.05 -332.55 19.4 -335.75 18.1 -338.5 17.7 -341.15 16.75 L-345.0 15.1 -345.0 15.4 -347.4 14.05 -347.5 14.0 -348.65 13.75 -349.1 13.35 -349.5 13.0 -350.0 12.5 Q-352.45 10.8 -354.5 8.5 L-354.75 8.1 -354.9 7.75 -355.15 7.35 -355.5 7.0 -355.9 6.6 -356.25 6.25 -356.4 5.85 -356.5 5.5 -356.9 5.1 -357.25 4.75 -357.65 4.35 -358.0 3.65 -358.25 3.25 -358.85 2.45 -359.25 1.75 -359.65 1.35 -360.0 1.0 -362.1 -2.45 -365.3 -8.05 -366.5 -11.0 -366.5 -11.4 -366.5 -11.75 -366.5 -12.15 -366.65 -12.5 -366.75 -12.9 -366.9 -13.25 -367.0 -13.65 -367.0 -14.0 -367.0 -14.4 -367.25 -14.75 -367.4 -15.15 -367.5 -15.5 -367.5 -15.9 -367.5 -16.25 -367.5 -16.65 -367.65 -17.0 -367.75 -17.4 -367.9 -17.75 -368.0 -18.15 -368.0 -19.65 -368.0 -21.9 -368.0 -24.9 -368.0 -26.0 -367.7 -27.2 -366.8 -28.95 -365.4 -31.25 -365.0 -32.0 -362.55 -34.1 Q-359.2 -36.3 -355.5 -37.0 -351.65 -36.95 -348.45 -35.1 -346.0 -33.7 -344.15 -31.65 L-343.9 -31.25 -343.75 -30.9 -343.5 -30.5 -342.8 -29.75 -342.5 -29.35 -342.15 -28.6 -342.05 -28.5 -341.9 -28.4 -340.2 -25.55 -338.85 -22.65 Q-337.85 -20.9 -337.25 -19.0 L-335.5 -14.15 -335.5 -13.75 -335.5 -13.4 -334.85 -12.25 -333.75 -10.4 -333.5 -10.0 -333.25 -9.65 -332.45 -8.85 -331.9 -8.15 Q-330.15 -6.75 -328.6 -5.15 L-326.0 -2.5 -323.65 -0.75 -323.35 -1.1 -322.4 -1.9 -322.0 -2.25 -322.0 -2.65 -322.0 -3.0 -322.0 -3.75 -322.0 -4.5 -322.0 -4.9 -321.9 -5.25 -321.75 -5.65 -321.65 -6.0 -321.5 -6.4 -321.5 -6.75 -321.5 -7.5 -321.5 -8.65 -321.5 -9.75 -321.5 -10.15 -321.35 -10.5 -321.15 -10.9 -321.0 -11.25 -321.0 -11.65 -321.0 -12.0 -320.9 -12.4 -320.75 -12.75 -320.5 -13.5 -320.25 -14.25 -319.9 -14.65 -319.5 -14.95 -318.15 -15.75 -317.0 -15.95 -317.0 -16.0 -316.8 -16.0 -316.9 -16.25 -317.0 -16.65 -317.0 -17.0 -317.0 -17.4 -317.0 -18.15 -317.0 -18.5 -317.0 -18.9 -316.65 -20.0 -315.55 -23.05 -314.0 -26.0 -313.65 -26.4 -312.5 -27.5 Q-311.55 -28.5 -310.25 -28.9 L-309.5 -28.95 -309.5 -29.0 -306.15 -28.35 Q-304.9 -28.0 -303.75 -27.25 L-303.25 -26.5 Q-302.45 -25.5 -302.0 -24.25 L-301.0 -21.65 -301.0 -21.25 -301.0 -20.9 -300.8 -20.5 -300.65 -20.15 -300.5 -19.75 -300.5 -19.4 -300.5 -19.0 -300.35 -18.65 -300.15 -18.25 -300.0 -17.9 -300.0 -17.5 -300.0 -17.25 -300.0 -17.15 -300.0 -16.75 -299.95 -16.4 -299.8 -16.0 -299.65 -15.65 -299.5 -15.25 -299.5 -14.9 -299.5 -14.5 -299.5 -14.15 -299.5 -13.75 -299.45 -13.4 -299.4 -13.25 -299.5 -13.25 -300.25 -12.95 -300.5 -12.75 -300.7 -12.0 -300.7 -11.25 -300.65 -10.9 Q-300.05 -10.55 -299.45 -10.4 L-299.0 -10.4 -298.6 -10.6 -298.5 -10.65 -298.5 -10.4 -298.5 -10.0 -298.5 -9.65 -298.65 -9.25 -298.85 -8.85 -299.0 -8.5 -299.0 -8.15 -299.0 -7.75 -299.0 -7.0 -299.0 -6.65 -299.0 -6.25 -299.15 -5.9 -299.3 -5.5 -299.5 -5.15 -299.8 -4.8 -300.25 -4.4 -300.75 -4.2 -301.5 -4.0 -302.65 -4.25 -303.1 -4.65 -303.5 -5.0 -303.75 -5.4 -303.9 -5.75 -304.0 -6.15 -304.0 -6.5 -304.0 -7.65 -304.0 -9.15 -304.0 -10.65 -304.15 -11.0 -304.25 -11.4 -304.4 -11.75 -304.5 -12.15 -304.5 -12.5 -304.5 -12.9 -304.5 -13.25 -304.5 -13.65 -304.65 -14.0 -304.75 -14.4 -304.9 -14.75 -305.0 -15.15 -305.0 -15.5 -305.0 -15.9 -305.0 -16.25 -305.15 -16.6 -305.35 -17.0 -305.55 -17.75 -305.85 -18.5 -306.0 -18.9 -306.0 -19.25 -306.0 -19.65 -306.15 -20.0 -306.5 -21.15 -307.1 -22.65 -307.5 -23.4 -308.15 -23.75 -309.0 -23.5 Q-309.85 -22.95 -310.25 -22.0 L-311.55 -18.25 -312.45 -15.75 -311.35 -15.3 Q-309.4 -14.4 -308.0 -12.5 L-307.85 -12.15 -307.7 -11.75 -307.35 -10.65 -307.15 -10.25 -307.0 -9.9 -307.0 -9.5 -307.0 -9.15 -306.9 -8.75 -306.75 -8.4 -306.65 -8.0 -306.5 -7.65 -306.5 -7.25 -306.5 -6.9 -306.5 -6.5 -306.35 -6.15 -306.15 -5.75 -306.0 -5.4 -306.0 -0.9 -306.0 2.35 Q-293.8 3.65 -285.05 -4.4 L-284.75 -4.75 -284.55 -5.5 -284.5 -6.25 -284.5 -7.0 -284.5 -7.4 -284.4 -7.75 -284.25 -8.15 -284.15 -8.5 -284.0 -8.9 -284.0 -9.25 -284.0 -9.65 -283.65 -10.4 -283.25 -11.15 -282.9 -11.9 -282.75 -12.25 -282.75 -12.6 -282.85 -13.0 -283.05 -13.35 -283.35 -14.15 -283.5 -14.5 -283.9 -14.9 -284.25 -15.25 -284.4 -15.65 -284.5 -16.0 -284.9 -16.4 -285.25 -16.75 -285.4 -17.15 -285.5 -17.5 -286.25 -18.25 -287.0 -19.0 -287.4 -19.4 M-337.9 -6.75 L-338.7 -8.25 -339.0 -9.0 -339.4 -9.4 -339.75 -9.75 -339.9 -10.15 -340.0 -10.5 -340.35 -11.25 -340.5 -11.65 -340.5 -12.0 -340.5 -12.4 -340.75 -12.75 -340.9 -13.15 -341.0 -13.5 -341.0 -13.9 -341.0 -14.25 -341.2 -14.6 -341.5 -15.0 -341.75 -15.4 -341.9 -15.75 -342.0 -16.15 -342.0 -16.5 -342.0 -16.9 -342.25 -17.25 -342.4 -17.65 -342.5 -18.0 -342.5 -18.4 -342.8 -18.75 -343.15 -19.15 -343.5 -19.5 -343.75 -19.9 -343.9 -20.25 -344.0 -20.65 -344.0 -20.9 -344.7 -22.25 -345.0 -23.0 -345.4 -23.4 -345.7 -23.8 -345.9 -24.15 -345.95 -24.9 -345.95 -25.0 -346.1 -25.15 -346.5 -25.5 -346.9 -26.25 -347.15 -26.6 -347.7 -27.4 -348.15 -28.15 -348.5 -28.5 -348.9 -28.9 -350.1 -29.65 -350.65 -30.0 -351.75 -30.75 -352.4 -31.15 Q-356.55 -32.15 -359.9 -29.1 -362.15 -27.05 -363.0 -24.15 L-363.0 -23.4 -363.0 -23.0 -363.0 -22.25 -363.0 -21.15 -363.0 -20.0 -362.85 -19.65 -362.65 -19.25 -362.5 -18.9 -362.5 -18.5 -362.5 -18.15 -362.5 -17.75 -362.45 -17.4 -362.3 -17.0 -362.15 -16.65 -362.0 -16.25 -362.0 -15.9 -362.0 -15.5 -361.85 -15.15 -361.65 -14.75 -361.5 -14.4 -361.5 -14.0 -361.5 -13.65 -361.5 -13.25 Q-361.15 -11.7 -360.45 -10.2 L-357.55 -4.95 -355.15 -1.65 -354.75 -0.9 -354.5 -0.5 -353.9 0.25 -353.5 1.0 -353.15 1.35 -352.8 1.75 -352.5 2.1 -352.3 2.5 -352.15 2.85 -351.75 3.25 -351.4 3.6 -351.0 4.0 -350.6 4.75 -350.35 5.1 -349.65 5.85 -348.5 7.0 -347.75 7.4 -347.25 7.75 -346.9 8.1 -346.5 8.5 -345.0 9.25 -345.0 9.35 -339.35 11.3 -332.75 13.85 Q-323.4 16.15 -313.9 16.75 L-313.75 16.4 -313.55 16.0 -313.4 15.6 -313.25 15.25 -312.9 14.85 -312.5 14.5 -312.15 14.1 -311.9 13.75 -311.75 13.35 -311.65 13.0 -311.5 12.6 -311.5 12.25 -311.5 11.85 -311.5 11.5 -311.5 11.1 -311.4 10.75 -311.25 10.35 -311.15 10.0 -311.0 9.6 -311.0 7.0 -311.0 0.25 -311.0 -3.5 -311.05 -3.85 -311.25 -4.25 -311.4 -4.65 -311.5 -5.0 -311.5 -5.4 -311.5 -5.75 -311.5 -6.15 -311.65 -6.5 -311.9 -7.25 -312.25 -8.4 -312.65 -9.5 -312.95 -9.8 -314.15 -10.25 -314.65 -10.65 -314.9 -10.75 -315.65 -10.75 -315.85 -10.35 -316.0 -10.0 -316.2 -9.3 -316.5 -8.5 -316.5 -8.15 -316.5 -7.4 -316.5 -6.25 -316.5 -5.15 -316.5 -4.75 -316.65 -4.4 -316.8 -4.0 -317.0 -3.65 -317.0 -3.25 -317.0 -2.15 -317.0 -0.65 -317.0 0.85 -317.15 1.25 -317.35 1.65 -317.5 2.0 -317.9 2.35 -318.35 2.7 -318.25 2.75 -318.0 3.1 -317.8 3.5 -317.65 3.85 -317.5 4.25 -317.55 4.6 -317.65 5.0 -317.75 5.35 -317.9 5.75 -318.15 6.1 -318.6 6.5 -318.9 6.75 -320.0 6.85 -320.25 6.85 -321.0 7.0 -322.15 6.75 Q-324.05 5.45 -326.0 4.3 L-327.9 2.6 Q-330.65 0.7 -332.95 -1.8 L-335.9 -4.9 -336.6 -5.3 -337.1 -5.65 -337.5 -6.0 -337.9 -6.75" fill="#000000" fill-rule="evenodd" stroke="none"/>
  </g>
</svg>
