<?xml version="1.0" encoding="UTF-8" standalone="no"?>
<svg xmlns:ffdec="https://www.free-decompiler.com/flash" xmlns:xlink="http://www.w3.org/1999/xlink" ffdec:objectType="shape" height="37.3px" width="37.9px" xmlns="http://www.w3.org/2000/svg">
  <g transform="matrix(1.0, 0.0, 0.0, 1.0, 19.1, 18.6)">
    <path d="M-10.0 -13.1 L13.0 9.9 10.0 12.9 -13.0 -10.1 -10.0 -13.1" fill="#b1e7e0" fill-rule="evenodd" stroke="none"/>
    <path d="M15.25 -6.7 L15.45 -6.65 15.7 -6.45 15.8 -6.3 15.85 -6.1 15.95 -5.9 15.95 -5.7 15.95 -5.55 15.95 -5.35 15.95 -5.15 15.95 -4.95 15.95 -4.8 15.95 -4.6 15.95 -4.4 15.95 -4.2 15.95 -4.05 15.95 -3.85 15.95 -3.65 15.95 -3.45 15.95 -3.25 15.95 -3.1 15.95 -2.9 15.95 -2.7 15.95 -2.5 15.95 -2.35 15.95 -2.15 15.95 -1.95 15.95 -1.75 15.95 -1.6 15.95 -1.4 15.95 -1.2 15.95 -1.0 15.95 -0.85 15.95 -0.65 15.95 -0.45 15.95 -0.25 15.95 -0.1 15.95 0.1 15.95 0.3 15.95 0.5 15.95 0.65 15.95 0.85 16.05 1.05 16.1 1.25 16.2 1.4 16.2 1.6 16.2 1.8 16.1 2.0 16.05 2.15 15.95 2.35 15.7 2.55 15.25 2.65 14.8 2.55 14.55 2.35 14.35 2.15 14.2 2.0 14.1 1.8 14.05 1.6 14.05 1.4 14.05 1.25 14.05 1.05 14.05 0.85 14.05 0.65 14.05 0.5 14.05 0.3 14.05 0.1 14.05 -0.1 14.05 -0.25 14.05 -0.45 14.05 -0.65 14.05 -0.85 14.05 -1.0 14.05 -1.2 14.05 -1.4 14.05 -1.6 14.05 -1.75 14.05 -1.95 14.05 -2.15 14.05 -2.35 14.05 -2.5 14.05 -2.7 14.05 -2.9 14.05 -3.1 14.05 -3.25 14.05 -3.45 14.05 -3.65 14.05 -3.85 14.05 -4.05 14.05 -4.2 14.05 -4.4 14.05 -4.6 14.05 -4.8 14.05 -4.95 14.05 -5.15 14.05 -5.35 14.05 -5.55 14.05 -5.7 14.05 -5.9 14.05 -6.1 14.1 -6.3 14.3 -6.45 14.55 -6.65 15.0 -6.7 15.0 -6.8 15.25 -6.7 M2.6 15.9 L2.6 16.0 2.7 16.15 2.7 16.35 2.6 16.55 2.5 16.75 2.35 16.9 2.2 17.05 2.05 17.1 1.75 17.15 -4.3 17.3 -4.75 17.4 -7.25 17.4 -7.7 17.3 -7.95 17.1 -8.15 16.9 -8.2 16.75 -8.2 16.55 -8.2 16.35 -8.15 16.15 -8.05 16.0 -7.95 15.9 -7.9 15.8 -7.7 15.65 -7.55 15.6 -7.25 15.55 -5.2 15.4 -4.75 15.35 -4.75 15.3 1.75 15.3 2.2 15.4 2.45 15.6 2.55 15.8 2.6 15.9 M-15.85 7.85 L-15.95 7.8 -16.2 7.6 -16.4 7.4 -16.45 7.25 -16.45 7.05 -16.45 6.85 -16.45 6.65 -16.45 6.5 -16.45 6.3 -16.45 6.1 -16.45 5.9 -16.45 5.75 -16.45 5.55 -16.45 5.35 -16.45 5.15 -16.45 5.0 -16.45 4.8 -16.45 4.6 -16.45 4.4 -16.45 4.25 -16.45 4.05 -16.45 3.85 -16.45 3.65 -16.45 3.5 -16.45 3.3 -16.45 3.1 -16.45 2.9 -16.45 2.75 -16.4 2.55 -16.2 2.35 -15.95 2.15 -15.85 2.15 -15.5 2.1 -15.5 2.05 -15.1 2.15 -14.85 2.35 -14.7 2.55 -14.65 2.75 -14.5 2.9 -14.45 3.1 -14.4 3.3 -14.25 3.5 -14.15 3.65 -14.1 3.85 -14.1 4.05 -14.0 4.25 -13.9 4.4 -13.85 4.6 -13.7 4.8 -13.65 5.0 -13.35 5.15 -13.1 5.35 -12.95 5.55 -12.9 5.75 -12.85 5.9 -12.85 6.1 -12.9 6.3 -13.0 6.5 -13.15 6.65 -13.35 6.8 -13.45 6.85 -13.75 6.9 -14.25 6.9 -14.6 7.0 -14.65 7.15 -14.7 7.35 -14.75 7.55 -15.0 7.75 -15.2 7.85 -15.5 7.9 -15.85 7.85 M-7.2 -15.15 L-7.05 -15.2 -6.75 -15.2 -6.75 -15.3 -5.75 -15.3 -5.3 -15.15 -2.25 -15.05 -1.8 -14.9 -1.5 -14.7 -1.15 -14.55 -1.0 -14.35 -0.9 -14.15 -0.8 -13.95 -0.8 -13.8 -0.9 -13.6 -0.95 -13.4 -1.05 -13.2 -1.3 -13.05 -1.75 -12.9 -2.0 -12.9 -2.45 -13.05 -5.75 -13.15 -6.2 -13.3 -6.75 -13.4 -7.2 -13.55 -7.45 -13.7 -7.65 -13.9 -7.7 -14.1 -7.7 -14.3 -7.7 -14.45 -7.65 -14.65 -7.55 -14.85 -7.4 -15.05 -7.2 -15.15" fill="#999999" fill-rule="evenodd" stroke="none"/>
    <path d="M15.25 2.65 L15.25 15.9 2.6 15.9 M-7.95 15.9 L-15.85 15.9 -15.85 7.85 M-15.85 2.15 L-15.85 -15.15 -7.2 -15.15 M-5.3 -15.15 L15.25 -15.15 15.25 -6.7" fill="none" stroke="#898989" stroke-linecap="round" stroke-linejoin="round" stroke-width="3.35"/>
    <path d="M7.5 -15.65 L7.6 -15.45 7.6 -15.3 7.55 -15.1 7.45 -14.9 7.25 -14.8 7.0 -14.7 -0.15 -14.7 -0.2 -14.6 -0.3 -14.4 -0.5 -14.3 -0.75 -14.2 -6.5 -14.2 -6.9 -14.35 -7.05 -14.55 -7.15 -14.7 -7.15 -14.9 -7.15 -15.1 -6.95 -15.3 -6.75 -15.4 -6.5 -15.4 -6.5 -15.45 -0.9 -15.45 -0.9 -15.6 -0.7 -15.8 -0.5 -15.9 -0.25 -15.9 -0.25 -15.95 7.0 -15.95 7.3 -15.85 7.5 -15.65 M13.75 -6.45 L14.05 -6.35 14.25 -6.15 14.35 -5.95 14.35 -5.8 14.35 -5.6 14.35 -5.4 14.35 -5.2 14.35 -5.05 14.35 -4.85 14.35 -4.65 14.35 -4.45 14.35 -4.3 14.3 -4.1 14.2 -3.9 14.1 -3.7 14.1 -3.5 14.1 -3.35 14.1 -3.15 14.1 -2.95 14.1 -2.75 14.1 -2.6 14.1 -2.4 14.1 -2.2 14.1 -2.0 14.1 -1.85 14.1 -1.65 14.1 -1.45 14.1 -1.25 14.1 -1.1 14.1 -0.9 14.1 -0.7 14.1 -0.5 14.1 -0.35 14.1 -0.15 14.1 0.05 14.1 0.25 14.1 0.4 14.1 0.6 14.1 0.8 14.1 1.0 14.05 1.15 14.0 1.35 13.85 1.5 13.75 1.55 13.5 1.6 13.1 1.5 12.95 1.3 12.85 1.1 12.85 0.9 12.85 0.75 12.85 0.55 12.85 0.35 12.85 0.15 12.85 0.0 12.85 -0.2 12.85 -0.4 12.85 -0.6 12.85 -0.75 12.85 -0.95 12.85 -1.15 12.85 -1.35 12.85 -1.5 12.85 -1.7 12.85 -1.9 12.85 -2.1 12.85 -2.25 12.85 -2.45 12.85 -2.65 12.85 -2.85 12.85 -3.0 12.85 -3.2 12.85 -3.4 12.85 -3.6 12.85 -3.75 12.85 -3.95 12.85 -4.15 12.85 -4.35 12.85 -4.55 13.0 -4.7 13.1 -4.9 13.1 -5.1 13.1 -5.3 13.1 -5.45 13.1 -5.65 13.1 -5.85 13.1 -6.05 13.25 -6.2 13.35 -6.35 13.5 -6.4 13.75 -6.4 13.75 -6.45 M1.3 15.5 L1.5 15.65 1.6 15.85 1.6 16.05 1.55 16.25 1.45 16.4 1.25 16.55 1.0 16.6 -6.5 16.6 -6.9 16.5 -7.05 16.3 -7.15 16.1 -7.15 15.9 -7.15 15.75 -6.95 15.55 -6.75 15.4 -6.5 15.4 -6.5 15.35 1.0 15.35 1.3 15.5 M-15.25 -3.4 L-15.15 -3.6 -15.15 -3.75 -15.0 -3.95 -14.9 -4.1 -14.75 -4.15 -14.5 -4.15 -14.5 -4.2 -14.2 -4.1 -14.0 -3.9 -13.9 -3.7 -13.9 -3.5 -13.9 -3.35 -13.9 -3.15 -14.0 -2.95 -14.15 -2.75 -14.15 -2.6 -14.15 -2.4 -14.15 -2.2 -14.15 -2.0 -14.15 -1.85 -14.15 -1.65 -14.15 -1.45 -14.15 -1.25 -14.15 -1.1 -14.15 -0.9 -14.15 -0.7 -14.15 -0.5 -14.2 -0.35 -14.25 -0.15 -14.4 0.05 -14.4 0.25 -14.4 0.4 -14.4 0.6 -14.4 0.8 -14.4 1.0 -14.4 1.15 -14.4 1.35 -14.4 1.55 -14.4 1.75 -14.4 1.9 -14.4 2.1 -14.4 2.3 -14.4 2.5 -14.4 2.65 -14.4 2.85 -14.4 3.05 -14.4 3.25 -14.4 3.4 -14.4 3.6 -14.4 3.8 -14.4 4.0 -14.4 4.15 -14.4 4.35 -14.4 4.55 -14.4 4.75 -14.4 4.9 -14.4 5.1 -14.4 5.3 -14.4 5.5 -14.45 5.65 -14.5 5.85 -14.65 6.0 -14.75 6.05 -15.0 6.1 -15.4 6.0 -15.6 5.8 -15.65 5.6 -15.65 5.4 -15.65 5.25 -15.65 5.05 -15.65 4.85 -15.65 4.65 -15.65 4.5 -15.65 4.3 -15.65 4.1 -15.65 3.9 -15.65 3.75 -15.65 3.55 -15.65 3.35 -15.65 3.15 -15.65 3.0 -15.65 2.8 -15.65 2.6 -15.65 2.4 -15.65 2.25 -15.65 2.05 -15.65 1.85 -15.65 1.65 -15.65 1.5 -15.65 1.3 -15.65 1.1 -15.65 0.9 -15.65 0.75 -15.65 0.55 -15.65 0.35 -15.65 0.15 -15.65 0.0 -15.65 -0.2 -15.65 -0.4 -15.65 -0.6 -15.65 -0.75 -15.45 -0.95 -15.4 -1.15 -15.4 -1.35 -15.4 -1.5 -15.4 -1.7 -15.4 -1.9 -15.4 -2.1 -15.4 -2.25 -15.4 -2.45 -15.4 -2.65 -15.4 -2.85 -15.4 -3.0 -15.4 -3.2 -15.25 -3.4" fill="#666666" fill-rule="evenodd" stroke="none"/>
    <path d="M15.4 -15.6 Q15.2 -16.75 14.75 -16.75 L14.4 -16.6 14.2 -16.45 13.6 -16.65 12.8 -16.1 12.75 -16.0 12.7 -16.05 13.0 -16.65 Q13.0 -17.55 12.35 -17.1 L11.4 -16.3 10.9 -16.75 10.3 -16.5 9.0 -17.0 Q8.75 -17.0 8.45 -16.65 L8.4 -17.3 9.8 -17.2 13.0 -17.45 15.9 -17.2 15.95 -17.15 Q16.65 -17.0 17.25 -16.3 L17.5 -15.75 17.35 -11.95 17.35 -11.9 17.35 -11.3 Q17.45 -8.3 17.15 -7.5 L15.95 -7.5 14.7 -7.3 14.6 -7.3 11.6 -10.7 11.85 -10.9 12.0 -10.75 Q12.6 -10.15 13.2 -10.15 14.1 -10.15 16.4 -14.55 16.4 -15.25 15.45 -15.25 L15.4 -15.55 15.4 -15.6 M12.8 17.35 Q13.35 17.2 14.85 15.05 16.4 12.8 16.4 12.35 L16.15 11.3 16.4 10.4 16.65 9.5 16.5 8.35 16.9 8.35 17.3 8.1 17.25 9.75 17.5 12.95 17.25 15.85 17.2 15.9 Q17.05 16.6 16.35 17.2 L15.8 17.45 12.8 17.35 M16.45 12.4 L16.4 12.5 16.5 12.8 16.45 12.4 M-8.7 -15.9 L-8.65 -15.95 Q-8.0 -16.15 -8.0 -16.65 -8.0 -17.05 -9.0 -17.2 L-11.5 -17.4 -11.5 -17.5 -9.0 -17.5 -7.8 -17.3 -7.9 -16.85 -7.65 -15.35 -7.55 -15.0 -7.6 -14.9 -7.6 -14.85 -9.0 -13.9 -11.85 -11.2 -14.4 -8.3 -15.6 -8.25 -15.7 -8.25 -15.65 -8.3 -15.5 -8.4 -15.35 -8.4 Q-14.75 -8.4 -14.75 -9.25 -15.0 -11.65 -13.9 -12.65 -12.3 -13.85 -12.0 -14.45 -11.4 -15.35 -9.9 -15.35 L-9.0 -15.45 -8.6 -15.75 -8.7 -15.9" fill="#999999" fill-opacity="0.99215686" fill-rule="evenodd" stroke="none"/>
    <path d="M12.75 -16.0 L12.8 -16.1 13.6 -16.65 14.2 -16.45 14.4 -16.6 14.75 -16.75 Q15.2 -16.75 15.4 -15.6 L15.35 -15.6 Q14.75 -17.4 13.15 -15.15 12.1 -13.6 11.7 -12.5 L11.15 -12.05 11.05 -12.15 Q10.75 -12.55 10.75 -12.9 10.1 -12.9 9.95 -13.35 L9.35 -12.95 8.55 -13.6 8.6 -13.95 8.6 -14.15 8.6 -14.2 8.65 -14.65 8.6 -14.65 8.45 -16.55 8.45 -16.65 Q8.75 -17.0 9.0 -17.0 L10.3 -16.5 10.9 -16.75 11.4 -16.3 12.35 -17.1 Q13.0 -17.55 13.0 -16.65 L12.7 -16.05 12.35 -15.5 12.35 -15.45 12.7 -15.95 12.75 -16.0 M14.7 9.4 L14.7 8.9 14.7 8.95 14.5 9.2 14.7 9.4 M15.8 8.35 L15.15 9.05 13.15 12.0 11.25 14.3 9.65 16.6 9.5 16.6 9.2 16.5 Q9.0 17.1 8.65 17.1 L8.1 16.75 8.0 15.7 Q8.0 14.9 8.6 13.95 L8.5 13.85 14.4 8.3 15.8 8.35 M-8.7 -15.9 L-8.75 -16.05 -9.0 -16.2 -9.55 -16.3 Q-9.5 -17.25 -12.45 -16.6 -15.45 -15.95 -15.6 -15.15 L-16.1 -13.4 -16.5 -11.6 -16.1 -10.6 -16.35 -9.75 Q-16.05 -8.6 -15.5 -8.4 L-15.65 -8.3 -15.7 -8.25 -16.85 -8.0 -17.1 -9.3 -17.25 -10.05 -17.25 -10.2 Q-17.6 -10.35 -17.5 -10.95 L-17.3 -13.75 -17.35 -15.2 -17.1 -15.8 -17.1 -16.05 -16.5 -16.95 -15.9 -17.15 -14.1 -17.4 -13.45 -17.4 -13.05 -17.4 -12.25 -17.4 -12.15 -17.4 -11.6 -17.4 -11.5 -17.4 -9.0 -17.2 Q-8.0 -17.05 -8.0 -16.65 -8.0 -16.15 -8.65 -15.95 L-8.7 -15.9 M-16.9 15.8 L-17.1 15.3 Q-17.1 14.95 -16.7 14.55 -16.3 14.2 -16.3 13.6 -16.8 13.4 -17.0 12.2 L-16.75 11.5 -16.55 10.85 Q-16.75 10.6 -16.75 9.4 L-17.35 8.8 Q-17.35 8.15 -17.0 7.85 L-16.25 7.85 -15.8 7.85 -15.5 8.6 -15.1 8.5 Q-14.75 8.5 -14.65 8.8 L-14.6 9.1 -14.8 9.7 -14.55 9.75 Q-14.35 9.8 -14.35 10.3 L-13.6 9.85 Q-13.0 9.85 -13.0 10.3 L-13.25 10.85 -14.2 11.8 Q-16.85 14.6 -16.85 15.75 L-16.9 15.8" fill="#cccccc" fill-opacity="0.99215686" fill-rule="evenodd" stroke="none"/>
    <path d="M12.7 -16.05 L12.75 -16.0 12.7 -15.95 12.7 -16.05 M-11.5 -17.5 L-11.5 -17.4 -11.6 -17.5 -11.5 -17.5" fill="#9a2716" fill-rule="evenodd" stroke="none"/>
    <path d="M12.7 -15.95 L12.35 -15.45 12.35 -15.5 12.7 -16.05 12.7 -15.95 M14.7 9.4 L14.5 9.2 14.7 8.95 14.7 8.9 14.7 9.4 M-11.5 -17.4 L-11.6 -17.4 -12.15 -17.4 -12.25 -17.4 -12.25 -17.5 -12.2 -17.5 -12.15 -17.5 -11.6 -17.5 -11.5 -17.4 M-11.5 13.05 L-11.5 13.1 -11.55 13.1 -11.5 13.05" fill="#62382b" fill-rule="evenodd" stroke="none"/>
    <path d="M15.4 -15.55 L15.45 -15.25 Q16.4 -15.25 16.4 -14.55 14.1 -10.15 13.2 -10.15 12.6 -10.15 12.0 -10.75 L11.85 -10.9 11.6 -10.7 11.15 -11.15 10.9 -11.4 11.15 -12.05 11.7 -12.5 Q12.1 -13.6 13.15 -15.15 14.75 -17.4 15.35 -15.6 L15.4 -15.55 M9.65 16.6 L11.25 14.3 13.15 12.0 15.15 9.05 15.8 8.35 16.5 8.35 16.65 9.5 16.4 10.4 16.15 11.3 16.4 12.35 Q16.4 12.8 14.85 15.05 13.35 17.2 12.8 17.35 L12.7 17.35 12.5 17.35 Q12.15 17.25 12.15 16.9 L12.2 16.45 11.5 16.45 10.85 17.05 10.55 17.35 10.0 17.6 Q9.6 17.6 9.5 17.35 L9.5 17.3 9.5 17.0 9.65 16.6 M-15.5 -8.4 Q-16.05 -8.6 -16.35 -9.75 L-16.1 -10.6 -16.5 -11.6 -16.1 -13.4 -15.6 -15.15 Q-15.45 -15.95 -12.45 -16.6 -9.5 -17.25 -9.55 -16.3 L-9.0 -16.2 -8.75 -16.05 -8.7 -15.9 -8.6 -15.75 -9.0 -15.45 -9.9 -15.35 Q-11.4 -15.35 -12.0 -14.45 -12.3 -13.85 -13.9 -12.65 -15.0 -11.65 -14.75 -9.25 -14.75 -8.4 -15.35 -8.4 L-15.5 -8.4 M-14.4 -14.4 L-14.75 -14.35 -14.75 -14.15 -14.4 -14.4 M-11.75 10.75 L-12.3 11.55 -11.55 12.05 Q-11.25 12.15 -11.25 12.5 L-11.5 13.05 -11.55 13.1 -11.5 13.1 Q-10.35 13.4 -10.35 14.0 L-11.15 15.45 -12.15 16.5 -12.6 16.4 -12.7 16.3 -12.8 16.0 Q-13.0 16.5 -13.5 16.5 -13.75 16.5 -14.0 16.15 L-14.45 16.65 Q-14.75 17.0 -15.0 17.0 -15.55 17.0 -15.6 16.4 L-15.5 15.7 -15.55 15.65 -15.9 16.1 -16.35 16.35 Q-16.85 16.35 -16.85 15.8 L-16.85 15.75 Q-16.85 14.6 -14.2 11.8 L-13.25 10.85 Q-12.7 10.3 -12.3 10.1 L-11.75 10.75" fill="#b8dedc" fill-rule="evenodd" stroke="none"/>
    <path d="M15.4 -15.6 L15.4 -15.55 15.35 -15.6 15.4 -15.6 M-14.4 -14.4 L-14.75 -14.15 -14.75 -14.35 -14.4 -14.4 M-16.85 15.8 L-16.9 15.8 -16.85 15.75 -16.85 15.8" fill="#8a695a" fill-rule="evenodd" stroke="none"/>
    <path d="M8.6 -14.2 L8.6 -14.65 8.65 -14.65 8.6 -14.2 M8.55 -13.6 L8.25 -13.8 8.55 -13.85 8.6 -13.95 8.55 -13.6 M11.4 10.25 L10.85 10.8 9.65 11.8 11.0 10.6 11.4 10.25 M7.25 16.8 L7.35 16.6 7.45 17.05 7.25 16.8" fill="#dfb300" fill-rule="evenodd" stroke="none"/>
    <path d="M9.35 -12.95 L9.95 -13.35 Q10.1 -12.9 10.75 -12.9 10.75 -12.55 11.05 -12.15 L11.15 -12.05 10.9 -11.4 9.35 -12.95 M8.5 13.85 L8.6 13.95 Q8.0 14.9 8.0 15.7 L7.95 15.05 7.7 14.35 8.5 13.85 M8.1 16.75 L8.65 17.1 Q9.0 17.1 9.2 16.5 L9.5 16.6 9.65 16.6 9.5 17.0 9.5 17.3 9.5 17.35 8.05 17.25 8.1 16.8 8.1 16.75 M10.55 17.35 L10.85 17.05 11.5 16.45 12.2 16.45 12.15 16.9 Q12.15 17.25 12.5 17.35 L12.0 17.3 11.95 17.3 11.35 17.3 10.55 17.35 M-12.25 -17.4 L-13.05 -17.4 -13.45 -17.4 -14.1 -17.4 -15.9 -17.15 -16.5 -16.95 -17.1 -16.05 -17.1 -15.8 -17.35 -15.2 -17.3 -13.75 -17.5 -10.95 Q-17.6 -10.35 -17.25 -10.2 L-17.25 -10.05 -17.1 -9.3 -16.85 -8.0 -17.0 -7.9 -17.05 -7.9 Q-17.9 -7.9 -17.5 -9.95 L-17.75 -13.15 -17.5 -16.05 -17.45 -16.1 Q-17.3 -16.8 -16.6 -17.4 L-16.05 -17.65 -12.25 -17.5 -12.25 -17.4" fill="#999999" fill-rule="evenodd" stroke="none"/>
    <path d="M-17.0 7.85 L-17.45 7.75 -17.8 7.5 Q-17.8 7.2 -15.8 6.9 L-13.8 7.05 -13.8 7.2 -13.25 7.75 -10.95 10.35 Q-10.45 11.35 -9.0 12.65 L-8.85 12.75 Q-7.55 13.9 -7.55 14.4 L-7.6 14.8 -7.85 14.85 -7.9 14.8 -7.8 16.8 -7.8 17.45 -8.15 17.6 -8.55 17.3 -8.65 15.75 Q-8.9 14.6 -8.4 14.3 L-9.0 13.7 -11.75 10.75 -12.3 10.1 -14.5 7.7 -15.8 7.85 -16.25 7.85 -17.0 7.85" fill="#666666" fill-opacity="0.99215686" fill-rule="evenodd" stroke="none"/>
    <path d="M-13.25 10.85 L-13.0 10.3 Q-13.0 9.85 -13.6 9.85 L-14.35 10.3 Q-14.35 9.8 -14.55 9.75 L-14.8 9.7 -14.6 9.1 -14.65 8.8 Q-14.75 8.5 -15.1 8.5 L-15.5 8.6 -15.8 7.85 -14.5 7.7 -12.3 10.1 Q-12.7 10.3 -13.25 10.85" fill="#cccccc" fill-rule="evenodd" stroke="none"/>
    <path d="M-17.0 7.85 Q-17.35 8.15 -17.35 8.8 L-16.75 9.4 Q-16.75 10.6 -16.55 10.85 L-16.75 11.5 -17.0 12.2 Q-16.8 13.4 -16.3 13.6 -16.3 14.2 -16.7 14.55 -17.1 14.95 -17.1 15.3 L-16.9 15.8 -16.85 15.8 Q-16.85 16.35 -16.35 16.35 L-15.9 16.1 -15.55 15.65 -15.5 15.7 -15.6 16.4 Q-15.55 17.0 -15.0 17.0 -14.75 17.0 -14.45 16.65 L-14.0 16.15 Q-13.75 16.5 -13.5 16.5 -13.0 16.5 -12.8 16.0 L-12.7 16.3 -12.6 16.4 -12.15 16.5 -11.15 15.45 -10.35 14.0 Q-10.35 13.4 -11.5 13.1 L-11.5 13.05 -11.25 12.5 Q-11.25 12.15 -11.55 12.05 L-12.3 11.55 -11.75 10.75 -9.0 13.7 -8.4 14.3 Q-8.9 14.6 -8.65 15.75 L-8.55 17.3 -9.0 17.35 -10.05 17.2 -13.25 17.45 -16.15 17.2 -16.2 17.15 -17.5 16.3 -17.75 15.75 -17.6 11.95 -17.6 11.9 -17.6 11.3 Q-17.7 8.7 -17.45 7.75 L-17.0 7.85 M-12.6 16.4 L-12.8 16.35 -13.1 16.45 -12.6 16.4" fill="#979897" fill-opacity="0.99215686" fill-rule="evenodd" stroke="none"/>
    <path d="M15.6 -9.4 Q15.2 -8.15 14.6 -8.15 L13.6 -8.3 Q12.6 -8.3 12.6 -9.7 12.05 -9.7 11.95 -10.15 L11.95 -10.65 11.95 -11.2 Q12.0 -11.65 12.45 -11.65 L12.95 -11.4 13.3 -12.5 Q13.5 -13.1 13.95 -12.3 L14.4 -12.55 Q14.9 -12.55 14.95 -12.2 L14.85 -11.7 14.9 -11.6 15.05 -11.55 Q15.3 -11.55 15.5 -11.8 15.85 -11.5 15.85 -10.85 L15.6 -9.4 M15.1 8.05 Q15.5 8.35 15.85 8.25 L16.35 8.1 16.5 8.15 Q16.65 7.65 17.1 7.9 17.85 8.3 17.85 9.9 L17.8 11.05 17.5 11.1 16.85 10.1 16.85 10.6 16.9 10.65 17.45 11.35 17.45 13.3 17.1 13.45 Q16.35 13.45 16.2 12.85 L16.15 12.1 16.05 11.95 15.45 12.45 15.1 12.95 15.2 13.15 15.35 14.15 15.3 15.0 14.95 15.9 14.7 16.0 15.25 15.95 Q16.3 15.95 16.35 16.75 16.35 16.95 13.55 17.6 L12.95 16.9 12.6 16.2 Q12.6 15.75 13.35 15.15 14.1 14.55 14.1 13.85 L13.95 12.65 Q14.0 12.1 14.45 11.9 L14.5 11.8 14.2 11.45 Q13.95 11.75 13.2 11.9 13.2 12.7 12.8 12.7 L12.2 12.25 11.85 11.8 12.45 9.8 Q13.15 8.1 13.65 8.1 13.9 8.1 14.1 8.3 L14.15 7.7 Q14.5 7.5 15.1 8.05 M-9.35 -14.45 L-10.05 -14.35 Q-10.05 -14.0 -10.4 -13.0 -10.85 -11.8 -11.35 -11.8 L-11.65 -11.85 Q-12.0 -11.9 -12.15 -12.05 -12.25 -11.3 -12.55 -11.3 -13.1 -11.3 -13.3 -13.0 -13.3 -13.4 -12.85 -13.4 L-12.9 -13.7 -12.85 -14.3 -13.05 -14.45 Q-13.25 -14.3 -13.3 -14.3 L-13.9 -15.05 -14.25 -15.35 -14.3 -15.35 -14.25 -15.5 -14.3 -15.75 -14.65 -15.55 -15.05 -15.7 -15.05 -16.55 Q-14.2 -17.1 -13.8 -16.55 L-13.6 -16.15 -13.4 -16.75 Q-13.0 -17.35 -12.2 -16.6 L-11.6 -16.85 Q-11.4 -17.2 -11.15 -16.5 L-11.05 -16.25 -10.75 -16.45 -10.3 -16.55 Q-9.7 -16.55 -9.45 -15.8 L-9.3 -15.0 -9.35 -14.45" fill="#999999" fill-opacity="0.34509805" fill-rule="evenodd" stroke="none"/>
    <path d="M-10.1 -13.15 L13.0 9.9 M-13.05 -10.1 L10.05 12.95" fill="none" stroke="#000000" stroke-linecap="round" stroke-linejoin="round" stroke-width="1.3"/>
    <path d="M14.1 -18.45 L15.6 -18.45 15.8 -18.4 15.95 -18.4 16.0 -18.35 16.2 -18.35 16.4 -18.25 16.5 -18.2 16.7 -18.15 16.9 -18.1 17.05 -18.0 17.15 -17.9 17.3 -17.85 17.45 -17.75 17.55 -17.65 17.6 -17.55 17.65 -17.45 17.7 -17.35 17.8 -17.25 17.85 -17.15 17.9 -17.1 18.0 -17.0 18.05 -16.9 18.1 -16.8 18.1 -16.7 18.15 -16.6 18.2 -16.5 18.25 -16.4 18.25 -16.35 18.3 -16.25 18.3 -16.15 18.35 -16.05 18.35 -15.95 18.4 -15.85 18.45 -15.75 18.45 -15.65 18.45 -15.6 18.5 -15.5 18.55 -15.4 18.55 -15.3 18.55 -15.2 18.55 -15.1 18.6 -15.0 18.65 -14.9 18.65 -14.85 18.7 -14.75 18.7 -14.65 18.7 -14.55 18.7 -14.45 18.7 -14.35 18.7 -14.25 18.7 -14.15 18.7 -14.1 18.7 -14.0 18.7 -13.9 18.7 -13.8 18.7 -13.7 18.7 -13.6 18.7 -13.5 18.7 -13.4 18.7 -13.35 18.7 -13.25 18.7 -13.15 18.7 -13.05 18.7 -12.95 18.7 -12.85 18.7 -12.75 18.7 -12.65 18.7 -12.6 18.7 -12.5 18.7 -12.4 18.7 -12.3 18.7 -12.2 18.7 -12.1 18.7 -12.0 18.7 -11.9 18.7 -11.85 18.7 -11.75 18.7 -11.65 18.7 -11.55 18.7 -11.45 18.7 -11.35 18.7 -11.25 18.7 -11.15 18.7 -11.1 18.7 -11.0 18.7 -10.9 18.7 -10.8 18.7 -10.7 18.7 -10.6 18.7 -10.5 18.7 -10.4 18.7 -10.35 18.7 -10.25 18.7 -10.15 18.7 -10.05 18.7 -9.95 18.7 -9.85 18.7 -9.75 18.7 -9.65 18.7 -9.6 18.7 -9.5 18.7 -9.4 18.7 -9.3 18.7 -9.2 18.7 -9.1 18.7 -9.0 18.7 -8.9 18.7 -8.85 18.7 -8.75 18.7 -8.65 18.7 -8.55 18.7 -8.45 18.7 -8.35 18.7 -8.25 18.7 -8.15 18.7 -8.1 18.7 -8.0 18.7 -7.9 18.7 -7.8 18.7 -7.7 18.7 -7.6 18.7 -7.5 18.7 -7.4 18.7 -7.35 18.7 -7.25 18.7 -7.15 18.7 -7.05 18.7 -6.95 18.65 -6.85 18.65 -6.75 18.6 -6.65 18.55 -6.6 18.5 -6.5 18.45 -6.4 18.35 -6.3 18.25 -6.2 18.15 -6.1 18.05 -6.0 17.95 -5.9 17.9 -5.85 17.9 -5.8 17.9 -5.7 17.9 -5.6 17.85 -5.5 17.85 -5.4 17.85 -5.35 17.85 -5.25 17.85 -5.15 17.85 -5.05 17.85 -4.95 17.85 -4.85 17.85 -4.75 17.8 -4.65 17.8 -4.6 17.8 -4.5 17.8 -4.4 17.8 -4.3 17.8 -4.2 17.8 -4.1 17.8 -4.0 17.8 -3.9 17.8 -3.85 17.8 -3.75 17.8 -3.65 17.8 -3.55 17.8 -3.45 17.8 -3.35 17.8 -3.25 17.8 -3.15 17.8 -3.1 17.8 -3.0 17.8 -2.9 17.8 -2.8 17.8 -2.7 17.8 -2.6 17.8 -2.5 17.8 -2.4 17.8 -2.35 17.8 -2.25 17.8 -2.15 17.8 -2.05 17.8 -1.95 17.8 -1.85 17.8 -1.75 17.8 -1.65 17.8 -1.55 17.8 -1.5 17.8 -1.4 17.8 -1.3 17.8 -1.2 17.8 -1.1 17.8 -1.0 17.8 -0.9 17.8 -0.8 17.8 -0.75 17.8 -0.65 17.8 -0.55 17.8 -0.45 17.8 -0.35 17.8 -0.25 17.8 -0.15 17.8 -0.05 17.8 0.0 17.8 0.1 17.8 0.2 17.8 0.3 17.8 0.4 17.8 0.5 17.8 0.6 17.8 0.7 17.8 0.75 17.8 0.85 17.8 0.95 17.8 1.05 17.75 1.15 17.75 1.25 17.7 1.35 17.7 1.45 17.7 1.5 17.7 1.6 17.7 1.7 17.7 1.8 17.7 1.9 17.7 2.0 17.7 2.1 17.7 2.2 17.7 2.25 17.7 2.35 17.7 2.45 17.65 2.55 17.6 2.65 17.6 2.75 17.55 2.85 17.55 2.95 17.55 3.0 17.55 3.1 17.55 3.2 17.55 3.3 17.55 3.4 17.55 3.5 17.55 3.6 17.55 3.7 17.55 3.75 17.55 3.85 17.55 3.95 17.55 4.05 17.55 4.15 17.55 4.25 17.55 4.35 17.55 4.45 17.55 4.5 17.55 4.6 17.55 4.7 17.55 4.8 17.55 4.9 17.55 5.0 17.55 5.1 17.55 5.2 17.55 5.25 17.6 5.35 17.6 5.45 17.65 5.55 17.7 5.65 17.7 5.75 17.7 5.85 17.7 5.95 17.7 6.0 17.75 6.1 17.8 6.2 17.8 6.3 17.8 6.4 17.8 6.5 17.8 6.6 17.8 6.7 17.8 6.75 17.8 6.85 17.8 6.95 17.8 7.05 17.8 7.15 17.8 7.25 17.8 7.35 17.8 7.45 17.8 7.5 17.9 7.5 18.05 7.6 18.2 7.7 18.35 7.75 18.45 7.85 18.55 7.95 18.6 8.05 18.65 8.15 18.7 8.25 18.75 8.35 18.75 8.45 18.8 8.5 18.8 8.6 18.8 8.7 18.8 8.8 18.8 8.9 18.8 9.0 18.8 9.1 18.8 9.2 18.8 9.25 18.8 9.35 18.8 9.45 18.8 9.55 18.8 9.65 18.8 9.75 18.8 9.85 18.8 9.95 18.8 10.0 18.8 10.1 18.8 10.2 18.8 10.3 18.8 10.4 18.8 10.5 18.8 10.6 18.8 10.7 18.8 10.75 18.8 10.85 18.8 10.95 18.8 11.05 18.8 11.15 18.8 11.25 18.8 11.35 18.8 11.45 18.8 11.5 18.8 11.6 18.8 11.7 18.8 11.8 18.8 11.9 18.8 12.0 18.8 12.1 18.8 12.2 18.8 12.25 18.8 12.35 18.8 12.45 18.8 12.55 18.8 12.65 18.75 12.75 18.75 12.85 18.7 12.95 18.7 13.0 18.7 13.1 18.7 13.2 18.7 13.3 18.7 13.4 18.65 13.5 18.65 13.6 18.6 13.7 18.55 13.75 18.55 13.85 18.55 13.95 18.55 14.05 18.5 14.15 18.5 14.25 18.45 14.35 18.45 14.45 18.45 14.5 18.45 14.6 18.45 14.7 18.45 14.8 18.4 14.9 18.4 15.0 18.35 15.1 18.3 15.2 18.25 15.25 18.2 15.35 18.2 15.45 18.15 15.55 18.1 15.65 18.05 15.75 18.05 15.85 18.05 15.95 18.0 16.0 17.95 16.1 17.95 16.2 17.95 16.3 17.95 16.4 17.95 16.5 17.95 16.6 17.9 16.7 17.85 16.75 17.85 16.85 17.8 16.95 17.75 17.05 17.7 17.15 17.6 17.25 17.55 17.35 17.45 17.45 17.35 17.5 17.25 17.6 17.2 17.6 17.0 17.7 16.8 17.75 16.55 17.8 16.45 17.85 16.3 17.9 16.1 17.95 15.2 17.95 15.05 18.0 14.85 18.0 14.15 18.1 13.95 18.15 13.75 18.2 8.0 18.2 7.8 18.15 7.6 18.1 7.45 18.0 7.35 17.9 7.25 17.8 7.2 17.7 7.1 17.6 7.1 17.55 3.9 17.6 3.7 17.65 3.5 17.7 3.1 17.7 2.95 17.75 2.75 17.75 2.15 17.85 1.95 17.9 1.75 17.95 0.45 17.95 0.3 18.0 0.1 18.0 -4.9 18.0 -5.1 18.0 -5.25 17.95 -6.25 17.95 -6.45 17.9 -6.65 17.85 -6.95 17.85 -7.0 17.85 -7.05 17.95 -7.15 18.0 -7.25 18.1 -7.3 18.2 -7.4 18.3 -7.55 18.4 -7.75 18.5 -7.85 18.6 -8.05 18.65 -8.25 18.7 -14.65 18.7 -14.85 18.65 -15.05 18.6 -15.25 18.5 -15.45 18.5 -15.6 18.45 -16.0 18.45 -16.2 18.4 -16.4 18.35 -16.55 18.25 -16.7 18.15 -16.9 18.05 -17.0 17.95 -17.1 17.85 -17.2 17.75 -17.3 17.7 -17.5 17.6 -17.55 17.5 -17.75 17.4 -17.85 17.3 -17.95 17.2 -18.05 17.1 -18.1 17.0 -18.15 16.95 -18.15 16.85 -18.2 16.75 -18.2 16.65 -18.2 16.55 -18.2 16.45 -18.2 16.35 -18.2 16.25 -18.2 16.2 -18.2 16.1 -18.2 16.0 -18.2 15.9 -18.2 15.8 -18.2 15.7 -18.2 15.6 -18.2 15.5 -18.2 15.45 -18.2 15.35 -18.2 15.25 -18.2 15.15 -18.2 15.05 -18.25 14.95 -18.3 14.85 -18.3 14.75 -18.35 14.7 -18.35 14.6 -18.35 14.5 -18.35 14.4 -18.35 14.3 -18.35 14.2 -18.35 14.1 -18.35 14.0 -18.35 13.95 -18.35 13.85 -18.35 13.75 -18.35 13.65 -18.35 13.55 -18.35 13.45 -18.35 13.35 -18.35 13.25 -18.35 13.2 -18.35 13.1 -18.35 13.0 -18.35 12.9 -18.4 12.8 -18.4 12.7 -18.4 12.6 -18.45 12.5 -18.45 12.45 -18.45 12.35 -18.45 12.25 -18.45 12.15 -18.45 12.05 -18.45 11.95 -18.45 11.85 -18.45 11.75 -18.45 11.7 -18.5 11.6 -18.5 11.5 -18.5 11.4 -18.5 11.3 -18.5 11.2 -18.5 11.1 -18.5 11.0 -18.5 10.95 -18.5 10.85 -18.5 10.75 -18.5 10.65 -18.5 10.45 -18.5 10.25 -18.5 10.1 -18.5 9.9 -18.5 9.7 -18.5 9.6 -18.5 9.5 -18.5 9.45 -18.5 9.35 -18.5 9.25 -18.5 9.15 -18.55 9.05 -18.55 8.95 -18.55 8.85 -18.6 8.75 -18.65 8.7 -18.65 8.4 -18.65 8.1 -18.65 7.85 -18.65 7.55 -18.65 7.25 -18.65 7.1 -18.65 7.0 -18.55 6.9 -18.45 6.8 -18.35 6.7 -18.25 6.6 -18.15 6.5 -18.0 6.45 -17.8 6.35 -17.75 6.25 -17.7 6.25 -17.7 6.2 -17.7 6.1 -17.7 6.0 -17.7 5.9 -17.7 5.8 -17.7 5.7 -17.7 5.6 -17.7 5.5 -17.7 5.45 -17.7 5.35 -17.75 5.25 -17.75 5.15 -17.8 5.05 -17.8 4.95 -17.85 4.85 -17.85 4.75 -17.85 4.7 -17.85 4.6 -17.85 4.5 -17.85 4.4 -17.85 4.3 -17.85 4.2 -17.85 4.1 -17.85 4.0 -17.85 3.95 -17.85 3.85 -17.85 3.75 -17.85 3.65 -17.85 3.55 -17.85 3.45 -17.85 3.35 -17.85 3.25 -17.85 3.2 -17.85 3.1 -17.85 3.0 -17.85 2.9 -17.85 2.8 -17.85 2.7 -17.85 2.6 -17.85 2.5 -17.85 2.45 -17.85 2.35 -17.85 2.25 -17.9 2.15 -17.9 2.05 -17.95 1.95 -17.95 1.85 -17.95 1.75 -17.95 1.7 -17.95 1.6 -17.95 1.5 -17.95 1.4 -17.95 1.3 -17.95 1.2 -17.95 1.1 -17.95 1.0 -17.95 0.95 -17.95 0.85 -17.95 0.75 -17.95 0.65 -17.95 0.55 -17.95 0.45 -17.95 0.35 -17.95 0.25 -17.95 0.2 -17.95 0.1 -17.95 0.0 -17.95 -0.1 -17.95 -0.2 -17.95 -0.3 -17.95 -0.4 -17.95 -0.5 -17.95 -0.55 -17.95 -0.65 -17.95 -0.75 -17.95 -0.85 -17.95 -0.95 -17.95 -1.05 -17.95 -1.15 -17.95 -1.25 -17.95 -1.3 -17.95 -1.4 -17.95 -1.5 -17.95 -1.6 -17.95 -1.7 -17.95 -1.8 -17.95 -1.9 -17.95 -2.0 -17.95 -2.1 -17.95 -2.15 -17.95 -2.25 -17.95 -2.35 -17.95 -2.45 -17.95 -2.55 -17.95 -2.65 -17.95 -2.75 -17.95 -2.85 -17.95 -2.9 -17.95 -3.0 -17.95 -3.1 -17.95 -3.2 -17.95 -3.3 -17.95 -3.4 -17.95 -3.5 -17.95 -3.6 -17.95 -3.65 -17.95 -3.75 -17.95 -3.85 -17.95 -3.95 -17.95 -4.05 -17.95 -4.15 -17.95 -4.25 -17.95 -4.35 -17.95 -4.4 -17.95 -4.5 -17.95 -4.6 -17.95 -4.7 -17.95 -4.8 -17.95 -4.9 -17.95 -5.0 -17.95 -5.1 -17.95 -5.15 -17.95 -5.25 -17.95 -5.35 -17.95 -5.45 -17.95 -5.55 -17.95 -5.65 -17.95 -5.75 -17.95 -5.85 -17.95 -5.9 -17.95 -6.0 -17.95 -6.1 -17.95 -6.2 -17.95 -6.3 -17.95 -6.4 -17.95 -6.5 -17.95 -6.6 -17.95 -6.65 -17.95 -6.75 -17.95 -6.85 -17.95 -6.95 -17.95 -7.05 -17.95 -7.15 -17.95 -7.25 -17.95 -7.35 -18.0 -7.35 -18.15 -7.4 -18.3 -7.5 -18.4 -7.6 -18.5 -7.7 -18.55 -7.8 -18.65 -7.9 -18.7 -8.0 -18.75 -8.1 -18.8 -8.15 -18.85 -8.25 -18.9 -8.35 -18.95 -8.45 -19.0 -8.55 -19.05 -8.65 -19.05 -8.75 -19.1 -8.85 -19.1 -8.9 -19.1 -9.0 -19.1 -9.1 -19.1 -9.2 -19.1 -9.3 -19.1 -9.4 -19.1 -9.5 -19.1 -9.6 -19.1 -9.65 -19.1 -9.75 -19.1 -9.85 -19.1 -9.95 -19.1 -10.05 -19.1 -10.15 -19.1 -10.25 -19.1 -10.35 -19.1 -10.4 -19.1 -10.5 -19.1 -10.6 -19.1 -10.7 -19.1 -10.8 -19.1 -10.9 -19.1 -11.0 -19.1 -11.1 -19.1 -11.15 -19.1 -11.25 -19.1 -11.35 -19.1 -11.45 -19.1 -11.55 -19.1 -11.65 -19.1 -11.75 -19.1 -11.85 -19.1 -11.9 -19.1 -12.0 -19.1 -12.1 -19.1 -12.2 -19.1 -12.3 -19.1 -12.4 -19.1 -12.5 -19.1 -12.6 -19.1 -12.65 -19.1 -12.75 -19.1 -12.85 -19.1 -12.95 -19.1 -13.05 -19.1 -13.15 -19.1 -13.25 -19.1 -13.35 -19.1 -13.4 -19.1 -13.5 -19.1 -13.6 -19.1 -13.7 -19.1 -13.8 -19.1 -13.9 -19.1 -14.0 -19.1 -14.1 -19.1 -14.15 -19.1 -14.25 -19.1 -14.35 -19.1 -14.45 -19.1 -14.55 -19.1 -14.65 -19.1 -14.75 -19.1 -14.85 -19.1 -14.9 -19.1 -15.0 -19.1 -15.1 -19.1 -15.2 -19.1 -15.3 -19.1 -15.4 -19.1 -15.5 -19.1 -15.6 -19.1 -15.65 -19.1 -15.75 -19.1 -15.85 -19.1 -15.95 -19.1 -16.05 -19.1 -16.15 -19.1 -16.25 -19.1 -16.35 -19.1 -16.4 -19.1 -16.5 -19.1 -16.6 -19.1 -16.7 -19.1 -16.8 -19.1 -16.9 -19.05 -17.0 -19.05 -17.1 -19.0 -17.15 -19.0 -17.25 -18.95 -17.35 -18.95 -17.45 -18.95 -17.55 -18.95 -17.65 -18.9 -17.75 -18.9 -17.85 -18.85 -17.9 -18.8 -18.0 -18.75 -18.1 -18.65 -18.2 -18.55 -18.3 -18.4 -18.35 -18.35 -18.4 -18.2 -18.4 -18.0 -18.4 -18.0 -18.45 -17.4 -18.45 -17.25 -18.4 -17.05 -18.35 -16.95 -18.4 -16.75 -18.5 -16.6 -18.55 -16.45 -18.6 -16.25 -18.6 -13.9 -18.6 -13.75 -18.6 -13.5 -18.5 -9.0 -18.45 -8.8 -18.4 -8.6 -18.35 -8.35 -18.25 -8.25 -18.15 -8.1 -18.1 -8.0 -18.0 -7.8 -17.9 -7.75 -17.8 -7.65 -17.7 -7.55 -17.6 -7.45 -17.5 -7.35 -17.4 -3.85 -17.4 -3.7 -17.4 -3.5 -17.45 7.25 -17.45 7.4 -17.4 7.4 -17.45 7.45 -17.55 7.45 -17.65 7.55 -17.75 7.6 -17.85 7.7 -17.9 7.8 -18.0 7.85 -18.1 7.95 -18.2 8.05 -18.3 8.15 -18.4 8.3 -18.5 8.4 -18.55 8.55 -18.6 8.75 -18.6 9.35 -18.6 9.55 -18.6 9.75 -18.5 10.35 -18.45 10.55 -18.4 10.7 -18.4 13.75 -18.4 13.9 -18.4 14.1 -18.45 M14.3 -16.5 L14.1 -16.5 10.35 -16.5 10.15 -16.5 10.0 -16.55 9.5 -16.6 9.3 -16.6 9.3 -16.5 9.3 -16.4 9.25 -16.35 9.2 -16.25 9.2 -16.15 9.15 -16.05 9.1 -15.95 9.0 -15.85 8.95 -15.8 8.95 -15.75 8.85 -15.65 8.8 -15.6 8.7 -15.5 8.6 -15.4 8.5 -15.35 8.45 -15.3 8.3 -15.25 8.1 -15.25 7.9 -15.25 7.7 -15.35 7.45 -15.4 7.25 -15.5 7.05 -15.5 6.9 -15.55 -3.15 -15.55 -3.3 -15.5 -3.5 -15.5 -8.0 -15.5 -8.2 -15.5 -8.4 -15.6 -8.55 -15.65 -8.65 -15.75 -8.75 -15.85 -8.8 -15.95 -8.9 -16.05 -8.9 -16.15 -8.95 -16.25 -9.05 -16.35 -9.25 -16.4 -9.3 -16.5 -13.9 -16.6 -14.1 -16.6 -14.3 -16.65 -15.85 -16.65 -16.05 -16.6 -16.25 -16.6 -16.75 -16.6 -16.95 -16.6 -17.05 -16.6 -17.1 -16.6 -17.15 -16.5 -17.15 -16.4 -17.2 -16.3 -17.25 -16.2 -17.25 -16.1 -17.25 -16.0 -17.25 -15.9 -17.25 -15.85 -17.25 -15.75 -17.25 -15.65 -17.25 -15.55 -17.25 -15.45 -17.25 -15.35 -17.25 -15.25 -17.25 -15.15 -17.25 -15.1 -17.25 -15.0 -17.25 -14.9 -17.25 -14.8 -17.25 -14.7 -17.25 -14.6 -17.25 -14.5 -17.25 -14.4 -17.25 -14.35 -17.25 -14.25 -17.25 -14.15 -17.25 -14.05 -17.25 -13.95 -17.25 -13.85 -17.25 -13.75 -17.25 -13.65 -17.25 -13.6 -17.25 -13.5 -17.25 -13.4 -17.25 -13.3 -17.25 -13.2 -17.25 -13.1 -17.25 -13.0 -17.25 -12.9 -17.25 -12.85 -17.25 -12.75 -17.25 -12.65 -17.25 -12.55 -17.25 -12.45 -17.25 -12.35 -17.25 -12.25 -17.25 -12.15 -17.25 -12.1 -17.25 -12.0 -17.25 -11.9 -17.25 -11.8 -17.25 -11.7 -17.25 -11.6 -17.25 -11.5 -17.25 -11.4 -17.25 -11.35 -17.25 -11.25 -17.25 -11.15 -17.25 -11.05 -17.25 -10.95 -17.25 -10.85 -17.25 -10.75 -17.25 -10.65 -17.25 -10.6 -17.25 -10.5 -17.25 -10.4 -17.25 -10.3 -17.25 -10.2 -17.25 -10.1 -17.25 -10.0 -17.25 -9.9 -17.25 -9.85 -17.25 -9.75 -17.25 -9.65 -17.25 -9.55 -17.2 -9.45 -17.15 -9.35 -17.1 -9.25 -17.1 -9.15 -17.0 -9.1 -16.8 -9.0 -16.65 -8.9 -16.5 -8.8 -16.4 -8.7 -16.3 -8.6 -16.25 -8.5 -16.15 -8.4 -16.15 -8.35 -16.1 -8.25 -16.05 -8.15 -16.05 -8.05 -16.05 -7.95 -16.05 -7.9 -16.05 -7.85 -16.05 -7.75 -16.05 -7.65 -16.05 -7.6 -16.05 -7.5 -16.05 -7.4 -16.05 -7.3 -16.05 -7.2 -16.05 -7.1 -16.05 -7.0 -16.05 -6.9 -16.05 -6.85 -16.05 -6.75 -16.05 -6.65 -16.05 -6.55 -16.05 -6.45 -16.05 -6.35 -16.05 -6.25 -16.05 -6.15 -16.05 -6.1 -16.05 -6.0 -16.05 -5.9 -16.05 -5.8 -16.05 -5.7 -16.05 -5.6 -16.05 -5.5 -16.05 -5.4 -16.05 -5.35 -16.05 -5.25 -16.05 -5.15 -16.05 -5.05 -16.05 -4.95 -16.05 -4.85 -16.05 -4.75 -16.05 -4.65 -16.05 -4.6 -16.05 -4.5 -16.05 -4.4 -16.05 -4.3 -16.05 -4.2 -16.05 -4.1 -16.05 -4.0 -16.05 -3.9 -16.05 -3.85 -16.05 -3.75 -16.05 -3.65 -16.05 -3.55 -16.05 -3.45 -16.05 -3.35 -16.05 -3.25 -16.05 -3.15 -16.05 -3.1 -16.05 -3.0 -16.05 -2.9 -16.05 -2.8 -16.05 -2.7 -16.05 -2.6 -16.05 -2.5 -16.05 -2.4 -16.05 -2.35 -16.05 -2.25 -16.05 -2.15 -16.05 -2.05 -16.05 -1.95 -16.05 -1.85 -16.05 -1.75 -16.05 -1.65 -16.05 -1.55 -16.05 -1.5 -16.05 -1.4 -16.05 -1.3 -16.05 -1.2 -16.05 -1.1 -16.05 -1.0 -16.05 -0.9 -16.05 -0.8 -16.05 -0.75 -16.05 -0.65 -16.05 -0.55 -16.05 -0.45 -16.05 -0.35 -16.05 -0.25 -16.05 -0.15 -16.05 -0.05 -16.05 0.0 -16.05 0.1 -16.05 0.2 -16.05 0.3 -16.05 0.4 -16.05 0.5 -16.05 0.6 -16.05 0.7 -16.05 0.75 -16.05 0.85 -16.05 0.95 -16.05 1.05 -16.05 1.15 -16.05 1.25 -16.05 1.35 -16.05 1.45 -16.05 1.5 -16.0 1.6 -16.0 1.7 -16.0 1.8 -16.0 1.9 -16.0 2.0 -16.0 2.1 -16.0 2.2 -16.0 2.25 -16.0 2.35 -16.0 2.45 -16.0 2.55 -16.0 2.65 -16.0 2.75 -16.0 2.85 -16.0 2.95 -16.0 3.0 -16.0 3.1 -16.0 3.2 -16.0 3.3 -16.0 3.4 -16.0 3.5 -16.0 3.6 -16.0 3.7 -16.0 3.75 -16.0 3.85 -16.0 3.95 -16.0 4.05 -16.0 4.15 -16.0 4.25 -15.9 4.35 -15.9 4.45 -15.85 4.5 -15.8 4.6 -15.8 4.7 -15.8 4.8 -15.8 4.9 -15.8 5.0 -15.8 5.1 -15.8 5.2 -15.8 5.25 -15.8 5.35 -15.8 5.45 -15.8 5.55 -15.8 5.65 -15.8 5.75 -15.8 5.85 -15.8 5.95 -15.8 6.0 -15.8 6.1 -15.8 6.2 -15.8 6.3 -15.8 6.4 -15.8 6.5 -15.8 6.6 -15.8 6.7 -15.8 6.75 -15.8 6.85 -15.8 6.95 -15.8 7.0 -15.8 7.1 -15.85 7.2 -15.9 7.3 -15.9 7.4 -16.0 7.5 -16.05 7.6 -16.15 7.7 -16.25 7.75 -16.3 7.8 -16.25 7.9 -16.25 8.0 -16.25 8.1 -16.25 8.2 -16.25 8.25 -16.25 8.35 -16.25 8.45 -16.25 8.55 -16.3 8.65 -16.3 8.75 -16.3 8.85 -16.3 8.95 -16.3 9.0 -16.3 9.1 -16.3 9.2 -16.3 9.3 -16.3 9.4 -16.3 9.5 -16.3 9.6 -16.3 9.7 -16.3 9.75 -16.3 9.85 -16.3 9.95 -16.3 10.05 -16.3 10.15 -16.3 10.25 -16.3 10.35 -16.3 10.45 -16.3 10.5 -16.3 10.6 -16.3 10.7 -16.3 10.8 -16.3 10.9 -16.3 11.0 -16.3 11.1 -16.3 11.2 -16.3 11.25 -16.3 11.35 -16.3 11.45 -16.3 11.55 -16.3 11.65 -16.3 11.75 -16.3 11.85 -16.3 11.95 -16.35 12.0 -16.4 12.1 -16.4 12.2 -16.45 12.3 -16.5 12.4 -16.5 12.5 -16.5 12.6 -16.5 12.7 -16.5 12.8 -16.5 12.9 -16.5 13.0 -16.5 13.1 -16.5 13.2 -16.5 13.25 -16.5 13.35 -16.5 13.45 -16.5 13.55 -16.5 13.65 -16.5 13.75 -16.5 13.85 -16.5 13.95 -16.45 14.0 -16.4 14.1 -16.4 14.2 -16.35 14.3 -16.3 14.4 -16.3 14.5 -16.3 14.6 -16.3 14.7 -16.3 14.75 -16.3 14.85 -16.3 14.95 -16.3 15.05 -16.3 15.15 -16.3 15.25 -16.3 15.35 -16.3 15.45 -16.3 15.5 -16.3 15.6 -16.3 15.7 -16.3 15.8 -16.3 15.9 -16.3 16.0 -16.25 16.1 -16.05 16.2 -15.9 16.25 -15.8 16.35 -15.7 16.45 -15.55 16.5 -15.25 16.55 -15.05 16.6 -14.9 16.6 -14.65 16.65 -14.5 16.7 -14.25 16.75 -9.2 16.75 -9.2 16.65 -9.15 16.55 -9.15 16.45 -9.05 16.35 -9.0 16.25 -8.9 16.2 -8.8 16.1 -8.65 16.0 -8.45 15.95 -8.25 15.9 -6.25 15.9 -6.05 15.95 -5.85 16.0 -5.0 16.05 -4.8 16.1 -4.65 16.1 -0.25 16.1 -0.1 16.1 0.1 16.05 1.35 16.0 1.55 15.95 1.75 15.9 2.4 15.85 2.55 15.85 2.75 15.8 3.1 15.75 3.3 15.7 3.5 15.7 3.5 15.65 8.0 15.65 8.2 15.7 8.4 15.75 8.55 15.85 8.65 15.95 8.75 16.0 8.8 16.1 8.85 16.2 8.85 16.25 13.35 16.25 13.55 16.2 13.75 16.15 14.65 16.1 14.8 16.1 15.0 16.05 15.7 16.0 15.9 15.95 16.05 15.85 16.05 15.75 16.05 15.7 16.1 15.6 16.1 15.5 16.15 15.4 16.15 15.3 16.15 15.2 16.15 15.1 16.2 15.0 16.2 14.95 16.25 14.85 16.3 14.75 16.35 14.65 16.4 14.55 16.45 14.45 16.45 14.35 16.55 14.25 16.55 14.2 16.55 14.1 16.55 14.0 16.55 13.9 16.55 13.8 16.6 13.7 16.6 13.6 16.65 13.5 16.65 13.45 16.65 13.35 16.65 13.25 16.65 13.15 16.7 13.05 16.7 12.95 16.8 12.85 16.8 12.75 16.8 12.7 16.8 12.6 16.8 12.5 16.8 12.4 16.85 12.3 16.85 12.2 16.9 12.1 16.9 12.0 16.9 11.95 16.9 11.85 16.9 11.75 16.9 11.65 16.9 11.55 16.9 11.45 16.9 11.35 16.9 11.25 16.9 11.2 16.9 11.1 16.9 11.0 16.9 10.9 16.9 10.8 16.9 10.7 16.9 10.6 16.9 10.5 16.9 10.45 16.9 10.35 16.9 10.25 16.9 10.15 16.9 10.05 16.9 9.95 16.9 9.85 16.9 9.75 16.9 9.7 16.9 9.6 16.9 9.5 16.9 9.45 16.85 9.45 16.65 9.4 16.45 9.35 16.3 9.25 16.2 9.15 16.1 9.05 16.05 8.95 15.95 8.85 15.95 8.75 15.9 8.7 15.9 8.6 15.9 8.5 15.9 8.4 15.9 8.3 15.9 8.2 15.9 8.1 15.9 8.0 15.9 7.95 15.9 7.85 15.9 7.75 15.9 7.65 15.9 7.55 15.9 7.45 15.9 7.35 15.9 7.25 15.9 7.2 15.9 7.1 15.9 7.0 15.9 6.9 15.9 6.8 15.85 6.7 15.85 6.6 15.8 6.5 15.8 6.45 15.8 6.35 15.8 6.25 15.8 6.15 15.8 6.05 15.7 5.95 15.7 5.85 15.65 5.75 15.65 5.7 15.65 5.6 15.65 5.5 15.65 5.4 15.65 5.3 15.65 5.2 15.65 5.1 15.65 5.0 15.65 4.95 15.65 4.85 15.65 4.75 15.65 4.65 15.65 4.55 15.65 4.45 15.65 4.35 15.65 4.25 15.65 4.2 15.65 4.1 15.65 4.0 15.65 3.9 15.65 3.8 15.65 3.7 15.65 3.6 15.65 3.5 15.65 3.45 15.65 3.35 15.65 3.25 15.65 3.15 15.65 3.05 15.65 2.95 15.65 2.85 15.65 2.75 15.65 2.7 15.65 2.6 15.65 2.5 15.65 2.4 15.65 2.3 15.65 2.2 15.7 2.1 15.7 2.0 15.75 1.95 15.8 1.85 15.8 1.75 15.8 1.65 15.8 1.55 15.8 1.45 15.8 1.35 15.8 1.25 15.8 1.2 15.8 1.1 15.8 1.0 15.8 0.9 15.8 0.8 15.85 0.7 15.85 0.6 15.9 0.5 15.9 0.45 15.9 0.35 15.9 0.25 15.9 0.15 15.9 0.05 15.9 -0.05 15.9 -0.15 15.9 -0.25 15.9 -0.3 15.9 -0.4 15.9 -0.5 15.9 -0.6 15.9 -0.7 15.9 -0.8 15.9 -0.9 15.9 -1.0 15.9 -1.05 15.9 -1.15 15.9 -1.25 15.9 -1.35 15.9 -1.45 15.9 -1.55 15.9 -1.65 15.9 -1.75 15.9 -1.8 15.9 -1.9 15.9 -2.0 15.9 -2.1 15.9 -2.2 15.9 -2.3 15.9 -2.4 15.9 -2.5 15.9 -2.6 15.9 -2.65 15.9 -2.75 15.9 -2.85 15.9 -2.95 15.9 -3.05 15.9 -3.15 15.9 -3.25 15.9 -3.35 15.9 -3.4 15.9 -3.5 15.9 -3.6 15.9 -3.7 15.9 -3.8 15.9 -3.9 15.9 -4.0 15.9 -4.1 15.9 -4.15 15.9 -4.25 15.9 -4.35 15.9 -4.45 15.9 -4.55 15.9 -4.65 15.95 -4.75 15.95 -4.85 15.95 -4.9 15.95 -5.0 15.95 -5.1 15.95 -5.2 15.95 -5.3 15.95 -5.4 16.0 -5.5 16.0 -5.6 16.0 -5.65 16.0 -5.75 16.05 -5.8 16.0 -5.85 15.95 -5.95 15.85 -6.05 15.85 -6.15 15.8 -6.25 15.8 -6.35 15.8 -6.4 15.8 -6.5 15.8 -6.6 15.85 -6.7 15.85 -6.8 15.95 -6.9 16.0 -7.0 16.1 -7.1 16.2 -7.15 16.35 -7.25 16.6 -7.35 16.7 -7.45 16.8 -7.55 16.8 -7.65 16.8 -7.75 16.8 -7.85 16.8 -7.9 16.8 -8.0 16.8 -8.1 16.8 -8.2 16.8 -8.3 16.8 -8.4 16.8 -8.5 16.8 -8.6 16.8 -8.65 16.8 -8.75 16.8 -8.85 16.8 -8.95 16.8 -9.05 16.8 -9.15 16.8 -9.25 16.8 -9.35 16.8 -9.4 16.8 -9.5 16.8 -9.6 16.8 -9.7 16.8 -9.8 16.8 -9.9 16.8 -10.0 16.8 -10.1 16.8 -10.15 16.8 -10.25 16.8 -10.35 16.8 -10.45 16.8 -10.55 16.8 -10.65 16.8 -10.75 16.8 -10.85 16.8 -10.9 16.8 -11.0 16.8 -11.1 16.8 -11.2 16.8 -11.3 16.8 -11.4 16.8 -11.5 16.8 -11.6 16.8 -11.65 16.8 -11.75 16.8 -11.85 16.8 -11.95 16.8 -12.05 16.8 -12.15 16.8 -12.25 16.8 -12.35 16.8 -12.4 16.8 -12.5 16.8 -12.6 16.8 -12.7 16.8 -12.8 16.8 -12.9 16.8 -13.0 16.8 -13.1 16.8 -13.15 16.8 -13.25 16.8 -13.35 16.8 -13.45 16.8 -13.55 16.8 -13.65 16.8 -13.75 16.8 -13.85 16.8 -13.9 16.8 -14.0 16.8 -14.1 16.8 -14.2 16.7 -14.3 16.7 -14.4 16.65 -14.5 16.65 -14.6 16.65 -14.65 16.65 -14.75 16.65 -14.85 16.6 -14.95 16.6 -15.05 16.55 -15.15 16.5 -15.25 16.45 -15.35 16.45 -15.4 16.4 -15.5 16.4 -15.6 16.4 -15.7 16.35 -15.8 16.35 -15.9 16.3 -16.0 16.25 -16.1 16.2 -16.15 16.15 -16.25 16.0 -16.35 15.8 -16.35 15.6 -16.4 15.5 -16.5 15.4 -16.5 15.25 -16.55 14.45 -16.55 14.3 -16.5 M10.5 -13.2 L10.6 -13.1 10.75 -13.0 10.85 -12.9 11.0 -12.85 11.1 -12.75 11.2 -12.65 11.3 -12.55 11.35 -12.45 11.4 -12.35 11.45 -12.25 11.55 -12.15 11.6 -12.1 11.65 -12.0 11.7 -11.9 11.8 -11.8 11.85 -11.7 11.9 -11.6 11.95 -11.5 12.05 -11.4 12.15 -11.35 12.25 -11.25 12.35 -11.15 12.45 -11.05 12.5 -10.95 12.55 -10.85 12.6 -10.75 12.7 -10.65 12.8 -10.6 12.95 -10.5 13.05 -10.4 13.15 -10.3 13.35 -10.2 13.5 -10.1 13.65 -10.0 13.8 -9.9 13.9 -9.85 14.0 -9.75 14.05 -9.65 14.1 -9.55 14.1 -9.45 14.15 -9.35 14.2 -9.25 14.2 -9.15 14.2 -9.1 14.2 -9.0 14.2 -8.9 14.15 -8.8 14.1 -8.7 14.1 -8.6 14.05 -8.5 13.95 -8.4 13.95 -8.3 14.0 -8.2 14.05 -8.1 14.05 -8.0 14.05 -7.9 14.05 -7.85 14.05 -7.75 14.05 -7.65 14.05 -7.55 14.0 -7.45 13.95 -7.35 13.95 -7.25 13.95 -7.15 13.95 -7.1 13.95 -7.0 13.95 -6.9 13.95 -6.8 13.9 -6.7 13.85 -6.6 13.85 -6.5 13.8 -6.4 13.8 -6.35 13.8 -6.25 13.8 -6.15 13.8 -6.05 13.8 -5.95 13.8 -5.85 13.8 -5.75 13.85 -5.65 13.85 -5.6 13.9 -5.5 13.95 -5.4 13.95 -5.3 13.95 -5.2 13.95 -5.1 13.95 -5.0 13.95 -4.9 13.95 -4.85 13.95 -4.75 13.95 -4.65 13.95 -4.55 13.95 -4.45 13.95 -4.35 13.95 -4.25 13.95 -4.15 13.95 -4.1 13.95 -4.0 13.95 -3.9 13.95 -3.8 13.95 -3.7 13.95 -3.6 13.95 -3.5 13.95 -3.4 13.95 -3.35 13.95 -3.25 13.95 -3.15 13.95 -3.05 14.0 -2.95 14.05 -2.85 14.05 -2.75 14.05 -2.65 14.05 -2.6 14.05 -2.5 14.05 -2.4 14.05 -2.3 14.05 -2.2 14.05 -2.1 14.05 -2.0 14.05 -1.9 14.05 -1.8 14.05 -1.75 14.05 -1.65 14.05 -1.55 14.05 -1.45 14.05 -1.35 14.05 -1.25 14.05 -1.15 14.05 -1.05 14.05 -1.0 14.05 -0.9 14.05 -0.8 14.05 -0.7 14.05 -0.6 14.05 -0.5 14.05 -0.4 14.05 -0.3 14.05 -0.25 14.05 -0.15 14.05 -0.05 14.05 0.05 14.05 0.15 14.05 0.25 14.05 0.35 14.05 0.45 14.05 0.5 14.05 0.6 14.05 0.7 14.05 0.8 14.05 0.9 14.05 1.0 14.05 1.1 14.05 1.2 14.05 1.25 14.05 1.35 14.05 1.45 14.05 1.55 14.05 1.65 14.05 1.75 14.05 1.85 14.05 1.95 14.05 2.0 14.05 2.1 14.05 2.2 14.05 2.3 14.05 2.4 14.05 2.5 14.05 2.6 14.05 2.7 14.05 2.75 14.05 2.85 14.05 2.95 14.05 3.05 14.05 3.15 14.05 3.25 14.05 3.35 14.05 3.45 14.05 3.5 14.05 3.6 14.05 3.7 14.05 3.8 14.05 3.9 14.05 4.0 14.05 4.1 14.05 4.2 14.05 4.25 14.1 4.35 14.1 4.45 14.15 4.55 14.2 4.65 14.2 4.75 14.2 4.85 14.2 4.95 14.2 5.0 14.2 5.1 14.2 5.2 14.2 5.3 14.2 5.4 14.3 5.5 14.35 5.6 14.35 5.7 14.4 5.75 14.45 5.85 14.45 5.95 14.45 6.05 14.45 6.15 14.45 6.25 14.45 6.35 14.45 6.45 14.45 6.5 14.45 6.6 14.45 6.7 14.45 6.8 14.45 6.9 14.45 7.0 14.45 7.1 14.45 7.2 14.45 7.25 14.45 7.35 14.45 7.45 14.45 7.55 14.45 7.65 14.45 7.75 14.45 7.85 14.45 7.95 14.45 8.0 14.45 8.1 14.45 8.2 14.45 8.3 14.45 8.4 14.45 8.5 14.45 8.6 14.45 8.7 14.4 8.75 14.35 8.85 14.35 8.95 14.3 9.05 14.25 9.15 14.15 9.25 14.05 9.35 13.95 9.45 13.85 9.5 13.7 9.6 13.6 9.7 13.5 9.8 13.4 9.9 13.3 10.0 13.15 10.1 12.95 10.15 12.75 10.2 12.6 10.2 12.4 10.15 12.2 10.1 12.05 10.0 11.95 9.9 11.85 9.8 11.8 9.7 11.7 9.6 11.7 9.5 11.65 9.45 11.65 9.35 11.65 9.25 11.65 9.15 11.65 9.05 11.7 8.95 11.7 8.85 11.8 8.75 11.85 8.7 11.95 8.6 12.05 8.5 12.1 8.4 12.2 8.3 12.3 8.2 12.4 8.1 12.5 8.0 12.55 7.95 12.55 7.85 12.55 7.75 12.55 7.65 12.55 7.55 12.55 7.45 12.55 7.35 12.55 7.25 12.55 7.2 12.55 7.1 12.55 7.0 12.55 6.9 12.55 6.8 12.55 6.7 12.55 6.6 12.55 6.5 12.5 6.45 12.45 6.35 12.45 6.25 12.4 6.15 12.4 6.05 12.35 5.95 12.35 5.85 12.3 5.75 12.3 5.7 12.3 5.6 12.3 5.5 12.3 5.4 12.3 5.3 12.3 5.2 12.2 5.1 12.2 5.0 12.15 4.95 12.15 4.85 12.15 4.75 12.15 4.65 12.15 4.55 12.15 4.45 12.15 4.35 12.15 4.25 12.15 4.2 12.15 4.1 12.15 4.0 12.15 3.9 12.15 3.8 12.15 3.7 12.15 3.6 12.15 3.5 12.15 3.45 12.15 3.35 12.15 3.25 12.15 3.15 12.15 3.05 12.15 2.95 12.15 2.85 12.15 2.75 12.15 2.7 12.15 2.6 12.15 2.5 12.15 2.4 12.15 2.3 12.15 2.2 12.15 2.1 12.15 2.0 12.15 1.95 12.15 1.85 12.15 1.75 12.15 1.65 12.15 1.55 12.15 1.45 12.15 1.35 12.15 1.25 12.15 1.2 12.15 1.1 12.15 1.0 12.15 0.9 12.15 0.8 12.15 0.7 12.15 0.6 12.15 0.5 12.15 0.45 12.15 0.35 12.15 0.25 12.15 0.15 12.15 0.05 12.15 -0.05 12.15 -0.15 12.15 -0.25 12.15 -0.3 12.15 -0.4 12.15 -0.5 12.15 -0.6 12.15 -0.7 12.15 -0.8 12.15 -0.9 12.15 -1.0 12.15 -1.05 12.15 -1.15 12.15 -1.25 12.15 -1.35 12.15 -1.45 12.15 -1.55 12.15 -1.65 12.15 -1.75 12.15 -1.8 12.15 -1.9 12.15 -2.0 12.15 -2.1 12.15 -2.2 12.15 -2.3 12.15 -2.4 12.15 -2.5 12.1 -2.6 12.1 -2.65 12.05 -2.75 12.05 -2.85 12.05 -2.95 12.05 -3.05 12.05 -3.15 12.05 -3.25 12.05 -3.35 12.05 -3.4 12.05 -3.5 12.05 -3.6 12.05 -3.7 12.05 -3.8 12.05 -3.9 12.05 -4.0 12.05 -4.1 12.05 -4.15 12.05 -4.25 12.05 -4.35 12.05 -4.45 12.05 -4.55 12.05 -4.65 12.05 -4.75 12.0 -4.85 11.95 -4.9 11.95 -5.0 11.9 -5.1 11.9 -5.2 11.9 -5.3 11.9 -5.4 11.9 -5.5 11.9 -5.6 11.9 -5.65 11.9 -5.75 11.9 -5.85 11.9 -5.95 11.9 -6.05 11.9 -6.15 11.9 -6.25 11.9 -6.35 11.9 -6.4 11.9 -6.5 11.9 -6.6 11.9 -6.7 11.9 -6.8 11.9 -6.9 11.9 -7.0 11.9 -7.1 11.95 -7.15 11.95 -7.25 12.0 -7.35 12.05 -7.45 12.05 -7.55 12.05 -7.65 12.05 -7.75 12.05 -7.85 12.1 -7.9 12.1 -8.0 12.15 -8.1 12.15 -8.2 12.2 -8.3 12.2 -8.4 12.3 -8.5 12.2 -8.55 12.1 -8.6 11.95 -8.65 11.8 -8.75 11.7 -8.85 11.6 -8.95 11.55 -9.05 11.45 -9.15 11.35 -9.25 11.3 -9.35 11.2 -9.4 11.15 -9.5 11.1 -9.6 11.0 -9.7 10.9 -9.8 10.8 -9.9 10.7 -10.0 10.6 -10.1 10.55 -10.15 10.5 -10.25 10.45 -10.35 10.35 -10.45 10.25 -10.55 10.15 -10.65 10.05 -10.75 10.0 -10.85 9.95 -10.9 9.9 -11.0 9.85 -11.1 9.8 -11.2 9.7 -11.3 9.55 -11.4 9.45 -11.5 9.35 -11.6 9.2 -11.65 9.05 -11.75 8.95 -11.85 8.8 -11.95 8.65 -12.05 8.55 -12.15 8.45 -12.25 8.35 -12.35 8.3 -12.4 8.25 -12.5 8.2 -12.6 7.6 -12.6 7.4 -12.6 7.2 -12.65 5.25 -12.75 5.05 -12.75 4.9 -12.8 -3.95 -12.8 -4.45 -12.75 -4.95 -12.75 -5.4 -12.7 -5.9 -12.65 -6.4 -12.65 -6.85 -12.6 -7.3 -12.6 -7.8 -12.55 -8.05 -12.5 -8.1 -12.5 -8.25 -12.4 -8.35 -12.35 -8.55 -12.25 -8.75 -12.25 -9.15 -12.25 -9.35 -12.25 -9.55 -12.35 -9.75 -12.4 -9.8 -12.5 -9.9 -12.6 -10.0 -12.7 -10.05 -12.8 -10.05 -12.9 -10.1 -13.0 -10.1 -13.1 -10.1 -13.15 -10.1 -13.25 -10.1 -13.35 -10.05 -13.45 -10.05 -13.55 -10.0 -13.65 -9.9 -13.75 -9.8 -13.85 -9.75 -13.9 -9.55 -14.0 -9.45 -14.05 -9.4 -14.1 -9.3 -14.15 -9.15 -14.25 -8.95 -14.35 -8.75 -14.35 -8.3 -14.4 -7.8 -14.4 -7.3 -14.45 -6.85 -14.5 -6.4 -14.5 -5.9 -14.55 -5.4 -14.6 -4.95 -14.6 -4.45 -14.65 -3.95 -14.65 -3.5 -14.65 -3.5 -14.7 5.25 -14.7 5.45 -14.65 5.6 -14.65 7.6 -14.6 7.8 -14.6 8.0 -14.5 8.25 -14.45 8.45 -14.4 8.65 -14.35 8.8 -14.25 8.9 -14.15 9.0 -14.1 9.05 -14.0 9.1 -13.9 9.1 -13.85 9.25 -13.85 9.45 -13.85 9.65 -13.75 9.8 -13.65 9.95 -13.6 10.1 -13.5 10.2 -13.4 10.35 -13.3 10.5 -13.2 M8.7 12.15 L8.9 12.1 9.1 12.1 9.1 12.05 9.3 12.1 9.5 12.15 9.6 12.25 9.75 12.35 9.85 12.45 9.9 12.5 9.95 12.6 9.95 12.7 10.0 12.8 10.05 12.9 10.05 13.0 10.05 13.1 10.05 13.2 10.0 13.25 9.95 13.35 9.95 13.45 9.9 13.55 9.85 13.65 9.85 13.75 9.8 13.85 9.7 13.95 9.6 14.0 9.6 14.1 9.55 14.2 9.5 14.3 9.45 14.4 9.4 14.5 9.35 14.6 9.3 14.7 9.25 14.75 9.2 14.85 9.15 14.95 9.1 15.05 9.0 15.15 8.9 15.25 8.8 15.35 8.65 15.45 8.45 15.5 8.25 15.5 8.05 15.5 7.85 15.5 -7.25 15.5 -7.4 15.5 -7.6 15.5 -7.8 15.45 -8.0 15.35 -8.05 15.25 -8.15 15.15 -8.25 15.05 -8.3 14.95 -8.3 14.85 -8.35 14.75 -8.35 14.7 -8.4 14.6 -8.5 14.5 -8.5 14.4 -8.55 14.3 -8.55 14.2 -8.6 14.1 -8.6 14.0 -8.65 13.95 -8.75 13.85 -8.8 13.75 -8.9 13.65 -9.0 13.55 -9.1 13.45 -9.2 13.35 -9.3 13.25 -9.35 13.2 -9.4 13.1 -9.5 13.0 -9.55 12.9 -9.65 12.8 -9.75 12.7 -9.8 12.6 -9.8 12.5 -9.85 12.45 -9.9 12.35 -10.0 12.25 -10.05 12.15 -10.15 12.05 -10.25 11.95 -10.3 11.85 -10.35 11.75 -10.4 11.7 -10.5 11.6 -10.55 11.5 -10.6 11.4 -10.65 11.3 -10.75 11.2 -10.8 11.1 -10.8 11.0 -10.9 10.95 -11.0 10.85 -11.05 10.75 -11.15 10.65 -11.25 10.55 -11.3 10.45 -11.4 10.35 -11.45 10.25 -11.55 10.2 -11.65 10.1 -11.75 10.0 -11.8 9.9 -11.9 9.8 -12.0 9.7 -12.05 9.6 -12.05 9.5 -12.1 9.45 -12.15 9.35 -12.25 9.25 -12.3 9.15 -12.35 9.05 -12.4 8.95 -12.45 8.85 -12.55 8.75 -12.65 8.7 -12.75 8.6 -12.8 8.5 -13.0 8.4 -13.15 8.3 -13.25 8.25 -13.4 8.2 -13.55 8.1 -13.65 8.0 -13.8 7.9 -14.0 7.8 -14.1 7.7 -14.2 7.6 -14.3 7.5 -14.35 7.45 -14.4 7.35 -14.4 7.25 -14.45 7.15 -14.45 7.05 -14.45 6.95 -14.45 6.85 -14.45 6.75 -14.45 6.65 -14.45 6.55 -14.45 6.45 -14.45 6.35 -14.45 6.25 -14.45 6.2 -14.45 6.1 -14.45 6.0 -14.45 5.9 -14.45 5.8 -14.45 5.7 -14.45 5.6 -14.45 5.5 -14.45 5.45 -14.45 5.35 -14.45 5.25 -14.45 5.15 -14.45 5.05 -14.45 4.95 -14.45 4.85 -14.45 4.75 -14.45 4.7 -14.45 4.6 -14.45 4.5 -14.45 4.4 -14.45 4.3 -14.45 4.2 -14.45 4.1 -14.45 4.0 -14.45 3.95 -14.45 3.85 -14.45 3.75 -14.45 3.65 -14.45 3.55 -14.45 3.45 -14.45 3.35 -14.45 3.25 -14.45 3.2 -14.45 3.1 -14.45 3.0 -14.45 2.9 -14.45 2.8 -14.45 2.7 -14.45 2.6 -14.45 2.5 -14.45 2.45 -14.45 2.35 -14.45 2.25 -14.45 2.15 -14.45 2.05 -14.45 1.95 -14.45 1.85 -14.45 1.75 -14.45 1.7 -14.45 1.6 -14.45 1.5 -14.45 1.4 -14.45 1.3 -14.45 1.2 -14.45 1.1 -14.45 1.0 -14.45 0.95 -14.45 0.85 -14.45 0.75 -14.45 0.65 -14.45 0.55 -14.45 0.45 -14.45 0.35 -14.45 0.25 -14.45 0.2 -14.45 0.1 -14.45 0.0 -14.45 -0.1 -14.45 -0.2 -14.45 -0.3 -14.45 -0.4 -14.45 -0.5 -14.45 -0.55 -14.4 -0.65 -14.4 -0.75 -14.35 -0.85 -14.35 -0.95 -14.35 -1.05 -14.35 -1.15 -14.35 -1.25 -14.35 -1.3 -14.35 -1.4 -14.35 -1.5 -14.35 -1.6 -14.35 -1.7 -14.35 -1.8 -14.35 -1.9 -14.35 -2.0 -14.35 -2.1 -14.35 -2.15 -14.35 -2.25 -14.35 -2.35 -14.35 -2.45 -14.35 -2.55 -14.35 -2.65 -14.35 -2.75 -14.35 -2.85 -14.35 -2.9 -14.35 -3.0 -14.35 -3.1 -14.35 -3.2 -14.35 -3.3 -14.35 -3.4 -14.35 -3.5 -14.35 -3.6 -14.4 -3.65 -14.4 -3.75 -14.45 -3.85 -14.45 -3.95 -14.45 -4.05 -14.45 -4.15 -14.45 -4.25 -14.45 -4.35 -14.45 -4.4 -14.45 -4.5 -14.45 -4.6 -14.45 -4.7 -14.45 -4.8 -14.45 -4.9 -14.45 -5.0 -14.45 -5.1 -14.45 -5.15 -14.45 -5.25 -14.45 -5.35 -14.45 -5.45 -14.45 -5.55 -14.45 -5.65 -14.45 -5.75 -14.5 -5.85 -14.55 -5.9 -14.55 -6.0 -14.6 -6.1 -14.6 -6.2 -14.6 -6.3 -14.6 -6.4 -14.6 -6.5 -14.6 -6.6 -14.6 -6.65 -14.6 -6.75 -14.6 -6.85 -14.6 -6.95 -14.6 -7.05 -14.6 -7.15 -14.6 -7.25 -14.6 -7.35 -14.6 -7.4 -14.6 -7.5 -14.6 -7.6 -14.6 -7.7 -14.6 -7.8 -14.6 -7.9 -14.6 -8.0 -14.6 -8.1 -14.6 -8.15 -14.55 -8.25 -14.55 -8.35 -14.5 -8.45 -14.45 -8.55 -14.4 -8.65 -14.4 -8.75 -14.35 -8.85 -14.3 -8.9 -14.3 -9.0 -14.25 -9.1 -14.2 -9.2 -14.1 -9.3 -14.05 -9.4 -14.0 -9.5 -13.9 -9.6 -13.8 -9.65 -13.75 -9.75 -13.65 -9.85 -13.55 -9.95 -13.55 -10.05 -13.5 -10.15 -13.4 -10.25 -13.3 -10.35 -13.25 -10.4 -13.15 -10.5 -13.05 -10.6 -12.95 -10.7 -12.8 -10.75 -12.75 -10.8 -12.6 -10.85 -12.4 -10.85 -12.25 -10.85 -12.05 -10.85 -11.85 -10.75 -11.75 -10.65 -11.6 -10.6 -11.5 -10.5 -11.45 -10.4 -11.4 -10.3 -11.4 -10.2 -11.35 -10.1 -11.3 -10.0 -11.3 -9.9 -11.3 -9.85 -11.35 -9.75 -11.4 -9.65 -11.4 -9.55 -11.45 -9.45 -11.5 -9.35 -11.6 -9.25 -11.7 -9.15 -11.8 -9.1 -11.9 -9.0 -11.9 -8.9 -11.95 -8.8 -12.0 -8.7 -12.1 -8.6 -12.2 -8.5 -12.3 -8.4 -12.4 -8.35 -12.45 -8.25 -12.5 -8.15 -12.55 -8.05 -12.6 -7.95 -12.65 -7.85 -12.75 -7.75 -12.75 -7.65 -12.75 -7.55 -12.75 -7.45 -12.75 -7.35 -12.75 -7.25 -12.75 -7.15 -12.75 -7.1 -12.75 -7.0 -12.75 -6.9 -12.75 -6.8 -12.75 -6.7 -12.7 -6.6 -12.65 -6.5 -12.6 -6.4 -12.6 -6.35 -12.55 -6.25 -12.55 -6.15 -12.55 -6.05 -12.55 -5.95 -12.55 -5.85 -12.55 -5.75 -12.55 -5.65 -12.55 -5.6 -12.55 -5.5 -12.55 -5.4 -12.55 -5.3 -12.55 -5.2 -12.55 -5.1 -12.55 -5.0 -12.55 -4.9 -12.55 -4.85 -12.55 -4.75 -12.55 -4.65 -12.55 -4.55 -12.55 -4.45 -12.55 -4.35 -12.5 -4.25 -12.5 -4.15 -12.5 -4.1 -12.5 -4.0 -12.5 -3.9 -12.5 -3.8 -12.5 -3.7 -12.5 -3.6 -12.5 -3.5 -12.5 -3.4 -12.5 -3.35 -12.5 -3.25 -12.5 -3.15 -12.5 -3.05 -12.5 -2.95 -12.5 -2.85 -12.5 -2.75 -12.5 -2.65 -12.5 -2.6 -12.5 -2.5 -12.5 -2.4 -12.5 -2.3 -12.5 -2.2 -12.5 -2.1 -12.5 -2.0 -12.5 -1.9 -12.5 -1.8 -12.5 -1.75 -12.5 -1.65 -12.5 -1.55 -12.5 -1.45 -12.5 -1.35 -12.5 -1.25 -12.5 -1.15 -12.5 -1.05 -12.5 -1.0 -12.5 -0.9 -12.5 -0.8 -12.5 -0.7 -12.5 -0.6 -12.5 -0.5 -12.5 -0.4 -12.5 -0.3 -12.5 -0.25 -12.55 -0.15 -12.55 -0.05 -12.55 0.05 -12.55 0.15 -12.55 0.25 -12.55 0.35 -12.55 0.45 -12.55 0.5 -12.55 0.6 -12.55 0.7 -12.55 0.8 -12.55 0.9 -12.55 1.0 -12.55 1.1 -12.55 1.2 -12.55 1.25 -12.55 1.35 -12.55 1.45 -12.55 1.55 -12.55 1.65 -12.55 1.75 -12.55 1.85 -12.55 1.95 -12.55 2.0 -12.55 2.1 -12.55 2.2 -12.55 2.3 -12.55 2.4 -12.55 2.5 -12.55 2.6 -12.55 2.7 -12.55 2.75 -12.55 2.85 -12.55 2.95 -12.55 3.05 -12.55 3.15 -12.55 3.25 -12.55 3.35 -12.55 3.45 -12.55 3.5 -12.55 3.6 -12.55 3.7 -12.55 3.8 -12.55 3.9 -12.55 4.0 -12.55 4.1 -12.55 4.2 -12.55 4.25 -12.55 4.35 -12.55 4.45 -12.55 4.55 -12.55 4.65 -12.55 4.75 -12.55 4.85 -12.55 4.95 -12.55 5.0 -12.55 5.1 -12.55 5.2 -12.55 5.3 -12.55 5.4 -12.55 5.5 -12.55 5.6 -12.55 5.7 -12.55 5.75 -12.55 5.85 -12.55 5.95 -12.55 6.05 -12.55 6.15 -12.55 6.25 -12.55 6.3 -12.5 6.35 -12.35 6.45 -12.25 6.5 -12.15 6.6 -12.05 6.7 -11.85 6.75 -11.75 6.85 -11.6 6.95 -11.5 7.0 -11.4 7.1 -11.3 7.2 -11.25 7.3 -11.15 7.4 -11.05 7.5 -11.0 7.6 -10.9 7.7 -10.85 7.75 -10.8 7.85 -10.75 7.95 -10.65 8.05 -10.55 8.15 -10.5 8.25 -10.4 8.35 -10.4 8.45 -10.35 8.5 -10.3 8.6 -10.25 8.7 -10.15 8.8 -10.05 8.9 -9.95 9.0 -9.9 9.1 -9.8 9.2 -9.75 9.25 -9.65 9.35 -9.55 9.45 -9.5 9.55 -9.4 9.65 -9.3 9.75 -9.25 9.85 -9.15 9.95 -9.15 10.0 -9.05 10.1 -9.0 10.2 -8.95 10.3 -8.9 10.4 -8.8 10.5 -8.75 10.6 -8.65 10.7 -8.65 10.75 -8.55 10.85 -8.5 10.95 -8.4 11.05 -8.3 11.15 -8.25 11.25 -8.15 11.35 -8.15 11.45 -8.1 11.5 -8.05 11.6 -8.0 11.7 -7.9 11.8 -7.8 11.9 -7.7 12.0 -7.6 12.1 -7.5 12.2 -7.4 12.25 -7.35 12.35 -7.3 12.45 -7.25 12.55 -7.15 12.65 -7.05 12.75 -7.0 12.85 -6.9 12.95 -6.9 13.0 -6.85 13.1 -6.8 13.2 -6.8 13.3 -6.75 13.4 -6.7 13.5 -6.65 13.6 -6.6 13.65 7.6 13.65 7.65 13.55 7.7 13.45 7.7 13.35 7.8 13.25 7.85 13.2 7.9 13.1 7.95 13.0 8.0 12.9 8.05 12.8 8.1 12.7 8.2 12.6 8.25 12.5 8.35 12.45 8.45 12.35 8.55 12.25 8.7 12.15" fill="#000000" fill-rule="evenodd" stroke="none"/>
  </g>
</svg>
