<?xml version="1.0" encoding="UTF-8" standalone="no"?>
<svg xmlns:ffdec="https://www.free-decompiler.com/flash" xmlns:xlink="http://www.w3.org/1999/xlink" ffdec:objectType="shape" height="38.55px" width="39.5px" xmlns="http://www.w3.org/2000/svg">
  <g transform="matrix(1.0, 0.0, 0.0, 1.0, 20.4, 19.1)">
    <path d="M1.2 -16.0 L0.7 -15.4 -0.55 -13.4 Q-1.25 -12.2 -1.05 -11.3 L-2.65 -10.45 -2.75 -10.55 -2.9 -10.65 -3.15 -10.75 -3.15 -10.7 -3.35 -10.7 -3.5 -10.65 -4.4 -9.75 -6.3 -7.55 -7.0 -7.75 Q-9.2 -7.55 -11.0 -6.5 L-11.05 -6.2 -11.0 -5.9 -10.8 -5.65 -10.45 -5.6 -7.4 -6.35 -7.5 -6.25 -7.5 -5.95 -7.65 -6.0 Q-8.25 -6.0 -8.55 -5.45 L-9.0 -4.65 Q-9.35 -5.15 -9.85 -5.15 L-10.45 -4.9 -10.8 -4.4 Q-11.05 -4.45 -11.6 -4.65 -13.05 -4.65 -12.85 -2.75 -14.0 -2.65 -14.8 -0.25 L-14.85 0.0 Q-15.5 1.8 -15.5 3.25 L-15.5 4.15 Q-15.4 4.8 -14.9 4.95 L-15.05 5.3 -15.25 5.75 Q-15.1 7.25 -14.05 7.25 L-13.55 7.15 -13.25 7.4 -13.0 8.3 -12.85 8.85 -14.35 7.75 Q-14.4 7.35 -15.0 7.3 L-15.7 7.3 -16.0 7.3 -16.0 -7.9 -15.35 -7.9 Q-14.6 -7.9 -14.4 -8.15 L-11.25 -10.8 Q-8.4 -13.25 -8.05 -14.25 -7.65 -14.3 -7.6 -14.9 L-7.6 -15.6 -7.6 -16.0 1.2 -16.0 M-3.6 -8.55 L-3.8 -8.15 -3.8 -8.25 -3.6 -8.55 M10.35 -10.3 L10.7 -10.85 10.9 -10.65 10.35 -10.3 M7.25 -16.0 L6.4 -15.65 5.25 -14.6 5.25 -14.55 5.1 -14.55 Q3.8 -15.95 2.75 -15.95 L2.65 -16.0 7.25 -16.0 M16.0 7.25 L16.0 7.75 15.9 7.75 16.0 7.25 M4.75 16.0 L3.3 16.0 3.45 15.9 3.95 15.6 4.25 15.7 4.75 16.0 M2.55 16.0 L-0.2 16.0 0.7 15.55 1.9 15.45 2.55 16.0 M-0.25 16.0 L-4.45 16.0 -4.4 15.95 -3.75 15.75 -3.35 15.75 -1.3 15.65 -0.25 16.0 M-7.3 16.0 L-8.05 16.0 -8.05 15.95 -7.85 15.9 -7.5 15.9 -7.3 16.0 M-7.85 -1.0 L-8.8 -0.4 -7.35 -1.9 -7.15 -1.8 -7.85 -1.0" fill="#cccccc" fill-rule="evenodd" stroke="none"/>
    <path d="M-2.65 -10.45 L-1.05 -11.3 Q-1.25 -12.2 -0.55 -13.4 L0.7 -15.4 1.2 -16.0 Q1.75 -16.4 2.65 -16.0 L2.75 -15.95 Q3.8 -15.95 5.1 -14.55 L5.25 -14.55 5.25 -14.6 6.4 -15.65 7.25 -16.0 7.9 -16.35 Q8.8 -16.7 9.15 -15.9 L10.9 -11.5 10.7 -10.85 10.35 -10.3 7.3 -6.8 6.65 -6.6 5.2 -6.15 Q4.25 -5.95 3.95 -5.4 L3.45 -4.5 2.6 -4.75 Q2.05 -4.75 1.7 -4.35 L1.4 -3.95 -0.15 -3.4 -1.35 -2.45 -2.05 -2.65 -2.25 -2.6 -2.5 -2.7 -2.6 -2.7 -3.2 -1.35 -3.7 -0.15 -2.65 -0.7 1.85 -3.4 2.1 -3.3 2.25 -3.25 2.35 -3.15 2.45 -2.95 2.45 -2.85 2.2 -2.0 1.75 -1.5 Q2.95 -2.45 4.3 -2.4 L4.9 -2.3 5.0 -2.2 5.1 -2.05 5.1 -1.95 5.1 -1.4 4.95 -0.9 4.8 -0.8 4.5 -0.75 4.2 -0.8 4.1 -0.9 4.0 -1.0 3.95 -1.05 3.95 -1.0 2.6 -0.4 1.8 0.0 0.0 1.0 -0.3 0.95 -0.4 0.85 -0.65 0.1 -0.6 0.0 -0.4 -0.55 -1.15 0.0 Q-2.35 0.75 -3.65 1.15 L-4.55 1.3 -4.85 1.05 -5.1 0.75 -5.0 0.0 Q-4.85 -1.15 -4.35 -2.2 L-6.8 0.0 -9.1 1.95 Q-10.2 2.9 -9.8 3.95 L-9.4 4.1 -8.9 4.05 -7.95 3.2 -6.65 2.0 -6.6 2.15 -6.5 2.35 -6.4 2.45 -5.8 2.6 -5.4 2.45 -4.85 2.05 -4.8 2.7 -4.4 3.65 -4.45 3.7 -4.8 3.6 Q-5.1 3.6 -6.1 5.2 L-6.15 5.35 -6.45 5.6 -7.05 6.25 -7.65 6.1 -8.6 5.8 Q-9.0 5.5 -9.35 5.5 -10.85 5.5 -11.5 9.8 L-11.05 10.85 -11.8 11.55 -12.75 12.0 Q-13.8 12.0 -13.75 10.9 -13.75 10.35 -13.25 9.8 L-12.8 9.2 -12.85 8.85 -13.0 8.3 -13.25 7.4 -13.55 7.15 -14.05 7.25 Q-15.1 7.25 -15.25 5.75 L-15.05 5.3 -14.9 4.95 Q-15.4 4.8 -15.5 4.15 L-15.5 3.25 Q-15.5 1.8 -14.85 0.0 L-14.8 -0.25 Q-14.0 -2.65 -12.85 -2.75 -13.05 -4.65 -11.6 -4.65 -11.05 -4.45 -10.8 -4.4 L-10.45 -4.9 -9.85 -5.15 Q-9.35 -5.15 -9.0 -4.65 L-8.55 -5.45 Q-8.25 -6.0 -7.65 -6.0 L-7.5 -5.95 -7.5 -5.75 -7.3 -5.4 -6.9 -5.3 -6.7 -5.25 -6.7 -6.4 -7.4 -6.35 -10.45 -5.6 -10.8 -5.65 -11.0 -5.9 -11.05 -6.2 -11.0 -6.5 Q-9.2 -7.55 -7.0 -7.75 L-6.3 -7.55 Q-5.65 -7.3 -5.45 -6.65 L-5.3 -6.8 Q-4.25 -6.35 -3.45 -7.2 L-3.4 -7.4 -3.4 -7.5 -3.4 -7.55 -3.6 -7.9 -3.8 -8.15 -3.6 -8.55 -3.35 -8.9 -2.55 -10.0 -2.55 -10.1 -2.55 -10.2 -2.55 -10.3 -2.65 -10.45 M3.35 -10.65 L3.35 -10.6 3.15 -10.6 3.05 -10.55 2.65 -10.3 1.65 -9.6 Q0.15 -8.55 0.6 -7.15 L0.7 -7.05 Q1.0 -6.9 1.3 -7.05 L1.35 -7.1 1.45 -7.2 1.5 -7.3 1.55 -7.4 1.65 -7.5 2.15 -7.9 2.95 -8.35 2.4 -7.45 1.3 -5.9 1.15 -5.35 Q1.1 -5.05 1.35 -4.9 L1.45 -4.8 1.75 -4.75 2.0 -4.8 2.15 -4.9 2.55 -5.25 2.9 -5.75 3.65 -6.45 Q3.95 -6.85 3.85 -7.4 L4.55 -8.5 Q5.05 -9.6 4.1 -10.3 L3.85 -10.4 3.6 -10.55 3.35 -10.65 M9.45 -0.4 L9.55 -0.8 9.6 -0.9 11.7 -2.5 11.8 -2.55 12.25 -2.65 12.45 -2.65 13.45 -3.15 13.75 -3.25 14.0 -3.15 14.25 -2.95 14.45 -2.6 14.35 -1.85 14.05 -1.2 14.1 -0.9 14.05 -0.45 13.95 -0.35 13.85 -0.25 13.8 -0.2 13.5 -0.15 13.15 -0.15 13.05 -0.05 13.05 0.0 13.0 0.05 12.95 0.15 12.85 0.25 12.8 0.3 12.35 0.35 11.95 0.2 11.75 0.0 11.7 -0.25 11.95 -0.7 11.1 0.0 10.55 0.5 10.2 0.75 9.7 0.7 9.6 0.6 9.4 0.35 9.4 0.0 9.5 -0.25 9.45 -0.4 M11.2 7.2 L11.3 7.1 11.6 7.05 11.6 7.0 12.0 7.2 12.15 7.25 12.25 7.35 12.3 7.45 12.35 7.65 12.35 7.75 12.35 7.85 Q10.8 10.0 8.8 11.8 L7.1 12.75 6.8 12.7 6.7 12.6 Q6.4 11.45 7.6 10.45 L8.4 9.8 8.95 9.25 9.45 8.75 9.45 8.65 9.45 8.6 9.5 8.5 11.0 7.35 11.2 7.2 M11.65 1.5 L11.75 1.6 11.85 1.8 11.85 1.9 11.85 2.0 11.85 2.1 11.65 2.45 11.3 2.8 11.55 2.8 11.75 2.75 12.0 2.85 12.15 2.95 12.25 3.05 12.35 3.2 12.35 3.3 12.35 3.4 12.35 3.5 12.35 3.6 12.3 3.7 12.25 3.75 9.75 4.85 9.3 4.7 9.1 4.5 9.05 4.45 8.95 4.15 9.0 3.95 8.85 3.9 8.45 3.7 8.25 3.35 8.25 2.75 9.15 1.9 9.45 1.7 9.55 1.65 9.75 1.6 10.0 1.7 10.25 1.85 10.65 1.6 10.95 1.45 11.25 1.4 11.25 1.35 11.5 1.45 11.65 1.5 M7.15 5.2 L7.25 5.3 7.35 5.45 7.35 5.55 7.4 5.75 7.3 6.1 7.3 6.2 4.85 8.8 4.05 9.55 3.6 9.6 3.2 9.45 2.95 9.1 Q2.95 8.85 3.1 8.6 L5.55 5.95 6.45 5.1 6.55 5.05 6.75 5.05 6.75 5.0 7.0 5.1 7.15 5.2 M-0.05 4.5 L0.25 4.55 0.65 4.7 0.75 4.8 0.8 4.85 0.85 5.05 0.85 5.15 0.85 5.25 0.85 5.45 0.85 5.6 0.5 6.45 -0.45 8.05 -1.3 9.45 -1.25 9.45 -0.8 9.2 -0.5 9.1 -0.25 9.2 0.05 9.35 0.2 9.45 Q0.55 10.35 -0.1 11.25 L-0.85 12.55 -0.75 12.6 -0.35 12.8 -0.2 12.85 1.5 12.75 1.75 12.85 1.9 12.95 2.0 13.05 2.05 13.1 2.1 13.3 2.1 13.4 2.1 13.5 2.1 13.6 2.05 13.7 2.0 13.75 Q0.85 14.6 -0.55 14.2 L-0.65 14.1 -0.8 14.0 -1.05 14.0 -1.8 14.5 -2.3 14.85 -2.5 14.85 -2.9 14.7 -3.05 14.5 -3.15 13.95 -3.1 13.7 -2.15 12.25 -1.65 11.25 -3.35 12.6 -4.0 12.85 -4.3 12.8 -4.4 12.7 -4.5 12.25 Q-4.6 11.25 -3.75 10.35 L-1.85 7.9 -0.85 6.35 Q-1.7 6.75 -2.3 7.55 L-2.75 8.1 -2.9 8.2 -3.15 8.25 -3.45 8.2 -3.55 8.1 -3.6 7.8 Q-3.7 6.7 -2.45 5.8 -1.45 5.1 -0.35 4.55 L-0.15 4.55 -0.15 4.5 -0.05 4.5 M-7.85 -1.0 L-7.15 -1.8 -7.35 -1.9 -8.8 -0.4 -7.85 -1.0 M-1.65 1.5 L-2.45 2.25 -2.6 1.85 -1.95 1.4 -1.65 1.5" fill="#c3c3c3" fill-rule="evenodd" stroke="none"/>
    <path d="M-11.8 11.55 L-11.05 10.85 -11.5 9.8 Q-10.85 5.5 -9.35 5.5 -9.0 5.5 -8.6 5.8 L-7.65 6.1 -7.05 6.25 Q-8.45 7.75 -9.15 9.65 L-8.9 10.0 -8.7 10.2 -8.45 10.2 Q-7.5 9.95 -6.8 9.35 L-6.75 9.45 -6.65 9.6 -6.55 9.7 -6.45 9.8 -6.15 9.85 -4.25 8.45 -3.6 7.8 -3.55 8.1 -3.45 8.2 -3.15 8.25 -2.9 8.2 -2.75 8.1 -2.3 7.55 Q-1.7 6.75 -0.85 6.35 L-1.85 7.9 Q-2.6 8.0 -3.2 8.65 -3.85 9.35 -3.85 9.9 L-3.75 10.35 Q-4.6 11.25 -4.5 12.25 L-4.75 12.6 Q-5.85 12.65 -6.4 13.45 -6.85 14.1 -6.85 14.9 L-6.7 16.1 -6.8 16.1 -7.3 16.0 -7.5 15.9 -7.85 15.9 -8.05 15.95 -8.35 16.0 Q-9.1 16.0 -9.55 15.2 L-9.85 14.2 -10.25 14.2 -11.0 14.5 Q-12.05 14.5 -12.0 13.4 L-11.6 12.3 -11.5 12.15 -11.8 11.55 M-6.15 5.35 L-6.1 5.2 Q-5.1 3.6 -4.8 3.6 L-4.45 3.7 -4.9 3.95 -6.15 5.35 M-4.4 3.65 L-4.8 2.7 -4.85 2.05 -4.6 1.9 -3.65 1.15 Q-2.35 0.75 -1.15 0.0 L-0.4 -0.55 -0.6 0.0 -0.65 0.1 -0.4 0.85 -0.3 0.95 -2.2 2.85 -2.4 2.8 -2.65 2.75 -4.4 3.65 M2.6 -0.4 L3.95 -1.0 3.95 -0.9 4.05 -0.8 4.5 -0.75 4.8 -0.8 4.95 -0.9 5.1 -1.05 4.65 -0.45 4.5 0.0 4.7 0.35 4.8 0.45 5.35 0.45 5.9 0.0 6.0 -0.1 9.3 -3.15 9.5 -3.15 9.8 -3.25 10.3 -3.65 11.2 -4.9 11.2 -5.0 11.2 -5.2 11.2 -5.4 11.7 -5.95 12.45 -7.15 12.45 -7.25 12.45 -7.35 12.35 -7.55 12.35 -7.65 12.25 -7.75 12.1 -7.8 11.75 -7.9 11.75 -7.85 11.45 -7.8 11.15 -7.6 Q10.2 -6.85 9.45 -6.5 L9.45 -6.6 9.35 -6.8 9.25 -7.0 8.85 -7.0 Q7.05 -6.5 5.6 -5.15 L5.45 -4.65 Q5.5 -4.45 5.7 -4.3 L5.8 -4.2 6.05 -4.05 5.8 -3.8 4.95 -3.05 4.3 -2.4 Q2.95 -2.45 1.75 -1.5 L2.2 -2.0 2.45 -2.85 2.45 -2.95 2.35 -3.15 2.25 -3.25 2.1 -3.3 1.85 -3.4 -2.65 -0.7 -2.65 -0.75 -1.9 -2.0 -1.9 -2.1 -1.9 -2.2 -1.9 -2.3 -1.95 -2.4 -2.0 -2.45 -2.1 -2.55 -2.25 -2.6 -2.05 -2.65 -1.35 -2.45 -0.15 -3.4 1.4 -3.95 1.7 -4.35 Q2.05 -4.75 2.6 -4.75 L3.45 -4.5 3.95 -5.4 Q4.25 -5.95 5.2 -6.15 L6.65 -6.6 7.3 -6.8 10.35 -10.3 10.9 -10.65 11.55 -10.9 Q12.6 -10.9 13.25 -9.2 13.85 -8.9 14.0 -7.95 L14.05 -7.9 14.3 -8.35 Q14.6 -8.75 15.15 -8.75 16.05 -8.75 16.25 -6.8 L16.25 -5.55 13.6 -5.5 Q10.9 -4.4 10.4 -3.35 L9.4 -2.2 8.45 -0.85 8.05 0.0 7.55 1.3 7.0 1.8 Q6.0 1.95 4.95 3.45 L4.25 4.55 3.0 5.55 1.2 7.15 0.95 6.85 0.5 6.45 0.85 5.6 0.85 5.45 0.85 5.25 0.85 5.15 0.85 5.05 0.8 4.85 0.75 4.8 0.65 4.7 0.25 4.55 -0.05 4.5 0.4 4.1 Q1.7 2.95 1.45 1.55 L1.2 1.35 1.2 1.25 1.65 0.8 2.35 0.0 2.6 -0.4 M16.25 -4.4 L16.3 -2.35 16.25 -2.55 Q15.95 -3.5 15.45 -3.35 L15.55 -3.5 16.25 -4.4 M16.15 6.5 L16.05 7.1 16.1 6.55 16.15 6.5 M13.9 10.1 L12.55 11.35 11.25 12.45 11.25 12.35 11.3 12.2 Q12.05 11.85 12.25 11.0 L12.55 9.85 13.05 9.15 13.1 9.15 13.25 9.35 13.9 10.1 M9.75 14.4 Q9.65 14.6 8.65 15.0 L9.1 14.5 9.75 14.4 M5.5 16.05 L5.2 16.1 4.75 16.0 4.25 15.7 5.2 15.75 5.5 16.05 M3.3 16.0 L2.95 16.1 2.55 16.0 1.9 15.45 0.7 15.55 1.2 14.95 3.0 15.1 3.05 15.1 Q3.35 15.45 3.95 15.6 L3.45 15.9 3.3 16.0 M-1.65 1.5 L-1.95 1.4 -2.6 1.85 -2.45 2.25 -1.65 1.5 M-5.75 6.85 L-6.0 7.05 -5.9 6.95 -5.75 6.75 Q-5.6 6.7 -5.75 6.85 M-4.4 15.95 L-4.15 15.5 -3.9 15.45 -3.5 15.5 Q-3.25 15.5 -3.0 15.3 L-2.55 15.1 -1.3 15.65 -3.35 15.75 -3.75 15.75 -4.4 15.95" fill="#bbbbbb" fill-rule="evenodd" stroke="none"/>
    <path d="M-2.65 -10.45 L-2.55 -10.3 -2.55 -10.2 -2.55 -10.1 -2.55 -10.0 -3.35 -8.9 -3.6 -8.55 -3.8 -8.25 -3.8 -8.15 -3.6 -7.9 -3.4 -7.55 -3.4 -7.5 -3.4 -7.4 -3.45 -7.2 Q-4.25 -6.35 -5.3 -6.8 L-5.45 -6.65 Q-5.65 -7.3 -6.3 -7.55 L-4.4 -9.75 -3.5 -10.65 -3.35 -10.7 -3.15 -10.7 -3.15 -10.75 -2.9 -10.65 -2.75 -10.55 -2.65 -10.45 M-7.4 -6.35 L-6.7 -6.4 -6.7 -5.25 -6.9 -5.3 -7.3 -5.4 -7.5 -5.75 -7.5 -5.95 -7.5 -6.25 -7.4 -6.35 M-7.05 6.25 L-6.45 5.6 -6.15 5.35 -4.9 3.95 -4.45 3.7 -4.4 3.65 -2.65 2.75 -2.4 2.8 -2.2 2.85 -0.3 0.95 0.0 1.0 1.8 0.0 2.6 -0.4 2.35 0.0 1.65 0.8 1.2 1.25 1.2 1.35 1.45 1.55 Q1.7 2.95 0.4 4.1 L-0.05 4.5 -0.15 4.5 -0.15 4.55 -0.35 4.55 Q-1.45 5.1 -2.45 5.8 -3.7 6.7 -3.6 7.8 L-4.25 8.45 -6.15 9.85 -6.45 9.8 -6.55 9.7 -6.65 9.6 -6.75 9.45 -6.8 9.35 Q-7.5 9.95 -8.45 10.2 L-8.7 10.2 -8.9 10.0 -9.15 9.65 Q-8.45 7.75 -7.05 6.25 M-4.85 2.05 L-5.4 2.45 -5.8 2.6 -6.4 2.45 -6.5 2.35 -6.6 2.15 -6.65 2.0 -7.95 3.2 -8.9 4.05 -9.4 4.1 -9.8 3.95 Q-10.2 2.9 -9.1 1.95 L-6.8 0.0 -4.35 -2.2 Q-4.85 -1.15 -5.0 0.0 L-5.1 0.75 -4.85 1.05 -4.55 1.3 -3.65 1.15 -4.6 1.9 -4.85 2.05 M3.95 -1.0 L3.95 -1.05 4.0 -1.0 4.1 -0.9 4.2 -0.8 4.5 -0.75 4.05 -0.8 3.95 -0.9 3.95 -1.0 M4.95 -0.9 L5.1 -1.4 5.1 -1.95 5.1 -2.05 5.0 -2.2 4.9 -2.3 4.3 -2.4 4.95 -3.05 5.8 -3.8 6.05 -4.05 5.8 -4.2 5.7 -4.3 Q5.5 -4.45 5.45 -4.65 L5.6 -5.15 Q7.05 -6.5 8.85 -7.0 L9.25 -7.0 9.35 -6.8 9.45 -6.6 9.45 -6.5 Q10.2 -6.85 11.15 -7.6 L11.45 -7.8 11.75 -7.85 11.75 -7.9 12.1 -7.8 12.25 -7.75 12.35 -7.65 12.35 -7.55 12.45 -7.35 12.45 -7.25 12.45 -7.15 11.7 -5.95 11.2 -5.4 11.2 -5.2 11.2 -5.0 11.2 -4.9 10.3 -3.65 9.8 -3.25 9.5 -3.15 9.3 -3.15 6.0 -0.1 5.9 0.0 5.35 0.45 4.8 0.45 4.7 0.35 4.5 0.0 4.65 -0.45 5.1 -1.05 4.95 -0.9 M-2.65 -0.7 L-3.7 -0.15 -3.2 -1.35 -2.6 -2.7 -2.5 -2.7 -2.25 -2.6 -2.1 -2.55 -2.0 -2.45 -1.95 -2.4 -1.9 -2.3 -1.9 -2.2 -1.9 -2.1 -1.9 -2.0 -2.65 -0.75 -2.65 -0.7 M3.35 -10.65 L3.6 -10.55 3.85 -10.4 4.1 -10.3 Q5.05 -9.6 4.55 -8.5 L3.85 -7.4 Q3.95 -6.85 3.65 -6.45 L2.9 -5.75 2.55 -5.25 2.15 -4.9 2.0 -4.8 1.75 -4.75 1.45 -4.8 1.35 -4.9 Q1.1 -5.05 1.15 -5.35 L1.3 -5.9 2.4 -7.45 2.95 -8.35 2.15 -7.9 1.65 -7.5 1.55 -7.4 1.5 -7.3 1.45 -7.2 1.35 -7.1 1.3 -7.05 Q1.0 -6.9 0.7 -7.05 L0.6 -7.15 Q0.15 -8.55 1.65 -9.6 L2.65 -10.3 3.05 -10.55 3.15 -10.6 3.35 -10.6 3.35 -10.65 M9.45 -0.4 L9.5 -0.25 9.4 0.0 9.4 0.35 9.6 0.6 9.7 0.7 10.2 0.75 10.55 0.5 11.1 0.0 11.95 -0.7 11.7 -0.25 11.75 0.0 11.95 0.2 12.35 0.35 12.8 0.3 12.85 0.25 12.95 0.15 13.0 0.05 13.05 0.0 13.05 -0.05 13.15 -0.15 13.5 -0.15 13.8 -0.2 13.85 -0.25 13.95 -0.35 14.05 -0.45 14.1 -0.9 14.05 -1.2 14.35 -1.85 14.45 -2.6 14.25 -2.95 14.0 -3.15 13.75 -3.25 13.45 -3.15 12.45 -2.65 12.25 -2.65 11.8 -2.55 11.7 -2.5 9.6 -0.9 9.55 -0.8 9.45 -0.4 M0.5 6.45 L0.95 6.85 1.2 7.15 3.0 5.55 4.25 4.55 4.95 3.45 Q6.0 1.95 7.0 1.8 L7.55 1.3 8.05 0.0 8.45 -0.85 9.4 -2.2 10.4 -3.35 Q10.9 -4.4 13.6 -5.5 L16.25 -5.55 16.4 -4.9 16.25 -4.4 15.55 -3.5 15.45 -3.35 Q15.95 -3.5 16.25 -2.55 L16.3 -2.35 16.65 0.0 16.65 0.35 16.35 4.7 16.15 4.3 Q16.1 2.35 14.9 2.35 14.35 2.35 14.05 2.65 12.5 1.95 12.5 3.6 L12.7 4.35 12.45 4.35 Q11.0 4.6 11.0 6.55 L11.2 7.2 11.0 7.35 9.5 8.5 9.45 8.6 9.45 8.65 8.95 9.25 8.4 9.8 Q7.5 9.75 6.15 10.7 4.25 12.0 3.8 13.1 L3.75 13.1 Q2.75 13.1 2.75 14.2 2.75 14.75 3.05 15.1 L3.0 15.1 1.2 14.95 0.7 15.55 -0.2 16.0 -0.25 16.0 -1.3 15.65 -2.55 15.1 -3.0 15.3 Q-3.25 15.5 -3.5 15.5 L-3.9 15.45 -4.15 15.5 -4.4 15.95 -4.45 16.0 Q-5.0 16.75 -5.65 16.75 -6.45 16.75 -6.7 16.1 L-6.85 14.9 Q-6.85 14.1 -6.4 13.45 -5.85 12.65 -4.75 12.6 L-4.5 12.25 -4.4 12.7 -4.3 12.8 -4.0 12.85 -3.35 12.6 -1.65 11.25 -2.15 12.25 -3.1 13.7 -3.15 13.95 -3.05 14.5 -2.9 14.7 -2.5 14.85 -2.3 14.85 -1.8 14.5 -1.05 14.0 -0.8 14.0 -0.65 14.1 -0.55 14.2 Q0.85 14.6 2.0 13.75 L2.05 13.7 2.1 13.6 2.1 13.5 2.1 13.4 2.1 13.3 2.05 13.1 2.0 13.05 1.9 12.95 1.75 12.85 1.5 12.75 -0.2 12.85 -0.35 12.8 -0.75 12.6 -0.85 12.55 -0.1 11.25 Q0.55 10.35 0.2 9.45 L0.05 9.35 -0.25 9.2 -0.5 9.1 -0.8 9.2 -1.25 9.45 -1.3 9.45 -0.45 8.05 0.5 6.45 M16.05 7.1 L16.0 7.25 15.9 7.75 Q15.35 10.35 14.5 10.35 L13.9 10.1 13.25 9.35 13.1 9.15 15.2 7.55 15.8 6.65 16.1 6.55 16.05 7.1 M8.65 15.0 L8.0 15.5 7.75 15.45 7.55 14.9 7.7 14.6 8.05 14.3 8.75 14.5 9.1 14.5 8.65 15.0 M11.65 1.5 L11.5 1.45 11.25 1.35 11.25 1.4 10.95 1.45 10.65 1.6 10.25 1.85 10.0 1.7 9.75 1.6 9.55 1.65 9.45 1.7 9.15 1.9 8.25 2.75 8.25 3.35 8.45 3.7 8.85 3.9 9.0 3.95 8.95 4.15 9.05 4.45 9.1 4.5 9.3 4.7 9.75 4.85 12.25 3.75 12.3 3.7 12.35 3.6 12.35 3.5 12.35 3.4 12.35 3.3 12.35 3.2 12.25 3.05 12.15 2.95 12.0 2.85 11.75 2.75 11.55 2.8 11.3 2.8 11.65 2.45 11.85 2.1 11.85 2.0 11.85 1.9 11.85 1.8 11.75 1.6 11.65 1.5 M12.55 9.85 L12.95 9.2 13.05 9.15 12.55 9.85 M7.15 5.2 L7.0 5.1 6.75 5.0 6.75 5.05 6.55 5.05 6.45 5.1 5.55 5.95 3.1 8.6 Q2.95 8.85 2.95 9.1 L3.2 9.45 3.6 9.6 4.05 9.55 4.85 8.8 7.3 6.2 7.3 6.1 7.4 5.75 7.35 5.55 7.35 5.45 7.25 5.3 7.15 5.2 M-5.75 6.85 Q-5.6 6.7 -5.75 6.75 L-5.9 6.95 -6.0 7.05 -5.75 6.85 M-1.85 7.9 L-3.75 10.35 -3.85 9.9 Q-3.85 9.35 -3.2 8.65 -2.6 8.0 -1.85 7.9" fill="#b1b1b1" fill-rule="evenodd" stroke="none"/>
    <path d="M16.35 4.7 L16.5 5.5 16.2 6.45 16.15 6.5 16.1 6.55 15.8 6.65 15.2 7.55 13.1 9.15 13.05 9.15 12.95 9.2 12.55 9.85 12.25 11.0 Q12.05 11.85 11.3 12.2 L11.25 12.35 11.25 12.45 Q11.2 14.05 9.75 14.4 L9.1 14.5 8.75 14.5 8.05 14.3 7.7 14.6 7.55 14.9 7.75 15.45 7.75 15.5 7.5 16.2 Q7.2 16.6 6.7 16.6 6.15 16.6 5.5 16.05 L5.2 15.75 4.25 15.7 3.95 15.6 Q3.35 15.45 3.05 15.1 2.75 14.75 2.75 14.2 2.75 13.1 3.75 13.1 L3.8 13.1 Q4.25 12.0 6.15 10.7 7.5 9.75 8.4 9.8 L7.6 10.45 Q6.4 11.45 6.7 12.6 L6.8 12.7 7.1 12.75 8.8 11.8 Q10.8 10.0 12.35 7.85 L12.35 7.75 12.35 7.65 12.3 7.45 12.25 7.35 12.15 7.25 12.0 7.2 11.6 7.0 11.6 7.05 11.3 7.1 11.2 7.2 11.0 6.55 Q11.0 4.6 12.45 4.35 L12.7 4.35 12.5 3.6 Q12.5 1.95 14.05 2.65 14.35 2.35 14.9 2.35 16.1 2.35 16.15 4.3 L16.35 4.7 M9.45 8.65 L9.45 8.75 8.95 9.25 9.45 8.65" fill="#a6a6a6" fill-rule="evenodd" stroke="none"/>
    <path d="M15.4 -15.6 Q15.2 -16.75 14.75 -16.75 L14.4 -16.6 14.2 -16.45 13.6 -16.65 12.8 -16.1 12.75 -16.0 12.7 -16.05 13.0 -16.65 Q13.0 -17.55 12.35 -17.1 L11.4 -16.3 10.9 -16.75 10.3 -16.5 9.0 -17.0 Q8.75 -17.0 8.45 -16.65 L8.4 -17.3 9.8 -17.2 13.0 -17.45 15.9 -17.2 15.95 -17.15 Q16.65 -17.0 17.25 -16.3 L17.5 -15.75 17.35 -11.95 17.35 -11.9 17.35 -11.3 Q17.45 -8.3 17.15 -7.5 L15.95 -7.5 14.7 -7.3 14.6 -7.3 11.6 -10.7 11.85 -10.9 12.0 -10.75 Q12.6 -10.15 13.2 -10.15 14.1 -10.15 16.4 -14.55 16.4 -15.25 15.45 -15.25 L15.4 -15.55 15.4 -15.6 M7.85 -16.5 L7.75 -16.75 Q7.75 -17.15 8.15 -17.25 L8.1 -17.15 7.85 -16.5 M8.6 -14.2 L8.6 -14.65 8.65 -14.65 8.6 -14.2 M8.55 -13.6 L8.25 -13.8 8.55 -13.85 8.6 -13.95 8.55 -13.6 M9.35 -12.95 L9.95 -13.35 Q10.1 -12.9 10.75 -12.9 10.75 -12.55 11.05 -12.15 L11.15 -12.05 10.9 -11.4 9.35 -12.95 M11.4 10.25 L10.85 10.8 9.65 11.8 11.0 10.6 11.4 10.25 M8.5 13.85 L8.6 13.95 Q8.0 14.9 8.0 15.7 L7.95 15.05 7.7 14.35 8.5 13.85 M8.1 16.75 L8.65 17.1 Q9.0 17.1 9.2 16.5 L9.5 16.6 9.65 16.6 9.5 17.0 9.5 17.3 9.5 17.35 8.05 17.25 8.1 16.8 8.1 16.75 M10.55 17.35 L10.85 17.05 11.5 16.45 12.2 16.45 12.15 16.9 Q12.15 17.25 12.5 17.35 L12.0 17.3 11.95 17.3 11.35 17.3 10.55 17.35 M12.8 17.35 Q13.35 17.2 14.85 15.05 16.4 12.8 16.4 12.35 L16.15 11.3 16.4 10.4 16.65 9.5 16.5 8.35 16.9 8.35 17.3 8.1 17.25 9.75 17.5 12.95 17.25 15.85 17.2 15.9 Q17.05 16.6 16.35 17.2 L15.8 17.45 12.8 17.35 M7.35 16.6 L7.45 17.05 7.25 16.8 7.35 16.6 M16.45 12.4 L16.4 12.5 16.5 12.8 16.45 12.4 M-11.5 -17.5 L-7.8 -17.3 -7.9 -16.85 -7.65 -15.35 -7.55 -15.0 -7.6 -14.9 -7.6 -14.85 Q-9.3 -13.9 -11.85 -11.2 L-14.4 -8.3 -15.6 -8.25 -15.7 -8.25 -15.65 -8.3 -15.5 -8.4 -15.35 -8.4 Q-14.75 -8.4 -14.75 -9.25 -15.0 -11.65 -13.9 -12.65 -12.3 -13.85 -12.0 -14.45 -11.4 -15.35 -9.9 -15.35 -8.6 -15.4 -8.6 -15.75 L-8.7 -15.9 -8.65 -15.95 Q-8.0 -16.15 -8.0 -16.65 -8.0 -17.35 -11.5 -17.4 L-11.5 -17.5 M-16.85 -8.0 L-17.0 -7.9 -17.05 -7.9 Q-17.9 -7.9 -17.5 -9.95 L-17.75 -13.15 -17.5 -16.05 -17.45 -16.1 Q-17.3 -16.8 -16.6 -17.4 L-16.05 -17.65 -12.25 -17.5 -12.25 -17.4 -13.05 -17.4 -13.45 -17.4 -14.1 -17.4 -15.9 -17.15 -16.5 -16.95 -17.1 -16.05 -17.1 -15.8 -17.35 -15.2 -17.3 -13.75 -17.5 -10.95 Q-17.6 -10.35 -17.25 -10.2 L-17.25 -10.05 -17.1 -9.3 -16.85 -8.0 M-17.0 7.85 Q-17.35 8.15 -17.35 8.8 L-16.75 9.4 Q-16.75 10.6 -16.55 10.85 L-16.75 11.5 -17.0 12.2 Q-16.8 13.4 -16.3 13.6 -16.3 14.2 -16.7 14.55 -17.1 14.95 -17.1 15.3 L-16.9 15.8 -16.85 15.8 Q-16.85 16.35 -16.35 16.35 L-15.9 16.1 -15.55 15.65 -15.5 15.7 -15.6 16.4 Q-15.55 17.0 -15.0 17.0 -14.75 17.0 -14.45 16.65 L-14.0 16.15 Q-13.75 16.5 -13.5 16.5 -13.0 16.5 -12.8 16.0 L-12.7 16.3 -12.6 16.4 -12.15 16.5 -11.15 15.45 -10.35 14.0 Q-10.35 13.4 -11.5 13.1 L-11.5 13.05 -11.25 12.5 Q-11.25 12.15 -11.55 12.05 L-12.3 11.55 -11.75 10.75 -8.4 14.3 Q-8.9 14.6 -8.65 15.75 L-8.55 17.3 -10.05 17.2 -13.25 17.45 -16.15 17.2 -16.2 17.15 -17.5 16.3 -17.75 15.75 -17.6 11.95 -17.6 11.9 -17.6 11.3 Q-17.7 8.7 -17.45 7.75 L-17.0 7.85 M-12.6 16.4 L-12.8 16.35 -13.1 16.45 -12.6 16.4 M-13.25 10.85 L-13.0 10.3 Q-13.0 9.85 -13.6 9.85 L-14.35 10.3 Q-14.35 9.8 -14.55 9.75 L-14.8 9.7 -14.6 9.1 -14.65 8.8 Q-14.75 8.5 -15.1 8.5 L-15.5 8.6 -15.8 7.85 -14.5 7.7 -12.3 10.1 Q-12.7 10.3 -13.25 10.85" fill="#dfb300" fill-rule="evenodd" stroke="none"/>
    <path d="M12.75 -16.0 L12.8 -16.1 13.6 -16.65 14.2 -16.45 14.4 -16.6 14.75 -16.75 Q15.2 -16.75 15.4 -15.6 L15.35 -15.6 Q14.75 -17.4 13.15 -15.15 12.1 -13.6 11.7 -12.5 L11.15 -12.05 11.05 -12.15 Q10.75 -12.55 10.75 -12.9 10.1 -12.9 9.95 -13.35 L9.35 -12.95 8.55 -13.6 8.6 -13.95 8.6 -14.15 8.6 -14.2 8.65 -14.65 8.6 -14.65 8.45 -16.55 8.45 -16.65 Q8.75 -17.0 9.0 -17.0 L10.3 -16.5 10.9 -16.75 11.4 -16.3 12.35 -17.1 Q13.0 -17.55 13.0 -16.65 L12.7 -16.05 12.35 -15.5 12.35 -15.45 12.7 -15.95 12.75 -16.0 M14.5 9.2 L14.7 9.4 14.7 8.9 14.7 8.95 14.5 9.2 M15.8 8.35 L15.15 9.05 13.15 12.0 11.25 14.3 9.65 16.6 9.5 16.6 9.2 16.5 Q9.0 17.1 8.65 17.1 L8.1 16.75 8.0 15.7 Q8.0 14.9 8.6 13.95 L8.5 13.85 14.4 8.3 15.8 8.35 M-11.5 -17.4 Q-8.0 -17.35 -8.0 -16.65 -8.0 -16.15 -8.65 -15.95 L-8.7 -15.9 -8.75 -16.05 Q-9.0 -16.35 -9.55 -16.3 -9.5 -17.25 -12.45 -16.6 -15.45 -15.95 -15.6 -15.15 L-16.1 -13.4 -16.5 -11.6 -16.1 -10.6 -16.35 -9.75 Q-16.05 -8.6 -15.5 -8.4 L-15.65 -8.3 -15.7 -8.25 -16.85 -8.0 -17.1 -9.3 -17.25 -10.05 -17.25 -10.2 Q-17.6 -10.35 -17.5 -10.95 L-17.3 -13.75 -17.35 -15.2 -17.1 -15.8 -17.1 -16.05 -16.5 -16.95 -15.9 -17.15 -14.1 -17.4 -13.45 -17.4 -13.05 -17.4 -12.25 -17.4 -12.15 -17.4 -11.6 -17.4 -11.5 -17.4 M-16.9 15.8 L-17.1 15.3 Q-17.1 14.95 -16.7 14.55 -16.3 14.2 -16.3 13.6 -16.8 13.4 -17.0 12.2 L-16.75 11.5 -16.55 10.85 Q-16.75 10.6 -16.75 9.4 L-17.35 8.8 Q-17.35 8.15 -17.0 7.85 L-16.25 7.85 -15.8 7.85 -15.5 8.6 -15.1 8.5 Q-14.75 8.5 -14.65 8.8 L-14.6 9.1 -14.8 9.7 -14.55 9.75 Q-14.35 9.8 -14.35 10.3 L-13.6 9.85 Q-13.0 9.85 -13.0 10.3 L-13.25 10.85 -14.2 11.8 Q-16.85 14.6 -16.85 15.75 L-16.9 15.8" fill="#ffdd55" fill-rule="evenodd" stroke="none"/>
    <path d="M12.7 -16.05 L12.75 -16.0 12.7 -15.95 12.7 -16.05 M-11.5 -17.5 L-11.5 -17.4 -11.6 -17.5 -11.5 -17.5" fill="#9a2716" fill-rule="evenodd" stroke="none"/>
    <path d="M12.7 -15.95 L12.35 -15.45 12.35 -15.5 12.7 -16.05 12.7 -15.95 M14.5 9.2 L14.7 8.95 14.7 8.9 14.7 9.4 14.5 9.2 M-12.25 -17.5 L-12.2 -17.5 -12.15 -17.5 -11.6 -17.5 -11.5 -17.4 -11.6 -17.4 -12.15 -17.4 -12.25 -17.4 -12.25 -17.5 M-11.5 13.05 L-11.5 13.1 -11.55 13.1 -11.5 13.05" fill="#62382b" fill-rule="evenodd" stroke="none"/>
    <path d="M15.4 -15.55 L15.45 -15.25 Q16.4 -15.25 16.4 -14.55 14.1 -10.15 13.2 -10.15 12.6 -10.15 12.0 -10.75 L11.85 -10.9 11.6 -10.7 11.15 -11.15 10.9 -11.4 11.15 -12.05 11.7 -12.5 Q12.1 -13.6 13.15 -15.15 14.75 -17.4 15.35 -15.6 L15.4 -15.55 M9.65 16.6 L11.25 14.3 13.15 12.0 15.15 9.05 15.8 8.35 16.5 8.35 16.65 9.5 16.4 10.4 16.15 11.3 16.4 12.35 Q16.4 12.8 14.85 15.05 13.35 17.2 12.8 17.35 L12.7 17.35 12.5 17.35 Q12.15 17.25 12.15 16.9 L12.2 16.45 11.5 16.45 10.85 17.05 10.55 17.35 10.0 17.6 Q9.6 17.6 9.5 17.35 L9.5 17.3 9.5 17.0 9.65 16.6 M-8.7 -15.9 L-8.6 -15.75 Q-8.6 -15.4 -9.9 -15.35 -11.4 -15.35 -12.0 -14.45 -12.3 -13.85 -13.9 -12.65 -15.0 -11.65 -14.75 -9.25 -14.75 -8.4 -15.35 -8.4 L-15.5 -8.4 Q-16.05 -8.6 -16.35 -9.75 L-16.1 -10.6 -16.5 -11.6 -16.1 -13.4 -15.6 -15.15 Q-15.45 -15.95 -12.45 -16.6 -9.5 -17.25 -9.55 -16.3 -9.0 -16.35 -8.75 -16.05 L-8.7 -15.9 M-14.75 -14.15 L-14.4 -14.4 -14.75 -14.35 -14.75 -14.15 M-11.75 10.75 L-12.3 11.55 -11.55 12.05 Q-11.25 12.15 -11.25 12.5 L-11.5 13.05 -11.55 13.1 -11.5 13.1 Q-10.35 13.4 -10.35 14.0 L-11.15 15.45 -12.15 16.5 -12.6 16.4 -12.7 16.3 -12.8 16.0 Q-13.0 16.5 -13.5 16.5 -13.75 16.5 -14.0 16.15 L-14.45 16.65 Q-14.75 17.0 -15.0 17.0 -15.55 17.0 -15.6 16.4 L-15.5 15.7 -15.55 15.65 -15.9 16.1 -16.35 16.35 Q-16.85 16.35 -16.85 15.8 L-16.85 15.75 Q-16.85 14.6 -14.2 11.8 L-13.25 10.85 Q-12.7 10.3 -12.3 10.1 L-11.75 10.75" fill="#ffcc00" fill-rule="evenodd" stroke="none"/>
    <path d="M15.4 -15.6 L15.4 -15.55 15.35 -15.6 15.4 -15.6 M-14.75 -14.15 L-14.75 -14.35 -14.4 -14.4 -14.75 -14.15 M-16.85 15.8 L-16.9 15.8 -16.85 15.75 -16.85 15.8" fill="#8a695a" fill-rule="evenodd" stroke="none"/>
    <path d="M-17.0 7.85 L-17.45 7.75 -17.8 7.5 Q-17.8 7.2 -15.8 6.9 L-13.8 7.05 -13.8 7.2 -13.25 7.75 -10.95 10.35 Q-10.4 11.4 -8.85 12.75 -7.55 13.9 -7.55 14.4 L-7.6 14.8 -7.85 14.85 -7.9 14.8 -7.8 16.8 -7.8 17.45 -8.15 17.6 -8.55 17.3 -8.65 15.75 Q-8.9 14.6 -8.4 14.3 L-11.75 10.75 -12.3 10.1 -14.5 7.7 -15.8 7.85 -16.25 7.85 -17.0 7.85" fill="#776000" fill-rule="evenodd" stroke="none"/>
    <path d="M15.85 -10.85 L15.6 -9.4 Q15.2 -8.15 14.6 -8.15 L13.6 -8.3 Q12.6 -8.3 12.6 -9.7 12.05 -9.7 11.95 -10.15 L11.95 -10.65 11.95 -11.2 Q12.0 -11.65 12.45 -11.65 L12.95 -11.4 13.3 -12.5 Q13.5 -13.1 13.95 -12.3 L14.4 -12.55 Q14.9 -12.55 14.95 -12.2 L14.85 -11.7 14.9 -11.6 15.05 -11.55 Q15.3 -11.55 15.5 -11.8 15.85 -11.5 15.85 -10.85 M14.1 8.3 L14.15 7.7 Q14.5 7.5 15.1 8.05 15.5 8.35 15.85 8.25 L16.35 8.1 16.5 8.15 Q16.65 7.65 17.1 7.9 17.85 8.3 17.85 9.9 L17.8 11.05 17.5 11.1 16.85 10.1 16.85 10.6 16.9 10.65 17.45 11.35 17.45 13.3 17.1 13.45 Q16.35 13.45 16.2 12.85 L16.15 12.1 16.05 11.95 15.45 12.45 15.1 12.95 15.2 13.15 15.35 14.15 15.3 15.0 14.95 15.9 14.7 16.0 15.25 15.95 Q16.3 15.95 16.35 16.75 16.35 16.95 13.55 17.6 L12.95 16.9 12.6 16.2 Q12.6 15.75 13.35 15.15 14.1 14.55 14.1 13.85 L13.95 12.65 Q14.0 12.1 14.45 11.9 L14.5 11.8 14.2 11.45 Q13.95 11.75 13.2 11.9 13.2 12.7 12.8 12.7 L12.2 12.25 11.85 11.8 12.45 9.8 Q13.15 8.1 13.65 8.1 13.9 8.1 14.1 8.3 M-10.05 -14.35 Q-10.05 -14.0 -10.4 -13.0 -10.85 -11.8 -11.35 -11.8 L-11.65 -11.85 Q-12.0 -11.9 -12.15 -12.05 -12.25 -11.3 -12.55 -11.3 -13.1 -11.3 -13.3 -13.0 -13.3 -13.4 -12.85 -13.4 L-12.9 -13.7 -12.85 -14.3 -13.05 -14.45 Q-13.25 -14.3 -13.3 -14.3 L-13.9 -15.05 -14.25 -15.35 -14.3 -15.35 -14.25 -15.5 -14.3 -15.75 -14.65 -15.55 -15.05 -15.7 -15.05 -16.55 Q-14.2 -17.1 -13.8 -16.55 L-13.6 -16.15 -13.4 -16.75 Q-13.0 -17.35 -12.2 -16.6 L-11.6 -16.85 Q-11.4 -17.2 -11.15 -16.5 L-11.05 -16.25 -10.75 -16.45 -10.3 -16.55 Q-9.7 -16.55 -9.45 -15.8 L-9.3 -15.0 -9.35 -14.45 -10.05 -14.35" fill="#776000" fill-opacity="0.47843137" fill-rule="evenodd" stroke="none"/>
    <path d="M-8.4 -15.6 L-8.4 -15.7 -8.35 -15.75 -8.5 -16.25 -8.05 -16.85 -7.95 -16.85 -7.8 -16.9 Q-6.9 -16.75 -6.85 -15.85 L-7.0 -15.15 Q-7.45 -14.2 -8.2 -13.35 L-10.7 -10.2 Q-11.9 -9.0 -13.35 -8.1 L-13.9 -7.75 Q-14.6 -7.2 -15.6 -7.4 L-15.9 -7.35 -17.05 -7.45 -17.15 -7.6 -17.2 -7.65 -17.25 -7.75 -17.3 -8.0 -17.3 -8.2 -17.25 -8.35 -17.2 -8.4 -17.15 -8.5 -17.1 -8.55 -16.6 -8.8 -16.35 -8.75 -14.75 -8.95 Q-13.65 -10.1 -12.2 -10.75 L-12.1 -10.8 -9.6 -14.25 -8.45 -15.45 -8.4 -15.55 -8.4 -15.6" fill="#776000" fill-rule="evenodd" stroke="none"/>
    <path d="M14.7 7.25 L15.25 7.05 15.4 7.0 Q16.35 7.05 17.0 7.75 17.35 8.1 17.05 8.55 L16.65 8.75 15.7 8.6 Q15.45 8.5 15.2 8.75 L14.55 9.05 14.5 9.15 14.45 9.2 14.4 9.3 14.35 9.35 Q13.45 11.4 11.6 12.6 L10.1 13.65 9.0 14.45 8.9 14.75 8.9 15.1 8.8 15.65 8.75 15.95 8.7 16.4 8.55 16.95 8.25 17.15 7.55 17.05 7.5 16.95 7.45 16.9 7.4 16.85 7.35 16.75 7.3 16.25 7.35 15.3 7.5 15.05 Q7.4 14.2 7.9 13.6 8.35 12.95 9.1 12.6 L9.55 12.35 12.5 9.4 13.5 8.1 Q13.8 7.7 14.35 7.6 L14.7 7.25" fill="#776000" fill-rule="evenodd" stroke="none"/>
    <path d="M17.35 -7.75 L17.25 -7.15 Q15.7 -6.0 13.95 -6.6 13.35 -6.8 13.1 -7.35 L13.05 -7.5 13.0 -7.6 13.0 -7.7 12.85 -8.0 12.7 -8.3 12.55 -8.55 12.25 -9.15 11.6 -9.9 10.8 -10.4 10.4 -10.75 10.3 -11.0 10.3 -11.1 10.35 -11.35 10.4 -11.4 10.45 -11.5 10.5 -11.55 Q10.65 -11.75 10.85 -11.75 L11.0 -11.8 Q12.45 -11.5 13.3 -10.3 L13.9 -9.15 14.2 -8.6 14.5 -7.95 14.65 -7.75 Q15.9 -8.3 17.1 -8.05 L17.35 -7.75" fill="#776000" fill-rule="evenodd" stroke="none"/>
    <path d="M-16.75 7.0 L-15.1 6.5 Q-13.5 6.4 -12.6 7.7 L-11.85 8.75 -8.9 11.75 Q-7.35 13.05 -7.3 15.0 L-7.25 15.05 -7.2 15.15 -7.2 15.2 -7.2 15.3 -7.2 15.35 -7.15 15.4 -7.1 15.75 -7.15 16.1 -7.25 16.35 -7.3 16.4 -7.8 16.6 -8.25 16.45 -8.5 16.05 -8.7 15.15 -8.7 14.5 -8.75 14.45 -8.75 14.35 -8.8 14.3 -8.8 14.2 -9.2 13.75 -9.95 12.75 -10.2 12.35 -10.55 12.1 -11.3 11.5 Q-11.4 11.45 -11.55 11.35 L-11.75 11.15 -12.2 10.55 -12.55 10.1 -14.4 8.1 -15.25 8.05 -16.95 8.15 -17.0 8.05 -17.05 8.0 -17.1 7.95 -17.15 7.85 -17.2 7.8 -17.2 7.6 -17.2 7.5 -17.1 7.25 Q-17.0 7.05 -16.75 7.0" fill="#776000" fill-rule="evenodd" stroke="none"/>
    <path d="M10.35 -16.45 L10.4 -16.5 10.45 -16.7 10.5 -16.85 10.5 -17.05 10.5 -17.25 10.5 -17.45 10.45 -17.6 10.3 -17.8 10.25 -18.0 10.05 -18.2 9.75 -18.35 9.25 -18.5 9.25 -18.45 8.75 -18.35 8.75 -18.5 8.75 -18.7 8.75 -18.75 12.65 -18.5 16.15 -18.25 Q16.75 -18.2 17.1 -17.8 18.6 -16.95 18.75 -15.2 L19.1 -10.15 Q19.2 -8.25 18.5 -6.65 18.1 -5.7 17.15 -5.6 L17.25 -3.05 17.0 -0.6 17.05 0.0 17.0 2.75 16.65 5.0 16.7 5.4 16.75 6.05 16.75 6.25 16.85 6.55 Q17.65 6.7 18.2 7.45 18.55 7.95 18.25 8.5 L18.2 9.45 18.1 11.6 18.0 11.9 18.0 13.2 17.75 15.95 Q18.0 17.85 16.5 18.7 L15.65 18.85 7.5 18.5 7.2 18.4 Q6.5 17.9 6.3 17.25 L4.45 17.5 2.05 17.3 -6.8 16.9 Q-6.9 17.4 -7.5 18.0 -8.1 18.6 -9.0 18.45 -11.45 20.4 -14.05 18.5 L-17.75 18.05 -18.1 17.65 -18.1 17.6 -18.5 17.2 Q-20.35 15.95 -20.4 13.8 -20.4 12.9 -19.65 12.4 L-19.55 10.7 -19.35 9.3 -19.35 8.95 -19.15 8.3 -19.1 8.2 -18.95 7.35 Q-18.85 6.75 -18.3 6.5 L-18.15 6.3 -17.95 6.15 -17.8 6.0 -17.65 0.0 -17.65 -1.65 -17.35 -5.9 -17.35 -6.3 Q-18.65 -6.3 -19.4 -7.4 -19.7 -11.1 -19.4 -14.9 -19.3 -16.55 -18.55 -17.9 L-18.25 -18.2 Q-17.85 -18.8 -17.1 -18.8 L-14.1 -19.1 -9.5 -18.7 -9.05 -18.7 Q-6.7 -19.05 -6.2 -17.4 L-4.05 -17.6 -1.45 -17.55 -0.1 -17.65 -0.05 -18.1 -0.05 -18.05 0.0 -17.85 0.15 -17.7 0.25 -17.5 0.4 -17.3 0.2 -17.2 0.0 -17.0 -0.1 -16.8 -0.2 -16.6 -0.25 -16.45 -0.25 -16.25 -0.25 -16.05 -0.2 -15.85 -0.1 -15.7 0.0 -15.5 0.2 -15.3 -0.2 -15.35 -3.5 -15.5 -7.15 -15.3 -7.6 -15.55 -7.65 -15.6 Q-8.2 -15.95 -8.15 -16.65 L-13.95 -16.9 -15.1 -16.85 Q-16.25 -16.55 -17.15 -16.85 -17.05 -15.15 -17.25 -13.35 L-17.6 -8.6 -17.6 -8.55 -17.45 -8.4 Q-16.5 -8.5 -15.8 -7.9 L-15.75 -7.85 -15.7 -7.8 -15.5 -7.65 Q-15.15 -5.95 -15.4 -4.15 L-15.75 -2.0 -15.75 0.0 -15.65 5.0 Q-15.65 6.35 -15.95 7.5 -16.1 7.95 -16.6 8.0 L-17.0 8.0 -17.25 9.05 -17.5 10.2 -17.45 12.6 Q-17.45 13.6 -18.3 14.1 L-18.2 14.4 -18.0 14.85 -18.0 14.95 Q-16.75 15.6 -16.7 16.4 L-14.1 16.5 -11.5 17.3 -11.0 17.35 Q-10.5 16.65 -9.7 16.45 L-9.0 16.35 -8.8 15.9 Q-8.45 15.5 -8.0 15.5 L-7.55 15.75 -7.35 15.45 -7.2 15.3 -7.1 15.2 -6.7 15.05 -6.5 15.0 Q-2.0 15.35 2.6 15.1 4.55 14.95 6.3 15.6 L6.55 15.3 8.0 15.35 8.1 15.45 8.2 15.95 8.25 16.4 8.25 16.5 15.65 16.7 15.9 14.2 Q15.95 12.5 16.15 10.9 L16.15 10.45 16.2 9.3 16.25 8.65 Q15.75 8.5 15.25 8.15 14.75 7.75 14.95 7.1 L14.75 6.5 Q14.5 4.95 14.9 3.45 L14.9 0.6 14.95 0.0 15.15 -1.45 15.15 -3.8 15.15 -5.65 Q14.9 -6.1 15.1 -6.6 L15.5 -7.1 15.5 -7.2 15.55 -7.3 Q16.1 -7.85 16.9 -7.8 L17.0 -8.65 17.0 -9.5 16.9 -13.55 16.9 -14.65 16.85 -14.75 16.8 -14.95 16.75 -15.05 16.75 -15.25 16.75 -15.3 16.65 -15.4 16.5 -15.6 16.45 -15.7 16.35 -15.85 16.25 -15.9 15.9 -16.05 15.8 -16.15 15.7 -16.3 10.35 -16.45" fill="#000000" fill-rule="evenodd" stroke="none"/>
    <path d="M11.95 -3.55 L12.2 -3.4 Q12.65 -1.65 10.65 -0.8 L9.05 0.0 8.9 0.1 Q7.5 0.9 6.35 1.95 5.85 2.4 5.4 2.05 L5.3 2.65 4.35 3.4 0.6 5.6 0.3 5.6 Q-1.0 4.6 0.35 3.65 2.2 2.35 4.05 1.2 L4.2 1.2 4.4 1.15 4.9 1.35 4.95 0.75 5.8 0.0 Q7.6 -1.65 9.75 -2.95 10.6 -3.45 11.4 -3.75 L11.95 -3.55 M13.45 1.1 L13.7 1.25 13.85 2.0 13.45 2.85 10.05 5.3 9.5 5.7 Q8.1 6.75 7.8 5.1 7.65 4.2 8.5 3.8 L10.85 2.2 12.9 0.9 13.45 1.1 M2.25 5.8 L4.75 4.05 6.3 3.05 6.45 3.05 6.65 3.0 7.2 3.2 7.45 3.35 Q7.8 3.9 7.45 4.45 L7.05 5.05 7.0 5.0 6.8 4.85 6.25 4.65 6.05 4.7 5.9 4.7 4.05 5.75 Q3.75 5.9 3.5 6.15 L3.45 6.0 3.2 5.85 2.65 5.65 2.45 5.7 2.25 5.8 M5.65 7.35 L5.45 7.75 1.8 12.65 0.4 12.7 Q0.0 12.3 0.2 11.75 -1.15 12.45 -1.7 11.1 L-1.7 10.65 -1.9 10.6 Q-2.7 10.2 -2.45 9.35 L-1.65 8.75 -1.65 8.8 Q-1.05 10.65 0.55 9.1 L1.7 8.35 1.65 8.45 1.0 8.9 -0.7 10.5 -0.65 11.35 -0.35 11.6 Q1.25 11.9 2.45 10.45 L2.9 9.8 Q3.85 8.15 5.65 7.35 M9.7 7.7 L9.95 7.85 Q10.45 9.2 9.05 10.0 L7.85 10.45 Q6.7 11.9 5.8 10.45 5.6 10.1 5.7 9.75 6.8 8.6 8.2 7.8 L9.15 7.5 9.7 7.7 M-3.1 5.0 Q-2.8 5.0 -2.55 5.2 -2.45 5.25 -2.3 5.35 -1.75 6.95 -3.7 7.5 -4.3 7.7 -4.55 8.25 -5.95 9.2 -6.45 7.7 L-6.45 7.25 Q-5.4 5.95 -3.9 5.25 -3.5 5.05 -3.1 5.0 M-1.7 11.35 L-1.5 11.5 Q-1.15 13.15 -2.75 14.45 -3.65 15.15 -4.3 14.2 -4.85 13.35 -4.15 12.65 L-2.6 11.2 -2.45 11.2 -2.25 11.15 -1.7 11.35" fill="#a6a6a6" fill-rule="evenodd" stroke="none"/>
    <path d="M5.65 -1.05 Q4.6 -0.6 3.6 0.0 L3.25 0.2 Q2.45 1.8 1.35 0.5 L1.2 0.0 1.25 -0.15 Q2.1 -2.0 4.15 -2.85 L5.45 -3.65 Q5.9 -4.05 6.5 -4.1 L7.05 -3.9 7.25 -3.75 Q7.7 -1.95 5.65 -1.05 M7.05 5.05 Q7.55 6.55 5.75 7.3 L5.65 7.35 Q3.85 8.15 2.9 9.8 L2.45 10.45 Q1.25 11.9 -0.35 11.6 L-0.65 11.35 -0.7 10.5 1.0 8.9 1.65 8.45 1.7 8.35 0.55 9.1 Q-1.05 10.65 -1.65 8.8 L-1.65 8.75 Q-1.75 8.25 -1.35 7.95 L-0.6 7.6 Q0.55 6.35 2.25 5.8 L2.45 5.7 2.65 5.65 3.2 5.85 3.45 6.0 3.5 6.15 Q3.75 5.9 4.05 5.75 L5.9 4.7 6.05 4.7 6.25 4.65 6.8 4.85 7.0 5.0 7.05 5.05 M-1.8 -8.95 L-1.6 -9.0 -1.05 -8.8 -0.8 -8.65 Q-0.35 -7.1 -2.05 -6.25 -4.0 -5.3 -5.75 -4.15 -6.1 -3.95 -6.5 -4.15 -7.3 -4.55 -7.05 -5.4 -5.15 -7.1 -2.9 -8.4 -2.45 -8.65 -1.95 -8.95 L-1.8 -8.95 M-5.8 -2.25 Q-5.25 -0.7 -7.15 -0.15 L-7.55 0.0 -9.1 0.95 Q-10.25 2.05 -11.65 1.9 L-12.15 1.5 Q-12.5 0.4 -11.45 0.0 L-11.3 -0.05 Q-9.5 -1.55 -7.3 -2.45 L-6.6 -2.6 -6.05 -2.4 -5.8 -2.25" fill="#b1b1b1" fill-rule="evenodd" stroke="none"/>
    <path d="M8.75 -18.35 L9.25 -18.45 9.25 -18.5 9.75 -18.35 10.05 -18.2 10.25 -18.0 10.3 -17.8 10.45 -17.6 10.5 -17.45 10.5 -17.25 10.5 -17.05 10.5 -16.85 10.45 -16.7 10.4 -16.5 10.35 -16.45 10.25 -16.3 10.2 -16.1 10.05 -15.95 10.0 -15.75 9.8 -15.55 9.5 -15.35 9.0 -15.25 8.8 -15.3 8.75 -15.25 8.55 -15.05 8.25 -14.85 7.75 -14.75 3.5 -14.75 2.95 -14.85 1.0 -15.0 0.45 -15.1 0.2 -15.3 0.0 -15.5 -0.1 -15.7 -0.2 -15.85 -0.25 -16.05 -0.25 -16.25 -0.25 -16.45 -0.2 -16.6 -0.1 -16.8 0.0 -17.0 0.2 -17.2 0.4 -17.3 0.45 -17.35 1.0 -17.45 1.0 -17.5 3.25 -17.5 3.75 -17.35 7.75 -17.25 7.8 -17.45 7.9 -17.6 8.05 -17.8 8.25 -18.0 8.45 -18.2 8.7 -18.35 8.75 -18.35" fill="#000000" fill-opacity="0.99215686" fill-rule="evenodd" stroke="none"/>
  </g>
</svg>
