<?xml version="1.0" encoding="UTF-8" standalone="no"?>
<svg xmlns:ffdec="https://www.free-decompiler.com/flash" xmlns:xlink="http://www.w3.org/1999/xlink" ffdec:objectType="shape" height="2.8px" width="12.05px" xmlns="http://www.w3.org/2000/svg">
  <g transform="matrix(1.0, 0.0, 0.0, 1.0, 4.25, 9.7)">
    <path d="M7.55 -8.55 L7.6 -8.45 7.6 -8.4 7.6 -8.3 7.6 -8.2 7.6 -8.1 7.55 -8.0 7.55 -7.9 7.55 -7.85 7.7 -7.8 7.7 -7.7 7.8 -7.7 7.8 -7.6 7.7 -7.55 7.6 -7.45 7.55 -7.4 7.3 -7.35 7.1 -7.3 6.7 -7.25 6.45 -7.15 6.2 -7.15 5.8 -7.15 5.5 -7.1 5.4 -7.05 5.3 -7.0 3.5 -7.0 3.1 -7.05 3.05 -7.15 2.9 -7.15 -2.2 -7.15 -2.45 -7.15 -2.5 -7.1 -2.6 -7.0 -2.7 -6.95 -2.8 -6.9 -3.0 -6.9 -3.2 -6.9 -3.4 -6.95 -3.5 -7.05 -3.6 -7.15 -3.7 -7.25 -3.7 -7.3 -3.9 -7.4 -4.05 -7.45 -4.15 -7.5 -4.25 -7.6 -4.25 -7.75 -4.15 -7.85 Q-4.05 -7.85 -4.05 -7.9 L-3.8 -7.95 -3.75 -7.95 -3.75 -8.0 -3.7 -8.1 -3.65 -8.2 -3.65 -8.3 -3.55 -8.4 -3.45 -8.45 -3.35 -8.55 -3.15 -8.75 -3.05 -8.85 -2.95 -8.95 -2.9 -9.05 -2.8 -9.1 -2.7 -9.1 -2.6 -9.15 -2.45 -9.2 -2.35 -9.3 -2.2 -9.4 -2.05 -9.5 -1.9 -9.6 -1.7 -9.65 -1.5 -9.65 -1.5 -9.7 -0.75 -9.7 -0.55 -9.65 -0.4 -9.6 -0.25 -9.5 -0.15 -9.45 0.05 -9.4 0.2 -9.35 0.6 -9.3 0.8 -9.25 0.9 -9.2 1.2 -9.15 1.35 -9.1 1.75 -9.05 1.95 -9.0 2.05 -8.95 2.5 -8.95 2.7 -8.9 2.85 -8.85 3.0 -8.8 3.2 -8.75 3.3 -8.7 3.5 -8.7 3.7 -8.65 3.85 -8.6 4.7 -8.6 4.9 -8.65 5.1 -8.7 5.25 -8.75 5.55 -8.8 5.7 -8.9 5.8 -8.9 6.2 -8.95 6.5 -9.0 7.05 -9.0 7.2 -8.95 7.35 -8.85 7.45 -8.75 7.5 -8.65 7.55 -8.55" fill="#cccccc" fill-rule="evenodd" stroke="none"/>
  </g>
</svg>
