<?xml version="1.0" encoding="UTF-8" standalone="no"?>
<svg xmlns:ffdec="https://www.free-decompiler.com/flash" xmlns:xlink="http://www.w3.org/1999/xlink" ffdec:objectType="shape" height="11.85px" width="111.4px" xmlns="http://www.w3.org/2000/svg">
  <g transform="matrix(1.0, 0.0, 0.0, 1.0, 51.6, 19.0)">
    <path d="M0.4 -18.8 L0.6 -18.7 0.75 -18.65 0.95 -18.6 0.95 -18.55 1.0 -18.5 1.0 -18.45 0.95 -18.35 0.85 -18.25 0.75 -18.2 0.5 -18.15 0.35 -18.1 0.15 -18.05 0.15 -17.95 0.35 -17.9 0.5 -17.85 0.85 -17.8 1.0 -17.7 1.2 -17.65 1.35 -17.6 1.35 -17.5 1.6 -17.45 1.85 -17.35 2.2 -17.35 2.55 -17.25 2.9 -17.15 3.45 -17.1 3.55 -17.0 3.8 -16.95 4.0 -16.85 4.3 -16.8 4.65 -16.75 4.8 -16.7 5.0 -16.65 5.15 -16.55 5.5 -16.5 5.65 -16.4 5.85 -16.35 6.0 -16.35 6.1 -16.25 6.35 -16.2 6.45 -16.1 6.7 -16.05 6.75 -15.95 6.85 -15.9 6.95 -15.85 6.95 -15.55 6.95 -15.4 6.95 -15.35 6.85 -15.25 6.75 -15.2 6.7 -15.1 6.45 -15.1 6.25 -15.05 5.85 -14.95 5.6 -14.95 5.35 -14.9 5.0 -14.9 4.4 -14.8 4.05 -14.8 3.7 -14.7 3.45 -14.65 3.2 -14.65 2.9 -14.65 2.2 -14.65 1.6 -14.65 0.95 -14.65 0.5 -14.7 0.15 -14.8 -0.1 -14.85 -0.25 -14.95 -0.35 -15.0 -0.4 -15.05 -0.4 -15.3 -0.35 -15.4 -0.25 -15.4 -0.1 -15.5 0.15 -15.55 0.5 -15.65 0.85 -15.7 1.0 -15.8 0.95 -15.8 0.75 -15.9 0.4 -15.95 0.15 -16.05 0.1 -16.05 -0.1 -16.15 -0.4 -16.2 -0.7 -16.25 -0.75 -16.35 -0.95 -16.35 -1.25 -16.45 -1.6 -16.5 -1.8 -16.55 -2.05 -16.65 -2.1 -16.75 -2.45 -16.8 -2.8 -16.85 -3.05 -16.9 -3.4 -16.95 -3.65 -17.0 -3.7 -17.1 -3.9 -17.1 -4.25 -17.2 -4.5 -17.3 -4.55 -17.35 -4.75 -17.4 -4.9 -17.45 -5.0 -17.55 -5.1 -17.6 -5.1 -17.7 -5.1 -17.8 -5.1 -17.95 -5.1 -18.1 -5.1 -18.2 -5.0 -18.2 -5.0 -18.3 -4.9 -18.4 -4.75 -18.45 -4.75 -18.5 -4.55 -18.6 -4.5 -18.7 -4.25 -18.75 -3.9 -18.8 -3.65 -18.85 -3.3 -18.9 -3.05 -18.95 -2.6 -19.0 -2.05 -19.0 -1.6 -19.0 -0.95 -19.0 -0.4 -18.9 0.1 -18.85 0.4 -18.8 M21.05 -13.45 L21.3 -13.55 21.65 -13.55 22.0 -13.65 22.35 -13.75 22.75 -13.75 23.2 -13.8 23.75 -13.8 24.45 -13.8 24.95 -13.75 25.45 -13.7 25.8 -13.6 25.95 -13.55 26.15 -13.45 26.3 -13.45 26.3 -13.35 26.4 -13.3 26.4 -13.25 26.3 -13.15 26.25 -13.1 26.15 -13.0 25.95 -12.95 25.95 -12.85 25.95 -12.75 25.95 -12.7 26.15 -12.7 26.25 -12.6 26.3 -12.5 26.4 -12.45 26.55 -12.4 Q26.55 -12.35 26.65 -12.35 L26.8 -12.25 27.0 -12.25 27.15 -12.15 27.25 -12.05 27.5 -12.0 27.6 -11.95 27.65 -11.85 27.65 -11.75 27.85 -11.7 28.0 -11.6 28.0 -11.55 28.1 -11.5 28.1 -11.4 28.1 -11.3 28.1 -11.15 28.1 -10.95 28.1 -10.7 28.0 -10.65 27.9 -10.6 27.65 -10.55 27.6 -10.5 27.25 -10.45 26.8 -10.35 26.25 -10.3 25.95 -10.25 25.9 -10.2 25.8 -10.1 25.55 -10.05 25.45 -10.0 25.15 -9.95 24.7 -9.85 24.45 -9.8 24.05 -9.75 23.35 -9.75 22.75 -9.75 22.1 -9.8 21.65 -9.85 21.3 -10.0 21.05 -10.05 20.9 -10.05 20.8 -10.15 20.75 -10.2 20.75 -10.25 20.75 -10.35 20.75 -10.4 20.75 -10.5 20.75 -10.55 20.75 -10.65 20.8 -10.7 20.9 -10.8 21.15 -10.8 21.5 -10.9 21.75 -11.0 22.25 -11.0 22.75 -11.1 22.85 -11.15 22.75 -11.25 22.5 -11.3 22.4 -11.4 22.4 -11.5 22.35 -11.55 22.15 -11.6 22.0 -11.65 21.9 -11.75 21.65 -11.8 21.55 -11.85 21.3 -11.95 21.25 -12.0 21.15 -12.05 21.15 -12.1 20.9 -12.25 20.8 -12.25 20.75 -12.35 20.75 -12.4 20.75 -12.65 20.75 -12.9 20.75 -13.1 20.75 -13.25 20.8 -13.3 20.9 -13.4 21.05 -13.45 M39.45 -7.85 L39.5 -7.9 39.75 -7.95 40.1 -8.0 40.35 -8.05 40.7 -8.1 40.95 -8.15 41.35 -8.2 41.95 -8.2 57.2 -8.2 57.85 -8.2 58.4 -8.1 58.9 -8.05 59.2 -8.0 59.4 -7.95 59.55 -7.85 59.75 -7.8 59.75 -7.7 59.8 -7.7 59.8 -7.6 59.75 -7.55 59.65 -7.45 59.55 -7.4 59.3 -7.35 59.15 -7.3 58.7 -7.25 58.45 -7.15 58.2 -7.15 57.2 -7.15 41.35 -7.15 40.7 -7.15 40.25 -7.25 39.95 -7.3 Q39.75 -7.35 39.7 -7.4 L39.5 -7.45 39.45 -7.5 39.35 -7.6 39.35 -7.75 39.45 -7.85 M-51.6 -7.85 L-51.6 -8.0 -51.5 -8.05 -51.45 -8.15 Q-51.25 -8.2 -51.2 -8.25 L-50.85 -8.3 -50.6 -8.35 -50.25 -8.35 -50.0 -8.4 -49.6 -8.4 -49.0 -8.45 -38.85 -8.45 -38.15 -8.4 -37.65 -8.35 -37.15 -8.3 -36.8 -8.25 -36.65 -8.2 -36.45 -8.1 -36.3 -8.05 -36.3 -8.0 -36.2 -7.95 -36.2 -7.85 -36.3 -7.8 -36.4 -7.7 -36.45 -7.7 -36.7 -7.6 -36.9 -7.55 -37.3 -7.45 -37.55 -7.45 -37.8 -7.45 -38.85 -7.4 -49.6 -7.4 -50.25 -7.45 -50.7 -7.5 -51.0 -7.6 -51.25 -7.65 -51.45 -7.7 -51.5 -7.75 -51.6 -7.85 M-20.55 -12.45 L-20.3 -12.5 -19.95 -12.6 -19.9 -12.7 -19.8 -12.7 -19.7 -12.8 -19.55 -12.85 -19.3 -12.95 -18.95 -12.95 -18.55 -13.05 -17.75 -13.1 -17.35 -13.2 -16.9 -13.25 -16.4 -13.3 -15.75 -13.35 -15.15 -13.35 -14.7 -13.35 -14.05 -13.35 -13.55 -13.3 -13.05 -13.25 -12.7 -13.2 -12.5 -13.1 -12.35 -13.05 -12.2 -12.95 -12.1 -12.85 -12.1 -12.8 -12.2 -12.7 -12.25 -12.7 -12.35 -12.6 -12.6 -12.5 -12.75 -12.45 -13.2 -12.4 -13.45 -12.35 -13.7 -12.35 -14.3 -12.35 -14.7 -12.25 -14.9 -12.25 -15.15 -12.1 -15.3 -12.05 -15.5 -12.0 -15.5 -11.85 -15.3 -11.8 -15.25 -11.75 -15.15 -11.65 -15.05 -11.6 -14.9 -11.55 -14.8 -11.5 -14.65 -11.4 -14.45 -11.3 -14.3 -11.3 -14.3 -11.25 -14.2 -11.15 -14.05 -11.1 -13.85 -11.0 -13.8 -10.9 -13.8 -10.8 -13.8 -10.65 -13.8 -10.55 -13.8 -10.5 -13.8 -10.4 -13.85 -10.35 -13.95 -10.25 -14.2 -10.2 -14.3 -10.15 -14.45 -10.05 -14.65 -10.05 -14.8 -10.0 -15.15 -9.85 -15.5 -9.85 -15.9 -9.75 -16.15 -9.7 -16.6 -9.7 -17.25 -9.7 -17.85 -9.7 -18.55 -9.7 -18.95 -9.8 -19.3 -9.85 -19.55 -9.95 -19.7 -10.0 -19.8 -10.05 -19.9 -10.15 -19.9 -10.35 -19.8 -10.45 -19.7 -10.55 -19.55 -10.55 -19.3 -10.65 -19.35 -10.7 -19.35 -10.8 -19.45 -10.8 -19.55 -10.9 -19.8 -11.0 -19.9 -11.1 -19.95 -11.15 -20.2 -11.2 -20.3 -11.3 -20.55 -11.3 -20.65 -11.4 -20.75 -11.45 -20.75 -11.6 -20.75 -11.75 -20.75 -11.85 -20.75 -12.15 -20.75 -12.35 -20.65 -12.4 -20.55 -12.45" fill="#cccccc" fill-rule="evenodd" stroke="none"/>
  </g>
</svg>
