<?xml version="1.0" encoding="UTF-8" standalone="no"?>
<svg xmlns:ffdec="https://www.free-decompiler.com/flash" xmlns:xlink="http://www.w3.org/1999/xlink" ffdec:objectType="shape" height="14.0px" width="72.5px" xmlns="http://www.w3.org/2000/svg">
  <g transform="matrix(1.0, 0.0, 0.0, 1.0, 32.75, 21.75)">
    <path d="M15.25 -20.4 L15.1 -20.0 14.85 -19.65 14.5 -19.4 14.0 -19.25 13.25 -19.5 12.85 -19.9 12.75 -20.25 12.75 -20.65 12.75 -21.0 13.1 -21.4 13.5 -21.65 13.95 -21.7 14.0 -21.75 14.6 -21.5 15.0 -21.15 15.25 -20.75 15.25 -20.4 M33.0 -13.25 L35.0 -13.25 35.6 -13.0 36.1 -12.6 36.5 -12.25 36.85 -11.9 37.6 -11.5 38.0 -11.25 38.6 -11.0 39.0 -10.65 39.25 -10.25 39.35 -9.9 39.6 -9.5 39.75 -9.15 39.75 -8.75 39.5 -8.4 39.1 -8.0 38.5 -7.75 38.0 -7.75 37.25 -8.0 36.85 -8.4 36.6 -8.75 36.1 -9.15 35.75 -9.5 35.35 -9.9 35.0 -10.25 34.75 -10.5 34.6 -10.6 33.0 -10.75 32.25 -11.0 31.85 -11.4 31.75 -11.75 31.75 -12.15 31.75 -12.5 32.1 -12.9 32.5 -13.15 32.95 -13.2 33.0 -13.25 M-27.75 -12.4 L-27.75 -12.0 -27.9 -11.65 -28.0 -11.25 -28.25 -11.0 -28.5 -10.9 -29.0 -10.75 -29.75 -11.0 -30.0 -11.25 -30.75 -11.5 -31.5 -11.75 -32.25 -12.0 -32.65 -12.4 -32.75 -12.75 -32.75 -13.15 -32.75 -13.5 -32.75 -13.9 -32.75 -14.25 -32.65 -14.65 -32.25 -15.0 -31.55 -15.2 -31.5 -15.25 -30.9 -15.0 -30.5 -14.65 -30.25 -14.4 -30.0 -14.25 -29.4 -14.0 -29.0 -13.75 -28.4 -13.5 -28.0 -13.15 -27.75 -12.75 -27.75 -12.4 M-7.0 -19.75 L-6.4 -19.5 -6.0 -19.15 -5.75 -18.75 -5.75 -18.4 -5.75 -18.0 -5.9 -17.65 -6.0 -17.25 -6.25 -17.0 -7.0 -16.75 -9.4 -16.0 -10.0 -15.75 -13.5 -15.75 -14.25 -16.0 -14.65 -16.4 -14.75 -16.75 -14.75 -17.15 -14.75 -17.5 -14.4 -17.9 -14.0 -18.15 -13.5 -18.25 -10.25 -18.5 -9.4 -18.9 -9.0 -19.15 -8.5 -19.25 -7.75 -19.5 -7.05 -19.7 -7.0 -19.75" fill="#cccccc" fill-rule="evenodd" stroke="none"/>
  </g>
</svg>
