<?xml version="1.0" encoding="UTF-8" standalone="no"?>
<svg xmlns:ffdec="https://www.free-decompiler.com/flash" xmlns:xlink="http://www.w3.org/1999/xlink" ffdec:objectType="shape" height="16.0px" width="162.0px" xmlns="http://www.w3.org/2000/svg">
  <g transform="matrix(1.0, 0.0, 0.0, 1.0, 94.25, 23.75)">
    <path d="M37.6 -21.0 L38.0 -20.65 38.25 -20.25 38.25 -19.9 38.25 -19.5 38.1 -19.15 38.0 -18.75 37.75 -18.5 37.5 -18.4 37.0 -18.25 36.25 -18.5 36.0 -18.75 35.25 -19.0 34.5 -19.25 33.75 -19.5 33.35 -19.9 33.1 -20.15 32.95 -20.25 32.25 -20.5 31.0 -20.8 30.25 -21.0 30.0 -21.25 29.25 -21.5 28.85 -21.9 28.75 -22.25 28.75 -22.65 28.75 -23.0 29.1 -23.4 29.5 -23.65 29.95 -23.7 30.0 -23.75 31.0 -23.75 31.6 -23.55 32.5 -23.25 33.1 -23.05 34.0 -22.75 34.6 -22.5 35.1 -22.1 35.35 -21.9 35.5 -21.8 36.1 -21.55 37.0 -21.25 37.6 -21.0 M59.0 -14.25 L61.5 -14.25 62.1 -14.0 66.5 -13.75 67.1 -13.5 67.5 -13.15 67.75 -12.75 67.75 -12.4 67.6 -12.0 67.35 -11.65 67.0 -11.4 66.5 -11.25 61.5 -11.25 60.75 -11.5 59.0 -11.75 58.25 -12.0 57.85 -12.4 57.75 -12.75 57.75 -13.15 57.75 -13.5 58.1 -13.9 58.5 -14.15 58.95 -14.2 59.0 -14.25 M-92.5 -10.75 L-91.9 -10.5 -89.0 -10.25 -88.4 -10.0 -88.0 -9.65 -87.75 -9.25 -87.75 -8.9 -87.9 -8.5 -88.15 -8.15 -88.5 -7.9 -89.0 -7.75 -92.5 -7.75 -93.25 -8.0 -93.65 -8.4 -94.0 -8.75 -94.25 -9.15 -94.25 -9.5 -94.25 -9.9 -94.0 -10.25 -93.75 -10.5 -93.5 -10.6 -93.0 -10.7 -93.0 -10.75 -92.5 -10.75 M-61.5 -21.75 L-60.9 -21.5 -60.5 -21.15 -60.25 -20.75 -60.25 -20.4 -60.25 -20.0 -60.25 -19.65 -60.0 -19.25 -59.65 -18.9 -59.4 -18.5 -58.55 -17.75 -57.4 -16.65 -56.65 -15.9 -55.9 -15.5 -55.5 -15.15 -55.25 -14.75 -55.25 -14.4 -55.4 -14.0 -55.65 -13.65 -56.0 -13.4 -56.5 -13.25 -57.5 -13.25 -58.25 -13.5 -58.65 -13.9 -59.0 -14.25 -59.75 -15.0 -60.25 -15.5 -60.25 -15.0 -60.25 -13.9 -60.25 -13.5 -60.4 -13.15 -60.5 -12.75 -60.75 -12.5 -61.0 -12.4 -61.5 -12.25 -62.25 -12.5 -62.65 -12.9 -62.75 -13.25 -62.75 -14.0 -62.75 -15.15 -62.75 -16.25 -62.75 -17.4 -62.5 -17.75 -62.65 -17.9 -62.75 -18.25 -62.75 -18.65 -62.75 -19.0 -62.75 -19.75 -62.75 -20.5 -62.75 -20.9 -62.5 -21.25 -62.25 -21.5 -62.0 -21.6 -61.55 -21.7 -61.5 -21.75 M-29.75 -19.75 L-29.75 -19.4 -29.9 -19.0 -30.15 -18.65 -30.5 -18.4 -31.0 -18.25 -35.0 -18.25 -35.75 -18.5 -36.5 -18.75 -37.25 -19.0 -37.65 -19.4 -37.9 -19.65 -38.05 -19.75 -38.75 -20.0 -39.15 -20.4 -39.25 -20.75 -39.25 -21.15 -39.25 -21.5 -39.25 -21.9 -39.0 -22.25 -38.75 -22.5 -38.5 -22.6 -38.05 -22.7 -38.0 -22.75 -37.4 -22.5 -37.0 -22.25 -36.4 -22.0 -35.9 -21.6 -35.65 -21.4 -35.0 -21.25 -34.4 -21.0 -31.0 -20.75 -30.4 -20.5 -30.0 -20.15 -29.75 -19.75" fill="#cccccc" fill-rule="evenodd" stroke="none"/>
  </g>
</svg>
