<?xml version="1.0" encoding="UTF-8" standalone="no"?>
<svg xmlns:ffdec="https://www.free-decompiler.com/flash" xmlns:xlink="http://www.w3.org/1999/xlink" ffdec:objectType="shape" height="21.0px" width="224.35px" xmlns="http://www.w3.org/2000/svg">
  <g transform="matrix(1.0, 0.0, 0.0, 1.0, 114.55, 28.45)">
    <path d="M22.55 -26.3 L22.6 -26.2 22.65 -26.15 22.7 -26.05 22.75 -25.95 22.85 -25.95 22.9 -26.05 22.95 -26.15 23.05 -26.2 23.1 -26.3 23.15 -26.4 23.25 -26.5 23.35 -26.6 23.45 -26.7 23.65 -26.75 24.6 -26.8 24.8 -26.8 24.9 -26.9 25.05 -26.95 25.15 -27.0 25.35 -27.0 25.35 -27.05 25.85 -27.0 26.05 -27.0 26.2 -26.95 26.35 -26.85 26.45 -26.75 26.5 -26.65 26.55 -26.55 26.6 -26.45 26.6 -26.4 26.6 -26.3 26.6 -26.2 26.6 -26.1 26.55 -26.0 26.55 -25.9 26.45 -25.8 26.4 -25.7 26.3 -25.6 26.2 -25.55 26.15 -25.55 26.0 -25.5 25.85 -25.45 25.6 -25.4 25.45 -25.3 25.0 -25.2 24.75 -25.15 24.35 -25.2 24.3 -25.1 24.2 -25.0 24.2 -24.9 24.1 -24.8 24.05 -24.7 23.95 -24.65 23.85 -24.55 23.8 -24.45 23.75 -24.35 23.7 -24.25 23.6 -24.15 23.45 -24.05 23.3 -24.0 23.1 -24.0 22.6 -24.0 22.4 -24.0 22.2 -24.05 22.1 -24.15 22.0 -24.25 21.9 -24.35 21.85 -24.3 21.75 -24.2 21.65 -24.1 21.55 -24.05 21.45 -24.0 21.25 -23.95 21.05 -24.0 20.85 -24.05 20.75 -24.15 20.65 -24.25 20.55 -24.35 20.55 -24.45 20.45 -24.55 20.4 -24.65 20.35 -24.7 20.35 -24.8 20.3 -24.9 20.3 -25.0 20.2 -25.1 20.1 -25.2 20.05 -25.3 20.0 -25.4 19.95 -25.45 19.85 -25.55 19.75 -25.65 19.65 -25.75 19.6 -25.85 19.6 -25.95 19.55 -26.05 19.55 -26.15 19.55 -26.2 19.55 -26.3 19.6 -26.4 19.6 -26.5 19.7 -26.6 19.8 -26.7 19.85 -26.8 19.95 -26.85 20.05 -26.85 20.15 -26.9 20.35 -26.95 20.6 -26.95 20.8 -26.9 20.95 -26.85 21.1 -26.75 21.2 -26.7 21.3 -26.75 21.5 -26.75 21.85 -26.75 22.05 -26.75 22.2 -26.7 22.35 -26.6 22.45 -26.5 22.5 -26.4 22.55 -26.3 M52.8 -21.15 L53.0 -21.2 53.2 -21.15 53.35 -21.1 53.5 -21.0 53.6 -20.9 53.65 -20.8 53.7 -20.7 53.75 -20.65 53.75 -20.55 53.75 -20.45 53.75 -20.35 53.75 -20.25 53.75 -20.15 53.75 -20.05 53.7 -19.95 53.65 -19.9 53.6 -19.8 53.6 -19.7 53.5 -19.6 53.5 -19.5 53.45 -19.4 53.35 -19.3 53.3 -19.2 53.25 -19.15 53.2 -19.05 53.1 -18.95 53.05 -18.85 53.0 -18.75 52.95 -18.65 52.85 -18.55 52.7 -18.5 52.5 -18.4 52.35 -18.4 52.25 -18.4 52.05 -18.4 51.6 -18.55 51.45 -18.65 51.3 -18.75 51.2 -18.8 50.1 -18.8 49.95 -18.75 49.75 -18.7 49.65 -18.6 49.55 -18.55 49.4 -18.45 49.3 -18.4 49.2 -18.3 49.05 -18.2 49.0 -18.1 48.95 -18.0 48.85 -17.9 48.45 -17.75 47.85 -17.65 47.45 -17.7 47.25 -17.9 46.95 -18.2 46.7 -18.45 46.4 -18.75 46.35 -18.7 46.25 -18.6 46.15 -18.5 46.05 -18.45 45.95 -18.4 45.35 -18.4 44.95 -18.45 44.85 -18.55 44.7 -18.65 44.55 -18.75 44.4 -18.85 44.3 -18.95 44.2 -19.05 44.15 -19.15 44.1 -19.2 44.0 -19.3 44.0 -19.4 43.9 -19.5 43.8 -19.6 43.7 -19.7 43.65 -19.8 43.6 -19.9 43.55 -19.95 43.5 -20.05 43.5 -20.15 43.45 -20.25 43.45 -20.35 43.45 -20.45 43.45 -20.55 43.45 -20.65 43.5 -20.7 43.5 -20.8 43.55 -20.9 43.65 -21.0 43.75 -21.1 43.85 -21.2 44.05 -21.25 44.25 -21.25 44.25 -21.3 44.45 -21.25 44.6 -21.2 44.75 -21.1 44.85 -21.0 44.9 -20.9 44.95 -20.8 45.0 -20.7 45.1 -20.65 45.2 -20.55 45.2 -20.45 45.25 -20.35 45.3 -20.35 45.35 -20.45 45.4 -20.55 45.45 -20.65 45.55 -20.7 45.65 -20.8 45.75 -20.9 45.85 -21.0 45.95 -21.1 46.15 -21.15 46.35 -21.2 46.5 -21.2 46.7 -21.15 46.85 -21.1 47.0 -21.0 47.1 -20.9 47.15 -20.8 47.2 -20.7 47.25 -20.65 47.3 -20.55 47.35 -20.45 47.45 -20.35 47.45 -20.25 47.5 -20.15 47.5 -20.05 47.6 -19.95 47.65 -19.9 47.7 -19.8 47.75 -19.7 47.85 -19.6 48.0 -19.55 48.1 -19.65 48.2 -19.7 48.3 -19.8 48.45 -19.85 48.6 -19.95 48.75 -20.05 48.95 -20.1 49.1 -20.2 49.35 -20.3 49.45 -20.35 49.65 -20.4 Q50.7 -20.6 51.75 -20.4 L51.95 -20.35 52.05 -20.35 52.1 -20.45 52.1 -20.55 52.15 -20.65 52.2 -20.7 52.3 -20.8 52.4 -20.9 52.5 -21.0 52.6 -21.1 52.8 -21.15 M71.15 -14.5 L71.5 -14.65 71.9 -14.8 72.15 -14.95 72.4 -15.0 72.75 -15.05 73.25 -15.1 73.4 -15.2 73.65 -15.25 74.0 -15.3 76.0 -15.3 76.4 -15.25 76.7 -15.15 77.15 -15.0 77.45 -14.85 78.0 -14.8 78.5 -14.8 78.9 -14.75 79.2 -14.6 79.5 -14.45 79.7 -14.25 79.8 -14.05 79.9 -13.85 80.0 -13.7 80.0 -13.5 80.05 -13.3 80.05 -13.1 80.0 -12.95 79.95 -12.75 79.9 -12.55 79.75 -12.35 79.65 -12.2 79.35 -12.0 79.05 -11.8 78.7 -11.65 78.4 -11.5 78.0 -11.45 77.0 -11.45 76.65 -11.5 76.25 -11.6 76.0 -11.8 75.75 -12.0 75.5 -12.1 74.75 -12.1 74.65 -12.05 74.4 -12.0 74.0 -11.95 73.5 -11.85 73.4 -11.8 73.15 -11.75 72.7 -11.6 72.4 -11.5 72.0 -11.45 71.5 -11.45 71.15 -11.5 70.75 -11.6 70.5 -11.8 70.3 -12.0 70.15 -12.2 70.05 -12.35 70.0 -12.55 69.95 -12.75 69.95 -12.95 69.95 -13.1 69.95 -13.3 70.0 -13.5 70.05 -13.7 70.2 -13.85 70.4 -14.05 70.55 -14.25 70.75 -14.35 70.9 -14.45 71.15 -14.5 M99.05 -10.25 L99.4 -10.45 99.7 -10.6 99.9 -10.8 100.25 -11.0 100.5 -11.1 100.65 -11.2 101.25 -11.25 107.25 -11.45 107.5 -11.6 107.9 -11.75 108.25 -11.8 108.65 -11.75 108.95 -11.6 109.25 -11.45 109.45 -11.25 109.55 -11.05 109.65 -10.85 109.75 -10.7 109.75 -10.5 109.8 -10.3 109.8 -10.1 109.8 -9.95 109.75 -9.75 109.75 -9.55 109.65 -9.35 109.55 -9.2 109.45 -9.0 109.25 -8.8 109.05 -8.65 108.8 -8.45 108.65 -8.3 108.0 -8.25 101.75 -8.05 101.55 -7.9 101.3 -7.7 101.15 -7.55 100.9 -7.5 100.5 -7.45 100.0 -7.45 99.25 -7.6 99.0 -7.8 98.8 -8.0 98.65 -8.2 98.55 -8.35 98.5 -8.55 98.45 -8.75 98.45 -8.95 98.45 -9.1 98.45 -9.3 98.5 -9.5 98.55 -9.7 98.7 -9.85 98.9 -10.05 99.05 -10.25 M-108.5 -12.55 L-108.1 -12.5 -107.8 -12.35 -107.45 -12.2 -107.05 -12.0 -106.7 -11.8 -106.45 -11.6 -106.1 -11.5 -105.8 -11.35 -105.5 -11.2 -105.3 -11.0 -105.2 -10.8 -105.1 -10.6 -105.0 -10.45 -105.0 -10.25 -104.95 -10.05 -104.95 -9.85 -105.0 -9.7 -105.05 -9.5 -105.1 -9.3 -105.25 -9.1 -105.35 -8.95 -105.6 -8.75 -105.75 -8.6 -105.9 -8.6 -106.5 -8.45 -107.25 -8.45 -107.6 -8.5 -108.0 -8.6 -108.25 -8.8 -108.45 -9.0 -108.6 -9.2 -108.85 -9.3 -109.0 -9.35 -110.45 -9.3 -110.8 -9.15 -111.1 -9.0 -111.5 -8.9 -111.9 -8.85 -112.5 -8.75 -113.35 -8.8 -113.75 -8.85 -114.0 -9.05 -114.2 -9.25 -114.35 -9.45 -114.45 -9.6 -114.5 -9.8 -114.55 -10.0 -114.55 -10.2 -114.55 -10.35 -114.55 -10.55 -114.5 -10.75 -114.45 -10.95 -114.3 -11.1 -114.1 -11.3 -113.95 -11.5 -113.6 -11.65 -112.85 -11.95 -112.25 -12.15 -111.85 -12.25 -111.1 -12.5 -110.75 -12.55 -108.5 -12.55 M-81.05 -15.3 L-81.0 -15.5 -80.95 -15.7 -80.8 -15.85 -80.6 -16.05 -80.45 -16.25 -80.25 -16.35 -80.1 -16.45 -79.85 -16.5 -79.5 -16.55 -79.15 -16.5 -78.75 -16.35 -78.45 -16.2 -78.1 -16.0 -77.8 -15.8 -77.55 -15.65 -77.25 -15.45 -77.05 -15.25 -76.75 -15.25 -76.5 -15.45 -76.3 -15.6 -76.1 -15.8 -75.85 -15.95 -75.6 -16.0 -75.25 -16.05 -74.75 -16.05 -74.35 -16.0 -74.05 -15.85 -73.75 -15.7 -73.55 -15.5 -73.2 -15.3 -72.6 -15.25 -72.25 -15.3 -71.5 -15.3 -71.1 -15.25 -70.8 -15.1 -70.5 -14.95 -70.3 -14.75 -70.2 -14.55 -70.1 -14.35 -70.0 -14.2 -70.0 -14.0 -69.95 -13.8 -69.95 -13.6 -70.0 -13.45 -70.05 -13.25 -70.1 -13.05 -70.25 -12.85 -70.35 -12.7 -70.6 -12.5 -70.75 -12.35 -70.9 -12.3 -71.1 -12.25 -71.55 -12.1 -71.85 -12.0 -73.5 -12.0 -74.25 -12.15 -74.95 -12.5 -75.2 -12.35 -75.45 -12.2 -75.6 -12.05 -76.25 -12.0 -78.1 -12.05 -78.5 -12.1 -78.75 -12.3 -78.95 -12.5 -79.1 -12.7 -79.2 -12.85 -79.4 -13.05 -79.65 -13.25 -79.95 -13.45 -80.25 -13.65 -80.7 -14.0 -80.85 -14.2 -80.95 -14.35 -81.0 -14.55 -81.05 -14.75 -81.05 -14.95 -81.05 -15.1 -81.05 -15.3 M-42.4 -21.7 L-42.4 -21.65 -42.4 -21.55 -42.4 -21.45 -42.4 -21.35 -42.45 -21.25 -42.45 -21.15 -42.55 -21.05 -42.6 -20.95 -42.7 -20.85 -42.8 -20.8 -42.85 -20.8 -44.8 -20.65 -44.9 -20.55 -44.9 -20.45 -44.9 -20.4 -44.9 -20.3 -44.9 -20.2 -44.9 -20.1 -44.95 -20.0 -44.95 -19.9 -45.05 -19.8 -45.1 -19.7 -45.2 -19.6 -45.3 -19.55 -45.35 -19.55 -45.45 -19.5 -45.65 -19.5 -45.75 -19.5 -46.15 -19.55 -46.25 -19.65 -46.35 -19.75 -46.45 -19.85 -46.55 -19.95 -46.6 -20.05 -46.65 -20.15 -46.65 -20.2 -46.7 -20.3 -46.75 -20.4 -46.8 -20.5 -46.8 -20.6 -46.8 -20.7 -46.9 -20.8 -46.95 -20.9 -47.0 -20.95 -47.0 -21.05 -47.05 -21.15 -47.05 -21.25 -47.1 -21.35 -47.15 -21.45 -47.15 -21.55 -47.2 -21.6 -47.3 -21.5 -47.3 -21.4 -47.4 -21.3 -47.45 -21.2 -47.55 -21.15 -47.6 -21.05 -47.65 -20.95 -47.65 -20.85 -47.7 -20.75 -47.7 -20.65 -47.8 -20.55 -47.85 -20.45 -47.95 -20.4 -48.0 -20.3 -48.05 -20.2 -48.15 -20.1 -48.15 -20.0 -48.2 -19.9 -48.25 -19.8 -48.3 -19.7 -48.35 -19.65 -48.4 -19.55 -48.4 -19.45 -48.4 -19.35 -48.45 -19.25 -48.45 -19.15 -48.55 -19.05 -48.6 -18.95 -48.7 -18.9 -48.8 -18.8 -48.9 -18.7 -48.95 -18.7 -49.05 -18.65 -49.25 -18.65 -49.45 -18.65 -49.65 -18.7 -49.8 -18.8 -49.9 -18.9 -50.0 -19.0 -50.1 -19.1 -50.15 -19.2 -50.2 -19.3 -50.25 -19.4 -50.25 -19.45 -50.3 -19.55 -50.4 -19.65 -50.4 -19.75 -50.45 -19.85 -50.45 -19.95 -50.45 -20.05 -50.5 -20.15 -50.5 -20.2 -50.55 -20.3 -50.55 -20.4 -50.6 -20.5 -50.65 -20.6 -50.7 -20.7 -50.7 -20.8 -50.75 -20.9 -50.8 -20.95 -50.8 -21.05 -50.8 -21.15 -50.8 -21.25 -50.75 -21.35 -50.75 -21.45 -50.7 -21.55 -50.65 -21.65 -50.55 -21.7 -50.45 -21.8 -50.3 -21.9 -50.2 -21.9 -50.0 -21.95 -49.8 -21.9 -49.65 -21.85 -49.5 -21.75 -49.4 -21.65 -49.35 -21.55 -49.3 -21.45 -49.2 -21.45 -49.15 -21.55 -49.1 -21.65 -49.0 -21.75 -48.95 -21.85 -48.9 -21.95 -48.85 -22.05 -48.8 -22.15 -48.7 -22.2 -48.65 -22.3 -48.6 -22.4 -48.5 -22.5 -48.4 -22.6 -48.35 -22.7 -48.3 -22.8 -48.2 -22.9 -48.15 -22.95 -48.1 -23.05 -48.0 -23.15 -47.9 -23.25 -47.8 -23.35 -47.65 -23.45 -47.45 -23.5 -47.25 -23.5 -47.25 -23.55 -46.75 -23.5 -46.55 -23.5 -46.4 -23.45 -46.25 -23.35 -46.15 -23.25 -46.1 -23.15 -46.05 -23.05 -46.0 -22.95 -45.95 -22.9 -45.95 -22.8 -45.95 -22.7 -45.9 -22.6 -45.8 -22.5 -45.8 -22.4 -45.7 -22.3 -45.7 -22.25 -45.65 -22.2 -45.45 -22.25 Q-44.2 -22.45 -42.95 -22.25 L-42.8 -22.2 -42.65 -22.1 -42.55 -22.0 -42.5 -21.9 -42.45 -21.8 -42.4 -21.7 M-17.25 -28.45 L-16.9 -28.45 -16.7 -28.4 -16.55 -28.35 -16.4 -28.25 -16.3 -28.15 -16.2 -28.05 -16.15 -27.95 -16.1 -27.9 -16.05 -27.8 -15.95 -27.75 -15.75 -27.75 -15.25 -27.75 -15.05 -27.75 -14.9 -27.7 -14.75 -27.6 -14.65 -27.5 -14.6 -27.4 -14.45 -27.3 -14.35 -27.2 -14.2 -27.15 -14.1 -27.05 -14.05 -26.95 -13.95 -26.85 -13.95 -26.75 -13.9 -26.65 -13.9 -26.55 -13.9 -26.45 -13.9 -26.4 -13.9 -26.3 -13.9 -26.2 -13.9 -26.1 -13.9 -26.0 -13.9 -25.9 -13.9 -25.8 -13.95 -25.7 -14.0 -25.65 -14.05 -25.55 -14.15 -25.45 -14.25 -25.35 -14.35 -25.3 -14.45 -25.25 -14.65 -25.2 -14.85 -25.25 -15.05 -25.3 -15.15 -25.4 -15.25 -25.5 -15.35 -25.6 -15.4 -25.65 -15.55 -25.55 -15.7 -25.5 -15.9 -25.45 -16.0 -25.45 -16.2 -25.5 -16.4 -25.55 -16.5 -25.65 -16.6 -25.75 -16.7 -25.85 -16.8 -25.95 -16.85 -26.05 -16.9 -26.15 -16.9 -26.2 -16.95 -26.3 -16.95 -26.25 -16.95 -26.15 -17.0 -26.05 -17.05 -25.95 -17.1 -25.9 -17.15 -25.8 -17.15 -25.7 -17.15 -25.6 -17.15 -25.5 -17.15 -25.4 -17.15 -25.3 -17.2 -25.2 -17.25 -25.15 -17.3 -25.05 -17.4 -24.95 -17.5 -24.85 -17.6 -24.8 -17.7 -24.75 -17.9 -24.7 -18.1 -24.75 -18.3 -24.8 -18.4 -24.9 -18.5 -25.0 -18.6 -25.1 -18.65 -25.2 -18.65 -25.3 -18.7 -25.4 -18.75 -25.45 -18.75 -25.55 -18.8 -25.65 -18.85 -25.75 -18.9 -25.85 -18.9 -25.95 -18.95 -26.05 -19.0 -26.15 -19.05 -26.2 -19.15 -26.3 -19.15 -26.4 -19.2 -26.5 -19.35 -26.6 -19.45 -26.7 -19.55 -26.8 -19.6 -26.9 -19.65 -26.95 -19.65 -27.05 -19.7 -27.15 -19.7 -27.25 -19.7 -27.35 -19.65 -27.45 -19.65 -27.55 -19.6 -27.65 -19.55 -27.7 -19.45 -27.8 -19.35 -27.9 -19.2 -27.95 -19.1 -28.0 -18.9 -28.05 -18.75 -28.0 -18.4 -27.95 -18.15 -27.85 -18.05 -27.85 -18.0 -27.95 -17.95 -28.05 -17.9 -28.15 -17.8 -28.2 -17.7 -28.3 -17.55 -28.4 -17.45 -28.4 -17.25 -28.4 -17.25 -28.45" fill="#cccccc" fill-rule="evenodd" stroke="none"/>
  </g>
</svg>
