<?xml version="1.0" encoding="UTF-8" standalone="no"?>
<svg xmlns:ffdec="https://www.free-decompiler.com/flash" xmlns:xlink="http://www.w3.org/1999/xlink" ffdec:objectType="shape" height="17.1px" width="220.15px" xmlns="http://www.w3.org/2000/svg">
  <g transform="matrix(1.0, 0.0, 0.0, 1.0, 112.95, 25.5)">
    <path d="M49.15 -24.85 L49.5 -24.95 49.85 -25.0 50.25 -25.05 50.7 -25.05 51.25 -25.05 51.7 -25.05 52.35 -25.05 52.9 -25.0 53.4 -25.0 53.7 -24.9 53.9 -24.85 54.05 -24.75 54.25 -24.75 54.25 -24.65 54.3 -24.6 54.3 -24.55 54.25 -24.45 54.15 -24.35 54.05 -24.3 53.9 -24.25 53.9 -24.15 53.9 -24.1 54.05 -24.05 54.25 -23.95 54.3 -23.9 54.55 -23.8 Q54.55 -23.75 54.65 -23.75 L54.75 -23.7 54.75 -23.65 54.75 -23.55 54.75 -23.5 54.9 -23.45 55.0 -23.4 55.1 -23.3 55.15 -23.25 55.15 -23.15 55.35 -23.05 55.5 -23.0 55.75 -22.9 55.85 -22.9 55.9 -22.8 56.0 -22.7 56.0 -22.5 56.0 -22.4 56.0 -22.3 55.9 -22.25 55.85 -22.15 55.6 -22.05 55.5 -22.05 55.15 -22.0 54.75 -21.95 54.5 -21.9 54.05 -21.9 53.4 -21.8 52.8 -21.9 52.1 -21.9 51.7 -21.95 51.35 -22.05 51.1 -22.05 50.95 -22.1 50.85 -22.2 50.75 -22.25 50.75 -22.35 50.75 -22.4 50.5 -22.45 50.4 -22.55 50.25 -22.6 50.1 -22.65 50.0 -22.7 49.9 -22.8 49.9 -22.9 49.9 -22.95 49.85 -23.05 49.6 -23.1 49.6 -23.2 49.5 -23.2 49.5 -23.3 49.4 -23.35 49.25 -23.45 49.15 -23.5 Q49.05 -23.5 49.05 -23.55 L48.8 -23.65 48.65 -23.75 48.65 -23.95 48.65 -24.05 48.65 -24.25 48.65 -24.4 48.65 -24.6 48.75 -24.7 48.75 -24.75 49.0 -24.85 49.15 -24.85 M77.0 -19.75 L77.5 -19.7 77.85 -19.65 78.0 -19.6 78.15 -19.5 78.35 -19.45 78.35 -19.35 78.45 -19.3 78.45 -19.2 78.35 -19.15 78.35 -19.05 78.15 -19.05 78.0 -18.95 77.85 -18.85 77.75 -18.8 77.5 -18.75 77.35 -18.7 77.0 -18.6 76.9 -18.55 76.75 -18.5 76.65 -18.45 76.5 -18.3 76.25 -18.2 76.05 -18.05 75.8 -17.95 75.65 -17.95 75.45 -17.85 75.45 -17.8 75.45 -17.7 75.45 -17.65 75.45 -17.55 75.45 -17.4 75.45 -17.2 75.65 -17.1 75.7 -17.1 75.8 -17.0 76.05 -16.9 76.3 -16.75 76.55 -16.55 76.75 -16.5 76.9 -16.45 77.05 -16.35 77.15 -16.35 77.4 -16.25 77.5 -16.2 77.6 -16.15 77.6 -16.05 77.6 -15.95 77.6 -15.8 77.6 -15.55 77.6 -15.4 77.5 -15.3 77.5 -15.25 77.35 -15.2 Q77.25 -15.1 77.15 -15.1 L77.0 -15.05 76.65 -15.0 76.5 -14.95 76.3 -14.85 76.15 -14.8 76.05 -14.7 75.8 -14.65 75.65 -14.65 75.3 -14.55 74.95 -14.5 74.45 -14.4 73.95 -14.4 73.25 -14.4 72.7 -14.4 72.0 -14.4 71.6 -14.5 71.25 -14.55 71.0 -14.65 70.8 -14.65 70.75 -14.7 70.65 -14.8 70.65 -14.85 70.65 -14.95 70.65 -15.05 70.75 -15.1 70.8 -15.2 71.0 -15.25 71.25 -15.3 71.5 -15.4 71.65 -15.4 Q71.75 -15.4 71.85 -15.5 L72.0 -15.55 72.1 -15.65 72.35 -15.7 72.35 -15.8 72.25 -15.8 72.0 -15.9 71.9 -15.95 71.65 -16.05 71.6 -16.05 71.4 -16.15 71.25 -16.2 71.15 -16.25 71.05 -16.35 71.05 -16.45 70.8 -16.5 70.75 -16.55 70.55 -16.65 70.4 -16.75 70.3 -16.8 70.2 -16.85 70.2 -17.1 70.2 -17.45 70.2 -17.85 70.2 -18.2 70.2 -18.3 70.3 -18.4 70.4 -18.45 70.65 -18.5 71.0 -18.55 71.05 -18.6 71.15 -18.7 71.25 -18.75 71.4 -18.8 71.6 -18.85 71.65 -18.95 71.9 -19.05 72.0 -19.15 72.1 -19.2 72.35 -19.25 72.7 -19.3 72.85 -19.35 72.95 -19.45 73.2 -19.5 73.5 -19.6 73.75 -19.65 74.1 -19.7 74.55 -19.75 75.2 -19.8 75.8 -19.85 76.5 -19.8 77.0 -19.75 M99.85 -12.45 L99.9 -12.5 99.9 -12.6 100.15 -12.7 100.25 -12.7 100.45 -12.8 100.6 -12.85 100.75 -12.95 100.85 -12.95 101.1 -13.05 101.45 -13.1 101.7 -13.2 102.05 -13.25 102.3 -13.25 102.7 -13.25 102.95 -13.25 103.3 -13.3 103.7 -13.3 104.4 -13.25 104.9 -13.25 105.4 -13.15 105.75 -13.1 105.9 -13.0 106.1 -12.95 106.25 -12.95 106.25 -12.85 106.35 -12.75 106.35 -12.7 106.25 -12.7 106.2 -12.6 106.1 -12.5 105.85 -12.45 105.75 -12.4 105.5 -12.35 105.4 -12.25 105.25 -12.25 105.1 -12.15 105.0 -12.05 105.0 -12.0 104.8 -11.95 104.65 -11.85 104.65 -11.75 104.55 -11.7 104.5 -11.6 104.25 -11.55 104.25 -11.5 104.25 -11.4 104.25 -11.25 104.4 -11.15 104.55 -11.15 104.9 -11.1 105.1 -11.0 105.25 -10.95 105.4 -10.85 105.4 -10.8 105.5 -10.7 105.65 -10.65 105.85 -10.6 106.2 -10.55 106.5 -10.5 106.7 -10.4 106.95 -10.35 107.0 -10.3 107.1 -10.25 107.2 -10.2 107.2 -10.05 107.2 -9.95 107.2 -9.7 107.2 -9.55 107.2 -9.35 107.1 -9.3 107.1 -9.2 106.95 -9.15 106.75 -9.1 106.6 -9.0 106.25 -8.95 105.9 -8.85 105.75 -8.85 105.5 -8.8 105.4 -8.7 105.1 -8.65 104.65 -8.55 104.05 -8.5 103.7 -8.5 103.45 -8.45 103.15 -8.4 102.95 -8.4 102.45 -8.4 102.05 -8.4 100.75 -8.5 100.35 -8.55 100.0 -8.6 99.75 -8.65 99.6 -8.7 99.5 -8.8 99.4 -8.85 99.4 -8.95 99.4 -9.05 99.5 -9.1 99.6 -9.15 99.85 -9.25 100.15 -9.3 100.45 -9.4 100.75 -9.45 101.1 -9.45 101.7 -9.6 101.95 -9.7 101.95 -9.8 101.7 -9.85 101.45 -9.95 101.1 -10.0 100.85 -10.05 100.75 -10.15 100.7 -10.2 100.7 -10.25 100.45 -10.3 100.35 -10.35 100.15 -10.45 99.85 -10.55 99.6 -10.55 99.5 -10.65 99.4 -10.7 99.4 -10.8 99.15 -10.8 99.05 -10.9 99.0 -11.0 99.0 -11.1 99.0 -11.2 99.0 -11.4 99.0 -11.65 99.0 -11.85 99.05 -11.85 99.15 -11.95 99.4 -12.05 99.4 -12.15 99.5 -12.25 99.6 -12.3 99.75 -12.35 99.85 -12.4 99.85 -12.45 M-110.9 -13.3 L-110.65 -13.35 -110.3 -13.4 -110.05 -13.45 -109.65 -13.45 -109.05 -13.45 -108.2 -13.45 -107.55 -13.45 -107.0 -13.4 -106.5 -13.3 -106.2 -13.25 -106.0 -13.2 -105.85 -13.1 -105.65 -13.1 -105.65 -13.0 -105.6 -12.95 -105.6 -12.9 -105.65 -12.85 -105.75 -12.75 -105.85 -12.7 -106.1 -12.65 -106.25 -12.55 -106.7 -12.45 -107.1 -12.4 -107.55 -12.35 -107.7 -12.35 -107.7 -12.25 -107.7 -12.1 -107.7 -11.85 -107.55 -11.8 -107.45 -11.75 -107.1 -11.65 -106.85 -11.6 -106.5 -11.55 -106.45 -11.5 -106.2 -11.4 -106.0 -11.3 -105.85 -11.3 -105.65 -11.25 -105.4 -11.15 -105.15 -11.1 -104.8 -11.0 -104.75 -11.0 -104.5 -10.9 -104.4 -10.8 -104.15 -10.8 -104.0 -10.65 -103.9 -10.55 -103.9 -10.5 -103.9 -10.4 -103.9 -10.35 -104.0 -10.25 -104.05 -10.2 -104.15 -10.15 -104.4 -10.05 -104.5 -10.05 -104.75 -10.0 -104.8 -9.85 -105.15 -9.8 -105.5 -9.75 -105.85 -9.7 -106.1 -9.65 -106.45 -9.55 -106.85 -9.5 -107.45 -9.45 -107.8 -9.4 -108.05 -9.4 -108.4 -9.4 -109.05 -9.35 -109.65 -9.4 -110.3 -9.4 -110.75 -9.45 -111.1 -9.55 -111.35 -9.6 -111.5 -9.65 -111.6 -9.7 -111.7 -9.75 -111.7 -9.85 -111.7 -10.0 -111.6 -10.05 -111.5 -10.1 -111.25 -10.2 -110.9 -10.25 -110.75 -10.3 -110.65 -10.35 -110.4 -10.4 -110.05 -10.5 -110.05 -10.55 -110.3 -10.6 -110.3 -10.65 -110.4 -10.7 -110.65 -10.8 -110.9 -10.85 -111.25 -10.95 -111.6 -11.0 -111.75 -11.1 -112.0 -11.15 -112.1 -11.15 -112.45 -11.25 -112.6 -11.3 Q-112.8 -11.3 -112.85 -11.4 L-112.95 -11.5 -112.95 -11.6 -112.95 -11.85 -112.95 -12.15 -112.95 -12.45 -112.95 -12.7 -112.85 -12.7 -112.85 -12.75 -112.6 -12.85 -112.5 -12.95 -112.35 -12.95 -112.2 -13.0 -111.95 -13.1 -111.6 -13.15 -111.25 -13.25 -110.9 -13.3 M-81.2 -19.05 L-81.2 -19.25 -81.15 -19.3 -81.05 -19.35 -80.8 -19.4 -80.8 -19.5 -80.65 -19.65 -80.35 -19.65 -80.2 -19.75 -79.95 -19.8 -79.85 -19.9 -79.8 -19.9 -79.6 -20.0 -79.45 -20.1 -79.35 -20.15 -79.2 -20.2 -79.1 -20.25 -79.0 -20.35 -78.75 -20.35 -78.7 -20.45 -78.6 -20.5 -78.35 -20.55 -78.15 -20.65 -77.85 -20.75 -77.5 -20.75 -77.05 -20.8 -76.65 -20.85 -76.05 -20.85 -75.2 -20.85 -74.55 -20.85 -74.05 -20.75 -73.5 -20.75 -73.2 -20.65 -73.0 -20.6 -72.85 -20.55 -72.65 -20.45 -72.65 -20.35 -72.6 -20.35 -72.6 -20.25 -72.65 -20.2 -72.75 -20.15 -72.85 -20.1 -73.1 -20.0 -73.25 -19.95 -73.7 -19.9 -74.1 -19.85 -74.35 -19.75 -74.45 -19.7 -74.55 -19.65 -74.7 -19.6 -74.8 -19.5 -74.95 -19.45 -75.15 -19.35 -75.2 -19.3 -75.4 -19.25 -75.55 -19.2 Q-75.55 -19.15 -75.65 -19.15 L-75.65 -19.05 -75.8 -19.05 -75.95 -18.95 -75.95 -18.85 -75.95 -18.75 -75.95 -18.6 -75.95 -18.45 -75.95 -18.2 -75.8 -18.2 -75.7 -18.1 -75.65 -18.05 -75.55 -17.95 -75.55 -17.85 -75.3 -17.8 -75.2 -17.7 -74.95 -17.65 -74.85 -17.6 -74.7 -17.55 -74.55 -17.45 -74.35 -17.4 -74.3 -17.35 -74.05 -17.3 -73.95 -17.2 -73.85 -17.1 -73.6 -17.1 -73.45 -17.0 -73.25 -16.95 -73.1 -16.9 -73.1 -16.85 -73.0 -16.8 -72.85 -16.75 -72.65 -16.65 -72.65 -16.55 -72.6 -16.5 -72.6 -16.45 -72.6 -16.35 -72.6 -16.25 -72.6 -16.15 -72.6 -16.05 -72.6 -15.9 -72.65 -15.8 Q-72.75 -15.7 -72.85 -15.7 L-73.0 -15.65 -73.2 -15.55 -73.5 -15.5 -73.85 -15.4 -74.3 -15.4 -74.55 -15.3 -74.95 -15.3 -75.65 -15.25 -76.25 -15.3 -76.9 -15.35 -77.35 -15.4 -77.65 -15.5 -77.9 -15.55 -78.1 -15.6 -78.15 -15.65 -78.25 -15.7 -78.25 -15.95 -78.15 -16.05 -78.1 -16.1 -77.9 -16.2 -77.9 -16.25 Q-78.1 -16.25 -78.15 -16.35 L-78.25 -16.4 -78.35 -16.5 -78.6 -16.55 -78.7 -16.65 -78.95 -16.7 -79.0 -16.75 -79.2 -16.8 -79.35 -16.85 -79.45 -16.95 -79.55 -17.0 -79.6 -17.1 -79.8 -17.1 -79.95 -17.15 -80.2 -17.25 -80.45 -17.35 -80.65 -17.35 -80.7 -17.45 -80.8 -17.5 -80.8 -17.6 -80.8 -17.65 -81.05 -17.7 -81.15 -17.8 -81.2 -17.85 -81.2 -18.05 -81.2 -18.35 -81.2 -18.7 -81.2 -19.05 M-49.9 -24.95 L-49.9 -25.05 -49.85 -25.15 -49.75 -25.2 -49.6 -25.25 -49.3 -25.35 -49.0 -25.45 -48.55 -25.45 -47.9 -25.5 -47.3 -25.5 -46.6 -25.5 -46.1 -25.45 -45.6 -25.45 -45.25 -25.35 -45.1 -25.25 -44.9 -25.2 -44.75 -25.15 -44.75 -25.05 -44.65 -25.0 -44.65 -24.95 -44.65 -24.85 -44.65 -24.7 -44.65 -24.6 -44.65 -24.35 -44.75 -24.3 -44.75 -24.25 -44.9 -24.2 -45.1 -24.15 -45.1 -24.0 -45.1 -23.75 -45.1 -23.45 -45.1 -23.1 -45.1 -22.95 -44.9 -22.9 -44.75 -22.9 -44.75 -22.8 -44.65 -22.7 -44.65 -22.55 -44.65 -22.45 -44.65 -22.4 Q-44.65 -22.35 -44.75 -22.35 L-44.85 -22.25 -44.9 -22.2 -45.2 -22.1 -45.35 -22.05 -45.7 -22.05 -46.0 -21.95 -46.55 -21.9 -47.05 -21.9 -47.7 -21.8 -48.3 -21.9 -49.0 -21.9 -49.4 -21.95 -49.75 -22.05 -50.0 -22.05 -50.15 -22.1 -50.25 -22.2 -50.35 -22.25 -50.35 -22.65 -50.35 -23.3 -50.35 -23.95 -50.35 -24.35 -50.25 -24.4 -50.25 -24.5 -50.0 -24.6 -49.9 -24.6 -49.9 -24.85 -49.9 -24.95" fill="#cccccc" fill-rule="evenodd" stroke="none"/>
  </g>
</svg>
