<?xml version="1.0" encoding="UTF-8" standalone="no"?>
<svg xmlns:ffdec="https://www.free-decompiler.com/flash" xmlns:xlink="http://www.w3.org/1999/xlink" ffdec:objectType="shape" height="13.0px" width="184.0px" xmlns="http://www.w3.org/2000/svg">
  <g transform="matrix(1.0, 0.0, 0.0, 1.0, 95.75, 23.25)">
    <path d="M58.5 -20.75 L62.5 -20.75 63.1 -20.5 67.5 -20.25 68.1 -20.0 68.5 -19.65 68.75 -19.25 68.75 -18.9 68.6 -18.5 68.35 -18.15 68.0 -17.9 67.5 -17.75 63.0 -17.75 62.25 -18.0 58.5 -18.25 57.75 -18.5 57.35 -18.9 57.25 -19.25 57.25 -19.65 57.25 -20.0 57.6 -20.4 58.0 -20.65 58.45 -20.7 58.5 -20.75 M78.0 -12.75 L77.75 -13.15 77.75 -13.5 77.75 -13.9 78.0 -14.25 78.25 -14.5 78.5 -14.6 78.95 -14.7 79.0 -14.75 79.6 -14.5 81.0 -14.25 81.6 -14.0 82.0 -13.75 82.6 -13.5 85.0 -13.25 85.6 -13.0 87.0 -12.75 87.6 -12.5 88.0 -12.15 88.25 -11.75 88.25 -11.4 88.1 -11.0 87.85 -10.65 87.5 -10.4 87.0 -10.25 85.0 -10.25 84.25 -10.5 82.5 -10.75 81.75 -11.0 81.5 -11.25 80.7 -11.5 79.5 -11.8 78.75 -12.0 78.35 -12.4 78.0 -12.75 M-86.9 -14.5 L-86.5 -14.15 -86.25 -13.75 -86.25 -13.4 -86.4 -13.0 -86.65 -12.65 -87.0 -12.4 -87.5 -12.25 -94.5 -12.25 -95.25 -12.5 -95.65 -12.9 -95.75 -13.25 -95.75 -13.65 -95.75 -14.0 -95.4 -14.4 -95.0 -14.65 -94.5 -14.7 -94.5 -14.75 -87.5 -14.75 -86.9 -14.5 M-67.5 -23.25 L-66.9 -23.0 -66.5 -22.65 -66.25 -22.25 -66.25 -21.9 -66.4 -21.5 -66.65 -21.15 -67.0 -20.75 -67.25 -20.5 -67.5 -20.4 -68.0 -20.25 -68.9 -20.0 -69.5 -19.75 -74.0 -19.75 -74.75 -20.0 -75.15 -20.4 -75.25 -20.75 -75.25 -21.15 -75.25 -21.5 -74.9 -21.9 -74.5 -22.15 -74.0 -22.25 -70.25 -22.5 -69.5 -22.75 -68.75 -23.0 -68.05 -23.2 -68.0 -23.25 -67.5 -23.25" fill="#cccccc" fill-rule="evenodd" stroke="none"/>
  </g>
</svg>
