<?xml version="1.0" encoding="UTF-8" standalone="no"?>
<svg xmlns:ffdec="https://www.free-decompiler.com/flash" xmlns:xlink="http://www.w3.org/1999/xlink" ffdec:objectType="shape" height="11.6px" width="217.6px" xmlns="http://www.w3.org/2000/svg">
  <g transform="matrix(1.0, 0.0, 0.0, 1.0, 113.55, 24.8)">
    <path d="M78.95 -22.35 L79.25 -22.2 79.45 -22.0 79.55 -21.8 79.65 -21.6 79.75 -21.45 79.75 -21.25 79.8 -21.05 79.8 -20.85 79.75 -20.7 79.7 -20.5 79.65 -20.3 79.5 -20.1 79.4 -19.95 79.15 -19.75 79.0 -19.6 78.85 -19.55 77.0 -19.45 76.65 -19.5 76.4 -19.55 76.25 -19.6 72.75 -19.85 72.5 -20.05 72.3 -20.25 72.15 -20.45 72.05 -20.6 72.0 -20.8 71.95 -21.0 71.95 -21.2 71.95 -21.35 71.95 -21.55 72.0 -21.75 72.05 -21.95 72.2 -22.1 72.4 -22.3 72.55 -22.5 72.75 -22.6 72.9 -22.7 73.15 -22.75 73.5 -22.8 77.0 -22.8 77.75 -22.6 78.25 -22.55 78.65 -22.5 78.95 -22.35 M100.4 -23.25 L100.7 -23.1 101.0 -22.95 101.2 -22.75 101.3 -22.55 101.4 -22.35 101.5 -22.2 101.5 -22.0 101.65 -21.8 101.8 -21.6 102.0 -21.45 102.05 -21.25 102.2 -21.05 102.25 -20.85 102.3 -20.7 102.3 -20.5 102.3 -20.3 102.3 -20.1 102.3 -19.95 102.3 -19.75 102.3 -19.55 102.7 -19.35 103.0 -19.2 103.2 -19.0 103.3 -18.8 103.55 -18.6 103.75 -18.45 103.8 -18.25 103.95 -18.05 104.0 -17.85 104.05 -17.7 104.05 -17.5 104.05 -17.3 104.05 -17.1 104.05 -16.95 104.05 -16.75 104.05 -16.55 104.0 -16.35 103.95 -16.2 103.8 -16.0 103.75 -15.8 103.55 -15.6 103.45 -15.45 103.3 -15.25 103.25 -15.05 103.05 -14.85 102.9 -14.7 102.7 -14.5 102.5 -14.3 102.2 -14.1 101.9 -13.95 101.7 -13.75 101.5 -13.55 101.2 -13.4 100.9 -13.25 100.5 -13.2 100.0 -13.2 99.65 -13.25 99.25 -13.35 99.0 -13.55 98.8 -13.75 98.65 -13.95 98.55 -14.1 98.5 -14.3 98.45 -14.5 98.45 -14.7 98.45 -14.85 98.45 -15.05 98.45 -15.25 98.45 -15.45 98.5 -15.6 98.5 -15.8 98.65 -16.0 98.75 -16.2 98.95 -16.35 98.85 -16.45 98.5 -16.6 98.25 -16.8 98.05 -17.0 97.9 -17.2 97.8 -17.35 97.75 -17.55 97.7 -17.75 97.7 -17.95 97.7 -18.1 97.7 -18.3 97.7 -18.5 97.75 -18.7 97.8 -18.85 97.9 -19.05 98.05 -19.25 98.25 -19.45 98.45 -19.6 98.65 -19.8 98.65 -20.0 98.5 -20.2 98.5 -20.35 98.45 -20.55 98.45 -20.75 98.45 -20.95 98.45 -21.1 98.45 -21.3 98.45 -21.7 98.45 -22.05 98.5 -22.25 98.55 -22.45 98.7 -22.6 98.9 -22.8 99.05 -23.0 99.25 -23.1 99.4 -23.2 99.65 -23.25 100.0 -23.3 100.4 -23.25 M-106.5 -17.85 L-106.35 -17.95 -106.1 -18.0 -105.25 -18.05 -104.85 -18.0 -104.55 -17.85 -104.25 -17.7 -104.05 -17.5 -103.95 -17.3 -103.85 -17.1 -103.75 -16.95 -103.75 -16.75 -103.7 -16.55 -103.7 -16.35 -103.75 -16.2 -103.8 -16.0 -103.85 -15.8 -104.0 -15.6 -104.1 -15.45 -104.35 -15.25 -104.5 -15.1 -104.65 -15.05 -104.85 -15.0 -105.3 -14.85 -105.6 -14.75 -106.0 -14.7 -108.35 -14.8 -108.5 -14.85 -109.75 -14.8 -110.05 -14.65 -110.4 -14.5 -110.95 -14.35 -111.2 -14.2 -111.35 -14.05 -111.65 -14.0 -112.0 -13.95 -112.35 -14.0 -112.75 -14.1 -113.0 -14.3 -113.2 -14.5 -113.35 -14.7 -113.45 -14.85 -113.5 -15.05 -113.55 -15.25 -113.55 -15.45 -113.55 -15.6 -113.55 -15.8 -113.55 -16.0 -113.5 -16.2 -113.45 -16.35 -113.35 -16.55 -113.2 -16.75 -113.0 -16.95 -112.75 -17.1 -112.35 -17.3 -112.1 -17.45 -111.9 -17.5 -111.55 -17.6 -111.35 -17.8 -111.1 -17.95 -110.85 -18.0 -110.5 -18.05 -107.75 -18.05 -107.0 -17.85 -106.5 -17.85 M-81.05 -22.8 L-81.0 -23.0 -80.95 -23.2 -80.8 -23.35 -80.6 -23.55 -80.45 -23.75 -80.25 -23.95 -80.05 -24.1 -79.85 -24.3 -79.7 -24.5 -79.5 -24.6 -79.35 -24.7 -79.1 -24.75 -78.75 -24.8 -77.5 -24.8 -77.1 -24.75 -76.8 -24.6 -76.5 -24.45 -76.3 -24.25 -75.75 -24.25 -75.5 -24.35 -75.35 -24.45 -75.1 -24.5 -74.75 -24.55 -74.35 -24.5 -74.05 -24.35 -73.75 -24.2 -73.55 -24.0 -73.45 -23.8 -73.35 -23.6 -73.25 -23.45 -73.25 -23.25 -73.2 -23.05 -73.2 -22.85 -73.25 -22.7 -73.3 -22.5 -73.35 -22.3 -73.5 -22.1 -73.6 -21.95 -73.8 -21.75 -74.0 -21.55 -74.2 -21.4 -74.45 -21.2 -74.6 -21.05 -74.85 -21.0 -76.75 -21.0 -77.5 -21.15 -77.85 -21.3 -78.05 -21.2 -78.2 -21.0 -78.25 -20.8 -78.45 -20.65 -78.7 -20.45 -78.85 -20.3 -79.1 -20.25 -79.5 -20.2 -79.85 -20.25 -80.25 -20.35 -80.5 -20.55 -80.7 -20.75 -80.85 -20.95 -80.95 -21.1 -81.0 -21.3 -81.05 -21.5 -81.05 -21.7 -81.05 -21.85 -81.05 -22.05 -81.05 -22.25 -81.05 -22.45 -81.05 -22.6 -81.05 -22.8" fill="#cccccc" fill-rule="evenodd" stroke="none"/>
  </g>
</svg>
