<?xml version="1.0" encoding="UTF-8" standalone="no"?>
<svg xmlns:ffdec="https://www.free-decompiler.com/flash" xmlns:xlink="http://www.w3.org/1999/xlink" ffdec:objectType="shape" height="6.0px" width="192.0px" xmlns="http://www.w3.org/2000/svg">
  <g transform="matrix(1.0, 0.0, 0.0, 1.0, 100.25, 24.25)">
    <path d="M91.75 -19.75 L91.75 -19.4 91.6 -19.0 91.35 -18.65 91.0 -18.4 90.5 -18.25 88.5 -18.25 87.75 -18.5 87.5 -18.75 86.75 -19.0 86.5 -19.25 85.75 -19.5 85.35 -19.9 85.1 -20.15 84.5 -20.3 83.75 -20.5 83.0 -20.75 82.25 -21.0 81.85 -21.4 81.75 -21.75 81.75 -22.15 81.75 -22.5 82.1 -22.9 82.5 -23.15 82.95 -23.2 83.0 -23.25 84.5 -23.25 85.1 -23.0 85.5 -22.75 86.1 -22.5 86.5 -22.25 87.1 -22.0 87.5 -21.75 88.1 -21.5 88.5 -21.25 89.1 -21.0 90.5 -20.75 91.1 -20.5 91.5 -20.15 91.75 -19.75 M-90.5 -23.65 L-90.25 -23.25 -90.25 -22.9 -90.4 -22.5 -90.65 -22.15 -91.0 -21.9 -91.5 -21.75 -92.75 -21.5 -93.15 -21.15 -93.5 -20.9 -94.0 -20.75 -94.9 -20.5 -95.6 -20.1 -96.0 -19.9 -96.65 -19.65 -97.0 -19.25 -97.25 -19.0 -97.5 -18.9 -98.0 -18.75 -99.0 -18.75 -99.75 -19.0 -100.15 -19.4 -100.25 -19.75 -100.25 -20.15 -100.25 -20.5 -99.9 -20.9 -99.5 -21.15 -98.9 -21.4 -98.5 -21.75 -98.25 -22.0 -98.0 -22.15 -97.4 -22.4 -97.0 -22.65 -96.4 -22.9 -96.0 -23.15 -95.5 -23.25 -94.75 -23.5 -94.4 -23.9 -94.0 -24.15 -93.5 -24.2 -93.5 -24.25 -91.5 -24.25 -90.9 -24.0 -90.5 -23.65" fill="#cccccc" fill-rule="evenodd" stroke="none"/>
  </g>
</svg>
