<?xml version="1.0" encoding="UTF-8" standalone="no"?>
<svg xmlns:ffdec="https://www.free-decompiler.com/flash" xmlns:xlink="http://www.w3.org/1999/xlink" ffdec:objectType="shape" height="10.9px" width="214.65px" xmlns="http://www.w3.org/2000/svg">
  <g transform="matrix(1.0, 0.0, 0.0, 1.0, 112.1, 25.45)">
    <path d="M75.7 -24.85 L76.05 -24.9 76.5 -25.0 76.9 -25.0 77.5 -25.0 78.15 -25.0 78.7 -24.95 79.2 -24.85 79.55 -24.85 79.7 -24.75 79.85 -24.7 80.05 -24.6 80.1 -24.5 80.1 -24.4 80.1 -24.35 80.05 -24.3 80.05 -24.25 79.85 -24.2 79.7 -24.15 79.55 -24.05 79.2 -24.0 78.85 -23.95 78.7 -23.85 78.45 -23.75 78.35 -23.75 78.0 -23.65 77.9 -23.65 77.85 -23.55 77.75 -23.5 77.6 -23.45 77.6 -23.3 77.6 -23.2 77.6 -22.95 77.6 -22.7 77.6 -22.55 77.85 -22.45 77.9 -22.4 78.0 -22.35 78.0 -22.25 78.25 -22.2 78.35 -22.1 78.45 -22.05 78.45 -21.95 78.45 -21.9 78.45 -21.75 78.45 -21.6 78.45 -21.45 78.35 -21.35 78.25 -21.35 78.0 -21.25 77.9 -21.2 77.6 -21.15 77.15 -21.05 76.9 -21.05 76.5 -20.95 75.8 -20.95 75.4 -20.95 74.1 -21.05 73.7 -21.1 73.35 -21.2 73.1 -21.2 72.95 -21.3 72.85 -21.35 72.75 -21.45 72.75 -21.6 72.85 -21.65 72.95 -21.75 73.2 -21.8 Q73.1 -21.8 72.95 -21.9 L72.85 -21.95 72.7 -22.0 72.5 -22.05 72.4 -22.1 72.35 -22.2 72.35 -22.4 72.35 -22.9 72.35 -23.3 72.35 -23.65 72.35 -23.75 72.4 -23.8 72.4 -23.9 72.7 -24.0 72.75 -24.05 72.95 -24.1 73.1 -24.15 73.35 -24.25 73.6 -24.3 73.75 -24.35 73.95 -24.4 74.1 -24.5 74.2 -24.6 74.45 -24.6 74.8 -24.7 75.05 -24.75 75.4 -24.85 75.7 -24.85 M97.45 -19.8 L97.8 -19.9 98.25 -19.9 98.9 -19.95 99.5 -20.0 100.15 -19.95 100.7 -19.9 101.2 -19.9 101.5 -19.8 101.7 -19.75 101.85 -19.65 102.05 -19.65 102.05 -19.6 102.1 -19.5 102.1 -19.35 102.1 -19.25 102.1 -19.05 102.1 -18.8 102.1 -18.65 101.95 -18.55 101.85 -18.5 101.7 -18.45 101.7 -18.25 101.7 -18.1 101.7 -17.85 101.7 -17.6 101.7 -17.45 101.85 -17.35 102.05 -17.35 102.05 -17.25 102.1 -17.15 102.1 -17.0 102.1 -16.7 102.1 -16.35 102.1 -15.9 102.3 -15.85 102.45 -15.8 102.45 -15.7 102.55 -15.65 102.55 -15.5 102.55 -15.35 102.55 -15.2 102.55 -15.1 102.45 -15.05 102.35 -14.95 102.3 -14.9 102.05 -14.8 101.85 -14.8 101.5 -14.7 101.2 -14.65 100.7 -14.6 100.15 -14.55 99.5 -14.55 98.9 -14.55 98.25 -14.6 97.8 -14.65 97.45 -14.7 97.2 -14.8 97.05 -14.8 96.95 -14.9 96.85 -14.95 96.85 -15.05 96.85 -15.2 96.95 -15.25 97.05 -15.35 97.2 -15.4 97.2 -15.5 96.95 -15.55 96.95 -15.6 96.85 -15.65 96.85 -15.85 96.85 -16.2 96.85 -16.55 96.85 -16.95 96.8 -17.0 96.55 -17.1 Q96.45 -17.1 96.45 -17.15 L96.45 -17.45 96.45 -17.9 96.45 -18.35 96.45 -18.7 96.55 -18.8 96.6 -18.85 96.85 -18.9 96.85 -19.0 96.85 -19.1 96.85 -19.25 96.85 -19.35 96.85 -19.6 96.95 -19.65 97.05 -19.65 97.2 -19.75 97.45 -19.8 M-110.75 -20.55 L-110.05 -20.55 -109.5 -20.6 -108.8 -20.55 -108.3 -20.55 -107.8 -20.45 -107.45 -20.35 -107.3 -20.35 -107.1 -20.25 -106.95 -20.2 -106.95 -20.15 -106.85 -20.1 -106.85 -19.35 -106.85 -18.5 -106.85 -17.6 -106.85 -17.1 -106.6 -17.0 -106.5 -16.95 -106.25 -16.9 -106.2 -16.85 -106.1 -16.8 -106.0 -16.75 -106.0 -16.65 -106.0 -16.5 -105.85 -16.45 -105.65 -16.35 Q-105.6 -16.25 -105.4 -16.25 L-105.25 -16.2 -105.0 -16.15 -104.9 -16.05 -104.8 -16.05 -104.75 -15.95 -104.55 -15.9 -104.4 -15.8 -104.3 -15.7 -104.3 -15.65 -104.3 -15.55 -104.3 -15.4 -104.3 -15.25 -104.3 -15.1 -104.4 -15.05 -104.4 -15.0 -104.55 -14.95 -104.75 -14.85 -104.9 -14.8 -105.25 -14.7 -105.75 -14.65 -106.25 -14.65 -106.95 -14.65 -107.8 -14.65 -108.4 -14.65 -109.05 -14.65 -109.5 -14.7 -109.8 -14.8 -110.05 -14.85 -110.25 -14.95 -110.3 -15.0 -110.4 -15.05 -110.4 -15.25 -110.3 -15.3 -110.25 -15.4 -110.0 -15.4 -109.9 -15.5 -110.0 -15.55 -110.0 -15.65 -110.05 -15.7 Q-110.25 -15.7 -110.3 -15.8 L-110.5 -15.8 -110.75 -15.9 -110.75 -15.95 -110.85 -16.05 -110.9 -16.15 -111.1 -16.2 -111.15 -16.25 -111.25 -16.35 -111.25 -16.45 -111.5 -16.5 -111.6 -16.55 -111.75 -16.65 -111.95 -16.75 -112.0 -16.8 -112.1 -16.85 -112.1 -17.6 -112.1 -18.6 -112.1 -19.65 -112.1 -20.15 -112.0 -20.2 -111.95 -20.25 -111.75 -20.35 -111.5 -20.35 -111.15 -20.45 -110.75 -20.55 M-79.85 -25.15 L-79.6 -25.2 -79.35 -25.25 -79.0 -25.35 -78.6 -25.35 -77.9 -25.45 -77.35 -25.45 -76.65 -25.45 -76.15 -25.35 -75.65 -25.35 -75.3 -25.25 -75.15 -25.2 -74.95 -25.15 -74.8 -25.05 -74.8 -25.0 -74.7 -24.9 -74.7 -24.85 -74.8 -24.85 -74.85 -24.75 -74.95 -24.7 -75.2 -24.6 -75.3 -24.6 -75.55 -24.5 -75.55 -24.35 -75.55 -24.15 -75.55 -23.9 -75.55 -23.65 -75.55 -23.45 -75.3 -23.4 -75.2 -23.3 -74.95 -23.3 -74.85 -23.2 -74.8 -23.15 -74.7 -23.05 -74.7 -22.95 -74.7 -22.85 -74.7 -22.75 -74.8 -22.65 -74.8 -22.6 -74.95 -22.55 -75.15 -22.55 -75.3 -22.4 -75.65 -22.35 -76.15 -22.35 -76.65 -22.25 -77.35 -22.25 -77.9 -22.25 -78.6 -22.3 -79.0 -22.35 -79.35 -22.4 -79.6 -22.55 -79.8 -22.55 -79.85 -22.6 -80.05 -22.75 -80.35 -22.95 -80.7 -23.15 -80.8 -23.2 -80.8 -23.45 -80.8 -23.9 -80.8 -24.35 -80.8 -24.75 -80.7 -24.85 -80.65 -24.85 -80.45 -24.9 -80.3 -25.0 -80.05 -25.05 Q-79.95 -25.05 -79.85 -25.15" fill="#cccccc" fill-rule="evenodd" stroke="none"/>
  </g>
</svg>
