<?xml version="1.0" encoding="UTF-8" standalone="no"?>
<svg xmlns:ffdec="https://www.free-decompiler.com/flash" xmlns:xlink="http://www.w3.org/1999/xlink" ffdec:objectType="shape" height="10.85px" width="217.85px" xmlns="http://www.w3.org/2000/svg">
  <g transform="matrix(1.0, 0.0, 0.0, 1.0, 114.05, 27.55)">
    <path d="M73.0 -27.3 L73.5 -27.3 73.9 -27.25 74.2 -27.1 74.55 -26.95 74.8 -26.8 75.15 -26.75 75.4 -26.7 75.5 -26.6 76.0 -26.55 76.4 -26.5 76.7 -26.35 77.05 -26.2 79.25 -26.05 79.65 -26.0 79.95 -25.85 80.25 -25.7 80.45 -25.5 80.55 -25.3 80.65 -25.1 80.75 -24.95 80.75 -24.75 80.8 -24.55 80.8 -24.35 80.75 -24.2 80.7 -24.0 80.65 -23.8 80.5 -23.6 80.4 -23.45 80.15 -23.25 80.0 -23.1 79.25 -22.95 76.15 -23.1 75.4 -23.3 74.4 -23.55 73.25 -23.9 72.15 -24.45 71.95 -24.6 71.75 -24.8 71.65 -25.0 71.5 -25.2 71.5 -25.35 71.45 -25.55 71.45 -25.75 71.45 -25.95 71.5 -26.1 71.5 -26.3 71.65 -26.5 71.75 -26.7 71.95 -26.85 72.15 -27.05 72.4 -27.2 72.65 -27.25 73.0 -27.3 M100.75 -21.75 L101.75 -21.8 102.15 -21.75 102.45 -21.6 102.75 -21.45 102.95 -21.25 103.15 -21.05 103.3 -20.85 103.5 -20.7 103.55 -20.5 103.7 -20.3 103.75 -20.1 103.8 -19.95 103.8 -19.75 103.8 -19.55 103.8 -19.35 103.75 -19.2 103.7 -19.0 103.65 -18.8 103.5 -18.6 103.4 -18.45 103.15 -18.25 103.0 -18.1 102.9 -18.05 102.65 -18.0 102.25 -17.95 101.9 -18.0 101.5 -18.05 101.3 -17.85 101.15 -17.7 100.95 -17.5 100.75 -17.3 100.3 -16.95 100.15 -16.8 99.9 -16.75 99.5 -16.7 99.0 -16.7 98.65 -16.75 98.25 -16.85 98.0 -17.05 97.8 -17.25 97.65 -17.45 97.45 -17.6 97.25 -17.8 97.15 -18.0 97.0 -18.2 96.95 -18.35 96.75 -18.55 96.65 -18.75 96.5 -18.95 96.45 -19.1 96.25 -19.3 96.05 -19.5 95.9 -19.7 95.7 -19.85 95.55 -20.05 95.5 -20.25 95.4 -20.45 95.3 -20.6 95.25 -20.8 95.2 -21.0 95.2 -21.2 95.2 -21.35 95.2 -21.55 95.25 -21.75 95.3 -21.95 95.45 -22.1 95.65 -22.3 95.8 -22.5 96.0 -22.6 96.15 -22.7 96.4 -22.75 96.75 -22.8 97.0 -22.8 97.4 -22.75 97.7 -22.6 98.0 -22.45 98.2 -22.25 98.3 -22.05 98.4 -21.85 98.5 -21.7 98.7 -21.5 98.9 -21.3 99.0 -21.1 99.15 -20.95 99.25 -20.9 99.4 -21.0 99.5 -21.2 99.7 -21.35 99.9 -21.55 100.15 -21.7 100.75 -21.75 M-81.1 -27.5 L-80.75 -27.55 -78.5 -27.55 -77.75 -27.35 -77.0 -27.3 -76.6 -27.25 -76.3 -27.1 -76.0 -26.95 -75.8 -26.75 -75.7 -26.55 -75.6 -26.35 -75.5 -26.2 -75.5 -26.0 -75.45 -25.8 -75.45 -25.6 -75.5 -25.45 -75.55 -25.25 -75.6 -25.05 -75.75 -24.85 -75.85 -24.7 -76.1 -24.5 -76.25 -24.35 -76.4 -24.3 -78.5 -24.2 -78.85 -24.25 -79.1 -24.3 -79.25 -24.35 -81.1 -24.55 -81.5 -24.6 -81.75 -24.8 -81.95 -25.0 -82.1 -25.2 -82.2 -25.35 -82.25 -25.55 -82.3 -25.75 -82.3 -25.95 -82.3 -26.1 -82.3 -26.3 -82.25 -26.5 -82.2 -26.7 -82.05 -26.85 -81.85 -27.05 -81.7 -27.25 -81.5 -27.35 -81.35 -27.45 -81.1 -27.5 M-105.0 -20.5 L-104.95 -20.3 -104.95 -20.1 -104.95 -19.95 -105.0 -19.75 -105.0 -19.55 -105.1 -19.35 -105.2 -19.2 -105.3 -19.0 -105.5 -18.8 -105.8 -18.65 -106.1 -18.5 -108.0 -18.4 -108.55 -18.35 -108.85 -18.25 -111.5 -18.25 -112.25 -18.35 -112.5 -18.55 -112.7 -18.75 -112.85 -18.95 -113.25 -19.1 -113.5 -19.3 -113.7 -19.5 -113.85 -19.7 -113.95 -19.85 -114.0 -20.05 -114.05 -20.25 -114.05 -20.45 -114.05 -20.6 -114.05 -20.8 -114.05 -21.0 -114.0 -21.2 -113.95 -21.35 -113.85 -21.55 -113.7 -21.75 -113.5 -21.95 -113.25 -22.1 -112.85 -22.25 -112.5 -22.3 -112.1 -22.25 -111.8 -22.1 -111.5 -21.95 -111.3 -21.75 -111.1 -21.55 -110.85 -21.45 -110.75 -21.4 -110.0 -21.45 -109.8 -21.6 -109.6 -21.8 -109.35 -21.95 -109.1 -22.0 -108.75 -22.05 -108.25 -22.05 -107.85 -22.0 -107.55 -21.85 -107.25 -21.75 -106.9 -21.75 -106.5 -21.8 -106.1 -21.75 -105.8 -21.6 -105.5 -21.45 -105.3 -21.25 -105.2 -21.05 -105.1 -20.85 -105.0 -20.7 -105.0 -20.5" fill="#cccccc" fill-rule="evenodd" stroke="none"/>
  </g>
</svg>
