<?xml version="1.0" encoding="UTF-8" standalone="no"?>
<svg xmlns:ffdec="https://www.free-decompiler.com/flash" xmlns:xlink="http://www.w3.org/1999/xlink" ffdec:objectType="shape" height="4.5px" width="191.5px" xmlns="http://www.w3.org/2000/svg">
  <g transform="matrix(1.0, 0.0, 0.0, 1.0, 100.75, 23.25)">
    <path d="M90.1 -21.5 L90.5 -21.15 90.75 -20.75 90.75 -20.4 90.6 -20.0 90.35 -19.65 90.0 -19.4 89.5 -19.25 85.1 -19.0 84.5 -18.75 84.0 -18.75 83.25 -19.0 82.85 -19.4 82.75 -19.75 82.75 -20.15 82.75 -20.5 83.1 -20.9 83.5 -21.25 83.75 -21.5 84.0 -21.6 84.45 -21.7 84.5 -21.75 89.5 -21.75 90.1 -21.5 M-93.0 -23.25 L-92.4 -23.0 -92.0 -22.65 -91.75 -22.25 -91.75 -21.9 -91.9 -21.5 -92.15 -21.15 -92.5 -20.75 -92.75 -20.5 -93.0 -20.4 -93.5 -20.25 -99.0 -20.25 -99.75 -20.5 -100.15 -20.9 -100.5 -21.25 -100.75 -21.65 -100.75 -22.0 -100.75 -22.4 -100.5 -22.75 -100.25 -23.0 -100.0 -23.1 -99.5 -23.2 -99.5 -23.25 -98.9 -23.0 -94.25 -23.0 -93.5 -23.25 -93.0 -23.25" fill="#cccccc" fill-rule="evenodd" stroke="none"/>
  </g>
</svg>
