<?xml version="1.0" encoding="UTF-8" standalone="no"?>
<svg xmlns:ffdec="https://www.free-decompiler.com/flash" xmlns:xlink="http://www.w3.org/1999/xlink" ffdec:objectType="shape" height="4.55px" width="215.05px" xmlns="http://www.w3.org/2000/svg">
  <g transform="matrix(1.0, 0.0, 0.0, 1.0, 112.5, 25.35)">
    <path d="M101.1 -24.7 L101.6 -24.6 101.95 -24.6 102.1 -24.5 102.3 -24.4 102.45 -24.35 102.45 -24.3 102.55 -24.25 102.55 -24.2 102.45 -24.15 102.35 -24.05 102.3 -24.0 102.1 -23.95 102.1 -23.85 102.1 -23.75 102.05 -23.65 101.95 -23.65 101.7 -23.55 101.6 -23.5 101.45 -23.45 101.25 -23.35 101.25 -23.3 101.25 -23.2 101.2 -23.2 101.1 -23.1 100.85 -23.05 100.85 -22.9 100.85 -22.7 100.85 -22.45 100.85 -22.2 100.85 -22.05 101.1 -21.95 101.2 -21.9 Q101.25 -21.9 101.45 -21.8 L101.5 -21.75 101.6 -21.7 101.7 -21.6 101.7 -21.45 101.7 -21.35 101.6 -21.35 101.5 -21.25 101.45 -21.2 101.2 -21.15 101.0 -21.05 100.7 -20.95 100.35 -20.95 99.85 -20.85 99.35 -20.85 98.65 -20.8 98.05 -20.85 97.4 -20.85 96.95 -20.95 96.6 -20.95 96.35 -21.05 96.2 -21.15 96.1 -21.2 96.05 -21.25 96.05 -21.35 96.05 -21.45 Q95.95 -21.45 95.95 -21.5 95.75 -21.5 95.7 -21.6 L95.6 -21.7 95.6 -21.95 95.6 -22.4 95.6 -22.9 95.6 -23.3 95.6 -23.35 95.7 -23.45 95.7 -23.5 95.95 -23.55 96.05 -23.65 96.05 -23.75 96.1 -23.75 96.2 -23.85 96.45 -23.95 96.55 -24.0 96.8 -24.05 96.85 -24.15 96.85 -24.25 96.95 -24.3 97.05 -24.35 97.3 -24.4 97.65 -24.5 97.9 -24.6 98.25 -24.6 98.65 -24.7 99.35 -24.75 99.9 -24.75 100.6 -24.75 101.1 -24.7 M-112.45 -25.0 Q-112.35 -25.0 -112.35 -25.05 L-112.1 -25.15 -111.75 -25.2 -111.5 -25.25 -111.15 -25.3 -110.9 -25.35 -110.5 -25.35 -109.9 -25.35 -109.2 -25.35 -108.7 -25.3 -108.2 -25.2 -107.85 -25.15 -107.7 -25.05 -107.55 -25.0 -107.35 -25.0 -107.35 -24.9 -107.3 -24.85 -107.3 -24.75 -107.3 -24.55 -107.3 -24.25 -107.3 -23.95 -107.3 -23.8 -107.1 -23.75 -106.95 -23.7 -106.85 -23.65 -106.6 -23.55 -106.5 -23.5 -106.45 -23.45 -106.45 -23.4 -106.2 -23.3 -106.0 -23.2 -106.0 -23.15 -105.75 -23.05 -105.65 -23.0 -105.6 -22.9 -105.6 -22.8 -105.6 -22.7 -105.65 -22.65 -105.75 -22.6 -105.85 -22.55 -106.1 -22.5 -106.25 -22.4 -106.7 -22.35 -106.95 -22.3 -107.2 -22.3 -107.55 -22.25 -108.2 -22.25 -108.8 -22.25 -109.5 -22.3 -109.9 -22.35 -110.25 -22.4 -110.5 -22.55 -110.85 -22.55 -111.1 -22.6 -111.15 -22.65 -111.25 -22.75 -111.25 -22.85 -111.5 -22.9 -111.6 -22.95 -111.7 -23.05 -111.95 -23.15 -112.0 -23.2 -112.2 -23.3 -112.35 -23.3 -112.45 -23.4 -112.5 -23.45 -112.5 -23.75 -112.5 -24.1 -112.5 -24.6 -112.5 -24.9 -112.45 -25.0" fill="#cccccc" fill-rule="evenodd" stroke="none"/>
  </g>
</svg>
