<?xml version="1.0" encoding="UTF-8" standalone="no"?>
<svg xmlns:ffdec="https://www.free-decompiler.com/flash" xmlns:xlink="http://www.w3.org/1999/xlink" ffdec:objectType="shape" height="79.35px" width="65.5px" xmlns="http://www.w3.org/2000/svg">
  <g transform="matrix(1.0, 0.0, 0.0, 1.0, 422.0, 19.05)">
    <path d="M-407.15 -18.05 L-403.5 -19.0 Q-399.15 -19.25 -394.95 -18.15 -391.8 -17.35 -389.5 -15.0 L-388.75 -14.65 Q-387.5 -14.15 -386.6 -13.15 L-384.75 -11.25 -383.65 -10.15 -383.1 -9.0 -382.1 -6.35 -380.6 -2.6 -379.5 0.35 -379.5 0.75 -379.5 1.85 -379.5 3.0 -379.5 4.85 -379.5 7.1 -379.65 7.5 -379.75 7.85 -379.9 8.25 -380.0 8.6 -380.0 9.0 -380.0 9.35 -380.7 10.8 Q-381.3 12.55 -382.25 14.2 L-385.25 19.2 -386.15 20.6 -386.5 21.0 -387.35 22.15 -388.05 23.3 -389.1 24.75 -389.4 25.1 -389.5 25.5 -389.55 25.85 -389.65 26.25 -389.75 26.6 -389.65 27.0 -389.5 27.35 -389.4 27.75 -389.25 28.1 -389.0 28.5 -388.65 28.85 -388.25 29.25 -388.0 29.45 -387.0 29.8 -386.25 30.1 Q-377.9 29.6 -370.0 26.1 -367.75 25.1 -365.15 25.8 -362.15 26.65 -360.05 29.05 -358.55 30.8 -357.4 32.75 L-357.25 33.1 -357.15 33.5 -357.0 33.85 -357.0 34.25 -357.0 35.35 -357.0 36.5 -356.95 38.35 Q-356.9 39.35 -357.15 40.25 L-357.15 40.6 -357.05 41.0 -356.85 41.35 -356.65 41.75 -356.5 42.1 -356.5 42.5 -356.5 42.85 -356.5 43.25 -356.5 43.6 -356.5 44.0 -356.5 44.35 -356.65 44.75 -356.95 45.5 -357.05 45.85 -357.15 46.25 -357.5 47.0 -358.15 48.1 -358.5 48.5 -358.85 48.9 -359.15 49.25 -359.35 49.65 -359.5 50.0 -361.35 51.9 Q-363.7 54.55 -366.75 56.4 -369.05 57.8 -371.75 57.6 -382.9 62.75 -394.2 58.0 -398.5 56.15 -401.75 52.75 L-401.9 52.35 -402.0 52.0 -402.4 51.6 -402.75 51.25 -403.15 50.85 -403.5 50.5 -403.7 50.1 -404.35 48.95 -404.85 48.35 -405.55 47.15 -405.75 46.75 -406.15 46.35 -406.5 46.0 -406.75 45.6 -406.9 45.25 -407.0 44.85 -407.15 44.5 -407.4 44.15 -407.75 43.75 -407.9 43.4 -408.25 42.6 -408.4 42.25 -408.6 41.85 -409.05 41.15 -409.5 40.0 -409.5 39.6 -409.5 39.25 -409.65 38.9 -409.85 38.5 -410.0 38.1 -410.0 37.75 -410.0 37.35 -410.15 37.0 -410.25 36.6 -410.4 36.25 -410.5 35.85 -410.5 35.5 -410.5 35.1 -410.75 34.75 -410.9 34.35 -411.0 34.0 -411.0 33.6 -411.0 33.25 -411.0 32.85 -411.15 32.5 -411.25 32.1 -411.4 31.75 -411.5 31.35 -411.5 30.6 -411.5 28.35 -411.5 25.35 -411.5 21.6 -411.4 21.25 -411.25 20.85 -411.15 20.5 -411.0 20.1 -411.0 19.75 -411.0 19.35 -410.85 19.0 -410.65 18.6 -410.55 18.25 -410.45 17.9 -410.4 17.5 -410.15 17.1 -409.4 16.1 -408.55 15.0 -407.7 13.4 -407.25 12.25 -406.9 11.85 -406.5 11.5 -406.15 11.1 -405.75 10.75 -405.55 10.35 -405.35 10.0 -405.15 9.6 -404.75 9.25 -404.4 8.85 -404.0 8.5 -403.65 8.1 -403.4 7.75 -403.25 7.4 -403.0 7.0 -402.65 6.6 -402.25 6.25 -402.0 5.85 -401.6 5.15 -401.4 4.75 -401.2 4.4 -400.65 3.6 -400.4 3.25 -400.25 2.85 -400.15 2.5 -400.0 2.1 -400.05 1.75 -400.35 1.0 -400.55 0.65 -400.7 0.25 -401.0 -0.5 -401.4 -0.8 -402.85 -1.65 -403.25 -1.85 -403.5 -2.0 Q-407.25 -2.85 -410.1 -0.2 -415.05 4.35 -420.4 1.6 L-420.7 1.2 -421.05 0.5 -421.25 0.1 -421.4 -0.25 -421.65 -1.0 -422.0 -2.15 -422.0 -2.5 -422.0 -2.9 -422.0 -3.25 -422.0 -3.65 -422.0 -4.0 -421.85 -4.4 -421.15 -5.9 -420.15 -7.7 -419.05 -10.05 -418.75 -10.75 -418.4 -11.15 -417.25 -12.25 -416.5 -13.0 -415.4 -14.15 Q-413.95 -14.6 -412.75 -15.45 -410.15 -17.2 -407.15 -18.05 M-416.4 -3.4 Q-413.15 -4.55 -409.9 -6.25 -404.7 -8.95 -400.0 -6.0 L-399.05 -5.7 -398.4 -5.35 -397.25 -4.25 -396.5 -3.5 -396.35 -3.15 -396.15 -2.75 -395.75 -2.0 -395.4 -1.25 -395.0 -0.15 -395.0 0.25 -395.0 0.6 -395.0 1.75 -395.0 2.85 -395.0 4.0 -395.0 4.35 -395.5 5.5 -396.6 7.45 -397.8 9.2 -398.5 10.0 -398.75 10.4 -398.9 10.75 -399.15 11.1 -399.5 11.5 -399.9 11.85 -400.65 12.6 -401.0 13.0 -401.25 13.4 -401.4 13.75 -401.65 14.1 -402.0 14.5 -402.4 14.85 -402.9 15.25 -403.1 15.65 -403.25 16.0 -403.65 16.75 -404.0 17.5 -404.65 18.6 -405.0 19.0 -405.4 19.35 -405.5 19.75 -405.65 20.1 -405.8 20.5 -406.0 20.85 -406.0 21.25 -406.0 21.6 -406.0 22.0 -406.0 22.35 -406.15 22.75 -406.35 23.15 -406.5 23.5 -406.5 24.25 -406.5 25.75 -406.5 27.25 -406.5 29.1 -406.5 29.5 -406.35 29.85 -406.15 30.25 -406.0 30.6 -406.0 31.0 -406.0 31.35 -406.0 31.75 -405.95 32.1 -405.8 32.5 -405.65 32.85 -405.5 33.25 -405.5 33.6 -405.5 34.0 -405.5 34.35 -405.4 34.75 -405.25 35.1 -405.0 35.85 -404.75 36.6 -404.5 37.35 -404.5 37.75 -404.5 38.1 Q-404.0 39.75 -403.1 41.2 L-400.0 46.0 -397.65 49.35 -396.5 50.5 Q-395.45 51.6 -394.1 52.35 -392.9 53.0 -391.75 53.75 -379.35 56.75 -367.9 50.55 -366.5 49.8 -365.25 48.75 L-365.05 48.35 -364.85 48.0 -364.65 47.6 -364.25 47.25 -363.9 46.85 -363.65 46.5 -363.75 46.1 -363.9 45.75 -364.0 45.35 -364.0 45.0 -364.0 44.6 -364.0 44.25 -364.0 43.85 -363.85 43.5 -363.6 43.15 -363.05 42.35 -362.85 42.0 -362.5 41.25 -362.5 40.85 -362.5 40.5 -362.5 40.1 -362.5 39.75 -362.5 39.35 -362.5 39.0 -362.4 38.6 -362.25 38.25 -362.0 37.85 -362.0 37.5 -362.0 37.1 -362.0 36.75 -362.0 36.35 -362.0 36.0 -362.25 35.25 -362.95 33.8 -364.2 32.3 -365.4 31.1 -366.15 30.75 -366.9 30.35 -367.25 30.25 -369.5 30.25 -370.25 30.6 -370.75 30.85 -371.65 31.1 -372.0 31.5 -372.4 31.85 -374.25 32.85 -375.15 33.1 Q-380.9 36.35 -387.55 34.9 L-390.65 34.25 -391.1 33.85 -391.5 33.5 -392.25 32.75 -393.0 32.0 -393.25 31.6 -393.4 31.25 -393.65 30.9 -394.0 30.5 -394.25 30.1 -394.4 29.75 -394.5 29.35 -394.75 28.6 -394.9 28.25 -395.0 27.85 -395.0 27.5 -395.0 27.1 -395.0 26.35 -395.0 26.0 -395.0 25.25 -395.0 24.85 -394.85 24.5 -394.65 24.1 -394.55 23.75 -394.5 23.4 -394.4 23.0 -394.15 22.6 -393.9 22.25 -393.75 21.9 -393.5 21.5 -393.15 21.1 -392.75 20.75 -392.1 19.65 -390.85 17.7 -389.55 15.8 -389.15 15.1 -388.75 14.75 -388.4 14.35 -388.0 14.0 -387.25 12.6 Q-386.45 11.5 -386.05 10.25 L-384.8 6.5 -384.5 5.75 -384.5 5.35 -384.5 5.0 -384.5 4.25 -384.5 3.5 -384.5 2.75 -384.5 2.35 -385.15 0.5 -386.25 -2.45 -388.0 -7.0 Q-390.0 -9.05 -392.3 -10.7 -396.9 -13.9 -402.5 -13.75 L-403.5 -13.55 -405.5 -13.25 -408.95 -11.8 Q-411.5 -10.6 -413.4 -8.65 L-414.15 -7.9 -414.55 -7.15 -415.25 -6.0 -415.85 -4.55 Q-416.05 -3.95 -416.4 -3.4" fill="#000000" fill-rule="evenodd" stroke="none"/>
    <path d="M-416.4 -3.4 Q-416.05 -3.95 -415.85 -4.55 L-415.25 -6.0 -414.55 -7.15 -414.15 -7.9 -413.4 -8.65 Q-411.5 -10.6 -408.95 -11.8 L-405.5 -13.25 -403.5 -13.55 -402.5 -13.75 Q-396.9 -13.9 -392.3 -10.7 -390.0 -9.05 -388.0 -7.0 L-386.25 -2.45 -385.15 0.5 -384.5 2.35 -384.5 2.75 -384.5 3.5 -384.5 4.25 -384.5 5.0 -384.5 5.35 -384.5 5.75 -384.8 6.5 -386.05 10.25 Q-386.45 11.5 -387.25 12.6 L-388.0 14.0 -388.4 14.35 -388.75 14.75 -389.15 15.1 -389.55 15.8 -390.85 17.7 -392.1 19.65 -392.75 20.75 -393.15 21.1 -393.5 21.5 -393.75 21.9 -393.9 22.25 -394.15 22.6 -394.4 23.0 -394.5 23.4 -394.55 23.75 -394.65 24.1 -394.85 24.5 -395.0 24.85 -395.0 25.25 -395.0 26.0 -395.0 26.35 -395.0 27.1 -395.0 27.5 -395.0 27.85 -394.9 28.25 -394.75 28.6 -394.5 29.35 -394.4 29.75 -394.25 30.1 -394.0 30.5 -393.65 30.9 -393.4 31.25 -393.25 31.6 -393.0 32.0 -392.25 32.75 -391.5 33.5 -391.1 33.85 -390.65 34.25 -387.55 34.9 Q-380.9 36.35 -375.15 33.1 L-374.25 32.85 -372.4 31.85 -372.0 31.5 -371.65 31.1 -370.75 30.85 -370.25 30.6 -369.5 30.25 -367.25 30.25 -366.9 30.35 -366.15 30.75 -365.4 31.1 -364.2 32.3 -362.95 33.8 -362.25 35.25 -362.0 36.0 -362.0 36.35 -362.0 36.75 -362.0 37.1 -362.0 37.5 -362.0 37.85 -362.25 38.25 -362.4 38.6 -362.5 39.0 -362.5 39.35 -362.5 39.75 -362.5 40.1 -362.5 40.5 -362.5 40.85 -362.5 41.25 -362.85 42.0 -363.05 42.35 -363.6 43.15 -363.85 43.5 -364.0 43.85 -364.0 44.25 -364.0 44.6 -364.0 45.0 -364.0 45.35 -363.9 45.75 -363.75 46.1 -363.65 46.5 -363.9 46.85 -364.25 47.25 -364.65 47.6 -364.85 48.0 -365.05 48.35 -365.25 48.75 Q-366.5 49.8 -367.9 50.55 -379.35 56.75 -391.75 53.75 -392.9 53.0 -394.1 52.35 -395.45 51.6 -396.5 50.5 L-397.65 49.35 -400.0 46.0 -403.1 41.2 Q-404.0 39.75 -404.5 38.1 L-404.5 37.75 -404.5 37.35 -404.75 36.6 -405.0 35.85 -405.25 35.1 -405.4 34.75 -405.5 34.35 -405.5 34.0 -405.5 33.6 -405.5 33.25 -405.65 32.85 -405.8 32.5 -405.95 32.1 -406.0 31.75 -406.0 31.35 -406.0 31.0 -406.0 30.6 -406.15 30.25 -406.35 29.85 -406.5 29.5 -406.5 29.1 -406.5 27.25 -406.5 25.75 -406.5 24.25 -406.5 23.5 -406.35 23.15 -406.15 22.75 -406.0 22.35 -406.0 22.0 -406.0 21.6 -406.0 21.25 -406.0 20.85 -405.8 20.5 -405.65 20.1 -405.5 19.75 -405.4 19.35 -405.0 19.0 -404.65 18.6 -404.0 17.5 -403.65 16.75 -403.25 16.0 -403.1 15.65 -402.9 15.25 -402.4 14.85 -402.0 14.5 -401.65 14.1 -401.4 13.75 -401.25 13.4 -401.0 13.0 -400.65 12.6 -399.9 11.85 -399.5 11.5 -399.15 11.1 -398.9 10.75 -398.75 10.4 -398.5 10.0 -397.8 9.2 -396.6 7.45 -395.5 5.5 -395.0 4.35 -395.0 4.0 -395.0 2.85 -395.0 1.75 -395.0 0.6 -395.0 0.25 -395.0 -0.15 -395.4 -1.25 -395.75 -2.0 -396.15 -2.75 -396.35 -3.15 -396.5 -3.5 -397.25 -4.25 -398.4 -5.35 -399.05 -5.7 -400.0 -6.0 Q-404.7 -8.95 -409.9 -6.25 -413.15 -4.55 -416.4 -3.4" fill="#80a839" fill-rule="evenodd" stroke="none"/>
  </g>
</svg>
