<?xml version="1.0" encoding="UTF-8" standalone="no"?>
<svg xmlns:ffdec="https://www.free-decompiler.com/flash" xmlns:xlink="http://www.w3.org/1999/xlink" ffdec:objectType="shape" height="27.3px" width="27.4px" xmlns="http://www.w3.org/2000/svg">
  <g transform="matrix(1.0, 0.0, 0.0, 1.0, 14.95, 12.2)">
    <path d="M0.2 -5.1 L0.3 -4.95 0.5 -4.75 0.7 -4.55 0.9 -4.35 1.0 -4.2 1.15 -4.0 1.25 -3.8 1.4 -3.6 1.55 -3.45 1.65 -3.35 2.0 -2.9 2.2 -2.65 2.25 -2.5 2.65 -2.1 3.05 -1.7 3.2 -1.55 3.45 -1.3 3.75 -1.0 3.8 -0.95 4.2 -0.55 4.5 -0.25 4.7 -0.05 4.8 0.15 4.95 0.3 5.0 0.5 5.2 0.7 5.4 0.9 5.5 1.05 5.75 1.25 5.95 1.45 6.15 1.65 6.25 1.8 6.55 2.0 7.1 2.4 7.3 2.55 7.5 2.75 7.7 2.95 7.9 3.15 8.2 3.3 8.5 3.5 8.7 3.7 8.9 3.9 9.05 4.05 9.25 4.25 9.45 4.45 9.8 4.65 10.55 5.4 Q11.65 6.65 11.95 8.0 L12.0 8.1 12.05 8.2 12.1 8.3 12.15 8.4 12.15 8.5 12.2 8.6 12.2 8.7 12.2 8.75 12.25 8.85 12.3 8.95 12.35 9.05 12.4 9.15 12.4 9.25 12.45 9.35 12.45 9.45 12.45 9.5 12.45 9.6 12.45 9.7 12.4 9.8 12.4 9.9 12.35 10.0 12.3 10.1 12.25 10.2 12.2 10.25 12.2 10.35 12.2 10.45 12.15 10.55 12.15 10.65 12.1 10.75 12.05 10.85 12.0 10.95 11.95 11.0 11.85 11.1 11.75 11.2 11.7 11.3 11.6 11.4 11.55 11.5 11.45 11.6 11.35 11.7 11.35 11.75 11.3 11.85 11.25 11.95 11.15 12.05 11.05 12.15 10.95 12.25 10.85 12.35 10.8 12.45 10.75 12.5 10.7 12.6 10.6 12.7 10.5 12.8 10.4 12.9 10.3 13.0 10.2 13.1 10.1 13.2 10.05 13.25 9.95 13.35 9.85 13.45 9.85 13.55 9.8 13.65 9.7 13.75 9.6 13.85 9.5 13.95 9.35 14.0 9.25 14.1 9.2 14.1 9.05 14.15 9.0 14.2 8.9 14.3 8.8 14.4 8.7 14.5 8.6 14.6 8.5 14.7 8.3 14.75 8.2 14.85 8.05 14.95 7.95 15.0 7.8 15.05 7.6 15.1 6.35 15.1 6.15 15.05 5.95 15.0 5.6 14.95 5.4 14.9 5.25 14.85 5.2 14.85 5.05 14.8 4.85 14.75 4.7 14.65 4.6 14.6 4.55 14.55 4.35 14.5 4.2 14.4 4.05 14.3 3.85 14.2 3.75 14.1 3.65 14.0 3.55 13.95 3.45 13.85 3.3 13.75 3.2 13.65 3.15 13.6 3.1 13.6 2.95 13.5 2.8 13.4 2.6 13.3 2.5 13.2 2.4 13.1 2.3 13.0 2.2 12.95 2.1 12.85 1.95 12.75 0.25 10.9 -4.8 5.7 -7.55 3.1 -9.5 0.75 -12.55 -2.0 -13.55 -2.8 -13.6 -2.9 -13.65 -3.0 -13.7 -3.1 -13.8 -3.2 -13.9 -3.3 -13.95 -3.4 -14.05 -3.5 -14.1 -3.55 -14.15 -3.65 -14.2 -3.75 -14.3 -3.85 -14.4 -3.95 -14.5 -4.05 -14.55 -4.15 -14.65 -4.25 -14.65 -4.3 -14.7 -4.4 -14.7 -4.5 -14.75 -4.55 -14.8 -4.65 -14.8 -4.7 -14.85 -4.8 -14.9 -4.9 -14.9 -5.0 -14.95 -5.05 -14.95 -5.15 -14.95 -5.25 -14.95 -5.8 -14.95 -5.9 -14.95 -6.0 -14.95 -6.55 -14.95 -6.65 -14.95 -6.75 -14.95 -7.25 -14.9 -7.3 -14.9 -7.4 -14.85 -7.5 -14.8 -7.6 -14.8 -7.7 -14.75 -7.8 -14.7 -7.9 -14.65 -7.95 -14.6 -8.0 -14.55 -8.05 -14.55 -8.15 -14.45 -8.25 -14.4 -8.3 -14.3 -8.4 -14.25 -8.5 -14.2 -8.6 -14.15 -8.7 -14.05 -8.8 -13.95 -8.9 -13.8 -9.0 -13.65 -9.05 -13.45 -9.15 -13.3 -9.25 -13.2 -9.35 -13.05 -9.45 -12.95 -9.55 -12.85 -9.65 -12.75 -9.75 -12.65 -9.8 -12.5 -9.9 -12.3 -9.95 -12.2 -10.05 -12.05 -10.1 -12.0 -10.15 -11.8 -10.2 -11.7 -10.3 -11.55 -10.4 -11.45 -10.5 -11.4 -10.55 -11.3 -10.65 -11.2 -10.75 -11.05 -10.85 -10.8 -10.95 -10.7 -11.05 -10.55 -11.1 -10.5 -11.15 -10.45 -11.15 -10.3 -11.2 -10.25 -11.25 -10.2 -11.3 -10.15 -11.3 -9.95 -11.45 -9.7 -11.55 -9.5 -11.6 -9.3 -11.7 -8.95 -11.85 -8.7 -12.05 -8.45 -12.2 -8.05 -12.0 -7.7 -11.9 -7.35 -11.8 -6.6 -11.65 Q-3.25 -7.8 -1.3 -6.75 L0.15 -5.25 0.2 -5.1" fill="#999999" fill-rule="evenodd" stroke="none"/>
  </g>
</svg>
