<?xml version="1.0" encoding="UTF-8" standalone="no"?>
<svg xmlns:ffdec="https://www.free-decompiler.com/flash" xmlns:xlink="http://www.w3.org/1999/xlink" ffdec:objectType="shape" height="480.9px" width="646.5px" xmlns="http://www.w3.org/2000/svg">
  <g transform="matrix(1.0, 0.0, 0.0, 1.0, 329.35, 248.75)">
    <path d="M238.15 -214.95 Q238.5 -214.1 238.95 -213.5 241.7 -210.0 253.0 -210.0 262.9 -210.0 275.45 -216.75 L316.0 -217.0 317.15 -217.25 317.15 -176.1 297.75 -176.25 Q297.25 -176.7 295.25 -177.75 L300.0 -177.75 Q305.25 -179.1 307.65 -181.7 309.5 -183.7 309.5 -186.25 309.5 -189.6 307.05 -191.6 303.7 -194.45 296.75 -192.85 L214.0 -192.6 Q209.05 -191.55 207.4 -188.9 206.5 -187.55 206.5 -185.25 L206.7 -183.3 Q203.55 -186.5 198.0 -187.0 L-11.0 -187.0 Q-16.6 -186.05 -19.15 -182.75 -21.0 -180.3 -21.0 -177.0 L-20.85 -175.2 -83.4 -175.15 Q-84.55 -176.85 -86.6 -178.0 -87.7 -178.65 -102.0 -184.0 L-166.35 -184.25 Q-167.4 -186.35 -169.95 -188.55 -173.25 -191.5 -175.85 -191.0 L-215.35 -191.5 Q-214.1 -193.35 -213.5 -195.0 L-45.4 -195.0 -43.95 -193.5 Q-41.0 -191.4 -32.0 -189.6 L93.0 -189.6 Q99.25 -191.25 102.35 -196.75 104.75 -200.95 104.5 -205.1 L138.4 -205.25 141.0 -205.0 143.55 -205.3 201.0 -205.6 Q205.2 -206.5 207.2 -209.35 208.5 -211.25 208.5 -213.1 L208.25 -214.85 238.15 -214.95 M295.6 -237.0 Q295.1 -238.5 294.15 -239.75 291.6 -243.05 286.0 -244.0 L214.0 -244.0 Q179.85 -240.3 173.05 -238.65 L168.05 -237.0 99.0 -237.0 Q95.65 -236.45 93.75 -235.5 L5.0 -235.0 Q-0.55 -234.05 -3.1 -230.75 -5.0 -228.25 -5.0 -225.0 L-5.0 -224.5 Q-11.45 -226.65 -32.0 -229.0 L-139.0 -229.0 Q-140.85 -229.25 -146.5 -225.5 L-242.15 -225.15 Q-244.65 -227.25 -248.85 -228.0 L-289.85 -228.0 Q-289.85 -227.75 -293.6 -227.25 L-319.85 -227.0 Q-322.9 -226.45 -325.0 -225.25 L-325.0 -245.95 257.7 -245.95 258.0 -246.25 258.75 -247.0 260.0 -247.7 261.25 -248.25 262.5 -248.5 263.95 -248.65 264.0 -248.75 Q279.0 -248.75 294.0 -248.4 L297.25 -248.0 298.75 -247.25 299.7 -246.45 300.3 -245.95 317.15 -245.95 317.15 -236.75 316.0 -237.0 295.6 -237.0 M317.15 -155.95 L317.15 -52.0 314.0 -52.0 311.0 -53.0 263.5 -53.25 Q262.6 -54.55 260.9 -55.85 257.9 -58.15 255.0 -58.0 L220.75 -58.25 Q218.4 -59.45 215.0 -60.0 L71.0 -60.0 68.25 -59.7 Q67.65 -61.25 66.55 -62.6 63.45 -66.45 57.0 -68.0 L-30.55 -68.1 Q-31.5 -70.6 -33.8 -72.75 -35.45 -74.25 -37.65 -75.35 L-25.95 -76.35 -24.35 -76.5 19.25 -76.5 Q22.4 -74.6 26.0 -74.0 L53.0 -74.0 Q54.3 -74.15 57.3 -73.3 L62.0 -72.0 161.0 -72.0 Q179.05 -73.65 185.55 -76.3 193.0 -79.3 193.0 -86.25 L192.8 -88.75 Q194.65 -87.1 198.0 -87.1 L257.0 -87.1 275.9 -90.6 279.25 -91.2 Q290.35 -84.1 303.0 -84.1 308.65 -84.1 311.05 -87.15 312.5 -89.0 312.5 -91.5 312.5 -96.35 307.55 -98.1 303.95 -99.0 300.7 -100.05 301.5 -101.8 301.5 -104.0 301.5 -106.05 300.6 -107.75 L302.45 -108.75 309.9 -112.3 Q313.35 -114.05 314.75 -115.75 316.5 -117.8 316.5 -121.0 316.5 -125.3 313.3 -127.6 308.6 -130.95 298.25 -128.35 L275.7 -128.05 Q273.85 -129.75 270.0 -130.85 L232.25 -131.1 Q221.5 -133.05 221.5 -123.85 221.5 -121.55 222.9 -120.0 L165.7 -120.0 166.0 -122.25 165.9 -124.0 177.0 -124.0 Q192.9 -126.4 204.2 -130.35 216.15 -134.55 231.5 -143.5 245.2 -142.15 250.4 -147.5 253.0 -150.2 253.0 -154.0 L252.9 -155.85 317.15 -155.95 M317.15 -23.25 L317.15 -13.5 289.05 -15.7 281.2 -16.4 286.4 -17.2 299.15 -18.75 Q304.15 -19.55 305.95 -21.3 L306.55 -21.95 313.0 -22.0 Q315.35 -22.4 317.15 -23.25 M317.15 11.05 L317.15 91.95 309.75 92.5 Q309.2 90.65 306.4 88.95 303.6 87.3 302.75 84.5 301.9 81.75 300.15 79.55 297.2 75.85 293.0 76.0 L218.0 76.0 218.0 76.25 Q205.8 77.0 199.55 80.9 196.3 82.95 192.0 88.75 190.7 90.5 187.6 91.65 L181.95 93.6 Q177.25 95.35 175.75 98.85 L150.5 98.6 Q160.3 94.1 163.9 90.25 167.0 87.0 167.0 82.5 167.0 79.45 165.2 76.45 162.65 72.25 157.75 71.25 L175.0 70.25 209.0 70.0 Q214.3 70.3 218.15 68.05 L231.0 68.0 235.0 67.25 263.0 67.0 Q269.6 67.05 273.6 63.35 277.0 60.15 277.0 56.1 277.0 52.85 274.65 49.65 271.55 45.5 266.0 45.0 L265.85 45.0 266.0 43.0 265.8 41.0 279.0 41.0 Q292.55 40.55 298.05 36.75 302.0 33.95 302.0 29.0 302.0 26.0 300.55 23.75 297.5 19.0 289.0 19.0 L282.55 19.7 276.25 20.75 184.0 20.5 203.2 19.2 213.75 18.25 247.0 18.0 Q263.5 19.5 270.2 14.3 272.05 12.9 273.0 11.15 L317.15 11.05 M317.15 113.15 L317.15 232.15 -325.0 232.15 -325.0 179.0 -26.1 179.0 Q-28.4 179.95 -30.35 181.1 -32.75 182.5 -36.75 185.9 L-178.1 185.75 Q-197.85 182.85 -204.85 187.25 -208.25 189.35 -208.75 193.9 L-209.85 195.75 -312.85 195.75 Q-317.2 195.75 -319.1 198.5 -320.35 200.3 -320.35 203.1 -320.35 205.95 -319.1 207.75 -317.25 210.45 -312.85 210.6 L-310.65 210.6 Q-310.15 214.05 -307.8 216.25 -305.15 218.7 -294.85 224.0 L-224.85 224.0 -220.35 223.25 -213.75 223.25 -213.5 223.8 Q-211.85 226.6 -206.85 227.5 L58.0 227.5 Q62.2 226.7 64.2 223.75 65.5 221.85 65.5 220.1 65.5 217.7 63.75 215.5 61.6 212.75 58.0 212.6 L28.65 212.6 Q29.0 211.25 29.0 209.75 L28.95 207.95 28.75 207.5 102.0 207.2 103.55 207.2 141.25 207.0 Q138.5 208.1 136.7 210.05 133.9 213.1 134.0 216.85 134.0 220.1 135.9 222.55 138.45 225.85 144.0 226.85 L265.0 226.85 Q281.05 225.35 286.95 222.2 292.0 219.45 292.0 213.85 292.0 211.15 290.45 208.65 287.6 203.85 280.5 203.85 L275.1 204.65 269.5 205.1 Q268.4 204.65 267.2 202.1 265.9 199.5 265.25 199.1 260.15 196.1 250.5 194.55 L256.25 192.9 268.0 192.85 Q273.0 192.35 275.7 189.1 277.6 186.85 277.95 184.15 286.0 178.65 286.0 171.0 286.0 167.5 285.25 165.3 284.15 162.05 281.25 160.5 285.9 157.0 298.25 151.05 301.8 149.3 303.2 147.8 305.0 145.9 305.0 143.0 305.0 139.75 303.15 137.35 300.6 134.1 295.0 133.0 L286.0 133.0 284.75 130.95 Q282.6 128.15 279.0 128.0 L209.0 128.0 Q193.95 127.45 184.7 128.55 186.5 126.35 186.5 123.5 186.45 121.5 185.6 119.75 190.7 117.6 191.75 113.05 L247.25 113.25 247.9 114.7 Q248.35 115.5 249.5 115.9 252.55 117.0 265.0 117.0 277.7 117.0 280.1 115.95 280.85 115.6 281.25 114.85 281.7 113.95 282.5 113.5 L317.15 113.15 M-325.0 158.95 L-325.0 87.9 -318.0 86.95 -291.85 83.25 -191.85 83.0 Q-188.45 82.4 -186.15 80.9 -181.3 85.8 -171.85 86.0 L-100.35 86.05 -102.75 86.5 Q-105.75 87.05 -125.5 87.05 -143.25 87.95 -148.55 92.7 L-212.85 92.85 -223.65 93.9 -241.85 94.0 Q-247.5 95.05 -250.0 98.35 -251.85 100.7 -251.85 104.0 -251.85 107.3 -250.0 109.75 -247.45 113.05 -241.85 114.0 L-236.95 114.0 Q-236.6 114.8 -236.6 115.1 L-236.6 115.85 -302.85 116.0 Q-308.1 117.35 -310.05 119.95 -311.35 121.7 -311.35 124.5 -311.45 126.4 -310.35 128.25 -308.2 132.0 -302.35 132.0 -299.1 132.0 -297.6 131.25 L-163.85 131.0 Q-161.45 130.6 -160.75 130.25 L34.25 130.25 Q35.1 131.1 40.0 133.0 L171.2 133.0 Q170.05 134.2 169.7 135.8 L154.9 138.4 Q139.05 141.9 129.45 149.85 L113.25 149.75 108.0 149.0 49.0 148.75 45.0 148.0 6.95 148.0 Q4.5 146.0 0.0 145.0 L-38.25 144.75 Q-47.5 144.7 -55.5 142.6 L-59.2 142.3 Q-61.05 142.65 -64.75 144.5 L-183.85 145.0 Q-211.95 147.6 -218.85 149.3 L-221.35 150.0 -274.85 150.0 Q-280.45 151.0 -283.0 154.35 -284.25 156.0 -284.65 157.95 L-290.85 158.0 -294.85 158.75 -325.0 158.95 M-325.0 66.6 L-325.0 40.95 Q-323.65 44.0 -320.25 45.9 -313.75 49.45 -296.35 51.25 L-297.6 51.5 Q-304.65 54.35 -315.35 61.25 -321.4 65.1 -325.0 66.6 M-325.0 31.85 L-325.0 -36.95 -251.6 -36.75 Q-273.3 -31.7 -278.85 -29.25 L-280.85 -28.25 -306.85 -28.25 Q-314.35 -27.8 -314.35 -20.85 -314.35 -18.15 -313.1 -16.3 -311.25 -13.6 -306.85 -13.35 L-287.1 -13.35 Q-285.25 -8.65 -279.1 -5.75 -265.0 0.8 -227.85 0.0 L-188.55 0.5 -188.75 1.55 Q-194.15 3.3 -203.5 5.3 L-224.3 9.9 Q-241.25 14.2 -246.45 20.5 L-246.55 20.4 Q-247.35 19.3 -247.35 18.0 -247.35 15.5 -246.35 13.1 -245.35 10.7 -245.35 10.15 -245.45 7.7 -255.85 2.0 L-295.35 1.5 Q-309.45 -1.75 -317.6 1.85 -324.85 5.0 -324.85 12.0 -324.85 15.7 -322.65 18.15 -318.7 22.5 -308.6 22.25 L-311.35 23.25 Q-320.5 25.95 -323.7 29.75 L-325.0 31.85 M-325.0 -58.5 L-325.0 -86.75 Q-321.4 -85.25 -314.85 -85.85 L-315.35 -85.6 Q-317.0 -84.55 -317.8 -82.5 -318.35 -81.05 -318.35 -79.5 -318.35 -76.45 -315.55 -73.05 -312.3 -69.1 -306.85 -67.1 L-304.8 -67.1 Q-304.65 -65.2 -304.15 -64.0 -303.6 -62.6 -302.4 -61.35 -304.65 -60.7 -306.2 -59.5 L-325.0 -58.5 M-325.0 -101.75 L-325.0 -158.95 -266.6 -158.75 -264.1 -157.6 Q-262.5 -157.0 -260.85 -157.0 -259.25 -157.0 -257.65 -157.55 L-255.6 -158.5 -249.25 -158.55 -248.4 -156.75 Q-245.5 -152.0 -237.85 -152.0 -228.7 -152.0 -218.15 -152.55 -203.4 -153.25 -195.85 -154.75 L-79.75 -154.75 -76.0 -154.0 -48.0 -154.0 Q-48.0 -150.8 -46.15 -148.35 -43.6 -145.0 -38.0 -144.0 L77.25 -143.75 81.0 -143.0 98.1 -142.9 Q86.7 -140.8 71.8 -138.85 L-113.0 -138.85 Q-117.7 -138.7 -125.2 -133.5 -133.4 -127.75 -136.25 -127.1 L-229.85 -126.85 Q-235.05 -126.55 -238.7 -125.6 L-238.7 -125.65 Q-237.35 -127.5 -237.35 -129.35 -237.35 -131.7 -239.15 -133.95 -241.3 -136.7 -244.85 -136.85 L-315.85 -136.85 Q-320.65 -135.05 -322.1 -133.55 -323.35 -132.2 -323.35 -129.35 -323.35 -126.5 -322.1 -125.25 -320.85 -124.05 -315.85 -122.0 L-314.65 -122.0 -314.85 -120.0 Q-315.4 -116.25 -311.6 -113.2 -304.05 -107.25 -282.35 -109.75 -284.55 -107.45 -292.25 -107.1 -296.75 -106.85 -307.2 -106.95 -316.4 -106.7 -320.9 -104.75 -323.55 -103.6 -325.0 -101.75 M-325.0 -194.2 L-325.0 -195.9 -322.85 -195.25 -325.0 -194.2 M3.0 -215.45 L5.0 -215.0 3.0 -215.0 3.0 -215.45 M-122.05 -116.6 L-120.75 -115.5 -123.65 -115.45 -122.15 -116.55 -122.05 -116.6 M-242.0 -110.45 L-243.9 -108.4 -243.45 -109.7 -243.15 -110.85 -242.0 -110.45 M108.9 -99.0 L116.45 -100.1 116.95 -99.8 118.7 -99.0 108.9 -99.0 M189.2 -95.0 L190.55 -95.0 190.5 -94.5 190.55 -93.7 189.2 -95.0 M263.9 -103.8 L264.5 -104.5 Q265.25 -105.5 265.65 -106.85 L267.9 -106.2 Q267.65 -105.4 267.55 -104.3 L263.9 -103.8 M1.0 -47.75 L8.05 -47.75 8.0 -46.75 8.0 -46.1 -0.1 -46.05 0.1 -46.35 1.0 -47.75 M-81.65 -42.0 L-47.4 -42.0 -47.7 -41.7 Q-50.0 -39.3 -50.0 -34.35 -50.0 -30.3 -48.35 -28.1 -46.5 -25.65 -41.6 -24.05 L-45.65 -22.75 -53.2 -20.4 Q-57.35 -24.15 -68.0 -23.35 L-101.95 -23.35 Q-102.4 -24.45 -103.2 -25.45 -104.85 -27.45 -107.5 -28.05 L-103.25 -28.75 Q-100.6 -29.25 -95.35 -31.0 -90.6 -32.6 -89.25 -33.25 -86.1 -34.85 -84.1 -38.5 -82.6 -41.25 -81.65 -42.0 M2.4 -19.0 L99.25 -18.75 107.8 -17.85 115.0 -17.0 195.85 -16.5 195.95 -16.35 -4.8 -16.35 2.4 -19.0 M146.25 13.0 Q141.0 16.8 141.0 23.0 141.0 29.1 145.85 32.9 L-45.65 32.65 Q-45.0 30.95 -45.0 29.0 L-45.0 28.35 98.0 28.35 Q116.1 26.3 121.25 24.7 129.5 22.1 129.5 15.85 129.5 14.35 128.9 13.0 L146.25 13.0 M-21.15 86.15 L127.25 86.25 109.65 89.25 94.0 91.75 30.65 91.85 Q27.5 89.65 22.0 89.0 L-29.25 88.75 -21.15 86.15 M148.8 204.05 Q150.75 205.15 152.8 205.7 149.5 205.45 146.75 205.75 L148.8 204.05 M-245.1 -106.25 L-245.6 -106.25 Q-245.15 -106.5 -244.8 -106.9 L-245.1 -106.25 M-201.1 39.0 L-188.1 39.0 Q-188.8 40.8 -188.85 42.5 L-200.9 43.0 -200.85 41.75 Q-200.85 40.3 -201.1 39.0 M-246.8 57.8 Q-246.65 60.65 -245.05 62.75 L-245.0 62.85 -267.1 62.75 Q-258.2 59.8 -246.8 57.8 M-74.5 13.0 Q-78.1 13.65 -79.9 15.9 -80.95 17.2 -81.3 18.95 L-82.9 18.95 Q-82.5 17.9 -82.5 16.85 -82.5 14.8 -83.7 13.0 L-74.5 13.0" fill="#333333" fill-rule="evenodd" stroke="none"/>
    <path d="M207.05 -217.15 L220.2 -218.05 237.0 -218.5 Q237.45 -218.05 237.8 -216.35 L238.15 -214.95 208.25 -214.85 207.05 -217.15 M275.45 -216.75 L281.3 -220.25 Q287.55 -224.25 291.85 -228.3 296.0 -232.2 296.0 -234.0 296.0 -235.6 295.6 -237.0 L316.0 -237.0 317.15 -236.75 317.15 -217.25 316.0 -217.0 275.45 -216.75 M168.05 -237.0 Q160.0 -233.55 160.0 -227.0 160.0 -223.75 161.9 -221.3 L162.6 -220.5 93.0 -220.5 Q75.7 -218.2 71.4 -217.0 65.5 -215.3 65.5 -209.6 L65.7 -206.95 66.5 -205.1 -29.75 -204.85 Q-37.15 -208.0 -42.1 -205.8 -46.5 -203.85 -46.5 -199.25 -46.5 -196.7 -45.4 -195.0 L-213.5 -195.0 Q-212.85 -196.7 -212.85 -198.25 -212.85 -199.95 -213.2 -201.25 L-214.1 -203.5 -202.1 -204.75 -66.0 -205.0 Q-64.85 -204.75 -61.95 -206.3 -59.95 -207.4 -58.5 -208.5 L-31.75 -208.75 -20.5 -206.05 -7.0 -205.0 Q-2.45 -205.0 0.5 -208.5 3.0 -211.45 3.0 -214.85 L3.0 -215.0 5.0 -215.0 3.0 -215.45 Q2.65 -221.7 -4.3 -224.25 L-5.0 -224.5 -5.0 -225.0 Q-5.0 -228.25 -3.1 -230.75 -0.55 -234.05 5.0 -235.0 L93.75 -235.5 Q95.65 -236.45 99.0 -237.0 L168.05 -237.0 M138.4 -205.25 L143.55 -205.3 141.0 -205.0 138.4 -205.25 M-325.0 -225.25 Q-322.9 -226.45 -319.85 -227.0 L-293.6 -227.25 Q-289.85 -227.75 -289.85 -228.0 L-248.85 -228.0 Q-244.65 -227.25 -242.15 -225.15 L-282.85 -225.0 -286.6 -224.25 -325.0 -224.0 -325.0 -225.25 M317.15 -176.1 L317.15 -155.95 252.9 -155.85 Q252.65 -158.25 251.6 -159.5 250.05 -161.45 245.4 -162.55 241.2 -163.6 206.25 -167.25 207.8 -168.4 208.9 -170.95 210.0 -173.4 210.0 -175.5 210.0 -177.35 209.4 -179.05 211.2 -177.85 214.0 -177.75 L295.25 -177.75 Q297.25 -176.7 297.75 -176.25 L317.15 -176.1 M317.15 -31.6 L317.15 -23.25 Q315.35 -22.4 313.0 -22.0 L306.55 -21.95 Q308.0 -24.05 308.0 -28.1 L307.7 -30.45 307.25 -31.5 317.15 -31.6 M317.15 -13.5 L317.15 11.05 273.0 11.15 Q274.0 9.25 274.0 7.0 274.0 3.8 272.1 1.35 269.5 -2.0 264.0 -3.0 L223.75 -3.25 Q232.6 -6.35 244.9 -8.9 L266.75 -13.5 Q273.85 -15.25 281.2 -16.4 L289.05 -15.7 317.15 -13.5 M-325.0 -36.95 L-325.0 -58.5 -306.2 -59.5 -308.05 -57.75 Q-309.85 -55.4 -309.85 -52.0 -309.85 -48.75 -308.05 -46.35 -305.5 -43.0 -299.85 -42.0 L-81.65 -42.0 Q-82.6 -41.25 -84.1 -38.5 -86.1 -34.85 -89.25 -33.25 -90.6 -32.6 -95.35 -31.0 -100.6 -29.25 -103.25 -28.75 L-107.5 -28.05 -109.0 -28.25 -280.85 -28.25 -278.85 -29.25 Q-273.3 -31.7 -251.6 -36.75 L-325.0 -36.95 M-325.0 -100.45 L-325.0 -101.75 Q-323.55 -103.6 -320.9 -104.75 -316.4 -106.7 -307.2 -106.95 -296.75 -106.85 -292.25 -107.1 -284.55 -107.45 -282.35 -109.75 -304.05 -107.25 -311.6 -113.2 -315.4 -116.25 -314.85 -120.0 L-314.65 -122.0 -245.75 -122.0 Q-247.35 -120.15 -247.35 -117.5 -247.45 -115.4 -246.35 -113.6 -245.25 -111.75 -243.15 -110.85 L-243.45 -109.7 -243.9 -108.4 -242.0 -110.45 -238.35 -110.0 -232.7 -110.7 -227.6 -111.75 -133.0 -112.0 Q-128.45 -112.35 -123.65 -115.45 L-120.75 -115.5 -122.05 -116.6 Q-115.15 -121.8 -110.5 -123.5 L82.0 -124.0 Q86.2 -124.7 88.2 -127.6 89.5 -129.45 89.5 -131.35 89.5 -133.75 87.75 -135.95 85.6 -138.7 82.0 -138.85 L71.8 -138.85 Q86.7 -140.8 98.1 -142.9 L120.75 -142.75 Q118.4 -140.95 117.15 -138.5 116.0 -136.25 116.0 -134.0 116.0 -130.9 117.9 -127.9 120.65 -123.6 126.0 -124.0 L165.9 -124.0 166.0 -122.25 165.7 -120.0 222.9 -120.0 224.9 -118.5 Q229.75 -116.0 246.25 -113.0 249.6 -112.4 259.9 -108.8 L265.65 -106.85 Q265.25 -105.5 264.5 -104.5 L263.9 -103.8 Q257.05 -102.85 255.75 -102.25 L198.0 -102.0 Q190.8 -100.7 190.55 -95.0 L189.2 -95.0 Q186.75 -96.8 183.0 -97.0 L140.75 -97.25 Q138.4 -98.45 135.0 -99.0 L118.7 -99.0 116.95 -99.8 116.45 -100.1 108.9 -99.0 90.65 -99.0 91.2 -99.75 Q92.5 -101.6 92.5 -103.5 92.5 -105.9 90.75 -108.1 88.6 -110.85 85.0 -111.0 L-74.0 -111.0 Q-78.35 -110.85 -80.2 -108.1 -81.5 -106.25 -81.5 -103.5 -81.5 -101.2 -80.6 -99.55 L-83.0 -100.0 -197.6 -100.25 Q-208.25 -102.3 -208.35 -93.05 -218.8 -89.95 -218.85 -82.1 L-263.35 -82.35 Q-252.35 -85.9 -252.35 -93.1 -252.35 -95.35 -253.7 -97.3 -255.65 -100.0 -259.85 -101.0 L-321.85 -101.0 -325.0 -100.45 M-48.0 -154.0 L-76.0 -154.0 -79.75 -154.75 -195.85 -154.75 Q-203.4 -153.25 -218.15 -152.55 -228.7 -152.0 -237.85 -152.0 -245.5 -152.0 -248.4 -156.75 L-249.25 -158.55 -214.85 -159.0 -211.1 -159.75 -92.0 -160.0 Q-86.45 -161.05 -83.9 -164.3 -82.0 -166.75 -82.0 -170.0 -82.0 -173.0 -83.4 -175.15 L-20.85 -175.2 Q-20.45 -173.1 -19.15 -171.35 -16.6 -168.0 -11.0 -167.0 L74.75 -166.75 62.0 -165.25 -6.0 -165.0 -10.0 -164.25 -38.0 -164.0 Q-43.6 -163.0 -46.15 -159.75 -48.0 -157.35 -48.0 -154.0 M-24.35 -76.5 L-25.95 -76.35 -37.65 -75.35 Q-35.45 -74.25 -33.8 -72.75 -31.5 -70.6 -30.55 -68.1 L57.0 -68.0 Q63.45 -66.45 66.55 -62.6 67.65 -61.25 68.25 -59.7 L71.0 -60.0 215.0 -60.0 Q218.4 -59.45 220.75 -58.25 L255.0 -58.0 Q257.9 -58.15 260.9 -55.85 262.6 -54.55 263.5 -53.25 L311.0 -53.0 314.0 -52.0 176.0 -52.0 167.05 -50.0 Q158.7 -47.95 155.75 -46.5 L8.0 -46.1 8.0 -46.75 8.05 -47.75 1.0 -47.75 Q2.0 -49.7 2.0 -52.0 2.0 -55.3 0.1 -57.75 -2.45 -61.0 -8.0 -62.0 L-145.0 -62.25 -151.6 -63.25 -127.55 -66.6 Q-104.75 -69.55 -100.25 -70.75 L-72.0 -71.0 Q-68.7 -70.9 -66.0 -73.0 -63.85 -74.65 -63.25 -76.5 L-24.35 -76.5 M-210.95 -72.1 Q-203.7 -69.5 -190.1 -70.75 -191.6 -69.5 -192.4 -67.05 -193.25 -64.55 -192.85 -62.5 L-299.85 -62.0 -302.4 -61.35 Q-303.6 -62.6 -304.15 -64.0 -304.65 -65.2 -304.8 -67.1 L-217.85 -67.1 Q-213.75 -68.0 -211.7 -70.85 L-210.95 -72.1 M-41.6 -24.05 L-41.45 -24.0 Q-32.75 -21.25 -1.0 -19.0 L2.4 -19.0 -4.8 -16.35 -37.0 -16.35 Q-41.3 -16.2 -43.2 -13.5 -44.5 -11.65 -44.5 -8.85 -44.5 -6.2 -43.2 -4.3 -41.3 -1.6 -37.0 -1.35 L179.5 -1.35 179.1 -1.05 Q175.65 1.6 170.5 3.25 152.45 8.95 147.05 12.45 L146.25 13.0 128.9 13.0 127.8 11.35 Q125.75 8.85 122.0 8.5 L-56.75 8.25 Q-59.25 6.5 -63.9 8.7 -67.9 10.65 -69.25 12.85 L-74.5 13.0 -83.7 13.0 -84.2 12.35 Q-86.3 9.85 -90.0 9.5 L-198.85 9.5 Q-204.0 10.75 -206.0 13.35 -207.35 15.1 -207.35 17.85 -207.35 19.5 -207.0 20.45 L-206.35 21.6 Q-205.6 22.8 -206.0 24.0 -206.35 24.9 -205.95 25.05 -205.25 25.35 -187.35 25.35 L-178.7 25.05 -171.6 24.6 -90.0 24.35 Q-85.8 23.5 -83.8 20.6 L-82.9 18.95 -81.3 18.95 -81.5 20.85 Q-81.5 23.65 -80.2 25.5 -78.35 28.2 -74.0 28.35 L-45.0 28.35 -45.0 29.0 Q-45.0 30.95 -45.65 32.65 L145.85 32.9 148.15 34.4 Q155.5 38.5 174.0 41.0 L265.8 41.0 266.0 43.0 265.85 45.0 -25.0 45.0 -25.0 45.25 -34.75 45.75 -87.0 46.0 -97.1 46.9 -106.5 47.75 -199.85 48.0 Q-205.45 49.0 -208.0 52.35 -209.85 54.8 -209.85 58.0 -209.85 60.9 -208.05 62.95 L-245.0 62.85 -245.05 62.75 Q-246.65 60.65 -246.8 57.8 L-242.7 57.1 -221.45 54.25 Q-210.95 52.75 -206.5 50.4 -201.5 47.8 -200.9 43.0 L-188.85 42.5 Q-188.8 40.8 -188.1 39.0 L-201.1 39.0 Q-201.5 37.2 -202.35 35.7 -204.85 31.4 -210.85 31.0 L-245.1 30.75 Q-243.2 24.85 -245.0 22.2 L-246.45 20.5 Q-241.25 14.2 -224.3 9.9 L-203.5 5.3 Q-194.15 3.3 -188.75 1.55 L-188.55 0.5 -227.85 0.0 Q-265.0 0.8 -279.1 -5.75 -285.25 -8.65 -287.1 -13.35 L-185.3 -13.35 -185.35 -11.35 Q-185.35 -5.7 -184.95 -4.5 -183.6 -0.45 -177.85 0.5 L-81.0 0.5 Q-62.95 0.65 -55.35 -4.95 -50.5 -8.5 -50.5 -13.75 -50.5 -18.0 -53.2 -20.4 L-45.65 -22.75 -41.6 -24.05 M195.85 -16.5 L201.0 -16.5 200.55 -16.35 195.95 -16.35 195.85 -16.5 M218.15 68.05 Q214.3 70.3 209.0 70.0 L175.0 70.25 157.75 71.25 Q162.65 72.25 165.2 76.45 167.0 79.45 167.0 82.5 167.0 87.0 163.9 90.25 160.3 94.1 150.5 98.6 L175.75 98.85 Q175.0 100.5 175.0 102.6 175.0 105.7 176.5 108.3 179.0 112.75 185.0 113.0 L191.75 113.05 Q190.7 117.6 185.6 119.75 L185.5 119.6 Q183.6 116.0 179.0 116.0 176.9 116.0 170.75 117.75 L125.75 117.5 Q121.8 112.25 113.9 112.5 110.15 112.65 102.75 114.75 L-190.85 115.0 -194.1 115.75 -236.6 115.85 -236.6 115.1 Q-236.6 114.8 -236.95 114.0 L4.0 114.0 Q22.3 113.85 29.7 109.5 35.0 106.4 35.0 100.75 35.0 94.85 30.65 91.85 L94.0 91.75 109.65 89.25 127.25 86.25 -21.15 86.15 -4.55 80.6 Q10.1 75.6 20.75 68.5 L218.15 68.05 M286.0 133.0 L295.0 133.0 Q300.6 134.1 303.15 137.35 305.0 139.75 305.0 143.0 305.0 145.9 303.2 147.8 301.8 149.3 298.25 151.05 285.9 157.0 281.25 160.5 284.15 162.05 285.25 165.3 286.0 167.5 286.0 171.0 286.0 178.65 277.95 184.15 L278.0 183.0 Q278.0 179.7 275.6 176.65 272.3 172.4 266.0 172.0 L238.5 171.75 Q243.45 170.35 245.6 166.85 247.0 164.6 247.0 162.0 247.0 158.35 244.05 155.1 240.35 150.9 234.0 151.0 L181.5 150.75 177.0 150.0 129.45 149.85 Q139.05 141.9 154.9 138.4 L169.7 135.8 169.5 137.35 169.6 138.6 Q169.8 140.0 170.5 141.15 172.6 144.85 178.5 144.85 L195.15 144.15 211.25 143.1 279.0 142.85 Q283.2 142.0 285.2 139.1 286.5 137.25 286.5 135.35 286.5 134.2 286.0 133.0 M256.25 192.9 L250.5 194.55 Q243.55 193.4 234.2 193.0 L256.25 192.9 M141.25 207.0 L103.55 207.2 Q110.8 206.95 114.7 203.15 118.0 199.95 118.0 196.0 118.0 192.8 116.1 190.35 L114.25 188.5 139.0 190.1 Q139.0 195.5 144.5 200.8 146.6 202.8 148.8 204.05 L146.75 205.75 Q143.65 206.05 141.25 207.0 M102.0 207.2 L28.75 207.5 28.95 207.95 29.0 209.75 Q29.0 211.25 28.65 212.6 L-203.6 212.35 Q-214.35 210.5 -214.35 219.75 -214.35 221.9 -213.75 223.25 L-220.35 223.25 -224.85 224.0 -294.85 224.0 Q-305.15 218.7 -307.8 216.25 -310.15 214.05 -310.65 210.6 L-177.85 210.6 Q-173.7 209.7 -171.7 206.9 L-171.2 206.15 -138.75 206.25 Q-137.25 206.9 -131.0 207.8 L-115.0 209.0 -108.0 208.55 Q-102.75 208.0 -101.75 207.5 L99.0 207.0 102.0 207.2 M-209.85 195.75 L-208.75 193.9 -208.85 195.6 -208.85 195.75 -209.85 195.75 M-36.75 185.9 Q-32.75 182.5 -30.35 181.1 -28.4 179.95 -26.1 179.0 L61.1 179.0 Q66.45 181.65 73.25 183.35 78.85 184.75 88.4 186.0 L-36.75 185.9 M-245.1 -106.25 L-244.8 -106.9 Q-245.15 -106.5 -245.6 -106.25 L-245.1 -106.25 M-186.15 80.9 Q-184.8 80.0 -183.8 78.75 -182.7 77.35 -182.2 75.7 L-182.1 76.25 Q-180.55 83.0 -172.35 83.0 -137.75 72.1 -127.75 68.5 L-31.5 68.25 Q-40.15 72.1 -56.95 76.2 L-81.25 82.0 -92.15 84.5 -100.35 86.05 -171.85 86.0 Q-181.3 85.8 -186.15 80.9 M-148.55 92.7 L-149.35 93.5 -223.65 93.9 -212.85 92.85 -148.55 92.7 M-181.85 68.5 L-182.25 70.25 Q-182.55 69.35 -183.0 68.55 L-181.85 68.5 M-284.65 157.95 Q-284.25 156.0 -283.0 154.35 -280.45 151.0 -274.85 150.0 L-221.35 150.0 Q-223.9 150.8 -226.6 152.0 L-236.35 156.5 -263.1 157.75 -284.65 157.95" fill="#292929" fill-rule="evenodd" stroke="none"/>
    <path d="M207.05 -217.15 L206.75 -217.55 Q204.55 -220.35 201.0 -220.5 L162.6 -220.5 161.9 -221.3 Q160.0 -223.75 160.0 -227.0 160.0 -233.55 168.05 -237.0 L173.05 -238.65 Q179.85 -240.3 214.0 -244.0 L286.0 -244.0 Q291.6 -243.05 294.15 -239.75 295.1 -238.5 295.6 -237.0 296.0 -235.6 296.0 -234.0 296.0 -232.2 291.85 -228.3 287.55 -224.25 281.3 -220.25 L275.45 -216.75 Q262.9 -210.0 253.0 -210.0 241.7 -210.0 238.95 -213.5 238.5 -214.1 238.15 -214.95 L237.8 -216.35 Q237.45 -218.05 237.0 -218.5 L220.2 -218.05 207.05 -217.15 M-242.15 -225.15 L-146.5 -225.5 Q-140.85 -229.25 -139.0 -229.0 L-32.0 -229.0 Q-11.45 -226.65 -5.0 -224.5 L-4.3 -224.25 Q2.65 -221.7 3.0 -215.45 L3.0 -215.0 3.0 -214.85 Q3.0 -211.45 0.5 -208.5 -2.45 -205.0 -7.0 -205.0 L-20.5 -206.05 -31.75 -208.75 -58.5 -208.5 Q-59.95 -207.4 -61.95 -206.3 -64.85 -204.75 -66.0 -205.0 L-202.1 -204.75 -214.1 -203.5 -213.2 -201.25 Q-212.85 -199.95 -212.85 -198.25 -212.85 -196.7 -213.5 -195.0 -214.1 -193.35 -215.35 -191.5 L-175.85 -191.0 Q-173.25 -191.5 -169.95 -188.55 -167.4 -186.35 -166.35 -184.25 L-102.0 -184.0 Q-87.7 -178.65 -86.6 -178.0 -84.55 -176.85 -83.4 -175.15 -82.0 -173.0 -82.0 -170.0 -82.0 -166.75 -83.9 -164.3 -86.45 -161.05 -92.0 -160.0 L-211.1 -159.75 -214.85 -159.0 -249.25 -158.55 -255.6 -158.5 -257.65 -157.55 Q-259.25 -157.0 -260.85 -157.0 -262.5 -157.0 -264.1 -157.6 L-266.6 -158.75 -325.0 -158.95 -325.0 -194.2 -322.85 -195.25 -325.0 -195.9 -325.0 -224.0 -286.6 -224.25 -282.85 -225.0 -242.15 -225.15 M317.15 -52.0 L317.15 -31.6 307.25 -31.5 307.7 -30.45 308.0 -28.1 Q308.0 -24.05 306.55 -21.95 L305.95 -21.3 Q304.15 -19.55 299.15 -18.75 L286.4 -17.2 281.2 -16.4 Q273.85 -15.25 266.75 -13.5 L244.9 -8.9 Q232.6 -6.35 223.75 -3.25 L264.0 -3.0 Q269.5 -2.0 272.1 1.35 274.0 3.8 274.0 7.0 274.0 9.25 273.0 11.15 272.05 12.9 270.2 14.3 263.5 19.5 247.0 18.0 L213.75 18.25 203.2 19.2 184.0 20.5 276.25 20.75 282.55 19.7 289.0 19.0 Q297.5 19.0 300.55 23.75 302.0 26.0 302.0 29.0 302.0 33.95 298.05 36.75 292.55 40.55 279.0 41.0 L265.8 41.0 174.0 41.0 Q155.5 38.5 148.15 34.4 L145.85 32.9 Q141.0 29.1 141.0 23.0 141.0 16.8 146.25 13.0 L147.05 12.45 Q152.45 8.95 170.5 3.25 175.65 1.6 179.1 -1.05 L179.5 -1.35 211.0 -1.35 Q215.2 -2.3 217.2 -5.15 218.5 -7.05 218.5 -8.85 218.5 -11.3 216.75 -13.5 214.6 -16.2 211.0 -16.35 L200.55 -16.35 201.0 -16.5 195.85 -16.5 115.0 -17.0 107.8 -17.85 99.25 -18.75 2.4 -19.0 -1.0 -19.0 Q-32.75 -21.25 -41.45 -24.0 L-41.6 -24.05 Q-46.5 -25.65 -48.35 -28.1 -50.0 -30.3 -50.0 -34.35 -50.0 -39.3 -47.7 -41.7 L-47.4 -42.0 -81.65 -42.0 -299.85 -42.0 Q-305.5 -43.0 -308.05 -46.35 -309.85 -48.75 -309.85 -52.0 -309.85 -55.4 -308.05 -57.75 L-306.2 -59.5 Q-304.65 -60.7 -302.4 -61.35 L-299.85 -62.0 -192.85 -62.5 Q-193.25 -64.55 -192.4 -67.05 -191.6 -69.5 -190.1 -70.75 -203.7 -69.5 -210.95 -72.1 -210.35 -73.4 -210.35 -74.6 -210.35 -76.95 -212.15 -79.2 -214.3 -81.95 -217.85 -82.1 L-218.85 -82.1 Q-218.8 -89.95 -208.35 -93.05 L-208.35 -92.85 Q-208.35 -90.15 -207.5 -88.8 -205.9 -86.15 -200.85 -85.1 L-83.0 -85.1 Q-78.85 -86.05 -76.85 -88.85 -75.5 -90.7 -75.5 -92.5 -75.5 -94.5 -76.75 -96.4 L-74.0 -96.0 85.0 -96.0 Q88.65 -96.75 90.65 -99.0 L108.9 -99.0 118.7 -99.0 135.0 -99.0 Q138.4 -98.45 140.75 -97.25 L183.0 -97.0 Q186.75 -96.8 189.2 -95.0 L190.55 -93.7 Q190.7 -91.45 191.8 -89.85 L192.8 -88.75 193.0 -86.25 Q193.0 -79.3 185.55 -76.3 179.05 -73.65 161.0 -72.0 L62.0 -72.0 57.3 -73.3 Q54.3 -74.15 53.0 -74.0 L26.0 -74.0 Q22.4 -74.6 19.25 -76.5 L-24.35 -76.5 -63.25 -76.5 Q-63.85 -74.65 -66.0 -73.0 -68.7 -70.9 -72.0 -71.0 L-100.25 -70.75 Q-104.75 -69.55 -127.55 -66.6 L-151.6 -63.25 -145.0 -62.25 -8.0 -62.0 Q-2.45 -61.0 0.1 -57.75 2.0 -55.3 2.0 -52.0 2.0 -49.7 1.0 -47.75 L0.1 -46.35 -0.1 -46.05 8.0 -46.1 155.75 -46.5 Q158.7 -47.95 167.05 -50.0 L176.0 -52.0 314.0 -52.0 317.15 -52.0 M317.15 91.95 L317.15 113.15 282.5 113.5 Q281.7 113.95 281.25 114.85 280.85 115.6 280.1 115.95 277.7 117.0 265.0 117.0 252.55 117.0 249.5 115.9 248.35 115.5 247.9 114.7 L247.25 113.25 191.75 113.05 185.0 113.0 Q179.0 112.75 176.5 108.3 175.0 105.7 175.0 102.6 175.0 100.5 175.75 98.85 177.25 95.35 181.95 93.6 L187.6 91.65 Q190.7 90.5 192.0 88.75 196.3 82.95 199.55 80.9 205.8 77.0 218.0 76.25 L218.0 76.0 293.0 76.0 Q297.2 75.85 300.15 79.55 301.9 81.75 302.75 84.5 303.6 87.3 306.4 88.95 309.2 90.65 309.75 92.5 L317.15 91.95 M-325.0 179.0 L-325.0 158.95 -294.85 158.75 -290.85 158.0 -284.65 157.95 -263.1 157.75 -236.35 156.5 -226.6 152.0 Q-223.9 150.8 -221.35 150.0 L-218.85 149.3 Q-211.95 147.6 -183.85 145.0 L-64.75 144.5 Q-61.05 142.65 -59.2 142.3 L-55.5 142.6 Q-47.5 144.7 -38.25 144.75 L0.0 145.0 Q4.5 146.0 6.95 148.0 L45.0 148.0 49.0 148.75 108.0 149.0 113.25 149.75 129.45 149.85 177.0 150.0 181.5 150.75 234.0 151.0 Q240.35 150.9 244.05 155.1 247.0 158.35 247.0 162.0 247.0 164.6 245.6 166.85 243.45 170.35 238.5 171.75 L266.0 172.0 Q272.3 172.4 275.6 176.65 278.0 179.7 278.0 183.0 L277.95 184.15 Q277.6 186.85 275.7 189.1 273.0 192.35 268.0 192.85 L256.25 192.9 234.2 193.0 Q243.55 193.4 250.5 194.55 260.15 196.1 265.25 199.1 265.9 199.5 267.2 202.1 268.4 204.65 269.5 205.1 L275.1 204.65 280.5 203.85 Q287.6 203.85 290.45 208.65 292.0 211.15 292.0 213.85 292.0 219.45 286.95 222.2 281.05 225.35 265.0 226.85 L144.0 226.85 Q138.45 225.85 135.9 222.55 134.0 220.1 134.0 216.85 133.9 213.1 136.7 210.05 138.5 208.1 141.25 207.0 143.65 206.05 146.75 205.75 149.5 205.45 152.8 205.7 150.75 205.15 148.8 204.05 146.6 202.8 144.5 200.8 139.0 195.5 139.0 190.1 L114.25 188.5 116.1 190.35 Q118.0 192.8 118.0 196.0 118.0 199.95 114.7 203.15 110.8 206.95 103.55 207.2 L102.0 207.2 99.0 207.0 -101.75 207.5 Q-102.75 208.0 -108.0 208.55 L-115.0 209.0 -131.0 207.8 Q-137.25 206.9 -138.75 206.25 L-171.2 206.15 Q-170.35 204.6 -170.35 203.1 -170.35 200.7 -172.15 198.5 -174.3 195.75 -177.85 195.75 L-208.85 195.75 -208.85 195.6 -208.75 193.9 Q-208.25 189.35 -204.85 187.25 -197.85 182.85 -178.1 185.75 L-36.75 185.9 88.4 186.0 Q78.85 184.75 73.25 183.35 66.45 181.65 61.1 179.0 L-26.1 179.0 -325.0 179.0 M-325.0 87.9 L-325.0 66.6 Q-321.4 65.1 -315.35 61.25 -304.65 54.35 -297.6 51.5 L-296.35 51.25 Q-313.75 49.45 -320.25 45.9 -323.65 44.0 -325.0 40.95 L-325.0 31.85 -323.7 29.75 Q-320.5 25.95 -311.35 23.25 L-308.6 22.25 Q-318.7 22.5 -322.65 18.15 -324.85 15.7 -324.85 12.0 -324.85 5.0 -317.6 1.85 -309.45 -1.75 -295.35 1.5 L-255.85 2.0 Q-245.45 7.7 -245.35 10.15 -245.35 10.7 -246.35 13.1 -247.35 15.5 -247.35 18.0 -247.35 19.3 -246.55 20.4 L-246.45 20.5 -245.0 22.2 Q-243.2 24.85 -245.1 30.75 L-210.85 31.0 Q-204.85 31.4 -202.35 35.7 -201.5 37.2 -201.1 39.0 -200.85 40.3 -200.85 41.75 L-200.9 43.0 Q-201.5 47.8 -206.5 50.4 -210.95 52.75 -221.45 54.25 L-242.7 57.1 -246.8 57.8 Q-258.2 59.8 -267.1 62.75 L-245.0 62.85 -208.05 62.95 Q-209.85 60.9 -209.85 58.0 -209.85 54.8 -208.0 52.35 -205.45 49.0 -199.85 48.0 L-106.5 47.75 -97.1 46.9 -87.0 46.0 -34.75 45.75 -25.0 45.25 -25.0 45.0 265.85 45.0 266.0 45.0 Q271.55 45.5 274.65 49.65 277.0 52.85 277.0 56.1 277.0 60.15 273.6 63.35 269.6 67.05 263.0 67.0 L235.0 67.25 231.0 68.0 218.15 68.05 20.75 68.5 Q10.1 75.6 -4.55 80.6 L-21.15 86.15 -29.25 88.75 22.0 89.0 Q27.5 89.65 30.65 91.85 35.0 94.85 35.0 100.75 35.0 106.4 29.7 109.5 22.3 113.85 4.0 114.0 L-236.95 114.0 -241.85 114.0 Q-247.45 113.05 -250.0 109.75 -251.85 107.3 -251.85 104.0 -251.85 100.7 -250.0 98.35 -247.5 95.05 -241.85 94.0 L-223.65 93.9 -149.35 93.5 -148.55 92.7 Q-143.25 87.95 -125.5 87.05 -105.75 87.05 -102.75 86.5 L-100.35 86.05 -92.15 84.5 -81.25 82.0 -56.95 76.2 Q-40.15 72.1 -31.5 68.25 L-127.75 68.5 Q-137.75 72.1 -172.35 83.0 -180.55 83.0 -182.1 76.25 L-182.2 75.7 Q-182.7 77.35 -183.8 78.75 -184.8 80.0 -186.15 80.9 -188.45 82.4 -191.85 83.0 L-291.85 83.25 -318.0 86.95 -325.0 87.9 M165.9 -124.0 L126.0 -124.0 Q120.65 -123.6 117.9 -127.9 116.0 -130.9 116.0 -134.0 116.0 -136.25 117.15 -138.5 118.4 -140.95 120.75 -142.75 L98.1 -142.9 81.0 -143.0 77.25 -143.75 -38.0 -144.0 Q-43.6 -145.0 -46.15 -148.35 -48.0 -150.8 -48.0 -154.0 -48.0 -157.35 -46.15 -159.75 -43.6 -163.0 -38.0 -164.0 L-10.0 -164.25 -6.0 -165.0 62.0 -165.25 74.75 -166.75 -11.0 -167.0 Q-16.6 -168.0 -19.15 -171.35 -20.45 -173.1 -20.85 -175.2 L-21.0 -177.0 Q-21.0 -180.3 -19.15 -182.75 -16.6 -186.05 -11.0 -187.0 L198.0 -187.0 Q203.55 -186.5 206.7 -183.3 207.0 -181.85 207.8 -180.65 208.45 -179.7 209.4 -179.05 210.0 -177.35 210.0 -175.5 210.0 -173.4 208.9 -170.95 207.8 -168.4 206.25 -167.25 241.2 -163.6 245.4 -162.55 250.05 -161.45 251.6 -159.5 252.65 -158.25 252.9 -155.85 L253.0 -154.0 Q253.0 -150.2 250.4 -147.5 245.2 -142.15 231.5 -143.5 216.15 -134.55 204.2 -130.35 192.9 -126.4 177.0 -124.0 L165.9 -124.0 M-181.85 68.5 L-183.0 68.55 Q-182.55 69.35 -182.25 70.25 L-181.85 68.5" fill="#2e2e2e" fill-rule="evenodd" stroke="none"/>
    <path d="M162.6 -220.5 L201.0 -220.5 Q204.55 -220.35 206.75 -217.55 L207.05 -217.15 208.25 -214.85 208.5 -213.1 Q208.5 -211.25 207.2 -209.35 205.2 -206.5 201.0 -205.6 L143.55 -205.3 138.4 -205.25 104.5 -205.1 Q104.75 -200.95 102.35 -196.75 99.25 -191.25 93.0 -189.6 L-32.0 -189.6 Q-41.0 -191.4 -43.95 -193.5 L-45.4 -195.0 Q-46.5 -196.7 -46.5 -199.25 -46.5 -203.85 -42.1 -205.8 -37.15 -208.0 -29.75 -204.85 L66.5 -205.1 65.7 -206.95 65.5 -209.6 Q65.5 -215.3 71.4 -217.0 75.7 -218.2 93.0 -220.5 L162.6 -220.5 M-325.0 -86.75 Q-329.35 -88.6 -329.35 -93.5 -329.35 -96.3 -328.1 -98.15 -327.0 -99.75 -325.0 -100.45 L-321.85 -101.0 -259.85 -101.0 Q-255.65 -100.0 -253.7 -97.3 -252.35 -95.35 -252.35 -93.1 -252.35 -85.9 -263.35 -82.35 L-218.85 -82.1 -217.85 -82.1 Q-214.3 -81.95 -212.15 -79.2 -210.35 -76.95 -210.35 -74.6 -210.35 -73.4 -210.95 -72.1 L-211.7 -70.85 Q-213.75 -68.0 -217.85 -67.1 L-304.8 -67.1 -306.85 -67.1 Q-312.3 -69.1 -315.55 -73.05 -318.35 -76.45 -318.35 -79.5 -318.35 -81.05 -317.8 -82.5 -317.0 -84.55 -315.35 -85.6 L-314.85 -85.85 Q-321.4 -85.25 -325.0 -86.75 M71.8 -138.85 L82.0 -138.85 Q85.6 -138.7 87.75 -135.95 89.5 -133.75 89.5 -131.35 89.5 -129.45 88.2 -127.6 86.2 -124.7 82.0 -124.0 L-110.5 -123.5 Q-115.15 -121.8 -122.05 -116.6 L-122.15 -116.55 -123.65 -115.45 Q-128.45 -112.35 -133.0 -112.0 L-227.6 -111.75 -232.7 -110.7 -238.35 -110.0 -242.0 -110.45 -243.15 -110.85 Q-245.25 -111.75 -246.35 -113.6 -247.45 -115.4 -247.35 -117.5 -247.35 -120.15 -245.75 -122.0 L-314.65 -122.0 -315.85 -122.0 Q-320.85 -124.05 -322.1 -125.25 -323.35 -126.5 -323.35 -129.35 -323.35 -132.2 -322.1 -133.55 -320.65 -135.05 -315.85 -136.85 L-244.85 -136.85 Q-241.3 -136.7 -239.15 -133.95 -237.35 -131.7 -237.35 -129.35 -237.35 -127.5 -238.7 -125.65 L-238.7 -125.6 Q-235.05 -126.55 -229.85 -126.85 L-136.25 -127.1 Q-133.4 -127.75 -125.2 -133.5 -117.7 -138.7 -113.0 -138.85 L71.8 -138.85 M-208.35 -93.05 Q-208.25 -102.3 -197.6 -100.25 L-83.0 -100.0 -80.6 -99.55 Q-81.5 -101.2 -81.5 -103.5 -81.5 -106.25 -80.2 -108.1 -78.35 -110.85 -74.0 -111.0 L85.0 -111.0 Q88.6 -110.85 90.75 -108.1 92.5 -105.9 92.5 -103.5 92.5 -101.6 91.2 -99.75 L90.65 -99.0 Q88.65 -96.75 85.0 -96.0 L-74.0 -96.0 -76.75 -96.4 Q-75.5 -94.5 -75.5 -92.5 -75.5 -90.7 -76.85 -88.85 -78.85 -86.05 -83.0 -85.1 L-200.85 -85.1 Q-205.9 -86.15 -207.5 -88.8 -208.35 -90.15 -208.35 -92.85 L-208.35 -93.05 M190.55 -95.0 Q190.8 -100.7 198.0 -102.0 L255.75 -102.25 Q257.05 -102.85 263.9 -103.8 L267.55 -104.3 Q267.65 -105.4 267.9 -106.2 L265.65 -106.85 259.9 -108.8 Q249.6 -112.4 246.25 -113.0 229.75 -116.0 224.9 -118.5 L222.9 -120.0 Q221.5 -121.55 221.5 -123.85 221.5 -133.05 232.25 -131.1 L270.0 -130.85 Q273.85 -129.75 275.7 -128.05 L298.25 -128.35 Q308.6 -130.95 313.3 -127.6 316.5 -125.3 316.5 -121.0 316.5 -117.8 314.75 -115.75 313.35 -114.05 309.9 -112.3 L302.45 -108.75 300.6 -107.75 Q301.5 -106.05 301.5 -104.0 301.5 -101.8 300.7 -100.05 303.95 -99.0 307.55 -98.1 312.5 -96.35 312.5 -91.5 312.5 -89.0 311.05 -87.15 308.65 -84.1 303.0 -84.1 290.35 -84.1 279.25 -91.2 L275.9 -90.6 257.0 -87.1 198.0 -87.1 Q194.65 -87.1 192.8 -88.75 L191.8 -89.85 Q190.7 -91.45 190.55 -93.7 L190.5 -94.5 190.55 -95.0 M209.4 -179.05 Q208.45 -179.7 207.8 -180.65 207.0 -181.85 206.7 -183.3 L206.5 -185.25 Q206.5 -187.55 207.4 -188.9 209.05 -191.55 214.0 -192.6 L296.75 -192.85 Q303.7 -194.45 307.05 -191.6 309.5 -189.6 309.5 -186.25 309.5 -183.7 307.65 -181.7 305.25 -179.1 300.0 -177.75 L295.25 -177.75 214.0 -177.75 Q211.2 -177.85 209.4 -179.05 M200.55 -16.35 L211.0 -16.35 Q214.6 -16.2 216.75 -13.5 218.5 -11.3 218.5 -8.85 218.5 -7.05 217.2 -5.15 215.2 -2.3 211.0 -1.35 L179.5 -1.35 -37.0 -1.35 Q-41.3 -1.6 -43.2 -4.3 -44.5 -6.2 -44.5 -8.85 -44.5 -11.65 -43.2 -13.5 -41.3 -16.2 -37.0 -16.35 L-4.8 -16.35 195.95 -16.35 200.55 -16.35 M185.6 119.75 Q186.45 121.5 186.5 123.5 186.5 126.35 184.7 128.55 193.95 127.45 209.0 128.0 L279.0 128.0 Q282.6 128.15 284.75 130.95 L286.0 133.0 Q286.5 134.2 286.5 135.35 286.5 137.25 285.2 139.1 283.2 142.0 279.0 142.85 L211.25 143.1 195.15 144.15 178.5 144.85 Q172.6 144.85 170.5 141.15 169.8 140.0 169.6 138.6 L169.5 137.35 169.7 135.8 Q170.05 134.2 171.2 133.0 L40.0 133.0 Q35.1 131.1 34.25 130.25 L-160.75 130.25 Q-161.45 130.6 -163.85 131.0 L-297.6 131.25 Q-299.1 132.0 -302.35 132.0 -308.2 132.0 -310.35 128.25 -311.45 126.4 -311.35 124.5 -311.35 121.7 -310.05 119.95 -308.1 117.35 -302.85 116.0 L-236.6 115.85 -194.1 115.75 -190.85 115.0 102.75 114.75 Q110.15 112.65 113.9 112.5 121.8 112.25 125.75 117.5 L170.75 117.75 Q176.9 116.0 179.0 116.0 183.6 116.0 185.5 119.6 L185.6 119.75 M28.65 212.6 L58.0 212.6 Q61.6 212.75 63.75 215.5 65.5 217.7 65.5 220.1 65.5 221.85 64.2 223.75 62.2 226.7 58.0 227.5 L-206.85 227.5 Q-211.85 226.6 -213.5 223.8 L-213.75 223.25 Q-214.35 221.9 -214.35 219.75 -214.35 210.5 -203.6 212.35 L28.65 212.6 M-310.65 210.6 L-312.85 210.6 Q-317.25 210.45 -319.1 207.75 -320.35 205.95 -320.35 203.1 -320.35 200.3 -319.1 198.5 -317.2 195.75 -312.85 195.75 L-209.85 195.75 -208.85 195.75 -177.85 195.75 Q-174.3 195.75 -172.15 198.5 -170.35 200.7 -170.35 203.1 -170.35 204.6 -171.2 206.15 L-171.7 206.9 Q-173.7 209.7 -177.85 210.6 L-310.65 210.6 M128.9 13.0 Q129.5 14.35 129.5 15.85 129.5 22.1 121.25 24.7 116.1 26.3 98.0 28.35 L-45.0 28.35 -74.0 28.35 Q-78.35 28.2 -80.2 25.5 -81.5 23.65 -81.5 20.85 L-81.3 18.95 Q-80.95 17.2 -79.9 15.9 -78.1 13.65 -74.5 13.0 L-69.25 12.85 Q-67.9 10.65 -63.9 8.7 -59.25 6.5 -56.75 8.25 L122.0 8.5 Q125.75 8.85 127.8 11.35 L128.9 13.0 M-287.1 -13.35 L-306.85 -13.35 Q-311.25 -13.6 -313.1 -16.3 -314.35 -18.15 -314.35 -20.85 -314.35 -27.8 -306.85 -28.25 L-280.85 -28.25 -109.0 -28.25 -107.5 -28.05 Q-104.85 -27.45 -103.2 -25.45 -102.4 -24.45 -101.95 -23.35 L-68.0 -23.35 Q-57.35 -24.15 -53.2 -20.4 -50.5 -18.0 -50.5 -13.75 -50.5 -8.5 -55.35 -4.95 -62.95 0.65 -81.0 0.5 L-177.85 0.5 Q-183.6 -0.45 -184.95 -4.5 -185.35 -5.7 -185.35 -11.35 L-185.3 -13.35 -287.1 -13.35 M-83.7 13.0 Q-82.5 14.8 -82.5 16.85 -82.5 17.9 -82.9 18.95 L-83.8 20.6 Q-85.8 23.5 -90.0 24.35 L-171.6 24.6 -178.7 25.05 -187.35 25.35 Q-205.25 25.35 -205.95 25.05 -206.35 24.9 -206.0 24.0 -205.6 22.8 -206.35 21.6 L-207.0 20.45 Q-207.35 19.5 -207.35 17.85 -207.35 15.1 -206.0 13.35 -204.0 10.75 -198.85 9.5 L-90.0 9.5 Q-86.3 9.85 -84.2 12.35 L-83.7 13.0" fill="#2d2d2d" fill-rule="evenodd" stroke="none"/>
  </g>
</svg>
