<?xml version="1.0" encoding="UTF-8" standalone="no"?>
<svg xmlns:ffdec="https://www.free-decompiler.com/flash" xmlns:xlink="http://www.w3.org/1999/xlink" ffdec:objectType="shape" height="51.7px" width="48.7px" xmlns="http://www.w3.org/2000/svg">
  <g transform="matrix(1.0, 0.0, 0.0, 1.0, 23.2, 33.7)">
    <path d="M10.6 7.35 L9.1 8.25 Q6.9 9.75 2.7 9.75 L-0.6 10.15 -2.25 10.5 -8.85 10.05 -9.8 9.75 -11.0 9.35 Q-11.0 7.8 -11.15 7.45 -11.55 6.65 -12.5 6.3 -9.65 6.35 -8.9 6.9 -8.15 7.45 -7.65 7.35 L-5.05 7.25 -2.25 7.3 -0.65 8.1 Q0.7 8.1 2.05 6.95 3.45 5.75 4.6 5.75 5.95 5.75 6.6 6.5 L7.75 6.4 Q9.7 6.5 10.6 7.35 M-15.1 6.0 L-20.35 5.85 -18.95 4.0 Q-16.6 1.65 -15.1 6.0" fill="#000000" fill-opacity="0.41568628" fill-rule="evenodd" stroke="none"/>
    <path d="M10.6 7.35 Q11.6 6.75 12.0 6.75 13.55 6.75 14.2 8.1 L14.5 9.5 Q14.5 10.85 13.85 12.25 L13.45 12.95 13.1 12.15 Q12.3 11.0 10.35 11.0 8.0 11.0 2.3 12.75 L-6.75 11.5 Q-12.45 10.35 -15.25 10.6 -17.05 7.4 -19.6 8.45 -21.2 9.1 -21.7 10.25 L-21.75 9.3 Q-21.75 6.1 -20.6 5.85 L-20.35 5.85 -15.1 6.0 -14.75 6.0 -12.5 6.3 Q-11.55 6.65 -11.15 7.45 -11.0 7.8 -11.0 9.35 L-9.8 9.75 -8.85 10.05 -2.25 10.5 -0.6 10.15 2.7 9.75 Q6.9 9.75 9.1 8.25 L10.6 7.35" fill="#000000" fill-opacity="0.14509805" fill-rule="evenodd" stroke="none"/>
    <path d="M-21.7 10.25 Q-21.2 9.1 -19.6 8.45 -17.05 7.4 -15.25 10.6 -12.45 10.35 -6.75 11.5 L2.3 12.75 Q8.0 11.0 10.35 11.0 12.3 11.0 13.1 12.15 L13.45 12.95 13.5 13.4 Q13.5 14.2 12.95 14.95 12.1 16.0 10.4 16.05 L6.05 17.05 2.25 18.0 -6.35 16.95 -11.9 15.8 Q-22.0 15.35 -22.0 11.55 L-21.7 10.25" fill="#000000" fill-opacity="0.05882353" fill-rule="evenodd" stroke="none"/>
    <path d="M12.55 5.5 Q12.55 5.75 7.35 8.05 L5.4 7.9 3.75 7.5 Q4.3 8.35 4.3 8.75 L4.05 10.6 Q3.7 12.05 3.1 12.05 2.2 12.05 0.9 10.9 -0.45 9.75 -0.85 9.75 L-2.05 11.5 -2.65 11.9 -3.05 12.7 Q-3.45 13.15 -3.45 13.9 L-3.6 13.75 -3.6 14.0 Q-3.6 14.75 -4.65 15.1 -4.3 15.65 -4.5 16.5 L-5.5 16.55 -6.5 16.5 -6.6 15.9 Q-6.6 14.9 -6.0 14.25 -5.5 13.7 -4.65 13.55 -4.7 13.2 -4.35 12.6 L-4.75 12.4 -4.35 11.95 -3.6 11.05 -3.55 11.05 Q-2.95 11.05 -2.35 9.55 L-1.95 8.8 -2.5 8.25 -2.6 7.9 Q-1.4 6.2 0.35 6.0 L-1.1 3.75 -1.0 3.25 Q0.35 3.15 2.4 5.7 L2.7 6.05 4.25 5.8 Q5.5 5.8 6.15 6.3 L7.3 6.75 8.6 6.15 10.65 5.0 9.75 4.35 8.75 4.3 8.05 3.55 Q8.05 2.25 10.3 3.45 12.55 4.65 12.55 5.5 M1.55 7.15 Q1.55 8.6 1.0 9.05 L2.75 10.3 3.0 8.75 Q3.0 8.35 2.1 7.6 L1.55 7.15 M-6.8 4.45 Q-6.65 5.55 -6.85 6.8 -6.85 7.75 -7.2 8.15 L-6.8 8.35 -6.15 8.7 -6.85 7.1 Q-6.75 6.8 -6.1 6.8 -4.6 6.8 -4.45 8.45 L-4.45 9.15 -5.35 9.45 Q-6.05 9.8 -6.45 10.25 L-8.3 8.8 -9.75 9.3 -11.2 10.4 Q-12.4 11.3 -12.85 11.3 L-13.8 11.25 -13.85 10.55 -13.6 9.85 -13.35 9.3 Q-14.2 8.75 -16.8 7.95 -18.9 7.1 -18.6 5.85 L-18.0 5.55 -14.65 7.0 Q-12.15 8.05 -12.1 9.3 L-9.6 7.7 -8.1 6.85 -8.6 2.8 -8.5 2.25 Q-7.05 2.3 -6.8 4.45" fill="#000000" fill-rule="evenodd" stroke="none"/>
    <path d="M11.6 -2.3 Q12.6 -3.45 13.35 -2.1 L13.7 1.0 13.05 2.6 Q12.85 7.35 9.0 8.5 L2.85 8.7 1.1 9.65 0.15 10.15 -1.05 10.4 -2.0 10.4 -2.75 10.4 Q-5.85 10.4 -7.2 9.65 L-9.3 8.4 Q-11.6 9.0 -14.6 6.65 -16.5 5.2 -17.95 3.4 -18.85 2.3 -18.85 1.0 L-18.75 0.3 -18.55 -1.25 -19.05 -1.65 -19.5 -2.3 Q-20.45 -2.95 -20.45 -3.55 -20.45 -4.6 -19.45 -4.7 -18.25 -4.8 -16.65 -3.65 L-16.45 -3.45 -15.55 -3.35 -12.3 -2.8 Q-10.85 -2.65 -10.85 -1.65 -10.85 -0.45 -13.65 0.0 L-15.65 0.8 -16.25 1.05 Q-16.05 2.55 -14.7 3.5 -13.35 4.15 -12.45 4.75 L-11.8 4.65 Q-11.3 4.65 -10.65 5.3 L-9.95 5.35 -9.85 4.75 Q-10.9 4.75 -11.75 3.9 -12.55 3.25 -12.55 2.75 -12.55 1.7 -11.1 0.6 -9.55 -0.45 -8.4 0.45 L-7.8 1.2 -7.35 2.25 Q-7.05 2.75 -7.05 3.9 L-3.5 4.1 -3.0 4.55 -1.45 4.35 -0.6 4.0 -0.8 2.55 Q-0.8 1.4 -0.6 1.1 -0.2 0.55 1.4 0.55 L1.4 0.45 1.9 0.45 2.2 0.45 3.65 0.6 Q5.75 1.0 5.75 2.65 5.75 4.0 4.15 4.0 3.15 4.0 2.9 3.0 L1.9 3.0 Q2.9 4.65 2.9 5.05 L2.85 5.6 5.65 4.35 8.5 2.55 9.4 1.65 Q9.95 1.15 10.75 1.05 10.75 0.7 10.9 0.5 L10.65 -0.4 Q10.65 -1.25 11.6 -2.3 M0.95 6.45 L-0.1 6.7 Q-0.6 6.75 -2.15 7.45 L-2.55 7.6 -1.9 7.75 -1.6 7.9 -0.8 7.75 0.15 7.05 0.95 6.45 M-5.3 6.5 L-5.65 6.55 -5.05 7.1 -5.3 6.5" fill="#000000" fill-opacity="0.41568628" fill-rule="evenodd" stroke="none"/>
    <path d="M-11.5 -22.15 L-10.2 -22.75 Q-9.3 -22.35 -8.9 -21.95 L-6.0 -19.1 -4.2 -17.25 0.65 -11.65 2.15 -10.1 2.35 -10.0 0.9 -7.0 -2.05 -1.15 -2.3 -1.8 -2.35 -2.3 Q-3.15 -3.45 -4.55 -3.2 L-4.8 -3.2 -5.95 -3.35 -16.8 -13.95 -11.5 -22.15 M-17.5 -5.75 L-18.85 -5.95 -19.9 -6.35 -22.7 -19.75 -22.3 -19.75 -18.35 -11.35 -17.5 -5.75 M0.9 -7.0 L-2.3 -1.8 0.9 -7.0" fill="#999999" fill-rule="evenodd" stroke="none"/>
    <path d="M-22.3 -19.75 Q-18.85 -19.75 -15.65 -21.0 L-14.5 -21.35 -11.5 -22.15 -16.8 -13.95 -18.35 -11.35 -22.3 -19.75" fill="#ffffff" fill-rule="evenodd" stroke="none"/>
    <path d="M-5.95 -3.35 L-11.8 -4.35 Q-13.35 -5.2 -17.4 -5.75 L-17.5 -5.75 -18.35 -11.35 -16.8 -13.95 -5.95 -3.35" fill="#cccccc" fill-rule="evenodd" stroke="none"/>
    <path d="M-18.85 -5.95 L-19.9 -6.35 -22.7 -19.75 M-11.5 -22.15 L-16.8 -13.95 -5.95 -3.35 M-17.5 -5.75 L-18.35 -11.35 -22.3 -19.75 M-18.35 -11.35 L-16.8 -13.95 M-2.3 -1.8 L0.9 -7.0" fill="none" stroke="#000000" stroke-linecap="round" stroke-linejoin="round" stroke-width="1.0"/>
    <path d="M-7.65 -1.55 L-13.0 5.8 Q-16.05 5.8 -18.35 1.75 -18.35 0.9 -13.85 -1.15 L-10.95 -2.4 -11.1 -2.3 Q-13.1 -0.8 -13.1 0.15 L-13.05 0.6 -12.85 0.75 -12.35 0.8 -11.3 0.2 -10.4 -0.4 Q-9.3 -0.4 -8.45 -1.15 -7.6 -1.95 -7.6 -3.05 L-7.5 -3.05 Q-7.25 -2.95 -7.25 -2.3 L-7.65 -1.55 M-14.65 1.9 L-14.9 1.95 -14.7 2.05 -14.65 1.9" fill="#999999" fill-rule="evenodd" stroke="none"/>
    <path d="M-7.65 -1.55 L-7.25 -2.3 Q-7.1 -2.5 -6.8 -2.5 -5.85 -2.5 -4.8 0.0 L-2.45 2.8 Q-0.55 5.0 -0.55 5.7 -0.55 6.5 -2.85 7.75 L-5.25 7.75 Q-6.1 7.15 -7.0 3.7 -7.8 0.7 -7.8 -0.55 L-7.65 -1.55" fill="#ffffff" fill-rule="evenodd" stroke="none"/>
    <path d="M-7.6 -3.05 Q-7.6 -1.95 -8.45 -1.15 -9.3 -0.4 -10.4 -0.4 L-11.3 0.2 -12.35 0.8 -12.85 0.75 -13.05 0.6 -13.1 0.15 Q-13.1 -0.8 -11.1 -2.3 L-10.95 -2.4 -8.25 -4.1 -7.75 -3.75 Q-7.6 -3.55 -7.6 -3.15 L-7.6 -3.05" fill="#000000" fill-opacity="0.41568628" fill-rule="evenodd" stroke="none"/>
    <path d="M-2.65 -24.95 L8.1 -10.85 -0.15 2.25 -4.1 -1.55 -4.1 -9.65 -3.8 -13.45 -4.1 -9.65 -4.1 -13.45 -3.8 -13.45 -2.65 -24.95" fill="#999999" fill-rule="evenodd" stroke="none"/>
    <path d="M8.1 -10.85 L25.0 -13.75 6.0 4.55 -0.15 2.25 8.1 -10.85" fill="#ffffff" fill-rule="evenodd" stroke="none"/>
    <path d="M8.1 -10.85 L16.6 -33.2 25.0 -13.75 8.1 -10.85" fill="#666666" fill-rule="evenodd" stroke="none"/>
    <path d="M16.6 -33.2 L8.1 -10.85 -2.65 -24.95 16.6 -33.2" fill="#cccccc" fill-rule="evenodd" stroke="none"/>
    <path d="M16.6 -33.2 L8.1 -10.85 25.0 -13.75 16.6 -33.2 -2.65 -24.95 8.1 -10.85 -0.15 2.25 6.0 4.55 25.0 -13.75 M-3.8 -13.45 L-4.1 -9.65 M-4.1 -1.55 L-0.15 2.25 M-4.1 -13.45 L-3.8 -13.45 -2.65 -24.95" fill="none" stroke="#000000" stroke-linecap="round" stroke-linejoin="round" stroke-width="1.0"/>
    <path d="M-13.45 -3.9 L-12.85 -3.15 -12.4 -2.1 Q-12.1 -1.6 -12.1 -0.45 L-8.55 -0.25 -8.05 0.2 -6.5 0.0 Q-6.2 -0.1 -5.65 -0.35 L-5.85 -1.8 -5.65 -3.25 Q-5.25 -3.8 -3.65 -3.8 L-3.65 -3.9 -3.15 -3.9 -2.85 -3.9 -1.4 -3.75 Q0.7 -3.35 0.7 -1.7 0.7 -0.35 -0.9 -0.35 -1.9 -0.35 -2.15 -1.35 L-3.15 -1.35 -2.15 0.7 Q-2.15 1.65 -2.85 1.85 L-5.15 2.35 -7.2 3.1 -8.85 3.5 Q-10.0 3.5 -10.35 2.15 L-13.25 2.35 Q-15.45 2.35 -14.9 0.4 -15.95 0.4 -16.8 -0.45 -17.6 -1.1 -17.6 -1.6 -17.6 -2.65 -16.15 -3.75 -14.6 -4.8 -13.45 -3.9" fill="#000000" fill-opacity="0.41568628" fill-rule="evenodd" stroke="none"/>
  </g>
</svg>
