<?xml version="1.0" encoding="UTF-8" standalone="no"?>
<svg xmlns:ffdec="https://www.free-decompiler.com/flash" xmlns:xlink="http://www.w3.org/1999/xlink" ffdec:objectType="shape" height="16.75px" width="25.5px" xmlns="http://www.w3.org/2000/svg">
  <g transform="matrix(1.0, 0.0, 0.0, 1.0, 12.75, 10.1)">
    <path d="M9.1 -9.35 Q9.4 -8.4 9.65 -8.0 L10.75 -5.25 12.0 -2.55 Q12.75 -0.75 12.75 0.2 L12.75 0.25 12.45 0.85 11.6 1.5 10.45 2.75 8.1 5.2 6.85 6.65 Q6.2 5.9 3.6 5.7 L2.85 5.7 3.15 5.05 2.85 4.2 Q2.4 3.6 1.65 3.75 L0.3 4.45 -1.2 5.1 -7.65 6.1 Q-8.25 6.2 -8.6 6.45 L-9.4 6.35 Q-10.4 6.3 -10.4 5.85 -10.3 5.5 -10.45 5.25 L-11.15 2.8 -11.95 0.3 -12.5 -0.95 -12.75 -2.1 -12.7 -2.55 -12.7 -2.65 Q-12.7 -3.2 -11.5 -3.45 L-9.15 -4.0 -6.85 -4.5 -5.8 -4.7 Q-5.4 -4.9 -4.95 -4.35 L-3.6 -3.3 -2.55 -2.3 -1.95 -1.55 -1.9 -1.6 -1.9 -1.65 -1.9 -2.45 -1.75 -4.75 -1.8 -5.3 -1.5 -5.9 Q-1.1 -6.3 0.15 -6.75 L3.05 -7.75 5.9 -9.05 8.25 -10.05 8.45 -10.1 8.5 -10.1 8.85 -9.95 9.1 -9.35" fill="#00cc00" fill-rule="evenodd" stroke="none"/>
  </g>
</svg>
