<?xml version="1.0" encoding="UTF-8" standalone="no"?>
<svg xmlns:ffdec="https://www.free-decompiler.com/flash" xmlns:xlink="http://www.w3.org/1999/xlink" ffdec:objectType="shape" height="42.6px" width="49.15px" xmlns="http://www.w3.org/2000/svg">
  <g transform="matrix(1.0, 0.0, 0.0, 1.0, 23.1, 33.8)">
    <path d="M17.05 -33.2 Q18.3 -32.05 19.3 -29.75 20.65 -26.15 21.55 -24.6 L24.1 -19.25 Q26.05 -15.05 26.05 -14.5 L26.0 -13.9 25.75 -13.75 Q25.0 -12.4 18.2 -5.5 10.85 1.95 7.05 4.9 L6.85 5.2 6.5 5.3 2.25 5.3 0.85 4.75 -0.6 4.0 0.0 5.55 0.55 7.25 -1.75 8.1 -4.25 8.8 Q-6.45 8.8 -6.85 5.6 L-7.6 2.05 Q-7.6 1.85 -7.3 1.85 L-7.35 1.6 -8.4 1.15 -8.8 0.9 -9.35 1.8 -12.3 6.45 -12.1 6.75 -12.3 6.9 -12.75 7.05 -12.85 7.05 Q-14.05 7.05 -18.1 2.45 -18.1 1.75 -14.5 -0.9 L-12.45 -2.35 -14.0 -2.35 -18.55 -3.9 -18.55 -3.85 -18.6 -4.3 -18.3 -4.75 -20.5 -5.1 -20.85 -5.2 -20.95 -5.25 -21.0 -5.35 Q-22.0 -6.3 -22.6 -11.2 L-23.1 -17.15 -23.0 -19.65 -23.05 -19.75 -23.05 -19.7 -23.1 -20.15 -22.8 -20.55 -22.45 -20.75 Q-20.3 -21.8 -11.05 -23.1 L-11.1 -23.25 Q-11.1 -25.25 -7.55 -22.15 -5.2 -20.1 -3.85 -18.45 L-3.95 -21.1 Q-3.95 -23.85 -3.0 -25.15 -2.35 -24.45 -2.35 -23.75 -2.35 -22.8 -2.6 -22.25 L-2.6 -5.75 -2.85 -2.9 -2.6 -2.85 -2.9 -2.3 Q-3.1 -2.1 -3.6 -2.1 L-5.5 -2.4 -4.35 -0.25 -3.3 2.15 Q-3.25 1.5 -2.55 1.6 L-0.75 2.3 Q0.25 2.5 0.65 3.1 1.7 3.75 6.2 4.05 L13.5 -3.45 Q21.2 -11.15 25.05 -14.45 L20.1 -23.9 Q16.9 -30.4 16.25 -32.5 13.05 -30.8 -2.1 -24.65 -2.75 -24.65 -2.6 -24.8 L-2.8 -24.95 -2.85 -25.4 Q-2.85 -26.3 6.05 -29.75 12.95 -32.4 16.05 -33.3 L16.1 -33.7 16.25 -33.8 16.75 -33.45 17.0 -33.55 17.05 -33.2 M-21.85 -15.3 L-21.5 -12.95 Q-21.25 -11.45 -21.35 -10.6 -21.45 -9.9 -20.65 -8.25 L-19.95 -6.5 -18.75 -6.55 -16.85 -6.2 -14.7 -5.85 -13.85 -5.65 -11.15 -5.25 -10.4 -5.0 -5.5 -4.1 -5.05 -3.95 -4.85 -3.4 -4.85 -3.3 -4.25 -3.15 -4.35 -8.25 -3.85 -16.8 -3.85 -16.9 -7.85 -20.3 -10.45 -22.4 -15.95 -20.9 -21.85 -19.5 -21.9 -17.65 -21.85 -15.3 M-12.35 -0.6 L-16.15 2.5 -14.1 4.45 -13.2 5.4 Q-12.7 3.75 -10.85 0.85 L-8.05 -2.9 -9.1 -3.15 -9.6 -3.25 -9.6 -3.15 -9.6 -3.0 Q-9.6 -2.5 -10.25 -2.35 L-10.3 -2.35 -12.35 -0.6 M-6.3 -2.55 L-6.9 -2.65 -7.8 -0.9 -7.1 -0.35 Q-5.85 1.05 -5.85 2.9 L-5.9 3.55 -5.95 3.7 -5.85 4.55 Q-5.5 7.3 -4.15 7.3 L-3.15 7.2 -6.35 -1.9 -6.3 -2.55 M-1.1 6.5 Q-1.4 5.55 -3.1 2.75 -2.35 4.95 -2.35 6.6 L-2.35 6.9 -1.1 6.5" fill="#000000" fill-rule="evenodd" stroke="none"/>
    <path d="M-3.6 -2.1 L-3.55 0.0 Q-3.7 1.05 -4.1 1.65 L-4.1 -17.3 -3.25 -17.25 -2.95 -16.1 -1.3 -12.4 Q-0.15 -10.3 0.9 -9.55 1.75 -9.15 3.2 -5.65 3.75 -4.25 4.4 -3.7 L2.9 -1.25 Q0.5 2.9 0.5 4.15 L0.55 4.25 Q-1.15 3.35 -3.15 -1.45 L-3.15 -1.55 -3.55 -2.6 -3.8 -2.5 -3.6 -2.1 M5.4 5.55 L6.25 4.25 6.35 5.3 6.1 5.4 5.4 5.55" fill="#000000" fill-opacity="0.6117647" fill-rule="evenodd" stroke="none"/>
    <path d="M-3.15 -1.55 L-3.45 -1.95 -3.55 -2.2 -3.6 -2.1 -3.8 -2.5 -3.55 -2.6 -3.15 -1.55" fill="#000000" fill-opacity="0.5529412" fill-rule="evenodd" stroke="none"/>
  </g>
</svg>
