<?xml version="1.0" encoding="UTF-8" standalone="no"?>
<svg xmlns:ffdec="https://www.free-decompiler.com/flash" xmlns:xlink="http://www.w3.org/1999/xlink" ffdec:objectType="shape" height="15.95px" width="28.85px" xmlns="http://www.w3.org/2000/svg">
  <g transform="matrix(1.0, 0.0, 0.0, 1.0, 17.4, 6.0)">
    <path d="M10.05 -1.15 L9.8 -0.75 9.3 0.65 9.0 0.9 Q8.25 0.95 7.4 3.2 L6.45 5.75 6.25 5.9 0.45 5.9 Q-0.05 5.95 -0.2 6.3 L-0.85 6.35 Q-3.5 4.55 -4.4 3.45 -5.45 2.25 -6.45 1.5 -7.35 0.85 -7.5 0.3 L-12.8 -0.05 -13.35 -1.15 -13.75 -1.85 -14.45 -3.35 Q-16.0 -5.7 -16.6 -5.65 -16.45 -6.25 -15.75 -5.8 L-15.25 -5.45 -14.7 -4.65 -14.4 -3.85 -14.25 -3.6 -13.45 -2.1 -9.6 -2.3 Q-8.2 -2.3 -7.2 -0.75 L-6.75 -0.75 -1.95 4.2 0.95 4.35 4.7 4.4 5.4 4.55 7.45 1.05 Q8.8 -1.4 9.45 -1.4 L10.05 -1.15" fill="#000000" fill-opacity="0.56078434" fill-rule="evenodd" stroke="none"/>
    <path d="M-16.6 -5.65 Q-16.0 -5.7 -14.45 -3.35 L-13.75 -1.85 -14.45 -2.9 -15.75 -4.7 Q-16.15 -5.45 -16.8 -5.25 L-16.95 -5.15 Q-16.85 -5.65 -16.6 -5.65 M-12.8 -0.05 L-7.5 0.3 Q-7.35 0.85 -6.45 1.5 -5.45 2.25 -4.4 3.45 -3.5 4.55 -0.85 6.35 L-0.3 6.75 -0.3 6.7 -0.2 6.3 Q-0.05 5.95 0.45 5.9 L6.25 5.9 6.35 5.9 6.45 5.75 7.4 3.2 Q8.25 0.95 9.0 0.9 8.5 1.5 8.2 3.7 L7.55 7.35 6.9 7.7 Q5.0 8.5 4.25 8.1 L2.45 8.25 0.35 8.25 -0.15 8.4 -2.65 6.65 -5.0 4.4 -7.95 1.6 Q-10.35 -0.35 -12.5 0.45 L-12.8 -0.05" fill="#000000" fill-opacity="0.39215687" fill-rule="evenodd" stroke="none"/>
    <path d="M9.0 0.9 L9.3 0.65 9.8 -0.75 10.05 -1.15 Q10.5 -1.8 10.95 -1.65 11.45 -1.5 11.45 -0.8 L10.4 3.15 10.35 5.4 Q10.15 7.0 9.5 7.05 L9.25 8.15 Q8.75 9.4 7.5 9.8 L-0.15 9.95 Q-1.0 9.95 -4.65 6.9 L-9.6 2.7 -11.85 2.4 Q-13.5 2.3 -14.1 1.05 L-14.15 0.9 -14.4 0.4 -15.0 -0.75 -16.25 -2.5 Q-17.4 -4.0 -17.4 -4.5 L-16.95 -5.15 -16.8 -5.25 Q-16.15 -5.45 -15.75 -4.7 L-14.45 -2.9 -13.75 -1.85 -13.35 -1.15 -12.8 -0.05 -12.5 0.45 Q-10.35 -0.35 -7.95 1.6 L-5.0 4.4 -2.65 6.65 -0.15 8.4 0.35 8.25 2.45 8.25 7.2 8.25 7.55 7.35 8.2 3.7 Q8.5 1.5 9.0 0.9" fill="#000000" fill-opacity="0.18039216" fill-rule="evenodd" stroke="none"/>
  </g>
</svg>
