<?xml version="1.0" encoding="UTF-8" standalone="no"?>
<svg xmlns:ffdec="https://www.free-decompiler.com/flash" xmlns:xlink="http://www.w3.org/1999/xlink" ffdec:objectType="shape" height="10.15px" width="12.85px" xmlns="http://www.w3.org/2000/svg">
  <g transform="matrix(1.0, 0.0, 0.0, 1.0, 6.45, 5.1)">
    <path d="M1.4 2.25 L1.45 1.7 Q2.1 1.65 2.25 1.95 L2.3 2.5 2.3 3.25 2.1 3.25 Q1.6 3.25 1.45 2.9 L1.4 2.8 1.4 2.25 M1.45 0.4 L1.25 0.9 1.25 1.0 1.25 1.55 Q1.2 2.05 0.75 2.05 0.2 2.05 0.2 1.7 L0.3 1.15 0.15 0.7 0.05 0.3 Q0.05 -0.15 0.3 -0.25 L1.75 -0.6 1.75 -0.4 1.6 0.1 1.5 0.2 1.45 0.4 M3.0 -0.95 L3.0 -1.0 3.1 -1.0 4.0 -1.05 4.15 -1.05 4.2 -0.85 3.55 0.0 2.85 -0.25 2.8 -0.4 2.9 -0.6 2.95 -0.8 3.0 -0.95 M-0.6 -3.6 L-0.55 -3.45 Q-0.55 -3.25 -1.1 -2.9 L-1.8 -2.6 Q-2.5 -2.6 -2.75 -2.9 L-2.95 -3.35 -2.45 -3.65 -0.7 -3.65 -0.6 -3.6 M-4.65 -0.4 L-4.65 -0.6 -4.5 -0.45 -3.45 -0.15 -3.45 1.6 -3.5 1.65 -3.7 1.7 -4.7 1.05 -4.7 0.35 -4.6 -0.4 -4.65 -0.4 M5.15 2.75 Q5.1 3.0 4.65 3.0 L4.3 3.0 4.3 2.5 Q4.3 2.1 4.45 2.0 4.6 1.8 5.15 1.75 L5.2 2.25 5.15 2.75" fill="#ffffff" fill-rule="evenodd" stroke="none"/>
    <path d="M0.65 -3.2 L-0.15 -2.55 -1.35 -2.15 -1.9 -2.3 -2.95 -2.5 Q-3.5 -2.5 -3.65 -2.75 L-3.75 -2.9 -3.8 -2.9 -4.35 -3.05 -4.4 -3.3 Q-4.4 -3.7 -3.4 -3.8 L-3.15 -3.8 -3.05 -3.85 -1.7 -4.35 -0.9 -4.25 0.0 -3.85 0.55 -3.55 0.65 -3.2 M1.4 2.25 L1.35 2.35 Q1.05 2.85 0.35 2.9 L-0.1 3.05 Q-0.5 3.05 -0.55 2.5 L-0.55 2.35 -0.65 1.95 -0.65 0.95 -0.65 0.0 -0.6 -0.15 -0.75 -0.3 -0.8 -0.5 0.4 -1.15 1.0 -1.25 Q2.45 -1.85 2.45 -0.95 2.45 -0.3 1.6 0.1 L1.75 -0.4 1.75 -0.6 0.3 -0.25 Q0.05 -0.15 0.05 0.3 L0.15 0.7 0.3 1.15 0.2 1.7 Q0.2 2.05 0.75 2.05 1.2 2.05 1.25 1.55 L1.25 1.0 1.25 0.9 1.45 0.4 1.5 0.6 1.55 1.3 2.05 1.25 Q2.85 1.35 2.9 1.7 L2.95 2.75 2.95 3.35 Q2.85 3.9 2.3 3.9 1.4 3.9 1.35 3.45 L1.45 2.9 Q1.6 3.25 2.1 3.25 L2.3 3.25 2.3 2.5 2.25 1.95 Q2.1 1.65 1.45 1.7 L1.4 2.25 M3.1 -1.0 L3.55 -1.25 4.6 -1.0 4.9 -0.45 4.45 0.2 3.55 0.6 2.9 0.15 2.4 -0.35 2.9 -0.9 3.0 -0.95 2.95 -0.8 2.9 -0.6 2.8 -0.4 2.85 -0.25 3.55 0.0 4.2 -0.85 4.15 -1.05 4.0 -1.05 3.1 -1.0 M-5.1 -1.85 L-4.95 -1.9 Q-4.6 -1.95 -4.2 -1.4 L-3.05 -0.85 Q-2.6 -0.65 -2.6 -0.35 L-2.7 -0.1 -2.5 1.6 -2.5 2.1 -2.65 2.4 -2.5 2.65 -2.6 2.9 -2.95 3.05 -4.5 2.4 -5.4 1.7 -5.25 1.35 -5.45 0.3 -5.55 -1.1 Q-5.55 -1.9 -5.1 -1.85 M-4.65 -0.4 L-4.6 -0.4 -4.7 0.35 -4.7 1.05 -3.7 1.7 -3.5 1.65 -3.45 1.6 -3.45 -0.15 -4.5 -0.45 -4.65 -0.6 -4.65 -0.4 M-0.6 -3.6 L-0.7 -3.65 -2.45 -3.65 -2.95 -3.35 -2.75 -2.9 Q-2.5 -2.6 -1.8 -2.6 L-1.1 -2.9 Q-0.55 -3.25 -0.55 -3.45 L-0.6 -3.6 M5.2 2.95 L4.4 3.65 Q4.0 3.65 3.95 3.4 L3.95 3.15 Q3.95 1.85 4.7 1.3 5.5 0.75 5.5 2.05 L5.2 2.95 M5.15 2.75 L5.2 2.25 5.15 1.75 Q4.6 1.8 4.45 2.0 4.3 2.1 4.3 2.5 L4.3 3.0 4.65 3.0 Q5.1 3.0 5.15 2.75" fill="#999999" fill-rule="evenodd" stroke="none"/>
    <path d="M0.65 -3.2 L0.55 -3.55 0.0 -3.85 -0.9 -4.25 -1.7 -4.35 -3.05 -3.85 -3.15 -3.8 -3.4 -3.8 Q-4.4 -3.7 -4.4 -3.3 L-4.35 -3.05 -3.8 -2.9 -3.75 -2.9 -3.65 -2.75 Q-3.5 -2.5 -2.95 -2.5 L-1.9 -2.3 -1.35 -2.15 -0.15 -2.55 0.65 -3.2 M1.6 0.1 Q2.45 -0.3 2.45 -0.95 2.45 -1.85 1.0 -1.25 L0.4 -1.15 -0.8 -0.5 -0.75 -0.3 -0.6 -0.15 -0.65 0.0 -0.65 0.95 -0.65 1.95 -0.55 2.35 -0.55 2.5 Q-0.5 3.05 -0.1 3.05 L0.35 2.9 Q1.05 2.85 1.35 2.35 L1.4 2.25 1.4 2.8 1.45 2.9 1.35 3.45 Q1.4 3.9 2.3 3.9 2.85 3.9 2.95 3.35 L2.95 2.75 2.9 1.7 Q2.85 1.35 2.05 1.25 L1.55 1.3 1.5 0.6 1.45 0.4 1.5 0.2 1.6 0.1 M3.1 -1.9 L3.35 -2.0 4.55 -1.65 5.25 -1.05 6.4 0.0 6.4 1.15 6.4 2.2 6.1 3.2 4.7 4.3 3.45 5.05 1.95 4.5 -0.3 4.0 -0.65 4.0 Q-0.95 4.4 -1.35 4.4 L-2.7 4.05 -3.95 3.6 -5.45 2.95 -5.95 2.6 -6.1 2.3 -6.15 1.8 -6.15 -2.15 -6.2 -2.5 -6.2 -2.65 -6.45 -3.15 Q-6.45 -3.6 -5.3 -4.0 L-3.6 -4.5 -1.95 -5.05 Q-1.0 -5.25 -0.25 -4.6 2.1 -4.1 2.8 -3.05 L3.1 -1.9 M3.0 -0.95 L2.9 -0.9 2.4 -0.35 2.9 0.15 3.55 0.6 4.45 0.2 4.9 -0.45 4.6 -1.0 3.55 -1.25 3.1 -1.0 3.0 -1.0 3.0 -0.95 M-5.1 -1.85 Q-5.55 -1.9 -5.55 -1.1 L-5.45 0.3 -5.25 1.35 -5.4 1.7 -4.5 2.4 -2.95 3.05 -2.6 2.9 -2.5 2.65 -2.65 2.4 -2.5 2.1 -2.5 1.6 -2.7 -0.1 -2.6 -0.35 Q-2.6 -0.65 -3.05 -0.85 L-4.2 -1.4 Q-4.6 -1.95 -4.95 -1.9 L-5.1 -1.85 M5.2 2.95 L5.5 2.05 Q5.5 0.75 4.7 1.3 3.95 1.85 3.95 3.15 L3.95 3.4 Q4.0 3.65 4.4 3.65 L5.2 2.95" fill="#666666" fill-rule="evenodd" stroke="none"/>
  </g>
</svg>
