<?xml version="1.0" encoding="UTF-8" standalone="no"?>
<svg xmlns:ffdec="https://www.free-decompiler.com/flash" xmlns:xlink="http://www.w3.org/1999/xlink" ffdec:objectType="shape" height="27.45px" width="21.25px" xmlns="http://www.w3.org/2000/svg">
  <g transform="matrix(1.0, 0.0, 0.0, 1.0, 11.75, 22.45)">
    <path d="M-3.35 -1.5 L-0.2 -7.1 3.3 -2.45 3.55 -2.15 9.0 -2.45 M4.45 -7.85 L3.85 -6.7 0.35 -7.4 M7.25 -7.75 L8.15 -6.35 M5.6 -11.6 L6.5 -11.55 6.7 -11.8 5.7 -13.1 M5.9 -10.5 L6.5 -11.55 M5.7 4.2 L5.6 4.45 4.35 4.5 M-0.3 -20.4 L-3.1 -21.05 M-10.05 -21.95 L-4.95 -13.45 4.65 -11.75 M-10.7 -1.6 L-10.85 -1.7 -10.8 -1.4 -10.7 -1.6 -10.5 -2.05 M-11.25 -2.15 L-10.8 -1.4 M-6.5 -1.1 L-7.0 -1.2 -3.9 2.3 M-7.0 -1.2 L-10.7 -1.6 M-9.55 -4.05 L-4.95 -13.45 M3.3 -2.45 L-0.9 3.85" fill="none" stroke="#000000" stroke-linecap="round" stroke-linejoin="round" stroke-width="1.0"/>
  </g>
</svg>
