<?xml version="1.0" encoding="UTF-8" standalone="no"?>
<svg xmlns:ffdec="https://www.free-decompiler.com/flash" xmlns:xlink="http://www.w3.org/1999/xlink" ffdec:objectType="shape" height="28.75px" width="33.1px" xmlns="http://www.w3.org/2000/svg">
  <g transform="matrix(1.0, 0.0, 0.0, 1.0, 20.55, 23.35)">
    <path d="M0.45 -19.9 L-0.9 -22.55 -8.8 -13.9 -1.9 -2.65 0.5 -5.55 2.6 -8.05 -0.8 -14.4 5.0 -14.95 5.4 -15.0 8.65 -20.7 1.6 -21.2 0.45 -19.9 1.7 -17.75 -0.65 -15.05 M0.5 -5.55 L8.5 -6.85 8.35 -7.1 5.0 -14.95 M8.65 -20.7 L12.05 -13.1 8.35 -7.1 M-0.9 -22.55 L-1.1 -22.85 -11.75 -21.8 -19.9 -14.2 -8.8 -13.9 M-1.9 -2.65 L-1.8 -2.6 -13.25 -2.15 -13.3 -2.3 -20.05 -13.6" fill="none" stroke="#000000" stroke-linecap="round" stroke-linejoin="round" stroke-width="1.0"/>
    <path d="M8.85 -21.35 L9.0 -21.1 Q9.0 -20.8 8.45 -20.8 L7.75 -20.9 2.65 -21.0 Q1.7 -21.05 1.7 -21.45 1.7 -21.8 2.05 -21.8 L2.8 -21.6 7.95 -21.55 8.85 -21.35 M0.8 -20.0 Q0.55 -20.0 -0.2 -21.5 L-0.9 -23.05 -0.5 -23.35 Q-0.2 -23.35 1.1 -20.3 L0.8 -20.0 M9.2 -2.55 L8.7 -4.05 7.55 -6.45 Q7.55 -8.2 9.05 -6.0 10.55 -3.85 10.55 -2.45 L10.5 -2.0 10.5 -1.95 10.35 -1.65 6.55 4.35 6.6 4.55 Q6.6 5.55 4.2 5.4 L-0.8 5.4 -0.95 5.3 -1.35 5.4 Q-2.3 5.4 -5.0 2.1 L-7.5 -1.2 Q-7.5 -2.8 -6.35 -1.7 L-4.1 1.05 -2.25 2.95 -1.1 4.25 -0.8 4.2 3.65 4.2 5.35 4.1 Q5.55 2.9 7.9 -0.5 L9.3 -2.25 9.2 -2.55 M-6.95 -22.25 Q-6.95 -21.35 -10.5 -21.5 L-11.05 -21.5 -14.7 -17.6 Q-18.85 -13.35 -19.8 -13.35 -20.45 -13.35 -20.45 -14.1 -20.45 -14.85 -15.35 -18.9 L-12.45 -22.05 Q-11.45 -23.0 -11.0 -22.85 L-10.35 -22.8 -7.55 -22.85 -6.95 -22.25" fill="#000000" fill-rule="evenodd" stroke="none"/>
  </g>
</svg>
