<?xml version="1.0" encoding="UTF-8" standalone="no"?>
<svg xmlns:ffdec="https://www.free-decompiler.com/flash" xmlns:xlink="http://www.w3.org/1999/xlink" ffdec:objectType="shape" height="48.8px" width="53.35px" xmlns="http://www.w3.org/2000/svg">
  <g transform="matrix(1.0, 0.0, 0.0, 1.0, 407.0, 62.9)">
    <path d="M-405.05 -23.95 L-405.0 -24.25 -404.6 -24.95 -404.2 -25.65 -403.75 -26.3 -403.5 -26.65 -403.4 -27.0 -403.35 -27.4 -403.25 -27.75 -403.2 -28.15 -402.6 -29.2 -401.9 -30.6 -400.9 -31.85 -400.85 -32.25 -400.8 -32.6 Q-399.75 -34.6 -398.25 -36.3 L-392.95 -42.5 -392.5 -42.85 -392.05 -43.1 -391.2 -43.7 -390.9 -44.05 -390.65 -44.35 -390.35 -44.7 -389.05 -45.55 -387.7 -46.45 -386.85 -47.05 -386.25 -47.65 -385.25 -48.65 -384.7 -49.25 -381.3 -51.5 Q-379.3 -52.75 -377.15 -53.5 L-375.4 -54.7 -373.6 -55.9 -372.75 -56.45 -370.9 -58.35 -368.65 -60.65 -368.05 -61.25 -367.65 -61.55 -367.2 -61.85 -366.75 -62.15 -365.95 -62.4 Q-365.7 -62.5 -365.4 -62.65 L-364.85 -62.9 -363.65 -62.85 -363.65 -62.9 Q-361.5 -62.0 -359.7 -60.2 -358.35 -58.85 -358.2 -57.0 L-358.3 -56.65 -358.35 -56.25 -358.45 -55.9 -358.6 -55.15 -358.8 -54.8 -358.95 -54.5 -359.2 -54.1 -359.35 -53.8 -359.45 -53.4 -359.5 -53.05 -359.65 -52.35 -359.8 -51.6 -359.8 -51.2 -359.7 -50.8 -359.7 -50.4 -359.6 -50.05 -359.7 -49.65 -359.75 -49.3 -359.65 -48.85 -359.55 -48.5 -359.5 -48.05 -359.55 -47.7 -359.65 -47.35 -359.7 -47.0 -358.7 -42.3 Q-358.05 -38.2 -357.05 -34.25 L-356.5 -32.9 -356.1 -31.75 -355.75 -30.5 -355.65 -30.15 -355.45 -29.75 -354.85 -29.15 -354.4 -28.7 -354.25 -28.35 -354.15 -27.9 -354.05 -27.5 -354.0 -27.1 -354.05 -26.75 -354.15 -26.35 -354.2 -26.0 -354.15 -25.6 -354.1 -25.25 -353.9 -24.45 -353.65 -23.6 -353.75 -23.25 -353.8 -22.9 -353.95 -22.15 -354.1 -21.4 -354.3 -21.05 -354.6 -20.7 -354.8 -20.4 -354.9 -19.9 -355.1 -18.8 -355.75 -17.75 Q-356.4 -16.85 -357.3 -16.2 L-358.2 -15.7 Q-360.6 -15.55 -362.7 -16.8 L-363.7 -17.3 -364.1 -17.8 -364.4 -18.2 -364.6 -18.65 -364.65 -19.05 -364.7 -19.45 -364.6 -19.8 -364.55 -20.2 -364.35 -20.9 -364.3 -21.05 -364.35 -21.25 -364.5 -21.7 Q-371.8 -24.45 -380.05 -26.7 L-380.1 -26.35 -380.2 -25.95 -380.25 -25.6 -380.35 -25.2 -380.55 -24.9 -380.8 -24.55 -381.05 -24.25 -381.4 -23.95 Q-381.65 -23.75 -381.95 -23.65 L-385.75 -23.75 -386.55 -23.55 -387.35 -23.3 Q-388.25 -22.7 -389.3 -22.25 L-392.35 -21.25 -398.5 -17.4 Q-401.15 -15.7 -403.85 -14.1 L-404.2 -14.1 -405.0 -14.1 -406.05 -14.55 -406.4 -15.05 -406.75 -15.45 -406.9 -15.9 -407.0 -16.25 -407.0 -16.65 -406.7 -18.15 -406.4 -19.6 -406.0 -21.8 -405.8 -22.15 -405.6 -22.5 -405.4 -22.85 -405.2 -23.2 -405.15 -23.55 -405.05 -23.95 M-399.2 -23.55 L-393.8 -26.4 Q-392.55 -27.0 -391.05 -27.25 -388.4 -28.9 -385.2 -29.05 L-384.65 -29.15 -384.6 -29.55 -384.5 -29.85 -384.45 -30.25 -384.25 -30.6 -384.05 -30.95 -383.25 -31.5 -382.4 -32.15 Q-374.2 -32.2 -366.55 -27.85 L-365.95 -27.85 -365.5 -28.1 -365.1 -28.3 Q-362.35 -28.7 -360.7 -26.65 L-360.4 -26.25 -360.15 -25.25 -359.9 -25.5 -359.45 -25.75 -359.4 -25.8 Q-359.55 -26.45 -360.0 -26.9 L-360.6 -27.8 Q-361.45 -31.4 -362.75 -35.0 -363.9 -38.3 -364.3 -41.85 L-364.55 -42.7 Q-364.45 -43.5 -364.5 -44.3 L-364.85 -45.85 -364.95 -46.25 -364.85 -46.6 -364.8 -47.0 -364.75 -47.35 -364.8 -48.1 -364.9 -48.9 -364.85 -49.3 -364.8 -49.65 -364.85 -50.0 -364.95 -50.45 -365.05 -50.85 -364.35 -53.75 Q-363.9 -55.35 -364.45 -56.7 L-364.75 -56.9 -365.4 -56.3 -366.2 -55.25 -367.1 -54.7 -367.55 -54.4 -368.35 -53.4 -369.3 -52.45 -370.25 -51.95 -371.0 -51.65 -377.1 -47.4 Q-378.6 -46.35 -380.3 -45.85 L-381.2 -45.25 -381.65 -45.0 Q-382.3 -43.95 -383.3 -43.35 L-384.7 -42.55 Q-385.3 -41.5 -386.35 -40.9 L-388.15 -39.75 -390.25 -37.55 -392.0 -35.2 -392.95 -34.15 Q-393.4 -33.65 -394.0 -33.3 -394.3 -32.35 -395.05 -31.5 L-396.15 -30.3 -396.2 -29.9 -396.3 -29.55 -397.45 -27.5 -398.45 -25.75 -398.65 -25.45 -398.7 -25.05 -398.8 -24.7 -398.85 -24.3 -399.1 -24.0 -399.25 -23.65 -399.45 -23.4 -399.2 -23.55" fill="#000000" fill-rule="evenodd" stroke="none"/>
    <path d="M-399.25 -23.65 L-399.1 -24.0 -398.85 -24.3 -398.8 -24.7 -398.7 -25.05 -398.65 -25.45 -398.45 -25.75 -397.45 -27.5 -396.3 -29.55 -396.2 -29.9 -396.15 -30.3 -395.05 -31.5 Q-394.3 -32.35 -394.0 -33.3 -393.4 -33.65 -392.95 -34.15 L-392.0 -35.2 -390.25 -37.55 -388.15 -39.75 -386.35 -40.9 Q-385.3 -41.5 -384.7 -42.55 L-383.3 -43.35 Q-382.3 -43.95 -381.65 -45.0 L-381.2 -45.25 -380.3 -45.85 Q-378.6 -46.35 -377.1 -47.4 L-371.0 -51.65 -370.25 -51.95 -369.3 -52.45 -368.35 -53.4 -367.55 -54.4 -367.1 -54.7 -366.2 -55.25 -365.4 -56.3 -364.75 -56.9 -364.45 -56.7 Q-363.9 -55.35 -364.35 -53.75 L-365.05 -50.85 -364.95 -50.45 -364.85 -50.0 -364.8 -49.65 -364.85 -49.3 -364.9 -48.9 -364.8 -48.1 -364.75 -47.35 -364.8 -47.0 -364.85 -46.6 -364.95 -46.25 -364.85 -45.85 -364.5 -44.3 Q-364.45 -43.5 -364.55 -42.7 L-364.3 -41.85 Q-363.9 -38.3 -362.75 -35.0 -361.45 -31.4 -360.6 -27.8 L-360.0 -26.9 Q-359.55 -26.45 -359.4 -25.8 L-359.45 -25.75 -359.9 -25.5 -360.15 -25.25 -360.4 -26.25 -360.7 -26.65 Q-362.35 -28.7 -365.1 -28.3 L-365.5 -28.1 -365.95 -27.85 -366.55 -27.85 Q-374.2 -32.2 -382.4 -32.15 L-383.25 -31.5 -384.05 -30.95 -384.25 -30.6 -384.45 -30.25 -384.5 -29.85 -384.6 -29.55 -384.65 -29.15 -385.2 -29.05 Q-388.4 -28.9 -391.05 -27.25 -392.55 -27.0 -393.8 -26.4 L-399.2 -23.55 -399.25 -23.65" fill="#80a839" fill-rule="evenodd" stroke="none"/>
  </g>
</svg>
