<?xml version="1.0" encoding="UTF-8" standalone="no"?>
<svg xmlns:ffdec="https://www.free-decompiler.com/flash" xmlns:xlink="http://www.w3.org/1999/xlink" ffdec:objectType="shape" height="127.55px" width="68.5px" xmlns="http://www.w3.org/2000/svg">
  <g transform="matrix(1.0, 0.0, 0.0, 1.0, 421.0, 65.4)">
    <path d="M-406.9 -13.15 L-406.25 -13.35 -406.1 -13.4 -404.35 -14.3 -403.4 -15.15 -402.75 -15.4 -402.0 -15.45 -402.0 -15.5 Q-393.05 -15.15 -385.5 -10.05 -382.5 -8.0 -380.2 -5.05 -378.7 -3.1 -378.0 -0.65 L-378.05 -0.25 -378.15 0.1 -378.3 0.5 -378.35 0.6 Q-377.6 2.65 -377.0 4.75 L-377.0 5.1 -377.0 5.5 -376.85 5.85 -376.65 6.25 -376.5 6.6 -376.5 7.0 -376.5 7.35 -376.4 7.75 -376.25 8.1 -376.15 8.5 -376.0 8.85 -376.0 9.25 -376.0 10.35 -376.0 11.85 -376.0 13.75 -376.0 14.1 -376.15 14.5 -376.45 15.65 -377.05 17.15 Q-377.55 18.25 -378.5 19.0 L-378.75 19.4 -378.9 19.75 -379.15 20.1 -382.8 23.75 Q-386.85 27.3 -391.65 29.85 L-391.85 30.25 -392.0 30.6 -392.15 31.0 -392.25 31.35 -392.4 31.75 -392.5 32.1 -392.5 32.5 -392.5 32.85 -392.5 33.25 -392.35 33.6 -392.05 34.0 -391.9 34.35 Q-385.0 36.55 -379.4 32.7 -377.25 31.25 -375.4 29.35 L-373.9 27.85 -371.6 26.8 -367.35 24.95 -366.0 24.5 -365.5 24.55 -364.55 24.8 -363.9 25.1 -363.8 25.2 Q-359.95 26.0 -356.7 28.55 -353.95 30.65 -352.5 33.75 L-352.5 34.85 -352.5 37.1 -352.5 39.75 -352.5 41.25 Q-353.0 43.0 -354.0 44.55 -355.6 47.1 -356.7 49.9 -357.3 51.4 -358.5 52.5 L-358.75 52.9 -358.9 53.25 -359.15 53.6 -359.65 54.0 -360.15 54.35 -360.65 55.1 -362.25 56.6 Q-363.3 57.35 -364.5 57.5 L-364.95 57.45 -365.25 57.75 -365.75 58.1 Q-382.45 64.85 -399.75 60.4 -402.35 59.7 -404.6 58.25 L-408.9 55.6 -409.25 55.25 -409.65 54.85 -410.0 54.5 -410.4 54.1 -410.75 53.75 -410.9 53.35 -411.0 53.0 -411.4 52.6 -411.75 52.25 -411.9 51.85 -412.0 51.5 -412.4 51.1 -412.75 50.75 -412.9 50.35 -413.0 50.0 -413.4 49.6 -413.75 49.25 -414.15 48.85 -414.35 48.5 -414.75 47.75 -415.05 47.0 -415.65 45.9 -415.9 45.5 -415.95 45.1 -416.05 44.75 -416.15 44.4 -416.35 44.0 -416.5 43.6 -416.5 43.25 -416.5 42.85 -416.5 42.5 -416.55 42.15 -416.8 41.35 -417.1 40.65 -417.5 39.5 -417.5 39.1 -417.5 38.75 -417.5 38.35 -417.5 38.0 -417.55 37.65 -417.75 37.25 -417.9 36.85 -418.0 36.5 -418.0 35.75 -418.0 33.5 -418.0 30.85 -418.0 29.0 -417.9 28.6 -417.75 28.25 -417.5 27.85 -417.5 27.5 -417.5 27.1 -417.5 26.75 -417.5 26.35 -417.5 26.0 -417.35 25.65 -416.8 24.15 -416.0 21.85 -415.0 20.0 -414.65 19.6 -414.25 19.25 -414.05 18.85 -413.15 17.3 -411.9 15.55 -411.0 14.0 Q-408.7 11.6 -405.7 10.2 -400.5 7.75 -395.65 5.0 L-395.55 4.6 -395.5 4.25 -395.5 3.85 -395.5 3.5 -395.5 3.1 -395.5 2.75 -395.65 2.4 -395.85 2.0 -396.05 1.65 -396.25 1.25 -396.65 0.85 -397.05 0.55 -397.9 0.1 -398.25 -0.25 -398.65 -0.65 Q-401.4 -1.55 -404.25 -0.35 L-406.4 0.75 -406.65 1.1 -407.4 1.85 -407.75 2.25 -408.5 3.0 -408.75 3.4 -409.15 4.1 -409.55 4.85 -410.5 6.0 -410.75 6.4 -411.3 7.45 Q-411.75 8.35 -412.45 9.05 L-413.75 10.1 -414.25 10.3 -415.0 10.5 -415.5 10.45 Q-416.9 10.3 -417.95 9.45 L-419.15 8.35 -419.35 8.0 -419.8 7.25 -420.3 6.45 -420.85 5.35 -421.0 5.0 -421.0 4.6 -421.0 4.25 -421.0 3.85 -421.0 3.5 -420.9 3.1 -420.75 2.75 -420.5 2.35 -420.5 2.0 -420.5 1.6 -420.5 1.25 -420.5 0.85 -420.5 0.5 -420.35 0.15 -420.0 -0.65 -419.6 -1.35 -419.0 -2.5 -418.65 -2.9 -418.25 -3.25 -418.05 -3.65 -417.85 -4.0 -417.65 -4.4 -417.25 -4.75 -416.9 -5.15 -416.5 -5.5 -416.4 -5.9 -416.25 -6.25 -415.9 -6.65 -415.5 -7.0 -415.15 -7.4 -414.75 -7.75 -414.4 -8.15 -413.5 -8.5 Q-412.6 -8.95 -411.9 -9.65 L-410.4 -11.15 -410.0 -11.5 -409.6 -11.75 -409.25 -11.85 -408.4 -12.15 -407.15 -12.85 -406.9 -13.15 M-407.75 -6.5 L-408.0 -6.1 Q-408.4 -5.45 -409.1 -4.95 L-411.5 -3.5 -411.85 -3.1 -412.15 -2.75 -412.35 -2.35 -412.5 -2.0 -412.9 -1.65 -413.25 -1.25 -413.65 -0.9 -414.0 -0.5 -414.25 -0.1 -414.65 0.6 -415.0 1.4 -415.5 2.5 -415.5 2.85 -415.5 3.25 -415.5 3.6 -415.5 3.7 -415.35 3.5 -415.1 3.15 -414.75 2.75 -414.4 2.35 -414.0 2.0 -413.9 1.6 -413.75 1.25 -413.4 0.85 -413.0 0.5 -412.9 0.1 -412.75 -0.25 -412.4 -0.65 -411.25 -1.75 -409.75 -3.25 -409.4 -3.65 -408.65 -4.05 -408.15 -4.4 -407.65 -4.75 Q-401.2 -7.75 -395.15 -4.55 -393.35 -3.6 -392.0 -2.0 L-391.85 -1.65 -391.35 -0.9 -391.05 -0.45 -390.65 0.25 -390.5 0.6 -390.5 1.0 -390.5 2.5 -390.5 4.35 -390.5 6.6 -390.65 7.0 -390.75 7.35 -390.9 7.75 -392.35 9.1 Q-395.4 11.0 -398.6 12.7 L-399.4 13.25 -400.75 13.6 Q-402.55 14.1 -404.05 15.15 L-405.5 16.0 -407.5 18.35 -410.6 23.15 Q-411.5 24.55 -412.0 26.1 L-412.0 26.5 -412.0 26.85 -412.15 27.25 -412.35 27.65 -412.5 28.0 -412.5 28.35 -412.5 28.75 -412.5 29.1 -412.65 29.5 -412.75 29.85 -412.9 30.25 -413.0 30.6 -413.0 31.0 -413.0 31.75 -413.0 32.5 -413.0 33.6 -413.0 34.35 -412.9 34.75 -412.75 35.1 -412.65 35.5 -412.5 35.85 -412.5 36.25 -412.5 36.6 -412.5 37.0 -412.5 37.35 -412.4 37.75 -412.25 38.1 -412.15 38.5 -412.0 38.85 -412.0 39.25 -412.0 39.6 -411.8 40.0 -411.65 40.35 -411.5 40.75 -411.5 41.1 -411.5 41.5 -411.35 41.85 -411.15 42.25 -411.0 42.6 -411.0 43.0 -411.0 43.35 Q-404.2 57.5 -388.15 57.2 -377.8 57.05 -368.4 53.35 L-368.0 53.05 -366.75 52.25 -365.7 51.7 -365.0 51.5 -364.6 51.6 -364.25 51.25 -363.15 50.1 -362.75 49.75 -362.5 49.35 -362.05 48.7 -361.25 47.55 Q-360.95 47.0 -360.95 46.35 L-360.9 46.0 -360.6 45.65 -360.3 45.2 -359.85 44.5 -359.25 43.75 -359.05 43.35 -358.95 43.0 -358.9 42.6 -358.7 42.25 -358.4 41.85 -358.15 41.5 -358.0 41.1 -357.9 40.75 -357.75 40.35 -357.65 40.0 -357.5 39.6 -357.5 39.25 -357.5 38.5 -357.5 37.35 -357.5 36.25 -357.5 35.85 -357.65 35.5 -357.75 35.15 -358.15 34.35 -358.5 33.65 -358.75 33.25 Q-359.9 32.0 -361.4 31.3 L-364.35 30.2 -364.4 30.25 -364.75 30.35 -367.75 30.75 -369.05 31.45 Q-370.7 32.3 -372.25 33.35 -372.95 33.85 -373.5 34.5 L-373.75 34.9 -373.9 35.25 -374.15 35.6 Q-377.5 39.25 -382.55 39.55 -388.05 39.85 -393.6 39.3 -395.1 39.1 -396.15 37.85 L-396.35 37.5 -396.55 37.15 -396.75 36.75 -397.1 36.35 -397.4 36.0 -397.45 35.6 -397.5 34.1 -397.5 32.25 -397.5 30.0 -397.35 29.65 -397.05 28.85 -396.8 28.15 -396.35 27.0 -396.15 26.6 Q-393.7 24.45 -390.85 22.9 -386.35 20.5 -383.0 16.5 L-382.9 16.1 -382.75 15.75 -382.4 15.35 -382.0 15.0 -381.85 14.65 -381.55 13.85 -381.45 13.5 -381.2 12.75 -381.0 12.35 -381.0 12.0 -381.0 11.6 -381.0 11.25 -381.0 10.85 -381.0 10.5 -381.05 10.15 -381.25 9.75 -381.4 9.35 -381.5 9.0 -381.5 8.6 -381.5 8.25 -381.65 7.9 -381.85 7.5 -382.0 7.1 -382.0 6.75 -382.0 6.35 -382.15 6.0 -382.5 4.85 -382.95 3.35 Q-383.25 2.35 -383.9 1.5 -384.05 0.5 -384.35 -0.45 L-385.45 -3.05 -386.0 -3.5 -386.4 -3.9 -390.55 -6.4 Q-394.2 -8.55 -398.1 -9.8 L-398.9 -10.15 -399.25 -10.25 -401.0 -10.25 -401.6 -9.85 -402.85 -9.0 -402.5 -9.0 Q-404.9 -7.9 -407.25 -6.9 L-407.75 -6.5" fill="#000000" fill-rule="evenodd" stroke="none"/>
    <path d="M-407.75 -6.5 L-407.25 -6.9 Q-404.9 -7.9 -402.5 -9.0 L-402.85 -9.0 -401.6 -9.85 -401.0 -10.25 -399.25 -10.25 -398.9 -10.15 -398.1 -9.8 Q-394.2 -8.55 -390.55 -6.4 L-386.4 -3.9 -386.0 -3.5 -385.45 -3.05 -384.35 -0.45 Q-384.05 0.5 -383.9 1.5 -383.25 2.35 -382.95 3.35 L-382.5 4.85 -382.15 6.0 -382.0 6.35 -382.0 6.75 -382.0 7.1 -381.85 7.5 -381.65 7.9 -381.5 8.25 -381.5 8.6 -381.5 9.0 -381.4 9.35 -381.25 9.75 -381.05 10.15 -381.0 10.5 -381.0 10.85 -381.0 11.25 -381.0 11.6 -381.0 12.0 -381.0 12.35 -381.2 12.75 -381.45 13.5 -381.55 13.85 -381.85 14.65 -382.0 15.0 -382.4 15.35 -382.75 15.75 -382.9 16.1 -383.0 16.5 Q-386.35 20.5 -390.85 22.9 -393.7 24.45 -396.15 26.6 L-396.35 27.0 -396.8 28.15 -397.05 28.85 -397.35 29.65 -397.5 30.0 -397.5 32.25 -397.5 34.1 -397.45 35.6 -397.4 36.0 -397.1 36.35 -396.75 36.75 -396.55 37.15 -396.35 37.5 -396.15 37.85 Q-395.1 39.1 -393.6 39.3 -388.05 39.85 -382.55 39.55 -377.5 39.25 -374.15 35.6 L-373.9 35.25 -373.75 34.9 -373.5 34.5 Q-372.95 33.85 -372.25 33.35 -370.7 32.3 -369.05 31.45 L-367.75 30.75 -364.75 30.35 -364.4 30.25 -364.35 30.2 -361.4 31.3 Q-359.9 32.0 -358.75 33.25 L-358.5 33.65 -358.15 34.35 -357.75 35.15 -357.65 35.5 -357.5 35.85 -357.5 36.25 -357.5 37.35 -357.5 38.5 -357.5 39.25 -357.5 39.6 -357.65 40.0 -357.75 40.35 -357.9 40.75 -358.0 41.1 -358.15 41.5 -358.4 41.85 -358.7 42.25 -358.9 42.6 -358.95 43.0 -359.05 43.35 -359.25 43.75 -359.85 44.5 -360.3 45.2 -360.6 45.65 -360.9 46.0 -360.95 46.35 Q-360.95 47.0 -361.25 47.55 L-362.05 48.7 -362.5 49.35 -362.75 49.75 -363.15 50.1 -364.25 51.25 -364.6 51.6 -365.0 51.5 -365.7 51.7 -366.75 52.25 -368.0 53.05 -368.4 53.35 Q-377.8 57.05 -388.15 57.2 -404.2 57.5 -411.0 43.35 L-411.0 43.0 -411.0 42.6 -411.15 42.25 -411.35 41.85 -411.5 41.5 -411.5 41.1 -411.5 40.75 -411.65 40.35 -411.8 40.0 -412.0 39.6 -412.0 39.25 -412.0 38.85 -412.15 38.5 -412.25 38.1 -412.4 37.75 -412.5 37.35 -412.5 37.0 -412.5 36.6 -412.5 36.25 -412.5 35.85 -412.65 35.5 -412.75 35.1 -412.9 34.75 -413.0 34.35 -413.0 33.6 -413.0 32.5 -413.0 31.75 -413.0 31.0 -413.0 30.6 -412.9 30.25 -412.75 29.85 -412.65 29.5 -412.5 29.1 -412.5 28.75 -412.5 28.35 -412.5 28.0 -412.35 27.65 -412.15 27.25 -412.0 26.85 -412.0 26.5 -412.0 26.1 Q-411.5 24.55 -410.6 23.15 L-407.5 18.35 -405.5 16.0 -404.05 15.15 Q-402.55 14.1 -400.75 13.6 L-399.4 13.25 -398.6 12.7 Q-395.4 11.0 -392.35 9.1 L-390.9 7.75 -390.75 7.35 -390.65 7.0 -390.5 6.6 -390.5 4.35 -390.5 2.5 -390.5 1.0 -390.5 0.6 -390.65 0.25 -391.05 -0.45 -391.35 -0.9 -391.85 -1.65 -392.0 -2.0 Q-393.35 -3.6 -395.15 -4.55 -401.2 -7.75 -407.65 -4.75 L-408.15 -4.4 -408.65 -4.05 -409.4 -3.65 -409.75 -3.25 -411.25 -1.75 -412.4 -0.65 -412.75 -0.25 -412.9 0.1 -413.0 0.5 -413.4 0.85 -413.75 1.25 -413.9 1.6 -414.0 2.0 -414.4 2.35 -414.75 2.75 -415.1 3.15 -415.35 3.5 -415.5 3.7 -415.5 3.6 -415.5 3.25 -415.5 2.85 -415.5 2.5 -415.0 1.4 -414.65 0.6 -414.25 -0.1 -414.0 -0.5 -413.65 -0.9 -413.25 -1.25 -412.9 -1.65 -412.5 -2.0 -412.35 -2.35 -412.15 -2.75 -411.85 -3.1 -411.5 -3.5 -409.1 -4.95 Q-408.4 -5.45 -408.0 -6.1 L-407.75 -6.5" fill="#80a839" fill-rule="evenodd" stroke="none"/>
    <path d="M-406.15 -35.7 L-406.0 -36.1 -405.8 -36.65 -405.6 -37.0 -404.95 -37.75 -404.3 -38.45 -403.55 -39.2 -403.15 -39.55 -403.0 -39.95 -402.75 -40.45 -402.6 -40.8 -402.4 -41.2 -401.4 -42.25 -400.25 -43.7 -398.9 -44.95 -398.7 -45.35 -398.55 -45.75 Q-397.0 -47.75 -395.1 -49.1 L-388.45 -54.15 -388.0 -54.4 -387.5 -54.5 -386.55 -54.85 -386.25 -55.15 -385.9 -55.35 -385.65 -55.65 -384.2 -56.1 -382.85 -56.7 -381.95 -57.0 -381.4 -57.4 -380.3 -58.15 -379.75 -58.6 -376.5 -59.75 -372.65 -60.55 -371.05 -61.15 -369.55 -61.7 -368.75 -62.0 -367.1 -63.15 -365.2 -64.5 -364.7 -64.85 -364.35 -65.0 -363.95 -65.1 -363.65 -65.3 -363.0 -65.3 -362.55 -65.35 -362.1 -65.4 -361.25 -65.15 -361.25 -65.2 Q-359.6 -64.0 -358.3 -62.1 -357.3 -60.75 -357.2 -59.15 L-357.2 -58.9 -357.3 -58.6 -357.35 -58.3 -357.5 -57.75 -357.7 -57.5 -357.8 -57.2 -357.95 -56.95 -358.15 -56.8 -358.15 -56.45 -358.25 -56.15 -358.4 -55.55 -358.5 -54.9 -358.5 -54.6 -358.45 -54.25 -358.45 -53.85 -358.4 -53.5 -358.45 -53.2 -358.5 -52.85 -358.4 -52.5 -358.4 -52.1 -358.35 -51.75 -358.45 -51.45 -358.5 -51.1 -358.5 -50.8 -357.8 -46.25 -356.55 -37.9 -356.1 -36.35 -355.8 -35.15 -355.45 -33.75 -355.45 -33.3 -355.2 -32.8 -354.7 -32.1 -354.35 -31.55 -354.15 -31.05 -354.05 -30.55 -354.0 -30.15 -353.95 -29.7 -354.0 -29.3 -354.1 -28.9 -354.15 -28.5 -354.15 -28.05 -354.05 -27.6 -353.85 -26.65 -353.7 -25.65 -353.75 -25.25 -353.85 -24.85 -353.9 -24.05 -354.05 -23.2 -354.3 -22.85 -354.5 -22.45 -354.75 -22.1 -354.85 -21.5 -355.0 -20.25 -355.6 -19.05 -357.15 -17.45 -357.95 -16.95 Q-360.3 -17.15 -362.3 -19.15 L-363.25 -19.9 -363.6 -20.6 -363.9 -21.2 -364.0 -21.8 -364.05 -22.2 -364.05 -22.7 -364.0 -23.1 -363.85 -23.6 -363.65 -24.5 -363.65 -24.6 -363.65 -24.9 -363.75 -25.45 Q-370.6 -30.1 -378.4 -34.35 L-378.55 -33.95 -378.65 -33.6 -378.8 -33.2 -378.9 -32.7 -379.2 -32.4 -379.45 -32.05 -379.8 -31.7 -380.2 -31.45 -380.75 -31.25 Q-382.8 -31.15 -384.7 -32.05 L-385.55 -32.0 -386.4 -31.95 Q-387.5 -31.4 -388.7 -31.1 L-392.25 -30.45 -400.25 -26.9 -407.65 -23.55 -408.1 -23.5 -409.0 -23.65 -410.25 -24.5 -410.5 -25.3 -410.65 -25.95 -410.8 -26.6 -410.7 -27.15 -410.6 -27.7 -409.7 -29.6 -408.85 -31.5 -407.55 -34.25 -407.3 -34.5 -406.85 -34.95 -406.55 -35.3 -406.15 -35.7 M-362.8 -60.15 L-363.55 -59.5 -364.25 -59.2 -364.65 -59.1 Q-364.95 -58.7 -365.4 -58.45 L-366.25 -57.85 -367.0 -57.55 -367.65 -57.45 -373.2 -55.05 Q-374.65 -54.45 -376.25 -54.35 L-377.1 -54.0 -377.5 -53.85 -379.25 -52.65 -380.65 -52.2 Q-381.45 -51.4 -382.45 -50.95 L-384.3 -50.25 -386.75 -48.45 -388.95 -46.4 -390.05 -45.5 -391.35 -44.9 Q-391.9 -43.9 -392.75 -43.2 L-394.25 -42.1 -394.4 -41.65 -394.55 -41.25 -396.35 -39.2 -397.85 -37.35 -398.1 -37.0 -398.35 -36.55 -398.45 -36.2 -398.7 -35.7 -399.0 -35.35 -399.3 -34.95 -399.3 -34.85 -392.65 -37.0 -389.55 -37.4 Q-386.45 -38.75 -383.2 -38.15 L-382.65 -38.15 -382.55 -38.55 -382.4 -39.0 -382.25 -39.4 -382.05 -39.7 -381.75 -40.0 -380.9 -40.5 -380.0 -41.0 Q-372.15 -39.3 -365.35 -32.95 L-364.75 -32.85 -364.3 -33.0 -363.95 -33.1 Q-361.4 -33.15 -359.95 -30.45 L-359.75 -29.9 -359.55 -28.8 -359.3 -28.95 -358.85 -29.15 -358.8 -29.2 Q-358.95 -30.0 -359.35 -30.6 L-359.9 -31.7 Q-360.5 -35.85 -361.5 -39.85 -362.35 -43.45 -362.55 -47.0 L-362.7 -47.9 Q-362.6 -48.65 -362.65 -49.35 L-362.85 -50.9 -362.85 -51.3 -362.85 -51.55 -362.7 -51.9 -362.65 -52.2 -362.7 -52.95 -362.75 -53.7 -362.65 -54.0 -362.6 -54.3 -362.65 -54.65 -362.75 -55.05 -362.75 -55.45 -362.1 -57.75 Q-361.7 -59.1 -362.05 -60.3 L-362.3 -60.6 -362.8 -60.15" fill="#000000" fill-rule="evenodd" stroke="none"/>
    <path d="M-362.8 -60.15 L-362.3 -60.6 -362.05 -60.3 Q-361.7 -59.1 -362.1 -57.75 L-362.75 -55.45 -362.75 -55.05 -362.65 -54.65 -362.6 -54.3 -362.65 -54.0 -362.75 -53.7 -362.7 -52.95 -362.65 -52.2 -362.7 -51.9 -362.85 -51.55 -362.85 -51.3 -362.85 -50.9 -362.65 -49.35 Q-362.6 -48.65 -362.7 -47.9 L-362.55 -47.0 Q-362.35 -43.45 -361.5 -39.85 -360.5 -35.85 -359.9 -31.7 L-359.35 -30.6 Q-358.95 -30.0 -358.8 -29.2 L-358.85 -29.15 -359.3 -28.95 -359.55 -28.8 -359.75 -29.9 -359.95 -30.45 Q-361.4 -33.15 -363.95 -33.1 L-364.3 -33.0 -364.75 -32.85 -365.35 -32.95 Q-372.15 -39.3 -380.0 -41.0 L-380.9 -40.5 -381.75 -40.0 -382.05 -39.7 -382.25 -39.4 -382.4 -39.0 -382.55 -38.55 -382.65 -38.15 -383.2 -38.15 Q-386.45 -38.75 -389.55 -37.4 L-392.65 -37.0 -399.3 -34.85 -399.3 -34.95 -399.0 -35.35 -398.7 -35.7 -398.45 -36.2 -398.35 -36.55 -398.1 -37.0 -397.85 -37.35 -396.35 -39.2 -394.55 -41.25 -394.4 -41.65 -394.25 -42.1 -392.75 -43.2 Q-391.9 -43.9 -391.35 -44.9 L-390.05 -45.5 -388.95 -46.4 -386.75 -48.45 -384.3 -50.25 -382.45 -50.95 Q-381.45 -51.4 -380.65 -52.2 L-379.25 -52.65 -377.5 -53.85 -377.1 -54.0 -376.25 -54.35 Q-374.65 -54.45 -373.2 -55.05 L-367.65 -57.45 -367.0 -57.55 -366.25 -57.85 -365.4 -58.45 Q-364.95 -58.7 -364.65 -59.1 L-364.25 -59.2 -363.55 -59.5 -362.8 -60.15" fill="#80a839" fill-rule="evenodd" stroke="none"/>
  </g>
</svg>
