<?xml version="1.0" encoding="UTF-8" standalone="no"?>
<svg xmlns:ffdec="https://www.free-decompiler.com/flash" xmlns:xlink="http://www.w3.org/1999/xlink" ffdec:objectType="shape" height="120.85px" width="91.4px" xmlns="http://www.w3.org/2000/svg">
  <g transform="matrix(1.0, 0.0, 0.0, 1.0, 383.35, 35.25)">
    <path d="M-345.7 31.0 L-346.3 28.9 -346.05 28.8 -345.7 28.55 -345.5 28.2 -345.35 27.75 -345.3 25.95 -345.25 24.45 -345.5 24.1 -345.7 23.7 -345.75 23.35 -345.7 22.95 -345.7 22.55 -345.85 22.15 -346.1 21.85 -346.15 21.5 -346.15 21.1 -346.15 20.8 -346.9 18.15 Q-347.35 17.05 -347.4 16.0 L-347.45 15.7 -348.15 14.3 Q-348.45 13.7 -348.15 13.15 L-350.3 7.85 Q-351.85 4.7 -352.35 1.55 L-352.3 1.2 -352.3 0.9 -352.45 0.2 Q-352.7 0.0 -352.55 -0.2 L-352.6 -0.5 -352.45 -1.2 -352.45 -1.6 -352.4 -1.9 -352.55 -2.55 -352.7 -2.95 -352.7 -3.25 -352.65 -3.65 -352.15 -7.1 -351.7 -10.15 -351.45 -10.55 -351.2 -10.85 -351.1 -11.25 -351.05 -11.6 -350.8 -13.35 -350.6 -15.05 -350.4 -15.35 -350.15 -15.75 -349.95 -16.05 -349.85 -16.8 -349.85 -17.1 -349.75 -17.5 -349.55 -17.8 -349.4 -18.2 -349.15 -18.6 -349.15 -18.9 -349.05 -19.25 Q-348.4 -20.95 -347.2 -22.3 -345.9 -24.25 -345.4 -26.25 L-346.0 -26.95 -346.5 -27.2 -346.0 -29.8 Q-343.75 -29.65 -341.45 -28.85 L-341.3 -28.8 -341.0 -28.6 -340.65 -28.2 Q-336.65 -26.9 -333.3 -24.7 L-328.25 -21.4 -327.15 -20.75 -327.05 -20.35 -326.95 -20.1 -326.5 -19.65 -326.2 -19.35 -325.05 -18.6 -324.7 -18.3 -324.35 -17.95 -324.0 -17.6 -324.0 -17.35 -324.25 -17.25 -324.3 -16.85 -324.55 -15.5 -324.65 -14.55 -324.45 -14.1 -324.35 -13.75 -324.45 -13.45 -324.7 -13.0 -324.9 -12.7 -325.15 -10.65 -325.4 -8.95 -325.7 -8.6 -326.0 -8.2 -326.05 -7.9 -326.1 -7.6 -326.35 -5.85 -326.55 -4.45 -326.75 -4.1 -327.1 -3.75 -327.2 -3.45 -327.25 -2.7 -327.3 -2.4 -327.45 -2.05 -327.65 -1.7 -327.95 -1.3 -328.2 -0.95 -328.85 -0.8 -329.35 -0.6 -329.6 -0.5 -329.85 -0.25 Q-330.15 -0.2 -330.3 0.05 L-330.7 0.45 -331.7 2.15 Q-332.35 2.75 -332.6 3.55 L-332.65 3.9 -332.7 4.25 -332.9 4.55 -333.1 4.95 -333.35 5.3 -333.35 5.6 -333.4 6.0 -333.45 6.3 -333.2 6.7 -333.1 7.1 -333.05 7.4 -333.1 7.7 -333.3 9.5 -333.4 10.55 -333.15 10.95 -333.05 11.25 -333.0 11.6 -333.05 11.95 -333.05 12.35 -331.7 16.95 Q-330.8 20.05 -329.2 23.2 L-329.25 23.6 -329.25 24.0 Q-328.85 24.6 -328.7 25.4 L-328.3 26.55 -328.3 26.95 -328.3 28.45 -328.35 29.55 -328.05 29.95 -327.9 30.4 -327.95 30.75 -328.15 31.1 -328.3 31.45 -328.25 32.25 -328.2 33.0 -328.15 33.4 -327.7 33.75 -327.0 34.05 -327.0 34.35 -327.5 34.3 -327.5 34.35 -328.25 34.45 -328.65 34.55 -328.95 34.8 -330.55 36.05 -331.3 36.7 -332.5 37.55 -332.85 37.85 -333.25 38.25 -338.85 39.6 -339.25 38.65 -339.65 37.5 -339.9 36.7 -339.9 36.35 -339.95 35.95 -340.35 35.15 Q-340.8 33.95 -341.4 33.2 L-342.15 32.1 -342.55 31.75 -343.6 31.1 Q-344.1 30.75 -344.55 30.75 L-344.55 30.8 -345.3 30.9 -345.7 31.0" fill="#cc3300" fill-rule="evenodd" stroke="none"/>
    <path d="M-365.0 -26.0 L-364.75 -26.45 -364.3 -26.75 -363.95 -27.1 -363.5 -27.45 -363.4 -27.85 -363.2 -28.2 -360.35 -30.4 -357.6 -32.9 -356.7 -33.3 -356.6 -33.4 -356.4 -33.5 -356.05 -33.9 -355.15 -34.35 -354.45 -34.65 -353.75 -35.0 -352.6 -35.2 -352.55 -35.2 Q-339.0 -35.65 -327.7 -28.05 -319.9 -23.05 -316.35 -15.05 L-316.4 -14.7 -316.6 -14.35 -316.75 -14.0 -316.95 -13.65 -317.05 -13.3 -317.1 -12.95 -317.15 -12.6 -317.2 -12.35 -317.25 -11.95 -317.3 -11.6 -317.2 -11.25 -317.05 -10.85 -316.95 -10.55 -316.95 -10.15 Q-317.15 -10.1 -317.0 -9.9 L-317.1 -9.45 -317.15 -9.2 -317.15 -8.8 -317.25 -8.5 -317.45 -8.1 -317.35 -7.8 -317.35 -7.4 Q-317.55 -7.35 -317.4 -7.1 L-317.5 -6.4 -317.55 -6.0 -317.65 -5.4 -317.85 -5.05 -318.05 -4.65 -318.3 -4.35 -318.35 -3.95 -318.45 -3.65 -318.45 -3.25 -318.5 -2.55 -318.6 -2.3 -318.7 -1.6 -318.9 -1.25 -319.1 -0.85 -319.35 -0.5 -319.4 -0.2 -319.4 0.2 -319.5 0.5 -319.55 1.2 -319.65 1.9 -319.75 2.55 -319.95 2.95 -320.15 3.35 -320.35 3.65 Q-320.6 3.75 -320.8 4.0 L-321.2 4.35 -321.65 4.65 -322.5 5.35 -323.3 6.05 -323.7 6.45 -324.0 6.85 -324.2 7.1 -324.3 7.5 -324.35 7.85 -324.4 8.15 -324.45 8.55 -324.55 9.6 -324.65 10.7 -324.75 11.7 -324.8 12.45 -324.85 12.8 -324.65 13.1 -324.6 13.55 -324.45 13.85 -324.45 14.25 -324.55 14.55 -324.4 14.85 -323.95 15.05 Q-323.55 15.4 -323.3 16.15 L-322.5 18.3 -322.35 19.05 -322.35 19.4 -322.35 19.8 -322.2 20.15 -322.05 20.55 -321.9 20.9 -321.9 21.25 -321.9 21.6 -321.85 22.0 -321.7 22.3 -320.95 23.55 -319.2 26.1 -319.0 26.45 -318.8 26.8 -318.7 27.2 -318.1 28.35 -317.75 29.05 -316.95 29.8 -315.45 31.3 -315.05 31.75 -314.85 32.1 -314.65 32.5 -314.0 33.3 -313.65 33.65 -313.4 34.05 -313.25 34.4 -312.95 34.8 Q-309.2 40.05 -306.05 46.05 L-300.85 56.3 -300.9 56.7 -300.85 57.1 -300.7 57.5 Q-300.85 57.7 -300.5 57.9 L-300.45 58.25 -300.25 58.65 -300.2 59.05 -300.2 59.45 -300.0 59.85 -299.8 60.25 -299.6 60.65 -299.6 61.05 -299.6 61.4 -299.4 61.8 -299.2 62.2 -299.05 62.6 -299.0 63.0 -299.0 63.4 -298.85 63.8 -298.6 64.6 -298.0 66.15 -297.8 66.5 -297.8 66.95 -297.8 67.3 -297.75 67.7 -297.6 68.05 -297.35 68.45 -297.25 68.85 -297.2 69.25 -297.2 69.6 -297.2 70.4 -297.1 71.2 -297.0 71.55 -296.85 71.95 -296.75 72.35 -296.55 72.7 -296.55 72.9 -295.25 72.7 -293.7 73.75 -293.45 74.15 -293.25 74.55 -292.9 74.55 -292.6 74.9 -292.35 75.25 -292.15 75.7 -292.05 76.05 -291.95 76.45 -292.05 76.8 -292.15 77.25 -292.3 77.65 -292.5 78.0 Q-300.3 81.4 -308.7 79.1 -312.0 78.5 -314.85 77.3 L-318.45 75.0 -319.6 74.65 Q-319.9 74.5 -320.05 74.5 L-321.05 74.2 Q-321.25 74.15 -321.3 74.3 L-322.0 74.45 -323.2 74.15 -323.65 73.75 -324.1 73.4 -324.3 72.95 -324.5 72.6 -324.6 72.2 -324.65 71.1 -324.7 69.1 -324.8 67.55 -324.95 67.2 -325.05 66.75 -325.25 66.4 -325.35 66.0 -325.4 65.6 -325.35 65.2 -325.4 64.8 -325.45 64.45 -325.55 64.05 -325.7 63.65 -325.9 63.25 -326.0 62.85 -326.0 62.5 -326.05 62.05 -327.0 60.15 -328.05 57.35 -328.4 56.55 -328.35 56.2 -328.4 55.75 -328.7 55.4 -328.85 54.95 -328.95 54.6 -329.0 54.2 -329.05 53.85 -330.3 51.5 -332.45 47.95 -332.65 47.55 -332.95 47.2 -333.45 46.7 -334.15 45.9 -334.4 45.55 -334.55 45.15 -334.55 44.75 -334.55 44.45 -338.55 45.15 -338.5 45.7 -338.45 46.85 -338.55 47.3 -338.65 47.65 -338.8 48.05 -338.8 48.4 -338.7 50.0 -338.55 52.8 -338.5 53.95 -338.65 54.4 -338.8 54.75 -338.95 55.15 -338.95 55.5 -338.9 55.95 -339.55 57.95 -340.75 60.65 -341.1 61.4 -341.45 61.8 -341.8 62.2 -342.2 62.6 -342.75 63.75 Q-343.35 64.4 -343.55 65.3 L-343.85 66.15 -344.2 66.5 -344.55 66.95 -344.95 67.3 Q-347.4 70.6 -350.45 73.75 -352.35 75.4 -354.65 76.05 L-356.0 77.65 -356.4 78.0 Q-355.95 78.35 -355.55 79.15 -354.75 80.55 -354.5 82.25 L-354.55 82.6 -354.65 83.0 -354.75 83.35 -354.95 83.75 -355.2 84.1 -355.65 84.5 -355.95 84.75 -366.15 85.6 -376.2 84.75 -376.65 84.35 -377.05 84.0 -377.75 83.25 -379.0 80.15 -380.9 76.45 -380.95 76.05 -381.0 75.7 -381.0 75.25 -381.25 74.55 -381.8 72.95 -382.55 71.8 -382.55 71.4 -382.7 71.1 -382.8 70.65 -383.1 69.9 -383.2 68.75 -383.3 66.4 -383.3 65.2 -383.35 64.95 -383.3 64.8 -383.2 64.45 -382.9 64.05 -382.6 63.65 -382.25 63.25 -381.9 62.85 Q-380.6 62.1 -379.55 61.0 L-377.85 58.9 -377.65 58.55 -377.55 58.15 -377.3 57.8 -376.6 57.0 -375.55 55.75 -375.2 55.4 -375.0 54.95 -374.8 54.6 -374.65 54.2 -374.3 53.85 -373.95 53.4 -373.25 52.6 -372.55 51.5 Q-371.95 50.55 -371.7 49.45 L-371.6 49.1 -371.2 48.65 -370.85 48.3 -370.8 47.85 -370.65 47.55 -370.4 47.15 -370.45 46.75 -370.5 46.35 -370.45 45.95 -370.5 45.55 -370.05 44.35 -369.4 42.4 -369.25 41.6 -369.2 41.25 -369.25 40.85 -369.0 40.05 -368.7 38.9 -368.4 38.3 -368.8 37.65 -370.1 36.1 -370.95 35.3 Q-372.2 32.4 -373.65 29.85 -375.2 27.45 -375.95 25.05 -376.3 24.0 -376.85 23.2 L-377.05 22.55 -377.5 21.0 -377.85 19.9 -377.85 19.55 -377.85 19.15 -378.0 18.8 -378.0 18.4 -378.15 18.05 -378.25 17.65 -378.25 17.4 -378.2 17.0 -378.4 16.65 -378.55 16.25 -378.65 15.9 -378.55 15.5 -378.55 15.2 -378.55 14.8 -378.5 14.45 -378.5 14.15 -378.7 13.8 -378.8 13.4 -378.9 13.05 -378.85 12.65 -378.8 12.3 -378.8 11.95 -378.75 11.6 -378.8 11.25 -378.9 10.95 -379.05 10.55 -379.15 10.2 -379.1 9.85 -379.05 9.45 -379.0 9.05 -379.1 8.8 -379.25 8.4 -379.25 8.05 -379.35 7.7 -379.3 7.4 -379.3 7.05 -379.25 6.3 -379.1 5.25 -379.15 4.95 -379.35 4.55 -379.45 4.25 -379.05 1.1 -378.65 -2.05 -378.3 -4.1 -378.25 -4.45 -378.0 -4.8 -377.85 -5.15 -377.65 -5.55 -377.6 -5.85 -377.55 -6.15 -377.5 -6.55 -377.45 -6.85 -377.3 -7.2 -377.1 -7.6 -376.95 -7.9 -376.75 -8.25 -376.7 -8.6 -376.65 -8.95 -376.6 -9.25 -376.65 -9.6 -376.2 -10.35 -375.45 -11.65 Q-375.2 -12.45 -374.55 -13.05 L-374.55 -13.4 -374.5 -13.75 -374.15 -14.5 -373.4 -15.85 -372.85 -16.85 -372.55 -17.25 -372.0 -17.6 -371.5 -18.7 -369.55 -21.15 -369.05 -21.8 -368.65 -22.25 -368.2 -22.5 -367.4 -23.25 -367.0 -23.55 -366.7 -23.9 -366.55 -24.25 -366.25 -24.6 -365.95 -25.0 -365.4 -25.35 -365.25 -25.7 -365.0 -26.0 M-346.0 -29.8 L-347.45 -29.95 -351.8 -30.1 -352.3 -29.85 Q-354.9 -28.7 -357.15 -26.9 L-359.9 -24.5 -360.35 -23.85 -361.85 -22.15 -362.6 -21.3 -362.85 -20.95 -363.05 -20.6 -363.35 -20.35 -364.3 -19.45 -365.4 -18.55 -366.45 -17.15 -368.5 -14.4 -368.9 -14.0 Q-369.15 -13.1 -369.6 -12.35 L-371.05 -9.45 -371.7 -8.5 -371.8 -8.1 -371.85 -7.8 -371.9 -7.1 -372.0 -6.4 -372.2 -6.0 -372.35 -5.75 -372.6 -5.35 -372.7 -5.05 -372.75 -4.65 -372.85 -4.35 -372.85 -3.95 -373.05 -3.65 -373.25 -3.25 -373.5 -2.95 -373.7 -1.6 -374.05 1.2 -374.25 2.6 -374.2 2.95 -374.05 3.3 -374.0 3.65 -373.9 4.0 -373.95 4.35 -374.0 4.65 -374.1 5.35 -374.2 6.45 -374.1 6.8 -373.95 7.1 -373.8 7.5 -373.85 7.85 -373.9 8.15 -373.95 8.55 -373.95 8.9 -373.8 9.25 -373.7 9.6 -373.6 10.0 -373.65 10.3 -373.65 10.7 -373.7 11.0 -373.75 11.35 -373.7 11.7 Q-373.85 11.8 -373.6 12.1 L-373.45 12.4 -373.4 12.8 -373.4 13.15 -373.45 13.55 -373.45 13.85 -373.35 14.25 -373.3 14.55 -373.2 14.95 -373.05 15.3 -373.1 15.65 -373.15 16.0 -373.15 16.4 -373.0 16.75 -372.85 17.15 -372.75 17.5 -372.75 17.8 -372.75 18.15 Q-372.25 20.45 -371.3 22.55 L-369.75 26.3 Q-369.35 27.5 -368.2 28.55 -367.6 29.6 -367.15 30.8 -366.45 32.55 -364.9 33.95 L-364.1 34.65 -363.85 35.05 -363.7 35.4 -363.6 35.85 -363.4 36.4 -363.25 36.7 -363.05 37.15 -362.9 37.5 -362.85 37.85 -362.85 38.25 -362.85 38.65 -363.05 39.85 -363.8 41.75 -364.15 42.55 -364.1 42.95 -364.15 43.35 -364.4 44.55 -365.05 46.5 -365.4 47.3 -365.4 47.65 -365.4 48.05 -365.35 48.4 -365.3 49.2 -367.1 52.65 -369.0 56.3 -369.4 56.7 -369.75 57.1 -370.4 57.9 -371.0 59.0 -372.75 61.05 -372.9 61.4 -373.05 61.8 -376.15 65.3 -378.25 67.7 -377.7 69.6 -376.2 72.75 -376.05 73.15 -376.05 73.5 -376.05 73.9 -375.1 76.25 Q-374.45 78.05 -373.2 79.85 -367.85 80.55 -362.0 79.75 L-362.0 79.35 -361.95 79.0 -361.95 78.2 -361.85 77.5 -361.6 77.15 -361.45 76.95 -361.5 76.8 -361.5 76.45 -361.5 76.05 -361.4 75.7 -361.25 75.25 -360.4 74.05 Q-359.4 72.75 -358.0 72.2 L-351.6 66.95 -348.9 64.05 Q-348.95 63.35 -348.65 62.8 L-347.7 61.25 -347.3 60.5 -346.9 60.15 -346.6 59.7 -346.2 59.35 -346.1 58.9 -346.0 58.55 -345.7 58.1 -345.3 57.8 -344.65 55.85 -343.85 53.05 -343.65 52.25 -343.75 50.25 -343.9 47.55 -344.0 46.35 -343.85 45.95 -343.75 45.55 -343.7 45.15 -343.55 44.75 -343.6 44.0 -343.65 42.4 -343.7 41.25 -344.4 39.75 -345.3 37.4 -345.65 36.6 -346.1 36.2 -346.8 35.4 -347.35 34.65 -347.5 34.3 -347.45 33.9 -347.45 33.1 -347.45 32.75 -347.2 32.4 -346.4 31.6 -345.7 31.0 -345.3 30.9 -344.55 30.8 -344.55 30.75 Q-344.1 30.75 -343.6 31.1 L-342.55 31.75 -342.15 32.1 -341.4 33.2 Q-340.8 33.95 -340.35 35.15 L-339.95 35.95 -339.9 36.35 -339.9 36.7 -339.65 37.5 -339.25 38.65 -338.85 39.6 -333.25 38.25 -332.85 37.85 -332.5 37.55 -331.3 36.7 -330.55 36.05 -328.95 34.8 -328.65 34.55 -328.25 34.45 -327.5 34.35 -327.5 34.3 -327.0 34.35 Q-326.6 34.25 -326.05 34.6 L-325.4 34.9 -325.05 35.3 Q-324.85 35.4 -324.8 35.7 L-324.45 36.5 -324.4 36.9 -324.45 37.25 -324.55 37.65 -324.7 38.05 -324.8 38.4 -326.45 40.0 -328.75 41.5 -329.45 42.25 -329.65 42.5 -329.25 42.95 -329.05 43.35 -328.8 43.75 -328.25 44.55 -327.95 44.9 Q-327.35 46.5 -326.35 48.1 L-324.25 52.0 -324.15 52.35 -324.1 52.8 -324.05 53.15 -323.75 54.0 -323.35 54.65 -322.9 55.95 -322.85 56.3 -322.9 56.7 -322.35 57.95 -321.55 59.9 -321.1 60.65 -321.1 61.05 -321.1 61.4 -320.9 61.8 -320.7 62.2 -320.55 62.6 -320.5 63.0 -320.5 63.4 -320.45 63.8 -320.4 64.2 -320.25 64.6 -320.05 64.9 -319.85 65.35 -319.75 67.7 -319.7 69.25 Q-317.6 69.25 -315.4 70.65 L-312.05 72.85 -309.05 73.6 Q-307.65 73.8 -306.3 74.55 L-301.7 74.3 Q-301.8 74.1 -301.55 74.05 L-301.55 74.0 -301.8 73.65 -302.0 73.25 -302.05 72.85 -302.1 72.45 -302.1 72.1 -302.1 71.35 -302.15 70.55 -302.35 70.2 -302.5 69.8 -302.7 69.35 -302.75 69.0 -302.7 68.55 -302.75 68.2 Q-302.85 67.5 -303.1 67.05 L-304.05 64.7 -304.45 63.55 -304.5 63.1 -304.55 62.75 -304.65 62.35 -304.9 61.95 -305.1 61.5 -305.1 61.2 -305.1 60.8 -305.15 60.4 -305.45 59.15 Q-305.9 57.85 -306.5 56.8 L-307.3 55.65 -307.8 54.55 -308.85 52.15 -309.2 50.95 -309.65 50.55 -310.0 50.15 -311.6 46.95 -314.35 41.9 -314.75 41.5 -315.1 41.15 -315.5 40.75 -315.7 40.35 -315.8 40.0 -315.8 39.55 -316.1 39.2 -316.45 38.75 -316.85 38.0 -317.15 37.65 -317.55 37.25 -317.9 36.9 -318.7 36.1 -318.85 35.7 -318.95 35.3 -319.75 34.55 -321.25 33.0 -321.7 32.6 -322.1 31.9 -323.15 30.4 -323.6 29.2 -323.95 28.8 -324.3 28.45 -324.5 28.05 -324.55 27.7 -324.95 27.3 -325.3 26.95 -325.45 26.55 -325.8 25.8 -325.8 26.2 -325.8 27.3 -325.8 27.7 -325.8 28.05 -325.6 28.45 -325.3 29.2 -325.3 29.95 -325.3 31.1 -325.3 31.85 -325.4 32.25 -325.75 33.0 -326.0 33.4 -326.4 33.75 -327.0 34.05 -327.7 33.75 -328.15 33.4 -328.2 33.0 -328.25 32.25 -328.3 31.45 -328.15 31.1 -327.95 30.75 -327.9 30.4 -328.05 29.95 -328.35 29.55 -328.3 28.45 -328.3 26.95 -328.3 26.55 -328.7 25.4 Q-328.85 24.6 -329.25 24.0 L-329.25 23.6 -329.2 23.2 Q-330.8 20.05 -331.7 16.95 L-333.05 12.35 -333.05 11.95 -333.0 11.6 -333.05 11.25 -333.15 10.95 -333.4 10.55 -333.3 9.5 -333.1 7.7 -333.05 7.4 -333.1 7.1 -333.2 6.7 -333.45 6.3 -333.4 6.0 -333.35 5.6 -333.35 5.3 -333.1 4.95 -332.9 4.55 -332.7 4.25 -332.65 3.9 -332.6 3.55 Q-332.35 2.75 -331.7 2.15 L-330.7 0.45 -330.3 0.05 Q-330.15 -0.2 -329.85 -0.25 L-329.6 -0.5 -329.35 -0.6 -328.85 -0.8 -328.2 -0.95 -327.95 -1.3 -327.65 -1.7 -327.45 -2.05 -327.3 -2.4 -327.25 -2.7 -327.2 -3.45 -327.1 -3.75 -326.75 -4.1 -326.55 -4.45 -326.35 -5.85 -326.1 -7.6 -326.05 -7.9 -326.0 -8.2 -325.7 -8.6 -325.4 -8.95 -325.15 -10.65 -324.9 -12.7 -324.7 -13.0 -324.45 -13.45 -324.35 -13.75 -324.45 -14.1 -324.65 -14.55 -324.55 -15.5 -324.3 -16.85 -324.25 -17.25 -324.0 -17.35 -324.0 -17.6 -324.35 -17.95 -324.7 -18.3 -325.05 -18.6 -326.2 -19.35 -326.5 -19.65 -326.95 -20.1 -327.05 -20.35 -327.15 -20.75 -328.25 -21.4 -333.3 -24.7 Q-336.65 -26.9 -340.65 -28.2 L-341.0 -28.6 -341.3 -28.8 -341.45 -28.85 Q-343.75 -29.65 -346.0 -29.8 M-346.3 28.9 L-346.55 28.95 -347.25 28.65 -347.7 28.3 -347.75 27.55 -347.85 26.45 -347.8 25.7 -347.85 25.35 -348.1 24.95 -348.25 24.55 -348.25 24.25 -348.25 23.85 -348.25 23.5 -348.4 23.1 -348.7 22.7 -348.7 22.3 -348.7 22.0 -348.65 21.6 -350.3 16.1 -351.65 11.45 -351.95 11.1 -352.3 10.8 -352.55 10.1 Q-353.0 9.65 -353.05 9.0 L-353.2 8.65 -353.25 8.3 -353.1 7.95 -353.5 7.25 -354.4 5.85 -354.35 5.5 -354.3 5.15 -354.25 4.8 -354.55 4.1 -355.05 3.05 -355.0 2.75 -354.95 2.35 -354.85 1.65 -355.0 1.3 -355.15 0.95 -355.2 0.6 -355.15 0.3 -355.1 -0.4 -355.0 -1.1 -355.1 -1.45 -355.25 -1.85 -355.35 -2.2 -354.8 -6.25 -354.15 -10.8 -354.15 -11.05 -353.7 -11.5 -353.5 -11.8 -353.25 -13.9 -352.95 -15.95 -352.9 -16.3 -352.85 -16.6 -352.5 -17.0 -352.3 -17.4 -352.25 -17.75 -352.2 -18.05 -352.15 -18.75 -351.9 -19.1 -351.7 -19.45 -351.5 -19.8 -351.5 -20.15 -351.4 -20.5 -350.05 -22.9 -348.95 -25.15 -348.55 -25.5 -348.15 -25.8 Q-348.15 -26.25 -347.8 -26.45 -347.35 -27.3 -346.55 -27.15 L-346.5 -27.2 -346.0 -26.95 -345.4 -26.25 Q-345.9 -24.25 -347.2 -22.3 -348.4 -20.95 -349.05 -19.25 L-349.15 -18.9 -349.15 -18.6 -349.4 -18.2 -349.55 -17.8 -349.75 -17.5 -349.85 -17.1 -349.85 -16.8 -349.95 -16.05 -350.15 -15.75 -350.4 -15.35 -350.6 -15.05 -350.8 -13.35 -351.05 -11.6 -351.1 -11.25 -351.2 -10.85 -351.45 -10.55 -351.7 -10.15 -352.15 -7.1 -352.65 -3.65 -352.7 -3.25 -352.7 -2.95 -352.55 -2.55 -352.4 -1.9 -352.45 -1.6 -352.45 -1.2 -352.6 -0.5 -352.55 -0.2 Q-352.7 0.0 -352.45 0.2 L-352.3 0.9 -352.3 1.2 -352.35 1.55 Q-351.85 4.7 -350.3 7.85 L-348.15 13.15 Q-348.45 13.7 -348.15 14.3 L-347.45 15.7 -347.4 16.0 Q-347.35 17.05 -346.9 18.15 L-346.15 20.8 -346.15 21.1 -346.15 21.5 -346.1 21.85 -345.85 22.15 -345.7 22.55 -345.7 22.95 -345.75 23.35 -345.7 23.7 -345.5 24.1 -345.25 24.45 -345.3 25.95 -345.35 27.75 -345.5 28.2 -345.7 28.55 -346.05 28.8 -346.3 28.9 M-324.35 -3.4 L-324.55 -3.1 -324.75 -2.7 -324.8 -2.4 Q-325.05 -2.05 -324.9 -1.7 L-325.0 -0.95 -325.4 -0.25 -326.15 0.75 -326.55 1.1 -326.8 1.3 -327.1 1.4 -327.6 1.55 -328.35 1.8 -328.9 2.85 -330.25 4.55 -330.25 4.9 -330.45 5.3 -330.55 5.95 -330.5 7.05 -330.7 8.35 -330.7 8.8 -330.7 9.1 -330.6 9.45 -330.35 10.2 -330.4 10.55 -330.4 10.95 -330.3 11.2 -330.15 11.55 -330.05 11.95 -330.05 12.35 -330.1 12.65 -329.9 13.2 -329.8 12.35 -329.6 10.2 -329.4 8.05 -329.15 6.0 -329.1 5.6 -329.0 5.3 -328.8 4.9 -328.5 4.55 -328.1 4.25 -327.8 3.9 -327.6 3.6 -327.3 3.2 -326.9 2.8 -326.5 2.5 -326.1 2.1 -325.25 1.4 -324.55 0.75 -324.45 0.45 -324.4 0.05 -324.35 -0.25 -324.25 -0.95 -324.15 -1.7 -324.05 -2.4 -323.9 -2.7 -323.75 -3.1 -323.45 -3.4 -323.4 -3.75 -323.3 -4.1 -323.3 -4.45 -323.25 -4.8 -323.2 -5.15 -323.1 -5.55 -323.0 -5.85 -322.8 -6.15 -322.9 -6.55 -322.95 -6.85 -322.9 -7.2 Q-322.75 -7.9 -322.75 -8.6 L-322.4 -10.65 -322.25 -11.85 -322.35 -11.65 -322.6 -11.35 -322.7 -10.3 -322.95 -8.6 -323.05 -8.25 -323.2 -7.9 -323.45 -7.5 -323.65 -7.2 -323.85 -5.85 -324.05 -4.1 -324.15 -3.75 -324.35 -3.4" fill="#000000" fill-rule="evenodd" stroke="none"/>
    <path d="M-345.7 31.0 L-346.4 31.6 -347.2 32.4 -347.45 32.75 -347.45 33.1 -347.45 33.9 -347.5 34.3 -347.35 34.65 -346.8 35.4 -346.1 36.2 -345.65 36.6 -345.3 37.4 -344.4 39.75 -343.7 41.25 -343.65 42.4 -343.6 44.0 -343.55 44.75 -343.7 45.15 -343.75 45.55 -343.85 45.95 -344.0 46.35 -343.9 47.55 -343.75 50.25 -343.65 52.25 -343.85 53.05 -344.65 55.85 -345.3 57.8 -345.7 58.1 -346.0 58.55 -346.1 58.9 -346.2 59.35 -346.6 59.7 -346.9 60.15 -347.3 60.5 -347.7 61.25 -348.65 62.8 Q-348.95 63.35 -348.9 64.05 L-351.6 66.95 -358.0 72.2 Q-359.4 72.75 -360.4 74.05 L-361.25 75.25 -361.4 75.7 -361.5 76.05 -361.5 76.45 -361.5 76.8 -361.45 76.95 -361.6 77.15 -361.85 77.5 -361.95 78.2 -361.95 79.0 -362.0 79.35 -362.0 79.75 Q-367.85 80.55 -373.2 79.85 -374.45 78.05 -375.1 76.25 L-376.05 73.9 -376.05 73.5 -376.05 73.15 -376.2 72.75 -377.7 69.6 -378.25 67.7 -376.15 65.3 -373.05 61.8 -372.9 61.4 -372.75 61.05 -371.0 59.0 -370.4 57.9 -369.75 57.1 -369.4 56.7 -369.0 56.3 -367.1 52.65 -365.3 49.2 -365.35 48.4 -365.4 48.05 -365.4 47.65 -365.4 47.3 -365.05 46.5 -364.4 44.55 -364.15 43.35 -364.1 42.95 -364.15 42.55 -363.8 41.75 -363.05 39.85 -362.85 38.65 -362.85 38.25 -362.85 37.85 -362.9 37.5 -363.05 37.15 -363.25 36.7 -363.4 36.4 -363.6 35.85 -363.7 35.4 -363.85 35.05 -364.1 34.65 -364.9 33.95 Q-366.45 32.55 -367.15 30.8 -367.6 29.6 -368.2 28.55 -369.35 27.5 -369.75 26.3 L-371.3 22.55 Q-372.25 20.45 -372.75 18.15 L-372.75 17.8 -372.75 17.5 -372.85 17.15 -373.0 16.75 -373.15 16.4 -373.15 16.0 -373.1 15.65 -373.05 15.3 -373.2 14.95 -373.3 14.55 -373.35 14.25 -373.45 13.85 -373.45 13.55 -373.4 13.15 -373.4 12.8 -373.45 12.4 -373.6 12.1 Q-373.85 11.8 -373.7 11.7 L-373.75 11.35 -373.7 11.0 -373.65 10.7 -373.65 10.3 -373.6 10.0 -373.7 9.6 -373.8 9.25 -373.95 8.9 -373.95 8.55 -373.9 8.15 -373.85 7.85 -373.8 7.5 -373.95 7.1 -374.1 6.8 -374.2 6.45 -374.1 5.35 -374.0 4.65 -373.95 4.35 -373.9 4.0 -374.0 3.65 -374.05 3.3 -374.2 2.95 -374.25 2.6 -374.05 1.2 -373.7 -1.6 -373.5 -2.95 -373.25 -3.25 -373.05 -3.65 -372.85 -3.95 -372.85 -4.35 -372.75 -4.65 -372.7 -5.05 -372.6 -5.35 -372.35 -5.75 -372.2 -6.0 -372.0 -6.4 -371.9 -7.1 -371.85 -7.8 -371.8 -8.1 -371.7 -8.5 -371.05 -9.45 -369.6 -12.35 Q-369.15 -13.1 -368.9 -14.0 L-368.5 -14.4 -366.45 -17.15 -365.4 -18.55 -364.3 -19.45 -363.35 -20.35 -363.05 -20.6 -362.85 -20.95 -362.6 -21.3 -361.85 -22.15 -360.35 -23.85 -359.9 -24.5 -357.15 -26.9 Q-354.9 -28.7 -352.3 -29.85 L-351.8 -30.1 -347.45 -29.95 -346.0 -29.8 -346.5 -27.2 -346.55 -27.15 Q-347.35 -27.3 -347.8 -26.45 -348.15 -26.25 -348.15 -25.8 L-348.55 -25.5 -348.95 -25.15 -350.05 -22.9 -351.4 -20.5 -351.5 -20.15 -351.5 -19.8 -351.7 -19.45 -351.9 -19.1 -352.15 -18.75 -352.2 -18.05 -352.25 -17.75 -352.3 -17.4 -352.5 -17.0 -352.85 -16.6 -352.9 -16.3 -352.95 -15.95 -353.25 -13.9 -353.5 -11.8 -353.7 -11.5 -354.15 -11.05 -354.15 -10.8 -354.8 -6.25 -355.35 -2.2 -355.25 -1.85 -355.1 -1.45 -355.0 -1.1 -355.1 -0.4 -355.15 0.3 -355.2 0.6 -355.15 0.95 -355.0 1.3 -354.85 1.65 -354.95 2.35 -355.0 2.75 -355.05 3.05 -354.55 4.1 -354.25 4.8 -354.3 5.15 -354.35 5.5 -354.4 5.85 -353.5 7.25 -353.1 7.95 -353.25 8.3 -353.2 8.65 -353.05 9.0 Q-353.0 9.65 -352.55 10.1 L-352.3 10.8 -351.95 11.1 -351.65 11.45 -350.3 16.1 -348.65 21.6 -348.7 22.0 -348.7 22.3 -348.7 22.7 -348.4 23.1 -348.25 23.5 -348.25 23.85 -348.25 24.25 -348.25 24.55 -348.1 24.95 -347.85 25.35 -347.8 25.7 -347.85 26.45 -347.75 27.55 -347.7 28.3 -347.25 28.65 -346.55 28.95 -346.3 28.9 -345.7 31.0" fill="#b1e34d" fill-rule="evenodd" stroke="none"/>
    <path d="M-327.0 34.05 L-326.4 33.75 -326.0 33.4 -325.75 33.0 -325.4 32.25 -325.3 31.85 -325.3 31.1 -325.3 29.95 -325.3 29.2 -325.6 28.45 -325.8 28.05 -325.8 27.7 -325.8 27.3 -325.8 26.2 -325.8 25.8 -325.45 26.55 -325.3 26.95 -324.95 27.3 -324.55 27.7 -324.5 28.05 -324.3 28.45 -323.95 28.8 -323.6 29.2 -323.15 30.4 -322.1 31.9 -321.7 32.6 -321.25 33.0 -319.75 34.55 -318.95 35.3 -318.85 35.7 -318.7 36.1 -317.9 36.9 -317.55 37.25 -317.15 37.65 -316.85 38.0 -316.45 38.75 -316.1 39.2 -315.8 39.55 -315.8 40.0 -315.7 40.35 -315.5 40.75 -315.1 41.15 -314.75 41.5 -314.35 41.9 -311.6 46.95 -310.0 50.15 -309.65 50.55 -309.2 50.95 -308.85 52.15 -307.8 54.55 -307.3 55.65 -306.5 56.8 Q-305.9 57.85 -305.45 59.15 L-305.15 60.4 -305.1 60.8 -305.1 61.2 -305.1 61.5 -304.9 61.95 -304.65 62.35 -304.55 62.75 -304.5 63.1 -304.45 63.55 -304.05 64.7 -303.1 67.05 Q-302.85 67.5 -302.75 68.2 L-302.7 68.55 -302.75 69.0 -302.7 69.35 -302.5 69.8 -302.35 70.2 -302.15 70.55 -302.1 71.35 -302.1 72.1 -302.1 72.45 -302.05 72.85 -302.0 73.25 -301.8 73.65 -301.55 74.0 -301.55 74.05 Q-301.8 74.1 -301.7 74.3 L-306.3 74.55 Q-307.65 73.8 -309.05 73.6 L-312.05 72.85 -315.4 70.65 Q-317.6 69.25 -319.7 69.25 L-319.75 67.7 -319.85 65.35 -320.05 64.9 -320.25 64.6 -320.4 64.2 -320.45 63.8 -320.5 63.4 -320.5 63.0 -320.55 62.6 -320.7 62.2 -320.9 61.8 -321.1 61.4 -321.1 61.05 -321.1 60.65 -321.55 59.9 -322.35 57.95 -322.9 56.7 -322.85 56.3 -322.9 55.95 -323.35 54.65 -323.75 54.0 -324.05 53.15 -324.1 52.8 -324.15 52.35 -324.25 52.0 -326.35 48.1 Q-327.35 46.5 -327.95 44.9 L-328.25 44.55 -328.8 43.75 -329.05 43.35 -329.25 42.95 -329.65 42.5 -329.45 42.25 -328.75 41.5 -326.45 40.0 -324.8 38.4 -324.7 38.05 -324.55 37.65 -324.45 37.25 -324.4 36.9 -324.45 36.5 -324.8 35.7 Q-324.85 35.4 -325.05 35.3 L-325.4 34.9 -326.05 34.6 Q-326.6 34.25 -327.0 34.35 L-327.0 34.05" fill="#80a839" fill-rule="evenodd" stroke="none"/>
  </g>
</svg>
