<?xml version="1.0" encoding="UTF-8" standalone="no"?>
<svg xmlns:ffdec="https://www.free-decompiler.com/flash" xmlns:xlink="http://www.w3.org/1999/xlink" ffdec:objectType="shape" height="3.5px" width="13.3px" xmlns="http://www.w3.org/2000/svg">
  <g transform="matrix(1.0, 0.0, 0.0, 1.0, 6.65, 1.75)">
    <path d="M6.05 -1.45 L6.2 -1.5 Q6.5 -1.5 6.65 -1.3 L6.55 -1.15 6.45 -0.95 6.4 -0.85 6.35 -0.75 6.2 -0.4 6.05 0.0 6.05 0.2 5.95 0.3 5.9 0.35 5.9 0.45 5.85 0.55 5.8 0.65 5.8 0.75 5.8 0.95 5.8 1.05 5.8 1.1 5.8 1.2 5.75 1.3 5.7 1.4 5.7 1.5 5.7 1.7 5.7 1.75 -5.1 1.7 -5.25 1.35 -5.9 0.2 -6.05 -0.15 -6.65 -1.4 -6.3 -1.45 -5.25 -1.6 -4.1 -1.6 2.75 -1.7 5.3 -1.6 5.7 -1.45 6.05 -1.45" fill="#bcf9fe" fill-rule="evenodd" stroke="none"/>
  </g>
</svg>
