<?xml version="1.0" encoding="UTF-8" standalone="no"?>
<svg xmlns:ffdec="https://www.free-decompiler.com/flash" xmlns:xlink="http://www.w3.org/1999/xlink" ffdec:objectType="shape" height="174.05px" width="145.0px" xmlns="http://www.w3.org/2000/svg">
  <g transform="matrix(1.0, 0.0, 0.0, 1.0, 428.0, 84.5)">
    <path d="M-405.45 -43.8 Q-404.7 -45.05 -404.4 -46.4 L-404.2 -46.7 -403.9 -47.15 -403.5 -47.5 -403.15 -47.9 -402.9 -48.25 -402.75 -48.6 -402.5 -49.0 -402.15 -49.4 -401.75 -49.75 -401.55 -50.15 -401.35 -50.5 -401.15 -50.9 -400.75 -51.25 -400.0 -52.0 -398.5 -53.5 -398.4 -53.9 -398.25 -54.25 -397.9 -54.65 -397.5 -55.0 -397.15 -55.4 -396.9 -55.75 -396.75 -56.1 -396.5 -56.5 -396.15 -56.9 -395.75 -57.25 -395.4 -57.65 Q-382.05 -64.55 -367.15 -64.55 L-365.25 -64.75 -358.5 -66.0 -354.05 -65.75 -352.4 -65.4 -352.05 -64.95 -351.85 -64.65 -351.55 -63.85 -351.5 -63.5 Q-352.2 -61.35 -353.35 -59.35 -355.8 -55.3 -357.2 -50.8 L-358.0 -48.5 -358.0 -48.15 -358.0 -47.75 -358.15 -47.4 -358.3 -47.0 -358.7 -45.9 -359.0 -45.15 -359.0 -44.75 -359.0 -44.4 -359.15 -44.0 -359.25 -43.65 -359.4 -43.25 -359.5 -42.9 -359.5 -42.5 -359.5 -42.15 -359.65 -41.75 -359.85 -41.35 -360.0 -41.0 -360.0 -40.65 -360.0 -40.25 -360.15 -39.9 -360.3 -39.5 -360.5 -39.15 -360.5 -38.75 -360.5 -38.0 -360.5 -36.15 -360.5 -35.4 -360.65 -35.0 -360.9 -34.25 -361.4 -32.75 -361.45 -32.45 -361.0 -33.9 -360.2 -36.1 -359.5 -37.65 -359.5 -38.0 -359.5 -38.4 -359.5 -38.75 -359.5 -39.15 -359.35 -39.5 -359.15 -39.9 -359.0 -40.25 -359.0 -40.65 -359.0 -41.0 -359.0 -41.4 -359.0 -41.75 -359.0 -42.15 -358.85 -42.5 -358.65 -42.9 -358.5 -43.25 -358.5 -43.65 -358.5 -44.0 -358.4 -44.4 -358.25 -44.75 -358.0 -45.15 -358.0 -45.5 -358.0 -45.9 -358.0 -46.25 -358.0 -46.65 -357.85 -47.0 -357.65 -47.4 -357.5 -47.75 -357.5 -48.15 -357.5 -48.5 -357.2 -49.25 -356.8 -50.4 -356.15 -51.9 -355.75 -52.25 -355.35 -52.6 -354.75 -52.9 -354.0 -52.95 -354.0 -53.0 Q-351.0 -52.7 -349.0 -50.35 L-346.15 -47.15 -344.9 -44.9 Q-343.85 -43.2 -342.4 -41.85 L-341.65 -41.15 -341.4 -40.75 -341.25 -40.4 -341.0 -40.0 -340.65 -39.65 -340.3 -39.25 -340.0 -38.85 -339.65 -38.15 -338.9 -37.4 -337.75 -36.25 -337.0 -35.5 -336.0 -33.7 -334.35 -31.1 -333.5 -29.5 -333.15 -29.15 -332.75 -28.75 -332.4 -28.4 -332.0 -28.0 -331.85 -27.65 -331.65 -27.25 -331.35 -26.9 -330.65 -26.15 -330.4 -25.75 -330.25 -25.4 -330.0 -25.0 -329.65 -24.65 -329.25 -24.25 -328.9 -23.9 -328.5 -23.5 -328.35 -23.15 -328.15 -22.75 -327.9 -22.5 -328.05 -23.25 -328.35 -24.0 -328.7 -25.1 -329.0 -25.9 -329.0 -27.0 -329.0 -28.5 -329.0 -30.4 -329.0 -30.75 -329.15 -31.1 -329.35 -31.9 -329.75 -33.05 -330.0 -33.75 -330.5 -34.5 -331.15 -35.6 -331.9 -37.15 -332.0 -37.5 -332.4 -37.9 -332.75 -38.25 -332.9 -38.65 -333.05 -39.0 -333.25 -39.4 -333.4 -39.75 -333.65 -40.15 -335.4 -41.6 -339.25 -44.25 -339.4 -44.65 -339.5 -45.0 -339.5 -45.4 -339.5 -45.75 -339.65 -46.1 -339.85 -46.5 -340.0 -46.9 -340.0 -47.25 -340.0 -47.65 -340.0 -48.0 -340.0 -48.4 -340.0 -49.15 -339.85 -49.5 -339.65 -49.9 -339.5 -50.25 -339.5 -50.65 -339.5 -51.0 -339.4 -51.4 -339.25 -51.75 -339.0 -52.15 -339.0 -52.5 -339.0 -52.9 -338.9 -53.25 -338.75 -53.65 -338.65 -54.0 -338.5 -54.4 -338.5 -54.75 -338.5 -55.15 -338.5 -55.5 -338.55 -56.25 -338.65 -56.65 Q-340.75 -58.4 -343.45 -59.15 -345.8 -59.8 -348.15 -60.75 L-348.6 -61.15 -349.0 -61.5 -349.25 -61.9 -349.4 -62.25 -349.5 -62.65 -349.5 -63.0 -349.5 -63.4 -349.5 -63.75 -349.5 -64.15 -349.5 -64.9 -349.4 -65.25 -349.25 -65.65 -349.15 -66.0 -349.0 -66.4 -349.0 -66.75 -349.0 -67.15 -348.85 -67.5 -348.65 -67.9 -348.5 -68.25 -348.5 -68.65 -348.5 -69.0 -348.4 -69.4 -348.25 -69.75 -348.0 -70.15 -348.0 -70.5 -348.0 -70.9 -348.0 -71.25 -348.0 -71.65 -347.85 -72.0 -347.65 -72.4 -347.55 -72.75 -347.5 -73.1 -347.4 -73.5 -347.1 -73.85 -346.75 -74.25 -346.5 -75.0 -345.8 -76.45 Q-345.15 -77.35 -344.65 -78.4 L-342.1 -81.05 Q-339.9 -83.5 -336.75 -84.4 L-336.0 -84.45 -336.0 -84.5 Q-334.15 -84.65 -332.65 -83.45 L-330.15 -81.65 -329.9 -81.25 -329.75 -80.9 -329.5 -80.5 -327.45 -78.15 -325.6 -75.3 -324.65 -74.15 -323.95 -73.05 -323.0 -71.5 -322.15 -69.65 -321.35 -68.9 -320.3 -67.85 -319.15 -66.65 -318.9 -66.25 -318.7 -65.9 -318.15 -65.1 -317.65 -64.4 -317.0 -64.0 -316.3 -63.6 -315.75 -63.25 -315.5 -62.9 -315.3 -62.5 -315.15 -62.15 -315.0 -61.75 -315.0 -59.9 -315.0 -56.9 -315.0 -54.25 -315.15 -53.9 -315.3 -53.5 -315.5 -53.15 -315.5 -52.75 -315.5 -52.4 -315.5 -52.0 -315.5 -51.65 -315.65 -51.25 -315.85 -50.85 -316.0 -50.5 -316.0 -50.15 -316.0 -49.75 -316.0 -49.4 -316.0 -49.0 -316.0 -48.65 -316.15 -48.25 -316.35 -47.85 -316.5 -47.5 -316.5 -47.15 -316.5 -46.75 -316.5 -46.4 -316.5 -46.0 -316.5 -45.25 -316.65 -44.9 -316.75 -44.5 -316.9 -44.15 -317.0 -43.75 -317.0 -41.15 -317.0 -37.0 -317.0 -33.65 -317.15 -33.25 -317.35 -32.85 -317.4 -32.5 -317.35 -32.15 -317.15 -31.75 -317.0 -31.4 -317.0 -31.0 -317.0 -30.25 -317.0 -29.15 -317.0 -28.0 -316.85 -27.65 -316.65 -27.25 -316.5 -26.9 -316.5 -26.5 -316.5 -25.75 -316.5 -24.65 -316.5 -23.5 -316.35 -23.15 -316.15 -22.75 -316.0 -22.4 -316.0 -22.0 -316.0 -21.65 -315.9 -21.25 -315.75 -20.9 -315.55 -20.5 -315.15 -19.75 -315.0 -19.4 -315.0 -19.0 -315.0 -18.65 -315.0 -18.25 -315.0 -18.0 Q-311.2 -17.15 -307.5 -15.95 L-307.5 -16.15 -306.35 -18.75 -305.15 -22.5 -305.0 -22.9 -305.0 -23.25 -305.0 -23.65 -304.85 -24.0 -304.65 -24.4 -304.5 -24.75 -304.5 -25.15 -304.5 -25.5 -304.4 -25.9 -304.25 -26.25 -304.0 -26.65 -304.0 -27.4 -304.0 -28.5 -304.0 -29.65 -303.85 -30.0 -303.65 -30.4 -303.5 -30.75 -303.5 -31.15 -303.5 -31.5 -303.2 -32.25 -302.8 -33.35 -302.5 -34.15 -302.5 -34.5 -302.5 -34.9 -302.4 -35.25 -302.25 -35.65 -302.15 -36.0 -302.0 -36.4 -302.0 -36.75 -302.0 -37.15 -301.85 -37.5 -301.65 -37.9 -301.5 -38.25 -301.5 -38.65 -301.5 -39.0 -301.5 -39.4 -301.4 -39.75 -301.25 -40.15 -301.15 -40.5 -301.0 -40.9 -301.0 -41.25 -301.0 -41.65 -301.0 -42.4 -301.0 -43.15 -300.85 -43.5 -300.65 -43.9 -300.5 -44.25 -300.5 -44.65 -300.5 -45.0 -300.5 -45.4 -300.4 -45.75 -300.25 -46.15 -300.0 -46.5 -299.6 -46.85 -299.15 -47.25 -298.0 -47.45 -298.0 -47.5 -297.5 -47.45 -296.55 -47.2 -295.9 -46.9 -295.35 -46.15 Q-294.95 -45.65 -294.85 -45.05 L-294.5 -43.9 -294.5 -43.5 -294.5 -43.15 -294.4 -42.75 -294.25 -42.4 -294.15 -42.0 -294.0 -41.65 -294.0 -41.25 -294.0 -40.9 -293.7 -40.1 -293.3 -39.0 -293.0 -38.25 -293.0 -37.9 -293.0 -37.5 -292.25 -35.2 -291.0 -31.9 -291.0 -31.5 -291.0 -31.15 -290.65 -30.0 -289.9 -28.15 -289.5 -27.4 -289.5 -27.0 -289.5 -26.65 -289.4 -26.25 -289.25 -25.9 -289.15 -25.5 -289.0 -25.15 -289.0 -24.75 -289.0 -24.4 -288.8 -24.0 -288.65 -23.65 -288.5 -23.25 -288.5 -22.9 -288.5 -22.5 -288.5 -22.15 -288.4 -21.75 -288.25 -21.4 -288.15 -21.0 -288.0 -20.65 -288.0 -20.25 -288.0 -19.9 -288.0 -19.5 -287.7 -18.75 -287.35 -17.65 -287.0 -16.9 -287.0 -16.5 -287.0 -16.15 -287.0 -15.75 -286.95 -15.4 -286.8 -15.0 -286.65 -14.65 -286.5 -14.25 -286.5 -13.9 -286.5 -13.5 -286.5 -13.15 -286.5 -12.75 -286.25 -12.0 -285.85 -10.95 -285.5 -9.75 -285.5 -9.4 -285.5 -9.0 -285.35 -8.65 -285.15 -8.25 -285.0 -7.9 -285.0 -7.15 -285.0 -6.4 -285.0 -5.25 -284.95 -4.9 -284.8 -4.5 -284.65 -4.15 -284.5 -3.75 -284.5 0.0 -284.5 3.2 Q-283.85 4.2 -283.5 5.35 L-283.5 6.1 -283.5 7.25 -283.5 8.35 -283.4 8.75 -283.25 9.1 -283.05 9.9 -283.0 10.25 -283.05 10.6 -283.15 11.0 -283.4 11.75 -283.5 12.1 -283.5 12.5 -283.5 12.85 -283.5 13.25 -283.65 13.6 -283.8 14.0 -284.0 14.35 -284.0 14.75 -284.0 15.1 -284.15 15.5 -284.25 15.85 -284.4 16.25 -284.5 16.6 -284.5 17.0 -284.5 17.35 -284.5 17.75 -284.65 18.1 -284.8 18.5 -285.0 18.85 -285.3 19.2 -285.55 19.5 -285.45 19.55 -284.75 20.25 -284.8 20.6 -284.9 21.0 -285.15 21.35 -287.25 21.85 -286.0 23.0 -285.85 23.35 -285.65 23.75 -285.5 24.1 -285.5 24.5 -285.5 24.85 -285.5 25.25 -285.65 25.6 -285.8 26.0 -286.15 26.75 -286.5 27.5 -286.5 27.85 -286.5 28.25 -286.5 28.6 -286.65 29.0 -286.75 29.35 -286.9 29.75 -287.0 30.1 -287.0 30.5 -287.0 30.85 -287.0 31.25 -287.45 32.4 -288.4 34.25 -289.0 35.35 -289.0 35.75 -289.0 36.1 -289.15 36.5 -289.25 36.85 -289.4 37.25 -289.5 37.6 -289.5 38.0 -289.5 38.35 -289.85 39.15 -290.75 40.55 -291.4 41.75 Q-298.55 45.65 -306.5 42.5 L-306.5 42.6 -306.3 43.0 -306.15 43.35 -306.0 43.75 -306.0 44.1 -306.0 44.5 -305.85 44.85 -305.65 45.25 -305.5 45.6 -305.5 46.0 -305.5 46.35 -305.4 46.75 -305.25 47.1 -305.0 47.85 -305.0 48.25 -305.0 48.6 -302.35 55.85 Q-301.5 58.25 -300.65 62.35 -300.05 65.45 -295.35 68.7 L-295.0 69.0 -294.85 69.35 -294.65 69.75 -294.4 70.1 -293.25 70.9 -292.0 72.0 -291.3 72.4 -290.75 72.75 -290.5 73.1 -290.3 73.5 -290.15 73.85 -290.0 74.25 -290.05 74.6 -290.15 75.0 -290.25 75.35 -290.4 75.75 Q-294.85 79.75 -301.15 79.05 L-311.1 78.05 Q-318.05 77.45 -322.9 72.5 L-323.0 72.1 -323.0 71.75 -323.0 71.35 -322.95 71.0 -323.2 70.7 -323.4 70.35 -323.5 70.0 -323.5 69.6 -323.45 68.85 -323.4 68.5 -323.5 68.1 -323.55 67.75 -323.85 67.0 -324.0 66.6 -324.0 66.25 -324.0 65.85 -324.25 65.1 -324.65 64.0 -324.75 63.6 -324.9 63.25 -325.0 62.85 -325.0 62.5 -325.0 62.1 -325.45 61.0 -325.85 59.85 -326.25 59.1 -326.5 58.35 -330.6 57.1 -331.75 56.6 -334.0 56.2 -334.0 56.25 -334.0 56.6 -334.0 57.0 -334.0 57.1 -333.85 57.35 -333.55 58.15 -333.5 58.5 -333.5 58.8 -333.5 58.85 -333.5 60.0 -334.05 60.0 -334.4 60.35 -334.45 61.1 -334.5 62.25 -334.5 63.75 -335.5 65.9 Q-336.35 67.55 -336.8 69.35 L-336.9 69.75 -337.6 70.5 -338.8 71.55 -339.5 72.0 -340.95 74.05 -343.9 76.75 -345.25 77.15 -346.65 77.6 Q-350.2 79.85 -354.05 81.35 L-354.0 81.5 -352.95 82.15 Q-352.0 82.7 -351.15 83.35 L-350.9 83.75 -350.75 84.1 -350.55 84.9 -350.5 85.25 -350.5 85.4 -350.5 85.5 -350.55 85.85 -350.65 86.25 -350.85 86.65 -350.85 86.7 -350.9 86.75 -350.95 86.85 -351.0 87.0 -351.4 87.35 -351.6 87.5 -351.9 87.75 -352.1 87.85 Q-356.5 90.65 -362.35 88.85 L-368.1 87.55 Q-375.65 86.45 -380.5 80.5 L-380.75 80.1 -380.9 79.75 -381.0 79.35 -381.0 79.0 -381.0 78.6 -381.0 78.25 -381.15 77.9 -381.35 77.5 -381.5 77.1 -381.5 76.75 -381.5 76.35 -381.5 75.6 -381.5 74.85 -381.35 74.5 -381.15 74.1 -380.85 73.65 -381.0 73.0 -381.0 72.6 -380.9 72.25 -380.65 71.5 -380.6 71.15 -380.7 70.75 -381.0 70.0 -381.0 69.6 -381.0 69.25 -381.0 68.85 -381.0 68.5 -380.35 67.0 -378.75 64.35 -378.5 64.0 -377.6 63.3 -376.15 62.25 Q-372.25 60.55 -368.15 59.65 L-367.4 59.35 Q-366.3 58.3 -365.0 57.5 L-362.9 56.35 -362.3 55.9 -363.9 54.9 -364.5 54.5 -364.75 54.4 -364.8 54.5 -365.0 54.85 -365.3 55.2 -365.75 55.6 Q-382.55 60.5 -399.65 57.75 -401.45 57.45 -403.0 56.5 -409.7 54.65 -415.45 50.95 -417.85 49.4 -419.8 47.3 L-422.0 45.0 Q-422.65 43.55 -423.45 42.25 -424.6 40.35 -425.35 38.25 L-426.0 36.35 -427.0 33.35 -427.0 33.0 -427.0 32.6 -427.25 32.25 -427.4 31.85 -427.5 31.5 -427.5 31.1 -427.5 30.75 -427.5 30.35 -427.5 30.0 -427.55 29.65 -427.75 29.25 -427.9 28.85 -428.0 28.5 -428.0 28.1 -428.0 27.75 -428.0 27.35 -428.0 26.6 -428.0 25.1 -427.9 24.75 -427.75 24.35 -427.65 24.0 -427.5 23.6 -427.5 23.25 -427.5 22.85 -427.35 22.5 -427.0 22.5 -427.0 22.1 -427.0 21.35 -427.0 20.6 -426.05 18.35 -424.25 15.35 -424.0 15.0 -423.65 14.6 -423.25 14.25 -422.9 13.85 Q-421.95 13.5 -421.25 12.75 L-419.4 10.85 Q-415.25 8.45 -410.5 8.05 L-410.5 8.0 -409.6 8.2 -408.5 8.0 -405.0 8.3 -404.5 8.4 -404.5 7.75 -404.5 7.0 -404.5 6.25 -404.5 5.85 -404.35 5.5 -404.15 5.1 -404.0 4.75 -404.0 4.35 Q-406.4 5.75 -409.3 4.65 -412.95 3.3 -417.05 3.45 -419.45 3.5 -421.15 1.6 L-421.9 0.35 -422.0 0.0 -422.0 -0.4 -422.0 -0.75 -422.0 -1.15 -422.0 -1.5 -421.9 -1.9 -421.75 -2.25 -421.55 -2.65 -421.35 -3.0 -421.15 -3.4 -420.75 -3.75 -420.4 -4.15 -420.0 -4.5 -419.25 -5.25 -418.9 -5.65 -418.0 -6.05 -414.35 -7.85 -411.75 -8.9 -411.0 -8.95 -411.0 -9.0 -403.5 -8.6 -401.3 -8.1 -400.95 -8.8 -400.25 -9.95 -399.55 -11.0 -399.25 -11.75 -398.9 -12.15 -398.5 -12.5 -398.4 -12.9 -398.25 -13.25 -397.9 -13.65 -397.5 -14.0 -397.4 -14.4 -397.25 -14.75 -397.05 -15.15 -396.85 -15.5 -396.65 -15.9 -396.05 -16.5 -395.9 -16.9 -395.75 -17.25 -395.4 -17.65 -395.0 -18.0 -394.9 -18.4 -394.75 -18.75 -394.55 -19.15 -394.35 -19.5 -394.15 -19.9 -390.15 -23.3 Q-386.25 -26.2 -381.25 -27.4 L-380.5 -27.45 -380.5 -27.5 Q-377.3 -26.8 -374.25 -25.5 L-374.4 -25.75 -374.9 -26.5 -375.0 -26.9 -375.05 -27.25 -375.15 -27.6 -375.5 -28.4 -375.5 -28.75 -375.5 -29.15 -375.5 -29.5 -375.5 -29.9 -375.4 -30.25 Q-374.75 -32.2 -373.65 -33.85 -372.35 -35.85 -371.65 -38.15 L-372.0 -38.5 -372.4 -38.9 -373.15 -39.65 -373.5 -40.0 -373.75 -40.4 -373.9 -40.75 -374.15 -41.15 -374.5 -41.5 -374.9 -41.9 -375.25 -42.25 -375.5 -42.5 -375.85 -42.3 -377.15 -39.3 Q-377.85 -37.55 -379.0 -36.0 L-379.4 -35.65 -379.75 -35.25 -380.25 -34.9 Q-393.9 -33.85 -407.0 -30.0 L-408.15 -30.25 -408.6 -30.65 -409.0 -31.0 -409.25 -31.4 -409.4 -31.75 -409.5 -32.15 -409.5 -32.5 -409.5 -32.9 -409.5 -33.25 -409.5 -34.0 -409.35 -34.35 -408.45 -37.0 -407.4 -40.4 -407.2 -40.7 -406.9 -41.15 -406.5 -41.5 -406.35 -41.9 -405.45 -43.8 M-414.25 -1.9 L-414.5 -1.75 -414.25 -1.75 -408.75 -1.25 -408.5 -1.5 -408.15 -1.75 -407.75 -1.85 -407.0 -1.95 -407.0 -2.0 -405.55 -1.65 Q-404.5 -1.3 -403.65 -0.65 L-403.5 -0.4 -403.5 -0.9 -403.5 -1.65 -403.5 -2.0 -403.1 -2.95 -403.15 -3.0 -403.6 -3.25 -403.75 -3.4 -404.5 -3.55 Q-409.8 -4.8 -414.25 -1.9 M-321.0 -19.4 L-321.0 -19.75 -321.0 -20.15 -321.0 -20.5 -321.05 -20.85 -321.25 -21.25 -321.4 -21.65 -321.5 -22.0 -321.5 -22.75 -321.5 -23.9 -321.5 -25.0 -321.5 -25.75 -321.65 -26.1 -321.85 -26.5 -322.0 -26.9 -322.0 -27.25 -322.0 -28.0 -322.0 -29.15 -322.0 -30.25 -322.15 -30.6 -322.35 -31.0 -322.5 -31.4 -322.5 -31.75 -322.5 -32.15 -322.5 -32.9 -322.5 -33.65 -322.5 -34.0 -322.4 -34.4 -322.25 -34.75 -322.0 -35.15 -322.0 -37.75 -322.0 -41.5 -322.0 -44.9 -321.9 -45.25 -321.75 -45.65 -321.65 -46.0 -321.5 -46.4 -321.5 -46.75 -321.5 -47.15 -321.5 -47.9 -321.5 -48.65 -321.5 -49.0 -321.4 -49.4 -321.25 -49.75 -321.0 -50.15 -321.0 -50.5 -321.0 -50.9 -321.0 -51.25 -321.0 -51.65 -321.0 -52.0 -320.9 -52.4 -320.75 -52.75 -320.5 -53.15 -320.5 -53.5 -320.5 -53.9 -320.5 -54.25 -320.5 -54.65 -320.5 -55.0 -320.4 -55.4 -320.25 -55.75 -320.0 -56.15 -320.0 -56.5 -320.0 -57.25 -320.0 -58.4 -320.15 -59.5 -320.8 -60.25 -321.5 -61.0 -322.65 -62.15 -322.85 -62.5 -323.05 -62.85 -323.25 -63.25 -324.0 -64.0 -325.15 -65.15 -326.25 -66.25 Q-326.85 -67.85 -327.85 -69.2 L-330.9 -73.65 -331.75 -75.25 -332.85 -76.4 -334.35 -77.9 -335.4 -78.9 -335.5 -78.95 -336.2 -78.8 -337.4 -78.15 -338.0 -77.75 -340.15 -74.95 Q-341.55 -73.15 -342.3 -70.95 L-343.0 -69.5 -343.0 -69.15 -343.0 -68.75 -343.0 -68.4 -343.15 -68.0 -343.25 -67.65 -343.4 -67.25 -343.5 -66.9 -343.5 -66.5 -343.5 -66.15 -343.65 -65.75 -343.85 -65.35 -344.0 -65.0 Q-339.8 -63.45 -335.9 -61.0 -333.7 -59.6 -333.0 -57.15 L-333.0 -56.75 -333.0 -56.4 -333.0 -56.0 -333.0 -55.65 -333.15 -55.25 -333.35 -54.85 -333.5 -54.5 -333.5 -54.15 -333.5 -53.75 -333.5 -53.4 -333.5 -53.0 -333.5 -52.65 -333.65 -52.25 -333.85 -51.85 -334.0 -51.5 -334.0 -51.15 -334.0 -50.75 -334.0 -50.4 -334.15 -50.0 -334.25 -49.65 -334.4 -49.25 -334.5 -48.9 -334.5 -48.5 -334.5 -48.15 -334.5 -47.75 -333.95 -47.1 -332.8 -46.2 -332.0 -45.5 -331.3 -45.1 -330.75 -44.75 -330.4 -44.4 -330.0 -44.0 -328.4 -41.4 -325.7 -37.3 Q-325.2 -36.6 -325.0 -35.75 L-325.0 -35.4 -325.0 -35.0 -324.85 -34.65 -324.65 -34.25 -324.5 -33.9 -324.15 -33.1 -324.0 -32.75 -324.0 -31.65 -324.0 -30.15 -324.0 -28.25 -324.0 -27.5 -323.7 -26.75 -323.3 -25.65 -322.8 -24.5 -322.5 -23.75 -322.5 -23.4 -322.5 -23.0 -322.5 -22.65 -322.5 -22.25 -322.65 -21.9 -322.8 -21.5 -323.0 -21.15 -323.3 -20.8 -323.75 -20.4 Q-324.0 -20.25 -324.3 -20.2 L-325.0 -20.0 -326.05 -20.2 -326.05 -20.1 -326.0 -19.75 -326.0 -19.7 -325.05 -19.65 -321.0 -19.15 -320.9 -19.1 -321.0 -19.4 M-365.6 -37.1 L-365.5 -37.4 -365.5 -37.75 -365.5 -38.5 -365.5 -40.4 -365.5 -41.15 -365.35 -41.5 -365.2 -41.9 -364.85 -43.0 -364.5 -43.75 -364.5 -44.15 -364.5 -44.5 -364.4 -44.9 -364.25 -45.25 -364.0 -45.65 -364.0 -46.0 -364.0 -46.4 -363.9 -46.75 -363.75 -47.15 -363.65 -47.5 -363.5 -47.9 -363.5 -48.25 -363.5 -48.65 -363.35 -49.0 -363.2 -49.4 -362.85 -50.5 -362.5 -51.25 -362.5 -51.65 -362.5 -52.0 -362.4 -52.35 -361.75 -53.95 -360.9 -56.5 -360.65 -56.9 -360.1 -58.05 -359.15 -59.9 Q-369.6 -59.4 -381.15 -56.9 -387.15 -55.55 -392.65 -52.9 L-393.0 -52.5 -393.25 -52.1 -393.4 -51.75 -393.65 -51.4 -394.0 -51.0 -394.4 -50.65 -395.15 -49.9 -395.3 -49.5 -395.5 -49.15 -395.8 -48.8 -396.25 -48.4 -396.5 -48.0 -396.75 -47.6 -396.9 -47.25 -397.15 -46.9 -397.5 -46.5 -397.9 -46.15 -398.65 -45.4 -399.0 -45.0 -399.4 -44.25 -401.7 -39.95 Q-402.6 -38.4 -403.0 -36.75 -392.95 -38.95 -382.9 -40.15 -382.7 -40.3 -382.6 -40.55 L-381.75 -42.3 Q-381.15 -43.6 -380.9 -45.0 L-380.65 -45.4 -380.4 -45.75 -380.25 -46.1 -380.0 -46.5 -379.65 -46.9 -379.25 -47.25 -378.9 -47.65 Q-375.8 -48.75 -373.0 -47.05 -370.05 -45.25 -368.65 -42.15 L-368.25 -41.75 -367.1 -40.65 Q-366.3 -39.85 -366.0 -38.75 L-366.0 -38.4 -366.0 -38.0 -366.0 -37.65 -366.0 -37.25 -366.15 -36.9 Q-367.0 -34.95 -368.15 -33.2 -369.3 -31.4 -370.0 -29.4 L-369.95 -29.0 -369.75 -28.25 -369.15 -26.75 -369.0 -26.4 -369.0 -26.0 -369.0 -25.25 -369.0 -23.75 -369.0 -23.4 -369.15 -23.0 -369.2 -22.75 -367.5 -21.6 -367.5 -23.0 -365.75 -21.25 -365.0 -20.5 -364.65 -19.95 -364.65 -20.0 -364.55 -20.1 -364.6 -20.15 -365.0 -20.5 -365.25 -20.9 -365.5 -21.35 -365.65 -21.6 -366.4 -23.15 -366.5 -23.5 -366.5 -24.65 -366.5 -29.9 -366.5 -34.0 -366.4 -34.4 -366.25 -34.75 -366.0 -35.15 -366.0 -35.5 -366.0 -35.9 -365.9 -36.25 -365.75 -36.65 -365.7 -36.75 -365.65 -37.0 -365.6 -37.1 M-386.95 -19.45 L-388.2 -18.45 -389.35 -17.5 -387.9 -17.5 -388.35 -16.85 -388.5 -16.5 -390.75 -14.25 -391.5 -13.5 -391.5 -13.15 -391.65 -12.75 -391.85 -12.35 -392.0 -12.0 -392.4 -11.65 -393.05 -11.3 -393.15 -11.25 -393.75 -10.1 -394.15 -9.4 Q-396.0 -7.45 -396.95 -5.0 L-398.5 -0.4 -398.5 0.75 -398.5 1.85 -398.5 2.6 -398.65 3.0 -398.75 3.35 -398.9 3.75 -399.0 4.1 -399.0 4.85 -399.0 5.6 -399.0 6.35 -399.0 6.75 -399.15 7.1 -399.25 7.5 -399.3 7.85 -399.15 8.25 -399.0 8.6 -399.0 9.35 -399.0 10.1 -399.0 10.85 -398.9 11.25 -398.75 11.6 -398.65 12.0 -398.5 12.35 -398.5 12.75 -398.5 13.1 -398.5 13.5 -398.15 14.65 -397.7 15.8 -397.5 16.1 -397.5 16.5 -397.5 16.85 -397.5 17.25 -396.55 19.85 -395.3 22.5 -395.15 22.85 -394.75 23.25 -394.4 23.6 -394.0 24.0 Q-392.9 26.1 -391.15 27.7 L-388.9 28.6 -388.55 29.0 -388.2 29.75 -388.1 29.95 -386.25 31.1 Q-378.3 31.25 -372.8 37.05 L-372.65 37.1 -370.6 33.45 Q-369.45 31.65 -368.65 29.6 L-367.15 28.1 -365.65 26.6 -365.1 25.5 -364.75 24.35 -364.5 23.6 Q-364.65 22.3 -365.5 21.25 L-367.25 18.75 Q-367.4 18.6 -367.5 18.6 L-368.15 18.6 -368.6 19.0 -368.9 19.25 -369.25 19.35 -370.0 19.5 -371.15 19.25 -371.6 18.85 -372.0 18.5 -372.25 18.1 -372.4 17.75 -372.5 17.35 -372.5 15.5 -372.55 13.6 -372.65 12.85 -373.0 12.5 -373.4 12.15 -373.9 11.85 -374.5 12.25 -375.0 12.6 -375.0 13.0 -375.0 13.35 -375.0 13.75 -375.15 14.1 -375.3 14.5 -375.5 14.85 -375.8 15.2 -376.25 15.6 -376.75 15.8 -377.5 16.0 -378.65 15.75 -379.1 15.35 -379.5 15.0 -379.75 14.6 -379.9 14.25 -380.15 13.85 -380.4 13.5 -380.55 12.35 -380.45 11.25 -380.4 10.6 -380.5 10.5 -380.9 10.1 -381.25 9.75 -381.4 9.35 -381.5 9.0 -381.55 8.65 -381.85 7.85 -382.0 7.5 -382.0 7.1 -382.0 6.75 -382.0 6.0 -382.0 4.85 -382.0 4.5 -381.85 4.15 -381.5 3.35 -380.7 1.9 -380.25 0.75 -379.9 0.35 -378.8 -0.8 Q-377.9 -1.75 -376.65 -2.25 L-375.5 -2.45 -375.5 -2.5 -372.5 -2.35 Q-370.9 -2.2 -369.65 -1.15 L-369.4 -0.75 -369.25 -0.4 -368.85 0.35 Q-368.45 0.85 -368.5 1.5 L-368.55 1.85 -368.65 2.25 -368.85 2.65 -369.0 3.0 -369.4 3.35 -370.05 3.7 -371.0 4.0 -372.15 3.75 -372.6 3.35 -373.0 3.0 -373.25 2.75 -373.4 2.7 -374.75 2.75 -375.15 3.1 -375.65 3.5 -375.95 3.9 -376.15 4.25 -376.35 4.65 -376.75 5.4 -376.9 5.75 -376.75 6.1 -376.5 6.85 -376.35 7.2 -375.25 6.55 Q-374.7 6.2 -374.0 6.0 -372.1 6.1 -370.65 7.4 L-369.65 8.35 -368.55 8.8 -367.9 9.1 -367.55 9.5 -367.35 9.85 -367.15 10.25 -367.1 10.4 -367.2 10.55 -367.25 10.85 -367.25 11.25 -367.0 11.55 -367.0 12.1 -367.0 12.5 Q-366.55 13.3 -365.25 13.6 L-364.65 13.75 -364.55 13.1 -364.5 12.35 -364.4 11.65 -364.25 11.5 -363.5 10.75 -363.15 10.35 -362.7 9.65 -362.15 8.85 -361.9 8.5 -361.8 8.1 -361.7 7.75 -361.4 7.0 -361.25 6.6 -361.25 5.85 -361.25 5.7 -361.2 5.75 -361.15 5.6 -361.25 5.25 -361.25 5.1 -361.25 4.35 -361.25 4.0 -361.0 3.6 -360.8 3.25 -360.75 2.85 -360.75 2.1 -360.75 1.35 -360.75 0.6 -360.75 0.25 -361.0 -0.15 -361.2 -0.5 -361.25 -0.9 -361.25 -1.25 -361.25 -1.65 -361.25 -2.0 -361.25 -2.4 -361.25 -2.75 -361.5 -3.15 -361.75 -3.5 -361.75 -3.9 -361.8 -4.25 -362.0 -4.65 -362.85 -5.7 -363.4 -6.9 -363.5 -7.25 -363.9 -7.65 -364.25 -8.0 -364.25 -8.4 -364.25 -8.75 -364.7 -9.55 -365.05 -10.25 -365.4 -11.0 -365.65 -11.4 -366.4 -12.1 -366.5 -12.15 -366.5 -12.5 -366.45 -12.6 -366.5 -12.7 -367.85 -15.0 -367.5 -15.0 -367.5 -15.05 -367.6 -15.15 -368.0 -15.5 -368.4 -15.9 -369.1 -16.3 -369.6 -16.65 -370.0 -17.0 -370.4 -17.4 -371.6 -18.2 -372.8 -19.2 -374.0 -20.0 -377.05 -20.95 Q-378.25 -21.35 -379.4 -21.9 L-380.75 -21.9 -382.2 -21.3 Q-383.0 -20.95 -383.8 -20.75 L-386.0 -20.25 -386.95 -19.45 M-332.9 -20.25 L-333.1 -20.65 -333.5 -21.35 -333.75 -21.75 -334.5 -22.5 -335.25 -23.25 -335.65 -23.65 -335.85 -24.0 -336.05 -24.35 -336.25 -24.75 -336.65 -25.15 -337.0 -25.5 -338.65 -28.1 -340.85 -31.55 -341.25 -32.25 -341.65 -32.65 -342.0 -33.0 -342.25 -33.4 -342.4 -33.75 -342.65 -34.15 -343.4 -34.9 -344.15 -35.65 -344.5 -36.0 -344.75 -36.4 -344.9 -36.75 -345.15 -37.15 -346.25 -38.25 -347.75 -39.75 -348.15 -40.15 -348.35 -40.5 -348.55 -40.85 -348.75 -41.25 -348.9 -41.65 -349.0 -42.0 -349.4 -42.4 -349.75 -42.75 -350.15 -43.15 -350.35 -43.5 -350.55 -43.85 -350.75 -44.25 -351.15 -44.65 -351.5 -45.0 -351.9 -45.35 -352.65 -45.75 -352.85 -45.35 -353.0 -45.0 -353.0 -44.65 -353.0 -44.25 -353.0 -43.9 -353.15 -43.5 -353.25 -43.15 -353.4 -42.75 -353.5 -42.4 -353.5 -42.0 -353.5 -41.65 -353.65 -41.25 -353.85 -40.85 -354.0 -40.5 -354.0 -40.15 -354.0 -39.75 -354.0 -39.4 -354.0 -39.0 -354.0 -38.65 -354.15 -38.25 -354.35 -37.85 -354.5 -37.5 -354.5 -37.15 -354.5 -36.75 -354.5 -36.4 -355.0 -34.85 -355.8 -32.55 Q-356.0 -31.8 -356.5 -31.15 L-356.5 -30.75 -356.5 -30.4 -356.5 -30.0 -356.65 -29.65 -356.85 -29.25 -357.0 -28.9 -357.0 -28.5 -357.0 -28.15 -357.0 -27.75 -357.0 -27.4 -357.0 -26.65 -357.65 -25.15 -358.25 -22.85 Q-358.55 -21.9 -359.0 -21.0 L-359.0 -20.65 -359.0 -20.25 -359.3 -19.05 -359.75 -17.55 Q-360.0 -16.8 -360.5 -16.15 L-360.5 -15.75 -360.5 -15.4 -360.65 -15.0 -360.75 -14.65 -360.9 -14.25 -361.0 -13.9 -361.0 -13.5 -361.0 -13.35 -359.95 -11.2 Q-357.0 -14.15 -353.05 -16.1 L-353.25 -16.4 -353.4 -16.75 -353.5 -17.15 -353.5 -17.5 -353.5 -17.9 -353.5 -18.25 -353.65 -18.6 -353.2 -21.65 -351.7 -28.45 -351.15 -28.25 -349.25 -21.95 -348.5 -19.65 -348.5 -19.25 -348.5 -18.5 -348.5 -17.9 -348.3 -13.35 -348.25 -12.75 -348.2 -12.45 Q-351.8 -10.95 -355.1 -8.55 -356.6 -7.45 -357.8 -6.1 L-357.5 -5.15 -357.5 -4.75 -357.5 -4.4 -357.5 -4.0 -357.35 -3.65 -357.15 -3.25 -357.0 -2.9 -357.0 -2.5 -357.0 -2.15 -356.9 -1.75 -356.75 -1.4 -356.65 -1.0 -356.5 -0.65 -356.5 -0.25 -356.5 0.5 -356.5 1.6 -356.5 2.35 -356.5 2.75 -356.45 3.1 -356.3 3.5 -356.15 3.85 -356.0 4.25 -356.0 4.6 -356.0 5.0 -356.0 5.75 -356.0 6.5 -356.0 6.85 -356.15 7.25 -356.35 7.65 -356.5 8.0 -356.5 8.35 -356.5 8.75 -356.5 9.1 -356.5 9.5 -356.5 9.85 -356.65 10.25 -356.85 10.65 -357.05 11.35 -357.35 12.15 -357.5 12.5 Q-354.95 15.4 -351.0 17.4 -326.35 30.0 -299.25 24.3 -297.75 24.0 -296.45 23.3 L-303.4 23.5 -304.0 23.75 -306.5 23.75 -309.2 22.9 -309.65 22.6 -309.8 21.1 -309.75 20.0 -309.7 19.65 -309.5 19.25 -309.25 19.0 -309.0 18.9 -308.55 18.8 -308.5 18.75 -307.9 19.05 -307.5 19.35 -307.3 19.75 -307.25 20.1 -307.25 20.5 -307.0 20.7 -306.4 21.0 -304.25 21.0 -292.85 20.1 Q-289.9 16.4 -289.0 11.6 L-289.05 10.8 -289.15 10.75 -289.6 10.35 -290.0 10.0 -290.25 9.6 -290.4 9.25 -290.5 8.85 -290.5 8.5 -290.5 8.1 -290.5 7.75 -290.5 7.35 -290.35 7.0 -290.15 6.6 -290.0 6.25 -291.1 3.7 Q-295.7 -5.0 -304.3 -10.05 L-304.9 -10.45 -305.5 -10.75 -306.55 -11.2 -308.0 -11.8 -309.0 -12.25 -310.25 -12.3 -310.9 -12.55 -311.5 -12.75 -314.0 -12.75 -315.0 -12.75 -315.15 -12.75 -315.9 -12.8 -318.35 -13.1 -320.5 -13.75 -322.5 -13.75 -323.25 -13.5 -324.9 -13.5 -325.5 -13.7 -326.85 -14.05 -327.5 -14.25 -328.5 -14.25 -328.5 -14.4 -331.0 -14.7 -335.95 -14.9 -335.65 -15.75 -335.25 -16.6 Q-333.8 -20.0 -332.8 -20.05 L-332.9 -20.25 M-297.55 -32.9 L-297.75 -32.15 -298.0 -31.4 -298.0 -31.0 -298.0 -30.65 -298.35 -29.85 -298.7 -28.75 -299.0 -28.0 -299.0 -27.25 -299.0 -26.5 -299.0 -25.4 -299.15 -25.0 -299.25 -24.65 -299.4 -24.25 -299.5 -23.9 -299.5 -23.5 -299.5 -23.15 -299.5 -22.75 -299.85 -21.55 -300.65 -19.4 -301.0 -18.65 -301.0 -18.25 -301.0 -17.9 -301.25 -17.15 -301.95 -15.6 -302.5 -14.5 -302.5 -14.15 -302.5 -14.1 -301.85 -13.85 -297.6 -11.45 Q-293.2 -8.25 -290.05 -4.15 L-290.0 -4.05 -290.0 -4.25 -290.0 -5.0 -290.0 -5.75 -290.15 -6.1 -290.35 -6.5 -290.5 -6.9 -290.5 -7.25 -290.5 -7.65 -290.5 -8.0 -290.8 -8.75 -291.2 -9.8 -291.5 -11.0 -291.5 -11.4 -291.5 -11.75 -291.5 -12.15 -291.65 -12.5 -291.75 -12.9 -291.9 -13.25 -292.0 -13.65 -292.0 -14.0 -292.0 -14.4 -292.0 -14.75 -292.15 -15.1 -292.35 -15.5 -292.5 -15.9 -292.5 -16.25 -292.5 -16.65 -292.65 -17.0 -292.75 -17.4 -292.9 -17.75 -293.0 -18.15 -293.0 -18.5 -293.0 -18.9 -293.0 -19.25 -293.15 -19.6 -293.35 -20.0 -293.5 -20.4 -293.5 -20.75 -293.5 -21.15 -293.65 -21.5 -293.75 -21.9 -293.9 -22.25 -294.0 -22.65 -294.0 -23.0 -294.0 -23.4 -294.25 -23.75 -294.4 -24.15 -294.5 -24.5 -294.5 -24.9 -294.5 -25.25 -294.65 -25.6 -294.85 -26.0 -295.25 -26.75 -295.5 -27.5 -295.5 -27.9 -295.5 -28.25 -296.3 -30.1 -297.15 -33.0 -297.2 -33.1 -297.4 -33.5 -297.45 -33.25 -297.55 -32.9 M-309.1 -8.85 L-309.6 -9.2 -309.4 -9.15 -309.1 -8.85 M-321.5 19.75 L-320.95 20.05 -320.4 20.55 -318.0 21.25 -317.4 21.5 -316.75 21.5 -316.35 21.15 -316.0 20.9 -315.5 20.75 -315.0 20.8 Q-314.7 20.85 -314.4 21.05 L-314.0 21.35 -313.8 21.75 -313.75 22.1 -313.75 22.85 -313.75 23.25 -314.0 23.6 -314.3 24.0 -314.65 24.35 -315.0 24.6 Q-319.7 23.7 -324.4 22.25 L-325.5 22.25 Q-334.4 21.6 -342.5 18.2 L-342.75 18.0 -345.0 17.25 -345.75 17.0 -346.55 16.3 Q-347.2 15.8 -347.25 15.1 L-347.25 14.75 -347.1 14.4 -346.75 14.0 -346.05 13.8 -346.0 13.75 -345.4 14.05 -344.65 14.65 -344.5 14.75 Q-342.95 15.2 -341.55 15.95 L-340.75 16.5 -334.9 18.15 -339.15 16.15 -340.9 15.35 Q-341.7 14.45 -342.8 13.9 L-344.5 13.1 -348.25 10.45 -350.5 8.75 -351.2 8.45 -351.65 8.1 -352.15 7.3 -352.2 6.65 -352.0 6.25 -351.75 6.0 -351.5 5.9 -351.0 5.8 -351.0 5.75 Q-350.05 5.65 -349.4 6.35 L-348.25 7.5 -347.05 8.3 -346.25 9.0 -344.2 10.2 -343.4 10.85 Q-339.3 13.25 -334.9 15.1 -333.3 15.8 -331.9 16.85 L-328.55 17.85 Q-327.65 18.2 -326.9 18.85 L-323.9 19.6 -321.5 19.75 M-313.05 33.85 L-312.9 33.1 -312.7 32.75 -312.4 32.35 -312.0 32.05 Q-321.75 31.75 -331.1 29.8 -324.95 32.3 -318.55 34.05 L-317.75 34.35 Q-315.5 34.65 -313.5 35.5 L-313.5 35.0 -313.4 34.6 -313.25 34.25 -313.05 33.85 M-308.4 32.1 L-308.05 32.5 -307.85 32.85 -307.6 33.65 -307.5 34.35 -307.15 34.95 Q-306.4 35.55 -305.8 36.25 L-305.25 36.85 Q-301.45 38.55 -297.15 38.4 L-295.5 38.0 -295.15 37.6 -294.9 37.25 -294.65 36.5 -294.5 36.1 -294.5 35.75 -294.5 35.35 -294.2 34.6 -293.8 33.55 Q-293.45 32.8 -293.4 32.0 L-293.15 31.6 -292.75 30.9 -292.2 29.75 -292.0 29.35 -292.0 29.0 -292.0 28.6 -291.9 28.25 -291.75 27.85 -291.65 27.5 -291.5 27.1 -291.5 26.75 -291.5 26.35 -291.5 26.0 -291.4 25.6 -291.55 25.45 Q-298.45 31.75 -308.4 32.05 L-308.5 32.05 -308.4 32.1 M-334.6 34.3 L-333.75 37.0 -332.25 38.35 Q-331.5 39.05 -331.25 40.0 -331.8 41.35 -332.95 42.3 L-334.75 44.0 -335.0 44.1 -336.0 44.6 -336.65 44.85 -337.0 45.25 -337.25 45.5 -338.1 45.9 -339.05 46.45 -339.0 46.5 Q-338.7 47.4 -338.0 48.0 -337.05 48.75 -336.6 49.85 L-336.45 50.2 -336.25 50.15 -335.5 50.05 -335.5 50.0 -334.05 50.4 Q-333.55 50.55 -333.15 50.85 L-326.45 52.35 Q-325.1 52.6 -323.8 53.15 L-323.75 53.1 -323.0 53.05 -323.0 53.0 -322.05 53.3 -321.4 53.6 -321.05 54.0 -320.85 54.35 -320.5 55.1 -320.5 55.5 -320.5 55.85 -320.5 56.25 -320.65 56.6 -320.8 57.0 -321.0 57.35 -321.05 57.45 -320.85 58.05 -320.05 60.75 -319.5 62.25 -319.5 62.6 -319.5 63.0 -319.2 63.75 -318.95 64.45 -318.65 65.25 -318.5 65.6 -318.5 66.0 -318.5 66.35 -318.4 66.75 -318.25 67.1 -318.15 67.5 -318.0 67.85 -318.0 68.25 -318.0 68.6 -318.0 69.35 -318.0 69.75 Q-316.75 70.25 -315.55 71.0 L-312.75 72.85 Q-305.1 74.1 -298.9 73.0 -299.4 71.9 -300.3 71.05 L-302.6 68.85 -303.15 68.75 -303.6 68.35 -304.4 67.6 -304.75 67.25 -305.05 66.5 -305.8 64.6 -306.0 63.85 -306.0 63.5 -306.0 63.1 -306.55 62.0 -307.25 59.75 -307.5 59.0 -307.5 58.6 -307.5 58.25 -307.5 57.5 -307.5 57.1 -307.45 57.05 -309.0 52.9 -310.25 49.1 -310.5 48.35 -310.5 48.0 -310.5 47.6 -310.5 47.25 -310.7 46.9 -311.2 45.75 -311.5 44.6 -311.5 44.25 -311.5 43.85 -311.65 43.5 -311.75 43.1 -311.9 42.75 -312.15 42.4 -312.5 42.0 -312.9 41.6 -313.65 41.25 -314.75 40.6 -316.6 40.15 -317.75 39.6 -321.1 38.65 -322.25 38.1 Q-328.55 36.6 -334.45 34.0 L-334.75 33.85 -334.6 34.3 M-359.25 83.25 L-359.4 82.85 -359.5 82.5 -359.9 82.1 -360.2 81.7 -360.4 81.35 -360.5 81.0 -360.5 80.6 -360.45 79.85 -360.4 79.5 -360.1 79.15 -359.35 78.4 -358.65 77.75 -358.25 77.65 -358.0 77.65 Q-353.25 74.4 -347.6 72.3 L-346.4 71.85 -346.0 71.5 -345.6 71.15 -344.5 70.35 -344.35 70.0 -344.15 69.6 -343.4 68.85 -341.9 67.35 -341.5 67.0 -340.75 65.15 -339.65 62.1 -339.5 61.75 -339.5 61.0 -339.55 59.5 -339.4 58.0 -339.1 57.65 -339.05 57.65 -339.15 57.5 -339.25 57.1 -339.4 56.75 -339.5 56.35 -339.5 56.0 -339.5 55.6 -340.25 54.1 -341.35 52.3 -342.25 50.75 -342.65 50.35 -343.0 50.0 -343.4 49.6 -343.75 49.25 -343.9 48.85 -344.0 48.5 -344.4 48.1 -344.75 47.75 -345.15 47.35 -345.5 47.0 -345.75 46.6 -345.9 46.25 -346.15 45.85 Q-347.15 44.7 -348.45 43.9 L-351.9 42.1 Q-352.45 41.5 -353.15 41.05 -354.3 40.4 -355.65 40.25 L-356.1 39.85 -356.5 39.5 -356.75 39.1 -356.9 38.75 -357.0 38.35 -357.0 38.0 -357.0 37.6 -357.0 37.25 -357.0 36.85 -356.9 36.5 -356.6 36.15 -356.25 35.75 -355.9 35.35 -355.25 35.1 -355.15 35.1 -355.4 34.85 -355.75 34.5 -356.4 32.55 -357.25 30.75 -357.25 30.35 -357.25 30.0 -357.25 29.25 -357.45 28.9 -357.75 28.5 -357.75 27.0 -357.75 25.1 -357.75 24.75 -357.4 23.6 -356.85 22.1 -356.75 21.75 -356.6 21.4 -356.25 21.0 -355.9 20.6 -355.75 20.35 Q-358.55 18.25 -360.75 15.65 L-360.9 15.75 -361.25 15.85 -362.0 16.0 -362.75 16.1 -362.5 16.5 -362.2 16.9 -361.75 17.6 -361.5 18.0 -360.8 18.75 -360.05 19.85 Q-359.75 20.35 -359.6 21.0 L-359.5 21.35 -359.5 22.1 -359.5 23.25 -359.5 24.35 -359.5 25.85 -360.05 26.95 -360.8 28.5 -361.35 29.65 -361.5 30.0 -362.25 30.75 -363.4 31.85 -364.5 33.0 -364.75 33.4 -364.9 33.75 -365.15 34.5 -365.25 34.85 -365.4 35.25 -365.65 35.6 -366.0 36.0 -366.4 36.35 Q-366.55 37.2 -366.95 37.9 L-367.75 39.35 -368.9 41.25 -369.15 41.6 -369.5 42.0 -369.9 42.35 -370.75 43.1 -371.25 43.3 -372.0 43.5 -372.5 43.45 -373.45 43.3 -372.7 43.8 Q-366.7 48.05 -359.95 50.8 L-356.65 52.5 -354.05 51.45 Q-353.9 51.4 -350.15 54.65 L-350.3 55.0 -350.5 55.35 -350.8 55.7 -351.25 56.1 Q-356.2 57.65 -360.25 60.8 -361.55 61.8 -363.0 62.5 L-363.4 62.85 -364.15 63.6 -364.9 64.25 Q-368.95 65.15 -372.8 66.8 L-373.75 67.1 -374.25 67.5 -374.5 67.85 -375.1 68.65 -375.5 69.35 -375.5 70.1 -375.5 72.0 -375.5 73.0 -375.0 73.0 -375.0 73.5 -375.0 74.25 -375.15 74.6 -375.3 75.0 -375.8 75.7 -376.15 76.1 -376.1 76.5 -376.05 76.85 -376.0 77.25 Q-372.9 81.55 -367.5 82.3 L-359.25 83.35 -359.1 83.4 -359.25 83.25 M-353.65 21.85 L-354.5 23.75 -355.25 25.6 -355.25 26.0 -355.25 26.35 -355.25 27.1 -355.2 27.45 -354.85 28.3 -354.75 28.6 -354.7 29.0 -354.5 29.75 -354.25 30.5 -354.25 30.85 -354.25 31.25 -353.9 32.0 -353.4 33.1 -353.25 33.5 -351.35 35.3 Q-350.65 35.9 -350.3 36.7 L-349.5 37.5 -344.75 40.1 Q-343.3 41.05 -342.15 42.35 L-341.7 43.1 -341.2 43.9 -340.95 44.25 -340.75 44.0 -338.9 43.05 -336.9 42.1 -336.15 41.35 -335.0 40.25 -335.0 39.9 -335.25 39.5 -335.65 39.1 -335.95 38.4 -336.55 37.25 -336.75 36.85 -336.75 36.5 -336.75 36.1 -337.0 35.75 -337.25 35.35 -337.25 35.0 -337.25 34.6 -337.5 34.25 -337.75 33.85 -337.75 33.5 -337.75 33.1 -337.75 32.4 -338.9 31.8 -340.15 30.85 -340.7 29.7 -341.65 27.85 -341.9 27.5 -341.95 26.9 -346.95 25.1 Q-350.55 23.75 -353.55 21.85 L-353.65 21.85 M-411.1 13.55 Q-413.25 13.95 -415.3 14.8 L-416.15 15.1 -418.1 16.65 -420.0 18.5 -420.4 19.25 -421.05 20.35 -421.65 21.1 -421.6 21.5 -421.55 21.85 -421.5 22.25 -421.5 22.5 -421.25 22.5 -421.7 23.25 -421.75 23.35 -421.9 23.75 -422.1 24.05 -422.15 24.1 -423.0 26.75 -422.95 27.1 -422.8 27.5 -422.65 27.85 -422.5 28.25 -422.5 28.6 -422.5 29.0 -422.5 29.35 -422.5 29.75 Q-420.35 42.05 -409.3 48.1 -406.25 49.75 -403.0 50.95 -388.2 56.3 -372.55 52.05 L-370.5 51.5 Q-373.6 49.75 -376.55 47.7 L-378.15 46.35 -378.35 46.0 -378.55 45.65 -378.75 45.25 -379.15 44.85 -379.5 44.5 -379.75 44.1 -379.9 43.75 -380.15 43.4 -380.65 43.0 -381.4 42.6 -381.75 42.25 -382.15 41.85 -382.5 41.5 -382.75 41.1 -382.9 40.75 -383.15 40.35 -383.5 40.0 -383.9 39.6 -384.2 39.2 -384.4 38.85 -384.45 38.1 -384.55 37.0 -384.55 36.95 Q-389.45 36.05 -393.4 32.85 -394.65 32.6 -395.9 31.85 L-396.5 31.5 Q-399.4 30.6 -402.05 29.05 L-402.9 28.6 -403.25 28.25 -403.65 27.85 -404.0 27.5 -404.25 27.1 -404.7 26.4 -405.25 25.6 -405.4 25.25 -405.5 24.85 -405.5 24.5 -405.5 24.1 -405.45 23.35 -405.4 23.0 -405.1 22.65 -404.75 22.25 -404.4 21.85 -403.75 21.6 -403.0 21.55 -403.0 21.5 -402.05 21.8 -401.5 22.05 -401.7 21.6 -402.0 20.85 -402.0 20.5 -402.0 20.1 -402.25 19.75 -402.4 19.35 -402.5 19.0 -402.5 18.6 -402.5 18.25 -402.65 17.9 -402.85 17.5 -403.0 17.1 -403.0 16.75 -403.0 16.35 -403.15 16.0 -403.25 15.6 -403.4 15.25 -403.5 14.85 -403.5 14.5 -403.5 14.1 -403.5 13.75 -403.65 13.4 -403.85 13.05 -410.5 13.95 -411.0 14.0 -411.0 13.5 -411.1 13.55" fill="#000000" fill-rule="evenodd" stroke="none"/>
    <path d="M-386.95 -19.45 L-386.0 -20.25 -383.8 -20.75 Q-383.0 -20.95 -382.2 -21.3 L-380.75 -21.9 -379.4 -21.9 Q-378.25 -21.35 -377.05 -20.95 L-374.0 -20.0 -372.8 -19.2 -371.6 -18.2 -370.4 -17.4 -370.0 -17.0 -369.6 -16.65 -369.1 -16.3 -368.4 -15.9 -368.0 -15.5 -367.6 -15.15 -367.5 -15.05 -367.5 -15.0 -367.85 -15.0 -366.5 -12.7 -366.45 -12.6 -366.5 -12.5 -366.5 -12.15 -366.4 -12.1 -365.65 -11.4 -365.4 -11.0 -365.05 -10.25 -364.7 -9.55 -364.25 -8.75 -364.25 -8.4 -364.25 -8.0 -363.9 -7.65 -363.5 -7.25 -363.4 -6.9 -362.85 -5.7 -362.0 -4.65 -361.8 -4.25 -361.75 -3.9 -361.75 -3.5 -361.5 -3.15 -361.25 -2.75 -361.25 -2.4 -361.25 -2.0 -361.25 -1.65 -361.25 -1.25 -361.25 -0.9 -361.2 -0.5 -361.0 -0.15 -360.75 0.25 -360.75 0.6 -360.75 1.35 -360.75 2.1 -360.75 2.85 -360.8 3.25 -361.0 3.6 -361.25 4.0 -361.25 4.35 -361.25 5.1 -361.25 5.25 -361.15 5.6 -361.2 5.75 -361.25 5.7 -361.25 5.85 -361.25 6.6 -361.4 7.0 -361.7 7.75 -361.8 8.1 -361.9 8.5 -362.15 8.85 -362.7 9.65 -363.15 10.35 -363.5 10.75 -364.25 11.5 -364.4 11.65 -364.5 12.35 -364.55 13.1 -364.65 13.75 -365.25 13.6 Q-366.55 13.3 -367.0 12.5 L-367.0 12.1 -367.0 11.55 -367.25 11.25 -367.25 10.85 -367.2 10.55 -367.1 10.4 -367.15 10.25 -367.35 9.85 -367.55 9.5 -367.9 9.1 -368.55 8.8 -369.65 8.35 -370.65 7.4 Q-372.1 6.1 -374.0 6.0 -374.7 6.2 -375.25 6.55 L-376.35 7.2 -376.5 6.85 -376.75 6.1 -376.9 5.75 -376.75 5.4 -376.35 4.65 -376.15 4.25 -375.95 3.9 -375.65 3.5 -375.15 3.1 -374.75 2.75 -373.4 2.7 -373.25 2.75 -373.0 3.0 -372.6 3.35 -372.15 3.75 -371.0 4.0 -370.05 3.7 -369.4 3.35 -369.0 3.0 -368.85 2.65 -368.65 2.25 -368.55 1.85 -368.5 1.5 Q-368.45 0.85 -368.85 0.35 L-369.25 -0.4 -369.4 -0.75 -369.65 -1.15 Q-370.9 -2.2 -372.5 -2.35 L-375.5 -2.5 -375.5 -2.45 -376.65 -2.25 Q-377.9 -1.75 -378.8 -0.8 L-379.9 0.35 -380.25 0.75 -380.7 1.9 -381.5 3.35 -381.85 4.15 -382.0 4.5 -382.0 4.85 -382.0 6.0 -382.0 6.75 -382.0 7.1 -382.0 7.5 -381.85 7.85 -381.55 8.65 -381.5 9.0 -381.4 9.35 -381.25 9.75 -380.9 10.1 -380.5 10.5 -380.4 10.6 -380.45 11.25 -380.55 12.35 -380.4 13.5 -380.15 13.85 -379.9 14.25 -379.75 14.6 -379.5 15.0 -379.1 15.35 -378.65 15.75 -377.5 16.0 -376.75 15.8 -376.25 15.6 -375.8 15.2 -375.5 14.85 -375.3 14.5 -375.15 14.1 -375.0 13.75 -375.0 13.35 -375.0 13.0 -375.0 12.6 -374.5 12.25 -373.9 11.85 -373.4 12.15 -373.0 12.5 -372.65 12.85 -372.55 13.6 -372.5 15.5 -372.5 17.35 -372.4 17.75 -372.25 18.1 -372.0 18.5 -371.6 18.85 -371.15 19.25 -370.0 19.5 -369.25 19.35 -368.9 19.25 -368.6 19.0 -368.15 18.6 -367.5 18.6 Q-367.4 18.6 -367.25 18.75 L-365.5 21.25 Q-364.65 22.3 -364.5 23.6 L-364.75 24.35 -365.1 25.5 -365.65 26.6 -367.15 28.1 -368.65 29.6 Q-369.45 31.65 -370.6 33.45 L-372.65 37.1 -372.8 37.05 Q-378.3 31.25 -386.25 31.1 L-388.1 29.95 -388.2 29.75 -388.55 29.0 -388.9 28.6 -391.15 27.7 Q-392.9 26.1 -394.0 24.0 L-394.4 23.6 -394.75 23.25 -395.15 22.85 -395.3 22.5 -396.55 19.85 -397.5 17.25 -397.5 16.85 -397.5 16.5 -397.5 16.1 -397.7 15.8 -398.15 14.65 -398.5 13.5 -398.5 13.1 -398.5 12.75 -398.5 12.35 -398.65 12.0 -398.75 11.6 -398.9 11.25 -399.0 10.85 -399.0 10.1 -399.0 9.35 -399.0 8.6 -399.15 8.25 -399.3 7.85 -399.25 7.5 -399.15 7.1 -399.0 6.75 -399.0 6.35 -399.0 5.6 -399.0 4.85 -399.0 4.1 -398.9 3.75 -398.75 3.35 -398.65 3.0 -398.5 2.6 -398.5 1.85 -398.5 0.75 -398.5 -0.4 -396.95 -5.0 Q-396.0 -7.45 -394.15 -9.4 L-393.75 -10.1 -393.15 -11.25 -393.05 -11.3 -392.4 -11.65 -392.0 -12.0 -391.85 -12.35 -391.65 -12.75 -391.5 -13.15 -391.5 -13.5 -390.75 -14.25 -388.5 -16.5 -388.35 -16.85 -387.9 -17.5 -389.35 -17.5 -388.2 -18.45 -386.95 -19.45 M-348.25 -12.75 L-340.0 -15.0 -336.75 -15.6 -335.65 -15.75 -335.95 -14.9 -331.0 -14.7 -328.5 -14.4 -328.5 -14.25 -327.5 -14.25 -326.85 -14.05 -325.5 -13.7 -324.9 -13.5 -323.25 -13.5 -322.5 -13.75 -320.5 -13.75 -318.35 -13.1 -315.9 -12.8 -315.15 -12.75 -315.0 -12.75 -314.0 -12.75 -311.5 -12.75 -310.9 -12.55 -310.25 -12.3 -309.0 -12.25 -308.0 -11.8 -306.55 -11.2 -305.5 -10.75 -304.9 -10.45 -304.3 -10.05 Q-295.7 -5.0 -291.1 3.7 L-290.0 6.25 -290.15 6.6 -290.35 7.0 -290.5 7.35 -290.5 7.75 -290.5 8.1 -290.5 8.5 -290.5 8.85 -290.4 9.25 -290.25 9.6 -290.0 10.0 -289.6 10.35 -289.15 10.75 -289.05 10.8 -289.0 11.6 Q-289.9 16.4 -292.85 20.1 L-304.25 21.0 -306.4 21.0 -307.0 20.7 -307.25 20.5 -307.25 20.1 -307.3 19.75 -307.5 19.35 -307.9 19.05 -308.5 18.75 -308.55 18.8 -309.0 18.9 -309.25 19.0 -309.5 19.25 -309.7 19.65 -309.75 20.0 -309.8 21.1 -309.65 22.6 -309.2 22.9 -306.5 23.75 -304.0 23.75 -303.4 23.5 -296.45 23.3 Q-297.75 24.0 -299.25 24.3 -326.35 30.0 -351.0 17.4 -354.95 15.4 -357.5 12.5 L-357.35 12.15 -357.05 11.35 -356.85 10.65 -356.65 10.25 -356.5 9.85 -356.5 9.5 -356.5 9.1 -356.5 8.75 -356.5 8.35 -356.5 8.0 -356.35 7.65 -356.15 7.25 -356.0 6.85 -356.0 6.5 -356.0 5.75 -356.0 5.0 -356.0 4.6 -356.0 4.25 -356.15 3.85 -356.3 3.5 -356.45 3.1 -356.5 2.75 -356.5 2.35 -356.5 1.6 -356.5 0.5 -356.5 -0.25 -356.5 -0.65 -356.65 -1.0 -356.75 -1.4 -356.9 -1.75 -357.0 -2.15 -357.0 -2.5 -357.0 -2.9 -357.15 -3.25 -357.35 -3.65 -357.5 -4.0 -357.5 -4.4 -357.5 -4.75 -357.5 -5.15 -357.8 -6.1 Q-356.6 -7.45 -355.1 -8.55 -351.8 -10.95 -348.2 -12.45 L-348.25 -12.75 M-332.8 -20.05 L-332.9 -20.25 -332.8 -20.05 M-309.1 -8.85 L-309.4 -9.15 -309.6 -9.2 -309.1 -8.85 M-321.5 19.75 L-323.9 19.6 -326.9 18.85 Q-327.65 18.2 -328.55 17.85 L-331.9 16.85 Q-333.3 15.8 -334.9 15.1 -339.3 13.25 -343.4 10.85 L-344.2 10.2 -346.25 9.0 -347.05 8.3 -348.25 7.5 -349.4 6.35 Q-350.05 5.65 -351.0 5.75 L-351.0 5.8 -351.5 5.9 -351.75 6.0 -352.0 6.25 -352.2 6.65 -352.15 7.3 -351.65 8.1 -351.2 8.45 -350.5 8.75 -348.25 10.45 -344.5 13.1 -342.8 13.9 Q-341.7 14.45 -340.9 15.35 L-339.15 16.15 -334.9 18.15 -340.75 16.5 -341.55 15.95 Q-342.95 15.2 -344.5 14.75 L-344.65 14.65 -345.4 14.05 -346.0 13.75 -346.05 13.8 -346.75 14.0 -347.1 14.4 -347.25 14.75 -347.25 15.1 Q-347.2 15.8 -346.55 16.3 L-345.75 17.0 -345.0 17.25 -342.75 18.0 -342.5 18.2 Q-334.4 21.6 -325.5 22.25 L-324.4 22.25 Q-319.7 23.7 -315.0 24.6 L-314.65 24.35 -314.3 24.0 -314.0 23.6 -313.75 23.25 -313.75 22.85 -313.75 22.1 -313.8 21.75 -314.0 21.35 -314.4 21.05 Q-314.7 20.85 -315.0 20.8 L-315.5 20.75 -316.0 20.9 -316.35 21.15 -316.75 21.5 -317.4 21.5 -318.0 21.25 -320.4 20.55 -320.95 20.05 -321.5 19.75 M-372.5 43.45 L-372.0 43.5 -371.25 43.3 -370.75 43.1 -369.9 42.35 -369.5 42.0 -369.15 41.6 -368.9 41.25 -367.75 39.35 -366.95 37.9 Q-366.55 37.2 -366.4 36.35 L-366.0 36.0 -365.65 35.6 -365.4 35.25 -365.25 34.85 -365.15 34.5 -364.9 33.75 -364.75 33.4 -364.5 33.0 -363.4 31.85 -362.25 30.75 -361.5 30.0 -361.35 29.65 -360.8 28.5 -360.05 26.95 -359.5 25.85 -359.5 24.35 -359.5 23.25 -359.5 22.1 -359.5 21.35 -359.6 21.0 Q-359.75 20.35 -360.05 19.85 L-360.8 18.75 -361.5 18.0 -361.75 17.6 -362.2 16.9 -362.5 16.5 -362.75 16.1 -362.0 16.0 -361.25 15.85 -360.9 15.75 -360.75 15.65 Q-358.55 18.25 -355.75 20.35 L-355.9 20.6 -356.25 21.0 -356.6 21.4 -356.75 21.75 -356.85 22.1 -357.4 23.6 -357.75 24.75 -357.75 25.1 -357.75 27.0 -357.75 28.5 -357.45 28.9 -357.25 29.25 -357.25 30.0 -357.25 30.35 -357.25 30.75 -356.4 32.55 -355.75 34.5 -355.4 34.85 -355.15 35.1 -355.25 35.1 -355.9 35.35 -356.25 35.75 -356.6 36.15 -356.9 36.5 -357.0 36.85 -357.0 37.25 -357.0 37.6 -357.0 38.0 -357.0 38.35 -356.9 38.75 -356.75 39.1 -356.5 39.5 -356.1 39.85 -355.65 40.25 Q-354.3 40.4 -353.15 41.05 -352.45 41.5 -351.9 42.1 L-348.45 43.9 Q-347.15 44.7 -346.15 45.85 L-345.9 46.25 -345.75 46.6 -345.5 47.0 -345.15 47.35 -344.75 47.75 -344.4 48.1 -344.0 48.5 -343.9 48.85 -343.75 49.25 -343.4 49.6 -343.0 50.0 -342.65 50.35 -342.25 50.75 -341.35 52.3 -340.25 54.1 -339.5 55.6 -339.5 56.0 -339.5 56.35 -339.4 56.75 -339.25 57.1 -339.15 57.5 -339.05 57.65 -339.1 57.65 -339.4 58.0 -339.55 59.5 -339.5 61.0 -339.5 61.75 -339.65 62.1 -340.75 65.15 -341.5 67.0 -341.9 67.35 -343.4 68.85 -344.15 69.6 -344.35 70.0 -344.5 70.35 -345.6 71.15 -346.0 71.5 -346.4 71.85 -347.6 72.3 Q-353.25 74.4 -358.0 77.65 L-358.25 77.65 -358.65 77.75 -359.35 78.4 -360.1 79.15 -360.4 79.5 -360.45 79.85 -360.5 80.6 -360.5 81.0 -360.4 81.35 -360.2 81.7 -359.9 82.1 -359.5 82.5 -359.4 82.85 -359.25 83.25 -359.25 83.35 -367.5 82.3 Q-372.9 81.55 -376.0 77.25 L-376.05 76.85 -376.1 76.5 -376.15 76.1 -375.8 75.7 -375.3 75.0 -375.15 74.6 -375.0 74.25 -375.0 73.5 -375.0 73.0 -375.5 73.0 -375.5 72.0 -375.5 70.1 -375.5 69.35 -375.1 68.65 -374.5 67.85 -374.25 67.5 -373.75 67.1 -372.8 66.8 Q-368.95 65.15 -364.9 64.25 L-364.15 63.6 -363.4 62.85 -363.0 62.5 Q-361.55 61.8 -360.25 60.8 -356.2 57.65 -351.25 56.1 L-350.8 55.7 -350.5 55.35 -350.3 55.0 -350.15 54.65 Q-353.9 51.4 -354.05 51.45 L-356.65 52.5 -359.95 50.8 Q-366.7 48.05 -372.7 43.8 L-372.5 43.45" fill="#b1e34d" fill-rule="evenodd" stroke="none"/>
    <path d="M-414.25 -1.9 Q-409.8 -4.8 -404.5 -3.55 L-403.75 -3.4 -403.6 -3.25 -403.15 -3.0 -403.1 -2.95 -403.5 -2.0 -403.5 -1.65 -403.5 -0.9 -403.5 -0.4 -403.65 -0.65 Q-404.5 -1.3 -405.55 -1.65 L-407.0 -2.0 -407.0 -1.95 -407.75 -1.85 -408.15 -1.75 -408.5 -1.5 -408.75 -1.25 -414.25 -1.75 -414.25 -1.9 M-325.0 -20.0 L-324.3 -20.2 Q-324.0 -20.25 -323.75 -20.4 L-323.3 -20.8 -323.0 -21.15 -322.8 -21.5 -322.65 -21.9 -322.5 -22.25 -322.5 -22.65 -322.5 -23.0 -322.5 -23.4 -322.5 -23.75 -322.8 -24.5 -323.3 -25.65 -323.7 -26.75 -324.0 -27.5 -324.0 -28.25 -324.0 -30.15 -324.0 -31.65 -324.0 -32.75 -324.15 -33.1 -324.5 -33.9 -324.65 -34.25 -324.85 -34.65 -325.0 -35.0 -325.0 -35.4 -325.0 -35.75 Q-325.2 -36.6 -325.7 -37.3 L-328.4 -41.4 -330.0 -44.0 -330.4 -44.4 -330.75 -44.75 -331.3 -45.1 -332.0 -45.5 -332.8 -46.2 -333.95 -47.1 -334.5 -47.75 -334.5 -48.15 -334.5 -48.5 -334.5 -48.9 -334.4 -49.25 -334.25 -49.65 -334.15 -50.0 -334.0 -50.4 -334.0 -50.75 -334.0 -51.15 -334.0 -51.5 -333.85 -51.85 -333.65 -52.25 -333.5 -52.65 -333.5 -53.0 -333.5 -53.4 -333.5 -53.75 -333.5 -54.15 -333.5 -54.5 -333.35 -54.85 -333.15 -55.25 -333.0 -55.65 -333.0 -56.0 -333.0 -56.4 -333.0 -56.75 -333.0 -57.15 Q-333.7 -59.6 -335.9 -61.0 -339.8 -63.45 -344.0 -65.0 L-343.85 -65.35 -343.65 -65.75 -343.5 -66.15 -343.5 -66.5 -343.5 -66.9 -343.4 -67.25 -343.25 -67.65 -343.15 -68.0 -343.0 -68.4 -343.0 -68.75 -343.0 -69.15 -343.0 -69.5 -342.3 -70.95 Q-341.55 -73.15 -340.15 -74.95 L-338.0 -77.75 -337.4 -78.15 -336.2 -78.8 -335.5 -78.95 -335.4 -78.9 -334.35 -77.9 -332.85 -76.4 -331.75 -75.25 -330.9 -73.65 -327.85 -69.2 Q-326.85 -67.85 -326.25 -66.25 L-325.15 -65.15 -324.0 -64.0 -323.25 -63.25 -323.05 -62.85 -322.85 -62.5 -322.65 -62.15 -321.5 -61.0 -320.8 -60.25 -320.15 -59.5 -320.0 -58.4 -320.0 -57.25 -320.0 -56.5 -320.0 -56.15 -320.25 -55.75 -320.4 -55.4 -320.5 -55.0 -320.5 -54.65 -320.5 -54.25 -320.5 -53.9 -320.5 -53.5 -320.5 -53.15 -320.75 -52.75 -320.9 -52.4 -321.0 -52.0 -321.0 -51.65 -321.0 -51.25 -321.0 -50.9 -321.0 -50.5 -321.0 -50.15 -321.25 -49.75 -321.4 -49.4 -321.5 -49.0 -321.5 -48.65 -321.5 -47.9 -321.5 -47.15 -321.5 -46.75 -321.5 -46.4 -321.65 -46.0 -321.75 -45.65 -321.9 -45.25 -322.0 -44.9 -322.0 -41.5 -322.0 -37.75 -322.0 -35.15 -322.25 -34.75 -322.4 -34.4 -322.5 -34.0 -322.5 -33.65 -322.5 -32.9 -322.5 -32.15 -322.5 -31.75 -322.5 -31.4 -322.35 -31.0 -322.15 -30.6 -322.0 -30.25 -322.0 -29.15 -322.0 -28.0 -322.0 -27.25 -322.0 -26.9 -321.85 -26.5 -321.65 -26.1 -321.5 -25.75 -321.5 -25.0 -321.5 -23.9 -321.5 -22.75 -321.5 -22.0 -321.4 -21.65 -321.25 -21.25 -321.05 -20.85 -321.0 -20.5 -321.0 -20.15 -321.0 -19.75 -321.0 -19.4 -321.0 -19.15 -325.05 -19.65 -325.0 -20.0 M-366.0 -37.25 L-366.0 -37.65 -366.0 -38.0 -366.0 -38.4 -366.0 -38.75 Q-366.3 -39.85 -367.1 -40.65 L-368.25 -41.75 -368.65 -42.15 Q-370.05 -45.25 -373.0 -47.05 -375.8 -48.75 -378.9 -47.65 L-379.25 -47.25 -379.65 -46.9 -380.0 -46.5 -380.25 -46.1 -380.4 -45.75 -380.65 -45.4 -380.9 -45.0 Q-381.15 -43.6 -381.75 -42.3 L-382.6 -40.55 Q-382.7 -40.3 -382.9 -40.15 -392.95 -38.95 -403.0 -36.75 -402.6 -38.4 -401.7 -39.95 L-399.4 -44.25 -399.0 -45.0 -398.65 -45.4 -397.9 -46.15 -397.5 -46.5 -397.15 -46.9 -396.9 -47.25 -396.75 -47.6 -396.5 -48.0 -396.25 -48.4 -395.8 -48.8 -395.5 -49.15 -395.3 -49.5 -395.15 -49.9 -394.4 -50.65 -394.0 -51.0 -393.65 -51.4 -393.4 -51.75 -393.25 -52.1 -393.0 -52.5 -392.65 -52.9 Q-387.15 -55.55 -381.15 -56.9 -369.6 -59.4 -359.15 -59.9 L-360.1 -58.05 -360.65 -56.9 -360.9 -56.5 -361.75 -53.95 -362.4 -52.35 -362.5 -52.0 -362.5 -51.65 -362.5 -51.25 -362.85 -50.5 -363.2 -49.4 -363.35 -49.0 -363.5 -48.65 -363.5 -48.25 -363.5 -47.9 -363.65 -47.5 -363.75 -47.15 -363.9 -46.75 -364.0 -46.4 -364.0 -46.0 -364.0 -45.65 -364.25 -45.25 -364.4 -44.9 -364.5 -44.5 -364.5 -44.15 -364.5 -43.75 -364.85 -43.0 -365.2 -41.9 -365.35 -41.5 -365.5 -41.15 -365.5 -40.4 -365.5 -38.5 -365.5 -37.75 -365.5 -37.4 -365.6 -37.1 -366.0 -37.25 M-365.7 -36.75 L-365.75 -36.65 -365.9 -36.25 -366.0 -35.9 -366.0 -35.5 -366.0 -35.15 -366.25 -34.75 -366.4 -34.4 -366.5 -34.0 -366.5 -29.9 -366.5 -24.65 -366.5 -23.5 -366.4 -23.15 -365.65 -21.6 -365.5 -21.35 -365.75 -21.25 -367.5 -23.0 -367.5 -21.6 -369.2 -22.75 -369.15 -23.0 -369.0 -23.4 -369.0 -23.75 -369.0 -25.25 -369.0 -26.0 -369.0 -26.4 -369.15 -26.75 -369.75 -28.25 -369.95 -29.0 -370.0 -29.4 Q-369.3 -31.4 -368.15 -33.2 -367.0 -34.95 -366.15 -36.9 L-365.7 -36.75 M-308.4 32.1 L-308.4 32.05 Q-298.45 31.75 -291.55 25.45 L-291.4 25.6 -291.5 26.0 -291.5 26.35 -291.5 26.75 -291.5 27.1 -291.65 27.5 -291.75 27.85 -291.9 28.25 -292.0 28.6 -292.0 29.0 -292.0 29.35 -292.2 29.75 -292.75 30.9 -293.15 31.6 -293.4 32.0 Q-293.45 32.8 -293.8 33.55 L-294.2 34.6 -294.5 35.35 -294.5 35.75 -294.5 36.1 -294.65 36.5 -294.9 37.25 -295.15 37.6 -295.5 38.0 -297.15 38.4 Q-301.45 38.55 -305.25 36.85 L-305.8 36.25 Q-306.4 35.55 -307.15 34.95 L-307.5 34.35 -307.6 33.65 -307.85 32.85 -308.05 32.5 -308.4 32.1 M-334.45 34.0 Q-328.55 36.6 -322.25 38.1 L-321.1 38.65 -317.75 39.6 -316.6 40.15 -314.75 40.6 -313.65 41.25 -312.9 41.6 -312.5 42.0 -312.15 42.4 -311.9 42.75 -311.75 43.1 -311.65 43.5 -311.5 43.85 -311.5 44.25 -311.5 44.6 -311.2 45.75 -310.7 46.9 -310.5 47.25 -310.5 47.6 -310.5 48.0 -310.5 48.35 -310.25 49.1 -309.0 52.9 -307.45 57.05 -307.5 57.1 -307.5 57.5 -307.5 58.25 -307.5 58.6 -307.5 59.0 -307.25 59.75 -306.55 62.0 -306.0 63.1 -306.0 63.5 -306.0 63.85 -305.8 64.6 -305.05 66.5 -304.75 67.25 -304.4 67.6 -303.6 68.35 -303.15 68.75 -302.6 68.85 -300.3 71.05 Q-299.4 71.9 -298.9 73.0 -305.1 74.1 -312.75 72.85 L-315.55 71.0 Q-316.75 70.25 -318.0 69.75 L-318.0 69.35 -318.0 68.6 -318.0 68.25 -318.0 67.85 -318.15 67.5 -318.25 67.1 -318.4 66.75 -318.5 66.35 -318.5 66.0 -318.5 65.6 -318.65 65.25 -318.95 64.45 -319.2 63.75 -319.5 63.0 -319.5 62.6 -319.5 62.25 -320.05 60.75 -320.85 58.05 -321.05 57.45 -321.0 57.35 -320.8 57.0 -320.65 56.6 -320.5 56.25 -320.5 55.85 -320.5 55.5 -320.5 55.1 -320.85 54.35 -321.05 54.0 -321.4 53.6 -322.05 53.3 -323.0 53.0 -323.0 53.05 -323.75 53.1 -323.8 53.15 Q-325.1 52.6 -326.45 52.35 L-333.15 50.85 Q-333.55 50.55 -334.05 50.4 L-335.5 50.0 -335.5 50.05 -336.25 50.15 -336.45 50.2 -336.6 49.85 Q-337.05 48.75 -338.0 48.0 -338.7 47.4 -339.0 46.5 L-339.05 46.45 -338.1 45.9 -337.25 45.5 -337.0 45.25 -336.65 44.85 -336.0 44.6 -335.0 44.1 -334.75 44.0 -332.95 42.3 Q-331.8 41.35 -331.25 40.0 -331.5 39.05 -332.25 38.35 L-333.75 37.0 -334.6 34.3 -334.45 34.0 M-411.0 14.0 L-410.5 13.95 -403.85 13.05 -403.65 13.4 -403.5 13.75 -403.5 14.1 -403.5 14.5 -403.5 14.85 -403.4 15.25 -403.25 15.6 -403.15 16.0 -403.0 16.35 -403.0 16.75 -403.0 17.1 -402.85 17.5 -402.65 17.9 -402.5 18.25 -402.5 18.6 -402.5 19.0 -402.4 19.35 -402.25 19.75 -402.0 20.1 -402.0 20.5 -402.0 20.85 -401.7 21.6 -401.5 22.05 -402.05 21.8 -403.0 21.5 -403.0 21.55 -403.75 21.6 -404.4 21.85 -404.75 22.25 -405.1 22.65 -405.4 23.0 -405.45 23.35 -405.5 24.1 -405.5 24.5 -405.5 24.85 -405.4 25.25 -405.25 25.6 -404.7 26.4 -404.25 27.1 -404.0 27.5 -403.65 27.85 -403.25 28.25 -402.9 28.6 -402.05 29.05 Q-399.4 30.6 -396.5 31.5 L-395.9 31.85 Q-394.65 32.6 -393.4 32.85 -389.45 36.05 -384.55 36.95 L-384.55 37.0 -384.45 38.1 -384.4 38.85 -384.2 39.2 -383.9 39.6 -383.5 40.0 -383.15 40.35 -382.9 40.75 -382.75 41.1 -382.5 41.5 -382.15 41.85 -381.75 42.25 -381.4 42.6 -380.65 43.0 -380.15 43.4 -379.9 43.75 -379.75 44.1 -379.5 44.5 -379.15 44.85 -378.75 45.25 -378.55 45.65 -378.35 46.0 -378.15 46.35 -376.55 47.7 Q-373.6 49.75 -370.5 51.5 L-372.55 52.05 Q-388.2 56.3 -403.0 50.95 -406.25 49.75 -409.3 48.1 -420.35 42.05 -422.5 29.75 L-422.5 29.35 -422.5 29.0 -422.5 28.6 -422.5 28.25 -422.65 27.85 -422.8 27.5 -422.95 27.1 -423.0 26.75 -422.15 24.1 -422.1 24.05 -421.9 23.75 -421.75 23.35 -421.7 23.25 -421.25 22.5 -421.5 22.5 -421.5 22.25 -421.55 21.85 -421.6 21.5 -421.65 21.1 -421.05 20.35 -420.4 19.25 -420.0 18.5 -418.1 16.65 -416.15 15.1 -415.3 14.8 Q-413.25 13.95 -411.1 13.55 L-411.0 14.0" fill="#80a839" fill-rule="evenodd" stroke="none"/>
    <path d="M-348.25 -12.75 L-348.3 -13.35 -348.5 -17.9 -348.5 -18.5 -348.5 -19.25 -348.5 -19.65 -349.25 -21.95 -351.15 -28.25 -351.7 -28.45 -353.2 -21.65 -353.65 -18.6 -353.5 -18.25 -353.5 -17.9 -353.5 -17.5 -353.5 -17.15 -353.4 -16.75 -353.25 -16.4 -353.05 -16.1 Q-357.0 -14.15 -359.95 -11.2 L-361.0 -13.35 -361.0 -13.5 -361.0 -13.9 -360.9 -14.25 -360.75 -14.65 -360.65 -15.0 -360.5 -15.4 -360.5 -15.75 -360.5 -16.15 Q-360.0 -16.8 -359.75 -17.55 L-359.3 -19.05 -359.0 -20.25 -359.0 -20.65 -359.0 -21.0 Q-358.55 -21.9 -358.25 -22.85 L-357.65 -25.15 -357.0 -26.65 -357.0 -27.4 -357.0 -27.75 -357.0 -28.15 -357.0 -28.5 -357.0 -28.9 -356.85 -29.25 -356.65 -29.65 -356.5 -30.0 -356.5 -30.4 -356.5 -30.75 -356.5 -31.15 Q-356.0 -31.8 -355.8 -32.55 L-355.0 -34.85 -354.5 -36.4 -354.5 -36.75 -354.5 -37.15 -354.5 -37.5 -354.35 -37.85 -354.15 -38.25 -354.0 -38.65 -354.0 -39.0 -354.0 -39.4 -354.0 -39.75 -354.0 -40.15 -354.0 -40.5 -353.85 -40.85 -353.65 -41.25 -353.5 -41.65 -353.5 -42.0 -353.5 -42.4 -353.4 -42.75 -353.25 -43.15 -353.15 -43.5 -353.0 -43.9 -353.0 -44.25 -353.0 -44.65 -353.0 -45.0 -352.85 -45.35 -352.65 -45.75 -351.9 -45.35 -351.5 -45.0 -351.15 -44.65 -350.75 -44.25 -350.55 -43.85 -350.35 -43.5 -350.15 -43.15 -349.75 -42.75 -349.4 -42.4 -349.0 -42.0 -348.9 -41.65 -348.75 -41.25 -348.55 -40.85 -348.35 -40.5 -348.15 -40.15 -347.75 -39.75 -346.25 -38.25 -345.15 -37.15 -344.9 -36.75 -344.75 -36.4 -344.5 -36.0 -344.15 -35.65 -343.4 -34.9 -342.65 -34.15 -342.4 -33.75 -342.25 -33.4 -342.0 -33.0 -341.65 -32.65 -341.25 -32.25 -340.85 -31.55 -338.65 -28.1 -337.0 -25.5 -336.65 -25.15 -336.25 -24.75 -336.05 -24.35 -335.85 -24.0 -335.65 -23.65 -335.25 -23.25 -334.5 -22.5 -333.75 -21.75 -333.5 -21.35 -333.1 -20.65 -332.9 -20.25 -332.8 -20.05 Q-333.8 -20.0 -335.25 -16.6 L-335.65 -15.75 -336.75 -15.6 -340.0 -15.0 -348.25 -12.75 M-290.05 -4.15 Q-293.2 -8.25 -297.6 -11.45 L-301.85 -13.85 -302.5 -14.1 -302.5 -14.15 -302.5 -14.5 -301.95 -15.6 -301.25 -17.15 -301.0 -17.9 -301.0 -18.25 -301.0 -18.65 -300.65 -19.4 -299.85 -21.55 -299.5 -22.75 -299.5 -23.15 -299.5 -23.5 -299.5 -23.9 -299.4 -24.25 -299.25 -24.65 -299.15 -25.0 -299.0 -25.4 -299.0 -26.5 -299.0 -27.25 -299.0 -28.0 -298.7 -28.75 -298.35 -29.85 -298.0 -30.65 -298.0 -31.0 -298.0 -31.4 -297.75 -32.15 -297.55 -32.9 -297.15 -33.0 -296.3 -30.1 -295.5 -28.25 -295.5 -27.9 -295.5 -27.5 -295.25 -26.75 -294.85 -26.0 -294.65 -25.6 -294.5 -25.25 -294.5 -24.9 -294.5 -24.5 -294.4 -24.15 -294.25 -23.75 -294.0 -23.4 -294.0 -23.0 -294.0 -22.65 -293.9 -22.25 -293.75 -21.9 -293.65 -21.5 -293.5 -21.15 -293.5 -20.75 -293.5 -20.4 -293.35 -20.0 -293.15 -19.6 -293.0 -19.25 -293.0 -18.9 -293.0 -18.5 -293.0 -18.15 -292.9 -17.75 -292.75 -17.4 -292.65 -17.0 -292.5 -16.65 -292.5 -16.25 -292.5 -15.9 -292.35 -15.5 -292.15 -15.1 -292.0 -14.75 -292.0 -14.4 -292.0 -14.0 -292.0 -13.65 -291.9 -13.25 -291.75 -12.9 -291.65 -12.5 -291.5 -12.15 -291.5 -11.75 -291.5 -11.4 -291.5 -11.0 -291.2 -9.8 -290.8 -8.75 -290.5 -8.0 -290.5 -7.65 -290.5 -7.25 -290.5 -6.9 -290.35 -6.5 -290.15 -6.1 -290.0 -5.75 -290.0 -5.0 -290.0 -4.25 -290.05 -4.15 M-353.65 21.85 L-353.55 21.85 Q-350.55 23.75 -346.95 25.1 L-341.95 26.9 -341.9 27.5 -341.65 27.85 -340.7 29.7 -340.15 30.85 -338.9 31.8 -337.75 32.4 -337.75 33.1 -337.75 33.5 -337.75 33.85 -337.5 34.25 -337.25 34.6 -337.25 35.0 -337.25 35.35 -337.0 35.75 -336.75 36.1 -336.75 36.5 -336.75 36.85 -336.55 37.25 -335.95 38.4 -335.65 39.1 -335.25 39.5 -335.0 39.9 -335.0 40.25 -336.15 41.35 -336.9 42.1 -338.9 43.05 -340.75 44.0 -340.95 44.25 -341.2 43.9 -341.7 43.1 -342.15 42.35 Q-343.3 41.05 -344.75 40.1 L-349.5 37.5 -350.3 36.7 Q-350.65 35.9 -351.35 35.3 L-353.25 33.5 -353.4 33.1 -353.9 32.0 -354.25 31.25 -354.25 30.85 -354.25 30.5 -354.5 29.75 -354.7 29.0 -354.75 28.6 -354.85 28.3 -355.2 27.45 -355.25 27.1 -355.25 26.35 -355.25 26.0 -355.25 25.6 -354.5 23.75 -353.65 21.85" fill="#cc3300" fill-rule="evenodd" stroke="none"/>
  </g>
</svg>
