<?xml version="1.0" encoding="UTF-8" standalone="no"?>
<svg xmlns:ffdec="https://www.free-decompiler.com/flash" xmlns:xlink="http://www.w3.org/1999/xlink" ffdec:objectType="shape" height="43.15px" width="15.0px" xmlns="http://www.w3.org/2000/svg">
  <g transform="matrix(1.0, 0.0, 0.0, 1.0, 16.55, 21.6)">
    <path d="M-5.0 15.8 L-8.45 15.8 -8.45 -14.25 -5.0 -14.25 -5.0 15.8" fill="#ffffff" fill-rule="evenodd" stroke="none"/>
    <path d="M-5.0 -14.25 L-3.95 -14.25 -3.95 15.8 -5.0 15.8 M-8.45 15.8 L-8.7 15.8 -8.7 -14.25 -8.45 -14.25" fill="none" stroke="#000000" stroke-linecap="round" stroke-linejoin="round" stroke-width="1.0"/>
    <path d="M-8.5 -0.95 L-8.5 -0.6 -8.75 -0.6 -8.8 -0.55 -8.85 -0.55 -8.95 -0.5 -9.0 -0.45 -9.05 -0.4 -9.1 -0.35 -9.2 -0.25 -9.25 -0.15 -9.25 -0.05 -9.25 12.3 -9.25 12.4 -9.2 12.5 -9.2 12.55 -9.1 12.6 -9.05 12.7 -9.0 12.75 -9.0 12.8 -8.95 12.85 -8.85 12.9 -8.8 12.95 -8.75 13.0 -8.65 13.05 -8.6 13.05 -8.55 13.1 -8.55 13.15 -8.5 13.25 -8.45 13.25 -8.4 13.35 -8.35 13.4 -8.35 13.45 -8.25 13.5 -8.2 13.55 -8.1 13.55 -7.8 13.75 -7.75 13.75 -7.7 13.8 -7.6 13.85 -7.55 13.85 -7.5 13.9 -7.45 13.9 -7.35 13.95 -7.35 14.0 -7.3 14.05 -7.25 14.1 -7.15 14.15 -7.1 14.15 -7.05 14.2 -6.95 14.25 -6.9 14.25 -6.85 14.3 -6.8 14.3 -6.7 14.35 -6.65 14.4 -6.6 14.4 -6.5 14.45 -6.45 14.45 -6.4 14.5 -6.4 14.55 -6.3 14.6 -6.25 14.6 -6.2 14.65 -6.15 14.65 -6.05 14.7 -6.0 14.7 -5.95 14.75 -5.8 14.75 -5.75 14.8 -5.65 14.85 -5.6 14.9 -5.55 14.9 -5.45 14.95 -5.4 14.95 -5.4 15.0 -5.2 15.0 -5.15 15.05 -5.1 15.05 -5.0 15.1 -4.95 15.15 -4.8 15.15 -4.75 15.2 -4.5 15.2 -4.45 15.25 -4.35 15.3 -4.25 15.3 -4.15 15.35 -4.1 15.35 -4.05 15.4 -3.9 15.4 -3.85 15.45 -3.7 15.45 -3.65 15.5 -3.0 15.5 -3.0 15.55 -2.9 15.55 -2.9 15.6 -2.95 15.7 -3.0 15.7 -3.05 15.75 -3.1 15.75 -3.15 15.8 -3.2 15.85 -3.25 15.9 -3.3 15.9 -3.35 15.95 -3.4 15.95 -3.5 16.05 -3.55 16.05 -3.6 16.1 -3.65 16.15 -3.7 16.15 -3.75 16.2 -3.8 16.25 -3.85 16.3 -3.9 16.3 -4.0 16.4 -4.05 16.45 -4.1 16.5 -4.15 16.5 -4.2 16.55 -4.25 16.55 -4.3 16.6 -4.35 16.65 -4.4 16.7 -4.45 16.7 -4.5 16.75 -4.5 16.8 -4.6 16.9 -4.65 16.95 -4.7 16.95 -4.75 17.0 -4.8 17.05 -4.9 17.05 -5.1 17.25 -5.15 17.25 -5.2 17.3 -5.25 17.3 -5.25 17.35 -5.3 17.4 -5.35 17.45 -5.4 17.45 -5.45 17.5 -5.5 17.55 -5.55 17.6 -5.6 17.65 -5.65 17.7 -5.7 17.7 -5.75 17.75 -5.8 17.8 -5.85 17.8 -5.9 17.85 -5.95 17.9 -6.0 17.95 -6.0 18.0 -6.1 18.0 -6.2 18.1 -6.25 18.1 -6.3 18.15 -6.35 18.2 -6.4 18.25 -6.45 18.3 -6.5 18.3 -6.5 18.35 -6.55 18.4 -6.6 18.45 -6.65 18.5 -6.7 18.55 -6.75 18.6 -6.75 18.65 -6.8 18.7 -6.85 18.75 -6.9 18.75 -6.95 18.8 -7.0 18.85 -7.05 18.9 -7.1 18.95 -7.15 19.0 -7.2 19.05 -7.25 19.05 -7.3 19.1 -7.55 19.1 -7.6 19.05 -7.7 19.05 -7.75 19.0 -7.8 19.0 -7.85 18.95 -7.9 18.9 -7.95 18.8 -7.95 18.75 -8.05 18.75 -8.1 18.75 -8.0 18.65 -8.0 18.55 -8.0 18.5 -8.0 18.4 -7.95 18.3 -7.9 18.2 -7.9 18.15 -7.95 18.15 -7.95 17.95 -7.95 17.8 -8.05 17.7 -8.1 17.55 -8.2 17.45 -8.3 17.35 -8.4 17.25 -8.5 17.0 -8.6 16.85 -8.7 16.75 -8.8 16.65 -8.85 16.55 -8.95 16.45 -9.05 16.35 -9.15 16.25 -9.2 16.05 -9.3 15.95 -9.35 15.8 -9.45 15.7 -9.55 15.6 -9.65 15.5 -10.6 15.5 -10.6 13.55 -10.6 -2.05 -10.65 -2.15 -10.7 -2.25 -10.7 -2.45 -10.75 -2.6 -10.8 -2.65 -10.8 -2.85 -10.9 -3.15 -10.95 -3.25 -10.95 -3.45 -11.0 -3.9 -11.05 -4.0 -11.05 -4.2 -11.15 -4.4 -11.2 -4.5 -11.2 -4.7 -11.25 -4.9 -11.3 -5.0 -11.3 -5.2 -11.4 -5.8 -11.45 -5.9 -11.45 -6.1 -11.5 -6.3 -11.5 -6.35 -11.55 -6.4 -11.55 -6.6 -11.65 -6.8 -11.7 -6.9 -11.7 -7.1 -11.75 -7.4 -11.8 -7.5 -11.8 -7.7 -11.9 -8.05 -11.95 -8.15 -11.95 -8.25 -12.0 -8.45 -12.05 -8.5 -12.05 -8.7 -12.15 -9.3 -12.2 -9.4 -12.2 -9.6 -12.25 -10.65 -12.3 -10.75 -12.3 -10.95 -12.4 -11.15 -12.45 -11.25 -12.45 -11.45 -12.5 -12.35 -12.55 -12.4 -12.55 -12.6 -12.65 -13.05 -12.7 -13.15 -12.7 -13.35 -12.75 -13.85 -12.8 -13.9 -12.8 -14.1 -12.9 -14.65 -12.95 -14.75 -12.95 -14.95 -13.0 -15.15 -13.05 -15.25 -13.05 -15.45 -13.15 -15.65 -13.2 -15.75 -13.25 -15.75 -13.35 -15.75 -13.45 -15.8 -13.55 -15.85 -13.65 -15.9 -13.7 -16.05 -13.75 -16.05 -13.7 -16.1 -13.6 -16.25 -13.6 -16.3 -13.55 -16.35 -13.5 -16.35 -13.5 -16.4 -13.45 -16.4 -13.35 -16.5 -13.3 -16.55 -13.2 -16.55 -13.05 -16.7 -13.0 -16.7 -12.95 -16.75 -12.9 -16.8 -12.85 -16.8 -12.8 -16.85 -12.75 -16.85 -12.75 -16.9 -12.7 -16.9 -12.5 -17.1 -12.45 -17.1 -12.35 -17.2 -12.3 -17.2 -12.25 -17.25 -12.2 -17.35 -12.15 -17.4 -12.1 -17.4 -12.05 -17.45 -12.0 -17.5 -12.0 -17.55 -11.95 -17.55 -11.9 -17.6 -11.85 -17.65 -11.8 -17.7 -11.75 -17.75 -11.7 -17.75 -11.65 -17.8 -11.5 -17.65 -11.5 -17.6 -11.45 -17.6 -11.4 -17.55 -11.35 -17.55 -11.3 -17.5 -10.95 -17.5 -10.9 -17.55 -10.85 -17.55 -10.8 -17.6 -10.75 -17.6 -10.75 -17.65 -10.7 -17.65 -10.6 -17.75 -10.55 -17.8 -10.5 -17.85 -10.45 -17.85 -10.35 -17.95 -10.3 -17.95 -10.25 -18.0 -10.2 -18.0 -10.15 -18.05 -10.1 -18.05 -10.05 -18.1 -10.0 -18.1 -10.0 -18.15 -9.95 -18.15 -9.9 -18.2 -9.85 -18.25 -9.8 -18.3 -9.75 -18.3 -9.7 -18.35 -9.65 -18.35 -9.6 -18.4 -9.55 -18.45 -9.5 -18.45 -9.45 -18.5 -9.4 -18.5 -9.35 -18.55 -9.3 -18.55 -9.25 -18.6 -9.2 -18.65 -9.15 -18.65 -9.1 -18.7 -9.05 -18.75 -8.95 -18.75 -8.9 -18.8 -8.75 -18.8 -8.7 -18.85 -8.65 -18.85 -8.6 -18.9 -8.55 -18.9 -8.5 -18.95 -8.4 -19.05 -8.35 -19.1 -8.3 -19.1 -8.25 -19.15 -8.2 -19.2 -8.15 -19.25 -8.1 -19.35 -8.05 -19.45 -8.05 -19.55 -8.05 -19.7 -8.0 -19.7 -8.0 -19.65 -7.95 -19.6 -7.9 -19.5 -7.85 -19.45 -7.8 -19.45 -7.75 -19.4 -7.75 -19.35 -7.7 -19.25 -7.7 -19.2 -7.65 -19.1 -7.65 -19.0 -7.65 -18.95 -7.6 -18.85 -7.6 -18.75 -7.55 -18.6 -7.5 -18.5 -7.5 -18.45 -7.5 -18.35 -7.45 -18.35 -7.4 -18.25 -7.3 -18.25 -7.2 -18.2 -7.1 -18.15 -7.0 -18.1 -6.9 -18.0 -6.8 -17.95 -6.7 -17.85 -6.65 -17.8 -6.55 -17.75 -6.45 -17.75 -6.35 -17.7 -6.25 -17.65 -6.15 -17.55 -6.05 -17.45 -5.95 -17.35 -5.9 -17.3 -5.8 -17.25 -5.7 -17.25 -5.6 -17.25 -5.5 -17.2 -5.4 -17.15 -5.3 -17.1 -5.2 -17.0 -5.15 -16.9 -5.05 -16.85 -4.95 -16.75 -4.85 -16.65 -4.75 -16.55 -4.65 -16.45 -4.6 -16.3 -4.6 -16.15 -4.55 -16.1 -4.5 -16.1 -4.45 -16.05 -4.4 -16.0 -4.35 -16.0 -4.3 -15.95 -4.2 -15.95 -4.15 -15.9 -4.1 -15.9 -4.05 -15.85 -4.0 -15.85 -4.0 -15.8 -3.95 -15.8 -3.9 -15.75 -3.85 -15.7 -3.8 -15.65 -3.75 -15.6 -3.7 -15.5 -3.65 -15.45 -3.6 -15.4 -3.55 -15.35 -3.55 -15.3 -3.6 -15.3 -3.65 -15.25 -3.7 -15.2 -3.75 -15.2 -3.8 -15.15 -3.85 -15.1 -3.9 -15.05 -3.95 -15.05 -4.0 -15.0 -4.05 -15.0 -4.1 -14.95 -4.15 -14.9 -4.2 -14.9 -4.25 -14.85 -4.3 -14.8 -4.35 -14.8 -4.4 -14.75 -5.3 -14.75 -5.35 -14.7 -5.4 -14.7 -5.45 -14.65 -5.55 -14.6 -5.6 -14.55 -5.65 -14.5 -5.75 -14.5 -5.8 -14.45 -5.85 -14.45 -5.95 -14.4 -6.0 -14.4 -6.05 -14.35 -6.05 -14.3 -6.15 -14.25 -6.2 -14.25 -6.25 -14.2 -6.3 -14.2 -6.45 -14.1 -6.5 -14.05 -6.6 -14.05 -6.65 -14.0 -6.7 -14.0 -6.8 -13.95 -6.85 -13.95 -6.9 -13.9 -6.95 -13.9 Q-6.95 -13.85 -7.05 -13.85 L-7.05 -13.8 -7.1 -13.75 -7.15 -13.75 -7.25 -13.7 -7.3 -13.65 -7.35 -13.6 -7.45 -13.55 -7.5 -13.5 -7.55 -13.45 -7.6 -13.45 -7.7 -13.4 -7.75 -13.35 -7.8 -13.25 -7.9 -13.2 -7.95 -13.15 -8.0 -13.1 -8.0 -13.05 -8.1 -13.0 -8.15 -12.95 -8.2 -12.95 -8.4 -12.8 -8.45 -12.75 -8.5 -12.7 -8.55 -12.65 -8.6 -12.55 -8.65 -12.45 -8.8 -12.45 -8.85 -12.5 -9.0 -12.5 -9.05 -12.45 -9.25 -12.45 -9.45 -12.3 -9.5 -12.25 -9.6 -12.15 -9.65 -12.05 -9.65 -11.95 -9.65 -8.8 -9.65 -8.75 -9.7 -8.7 -9.7 -8.6 -9.7 -2.25 -9.7 -2.15 -9.65 -2.1 -9.65 -2.05 -9.65 -1.5 -9.65 -1.4 -9.6 -1.35 -9.6 -1.25 -9.5 -1.2 -9.45 -1.1 -9.4 -1.05 -9.3 -1.0 -9.25 -1.0 -9.2 -0.95 -9.05 -0.95 -9.0 -0.9 -8.65 -0.9 -8.65 -0.95 -8.55 -0.95 -8.5 -0.95 M-5.4 13.65 L-5.0 13.65 -4.95 13.7 -4.9 13.7 -4.8 13.75 -4.75 13.75 -4.7 13.8 -4.65 13.8 -4.55 13.85 -4.5 13.85 -4.45 13.9 -4.45 13.95 -4.35 14.0 -4.3 14.0 -4.25 14.05 -4.3 14.05 -4.35 14.0 -4.45 14.0 -4.5 13.95 -4.7 13.95 -4.75 13.9 -4.8 13.9 -4.9 13.85 -4.95 13.8 -5.0 13.75 -5.1 13.75 -5.1 13.7 -5.35 13.7 -5.4 13.65 M-8.75 -18.4 L-8.65 -18.35 -8.7 -18.45 -8.75 -18.45 -8.8 -18.4 -8.75 -18.4 M-13.1 -7.4 L-13.0 -7.15 -13.2 -7.25 -13.15 -7.3 -13.1 -7.4 M-11.05 -11.35 L-11.0 -11.15 -10.9 -11.05 -10.85 -10.9 -10.8 -10.75 -10.7 -10.6 -10.65 -10.5 -10.6 -10.4 -10.6 -10.65 -10.65 -10.75 -10.7 -10.85 -10.8 -11.0 -10.85 -11.15 -10.9 -11.3 -11.0 -11.4 -11.1 -11.6 -11.15 -11.65 -11.1 -11.55 -11.05 -11.35 M-15.1 15.5 L-15.0 15.5 -14.9 15.5 -14.8 15.4 -14.7 15.4 -14.7 15.35 -14.65 15.35 -14.55 15.5 -14.45 15.55 -14.35 15.65 -14.25 15.75 -14.15 15.8 -14.05 15.9 -13.95 15.9 -13.9 16.0 -13.8 16.05 -13.7 16.15 -13.65 16.2 -13.6 16.25 -13.55 16.3 -13.55 16.4 -13.5 16.65 -13.45 16.75 -13.85 16.75 -14.0 16.55 -14.05 16.5 -14.25 16.3 -14.3 16.3 -14.35 16.25 -14.4 16.2 -14.45 16.15 -14.5 16.1 -14.5 16.05 -14.55 16.0 -14.6 15.95 -14.65 15.9 -14.7 15.85 -14.75 15.8 -14.8 15.75 -15.0 15.55 -15.05 15.55 -15.1 15.5 M-7.95 16.0 L-8.05 15.95 -8.15 15.9 -8.25 15.9 -8.35 15.9 -8.45 15.9 -8.55 15.9 -8.65 15.8 -8.7 15.8 -8.8 15.7 -8.9 15.55 -9.0 15.5 -9.3 15.5 -9.25 15.65 -9.15 15.8 -9.05 15.95 -8.95 16.05 -8.9 16.2 -8.8 16.3 -8.7 16.5 -8.6 16.65 -8.5 16.75 -8.4 16.8 -8.3 16.85 -8.2 16.95 -8.15 17.05 -8.05 17.15 -7.95 17.2 -7.85 17.25 -7.75 17.35 -7.65 17.4 -7.55 17.45 -7.45 17.5 -7.4 17.5 -7.3 17.5 -7.15 17.35 -7.1 17.3 -7.0 17.3 -6.95 17.25 -6.9 17.2 -6.85 17.15 -6.8 17.15 -6.75 17.1 -6.75 17.05 -6.7 17.05 -6.65 17.0 -6.6 16.95 -6.55 16.9 -6.5 16.9 -6.5 16.85 -6.55 16.85 -6.65 16.8 -6.75 16.75 -6.85 16.65 -6.95 16.5 -7.05 16.4 -7.15 16.3 -7.2 16.3 -7.3 16.25 -7.4 16.2 -7.5 16.15 -7.6 16.15 -7.7 16.1 -7.8 16.05 -7.9 16.0 -7.95 16.0" fill="#ffcc00" fill-rule="evenodd" stroke="none"/>
    <path d="M-9.75 18.75 L-9.65 18.75 -9.6 18.8 -9.5 18.9 -9.4 19.0 -9.3 19.05 -9.2 19.1 -9.1 19.1 -9.05 19.15 -8.95 19.2 -8.85 19.2 -8.75 19.2 -8.65 19.15 -8.55 19.1 -8.5 19.15 -8.45 19.15 -8.8 19.35 -9.1 19.65 -9.55 19.0 -9.75 18.75" fill="#ff9900" fill-rule="evenodd" stroke="none"/>
    <path d="M-12.05 -8.5 L-12.0 -8.45 -11.95 -8.25 -11.95 -8.15 -11.9 -8.05 -11.8 -7.7 -11.8 -7.5 -11.75 -7.4 -11.7 -7.1 -11.7 -6.9 -11.65 -6.8 -11.55 -6.6 -11.55 -6.4 -11.5 -6.35 -11.5 -6.3 -11.55 -6.25 -11.65 -6.2 -11.75 -6.1 -11.85 -6.0 -11.95 -5.85 -12.0 -5.65 -12.05 -5.45 -12.05 -4.5 -12.15 -4.4 -12.2 -4.1 -12.25 -3.15 -12.35 -3.15 -12.45 -3.15 -12.55 -3.15 -12.6 -3.15 -12.7 -3.2 -12.75 -3.2 -12.75 -3.45 Q-12.85 -4.45 -13.3 -4.85 L-13.3 -4.9 -13.25 -5.0 -13.2 -5.2 -13.2 -5.4 Q-12.5 -5.55 -12.5 -6.35 -12.5 -6.95 -13.0 -7.15 L-13.1 -7.4 -13.05 -7.45 -12.95 -7.7 -12.95 -7.95 -13.0 -8.15 -13.05 -8.25 -13.1 -8.35 -13.2 -8.5 -13.3 -8.65 -13.35 -8.9 -13.4 -9.0 -13.45 -9.1 -13.55 -9.15 -13.6 -9.4 -13.65 -9.5 -13.7 -9.6 -13.75 -9.8 -13.8 -9.9 -13.8 -10.1 -13.85 -10.3 -13.9 -10.45 -13.95 -14.15 -13.9 -14.05 -13.8 -13.9 -13.7 -13.7 -13.7 -13.5 -13.65 -13.4 -13.6 -13.35 -13.55 -13.15 -13.5 -13.1 -13.45 -12.9 -13.35 -12.75 -13.3 -12.5 -13.2 -12.35 -13.15 -12.15 -13.05 -11.85 -13.05 -11.65 -13.0 -11.6 -12.95 -11.45 -12.95 -11.25 -12.9 -11.15 -12.8 -11.0 -12.7 -10.6 -12.7 -10.4 -12.65 -10.3 -12.55 -10.15 -12.45 -9.85 -12.45 -9.65 -12.4 -9.6 -12.35 -9.5 -12.3 -9.25 -12.25 -9.15 -12.2 -8.95 -12.2 -8.75 -12.15 -8.65 -12.1 -8.6 -12.05 -8.5 M-14.5 1.1 L-14.5 1.05 -14.55 1.0 -14.6 0.9 -14.6 0.85 -14.65 0.8 -14.65 0.7 -14.65 0.55 -14.7 0.5 -14.7 0.4 -14.7 0.15 -14.75 0.1 -14.75 -0.05 -14.8 -0.15 -14.8 -0.25 -14.85 -0.45 -14.85 -0.5 -14.9 -0.6 -14.9 -0.7 -14.9 -0.75 -14.95 -0.85 -14.95 -0.95 -14.95 -1.7 -15.0 -1.75 -15.0 -1.85 -15.0 -2.2 -15.0 -2.25 -15.05 -2.35 -15.05 -2.45 -15.05 -3.45 -15.05 -3.55 -15.0 -3.65 -14.95 -3.75 -14.9 -3.8 -14.85 -3.85 -14.75 -3.95 -14.65 -3.95 -14.6 -4.0 -14.45 -4.0 -14.4 -3.95 -14.25 -3.95 -14.0 -3.7 -14.0 -3.6 -14.0 -3.55 -13.95 -3.45 -13.95 -2.55 -13.95 -2.5 -13.9 -2.45 -13.9 -2.35 -13.85 -2.2 -13.8 -2.2 -13.75 -2.25 -13.65 -2.25 -13.6 -2.2 -13.45 -2.2 -13.4 -2.15 -13.2 -1.95 -13.2 -1.85 -13.15 -1.8 -13.15 -1.7 -13.15 -1.45 -13.15 -1.35 -13.2 -1.25 -13.2 -1.2 -13.2 -0.85 -13.25 -0.75 -13.25 -0.65 -13.3 -0.55 -13.3 -0.45 -13.35 -0.4 -13.35 0.2 -13.35 0.3 -13.4 0.35 -13.4 0.75 -13.4 0.8 -13.4 0.9 -13.45 1.0 -13.5 1.1 -13.55 1.15 -13.6 1.2 -13.65 1.25 -13.7 1.3 -13.75 1.3 -13.8 1.35 -14.15 1.35 -14.2 1.3 -14.3 1.3 -14.35 1.25 -14.4 1.2 -14.45 1.15 -14.5 1.1 M-12.05 9.75 L-11.95 9.75 -11.9 9.75 -11.8 10.05 -11.8 10.25 -11.75 10.35 -11.7 10.65 -11.7 10.8 -11.75 10.6 -11.85 10.45 -11.9 10.45 -11.9 10.25 -11.95 10.05 -11.95 9.9 -12.0 9.85 -12.05 9.75 M-13.85 16.75 L-13.45 16.75 -13.5 16.65 -13.55 16.4 -13.55 16.3 -13.45 16.4 -13.35 16.5 -13.25 16.65 -13.15 16.8 -13.05 16.95 -12.95 17.05 -12.9 17.05 -12.8 17.15 -12.7 17.15 -12.6 17.15 -12.5 17.15 -12.4 17.15 -12.3 17.05 -12.2 17.05 -12.15 16.95 -12.15 16.9 -12.1 16.9 -12.0 16.9 -11.9 16.9 -11.85 16.9 -11.8 17.0 -11.7 17.1 -11.7 17.15 -11.7 17.25 -11.7 17.3 -11.7 17.4 -11.65 17.5 -11.65 17.55 -11.5 17.7 -11.5 17.75 -11.45 17.8 -11.4 17.8 -11.35 17.85 -11.3 17.85 -11.25 17.9 -11.2 18.05 -11.2 18.1 -11.25 18.15 -11.35 18.15 -11.45 18.15 -11.55 18.15 -11.65 18.15 -11.7 18.15 -11.8 18.1 -11.9 18.05 -12.0 18.0 -12.1 17.9 -12.2 17.8 -12.3 17.75 -12.4 17.6 -12.45 17.6 -12.8 17.5 -13.1 17.4 -13.15 17.35 -13.75 16.85 -13.75 16.8 -13.85 16.75" fill="#dfb300" fill-rule="evenodd" stroke="none"/>
    <path d="M-4.25 14.05 L-4.15 14.1 -4.1 14.1 -4.1 14.15 -3.9 14.15 -3.85 14.2 -3.8 14.2 -3.7 14.25 -3.65 14.3 -3.45 14.3 -3.35 14.4 -3.05 14.4 -3.0 14.45 -2.85 14.45 -2.8 14.5 -2.6 14.5 -2.55 14.55 -2.4 14.55 -2.35 14.6 -2.3 14.6 -2.2 14.65 -2.15 14.7 -2.15 14.8 -2.1 14.85 -2.0 14.9 -1.95 15.0 -1.9 15.05 -1.85 15.05 -1.75 15.1 -1.7 15.15 -1.65 15.25 -1.65 15.3 -1.55 15.4 -1.55 15.5 -1.55 15.65 -1.55 15.75 -1.6 15.85 -1.65 15.95 -1.7 16.05 -1.75 16.1 -1.8 16.2 -1.95 16.35 -2.0 16.35 -2.0 16.4 -2.05 16.5 -2.1 16.55 -2.15 16.55 -2.2 16.6 -2.25 16.65 -2.35 16.65 -2.45 16.75 -2.5 16.75 -2.55 16.8 -2.6 16.85 -2.65 16.85 -2.7 16.9 -2.75 16.9 -2.75 16.95 -2.8 17.0 -2.85 17.05 -2.95 17.05 -3.0 17.1 -3.05 17.1 -3.1 17.15 -3.15 17.2 -3.2 17.2 -3.25 17.25 -3.3 17.3 -3.35 17.35 -3.4 17.35 -3.45 17.4 -3.5 17.4 -3.5 17.45 -3.55 17.5 -3.6 17.55 -3.65 17.55 -3.7 17.6 -3.75 17.65 -3.8 17.7 -3.95 17.85 -4.0 17.85 -4.05 17.9 -4.1 17.9 -4.15 17.95 -4.25 18.05 -4.3 18.1 -4.35 18.15 -4.4 18.15 -4.45 18.2 -4.5 18.25 -4.55 18.3 -4.6 18.3 -4.7 18.4 -4.75 18.4 -4.8 18.45 -4.95 18.6 -5.0 18.6 -5.0 18.65 -5.05 18.75 -5.1 18.8 -5.15 18.8 -5.2 18.85 -5.25 18.9 -5.35 18.9 -5.4 18.95 -5.45 19.0 -5.5 19.05 -5.55 19.1 -5.6 19.1 -5.65 19.15 -5.75 19.25 -5.75 19.3 -5.8 19.35 -5.85 19.4 -5.9 19.4 -5.95 19.5 -6.0 19.55 -6.05 19.55 -6.2 19.7 -6.25 19.7 -6.3 19.75 -6.35 19.8 -6.4 19.85 -6.5 19.95 -6.5 20.0 -6.55 20.05 -6.6 20.1 -6.65 20.1 -6.7 20.15 -6.75 20.15 -6.8 20.2 -6.95 20.35 -7.0 20.35 -7.05 20.4 -7.1 20.4 -7.15 20.45 -7.25 20.55 -7.25 20.6 -7.3 20.6 -7.35 20.65 -7.4 20.65 -7.45 20.7 -7.5 20.75 -7.55 20.8 -7.6 20.85 -7.7 20.95 -7.75 20.95 -7.8 21.0 -7.85 21.0 -7.9 21.05 -8.0 21.05 -8.0 21.1 -8.1 21.1 -8.15 21.2 -8.2 21.3 -8.25 21.35 -8.3 21.4 -8.35 21.45 -8.4 21.45 -8.45 21.5 -8.5 21.5 -8.5 21.55 -8.8 21.55 -8.85 21.5 -9.15 21.5 -9.2 21.45 -9.45 21.45 -9.5 21.4 -9.6 21.4 -9.7 21.3 -9.85 21.3 -9.9 21.25 -10.0 21.25 -10.0 21.2 -10.05 21.2 -10.1 21.15 -10.15 21.15 -10.2 21.1 -10.25 21.05 -10.3 21.0 -10.4 21.0 -10.45 20.95 -10.55 20.85 -10.6 20.85 -10.65 20.8 -10.7 20.75 -10.75 20.7 -10.75 20.65 -10.8 20.6 -10.85 20.55 -10.9 20.55 -10.95 20.5 -11.0 20.5 -11.05 20.45 -11.1 20.4 -11.15 20.35 -11.2 20.3 -11.25 20.3 -11.3 20.25 -11.35 20.15 -11.4 20.15 -11.45 20.1 -11.5 20.1 -11.5 20.05 -11.65 19.9 -11.7 19.85 -11.75 19.85 -11.8 19.8 -11.85 19.75 -11.9 19.7 -11.95 19.7 -12.0 19.65 -12.05 19.6 -12.1 19.6 -12.15 19.55 -12.2 19.5 -12.25 19.45 -12.25 19.4 -12.3 19.4 -12.35 19.35 -12.4 19.3 -12.45 19.25 -12.5 19.25 -12.55 19.2 -12.6 19.2 -12.65 19.15 -12.7 19.15 -12.75 19.1 -12.8 19.05 -12.85 19.05 -12.9 19.0 -12.95 18.95 -13.0 18.95 -13.0 18.9 -13.05 18.85 -13.1 18.8 -13.2 18.8 -13.25 18.75 -13.3 18.7 -13.35 18.7 -13.4 18.65 -13.45 18.65 -13.5 18.6 -13.55 18.55 -13.6 18.55 -13.65 18.5 -13.7 18.4 -13.75 18.4 -13.75 18.35 -13.8 18.35 -13.85 18.3 -13.9 18.25 -13.95 18.2 -14.0 18.15 -14.05 18.1 -14.1 18.05 -14.15 18.05 -14.2 18.0 -14.25 17.95 -14.3 17.9 -14.35 17.85 -14.4 17.8 -14.45 17.75 -14.5 17.7 -14.5 17.65 -14.55 17.6 -14.6 17.5 -14.65 17.45 -14.7 17.45 -14.75 17.4 -14.8 17.35 -14.85 17.3 -14.9 17.3 -14.95 17.25 -15.0 17.15 -15.05 17.1 -15.1 17.1 -15.15 17.05 -15.2 17.0 -15.25 16.95 -15.25 16.9 -15.3 16.85 -15.35 16.8 -15.4 16.75 -15.45 16.7 -15.5 16.65 -15.55 16.6 -15.6 16.55 -15.65 16.55 -15.7 16.5 -15.75 16.45 -15.8 16.4 -15.85 16.4 -15.9 16.35 -15.95 16.3 -16.0 16.25 -16.0 16.2 -16.05 16.15 -16.1 16.1 -16.15 16.05 -16.2 16.0 -16.25 15.9 -16.3 15.8 -16.3 15.7 -16.35 15.15 -16.35 15.05 -16.4 15.0 -16.4 14.9 -16.4 14.25 -16.45 14.15 -16.45 14.05 -16.45 11.3 -16.5 11.25 -16.5 11.15 -16.5 6.95 -16.5 6.85 -16.45 6.8 -16.45 6.0 -16.45 5.9 -16.4 5.8 -16.4 -5.75 -16.45 -5.85 -16.45 -5.95 -16.45 -8.75 -16.5 -8.85 -16.5 -8.95 -16.5 -9.55 -16.5 -9.6 -16.55 -9.65 -16.55 -9.75 -16.55 -15.1 -16.55 -15.2 -16.5 -15.3 -16.5 -15.4 -16.55 -15.45 -16.55 -15.55 -16.55 -15.65 -16.5 -15.75 -16.45 -15.85 -16.4 -15.9 -16.35 -15.95 -16.3 -16.0 -16.25 -16.05 -16.25 -16.1 -16.2 -16.15 -16.15 -16.15 -16.1 -16.2 -16.05 -16.2 -16.0 -16.25 -15.95 -16.25 -15.9 -16.3 -15.85 -16.35 -15.8 -16.4 -15.75 -16.45 -15.7 -16.5 -15.65 -16.55 -15.5 -16.7 -15.5 -16.75 -15.45 -16.8 -15.4 -16.85 -15.35 -16.9 -15.3 -16.95 -15.25 -16.95 -15.2 -17.0 -15.15 -17.1 -15.1 -17.15 -15.05 -17.25 -15.0 -17.3 -14.85 -17.45 -14.8 -17.45 -14.75 -17.5 -14.75 -17.55 -14.7 -17.55 -14.65 -17.6 -14.6 -17.65 -14.55 -17.7 -14.5 -17.7 -14.4 -17.8 -14.35 -17.85 -14.3 -17.85 -14.25 -17.9 -14.2 -17.95 -14.15 -18.0 -14.1 -18.05 -14.05 -18.05 -14.0 -18.1 -14.0 -18.15 -13.95 -18.15 -13.9 -18.2 -13.85 -18.2 -13.8 -18.25 -13.75 -18.25 -13.7 -18.3 -13.65 -18.3 -13.6 -18.35 -13.55 -18.4 -13.5 -18.45 -13.45 -18.5 -13.4 -18.5 -13.2 -18.7 -13.15 -18.7 -12.9 -18.95 -12.85 -18.95 -12.8 -19.0 -12.75 -19.05 -12.6 -19.2 -12.5 -19.2 -12.5 -19.25 -12.45 -19.3 -12.4 -19.3 -12.35 -19.35 -12.3 -19.4 -12.25 -19.45 -12.2 -19.45 -12.15 -19.5 -12.1 -19.55 -12.05 -19.55 -12.0 -19.6 -11.9 -19.7 -11.8 -19.7 -11.75 -19.75 -11.75 -19.8 -11.7 -19.8 -11.65 -19.85 -11.6 -19.9 -11.55 -19.95 -11.5 -19.95 -11.4 -20.05 -11.35 -20.05 -11.3 -20.1 -11.25 -20.15 -11.2 -20.2 -11.15 -20.25 -11.1 -20.3 -11.05 -20.3 -11.0 -20.35 -11.0 -20.4 -10.95 -20.4 -10.9 -20.45 -10.85 -20.45 -10.8 -20.5 -10.7 -20.5 -10.65 -20.55 -10.6 -20.55 -10.55 -20.6 -10.5 -20.65 -10.45 -20.7 -10.4 -20.75 -10.35 -20.75 -10.3 -20.8 -10.25 -20.8 -10.15 -20.9 -10.1 -20.95 -10.05 -20.95 -10.0 -21.0 -9.95 -21.05 -9.9 -21.1 -9.85 -21.15 -9.8 -21.2 -9.75 -21.3 -9.75 -21.35 -9.7 -21.4 -9.65 -21.4 -9.6 -21.45 -9.55 -21.45 -9.45 -21.55 -9.4 -21.55 -9.35 -21.6 -8.85 -21.6 -8.8 -21.55 -8.75 -21.55 -8.7 -21.5 -8.65 -21.45 -8.6 -21.5 -8.3 -21.5 -8.25 -21.45 -8.15 -21.45 -8.1 -21.4 -8.05 -21.4 -8.0 -21.35 -8.0 -21.3 -7.95 -21.3 -7.9 -21.25 -7.85 -21.25 -7.8 -21.2 -7.75 -21.2 -7.65 -21.1 -7.6 -21.05 -7.55 -21.0 -7.5 -20.9 -7.45 -20.8 -7.3 -20.65 -7.25 -20.6 -7.25 -20.55 -7.15 -20.45 -7.1 -20.4 -7.05 -20.35 -7.0 -20.3 -6.95 -20.2 -6.9 -20.15 -6.75 -20.0 -6.7 -20.0 -6.65 -19.95 -6.6 -19.95 -6.55 -19.9 -6.5 -19.85 -6.5 -19.8 -6.4 -19.7 -6.35 -19.65 -6.3 -19.6 -6.25 -19.6 -6.2 -19.55 -6.15 -19.5 -6.1 -19.45 -6.05 -19.45 -6.0 -19.4 -5.95 -19.3 -5.9 -19.3 -5.85 -19.25 -5.8 -19.2 -5.75 -19.2 -5.75 -19.15 -5.7 -19.15 -5.6 -19.05 -5.55 -19.0 -5.5 -19.0 -5.45 -18.95 -5.4 -18.95 -5.15 -18.7 -5.1 -18.7 -5.05 -18.65 -5.0 -18.6 -5.0 -18.55 -4.95 -18.55 -4.9 -18.5 -4.85 -18.45 -4.8 -18.4 -4.75 -18.35 -4.7 -18.3 -4.65 -18.25 -4.6 -18.2 -4.55 -18.2 -4.5 -18.15 -4.45 -18.1 -4.4 -18.05 -4.35 -18.05 -4.3 -18.0 -4.25 -17.95 -4.25 -17.9 -4.2 -17.9 -4.1 -17.8 -4.05 -17.75 -4.0 -17.75 -3.95 -17.7 -3.9 -17.7 -3.65 -17.45 -3.6 -17.45 -3.55 -17.4 -3.5 -17.35 -3.5 -17.3 -3.45 -17.3 -3.35 -17.2 -3.3 -17.15 -3.25 -17.1 -3.2 -17.05 -3.15 -17.0 -3.1 -17.0 -3.05 -16.95 -3.0 -16.95 -2.55 -16.5 -2.5 -16.5 -2.45 -16.45 -2.4 -16.4 -2.3 -16.3 -2.25 -16.3 -2.15 -16.2 -2.1 -16.2 -2.05 -16.15 -2.0 -16.1 -2.0 -16.05 -1.9 -15.95 -1.85 -15.9 -1.8 -15.85 -1.75 -15.8 -1.7 -15.7 -1.65 -15.6 -1.65 -15.5 -1.65 -15.45 -1.65 -15.35 -1.7 -15.25 -1.75 -15.15 -1.8 -15.1 -1.85 -15.05 -1.9 -15.0 -1.95 -14.95 -2.0 -14.95 -2.05 -14.9 -2.2 -14.9 -2.15 -14.8 -2.15 -14.75 -2.35 -14.75 -2.35 -14.7 -2.35 -14.6 -2.4 -14.5 -2.5 -14.4 -2.5 -14.3 -2.55 -14.2 -2.6 -14.15 -2.7 -14.1 -2.75 -14.05 -2.8 -14.0 -2.85 -13.95 Q-2.85 -13.9 -2.95 -13.9 L-3.15 -13.75 -3.15 -13.7 -3.2 -13.65 -3.25 -13.65 -3.35 -13.6 -3.4 -13.6 -3.45 -13.55 -3.6 -13.55 -3.65 -13.5 -3.7 -13.5 -3.8 -13.45 -3.85 -13.45 -3.9 -13.4 -4.0 -13.4 -4.05 -13.35 -4.1 -13.35 -4.1 -13.3 -4.15 -13.3 -4.25 -13.25 -4.3 -13.2 -4.45 -13.2 -4.5 -13.15 -4.55 -13.1 -4.65 -13.1 -4.7 -13.05 -4.75 -13.05 -4.8 -13.0 -4.9 -12.95 -5.0 -12.85 -5.1 -12.85 -5.1 -12.8 -5.15 -12.75 -5.2 -12.7 -5.3 -12.7 -5.35 -12.65 -5.4 -12.6 -5.45 -12.6 -5.55 -12.55 -5.6 -12.55 -5.65 -12.5 -5.75 -12.45 -5.8 -12.45 -5.85 -12.4 -6.0 -12.3 -6.05 -12.3 -6.05 -12.25 -6.15 -12.2 -6.2 -12.15 -6.25 -12.15 -6.3 -12.1 -6.4 -12.05 -6.5 -12.05 -6.6 -12.0 -6.65 -12.0 -6.7 -11.95 -6.8 -11.9 -6.85 -11.9 -6.9 -11.85 -6.95 -11.85 Q-6.95 -11.8 -7.05 -11.8 L-7.1 -11.75 -7.7 -11.75 -7.75 -11.8 -8.1 -11.8 -8.15 -11.85 -8.2 -11.85 -8.2 -8.6 -8.2 -8.5 -8.25 -8.45 -8.25 -8.4 -8.25 -2.45 -8.2 -2.35 -8.2 -2.25 -8.2 -1.6 -8.15 -1.55 -8.15 -1.45 -8.15 -1.35 -8.2 -1.25 -8.25 -1.15 Q-8.25 -1.1 -8.35 -1.1 L-8.4 -1.05 -8.45 -1.0 -8.5 -0.95 -8.55 -0.95 -8.65 -0.95 -8.65 -0.9 -9.0 -0.9 -9.05 -0.95 -9.2 -0.95 -9.25 -1.0 -9.3 -1.0 -9.4 -1.05 -9.45 -1.1 -9.5 -1.2 -9.6 -1.25 -9.6 -1.35 -9.65 -1.4 -9.65 -1.5 -9.65 -2.05 -9.65 -2.1 -9.7 -2.15 -9.7 -2.25 -9.7 -8.6 -9.7 -8.7 -9.65 -8.75 -9.65 -8.8 -9.65 -11.95 -9.65 -12.05 -9.6 -12.15 -9.5 -12.25 -9.45 -12.3 -9.25 -12.45 -9.05 -12.45 -9.0 -12.5 -8.85 -12.5 -8.8 -12.45 -8.65 -12.45 -8.6 -12.55 -8.55 -12.65 -8.5 -12.7 -8.45 -12.75 -8.4 -12.8 -8.2 -12.95 -8.15 -12.95 -8.1 -13.0 -8.0 -13.05 -8.0 -13.1 -7.95 -13.15 -7.9 -13.2 -7.8 -13.25 -7.75 -13.35 -7.7 -13.4 -7.6 -13.45 -7.55 -13.45 -7.5 -13.5 -7.45 -13.55 -7.35 -13.6 -7.3 -13.65 -7.25 -13.7 -7.15 -13.75 -7.1 -13.75 -7.05 -13.8 -7.05 -13.85 Q-6.95 -13.85 -6.95 -13.9 L-6.9 -13.9 -6.85 -13.95 -6.8 -13.95 -6.7 -14.0 -6.65 -14.0 -6.6 -14.05 -6.5 -14.05 -6.45 -14.1 -6.3 -14.2 -6.25 -14.2 -6.2 -14.25 -6.15 -14.25 -6.05 -14.3 -6.05 -14.35 -6.0 -14.4 -5.95 -14.4 -5.85 -14.45 -5.8 -14.45 -5.75 -14.5 -5.65 -14.5 -5.6 -14.55 -5.55 -14.6 -5.45 -14.65 -5.4 -14.7 -5.35 -14.7 -5.3 -14.75 -4.4 -14.75 -4.35 -14.8 -4.3 -14.8 -4.25 -14.85 -4.2 -14.9 -4.15 -14.9 -4.1 -14.95 -4.05 -15.0 -4.0 -15.0 -3.95 -15.05 -3.9 -15.05 -3.85 -15.1 -3.8 -15.15 -3.75 -15.2 -3.7 -15.2 -3.65 -15.25 -3.6 -15.3 -3.55 -15.3 -3.5 -15.35 -3.5 -15.4 -3.45 -15.4 -3.4 -15.45 -3.3 -15.45 -3.25 -15.5 -3.1 -15.5 -3.15 -15.55 -3.2 -15.6 -3.25 -15.6 -3.3 -15.65 -3.35 -15.65 -3.4 -15.7 -3.45 -15.75 -3.5 -15.8 -3.5 -15.85 -3.65 -16.0 -3.7 -16.05 -3.75 -16.05 -3.8 -16.1 -3.85 -16.1 -3.95 -16.2 -4.0 -16.2 -4.05 -16.25 -4.1 -16.3 -4.15 -16.35 -4.2 -16.4 -4.25 -16.4 -4.25 -16.45 -4.45 -16.65 -4.5 -16.7 -4.55 -16.75 -4.6 -16.75 -4.65 -16.8 -4.7 -16.85 -4.75 -16.9 -4.8 -16.95 -4.9 -16.95 -4.95 -17.0 -5.0 -17.05 -5.0 -17.1 -5.05 -17.15 -5.1 -17.2 -5.15 -17.25 -5.2 -17.3 -5.25 -17.3 -5.3 -17.35 -5.35 -17.35 -5.45 -17.45 -5.5 -17.45 -5.55 -17.5 -5.6 -17.55 -5.65 -17.6 -5.7 -17.6 -5.75 -17.65 -5.75 -17.7 -5.8 -17.75 -5.85 -17.85 -5.9 -17.85 -5.95 -17.9 -6.0 -17.95 -6.05 -18.0 -6.1 -18.0 -6.3 -18.2 -6.4 -18.2 -6.45 -18.25 -6.5 -18.3 -6.5 -18.35 -6.55 -18.4 -6.6 -18.45 -6.7 -18.45 -6.75 -18.5 -6.8 -18.55 -6.85 -18.6 -6.9 -18.6 -6.95 -18.65 -7.0 -18.7 -7.05 -18.7 -7.1 -18.75 -7.15 -18.85 -7.2 -18.85 -7.25 -18.9 -7.25 -18.95 -7.3 -19.0 -7.35 -19.05 -7.4 -19.05 -7.45 -19.1 -7.5 -19.15 -7.55 -19.2 -7.6 -19.25 -7.65 -19.3 -7.75 -19.4 -7.8 -19.45 -7.85 -19.45 -7.9 -19.5 -7.95 -19.6 -8.0 -19.65 -8.0 -19.7 -8.05 -19.75 -8.05 -19.7 -8.05 -19.55 -8.05 -19.45 -8.1 -19.35 -8.15 -19.25 -8.2 -19.2 -8.25 -19.15 -8.3 -19.1 -8.35 -19.1 -8.4 -19.05 -8.5 -18.95 -8.55 -18.9 -8.6 -18.9 -8.65 -18.85 -8.7 -18.85 -8.75 -18.8 -8.9 -18.8 -8.95 -18.75 -9.05 -18.75 -9.1 -18.7 -9.15 -18.65 -9.2 -18.65 -9.25 -18.6 -9.3 -18.55 -9.35 -18.55 -9.4 -18.5 -9.45 -18.5 -9.5 -18.45 -9.55 -18.45 -9.6 -18.4 -9.65 -18.35 -9.7 -18.35 -9.75 -18.3 -9.8 -18.3 -9.85 -18.25 -9.9 -18.2 -9.95 -18.15 -10.0 -18.15 -10.0 -18.1 -10.05 -18.1 -10.1 -18.05 -10.15 -18.05 -10.2 -18.0 -10.25 -18.0 -10.3 -17.95 -10.35 -17.95 -10.45 -17.85 -10.5 -17.85 -10.55 -17.8 -10.6 -17.75 -10.7 -17.65 -10.75 -17.65 -10.75 -17.6 -10.8 -17.6 -10.85 -17.55 -10.9 -17.55 -10.95 -17.5 -11.3 -17.5 -11.35 -17.55 -11.4 -17.55 -11.45 -17.6 -11.5 -17.6 -11.5 -17.65 -11.65 -17.8 -11.7 -17.75 -11.75 -17.75 -11.8 -17.7 -11.85 -17.65 -11.9 -17.6 -11.95 -17.55 -12.0 -17.55 -12.0 -17.5 -12.05 -17.45 -12.1 -17.4 -12.15 -17.4 -12.2 -17.35 -12.25 -17.25 -12.3 -17.2 -12.35 -17.2 -12.45 -17.1 -12.5 -17.1 -12.7 -16.9 -12.75 -16.9 -12.75 -16.85 -12.8 -16.85 -12.85 -16.8 -12.9 -16.8 -12.95 -16.75 -13.0 -16.7 -13.05 -16.7 -13.2 -16.55 -13.3 -16.55 -13.35 -16.5 -13.45 -16.4 -13.5 -16.4 -13.5 -16.35 -13.55 -16.35 -13.6 -16.3 -13.65 -16.25 -13.7 -16.25 -13.75 -16.2 -13.8 -16.2 -13.95 -16.05 -14.0 -16.05 -14.05 -16.0 -14.1 -16.0 -14.15 -15.95 -14.2 -15.9 -14.25 -15.9 -14.25 -15.85 -14.3 -15.85 -14.35 -15.8 -14.4 -15.75 -14.45 -15.75 -14.5 -15.7 -14.55 -15.7 -14.7 -15.55 -14.75 -15.55 -14.8 -15.5 -14.85 -15.45 -14.9 -15.4 -14.95 -15.35 -15.0 -15.3 -15.0 -15.25 -15.05 -15.2 -15.1 -15.15 -15.15 -15.15 -15.2 -15.1 -15.25 -15.05 -15.35 -15.05 -15.4 -15.0 -15.45 -15.0 -15.45 -9.9 -15.45 -9.85 -15.4 -9.8 -15.4 -9.7 -15.4 -8.95 -15.35 -8.9 -15.35 -8.8 -15.35 -6.1 -15.3 -6.05 -15.3 -5.95 -15.3 5.95 -15.3 6.05 -15.35 6.1 -15.35 6.9 -15.35 7.0 -15.4 7.05 -15.4 11.05 -15.35 11.1 -15.35 11.2 -15.35 14.0 -15.3 14.05 -15.3 14.15 -15.25 14.65 -15.25 14.75 -15.25 14.8 -15.2 14.9 -15.2 15.35 -15.2 15.45 -15.15 15.5 -15.1 15.5 -15.05 15.55 -15.0 15.55 -14.8 15.75 -14.75 15.8 -14.7 15.85 -14.65 15.9 -14.6 15.95 -14.55 16.0 -14.5 16.05 -14.5 16.1 -14.45 16.15 -14.4 16.2 -14.35 16.25 -14.3 16.3 -14.25 16.3 -14.05 16.5 -14.0 16.55 -13.85 16.75 -13.75 16.8 -13.75 16.85 -13.7 16.9 -13.65 16.95 -13.6 17.0 -13.55 17.05 -13.5 17.1 -13.45 17.15 -13.4 17.2 -13.3 17.3 -13.25 17.3 -13.1 17.45 -13.05 17.45 -13.0 17.5 -13.0 17.55 -12.95 17.55 -12.85 17.65 -12.8 17.7 -12.75 17.75 -12.7 17.75 -12.65 17.8 -12.6 17.8 -12.5 17.9 -12.45 17.9 -12.4 17.95 -12.35 17.95 -12.3 18.0 -12.25 18.05 -12.2 18.05 -12.1 18.15 -12.05 18.2 -12.0 18.25 -11.95 18.25 -11.9 18.3 -11.85 18.3 -11.65 18.5 -11.6 18.5 -11.55 18.55 -11.5 18.55 -11.5 18.6 -11.45 18.6 -11.3 18.75 -11.25 18.75 -11.2 18.8 -11.15 18.85 -11.05 18.95 -11.0 18.95 -10.9 19.05 -10.85 19.05 -10.8 19.1 -10.75 19.15 -10.75 19.2 -10.65 19.3 -10.6 19.35 -10.55 19.4 -10.5 19.45 -10.45 19.5 -10.4 19.5 -10.35 19.55 -10.3 19.55 -10.25 19.6 -10.2 19.65 -10.15 19.7 -10.1 19.7 -10.05 19.75 -10.0 19.8 -10.0 19.85 -9.95 19.85 -9.8 20.0 -9.75 20.0 -9.7 20.05 -9.65 20.1 -9.6 20.15 -9.55 20.15 -9.5 20.2 -9.25 20.2 -9.25 20.25 -9.2 20.25 -9.15 20.3 -9.1 20.3 -9.05 20.35 -8.85 20.35 -8.8 20.4 -8.7 20.4 -8.65 20.3 -8.6 20.2 -8.55 20.15 -8.5 20.1 -8.45 20.05 -8.4 20.0 -8.35 20.0 -8.25 19.9 -8.25 19.85 -8.2 19.85 -8.15 19.8 -8.1 19.75 -8.05 19.75 -7.9 19.6 -7.85 19.55 -7.75 19.55 -7.7 19.5 -7.65 19.45 -7.6 19.4 -7.5 19.3 -7.5 19.25 -7.45 19.25 -7.4 19.2 -7.35 19.15 -7.3 19.1 -7.25 19.05 -7.2 19.05 -7.15 19.0 -7.1 18.95 -7.05 18.9 -7.0 18.85 -6.95 18.8 -6.9 18.75 -6.85 18.75 -6.8 18.7 -6.75 18.65 -6.75 18.6 -6.7 18.6 -6.4 18.3 -6.35 18.3 -6.3 18.25 -6.25 18.2 -6.2 18.15 -6.1 18.05 -6.05 18.05 -6.0 18.0 -6.0 17.95 -5.95 17.9 -5.9 17.85 -5.85 17.8 -5.8 17.8 -5.75 17.75 -5.7 17.75 -5.65 17.7 -5.6 17.65 -5.55 17.6 -5.5 17.55 -5.45 17.5 -5.4 17.45 -5.35 17.45 -5.3 17.4 -5.25 17.35 -5.25 17.3 -5.2 17.3 -5.15 17.25 -5.1 17.25 -4.9 17.05 -4.8 17.05 -4.75 17.0 -4.7 16.95 -4.65 16.95 -4.6 16.9 -4.5 16.8 -4.5 16.75 -4.45 16.7 -4.4 16.7 -4.35 16.65 -4.3 16.6 -4.25 16.55 -4.2 16.55 -4.15 16.5 -4.1 16.5 -4.05 16.45 -4.0 16.4 -3.9 16.3 -3.85 16.3 -3.8 16.25 -3.75 16.2 -3.7 16.15 -3.65 16.15 -3.6 16.1 -3.55 16.05 -3.5 16.05 -3.4 15.95 -3.35 15.95 -3.3 15.9 -3.25 15.9 -3.2 15.85 -3.15 15.8 -3.1 15.75 -3.05 15.75 -3.0 15.7 -2.95 15.7 -2.9 15.65 -2.85 15.6 -2.9 15.6 -2.9 15.55 -3.0 15.55 -3.0 15.5 -3.65 15.5 -3.7 15.45 -3.85 15.45 -3.9 15.4 -4.05 15.4 -4.1 15.35 -4.15 15.35 -4.25 15.3 -4.35 15.3 -4.45 15.25 -4.5 15.2 -4.75 15.2 -4.8 15.15 -4.95 15.15 -5.0 15.1 -5.1 15.05 -5.15 15.05 -5.2 15.0 -5.4 15.0 -5.4 14.95 -5.45 14.95 -5.55 14.9 -5.6 14.9 -5.65 14.85 -5.75 14.8 -5.8 14.75 -5.95 14.75 -6.0 14.7 -6.05 14.7 -6.15 14.65 -6.2 14.65 -6.25 14.6 -6.3 14.6 -6.4 14.55 -6.4 14.5 -6.45 14.45 -6.5 14.45 -6.6 14.4 -6.65 14.4 -6.7 14.35 -6.8 14.3 -6.85 14.3 -6.9 14.25 -6.95 14.25 -7.05 14.2 -7.1 14.15 -7.15 14.15 -7.25 14.1 -7.3 14.05 -7.35 14.0 -7.35 13.95 -7.45 13.9 -7.5 13.9 -7.55 13.85 -7.6 13.85 -7.7 13.8 -7.75 13.75 -7.8 13.75 -8.1 13.55 -8.2 13.55 -8.25 13.5 -8.35 13.45 -8.35 13.4 -8.4 13.35 -8.45 13.25 -8.5 13.25 -8.55 13.15 -8.55 13.1 -8.6 13.05 -8.65 13.05 -8.75 13.0 -8.8 12.95 -8.85 12.9 -8.95 12.85 -9.0 12.8 -9.0 12.75 -9.05 12.7 -9.1 12.6 -9.2 12.55 -9.2 12.5 -9.25 12.4 -9.25 12.3 -9.25 -0.05 -9.25 -0.15 -9.2 -0.25 -9.1 -0.35 -9.05 -0.4 -9.0 -0.45 -8.95 -0.5 -8.85 -0.55 -8.8 -0.55 -8.75 -0.6 -8.5 -0.6 -8.35 -0.6 -8.25 -0.55 -8.2 -0.55 -8.1 -0.45 -8.0 -0.45 -7.95 -0.4 -7.9 -0.3 -7.9 -0.2 -7.8 -0.15 -7.8 -0.05 -7.75 11.2 -7.7 11.2 -7.55 11.3 -7.5 11.3 -7.45 11.35 -7.35 11.4 -7.35 11.45 -7.25 11.55 -7.15 11.6 -7.1 11.65 -7.05 11.7 -6.95 11.8 -6.9 11.85 -6.8 11.95 -6.7 12.05 -6.65 12.1 -6.6 12.2 -6.5 12.3 -6.45 12.3 -6.4 12.4 -6.4 12.45 -6.3 12.55 -6.25 12.65 -6.25 12.75 -6.25 12.9 -6.25 13.0 -6.3 13.1 -6.3 13.15 -6.25 13.2 -6.2 13.25 -6.15 13.25 -6.05 13.3 -6.0 13.3 -5.85 13.4 -5.8 13.45 -5.75 13.5 -5.65 13.5 -5.6 13.55 -5.55 13.55 -5.4 13.65 -5.35 13.7 -5.1 13.7 -5.1 13.75 -5.0 13.75 -4.95 13.8 -4.9 13.85 -4.8 13.9 -4.75 13.9 -4.7 13.95 -4.5 13.95 -4.45 14.0 -4.35 14.0 -4.3 14.05 -4.25 14.05 M-9.15 -19.9 L-9.1 -19.95 -9.05 -20.05 -9.0 -20.1 -9.0 -20.15 -8.95 -20.2 -8.9 -20.2 -8.85 -20.25 -8.8 -20.25 -8.75 -20.3 -8.55 -20.3 -8.6 -20.35 -8.65 -20.35 -8.7 -20.4 -8.75 -20.4 -8.75 -20.45 -8.8 -20.5 -8.85 -20.55 -8.9 -20.5 -8.95 -20.5 -9.0 -20.45 -9.0 -20.4 -9.05 -20.35 -9.1 -20.3 -9.15 -20.25 -9.35 -20.05 -9.4 -20.0 -9.5 -19.9 -9.55 -19.85 -9.6 -19.8 -9.65 -19.7 -9.6 -19.75 -9.55 -19.75 -9.5 -19.8 -9.35 -19.8 -9.3 -19.85 -9.2 -19.85 -9.15 -19.9" fill="#000000" fill-rule="evenodd" stroke="none"/>
    <path d="M-13.75 -16.05 L-13.7 -16.05 -13.65 -15.9 -13.55 -15.85 -13.45 -15.8 -13.35 -15.75 -13.25 -15.75 -13.2 -15.75 -13.15 -15.65 -13.05 -15.45 -13.05 -15.25 -13.0 -15.15 -12.95 -14.95 -12.95 -14.75 -12.9 -14.65 -12.8 -14.1 -12.8 -13.9 -12.75 -13.85 -12.7 -13.35 -12.7 -13.15 -12.65 -13.05 -12.55 -12.6 -12.55 -12.4 -12.5 -12.35 -12.45 -11.45 -12.45 -11.25 -12.4 -11.15 -12.3 -10.95 -12.3 -10.75 -12.25 -10.65 -12.2 -9.6 -12.2 -9.4 -12.15 -9.3 -12.05 -8.7 -12.05 -8.5 -12.1 -8.6 -12.15 -8.65 -12.2 -8.75 -12.2 -8.95 -12.25 -9.15 -12.3 -9.25 -12.35 -9.5 -12.4 -9.6 -12.45 -9.65 -12.45 -9.85 -12.55 -10.15 -12.65 -10.3 -12.7 -10.4 -12.7 -10.6 -12.8 -11.0 -12.9 -11.15 -12.95 -11.25 -12.95 -11.45 -13.0 -11.6 -13.05 -11.65 -13.05 -11.85 -13.15 -12.15 -13.2 -12.35 -13.3 -12.5 -13.35 -12.75 -13.45 -12.9 -13.5 -13.1 -13.55 -13.15 -13.6 -13.35 -13.65 -13.4 -13.7 -13.5 -13.7 -13.7 -13.8 -13.9 -13.9 -14.05 -13.95 -14.15 -13.9 -10.45 -13.85 -10.3 -13.8 -10.1 -13.8 -9.9 -13.75 -9.8 -13.7 -9.6 -13.65 -9.5 -13.6 -9.4 -13.55 -9.15 -13.45 -9.1 -13.4 -9.0 -13.35 -8.9 -13.3 -8.65 -13.2 -8.5 -13.1 -8.35 -13.05 -8.25 -13.0 -8.15 -12.95 -7.95 -12.95 -7.7 -13.05 -7.45 -13.1 -7.4 -13.15 -7.3 -13.2 -7.25 -13.0 -7.15 Q-12.5 -6.95 -12.5 -6.35 -12.5 -5.55 -13.2 -5.4 L-13.2 -5.2 -13.25 -5.0 -13.3 -4.9 -13.3 -4.85 Q-12.85 -4.45 -12.75 -3.45 L-12.75 -3.2 -12.7 -3.2 -12.6 -3.15 -12.55 -3.15 -12.45 -3.15 -12.35 -3.15 -12.25 -3.15 -12.2 -4.1 -12.15 -4.4 -12.05 -4.5 -12.05 -5.45 -12.0 -5.65 -11.95 -5.85 -11.85 -6.0 -11.75 -6.1 -11.65 -6.2 -11.55 -6.25 -11.5 -6.3 -11.45 -6.1 -11.45 -5.9 -11.4 -5.8 -11.3 -5.2 -11.3 -5.0 -11.25 -4.9 -11.2 -4.7 -11.2 -4.5 -11.15 -4.4 -11.05 -4.2 -11.05 -4.0 -11.0 -3.9 -10.95 -3.45 -10.95 -3.25 -10.9 -3.15 -10.8 -2.85 -10.8 -2.65 -10.75 -2.6 -10.7 -2.45 -10.7 -2.25 -10.65 -2.15 -10.6 -2.05 -10.6 13.55 -10.7 13.45 -10.8 13.35 -10.85 13.15 -10.9 13.1 -10.95 12.95 -10.95 12.8 -11.05 12.7 -11.1 12.5 -11.2 12.3 -11.2 12.15 -11.25 12.1 -11.3 11.95 -11.35 11.8 -11.4 11.65 -11.45 11.45 -11.45 11.3 -11.55 11.2 -11.6 11.0 -11.7 10.8 -11.7 10.65 -11.75 10.35 -11.8 10.25 -11.8 10.05 -11.9 9.75 -11.95 9.75 -12.05 9.75 -12.05 9.7 -12.1 9.65 -12.1 9.55 -12.15 9.35 -12.1 9.3 -12.0 9.2 -11.9 9.05 -11.85 8.85 -11.8 8.65 -11.8 8.15 -11.85 8.15 -11.85 7.95 -11.85 7.8 -11.9 6.9 -11.95 6.7 -11.95 6.55 -12.0 6.5 -12.05 6.35 -12.1 6.15 -12.15 5.25 -12.2 5.05 -12.25 4.85 -12.3 4.5 -12.35 4.3 -12.35 4.15 -12.4 4.0 -12.45 3.8 -12.5 3.6 -12.55 3.0 -12.6 2.8 -12.6 2.65 -12.65 2.0 -12.7 1.8 -12.7 1.65 -12.75 1.6 -12.8 1.45 -12.9 1.25 -13.0 1.1 -13.1 1.0 -13.2 0.9 -13.3 0.85 -13.35 0.75 -13.4 0.75 -13.4 0.35 -13.35 0.3 -13.35 0.2 -13.35 -0.4 -13.3 -0.45 -13.3 -0.55 -13.25 -0.65 -13.25 -0.75 -13.2 -0.85 -13.2 -1.2 -13.2 -1.25 -13.15 -1.35 -13.15 -1.45 -13.15 -1.7 -13.15 -1.8 -13.2 -1.85 -13.2 -1.95 -13.4 -2.15 -13.45 -2.2 -13.6 -2.2 -13.65 -2.25 -13.75 -2.25 -13.8 -2.2 -13.85 -2.2 -13.9 -2.35 -13.9 -2.45 -13.95 -2.5 -13.95 -2.55 -13.95 -3.45 -14.0 -3.55 -14.0 -3.6 -14.0 -3.7 -14.25 -3.95 -14.4 -3.95 -14.45 -4.0 -14.6 -4.0 -14.65 -3.95 -14.65 -4.05 -14.7 -4.35 -14.75 -4.55 -14.8 -4.65 -14.75 -4.85 -14.75 -12.6 -14.8 -12.8 -14.8 -12.95 -14.85 -14.1 -14.85 -14.3 -14.85 -14.35 -14.75 -14.5 -14.65 -14.75 -14.55 -14.9 -14.45 -15.05 -14.35 -15.2 -14.3 -15.3 -14.2 -15.45 -14.1 -15.6 -14.0 -15.75 -13.9 -15.9 -13.8 -16.0 -13.75 -16.05 M-11.05 -11.35 L-11.1 -11.55 -11.15 -11.65 -11.1 -11.6 -11.0 -11.4 -10.9 -11.3 -10.85 -11.15 -10.8 -11.0 -10.7 -10.85 -10.65 -10.75 -10.6 -10.65 -10.6 -10.4 -10.65 -10.5 -10.7 -10.6 -10.8 -10.75 -10.85 -10.9 -10.9 -11.05 -11.0 -11.15 -11.05 -11.35 M-7.95 16.0 L-7.9 16.0 -7.8 16.05 -7.7 16.1 -7.6 16.15 -7.5 16.15 -7.4 16.2 -7.3 16.25 -7.2 16.3 -7.15 16.3 -7.05 16.4 -6.95 16.5 -6.85 16.65 -6.75 16.75 -6.65 16.8 -6.55 16.85 -6.5 16.85 -6.5 16.9 -6.55 16.9 -6.6 16.95 -6.65 17.0 -6.7 17.05 -6.75 17.05 -6.75 17.1 -6.8 17.15 -6.85 17.15 -6.9 17.2 -6.95 17.25 -7.0 17.3 -7.1 17.3 -7.15 17.35 -7.3 17.5 -7.4 17.5 -7.45 17.5 -7.55 17.45 -7.65 17.4 -7.75 17.35 -7.85 17.25 -7.95 17.2 -8.05 17.15 -8.15 17.05 -8.2 16.95 -8.3 16.85 -8.4 16.8 -8.5 16.75 -8.6 16.65 -8.7 16.5 -8.8 16.3 -8.9 16.2 -8.95 16.05 -9.05 15.95 -9.15 15.8 -9.25 15.65 -9.3 15.5 -9.0 15.5 -8.9 15.55 -8.8 15.7 -8.7 15.8 -8.65 15.8 -8.55 15.9 -8.45 15.9 -8.35 15.9 -8.25 15.9 -8.15 15.9 -8.05 15.95 -7.95 16.0" fill="#e3af00" fill-rule="evenodd" stroke="none"/>
    <path d="M-9.4 -20.0 L-9.35 -20.0 -9.25 -19.95 -9.15 -19.9 -9.2 -19.85 -9.3 -19.85 -9.35 -19.8 -9.5 -19.8 -9.55 -19.75 -9.6 -19.75 -9.65 -19.7 -9.6 -19.8 -9.55 -19.85 -9.5 -19.9 -9.4 -20.0 M-10.6 13.55 L-10.6 15.5 -9.65 15.5 -9.55 15.6 -9.45 15.7 -9.35 15.8 -9.3 15.95 -9.2 16.05 -9.15 16.25 -9.05 16.35 -8.95 16.45 -8.85 16.55 -8.8 16.65 -8.7 16.75 -8.6 16.85 -8.5 17.0 -8.4 17.25 -8.3 17.35 -8.2 17.45 -8.1 17.55 -8.05 17.7 -7.95 17.8 -7.95 17.95 -7.95 18.15 -7.9 18.15 -7.9 18.2 -7.95 18.3 -8.0 18.4 -8.0 18.5 -8.0 18.55 -8.0 18.65 -8.1 18.75 -8.05 18.75 -7.95 18.75 -7.95 18.8 -7.9 18.9 -7.85 18.95 -7.8 19.0 -7.75 19.0 -7.85 19.05 -7.95 19.1 -8.05 19.15 -8.15 19.15 -8.2 19.15 -8.3 19.15 -8.4 19.15 -8.45 19.15 -8.5 19.15 -8.55 19.1 -8.65 19.15 -8.75 19.2 -8.85 19.2 -8.95 19.2 -9.05 19.15 -9.1 19.1 -9.2 19.1 -9.3 19.05 -9.4 19.0 -9.5 18.9 -9.6 18.8 -9.65 18.75 -9.75 18.75 -9.8 18.7 -9.85 18.7 -9.9 18.65 -9.95 18.65 -10.0 18.6 -10.0 18.55 -10.05 18.5 -10.15 18.5 -10.2 18.45 -10.25 18.45 -10.3 18.4 -10.35 18.4 -10.45 18.3 -10.55 18.3 -10.6 18.25 -10.65 18.25 -10.7 18.2 -10.75 18.2 -10.75 18.15 -10.8 18.15 -10.85 18.1 -10.9 18.1 -10.95 18.05 -11.0 18.0 -11.05 17.95 -11.15 17.95 -11.2 17.9 -11.25 17.9 -11.3 17.85 -11.35 17.85 -11.4 17.8 -11.45 17.8 -11.5 17.75 -11.5 17.7 -11.65 17.55 -11.65 17.5 -11.7 17.4 -11.7 17.3 -11.7 17.25 -11.7 17.15 -11.7 17.1 -11.8 17.0 -11.85 16.9 -11.9 16.9 -12.0 16.9 -12.1 16.9 -12.15 16.9 -12.15 16.95 -12.2 17.05 -12.3 17.05 -12.4 17.15 -12.5 17.15 -12.6 17.15 -12.7 17.15 -12.8 17.15 -12.9 17.05 -12.95 17.05 -13.05 16.95 -13.15 16.8 -13.25 16.65 -13.35 16.5 -13.45 16.4 -13.55 16.3 -13.6 16.25 -13.65 16.2 -13.7 16.15 -13.8 16.05 -13.9 16.0 -13.95 15.9 -14.05 15.9 -14.15 15.8 -14.25 15.75 -14.35 15.65 -14.45 15.55 -14.55 15.5 -14.65 15.35 -14.7 15.35 -14.7 15.4 -14.8 15.4 -14.9 15.5 -15.0 15.5 -15.1 15.5 -15.15 15.5 -15.2 15.45 -15.2 15.35 -15.15 15.3 -15.05 15.2 -14.95 15.1 -14.85 14.95 -14.8 14.75 -14.8 14.6 -14.75 14.4 -14.75 14.0 -14.75 13.9 -14.75 13.6 -14.8 13.55 -14.8 13.45 -14.8 12.65 -14.8 12.45 -14.8 12.3 -14.85 11.9 -14.85 11.7 -14.9 11.55 -14.95 11.45 -14.95 11.35 -15.05 11.25 -15.1 10.65 -15.1 10.45 -15.15 10.3 -15.2 10.2 -15.2 10.1 -15.25 10.0 -15.3 9.8 -15.3 9.65 -15.25 9.8 -15.15 9.95 -15.1 10.1 -15.05 10.35 -14.95 10.4 -14.9 10.5 -14.85 10.6 -14.8 10.85 -14.75 10.95 -14.8 10.75 -14.8 10.4 -14.75 10.2 -14.7 10.0 -14.6 9.85 -14.55 9.8 -14.55 9.7 -14.55 9.6 -14.5 9.55 -14.5 9.5 -14.5 7.7 -14.55 7.5 -14.55 6.9 -14.5 6.7 -14.5 4.25 -14.5 4.15 -14.45 4.05 -14.4 3.95 -14.45 3.75 -14.45 3.25 -14.5 3.1 -14.55 2.9 -14.6 2.4 -14.65 2.2 -14.7 2.0 -14.7 1.65 -14.65 1.45 -14.6 1.25 -14.5 1.1 -14.45 1.15 -14.4 1.2 -14.35 1.25 -14.3 1.3 -14.2 1.3 -14.15 1.35 -13.8 1.35 -13.75 1.3 -13.7 1.3 -13.65 1.25 -13.6 1.2 -13.55 1.15 -13.5 1.1 -13.45 1.0 -13.4 0.9 -13.4 0.8 -13.4 0.75 -13.35 0.75 -13.3 0.85 -13.2 0.9 -13.1 1.0 -13.0 1.1 -12.9 1.25 -12.8 1.45 -12.75 1.6 -12.7 1.65 -12.7 1.8 -12.65 2.0 -12.6 2.65 -12.6 2.8 -12.55 3.0 -12.5 3.6 -12.45 3.8 -12.4 4.0 -12.35 4.15 -12.35 4.3 -12.3 4.5 -12.25 4.85 -12.2 5.05 -12.15 5.25 -12.1 6.15 -12.05 6.35 -12.0 6.5 -11.95 6.55 -11.95 6.7 -11.9 6.9 -11.85 7.8 -11.85 7.95 -11.85 8.15 -11.8 8.15 -11.8 8.65 -11.85 8.85 -11.9 9.05 -12.0 9.2 -12.1 9.3 -12.15 9.35 -12.1 9.55 -12.1 9.65 -12.05 9.7 -12.05 9.75 -12.0 9.85 -11.95 9.9 -11.95 10.05 -11.9 10.25 -11.9 10.45 -11.85 10.45 -11.75 10.6 -11.7 10.8 -11.6 11.0 -11.55 11.2 -11.45 11.3 -11.45 11.45 -11.4 11.65 -11.35 11.8 -11.3 11.95 -11.25 12.1 -11.2 12.15 -11.2 12.3 -11.1 12.5 -11.05 12.7 -10.95 12.8 -10.95 12.95 -10.9 13.1 -10.85 13.15 -10.8 13.35 -10.7 13.45 -10.6 13.55 M-8.75 -18.4 L-8.8 -18.4 -8.75 -18.45 -8.7 -18.45 -8.65 -18.35 -8.75 -18.4" fill="#c97a05" fill-rule="evenodd" stroke="none"/>
  </g>
</svg>
