<?xml version="1.0" encoding="UTF-8" standalone="no"?>
<svg xmlns:ffdec="https://www.free-decompiler.com/flash" xmlns:xlink="http://www.w3.org/1999/xlink" ffdec:objectType="shape" height="205.1px" width="139.0px" xmlns="http://www.w3.org/2000/svg">
  <g transform="matrix(1.0, 0.0, 0.0, 1.0, 442.5, 118.5)">
    <path d="M-415.85 -75.0 L-415.4 -75.75 -415.0 -76.5 -412.8 -78.8 Q-411.75 -79.95 -410.4 -80.65 L-410.0 -81.0 -409.6 -81.35 -409.15 -81.75 -405.4 -83.1 -403.9 -83.65 -403.5 -84.0 -403.15 -84.25 -402.75 -84.35 -402.0 -84.45 -402.0 -84.5 -401.05 -84.2 -400.4 -83.9 Q-399.75 -83.25 -399.45 -82.4 L-398.65 -80.15 -398.5 -79.75 -398.5 -79.4 -398.5 -79.0 -398.5 -78.65 -398.35 -78.25 -397.8 -77.2 Q-397.45 -76.65 -397.5 -76.0 L-397.15 -75.6 -396.9 -75.25 -392.9 -66.9 Q-391.35 -63.5 -388.5 -61.0 L-387.95 -59.9 -386.8 -57.95 -386.65 -57.65 -383.7 -54.95 -381.65 -53.15 -381.4 -52.75 -381.25 -52.4 -381.0 -51.65 -381.05 -51.25 -381.15 -50.9 -381.5 -50.15 -381.8 -49.8 -382.25 -49.4 -382.75 -49.2 -383.5 -49.0 -384.0 -49.05 -385.15 -49.25 -385.65 -49.65 -394.75 -49.9 -395.5 -49.5 Q-396.35 -48.5 -397.55 -48.05 L-399.15 -46.9 -399.95 -45.0 -400.85 -42.35 -401.0 -42.0 -401.0 -41.65 -401.0 -41.25 -401.15 -40.9 -401.25 -40.5 -401.5 -39.75 -401.5 -37.5 -401.5 -34.15 -401.5 -33.4 -401.65 -33.0 -401.75 -32.65 -402.0 -31.9 -402.0 -31.5 -402.0 -30.75 -402.0 -29.65 -401.9 -29.25 -401.75 -28.9 -401.5 -28.15 -401.5 -27.75 -401.5 -27.0 -401.5 -25.9 -401.65 -25.5 -401.75 -25.15 -401.9 -24.75 -402.15 -24.4 -402.6 -24.0 -402.9 -23.75 -403.25 -23.65 -404.0 -23.5 -404.75 -23.65 Q-405.85 -23.25 -407.0 -23.2 L-409.15 -23.25 -412.0 -25.3 -413.65 -26.65 -413.85 -27.0 -414.05 -27.35 -414.25 -27.75 -415.75 -29.25 -417.65 -31.15 -418.2 -32.3 -419.15 -34.15 -419.4 -34.5 -419.5 -34.9 -419.5 -35.25 -419.5 -35.65 -419.65 -36.0 -419.75 -36.4 -420.0 -37.15 -420.0 -37.5 -420.0 -37.9 -420.25 -38.25 -420.7 -39.3 -421.0 -40.5 -421.0 -40.9 -421.0 -41.25 -421.15 -41.6 -421.35 -42.0 -421.5 -42.4 -421.5 -42.75 -421.5 -43.15 -421.5 -43.9 -421.5 -44.25 -421.65 -44.6 -421.85 -45.0 -422.0 -45.4 -422.0 -50.65 -422.0 -56.65 -422.0 -57.0 -421.9 -57.4 -421.75 -57.75 -421.5 -58.15 -421.5 -58.5 -421.5 -59.25 -421.5 -60.4 -421.4 -60.75 -421.25 -61.15 -421.0 -61.9 -421.0 -62.25 -421.0 -62.65 -421.0 -63.0 -418.6 -68.55 -416.0 -73.9 -416.0 -74.25 -416.0 -74.65 -415.85 -75.0 M-391.6 -55.65 L-391.85 -56.0 -392.0 -56.35 -392.35 -57.15 -392.5 -57.5 -392.9 -57.9 -393.25 -58.25 -393.4 -58.65 -393.5 -59.0 -394.25 -59.75 -395.0 -60.5 -395.75 -61.25 -395.9 -61.65 -396.0 -62.0 -396.4 -62.4 -396.75 -62.75 -397.85 -65.35 -399.85 -69.5 -400.5 -71.0 -400.9 -71.4 -401.25 -71.75 -401.95 -73.2 -402.8 -75.15 -403.5 -77.0 -403.5 -77.4 -403.5 -77.75 -403.55 -77.9 -404.0 -77.95 -404.25 -77.9 Q-406.45 -77.35 -408.1 -75.85 -409.25 -74.85 -410.5 -74.0 L-410.75 -73.6 -410.9 -73.25 -411.0 -72.9 -411.0 -72.5 -411.0 -72.15 -411.4 -71.4 -411.7 -70.6 -412.15 -69.5 -412.4 -68.75 -412.65 -68.4 -413.15 -68.0 -414.25 -66.05 -415.3 -63.5 -416.0 -62.0 -416.0 -61.65 -416.0 -61.25 -416.0 -60.9 -416.0 -60.5 -416.0 -60.15 -416.15 -59.75 -416.35 -59.35 -416.5 -59.0 -416.5 -58.65 -416.5 -58.25 -416.5 -57.9 -416.5 -57.5 -416.5 -56.75 -416.65 -56.4 -416.8 -56.0 -417.0 -55.65 -417.0 -53.0 -417.0 -49.25 -417.0 -47.0 -416.85 -46.65 -416.65 -46.25 -416.5 -45.9 -416.5 -45.5 -416.5 -45.15 -416.5 -44.75 -416.5 -44.4 -416.5 -44.0 -416.35 -43.65 -416.15 -43.25 -416.0 -42.9 -416.0 -42.5 -416.0 -42.15 -415.75 -41.4 -415.5 -40.65 -415.15 -39.5 -415.0 -39.15 -415.0 -38.75 -415.0 -38.4 -414.8 -38.0 -414.65 -37.65 -414.5 -37.25 -414.5 -36.9 -414.5 -36.5 Q-413.85 -35.85 -413.5 -35.0 -412.95 -33.7 -411.8 -32.7 L-410.65 -31.65 -410.4 -31.25 -410.25 -30.9 -410.0 -30.5 -409.2 -29.8 Q-408.65 -29.4 -407.95 -29.1 L-407.0 -28.9 -407.0 -30.0 -407.0 -31.5 -407.0 -33.0 -407.0 -33.4 -406.9 -33.75 -406.75 -34.15 -406.65 -34.5 -406.5 -34.9 -406.5 -36.4 -406.5 -38.25 -406.5 -40.9 -406.4 -41.25 -406.25 -41.65 -406.15 -42.0 -406.0 -42.4 -406.0 -42.75 -406.0 -43.15 -406.0 -43.5 -405.75 -44.25 -405.55 -45.0 -405.0 -46.15 -405.0 -46.5 -405.0 -46.9 -404.75 -47.6 -404.4 -48.4 -403.85 -49.5 -403.65 -49.9 Q-400.65 -52.65 -397.05 -54.55 -394.5 -55.9 -391.6 -55.3 L-391.25 -55.25 -391.6 -55.65" fill="#000000" fill-rule="evenodd" stroke="none"/>
    <path d="M-391.6 -55.3 Q-394.5 -55.9 -397.05 -54.55 -400.65 -52.65 -403.65 -49.9 L-403.85 -49.5 -404.4 -48.4 -404.75 -47.6 -405.0 -46.9 -405.0 -46.5 -405.0 -46.15 -405.55 -45.0 -405.75 -44.25 -406.0 -43.5 -406.0 -43.15 -406.0 -42.75 -406.0 -42.4 -406.15 -42.0 -406.25 -41.65 -406.4 -41.25 -406.5 -40.9 -406.5 -38.25 -406.5 -36.4 -406.5 -34.9 -406.65 -34.5 -406.75 -34.15 -406.9 -33.75 -407.0 -33.4 -407.0 -33.0 -407.0 -31.5 -407.0 -30.0 -407.0 -28.9 -407.95 -29.1 Q-408.65 -29.4 -409.2 -29.8 L-410.0 -30.5 -410.25 -30.9 -410.4 -31.25 -410.65 -31.65 -411.8 -32.7 Q-412.95 -33.7 -413.5 -35.0 -413.85 -35.85 -414.5 -36.5 L-414.5 -36.9 -414.5 -37.25 -414.65 -37.65 -414.8 -38.0 -415.0 -38.4 -415.0 -38.75 -415.0 -39.15 -415.15 -39.5 -415.5 -40.65 -415.75 -41.4 -416.0 -42.15 -416.0 -42.5 -416.0 -42.9 -416.15 -43.25 -416.35 -43.65 -416.5 -44.0 -416.5 -44.4 -416.5 -44.75 -416.5 -45.15 -416.5 -45.5 -416.5 -45.9 -416.65 -46.25 -416.85 -46.65 -417.0 -47.0 -417.0 -49.25 -417.0 -53.0 -417.0 -55.65 -416.8 -56.0 -416.65 -56.4 -416.5 -56.75 -416.5 -57.5 -416.5 -57.9 -416.5 -58.25 -416.5 -58.65 -416.5 -59.0 -416.35 -59.35 -416.15 -59.75 -416.0 -60.15 -416.0 -60.5 -416.0 -60.9 -416.0 -61.25 -416.0 -61.65 -416.0 -62.0 -415.3 -63.5 -414.25 -66.05 -413.15 -68.0 -412.65 -68.4 -412.4 -68.75 -412.15 -69.5 -411.7 -70.6 -411.4 -71.4 -411.0 -72.15 -411.0 -72.5 -411.0 -72.9 -410.9 -73.25 -410.75 -73.6 -410.5 -74.0 Q-409.25 -74.85 -408.1 -75.85 -406.45 -77.35 -404.25 -77.9 L-404.0 -77.95 -403.55 -77.9 -403.5 -77.75 -403.5 -77.4 -403.5 -77.0 -402.8 -75.15 -401.95 -73.2 -401.25 -71.75 -400.9 -71.4 -400.5 -71.0 -399.85 -69.5 -397.85 -65.35 -396.75 -62.75 -396.4 -62.4 -396.0 -62.0 -395.9 -61.65 -395.75 -61.25 -395.0 -60.5 -394.25 -59.75 -393.5 -59.0 -393.4 -58.65 -393.25 -58.25 -392.9 -57.9 -392.5 -57.5 -392.35 -57.15 -392.0 -56.35 -391.85 -56.0 -391.6 -55.65 -391.6 -55.3" fill="#80a839" fill-rule="evenodd" stroke="none"/>
    <path d="M-404.4 6.1 L-404.0 6.5 -403.85 6.85 -403.65 7.25 -403.3 8.0 -403.0 8.75 -403.0 9.1 -403.0 9.5 -403.0 9.85 -403.0 10.25 -402.95 10.6 -402.25 12.5 -401.35 15.05 -401.0 16.25 -401.0 16.6 -401.0 17.0 -400.85 17.35 -400.65 17.75 -400.5 18.1 -400.5 20.75 -400.5 26.75 -400.5 30.85 -400.65 31.25 -400.8 31.65 -401.2 32.7 -401.35 33.15 -401.5 33.5 -401.5 33.85 -401.5 34.25 -401.65 34.6 -401.8 35.0 -402.0 35.35 -402.0 35.75 -402.0 36.1 -402.0 36.5 -402.0 36.85 -402.15 37.25 -402.35 37.65 -402.5 38.0 -402.9 38.75 -402.75 39.1 -402.65 39.5 -402.55 39.85 -402.5 40.25 Q-401.9 41.6 -400.1 42.05 L-393.75 42.25 -393.4 41.85 -393.0 41.5 -392.15 40.75 -391.75 40.35 -391.55 40.0 -391.4 39.6 -391.25 39.25 -390.9 38.85 -390.65 38.5 -390.5 38.1 -390.35 37.75 -389.9 36.6 -389.75 36.25 -389.5 35.85 -389.5 35.5 -389.5 35.1 -389.4 34.75 -389.4 34.35 -389.5 34.0 -389.5 33.6 -389.45 32.85 -389.4 32.5 -389.1 32.15 -388.75 31.75 -388.4 31.35 -387.75 31.15 -387.0 31.0 -386.55 31.05 Q-385.85 31.25 -385.2 31.6 L-384.4 31.35 -383.75 31.1 -383.0 31.05 -383.0 31.0 Q-377.05 29.9 -373.9 34.2 -371.9 37.0 -371.0 40.35 L-371.0 40.75 -371.0 41.1 -370.8 41.5 -370.6 41.85 -370.4 42.25 -370.25 42.6 -370.0 43.35 -370.0 43.75 -370.0 44.1 -369.8 44.5 -369.6 44.85 -369.4 45.25 -369.25 45.6 -369.0 46.35 -369.0 47.5 -369.0 50.85 -369.0 55.75 -369.15 56.1 -369.3 56.5 -369.5 56.85 -369.5 57.25 -369.5 57.6 -369.5 58.0 -369.5 58.35 -369.65 58.75 -369.85 59.15 -370.0 59.5 -370.4 59.85 -370.75 60.2 -371.25 60.6 -371.25 60.65 -372.0 62.5 -373.4 66.25 Q-375.3 69.6 -378.0 72.45 -382.45 77.1 -388.75 77.75 L-389.25 78.1 Q-395.85 80.65 -402.55 78.7 -403.75 78.35 -404.75 77.6 L-405.5 77.45 -407.5 77.0 -408.65 76.75 Q-410.4 75.25 -412.5 74.4 -416.0 73.05 -418.9 70.6 L-419.15 70.2 -420.1 68.35 -421.45 65.75 -421.9 65.0 -421.95 64.6 Q-422.05 63.8 -422.5 63.1 L-423.35 61.25 -424.0 59.35 -424.0 59.0 -424.0 58.6 -424.0 58.25 -424.15 57.9 -424.35 57.5 -424.5 57.1 -424.5 56.75 -424.5 56.35 -424.65 56.0 -424.75 55.6 -424.9 55.25 -425.0 54.85 -425.0 53.75 -425.0 50.75 -425.0 47.0 -425.0 46.6 -424.9 46.25 -424.75 45.85 -424.65 45.5 -424.5 45.1 -424.5 44.75 -424.5 44.35 -424.5 44.0 -424.4 43.6 -424.25 43.25 -424.0 42.85 -424.0 42.5 -424.0 42.1 -423.9 41.75 -423.65 41.0 -423.25 39.85 -422.75 38.35 -422.5 38.0 -422.15 37.6 -421.75 37.25 -421.55 36.85 -421.45 36.5 -421.4 36.1 -421.2 35.75 -420.9 35.35 -420.5 35.0 -420.4 34.6 -420.25 34.25 -419.9 33.85 -418.75 32.75 -417.65 31.6 -417.25 31.25 -416.85 30.5 Q-416.15 29.45 -415.75 28.25 L-414.5 24.85 -414.5 24.5 -414.5 24.1 -414.5 23.75 -414.5 23.35 -414.35 23.0 -414.2 22.6 -413.8 21.5 -413.65 21.1 -413.5 20.75 -413.5 20.35 -413.5 20.0 -413.5 19.6 -413.4 19.25 -413.25 18.85 -413.4 18.5 -413.5 18.1 -413.5 17.75 -413.5 17.35 -413.5 17.0 -413.5 16.25 -413.65 15.9 -413.85 15.5 -414.0 15.1 -414.0 14.75 -414.0 14.35 -414.1 14.0 Q-414.35 13.15 -414.8 12.45 L-415.55 11.0 -416.15 9.85 -416.5 9.5 -416.9 9.1 -417.25 8.75 -417.65 8.35 -417.85 8.0 -418.35 7.35 -419.1 6.15 -419.5 5.0 -419.5 4.6 -419.5 4.25 -419.5 3.85 -419.4 3.1 -419.2 2.75 -418.9 2.35 -417.75 1.25 -417.4 0.85 -416.5 0.45 -416.15 0.25 -415.75 0.15 -415.0 0.05 -415.0 0.0 Q-411.6 -0.25 -408.6 1.4 -406.4 2.65 -405.5 5.0 L-405.15 5.35 -404.75 5.75 -404.4 6.1 M-404.6 45.65 L-405.95 44.95 -406.4 44.6 -406.7 44.2 -406.9 43.85 -407.25 43.1 -407.5 42.35 -407.5 42.0 -407.5 41.6 -407.75 41.25 -407.9 40.85 -408.0 40.5 -408.0 40.1 -408.0 39.75 -408.0 38.6 -408.0 37.85 -408.0 37.5 -407.9 37.1 -407.75 36.75 -407.35 35.6 -407.25 35.25 -407.0 34.85 -407.0 34.5 -407.0 34.1 -407.0 33.75 -407.0 33.35 -406.85 33.0 -406.7 32.6 -406.35 31.5 -406.15 31.1 -406.0 30.75 -406.0 30.35 -406.0 30.0 -405.9 29.6 -405.75 29.25 -405.5 28.85 -405.5 27.75 -405.5 24.35 -405.5 20.25 -405.65 19.9 -405.85 19.5 -406.0 19.1 -406.0 18.75 -406.0 18.35 -406.15 18.0 -406.4 17.25 -406.75 16.1 -407.0 15.35 -407.0 15.0 -407.0 14.6 -407.25 14.25 -407.35 13.85 -407.75 12.75 -407.9 12.35 -408.0 12.0 -408.0 11.6 -408.0 11.25 -408.0 10.85 -408.15 10.5 -408.25 10.1 -408.4 9.75 -408.65 9.4 -409.0 9.0 -409.75 8.25 -410.15 7.85 -410.35 7.5 -410.55 7.15 -410.7 6.75 -410.9 6.1 -411.0 6.05 -412.1 5.7 -412.9 5.35 -412.25 6.45 Q-411.0 7.7 -410.25 9.3 L-409.0 12.35 -409.0 12.75 -409.0 13.1 -408.8 13.5 -408.65 13.85 -408.5 14.25 -408.5 14.6 -408.5 15.0 -408.5 15.35 -408.5 16.1 -408.5 16.5 -408.35 16.85 -408.15 17.25 -408.0 17.6 -408.0 18.0 -408.0 18.35 -408.0 19.1 -408.0 19.85 -408.0 20.25 -408.15 20.6 -408.3 21.0 -408.5 21.35 -408.5 21.75 -408.5 22.1 -408.5 22.5 -408.5 22.85 -408.65 23.25 -408.85 23.65 -409.25 24.4 -409.5 25.1 -409.5 25.5 -409.5 25.85 -409.5 26.25 -409.65 26.6 -409.8 27.0 -410.0 27.35 -410.0 27.75 -410.0 28.1 -410.15 28.5 -410.25 28.85 -410.5 29.6 -410.75 30.35 -410.9 30.75 -411.15 31.1 -411.5 31.5 -411.55 31.85 -411.85 32.6 -412.55 33.8 -413.0 34.5 -413.4 34.85 -413.75 35.25 -414.25 35.6 -414.75 36.0 -415.25 36.75 -416.7 39.0 -418.4 41.6 -418.45 42.0 -418.55 42.35 -418.65 42.75 -419.0 43.5 -419.0 43.85 -419.0 44.25 -419.15 44.6 -419.3 45.0 -419.5 45.35 -419.5 45.75 -419.5 46.1 -419.5 46.5 -419.5 46.85 -419.65 47.25 -419.85 47.65 -420.0 48.0 -420.0 48.35 -420.0 49.85 -420.0 51.35 -420.0 52.85 -419.9 53.25 -419.75 53.6 -419.65 54.0 -419.5 54.35 -419.5 54.75 -419.5 55.1 -419.5 55.5 -419.35 55.85 -419.15 56.25 -419.0 56.6 -419.0 57.0 -419.0 57.35 -418.9 57.75 -418.75 58.1 -418.65 58.5 -418.5 58.85 -418.5 59.25 -418.5 59.6 -417.9 60.75 -416.6 63.8 -414.9 67.1 -414.5 67.45 -413.8 67.9 Q-413.15 68.3 -412.65 68.85 L-407.9 70.7 -400.25 73.85 Q-390.4 74.8 -382.45 69.0 L-379.65 66.6 -378.6 64.7 Q-377.55 62.7 -376.85 60.6 -376.35 58.9 -375.5 57.25 L-375.5 56.85 -375.5 56.5 -375.4 56.1 -375.2 55.75 -374.9 55.35 -374.65 55.0 -374.5 54.6 -374.4 54.25 -374.25 53.85 -374.0 53.5 -374.0 52.85 -374.0 50.25 -374.0 48.0 -374.1 47.65 -374.6 46.55 -375.4 44.25 -376.0 42.35 -376.0 42.0 -376.0 41.6 -376.2 41.25 -376.55 40.5 -377.35 39.0 -378.5 37.1 -378.8 36.8 Q-379.15 36.6 -379.5 36.5 L-380.65 36.3 -382.5 36.25 -383.1 36.65 -383.6 37.0 -383.9 37.25 -384.25 37.35 -384.45 37.4 -385.75 40.2 Q-386.55 41.95 -387.65 43.6 L-389.5 45.5 Q-392.15 48.05 -396.0 48.0 L-397.65 47.75 Q-400.75 47.4 -403.5 46.0 L-404.6 45.65" fill="#000000" fill-rule="evenodd" stroke="none"/>
    <path d="M-404.6 45.65 L-403.5 46.0 Q-400.75 47.4 -397.65 47.75 L-396.0 48.0 Q-392.15 48.05 -389.5 45.5 L-387.65 43.6 Q-386.55 41.95 -385.75 40.2 L-384.45 37.4 -384.25 37.35 -383.9 37.25 -383.6 37.0 -383.1 36.65 -382.5 36.25 -380.65 36.3 -379.5 36.5 Q-379.15 36.6 -378.8 36.8 L-378.5 37.1 -377.35 39.0 -376.55 40.5 -376.2 41.25 -376.0 41.6 -376.0 42.0 -376.0 42.35 -375.4 44.25 -374.6 46.55 -374.1 47.65 -374.0 48.0 -374.0 50.25 -374.0 52.85 -374.0 53.5 -374.25 53.85 -374.4 54.25 -374.5 54.6 -374.65 55.0 -374.9 55.35 -375.2 55.75 -375.4 56.1 -375.5 56.5 -375.5 56.85 -375.5 57.25 Q-376.35 58.9 -376.85 60.6 -377.55 62.7 -378.6 64.7 L-379.65 66.6 -382.45 69.0 Q-390.4 74.8 -400.25 73.85 L-407.9 70.7 -412.65 68.85 Q-413.15 68.3 -413.8 67.9 L-414.5 67.45 -414.9 67.1 -416.6 63.8 -417.9 60.75 -418.5 59.6 -418.5 59.25 -418.5 58.85 -418.65 58.5 -418.75 58.1 -418.9 57.75 -419.0 57.35 -419.0 57.0 -419.0 56.6 -419.15 56.25 -419.35 55.85 -419.5 55.5 -419.5 55.1 -419.5 54.75 -419.5 54.35 -419.65 54.0 -419.75 53.6 -419.9 53.25 -420.0 52.85 -420.0 51.35 -420.0 49.85 -420.0 48.35 -420.0 48.0 -419.85 47.65 -419.65 47.25 -419.5 46.85 -419.5 46.5 -419.5 46.1 -419.5 45.75 -419.5 45.35 -419.3 45.0 -419.15 44.6 -419.0 44.25 -419.0 43.85 -419.0 43.5 -418.65 42.75 -418.55 42.35 -418.45 42.0 -418.4 41.6 -416.7 39.0 -415.25 36.75 -414.75 36.0 -414.25 35.6 -413.75 35.25 -413.4 34.85 -413.0 34.5 -412.55 33.8 -411.85 32.6 -411.55 31.85 -411.5 31.5 -411.15 31.1 -410.9 30.75 -410.75 30.35 -410.5 29.6 -410.25 28.85 -410.15 28.5 -410.0 28.1 -410.0 27.75 -410.0 27.35 -409.8 27.0 -409.65 26.6 -409.5 26.25 -409.5 25.85 -409.5 25.5 -409.5 25.1 -409.25 24.4 -408.85 23.65 -408.65 23.25 -408.5 22.85 -408.5 22.5 -408.5 22.1 -408.5 21.75 -408.5 21.35 -408.3 21.0 -408.15 20.6 -408.0 20.25 -408.0 19.85 -408.0 19.1 -408.0 18.35 -408.0 18.0 -408.0 17.6 -408.15 17.25 -408.35 16.85 -408.5 16.5 -408.5 16.1 -408.5 15.35 -408.5 15.0 -408.5 14.6 -408.5 14.25 -408.65 13.85 -408.8 13.5 -409.0 13.1 -409.0 12.75 -409.0 12.35 -410.25 9.3 Q-411.0 7.7 -412.25 6.45 L-412.9 5.35 -412.1 5.7 -411.0 6.05 -410.9 6.1 -410.7 6.75 -410.55 7.15 -410.35 7.5 -410.15 7.85 -409.75 8.25 -409.0 9.0 -408.65 9.4 -408.4 9.75 -408.25 10.1 -408.15 10.5 -408.0 10.85 -408.0 11.25 -408.0 11.6 -408.0 12.0 -407.9 12.35 -407.75 12.75 -407.35 13.85 -407.25 14.25 -407.0 14.6 -407.0 15.0 -407.0 15.35 -406.75 16.1 -406.4 17.25 -406.15 18.0 -406.0 18.35 -406.0 18.75 -406.0 19.1 -405.85 19.5 -405.65 19.9 -405.5 20.25 -405.5 24.35 -405.5 27.75 -405.5 28.85 -405.75 29.25 -405.9 29.6 -406.0 30.0 -406.0 30.35 -406.0 30.75 -406.15 31.1 -406.35 31.5 -406.7 32.6 -406.85 33.0 -407.0 33.35 -407.0 33.75 -407.0 34.1 -407.0 34.5 -407.0 34.85 -407.25 35.25 -407.35 35.6 -407.75 36.75 -407.9 37.1 -408.0 37.5 -408.0 37.85 -408.0 38.6 -408.0 39.75 -408.0 40.1 -408.0 40.5 -407.9 40.85 -407.75 41.25 -407.5 41.6 -407.5 42.0 -407.5 42.35 -407.25 43.1 -406.9 43.85 -406.7 44.2 -406.4 44.6 -405.95 44.95 -404.6 45.65" fill="#80a839" fill-rule="evenodd" stroke="none"/>
    <path d="M-436.0 -75.0 L-435.25 -75.75 -434.9 -76.15 -434.0 -76.55 -433.35 -76.85 -432.65 -77.25 -431.5 -77.45 -431.5 -77.5 -429.5 -77.25 -426.75 -76.4 Q-416.05 -75.7 -405.65 -72.7 -398.35 -70.55 -392.9 -65.65 L-391.55 -64.45 -390.4 -63.4 -390.0 -63.0 -389.25 -62.25 -388.95 -61.95 -388.9 -62.25 -388.75 -62.65 -388.5 -63.0 -388.1 -63.35 -387.65 -63.75 -386.5 -63.95 -386.5 -64.0 Q-381.3 -64.75 -377.35 -61.45 -375.9 -60.25 -374.3 -59.2 L-372.0 -57.75 Q-366.6 -56.25 -360.95 -55.8 L-339.05 -54.35 Q-334.8 -54.1 -331.2 -52.0 -328.85 -50.6 -327.4 -48.25 -325.95 -45.9 -325.0 -43.25 L-325.0 -42.9 -325.0 -42.5 -325.0 -42.15 -325.0 -41.75 -324.95 -41.4 -324.8 -41.0 -324.65 -40.65 -324.5 -40.25 -324.5 -39.9 -324.5 -39.15 -324.5 -38.4 -324.5 -37.65 -324.5 -37.25 -324.65 -36.9 -325.4 -35.05 -326.45 -32.8 -327.5 -30.5 -328.25 -29.75 -330.45 -27.55 -328.9 -26.35 Q-327.35 -24.75 -325.25 -23.75 L-325.0 -23.4 -324.8 -23.0 -324.65 -22.65 -324.5 -22.25 -324.55 -21.9 -324.65 -21.5 -324.75 -21.15 -325.0 -20.4 -325.0 -20.0 -325.0 -19.65 -326.35 -16.65 Q-327.25 -14.2 -328.3 -11.85 L-329.4 -8.75 -329.65 -8.4 -330.0 -8.0 -330.05 -7.65 -330.15 -7.25 -330.35 -6.85 -330.5 -6.5 Q-335.1 -1.6 -341.35 -5.45 L-344.75 -7.9 -345.5 -8.0 -346.65 -8.25 -347.1 -8.65 -347.2 -8.75 -351.85 -8.35 -352.0 -8.0 -352.0 -7.25 -352.0 -5.75 -352.0 -4.65 -352.15 -4.25 -352.35 -3.85 -352.5 -3.5 -352.5 -0.9 -352.5 2.45 Q-346.9 2.35 -341.7 4.45 -337.5 6.15 -333.5 8.0 -332.2 8.25 -331.0 8.95 -329.2 10.0 -327.8 11.55 L-324.9 14.6 -324.5 15.0 -322.6 18.85 Q-320.75 21.85 -319.45 25.1 -317.55 29.85 -316.0 34.85 L-316.0 35.25 -316.0 35.6 -315.8 36.0 -315.65 36.35 -315.55 36.75 -315.45 37.1 -315.3 37.5 -315.0 38.25 -315.0 38.6 -315.0 39.0 -315.0 39.35 -315.0 39.75 -315.0 40.0 -312.1 41.85 -309.0 44.5 -308.85 44.85 -308.65 45.25 -308.5 45.6 -308.5 46.0 -308.5 46.35 -308.5 46.75 -308.5 47.1 -308.65 47.5 -308.75 47.85 -308.9 48.25 -309.15 48.6 -309.65 49.0 -309.9 49.25 Q-324.45 52.3 -337.25 46.25 L-337.35 45.85 -337.5 45.1 -337.45 44.55 -337.75 44.25 -337.9 43.85 -338.05 43.5 -338.2 43.1 -338.5 42.35 -338.75 41.6 -339.15 40.5 -339.4 40.15 -339.75 39.75 -339.9 39.35 -340.05 39.0 -340.25 38.6 -340.4 38.25 -340.65 37.85 -340.9 37.5 -341.75 36.7 -342.9 35.6 -344.0 34.5 -344.4 34.1 -345.15 33.8 -346.65 33.25 -348.85 32.35 -349.5 32.0 -353.0 31.45 -357.15 30.75 -357.6 30.35 -358.0 30.0 -358.25 29.6 -358.4 29.25 -358.5 28.85 -358.5 28.5 -358.5 28.1 -358.4 27.75 -358.35 27.65 -359.45 28.15 -359.55 28.2 -359.5 28.35 -359.5 28.75 -359.5 29.1 -359.5 29.5 -359.35 29.85 -359.15 30.25 -359.0 30.6 -359.0 31.0 -359.0 31.35 -359.0 31.75 -358.75 32.5 -358.05 34.0 -357.5 35.1 -357.5 35.5 -357.5 35.85 -357.4 36.25 -357.25 36.6 -357.15 37.0 -357.0 37.35 -357.0 38.1 -357.0 38.85 -357.0 40.0 -356.85 40.35 -356.65 40.75 -356.5 41.1 -356.5 41.5 -356.5 41.85 -356.4 42.25 -356.25 42.6 -356.15 43.0 -356.0 43.35 -356.0 43.75 -356.0 44.1 -356.0 44.5 -355.85 44.85 -355.65 45.25 -355.5 45.6 -355.5 46.35 -355.5 47.85 -355.5 49.35 -355.4 49.75 -355.25 50.1 -355.15 50.5 -355.0 50.85 -355.0 52.75 -355.0 55.75 -355.0 56.5 -354.85 56.85 -354.65 57.25 -354.5 57.6 -354.5 60.6 -354.5 64.75 -354.5 65.1 -354.65 65.5 -354.75 65.85 -354.9 66.25 -355.0 66.6 -355.0 68.1 -355.0 70.75 -355.0 71.85 -355.15 72.25 -355.35 72.65 -355.5 73.0 -355.5 74.5 -355.5 76.75 -355.5 77.85 -355.65 78.25 -355.85 78.65 -356.0 79.0 -356.1 79.15 Q-355.45 79.45 -354.9 79.85 L-354.3 80.25 Q-353.05 80.5 -351.9 81.1 L-351.55 81.5 -351.05 82.65 -351.0 83.0 -351.05 83.35 -351.15 83.75 -351.5 84.5 Q-362.1 88.1 -373.25 85.6 L-376.65 84.75 -378.15 84.25 -378.6 83.85 -379.7 82.7 -379.85 82.4 -380.5 82.5 -381.65 82.25 -382.1 81.85 -382.5 81.5 -382.75 81.1 -382.9 80.75 -383.15 80.35 -383.4 80.0 -383.55 78.1 -383.5 75.1 -383.5 72.5 -383.4 72.1 -383.25 71.75 -383.0 71.35 -383.0 71.0 -383.0 70.6 -382.9 70.25 -382.75 69.85 -382.65 69.5 -382.5 69.1 -382.5 68.0 -382.5 66.1 -382.5 63.85 -382.65 63.5 -382.75 63.1 -382.9 62.75 -383.0 62.35 -383.0 62.0 -383.0 61.6 -383.25 61.25 -383.4 60.85 -383.5 60.5 -383.5 60.1 -383.5 59.75 -383.5 59.35 -383.65 59.0 -383.75 58.6 -383.9 58.25 -384.0 57.85 -384.0 57.5 -384.0 57.1 -384.25 56.75 -384.4 56.35 -384.5 56.0 -384.5 55.6 -384.5 55.25 -384.5 54.85 -384.65 54.5 -384.75 54.1 -384.9 53.75 -385.4 53.0 -385.5 52.6 -385.5 52.25 -385.5 51.85 -385.75 51.1 -386.1 50.0 Q-386.25 49.35 -386.65 48.85 L-386.9 48.5 -387.35 46.55 -388.45 44.0 -389.0 42.1 -389.3 41.75 -389.6 41.35 -389.9 41.0 -390.0 40.6 -390.0 40.25 -390.0 39.85 -390.25 39.1 Q-390.45 38.5 -390.8 37.95 L-391.2 37.2 Q-392.4 36.8 -393.3 35.8 L-394.75 34.25 -394.9 33.85 -395.0 33.5 -395.4 33.1 -395.75 32.75 -395.9 32.35 -396.0 32.0 -396.4 31.6 -396.75 31.25 -397.4 30.5 -397.5 30.1 -397.5 29.75 -397.5 29.7 -398.05 28.65 -398.25 28.25 -398.65 27.85 -399.0 27.5 -401.5 23.8 Q-402.75 22.05 -403.5 20.0 L-403.9 19.6 -404.25 19.25 -404.55 18.5 Q-404.85 17.65 -405.5 16.95 L-405.75 16.6 -405.9 16.25 -406.0 15.85 -406.15 15.5 -406.4 15.15 -406.75 14.75 -409.45 9.1 Q-410.75 6.6 -411.5 3.85 L-411.5 3.5 -411.5 3.1 -411.5 2.75 -411.95 1.6 -412.7 -0.6 -413.0 -1.4 -413.0 -1.75 -413.0 -2.15 -413.0 -2.9 -413.0 -3.25 -413.15 -3.6 -413.35 -4.0 -413.5 -4.4 -413.5 -10.4 -413.5 -17.15 -413.35 -17.5 -413.15 -17.9 -413.0 -18.25 -413.0 -18.65 -413.0 -19.0 -413.0 -19.4 -412.9 -19.75 -412.75 -20.15 -412.5 -20.9 -412.5 -21.25 -412.5 -21.65 -412.35 -22.0 -412.15 -22.4 -412.0 -22.75 -412.0 -23.15 -412.0 -23.5 -412.0 -23.9 -411.9 -24.25 -411.75 -24.65 -411.5 -25.4 -411.5 -25.75 -411.5 -26.15 -411.35 -26.5 -410.95 -27.3 -410.5 -28.4 -410.5 -28.75 -410.5 -29.15 -410.5 -29.5 -410.5 -29.9 -410.4 -30.25 -410.25 -30.65 -410.0 -31.4 -410.0 -31.75 -410.0 -32.15 -410.0 -32.5 -409.7 -33.25 -408.9 -34.75 -408.5 -35.5 -408.1 -35.85 -407.65 -36.25 -407.5 -36.25 -407.5 -36.75 -407.8 -37.5 -408.2 -38.6 -408.75 -39.75 -410.0 -41.15 -410.0 -40.65 -410.0 -40.25 -410.0 -39.9 -410.8 -37.65 -411.15 -36.9 Q-411.9 -35.35 -413.35 -34.35 -415.4 -32.95 -417.75 -32.1 L-419.65 -31.4 -420.0 -31.0 -420.4 -30.65 -421.0 -30.3 -422.15 -29.9 Q-423.55 -28.55 -425.4 -27.75 L-425.75 -27.65 Q-428.5 -27.05 -431.15 -27.75 L-432.0 -28.5 -432.75 -29.25 -433.5 -30.0 -433.9 -30.4 -434.25 -30.75 -434.4 -31.15 -434.5 -31.5 -434.9 -31.9 -435.25 -32.25 -435.4 -32.65 -435.45 -33.0 -435.5 -33.4 -435.75 -33.75 -436.1 -34.15 -436.35 -34.5 -436.5 -34.85 -436.85 -35.65 -437.0 -36.0 -437.4 -36.4 -437.75 -36.75 -438.15 -37.95 -438.95 -39.05 -439.25 -39.4 -439.7 -40.05 -440.45 -41.2 -440.9 -42.0 -440.95 -42.4 -441.0 -42.75 -441.0 -43.15 -441.0 -43.5 -441.0 -44.25 -441.0 -44.65 -441.15 -45.0 -441.25 -45.4 -441.4 -45.75 -441.5 -46.15 -441.5 -46.5 -441.5 -46.9 -441.75 -47.25 -441.9 -47.65 -442.0 -48.0 -442.0 -48.4 -442.0 -48.75 -442.15 -49.1 -442.35 -49.5 -442.5 -49.9 -442.5 -51.4 -442.5 -52.15 -442.5 -52.5 -442.5 -53.65 -442.5 -55.5 -442.5 -56.65 -442.5 -57.0 -442.4 -57.4 -442.25 -57.75 -442.0 -58.15 -442.0 -58.5 -442.0 -58.9 -442.0 -59.25 -442.0 -59.65 -442.0 -60.0 -442.0 -60.4 -441.9 -60.75 -441.75 -61.15 -441.65 -61.5 -441.5 -61.9 -441.5 -62.25 -441.5 -62.65 -441.5 -63.0 -441.5 -63.4 -441.4 -63.75 -441.25 -64.15 -441.15 -64.5 -441.0 -64.9 -441.0 -65.25 -441.0 -65.65 -441.0 -66.0 -440.9 -66.4 -440.75 -66.75 -440.5 -67.15 -440.5 -67.5 -440.5 -67.9 -440.4 -68.25 -440.25 -68.65 -440.15 -69.0 -440.0 -69.4 -440.0 -69.75 -440.0 -70.15 -439.85 -70.5 -439.6 -70.85 -439.25 -71.25 -439.0 -71.65 -438.65 -72.4 -437.5 -73.5 -436.4 -74.65 -436.0 -75.0 M-367.35 25.25 L-367.55 25.7 -367.75 26.0 Q-369.4 26.2 -371.1 25.45 -372.4 24.85 -373.75 24.5 L-374.05 24.1 -374.4 23.4 -374.75 22.6 -374.75 22.25 -374.6 21.9 -373.9 21.1 -373.5 20.9 -372.5 20.4 -371.9 20.1 -372.05 19.75 -372.4 19.35 -372.75 19.0 -372.85 18.65 -373.25 17.85 -373.65 17.1 -374.0 16.75 -374.75 16.0 -375.5 15.25 -377.3 12.25 -378.8 9.25 -379.25 8.5 -379.25 8.1 -379.25 7.75 -379.4 7.4 -379.75 7.0 -379.75 6.6 -379.75 6.25 -379.75 5.85 -379.75 5.5 -379.8 5.15 -380.0 4.75 -380.25 4.35 -380.25 4.0 -380.25 3.6 -380.25 2.85 -380.25 2.5 -380.3 2.15 -380.5 1.75 -380.75 1.35 -380.75 1.0 -380.75 0.6 -381.0 0.25 -381.25 -0.15 -381.25 -0.5 -381.25 -0.9 -381.25 -1.25 -381.25 -1.65 -381.6 -2.4 -381.95 -3.5 -382.25 -4.25 -382.25 -4.65 -382.25 -5.4 -382.25 -6.5 -382.3 -6.85 -382.5 -7.25 -382.75 -7.65 -382.75 -11.75 -382.75 -16.25 -382.75 -18.5 -382.8 -18.85 -383.0 -19.25 -383.25 -19.65 -383.25 -20.0 -383.25 -20.4 -383.25 -20.75 -383.1 -21.1 -382.9 -21.5 -382.75 -21.9 -382.75 -23.75 -382.75 -26.0 -382.75 -27.5 -382.7 -27.85 -382.5 -28.25 -382.25 -28.65 -382.25 -29.0 -382.25 -29.4 -382.25 -29.75 -382.25 -30.15 -382.2 -30.45 -381.9 -30.9 -381.75 -31.25 -381.75 -31.65 -381.75 -32.4 -381.75 -33.5 -381.7 -33.85 -381.5 -34.25 -381.25 -34.65 -381.25 -35.0 -381.25 -35.4 -381.25 -35.75 -381.25 -36.15 -381.2 -36.45 -380.9 -36.9 -380.75 -37.25 -380.75 -37.65 -380.75 -38.0 -380.4 -38.4 -380.25 -38.75 -380.25 -38.85 -380.4 -38.75 -380.75 -38.65 -381.5 -38.5 -382.65 -38.75 -383.1 -39.15 -383.5 -39.5 -383.9 -39.9 -384.2 -40.3 -384.4 -40.65 -384.5 -41.0 -384.5 -41.4 -384.5 -41.75 -384.5 -42.15 -384.65 -42.5 -384.75 -42.9 -384.9 -43.25 -385.0 -43.65 -385.0 -44.0 -385.0 -44.4 -385.25 -44.75 -385.4 -45.15 -385.5 -45.5 -385.5 -45.9 -385.5 -46.25 -385.85 -47.4 Q-385.95 -48.0 -386.35 -48.55 L-386.5 -48.9 -386.7 -49.6 -387.25 -50.75 -387.5 -51.9 -388.25 -53.05 Q-388.55 -53.7 -389.1 -54.15 L-389.35 -54.5 -389.85 -55.15 -390.55 -56.35 -390.75 -56.75 Q-391.7 -57.85 -392.9 -58.6 L-393.5 -59.05 -393.9 -59.4 -395.0 -60.5 -396.9 -62.4 -397.65 -62.75 -398.35 -63.15 -399.0 -63.5 -399.9 -63.9 -400.7 -64.55 -401.9 -65.35 -403.35 -66.15 -403.75 -66.4 -412.4 -68.95 Q-420.25 -71.2 -428.65 -71.25 L-429.15 -71.65 -429.4 -71.8 -430.5 -71.95 -431.65 -71.9 -432.15 -71.5 -432.65 -71.15 Q-433.0 -70.5 -433.5 -70.0 L-434.35 -68.85 -434.55 -68.5 -434.9 -67.7 -435.5 -66.65 -435.5 -66.25 -435.5 -65.9 -435.5 -65.5 -435.5 -65.15 -435.65 -64.75 -435.85 -64.35 -436.0 -64.0 -436.0 -63.65 -436.0 -63.25 -436.0 -62.9 -436.15 -62.5 -436.25 -62.15 -436.4 -61.75 -436.5 -61.4 -436.5 -61.0 -436.5 -60.65 -436.5 -60.25 -436.5 -59.9 -436.65 -59.5 -436.75 -59.15 -436.9 -58.75 -437.0 -58.4 -437.0 -58.0 -437.0 -57.65 -437.0 -57.25 -437.0 -56.9 -437.0 -56.5 -437.0 -56.15 -437.15 -55.75 -437.35 -55.35 -437.5 -55.0 -437.5 -54.65 -437.5 -54.25 -437.5 -53.9 -437.5 -53.15 -437.5 -52.75 -437.5 -52.4 -437.5 -52.0 -437.5 -51.65 -437.4 -51.25 -437.25 -50.9 -437.15 -50.5 -437.0 -50.15 -437.0 -49.75 -437.0 -49.4 -436.8 -49.0 -436.65 -48.65 -436.55 -48.25 -436.45 -47.9 -436.15 -47.1 -436.0 -46.75 -436.0 -46.4 -436.0 -46.0 -436.0 -45.65 -436.0 -45.25 -436.0 -44.9 -436.0 -44.5 -434.65 -42.25 -434.2 -41.55 -432.55 -39.0 -431.1 -36.25 -429.65 -33.65 -429.25 -33.25 -428.9 -32.9 Q-428.75 -32.75 -428.6 -32.75 L-427.65 -32.75 -423.5 -35.05 -422.9 -35.4 -420.6 -36.7 -419.4 -37.15 -419.0 -37.5 -418.65 -37.75 -418.25 -37.85 -417.4 -38.15 -416.65 -38.55 -416.15 -38.9 -415.9 -39.25 -415.75 -39.65 -415.65 -40.0 -415.5 -40.4 -415.4 -40.75 -415.3 -41.15 -415.4 -41.5 -415.5 -41.9 -415.5 -42.65 -415.5 -43.4 -415.5 -44.15 -415.5 -44.5 -415.5 -44.9 -415.5 -45.25 -415.5 -45.5 -418.0 -45.6 -419.15 -45.75 -419.6 -46.15 -420.0 -46.5 -420.25 -46.9 -420.4 -47.25 -420.5 -47.65 -420.5 -48.4 -420.5 -49.15 -420.5 -49.9 -420.5 -50.25 -420.5 -50.65 -420.55 -51.0 -420.75 -51.75 -421.1 -51.65 -421.35 -51.35 -421.5 -51.0 -421.9 -50.65 Q-422.2 -50.45 -422.55 -50.3 L-423.5 -50.0 -424.65 -50.25 -425.1 -50.65 -425.5 -51.0 -425.75 -51.4 -425.9 -51.75 -426.0 -52.15 -426.0 -52.5 -426.0 -52.9 -426.0 -53.25 -426.0 -53.65 -425.95 -54.0 -425.9 -54.4 -425.35 -55.1 -424.65 -55.9 -423.9 -56.65 -423.5 -57.0 -418.9 -56.85 -418.5 -56.55 -416.5 -55.05 -415.25 -54.25 -415.0 -53.9 -414.8 -53.5 -414.65 -53.15 -414.5 -52.75 -414.5 -52.4 -414.5 -52.0 -414.5 -51.65 -414.4 -51.4 -413.5 -51.0 -412.55 -50.7 -411.9 -50.4 -411.55 -50.0 -411.35 -49.65 -411.15 -49.25 -411.0 -48.9 -410.8 -48.45 Q-407.65 -46.95 -405.15 -44.1 -403.15 -41.75 -402.5 -38.65 L-402.5 -37.15 -402.5 -35.25 -402.5 -33.75 -402.25 -33.0 -401.85 -31.95 -401.5 -30.75 -401.5 -30.4 -401.5 -30.0 -401.35 -29.65 -401.15 -29.25 -401.0 -28.9 -400.65 -28.15 -400.25 -27.75 -399.9 -27.4 -399.5 -27.0 -399.35 -26.65 -399.15 -26.25 -399.0 -25.9 -399.0 -25.5 -399.0 -25.15 -399.0 -24.4 -399.0 -23.65 -399.15 -23.25 -399.35 -22.85 -399.5 -22.5 -399.9 -22.15 -400.55 -21.8 -401.5 -21.5 -402.65 -21.75 -403.1 -22.15 -403.5 -22.5 -403.75 -22.9 -403.9 -23.25 -404.15 -24.0 -404.4 -24.75 -404.65 -25.1 -405.0 -25.5 -405.4 -25.9 -405.7 -26.2 -406.0 -25.4 -406.9 -22.75 -407.0 -22.4 -407.0 -22.0 -407.0 -21.65 -407.0 -21.25 -407.15 -20.9 -407.3 -20.5 -407.5 -20.15 -407.5 -19.75 -407.5 -19.4 -407.65 -19.0 -407.75 -18.65 -408.0 -17.9 -408.0 -17.5 -408.0 -17.15 -408.0 -16.75 -408.15 -16.4 -408.3 -16.0 -408.5 -15.65 -408.5 -11.5 -408.5 -6.25 -408.45 -5.9 -408.3 -5.5 -408.0 -4.75 -408.0 -4.4 -408.0 -4.0 -408.0 -3.65 -408.0 -3.25 -407.95 -2.9 -407.45 -1.75 -407.0 -0.65 -407.0 -0.25 -407.0 0.1 -407.0 0.5 -406.85 0.85 -406.65 1.25 -406.5 1.6 -406.5 2.0 -406.5 2.35 Q-404.55 8.35 -401.3 13.65 L-396.65 21.85 -396.25 22.25 -395.9 22.6 -395.5 23.0 -395.35 23.35 -394.85 24.1 -394.15 24.85 -393.75 25.6 Q-393.0 25.85 -392.4 26.35 L-390.15 28.35 -389.9 28.75 -389.75 29.1 -389.5 29.5 -389.15 29.9 -388.5 30.65 -388.0 31.75 -387.9 32.1 -387.5 32.5 -387.15 32.85 Q-386.75 33.35 -386.6 34.0 L-385.85 35.75 Q-385.3 36.7 -385.0 37.75 L-385.0 38.1 -385.0 38.5 -384.65 38.9 -384.4 39.25 -384.15 40.0 -383.7 41.1 -383.15 42.25 -383.0 42.6 -383.0 43.0 -383.0 43.35 -382.65 44.5 -381.85 46.35 Q-381.3 47.25 -381.0 48.25 L-381.0 48.6 -381.0 49.0 Q-380.8 49.35 -380.75 49.75 L-380.3 51.3 -379.5 53.1 -379.5 53.5 -379.5 53.85 -379.5 54.25 -379.45 54.6 -379.2 55.4 -378.8 56.5 -378.5 57.25 -378.5 57.6 -378.5 58.0 -378.5 58.35 -378.5 58.75 -378.45 59.1 -378.3 59.5 -378.15 59.85 -378.0 60.25 -378.0 60.6 -378.0 61.0 -377.85 61.35 -377.65 61.75 -377.5 62.1 -377.5 64.75 -377.5 68.85 -377.5 71.1 -377.65 71.5 -377.75 71.85 -377.9 72.25 -378.0 72.6 -378.0 73.0 -378.0 73.35 -378.15 73.75 -378.35 74.15 -378.5 74.5 -378.5 74.85 -378.5 75.6 -378.5 76.75 -378.5 77.5 -378.35 77.85 -378.15 78.25 -378.0 78.6 -378.0 78.65 -377.5 78.55 -377.5 78.5 -376.5 78.8 Q-375.9 79.0 -375.5 79.5 -368.65 82.0 -361.5 81.0 L-361.75 80.75 -361.9 80.35 -362.25 79.6 -362.45 78.85 -362.5 78.5 -362.5 78.1 -362.4 77.75 -362.25 77.35 -362.0 77.0 -361.6 76.65 -361.15 76.25 -361.0 76.25 -361.0 76.0 -360.9 75.6 -360.75 75.25 -360.5 74.85 -360.5 74.1 -360.5 73.0 -360.5 71.5 -360.4 71.1 -360.25 70.75 -360.0 70.35 -360.0 68.85 -360.0 66.25 -360.0 65.1 -359.9 64.75 -359.75 64.35 -359.65 64.0 -359.5 63.6 -359.5 62.5 -359.5 60.6 -359.5 59.5 -359.55 59.15 -359.75 58.75 -359.9 58.35 -360.0 58.0 -360.0 56.5 -360.0 53.85 -360.0 52.75 -360.15 52.4 -360.35 52.0 -360.5 51.6 -360.5 50.85 -360.5 49.35 -360.5 47.85 -360.65 47.5 -360.75 47.1 -360.9 46.75 -361.0 46.35 -361.0 46.0 -361.0 45.6 -361.0 45.25 -361.0 44.85 -361.15 44.5 -361.25 44.1 -361.4 43.75 -361.5 43.35 -361.5 43.0 -361.5 42.6 -361.75 42.25 -361.9 41.85 -362.0 41.5 -362.0 41.1 -362.0 40.75 -362.0 40.0 -362.0 39.25 -362.15 38.9 -362.35 38.5 -362.5 38.1 -362.5 37.75 -362.5 37.35 -362.8 36.65 -363.55 35.15 -364.0 34.0 -364.0 33.6 -364.0 33.25 -364.0 32.85 -364.15 32.5 -364.25 32.1 -364.4 31.75 -364.5 31.35 -364.5 31.0 -364.5 30.6 -364.5 30.25 -365.05 29.15 -365.8 27.2 -366.0 26.5 -366.0 26.1 -365.9 25.75 -365.75 25.35 -365.5 25.0 -365.1 24.65 -364.65 24.25 -363.55 24.1 -363.4 23.85 Q-360.9 23.15 -358.6 21.8 -357.55 21.15 -356.4 20.85 L-355.35 20.2 -353.15 18.75 -352.0 18.55 -349.5 18.0 -349.1 18.0 -348.5 18.05 -347.55 18.3 -346.9 18.6 -346.55 19.0 -346.35 19.35 -346.05 20.15 -346.0 20.5 -346.05 20.85 -346.15 21.25 -346.35 21.65 -346.5 22.0 -353.65 25.5 -355.05 26.0 Q-345.85 26.05 -339.15 32.15 -334.1 36.7 -332.5 43.25 L-318.15 44.5 -318.3 44.25 -318.65 43.85 -319.0 43.5 -319.25 43.1 -319.4 42.75 -319.5 42.35 -319.5 42.0 -319.5 41.6 -319.5 41.5 -319.75 41.1 -319.9 40.75 -320.0 40.35 -320.15 40.0 -320.25 39.6 -320.5 38.85 -320.5 38.5 -320.5 38.1 -320.7 37.7 -321.15 36.2 -321.8 34.35 -322.45 32.45 Q-322.65 31.75 -323.0 31.0 L-323.0 30.6 -323.0 30.25 -323.15 29.9 -323.65 28.7 -324.2 27.55 -324.6 26.5 Q-324.75 25.85 -325.15 25.35 L-325.4 25.0 -325.5 24.6 -325.5 24.25 -325.7 23.9 -326.0 23.5 -326.25 23.1 -326.4 22.75 -326.5 22.35 -326.65 22.0 -326.9 21.65 -327.25 21.25 -327.4 20.85 -327.95 19.8 -328.65 18.55 Q-328.95 17.95 -329.4 17.4 L-329.9 16.75 -330.4 16.35 -331.35 15.6 -332.15 14.85 -333.25 13.75 -335.3 12.75 Q-337.85 11.4 -340.6 10.7 -342.15 10.3 -343.5 9.5 L-344.6 9.2 -345.35 8.85 -345.75 8.6 -346.5 8.45 -352.3 7.45 -352.0 7.75 -351.65 8.1 -351.4 8.5 -351.25 8.85 -351.0 9.25 -350.65 9.6 -349.9 10.35 -349.65 10.6 Q-349.0 10.9 -348.4 11.4 L-347.4 12.5 -347.3 12.85 -347.3 13.6 -347.4 14.35 -347.95 15.0 -349.0 15.75 -349.7 15.45 -350.15 15.1 -350.25 14.75 -350.25 14.35 -350.25 13.6 -350.9 12.9 -351.9 11.85 -352.0 11.75 -352.7 11.45 -353.15 11.1 -353.45 10.7 -353.9 10.0 -354.15 9.6 -354.5 9.25 -354.9 8.85 -356.05 6.6 -357.25 4.35 -357.25 4.1 -357.4 3.75 -357.5 3.35 -357.5 0.0 -357.5 -4.5 -357.5 -4.9 -357.4 -5.25 -357.25 -5.65 -357.0 -6.4 -357.0 -7.15 -357.0 -8.65 -357.0 -9.4 -356.9 -9.75 -356.75 -10.15 -356.5 -10.9 -356.5 -11.25 -356.5 -11.65 -356.4 -12.0 -356.1 -12.35 -355.75 -12.75 -355.4 -13.15 -354.75 -13.4 -354.75 -13.65 -354.7 -13.95 -354.4 -14.4 -354.0 -14.75 -353.75 -15.0 -352.9 -15.4 -351.9 -15.9 -351.55 -16.25 -351.3 -16.65 -351.25 -17.0 -350.9 -17.4 -350.5 -17.75 -350.3 -18.15 -350.25 -18.5 -350.25 -18.9 Q-348.65 -21.8 -347.5 -24.95 L-345.75 -29.4 -345.75 -29.75 -345.75 -30.15 -345.75 -30.5 -345.7 -30.85 -345.5 -31.25 -345.25 -31.65 -345.25 -32.0 -345.25 -32.4 -345.0 -32.75 -344.75 -33.15 -344.75 -33.5 -344.75 -33.9 -344.75 -34.25 -344.6 -34.6 -344.4 -35.0 -344.25 -35.4 -344.25 -35.75 -344.25 -36.15 -344.2 -36.45 -343.95 -36.9 -343.75 -37.25 -343.75 -37.65 -343.75 -38.0 -343.75 -38.4 -343.75 -38.75 -343.6 -39.1 -343.4 -39.5 -343.25 -39.9 -343.25 -40.25 -343.25 -40.65 -343.25 -41.0 -343.2 -41.35 -343.0 -41.75 -342.75 -42.15 -342.75 -43.25 -342.75 -44.75 -342.75 -45.15 -342.9 -45.5 -343.1 -45.9 -343.25 -46.25 -343.25 -46.65 -343.25 -47.0 -343.3 -47.35 -343.5 -47.75 -343.75 -48.15 -343.75 -48.5 -343.75 -48.9 -344.0 -49.25 -344.1 -49.4 -364.55 -50.7 -364.9 -50.4 -366.15 -49.65 -366.5 -49.25 -366.75 -49.0 -367.0 -48.9 -367.65 -48.65 Q-368.05 -47.5 -368.95 -46.65 -369.6 -46.0 -370.5 -45.75 L-371.5 -45.75 -372.0 -46.0 -372.65 -45.65 -373.0 -45.25 -373.25 -44.85 -373.65 -44.15 -374.75 -43.0 -376.25 -41.5 -377.5 -38.55 -378.45 -35.55 -378.75 -34.75 -378.75 -34.4 -378.75 -34.0 -378.9 -33.65 -379.05 -33.25 -379.25 -32.9 -379.25 -32.5 -379.25 -31.75 -379.25 -30.65 -379.3 -30.25 -379.5 -29.9 -379.75 -29.5 -379.75 -29.15 -379.75 -28.75 -379.75 -28.4 -379.75 -28.0 -379.9 -27.65 -380.05 -27.25 -380.25 -26.9 -380.25 -24.65 -380.2 -22.4 Q-380.15 -21.4 -380.4 -20.5 -380.15 -18.3 -380.2 -16.0 L-380.25 -10.75 -380.25 -8.9 -380.2 -8.5 -380.0 -8.15 -379.75 -7.75 -379.75 -7.4 -379.75 -6.65 -379.75 -5.5 -379.55 -4.75 -379.05 -3.25 -378.75 -2.5 -378.75 -2.15 -378.75 -1.75 -378.6 -1.4 -378.4 -1.0 -378.25 -0.65 -378.25 -0.25 -378.25 0.1 -378.2 0.45 -378.0 0.85 -377.75 1.25 -377.75 1.6 -377.75 2.0 -377.75 2.35 -377.75 2.75 -377.6 3.1 -377.4 3.5 -377.25 3.85 -377.25 4.25 -377.25 4.6 -377.25 5.35 -377.25 5.75 -376.2 8.35 -374.9 11.0 -374.5 11.75 -374.15 12.15 -373.55 12.9 -373.15 13.6 -371.4 15.6 -370.0 17.75 -369.2 18.45 Q-368.65 18.95 -368.4 19.6 L-368.25 20.0 -368.6 20.65 -370.0 22.25 -370.25 22.5 -369.5 22.75 Q-368.4 23.15 -367.55 23.9 L-367.25 24.25 -367.25 24.6 -367.3 25.0 -367.35 25.25 M-385.9 -58.9 L-385.5 -58.5 -385.35 -58.15 -385.15 -57.75 -384.85 -57.4 -384.5 -57.0 -384.15 -56.65 -383.35 -55.15 -383.0 -54.4 -382.8 -54.0 -382.3 -52.85 -381.55 -51.0 -381.0 -49.9 -381.0 -49.5 -381.0 -49.15 -380.9 -48.75 -380.75 -48.4 -380.65 -48.0 -380.4 -47.25 -380.25 -46.9 -380.15 -46.5 -380.0 -46.15 -380.0 -45.75 -380.0 -45.4 -379.8 -45.0 -379.65 -44.65 -379.5 -44.25 -379.5 -43.9 -379.5 -43.5 -379.5 -43.15 -379.4 -42.75 -379.25 -42.4 -379.15 -42.0 -379.05 -41.65 -379.0 -41.75 -378.75 -42.15 -378.75 -42.5 -378.75 -42.9 -375.9 -45.9 -373.25 -48.5 -372.35 -48.85 -371.55 -49.2 -371.5 -49.25 -370.65 -49.25 -370.5 -49.55 -369.65 -50.65 -368.45 -51.3 Q-369.9 -51.7 -371.25 -52.4 L-372.5 -52.6 Q-374.65 -53.1 -376.55 -54.35 L-378.4 -55.4 -378.75 -55.75 -379.0 -56.0 -380.15 -56.25 -380.6 -56.65 -381.0 -57.0 -381.4 -57.4 -382.15 -57.75 -382.85 -58.15 -383.75 -58.75 -383.9 -58.85 -386.05 -59.05 -385.9 -58.9 M-332.7 -45.95 L-335.0 -47.55 -337.5 -49.0 -341.05 -49.2 -341.0 -49.15 -340.8 -48.75 -340.75 -48.4 -340.65 -47.65 -340.4 -46.85 -340.25 -46.5 -340.25 -43.9 -340.25 -40.9 -340.4 -40.5 -340.6 -40.1 -340.75 -39.75 -340.75 -39.4 -340.75 -39.0 -340.75 -38.65 -340.8 -38.25 -341.0 -37.9 -341.25 -37.5 -341.25 -37.15 -341.25 -36.75 -341.25 -36.4 -341.4 -36.0 -341.6 -35.6 -341.75 -35.25 -341.75 -34.9 -341.75 -34.5 -341.75 -34.15 -341.8 -33.75 -342.0 -33.4 -342.25 -33.0 -342.25 -32.65 -342.25 -32.25 -342.5 -31.9 -342.75 -31.5 -342.75 -31.15 -342.75 -30.75 -342.75 -30.4 -342.9 -30.0 -343.1 -29.6 -343.25 -29.25 -343.25 -28.9 -343.25 -28.5 -343.25 -28.15 -343.3 -27.75 -343.5 -27.4 -343.75 -27.0 -343.75 -26.65 -343.75 -26.25 -344.0 -25.9 -344.25 -25.5 -344.25 -25.15 -344.25 -24.75 -346.15 -21.15 -347.75 -18.0 -347.75 -17.65 -347.75 -17.25 -348.4 -16.15 Q-348.7 -15.35 -349.15 -14.65 L-350.05 -13.75 -349.25 -13.75 -346.25 -16.75 -344.0 -19.0 Q-343.65 -20.3 -342.9 -21.35 -341.8 -22.9 -341.0 -24.65 L-341.0 -25.0 -341.0 -25.4 -340.7 -26.1 -339.85 -28.0 -339.5 -28.75 -339.5 -29.15 -339.5 -29.5 -339.35 -29.85 -338.95 -31.0 -338.5 -32.15 -338.5 -32.5 -338.5 -32.9 -338.5 -33.25 -338.5 -33.65 -338.35 -34.0 -338.15 -34.4 -338.0 -34.75 -338.0 -35.15 -338.0 -35.9 -338.0 -37.0 -337.9 -37.4 -337.75 -37.75 -337.5 -38.15 -337.5 -38.5 -337.5 -39.25 -337.5 -40.4 -337.4 -40.75 -337.25 -41.15 -337.0 -41.5 -336.6 -41.85 -336.15 -42.25 -335.0 -42.45 -335.0 -42.5 -334.05 -42.2 -333.4 -41.9 -333.05 -41.5 -332.85 -41.15 -332.5 -40.4 -332.5 -39.65 -332.5 -37.75 -332.5 -36.65 -332.65 -36.25 -332.85 -35.85 -333.0 -35.5 -333.0 -35.15 -333.0 -34.4 -333.0 -33.25 -333.15 -32.9 -333.3 -32.5 -333.5 -32.15 -333.5 -31.85 -332.9 -32.15 -332.5 -32.5 -332.15 -32.9 -331.9 -33.25 -331.4 -34.4 -330.65 -35.9 Q-330.2 -36.55 -330.0 -37.4 L-330.0 -37.75 -330.0 -38.15 -329.85 -38.5 -329.65 -38.9 -329.75 -39.25 -329.9 -39.65 -330.0 -40.0 -330.0 -40.4 -330.0 -40.75 -330.0 -41.15 -330.15 -41.5 -330.45 -42.2 -330.8 -42.75 -331.1 -43.35 -331.5 -44.5 -331.9 -44.9 -332.2 -45.3 -332.4 -45.65 -332.7 -45.95 M-330.9 -20.9 L-332.0 -22.0 -333.75 -23.4 -334.5 -23.5 -335.65 -23.75 -335.9 -23.95 -337.25 -21.05 -339.9 -15.25 -342.7 -12.7 -341.9 -12.35 -339.5 -10.5 -338.8 -10.1 -338.25 -9.75 -338.0 -9.5 -337.0 -9.4 -335.0 -9.65 -334.3 -11.15 -333.05 -13.85 Q-332.45 -15.05 -332.0 -16.4 L-332.0 -16.75 -332.0 -17.15 -331.85 -17.5 -331.4 -18.3 -330.85 -19.35 Q-330.55 -19.95 -330.5 -20.5 L-330.9 -20.9" fill="#000000" fill-rule="evenodd" stroke="none"/>
    <path d="M-365.9 25.75 L-366.0 26.1 -366.0 26.5 -365.8 27.2 -365.05 29.15 -364.5 30.25 -364.5 30.6 -364.5 31.0 -364.5 31.35 -364.4 31.75 -364.25 32.1 -364.15 32.5 -364.0 32.85 -364.0 33.25 -364.0 33.6 -364.0 34.0 -363.55 35.15 -362.8 36.65 -362.5 37.35 -362.5 37.75 -362.5 38.1 -362.35 38.5 -362.15 38.9 -362.0 39.25 -362.0 40.0 -362.0 40.75 -362.0 41.1 -362.0 41.5 -361.9 41.85 -361.75 42.25 -361.5 42.6 -361.5 43.0 -361.5 43.35 -361.4 43.75 -361.25 44.1 -361.15 44.5 -361.0 44.85 -361.0 45.25 -361.0 45.6 -361.0 46.0 -361.0 46.35 -360.9 46.75 -360.75 47.1 -360.65 47.5 -360.5 47.85 -360.5 49.35 -360.5 50.85 -360.5 51.6 -360.35 52.0 -360.15 52.4 -360.0 52.75 -360.0 53.85 -360.0 56.5 -360.0 58.0 -359.9 58.35 -359.75 58.75 -359.55 59.15 -359.5 59.5 -359.5 60.6 -359.5 62.5 -359.5 63.6 -359.65 64.0 -359.75 64.35 -359.9 64.75 -360.0 65.1 -360.0 66.25 -360.0 68.85 -360.0 70.35 -360.25 70.75 -360.4 71.1 -360.5 71.5 -360.5 73.0 -360.5 74.1 -360.5 74.85 -360.75 75.25 -360.9 75.6 -361.0 76.0 -361.0 76.25 -361.15 76.25 -361.6 76.65 -362.0 77.0 -362.25 77.35 -362.4 77.75 -362.5 78.1 -362.5 78.5 -362.45 78.85 -362.25 79.6 -361.9 80.35 -361.75 80.75 -361.5 81.0 Q-368.65 82.0 -375.5 79.5 -375.9 79.0 -376.5 78.8 L-377.5 78.5 -377.5 78.55 -378.0 78.65 -378.0 78.6 -378.15 78.25 -378.35 77.85 -378.5 77.5 -378.5 76.75 -378.5 75.6 -378.5 74.85 -378.5 74.5 -378.35 74.15 -378.15 73.75 -378.0 73.35 -378.0 73.0 -378.0 72.6 -377.9 72.25 -377.75 71.85 -377.65 71.5 -377.5 71.1 -377.5 68.85 -377.5 64.75 -377.5 62.1 -377.65 61.75 -377.85 61.35 -378.0 61.0 -378.0 60.6 -378.0 60.25 -378.15 59.85 -378.3 59.5 -378.45 59.1 -378.5 58.75 -378.5 58.35 -378.5 58.0 -378.5 57.6 -378.5 57.25 -378.8 56.5 -379.2 55.4 -379.45 54.6 -379.5 54.25 -379.5 53.85 -379.5 53.5 -379.5 53.1 -380.3 51.3 -380.75 49.75 Q-380.8 49.35 -381.0 49.0 L-381.0 48.6 -381.0 48.25 Q-381.3 47.25 -381.85 46.35 L-382.65 44.5 -383.0 43.35 -383.0 43.0 -383.0 42.6 -383.15 42.25 -383.7 41.1 -384.15 40.0 -384.4 39.25 -384.65 38.9 -385.0 38.5 -385.0 38.1 -385.0 37.75 Q-385.3 36.7 -385.85 35.75 L-386.6 34.0 Q-386.75 33.35 -387.15 32.85 L-387.5 32.5 -387.9 32.1 -388.0 31.75 -388.5 30.65 -389.15 29.9 -389.5 29.5 -389.75 29.1 -389.9 28.75 -390.15 28.35 -392.4 26.35 Q-393.0 25.85 -393.75 25.6 L-394.15 24.85 -394.85 24.1 -395.35 23.35 -395.5 23.0 -395.9 22.6 -396.25 22.25 -396.65 21.85 -401.3 13.65 Q-404.55 8.35 -406.5 2.35 L-406.5 2.0 -406.5 1.6 -406.65 1.25 -406.85 0.85 -407.0 0.5 -407.0 0.1 -407.0 -0.25 -407.0 -0.65 -407.45 -1.75 -407.95 -2.9 -408.0 -3.25 -408.0 -3.65 -408.0 -4.0 -408.0 -4.4 -408.0 -4.75 -408.3 -5.5 -408.45 -5.9 -408.5 -6.25 -408.5 -11.5 -408.5 -15.65 -408.3 -16.0 -408.15 -16.4 -408.0 -16.75 -408.0 -17.15 -408.0 -17.5 -408.0 -17.9 -407.75 -18.65 -407.65 -19.0 -407.5 -19.4 -407.5 -19.75 -407.5 -20.15 -407.3 -20.5 -407.15 -20.9 -407.0 -21.25 -407.0 -21.65 -407.0 -22.0 -407.0 -22.4 -406.9 -22.75 -406.0 -25.4 -405.7 -26.2 -405.4 -25.9 -405.0 -25.5 -404.65 -25.1 -404.4 -24.75 -404.15 -24.0 -403.9 -23.25 -403.75 -22.9 -403.5 -22.5 -403.1 -22.15 -402.65 -21.75 -401.5 -21.5 -400.55 -21.8 -399.9 -22.15 -399.5 -22.5 -399.35 -22.85 -399.15 -23.25 -399.0 -23.65 -399.0 -24.4 -399.0 -25.15 -399.0 -25.5 -399.0 -25.9 -399.15 -26.25 -399.35 -26.65 -399.5 -27.0 -399.9 -27.4 -400.25 -27.75 -400.65 -28.15 -401.0 -28.9 -401.15 -29.25 -401.35 -29.65 -401.5 -30.0 -401.5 -30.4 -401.5 -30.75 -401.85 -31.95 -402.25 -33.0 -402.5 -33.75 -402.5 -35.25 -402.5 -37.15 -402.5 -38.65 Q-403.15 -41.75 -405.15 -44.1 -407.65 -46.95 -410.8 -48.45 L-411.0 -48.9 -411.15 -49.25 -411.35 -49.65 -411.55 -50.0 -411.9 -50.4 -412.55 -50.7 -413.5 -51.0 -414.4 -51.4 -414.5 -51.65 -414.5 -52.0 -414.5 -52.4 -414.5 -52.75 -414.65 -53.15 -414.8 -53.5 -415.0 -53.9 -415.25 -54.25 -416.5 -55.05 -418.5 -56.55 -418.9 -56.85 -423.5 -57.0 -423.9 -56.65 -424.65 -55.9 -425.35 -55.1 -425.9 -54.4 -425.95 -54.0 -426.0 -53.65 -426.0 -53.25 -426.0 -52.9 -426.0 -52.5 -426.0 -52.15 -425.9 -51.75 -425.75 -51.4 -425.5 -51.0 -425.1 -50.65 -424.65 -50.25 -423.5 -50.0 -422.55 -50.3 Q-422.2 -50.45 -421.9 -50.65 L-421.5 -51.0 -421.35 -51.35 -421.1 -51.65 -420.75 -51.75 -420.55 -51.0 -420.5 -50.65 -420.5 -50.25 -420.5 -49.9 -420.5 -49.15 -420.5 -48.4 -420.5 -47.65 -420.4 -47.25 -420.25 -46.9 -420.0 -46.5 -419.6 -46.15 -419.15 -45.75 -418.0 -45.6 -415.5 -45.5 -415.5 -45.25 -415.5 -44.9 -415.5 -44.5 -415.5 -44.15 -415.5 -43.4 -415.5 -42.65 -415.5 -41.9 -415.4 -41.5 -415.3 -41.15 -415.4 -40.75 -415.5 -40.4 -415.65 -40.0 -415.75 -39.65 -415.9 -39.25 -416.15 -38.9 -416.65 -38.55 -417.4 -38.15 -418.25 -37.85 -418.65 -37.75 -419.0 -37.5 -419.4 -37.15 -420.6 -36.7 -422.9 -35.4 -423.5 -35.05 -427.65 -32.75 -428.6 -32.75 Q-428.75 -32.75 -428.9 -32.9 L-429.25 -33.25 -429.65 -33.65 -431.1 -36.25 -432.55 -39.0 -434.2 -41.55 -434.65 -42.25 -436.0 -44.5 -436.0 -44.9 -436.0 -45.25 -436.0 -45.65 -436.0 -46.0 -436.0 -46.4 -436.0 -46.75 -436.15 -47.1 -436.45 -47.9 -436.55 -48.25 -436.65 -48.65 -436.8 -49.0 -437.0 -49.4 -437.0 -49.75 -437.0 -50.15 -437.15 -50.5 -437.25 -50.9 -437.4 -51.25 -437.5 -51.65 -437.5 -52.0 -437.5 -52.4 -437.5 -52.75 -437.5 -53.15 -437.5 -53.9 -437.5 -54.25 -437.5 -54.65 -437.5 -55.0 -437.35 -55.35 -437.15 -55.75 -437.0 -56.15 -437.0 -56.5 -437.0 -56.9 -437.0 -57.25 -437.0 -57.65 -437.0 -58.0 -437.0 -58.4 -436.9 -58.75 -436.75 -59.15 -436.65 -59.5 -436.5 -59.9 -436.5 -60.25 -436.5 -60.65 -436.5 -61.0 -436.5 -61.4 -436.4 -61.75 -436.25 -62.15 -436.15 -62.5 -436.0 -62.9 -436.0 -63.25 -436.0 -63.65 -436.0 -64.0 -435.85 -64.35 -435.65 -64.75 -435.5 -65.15 -435.5 -65.5 -435.5 -65.9 -435.5 -66.25 -435.5 -66.65 -434.9 -67.7 -434.55 -68.5 -434.35 -68.85 -433.5 -70.0 Q-433.0 -70.5 -432.65 -71.15 L-432.15 -71.5 -431.65 -71.9 -430.5 -71.95 -429.4 -71.8 -429.15 -71.65 -428.65 -71.25 Q-420.25 -71.2 -412.4 -68.95 L-403.75 -66.4 -403.35 -66.15 -401.9 -65.35 -400.7 -64.55 -399.9 -63.9 -399.0 -63.5 -398.35 -63.15 -397.65 -62.75 -396.9 -62.4 -395.0 -60.5 -393.9 -59.4 -393.5 -59.05 -392.9 -58.6 Q-391.7 -57.85 -390.75 -56.75 L-390.55 -56.35 -389.85 -55.15 -389.35 -54.5 -389.1 -54.15 Q-388.55 -53.7 -388.25 -53.05 L-387.5 -51.9 -387.25 -50.75 -386.7 -49.6 -386.5 -48.9 -386.35 -48.55 Q-385.95 -48.0 -385.85 -47.4 L-385.5 -46.25 -385.5 -45.9 -385.5 -45.5 -385.4 -45.15 -385.25 -44.75 -385.0 -44.4 -385.0 -44.0 -385.0 -43.65 -384.9 -43.25 -384.75 -42.9 -384.65 -42.5 -384.5 -42.15 -384.5 -41.75 -384.5 -41.4 -384.5 -41.0 -384.4 -40.65 -384.2 -40.3 -383.9 -39.9 -383.5 -39.5 -383.1 -39.15 -382.65 -38.75 -381.5 -38.5 -380.75 -38.65 -380.4 -38.75 -380.25 -38.85 -380.25 -38.75 -380.4 -38.4 -380.75 -38.0 -380.75 -37.65 -380.75 -37.25 -380.9 -36.9 -381.2 -36.45 -381.25 -36.15 -381.25 -35.75 -381.25 -35.4 -381.25 -35.0 -381.25 -34.65 -381.5 -34.25 -381.7 -33.85 -381.75 -33.5 -381.75 -32.4 -381.75 -31.65 -381.75 -31.25 -381.9 -30.9 -382.2 -30.45 -382.25 -30.15 -382.25 -29.75 -382.25 -29.4 -382.25 -29.0 -382.25 -28.65 -382.5 -28.25 -382.7 -27.85 -382.75 -27.5 -382.75 -26.0 -382.75 -23.75 -382.75 -21.9 -382.9 -21.5 -383.1 -21.1 -383.25 -20.75 -383.25 -20.4 -383.25 -20.0 -383.25 -19.65 -383.0 -19.25 -382.8 -18.85 -382.75 -18.5 -382.75 -16.25 -382.75 -11.75 -382.75 -7.65 -382.5 -7.25 -382.3 -6.85 -382.25 -6.5 -382.25 -5.4 -382.25 -4.65 -382.25 -4.25 -381.95 -3.5 -381.6 -2.4 -381.25 -1.65 -381.25 -1.25 -381.25 -0.9 -381.25 -0.5 -381.25 -0.15 -381.0 0.25 -380.75 0.6 -380.75 1.0 -380.75 1.35 -380.5 1.75 -380.3 2.15 -380.25 2.5 -380.25 2.85 -380.25 3.6 -380.25 4.0 -380.25 4.35 -380.0 4.75 -379.8 5.15 -379.75 5.5 -379.75 5.85 -379.75 6.25 -379.75 6.6 -379.75 7.0 -379.4 7.4 -379.25 7.75 -379.25 8.1 -379.25 8.5 -378.8 9.25 -377.3 12.25 -375.5 15.25 -374.75 16.0 -374.0 16.75 -373.65 17.1 -373.25 17.85 -372.85 18.65 -372.75 19.0 -372.4 19.35 -372.05 19.75 -371.9 20.1 -372.5 20.4 -373.5 20.9 -373.9 21.1 -374.6 21.9 -374.75 22.25 -374.75 22.6 -374.4 23.4 -374.05 24.1 -373.75 24.5 Q-372.4 24.85 -371.1 25.45 -369.4 26.2 -367.75 26.0 L-367.55 25.7 -367.35 25.25 -365.9 25.75 M-385.9 -58.9 L-386.05 -59.05 -383.9 -58.85 -383.75 -58.75 -382.85 -58.15 -382.15 -57.75 -381.4 -57.4 -381.0 -57.0 -380.6 -56.65 -380.15 -56.25 -379.0 -56.0 -378.75 -55.75 -378.4 -55.4 -376.55 -54.35 Q-374.65 -53.1 -372.5 -52.6 L-371.25 -52.4 Q-369.9 -51.7 -368.45 -51.3 L-369.65 -50.65 -370.5 -49.55 -370.65 -49.25 -371.5 -49.25 -371.55 -49.2 -372.35 -48.85 -373.25 -48.5 -375.9 -45.9 -378.75 -42.9 -378.75 -42.5 -378.75 -42.15 -379.0 -41.75 -379.05 -41.65 -379.15 -42.0 -379.25 -42.4 -379.4 -42.75 -379.5 -43.15 -379.5 -43.5 -379.5 -43.9 -379.5 -44.25 -379.65 -44.65 -379.8 -45.0 -380.0 -45.4 -380.0 -45.75 -380.0 -46.15 -380.15 -46.5 -380.25 -46.9 -380.4 -47.25 -380.65 -48.0 -380.75 -48.4 -380.9 -48.75 -381.0 -49.15 -381.0 -49.5 -381.0 -49.9 -381.55 -51.0 -382.3 -52.85 -382.8 -54.0 -383.0 -54.4 -383.35 -55.15 -384.15 -56.65 -384.5 -57.0 -384.85 -57.4 -385.15 -57.75 -385.35 -58.15 -385.5 -58.5 -385.9 -58.9" fill="#b1e34d" fill-rule="evenodd" stroke="none"/>
    <path d="M-365.9 25.75 L-367.35 25.25 -367.3 25.0 -367.25 24.6 -367.25 24.25 -367.55 23.9 Q-368.4 23.15 -369.5 22.75 L-370.25 22.5 -370.0 22.25 -368.6 20.65 -368.25 20.0 -368.4 19.6 Q-368.65 18.95 -369.2 18.45 L-370.0 17.75 -371.4 15.6 -373.15 13.6 -373.55 12.9 -374.15 12.15 -374.5 11.75 -374.9 11.0 -376.2 8.35 -377.25 5.75 -377.25 5.35 -377.25 4.6 -377.25 4.25 -377.25 3.85 -377.4 3.5 -377.6 3.1 -377.75 2.75 -377.75 2.35 -377.75 2.0 -377.75 1.6 -377.75 1.25 -378.0 0.85 -378.2 0.45 -378.25 0.1 -378.25 -0.25 -378.25 -0.65 -378.4 -1.0 -378.6 -1.4 -378.75 -1.75 -378.75 -2.15 -378.75 -2.5 -379.05 -3.25 -379.55 -4.75 -379.75 -5.5 -379.75 -6.65 -379.75 -7.4 -379.75 -7.75 -380.0 -8.15 -380.2 -8.5 -380.25 -8.9 -380.25 -10.75 -380.2 -16.0 Q-380.15 -18.3 -380.4 -20.5 -380.15 -21.4 -380.2 -22.4 L-380.25 -24.65 -380.25 -26.9 -380.05 -27.25 -379.9 -27.65 -379.75 -28.0 -379.75 -28.4 -379.75 -28.75 -379.75 -29.15 -379.75 -29.5 -379.5 -29.9 -379.3 -30.25 -379.25 -30.65 -379.25 -31.75 -379.25 -32.5 -379.25 -32.9 -379.05 -33.25 -378.9 -33.65 -378.75 -34.0 -378.75 -34.4 -378.75 -34.75 -378.45 -35.55 -377.5 -38.55 -376.25 -41.5 -374.75 -43.0 -373.65 -44.15 -373.25 -44.85 -373.0 -45.25 -372.65 -45.65 -372.0 -46.0 -371.5 -45.75 -370.5 -45.75 Q-369.6 -46.0 -368.95 -46.65 -368.05 -47.5 -367.65 -48.65 L-367.0 -48.9 -366.75 -49.0 -366.5 -49.25 -366.15 -49.65 -364.9 -50.4 -364.55 -50.7 -344.1 -49.4 -344.0 -49.25 -343.75 -48.9 -343.75 -48.5 -343.75 -48.15 -343.5 -47.75 -343.3 -47.35 -343.25 -47.0 -343.25 -46.65 -343.25 -46.25 -343.1 -45.9 -342.9 -45.5 -342.75 -45.15 -342.75 -44.75 -342.75 -43.25 -342.75 -42.15 -343.0 -41.75 -343.2 -41.35 -343.25 -41.0 -343.25 -40.65 -343.25 -40.25 -343.25 -39.9 -343.4 -39.5 -343.6 -39.1 -343.75 -38.75 -343.75 -38.4 -343.75 -38.0 -343.75 -37.65 -343.75 -37.25 -343.95 -36.9 -344.2 -36.45 -344.25 -36.15 -344.25 -35.75 -344.25 -35.4 -344.4 -35.0 -344.6 -34.6 -344.75 -34.25 -344.75 -33.9 -344.75 -33.5 -344.75 -33.15 -345.0 -32.75 -345.25 -32.4 -345.25 -32.0 -345.25 -31.65 -345.5 -31.25 -345.7 -30.85 -345.75 -30.5 -345.75 -30.15 -345.75 -29.75 -345.75 -29.4 -347.5 -24.95 Q-348.65 -21.8 -350.25 -18.9 L-350.25 -18.5 -350.3 -18.15 -350.5 -17.75 -350.9 -17.4 -351.25 -17.0 -351.3 -16.65 -351.55 -16.25 -351.9 -15.9 -352.9 -15.4 -353.75 -15.0 -354.0 -14.75 -354.4 -14.4 -354.7 -13.95 -354.75 -13.65 -354.75 -13.4 -355.4 -13.15 -355.75 -12.75 -356.1 -12.35 -356.4 -12.0 -356.5 -11.65 -356.5 -11.25 -356.5 -10.9 -356.75 -10.15 -356.9 -9.75 -357.0 -9.4 -357.0 -8.65 -357.0 -7.15 -357.0 -6.4 -357.25 -5.65 -357.4 -5.25 -357.5 -4.9 -357.5 -4.5 -357.5 0.0 -357.5 3.35 -357.4 3.75 -357.25 4.1 -357.25 4.35 -356.05 6.6 -354.9 8.85 -354.5 9.25 -354.15 9.6 -353.9 10.0 -353.45 10.7 -353.15 11.1 -352.7 11.45 -352.0 11.75 -351.9 11.85 -350.9 12.9 -350.25 13.6 -350.25 14.35 -350.25 14.75 -350.15 15.1 -349.7 15.45 -349.0 15.75 -349.1 18.0 -349.5 18.0 -352.0 18.55 -353.15 18.75 -355.35 20.2 -356.4 20.85 Q-357.55 21.15 -358.6 21.8 -360.9 23.15 -363.4 23.85 L-363.55 24.1 -364.65 24.25 -365.1 24.65 -365.5 25.0 -365.75 25.35 -365.9 25.75" fill="#cc3300" fill-rule="evenodd" stroke="none"/>
    <path d="M-349.0 15.75 L-347.95 15.0 -347.4 14.35 -347.3 13.6 -347.3 12.85 -347.4 12.5 -348.4 11.4 Q-349.0 10.9 -349.65 10.6 L-349.9 10.35 -350.65 9.6 -351.0 9.25 -351.25 8.85 -351.4 8.5 -351.65 8.1 -352.0 7.75 -352.3 7.45 -346.5 8.45 -345.75 8.6 -345.35 8.85 -344.6 9.2 -343.5 9.5 Q-342.15 10.3 -340.6 10.7 -337.85 11.4 -335.3 12.75 L-333.25 13.75 -332.15 14.85 -331.35 15.6 -330.4 16.35 -329.9 16.75 -329.4 17.4 Q-328.95 17.95 -328.65 18.55 L-327.95 19.8 -327.4 20.85 -327.25 21.25 -326.9 21.65 -326.65 22.0 -326.5 22.35 -326.4 22.75 -326.25 23.1 -326.0 23.5 -325.7 23.9 -325.5 24.25 -325.5 24.6 -325.4 25.0 -325.15 25.35 Q-324.75 25.85 -324.6 26.5 L-324.2 27.55 -323.65 28.7 -323.15 29.9 -323.0 30.25 -323.0 30.6 -323.0 31.0 Q-322.65 31.75 -322.45 32.45 L-321.8 34.35 -321.15 36.2 -320.7 37.7 -320.5 38.1 -320.5 38.5 -320.5 38.85 -320.25 39.6 -320.15 40.0 -320.0 40.35 -319.9 40.75 -319.75 41.1 -319.5 41.5 -319.5 41.6 -319.5 42.0 -319.5 42.35 -319.4 42.75 -319.25 43.1 -319.0 43.5 -318.65 43.85 -318.3 44.25 -318.15 44.5 -332.5 43.25 Q-334.1 36.7 -339.15 32.15 -345.85 26.05 -355.05 26.0 L-353.65 25.5 -346.5 22.0 -346.35 21.65 -346.15 21.25 -346.05 20.85 -346.0 20.5 -346.05 20.15 -346.35 19.35 -346.55 19.0 -346.9 18.6 -347.55 18.3 -348.5 18.05 -349.1 18.0 -349.0 15.75 M-330.9 -20.9 L-330.5 -20.5 Q-330.55 -19.95 -330.85 -19.35 L-331.4 -18.3 -331.85 -17.5 -332.0 -17.15 -332.0 -16.75 -332.0 -16.4 Q-332.45 -15.05 -333.05 -13.85 L-334.3 -11.15 -335.0 -9.65 -337.0 -9.4 -338.0 -9.5 -338.25 -9.75 -338.8 -10.1 -339.5 -10.5 -341.9 -12.35 -342.7 -12.7 -339.9 -15.25 -337.25 -21.05 -335.9 -23.95 -335.65 -23.75 -334.5 -23.5 -333.75 -23.4 -332.0 -22.0 -330.9 -20.9 M-332.7 -45.95 L-332.4 -45.65 -332.2 -45.3 -331.9 -44.9 -331.5 -44.5 -331.1 -43.35 -330.8 -42.75 -330.45 -42.2 -330.15 -41.5 -330.0 -41.15 -330.0 -40.75 -330.0 -40.4 -330.0 -40.0 -329.9 -39.65 -329.75 -39.25 -329.65 -38.9 -329.85 -38.5 -330.0 -38.15 -330.0 -37.75 -330.0 -37.4 Q-330.2 -36.55 -330.65 -35.9 L-331.4 -34.4 -331.9 -33.25 -332.15 -32.9 -332.5 -32.5 -332.9 -32.15 -333.5 -31.85 -333.5 -32.15 -333.3 -32.5 -333.15 -32.9 -333.0 -33.25 -333.0 -34.4 -333.0 -35.15 -333.0 -35.5 -332.85 -35.85 -332.65 -36.25 -332.5 -36.65 -332.5 -37.75 -332.5 -39.65 -332.5 -40.4 -332.85 -41.15 -333.05 -41.5 -333.4 -41.9 -334.05 -42.2 -335.0 -42.5 -335.0 -42.45 -336.15 -42.25 -336.6 -41.85 -337.0 -41.5 -337.25 -41.15 -337.4 -40.75 -337.5 -40.4 -337.5 -39.25 -337.5 -38.5 -337.5 -38.15 -337.75 -37.75 -337.9 -37.4 -338.0 -37.0 -338.0 -35.9 -338.0 -35.15 -338.0 -34.75 -338.15 -34.4 -338.35 -34.0 -338.5 -33.65 -338.5 -33.25 -338.5 -32.9 -338.5 -32.5 -338.5 -32.15 -338.95 -31.0 -339.35 -29.85 -339.5 -29.5 -339.5 -29.15 -339.5 -28.75 -339.85 -28.0 -340.7 -26.1 -341.0 -25.4 -341.0 -25.0 -341.0 -24.65 Q-341.8 -22.9 -342.9 -21.35 -343.65 -20.3 -344.0 -19.0 L-346.25 -16.75 -349.25 -13.75 -350.05 -13.75 -349.15 -14.65 Q-348.7 -15.35 -348.4 -16.15 L-347.75 -17.25 -347.75 -17.65 -347.75 -18.0 -346.15 -21.15 -344.25 -24.75 -344.25 -25.15 -344.25 -25.5 -344.0 -25.9 -343.75 -26.25 -343.75 -26.65 -343.75 -27.0 -343.5 -27.4 -343.3 -27.75 -343.25 -28.15 -343.25 -28.5 -343.25 -28.9 -343.25 -29.25 -343.1 -29.6 -342.9 -30.0 -342.75 -30.4 -342.75 -30.75 -342.75 -31.15 -342.75 -31.5 -342.5 -31.9 -342.25 -32.25 -342.25 -32.65 -342.25 -33.0 -342.0 -33.4 -341.8 -33.75 -341.75 -34.15 -341.75 -34.5 -341.75 -34.9 -341.75 -35.25 -341.6 -35.6 -341.4 -36.0 -341.25 -36.4 -341.25 -36.75 -341.25 -37.15 -341.25 -37.5 -341.0 -37.9 -340.8 -38.25 -340.75 -38.65 -340.75 -39.0 -340.75 -39.4 -340.75 -39.75 -340.6 -40.1 -340.4 -40.5 -340.25 -40.9 -340.25 -43.9 -340.25 -46.5 -340.4 -46.85 -340.65 -47.65 -340.75 -48.4 -340.8 -48.75 -341.0 -49.15 -341.05 -49.2 -337.5 -49.0 -335.0 -47.55 -332.7 -45.95" fill="#80a839" fill-rule="evenodd" stroke="none"/>
    <path d="M-377.9 -100.9 L-377.75 -101.25 -377.5 -101.65 -377.15 -102.4 -372.7 -106.95 Q-370.75 -109.05 -368.4 -110.65 L-367.65 -111.4 Q-366.3 -112.9 -364.4 -113.65 -362.4 -115.85 -359.8 -117.15 -357.65 -118.2 -355.5 -118.5 L-354.05 -118.35 -352.4 -117.9 -352.05 -117.45 -351.85 -117.15 -351.65 -116.75 -351.5 -116.4 -351.5 -116.0 -351.5 -115.65 -351.4 -115.25 -351.25 -114.9 -351.15 -114.5 -351.0 -114.15 -351.0 -113.75 -351.0 -112.65 -351.0 -110.4 -351.0 -110.0 -350.85 -109.65 -350.65 -109.25 -350.5 -108.9 -350.5 -108.5 -350.5 -108.15 -350.5 -107.75 -350.45 -107.4 -350.3 -107.0 -350.15 -106.65 -350.0 -106.25 -350.0 -105.9 -350.0 -105.75 Q-339.9 -104.55 -330.55 -99.95 L-325.05 -100.1 Q-317.85 -100.5 -310.95 -99.0 L-306.05 -98.0 Q-305.0 -97.8 -304.15 -97.15 L-303.9 -96.75 -303.75 -96.4 -303.65 -96.0 -303.5 -95.65 -303.5 -95.25 -303.5 -94.9 -303.5 -94.5 -303.5 -94.15 -303.9 -93.4 -304.75 -91.8 -309.25 -82.8 Q-311.6 -78.0 -314.55 -73.65 -314.1 -69.05 -314.4 -64.3 -315.7 -46.45 -329.9 -35.55 -332.45 -33.6 -335.6 -32.95 -352.45 -29.4 -367.9 -36.75 -384.15 -44.4 -389.8 -61.05 -392.4 -68.5 -391.15 -76.3 L-390.05 -80.2 Q-388.7 -85.45 -385.55 -89.85 L-385.2 -90.3 -384.9 -91.5 -384.6 -91.85 -384.3 -92.3 -383.85 -93.0 -383.65 -93.4 -383.25 -93.75 -382.9 -94.15 -382.5 -94.5 -382.4 -94.9 -382.25 -95.25 -381.9 -95.65 -381.5 -96.0 -380.75 -96.75 -380.5 -97.15 -380.05 -97.8 -379.15 -99.4 -378.75 -99.75 -378.4 -100.15 -378.0 -100.5 -377.9 -100.9 M-348.6 -87.15 L-349.0 -87.5 -349.25 -87.9 -349.4 -88.25 -349.65 -88.65 -350.0 -89.0 -350.4 -89.4 -350.7 -89.8 -350.9 -90.15 -351.0 -90.5 -351.0 -90.9 -351.0 -91.25 -351.0 -91.65 -351.6 -93.15 -353.15 -96.45 -353.5 -97.65 -353.5 -98.0 -353.5 -98.4 -353.5 -98.75 -353.65 -99.1 -353.85 -99.5 -354.0 -99.9 -354.0 -100.05 -355.85 -100.35 -355.5 -106.2 -355.5 -106.25 -355.5 -106.65 -355.5 -107.0 -355.55 -107.35 -355.75 -107.75 -355.9 -108.15 -356.0 -108.5 -356.0 -108.9 -356.0 -110.0 -356.05 -112.25 -356.15 -112.65 -356.95 -112.55 Q-358.65 -111.9 -360.15 -110.9 L-360.3 -110.5 -360.5 -110.1 -361.6 -108.95 -361.9 -108.75 -362.25 -108.65 -363.15 -108.4 -364.3 -107.3 -366.9 -105.2 Q-368.5 -102.4 -373.1 -95.95 L-365.5 -95.65 -365.5 -96.0 -365.5 -96.75 -365.5 -97.9 -365.4 -98.25 -365.25 -98.65 -365.0 -99.0 -364.6 -99.35 -364.15 -99.75 -363.0 -99.95 -363.0 -100.0 -362.05 -99.7 -361.4 -99.4 -361.05 -98.95 -360.85 -98.65 -360.5 -97.9 -360.5 -97.5 -360.5 -97.15 -360.5 -96.75 -360.45 -96.4 -360.3 -96.0 -360.0 -95.25 -360.0 -94.5 -360.0 -93.0 -360.0 -92.25 -360.15 -91.9 -360.3 -91.5 -360.5 -91.15 -360.7 -90.85 -360.8 -90.8 -361.25 -90.4 -363.5 -90.5 -379.5 -89.55 -380.0 -89.0 -380.15 -88.5 Q-380.8 -86.0 -382.85 -84.95 -385.45 -80.55 -386.4 -75.35 -387.8 -63.45 -380.7 -53.45 -372.9 -42.5 -360.0 -38.35 -346.5 -33.95 -333.35 -39.1 -330.1 -40.4 -327.8 -43.2 L-324.4 -47.5 Q-319.0 -57.85 -318.95 -69.5 L-319.05 -72.6 -319.25 -72.9 -319.4 -73.25 -319.5 -73.65 -319.5 -74.0 -319.5 -74.4 -319.5 -74.75 -319.5 -75.15 -319.4 -75.4 Q-319.85 -78.3 -320.8 -81.15 -323.15 -88.15 -328.05 -92.65 -332.15 -97.05 -334.95 -96.95 L-335.0 -97.15 -335.0 -97.25 Q-337.45 -98.4 -340.3 -99.2 -344.6 -100.4 -348.5 -100.35 L-348.5 -100.25 -348.5 -99.9 -348.5 -99.5 -348.5 -99.15 -347.85 -97.65 Q-346.85 -95.85 -346.2 -93.9 L-346.0 -92.75 -345.55 -92.0 -344.35 -90.15 Q-343.95 -89.65 -344.0 -89.0 L-344.05 -88.65 -344.15 -88.25 -344.35 -87.85 -344.5 -87.5 -344.9 -87.15 -345.55 -86.8 -346.5 -86.5 -346.55 -86.5 -347.0 -86.55 -348.15 -86.75 -348.55 -87.1 -348.6 -87.15 M-315.75 -82.25 L-314.7 -84.1 Q-314.4 -84.65 -314.25 -85.25 L-313.9 -85.65 -313.5 -86.0 -313.4 -86.4 -313.25 -86.75 -313.05 -87.15 -312.45 -88.3 -312.25 -88.6 -311.3 -90.45 Q-310.95 -91.2 -310.9 -92.0 L-310.6 -92.35 -310.3 -92.75 -310.0 -93.15 -312.0 -93.6 Q-317.55 -95.1 -323.35 -95.1 -319.05 -90.95 -316.95 -84.85 L-316.15 -82.1 -316.0 -81.6 -315.9 -81.9 -315.75 -82.25" fill="#000000" fill-rule="evenodd" stroke="none"/>
    <path d="M-360.5 -91.15 L-360.3 -91.5 -360.15 -91.9 -360.0 -92.25 -360.0 -93.0 -360.0 -94.5 -360.0 -95.25 -360.3 -96.0 -360.45 -96.4 -360.5 -96.75 -360.5 -97.15 -360.5 -97.5 -360.5 -97.9 -360.85 -98.65 -361.05 -98.95 -361.4 -99.4 -362.05 -99.7 -363.0 -100.0 -363.0 -99.95 -364.15 -99.75 -364.6 -99.35 -365.0 -99.0 -365.25 -98.65 -365.4 -98.25 -365.5 -97.9 -365.5 -96.75 -365.5 -96.0 -365.5 -95.65 -373.1 -95.95 Q-368.5 -102.4 -366.9 -105.2 L-364.3 -107.3 -363.15 -108.4 -362.25 -108.65 -361.9 -108.75 -361.6 -108.95 -360.5 -110.1 -360.3 -110.5 -360.15 -110.9 Q-358.65 -111.9 -356.95 -112.55 L-356.15 -112.65 -356.05 -112.25 -356.0 -110.0 -356.0 -108.9 -356.0 -108.5 -355.9 -108.15 -355.75 -107.75 -355.55 -107.35 -355.5 -107.0 -355.5 -106.65 -355.5 -106.25 -355.5 -106.2 -355.85 -100.35 -354.0 -100.05 -354.0 -99.9 -353.85 -99.5 -353.65 -99.1 -353.5 -98.75 -353.5 -98.4 -353.5 -98.0 -353.5 -97.65 -353.15 -96.45 -351.6 -93.15 -351.0 -91.65 -351.0 -91.25 -351.0 -90.9 -351.0 -90.5 -350.9 -90.15 -350.7 -89.8 -350.4 -89.4 -350.0 -89.0 -349.65 -88.65 -349.4 -88.25 -349.25 -87.9 -349.0 -87.5 -348.6 -87.15 -348.6 -87.1 -360.65 -90.85 -360.5 -91.15 M-316.15 -82.1 L-316.95 -84.85 Q-319.05 -90.95 -323.35 -95.1 -317.55 -95.1 -312.0 -93.6 L-310.0 -93.15 -310.3 -92.75 -310.6 -92.35 -310.9 -92.0 Q-310.95 -91.2 -311.3 -90.45 L-312.25 -88.6 -312.45 -88.3 -313.05 -87.15 -313.25 -86.75 -313.4 -86.4 -313.5 -86.0 -313.9 -85.65 -314.25 -85.25 Q-314.4 -84.65 -314.7 -84.1 L-315.75 -82.25 -316.15 -82.1" fill="#cc3300" fill-rule="evenodd" stroke="none"/>
    <path d="M-348.55 -87.1 L-348.15 -86.75 -347.0 -86.55 -346.55 -86.5 -346.5 -86.5 -345.55 -86.8 -344.9 -87.15 -344.5 -87.5 -344.35 -87.85 -344.15 -88.25 -344.05 -88.65 -344.0 -89.0 Q-343.95 -89.65 -344.35 -90.15 L-345.55 -92.0 -346.0 -92.75 -346.2 -93.9 Q-346.85 -95.85 -347.85 -97.65 L-348.5 -99.15 -348.5 -99.5 -348.5 -99.9 -348.5 -100.25 -348.5 -100.35 Q-344.6 -100.4 -340.3 -99.2 -337.45 -98.4 -335.0 -97.25 L-335.0 -97.15 -334.95 -96.95 Q-332.15 -97.05 -328.05 -92.65 -323.15 -88.15 -320.8 -81.15 -319.85 -78.3 -319.4 -75.4 L-319.5 -75.15 -319.5 -74.75 -319.5 -74.4 -319.5 -74.0 -319.5 -73.65 -319.4 -73.25 -319.25 -72.9 -319.05 -72.6 -318.95 -69.5 Q-319.0 -57.85 -324.4 -47.5 L-327.8 -43.2 Q-330.1 -40.4 -333.35 -39.1 -346.5 -33.95 -360.0 -38.35 -372.9 -42.5 -380.7 -53.45 -387.8 -63.45 -386.4 -75.35 -385.45 -80.55 -382.85 -84.95 -380.8 -86.0 -380.15 -88.5 L-380.0 -89.0 -379.5 -89.55 -363.5 -90.5 -361.25 -90.4 -360.8 -90.8 -360.7 -90.85 -360.65 -90.85 -348.6 -87.1 -348.55 -87.1" fill="#b1e34d" fill-rule="evenodd" stroke="none"/>
    <path d="M-355.25 -79.5 L-355.0 -79.6 -354.5 -79.7 -354.5 -79.75 -353.45 -79.05 -352.65 -78.4 -348.85 -76.2 Q-347.6 -75.5 -346.65 -74.4 L-344.45 -73.4 -342.4 -72.1 -342.0 -71.75 -341.4 -71.45 -340.9 -71.1 -340.5 -70.75 -339.45 -70.05 -338.65 -69.4 -337.45 -68.55 -336.8 -68.05 -336.75 -68.65 -331.8 -65.25 Q-330.45 -64.9 -329.75 -63.75 L-329.75 -63.4 -329.8 -63.0 -330.05 -62.3 -330.25 -62.0 -330.5 -61.9 -331.0 -61.8 -331.5 -61.75 -333.25 -62.5 -333.4 -62.55 -333.5 -62.4 -333.75 -62.0 -333.75 -61.65 -333.75 -61.25 -334.65 -59.35 -335.25 -57.5 Q-335.6 -56.5 -336.15 -55.65 L-336.5 -55.25 -337.65 -54.15 -338.25 -53.5 -340.5 -52.8 -343.5 -51.75 -346.3 -51.75 -341.45 -49.9 Q-335.5 -47.5 -329.6 -45.45 L-329.25 -45.0 -329.4 -44.65 -329.55 -44.3 -330.0 -43.9 Q-340.0 -45.75 -349.4 -49.9 -353.2 -51.55 -357.25 -52.5 L-358.4 -52.5 -359.0 -52.25 -359.5 -52.3 -360.15 -52.6 -360.75 -53.25 -360.75 -53.65 -360.7 -53.95 -360.4 -54.4 -360.0 -54.75 -359.75 -54.95 -359.05 -55.2 -359.0 -55.25 -357.5 -55.25 -347.4 -52.1 -348.55 -52.7 -349.25 -53.0 -351.1 -54.9 -353.0 -56.75 -353.75 -57.5 -353.9 -57.85 -354.25 -58.65 -354.75 -59.75 -354.75 -60.15 -354.75 -60.5 -354.8 -60.85 -355.0 -61.25 -355.25 -61.65 -355.25 -62.75 -355.25 -65.0 -355.25 -66.15 -355.25 -66.5 -355.2 -66.85 -355.0 -67.25 -354.75 -67.65 -354.75 -68.0 -354.75 -68.4 -354.6 -68.75 -354.4 -69.15 -354.3 -69.5 -354.25 -69.9 -354.0 -70.25 -353.8 -70.65 -353.75 -71.0 -353.4 -71.4 -352.65 -72.15 -352.25 -72.5 -351.4 -72.9 -350.0 -73.6 -349.7 -73.7 -350.35 -74.15 -350.5 -74.25 -351.25 -74.5 -352.3 -75.2 -353.75 -76.0 -354.15 -76.4 -354.4 -76.65 -354.5 -76.7 -355.2 -77.05 -355.65 -77.4 -355.7 -77.75 -355.75 -78.5 -355.7 -78.85 -355.5 -79.25 -355.25 -79.5 M-346.5 -71.65 L-347.0 -71.75 -347.05 -71.75 -347.15 -71.65 Q-348.15 -71.0 -349.3 -70.75 -350.5 -70.45 -351.4 -69.5 L-351.6 -69.1 -351.9 -68.4 -352.25 -67.65 -352.25 -67.25 -352.25 -66.9 -352.4 -66.5 -352.6 -66.1 -352.75 -65.75 -352.75 -65.4 -352.75 -64.25 -352.75 -62.75 -352.6 -62.4 -352.4 -62.0 -352.25 -61.65 -352.25 -61.25 -352.25 -60.9 -352.2 -60.5 -352.0 -60.15 -351.75 -59.75 -351.75 -59.4 -351.65 -59.0 -351.0 -58.25 Q-349.85 -56.9 -348.4 -56.0 L-348.05 -55.6 -347.75 -55.25 -347.15 -54.9 -346.4 -54.5 -343.75 -54.5 -341.5 -55.25 -339.25 -56.0 -339.05 -56.3 -340.5 -56.25 -341.2 -56.55 -341.65 -56.9 -341.7 -57.25 -341.75 -58.4 -341.75 -59.9 -341.5 -60.25 -341.15 -60.65 -340.75 -61.0 -340.0 -61.25 -339.4 -61.0 -338.65 -60.8 -338.4 -61.0 -338.3 -61.4 -338.25 -61.75 -338.25 -62.15 -338.5 -62.25 -339.15 -62.6 -339.75 -63.25 -339.7 -63.6 -339.4 -64.4 -339.15 -65.15 -338.7 -65.4 -338.05 -65.7 -338.0 -65.75 -338.4 -66.15 -338.75 -66.5 -339.05 -66.7 -339.75 -67.0 -340.15 -67.4 -340.4 -67.65 -340.5 -67.7 -341.25 -68.0 -341.65 -68.4 -342.0 -68.75 -342.4 -69.15 -343.25 -69.5 -343.65 -69.9 -343.9 -70.15 -344.0 -70.25 -345.0 -70.7 -345.75 -71.0 -346.15 -71.35 -346.5 -71.65 M-324.25 -57.5 L-324.2 -57.85 -324.0 -58.25 -323.75 -58.65 -323.75 -59.0 -323.75 -59.4 -323.5 -59.75 -323.25 -60.15 -323.25 -60.5 -323.25 -60.9 -323.0 -61.25 -322.8 -61.65 -322.75 -62.0 -322.05 -62.8 Q-321.65 -63.25 -321.0 -63.2 L-321.0 -63.25 -320.45 -62.95 -320.15 -62.7 -317.0 -63.7 -315.5 -64.25 Q-314.95 -64.15 -314.45 -63.85 L-313.75 -63.25 -313.8 -62.9 -313.9 -62.5 -314.15 -62.15 Q-315.45 -61.45 -316.8 -60.85 L-316.95 -60.15 -317.25 -59.4 -317.25 -59.0 -317.25 -58.65 -317.25 -57.9 -317.55 -57.15 -318.1 -56.0 -318.25 -55.65 -318.25 -55.25 -318.25 -54.9 Q-318.55 -53.9 -319.1 -52.95 L-320.0 -50.75 -320.4 -50.4 -320.75 -50.0 -321.15 -49.65 -321.3 -49.25 -321.5 -48.9 -321.9 -48.55 -322.5 -48.25 -323.5 -48.25 -324.25 -48.55 -324.65 -48.9 -324.8 -51.9 -324.75 -54.9 -324.75 -55.25 -324.6 -55.6 -324.4 -56.0 -324.25 -56.4 -324.25 -56.75 -324.25 -57.15 -324.25 -57.5 M-335.5 -44.7 L-334.95 -44.45 -334.25 -43.75 -334.3 -43.4 -334.4 -43.0 -334.65 -42.65 -335.0 -42.4 -335.5 -42.3 -337.5 -42.25 -339.5 -42.8 -340.15 -43.1 -340.75 -43.75 -340.75 -44.15 -340.7 -44.45 -340.35 -44.8 -339.55 -45.2 -339.5 -45.25 -338.0 -45.25 -335.5 -44.7 M-321.0 -58.9 L-321.15 -58.65 -321.05 -58.7 -321.0 -58.75 Q-320.45 -58.65 -319.95 -58.35 L-319.8 -58.25 -319.75 -58.4 -319.75 -58.75 -319.75 -59.5 -319.75 -59.8 -320.0 -59.75 -320.75 -60.0 -320.75 -59.65 -320.75 -59.25 -321.0 -58.9 M-321.0 -55.85 L-321.75 -56.05 -321.75 -55.5 -321.9 -55.15 -322.05 -54.75 -322.25 -54.4 -322.25 -54.0 -322.25 -53.25 -322.25 -52.65 Q-321.85 -53.2 -321.55 -53.9 L-320.85 -55.4 -320.75 -55.75 -320.75 -55.8 -321.0 -55.85" fill="#000000" fill-rule="evenodd" stroke="none"/>
    <path d="M-346.5 -71.65 L-346.15 -71.35 -345.75 -71.0 -345.0 -70.7 -344.0 -70.25 -343.9 -70.15 -343.65 -69.9 -343.25 -69.5 -342.4 -69.15 -342.0 -68.75 -341.65 -68.4 -341.25 -68.0 -340.5 -67.7 -340.4 -67.65 -340.15 -67.4 -339.75 -67.0 -339.05 -66.7 -338.75 -66.5 -338.4 -66.15 -338.0 -65.75 -338.05 -65.7 -338.7 -65.4 -339.15 -65.15 -339.4 -64.4 -339.7 -63.6 -339.75 -63.25 -339.15 -62.6 -338.5 -62.25 -338.25 -62.15 -338.25 -61.75 -338.3 -61.4 -338.4 -61.0 -338.65 -60.8 -339.4 -61.0 -340.0 -61.25 -340.75 -61.0 -341.15 -60.65 -341.5 -60.25 -341.75 -59.9 -341.75 -58.4 -341.7 -57.25 -341.65 -56.9 -341.2 -56.55 -340.5 -56.25 -339.05 -56.3 -339.25 -56.0 -341.5 -55.25 -343.75 -54.5 -346.4 -54.5 -347.15 -54.9 -347.75 -55.25 -348.05 -55.6 -348.4 -56.0 Q-349.85 -56.9 -351.0 -58.25 L-351.65 -59.0 -351.75 -59.4 -351.75 -59.75 -352.0 -60.15 -352.2 -60.5 -352.25 -60.9 -352.25 -61.25 -352.25 -61.65 -352.4 -62.0 -352.6 -62.4 -352.75 -62.75 -352.75 -64.25 -352.75 -65.4 -352.75 -65.75 -352.6 -66.1 -352.4 -66.5 -352.25 -66.9 -352.25 -67.25 -352.25 -67.65 -351.9 -68.4 -351.6 -69.1 -351.4 -69.5 Q-350.5 -70.45 -349.3 -70.75 -348.15 -71.0 -347.15 -71.65 L-347.05 -71.75 -347.0 -71.75 -346.5 -71.65 M-321.0 -55.85 L-320.75 -55.8 -320.75 -55.75 -320.85 -55.4 -321.55 -53.9 Q-321.85 -53.2 -322.25 -52.65 L-322.25 -53.25 -322.25 -54.0 -322.25 -54.4 -322.05 -54.75 -321.9 -55.15 -321.75 -55.5 -321.75 -56.05 -321.0 -55.85 M-321.0 -58.9 L-320.75 -59.25 -320.75 -59.65 -320.75 -60.0 -320.0 -59.75 -319.75 -59.8 -319.75 -59.5 -319.75 -58.75 -319.75 -58.4 -319.8 -58.25 -319.95 -58.35 Q-320.45 -58.65 -321.0 -58.75 L-321.05 -58.7 -321.15 -58.65 -321.0 -58.9" fill="#ffffff" fill-rule="evenodd" stroke="none"/>
  </g>
</svg>
