<?xml version="1.0" encoding="UTF-8" standalone="no"?>
<svg xmlns:ffdec="https://www.free-decompiler.com/flash" xmlns:xlink="http://www.w3.org/1999/xlink" ffdec:objectType="shape" height="67.05px" width="23.55px" xmlns="http://www.w3.org/2000/svg">
  <g transform="matrix(1.0, 0.0, 0.0, 1.0, 0.45, 33.65)">
    <path d="M9.85 -33.65 L9.45 -32.45 9.25 -31.9 12.35 -31.75 12.15 -31.55 Q10.95 -29.9 9.35 -28.4 L10.35 -28.35 11.45 -26.75 17.15 -23.5 12.75 -23.25 Q13.05 -21.4 12.75 -19.4 12.55 -18.7 13.0 -17.75 L13.55 -16.45 14.55 -15.85 Q11.85 -14.4 11.1 -13.05 10.35 -11.7 12.85 -6.95 8.55 -5.7 8.1 -3.55 8.8 -2.25 9.85 -0.95 10.5 -0.05 11.85 0.05 L11.55 0.8 10.45 1.0 10.4 1.15 9.2 1.45 Q8.45 1.75 7.9 2.3 L7.4 3.0 7.0 3.6 Q7.7 4.1 12.4 5.0 L18.05 5.15 Q19.7 5.8 12.75 8.2 L13.3 9.25 10.35 9.4 9.95 9.6 9.8 9.8 8.85 10.4 9.4 10.9 17.4 13.55 Q13.15 14.35 19.7 16.5 26.15 18.6 20.35 17.15 14.55 15.65 13.6 15.65 12.75 15.65 16.35 17.25 19.9 18.85 14.3 18.45 12.2 18.5 11.55 19.05 L12.4 21.5 Q14.6 23.5 20.75 26.95 L13.0 25.3 Q12.9 26.45 12.25 27.0 L14.45 29.7 16.1 30.7 16.95 31.5 17.75 32.75 Q16.6 33.15 15.5 32.25 L11.25 29.4 11.65 30.3 11.7 31.1 Q11.55 31.65 11.65 32.35 L11.4 31.85 Q9.9 29.5 7.2 27.95 L6.9 27.95 7.35 30.2 Q10.4 32.7 10.05 33.15 9.65 33.55 9.2 33.35 L6.7 32.2 6.9 32.8 6.9 32.95 Q-1.15 28.95 -0.25 18.35 L0.2 9.05 Q0.05 -10.1 0.5 -29.2 L0.3 -29.95 Q3.7 -30.6 6.85 -32.25 L9.85 -33.65" fill="#ffffff" fill-opacity="0.09411765" fill-rule="evenodd" stroke="none"/>
    <path d="M2.05 -28.55 L4.35 -23.9 Q5.95 -20.0 5.0 -18.6 4.0 -17.25 4.2 -16.95 4.4 -16.65 3.6 -16.25 3.15 -14.8 5.7 -13.45 8.3 -12.1 3.15 -7.35 4.4 -2.95 3.3 -1.6 2.2 -0.25 2.45 0.05 L2.45 0.75 3.8 0.7 Q5.5 0.4 4.2 1.55 2.8 2.7 2.95 4.6 -1.0 7.0 2.05 6.25 4.9 5.5 2.85 8.05 L2.3 9.2 2.3 9.4 1.9 10.2 4.35 13.15 Q3.15 13.95 4.95 16.1 6.85 18.2 5.15 16.75 L3.3 15.25 Q3.1 15.25 4.1 16.85 5.0 18.45 3.55 18.05 1.15 18.2 6.1 22.95 L2.45 24.3 3.55 29.3 3.95 30.3 4.2 31.1 4.4 32.35 Q4.15 32.75 3.85 31.85 L2.15 27.95 1.35 25.65 1.55 29.8 Q2.45 32.3 2.35 32.75 2.3 33.15 2.1 32.95 -0.7 29.0 -0.4 18.4 L-0.35 9.15 -0.15 -29.25 -0.2 -30.0 Q0.95 -30.7 2.1 -32.3 2.45 -32.75 2.9 -32.15 L2.9 -31.95 2.05 -28.55" fill="#ffffff" fill-opacity="0.49803922" fill-rule="evenodd" stroke="none"/>
  </g>
</svg>
