<?xml version="1.0" encoding="UTF-8" standalone="no"?>
<svg xmlns:ffdec="https://www.free-decompiler.com/flash" xmlns:xlink="http://www.w3.org/1999/xlink" ffdec:objectType="shape" height="20.4px" width="16.3px" xmlns="http://www.w3.org/2000/svg">
  <g transform="matrix(1.0, 0.0, 0.0, 1.0, 5.35, 12.2)">
    <path d="M9.35 -11.5 Q10.1 -11.65 10.35 -12.05 L10.45 -12.2 10.55 -11.9 9.8 -11.1 Q10.6 -10.95 10.4 -8.8 L10.35 -7.6 10.2 -6.35 10.2 -1.95 10.15 -0.55 10.3 0.35 10.1 1.25 10.15 1.7 10.2 2.85 10.2 3.05 10.15 4.1 10.1 6.95 Q9.75 9.2 8.7 7.45 L6.85 4.8 6.6 4.3 6.2 3.75 5.95 3.3 5.8 3.2 Q4.9 2.7 4.9 1.95 L4.9 1.9 Q4.65 1.6 4.65 0.85 L6.25 -3.25 Q6.1 -3.5 6.1 -4.05 L6.25 -4.6 5.2 -3.4 2.95 -1.2 1.85 -0.05 2.15 0.4 Q2.15 0.9 1.5 1.05 L-0.45 1.05 -0.65 1.05 -0.9 1.05 -1.85 1.15 Q-3.05 1.2 -3.4 0.65 L-3.45 0.65 -4.15 0.8 Q-5.2 0.95 -5.2 0.15 L-4.95 -0.45 -4.95 -3.95 Q-4.1 -5.4 -3.45 -5.4 L-3.4 -5.4 -3.45 -5.75 -3.45 -5.85 -3.35 -5.95 -1.9 -6.4 -0.45 -6.6 Q-0.25 -6.65 0.5 -7.0 L0.7 -7.1 0.2 -7.25 -0.6 -7.45 -2.45 -7.65 Q-3.05 -7.65 -3.05 -8.35 L-2.4 -10.0 -2.35 -10.85 Q-2.3 -11.35 -1.9 -11.45 L-1.45 -11.95 8.4 -11.95 8.8 -11.45 9.35 -11.5 M6.25 -10.7 L1.8 -7.55 6.25 -10.7 M4.2 -6.6 L1.3 -5.75 1.3 -7.15 1.3 -5.75 4.2 -6.6 M1.05 -5.85 L0.5 -7.0 1.05 -5.85 M8.2 0.25 L6.9 1.45 7.55 1.3 8.35 0.6 8.2 0.25 M-2.6 -2.5 L-2.65 -2.55 -2.65 -2.5 -2.6 -2.5 M7.1 -11.0 L-0.6 -11.0 1.4 -7.5 -0.6 -11.0 7.1 -11.0" fill="#ffffff" fill-rule="evenodd" stroke="none"/>
    <path d="M0.5 -7.0 L1.05 -5.85 M1.3 -7.15 L1.3 -5.75 4.2 -6.6 M1.8 -7.55 L6.25 -10.7 M1.4 -7.5 L-0.6 -11.0 7.1 -11.0" fill="none" stroke="#cccccc" stroke-linecap="round" stroke-linejoin="round" stroke-width="0.5"/>
    <path d="M3.95 -6.7 L3.6 -6.8 1.55 -7.5 M3.6 -6.8 L7.2 -10.95 M5.6 -3.6 L10.7 -9.25 M5.15 2.2 L10.05 -0.35 M1.45 0.3 L-1.85 -1.75 -2.1 -1.95 -5.1 1.05 M-2.1 -1.95 L-3.7 -5.95 M9.65 -10.3 L-1.85 -1.75" fill="none" stroke="#999999" stroke-linecap="round" stroke-linejoin="round" stroke-width="0.5"/>
  </g>
</svg>
