<?xml version="1.0" encoding="UTF-8" standalone="no"?>
<svg xmlns:ffdec="https://www.free-decompiler.com/flash" xmlns:xlink="http://www.w3.org/1999/xlink" ffdec:objectType="shape" height="21.35px" width="13.95px" xmlns="http://www.w3.org/2000/svg">
  <g transform="matrix(1.0, 0.0, 0.0, 1.0, 6.1, 13.0)">
    <path d="M0.45 -10.45 L0.75 -9.65 2.05 -9.25 2.7 -9.05 3.3 -8.85 5.65 -7.85 6.6 -5.15 6.8 -4.45 6.9 -3.7 7.45 -0.55 7.1 -0.3 0.95 -0.8 -3.75 -5.6 Q-3.2 -5.0 -2.8 -4.1 L-1.7 -2.8 -1.35 -1.95 -1.05 -1.35 -0.85 -0.75 Q-0.45 0.55 -0.3 1.95 L-1.85 4.1 -2.45 4.8 -2.95 5.5 -5.3 8.35 -5.95 7.7 Q-5.65 5.85 -5.65 4.05 L-5.75 -2.5 -5.75 -3.2 -5.75 -3.9 -5.8 -6.7 -5.8 -7.25 -5.85 -7.3 -5.85 -10.6 -5.85 -12.7 0.2 -12.35 0.85 -12.75 1.15 -10.95 2.0 -10.95 1.8 -10.45 1.65 -10.4 0.45 -10.45" fill="#000000" fill-rule="evenodd" stroke="none"/>
    <path d="M7.6 -0.4 L4.6 -3.75 0.8 -1.15 M4.85 -4.1 L5.95 -7.65 M4.6 -3.75 L4.5 -3.85 -5.85 -10.95 M1.35 -9.7 L-1.25 -8.7 -1.0 -11.8 -0.7 -11.95 -2.9 -12.75 M-1.5 -8.7 L-5.0 -12.75 M-0.6 2.1 L-5.75 -0.35 M0.8 -12.75 L-0.7 -11.95 M0.85 -10.1 L-1.0 -11.8" fill="none" stroke="#999999" stroke-linecap="round" stroke-linejoin="round" stroke-width="0.5"/>
  </g>
</svg>
