<?xml version="1.0" encoding="UTF-8" standalone="no"?>
<svg xmlns:ffdec="https://www.free-decompiler.com/flash" xmlns:xlink="http://www.w3.org/1999/xlink" ffdec:objectType="shape" height="21.15px" width="29.6px" xmlns="http://www.w3.org/2000/svg">
  <g transform="matrix(1.0, 0.0, 0.0, 1.0, 15.9, 8.35)">
    <path d="M-5.35 5.6 L-4.55 5.6 -5.45 6.0 -5.35 5.6" fill="url(#gradient0)" fill-rule="evenodd" stroke="none"/>
    <path d="M-9.85 -5.45 L-9.1 -3.5 -12.9 -4.05 -11.65 -7.95 -9.85 -5.45" fill="url(#gradient1)" fill-rule="evenodd" stroke="none"/>
    <path d="M-1.1 -8.25 L0.2 -7.35 -0.35 -6.45 -12.05 1.9 -12.0 1.9 -12.1 2.0 -8.6 4.25 -15.6 5.0 -12.2 2.0 -12.25 1.9 -12.15 1.9 -13.8 -2.0 -9.5 -3.25 -1.1 -8.25" fill="url(#gradient2)" fill-rule="evenodd" stroke="none"/>
    <path d="M-4.55 5.6 L-5.35 5.6 -4.35 0.55 0.3 -5.1 0.05 3.5 -4.55 5.6" fill="url(#gradient3)" fill-rule="evenodd" stroke="none"/>
    <path d="M0.1 -4.15 L0.1 -7.45 10.7 0.1 11.8 -3.7 13.0 3.2 7.25 3.2 7.25 2.7 0.1 -4.15" fill="url(#gradient4)" fill-rule="evenodd" stroke="none"/>
    <path d="M0.1 12.2 L0.2 3.45 5.5 5.7 4.35 7.3 0.1 12.2" fill="url(#gradient5)" fill-rule="evenodd" stroke="none"/>
    <path d="M-13.8 -1.9 L-9.45 -3.1 -13.15 -4.1 -11.7 -7.75 -2.6 -7.85 M0.0 12.3 L-5.75 5.75 -4.6 0.5 -8.6 4.5 -15.4 4.9 -14.1 -2.0 M-3.1 -1.0 L-4.6 0.5" fill="none" stroke="#000000" stroke-linecap="round" stroke-linejoin="round" stroke-width="1.0"/>
    <path d="M2.95 -1.55 L7.4 3.0 13.2 3.1 12.1 -4.3 8.4 -5.85 8.45 -6.9 M5.45 5.7 L0.35 12.15 M5.6 5.45 L1.95 -3.1" fill="none" stroke="#000000" stroke-linecap="round" stroke-linejoin="round" stroke-width="1.0"/>
  </g>
  <defs>
    <linearGradient gradientTransform="matrix(-0.0037, -0.0047, 0.0053, -0.0042, -1.5, 1.6)" gradientUnits="userSpaceOnUse" id="gradient0" spreadMethod="pad" x1="-819.2" x2="819.2">
      <stop offset="0.0" stop-color="#ffffff"/>
      <stop offset="1.0" stop-color="#ffffff" stop-opacity="0.0"/>
    </linearGradient>
    <linearGradient gradientTransform="matrix(-0.0037, -0.0047, 0.0053, -0.0042, -10.65, -5.4)" gradientUnits="userSpaceOnUse" id="gradient1" spreadMethod="pad" x1="-819.2" x2="819.2">
      <stop offset="0.0" stop-color="#ffffff"/>
      <stop offset="1.0" stop-color="#ffffff" stop-opacity="0.0"/>
    </linearGradient>
    <linearGradient gradientTransform="matrix(-0.0045, -0.0065, 0.0067, -0.0046, -7.75, -1.55)" gradientUnits="userSpaceOnUse" id="gradient2" spreadMethod="pad" x1="-819.2" x2="819.2">
      <stop offset="0.0" stop-color="#666666"/>
      <stop offset="1.0" stop-color="#ffffff" stop-opacity="0.0"/>
    </linearGradient>
    <linearGradient gradientTransform="matrix(-0.0037, -0.0047, 0.0053, -0.0042, -1.5, 1.6)" gradientUnits="userSpaceOnUse" id="gradient3" spreadMethod="pad" x1="-819.2" x2="819.2">
      <stop offset="0.0" stop-color="#666666"/>
      <stop offset="1.0" stop-color="#ffffff" stop-opacity="0.0"/>
    </linearGradient>
    <linearGradient gradientTransform="matrix(-0.0071, -0.0043, 0.0035, -0.0059, 8.0, 0.0)" gradientUnits="userSpaceOnUse" id="gradient4" spreadMethod="pad" x1="-819.2" x2="819.2">
      <stop offset="0.0" stop-color="#666666"/>
      <stop offset="1.0" stop-color="#ffffff" stop-opacity="0.0"/>
    </linearGradient>
    <linearGradient gradientTransform="matrix(-0.0059, -0.0053, 0.0036, -0.004, 2.05, 6.4)" gradientUnits="userSpaceOnUse" id="gradient5" spreadMethod="pad" x1="-819.2" x2="819.2">
      <stop offset="0.0" stop-color="#666666"/>
      <stop offset="1.0" stop-color="#ffffff" stop-opacity="0.0"/>
    </linearGradient>
  </defs>
</svg>
