<?xml version="1.0" encoding="UTF-8" standalone="no"?>
<svg xmlns:ffdec="https://www.free-decompiler.com/flash" xmlns:xlink="http://www.w3.org/1999/xlink" ffdec:objectType="shape" height="20.25px" width="46.7px" xmlns="http://www.w3.org/2000/svg">
  <g transform="matrix(1.0, 0.0, 0.0, 1.0, 23.8, 11.35)">
    <path d="M17.3 -6.65 L20.65 -2.25 Q21.8 -1.25 22.45 1.8 L22.85 4.45 22.9 4.45 22.9 5.0 22.9 5.65 22.9 5.8 22.85 5.8 Q22.55 8.5 21.15 8.45 19.95 8.4 19.45 5.8 L19.25 5.8 19.1 4.1 Q18.75 2.0 16.2 -1.05 L12.3 -5.55 8.9 -5.8 -12.85 -5.75 -15.0 -2.95 Q-18.6 1.6 -18.8 2.25 L-18.9 2.6 -18.6 4.15 -18.55 4.15 -18.55 4.85 -18.55 5.15 -18.55 5.55 -18.6 5.55 Q-18.85 6.55 -19.8 6.85 -20.45 8.85 -21.8 8.05 -23.3 7.2 -23.3 5.55 L-23.4 5.55 Q-23.8 3.8 -23.8 1.1 L-23.55 0.1 Q-23.5 -1.55 -19.6 -5.75 -15.6 -10.15 -13.75 -10.1 L12.0 -10.1 12.45 -10.05 12.85 -10.1 Q14.65 -10.1 17.15 -6.8 L17.3 -6.65" fill="#000000" fill-opacity="0.49803922" fill-rule="evenodd" stroke="none"/>
    <path d="M-7.45 -5.6 L-7.5 -5.35 -7.35 -4.95 Q-7.2 -4.7 -6.85 -4.7 -6.45 -4.7 -6.25 -5.05 L-6.1 -5.2 -5.9 -5.4 -5.0 -6.35 -3.25 -8.2 -2.9 -8.8 5.6 -9.0 Q6.0 -9.0 6.2 -9.35 6.35 -9.7 6.15 -9.95 L6.45 -9.65 6.5 -9.6 6.5 -9.55 7.7 -7.95 7.9 -7.65 8.7 -6.65 8.75 -6.6 8.8 -6.55 8.9 -6.4 9.0 -6.3 10.1 -6.05 10.35 -6.1 Q10.45 -6.6 11.0 -6.65 12.6 -6.85 13.7 -5.7 14.35 -5.0 14.3 -4.1 L18.05 -0.6 Q20.15 -0.6 20.6 2.35 20.8 3.85 20.6 5.35 L20.6 5.8 20.35 5.8 Q20.0 6.9 19.25 8.0 18.25 9.55 17.55 8.4 16.7 8.1 16.35 5.9 L16.35 5.8 16.2 5.8 15.85 4.55 Q15.35 2.95 15.35 2.0 L15.4 1.6 13.6 0.65 11.05 -1.1 Q9.5 0.2 5.8 1.95 2.5 3.45 0.95 3.2 -0.6 3.1 -3.35 1.55 -7.3 -0.65 -8.7 -2.2 L-9.4 -1.95 -10.5 -1.55 -10.3 -2.1 -11.0 -2.85 -11.1 -2.75 -11.5 -3.1 -12.25 -2.8 -12.25 -2.3 -13.3 -0.25 -13.8 1.1 -14.0 1.2 -14.3 1.8 -14.05 1.9 -14.05 2.05 -14.05 2.2 -14.0 2.75 -13.3 2.6 -12.35 2.8 -12.0 3.05 -11.6 3.05 -11.25 3.45 -13.15 4.05 -13.95 4.35 -14.35 4.3 -14.75 4.35 -15.1 5.55 -15.55 5.55 -15.8 6.85 -15.75 7.85 -16.8 7.9 -16.9 7.9 Q-17.55 7.95 -18.5 7.35 L-18.8 5.9 -18.9 5.55 -19.05 5.55 -19.0 5.15 -19.05 4.5 -19.05 4.25 -19.05 4.15 -19.0 2.45 -18.55 2.65 -17.9 2.25 -17.2 1.35 -17.15 1.3 -17.15 1.25 -17.05 1.15 -17.0 1.0 -16.9 0.9 -16.9 0.4 Q-17.05 0.0 -17.5 -0.05 L-18.0 0.15 -18.3 0.45 -18.35 0.55 -18.35 0.6 -18.9 1.4 Q-18.7 -0.25 -18.25 -0.55 L-15.35 -3.25 Q-14.45 -4.05 -13.55 -4.35 -11.9 -5.6 -10.0 -5.6 L-8.7 -5.3 -7.6 -5.6 -7.45 -5.6 M5.1 -10.2 L4.2 -10.25 4.45 -10.25 5.1 -10.2 M-8.55 2.95 L-8.55 3.4 -8.75 3.3 -8.85 3.3 -8.8 2.95 -8.55 2.9 -8.55 2.95 M-10.65 1.5 L-10.75 1.5 -11.05 1.15 -11.45 0.8 -11.0 0.85 -10.65 1.5" fill="#ffcc00" fill-rule="evenodd" stroke="none"/>
    <path d="M6.15 -9.95 Q6.35 -9.7 6.2 -9.35 6.0 -9.0 5.6 -9.0 L-2.9 -8.8 -3.25 -8.2 -5.0 -6.35 -5.9 -5.4 -6.1 -5.2 -6.25 -5.05 Q-6.45 -4.7 -6.85 -4.7 -7.2 -4.7 -7.35 -4.95 L-7.5 -5.35 -7.45 -5.6 -7.4 -5.7 -7.05 -6.25 -7.0 -6.45 -6.85 -6.7 -6.7 -6.85 Q-5.6 -8.55 -4.1 -9.9 L-3.6 -10.15 Q0.35 -10.4 4.2 -10.25 L5.1 -10.2 5.95 -10.15 6.1 -10.05 6.15 -9.95 M-18.9 1.4 L-18.35 0.6 -18.35 0.55 -18.3 0.45 -18.0 0.15 -17.5 -0.05 Q-17.05 0.0 -16.9 0.4 L-16.9 0.9 -17.0 1.0 -17.05 1.15 -17.15 1.25 -17.15 1.3 -17.2 1.35 -17.9 2.25 -18.55 2.65 -19.0 2.45 Q-19.35 2.1 -18.95 1.45 L-18.9 1.4" fill="#ff9900" fill-rule="evenodd" stroke="none"/>
    <path d="M11.05 -1.55 L10.85 -2.0 11.0 -2.35 11.1 -2.55 11.6 -2.6 Q12.2 -2.6 16.1 0.9 L16.0 1.5 Q15.1 1.75 13.15 0.45 11.65 -0.55 11.1 -1.5 L11.1 -1.15 Q11.1 -0.6 9.25 -0.2 7.0 0.35 6.35 0.8 L4.9 2.2 0.0 2.55 -0.35 2.45 -0.55 1.95 Q-0.55 1.15 3.5 -0.35 7.7 -1.85 10.35 -1.85 L10.85 -1.75 11.05 -1.55 M17.6 6.05 Q17.65 7.15 17.25 7.7 L17.0 7.95 16.85 7.45 16.7 7.0 16.45 5.8 16.2 5.8 16.15 5.7 15.6 2.05 15.8 1.75 Q15.95 1.55 16.35 1.55 L17.05 1.75 17.3 4.45 17.45 4.45 17.6 5.8 17.6 6.05 M-6.75 -5.6 L-6.1 -5.3 -6.05 -4.9 Q-6.05 -4.5 -6.3 -4.4 L-6.75 -4.35 -12.05 -4.25 -15.05 -0.9 Q-17.15 1.35 -17.3 2.55 L-17.35 4.15 -17.3 4.9 -17.35 5.5 -17.35 5.55 Q-17.6 7.2 -18.75 7.85 L-18.8 5.15 -18.75 4.15 -18.7 4.15 Q-18.55 2.0 -18.0 1.1 L-12.5 -5.6 -6.75 -5.6 M-15.1 5.55 L-15.4 5.55 Q-15.75 6.3 -16.5 6.35 L-16.5 5.55 -16.55 5.55 -16.55 4.9 -16.55 4.4 -16.55 4.15 -16.45 4.15 -16.3 3.8 -16.3 3.7 -15.85 3.2 -15.0 2.8 -13.25 2.8 -12.6 3.1 -12.55 3.5 Q-12.55 3.95 -13.5 4.2 L-15.05 4.3 -15.1 5.55" fill="#ff9900" fill-rule="evenodd" stroke="none"/>
    <path d="M6.75 -3.35 L7.8 -3.05 7.85 -2.65 Q7.85 -2.35 4.75 -1.4 1.35 -0.35 -0.5 -0.5 L-0.55 -1.0 Q-0.55 -1.4 2.5 -2.35 5.55 -3.35 6.75 -3.35 M17.6 6.05 L17.7 5.95 Q18.65 5.15 18.85 4.45 L19.05 4.45 19.1 2.35 19.75 2.05 Q20.25 2.55 20.35 3.55 L20.35 4.45 20.35 5.0 20.35 5.8 20.25 5.8 20.15 6.25 Q19.55 8.35 17.25 7.7 17.65 7.15 17.6 6.05 M16.85 7.45 L16.6 7.2 16.7 7.0 16.85 7.45" fill="#ffff00" fill-rule="evenodd" stroke="none"/>
    <path d="M6.9 -11.0 L7.25 -10.4 7.35 -10.35 7.35 -10.3 7.4 -10.25 7.4 -10.2 8.5 -8.6 9.3 -7.6 9.35 -7.5 9.4 -7.4 9.6 -7.15 9.6 -7.1 9.65 -7.05 11.75 -7.1 12.3 -6.8 12.35 -6.55 12.55 -6.7 13.1 -6.85 Q13.65 -6.85 16.2 -4.25 L19.6 -0.75 Q20.55 0.2 21.0 2.55 L21.3 4.45 21.35 4.45 21.35 5.2 21.35 5.4 21.35 5.8 21.3 6.75 21.05 7.75 21.1 8.15 Q21.1 8.5 20.5 8.6 L20.15 8.65 20.0 8.65 16.75 8.7 16.3 8.6 16.1 8.1 Q16.1 7.7 16.35 7.55 L16.75 7.45 20.05 7.45 20.1 5.8 20.1 4.85 Q20.05 1.5 18.85 0.7 15.65 -1.55 12.35 -6.55 L12.35 -6.4 Q12.35 -6.0 12.15 -5.9 L11.75 -5.85 9.55 -5.75 9.5 -5.8 8.7 -6.15 8.25 -6.55 7.95 -6.95 7.85 -7.05 8.0 -7.05 7.75 -7.3 7.7 -7.35 7.7 -7.45 6.9 -8.5 6.25 -9.45 6.2 -9.55 6.15 -9.7 6.05 -9.85 -4.5 -10.0 -5.4 -8.5 -6.05 -7.65 -6.15 -7.5 -6.25 -7.45 -6.3 -7.4 -6.3 -7.35 -6.65 -6.9 -6.5 -6.9 -7.0 -6.0 -7.3 -5.85 -7.1 -6.05 -7.0 -6.15 -7.1 -6.1 -7.95 -5.6 -12.2 -5.6 Q-12.75 -4.45 -15.25 -1.85 L-18.65 1.3 Q-18.4 2.3 -18.3 4.15 L-18.3 4.7 -18.3 5.2 -18.3 5.55 -18.35 5.55 -18.55 7.15 -16.0 7.15 -15.75 7.25 -15.75 7.85 -15.35 7.45 -15.3 7.85 Q-15.3 8.25 -15.85 8.3 L-19.0 8.4 -19.35 8.3 -19.55 7.95 -19.55 0.85 -19.4 0.85 -13.3 -6.35 -13.1 -6.75 -12.85 -6.8 -12.85 -6.85 -12.75 -6.85 -8.35 -6.85 -6.85 -8.95 Q-6.1 -9.85 -5.6 -10.9 L-5.0 -11.25 -2.2 -11.35 6.55 -11.15 6.9 -11.0 M1.9 -7.6 Q0.5 -7.85 -0.75 -7.25 -2.4 -6.4 -2.45 -4.6 L-2.3 -3.35 Q-2.2 -2.55 -1.75 -1.9 L-1.2 -1.45 -0.5 -1.05 2.4 -1.05 2.7 -1.15 3.0 -1.3 3.05 -1.35 3.2 -1.4 3.75 -1.95 4.35 -2.65 4.7 -3.25 4.9 -4.0 4.85 -4.4 4.8 -4.45 4.8 -4.5 4.75 -4.6 4.75 -4.75 4.55 -5.2 4.25 -5.8 4.0 -6.05 3.55 -6.45 2.9 -6.9 2.75 -6.9 2.55 -7.0 2.55 -7.05 2.15 -7.3 1.95 -7.45 1.95 -7.5 1.9 -7.6 M3.25 -8.05 L4.85 -6.9 5.6 -5.8 5.65 -5.8 5.7 -5.75 5.75 -5.7 5.75 -5.6 5.75 -5.5 5.8 -5.45 5.95 -4.75 Q6.15 -3.8 5.85 -2.9 L5.4 -2.05 Q4.35 -0.35 2.55 0.1 L-0.75 0.05 -1.35 -0.1 -2.25 -0.75 -2.7 -1.15 Q-3.7 -2.5 -3.65 -4.2 L-3.25 -6.35 -3.1 -6.7 -2.6 -7.3 Q-1.55 -8.4 -0.05 -8.65 L2.2 -8.7 Q2.9 -8.65 3.15 -8.1 L3.25 -8.05 M9.55 -0.65 L11.35 -1.35 11.85 -1.25 12.05 -1.1 12.1 -0.65 Q12.1 0.3 1.6 3.6 L1.6 3.75 Q1.6 5.9 -10.35 -1.9 L-10.3 -2.1 -10.55 -2.4 -10.5 -2.6 Q-10.6 -2.85 -10.0 -2.85 -9.25 -2.85 -4.5 -0.15 L0.95 3.0 Q1.35 2.55 3.3 1.8 5.25 1.0 6.35 0.75 L8.7 -0.3 8.95 -0.4 9.55 -0.65" fill="#000000" fill-rule="evenodd" stroke="none"/>
  </g>
</svg>
