<?xml version="1.0" encoding="UTF-8" standalone="no"?>
<svg xmlns:ffdec="https://www.free-decompiler.com/flash" xmlns:xlink="http://www.w3.org/1999/xlink" ffdec:objectType="shape" height="11.85px" width="34.4px" xmlns="http://www.w3.org/2000/svg">
  <g transform="matrix(1.0, 0.0, 0.0, 1.0, 16.55, 3.35)">
    <path d="M10.4 -2.35 L10.5 -2.45 11.0 -2.6 Q16.25 -1.05 17.1 1.75 L17.5 4.45 17.65 4.45 17.85 5.9 Q17.85 8.7 17.3 6.95 L17.25 6.75 Q17.1 7.4 16.75 7.7 16.15 7.05 15.8 5.8 L15.5 5.8 15.45 5.65 14.95 2.15 12.95 1.1 10.35 -1.3 10.55 -1.45 10.75 -1.55 10.35 -1.8 10.4 -2.35 M-13.7 -1.85 L-13.95 -2.5 Q-13.8 -3.25 -11.0 -3.35 L-10.3 -2.6 Q-10.3 -2.1 -10.7 -2.0 L-12.3 -1.75 Q-12.0 0.5 -13.2 2.05 L-11.6 2.85 -11.55 3.2 -11.3 3.55 Q-11.3 4.25 -11.95 4.4 L-13.85 4.4 Q-14.55 5.15 -14.8 6.75 L-15.0 8.5 -15.0 7.1 Q-15.25 8.15 -16.5 8.1 L-16.55 6.05 -16.45 4.15 -16.1 4.15 -15.5 3.2 -15.8 2.65 -15.05 0.55 Q-14.3 -1.25 -14.25 -1.75 L-13.7 -1.85" fill="#000000" fill-opacity="0.49803922" fill-rule="evenodd" stroke="none"/>
  </g>
</svg>
