<?xml version="1.0" encoding="UTF-8" standalone="no"?>
<svg xmlns:ffdec="https://www.free-decompiler.com/flash" xmlns:xlink="http://www.w3.org/1999/xlink" ffdec:objectType="shape" height="202.55px" width="144.1px" xmlns="http://www.w3.org/2000/svg">
  <g transform="matrix(1.0, 0.0, 0.0, 1.0, 446.6, 116.0)">
    <path d="M-410.15 -2.75 L-409.0 -2.95 -409.0 -3.0 Q-406.05 -3.7 -404.2 -1.55 -402.8 0.05 -402.0 2.1 L-402.0 2.5 -402.0 2.85 -402.0 3.25 -401.95 3.6 -401.8 4.0 -401.65 4.35 -401.5 4.75 -401.5 5.1 -401.5 5.85 -401.5 7.0 -401.5 8.1 -401.65 8.5 -401.75 8.85 -401.9 9.25 -402.0 9.6 -402.0 10.0 -402.0 10.35 -402.0 10.75 -402.15 11.1 -402.3 11.5 -402.5 11.85 -402.5 12.25 -402.5 12.6 -402.5 13.0 -402.5 13.35 -402.65 13.7 -403.45 15.2 -404.35 17.45 -404.5 17.85 -404.5 18.25 -404.5 18.6 -404.5 19.0 -404.5 19.35 -404.65 19.75 -404.85 20.15 -405.05 20.85 -405.5 22.0 -405.5 22.35 -405.5 22.75 -405.5 23.1 -405.65 23.5 -405.9 24.25 -406.25 25.35 -406.5 26.1 -406.5 26.5 -406.5 26.85 -406.65 27.25 -406.85 27.65 -407.0 28.0 -407.0 28.35 -407.0 29.1 -407.0 30.6 -407.0 31.75 -407.15 32.1 -407.3 32.5 -407.5 32.85 -407.5 33.25 -407.5 33.6 -407.5 34.0 -407.5 34.75 -407.45 35.1 -407.3 35.5 -407.15 35.85 -407.0 36.25 -407.0 36.6 -407.0 37.0 -406.85 37.35 -406.65 37.75 -406.55 38.1 -406.4 38.85 -406.15 39.25 -405.85 39.6 -405.5 40.0 -405.1 40.25 -402.0 40.6 -400.15 40.5 -399.65 40.1 -399.25 39.75 -398.9 39.35 -398.15 38.95 -396.1 37.15 -394.65 35.6 -394.4 35.25 -394.25 34.9 -394.0 34.5 -393.65 34.1 -393.25 33.75 -392.9 33.35 -392.25 33.2 -389.15 32.75 Q-385.05 30.45 -380.65 32.55 -379.05 33.3 -377.4 34.1 L-377.1 34.55 -376.35 35.6 -374.5 37.5 -374.35 37.85 -373.4 39.75 -372.0 42.75 -372.0 43.1 -372.0 43.5 -371.85 43.85 -371.65 44.25 -371.5 44.6 -371.5 45.0 -371.5 46.5 -371.5 48.75 -371.5 49.5 -371.35 49.85 -371.15 50.25 -371.05 50.6 -371.0 51.0 -370.75 51.35 -370.25 51.75 -370.0 52.1 -369.8 52.5 -369.65 52.85 -369.5 53.25 -369.5 53.6 -369.5 54.0 -369.5 54.35 -370.4 56.25 -372.8 61.15 -373.65 62.6 -374.0 63.0 -374.35 63.4 -374.85 64.15 -375.0 64.5 -375.4 64.85 -375.75 65.25 -376.15 65.6 -376.3 66.0 -376.5 66.4 -376.65 66.75 -377.0 67.5 -377.4 67.85 -379.25 69.75 -381.15 71.6 -381.3 72.0 -381.5 72.35 -381.8 72.7 -382.25 73.1 -383.0 73.5 Q-396.05 81.75 -411.5 77.55 -421.15 74.9 -427.5 67.0 L-427.75 66.6 -428.2 65.9 -429.15 64.4 -429.4 64.0 -429.9 62.1 -431.85 57.25 -432.5 55.35 -432.5 55.0 -432.5 54.25 -432.5 53.1 -432.5 52.35 -432.35 52.0 -432.15 51.6 -432.0 51.25 -432.0 50.85 -432.0 49.0 -432.0 46.35 -432.0 45.6 -431.9 45.25 -431.75 44.85 -431.65 44.5 -431.5 44.1 -431.5 43.75 -431.5 43.35 -431.5 43.0 -431.5 42.6 -431.4 42.25 -431.25 41.85 -431.15 41.5 -431.0 41.1 -431.0 40.75 -431.0 40.35 -430.85 40.0 -430.65 39.6 -430.5 39.25 -430.5 38.85 -430.5 38.5 -430.5 38.1 -429.9 36.25 Q-429.15 33.7 -428.0 31.4 -427.55 30.5 -427.4 29.5 L-427.1 29.15 -426.55 28.35 Q-426.05 27.65 -425.95 26.85 L-425.9 26.5 -425.65 26.1 -425.4 25.75 -425.05 25.0 -424.75 24.25 -424.4 23.85 -424.0 23.5 -423.65 23.1 -422.0 20.2 Q-420.15 17.1 -418.7 13.75 L-418.4 12.6 -418.2 12.25 -417.9 11.85 -417.5 11.5 Q-416.95 9.5 -415.95 7.7 -414.0 4.05 -412.55 0.2 L-412.4 -0.5 -412.1 -0.85 -411.4 -1.65 -410.15 -2.75 M-384.65 36.75 Q-387.15 37.95 -389.9 38.25 -396.55 47.95 -407.65 45.25 L-410.0 43.0 -410.75 42.25 -411.5 40.35 -412.0 38.85 -412.0 38.5 -412.0 38.1 -412.25 37.75 -412.4 37.35 -412.5 37.0 -412.5 34.0 -412.5 31.0 -412.4 30.6 -412.25 30.25 -412.0 29.85 -412.0 28.0 -412.0 26.5 -411.9 26.1 -411.75 25.75 -411.5 25.35 -411.5 25.0 -411.5 24.6 -411.25 23.85 -411.0 23.1 -411.0 22.75 -411.0 22.35 -410.85 22.0 -410.65 21.6 -410.5 21.25 -410.5 20.85 -410.5 20.5 -410.0 19.0 Q-409.85 18.35 -409.5 17.85 L-409.5 17.1 -409.5 16.35 -409.5 16.0 -408.85 14.5 Q-408.45 13.8 -408.4 13.0 L-407.75 11.85 -407.5 11.1 -407.5 10.75 -407.5 10.35 -407.5 10.0 -407.4 9.6 -407.25 9.25 -407.0 8.85 -407.0 8.5 -407.0 8.1 -406.75 7.35 -406.5 6.6 -406.7 5.9 -407.0 5.1 -407.0 4.75 -407.0 4.35 -407.25 3.6 -407.6 3.1 -407.9 3.1 Q-408.05 4.35 -408.65 5.4 L-409.75 6.85 Q-412.3 12.8 -415.2 18.4 -417.2 22.35 -419.5 26.0 L-422.85 32.75 -425.0 38.0 -425.0 38.35 -425.0 38.75 -425.15 39.1 -425.3 39.5 -425.5 39.85 -425.5 40.25 -425.5 40.6 -425.75 41.35 -426.0 42.1 -426.0 42.5 -426.0 42.85 -426.15 43.25 -426.35 43.65 -426.5 44.0 -426.5 45.1 -426.5 46.25 -426.65 46.6 -426.8 47.0 -427.0 47.35 -427.0 50.35 -427.0 53.35 -427.15 53.75 -427.25 54.1 -426.9 55.25 -426.5 56.35 -426.5 56.75 -426.5 57.1 Q-425.5 58.95 -424.75 60.9 -424.15 62.45 -423.15 63.85 L-421.7 65.4 -421.15 66.1 -419.0 68.0 -418.4 68.75 Q-407.15 75.4 -394.5 72.5 L-390.9 72.35 -385.9 69.35 -385.4 68.6 -385.25 68.25 -382.65 65.6 -381.5 64.5 -381.4 64.1 -381.25 63.75 -380.5 63.0 -380.15 62.6 -379.2 61.05 -378.5 60.0 -378.15 59.6 -377.75 59.25 -376.6 56.95 -375.9 55.5 Q-375.7 54.85 -377.1 54.25 L-377.5 54.0 -377.85 53.2 -378.0 52.5 -378.0 52.1 -377.9 51.75 -377.75 51.35 -377.1 50.65 -376.65 50.25 Q-376.4 49.35 -376.45 48.35 L-376.5 46.85 -376.5 46.5 -377.4 43.45 Q-377.85 42.1 -378.65 40.85 L-379.4 40.1 -379.75 39.75 -379.9 39.35 -380.0 39.0 Q-381.45 37.4 -383.5 37.0 L-384.65 36.75" fill="#000000" fill-rule="evenodd" stroke="none"/>
    <path d="M-384.65 36.75 L-383.5 37.0 Q-381.45 37.4 -380.0 39.0 L-379.9 39.35 -379.75 39.75 -379.4 40.1 -378.65 40.85 Q-377.85 42.1 -377.4 43.45 L-376.5 46.5 -376.5 46.85 -376.45 48.35 Q-376.4 49.35 -376.65 50.25 L-377.1 50.65 -377.75 51.35 -377.9 51.75 -378.0 52.1 -378.0 52.5 -377.85 53.2 -377.5 54.0 -377.1 54.25 Q-375.7 54.85 -375.9 55.5 L-376.6 56.95 -377.75 59.25 -378.15 59.6 -378.5 60.0 -379.2 61.05 -380.15 62.6 -380.5 63.0 -381.25 63.75 -381.4 64.1 -381.5 64.5 -382.65 65.6 -385.25 68.25 -385.4 68.6 -385.9 69.35 -390.9 72.35 -394.5 72.5 Q-407.15 75.4 -418.4 68.75 L-419.0 68.0 -421.15 66.1 -421.7 65.4 -423.15 63.85 Q-424.15 62.45 -424.75 60.9 -425.5 58.95 -426.5 57.1 L-426.5 56.75 -426.5 56.35 -426.9 55.25 -427.25 54.1 -427.15 53.75 -427.0 53.35 -427.0 50.35 -427.0 47.35 -426.8 47.0 -426.65 46.6 -426.5 46.25 -426.5 45.1 -426.5 44.0 -426.35 43.65 -426.15 43.25 -426.0 42.85 -426.0 42.5 -426.0 42.1 -425.75 41.35 -425.5 40.6 -425.5 40.25 -425.5 39.85 -425.3 39.5 -425.15 39.1 -425.0 38.75 -425.0 38.35 -425.0 38.0 -422.85 32.75 -419.5 26.0 Q-417.2 22.35 -415.2 18.4 -412.3 12.8 -409.75 6.85 L-408.65 5.4 Q-408.05 4.35 -407.9 3.1 L-407.6 3.1 -407.25 3.6 -407.0 4.35 -407.0 4.75 -407.0 5.1 -406.7 5.9 -406.5 6.6 -406.75 7.35 -407.0 8.1 -407.0 8.5 -407.0 8.85 -407.25 9.25 -407.4 9.6 -407.5 10.0 -407.5 10.35 -407.5 10.75 -407.5 11.1 -407.75 11.85 -408.4 13.0 Q-408.45 13.8 -408.85 14.5 L-409.5 16.0 -409.5 16.35 -409.5 17.1 -409.5 17.85 Q-409.85 18.35 -410.0 19.0 L-410.5 20.5 -410.5 20.85 -410.5 21.25 -410.65 21.6 -410.85 22.0 -411.0 22.35 -411.0 22.75 -411.0 23.1 -411.25 23.85 -411.5 24.6 -411.5 25.0 -411.5 25.35 -411.75 25.75 -411.9 26.1 -412.0 26.5 -412.0 28.0 -412.0 29.85 -412.25 30.25 -412.4 30.6 -412.5 31.0 -412.5 34.0 -412.5 37.0 -412.4 37.35 -412.25 37.75 -412.0 38.1 -412.0 38.5 -412.0 38.85 -411.5 40.35 -410.75 42.25 -410.0 43.0 -407.65 45.25 Q-396.55 47.95 -389.9 38.25 -387.15 37.95 -384.65 36.75" fill="#80a839" fill-rule="evenodd" stroke="none"/>
    <path d="M-405.15 -90.55 L-404.65 -90.75 -404.1 -91.05 -400.15 -91.45 -398.55 -91.65 -398.05 -91.9 -397.7 -92.1 -397.3 -92.1 -396.5 -92.0 -396.5 -92.05 -395.65 -91.55 -395.1 -91.1 Q-394.65 -90.3 -394.55 -89.4 L-394.25 -87.0 -394.2 -86.6 -394.3 -86.3 -394.4 -85.9 -394.5 -85.55 -394.4 -85.1 -394.15 -83.95 Q-393.95 -83.35 -394.15 -82.7 L-393.9 -82.25 -393.7 -81.85 -391.85 -72.8 Q-391.1 -69.15 -388.9 -66.05 L-388.65 -64.85 -388.0 -62.7 -387.9 -62.35 Q-386.95 -60.55 -385.7 -59.05 L-384.1 -56.85 -383.95 -56.35 -383.9 -56.0 -383.8 -55.2 -383.95 -54.85 -384.15 -54.5 -384.65 -53.85 -385.05 -53.6 -385.6 -53.3 -386.1 -53.25 -386.9 -53.2 Q-387.15 -53.25 -387.35 -53.4 L-388.4 -53.85 -388.85 -54.35 -397.55 -56.7 -398.4 -56.55 Q-399.5 -55.75 -400.75 -55.6 -401.8 -55.5 -402.6 -54.85 L-403.75 -53.15 -405.3 -50.85 -405.55 -50.5 -405.6 -50.15 -405.7 -49.75 -405.95 -49.5 -406.15 -49.15 -406.55 -48.45 -407.1 -46.3 -407.85 -43.05 -408.05 -42.3 -408.25 -41.9 -408.4 -41.6 -408.85 -40.95 -408.95 -40.55 -409.1 -39.8 -409.35 -38.75 -409.35 -38.35 -409.3 -38.0 -409.3 -37.2 -409.35 -36.8 -409.55 -36.1 -409.8 -35.0 -410.0 -34.6 -410.2 -34.35 -410.4 -34.0 -410.75 -33.7 -411.3 -33.4 -411.65 -33.2 -412.05 -33.25 -412.75 -33.3 -413.5 -33.6 -415.75 -33.7 -417.85 -34.25 -420.15 -36.9 -421.45 -38.6 -421.5 -39.0 -421.6 -39.35 -421.7 -39.8 -422.8 -41.6 -424.2 -43.9 -424.5 -45.15 -424.95 -47.2 -425.15 -47.55 -425.15 -47.95 -425.05 -48.3 -424.95 -48.7 -425.05 -49.05 -425.05 -49.45 -425.1 -50.3 -425.05 -50.65 -424.95 -51.0 -425.1 -51.4 -425.3 -52.55 -425.3 -53.75 -425.2 -54.15 -425.1 -54.45 -425.15 -54.85 -425.3 -55.3 -425.35 -55.75 -425.25 -56.1 -425.15 -56.45 -425.0 -57.2 -424.9 -57.55 -424.95 -57.9 -425.05 -58.3 -425.15 -58.75 -423.9 -63.85 -422.5 -69.7 -422.4 -70.0 -422.2 -70.4 -422.0 -70.7 -421.65 -71.05 -421.55 -71.4 -421.4 -72.1 -421.1 -73.2 -420.95 -73.5 -420.7 -73.85 -420.25 -74.55 -420.15 -74.85 -420.1 -75.25 -420.0 -75.6 -416.4 -80.45 -412.6 -85.05 -412.5 -85.35 -412.4 -85.75 -412.2 -86.05 -411.6 -86.7 -411.05 -87.3 -408.35 -89.05 Q-407.05 -89.9 -405.55 -90.3 L-405.15 -90.55 M-393.15 -61.55 L-393.35 -61.95 -393.4 -62.35 -393.55 -63.2 -393.65 -63.6 -393.95 -64.05 -394.15 -64.5 -394.2 -64.9 -394.25 -65.25 -394.8 -66.2 -395.35 -67.05 -395.9 -68.0 -395.95 -68.4 -396.0 -68.8 -396.3 -69.25 -396.5 -69.65 -397.0 -72.5 -397.95 -76.95 -398.2 -78.55 -398.55 -79.05 -398.8 -79.5 -399.1 -81.05 -399.5 -83.15 -399.7 -85.1 -399.6 -85.5 -399.55 -85.8 -399.55 -85.95 -400.0 -86.15 -400.25 -86.15 Q-402.55 -86.15 -404.5 -85.1 -405.8 -84.35 -407.2 -83.85 L-407.55 -83.5 -407.8 -83.2 -408.0 -82.85 -408.05 -82.45 -408.15 -82.15 -408.75 -81.5 -409.2 -80.85 -409.85 -79.85 -410.3 -79.2 -410.65 -78.9 -411.25 -78.6 -412.75 -77.0 -414.4 -74.8 -415.4 -73.5 -415.45 -73.15 -415.55 -72.75 -415.65 -72.4 -415.75 -72.0 -415.8 -71.7 -416.05 -71.35 -416.35 -70.95 -416.6 -70.65 -416.65 -70.3 -416.75 -69.95 -416.85 -69.6 -416.95 -69.2 -417.1 -68.5 -417.35 -68.2 -417.6 -67.85 -417.85 -67.55 -418.5 -65.0 -419.35 -61.35 -419.9 -59.15 -419.85 -58.75 -419.75 -58.35 -419.65 -57.95 -419.75 -57.55 -419.85 -57.2 -419.95 -56.8 -420.0 -56.5 -420.1 -56.1 -420.05 -55.7 -419.95 -55.3 -419.85 -54.9 -419.95 -54.55 -420.05 -54.2 -419.95 -53.4 -419.95 -52.6 -419.85 -51.4 -419.8 -51.05 -419.9 -50.65 -419.95 -50.3 -419.85 -49.85 -419.8 -49.5 -419.75 -49.1 -419.8 -48.75 -419.9 -48.35 Q-419.4 -47.6 -419.3 -46.65 -419.05 -45.3 -418.2 -44.0 L-417.3 -42.75 -417.15 -42.3 -417.15 -41.9 -416.95 -41.5 -416.35 -40.6 -415.3 -39.6 Q-414.9 -39.35 -414.4 -39.25 L-414.15 -40.3 -413.8 -41.75 -413.45 -43.2 -413.35 -43.6 -413.15 -43.9 -412.95 -44.25 -412.8 -44.55 -412.55 -44.9 -412.2 -46.35 -411.75 -48.15 -411.15 -50.75 -410.95 -51.05 -410.7 -51.4 -410.55 -51.75 -410.3 -52.1 -410.2 -52.45 -410.1 -52.8 -410.0 -53.15 -409.6 -53.85 -409.2 -54.5 -408.45 -55.5 -408.35 -55.8 -408.3 -56.2 -407.85 -56.85 -407.3 -57.5 -406.5 -58.5 -406.2 -58.8 Q-402.7 -60.8 -398.75 -61.8 -395.95 -62.5 -393.25 -61.2 L-392.9 -61.1 -393.15 -61.55" fill="#000000" fill-rule="evenodd" stroke="none"/>
    <path d="M-393.25 -61.2 Q-395.95 -62.5 -398.75 -61.8 -402.7 -60.8 -406.2 -58.8 L-406.5 -58.5 -407.3 -57.5 -407.85 -56.85 -408.3 -56.2 -408.35 -55.8 -408.45 -55.5 -409.2 -54.5 -409.6 -53.85 -410.0 -53.15 -410.1 -52.8 -410.2 -52.45 -410.3 -52.1 -410.55 -51.75 -410.7 -51.4 -410.95 -51.05 -411.15 -50.75 -411.75 -48.15 -412.2 -46.35 -412.55 -44.9 -412.8 -44.55 -412.95 -44.25 -413.15 -43.9 -413.35 -43.6 -413.45 -43.2 -413.8 -41.75 -414.15 -40.3 -414.4 -39.25 Q-414.9 -39.35 -415.3 -39.6 L-416.35 -40.6 -416.95 -41.5 -417.15 -41.9 -417.15 -42.3 -417.3 -42.75 -418.2 -44.0 Q-419.05 -45.3 -419.3 -46.65 -419.4 -47.6 -419.9 -48.35 L-419.8 -48.75 -419.75 -49.1 -419.8 -49.5 -419.85 -49.85 -419.95 -50.3 -419.9 -50.65 -419.8 -51.05 -419.85 -51.4 -419.95 -52.6 -419.95 -53.4 -420.05 -54.2 -419.95 -54.55 -419.85 -54.9 -419.95 -55.3 -420.05 -55.7 -420.1 -56.1 -420.0 -56.5 -419.95 -56.8 -419.85 -57.2 -419.75 -57.55 -419.65 -57.95 -419.75 -58.35 -419.85 -58.75 -419.9 -59.15 -419.35 -61.35 -418.5 -65.0 -417.85 -67.55 -417.6 -67.85 -417.35 -68.2 -417.1 -68.5 -416.95 -69.2 -416.85 -69.6 -416.75 -69.95 -416.65 -70.3 -416.6 -70.65 -416.35 -70.95 -416.05 -71.35 -415.8 -71.7 -415.75 -72.0 -415.65 -72.4 -415.55 -72.75 -415.45 -73.15 -415.4 -73.5 -414.4 -74.8 -412.75 -77.0 -411.25 -78.6 -410.65 -78.9 -410.3 -79.2 -409.85 -79.85 -409.2 -80.85 -408.75 -81.5 -408.15 -82.15 -408.05 -82.45 -408.0 -82.85 -407.8 -83.2 -407.55 -83.5 -407.2 -83.85 Q-405.8 -84.35 -404.5 -85.1 -402.55 -86.15 -400.25 -86.15 L-400.0 -86.15 -399.55 -85.95 -399.55 -85.8 -399.6 -85.5 -399.7 -85.1 -399.5 -83.15 -399.1 -81.05 -398.8 -79.5 -398.55 -79.05 -398.2 -78.55 -397.95 -76.95 -397.0 -72.5 -396.5 -69.65 -396.3 -69.25 -396.0 -68.8 -395.95 -68.4 -395.9 -68.0 -395.35 -67.05 -394.8 -66.2 -394.25 -65.25 -394.2 -64.9 -394.15 -64.5 -393.95 -64.05 -393.65 -63.6 -393.55 -63.2 -393.4 -62.35 -393.35 -61.95 -393.15 -61.55 -393.25 -61.2" fill="#80a839" fill-rule="evenodd" stroke="none"/>
    <path d="M-442.05 -75.15 L-440.9 -76.25 -439.8 -77.4 -439.4 -77.75 -438.7 -78.5 -438.3 -78.9 -437.4 -79.3 Q-437.25 -79.45 -436.75 -79.6 L-436.05 -80.0 -434.85 -80.15 -434.8 -80.15 -434.35 -80.2 -432.85 -79.9 Q-431.4 -79.75 -430.0 -79.0 -419.2 -78.1 -408.5 -74.8 -401.2 -72.6 -395.7 -67.55 L-394.4 -66.35 -393.25 -65.3 -392.85 -64.9 -392.1 -64.1 -391.8 -63.8 -391.75 -64.1 -391.6 -64.45 -391.35 -64.8 -390.95 -65.15 -390.4 -65.55 -389.35 -65.75 -389.3 -65.8 Q-384.15 -66.45 -380.15 -63.05 -378.95 -61.95 -377.15 -60.8 L-374.9 -59.4 Q-369.6 -57.85 -363.9 -57.2 L-342.1 -55.25 Q-338.0 -55.05 -334.4 -52.8 -332.15 -51.55 -330.8 -49.1 -329.5 -46.8 -328.6 -44.15 L-328.6 -43.8 -328.65 -43.4 -328.65 -43.05 -328.7 -42.7 -328.65 -42.35 -328.55 -42.0 -328.35 -41.65 -328.25 -41.25 -328.25 -40.95 -328.3 -40.2 -328.35 -39.45 -328.35 -38.75 -328.4 -38.35 -328.55 -38.0 -329.35 -36.25 -330.5 -34.1 -331.65 -31.9 -332.45 -31.2 -334.7 -29.1 -333.25 -27.95 Q-331.85 -26.3 -329.7 -25.25 L-329.5 -24.9 -329.3 -24.55 -329.2 -24.2 -329.0 -23.8 -329.05 -23.45 -329.2 -23.05 -329.3 -22.75 -329.6 -22.0 -329.6 -21.6 -329.65 -21.25 Q-330.55 -20.05 -331.1 -18.4 L-333.15 -13.75 Q-333.85 -12.45 -334.35 -10.75 L-334.6 -10.4 -334.9 -10.05 -334.95 -9.75 -335.1 -9.35 -335.3 -8.95 -335.4 -8.6 Q-340.15 -3.95 -346.3 -7.9 L-349.6 -10.5 -350.35 -10.6 -351.5 -10.85 -351.95 -11.25 -352.05 -11.35 -356.7 -11.2 -356.85 -10.8 -356.9 -10.05 -356.9 -8.55 -356.95 -7.45 -357.05 -7.1 -357.25 -6.7 -357.4 -6.4 -357.4 -3.8 -357.4 -0.4 Q-351.75 -0.4 -346.55 1.95 -342.4 3.65 -338.3 5.8 L-335.8 6.8 Q-334.05 7.85 -332.5 9.55 L-329.55 12.75 -329.1 13.2 -327.0 17.15 Q-324.95 20.3 -323.5 23.6 -321.35 28.45 -319.4 33.75 L-319.35 34.15 -319.3 34.5 -319.1 34.9 -318.9 35.3 -318.8 35.7 -318.65 36.05 -318.5 36.5 -318.15 37.3 -318.1 37.65 -318.1 38.05 -318.05 38.4 -318.0 38.8 -318.0 39.05 -314.95 41.0 -311.75 43.75 -311.55 44.15 -311.3 44.55 -311.0 45.0 -311.0 45.4 -311.0 45.75 -310.95 46.1 -310.95 46.45 -311.15 46.85 -311.2 47.2 -311.3 47.6 -311.55 47.95 -311.95 48.35 -312.2 48.65 Q-326.35 51.6 -339.55 45.1 L-339.65 44.7 -339.85 43.9 -339.85 43.35 -340.15 43.05 -340.4 42.6 -340.55 42.2 -340.75 41.8 -341.1 41.05 -341.4 40.25 -341.85 39.1 -342.1 38.75 -342.55 38.3 -342.7 37.9 -342.9 37.55 -343.1 37.1 -343.3 36.75 -343.55 36.25 -343.85 35.9 -344.8 35.1 -346.0 33.9 -347.15 32.75 -347.6 32.3 -348.35 32.0 Q-349.25 31.55 -349.9 31.35 L-352.2 30.35 -352.9 30.0 -356.4 29.35 -360.6 28.5 -361.05 28.1 -361.45 27.7 -361.8 27.25 -361.95 26.9 -362.1 26.5 -362.1 26.15 -362.15 25.7 -362.05 25.35 -362.05 25.25 Q-362.7 25.35 -363.1 25.75 -363.2 25.65 -363.2 25.8 L-363.15 25.95 -363.15 26.35 -363.1 26.75 -363.1 27.15 -362.9 27.5 -362.65 27.9 -362.45 28.3 -362.45 28.75 -362.4 29.1 -362.4 29.5 -362.05 30.3 -361.25 31.9 -360.6 33.1 -360.55 33.5 -360.55 33.85 -360.4 34.25 -360.25 34.65 -360.1 35.05 -359.95 35.4 -359.85 36.2 -359.8 37.0 -359.75 38.15 -359.5 38.65 -359.3 39.05 -359.1 39.4 -359.05 39.8 -359.05 40.15 -358.9 40.6 -358.75 41.0 -358.55 41.4 -358.4 41.75 -358.35 42.15 -358.35 42.55 -358.3 43.0 -358.15 43.35 -357.9 43.75 -357.7 44.15 -357.65 44.9 -357.55 46.5 -357.4 48.1 -357.25 48.5 -357.1 48.9 -356.95 49.3 -356.8 49.65 -356.6 51.65 -356.4 54.8 -356.3 55.55 -356.1 55.95 -355.9 56.35 -355.7 56.75 -355.5 59.9 -355.15 64.2 -355.1 64.55 -355.25 65.0 -355.35 65.35 -355.45 65.75 -355.55 66.1 -355.45 67.7 -355.25 70.4 -355.15 71.55 -355.3 71.95 -355.5 72.35 -355.6 72.75 -355.5 74.3 -355.4 76.6 -355.35 77.75 -355.5 78.15 -355.7 78.55 -355.8 78.9 -355.85 79.05 Q-355.3 79.25 -354.65 79.75 L-354.05 80.15 Q-352.9 80.3 -351.65 81.0 L-351.25 81.45 -350.75 82.6 -350.7 82.95 -350.7 83.3 -350.8 83.7 -351.15 84.45 Q-357.4 86.55 -363.8 86.55 -368.3 86.55 -372.8 85.55 L-376.2 84.7 -377.7 84.2 -378.2 83.8 -379.3 82.65 -379.45 82.35 -380.1 82.45 -381.25 82.2 -381.7 81.8 Q-381.95 81.5 -382.15 81.45 L-382.45 81.0 -382.6 80.65 -382.85 80.2 -383.1 79.85 -383.35 77.9 -383.45 74.85 -383.6 72.1 -383.55 71.7 -383.4 71.35 -383.2 70.9 -383.2 70.55 -383.2 70.15 -383.15 69.75 -383.0 69.35 -382.95 69.0 -382.85 68.6 -382.9 67.45 -383.05 65.45 -383.25 63.05 -383.4 62.7 -383.5 62.3 -383.7 61.9 -383.8 61.5 -383.85 61.1 -383.9 60.7 -384.15 60.35 -384.35 59.9 -384.45 59.55 -384.5 59.1 -384.5 58.7 -384.55 58.3 -384.75 57.95 -384.85 57.5 -385.05 57.1 -385.15 56.7 -385.25 56.35 -385.25 55.9 -385.55 55.5 -385.7 55.1 -385.85 54.75 -385.85 54.35 -385.9 53.95 -385.95 53.55 -386.15 53.1 -386.25 52.7 -386.45 52.35 -387.0 51.55 -387.1 51.1 -387.2 50.7 -387.2 50.3 -387.5 49.55 -388.0 48.35 -388.6 47.05 -388.95 46.7 -389.5 44.6 -390.85 41.85 Q-391.45 40.85 -391.65 39.85 L-391.95 39.45 -392.3 39.0 -392.6 38.6 -392.75 38.2 -392.75 37.85 -392.8 37.4 -393.15 36.6 -393.85 35.35 -394.3 34.5 Q-395.5 34.05 -396.55 33.0 L-398.15 31.25 -398.3 30.85 -398.45 30.5 -398.85 30.1 -399.25 29.7 -399.4 29.25 -399.6 28.85 -400.0 28.4 Q-400.25 28.15 -400.4 28.05 L-401.15 27.25 -401.25 26.8 -401.25 26.45 -401.3 26.4 -401.9 25.2 -402.1 24.8 -402.6 24.35 -402.95 24.0 -405.75 19.95 Q-407.25 18.0 -408.05 15.9 L-408.45 15.45 -408.9 15.1 -409.2 14.25 -410.3 12.65 -410.55 12.3 -410.75 11.9 -410.85 11.45 -411.05 11.1 -411.3 10.75 -411.65 10.3 -414.65 4.35 Q-416.15 1.7 -416.85 -1.05 L-416.85 -1.4 -416.85 -1.8 -416.85 -2.15 -417.35 -3.35 -418.15 -5.55 -418.45 -6.4 -418.45 -6.75 -418.45 -7.15 -418.45 -7.85 -418.45 -8.25 -418.6 -8.6 -418.8 -9.0 -418.95 -9.4 -418.85 -15.3 -418.7 -21.8 -418.5 -22.1 -418.3 -22.5 -418.1 -22.85 -418.1 -23.2 -418.1 -23.55 -418.05 -23.9 -418.0 -24.2 -417.8 -24.6 -417.5 -25.3 -417.5 -25.6 -417.45 -26.0 -417.3 -26.35 -417.1 -26.75 -416.95 -27.05 -416.9 -27.45 -416.9 -27.75 -416.85 -28.15 -416.75 -28.5 -416.55 -28.85 -416.25 -29.55 -416.3 -29.9 -416.25 -30.25 -416.05 -30.6 -415.65 -31.35 -415.1 -32.4 -415.1 -32.7 -415.05 -33.05 -415.05 -33.4 -415.05 -33.8 -414.95 -34.15 -414.75 -34.5 -414.45 -35.2 -414.4 -35.5 -414.4 -35.95 -414.35 -36.25 Q-414.4 -36.6 -414.05 -36.95 L-413.15 -38.3 -412.7 -39.05 -412.25 -39.4 -411.8 -39.75 -411.65 -39.75 -411.6 -40.2 Q-411.95 -40.55 -411.9 -40.9 L-412.2 -41.95 -412.75 -43.05 -414.0 -44.4 -414.0 -43.95 -414.05 -43.55 -414.0 -43.25 -414.95 -41.15 -415.3 -40.4 Q-416.2 -38.95 -417.7 -38.1 -419.85 -36.9 -422.25 -36.1 L-424.25 -35.45 -424.6 -35.05 Q-424.95 -35.15 -425.1 -34.85 L-425.7 -34.55 -426.9 -34.15 Q-428.5 -32.95 -430.3 -32.2 L-430.65 -32.1 -436.2 -32.4 -437.0 -33.15 -437.75 -33.85 -438.45 -34.6 -438.8 -34.95 -439.2 -35.3 -439.3 -35.65 -439.4 -36.0 -439.8 -36.45 -440.15 -36.75 -440.25 -37.15 -440.3 -37.45 -440.3 -37.85 -440.5 -38.2 -440.9 -38.55 -441.1 -38.9 -441.25 -39.2 -441.55 -40.0 -441.7 -40.3 -442.1 -40.7 -442.4 -41.0 -442.75 -42.2 -443.5 -43.25 -443.8 -43.6 -444.2 -44.2 -444.95 -45.3 -445.3 -46.0 -445.4 -46.4 -445.4 -46.7 -445.4 -47.15 -445.35 -47.45 -445.3 -48.15 -445.3 -48.5 -445.4 -48.85 -445.55 -49.25 -445.65 -49.55 -445.75 -49.95 -445.7 -50.25 -445.75 -50.65 -445.95 -50.95 -446.1 -51.4 -446.15 -51.7 -446.15 -52.05 -446.1 -52.4 -446.25 -52.7 -446.45 -53.1 -446.55 -53.4 -446.55 -53.5 -446.5 -54.9 -446.45 -55.6 -446.4 -55.9 -446.35 -57.05 -446.3 -58.8 -446.2 -59.9 -446.25 -60.25 -446.2 -60.6 -446.0 -60.95 -445.75 -61.3 -445.7 -61.65 -445.7 -62.05 -445.7 -62.4 -445.65 -62.75 -445.7 -63.1 -445.65 -63.5 -445.55 -63.8 -445.4 -64.2 -445.25 -64.5 -445.1 -64.95 -445.1 -65.3 -445.1 -65.65 -445.1 -66.0 -445.1 -66.4 -444.95 -66.7 -444.8 -67.1 -444.7 -67.45 -444.55 -67.85 -444.5 -68.2 -444.55 -68.6 -444.55 -68.9 -444.4 -69.3 -444.25 -69.65 -444.05 -70.0 -444.0 -70.35 -444.0 -70.75 -443.85 -71.15 -443.7 -71.5 -443.6 -71.85 -443.45 -72.25 -443.5 -72.6 -443.45 -73.0 -443.35 -73.3 -443.05 -73.65 -442.7 -74.05 -442.45 -74.45 -442.05 -75.15 M-371.2 22.5 L-371.4 22.9 -371.6 23.25 Q-373.3 23.4 -375.0 22.55 -376.4 21.85 -377.75 21.55 L-378.05 21.1 -378.45 20.35 -378.85 19.5 -378.9 19.1 -378.75 18.75 -378.1 17.95 -377.7 17.75 -376.75 17.25 -376.15 16.95 -376.3 16.6 -376.7 16.15 -377.1 15.8 -377.2 15.45 -377.7 14.6 -378.1 13.75 -378.45 13.4 -379.25 12.6 -380.0 11.85 -382.05 8.7 -383.65 5.55 -384.15 4.8 -384.15 4.35 -384.15 4.0 -384.3 3.65 -384.65 3.25 -384.65 2.85 -384.65 2.5 -384.7 2.1 -384.7 1.75 -384.75 1.4 -384.95 0.95 -385.2 0.5 -385.2 0.15 -385.2 -0.25 -385.25 -1.0 -385.25 -1.35 -385.3 -1.7 -385.5 -2.1 -385.8 -2.5 -385.8 -2.85 -385.8 -3.25 -386.05 -3.65 -386.3 -4.05 -386.3 -4.4 -386.3 -4.8 -386.3 -5.15 -386.3 -5.55 -386.65 -6.3 -387.0 -7.4 -387.3 -8.15 -387.3 -8.5 -387.25 -9.25 -387.3 -10.35 -387.3 -10.7 -387.5 -11.05 -387.75 -11.55 -387.65 -15.45 -387.55 -19.85 -387.45 -22.05 -387.5 -22.4 -387.7 -22.75 -387.95 -23.15 -387.9 -23.5 -387.9 -23.9 -387.85 -24.2 -387.7 -24.55 -387.45 -24.9 -387.3 -25.25 -387.25 -27.1 -387.15 -29.2 -387.1 -30.7 -387.0 -31.0 -386.8 -31.4 -386.5 -31.75 -386.5 -32.1 -386.5 -32.45 -386.5 -32.8 -386.5 -33.2 -386.4 -33.45 -386.1 -33.9 -385.9 -34.2 -385.9 -34.6 -385.85 -35.3 -385.8 -36.35 -385.7 -36.7 -385.5 -37.05 -385.2 -37.45 -385.2 -37.8 -385.2 -38.15 -385.2 -38.5 -385.15 -38.9 -385.1 -39.2 -384.75 -39.6 -384.6 -39.9 -384.55 -40.3 -384.6 -40.65 -384.2 -41.0 -384.05 -41.3 -384.0 -41.4 -384.2 -41.35 -384.55 -41.25 -385.3 -41.1 -386.45 -41.4 -386.85 -41.8 -387.25 -42.15 -387.6 -42.5 -387.9 -42.9 -388.1 -43.25 -388.2 -43.6 -388.15 -43.95 -388.15 -44.3 -388.1 -44.65 -388.3 -45.0 -388.35 -45.4 -388.5 -45.7 -388.55 -46.15 -388.55 -46.45 -388.5 -46.85 -388.75 -47.2 -388.9 -47.55 -389.0 -47.9 -388.95 -48.25 -388.9 -48.6 Q-389.25 -49.2 -389.2 -49.75 L-389.65 -50.8 -389.8 -51.15 -389.95 -51.9 -390.5 -52.95 -390.7 -54.05 Q-391.25 -54.65 -391.4 -55.2 L-392.2 -56.25 -392.45 -56.65 -392.95 -57.25 -393.6 -58.45 -393.8 -58.85 -395.9 -60.7 -396.5 -61.1 -396.85 -61.5 -397.9 -62.5 -399.85 -64.45 -400.55 -64.8 -401.25 -65.2 -401.9 -65.55 -402.8 -65.95 -403.6 -66.65 -404.8 -67.4 -406.25 -68.25 Q-406.5 -68.5 -406.7 -68.55 L-415.4 -71.2 Q-423.35 -73.6 -431.95 -73.85 L-432.4 -74.25 -432.65 -74.4 -433.8 -74.6 -434.95 -74.55 -435.5 -74.15 -435.95 -73.8 -436.8 -72.7 Q-437.5 -72.35 -437.7 -71.55 L-437.95 -71.25 -438.3 -70.45 -438.85 -69.45 -438.9 -69.05 -438.9 -68.7 -438.9 -68.3 -438.9 -67.95 -439.1 -67.55 -439.3 -67.2 -439.4 -66.85 -439.45 -66.5 -439.45 -66.15 -439.45 -65.8 -439.65 -65.4 -439.75 -65.1 -439.9 -64.65 -440.05 -64.35 -440.05 -63.95 -440.05 -63.6 -440.1 -63.25 -440.1 -62.9 -440.2 -62.55 -440.35 -62.2 -440.5 -61.8 -440.6 -61.45 -440.65 -61.05 -440.65 -60.75 -440.7 -60.35 -440.65 -60.05 -440.7 -59.65 -440.7 -59.35 -440.85 -58.95 -441.1 -58.6 -441.25 -58.2 -441.3 -57.9 -441.3 -57.5 -441.3 -57.2 -441.3 -56.5 -441.35 -56.1 -441.35 -55.8 -441.4 -55.35 -441.4 -55.05 -441.35 -54.65 -441.15 -54.35 -441.1 -53.95 -440.95 -53.65 -441.0 -53.2 -440.95 -52.9 -440.8 -52.55 -440.65 -52.2 -440.6 -51.85 -440.5 -51.5 -440.2 -50.7 -440.1 -50.4 -440.1 -50.05 -440.15 -49.7 -440.15 -49.4 -440.2 -49.0 -440.15 -48.6 -440.2 -48.2 -438.95 -46.1 -438.55 -45.45 -437.0 -42.95 -435.65 -40.4 -434.35 -37.9 -433.95 -37.5 -433.6 -37.15 -433.3 -37.05 -432.35 -37.05 -428.0 -39.05 -427.4 -39.35 -424.95 -40.5 -423.75 -40.9 -423.3 -41.2 -422.95 -41.45 -422.5 -41.5 -421.6 -41.8 -420.85 -42.15 Q-420.6 -42.4 -420.35 -42.45 L-420.05 -42.75 -419.9 -43.15 -419.75 -43.5 -419.55 -43.85 -419.45 -44.15 -419.35 -44.55 -419.4 -44.9 -419.55 -45.3 -419.5 -45.95 -419.4 -46.65 -419.35 -47.4 -419.4 -47.7 -419.35 -48.1 -419.35 -48.4 -419.35 -48.65 -421.8 -48.85 -423.0 -48.95 -423.45 -49.4 -423.8 -49.7 -424.1 -50.1 -424.2 -50.45 -424.3 -50.9 -424.25 -51.55 -424.25 -52.25 -424.2 -52.95 -424.15 -53.3 -424.15 -53.65 -424.15 -54.05 -424.35 -54.75 -424.7 -54.65 -424.95 -54.35 -425.1 -54.05 -425.6 -53.7 -426.25 -53.4 -427.2 -53.1 -428.35 -53.4 -428.85 -53.8 -429.2 -54.15 -429.45 -54.55 -429.55 -54.9 -429.65 -55.25 -429.6 -55.55 -429.65 -55.95 -429.6 -56.25 -429.6 -56.7 -429.5 -57.0 -429.5 -57.4 -428.85 -58.05 -428.15 -58.8 -427.3 -59.5 -426.9 -59.85 Q-424.5 -61.0 -422.25 -59.6 L-421.85 -59.3 -419.9 -57.75 -418.65 -57.0 -418.45 -56.65 -418.25 -56.25 -418.1 -55.95 -417.95 -55.55 -417.95 -55.25 -418.0 -54.85 -418.0 -54.55 Q-418.15 -54.4 -417.9 -54.25 L-417.0 -53.85 -416.1 -53.5 -415.45 -53.2 -415.05 -52.85 -414.9 -52.55 -414.7 -52.15 -414.6 -51.8 -414.35 -51.3 Q-411.4 -50.0 -408.85 -47.05 -406.95 -44.95 -406.45 -41.85 L-406.55 -40.4 -406.65 -38.65 -406.7 -37.2 -406.55 -36.45 -406.15 -35.5 -405.9 -34.3 -405.9 -33.95 -405.9 -33.6 -405.75 -33.3 -405.6 -32.9 -405.45 -32.6 -405.15 -31.8 -404.75 -31.45 -404.4 -31.1 -404.0 -30.75 -403.9 -30.4 -403.7 -29.95 -403.6 -29.65 -403.55 -29.25 -403.6 -28.95 -403.65 -28.25 -403.7 -27.5 -403.85 -27.15 -404.1 -26.75 -404.2 -26.45 -404.65 -26.1 -405.3 -25.8 -406.3 -25.5 -407.45 -25.8 -407.9 -26.2 -408.25 -26.55 -408.55 -26.95 -408.65 -27.3 -408.85 -27.95 -409.1 -28.75 -409.35 -29.1 -409.65 -29.45 -410.1 -29.85 -410.35 -30.15 -410.7 -29.35 -411.7 -26.9 -411.85 -26.6 -411.85 -26.2 -411.9 -25.85 -411.9 -25.45 -412.0 -25.15 -412.2 -24.75 -412.4 -24.45 -412.45 -24.0 -412.45 -23.7 -412.65 -23.35 -412.75 -23.0 -413.0 -22.3 -413.0 -21.9 -413.05 -21.6 -413.05 -21.2 -413.25 -20.9 -413.4 -20.5 -413.6 -20.2 -413.75 -16.2 -413.85 -11.0 -413.8 -10.65 -413.65 -10.3 -413.35 -9.55 -413.35 -9.25 -413.35 -8.8 -413.35 -8.45 -413.35 -8.05 -413.35 -7.7 -412.8 -6.55 -412.4 -5.4 -412.4 -5.05 -412.4 -4.7 -412.35 -4.3 -412.2 -3.95 -412.0 -3.5 -411.85 -3.15 -411.8 -2.7 -411.8 -2.35 Q-409.9 3.65 -406.2 9.35 L-400.95 18.1 -400.55 18.5 -400.2 18.9 -399.7 19.3 -399.55 19.75 -399.0 20.5 -398.3 21.3 -397.8 22.1 -396.4 22.95 -393.9 25.15 -393.65 25.55 -393.45 25.95 -393.2 26.35 -392.85 26.8 -392.1 27.6 Q-391.7 28.1 -391.55 28.8 L-391.35 29.15 -390.95 29.65 Q-390.8 29.75 -390.55 30.0 L-389.95 31.2 -389.05 33.1 -387.95 35.25 -387.95 35.6 -387.85 36.1 -387.5 36.5 -387.25 36.9 -386.95 37.65 -386.35 38.85 -385.7 40.1 -385.55 40.5 -385.5 40.9 -385.5 41.3 -385.0 42.5 -384.05 44.5 Q-383.45 45.3 -383.0 46.55 L-383.0 46.9 -382.95 47.3 -382.65 48.1 -382.05 49.8 -381.1 51.75 -381.05 52.15 -381.05 52.5 -381.0 52.95 -380.9 53.3 -380.55 54.15 -380.05 55.3 -379.7 56.1 -379.7 56.55 -379.65 56.95 -379.65 57.3 -379.6 57.7 -379.5 58.1 -379.3 58.55 -379.15 58.9 -379.0 59.3 -378.95 59.65 -378.95 60.1 -378.75 60.45 -378.5 60.9 -378.3 61.25 -378.1 64.05 -377.8 68.35 -377.65 70.65 -377.8 71.05 -377.85 71.5 -378.0 71.9 -378.1 72.25 -378.05 72.65 -378.05 73.0 -378.15 73.45 -378.3 73.85 -378.45 74.2 -378.45 74.55 -378.4 75.35 -378.35 76.5 -378.3 77.25 -378.15 77.65 -377.95 78.05 -377.8 78.4 -377.8 78.45 -377.3 78.35 -377.3 78.3 -376.3 78.6 Q-375.65 78.7 -375.15 79.4 -368.45 81.85 -361.2 80.9 L-361.45 80.65 -361.65 80.25 -362.0 79.5 -362.25 78.75 -362.3 78.4 -362.3 78.0 -362.2 77.65 -362.1 77.2 -361.9 76.85 -361.5 76.5 -361.05 76.1 -360.9 76.1 -360.9 75.8 -360.8 75.4 -360.7 75.0 -360.5 74.6 -360.55 73.85 -360.55 72.7 -360.7 71.15 -360.6 70.75 -360.45 70.4 -360.3 69.95 -360.35 68.45 -360.5 65.75 -360.6 64.55 -360.55 64.2 -360.4 63.75 -360.35 63.4 -360.2 63.0 -360.3 61.85 -360.45 59.8 -360.55 58.7 -360.6 58.3 -360.85 57.85 -361.0 57.45 -361.15 57.1 -361.3 55.55 -361.5 52.75 -361.55 51.6 -361.75 51.2 -362.0 50.8 -362.2 50.35 -362.25 49.55 -362.4 48.0 -362.5 46.45 -362.65 46.1 -362.8 45.65 -363.0 45.25 -363.15 44.85 -363.15 44.5 -363.15 44.1 -363.2 43.7 -363.25 43.25 -363.4 42.85 -363.6 42.45 -363.75 42.05 -363.9 41.65 -363.9 41.25 -363.95 40.85 -364.2 40.5 -364.4 40.05 -364.55 39.7 -364.6 39.3 -364.65 38.95 -364.75 38.1 -364.8 37.35 -364.95 37.0 -365.15 36.55 -365.35 36.1 -365.4 35.7 -365.45 35.3 -365.8 34.55 -366.7 33.0 -367.2 31.75 -367.25 31.35 -367.25 31.0 -367.3 30.55 -367.5 30.2 -367.6 29.7 -367.8 29.35 -367.9 28.95 -367.95 28.6 -367.95 28.15 -368.0 27.75 -368.65 26.65 -369.55 24.55 -369.8 23.8 -369.85 23.4 -369.75 23.0 -369.6 22.6 -369.4 22.25 -369.05 21.9 -368.6 21.5 -367.5 21.35 -367.4 21.1 Q-365.05 20.3 -362.7 19.15 -361.85 18.4 -360.55 18.2 -360.2 17.7 -359.6 17.55 L-357.4 16.15 -356.3 15.95 -353.85 15.45 -353.45 15.5 -352.8 15.55 Q-352.4 15.5 -351.85 15.85 L-351.2 16.2 -350.85 16.6 -350.6 16.95 -350.25 17.75 -350.2 18.1 -350.2 18.5 -350.3 18.9 -350.5 19.35 -350.6 19.65 -357.55 23.1 Q-358.2 23.25 -358.85 23.6 -349.75 23.85 -342.5 30.35 -337.3 35.25 -335.05 42.1 L-320.75 43.6 -320.9 43.35 -321.3 42.95 -321.65 42.55 -321.95 42.15 -322.1 41.8 -322.25 41.4 -322.25 41.05 -322.3 40.6 -322.3 40.5 -322.55 40.1 -322.8 39.75 -322.9 39.3 -323.1 38.9 -323.2 38.5 -323.5 37.75 -323.5 37.4 -323.55 36.95 -323.75 36.55 -324.35 35.0 -325.2 33.05 -325.95 31.15 -326.55 29.65 -326.6 29.25 -326.65 28.85 -326.85 28.45 -327.4 27.2 -328.0 26.0 -328.45 24.9 -329.15 23.7 -329.45 23.35 -329.55 22.95 -329.55 22.6 -329.8 22.25 -330.15 21.85 -330.35 21.4 -330.55 21.05 -330.65 20.6 -330.85 20.25 -331.15 19.9 -331.5 19.5 -331.65 19.1 -332.25 17.95 -333.0 16.65 -333.85 15.45 -334.35 14.8 -334.9 14.35 -335.85 13.55 -336.65 12.75 -337.85 11.65 -339.95 10.5 Q-342.6 9.05 -345.25 8.25 -346.95 7.8 -348.25 6.95 L-349.35 6.6 Q-349.8 6.35 -350.1 6.25 L-350.5 6.0 -351.25 5.8 -357.1 4.6 -356.8 4.9 -356.4 5.3 -356.15 5.7 -356.0 6.05 -355.75 6.45 -355.4 6.85 -354.6 7.6 -354.35 7.85 -353.05 8.75 Q-352.45 9.15 -352.0 9.9 L-351.85 10.25 -351.85 11.05 -351.95 11.8 -352.4 12.45 -353.45 13.15 -354.2 12.85 -354.65 12.5 -354.75 12.1 -354.75 11.7 -354.8 10.95 -355.5 10.15 -356.55 9.1 -356.65 8.95 -357.35 8.65 -357.8 8.3 -358.15 7.85 -358.65 7.15 -358.9 6.7 -359.25 6.35 -359.65 5.95 -360.85 3.6 -362.1 1.35 -362.1 1.1 -362.25 0.75 -362.35 0.35 -362.4 -3.05 -362.4 -7.5 -362.4 -7.95 -362.3 -8.3 -362.2 -8.7 -361.9 -9.4 -361.9 -10.15 -361.9 -11.6 -361.85 -12.35 -361.75 -12.65 -361.6 -13.05 -361.3 -13.8 -361.3 -14.15 -361.3 -14.5 -361.2 -14.85 -360.9 -15.2 -360.5 -15.55 -360.2 -15.95 -359.55 -16.15 -359.5 -16.4 -359.45 -16.7 -359.15 -17.1 -358.7 -17.45 -358.45 -17.7 -357.55 -18.05 -356.6 -18.5 -356.2 -18.85 -355.95 -19.2 -355.9 -19.5 -355.5 -19.9 -355.1 -20.25 -354.85 -20.65 -354.8 -20.95 -354.85 -21.35 Q-353.15 -24.15 -351.85 -27.15 L-349.85 -31.35 -349.85 -31.7 -349.85 -32.1 -349.85 -32.45 -349.8 -32.75 -349.55 -33.1 -349.3 -33.5 -349.25 -33.85 -349.25 -34.25 -348.95 -34.6 -348.7 -34.95 -348.7 -35.25 -348.7 -35.65 -348.65 -36.0 -348.5 -36.35 -348.25 -36.7 -348.1 -37.1 -348.05 -37.45 -348.1 -37.85 -348.05 -38.1 -347.75 -38.5 -347.55 -38.85 -347.55 -39.25 -347.55 -39.6 -347.5 -39.95 -347.5 -40.3 -347.3 -40.65 -347.1 -41.05 -346.9 -41.4 -346.9 -41.7 -346.9 -42.1 -346.9 -42.5 -346.8 -42.85 -346.6 -43.25 -346.3 -43.55 -346.25 -44.65 -346.2 -46.1 -346.15 -46.5 -346.3 -46.85 -346.45 -47.2 -346.6 -47.55 -346.6 -47.9 -346.55 -48.25 -346.6 -48.6 -346.75 -48.95 -347.0 -49.35 -347.0 -49.75 -346.95 -50.15 -347.25 -50.5 -347.35 -50.65 -367.7 -52.4 -368.05 -52.1 -369.35 -51.4 -369.7 -51.0 -370.0 -50.8 -370.25 -50.7 -370.9 -50.45 -372.3 -48.55 Q-373.0 -48.05 -373.9 -47.75 L-374.9 -47.75 -375.4 -48.0 -376.05 -47.75 -376.35 -47.35 -376.65 -47.0 -377.1 -46.3 -378.25 -45.25 -379.85 -43.85 Q-380.75 -42.55 -381.25 -41.05 -382.0 -39.65 -382.35 -38.25 L-382.7 -37.45 -382.75 -37.15 -382.75 -36.8 -382.95 -36.45 -383.05 -36.0 -383.3 -35.65 -383.3 -35.3 -383.35 -34.6 -383.4 -33.6 -383.45 -33.2 -383.7 -32.85 -383.95 -32.5 -384.0 -32.15 -384.0 -31.8 -384.05 -31.45 -384.05 -31.05 -384.2 -30.75 -384.35 -30.35 -384.6 -30.05 -384.65 -27.85 -384.75 -25.75 Q-384.75 -24.8 -385.05 -23.85 -384.9 -21.8 -385.0 -19.55 L-385.15 -14.45 -385.2 -12.6 -385.15 -12.2 -384.95 -11.9 -384.75 -11.5 -384.75 -11.15 -384.75 -10.45 -384.75 -9.25 -384.6 -8.5 -384.05 -7.05 -383.8 -6.3 -383.8 -5.9 -383.75 -5.5 -383.6 -5.15 -383.4 -4.75 -383.3 -4.4 -383.3 -4.05 -383.3 -3.7 -383.25 -3.35 -383.0 -2.95 -382.75 -2.55 -382.75 -2.15 -382.75 -1.75 -382.75 -1.4 -382.75 -1.0 -382.6 -0.6 -382.35 -0.2 -382.2 0.15 -382.2 0.55 -382.2 0.9 -382.2 1.65 -382.2 2.05 -381.05 4.7 -379.6 7.45 -379.2 8.2 -378.85 8.65 -378.15 9.45 -377.75 10.25 -375.9 12.35 Q-375.05 13.3 -374.4 14.6 L-373.55 15.3 -372.65 16.55 -372.5 16.95 Q-372.8 17.15 -372.8 17.65 L-374.1 19.25 Q-374.35 19.25 -374.35 19.55 L-373.55 19.8 Q-372.55 20.05 -371.55 21.1 L-371.2 21.45 -371.2 21.8 -371.2 22.2 -371.2 22.5 M-344.05 -49.9 L-344.05 -49.55 -343.95 -48.85 -343.75 -48.05 -343.6 -47.7 -343.7 -45.2 -343.85 -42.25 -344.0 -41.95 -344.2 -41.6 -344.4 -41.25 -344.4 -40.9 -344.45 -40.45 -344.45 -40.1 -344.55 -39.75 -344.75 -39.4 -345.0 -39.1 -345.05 -38.7 -345.05 -38.3 -345.1 -38.0 -345.25 -37.6 -345.5 -37.2 -345.65 -36.85 -345.7 -36.5 -345.65 -36.15 -345.65 -35.8 -345.75 -35.45 -345.95 -35.1 -346.25 -34.7 -346.25 -34.4 -346.3 -34.0 -346.55 -33.65 -346.8 -33.3 -346.8 -32.95 -346.85 -32.6 -346.8 -32.25 -347.0 -31.85 -347.2 -31.45 -347.4 -31.1 -347.4 -30.8 -347.45 -30.4 -347.45 -30.1 -347.5 -29.7 -347.7 -29.35 -347.95 -29.0 -348.0 -28.65 -348.0 -28.25 -348.3 -27.95 -348.55 -27.55 -348.6 -27.25 -348.6 -26.85 -350.65 -23.4 -352.4 -20.45 -352.4 -20.05 -352.35 -19.65 -353.05 -18.6 -353.85 -17.2 -354.8 -16.4 -354.0 -16.3 -350.9 -19.15 -348.65 -21.3 -347.4 -23.45 Q-346.25 -24.95 -345.35 -26.65 L-345.35 -27.0 -345.3 -27.35 -344.95 -28.0 -344.05 -29.85 -343.65 -30.55 -343.7 -30.9 -343.65 -31.25 -343.5 -31.6 -343.0 -32.7 Q-343.1 -33.3 -342.55 -33.8 L-342.55 -34.15 -342.5 -34.5 -342.5 -34.85 -342.5 -35.25 -342.35 -35.6 -342.1 -36.0 -341.95 -36.3 -341.9 -36.7 -341.85 -37.4 -341.85 -38.45 -341.7 -38.85 -341.55 -39.2 -341.25 -39.6 -341.25 -39.9 -341.2 -40.6 -341.15 -41.7 -341.0 -42.05 -340.85 -42.45 -340.55 -42.8 -340.2 -43.15 -339.7 -43.45 -338.55 -43.65 -338.55 -43.7 -337.6 -43.35 -337.0 -43.1 -336.65 -42.7 -336.5 -42.35 -336.15 -41.6 -336.2 -40.9 -336.3 -39.1 -336.35 -37.95 -336.5 -37.65 -336.7 -37.25 -336.9 -36.9 -336.9 -36.55 -336.95 -35.8 -337.0 -34.7 -337.2 -34.35 -337.35 -34.0 -337.6 -33.65 -337.55 -33.35 -337.0 -33.65 -336.55 -34.0 -336.2 -34.35 -335.9 -34.65 -335.4 -35.8 -334.5 -37.2 -333.8 -38.65 -333.8 -39.0 -333.8 -39.4 -333.65 -39.7 -333.4 -40.1 -333.5 -40.45 -333.6 -40.85 -333.7 -41.2 -333.65 -41.55 -333.65 -41.9 -333.7 -42.3 -333.8 -42.6 -334.05 -43.25 -334.4 -43.8 -334.65 -44.45 -334.95 -45.55 -335.35 -45.95 -335.65 -46.35 -335.85 -46.7 -336.15 -46.95 -338.35 -48.6 -340.75 -50.05 -344.3 -50.35 -344.25 -50.3 -344.05 -49.9 M-385.8 -60.0 L-386.65 -60.55 -386.8 -60.7 -389.0 -60.9 -388.85 -60.75 -388.45 -60.4 -388.3 -60.05 -388.1 -59.7 -387.85 -59.35 -387.5 -58.9 -387.1 -58.55 -386.4 -57.1 -386.1 -56.35 -385.9 -55.95 -385.45 -54.9 Q-385.3 -54.0 -384.75 -53.1 L-384.25 -51.95 -384.2 -51.6 -384.25 -51.25 -384.15 -50.9 -384.05 -50.55 -383.95 -50.15 -383.75 -49.45 -383.65 -49.15 -383.5 -48.7 -383.4 -48.35 -383.4 -47.95 -383.45 -47.65 -383.25 -47.3 -383.15 -46.95 -383.0 -46.55 -383.05 -46.2 -383.0 -45.85 -383.05 -45.55 -382.95 -45.1 -382.85 -44.75 -382.75 -44.35 -382.75 -44.1 -382.65 -44.15 -382.35 -44.5 -382.35 -44.85 -382.3 -45.25 Q-381.0 -46.75 -379.3 -48.05 L-376.5 -50.45 -375.6 -50.8 -374.75 -51.1 -374.7 -51.15 -373.85 -51.1 -373.7 -51.45 -372.8 -52.4 -371.55 -53.05 Q-373.05 -53.5 -374.3 -54.15 L-375.55 -54.4 Q-377.7 -54.9 -379.6 -56.2 L-381.4 -57.25 -381.75 -57.6 -382.0 -57.85 -383.15 -58.05 -383.55 -58.5 -384.0 -58.85 -384.4 -59.2 -385.1 -59.6 -385.8 -60.0 M-340.3 -25.8 L-341.75 -23.05 -344.65 -17.45 -347.5 -15.1 -346.7 -14.7 Q-345.4 -13.95 -344.35 -12.8 L-343.7 -12.4 -343.1 -12.05 -342.85 -11.8 -341.85 -11.65 -339.85 -11.8 -339.15 -13.3 -337.85 -15.9 -336.7 -18.35 -336.7 -18.65 -336.65 -19.05 -336.5 -19.4 -336.05 -20.2 -335.5 -21.2 -335.1 -22.3 -335.45 -22.7 -336.5 -23.75 -338.2 -25.2 -338.95 -25.3 -340.05 -25.55 -340.3 -25.8" fill="#000000" fill-rule="evenodd" stroke="none"/>
    <path d="M-369.75 23.0 L-369.85 23.4 -369.8 23.8 -369.55 24.55 -368.65 26.65 -368.0 27.75 -367.95 28.15 -367.95 28.6 -367.9 28.95 -367.8 29.35 -367.6 29.7 -367.5 30.2 -367.3 30.55 -367.25 31.0 -367.25 31.35 -367.2 31.75 -366.7 33.0 -365.8 34.55 -365.45 35.3 -365.4 35.7 -365.35 36.1 -365.15 36.55 -364.95 37.0 -364.8 37.35 -364.75 38.1 -364.65 38.95 -364.6 39.3 -364.55 39.7 -364.4 40.05 -364.2 40.5 -363.95 40.85 -363.9 41.25 -363.9 41.65 -363.75 42.05 -363.6 42.45 -363.4 42.85 -363.25 43.25 -363.2 43.7 -363.15 44.1 -363.15 44.5 -363.15 44.85 -363.0 45.25 -362.8 45.65 -362.65 46.1 -362.5 46.45 -362.4 48.0 -362.25 49.55 -362.2 50.35 -362.0 50.8 -361.75 51.2 -361.55 51.6 -361.5 52.75 -361.3 55.55 -361.15 57.1 -361.0 57.45 -360.85 57.85 -360.6 58.3 -360.55 58.7 -360.45 59.8 -360.3 61.85 -360.2 63.0 -360.35 63.4 -360.4 63.75 -360.55 64.2 -360.6 64.55 -360.5 65.75 -360.35 68.45 -360.3 69.95 -360.45 70.4 -360.6 70.75 -360.7 71.15 -360.55 72.7 -360.55 73.85 -360.5 74.6 -360.7 75.0 -360.8 75.4 -360.9 75.8 -360.9 76.1 -361.05 76.1 -361.5 76.5 -361.9 76.85 -362.1 77.2 -362.2 77.65 -362.3 78.0 -362.3 78.4 -362.25 78.75 -362.0 79.5 -361.65 80.25 -361.45 80.65 -361.2 80.9 Q-368.45 81.85 -375.15 79.4 -375.65 78.7 -376.3 78.6 L-377.3 78.3 -377.3 78.35 -377.8 78.45 -377.8 78.4 -377.95 78.05 -378.15 77.65 -378.3 77.25 -378.35 76.5 -378.4 75.35 -378.45 74.55 -378.45 74.2 -378.3 73.85 -378.15 73.45 -378.05 73.0 -378.05 72.65 -378.1 72.25 -378.0 71.9 -377.85 71.5 -377.8 71.05 -377.65 70.65 -377.8 68.35 -378.1 64.05 -378.3 61.25 -378.5 60.9 -378.75 60.45 -378.95 60.1 -378.95 59.65 -379.0 59.3 -379.15 58.9 -379.3 58.55 -379.5 58.1 -379.6 57.7 -379.65 57.3 -379.65 56.95 -379.7 56.55 -379.7 56.1 -380.05 55.3 -380.55 54.15 -380.9 53.3 -381.0 52.95 -381.05 52.5 -381.05 52.15 -381.1 51.75 -382.05 49.8 -382.65 48.1 -382.95 47.3 -383.0 46.9 -383.0 46.55 Q-383.45 45.3 -384.05 44.5 L-385.0 42.5 -385.5 41.3 -385.5 40.9 -385.55 40.5 -385.7 40.1 -386.35 38.85 -386.95 37.65 -387.25 36.9 -387.5 36.5 -387.85 36.1 -387.95 35.6 -387.95 35.25 -389.05 33.1 -389.95 31.2 -390.55 30.0 Q-390.8 29.75 -390.95 29.65 L-391.35 29.15 -391.55 28.8 Q-391.7 28.1 -392.1 27.6 L-392.85 26.8 -393.2 26.35 -393.45 25.95 -393.65 25.55 -393.9 25.15 -396.4 22.95 -397.8 22.1 -398.3 21.3 -399.0 20.5 -399.55 19.75 -399.7 19.3 -400.2 18.9 -400.55 18.5 -400.95 18.1 -406.2 9.35 Q-409.9 3.65 -411.8 -2.35 L-411.8 -2.7 -411.85 -3.15 -412.0 -3.5 -412.2 -3.95 -412.35 -4.3 -412.4 -4.7 -412.4 -5.05 -412.4 -5.4 -412.8 -6.55 -413.35 -7.7 -413.35 -8.05 -413.35 -8.45 -413.35 -8.8 -413.35 -9.25 -413.35 -9.55 -413.65 -10.3 -413.8 -10.65 -413.85 -11.0 -413.75 -16.2 -413.6 -20.2 -413.4 -20.5 -413.25 -20.9 -413.05 -21.2 -413.05 -21.6 -413.0 -21.9 -413.0 -22.3 -412.75 -23.0 -412.65 -23.35 -412.45 -23.7 -412.45 -24.0 -412.4 -24.45 -412.2 -24.75 -412.0 -25.15 -411.9 -25.45 -411.9 -25.85 -411.85 -26.2 -411.85 -26.6 -411.7 -26.9 -410.7 -29.35 -410.35 -30.15 -410.1 -29.85 -409.65 -29.45 -409.35 -29.1 -409.1 -28.75 -408.85 -27.95 -408.65 -27.3 -408.55 -26.95 -408.25 -26.55 -407.9 -26.2 -407.45 -25.8 -406.3 -25.5 -405.3 -25.8 -404.65 -26.1 -404.2 -26.45 -404.1 -26.75 -403.85 -27.15 -403.7 -27.5 -403.65 -28.25 -403.6 -28.95 -403.55 -29.25 -403.6 -29.65 -403.7 -29.95 -403.9 -30.4 -404.0 -30.75 -404.4 -31.1 -404.75 -31.45 -405.15 -31.8 -405.45 -32.6 -405.6 -32.9 -405.75 -33.3 -405.9 -33.6 -405.9 -33.95 -405.9 -34.3 -406.15 -35.5 -406.55 -36.45 -406.7 -37.2 -406.65 -38.65 -406.55 -40.4 -406.45 -41.85 Q-406.95 -44.95 -408.85 -47.05 -411.4 -50.0 -414.35 -51.3 L-414.6 -51.8 -414.7 -52.15 -414.9 -52.55 -415.05 -52.85 -415.45 -53.2 -416.1 -53.5 -417.0 -53.85 -417.9 -54.25 Q-418.15 -54.4 -418.0 -54.55 L-418.0 -54.85 -417.95 -55.25 -417.95 -55.55 -418.1 -55.95 -418.25 -56.25 -418.45 -56.65 -418.65 -57.0 -419.9 -57.75 -421.85 -59.3 -422.25 -59.6 Q-424.5 -61.0 -426.9 -59.85 L-427.3 -59.5 -428.15 -58.8 -428.85 -58.05 -429.5 -57.4 -429.5 -57.0 -429.6 -56.7 -429.6 -56.25 -429.65 -55.95 -429.6 -55.55 -429.65 -55.25 -429.55 -54.9 -429.45 -54.55 -429.2 -54.15 -428.85 -53.8 -428.35 -53.4 -427.2 -53.1 -426.25 -53.4 -425.6 -53.7 -425.1 -54.05 -424.95 -54.35 -424.7 -54.65 -424.35 -54.75 -424.15 -54.05 -424.15 -53.65 -424.15 -53.3 -424.2 -52.95 -424.25 -52.25 -424.25 -51.55 -424.3 -50.9 -424.2 -50.45 -424.1 -50.1 -423.8 -49.7 -423.45 -49.4 -423.0 -48.95 -421.8 -48.85 -419.35 -48.65 -419.35 -48.4 -419.35 -48.1 -419.4 -47.7 -419.35 -47.4 -419.4 -46.65 -419.5 -45.95 -419.55 -45.3 -419.4 -44.9 -419.35 -44.55 -419.45 -44.15 -419.55 -43.85 -419.75 -43.5 -419.9 -43.15 -420.05 -42.75 -420.35 -42.45 Q-420.6 -42.4 -420.85 -42.15 L-421.6 -41.8 -422.5 -41.5 -422.95 -41.45 -423.3 -41.2 -423.75 -40.9 -424.95 -40.5 -427.4 -39.35 -428.0 -39.05 -432.35 -37.05 -433.3 -37.05 -433.6 -37.15 -433.95 -37.5 -434.35 -37.9 -435.65 -40.4 -437.0 -42.95 -438.55 -45.45 -438.95 -46.1 -440.2 -48.2 -440.15 -48.6 -440.2 -49.0 -440.15 -49.4 -440.15 -49.7 -440.1 -50.05 -440.1 -50.4 -440.2 -50.7 -440.5 -51.5 -440.6 -51.85 -440.65 -52.2 -440.8 -52.55 -440.95 -52.9 -441.0 -53.2 -440.95 -53.65 -441.1 -53.95 -441.15 -54.35 -441.35 -54.65 -441.4 -55.05 -441.4 -55.35 -441.35 -55.8 -441.35 -56.1 -441.3 -56.5 -441.3 -57.2 -441.3 -57.5 -441.3 -57.9 -441.25 -58.2 -441.1 -58.6 -440.85 -58.95 -440.7 -59.35 -440.7 -59.65 -440.65 -60.05 -440.7 -60.35 -440.65 -60.75 -440.65 -61.05 -440.6 -61.45 -440.5 -61.8 -440.35 -62.2 -440.2 -62.55 -440.1 -62.9 -440.1 -63.25 -440.05 -63.6 -440.05 -63.95 -440.05 -64.35 -439.9 -64.65 -439.75 -65.1 -439.65 -65.4 -439.45 -65.8 -439.45 -66.15 -439.45 -66.5 -439.4 -66.85 -439.3 -67.2 -439.1 -67.55 -438.9 -67.95 -438.9 -68.3 -438.9 -68.7 -438.9 -69.05 -438.85 -69.45 -438.3 -70.45 -437.95 -71.25 -437.7 -71.55 Q-437.5 -72.35 -436.8 -72.7 L-435.95 -73.8 -435.5 -74.15 -434.95 -74.55 -433.8 -74.6 -432.65 -74.4 -432.4 -74.25 -431.95 -73.85 Q-423.35 -73.6 -415.4 -71.2 L-406.7 -68.55 Q-406.5 -68.5 -406.25 -68.25 L-404.8 -67.4 -403.6 -66.65 -402.8 -65.95 -401.9 -65.55 -401.25 -65.2 -400.55 -64.8 -399.85 -64.45 -397.9 -62.5 -396.85 -61.5 -396.5 -61.1 -395.9 -60.7 -393.8 -58.85 -393.6 -58.45 -392.95 -57.25 -392.45 -56.65 -392.2 -56.25 -391.4 -55.2 Q-391.25 -54.65 -390.7 -54.05 L-390.5 -52.95 -389.95 -51.9 -389.8 -51.15 -389.65 -50.8 -389.2 -49.75 Q-389.25 -49.2 -388.9 -48.6 L-388.95 -48.25 -389.0 -47.9 -388.9 -47.55 -388.75 -47.2 -388.5 -46.85 -388.55 -46.45 -388.55 -46.15 -388.5 -45.7 -388.35 -45.4 -388.3 -45.0 -388.1 -44.65 -388.15 -44.3 -388.15 -43.95 -388.2 -43.6 -388.1 -43.25 -387.9 -42.9 -387.6 -42.5 -387.25 -42.15 -386.85 -41.8 -386.45 -41.4 -385.3 -41.1 -384.55 -41.25 -384.2 -41.35 -384.0 -41.4 -384.05 -41.3 -384.2 -41.0 -384.6 -40.65 -384.55 -40.3 -384.6 -39.9 -384.75 -39.6 -385.1 -39.2 -385.15 -38.9 -385.2 -38.5 -385.2 -38.15 -385.2 -37.8 -385.2 -37.45 -385.5 -37.05 -385.7 -36.7 -385.8 -36.35 -385.85 -35.3 -385.9 -34.6 -385.9 -34.2 -386.1 -33.9 -386.4 -33.45 -386.5 -33.2 -386.5 -32.8 -386.5 -32.45 -386.5 -32.1 -386.5 -31.75 -386.8 -31.4 -387.0 -31.0 -387.1 -30.7 -387.15 -29.2 -387.25 -27.1 -387.3 -25.25 -387.45 -24.9 -387.7 -24.55 -387.85 -24.2 -387.9 -23.9 -387.9 -23.5 -387.95 -23.15 -387.7 -22.75 -387.5 -22.4 -387.45 -22.05 -387.55 -19.85 -387.65 -15.45 -387.75 -11.55 -387.5 -11.05 -387.3 -10.7 -387.3 -10.35 -387.25 -9.25 -387.3 -8.5 -387.3 -8.15 -387.0 -7.4 -386.65 -6.3 -386.3 -5.55 -386.3 -5.15 -386.3 -4.8 -386.3 -4.4 -386.3 -4.05 -386.05 -3.65 -385.8 -3.25 -385.8 -2.85 -385.8 -2.5 -385.5 -2.1 -385.3 -1.7 -385.25 -1.35 -385.25 -1.0 -385.2 -0.25 -385.2 0.15 -385.2 0.5 -384.95 0.95 -384.75 1.4 -384.7 1.75 -384.7 2.1 -384.65 2.5 -384.65 2.85 -384.65 3.25 -384.3 3.65 -384.15 4.0 -384.15 4.35 -384.15 4.8 -383.65 5.55 -382.05 8.7 -380.0 11.85 -379.25 12.6 -378.45 13.4 -378.1 13.75 -377.7 14.6 -377.2 15.45 -377.1 15.8 -376.7 16.15 -376.3 16.6 -376.15 16.95 -376.75 17.25 -377.7 17.75 -378.1 17.95 -378.75 18.75 -378.9 19.1 -378.85 19.5 -378.45 20.35 -378.05 21.1 -377.75 21.55 Q-376.4 21.85 -375.0 22.55 -373.3 23.4 -371.6 23.25 L-371.4 22.9 -371.2 22.5 -369.75 23.0" fill="#b1e34d" fill-rule="evenodd" stroke="none"/>
    <path d="M-369.75 23.0 L-371.2 22.5 -371.2 22.2 -371.2 21.8 -371.2 21.45 -371.55 21.1 Q-372.55 20.05 -373.55 19.8 L-374.35 19.55 Q-374.35 19.25 -374.1 19.25 L-372.8 17.65 Q-372.8 17.15 -372.5 16.95 L-372.65 16.55 -373.55 15.3 -374.4 14.6 Q-375.05 13.3 -375.9 12.35 L-377.75 10.25 -378.15 9.45 -378.85 8.65 -379.2 8.2 -379.6 7.45 -381.05 4.7 -382.2 2.05 -382.2 1.65 -382.2 0.9 -382.2 0.55 -382.2 0.15 -382.35 -0.2 -382.6 -0.6 -382.75 -1.0 -382.75 -1.4 -382.75 -1.75 -382.75 -2.15 -382.75 -2.55 -383.0 -2.95 -383.25 -3.35 -383.3 -3.7 -383.3 -4.05 -383.3 -4.4 -383.4 -4.75 -383.6 -5.15 -383.75 -5.5 -383.8 -5.9 -383.8 -6.3 -384.05 -7.05 -384.6 -8.5 -384.75 -9.25 -384.75 -10.45 -384.75 -11.15 -384.75 -11.5 -384.95 -11.9 -385.15 -12.2 -385.2 -12.6 -385.15 -14.45 -385.0 -19.55 Q-384.9 -21.8 -385.05 -23.85 -384.75 -24.8 -384.75 -25.75 L-384.65 -27.85 -384.6 -30.05 -384.35 -30.35 -384.2 -30.75 -384.05 -31.05 -384.05 -31.45 -384.0 -31.8 -384.0 -32.15 -383.95 -32.5 -383.7 -32.85 -383.45 -33.2 -383.4 -33.6 -383.35 -34.6 -383.3 -35.3 -383.3 -35.65 -383.05 -36.0 -382.95 -36.45 -382.75 -36.8 -382.75 -37.15 -382.7 -37.45 -382.35 -38.25 Q-382.0 -39.65 -381.25 -41.05 -380.75 -42.55 -379.85 -43.85 L-378.25 -45.25 -377.1 -46.3 -376.65 -47.0 -376.35 -47.35 -376.05 -47.75 -375.4 -48.0 -374.9 -47.75 -373.9 -47.75 Q-373.0 -48.05 -372.3 -48.55 L-370.9 -50.45 -370.25 -50.7 -370.0 -50.8 -369.7 -51.0 -369.35 -51.4 -368.05 -52.1 -367.7 -52.4 -347.35 -50.65 -347.25 -50.5 -346.95 -50.15 -347.0 -49.75 -347.0 -49.35 -346.75 -48.95 -346.6 -48.6 -346.55 -48.25 -346.6 -47.9 -346.6 -47.55 -346.45 -47.2 -346.3 -46.85 -346.15 -46.5 -346.2 -46.1 -346.25 -44.65 -346.3 -43.55 -346.6 -43.25 -346.8 -42.85 -346.9 -42.5 -346.9 -42.1 -346.9 -41.7 -346.9 -41.4 -347.1 -41.05 -347.3 -40.65 -347.5 -40.3 -347.5 -39.95 -347.55 -39.6 -347.55 -39.25 -347.55 -38.85 -347.75 -38.5 -348.05 -38.1 -348.1 -37.85 -348.05 -37.45 -348.1 -37.1 -348.25 -36.7 -348.5 -36.35 -348.65 -36.0 -348.7 -35.65 -348.7 -35.25 -348.7 -34.95 -348.95 -34.6 -349.25 -34.25 -349.25 -33.85 -349.3 -33.5 -349.55 -33.1 -349.8 -32.75 -349.85 -32.45 -349.85 -32.1 -349.85 -31.7 -349.85 -31.35 -351.85 -27.15 Q-353.15 -24.15 -354.85 -21.35 L-354.8 -20.95 -354.85 -20.65 -355.1 -20.25 -355.5 -19.9 -355.9 -19.5 -355.95 -19.2 -356.2 -18.85 -356.6 -18.5 -357.55 -18.05 -358.45 -17.7 -358.7 -17.45 -359.15 -17.1 -359.45 -16.7 -359.5 -16.4 -359.55 -16.15 -360.2 -15.95 -360.5 -15.55 -360.9 -15.2 -361.2 -14.85 -361.3 -14.5 -361.3 -14.15 -361.3 -13.8 -361.6 -13.05 -361.75 -12.65 -361.85 -12.35 -361.9 -11.6 -361.9 -10.15 -361.9 -9.4 -362.2 -8.7 -362.3 -8.3 -362.4 -7.95 -362.4 -7.5 -362.4 -3.05 -362.35 0.35 -362.25 0.75 -362.1 1.1 -362.1 1.35 -360.85 3.6 -359.65 5.95 -359.25 6.35 -358.9 6.7 -358.65 7.15 -358.15 7.85 -357.8 8.3 -357.35 8.65 -356.65 8.95 -356.55 9.1 -355.5 10.15 -354.8 10.95 -354.75 11.7 -354.75 12.1 -354.65 12.5 -354.2 12.85 -353.45 13.15 -353.45 15.5 -353.85 15.45 -356.3 15.95 -357.4 16.15 -359.6 17.55 Q-360.2 17.7 -360.55 18.2 -361.85 18.4 -362.7 19.15 -365.05 20.3 -367.4 21.1 L-367.5 21.35 -368.6 21.5 -369.05 21.9 -369.4 22.25 -369.6 22.6 -369.75 23.0" fill="#cc3300" fill-rule="evenodd" stroke="none"/>
    <path d="M-353.45 13.15 L-352.4 12.45 -351.95 11.8 -351.85 11.05 -351.85 10.25 -352.0 9.9 Q-352.45 9.15 -353.05 8.75 L-354.35 7.85 -354.6 7.6 -355.4 6.85 -355.75 6.45 -356.0 6.05 -356.15 5.7 -356.4 5.3 -356.8 4.9 -357.1 4.6 -351.25 5.8 -350.5 6.0 -350.1 6.25 Q-349.8 6.35 -349.35 6.6 L-348.25 6.95 Q-346.95 7.8 -345.25 8.25 -342.6 9.05 -339.95 10.5 L-337.85 11.65 -336.65 12.75 -335.85 13.55 -334.9 14.35 -334.35 14.8 -333.85 15.45 -333.0 16.65 -332.25 17.95 -331.65 19.1 -331.5 19.5 -331.15 19.9 -330.85 20.25 -330.65 20.6 -330.55 21.05 -330.35 21.4 -330.15 21.85 -329.8 22.25 -329.55 22.6 -329.55 22.95 -329.45 23.35 -329.15 23.7 -328.45 24.9 -328.0 26.0 -327.4 27.2 -326.85 28.45 -326.65 28.85 -326.6 29.25 -326.55 29.65 -325.95 31.15 -325.2 33.05 -324.35 35.0 -323.75 36.55 -323.55 36.95 -323.5 37.4 -323.5 37.75 -323.2 38.5 -323.1 38.9 -322.9 39.3 -322.8 39.75 -322.55 40.1 -322.3 40.5 -322.3 40.6 -322.25 41.05 -322.25 41.4 -322.1 41.8 -321.95 42.15 -321.65 42.55 -321.3 42.95 -320.9 43.35 -320.75 43.6 -335.05 42.1 Q-337.3 35.25 -342.5 30.35 -349.75 23.85 -358.85 23.6 -358.2 23.25 -357.55 23.1 L-350.6 19.65 -350.5 19.35 -350.3 18.9 -350.2 18.5 -350.2 18.1 -350.25 17.75 -350.6 16.95 -350.85 16.6 -351.2 16.2 -351.85 15.85 Q-352.4 15.5 -352.8 15.55 L-353.45 15.5 -353.45 13.15 M-344.05 -49.9 L-344.25 -50.3 -344.3 -50.35 -340.75 -50.05 -338.35 -48.6 -336.15 -46.95 -335.85 -46.7 -335.65 -46.35 -335.35 -45.95 -334.95 -45.55 -334.65 -44.45 -334.4 -43.8 -334.05 -43.25 -333.8 -42.6 -333.7 -42.3 -333.65 -41.9 -333.65 -41.55 -333.7 -41.2 -333.6 -40.85 -333.5 -40.45 -333.4 -40.1 -333.65 -39.7 -333.8 -39.4 -333.8 -39.0 -333.8 -38.65 -334.5 -37.2 -335.4 -35.8 -335.9 -34.65 -336.2 -34.35 -336.55 -34.0 -337.0 -33.65 -337.55 -33.35 -337.6 -33.65 -337.35 -34.0 -337.2 -34.35 -337.0 -34.7 -336.95 -35.8 -336.9 -36.55 -336.9 -36.9 -336.7 -37.25 -336.5 -37.65 -336.35 -37.95 -336.3 -39.1 -336.2 -40.9 -336.15 -41.6 -336.5 -42.35 -336.65 -42.7 -337.0 -43.1 -337.6 -43.35 -338.55 -43.7 -338.55 -43.65 -339.7 -43.45 -340.2 -43.15 -340.55 -42.8 -340.85 -42.45 -341.0 -42.05 -341.15 -41.7 -341.2 -40.6 -341.25 -39.9 -341.25 -39.6 -341.55 -39.2 -341.7 -38.85 -341.85 -38.45 -341.85 -37.4 -341.9 -36.7 -341.95 -36.3 -342.1 -36.0 -342.35 -35.6 -342.5 -35.25 -342.5 -34.85 -342.5 -34.5 -342.55 -34.15 -342.55 -33.8 Q-343.1 -33.3 -343.0 -32.7 L-343.5 -31.6 -343.65 -31.25 -343.7 -30.9 -343.65 -30.55 -344.05 -29.85 -344.95 -28.0 -345.3 -27.35 -345.35 -27.0 -345.35 -26.65 Q-346.25 -24.95 -347.4 -23.45 L-348.65 -21.3 -350.9 -19.15 -354.0 -16.3 -354.8 -16.4 -353.85 -17.2 -353.05 -18.6 -352.35 -19.65 -352.4 -20.05 -352.4 -20.45 -350.65 -23.4 -348.6 -26.85 -348.6 -27.25 -348.55 -27.55 -348.3 -27.95 -348.0 -28.25 -348.0 -28.65 -347.95 -29.0 -347.7 -29.35 -347.5 -29.7 -347.45 -30.1 -347.45 -30.4 -347.4 -30.8 -347.4 -31.1 -347.2 -31.45 -347.0 -31.85 -346.8 -32.25 -346.85 -32.6 -346.8 -32.95 -346.8 -33.3 -346.55 -33.65 -346.3 -34.0 -346.25 -34.4 -346.25 -34.7 -345.95 -35.1 -345.75 -35.45 -345.65 -35.8 -345.65 -36.15 -345.7 -36.5 -345.65 -36.85 -345.5 -37.2 -345.25 -37.6 -345.1 -38.0 -345.05 -38.3 -345.05 -38.7 -345.0 -39.1 -344.75 -39.4 -344.55 -39.75 -344.45 -40.1 -344.45 -40.45 -344.4 -40.9 -344.4 -41.25 -344.2 -41.6 -344.0 -41.95 -343.85 -42.25 -343.7 -45.2 -343.6 -47.7 -343.75 -48.05 -343.95 -48.85 -344.05 -49.55 -344.05 -49.9 M-340.3 -25.8 L-340.05 -25.55 -338.95 -25.3 -338.2 -25.2 -336.5 -23.75 -335.45 -22.7 -335.1 -22.3 -335.5 -21.2 -336.05 -20.2 -336.5 -19.4 -336.65 -19.05 -336.7 -18.65 -336.7 -18.35 -337.85 -15.9 -339.15 -13.3 -339.85 -11.8 -341.85 -11.65 -342.85 -11.8 -343.1 -12.05 -343.7 -12.4 -344.35 -12.8 Q-345.4 -13.95 -346.7 -14.7 L-347.5 -15.1 -344.65 -17.45 -341.75 -23.05 -340.3 -25.8" fill="#80a839" fill-rule="evenodd" stroke="none"/>
    <path d="M-385.8 -60.0 L-385.1 -59.6 -384.4 -59.2 -384.0 -58.85 -383.55 -58.5 -383.15 -58.05 -382.0 -57.85 -381.75 -57.6 -381.4 -57.25 -379.6 -56.2 Q-377.7 -54.9 -375.55 -54.4 L-374.3 -54.15 Q-373.05 -53.5 -371.55 -53.05 L-372.8 -52.4 -373.7 -51.45 -373.85 -51.1 -374.7 -51.15 -374.75 -51.1 -375.6 -50.8 -376.5 -50.45 -379.3 -48.05 Q-381.0 -46.75 -382.3 -45.25 L-382.35 -44.85 -382.35 -44.5 -382.65 -44.15 -382.75 -44.1 -382.75 -44.35 -382.85 -44.75 -382.95 -45.1 -383.05 -45.55 -383.0 -45.85 -383.05 -46.2 -383.0 -46.55 -383.15 -46.95 -383.25 -47.3 -383.45 -47.65 -383.4 -47.95 -383.4 -48.35 -383.5 -48.7 -383.65 -49.15 -383.75 -49.45 -383.95 -50.15 -384.05 -50.55 -384.15 -50.9 -384.25 -51.25 -384.2 -51.6 -384.25 -51.95 -384.75 -53.1 Q-385.3 -54.0 -385.45 -54.9 L-385.9 -55.95 -386.1 -56.35 -386.4 -57.1 -387.1 -58.55 -387.5 -58.9 -387.85 -59.35 -388.1 -59.7 -388.3 -60.05 -388.45 -60.4 -388.85 -60.75 -389.0 -60.9 -386.8 -60.7 -386.65 -60.55 -385.8 -60.0" fill="#a6e34d" fill-rule="evenodd" stroke="none"/>
    <path d="M-366.65 -108.9 Q-365.3 -110.4 -363.4 -111.15 -361.4 -113.35 -358.8 -114.65 -356.65 -115.7 -354.5 -116.0 L-353.05 -115.85 -351.4 -115.4 -351.05 -114.95 -350.85 -114.65 -350.65 -114.25 -350.5 -113.9 -350.5 -113.5 -350.5 -113.15 -350.4 -112.75 -350.25 -112.4 -350.15 -112.0 -350.0 -111.65 -350.0 -111.25 -350.0 -110.15 -350.0 -107.9 -350.0 -107.5 -349.85 -107.15 -349.65 -106.75 -349.5 -106.4 -349.5 -106.0 -349.5 -105.65 -349.5 -105.25 -349.45 -104.9 -349.3 -104.5 -349.15 -104.15 -349.0 -103.75 -349.0 -103.4 -349.0 -103.25 Q-338.9 -102.05 -329.55 -97.45 L-324.05 -97.6 Q-316.85 -98.0 -309.95 -96.5 L-305.05 -95.5 Q-304.0 -95.3 -303.15 -94.65 L-302.9 -94.25 -302.75 -93.9 -302.65 -93.5 -302.5 -93.15 -302.5 -92.75 -302.5 -92.4 -302.5 -92.0 -302.5 -91.65 -302.9 -90.9 -303.75 -89.3 -308.25 -80.3 Q-310.6 -75.5 -313.55 -71.15 -313.1 -66.55 -313.4 -61.8 -314.7 -43.95 -328.9 -33.05 -331.45 -31.1 -334.6 -30.45 -351.45 -26.9 -366.9 -34.25 -383.15 -41.9 -388.8 -58.55 -391.4 -66.0 -390.15 -73.8 L-389.05 -77.7 Q-387.7 -82.95 -384.55 -87.35 L-384.2 -87.8 -383.9 -89.0 -383.6 -89.35 -383.3 -89.8 -382.85 -90.5 -382.65 -90.9 -382.25 -91.25 -381.9 -91.65 -381.5 -92.0 -381.4 -92.4 -381.25 -92.75 -380.9 -93.15 -380.5 -93.5 -379.75 -94.25 -379.5 -94.65 -379.05 -95.3 -378.15 -96.9 -377.75 -97.25 -377.4 -97.65 -377.0 -98.0 -376.9 -98.4 -376.75 -98.75 -376.5 -99.15 -376.15 -99.9 -371.7 -104.45 Q-369.75 -106.55 -367.4 -108.15 L-366.65 -108.9 M-347.6 -84.65 L-348.0 -85.0 -348.25 -85.4 -348.4 -85.75 -348.65 -86.15 -349.0 -86.5 -349.4 -86.9 -349.7 -87.3 -349.9 -87.65 -350.0 -88.0 -350.0 -88.4 -350.0 -88.75 -350.0 -89.15 -350.6 -90.65 -352.15 -93.95 -352.5 -95.15 -352.5 -95.5 -352.5 -95.9 -352.5 -96.25 -352.65 -96.6 -352.85 -97.0 -353.0 -97.4 -353.0 -97.55 -354.85 -97.85 -354.5 -103.7 -354.5 -103.75 -354.5 -104.15 -354.5 -104.5 -354.55 -104.85 -354.75 -105.25 -354.9 -105.65 -355.0 -106.0 -355.0 -106.4 -355.0 -107.5 -355.05 -109.75 -355.15 -110.15 -355.95 -110.05 Q-357.65 -109.4 -359.15 -108.4 L-359.3 -108.0 -359.5 -107.6 -360.6 -106.45 -360.9 -106.25 -361.25 -106.15 -362.15 -105.9 -363.3 -104.8 -365.9 -102.7 Q-367.5 -99.9 -372.1 -93.45 L-364.5 -93.15 -364.5 -93.5 -364.5 -94.25 -364.5 -95.4 -364.4 -95.75 -364.25 -96.15 -364.0 -96.5 -363.6 -96.85 -363.15 -97.25 -362.0 -97.45 -362.0 -97.5 -361.05 -97.2 -360.4 -96.9 -360.05 -96.45 -359.85 -96.15 -359.5 -95.4 -359.5 -95.0 -359.5 -94.65 -359.5 -94.25 -359.45 -93.9 -359.3 -93.5 -359.0 -92.75 -359.0 -92.0 -359.0 -90.5 -359.0 -89.75 -359.15 -89.4 -359.3 -89.0 -359.5 -88.65 -359.7 -88.35 -359.8 -88.3 -360.25 -87.9 -362.5 -88.0 -378.5 -87.05 -379.0 -86.5 -379.15 -86.0 Q-379.8 -83.5 -381.85 -82.45 -384.45 -78.05 -385.4 -72.85 -386.8 -60.95 -379.7 -50.95 -371.9 -40.0 -359.0 -35.85 -345.5 -31.45 -332.35 -36.6 -329.1 -37.9 -326.8 -40.7 L-323.4 -45.0 Q-318.0 -55.35 -317.95 -67.0 L-318.05 -70.1 -318.25 -70.4 -318.4 -70.75 -318.5 -71.15 -318.5 -71.5 -318.5 -71.9 -318.5 -72.25 -318.5 -72.65 -318.4 -72.9 Q-318.85 -75.8 -319.8 -78.65 -322.15 -85.65 -327.05 -90.15 -331.15 -94.55 -333.95 -94.45 L-334.0 -94.65 -334.0 -94.75 Q-336.45 -95.9 -339.3 -96.7 -343.6 -97.9 -347.5 -97.85 L-347.5 -97.75 -347.5 -97.4 -347.5 -97.0 -347.5 -96.65 -346.85 -95.15 Q-345.85 -93.35 -345.2 -91.4 L-345.0 -90.25 -344.55 -89.5 -343.35 -87.65 Q-342.95 -87.15 -343.0 -86.5 L-343.05 -86.15 -343.15 -85.75 -343.35 -85.35 -343.5 -85.0 -343.9 -84.65 -344.55 -84.3 -345.5 -84.0 -345.55 -84.0 -346.0 -84.05 -347.15 -84.25 -347.55 -84.6 -347.6 -84.65 M-314.75 -79.75 L-313.7 -81.6 Q-313.4 -82.15 -313.25 -82.75 L-312.9 -83.15 -312.5 -83.5 -312.4 -83.9 -312.25 -84.25 -312.05 -84.65 -311.45 -85.8 -311.25 -86.1 -310.3 -87.95 Q-309.95 -88.7 -309.9 -89.5 L-309.6 -89.85 -309.3 -90.25 -309.0 -90.65 -311.0 -91.1 Q-316.55 -92.6 -322.35 -92.6 -318.05 -88.45 -315.95 -82.35 L-315.15 -79.6 -315.0 -79.1 -314.9 -79.4 -314.75 -79.75" fill="#000000" fill-rule="evenodd" stroke="none"/>
    <path d="M-359.5 -88.65 L-359.3 -89.0 -359.15 -89.4 -359.0 -89.75 -359.0 -90.5 -359.0 -92.0 -359.0 -92.75 -359.3 -93.5 -359.45 -93.9 -359.5 -94.25 -359.5 -94.65 -359.5 -95.0 -359.5 -95.4 -359.85 -96.15 -360.05 -96.45 -360.4 -96.9 -361.05 -97.2 -362.0 -97.5 -362.0 -97.45 -363.15 -97.25 -363.6 -96.85 -364.0 -96.5 -364.25 -96.15 -364.4 -95.75 -364.5 -95.4 -364.5 -94.25 -364.5 -93.5 -364.5 -93.15 -372.1 -93.45 Q-367.5 -99.9 -365.9 -102.7 L-363.3 -104.8 -362.15 -105.9 -361.25 -106.15 -360.9 -106.25 -360.6 -106.45 -359.5 -107.6 -359.3 -108.0 -359.15 -108.4 Q-357.65 -109.4 -355.95 -110.05 L-355.15 -110.15 -355.05 -109.75 -355.0 -107.5 -355.0 -106.4 -355.0 -106.0 -354.9 -105.65 -354.75 -105.25 -354.55 -104.85 -354.5 -104.5 -354.5 -104.15 -354.5 -103.75 -354.5 -103.7 -354.85 -97.85 -353.0 -97.55 -353.0 -97.4 -352.85 -97.0 -352.65 -96.6 -352.5 -96.25 -352.5 -95.9 -352.5 -95.5 -352.5 -95.15 -352.15 -93.95 -350.6 -90.65 -350.0 -89.15 -350.0 -88.75 -350.0 -88.4 -350.0 -88.0 -349.9 -87.65 -349.7 -87.3 -349.4 -86.9 -349.0 -86.5 -348.65 -86.15 -348.4 -85.75 -348.25 -85.4 -348.0 -85.0 -347.6 -84.65 -347.6 -84.6 Q-357.7 -87.65 -359.65 -88.35 L-359.5 -88.65 M-315.15 -79.6 L-315.95 -82.35 Q-318.05 -88.45 -322.35 -92.6 -316.55 -92.6 -311.0 -91.1 L-309.0 -90.65 -309.3 -90.25 -309.6 -89.85 -309.9 -89.5 Q-309.95 -88.7 -310.3 -87.95 L-311.25 -86.1 -311.45 -85.8 -312.05 -84.65 -312.25 -84.25 -312.4 -83.9 -312.5 -83.5 -312.9 -83.15 -313.25 -82.75 Q-313.4 -82.15 -313.7 -81.6 L-314.75 -79.75 -315.15 -79.6" fill="#cc3300" fill-rule="evenodd" stroke="none"/>
    <path d="M-347.55 -84.6 L-347.15 -84.25 -346.0 -84.05 -345.55 -84.0 -345.5 -84.0 -344.55 -84.3 -343.9 -84.65 -343.5 -85.0 -343.35 -85.35 -343.15 -85.75 -343.05 -86.15 -343.0 -86.5 Q-342.95 -87.15 -343.35 -87.65 L-344.55 -89.5 -345.0 -90.25 -345.2 -91.4 Q-345.85 -93.35 -346.85 -95.15 L-347.5 -96.65 -347.5 -97.0 -347.5 -97.4 -347.5 -97.75 -347.5 -97.85 Q-343.6 -97.9 -339.3 -96.7 -336.45 -95.9 -334.0 -94.75 L-334.0 -94.65 -333.95 -94.45 Q-331.15 -94.55 -327.05 -90.15 -322.15 -85.65 -319.8 -78.65 -318.85 -75.8 -318.4 -72.9 L-318.5 -72.65 -318.5 -72.25 -318.5 -71.9 -318.5 -71.5 -318.5 -71.15 -318.4 -70.75 -318.25 -70.4 -318.05 -70.1 -317.95 -67.0 Q-318.0 -55.35 -323.4 -45.0 L-326.8 -40.7 Q-329.1 -37.9 -332.35 -36.6 -345.5 -31.45 -359.0 -35.85 -371.9 -40.0 -379.7 -50.95 -386.8 -60.95 -385.4 -72.85 -384.45 -78.05 -381.85 -82.45 -379.8 -83.5 -379.15 -86.0 L-379.0 -86.5 -378.5 -87.05 -362.5 -88.0 -360.25 -87.9 -359.8 -88.3 -359.7 -88.35 -359.65 -88.35 Q-357.7 -87.65 -347.6 -84.6 L-347.55 -84.6" fill="#b1e34d" fill-rule="evenodd" stroke="none"/>
    <path d="M-354.7 -76.35 L-354.5 -76.75 -354.25 -77.0 -354.0 -77.1 -353.5 -77.2 -353.5 -77.25 -352.45 -76.55 -351.65 -75.9 -347.85 -73.7 Q-346.6 -73.0 -345.65 -71.9 L-343.45 -70.9 -341.4 -69.6 -341.0 -69.25 -340.4 -68.95 -339.9 -68.6 -339.5 -68.25 -338.45 -67.55 -337.65 -66.9 -336.45 -66.05 -335.8 -65.55 -335.75 -66.15 -330.8 -62.75 Q-329.45 -62.4 -328.75 -61.25 L-328.75 -60.9 -328.8 -60.5 -329.05 -59.8 -329.25 -59.5 -329.5 -59.4 -330.0 -59.3 -330.5 -59.25 -332.25 -60.0 -332.4 -60.05 -332.5 -59.9 -332.75 -59.5 -332.75 -59.15 -332.75 -58.75 -333.65 -56.85 -334.25 -55.0 -335.15 -53.15 -335.5 -52.75 -336.65 -51.65 -337.25 -51.0 -339.5 -50.3 -342.5 -49.25 -345.3 -49.25 -340.45 -47.4 Q-334.5 -45.0 -328.6 -42.95 L-328.25 -42.5 -328.4 -42.15 -328.55 -41.8 -329.0 -41.4 Q-339.0 -43.25 -348.4 -47.4 -352.2 -49.05 -356.25 -50.0 L-357.4 -50.0 -358.0 -49.75 -358.5 -49.8 Q-358.9 -49.9 -359.15 -50.1 L-359.75 -50.75 -359.75 -51.15 -359.7 -51.45 -359.4 -51.9 -359.0 -52.25 -358.75 -52.45 -358.05 -52.7 -358.0 -52.75 -356.5 -52.75 Q-351.4 -51.4 -346.4 -49.6 L-347.55 -50.2 -348.25 -50.5 -350.1 -52.4 -352.0 -54.25 -352.75 -55.0 -352.9 -55.35 -353.25 -56.15 -353.75 -57.25 -353.75 -57.65 -353.75 -58.0 -353.8 -58.35 -354.0 -58.75 -354.25 -59.15 -354.25 -60.25 -354.25 -62.5 -354.25 -63.65 -354.25 -64.0 -354.2 -64.35 -354.0 -64.75 -353.75 -65.15 -353.75 -65.5 -353.75 -65.9 -353.6 -66.25 -353.4 -66.65 -353.3 -67.0 -353.25 -67.4 -353.0 -67.75 -352.8 -68.15 -352.75 -68.5 -352.4 -68.9 -351.65 -69.65 -351.25 -70.0 -350.4 -70.4 -349.0 -71.1 -348.7 -71.2 -349.35 -71.65 -349.5 -71.75 -350.25 -72.0 -351.3 -72.7 -352.75 -73.5 -353.15 -73.9 -353.4 -74.15 -353.5 -74.2 -354.2 -74.55 -354.65 -74.9 -354.7 -75.25 -354.75 -76.0 -354.7 -76.35 M-346.15 -69.15 Q-347.15 -68.5 -348.3 -68.25 -349.5 -67.95 -350.4 -67.0 L-350.6 -66.6 -350.9 -65.9 -351.25 -65.15 -351.25 -64.75 -351.25 -64.4 -351.4 -64.0 -351.6 -63.6 -351.75 -63.25 -351.75 -62.9 -351.75 -61.75 -351.75 -60.25 -351.6 -59.9 -351.4 -59.5 -351.25 -59.15 -351.25 -58.75 -351.25 -58.4 -351.2 -58.0 -351.0 -57.65 -350.75 -57.25 -350.75 -56.9 -350.65 -56.5 -350.0 -55.75 -347.4 -53.5 -347.05 -53.1 -346.75 -52.75 -346.15 -52.4 -345.4 -52.0 -342.75 -52.0 -340.5 -52.75 -338.25 -53.5 -338.05 -53.8 -339.5 -53.75 -340.2 -54.05 -340.65 -54.4 -340.7 -54.75 -340.75 -55.9 -340.75 -57.4 -340.5 -57.75 -340.15 -58.15 -339.75 -58.5 -339.0 -58.75 -338.4 -58.5 -337.65 -58.3 -337.4 -58.5 -337.3 -58.9 -337.25 -59.25 -337.25 -59.65 -337.5 -59.75 -338.15 -60.1 -338.75 -60.75 -338.7 -61.1 -338.4 -61.9 -338.15 -62.65 -337.7 -62.9 -337.05 -63.2 -337.0 -63.25 -337.4 -63.65 -337.75 -64.0 -338.05 -64.2 -338.75 -64.5 -339.15 -64.9 -339.4 -65.15 -339.5 -65.2 -340.25 -65.5 -340.65 -65.9 -341.0 -66.25 -341.4 -66.65 -342.25 -67.0 -342.65 -67.4 -342.9 -67.65 -343.0 -67.75 -344.0 -68.2 -344.75 -68.5 -345.15 -68.85 -345.5 -69.15 -346.0 -69.25 -346.05 -69.25 -346.15 -69.15 M-334.0 -39.9 L-334.5 -39.8 -336.5 -39.75 -338.5 -40.3 -339.15 -40.6 -339.75 -41.25 -339.75 -41.65 -339.7 -41.95 -339.35 -42.3 -338.55 -42.7 -338.5 -42.75 -337.0 -42.75 -334.5 -42.2 -333.95 -41.95 -333.25 -41.25 -333.3 -40.9 -333.4 -40.5 -333.65 -40.15 -334.0 -39.9 M-314.5 -61.75 L-313.45 -61.35 -312.75 -60.75 -312.8 -60.4 -312.9 -60.0 -313.15 -59.65 -315.8 -58.35 -315.95 -57.65 -316.25 -56.9 -316.25 -56.5 -316.25 -56.15 -316.25 -55.4 -316.55 -54.65 -317.1 -53.5 -317.25 -53.15 -317.25 -52.75 -317.25 -52.4 -318.1 -50.45 -319.0 -48.25 -319.4 -47.9 -319.75 -47.5 -320.15 -47.15 -320.3 -46.75 -320.5 -46.4 -320.9 -46.05 -321.5 -45.75 -322.5 -45.75 -323.25 -46.05 -323.65 -46.4 -323.8 -49.4 -323.75 -52.4 -323.75 -52.75 -323.6 -53.1 -323.4 -53.5 -323.25 -53.9 -323.25 -54.25 -323.25 -54.65 -323.25 -55.0 -323.2 -55.35 -323.0 -55.75 -322.75 -56.15 -322.75 -56.5 -322.75 -56.9 -322.5 -57.25 -322.25 -57.65 -322.25 -58.0 -322.25 -58.4 -322.0 -58.75 -321.8 -59.15 -321.75 -59.5 -321.05 -60.3 Q-320.65 -60.75 -320.0 -60.7 L-320.0 -60.75 -319.45 -60.45 -319.15 -60.2 -316.0 -61.2 -314.5 -61.75 M-318.75 -57.0 L-318.75 -57.3 -319.0 -57.25 -319.75 -57.5 -319.75 -57.15 -319.75 -56.75 -320.0 -56.4 -320.15 -56.15 -320.05 -56.2 -320.0 -56.25 -318.95 -55.85 -318.8 -55.75 -318.75 -55.9 -318.75 -56.25 -318.75 -57.0 M-320.0 -53.35 L-320.75 -53.55 -320.75 -53.0 -320.9 -52.65 -321.05 -52.25 -321.25 -51.9 -321.25 -51.5 -321.25 -50.75 -321.25 -50.15 Q-320.85 -50.7 -320.55 -51.4 L-319.85 -52.9 -319.75 -53.25 -319.75 -53.3 -320.0 -53.35" fill="#000000" fill-rule="evenodd" stroke="none"/>
    <path d="M-346.15 -69.15 L-346.05 -69.25 -346.0 -69.25 -345.5 -69.15 -345.15 -68.85 -344.75 -68.5 -344.0 -68.2 -343.0 -67.75 -342.9 -67.65 -342.65 -67.4 -342.25 -67.0 -341.4 -66.65 -341.0 -66.25 -340.65 -65.9 -340.25 -65.5 -339.5 -65.2 -339.4 -65.15 -339.15 -64.9 -338.75 -64.5 -338.05 -64.2 -337.75 -64.0 -337.4 -63.65 -337.0 -63.25 -337.05 -63.2 -337.7 -62.9 -338.15 -62.65 -338.4 -61.9 -338.7 -61.1 -338.75 -60.75 -338.15 -60.1 -337.5 -59.75 -337.25 -59.65 -337.25 -59.25 -337.3 -58.9 -337.4 -58.5 -337.65 -58.3 -338.4 -58.5 -339.0 -58.75 -339.75 -58.5 -340.15 -58.15 -340.5 -57.75 -340.75 -57.4 -340.75 -55.9 -340.7 -54.75 -340.65 -54.4 -340.2 -54.05 -339.5 -53.75 -338.05 -53.8 -338.25 -53.5 -340.5 -52.75 -342.75 -52.0 -345.4 -52.0 -346.15 -52.4 -346.75 -52.75 -347.05 -53.1 -347.4 -53.5 -350.0 -55.75 -350.65 -56.5 -350.75 -56.9 -350.75 -57.25 -351.0 -57.65 -351.2 -58.0 -351.25 -58.4 -351.25 -58.75 -351.25 -59.15 -351.4 -59.5 -351.6 -59.9 -351.75 -60.25 -351.75 -61.75 -351.75 -62.9 -351.75 -63.25 -351.6 -63.6 -351.4 -64.0 -351.25 -64.4 -351.25 -64.75 -351.25 -65.15 -350.9 -65.9 -350.6 -66.6 -350.4 -67.0 Q-349.5 -67.95 -348.3 -68.25 -347.15 -68.5 -346.15 -69.15 M-320.0 -53.35 L-319.75 -53.3 -319.75 -53.25 -319.85 -52.9 -320.55 -51.4 Q-320.85 -50.7 -321.25 -50.15 L-321.25 -50.75 -321.25 -51.5 -321.25 -51.9 -321.05 -52.25 -320.9 -52.65 -320.75 -53.0 -320.75 -53.55 -320.0 -53.35 M-318.75 -57.0 L-318.75 -56.25 -318.75 -55.9 -318.8 -55.75 -318.95 -55.85 -320.0 -56.25 -320.05 -56.2 -320.15 -56.15 -320.0 -56.4 -319.75 -56.75 -319.75 -57.15 -319.75 -57.5 -319.0 -57.25 -318.75 -57.3 -318.75 -57.0" fill="#ffffff" fill-rule="evenodd" stroke="none"/>
  </g>
</svg>
