<?xml version="1.0" encoding="UTF-8" standalone="no"?>
<svg xmlns:ffdec="https://www.free-decompiler.com/flash" xmlns:xlink="http://www.w3.org/1999/xlink" ffdec:objectType="shape" height="162.0px" width="152.5px" xmlns="http://www.w3.org/2000/svg">
  <g transform="matrix(1.0, 0.0, 0.0, 1.0, 76.25, 81.0)">
    <path d="M16.25 -58.5 L11.6 -65.9 30.25 -67.0 21.75 -57.5 16.25 -58.5 M34.7 -1.2 L22.5 15.65 30.25 -67.0 43.75 -81.0 34.7 -1.2 M-63.25 20.5 L-59.75 31.0 13.35 15.15 2.55 30.45 -65.25 40.5 -76.25 20.5 -63.25 20.5" fill="#666666" fill-rule="evenodd" stroke="none"/>
    <path d="M16.25 -58.5 L21.75 -57.5 13.35 15.1 13.35 15.15 13.35 15.2 7.25 63.5 -5.25 81.0 2.55 30.45 13.35 15.15 5.95 8.4 16.25 -58.5 M7.0 -73.25 L11.6 -65.9 -63.25 20.5 -76.25 20.5 7.0 -73.25" fill="#ffffff" fill-rule="evenodd" stroke="none"/>
    <path d="M7.25 63.5 L18.25 60.5 32.45 76.0 -5.25 81.0 7.25 63.5 M58.25 9.0 L58.3 9.0 76.25 -16.0 69.75 20.45 69.75 20.5 58.25 9.0" fill="#333333" fill-rule="evenodd" stroke="none"/>
    <path d="M21.75 -57.5 L30.25 -67.0 11.6 -65.9 16.25 -58.5 -51.25 22.5 5.95 8.4 13.35 15.15 13.35 15.1 21.75 -57.5 M7.25 63.5 L13.35 15.2 13.35 15.15 -59.75 31.0 -63.25 20.5 11.6 -65.9 7.0 -73.25 43.75 -81.0 30.25 -67.0 22.5 15.65 34.7 -1.2 76.2 -15.95 76.25 -16.0 58.3 9.0 58.25 9.0 22.55 15.7 22.5 15.7 22.45 16.0 18.25 60.5 7.25 63.5" fill="#b6b6b6" fill-rule="evenodd" stroke="none"/>
    <path d="M18.25 60.5 L22.45 16.0 22.5 15.7 22.55 15.7 58.25 9.0 69.75 20.5 32.45 26.05 32.45 76.0 18.25 60.5" fill="#555555" fill-rule="evenodd" stroke="none"/>
  </g>
</svg>
