<?xml version="1.0" encoding="UTF-8" standalone="no"?>
<svg xmlns:ffdec="https://www.free-decompiler.com/flash" xmlns:xlink="http://www.w3.org/1999/xlink" ffdec:objectType="shape" height="202.05px" width="143.15px" xmlns="http://www.w3.org/2000/svg">
  <g transform="matrix(1.0, 0.0, 0.0, 1.0, 445.15, 115.5)">
    <path d="M-390.4 33.35 L-390.0 33.0 -389.6 32.75 -389.25 32.65 -388.5 32.5 Q-384.7 32.35 -381.7 34.5 L-379.65 35.85 -379.4 36.25 -379.25 36.6 -379.0 37.0 -378.25 37.75 -377.15 38.85 -376.0 40.0 -374.25 43.0 Q-372.65 45.85 -371.65 49.0 L-371.5 49.35 -371.5 49.75 -371.5 50.1 -371.3 50.5 -371.15 50.85 -371.0 51.25 -371.0 52.35 -371.0 54.6 -371.0 57.25 -372.15 59.9 Q-373.75 63.1 -376.5 65.5 -382.4 75.6 -394.35 77.9 -404.7 79.85 -415.15 77.75 L-417.55 76.1 -421.4 73.6 Q-421.95 73.0 -422.65 72.55 L-425.9 70.6 -426.25 70.25 -426.65 69.85 -427.0 69.5 -427.4 69.1 -427.75 68.75 -427.9 68.35 -428.05 68.0 -428.25 67.6 -428.4 67.25 -428.65 66.85 -429.0 66.5 -429.4 66.1 -429.75 65.75 -429.9 65.35 -430.0 65.0 -430.4 64.6 -430.75 64.25 Q-430.9 63.6 -431.2 63.1 L-432.35 60.85 Q-432.75 59.85 -433.4 59.0 -433.5 58.4 -433.75 57.9 L-434.7 55.6 -435.5 53.35 -435.5 53.0 -435.5 52.6 -435.8 51.85 -436.15 50.7 -437.0 48.5 -437.0 48.1 -437.0 47.75 -437.15 47.4 -437.35 47.0 -437.5 46.6 -437.5 46.25 -437.5 45.85 -437.65 45.5 -437.9 44.75 -438.15 44.0 -438.5 42.85 -438.5 42.1 -438.5 40.6 -438.5 38.0 -438.55 37.65 -438.75 37.25 -438.9 36.85 -439.0 36.5 -439.0 33.5 -439.0 27.5 -439.0 25.6 -438.5 24.1 Q-437.9 22.35 -436.95 20.7 L-436.25 19.25 -435.5 18.5 -434.0 17.0 -432.9 15.85 -432.0 15.45 -431.65 15.25 -431.25 15.15 -430.5 15.05 -430.5 15.0 -428.05 15.35 Q-426.9 15.6 -425.9 16.1 L-425.55 16.5 -425.35 16.85 -425.15 17.25 -425.0 17.6 -425.0 18.0 -425.0 18.75 -425.0 19.5 -425.0 20.6 -425.15 21.0 -425.25 21.35 -425.4 21.75 -425.6 22.15 -426.0 22.85 -426.0 23.25 -426.0 23.6 -426.15 24.0 -426.4 24.75 -426.8 25.5 -427.5 27.0 -427.5 27.35 -427.5 27.75 -427.5 28.1 -427.5 28.5 -427.5 28.85 -427.4 29.25 -427.25 29.6 -427.15 30.0 -427.0 30.35 -427.0 30.75 -427.0 31.1 -426.75 31.5 -426.4 32.25 -426.15 33.0 -425.75 34.1 -425.5 34.5 -424.95 35.3 -424.3 36.3 Q-423.95 36.85 -424.0 37.5 L-423.65 37.85 -423.25 38.25 -422.9 38.6 -422.5 39.0 -422.15 39.35 -421.9 39.75 -421.75 40.1 -421.5 40.5 Q-418.85 44.15 -414.5 44.95 -411.75 45.5 -409.0 44.5 L-408.5 44.5 -407.75 44.6 Q-404.95 43.85 -402.4 42.3 L-398.4 39.35 -397.65 38.95 -397.15 38.6 -396.75 38.25 -396.4 37.85 Q-395.25 37.4 -394.3 36.7 L-390.9 34.1 -390.7 33.75 -390.4 33.35 M-431.4 21.65 L-432.75 24.15 -434.0 26.85 -434.0 30.6 -434.0 34.35 -433.75 35.1 -433.5 35.85 -433.5 38.5 -433.5 41.1 -433.5 41.5 -432.95 42.6 Q-432.65 43.1 -432.5 43.75 L-432.5 44.1 -432.5 44.5 -432.5 44.85 -432.25 45.6 -432.0 46.35 -432.0 46.75 -432.0 47.1 Q-430.4 52.3 -428.35 57.3 -426.9 60.9 -424.5 64.0 L-423.55 65.15 -423.15 65.85 -419.9 68.15 -419.5 68.5 Q-416.7 70.3 -414.0 72.2 L-413.4 72.6 Q-399.25 75.8 -386.9 68.85 -384.7 68.05 -383.2 66.25 L-382.5 65.5 -382.25 64.75 -381.85 64.0 -381.65 63.6 -380.9 62.85 -380.5 62.5 -380.4 62.1 -380.25 61.75 -378.75 60.25 -378.0 59.5 -377.0 57.15 -376.0 55.35 -376.0 54.25 -376.0 53.1 -376.0 52.75 -377.3 48.95 -378.5 46.0 -378.9 45.6 -379.25 45.25 -379.4 44.85 -379.5 44.5 -379.9 44.1 -380.25 43.75 -380.4 43.35 -380.5 43.0 -382.4 41.1 -383.15 40.35 -383.35 40.0 -383.5 39.6 -385.15 38.55 -385.65 38.25 -387.0 38.25 Q-391.85 41.1 -396.3 44.55 L-397.0 45.0 Q-407.0 53.0 -419.65 49.25 L-420.65 48.55 -421.4 48.1 -424.4 45.1 -425.5 44.0 -425.75 43.6 -425.9 43.25 -426.15 42.85 -426.9 42.1 -427.25 41.75 -427.4 41.35 -427.5 41.0 -428.25 40.25 -428.65 39.85 -429.0 39.1 -429.35 38.35 -429.5 38.0 -429.9 37.6 -430.25 37.25 -431.45 33.9 -432.5 30.85 -432.5 27.85 -432.5 24.85 -432.0 23.65 -431.15 22.6 -431.05 21.85 -431.05 21.25 -431.15 21.2 -431.15 21.25 -431.4 21.65" fill="#000000" fill-rule="evenodd" stroke="none"/>
    <path d="M-431.05 21.85 L-431.15 22.6 -432.0 23.65 -432.5 24.85 -432.5 27.85 -432.5 30.85 -431.45 33.9 -430.25 37.25 -429.9 37.6 -429.5 38.0 -429.35 38.35 -429.0 39.1 -428.65 39.85 -428.25 40.25 -427.5 41.0 -427.4 41.35 -427.25 41.75 -426.9 42.1 -426.15 42.85 -425.9 43.25 -425.75 43.6 -425.5 44.0 -424.4 45.1 -421.4 48.1 -420.65 48.55 -419.65 49.25 Q-407.0 53.0 -397.0 45.0 L-396.3 44.55 Q-391.85 41.1 -387.0 38.25 L-385.65 38.25 -385.15 38.55 -383.5 39.6 -383.35 40.0 -383.15 40.35 -382.4 41.1 -380.5 43.0 -380.4 43.35 -380.25 43.75 -379.9 44.1 -379.5 44.5 -379.4 44.85 -379.25 45.25 -378.9 45.6 -378.5 46.0 -377.3 48.95 -376.0 52.75 -376.0 53.1 -376.0 54.25 -376.0 55.35 -377.0 57.15 -378.0 59.5 -378.75 60.25 -380.25 61.75 -380.4 62.1 -380.5 62.5 -380.9 62.85 -381.65 63.6 -381.85 64.0 -382.25 64.75 -382.5 65.5 -383.2 66.25 Q-384.7 68.05 -386.9 68.85 -399.25 75.8 -413.4 72.6 L-414.0 72.2 Q-416.7 70.3 -419.5 68.5 L-419.9 68.15 -423.15 65.85 -423.55 65.15 -424.5 64.0 Q-426.9 60.9 -428.35 57.3 -430.4 52.3 -432.0 47.1 L-432.0 46.75 -432.0 46.35 -432.25 45.6 -432.5 44.85 -432.5 44.5 -432.5 44.1 -432.5 43.75 Q-432.65 43.1 -432.95 42.6 L-433.5 41.5 -433.5 41.1 -433.5 38.5 -433.5 35.85 -433.75 35.1 -434.0 34.35 -434.0 30.6 -434.0 26.85 -432.75 24.15 -431.4 21.65 -431.05 21.85" fill="#80a839" fill-rule="evenodd" stroke="none"/>
    <path d="M-407.65 -94.8 L-407.1 -95.05 -403.1 -95.5 -401.55 -95.65 Q-401.3 -95.75 -401.1 -95.9 L-400.7 -96.1 -400.25 -96.1 -399.5 -96.0 -399.5 -96.05 -398.65 -95.55 -398.1 -95.1 Q-397.65 -94.35 -397.55 -93.4 L-397.25 -91.05 -397.2 -90.65 -397.3 -90.3 -397.35 -89.9 -397.45 -89.55 -397.45 -89.1 -397.15 -88.0 Q-396.9 -87.35 -397.1 -86.75 L-396.85 -86.3 -396.7 -85.85 -394.8 -76.85 Q-394.1 -73.15 -391.9 -70.1 L-391.65 -68.9 -390.95 -66.7 -390.85 -66.45 Q-389.9 -64.55 -388.65 -63.1 L-387.05 -60.85 -386.9 -60.4 -386.9 -60.05 -386.8 -59.25 -386.95 -58.85 -387.15 -58.55 -387.6 -57.9 -388.0 -57.65 Q-388.25 -57.45 -388.55 -57.35 L-389.1 -57.25 -389.85 -57.3 -390.3 -57.45 -391.35 -57.9 -391.8 -58.4 -400.55 -60.75 -401.35 -60.55 Q-402.45 -59.8 -403.7 -59.6 -404.75 -59.5 -405.5 -58.9 L-406.75 -57.25 -408.25 -54.85 -408.45 -54.6 -408.55 -54.25 -408.65 -53.85 -408.85 -53.5 -409.05 -53.2 -409.5 -52.5 -410.0 -50.3 -410.8 -47.05 -410.95 -46.35 -411.2 -46.0 -411.4 -45.65 -411.75 -45.0 -411.85 -44.6 -412.05 -43.85 -412.3 -42.8 -412.3 -42.4 -412.3 -42.0 -412.2 -41.25 -412.3 -40.85 -412.45 -40.1 -412.75 -39.05 -412.95 -38.7 -413.15 -38.4 -413.35 -38.05 Q-413.5 -37.85 -413.7 -37.75 L-414.2 -37.45 -414.6 -37.25 -414.95 -37.25 -415.7 -37.35 Q-416.05 -37.4 -416.4 -37.6 L-418.65 -37.75 -420.75 -38.3 -423.05 -40.9 -424.35 -42.65 -424.4 -43.0 -424.55 -43.4 -424.65 -43.8 -425.75 -45.6 -427.15 -47.9 -427.45 -49.15 -427.9 -51.15 -428.05 -51.6 -428.05 -52.0 -428.0 -52.35 -427.9 -52.7 -427.95 -53.1 -427.95 -53.5 -428.05 -54.3 -427.95 -54.6 -427.85 -55.0 -428.05 -55.4 -428.2 -56.55 -428.2 -57.8 -428.1 -58.15 -428.05 -58.5 -428.1 -58.9 -428.2 -59.35 -428.25 -59.7 -428.2 -60.05 -428.1 -60.45 -427.9 -61.2 -427.85 -61.5 -427.9 -61.9 -428.0 -62.35 -428.05 -62.8 -426.85 -67.9 -425.45 -73.7 -425.35 -74.05 -425.15 -74.4 -424.95 -74.65 -424.6 -75.0 -424.5 -75.35 -424.35 -76.1 -424.05 -77.2 -423.9 -77.55 -423.65 -77.85 -423.2 -78.55 -423.15 -78.9 -423.05 -79.3 -422.95 -79.6 -419.35 -84.45 -415.55 -89.05 -415.5 -89.4 -415.4 -89.8 -415.15 -90.05 -414.6 -90.7 -414.0 -91.3 -411.3 -93.05 Q-410.05 -93.9 -408.55 -94.25 L-408.1 -94.55 -407.65 -94.8 M-396.15 -65.65 L-396.3 -66.0 -396.35 -66.4 -396.55 -67.25 -396.6 -67.65 -396.9 -68.1 -397.15 -68.5 -397.2 -68.95 -397.2 -69.35 -397.75 -70.2 -398.3 -71.15 -398.85 -72.0 -398.95 -72.45 -398.95 -72.8 -399.25 -73.3 -399.45 -73.75 -399.95 -76.5 Q-400.3 -78.75 -400.95 -81.0 L-401.2 -82.6 -401.5 -83.05 -401.75 -83.5 -402.1 -85.05 -402.45 -87.15 -402.75 -89.1 -402.65 -89.5 -402.55 -89.85 -402.55 -90.0 -402.95 -90.2 -403.25 -90.2 Q-405.5 -90.15 -407.45 -89.1 -408.8 -88.35 -410.2 -87.85 L-410.55 -87.5 -410.75 -87.2 -410.95 -86.9 -411.05 -86.5 -411.1 -86.15 -411.7 -85.5 -412.2 -84.85 -412.85 -83.9 -413.25 -83.2 -413.6 -82.9 -414.2 -82.6 -415.7 -81.0 -417.35 -78.75 -418.35 -77.5 -418.45 -77.15 -418.5 -76.75 -418.6 -76.45 -418.7 -76.05 -418.8 -75.7 -419.0 -75.3 -419.3 -75.0 -419.55 -74.7 -419.65 -74.35 -419.7 -73.95 -419.8 -73.6 -419.9 -73.25 -420.05 -72.5 -420.3 -72.2 -420.55 -71.8 -420.85 -71.55 -421.45 -68.95 -422.3 -65.3 -422.85 -63.15 -422.8 -62.8 -422.65 -62.35 -422.6 -61.95 -422.7 -61.6 -422.8 -61.25 -422.85 -60.85 -422.95 -60.5 -423.05 -60.15 -423.0 -59.75 -422.85 -59.3 -422.8 -58.95 -422.9 -58.55 -423.0 -58.25 -422.9 -57.4 -422.85 -56.6 -422.8 -55.45 -422.75 -55.05 -422.8 -54.7 -422.9 -54.35 -422.8 -53.9 -422.75 -53.5 -422.65 -53.1 -422.75 -52.8 -422.85 -52.4 Q-422.35 -51.6 -422.25 -50.7 -422.0 -49.3 -421.15 -48.05 L-420.25 -46.8 -420.1 -46.3 -420.05 -45.95 -419.9 -45.5 -419.25 -44.65 -418.25 -43.65 -417.35 -43.25 -417.05 -44.35 -416.7 -45.8 -416.35 -47.25 -416.25 -47.65 -416.15 -47.95 -415.9 -48.25 -415.7 -48.6 -415.45 -48.95 -415.1 -50.4 -414.7 -52.2 -414.05 -54.75 -413.9 -55.1 -413.65 -55.45 -413.45 -55.8 -413.2 -56.1 -413.15 -56.45 -413.05 -56.85 -412.95 -57.2 -412.55 -57.85 -412.15 -58.55 -411.4 -59.5 -411.3 -59.85 -411.2 -60.25 -410.8 -60.85 -410.25 -61.55 -409.45 -62.5 -409.15 -62.85 Q-405.65 -64.8 -401.7 -65.8 -398.9 -66.55 -396.2 -65.3 L-395.9 -65.15 -396.15 -65.65" fill="#000000" fill-rule="evenodd" stroke="none"/>
    <path d="M-396.2 -65.3 Q-398.9 -66.55 -401.7 -65.8 -405.65 -64.8 -409.15 -62.85 L-409.45 -62.5 -410.25 -61.55 -410.8 -60.85 -411.2 -60.25 -411.3 -59.85 -411.4 -59.5 -412.15 -58.55 -412.55 -57.85 -412.95 -57.2 -413.05 -56.85 -413.15 -56.45 -413.2 -56.1 -413.45 -55.8 -413.65 -55.45 -413.9 -55.1 -414.05 -54.75 -414.7 -52.2 -415.1 -50.4 -415.45 -48.95 -415.7 -48.6 -415.9 -48.25 -416.15 -47.95 -416.25 -47.65 -416.35 -47.25 -416.7 -45.8 -417.05 -44.35 -417.35 -43.25 -418.25 -43.65 -419.25 -44.65 -419.9 -45.5 -420.05 -45.95 -420.1 -46.3 -420.25 -46.8 -421.15 -48.05 Q-422.0 -49.3 -422.25 -50.7 -422.35 -51.6 -422.85 -52.4 L-422.75 -52.8 -422.65 -53.1 -422.75 -53.5 -422.8 -53.9 -422.9 -54.35 -422.8 -54.7 -422.75 -55.05 -422.8 -55.45 -422.85 -56.6 -422.9 -57.4 -423.0 -58.25 -422.9 -58.55 -422.8 -58.95 -422.85 -59.3 -423.0 -59.75 -423.05 -60.15 -422.95 -60.5 -422.85 -60.85 -422.8 -61.25 -422.7 -61.6 -422.6 -61.95 -422.65 -62.35 -422.8 -62.8 -422.85 -63.15 -422.3 -65.3 -421.45 -68.95 -420.85 -71.55 -420.55 -71.8 -420.3 -72.2 -420.05 -72.5 -419.9 -73.25 -419.8 -73.6 -419.7 -73.95 -419.65 -74.35 -419.55 -74.7 -419.3 -75.0 -419.0 -75.3 -418.8 -75.7 -418.7 -76.05 -418.6 -76.45 -418.5 -76.75 -418.45 -77.15 -418.35 -77.5 -417.35 -78.75 -415.7 -81.0 -414.2 -82.6 -413.6 -82.9 -413.25 -83.2 -412.85 -83.9 -412.2 -84.85 -411.7 -85.5 -411.1 -86.15 -411.05 -86.5 -410.95 -86.9 -410.75 -87.2 -410.55 -87.5 -410.2 -87.85 Q-408.8 -88.35 -407.45 -89.1 -405.5 -90.15 -403.25 -90.2 L-402.95 -90.2 -402.55 -90.0 -402.55 -89.85 -402.65 -89.5 -402.75 -89.1 -402.45 -87.15 -402.1 -85.05 -401.75 -83.5 -401.5 -83.05 -401.2 -82.6 -400.95 -81.0 Q-400.3 -78.75 -399.95 -76.5 L-399.45 -73.75 -399.25 -73.3 -398.95 -72.8 -398.95 -72.45 -398.85 -72.0 -398.3 -71.15 -397.75 -70.2 -397.2 -69.35 -397.2 -68.95 -397.15 -68.5 -396.9 -68.1 -396.6 -67.65 -396.55 -67.25 -396.35 -66.4 -396.3 -66.0 -396.15 -65.65 -396.2 -65.3" fill="#80a839" fill-rule="evenodd" stroke="none"/>
    <path d="M-436.1 -77.95 L-435.15 -78.35 -434.55 -78.6 -433.8 -79.0 -432.65 -79.2 -432.6 -79.2 -432.15 -79.25 -430.6 -78.95 Q-429.2 -78.75 -427.8 -78.0 -417.0 -77.2 -406.45 -73.9 -399.2 -71.7 -393.85 -66.7 L-392.55 -65.5 -391.4 -64.5 -391.0 -64.1 -390.35 -63.35 -390.05 -63.05 -390.0 -63.35 -389.8 -63.7 -389.5 -64.05 -389.1 -64.4 -388.6 -64.75 -387.5 -64.9 -387.45 -64.95 Q-382.3 -65.6 -378.35 -62.3 -377.2 -61.2 -375.45 -60.05 L-373.25 -58.65 Q-367.95 -57.2 -362.3 -56.5 L-340.55 -54.6 Q-336.45 -54.35 -332.95 -52.2 -330.7 -50.9 -329.4 -48.5 -328.25 -46.25 -327.4 -43.65 L-327.4 -43.3 -327.45 -42.9 -327.45 -42.55 -327.5 -42.2 -327.45 -41.85 -327.35 -41.5 -327.2 -41.15 -327.15 -40.8 -327.15 -40.5 -327.15 -39.7 -327.25 -38.95 -327.3 -38.25 -327.35 -37.85 -327.55 -37.5 -328.35 -35.85 -329.6 -33.7 -330.75 -31.55 -331.55 -30.8 -333.95 -28.8 -332.5 -27.6 Q-331.15 -26.05 -329.0 -25.0 L-328.8 -24.65 -328.6 -24.3 -328.5 -23.95 -328.4 -23.55 -328.45 -23.2 -328.6 -22.8 -328.7 -22.5 -329.0 -21.75 -329.0 -21.35 -329.05 -21.05 Q-330.05 -19.8 -330.65 -18.2 L-332.75 -13.55 Q-333.5 -12.35 -334.05 -10.6 L-334.3 -10.25 -334.65 -9.9 -334.7 -9.6 -334.85 -9.25 -335.05 -8.85 -335.2 -8.5 Q-340.1 -3.9 -346.1 -7.85 L-349.35 -10.35 -350.1 -10.45 -351.25 -10.75 -351.7 -11.15 -351.8 -11.25 -356.4 -11.05 -356.55 -10.7 -356.6 -9.95 -356.65 -8.5 -356.75 -7.4 -356.9 -7.05 -357.05 -6.65 -357.2 -6.35 -357.3 -3.75 -357.4 -0.5 -357.4 -0.4 Q-351.75 -0.4 -346.55 1.95 -342.4 3.65 -338.3 5.8 L-335.8 6.8 Q-334.05 7.85 -332.5 9.55 L-329.55 12.75 -329.1 13.2 -327.0 17.15 Q-324.95 20.3 -323.5 23.6 -321.35 28.45 -319.4 33.75 L-319.35 34.15 -319.3 34.5 -319.1 34.9 -318.9 35.3 -318.8 35.7 -318.65 36.05 -318.5 36.5 -318.15 37.3 -318.1 37.65 -318.1 38.05 -318.05 38.4 -318.0 38.8 -318.0 39.05 -314.95 41.0 -311.75 43.75 -311.55 44.15 -311.3 44.55 -311.0 45.0 -311.0 45.4 -311.0 45.75 -310.95 46.1 -310.95 46.45 -311.15 46.85 -311.2 47.2 -311.3 47.6 -311.55 47.95 -311.95 48.35 -312.2 48.65 Q-326.35 51.6 -339.55 45.1 L-339.65 44.7 -339.85 43.9 -339.85 43.35 -340.15 43.05 -340.4 42.6 -340.55 42.2 -340.75 41.8 -341.1 41.05 -341.4 40.25 -341.85 39.1 -342.1 38.75 -342.55 38.3 -342.7 37.9 -342.9 37.55 -343.1 37.1 -343.3 36.75 -343.55 36.25 -343.85 35.9 -344.8 35.1 -346.0 33.9 -347.15 32.75 -347.6 32.3 -348.35 32.0 Q-349.25 31.55 -349.9 31.35 L-352.2 30.35 -352.9 30.0 -356.4 29.35 -360.6 28.5 -361.05 28.1 -361.45 27.7 -361.8 27.25 -361.95 26.9 -362.1 26.5 -362.1 26.15 -362.15 25.7 -362.05 25.35 -362.05 25.25 Q-362.7 25.35 -363.1 25.75 -363.2 25.65 -363.2 25.8 L-363.15 25.95 -363.15 26.35 -363.1 26.75 -363.1 27.15 -362.9 27.5 -362.65 27.9 -362.45 28.3 -362.45 28.75 -362.4 29.1 -362.4 29.5 -362.05 30.3 -361.25 31.9 -360.6 33.1 -360.55 33.5 -360.55 33.85 -360.4 34.25 -360.25 34.65 -360.1 35.05 -359.95 35.4 -359.85 36.2 -359.8 37.0 -359.75 38.15 -359.5 38.65 -359.3 39.05 -359.1 39.4 -359.05 39.8 -359.05 40.15 -358.9 40.6 -358.75 41.0 -358.55 41.4 -358.4 41.75 -358.35 42.15 -358.35 42.55 -358.3 43.0 -358.15 43.35 -357.9 43.75 -357.7 44.15 -357.65 44.9 -357.55 46.5 -357.4 48.1 -357.25 48.5 -357.1 48.9 -356.95 49.3 -356.8 49.65 -356.6 51.65 -356.4 54.8 -356.3 55.55 -356.1 55.95 -355.9 56.35 -355.7 56.75 -355.5 59.9 -355.15 64.2 -355.1 64.55 -355.25 65.0 -355.35 65.35 -355.45 65.75 -355.55 66.1 -355.45 67.7 -355.25 70.4 -355.15 71.55 -355.3 71.95 -355.5 72.35 -355.6 72.75 -355.5 74.3 -355.4 76.6 -355.35 77.75 -355.5 78.15 -355.7 78.55 -355.8 78.9 -355.85 79.05 Q-355.3 79.25 -354.65 79.75 L-354.05 80.15 Q-352.9 80.3 -351.65 81.0 L-351.25 81.45 -350.75 82.6 -350.7 82.95 -350.7 83.3 -350.8 83.7 -351.15 84.45 Q-357.4 86.55 -363.8 86.55 -368.3 86.55 -372.8 85.55 L-376.2 84.7 -377.7 84.2 -378.2 83.8 -379.3 82.65 -379.45 82.35 -380.1 82.45 -381.25 82.2 -381.7 81.8 Q-381.95 81.5 -382.15 81.45 L-382.45 81.0 -382.6 80.65 -382.85 80.2 -383.1 79.85 -383.35 77.9 -383.45 74.85 -383.6 72.1 -383.55 71.7 -383.4 71.35 -383.2 70.9 -383.2 70.55 -383.2 70.15 -383.15 69.75 -383.0 69.35 -382.95 69.0 -382.85 68.6 -382.9 67.45 -383.05 65.45 -383.25 63.05 -383.4 62.7 -383.5 62.3 -383.7 61.9 -383.8 61.5 -383.85 61.1 -383.9 60.7 -384.15 60.35 -384.35 59.9 -384.45 59.55 -384.5 59.1 -384.5 58.7 -384.55 58.3 -384.75 57.95 -384.85 57.5 -385.05 57.1 -385.15 56.7 -385.25 56.35 -385.25 55.9 -385.55 55.5 -385.7 55.1 -385.85 54.75 -385.85 54.35 -385.9 53.95 -385.95 53.55 -386.15 53.1 -386.25 52.7 -386.45 52.35 -387.0 51.55 -387.1 51.1 -387.2 50.7 -387.2 50.3 -387.5 49.55 -388.0 48.35 -388.6 47.05 -388.95 46.7 -389.5 44.6 -390.85 41.85 Q-391.45 40.85 -391.65 39.85 L-391.95 39.45 -392.3 39.0 -392.6 38.6 -392.75 38.2 -392.75 37.85 -392.8 37.4 -393.15 36.6 -393.85 35.35 -394.3 34.5 Q-395.5 34.05 -396.55 33.0 L-398.15 31.25 -398.3 30.85 -398.45 30.5 -398.85 30.1 -399.25 29.7 -399.4 29.25 -399.6 28.85 -400.0 28.4 Q-400.25 28.15 -400.4 28.05 L-401.15 27.25 -401.25 26.8 -401.25 26.45 -401.3 26.4 -401.9 25.2 -402.1 24.8 -402.6 24.35 -402.95 24.0 -405.75 19.95 Q-407.25 18.0 -408.05 15.9 L-408.45 15.45 -408.9 15.1 -409.2 14.25 -410.3 12.65 -410.55 12.3 -410.75 11.9 -410.85 11.45 -411.05 11.1 -411.3 10.75 -411.65 10.3 -414.65 4.35 Q-416.0 2.0 -416.7 -0.5 L-416.8 -1.1 -416.8 -1.45 -416.85 -1.8 -416.85 -2.15 -417.3 -3.3 -418.0 -5.45 -418.25 -6.3 -418.25 -6.7 -418.25 -7.1 -418.3 -7.8 -418.25 -8.15 -418.4 -8.5 -418.55 -8.9 -418.7 -9.3 -418.45 -15.1 -418.1 -21.5 -417.9 -21.8 -417.65 -22.2 -417.5 -22.55 -417.5 -22.9 -417.5 -23.25 -417.45 -23.65 -417.3 -23.95 -417.1 -24.35 -416.8 -25.05 -416.85 -25.3 -416.75 -25.7 -416.6 -26.0 -416.35 -26.4 -416.2 -26.7 -416.15 -27.1 -416.1 -27.4 -416.1 -27.8 -416.0 -28.2 -415.8 -28.55 -415.45 -29.2 -415.45 -29.55 -415.4 -29.9 -415.25 -30.25 -414.75 -30.95 -414.25 -32.0 -414.25 -32.3 -414.15 -32.65 -414.15 -32.95 -414.1 -33.4 -414.0 -33.75 -413.8 -34.1 -413.5 -34.8 -413.45 -35.1 -413.45 -35.5 -413.4 -35.8 Q-413.4 -36.2 -413.0 -36.5 -412.7 -37.4 -412.1 -37.8 L-411.65 -38.55 -411.2 -38.9 -410.75 -39.25 -410.6 -39.25 -410.5 -39.7 -410.75 -40.45 -411.05 -41.4 -411.55 -42.55 -412.75 -43.85 -412.75 -43.4 -412.8 -43.0 -412.85 -42.7 -413.8 -40.7 -414.2 -39.95 Q-415.15 -38.5 -416.65 -37.65 -418.85 -36.45 -421.3 -35.7 L-423.25 -35.05 -423.6 -34.65 Q-424.0 -34.7 -424.1 -34.4 L-424.75 -34.1 -426.0 -33.7 Q-427.65 -32.6 -429.45 -31.85 L-429.8 -31.75 -435.3 -32.05 -436.05 -32.75 -436.8 -33.45 -437.5 -34.15 -437.85 -34.5 -438.2 -34.9 -438.3 -35.25 -438.4 -35.6 -438.75 -36.0 -439.1 -36.3 -439.2 -36.75 -439.25 -37.0 -439.3 -37.4 -439.45 -37.7 -439.8 -38.05 -440.0 -38.45 -440.15 -38.75 -440.45 -39.5 -440.55 -39.8 -441.0 -40.25 -441.3 -40.55 -441.6 -41.65 -442.35 -42.7 -442.6 -43.05 -443.0 -43.7 -443.7 -44.75 -444.05 -45.45 -444.1 -45.85 -444.1 -46.15 -444.05 -46.55 -444.0 -46.85 -444.0 -47.6 -444.0 -47.95 -444.05 -48.3 -444.2 -48.65 -444.3 -48.9 -444.4 -49.3 -444.35 -49.6 -444.3 -50.05 -444.5 -50.35 -444.65 -50.75 -444.7 -51.05 -444.75 -51.4 -444.65 -51.75 -444.8 -52.1 -445.0 -52.5 -445.1 -52.65 -445.1 -52.75 -445.1 -52.8 -444.95 -54.25 -444.9 -54.95 -444.85 -55.25 -444.8 -56.35 -444.7 -58.05 -444.55 -59.15 -444.55 -59.55 -444.5 -59.9 -444.3 -60.25 -444.0 -60.55 -444.0 -60.9 -444.0 -61.25 -444.0 -61.6 -443.95 -61.95 -443.9 -62.35 -443.85 -62.75 -443.75 -63.05 -443.6 -63.45 -443.5 -63.75 -443.3 -64.15 -443.3 -64.45 -443.25 -64.8 -443.25 -65.15 -443.25 -65.6 -443.05 -65.9 -442.95 -66.3 -442.85 -66.65 -442.7 -67.0 -442.65 -67.35 -442.6 -67.75 -442.6 -68.05 -442.45 -68.45 -442.3 -68.8 -442.05 -69.15 -442.0 -69.5 -442.0 -69.9 -441.85 -70.25 -441.75 -70.6 -441.6 -70.95 -441.45 -71.35 -441.45 -71.7 -441.4 -72.15 -441.3 -72.4 -440.95 -72.75 -440.65 -73.15 -440.4 -73.55 -439.95 -74.25 -438.8 -75.35 -437.65 -76.45 -437.2 -76.8 -436.55 -77.55 -436.1 -77.95 M-371.2 22.5 L-371.4 22.9 -371.6 23.25 Q-373.3 23.4 -375.0 22.55 -376.4 21.85 -377.75 21.55 L-378.05 21.1 -378.45 20.35 -378.85 19.5 -378.9 19.1 -378.75 18.75 -378.1 17.95 -377.7 17.75 -376.75 17.25 -376.15 16.95 -376.3 16.6 -376.7 16.15 -377.1 15.8 -377.2 15.45 -377.7 14.6 -378.1 13.75 -378.45 13.4 -379.25 12.6 -380.0 11.85 -382.05 8.7 -383.65 5.55 -384.15 4.8 -384.15 4.35 -384.15 4.0 -384.3 3.65 -384.65 3.25 -384.65 2.85 -384.65 2.5 -384.7 2.1 -384.7 1.75 -384.75 1.4 -384.95 0.95 -385.2 0.5 -385.2 0.15 -385.2 -0.25 -385.2 -0.5 -385.25 -0.5 -385.2 -1.0 -385.2 -1.35 -385.25 -1.65 -385.5 -2.1 -385.75 -2.5 -385.7 -2.85 -385.75 -3.25 -386.0 -3.6 -386.25 -4.0 -386.25 -4.35 -386.15 -4.75 -386.15 -5.1 -386.15 -5.45 -386.5 -6.25 -386.8 -7.3 -387.05 -8.05 -387.05 -8.4 -387.05 -9.15 -387.0 -10.25 -387.0 -10.6 -387.2 -10.95 -387.5 -11.4 -387.2 -15.3 -387.0 -19.65 -386.9 -21.75 -386.9 -22.1 -387.05 -22.45 -387.3 -22.9 -387.25 -23.25 -387.25 -23.65 -387.2 -23.95 -387.05 -24.3 -386.8 -24.65 -386.65 -25.0 -386.55 -26.75 -386.35 -28.9 -386.25 -30.3 -386.2 -30.6 -385.95 -31.0 -385.6 -31.35 -385.65 -31.7 -385.6 -32.05 -385.6 -32.4 -385.55 -32.8 -385.45 -33.0 -385.2 -33.45 -385.0 -33.75 -384.95 -34.2 -384.85 -34.9 -384.75 -35.95 -384.7 -36.3 -384.5 -36.65 -384.2 -37.0 -384.2 -37.3 -384.1 -37.65 -384.1 -38.0 -384.05 -38.4 -384.0 -38.7 -383.7 -39.1 -383.55 -39.4 -383.45 -39.8 -383.45 -40.15 -383.05 -40.5 -382.9 -40.8 -382.85 -40.85 -383.05 -40.85 -383.4 -40.8 -384.15 -40.65 -385.3 -40.85 -385.65 -41.3 -386.1 -41.65 -386.45 -42.0 -386.75 -42.35 -386.9 -42.7 -387.0 -43.05 -386.95 -43.4 -386.95 -43.8 -386.9 -44.15 -387.05 -44.5 -387.05 -44.85 -387.2 -45.15 -387.25 -45.55 -387.3 -45.85 -387.25 -46.25 -387.45 -46.6 -387.55 -47.0 -387.65 -47.35 -387.6 -47.7 -387.55 -48.05 Q-387.9 -48.6 -387.85 -49.1 -387.95 -49.75 -388.2 -50.2 L-388.35 -50.55 -388.55 -51.25 -389.0 -52.3 -389.2 -53.4 -389.85 -54.5 -390.65 -55.6 -390.9 -55.95 -391.35 -56.55 -392.0 -57.7 -392.15 -58.1 -394.2 -60.0 -394.8 -60.4 -395.15 -60.7 -396.2 -61.75 -398.05 -63.65 -398.75 -64.0 -399.45 -64.45 -400.1 -64.7 -400.95 -65.15 -401.75 -65.8 -402.9 -66.6 -404.35 -67.45 -404.75 -67.7 -413.4 -70.3 Q-421.35 -72.75 -429.85 -72.9 L-430.35 -73.35 -430.6 -73.5 -431.7 -73.65 -432.9 -73.65 -433.45 -73.25 -433.9 -72.9 -434.8 -71.85 -435.75 -70.7 -436.0 -70.4 -436.3 -69.6 -436.95 -68.55 -437.0 -68.2 -437.0 -67.85 -436.95 -67.5 -437.0 -67.15 -437.2 -66.75 -437.4 -66.4 -437.55 -66.05 -437.6 -65.65 -437.65 -65.3 -437.65 -64.95 -437.8 -64.55 -437.95 -64.3 -438.15 -63.9 -438.3 -63.6 -438.25 -63.2 -438.25 -62.85 -438.3 -62.45 -438.35 -62.1 -438.5 -61.75 -438.65 -61.4 -438.8 -61.0 -438.9 -60.7 -438.95 -60.35 -438.95 -60.05 -439.0 -59.65 -439.0 -59.3 -439.05 -58.9 -439.1 -58.6 -439.25 -58.2 -439.45 -57.85 -439.6 -57.5 -439.65 -57.2 -439.7 -56.8 -439.75 -56.55 -439.75 -55.8 -439.8 -55.4 -439.8 -55.1 -439.85 -54.7 -439.85 -54.4 -439.8 -54.0 -439.65 -53.65 -439.6 -53.25 -439.45 -52.95 -439.5 -52.6 -439.5 -52.3 -439.35 -51.95 -439.25 -51.55 -439.2 -51.2 -439.05 -50.85 -438.8 -50.1 -438.75 -49.8 -438.7 -49.4 -438.75 -49.05 -438.75 -48.75 -438.8 -48.4 -438.85 -48.05 -438.9 -47.65 -437.65 -45.55 -437.25 -44.85 -435.8 -42.45 -434.55 -39.9 -433.35 -37.4 -432.9 -37.05 -432.6 -36.75 -432.3 -36.6 -431.35 -36.6 -426.95 -38.55 -426.3 -38.85 Q-425.2 -39.55 -423.8 -40.05 L-422.6 -40.45 -422.15 -40.75 -421.8 -40.95 -421.35 -40.95 -420.45 -41.25 -419.65 -41.6 -419.15 -41.95 -418.85 -42.25 -418.7 -42.6 -418.5 -42.95 -418.3 -43.3 -418.2 -43.6 -418.1 -44.0 -418.2 -44.35 -418.25 -44.75 -418.2 -45.4 -418.15 -46.1 -418.05 -46.8 -418.05 -47.1 -418.0 -47.5 -418.0 -47.85 -418.0 -48.1 -420.45 -48.3 -421.65 -48.4 -422.1 -48.75 -422.45 -49.1 -422.7 -49.5 -422.85 -49.85 -422.9 -50.25 -422.85 -50.9 -422.8 -51.65 -422.7 -52.35 -422.7 -52.65 -422.7 -53.0 -422.7 -53.35 -422.8 -54.05 -423.15 -54.0 -423.45 -53.7 -423.65 -53.35 -424.1 -53.05 -424.75 -52.75 -425.75 -52.5 -426.9 -52.7 -427.35 -53.15 -427.65 -53.5 -427.95 -53.85 -428.05 -54.2 -428.15 -54.6 -428.1 -54.9 -428.05 -55.3 -428.0 -55.6 -428.05 -56.0 -427.9 -56.3 -427.9 -56.65 -427.25 -57.3 -426.5 -58.05 -425.65 -58.75 -425.25 -59.1 Q-422.85 -60.3 -420.55 -58.85 L-420.2 -58.55 Q-419.25 -57.9 -418.25 -57.05 L-417.05 -56.3 -416.85 -56.0 -416.65 -55.6 -416.5 -55.25 -416.45 -54.85 -416.4 -54.55 -416.45 -54.15 -416.45 -53.85 Q-416.65 -53.75 -416.4 -53.6 L-415.55 -53.15 Q-415.1 -53.1 -414.6 -52.85 L-413.95 -52.6 -413.6 -52.2 -413.45 -51.9 -413.3 -51.5 -413.15 -51.2 -412.95 -50.7 Q-410.05 -49.4 -407.55 -46.45 -405.75 -44.4 -405.25 -41.3 L-405.45 -39.95 -405.55 -38.15 -405.7 -36.8 -405.55 -36.05 -405.2 -35.05 -404.95 -33.9 -404.95 -33.55 -405.0 -33.2 -404.85 -32.95 -404.7 -32.5 -404.6 -32.2 -404.25 -31.45 -403.85 -31.1 -403.55 -30.7 -403.15 -30.35 -403.05 -30.0 -402.85 -29.6 -402.75 -29.3 -402.75 -28.95 -402.85 -28.65 -402.9 -27.95 -402.95 -27.15 -403.1 -26.8 -403.35 -26.4 -403.5 -26.1 -403.95 -25.75 -404.6 -25.45 -405.6 -25.2 -406.7 -25.5 Q-407.1 -25.7 -407.15 -25.85 L-407.55 -26.2 -407.8 -26.65 -407.9 -27.0 -408.05 -27.65 Q-408.4 -28.1 -408.35 -28.4 L-408.6 -28.75 -408.85 -29.1 -409.3 -29.5 -409.55 -29.75 -409.85 -29.0 -411.0 -26.6 -411.1 -26.25 -411.1 -25.85 -411.15 -25.5 -411.2 -25.1 -411.35 -24.85 -411.55 -24.45 -411.75 -24.15 -411.8 -23.75 -411.8 -23.45 -412.0 -23.1 -412.1 -22.75 -412.4 -22.05 -412.45 -21.6 -412.5 -21.3 -412.5 -20.95 -412.65 -20.65 -412.8 -20.25 -413.05 -19.95 -413.35 -16.0 -413.6 -10.9 -413.55 -10.55 -413.4 -10.15 -413.15 -9.4 -413.15 -9.15 -413.15 -8.75 -413.1 -8.4 -413.1 -8.0 -413.15 -7.65 -412.65 -6.45 -412.25 -5.4 -412.25 -5.05 -412.25 -4.7 -412.3 -4.25 -412.1 -3.9 -411.9 -3.45 -411.75 -3.1 -411.75 -2.7 -411.8 -2.35 -411.2 -0.5 -411.15 -0.5 Q-409.3 4.55 -406.2 9.35 L-400.95 18.1 -400.55 18.5 -400.2 18.9 -399.7 19.3 -399.55 19.75 -399.0 20.5 -398.3 21.3 -397.8 22.1 -396.4 22.95 -393.9 25.15 -393.65 25.55 -393.45 25.95 -393.2 26.35 -392.85 26.8 -392.1 27.6 Q-391.7 28.1 -391.55 28.8 L-391.35 29.15 -390.95 29.65 Q-390.8 29.75 -390.55 30.0 L-389.95 31.2 -389.05 33.1 -387.95 35.25 -387.95 35.6 -387.85 36.1 -387.5 36.5 -387.25 36.9 -386.95 37.65 -386.35 38.85 -385.7 40.1 -385.55 40.5 -385.5 40.9 -385.5 41.3 -385.0 42.5 -384.05 44.5 Q-383.45 45.3 -383.0 46.55 L-383.0 46.9 -382.95 47.3 -382.65 48.1 -382.05 49.8 -381.1 51.75 -381.05 52.15 -381.05 52.5 -381.0 52.95 -380.9 53.3 -380.55 54.15 -380.05 55.3 -379.7 56.1 -379.7 56.55 -379.65 56.95 -379.65 57.3 -379.6 57.7 -379.5 58.1 -379.3 58.55 -379.15 58.9 -379.0 59.3 -378.95 59.65 -378.95 60.1 -378.75 60.45 -378.5 60.9 -378.3 61.25 -378.1 64.05 -377.8 68.35 -377.65 70.65 -377.8 71.05 -377.85 71.5 -378.0 71.9 -378.1 72.25 -378.05 72.65 -378.05 73.0 -378.15 73.45 -378.3 73.85 -378.45 74.2 -378.45 74.55 -378.4 75.35 -378.35 76.5 -378.3 77.25 -378.15 77.65 -377.95 78.05 -377.8 78.4 -377.8 78.45 -377.3 78.35 -377.3 78.3 -376.3 78.6 Q-375.65 78.7 -375.15 79.4 -368.45 81.85 -361.2 80.9 L-361.45 80.65 -361.65 80.25 -362.0 79.5 -362.25 78.75 -362.3 78.4 -362.3 78.0 -362.2 77.65 -362.1 77.2 -361.9 76.85 -361.5 76.5 -361.05 76.1 -360.9 76.1 -360.9 75.8 -360.8 75.4 -360.7 75.0 -360.5 74.6 -360.55 73.85 -360.55 72.7 -360.7 71.15 -360.6 70.75 -360.45 70.4 -360.3 69.95 -360.35 68.45 -360.5 65.75 -360.6 64.55 -360.55 64.2 -360.4 63.75 -360.35 63.4 -360.2 63.0 -360.3 61.85 -360.45 59.8 -360.55 58.7 -360.6 58.3 -360.85 57.85 -361.0 57.45 -361.15 57.1 -361.3 55.55 -361.5 52.75 -361.55 51.6 -361.75 51.2 -362.0 50.8 -362.2 50.35 -362.25 49.55 -362.4 48.0 -362.5 46.45 -362.65 46.1 -362.8 45.65 -363.0 45.25 -363.15 44.85 -363.15 44.5 -363.15 44.1 -363.2 43.7 -363.25 43.25 -363.4 42.85 -363.6 42.45 -363.75 42.05 -363.9 41.65 -363.9 41.25 -363.95 40.85 -364.2 40.5 -364.4 40.05 -364.55 39.7 -364.6 39.3 -364.65 38.95 -364.75 38.1 -364.8 37.35 -364.95 37.0 -365.15 36.55 -365.35 36.1 -365.4 35.7 -365.45 35.3 -365.8 34.55 -366.7 33.0 -367.2 31.75 -367.25 31.35 -367.25 31.0 -367.3 30.55 -367.5 30.2 -367.6 29.7 -367.8 29.35 -367.9 28.95 -367.95 28.6 -367.95 28.15 -368.0 27.75 -368.65 26.65 -369.55 24.55 -369.8 23.8 -369.85 23.4 -369.75 23.0 -369.6 22.6 -369.4 22.25 -369.05 21.9 -368.6 21.5 -367.5 21.35 -367.4 21.1 Q-365.05 20.3 -362.7 19.15 -361.85 18.4 -360.55 18.2 -360.2 17.7 -359.6 17.55 L-357.4 16.15 -356.3 15.95 -353.85 15.45 -353.45 15.5 -352.8 15.55 Q-352.4 15.5 -351.85 15.85 L-351.2 16.2 -350.85 16.6 -350.6 16.95 -350.25 17.75 -350.2 18.1 -350.2 18.5 -350.3 18.9 -350.5 19.35 -350.6 19.65 -357.55 23.1 Q-358.2 23.25 -358.85 23.6 -349.75 23.85 -342.5 30.35 -337.3 35.25 -335.05 42.1 L-320.75 43.6 -320.9 43.35 -321.3 42.95 -321.65 42.55 -321.95 42.15 -322.1 41.8 -322.25 41.4 -322.25 41.05 -322.3 40.6 -322.3 40.5 -322.55 40.1 -322.8 39.75 -322.9 39.3 -323.1 38.9 -323.2 38.5 -323.5 37.75 -323.5 37.4 -323.55 36.95 -323.75 36.55 -324.35 35.0 -325.2 33.05 -325.95 31.15 -326.55 29.65 -326.6 29.25 -326.65 28.85 -326.85 28.45 -327.4 27.2 -328.0 26.0 -328.45 24.9 -329.15 23.7 -329.45 23.35 -329.55 22.95 -329.55 22.6 -329.8 22.25 -330.15 21.85 -330.35 21.4 -330.55 21.05 -330.65 20.6 -330.85 20.25 -331.15 19.9 -331.5 19.5 -331.65 19.1 -332.25 17.95 -333.0 16.65 -333.85 15.45 -334.35 14.8 -334.9 14.35 -335.85 13.55 -336.65 12.75 -337.85 11.65 -339.95 10.5 Q-342.6 9.05 -345.25 8.25 -346.95 7.8 -348.25 6.95 L-349.35 6.6 Q-349.8 6.35 -350.1 6.25 L-350.5 6.0 -351.25 5.8 -357.1 4.6 -356.8 4.9 -356.4 5.3 -356.15 5.7 -356.0 6.05 -355.75 6.45 -355.4 6.85 -354.6 7.6 -354.35 7.85 -353.05 8.75 Q-352.45 9.15 -352.0 9.9 L-351.85 10.25 -351.85 11.05 -351.95 11.8 -352.4 12.45 -353.45 13.15 -354.2 12.85 -354.65 12.5 -354.75 12.1 -354.75 11.7 -354.8 10.95 -355.5 10.15 -356.55 9.1 -356.65 8.95 -357.35 8.65 -357.8 8.3 -358.15 7.85 -358.65 7.15 -358.9 6.7 -359.25 6.35 -359.65 5.95 -360.85 3.6 -362.1 1.35 -362.1 1.1 -362.25 0.75 -362.35 0.35 -362.35 -0.5 -362.4 -0.5 -362.35 -3.0 -362.25 -7.45 -362.25 -7.85 -362.1 -8.2 -361.95 -8.6 -361.65 -9.3 -361.65 -10.0 -361.55 -11.45 -361.5 -12.25 -361.4 -12.55 -361.3 -12.95 -360.95 -13.65 -360.95 -14.0 -360.9 -14.35 -360.8 -14.7 -360.45 -15.05 -360.05 -15.4 -359.75 -15.8 -359.1 -15.95 -359.05 -16.2 -359.0 -16.5 -358.7 -16.9 -358.25 -17.2 -358.0 -17.45 -357.1 -17.8 -356.1 -18.3 -355.65 -18.65 -355.4 -19.0 -355.35 -19.3 -355.0 -19.7 -354.6 -20.05 -354.3 -20.45 -354.25 -20.75 -354.25 -21.15 Q-352.55 -23.9 -351.15 -26.85 L-349.0 -31.0 -349.0 -31.35 -349.0 -31.75 -348.95 -32.1 -348.9 -32.4 -348.6 -32.75 -348.35 -33.1 -348.35 -33.45 -348.35 -33.85 -348.0 -34.2 -347.75 -34.55 -347.7 -34.85 -347.7 -35.25 -347.65 -35.6 -347.45 -35.95 -347.25 -36.3 -347.1 -36.7 -347.05 -37.0 -347.05 -37.4 -346.95 -37.65 -346.65 -38.05 -346.5 -38.4 -346.45 -38.8 -346.45 -39.15 -346.35 -39.5 -346.35 -39.85 -346.2 -40.2 -346.0 -40.6 -345.8 -40.9 -345.75 -41.2 -345.7 -41.6 -345.7 -41.95 -345.6 -42.3 -345.4 -42.7 -345.1 -43.05 -345.05 -44.1 -344.9 -45.5 -344.9 -45.9 -345.05 -46.25 -345.15 -46.65 -345.25 -47.0 -345.25 -47.35 -345.2 -47.7 -345.25 -48.05 -345.4 -48.4 -345.65 -48.75 -345.65 -49.1 -345.6 -49.5 -345.85 -49.85 -345.9 -50.0 -366.25 -51.75 -366.65 -51.45 -367.9 -50.75 -368.25 -50.35 -368.55 -50.2 -368.8 -50.1 -369.5 -49.85 -370.95 -48.0 Q-371.65 -47.45 -372.55 -47.15 L-373.55 -47.2 -374.05 -47.45 -374.7 -47.15 -375.05 -46.75 -375.35 -46.4 -375.85 -45.7 -376.95 -44.7 -378.65 -43.35 Q-379.6 -42.05 -380.15 -40.55 L-381.3 -37.75 -381.65 -36.95 -381.7 -36.7 -381.7 -36.35 -381.9 -36.0 -382.1 -35.6 -382.35 -35.25 -382.35 -34.9 -382.35 -34.2 -382.5 -33.2 -382.55 -32.8 -382.8 -32.45 -383.1 -32.1 -383.1 -31.75 -383.1 -31.4 -383.15 -31.05 -383.2 -30.65 -383.4 -30.35 -383.55 -29.95 -383.8 -29.65 -383.9 -27.55 -384.0 -25.4 -384.4 -23.6 -384.45 -19.3 -384.8 -14.25 -384.9 -12.5 -384.85 -12.1 -384.65 -11.75 -384.5 -11.35 -384.45 -11.0 -384.45 -10.3 -384.55 -9.2 -384.35 -8.45 -383.9 -6.95 -383.6 -6.2 -383.65 -5.85 -383.65 -5.45 -383.5 -5.15 -383.3 -4.75 -383.2 -4.4 -383.2 -4.0 -383.2 -3.65 -383.15 -3.3 -382.95 -2.9 -382.75 -2.5 -382.75 -2.15 -382.75 -1.75 -382.7 -1.45 -382.7 -1.05 -382.6 -0.65 -382.55 -0.5 -382.5 -0.5 -382.35 -0.2 -382.2 0.15 -382.2 0.55 -382.2 0.9 -382.2 1.65 -382.2 2.05 -381.05 4.7 -379.6 7.45 -379.2 8.2 -378.85 8.65 -378.15 9.45 -377.75 10.25 -375.9 12.35 Q-375.05 13.3 -374.4 14.6 L-373.55 15.3 -372.65 16.55 -372.5 16.95 Q-372.8 17.15 -372.8 17.65 L-374.1 19.25 Q-374.35 19.25 -374.35 19.55 L-373.55 19.8 Q-372.55 20.05 -371.55 21.1 L-371.2 21.45 -371.2 21.8 -371.2 22.2 -371.2 22.5 M-342.85 -49.65 L-342.65 -49.3 -342.65 -48.95 -342.6 -48.3 -342.45 -47.5 -342.3 -47.15 -342.5 -44.65 -342.7 -41.75 -342.85 -41.4 -343.1 -41.05 -343.3 -40.75 -343.3 -40.4 -343.3 -40.0 -343.3 -39.65 -343.45 -39.3 -343.65 -38.95 -343.95 -38.6 -344.0 -38.25 -344.0 -37.85 -344.1 -37.55 -344.2 -37.15 -344.45 -36.8 -344.6 -36.45 -344.65 -36.1 -344.7 -35.75 -344.7 -35.4 -344.8 -35.05 -345.0 -34.7 -345.25 -34.3 -345.3 -34.0 -345.35 -33.6 -345.6 -33.25 -345.9 -32.95 -345.85 -32.6 -345.95 -32.25 -345.95 -31.9 -346.15 -31.5 -346.35 -31.1 -346.55 -30.75 -346.55 -30.45 -346.6 -30.05 -346.6 -29.75 -346.65 -29.35 -346.9 -29.0 -347.2 -28.7 -347.25 -28.35 -347.25 -27.95 -347.5 -27.65 -347.75 -27.25 -347.85 -26.95 -347.85 -26.55 -350.0 -23.15 -351.8 -20.2 -351.85 -19.85 -351.85 -19.45 -352.6 -18.4 -353.4 -17.0 -354.35 -16.2 -353.55 -16.15 -350.4 -18.9 -348.05 -21.05 Q-347.65 -22.3 -346.8 -23.2 L-344.6 -26.35 -344.65 -26.7 -344.6 -27.05 -344.2 -27.7 -343.25 -29.5 -342.85 -30.2 -342.85 -30.55 -342.75 -30.9 -342.6 -31.25 -342.15 -32.35 Q-342.2 -32.9 -341.65 -33.4 L-341.65 -33.75 -341.6 -34.1 -341.55 -34.45 -341.5 -34.85 -341.35 -35.2 -341.1 -35.6 -340.95 -35.9 -340.9 -36.3 -340.85 -36.95 -340.75 -38.0 -340.6 -38.4 -340.45 -38.75 -340.2 -39.15 -340.15 -39.45 -340.05 -40.15 -339.95 -41.2 -339.85 -41.55 -339.7 -41.95 -339.4 -42.3 -339.0 -42.65 -338.5 -42.95 -337.35 -43.1 -337.35 -43.15 -336.4 -42.85 -335.85 -42.6 -335.5 -42.2 -335.35 -41.8 -335.0 -41.05 -335.05 -40.4 -335.2 -38.6 -335.3 -37.5 -335.5 -37.15 -335.7 -36.8 -335.85 -36.45 -335.85 -36.1 -336.0 -35.4 -336.0 -34.3 -336.25 -33.95 -336.4 -33.6 -336.65 -33.25 -336.65 -32.95 -336.05 -33.25 -335.65 -33.6 -335.3 -33.95 -334.95 -34.25 -334.4 -35.35 -333.5 -36.75 -332.75 -38.15 -332.75 -38.5 -332.7 -38.9 -332.55 -39.2 -332.25 -39.6 -332.35 -39.95 -332.5 -40.35 -332.6 -40.7 -332.55 -41.0 -332.5 -41.35 -332.5 -41.75 -332.6 -42.1 -332.85 -42.75 -333.2 -43.3 -333.4 -43.9 -333.7 -44.95 -334.1 -45.35 -334.35 -45.8 -334.55 -46.15 -334.8 -46.4 -337.0 -48.05 -339.4 -49.45 -342.95 -49.7 -342.85 -49.65 M-386.45 -58.95 L-386.2 -58.6 -385.85 -58.2 -385.5 -57.85 -384.8 -56.45 -384.5 -55.7 -384.3 -55.25 -383.95 -54.2 Q-383.8 -53.35 -383.25 -52.45 L-382.8 -51.35 -382.8 -51.0 -382.85 -50.65 -382.75 -50.3 -382.65 -49.95 -382.55 -49.5 -382.35 -48.8 -382.25 -48.55 -382.2 -48.15 -382.1 -47.8 -382.1 -47.4 -382.15 -47.1 -381.9 -46.75 -381.85 -46.35 -381.7 -45.95 -381.75 -45.6 -381.75 -45.25 -381.8 -44.95 -381.75 -44.6 -381.6 -44.25 -381.5 -43.85 -381.5 -43.6 -381.4 -43.65 -381.1 -44.0 -381.15 -44.35 -381.05 -44.75 -377.95 -47.45 -375.1 -49.85 -374.15 -50.2 -373.3 -50.45 -373.25 -50.5 -372.4 -50.5 -372.25 -50.8 -371.35 -51.8 -370.1 -52.45 Q-371.55 -52.9 -372.75 -53.5 L-374.0 -53.7 Q-376.15 -54.2 -378.05 -55.5 L-379.85 -56.55 -380.15 -56.85 -380.35 -57.1 -381.5 -57.35 -381.95 -57.75 -382.35 -58.1 -382.75 -58.5 -383.4 -58.85 -384.1 -59.25 -385.0 -59.85 -385.15 -59.95 -387.3 -60.2 -387.15 -60.05 -386.75 -59.7 -386.65 -59.3 -386.45 -58.95 M-339.6 -25.45 L-341.15 -22.75 -344.15 -17.2 -347.15 -14.9 -346.35 -14.55 Q-345.05 -13.8 -344.0 -12.7 L-343.35 -12.3 -342.75 -11.95 -342.5 -11.65 -341.5 -11.5 -339.55 -11.7 -338.75 -13.2 -337.45 -15.7 -336.2 -18.1 -336.25 -18.4 -336.15 -18.8 -336.0 -19.15 -335.5 -19.95 -334.9 -20.95 -334.45 -22.0 -334.85 -22.4 -335.85 -23.5 Q-336.6 -24.4 -337.55 -24.9 L-338.25 -25.05 -339.4 -25.25 -339.6 -25.45" fill="#000000" fill-rule="evenodd" stroke="none"/>
    <path d="M-369.75 23.0 L-369.85 23.4 -369.8 23.8 -369.55 24.55 -368.65 26.65 -368.0 27.75 -367.95 28.15 -367.95 28.6 -367.9 28.95 -367.8 29.35 -367.6 29.7 -367.5 30.2 -367.3 30.55 -367.25 31.0 -367.25 31.35 -367.2 31.75 -366.7 33.0 -365.8 34.55 -365.45 35.3 -365.4 35.7 -365.35 36.1 -365.15 36.55 -364.95 37.0 -364.8 37.35 -364.75 38.1 -364.65 38.95 -364.6 39.3 -364.55 39.7 -364.4 40.05 -364.2 40.5 -363.95 40.85 -363.9 41.25 -363.9 41.65 -363.75 42.05 -363.6 42.45 -363.4 42.85 -363.25 43.25 -363.2 43.7 -363.15 44.1 -363.15 44.5 -363.15 44.85 -363.0 45.25 -362.8 45.65 -362.65 46.1 -362.5 46.45 -362.4 48.0 -362.25 49.55 -362.2 50.35 -362.0 50.8 -361.75 51.2 -361.55 51.6 -361.5 52.75 -361.3 55.55 -361.15 57.1 -361.0 57.45 -360.85 57.85 -360.6 58.3 -360.55 58.7 -360.45 59.8 -360.3 61.85 -360.2 63.0 -360.35 63.4 -360.4 63.75 -360.55 64.2 -360.6 64.55 -360.5 65.75 -360.35 68.45 -360.3 69.95 -360.45 70.4 -360.6 70.75 -360.7 71.15 -360.55 72.7 -360.55 73.85 -360.5 74.6 -360.7 75.0 -360.8 75.4 -360.9 75.8 -360.9 76.1 -361.05 76.1 -361.5 76.5 -361.9 76.85 -362.1 77.2 -362.2 77.65 -362.3 78.0 -362.3 78.4 -362.25 78.75 -362.0 79.5 -361.65 80.25 -361.45 80.65 -361.2 80.9 Q-368.45 81.85 -375.15 79.4 -375.65 78.7 -376.3 78.6 L-377.3 78.3 -377.3 78.35 -377.8 78.45 -377.8 78.4 -377.95 78.05 -378.15 77.65 -378.3 77.25 -378.35 76.5 -378.4 75.35 -378.45 74.55 -378.45 74.2 -378.3 73.85 -378.15 73.45 -378.05 73.0 -378.05 72.65 -378.1 72.25 -378.0 71.9 -377.85 71.5 -377.8 71.05 -377.65 70.65 -377.8 68.35 -378.1 64.05 -378.3 61.25 -378.5 60.9 -378.75 60.45 -378.95 60.1 -378.95 59.65 -379.0 59.3 -379.15 58.9 -379.3 58.55 -379.5 58.1 -379.6 57.7 -379.65 57.3 -379.65 56.95 -379.7 56.55 -379.7 56.1 -380.05 55.3 -380.55 54.15 -380.9 53.3 -381.0 52.95 -381.05 52.5 -381.05 52.15 -381.1 51.75 -382.05 49.8 -382.65 48.1 -382.95 47.3 -383.0 46.9 -383.0 46.55 Q-383.45 45.3 -384.05 44.5 L-385.0 42.5 -385.5 41.3 -385.5 40.9 -385.55 40.5 -385.7 40.1 -386.35 38.85 -386.95 37.65 -387.25 36.9 -387.5 36.5 -387.85 36.1 -387.95 35.6 -387.95 35.25 -389.05 33.1 -389.95 31.2 -390.55 30.0 Q-390.8 29.75 -390.95 29.65 L-391.35 29.15 -391.55 28.8 Q-391.7 28.1 -392.1 27.6 L-392.85 26.8 -393.2 26.35 -393.45 25.95 -393.65 25.55 -393.9 25.15 -396.4 22.95 -397.8 22.1 -398.3 21.3 -399.0 20.5 -399.55 19.75 -399.7 19.3 -400.2 18.9 -400.55 18.5 -400.95 18.1 -406.2 9.35 Q-409.3 4.55 -411.15 -0.5 L-411.2 -0.5 -411.8 -2.35 -411.75 -2.7 -411.75 -3.1 -411.9 -3.45 -412.1 -3.9 -412.3 -4.25 -412.25 -4.7 -412.25 -5.05 -412.25 -5.4 -412.65 -6.45 -413.15 -7.65 -413.1 -8.0 -413.1 -8.4 -413.15 -8.75 -413.15 -9.15 -413.15 -9.4 -413.4 -10.15 -413.55 -10.55 -413.6 -10.9 -413.35 -16.0 -413.05 -19.95 -412.8 -20.25 -412.65 -20.65 -412.5 -20.95 -412.5 -21.3 -412.45 -21.6 -412.4 -22.05 -412.1 -22.75 -412.0 -23.1 -411.8 -23.45 -411.8 -23.75 -411.75 -24.15 -411.55 -24.45 -411.35 -24.85 -411.2 -25.1 -411.15 -25.5 -411.1 -25.85 -411.1 -26.25 -411.0 -26.6 -409.85 -29.0 -409.55 -29.75 -409.3 -29.5 -408.85 -29.1 -408.6 -28.75 -408.35 -28.4 Q-408.4 -28.1 -408.05 -27.65 L-407.9 -27.0 -407.8 -26.65 -407.55 -26.2 -407.15 -25.85 Q-407.1 -25.7 -406.7 -25.5 L-405.6 -25.2 -404.6 -25.45 -403.95 -25.75 -403.5 -26.1 -403.35 -26.4 -403.1 -26.8 -402.95 -27.15 -402.9 -27.95 -402.85 -28.65 -402.75 -28.95 -402.75 -29.3 -402.85 -29.6 -403.05 -30.0 -403.15 -30.35 -403.55 -30.7 -403.85 -31.1 -404.25 -31.45 -404.6 -32.2 -404.7 -32.5 -404.85 -32.95 -405.0 -33.2 -404.95 -33.55 -404.95 -33.9 -405.2 -35.05 -405.55 -36.05 -405.7 -36.8 -405.55 -38.15 -405.45 -39.95 -405.25 -41.3 Q-405.75 -44.4 -407.55 -46.45 -410.05 -49.4 -412.95 -50.7 L-413.15 -51.2 -413.3 -51.5 -413.45 -51.9 -413.6 -52.2 -413.95 -52.6 -414.6 -52.85 Q-415.1 -53.1 -415.55 -53.15 L-416.4 -53.6 Q-416.65 -53.75 -416.45 -53.85 L-416.45 -54.15 -416.4 -54.55 -416.45 -54.85 -416.5 -55.25 -416.65 -55.6 -416.85 -56.0 -417.05 -56.3 -418.25 -57.05 Q-419.25 -57.9 -420.2 -58.55 L-420.55 -58.85 Q-422.85 -60.3 -425.25 -59.1 L-425.65 -58.75 -426.5 -58.05 -427.25 -57.3 -427.9 -56.65 -427.9 -56.3 -428.05 -56.0 -428.0 -55.6 -428.05 -55.3 -428.1 -54.9 -428.15 -54.6 -428.05 -54.2 -427.95 -53.85 -427.65 -53.5 -427.35 -53.15 -426.9 -52.7 -425.75 -52.5 -424.75 -52.75 -424.1 -53.05 -423.65 -53.35 -423.45 -53.7 -423.15 -54.0 -422.8 -54.05 -422.7 -53.35 -422.7 -53.0 -422.7 -52.65 -422.7 -52.35 -422.8 -51.65 -422.85 -50.9 -422.9 -50.25 -422.85 -49.85 -422.7 -49.5 -422.45 -49.1 -422.1 -48.75 -421.65 -48.4 -420.45 -48.3 -418.0 -48.1 -418.0 -47.85 -418.0 -47.5 -418.05 -47.1 -418.05 -46.8 -418.15 -46.1 -418.2 -45.4 -418.25 -44.75 -418.2 -44.35 -418.1 -44.0 -418.2 -43.6 -418.3 -43.3 -418.5 -42.95 -418.7 -42.6 -418.85 -42.25 -419.15 -41.95 -419.65 -41.6 -420.45 -41.25 -421.35 -40.95 -421.8 -40.95 -422.15 -40.75 -422.6 -40.45 -423.8 -40.05 Q-425.2 -39.55 -426.3 -38.85 L-426.95 -38.55 -431.35 -36.6 -432.3 -36.6 -432.6 -36.75 -432.9 -37.05 -433.35 -37.4 -434.55 -39.9 -435.8 -42.45 -437.25 -44.85 -437.65 -45.55 -438.9 -47.65 -438.85 -48.05 -438.8 -48.4 -438.75 -48.75 -438.75 -49.05 -438.7 -49.4 -438.75 -49.8 -438.8 -50.1 -439.05 -50.85 -439.2 -51.2 -439.25 -51.55 -439.35 -51.95 -439.5 -52.3 -439.5 -52.6 -439.45 -52.95 -439.6 -53.25 -439.65 -53.65 -439.8 -54.0 -439.85 -54.4 -439.85 -54.7 -439.8 -55.1 -439.8 -55.4 -439.75 -55.8 -439.75 -56.55 -439.7 -56.8 -439.65 -57.2 -439.6 -57.5 -439.45 -57.85 -439.25 -58.2 -439.1 -58.6 -439.05 -58.9 -439.0 -59.3 -439.0 -59.65 -438.95 -60.05 -438.95 -60.35 -438.9 -60.7 -438.8 -61.0 -438.65 -61.4 -438.5 -61.75 -438.35 -62.1 -438.3 -62.45 -438.25 -62.85 -438.25 -63.2 -438.3 -63.6 -438.15 -63.9 -437.95 -64.3 -437.8 -64.55 -437.65 -64.95 -437.65 -65.3 -437.6 -65.65 -437.55 -66.05 -437.4 -66.4 -437.2 -66.75 -437.0 -67.15 -436.95 -67.5 -437.0 -67.85 -437.0 -68.2 -436.95 -68.55 -436.3 -69.6 -436.0 -70.4 -435.75 -70.7 -434.8 -71.85 -433.9 -72.9 -433.45 -73.25 -432.9 -73.65 -431.7 -73.65 -430.6 -73.5 -430.35 -73.35 -429.85 -72.9 Q-421.35 -72.75 -413.4 -70.3 L-404.75 -67.7 -404.35 -67.45 -402.9 -66.6 -401.75 -65.8 -400.95 -65.15 -400.1 -64.7 -399.45 -64.45 -398.75 -64.0 -398.05 -63.65 -396.2 -61.75 -395.15 -60.7 -394.8 -60.4 -394.2 -60.0 -392.15 -58.1 -392.0 -57.7 -391.35 -56.55 -390.9 -55.95 -390.65 -55.6 -389.85 -54.5 -389.2 -53.4 -389.0 -52.3 -388.55 -51.25 -388.35 -50.55 -388.2 -50.2 Q-387.95 -49.75 -387.85 -49.1 -387.9 -48.6 -387.55 -48.05 L-387.6 -47.7 -387.65 -47.35 -387.55 -47.0 -387.45 -46.6 -387.25 -46.25 -387.3 -45.85 -387.25 -45.55 -387.2 -45.15 -387.05 -44.85 -387.05 -44.5 -386.9 -44.15 -386.95 -43.8 -386.95 -43.4 -387.0 -43.05 -386.9 -42.7 -386.75 -42.35 -386.45 -42.0 -386.1 -41.65 -385.65 -41.3 -385.3 -40.85 -384.15 -40.65 -383.4 -40.8 -383.05 -40.85 -382.85 -40.85 -382.9 -40.8 -383.05 -40.5 -383.45 -40.15 -383.45 -39.8 -383.55 -39.4 -383.7 -39.1 -384.0 -38.7 -384.05 -38.4 -384.1 -38.0 -384.1 -37.65 -384.2 -37.3 -384.2 -37.0 -384.5 -36.65 -384.7 -36.3 -384.75 -35.95 -384.85 -34.9 -384.95 -34.2 -385.0 -33.75 -385.2 -33.45 -385.45 -33.0 -385.55 -32.8 -385.6 -32.4 -385.6 -32.05 -385.65 -31.7 -385.6 -31.35 -385.95 -31.0 -386.2 -30.6 -386.25 -30.3 -386.35 -28.9 -386.55 -26.75 -386.65 -25.0 -386.8 -24.65 -387.05 -24.3 -387.2 -23.95 -387.25 -23.65 -387.25 -23.25 -387.3 -22.9 -387.05 -22.45 -386.9 -22.1 -386.9 -21.75 -387.0 -19.65 -387.2 -15.3 -387.5 -11.4 -387.2 -10.95 -387.0 -10.6 -387.0 -10.25 -387.05 -9.15 -387.05 -8.4 -387.05 -8.05 -386.8 -7.3 -386.5 -6.25 -386.15 -5.45 -386.15 -5.1 -386.15 -4.75 -386.25 -4.35 -386.25 -4.0 -386.0 -3.6 -385.75 -3.25 -385.7 -2.85 -385.75 -2.5 -385.5 -2.1 -385.25 -1.65 -385.2 -1.35 -385.2 -1.0 -385.25 -0.5 -385.2 -0.5 -385.2 -0.25 -385.2 0.15 -385.2 0.5 -384.95 0.95 -384.75 1.4 -384.7 1.75 -384.7 2.1 -384.65 2.5 -384.65 2.85 -384.65 3.25 -384.3 3.65 -384.15 4.0 -384.15 4.35 -384.15 4.8 -383.65 5.55 -382.05 8.7 -380.0 11.85 -379.25 12.6 -378.45 13.4 -378.1 13.75 -377.7 14.6 -377.2 15.45 -377.1 15.8 -376.7 16.15 -376.3 16.6 -376.15 16.95 -376.75 17.25 -377.7 17.75 -378.1 17.95 -378.75 18.75 -378.9 19.1 -378.85 19.5 -378.45 20.35 -378.05 21.1 -377.75 21.55 Q-376.4 21.85 -375.0 22.55 -373.3 23.4 -371.6 23.25 L-371.4 22.9 -371.2 22.5 -369.75 23.0 M-386.45 -58.95 L-386.65 -59.3 -386.75 -59.7 -387.15 -60.05 -387.3 -60.2 -385.15 -59.95 -385.0 -59.85 -384.1 -59.25 -383.4 -58.85 -382.75 -58.5 -382.35 -58.1 -381.95 -57.75 -381.5 -57.35 -380.35 -57.1 -380.15 -56.85 -379.85 -56.55 -378.05 -55.5 Q-376.15 -54.2 -374.0 -53.7 L-372.75 -53.5 Q-371.55 -52.9 -370.1 -52.45 L-371.35 -51.8 -372.25 -50.8 -372.4 -50.5 -373.25 -50.5 -373.3 -50.45 -374.15 -50.2 -375.1 -49.85 -377.95 -47.45 -381.05 -44.75 -381.15 -44.35 -381.1 -44.0 -381.4 -43.65 -381.5 -43.6 -381.5 -43.85 -381.6 -44.25 -381.75 -44.6 -381.8 -44.95 -381.75 -45.25 -381.75 -45.6 -381.7 -45.95 -381.85 -46.35 -381.9 -46.75 -382.15 -47.1 -382.1 -47.4 -382.1 -47.8 -382.2 -48.15 -382.25 -48.55 -382.35 -48.8 -382.55 -49.5 -382.65 -49.95 -382.75 -50.3 -382.85 -50.65 -382.8 -51.0 -382.8 -51.35 -383.25 -52.45 Q-383.8 -53.35 -383.95 -54.2 L-384.3 -55.25 -384.5 -55.7 -384.8 -56.45 -385.5 -57.85 -385.85 -58.2 -386.2 -58.6 -386.45 -58.95" fill="#b1e34d" fill-rule="evenodd" stroke="none"/>
    <path d="M-369.75 23.0 L-371.2 22.5 -371.2 22.2 -371.2 21.8 -371.2 21.45 -371.55 21.1 Q-372.55 20.05 -373.55 19.8 L-374.35 19.55 Q-374.35 19.25 -374.1 19.25 L-372.8 17.65 Q-372.8 17.15 -372.5 16.95 L-372.65 16.55 -373.55 15.3 -374.4 14.6 Q-375.05 13.3 -375.9 12.35 L-377.75 10.25 -378.15 9.45 -378.85 8.65 -379.2 8.2 -379.6 7.45 -381.05 4.7 -382.2 2.05 -382.2 1.65 -382.2 0.9 -382.2 0.55 -382.2 0.15 -382.35 -0.2 -382.5 -0.5 -382.55 -0.5 -382.6 -0.65 -382.7 -1.05 -382.7 -1.45 -382.75 -1.75 -382.75 -2.15 -382.75 -2.5 -382.95 -2.9 -383.15 -3.3 -383.2 -3.65 -383.2 -4.0 -383.2 -4.4 -383.3 -4.75 -383.5 -5.15 -383.65 -5.45 -383.65 -5.85 -383.6 -6.2 -383.9 -6.95 -384.35 -8.45 -384.55 -9.2 -384.45 -10.3 -384.45 -11.0 -384.5 -11.35 -384.65 -11.75 -384.85 -12.1 -384.9 -12.5 -384.8 -14.25 -384.45 -19.3 -384.4 -23.6 -384.0 -25.4 -383.9 -27.55 -383.8 -29.65 -383.55 -29.95 -383.4 -30.35 -383.2 -30.65 -383.15 -31.05 -383.1 -31.4 -383.1 -31.75 -383.1 -32.1 -382.8 -32.45 -382.55 -32.8 -382.5 -33.2 -382.35 -34.2 -382.35 -34.9 -382.35 -35.25 -382.1 -35.6 -381.9 -36.0 -381.7 -36.35 -381.7 -36.7 -381.65 -36.95 -381.3 -37.75 -380.15 -40.55 Q-379.6 -42.05 -378.65 -43.35 L-376.95 -44.7 -375.85 -45.7 -375.35 -46.4 -375.05 -46.75 -374.7 -47.15 -374.05 -47.45 -373.55 -47.2 -372.55 -47.15 Q-371.65 -47.45 -370.95 -48.0 L-369.5 -49.85 -368.8 -50.1 -368.55 -50.2 -368.25 -50.35 -367.9 -50.75 -366.65 -51.45 -366.25 -51.75 -345.9 -50.0 -345.85 -49.85 -345.6 -49.5 -345.65 -49.1 -345.65 -48.75 -345.4 -48.4 -345.25 -48.05 -345.2 -47.7 -345.25 -47.35 -345.25 -47.0 -345.15 -46.65 -345.05 -46.25 -344.9 -45.9 -344.9 -45.5 -345.05 -44.1 -345.1 -43.05 -345.4 -42.7 -345.6 -42.3 -345.7 -41.95 -345.7 -41.6 -345.75 -41.2 -345.8 -40.9 -346.0 -40.6 -346.2 -40.2 -346.35 -39.85 -346.35 -39.5 -346.45 -39.15 -346.45 -38.8 -346.5 -38.4 -346.65 -38.05 -346.95 -37.65 -347.05 -37.4 -347.05 -37.0 -347.1 -36.7 -347.25 -36.3 -347.45 -35.95 -347.65 -35.6 -347.7 -35.25 -347.7 -34.85 -347.75 -34.55 -348.0 -34.2 -348.35 -33.85 -348.35 -33.45 -348.35 -33.1 -348.6 -32.75 -348.9 -32.4 -348.95 -32.1 -349.0 -31.75 -349.0 -31.35 -349.0 -31.0 -351.15 -26.85 Q-352.55 -23.9 -354.25 -21.15 L-354.25 -20.75 -354.3 -20.45 -354.6 -20.05 -355.0 -19.7 -355.35 -19.3 -355.4 -19.0 -355.65 -18.65 -356.1 -18.3 -357.1 -17.8 -358.0 -17.45 -358.25 -17.2 -358.7 -16.9 -359.0 -16.5 -359.05 -16.2 -359.1 -15.95 -359.75 -15.8 -360.05 -15.4 -360.45 -15.05 -360.8 -14.7 -360.9 -14.35 -360.95 -14.0 -360.95 -13.65 -361.3 -12.95 -361.4 -12.55 -361.5 -12.25 -361.55 -11.45 -361.65 -10.0 -361.65 -9.3 -361.95 -8.6 -362.1 -8.2 -362.25 -7.85 -362.25 -7.45 -362.35 -3.0 -362.4 -0.5 -362.35 -0.5 -362.35 0.35 -362.25 0.75 -362.1 1.1 -362.1 1.35 -360.85 3.6 -359.65 5.95 -359.25 6.35 -358.9 6.7 -358.65 7.15 -358.15 7.85 -357.8 8.3 -357.35 8.65 -356.65 8.95 -356.55 9.1 -355.5 10.15 -354.8 10.95 -354.75 11.7 -354.75 12.1 -354.65 12.5 -354.2 12.85 -353.45 13.15 -353.45 15.5 -353.85 15.45 -356.3 15.95 -357.4 16.15 -359.6 17.55 Q-360.2 17.7 -360.55 18.2 -361.85 18.4 -362.7 19.15 -365.05 20.3 -367.4 21.1 L-367.5 21.35 -368.6 21.5 -369.05 21.9 -369.4 22.25 -369.6 22.6 -369.75 23.0" fill="#cc3300" fill-rule="evenodd" stroke="none"/>
    <path d="M-353.45 13.15 L-352.4 12.45 -351.95 11.8 -351.85 11.05 -351.85 10.25 -352.0 9.9 Q-352.45 9.15 -353.05 8.75 L-354.35 7.85 -354.6 7.6 -355.4 6.85 -355.75 6.45 -356.0 6.05 -356.15 5.7 -356.4 5.3 -356.8 4.9 -357.1 4.6 -351.25 5.8 -350.5 6.0 -350.1 6.25 Q-349.8 6.35 -349.35 6.6 L-348.25 6.95 Q-346.95 7.8 -345.25 8.25 -342.6 9.05 -339.95 10.5 L-337.85 11.65 -336.65 12.75 -335.85 13.55 -334.9 14.35 -334.35 14.8 -333.85 15.45 -333.0 16.65 -332.25 17.95 -331.65 19.1 -331.5 19.5 -331.15 19.9 -330.85 20.25 -330.65 20.6 -330.55 21.05 -330.35 21.4 -330.15 21.85 -329.8 22.25 -329.55 22.6 -329.55 22.95 -329.45 23.35 -329.15 23.7 -328.45 24.9 -328.0 26.0 -327.4 27.2 -326.85 28.45 -326.65 28.85 -326.6 29.25 -326.55 29.65 -325.95 31.15 -325.2 33.05 -324.35 35.0 -323.75 36.55 -323.55 36.95 -323.5 37.4 -323.5 37.75 -323.2 38.5 -323.1 38.9 -322.9 39.3 -322.8 39.75 -322.55 40.1 -322.3 40.5 -322.3 40.6 -322.25 41.05 -322.25 41.4 -322.1 41.8 -321.95 42.15 -321.65 42.55 -321.3 42.95 -320.9 43.35 -320.75 43.6 -335.05 42.1 Q-337.3 35.25 -342.5 30.35 -349.75 23.85 -358.85 23.6 -358.2 23.25 -357.55 23.1 L-350.6 19.65 -350.5 19.35 -350.3 18.9 -350.2 18.5 -350.2 18.1 -350.25 17.75 -350.6 16.95 -350.85 16.6 -351.2 16.2 -351.85 15.85 Q-352.4 15.5 -352.8 15.55 L-353.45 15.5 -353.45 13.15 M-342.85 -49.65 L-342.95 -49.7 -339.4 -49.45 -337.0 -48.05 -334.8 -46.4 -334.55 -46.15 -334.35 -45.8 -334.1 -45.35 -333.7 -44.95 -333.4 -43.9 -333.2 -43.3 -332.85 -42.75 -332.6 -42.1 -332.5 -41.75 -332.5 -41.35 -332.55 -41.0 -332.6 -40.7 -332.5 -40.35 -332.35 -39.95 -332.25 -39.6 -332.55 -39.2 -332.7 -38.9 -332.75 -38.5 -332.75 -38.15 -333.5 -36.75 -334.4 -35.35 -334.95 -34.25 -335.3 -33.95 -335.65 -33.6 -336.05 -33.25 -336.65 -32.95 -336.65 -33.25 -336.4 -33.6 -336.25 -33.95 -336.0 -34.3 -336.0 -35.4 -335.85 -36.1 -335.85 -36.45 -335.7 -36.8 -335.5 -37.15 -335.3 -37.5 -335.2 -38.6 -335.05 -40.4 -335.0 -41.05 -335.35 -41.8 -335.5 -42.2 -335.85 -42.6 -336.4 -42.85 -337.35 -43.15 -337.35 -43.1 -338.5 -42.95 -339.0 -42.65 -339.4 -42.3 -339.7 -41.95 -339.85 -41.55 -339.95 -41.2 -340.05 -40.15 -340.15 -39.45 -340.2 -39.15 -340.45 -38.75 -340.6 -38.4 -340.75 -38.0 -340.85 -36.95 -340.9 -36.3 -340.95 -35.9 -341.1 -35.6 -341.35 -35.2 -341.5 -34.85 -341.55 -34.45 -341.6 -34.1 -341.65 -33.75 -341.65 -33.4 Q-342.2 -32.9 -342.15 -32.35 L-342.6 -31.25 -342.75 -30.9 -342.85 -30.55 -342.85 -30.2 -343.25 -29.5 -344.2 -27.7 -344.6 -27.05 -344.65 -26.7 -344.6 -26.35 -346.8 -23.2 Q-347.65 -22.3 -348.05 -21.05 L-350.4 -18.9 -353.55 -16.15 -354.35 -16.2 -353.4 -17.0 -352.6 -18.4 -351.85 -19.45 -351.85 -19.85 -351.8 -20.2 -350.0 -23.15 -347.85 -26.55 -347.85 -26.95 -347.75 -27.25 -347.5 -27.65 -347.25 -27.95 -347.25 -28.35 -347.2 -28.7 -346.9 -29.0 -346.65 -29.35 -346.6 -29.75 -346.6 -30.05 -346.55 -30.45 -346.55 -30.75 -346.35 -31.1 -346.15 -31.5 -345.95 -31.9 -345.95 -32.25 -345.85 -32.6 -345.9 -32.95 -345.6 -33.25 -345.35 -33.6 -345.3 -34.0 -345.25 -34.3 -345.0 -34.7 -344.8 -35.05 -344.7 -35.4 -344.7 -35.75 -344.65 -36.1 -344.6 -36.45 -344.45 -36.8 -344.2 -37.15 -344.1 -37.55 -344.0 -37.85 -344.0 -38.25 -343.95 -38.6 -343.65 -38.95 -343.45 -39.3 -343.3 -39.65 -343.3 -40.0 -343.3 -40.4 -343.3 -40.75 -343.1 -41.05 -342.85 -41.4 -342.7 -41.75 -342.5 -44.65 -342.3 -47.15 -342.45 -47.5 -342.6 -48.3 -342.65 -48.95 -342.65 -49.3 -342.85 -49.65 M-339.6 -25.45 L-339.4 -25.25 -338.25 -25.05 -337.55 -24.9 Q-336.6 -24.4 -335.85 -23.5 L-334.85 -22.4 -334.45 -22.0 -334.9 -20.95 -335.5 -19.95 -336.0 -19.15 -336.15 -18.8 -336.25 -18.4 -336.2 -18.1 -337.45 -15.7 -338.75 -13.2 -339.55 -11.7 -341.5 -11.5 -342.5 -11.65 -342.75 -11.95 -343.35 -12.3 -344.0 -12.7 Q-345.05 -13.8 -346.35 -14.55 L-347.15 -14.9 -344.15 -17.2 -341.15 -22.75 -339.6 -25.45" fill="#80a839" fill-rule="evenodd" stroke="none"/>
    <path d="M-371.2 -103.95 Q-369.25 -106.05 -366.9 -107.65 L-366.15 -108.4 Q-364.8 -109.9 -362.9 -110.65 -360.9 -112.85 -358.3 -114.15 -356.15 -115.2 -354.0 -115.5 L-352.55 -115.35 -350.9 -114.9 -350.55 -114.45 -350.35 -114.15 -350.15 -113.75 -350.0 -113.4 -350.0 -113.0 -350.0 -112.65 -349.9 -112.25 -349.75 -111.9 -349.65 -111.5 -349.5 -111.15 -349.5 -110.75 -349.5 -109.65 -349.5 -107.4 -349.5 -107.0 -349.35 -106.65 -349.15 -106.25 -349.0 -105.9 -349.0 -105.5 -349.0 -105.15 -349.0 -104.75 -348.95 -104.4 -348.8 -104.0 -348.65 -103.65 -348.5 -103.25 -348.5 -102.9 -348.5 -102.75 Q-338.4 -101.55 -329.05 -96.95 L-323.55 -97.1 Q-316.35 -97.5 -309.45 -96.0 L-304.55 -95.0 Q-303.5 -94.8 -302.65 -94.15 L-302.4 -93.75 -302.25 -93.4 -302.15 -93.0 -302.0 -92.65 -302.0 -92.25 -302.0 -91.9 -302.0 -91.5 -302.0 -91.15 -302.4 -90.4 -303.25 -88.8 -307.75 -79.8 Q-310.1 -75.0 -313.05 -70.65 -312.6 -66.05 -312.9 -61.3 -314.2 -43.45 -328.4 -32.55 -330.95 -30.6 -334.1 -29.95 -350.95 -26.4 -366.4 -33.75 -382.65 -41.4 -388.3 -58.05 -390.9 -65.5 -389.65 -73.3 L-388.55 -77.2 Q-387.2 -82.45 -384.05 -86.85 L-383.7 -87.3 -383.4 -88.5 -383.1 -88.85 -382.8 -89.3 -382.35 -90.0 -382.15 -90.4 -381.75 -90.75 -381.4 -91.15 -381.0 -91.5 -380.9 -91.9 -380.75 -92.25 -380.4 -92.65 -380.0 -93.0 -379.25 -93.75 -379.0 -94.15 -378.55 -94.8 -377.65 -96.4 -377.25 -96.75 -376.9 -97.15 -376.5 -97.5 -376.4 -97.9 -376.25 -98.25 -376.0 -98.65 -375.65 -99.4 -371.2 -103.95 M-347.1 -84.15 L-347.5 -84.5 -347.75 -84.9 -347.9 -85.25 -348.15 -85.65 -348.5 -86.0 -348.9 -86.4 -349.2 -86.8 -349.4 -87.15 -349.5 -87.5 -349.5 -87.9 -349.5 -88.25 -349.5 -88.65 -350.1 -90.15 -351.65 -93.45 -352.0 -94.65 -352.0 -95.0 -352.0 -95.4 -352.0 -95.75 -352.15 -96.1 -352.35 -96.5 -352.5 -96.9 -352.5 -97.05 -354.35 -97.35 -354.0 -103.2 -354.0 -103.25 -354.0 -103.65 -354.0 -104.0 -354.05 -104.35 -354.25 -104.75 -354.4 -105.15 -354.5 -105.5 -354.5 -105.9 -354.5 -107.0 -354.55 -109.25 -354.65 -109.65 -355.45 -109.55 Q-357.15 -108.9 -358.65 -107.9 L-358.8 -107.5 -359.0 -107.1 -360.1 -105.95 -360.4 -105.75 -360.75 -105.65 -361.65 -105.4 -362.8 -104.3 -365.4 -102.2 Q-367.0 -99.4 -371.6 -92.95 L-364.0 -92.65 -364.0 -93.0 -364.0 -93.75 -364.0 -94.9 -363.9 -95.25 -363.75 -95.65 -363.5 -96.0 -363.1 -96.35 -362.65 -96.75 -361.5 -96.95 -361.5 -97.0 -360.55 -96.7 -359.9 -96.4 -359.55 -95.95 -359.35 -95.65 -359.0 -94.9 -359.0 -94.5 -359.0 -94.15 -359.0 -93.75 -358.95 -93.4 -358.8 -93.0 -358.5 -92.25 -358.5 -91.5 -358.5 -90.0 -358.5 -89.25 -358.65 -88.9 -358.8 -88.5 -359.0 -88.15 -359.2 -87.85 -359.3 -87.8 -359.75 -87.4 -362.0 -87.5 -378.0 -86.55 -378.5 -86.0 -378.65 -85.5 Q-379.3 -83.0 -381.35 -81.95 -383.95 -77.55 -384.9 -72.35 -386.3 -60.45 -379.2 -50.45 -371.4 -39.5 -358.5 -35.35 -345.0 -30.95 -331.85 -36.1 -328.6 -37.4 -326.3 -40.2 L-322.9 -44.5 Q-317.5 -54.85 -317.45 -66.5 L-317.55 -69.6 -317.75 -69.9 -317.9 -70.25 -318.0 -70.65 -318.0 -71.0 -318.0 -71.4 -318.0 -71.75 -318.0 -72.15 -317.9 -72.4 Q-318.35 -75.3 -319.3 -78.15 -321.65 -85.15 -326.55 -89.65 -330.65 -94.05 -333.45 -93.95 L-333.5 -94.15 -333.5 -94.25 Q-335.95 -95.4 -338.8 -96.2 -343.1 -97.4 -347.0 -97.35 L-347.0 -97.25 -347.0 -96.9 -347.0 -96.5 -347.0 -96.15 -346.35 -94.65 Q-345.35 -92.85 -344.7 -90.9 L-344.5 -89.75 -344.05 -89.0 -342.85 -87.15 Q-342.45 -86.65 -342.5 -86.0 L-342.55 -85.65 -342.65 -85.25 -342.85 -84.85 -343.0 -84.5 -343.4 -84.15 -344.05 -83.8 -345.0 -83.5 -345.05 -83.5 -345.5 -83.55 -346.65 -83.75 -347.05 -84.1 -347.1 -84.15 M-314.25 -79.25 L-313.2 -81.1 Q-312.9 -81.65 -312.75 -82.25 L-312.4 -82.65 -312.0 -83.0 -311.9 -83.4 -311.75 -83.75 -311.55 -84.15 -310.95 -85.3 -310.75 -85.6 -309.8 -87.45 Q-309.45 -88.2 -309.4 -89.0 L-309.1 -89.35 -308.8 -89.75 -308.5 -90.15 -310.5 -90.6 Q-316.05 -92.1 -321.85 -92.1 -317.55 -87.95 -315.45 -81.85 L-314.65 -79.1 -314.5 -78.6 -314.4 -78.9 -314.25 -79.25" fill="#000000" fill-rule="evenodd" stroke="none"/>
    <path d="M-359.0 -88.15 L-358.8 -88.5 -358.65 -88.9 -358.5 -89.25 -358.5 -90.0 -358.5 -91.5 -358.5 -92.25 -358.8 -93.0 -358.95 -93.4 -359.0 -93.75 -359.0 -94.15 -359.0 -94.5 -359.0 -94.9 -359.35 -95.65 -359.55 -95.95 -359.9 -96.4 -360.55 -96.7 -361.5 -97.0 -361.5 -96.95 -362.65 -96.75 -363.1 -96.35 -363.5 -96.0 -363.75 -95.65 -363.9 -95.25 -364.0 -94.9 -364.0 -93.75 -364.0 -93.0 -364.0 -92.65 -371.6 -92.95 Q-367.0 -99.4 -365.4 -102.2 L-362.8 -104.3 -361.65 -105.4 -360.75 -105.65 -360.4 -105.75 -360.1 -105.95 -359.0 -107.1 -358.8 -107.5 -358.65 -107.9 Q-357.15 -108.9 -355.45 -109.55 L-354.65 -109.65 -354.55 -109.25 -354.5 -107.0 -354.5 -105.9 -354.5 -105.5 -354.4 -105.15 -354.25 -104.75 -354.05 -104.35 -354.0 -104.0 -354.0 -103.65 -354.0 -103.25 -354.0 -103.2 -354.35 -97.35 -352.5 -97.05 -352.5 -96.9 -352.35 -96.5 -352.15 -96.1 -352.0 -95.75 -352.0 -95.4 -352.0 -95.0 -352.0 -94.65 -351.65 -93.45 -350.1 -90.15 -349.5 -88.65 -349.5 -88.25 -349.5 -87.9 -349.5 -87.5 -349.4 -87.15 -349.2 -86.8 -348.9 -86.4 -348.5 -86.0 -348.15 -85.65 -347.9 -85.25 -347.75 -84.9 -347.5 -84.5 -347.1 -84.15 -347.1 -84.1 Q-357.2 -87.15 -359.15 -87.85 L-359.0 -88.15 M-314.65 -79.1 L-315.45 -81.85 Q-317.55 -87.95 -321.85 -92.1 -316.05 -92.1 -310.5 -90.6 L-308.5 -90.15 -308.8 -89.75 -309.1 -89.35 -309.4 -89.0 Q-309.45 -88.2 -309.8 -87.45 L-310.75 -85.6 -310.95 -85.3 -311.55 -84.15 -311.75 -83.75 -311.9 -83.4 -312.0 -83.0 -312.4 -82.65 -312.75 -82.25 Q-312.9 -81.65 -313.2 -81.1 L-314.25 -79.25 -314.65 -79.1" fill="#cc3300" fill-rule="evenodd" stroke="none"/>
    <path d="M-359.15 -87.85 Q-357.2 -87.15 -347.1 -84.1 L-347.05 -84.1 -346.65 -83.75 -345.5 -83.55 -345.05 -83.5 -345.0 -83.5 -344.05 -83.8 -343.4 -84.15 -343.0 -84.5 -342.85 -84.85 -342.65 -85.25 -342.55 -85.65 -342.5 -86.0 Q-342.45 -86.65 -342.85 -87.15 L-344.05 -89.0 -344.5 -89.75 -344.7 -90.9 Q-345.35 -92.85 -346.35 -94.65 L-347.0 -96.15 -347.0 -96.5 -347.0 -96.9 -347.0 -97.25 -347.0 -97.35 Q-343.1 -97.4 -338.8 -96.2 -335.95 -95.4 -333.5 -94.25 L-333.5 -94.15 -333.45 -93.95 Q-330.65 -94.05 -326.55 -89.65 -321.65 -85.15 -319.3 -78.15 -318.35 -75.3 -317.9 -72.4 L-318.0 -72.15 -318.0 -71.75 -318.0 -71.4 -318.0 -71.0 -318.0 -70.65 -317.9 -70.25 -317.75 -69.9 -317.55 -69.6 -317.45 -66.5 Q-317.5 -54.85 -322.9 -44.5 L-326.3 -40.2 Q-328.6 -37.4 -331.85 -36.1 -345.0 -30.95 -358.5 -35.35 -371.4 -39.5 -379.2 -50.45 -386.3 -60.45 -384.9 -72.35 -383.95 -77.55 -381.35 -81.95 -379.3 -83.0 -378.65 -85.5 L-378.5 -86.0 -378.0 -86.55 -362.0 -87.5 -359.75 -87.4 -359.3 -87.8 -359.2 -87.85 -359.15 -87.85" fill="#b1e34d" fill-rule="evenodd" stroke="none"/>
    <path d="M-353.0 -76.75 L-351.95 -76.05 -351.15 -75.4 -347.35 -73.2 Q-346.1 -72.5 -345.15 -71.4 -344.0 -71.0 -342.95 -70.4 L-340.9 -69.1 -340.5 -68.75 -339.9 -68.45 -339.4 -68.1 -339.0 -67.75 -337.95 -67.05 -337.15 -66.4 -335.95 -65.55 -335.3 -65.05 -335.25 -65.65 Q-330.8 -62.4 -330.3 -62.25 -328.95 -61.9 -328.25 -60.75 L-328.25 -60.4 -328.3 -60.0 -328.55 -59.3 -328.75 -59.0 -329.0 -58.9 -329.5 -58.8 -330.0 -58.75 -331.75 -59.5 -331.9 -59.55 -332.0 -59.4 -332.25 -59.0 -332.25 -58.65 -332.25 -58.25 -333.15 -56.35 -333.75 -54.5 -334.65 -52.65 -335.0 -52.25 -336.15 -51.15 -336.75 -50.5 -339.0 -49.8 -342.0 -48.75 -344.8 -48.75 -339.95 -46.9 Q-334.0 -44.5 -328.1 -42.45 L-327.75 -42.0 -327.9 -41.65 -328.05 -41.3 -328.5 -40.9 Q-338.5 -42.75 -347.9 -46.9 -351.7 -48.55 -355.75 -49.5 L-356.9 -49.5 -357.5 -49.25 -358.0 -49.3 -358.65 -49.6 -359.25 -50.25 -359.25 -50.65 -359.2 -50.95 -358.9 -51.4 -358.5 -51.75 -358.25 -51.95 -357.55 -52.2 -357.5 -52.25 -356.0 -52.25 Q-350.9 -50.9 -345.9 -49.1 L-347.05 -49.7 -347.75 -50.0 -349.6 -51.9 -351.5 -53.75 -352.25 -54.5 -352.4 -54.85 -352.75 -55.65 -353.25 -56.75 -353.25 -57.15 -353.25 -57.5 -353.3 -57.85 -353.5 -58.25 -353.75 -58.65 -353.75 -59.75 -353.75 -62.0 -353.75 -63.15 -353.75 -63.5 -353.7 -63.85 -353.5 -64.25 -353.25 -64.65 -353.25 -65.0 -353.25 -65.4 -353.1 -65.75 -352.9 -66.15 -352.8 -66.5 -352.75 -66.9 -352.5 -67.25 -352.3 -67.65 -352.25 -68.0 -351.9 -68.4 -351.15 -69.15 -350.75 -69.5 -349.9 -69.9 -348.5 -70.6 -348.2 -70.7 -348.85 -71.15 -349.0 -71.25 -349.75 -71.5 -350.8 -72.2 -352.25 -73.0 -352.65 -73.4 -352.9 -73.65 -353.0 -73.7 -353.7 -74.05 -354.15 -74.4 -354.2 -74.75 -354.25 -75.5 -354.2 -75.85 -354.0 -76.25 -353.75 -76.5 -353.5 -76.6 -353.0 -76.7 -353.0 -76.75 M-345.65 -68.65 Q-346.65 -68.0 -347.8 -67.75 -349.0 -67.45 -349.9 -66.5 L-350.1 -66.1 -350.4 -65.4 -350.75 -64.65 -350.75 -64.25 -350.75 -63.9 -350.9 -63.5 -351.1 -63.1 -351.25 -62.75 -351.25 -62.4 -351.25 -61.25 -351.25 -59.75 -351.1 -59.4 -350.9 -59.0 -350.75 -58.65 -350.75 -58.25 -350.75 -57.9 -350.7 -57.5 -350.5 -57.15 -350.25 -56.75 -350.25 -56.4 -350.15 -56.0 -349.5 -55.25 Q-348.35 -53.9 -346.9 -53.0 L-346.55 -52.6 -346.25 -52.25 -345.65 -51.9 -344.9 -51.5 -342.25 -51.5 -340.0 -52.25 -337.75 -53.0 -337.55 -53.3 -339.0 -53.25 -339.7 -53.55 -340.15 -53.9 -340.2 -54.25 -340.25 -55.4 -340.25 -56.9 -340.0 -57.25 -339.65 -57.65 -339.25 -58.0 -338.5 -58.25 -337.9 -58.0 -337.15 -57.8 -336.9 -58.0 -336.8 -58.4 -336.75 -58.75 -336.75 -59.15 -337.0 -59.25 Q-337.4 -59.4 -337.65 -59.6 L-338.25 -60.25 -338.2 -60.6 -337.9 -61.4 -337.65 -62.15 -337.2 -62.4 -336.55 -62.7 -336.5 -62.75 -336.9 -63.15 -337.25 -63.5 -337.55 -63.7 -338.25 -64.0 -338.65 -64.4 -338.9 -64.65 -339.0 -64.7 -339.75 -65.0 -340.15 -65.4 -340.5 -65.75 -340.9 -66.15 -341.75 -66.5 -342.15 -66.9 -342.4 -67.15 -342.5 -67.25 Q-343.0 -67.5 -343.5 -67.7 L-344.25 -68.0 -344.65 -68.35 -345.0 -68.65 -345.5 -68.75 -345.55 -68.75 -345.65 -68.65 M-333.15 -39.65 L-333.5 -39.4 -334.0 -39.3 -336.0 -39.25 -338.0 -39.8 -338.65 -40.1 -339.25 -40.75 -339.25 -41.15 -339.2 -41.45 -338.85 -41.8 -338.05 -42.2 -338.0 -42.25 -336.5 -42.25 -334.0 -41.7 -333.45 -41.45 -332.75 -40.75 -332.8 -40.4 -332.9 -40.0 -333.15 -39.65 M-318.25 -56.5 L-318.25 -56.8 -318.5 -56.75 -319.25 -57.0 -319.25 -56.65 -319.25 -56.25 -319.5 -55.9 -319.65 -55.65 -319.55 -55.7 -319.5 -55.75 -318.45 -55.35 -318.3 -55.25 -318.25 -55.4 -318.25 -55.75 -318.25 -56.5 M-315.5 -60.7 L-314.0 -61.25 -312.95 -60.85 -312.25 -60.25 -312.3 -59.9 -312.4 -59.5 -312.65 -59.15 Q-313.95 -58.45 -315.3 -57.85 L-315.45 -57.15 -315.75 -56.4 -315.75 -56.0 -315.75 -55.65 -315.75 -54.9 -316.05 -54.15 -316.6 -53.0 -316.75 -52.65 -316.75 -52.25 -316.75 -51.9 -317.6 -49.95 -318.5 -47.75 -318.9 -47.4 -319.25 -47.0 -319.65 -46.65 -319.8 -46.25 -320.0 -45.9 -320.4 -45.55 -321.0 -45.25 -322.0 -45.25 -322.75 -45.55 -323.15 -45.9 -323.3 -48.9 -323.25 -51.9 -323.25 -52.25 -323.1 -52.6 -322.9 -53.0 -322.75 -53.4 -322.75 -53.75 -322.75 -54.15 -322.75 -54.5 -322.7 -54.85 -322.5 -55.25 -322.25 -55.65 -322.25 -56.0 -322.25 -56.4 -322.0 -56.75 -321.75 -57.15 -321.75 -57.5 -321.75 -57.9 -321.5 -58.25 -321.3 -58.65 -321.25 -59.0 -320.55 -59.8 Q-320.15 -60.25 -319.5 -60.2 L-319.5 -60.25 -318.95 -59.95 -318.65 -59.7 -315.5 -60.7 M-319.5 -52.85 L-320.25 -53.05 -320.25 -52.5 -320.4 -52.15 -320.55 -51.75 -320.75 -51.4 -320.75 -51.0 -320.75 -50.25 -320.75 -49.65 -320.05 -50.9 -319.35 -52.4 -319.25 -52.75 -319.25 -52.8 -319.5 -52.85" fill="#000000" fill-rule="evenodd" stroke="none"/>
    <path d="M-345.65 -68.65 L-345.55 -68.75 -345.5 -68.75 -345.0 -68.65 -344.65 -68.35 -344.25 -68.0 -343.5 -67.7 Q-343.0 -67.5 -342.5 -67.25 L-342.4 -67.15 -342.15 -66.9 -341.75 -66.5 -340.9 -66.15 -340.5 -65.75 -340.15 -65.4 -339.75 -65.0 -339.0 -64.7 -338.9 -64.65 -338.65 -64.4 -338.25 -64.0 -337.55 -63.7 -337.25 -63.5 -336.9 -63.15 -336.5 -62.75 -336.55 -62.7 -337.2 -62.4 -337.65 -62.15 -337.9 -61.4 -338.2 -60.6 -338.25 -60.25 -337.65 -59.6 Q-337.4 -59.4 -337.0 -59.25 L-336.75 -59.15 -336.75 -58.75 -336.8 -58.4 -336.9 -58.0 -337.15 -57.8 -337.9 -58.0 -338.5 -58.25 -339.25 -58.0 -339.65 -57.65 -340.0 -57.25 -340.25 -56.9 -340.25 -55.4 -340.2 -54.25 -340.15 -53.9 -339.7 -53.55 -339.0 -53.25 -337.55 -53.3 -337.75 -53.0 -340.0 -52.25 -342.25 -51.5 -344.9 -51.5 -345.65 -51.9 -346.25 -52.25 -346.55 -52.6 -346.9 -53.0 Q-348.35 -53.9 -349.5 -55.25 L-350.15 -56.0 -350.25 -56.4 -350.25 -56.75 -350.5 -57.15 -350.7 -57.5 -350.75 -57.9 -350.75 -58.25 -350.75 -58.65 -350.9 -59.0 -351.1 -59.4 -351.25 -59.75 -351.25 -61.25 -351.25 -62.4 -351.25 -62.75 -351.1 -63.1 -350.9 -63.5 -350.75 -63.9 -350.75 -64.25 -350.75 -64.65 -350.4 -65.4 -350.1 -66.1 -349.9 -66.5 Q-349.0 -67.45 -347.8 -67.75 -346.65 -68.0 -345.65 -68.65 M-318.25 -56.5 L-318.25 -55.75 -318.25 -55.4 -318.3 -55.25 -318.45 -55.35 -319.5 -55.75 -319.55 -55.7 -319.65 -55.65 -319.5 -55.9 -319.25 -56.25 -319.25 -56.65 -319.25 -57.0 -318.5 -56.75 -318.25 -56.8 -318.25 -56.5 M-319.5 -52.85 L-319.25 -52.8 -319.25 -52.75 -319.35 -52.4 -320.05 -50.9 -320.75 -49.65 -320.75 -50.25 -320.75 -51.0 -320.75 -51.4 -320.55 -51.75 -320.4 -52.15 -320.25 -52.5 -320.25 -53.05 -319.5 -52.85" fill="#ffffff" fill-rule="evenodd" stroke="none"/>
  </g>
</svg>
