<?xml version="1.0" encoding="UTF-8" standalone="no"?>
<svg xmlns:ffdec="https://www.free-decompiler.com/flash" xmlns:xlink="http://www.w3.org/1999/xlink" ffdec:objectType="shape" height="96.9px" width="74.95px" xmlns="http://www.w3.org/2000/svg">
  <g transform="matrix(1.0, 0.0, 0.0, 1.0, 311.1, 96.2)">
    <path d="M-272.8 -95.85 Q-271.9 -95.4 -271.15 -94.65 -270.35 -93.75 -270.05 -92.55 L-268.3 -90.55 -267.55 -88.9 Q-264.1 -84.15 -261.4 -78.8 L-258.6 -72.5 Q-254.3 -73.2 -249.6 -72.7 L-243.8 -72.4 -242.7 -72.0 Q-240.7 -71.35 -240.1 -69.45 L-239.4 -66.9 -239.4 -66.45 -239.45 -66.1 -239.4 -65.6 -239.25 -65.15 -239.1 -64.6 -238.85 -63.6 -238.7 -63.1 -238.65 -62.65 -238.7 -62.25 -238.7 -61.8 -238.55 -61.3 -238.4 -60.75 -238.15 -59.75 -238.0 -59.25 -238.0 -57.0 -237.8 -53.5 -237.45 -52.1 -237.4 -50.4 -237.25 -47.15 Q-237.15 -46.35 -237.5 -45.65 L-237.35 -45.1 -237.3 -44.7 -237.35 -44.3 -237.35 -43.85 -237.2 -43.35 -237.1 -42.85 -237.0 -41.95 -237.05 -41.55 -236.9 -41.0 -236.8 -40.55 -236.6 -40.0 -236.6 -39.2 -236.25 -37.15 Q-236.05 -36.35 -236.3 -35.5 L-236.5 -35.2 -236.75 -34.95 -237.05 -34.7 -237.3 -34.4 Q-237.15 -26.35 -241.15 -19.2 L-243.45 -15.65 -244.0 -15.15 -245.4 -13.8 -246.35 -12.7 -247.15 -11.8 -247.75 -10.9 Q-254.4 -3.9 -263.15 -0.95 -276.1 3.45 -288.3 -3.8 -302.95 -12.6 -310.4 -28.35 L-310.75 -29.1 Q-311.75 -33.25 -310.05 -44.75 -308.4 -56.3 -297.0 -66.2 L-295.6 -67.35 -295.65 -67.45 -295.65 -67.9 -295.65 -68.3 -295.5 -68.7 -295.35 -69.0 -295.15 -69.35 -295.0 -69.65 -294.8 -70.0 -294.6 -70.3 -294.35 -70.6 -294.05 -70.85 -293.6 -71.05 -293.25 -71.7 -292.9 -72.35 -292.35 -73.35 -292.0 -73.95 -291.7 -74.3 -291.4 -74.5 -290.95 -74.7 -290.45 -75.7 -289.7 -77.0 -289.35 -77.65 -288.75 -78.65 -288.45 -78.85 -288.1 -79.15 -287.8 -79.35 -287.6 -79.7 -287.45 -80.0 -287.15 -80.3 -286.85 -80.55 -286.45 -80.75 -286.1 -81.4 -285.7 -82.1 -285.15 -83.0 -284.8 -83.7 -284.5 -84.0 -284.2 -84.2 -283.8 -84.45 -283.65 -84.75 -283.45 -85.1 -283.25 -85.4 -283.1 -85.75 -282.9 -86.05 -282.65 -86.35 -282.35 -86.6 -281.9 -86.8 -281.75 -87.15 -281.55 -87.45 -281.35 -87.75 -281.15 -88.1 -281.0 -88.4 -280.7 -88.7 -280.4 -88.95 -280.0 -89.2 -279.1 -90.8 -278.15 -92.45 -277.25 -94.05 -276.7 -95.05 -276.45 -95.3 -276.1 -95.55 -275.7 -95.75 -275.2 -95.95 -274.7 -96.05 -274.2 -96.2 -273.5 -96.1 -272.85 -95.8 -272.8 -95.85 M-266.2 -65.4 L-266.9 -65.5 -263.0 -70.15 Q-263.9 -72.0 -265.1 -73.65 L-265.25 -74.15 -265.4 -74.7 -265.55 -75.15 -270.6 -84.0 Q-272.25 -86.75 -274.2 -89.3 L-274.75 -88.35 -275.45 -87.05 -275.85 -86.4 -276.4 -85.4 -276.7 -85.15 -277.1 -84.9 -277.4 -84.7 -277.55 -84.35 -277.75 -84.0 -277.9 -83.7 -278.1 -83.35 -278.3 -83.05 -278.6 -82.75 -278.95 -82.55 -279.3 -82.3 -279.45 -82.0 -279.65 -81.65 -279.8 -81.35 -280.05 -81.0 -280.4 -80.35 -280.7 -80.1 -281.0 -79.85 -281.35 -79.65 -281.75 -78.95 -282.1 -78.3 -282.65 -77.3 -282.8 -77.0 -283.15 -76.75 -283.55 -76.5 -283.85 -76.25 -284.0 -75.95 -284.2 -75.6 -284.5 -75.4 -284.8 -75.1 -285.15 -74.9 -285.7 -73.9 -286.45 -72.6 -286.5 -72.55 Q-283.0 -73.75 -279.45 -73.7 L-279.3 -75.05 -279.25 -76.0 -278.95 -76.7 -278.25 -78.0 -277.8 -78.6 -277.4 -78.75 -276.85 -78.95 -276.35 -79.1 -275.7 -79.0 -275.0 -78.7 -275.0 -78.75 -274.3 -78.0 -273.9 -77.45 Q-273.65 -76.55 -273.9 -75.65 -274.25 -74.55 -274.25 -73.25 L-277.75 -68.0 -277.95 -67.7 -282.15 -67.45 -289.1 -65.95 Q-299.35 -62.7 -301.9 -54.15 -308.1 -44.7 -306.1 -32.3 -304.1 -19.95 -289.9 -9.75 -277.7 -0.95 -264.2 -5.85 -255.75 -8.95 -250.1 -16.3 -245.2 -20.85 -243.35 -27.45 -240.6 -37.5 -245.35 -47.35 -248.85 -54.65 -253.95 -60.2 L-254.15 -59.8 -254.3 -59.5 -254.55 -59.15 Q-257.8 -64.2 -266.2 -65.4 M-244.55 -65.65 L-244.85 -66.65 Q-248.85 -67.7 -253.6 -67.7 L-254.5 -67.7 Q-247.45 -62.1 -243.15 -54.4 L-243.15 -54.55 Q-243.0 -55.3 -243.2 -55.95 L-243.25 -57.65 -243.15 -57.95 -243.3 -58.5 -243.6 -59.55 -244.15 -61.6 -244.15 -62.0 -244.25 -62.8 -244.3 -64.2 -244.25 -64.65 -244.4 -65.15 -244.55 -65.65" fill="#000000" fill-rule="evenodd" stroke="none"/>
    <path d="M-282.15 -67.45 L-277.95 -67.7 -277.75 -68.0 -274.25 -73.25 Q-274.25 -74.55 -273.9 -75.65 -273.65 -76.55 -273.9 -77.45 L-274.3 -78.0 -275.0 -78.75 -275.0 -78.7 -275.7 -79.0 -276.35 -79.1 -276.85 -78.95 -277.4 -78.75 -277.8 -78.6 -278.25 -78.0 -278.95 -76.7 -279.25 -76.0 -279.3 -75.05 -279.45 -73.7 Q-283.0 -73.75 -286.5 -72.55 L-286.45 -72.6 -285.7 -73.9 -285.15 -74.9 -284.8 -75.1 -284.5 -75.4 -284.2 -75.6 -284.0 -75.95 -283.85 -76.25 -283.55 -76.5 -283.15 -76.75 -282.8 -77.0 -282.65 -77.3 -282.1 -78.3 -281.75 -78.95 -281.35 -79.65 -281.0 -79.85 -280.7 -80.1 -280.4 -80.35 -280.05 -81.0 -279.8 -81.35 -279.65 -81.65 -279.45 -82.0 -279.3 -82.3 -278.95 -82.55 -278.6 -82.75 -278.3 -83.05 -278.1 -83.35 -277.9 -83.7 -277.75 -84.0 -277.55 -84.35 -277.4 -84.7 -277.1 -84.9 -276.7 -85.15 -276.4 -85.4 -275.85 -86.4 -275.45 -87.05 -274.75 -88.35 -274.2 -89.3 Q-272.25 -86.75 -270.6 -84.0 L-265.55 -75.15 -265.4 -74.7 -265.25 -74.15 -265.1 -73.65 Q-263.9 -72.0 -263.0 -70.15 L-266.9 -65.5 -266.2 -65.4 -266.3 -64.9 -273.55 -66.15 -282.15 -67.45 M-244.55 -65.65 L-244.4 -65.15 -244.25 -64.65 -244.3 -64.2 -244.25 -62.8 -244.15 -62.0 -244.15 -61.6 -243.6 -59.55 -243.3 -58.5 -243.15 -57.95 -243.25 -57.65 -243.2 -55.95 Q-243.0 -55.3 -243.15 -54.55 L-243.15 -54.4 Q-247.45 -62.1 -254.5 -67.7 L-253.6 -67.7 Q-248.85 -67.7 -244.85 -66.65 L-244.55 -65.65" fill="#cc3300" fill-rule="evenodd" stroke="none"/>
    <path d="M-282.15 -67.45 L-273.55 -66.15 -266.3 -64.9 -266.2 -65.4 Q-257.8 -64.2 -254.55 -59.15 L-254.3 -59.5 -254.15 -59.8 -253.95 -60.2 Q-248.85 -54.65 -245.35 -47.35 -240.6 -37.5 -243.35 -27.45 -245.2 -20.85 -250.1 -16.3 -255.75 -8.95 -264.2 -5.85 -277.7 -0.95 -289.9 -9.75 -304.1 -19.95 -306.1 -32.3 -308.1 -44.7 -301.9 -54.15 -299.35 -62.7 -289.1 -65.95 L-282.15 -67.45" fill="#b1e34d" fill-rule="evenodd" stroke="none"/>
    <path d="M-277.5 -50.55 Q-270.1 -46.05 -262.9 -40.95 -257.85 -37.35 -252.25 -34.65 -249.35 -32.45 -245.9 -31.45 L-244.85 -30.95 Q-247.95 -29.55 -248.95 -30.0 L-249.0 -29.4 -249.15 -27.85 -249.25 -27.1 Q-250.3 -25.25 -251.95 -23.9 L-252.2 -23.65 -252.6 -23.3 -252.9 -23.1 -253.15 -23.05 -253.2 -23.0 -254.3 -22.4 Q-257.25 -21.1 -260.5 -20.9 L-261.5 -21.05 Q-264.25 -22.05 -266.7 -23.5 L-267.15 -23.9 -267.35 -24.25 -267.55 -24.65 -268.7 -25.6 -269.9 -26.9 -270.35 -28.1 -270.9 -30.05 -271.0 -30.45 -270.7 -32.7 -270.35 -35.3 -270.2 -36.4 -270.0 -36.8 -269.8 -37.1 -269.45 -37.85 -269.3 -38.2 -268.85 -38.5 -268.45 -38.85 -268.25 -39.15 -268.1 -39.5 -267.65 -39.8 -266.8 -40.45 -267.9 -41.3 Q-272.8 -44.8 -277.85 -48.1 L-278.5 -48.5 -278.85 -48.9 -278.95 -49.25 -278.75 -49.9 -278.0 -50.4 -277.5 -50.5 -277.5 -50.55 M-253.45 -28.0 L-254.45 -28.8 -254.5 -29.15 -254.45 -29.55 -254.4 -29.9 -254.3 -30.2 Q-253.8 -30.65 -253.45 -31.2 L-252.8 -31.8 -253.75 -32.7 Q-259.1 -35.4 -264.1 -38.65 L-265.1 -38.4 -265.8 -38.2 -266.0 -37.85 -266.25 -37.5 -267.0 -36.85 -267.15 -36.5 -267.35 -36.15 -267.55 -35.8 -267.75 -35.45 -267.95 -33.95 -268.25 -32.1 -268.4 -31.0 -268.25 -30.2 -267.95 -29.05 -267.7 -28.25 Q-267.2 -27.35 -266.2 -26.85 -265.35 -26.45 -265.1 -25.6 -264.85 -24.85 -264.1 -24.65 L-261.35 -23.8 -259.85 -23.55 -256.3 -24.2 -255.35 -24.35 -255.2 -24.45 -255.3 -24.6 -255.6 -25.0 -255.55 -25.4 -255.5 -26.1 Q-255.5 -26.8 -255.05 -27.25 L-254.75 -27.4 -254.5 -27.45 -254.0 -27.55 -253.4 -27.55 -253.25 -27.7 -253.25 -27.9 -253.45 -28.0 M-266.35 -20.45 L-266.1 -20.5 -265.6 -20.55 -265.55 -20.6 Q-262.7 -19.05 -259.3 -17.8 -255.9 -16.55 -254.0 -15.2 L-254.2 -14.85 -254.4 -14.55 -254.65 -14.3 -254.9 -14.2 -259.75 -15.65 Q-263.35 -16.65 -266.55 -18.4 L-266.85 -18.8 -267.0 -19.15 -267.0 -19.55 -266.9 -19.85 -266.65 -20.25 -266.35 -20.45" fill="#000000" fill-rule="evenodd" stroke="none"/>
    <path d="M-253.45 -28.0 L-253.25 -27.9 -253.25 -27.7 -253.4 -27.55 -254.0 -27.55 -254.5 -27.45 -254.75 -27.4 -255.05 -27.25 Q-255.5 -26.8 -255.5 -26.1 L-255.55 -25.4 -255.6 -25.0 -255.3 -24.6 -255.2 -24.45 -255.35 -24.35 -256.3 -24.2 -259.85 -23.55 -261.35 -23.8 -264.1 -24.65 Q-264.85 -24.85 -265.1 -25.6 -265.35 -26.45 -266.2 -26.85 -267.2 -27.35 -267.7 -28.25 L-267.95 -29.05 -268.25 -30.2 -268.4 -31.0 -268.25 -32.1 -267.95 -33.95 -267.75 -35.45 -267.55 -35.8 -267.35 -36.15 -267.15 -36.5 -267.0 -36.85 -266.25 -37.5 -266.0 -37.85 -265.8 -38.2 -265.1 -38.4 -264.1 -38.65 Q-259.1 -35.4 -253.75 -32.7 L-252.8 -31.8 -253.45 -31.2 Q-253.8 -30.65 -254.3 -30.2 L-254.4 -29.9 -254.45 -29.55 -254.5 -29.15 -254.45 -28.8 -253.45 -28.0" fill="#ffffff" fill-rule="evenodd" stroke="none"/>
  </g>
</svg>
