<?xml version="1.0" encoding="UTF-8" standalone="no"?>
<svg xmlns:ffdec="https://www.free-decompiler.com/flash" xmlns:xlink="http://www.w3.org/1999/xlink" ffdec:objectType="shape" height="122.45px" width="169.7px" xmlns="http://www.w3.org/2000/svg">
  <g transform="matrix(1.0, 0.0, 0.0, 1.0, 373.9, 35.5)">
    <path d="M-296.45 -13.15 L-296.35 -13.5 -296.0 -13.85 -295.6 -14.25 -295.25 -14.65 -294.8 -15.0 -294.65 -15.4 -294.5 -15.75 -292.85 -17.25 -290.85 -19.15 -288.9 -20.15 Q-288.1 -20.65 -287.4 -21.25 -271.95 -24.15 -256.9 -21.3 L-256.6 -21.65 -255.95 -21.85 -255.2 -22.0 -233.05 -22.95 -221.2 -24.75 -215.9 -29.4 -212.75 -31.15 -210.75 -33.0 -208.15 -35.25 -207.0 -35.45 -206.95 -35.5 -206.05 -35.15 -205.1 -34.5 -204.75 -34.15 -204.5 -33.75 -204.4 -33.4 -204.35 -33.0 -204.2 -32.65 -204.25 -32.25 -204.3 -31.9 -204.35 -31.15 -204.4 -30.75 -204.55 -30.4 -204.75 -30.0 -205.0 -29.65 -205.05 -29.25 -205.05 -28.9 Q-205.6 -27.4 -206.3 -26.05 L-206.6 -23.15 -206.65 -22.4 -206.85 -22.0 -206.95 -21.65 -207.15 -21.25 -207.3 -20.9 -207.3 -20.5 -207.35 -20.15 -207.55 -19.75 -207.75 -19.35 -207.95 -19.0 -208.0 -18.65 -208.0 -18.25 -208.05 -17.9 -208.25 -17.5 -208.35 -17.15 -208.55 -16.75 -208.7 -16.4 -208.7 -16.0 -208.75 -15.65 -208.8 -15.25 -209.15 -14.55 -209.7 -13.4 -210.0 -12.65 -210.05 -12.25 -210.1 -11.9 -210.95 -10.0 -212.55 -7.0 -212.55 -6.65 -212.6 -6.25 -212.95 -5.55 -213.5 -4.4 -213.85 -3.65 -213.85 -3.25 -213.9 -2.9 -213.95 -2.5 -213.95 -2.15 -215.25 0.45 -215.8 1.55 -215.7 1.6 -215.4 2.0 -215.2 2.35 -215.0 3.15 -214.95 3.5 -215.05 3.85 -215.2 4.25 -215.4 4.65 -215.6 5.0 -216.05 5.35 -216.45 5.75 -216.95 6.1 -218.2 6.4 -218.25 6.5 -218.65 6.85 -219.35 7.2 -220.35 7.5 -221.45 7.25 -221.65 7.1 Q-242.9 11.3 -264.25 12.2 L-267.45 12.25 -269.45 15.95 Q-270.65 18.2 -272.45 20.0 L-272.75 20.4 -272.9 20.75 -273.2 21.1 -273.6 21.5 -274.25 22.25 -274.7 23.0 -275.15 23.35 -275.95 24.1 -276.35 24.5 Q-280.15 30.5 -286.25 34.25 L-287.1 34.75 -281.6 38.1 Q-278.6 39.75 -276.45 42.5 -275.15 43.05 -274.15 44.0 L-272.75 45.5 -272.6 45.85 -272.45 46.25 -272.35 46.6 -272.5 48.5 -272.7 50.35 -272.85 52.25 -272.9 52.6 -273.05 53.0 -273.2 53.35 -273.4 53.75 -273.5 54.1 -273.6 54.85 -273.7 56.0 -273.8 57.1 -273.95 57.5 -274.1 57.85 -274.3 58.25 -274.55 58.6 -274.95 59.0 Q-275.1 59.8 -275.6 60.5 L-276.75 62.35 -277.35 63.5 -277.4 63.85 -277.45 64.25 -279.55 67.65 -281.65 70.95 -283.15 73.25 Q-283.2 74.2 -282.75 75.15 L-281.7 77.05 Q-281.2 77.7 -281.2 78.5 L-281.3 78.85 -281.4 79.25 -281.65 79.65 -281.85 80.0 Q-282.55 80.7 -283.4 80.85 L-283.75 81.2 -284.25 81.6 -284.8 81.8 -285.5 82.0 Q-297.8 84.05 -308.15 79.1 -309.55 78.8 -310.7 78.05 -311.1 77.8 -311.55 77.6 L-312.2 76.85 -313.55 75.35 -313.9 75.0 -314.1 74.6 -314.2 74.25 -314.3 73.85 -314.25 73.5 -314.2 73.1 -314.2 72.75 -314.1 72.0 -314.0 71.6 -313.8 71.25 -313.55 70.85 -313.1 70.1 -312.65 69.75 -312.3 69.35 -311.5 68.95 -310.95 68.6 -310.15 67.85 -309.5 67.65 -308.6 67.35 -308.15 67.0 -307.55 66.6 -307.0 66.25 -306.8 65.9 -306.55 65.5 -306.15 65.1 -305.7 64.75 -305.35 64.35 -304.4 64.0 -303.6 63.25 -302.4 62.1 -301.95 61.75 -300.95 60.15 -300.55 59.6 Q-303.85 59.3 -307.05 57.45 L-310.1 55.7 -311.55 54.5 -311.75 54.15 -317.65 53.85 -321.4 53.0 -321.35 52.55 -321.6 52.9 -321.95 53.5 -326.0 57.3 -329.0 59.5 -333.15 63.2 -335.95 65.85 Q-341.9 71.0 -348.7 74.75 L-351.0 76.15 -351.05 76.6 -351.05 77.0 -350.5 78.1 -348.85 80.0 -348.5 80.7 -347.75 82.25 -347.6 83.0 -347.7 83.35 -347.85 83.75 -348.25 84.5 -348.7 84.85 -349.05 85.2 -349.6 85.6 Q-359.55 88.25 -369.0 85.75 L-369.4 85.35 -370.1 84.6 -370.6 83.85 -370.65 83.5 -370.85 83.1 -371.0 82.75 -371.05 82.35 -371.0 82.0 -371.0 81.6 -370.95 81.25 -371.05 80.9 -371.25 80.5 -371.35 80.1 -371.3 79.75 -371.3 79.35 -372.35 75.95 -373.3 73.05 -373.6 71.85 -373.6 71.5 -373.55 71.1 -373.5 70.75 -373.65 70.4 -373.8 70.0 -373.9 69.6 -373.7 67.35 -373.45 64.35 -373.35 63.6 -373.25 63.25 -373.05 62.85 -372.65 62.1 -372.45 61.75 -372.05 61.35 -371.65 61.0 -371.5 60.6 -371.3 60.25 -370.1 59.1 -367.95 57.25 Q-364.5 56.3 -361.9 53.85 L-361.05 53.1 -360.8 52.75 -360.6 52.4 -360.35 52.0 -358.7 50.5 -356.65 48.6 -356.4 48.25 -356.2 47.9 -355.9 47.5 -354.3 46.0 -352.25 44.1 -352.0 43.75 -351.8 43.4 -351.5 43.0 -351.15 42.6 -350.7 42.25 -350.45 41.85 -350.25 41.5 -350.0 41.1 -349.55 40.75 -349.2 40.35 -348.75 40.0 -348.6 39.6 -348.45 39.25 -348.05 38.85 -347.6 38.5 -347.5 38.1 -347.3 37.75 -346.9 37.35 -346.5 37.0 -346.1 36.6 -345.8 36.25 -345.65 35.9 -345.35 35.5 -344.95 35.1 -344.15 34.35 -343.7 34.0 Q-343.15 32.5 -342.05 31.3 L-339.95 28.4 -339.65 28.0 -339.3 27.6 -338.45 26.85 -338.05 26.5 -335.8 22.65 -333.9 19.4 -333.5 18.6 -333.05 18.25 -332.65 17.85 -332.25 17.5 -332.1 17.1 -331.9 16.75 Q-327.3 12.55 -322.0 9.4 L-318.15 7.05 -318.0 6.75 -317.6 6.0 -317.15 5.25 -317.1 4.85 -317.05 4.5 -316.9 4.1 -316.75 3.75 -316.45 3.35 -316.4 3.0 -316.4 2.6 -316.3 1.85 -316.25 1.1 -316.1 0.75 -315.95 0.35 -315.8 0.0 -315.6 -0.4 -315.5 -1.5 -315.35 -3.4 -315.25 -4.5 -314.25 -6.4 -312.7 -9.0 -312.45 -9.4 Q-310.0 -11.8 -307.15 -13.7 L-303.9 -15.75 -302.7 -15.95 -302.7 -16.0 -302.2 -15.95 -301.3 -15.7 -300.65 -15.4 -300.35 -15.0 -300.2 -14.65 -299.95 -13.85 -299.95 -13.5 -300.0 -13.15 -300.15 -12.75 -300.4 -12.35 -300.6 -12.0 Q-301.85 -10.75 -303.4 -9.9 L-305.35 -9.0 -306.6 -7.9 -308.6 -6.0 -309.15 -5.3 -309.85 -3.75 Q-310.05 -3.15 -310.4 -2.65 L-310.5 -1.5 -310.7 0.75 -310.8 1.85 -311.0 2.25 -311.25 2.65 -311.4 3.0 -311.45 3.35 -311.5 3.75 -311.55 4.5 -311.65 5.25 -311.8 5.6 -312.0 6.0 -312.25 6.35 -312.25 6.75 -312.3 7.1 -312.5 7.5 -312.6 7.85 -312.8 8.25 -313.1 8.6 -313.45 9.0 -313.45 9.05 -313.5 9.25 -313.5 9.3 -313.55 9.35 Q-313.55 9.55 -313.7 9.75 L-313.9 10.15 -314.1 10.5 -314.55 10.85 -315.2 11.2 -315.45 11.3 Q-318.2 13.85 -321.7 15.75 -324.4 17.25 -326.85 19.0 L-327.25 19.4 -327.55 19.75 -328.0 20.5 -328.45 20.85 -328.95 21.25 -331.25 25.35 -333.55 28.7 -334.3 29.5 -337.6 34.05 -340.2 37.4 -340.75 38.1 -341.1 38.5 -341.95 39.25 -342.35 39.6 -342.95 40.7 -344.35 42.65 -344.5 43.0 -346.5 44.95 -348.4 47.5 -350.9 49.65 Q-352.15 50.65 -352.85 52.0 L-354.05 53.1 -356.1 55.0 -356.4 55.4 -356.55 55.75 -356.85 56.1 Q-358.75 58.1 -361.0 59.55 L-363.55 61.25 -363.9 61.35 -365.7 62.0 -366.15 62.35 -366.95 63.1 -367.35 63.5 -367.65 63.85 -368.1 64.6 -368.55 65.35 -368.55 65.75 -368.65 66.5 -368.75 67.6 -368.75 68.0 -368.65 68.35 -368.5 68.75 -368.35 69.1 -368.4 69.5 -368.45 69.85 -368.15 71.05 -367.4 73.25 -367.25 73.6 -367.3 74.0 -367.35 74.35 Q-366.75 75.2 -366.5 76.25 L-365.75 79.25 -365.85 80.0 -365.9 80.85 -355.2 81.25 -355.95 80.15 -356.55 77.85 -356.6 77.5 -356.6 77.1 -356.55 77.0 -356.8 76.6 -356.9 76.25 -356.95 75.85 -356.95 75.5 -356.9 75.1 -356.8 74.35 -356.7 74.0 -356.35 73.65 -356.0 73.25 -355.6 72.85 Q-351.85 70.65 -348.0 68.75 L-347.2 68.35 -338.8 61.65 -335.05 58.6 -334.8 58.25 -334.6 57.9 -334.3 57.5 Q-332.35 55.45 -329.9 54.05 L-327.6 52.25 -327.35 51.85 -327.15 51.5 -326.9 51.1 -326.45 50.75 -326.1 50.35 -325.65 50.0 -325.5 49.6 -325.35 49.25 -324.15 48.1 -322.05 46.25 -321.8 45.85 -321.6 45.5 -321.35 45.1 -320.9 44.75 -320.55 44.35 -320.1 44.0 -319.95 43.6 -319.8 43.25 -319.4 42.85 -318.95 42.5 -318.6 42.25 -318.2 42.15 -317.45 42.05 -317.45 42.0 -316.5 42.3 -315.9 42.6 -315.55 43.0 -315.4 43.35 -315.1 44.1 -315.15 44.5 -315.2 44.85 -315.2 45.25 -315.4 45.6 -315.8 46.35 -316.4 47.5 -317.5 48.45 Q-314.9 48.85 -312.15 48.55 L-305.5 48.3 -303.9 48.6 -303.6 49.0 -303.45 49.35 -303.35 49.65 -303.3 49.1 -303.05 48.75 -302.65 48.35 -302.2 48.0 -301.35 47.55 -300.9 47.25 Q-298.7 44.2 -296.95 40.85 L-295.05 36.35 -295.15 36.1 -295.25 35.75 -295.35 35.35 -295.3 35.0 -295.25 34.6 -295.15 33.85 -295.05 33.5 Q-292.45 31.0 -289.05 29.7 L-287.15 28.85 -285.1 27.0 -282.65 24.75 -282.1 24.05 -281.05 22.5 -280.8 22.1 -280.35 21.75 -279.95 21.35 -279.55 21.0 -279.4 20.6 -279.2 20.25 -278.85 19.85 -278.4 19.5 -278.0 19.1 -277.75 18.75 -277.55 18.4 -277.25 18.0 -276.9 17.6 -276.45 17.25 -274.35 13.8 -273.2 11.75 -278.35 11.3 -281.7 14.55 -283.75 16.35 -284.15 16.6 -284.8 16.85 -285.2 17.25 -285.5 17.5 Q-287.45 18.25 -289.5 18.0 L-291.0 19.95 -292.1 21.75 -292.55 22.1 -292.95 22.5 -293.1 22.85 -293.25 23.25 -293.65 23.6 -294.05 24.0 -294.25 24.35 -294.4 24.75 -295.2 25.5 -296.0 26.25 -296.3 26.65 -296.5 27.0 -296.75 27.35 -297.6 28.1 -298.4 28.85 Q-299.45 30.6 -301.1 31.9 L-302.8 33.35 -303.15 33.6 -303.85 33.85 -307.55 37.2 -309.4 39.0 -309.65 39.1 -310.35 39.35 -311.1 40.15 -312.35 41.1 -313.35 41.15 -314.15 40.95 -314.5 40.25 -314.5 39.85 -314.4 39.55 -314.05 39.1 -313.65 38.75 -313.25 38.35 -312.8 38.0 Q-311.8 37.65 -311.0 36.85 L-310.3 36.1 Q-308.2 34.9 -306.5 33.15 L-304.9 31.6 -304.5 31.4 -303.85 31.1 -303.65 30.75 -303.55 30.35 -301.4 28.5 -300.25 27.35 -300.0 27.0 -299.8 26.65 -299.5 26.25 -297.9 24.75 -296.65 23.6 Q-295.9 22.0 -294.8 20.6 -294.05 19.55 -293.45 18.35 L-293.0 18.0 -292.65 17.6 -292.2 17.25 -291.95 16.85 -291.9 16.5 -291.5 16.1 -291.05 15.75 -290.8 15.5 Q-288.85 14.75 -286.75 15.0 L-285.85 14.6 -282.15 11.25 -280.55 9.75 -280.35 9.4 -280.4 9.35 -280.45 9.0 -280.45 8.6 -280.4 8.25 -280.25 7.5 -279.9 7.15 -279.5 6.75 -279.15 6.35 Q-272.35 6.65 -265.35 6.3 L-230.65 3.75 Q-226.1 2.45 -221.6 1.65 L-220.45 -1.0 -219.95 -1.8 -219.25 -3.25 -218.75 -4.4 -218.75 -4.75 -218.7 -5.15 -218.3 -5.9 -217.9 -7.0 -217.45 -7.75 -217.4 -8.15 -217.4 -8.5 -215.65 -12.2 -213.65 -16.75 -213.6 -17.15 -213.6 -17.5 -213.55 -17.9 -213.4 -18.25 -213.25 -18.65 -213.1 -19.0 -212.9 -19.4 -212.9 -19.75 -212.85 -20.15 -212.8 -20.5 -212.7 -20.9 -212.5 -21.25 -212.25 -21.65 -212.2 -22.0 Q-213.15 -22.0 -214.65 -20.25 -215.9 -18.85 -217.55 -18.0 L-218.2 -17.2 -219.35 -15.7 -219.8 -15.0 -221.6 -13.5 Q-222.7 -12.75 -224.05 -12.5 -230.05 -12.4 -235.45 -13.5 -255.1 -14.35 -274.3 -17.4 L-277.55 -17.65 Q-281.8 -17.65 -285.95 -16.25 L-286.55 -15.9 -287.25 -15.5 -289.4 -13.55 -291.55 -11.4 -291.65 -11.0 -291.7 -10.65 -291.75 -10.25 -291.9 -9.9 -292.1 -9.5 -292.35 -9.15 -292.65 -8.8 -293.15 -8.4 -293.7 -8.2 -294.45 -8.0 -294.95 -8.05 -296.05 -8.25 -296.5 -8.65 -296.85 -9.0 -297.05 -9.4 -297.2 -9.75 -297.25 -10.15 -297.2 -10.5 -297.2 -10.9 -297.05 -11.25 -296.85 -11.65 -296.55 -12.4 -296.5 -12.75 -296.45 -13.15 M-223.35 -19.05 L-225.3 -18.6 -223.75 -18.65 -223.35 -19.05 M-277.65 48.5 Q-279.65 47.3 -281.25 45.45 -282.35 44.2 -283.95 43.6 -286.25 41.5 -289.0 40.0 L-291.7 37.85 -291.85 37.5 -292.0 37.3 -292.25 37.35 -292.75 37.45 -292.8 37.85 -292.9 38.2 -293.1 38.6 -293.4 39.0 -293.45 39.35 -293.5 39.75 -293.5 40.1 -294.6 42.05 -295.5 43.85 -295.7 44.2 -296.05 44.6 -296.45 45.0 -296.65 45.35 -297.0 46.15 -297.25 46.85 -297.45 47.2 -298.2 48.0 -298.65 48.35 -298.85 48.7 -299.4 49.45 -299.8 49.85 -300.15 50.1 -300.85 50.35 -301.2 50.75 -301.5 50.95 -301.75 51.1 -302.2 51.1 -303.2 50.7 -303.25 50.85 -303.4 51.25 -303.85 52.0 -304.6 52.35 -299.0 54.25 Q-297.2 54.8 -295.55 55.6 L-295.25 56.0 -295.05 56.35 -294.85 57.15 -294.8 57.5 -294.85 57.6 -294.7 57.85 -294.55 58.25 -294.4 58.6 -294.45 59.0 -294.5 59.35 -294.5 59.75 -295.55 61.65 -297.6 64.6 -300.4 67.3 -303.0 69.1 -303.2 69.5 -303.45 69.85 Q-304.65 70.95 -306.15 71.65 L-308.1 72.85 Q-299.0 78.4 -287.8 77.35 L-288.2 76.2 -288.85 74.35 -288.8 74.0 -288.75 73.25 -288.6 72.5 -288.55 72.1 -288.3 71.75 -287.95 71.35 -287.55 71.0 Q-286.8 69.4 -285.65 68.05 -284.5 66.65 -284.0 65.0 -283.55 63.7 -282.55 62.75 L-282.3 62.35 -282.2 62.0 -282.2 61.6 -282.05 61.25 -281.85 60.85 -281.45 60.1 -281.25 59.75 -280.9 59.35 -280.6 59.0 -280.05 57.9 -279.25 56.35 -278.6 55.25 -278.55 54.5 -278.45 53.35 -278.35 52.25 -278.3 51.85 -278.15 51.5 -277.9 51.1 -277.7 50.75 -277.7 50.35 -277.6 49.6 -277.6 48.85 -277.65 48.5" fill="#000000" fill-rule="evenodd" stroke="none"/>
    <path d="M-299.95 -13.5 L-296.45 -13.15 -296.5 -12.75 -296.55 -12.4 -296.85 -11.65 -297.05 -11.25 -297.2 -10.9 -297.2 -10.5 -297.25 -10.15 -297.2 -9.75 -297.05 -9.4 -296.85 -9.0 -296.5 -8.65 -296.05 -8.25 -294.95 -8.05 -294.45 -8.0 -293.7 -8.2 -293.15 -8.4 -292.65 -8.8 -292.35 -9.15 -292.1 -9.5 -291.9 -9.9 -291.75 -10.25 -291.7 -10.65 -291.65 -11.0 -291.55 -11.4 -289.4 -13.55 -287.25 -15.5 -286.55 -15.9 -285.95 -16.25 Q-281.8 -17.65 -277.55 -17.65 L-274.3 -17.4 Q-255.1 -14.35 -235.45 -13.5 -230.05 -12.4 -224.05 -12.5 -222.7 -12.75 -221.6 -13.5 L-219.8 -15.0 -219.35 -15.7 -218.2 -17.2 -217.55 -18.0 Q-215.9 -18.85 -214.65 -20.25 -213.15 -22.0 -212.2 -22.0 L-212.25 -21.65 -212.5 -21.25 -212.7 -20.9 -212.8 -20.5 -212.85 -20.15 -212.9 -19.75 -212.9 -19.4 -213.1 -19.0 -213.25 -18.65 -213.4 -18.25 -213.55 -17.9 -213.6 -17.5 -213.6 -17.15 -213.65 -16.75 -215.65 -12.2 -217.4 -8.5 -217.4 -8.15 -217.45 -7.75 -217.9 -7.0 -218.3 -5.9 -218.7 -5.15 -218.75 -4.75 -218.75 -4.4 -219.25 -3.25 -219.95 -1.8 -220.45 -1.0 -221.6 1.65 Q-226.1 2.45 -230.65 3.75 L-265.35 6.3 Q-272.35 6.65 -279.15 6.35 L-279.5 6.75 -279.9 7.15 -280.25 7.5 -280.4 8.25 -280.45 8.6 -280.45 9.0 -280.4 9.35 -280.35 9.4 -280.55 9.75 -282.15 11.25 -285.85 14.6 -286.75 15.0 Q-288.85 14.75 -290.8 15.5 L-291.05 15.75 -291.5 16.1 -291.9 16.5 -291.95 16.85 -292.2 17.25 -292.65 17.6 -293.0 18.0 -293.45 18.35 Q-294.05 19.55 -294.8 20.6 -295.9 22.0 -296.65 23.6 L-297.9 24.75 -299.5 26.25 -299.8 26.65 -300.0 27.0 -300.25 27.35 -301.4 28.5 -303.55 30.35 -303.65 30.75 -303.85 31.1 -304.5 31.4 -304.9 31.6 -306.5 33.15 Q-308.2 34.9 -310.3 36.1 L-311.0 36.85 Q-311.8 37.65 -312.8 38.0 L-313.25 38.35 -313.65 38.75 -314.05 39.1 -314.4 39.55 -314.5 39.85 -314.5 40.25 -314.15 40.95 -315.9 42.6 -316.5 42.3 -317.45 42.0 -317.45 42.05 -318.2 42.15 -318.6 42.25 -318.95 42.5 -319.4 42.85 -319.8 43.25 -319.95 43.6 -320.1 44.0 -320.55 44.35 -320.9 44.75 -321.35 45.1 -321.6 45.5 -321.8 45.85 -322.05 46.25 -324.15 48.1 -325.35 49.25 -325.5 49.6 -325.65 50.0 -326.1 50.35 -326.45 50.75 -326.9 51.1 -327.15 51.5 -327.35 51.85 -327.6 52.25 -329.9 54.05 Q-332.35 55.45 -334.3 57.5 L-334.6 57.9 -334.8 58.25 -335.05 58.6 -338.8 61.65 -347.2 68.35 -348.0 68.75 Q-351.85 70.65 -355.6 72.85 L-356.0 73.25 -356.35 73.65 -356.7 74.0 -356.8 74.35 -356.9 75.1 -356.95 75.5 -356.95 75.85 -356.9 76.25 -356.8 76.6 -356.55 77.0 -356.6 77.1 -356.6 77.5 -356.55 77.85 -355.95 80.15 -355.2 81.25 -365.9 80.85 -365.85 80.0 -365.75 79.25 -366.5 76.25 Q-366.75 75.2 -367.35 74.35 L-367.3 74.0 -367.25 73.6 -367.4 73.25 -368.15 71.05 -368.45 69.85 -368.4 69.5 -368.35 69.1 -368.5 68.75 -368.65 68.35 -368.75 68.0 -368.75 67.6 -368.65 66.5 -368.55 65.75 -368.55 65.35 -368.1 64.6 -367.65 63.85 -367.35 63.5 -366.95 63.1 -366.15 62.35 -365.7 62.0 -363.9 61.35 -363.55 61.25 -361.0 59.55 Q-358.75 58.1 -356.85 56.1 L-356.55 55.75 -356.4 55.4 -356.1 55.0 -354.05 53.1 -352.85 52.0 Q-352.15 50.65 -350.9 49.65 L-348.4 47.5 -346.5 44.95 -344.5 43.0 -344.35 42.65 -342.95 40.7 -342.35 39.6 -341.95 39.25 -341.1 38.5 -340.75 38.1 -340.2 37.4 -337.6 34.05 -334.3 29.5 -333.55 28.7 -331.25 25.35 -328.95 21.25 -328.45 20.85 -328.0 20.5 -327.55 19.75 -327.25 19.4 -326.85 19.0 Q-324.4 17.25 -321.7 15.75 -318.2 13.85 -315.45 11.3 L-315.2 11.2 -314.55 10.85 -314.1 10.5 -313.9 10.15 -313.7 9.75 Q-313.55 9.55 -313.55 9.35 L-313.5 9.3 -313.5 9.25 -313.45 9.05 -313.45 9.0 -313.1 8.6 -312.8 8.25 -312.6 7.85 -312.5 7.5 -312.3 7.1 -312.25 6.75 -312.25 6.35 -312.0 6.0 -311.8 5.6 -311.65 5.25 -311.55 4.5 -311.5 3.75 -311.45 3.35 -311.4 3.0 -311.25 2.65 -311.0 2.25 -310.8 1.85 -310.7 0.75 -310.5 -1.5 -310.4 -2.65 Q-310.05 -3.15 -309.85 -3.75 L-309.15 -5.3 -308.6 -6.0 -306.6 -7.9 -305.35 -9.0 -303.4 -9.9 Q-301.85 -10.75 -300.6 -12.0 L-300.4 -12.35 -300.15 -12.75 -300.0 -13.15 -299.95 -13.5" fill="#b1e34d" fill-rule="evenodd" stroke="none"/>
    <path d="M-314.15 40.95 L-313.35 41.15 -312.35 41.1 -311.1 40.15 -310.35 39.35 -309.65 39.1 -309.4 39.0 -307.55 37.2 -303.85 33.85 -303.15 33.6 -302.8 33.35 -301.1 31.9 Q-299.45 30.6 -298.4 28.85 L-297.6 28.1 -296.75 27.35 -296.5 27.0 -296.3 26.65 -296.0 26.25 -295.2 25.5 -294.4 24.75 -294.25 24.35 -294.05 24.0 -293.65 23.6 -293.25 23.25 -293.1 22.85 -292.95 22.5 -292.55 22.1 -292.1 21.75 -291.0 19.95 -289.5 18.0 Q-287.45 18.25 -285.5 17.5 L-285.2 17.25 -284.8 16.85 -284.15 16.6 -283.75 16.35 -281.7 14.55 -278.35 11.3 -273.2 11.75 -274.35 13.8 -276.45 17.25 -276.9 17.6 -277.25 18.0 -277.55 18.4 -277.75 18.75 -278.0 19.1 -278.4 19.5 -278.85 19.85 -279.2 20.25 -279.4 20.6 -279.55 21.0 -279.95 21.35 -280.35 21.75 -280.8 22.1 -281.05 22.5 -282.1 24.05 -282.65 24.75 -285.1 27.0 -287.15 28.85 -289.05 29.7 Q-292.45 31.0 -295.05 33.5 L-295.15 33.85 -295.25 34.6 -295.3 35.0 -295.35 35.35 -295.25 35.75 -295.15 36.1 -295.05 36.35 -296.95 40.85 Q-298.7 44.2 -300.9 47.25 L-301.35 47.55 -302.2 48.0 -302.65 48.35 -303.05 48.75 -303.3 49.1 -303.35 49.65 -303.45 49.35 -303.6 49.0 -303.9 48.6 -305.5 48.3 -312.15 48.55 Q-314.9 48.85 -317.5 48.45 L-316.4 47.5 -315.8 46.35 -315.4 45.6 -315.2 45.25 -315.2 44.85 -315.15 44.5 -315.1 44.1 -315.4 43.35 -315.55 43.0 -315.9 42.6 -314.15 40.95" fill="#cc3300" fill-rule="evenodd" stroke="none"/>
    <path d="M-277.65 48.5 L-277.6 48.85 -277.6 49.6 -277.7 50.35 -277.7 50.75 -277.9 51.1 -278.15 51.5 -278.3 51.85 -278.35 52.25 -278.45 53.35 -278.55 54.5 -278.6 55.25 -279.25 56.35 -280.05 57.9 -280.6 59.0 -280.9 59.35 -281.25 59.75 -281.45 60.1 -281.85 60.85 -282.05 61.25 -282.2 61.6 -282.2 62.0 -282.3 62.35 -282.55 62.75 Q-283.55 63.7 -284.0 65.0 -284.5 66.65 -285.65 68.05 -286.8 69.4 -287.55 71.0 L-287.95 71.35 -288.3 71.75 -288.55 72.1 -288.6 72.5 -288.75 73.25 -288.8 74.0 -288.85 74.35 -288.2 76.2 -287.8 77.35 Q-299.0 78.4 -308.1 72.85 L-306.15 71.65 Q-304.65 70.95 -303.45 69.85 L-303.2 69.5 -303.0 69.1 -300.4 67.3 -297.6 64.6 -295.55 61.65 -294.5 59.75 -294.5 59.35 -294.45 59.0 -294.4 58.6 -294.55 58.25 -294.7 57.85 -294.85 57.6 -294.8 57.5 -294.85 57.15 -295.05 56.35 -295.25 56.0 -295.55 55.6 Q-297.2 54.8 -299.0 54.25 L-304.6 52.35 -303.85 52.0 -303.4 51.25 -303.25 50.85 -303.2 50.7 -302.2 51.1 -301.75 51.1 -301.5 50.95 -301.2 50.75 -300.85 50.35 -300.15 50.1 -299.8 49.85 -299.4 49.45 -298.85 48.7 -298.65 48.35 -298.2 48.0 -297.45 47.2 -297.25 46.85 -297.0 46.15 -296.65 45.35 -296.45 45.0 -296.05 44.6 -295.7 44.2 -295.5 43.85 -294.6 42.05 -293.5 40.1 -293.5 39.75 -293.45 39.35 -293.4 39.0 -293.1 38.6 -292.9 38.2 -292.8 37.85 -292.75 37.45 -292.25 37.35 -292.0 37.3 -291.85 37.5 -291.7 37.85 -289.0 40.0 Q-286.25 41.5 -283.95 43.6 -282.35 44.2 -281.25 45.45 -279.65 47.3 -277.65 48.5" fill="#80a839" fill-rule="evenodd" stroke="none"/>
  </g>
</svg>
