<?xml version="1.0" encoding="UTF-8" standalone="no"?>
<svg xmlns:ffdec="https://www.free-decompiler.com/flash" xmlns:xlink="http://www.w3.org/1999/xlink" ffdec:objectType="shape" height="87.95px" width="74.6px" xmlns="http://www.w3.org/2000/svg">
  <g transform="matrix(1.0, 0.0, 0.0, 1.0, 37.3, 43.95)">
    <path d="M21.5 -27.1 L23.4 -24.2 24.4 -23.1 25.25 -21.65 Q26.05 -20.2 27.0 -18.9 27.5 -18.25 27.55 -17.45 L27.9 -17.05 28.15 -16.7 28.3 -16.35 28.55 -15.95 28.9 -15.6 29.25 -15.2 29.75 -14.45 29.9 -14.1 30.3 -13.7 30.65 -13.35 31.05 -12.95 31.45 -12.25 32.75 -10.65 Q33.35 -10.05 33.55 -9.2 L33.5 -8.85 33.4 -8.45 33.3 -8.1 33.2 -7.75 Q37.3 -0.8 37.3 7.45 L37.05 11.65 36.8 12.4 Q36.45 13.25 36.25 14.2 L35.95 15.7 35.7 16.85 Q35.6 17.35 35.65 17.9 33.3 27.25 27.05 34.2 17.9 44.35 3.7 44.0 -13.45 43.55 -27.65 33.45 L-28.3 32.95 Q-31.2 29.8 -35.4 18.9 -39.6 8.0 -34.5 -6.2 L-33.85 -7.85 -33.95 -7.95 -34.2 -8.35 -34.35 -8.7 -34.45 -9.1 -34.45 -9.45 -34.45 -9.85 -34.45 -10.2 -34.45 -10.6 -34.45 -10.95 -34.35 -11.35 -34.2 -11.7 -33.95 -12.1 -33.95 -12.85 -33.95 -13.6 -33.95 -14.7 -33.95 -15.45 -33.85 -15.85 -33.7 -16.2 -33.45 -16.6 -33.45 -17.7 -33.45 -19.2 -33.45 -19.95 -33.45 -21.1 -33.3 -21.45 -33.1 -21.85 -32.95 -22.2 -32.95 -22.6 -32.95 -22.95 -32.85 -23.35 -32.7 -23.7 -32.45 -24.1 -32.45 -24.85 -32.45 -25.6 -32.45 -26.7 -32.45 -27.45 -32.35 -27.85 -32.2 -28.2 -31.95 -28.6 -31.95 -28.95 -31.95 -29.35 -31.95 -29.7 -31.95 -30.1 -31.95 -30.45 -31.85 -30.85 -31.7 -31.2 -31.45 -31.6 -31.45 -31.95 -31.45 -32.35 -31.45 -32.7 -31.45 -33.1 -31.45 -33.45 -31.35 -33.85 -31.2 -34.2 -30.95 -34.6 -30.95 -36.45 -30.95 -38.35 -30.95 -40.2 -30.95 -41.35 -30.85 -41.7 -30.7 -42.1 -30.45 -42.45 -30.1 -42.85 -29.7 -43.2 -29.35 -43.6 -28.7 -43.85 -27.95 -43.9 -27.95 -43.95 -25.9 -43.7 Q-24.75 -43.35 -23.95 -42.45 -22.6 -42.15 -21.4 -41.55 L-19.95 -40.45 Q-14.6 -38.0 -9.65 -34.65 L-4.05 -30.55 Q-0.65 -33.25 3.65 -35.15 6.3 -36.35 8.9 -37.7 L10.05 -37.9 10.05 -37.95 Q12.1 -38.35 13.55 -36.95 L15.4 -35.1 15.65 -34.7 15.8 -34.35 16.05 -33.95 16.4 -33.6 16.8 -33.2 17.55 -32.45 17.9 -32.1 18.15 -31.7 18.3 -31.35 18.55 -30.95 18.9 -30.6 19.3 -30.2 20.05 -29.45 20.4 -29.1 21.5 -27.1 M1.85 -28.35 Q10.75 -26.9 18.3 -22.3 L18.2 -22.45 17.5 -23.65 Q16.95 -24.3 16.65 -25.1 L16.55 -25.45 16.15 -25.85 15.4 -26.6 13.9 -28.1 13.7 -28.45 13.2 -29.1 Q12.7 -29.65 12.5 -30.3 L12.3 -30.7 11.9 -31.1 11.55 -31.45 10.8 -32.2 Q6.8 -31.15 2.65 -28.85 L1.85 -28.35 M-22.2 -14.55 Q-24.95 -12.55 -27.45 -9.85 -34.85 -1.95 -32.9 6.75 -33.65 18.0 -25.8 27.85 -18.0 37.7 -0.6 39.65 14.35 41.3 23.75 30.4 29.6 23.55 30.9 14.35 33.0 8.0 31.35 1.3 28.8 -8.8 19.85 -15.1 13.2 -19.7 6.05 -22.05 L6.05 -21.65 6.05 -21.3 6.05 -20.9 Q0.7 -23.7 -7.2 -20.6 L-7.9 -20.3 -6.75 -26.3 -10.35 -28.35 -10.7 -28.7 -11.1 -29.1 -11.45 -29.45 -20.2 -34.7 Q-23.0 -36.3 -25.95 -37.6 L-25.95 -36.45 -25.95 -34.95 -25.95 -34.2 -25.95 -33.1 -26.1 -32.7 -26.3 -32.3 -26.45 -31.95 -26.45 -31.6 -26.45 -31.2 -26.45 -30.85 -26.45 -30.45 -26.45 -30.1 -26.6 -29.7 -26.8 -29.3 -26.95 -28.95 -26.95 -28.6 -26.95 -28.2 -26.95 -27.85 -26.95 -27.45 -26.95 -26.7 -27.1 -26.35 -27.25 -25.95 -27.45 -25.6 -27.45 -24.85 -27.45 -24.1 -27.45 -22.95 -27.45 -22.6 -27.6 -22.2 -27.8 -21.8 -27.95 -21.45 -27.95 -21.1 -27.95 -20.7 -28.1 -20.35 -28.25 -19.95 -28.45 -19.6 -28.45 -18.45 -28.45 -16.95 -28.45 -16.9 Q-25.95 -19.65 -22.85 -21.35 L-23.4 -22.65 -23.85 -23.45 -23.9 -24.2 -23.9 -25.7 -23.85 -26.45 -23.55 -26.8 -23.2 -27.2 -22.85 -27.6 -22.2 -27.85 -21.45 -27.9 -21.45 -27.95 -20.5 -27.65 -19.85 -27.35 Q-19.2 -26.7 -19.0 -25.8 L-18.1 -23.55 -18.6 -17.2 -18.6 -16.85 -22.2 -14.55" fill="#000000" fill-rule="evenodd" stroke="none"/>
    <path d="M1.85 -28.35 L2.65 -28.85 Q6.8 -31.15 10.8 -32.2 L11.55 -31.45 11.9 -31.1 12.3 -30.7 12.5 -30.3 Q12.7 -29.65 13.2 -29.1 L13.7 -28.45 13.9 -28.1 15.4 -26.6 16.15 -25.85 16.55 -25.45 16.65 -25.1 Q16.95 -24.3 17.5 -23.65 L18.2 -22.45 18.3 -22.3 Q10.75 -26.9 1.85 -28.35 M-22.2 -14.55 L-18.6 -16.85 -18.6 -17.2 -18.1 -23.55 -19.0 -25.8 Q-19.2 -26.7 -19.85 -27.35 L-20.5 -27.65 -21.45 -27.95 -21.45 -27.9 -22.2 -27.85 -22.85 -27.6 -23.2 -27.2 -23.55 -26.8 -23.85 -26.45 -23.9 -25.7 -23.9 -24.2 -23.85 -23.45 -23.4 -22.65 -22.85 -21.35 Q-25.95 -19.65 -28.45 -16.9 L-28.45 -16.95 -28.45 -18.45 -28.45 -19.6 -28.25 -19.95 -28.1 -20.35 -27.95 -20.7 -27.95 -21.1 -27.95 -21.45 -27.8 -21.8 -27.6 -22.2 -27.45 -22.6 -27.45 -22.95 -27.45 -24.1 -27.45 -24.85 -27.45 -25.6 -27.25 -25.95 -27.1 -26.35 -26.95 -26.7 -26.95 -27.45 -26.95 -27.85 -26.95 -28.2 -26.95 -28.6 -26.95 -28.95 -26.8 -29.3 -26.6 -29.7 -26.45 -30.1 -26.45 -30.45 -26.45 -30.85 -26.45 -31.2 -26.45 -31.6 -26.45 -31.95 -26.3 -32.3 -26.1 -32.7 -25.95 -33.1 -25.95 -34.2 -25.95 -34.95 -25.95 -36.45 -25.95 -37.6 Q-23.0 -36.3 -20.2 -34.7 L-11.45 -29.45 -11.1 -29.1 -10.7 -28.7 -10.35 -28.35 -6.75 -26.3 -7.9 -20.3 -7.2 -20.6 -7.05 -20.1 -14.0 -17.65 -22.2 -14.55" fill="#cc3300" fill-rule="evenodd" stroke="none"/>
    <path d="M-7.2 -20.6 Q0.7 -23.7 6.05 -20.9 L6.05 -21.3 6.05 -21.65 6.05 -22.05 Q13.2 -19.7 19.85 -15.1 28.8 -8.8 31.35 1.3 33.0 8.0 30.9 14.35 29.6 23.55 23.75 30.4 14.35 41.3 -0.6 39.65 -18.0 37.7 -25.8 27.85 -33.65 18.0 -32.9 6.75 -34.85 -1.95 -27.45 -9.85 -24.95 -12.55 -22.2 -14.55 L-14.0 -17.65 -7.05 -20.1 -7.2 -20.6" fill="#b1e34d" fill-rule="evenodd" stroke="none"/>
    <path d="M-5.55 -2.85 L-4.9 -3.5 -4.45 -3.65 -4.45 -3.7 Q3.55 -0.3 11.35 3.8 16.85 6.65 22.8 8.55 25.95 10.3 29.55 10.8 L30.65 11.15 Q27.8 13.0 26.7 12.7 L26.75 13.3 26.8 14.8 26.8 15.55 Q26.05 17.6 24.6 19.15 L24.4 19.4 24.05 19.8 23.8 20.05 23.55 20.15 23.5 20.2 22.5 20.9 Q19.75 22.65 16.55 23.3 L15.55 23.3 Q12.7 22.7 10.05 21.6 L9.55 21.3 9.3 20.9 9.05 20.55 7.8 19.8 6.4 18.65 5.8 17.55 4.95 15.65 4.8 15.3 4.8 13.05 4.8 10.4 4.8 9.3 4.9 8.9 5.05 8.55 5.3 7.8 5.4 7.4 5.8 7.05 6.15 6.65 6.3 6.3 6.4 5.9 6.8 5.55 7.55 4.8 7.6 4.8 6.35 4.15 Q1.0 1.35 -4.45 -1.2 L-5.15 -1.5 -5.55 -1.85 -5.7 -2.2 -5.55 -2.85 M22.7 11.45 L21.55 10.65 Q15.9 8.75 10.5 6.2 L9.55 6.65 8.9 6.9 8.75 7.3 8.55 7.65 7.9 8.4 7.8 8.8 7.65 9.15 7.45 9.55 7.3 9.9 7.3 11.4 7.3 13.3 7.3 14.4 7.55 15.15 8.05 16.3 8.4 17.05 Q9.0 17.85 10.05 18.2 10.95 18.5 11.3 19.3 11.65 20.0 12.5 20.05 L15.3 20.55 16.8 20.55 20.25 19.45 21.15 19.15 21.3 19.05 21.15 18.9 20.8 18.55 20.8 18.15 20.75 17.45 Q20.65 16.8 21.05 16.3 L21.3 16.05 21.55 15.95 22.05 15.8 22.65 15.7 22.8 15.55 22.75 15.35 22.55 15.25 21.4 14.65 21.3 14.3 21.3 13.9 21.3 13.55 21.4 13.25 22.05 12.15 Q22.3 11.65 22.7 11.45 M11.55 24.35 L11.55 24.3 Q14.65 25.4 18.2 26.2 21.7 27.0 23.8 28.05 L23.65 28.4 23.5 28.75 23.3 29.0 23.05 29.15 18.05 28.4 Q14.3 27.9 10.9 26.65 L10.55 26.3 10.35 25.9 10.3 25.55 10.35 25.2 10.55 24.8 10.8 24.55 11.05 24.45 11.55 24.35" fill="#000000" fill-rule="evenodd" stroke="none"/>
    <path d="M22.7 11.45 Q22.3 11.65 22.05 12.15 L21.4 13.25 21.3 13.55 21.3 13.9 21.3 14.3 21.4 14.65 22.55 15.25 22.75 15.35 22.8 15.55 22.65 15.7 22.05 15.8 21.55 15.95 21.3 16.05 21.05 16.3 Q20.65 16.8 20.75 17.45 L20.8 18.15 20.8 18.55 21.15 18.9 21.3 19.05 21.15 19.15 20.25 19.45 16.8 20.55 15.3 20.55 12.5 20.05 Q11.65 20.0 11.3 19.3 10.95 18.5 10.05 18.2 9.0 17.85 8.4 17.05 L8.05 16.3 7.55 15.15 7.3 14.4 7.3 13.3 7.3 11.4 7.3 9.9 7.45 9.55 7.65 9.15 7.8 8.8 7.9 8.4 8.55 7.65 8.75 7.3 8.9 6.9 9.55 6.65 10.5 6.2 Q15.9 8.75 21.55 10.65 L22.7 11.45" fill="#ffffff" fill-rule="evenodd" stroke="none"/>
  </g>
</svg>
