<?xml version="1.0" encoding="UTF-8" standalone="no"?>
<svg xmlns:ffdec="https://www.free-decompiler.com/flash" xmlns:xlink="http://www.w3.org/1999/xlink" ffdec:objectType="shape" height="34.5px" width="107.0px" xmlns="http://www.w3.org/2000/svg">
  <g transform="matrix(1.0, 0.0, 0.0, 1.0, 427.5, -5.0)">
    <path d="M-323.35 11.35 L-323.15 11.75 -323.0 12.1 -323.0 12.5 -323.0 12.85 -322.75 13.25 -322.3 14.0 -322.1 14.35 -321.9 14.75 -321.65 15.5 -321.5 15.85 -321.5 16.25 -321.5 16.6 -321.3 17.0 -321.1 17.35 -320.9 17.75 -320.75 18.1 -320.65 18.5 -320.5 18.85 -320.5 19.25 -320.5 20.35 -320.5 20.75 -320.5 21.85 -320.5 23.0 -320.5 23.35 -320.65 23.75 -321.25 24.9 -321.4 25.25 -322.3 26.7 -323.0 27.5 -323.25 27.9 -324.25 30.2 Q-325.05 32.05 -326.65 33.3 -329.1 35.2 -332.0 36.5 L-332.4 36.85 -332.75 37.25 -333.25 37.6 -334.75 38.1 Q-345.25 41.2 -355.65 37.35 L-357.65 36.75 -358.1 36.35 -358.4 36.1 Q-363.55 33.9 -368.9 32.15 -372.75 30.85 -377.0 31.0 -395.9 31.45 -414.0 36.5 L-415.1 36.45 Q-419.35 37.1 -422.95 34.95 -424.95 33.75 -426.5 32.0 L-426.75 31.6 -426.9 31.25 -427.15 30.85 -427.4 30.5 -427.45 30.1 -427.5 29.35 -427.5 29.0 -427.5 28.6 -427.5 28.25 -427.4 27.5 Q-423.85 23.4 -418.1 23.75 L-414.5 23.45 Q-405.15 21.25 -396.4 17.35 -393.75 16.15 -390.9 15.35 L-390.5 15.0 -390.15 14.75 -384.15 12.35 Q-369.7 5.95 -354.0 5.0 L-339.55 5.7 Q-332.05 6.3 -325.5 10.0 L-324.55 10.3 -323.9 10.6 -323.55 11.0 -323.35 11.35 M-420.75 30.1 L-420.0 30.5 -419.25 30.85 -418.75 31.1 Q-394.15 26.1 -369.0 25.95 -367.05 25.95 -365.25 26.8 -361.25 28.7 -357.5 31.0 -352.85 32.65 -348.0 33.65 -337.85 35.65 -329.75 29.25 L-329.55 28.85 -329.35 28.5 -328.9 27.7 -328.75 27.4 -328.55 27.0 -328.25 26.25 -327.85 25.5 -327.65 25.1 -327.25 24.75 -326.9 24.35 -326.5 24.0 -326.4 23.6 -326.25 23.25 -326.05 22.85 -325.85 22.5 -325.65 22.1 -325.5 21.75 -325.5 21.35 -325.5 21.0 -325.55 20.65 -325.75 20.25 -325.9 19.85 -326.05 19.5 -326.25 19.1 -326.4 18.75 -326.5 18.35 -326.5 18.0 -326.5 17.6 -326.5 17.25 -326.7 16.9 -327.0 16.5 -327.25 16.1 -327.4 15.75 -327.65 15.35 -328.0 15.0 -328.4 14.6 -328.8 14.25 -329.4 13.85 -329.75 13.65 -330.0 13.5 -331.15 13.25 -331.65 12.85 -331.9 12.6 -332.5 12.5 -333.6 12.2 -334.05 12.05 -335.1 11.7 -335.9 11.35 -336.25 11.2 -339.0 10.85 -340.9 10.35 -353.25 10.2 -353.5 10.25 Q-363.6 10.9 -373.3 13.7 -380.1 15.65 -386.25 19.1 L-399.3 24.45 Q-403.85 26.25 -408.55 27.55 -414.6 29.25 -420.8 29.75 L-421.25 29.75 -420.75 30.1" fill="#000000" fill-rule="evenodd" stroke="none"/>
    <path d="M-420.8 29.75 Q-414.6 29.25 -408.55 27.55 -403.85 26.25 -399.3 24.45 L-386.25 19.1 Q-380.1 15.65 -373.3 13.7 -363.6 10.9 -353.5 10.25 L-353.25 10.2 -340.9 10.35 -339.0 10.85 -336.25 11.2 -335.9 11.35 -335.1 11.7 -334.05 12.05 -333.6 12.2 -332.5 12.5 -331.9 12.6 -331.65 12.85 -331.15 13.25 -330.0 13.5 -329.75 13.65 -329.4 13.85 -328.8 14.25 -328.4 14.6 -328.0 15.0 -327.65 15.35 -327.4 15.75 -327.25 16.1 -327.0 16.5 -326.7 16.9 -326.5 17.25 -326.5 17.6 -326.5 18.0 -326.5 18.35 -326.4 18.75 -326.25 19.1 -326.05 19.5 -325.9 19.85 -325.75 20.25 -325.55 20.65 -325.5 21.0 -325.5 21.35 -325.5 21.75 -325.65 22.1 -325.85 22.5 -326.05 22.85 -326.25 23.25 -326.4 23.6 -326.5 24.0 -326.9 24.35 -327.25 24.75 -327.65 25.1 -327.85 25.5 -328.25 26.25 -328.55 27.0 -328.75 27.4 -328.9 27.7 -329.35 28.5 -329.55 28.85 -329.75 29.25 Q-337.85 35.65 -348.0 33.65 -352.85 32.65 -357.5 31.0 -361.25 28.7 -365.25 26.8 -367.05 25.95 -369.0 25.95 -394.15 26.1 -418.75 31.1 L-419.25 30.85 -420.0 30.5 -420.75 30.1 -420.8 29.75" fill="#80a839" fill-rule="evenodd" stroke="none"/>
  </g>
</svg>
