<?xml version="1.0" encoding="UTF-8" standalone="no"?>
<svg xmlns:ffdec="https://www.free-decompiler.com/flash" xmlns:xlink="http://www.w3.org/1999/xlink" ffdec:objectType="shape" height="271.0px" width="204.55px" xmlns="http://www.w3.org/2000/svg">
  <g transform="matrix(1.0, 0.0, 0.0, 1.0, 102.95, 197.6)">
    <path d="M30.15 -144.0 L30.4 -144.0 Q52.15 -122.7 58.4 -89.3 60.45 -78.45 55.85 -69.85 L55.5 -69.2 54.4 -69.6 54.4 -69.9 Q55.05 -76.45 50.0 -79.2 48.0 -77.15 46.7 -74.9 45.2 -83.0 42.5 -90.4 L42.4 -91.0 Q44.4 -90.5 43.75 -95.25 43.15 -99.7 41.1 -103.5 37.85 -109.4 37.9 -116.1 38.05 -132.25 30.15 -144.0 M58.75 -66.75 Q58.7 -71.55 65.1 -78.1 65.85 -78.9 67.6 -79.0 71.85 -90.75 78.7 -99.9 L80.0 -100.8 Q83.4 -100.1 84.8 -97.95 L83.6 -98.8 Q82.35 -98.75 81.8 -97.55 76.65 -86.25 69.1 -76.15 L62.7 -69.4 Q60.85 -67.55 59.45 -65.5 L58.75 -66.75 M87.3 -89.65 Q95.0 -76.15 94.7 -56.6 94.45 -40.7 98.2 -25.15 102.75 -6.2 92.8 5.8 95.95 29.7 79.95 24.0 78.6 23.5 78.15 22.3 79.05 20.65 79.6 16.6 86.25 16.25 86.75 8.1 87.5 -2.6 81.7 -2.6 82.5 -3.55 83.4 -6.25 L84.0 -8.0 Q91.75 -22.6 90.8 -41.1 90.4 -49.1 90.95 -56.9 91.45 -64.1 88.35 -68.35 L86.65 -74.05 86.35 -76.4 Q85.6 -82.15 86.9 -87.7 L87.3 -89.65 M-86.65 10.35 Q-87.1 11.6 -88.4 9.75 -97.2 -2.55 -97.9 -19.35 -98.35 -29.15 -95.5 -36.7 -96.25 -41.1 -96.65 -45.65 -98.05 -61.45 -94.45 -73.45 -95.05 -81.7 -93.9 -89.75 -93.6 -91.9 -91.2 -92.0 -70.75 -77.25 -74.25 -52.95 L-76.4 -55.2 -76.6 -54.95 -79.7 -58.05 Q-79.4 -62.75 -84.0 -65.6 -86.25 -65.15 -86.6 -62.9 -86.95 -62.65 -86.9 -62.1 L-86.85 -60.8 -88.05 -47.4 -88.75 -40.05 Q-92.05 -36.95 -92.55 -32.1 -94.75 -10.3 -86.65 10.35 M-59.45 -99.05 Q-58.85 -110.9 -56.85 -122.55 -52.9 -145.3 -45.25 -164.95 -44.75 -166.3 -43.2 -166.4 -28.6 -156.35 -21.7 -137.2 -20.9 -134.95 -19.1 -131.85 -8.35 -112.95 -6.45 -94.15 L-8.4 -93.3 -9.45 -94.15 -10.55 -94.65 -11.85 -100.0 Q-15.5 -113.4 -25.2 -119.0 L-25.35 -119.2 Q-26.8 -122.7 -29.35 -124.85 L-31.75 -131.9 Q-32.8 -138.15 -35.75 -142.35 -36.3 -146.8 -39.2 -150.0 -39.75 -149.9 -39.85 -149.5 L-40.25 -148.25 -42.0 -150.8 Q-43.7 -150.75 -43.35 -149.65 L-41.85 -144.45 Q-49.8 -127.85 -54.55 -109.3 -57.75 -104.75 -59.45 -99.05 M-1.55 -93.05 Q5.55 -118.25 19.6 -139.0 22.25 -142.95 26.95 -143.75 26.1 -134.35 23.45 -125.1 19.2 -116.85 15.25 -108.25 10.9 -102.85 9.9 -96.15 L9.35 -94.85 Q8.15 -93.8 7.6 -92.3 2.65 -98.9 0.3 -89.9 -0.45 -91.9 -1.55 -93.05 M30.6 -97.85 L30.55 -97.7 29.5 -98.2 29.6 -98.45 30.6 -97.85 M-6.4 -82.8 Q-6.95 -84.15 -6.1 -85.3 L-6.15 -83.3 -6.4 -82.8 M-39.4 -71.8 L-39.7 -71.6 -39.7 -72.05 -39.4 -71.8" fill="#ff0800" fill-rule="evenodd" stroke="none"/>
    <path d="M-69.4 -46.45 Q-71.45 -51.4 -65.3 -58.3 L-65.0 -58.6 Q-64.9 -51.15 -63.8 -43.65 -63.5 -41.75 -62.55 -43.0 L-60.95 -45.3 -60.95 -45.25 Q-60.7 -43.35 -59.65 -44.6 L-59.15 -45.15 Q-60.2 -42.75 -60.55 -40.0 -60.75 -38.45 -59.75 -39.15 L-56.55 -41.4 -61.9 -36.75 Q-64.4 -42.7 -69.15 -45.95 L-69.4 -46.45 M30.6 -97.85 Q31.5 -97.4 32.6 -97.1 L33.75 -94.25 Q35.55 -87.05 37.7 -79.8 L38.1 -76.95 Q40.95 -73.25 40.25 -67.3 L41.35 -66.35 Q42.65 -65.4 43.7 -64.95 L43.4 -64.5 40.15 -66.55 39.25 -62.7 Q38.85 -61.25 37.8 -60.3 36.85 -59.5 35.4 -59.1 L35.1 -59.05 Q12.8 -53.7 10.95 -72.95 10.55 -76.75 13.7 -79.25 L21.8 -96.5 Q23.7 -100.8 26.65 -104.25 26.75 -100.45 29.6 -98.45 L29.5 -98.2 30.55 -97.7 30.6 -97.85 M79.55 -70.1 Q80.6 -60.75 80.55 -51.5 83.35 -47.4 84.1 -41.6 84.55 -38.1 81.1 -36.85 L80.35 -36.55 79.75 -33.2 79.7 -32.75 Q78.2 -30.65 77.4 -28.65 76.25 -31.45 74.7 -33.95 66.3 -29.55 58.3 -33.6 53.5 -36.05 52.2 -41.6 48.9 -55.9 63.6 -60.8 L64.15 -60.7 Q72.6 -66.7 79.2 -75.35 79.25 -72.7 79.55 -70.1 M0.2 -72.7 L0.1 -71.35 Q-0.25 -72.1 -2.2 -72.65 L-2.6 -73.4 -0.7 -72.85 0.2 -72.7 M81.0 -13.9 L80.8 -15.45 81.7 -14.6 81.0 -13.9 M84.0 -8.0 L83.4 -6.25 Q82.5 -3.55 81.7 -2.6 L80.5 -2.5 81.0 -6.3 81.2 -6.1 Q82.25 -5.0 82.8 -5.9 L84.0 -8.0 M-35.75 -142.35 Q-32.8 -138.15 -31.75 -131.9 -33.5 -136.3 -35.6 -140.4 L-35.75 -142.35 M-25.5 -56.0 Q-34.75 -53.15 -42.0 -61.0 L-45.7 -58.65 -46.8 -59.2 Q-47.7 -62.05 -48.1 -64.95 -48.55 -68.3 -49.35 -71.25 -47.45 -75.95 -46.2 -81.15 -41.4 -100.9 -36.15 -120.35 -34.3 -110.9 -33.0 -101.15 -32.1 -94.35 -27.4 -90.3 -25.35 -88.5 -25.25 -90.85 -25.15 -93.25 -25.2 -95.7 L-22.8 -90.4 Q-24.5 -89.7 -25.75 -87.85 -26.6 -86.6 -25.7 -85.9 -21.15 -82.35 -19.85 -76.3 L-18.8 -72.15 -20.9 -70.55 Q-20.05 -69.0 -19.65 -67.0 L-19.6 -66.9 Q-14.5 -76.3 -13.9 -66.25 -13.7 -63.1 -16.4 -61.0 -20.2 -58.05 -23.75 -56.6 L-25.5 -56.0 M-88.75 -40.05 L-88.05 -47.4 -88.4 -40.35 -88.75 -40.05 M-5.25 -84.75 Q-5.05 -82.9 -5.3 -81.1 L-5.5 -81.3 -6.4 -82.8 -6.15 -83.3 -5.3 -84.7 -5.25 -84.75 M-39.4 -71.8 L-39.7 -72.05 -39.7 -71.6 -39.4 -71.8 M-54.5 -57.15 L-53.15 -53.4 Q-54.9 -51.85 -56.25 -50.15 -54.9 -53.35 -54.5 -57.15 M-76.4 -26.55 Q-78.1 -21.25 -78.6 -15.6 L-78.65 -14.85 Q-76.7 -20.4 -74.25 -25.65 -75.3 -25.7 -76.4 -26.55 M-75.05 17.0 L-76.75 10.85 Q-79.95 11.6 -81.2 6.7 -92.35 5.6 -81.3 -3.75 L-80.7 -4.25 -82.15 -42.55 Q-79.9 -37.8 -76.65 -33.15 L-76.0 -32.3 -72.55 -23.05 Q-71.6 -24.0 -70.0 -24.4 -59.6 -14.4 -69.25 -1.25 L-69.4 -1.0 Q-63.1 4.0 -68.85 13.25 -72.05 18.35 -73.4 12.55 -73.8 10.9 -73.6 9.1 L-74.7 9.95 -73.75 13.5 Q-74.1 15.5 -75.05 17.0" fill="#ff4a00" fill-rule="evenodd" stroke="none"/>
    <path d="M55.5 -69.2 Q57.65 -68.25 58.75 -66.75 L59.45 -65.5 Q60.85 -67.55 62.7 -69.4 L69.1 -76.15 Q76.65 -86.25 81.8 -97.55 82.35 -98.75 83.6 -98.8 L84.8 -97.95 Q88.0 -95.2 87.3 -89.65 L86.9 -87.7 Q85.6 -82.15 86.35 -76.4 L86.65 -74.05 88.35 -68.35 Q91.45 -64.1 90.95 -56.9 90.4 -49.1 90.8 -41.1 91.75 -22.6 84.0 -8.0 L82.8 -5.9 Q82.25 -5.0 81.2 -6.1 L81.0 -6.3 80.5 -2.5 81.7 -2.6 Q87.5 -2.6 86.75 8.1 86.25 16.25 79.6 16.6 79.05 20.65 78.15 22.3 76.3 25.55 73.2 19.6 72.0 17.35 72.0 14.5 68.05 14.45 66.9 11.7 L66.8 11.65 Q62.1 9.1 58.75 5.5 47.7 -0.4 46.1 -15.9 L43.8 -39.75 Q41.6 -36.65 39.8 -39.9 L37.65 -38.95 Q35.75 -34.25 32.15 -36.9 24.35 -34.4 15.55 -33.6 1.55 -32.3 -3.4 -46.45 -4.5 -46.85 -5.25 -48.55 -6.2 -46.45 -7.9 -44.1 -15.85 -33.25 -28.1 -29.15 L-25.55 -28.25 Q-22.95 -27.05 -25.7 -25.6 -34.85 -20.65 -41.0 -25.5 -45.1 -16.25 -51.4 -10.0 -53.05 5.6 -59.5 18.7 -60.1 19.85 -62.0 20.85 -64.25 22.05 -66.1 20.2 -71.45 22.55 -73.6 22.25 L-72.8 25.35 Q-71.45 30.5 -76.0 27.8 -79.1 25.95 -81.0 22.5 -84.3 16.45 -86.65 10.35 -94.75 -10.3 -92.55 -32.1 -92.05 -36.95 -88.75 -40.05 L-88.4 -40.35 -88.05 -47.4 -86.85 -60.8 -86.9 -62.1 Q-86.95 -62.65 -86.6 -62.9 -86.25 -65.15 -84.0 -65.6 -79.4 -62.75 -79.7 -58.05 L-76.6 -54.95 -76.4 -55.2 -74.25 -52.95 Q-71.55 -49.95 -69.4 -46.45 L-69.15 -45.95 Q-64.4 -42.7 -61.9 -36.75 L-56.55 -41.4 -59.75 -39.15 Q-60.75 -38.45 -60.55 -40.0 -60.2 -42.75 -59.15 -45.15 L-59.65 -44.6 Q-60.7 -43.35 -60.95 -45.25 L-60.95 -45.3 -62.55 -43.0 Q-63.5 -41.75 -63.8 -43.65 -64.9 -51.15 -65.0 -58.6 -65.3 -72.95 -62.1 -87.25 L-61.15 -90.65 Q-60.65 -95.15 -59.45 -99.05 -57.75 -104.75 -54.55 -109.3 -49.8 -127.85 -41.85 -144.45 L-43.35 -149.65 Q-43.7 -150.75 -42.0 -150.8 L-40.25 -148.25 -39.85 -149.5 Q-39.75 -149.9 -39.2 -150.0 -36.3 -146.8 -35.75 -142.35 L-35.6 -140.4 Q-33.5 -136.3 -31.75 -131.9 L-29.35 -124.85 Q-26.8 -122.7 -25.35 -119.2 L-25.2 -119.0 Q-15.5 -113.4 -11.85 -100.0 L-10.55 -94.65 -9.45 -94.15 -8.4 -93.3 -6.45 -94.15 Q-3.5 -95.1 -1.55 -93.05 -0.45 -91.9 0.3 -89.9 2.65 -98.9 7.6 -92.3 8.15 -93.8 9.35 -94.85 L9.9 -96.15 Q10.9 -102.85 15.25 -108.25 19.2 -116.85 23.45 -125.1 26.1 -134.35 26.95 -143.75 L27.05 -145.35 Q27.15 -146.35 28.4 -146.4 L30.15 -144.0 Q38.05 -132.25 37.9 -116.1 37.85 -109.4 41.1 -103.5 43.15 -99.7 43.75 -95.25 44.4 -90.5 42.4 -91.0 L42.5 -90.4 Q45.2 -83.0 46.7 -74.9 48.0 -77.15 50.0 -79.2 55.05 -76.45 54.4 -69.9 L54.4 -69.6 55.5 -69.2 M37.8 -60.3 Q38.85 -61.25 39.25 -62.7 L40.15 -66.55 43.4 -64.5 43.7 -64.95 Q42.65 -65.4 41.35 -66.35 L40.25 -67.3 Q40.95 -73.25 38.1 -76.95 L37.7 -79.8 Q35.55 -87.05 33.75 -94.25 L32.6 -97.1 Q31.5 -97.4 30.6 -97.85 L29.6 -98.45 Q26.75 -100.45 26.65 -104.25 23.7 -100.8 21.8 -96.5 L13.7 -79.25 Q10.55 -76.75 10.95 -72.95 12.8 -53.7 35.1 -59.05 L35.4 -59.1 36.9 -56.85 Q38.3 -57.95 40.1 -58.25 L37.8 -60.3 M79.55 -70.1 Q79.25 -72.7 79.2 -75.35 72.6 -66.7 64.15 -60.7 L63.6 -60.8 Q48.9 -55.9 52.2 -41.6 53.5 -36.05 58.3 -33.6 66.3 -29.55 74.7 -33.95 76.25 -31.45 77.4 -28.65 78.2 -30.65 79.7 -32.75 L79.75 -33.2 80.35 -36.55 81.1 -36.85 Q84.55 -38.1 84.1 -41.6 83.35 -47.4 80.55 -51.5 80.6 -60.75 79.55 -70.1 M0.2 -72.7 L-0.7 -72.85 -2.6 -73.4 -2.2 -72.65 Q-0.25 -72.1 0.1 -71.35 L0.2 -72.7 M11.55 -39.75 L11.6 -39.5 11.9 -39.55 11.5 -39.85 11.55 -39.75 M70.0 -12.9 L70.75 -12.6 70.1 -14.8 70.0 -12.9 M81.0 -13.9 L81.7 -14.6 80.8 -15.45 81.0 -13.9 M-23.75 -56.6 Q-20.2 -58.05 -16.4 -61.0 -13.7 -63.1 -13.9 -66.25 -14.5 -76.3 -19.6 -66.9 L-19.65 -67.0 Q-20.05 -69.0 -20.9 -70.55 L-18.8 -72.15 -19.85 -76.3 Q-21.15 -82.35 -25.7 -85.9 -26.6 -86.6 -25.75 -87.85 -24.5 -89.7 -22.8 -90.4 L-25.2 -95.7 Q-25.15 -93.25 -25.25 -90.85 -25.35 -88.5 -27.4 -90.3 -32.1 -94.35 -33.0 -101.15 -34.3 -110.9 -36.15 -120.35 -41.4 -100.9 -46.2 -81.15 -47.45 -75.95 -49.35 -71.25 -48.55 -68.3 -48.1 -64.95 -47.7 -62.05 -46.8 -59.2 L-45.7 -58.65 -42.0 -61.0 Q-34.75 -53.15 -25.5 -56.0 L-26.8 -54.5 -25.0 -53.9 -23.75 -56.6 M-5.25 -84.75 L-5.3 -85.1 Q-5.4 -85.9 -5.7 -85.8 L-6.1 -85.3 Q-6.95 -84.15 -6.4 -82.8 L-5.5 -81.3 -5.3 -81.1 Q-5.05 -82.9 -5.25 -84.75 M-54.5 -57.15 Q-54.9 -53.35 -56.25 -50.15 -54.9 -51.85 -53.15 -53.4 L-54.5 -57.15 M-73.75 13.5 L-74.7 9.95 -73.6 9.1 Q-73.8 10.9 -73.4 12.55 -72.05 18.35 -68.85 13.25 -63.1 4.0 -69.4 -1.0 L-69.25 -1.25 Q-59.6 -14.4 -70.0 -24.4 -71.6 -24.0 -72.55 -23.05 L-76.0 -32.3 -76.65 -33.15 Q-79.9 -37.8 -82.15 -42.55 L-80.7 -4.25 -81.3 -3.75 Q-92.35 5.6 -81.2 6.7 -79.95 11.6 -76.75 10.85 L-75.05 17.0 -74.7 18.3 -73.95 16.6 -73.2 15.1 -73.75 13.5 M-31.7 -49.35 L-31.65 -50.0 -32.65 -49.2 -32.3 -48.95 -31.7 -49.35" fill="#ff3300" fill-rule="evenodd" stroke="none"/>
    <path d="M84.0 -149.6 Q86.45 -143.1 87.45 -135.9 92.1 -118.05 93.2 -96.55 94.65 -68.1 99.35 -40.1 103.1 -17.7 100.6 4.45 97.4 32.9 79.6 49.95 77.9 51.6 79.15 48.7 98.4 4.8 90.75 -43.95 87.8 -62.85 84.0 -81.6 82.8 -87.65 82.1 -93.55 75.4 -78.55 61.05 -71.1 60.95 -59.45 49.25 -58.05 47.9 -57.9 48.85 -60.9 57.4 -88.7 40.65 -115.35 31.3 -130.2 28.2 -145.4 26.85 -139.55 24.05 -133.4 14.1 -111.55 -0.85 -95.1 -2.05 -93.8 -1.45 -95.95 4.65 -116.35 12.5 -137.0 20.3 -157.5 24.8 -174.4 26.15 -171.85 27.1 -169.2 27.25 -169.45 28.0 -169.6 46.2 -128.2 59.35 -81.8 60.5 -77.85 60.85 -74.5 81.3 -108.45 83.3 -149.15 L84.0 -149.6 M-46.6 -188.25 Q-14.85 -142.05 0.35 -87.4 5.5 -68.9 -6.0 -73.4 -6.95 -73.75 -7.25 -76.7 -12.4 -124.4 -42.75 -163.55 -43.5 -158.55 -45.25 -153.2 -60.0 -108.3 -59.3 -61.0 -59.1 -50.5 -62.6 -43.65 L-62.15 -42.05 Q-57.45 -24.5 -68.55 -27.65 -69.85 -28.05 -70.25 -30.7 -74.2 -55.85 -88.15 -78.25 -90.3 -81.65 -92.05 -85.25 -91.65 -76.45 -92.65 -66.8 -100.8 13.05 -53.8 73.15 -53.25 73.85 -55.0 72.4 -95.3 38.7 -100.95 -14.3 -106.3 -64.2 -97.45 -110.9 L-96.8 -111.2 -95.4 -106.7 -94.8 -106.9 -93.6 -107.2 Q-84.25 -87.4 -72.6 -67.25 -70.4 -63.5 -68.55 -59.55 -70.6 -109.0 -54.1 -156.95 -49.9 -169.15 -51.9 -180.05 L-52.25 -181.75 Q-53.75 -188.4 -57.6 -194.6 -57.1 -196.05 -55.7 -196.8 L-53.6 -197.6 Q-49.3 -193.2 -46.6 -188.25" fill="#ff0000" fill-rule="evenodd" stroke="none"/>
  </g>
</svg>
