<?xml version="1.0" encoding="UTF-8" standalone="no"?>
<svg xmlns:ffdec="https://www.free-decompiler.com/flash" xmlns:xlink="http://www.w3.org/1999/xlink" ffdec:objectType="shape" height="293.25px" width="213.75px" xmlns="http://www.w3.org/2000/svg">
  <g transform="matrix(1.0, 0.0, 0.0, 1.0, 107.1, 202.0)">
    <path d="M85.25 -154.6 L85.25 -154.75 86.85 -154.15 87.75 -153.55 88.3 -152.9 88.45 -151.9 88.7 -151.65 89.2 -151.05 Q98.35 -105.45 102.8 -58.8 103.95 -46.9 105.5 -35.05 112.05 15.85 82.05 55.1 59.7 84.35 23.8 89.55 -10.85 94.6 -39.85 84.8 L-39.85 84.1 -39.8 83.45 -39.8 83.4 Q-59.65 77.2 -74.75 60.5 -101.3 31.1 -105.15 -7.6 -108.25 -38.7 -106.4 -70.25 -105.15 -92.25 -100.15 -113.35 L-98.45 -120.9 -97.7 -121.55 Q-97.3 -121.85 -96.8 -121.95 L-95.45 -122.2 -95.45 -122.3 -94.55 -122.25 -92.95 -121.75 -92.0 -121.1 -91.5 -120.45 -91.05 -119.75 -92.1 -114.7 -91.05 -114.35 -89.9 -113.7 -89.2 -113.05 -84.2 -101.0 Q-81.2 -94.1 -77.25 -87.95 L-73.0 -81.2 Q-72.75 -91.25 -71.1 -101.1 -68.1 -119.35 -64.05 -137.15 -59.9 -155.3 -59.7 -173.3 -59.6 -186.3 -65.4 -197.8 -65.9 -198.8 -65.1 -199.7 L-64.35 -200.3 -63.45 -200.7 -62.1 -200.95 -62.1 -201.1 -61.9 -200.95 -61.55 -201.25 -60.65 -201.65 -59.3 -201.9 -59.3 -202.0 Q-42.05 -194.65 -31.25 -179.7 -20.65 -164.95 -14.05 -147.8 -7.45 -130.5 -2.05 -113.1 -1.0 -109.65 -0.6 -106.5 0.55 -109.95 2.25 -113.3 7.65 -124.15 10.95 -135.8 14.25 -147.4 17.85 -158.9 20.6 -167.75 21.8 -177.0 L22.3 -177.6 23.25 -178.2 23.8 -178.35 23.65 -178.85 24.15 -179.45 Q24.55 -179.9 25.1 -180.05 L26.85 -180.55 26.9 -180.7 Q38.0 -169.8 42.75 -153.8 47.3 -138.45 53.5 -124.1 59.85 -109.55 64.2 -94.4 L64.4 -93.75 67.3 -99.65 Q72.35 -109.4 75.5 -119.7 78.4 -129.0 80.05 -138.45 81.35 -145.75 82.25 -153.1 L82.8 -153.75 83.4 -154.25 83.9 -154.4 85.25 -154.6 M86.2 -128.0 Q83.75 -119.1 80.4 -110.5 L72.25 -89.9 Q69.35 -82.6 63.65 -78.05 62.7 -75.95 61.15 -74.1 L59.35 -74.7 58.45 -75.35 57.95 -75.95 Q56.5 -88.75 54.25 -101.15 51.5 -115.85 45.1 -129.4 L32.0 -156.75 Q29.65 -161.6 27.8 -166.35 26.95 -159.85 24.45 -153.4 19.9 -141.6 16.25 -129.15 L9.05 -104.95 Q6.1 -95.3 0.0 -88.95 L-1.8 -89.55 -2.7 -90.15 -3.25 -90.8 -3.2 -91.95 -4.6 -89.85 -6.4 -90.45 Q-6.95 -90.7 -7.35 -91.1 L-7.85 -91.75 Q-8.85 -101.65 -11.2 -111.15 -14.75 -125.6 -19.4 -140.1 -24.85 -157.05 -34.35 -172.15 -42.0 -184.35 -54.35 -191.3 -48.4 -180.5 -50.5 -166.5 -53.35 -147.5 -57.45 -128.95 -61.6 -110.4 -63.1 -91.4 -64.05 -79.55 -67.15 -69.05 -67.05 -66.3 -68.35 -63.7 -68.7 -63.45 -69.05 -63.35 L-70.4 -63.15 -72.25 -63.45 Q-76.35 -69.4 -79.5 -76.05 -82.55 -82.55 -86.85 -88.15 -91.65 -94.3 -93.95 -101.55 L-94.3 -102.8 Q-97.95 -81.35 -99.15 -59.3 -100.85 -26.8 -94.7 4.0 -88.3 36.1 -63.2 59.3 -46.75 74.55 -26.15 81.35 L-26.0 82.05 -25.95 82.3 Q5.65 84.05 36.25 78.65 41.45 77.75 46.45 74.8 97.9 44.45 96.55 -15.25 95.85 -45.8 92.6 -75.95 90.8 -92.9 88.6 -109.75 L86.2 -128.0" fill="#000000" fill-rule="evenodd" stroke="none"/>
  </g>
</svg>
