<?xml version="1.0" encoding="UTF-8" standalone="no"?>
<svg xmlns:ffdec="https://www.free-decompiler.com/flash" xmlns:xlink="http://www.w3.org/1999/xlink" ffdec:objectType="shape" height="266.05px" width="206.15px" xmlns="http://www.w3.org/2000/svg">
  <g transform="matrix(1.0, 0.0, 0.0, 1.0, 103.1, 199.2)">
    <path d="M-10.2 -79.0 Q-10.0 -95.55 0.8 -105.6 L1.95 -103.55 Q4.6 -111.35 8.1 -118.9 19.8 -144.3 20.45 -169.4 20.6 -175.3 26.4 -176.0 61.1 -137.35 55.95 -82.7 57.6 -86.05 62.8 -85.5 L64.4 -85.4 Q65.65 -91.55 70.9 -93.9 L73.2 -94.6 Q73.8 -99.6 76.95 -103.1 78.3 -104.6 80.0 -104.8 92.55 -90.9 95.1 -69.95 91.9 -83.6 82.4 -93.2 79.65 -92.9 78.65 -90.15 77.6 -87.2 77.45 -85.3 67.5 -72.55 61.4 -56.1 56.8 -61.8 50.8 -66.8 L50.65 -66.7 51.05 -69.15 Q56.8 -79.45 55.75 -92.1 55.3 -97.8 54.2 -103.1 L54.05 -106.3 Q52.9 -124.65 41.2 -136.15 L40.25 -137.8 Q42.9 -140.85 39.45 -148.6 35.55 -157.45 30.8 -164.0 26.15 -161.85 25.55 -156.05 24.55 -146.8 23.05 -137.65 L20.75 -134.0 Q15.6 -126.4 15.15 -117.95 11.45 -110.5 6.85 -103.25 3.4 -97.85 4.2 -92.45 4.45 -90.95 5.05 -91.4 2.4 -84.2 0.95 -76.25 -0.95 -77.8 -3.5 -78.8 L-3.6 -79.1 Q-4.9 -81.85 -8.0 -82.4 -8.7 -82.35 -9.0 -81.75 L-10.2 -79.0 M95.95 -33.05 L95.8 -18.4 Q95.6 -6.9 91.3 0.4 92.25 -8.5 92.85 -17.55 93.2 -22.25 91.65 -25.85 L91.95 -29.25 92.0 -29.5 93.4 -27.8 Q95.0 -26.25 95.3 -28.3 L95.95 -33.05 M-93.35 2.95 Q-95.65 2.85 -96.1 -1.15 -101.35 -50.15 -89.15 -94.15 -88.7 -95.8 -87.45 -93.35 -78.05 -74.95 -75.6 -53.8 -59.55 -98.2 -46.6 -146.2 -45.35 -150.8 -40.9 -151.2 L-43.05 -158.3 Q-43.55 -159.95 -40.8 -160.0 -24.7 -137.0 -16.9 -109.8 -13.0 -98.05 -11.35 -85.15 -13.0 -89.4 -17.7 -90.9 -17.75 -100.45 -27.1 -100.0 L-27.2 -100.2 Q-28.05 -103.2 -29.15 -105.9 L-30.5 -110.25 Q-32.25 -115.6 -32.4 -121.0 -32.65 -129.35 -36.25 -134.9 -36.95 -139.65 -40.4 -142.8 -41.1 -142.75 -41.2 -142.25 L-43.25 -132.5 Q-44.25 -130.55 -44.4 -128.0 -46.35 -120.85 -48.8 -113.65 -54.7 -103.25 -58.85 -90.9 -61.25 -83.7 -61.2 -76.6 -65.5 -65.85 -67.25 -53.75 L-67.7 -48.55 -67.8 -48.2 Q-67.95 -47.45 -67.75 -47.15 L-67.6 -42.7 Q-67.15 -36.5 -65.45 -36.75 L-65.4 -36.45 -65.65 -36.1 -66.15 -35.2 -66.8 -36.0 -69.3 -32.6 Q-70.6 -41.65 -78.1 -49.45 -83.65 -55.2 -83.4 -62.6 -83.1 -72.8 -88.0 -78.8 -88.55 -78.75 -88.7 -78.3 L-92.0 -67.45 Q-93.6 -65.85 -94.05 -63.05 L-95.25 -53.65 -97.2 -42.95 Q-97.65 -40.15 -97.0 -37.9 L-96.55 -36.55 Q-97.05 -24.9 -96.45 -13.15 -96.25 -9.5 -95.1 -6.6 -94.7 -1.95 -93.35 2.95 M35.9 -129.9 L33.6 -132.2 33.65 -132.5 33.9 -133.6 35.9 -129.9 M35.25 -92.1 L35.5 -96.0 35.6 -95.9 Q35.75 -93.75 35.4 -91.9 L35.25 -92.1 M85.55 -75.25 L85.6 -75.4 85.8 -74.55 85.55 -75.25" fill="#ff0800" fill-rule="evenodd" stroke="none"/>
    <path d="M-80.1 12.1 L-80.6 13.1 Q-82.15 16.25 -83.25 15.45 -83.2 5.45 -85.75 -5.4 -88.4 -16.6 -87.6 -28.0 -87.15 -34.45 -89.2 -38.65 -86.95 -38.0 -85.3 -40.5 -84.65 -34.0 -78.7 -35.2 -76.75 -31.1 -73.85 -27.9 -66.75 -23.5 -67.6 -14.05 -68.75 -0.5 -79.6 2.45 -81.35 2.9 -82.45 2.15 -83.25 8.3 -83.0 14.45 -82.95 15.9 -82.3 15.1 L-80.1 12.1 M35.9 -129.9 L36.5 -128.75 Q36.2 -125.45 39.6 -122.7 43.75 -107.4 44.75 -91.1 44.9 -88.55 45.8 -86.6 L45.9 -86.4 45.3 -82.95 Q45.6 -81.4 45.25 -79.75 L45.35 -79.1 Q46.65 -67.45 35.5 -65.25 22.2 -62.55 19.25 -71.6 L18.25 -70.5 Q17.45 -69.7 16.65 -71.2 15.0 -74.35 14.65 -77.1 L14.4 -77.15 Q12.9 -80.5 10.85 -83.05 12.9 -90.05 15.75 -96.75 L16.95 -98.75 Q19.9 -103.25 20.5 -107.0 23.5 -112.85 27.1 -118.5 31.8 -125.85 29.05 -130.55 30.05 -133.3 30.35 -135.8 L31.3 -138.3 33.9 -133.6 33.65 -132.5 33.6 -132.2 35.9 -129.9 M35.25 -92.1 L35.4 -91.9 Q35.75 -93.75 35.6 -95.9 L35.5 -96.0 35.25 -92.1 M85.8 -74.55 L86.95 -69.55 Q87.75 -52.7 85.7 -35.75 L85.35 -32.95 84.65 -28.15 83.25 -26.2 Q85.05 -20.4 82.4 -16.3 82.05 -14.3 82.0 -12.35 L81.4 -10.7 80.1 -13.75 Q78.5 -12.4 76.2 -11.3 74.55 -10.5 73.5 -12.25 69.35 -19.3 67.85 -27.75 66.45 -35.7 71.05 -40.5 L70.05 -42.65 Q74.9 -47.6 77.6 -54.65 L85.2 -74.35 85.55 -75.25 85.8 -74.55 M66.9 -21.45 L66.5 -23.65 67.85 -20.35 66.9 -21.45 M91.95 -29.25 L91.65 -25.85 91.4 -26.4 91.95 -29.25 M-61.2 -76.6 L-61.15 -75.35 -64.1 -62.55 Q-66.15 -55.6 -67.7 -48.55 L-67.25 -53.75 Q-65.5 -65.85 -61.2 -76.6 M-67.75 -47.15 Q-67.5 -46.8 -66.65 -47.15 L-66.45 -47.2 Q-66.6 -41.9 -65.45 -36.75 -67.15 -36.5 -67.6 -42.7 L-67.75 -47.15 M-39.9 -101.95 Q-38.45 -104.95 -37.9 -107.6 L-35.4 -103.35 Q-33.6 -96.6 -32.15 -89.75 -31.55 -86.95 -30.5 -84.5 -30.4 -86.65 -28.2 -87.6 L-27.2 -88.0 Q-21.3 -82.05 -23.55 -71.95 -27.6 -53.4 -45.1 -57.15 -54.9 -59.3 -52.0 -69.65 L-50.95 -72.65 -51.0 -72.65 -52.55 -72.05 Q-46.95 -87.3 -39.9 -101.95" fill="#ff4a00" fill-rule="evenodd" stroke="none"/>
    <path d="M-10.2 -79.0 L-9.0 -81.75 Q-8.7 -82.35 -8.0 -82.4 -4.9 -81.85 -3.6 -79.1 L-3.5 -78.8 Q-0.95 -77.8 0.95 -76.25 2.4 -84.2 5.05 -91.4 4.45 -90.95 4.2 -92.45 3.4 -97.85 6.85 -103.25 11.45 -110.5 15.15 -117.95 15.6 -126.4 20.75 -134.0 L23.05 -137.65 Q24.55 -146.8 25.55 -156.05 26.15 -161.85 30.8 -164.0 35.55 -157.45 39.45 -148.6 42.9 -140.85 40.25 -137.8 L41.2 -136.15 Q52.9 -124.65 54.05 -106.3 L54.2 -103.1 Q55.3 -97.8 55.75 -92.1 56.8 -79.45 51.05 -69.15 L50.65 -66.7 50.8 -66.8 Q56.8 -61.8 61.4 -56.1 67.5 -72.55 77.45 -85.3 77.6 -87.2 78.65 -90.15 79.65 -92.9 82.4 -93.2 91.9 -83.6 95.1 -69.95 96.15 -65.5 96.5 -60.6 97.55 -46.7 95.95 -33.05 L95.3 -28.3 Q95.0 -26.25 93.4 -27.8 L92.0 -29.5 91.95 -29.25 91.4 -26.4 91.65 -25.85 Q93.2 -22.25 92.85 -17.55 92.25 -8.5 91.3 0.4 89.75 14.25 87.3 27.7 84.7 42.1 79.4 29.05 77.75 25.1 77.3 20.8 L75.9 19.0 Q63.85 23.25 57.0 10.35 46.1 -10.1 43.8 -33.1 38.35 -38.45 38.55 -47.8 L35.1 -45.45 Q32.05 -43.55 28.6 -42.05 L26.95 -41.4 Q22.15 -36.4 16.15 -37.45 15.8 -37.5 15.7 -38.0 2.45 -34.0 -0.8 -47.85 -1.65 -51.4 -1.2 -55.2 -2.25 -55.6 -3.05 -56.25 -4.5 -54.45 -7.15 -52.5 -18.35 -44.4 -28.7 -35.55 -29.8 -34.6 -31.3 -35.1 -32.45 -23.65 -40.7 -25.15 -41.9 -25.35 -42.2 -27.0 L-42.9 -29.6 Q-50.3 -11.45 -55.35 7.3 -57.75 16.1 -63.9 10.5 -66.1 20.8 -72.15 27.1 -72.95 27.9 -73.75 26.4 -74.8 24.35 -74.3 22.0 -85.75 24.95 -78.5 15.4 L-76.95 13.3 Q-77.85 11.3 -78.25 9.1 L-80.1 12.1 -82.3 15.1 Q-82.95 15.9 -83.0 14.45 -83.25 8.3 -82.45 2.15 -81.35 2.9 -79.6 2.45 -68.75 -0.5 -67.6 -14.05 -66.75 -23.5 -73.85 -27.9 -76.75 -31.1 -78.7 -35.2 -84.65 -34.0 -85.3 -40.5 -86.95 -38.0 -89.2 -38.65 -87.15 -34.45 -87.6 -28.0 -88.4 -16.6 -85.75 -5.4 -83.2 5.45 -83.25 15.45 L-83.35 18.35 -84.65 18.3 Q-86.85 15.85 -88.5 13.05 -91.05 10.15 -92.35 6.2 L-93.35 2.95 Q-94.7 -1.95 -95.1 -6.6 -96.25 -9.5 -96.45 -13.15 -97.05 -24.9 -96.55 -36.55 L-97.0 -37.9 Q-97.65 -40.15 -97.2 -42.95 L-95.25 -53.65 -94.05 -63.05 Q-93.6 -65.85 -92.0 -67.45 L-88.7 -78.3 Q-88.55 -78.75 -88.0 -78.8 -83.1 -72.8 -83.4 -62.6 -83.65 -55.2 -78.1 -49.45 -70.6 -41.65 -69.3 -32.6 L-66.8 -36.0 -66.15 -35.2 -65.65 -36.1 -65.4 -36.45 -65.45 -36.75 Q-66.6 -41.9 -66.45 -47.2 L-66.65 -47.15 Q-67.5 -46.8 -67.75 -47.15 -67.95 -47.45 -67.8 -48.2 L-67.7 -48.55 Q-66.15 -55.6 -64.1 -62.55 L-61.15 -75.35 -61.2 -76.6 Q-61.25 -83.7 -58.85 -90.9 -54.7 -103.25 -48.8 -113.65 -46.35 -120.85 -44.4 -128.0 -44.25 -130.55 -43.25 -132.5 L-41.2 -142.25 Q-41.1 -142.75 -40.4 -142.8 -36.95 -139.65 -36.25 -134.9 -32.65 -129.35 -32.4 -121.0 -32.25 -115.6 -30.5 -110.25 L-29.15 -105.9 Q-28.05 -103.2 -27.2 -100.2 L-27.1 -100.0 Q-17.75 -100.45 -17.7 -90.9 -13.0 -89.4 -11.35 -85.15 -10.25 -82.3 -10.55 -78.15 L-10.2 -79.0 M33.9 -133.6 L31.3 -138.3 30.35 -135.8 Q30.05 -133.3 29.05 -130.55 31.8 -125.85 27.1 -118.5 23.5 -112.85 20.5 -107.0 19.9 -103.25 16.95 -98.75 L15.75 -96.75 Q12.9 -90.05 10.85 -83.05 12.9 -80.5 14.4 -77.15 L14.65 -77.1 Q15.0 -74.35 16.65 -71.2 17.45 -69.7 18.25 -70.5 L19.25 -71.6 Q22.2 -62.55 35.5 -65.25 46.65 -67.45 45.35 -79.1 L45.25 -79.75 Q45.6 -81.4 45.3 -82.95 L45.9 -86.4 45.8 -86.6 Q44.9 -88.55 44.75 -91.1 43.75 -107.4 39.6 -122.7 36.2 -125.45 36.5 -128.75 L35.9 -129.9 33.9 -133.6 M13.9 -50.7 L15.0 -49.15 15.05 -49.2 13.95 -50.65 13.9 -50.7 M24.8 -53.1 Q24.7 -52.3 25.1 -52.0 L25.8 -53.0 25.4 -53.05 24.8 -53.1 M32.75 -61.8 Q28.0 -61.6 22.75 -63.95 L18.55 -65.8 Q22.55 -59.0 31.6 -58.6 L33.55 -59.8 33.7 -60.35 33.75 -60.95 32.75 -61.8 M85.55 -75.25 L85.2 -74.35 77.6 -54.65 Q74.9 -47.6 70.05 -42.65 L71.05 -40.5 Q66.45 -35.7 67.85 -27.75 69.35 -19.3 73.5 -12.25 74.55 -10.5 76.2 -11.3 78.5 -12.4 80.1 -13.75 L81.4 -10.7 82.0 -12.35 Q82.05 -14.3 82.4 -16.3 85.05 -20.4 83.25 -26.2 L84.65 -28.15 85.35 -32.95 85.7 -35.75 Q87.75 -52.7 86.95 -69.55 L85.8 -74.55 85.6 -75.4 85.55 -75.25 M66.5 -23.65 L65.8 -25.2 64.55 -25.2 64.4 -23.3 66.9 -21.45 67.85 -20.35 66.5 -23.65 M70.25 -8.45 Q69.9 -5.45 70.3 -2.5 L72.05 -2.2 Q71.1 -4.3 70.85 -6.85 L70.45 -10.5 70.25 -8.45 M-39.9 -101.95 Q-46.95 -87.3 -52.55 -72.05 L-51.0 -72.65 -50.95 -72.65 -52.0 -69.65 Q-54.9 -59.3 -45.1 -57.15 -27.6 -53.4 -23.55 -71.95 -21.3 -82.05 -27.2 -88.0 L-28.2 -87.6 Q-30.4 -86.65 -30.5 -84.5 -31.55 -86.95 -32.15 -89.75 -33.6 -96.6 -35.4 -103.35 L-37.9 -107.6 Q-38.45 -104.95 -39.9 -101.95 M-15.6 -62.45 Q-18.15 -55.65 -22.05 -50.35 L-22.9 -48.95 Q-17.0 -54.65 -10.75 -59.65 -12.85 -60.7 -13.0 -64.65 -13.6 -63.95 -15.1 -63.2 L-15.35 -63.05 -15.6 -62.45 M-55.15 -33.35 L-54.8 -32.6 -54.2 -33.1 -55.15 -33.35 M-58.1 -33.55 L-56.3 -33.8 -57.5 -34.4 -58.1 -33.55 M-48.6 -33.15 L-48.85 -33.2 -49.8 -33.0 -48.9 -32.1 -48.6 -33.15" fill="#ff3300" fill-rule="evenodd" stroke="none"/>
    <path d="M25.8 -154.15 Q12.4 -116.65 -7.75 -84.55 -8.45 -83.4 -7.9 -85.6 -0.35 -114.4 11.15 -142.45 19.5 -162.95 21.8 -183.35 19.65 -192.0 22.4 -199.2 53.3 -148.25 62.6 -88.9 L63.1 -84.75 Q72.65 -99.5 77.3 -116.35 76.65 -120.0 76.4 -123.6 77.2 -124.55 78.3 -125.0 L79.45 -125.4 80.0 -125.6 Q81.75 -122.55 82.7 -119.15 98.15 -80.25 102.35 -35.85 106.65 9.3 84.6 46.9 79.3 55.95 81.25 46.05 82.35 40.35 84.1 34.5 104.0 -32.55 82.0 -99.6 L80.95 -96.2 Q75.15 -79.25 61.5 -74.05 59.35 -70.15 54.55 -69.4 52.95 -69.15 53.15 -72.65 56.35 -122.7 29.15 -167.3 28.25 -160.95 25.8 -154.15 M-45.6 -174.4 Q-6.6 -128.6 -8.7 -70.9 -8.7 -69.75 -9.15 -71.75 -15.2 -98.1 -26.45 -122.65 -33.7 -138.55 -40.2 -154.2 -39.2 -143.4 -44.6 -130.75 -65.8 -80.9 -64.45 -30.2 -64.4 -28.8 -65.25 -31.1 -78.2 -65.95 -61.85 -101.05 -45.15 -137.0 -53.6 -172.2 -53.1 -173.65 -51.7 -174.4 L-49.6 -175.2 -47.7 -172.9 Q-47.9 -174.3 -45.6 -174.4 M-94.0 -118.0 L-92.1 -119.4 -91.9 -119.45 -91.2 -121.6 -90.6 -119.95 -90.4 -120.0 Q-71.45 -82.5 -72.05 -37.4 -72.1 -34.55 -73.05 -38.15 L-87.25 -92.0 Q-87.85 -84.35 -89.9 -76.1 -100.6 -33.25 -86.4 8.75 -76.0 39.6 -61.95 66.45 -61.45 67.45 -62.75 66.05 -96.7 29.85 -101.75 -21.45 -106.7 -71.3 -93.25 -115.15 L-94.0 -118.0" fill="#ff0000" fill-rule="evenodd" stroke="none"/>
  </g>
</svg>
