<?xml version="1.0" encoding="UTF-8" standalone="no"?>
<svg xmlns:ffdec="https://www.free-decompiler.com/flash" xmlns:xlink="http://www.w3.org/1999/xlink" ffdec:objectType="morphshape" height="53.0px" width="68.2px" xmlns="http://www.w3.org/2000/svg">
  <g transform="matrix(1.0, 0.0, 0.0, 1.0, 378.2, 59.0)">
    <path d="M-370.7 -20.25 L-370.65 -20.6 -370.35 -21.0 -370.1 -21.4 -369.9 -21.75 -369.75 -22.2 -369.75 -22.6 -368.1 -25.25 -364.4 -30.65 Q-362.55 -33.3 -360.35 -35.45 L-359.85 -35.8 -359.45 -36.15 -359.0 -36.45 -358.55 -36.75 -358.35 -37.1 -358.05 -37.45 -357.75 -37.75 -356.9 -38.45 -356.55 -38.7 -356.35 -39.1 -356.0 -39.45 -355.65 -39.75 -355.25 -40.05 -354.75 -40.4 -354.35 -40.65 -353.5 -41.0 -352.95 -41.35 -352.15 -41.9 -351.35 -42.15 -350.3 -42.35 -349.95 -42.4 -349.6 -42.65 -349.15 -42.95 -348.85 -43.2 -348.55 -43.6 -348.05 -43.8 -347.45 -44.15 Q-346.35 -44.45 -345.25 -44.75 -343.95 -45.3 -342.65 -45.95 L-342.4 -46.0 -342.25 -45.95 -342.2 -45.65 -342.2 -45.3 -342.25 -44.95 -342.35 -44.3 -342.3 -44.0 -342.2 -43.6 -342.0 -43.2 -342.0 -42.9 -342.1 -42.6 -342.1 -42.25 -342.15 -41.9 -342.05 -41.6 -341.7 -40.5 -341.65 -39.75 -341.5 -38.65 -341.2 -38.3 -340.95 -37.85 -340.65 -37.55 Q-340.75 -36.35 -340.2 -35.2 L-338.75 -32.2 -337.4 -29.4 -336.35 -28.25 -334.95 -26.5 -333.5 -24.8 -332.5 -24.25 Q-331.65 -23.75 -330.9 -22.85 L-329.65 -21.6 -328.4 -21.1 -328.3 -21.05 Q-327.2 -19.95 -325.75 -19.2 -323.8 -18.35 -322.45 -17.15 L-322.6 -16.45 Q-323.2 -16.15 -323.85 -16.0 L-340.85 -17.75 -341.35 -18.3 Q-341.65 -18.45 -341.8 -19.05 L-342.4 -20.8 -344.05 -22.45 Q-357.75 -22.6 -370.7 -20.25 M-378.2 -15.85 L-378.15 -15.45 -378.15 -15.05 -377.95 -14.55 -377.65 -14.1 -377.25 -13.65 -376.15 -13.25 -375.6 -13.15 Q-362.15 -15.9 -348.6 -17.35 L-347.4 -17.35 -347.4 -17.3 -347.25 -16.55 Q-347.15 -15.9 -347.1 -15.25 L-346.85 -14.85 -346.5 -14.4 Q-345.7 -13.55 -344.5 -13.25 -329.7 -9.8 -314.45 -9.4 L-313.85 -9.8 -313.5 -10.2 Q-313.35 -10.4 -313.25 -10.55 -313.15 -10.8 -313.1 -11.0 L-312.95 -11.35 -312.95 -11.9 -312.95 -12.25 -312.95 -12.75 -313.1 -13.2 -313.3 -13.65 -313.45 -14.05 -313.45 -14.6 -313.45 -14.95 -313.6 -15.4 -313.75 -15.8 -314.05 -16.3 -314.3 -16.75 -315.7 -17.75 -316.65 -18.7 -316.8 -19.1 -316.8 -19.45 -316.8 -19.95 -316.95 -20.35 -317.15 -20.75 -317.35 -21.2 -317.7 -21.65 -320.2 -22.9 Q-315.65 -23.0 -311.15 -24.4 L-310.75 -25.15 -310.6 -25.55 -310.55 -25.9 Q-310.45 -26.1 -310.35 -26.25 L-310.2 -26.65 -310.05 -27.1 -310.0 -27.45 -310.05 -27.85 -310.35 -28.65 -310.6 -29.0 -311.0 -29.5 -311.65 -29.9 -312.9 -30.45 -313.4 -30.85 -314.9 -31.75 -315.65 -32.2 -315.95 -32.55 -316.35 -33.0 -316.95 -33.4 -317.65 -33.85 Q-318.1 -35.1 -319.0 -35.95 L-321.65 -38.6 -322.0 -39.0 -322.2 -39.35 Q-322.3 -39.55 -322.4 -39.7 L-322.65 -40.05 Q-323.6 -40.9 -324.0 -41.95 L-324.55 -42.95 -324.85 -43.4 -324.85 -43.7 Q-325.25 -44.75 -325.65 -45.8 L-326.05 -46.9 -326.15 -47.2 -326.1 -47.55 -326.1 -47.9 -326.35 -48.55 -326.65 -49.6 -326.75 -49.9 -326.9 -50.25 -326.9 -50.6 -326.9 -50.9 -326.85 -51.2 -327.6 -53.5 -327.95 -54.8 -328.0 -55.1 -328.0 -55.75 -327.95 -56.35 -327.9 -56.65 -327.9 -57.0 -328.05 -57.3 -328.15 -57.6 -328.3 -57.9 -328.65 -58.3 -330.2 -58.65 -333.4 -59.0 -336.35 -58.6 Q-344.3 -57.45 -351.9 -55.25 L-358.75 -52.3 Q-361.95 -51.05 -364.8 -49.2 L-365.1 -48.85 Q-365.35 -48.55 -365.6 -48.3 L-366.05 -47.95 Q-366.2 -47.8 -366.3 -47.7 L-366.55 -47.3 -366.65 -47.05 -366.9 -46.05 -367.0 -45.35 -367.05 -45.05 -367.0 -44.7 Q-366.45 -43.75 -365.4 -43.05 -363.35 -41.65 -361.0 -41.3 L-361.05 -41.15 -361.25 -40.8 Q-361.95 -40.35 -362.6 -39.9 -363.0 -39.55 -363.4 -39.25 L-363.9 -38.9 -364.1 -38.6 -364.25 -38.2 -364.75 -37.9 -365.15 -37.6 -365.65 -37.3 -371.05 -29.95 Q-373.4 -26.65 -375.4 -23.0 L-375.5 -22.55 -375.6 -22.2 -375.65 -21.8 Q-375.75 -21.65 -375.85 -21.5 L-376.2 -21.1 -376.45 -20.7 -376.55 -20.3 -376.65 -19.9 -376.8 -19.5 -376.85 -19.15 -377.25 -18.75 -377.5 -18.35 -377.7 -17.95 -377.9 -17.05 -378.0 -16.7 -378.05 -16.25 -378.2 -15.85 M-360.6 -46.4 L-360.1 -46.25 Q-357.95 -46.0 -356.0 -45.1 L-354.0 -46.35 Q-350.95 -47.55 -347.9 -48.7 L-344.9 -50.0 -344.5 -50.25 -344.05 -50.55 -343.55 -50.8 -342.45 -50.95 -340.05 -51.2 -338.6 -51.0 -337.05 -50.45 -336.85 -50.1 -336.65 -49.8 -336.5 -49.45 -336.35 -49.15 -336.35 -48.75 -336.4 -48.45 -336.45 -47.8 -336.55 -47.15 -336.75 -46.8 -336.95 -46.45 -337.1 -46.15 -337.25 -45.85 -337.15 -45.5 -337.0 -45.15 -336.85 -44.45 -336.85 -44.15 -336.9 -43.75 -337.0 -43.4 -337.0 -43.05 -336.35 -41.0 -334.75 -36.5 -334.65 -36.2 -334.35 -35.75 -334.1 -35.4 -334.0 -35.0 -333.9 -34.6 -333.35 -33.45 -333.0 -32.7 -332.65 -32.3 -332.35 -31.9 -331.9 -31.5 -331.8 -31.15 -331.6 -30.7 -330.6 -29.8 -329.4 -28.95 -320.15 -28.75 -321.85 -30.6 -326.1 -35.65 -326.25 -36.1 -326.3 -36.45 -326.7 -36.85 -327.05 -37.25 -327.15 -37.6 -327.25 -37.95 -327.65 -38.35 -327.95 -38.75 -328.7 -39.5 -328.9 -39.9 Q-329.65 -41.2 -330.0 -42.4 L-331.15 -45.25 -331.25 -45.6 -331.2 -45.9 -331.2 -46.3 -331.3 -46.6 -331.35 -46.95 -331.5 -47.25 -331.55 -47.65 -331.55 -47.95 -331.55 -48.35 -331.75 -48.6 -331.9 -49.0 -331.85 -49.3 -331.85 -49.65 -331.85 -49.95 -332.0 -50.25 -332.15 -50.65 -332.25 -50.95 -332.25 -51.25 -332.2 -51.65 -332.35 -51.95 -332.6 -52.9 -332.95 -54.5 -333.05 -54.85 Q-338.7 -54.2 -344.15 -52.65 L-346.9 -51.85 -350.25 -51.0 Q-352.65 -49.85 -355.1 -48.95 -358.0 -47.9 -360.6 -46.4" fill="#000000" fill-rule="evenodd" stroke="none">
      <animate attributeName="fill" dur="2s" repeatCount="indefinite" values="#000000;#000001"/>
      <animate attributeName="fill-opacity" dur="2s" repeatCount="indefinite" values="1.0;1.0"/>
      <animate attributeName="d" dur="2s" repeatCount="indefinite" values="M-370.7 -20.25 L-370.65 -20.6 -370.35 -21.0 -370.1 -21.4 -369.9 -21.75 -369.75 -22.2 -369.75 -22.6 -368.1 -25.25 -364.4 -30.65 Q-362.55 -33.3 -360.35 -35.45 L-359.85 -35.8 -359.45 -36.15 -359.0 -36.45 -358.55 -36.75 -358.35 -37.1 -358.05 -37.45 -357.75 -37.75 -356.9 -38.45 -356.55 -38.7 -356.35 -39.1 -356.0 -39.45 -355.65 -39.75 -355.25 -40.05 -354.75 -40.4 -354.35 -40.65 -353.5 -41.0 -352.95 -41.35 -352.15 -41.9 -351.35 -42.15 -350.3 -42.35 -349.95 -42.4 -349.6 -42.65 -349.15 -42.95 -348.85 -43.2 -348.55 -43.6 -348.05 -43.8 -347.45 -44.15 Q-346.35 -44.45 -345.25 -44.75 -343.95 -45.3 -342.65 -45.95 L-342.4 -46.0 -342.25 -45.95 -342.2 -45.65 -342.2 -45.3 -342.25 -44.95 -342.35 -44.3 -342.3 -44.0 -342.2 -43.6 -342.0 -43.2 -342.0 -42.9 -342.1 -42.6 -342.1 -42.25 -342.15 -41.9 -342.05 -41.6 -341.7 -40.5 -341.65 -39.75 -341.5 -38.65 -341.2 -38.3 -340.95 -37.85 -340.65 -37.55 Q-340.75 -36.35 -340.2 -35.2 L-338.75 -32.2 -337.4 -29.4 -336.35 -28.25 -334.95 -26.5 -333.5 -24.8 -332.5 -24.25 Q-331.65 -23.75 -330.9 -22.85 L-329.65 -21.6 -328.4 -21.1 -328.3 -21.05 Q-327.2 -19.95 -325.75 -19.2 -323.8 -18.35 -322.45 -17.15 L-322.6 -16.45 Q-323.2 -16.15 -323.85 -16.0 L-340.85 -17.75 -341.35 -18.3 Q-341.65 -18.45 -341.8 -19.05 L-342.4 -20.8 -344.05 -22.45 Q-357.75 -22.6 -370.7 -20.25 M-378.2 -15.85 L-378.15 -15.45 -378.15 -15.05 -377.95 -14.55 -377.65 -14.1 -377.25 -13.65 -376.15 -13.25 -375.6 -13.15 Q-362.15 -15.9 -348.6 -17.35 L-347.4 -17.35 -347.4 -17.3 -347.25 -16.55 Q-347.15 -15.9 -347.1 -15.25 L-346.85 -14.85 -346.5 -14.4 Q-345.7 -13.55 -344.5 -13.25 -329.7 -9.8 -314.45 -9.4 L-313.85 -9.8 -313.5 -10.2 Q-313.35 -10.4 -313.25 -10.55 -313.15 -10.8 -313.1 -11.0 L-312.95 -11.35 -312.95 -11.9 -312.95 -12.25 -312.95 -12.75 -313.1 -13.2 -313.3 -13.65 -313.45 -14.05 -313.45 -14.6 -313.45 -14.95 -313.6 -15.4 -313.75 -15.8 -314.05 -16.3 -314.3 -16.75 -315.7 -17.75 -316.65 -18.7 -316.8 -19.1 -316.8 -19.45 -316.8 -19.95 -316.95 -20.35 -317.15 -20.75 -317.35 -21.2 -317.7 -21.65 -320.2 -22.9 Q-315.65 -23.0 -311.15 -24.4 L-310.75 -25.15 -310.6 -25.55 -310.55 -25.9 Q-310.45 -26.1 -310.35 -26.25 L-310.2 -26.65 -310.05 -27.1 -310.0 -27.45 -310.05 -27.85 -310.35 -28.65 -310.6 -29.0 -311.0 -29.5 -311.65 -29.9 -312.9 -30.45 -313.4 -30.85 -314.9 -31.75 -315.65 -32.2 -315.95 -32.55 -316.35 -33.0 -316.95 -33.4 -317.65 -33.85 Q-318.1 -35.1 -319.0 -35.95 L-321.65 -38.6 -322.0 -39.0 -322.2 -39.35 Q-322.3 -39.55 -322.4 -39.7 L-322.65 -40.05 Q-323.6 -40.9 -324.0 -41.95 L-324.55 -42.95 -324.85 -43.4 -324.85 -43.7 Q-325.25 -44.75 -325.65 -45.8 L-326.05 -46.9 -326.15 -47.2 -326.1 -47.55 -326.1 -47.9 -326.35 -48.55 -326.65 -49.6 -326.75 -49.9 -326.9 -50.25 -326.9 -50.6 -326.9 -50.9 -326.85 -51.2 -327.6 -53.5 -327.95 -54.8 -328.0 -55.1 -328.0 -55.75 -327.95 -56.35 -327.9 -56.65 -327.9 -57.0 -328.05 -57.3 -328.15 -57.6 -328.3 -57.9 -328.65 -58.3 -330.2 -58.65 -333.4 -59.0 -336.35 -58.6 Q-344.3 -57.45 -351.9 -55.25 L-358.75 -52.3 Q-361.95 -51.05 -364.8 -49.2 L-365.1 -48.85 Q-365.35 -48.55 -365.6 -48.3 L-366.05 -47.95 Q-366.2 -47.8 -366.3 -47.7 L-366.55 -47.3 -366.65 -47.05 -366.9 -46.05 -367.0 -45.35 -367.05 -45.05 -367.0 -44.7 Q-366.45 -43.75 -365.4 -43.05 -363.35 -41.65 -361.0 -41.3 L-361.05 -41.15 -361.25 -40.8 Q-361.95 -40.35 -362.6 -39.9 -363.0 -39.55 -363.4 -39.25 L-363.9 -38.9 -364.1 -38.6 -364.25 -38.2 -364.75 -37.9 -365.15 -37.6 -365.65 -37.3 -371.05 -29.95 Q-373.4 -26.65 -375.4 -23.0 L-375.5 -22.55 -375.6 -22.2 -375.65 -21.8 Q-375.75 -21.65 -375.85 -21.5 L-376.2 -21.1 -376.45 -20.7 -376.55 -20.3 -376.65 -19.9 -376.8 -19.5 -376.85 -19.15 -377.25 -18.75 -377.5 -18.35 -377.7 -17.95 -377.9 -17.05 -378.0 -16.7 -378.05 -16.25 -378.2 -15.85 M-360.6 -46.4 L-360.1 -46.25 Q-357.95 -46.0 -356.0 -45.1 L-354.0 -46.35 Q-350.95 -47.55 -347.9 -48.7 L-344.9 -50.0 -344.5 -50.25 -344.05 -50.55 -343.55 -50.8 -342.45 -50.95 -340.05 -51.2 -338.6 -51.0 -337.05 -50.45 -336.85 -50.1 -336.65 -49.8 -336.5 -49.45 -336.35 -49.15 -336.35 -48.75 -336.4 -48.45 -336.45 -47.8 -336.55 -47.15 -336.75 -46.8 -336.95 -46.45 -337.1 -46.15 -337.25 -45.85 -337.15 -45.5 -337.0 -45.15 -336.85 -44.45 -336.85 -44.15 -336.9 -43.75 -337.0 -43.4 -337.0 -43.05 -336.35 -41.0 -334.75 -36.5 -334.65 -36.2 -334.35 -35.75 -334.1 -35.4 -334.0 -35.0 -333.9 -34.6 -333.35 -33.45 -333.0 -32.7 -332.65 -32.3 -332.35 -31.9 -331.9 -31.5 -331.8 -31.15 -331.6 -30.7 -330.6 -29.8 -329.4 -28.95 -320.15 -28.75 -321.85 -30.6 -326.1 -35.65 -326.25 -36.1 -326.3 -36.45 -326.7 -36.85 -327.05 -37.25 -327.15 -37.6 -327.25 -37.95 -327.65 -38.35 -327.95 -38.75 -328.7 -39.5 -328.9 -39.9 Q-329.65 -41.2 -330.0 -42.4 L-331.15 -45.25 -331.25 -45.6 -331.2 -45.9 -331.2 -46.3 -331.3 -46.6 -331.35 -46.95 -331.5 -47.25 -331.55 -47.65 -331.55 -47.95 -331.55 -48.35 -331.75 -48.6 -331.9 -49.0 -331.85 -49.3 -331.85 -49.65 -331.85 -49.95 -332.0 -50.25 -332.15 -50.65 -332.25 -50.95 -332.25 -51.25 -332.2 -51.65 -332.35 -51.95 -332.6 -52.9 -332.95 -54.5 -333.05 -54.85 Q-338.7 -54.2 -344.15 -52.65 L-346.9 -51.85 -350.25 -51.0 Q-352.65 -49.85 -355.1 -48.95 -358.0 -47.9 -360.6 -46.4;M-365.5 -12.75 L-365.45 -13.1 -365.3 -13.5 -365.15 -13.9 -365.0 -14.25 -365.0 -14.65 -365.0 -15.0 -364.0 -17.65 -361.6 -23.25 Q-360.25 -26.0 -358.5 -28.5 L-358.15 -28.9 -357.75 -29.25 -357.4 -29.65 -357.0 -30.0 -356.85 -30.35 -356.65 -30.75 -356.35 -31.1 -355.65 -31.9 -355.4 -32.25 -355.25 -32.6 -355.0 -33.0 -354.65 -33.4 -354.25 -33.75 -353.9 -34.15 -353.5 -34.5 -352.75 -34.9 -352.25 -35.3 -351.5 -36.0 -350.75 -36.35 -349.75 -36.65 -349.4 -36.75 -349.1 -37.0 -348.65 -37.4 -348.4 -37.75 -348.15 -38.15 -347.65 -38.5 -347.15 -38.9 Q-346.0 -39.15 -345.0 -39.7 -343.7 -40.4 -342.5 -41.25 L-342.25 -41.35 -342.1 -41.3 -342.0 -41.0 -342.0 -40.65 -342.0 -40.25 -342.0 -39.5 -341.9 -39.15 -341.75 -38.75 -341.55 -38.35 -341.5 -38.0 -341.5 -37.65 -341.5 -37.25 -341.5 -36.9 -341.35 -36.55 -340.85 -35.4 -340.7 -34.6 -340.4 -33.5 -340.1 -33.15 -339.8 -32.75 -339.5 -32.4 Q-339.35 -31.15 -338.75 -30.05 L-337.05 -27.15 -335.5 -24.5 -334.4 -23.4 -332.9 -21.9 -331.4 -20.4 -330.5 -20.0 Q-329.7 -19.4 -328.9 -18.85 L-327.65 -17.75 -326.5 -17.45 -326.4 -17.4 Q-325.35 -16.45 -324.0 -15.95 -322.2 -15.35 -321.0 -14.4 L-321.1 -13.75 Q-321.55 -13.45 -322.15 -13.25 L-337.5 -13.25 -338.05 -13.7 Q-338.3 -14.05 -338.5 -14.4 L-339.25 -15.9 -340.95 -17.25 Q-353.7 -16.1 -365.5 -12.75 M-371.5 -10.0 L-371.5 -9.25 -371.5 -8.9 -371.5 -8.5 -371.5 -8.15 -371.4 -7.75 -371.25 -7.4 -371.0 -7.0 Q-370.8 -6.8 -370.6 -6.65 L-370.15 -6.25 -369.0 -6.05 -368.5 -6.0 Q-356.6 -9.6 -344.5 -12.25 L-343.4 -12.3 -343.4 -12.25 Q-343.25 -11.9 -343.15 -11.6 -343.0 -11.05 -342.85 -10.5 L-342.6 -10.15 -342.25 -9.75 Q-341.4 -9.1 -340.35 -8.95 -326.95 -7.35 -313.75 -8.4 L-313.3 -8.8 -313.0 -9.15 -312.8 -9.5 -312.65 -9.9 -312.5 -10.25 -312.5 -10.65 -312.5 -11.0 -312.5 -11.4 -312.65 -11.75 -312.85 -12.15 -313.0 -12.5 -313.0 -12.9 -313.0 -13.25 -313.15 -13.65 -313.3 -14.0 -313.5 -14.4 -313.75 -14.75 -315.0 -15.55 -315.85 -16.3 -316.0 -16.65 -316.0 -17.0 -316.0 -17.4 -316.15 -17.75 Q-316.25 -17.95 -316.35 -18.15 L-316.55 -18.5 -316.9 -18.9 -319.15 -19.8 Q-315.0 -20.25 -311.0 -22.0 L-310.65 -22.75 -310.55 -23.15 -310.5 -23.5 -310.35 -23.85 -310.15 -24.25 -310.05 -24.65 -310.0 -25.0 -310.05 -25.35 -310.35 -26.15 -310.55 -26.5 -310.9 -26.9 -311.55 -27.2 -312.65 -27.65 -313.15 -28.0 -314.5 -28.75 -315.25 -29.15 Q-315.4 -29.35 -315.55 -29.5 L-315.9 -29.9 -316.5 -30.25 -317.15 -30.65 Q-317.55 -31.8 -318.5 -32.65 L-321.15 -35.15 Q-321.35 -35.35 -321.5 -35.5 L-321.75 -35.9 -321.9 -36.25 -322.15 -36.65 Q-323.1 -37.4 -323.55 -38.5 L-324.2 -39.6 -324.5 -40.0 -324.55 -40.35 -325.4 -42.6 -325.85 -43.75 -326.0 -44.15 -326.0 -44.5 -326.0 -44.9 -326.35 -45.65 -326.7 -46.75 -326.85 -47.15 -327.0 -47.5 -327.0 -47.9 -327.0 -48.25 -327.0 -48.65 -327.9 -51.25 -328.4 -52.75 -328.5 -53.15 -328.5 -53.9 -328.5 -54.65 -328.5 -55.0 -328.5 -55.4 -328.65 -55.75 -328.85 -56.15 -329.05 -56.45 Q-329.25 -56.7 -329.4 -56.9 L-331.05 -57.3 Q-332.8 -57.4 -334.5 -57.5 L-337.6 -56.7 Q-345.8 -54.55 -353.65 -51.25 L-360.35 -47.2 Q-363.4 -45.4 -366.0 -43.0 L-366.25 -42.6 -366.65 -41.9 -367.0 -41.5 -367.25 -41.15 -367.4 -40.75 -367.5 -40.4 Q-367.5 -39.8 -367.5 -39.25 -367.45 -38.85 -367.45 -38.5 L-367.4 -38.15 -367.25 -37.75 Q-366.4 -36.75 -365.2 -36.1 -362.75 -34.75 -360.3 -34.55 L-360.4 -34.4 -360.5 -34.0 -361.65 -32.9 -362.4 -32.15 -362.75 -31.75 -362.9 -31.4 -363.0 -31.0 Q-363.2 -30.8 -363.4 -30.65 L-363.75 -30.25 -364.15 -29.9 -367.9 -21.95 Q-369.4 -18.5 -370.5 -14.9 L-370.5 -14.5 -370.5 -14.15 -370.5 -13.75 -370.65 -13.4 -370.85 -13.0 -371.0 -12.65 -371.0 -12.25 -371.0 -11.9 -371.0 -11.5 -371.0 -11.15 -371.25 -10.75 -371.4 -10.4 -371.5 -10.0 M-361.0 -40.25 L-360.5 -40.1 Q-358.15 -39.9 -356.0 -39.1 L-354.15 -40.75 Q-351.15 -42.2 -348.3 -43.95 L-345.4 -45.65 -345.0 -46.0 -344.6 -46.35 -344.15 -46.75 -343.0 -47.0 -340.5 -47.5 -339.05 -47.35 -337.4 -46.9 -337.05 -46.5 -336.85 -46.15 -336.65 -45.75 -336.5 -45.4 -336.5 -45.0 -336.5 -44.65 -336.5 -43.9 -336.5 -43.15 -336.65 -42.75 -336.85 -42.35 -337.0 -42.0 -337.0 -41.65 -336.9 -41.25 -336.75 -40.9 -336.5 -40.15 -336.5 -39.75 -336.5 -39.4 -336.5 -39.0 -336.5 -38.65 -335.65 -36.45 -333.6 -31.85 -333.5 -31.5 -333.15 -31.1 -332.9 -30.75 -332.75 -30.4 -332.65 -30.0 -332.05 -28.85 -331.65 -28.15 -331.25 -27.75 -330.9 -27.4 -330.5 -27.0 -330.35 -26.65 -330.15 -26.25 -329.1 -25.5 -327.9 -24.75 -319.3 -25.3 -321.0 -27.05 -325.25 -31.75 -325.4 -32.15 -325.5 -32.5 -325.9 -32.9 -326.25 -33.25 -326.4 -33.65 -326.5 -34.0 -326.9 -34.4 -327.25 -34.75 -328.0 -35.5 -328.25 -35.9 Q-328.9 -37.2 -329.5 -38.5 L-330.9 -41.5 -331.0 -41.9 -331.0 -42.25 -331.0 -42.65 -331.15 -43.0 -331.25 -43.4 -331.4 -43.75 -331.5 -44.15 -331.5 -44.5 -331.5 -44.9 -331.75 -45.25 -331.9 -45.65 -332.0 -46.0 -332.0 -46.4 -332.0 -46.75 -332.15 -47.1 -332.35 -47.5 -332.5 -47.9 -332.5 -48.25 -332.5 -48.65 -332.65 -49.0 -333.05 -50.1 -333.55 -52.0 -333.65 -52.4 Q-339.45 -51.1 -344.95 -48.85 L-347.75 -47.65 -351.15 -46.4 Q-353.4 -44.85 -355.8 -43.6 -358.55 -42.15 -361.0 -40.25"/>
    </path>
    <path d="M-370.7 -20.25 L-370.65 -20.6 -370.35 -21.0 -370.1 -21.4 -369.9 -21.75 -369.75 -22.2 -369.75 -22.6 -368.1 -25.25 -364.4 -30.65 Q-362.55 -33.3 -360.35 -35.45 L-359.85 -35.8 -359.45 -36.15 -359.0 -36.45 -358.55 -36.75 -358.35 -37.1 -358.05 -37.45 -357.75 -37.75 -356.9 -38.45 -356.55 -38.7 -356.35 -39.1 -356.0 -39.45 -355.65 -39.75 -355.25 -40.05 -354.75 -40.4 -354.35 -40.65 -353.5 -41.0 -352.95 -41.35 -352.15 -41.9 -351.35 -42.15 -350.3 -42.35 -349.95 -42.4 -349.6 -42.65 -349.15 -42.95 -348.85 -43.2 -348.55 -43.6 -348.05 -43.8 -347.45 -44.15 Q-346.35 -44.45 -345.25 -44.75 -343.95 -45.3 -342.65 -45.95 L-342.4 -46.0 -342.25 -45.95 -342.2 -45.65 -342.2 -45.3 -342.25 -44.95 -342.35 -44.3 -342.3 -44.0 -342.2 -43.6 -342.0 -43.2 -342.0 -42.9 -342.1 -42.6 -342.1 -42.25 -342.15 -41.9 -342.05 -41.6 -341.7 -40.5 -341.65 -39.75 -341.5 -38.65 -341.2 -38.3 -340.95 -37.85 -340.65 -37.55 Q-340.75 -36.35 -340.2 -35.2 L-338.75 -32.2 -337.4 -29.4 -336.35 -28.25 -334.95 -26.5 -333.5 -24.8 -332.5 -24.25 Q-331.65 -23.75 -330.9 -22.85 L-329.65 -21.6 -328.4 -21.1 -328.3 -21.05 Q-327.2 -19.95 -325.75 -19.2 -323.8 -18.35 -322.45 -17.15 L-322.6 -16.45 Q-323.2 -16.15 -323.85 -16.0 L-340.85 -17.75 -341.35 -18.3 Q-341.65 -18.45 -341.8 -19.05 L-342.4 -20.8 -344.05 -22.45 Q-357.75 -22.6 -370.7 -20.25 M-360.6 -46.4 L-360.1 -46.25 Q-357.95 -46.0 -356.0 -45.1 L-354.0 -46.35 Q-350.95 -47.55 -347.9 -48.7 L-344.9 -50.0 -344.5 -50.25 -344.05 -50.55 -343.55 -50.8 -342.45 -50.95 -340.05 -51.2 -338.6 -51.0 -337.05 -50.45 -336.85 -50.1 -336.65 -49.8 -336.5 -49.45 -336.35 -49.15 -336.35 -48.75 -336.4 -48.45 -336.45 -47.8 -336.55 -47.15 -336.75 -46.8 -336.95 -46.45 -337.1 -46.15 -337.25 -45.85 -337.15 -45.5 -337.0 -45.15 -336.85 -44.45 -336.85 -44.15 -336.9 -43.75 -337.0 -43.4 -337.0 -43.05 -336.35 -41.0 -334.75 -36.5 -334.65 -36.2 -334.35 -35.75 -334.1 -35.4 -334.0 -35.0 -333.9 -34.6 -333.35 -33.45 -333.0 -32.7 -332.65 -32.3 -332.35 -31.9 -331.9 -31.5 -331.8 -31.15 -331.6 -30.7 -330.6 -29.8 -329.4 -28.95 -320.15 -28.75 -321.85 -30.6 -326.1 -35.65 -326.25 -36.1 -326.3 -36.45 -326.7 -36.85 -327.05 -37.25 -327.15 -37.6 -327.25 -37.95 -327.65 -38.35 -327.95 -38.75 -328.7 -39.5 -328.9 -39.9 Q-329.65 -41.2 -330.0 -42.4 L-331.15 -45.25 -331.25 -45.6 -331.2 -45.9 -331.2 -46.3 -331.3 -46.6 -331.35 -46.95 -331.5 -47.25 -331.55 -47.65 -331.55 -47.95 -331.55 -48.35 -331.75 -48.6 -331.9 -49.0 -331.85 -49.3 -331.85 -49.65 -331.85 -49.95 -332.0 -50.25 -332.15 -50.65 -332.25 -50.95 -332.25 -51.25 -332.2 -51.65 -332.35 -51.95 -332.6 -52.9 -332.95 -54.5 -333.05 -54.85 Q-338.7 -54.2 -344.15 -52.65 L-346.9 -51.85 -350.25 -51.0 Q-352.65 -49.85 -355.1 -48.95 -358.0 -47.9 -360.6 -46.4" fill="#80a839" fill-rule="evenodd" stroke="none">
      <animate attributeName="fill" dur="2s" repeatCount="indefinite" values="#80a839;#80a83a"/>
      <animate attributeName="fill-opacity" dur="2s" repeatCount="indefinite" values="1.0;1.0"/>
      <animate attributeName="d" dur="2s" repeatCount="indefinite" values="M-370.7 -20.25 L-370.65 -20.6 -370.35 -21.0 -370.1 -21.4 -369.9 -21.75 -369.75 -22.2 -369.75 -22.6 -368.1 -25.25 -364.4 -30.65 Q-362.55 -33.3 -360.35 -35.45 L-359.85 -35.8 -359.45 -36.15 -359.0 -36.45 -358.55 -36.75 -358.35 -37.1 -358.05 -37.45 -357.75 -37.75 -356.9 -38.45 -356.55 -38.7 -356.35 -39.1 -356.0 -39.45 -355.65 -39.75 -355.25 -40.05 -354.75 -40.4 -354.35 -40.65 -353.5 -41.0 -352.95 -41.35 -352.15 -41.9 -351.35 -42.15 -350.3 -42.35 -349.95 -42.4 -349.6 -42.65 -349.15 -42.95 -348.85 -43.2 -348.55 -43.6 -348.05 -43.8 -347.45 -44.15 Q-346.35 -44.45 -345.25 -44.75 -343.95 -45.3 -342.65 -45.95 L-342.4 -46.0 -342.25 -45.95 -342.2 -45.65 -342.2 -45.3 -342.25 -44.95 -342.35 -44.3 -342.3 -44.0 -342.2 -43.6 -342.0 -43.2 -342.0 -42.9 -342.1 -42.6 -342.1 -42.25 -342.15 -41.9 -342.05 -41.6 -341.7 -40.5 -341.65 -39.75 -341.5 -38.65 -341.2 -38.3 -340.95 -37.85 -340.65 -37.55 Q-340.75 -36.35 -340.2 -35.2 L-338.75 -32.2 -337.4 -29.4 -336.35 -28.25 -334.95 -26.5 -333.5 -24.8 -332.5 -24.25 Q-331.65 -23.75 -330.9 -22.85 L-329.65 -21.6 -328.4 -21.1 -328.3 -21.05 Q-327.2 -19.95 -325.75 -19.2 -323.8 -18.35 -322.45 -17.15 L-322.6 -16.45 Q-323.2 -16.15 -323.85 -16.0 L-340.85 -17.75 -341.35 -18.3 Q-341.65 -18.45 -341.8 -19.05 L-342.4 -20.8 -344.05 -22.45 Q-357.75 -22.6 -370.7 -20.25 M-360.6 -46.4 L-360.1 -46.25 Q-357.95 -46.0 -356.0 -45.1 L-354.0 -46.35 Q-350.95 -47.55 -347.9 -48.7 L-344.9 -50.0 -344.5 -50.25 -344.05 -50.55 -343.55 -50.8 -342.45 -50.95 -340.05 -51.2 -338.6 -51.0 -337.05 -50.45 -336.85 -50.1 -336.65 -49.8 -336.5 -49.45 -336.35 -49.15 -336.35 -48.75 -336.4 -48.45 -336.45 -47.8 -336.55 -47.15 -336.75 -46.8 -336.95 -46.45 -337.1 -46.15 -337.25 -45.85 -337.15 -45.5 -337.0 -45.15 -336.85 -44.45 -336.85 -44.15 -336.9 -43.75 -337.0 -43.4 -337.0 -43.05 -336.35 -41.0 -334.75 -36.5 -334.65 -36.2 -334.35 -35.75 -334.1 -35.4 -334.0 -35.0 -333.9 -34.6 -333.35 -33.45 -333.0 -32.7 -332.65 -32.3 -332.35 -31.9 -331.9 -31.5 -331.8 -31.15 -331.6 -30.7 -330.6 -29.8 -329.4 -28.95 -320.15 -28.75 -321.85 -30.6 -326.1 -35.65 -326.25 -36.1 -326.3 -36.45 -326.7 -36.85 -327.05 -37.25 -327.15 -37.6 -327.25 -37.95 -327.65 -38.35 -327.95 -38.75 -328.7 -39.5 -328.9 -39.9 Q-329.65 -41.2 -330.0 -42.4 L-331.15 -45.25 -331.25 -45.6 -331.2 -45.9 -331.2 -46.3 -331.3 -46.6 -331.35 -46.95 -331.5 -47.25 -331.55 -47.65 -331.55 -47.95 -331.55 -48.35 -331.75 -48.6 -331.9 -49.0 -331.85 -49.3 -331.85 -49.65 -331.85 -49.95 -332.0 -50.25 -332.15 -50.65 -332.25 -50.95 -332.25 -51.25 -332.2 -51.65 -332.35 -51.95 -332.6 -52.9 -332.95 -54.5 -333.05 -54.85 Q-338.7 -54.2 -344.15 -52.65 L-346.9 -51.85 -350.25 -51.0 Q-352.65 -49.85 -355.1 -48.95 -358.0 -47.9 -360.6 -46.4;M-365.5 -12.75 L-365.45 -13.1 -365.3 -13.5 -365.15 -13.9 -365.0 -14.25 -365.0 -14.65 -365.0 -15.0 -364.0 -17.65 -361.6 -23.25 Q-360.25 -26.0 -358.5 -28.5 L-358.15 -28.9 -357.75 -29.25 -357.4 -29.65 -357.0 -30.0 -356.85 -30.35 -356.65 -30.75 -356.35 -31.1 -355.65 -31.9 -355.4 -32.25 -355.25 -32.6 -355.0 -33.0 -354.65 -33.4 -354.25 -33.75 -353.9 -34.15 -353.5 -34.5 -352.75 -34.9 -352.25 -35.3 -351.5 -36.0 -350.75 -36.35 -349.75 -36.65 -349.4 -36.75 -349.1 -37.0 -348.65 -37.4 -348.4 -37.75 -348.15 -38.15 -347.65 -38.5 -347.15 -38.9 Q-346.0 -39.15 -345.0 -39.7 -343.7 -40.4 -342.5 -41.25 L-342.25 -41.35 -342.1 -41.3 -342.0 -41.0 -342.0 -40.65 -342.0 -40.25 -342.0 -39.5 -341.9 -39.15 -341.75 -38.75 -341.55 -38.35 -341.5 -38.0 -341.5 -37.65 -341.5 -37.25 -341.5 -36.9 -341.35 -36.55 -340.85 -35.4 -340.7 -34.6 -340.4 -33.5 -340.1 -33.15 -339.8 -32.75 -339.5 -32.4 Q-339.35 -31.15 -338.75 -30.05 L-337.05 -27.15 -335.5 -24.5 -334.4 -23.4 -332.9 -21.9 -331.4 -20.4 -330.5 -20.0 Q-329.7 -19.4 -328.9 -18.85 L-327.65 -17.75 -326.5 -17.45 -326.4 -17.4 Q-325.35 -16.45 -324.0 -15.95 -322.2 -15.35 -321.0 -14.4 L-321.1 -13.75 Q-321.55 -13.45 -322.15 -13.25 L-337.5 -13.25 -338.05 -13.7 Q-338.3 -14.05 -338.5 -14.4 L-339.25 -15.9 -340.95 -17.25 Q-353.7 -16.1 -365.5 -12.75 M-361.0 -40.25 L-360.5 -40.1 Q-358.15 -39.9 -356.0 -39.1 L-354.15 -40.75 Q-351.15 -42.2 -348.3 -43.95 L-345.4 -45.65 -345.0 -46.0 -344.6 -46.35 -344.15 -46.75 -343.0 -47.0 -340.5 -47.5 -339.05 -47.35 -337.4 -46.9 -337.05 -46.5 -336.85 -46.15 -336.65 -45.75 -336.5 -45.4 -336.5 -45.0 -336.5 -44.65 -336.5 -43.9 -336.5 -43.15 -336.65 -42.75 -336.85 -42.35 -337.0 -42.0 -337.0 -41.65 -336.9 -41.25 -336.75 -40.9 -336.5 -40.15 -336.5 -39.75 -336.5 -39.4 -336.5 -39.0 -336.5 -38.65 -335.65 -36.45 -333.6 -31.85 -333.5 -31.5 -333.15 -31.1 -332.9 -30.75 -332.75 -30.4 -332.65 -30.0 -332.05 -28.85 -331.65 -28.15 -331.25 -27.75 -330.9 -27.4 -330.5 -27.0 -330.35 -26.65 -330.15 -26.25 -329.1 -25.5 -327.9 -24.75 -319.3 -25.3 -321.0 -27.05 -325.25 -31.75 -325.4 -32.15 -325.5 -32.5 -325.9 -32.9 -326.25 -33.25 -326.4 -33.65 -326.5 -34.0 -326.9 -34.4 -327.25 -34.75 -328.0 -35.5 -328.25 -35.9 Q-328.9 -37.2 -329.5 -38.5 L-330.9 -41.5 -331.0 -41.9 -331.0 -42.25 -331.0 -42.65 -331.15 -43.0 -331.25 -43.4 -331.4 -43.75 -331.5 -44.15 -331.5 -44.5 -331.5 -44.9 -331.75 -45.25 -331.9 -45.65 -332.0 -46.0 -332.0 -46.4 -332.0 -46.75 -332.15 -47.1 -332.35 -47.5 -332.5 -47.9 -332.5 -48.25 -332.5 -48.65 -332.65 -49.0 -333.05 -50.1 -333.55 -52.0 -333.65 -52.4 Q-339.45 -51.1 -344.95 -48.85 L-347.75 -47.65 -351.15 -46.4 Q-353.4 -44.85 -355.8 -43.6 -358.55 -42.15 -361.0 -40.25"/>
    </path>
    <path d="M-378.2 -15.85 L-378.05 -16.25 -378.0 -16.7 -377.9 -17.05 -377.7 -17.95 -377.5 -18.35 -377.25 -18.75 -376.85 -19.15 -376.8 -19.5 -376.65 -19.9 -376.55 -20.3 -376.45 -20.7 -376.2 -21.1 -375.85 -21.5 Q-375.75 -21.65 -375.65 -21.8 L-375.6 -22.2 -375.5 -22.55 -375.4 -23.0 Q-373.4 -26.65 -371.05 -29.95 L-365.65 -37.3 -365.15 -37.6 -364.75 -37.9 -364.25 -38.2 -364.1 -38.6 -363.9 -38.9 -363.4 -39.25 Q-363.0 -39.55 -362.6 -39.9 -361.95 -40.35 -361.25 -40.8 L-361.05 -41.15 -361.0 -41.3 Q-363.35 -41.65 -365.4 -43.05 -366.45 -43.75 -367.0 -44.7 L-367.05 -45.05 -367.0 -45.35 -366.9 -46.05 -366.65 -47.05 -366.55 -47.3 -366.3 -47.7 Q-366.2 -47.8 -366.05 -47.95 L-365.6 -48.3 Q-365.35 -48.55 -365.1 -48.85 L-364.8 -49.2 Q-361.95 -51.05 -358.75 -52.3 L-351.9 -55.25 Q-344.3 -57.45 -336.35 -58.6 L-333.4 -59.0 -330.2 -58.65 -328.65 -58.3 -328.3 -57.9 -328.15 -57.6 -328.05 -57.3 -327.9 -57.0 -327.9 -56.65 -327.95 -56.35 -328.0 -55.75 -328.0 -55.1 -327.95 -54.8 -327.6 -53.5 -326.85 -51.2 -326.9 -50.9 -326.9 -50.6 -326.9 -50.25 -326.75 -49.9 -326.65 -49.6 -326.35 -48.55 -326.1 -47.9 -326.1 -47.55 -326.15 -47.2 -326.05 -46.9 -325.65 -45.8 Q-325.25 -44.75 -324.85 -43.7 L-324.85 -43.4 -324.55 -42.95 -324.0 -41.95 Q-323.6 -40.9 -322.65 -40.05 L-322.4 -39.7 Q-322.3 -39.55 -322.2 -39.35 L-322.0 -39.0 -321.65 -38.6 -319.0 -35.95 Q-318.1 -35.1 -317.65 -33.85 L-316.95 -33.4 -316.35 -33.0 -315.95 -32.55 -315.65 -32.2 -314.9 -31.75 -313.4 -30.85 -312.9 -30.45 -311.65 -29.9 -311.0 -29.5 -310.6 -29.0 -310.35 -28.65 -310.05 -27.85 -310.0 -27.45 -310.05 -27.1 -310.2 -26.65 -310.35 -26.25 Q-310.45 -26.1 -310.55 -25.9 L-310.6 -25.55 -310.75 -25.15 -311.15 -24.4 Q-315.65 -23.0 -320.2 -22.9 L-317.7 -21.65 -317.35 -21.2 -317.15 -20.75 -316.95 -20.35 -316.8 -19.95 -316.8 -19.45 -316.8 -19.1 -316.65 -18.7 -315.7 -17.75 -314.3 -16.75 -314.05 -16.3 -313.75 -15.8 -313.6 -15.4 -313.45 -14.95 -313.45 -14.6 -313.45 -14.05 -313.3 -13.65 -313.1 -13.2 -312.95 -12.75 -312.95 -12.25 -312.95 -11.9 -312.95 -11.35 -313.1 -11.0 Q-313.15 -10.8 -313.25 -10.55 -313.35 -10.4 -313.5 -10.2 L-313.85 -9.8 -314.45 -9.4 Q-329.7 -9.8 -344.5 -13.25 -345.7 -13.55 -346.5 -14.4 L-346.85 -14.85 -347.1 -15.25 Q-347.15 -15.9 -347.25 -16.55 L-347.4 -17.3 -347.4 -17.35 -348.6 -17.35 Q-362.15 -15.9 -375.6 -13.15 L-376.15 -13.25 -377.25 -13.65 -377.65 -14.1 -377.95 -14.55 -378.15 -15.05 -378.15 -15.45 -378.2 -15.85 M-370.7 -20.25 Q-357.75 -22.6 -344.05 -22.45 L-342.4 -20.8 -341.8 -19.05 Q-341.65 -18.45 -341.35 -18.3 L-340.85 -17.75 -323.85 -16.0 Q-323.2 -16.15 -322.6 -16.45 L-322.45 -17.15 Q-323.8 -18.35 -325.75 -19.2 -327.2 -19.95 -328.3 -21.05 L-328.4 -21.1 -329.65 -21.6 -330.9 -22.85 Q-331.65 -23.75 -332.5 -24.25 L-333.5 -24.8 -334.95 -26.5 -336.35 -28.25 -337.4 -29.4 -338.75 -32.2 -340.2 -35.2 Q-340.75 -36.35 -340.65 -37.55 L-340.95 -37.85 -341.2 -38.3 -341.5 -38.65 -341.65 -39.75 -341.7 -40.5 -342.05 -41.6 -342.15 -41.9 -342.1 -42.25 -342.1 -42.6 -342.0 -42.9 -342.0 -43.2 -342.2 -43.6 -342.3 -44.0 -342.35 -44.3 -342.25 -44.95 -342.2 -45.3 -342.2 -45.65 -342.25 -45.95 -342.4 -46.0 -342.65 -45.95 Q-343.95 -45.3 -345.25 -44.75 -346.35 -44.45 -347.45 -44.15 L-348.05 -43.8 -348.55 -43.6 -348.85 -43.2 -349.15 -42.95 -349.6 -42.65 -349.95 -42.4 -350.3 -42.35 -351.35 -42.15 -352.15 -41.9 -352.95 -41.35 -353.5 -41.0 -354.35 -40.65 -354.75 -40.4 -355.25 -40.05 -355.65 -39.75 -356.0 -39.45 -356.35 -39.1 -356.55 -38.7 -356.9 -38.45 -357.75 -37.75 -358.05 -37.45 -358.35 -37.1 -358.55 -36.75 -359.0 -36.45 -359.45 -36.15 -359.85 -35.8 -360.35 -35.45 Q-362.55 -33.3 -364.4 -30.65 L-368.1 -25.25 -369.75 -22.6 -369.75 -22.2 -369.9 -21.75 -370.1 -21.4 -370.35 -21.0 -370.65 -20.6 -370.7 -20.25 Q-357.75 -22.6 -344.05 -22.45 L-342.4 -20.8 -341.8 -19.05 Q-341.65 -18.45 -341.35 -18.3 L-340.85 -17.75 -323.85 -16.0 Q-323.2 -16.15 -322.6 -16.45 L-322.45 -17.15 Q-323.8 -18.35 -325.75 -19.2 -327.2 -19.95 -328.3 -21.05 L-328.4 -21.1 -329.65 -21.6 -330.9 -22.85 Q-331.65 -23.75 -332.5 -24.25 L-333.5 -24.8 -334.95 -26.5 -336.35 -28.25 -337.4 -29.4 -338.75 -32.2 -340.2 -35.2 Q-340.75 -36.35 -340.65 -37.55 L-340.95 -37.85 -341.2 -38.3 -341.5 -38.65 -341.65 -39.75 -341.7 -40.5 -342.05 -41.6 -342.15 -41.9 -342.1 -42.25 -342.1 -42.6 -342.0 -42.9 -342.0 -43.2 -342.2 -43.6 -342.3 -44.0 -342.35 -44.3 -342.25 -44.95 -342.2 -45.3 -342.2 -45.65 -342.25 -45.95 -342.4 -46.0 -342.65 -45.95 Q-343.95 -45.3 -345.25 -44.75 -346.35 -44.45 -347.45 -44.15 L-348.05 -43.8 -348.55 -43.6 -348.85 -43.2 -349.15 -42.95 -349.6 -42.65 -349.95 -42.4 -350.3 -42.35 -351.35 -42.15 -352.15 -41.9 -352.95 -41.35 -353.5 -41.0 -354.35 -40.65 -354.75 -40.4 -355.25 -40.05 -355.65 -39.75 -356.0 -39.45 -356.35 -39.1 -356.55 -38.7 -356.9 -38.45 -357.75 -37.75 -358.05 -37.45 -358.35 -37.1 -358.55 -36.75 -359.0 -36.45 -359.45 -36.15 -359.85 -35.8 -360.35 -35.45 Q-362.55 -33.3 -364.4 -30.65 L-368.1 -25.25 -369.75 -22.6 -369.75 -22.2 -369.9 -21.75 -370.1 -21.4 -370.35 -21.0 -370.65 -20.6 -370.7 -20.25 M-360.6 -46.4 Q-358.0 -47.9 -355.1 -48.95 -352.65 -49.85 -350.25 -51.0 L-346.9 -51.85 -344.15 -52.65 Q-338.7 -54.2 -333.05 -54.85 L-332.95 -54.5 -332.6 -52.9 -332.35 -51.95 -332.2 -51.65 -332.25 -51.25 -332.25 -50.95 -332.15 -50.65 -332.0 -50.25 -331.85 -49.95 -331.85 -49.65 -331.85 -49.3 -331.9 -49.0 -331.75 -48.6 -331.55 -48.35 -331.55 -47.95 -331.55 -47.65 -331.5 -47.25 -331.35 -46.95 -331.3 -46.6 -331.2 -46.3 -331.2 -45.9 -331.25 -45.6 -331.15 -45.25 -330.0 -42.4 Q-329.65 -41.2 -328.9 -39.9 L-328.7 -39.5 -327.95 -38.75 -327.65 -38.35 -327.25 -37.95 -327.15 -37.6 -327.05 -37.25 -326.7 -36.85 -326.3 -36.45 -326.25 -36.1 -326.1 -35.65 -321.85 -30.6 -320.15 -28.75 -329.4 -28.95 -330.6 -29.8 -331.6 -30.7 -331.8 -31.15 -331.9 -31.5 -332.35 -31.9 -332.65 -32.3 -333.0 -32.7 -333.35 -33.45 -333.9 -34.6 -334.0 -35.0 -334.1 -35.4 -334.35 -35.75 -334.65 -36.2 -334.75 -36.5 -336.35 -41.0 -337.0 -43.05 -337.0 -43.4 -336.9 -43.75 -336.85 -44.15 -336.85 -44.45 -337.0 -45.15 -337.15 -45.5 -337.25 -45.85 -337.1 -46.15 -336.95 -46.45 -336.75 -46.8 -336.55 -47.15 -336.45 -47.8 -336.4 -48.45 -336.35 -48.75 -336.35 -49.15 -336.5 -49.45 -336.65 -49.8 -336.85 -50.1 -337.05 -50.45 -338.6 -51.0 -340.05 -51.2 -342.45 -50.95 -343.55 -50.8 -344.05 -50.55 -344.5 -50.25 -344.9 -50.0 -347.9 -48.7 Q-350.95 -47.55 -354.0 -46.35 L-356.0 -45.1 Q-357.95 -46.0 -360.1 -46.25 L-360.6 -46.4 Q-358.0 -47.9 -355.1 -48.95 -352.65 -49.85 -350.25 -51.0 L-346.9 -51.85 -344.15 -52.65 Q-338.7 -54.2 -333.05 -54.85 L-332.95 -54.5 -332.6 -52.9 -332.35 -51.95 -332.2 -51.65 -332.25 -51.25 -332.25 -50.95 -332.15 -50.65 -332.0 -50.25 -331.85 -49.95 -331.85 -49.65 -331.85 -49.3 -331.9 -49.0 -331.75 -48.6 -331.55 -48.35 -331.55 -47.95 -331.55 -47.65 -331.5 -47.25 -331.35 -46.95 -331.3 -46.6 -331.2 -46.3 -331.2 -45.9 -331.25 -45.6 -331.15 -45.25 -330.0 -42.4 Q-329.65 -41.2 -328.9 -39.9 L-328.7 -39.5 -327.95 -38.75 -327.65 -38.35 -327.25 -37.95 -327.15 -37.6 -327.05 -37.25 -326.7 -36.85 -326.3 -36.45 -326.25 -36.1 -326.1 -35.65 -321.85 -30.6 -320.15 -28.75 -329.4 -28.95 -330.6 -29.8 -331.6 -30.7 -331.8 -31.15 -331.9 -31.5 -332.35 -31.9 -332.65 -32.3 -333.0 -32.7 -333.35 -33.45 -333.9 -34.6 -334.0 -35.0 -334.1 -35.4 -334.35 -35.75 -334.65 -36.2 -334.75 -36.5 -336.35 -41.0 -337.0 -43.05 -337.0 -43.4 -336.9 -43.75 -336.85 -44.15 -336.85 -44.45 -337.0 -45.15 -337.15 -45.5 -337.25 -45.85 -337.1 -46.15 -336.95 -46.45 -336.75 -46.8 -336.55 -47.15 -336.45 -47.8 -336.4 -48.45 -336.35 -48.75 -336.35 -49.15 -336.5 -49.45 -336.65 -49.8 -336.85 -50.1 -337.05 -50.45 -338.6 -51.0 -340.05 -51.2 -342.45 -50.95 -343.55 -50.8 -344.05 -50.55 -344.5 -50.25 -344.9 -50.0 -347.9 -48.7 Q-350.95 -47.55 -354.0 -46.35 L-356.0 -45.1 Q-357.95 -46.0 -360.1 -46.25 L-360.6 -46.4 Z" fill="none" stroke="#000000" stroke-linecap="round" stroke-linejoin="round" stroke-opacity="0.0" stroke-width="0.0">
      <animate attributeName="stroke" dur="2s" repeatCount="indefinite" values="#000000;#000001"/>
      <animate attributeName="stroke-width" dur="2s" repeatCount="indefinite" values="0.0;0.0"/>
      <animate attributeName="fill-opacity" dur="2s" repeatCount="indefinite" values="0.0;0.0"/>
      <animate attributeName="d" dur="2s" repeatCount="indefinite" values="M-378.2 -15.85 L-378.05 -16.25 -378.0 -16.7 -377.9 -17.05 -377.7 -17.95 -377.5 -18.35 -377.25 -18.75 -376.85 -19.15 -376.8 -19.5 -376.65 -19.9 -376.55 -20.3 -376.45 -20.7 -376.2 -21.1 -375.85 -21.5 Q-375.75 -21.65 -375.65 -21.8 L-375.6 -22.2 -375.5 -22.55 -375.4 -23.0 Q-373.4 -26.65 -371.05 -29.95 L-365.65 -37.3 -365.15 -37.6 -364.75 -37.9 -364.25 -38.2 -364.1 -38.6 -363.9 -38.9 -363.4 -39.25 Q-363.0 -39.55 -362.6 -39.9 -361.95 -40.35 -361.25 -40.8 L-361.05 -41.15 -361.0 -41.3 Q-363.35 -41.65 -365.4 -43.05 -366.45 -43.75 -367.0 -44.7 L-367.05 -45.05 -367.0 -45.35 -366.9 -46.05 -366.65 -47.05 -366.55 -47.3 -366.3 -47.7 Q-366.2 -47.8 -366.05 -47.95 L-365.6 -48.3 Q-365.35 -48.55 -365.1 -48.85 L-364.8 -49.2 Q-361.95 -51.05 -358.75 -52.3 L-351.9 -55.25 Q-344.3 -57.45 -336.35 -58.6 L-333.4 -59.0 -330.2 -58.65 -328.65 -58.3 -328.3 -57.9 -328.15 -57.6 -328.05 -57.3 -327.9 -57.0 -327.9 -56.65 -327.95 -56.35 -328.0 -55.75 -328.0 -55.1 -327.95 -54.8 -327.6 -53.5 -326.85 -51.2 -326.9 -50.9 -326.9 -50.6 -326.9 -50.25 -326.75 -49.9 -326.65 -49.6 -326.35 -48.55 -326.1 -47.9 -326.1 -47.55 -326.15 -47.2 -326.05 -46.9 -325.65 -45.8 Q-325.25 -44.75 -324.85 -43.7 L-324.85 -43.4 -324.55 -42.95 -324.0 -41.95 Q-323.6 -40.9 -322.65 -40.05 L-322.4 -39.7 Q-322.3 -39.55 -322.2 -39.35 L-322.0 -39.0 -321.65 -38.6 -319.0 -35.95 Q-318.1 -35.1 -317.65 -33.85 L-316.95 -33.4 -316.35 -33.0 -315.95 -32.55 -315.65 -32.2 -314.9 -31.75 -313.4 -30.85 -312.9 -30.45 -311.65 -29.9 -311.0 -29.5 -310.6 -29.0 -310.35 -28.65 -310.05 -27.85 -310.0 -27.45 -310.05 -27.1 -310.2 -26.65 -310.35 -26.25 Q-310.45 -26.1 -310.55 -25.9 L-310.6 -25.55 -310.75 -25.15 -311.15 -24.4 Q-315.65 -23.0 -320.2 -22.9 L-317.7 -21.65 -317.35 -21.2 -317.15 -20.75 -316.95 -20.35 -316.8 -19.95 -316.8 -19.45 -316.8 -19.1 -316.65 -18.7 -315.7 -17.75 -314.3 -16.75 -314.05 -16.3 -313.75 -15.8 -313.6 -15.4 -313.45 -14.95 -313.45 -14.6 -313.45 -14.05 -313.3 -13.65 -313.1 -13.2 -312.95 -12.75 -312.95 -12.25 -312.95 -11.9 -312.95 -11.35 -313.1 -11.0 Q-313.15 -10.8 -313.25 -10.55 -313.35 -10.4 -313.5 -10.2 L-313.85 -9.8 -314.45 -9.4 Q-329.7 -9.8 -344.5 -13.25 -345.7 -13.55 -346.5 -14.4 L-346.85 -14.85 -347.1 -15.25 Q-347.15 -15.9 -347.25 -16.55 L-347.4 -17.3 -347.4 -17.35 -348.6 -17.35 Q-362.15 -15.9 -375.6 -13.15 L-376.15 -13.25 -377.25 -13.65 -377.65 -14.1 -377.95 -14.55 -378.15 -15.05 -378.15 -15.45 -378.2 -15.85 M-370.7 -20.25 Q-357.75 -22.6 -344.05 -22.45 L-342.4 -20.8 -341.8 -19.05 Q-341.65 -18.45 -341.35 -18.3 L-340.85 -17.75 -323.85 -16.0 Q-323.2 -16.15 -322.6 -16.45 L-322.45 -17.15 Q-323.8 -18.35 -325.75 -19.2 -327.2 -19.95 -328.3 -21.05 L-328.4 -21.1 -329.65 -21.6 -330.9 -22.85 Q-331.65 -23.75 -332.5 -24.25 L-333.5 -24.8 -334.95 -26.5 -336.35 -28.25 -337.4 -29.4 -338.75 -32.2 -340.2 -35.2 Q-340.75 -36.35 -340.65 -37.55 L-340.95 -37.85 -341.2 -38.3 -341.5 -38.65 -341.65 -39.75 -341.7 -40.5 -342.05 -41.6 -342.15 -41.9 -342.1 -42.25 -342.1 -42.6 -342.0 -42.9 -342.0 -43.2 -342.2 -43.6 -342.3 -44.0 -342.35 -44.3 -342.25 -44.95 -342.2 -45.3 -342.2 -45.65 -342.25 -45.95 -342.4 -46.0 -342.65 -45.95 Q-343.95 -45.3 -345.25 -44.75 -346.35 -44.45 -347.45 -44.15 L-348.05 -43.8 -348.55 -43.6 -348.85 -43.2 -349.15 -42.95 -349.6 -42.65 -349.95 -42.4 -350.3 -42.35 -351.35 -42.15 -352.15 -41.9 -352.95 -41.35 -353.5 -41.0 -354.35 -40.65 -354.75 -40.4 -355.25 -40.05 -355.65 -39.75 -356.0 -39.45 -356.35 -39.1 -356.55 -38.7 -356.9 -38.45 -357.75 -37.75 -358.05 -37.45 -358.35 -37.1 -358.55 -36.75 -359.0 -36.45 -359.45 -36.15 -359.85 -35.8 -360.35 -35.45 Q-362.55 -33.3 -364.4 -30.65 L-368.1 -25.25 -369.75 -22.6 -369.75 -22.2 -369.9 -21.75 -370.1 -21.4 -370.35 -21.0 -370.65 -20.6 -370.7 -20.25 Q-357.75 -22.6 -344.05 -22.45 L-342.4 -20.8 -341.8 -19.05 Q-341.65 -18.45 -341.35 -18.3 L-340.85 -17.75 -323.85 -16.0 Q-323.2 -16.15 -322.6 -16.45 L-322.45 -17.15 Q-323.8 -18.35 -325.75 -19.2 -327.2 -19.95 -328.3 -21.05 L-328.4 -21.1 -329.65 -21.6 -330.9 -22.85 Q-331.65 -23.75 -332.5 -24.25 L-333.5 -24.8 -334.95 -26.5 -336.35 -28.25 -337.4 -29.4 -338.75 -32.2 -340.2 -35.2 Q-340.75 -36.35 -340.65 -37.55 L-340.95 -37.85 -341.2 -38.3 -341.5 -38.65 -341.65 -39.75 -341.7 -40.5 -342.05 -41.6 -342.15 -41.9 -342.1 -42.25 -342.1 -42.6 -342.0 -42.9 -342.0 -43.2 -342.2 -43.6 -342.3 -44.0 -342.35 -44.3 -342.25 -44.95 -342.2 -45.3 -342.2 -45.65 -342.25 -45.95 -342.4 -46.0 -342.65 -45.95 Q-343.95 -45.3 -345.25 -44.75 -346.35 -44.45 -347.45 -44.15 L-348.05 -43.8 -348.55 -43.6 -348.85 -43.2 -349.15 -42.95 -349.6 -42.65 -349.95 -42.4 -350.3 -42.35 -351.35 -42.15 -352.15 -41.9 -352.95 -41.35 -353.5 -41.0 -354.35 -40.65 -354.75 -40.4 -355.25 -40.05 -355.65 -39.75 -356.0 -39.45 -356.35 -39.1 -356.55 -38.7 -356.9 -38.45 -357.75 -37.75 -358.05 -37.45 -358.35 -37.1 -358.55 -36.75 -359.0 -36.45 -359.45 -36.15 -359.85 -35.8 -360.35 -35.45 Q-362.55 -33.3 -364.4 -30.65 L-368.1 -25.25 -369.75 -22.6 -369.75 -22.2 -369.9 -21.75 -370.1 -21.4 -370.35 -21.0 -370.65 -20.6 -370.7 -20.25 M-360.6 -46.4 Q-358.0 -47.9 -355.1 -48.95 -352.65 -49.85 -350.25 -51.0 L-346.9 -51.85 -344.15 -52.65 Q-338.7 -54.2 -333.05 -54.85 L-332.95 -54.5 -332.6 -52.9 -332.35 -51.95 -332.2 -51.65 -332.25 -51.25 -332.25 -50.95 -332.15 -50.65 -332.0 -50.25 -331.85 -49.95 -331.85 -49.65 -331.85 -49.3 -331.9 -49.0 -331.75 -48.6 -331.55 -48.35 -331.55 -47.95 -331.55 -47.65 -331.5 -47.25 -331.35 -46.95 -331.3 -46.6 -331.2 -46.3 -331.2 -45.9 -331.25 -45.6 -331.15 -45.25 -330.0 -42.4 Q-329.65 -41.2 -328.9 -39.9 L-328.7 -39.5 -327.95 -38.75 -327.65 -38.35 -327.25 -37.95 -327.15 -37.6 -327.05 -37.25 -326.7 -36.85 -326.3 -36.45 -326.25 -36.1 -326.1 -35.65 -321.85 -30.6 -320.15 -28.75 -329.4 -28.95 -330.6 -29.8 -331.6 -30.7 -331.8 -31.15 -331.9 -31.5 -332.35 -31.9 -332.65 -32.3 -333.0 -32.7 -333.35 -33.45 -333.9 -34.6 -334.0 -35.0 -334.1 -35.4 -334.35 -35.75 -334.65 -36.2 -334.75 -36.5 -336.35 -41.0 -337.0 -43.05 -337.0 -43.4 -336.9 -43.75 -336.85 -44.15 -336.85 -44.45 -337.0 -45.15 -337.15 -45.5 -337.25 -45.85 -337.1 -46.15 -336.95 -46.45 -336.75 -46.8 -336.55 -47.15 -336.45 -47.8 -336.4 -48.45 -336.35 -48.75 -336.35 -49.15 -336.5 -49.45 -336.65 -49.8 -336.85 -50.1 -337.05 -50.45 -338.6 -51.0 -340.05 -51.2 -342.45 -50.95 -343.55 -50.8 -344.05 -50.55 -344.5 -50.25 -344.9 -50.0 -347.9 -48.7 Q-350.95 -47.55 -354.0 -46.35 L-356.0 -45.1 Q-357.95 -46.0 -360.1 -46.25 L-360.6 -46.4 Q-358.0 -47.9 -355.1 -48.95 -352.65 -49.85 -350.25 -51.0 L-346.9 -51.85 -344.15 -52.65 Q-338.7 -54.2 -333.05 -54.85 L-332.95 -54.5 -332.6 -52.9 -332.35 -51.95 -332.2 -51.65 -332.25 -51.25 -332.25 -50.95 -332.15 -50.65 -332.0 -50.25 -331.85 -49.95 -331.85 -49.65 -331.85 -49.3 -331.9 -49.0 -331.75 -48.6 -331.55 -48.35 -331.55 -47.95 -331.55 -47.65 -331.5 -47.25 -331.35 -46.95 -331.3 -46.6 -331.2 -46.3 -331.2 -45.9 -331.25 -45.6 -331.15 -45.25 -330.0 -42.4 Q-329.65 -41.2 -328.9 -39.9 L-328.7 -39.5 -327.95 -38.75 -327.65 -38.35 -327.25 -37.95 -327.15 -37.6 -327.05 -37.25 -326.7 -36.85 -326.3 -36.45 -326.25 -36.1 -326.1 -35.65 -321.85 -30.6 -320.15 -28.75 -329.4 -28.95 -330.6 -29.8 -331.6 -30.7 -331.8 -31.15 -331.9 -31.5 -332.35 -31.9 -332.65 -32.3 -333.0 -32.7 -333.35 -33.45 -333.9 -34.6 -334.0 -35.0 -334.1 -35.4 -334.35 -35.75 -334.65 -36.2 -334.75 -36.5 -336.35 -41.0 -337.0 -43.05 -337.0 -43.4 -336.9 -43.75 -336.85 -44.15 -336.85 -44.45 -337.0 -45.15 -337.15 -45.5 -337.25 -45.85 -337.1 -46.15 -336.95 -46.45 -336.75 -46.8 -336.55 -47.15 -336.45 -47.8 -336.4 -48.45 -336.35 -48.75 -336.35 -49.15 -336.5 -49.45 -336.65 -49.8 -336.85 -50.1 -337.05 -50.45 -338.6 -51.0 -340.05 -51.2 -342.45 -50.95 -343.55 -50.8 -344.05 -50.55 -344.5 -50.25 -344.9 -50.0 -347.9 -48.7 Q-350.95 -47.55 -354.0 -46.35 L-356.0 -45.1 Q-357.95 -46.0 -360.1 -46.25 L-360.6 -46.4 Z;M-371.5 -10.0 L-371.4 -10.4 -371.25 -10.75 -371.0 -11.15 -371.0 -11.5 -371.0 -11.9 -371.0 -12.25 -371.0 -12.65 -370.85 -13.0 -370.65 -13.4 -370.5 -13.75 -370.5 -14.15 -370.5 -14.5 -370.5 -14.9 Q-369.4 -18.5 -367.9 -21.95 L-364.15 -29.9 -363.75 -30.25 -363.4 -30.65 Q-363.2 -30.8 -363.0 -31.0 L-362.9 -31.4 -362.75 -31.75 -362.4 -32.15 -361.65 -32.9 -360.5 -34.0 -360.4 -34.4 -360.3 -34.55 Q-362.75 -34.75 -365.2 -36.1 -366.4 -36.75 -367.25 -37.75 L-367.4 -38.15 -367.45 -38.5 Q-367.45 -38.85 -367.5 -39.25 -367.5 -39.8 -367.5 -40.4 L-367.4 -40.75 -367.25 -41.15 -367.0 -41.5 -366.65 -41.9 -366.25 -42.6 -366.0 -43.0 Q-363.4 -45.4 -360.35 -47.2 L-353.65 -51.25 Q-345.8 -54.55 -337.6 -56.7 L-334.5 -57.5 Q-332.8 -57.4 -331.05 -57.3 L-329.4 -56.9 Q-329.25 -56.7 -329.05 -56.45 L-328.85 -56.15 -328.65 -55.75 -328.5 -55.4 -328.5 -55.0 -328.5 -54.65 -328.5 -53.9 -328.5 -53.15 -328.4 -52.75 -327.9 -51.25 -327.0 -48.65 -327.0 -48.25 -327.0 -47.9 -327.0 -47.5 -326.85 -47.15 -326.7 -46.75 -326.35 -45.65 -326.0 -44.9 -326.0 -44.5 -326.0 -44.15 -325.85 -43.75 -325.4 -42.6 -324.55 -40.35 -324.5 -40.0 -324.2 -39.6 -323.55 -38.5 Q-323.1 -37.4 -322.15 -36.65 L-321.9 -36.25 -321.75 -35.9 -321.5 -35.5 Q-321.35 -35.35 -321.15 -35.15 L-318.5 -32.65 Q-317.55 -31.8 -317.15 -30.65 L-316.5 -30.25 -315.9 -29.9 -315.55 -29.5 Q-315.4 -29.35 -315.25 -29.15 L-314.5 -28.75 -313.15 -28.0 -312.65 -27.65 -311.55 -27.2 -310.9 -26.9 -310.55 -26.5 -310.35 -26.15 -310.05 -25.35 -310.0 -25.0 -310.05 -24.65 -310.15 -24.25 -310.35 -23.85 -310.5 -23.5 -310.55 -23.15 -310.65 -22.75 -311.0 -22.0 Q-315.0 -20.25 -319.15 -19.8 L-316.9 -18.9 -316.55 -18.5 -316.35 -18.15 Q-316.25 -17.95 -316.15 -17.75 L-316.0 -17.4 -316.0 -17.0 -316.0 -16.65 -315.85 -16.3 -315.0 -15.55 -313.75 -14.75 -313.5 -14.4 -313.3 -14.0 -313.15 -13.65 -313.0 -13.25 -313.0 -12.9 -313.0 -12.5 -312.85 -12.15 -312.65 -11.75 -312.5 -11.4 -312.5 -11.0 -312.5 -10.65 -312.5 -10.25 -312.65 -9.9 -312.8 -9.5 -313.0 -9.15 -313.3 -8.8 -313.75 -8.4 Q-326.95 -7.35 -340.35 -8.95 -341.4 -9.1 -342.25 -9.75 L-342.6 -10.15 -342.85 -10.5 Q-343.0 -11.05 -343.15 -11.6 -343.25 -11.9 -343.4 -12.25 L-343.4 -12.3 -344.5 -12.25 Q-356.6 -9.6 -368.5 -6.0 L-369.0 -6.05 -370.15 -6.25 -370.6 -6.65 Q-370.8 -6.8 -371.0 -7.0 L-371.25 -7.4 -371.4 -7.75 -371.5 -8.15 -371.5 -8.5 -371.5 -8.9 -371.5 -9.25 -371.5 -10.0 M-365.5 -12.75 Q-353.7 -16.1 -340.95 -17.25 L-339.25 -15.9 -338.5 -14.4 Q-338.3 -14.05 -338.05 -13.7 L-337.5 -13.25 -322.15 -13.25 Q-321.55 -13.45 -321.1 -13.75 L-321.0 -14.4 Q-322.2 -15.35 -324.0 -15.95 -325.35 -16.45 -326.4 -17.4 L-326.5 -17.45 -327.65 -17.75 -328.9 -18.85 Q-329.7 -19.4 -330.5 -20.0 L-331.4 -20.4 -332.9 -21.9 -334.4 -23.4 -335.5 -24.5 -337.05 -27.15 -338.75 -30.05 Q-339.35 -31.15 -339.5 -32.4 L-339.8 -32.75 -340.1 -33.15 -340.4 -33.5 -340.7 -34.6 -340.85 -35.4 -341.35 -36.55 -341.5 -36.9 -341.5 -37.25 -341.5 -37.65 -341.5 -38.0 -341.55 -38.35 -341.75 -38.75 -341.9 -39.15 -342.0 -39.5 -342.0 -40.25 -342.0 -40.65 -342.0 -41.0 -342.1 -41.3 -342.25 -41.35 -342.5 -41.25 Q-343.7 -40.4 -345.0 -39.7 -346.0 -39.15 -347.15 -38.9 L-347.65 -38.5 -348.15 -38.15 -348.4 -37.75 -348.65 -37.4 -349.1 -37.0 -349.4 -36.75 -349.75 -36.65 -350.75 -36.35 -351.5 -36.0 -352.25 -35.3 -352.75 -34.9 -353.5 -34.5 -353.9 -34.15 -354.25 -33.75 -354.65 -33.4 -355.0 -33.0 -355.25 -32.6 -355.4 -32.25 -355.65 -31.9 -356.35 -31.1 -356.65 -30.75 -356.85 -30.35 -357.0 -30.0 -357.4 -29.65 -357.75 -29.25 -358.15 -28.9 -358.5 -28.5 Q-360.25 -26.0 -361.6 -23.25 L-364.0 -17.65 -365.0 -15.0 -365.0 -14.65 -365.0 -14.25 -365.15 -13.9 -365.3 -13.5 -365.45 -13.1 -365.5 -12.75 Q-353.7 -16.1 -340.95 -17.25 L-339.25 -15.9 -338.5 -14.4 Q-338.3 -14.05 -338.05 -13.7 L-337.5 -13.25 -322.15 -13.25 Q-321.55 -13.45 -321.1 -13.75 L-321.0 -14.4 Q-322.2 -15.35 -324.0 -15.95 -325.35 -16.45 -326.4 -17.4 L-326.5 -17.45 -327.65 -17.75 -328.9 -18.85 Q-329.7 -19.4 -330.5 -20.0 L-331.4 -20.4 -332.9 -21.9 -334.4 -23.4 -335.5 -24.5 -337.05 -27.15 -338.75 -30.05 Q-339.35 -31.15 -339.5 -32.4 L-339.8 -32.75 -340.1 -33.15 -340.4 -33.5 -340.7 -34.6 -340.85 -35.4 -341.35 -36.55 -341.5 -36.9 -341.5 -37.25 -341.5 -37.65 -341.5 -38.0 -341.55 -38.35 -341.75 -38.75 -341.9 -39.15 -342.0 -39.5 -342.0 -40.25 -342.0 -40.65 -342.0 -41.0 -342.1 -41.3 -342.25 -41.35 -342.5 -41.25 Q-343.7 -40.4 -345.0 -39.7 -346.0 -39.15 -347.15 -38.9 L-347.65 -38.5 -348.15 -38.15 -348.4 -37.75 -348.65 -37.4 -349.1 -37.0 -349.4 -36.75 -349.75 -36.65 -350.75 -36.35 -351.5 -36.0 -352.25 -35.3 -352.75 -34.9 -353.5 -34.5 -353.9 -34.15 -354.25 -33.75 -354.65 -33.4 -355.0 -33.0 -355.25 -32.6 -355.4 -32.25 -355.65 -31.9 -356.35 -31.1 -356.65 -30.75 -356.85 -30.35 -357.0 -30.0 -357.4 -29.65 -357.75 -29.25 -358.15 -28.9 -358.5 -28.5 Q-360.25 -26.0 -361.6 -23.25 L-364.0 -17.65 -365.0 -15.0 -365.0 -14.65 -365.0 -14.25 -365.15 -13.9 -365.3 -13.5 -365.45 -13.1 -365.5 -12.75 M-361.0 -40.25 Q-358.55 -42.15 -355.8 -43.6 -353.4 -44.85 -351.15 -46.4 L-347.75 -47.65 -344.95 -48.85 Q-339.45 -51.1 -333.65 -52.4 L-333.55 -52.0 -333.05 -50.1 -332.65 -49.0 -332.5 -48.65 -332.5 -48.25 -332.5 -47.9 -332.35 -47.5 -332.15 -47.1 -332.0 -46.75 -332.0 -46.4 -332.0 -46.0 -331.9 -45.65 -331.75 -45.25 -331.5 -44.9 -331.5 -44.5 -331.5 -44.15 -331.4 -43.75 -331.25 -43.4 -331.15 -43.0 -331.0 -42.65 -331.0 -42.25 -331.0 -41.9 -330.9 -41.5 -329.5 -38.5 Q-328.9 -37.2 -328.25 -35.9 L-328.0 -35.5 -327.25 -34.75 -326.9 -34.4 -326.5 -34.0 -326.4 -33.65 -326.25 -33.25 -325.9 -32.9 -325.5 -32.5 -325.4 -32.15 -325.25 -31.75 -321.0 -27.05 -319.3 -25.3 -327.9 -24.75 -329.1 -25.5 -330.15 -26.25 -330.35 -26.65 -330.5 -27.0 -330.9 -27.4 -331.25 -27.75 -331.65 -28.15 -332.05 -28.85 -332.65 -30.0 -332.75 -30.4 -332.9 -30.75 -333.15 -31.1 -333.5 -31.5 -333.6 -31.85 -335.65 -36.45 -336.5 -38.65 -336.5 -39.0 -336.5 -39.4 -336.5 -39.75 -336.5 -40.15 -336.75 -40.9 -336.9 -41.25 -337.0 -41.65 -337.0 -42.0 -336.85 -42.35 -336.65 -42.75 -336.5 -43.15 -336.5 -43.9 -336.5 -44.65 -336.5 -45.0 -336.5 -45.4 -336.65 -45.75 -336.85 -46.15 -337.05 -46.5 -337.4 -46.9 -339.05 -47.35 -340.5 -47.5 -343.0 -47.0 -344.15 -46.75 -344.6 -46.35 -345.0 -46.0 -345.4 -45.65 -348.3 -43.95 Q-351.15 -42.2 -354.15 -40.75 L-356.0 -39.1 Q-358.15 -39.9 -360.5 -40.1 L-361.0 -40.25 Q-358.55 -42.15 -355.8 -43.6 -353.4 -44.85 -351.15 -46.4 L-347.75 -47.65 -344.95 -48.85 Q-339.45 -51.1 -333.65 -52.4 L-333.55 -52.0 -333.05 -50.1 -332.65 -49.0 -332.5 -48.65 -332.5 -48.25 -332.5 -47.9 -332.35 -47.5 -332.15 -47.1 -332.0 -46.75 -332.0 -46.4 -332.0 -46.0 -331.9 -45.65 -331.75 -45.25 -331.5 -44.9 -331.5 -44.5 -331.5 -44.15 -331.4 -43.75 -331.25 -43.4 -331.15 -43.0 -331.0 -42.65 -331.0 -42.25 -331.0 -41.9 -330.9 -41.5 -329.5 -38.5 Q-328.9 -37.2 -328.25 -35.9 L-328.0 -35.5 -327.25 -34.75 -326.9 -34.4 -326.5 -34.0 -326.4 -33.65 -326.25 -33.25 -325.9 -32.9 -325.5 -32.5 -325.4 -32.15 -325.25 -31.75 -321.0 -27.05 -319.3 -25.3 -327.9 -24.75 -329.1 -25.5 -330.15 -26.25 -330.35 -26.65 -330.5 -27.0 -330.9 -27.4 -331.25 -27.75 -331.65 -28.15 -332.05 -28.85 -332.65 -30.0 -332.75 -30.4 -332.9 -30.75 -333.15 -31.1 -333.5 -31.5 -333.6 -31.85 -335.65 -36.45 -336.5 -38.65 -336.5 -39.0 -336.5 -39.4 -336.5 -39.75 -336.5 -40.15 -336.75 -40.9 -336.9 -41.25 -337.0 -41.65 -337.0 -42.0 -336.85 -42.35 -336.65 -42.75 -336.5 -43.15 -336.5 -43.9 -336.5 -44.65 -336.5 -45.0 -336.5 -45.4 -336.65 -45.75 -336.85 -46.15 -337.05 -46.5 -337.4 -46.9 -339.05 -47.35 -340.5 -47.5 -343.0 -47.0 -344.15 -46.75 -344.6 -46.35 -345.0 -46.0 -345.4 -45.65 -348.3 -43.95 Q-351.15 -42.2 -354.15 -40.75 L-356.0 -39.1 Q-358.15 -39.9 -360.5 -40.1 L-361.0 -40.25 Z"/>
    </path>
  </g>
</svg>
