<?xml version="1.0" encoding="UTF-8" standalone="no"?>
<svg xmlns:ffdec="https://www.free-decompiler.com/flash" xmlns:xlink="http://www.w3.org/1999/xlink" ffdec:objectType="morphshape" height="10.55px" width="19.1px" xmlns="http://www.w3.org/2000/svg">
  <g transform="matrix(1.0, 0.0, 0.0, 1.0, 7.65, 5.4)">
    <path d="M-7.65 -2.45 L-7.65 -2.45 -7.4 -2.05 -7.1 -2.0 -6.65 -1.9 -4.85 -1.9 Q-3.7 -1.9 -2.6 -1.9 L-2.8 -1.85 -3.1 -1.75 -3.6 -1.55 -5.5 -1.05 -6.4 -0.8 -6.75 -0.65 -6.65 -0.35 -6.25 -0.25 -4.75 -0.2 -3.55 -0.2 Q-2.85 -0.25 -2.2 -0.25 -2.2 0.25 -1.2 0.55 -1.6 0.65 -2.0 0.75 -3.1 0.95 -4.2 1.15 -5.4 1.45 -5.4 1.75 L-5.2 2.05 -4.0 2.35 -1.5 2.45 -1.65 2.6 Q-4.05 3.3 -4.05 3.55 L-3.55 3.95 -3.35 4.05 -1.9 4.35 -1.25 4.4 Q-0.7 4.4 -0.15 4.4 L1.55 4.2 4.4 3.4 2.85 3.0 Q2.05 2.95 1.75 2.6 L2.6 2.5 3.4 2.3 3.6 2.3 4.15 2.15 4.85 1.65 Q4.85 1.15 0.6 1.2 L1.0 1.1 1.75 0.8 3.95 0.05 Q3.3 -0.1 2.65 -0.2 L1.85 -0.3 1.05 -0.35 1.25 -0.4 1.25 -0.4 Q2.15 -0.7 2.15 -0.95 L-0.2 -1.3 -0.75 -1.3 -0.6 -1.45 Q0.3 -1.65 0.3 -2.15 L0.05 -2.6 0.05 -2.6 Q-0.35 -2.7 -0.7 -2.75 L-3.3 -2.8 -2.6 -2.95 Q-2.05 -3.0 -1.5 -3.35 -0.85 -3.7 -0.85 -3.95 L-1.05 -4.25 -1.2 -4.35 -3.45 -4.4 -4.85 -4.2 Q-5.85 -3.9 -5.85 -3.6 L-6.75 -3.0 -7.65 -2.45" fill="#ffffff" fill-rule="evenodd" stroke="none">
      <animate attributeName="fill" dur="2s" repeatCount="indefinite" values="#ffffff;#ffffff"/>
      <animate attributeName="fill-opacity" dur="2s" repeatCount="indefinite" values="1.0;1.0"/>
      <animate attributeName="d" dur="2s" repeatCount="indefinite" values="M-7.65 -2.45 L-7.65 -2.45 -7.4 -2.05 -7.1 -2.0 -6.65 -1.9 -4.85 -1.9 Q-3.7 -1.9 -2.6 -1.9 L-2.8 -1.85 -3.1 -1.75 -3.6 -1.55 -5.5 -1.05 -6.4 -0.8 -6.75 -0.65 -6.65 -0.35 -6.25 -0.25 -4.75 -0.2 -3.55 -0.2 Q-2.85 -0.25 -2.2 -0.25 -2.2 0.25 -1.2 0.55 -1.6 0.65 -2.0 0.75 -3.1 0.95 -4.2 1.15 -5.4 1.45 -5.4 1.75 L-5.2 2.05 -4.0 2.35 -1.5 2.45 -1.65 2.6 Q-4.05 3.3 -4.05 3.55 L-3.55 3.95 -3.35 4.05 -1.9 4.35 -1.25 4.4 Q-0.7 4.4 -0.15 4.4 L1.55 4.2 4.4 3.4 2.85 3.0 Q2.05 2.95 1.75 2.6 L2.6 2.5 3.4 2.3 3.6 2.3 4.15 2.15 4.85 1.65 Q4.85 1.15 0.6 1.2 L1.0 1.1 1.75 0.8 3.95 0.05 Q3.3 -0.1 2.65 -0.2 L1.85 -0.3 1.05 -0.35 1.25 -0.4 1.25 -0.4 Q2.15 -0.7 2.15 -0.95 L-0.2 -1.3 -0.75 -1.3 -0.6 -1.45 Q0.3 -1.65 0.3 -2.15 L0.05 -2.6 0.05 -2.6 Q-0.35 -2.7 -0.7 -2.75 L-3.3 -2.8 -2.6 -2.95 Q-2.05 -3.0 -1.5 -3.35 -0.85 -3.7 -0.85 -3.95 L-1.05 -4.25 -1.2 -4.35 -3.45 -4.4 -4.85 -4.2 Q-5.85 -3.9 -5.85 -3.6 L-6.75 -3.0 -7.65 -2.45;M-1.5 -3.55 L-1.5 -3.45 -1.25 -3.25 -1.15 -3.2 -0.75 -3.1 0.7 -2.65 Q-0.85 -2.1 -1.15 -1.75 L-1.2 -1.65 -1.05 -1.5 -0.75 -1.4 0.9 -0.85 1.6 -0.55 1.25 -0.25 1.0 -0.05 0.85 0.2 2.05 0.65 2.95 0.75 Q2.4 0.95 1.85 1.25 1.45 1.45 1.05 1.65 0.15 2.15 0.15 2.2 0.15 2.55 2.05 3.2 2.6 3.35 3.1 3.5 L3.3 3.6 4.4 3.9 6.95 4.65 7.05 4.65 Q8.15 4.9 9.25 5.1 L9.9 5.15 9.9 5.15 11.3 5.0 11.45 4.3 Q11.45 3.9 10.9 3.65 L9.65 3.2 7.35 2.65 6.1 2.3 Q5.65 2.15 5.25 2.0 L4.5 1.7 5.2 1.15 5.4 1.05 5.6 0.6 5.3 0.3 Q3.9 -1.1 1.9 -1.55 L1.5 -1.65 2.35 -1.8 4.4 -2.3 Q5.6 -2.65 5.6 -2.9 L5.2 -3.3 4.7 -3.3 4.5 -3.3 4.5 -3.3 Q4.85 -3.45 5.2 -3.55 L7.3 -4.2 7.85 -4.35 7.95 -4.35 Q8.35 -4.5 8.7 -4.65 L9.15 -4.9 9.2 -5.1 Q9.2 -5.5 9.0 -5.4 L7.2 -5.15 6.55 -5.05 Q6.05 -5.0 5.6 -4.95 5.25 -4.9 4.9 -4.85 L4.35 -4.75 4.25 -4.75 2.5 -4.55 1.35 -4.45 Q0.7 -4.35 0.1 -4.25 L-0.95 -3.95 -1.5 -3.55"/>
    </path>
    <path d="M-7.65 -2.45 L-6.75 -3.0 -5.85 -3.6 Q-5.85 -3.9 -4.85 -4.2 L-3.45 -4.4 -1.2 -4.35 -1.05 -4.25 -0.85 -3.95 Q-0.85 -3.7 -1.5 -3.35 -2.05 -3.0 -2.6 -2.95 L-3.3 -2.8 -0.7 -2.75 Q-0.35 -2.7 0.05 -2.6 L0.05 -2.6 0.3 -2.15 Q0.3 -1.65 -0.6 -1.45 L-0.75 -1.3 -0.2 -1.3 2.15 -0.95 Q2.15 -0.7 1.25 -0.4 L1.25 -0.4 1.05 -0.35 1.85 -0.3 2.65 -0.2 Q3.3 -0.1 3.95 0.05 L1.75 0.8 1.0 1.1 0.6 1.2 Q4.85 1.15 4.85 1.65 L4.15 2.15 3.6 2.3 3.4 2.3 2.6 2.5 1.75 2.6 Q2.05 2.95 2.85 3.0 L4.4 3.4 1.55 4.2 -0.15 4.4 Q-0.7 4.4 -1.25 4.4 L-1.9 4.35 -3.35 4.05 -3.55 3.95 -4.05 3.55 Q-4.05 3.3 -1.65 2.6 L-1.5 2.45 -4.0 2.35 -5.2 2.05 -5.4 1.75 Q-5.4 1.45 -4.2 1.15 -3.1 0.95 -2.0 0.75 -1.6 0.65 -1.2 0.55 -2.2 0.25 -2.2 -0.25 -2.85 -0.25 -3.55 -0.2 L-4.75 -0.2 -6.25 -0.25 -6.65 -0.35 -6.75 -0.65 -6.4 -0.8 -5.5 -1.05 -3.6 -1.55 -3.1 -1.75 -2.8 -1.85 -2.6 -1.9 Q-3.7 -1.9 -4.85 -1.9 L-6.65 -1.9 -7.1 -2.0 -7.4 -2.05 -7.65 -2.45 -7.65 -2.45 Z" fill="none" stroke="#000000" stroke-linecap="round" stroke-linejoin="round" stroke-opacity="0.0" stroke-width="0.0">
      <animate attributeName="stroke" dur="2s" repeatCount="indefinite" values="#000000;#000001"/>
      <animate attributeName="stroke-width" dur="2s" repeatCount="indefinite" values="0.0;0.0"/>
      <animate attributeName="fill-opacity" dur="2s" repeatCount="indefinite" values="0.0;0.0"/>
      <animate attributeName="d" dur="2s" repeatCount="indefinite" values="M-7.65 -2.45 L-6.75 -3.0 -5.85 -3.6 Q-5.85 -3.9 -4.85 -4.2 L-3.45 -4.4 -1.2 -4.35 -1.05 -4.25 -0.85 -3.95 Q-0.85 -3.7 -1.5 -3.35 -2.05 -3.0 -2.6 -2.95 L-3.3 -2.8 -0.7 -2.75 Q-0.35 -2.7 0.05 -2.6 L0.05 -2.6 0.3 -2.15 Q0.3 -1.65 -0.6 -1.45 L-0.75 -1.3 -0.2 -1.3 2.15 -0.95 Q2.15 -0.7 1.25 -0.4 L1.25 -0.4 1.05 -0.35 1.85 -0.3 2.65 -0.2 Q3.3 -0.1 3.95 0.05 L1.75 0.8 1.0 1.1 0.6 1.2 Q4.85 1.15 4.85 1.65 L4.15 2.15 3.6 2.3 3.4 2.3 2.6 2.5 1.75 2.6 Q2.05 2.95 2.85 3.0 L4.4 3.4 1.55 4.2 -0.15 4.4 Q-0.7 4.4 -1.25 4.4 L-1.9 4.35 -3.35 4.05 -3.55 3.95 -4.05 3.55 Q-4.05 3.3 -1.65 2.6 L-1.5 2.45 -4.0 2.35 -5.2 2.05 -5.4 1.75 Q-5.4 1.45 -4.2 1.15 -3.1 0.95 -2.0 0.75 -1.6 0.65 -1.2 0.55 -2.2 0.25 -2.2 -0.25 -2.85 -0.25 -3.55 -0.2 L-4.75 -0.2 -6.25 -0.25 -6.65 -0.35 -6.75 -0.65 -6.4 -0.8 -5.5 -1.05 -3.6 -1.55 -3.1 -1.75 -2.8 -1.85 -2.6 -1.9 Q-3.7 -1.9 -4.85 -1.9 L-6.65 -1.9 -7.1 -2.0 -7.4 -2.05 -7.65 -2.45 -7.65 -2.45 Z;M-1.5 -3.55 L-0.95 -3.95 0.1 -4.25 Q0.7 -4.35 1.35 -4.45 L2.5 -4.55 4.25 -4.75 4.35 -4.75 4.9 -4.85 Q5.25 -4.9 5.6 -4.95 6.05 -5.0 6.55 -5.05 L7.2 -5.15 9.0 -5.4 Q9.2 -5.5 9.2 -5.1 L9.15 -4.9 8.7 -4.65 Q8.35 -4.5 7.95 -4.35 L7.85 -4.35 7.3 -4.2 5.2 -3.55 Q4.85 -3.45 4.5 -3.3 L4.5 -3.3 4.7 -3.3 5.2 -3.3 5.6 -2.9 Q5.6 -2.65 4.4 -2.3 L2.35 -1.8 1.5 -1.65 1.9 -1.55 Q3.9 -1.1 5.3 0.3 L5.6 0.6 5.4 1.05 5.2 1.15 4.5 1.7 5.25 2.0 Q5.65 2.15 6.1 2.3 L7.35 2.65 9.65 3.2 10.9 3.65 Q11.45 3.9 11.45 4.3 L11.3 5.0 9.9 5.15 9.9 5.15 9.25 5.1 Q8.15 4.9 7.05 4.65 L6.95 4.65 4.4 3.9 3.3 3.6 3.1 3.5 Q2.6 3.35 2.05 3.2 0.15 2.55 0.15 2.2 0.15 2.15 1.05 1.65 1.45 1.45 1.85 1.25 2.4 0.95 2.95 0.75 L2.05 0.65 0.85 0.2 1.0 -0.05 1.25 -0.25 1.6 -0.55 0.9 -0.85 -0.75 -1.4 -1.05 -1.5 -1.2 -1.65 -1.15 -1.75 Q-0.85 -2.1 0.7 -2.65 L-0.75 -3.1 -1.15 -3.2 -1.25 -3.25 -1.5 -3.45 -1.5 -3.55 Z"/>
    </path>
  </g>
</svg>
