<?xml version="1.0" encoding="UTF-8" standalone="no"?>
<svg xmlns:ffdec="https://www.free-decompiler.com/flash" xmlns:xlink="http://www.w3.org/1999/xlink" ffdec:objectType="morphshape" height="45.0px" width="85.25px" xmlns="http://www.w3.org/2000/svg">
  <g transform="matrix(1.0, 0.0, 0.0, 1.0, 21.5, 29.75)">
    <path d="M1.8 -3.95 L1.8 -3.95 1.95 -3.75 1.95 -3.55 2.0 -3.35 2.0 -3.2 2.0 -3.0 1.95 -2.85 2.25 -2.75 2.6 -2.65 2.7 -2.65 3.0 -2.55 3.1 -2.55 3.3 -2.35 3.4 -2.4 3.4 -2.45 3.4 -2.55 3.25 -2.95 3.25 -3.5 2.0 -4.0 1.8 -3.95 M-2.8 6.65 L-2.15 6.6 -1.75 6.5 -1.6 6.4 -1.5 6.3 -1.4 6.3 -0.75 6.1 0.15 5.9 0.45 5.85 0.85 5.45 0.95 5.3 1.5 4.8 1.9 4.55 2.95 3.8 3.15 3.6 3.55 3.3 3.25 3.25 2.9 3.2 2.8 3.2 2.55 3.15 2.15 3.15 1.95 3.15 1.45 3.2 1.35 3.2 0.95 3.25 0.75 3.25 -1.15 3.3 -1.75 3.3 -2.25 3.45 -2.1 3.65 -2.05 3.8 -2.0 4.0 -2.0 4.2 -2.0 4.55 -2.05 4.95 -2.25 5.5 -2.7 6.45 -2.8 6.65 M-9.3 -1.15 L-8.0 -1.15 -9.3 -1.15 M-18.0 2.95 L-18.0 2.95 -18.0 3.15 -18.0 3.3 -18.0 3.5 -18.0 3.7 -18.0 3.9 -17.95 4.05 -17.85 4.25 -17.8 4.45 -17.75 4.65 -17.6 4.8 -17.55 5.0 -17.45 5.2 -17.3 5.4 -17.2 5.45 -17.1 5.45 -17.1 5.45 -17.0 5.45 -16.95 5.45 -16.85 5.35 -16.75 5.3 -16.75 5.3 -16.65 5.25 -16.45 5.15 -16.35 5.15 -16.3 5.15 -16.2 5.05 -16.1 4.95 -16.0 4.95 -16.0 4.95 -15.8 4.85 -15.75 4.75 -15.75 4.75 -15.75 4.65 -15.75 4.55 -15.75 4.4 -15.75 4.0 -15.75 3.65 -15.75 3.45 -15.7 3.25 -15.6 3.05 -15.6 2.9 -15.75 2.7 -15.85 2.5 -15.85 2.4 -15.95 2.35 -16.45 2.3 -16.85 2.3 -16.95 2.3 -17.05 2.3 -17.15 2.3 -17.25 2.3 -17.25 2.4 -17.35 2.4 -17.45 2.4 -17.45 2.5 -17.5 2.5 -17.6 2.5 -17.95 2.85 -18.0 2.95 M-21.5 2.25 L-21.5 4.6 -21.5 4.7 -21.45 4.8 -21.45 4.9 -21.35 5.0 -21.35 5.05 -21.3 5.15 -21.3 5.25 -21.25 5.35 -21.25 5.45 -21.2 5.55 -21.2 5.65 -21.1 5.75 -21.05 5.8 -21.0 6.0 -20.85 6.2 -20.8 6.4 -20.7 6.5 -20.7 6.55 -20.6 6.75 -20.6 6.75 -20.5 6.95 -20.35 7.15 -20.25 7.3 -20.15 7.4 -20.1 7.5 -20.0 7.7 -19.85 7.9 -19.7 8.05 -19.5 8.25 -19.35 8.45 -19.3 8.65 -19.1 8.8 -19.1 8.8 -19.0 9.0 -18.75 9.2 -18.5 9.4 -18.5 9.55 -18.5 9.75 -18.45 9.95 -18.45 10.15 -18.35 10.25 -18.3 10.3 -18.2 10.5 -18.2 10.5 -18.1 10.6 -18.05 10.7 -17.85 10.9 -17.5 11.05 -17.1 11.15 -17.0 11.15 -16.75 11.25 -16.5 11.25 -16.35 11.25 -16.15 11.15 -16.15 11.15 -15.85 11.1 -15.75 11.05 -15.65 11.0 -15.45 10.9 -15.45 10.9 -15.35 10.8 -15.25 10.7 -15.05 10.6 -15.05 10.5 -15.05 10.5 -14.95 10.5 -14.85 10.4 -14.85 10.3 -14.75 10.3 -14.75 10.2 -14.7 10.15 -14.6 10.15 -14.6 10.05 -14.5 10.05 -14.5 9.95 -14.3 9.95 -14.1 9.9 -14.1 9.9 -13.9 9.95 -13.85 9.95 -13.75 9.95 -13.5 10.0 -13.2 10.05 -13.05 10.2 -12.85 10.4 Q-11.0 11.55 -8.95 12.4 L-8.3 12.65 -7.9 12.8 -7.8 12.8 -7.8 12.8 -7.5 12.9 -7.4 12.9 -7.2 13.0 -7.0 13.1 -6.8 13.2 Q-5.25 13.75 -3.75 14.3 L-2.4 14.7 -2.1 14.8 -2.0 14.8 -1.7 14.9 -1.4 15.0 -1.3 15.0 -0.5 15.25 -0.25 15.15 -0.15 15.15 0.25 15.05 0.35 15.0 0.55 14.9 0.55 14.9 0.75 14.7 0.75 14.7 0.85 14.7 0.95 14.6 0.95 14.5 0.95 14.5 1.0 14.3 1.0 14.3 1.1 14.2 1.15 14.15 1.2 14.05 1.2 13.95 1.2 13.95 1.25 13.85 1.25 13.75 1.25 13.65 1.25 13.55 1.25 13.4 1.25 13.4 1.2 13.3 1.2 13.2 1.2 13.2 1.2 13.1 1.2 13.0 1.2 13.0 1.1 12.9 1.05 12.8 1.05 12.75 1.0 12.65 1.0 12.65 0.9 12.55 0.9 12.45 0.9 12.45 0.8 12.35 0.75 12.25 0.45 12.05 0.15 11.9 -0.05 11.7 0.15 11.6 0.5 11.5 0.65 11.4 0.85 11.3 0.95 11.3 1.05 11.3 1.05 11.3 1.15 11.3 1.25 11.3 Q1.35 11.25 1.45 11.25 L1.65 11.25 1.75 11.25 2.05 11.25 2.55 11.25 2.75 11.25 2.85 11.25 3.05 11.25 3.25 11.25 3.65 11.2 Q6.15 10.75 8.45 9.65 L8.9 9.55 9.1 9.45 9.2 9.35 9.3 9.25 9.4 9.15 9.7 8.95 9.9 8.85 10.0 8.75 10.0 8.75 10.0 8.75 10.1 8.65 10.2 8.65 10.2 8.55 10.4 8.65 10.5 8.65 10.6 8.65 10.6 8.65 10.6 8.65 10.7 8.7 10.8 8.7 10.9 8.7 10.9 8.7 11.0 8.7 11.15 8.75 11.25 8.75 11.85 8.75 13.05 8.75 13.35 8.75 13.65 8.75 13.85 8.75 13.95 8.75 14.05 8.75 14.15 8.75 14.25 8.75 14.35 8.75 14.45 8.75 14.55 8.75 14.65 8.75 14.65 8.75 14.75 8.75 14.85 8.75 14.95 8.75 14.95 8.75 15.05 8.75 15.15 8.75 15.25 8.75 15.75 8.75 15.95 8.75 16.15 8.7 16.4 8.65 16.5 8.55 16.55 8.55 16.75 8.45 16.85 8.45 17.05 8.35 17.15 8.25 17.25 8.25 17.35 8.15 17.35 8.05 17.4 8.05 17.4 8.05 17.4 8.05 17.65 7.9 17.65 7.9 17.75 7.7 17.85 7.6 17.95 7.5 17.95 7.5 18.0 7.3 18.15 7.15 18.2 6.95 18.25 6.75 18.25 6.65 18.25 6.55 18.25 6.4 18.25 6.2 18.25 6.1 18.25 6.0 18.2 5.8 18.15 5.65 18.15 5.65 18.0 5.45 18.0 5.35 17.95 5.25 17.75 5.05 17.65 5.0 17.55 4.9 17.55 4.9 17.45 4.8 17.35 4.7 17.25 4.7 17.15 4.7 16.85 4.6 16.85 4.6 16.85 4.6 16.75 4.6 16.55 4.5 16.45 4.5 16.35 4.4 16.25 4.4 16.1 4.4 16.0 4.4 15.9 4.4 15.6 4.35 15.2 4.3 14.8 4.3 14.6 4.3 14.4 4.3 14.2 4.3 13.9 4.3 12.0 4.4 12.0 4.25 12.0 4.05 11.95 3.9 12.5 3.75 12.9 3.7 13.15 3.65 13.4 3.5 13.65 3.3 13.85 3.1 14.05 2.95 14.25 2.75 14.35 2.65 14.4 2.55 14.5 2.5 14.5 2.4 14.5 2.4 14.55 2.2 14.65 2.1 14.7 2.0 14.7 2.0 14.7 1.9 14.7 1.8 14.7 1.75 14.75 1.65 14.75 1.55 14.75 1.45 14.75 1.35 14.75 1.25 14.75 1.25 14.7 1.15 14.7 1.05 14.7 1.0 14.65 0.9 14.65 0.9 14.55 0.8 14.5 0.7 14.5 0.7 14.45 0.5 14.45 0.5 14.25 0.3 14.25 0.3 14.05 0.15 14.05 0.15 13.75 -0.05 13.45 -0.25 13.45 -0.45 13.5 -0.6 13.5 -0.8 13.5 -1.0 13.45 -1.2 13.4 -1.35 13.25 -1.55 13.2 -1.75 13.0 -1.95 12.8 -2.1 12.5 -2.3 12.1 -2.4 11.75 -2.5 10.9 -2.5 10.7 -2.5 10.7 -2.5 10.65 -2.6 10.5 -2.8 10.45 -3.0 10.35 -3.1 10.25 -3.2 10.15 -3.35 10.05 -3.55 9.95 -3.75 9.8 -3.95 9.8 -3.95 9.65 -4.05 9.55 -4.1 9.55 -4.1 9.35 -4.2 9.25 -4.3 9.25 -4.3 9.15 -4.3 8.95 -4.4 8.85 -4.4 8.85 -4.4 8.75 -4.5 8.65 -4.5 8.55 -4.5 8.5 -4.5 8.5 -4.5 8.4 -4.55 8.35 -4.55 8.25 -4.55 8.15 -4.55 8.05 -4.55 8.05 -4.55 7.75 -4.7 7.65 -4.75 7.5 -4.85 7.4 -4.95 7.4 -5.05 7.25 -5.25 7.25 -5.25 7.05 -5.35 6.95 -5.45 6.95 -5.45 6.75 -5.6 6.65 -5.6 6.6 -5.6 6.4 -5.7 6.3 -5.8 6.3 -5.8 6.3 -5.8 6.2 -5.8 6.1 -5.9 6.0 -6.0 6.0 -6.0 6.0 -6.0 5.9 -6.1 5.8 -6.2 5.75 -6.2 5.75 -6.2 5.65 -6.25 5.35 -6.35 5.25 -6.45 5.0 -6.55 Q3.3 -7.45 1.4 -7.65 L-1.15 -7.85 -1.25 -7.85 -1.25 -7.85 -1.25 -7.85 -1.35 -7.85 -1.45 -7.85 -1.55 -7.85 -1.65 -7.85 -1.75 -7.85 -2.0 -7.85 -2.9 -7.95 -3.4 -7.95 -3.8 -7.95 -4.1 -7.95 -7.0 -8.0 -7.0 -7.95 -7.35 -7.95 -7.45 -7.85 -7.6 -7.85 -7.85 -7.75 -7.85 -7.75 -8.05 -7.65 -8.15 -7.55 -8.25 -7.55 -8.25 -7.55 -8.45 -7.45 -8.6 -7.35 -8.75 -7.25 -8.75 -7.25 -8.8 -7.25 -8.9 -7.25 -9.0 -7.25 -9.0 -7.2 -9.0 -7.2 -9.1 -7.2 -9.2 -7.2 -9.35 -7.2 -9.4 -7.1 -9.5 -7.1 -9.6 -7.1 -9.85 -7.0 -9.85 -7.0 -10.0 -6.9 -10.2 -6.8 -10.2 -6.8 -10.35 -6.6 -10.55 -6.45 -10.55 -6.35 -10.55 -6.35 -10.65 -6.25 -10.75 -6.25 -10.75 -6.25 -10.95 -6.05 -11.1 -5.85 -11.25 -5.7 -11.45 -5.5 -11.55 -5.3 -11.75 -5.1 -11.75 -5.1 -11.85 -4.95 -12.0 -4.75 -12.2 -4.55 -12.2 -4.45 -12.3 -4.35 -12.5 -4.2 -12.6 -4.0 -12.8 -3.8 -13.0 -3.6 -13.1 -3.6 -13.3 -3.45 -13.45 -3.25 -13.55 -3.15 -13.55 -3.05 -13.65 -2.95 -13.7 -2.85 -13.7 -2.75 -13.75 -2.7 -13.75 -2.7 -13.85 -2.6 -13.9 -2.6 -14.0 -2.5 -14.0 -2.5 -14.0 -2.4 -14.1 -2.4 -14.1 -2.3 -14.1 -2.2 -14.2 -2.2 -14.2 -2.1 -14.3 -2.1 -14.35 -2.0 -14.35 -1.95 -14.4 -1.85 -14.5 -1.75 -14.6 -1.65 -14.7 -1.55 -14.75 -1.45 -14.85 -1.35 -14.95 -1.35 -15.15 -1.25 -15.25 -1.25 -15.45 -1.25 -15.75 -1.2 -15.95 -1.2 -16.25 -1.2 -16.4 -1.2 -16.6 -1.2 -16.7 -1.2 -16.8 -1.2 -16.9 -1.2 -17.5 -1.2 -18.0 -1.1 -18.1 -1.1 -18.25 -1.05 -19.0 -0.75 -19.1 -0.65 -19.5 -0.55 -19.85 -0.35 -20.25 -0.2 -20.5 0.0 -20.6 0.2 -20.8 0.4 -20.85 0.5 -20.85 0.55 -21.0 0.75 -21.05 0.95 -21.1 1.15 -21.2 1.3 -21.25 1.5 -21.25 1.6 -21.3 1.7 -21.3 1.7 -21.4 1.8 -21.45 1.9 -21.45 2.0 -21.45 2.05 -21.45 2.05 -21.45 2.15 -21.5 2.25" fill="#999999" fill-rule="evenodd" stroke="none">
      <animate attributeName="fill" dur="2s" repeatCount="indefinite" values="#999999;#99999a"/>
      <animate attributeName="fill-opacity" dur="2s" repeatCount="indefinite" values="1.0;0.15294118"/>
      <animate attributeName="d" dur="2s" repeatCount="indefinite" values="M1.8 -3.95 L1.8 -3.95 1.95 -3.75 1.95 -3.55 2.0 -3.35 2.0 -3.2 2.0 -3.0 1.95 -2.85 2.25 -2.75 2.6 -2.65 2.7 -2.65 3.0 -2.55 3.1 -2.55 3.3 -2.35 3.4 -2.4 3.4 -2.45 3.4 -2.55 3.25 -2.95 3.25 -3.5 2.0 -4.0 1.8 -3.95 M-2.8 6.65 L-2.15 6.6 -1.75 6.5 -1.6 6.4 -1.5 6.3 -1.4 6.3 -0.75 6.1 0.15 5.9 0.45 5.85 0.85 5.45 0.95 5.3 1.5 4.8 1.9 4.55 2.95 3.8 3.15 3.6 3.55 3.3 3.25 3.25 2.9 3.2 2.8 3.2 2.55 3.15 2.15 3.15 1.95 3.15 1.45 3.2 1.35 3.2 0.95 3.25 0.75 3.25 -1.15 3.3 -1.75 3.3 -2.25 3.45 -2.1 3.65 -2.05 3.8 -2.0 4.0 -2.0 4.2 -2.0 4.55 -2.05 4.95 -2.25 5.5 -2.7 6.45 -2.8 6.65 M-9.3 -1.15 L-8.0 -1.15 -9.3 -1.15 M-18.0 2.95 L-18.0 2.95 -18.0 3.15 -18.0 3.3 -18.0 3.5 -18.0 3.7 -18.0 3.9 -17.95 4.05 -17.85 4.25 -17.8 4.45 -17.75 4.65 -17.6 4.8 -17.55 5.0 -17.45 5.2 -17.3 5.4 -17.2 5.45 -17.1 5.45 -17.1 5.45 -17.0 5.45 -16.95 5.45 -16.85 5.35 -16.75 5.3 -16.75 5.3 -16.65 5.25 -16.45 5.15 -16.35 5.15 -16.3 5.15 -16.2 5.05 -16.1 4.95 -16.0 4.95 -16.0 4.95 -15.8 4.85 -15.75 4.75 -15.75 4.75 -15.75 4.65 -15.75 4.55 -15.75 4.4 -15.75 4.0 -15.75 3.65 -15.75 3.45 -15.7 3.25 -15.6 3.05 -15.6 2.9 -15.75 2.7 -15.85 2.5 -15.85 2.4 -15.95 2.35 -16.45 2.3 -16.85 2.3 -16.95 2.3 -17.05 2.3 -17.15 2.3 -17.25 2.3 -17.25 2.4 -17.35 2.4 -17.45 2.4 -17.45 2.5 -17.5 2.5 -17.6 2.5 -17.95 2.85 -18.0 2.95 M-21.5 2.25 L-21.5 4.6 -21.5 4.7 -21.45 4.8 -21.45 4.9 -21.35 5.0 -21.35 5.05 -21.3 5.15 -21.3 5.25 -21.25 5.35 -21.25 5.45 -21.2 5.55 -21.2 5.65 -21.1 5.75 -21.05 5.8 -21.0 6.0 -20.85 6.2 -20.8 6.4 -20.7 6.5 -20.7 6.55 -20.6 6.75 -20.6 6.75 -20.5 6.95 -20.35 7.15 -20.25 7.3 -20.15 7.4 -20.1 7.5 -20.0 7.7 -19.85 7.9 -19.7 8.05 -19.5 8.25 -19.35 8.45 -19.3 8.65 -19.1 8.8 -19.1 8.8 -19.0 9.0 -18.75 9.2 -18.5 9.4 -18.5 9.55 -18.5 9.75 -18.45 9.95 -18.45 10.15 -18.35 10.25 -18.3 10.3 -18.2 10.5 -18.2 10.5 -18.1 10.6 -18.05 10.7 -17.85 10.9 -17.5 11.05 -17.1 11.15 -17.0 11.15 -16.75 11.25 -16.5 11.25 -16.35 11.25 -16.15 11.15 -16.15 11.15 -15.85 11.1 -15.75 11.05 -15.65 11.0 -15.45 10.9 -15.45 10.9 -15.35 10.8 -15.25 10.7 -15.05 10.6 -15.05 10.5 -15.05 10.5 -14.95 10.5 -14.85 10.4 -14.85 10.3 -14.75 10.3 -14.75 10.2 -14.7 10.15 -14.6 10.15 -14.6 10.05 -14.5 10.05 -14.5 9.95 -14.3 9.95 -14.1 9.9 -14.1 9.9 -13.9 9.95 -13.85 9.95 -13.75 9.95 -13.5 10.0 -13.2 10.05 -13.05 10.2 -12.85 10.4 Q-11.0 11.55 -8.95 12.4 L-8.3 12.65 -7.9 12.8 -7.8 12.8 -7.8 12.8 -7.5 12.9 -7.4 12.9 -7.2 13.0 -7.0 13.1 -6.8 13.2 Q-5.25 13.75 -3.75 14.3 L-2.4 14.7 -2.1 14.8 -2.0 14.8 -1.7 14.9 -1.4 15.0 -1.3 15.0 -0.5 15.25 -0.25 15.15 -0.15 15.15 0.25 15.05 0.35 15.0 0.55 14.9 0.55 14.9 0.75 14.7 0.75 14.7 0.85 14.7 0.95 14.6 0.95 14.5 0.95 14.5 1.0 14.3 1.0 14.3 1.1 14.2 1.15 14.15 1.2 14.05 1.2 13.95 1.2 13.95 1.25 13.85 1.25 13.75 1.25 13.65 1.25 13.55 1.25 13.4 1.25 13.4 1.2 13.3 1.2 13.2 1.2 13.2 1.2 13.1 1.2 13.0 1.2 13.0 1.1 12.9 1.05 12.8 1.05 12.75 1.0 12.65 1.0 12.65 0.9 12.55 0.9 12.45 0.9 12.45 0.8 12.35 0.75 12.25 0.45 12.05 0.15 11.9 -0.05 11.7 0.15 11.6 0.5 11.5 0.65 11.4 0.85 11.3 0.95 11.3 1.05 11.3 1.05 11.3 1.15 11.3 1.25 11.3 Q1.35 11.25 1.45 11.25 L1.65 11.25 1.75 11.25 2.05 11.25 2.55 11.25 2.75 11.25 2.85 11.25 3.05 11.25 3.25 11.25 3.65 11.2 Q6.15 10.75 8.45 9.65 L8.9 9.55 9.1 9.45 9.2 9.35 9.3 9.25 9.4 9.15 9.7 8.95 9.9 8.85 10.0 8.75 10.0 8.75 10.0 8.75 10.1 8.65 10.2 8.65 10.2 8.55 10.4 8.65 10.5 8.65 10.6 8.65 10.6 8.65 10.6 8.65 10.7 8.7 10.8 8.7 10.9 8.7 10.9 8.7 11.0 8.7 11.15 8.75 11.25 8.75 11.85 8.75 13.05 8.75 13.35 8.75 13.65 8.75 13.85 8.75 13.95 8.75 14.05 8.75 14.15 8.75 14.25 8.75 14.35 8.75 14.45 8.75 14.55 8.75 14.65 8.75 14.65 8.75 14.75 8.75 14.85 8.75 14.95 8.75 14.95 8.75 15.05 8.75 15.15 8.75 15.25 8.75 15.75 8.75 15.95 8.75 16.15 8.7 16.4 8.65 16.5 8.55 16.55 8.55 16.75 8.45 16.85 8.45 17.05 8.35 17.15 8.25 17.25 8.25 17.35 8.15 17.35 8.05 17.4 8.05 17.4 8.05 17.4 8.05 17.65 7.9 17.65 7.9 17.75 7.7 17.85 7.6 17.95 7.5 17.95 7.5 18.0 7.3 18.15 7.15 18.2 6.95 18.25 6.75 18.25 6.65 18.25 6.55 18.25 6.4 18.25 6.2 18.25 6.1 18.25 6.0 18.2 5.8 18.15 5.65 18.15 5.65 18.0 5.45 18.0 5.35 17.95 5.25 17.75 5.05 17.65 5.0 17.55 4.9 17.55 4.9 17.45 4.8 17.35 4.7 17.25 4.7 17.15 4.7 16.85 4.6 16.85 4.6 16.85 4.6 16.75 4.6 16.55 4.5 16.45 4.5 16.35 4.4 16.25 4.4 16.1 4.4 16.0 4.4 15.9 4.4 15.6 4.35 15.2 4.3 14.8 4.3 14.6 4.3 14.4 4.3 14.2 4.3 13.9 4.3 12.0 4.4 12.0 4.25 12.0 4.05 11.95 3.9 12.5 3.75 12.9 3.7 13.15 3.65 13.4 3.5 13.65 3.3 13.85 3.1 14.05 2.95 14.25 2.75 14.35 2.65 14.4 2.55 14.5 2.5 14.5 2.4 14.5 2.4 14.55 2.2 14.65 2.1 14.7 2.0 14.7 2.0 14.7 1.9 14.7 1.8 14.7 1.75 14.75 1.65 14.75 1.55 14.75 1.45 14.75 1.35 14.75 1.25 14.75 1.25 14.7 1.15 14.7 1.05 14.7 1.0 14.65 0.9 14.65 0.9 14.55 0.8 14.5 0.7 14.5 0.7 14.45 0.5 14.45 0.5 14.25 0.3 14.25 0.3 14.05 0.15 14.05 0.15 13.75 -0.05 13.45 -0.25 13.45 -0.45 13.5 -0.6 13.5 -0.8 13.5 -1.0 13.45 -1.2 13.4 -1.35 13.25 -1.55 13.2 -1.75 13.0 -1.95 12.8 -2.1 12.5 -2.3 12.1 -2.4 11.75 -2.5 10.9 -2.5 10.7 -2.5 10.7 -2.5 10.65 -2.6 10.5 -2.8 10.45 -3.0 10.35 -3.1 10.25 -3.2 10.15 -3.35 10.05 -3.55 9.95 -3.75 9.8 -3.95 9.8 -3.95 9.65 -4.05 9.55 -4.1 9.55 -4.1 9.35 -4.2 9.25 -4.3 9.25 -4.3 9.15 -4.3 8.95 -4.4 8.85 -4.4 8.85 -4.4 8.75 -4.5 8.65 -4.5 8.55 -4.5 8.5 -4.5 8.5 -4.5 8.4 -4.55 8.35 -4.55 8.25 -4.55 8.15 -4.55 8.05 -4.55 8.05 -4.55 7.75 -4.7 7.65 -4.75 7.5 -4.85 7.4 -4.95 7.4 -5.05 7.25 -5.25 7.25 -5.25 7.05 -5.35 6.95 -5.45 6.95 -5.45 6.75 -5.6 6.65 -5.6 6.6 -5.6 6.4 -5.7 6.3 -5.8 6.3 -5.8 6.3 -5.8 6.2 -5.8 6.1 -5.9 6.0 -6.0 6.0 -6.0 6.0 -6.0 5.9 -6.1 5.8 -6.2 5.75 -6.2 5.75 -6.2 5.65 -6.25 5.35 -6.35 5.25 -6.45 5.0 -6.55 Q3.3 -7.45 1.4 -7.65 L-1.15 -7.85 -1.25 -7.85 -1.25 -7.85 -1.25 -7.85 -1.35 -7.85 -1.45 -7.85 -1.55 -7.85 -1.65 -7.85 -1.75 -7.85 -2.0 -7.85 -2.9 -7.95 -3.4 -7.95 -3.8 -7.95 -4.1 -7.95 -7.0 -8.0 -7.0 -7.95 -7.35 -7.95 -7.45 -7.85 -7.6 -7.85 -7.85 -7.75 -7.85 -7.75 -8.05 -7.65 -8.15 -7.55 -8.25 -7.55 -8.25 -7.55 -8.45 -7.45 -8.6 -7.35 -8.75 -7.25 -8.75 -7.25 -8.8 -7.25 -8.9 -7.25 -9.0 -7.25 -9.0 -7.2 -9.0 -7.2 -9.1 -7.2 -9.2 -7.2 -9.35 -7.2 -9.4 -7.1 -9.5 -7.1 -9.6 -7.1 -9.85 -7.0 -9.85 -7.0 -10.0 -6.9 -10.2 -6.8 -10.2 -6.8 -10.35 -6.6 -10.55 -6.45 -10.55 -6.35 -10.55 -6.35 -10.65 -6.25 -10.75 -6.25 -10.75 -6.25 -10.95 -6.05 -11.1 -5.85 -11.25 -5.7 -11.45 -5.5 -11.55 -5.3 -11.75 -5.1 -11.75 -5.1 -11.85 -4.95 -12.0 -4.75 -12.2 -4.55 -12.2 -4.45 -12.3 -4.35 -12.5 -4.2 -12.6 -4.0 -12.8 -3.8 -13.0 -3.6 -13.1 -3.6 -13.3 -3.45 -13.45 -3.25 -13.55 -3.15 -13.55 -3.05 -13.65 -2.95 -13.7 -2.85 -13.7 -2.75 -13.75 -2.7 -13.75 -2.7 -13.85 -2.6 -13.9 -2.6 -14.0 -2.5 -14.0 -2.5 -14.0 -2.4 -14.1 -2.4 -14.1 -2.3 -14.1 -2.2 -14.2 -2.2 -14.2 -2.1 -14.3 -2.1 -14.35 -2.0 -14.35 -1.95 -14.4 -1.85 -14.5 -1.75 -14.6 -1.65 -14.7 -1.55 -14.75 -1.45 -14.85 -1.35 -14.95 -1.35 -15.15 -1.25 -15.25 -1.25 -15.45 -1.25 -15.75 -1.2 -15.95 -1.2 -16.25 -1.2 -16.4 -1.2 -16.6 -1.2 -16.7 -1.2 -16.8 -1.2 -16.9 -1.2 -17.5 -1.2 -18.0 -1.1 -18.1 -1.1 -18.25 -1.05 -19.0 -0.75 -19.1 -0.65 -19.5 -0.55 -19.85 -0.35 -20.25 -0.2 -20.5 0.0 -20.6 0.2 -20.8 0.4 -20.85 0.5 -20.85 0.55 -21.0 0.75 -21.05 0.95 -21.1 1.15 -21.2 1.3 -21.25 1.5 -21.25 1.6 -21.3 1.7 -21.3 1.7 -21.4 1.8 -21.45 1.9 -21.45 2.0 -21.45 2.05 -21.45 2.05 -21.45 2.15 -21.5 2.25;M22.5 -24.35 L22.8 -24.35 22.9 -24.35 23.0 -24.35 23.1 -24.35 23.2 -24.35 23.3 -24.35 23.35 -24.35 23.45 -24.35 23.55 -24.35 23.55 -24.35 23.55 -24.45 23.55 -24.55 23.5 -24.7 23.5 -24.7 23.4 -24.75 23.4 -24.75 23.2 -24.6 23.0 -24.6 22.6 -24.4 22.5 -24.35 M16.4 -19.7 L16.4 -19.7 16.5 -19.85 16.55 -19.95 16.55 -20.05 16.6 -20.05 16.7 -20.25 17.2 -20.25 17.3 -20.25 17.5 -20.25 17.6 -20.25 17.9 -20.3 18.0 -20.3 18.35 -20.45 18.45 -20.45 18.65 -20.5 18.85 -20.5 19.0 -20.55 19.0 -20.55 19.1 -20.55 19.2 -20.65 19.3 -20.65 19.55 -20.7 19.55 -20.7 19.8 -20.7 19.7 -20.7 18.85 -20.4 18.65 -20.2 18.55 -20.0 18.45 -20.0 18.35 -20.0 18.25 -20.0 18.15 -20.0 17.95 -20.0 17.75 -20.0 17.3 -19.8 16.6 -19.7 16.4 -19.7 M11.4 -18.75 L12.35 -18.85 11.4 -18.75 M11.25 -11.6 L11.55 -11.6 11.95 -11.5 12.35 -11.4 12.75 -11.4 13.15 -11.4 13.55 -11.3 13.95 -11.2 14.35 -11.2 14.75 -11.2 15.15 -11.2 15.55 -11.2 15.95 -11.2 16.35 -11.2 16.75 -11.2 16.75 -11.3 16.8 -11.5 16.8 -11.6 16.9 -11.7 16.95 -11.85 17.15 -12.05 17.25 -12.25 17.35 -12.25 17.5 -12.45 17.8 -12.65 17.95 -12.7 18.05 -12.8 18.25 -13.0 18.45 -13.2 18.55 -13.3 18.65 -13.35 18.9 -13.5 19.0 -13.6 19.0 -13.7 18.8 -13.8 18.6 -13.8 18.4 -13.8 17.6 -13.9 17.0 -14.0 16.6 -14.0 16.15 -14.0 15.55 -14.1 15.35 -14.1 14.95 -14.2 14.55 -14.3 14.35 -14.3 14.15 -14.3 12.95 -14.5 12.2 -14.35 12.25 -14.25 12.25 -14.05 12.25 -13.85 12.25 -13.75 12.25 -13.7 12.25 -13.5 12.25 -13.3 12.2 -13.1 12.15 -12.95 12.05 -12.75 11.4 -11.8 11.25 -11.6 M-2.0 -18.05 L-2.0 -18.05 -2.0 -17.85 -2.0 -17.7 -2.0 -17.5 -2.0 -17.3 -2.0 -17.1 -1.95 -16.95 -1.85 -16.75 -1.75 -16.55 -1.6 -16.35 -1.45 -16.2 -1.2 -16.0 -1.0 -15.8 -0.75 -15.7 -0.45 -15.5 -0.15 -15.4 0.15 -15.3 0.35 -15.3 0.55 -15.3 0.8 -15.2 1.0 -15.2 1.3 -15.1 1.6 -15.0 1.9 -14.9 2.1 -14.8 2.6 -14.7 2.9 -14.7 3.2 -14.6 3.5 -14.5 3.8 -14.4 4.1 -14.3 4.4 -14.2 4.6 -14.1 5.0 -14.0 5.3 -14.0 5.6 -13.9 5.9 -13.85 6.2 -13.75 6.5 -13.65 6.8 -13.55 7.1 -13.45 7.3 -13.45 7.45 -13.45 7.65 -13.35 7.55 -13.35 7.45 -13.25 7.25 -13.15 7.05 -13.05 6.35 -12.65 5.65 -12.35 5.55 -12.3 5.05 -12.05 4.65 -11.85 4.35 -11.75 4.05 -11.65 3.95 -11.55 3.4 -11.45 3.15 -11.35 3.0 -11.3 2.75 -11.2 2.75 -11.2 2.5 -11.0 2.4 -10.8 2.2 -10.6 2.15 -10.45 2.15 -10.45 2.05 -10.25 2.0 -10.05 2.0 -9.85 2.0 -9.7 2.0 -9.5 2.05 -9.3 2.05 -9.1 2.2 -8.95 2.3 -8.75 2.45 -8.55 2.65 -8.35 3.0 -8.2 3.1 -8.2 3.4 -8.1 3.6 -8.0 3.75 -8.0 4.35 -8.0 4.85 -8.0 5.05 -8.0 5.35 -8.0 Q9.15 -7.95 12.9 -7.9 L14.1 -7.8 14.7 -7.7 14.8 -7.5 14.9 -7.4 14.95 -7.3 15.15 -7.1 15.5 -6.95 15.9 -6.85 16.25 -6.75 Q19.2 -6.7 21.95 -7.7 L24.45 -8.5 25.0 -8.6 25.3 -8.55 25.85 -8.35 26.4 -8.2 26.4 -8.0 24.95 -7.55 24.45 -7.4 24.2 -7.3 23.1 -6.9 23.0 -6.8 22.65 -6.6 22.55 -6.6 22.0 -6.5 22.0 -6.5 21.65 -6.45 21.4 -6.35 21.25 -6.25 21.15 -6.25 20.9 -6.05 20.8 -6.05 20.65 -5.85 20.55 -5.8 20.45 -5.7 20.35 -5.5 20.3 -5.5 20.2 -5.3 20.15 -5.2 20.05 -5.1 20.05 -4.95 20.0 -4.85 20.0 -4.75 20.0 -4.55 20.0 -4.45 20.0 -4.35 20.0 -4.2 20.0 -4.1 20.0 -4.0 20.05 -3.8 20.05 -3.7 20.05 -3.6 20.15 -3.5 20.2 -3.45 20.3 -3.25 20.4 -3.15 20.45 -3.05 20.65 -2.85 21.05 -2.65 21.7 -2.5 22.2 -2.4 22.5 -2.35 22.9 -2.35 23.9 -2.25 24.0 -2.25 24.55 -2.1 24.7 -1.95 24.8 -1.75 24.9 -1.65 24.95 -1.55 25.15 -1.35 Q25.3 -1.3 25.5 -1.2 L25.9 -1.1 26.15 -1.0 26.25 -1.0 27.25 -1.0 27.65 -1.05 27.95 -1.1 28.25 -1.2 28.75 -1.2 29.45 -1.2 Q33.55 -1.25 37.65 -1.25 L38.25 -1.25 38.65 -1.3 38.85 -1.4 39.0 -1.45 39.2 -1.55 39.5 -1.75 39.65 -1.95 39.75 -2.1 39.8 -2.2 39.8 -2.3 39.95 -2.5 39.95 -2.7 40.0 -2.85 40.0 -3.05 40.0 -3.25 39.95 -3.45 39.9 -3.6 39.85 -3.7 39.75 -3.8 39.7 -4.0 39.5 -4.2 39.4 -4.25 39.3 -4.35 39.0 -4.55 38.8 -4.55 38.25 -4.7 36.15 -4.85 36.45 -5.05 36.75 -5.25 36.9 -5.45 37.0 -5.6 37.05 -5.8 37.2 -6.0 37.2 -6.2 37.25 -6.35 37.25 -6.55 37.25 -6.75 37.25 -6.95 37.25 -7.1 37.2 -7.3 37.2 -7.5 37.05 -7.7 37.0 -7.85 36.9 -8.05 36.75 -8.25 36.75 -8.45 37.7 -8.8 37.9 -8.9 38.4 -9.05 38.9 -9.25 39.2 -9.4 39.3 -9.4 39.7 -9.6 40.0 -9.75 40.25 -9.95 40.45 -9.95 40.65 -10.05 40.85 -10.15 41.0 -10.2 41.1 -10.3 41.2 -10.3 41.2 -10.3 41.85 -10.35 41.95 -10.35 42.25 -10.2 42.65 -10.1 42.9 -10.0 43.0 -10.0 43.5 -10.0 44.0 -10.0 44.5 -10.0 45.05 -10.1 45.25 -10.1 45.3 -10.1 45.5 -10.1 45.8 -10.2 46.0 -10.25 46.2 -10.25 46.5 -10.35 46.65 -10.45 46.75 -10.45 46.95 -10.55 47.15 -10.6 47.25 -10.6 47.55 -10.7 47.75 -10.75 47.95 -10.8 48.15 -10.8 48.35 -10.9 48.5 -10.95 48.6 -10.95 48.7 -11.05 49.0 -11.25 49.15 -11.45 49.25 -11.6 49.3 -11.8 49.45 -12.0 49.45 -12.2 49.5 -12.35 49.5 -12.55 49.5 -12.75 49.45 -12.95 49.4 -13.1 49.55 -13.3 50.0 -13.45 50.65 -13.25 50.9 -13.2 51.15 -13.1 51.4 -13.05 51.75 -13.0 55.15 -13.0 55.35 -13.0 55.65 -13.0 55.85 -13.0 57.1 -13.0 57.8 -13.0 58.3 -13.0 59.0 -13.0 59.9 -13.0 60.6 -13.0 61.3 -13.0 62.0 -13.0 62.4 -13.05 62.6 -13.15 62.75 -13.2 62.85 -13.3 62.95 -13.3 63.15 -13.4 63.25 -13.5 63.4 -13.6 63.4 -13.7 63.5 -13.85 63.55 -13.95 63.55 -14.05 63.7 -14.25 63.7 -14.45 63.75 -14.6 63.75 -14.8 63.75 -15.0 63.7 -15.2 63.65 -15.35 63.6 -15.45 63.5 -15.55 63.5 -15.65 63.45 -15.75 63.25 -15.95 63.15 -16.0 63.05 -16.1 62.85 -16.2 62.75 -16.3 62.45 -16.4 62.35 -16.4 62.1 -16.5 62.0 -16.5 61.8 -16.5 61.1 -16.55 60.7 -16.55 60.3 -16.55 59.9 -16.55 59.55 -16.55 59.15 -16.55 58.95 -16.55 58.55 -16.55 58.15 -16.55 57.75 -16.55 57.35 -16.55 56.65 -16.55 55.95 -16.55 55.25 -16.55 53.75 -16.55 53.95 -16.65 54.0 -16.7 54.3 -16.9 54.5 -17.0 54.8 -17.25 55.05 -17.45 55.15 -17.5 55.25 -17.6 55.55 -17.85 55.75 -17.95 55.95 -18.15 55.95 -18.2 56.15 -18.35 56.25 -18.45 56.25 -18.55 56.45 -18.75 56.5 -18.85 56.5 -18.95 56.65 -19.1 56.7 -19.3 56.7 -19.4 56.75 -19.5 56.75 -19.7 56.75 -19.85 56.7 -20.05 56.7 -20.15 56.7 -20.25 56.55 -20.45 56.5 -20.6 56.4 -20.8 56.25 -21.0 56.05 -21.1 55.95 -21.15 55.35 -21.45 55.05 -21.55 54.85 -21.55 54.6 -21.65 54.6 -21.65 54.3 -21.8 54.3 -21.85 54.5 -22.05 54.6 -22.15 54.7 -22.25 54.75 -22.45 54.75 -22.45 54.9 -22.6 54.95 -22.8 55.0 -22.9 55.0 -23.0 55.0 -23.2 55.0 -23.35 55.0 -23.55 55.0 -23.75 54.95 -23.95 54.9 -24.1 54.75 -24.3 54.7 -24.5 54.6 -24.6 54.5 -24.7 54.3 -24.85 54.0 -25.05 53.65 -25.15 53.2 -25.15 Q49.8 -25.25 46.4 -25.3 L42.0 -25.35 42.0 -25.55 42.0 -25.75 41.95 -25.95 41.9 -26.1 41.75 -26.3 41.7 -26.5 41.5 -26.7 41.3 -26.85 41.0 -27.05 39.4 -27.4 38.5 -27.55 37.9 -27.7 37.5 -27.75 32.5 -27.75 32.4 -27.75 31.8 -27.75 31.5 -27.75 31.15 -27.7 30.75 -27.55 30.55 -27.55 30.3 -27.5 30.0 -27.45 29.85 -27.4 29.75 -27.4 29.45 -27.3 29.15 -27.3 28.65 -27.35 28.65 -27.5 28.7 -27.7 28.75 -27.85 28.75 -28.05 28.75 -28.15 28.75 -28.25 28.7 -28.45 28.65 -28.6 28.5 -28.8 28.45 -29.0 28.25 -29.2 28.05 -29.35 27.75 -29.55 27.75 -29.55 27.35 -29.65 27.0 -29.75 27.0 -29.75 26.4 -29.75 25.7 -29.75 25.5 -29.75 25.5 -29.7 25.15 -29.7 24.95 -29.65 24.8 -29.65 24.3 -29.55 23.7 -29.45 23.1 -29.35 22.4 -29.25 21.85 -29.15 21.15 -29.05 21.05 -29.05 20.8 -29.0 20.3 -28.9 19.6 -28.7 19.4 -28.65 19.2 -28.6 18.5 -28.4 17.9 -28.25 17.2 -28.05 16.5 -27.85 16.4 -27.85 15.7 -27.65 15.0 -27.45 14.65 -27.35 14.5 -27.3 14.25 -27.2 14.1 -27.1 14.0 -27.0 13.9 -26.8 13.9 -26.8 13.7 -26.6 13.65 -26.45 13.55 -26.25 13.55 -26.15 13.5 -26.05 13.5 -25.85 13.5 -25.7 13.5 -25.5 13.55 -25.3 13.55 -25.1 13.7 -24.95 13.75 -24.75 13.65 -24.65 13.55 -24.55 13.35 -24.45 13.05 -24.35 12.75 -24.25 12.55 -24.2 12.35 -24.1 12.15 -24.0 11.8 -23.8 11.65 -23.6 11.45 -23.45 11.3 -23.25 11.2 -23.05 11.05 -22.85 11.05 -22.7 11.0 -22.5 11.0 -22.3 11.0 -22.15 10.9 -22.15 9.9 -21.9 8.65 -21.7 8.45 -21.7 8.15 -21.6 6.7 -21.4 6.4 -21.35 5.7 -21.15 4.75 -20.95 3.65 -20.75 2.75 -20.55 2.15 -20.45 1.45 -20.25 1.25 -20.15 1.15 -20.05 0.65 -19.9 0.25 -19.8 -0.15 -19.7 -0.65 -19.45 -1.15 -19.2 -1.25 -19.2 -1.4 -19.1 -1.5 -19.0 -1.6 -18.8 -1.7 -18.6 -1.8 -18.6 -1.85 -18.45 -1.85 -18.45 -1.95 -18.25 -2.0 -18.05"/>
    </path>
    <path d="M-21.5 2.25 L-21.45 2.15 -21.45 2.05 -21.45 2.05 -21.45 2.0 -21.45 1.9 -21.4 1.8 -21.3 1.7 -21.3 1.7 -21.25 1.6 -21.25 1.5 -21.2 1.3 -21.1 1.15 -21.05 0.95 -21.0 0.75 -20.85 0.55 -20.85 0.5 -20.8 0.4 -20.6 0.2 -20.5 0.0 -20.25 -0.2 -19.85 -0.35 -19.5 -0.55 -19.1 -0.65 -19.0 -0.75 -18.25 -1.05 -18.1 -1.1 -18.0 -1.1 -17.5 -1.2 -16.9 -1.2 -16.8 -1.2 -16.7 -1.2 -16.6 -1.2 -16.4 -1.2 -16.25 -1.2 -15.95 -1.2 -15.75 -1.2 -15.45 -1.25 -15.25 -1.25 -15.15 -1.25 -14.95 -1.35 -14.85 -1.35 -14.75 -1.45 -14.7 -1.55 -14.6 -1.65 -14.5 -1.75 -14.4 -1.85 -14.35 -1.95 -14.35 -2.0 -14.3 -2.1 -14.2 -2.1 -14.2 -2.2 -14.1 -2.2 -14.1 -2.3 -14.1 -2.4 -14.0 -2.4 -14.0 -2.5 -14.0 -2.5 -13.9 -2.6 -13.85 -2.6 -13.75 -2.7 -13.75 -2.7 -13.7 -2.75 -13.7 -2.85 -13.65 -2.95 -13.55 -3.05 -13.55 -3.15 -13.45 -3.25 -13.3 -3.45 -13.1 -3.6 -13.0 -3.6 -12.8 -3.8 -12.6 -4.0 -12.5 -4.2 -12.3 -4.35 -12.2 -4.45 -12.2 -4.55 -12.0 -4.75 -11.85 -4.95 -11.75 -5.1 -11.75 -5.1 -11.55 -5.3 -11.45 -5.5 -11.25 -5.7 -11.1 -5.85 -10.95 -6.05 -10.75 -6.25 -10.75 -6.25 -10.65 -6.25 -10.55 -6.35 -10.55 -6.35 -10.55 -6.45 -10.35 -6.6 -10.2 -6.8 -10.2 -6.8 -10.0 -6.9 -9.85 -7.0 -9.85 -7.0 -9.6 -7.1 -9.5 -7.1 -9.4 -7.1 -9.35 -7.2 -9.2 -7.2 -9.1 -7.2 -9.0 -7.2 -9.0 -7.2 -9.0 -7.25 -8.9 -7.25 -8.8 -7.25 -8.75 -7.25 -8.75 -7.25 -8.6 -7.35 -8.45 -7.45 -8.25 -7.55 -8.25 -7.55 -8.15 -7.55 -8.05 -7.65 -7.85 -7.75 -7.85 -7.75 -7.6 -7.85 -7.45 -7.85 -7.35 -7.95 -7.0 -7.95 -7.0 -8.0 -4.1 -7.95 -3.8 -7.95 -3.4 -7.95 -2.9 -7.95 -2.0 -7.85 -1.75 -7.85 -1.65 -7.85 -1.55 -7.85 -1.45 -7.85 -1.35 -7.85 -1.25 -7.85 -1.25 -7.85 -1.25 -7.85 -1.15 -7.85 1.4 -7.65 Q3.3 -7.45 5.0 -6.55 L5.25 -6.45 5.35 -6.35 5.65 -6.25 5.75 -6.2 5.75 -6.2 5.8 -6.2 5.9 -6.1 6.0 -6.0 6.0 -6.0 6.0 -6.0 6.1 -5.9 6.2 -5.8 6.3 -5.8 6.3 -5.8 6.3 -5.8 6.4 -5.7 6.6 -5.6 6.65 -5.6 6.75 -5.6 6.95 -5.45 6.95 -5.45 7.05 -5.35 7.25 -5.25 7.25 -5.25 7.4 -5.05 7.4 -4.95 7.5 -4.85 7.65 -4.75 7.75 -4.7 8.05 -4.55 8.05 -4.55 8.15 -4.55 8.25 -4.55 8.35 -4.55 8.4 -4.55 8.5 -4.5 8.5 -4.5 8.55 -4.5 8.65 -4.5 8.75 -4.5 8.85 -4.4 8.85 -4.4 8.95 -4.4 9.15 -4.3 9.25 -4.3 9.25 -4.3 9.35 -4.2 9.55 -4.1 9.55 -4.1 9.65 -4.05 9.8 -3.95 9.8 -3.95 9.95 -3.75 10.05 -3.55 10.15 -3.35 10.25 -3.2 10.35 -3.1 10.45 -3.0 10.5 -2.8 10.65 -2.6 10.7 -2.5 10.7 -2.5 10.9 -2.5 11.75 -2.5 12.1 -2.4 12.5 -2.3 12.8 -2.1 13.0 -1.95 13.2 -1.75 13.25 -1.55 13.4 -1.35 13.45 -1.2 13.5 -1.0 13.5 -0.8 13.5 -0.6 13.45 -0.45 13.45 -0.25 13.75 -0.05 14.05 0.15 14.05 0.15 14.25 0.3 14.25 0.3 14.45 0.5 14.45 0.5 14.5 0.7 14.5 0.7 14.55 0.8 14.65 0.9 14.65 0.9 14.7 1.0 14.7 1.05 14.7 1.15 14.75 1.25 14.75 1.25 14.75 1.35 14.75 1.45 14.75 1.55 14.75 1.65 14.7 1.75 14.7 1.8 14.7 1.9 14.7 2.0 14.7 2.0 14.65 2.1 14.55 2.2 14.5 2.4 14.5 2.4 14.5 2.5 14.4 2.55 14.35 2.65 14.25 2.75 14.05 2.95 13.85 3.1 13.65 3.3 13.4 3.5 13.15 3.65 12.9 3.7 12.5 3.75 11.95 3.9 12.0 4.05 12.0 4.25 12.0 4.4 13.9 4.3 14.2 4.3 14.4 4.3 14.6 4.3 14.8 4.3 15.2 4.3 15.6 4.35 15.9 4.4 16.0 4.4 16.1 4.4 16.25 4.4 16.35 4.4 16.45 4.5 16.55 4.5 16.75 4.6 16.85 4.6 16.85 4.6 16.85 4.6 17.15 4.7 17.25 4.7 17.35 4.7 17.45 4.8 17.55 4.9 17.55 4.9 17.65 5.0 17.75 5.05 17.95 5.25 18.0 5.35 18.0 5.45 18.15 5.65 18.15 5.65 18.2 5.8 18.25 6.0 18.25 6.1 18.25 6.2 18.25 6.4 18.25 6.55 18.25 6.65 18.25 6.75 18.2 6.95 18.15 7.15 18.0 7.3 17.95 7.5 17.95 7.5 17.85 7.6 17.75 7.7 17.65 7.9 17.65 7.9 17.4 8.05 17.4 8.05 17.4 8.05 17.35 8.05 17.35 8.15 17.25 8.25 17.15 8.25 17.05 8.35 16.85 8.45 16.75 8.45 16.55 8.55 16.5 8.55 16.4 8.65 16.15 8.7 15.95 8.75 15.75 8.75 15.25 8.75 15.15 8.75 15.05 8.75 14.95 8.75 14.95 8.75 14.85 8.75 14.75 8.75 14.65 8.75 14.65 8.75 14.55 8.75 14.45 8.75 14.35 8.75 14.25 8.75 14.15 8.75 14.05 8.75 13.95 8.75 13.85 8.75 13.65 8.75 13.35 8.75 13.05 8.75 11.85 8.75 11.25 8.75 11.15 8.75 11.0 8.7 10.9 8.7 10.9 8.7 10.8 8.7 10.7 8.7 10.6 8.65 10.6 8.65 10.6 8.65 10.5 8.65 10.4 8.65 10.2 8.55 10.2 8.65 10.1 8.65 10.0 8.75 10.0 8.75 10.0 8.75 9.9 8.85 9.7 8.95 9.4 9.15 9.3 9.25 9.2 9.35 9.1 9.45 8.9 9.55 8.45 9.65 Q6.15 10.75 3.65 11.2 L3.25 11.25 3.05 11.25 2.85 11.25 2.75 11.25 2.55 11.25 2.05 11.25 1.75 11.25 1.65 11.25 1.45 11.25 Q1.35 11.25 1.25 11.3 L1.15 11.3 1.05 11.3 1.05 11.3 0.95 11.3 0.85 11.3 0.65 11.4 0.5 11.5 0.15 11.6 -0.05 11.7 0.15 11.9 0.45 12.05 0.75 12.25 0.8 12.35 0.9 12.45 0.9 12.45 0.9 12.55 1.0 12.65 1.0 12.65 1.05 12.75 1.05 12.8 1.1 12.9 1.2 13.0 1.2 13.0 1.2 13.1 1.2 13.2 1.2 13.2 1.2 13.3 1.25 13.4 1.25 13.4 1.25 13.55 1.25 13.65 1.25 13.75 1.25 13.85 1.2 13.95 1.2 13.95 1.2 14.05 1.15 14.15 1.1 14.2 1.0 14.3 1.0 14.3 0.95 14.5 0.95 14.5 0.95 14.6 0.85 14.7 0.75 14.7 0.75 14.7 0.55 14.9 0.55 14.9 0.35 15.0 0.25 15.05 -0.15 15.15 -0.25 15.15 -0.5 15.25 -1.3 15.0 -1.4 15.0 -1.7 14.9 -2.0 14.8 -2.1 14.8 -2.4 14.7 -3.75 14.3 Q-5.25 13.75 -6.8 13.2 L-7.0 13.1 -7.2 13.0 -7.4 12.9 -7.5 12.9 -7.8 12.8 -7.8 12.8 -7.9 12.8 -8.3 12.65 -8.95 12.4 Q-11.0 11.55 -12.85 10.4 L-13.05 10.2 -13.2 10.05 -13.5 10.0 -13.75 9.95 -13.85 9.95 -13.9 9.95 -14.1 9.9 -14.1 9.9 -14.3 9.95 -14.5 9.95 -14.5 10.05 -14.6 10.05 -14.6 10.15 -14.7 10.15 -14.75 10.2 -14.75 10.3 -14.85 10.3 -14.85 10.4 -14.95 10.5 -15.05 10.5 -15.05 10.5 -15.05 10.6 -15.25 10.7 -15.35 10.8 -15.45 10.9 -15.45 10.9 -15.65 11.0 -15.75 11.05 -15.85 11.1 -16.15 11.15 -16.15 11.15 -16.35 11.25 -16.5 11.25 -16.75 11.25 -17.0 11.15 -17.1 11.15 -17.5 11.05 -17.85 10.9 -18.05 10.7 -18.1 10.6 -18.2 10.5 -18.2 10.5 -18.3 10.3 -18.35 10.25 -18.45 10.15 -18.45 9.95 -18.5 9.75 -18.5 9.55 -18.5 9.4 -18.75 9.2 -19.0 9.0 -19.1 8.8 -19.1 8.8 -19.3 8.65 -19.35 8.45 -19.5 8.25 -19.7 8.05 -19.85 7.9 -20.0 7.7 -20.1 7.5 -20.15 7.4 -20.25 7.3 -20.35 7.15 -20.5 6.95 -20.6 6.75 -20.6 6.75 -20.7 6.55 -20.7 6.5 -20.8 6.4 -20.85 6.2 -21.0 6.0 -21.05 5.8 -21.1 5.75 -21.2 5.65 -21.2 5.55 -21.25 5.45 -21.25 5.35 -21.3 5.25 -21.3 5.15 -21.35 5.05 -21.35 5.0 -21.45 4.9 -21.45 4.8 -21.5 4.7 -21.5 4.6 -21.5 2.25 M-18.0 2.95 L-17.95 2.85 -17.6 2.5 -17.5 2.5 -17.45 2.5 -17.45 2.4 -17.35 2.4 -17.25 2.4 -17.25 2.3 -17.15 2.3 -17.05 2.3 -16.95 2.3 -16.85 2.3 -16.45 2.3 -15.95 2.35 -15.85 2.4 -15.85 2.5 -15.75 2.7 -15.6 2.9 -15.6 3.05 -15.7 3.25 -15.75 3.45 -15.75 3.65 -15.75 4.0 -15.75 4.4 -15.75 4.55 -15.75 4.65 -15.75 4.75 -15.75 4.75 -15.8 4.85 -16.0 4.95 -16.0 4.95 -16.1 4.95 -16.2 5.05 -16.3 5.15 -16.35 5.15 -16.45 5.15 -16.65 5.25 -16.75 5.3 -16.75 5.3 -16.85 5.35 -16.95 5.45 -17.0 5.45 -17.1 5.45 -17.1 5.45 -17.2 5.45 -17.3 5.4 -17.45 5.2 -17.55 5.0 -17.6 4.8 -17.75 4.65 -17.8 4.45 -17.85 4.25 -17.95 4.05 -18.0 3.9 -18.0 3.7 -18.0 3.5 -18.0 3.3 -18.0 3.15 -18.0 2.95 -18.0 2.95 M-9.3 -1.15 L-8.0 -1.15 -9.3 -1.15 M-2.8 6.65 L-2.7 6.45 -2.25 5.5 -2.05 4.95 -2.0 4.55 -2.0 4.2 -2.0 4.0 -2.05 3.8 -2.1 3.65 -2.25 3.45 -1.75 3.3 -1.15 3.3 0.75 3.25 0.95 3.25 1.35 3.2 1.45 3.2 1.95 3.15 2.15 3.15 2.55 3.15 2.8 3.2 2.9 3.2 3.25 3.25 3.55 3.3 3.15 3.6 2.95 3.8 1.9 4.55 1.5 4.8 0.95 5.3 0.85 5.45 0.45 5.85 0.15 5.9 -0.75 6.1 -1.4 6.3 -1.5 6.3 -1.6 6.4 -1.75 6.5 -2.15 6.6 -2.8 6.65 M1.8 -3.95 L2.0 -4.0 3.25 -3.5 3.25 -2.95 3.4 -2.55 3.4 -2.45 3.4 -2.4 3.3 -2.35 3.1 -2.55 3.0 -2.55 2.7 -2.65 2.6 -2.65 2.25 -2.75 1.95 -2.85 2.0 -3.0 2.0 -3.2 2.0 -3.35 1.95 -3.55 1.95 -3.75 1.8 -3.95 1.8 -3.95 2.0 -4.0 3.05 -3.6 3.25 -3.2 3.3 -2.75 3.4 -2.65 3.4 -2.55 3.4 -2.5 3.4 -2.4 3.4 -2.35 3.3 -2.35 3.2 -2.45 3.1 -2.45 3.0 -2.55 2.8 -2.55 2.6 -2.65 2.25 -2.75 1.95 -2.85 2.0 -3.0 2.0 -3.2 2.0 -3.35 1.95 -3.55 1.95 -3.75 1.8 -3.95 1.8 -3.95 1.8 -3.95 2.2 -3.95 2.4 -3.85 2.5 -3.85 2.6 -3.85 2.7 -3.85 2.8 -3.8 2.9 -3.7 2.95 -3.7 2.95 -3.7 2.95 -3.7 2.95 -3.7 2.95 -3.7 3.05 -3.7 3.25 -3.5 3.25 -3.5 3.25 -3.5 3.25 -3.5 3.25 -3.4 3.25 -3.3 3.25 -3.3 3.25 -3.2 3.25 -3.1 3.25 -3.1 3.25 -3.1 3.25 -3.0 3.25 -2.95 3.25 -2.85 3.3 -2.75 3.3 -2.75 3.3 -2.75 3.3 -2.75 3.4 -2.55 3.4 -2.4 3.4 -2.35 3.3 -2.35 3.3 -2.35 3.2 -2.45 3.0 -2.55 3.0 -2.55 3.0 -2.55 2.9 -2.55 2.8 -2.55 2.6 -2.65 2.6 -2.65 2.6 -2.65 2.6 -2.65 2.6 -2.65 2.6 -2.65 2.6 -2.65 2.6 -2.65 2.25 -2.75 2.25 -2.75 1.95 -2.85 1.95 -2.85 2.0 -3.0 2.0 -3.2 2.0 -3.35 1.95 -3.55 1.95 -3.75 1.8 -3.95 1.8 -3.95 Z" fill="none" stroke="#000000" stroke-linecap="round" stroke-linejoin="round" stroke-opacity="0.0" stroke-width="0.0">
      <animate attributeName="stroke" dur="2s" repeatCount="indefinite" values="#000000;#000001"/>
      <animate attributeName="stroke-width" dur="2s" repeatCount="indefinite" values="0.0;0.0"/>
      <animate attributeName="fill-opacity" dur="2s" repeatCount="indefinite" values="0.0;0.0"/>
      <animate attributeName="d" dur="2s" repeatCount="indefinite" values="M-21.5 2.25 L-21.45 2.15 -21.45 2.05 -21.45 2.05 -21.45 2.0 -21.45 1.9 -21.4 1.8 -21.3 1.7 -21.3 1.7 -21.25 1.6 -21.25 1.5 -21.2 1.3 -21.1 1.15 -21.05 0.95 -21.0 0.75 -20.85 0.55 -20.85 0.5 -20.8 0.4 -20.6 0.2 -20.5 0.0 -20.25 -0.2 -19.85 -0.35 -19.5 -0.55 -19.1 -0.65 -19.0 -0.75 -18.25 -1.05 -18.1 -1.1 -18.0 -1.1 -17.5 -1.2 -16.9 -1.2 -16.8 -1.2 -16.7 -1.2 -16.6 -1.2 -16.4 -1.2 -16.25 -1.2 -15.95 -1.2 -15.75 -1.2 -15.45 -1.25 -15.25 -1.25 -15.15 -1.25 -14.95 -1.35 -14.85 -1.35 -14.75 -1.45 -14.7 -1.55 -14.6 -1.65 -14.5 -1.75 -14.4 -1.85 -14.35 -1.95 -14.35 -2.0 -14.3 -2.1 -14.2 -2.1 -14.2 -2.2 -14.1 -2.2 -14.1 -2.3 -14.1 -2.4 -14.0 -2.4 -14.0 -2.5 -14.0 -2.5 -13.9 -2.6 -13.85 -2.6 -13.75 -2.7 -13.75 -2.7 -13.7 -2.75 -13.7 -2.85 -13.65 -2.95 -13.55 -3.05 -13.55 -3.15 -13.45 -3.25 -13.3 -3.45 -13.1 -3.6 -13.0 -3.6 -12.8 -3.8 -12.6 -4.0 -12.5 -4.2 -12.3 -4.35 -12.2 -4.45 -12.2 -4.55 -12.0 -4.75 -11.85 -4.95 -11.75 -5.1 -11.75 -5.1 -11.55 -5.3 -11.45 -5.5 -11.25 -5.7 -11.1 -5.85 -10.95 -6.05 -10.75 -6.25 -10.75 -6.25 -10.65 -6.25 -10.55 -6.35 -10.55 -6.35 -10.55 -6.45 -10.35 -6.6 -10.2 -6.8 -10.2 -6.8 -10.0 -6.9 -9.85 -7.0 -9.85 -7.0 -9.6 -7.1 -9.5 -7.1 -9.4 -7.1 -9.35 -7.2 -9.2 -7.2 -9.1 -7.2 -9.0 -7.2 -9.0 -7.2 -9.0 -7.25 -8.9 -7.25 -8.8 -7.25 -8.75 -7.25 -8.75 -7.25 -8.6 -7.35 -8.45 -7.45 -8.25 -7.55 -8.25 -7.55 -8.15 -7.55 -8.05 -7.65 -7.85 -7.75 -7.85 -7.75 -7.6 -7.85 -7.45 -7.85 -7.35 -7.95 -7.0 -7.95 -7.0 -8.0 -4.1 -7.95 -3.8 -7.95 -3.4 -7.95 -2.9 -7.95 -2.0 -7.85 -1.75 -7.85 -1.65 -7.85 -1.55 -7.85 -1.45 -7.85 -1.35 -7.85 -1.25 -7.85 -1.25 -7.85 -1.25 -7.85 -1.15 -7.85 1.4 -7.65 Q3.3 -7.45 5.0 -6.55 L5.25 -6.45 5.35 -6.35 5.65 -6.25 5.75 -6.2 5.75 -6.2 5.8 -6.2 5.9 -6.1 6.0 -6.0 6.0 -6.0 6.0 -6.0 6.1 -5.9 6.2 -5.8 6.3 -5.8 6.3 -5.8 6.3 -5.8 6.4 -5.7 6.6 -5.6 6.65 -5.6 6.75 -5.6 6.95 -5.45 6.95 -5.45 7.05 -5.35 7.25 -5.25 7.25 -5.25 7.4 -5.05 7.4 -4.95 7.5 -4.85 7.65 -4.75 7.75 -4.7 8.05 -4.55 8.05 -4.55 8.15 -4.55 8.25 -4.55 8.35 -4.55 8.4 -4.55 8.5 -4.5 8.5 -4.5 8.55 -4.5 8.65 -4.5 8.75 -4.5 8.85 -4.4 8.85 -4.4 8.95 -4.4 9.15 -4.3 9.25 -4.3 9.25 -4.3 9.35 -4.2 9.55 -4.1 9.55 -4.1 9.65 -4.05 9.8 -3.95 9.8 -3.95 9.95 -3.75 10.05 -3.55 10.15 -3.35 10.25 -3.2 10.35 -3.1 10.45 -3.0 10.5 -2.8 10.65 -2.6 10.7 -2.5 10.7 -2.5 10.9 -2.5 11.75 -2.5 12.1 -2.4 12.5 -2.3 12.8 -2.1 13.0 -1.95 13.2 -1.75 13.25 -1.55 13.4 -1.35 13.45 -1.2 13.5 -1.0 13.5 -0.8 13.5 -0.6 13.45 -0.45 13.45 -0.25 13.75 -0.05 14.05 0.15 14.05 0.15 14.25 0.3 14.25 0.3 14.45 0.5 14.45 0.5 14.5 0.7 14.5 0.7 14.55 0.8 14.65 0.9 14.65 0.9 14.7 1.0 14.7 1.05 14.7 1.15 14.75 1.25 14.75 1.25 14.75 1.35 14.75 1.45 14.75 1.55 14.75 1.65 14.7 1.75 14.7 1.8 14.7 1.9 14.7 2.0 14.7 2.0 14.65 2.1 14.55 2.2 14.5 2.4 14.5 2.4 14.5 2.5 14.4 2.55 14.35 2.65 14.25 2.75 14.05 2.95 13.85 3.1 13.65 3.3 13.4 3.5 13.15 3.65 12.9 3.7 12.5 3.75 11.95 3.9 12.0 4.05 12.0 4.25 12.0 4.4 13.9 4.3 14.2 4.3 14.4 4.3 14.6 4.3 14.8 4.3 15.2 4.3 15.6 4.35 15.9 4.4 16.0 4.4 16.1 4.4 16.25 4.4 16.35 4.4 16.45 4.5 16.55 4.5 16.75 4.6 16.85 4.6 16.85 4.6 16.85 4.6 17.15 4.7 17.25 4.7 17.35 4.7 17.45 4.8 17.55 4.9 17.55 4.9 17.65 5.0 17.75 5.05 17.95 5.25 18.0 5.35 18.0 5.45 18.15 5.65 18.15 5.65 18.2 5.8 18.25 6.0 18.25 6.1 18.25 6.2 18.25 6.4 18.25 6.55 18.25 6.65 18.25 6.75 18.2 6.95 18.15 7.15 18.0 7.3 17.95 7.5 17.95 7.5 17.85 7.6 17.75 7.7 17.65 7.9 17.65 7.9 17.4 8.05 17.4 8.05 17.4 8.05 17.35 8.05 17.35 8.15 17.25 8.25 17.15 8.25 17.05 8.35 16.85 8.45 16.75 8.45 16.55 8.55 16.5 8.55 16.4 8.65 16.15 8.7 15.95 8.75 15.75 8.75 15.25 8.75 15.15 8.75 15.05 8.75 14.95 8.75 14.95 8.75 14.85 8.75 14.75 8.75 14.65 8.75 14.65 8.75 14.55 8.75 14.45 8.75 14.35 8.75 14.25 8.75 14.15 8.75 14.05 8.75 13.95 8.75 13.85 8.75 13.65 8.75 13.35 8.75 13.05 8.75 11.85 8.75 11.25 8.75 11.15 8.75 11.0 8.7 10.9 8.7 10.9 8.7 10.8 8.7 10.7 8.7 10.6 8.65 10.6 8.65 10.6 8.65 10.5 8.65 10.4 8.65 10.2 8.55 10.2 8.65 10.1 8.65 10.0 8.75 10.0 8.75 10.0 8.75 9.9 8.85 9.7 8.95 9.4 9.15 9.3 9.25 9.2 9.35 9.1 9.45 8.9 9.55 8.45 9.65 Q6.15 10.75 3.65 11.2 L3.25 11.25 3.05 11.25 2.85 11.25 2.75 11.25 2.55 11.25 2.05 11.25 1.75 11.25 1.65 11.25 1.45 11.25 Q1.35 11.25 1.25 11.3 L1.15 11.3 1.05 11.3 1.05 11.3 0.95 11.3 0.85 11.3 0.65 11.4 0.5 11.5 0.15 11.6 -0.05 11.7 0.15 11.9 0.45 12.05 0.75 12.25 0.8 12.35 0.9 12.45 0.9 12.45 0.9 12.55 1.0 12.65 1.0 12.65 1.05 12.75 1.05 12.8 1.1 12.9 1.2 13.0 1.2 13.0 1.2 13.1 1.2 13.2 1.2 13.2 1.2 13.3 1.25 13.4 1.25 13.4 1.25 13.55 1.25 13.65 1.25 13.75 1.25 13.85 1.2 13.95 1.2 13.95 1.2 14.05 1.15 14.15 1.1 14.2 1.0 14.3 1.0 14.3 0.95 14.5 0.95 14.5 0.95 14.6 0.85 14.7 0.75 14.7 0.75 14.7 0.55 14.9 0.55 14.9 0.35 15.0 0.25 15.05 -0.15 15.15 -0.25 15.15 -0.5 15.25 -1.3 15.0 -1.4 15.0 -1.7 14.9 -2.0 14.8 -2.1 14.8 -2.4 14.7 -3.75 14.3 Q-5.25 13.75 -6.8 13.2 L-7.0 13.1 -7.2 13.0 -7.4 12.9 -7.5 12.9 -7.8 12.8 -7.8 12.8 -7.9 12.8 -8.3 12.65 -8.95 12.4 Q-11.0 11.55 -12.85 10.4 L-13.05 10.2 -13.2 10.05 -13.5 10.0 -13.75 9.95 -13.85 9.95 -13.9 9.95 -14.1 9.9 -14.1 9.9 -14.3 9.95 -14.5 9.95 -14.5 10.05 -14.6 10.05 -14.6 10.15 -14.7 10.15 -14.75 10.2 -14.75 10.3 -14.85 10.3 -14.85 10.4 -14.95 10.5 -15.05 10.5 -15.05 10.5 -15.05 10.6 -15.25 10.7 -15.35 10.8 -15.45 10.9 -15.45 10.9 -15.65 11.0 -15.75 11.05 -15.85 11.1 -16.15 11.15 -16.15 11.15 -16.35 11.25 -16.5 11.25 -16.75 11.25 -17.0 11.15 -17.1 11.15 -17.5 11.05 -17.85 10.9 -18.05 10.7 -18.1 10.6 -18.2 10.5 -18.2 10.5 -18.3 10.3 -18.35 10.25 -18.45 10.15 -18.45 9.95 -18.5 9.75 -18.5 9.55 -18.5 9.4 -18.75 9.2 -19.0 9.0 -19.1 8.8 -19.1 8.8 -19.3 8.65 -19.35 8.45 -19.5 8.25 -19.7 8.05 -19.85 7.9 -20.0 7.7 -20.1 7.5 -20.15 7.4 -20.25 7.3 -20.35 7.15 -20.5 6.95 -20.6 6.75 -20.6 6.75 -20.7 6.55 -20.7 6.5 -20.8 6.4 -20.85 6.2 -21.0 6.0 -21.05 5.8 -21.1 5.75 -21.2 5.65 -21.2 5.55 -21.25 5.45 -21.25 5.35 -21.3 5.25 -21.3 5.15 -21.35 5.05 -21.35 5.0 -21.45 4.9 -21.45 4.8 -21.5 4.7 -21.5 4.6 -21.5 2.25 M-18.0 2.95 L-17.95 2.85 -17.6 2.5 -17.5 2.5 -17.45 2.5 -17.45 2.4 -17.35 2.4 -17.25 2.4 -17.25 2.3 -17.15 2.3 -17.05 2.3 -16.95 2.3 -16.85 2.3 -16.45 2.3 -15.95 2.35 -15.85 2.4 -15.85 2.5 -15.75 2.7 -15.6 2.9 -15.6 3.05 -15.7 3.25 -15.75 3.45 -15.75 3.65 -15.75 4.0 -15.75 4.4 -15.75 4.55 -15.75 4.65 -15.75 4.75 -15.75 4.75 -15.8 4.85 -16.0 4.95 -16.0 4.95 -16.1 4.95 -16.2 5.05 -16.3 5.15 -16.35 5.15 -16.45 5.15 -16.65 5.25 -16.75 5.3 -16.75 5.3 -16.85 5.35 -16.95 5.45 -17.0 5.45 -17.1 5.45 -17.1 5.45 -17.2 5.45 -17.3 5.4 -17.45 5.2 -17.55 5.0 -17.6 4.8 -17.75 4.65 -17.8 4.45 -17.85 4.25 -17.95 4.05 -18.0 3.9 -18.0 3.7 -18.0 3.5 -18.0 3.3 -18.0 3.15 -18.0 2.95 -18.0 2.95 M-9.3 -1.15 L-8.0 -1.15 -9.3 -1.15 M-2.8 6.65 L-2.7 6.45 -2.25 5.5 -2.05 4.95 -2.0 4.55 -2.0 4.2 -2.0 4.0 -2.05 3.8 -2.1 3.65 -2.25 3.45 -1.75 3.3 -1.15 3.3 0.75 3.25 0.95 3.25 1.35 3.2 1.45 3.2 1.95 3.15 2.15 3.15 2.55 3.15 2.8 3.2 2.9 3.2 3.25 3.25 3.55 3.3 3.15 3.6 2.95 3.8 1.9 4.55 1.5 4.8 0.95 5.3 0.85 5.45 0.45 5.85 0.15 5.9 -0.75 6.1 -1.4 6.3 -1.5 6.3 -1.6 6.4 -1.75 6.5 -2.15 6.6 -2.8 6.65 M1.8 -3.95 L2.0 -4.0 3.25 -3.5 3.25 -2.95 3.4 -2.55 3.4 -2.45 3.4 -2.4 3.3 -2.35 3.1 -2.55 3.0 -2.55 2.7 -2.65 2.6 -2.65 2.25 -2.75 1.95 -2.85 2.0 -3.0 2.0 -3.2 2.0 -3.35 1.95 -3.55 1.95 -3.75 1.8 -3.95 1.8 -3.95 2.0 -4.0 3.05 -3.6 3.25 -3.2 3.3 -2.75 3.4 -2.65 3.4 -2.55 3.4 -2.5 3.4 -2.4 3.4 -2.35 3.3 -2.35 3.2 -2.45 3.1 -2.45 3.0 -2.55 2.8 -2.55 2.6 -2.65 2.25 -2.75 1.95 -2.85 2.0 -3.0 2.0 -3.2 2.0 -3.35 1.95 -3.55 1.95 -3.75 1.8 -3.95 1.8 -3.95 1.8 -3.95 2.2 -3.95 2.4 -3.85 2.5 -3.85 2.6 -3.85 2.7 -3.85 2.8 -3.8 2.9 -3.7 2.95 -3.7 2.95 -3.7 2.95 -3.7 2.95 -3.7 2.95 -3.7 3.05 -3.7 3.25 -3.5 3.25 -3.5 3.25 -3.5 3.25 -3.5 3.25 -3.4 3.25 -3.3 3.25 -3.3 3.25 -3.2 3.25 -3.1 3.25 -3.1 3.25 -3.1 3.25 -3.0 3.25 -2.95 3.25 -2.85 3.3 -2.75 3.3 -2.75 3.3 -2.75 3.3 -2.75 3.4 -2.55 3.4 -2.4 3.4 -2.35 3.3 -2.35 3.3 -2.35 3.2 -2.45 3.0 -2.55 3.0 -2.55 3.0 -2.55 2.9 -2.55 2.8 -2.55 2.6 -2.65 2.6 -2.65 2.6 -2.65 2.6 -2.65 2.6 -2.65 2.6 -2.65 2.6 -2.65 2.6 -2.65 2.25 -2.75 2.25 -2.75 1.95 -2.85 1.95 -2.85 2.0 -3.0 2.0 -3.2 2.0 -3.35 1.95 -3.55 1.95 -3.75 1.8 -3.95 1.8 -3.95 Z;M-2.0 -18.05 L-1.95 -18.25 -1.85 -18.45 -1.85 -18.45 -1.8 -18.6 -1.7 -18.6 -1.6 -18.8 -1.5 -19.0 -1.4 -19.1 -1.25 -19.2 -1.15 -19.2 -0.65 -19.45 -0.15 -19.7 0.25 -19.8 0.65 -19.9 1.15 -20.05 1.25 -20.15 1.45 -20.25 2.15 -20.45 2.75 -20.55 3.65 -20.75 4.75 -20.95 5.7 -21.15 6.4 -21.35 6.7 -21.4 8.15 -21.6 8.45 -21.7 8.65 -21.7 9.9 -21.9 10.9 -22.15 11.0 -22.15 11.0 -22.3 11.0 -22.5 11.05 -22.7 11.05 -22.85 11.2 -23.05 11.3 -23.25 11.45 -23.45 11.65 -23.6 11.8 -23.8 12.15 -24.0 12.35 -24.1 12.55 -24.2 12.75 -24.25 13.05 -24.35 13.35 -24.45 13.55 -24.55 13.65 -24.65 13.75 -24.75 13.7 -24.95 13.55 -25.1 13.55 -25.3 13.5 -25.5 13.5 -25.7 13.5 -25.85 13.5 -26.05 13.55 -26.15 13.55 -26.25 13.65 -26.45 13.7 -26.6 13.9 -26.8 13.9 -26.8 14.0 -27.0 14.1 -27.1 14.25 -27.2 14.5 -27.3 14.65 -27.35 15.0 -27.45 15.7 -27.65 16.4 -27.85 16.5 -27.85 17.2 -28.05 17.9 -28.25 18.5 -28.4 19.2 -28.6 19.4 -28.65 19.6 -28.7 20.3 -28.9 20.8 -29.0 21.05 -29.05 21.15 -29.05 21.85 -29.15 22.4 -29.25 23.1 -29.35 23.7 -29.45 24.3 -29.55 24.8 -29.65 24.95 -29.65 25.15 -29.7 25.5 -29.7 25.5 -29.75 25.7 -29.75 26.4 -29.75 27.0 -29.75 27.0 -29.75 27.35 -29.65 27.75 -29.55 27.75 -29.55 28.05 -29.35 28.25 -29.2 28.45 -29.0 28.5 -28.8 28.65 -28.6 28.7 -28.45 28.75 -28.25 28.75 -28.15 28.75 -28.05 28.75 -27.85 28.7 -27.7 28.65 -27.5 28.65 -27.35 29.15 -27.3 29.45 -27.3 29.75 -27.4 29.85 -27.4 30.0 -27.45 30.3 -27.5 30.55 -27.55 30.75 -27.55 31.15 -27.7 31.5 -27.75 31.8 -27.75 32.4 -27.75 32.5 -27.75 37.5 -27.75 37.9 -27.7 38.5 -27.55 39.4 -27.4 41.0 -27.05 41.3 -26.85 41.5 -26.7 41.7 -26.5 41.75 -26.3 41.9 -26.1 41.95 -25.95 42.0 -25.75 42.0 -25.55 42.0 -25.35 46.4 -25.3 Q49.8 -25.25 53.2 -25.15 L53.65 -25.15 54.0 -25.05 54.3 -24.85 54.5 -24.7 54.6 -24.6 54.7 -24.5 54.75 -24.3 54.9 -24.1 54.95 -23.95 55.0 -23.75 55.0 -23.55 55.0 -23.35 55.0 -23.2 55.0 -23.0 55.0 -22.9 54.95 -22.8 54.9 -22.6 54.75 -22.45 54.75 -22.45 54.7 -22.25 54.6 -22.15 54.5 -22.05 54.3 -21.85 54.3 -21.8 54.6 -21.65 54.6 -21.65 54.85 -21.55 55.05 -21.55 55.35 -21.45 55.95 -21.15 56.05 -21.1 56.25 -21.0 56.4 -20.8 56.5 -20.6 56.55 -20.45 56.7 -20.25 56.7 -20.15 56.7 -20.05 56.75 -19.85 56.75 -19.7 56.75 -19.5 56.7 -19.4 56.7 -19.3 56.65 -19.1 56.5 -18.95 56.5 -18.85 56.45 -18.75 56.25 -18.55 56.25 -18.45 56.15 -18.35 55.95 -18.2 55.95 -18.15 55.75 -17.95 55.55 -17.85 55.25 -17.6 55.15 -17.5 55.05 -17.45 54.8 -17.25 54.5 -17.0 54.3 -16.9 54.0 -16.7 53.95 -16.65 53.75 -16.55 55.25 -16.55 55.95 -16.55 56.65 -16.55 57.35 -16.55 57.75 -16.55 58.15 -16.55 58.55 -16.55 58.95 -16.55 59.15 -16.55 59.55 -16.55 59.9 -16.55 60.3 -16.55 60.7 -16.55 61.1 -16.55 61.8 -16.5 62.0 -16.5 62.1 -16.5 62.35 -16.4 62.45 -16.4 62.75 -16.3 62.85 -16.2 63.05 -16.1 63.15 -16.0 63.25 -15.95 63.45 -15.75 63.5 -15.65 63.5 -15.55 63.6 -15.45 63.65 -15.35 63.7 -15.2 63.75 -15.0 63.75 -14.8 63.75 -14.6 63.7 -14.45 63.7 -14.25 63.55 -14.05 63.55 -13.95 63.5 -13.85 63.4 -13.7 63.4 -13.6 63.25 -13.5 63.15 -13.4 62.95 -13.3 62.85 -13.3 62.75 -13.2 62.6 -13.15 62.4 -13.05 62.0 -13.0 61.3 -13.0 60.6 -13.0 59.9 -13.0 59.0 -13.0 58.3 -13.0 57.8 -13.0 57.1 -13.0 55.85 -13.0 55.65 -13.0 55.35 -13.0 55.15 -13.0 51.75 -13.0 51.4 -13.05 51.15 -13.1 50.9 -13.2 50.65 -13.25 50.0 -13.45 49.55 -13.3 49.4 -13.1 49.45 -12.95 49.5 -12.75 49.5 -12.55 49.5 -12.35 49.45 -12.2 49.45 -12.0 49.3 -11.8 49.25 -11.6 49.15 -11.45 49.0 -11.25 48.7 -11.05 48.6 -10.95 48.5 -10.95 48.35 -10.9 48.15 -10.8 47.95 -10.8 47.75 -10.75 47.55 -10.7 47.25 -10.6 47.15 -10.6 46.95 -10.55 46.75 -10.45 46.65 -10.45 46.5 -10.35 46.2 -10.25 46.0 -10.25 45.8 -10.2 45.5 -10.1 45.3 -10.1 45.25 -10.1 45.05 -10.1 44.5 -10.0 44.0 -10.0 43.5 -10.0 43.0 -10.0 42.9 -10.0 42.65 -10.1 42.25 -10.2 41.95 -10.35 41.85 -10.35 41.2 -10.3 41.2 -10.3 41.1 -10.3 41.0 -10.2 40.85 -10.15 40.65 -10.05 40.45 -9.95 40.25 -9.95 40.0 -9.75 39.7 -9.6 39.3 -9.4 39.2 -9.4 38.9 -9.25 38.4 -9.05 37.9 -8.9 37.7 -8.8 36.75 -8.45 36.75 -8.25 36.9 -8.05 37.0 -7.85 37.05 -7.7 37.2 -7.5 37.2 -7.3 37.25 -7.1 37.25 -6.95 37.25 -6.75 37.25 -6.55 37.25 -6.35 37.2 -6.2 37.2 -6.0 37.05 -5.8 37.0 -5.6 36.9 -5.45 36.75 -5.25 36.45 -5.05 36.15 -4.85 38.25 -4.7 38.8 -4.55 39.0 -4.55 39.3 -4.35 39.4 -4.25 39.5 -4.2 39.7 -4.0 39.75 -3.8 39.85 -3.7 39.9 -3.6 39.95 -3.45 40.0 -3.25 40.0 -3.05 40.0 -2.85 39.95 -2.7 39.95 -2.5 39.8 -2.3 39.8 -2.2 39.75 -2.1 39.65 -1.95 39.5 -1.75 39.2 -1.55 39.0 -1.45 38.85 -1.4 38.65 -1.3 38.25 -1.25 37.65 -1.25 Q33.55 -1.25 29.45 -1.2 L28.75 -1.2 28.25 -1.2 27.95 -1.1 27.65 -1.05 27.25 -1.0 26.25 -1.0 26.15 -1.0 25.9 -1.1 25.5 -1.2 Q25.3 -1.3 25.15 -1.35 L24.95 -1.55 24.9 -1.65 24.8 -1.75 24.7 -1.95 24.55 -2.1 24.0 -2.25 23.9 -2.25 22.9 -2.35 22.5 -2.35 22.2 -2.4 21.7 -2.5 21.05 -2.65 20.65 -2.85 20.45 -3.05 20.4 -3.15 20.3 -3.25 20.2 -3.45 20.15 -3.5 20.05 -3.6 20.05 -3.7 20.05 -3.8 20.0 -4.0 20.0 -4.1 20.0 -4.2 20.0 -4.35 20.0 -4.45 20.0 -4.55 20.0 -4.75 20.0 -4.85 20.05 -4.95 20.05 -5.1 20.15 -5.2 20.2 -5.3 20.3 -5.5 20.35 -5.5 20.45 -5.7 20.55 -5.8 20.65 -5.85 20.8 -6.05 20.9 -6.05 21.15 -6.25 21.25 -6.25 21.4 -6.35 21.65 -6.45 22.0 -6.5 22.0 -6.5 22.55 -6.6 22.65 -6.6 23.0 -6.8 23.1 -6.9 24.2 -7.3 24.45 -7.4 24.95 -7.55 26.4 -8.0 26.4 -8.2 25.85 -8.35 25.3 -8.55 25.0 -8.6 24.45 -8.5 21.95 -7.7 Q19.2 -6.7 16.25 -6.75 L15.9 -6.85 15.5 -6.95 15.15 -7.1 14.95 -7.3 14.9 -7.4 14.8 -7.5 14.7 -7.7 14.1 -7.8 12.9 -7.9 Q9.15 -7.95 5.35 -8.0 L5.05 -8.0 4.85 -8.0 4.35 -8.0 3.75 -8.0 3.6 -8.0 3.4 -8.1 3.1 -8.2 3.0 -8.2 2.65 -8.35 2.45 -8.55 2.3 -8.75 2.2 -8.95 2.05 -9.1 2.05 -9.3 2.0 -9.5 2.0 -9.7 2.0 -9.85 2.0 -10.05 2.05 -10.25 2.15 -10.45 2.15 -10.45 2.2 -10.6 2.4 -10.8 2.5 -11.0 2.75 -11.2 2.75 -11.2 3.0 -11.3 3.15 -11.35 3.4 -11.45 3.95 -11.55 4.05 -11.65 4.35 -11.75 4.65 -11.85 5.05 -12.05 5.55 -12.3 5.65 -12.35 6.35 -12.65 7.05 -13.05 7.25 -13.15 7.45 -13.25 7.55 -13.35 7.65 -13.35 7.45 -13.45 7.3 -13.45 7.1 -13.45 6.8 -13.55 6.5 -13.65 6.2 -13.75 5.9 -13.85 5.6 -13.9 5.3 -14.0 5.0 -14.0 4.6 -14.1 4.4 -14.2 4.1 -14.3 3.8 -14.4 3.5 -14.5 3.2 -14.6 2.9 -14.7 2.6 -14.7 2.1 -14.8 1.9 -14.9 1.6 -15.0 1.3 -15.1 1.0 -15.2 0.8 -15.2 0.55 -15.3 0.35 -15.3 0.15 -15.3 -0.15 -15.4 -0.45 -15.5 -0.75 -15.7 -1.0 -15.8 -1.2 -16.0 -1.45 -16.2 -1.6 -16.35 -1.75 -16.55 -1.85 -16.75 -1.95 -16.95 -2.0 -17.1 -2.0 -17.3 -2.0 -17.5 -2.0 -17.7 -2.0 -17.85 -2.0 -18.05 -2.0 -18.05 M11.25 -11.6 L11.4 -11.8 12.05 -12.75 12.15 -12.95 12.2 -13.1 12.25 -13.3 12.25 -13.5 12.25 -13.7 12.25 -13.75 12.25 -13.85 12.25 -14.05 12.25 -14.25 12.2 -14.35 12.95 -14.5 14.15 -14.3 14.35 -14.3 14.55 -14.3 14.95 -14.2 15.35 -14.1 15.55 -14.1 16.15 -14.0 16.6 -14.0 17.0 -14.0 17.6 -13.9 18.4 -13.8 18.6 -13.8 18.8 -13.8 19.0 -13.7 19.0 -13.6 18.9 -13.5 18.65 -13.35 18.55 -13.3 18.45 -13.2 18.25 -13.0 18.05 -12.8 17.95 -12.7 17.8 -12.65 17.5 -12.45 17.35 -12.25 17.25 -12.25 17.15 -12.05 16.95 -11.85 16.9 -11.7 16.8 -11.6 16.8 -11.5 16.75 -11.3 16.75 -11.2 16.35 -11.2 15.95 -11.2 15.55 -11.2 15.15 -11.2 14.75 -11.2 14.35 -11.2 13.95 -11.2 13.55 -11.3 13.15 -11.4 12.75 -11.4 12.35 -11.4 11.95 -11.5 11.55 -11.6 11.25 -11.6 M11.4 -18.75 L12.35 -18.85 11.4 -18.75 M16.4 -19.7 L16.6 -19.7 17.3 -19.8 17.75 -20.0 17.95 -20.0 18.15 -20.0 18.25 -20.0 18.35 -20.0 18.45 -20.0 18.55 -20.0 18.65 -20.2 18.85 -20.4 19.7 -20.7 19.8 -20.7 19.55 -20.7 19.55 -20.7 19.3 -20.65 19.2 -20.65 19.1 -20.55 19.0 -20.55 19.0 -20.55 18.85 -20.5 18.65 -20.5 18.45 -20.45 18.35 -20.45 18.0 -20.3 17.9 -20.3 17.6 -20.25 17.5 -20.25 17.3 -20.25 17.2 -20.25 16.7 -20.25 16.6 -20.05 16.55 -20.05 16.55 -19.95 16.5 -19.85 16.4 -19.7 16.4 -19.7 M22.5 -24.35 L22.6 -24.4 23.0 -24.6 23.2 -24.6 23.4 -24.75 23.4 -24.75 23.5 -24.7 23.5 -24.7 23.55 -24.55 23.55 -24.45 23.55 -24.35 23.55 -24.35 23.45 -24.35 23.35 -24.35 23.3 -24.35 23.2 -24.35 23.1 -24.35 23.0 -24.35 22.9 -24.35 22.8 -24.35 22.5 -24.35 29.0 -20.2 29.75 -20.55 30.15 -20.75 30.45 -20.85 30.5 -20.95 30.65 -21.0 30.7 -20.95 30.75 -20.8 30.75 -20.8 30.8 -20.7 30.9 -20.6 31.05 -20.45 31.15 -20.35 31.3 -20.25 31.1 -20.25 30.8 -20.25 30.5 -20.15 30.15 -20.15 29.95 -20.15 29.75 -20.15 29.55 -20.15 29.4 -20.05 29.1 -20.05 28.75 -20.05 38.65 -13.85 39.85 -14.7 40.2 -15.05 40.3 -15.25 40.4 -15.45 40.45 -15.6 40.5 -15.8 40.5 -16.0 40.5 -16.2 40.45 -16.35 40.4 -16.55 40.35 -16.7 40.55 -16.8 40.8 -16.95 41.4 -17.05 41.65 -17.1 41.9 -17.25 42.0 -17.35 42.1 -17.45 42.3 -17.6 42.4 -17.7 42.45 -17.8 42.55 -18.0 42.65 -18.2 42.7 -18.35 42.75 -18.55 42.75 -18.75 42.75 -18.95 42.7 -19.1 42.7 -19.15 42.95 -19.2 43.25 -19.2 44.15 -19.0 45.2 -18.8 45.4 -18.8 45.7 -18.75 46.0 -18.65 46.7 -18.4 47.7 -17.95 48.0 -17.85 48.25 -17.7 47.95 -17.5 47.5 -17.3 47.25 -17.1 47.15 -17.1 46.95 -16.95 46.8 -16.75 46.7 -16.55 46.55 -16.35 46.55 -16.2 46.5 -16.0 46.5 -15.8 46.4 -15.6 45.1 -14.95 44.9 -14.85 44.2 -14.45 43.15 -14.0 42.45 -13.9 41.5 -13.8 40.5 -13.8 39.5 -13.7 38.5 -13.7 Z"/>
    </path>
  </g>
</svg>
