<?xml version="1.0" encoding="UTF-8" standalone="no"?>
<svg xmlns:ffdec="https://www.free-decompiler.com/flash" xmlns:xlink="http://www.w3.org/1999/xlink" ffdec:objectType="morphshape" height="53.75px" width="65.15px" xmlns="http://www.w3.org/2000/svg">
  <g transform="matrix(1.0, 0.0, 0.0, 1.0, 367.7, 56.5)">
    <path d="M-362.35 -11.7 Q-350.15 -14.1 -337.9 -13.45 L-335.85 -9.95 Q-328.0 -9.35 -320.15 -8.75 -320.65 -11.1 -324.55 -13.3 -333.85 -18.8 -336.95 -29.35 L-337.7 -33.1 -338.15 -37.25 Q-347.6 -33.75 -354.15 -26.35 -359.85 -19.95 -362.35 -11.7 M-366.85 -6.25 L-366.85 -6.25 -341.55 -9.55 Q-341.3 -8.75 -340.75 -8.45 L-340.55 -8.35 Q-339.65 -7.95 -338.75 -7.6 -326.9 -2.6 -313.15 -3.5 L-312.65 -3.9 -312.05 -4.9 Q-311.45 -6.25 -311.95 -7.65 L-312.35 -8.45 Q-313.2 -9.55 -314.0 -10.65 L-314.3 -11.0 Q-314.35 -11.95 -314.7 -12.7 L-315.2 -13.4 -315.2 -13.4 -315.9 -13.85 -316.15 -14.05 -316.65 -14.3 -317.05 -14.5 -317.25 -14.6 -314.35 -15.0 -312.5 -15.35 -308.8 -16.0 -307.55 -18.4 -307.35 -18.8 -307.55 -19.35 -308.1 -20.0 Q-308.95 -20.85 -309.75 -21.7 L-312.4 -23.75 -314.0 -24.85 -314.55 -25.75 Q-317.15 -28.7 -318.7 -32.2 L-319.95 -35.6 Q-322.45 -44.05 -323.7 -52.45 L-324.8 -52.75 -325.4 -52.95 Q-331.1 -53.75 -336.55 -51.75 L-340.1 -50.75 Q-347.75 -48.5 -355.05 -45.4 L-355.95 -45.0 Q-361.95 -42.35 -363.05 -36.7 L-363.2 -35.7 -363.2 -35.7 Q-361.8 -33.65 -359.35 -32.6 L-358.85 -32.4 -358.45 -32.2 -356.6 -31.6 Q-362.3 -25.5 -366.0 -17.6 L-366.1 -17.4 Q-368.9 -11.45 -366.85 -6.25 M-356.9 -37.4 L-356.8 -37.4 -352.1 -35.95 -351.9 -36.05 Q-346.45 -39.0 -340.75 -41.55 L-339.15 -42.25 -338.45 -42.55 Q-335.6 -43.8 -332.95 -42.5 L-332.7 -42.05 -332.4 -41.3 -332.2 -40.35 -332.3 -39.45 Q-332.35 -38.95 -332.55 -38.5 L-333.0 -37.55 -332.95 -37.35 -332.8 -35.8 Q-332.75 -31.2 -330.55 -26.9 L-328.95 -24.25 Q-328.05 -22.95 -327.55 -21.55 L-325.55 -20.05 -325.45 -19.95 -316.95 -19.85 -316.75 -19.85 Q-320.1 -23.85 -323.8 -29.8 -326.05 -33.7 -326.8 -38.15 -327.7 -43.1 -328.6 -48.0 -340.2 -45.85 -351.0 -40.5 -354.0 -39.05 -356.9 -37.4" fill="#000000" fill-rule="evenodd" stroke="none">
      <animate attributeName="fill" dur="2s" repeatCount="indefinite" values="#000000;#000001"/>
      <animate attributeName="fill-opacity" dur="2s" repeatCount="indefinite" values="1.0;1.0"/>
      <animate attributeName="d" dur="2s" repeatCount="indefinite" values="M-362.35 -11.7 Q-350.15 -14.1 -337.9 -13.45 L-335.85 -9.95 Q-328.0 -9.35 -320.15 -8.75 -320.65 -11.1 -324.55 -13.3 -333.85 -18.8 -336.95 -29.35 L-337.7 -33.1 -338.15 -37.25 Q-347.6 -33.75 -354.15 -26.35 -359.85 -19.95 -362.35 -11.7 M-366.85 -6.25 L-366.85 -6.25 -341.55 -9.55 Q-341.3 -8.75 -340.75 -8.45 L-340.55 -8.35 Q-339.65 -7.95 -338.75 -7.6 -326.9 -2.6 -313.15 -3.5 L-312.65 -3.9 -312.05 -4.9 Q-311.45 -6.25 -311.95 -7.65 L-312.35 -8.45 Q-313.2 -9.55 -314.0 -10.65 L-314.3 -11.0 Q-314.35 -11.95 -314.7 -12.7 L-315.2 -13.4 -315.2 -13.4 -315.9 -13.85 -316.15 -14.05 -316.65 -14.3 -317.05 -14.5 -317.25 -14.6 -314.35 -15.0 -312.5 -15.35 -308.8 -16.0 -307.55 -18.4 -307.35 -18.8 -307.55 -19.35 -308.1 -20.0 Q-308.95 -20.85 -309.75 -21.7 L-312.4 -23.75 -314.0 -24.85 -314.55 -25.75 Q-317.15 -28.7 -318.7 -32.2 L-319.95 -35.6 Q-322.45 -44.05 -323.7 -52.45 L-324.8 -52.75 -325.4 -52.95 Q-331.1 -53.75 -336.55 -51.75 L-340.1 -50.75 Q-347.75 -48.5 -355.05 -45.4 L-355.95 -45.0 Q-361.95 -42.35 -363.05 -36.7 L-363.2 -35.7 -363.2 -35.7 Q-361.8 -33.65 -359.35 -32.6 L-358.85 -32.4 -358.45 -32.2 -356.6 -31.6 Q-362.3 -25.5 -366.0 -17.6 L-366.1 -17.4 Q-368.9 -11.45 -366.85 -6.25 M-356.9 -37.4 L-356.8 -37.4 -352.1 -35.95 -351.9 -36.05 Q-346.45 -39.0 -340.75 -41.55 L-339.15 -42.25 -338.45 -42.55 Q-335.6 -43.8 -332.95 -42.5 L-332.7 -42.05 -332.4 -41.3 -332.2 -40.35 -332.3 -39.45 Q-332.35 -38.95 -332.55 -38.5 L-333.0 -37.55 -332.95 -37.35 -332.8 -35.8 Q-332.75 -31.2 -330.55 -26.9 L-328.95 -24.25 Q-328.05 -22.95 -327.55 -21.55 L-325.55 -20.05 -325.45 -19.95 -316.95 -19.85 -316.75 -19.85 Q-320.1 -23.85 -323.8 -29.8 -326.05 -33.7 -326.8 -38.15 -327.7 -43.1 -328.6 -48.0 -340.2 -45.85 -351.0 -40.5 -354.0 -39.05 -356.9 -37.4;M-358.85 -23.75 Q-345.9 -23.0 -333.55 -19.65 L-332.2 -15.1 Q-324.6 -12.05 -316.7 -10.3 -322.9 -16.8 -326.15 -26.05 -328.05 -31.35 -327.9 -37.1 L-327.45 -43.1 -334.15 -42.05 Q-345.8 -39.25 -353.75 -30.05 -356.3 -26.9 -358.85 -23.75 M-365.35 -19.15 L-365.15 -19.15 -339.4 -16.25 Q-338.85 -16.2 -338.3 -16.15 L-338.1 -16.15 Q-338.1 -15.0 -337.4 -14.5 -326.55 -6.5 -313.2 -3.15 L-312.4 -2.95 -311.4 -2.75 Q-309.85 -3.45 -309.5 -4.8 L-309.35 -5.75 Q-309.2 -7.25 -309.65 -8.65 L-309.7 -8.75 Q-310.15 -9.7 -310.55 -10.65 L-310.85 -11.15 -310.85 -11.25 -310.75 -12.0 -310.75 -12.2 -310.75 -12.8 -310.9 -13.15 -311.0 -13.25 -312.75 -15.3 -310.85 -15.2 -307.05 -14.9 -304.35 -14.7 -304.15 -15.0 -303.75 -15.5 -303.15 -16.2 Q-302.05 -17.4 -302.9 -18.45 L-304.95 -21.1 -305.9 -22.65 -306.45 -23.65 Q-308.3 -27.15 -309.35 -31.05 L-310.2 -34.95 Q-311.85 -43.65 -310.55 -52.45 L-310.35 -53.65 -311.1 -54.1 Q-316.45 -56.45 -322.35 -56.5 L-326.55 -56.3 Q-334.65 -55.6 -342.75 -54.95 L-343.75 -54.8 Q-350.45 -53.7 -352.3 -48.0 L-351.7 -46.9 -351.6 -46.8 Q-350.1 -44.6 -347.8 -43.25 L-347.2 -42.85 -346.8 -42.65 -348.55 -41.6 Q-355.85 -36.9 -361.45 -30.1 L-361.65 -29.9 Q-365.75 -24.8 -365.35 -19.15 M-345.6 -48.25 L-345.6 -48.25 -341.45 -45.65 -341.25 -45.55 Q-335.15 -46.9 -329.1 -48.25 L-327.55 -48.9 -326.55 -48.85 Q-322.6 -48.6 -321.5 -47.0 L-321.2 -46.35 -321.1 -45.6 -321.2 -44.65 -321.5 -43.75 Q-321.7 -43.35 -321.85 -43.0 L-322.25 -42.25 -322.35 -42.05 -322.65 -40.45 Q-323.4 -35.55 -322.55 -31.0 L-321.7 -27.85 Q-321.1 -26.4 -320.55 -25.0 L-319.45 -22.8 -319.35 -22.8 -311.1 -20.55 -311.2 -20.75 Q-313.25 -26.35 -315.25 -31.9 -316.45 -36.35 -316.65 -40.9 -316.8 -45.75 -315.8 -50.8 -327.65 -52.0 -339.15 -49.8 -342.4 -49.0 -345.6 -48.25"/>
    </path>
    <path d="M-362.35 -11.7 Q-350.15 -14.1 -337.9 -13.45 L-335.85 -9.95 Q-328.0 -9.35 -320.15 -8.75 -320.65 -11.1 -324.55 -13.3 -333.85 -18.8 -336.95 -29.35 L-337.7 -33.1 -338.15 -37.25 Q-347.6 -33.75 -354.15 -26.35 -359.85 -19.95 -362.35 -11.7 M-356.9 -37.4 L-356.8 -37.4 -352.1 -35.95 -351.9 -36.05 Q-346.45 -39.0 -340.75 -41.55 L-339.15 -42.25 -338.45 -42.55 Q-335.6 -43.8 -332.95 -42.5 L-332.7 -42.05 -332.4 -41.3 -332.2 -40.35 -332.3 -39.45 Q-332.35 -38.95 -332.55 -38.5 L-333.0 -37.55 -332.95 -37.35 -332.8 -35.8 Q-332.75 -31.2 -330.55 -26.9 L-328.95 -24.25 Q-328.05 -22.95 -327.55 -21.55 L-325.55 -20.05 -325.45 -19.95 -316.95 -19.85 -316.75 -19.85 Q-320.1 -23.85 -323.8 -29.8 -326.05 -33.7 -326.8 -38.15 -327.7 -43.1 -328.6 -48.0 -340.2 -45.85 -351.0 -40.5 -354.0 -39.05 -356.9 -37.4" fill="#80a839" fill-rule="evenodd" stroke="none">
      <animate attributeName="fill" dur="2s" repeatCount="indefinite" values="#80a839;#80a83a"/>
      <animate attributeName="fill-opacity" dur="2s" repeatCount="indefinite" values="1.0;1.0"/>
      <animate attributeName="d" dur="2s" repeatCount="indefinite" values="M-362.35 -11.7 Q-350.15 -14.1 -337.9 -13.45 L-335.85 -9.95 Q-328.0 -9.35 -320.15 -8.75 -320.65 -11.1 -324.55 -13.3 -333.85 -18.8 -336.95 -29.35 L-337.7 -33.1 -338.15 -37.25 Q-347.6 -33.75 -354.15 -26.35 -359.85 -19.95 -362.35 -11.7 M-356.9 -37.4 L-356.8 -37.4 -352.1 -35.95 -351.9 -36.05 Q-346.45 -39.0 -340.75 -41.55 L-339.15 -42.25 -338.45 -42.55 Q-335.6 -43.8 -332.95 -42.5 L-332.7 -42.05 -332.4 -41.3 -332.2 -40.35 -332.3 -39.45 Q-332.35 -38.95 -332.55 -38.5 L-333.0 -37.55 -332.95 -37.35 -332.8 -35.8 Q-332.75 -31.2 -330.55 -26.9 L-328.95 -24.25 Q-328.05 -22.95 -327.55 -21.55 L-325.55 -20.05 -325.45 -19.95 -316.95 -19.85 -316.75 -19.85 Q-320.1 -23.85 -323.8 -29.8 -326.05 -33.7 -326.8 -38.15 -327.7 -43.1 -328.6 -48.0 -340.2 -45.85 -351.0 -40.5 -354.0 -39.05 -356.9 -37.4;M-358.85 -23.75 Q-345.9 -23.0 -333.55 -19.65 L-332.2 -15.1 Q-324.6 -12.05 -316.7 -10.3 -322.9 -16.8 -326.15 -26.05 -328.05 -31.35 -327.9 -37.1 L-327.45 -43.1 -334.15 -42.05 Q-345.8 -39.25 -353.75 -30.05 -356.3 -26.9 -358.85 -23.75 M-345.6 -48.25 L-345.6 -48.25 -341.45 -45.65 -341.25 -45.55 Q-335.15 -46.9 -329.1 -48.25 L-327.55 -48.9 -326.55 -48.85 Q-322.6 -48.6 -321.5 -47.0 L-321.2 -46.35 -321.1 -45.6 -321.2 -44.65 -321.5 -43.75 Q-321.7 -43.35 -321.85 -43.0 L-322.25 -42.25 -322.35 -42.05 -322.65 -40.45 Q-323.4 -35.55 -322.55 -31.0 L-321.7 -27.85 Q-321.1 -26.4 -320.55 -25.0 L-319.45 -22.8 -319.35 -22.8 -311.1 -20.55 -311.2 -20.75 Q-313.25 -26.35 -315.25 -31.9 -316.45 -36.35 -316.65 -40.9 -316.8 -45.75 -315.8 -50.8 -327.65 -52.0 -339.15 -49.8 -342.4 -49.0 -345.6 -48.25"/>
    </path>
    <path d="M-366.85 -6.25 Q-368.9 -11.45 -366.1 -17.4 L-366.0 -17.6 Q-362.3 -25.5 -356.6 -31.6 L-358.45 -32.2 -358.85 -32.4 -359.35 -32.6 Q-361.8 -33.65 -363.2 -35.7 L-363.2 -35.7 -363.05 -36.7 Q-361.95 -42.35 -355.95 -45.0 L-355.05 -45.4 Q-347.75 -48.5 -340.1 -50.75 L-336.55 -51.75 Q-331.1 -53.75 -325.4 -52.95 L-324.8 -52.75 -323.7 -52.45 Q-322.45 -44.05 -319.95 -35.6 L-318.7 -32.2 Q-317.15 -28.7 -314.55 -25.75 L-314.0 -24.85 -312.4 -23.75 -309.75 -21.7 Q-308.95 -20.85 -308.1 -20.0 L-307.55 -19.35 -307.35 -18.8 -307.55 -18.4 -308.8 -16.0 -312.5 -15.35 -314.35 -15.0 -317.25 -14.6 -317.05 -14.5 -316.65 -14.3 -316.15 -14.05 -315.9 -13.85 -315.2 -13.4 -315.2 -13.4 -314.7 -12.7 Q-314.35 -11.95 -314.3 -11.0 L-314.0 -10.65 Q-313.2 -9.55 -312.35 -8.45 L-311.95 -7.65 Q-311.45 -6.25 -312.05 -4.9 L-312.65 -3.9 -313.15 -3.5 Q-326.9 -2.6 -338.75 -7.6 -339.65 -7.95 -340.55 -8.35 L-340.75 -8.45 Q-341.3 -8.75 -341.55 -9.55 L-366.85 -6.25 -366.85 -6.25 M-362.35 -11.7 Q-359.85 -19.95 -354.15 -26.35 -347.6 -33.75 -338.15 -37.25 L-337.7 -33.1 -336.95 -29.35 Q-333.85 -18.8 -324.55 -13.3 -320.65 -11.1 -320.15 -8.75 -328.0 -9.35 -335.85 -9.95 L-337.9 -13.45 Q-350.15 -14.1 -362.35 -11.7 -359.85 -19.95 -354.15 -26.35 -347.6 -33.75 -338.15 -37.25 L-337.7 -33.1 -336.95 -29.35 Q-333.85 -18.8 -324.55 -13.3 -320.65 -11.1 -320.15 -8.75 -328.0 -9.35 -335.85 -9.95 L-337.9 -13.45 Q-350.15 -14.1 -362.35 -11.7 M-356.9 -37.4 Q-354.0 -39.05 -351.0 -40.5 -340.2 -45.85 -328.6 -48.0 -327.7 -43.1 -326.8 -38.15 -326.05 -33.7 -323.8 -29.8 -320.1 -23.85 -316.75 -19.85 L-316.95 -19.85 -325.45 -19.95 -325.55 -20.05 -327.55 -21.55 Q-328.05 -22.95 -328.95 -24.25 L-330.55 -26.9 Q-332.75 -31.2 -332.8 -35.8 L-332.95 -37.35 -333.0 -37.55 -332.55 -38.5 Q-332.35 -38.95 -332.3 -39.45 L-332.2 -40.35 -332.4 -41.3 -332.7 -42.05 -332.95 -42.5 Q-335.6 -43.8 -338.45 -42.55 L-339.15 -42.25 -340.75 -41.55 Q-346.45 -39.0 -351.9 -36.05 L-352.1 -35.95 -356.8 -37.4 -356.9 -37.4 Q-354.0 -39.05 -351.0 -40.5 -340.2 -45.85 -328.6 -48.0 -327.7 -43.1 -326.8 -38.15 -326.05 -33.7 -323.8 -29.8 -320.1 -23.85 -316.75 -19.85 L-316.95 -19.85 -325.45 -19.95 -325.55 -20.05 -327.55 -21.55 Q-328.05 -22.95 -328.95 -24.25 L-330.55 -26.9 Q-332.75 -31.2 -332.8 -35.8 L-332.95 -37.35 -333.0 -37.55 -332.55 -38.5 Q-332.35 -38.95 -332.3 -39.45 L-332.2 -40.35 -332.4 -41.3 -332.7 -42.05 -332.95 -42.5 Q-335.6 -43.8 -338.45 -42.55 L-339.15 -42.25 -340.75 -41.55 Q-346.45 -39.0 -351.9 -36.05 L-352.1 -35.95 -356.8 -37.4 -356.9 -37.4 Z" fill="none" stroke="#000000" stroke-linecap="round" stroke-linejoin="round" stroke-opacity="0.0" stroke-width="0.0">
      <animate attributeName="stroke" dur="2s" repeatCount="indefinite" values="#000000;#000001"/>
      <animate attributeName="stroke-width" dur="2s" repeatCount="indefinite" values="0.0;0.0"/>
      <animate attributeName="fill-opacity" dur="2s" repeatCount="indefinite" values="0.0;0.0"/>
      <animate attributeName="d" dur="2s" repeatCount="indefinite" values="M-366.85 -6.25 Q-368.9 -11.45 -366.1 -17.4 L-366.0 -17.6 Q-362.3 -25.5 -356.6 -31.6 L-358.45 -32.2 -358.85 -32.4 -359.35 -32.6 Q-361.8 -33.65 -363.2 -35.7 L-363.2 -35.7 -363.05 -36.7 Q-361.95 -42.35 -355.95 -45.0 L-355.05 -45.4 Q-347.75 -48.5 -340.1 -50.75 L-336.55 -51.75 Q-331.1 -53.75 -325.4 -52.95 L-324.8 -52.75 -323.7 -52.45 Q-322.45 -44.05 -319.95 -35.6 L-318.7 -32.2 Q-317.15 -28.7 -314.55 -25.75 L-314.0 -24.85 -312.4 -23.75 -309.75 -21.7 Q-308.95 -20.85 -308.1 -20.0 L-307.55 -19.35 -307.35 -18.8 -307.55 -18.4 -308.8 -16.0 -312.5 -15.35 -314.35 -15.0 -317.25 -14.6 -317.05 -14.5 -316.65 -14.3 -316.15 -14.05 -315.9 -13.85 -315.2 -13.4 -315.2 -13.4 -314.7 -12.7 Q-314.35 -11.95 -314.3 -11.0 L-314.0 -10.65 Q-313.2 -9.55 -312.35 -8.45 L-311.95 -7.65 Q-311.45 -6.25 -312.05 -4.9 L-312.65 -3.9 -313.15 -3.5 Q-326.9 -2.6 -338.75 -7.6 -339.65 -7.95 -340.55 -8.35 L-340.75 -8.45 Q-341.3 -8.75 -341.55 -9.55 L-366.85 -6.25 -366.85 -6.25 M-362.35 -11.7 Q-359.85 -19.95 -354.15 -26.35 -347.6 -33.75 -338.15 -37.25 L-337.7 -33.1 -336.95 -29.35 Q-333.85 -18.8 -324.55 -13.3 -320.65 -11.1 -320.15 -8.75 -328.0 -9.35 -335.85 -9.95 L-337.9 -13.45 Q-350.15 -14.1 -362.35 -11.7 -359.85 -19.95 -354.15 -26.35 -347.6 -33.75 -338.15 -37.25 L-337.7 -33.1 -336.95 -29.35 Q-333.85 -18.8 -324.55 -13.3 -320.65 -11.1 -320.15 -8.75 -328.0 -9.35 -335.85 -9.95 L-337.9 -13.45 Q-350.15 -14.1 -362.35 -11.7 M-356.9 -37.4 Q-354.0 -39.05 -351.0 -40.5 -340.2 -45.85 -328.6 -48.0 -327.7 -43.1 -326.8 -38.15 -326.05 -33.7 -323.8 -29.8 -320.1 -23.85 -316.75 -19.85 L-316.95 -19.85 -325.45 -19.95 -325.55 -20.05 -327.55 -21.55 Q-328.05 -22.95 -328.95 -24.25 L-330.55 -26.9 Q-332.75 -31.2 -332.8 -35.8 L-332.95 -37.35 -333.0 -37.55 -332.55 -38.5 Q-332.35 -38.95 -332.3 -39.45 L-332.2 -40.35 -332.4 -41.3 -332.7 -42.05 -332.95 -42.5 Q-335.6 -43.8 -338.45 -42.55 L-339.15 -42.25 -340.75 -41.55 Q-346.45 -39.0 -351.9 -36.05 L-352.1 -35.95 -356.8 -37.4 -356.9 -37.4 Q-354.0 -39.05 -351.0 -40.5 -340.2 -45.85 -328.6 -48.0 -327.7 -43.1 -326.8 -38.15 -326.05 -33.7 -323.8 -29.8 -320.1 -23.85 -316.75 -19.85 L-316.95 -19.85 -325.45 -19.95 -325.55 -20.05 -327.55 -21.55 Q-328.05 -22.95 -328.95 -24.25 L-330.55 -26.9 Q-332.75 -31.2 -332.8 -35.8 L-332.95 -37.35 -333.0 -37.55 -332.55 -38.5 Q-332.35 -38.95 -332.3 -39.45 L-332.2 -40.35 -332.4 -41.3 -332.7 -42.05 -332.95 -42.5 Q-335.6 -43.8 -338.45 -42.55 L-339.15 -42.25 -340.75 -41.55 Q-346.45 -39.0 -351.9 -36.05 L-352.1 -35.95 -356.8 -37.4 -356.9 -37.4 Z;M-365.35 -19.15 Q-365.75 -24.8 -361.65 -29.9 L-361.45 -30.1 Q-355.85 -36.9 -348.55 -41.6 L-346.8 -42.65 -347.2 -42.85 -347.8 -43.25 Q-350.1 -44.6 -351.6 -46.8 L-351.7 -46.9 -352.3 -48.0 Q-350.45 -53.7 -343.75 -54.8 L-342.75 -54.95 Q-334.65 -55.6 -326.55 -56.3 L-322.35 -56.5 Q-316.45 -56.45 -311.1 -54.1 L-310.35 -53.65 -310.55 -52.45 Q-311.85 -43.65 -310.2 -34.95 L-309.35 -31.05 Q-308.3 -27.15 -306.45 -23.65 L-305.9 -22.65 -304.95 -21.1 -302.9 -18.45 Q-302.05 -17.4 -303.15 -16.2 L-303.75 -15.5 -304.15 -15.0 -304.35 -14.7 -307.05 -14.9 -310.85 -15.2 -312.75 -15.3 -311.0 -13.25 -310.9 -13.15 -310.75 -12.8 -310.75 -12.2 -310.75 -12.0 -310.85 -11.25 -310.85 -11.15 -310.55 -10.65 Q-310.15 -9.7 -309.7 -8.75 L-309.65 -8.65 Q-309.2 -7.25 -309.35 -5.75 L-309.5 -4.8 Q-309.85 -3.45 -311.4 -2.75 L-312.4 -2.95 -313.2 -3.15 Q-326.55 -6.5 -337.4 -14.5 -338.1 -15.0 -338.1 -16.15 L-338.3 -16.15 Q-338.85 -16.2 -339.4 -16.25 L-365.15 -19.15 -365.35 -19.15 M-358.85 -23.75 Q-356.3 -26.9 -353.75 -30.05 -345.8 -39.25 -334.15 -42.05 L-327.45 -43.1 -327.9 -37.1 Q-328.05 -31.35 -326.15 -26.05 -322.9 -16.8 -316.7 -10.3 -324.6 -12.05 -332.2 -15.1 L-333.55 -19.65 Q-345.9 -23.0 -358.85 -23.75 -356.3 -26.9 -353.75 -30.05 -345.8 -39.25 -334.15 -42.05 L-327.45 -43.1 -327.9 -37.1 Q-328.05 -31.35 -326.15 -26.05 -322.9 -16.8 -316.7 -10.3 -324.6 -12.05 -332.2 -15.1 L-333.55 -19.65 Q-345.9 -23.0 -358.85 -23.75 M-345.6 -48.25 Q-342.4 -49.0 -339.15 -49.8 -327.65 -52.0 -315.8 -50.8 -316.8 -45.75 -316.65 -40.9 -316.45 -36.35 -315.25 -31.9 -313.25 -26.35 -311.2 -20.75 L-311.1 -20.55 -319.35 -22.8 -319.45 -22.8 -320.55 -25.0 Q-321.1 -26.4 -321.7 -27.85 L-322.55 -31.0 Q-323.4 -35.55 -322.65 -40.45 L-322.35 -42.05 -322.25 -42.25 -321.85 -43.0 Q-321.7 -43.35 -321.5 -43.75 L-321.2 -44.65 -321.1 -45.6 -321.2 -46.35 -321.5 -47.0 Q-322.6 -48.6 -326.55 -48.85 L-327.55 -48.9 -329.1 -48.25 Q-335.15 -46.9 -341.25 -45.55 L-341.45 -45.65 -345.6 -48.25 -345.6 -48.25 Q-342.4 -49.0 -339.15 -49.8 -327.65 -52.0 -315.8 -50.8 -316.8 -45.75 -316.65 -40.9 -316.45 -36.35 -315.25 -31.9 -313.25 -26.35 -311.2 -20.75 L-311.1 -20.55 -319.35 -22.8 -319.45 -22.8 -320.55 -25.0 Q-321.1 -26.4 -321.7 -27.85 L-322.55 -31.0 Q-323.4 -35.55 -322.65 -40.45 L-322.35 -42.05 -322.25 -42.25 -321.85 -43.0 Q-321.7 -43.35 -321.5 -43.75 L-321.2 -44.65 -321.1 -45.6 -321.2 -46.35 -321.5 -47.0 Q-322.6 -48.6 -326.55 -48.85 L-327.55 -48.9 -329.1 -48.25 Q-335.15 -46.9 -341.25 -45.55 L-341.45 -45.65 -345.6 -48.25 -345.6 -48.25 Z"/>
    </path>
  </g>
</svg>
