<?xml version="1.0" encoding="UTF-8" standalone="no"?>
<svg xmlns:ffdec="https://www.free-decompiler.com/flash" xmlns:xlink="http://www.w3.org/1999/xlink" ffdec:objectType="morphshape" height="56.0px" width="52.1px" xmlns="http://www.w3.org/2000/svg">
  <g transform="matrix(1.0, 0.0, 0.0, 1.0, 406.2, 68.5)">
    <path d="M-399.4 -22.75 L-399.1 -23.0 -398.9 -23.15 -394.45 -26.75 -394.15 -26.95 Q-393.1 -27.65 -391.9 -28.15 L-391.7 -28.35 Q-389.5 -30.35 -386.5 -31.05 L-386.0 -31.25 -386.0 -31.45 -386.0 -31.65 -386.0 -31.8 -386.0 -32.0 -386.0 -32.1 -386.0 -32.4 -386.0 -32.5 -385.9 -32.75 -385.85 -32.95 -385.75 -33.15 -385.55 -33.35 -385.1 -33.85 -384.9 -34.05 -384.4 -34.65 -384.2 -34.65 Q-376.25 -36.25 -368.0 -33.5 L-367.9 -33.5 -367.4 -33.65 -367.4 -33.65 -367.0 -33.95 -367.0 -34.0 -366.75 -34.2 -366.65 -34.25 Q-364.15 -35.15 -362.2 -33.7 L-362.0 -33.5 -362.0 -33.5 -361.65 -33.15 -361.3 -32.45 -361.2 -32.25 -361.1 -32.35 -361.0 -32.45 -361.0 -32.5 -360.8 -32.65 -360.8 -32.65 -360.6 -32.85 -360.55 -32.9 -360.8 -33.35 -361.35 -33.9 -361.55 -34.1 -362.15 -34.65 Q-363.55 -37.8 -365.4 -40.9 L-365.65 -41.3 Q-367.25 -44.05 -368.3 -47.2 L-368.5 -47.7 -368.6 -47.9 -368.9 -48.5 -369.05 -49.5 -369.2 -50.05 -369.6 -51.05 -369.85 -51.5 -370.0 -51.9 -370.0 -52.25 -370.0 -52.35 -370.0 -52.65 -370.0 -52.75 -370.0 -53.0 -370.15 -53.4 -370.25 -53.75 -370.4 -54.15 -370.5 -54.5 -370.5 -54.6 -370.5 -54.9 -370.5 -55.05 -370.5 -55.25 -370.55 -55.4 -370.65 -55.6 -370.75 -55.8 -370.85 -56.0 -370.9 -56.2 -371.0 -56.4 -370.9 -59.05 -370.9 -59.35 Q-370.75 -60.8 -371.35 -61.95 L-371.55 -62.25 -371.6 -62.3 -371.9 -62.4 -372.2 -61.95 -372.4 -61.65 -372.9 -60.8 -373.0 -60.5 -373.45 -60.05 -373.75 -59.75 -373.95 -59.55 -374.15 -59.4 Q-374.35 -58.95 -374.55 -58.55 L-374.75 -58.25 -375.3 -57.45 -375.5 -57.15 -376.0 -56.7 -376.3 -56.45 -376.7 -56.15 -377.0 -56.0 -381.85 -50.95 -382.15 -50.65 Q-383.2 -49.55 -384.5 -48.8 L-385.0 -48.5 -385.2 -48.25 -385.75 -47.7 -386.15 -47.4 Q-386.45 -46.55 -387.0 -45.85 L-387.45 -45.45 -388.15 -44.85 -388.65 -44.4 Q-389.1 -43.6 -389.5 -42.85 L-389.95 -42.45 -391.05 -41.4 -391.5 -41.0 -392.85 -38.9 -393.15 -38.4 -394.2 -36.35 -394.4 -35.75 -394.75 -35.15 -395.1 -34.55 -395.45 -34.0 -396.0 -33.5 Q-396.05 -32.8 -396.35 -32.15 L-396.65 -31.55 -397.1 -30.75 -397.5 -30.15 -397.5 -29.95 -397.5 -29.75 -397.5 -29.4 -398.1 -27.55 -398.25 -27.15 -398.35 -26.75 -398.45 -26.45 -398.7 -25.75 -398.9 -25.15 -399.0 -24.9 -399.0 -24.5 -399.25 -23.0 -399.4 -22.75 M-405.5 -19.9 L-405.5 -17.65 -405.5 -16.15 -405.5 -14.65 -405.4 -14.25 -405.25 -13.9 -405.0 -13.5 -404.6 -13.15 -404.15 -12.75 -403.0 -12.5 -402.25 -12.65 -401.9 -12.75 Q-399.55 -14.85 -397.3 -17.05 L-392.0 -22.0 Q-390.55 -22.7 -389.2 -23.6 -388.35 -24.3 -387.5 -25.0 L-386.75 -25.4 -386.0 -25.75 Q-384.0 -25.65 -382.25 -26.4 L-381.8 -26.8 -381.5 -27.15 -381.3 -27.5 -381.15 -27.9 -381.0 -28.25 -381.0 -28.65 Q-381.0 -28.85 -381.0 -29.0 L-381.0 -29.4 -381.0 -29.75 -364.75 -27.9 -364.55 -27.5 -364.45 -27.25 -364.45 -27.15 -364.5 -26.4 -364.5 -26.0 -364.5 -25.65 -364.4 -25.25 -364.25 -24.9 -364.0 -24.5 Q-363.8 -24.3 -363.6 -24.15 L-363.15 -23.75 -362.05 -23.45 Q-359.7 -23.35 -357.4 -23.25 L-356.65 -23.9 Q-355.85 -24.7 -355.4 -25.75 L-355.0 -26.9 -355.0 -28.0 -355.0 -28.5 -354.85 -28.85 -354.65 -29.25 -354.5 -29.65 -354.5 -30.4 -354.5 -31.15 -354.5 -31.5 -354.5 -31.9 -354.9 -32.65 -355.25 -33.4 -355.4 -33.75 -355.5 -34.15 -355.5 -34.5 -355.5 -34.9 -355.5 -35.25 -355.65 -35.65 -355.8 -36.0 -356.0 -36.4 -356.25 -36.75 -356.75 -37.1 -357.45 -37.55 -357.75 -37.9 -357.9 -38.25 -358.5 -39.4 -359.1 -40.45 -359.9 -41.65 -363.1 -49.25 -365.0 -53.65 -365.0 -54.0 -365.0 -54.4 -365.0 -54.75 -365.15 -55.15 -365.3 -55.5 -365.5 -55.9 -365.5 -56.25 -365.5 -56.65 -365.65 -57.0 -365.75 -57.4 -365.9 -57.75 -366.0 -58.15 -366.0 -58.9 -366.0 -59.65 -366.0 -60.0 -366.0 -60.4 -365.9 -60.75 -365.75 -61.15 -365.65 -61.5 -365.5 -61.9 -365.5 -62.65 Q-365.5 -62.85 -365.5 -63.0 L-365.5 -63.4 -365.5 -63.75 Q-366.0 -65.55 -367.6 -66.6 -369.7 -68.0 -372.0 -68.5 L-372.0 -68.45 -373.15 -68.25 -373.65 -67.9 -374.15 -67.55 Q-374.5 -67.3 -374.9 -67.15 L-375.25 -66.75 -375.65 -66.4 -376.0 -66.0 -376.45 -65.3 -378.2 -62.6 -379.65 -60.4 -380.4 -59.65 -381.9 -58.15 -383.4 -56.65 -387.1 -53.85 -390.0 -51.0 -390.4 -50.3 -391.2 -49.1 -391.65 -48.4 -392.4 -47.65 -393.5 -46.5 -394.65 -45.4 -394.85 -45.0 -395.05 -44.65 -395.25 -44.25 -396.0 -43.5 -396.4 -43.15 -396.75 -42.75 -400.75 -35.6 Q-401.85 -33.65 -402.5 -31.5 L-402.5 -31.15 -402.5 -30.75 -403.2 -29.3 -403.6 -27.8 -404.0 -26.65 -404.0 -26.25 -404.0 -25.9 -404.0 -25.5 -404.0 -25.15 -404.2 -24.75 -404.5 -24.0 -404.75 -23.25 -405.0 -22.5 -405.0 -22.15 -405.0 -21.75 -405.0 -21.4 -405.15 -21.0 -405.25 -20.65 -405.4 -20.25 -405.5 -19.9" fill="#000000" fill-rule="evenodd" stroke="none">
      <animate attributeName="fill" dur="2s" repeatCount="indefinite" values="#000000;#000001"/>
      <animate attributeName="fill-opacity" dur="2s" repeatCount="indefinite" values="1.0;1.0"/>
      <animate attributeName="d" dur="2s" repeatCount="indefinite" values="M-399.4 -22.75 L-399.1 -23.0 -398.9 -23.15 -394.45 -26.75 -394.15 -26.95 Q-393.1 -27.65 -391.9 -28.15 L-391.7 -28.35 Q-389.5 -30.35 -386.5 -31.05 L-386.0 -31.25 -386.0 -31.45 -386.0 -31.65 -386.0 -31.8 -386.0 -32.0 -386.0 -32.1 -386.0 -32.4 -386.0 -32.5 -385.9 -32.75 -385.85 -32.95 -385.75 -33.15 -385.55 -33.35 -385.1 -33.85 -384.9 -34.05 -384.4 -34.65 -384.2 -34.65 Q-376.25 -36.25 -368.0 -33.5 L-367.9 -33.5 -367.4 -33.65 -367.4 -33.65 -367.0 -33.95 -367.0 -34.0 -366.75 -34.2 -366.65 -34.25 Q-364.15 -35.15 -362.2 -33.7 L-362.0 -33.5 -362.0 -33.5 -361.65 -33.15 -361.3 -32.45 -361.2 -32.25 -361.1 -32.35 -361.0 -32.45 -361.0 -32.5 -360.8 -32.65 -360.8 -32.65 -360.6 -32.85 -360.55 -32.9 -360.8 -33.35 -361.35 -33.9 -361.55 -34.1 -362.15 -34.65 Q-363.55 -37.8 -365.4 -40.9 L-365.65 -41.3 Q-367.25 -44.05 -368.3 -47.2 L-368.5 -47.7 -368.6 -47.9 -368.9 -48.5 -369.05 -49.5 -369.2 -50.05 -369.6 -51.05 -369.85 -51.5 -370.0 -51.9 -370.0 -52.25 -370.0 -52.35 -370.0 -52.65 -370.0 -52.75 -370.0 -53.0 -370.15 -53.4 -370.25 -53.75 -370.4 -54.15 -370.5 -54.5 -370.5 -54.6 -370.5 -54.9 -370.5 -55.05 -370.5 -55.25 -370.55 -55.4 -370.65 -55.6 -370.75 -55.8 -370.85 -56.0 -370.9 -56.2 -371.0 -56.4 -370.9 -59.05 -370.9 -59.35 Q-370.75 -60.8 -371.35 -61.95 L-371.55 -62.25 -371.6 -62.3 -371.9 -62.4 -372.2 -61.95 -372.4 -61.65 -372.9 -60.8 -373.0 -60.5 -373.45 -60.05 -373.75 -59.75 -373.95 -59.55 -374.15 -59.4 Q-374.35 -58.95 -374.55 -58.55 L-374.75 -58.25 -375.3 -57.45 -375.5 -57.15 -376.0 -56.7 -376.3 -56.45 -376.7 -56.15 -377.0 -56.0 -381.85 -50.95 -382.15 -50.65 Q-383.2 -49.55 -384.5 -48.8 L-385.0 -48.5 -385.2 -48.25 -385.75 -47.7 -386.15 -47.4 Q-386.45 -46.55 -387.0 -45.85 L-387.45 -45.45 -388.15 -44.85 -388.65 -44.4 Q-389.1 -43.6 -389.5 -42.85 L-389.95 -42.45 -391.05 -41.4 -391.5 -41.0 -392.85 -38.9 -393.15 -38.4 -394.2 -36.35 -394.4 -35.75 -394.75 -35.15 -395.1 -34.55 -395.45 -34.0 -396.0 -33.5 Q-396.05 -32.8 -396.35 -32.15 L-396.65 -31.55 -397.1 -30.75 -397.5 -30.15 -397.5 -29.95 -397.5 -29.75 -397.5 -29.4 -398.1 -27.55 -398.25 -27.15 -398.35 -26.75 -398.45 -26.45 -398.7 -25.75 -398.9 -25.15 -399.0 -24.9 -399.0 -24.5 -399.25 -23.0 -399.4 -22.75 M-405.5 -19.9 L-405.5 -17.65 -405.5 -16.15 -405.5 -14.65 -405.4 -14.25 -405.25 -13.9 -405.0 -13.5 -404.6 -13.15 -404.15 -12.75 -403.0 -12.5 -402.25 -12.65 -401.9 -12.75 Q-399.55 -14.85 -397.3 -17.05 L-392.0 -22.0 Q-390.55 -22.7 -389.2 -23.6 -388.35 -24.3 -387.5 -25.0 L-386.75 -25.4 -386.0 -25.75 Q-384.0 -25.65 -382.25 -26.4 L-381.8 -26.8 -381.5 -27.15 -381.3 -27.5 -381.15 -27.9 -381.0 -28.25 -381.0 -28.65 Q-381.0 -28.85 -381.0 -29.0 L-381.0 -29.4 -381.0 -29.75 -364.75 -27.9 -364.55 -27.5 -364.45 -27.25 -364.45 -27.15 -364.5 -26.4 -364.5 -26.0 -364.5 -25.65 -364.4 -25.25 -364.25 -24.9 -364.0 -24.5 Q-363.8 -24.3 -363.6 -24.15 L-363.15 -23.75 -362.05 -23.45 Q-359.7 -23.35 -357.4 -23.25 L-356.65 -23.9 Q-355.85 -24.7 -355.4 -25.75 L-355.0 -26.9 -355.0 -28.0 -355.0 -28.5 -354.85 -28.85 -354.65 -29.25 -354.5 -29.65 -354.5 -30.4 -354.5 -31.15 -354.5 -31.5 -354.5 -31.9 -354.9 -32.65 -355.25 -33.4 -355.4 -33.75 -355.5 -34.15 -355.5 -34.5 -355.5 -34.9 -355.5 -35.25 -355.65 -35.65 -355.8 -36.0 -356.0 -36.4 -356.25 -36.75 -356.75 -37.1 -357.45 -37.55 -357.75 -37.9 -357.9 -38.25 -358.5 -39.4 -359.1 -40.45 -359.9 -41.65 -363.1 -49.25 -365.0 -53.65 -365.0 -54.0 -365.0 -54.4 -365.0 -54.75 -365.15 -55.15 -365.3 -55.5 -365.5 -55.9 -365.5 -56.25 -365.5 -56.65 -365.65 -57.0 -365.75 -57.4 -365.9 -57.75 -366.0 -58.15 -366.0 -58.9 -366.0 -59.65 -366.0 -60.0 -366.0 -60.4 -365.9 -60.75 -365.75 -61.15 -365.65 -61.5 -365.5 -61.9 -365.5 -62.65 Q-365.5 -62.85 -365.5 -63.0 L-365.5 -63.4 -365.5 -63.75 Q-366.0 -65.55 -367.6 -66.6 -369.7 -68.0 -372.0 -68.5 L-372.0 -68.45 -373.15 -68.25 -373.65 -67.9 -374.15 -67.55 Q-374.5 -67.3 -374.9 -67.15 L-375.25 -66.75 -375.65 -66.4 -376.0 -66.0 -376.45 -65.3 -378.2 -62.6 -379.65 -60.4 -380.4 -59.65 -381.9 -58.15 -383.4 -56.65 -387.1 -53.85 -390.0 -51.0 -390.4 -50.3 -391.2 -49.1 -391.65 -48.4 -392.4 -47.65 -393.5 -46.5 -394.65 -45.4 -394.85 -45.0 -395.05 -44.65 -395.25 -44.25 -396.0 -43.5 -396.4 -43.15 -396.75 -42.75 -400.75 -35.6 Q-401.85 -33.65 -402.5 -31.5 L-402.5 -31.15 -402.5 -30.75 -403.2 -29.3 -403.6 -27.8 -404.0 -26.65 -404.0 -26.25 -404.0 -25.9 -404.0 -25.5 -404.0 -25.15 -404.2 -24.75 -404.5 -24.0 -404.75 -23.25 -405.0 -22.5 -405.0 -22.15 -405.0 -21.75 -405.0 -21.4 -405.15 -21.0 -405.25 -20.65 -405.4 -20.25 -405.5 -19.9;M-399.4 -23.05 L-399.4 -23.05 -399.2 -23.2 -394.45 -26.4 -394.15 -26.6 Q-392.9 -27.1 -391.7 -27.6 L-391.5 -27.7 Q-389.05 -29.65 -385.9 -30.1 L-385.45 -30.2 -385.35 -30.25 -385.35 -30.45 -385.35 -30.65 -385.3 -30.85 -385.3 -30.95 -385.25 -31.25 -385.25 -31.35 -385.15 -31.6 -385.1 -31.7 -385.0 -31.9 -384.95 -32.1 -384.4 -32.55 -384.2 -32.75 -383.65 -33.25 -383.45 -33.45 Q-375.35 -34.35 -367.4 -30.8 L-367.3 -30.8 -366.8 -30.9 -366.7 -30.9 -366.3 -31.2 -366.2 -31.25 -365.9 -31.4 -365.8 -31.4 Q-363.15 -32.05 -361.4 -30.2 L-361.05 -29.85 -361.0 -29.75 -360.9 -29.5 -360.7 -28.9 -360.55 -29.05 -360.45 -29.15 -360.25 -29.3 -360.15 -29.35 -360.05 -29.45 -360.0 -29.5 -360.1 -29.75 -360.2 -29.95 -360.7 -30.55 -361.2 -31.15 -361.4 -31.35 -361.6 -31.95 Q-362.75 -35.15 -364.25 -38.3 L-364.45 -38.7 Q-365.8 -41.65 -366.5 -44.9 L-366.7 -45.5 -366.8 -45.75 -366.8 -46.25 -366.95 -47.3 -367.1 -47.8 -367.45 -48.8 -367.6 -49.2 -367.55 -49.55 -367.5 -49.85 -367.5 -49.95 -367.5 -50.2 -367.5 -50.3 -367.55 -50.6 -367.65 -51.05 -367.7 -51.35 -367.8 -51.8 -367.8 -52.1 -367.8 -52.2 -367.75 -52.4 -367.75 -52.55 -367.8 -52.7 -367.9 -52.9 -367.95 -53.1 -368.05 -53.35 -368.1 -53.55 -368.15 -53.75 -368.15 -53.95 -367.75 -56.65 -367.7 -56.95 Q-367.5 -58.4 -368.15 -59.6 L-368.35 -59.75 -368.5 -59.75 -368.75 -59.45 -369.05 -59.1 -369.25 -58.85 -369.75 -58.0 -370.05 -57.75 -370.55 -57.35 -370.75 -57.15 -371.0 -57.0 -371.2 -56.65 Q-371.4 -56.25 -371.7 -55.95 L-371.9 -55.7 -372.55 -54.9 -372.85 -54.65 -373.4 -54.3 -373.7 -54.1 -374.15 -53.9 -374.35 -53.7 -379.75 -49.1 -380.15 -48.8 Q-381.35 -47.8 -382.75 -47.25 L-383.3 -46.75 -383.55 -46.55 -384.0 -46.25 -384.25 -45.75 Q-384.85 -45.1 -385.45 -44.45 L-386.05 -44.05 -386.75 -43.5 -387.0 -42.95 Q-387.5 -42.2 -388.25 -41.7 L-388.75 -41.3 -389.9 -40.4 -390.3 -39.9 -391.75 -38.0 -392.1 -37.5 -393.25 -35.5 -393.65 -34.95 -394.05 -34.35 -394.5 -33.8 -395.05 -33.4 -395.25 -32.7 Q-395.5 -32.1 -395.9 -31.55 L-396.3 -30.95 -396.85 -30.2 -396.95 -29.55 -396.95 -29.45 -397.05 -29.15 -397.15 -28.95 -397.85 -27.3 -398.0 -27.0 -398.1 -26.7 -398.15 -26.6 -398.45 -25.9 -398.7 -25.5 -398.75 -25.25 -398.9 -24.75 -399.25 -23.3 -399.4 -23.05 M-406.2 -18.35 L-406.2 -17.0 -406.15 -16.05 -406.1 -15.05 -405.9 -14.65 -405.65 -14.2 -405.0 -13.8 -404.4 -13.6 -404.0 -13.4 -400.85 -14.85 -397.5 -16.75 -395.85 -17.3 Q-394.2 -18.7 -392.55 -20.05 L-389.4 -22.75 Q-388.45 -23.15 -387.55 -23.65 -386.1 -23.75 -384.85 -24.35 L-384.2 -24.7 -383.65 -25.05 Q-382.55 -25.05 -381.55 -25.5 L-381.2 -25.9 -380.95 -26.2 -380.8 -26.6 -380.7 -26.95 -380.55 -27.35 -380.55 -27.7 Q-376.6 -26.7 -373.1 -25.5 L-373.05 -25.5 -373.0 -25.6 -364.55 -24.55 -364.55 -24.0 -364.5 -23.7 -364.55 -23.45 -364.55 -22.9 -364.55 -22.5 -364.45 -22.1 -364.25 -21.7 -364.0 -21.25 -363.4 -20.8 Q-362.25 -20.1 -361.0 -20.1 L-360.35 -20.15 -359.05 -20.7 Q-357.65 -20.55 -356.3 -21.1 L-355.8 -22.0 Q-355.45 -22.6 -355.1 -23.2 L-354.8 -23.95 -354.65 -24.7 -354.55 -25.1 -354.4 -25.65 -354.25 -26.2 -354.15 -26.6 -354.1 -27.15 -354.2 -27.95 -354.3 -28.5 -354.35 -28.9 -354.55 -29.45 -354.7 -30.05 -354.75 -30.4 -354.8 -30.8 -354.8 -31.15 -354.85 -31.55 -354.9 -31.95 -355.05 -32.35 -355.35 -32.7 -355.75 -33.2 -355.95 -33.6 -356.25 -33.95 -356.8 -34.8 -357.15 -35.5 -357.5 -36.35 -358.6 -40.8 -359.4 -43.6 -359.8 -44.4 -361.4 -48.5 -362.35 -50.95 -362.4 -51.35 -362.45 -51.75 -362.5 -52.15 -362.55 -52.5 -362.55 -52.9 -362.75 -53.25 -362.75 -53.65 -362.75 -54.05 -362.85 -54.4 -362.85 -55.0 -362.85 -55.5 -362.85 -55.9 -362.8 -56.45 -362.75 -57.0 -362.65 -57.35 -362.55 -57.7 -362.4 -58.05 -362.25 -58.65 -362.15 -59.0 -362.05 -59.4 -362.0 -59.95 Q-362.1 -60.9 -362.75 -61.65 L-364.6 -63.15 -364.6 -63.3 Q-365.15 -64.25 -366.3 -64.85 -367.5 -65.5 -368.85 -65.7 L-369.1 -65.55 -370.1 -65.35 -370.55 -65.0 -371.05 -64.7 Q-371.35 -64.5 -371.6 -64.35 L-372.1 -63.85 -373.4 -62.55 -374.45 -61.45 -375.1 -60.8 -376.85 -58.8 -378.45 -57.1 -380.85 -55.75 -383.25 -53.9 -384.3 -52.8 -386.7 -50.9 -388.5 -49.1 -389.1 -48.45 -390.15 -47.4 -391.05 -46.65 -391.55 -46.05 -392.25 -45.35 -393.0 -44.6 -393.5 -44.1 -393.85 -43.8 -394.15 -43.4 -397.1 -40.05 -398.5 -38.1 -398.7 -37.75 -400.8 -33.8 Q-401.7 -32.55 -402.2 -31.05 L-402.55 -30.2 -402.85 -29.5 -403.2 -28.55 -403.5 -27.6 -403.7 -26.8 -403.75 -26.45 -403.9 -26.1 -404.1 -25.55 -404.3 -25.05 -404.6 -24.5 -404.75 -24.0 -404.95 -23.4 -405.1 -22.85 -405.2 -22.5 -405.3 -22.1 -405.4 -21.75 -405.55 -21.4 -405.8 -20.15 -406.0 -19.25 -406.2 -18.35"/>
    </path>
    <path d="M-399.25 -23.0 L-399.1 -22.9 -399.1 -23.0 -394.45 -26.75 -394.35 -26.85 Q-393.1 -27.5 -391.9 -28.15 -389.7 -30.2 -386.7 -30.95 L-386.5 -31.05 -386.0 -31.25 -386.0 -31.55 -386.0 -31.65 -386.0 -31.85 -386.0 -32.0 -386.0 -32.2 -386.0 -32.4 -385.9 -32.75 -385.75 -33.15 -385.75 -33.15 -385.1 -33.85 -384.4 -34.55 -384.4 -34.65 Q-376.4 -36.3 -368.1 -33.5 L-368.0 -33.5 -367.5 -33.65 -367.4 -33.65 -367.2 -33.85 -367.0 -34.0 -366.9 -34.1 -366.65 -34.25 Q-364.3 -35.1 -362.4 -33.9 L-362.2 -33.7 -362.0 -33.5 -361.65 -33.15 -361.4 -32.75 -361.2 -32.35 -361.2 -32.25 -361.1 -32.35 -361.0 -32.5 -360.9 -32.6 -360.6 -32.85 -360.55 -32.9 -360.75 -33.3 -361.35 -33.9 -361.45 -34.0 -362.15 -34.65 Q-363.75 -37.75 -365.35 -40.8 L-365.65 -41.3 Q-367.25 -44.05 -368.3 -47.1 L-368.5 -47.7 -368.5 -47.8 -368.9 -48.5 -369.05 -49.4 -369.2 -50.05 -369.55 -51.0 -369.75 -51.4 -369.85 -51.5 -369.95 -51.8 -370.0 -51.9 -370.0 -52.25 -370.0 -52.65 -370.0 -53.0 -370.1 -53.3 -370.25 -53.75 -370.35 -54.05 -370.5 -54.5 -370.5 -54.9 -370.5 -55.0 -370.5 -55.25 -370.5 -55.35 -370.65 -55.6 -370.65 -55.7 -370.85 -56.0 -370.85 -56.1 -371.0 -56.4 -370.9 -58.95 -370.9 -59.35 Q-370.75 -60.75 -371.3 -61.85 L-371.55 -62.25 -371.55 -62.25 Q-371.65 -62.4 -371.9 -62.4 L-372.1 -62.05 -372.4 -61.65 -372.85 -60.85 -373.0 -60.5 -373.35 -60.1 -373.75 -59.75 -373.85 -59.6 -374.15 -59.4 -374.45 -58.65 -374.75 -58.25 -375.3 -57.5 -375.5 -57.15 -375.9 -56.75 -376.3 -56.45 -376.6 -56.2 -377.0 -56.0 -381.75 -51.05 -382.15 -50.65 Q-383.3 -49.75 -384.4 -48.85 L-385.0 -48.5 -385.2 -48.3 -385.75 -47.75 -386.15 -47.4 Q-386.45 -46.6 -387.0 -45.95 L-387.45 -45.45 -388.05 -44.9 -388.65 -44.4 Q-388.95 -43.6 -389.5 -42.95 L-389.95 -42.45 -391.0 -41.5 -391.5 -41.0 -392.75 -39.0 -393.15 -38.4 -394.1 -36.45 -394.4 -35.75 -394.7 -35.25 -395.1 -34.55 -395.4 -34.1 -396.0 -33.5 -396.3 -32.25 -396.65 -31.55 -397.05 -30.85 -397.5 -30.05 -397.5 -29.75 -397.5 -29.4 -398.05 -27.7 -398.25 -27.15 -398.45 -26.55 -398.7 -25.85 -398.9 -25.25 -399.0 -24.7 -399.15 -23.4 -399.25 -23.0" fill="#80a839" fill-rule="evenodd" stroke="none">
      <animate attributeName="fill" dur="2s" repeatCount="indefinite" values="#80a839;#80a83a"/>
      <animate attributeName="fill-opacity" dur="2s" repeatCount="indefinite" values="1.0;1.0"/>
      <animate attributeName="d" dur="2s" repeatCount="indefinite" values="M-399.25 -23.0 L-399.1 -22.9 -399.1 -23.0 -394.45 -26.75 -394.35 -26.85 Q-393.1 -27.5 -391.9 -28.15 -389.7 -30.2 -386.7 -30.95 L-386.5 -31.05 -386.0 -31.25 -386.0 -31.55 -386.0 -31.65 -386.0 -31.85 -386.0 -32.0 -386.0 -32.2 -386.0 -32.4 -385.9 -32.75 -385.75 -33.15 -385.75 -33.15 -385.1 -33.85 -384.4 -34.55 -384.4 -34.65 Q-376.4 -36.3 -368.1 -33.5 L-368.0 -33.5 -367.5 -33.65 -367.4 -33.65 -367.2 -33.85 -367.0 -34.0 -366.9 -34.1 -366.65 -34.25 Q-364.3 -35.1 -362.4 -33.9 L-362.2 -33.7 -362.0 -33.5 -361.65 -33.15 -361.4 -32.75 -361.2 -32.35 -361.2 -32.25 -361.1 -32.35 -361.0 -32.5 -360.9 -32.6 -360.6 -32.85 -360.55 -32.9 -360.75 -33.3 -361.35 -33.9 -361.45 -34.0 -362.15 -34.65 Q-363.75 -37.75 -365.35 -40.8 L-365.65 -41.3 Q-367.25 -44.05 -368.3 -47.1 L-368.5 -47.7 -368.5 -47.8 -368.9 -48.5 -369.05 -49.4 -369.2 -50.05 -369.55 -51.0 -369.75 -51.4 -369.85 -51.5 -369.95 -51.8 -370.0 -51.9 -370.0 -52.25 -370.0 -52.65 -370.0 -53.0 -370.1 -53.3 -370.25 -53.75 -370.35 -54.05 -370.5 -54.5 -370.5 -54.9 -370.5 -55.0 -370.5 -55.25 -370.5 -55.35 -370.65 -55.6 -370.65 -55.7 -370.85 -56.0 -370.85 -56.1 -371.0 -56.4 -370.9 -58.95 -370.9 -59.35 Q-370.75 -60.75 -371.3 -61.85 L-371.55 -62.25 -371.55 -62.25 Q-371.65 -62.4 -371.9 -62.4 L-372.1 -62.05 -372.4 -61.65 -372.85 -60.85 -373.0 -60.5 -373.35 -60.1 -373.75 -59.75 -373.85 -59.6 -374.15 -59.4 -374.45 -58.65 -374.75 -58.25 -375.3 -57.5 -375.5 -57.15 -375.9 -56.75 -376.3 -56.45 -376.6 -56.2 -377.0 -56.0 -381.75 -51.05 -382.15 -50.65 Q-383.3 -49.75 -384.4 -48.85 L-385.0 -48.5 -385.2 -48.3 -385.75 -47.75 -386.15 -47.4 Q-386.45 -46.6 -387.0 -45.95 L-387.45 -45.45 -388.05 -44.9 -388.65 -44.4 Q-388.95 -43.6 -389.5 -42.95 L-389.95 -42.45 -391.0 -41.5 -391.5 -41.0 -392.75 -39.0 -393.15 -38.4 -394.1 -36.45 -394.4 -35.75 -394.7 -35.25 -395.1 -34.55 -395.4 -34.1 -396.0 -33.5 -396.3 -32.25 -396.65 -31.55 -397.05 -30.85 -397.5 -30.05 -397.5 -29.75 -397.5 -29.4 -398.05 -27.7 -398.25 -27.15 -398.45 -26.55 -398.7 -25.85 -398.9 -25.25 -399.0 -24.7 -399.15 -23.4 -399.25 -23.0;M-399.25 -23.3 L-399.25 -23.3 -399.2 -23.2 -394.25 -26.5 -394.15 -26.6 Q-392.95 -27.3 -391.5 -27.7 -389.05 -29.65 -385.9 -30.1 L-385.7 -30.15 -385.35 -30.25 -385.35 -30.65 -385.35 -30.65 -385.3 -30.95 -385.3 -31.15 -385.25 -31.35 -385.2 -31.45 -385.1 -31.7 -384.95 -32.1 -384.9 -32.1 -384.15 -32.75 -383.45 -33.45 -383.35 -33.45 Q-375.25 -34.35 -367.3 -30.8 L-367.2 -30.8 -366.7 -30.9 -366.6 -31.0 -366.3 -31.2 -366.0 -31.35 -365.9 -31.4 -365.5 -31.5 Q-363.05 -31.95 -361.4 -30.2 L-361.05 -29.85 -360.9 -29.55 -360.8 -29.25 -360.7 -28.9 -360.45 -29.15 -360.35 -29.2 -360.25 -29.3 -360.05 -29.4 -360.0 -29.5 -360.15 -29.85 -360.25 -30.05 -360.7 -30.55 -361.3 -31.25 -361.4 -31.35 -361.6 -32.05 Q-362.75 -35.2 -364.25 -38.3 L-364.45 -38.8 Q-365.8 -41.7 -366.5 -44.9 L-366.7 -45.6 -366.8 -45.75 -366.8 -46.35 -366.95 -47.3 -367.1 -47.9 -367.45 -48.8 -367.6 -49.2 -367.6 -49.3 -367.55 -49.55 -367.55 -49.65 -367.5 -49.95 -367.5 -50.3 -367.6 -50.7 -367.65 -51.05 -367.75 -51.45 -367.8 -51.8 -367.8 -52.2 -367.75 -52.5 -367.75 -52.55 -367.85 -52.8 -367.9 -52.9 -368.0 -53.25 -368.05 -53.35 -368.15 -53.65 -368.15 -53.75 -368.15 -54.05 -367.75 -56.65 -367.7 -57.05 Q-367.55 -58.45 -368.15 -59.6 L-368.4 -59.75 -368.5 -59.75 Q-368.65 -59.55 -368.8 -59.4 L-369.05 -59.1 -369.3 -58.8 -369.75 -58.0 -370.15 -57.65 -370.55 -57.35 -370.9 -57.1 -371.0 -57.0 -371.25 -56.5 -371.7 -55.95 -372.0 -55.65 -372.55 -54.9 -372.95 -54.55 -373.4 -54.3 -373.75 -54.1 -374.15 -53.9 -374.45 -53.6 -379.75 -49.1 -380.2 -48.7 Q-381.35 -47.8 -382.75 -47.25 L-383.4 -46.65 -383.55 -46.55 -384.1 -46.1 -384.3 -45.7 Q-384.9 -45.05 -385.45 -44.45 L-386.05 -43.95 -386.75 -43.5 -387.1 -42.9 Q-387.55 -42.2 -388.25 -41.7 L-388.85 -41.25 -389.9 -40.4 -390.3 -39.8 -391.75 -38.0 -392.15 -37.4 -393.25 -35.5 -393.75 -34.85 -394.05 -34.35 -394.6 -33.7 -395.05 -33.4 -395.3 -32.6 -395.9 -31.55 -396.35 -30.85 -396.85 -30.2 -396.95 -29.45 -397.15 -29.15 -397.25 -28.85 -397.85 -27.3 -398.0 -26.9 -398.15 -26.6 -398.45 -25.9 -398.6 -25.5 -398.85 -25.15 -399.15 -23.7 -399.25 -23.3"/>
    </path>
    <path d="M-405.5 -19.9 L-405.4 -20.25 -405.25 -20.65 -405.15 -21.0 -405.0 -21.4 -405.0 -21.75 -405.0 -22.15 -405.0 -22.5 -404.75 -23.25 -404.5 -24.0 -404.2 -24.75 -404.0 -25.15 -404.0 -25.5 -404.0 -25.9 -404.0 -26.25 -404.0 -26.65 -403.6 -27.8 -403.2 -29.3 -402.5 -30.75 -402.5 -31.15 -402.5 -31.5 Q-401.85 -33.65 -400.75 -35.6 L-396.75 -42.75 -396.4 -43.15 -396.0 -43.5 -395.25 -44.25 -395.05 -44.65 -394.85 -45.0 -394.65 -45.4 -393.5 -46.5 -392.4 -47.65 -391.65 -48.4 -391.2 -49.1 -390.4 -50.3 -390.0 -51.0 -387.1 -53.85 -383.4 -56.65 -381.9 -58.15 -380.4 -59.65 -379.65 -60.4 -378.2 -62.6 -376.45 -65.3 -376.0 -66.0 -375.65 -66.4 -375.25 -66.75 -374.9 -67.15 Q-374.5 -67.3 -374.15 -67.55 L-373.65 -67.9 -373.15 -68.25 -372.0 -68.45 -372.0 -68.5 Q-369.7 -68.0 -367.6 -66.6 -366.0 -65.55 -365.5 -63.75 L-365.5 -63.4 -365.5 -63.0 Q-365.5 -62.85 -365.5 -62.65 L-365.5 -61.9 -365.65 -61.5 -365.75 -61.15 -365.9 -60.75 -366.0 -60.4 -366.0 -60.0 -366.0 -59.65 -366.0 -58.9 -366.0 -58.15 -365.9 -57.75 -365.75 -57.4 -365.65 -57.0 -365.5 -56.65 -365.5 -56.25 -365.5 -55.9 -365.3 -55.5 -365.15 -55.15 -365.0 -54.75 -365.0 -54.4 -365.0 -54.0 -365.0 -53.65 -363.1 -49.25 -359.9 -41.65 -359.1 -40.45 -358.5 -39.4 -357.9 -38.25 -357.75 -37.9 -357.45 -37.55 -356.75 -37.1 -356.25 -36.75 -356.0 -36.4 -355.8 -36.0 -355.65 -35.65 -355.5 -35.25 -355.5 -34.9 -355.5 -34.5 -355.5 -34.15 -355.4 -33.75 -355.25 -33.4 -354.9 -32.65 -354.5 -31.9 -354.5 -31.5 -354.5 -31.15 -354.5 -30.4 -354.5 -29.65 -354.65 -29.25 -354.85 -28.85 -355.0 -28.5 -355.0 -28.0 -355.0 -26.9 -355.4 -25.75 Q-355.85 -24.7 -356.65 -23.9 L-357.4 -23.25 Q-359.7 -23.35 -362.05 -23.45 L-363.15 -23.75 -363.6 -24.15 Q-363.8 -24.3 -364.0 -24.5 L-364.25 -24.9 -364.4 -25.25 -364.5 -25.65 -364.5 -26.0 -364.5 -26.4 -364.45 -27.15 -364.45 -27.25 -364.55 -27.5 -364.75 -27.9 -381.0 -29.75 -381.0 -29.4 -381.0 -29.0 Q-381.0 -28.85 -381.0 -28.65 L-381.0 -28.25 -381.15 -27.9 -381.3 -27.5 -381.5 -27.15 -381.8 -26.8 -382.25 -26.4 Q-384.0 -25.65 -386.0 -25.75 L-386.75 -25.4 -387.5 -25.0 Q-388.35 -24.3 -389.2 -23.6 -390.55 -22.7 -392.0 -22.0 L-397.3 -17.05 Q-399.55 -14.85 -401.9 -12.75 L-402.25 -12.65 -403.0 -12.5 -404.15 -12.75 -404.6 -13.15 -405.0 -13.5 -405.25 -13.9 -405.4 -14.25 -405.5 -14.65 -405.5 -16.15 -405.5 -17.65 -405.5 -19.9 M-399.4 -22.75 L-399.25 -23.0 -399.0 -24.5 -399.0 -24.9 -398.9 -25.15 -398.7 -25.75 -398.45 -26.45 -398.35 -26.75 -398.25 -27.15 -398.1 -27.55 -397.5 -29.4 -397.5 -29.75 -397.5 -29.95 -397.5 -30.15 -397.1 -30.75 -396.65 -31.55 -396.35 -32.15 Q-396.05 -32.8 -396.0 -33.5 L-395.45 -34.0 -395.1 -34.55 -394.75 -35.15 -394.4 -35.75 -394.2 -36.35 -393.15 -38.4 -392.85 -38.9 -391.5 -41.0 -391.05 -41.4 -389.95 -42.45 -389.5 -42.85 Q-389.1 -43.6 -388.65 -44.4 L-388.15 -44.85 -387.45 -45.45 -387.0 -45.85 Q-386.45 -46.55 -386.15 -47.4 L-385.75 -47.7 -385.2 -48.25 -385.0 -48.5 -384.5 -48.8 Q-383.2 -49.55 -382.15 -50.65 L-381.85 -50.95 -377.0 -56.0 -376.7 -56.15 -376.3 -56.45 -376.0 -56.7 -375.5 -57.15 -375.3 -57.45 -374.75 -58.25 -374.55 -58.55 Q-374.35 -58.95 -374.15 -59.4 L-373.95 -59.55 -373.75 -59.75 -373.45 -60.05 -373.0 -60.5 -372.9 -60.8 -372.4 -61.65 -372.2 -61.95 -371.9 -62.4 -371.6 -62.3 -371.55 -62.25 -371.35 -61.95 Q-370.75 -60.8 -370.9 -59.35 L-370.9 -59.05 -371.0 -56.4 -370.9 -56.2 -370.85 -56.0 -370.75 -55.8 -370.65 -55.6 -370.55 -55.4 -370.5 -55.25 -370.5 -55.05 -370.5 -54.9 -370.5 -54.6 -370.5 -54.5 -370.4 -54.15 -370.25 -53.75 -370.15 -53.4 -370.0 -53.0 -370.0 -52.75 -370.0 -52.65 -370.0 -52.35 -370.0 -52.25 -370.0 -51.9 -369.85 -51.5 -369.6 -51.05 -369.2 -50.05 -369.05 -49.5 -368.9 -48.5 -368.6 -47.9 -368.5 -47.7 -368.3 -47.2 Q-367.25 -44.05 -365.65 -41.3 L-365.4 -40.9 Q-363.55 -37.8 -362.15 -34.65 L-361.55 -34.1 -361.35 -33.9 -360.8 -33.35 -360.55 -32.9 -360.6 -32.85 -360.8 -32.65 -360.8 -32.65 -361.0 -32.5 -361.0 -32.45 -361.1 -32.35 -361.2 -32.25 -361.3 -32.45 -361.65 -33.15 -362.0 -33.5 -362.0 -33.5 -362.2 -33.7 Q-364.15 -35.15 -366.65 -34.25 L-366.75 -34.2 -367.0 -34.0 -367.0 -33.95 -367.4 -33.65 -367.4 -33.65 -367.9 -33.5 -368.0 -33.5 Q-376.25 -36.25 -384.2 -34.65 L-384.4 -34.65 -384.9 -34.05 -385.1 -33.85 -385.55 -33.35 -385.75 -33.15 -385.85 -32.95 -385.9 -32.75 -386.0 -32.5 -386.0 -32.4 -386.0 -32.1 -386.0 -32.0 -386.0 -31.8 -386.0 -31.65 -386.0 -31.45 -386.0 -31.25 -386.5 -31.05 Q-389.5 -30.35 -391.7 -28.35 L-391.9 -28.15 Q-393.1 -27.65 -394.15 -26.95 L-394.45 -26.75 -398.9 -23.15 -399.1 -23.0 -399.4 -22.75 M-399.25 -23.0 L-399.15 -23.4 -399.0 -24.7 -398.9 -25.25 -398.7 -25.85 -398.45 -26.55 -398.25 -27.15 -398.05 -27.7 -397.5 -29.4 -397.5 -29.75 -397.5 -30.05 -397.05 -30.85 -396.65 -31.55 -396.3 -32.25 -396.0 -33.5 -395.4 -34.1 -395.1 -34.55 -394.7 -35.25 -394.4 -35.75 -394.1 -36.45 -393.15 -38.4 -392.75 -39.0 -391.5 -41.0 -391.0 -41.5 -389.95 -42.45 -389.5 -42.95 Q-388.95 -43.6 -388.65 -44.4 L-388.05 -44.9 -387.45 -45.45 -387.0 -45.95 Q-386.45 -46.6 -386.15 -47.4 L-385.75 -47.75 -385.2 -48.3 -385.0 -48.5 -384.4 -48.85 Q-383.3 -49.75 -382.15 -50.65 L-381.75 -51.05 -377.0 -56.0 -376.6 -56.2 -376.3 -56.45 -375.9 -56.75 -375.5 -57.15 -375.3 -57.5 -374.75 -58.25 -374.45 -58.65 -374.15 -59.4 -373.85 -59.6 -373.75 -59.75 -373.35 -60.1 -373.0 -60.5 -372.85 -60.85 -372.4 -61.65 -372.1 -62.05 -371.9 -62.4 Q-371.65 -62.4 -371.55 -62.25 L-371.55 -62.25 -371.3 -61.85 Q-370.75 -60.75 -370.9 -59.35 L-370.9 -58.95 -371.0 -56.4 -370.85 -56.1 -370.85 -56.0 -370.65 -55.7 -370.65 -55.6 -370.5 -55.35 -370.5 -55.25 -370.5 -55.0 -370.5 -54.9 -370.5 -54.5 -370.35 -54.05 -370.25 -53.75 -370.1 -53.3 -370.0 -53.0 -370.0 -52.65 -370.0 -52.25 -370.0 -51.9 -369.95 -51.8 -369.85 -51.5 -369.75 -51.4 -369.55 -51.0 -369.2 -50.05 -369.05 -49.4 -368.9 -48.5 -368.5 -47.8 -368.5 -47.7 -368.3 -47.1 Q-367.25 -44.05 -365.65 -41.3 L-365.35 -40.8 Q-363.75 -37.75 -362.15 -34.65 L-361.45 -34.0 -361.35 -33.9 -360.75 -33.3 -360.55 -32.9 -360.6 -32.85 -360.9 -32.6 -361.0 -32.5 -361.1 -32.35 -361.2 -32.25 -361.2 -32.35 -361.4 -32.75 -361.65 -33.15 -362.0 -33.5 -362.2 -33.7 -362.4 -33.9 Q-364.3 -35.1 -366.65 -34.25 L-366.9 -34.1 -367.0 -34.0 -367.2 -33.85 -367.4 -33.65 -367.5 -33.65 -368.0 -33.5 -368.1 -33.5 Q-376.4 -36.3 -384.4 -34.65 L-384.4 -34.55 -385.1 -33.85 -385.75 -33.15 -385.75 -33.15 -385.9 -32.75 -386.0 -32.4 -386.0 -32.2 -386.0 -32.0 -386.0 -31.85 -386.0 -31.65 -386.0 -31.55 -386.0 -31.25 -386.5 -31.05 -386.7 -30.95 Q-389.7 -30.2 -391.9 -28.15 -393.1 -27.5 -394.35 -26.85 L-394.45 -26.75 -399.1 -23.0 -399.1 -22.9 -399.25 -23.0 Z" fill="none" stroke="#000000" stroke-linecap="round" stroke-linejoin="round" stroke-opacity="0.0" stroke-width="0.0">
      <animate attributeName="stroke" dur="2s" repeatCount="indefinite" values="#000000;#000001"/>
      <animate attributeName="stroke-width" dur="2s" repeatCount="indefinite" values="0.0;0.0"/>
      <animate attributeName="fill-opacity" dur="2s" repeatCount="indefinite" values="0.0;0.0"/>
      <animate attributeName="d" dur="2s" repeatCount="indefinite" values="M-405.5 -19.9 L-405.4 -20.25 -405.25 -20.65 -405.15 -21.0 -405.0 -21.4 -405.0 -21.75 -405.0 -22.15 -405.0 -22.5 -404.75 -23.25 -404.5 -24.0 -404.2 -24.75 -404.0 -25.15 -404.0 -25.5 -404.0 -25.9 -404.0 -26.25 -404.0 -26.65 -403.6 -27.8 -403.2 -29.3 -402.5 -30.75 -402.5 -31.15 -402.5 -31.5 Q-401.85 -33.65 -400.75 -35.6 L-396.75 -42.75 -396.4 -43.15 -396.0 -43.5 -395.25 -44.25 -395.05 -44.65 -394.85 -45.0 -394.65 -45.4 -393.5 -46.5 -392.4 -47.65 -391.65 -48.4 -391.2 -49.1 -390.4 -50.3 -390.0 -51.0 -387.1 -53.85 -383.4 -56.65 -381.9 -58.15 -380.4 -59.65 -379.65 -60.4 -378.2 -62.6 -376.45 -65.3 -376.0 -66.0 -375.65 -66.4 -375.25 -66.75 -374.9 -67.15 Q-374.5 -67.3 -374.15 -67.55 L-373.65 -67.9 -373.15 -68.25 -372.0 -68.45 -372.0 -68.5 Q-369.7 -68.0 -367.6 -66.6 -366.0 -65.55 -365.5 -63.75 L-365.5 -63.4 -365.5 -63.0 Q-365.5 -62.85 -365.5 -62.65 L-365.5 -61.9 -365.65 -61.5 -365.75 -61.15 -365.9 -60.75 -366.0 -60.4 -366.0 -60.0 -366.0 -59.65 -366.0 -58.9 -366.0 -58.15 -365.9 -57.75 -365.75 -57.4 -365.65 -57.0 -365.5 -56.65 -365.5 -56.25 -365.5 -55.9 -365.3 -55.5 -365.15 -55.15 -365.0 -54.75 -365.0 -54.4 -365.0 -54.0 -365.0 -53.65 -363.1 -49.25 -359.9 -41.65 -359.1 -40.45 -358.5 -39.4 -357.9 -38.25 -357.75 -37.9 -357.45 -37.55 -356.75 -37.1 -356.25 -36.75 -356.0 -36.4 -355.8 -36.0 -355.65 -35.65 -355.5 -35.25 -355.5 -34.9 -355.5 -34.5 -355.5 -34.15 -355.4 -33.75 -355.25 -33.4 -354.9 -32.65 -354.5 -31.9 -354.5 -31.5 -354.5 -31.15 -354.5 -30.4 -354.5 -29.65 -354.65 -29.25 -354.85 -28.85 -355.0 -28.5 -355.0 -28.0 -355.0 -26.9 -355.4 -25.75 Q-355.85 -24.7 -356.65 -23.9 L-357.4 -23.25 Q-359.7 -23.35 -362.05 -23.45 L-363.15 -23.75 -363.6 -24.15 Q-363.8 -24.3 -364.0 -24.5 L-364.25 -24.9 -364.4 -25.25 -364.5 -25.65 -364.5 -26.0 -364.5 -26.4 -364.45 -27.15 -364.45 -27.25 -364.55 -27.5 -364.75 -27.9 -381.0 -29.75 -381.0 -29.4 -381.0 -29.0 Q-381.0 -28.85 -381.0 -28.65 L-381.0 -28.25 -381.15 -27.9 -381.3 -27.5 -381.5 -27.15 -381.8 -26.8 -382.25 -26.4 Q-384.0 -25.65 -386.0 -25.75 L-386.75 -25.4 -387.5 -25.0 Q-388.35 -24.3 -389.2 -23.6 -390.55 -22.7 -392.0 -22.0 L-397.3 -17.05 Q-399.55 -14.85 -401.9 -12.75 L-402.25 -12.65 -403.0 -12.5 -404.15 -12.75 -404.6 -13.15 -405.0 -13.5 -405.25 -13.9 -405.4 -14.25 -405.5 -14.65 -405.5 -16.15 -405.5 -17.65 -405.5 -19.9 M-399.4 -22.75 L-399.25 -23.0 -399.0 -24.5 -399.0 -24.9 -398.9 -25.15 -398.7 -25.75 -398.45 -26.45 -398.35 -26.75 -398.25 -27.15 -398.1 -27.55 -397.5 -29.4 -397.5 -29.75 -397.5 -29.95 -397.5 -30.15 -397.1 -30.75 -396.65 -31.55 -396.35 -32.15 Q-396.05 -32.8 -396.0 -33.5 L-395.45 -34.0 -395.1 -34.55 -394.75 -35.15 -394.4 -35.75 -394.2 -36.35 -393.15 -38.4 -392.85 -38.9 -391.5 -41.0 -391.05 -41.4 -389.95 -42.45 -389.5 -42.85 Q-389.1 -43.6 -388.65 -44.4 L-388.15 -44.85 -387.45 -45.45 -387.0 -45.85 Q-386.45 -46.55 -386.15 -47.4 L-385.75 -47.7 -385.2 -48.25 -385.0 -48.5 -384.5 -48.8 Q-383.2 -49.55 -382.15 -50.65 L-381.85 -50.95 -377.0 -56.0 -376.7 -56.15 -376.3 -56.45 -376.0 -56.7 -375.5 -57.15 -375.3 -57.45 -374.75 -58.25 -374.55 -58.55 Q-374.35 -58.95 -374.15 -59.4 L-373.95 -59.55 -373.75 -59.75 -373.45 -60.05 -373.0 -60.5 -372.9 -60.8 -372.4 -61.65 -372.2 -61.95 -371.9 -62.4 -371.6 -62.3 -371.55 -62.25 -371.35 -61.95 Q-370.75 -60.8 -370.9 -59.35 L-370.9 -59.05 -371.0 -56.4 -370.9 -56.2 -370.85 -56.0 -370.75 -55.8 -370.65 -55.6 -370.55 -55.4 -370.5 -55.25 -370.5 -55.05 -370.5 -54.9 -370.5 -54.6 -370.5 -54.5 -370.4 -54.15 -370.25 -53.75 -370.15 -53.4 -370.0 -53.0 -370.0 -52.75 -370.0 -52.65 -370.0 -52.35 -370.0 -52.25 -370.0 -51.9 -369.85 -51.5 -369.6 -51.05 -369.2 -50.05 -369.05 -49.5 -368.9 -48.5 -368.6 -47.9 -368.5 -47.7 -368.3 -47.2 Q-367.25 -44.05 -365.65 -41.3 L-365.4 -40.9 Q-363.55 -37.8 -362.15 -34.65 L-361.55 -34.1 -361.35 -33.9 -360.8 -33.35 -360.55 -32.9 -360.6 -32.85 -360.8 -32.65 -360.8 -32.65 -361.0 -32.5 -361.0 -32.45 -361.1 -32.35 -361.2 -32.25 -361.3 -32.45 -361.65 -33.15 -362.0 -33.5 -362.0 -33.5 -362.2 -33.7 Q-364.15 -35.15 -366.65 -34.25 L-366.75 -34.2 -367.0 -34.0 -367.0 -33.95 -367.4 -33.65 -367.4 -33.65 -367.9 -33.5 -368.0 -33.5 Q-376.25 -36.25 -384.2 -34.65 L-384.4 -34.65 -384.9 -34.05 -385.1 -33.85 -385.55 -33.35 -385.75 -33.15 -385.85 -32.95 -385.9 -32.75 -386.0 -32.5 -386.0 -32.4 -386.0 -32.1 -386.0 -32.0 -386.0 -31.8 -386.0 -31.65 -386.0 -31.45 -386.0 -31.25 -386.5 -31.05 Q-389.5 -30.35 -391.7 -28.35 L-391.9 -28.15 Q-393.1 -27.65 -394.15 -26.95 L-394.45 -26.75 -398.9 -23.15 -399.1 -23.0 -399.4 -22.75 M-399.25 -23.0 L-399.15 -23.4 -399.0 -24.7 -398.9 -25.25 -398.7 -25.85 -398.45 -26.55 -398.25 -27.15 -398.05 -27.7 -397.5 -29.4 -397.5 -29.75 -397.5 -30.05 -397.05 -30.85 -396.65 -31.55 -396.3 -32.25 -396.0 -33.5 -395.4 -34.1 -395.1 -34.55 -394.7 -35.25 -394.4 -35.75 -394.1 -36.45 -393.15 -38.4 -392.75 -39.0 -391.5 -41.0 -391.0 -41.5 -389.95 -42.45 -389.5 -42.95 Q-388.95 -43.6 -388.65 -44.4 L-388.05 -44.9 -387.45 -45.45 -387.0 -45.95 Q-386.45 -46.6 -386.15 -47.4 L-385.75 -47.75 -385.2 -48.3 -385.0 -48.5 -384.4 -48.85 Q-383.3 -49.75 -382.15 -50.65 L-381.75 -51.05 -377.0 -56.0 -376.6 -56.2 -376.3 -56.45 -375.9 -56.75 -375.5 -57.15 -375.3 -57.5 -374.75 -58.25 -374.45 -58.65 -374.15 -59.4 -373.85 -59.6 -373.75 -59.75 -373.35 -60.1 -373.0 -60.5 -372.85 -60.85 -372.4 -61.65 -372.1 -62.05 -371.9 -62.4 Q-371.65 -62.4 -371.55 -62.25 L-371.55 -62.25 -371.3 -61.85 Q-370.75 -60.75 -370.9 -59.35 L-370.9 -58.95 -371.0 -56.4 -370.85 -56.1 -370.85 -56.0 -370.65 -55.7 -370.65 -55.6 -370.5 -55.35 -370.5 -55.25 -370.5 -55.0 -370.5 -54.9 -370.5 -54.5 -370.35 -54.05 -370.25 -53.75 -370.1 -53.3 -370.0 -53.0 -370.0 -52.65 -370.0 -52.25 -370.0 -51.9 -369.95 -51.8 -369.85 -51.5 -369.75 -51.4 -369.55 -51.0 -369.2 -50.05 -369.05 -49.4 -368.9 -48.5 -368.5 -47.8 -368.5 -47.7 -368.3 -47.1 Q-367.25 -44.05 -365.65 -41.3 L-365.35 -40.8 Q-363.75 -37.75 -362.15 -34.65 L-361.45 -34.0 -361.35 -33.9 -360.75 -33.3 -360.55 -32.9 -360.6 -32.85 -360.9 -32.6 -361.0 -32.5 -361.1 -32.35 -361.2 -32.25 -361.2 -32.35 -361.4 -32.75 -361.65 -33.15 -362.0 -33.5 -362.2 -33.7 -362.4 -33.9 Q-364.3 -35.1 -366.65 -34.25 L-366.9 -34.1 -367.0 -34.0 -367.2 -33.85 -367.4 -33.65 -367.5 -33.65 -368.0 -33.5 -368.1 -33.5 Q-376.4 -36.3 -384.4 -34.65 L-384.4 -34.55 -385.1 -33.85 -385.75 -33.15 -385.75 -33.15 -385.9 -32.75 -386.0 -32.4 -386.0 -32.2 -386.0 -32.0 -386.0 -31.85 -386.0 -31.65 -386.0 -31.55 -386.0 -31.25 -386.5 -31.05 -386.7 -30.95 Q-389.7 -30.2 -391.9 -28.15 -393.1 -27.5 -394.35 -26.85 L-394.45 -26.75 -399.1 -23.0 -399.1 -22.9 -399.25 -23.0 Z;M-406.2 -18.35 L-406.0 -19.25 -405.8 -20.15 -405.55 -21.4 -405.4 -21.75 -405.3 -22.1 -405.2 -22.5 -405.1 -22.85 -404.95 -23.4 -404.75 -24.0 -404.6 -24.5 -404.3 -25.05 -404.1 -25.55 -403.9 -26.1 -403.75 -26.45 -403.7 -26.8 -403.5 -27.6 -403.2 -28.55 -402.85 -29.5 -402.55 -30.2 -402.2 -31.05 Q-401.7 -32.55 -400.8 -33.8 L-398.7 -37.75 -398.5 -38.1 -397.1 -40.05 -394.15 -43.4 -393.85 -43.8 -393.5 -44.1 -393.0 -44.6 -392.25 -45.35 -391.55 -46.05 -391.05 -46.65 -390.15 -47.4 -389.1 -48.45 -388.5 -49.1 -386.7 -50.9 -384.3 -52.8 -383.25 -53.9 -380.85 -55.75 -378.45 -57.1 -376.85 -58.8 -375.1 -60.8 -374.45 -61.45 -373.4 -62.55 -372.1 -63.85 -371.6 -64.35 Q-371.35 -64.5 -371.05 -64.7 L-370.55 -65.0 -370.1 -65.35 -369.1 -65.55 -368.85 -65.7 Q-367.5 -65.5 -366.3 -64.85 -365.15 -64.25 -364.6 -63.3 L-364.6 -63.15 -362.75 -61.65 Q-362.1 -60.9 -362.0 -59.95 L-362.05 -59.4 -362.15 -59.0 -362.25 -58.65 -362.4 -58.05 -362.55 -57.7 -362.65 -57.35 -362.75 -57.0 -362.8 -56.45 -362.85 -55.9 -362.85 -55.5 -362.85 -55.0 -362.85 -54.4 -362.75 -54.05 -362.75 -53.65 -362.75 -53.25 -362.55 -52.9 -362.55 -52.5 -362.5 -52.15 -362.45 -51.75 -362.4 -51.35 -362.35 -50.95 -361.4 -48.5 -359.8 -44.4 -359.4 -43.6 -358.6 -40.8 -357.5 -36.35 -357.15 -35.5 -356.8 -34.8 -356.25 -33.95 -355.95 -33.6 -355.75 -33.2 -355.35 -32.7 -355.05 -32.35 -354.9 -31.95 -354.85 -31.55 -354.8 -31.15 -354.8 -30.8 -354.75 -30.4 -354.7 -30.05 -354.55 -29.45 -354.35 -28.9 -354.3 -28.5 -354.2 -27.95 -354.1 -27.15 -354.15 -26.6 -354.25 -26.2 -354.4 -25.65 -354.55 -25.1 -354.65 -24.7 -354.8 -23.95 -355.1 -23.2 Q-355.45 -22.6 -355.8 -22.0 L-356.3 -21.1 Q-357.65 -20.55 -359.05 -20.7 L-360.35 -20.15 -361.0 -20.1 Q-362.25 -20.1 -363.4 -20.8 L-364.0 -21.25 -364.25 -21.7 -364.45 -22.1 -364.55 -22.5 -364.55 -22.9 -364.55 -23.45 -364.5 -23.7 -364.55 -24.0 -364.55 -24.55 -373.0 -25.6 -373.05 -25.5 -373.1 -25.5 Q-376.6 -26.7 -380.55 -27.7 L-380.55 -27.35 -380.7 -26.95 -380.8 -26.6 -380.95 -26.2 -381.2 -25.9 -381.55 -25.5 Q-382.55 -25.05 -383.65 -25.05 L-384.2 -24.7 -384.85 -24.35 Q-386.1 -23.75 -387.55 -23.65 -388.45 -23.15 -389.4 -22.75 L-392.55 -20.05 Q-394.2 -18.7 -395.85 -17.3 L-397.5 -16.75 -400.85 -14.85 -404.0 -13.4 -404.4 -13.6 -405.0 -13.8 -405.65 -14.2 -405.9 -14.65 -406.1 -15.05 -406.15 -16.05 -406.2 -17.0 -406.2 -18.35 M-399.4 -23.05 L-399.25 -23.3 -398.9 -24.75 -398.75 -25.25 -398.7 -25.5 -398.45 -25.9 -398.15 -26.6 -398.1 -26.7 -398.0 -27.0 -397.85 -27.3 -397.15 -28.95 -397.05 -29.15 -396.95 -29.45 -396.95 -29.55 -396.85 -30.2 -396.3 -30.95 -395.9 -31.55 Q-395.5 -32.1 -395.25 -32.7 L-395.05 -33.4 -394.5 -33.8 -394.05 -34.35 -393.65 -34.95 -393.25 -35.5 -392.1 -37.5 -391.75 -38.0 -390.3 -39.9 -389.9 -40.4 -388.75 -41.3 -388.25 -41.7 Q-387.5 -42.2 -387.0 -42.95 L-386.75 -43.5 -386.05 -44.05 -385.45 -44.45 Q-384.85 -45.1 -384.25 -45.75 L-384.0 -46.25 -383.55 -46.55 -383.3 -46.75 -382.75 -47.25 Q-381.35 -47.8 -380.15 -48.8 L-379.75 -49.1 -374.35 -53.7 -374.15 -53.9 -373.7 -54.1 -373.4 -54.3 -372.85 -54.65 -372.55 -54.9 -371.9 -55.7 -371.7 -55.95 Q-371.4 -56.25 -371.2 -56.65 L-371.0 -57.0 -370.75 -57.15 -370.55 -57.35 -370.05 -57.75 -369.75 -58.0 -369.25 -58.85 -369.05 -59.1 -368.75 -59.45 -368.5 -59.75 -368.35 -59.75 -368.15 -59.6 Q-367.5 -58.4 -367.7 -56.95 L-367.75 -56.65 -368.15 -53.95 -368.15 -53.75 -368.1 -53.55 -368.05 -53.35 -367.95 -53.1 -367.9 -52.9 -367.8 -52.7 -367.75 -52.55 -367.75 -52.4 -367.8 -52.2 -367.8 -52.1 -367.8 -51.8 -367.7 -51.35 -367.65 -51.05 -367.55 -50.6 -367.5 -50.3 -367.5 -50.2 -367.5 -49.95 -367.5 -49.85 -367.55 -49.55 -367.6 -49.2 -367.45 -48.8 -367.1 -47.8 -366.95 -47.3 -366.8 -46.25 -366.8 -45.75 -366.7 -45.5 -366.5 -44.9 Q-365.8 -41.65 -364.45 -38.7 L-364.25 -38.3 Q-362.75 -35.15 -361.6 -31.95 L-361.4 -31.35 -361.2 -31.15 -360.7 -30.55 -360.2 -29.95 -360.1 -29.75 -360.0 -29.5 -360.05 -29.45 -360.15 -29.35 -360.25 -29.3 -360.45 -29.15 -360.55 -29.05 -360.7 -28.9 -360.9 -29.5 -361.0 -29.75 -361.05 -29.85 -361.4 -30.2 Q-363.15 -32.05 -365.8 -31.4 L-365.9 -31.4 -366.2 -31.25 -366.3 -31.2 -366.7 -30.9 -366.8 -30.9 -367.3 -30.8 -367.4 -30.8 Q-375.35 -34.35 -383.45 -33.45 L-383.65 -33.25 -384.2 -32.75 -384.4 -32.55 -384.95 -32.1 -385.0 -31.9 -385.1 -31.7 -385.15 -31.6 -385.25 -31.35 -385.25 -31.25 -385.3 -30.95 -385.3 -30.85 -385.35 -30.65 -385.35 -30.45 -385.35 -30.25 -385.45 -30.2 -385.9 -30.1 Q-389.05 -29.65 -391.5 -27.7 L-391.7 -27.6 Q-392.9 -27.1 -394.15 -26.6 L-394.45 -26.4 -399.2 -23.2 -399.4 -23.05 -399.4 -23.05 M-399.25 -23.3 L-399.15 -23.7 -398.85 -25.15 -398.6 -25.5 -398.45 -25.9 -398.15 -26.6 -398.0 -26.9 -397.85 -27.3 -397.25 -28.85 -397.15 -29.15 -396.95 -29.45 -396.85 -30.2 -396.35 -30.85 -395.9 -31.55 -395.3 -32.6 -395.05 -33.4 -394.6 -33.7 -394.05 -34.35 -393.75 -34.85 -393.25 -35.5 -392.15 -37.4 -391.75 -38.0 -390.3 -39.8 -389.9 -40.4 -388.85 -41.25 -388.25 -41.7 Q-387.55 -42.2 -387.1 -42.9 L-386.75 -43.5 -386.05 -43.95 -385.45 -44.45 Q-384.9 -45.05 -384.3 -45.7 L-384.1 -46.1 -383.55 -46.55 -383.4 -46.65 -382.75 -47.25 Q-381.35 -47.8 -380.2 -48.7 L-379.75 -49.1 -374.45 -53.6 -374.15 -53.9 -373.75 -54.1 -373.4 -54.3 -372.95 -54.55 -372.55 -54.9 -372.0 -55.65 -371.7 -55.95 -371.25 -56.5 -371.0 -57.0 -370.9 -57.1 -370.55 -57.35 -370.15 -57.65 -369.75 -58.0 -369.3 -58.8 -369.05 -59.1 -368.8 -59.4 Q-368.65 -59.55 -368.5 -59.75 L-368.4 -59.75 -368.15 -59.6 Q-367.55 -58.45 -367.7 -57.05 L-367.75 -56.65 -368.15 -54.05 -368.15 -53.75 -368.15 -53.65 -368.05 -53.35 -368.0 -53.25 -367.9 -52.9 -367.85 -52.8 -367.75 -52.55 -367.75 -52.5 -367.8 -52.2 -367.8 -51.8 -367.75 -51.45 -367.65 -51.05 -367.6 -50.7 -367.5 -50.3 -367.5 -49.95 -367.55 -49.65 -367.55 -49.55 -367.6 -49.3 -367.6 -49.2 -367.45 -48.8 -367.1 -47.9 -366.95 -47.3 -366.8 -46.35 -366.8 -45.75 -366.7 -45.6 -366.5 -44.9 Q-365.8 -41.7 -364.45 -38.8 L-364.25 -38.3 Q-362.75 -35.2 -361.6 -32.05 L-361.4 -31.35 -361.3 -31.25 -360.7 -30.55 -360.25 -30.05 -360.15 -29.85 -360.0 -29.5 -360.05 -29.4 -360.25 -29.3 -360.35 -29.2 -360.45 -29.15 -360.7 -28.9 -360.8 -29.25 -360.9 -29.55 -361.05 -29.85 -361.4 -30.2 Q-363.05 -31.95 -365.5 -31.5 L-365.9 -31.4 -366.0 -31.35 -366.3 -31.2 -366.6 -31.0 -366.7 -30.9 -367.2 -30.8 -367.3 -30.8 Q-375.25 -34.35 -383.35 -33.45 L-383.45 -33.45 -384.15 -32.75 -384.9 -32.1 -384.95 -32.1 -385.1 -31.7 -385.2 -31.45 -385.25 -31.35 -385.3 -31.15 -385.3 -30.95 -385.35 -30.65 -385.35 -30.65 -385.35 -30.25 -385.7 -30.15 -385.9 -30.1 Q-389.05 -29.65 -391.5 -27.7 -392.95 -27.3 -394.15 -26.6 L-394.25 -26.5 -399.2 -23.2 -399.25 -23.3 -399.25 -23.3 Z"/>
    </path>
  </g>
</svg>
