<?xml version="1.0" encoding="UTF-8" standalone="no"?>
<svg xmlns:ffdec="https://www.free-decompiler.com/flash" xmlns:xlink="http://www.w3.org/1999/xlink" ffdec:objectType="morphshape" height="52.3px" width="53.35px" xmlns="http://www.w3.org/2000/svg">
  <g transform="matrix(1.0, 0.0, 0.0, 1.0, 407.0, 65.7)">
    <path d="M-399.4 -23.05 L-399.4 -23.05 -399.2 -23.2 -394.45 -26.4 -394.15 -26.6 -392.0 -27.55 -391.5 -27.7 Q-389.15 -29.55 -386.1 -30.1 L-385.9 -30.1 -385.6 -30.2 -385.35 -30.25 -385.35 -30.35 -385.35 -30.65 -385.3 -30.75 -385.3 -30.95 -385.25 -31.2 -385.25 -31.35 -385.1 -31.6 -385.1 -31.7 -384.95 -32.1 -384.2 -32.75 -384.15 -32.75 -383.45 -33.45 -383.25 -33.45 Q-375.25 -34.3 -367.3 -30.8 L-366.8 -30.9 -366.7 -30.9 -366.4 -31.1 -366.3 -31.2 -366.0 -31.4 -365.9 -31.4 Q-363.2 -32.1 -361.4 -30.2 L-361.25 -30.05 -361.05 -29.85 -360.95 -29.55 -360.7 -28.9 -360.5 -29.1 -360.45 -29.15 -360.25 -29.3 -360.05 -29.45 -360.0 -29.5 -360.05 -29.7 -360.15 -29.9 -360.7 -30.55 -361.2 -31.15 -361.4 -31.35 -361.6 -32.05 Q-362.75 -35.2 -364.25 -38.3 L-364.35 -38.5 Q-365.8 -41.55 -366.5 -44.9 L-366.8 -45.75 -366.95 -47.3 -366.95 -47.4 -367.45 -48.8 -367.45 -48.9 -367.6 -49.2 -367.6 -49.3 -367.55 -49.55 -367.55 -49.75 -367.5 -49.95 -367.5 -50.1 -367.5 -50.3 -367.55 -50.6 -367.65 -51.05 -367.7 -51.35 -367.8 -51.8 -367.8 -52.1 -367.8 -52.2 -367.75 -52.55 -367.9 -52.9 -368.0 -53.25 -368.05 -53.35 -368.15 -53.65 -368.15 -53.75 -368.15 -54.05 -367.75 -56.65 -367.75 -56.9 Q-367.5 -58.4 -368.15 -59.6 L-368.25 -59.7 -368.5 -59.75 -368.7 -59.55 -369.05 -59.1 -369.2 -58.9 -369.75 -58.0 -370.05 -57.75 -370.55 -57.35 -370.75 -57.15 -371.0 -57.0 -371.2 -56.65 Q-371.4 -56.25 -371.7 -55.95 L-371.9 -55.7 -372.55 -54.9 -372.75 -54.7 -373.4 -54.3 -373.7 -54.1 -374.15 -53.9 -374.35 -53.7 -379.75 -49.1 -379.95 -48.9 Q-381.25 -47.85 -382.75 -47.25 L-383.05 -47.0 -383.55 -46.55 -383.75 -46.35 -384.0 -46.25 -384.1 -45.95 Q-384.6 -45.05 -385.45 -44.45 L-385.65 -44.35 -386.75 -43.5 -386.8 -43.4 Q-387.3 -42.35 -388.25 -41.7 L-389.9 -40.4 -391.65 -38.1 -391.75 -38.0 -393.25 -35.5 -394.0 -34.45 -394.05 -34.35 Q-394.5 -33.9 -394.95 -33.5 L-395.05 -33.4 Q-395.25 -32.45 -395.9 -31.55 L-396.85 -30.2 -396.95 -29.85 -396.95 -29.45 -397.85 -27.3 -397.9 -27.2 -398.1 -26.7 -398.15 -26.6 -398.45 -25.9 -398.55 -25.7 -398.7 -25.5 -398.7 -25.4 -398.9 -24.85 -399.25 -23.3 -399.4 -23.05 M-406.2 -18.35 L-406.2 -17.0 -406.15 -16.05 -406.1 -15.05 -405.9 -14.65 -405.65 -14.2 -405.0 -13.8 -404.4 -13.6 -404.0 -13.4 Q-402.4 -14.15 -400.85 -14.85 L-397.5 -16.75 -395.85 -17.3 Q-394.2 -18.7 -392.55 -20.05 L-389.4 -22.75 Q-388.45 -23.15 -387.55 -23.65 -386.1 -23.75 -384.85 -24.35 -384.5 -24.55 -384.2 -24.7 L-383.65 -25.05 Q-382.55 -25.05 -381.55 -25.5 L-381.2 -25.9 -380.95 -26.2 -380.8 -26.6 -380.7 -26.95 -380.55 -27.35 -380.55 -27.7 Q-376.6 -26.7 -373.1 -25.5 L-373.05 -25.5 -373.0 -25.6 -364.55 -24.55 -364.55 -24.0 -364.5 -23.7 -364.55 -23.45 -364.55 -22.9 -364.55 -22.5 -364.45 -22.1 -364.25 -21.7 -364.0 -21.25 -363.4 -20.8 Q-362.25 -20.1 -361.0 -20.1 L-360.35 -20.15 Q-359.7 -20.45 -359.05 -20.7 -357.65 -20.55 -356.3 -21.1 L-355.8 -22.0 -355.1 -23.2 -354.8 -23.95 -354.65 -24.7 -354.55 -25.1 -354.4 -25.65 -354.25 -26.2 -354.15 -26.6 -354.1 -27.15 -354.2 -27.95 -354.3 -28.5 -354.35 -28.9 -354.55 -29.45 -354.7 -30.05 -354.75 -30.4 -354.8 -30.8 -354.8 -31.15 -354.85 -31.55 -354.9 -31.95 -355.05 -32.35 -355.35 -32.7 -355.75 -33.2 -355.95 -33.6 -356.25 -33.95 -356.8 -34.8 -357.15 -35.5 -357.5 -36.35 Q-358.05 -38.6 -358.6 -40.8 L-359.4 -43.6 -359.8 -44.4 -361.4 -48.5 -362.35 -50.95 -362.4 -51.35 -362.45 -51.75 -362.5 -52.15 -362.55 -52.5 -362.55 -52.9 -362.75 -53.25 -362.75 -53.65 -362.75 -54.05 -362.85 -54.4 -362.85 -55.0 -362.85 -55.5 -362.85 -55.9 -362.8 -56.45 -362.75 -57.0 -362.65 -57.35 -362.55 -57.7 -362.4 -58.05 -362.25 -58.65 -362.15 -59.0 -362.05 -59.4 -362.0 -59.95 Q-362.1 -60.9 -362.75 -61.65 -363.7 -62.4 -364.6 -63.15 L-364.6 -63.3 Q-365.15 -64.25 -366.3 -64.85 -367.5 -65.5 -368.85 -65.7 -369.0 -65.6 -369.1 -65.55 L-370.1 -65.35 -370.55 -65.0 -371.05 -64.7 -371.6 -64.35 -372.1 -63.85 -373.4 -62.55 -374.45 -61.45 -375.1 -60.8 -376.85 -58.8 -378.45 -57.1 Q-379.65 -56.4 -380.85 -55.75 L-383.25 -53.9 -384.3 -52.8 -386.7 -50.9 -388.5 -49.1 -389.1 -48.45 -390.15 -47.4 -391.05 -46.65 -391.55 -46.05 -392.25 -45.35 -393.0 -44.6 -393.5 -44.1 -393.85 -43.8 -394.15 -43.4 -397.1 -40.05 Q-397.8 -39.05 -398.5 -38.1 L-398.7 -37.75 -400.8 -33.8 Q-401.7 -32.55 -402.2 -31.05 L-402.55 -30.2 -402.85 -29.5 -403.2 -28.55 -403.5 -27.6 -403.7 -26.8 -403.75 -26.45 -403.9 -26.1 -404.1 -25.55 -404.3 -25.05 -404.6 -24.5 -404.75 -24.0 -404.95 -23.4 -405.1 -22.85 -405.2 -22.5 -405.3 -22.1 -405.4 -21.75 -405.55 -21.4 -405.8 -20.15 -406.0 -19.25 -406.2 -18.35" fill="#000000" fill-rule="evenodd" stroke="none">
      <animate attributeName="fill" dur="2s" repeatCount="indefinite" values="#000000;#000001"/>
      <animate attributeName="fill-opacity" dur="2s" repeatCount="indefinite" values="1.0;1.0"/>
      <animate attributeName="d" dur="2s" repeatCount="indefinite" values="M-399.4 -23.05 L-399.4 -23.05 -399.2 -23.2 -394.45 -26.4 -394.15 -26.6 -392.0 -27.55 -391.5 -27.7 Q-389.15 -29.55 -386.1 -30.1 L-385.9 -30.1 -385.6 -30.2 -385.35 -30.25 -385.35 -30.35 -385.35 -30.65 -385.3 -30.75 -385.3 -30.95 -385.25 -31.2 -385.25 -31.35 -385.1 -31.6 -385.1 -31.7 -384.95 -32.1 -384.2 -32.75 -384.15 -32.75 -383.45 -33.45 -383.25 -33.45 Q-375.25 -34.3 -367.3 -30.8 L-366.8 -30.9 -366.7 -30.9 -366.4 -31.1 -366.3 -31.2 -366.0 -31.4 -365.9 -31.4 Q-363.2 -32.1 -361.4 -30.2 L-361.25 -30.05 -361.05 -29.85 -360.95 -29.55 -360.7 -28.9 -360.5 -29.1 -360.45 -29.15 -360.25 -29.3 -360.05 -29.45 -360.0 -29.5 -360.05 -29.7 -360.15 -29.9 -360.7 -30.55 -361.2 -31.15 -361.4 -31.35 -361.6 -32.05 Q-362.75 -35.2 -364.25 -38.3 L-364.35 -38.5 Q-365.8 -41.55 -366.5 -44.9 L-366.8 -45.75 -366.95 -47.3 -366.95 -47.4 -367.45 -48.8 -367.45 -48.9 -367.6 -49.2 -367.6 -49.3 -367.55 -49.55 -367.55 -49.75 -367.5 -49.95 -367.5 -50.1 -367.5 -50.3 -367.55 -50.6 -367.65 -51.05 -367.7 -51.35 -367.8 -51.8 -367.8 -52.1 -367.8 -52.2 -367.75 -52.55 -367.9 -52.9 -368.0 -53.25 -368.05 -53.35 -368.15 -53.65 -368.15 -53.75 -368.15 -54.05 -367.75 -56.65 -367.75 -56.9 Q-367.5 -58.4 -368.15 -59.6 L-368.25 -59.7 -368.5 -59.75 -368.7 -59.55 -369.05 -59.1 -369.2 -58.9 -369.75 -58.0 -370.05 -57.75 -370.55 -57.35 -370.75 -57.15 -371.0 -57.0 -371.2 -56.65 Q-371.4 -56.25 -371.7 -55.95 L-371.9 -55.7 -372.55 -54.9 -372.75 -54.7 -373.4 -54.3 -373.7 -54.1 -374.15 -53.9 -374.35 -53.7 -379.75 -49.1 -379.95 -48.9 Q-381.25 -47.85 -382.75 -47.25 L-383.05 -47.0 -383.55 -46.55 -383.75 -46.35 -384.0 -46.25 -384.1 -45.95 Q-384.6 -45.05 -385.45 -44.45 L-385.65 -44.35 -386.75 -43.5 -386.8 -43.4 Q-387.3 -42.35 -388.25 -41.7 L-389.9 -40.4 -391.65 -38.1 -391.75 -38.0 -393.25 -35.5 -394.0 -34.45 -394.05 -34.35 Q-394.5 -33.9 -394.95 -33.5 L-395.05 -33.4 Q-395.25 -32.45 -395.9 -31.55 L-396.85 -30.2 -396.95 -29.85 -396.95 -29.45 -397.85 -27.3 -397.9 -27.2 -398.1 -26.7 -398.15 -26.6 -398.45 -25.9 -398.55 -25.7 -398.7 -25.5 -398.7 -25.4 -398.9 -24.85 -399.25 -23.3 -399.4 -23.05 M-406.2 -18.35 L-406.2 -17.0 -406.15 -16.05 -406.1 -15.05 -405.9 -14.65 -405.65 -14.2 -405.0 -13.8 -404.4 -13.6 -404.0 -13.4 Q-402.4 -14.15 -400.85 -14.85 L-397.5 -16.75 -395.85 -17.3 Q-394.2 -18.7 -392.55 -20.05 L-389.4 -22.75 Q-388.45 -23.15 -387.55 -23.65 -386.1 -23.75 -384.85 -24.35 -384.5 -24.55 -384.2 -24.7 L-383.65 -25.05 Q-382.55 -25.05 -381.55 -25.5 L-381.2 -25.9 -380.95 -26.2 -380.8 -26.6 -380.7 -26.95 -380.55 -27.35 -380.55 -27.7 Q-376.6 -26.7 -373.1 -25.5 L-373.05 -25.5 -373.0 -25.6 -364.55 -24.55 -364.55 -24.0 -364.5 -23.7 -364.55 -23.45 -364.55 -22.9 -364.55 -22.5 -364.45 -22.1 -364.25 -21.7 -364.0 -21.25 -363.4 -20.8 Q-362.25 -20.1 -361.0 -20.1 L-360.35 -20.15 Q-359.7 -20.45 -359.05 -20.7 -357.65 -20.55 -356.3 -21.1 L-355.8 -22.0 -355.1 -23.2 -354.8 -23.95 -354.65 -24.7 -354.55 -25.1 -354.4 -25.65 -354.25 -26.2 -354.15 -26.6 -354.1 -27.15 -354.2 -27.95 -354.3 -28.5 -354.35 -28.9 -354.55 -29.45 -354.7 -30.05 -354.75 -30.4 -354.8 -30.8 -354.8 -31.15 -354.85 -31.55 -354.9 -31.95 -355.05 -32.35 -355.35 -32.7 -355.75 -33.2 -355.95 -33.6 -356.25 -33.95 -356.8 -34.8 -357.15 -35.5 -357.5 -36.35 Q-358.05 -38.6 -358.6 -40.8 L-359.4 -43.6 -359.8 -44.4 -361.4 -48.5 -362.35 -50.95 -362.4 -51.35 -362.45 -51.75 -362.5 -52.15 -362.55 -52.5 -362.55 -52.9 -362.75 -53.25 -362.75 -53.65 -362.75 -54.05 -362.85 -54.4 -362.85 -55.0 -362.85 -55.5 -362.85 -55.9 -362.8 -56.45 -362.75 -57.0 -362.65 -57.35 -362.55 -57.7 -362.4 -58.05 -362.25 -58.65 -362.15 -59.0 -362.05 -59.4 -362.0 -59.95 Q-362.1 -60.9 -362.75 -61.65 -363.7 -62.4 -364.6 -63.15 L-364.6 -63.3 Q-365.15 -64.25 -366.3 -64.85 -367.5 -65.5 -368.85 -65.7 -369.0 -65.6 -369.1 -65.55 L-370.1 -65.35 -370.55 -65.0 -371.05 -64.7 -371.6 -64.35 -372.1 -63.85 -373.4 -62.55 -374.45 -61.45 -375.1 -60.8 -376.85 -58.8 -378.45 -57.1 Q-379.65 -56.4 -380.85 -55.75 L-383.25 -53.9 -384.3 -52.8 -386.7 -50.9 -388.5 -49.1 -389.1 -48.45 -390.15 -47.4 -391.05 -46.65 -391.55 -46.05 -392.25 -45.35 -393.0 -44.6 -393.5 -44.1 -393.85 -43.8 -394.15 -43.4 -397.1 -40.05 Q-397.8 -39.05 -398.5 -38.1 L-398.7 -37.75 -400.8 -33.8 Q-401.7 -32.55 -402.2 -31.05 L-402.55 -30.2 -402.85 -29.5 -403.2 -28.55 -403.5 -27.6 -403.7 -26.8 -403.75 -26.45 -403.9 -26.1 -404.1 -25.55 -404.3 -25.05 -404.6 -24.5 -404.75 -24.0 -404.95 -23.4 -405.1 -22.85 -405.2 -22.5 -405.3 -22.1 -405.4 -21.75 -405.55 -21.4 -405.8 -20.15 -406.0 -19.25 -406.2 -18.35;M-399.45 -23.4 L-399.1 -23.65 -398.9 -23.75 -393.8 -26.4 -393.4 -26.6 -391.05 -27.25 -390.65 -27.45 Q-388.15 -28.9 -385.2 -29.05 L-385.0 -29.05 -384.65 -29.15 -384.6 -29.45 -384.6 -29.55 -384.5 -29.75 -384.5 -29.85 -384.5 -30.05 -384.45 -30.25 -384.35 -30.35 -384.25 -30.6 -384.15 -30.7 -383.95 -31.05 -383.25 -31.5 -383.25 -31.5 -382.5 -32.05 -382.4 -32.15 Q-374.2 -32.2 -366.55 -27.85 L-365.95 -27.85 -365.85 -27.9 -365.5 -28.1 -365.4 -28.15 -365.1 -28.3 -365.1 -28.3 Q-362.4 -28.7 -360.8 -26.75 L-360.7 -26.65 -360.6 -26.45 -360.4 -26.25 -360.25 -25.55 -360.15 -25.25 -360.05 -25.35 -359.9 -25.5 -359.65 -25.6 -359.65 -25.6 -359.45 -25.75 -359.4 -25.8 -359.6 -26.35 -360.0 -26.9 -360.1 -27.1 -360.6 -27.8 Q-361.4 -31.25 -362.65 -34.7 L-362.75 -35.0 Q-363.9 -38.3 -364.3 -41.85 L-364.55 -42.7 -364.5 -44.2 -364.5 -44.3 -364.85 -45.7 -364.85 -45.85 -364.95 -46.15 -364.95 -46.25 -364.85 -46.45 -364.85 -46.6 -364.8 -46.8 -364.8 -47.0 -364.8 -47.15 -364.75 -47.35 -364.8 -47.75 -364.8 -48.1 -364.9 -48.55 -364.9 -48.9 -364.9 -49.0 -364.85 -49.4 -364.8 -49.65 -364.85 -50.0 -364.85 -50.1 -364.95 -50.45 -364.95 -50.55 -365.05 -50.85 -364.45 -53.45 -364.35 -53.75 Q-363.95 -55.2 -364.35 -56.4 L-364.45 -56.7 -364.5 -56.8 -364.75 -56.9 -365.2 -56.5 -365.4 -56.3 -366.0 -55.55 -366.2 -55.25 -366.8 -54.9 -367.1 -54.7 -367.3 -54.5 -367.55 -54.4 Q-367.8 -54.05 -368.05 -53.7 L-368.35 -53.4 -369.2 -52.65 -369.3 -52.45 -369.9 -52.1 -370.25 -51.95 -370.7 -51.75 -371.0 -51.65 -376.9 -47.55 -377.1 -47.4 Q-378.45 -46.45 -380.0 -45.95 L-380.3 -45.85 -380.9 -45.5 -381.2 -45.25 -381.4 -45.1 -381.65 -45.0 Q-382.25 -44.05 -383.1 -43.45 L-383.3 -43.35 -384.6 -42.65 -384.7 -42.55 Q-385.3 -41.5 -386.35 -40.9 L-388.15 -39.75 -390.25 -37.55 -390.35 -37.45 -392.0 -35.2 -392.95 -34.15 -393.05 -34.05 Q-393.45 -33.65 -394.0 -33.3 L-394.0 -33.2 Q-394.35 -32.3 -395.05 -31.5 L-396.15 -30.2 -396.2 -29.9 -396.3 -29.55 -397.35 -27.6 -397.45 -27.5 -397.65 -27.05 -397.85 -26.75 -398.25 -26.05 -398.45 -25.75 -398.55 -25.55 -398.65 -25.55 -398.7 -25.05 -399.25 -23.65 -399.45 -23.4 M-407.0 -16.65 L-407.0 -16.25 -406.9 -15.9 -406.75 -15.45 -406.4 -15.05 -406.05 -14.55 -405.0 -14.1 -404.2 -14.1 -403.85 -14.1 Q-401.15 -15.7 -398.5 -17.4 L-392.35 -21.25 -389.3 -22.25 Q-388.25 -22.7 -387.35 -23.3 L-386.55 -23.55 Q-386.15 -23.65 -385.75 -23.75 -383.85 -23.7 -381.95 -23.65 -381.65 -23.75 -381.4 -23.95 L-381.05 -24.25 Q-380.9 -24.4 -380.8 -24.55 L-380.55 -24.9 -380.35 -25.2 -380.25 -25.6 -380.2 -25.95 -380.1 -26.35 -380.05 -26.7 Q-371.8 -24.45 -364.5 -21.7 L-364.35 -21.25 -364.3 -21.05 -364.35 -20.9 -364.55 -20.2 -364.6 -19.8 -364.7 -19.45 -364.65 -19.05 -364.6 -18.65 -364.4 -18.2 -364.1 -17.8 -363.7 -17.3 -362.7 -16.8 Q-360.6 -15.55 -358.2 -15.7 L-357.3 -16.2 Q-356.4 -16.85 -355.75 -17.75 -355.4 -18.3 -355.1 -18.8 L-354.9 -19.9 -354.8 -20.4 -354.6 -20.7 -354.3 -21.05 -354.1 -21.4 -353.95 -22.15 -353.8 -22.9 -353.75 -23.25 -353.65 -23.6 -353.9 -24.45 -354.1 -25.25 -354.15 -25.6 -354.2 -26.0 -354.15 -26.35 -354.05 -26.75 -354.0 -27.1 -354.05 -27.5 -354.15 -27.9 -354.25 -28.35 -354.4 -28.7 -354.85 -29.15 -355.45 -29.75 -355.65 -30.15 -355.75 -30.5 -356.1 -31.75 -356.5 -32.9 -357.05 -34.25 Q-358.05 -38.2 -358.7 -42.3 L-359.7 -47.0 -359.65 -47.35 -359.55 -47.7 -359.5 -48.05 -359.55 -48.5 -359.65 -48.85 -359.75 -49.3 -359.7 -49.65 -359.6 -50.05 -359.7 -50.4 -359.7 -50.8 -359.8 -51.2 -359.8 -51.6 -359.65 -52.35 -359.5 -53.05 -359.45 -53.4 -359.35 -53.8 -359.2 -54.1 -358.95 -54.5 -358.8 -54.8 -358.6 -55.15 -358.45 -55.9 -358.35 -56.25 -358.3 -56.65 -358.2 -57.0 Q-358.35 -58.85 -359.7 -60.2 -361.5 -62.0 -363.65 -62.9 L-363.65 -62.85 Q-364.25 -62.9 -364.85 -62.9 -365.15 -62.75 -365.4 -62.65 -365.7 -62.5 -365.95 -62.4 L-366.75 -62.15 -367.2 -61.85 -367.65 -61.55 -368.05 -61.25 -368.65 -60.65 -370.9 -58.35 -372.75 -56.45 -373.6 -55.9 -375.4 -54.7 -377.15 -53.5 Q-379.3 -52.75 -381.3 -51.5 L-384.7 -49.25 -385.25 -48.65 -386.25 -47.65 -386.85 -47.05 -387.7 -46.45 -389.05 -45.55 -390.35 -44.7 -390.65 -44.35 -390.9 -44.05 -391.2 -43.7 -392.05 -43.1 -392.5 -42.85 -392.95 -42.5 -398.25 -36.3 Q-399.75 -34.6 -400.8 -32.6 L-400.85 -32.25 -400.9 -31.85 Q-401.4 -31.2 -401.9 -30.6 L-402.6 -29.2 -403.2 -28.15 -403.25 -27.75 -403.35 -27.4 -403.4 -27.0 -403.5 -26.65 -403.75 -26.3 -404.2 -25.65 -404.6 -24.95 -405.0 -24.25 -405.05 -23.95 -405.15 -23.55 -405.2 -23.2 -405.4 -22.85 -405.6 -22.5 -405.8 -22.15 -406.0 -21.8 -406.4 -19.6 -406.7 -18.15 -407.0 -16.65"/>
    </path>
    <path d="M-399.25 -23.3 L-399.25 -23.3 -399.2 -23.2 -394.65 -26.3 -394.15 -26.6 -392.1 -27.5 -391.5 -27.7 Q-389.2 -29.55 -386.2 -30.05 L-385.9 -30.1 -385.65 -30.15 -385.35 -30.25 -385.35 -30.65 -385.3 -30.95 -385.3 -31.15 -385.25 -31.35 -385.15 -31.55 -385.1 -31.7 -384.95 -32.0 -384.95 -32.1 -384.2 -32.75 -384.2 -32.75 -383.45 -33.45 -383.35 -33.45 Q-375.25 -34.35 -367.3 -30.8 L-367.3 -30.8 -366.8 -30.9 -366.7 -30.9 -366.4 -31.1 -366.3 -31.2 -366.0 -31.35 -365.9 -31.4 Q-363.2 -32.1 -361.4 -30.2 L-361.3 -30.1 -361.05 -29.85 -360.95 -29.6 -360.7 -28.9 -360.55 -29.05 -360.45 -29.15 -360.25 -29.3 -360.0 -29.5 -360.0 -29.5 -360.1 -29.7 -360.7 -30.55 -361.0 -30.95 -361.4 -31.35 -361.6 -31.85 Q-362.7 -35.1 -364.25 -38.3 L-364.25 -38.3 Q-365.75 -41.4 -366.5 -44.8 L-366.5 -44.9 Q-366.6 -45.25 -366.7 -45.6 L-366.8 -45.75 -366.95 -47.3 -367.45 -48.8 -367.6 -49.2 -367.55 -49.55 -367.55 -49.65 -367.5 -49.95 -367.5 -50.05 -367.5 -50.3 -367.5 -50.5 -367.65 -51.05 -367.65 -51.25 -367.8 -51.8 -367.8 -52.0 -367.8 -52.2 -367.75 -52.4 -367.75 -52.55 -367.85 -52.8 -367.9 -52.9 -367.95 -53.1 -368.05 -53.35 -368.1 -53.55 -368.15 -53.75 -368.15 -53.95 -367.75 -56.65 -367.75 -56.85 Q-367.5 -58.4 -368.15 -59.6 L-368.25 -59.7 -368.5 -59.75 -368.7 -59.55 -369.05 -59.1 -369.2 -58.9 -369.75 -58.0 -370.05 -57.75 -370.55 -57.35 -370.75 -57.15 -371.0 -57.0 -371.2 -56.65 Q-371.4 -56.25 -371.7 -55.95 L-371.9 -55.7 -372.55 -54.9 -372.75 -54.7 -373.4 -54.3 -373.7 -54.1 -374.15 -53.9 -374.35 -53.7 -379.75 -49.1 -380.05 -48.9 Q-381.25 -47.85 -382.75 -47.25 L-383.1 -46.95 -383.55 -46.55 -383.8 -46.35 -384.0 -46.25 -384.15 -45.95 Q-384.65 -45.05 -385.45 -44.45 L-385.65 -44.25 -386.75 -43.5 -386.8 -43.4 Q-387.3 -42.35 -388.25 -41.7 L-388.3 -41.7 -389.9 -40.4 -391.75 -38.0 -393.25 -35.5 -393.35 -35.4 -394.05 -34.35 -395.05 -33.4 Q-395.25 -32.45 -395.9 -31.55 L-396.85 -30.05 -396.95 -29.75 -396.95 -29.45 -397.05 -29.35 -397.95 -27.1 -398.1 -26.7 -398.15 -26.6 -398.45 -25.9 -398.55 -25.65 -398.85 -25.15 -399.15 -23.7 -399.25 -23.3" fill="#80a839" fill-rule="evenodd" stroke="none">
      <animate attributeName="fill" dur="2s" repeatCount="indefinite" values="#80a839;#80a83a"/>
      <animate attributeName="fill-opacity" dur="2s" repeatCount="indefinite" values="1.0;1.0"/>
      <animate attributeName="d" dur="2s" repeatCount="indefinite" values="M-399.25 -23.3 L-399.25 -23.3 -399.2 -23.2 -394.65 -26.3 -394.15 -26.6 -392.1 -27.5 -391.5 -27.7 Q-389.2 -29.55 -386.2 -30.05 L-385.9 -30.1 -385.65 -30.15 -385.35 -30.25 -385.35 -30.65 -385.3 -30.95 -385.3 -31.15 -385.25 -31.35 -385.15 -31.55 -385.1 -31.7 -384.95 -32.0 -384.95 -32.1 -384.2 -32.75 -384.2 -32.75 -383.45 -33.45 -383.35 -33.45 Q-375.25 -34.35 -367.3 -30.8 L-367.3 -30.8 -366.8 -30.9 -366.7 -30.9 -366.4 -31.1 -366.3 -31.2 -366.0 -31.35 -365.9 -31.4 Q-363.2 -32.1 -361.4 -30.2 L-361.3 -30.1 -361.05 -29.85 -360.95 -29.6 -360.7 -28.9 -360.55 -29.05 -360.45 -29.15 -360.25 -29.3 -360.0 -29.5 -360.0 -29.5 -360.1 -29.7 -360.7 -30.55 -361.0 -30.95 -361.4 -31.35 -361.6 -31.85 Q-362.7 -35.1 -364.25 -38.3 L-364.25 -38.3 Q-365.75 -41.4 -366.5 -44.8 L-366.5 -44.9 Q-366.6 -45.25 -366.7 -45.6 L-366.8 -45.75 -366.95 -47.3 -367.45 -48.8 -367.6 -49.2 -367.55 -49.55 -367.55 -49.65 -367.5 -49.95 -367.5 -50.05 -367.5 -50.3 -367.5 -50.5 -367.65 -51.05 -367.65 -51.25 -367.8 -51.8 -367.8 -52.0 -367.8 -52.2 -367.75 -52.4 -367.75 -52.55 -367.85 -52.8 -367.9 -52.9 -367.95 -53.1 -368.05 -53.35 -368.1 -53.55 -368.15 -53.75 -368.15 -53.95 -367.75 -56.65 -367.75 -56.85 Q-367.5 -58.4 -368.15 -59.6 L-368.25 -59.7 -368.5 -59.75 -368.7 -59.55 -369.05 -59.1 -369.2 -58.9 -369.75 -58.0 -370.05 -57.75 -370.55 -57.35 -370.75 -57.15 -371.0 -57.0 -371.2 -56.65 Q-371.4 -56.25 -371.7 -55.95 L-371.9 -55.7 -372.55 -54.9 -372.75 -54.7 -373.4 -54.3 -373.7 -54.1 -374.15 -53.9 -374.35 -53.7 -379.75 -49.1 -380.05 -48.9 Q-381.25 -47.85 -382.75 -47.25 L-383.1 -46.95 -383.55 -46.55 -383.8 -46.35 -384.0 -46.25 -384.15 -45.95 Q-384.65 -45.05 -385.45 -44.45 L-385.65 -44.25 -386.75 -43.5 -386.8 -43.4 Q-387.3 -42.35 -388.25 -41.7 L-388.3 -41.7 -389.9 -40.4 -391.75 -38.0 -393.25 -35.5 -393.35 -35.4 -394.05 -34.35 -395.05 -33.4 Q-395.25 -32.45 -395.9 -31.55 L-396.85 -30.05 -396.95 -29.75 -396.95 -29.45 -397.05 -29.35 -397.95 -27.1 -398.1 -26.7 -398.15 -26.6 -398.45 -25.9 -398.55 -25.65 -398.85 -25.15 -399.15 -23.7 -399.25 -23.3;M-399.25 -23.65 L-398.9 -23.75 -398.8 -23.75 -393.8 -26.4 -393.3 -26.6 -391.05 -27.25 -390.55 -27.55 Q-388.1 -28.9 -385.2 -29.05 L-384.9 -29.05 -384.65 -29.15 -384.6 -29.55 -384.5 -29.85 -384.45 -30.1 -384.45 -30.25 -384.35 -30.4 -384.25 -30.6 -384.15 -30.75 -384.05 -30.95 -383.9 -31.05 -383.25 -31.5 -383.15 -31.6 -382.4 -32.15 -382.4 -32.15 Q-374.2 -32.2 -366.55 -27.85 L-366.45 -27.85 -365.95 -27.85 -365.85 -27.9 -365.5 -28.1 -365.4 -28.2 -365.1 -28.3 -364.9 -28.3 Q-362.3 -28.65 -360.7 -26.65 L-360.7 -26.65 -360.5 -26.45 -360.4 -26.25 -360.2 -25.45 -360.15 -25.25 -360.05 -25.35 -359.8 -25.55 -359.5 -25.75 -359.45 -25.75 -359.4 -25.8 -359.7 -26.5 -360.0 -26.9 -360.3 -27.3 -360.6 -27.8 Q-361.45 -31.35 -362.75 -34.9 L-362.75 -35.0 Q-363.9 -38.3 -364.3 -41.85 L-364.3 -41.95 Q-364.35 -42.4 -364.55 -42.7 L-364.55 -42.8 -364.5 -44.3 -364.85 -45.85 -364.95 -46.25 -364.85 -46.55 -364.85 -46.6 -364.8 -46.9 -364.8 -47.0 -364.75 -47.2 -364.75 -47.35 -364.8 -47.85 -364.8 -48.1 -364.9 -48.65 -364.9 -48.9 -364.9 -49.1 -364.85 -49.3 -364.85 -49.45 -364.8 -49.65 -364.8 -49.75 -364.85 -50.0 -364.85 -50.2 -364.95 -50.45 -365.0 -50.65 -365.05 -50.85 -364.45 -53.55 -364.35 -53.75 Q-363.95 -55.2 -364.35 -56.4 L-364.45 -56.7 -364.5 -56.8 -364.75 -56.9 -365.2 -56.5 -365.4 -56.3 -366.0 -55.55 -366.2 -55.25 -366.8 -54.9 -367.1 -54.7 -367.3 -54.5 -367.55 -54.4 Q-367.8 -54.05 -368.05 -53.7 L-368.35 -53.4 -369.2 -52.65 -369.3 -52.45 -369.9 -52.1 -370.25 -51.95 -370.7 -51.75 -371.0 -51.65 -376.8 -47.6 -377.1 -47.4 Q-378.45 -46.45 -379.9 -45.95 L-380.3 -45.85 -380.8 -45.55 -381.2 -45.25 -381.4 -45.15 -381.65 -45.0 Q-382.25 -44.05 -383.1 -43.45 L-383.3 -43.35 -384.5 -42.65 -384.7 -42.55 Q-385.3 -41.5 -386.35 -40.9 L-386.35 -40.9 -388.15 -39.75 -390.25 -37.55 -391.95 -35.3 -392.0 -35.2 -392.95 -34.15 -394.0 -33.2 Q-394.3 -32.3 -395.05 -31.5 L-396.15 -30.3 -396.2 -29.9 -396.3 -29.65 -396.3 -29.55 -397.45 -27.5 -397.65 -27.1 -397.85 -26.85 -398.25 -26.15 -398.45 -25.75 -398.7 -25.15 -399.1 -24.0 -399.25 -23.65"/>
    </path>
    <path d="M-406.2 -18.35 L-406.0 -19.25 -405.8 -20.15 -405.55 -21.4 -405.4 -21.75 -405.3 -22.1 -405.2 -22.5 -405.1 -22.85 -404.95 -23.4 -404.75 -24.0 -404.6 -24.5 -404.3 -25.05 -404.1 -25.55 -403.9 -26.1 -403.75 -26.45 -403.7 -26.8 -403.5 -27.6 -403.2 -28.55 -402.85 -29.5 -402.55 -30.2 -402.2 -31.05 Q-401.7 -32.55 -400.8 -33.8 L-398.7 -37.75 -398.5 -38.1 Q-397.8 -39.05 -397.1 -40.05 L-394.15 -43.4 -393.85 -43.8 -393.5 -44.1 -393.0 -44.6 -392.25 -45.35 -391.55 -46.05 -391.05 -46.65 -390.15 -47.4 -389.1 -48.45 -388.5 -49.1 -386.7 -50.9 -384.3 -52.8 -383.25 -53.9 -380.85 -55.75 Q-379.65 -56.4 -378.45 -57.1 L-376.85 -58.8 -375.1 -60.8 -374.45 -61.45 -373.4 -62.55 -372.1 -63.85 -371.6 -64.35 -371.05 -64.7 -370.55 -65.0 -370.1 -65.35 -369.1 -65.55 Q-369.0 -65.6 -368.85 -65.7 -367.5 -65.5 -366.3 -64.85 -365.15 -64.25 -364.6 -63.3 L-364.6 -63.15 Q-363.7 -62.4 -362.75 -61.65 -362.1 -60.9 -362.0 -59.95 L-362.05 -59.4 -362.15 -59.0 -362.25 -58.65 -362.4 -58.05 -362.55 -57.7 -362.65 -57.35 -362.75 -57.0 -362.8 -56.45 -362.85 -55.9 -362.85 -55.5 -362.85 -55.0 -362.85 -54.4 -362.75 -54.05 -362.75 -53.65 -362.75 -53.25 -362.55 -52.9 -362.55 -52.5 -362.5 -52.15 -362.45 -51.75 -362.4 -51.35 -362.35 -50.95 -361.4 -48.5 -359.8 -44.4 -359.4 -43.6 -358.6 -40.8 Q-358.05 -38.6 -357.5 -36.35 L-357.15 -35.5 -356.8 -34.8 -356.25 -33.95 -355.95 -33.6 -355.75 -33.2 -355.35 -32.7 -355.05 -32.35 -354.9 -31.95 -354.85 -31.55 -354.8 -31.15 -354.8 -30.8 -354.75 -30.4 -354.7 -30.05 -354.55 -29.45 -354.35 -28.9 -354.3 -28.5 -354.2 -27.95 -354.1 -27.15 -354.15 -26.6 -354.25 -26.2 -354.4 -25.65 -354.55 -25.1 -354.65 -24.7 -354.8 -23.95 -355.1 -23.2 -355.8 -22.0 -356.3 -21.1 Q-357.65 -20.55 -359.05 -20.7 -359.7 -20.45 -360.35 -20.15 L-361.0 -20.1 Q-362.25 -20.1 -363.4 -20.8 L-364.0 -21.25 -364.25 -21.7 -364.45 -22.1 -364.55 -22.5 -364.55 -22.9 -364.55 -23.45 -364.5 -23.7 -364.55 -24.0 -364.55 -24.55 -373.0 -25.6 -373.05 -25.5 -373.1 -25.5 Q-376.6 -26.7 -380.55 -27.7 L-380.55 -27.35 -380.7 -26.95 -380.8 -26.6 -380.95 -26.2 -381.2 -25.9 -381.55 -25.5 Q-382.55 -25.05 -383.65 -25.05 L-384.2 -24.7 Q-384.5 -24.55 -384.85 -24.35 -386.1 -23.75 -387.55 -23.65 -388.45 -23.15 -389.4 -22.75 L-392.55 -20.05 Q-394.2 -18.7 -395.85 -17.3 L-397.5 -16.75 -400.85 -14.85 Q-402.4 -14.15 -404.0 -13.4 L-404.4 -13.6 -405.0 -13.8 -405.65 -14.2 -405.9 -14.65 -406.1 -15.05 -406.15 -16.05 -406.2 -17.0 -406.2 -18.35 M-399.4 -23.05 L-399.25 -23.3 -398.9 -24.85 -398.7 -25.4 -398.7 -25.5 -398.55 -25.7 -398.45 -25.9 -398.15 -26.6 -398.1 -26.7 -397.9 -27.2 -397.85 -27.3 -396.95 -29.45 -396.95 -29.85 -396.85 -30.2 -395.9 -31.55 Q-395.25 -32.45 -395.05 -33.4 L-394.95 -33.5 Q-394.5 -33.9 -394.05 -34.35 L-394.0 -34.45 -393.25 -35.5 -391.75 -38.0 -391.65 -38.1 -389.9 -40.4 -388.25 -41.7 Q-387.3 -42.35 -386.8 -43.4 L-386.75 -43.5 -385.65 -44.35 -385.45 -44.45 Q-384.6 -45.05 -384.1 -45.95 L-384.0 -46.25 -383.75 -46.35 -383.55 -46.55 -383.05 -47.0 -382.75 -47.25 Q-381.25 -47.85 -379.95 -48.9 L-379.75 -49.1 -374.35 -53.7 -374.15 -53.9 -373.7 -54.1 -373.4 -54.3 -372.75 -54.7 -372.55 -54.9 -371.9 -55.7 -371.7 -55.95 Q-371.4 -56.25 -371.2 -56.65 L-371.0 -57.0 -370.75 -57.15 -370.55 -57.35 -370.05 -57.75 -369.75 -58.0 -369.2 -58.9 -369.05 -59.1 -368.7 -59.55 -368.5 -59.75 -368.25 -59.7 -368.15 -59.6 Q-367.5 -58.4 -367.75 -56.9 L-367.75 -56.65 -368.15 -54.05 -368.15 -53.75 -368.15 -53.65 -368.05 -53.35 -368.0 -53.25 -367.9 -52.9 -367.75 -52.55 -367.8 -52.2 -367.8 -52.1 -367.8 -51.8 -367.7 -51.35 -367.65 -51.05 -367.55 -50.6 -367.5 -50.3 -367.5 -50.1 -367.5 -49.95 -367.55 -49.75 -367.55 -49.55 -367.6 -49.3 -367.6 -49.2 -367.45 -48.9 -367.45 -48.8 -366.95 -47.4 -366.95 -47.3 -366.8 -45.75 -366.5 -44.9 Q-365.8 -41.55 -364.35 -38.5 L-364.25 -38.3 Q-362.75 -35.2 -361.6 -32.05 L-361.4 -31.35 -361.2 -31.15 -360.7 -30.55 -360.15 -29.9 -360.05 -29.7 -360.0 -29.5 -360.05 -29.45 -360.25 -29.3 -360.45 -29.15 -360.5 -29.1 -360.7 -28.9 -360.95 -29.55 -361.05 -29.85 -361.25 -30.05 -361.4 -30.2 Q-363.2 -32.1 -365.9 -31.4 L-366.0 -31.4 -366.3 -31.2 -366.4 -31.1 -366.7 -30.9 -366.8 -30.9 -367.3 -30.8 Q-375.25 -34.3 -383.25 -33.45 L-383.45 -33.45 -384.15 -32.75 -384.2 -32.75 -384.95 -32.1 -385.1 -31.7 -385.1 -31.6 -385.25 -31.35 -385.25 -31.2 -385.3 -30.95 -385.3 -30.75 -385.35 -30.65 -385.35 -30.35 -385.35 -30.25 -385.6 -30.2 -385.9 -30.1 -386.1 -30.1 Q-389.15 -29.55 -391.5 -27.7 L-392.0 -27.55 -394.15 -26.6 -394.45 -26.4 -399.2 -23.2 -399.4 -23.05 -399.4 -23.05 M-399.25 -23.3 L-399.15 -23.7 -398.85 -25.15 -398.55 -25.65 -398.45 -25.9 -398.15 -26.6 -398.1 -26.7 -397.95 -27.1 -397.05 -29.35 -396.95 -29.45 -396.95 -29.75 -396.85 -30.05 -395.9 -31.55 Q-395.25 -32.45 -395.05 -33.4 L-394.05 -34.35 -393.35 -35.4 -393.25 -35.5 -391.75 -38.0 -389.9 -40.4 -388.3 -41.7 -388.25 -41.7 Q-387.3 -42.35 -386.8 -43.4 L-386.75 -43.5 -385.65 -44.25 -385.45 -44.45 Q-384.65 -45.05 -384.15 -45.95 L-384.0 -46.25 -383.8 -46.35 -383.55 -46.55 -383.1 -46.95 -382.75 -47.25 Q-381.25 -47.85 -380.05 -48.9 L-379.75 -49.1 -374.35 -53.7 -374.15 -53.9 -373.7 -54.1 -373.4 -54.3 -372.75 -54.7 -372.55 -54.9 -371.9 -55.7 -371.7 -55.95 Q-371.4 -56.25 -371.2 -56.65 L-371.0 -57.0 -370.75 -57.15 -370.55 -57.35 -370.05 -57.75 -369.75 -58.0 -369.2 -58.9 -369.05 -59.1 -368.7 -59.55 -368.5 -59.75 -368.25 -59.7 -368.15 -59.6 Q-367.5 -58.4 -367.75 -56.85 L-367.75 -56.65 -368.15 -53.95 -368.15 -53.75 -368.1 -53.55 -368.05 -53.35 -367.95 -53.1 -367.9 -52.9 -367.85 -52.8 -367.75 -52.55 -367.75 -52.4 -367.8 -52.2 -367.8 -52.0 -367.8 -51.8 -367.65 -51.25 -367.65 -51.05 -367.5 -50.5 -367.5 -50.3 -367.5 -50.05 -367.5 -49.95 -367.55 -49.65 -367.55 -49.55 -367.6 -49.2 -367.45 -48.8 -366.95 -47.3 -366.8 -45.75 -366.7 -45.6 Q-366.6 -45.25 -366.5 -44.9 L-366.5 -44.8 Q-365.75 -41.4 -364.25 -38.3 L-364.25 -38.3 Q-362.7 -35.1 -361.6 -31.85 L-361.4 -31.35 -361.0 -30.95 -360.7 -30.55 -360.1 -29.7 -360.0 -29.5 -360.0 -29.5 -360.25 -29.3 -360.45 -29.15 -360.55 -29.05 -360.7 -28.9 -360.95 -29.6 -361.05 -29.85 -361.3 -30.1 -361.4 -30.2 Q-363.2 -32.1 -365.9 -31.4 L-366.0 -31.35 -366.3 -31.2 -366.4 -31.1 -366.7 -30.9 -366.8 -30.9 -367.3 -30.8 -367.3 -30.8 Q-375.25 -34.35 -383.35 -33.45 L-383.45 -33.45 -384.2 -32.75 -384.2 -32.75 -384.95 -32.1 -384.95 -32.0 -385.1 -31.7 -385.15 -31.55 -385.25 -31.35 -385.3 -31.15 -385.3 -30.95 -385.35 -30.65 -385.35 -30.25 -385.65 -30.15 -385.9 -30.1 -386.2 -30.05 Q-389.2 -29.55 -391.5 -27.7 L-392.1 -27.5 -394.15 -26.6 -394.65 -26.3 -399.2 -23.2 -399.25 -23.3 -399.25 -23.3 Z" fill="none" stroke="#000000" stroke-linecap="round" stroke-linejoin="round" stroke-opacity="0.0" stroke-width="0.0">
      <animate attributeName="stroke" dur="2s" repeatCount="indefinite" values="#000000;#000001"/>
      <animate attributeName="stroke-width" dur="2s" repeatCount="indefinite" values="0.0;0.0"/>
      <animate attributeName="fill-opacity" dur="2s" repeatCount="indefinite" values="0.0;0.0"/>
      <animate attributeName="d" dur="2s" repeatCount="indefinite" values="M-406.2 -18.35 L-406.0 -19.25 -405.8 -20.15 -405.55 -21.4 -405.4 -21.75 -405.3 -22.1 -405.2 -22.5 -405.1 -22.85 -404.95 -23.4 -404.75 -24.0 -404.6 -24.5 -404.3 -25.05 -404.1 -25.55 -403.9 -26.1 -403.75 -26.45 -403.7 -26.8 -403.5 -27.6 -403.2 -28.55 -402.85 -29.5 -402.55 -30.2 -402.2 -31.05 Q-401.7 -32.55 -400.8 -33.8 L-398.7 -37.75 -398.5 -38.1 Q-397.8 -39.05 -397.1 -40.05 L-394.15 -43.4 -393.85 -43.8 -393.5 -44.1 -393.0 -44.6 -392.25 -45.35 -391.55 -46.05 -391.05 -46.65 -390.15 -47.4 -389.1 -48.45 -388.5 -49.1 -386.7 -50.9 -384.3 -52.8 -383.25 -53.9 -380.85 -55.75 Q-379.65 -56.4 -378.45 -57.1 L-376.85 -58.8 -375.1 -60.8 -374.45 -61.45 -373.4 -62.55 -372.1 -63.85 -371.6 -64.35 -371.05 -64.7 -370.55 -65.0 -370.1 -65.35 -369.1 -65.55 Q-369.0 -65.6 -368.85 -65.7 -367.5 -65.5 -366.3 -64.85 -365.15 -64.25 -364.6 -63.3 L-364.6 -63.15 Q-363.7 -62.4 -362.75 -61.65 -362.1 -60.9 -362.0 -59.95 L-362.05 -59.4 -362.15 -59.0 -362.25 -58.65 -362.4 -58.05 -362.55 -57.7 -362.65 -57.35 -362.75 -57.0 -362.8 -56.45 -362.85 -55.9 -362.85 -55.5 -362.85 -55.0 -362.85 -54.4 -362.75 -54.05 -362.75 -53.65 -362.75 -53.25 -362.55 -52.9 -362.55 -52.5 -362.5 -52.15 -362.45 -51.75 -362.4 -51.35 -362.35 -50.95 -361.4 -48.5 -359.8 -44.4 -359.4 -43.6 -358.6 -40.8 Q-358.05 -38.6 -357.5 -36.35 L-357.15 -35.5 -356.8 -34.8 -356.25 -33.95 -355.95 -33.6 -355.75 -33.2 -355.35 -32.7 -355.05 -32.35 -354.9 -31.95 -354.85 -31.55 -354.8 -31.15 -354.8 -30.8 -354.75 -30.4 -354.7 -30.05 -354.55 -29.45 -354.35 -28.9 -354.3 -28.5 -354.2 -27.95 -354.1 -27.15 -354.15 -26.6 -354.25 -26.2 -354.4 -25.65 -354.55 -25.1 -354.65 -24.7 -354.8 -23.95 -355.1 -23.2 -355.8 -22.0 -356.3 -21.1 Q-357.65 -20.55 -359.05 -20.7 -359.7 -20.45 -360.35 -20.15 L-361.0 -20.1 Q-362.25 -20.1 -363.4 -20.8 L-364.0 -21.25 -364.25 -21.7 -364.45 -22.1 -364.55 -22.5 -364.55 -22.9 -364.55 -23.45 -364.5 -23.7 -364.55 -24.0 -364.55 -24.55 -373.0 -25.6 -373.05 -25.5 -373.1 -25.5 Q-376.6 -26.7 -380.55 -27.7 L-380.55 -27.35 -380.7 -26.95 -380.8 -26.6 -380.95 -26.2 -381.2 -25.9 -381.55 -25.5 Q-382.55 -25.05 -383.65 -25.05 L-384.2 -24.7 Q-384.5 -24.55 -384.85 -24.35 -386.1 -23.75 -387.55 -23.65 -388.45 -23.15 -389.4 -22.75 L-392.55 -20.05 Q-394.2 -18.7 -395.85 -17.3 L-397.5 -16.75 -400.85 -14.85 Q-402.4 -14.15 -404.0 -13.4 L-404.4 -13.6 -405.0 -13.8 -405.65 -14.2 -405.9 -14.65 -406.1 -15.05 -406.15 -16.05 -406.2 -17.0 -406.2 -18.35 M-399.4 -23.05 L-399.25 -23.3 -398.9 -24.85 -398.7 -25.4 -398.7 -25.5 -398.55 -25.7 -398.45 -25.9 -398.15 -26.6 -398.1 -26.7 -397.9 -27.2 -397.85 -27.3 -396.95 -29.45 -396.95 -29.85 -396.85 -30.2 -395.9 -31.55 Q-395.25 -32.45 -395.05 -33.4 L-394.95 -33.5 Q-394.5 -33.9 -394.05 -34.35 L-394.0 -34.45 -393.25 -35.5 -391.75 -38.0 -391.65 -38.1 -389.9 -40.4 -388.25 -41.7 Q-387.3 -42.35 -386.8 -43.4 L-386.75 -43.5 -385.65 -44.35 -385.45 -44.45 Q-384.6 -45.05 -384.1 -45.95 L-384.0 -46.25 -383.75 -46.35 -383.55 -46.55 -383.05 -47.0 -382.75 -47.25 Q-381.25 -47.85 -379.95 -48.9 L-379.75 -49.1 -374.35 -53.7 -374.15 -53.9 -373.7 -54.1 -373.4 -54.3 -372.75 -54.7 -372.55 -54.9 -371.9 -55.7 -371.7 -55.95 Q-371.4 -56.25 -371.2 -56.65 L-371.0 -57.0 -370.75 -57.15 -370.55 -57.35 -370.05 -57.75 -369.75 -58.0 -369.2 -58.9 -369.05 -59.1 -368.7 -59.55 -368.5 -59.75 -368.25 -59.7 -368.15 -59.6 Q-367.5 -58.4 -367.75 -56.9 L-367.75 -56.65 -368.15 -54.05 -368.15 -53.75 -368.15 -53.65 -368.05 -53.35 -368.0 -53.25 -367.9 -52.9 -367.75 -52.55 -367.8 -52.2 -367.8 -52.1 -367.8 -51.8 -367.7 -51.35 -367.65 -51.05 -367.55 -50.6 -367.5 -50.3 -367.5 -50.1 -367.5 -49.95 -367.55 -49.75 -367.55 -49.55 -367.6 -49.3 -367.6 -49.2 -367.45 -48.9 -367.45 -48.8 -366.95 -47.4 -366.95 -47.3 -366.8 -45.75 -366.5 -44.9 Q-365.8 -41.55 -364.35 -38.5 L-364.25 -38.3 Q-362.75 -35.2 -361.6 -32.05 L-361.4 -31.35 -361.2 -31.15 -360.7 -30.55 -360.15 -29.9 -360.05 -29.7 -360.0 -29.5 -360.05 -29.45 -360.25 -29.3 -360.45 -29.15 -360.5 -29.1 -360.7 -28.9 -360.95 -29.55 -361.05 -29.85 -361.25 -30.05 -361.4 -30.2 Q-363.2 -32.1 -365.9 -31.4 L-366.0 -31.4 -366.3 -31.2 -366.4 -31.1 -366.7 -30.9 -366.8 -30.9 -367.3 -30.8 Q-375.25 -34.3 -383.25 -33.45 L-383.45 -33.45 -384.15 -32.75 -384.2 -32.75 -384.95 -32.1 -385.1 -31.7 -385.1 -31.6 -385.25 -31.35 -385.25 -31.2 -385.3 -30.95 -385.3 -30.75 -385.35 -30.65 -385.35 -30.35 -385.35 -30.25 -385.6 -30.2 -385.9 -30.1 -386.1 -30.1 Q-389.15 -29.55 -391.5 -27.7 L-392.0 -27.55 -394.15 -26.6 -394.45 -26.4 -399.2 -23.2 -399.4 -23.05 -399.4 -23.05 M-399.25 -23.3 L-399.15 -23.7 -398.85 -25.15 -398.55 -25.65 -398.45 -25.9 -398.15 -26.6 -398.1 -26.7 -397.95 -27.1 -397.05 -29.35 -396.95 -29.45 -396.95 -29.75 -396.85 -30.05 -395.9 -31.55 Q-395.25 -32.45 -395.05 -33.4 L-394.05 -34.35 -393.35 -35.4 -393.25 -35.5 -391.75 -38.0 -389.9 -40.4 -388.3 -41.7 -388.25 -41.7 Q-387.3 -42.35 -386.8 -43.4 L-386.75 -43.5 -385.65 -44.25 -385.45 -44.45 Q-384.65 -45.05 -384.15 -45.95 L-384.0 -46.25 -383.8 -46.35 -383.55 -46.55 -383.1 -46.95 -382.75 -47.25 Q-381.25 -47.85 -380.05 -48.9 L-379.75 -49.1 -374.35 -53.7 -374.15 -53.9 -373.7 -54.1 -373.4 -54.3 -372.75 -54.7 -372.55 -54.9 -371.9 -55.7 -371.7 -55.95 Q-371.4 -56.25 -371.2 -56.65 L-371.0 -57.0 -370.75 -57.15 -370.55 -57.35 -370.05 -57.75 -369.75 -58.0 -369.2 -58.9 -369.05 -59.1 -368.7 -59.55 -368.5 -59.75 -368.25 -59.7 -368.15 -59.6 Q-367.5 -58.4 -367.75 -56.85 L-367.75 -56.65 -368.15 -53.95 -368.15 -53.75 -368.1 -53.55 -368.05 -53.35 -367.95 -53.1 -367.9 -52.9 -367.85 -52.8 -367.75 -52.55 -367.75 -52.4 -367.8 -52.2 -367.8 -52.0 -367.8 -51.8 -367.65 -51.25 -367.65 -51.05 -367.5 -50.5 -367.5 -50.3 -367.5 -50.05 -367.5 -49.95 -367.55 -49.65 -367.55 -49.55 -367.6 -49.2 -367.45 -48.8 -366.95 -47.3 -366.8 -45.75 -366.7 -45.6 Q-366.6 -45.25 -366.5 -44.9 L-366.5 -44.8 Q-365.75 -41.4 -364.25 -38.3 L-364.25 -38.3 Q-362.7 -35.1 -361.6 -31.85 L-361.4 -31.35 -361.0 -30.95 -360.7 -30.55 -360.1 -29.7 -360.0 -29.5 -360.0 -29.5 -360.25 -29.3 -360.45 -29.15 -360.55 -29.05 -360.7 -28.9 -360.95 -29.6 -361.05 -29.85 -361.3 -30.1 -361.4 -30.2 Q-363.2 -32.1 -365.9 -31.4 L-366.0 -31.35 -366.3 -31.2 -366.4 -31.1 -366.7 -30.9 -366.8 -30.9 -367.3 -30.8 -367.3 -30.8 Q-375.25 -34.35 -383.35 -33.45 L-383.45 -33.45 -384.2 -32.75 -384.2 -32.75 -384.95 -32.1 -384.95 -32.0 -385.1 -31.7 -385.15 -31.55 -385.25 -31.35 -385.3 -31.15 -385.3 -30.95 -385.35 -30.65 -385.35 -30.25 -385.65 -30.15 -385.9 -30.1 -386.2 -30.05 Q-389.2 -29.55 -391.5 -27.7 L-392.1 -27.5 -394.15 -26.6 -394.65 -26.3 -399.2 -23.2 -399.25 -23.3 -399.25 -23.3 Z;M-407.0 -16.65 L-406.7 -18.15 -406.4 -19.6 -406.0 -21.8 -405.8 -22.15 -405.6 -22.5 -405.4 -22.85 -405.2 -23.2 -405.15 -23.55 -405.05 -23.95 -405.0 -24.25 -404.6 -24.95 -404.2 -25.65 -403.75 -26.3 -403.5 -26.65 -403.4 -27.0 -403.35 -27.4 -403.25 -27.75 -403.2 -28.15 -402.6 -29.2 -401.9 -30.6 Q-401.4 -31.2 -400.9 -31.85 L-400.85 -32.25 -400.8 -32.6 Q-399.75 -34.6 -398.25 -36.3 L-392.95 -42.5 -392.5 -42.85 -392.05 -43.1 -391.2 -43.7 -390.9 -44.05 -390.65 -44.35 -390.35 -44.7 -389.05 -45.55 -387.7 -46.45 -386.85 -47.05 -386.25 -47.65 -385.25 -48.65 -384.7 -49.25 -381.3 -51.5 Q-379.3 -52.75 -377.15 -53.5 L-375.4 -54.7 -373.6 -55.9 -372.75 -56.45 -370.9 -58.35 -368.65 -60.65 -368.05 -61.25 -367.65 -61.55 -367.2 -61.85 -366.75 -62.15 -365.95 -62.4 Q-365.7 -62.5 -365.4 -62.65 -365.15 -62.75 -364.85 -62.9 -364.25 -62.9 -363.65 -62.85 L-363.65 -62.9 Q-361.5 -62.0 -359.7 -60.2 -358.35 -58.85 -358.2 -57.0 L-358.3 -56.65 -358.35 -56.25 -358.45 -55.9 -358.6 -55.15 -358.8 -54.8 -358.95 -54.5 -359.2 -54.1 -359.35 -53.8 -359.45 -53.4 -359.5 -53.05 -359.65 -52.35 -359.8 -51.6 -359.8 -51.2 -359.7 -50.8 -359.7 -50.4 -359.6 -50.05 -359.7 -49.65 -359.75 -49.3 -359.65 -48.85 -359.55 -48.5 -359.5 -48.05 -359.55 -47.7 -359.65 -47.35 -359.7 -47.0 -358.7 -42.3 Q-358.05 -38.2 -357.05 -34.25 L-356.5 -32.9 -356.1 -31.75 -355.75 -30.5 -355.65 -30.15 -355.45 -29.75 -354.85 -29.15 -354.4 -28.7 -354.25 -28.35 -354.15 -27.9 -354.05 -27.5 -354.0 -27.1 -354.05 -26.75 -354.15 -26.35 -354.2 -26.0 -354.15 -25.6 -354.1 -25.25 -353.9 -24.45 -353.65 -23.6 -353.75 -23.25 -353.8 -22.9 -353.95 -22.15 -354.1 -21.4 -354.3 -21.05 -354.6 -20.7 -354.8 -20.4 -354.9 -19.9 -355.1 -18.8 Q-355.4 -18.3 -355.75 -17.75 -356.4 -16.85 -357.3 -16.2 L-358.2 -15.7 Q-360.6 -15.55 -362.7 -16.8 L-363.7 -17.3 -364.1 -17.8 -364.4 -18.2 -364.6 -18.65 -364.65 -19.05 -364.7 -19.45 -364.6 -19.8 -364.55 -20.2 -364.35 -20.9 -364.3 -21.05 -364.35 -21.25 -364.5 -21.7 Q-371.8 -24.45 -380.05 -26.7 L-380.1 -26.35 -380.2 -25.95 -380.25 -25.6 -380.35 -25.2 -380.55 -24.9 -380.8 -24.55 Q-380.9 -24.4 -381.05 -24.25 L-381.4 -23.95 Q-381.65 -23.75 -381.95 -23.65 -383.85 -23.7 -385.75 -23.75 -386.15 -23.65 -386.55 -23.55 L-387.35 -23.3 Q-388.25 -22.7 -389.3 -22.25 L-392.35 -21.25 -398.5 -17.4 Q-401.15 -15.7 -403.85 -14.1 L-404.2 -14.1 -405.0 -14.1 -406.05 -14.55 -406.4 -15.05 -406.75 -15.45 -406.9 -15.9 -407.0 -16.25 -407.0 -16.65 M-399.45 -23.4 L-399.25 -23.65 -398.7 -25.05 -398.65 -25.55 -398.55 -25.55 -398.45 -25.75 -398.25 -26.05 -397.85 -26.75 -397.65 -27.05 -397.45 -27.5 -397.35 -27.6 -396.3 -29.55 -396.2 -29.9 -396.15 -30.2 -395.05 -31.5 Q-394.35 -32.3 -394.0 -33.2 L-394.0 -33.3 Q-393.45 -33.65 -393.05 -34.05 L-392.95 -34.15 -392.0 -35.2 -390.35 -37.45 -390.25 -37.55 -388.15 -39.75 -386.35 -40.9 Q-385.3 -41.5 -384.7 -42.55 L-384.6 -42.65 -383.3 -43.35 -383.1 -43.45 Q-382.25 -44.05 -381.65 -45.0 L-381.4 -45.1 -381.2 -45.25 -380.9 -45.5 -380.3 -45.85 -380.0 -45.95 Q-378.45 -46.45 -377.1 -47.4 L-376.9 -47.55 -371.0 -51.65 -370.7 -51.75 -370.25 -51.95 -369.9 -52.1 -369.3 -52.45 -369.2 -52.65 -368.35 -53.4 -368.05 -53.7 Q-367.8 -54.05 -367.55 -54.4 L-367.3 -54.5 -367.1 -54.7 -366.8 -54.9 -366.2 -55.25 -366.0 -55.55 -365.4 -56.3 -365.2 -56.5 -364.75 -56.9 -364.5 -56.8 -364.45 -56.7 -364.35 -56.4 Q-363.95 -55.2 -364.35 -53.75 L-364.45 -53.45 -365.05 -50.85 -364.95 -50.55 -364.95 -50.45 -364.85 -50.1 -364.85 -50.0 -364.8 -49.65 -364.85 -49.4 -364.9 -49.0 -364.9 -48.9 -364.9 -48.55 -364.8 -48.1 -364.8 -47.75 -364.75 -47.35 -364.8 -47.15 -364.8 -47.0 -364.8 -46.8 -364.85 -46.6 -364.85 -46.45 -364.95 -46.25 -364.95 -46.15 -364.85 -45.85 -364.85 -45.7 -364.5 -44.3 -364.5 -44.2 -364.55 -42.7 -364.3 -41.85 Q-363.9 -38.3 -362.75 -35.0 L-362.65 -34.7 Q-361.4 -31.25 -360.6 -27.8 L-360.1 -27.1 -360.0 -26.9 -359.6 -26.35 -359.4 -25.8 -359.45 -25.75 -359.65 -25.6 -359.65 -25.6 -359.9 -25.5 -360.05 -25.35 -360.15 -25.25 -360.25 -25.55 -360.4 -26.25 -360.6 -26.45 -360.7 -26.65 -360.8 -26.75 Q-362.4 -28.7 -365.1 -28.3 L-365.1 -28.3 -365.4 -28.15 -365.5 -28.1 -365.85 -27.9 -365.95 -27.85 -366.55 -27.85 Q-374.2 -32.2 -382.4 -32.15 L-382.5 -32.05 -383.25 -31.5 -383.25 -31.5 -383.95 -31.05 -384.15 -30.7 -384.25 -30.6 -384.35 -30.35 -384.45 -30.25 -384.5 -30.05 -384.5 -29.85 -384.5 -29.75 -384.6 -29.55 -384.6 -29.45 -384.65 -29.15 -385.0 -29.05 -385.2 -29.05 Q-388.15 -28.9 -390.65 -27.45 L-391.05 -27.25 -393.4 -26.6 -393.8 -26.4 -398.9 -23.75 -399.1 -23.65 -399.45 -23.4 M-399.25 -23.65 L-399.1 -24.0 -398.7 -25.15 -398.45 -25.75 -398.25 -26.15 -397.85 -26.85 -397.65 -27.1 -397.45 -27.5 -396.3 -29.55 -396.3 -29.65 -396.2 -29.9 -396.15 -30.3 -395.05 -31.5 Q-394.3 -32.3 -394.0 -33.2 L-392.95 -34.15 -392.0 -35.2 -391.95 -35.3 -390.25 -37.55 -388.15 -39.75 -386.35 -40.9 -386.35 -40.9 Q-385.3 -41.5 -384.7 -42.55 L-384.5 -42.65 -383.3 -43.35 -383.1 -43.45 Q-382.25 -44.05 -381.65 -45.0 L-381.4 -45.15 -381.2 -45.25 -380.8 -45.55 -380.3 -45.85 -379.9 -45.95 Q-378.45 -46.45 -377.1 -47.4 L-376.8 -47.6 -371.0 -51.65 -370.7 -51.75 -370.25 -51.95 -369.9 -52.1 -369.3 -52.45 -369.2 -52.65 -368.35 -53.4 -368.05 -53.7 Q-367.8 -54.05 -367.55 -54.4 L-367.3 -54.5 -367.1 -54.7 -366.8 -54.9 -366.2 -55.25 -366.0 -55.55 -365.4 -56.3 -365.2 -56.5 -364.75 -56.9 -364.5 -56.8 -364.45 -56.7 -364.35 -56.4 Q-363.95 -55.2 -364.35 -53.75 L-364.45 -53.55 -365.05 -50.85 -365.0 -50.65 -364.95 -50.45 -364.85 -50.2 -364.85 -50.0 -364.8 -49.75 -364.8 -49.65 -364.85 -49.45 -364.85 -49.3 -364.9 -49.1 -364.9 -48.9 -364.9 -48.65 -364.8 -48.1 -364.8 -47.85 -364.75 -47.35 -364.75 -47.2 -364.8 -47.0 -364.8 -46.9 -364.85 -46.6 -364.85 -46.55 -364.95 -46.25 -364.85 -45.85 -364.5 -44.3 -364.55 -42.8 -364.55 -42.7 Q-364.35 -42.4 -364.3 -41.95 L-364.3 -41.85 Q-363.9 -38.3 -362.75 -35.0 L-362.75 -34.9 Q-361.45 -31.35 -360.6 -27.8 L-360.3 -27.3 -360.0 -26.9 -359.7 -26.5 -359.4 -25.8 -359.45 -25.75 -359.5 -25.75 -359.8 -25.55 -360.05 -25.35 -360.15 -25.25 -360.2 -25.45 -360.4 -26.25 -360.5 -26.45 -360.7 -26.65 -360.7 -26.65 Q-362.3 -28.65 -364.9 -28.3 L-365.1 -28.3 -365.4 -28.2 -365.5 -28.1 -365.85 -27.9 -365.95 -27.85 -366.45 -27.85 -366.55 -27.85 Q-374.2 -32.2 -382.4 -32.15 L-382.4 -32.15 -383.15 -31.6 -383.25 -31.5 -383.9 -31.05 -384.05 -30.95 -384.15 -30.75 -384.25 -30.6 -384.35 -30.4 -384.45 -30.25 -384.45 -30.1 -384.5 -29.85 -384.6 -29.55 -384.65 -29.15 -384.9 -29.05 -385.2 -29.05 Q-388.1 -28.9 -390.55 -27.55 L-391.05 -27.25 -393.3 -26.6 -393.8 -26.4 -398.8 -23.75 -398.9 -23.75 -399.25 -23.65 Z"/>
    </path>
  </g>
</svg>
