<?xml version="1.0" encoding="UTF-8" standalone="no"?>
<svg xmlns:ffdec="https://www.free-decompiler.com/flash" xmlns:xlink="http://www.w3.org/1999/xlink" ffdec:objectType="morphshape" height="7.35px" width="25.9px" xmlns="http://www.w3.org/2000/svg">
  <g transform="matrix(1.0, 0.0, 0.0, 1.0, 13.1, 4.4)">
    <path d="M-13.1 -2.6 L-13.1 -2.6 -13.05 -2.45 -12.55 -1.9 -12.45 -1.8 -11.95 -1.35 -11.85 -1.25 -11.85 -1.25 -11.85 -1.25 -11.85 -1.25 -11.75 -1.15 -11.1 -0.3 -11.1 -0.3 -11.0 -0.2 -11.0 -0.2 -11.0 -0.2 -11.0 -0.2 -11.0 -0.2 -11.0 -0.2 -11.0 -0.2 -11.0 -0.2 -11.0 -0.15 -11.0 -0.15 -11.0 -0.15 -10.9 -0.05 -10.9 -0.05 -10.9 -0.05 -10.4 0.55 -10.4 0.55 -10.4 0.55 -10.4 0.55 -10.4 0.6 -10.4 0.6 -10.4 0.6 -10.4 0.6 -10.4 0.7 -10.4 0.7 -10.4 0.7 -10.4 0.7 -10.4 0.8 -10.4 0.8 -10.4 0.8 -10.3 0.95 -10.2 1.05 -10.15 1.1 -10.15 1.1 -10.15 1.1 -10.15 1.1 -10.15 1.1 -10.1 1.15 -10.1 1.2 -10.0 1.25 -10.0 1.25 -9.7 1.35 -9.6 1.35 -9.7 1.5 -9.6 1.6 -9.55 1.6 -9.5 1.65 -9.5 1.7 -9.45 1.75 -9.4 1.75 -9.35 1.8 -9.3 1.85 -9.25 1.9 -9.2 1.9 -9.15 1.95 -9.05 2.0 -9.05 2.05 -9.0 2.05 -8.95 2.1 -8.9 2.15 -8.9 2.2 -8.85 2.2 -8.8 2.25 -8.8 2.25 -8.75 2.3 -8.75 2.35 -8.7 2.35 -8.65 2.4 -8.6 2.45 -8.6 2.5 -8.55 2.5 -8.5 2.55 -8.45 2.6 -8.45 2.65 -8.4 2.65 -8.35 2.7 -8.3 2.75 -8.3 2.75 -8.3 2.8 -8.25 2.8 -8.15 2.7 -8.15 2.6 -8.1 2.65 -8.0 2.95 -7.8 2.95 -7.5 2.95 -7.3 2.95 -7.15 2.95 -7.0 2.75 -6.85 2.35 -6.85 2.35 -6.8 2.25 -6.7 2.35 -6.6 2.5 -6.6 2.7 -6.5 2.8 -6.3 2.95 -6.3 2.95 -6.15 2.95 -5.85 2.95 -5.65 2.9 -5.55 2.75 -5.55 2.7 -5.45 2.6 -5.45 2.5 -5.35 2.5 -5.25 2.5 -5.15 2.6 -4.85 2.8 -4.55 2.85 -4.25 2.8 -3.95 2.55 -3.95 2.55 -3.95 2.55 -3.95 2.55 -3.8 2.35 -3.7 2.2 -3.55 2.35 -3.5 2.45 -3.35 2.5 -2.95 2.55 -2.7 2.6 -2.5 2.6 -2.2 2.6 -1.85 2.6 -1.35 2.55 -1.15 2.45 -1.1 2.45 -1.05 2.45 -1.1 2.5 -1.1 2.55 -1.05 2.65 -0.9 2.85 -0.65 2.9 -0.55 2.9 -0.15 2.75 0.35 2.9 0.65 2.65 0.75 2.75 1.0 2.8 1.4 2.7 1.45 2.8 1.45 2.85 1.4 2.95 1.6 2.95 2.3 2.95 3.0 2.95 3.0 2.8 3.2 2.35 3.25 2.3 3.25 2.35 3.25 2.9 3.25 2.95 3.55 2.95 3.85 2.95 4.2 2.95 4.2 2.95 Q4.3 2.85 4.35 2.8 L4.55 2.95 4.6 2.95 4.9 2.95 5.0 2.85 5.2 2.6 5.65 2.9 5.85 2.8 6.05 2.7 6.45 2.8 6.45 2.8 6.85 2.75 6.95 2.6 7.05 2.35 7.1 2.2 7.2 2.35 7.6 2.5 7.9 2.45 8.0 2.35 8.0 2.35 8.1 2.2 8.15 2.1 8.15 2.1 8.15 2.0 8.15 2.0 8.15 2.0 8.15 2.0 8.15 2.0 8.35 2.0 8.35 2.0 8.45 1.95 8.45 1.95 8.45 1.9 8.5 1.85 8.55 1.85 8.55 1.8 8.6 1.8 8.65 1.75 8.65 1.75 8.7 1.7 8.7 1.7 8.75 1.65 8.8 1.6 8.8 1.6 8.85 1.55 8.85 1.55 8.9 1.5 8.95 1.5 9.0 1.45 9.05 1.4 9.05 1.4 9.05 1.35 9.15 1.3 9.15 1.3 9.15 1.3 9.2 1.3 9.2 1.25 9.25 1.2 9.25 1.2 9.35 1.15 9.45 1.1 9.45 1.1 9.55 1.1 9.55 1.05 9.55 1.05 9.65 1.05 9.75 1.05 9.75 1.0 9.75 1.0 9.85 1.0 9.9 1.0 10.1 0.8 10.2 0.7 10.2 0.6 10.3 0.45 10.3 0.35 10.35 0.25 10.65 -0.05 Q11.1 -0.65 11.5 -1.2 L12.8 -3.0 12.8 -3.0 Q12.75 -3.7 11.65 -2.75 L11.45 -2.6 11.3 -2.8 Q10.95 -3.15 10.5 -2.5 L9.95 -1.8 9.85 -1.7 9.65 -1.5 9.1 -1.1 8.9 -0.9 8.9 -0.9 8.9 -0.85 8.65 -1.25 8.5 -1.3 Q8.1 -1.3 8.0 -1.05 L8.0 -1.05 8.0 -0.7 8.0 -0.7 7.55 -0.7 7.55 -0.7 7.55 -0.95 7.5 -1.15 7.25 -1.3 6.75 -1.25 6.7 -0.95 6.4 -0.1 6.3 0.15 6.25 -0.05 6.05 -0.4 5.75 -0.75 5.35 -0.6 5.35 -0.6 4.95 -0.7 4.7 -0.6 4.65 -0.75 4.2 -0.9 4.2 -1.5 4.2 -1.7 4.2 -1.75 Q3.95 -2.35 3.65 -2.1 L3.65 -2.1 Q3.5 -1.85 3.35 -1.65 L3.05 -1.75 2.65 -1.35 2.4 -0.8 2.4 -0.7 2.25 -0.9 2.05 -1.0 1.95 -1.0 1.65 -0.9 1.5 -0.8 1.4 -0.8 1.2 -0.9 0.9 -0.75 0.9 -0.85 Q0.9 -1.15 0.9 -1.45 L0.9 -1.55 0.5 -2.25 0.25 -2.3 0.25 -2.3 0.15 -2.3 Q-0.25 -2.25 -0.2 -1.75 L-0.9 -1.6 -1.0 -1.15 -1.1 -1.2 -1.25 -1.4 Q-1.6 -1.95 -1.9 -2.45 L-2.0 -2.55 -2.2 -2.8 -2.3 -2.9 -2.7 -3.15 Q-3.05 -3.25 -3.05 -2.75 L-3.05 -2.75 -2.95 -2.4 -2.8 -1.9 -2.7 -1.55 -2.6 -0.95 -2.6 -0.8 -2.7 -0.45 -2.8 -0.6 -2.9 -0.65 -3.35 -0.8 -3.55 -0.75 -3.65 -0.55 -3.6 -0.4 -3.5 -0.2 -3.8 -0.4 -4.05 -0.45 -4.35 -0.35 -4.5 -0.2 -4.75 -0.65 -4.85 -0.75 Q-5.1 -1.1 -5.4 -1.1 L-5.5 -1.1 -5.75 -1.0 -5.85 -1.05 -6.05 -1.15 -6.2 -1.15 -6.4 -1.05 -6.55 -0.85 -6.55 -0.75 -6.5 -0.45 -6.6 -0.45 -6.9 -0.45 -6.9 -0.35 -7.05 -0.25 -7.05 -0.25 -7.1 -0.35 Q-7.3 -0.75 -7.5 -1.1 L-7.85 -1.55 -8.4 -1.9 -8.85 -1.85 -9.05 -1.6 -9.0 -1.4 -8.85 -0.8 -9.0 -0.9 -9.3 -1.0 -9.4 -1.0 -9.7 -0.85 -11.1 -1.8 -11.3 -2.0 -11.9 -2.4 -12.15 -2.55 -12.7 -2.8 Q-13.1 -2.85 -13.1 -2.6" fill="#ffffff" fill-rule="evenodd" stroke="none">
      <animate attributeName="fill" dur="2s" repeatCount="indefinite" values="#ffffff;#ffffff"/>
      <animate attributeName="fill-opacity" dur="2s" repeatCount="indefinite" values="1.0;1.0"/>
      <animate attributeName="d" dur="2s" repeatCount="indefinite" values="M-13.1 -2.6 L-13.1 -2.6 -13.05 -2.45 -12.55 -1.9 -12.45 -1.8 -11.95 -1.35 -11.85 -1.25 -11.85 -1.25 -11.85 -1.25 -11.85 -1.25 -11.75 -1.15 -11.1 -0.3 -11.1 -0.3 -11.0 -0.2 -11.0 -0.2 -11.0 -0.2 -11.0 -0.2 -11.0 -0.2 -11.0 -0.2 -11.0 -0.2 -11.0 -0.2 -11.0 -0.15 -11.0 -0.15 -11.0 -0.15 -10.9 -0.05 -10.9 -0.05 -10.9 -0.05 -10.4 0.55 -10.4 0.55 -10.4 0.55 -10.4 0.55 -10.4 0.6 -10.4 0.6 -10.4 0.6 -10.4 0.6 -10.4 0.7 -10.4 0.7 -10.4 0.7 -10.4 0.7 -10.4 0.8 -10.4 0.8 -10.4 0.8 -10.3 0.95 -10.2 1.05 -10.15 1.1 -10.15 1.1 -10.15 1.1 -10.15 1.1 -10.15 1.1 -10.1 1.15 -10.1 1.2 -10.0 1.25 -10.0 1.25 -9.7 1.35 -9.6 1.35 -9.7 1.5 -9.6 1.6 -9.55 1.6 -9.5 1.65 -9.5 1.7 -9.45 1.75 -9.4 1.75 -9.35 1.8 -9.3 1.85 -9.25 1.9 -9.2 1.9 -9.15 1.95 -9.05 2.0 -9.05 2.05 -9.0 2.05 -8.95 2.1 -8.9 2.15 -8.9 2.2 -8.85 2.2 -8.8 2.25 -8.8 2.25 -8.75 2.3 -8.75 2.35 -8.7 2.35 -8.65 2.4 -8.6 2.45 -8.6 2.5 -8.55 2.5 -8.5 2.55 -8.45 2.6 -8.45 2.65 -8.4 2.65 -8.35 2.7 -8.3 2.75 -8.3 2.75 -8.3 2.8 -8.25 2.8 -8.15 2.7 -8.15 2.6 -8.1 2.65 -8.0 2.95 -7.8 2.95 -7.5 2.95 -7.3 2.95 -7.15 2.95 -7.0 2.75 -6.85 2.35 -6.85 2.35 -6.8 2.25 -6.7 2.35 -6.6 2.5 -6.6 2.7 -6.5 2.8 -6.3 2.95 -6.3 2.95 -6.15 2.95 -5.85 2.95 -5.65 2.9 -5.55 2.75 -5.55 2.7 -5.45 2.6 -5.45 2.5 -5.35 2.5 -5.25 2.5 -5.15 2.6 -4.85 2.8 -4.55 2.85 -4.25 2.8 -3.95 2.55 -3.95 2.55 -3.95 2.55 -3.95 2.55 -3.8 2.35 -3.7 2.2 -3.55 2.35 -3.5 2.45 -3.35 2.5 -2.95 2.55 -2.7 2.6 -2.5 2.6 -2.2 2.6 -1.85 2.6 -1.35 2.55 -1.15 2.45 -1.1 2.45 -1.05 2.45 -1.1 2.5 -1.1 2.55 -1.05 2.65 -0.9 2.85 -0.65 2.9 -0.55 2.9 -0.15 2.75 0.35 2.9 0.65 2.65 0.75 2.75 1.0 2.8 1.4 2.7 1.45 2.8 1.45 2.85 1.4 2.95 1.6 2.95 2.3 2.95 3.0 2.95 3.0 2.8 3.2 2.35 3.25 2.3 3.25 2.35 3.25 2.9 3.25 2.95 3.55 2.95 3.85 2.95 4.2 2.95 4.2 2.95 Q4.3 2.85 4.35 2.8 L4.55 2.95 4.6 2.95 4.9 2.95 5.0 2.85 5.2 2.6 5.65 2.9 5.85 2.8 6.05 2.7 6.45 2.8 6.45 2.8 6.85 2.75 6.95 2.6 7.05 2.35 7.1 2.2 7.2 2.35 7.6 2.5 7.9 2.45 8.0 2.35 8.0 2.35 8.1 2.2 8.15 2.1 8.15 2.1 8.15 2.0 8.15 2.0 8.15 2.0 8.15 2.0 8.15 2.0 8.35 2.0 8.35 2.0 8.45 1.95 8.45 1.95 8.45 1.9 8.5 1.85 8.55 1.85 8.55 1.8 8.6 1.8 8.65 1.75 8.65 1.75 8.7 1.7 8.7 1.7 8.75 1.65 8.8 1.6 8.8 1.6 8.85 1.55 8.85 1.55 8.9 1.5 8.95 1.5 9.0 1.45 9.05 1.4 9.05 1.4 9.05 1.35 9.15 1.3 9.15 1.3 9.15 1.3 9.2 1.3 9.2 1.25 9.25 1.2 9.25 1.2 9.35 1.15 9.45 1.1 9.45 1.1 9.55 1.1 9.55 1.05 9.55 1.05 9.65 1.05 9.75 1.05 9.75 1.0 9.75 1.0 9.85 1.0 9.9 1.0 10.1 0.8 10.2 0.7 10.2 0.6 10.3 0.45 10.3 0.35 10.35 0.25 10.65 -0.05 Q11.1 -0.65 11.5 -1.2 L12.8 -3.0 12.8 -3.0 Q12.75 -3.7 11.65 -2.75 L11.45 -2.6 11.3 -2.8 Q10.95 -3.15 10.5 -2.5 L9.95 -1.8 9.85 -1.7 9.65 -1.5 9.1 -1.1 8.9 -0.9 8.9 -0.9 8.9 -0.85 8.65 -1.25 8.5 -1.3 Q8.1 -1.3 8.0 -1.05 L8.0 -1.05 8.0 -0.7 8.0 -0.7 7.55 -0.7 7.55 -0.7 7.55 -0.95 7.5 -1.15 7.25 -1.3 6.75 -1.25 6.7 -0.95 6.4 -0.1 6.3 0.15 6.25 -0.05 6.05 -0.4 5.75 -0.75 5.35 -0.6 5.35 -0.6 4.95 -0.7 4.7 -0.6 4.65 -0.75 4.2 -0.9 4.2 -1.5 4.2 -1.7 4.2 -1.75 Q3.95 -2.35 3.65 -2.1 L3.65 -2.1 Q3.5 -1.85 3.35 -1.65 L3.05 -1.75 2.65 -1.35 2.4 -0.8 2.4 -0.7 2.25 -0.9 2.05 -1.0 1.95 -1.0 1.65 -0.9 1.5 -0.8 1.4 -0.8 1.2 -0.9 0.9 -0.75 0.9 -0.85 Q0.9 -1.15 0.9 -1.45 L0.9 -1.55 0.5 -2.25 0.25 -2.3 0.25 -2.3 0.15 -2.3 Q-0.25 -2.25 -0.2 -1.75 L-0.9 -1.6 -1.0 -1.15 -1.1 -1.2 -1.25 -1.4 Q-1.6 -1.95 -1.9 -2.45 L-2.0 -2.55 -2.2 -2.8 -2.3 -2.9 -2.7 -3.15 Q-3.05 -3.25 -3.05 -2.75 L-3.05 -2.75 -2.95 -2.4 -2.8 -1.9 -2.7 -1.55 -2.6 -0.95 -2.6 -0.8 -2.7 -0.45 -2.8 -0.6 -2.9 -0.65 -3.35 -0.8 -3.55 -0.75 -3.65 -0.55 -3.6 -0.4 -3.5 -0.2 -3.8 -0.4 -4.05 -0.45 -4.35 -0.35 -4.5 -0.2 -4.75 -0.65 -4.85 -0.75 Q-5.1 -1.1 -5.4 -1.1 L-5.5 -1.1 -5.75 -1.0 -5.85 -1.05 -6.05 -1.15 -6.2 -1.15 -6.4 -1.05 -6.55 -0.85 -6.55 -0.75 -6.5 -0.45 -6.6 -0.45 -6.9 -0.45 -6.9 -0.35 -7.05 -0.25 -7.05 -0.25 -7.1 -0.35 Q-7.3 -0.75 -7.5 -1.1 L-7.85 -1.55 -8.4 -1.9 -8.85 -1.85 -9.05 -1.6 -9.0 -1.4 -8.85 -0.8 -9.0 -0.9 -9.3 -1.0 -9.4 -1.0 -9.7 -0.85 -11.1 -1.8 -11.3 -2.0 -11.9 -2.4 -12.15 -2.55 -12.7 -2.8 Q-13.1 -2.85 -13.1 -2.6;M-11.75 -0.9 L-11.05 -0.1 -10.85 0.1 -10.25 0.75 -10.15 0.85 -10.05 1.1 -9.95 1.3 -9.9 1.35 -9.9 1.35 -9.85 1.4 -9.8 1.45 -9.75 1.45 -9.7 1.5 -9.6 1.6 -9.55 1.6 -9.5 1.65 -9.5 1.7 -9.45 1.75 -9.4 1.75 -9.35 1.8 -9.3 1.85 -9.25 1.9 -9.2 1.9 -9.15 1.95 -9.05 2.0 -9.05 2.05 -9.0 2.05 -8.95 2.1 -8.9 2.15 -8.9 2.2 -8.85 2.2 -8.8 2.25 -8.75 2.3 -8.75 2.35 -8.7 2.35 -8.65 2.4 -8.6 2.45 -8.6 2.5 -8.55 2.5 -8.5 2.55 -8.45 2.6 -8.45 2.65 -8.4 2.65 -8.35 2.7 -8.3 2.75 -8.3 2.8 -8.25 2.8 -8.25 2.85 -8.25 2.85 -8.15 2.95 -8.15 2.95 -8.15 2.95 -8.1 2.95 -7.8 2.95 -7.7 2.95 -7.3 2.8 -7.2 2.7 -7.2 2.7 -7.2 2.6 -7.2 2.6 -7.2 2.5 -7.2 2.5 -7.3 2.5 -7.3 2.6 -7.3 2.65 -7.3 2.65 -7.3 2.65 -7.3 2.75 -7.3 2.75 -7.3 2.75 -7.3 2.85 -7.3 2.85 -7.25 2.95 -7.25 2.95 -7.25 2.95 -6.85 2.95 -6.85 2.95 -6.85 2.95 -6.75 2.95 -6.65 2.95 -6.65 2.95 -6.65 2.95 -6.65 2.95 -6.55 2.95 -6.55 2.95 -6.55 2.95 -6.55 2.95 -6.45 2.95 -6.4 2.95 -6.3 2.85 -6.3 2.85 -6.3 2.85 -6.3 2.75 -6.2 2.6 -6.2 2.6 -6.15 2.4 -6.1 2.35 -6.0 2.2 -6.0 2.35 -5.95 2.45 -5.8 2.6 -5.55 2.65 -5.35 2.6 -5.3 2.55 -5.2 2.55 -5.0 2.35 -4.9 2.2 -4.9 2.2 -4.8 1.95 -4.8 1.95 -4.7 1.85 -4.65 2.1 -4.65 2.35 -4.65 2.55 -4.65 2.75 -4.5 2.95 -4.4 2.95 -4.3 2.95 -4.2 2.95 -4.1 2.95 -3.7 2.95 -3.5 2.75 -3.5 2.65 -3.45 2.35 -3.45 2.3 -3.4 2.35 -3.4 2.35 -3.5 2.55 -3.5 2.65 -3.5 2.85 -3.5 2.95 -3.5 2.95 -3.1 2.95 -2.8 2.95 -2.6 2.95 -2.2 2.95 -2.05 2.7 -1.95 2.35 -1.9 2.2 -1.85 2.15 -1.75 2.25 -1.75 2.35 -1.75 2.45 -1.8 2.45 -1.65 2.55 -1.65 2.8 -1.55 2.95 -1.15 2.95 -0.85 2.95 -0.45 2.95 -0.25 2.95 -0.15 2.75 -0.05 2.45 -0.05 2.35 -0.05 2.25 0.1 2.2 0.15 2.35 0.25 2.95 0.95 2.95 1.15 2.95 1.55 2.95 1.65 2.95 1.75 2.95 2.45 2.95 2.45 2.95 2.75 2.95 2.75 2.65 3.15 2.75 3.15 2.75 Q3.4 2.75 3.55 2.55 L3.65 2.4 3.65 2.35 3.75 2.65 3.8 2.95 4.3 2.95 5.0 2.95 5.0 2.75 5.25 2.75 5.65 2.7 5.75 2.7 5.85 2.95 6.05 2.95 6.35 2.95 6.55 2.95 6.75 2.95 7.0 2.95 7.4 2.95 7.5 2.85 7.55 2.85 7.6 2.8 7.7 2.7 7.75 2.7 7.8 2.65 7.8 2.6 7.85 2.55 7.85 2.5 7.9 2.45 7.95 2.4 8.0 2.4 8.15 2.25 8.2 2.2 8.2 2.2 8.2 2.15 8.25 2.1 8.35 2.05 8.35 2.05 8.35 2.05 8.4 2.0 8.4 2.0 8.45 1.95 8.45 1.9 8.5 1.85 8.55 1.85 8.55 1.8 8.65 1.75 8.65 1.75 8.65 1.75 8.7 1.7 8.75 1.65 8.8 1.6 8.8 1.6 8.85 1.55 8.9 1.5 9.0 1.45 9.0 1.45 9.0 1.45 9.05 1.4 9.05 1.35 9.15 1.3 9.15 1.3 9.2 1.3 9.2 1.25 9.25 1.2 9.35 1.2 9.35 1.15 9.35 1.15 9.45 1.1 9.55 1.1 9.55 1.05 9.55 1.05 9.65 1.05 9.75 1.0 9.85 1.0 9.95 1.0 10.1 1.0 10.2 1.0 10.35 0.8 Q10.6 0.0 11.3 -0.7 L12.65 -2.7 12.65 -2.8 Q12.65 -3.8 11.6 -2.7 L11.25 -2.35 11.05 -2.1 Q10.7 -1.75 10.35 -1.45 L9.6 -0.9 9.5 -1.0 9.35 -1.2 8.9 -1.55 9.0 -1.75 9.0 -1.75 9.0 -1.85 8.8 -2.05 8.7 -2.05 Q8.4 -2.0 8.1 -2.0 L8.0 -2.0 7.55 -1.95 7.55 -1.9 7.3 -1.65 7.3 -1.65 6.95 -1.5 6.8 -1.4 6.6 -1.2 6.25 -0.75 6.1 -0.45 5.7 -1.1 5.75 -1.3 5.75 -1.5 5.8 -1.9 5.6 -2.3 5.2 -2.4 5.05 -2.35 4.8 -2.15 4.7 -1.95 4.65 -1.7 4.45 -1.15 3.9 -0.65 3.75 -0.95 3.75 -0.95 Q3.5 -1.05 3.25 -1.15 L3.2 -1.15 Q2.8 -1.1 2.7 -0.65 L2.4 -0.8 2.25 -1.1 2.35 -1.6 2.3 -1.8 2.2 -2.0 1.95 -2.2 1.85 -2.25 1.4 -2.45 1.2 -2.4 1.1 -2.4 1.05 -2.65 0.75 -2.8 0.65 -2.8 Q0.3 -2.8 0.1 -2.3 L0.1 -2.2 -0.3 -1.95 -0.45 -1.55 -0.45 -1.55 -0.5 -1.55 Q-0.6 -1.9 -0.7 -2.2 L-1.0 -3.05 -1.35 -3.75 -1.45 -3.85 -1.65 -4.05 Q-2.2 -4.7 -2.3 -4.15 L-2.35 -3.8 -2.2 -3.45 -2.25 -3.35 -2.6 -3.4 Q-2.9 -3.35 -2.9 -2.95 L-2.9 -2.9 -2.85 -2.4 -3.3 -2.0 -3.45 -1.75 -3.7 -1.1 -3.7 -1.0 -3.9 -1.2 -4.1 -1.25 -4.1 -1.25 -4.25 -1.25 -4.5 -1.25 -4.8 -1.35 -5.0 -1.5 -5.1 -1.6 -5.5 -1.65 -5.65 -1.6 -5.8 -1.35 -5.85 -1.1 -6.05 -1.65 -6.15 -1.75 Q-6.45 -2.05 -6.7 -2.3 L-6.8 -2.3 -6.9 -2.2 -7.0 -2.2 -7.2 -1.95 -7.3 -1.8 -7.4 -1.5 -7.35 -1.2 -7.35 -1.15 -7.65 -1.15 -7.75 -1.05 -7.85 -0.85 -7.9 -0.8 -8.05 -1.1 -8.05 -1.1 -8.5 -1.35 Q-8.85 -1.35 -8.9 -1.15 L-8.9 -0.85 -9.35 -1.3 -9.8 -1.9 -9.9 -2.3 -9.95 -2.5 -10.4 -2.95 -10.55 -2.95 -10.9 -2.8 -10.95 -2.7 -10.75 -2.3 -10.1 -0.6 -10.2 -0.7 -10.9 -0.95 -11.1 -1.1 -11.5 -1.15 Q-11.65 -1.0 -11.75 -0.9"/>
    </path>
    <path d="M-13.1 -2.6 Q-13.1 -2.85 -12.7 -2.8 L-12.15 -2.55 -11.9 -2.4 -11.3 -2.0 -11.1 -1.8 -9.7 -0.85 -9.4 -1.0 -9.3 -1.0 -9.0 -0.9 -8.85 -0.8 -9.0 -1.4 -9.05 -1.6 -8.85 -1.85 -8.4 -1.9 -7.85 -1.55 -7.5 -1.1 Q-7.3 -0.75 -7.1 -0.35 L-7.05 -0.25 -7.05 -0.25 -6.9 -0.35 -6.9 -0.45 -6.6 -0.45 -6.5 -0.45 -6.55 -0.75 -6.55 -0.85 -6.4 -1.05 -6.2 -1.15 -6.05 -1.15 -5.85 -1.05 -5.75 -1.0 -5.5 -1.1 -5.4 -1.1 Q-5.1 -1.1 -4.85 -0.75 L-4.75 -0.65 -4.5 -0.2 -4.35 -0.35 -4.05 -0.45 -3.8 -0.4 -3.5 -0.2 -3.6 -0.4 -3.65 -0.55 -3.55 -0.75 -3.35 -0.8 -2.9 -0.65 -2.8 -0.6 -2.7 -0.45 -2.6 -0.8 -2.6 -0.95 -2.7 -1.55 -2.8 -1.9 -2.95 -2.4 -3.05 -2.75 -3.05 -2.75 Q-3.05 -3.25 -2.7 -3.15 L-2.3 -2.9 -2.2 -2.8 -2.0 -2.55 -1.9 -2.45 Q-1.6 -1.95 -1.25 -1.4 L-1.1 -1.2 -1.0 -1.15 -0.9 -1.6 -0.2 -1.75 Q-0.25 -2.25 0.15 -2.3 L0.25 -2.3 0.25 -2.3 0.5 -2.25 0.9 -1.55 0.9 -1.45 Q0.9 -1.15 0.9 -0.85 L0.9 -0.75 1.2 -0.9 1.4 -0.8 1.5 -0.8 1.65 -0.9 1.95 -1.0 2.05 -1.0 2.25 -0.9 2.4 -0.7 2.4 -0.8 2.65 -1.35 3.05 -1.75 3.35 -1.65 Q3.5 -1.85 3.65 -2.1 L3.65 -2.1 Q3.95 -2.35 4.2 -1.75 L4.2 -1.7 4.2 -1.5 4.2 -0.9 4.65 -0.75 4.7 -0.6 4.95 -0.7 5.35 -0.6 5.35 -0.6 5.75 -0.75 6.05 -0.4 6.25 -0.05 6.3 0.15 6.4 -0.1 6.7 -0.95 6.75 -1.25 7.25 -1.3 7.5 -1.15 7.55 -0.95 7.55 -0.7 7.55 -0.7 8.0 -0.7 8.0 -0.7 8.0 -1.05 8.0 -1.05 Q8.1 -1.3 8.5 -1.3 L8.65 -1.25 8.9 -0.85 8.9 -0.9 8.9 -0.9 9.1 -1.1 9.65 -1.5 9.85 -1.7 9.95 -1.8 10.5 -2.5 Q10.95 -3.15 11.3 -2.8 L11.45 -2.6 11.65 -2.75 Q12.75 -3.7 12.8 -3.0 L12.8 -3.0 11.5 -1.2 Q11.1 -0.65 10.65 -0.05 L10.35 0.25 10.3 0.35 10.3 0.45 10.2 0.6 10.2 0.7 10.1 0.8 9.9 1.0 9.85 1.0 9.75 1.0 9.75 1.0 9.75 1.05 9.65 1.05 9.55 1.05 9.55 1.05 9.55 1.1 9.45 1.1 9.45 1.1 9.35 1.15 9.25 1.2 9.25 1.2 9.2 1.25 9.2 1.3 9.15 1.3 9.15 1.3 9.15 1.3 9.05 1.35 9.05 1.4 9.05 1.4 9.0 1.45 8.95 1.5 8.9 1.5 8.85 1.55 8.85 1.55 8.8 1.6 8.8 1.6 8.75 1.65 8.7 1.7 8.7 1.7 8.65 1.75 8.65 1.75 8.6 1.8 8.55 1.8 8.55 1.85 8.5 1.85 8.45 1.9 8.45 1.95 8.45 1.95 8.35 2.0 8.35 2.0 8.15 2.0 8.15 2.0 8.15 2.0 8.15 2.0 8.15 2.0 8.15 2.1 8.15 2.1 8.1 2.2 8.0 2.35 8.0 2.35 7.9 2.45 7.6 2.5 7.2 2.35 7.1 2.2 7.05 2.35 6.95 2.6 6.85 2.75 6.45 2.8 6.45 2.8 6.05 2.7 5.85 2.8 5.65 2.9 5.2 2.6 5.0 2.85 4.9 2.95 4.6 2.95 4.55 2.95 4.35 2.8 Q4.3 2.85 4.2 2.95 L4.2 2.95 3.85 2.95 3.55 2.95 3.25 2.95 3.25 2.9 3.25 2.35 3.25 2.3 3.2 2.35 3.0 2.8 3.0 2.95 2.3 2.95 1.6 2.95 1.4 2.95 1.45 2.85 1.45 2.8 1.4 2.7 1.0 2.8 0.75 2.75 0.65 2.65 0.35 2.9 -0.15 2.75 -0.55 2.9 -0.65 2.9 -0.9 2.85 -1.05 2.65 -1.1 2.55 -1.1 2.5 -1.05 2.45 -1.1 2.45 -1.15 2.45 -1.35 2.55 -1.85 2.6 -2.2 2.6 -2.5 2.6 -2.7 2.6 -2.95 2.55 -3.35 2.5 -3.5 2.45 -3.55 2.35 -3.7 2.2 -3.8 2.35 -3.95 2.55 -3.95 2.55 -3.95 2.55 -3.95 2.55 -4.25 2.8 -4.55 2.85 -4.85 2.8 -5.15 2.6 -5.25 2.5 -5.35 2.5 -5.45 2.5 -5.45 2.6 -5.55 2.7 -5.55 2.75 -5.65 2.9 -5.85 2.95 -6.15 2.95 -6.3 2.95 -6.3 2.95 -6.5 2.8 -6.6 2.7 -6.6 2.5 -6.7 2.35 -6.8 2.25 -6.85 2.35 -6.85 2.35 -7.0 2.75 -7.15 2.95 -7.3 2.95 -7.5 2.95 -7.8 2.95 -8.0 2.95 -8.1 2.65 -8.15 2.6 -8.15 2.7 -8.25 2.8 -8.3 2.8 -8.3 2.75 -8.3 2.75 -8.35 2.7 -8.4 2.65 -8.45 2.65 -8.45 2.6 -8.5 2.55 -8.55 2.5 -8.6 2.5 -8.6 2.45 -8.65 2.4 -8.7 2.35 -8.75 2.35 -8.75 2.3 -8.8 2.25 -8.8 2.25 -8.85 2.2 -8.9 2.2 -8.9 2.15 -8.95 2.1 -9.0 2.05 -9.05 2.05 -9.05 2.0 -9.15 1.95 -9.2 1.9 -9.25 1.9 -9.3 1.85 -9.35 1.8 -9.4 1.75 -9.45 1.75 -9.5 1.7 -9.5 1.65 -9.55 1.6 -9.6 1.6 -9.7 1.5 -9.6 1.35 -9.7 1.35 -10.0 1.25 -10.0 1.25 -10.1 1.2 -10.1 1.15 -10.15 1.1 -10.15 1.1 -10.15 1.1 -10.15 1.1 -10.15 1.1 -10.2 1.05 -10.3 0.95 -10.4 0.8 -10.4 0.8 -10.4 0.8 -10.4 0.7 -10.4 0.7 -10.4 0.7 -10.4 0.7 -10.4 0.6 -10.4 0.6 -10.4 0.6 -10.4 0.6 -10.4 0.55 -10.4 0.55 -10.4 0.55 -10.4 0.55 -10.9 -0.05 -10.9 -0.05 -10.9 -0.05 -11.0 -0.15 -11.0 -0.15 -11.0 -0.15 -11.0 -0.2 -11.0 -0.2 -11.0 -0.2 -11.0 -0.2 -11.0 -0.2 -11.0 -0.2 -11.0 -0.2 -11.0 -0.2 -11.1 -0.3 -11.1 -0.3 -11.75 -1.15 -11.85 -1.25 -11.85 -1.25 -11.85 -1.25 -11.85 -1.25 -11.95 -1.35 -12.45 -1.8 -12.55 -1.9 -13.05 -2.45 -13.1 -2.6 -13.1 -2.6 Z" fill="none" stroke="#000000" stroke-linecap="round" stroke-linejoin="round" stroke-opacity="0.0" stroke-width="0.0">
      <animate attributeName="stroke" dur="2s" repeatCount="indefinite" values="#000000;#000001"/>
      <animate attributeName="stroke-width" dur="2s" repeatCount="indefinite" values="0.0;0.0"/>
      <animate attributeName="fill-opacity" dur="2s" repeatCount="indefinite" values="0.0;0.0"/>
      <animate attributeName="d" dur="2s" repeatCount="indefinite" values="M-13.1 -2.6 Q-13.1 -2.85 -12.7 -2.8 L-12.15 -2.55 -11.9 -2.4 -11.3 -2.0 -11.1 -1.8 -9.7 -0.85 -9.4 -1.0 -9.3 -1.0 -9.0 -0.9 -8.85 -0.8 -9.0 -1.4 -9.05 -1.6 -8.85 -1.85 -8.4 -1.9 -7.85 -1.55 -7.5 -1.1 Q-7.3 -0.75 -7.1 -0.35 L-7.05 -0.25 -7.05 -0.25 -6.9 -0.35 -6.9 -0.45 -6.6 -0.45 -6.5 -0.45 -6.55 -0.75 -6.55 -0.85 -6.4 -1.05 -6.2 -1.15 -6.05 -1.15 -5.85 -1.05 -5.75 -1.0 -5.5 -1.1 -5.4 -1.1 Q-5.1 -1.1 -4.85 -0.75 L-4.75 -0.65 -4.5 -0.2 -4.35 -0.35 -4.05 -0.45 -3.8 -0.4 -3.5 -0.2 -3.6 -0.4 -3.65 -0.55 -3.55 -0.75 -3.35 -0.8 -2.9 -0.65 -2.8 -0.6 -2.7 -0.45 -2.6 -0.8 -2.6 -0.95 -2.7 -1.55 -2.8 -1.9 -2.95 -2.4 -3.05 -2.75 -3.05 -2.75 Q-3.05 -3.25 -2.7 -3.15 L-2.3 -2.9 -2.2 -2.8 -2.0 -2.55 -1.9 -2.45 Q-1.6 -1.95 -1.25 -1.4 L-1.1 -1.2 -1.0 -1.15 -0.9 -1.6 -0.2 -1.75 Q-0.25 -2.25 0.15 -2.3 L0.25 -2.3 0.25 -2.3 0.5 -2.25 0.9 -1.55 0.9 -1.45 Q0.9 -1.15 0.9 -0.85 L0.9 -0.75 1.2 -0.9 1.4 -0.8 1.5 -0.8 1.65 -0.9 1.95 -1.0 2.05 -1.0 2.25 -0.9 2.4 -0.7 2.4 -0.8 2.65 -1.35 3.05 -1.75 3.35 -1.65 Q3.5 -1.85 3.65 -2.1 L3.65 -2.1 Q3.95 -2.35 4.2 -1.75 L4.2 -1.7 4.2 -1.5 4.2 -0.9 4.65 -0.75 4.7 -0.6 4.95 -0.7 5.35 -0.6 5.35 -0.6 5.75 -0.75 6.05 -0.4 6.25 -0.05 6.3 0.15 6.4 -0.1 6.7 -0.95 6.75 -1.25 7.25 -1.3 7.5 -1.15 7.55 -0.95 7.55 -0.7 7.55 -0.7 8.0 -0.7 8.0 -0.7 8.0 -1.05 8.0 -1.05 Q8.1 -1.3 8.5 -1.3 L8.65 -1.25 8.9 -0.85 8.9 -0.9 8.9 -0.9 9.1 -1.1 9.65 -1.5 9.85 -1.7 9.95 -1.8 10.5 -2.5 Q10.95 -3.15 11.3 -2.8 L11.45 -2.6 11.65 -2.75 Q12.75 -3.7 12.8 -3.0 L12.8 -3.0 11.5 -1.2 Q11.1 -0.65 10.65 -0.05 L10.35 0.25 10.3 0.35 10.3 0.45 10.2 0.6 10.2 0.7 10.1 0.8 9.9 1.0 9.85 1.0 9.75 1.0 9.75 1.0 9.75 1.05 9.65 1.05 9.55 1.05 9.55 1.05 9.55 1.1 9.45 1.1 9.45 1.1 9.35 1.15 9.25 1.2 9.25 1.2 9.2 1.25 9.2 1.3 9.15 1.3 9.15 1.3 9.15 1.3 9.05 1.35 9.05 1.4 9.05 1.4 9.0 1.45 8.95 1.5 8.9 1.5 8.85 1.55 8.85 1.55 8.8 1.6 8.8 1.6 8.75 1.65 8.7 1.7 8.7 1.7 8.65 1.75 8.65 1.75 8.6 1.8 8.55 1.8 8.55 1.85 8.5 1.85 8.45 1.9 8.45 1.95 8.45 1.95 8.35 2.0 8.35 2.0 8.15 2.0 8.15 2.0 8.15 2.0 8.15 2.0 8.15 2.0 8.15 2.1 8.15 2.1 8.1 2.2 8.0 2.35 8.0 2.35 7.9 2.45 7.6 2.5 7.2 2.35 7.1 2.2 7.05 2.35 6.95 2.6 6.85 2.75 6.45 2.8 6.45 2.8 6.05 2.7 5.85 2.8 5.65 2.9 5.2 2.6 5.0 2.85 4.9 2.95 4.6 2.95 4.55 2.95 4.35 2.8 Q4.3 2.85 4.2 2.95 L4.2 2.95 3.85 2.95 3.55 2.95 3.25 2.95 3.25 2.9 3.25 2.35 3.25 2.3 3.2 2.35 3.0 2.8 3.0 2.95 2.3 2.95 1.6 2.95 1.4 2.95 1.45 2.85 1.45 2.8 1.4 2.7 1.0 2.8 0.75 2.75 0.65 2.65 0.35 2.9 -0.15 2.75 -0.55 2.9 -0.65 2.9 -0.9 2.85 -1.05 2.65 -1.1 2.55 -1.1 2.5 -1.05 2.45 -1.1 2.45 -1.15 2.45 -1.35 2.55 -1.85 2.6 -2.2 2.6 -2.5 2.6 -2.7 2.6 -2.95 2.55 -3.35 2.5 -3.5 2.45 -3.55 2.35 -3.7 2.2 -3.8 2.35 -3.95 2.55 -3.95 2.55 -3.95 2.55 -3.95 2.55 -4.25 2.8 -4.55 2.85 -4.85 2.8 -5.15 2.6 -5.25 2.5 -5.35 2.5 -5.45 2.5 -5.45 2.6 -5.55 2.7 -5.55 2.75 -5.65 2.9 -5.85 2.95 -6.15 2.95 -6.3 2.95 -6.3 2.95 -6.5 2.8 -6.6 2.7 -6.6 2.5 -6.7 2.35 -6.8 2.25 -6.85 2.35 -6.85 2.35 -7.0 2.75 -7.15 2.95 -7.3 2.95 -7.5 2.95 -7.8 2.95 -8.0 2.95 -8.1 2.65 -8.15 2.6 -8.15 2.7 -8.25 2.8 -8.3 2.8 -8.3 2.75 -8.3 2.75 -8.35 2.7 -8.4 2.65 -8.45 2.65 -8.45 2.6 -8.5 2.55 -8.55 2.5 -8.6 2.5 -8.6 2.45 -8.65 2.4 -8.7 2.35 -8.75 2.35 -8.75 2.3 -8.8 2.25 -8.8 2.25 -8.85 2.2 -8.9 2.2 -8.9 2.15 -8.95 2.1 -9.0 2.05 -9.05 2.05 -9.05 2.0 -9.15 1.95 -9.2 1.9 -9.25 1.9 -9.3 1.85 -9.35 1.8 -9.4 1.75 -9.45 1.75 -9.5 1.7 -9.5 1.65 -9.55 1.6 -9.6 1.6 -9.7 1.5 -9.6 1.35 -9.7 1.35 -10.0 1.25 -10.0 1.25 -10.1 1.2 -10.1 1.15 -10.15 1.1 -10.15 1.1 -10.15 1.1 -10.15 1.1 -10.15 1.1 -10.2 1.05 -10.3 0.95 -10.4 0.8 -10.4 0.8 -10.4 0.8 -10.4 0.7 -10.4 0.7 -10.4 0.7 -10.4 0.7 -10.4 0.6 -10.4 0.6 -10.4 0.6 -10.4 0.6 -10.4 0.55 -10.4 0.55 -10.4 0.55 -10.4 0.55 -10.9 -0.05 -10.9 -0.05 -10.9 -0.05 -11.0 -0.15 -11.0 -0.15 -11.0 -0.15 -11.0 -0.2 -11.0 -0.2 -11.0 -0.2 -11.0 -0.2 -11.0 -0.2 -11.0 -0.2 -11.0 -0.2 -11.0 -0.2 -11.1 -0.3 -11.1 -0.3 -11.75 -1.15 -11.85 -1.25 -11.85 -1.25 -11.85 -1.25 -11.85 -1.25 -11.95 -1.35 -12.45 -1.8 -12.55 -1.9 -13.05 -2.45 -13.1 -2.6 -13.1 -2.6 Z;M-11.75 -0.9 Q-11.65 -1.0 -11.5 -1.15 L-11.1 -1.1 -10.9 -0.95 -10.2 -0.7 -10.1 -0.6 -10.75 -2.3 -10.95 -2.7 -10.9 -2.8 -10.55 -2.95 -10.4 -2.95 -9.95 -2.5 -9.9 -2.3 -9.8 -1.9 -9.35 -1.3 -8.9 -0.85 -8.9 -1.15 Q-8.85 -1.35 -8.5 -1.35 L-8.05 -1.1 -8.05 -1.1 -7.9 -0.8 -7.85 -0.85 -7.75 -1.05 -7.65 -1.15 -7.35 -1.15 -7.35 -1.2 -7.4 -1.5 -7.3 -1.8 -7.2 -1.95 -7.0 -2.2 -6.9 -2.2 -6.8 -2.3 -6.7 -2.3 Q-6.45 -2.05 -6.15 -1.75 L-6.05 -1.65 -5.85 -1.1 -5.8 -1.35 -5.65 -1.6 -5.5 -1.65 -5.1 -1.6 -5.0 -1.5 -4.8 -1.35 -4.5 -1.25 -4.25 -1.25 -4.1 -1.25 -4.1 -1.25 -3.9 -1.2 -3.7 -1.0 -3.7 -1.1 -3.45 -1.75 -3.3 -2.0 -2.85 -2.4 -2.9 -2.9 -2.9 -2.95 Q-2.9 -3.35 -2.6 -3.4 L-2.25 -3.35 -2.2 -3.45 -2.35 -3.8 -2.3 -4.15 Q-2.2 -4.7 -1.65 -4.05 L-1.45 -3.85 -1.35 -3.75 -1.0 -3.05 -0.7 -2.2 Q-0.6 -1.9 -0.5 -1.55 L-0.45 -1.55 -0.45 -1.55 -0.3 -1.95 0.1 -2.2 0.1 -2.3 Q0.3 -2.8 0.65 -2.8 L0.75 -2.8 1.05 -2.65 1.1 -2.4 1.2 -2.4 1.4 -2.45 1.85 -2.25 1.95 -2.2 2.2 -2.0 2.3 -1.8 2.35 -1.6 2.25 -1.1 2.4 -0.8 2.7 -0.65 Q2.8 -1.1 3.2 -1.15 L3.25 -1.15 Q3.5 -1.05 3.75 -0.95 L3.75 -0.95 3.9 -0.65 4.45 -1.15 4.65 -1.7 4.7 -1.95 4.8 -2.15 5.05 -2.35 5.2 -2.4 5.6 -2.3 5.8 -1.9 5.75 -1.5 5.75 -1.3 5.7 -1.1 6.1 -0.45 6.25 -0.75 6.6 -1.2 6.8 -1.4 6.95 -1.5 7.3 -1.65 7.3 -1.65 7.55 -1.9 7.55 -1.95 8.0 -2.0 8.1 -2.0 Q8.4 -2.0 8.7 -2.05 L8.8 -2.05 9.0 -1.85 9.0 -1.75 9.0 -1.75 8.9 -1.55 9.35 -1.2 9.5 -1.0 9.6 -0.9 10.35 -1.45 Q10.7 -1.75 11.05 -2.1 L11.25 -2.35 11.6 -2.7 Q12.65 -3.8 12.65 -2.8 L12.65 -2.7 11.3 -0.7 Q10.6 0.0 10.35 0.8 L10.2 1.0 10.1 1.0 9.95 1.0 9.85 1.0 9.75 1.0 9.65 1.05 9.55 1.05 9.55 1.05 9.55 1.1 9.45 1.1 9.35 1.15 9.35 1.15 9.35 1.2 9.25 1.2 9.2 1.25 9.2 1.3 9.15 1.3 9.15 1.3 9.05 1.35 9.05 1.4 9.0 1.45 9.0 1.45 9.0 1.45 8.9 1.5 8.85 1.55 8.8 1.6 8.8 1.6 8.75 1.65 8.7 1.7 8.65 1.75 8.65 1.75 8.65 1.75 8.55 1.8 8.55 1.85 8.5 1.85 8.45 1.9 8.45 1.95 8.4 2.0 8.4 2.0 8.35 2.05 8.35 2.05 8.35 2.05 8.25 2.1 8.2 2.15 8.2 2.2 8.2 2.2 8.15 2.25 8.0 2.4 7.95 2.4 7.9 2.45 7.85 2.5 7.85 2.55 7.8 2.6 7.8 2.65 7.75 2.7 7.7 2.7 7.6 2.8 7.55 2.85 7.5 2.85 7.4 2.95 7.0 2.95 6.75 2.95 6.55 2.95 6.35 2.95 6.05 2.95 5.85 2.95 5.75 2.7 5.65 2.7 5.25 2.75 5.0 2.75 5.0 2.95 4.3 2.95 3.8 2.95 3.75 2.65 3.65 2.35 3.65 2.4 3.55 2.55 Q3.4 2.75 3.15 2.75 L3.15 2.75 2.75 2.65 2.75 2.95 2.45 2.95 2.45 2.95 1.75 2.95 1.65 2.95 1.55 2.95 1.15 2.95 0.95 2.95 0.25 2.95 0.15 2.35 0.1 2.2 -0.05 2.25 -0.05 2.35 -0.05 2.45 -0.15 2.75 -0.25 2.95 -0.45 2.95 -0.85 2.95 -1.15 2.95 -1.55 2.95 -1.65 2.8 -1.65 2.55 -1.8 2.45 -1.75 2.45 -1.75 2.35 -1.75 2.25 -1.85 2.15 -1.9 2.2 -1.95 2.35 -2.05 2.7 -2.2 2.95 -2.6 2.95 -2.8 2.95 -3.1 2.95 -3.5 2.95 -3.5 2.95 -3.5 2.85 -3.5 2.65 -3.5 2.55 -3.4 2.35 -3.4 2.35 -3.45 2.3 -3.45 2.35 -3.5 2.65 -3.5 2.75 -3.7 2.95 -4.1 2.95 -4.2 2.95 -4.3 2.95 -4.4 2.95 -4.5 2.95 -4.65 2.75 -4.65 2.55 -4.65 2.35 -4.65 2.1 -4.7 1.85 -4.8 1.95 -4.8 1.95 -4.9 2.2 -4.9 2.2 -5.0 2.35 -5.2 2.55 -5.3 2.55 -5.35 2.6 -5.55 2.65 -5.8 2.6 -5.95 2.45 -6.0 2.35 -6.0 2.2 -6.1 2.35 -6.15 2.4 -6.2 2.6 -6.2 2.6 -6.3 2.75 -6.3 2.85 -6.3 2.85 -6.3 2.85 -6.4 2.95 -6.45 2.95 -6.55 2.95 -6.55 2.95 -6.55 2.95 -6.55 2.95 -6.65 2.95 -6.65 2.95 -6.65 2.95 -6.65 2.95 -6.75 2.95 -6.85 2.95 -6.85 2.95 -6.85 2.95 -7.25 2.95 -7.25 2.95 -7.25 2.95 -7.3 2.85 -7.3 2.85 -7.3 2.75 -7.3 2.75 -7.3 2.75 -7.3 2.65 -7.3 2.65 -7.3 2.65 -7.3 2.6 -7.3 2.5 -7.2 2.5 -7.2 2.5 -7.2 2.6 -7.2 2.6 -7.2 2.7 -7.2 2.7 -7.3 2.8 -7.7 2.95 -7.8 2.95 -8.1 2.95 -8.15 2.95 -8.15 2.95 -8.15 2.95 -8.25 2.85 -8.25 2.85 -8.25 2.8 -8.3 2.8 -8.3 2.75 -8.35 2.7 -8.4 2.65 -8.45 2.65 -8.45 2.6 -8.5 2.55 -8.55 2.5 -8.6 2.5 -8.6 2.45 -8.65 2.4 -8.7 2.35 -8.75 2.35 -8.75 2.3 -8.8 2.25 -8.85 2.2 -8.9 2.2 -8.9 2.15 -8.95 2.1 -9.0 2.05 -9.05 2.05 -9.05 2.0 -9.15 1.95 -9.2 1.9 -9.25 1.9 -9.3 1.85 -9.35 1.8 -9.4 1.75 -9.45 1.75 -9.5 1.7 -9.5 1.65 -9.55 1.6 -9.6 1.6 -9.7 1.5 -9.75 1.45 -9.8 1.45 -9.85 1.4 -9.9 1.35 -9.9 1.35 -9.95 1.3 -10.05 1.1 -10.15 0.85 -10.25 0.75 -10.85 0.1 -11.05 -0.1 -11.75 -0.9 Z"/>
    </path>
  </g>
</svg>
