<?xml version="1.0" encoding="UTF-8" standalone="no"?>
<svg xmlns:ffdec="https://www.free-decompiler.com/flash" xmlns:xlink="http://www.w3.org/1999/xlink" ffdec:objectType="morphshape" height="6.9px" width="25.9px" xmlns="http://www.w3.org/2000/svg">
  <g transform="matrix(1.0, 0.0, 0.0, 1.0, 13.1, 3.95)">
    <path d="M-11.2 -0.4 L-11.2 -0.4 -10.55 0.75 -10.4 0.95 -10.4 0.95 -10.3 1.0 -10.25 1.05 -10.2 1.1 -10.15 1.1 -10.1 1.15 -10.1 1.2 -10.05 1.25 -10.0 1.25 -9.95 1.3 -9.85 1.35 -9.85 1.35 -9.85 1.4 -9.8 1.45 -9.75 1.45 -9.7 1.5 -9.6 1.6 -9.6 1.6 -9.6 1.6 -9.6 1.6 -9.55 1.6 -9.5 1.65 -9.5 1.65 -9.5 1.7 -9.45 1.75 -9.4 1.75 -9.35 1.8 -9.35 1.8 -9.3 1.85 -9.3 1.85 -9.25 1.9 -9.2 1.9 -9.15 1.95 -9.05 2.0 -9.05 2.0 -9.05 2.05 -9.0 2.05 -8.95 2.1 -8.95 2.1 -8.9 2.15 -8.9 2.2 -8.85 2.2 -8.8 2.25 -8.8 2.25 -8.75 2.3 -8.75 2.35 -8.7 2.35 -8.65 2.4 -8.65 2.4 -8.6 2.45 -8.6 2.5 -8.55 2.5 -8.5 2.55 -8.45 2.6 -8.45 2.65 -8.4 2.65 -8.35 2.7 -8.35 2.7 -8.3 2.75 -8.3 2.75 -8.3 2.8 -8.25 2.8 -8.25 2.85 -8.2 2.9 -8.15 2.95 -8.15 2.95 -7.75 2.95 -7.75 2.95 -7.75 2.95 -7.65 2.95 -7.55 2.95 -7.55 2.95 -7.55 2.95 -7.55 2.95 -7.45 2.95 -7.35 2.95 -7.35 2.95 -7.35 2.95 -7.15 2.95 -7.05 2.95 -6.85 2.95 -6.05 2.95 -5.85 2.95 -5.55 2.95 -5.45 2.95 -5.35 2.95 -4.95 2.95 -4.55 2.95 -4.15 2.95 -3.55 2.95 -3.35 2.95 -3.25 2.95 -3.15 2.95 -3.05 2.95 -2.35 2.95 Q-2.05 2.95 -1.75 2.95 L-1.55 2.95 -1.45 2.95 -1.25 2.95 -1.15 2.95 -0.75 2.95 -0.45 2.95 -0.25 2.95 0.45 2.95 1.25 2.95 1.45 2.95 1.75 2.95 1.85 2.75 2.0 2.6 2.0 2.65 2.0 2.95 2.4 2.95 Q2.6 2.95 2.8 2.95 L3.1 2.95 3.5 2.95 4.9 2.95 5.1 2.95 5.5 2.95 5.6 2.95 5.6 2.95 6.3 2.95 6.3 2.95 7.2 2.95 7.4 2.95 7.5 2.85 7.55 2.85 7.6 2.8 7.7 2.7 7.7 2.7 7.75 2.7 7.8 2.65 7.8 2.6 7.85 2.55 7.85 2.5 7.9 2.45 7.95 2.4 8.0 2.4 8.15 2.25 8.2 2.2 8.2 2.15 8.25 2.1 8.3 2.1 8.35 2.05 8.4 2.0 8.4 2.0 8.45 1.95 8.45 1.9 8.5 1.85 8.55 1.8 8.6 1.8 8.65 1.75 8.7 1.7 8.75 1.65 8.8 1.6 8.85 1.55 8.9 1.5 8.95 1.5 9.0 1.45 9.05 1.4 9.05 1.35 9.15 1.3 9.2 1.3 9.2 1.25 9.25 1.2 9.35 1.15 9.45 1.1 9.55 1.05 9.65 1.05 9.75 1.05 9.75 1.0 9.85 1.0 9.95 1.0 10.1 1.0 10.25 1.0 10.35 1.0 10.45 1.05 10.5 1.05 10.6 1.1 10.7 1.1 10.7 1.1 10.9 0.9 11.1 0.7 11.35 0.2 11.4 -0.2 11.4 -0.2 11.4 -0.2 11.4 -0.2 11.4 -0.2 11.4 -0.3 11.3 -0.45 11.25 -0.45 11.15 -0.5 11.05 -0.5 11.0 -0.5 11.0 -0.5 11.0 -0.45 10.9 -0.45 10.9 -0.45 10.7 -0.35 10.7 -0.35 10.7 -0.35 10.65 -0.35 10.55 -0.35 10.3 -0.2 10.2 -0.2 10.05 -0.25 10.1 -0.35 10.1 -0.5 10.0 -0.65 9.9 -0.75 9.8 -0.75 9.5 -0.8 Q9.3 -0.8 9.15 -0.6 L9.05 -0.5 8.9 -0.2 8.9 -0.25 8.9 -0.4 8.9 -0.55 8.8 -0.8 9.0 -0.85 9.1 -1.0 8.8 -1.7 8.9 -2.2 Q8.9 -3.5 8.2 -2.65 8.05 -2.45 7.9 -2.25 L7.5 -1.55 7.25 -1.1 7.05 -0.65 6.75 -0.75 6.4 -0.65 6.3 -0.65 6.0 -0.6 6.15 -1.1 Q6.15 -1.3 5.85 -1.3 L5.75 -1.3 5.85 -1.5 5.85 -1.5 5.95 -2.05 5.95 -2.15 5.85 -2.5 5.45 -2.35 5.45 -2.35 5.15 -2.1 4.9 -1.8 4.8 -1.85 4.15 -1.95 4.05 -1.9 2.95 -1.2 2.75 -1.1 2.45 -1.7 2.1 -1.75 1.95 -1.65 1.75 -1.5 1.65 -1.4 1.65 -1.3 1.45 -0.95 1.35 -1.25 0.95 -1.4 0.8 -1.35 0.8 -1.75 0.75 -1.9 0.6 -2.1 0.4 -2.35 0.4 -2.5 0.4 -2.6 Q0.45 -3.1 0.45 -3.55 L0.45 -3.55 0.4 -3.85 0.15 -3.95 -0.2 -3.8 -0.25 -3.75 -0.35 -3.65 -0.4 -3.5 -0.4 -3.4 -0.45 -3.1 -0.45 -3.0 -0.7 -2.75 -0.85 -2.6 -0.95 -2.4 -1.05 -1.6 Q-1.1 -1.25 -1.15 -0.95 L-1.15 -0.85 -1.5 -0.85 -1.55 -1.1 -1.6 -1.2 -1.95 -1.3 -2.2 -1.25 -2.3 -1.25 -2.7 -1.05 -2.65 -0.3 -2.65 -0.2 -2.8 -0.15 -3.05 -0.3 -3.1 -0.35 Q-3.25 -0.8 -3.65 -0.85 L-3.75 -0.85 -4.1 -0.75 -4.2 -0.65 -4.2 -0.55 -4.35 -0.55 -4.45 -1.1 -4.6 -1.6 -4.6 -1.6 -4.8 -2.05 -4.95 -2.25 -5.2 -2.5 -5.4 -2.6 -5.75 -2.75 -6.0 -2.5 -6.0 -2.4 -5.95 -1.85 -5.95 -1.6 -5.95 -1.5 -6.05 -1.3 -6.45 -1.15 -6.55 -1.15 Q-6.75 -0.85 -6.9 -0.55 L-6.9 -0.55 -6.95 -0.65 -7.05 -0.8 -7.45 -0.9 -7.45 -0.9 Q-7.8 -0.9 -7.8 -0.65 L-7.8 -0.55 -7.65 -0.2 -7.9 -0.4 -8.05 -0.65 -8.05 -0.75 -8.2 -1.3 -8.45 -1.95 -9.0 -2.45 -9.15 -2.55 -9.75 -3.1 -9.85 -3.15 Q-10.25 -3.5 -10.25 -2.9 L-10.2 -2.7 -10.4 -2.65 -10.5 -2.45 -10.45 -2.1 -10.2 -1.5 -9.8 -0.45 -9.85 -0.45 -10.35 -0.45 -10.55 -0.65 Q-10.7 -0.7 -10.8 -0.7 L-10.95 -0.65 Q-11.1 -0.5 -11.2 -0.4" fill="#ffffff" fill-rule="evenodd" stroke="none">
      <animate attributeName="fill" dur="2s" repeatCount="indefinite" values="#ffffff;#ffffff"/>
      <animate attributeName="fill-opacity" dur="2s" repeatCount="indefinite" values="1.0;1.0"/>
      <animate attributeName="d" dur="2s" repeatCount="indefinite" values="M-11.2 -0.4 L-11.2 -0.4 -10.55 0.75 -10.4 0.95 -10.4 0.95 -10.3 1.0 -10.25 1.05 -10.2 1.1 -10.15 1.1 -10.1 1.15 -10.1 1.2 -10.05 1.25 -10.0 1.25 -9.95 1.3 -9.85 1.35 -9.85 1.35 -9.85 1.4 -9.8 1.45 -9.75 1.45 -9.7 1.5 -9.6 1.6 -9.6 1.6 -9.6 1.6 -9.6 1.6 -9.55 1.6 -9.5 1.65 -9.5 1.65 -9.5 1.7 -9.45 1.75 -9.4 1.75 -9.35 1.8 -9.35 1.8 -9.3 1.85 -9.3 1.85 -9.25 1.9 -9.2 1.9 -9.15 1.95 -9.05 2.0 -9.05 2.0 -9.05 2.05 -9.0 2.05 -8.95 2.1 -8.95 2.1 -8.9 2.15 -8.9 2.2 -8.85 2.2 -8.8 2.25 -8.8 2.25 -8.75 2.3 -8.75 2.35 -8.7 2.35 -8.65 2.4 -8.65 2.4 -8.6 2.45 -8.6 2.5 -8.55 2.5 -8.5 2.55 -8.45 2.6 -8.45 2.65 -8.4 2.65 -8.35 2.7 -8.35 2.7 -8.3 2.75 -8.3 2.75 -8.3 2.8 -8.25 2.8 -8.25 2.85 -8.2 2.9 -8.15 2.95 -8.15 2.95 -7.75 2.95 -7.75 2.95 -7.75 2.95 -7.65 2.95 -7.55 2.95 -7.55 2.95 -7.55 2.95 -7.55 2.95 -7.45 2.95 -7.35 2.95 -7.35 2.95 -7.35 2.95 -7.15 2.95 -7.05 2.95 -6.85 2.95 -6.05 2.95 -5.85 2.95 -5.55 2.95 -5.45 2.95 -5.35 2.95 -4.95 2.95 -4.55 2.95 -4.15 2.95 -3.55 2.95 -3.35 2.95 -3.25 2.95 -3.15 2.95 -3.05 2.95 -2.35 2.95 Q-2.05 2.95 -1.75 2.95 L-1.55 2.95 -1.45 2.95 -1.25 2.95 -1.15 2.95 -0.75 2.95 -0.45 2.95 -0.25 2.95 0.45 2.95 1.25 2.95 1.45 2.95 1.75 2.95 1.85 2.75 2.0 2.6 2.0 2.65 2.0 2.95 2.4 2.95 Q2.6 2.95 2.8 2.95 L3.1 2.95 3.5 2.95 4.9 2.95 5.1 2.95 5.5 2.95 5.6 2.95 5.6 2.95 6.3 2.95 6.3 2.95 7.2 2.95 7.4 2.95 7.5 2.85 7.55 2.85 7.6 2.8 7.7 2.7 7.7 2.7 7.75 2.7 7.8 2.65 7.8 2.6 7.85 2.55 7.85 2.5 7.9 2.45 7.95 2.4 8.0 2.4 8.15 2.25 8.2 2.2 8.2 2.15 8.25 2.1 8.3 2.1 8.35 2.05 8.4 2.0 8.4 2.0 8.45 1.95 8.45 1.9 8.5 1.85 8.55 1.8 8.6 1.8 8.65 1.75 8.7 1.7 8.75 1.65 8.8 1.6 8.85 1.55 8.9 1.5 8.95 1.5 9.0 1.45 9.05 1.4 9.05 1.35 9.15 1.3 9.2 1.3 9.2 1.25 9.25 1.2 9.35 1.15 9.45 1.1 9.55 1.05 9.65 1.05 9.75 1.05 9.75 1.0 9.85 1.0 9.95 1.0 10.1 1.0 10.25 1.0 10.35 1.0 10.45 1.05 10.5 1.05 10.6 1.1 10.7 1.1 10.7 1.1 10.9 0.9 11.1 0.7 11.35 0.2 11.4 -0.2 11.4 -0.2 11.4 -0.2 11.4 -0.2 11.4 -0.2 11.4 -0.3 11.3 -0.45 11.25 -0.45 11.15 -0.5 11.05 -0.5 11.0 -0.5 11.0 -0.5 11.0 -0.45 10.9 -0.45 10.9 -0.45 10.7 -0.35 10.7 -0.35 10.7 -0.35 10.65 -0.35 10.55 -0.35 10.3 -0.2 10.2 -0.2 10.05 -0.25 10.1 -0.35 10.1 -0.5 10.0 -0.65 9.9 -0.75 9.8 -0.75 9.5 -0.8 Q9.3 -0.8 9.15 -0.6 L9.05 -0.5 8.9 -0.2 8.9 -0.25 8.9 -0.4 8.9 -0.55 8.8 -0.8 9.0 -0.85 9.1 -1.0 8.8 -1.7 8.9 -2.2 Q8.9 -3.5 8.2 -2.65 8.05 -2.45 7.9 -2.25 L7.5 -1.55 7.25 -1.1 7.05 -0.65 6.75 -0.75 6.4 -0.65 6.3 -0.65 6.0 -0.6 6.15 -1.1 Q6.15 -1.3 5.85 -1.3 L5.75 -1.3 5.85 -1.5 5.85 -1.5 5.95 -2.05 5.95 -2.15 5.85 -2.5 5.45 -2.35 5.45 -2.35 5.15 -2.1 4.9 -1.8 4.8 -1.85 4.15 -1.95 4.05 -1.9 2.95 -1.2 2.75 -1.1 2.45 -1.7 2.1 -1.75 1.95 -1.65 1.75 -1.5 1.65 -1.4 1.65 -1.3 1.45 -0.95 1.35 -1.25 0.95 -1.4 0.8 -1.35 0.8 -1.75 0.75 -1.9 0.6 -2.1 0.4 -2.35 0.4 -2.5 0.4 -2.6 Q0.45 -3.1 0.45 -3.55 L0.45 -3.55 0.4 -3.85 0.15 -3.95 -0.2 -3.8 -0.25 -3.75 -0.35 -3.65 -0.4 -3.5 -0.4 -3.4 -0.45 -3.1 -0.45 -3.0 -0.7 -2.75 -0.85 -2.6 -0.95 -2.4 -1.05 -1.6 Q-1.1 -1.25 -1.15 -0.95 L-1.15 -0.85 -1.5 -0.85 -1.55 -1.1 -1.6 -1.2 -1.95 -1.3 -2.2 -1.25 -2.3 -1.25 -2.7 -1.05 -2.65 -0.3 -2.65 -0.2 -2.8 -0.15 -3.05 -0.3 -3.1 -0.35 Q-3.25 -0.8 -3.65 -0.85 L-3.75 -0.85 -4.1 -0.75 -4.2 -0.65 -4.2 -0.55 -4.35 -0.55 -4.45 -1.1 -4.6 -1.6 -4.6 -1.6 -4.8 -2.05 -4.95 -2.25 -5.2 -2.5 -5.4 -2.6 -5.75 -2.75 -6.0 -2.5 -6.0 -2.4 -5.95 -1.85 -5.95 -1.6 -5.95 -1.5 -6.05 -1.3 -6.45 -1.15 -6.55 -1.15 Q-6.75 -0.85 -6.9 -0.55 L-6.9 -0.55 -6.95 -0.65 -7.05 -0.8 -7.45 -0.9 -7.45 -0.9 Q-7.8 -0.9 -7.8 -0.65 L-7.8 -0.55 -7.65 -0.2 -7.9 -0.4 -8.05 -0.65 -8.05 -0.75 -8.2 -1.3 -8.45 -1.95 -9.0 -2.45 -9.15 -2.55 -9.75 -3.1 -9.85 -3.15 Q-10.25 -3.5 -10.25 -2.9 L-10.2 -2.7 -10.4 -2.65 -10.5 -2.45 -10.45 -2.1 -10.2 -1.5 -9.8 -0.45 -9.85 -0.45 -10.35 -0.45 -10.55 -0.65 Q-10.7 -0.7 -10.8 -0.7 L-10.95 -0.65 Q-11.1 -0.5 -11.2 -0.4;M-13.1 -2.6 L-11.75 -1.15 -10.9 -0.05 -10.5 0.45 -10.5 0.45 -10.4 0.55 -10.4 0.6 -10.4 0.7 -10.4 0.7 -10.4 0.7 -10.4 0.7 -10.4 0.8 -10.4 0.8 -10.4 0.8 -10.4 0.8 -10.3 0.95 -10.3 0.95 -10.2 1.05 -10.2 1.05 -10.15 1.1 -10.15 1.1 -10.15 1.1 -10.1 1.15 -10.0 1.25 -10.0 1.25 -10.0 1.25 -9.8 1.35 -9.8 1.35 -9.7 1.35 -9.7 1.35 -9.7 1.35 -9.6 1.35 -9.6 1.35 -9.7 1.45 -9.7 1.5 -9.7 1.5 -9.7 1.5 -9.7 1.5 -9.6 1.6 -9.6 1.6 -9.6 1.6 -9.55 1.6 -9.5 1.65 -9.5 1.65 -9.45 1.75 -9.45 1.75 -9.45 1.75 -9.35 1.8 -9.35 1.8 -9.3 1.85 -9.3 1.85 -9.3 1.85 -9.25 1.9 -9.25 1.9 -9.2 1.9 -9.15 1.95 -9.05 2.0 -9.05 2.05 -8.95 2.1 -8.95 2.1 -8.95 2.1 -8.9 2.15 -8.9 2.2 -8.8 2.25 -8.8 2.25 -8.8 2.25 -8.75 2.3 -8.75 2.35 -8.7 2.35 -8.65 2.4 -8.65 2.4 -8.6 2.45 -8.6 2.5 -8.55 2.5 -8.5 2.55 -8.45 2.6 -8.45 2.65 -8.4 2.65 -8.35 2.7 -8.3 2.75 -8.3 2.8 -8.25 2.8 -8.15 2.6 -8.1 2.65 -8.0 2.95 -7.15 2.95 -7.0 2.75 -6.85 2.35 -6.8 2.25 -6.7 2.35 -6.6 2.7 -6.3 2.95 -5.85 2.95 -5.55 2.7 -5.45 2.5 -5.35 2.5 -5.25 2.5 -5.15 2.6 -4.55 2.85 Q-4.25 2.85 -3.95 2.55 L-3.8 2.35 -3.7 2.2 -3.55 2.35 -3.5 2.45 -2.95 2.55 -2.7 2.6 -2.5 2.6 -1.85 2.6 -1.05 2.45 -1.1 2.55 -1.0 2.8 -0.55 2.9 -0.15 2.75 -0.15 2.75 0.35 2.9 0.65 2.65 Q0.75 2.8 1.0 2.8 L1.4 2.7 1.4 2.95 3.0 2.95 3.0 2.8 3.2 2.35 3.25 2.3 3.25 2.35 3.25 2.9 3.25 2.95 4.2 2.95 4.3 2.85 4.35 2.8 4.35 2.8 4.45 2.9 4.55 2.95 4.65 2.95 4.65 2.95 4.75 2.95 4.75 2.95 4.85 2.95 5.0 2.95 5.0 2.95 5.0 2.85 5.0 2.85 5.1 2.75 5.2 2.7 5.2 2.7 5.2 2.7 5.2 2.7 5.2 2.6 5.2 2.6 5.3 2.75 5.3 2.75 5.3 2.75 5.3 2.75 5.4 2.85 5.4 2.85 5.45 2.9 5.55 2.9 5.55 2.9 5.75 2.9 5.85 2.8 5.85 2.8 5.85 2.8 5.95 2.7 6.05 2.7 6.05 2.7 6.25 2.8 6.25 2.8 6.35 2.8 6.45 2.8 6.6 2.8 6.7 2.8 6.85 2.7 6.95 2.65 6.95 2.6 7.05 2.55 7.05 2.45 7.05 2.35 7.1 2.3 7.1 2.2 7.2 2.3 7.2 2.35 7.5 2.5 7.6 2.5 7.6 2.5 7.6 2.5 7.9 2.4 8.0 2.35 8.15 2.0 8.45 1.95 8.45 1.9 8.5 1.85 8.55 1.8 8.6 1.8 8.65 1.75 8.7 1.7 8.75 1.65 8.8 1.6 8.85 1.55 8.9 1.5 8.95 1.5 9.0 1.45 9.05 1.4 9.05 1.35 9.15 1.3 9.2 1.3 9.2 1.25 9.25 1.2 9.35 1.2 9.35 1.15 9.45 1.1 9.55 1.05 9.55 1.05 9.65 1.05 9.75 1.0 9.85 1.0 9.9 1.0 10.1 0.75 Q10.25 0.5 10.35 0.25 L10.45 0.15 10.55 0.05 10.55 0.05 10.65 -0.05 10.65 -0.15 10.75 -0.35 10.85 -0.45 11.05 -0.65 11.55 -1.3 11.85 -1.7 Q12.35 -2.35 12.8 -3.0 12.8 -3.45 12.4 -3.25 L11.65 -2.75 11.45 -2.6 11.2 -2.85 10.8 -2.8 10.5 -2.5 10.4 -2.4 10.15 -2.1 9.75 -1.6 Q9.5 -1.4 9.25 -1.25 L9.15 -1.15 8.9 -0.9 8.9 -0.85 8.5 -1.3 8.45 -1.3 8.0 -1.05 8.0 -0.7 8.0 -0.7 7.55 -0.7 7.55 -0.95 7.5 -1.15 6.9 -1.25 6.75 -1.25 6.3 0.15 6.25 -0.05 5.75 -0.75 5.45 -0.6 5.35 -0.6 4.95 -0.7 4.85 -0.7 4.7 -0.6 4.4 -0.85 4.2 -0.9 4.2 -1.55 4.1 -1.9 3.9 -2.2 3.65 -2.1 3.55 -2.0 3.35 -1.65 3.25 -1.65 3.05 -1.75 Q2.7 -1.75 2.4 -0.8 L2.4 -0.7 2.25 -0.9 1.95 -1.0 1.75 -0.95 1.65 -0.9 1.5 -0.8 1.3 -0.9 1.2 -0.9 0.9 -0.75 0.9 -0.75 0.9 -1.3 0.9 -1.45 0.8 -1.75 0.25 -2.3 Q-0.25 -2.3 -0.2 -1.75 L-0.2 -1.75 -0.65 -1.75 -0.8 -1.7 -0.9 -1.6 -1.0 -1.25 -1.0 -1.15 -1.1 -1.2 -1.4 -1.55 -1.9 -2.45 -1.9 -2.45 -1.9 -2.45 -2.1 -2.7 -2.2 -2.8 Q-2.45 -3.0 -2.7 -3.15 L-2.8 -3.15 -3.05 -2.75 -3.0 -2.65 -3.0 -2.6 -3.0 -2.5 -2.8 -1.9 -2.65 -1.3 -2.6 -0.95 -2.7 -0.45 -2.9 -0.65 -3.35 -0.8 -3.45 -0.8 -3.65 -0.55 -3.5 -0.2 -3.6 -0.25 -4.05 -0.45 -4.35 -0.35 -4.35 -0.35 -4.5 -0.2 -4.75 -0.65 -4.75 -0.7 Q-5.05 -1.1 -5.4 -1.1 L-5.45 -1.1 -5.75 -1.0 -5.85 -1.05 -6.1 -1.15 -6.2 -1.15 Q-6.4 -1.05 -6.55 -0.95 L-6.55 -0.85 -6.5 -0.45 -6.9 -0.45 -7.0 -0.3 -7.05 -0.25 -7.15 -0.45 -7.65 -1.3 -8.2 -1.85 -8.4 -1.9 -9.05 -1.6 -9.05 -1.6 Q-8.95 -1.2 -8.85 -0.8 L-9.05 -0.9 -9.3 -1.0 -9.5 -0.95 -9.7 -0.85 -10.1 -1.05 -11.2 -1.9 -11.3 -2.0 -11.7 -2.3 -12.15 -2.55 Q-12.25 -2.7 -12.5 -2.75 L-12.7 -2.8 Q-13.1 -2.85 -13.1 -2.6"/>
    </path>
    <path d="M-11.2 -0.4 Q-11.1 -0.5 -10.95 -0.65 L-10.8 -0.7 Q-10.7 -0.7 -10.55 -0.65 L-10.35 -0.45 -9.85 -0.45 -9.8 -0.45 -10.2 -1.5 -10.45 -2.1 -10.5 -2.45 -10.4 -2.65 -10.2 -2.7 -10.25 -2.9 Q-10.25 -3.5 -9.85 -3.15 L-9.75 -3.1 -9.15 -2.55 -9.0 -2.45 -8.45 -1.95 -8.2 -1.3 -8.05 -0.75 -8.05 -0.65 -7.9 -0.4 -7.65 -0.2 -7.8 -0.55 -7.8 -0.65 Q-7.8 -0.9 -7.45 -0.9 L-7.45 -0.9 -7.05 -0.8 -6.95 -0.65 -6.9 -0.55 -6.9 -0.55 Q-6.75 -0.85 -6.55 -1.15 L-6.45 -1.15 -6.05 -1.3 -5.95 -1.5 -5.95 -1.6 -5.95 -1.85 -6.0 -2.4 -6.0 -2.5 -5.75 -2.75 -5.4 -2.6 -5.2 -2.5 -4.95 -2.25 -4.8 -2.05 -4.6 -1.6 -4.6 -1.6 -4.45 -1.1 -4.35 -0.55 -4.2 -0.55 -4.2 -0.65 -4.1 -0.75 -3.75 -0.85 -3.65 -0.85 Q-3.25 -0.8 -3.1 -0.35 L-3.05 -0.3 -2.8 -0.15 -2.65 -0.2 -2.65 -0.3 -2.7 -1.05 -2.3 -1.25 -2.2 -1.25 -1.95 -1.3 -1.6 -1.2 -1.55 -1.1 -1.5 -0.85 -1.15 -0.85 -1.15 -0.95 Q-1.1 -1.25 -1.05 -1.6 L-0.95 -2.4 -0.85 -2.6 -0.7 -2.75 -0.45 -3.0 -0.45 -3.1 -0.4 -3.4 -0.4 -3.5 -0.35 -3.65 -0.25 -3.75 -0.2 -3.8 0.15 -3.95 0.4 -3.85 0.45 -3.55 0.45 -3.55 Q0.45 -3.1 0.4 -2.6 L0.4 -2.5 0.4 -2.35 0.6 -2.1 0.75 -1.9 0.8 -1.75 0.8 -1.35 0.95 -1.4 1.35 -1.25 1.45 -0.95 1.65 -1.3 1.65 -1.4 1.75 -1.5 1.95 -1.65 2.1 -1.75 2.45 -1.7 2.75 -1.1 2.95 -1.2 4.05 -1.9 4.15 -1.95 4.8 -1.85 4.9 -1.8 5.15 -2.1 5.45 -2.35 5.45 -2.35 5.85 -2.5 5.95 -2.15 5.95 -2.05 5.85 -1.5 5.85 -1.5 5.75 -1.3 5.85 -1.3 Q6.15 -1.3 6.15 -1.1 L6.0 -0.6 6.3 -0.65 6.4 -0.65 6.75 -0.75 7.05 -0.65 7.25 -1.1 7.5 -1.55 7.9 -2.25 Q8.05 -2.45 8.2 -2.65 8.9 -3.5 8.9 -2.2 L8.8 -1.7 9.1 -1.0 9.0 -0.85 8.8 -0.8 8.9 -0.55 8.9 -0.4 8.9 -0.25 8.9 -0.2 9.05 -0.5 9.15 -0.6 Q9.3 -0.8 9.5 -0.8 L9.8 -0.75 9.9 -0.75 10.0 -0.65 10.1 -0.5 10.1 -0.35 10.05 -0.25 10.2 -0.2 10.3 -0.2 10.55 -0.35 10.65 -0.35 10.7 -0.35 10.7 -0.35 10.7 -0.35 10.9 -0.45 10.9 -0.45 11.0 -0.45 11.0 -0.5 11.0 -0.5 11.05 -0.5 11.15 -0.5 11.25 -0.45 11.3 -0.45 11.4 -0.3 11.4 -0.2 11.4 -0.2 11.4 -0.2 11.4 -0.2 11.4 -0.2 11.35 0.2 11.1 0.7 10.9 0.9 10.7 1.1 10.7 1.1 10.6 1.1 10.5 1.05 10.45 1.05 10.35 1.0 10.25 1.0 10.1 1.0 9.95 1.0 9.85 1.0 9.75 1.0 9.75 1.05 9.65 1.05 9.55 1.05 9.45 1.1 9.35 1.15 9.25 1.2 9.2 1.25 9.2 1.3 9.15 1.3 9.05 1.35 9.05 1.4 9.0 1.45 8.95 1.5 8.9 1.5 8.85 1.55 8.8 1.6 8.75 1.65 8.7 1.7 8.65 1.75 8.6 1.8 8.55 1.8 8.5 1.85 8.45 1.9 8.45 1.95 8.4 2.0 8.4 2.0 8.35 2.05 8.3 2.1 8.25 2.1 8.2 2.15 8.2 2.2 8.15 2.25 8.0 2.4 7.95 2.4 7.9 2.45 7.85 2.5 7.85 2.55 7.8 2.6 7.8 2.65 7.75 2.7 7.7 2.7 7.7 2.7 7.6 2.8 7.55 2.85 7.5 2.85 7.4 2.95 7.2 2.95 6.3 2.95 6.3 2.95 5.6 2.95 5.6 2.95 5.5 2.95 5.1 2.95 4.9 2.95 3.5 2.95 3.1 2.95 2.8 2.95 Q2.6 2.95 2.4 2.95 L2.0 2.95 2.0 2.65 2.0 2.6 1.85 2.75 1.75 2.95 1.45 2.95 1.25 2.95 0.45 2.95 -0.25 2.95 -0.45 2.95 -0.75 2.95 -1.15 2.95 -1.25 2.95 -1.45 2.95 -1.55 2.95 -1.75 2.95 Q-2.05 2.95 -2.35 2.95 L-3.05 2.95 -3.15 2.95 -3.25 2.95 -3.35 2.95 -3.55 2.95 -4.15 2.95 -4.55 2.95 -4.95 2.95 -5.35 2.95 -5.45 2.95 -5.55 2.95 -5.85 2.95 -6.05 2.95 -6.85 2.95 -7.05 2.95 -7.15 2.95 -7.35 2.95 -7.35 2.95 -7.35 2.95 -7.45 2.95 -7.55 2.95 -7.55 2.95 -7.55 2.95 -7.55 2.95 -7.65 2.95 -7.75 2.95 -7.75 2.95 -7.75 2.95 -8.15 2.95 -8.15 2.95 -8.2 2.9 -8.25 2.85 -8.25 2.8 -8.3 2.8 -8.3 2.75 -8.3 2.75 -8.35 2.7 -8.35 2.7 -8.4 2.65 -8.45 2.65 -8.45 2.6 -8.5 2.55 -8.55 2.5 -8.6 2.5 -8.6 2.45 -8.65 2.4 -8.65 2.4 -8.7 2.35 -8.75 2.35 -8.75 2.3 -8.8 2.25 -8.8 2.25 -8.85 2.2 -8.9 2.2 -8.9 2.15 -8.95 2.1 -8.95 2.1 -9.0 2.05 -9.05 2.05 -9.05 2.0 -9.05 2.0 -9.15 1.95 -9.2 1.9 -9.25 1.9 -9.3 1.85 -9.3 1.85 -9.35 1.8 -9.35 1.8 -9.4 1.75 -9.45 1.75 -9.5 1.7 -9.5 1.65 -9.5 1.65 -9.55 1.6 -9.6 1.6 -9.6 1.6 -9.6 1.6 -9.6 1.6 -9.7 1.5 -9.75 1.45 -9.8 1.45 -9.85 1.4 -9.85 1.35 -9.85 1.35 -9.95 1.3 -10.0 1.25 -10.05 1.25 -10.1 1.2 -10.1 1.15 -10.15 1.1 -10.2 1.1 -10.25 1.05 -10.3 1.0 -10.4 0.95 -10.4 0.95 -10.55 0.75 -11.2 -0.4 -11.2 -0.4 Z" fill="none" stroke="#000000" stroke-linecap="round" stroke-linejoin="round" stroke-opacity="0.0" stroke-width="0.0">
      <animate attributeName="stroke" dur="2s" repeatCount="indefinite" values="#000000;#000001"/>
      <animate attributeName="stroke-width" dur="2s" repeatCount="indefinite" values="0.0;0.0"/>
      <animate attributeName="fill-opacity" dur="2s" repeatCount="indefinite" values="0.0;0.0"/>
      <animate attributeName="d" dur="2s" repeatCount="indefinite" values="M-11.2 -0.4 Q-11.1 -0.5 -10.95 -0.65 L-10.8 -0.7 Q-10.7 -0.7 -10.55 -0.65 L-10.35 -0.45 -9.85 -0.45 -9.8 -0.45 -10.2 -1.5 -10.45 -2.1 -10.5 -2.45 -10.4 -2.65 -10.2 -2.7 -10.25 -2.9 Q-10.25 -3.5 -9.85 -3.15 L-9.75 -3.1 -9.15 -2.55 -9.0 -2.45 -8.45 -1.95 -8.2 -1.3 -8.05 -0.75 -8.05 -0.65 -7.9 -0.4 -7.65 -0.2 -7.8 -0.55 -7.8 -0.65 Q-7.8 -0.9 -7.45 -0.9 L-7.45 -0.9 -7.05 -0.8 -6.95 -0.65 -6.9 -0.55 -6.9 -0.55 Q-6.75 -0.85 -6.55 -1.15 L-6.45 -1.15 -6.05 -1.3 -5.95 -1.5 -5.95 -1.6 -5.95 -1.85 -6.0 -2.4 -6.0 -2.5 -5.75 -2.75 -5.4 -2.6 -5.2 -2.5 -4.95 -2.25 -4.8 -2.05 -4.6 -1.6 -4.6 -1.6 -4.45 -1.1 -4.35 -0.55 -4.2 -0.55 -4.2 -0.65 -4.1 -0.75 -3.75 -0.85 -3.65 -0.85 Q-3.25 -0.8 -3.1 -0.35 L-3.05 -0.3 -2.8 -0.15 -2.65 -0.2 -2.65 -0.3 -2.7 -1.05 -2.3 -1.25 -2.2 -1.25 -1.95 -1.3 -1.6 -1.2 -1.55 -1.1 -1.5 -0.85 -1.15 -0.85 -1.15 -0.95 Q-1.1 -1.25 -1.05 -1.6 L-0.95 -2.4 -0.85 -2.6 -0.7 -2.75 -0.45 -3.0 -0.45 -3.1 -0.4 -3.4 -0.4 -3.5 -0.35 -3.65 -0.25 -3.75 -0.2 -3.8 0.15 -3.95 0.4 -3.85 0.45 -3.55 0.45 -3.55 Q0.45 -3.1 0.4 -2.6 L0.4 -2.5 0.4 -2.35 0.6 -2.1 0.75 -1.9 0.8 -1.75 0.8 -1.35 0.95 -1.4 1.35 -1.25 1.45 -0.95 1.65 -1.3 1.65 -1.4 1.75 -1.5 1.95 -1.65 2.1 -1.75 2.45 -1.7 2.75 -1.1 2.95 -1.2 4.05 -1.9 4.15 -1.95 4.8 -1.85 4.9 -1.8 5.15 -2.1 5.45 -2.35 5.45 -2.35 5.85 -2.5 5.95 -2.15 5.95 -2.05 5.85 -1.5 5.85 -1.5 5.75 -1.3 5.85 -1.3 Q6.15 -1.3 6.15 -1.1 L6.0 -0.6 6.3 -0.65 6.4 -0.65 6.75 -0.75 7.05 -0.65 7.25 -1.1 7.5 -1.55 7.9 -2.25 Q8.05 -2.45 8.2 -2.65 8.9 -3.5 8.9 -2.2 L8.8 -1.7 9.1 -1.0 9.0 -0.85 8.8 -0.8 8.9 -0.55 8.9 -0.4 8.9 -0.25 8.9 -0.2 9.05 -0.5 9.15 -0.6 Q9.3 -0.8 9.5 -0.8 L9.8 -0.75 9.9 -0.75 10.0 -0.65 10.1 -0.5 10.1 -0.35 10.05 -0.25 10.2 -0.2 10.3 -0.2 10.55 -0.35 10.65 -0.35 10.7 -0.35 10.7 -0.35 10.7 -0.35 10.9 -0.45 10.9 -0.45 11.0 -0.45 11.0 -0.5 11.0 -0.5 11.05 -0.5 11.15 -0.5 11.25 -0.45 11.3 -0.45 11.4 -0.3 11.4 -0.2 11.4 -0.2 11.4 -0.2 11.4 -0.2 11.4 -0.2 11.35 0.2 11.1 0.7 10.9 0.9 10.7 1.1 10.7 1.1 10.6 1.1 10.5 1.05 10.45 1.05 10.35 1.0 10.25 1.0 10.1 1.0 9.95 1.0 9.85 1.0 9.75 1.0 9.75 1.05 9.65 1.05 9.55 1.05 9.45 1.1 9.35 1.15 9.25 1.2 9.2 1.25 9.2 1.3 9.15 1.3 9.05 1.35 9.05 1.4 9.0 1.45 8.95 1.5 8.9 1.5 8.85 1.55 8.8 1.6 8.75 1.65 8.7 1.7 8.65 1.75 8.6 1.8 8.55 1.8 8.5 1.85 8.45 1.9 8.45 1.95 8.4 2.0 8.4 2.0 8.35 2.05 8.3 2.1 8.25 2.1 8.2 2.15 8.2 2.2 8.15 2.25 8.0 2.4 7.95 2.4 7.9 2.45 7.85 2.5 7.85 2.55 7.8 2.6 7.8 2.65 7.75 2.7 7.7 2.7 7.7 2.7 7.6 2.8 7.55 2.85 7.5 2.85 7.4 2.95 7.2 2.95 6.3 2.95 6.3 2.95 5.6 2.95 5.6 2.95 5.5 2.95 5.1 2.95 4.9 2.95 3.5 2.95 3.1 2.95 2.8 2.95 Q2.6 2.95 2.4 2.95 L2.0 2.95 2.0 2.65 2.0 2.6 1.85 2.75 1.75 2.95 1.45 2.95 1.25 2.95 0.45 2.95 -0.25 2.95 -0.45 2.95 -0.75 2.95 -1.15 2.95 -1.25 2.95 -1.45 2.95 -1.55 2.95 -1.75 2.95 Q-2.05 2.95 -2.35 2.95 L-3.05 2.95 -3.15 2.95 -3.25 2.95 -3.35 2.95 -3.55 2.95 -4.15 2.95 -4.55 2.95 -4.95 2.95 -5.35 2.95 -5.45 2.95 -5.55 2.95 -5.85 2.95 -6.05 2.95 -6.85 2.95 -7.05 2.95 -7.15 2.95 -7.35 2.95 -7.35 2.95 -7.35 2.95 -7.45 2.95 -7.55 2.95 -7.55 2.95 -7.55 2.95 -7.55 2.95 -7.65 2.95 -7.75 2.95 -7.75 2.95 -7.75 2.95 -8.15 2.95 -8.15 2.95 -8.2 2.9 -8.25 2.85 -8.25 2.8 -8.3 2.8 -8.3 2.75 -8.3 2.75 -8.35 2.7 -8.35 2.7 -8.4 2.65 -8.45 2.65 -8.45 2.6 -8.5 2.55 -8.55 2.5 -8.6 2.5 -8.6 2.45 -8.65 2.4 -8.65 2.4 -8.7 2.35 -8.75 2.35 -8.75 2.3 -8.8 2.25 -8.8 2.25 -8.85 2.2 -8.9 2.2 -8.9 2.15 -8.95 2.1 -8.95 2.1 -9.0 2.05 -9.05 2.05 -9.05 2.0 -9.05 2.0 -9.15 1.95 -9.2 1.9 -9.25 1.9 -9.3 1.85 -9.3 1.85 -9.35 1.8 -9.35 1.8 -9.4 1.75 -9.45 1.75 -9.5 1.7 -9.5 1.65 -9.5 1.65 -9.55 1.6 -9.6 1.6 -9.6 1.6 -9.6 1.6 -9.6 1.6 -9.7 1.5 -9.75 1.45 -9.8 1.45 -9.85 1.4 -9.85 1.35 -9.85 1.35 -9.95 1.3 -10.0 1.25 -10.05 1.25 -10.1 1.2 -10.1 1.15 -10.15 1.1 -10.2 1.1 -10.25 1.05 -10.3 1.0 -10.4 0.95 -10.4 0.95 -10.55 0.75 -11.2 -0.4 -11.2 -0.4 Z;M-13.1 -2.6 Q-13.1 -2.85 -12.7 -2.8 L-12.5 -2.75 Q-12.25 -2.7 -12.15 -2.55 L-11.7 -2.3 -11.3 -2.0 -11.2 -1.9 -10.1 -1.05 -9.7 -0.85 -9.5 -0.95 -9.3 -1.0 -9.05 -0.9 -8.85 -0.8 Q-8.95 -1.2 -9.05 -1.6 L-9.05 -1.6 -8.4 -1.9 -8.2 -1.85 -7.65 -1.3 -7.15 -0.45 -7.05 -0.25 -7.0 -0.3 -6.9 -0.45 -6.5 -0.45 -6.55 -0.85 -6.55 -0.95 Q-6.4 -1.05 -6.2 -1.15 L-6.1 -1.15 -5.85 -1.05 -5.75 -1.0 -5.45 -1.1 -5.4 -1.1 Q-5.05 -1.1 -4.75 -0.7 L-4.75 -0.65 -4.5 -0.2 -4.35 -0.35 -4.35 -0.35 -4.05 -0.45 -3.6 -0.25 -3.5 -0.2 -3.65 -0.55 -3.45 -0.8 -3.35 -0.8 -2.9 -0.65 -2.7 -0.45 -2.6 -0.95 -2.65 -1.3 -2.8 -1.9 -3.0 -2.5 -3.0 -2.6 -3.0 -2.65 -3.05 -2.75 -2.8 -3.15 -2.7 -3.15 Q-2.45 -3.0 -2.2 -2.8 L-2.1 -2.7 -1.9 -2.45 -1.9 -2.45 -1.9 -2.45 -1.4 -1.55 -1.1 -1.2 -1.0 -1.15 -1.0 -1.25 -0.9 -1.6 -0.8 -1.7 -0.65 -1.75 -0.2 -1.75 -0.2 -1.75 Q-0.25 -2.3 0.25 -2.3 L0.8 -1.75 0.9 -1.45 0.9 -1.3 0.9 -0.75 0.9 -0.75 1.2 -0.9 1.3 -0.9 1.5 -0.8 1.65 -0.9 1.75 -0.95 1.95 -1.0 2.25 -0.9 2.4 -0.7 2.4 -0.8 Q2.7 -1.75 3.05 -1.75 L3.25 -1.65 3.35 -1.65 3.55 -2.0 3.65 -2.1 3.9 -2.2 4.1 -1.9 4.2 -1.55 4.2 -0.9 4.4 -0.85 4.7 -0.6 4.85 -0.7 4.95 -0.7 5.35 -0.6 5.45 -0.6 5.75 -0.75 6.25 -0.05 6.3 0.15 6.75 -1.25 6.9 -1.25 7.5 -1.15 7.55 -0.95 7.55 -0.7 8.0 -0.7 8.0 -0.7 8.0 -1.05 8.45 -1.3 8.5 -1.3 8.9 -0.85 8.9 -0.9 9.15 -1.15 9.25 -1.25 Q9.5 -1.4 9.75 -1.6 L10.15 -2.1 10.4 -2.4 10.5 -2.5 10.8 -2.8 11.2 -2.85 11.45 -2.6 11.65 -2.75 12.4 -3.25 Q12.8 -3.45 12.8 -3.0 12.35 -2.35 11.85 -1.7 L11.55 -1.3 11.05 -0.65 10.85 -0.45 10.75 -0.35 10.65 -0.15 10.65 -0.05 10.55 0.05 10.55 0.05 10.45 0.15 10.35 0.25 Q10.25 0.5 10.1 0.75 L9.9 1.0 9.85 1.0 9.75 1.0 9.65 1.05 9.55 1.05 9.55 1.05 9.45 1.1 9.35 1.15 9.35 1.2 9.25 1.2 9.2 1.25 9.2 1.3 9.15 1.3 9.05 1.35 9.05 1.4 9.0 1.45 8.95 1.5 8.9 1.5 8.85 1.55 8.8 1.6 8.75 1.65 8.7 1.7 8.65 1.75 8.6 1.8 8.55 1.8 8.5 1.85 8.45 1.9 8.45 1.95 8.15 2.0 8.0 2.35 7.9 2.4 7.6 2.5 7.6 2.5 7.6 2.5 7.5 2.5 7.2 2.35 7.2 2.3 7.1 2.2 7.1 2.3 7.05 2.35 7.05 2.45 7.05 2.55 6.95 2.6 6.95 2.65 6.85 2.7 6.7 2.8 6.6 2.8 6.45 2.8 6.35 2.8 6.25 2.8 6.25 2.8 6.05 2.7 6.05 2.7 5.95 2.7 5.85 2.8 5.85 2.8 5.85 2.8 5.75 2.9 5.55 2.9 5.55 2.9 5.45 2.9 5.4 2.85 5.4 2.85 5.3 2.75 5.3 2.75 5.3 2.75 5.3 2.75 5.2 2.6 5.2 2.6 5.2 2.7 5.2 2.7 5.2 2.7 5.2 2.7 5.1 2.75 5.0 2.85 5.0 2.85 5.0 2.95 5.0 2.95 4.85 2.95 4.75 2.95 4.75 2.95 4.65 2.95 4.65 2.95 4.55 2.95 4.45 2.9 4.35 2.8 4.35 2.8 4.3 2.85 4.2 2.95 3.25 2.95 3.25 2.9 3.25 2.35 3.25 2.3 3.2 2.35 3.0 2.8 3.0 2.95 1.4 2.95 1.4 2.7 1.0 2.8 Q0.75 2.8 0.65 2.65 L0.35 2.9 -0.15 2.75 -0.15 2.75 -0.55 2.9 -1.0 2.8 -1.1 2.55 -1.05 2.45 -1.85 2.6 -2.5 2.6 -2.7 2.6 -2.95 2.55 -3.5 2.45 -3.55 2.35 -3.7 2.2 -3.8 2.35 -3.95 2.55 Q-4.25 2.85 -4.55 2.85 L-5.15 2.6 -5.25 2.5 -5.35 2.5 -5.45 2.5 -5.55 2.7 -5.85 2.95 -6.3 2.95 -6.6 2.7 -6.7 2.35 -6.8 2.25 -6.85 2.35 -7.0 2.75 -7.15 2.95 -8.0 2.95 -8.1 2.65 -8.15 2.6 -8.25 2.8 -8.3 2.8 -8.3 2.75 -8.35 2.7 -8.4 2.65 -8.45 2.65 -8.45 2.6 -8.5 2.55 -8.55 2.5 -8.6 2.5 -8.6 2.45 -8.65 2.4 -8.65 2.4 -8.7 2.35 -8.75 2.35 -8.75 2.3 -8.8 2.25 -8.8 2.25 -8.8 2.25 -8.9 2.2 -8.9 2.15 -8.95 2.1 -8.95 2.1 -8.95 2.1 -9.05 2.05 -9.05 2.0 -9.15 1.95 -9.2 1.9 -9.25 1.9 -9.25 1.9 -9.3 1.85 -9.3 1.85 -9.3 1.85 -9.35 1.8 -9.35 1.8 -9.45 1.75 -9.45 1.75 -9.45 1.75 -9.5 1.65 -9.5 1.65 -9.55 1.6 -9.6 1.6 -9.6 1.6 -9.6 1.6 -9.7 1.5 -9.7 1.5 -9.7 1.5 -9.7 1.5 -9.7 1.45 -9.6 1.35 -9.6 1.35 -9.7 1.35 -9.7 1.35 -9.7 1.35 -9.8 1.35 -9.8 1.35 -10.0 1.25 -10.0 1.25 -10.0 1.25 -10.1 1.15 -10.15 1.1 -10.15 1.1 -10.15 1.1 -10.2 1.05 -10.2 1.05 -10.3 0.95 -10.3 0.95 -10.4 0.8 -10.4 0.8 -10.4 0.8 -10.4 0.8 -10.4 0.7 -10.4 0.7 -10.4 0.7 -10.4 0.7 -10.4 0.6 -10.4 0.55 -10.5 0.45 -10.5 0.45 -10.9 -0.05 -11.75 -1.15 -13.1 -2.6 Z"/>
    </path>
  </g>
</svg>
