<?xml version="1.0" encoding="UTF-8" standalone="no"?>
<svg xmlns:ffdec="https://www.free-decompiler.com/flash" xmlns:xlink="http://www.w3.org/1999/xlink" ffdec:objectType="morphshape" height="66.6px" width="23.75px" xmlns="http://www.w3.org/2000/svg">
  <g transform="matrix(1.0, 0.0, 0.0, 1.0, 0.65, 32.45)">
    <path d="M0.1 18.8 L0.1 18.8 Q-1.0 29.4 9.2 33.35 9.65 33.55 10.05 33.15 10.4 32.7 7.35 30.2 L7.25 29.7 7.15 29.1 6.55 26.05 7.6 26.95 9.4 28.35 9.7 28.55 12.25 30.0 Q13.9 31.15 15.5 32.25 16.6 33.15 17.75 32.75 L16.95 31.5 16.85 31.35 16.1 30.7 16.1 30.7 15.45 30.2 14.45 29.7 14.25 29.4 13.75 28.8 12.95 27.9 12.45 27.2 10.4 24.7 Q15.6 25.85 20.75 26.95 16.5 24.6 14.15 22.9 L13.25 22.2 Q12.8 21.8 12.4 21.45 12.0 21.0 11.6 20.6 10.6 19.25 12.1 18.75 L12.3 18.65 14.3 18.45 Q19.9 18.85 16.35 17.25 L14.9 16.6 Q12.95 15.65 13.6 15.65 L14.2 15.7 19.2 16.85 20.35 17.15 20.8 17.25 Q25.6 18.45 20.45 16.75 L19.7 16.5 Q13.8 14.55 16.7 13.75 L17.4 13.55 16.7 13.35 Q16.1 13.1 15.5 12.9 12.5 11.9 9.5 10.9 9.05 10.75 8.6 10.6 L8.5 10.6 9.8 9.8 9.95 9.6 11.65 8.65 12.0 8.45 Q19.8 5.85 18.05 5.15 15.2 5.05 12.4 5.0 L12.15 5.0 Q11.45 4.85 10.8 4.7 6.6 3.8 6.85 3.35 L7.3 2.7 Q8.45 1.4 10.4 1.15 L10.65 0.45 Q9.55 0.15 8.9 -0.7 8.05 -1.95 8.05 -2.95 8.0 -4.1 8.95 -5.0 9.65 -5.65 10.9 -6.2 L12.85 -6.95 Q10.35 -11.7 11.1 -13.05 11.65 -14.05 13.35 -15.15 L14.55 -15.85 Q14.2 -16.65 8.8 -17.55 L6.8 -18.05 Q4.5 -19.1 8.25 -21.3 L9.2 -21.85 10.2 -22.3 11.65 -22.9 Q14.35 -23.85 16.75 -23.55 L17.15 -23.5 Q13.1 -25.85 9.05 -28.15 L9.9 -28.95 10.5 -29.55 12.15 -31.55 12.35 -31.75 9.2 -31.9 Q5.2 -30.3 0.8 -29.6 L1.1 -28.85 Q0.3 -11.4 0.5 6.25 L0.55 9.55 0.1 18.8" fill="#ffffff" fill-opacity="0.09411765" fill-rule="evenodd" stroke="none">
      <animate attributeName="fill" dur="2s" repeatCount="indefinite" values="#ffffff;#ffffff"/>
      <animate attributeName="fill-opacity" dur="2s" repeatCount="indefinite" values="0.09411765;0.09411765"/>
      <animate attributeName="d" dur="2s" repeatCount="indefinite" values="M0.1 18.8 L0.1 18.8 Q-1.0 29.4 9.2 33.35 9.65 33.55 10.05 33.15 10.4 32.7 7.35 30.2 L7.25 29.7 7.15 29.1 6.55 26.05 7.6 26.95 9.4 28.35 9.7 28.55 12.25 30.0 Q13.9 31.15 15.5 32.25 16.6 33.15 17.75 32.75 L16.95 31.5 16.85 31.35 16.1 30.7 16.1 30.7 15.45 30.2 14.45 29.7 14.25 29.4 13.75 28.8 12.95 27.9 12.45 27.2 10.4 24.7 Q15.6 25.85 20.75 26.95 16.5 24.6 14.15 22.9 L13.25 22.2 Q12.8 21.8 12.4 21.45 12.0 21.0 11.6 20.6 10.6 19.25 12.1 18.75 L12.3 18.65 14.3 18.45 Q19.9 18.85 16.35 17.25 L14.9 16.6 Q12.95 15.65 13.6 15.65 L14.2 15.7 19.2 16.85 20.35 17.15 20.8 17.25 Q25.6 18.45 20.45 16.75 L19.7 16.5 Q13.8 14.55 16.7 13.75 L17.4 13.55 16.7 13.35 Q16.1 13.1 15.5 12.9 12.5 11.9 9.5 10.9 9.05 10.75 8.6 10.6 L8.5 10.6 9.8 9.8 9.95 9.6 11.65 8.65 12.0 8.45 Q19.8 5.85 18.05 5.15 15.2 5.05 12.4 5.0 L12.15 5.0 Q11.45 4.85 10.8 4.7 6.6 3.8 6.85 3.35 L7.3 2.7 Q8.45 1.4 10.4 1.15 L10.65 0.45 Q9.55 0.15 8.9 -0.7 8.05 -1.95 8.05 -2.95 8.0 -4.1 8.95 -5.0 9.65 -5.65 10.9 -6.2 L12.85 -6.95 Q10.35 -11.7 11.1 -13.05 11.65 -14.05 13.35 -15.15 L14.55 -15.85 Q14.2 -16.65 8.8 -17.55 L6.8 -18.05 Q4.5 -19.1 8.25 -21.3 L9.2 -21.85 10.2 -22.3 11.65 -22.9 Q14.35 -23.85 16.75 -23.55 L17.15 -23.5 Q13.1 -25.85 9.05 -28.15 L9.9 -28.95 10.5 -29.55 12.15 -31.55 12.35 -31.75 9.2 -31.9 Q5.2 -30.3 0.8 -29.6 L1.1 -28.85 Q0.3 -11.4 0.5 6.25 L0.55 9.55 0.1 18.8;M-0.5 19.55 L-0.5 19.75 Q-1.45 28.05 4.75 32.3 5.0 32.45 5.25 32.6 6.55 33.4 8.15 34.05 L8.55 34.15 8.55 33.95 7.3 31.8 6.65 31.0 6.5 29.3 6.5 29.1 8.9 29.15 Q10.4 29.85 11.6 30.75 12.3 31.3 12.95 31.85 L13.6 32.55 13.7 32.65 14.1 33.1 14.15 33.2 14.4 33.85 14.4 33.0 14.4 32.7 14.4 32.0 15.25 31.5 14.75 30.95 15.7 28.7 Q16.5 25.4 14.6 21.0 13.65 18.75 11.95 16.2 L12.5 15.7 Q12.8 15.45 13.15 15.35 13.55 15.0 13.9 15.05 14.8 14.9 15.65 14.75 L15.7 14.65 14.6 13.85 Q13.0 12.75 11.4 11.65 L10.4 11.05 Q11.05 10.75 11.7 10.45 L12.2 10.15 16.1 9.8 15.65 9.1 15.4 8.7 Q13.5 8.25 11.65 7.85 L11.0 7.65 Q8.3 6.85 8.0 4.95 L8.35 4.3 8.75 3.8 Q8.95 3.35 9.45 3.1 11.0 1.7 13.8 1.45 13.8 1.1 14.2 0.75 L14.2 0.75 13.05 0.6 12.85 0.5 11.7 -0.25 11.7 -0.25 Q9.4 -2.4 8.4 -4.85 7.6 -6.85 7.7 -9.1 L7.7 -9.3 Q8.1 -9.75 8.45 -10.0 9.45 -10.8 10.45 -11.55 L10.95 -11.9 Q12.05 -12.65 13.15 -13.35 L13.65 -13.65 Q14.4 -14.1 15.1 -14.5 15.9 -14.95 16.7 -15.35 16.3 -16.15 15.9 -16.9 15.45 -17.85 15.7 -18.55 L16.05 -20.0 Q16.65 -22.6 16.4 -24.9 16.1 -26.1 15.85 -27.3 L14.65 -27.3 Q12.3 -27.35 9.95 -27.4 L8.55 -27.4 Q10.0 -28.65 11.0 -30.05 L11.5 -30.75 11.85 -31.3 12.2 -32.45 Q10.4 -31.6 8.45 -31.1 L8.15 -31.0 Q4.75 -29.6 1.05 -28.95 L0.15 -28.8 0.35 -28.05 0.35 -25.95 0.35 -25.65 0.25 -23.25 Q0.15 -20.05 0.1 -16.85 L0.1 -16.25 Q0.05 -3.0 0.05 10.2 L-0.1 12.7 -0.5 19.55"/>
    </path>
    <path d="M0.1 18.8 L0.55 9.55 0.5 6.25 Q0.3 -11.4 1.1 -28.85 L0.8 -29.6 Q5.2 -30.3 9.2 -31.9 L12.35 -31.75 12.15 -31.55 10.5 -29.55 9.9 -28.95 9.05 -28.15 Q13.1 -25.85 17.15 -23.5 L16.75 -23.55 Q14.35 -23.85 11.65 -22.9 L10.2 -22.3 9.2 -21.85 8.25 -21.3 Q4.5 -19.1 6.8 -18.05 L8.8 -17.55 Q14.2 -16.65 14.55 -15.85 L13.35 -15.15 Q11.65 -14.05 11.1 -13.05 10.35 -11.7 12.85 -6.95 L10.9 -6.2 Q9.65 -5.65 8.95 -5.0 8.0 -4.1 8.05 -2.95 8.05 -1.95 8.9 -0.7 9.55 0.15 10.65 0.45 L10.4 1.15 Q8.45 1.4 7.3 2.7 L6.85 3.35 Q6.6 3.8 10.8 4.7 11.45 4.85 12.15 5.0 L12.4 5.0 Q15.2 5.05 18.05 5.15 19.8 5.85 12.0 8.45 L11.65 8.65 9.95 9.6 9.8 9.8 8.5 10.6 8.6 10.6 Q9.05 10.75 9.5 10.9 12.5 11.9 15.5 12.9 16.1 13.1 16.7 13.35 L17.4 13.55 16.7 13.75 Q13.8 14.55 19.7 16.5 L20.45 16.75 Q25.6 18.45 20.8 17.25 L20.35 17.15 19.2 16.85 14.2 15.7 13.6 15.65 Q12.95 15.65 14.9 16.6 L16.35 17.25 Q19.9 18.85 14.3 18.45 L12.3 18.65 12.1 18.75 Q10.6 19.25 11.6 20.6 12.0 21.0 12.4 21.45 12.8 21.8 13.25 22.2 L14.15 22.9 Q16.5 24.6 20.75 26.95 15.6 25.85 10.4 24.7 L12.45 27.2 12.95 27.9 13.75 28.8 14.25 29.4 14.45 29.7 15.45 30.2 16.1 30.7 16.1 30.7 16.85 31.35 16.95 31.5 17.75 32.75 Q16.6 33.15 15.5 32.25 13.9 31.15 12.25 30.0 L9.7 28.55 9.4 28.35 7.6 26.95 6.55 26.05 7.15 29.1 7.25 29.7 7.35 30.2 Q10.4 32.7 10.05 33.15 9.65 33.55 9.2 33.35 -1.0 29.4 0.1 18.8 L0.1 18.8 Z" fill="none" stroke="#000000" stroke-linecap="round" stroke-linejoin="round" stroke-opacity="0.0" stroke-width="0.0">
      <animate attributeName="stroke" dur="2s" repeatCount="indefinite" values="#000000;#000001"/>
      <animate attributeName="stroke-width" dur="2s" repeatCount="indefinite" values="0.0;0.0"/>
      <animate attributeName="fill-opacity" dur="2s" repeatCount="indefinite" values="0.0;0.0"/>
      <animate attributeName="d" dur="2s" repeatCount="indefinite" values="M0.1 18.8 L0.55 9.55 0.5 6.25 Q0.3 -11.4 1.1 -28.85 L0.8 -29.6 Q5.2 -30.3 9.2 -31.9 L12.35 -31.75 12.15 -31.55 10.5 -29.55 9.9 -28.95 9.05 -28.15 Q13.1 -25.85 17.15 -23.5 L16.75 -23.55 Q14.35 -23.85 11.65 -22.9 L10.2 -22.3 9.2 -21.85 8.25 -21.3 Q4.5 -19.1 6.8 -18.05 L8.8 -17.55 Q14.2 -16.65 14.55 -15.85 L13.35 -15.15 Q11.65 -14.05 11.1 -13.05 10.35 -11.7 12.85 -6.95 L10.9 -6.2 Q9.65 -5.65 8.95 -5.0 8.0 -4.1 8.05 -2.95 8.05 -1.95 8.9 -0.7 9.55 0.15 10.65 0.45 L10.4 1.15 Q8.45 1.4 7.3 2.7 L6.85 3.35 Q6.6 3.8 10.8 4.7 11.45 4.85 12.15 5.0 L12.4 5.0 Q15.2 5.05 18.05 5.15 19.8 5.85 12.0 8.45 L11.65 8.65 9.95 9.6 9.8 9.8 8.5 10.6 8.6 10.6 Q9.05 10.75 9.5 10.9 12.5 11.9 15.5 12.9 16.1 13.1 16.7 13.35 L17.4 13.55 16.7 13.75 Q13.8 14.55 19.7 16.5 L20.45 16.75 Q25.6 18.45 20.8 17.25 L20.35 17.15 19.2 16.85 14.2 15.7 13.6 15.65 Q12.95 15.65 14.9 16.6 L16.35 17.25 Q19.9 18.85 14.3 18.45 L12.3 18.65 12.1 18.75 Q10.6 19.25 11.6 20.6 12.0 21.0 12.4 21.45 12.8 21.8 13.25 22.2 L14.15 22.9 Q16.5 24.6 20.75 26.95 15.6 25.85 10.4 24.7 L12.45 27.2 12.95 27.9 13.75 28.8 14.25 29.4 14.45 29.7 15.45 30.2 16.1 30.7 16.1 30.7 16.85 31.35 16.95 31.5 17.75 32.75 Q16.6 33.15 15.5 32.25 13.9 31.15 12.25 30.0 L9.7 28.55 9.4 28.35 7.6 26.95 6.55 26.05 7.15 29.1 7.25 29.7 7.35 30.2 Q10.4 32.7 10.05 33.15 9.65 33.55 9.2 33.35 -1.0 29.4 0.1 18.8 L0.1 18.8 Z;M-0.5 19.55 L-0.1 12.7 0.05 10.2 Q0.05 -3.0 0.1 -16.25 L0.1 -16.85 Q0.15 -20.05 0.25 -23.25 L0.35 -25.65 0.35 -25.95 0.35 -28.05 0.15 -28.8 1.05 -28.95 Q4.75 -29.6 8.15 -31.0 L8.45 -31.1 Q10.4 -31.6 12.2 -32.45 L11.85 -31.3 11.5 -30.75 11.0 -30.05 Q10.0 -28.65 8.55 -27.4 L9.95 -27.4 Q12.3 -27.35 14.65 -27.3 L15.85 -27.3 Q16.1 -26.1 16.4 -24.9 16.65 -22.6 16.05 -20.0 L15.7 -18.55 Q15.45 -17.85 15.9 -16.9 16.3 -16.15 16.7 -15.35 15.9 -14.95 15.1 -14.5 14.4 -14.1 13.65 -13.65 L13.15 -13.35 Q12.05 -12.65 10.95 -11.9 L10.45 -11.55 Q9.45 -10.8 8.45 -10.0 8.1 -9.75 7.7 -9.3 L7.7 -9.1 Q7.6 -6.85 8.4 -4.85 9.4 -2.4 11.7 -0.25 L11.7 -0.25 12.85 0.5 13.05 0.6 14.2 0.75 14.2 0.75 Q13.8 1.1 13.8 1.45 11.0 1.7 9.45 3.1 8.95 3.35 8.75 3.8 L8.35 4.3 8.0 4.95 Q8.3 6.85 11.0 7.65 L11.65 7.85 Q13.5 8.25 15.4 8.7 L15.65 9.1 16.1 9.8 12.2 10.15 11.7 10.45 Q11.05 10.75 10.4 11.05 L11.4 11.65 Q13.0 12.75 14.6 13.85 L15.7 14.65 15.65 14.75 Q14.8 14.9 13.9 15.05 13.55 15.0 13.15 15.35 12.8 15.45 12.5 15.7 L11.95 16.2 Q13.65 18.75 14.6 21.0 16.5 25.4 15.7 28.7 L14.75 30.95 15.25 31.5 14.4 32.0 14.4 32.7 14.4 33.0 14.4 33.85 14.15 33.2 14.1 33.1 13.7 32.65 13.6 32.55 12.95 31.85 Q12.3 31.3 11.6 30.75 10.4 29.85 8.9 29.15 L6.5 29.1 6.5 29.3 6.65 31.0 7.3 31.8 8.55 33.95 8.55 34.15 8.15 34.05 Q6.55 33.4 5.25 32.6 5.0 32.45 4.75 32.3 -1.45 28.05 -0.5 19.75 L-0.5 19.55 Z"/>
    </path>
  </g>
</svg>
