<?xml version="1.0" encoding="UTF-8" standalone="no"?>
<svg xmlns:ffdec="https://www.free-decompiler.com/flash" xmlns:xlink="http://www.w3.org/1999/xlink" ffdec:objectType="morphshape" height="66.65px" width="7.6px" xmlns="http://www.w3.org/2000/svg">
  <g transform="matrix(1.0, 0.0, 0.0, 1.0, 0.45, 33.65)">
    <path d="M-0.4 18.4 L-0.4 18.4 Q-0.7 29.0 2.1 32.95 2.3 33.15 2.35 32.75 L2.2 31.95 2.2 31.85 1.55 29.8 1.45 28.7 1.35 26.6 1.35 25.9 1.35 25.65 2.15 27.95 2.95 29.55 Q3.15 30.05 3.35 30.5 L3.85 31.75 3.85 31.85 Q4.1 32.55 4.3 32.5 L4.4 32.35 4.3 31.5 4.2 31.1 3.95 30.3 3.55 29.3 3.25 28.1 2.85 26.4 2.75 25.8 2.45 24.3 Q4.3 23.6 6.1 22.95 1.15 18.2 3.55 18.05 5.0 18.45 4.1 16.85 L3.6 16.05 3.3 15.4 3.3 15.25 3.75 15.45 4.1 15.8 4.4 16.05 4.5 16.15 5.15 16.75 Q6.85 18.2 4.95 16.1 L4.5 15.55 4.0 14.6 Q3.8 14.05 3.95 13.65 L4.35 13.15 3.95 12.65 3.25 11.85 Q2.55 11.0 1.9 10.2 L2.3 9.4 2.3 9.2 2.45 8.9 2.85 8.05 3.0 7.85 3.45 7.2 Q4.2 5.85 2.65 6.1 L2.05 6.25 2.05 6.25 Q1.4 6.2 0.8 6.15 1.15 5.7 2.95 4.6 2.8 2.7 4.2 1.55 5.5 0.4 3.8 0.7 L2.45 0.75 2.45 0.25 2.45 0.05 Q2.3 -0.1 2.6 -0.6 L3.3 -1.6 Q4.25 -2.8 3.4 -6.3 L3.15 -7.35 3.85 -8.0 Q4.45 -8.6 5.0 -9.2 7.75 -12.4 5.7 -13.45 3.15 -14.8 3.6 -16.25 4.4 -16.65 4.2 -16.95 L4.25 -17.45 5.0 -18.6 Q5.65 -19.55 5.15 -21.55 L4.35 -23.9 3.65 -25.15 3.35 -25.75 2.85 -26.85 2.15 -28.35 2.05 -28.55 Q2.45 -30.05 2.8 -31.55 L2.9 -31.95 2.9 -32.15 2.7 -32.4 Q2.35 -32.65 2.1 -32.3 0.95 -30.7 -0.2 -30.0 L-0.15 -29.25 -0.35 8.25 -0.35 9.15 -0.4 18.4" fill="#ffffff" fill-opacity="0.49803922" fill-rule="evenodd" stroke="none">
      <animate attributeName="fill" dur="2s" repeatCount="indefinite" values="#ffffff;#ffffff"/>
      <animate attributeName="fill-opacity" dur="2s" repeatCount="indefinite" values="0.49803922;0.49803922"/>
      <animate attributeName="d" dur="2s" repeatCount="indefinite" values="M-0.4 18.4 L-0.4 18.4 Q-0.7 29.0 2.1 32.95 2.3 33.15 2.35 32.75 L2.2 31.95 2.2 31.85 1.55 29.8 1.45 28.7 1.35 26.6 1.35 25.9 1.35 25.65 2.15 27.95 2.95 29.55 Q3.15 30.05 3.35 30.5 L3.85 31.75 3.85 31.85 Q4.1 32.55 4.3 32.5 L4.4 32.35 4.3 31.5 4.2 31.1 3.95 30.3 3.55 29.3 3.25 28.1 2.85 26.4 2.75 25.8 2.45 24.3 Q4.3 23.6 6.1 22.95 1.15 18.2 3.55 18.05 5.0 18.45 4.1 16.85 L3.6 16.05 3.3 15.4 3.3 15.25 3.75 15.45 4.1 15.8 4.4 16.05 4.5 16.15 5.15 16.75 Q6.85 18.2 4.95 16.1 L4.5 15.55 4.0 14.6 Q3.8 14.05 3.95 13.65 L4.35 13.15 3.95 12.65 3.25 11.85 Q2.55 11.0 1.9 10.2 L2.3 9.4 2.3 9.2 2.45 8.9 2.85 8.05 3.0 7.85 3.45 7.2 Q4.2 5.85 2.65 6.1 L2.05 6.25 2.05 6.25 Q1.4 6.2 0.8 6.15 1.15 5.7 2.95 4.6 2.8 2.7 4.2 1.55 5.5 0.4 3.8 0.7 L2.45 0.75 2.45 0.25 2.45 0.05 Q2.3 -0.1 2.6 -0.6 L3.3 -1.6 Q4.25 -2.8 3.4 -6.3 L3.15 -7.35 3.85 -8.0 Q4.45 -8.6 5.0 -9.2 7.75 -12.4 5.7 -13.45 3.15 -14.8 3.6 -16.25 4.4 -16.65 4.2 -16.95 L4.25 -17.45 5.0 -18.6 Q5.65 -19.55 5.15 -21.55 L4.35 -23.9 3.65 -25.15 3.35 -25.75 2.85 -26.85 2.15 -28.35 2.05 -28.55 Q2.45 -30.05 2.8 -31.55 L2.9 -31.95 2.9 -32.15 2.7 -32.4 Q2.35 -32.65 2.1 -32.3 0.95 -30.7 -0.2 -30.0 L-0.15 -29.25 -0.35 8.25 -0.35 9.15 -0.4 18.4;M-0.4 18.4 L-0.4 18.7 Q-0.65 27.8 1.45 32.0 1.55 32.15 1.65 32.3 L2.1 32.95 2.1 32.8 1.8 30.85 1.55 29.8 1.55 27.9 2.15 27.95 2.25 28.15 3.25 30.35 3.85 31.85 Q4.15 32.75 4.4 32.35 L4.2 31.1 4.2 31.0 Q4.05 30.65 3.95 30.3 L3.9 30.1 3.55 29.3 3.95 29.3 4.55 29.2 5.4 29.15 6.5 29.05 7.15 27.55 6.9 27.05 6.0 26.35 Q5.0 25.35 4.25 23.4 3.4 21.25 2.85 17.9 2.7 17.0 2.55 16.1 L2.45 15.3 2.55 14.85 2.6 14.75 2.7 14.5 2.85 14.25 3.15 14.0 3.2 13.9 2.9 13.0 Q2.5 11.9 2.1 10.8 L1.9 10.2 2.3 9.4 Q2.7 9.3 3.1 9.2 L2.95 8.55 2.85 8.05 2.1 7.15 Q1.65 6.6 1.4 5.4 L1.3 4.6 1.3 4.4 1.3 4.1 1.4 3.3 1.4 2.95 1.55 2.3 Q1.85 1.0 2.45 0.75 L2.45 0.15 2.45 0.05 Q2.2 -0.25 2.05 -1.1 1.85 -2.3 1.65 -3.45 1.45 -4.95 1.4 -6.6 1.35 -7.55 1.35 -8.45 L1.35 -9.85 1.35 -10.35 1.4 -10.55 Q1.5 -10.8 1.55 -11.05 L1.95 -12.25 Q2.65 -14.6 3.6 -16.25 L3.5 -17.15 3.4 -17.85 Q3.35 -18.85 3.55 -19.5 4.0 -21.8 4.6 -23.75 5.2 -25.5 5.8 -27.2 5.9 -27.5 6.0 -27.8 L6.2 -28.15 4.9 -28.25 Q3.45 -28.4 2.05 -28.55 L2.6 -30.65 2.9 -31.95 3.05 -32.5 3.15 -33.65 2.1 -32.3 1.9 -32.1 Q0.85 -30.65 -0.2 -30.0 L-0.15 -29.7 -0.15 -29.5 -0.15 -29.25 Q-0.15 -28.95 -0.15 -28.65 -0.15 -27.2 -0.15 -25.75 L-0.15 -25.05 -0.35 9.15 -0.35 9.95 -0.4 18.4"/>
    </path>
    <path d="M-0.4 18.4 L-0.35 9.15 -0.35 8.25 -0.15 -29.25 -0.2 -30.0 Q0.95 -30.7 2.1 -32.3 2.35 -32.65 2.7 -32.4 L2.9 -32.15 2.9 -31.95 2.8 -31.55 Q2.45 -30.05 2.05 -28.55 L2.15 -28.35 2.85 -26.85 3.35 -25.75 3.65 -25.15 4.35 -23.9 5.15 -21.55 Q5.65 -19.55 5.0 -18.6 L4.25 -17.45 4.2 -16.95 Q4.4 -16.65 3.6 -16.25 3.15 -14.8 5.7 -13.45 7.75 -12.4 5.0 -9.2 4.45 -8.6 3.85 -8.0 L3.15 -7.35 3.4 -6.3 Q4.25 -2.8 3.3 -1.6 L2.6 -0.6 Q2.3 -0.1 2.45 0.05 L2.45 0.25 2.45 0.75 3.8 0.7 Q5.5 0.4 4.2 1.55 2.8 2.7 2.95 4.6 1.15 5.7 0.8 6.15 1.4 6.2 2.05 6.25 L2.05 6.25 2.65 6.1 Q4.2 5.85 3.45 7.2 L3.0 7.85 2.85 8.05 2.45 8.9 2.3 9.2 2.3 9.4 1.9 10.2 Q2.55 11.0 3.25 11.85 L3.95 12.65 4.35 13.15 3.95 13.65 Q3.8 14.05 4.0 14.6 L4.5 15.55 4.95 16.1 Q6.85 18.2 5.15 16.75 L4.5 16.15 4.4 16.05 4.1 15.8 3.75 15.45 3.3 15.25 3.3 15.4 3.6 16.05 4.1 16.85 Q5.0 18.45 3.55 18.05 1.15 18.2 6.1 22.95 4.3 23.6 2.45 24.3 L2.75 25.8 2.85 26.4 3.25 28.1 3.55 29.3 3.95 30.3 4.2 31.1 4.3 31.5 4.4 32.35 4.3 32.5 Q4.1 32.55 3.85 31.85 L3.85 31.75 3.35 30.5 Q3.15 30.05 2.95 29.55 L2.15 27.95 1.35 25.65 1.35 25.9 1.35 26.6 1.45 28.7 1.55 29.8 2.2 31.85 2.2 31.95 2.35 32.75 Q2.3 33.15 2.1 32.95 -0.7 29.0 -0.4 18.4 L-0.4 18.4 Z" fill="none" stroke="#000000" stroke-linecap="round" stroke-linejoin="round" stroke-opacity="0.0" stroke-width="0.0">
      <animate attributeName="stroke" dur="2s" repeatCount="indefinite" values="#000000;#000001"/>
      <animate attributeName="stroke-width" dur="2s" repeatCount="indefinite" values="0.0;0.0"/>
      <animate attributeName="fill-opacity" dur="2s" repeatCount="indefinite" values="0.0;0.0"/>
      <animate attributeName="d" dur="2s" repeatCount="indefinite" values="M-0.4 18.4 L-0.35 9.15 -0.35 8.25 -0.15 -29.25 -0.2 -30.0 Q0.95 -30.7 2.1 -32.3 2.35 -32.65 2.7 -32.4 L2.9 -32.15 2.9 -31.95 2.8 -31.55 Q2.45 -30.05 2.05 -28.55 L2.15 -28.35 2.85 -26.85 3.35 -25.75 3.65 -25.15 4.35 -23.9 5.15 -21.55 Q5.65 -19.55 5.0 -18.6 L4.25 -17.45 4.2 -16.95 Q4.4 -16.65 3.6 -16.25 3.15 -14.8 5.7 -13.45 7.75 -12.4 5.0 -9.2 4.45 -8.6 3.85 -8.0 L3.15 -7.35 3.4 -6.3 Q4.25 -2.8 3.3 -1.6 L2.6 -0.6 Q2.3 -0.1 2.45 0.05 L2.45 0.25 2.45 0.75 3.8 0.7 Q5.5 0.4 4.2 1.55 2.8 2.7 2.95 4.6 1.15 5.7 0.8 6.15 1.4 6.2 2.05 6.25 L2.05 6.25 2.65 6.1 Q4.2 5.85 3.45 7.2 L3.0 7.85 2.85 8.05 2.45 8.9 2.3 9.2 2.3 9.4 1.9 10.2 Q2.55 11.0 3.25 11.85 L3.95 12.65 4.35 13.15 3.95 13.65 Q3.8 14.05 4.0 14.6 L4.5 15.55 4.95 16.1 Q6.85 18.2 5.15 16.75 L4.5 16.15 4.4 16.05 4.1 15.8 3.75 15.45 3.3 15.25 3.3 15.4 3.6 16.05 4.1 16.85 Q5.0 18.45 3.55 18.05 1.15 18.2 6.1 22.95 4.3 23.6 2.45 24.3 L2.75 25.8 2.85 26.4 3.25 28.1 3.55 29.3 3.95 30.3 4.2 31.1 4.3 31.5 4.4 32.35 4.3 32.5 Q4.1 32.55 3.85 31.85 L3.85 31.75 3.35 30.5 Q3.15 30.05 2.95 29.55 L2.15 27.95 1.35 25.65 1.35 25.9 1.35 26.6 1.45 28.7 1.55 29.8 2.2 31.85 2.2 31.95 2.35 32.75 Q2.3 33.15 2.1 32.95 -0.7 29.0 -0.4 18.4 L-0.4 18.4 Z;M-0.4 18.4 L-0.35 9.95 -0.35 9.15 -0.15 -25.05 -0.15 -25.75 Q-0.15 -27.2 -0.15 -28.65 -0.15 -28.95 -0.15 -29.25 L-0.15 -29.5 -0.15 -29.7 -0.2 -30.0 Q0.85 -30.65 1.9 -32.1 L2.1 -32.3 3.15 -33.65 3.05 -32.5 2.9 -31.95 2.6 -30.65 2.05 -28.55 Q3.45 -28.4 4.9 -28.25 L6.2 -28.15 6.0 -27.8 Q5.9 -27.5 5.8 -27.2 5.2 -25.5 4.6 -23.75 4.0 -21.8 3.55 -19.5 3.35 -18.85 3.4 -17.85 L3.5 -17.15 3.6 -16.25 Q2.65 -14.6 1.95 -12.25 L1.55 -11.05 Q1.5 -10.8 1.4 -10.55 L1.35 -10.35 1.35 -9.85 1.35 -8.45 Q1.35 -7.55 1.4 -6.6 1.45 -4.95 1.65 -3.45 1.85 -2.3 2.05 -1.1 2.2 -0.25 2.45 0.05 L2.45 0.15 2.45 0.75 Q1.85 1.0 1.55 2.3 L1.4 2.95 1.4 3.3 1.3 4.1 1.3 4.4 1.3 4.6 1.4 5.4 Q1.65 6.6 2.1 7.15 L2.85 8.05 2.95 8.55 3.1 9.2 Q2.7 9.3 2.3 9.4 L1.9 10.2 2.1 10.8 Q2.5 11.9 2.9 13.0 L3.2 13.9 3.15 14.0 2.85 14.25 2.7 14.5 2.6 14.75 2.55 14.85 2.45 15.3 2.55 16.1 Q2.7 17.0 2.85 17.9 3.4 21.25 4.25 23.4 5.0 25.35 6.0 26.35 L6.9 27.05 7.15 27.55 6.5 29.05 5.4 29.15 4.55 29.2 3.95 29.3 3.55 29.3 3.9 30.1 3.95 30.3 Q4.05 30.65 4.2 31.0 L4.2 31.1 4.4 32.35 Q4.15 32.75 3.85 31.85 L3.25 30.35 2.25 28.15 2.15 27.95 1.55 27.9 1.55 29.8 1.8 30.85 2.1 32.8 2.1 32.95 1.65 32.3 Q1.55 32.15 1.45 32.0 -0.65 27.8 -0.4 18.7 L-0.4 18.4 Z"/>
    </path>
  </g>
</svg>
