<?xml version="1.0" encoding="UTF-8" standalone="no"?>
<svg xmlns:ffdec="https://www.free-decompiler.com/flash" xmlns:xlink="http://www.w3.org/1999/xlink" ffdec:objectType="morphshape" height="67.8px" width="17.35px" xmlns="http://www.w3.org/2000/svg">
  <g transform="matrix(1.0, 0.0, 0.0, 1.0, 0.65, 33.65)">
    <path d="M-0.5 19.55 L-0.5 19.55 Q-1.65 29.05 6.55 33.2 L6.65 33.3 8.55 34.15 8.55 33.95 8.25 33.25 7.3 31.75 6.65 31.0 6.55 30.3 6.5 29.1 8.9 29.15 10.95 30.25 11.35 30.55 Q11.75 30.9 12.15 31.2 L12.75 31.7 13.4 32.35 13.7 32.65 13.95 32.95 14.15 33.2 14.4 33.85 14.4 32.7 14.4 32.25 14.4 32.0 14.85 31.8 15.25 31.5 14.75 30.95 Q17.55 26.4 13.8 19.25 L13.45 18.65 13.05 17.95 Q12.85 17.6 12.65 17.25 L11.95 16.2 12.05 16.1 12.5 15.7 Q12.8 15.45 13.15 15.35 13.55 15.0 13.9 15.05 L15.65 14.75 15.7 14.65 14.9 14.05 13.7 13.25 Q12.75 12.65 11.85 12.05 L10.4 11.05 Q11.0 10.75 11.6 10.45 L12.2 10.15 14.4 9.95 Q15.25 9.85 16.1 9.8 L15.4 8.7 14.5 8.5 Q13.9 8.35 13.35 8.25 L12.55 8.05 11.65 7.85 Q11.0 7.65 10.4 7.5 8.3 6.65 8.0 4.95 L8.3 4.4 8.75 3.8 Q8.95 3.35 9.45 3.1 9.7 2.9 9.9 2.75 11.4 1.65 13.8 1.45 13.8 1.1 14.2 0.75 13.3 0.55 12.45 0.35 L11.7 -0.25 Q9.75 -2.05 8.75 -4.05 7.55 -6.5 7.7 -9.3 8.1 -9.75 8.45 -10.0 L9.95 -11.2 Q12.95 -13.1 15.9 -14.95 L16.7 -15.35 Q16.3 -16.15 15.9 -16.9 15.45 -17.85 15.7 -18.55 15.95 -19.6 16.2 -20.65 16.85 -24.3 15.85 -27.3 L12.95 -27.3 8.55 -27.4 11.0 -30.05 11.5 -30.75 11.85 -31.3 12.2 -32.45 10.9 -31.9 10.1 -31.55 8.75 -31.2 8.45 -31.1 Q7.05 -30.6 5.7 -30.1 2.9 -29.45 0.15 -28.8 L0.35 -28.05 0.35 -27.55 0.35 -26.95 Q-0.2 -8.3 0.05 10.2 L0.05 10.6 -0.5 19.55" fill="#ffffff" fill-opacity="0.09411765" fill-rule="evenodd" stroke="none">
      <animate attributeName="fill" dur="2s" repeatCount="indefinite" values="#ffffff;#ffffff"/>
      <animate attributeName="fill-opacity" dur="2s" repeatCount="indefinite" values="0.09411765;0.09411765"/>
      <animate attributeName="d" dur="2s" repeatCount="indefinite" values="M-0.5 19.55 L-0.5 19.55 Q-1.65 29.05 6.55 33.2 L6.65 33.3 8.55 34.15 8.55 33.95 8.25 33.25 7.3 31.75 6.65 31.0 6.55 30.3 6.5 29.1 8.9 29.15 10.95 30.25 11.35 30.55 Q11.75 30.9 12.15 31.2 L12.75 31.7 13.4 32.35 13.7 32.65 13.95 32.95 14.15 33.2 14.4 33.85 14.4 32.7 14.4 32.25 14.4 32.0 14.85 31.8 15.25 31.5 14.75 30.95 Q17.55 26.4 13.8 19.25 L13.45 18.65 13.05 17.95 Q12.85 17.6 12.65 17.25 L11.95 16.2 12.05 16.1 12.5 15.7 Q12.8 15.45 13.15 15.35 13.55 15.0 13.9 15.05 L15.65 14.75 15.7 14.65 14.9 14.05 13.7 13.25 Q12.75 12.65 11.85 12.05 L10.4 11.05 Q11.0 10.75 11.6 10.45 L12.2 10.15 14.4 9.95 Q15.25 9.85 16.1 9.8 L15.4 8.7 14.5 8.5 Q13.9 8.35 13.35 8.25 L12.55 8.05 11.65 7.85 Q11.0 7.65 10.4 7.5 8.3 6.65 8.0 4.95 L8.3 4.4 8.75 3.8 Q8.95 3.35 9.45 3.1 9.7 2.9 9.9 2.75 11.4 1.65 13.8 1.45 13.8 1.1 14.2 0.75 13.3 0.55 12.45 0.35 L11.7 -0.25 Q9.75 -2.05 8.75 -4.05 7.55 -6.5 7.7 -9.3 8.1 -9.75 8.45 -10.0 L9.95 -11.2 Q12.95 -13.1 15.9 -14.95 L16.7 -15.35 Q16.3 -16.15 15.9 -16.9 15.45 -17.85 15.7 -18.55 15.95 -19.6 16.2 -20.65 16.85 -24.3 15.85 -27.3 L12.95 -27.3 8.55 -27.4 11.0 -30.05 11.5 -30.75 11.85 -31.3 12.2 -32.45 10.9 -31.9 10.1 -31.55 8.75 -31.2 8.45 -31.1 Q7.05 -30.6 5.7 -30.1 2.9 -29.45 0.15 -28.8 L0.35 -28.05 0.35 -27.55 0.35 -26.95 Q-0.2 -8.3 0.05 10.2 L0.05 10.6 -0.5 19.55;M-0.25 18.35 L-0.25 18.85 Q-0.95 29.05 6.9 32.95 L6.9 32.8 6.0 30.7 5.8 30.3 5.5 29.8 5.35 27.9 6.45 27.9 7.2 27.95 8.25 28.6 10.05 30.15 11.4 31.85 11.65 32.35 Q11.55 31.65 11.7 31.1 L11.65 30.3 11.15 29.3 11.55 29.05 11.2 29.05 11.3 28.85 11.55 28.55 12.3 27.85 12.6 27.55 12.5 27.45 12.2 27.05 11.95 26.95 11.2 26.55 Q5.75 23.45 9.85 15.35 L10.25 14.85 10.85 14.55 Q11.15 14.15 11.55 14.3 L12.8 14.0 12.9 13.95 12.5 13.65 Q12.15 13.3 11.8 12.95 11.5 12.7 11.2 12.45 L9.85 11.25 9.65 11.15 8.65 10.25 10.05 9.4 Q11.65 9.35 9.3 8.25 L11.3 8.4 Q12.85 8.45 12.7 8.15 L12.0 7.95 9.7 7.15 Q8.65 6.85 8.0 6.35 L7.05 5.25 6.75 4.1 Q6.9 3.55 7.4 3.0 L7.9 2.3 8.5 1.6 Q8.75 0.95 7.8 0.8 11.3 0.4 8.4 -0.7 L8.0 -0.9 8.8 -0.65 Q9.3 -0.55 9.75 -0.5 10.2 -0.5 9.85 -0.95 7.95 -3.25 7.95 -4.9 8.05 -5.3 8.1 -5.65 8.4 -6.45 9.3 -7.0 L9.4 -8.1 Q9.95 -10.4 12.8 -11.55 15.65 -12.7 9.85 -12.7 9.35 -12.7 8.9 -12.7 L6.7 -12.65 Q13.3 -16.95 9.85 -17.5 L9.1 -17.7 Q8.2 -18.05 7.85 -18.8 7.5 -19.55 7.65 -20.65 7.8 -21.55 8.25 -22.7 9.6 -26.1 12.8 -27.25 L15.6 -27.85 10.95 -28.25 6.9 -28.5 7.3 -29.0 7.9 -29.7 8.5 -30.6 9.25 -31.9 9.45 -32.45 9.85 -33.65 9.55 -33.5 Q8.15 -32.8 6.85 -32.25 4.25 -30.9 1.5 -30.25 L0.8 -30.05 0.3 -29.95 0.5 -29.2 Q0.05 -10.3 0.2 8.65 L0.2 9.05 -0.25 18.35"/>
    </path>
    <path d="M-0.5 19.55 L0.05 10.6 0.05 10.2 Q-0.2 -8.3 0.35 -26.95 L0.35 -27.55 0.35 -28.05 0.15 -28.8 Q2.9 -29.45 5.7 -30.1 7.05 -30.6 8.45 -31.1 L8.75 -31.2 10.1 -31.55 10.9 -31.9 12.2 -32.45 11.85 -31.3 11.5 -30.75 11.0 -30.05 8.55 -27.4 12.95 -27.3 15.85 -27.3 Q16.85 -24.3 16.2 -20.65 15.95 -19.6 15.7 -18.55 15.45 -17.85 15.9 -16.9 16.3 -16.15 16.7 -15.35 L15.9 -14.95 Q12.95 -13.1 9.95 -11.2 L8.45 -10.0 Q8.1 -9.75 7.7 -9.3 7.55 -6.5 8.75 -4.05 9.75 -2.05 11.7 -0.25 L12.45 0.35 Q13.3 0.55 14.2 0.75 13.8 1.1 13.8 1.45 11.4 1.65 9.9 2.75 9.7 2.9 9.45 3.1 8.95 3.35 8.75 3.8 L8.3 4.4 8.0 4.95 Q8.3 6.65 10.4 7.5 11.0 7.65 11.65 7.85 L12.55 8.05 13.35 8.25 Q13.9 8.35 14.5 8.5 L15.4 8.7 16.1 9.8 Q15.25 9.85 14.4 9.95 L12.2 10.15 11.6 10.45 Q11.0 10.75 10.4 11.05 L11.85 12.05 Q12.75 12.65 13.7 13.25 L14.9 14.05 15.7 14.65 15.65 14.75 13.9 15.05 Q13.55 15.0 13.15 15.35 12.8 15.45 12.5 15.7 L12.05 16.1 11.95 16.2 12.65 17.25 Q12.85 17.6 13.05 17.95 L13.45 18.65 13.8 19.25 Q17.55 26.4 14.75 30.95 L15.25 31.5 14.85 31.8 14.4 32.0 14.4 32.25 14.4 32.7 14.4 33.85 14.15 33.2 13.95 32.95 13.7 32.65 13.4 32.35 12.75 31.7 12.15 31.2 Q11.75 30.9 11.35 30.55 L10.95 30.25 8.9 29.15 6.5 29.1 6.55 30.3 6.65 31.0 7.3 31.75 8.25 33.25 8.55 33.95 8.55 34.15 6.65 33.3 6.55 33.2 Q-1.65 29.05 -0.5 19.55 L-0.5 19.55 Z" fill="none" stroke="#000000" stroke-linecap="round" stroke-linejoin="round" stroke-opacity="0.0" stroke-width="0.0">
      <animate attributeName="stroke" dur="2s" repeatCount="indefinite" values="#000000;#000001"/>
      <animate attributeName="stroke-width" dur="2s" repeatCount="indefinite" values="0.0;0.0"/>
      <animate attributeName="fill-opacity" dur="2s" repeatCount="indefinite" values="0.0;0.0"/>
      <animate attributeName="d" dur="2s" repeatCount="indefinite" values="M-0.5 19.55 L0.05 10.6 0.05 10.2 Q-0.2 -8.3 0.35 -26.95 L0.35 -27.55 0.35 -28.05 0.15 -28.8 Q2.9 -29.45 5.7 -30.1 7.05 -30.6 8.45 -31.1 L8.75 -31.2 10.1 -31.55 10.9 -31.9 12.2 -32.45 11.85 -31.3 11.5 -30.75 11.0 -30.05 8.55 -27.4 12.95 -27.3 15.85 -27.3 Q16.85 -24.3 16.2 -20.65 15.95 -19.6 15.7 -18.55 15.45 -17.85 15.9 -16.9 16.3 -16.15 16.7 -15.35 L15.9 -14.95 Q12.95 -13.1 9.95 -11.2 L8.45 -10.0 Q8.1 -9.75 7.7 -9.3 7.55 -6.5 8.75 -4.05 9.75 -2.05 11.7 -0.25 L12.45 0.35 Q13.3 0.55 14.2 0.75 13.8 1.1 13.8 1.45 11.4 1.65 9.9 2.75 9.7 2.9 9.45 3.1 8.95 3.35 8.75 3.8 L8.3 4.4 8.0 4.95 Q8.3 6.65 10.4 7.5 11.0 7.65 11.65 7.85 L12.55 8.05 13.35 8.25 Q13.9 8.35 14.5 8.5 L15.4 8.7 16.1 9.8 Q15.25 9.85 14.4 9.95 L12.2 10.15 11.6 10.45 Q11.0 10.75 10.4 11.05 L11.85 12.05 Q12.75 12.65 13.7 13.25 L14.9 14.05 15.7 14.65 15.65 14.75 13.9 15.05 Q13.55 15.0 13.15 15.35 12.8 15.45 12.5 15.7 L12.05 16.1 11.95 16.2 12.65 17.25 Q12.85 17.6 13.05 17.95 L13.45 18.65 13.8 19.25 Q17.55 26.4 14.75 30.95 L15.25 31.5 14.85 31.8 14.4 32.0 14.4 32.25 14.4 32.7 14.4 33.85 14.15 33.2 13.95 32.95 13.7 32.65 13.4 32.35 12.75 31.7 12.15 31.2 Q11.75 30.9 11.35 30.55 L10.95 30.25 8.9 29.15 6.5 29.1 6.55 30.3 6.65 31.0 7.3 31.75 8.25 33.25 8.55 33.95 8.55 34.15 6.65 33.3 6.55 33.2 Q-1.65 29.05 -0.5 19.55 L-0.5 19.55 Z;M-0.25 18.35 L0.2 9.05 0.2 8.65 Q0.05 -10.3 0.5 -29.2 L0.3 -29.95 0.8 -30.05 1.5 -30.25 Q4.25 -30.9 6.85 -32.25 8.15 -32.8 9.55 -33.5 L9.85 -33.65 9.45 -32.45 9.25 -31.9 8.5 -30.6 7.9 -29.7 7.3 -29.0 6.9 -28.5 10.95 -28.25 15.6 -27.85 12.8 -27.25 Q9.6 -26.1 8.25 -22.7 7.8 -21.55 7.65 -20.65 7.5 -19.55 7.85 -18.8 8.2 -18.05 9.1 -17.7 L9.85 -17.5 Q13.3 -16.95 6.7 -12.65 L8.9 -12.7 Q9.35 -12.7 9.85 -12.7 15.65 -12.7 12.8 -11.55 9.95 -10.4 9.4 -8.1 L9.3 -7.0 Q8.4 -6.45 8.1 -5.65 8.05 -5.3 7.95 -4.9 7.95 -3.25 9.85 -0.95 10.2 -0.5 9.75 -0.5 9.3 -0.55 8.8 -0.65 L8.0 -0.9 8.4 -0.7 Q11.3 0.4 7.8 0.8 8.75 0.95 8.5 1.6 L7.9 2.3 7.4 3.0 Q6.9 3.55 6.75 4.1 L7.05 5.25 8.0 6.35 Q8.65 6.85 9.7 7.15 L12.0 7.95 12.7 8.15 Q12.85 8.45 11.3 8.4 L9.3 8.25 Q11.65 9.35 10.05 9.4 L8.65 10.25 9.65 11.15 9.85 11.25 11.2 12.45 Q11.5 12.7 11.8 12.95 12.15 13.3 12.5 13.65 L12.9 13.95 12.8 14.0 11.55 14.3 Q11.15 14.15 10.85 14.55 L10.25 14.85 9.85 15.35 Q5.75 23.45 11.2 26.55 L11.95 26.95 12.2 27.05 12.5 27.45 12.6 27.55 12.3 27.85 11.55 28.55 11.3 28.85 11.2 29.05 11.55 29.05 11.15 29.3 11.65 30.3 11.7 31.1 Q11.55 31.65 11.65 32.35 L11.4 31.85 10.05 30.15 8.25 28.6 7.2 27.95 6.45 27.9 5.35 27.9 5.5 29.8 5.8 30.3 6.0 30.7 6.9 32.8 6.9 32.95 Q-0.95 29.05 -0.25 18.85 L-0.25 18.35 Z"/>
    </path>
  </g>
</svg>
