<?xml version="1.0" encoding="UTF-8" standalone="no"?>
<svg xmlns:ffdec="https://www.free-decompiler.com/flash" xmlns:xlink="http://www.w3.org/1999/xlink" ffdec:objectType="morphshape" height="67.05px" width="23.45px" xmlns="http://www.w3.org/2000/svg">
  <g transform="matrix(1.0, 0.0, 0.0, 1.0, 0.35, 33.65)">
    <path d="M-0.25 18.35 L-0.25 18.35 Q-0.95 26.75 3.9 30.95 L4.0 31.05 4.4 31.35 6.05 32.45 Q6.3 32.6 6.55 32.75 L6.9 32.95 6.9 32.8 Q6.4 31.25 5.7 30.05 L5.5 29.8 Q5.35 29.05 5.35 28.3 L5.35 28.0 5.35 27.9 Q6.3 27.95 7.2 27.95 8.45 28.85 9.65 29.7 L9.95 30.0 Q10.2 30.3 10.45 30.55 L10.85 31.05 11.3 31.65 11.4 31.85 11.65 32.35 Q11.55 31.65 11.7 31.1 L11.65 30.3 11.15 29.3 11.5 29.15 11.2 29.05 12.0 28.05 12.6 27.55 12.6 27.45 12.2 27.05 12.2 27.05 10.75 26.25 Q9.45 25.4 8.75 24.25 8.5 23.55 8.25 22.85 7.7 20.4 9.15 16.9 L9.85 15.35 10.25 14.85 10.85 14.55 Q11.15 14.15 11.55 14.3 L12.8 14.0 12.9 13.95 11.15 12.45 9.65 11.15 Q9.15 10.7 8.65 10.25 L9.45 9.8 10.05 9.4 Q11.65 9.35 9.3 8.25 L10.55 8.35 12.7 8.15 Q12.35 8.05 12.0 7.95 L9.7 7.15 Q7.55 6.5 6.95 5.0 L6.75 4.1 Q6.9 3.55 7.4 3.0 L7.9 2.3 Q9.25 1.05 7.8 0.8 L7.9 0.8 Q11.5 0.35 8.0 -0.9 L9.1 -0.6 Q10.35 -0.3 9.85 -0.95 7.15 -4.2 8.25 -6.05 L8.5 -6.35 9.1 -6.9 9.3 -7.0 9.3 -7.0 9.35 -7.6 Q9.5 -8.8 10.2 -9.7 L10.7 -10.25 12.8 -11.55 Q14.7 -12.35 12.75 -12.6 L8.5 -12.7 6.7 -12.65 Q8.0 -13.45 8.9 -14.15 L9.35 -14.55 9.8 -14.95 Q10.2 -15.35 10.55 -15.7 L11.05 -16.7 11.05 -16.8 Q10.95 -17.2 10.35 -17.4 L9.85 -17.5 9.85 -17.5 Q8.75 -17.7 8.2 -18.3 7.4 -19.1 7.65 -20.7 7.8 -21.6 8.25 -22.7 8.85 -23.75 9.4 -24.75 10.95 -26.8 13.65 -27.5 14.65 -27.7 15.6 -27.85 L13.9 -27.95 13.1 -28.05 12.0 -28.15 Q11.25 -28.25 10.5 -28.3 8.95 -28.4 7.45 -28.5 L6.9 -28.5 8.5 -30.65 9.25 -31.9 9.45 -32.45 9.85 -33.65 8.3 -32.9 6.85 -32.25 6.85 -32.25 6.15 -31.9 Q4.45 -31.25 2.8 -30.6 L2.5 -30.5 0.3 -29.95 0.4 -29.4 0.5 -29.2 0.5 -28.8 0.5 -27.7 0.4 -25.2 Q0.35 -22.5 0.3 -19.8 L0.3 -19.3 Q0.1 -5.15 0.2 9.05 L0.15 11.05 -0.25 18.35" fill="#ffffff" fill-opacity="0.09411765" fill-rule="evenodd" stroke="none">
      <animate attributeName="fill" dur="2s" repeatCount="indefinite" values="#ffffff;#ffffff"/>
      <animate attributeName="fill-opacity" dur="2s" repeatCount="indefinite" values="0.09411765;0.09411765"/>
      <animate attributeName="d" dur="2s" repeatCount="indefinite" values="M-0.25 18.35 L-0.25 18.35 Q-0.95 26.75 3.9 30.95 L4.0 31.05 4.4 31.35 6.05 32.45 Q6.3 32.6 6.55 32.75 L6.9 32.95 6.9 32.8 Q6.4 31.25 5.7 30.05 L5.5 29.8 Q5.35 29.05 5.35 28.3 L5.35 28.0 5.35 27.9 Q6.3 27.95 7.2 27.95 8.45 28.85 9.65 29.7 L9.95 30.0 Q10.2 30.3 10.45 30.55 L10.85 31.05 11.3 31.65 11.4 31.85 11.65 32.35 Q11.55 31.65 11.7 31.1 L11.65 30.3 11.15 29.3 11.5 29.15 11.2 29.05 12.0 28.05 12.6 27.55 12.6 27.45 12.2 27.05 12.2 27.05 10.75 26.25 Q9.45 25.4 8.75 24.25 8.5 23.55 8.25 22.85 7.7 20.4 9.15 16.9 L9.85 15.35 10.25 14.85 10.85 14.55 Q11.15 14.15 11.55 14.3 L12.8 14.0 12.9 13.95 11.15 12.45 9.65 11.15 Q9.15 10.7 8.65 10.25 L9.45 9.8 10.05 9.4 Q11.65 9.35 9.3 8.25 L10.55 8.35 12.7 8.15 Q12.35 8.05 12.0 7.95 L9.7 7.15 Q7.55 6.5 6.95 5.0 L6.75 4.1 Q6.9 3.55 7.4 3.0 L7.9 2.3 Q9.25 1.05 7.8 0.8 L7.9 0.8 Q11.5 0.35 8.0 -0.9 L9.1 -0.6 Q10.35 -0.3 9.85 -0.95 7.15 -4.2 8.25 -6.05 L8.5 -6.35 9.1 -6.9 9.3 -7.0 9.3 -7.0 9.35 -7.6 Q9.5 -8.8 10.2 -9.7 L10.7 -10.25 12.8 -11.55 Q14.7 -12.35 12.75 -12.6 L8.5 -12.7 6.7 -12.65 Q8.0 -13.45 8.9 -14.15 L9.35 -14.55 9.8 -14.95 Q10.2 -15.35 10.55 -15.7 L11.05 -16.7 11.05 -16.8 Q10.95 -17.2 10.35 -17.4 L9.85 -17.5 9.85 -17.5 Q8.75 -17.7 8.2 -18.3 7.4 -19.1 7.65 -20.7 7.8 -21.6 8.25 -22.7 8.85 -23.75 9.4 -24.75 10.95 -26.8 13.65 -27.5 14.65 -27.7 15.6 -27.85 L13.9 -27.95 13.1 -28.05 12.0 -28.15 Q11.25 -28.25 10.5 -28.3 8.95 -28.4 7.45 -28.5 L6.9 -28.5 8.5 -30.65 9.25 -31.9 9.45 -32.45 9.85 -33.65 8.3 -32.9 6.85 -32.25 6.85 -32.25 6.15 -31.9 Q4.45 -31.25 2.8 -30.6 L2.5 -30.5 0.3 -29.95 0.4 -29.4 0.5 -29.2 0.5 -28.8 0.5 -27.7 0.4 -25.2 Q0.35 -22.5 0.3 -19.8 L0.3 -19.3 Q0.1 -5.15 0.2 9.05 L0.15 11.05 -0.25 18.35;M-0.25 18.35 L-0.25 18.55 Q-1.1 29.0 6.9 32.95 L6.9 32.8 6.7 32.2 9.2 33.35 Q9.65 33.55 10.05 33.15 L10.05 32.85 9.9 32.65 Q9.4 31.9 7.35 30.2 L7.25 29.85 Q7.05 28.9 6.9 27.95 L7.2 27.95 7.4 28.05 Q8.3 28.6 9.1 29.25 10.5 30.4 11.4 31.85 L11.65 32.35 Q11.55 31.65 11.7 31.1 L11.65 30.3 11.25 29.4 11.65 29.7 12.35 30.1 Q12.9 30.45 13.4 30.8 L14.2 31.35 15.2 32.05 15.5 32.25 16.1 32.65 17.75 32.75 17.05 31.7 16.95 31.5 16.4 30.95 16.1 30.7 14.45 29.7 Q13.35 28.35 12.25 27.0 12.9 26.45 13.0 25.3 16.9 26.15 20.75 26.95 L19.0 25.95 18.2 25.5 17.2 24.9 Q16.75 24.6 16.3 24.35 L14.8 23.4 14.7 23.3 12.4 21.5 11.55 19.05 Q12.05 18.65 13.3 18.5 L14.3 18.45 15.25 18.5 Q18.5 18.65 17.5 17.85 L16.35 17.25 13.9 16.1 Q13.15 15.65 13.6 15.65 L16.25 16.15 Q18.3 16.65 20.35 17.15 L21.5 17.4 Q22.3 17.55 23.1 17.7 L22.3 17.35 Q21.05 16.9 19.8 16.5 L19.7 16.5 Q14.25 14.7 16.3 13.85 L17.4 13.55 Q16.65 13.3 15.9 13.05 12.65 11.95 9.4 10.9 L8.85 10.4 9.8 9.8 9.95 9.6 9.95 9.6 10.35 9.4 Q11.85 9.3 13.3 9.25 L12.75 8.2 16.05 6.95 Q19.25 5.6 18.05 5.15 L12.4 5.0 10.0 4.5 Q8.5 4.05 7.0 3.6 L7.4 3.0 7.9 2.3 Q8.45 1.75 9.2 1.45 L10.4 1.15 10.45 1.0 Q11.0 0.9 11.55 0.8 L11.75 0.15 11.85 0.05 Q10.5 -0.05 9.85 -0.95 8.8 -2.25 8.1 -3.55 8.35 -4.75 9.8 -5.7 10.95 -6.4 12.85 -6.95 10.35 -11.7 11.1 -13.05 11.55 -13.9 12.8 -14.75 L14.55 -15.85 13.55 -16.45 13.0 -17.75 Q12.55 -18.7 12.75 -19.4 13.05 -21.4 12.75 -23.25 L13.45 -23.4 17.15 -23.5 15.55 -24.4 14.65 -24.9 13.15 -25.75 11.45 -26.75 10.35 -28.35 10.35 -28.35 9.35 -28.4 Q10.95 -29.9 12.15 -31.55 L12.35 -31.75 9.75 -32.05 9.25 -31.9 9.35 -32.05 9.45 -32.45 9.85 -33.65 6.85 -32.25 Q3.7 -30.6 0.3 -29.95 L0.5 -29.2 Q0.1 -11.3 0.2 6.65 L0.2 9.05 -0.25 18.35"/>
    </path>
    <path d="M-0.25 18.35 L0.15 11.05 0.2 9.05 Q0.1 -5.15 0.3 -19.3 L0.3 -19.8 Q0.35 -22.5 0.4 -25.2 L0.5 -27.7 0.5 -28.8 0.5 -29.2 0.4 -29.4 0.3 -29.95 2.5 -30.5 2.8 -30.6 Q4.45 -31.25 6.15 -31.9 L6.85 -32.25 6.85 -32.25 8.3 -32.9 9.85 -33.65 9.45 -32.45 9.25 -31.9 8.5 -30.65 6.9 -28.5 7.45 -28.5 Q8.95 -28.4 10.5 -28.3 11.25 -28.25 12.0 -28.15 L13.1 -28.05 13.9 -27.95 15.6 -27.85 Q14.65 -27.7 13.65 -27.5 10.95 -26.8 9.4 -24.75 8.85 -23.75 8.25 -22.7 7.8 -21.6 7.65 -20.7 7.4 -19.1 8.2 -18.3 8.75 -17.7 9.85 -17.5 L9.85 -17.5 10.35 -17.4 Q10.95 -17.2 11.05 -16.8 L11.05 -16.7 10.55 -15.7 Q10.2 -15.35 9.8 -14.95 L9.35 -14.55 8.9 -14.15 Q8.0 -13.45 6.7 -12.65 L8.5 -12.7 12.75 -12.6 Q14.7 -12.35 12.8 -11.55 L10.7 -10.25 10.2 -9.7 Q9.5 -8.8 9.35 -7.6 L9.3 -7.0 9.3 -7.0 9.1 -6.9 8.5 -6.35 8.25 -6.05 Q7.15 -4.2 9.85 -0.95 10.35 -0.3 9.1 -0.6 L8.0 -0.9 Q11.5 0.35 7.9 0.8 L7.8 0.8 Q9.25 1.05 7.9 2.3 L7.4 3.0 Q6.9 3.55 6.75 4.1 L6.95 5.0 Q7.55 6.5 9.7 7.15 L12.0 7.95 Q12.35 8.05 12.7 8.15 L10.55 8.35 9.3 8.25 Q11.65 9.35 10.05 9.4 L9.45 9.8 8.65 10.25 Q9.15 10.7 9.65 11.15 L11.15 12.45 12.9 13.95 12.8 14.0 11.55 14.3 Q11.15 14.15 10.85 14.55 L10.25 14.85 9.85 15.35 9.15 16.9 Q7.7 20.4 8.25 22.85 8.5 23.55 8.75 24.25 9.45 25.4 10.75 26.25 L12.2 27.05 12.2 27.05 12.6 27.45 12.6 27.55 12.0 28.05 11.2 29.05 11.5 29.15 11.15 29.3 11.65 30.3 11.7 31.1 Q11.55 31.65 11.65 32.35 L11.4 31.85 11.3 31.65 10.85 31.05 10.45 30.55 Q10.2 30.3 9.95 30.0 L9.65 29.7 Q8.45 28.85 7.2 27.95 6.3 27.95 5.35 27.9 L5.35 28.0 5.35 28.3 Q5.35 29.05 5.5 29.8 L5.7 30.05 Q6.4 31.25 6.9 32.8 L6.9 32.95 6.55 32.75 Q6.3 32.6 6.05 32.45 L4.4 31.35 4.0 31.05 3.9 30.95 Q-0.95 26.75 -0.25 18.35 L-0.25 18.35 Z" fill="none" stroke="#000000" stroke-linecap="round" stroke-linejoin="round" stroke-opacity="0.0" stroke-width="0.0">
      <animate attributeName="stroke" dur="2s" repeatCount="indefinite" values="#000000;#000001"/>
      <animate attributeName="stroke-width" dur="2s" repeatCount="indefinite" values="0.0;0.0"/>
      <animate attributeName="fill-opacity" dur="2s" repeatCount="indefinite" values="0.0;0.0"/>
      <animate attributeName="d" dur="2s" repeatCount="indefinite" values="M-0.25 18.35 L0.15 11.05 0.2 9.05 Q0.1 -5.15 0.3 -19.3 L0.3 -19.8 Q0.35 -22.5 0.4 -25.2 L0.5 -27.7 0.5 -28.8 0.5 -29.2 0.4 -29.4 0.3 -29.95 2.5 -30.5 2.8 -30.6 Q4.45 -31.25 6.15 -31.9 L6.85 -32.25 6.85 -32.25 8.3 -32.9 9.85 -33.65 9.45 -32.45 9.25 -31.9 8.5 -30.65 6.9 -28.5 7.45 -28.5 Q8.95 -28.4 10.5 -28.3 11.25 -28.25 12.0 -28.15 L13.1 -28.05 13.9 -27.95 15.6 -27.85 Q14.65 -27.7 13.65 -27.5 10.95 -26.8 9.4 -24.75 8.85 -23.75 8.25 -22.7 7.8 -21.6 7.65 -20.7 7.4 -19.1 8.2 -18.3 8.75 -17.7 9.85 -17.5 L9.85 -17.5 10.35 -17.4 Q10.95 -17.2 11.05 -16.8 L11.05 -16.7 10.55 -15.7 Q10.2 -15.35 9.8 -14.95 L9.35 -14.55 8.9 -14.15 Q8.0 -13.45 6.7 -12.65 L8.5 -12.7 12.75 -12.6 Q14.7 -12.35 12.8 -11.55 L10.7 -10.25 10.2 -9.7 Q9.5 -8.8 9.35 -7.6 L9.3 -7.0 9.3 -7.0 9.1 -6.9 8.5 -6.35 8.25 -6.05 Q7.15 -4.2 9.85 -0.95 10.35 -0.3 9.1 -0.6 L8.0 -0.9 Q11.5 0.35 7.9 0.8 L7.8 0.8 Q9.25 1.05 7.9 2.3 L7.4 3.0 Q6.9 3.55 6.75 4.1 L6.95 5.0 Q7.55 6.5 9.7 7.15 L12.0 7.95 Q12.35 8.05 12.7 8.15 L10.55 8.35 9.3 8.25 Q11.65 9.35 10.05 9.4 L9.45 9.8 8.65 10.25 Q9.15 10.7 9.65 11.15 L11.15 12.45 12.9 13.95 12.8 14.0 11.55 14.3 Q11.15 14.15 10.85 14.55 L10.25 14.85 9.85 15.35 9.15 16.9 Q7.7 20.4 8.25 22.85 8.5 23.55 8.75 24.25 9.45 25.4 10.75 26.25 L12.2 27.05 12.2 27.05 12.6 27.45 12.6 27.55 12.0 28.05 11.2 29.05 11.5 29.15 11.15 29.3 11.65 30.3 11.7 31.1 Q11.55 31.65 11.65 32.35 L11.4 31.85 11.3 31.65 10.85 31.05 10.45 30.55 Q10.2 30.3 9.95 30.0 L9.65 29.7 Q8.45 28.85 7.2 27.95 6.3 27.95 5.35 27.9 L5.35 28.0 5.35 28.3 Q5.35 29.05 5.5 29.8 L5.7 30.05 Q6.4 31.25 6.9 32.8 L6.9 32.95 6.55 32.75 Q6.3 32.6 6.05 32.45 L4.4 31.35 4.0 31.05 3.9 30.95 Q-0.95 26.75 -0.25 18.35 L-0.25 18.35 Z;M-0.25 18.35 L0.2 9.05 0.2 6.65 Q0.1 -11.3 0.5 -29.2 L0.3 -29.95 Q3.7 -30.6 6.85 -32.25 L9.85 -33.65 9.45 -32.45 9.35 -32.05 9.25 -31.9 9.75 -32.05 12.35 -31.75 12.15 -31.55 Q10.95 -29.9 9.35 -28.4 L10.35 -28.35 10.35 -28.35 11.45 -26.75 13.15 -25.75 14.65 -24.9 15.55 -24.4 17.15 -23.5 13.45 -23.4 12.75 -23.25 Q13.05 -21.4 12.75 -19.4 12.55 -18.7 13.0 -17.75 L13.55 -16.45 14.55 -15.85 12.8 -14.75 Q11.55 -13.9 11.1 -13.05 10.35 -11.7 12.85 -6.95 10.95 -6.4 9.8 -5.7 8.35 -4.75 8.1 -3.55 8.8 -2.25 9.85 -0.95 10.5 -0.05 11.85 0.05 L11.75 0.15 11.55 0.8 Q11.0 0.9 10.45 1.0 L10.4 1.15 9.2 1.45 Q8.45 1.75 7.9 2.3 L7.4 3.0 7.0 3.6 Q8.5 4.05 10.0 4.5 L12.4 5.0 18.05 5.15 Q19.25 5.6 16.05 6.95 L12.75 8.2 13.3 9.25 Q11.85 9.3 10.35 9.4 L9.95 9.6 9.95 9.6 9.8 9.8 8.85 10.4 9.4 10.9 Q12.65 11.95 15.9 13.05 16.65 13.3 17.4 13.55 L16.3 13.85 Q14.25 14.7 19.7 16.5 L19.8 16.5 Q21.05 16.9 22.3 17.35 L23.1 17.7 Q22.3 17.55 21.5 17.4 L20.35 17.15 Q18.3 16.65 16.25 16.15 L13.6 15.65 Q13.15 15.65 13.9 16.1 L16.35 17.25 17.5 17.85 Q18.5 18.65 15.25 18.5 L14.3 18.45 13.3 18.5 Q12.05 18.65 11.55 19.05 L12.4 21.5 14.7 23.3 14.8 23.4 16.3 24.35 Q16.75 24.6 17.2 24.9 L18.2 25.5 19.0 25.95 20.75 26.95 Q16.9 26.15 13.0 25.3 12.9 26.45 12.25 27.0 13.35 28.35 14.45 29.7 L16.1 30.7 16.4 30.95 16.95 31.5 17.05 31.7 17.75 32.75 16.1 32.65 15.5 32.25 15.2 32.05 14.2 31.35 13.4 30.8 Q12.9 30.45 12.35 30.1 L11.65 29.7 11.25 29.4 11.65 30.3 11.7 31.1 Q11.55 31.65 11.65 32.35 L11.4 31.85 Q10.5 30.4 9.1 29.25 8.3 28.6 7.4 28.05 L7.2 27.95 6.9 27.95 Q7.05 28.9 7.25 29.85 L7.35 30.2 Q9.4 31.9 9.9 32.65 L10.05 32.85 10.05 33.15 Q9.65 33.55 9.2 33.35 L6.7 32.2 6.9 32.8 6.9 32.95 Q-1.1 29.0 -0.25 18.55 L-0.25 18.35 Z"/>
    </path>
  </g>
</svg>
