<?xml version="1.0" encoding="UTF-8" standalone="no"?>
<svg xmlns:ffdec="https://www.free-decompiler.com/flash" xmlns:xlink="http://www.w3.org/1999/xlink" ffdec:objectType="morphshape" height="165.65px" width="561.15px" xmlns="http://www.w3.org/2000/svg">
  <g transform="matrix(1.0, 0.0, 0.0, 1.0, 257.35, 80.2)">
    <path d="M223.45 37.0 L223.45 83.1 223.45 84.35 238.05 84.35 241.65 84.35 241.65 64.45 Q241.65 62.3 241.65 60.2 241.65 57.2 242.25 55.15 242.75 53.5 243.65 52.45 245.1 50.7 247.25 50.25 L248.85 50.1 Q250.5 50.1 251.8 51.0 L252.15 51.25 Q253.55 52.25 254.15 54.1 L254.3 54.75 Q254.45 56.55 254.55 58.3 L254.55 59.45 254.55 84.35 255.05 84.35 270.85 84.35 272.7 84.35 272.7 62.4 272.7 59.9 Q272.7 55.7 274.0 53.4 L274.65 52.5 Q276.6 50.15 279.75 50.2 L280.05 50.2 Q282.55 50.35 284.35 52.65 L285.2 54.45 Q285.55 55.7 285.55 57.4 285.55 59.15 285.55 60.85 L285.55 84.35 288.45 84.35 303.8 84.35 303.8 83.85 303.8 54.45 Q303.75 45.4 299.85 40.9 L299.5 40.5 Q295.55 36.3 288.75 36.0 L287.6 35.95 Q283.35 35.95 280.25 37.1 L278.9 37.65 Q275.85 39.05 272.25 42.8 L271.55 43.55 271.15 43.85 270.55 42.85 Q268.6 39.65 265.75 37.95 L264.9 37.5 Q261.75 35.95 256.75 35.95 L256.15 35.95 Q251.3 36.05 247.6 37.85 243.9 39.7 240.35 43.85 L240.35 42.95 240.35 42.05 240.35 41.15 Q240.35 40.65 240.35 40.2 240.35 38.6 237.85 37.0 L223.45 37.0 M183.65 60.8 Q183.65 66.95 186.2 70.15 188.75 73.15 192.6 73.15 196.55 73.15 199.3 69.9 201.6 66.9 201.6 60.6 201.6 54.6 199.05 51.45 196.55 48.45 192.75 48.4 188.8 48.4 186.0 51.7 183.65 54.75 183.65 60.8 M165.45 60.85 Q165.4 72.45 174.1 79.65 181.1 85.45 192.55 85.45 205.35 85.45 212.6 78.45 219.8 71.45 219.8 60.55 219.8 50.85 213.95 44.2 206.75 35.95 192.55 35.95 180.05 35.95 172.75 43.0 165.4 50.0 165.45 60.85 M109.85 60.9 Q109.85 67.65 111.85 71.9 L111.95 72.1 Q113.85 76.15 117.3 79.25 L117.6 79.5 Q121.05 82.5 125.8 83.95 L126.2 84.05 Q131.15 85.45 138.75 85.45 146.35 85.45 151.6 83.25 156.45 81.15 159.6 77.4 L159.9 77.1 Q162.5 73.95 163.95 69.8 L164.6 67.75 151.75 66.3 Q149.55 66.05 147.35 65.8 L146.5 68.0 Q145.4 70.15 143.75 71.4 142.4 72.4 140.75 72.85 L137.7 73.25 Q134.3 73.25 131.85 71.35 L130.65 70.25 Q127.9 67.2 127.9 61.25 127.9 54.8 130.7 51.6 L132.0 50.3 Q134.45 48.35 138.0 48.35 140.4 48.35 142.15 49.1 L143.7 49.95 Q145.75 51.45 146.65 54.5 149.35 54.15 152.05 53.8 L163.65 52.25 162.55 49.3 Q160.0 43.45 155.15 40.1 L154.25 39.5 Q148.15 35.95 136.55 35.95 128.85 36.05 123.1 38.45 120.1 39.8 116.85 42.75 114.0 45.45 112.25 48.85 109.85 53.7 109.85 60.9 M88.25 66.2 L88.25 84.35 107.65 84.35 107.65 66.2 88.25 66.2 M-189.25 21.6 L-189.15 21.6 -188.25 21.6 -187.65 21.6 -186.65 21.6 -154.55 21.6 -154.85 20.8 -155.05 20.1 -155.25 19.3 -155.45 18.5 -171.9 -35.2 -172.1 -34.5 Q-172.45 -33.3 -172.8 -32.1 L-189.25 21.6 M11.65 0.95 L11.65 0.95 Q11.65 30.15 16.6 41.45 L16.95 42.25 Q22.25 53.3 32.35 53.3 39.15 53.3 44.1 48.7 L44.5 48.4 44.5 48.3 Q49.0 43.45 51.35 33.75 L51.45 33.45 Q53.45 23.5 53.5 2.75 L53.5 2.15 Q53.5 -26.95 49.0 -38.35 L48.25 -40.05 Q42.95 -50.65 32.25 -51.0 21.35 -51.0 16.25 -39.25 11.65 -28.15 11.65 0.95 M-257.35 81.85 L-257.15 81.85 -209.95 81.85 -207.45 81.85 -200.75 58.95 -200.45 57.95 Q-200.3 57.45 -200.15 56.95 L-199.85 55.75 -145.0 55.75 -144.4 55.75 -144.3 55.95 -144.0 56.85 -136.35 81.85 -135.95 81.85 -87.6 81.85 -85.3 81.85 -114.5 3.75 -114.8 3.0 -115.1 2.3 -115.4 1.6 -115.8 0.7 Q-104.2 -3.15 -95.9 -7.2 L-95.1 -7.6 Q-85.4 -12.55 -74.9 -20.45 L-74.3 -20.85 -74.3 -20.35 Q-74.3 -19.95 -74.3 -19.55 -74.3 -19.0 -74.3 -18.45 L-74.3 84.5 -72.2 84.5 -30.3 84.5 -29.9 84.5 -29.9 29.1 Q-29.9 28.5 -29.9 27.9 L-29.9 27.8 Q-29.8 28.35 -29.7 28.9 -29.65 29.35 -29.6 29.8 -29.5 30.25 -29.45 30.7 L-28.7 34.45 -28.1 37.3 Q-25.05 50.35 -19.85 58.25 L-18.55 60.2 -18.55 60.2 Q-11.05 71.05 0.3 76.85 L1.6 77.5 Q13.65 83.15 32.5 83.2 L33.5 83.2 Q68.3 82.85 82.6 63.3 L82.6 63.3 82.6 63.3 Q97.2 43.35 97.2 0.4 97.2 -18.8 92.75 -36.5 L92.65 -36.8 92.65 -36.8 Q90.5 -45.85 86.85 -52.75 L86.85 -52.75 86.85 -52.75 Q83.15 -59.6 76.95 -65.75 L76.65 -65.95 Q70.4 -72.1 60.65 -75.9 L60.65 -75.9 59.95 -76.2 Q49.85 -80.1 34.55 -80.2 L33.75 -80.2 Q1.4 -80.2 -14.8 -63.1 L-15.7 -62.15 Q-25.9 -50.9 -29.6 -28.95 -29.7 -28.4 -29.8 -27.85 L-29.9 -27.45 -29.9 -28.25 Q-29.9 -28.8 -29.9 -29.35 -29.9 -29.9 -29.9 -30.45 L-29.9 -76.25 -31.95 -76.25 -66.25 -76.25 -66.25 -76.25 Q-73.25 -61.5 -85.5 -51.4 L-85.5 -51.4 -85.7 -51.2 Q-97.95 -41.15 -120.2 -33.95 L-120.4 -33.85 -120.4 -12.65 Q-120.4 -12.2 -120.4 -11.75 L-120.4 -11.6 Q-120.55 -12.0 -120.7 -12.4 L-121.0 -13.3 Q-121.2 -13.8 -121.4 -14.3 L-144.65 -76.15 -147.35 -76.15 -198.0 -76.15 -198.4 -74.95 -257.35 81.85" fill="url(#gradient0)" fill-rule="evenodd" stroke="none">
      <animate attributeName="d" dur="2s" repeatCount="indefinite" values="M223.45 37.0 L223.45 83.1 223.45 84.35 238.05 84.35 241.65 84.35 241.65 64.45 Q241.65 62.3 241.65 60.2 241.65 57.2 242.25 55.15 242.75 53.5 243.65 52.45 245.1 50.7 247.25 50.25 L248.85 50.1 Q250.5 50.1 251.8 51.0 L252.15 51.25 Q253.55 52.25 254.15 54.1 L254.3 54.75 Q254.45 56.55 254.55 58.3 L254.55 59.45 254.55 84.35 255.05 84.35 270.85 84.35 272.7 84.35 272.7 62.4 272.7 59.9 Q272.7 55.7 274.0 53.4 L274.65 52.5 Q276.6 50.15 279.75 50.2 L280.05 50.2 Q282.55 50.35 284.35 52.65 L285.2 54.45 Q285.55 55.7 285.55 57.4 285.55 59.15 285.55 60.85 L285.55 84.35 288.45 84.35 303.8 84.35 303.8 83.85 303.8 54.45 Q303.75 45.4 299.85 40.9 L299.5 40.5 Q295.55 36.3 288.75 36.0 L287.6 35.95 Q283.35 35.95 280.25 37.1 L278.9 37.65 Q275.85 39.05 272.25 42.8 L271.55 43.55 271.15 43.85 270.55 42.85 Q268.6 39.65 265.75 37.95 L264.9 37.5 Q261.75 35.95 256.75 35.95 L256.15 35.95 Q251.3 36.05 247.6 37.85 243.9 39.7 240.35 43.85 L240.35 42.95 240.35 42.05 240.35 41.15 Q240.35 40.65 240.35 40.2 240.35 38.6 237.85 37.0 L223.45 37.0 M183.65 60.8 Q183.65 66.95 186.2 70.15 188.75 73.15 192.6 73.15 196.55 73.15 199.3 69.9 201.6 66.9 201.6 60.6 201.6 54.6 199.05 51.45 196.55 48.45 192.75 48.4 188.8 48.4 186.0 51.7 183.65 54.75 183.65 60.8 M165.45 60.85 Q165.4 72.45 174.1 79.65 181.1 85.45 192.55 85.45 205.35 85.45 212.6 78.45 219.8 71.45 219.8 60.55 219.8 50.85 213.95 44.2 206.75 35.95 192.55 35.95 180.05 35.95 172.75 43.0 165.4 50.0 165.45 60.85 M109.85 60.9 Q109.85 67.65 111.85 71.9 L111.95 72.1 Q113.85 76.15 117.3 79.25 L117.6 79.5 Q121.05 82.5 125.8 83.95 L126.2 84.05 Q131.15 85.45 138.75 85.45 146.35 85.45 151.6 83.25 156.45 81.15 159.6 77.4 L159.9 77.1 Q162.5 73.95 163.95 69.8 L164.6 67.75 151.75 66.3 Q149.55 66.05 147.35 65.8 L146.5 68.0 Q145.4 70.15 143.75 71.4 142.4 72.4 140.75 72.85 L137.7 73.25 Q134.3 73.25 131.85 71.35 L130.65 70.25 Q127.9 67.2 127.9 61.25 127.9 54.8 130.7 51.6 L132.0 50.3 Q134.45 48.35 138.0 48.35 140.4 48.35 142.15 49.1 L143.7 49.95 Q145.75 51.45 146.65 54.5 149.35 54.15 152.05 53.8 L163.65 52.25 162.55 49.3 Q160.0 43.45 155.15 40.1 L154.25 39.5 Q148.15 35.95 136.55 35.95 128.85 36.05 123.1 38.45 120.1 39.8 116.85 42.75 114.0 45.45 112.25 48.85 109.85 53.7 109.85 60.9 M88.25 66.2 L88.25 84.35 107.65 84.35 107.65 66.2 88.25 66.2 M-189.25 21.6 L-189.15 21.6 -188.25 21.6 -187.65 21.6 -186.65 21.6 -154.55 21.6 -154.85 20.8 -155.05 20.1 -155.25 19.3 -155.45 18.5 -171.9 -35.2 -172.1 -34.5 Q-172.45 -33.3 -172.8 -32.1 L-189.25 21.6 M11.65 0.95 L11.65 0.95 Q11.65 30.15 16.6 41.45 L16.95 42.25 Q22.25 53.3 32.35 53.3 39.15 53.3 44.1 48.7 L44.5 48.4 44.5 48.3 Q49.0 43.45 51.35 33.75 L51.45 33.45 Q53.45 23.5 53.5 2.75 L53.5 2.15 Q53.5 -26.95 49.0 -38.35 L48.25 -40.05 Q42.95 -50.65 32.25 -51.0 21.35 -51.0 16.25 -39.25 11.65 -28.15 11.65 0.95 M-257.35 81.85 L-257.15 81.85 -209.95 81.85 -207.45 81.85 -200.75 58.95 -200.45 57.95 Q-200.3 57.45 -200.15 56.95 L-199.85 55.75 -145.0 55.75 -144.4 55.75 -144.3 55.95 -144.0 56.85 -136.35 81.85 -135.95 81.85 -87.6 81.85 -85.3 81.85 -114.5 3.75 -114.8 3.0 -115.1 2.3 -115.4 1.6 -115.8 0.7 Q-104.2 -3.15 -95.9 -7.2 L-95.1 -7.6 Q-85.4 -12.55 -74.9 -20.45 L-74.3 -20.85 -74.3 -20.35 Q-74.3 -19.95 -74.3 -19.55 -74.3 -19.0 -74.3 -18.45 L-74.3 84.5 -72.2 84.5 -30.3 84.5 -29.9 84.5 -29.9 29.1 Q-29.9 28.5 -29.9 27.9 L-29.9 27.8 Q-29.8 28.35 -29.7 28.9 -29.65 29.35 -29.6 29.8 -29.5 30.25 -29.45 30.7 L-28.7 34.45 -28.1 37.3 Q-25.05 50.35 -19.85 58.25 L-18.55 60.2 -18.55 60.2 Q-11.05 71.05 0.3 76.85 L1.6 77.5 Q13.65 83.15 32.5 83.2 L33.5 83.2 Q68.3 82.85 82.6 63.3 L82.6 63.3 82.6 63.3 Q97.2 43.35 97.2 0.4 97.2 -18.8 92.75 -36.5 L92.65 -36.8 92.65 -36.8 Q90.5 -45.85 86.85 -52.75 L86.85 -52.75 86.85 -52.75 Q83.15 -59.6 76.95 -65.75 L76.65 -65.95 Q70.4 -72.1 60.65 -75.9 L60.65 -75.9 59.95 -76.2 Q49.85 -80.1 34.55 -80.2 L33.75 -80.2 Q1.4 -80.2 -14.8 -63.1 L-15.7 -62.15 Q-25.9 -50.9 -29.6 -28.95 -29.7 -28.4 -29.8 -27.85 L-29.9 -27.45 -29.9 -28.25 Q-29.9 -28.8 -29.9 -29.35 -29.9 -29.9 -29.9 -30.45 L-29.9 -76.25 -31.95 -76.25 -66.25 -76.25 -66.25 -76.25 Q-73.25 -61.5 -85.5 -51.4 L-85.5 -51.4 -85.7 -51.2 Q-97.95 -41.15 -120.2 -33.95 L-120.4 -33.85 -120.4 -12.65 Q-120.4 -12.2 -120.4 -11.75 L-120.4 -11.6 Q-120.55 -12.0 -120.7 -12.4 L-121.0 -13.3 Q-121.2 -13.8 -121.4 -14.3 L-144.65 -76.15 -147.35 -76.15 -198.0 -76.15 -198.4 -74.95 -257.35 81.85;M224.95 38.5 L224.95 82.85 226.15 82.85 240.15 82.85 240.15 79.35 240.15 60.2 Q240.15 57.9 240.5 56.1 241.05 53.1 242.5 51.5 243.55 50.25 244.9 49.55 246.65 48.6 248.85 48.6 L250.6 48.8 Q251.95 49.15 253.05 50.05 L253.35 50.25 Q254.65 51.3 255.3 53.0 L255.55 53.65 Q255.95 54.65 256.05 57.25 L256.05 58.3 256.05 82.3 256.05 82.85 271.2 82.85 271.2 81.05 271.2 59.9 271.3 57.45 Q271.7 53.55 273.5 51.55 L274.5 50.55 Q276.6 48.8 279.55 48.7 L279.75 48.7 Q282.3 48.65 284.25 50.35 L285.5 51.7 Q286.3 52.65 286.7 54.2 287.05 55.55 287.05 57.4 L287.05 80.05 287.05 82.85 301.85 82.85 302.3 82.85 302.3 54.65 Q302.3 45.7 298.4 41.55 L298.1 41.25 Q294.2 37.45 287.6 37.45 L286.5 37.45 Q282.45 37.65 279.55 39.0 L278.35 39.6 Q275.55 41.3 272.25 44.95 L271.4 45.4 270.5 45.3 269.8 44.65 Q268.15 41.5 265.75 39.75 L265.0 39.25 Q262.1 37.55 257.35 37.45 L256.75 37.45 Q252.0 37.45 248.45 39.1 244.95 40.85 241.5 44.9 L240.75 45.4 239.85 45.35 239.15 44.8 Q238.85 44.4 238.85 43.95 238.85 41.2 238.85 38.5 L224.95 38.5 M182.15 60.8 Q182.15 67.75 185.25 71.3 188.2 74.65 192.8 74.65 197.1 74.6 200.25 71.15 203.1 67.85 203.1 60.6 203.1 53.75 200.1 50.4 197.1 46.9 192.65 46.9 188.2 46.95 185.05 50.55 182.15 53.9 182.15 60.8 M166.95 60.85 Q166.9 71.75 175.05 78.5 181.7 83.95 192.55 83.95 204.65 83.95 211.55 77.4 218.3 70.8 218.3 60.55 218.3 51.4 212.85 45.2 205.95 37.45 192.55 37.45 180.75 37.45 173.8 44.05 166.9 50.65 166.95 60.85 M111.35 60.9 Q111.35 67.4 113.3 71.45 L113.4 71.65 Q115.3 75.45 118.6 78.4 L118.9 78.7 Q122.15 81.3 126.6 82.6 L127.1 82.7 Q131.75 83.95 138.75 83.95 146.15 83.95 151.2 81.8 155.75 79.75 158.75 76.15 L158.95 75.85 Q161.35 72.9 162.65 69.05 L160.55 68.85 148.35 67.45 Q147.5 69.6 146.3 71.05 L144.65 72.6 Q143.0 73.85 140.9 74.35 139.3 74.55 137.7 74.75 L134.7 74.4 Q131.75 73.65 129.55 71.25 L128.55 69.95 Q126.4 66.75 126.4 61.35 126.4 55.4 128.6 52.0 L129.55 50.65 Q131.55 48.3 134.3 47.4 136.0 46.85 138.0 46.85 L139.7 46.95 Q142.65 47.25 144.55 48.75 146.6 50.2 147.65 52.85 L158.75 51.4 161.65 51.0 Q159.45 45.3 155.2 41.95 L154.3 41.35 Q148.7 37.6 137.45 37.45 130.05 37.45 124.45 39.55 121.5 40.7 118.35 43.45 115.4 46.05 113.7 49.45 111.35 54.0 111.35 60.9 M89.75 67.7 L89.75 82.85 106.15 82.85 106.15 67.7 89.75 67.7 M-190.7 21.15 L-190.7 21.15 -190.7 22.1 -190.15 22.85 -189.25 23.1 -155.25 23.1 -154.55 23.1 -153.65 22.85 -153.1 22.1 -153.1 21.15 -170.45 -35.7 -171.0 -36.4 Q-171.4 -36.7 -173.3 -35.65 L-190.7 21.15 M10.15 0.95 L10.15 1.05 Q10.15 31.7 15.6 42.9 L16.0 43.7 Q21.75 54.85 32.65 54.8 39.6 54.7 44.8 50.1 L45.1 49.8 45.15 49.75 Q50.1 44.85 52.7 34.7 L52.8 34.1 Q55.0 23.85 55.0 2.15 L55.0 1.55 Q54.95 -29.85 49.6 -40.7 L48.75 -42.35 Q42.95 -52.55 31.85 -52.5 20.55 -52.35 15.15 -40.45 10.15 -29.4 10.15 0.95 M-255.2 80.35 L-255.2 80.35 -208.55 80.35 -207.85 78.05 -201.3 55.35 -200.75 54.55 Q-200.35 54.25 -199.85 54.25 L-198.6 54.25 -144.4 54.25 -143.8 54.4 -143.5 54.55 -143.0 55.3 -135.35 79.95 -135.25 80.35 -87.45 80.35 -88.25 78.25 -117.2 1.2 -117.3 0.4 -116.95 -0.3 -116.3 -0.75 -115.4 -1.05 Q-103.9 -4.9 -95.8 -8.95 L-95.0 -9.35 Q-85.45 -14.3 -75.2 -22.05 L-74.55 -22.3 -74.15 -22.35 Q-73.6 -22.3 -73.2 -21.85 -72.85 -21.4 -72.8 -20.85 L-72.8 80.9 -72.8 83.0 -31.4 83.0 -31.4 82.6 -31.4 27.8 Q-31.4 27.2 -31.0 26.8 L-30.95 26.75 Q-30.6 26.35 -30.05 26.3 -29.45 26.25 -29.0 26.65 -28.55 27.0 -28.45 27.6 L-27.8 31.35 -27.2 34.15 Q-24.55 47.2 -19.8 55.45 L-18.6 57.4 -18.55 57.45 Q-11.4 68.75 -0.3 74.85 L0.95 75.55 Q12.7 81.55 31.5 81.7 L32.5 81.7 Q67.15 81.7 81.4 62.4 L81.4 62.4 81.4 62.4 Q95.7 42.75 95.7 0.3 95.7 -18.65 91.3 -36.15 L91.3 -36.15 91.3 -36.15 Q89.15 -45.3 85.55 -52.05 L85.55 -52.0 85.55 -52.0 Q81.85 -58.85 75.6 -64.85 L75.4 -65.05 Q69.15 -71.05 59.45 -74.8 L59.4 -74.8 58.7 -75.05 Q48.75 -78.7 33.75 -78.7 L32.95 -78.7 Q1.05 -78.5 -14.6 -61.15 L-15.45 -60.2 Q-25.0 -48.85 -28.45 -27.25 -28.55 -26.65 -29.0 -26.3 L-29.3 -26.1 -30.05 -25.95 Q-30.65 -26.0 -31.0 -26.45 -31.4 -26.9 -31.4 -27.45 L-31.4 -72.75 -31.4 -74.75 -65.25 -74.75 -65.35 -74.75 Q-72.45 -60.1 -84.75 -50.05 L-84.75 -50.05 -84.95 -49.85 Q-97.15 -39.95 -118.9 -32.75 L-118.9 -32.55 -118.9 -11.6 Q-118.9 -11.1 -119.25 -10.65 L-119.35 -10.55 Q-119.65 -10.25 -120.15 -10.15 L-121.15 -10.3 Q-121.65 -10.6 -121.8 -11.1 L-144.75 -72.15 -145.65 -74.65 -195.65 -74.65 -196.95 -74.65 -255.2 80.35"/>
    </path>
    <path d="M-257.35 81.85 L-198.4 -74.95 -198.0 -76.15 -147.35 -76.15 -144.65 -76.15 -121.4 -14.3 Q-121.2 -13.8 -121.0 -13.3 L-120.7 -12.4 Q-120.55 -12.0 -120.4 -11.6 L-120.4 -11.75 Q-120.4 -12.2 -120.4 -12.65 L-120.4 -33.85 -120.2 -33.95 Q-97.95 -41.15 -85.7 -51.2 L-85.5 -51.4 -85.5 -51.4 Q-73.25 -61.5 -66.25 -76.25 L-66.25 -76.25 -31.95 -76.25 -29.9 -76.25 -29.9 -30.45 Q-29.9 -29.9 -29.9 -29.35 -29.9 -28.8 -29.9 -28.25 L-29.9 -27.45 -29.8 -27.85 Q-29.7 -28.4 -29.6 -28.95 -25.9 -50.9 -15.7 -62.15 L-14.8 -63.1 Q1.4 -80.2 33.75 -80.2 L34.55 -80.2 Q49.85 -80.1 59.95 -76.2 L60.65 -75.9 60.65 -75.9 Q70.4 -72.1 76.65 -65.95 L76.95 -65.75 Q83.15 -59.6 86.85 -52.75 L86.85 -52.75 86.85 -52.75 Q90.5 -45.85 92.65 -36.8 L92.65 -36.8 92.75 -36.5 Q97.2 -18.8 97.2 0.4 97.2 43.35 82.6 63.3 L82.6 63.3 82.6 63.3 Q68.3 82.85 33.5 83.2 L32.5 83.2 Q13.65 83.15 1.6 77.5 L0.3 76.85 Q-11.05 71.05 -18.55 60.2 L-18.55 60.2 -19.85 58.25 Q-25.05 50.35 -28.1 37.3 L-28.7 34.45 -29.45 30.7 Q-29.5 30.25 -29.6 29.8 -29.65 29.35 -29.7 28.9 -29.8 28.35 -29.9 27.8 L-29.9 27.9 Q-29.9 28.5 -29.9 29.1 L-29.9 84.5 -30.3 84.5 -72.2 84.5 -74.3 84.5 -74.3 -18.45 Q-74.3 -19.0 -74.3 -19.55 -74.3 -19.95 -74.3 -20.35 L-74.3 -20.85 -74.9 -20.45 Q-85.4 -12.55 -95.1 -7.6 L-95.9 -7.2 Q-104.2 -3.15 -115.8 0.7 L-115.4 1.6 -115.1 2.3 -114.8 3.0 -114.5 3.75 -85.3 81.85 -87.6 81.85 -135.95 81.85 -136.35 81.85 -144.0 56.85 -144.3 55.95 -144.4 55.75 -145.0 55.75 -199.85 55.75 -200.15 56.95 Q-200.3 57.45 -200.45 57.95 L-200.75 58.95 -207.45 81.85 -209.95 81.85 -257.15 81.85 -257.35 81.85 M11.65 0.95 Q11.65 -28.15 16.25 -39.25 21.35 -51.0 32.25 -51.0 42.95 -50.65 48.25 -40.05 L49.0 -38.35 Q53.5 -26.95 53.5 2.15 L53.5 2.75 Q53.45 23.5 51.45 33.45 L51.35 33.75 Q49.0 43.45 44.5 48.3 L44.5 48.4 44.1 48.7 Q39.15 53.3 32.35 53.3 22.25 53.3 16.95 42.25 L16.6 41.45 Q11.65 30.15 11.65 0.95 L11.65 0.95 M-189.25 21.6 L-172.8 -32.1 Q-172.45 -33.3 -172.1 -34.5 L-171.9 -35.2 -155.45 18.5 -155.25 19.3 -155.05 20.1 -154.85 20.8 -154.55 21.6 -186.65 21.6 -187.65 21.6 -188.25 21.6 -189.15 21.6 -189.25 21.6 M88.25 66.2 L107.65 66.2 107.65 84.35 88.25 84.35 88.25 66.2 M109.85 60.9 Q109.85 53.7 112.25 48.85 114.0 45.45 116.85 42.75 120.1 39.8 123.1 38.45 128.85 36.05 136.55 35.95 148.15 35.95 154.25 39.5 L155.15 40.1 Q160.0 43.45 162.55 49.3 L163.65 52.25 152.05 53.8 Q149.35 54.15 146.65 54.5 145.75 51.45 143.7 49.95 L142.15 49.1 Q140.4 48.35 138.0 48.35 134.45 48.35 132.0 50.3 L130.7 51.6 Q127.9 54.8 127.9 61.25 127.9 67.2 130.65 70.25 L131.85 71.35 Q134.3 73.25 137.7 73.25 L140.75 72.85 Q142.4 72.4 143.75 71.4 145.4 70.15 146.5 68.0 L147.35 65.8 Q149.55 66.05 151.75 66.3 L164.6 67.75 163.95 69.8 Q162.5 73.95 159.9 77.1 L159.6 77.4 Q156.45 81.15 151.6 83.25 146.35 85.45 138.75 85.45 131.15 85.45 126.2 84.05 L125.8 83.95 Q121.05 82.5 117.6 79.5 L117.3 79.25 Q113.85 76.15 111.95 72.1 L111.85 71.9 Q109.85 67.65 109.85 60.9 M165.45 60.85 Q165.4 50.0 172.75 43.0 180.05 35.95 192.55 35.95 206.75 35.95 213.95 44.2 219.8 50.85 219.8 60.55 219.8 71.45 212.6 78.45 205.35 85.45 192.55 85.45 181.1 85.45 174.1 79.65 165.4 72.45 165.45 60.85 M183.65 60.8 Q183.65 54.75 186.0 51.7 188.8 48.4 192.75 48.4 196.55 48.45 199.05 51.45 201.6 54.6 201.6 60.6 201.6 66.9 199.3 69.9 196.55 73.15 192.6 73.15 188.75 73.15 186.2 70.15 183.65 66.95 183.65 60.8 M223.45 37.0 L237.85 37.0 Q240.35 38.6 240.35 40.2 240.35 40.65 240.35 41.15 L240.35 42.05 240.35 42.95 240.35 43.85 Q243.9 39.7 247.6 37.85 251.3 36.05 256.15 35.95 L256.75 35.95 Q261.75 35.95 264.9 37.5 L265.75 37.95 Q268.6 39.65 270.55 42.85 L271.15 43.85 271.55 43.55 272.25 42.8 Q275.85 39.05 278.9 37.65 L280.25 37.1 Q283.35 35.95 287.6 35.95 L288.75 36.0 Q295.55 36.3 299.5 40.5 L299.85 40.9 Q303.75 45.4 303.8 54.45 L303.8 83.85 303.8 84.35 288.45 84.35 285.55 84.35 285.55 60.85 Q285.55 59.15 285.55 57.4 285.55 55.7 285.2 54.45 L284.35 52.65 Q282.55 50.35 280.05 50.2 L279.75 50.2 Q276.6 50.15 274.65 52.5 L274.0 53.4 Q272.7 55.7 272.7 59.9 L272.7 62.4 272.7 84.35 270.85 84.35 255.05 84.35 254.55 84.35 254.55 59.45 254.55 58.3 Q254.45 56.55 254.3 54.75 L254.15 54.1 Q253.55 52.25 252.15 51.25 L251.8 51.0 Q250.5 50.1 248.85 50.1 L247.25 50.25 Q245.1 50.7 243.65 52.45 242.75 53.5 242.25 55.15 241.65 57.2 241.65 60.2 241.65 62.3 241.65 64.45 L241.65 84.35 238.05 84.35 223.45 84.35 223.45 83.1 223.45 37.0 Z" fill="none" stroke="#000000" stroke-linecap="round" stroke-linejoin="round" stroke-opacity="0.0" stroke-width="0.0">
      <animate attributeName="stroke" dur="2s" repeatCount="indefinite" values="#000000;#000001"/>
      <animate attributeName="stroke-width" dur="2s" repeatCount="indefinite" values="0.0;0.0"/>
      <animate attributeName="fill-opacity" dur="2s" repeatCount="indefinite" values="0.0;0.0"/>
      <animate attributeName="d" dur="2s" repeatCount="indefinite" values="M-257.35 81.85 L-198.4 -74.95 -198.0 -76.15 -147.35 -76.15 -144.65 -76.15 -121.4 -14.3 Q-121.2 -13.8 -121.0 -13.3 L-120.7 -12.4 Q-120.55 -12.0 -120.4 -11.6 L-120.4 -11.75 Q-120.4 -12.2 -120.4 -12.65 L-120.4 -33.85 -120.2 -33.95 Q-97.95 -41.15 -85.7 -51.2 L-85.5 -51.4 -85.5 -51.4 Q-73.25 -61.5 -66.25 -76.25 L-66.25 -76.25 -31.95 -76.25 -29.9 -76.25 -29.9 -30.45 Q-29.9 -29.9 -29.9 -29.35 -29.9 -28.8 -29.9 -28.25 L-29.9 -27.45 -29.8 -27.85 Q-29.7 -28.4 -29.6 -28.95 -25.9 -50.9 -15.7 -62.15 L-14.8 -63.1 Q1.4 -80.2 33.75 -80.2 L34.55 -80.2 Q49.85 -80.1 59.95 -76.2 L60.65 -75.9 60.65 -75.9 Q70.4 -72.1 76.65 -65.95 L76.95 -65.75 Q83.15 -59.6 86.85 -52.75 L86.85 -52.75 86.85 -52.75 Q90.5 -45.85 92.65 -36.8 L92.65 -36.8 92.75 -36.5 Q97.2 -18.8 97.2 0.4 97.2 43.35 82.6 63.3 L82.6 63.3 82.6 63.3 Q68.3 82.85 33.5 83.2 L32.5 83.2 Q13.65 83.15 1.6 77.5 L0.3 76.85 Q-11.05 71.05 -18.55 60.2 L-18.55 60.2 -19.85 58.25 Q-25.05 50.35 -28.1 37.3 L-28.7 34.45 -29.45 30.7 Q-29.5 30.25 -29.6 29.8 -29.65 29.35 -29.7 28.9 -29.8 28.35 -29.9 27.8 L-29.9 27.9 Q-29.9 28.5 -29.9 29.1 L-29.9 84.5 -30.3 84.5 -72.2 84.5 -74.3 84.5 -74.3 -18.45 Q-74.3 -19.0 -74.3 -19.55 -74.3 -19.95 -74.3 -20.35 L-74.3 -20.85 -74.9 -20.45 Q-85.4 -12.55 -95.1 -7.6 L-95.9 -7.2 Q-104.2 -3.15 -115.8 0.7 L-115.4 1.6 -115.1 2.3 -114.8 3.0 -114.5 3.75 -85.3 81.85 -87.6 81.85 -135.95 81.85 -136.35 81.85 -144.0 56.85 -144.3 55.95 -144.4 55.75 -145.0 55.75 -199.85 55.75 -200.15 56.95 Q-200.3 57.45 -200.45 57.95 L-200.75 58.95 -207.45 81.85 -209.95 81.85 -257.15 81.85 -257.35 81.85 M11.65 0.95 Q11.65 -28.15 16.25 -39.25 21.35 -51.0 32.25 -51.0 42.95 -50.65 48.25 -40.05 L49.0 -38.35 Q53.5 -26.95 53.5 2.15 L53.5 2.75 Q53.45 23.5 51.45 33.45 L51.35 33.75 Q49.0 43.45 44.5 48.3 L44.5 48.4 44.1 48.7 Q39.15 53.3 32.35 53.3 22.25 53.3 16.95 42.25 L16.6 41.45 Q11.65 30.15 11.65 0.95 L11.65 0.95 M-189.25 21.6 L-172.8 -32.1 Q-172.45 -33.3 -172.1 -34.5 L-171.9 -35.2 -155.45 18.5 -155.25 19.3 -155.05 20.1 -154.85 20.8 -154.55 21.6 -186.65 21.6 -187.65 21.6 -188.25 21.6 -189.15 21.6 -189.25 21.6 M88.25 66.2 L107.65 66.2 107.65 84.35 88.25 84.35 88.25 66.2 M109.85 60.9 Q109.85 53.7 112.25 48.85 114.0 45.45 116.85 42.75 120.1 39.8 123.1 38.45 128.85 36.05 136.55 35.95 148.15 35.95 154.25 39.5 L155.15 40.1 Q160.0 43.45 162.55 49.3 L163.65 52.25 152.05 53.8 Q149.35 54.15 146.65 54.5 145.75 51.45 143.7 49.95 L142.15 49.1 Q140.4 48.35 138.0 48.35 134.45 48.35 132.0 50.3 L130.7 51.6 Q127.9 54.8 127.9 61.25 127.9 67.2 130.65 70.25 L131.85 71.35 Q134.3 73.25 137.7 73.25 L140.75 72.85 Q142.4 72.4 143.75 71.4 145.4 70.15 146.5 68.0 L147.35 65.8 Q149.55 66.05 151.75 66.3 L164.6 67.75 163.95 69.8 Q162.5 73.95 159.9 77.1 L159.6 77.4 Q156.45 81.15 151.6 83.25 146.35 85.45 138.75 85.45 131.15 85.45 126.2 84.05 L125.8 83.95 Q121.05 82.5 117.6 79.5 L117.3 79.25 Q113.85 76.15 111.95 72.1 L111.85 71.9 Q109.85 67.65 109.85 60.9 M165.45 60.85 Q165.4 50.0 172.75 43.0 180.05 35.95 192.55 35.95 206.75 35.95 213.95 44.2 219.8 50.85 219.8 60.55 219.8 71.45 212.6 78.45 205.35 85.45 192.55 85.45 181.1 85.45 174.1 79.65 165.4 72.45 165.45 60.85 M183.65 60.8 Q183.65 54.75 186.0 51.7 188.8 48.4 192.75 48.4 196.55 48.45 199.05 51.45 201.6 54.6 201.6 60.6 201.6 66.9 199.3 69.9 196.55 73.15 192.6 73.15 188.75 73.15 186.2 70.15 183.65 66.95 183.65 60.8 M223.45 37.0 L237.85 37.0 Q240.35 38.6 240.35 40.2 240.35 40.65 240.35 41.15 L240.35 42.05 240.35 42.95 240.35 43.85 Q243.9 39.7 247.6 37.85 251.3 36.05 256.15 35.95 L256.75 35.95 Q261.75 35.95 264.9 37.5 L265.75 37.95 Q268.6 39.65 270.55 42.85 L271.15 43.85 271.55 43.55 272.25 42.8 Q275.85 39.05 278.9 37.65 L280.25 37.1 Q283.35 35.95 287.6 35.95 L288.75 36.0 Q295.55 36.3 299.5 40.5 L299.85 40.9 Q303.75 45.4 303.8 54.45 L303.8 83.85 303.8 84.35 288.45 84.35 285.55 84.35 285.55 60.85 Q285.55 59.15 285.55 57.4 285.55 55.7 285.2 54.45 L284.35 52.65 Q282.55 50.35 280.05 50.2 L279.75 50.2 Q276.6 50.15 274.65 52.5 L274.0 53.4 Q272.7 55.7 272.7 59.9 L272.7 62.4 272.7 84.35 270.85 84.35 255.05 84.35 254.55 84.35 254.55 59.45 254.55 58.3 Q254.45 56.55 254.3 54.75 L254.15 54.1 Q253.55 52.25 252.15 51.25 L251.8 51.0 Q250.5 50.1 248.85 50.1 L247.25 50.25 Q245.1 50.7 243.65 52.45 242.75 53.5 242.25 55.15 241.65 57.2 241.65 60.2 241.65 62.3 241.65 64.45 L241.65 84.35 238.05 84.35 223.45 84.35 223.45 83.1 223.45 37.0 Z;M-255.2 80.35 L-196.95 -74.65 -195.65 -74.65 -145.65 -74.65 -144.75 -72.15 -121.8 -11.1 Q-121.65 -10.6 -121.15 -10.3 L-120.15 -10.15 Q-119.65 -10.25 -119.35 -10.55 L-119.25 -10.65 Q-118.9 -11.1 -118.9 -11.6 L-118.9 -32.55 -118.9 -32.75 Q-97.15 -39.95 -84.95 -49.85 L-84.75 -50.05 -84.75 -50.05 Q-72.45 -60.1 -65.35 -74.75 L-65.25 -74.75 -31.4 -74.75 -31.4 -72.75 -31.4 -27.45 Q-31.4 -26.9 -31.0 -26.45 -30.65 -26.0 -30.05 -25.95 L-29.3 -26.1 -29.0 -26.3 Q-28.55 -26.65 -28.45 -27.25 -25.0 -48.85 -15.45 -60.2 L-14.6 -61.15 Q1.05 -78.5 32.95 -78.7 L33.75 -78.7 Q48.75 -78.7 58.7 -75.05 L59.4 -74.8 59.45 -74.8 Q69.15 -71.05 75.4 -65.05 L75.6 -64.85 Q81.85 -58.85 85.55 -52.0 L85.55 -52.0 85.55 -52.05 Q89.15 -45.3 91.3 -36.15 L91.3 -36.15 91.3 -36.15 Q95.7 -18.65 95.7 0.3 95.7 42.75 81.4 62.4 L81.4 62.4 81.4 62.4 Q67.15 81.7 32.5 81.7 L31.5 81.7 Q12.7 81.55 0.95 75.55 L-0.3 74.85 Q-11.4 68.75 -18.55 57.45 L-18.6 57.4 -19.8 55.45 Q-24.55 47.2 -27.2 34.15 L-27.8 31.35 -28.45 27.6 Q-28.55 27.0 -29.0 26.65 -29.45 26.25 -30.05 26.3 -30.6 26.35 -30.95 26.75 L-31.0 26.8 Q-31.4 27.2 -31.4 27.8 L-31.4 82.6 -31.4 83.0 -72.8 83.0 -72.8 80.9 -72.8 -20.85 Q-72.85 -21.4 -73.2 -21.85 -73.6 -22.3 -74.15 -22.35 L-74.55 -22.3 -75.2 -22.05 Q-85.45 -14.3 -95.0 -9.35 L-95.8 -8.95 Q-103.9 -4.9 -115.4 -1.05 L-116.3 -0.75 -116.95 -0.3 -117.3 0.4 -117.2 1.2 -88.25 78.25 -87.45 80.35 -135.25 80.35 -135.35 79.95 -143.0 55.3 -143.5 54.55 -143.8 54.4 -144.4 54.25 -198.6 54.25 -199.85 54.25 Q-200.35 54.25 -200.75 54.55 L-201.3 55.35 -207.85 78.05 -208.55 80.35 -255.2 80.35 -255.2 80.35 M10.15 0.95 Q10.15 -29.4 15.15 -40.45 20.55 -52.35 31.85 -52.5 42.95 -52.55 48.75 -42.35 L49.6 -40.7 Q54.95 -29.85 55.0 1.55 L55.0 2.15 Q55.0 23.85 52.8 34.1 L52.7 34.7 Q50.1 44.85 45.15 49.75 L45.1 49.8 44.8 50.1 Q39.6 54.7 32.65 54.8 21.75 54.85 16.0 43.7 L15.6 42.9 Q10.15 31.7 10.15 1.05 L10.15 0.95 M-190.7 21.15 L-173.3 -35.65 Q-171.4 -36.7 -171.0 -36.4 L-170.45 -35.7 -153.1 21.15 -153.1 22.1 -153.65 22.85 -154.55 23.1 -155.25 23.1 -189.25 23.1 -190.15 22.85 -190.7 22.1 -190.7 21.15 -190.7 21.15 M89.75 67.7 L106.15 67.7 106.15 82.85 89.75 82.85 89.75 67.7 M111.35 60.9 Q111.35 54.0 113.7 49.45 115.4 46.05 118.35 43.45 121.5 40.7 124.45 39.55 130.05 37.45 137.45 37.45 148.7 37.6 154.3 41.35 L155.2 41.95 Q159.45 45.3 161.65 51.0 L158.75 51.4 147.65 52.85 Q146.6 50.2 144.55 48.75 142.65 47.25 139.7 46.95 L138.0 46.85 Q136.0 46.85 134.3 47.4 131.55 48.3 129.55 50.65 L128.6 52.0 Q126.4 55.4 126.4 61.35 126.4 66.75 128.55 69.95 L129.55 71.25 Q131.75 73.65 134.7 74.4 L137.7 74.75 Q139.3 74.55 140.9 74.35 143.0 73.85 144.65 72.6 L146.3 71.05 Q147.5 69.6 148.35 67.45 L160.55 68.85 162.65 69.05 Q161.35 72.9 158.95 75.85 L158.75 76.15 Q155.75 79.75 151.2 81.8 146.15 83.95 138.75 83.95 131.75 83.95 127.1 82.7 L126.6 82.6 Q122.15 81.3 118.9 78.7 L118.6 78.4 Q115.3 75.45 113.4 71.65 L113.3 71.45 Q111.35 67.4 111.35 60.9 M166.95 60.85 Q166.9 50.65 173.8 44.05 180.75 37.45 192.55 37.45 205.95 37.45 212.85 45.2 218.3 51.4 218.3 60.55 218.3 70.8 211.55 77.4 204.65 83.95 192.55 83.95 181.7 83.95 175.05 78.5 166.9 71.75 166.95 60.85 M182.15 60.8 Q182.15 53.9 185.05 50.55 188.2 46.95 192.65 46.9 197.1 46.9 200.1 50.4 203.1 53.75 203.1 60.6 203.1 67.85 200.25 71.15 197.1 74.6 192.8 74.65 188.2 74.65 185.25 71.3 182.15 67.75 182.15 60.8 M224.95 38.5 L238.85 38.5 Q238.85 41.2 238.85 43.95 238.85 44.4 239.15 44.8 L239.85 45.35 240.75 45.4 241.5 44.9 Q244.95 40.85 248.45 39.1 252.0 37.45 256.75 37.45 L257.35 37.45 Q262.1 37.55 265.0 39.25 L265.75 39.75 Q268.15 41.5 269.8 44.65 L270.5 45.3 271.4 45.4 272.25 44.95 Q275.55 41.3 278.35 39.6 L279.55 39.0 Q282.45 37.65 286.5 37.45 L287.6 37.45 Q294.2 37.45 298.1 41.25 L298.4 41.55 Q302.3 45.7 302.3 54.65 L302.3 82.85 301.85 82.85 287.05 82.85 287.05 80.05 287.05 57.4 Q287.05 55.55 286.7 54.2 286.3 52.65 285.5 51.7 L284.25 50.35 Q282.3 48.65 279.75 48.7 L279.55 48.7 Q276.6 48.8 274.5 50.55 L273.5 51.55 Q271.7 53.55 271.3 57.45 L271.2 59.9 271.2 81.05 271.2 82.85 256.05 82.85 256.05 82.3 256.05 58.3 256.05 57.25 Q255.95 54.65 255.55 53.65 L255.3 53.0 Q254.65 51.3 253.35 50.25 L253.05 50.05 Q251.95 49.15 250.6 48.8 L248.85 48.6 Q246.65 48.6 244.9 49.55 243.55 50.25 242.5 51.5 241.05 53.1 240.5 56.1 240.15 57.9 240.15 60.2 L240.15 79.35 240.15 82.85 226.15 82.85 224.95 82.85 224.95 38.5 Z"/>
    </path>
  </g>
  <defs>
    <radialGradient cx="0" cy="0" gradientTransform="matrix(0.6819, 0.0, 0.0, 0.6819, 301.2, 76.05)" gradientUnits="userSpaceOnUse" id="gradient0" r="819.2" spreadMethod="pad">
      <animateTransform additive="replace" attributeName="gradientTransform" dur="2s" from="1" repeatCount="indefinite" to="1" type="scale"/>
      <animateTransform additive="sum" attributeName="gradientTransform" dur="2s" from="301.2 76.05" repeatCount="indefinite" to="301.2 76.05" type="translate"/>
      <animateTransform additive="sum" attributeName="gradientTransform" dur="2s" from="0.0" repeatCount="indefinite" to="0.0" type="rotate"/>
      <animateTransform additive="sum" attributeName="gradientTransform" dur="2s" from="0.6819 0.6819" repeatCount="indefinite" to="0.6819 0.6819" type="scale"/>
      <animateTransform additive="sum" attributeName="gradientTransform" dur="2s" from="0.0" repeatCount="indefinite" to="0.0" type="skewX"/>
      <stop offset="0.0" stop-color="#333333">
        <animate attributeName="offset" dur="2s" repeatCount="indefinite" values="0.0;0.5215686274509804"/>
        <animate attributeName="stop-color" dur="2s" repeatCount="indefinite" values="#333333;#333334"/>
        <animate attributeName="stop-opacity" dur="2s" repeatCount="indefinite" values="1.0;1.0"/>
      </stop>
      <stop offset="0.792156862745098" stop-color="#666666">
        <animate attributeName="offset" dur="2s" repeatCount="indefinite" values="0.792156862745098;1.0"/>
        <animate attributeName="stop-color" dur="2s" repeatCount="indefinite" values="#666666;#666667"/>
        <animate attributeName="stop-opacity" dur="2s" repeatCount="indefinite" values="1.0;1.0"/>
      </stop>
    </radialGradient>
  </defs>
</svg>
