<?xml version="1.0" encoding="UTF-8" standalone="no"?>
<svg xmlns:ffdec="https://www.free-decompiler.com/flash" xmlns:xlink="http://www.w3.org/1999/xlink" ffdec:objectType="morphshape" height="43.0px" width="61.5px" xmlns="http://www.w3.org/2000/svg">
  <g transform="matrix(1.0, 0.0, 0.0, 1.0, 14.5, 28.0)">
    <path d="M0.25 5.8 L0.25 5.9 0.25 5.9 0.3 6.0 0.4 6.1 0.4 6.2 0.6 6.25 0.65 6.25 0.75 6.2 Q0.8 6.2 0.85 6.2 L1.05 6.05 1.05 6.05 1.05 6.05 1.05 6.05 1.05 6.05 1.05 6.05 1.15 6.05 1.25 6.05 1.25 6.05 1.25 6.05 1.25 6.05 1.15 5.9 1.15 5.9 1.15 5.9 1.15 5.9 1.15 5.9 1.05 5.8 0.95 5.7 0.85 5.7 0.75 5.7 0.55 5.6 0.45 5.6 0.25 5.8 0.25 5.8 M-14.5 12.7 L-14.5 12.7 -14.5 12.9 -14.5 13.05 -14.5 13.25 -14.45 13.45 -14.45 13.65 -14.3 13.8 -14.2 14.0 -14.05 14.2 -14.05 14.2 -13.85 14.4 -13.5 14.55 -13.1 14.65 -12.75 14.75 -11.95 14.7 -10.65 14.6 -10.1 14.6 -10.0 14.6 -9.9 14.6 -9.8 14.6 -9.7 14.6 -9.6 14.6 -9.5 14.6 -9.1 14.6 -8.8 14.6 -8.6 14.6 -8.4 14.55 -8.1 14.55 -8.0 14.55 -6.8 14.35 -5.95 14.15 -5.25 14.05 -5.15 14.05 -4.95 14.05 -4.55 13.95 -4.35 13.95 -4.15 13.85 -3.95 13.75 -3.75 13.75 -3.55 13.7 -3.35 13.6 -3.25 13.6 -3.05 13.55 -2.85 13.55 -2.75 13.55 -2.65 13.55 -2.55 13.55 -2.5 13.55 -2.4 13.6 -2.3 13.6 -2.2 13.6 -2.1 13.6 -2.0 13.6 -1.9 13.6 -1.8 13.6 -1.7 13.6 -1.65 13.6 -1.55 13.7 -1.55 13.7 -1.45 13.8 -1.35 13.9 -1.2 14.05 -1.1 14.15 -1.0 14.25 -0.85 14.35 -0.75 14.45 -0.45 14.65 -0.35 14.65 0.0 14.8 0.4 14.9 0.75 15.0 1.3 15.0 2.5 15.0 2.7 15.0 2.85 14.9 2.85 14.9 3.25 14.8 3.65 14.7 3.85 14.6 3.85 14.6 3.85 14.55 3.9 14.55 4.0 14.55 4.1 14.5 4.2 14.4 4.3 14.4 4.3 14.4 4.4 14.3 4.5 14.2 4.6 14.2 4.6 14.2 4.7 14.2 4.7 14.1 4.8 14.1 4.8 14.0 4.9 14.0 4.9 14.0 5.0 14.0 5.0 13.9 5.05 13.9 5.15 13.8 5.25 13.8 5.35 13.7 5.5 13.6 5.6 13.6 5.8 13.55 5.95 13.45 6.05 13.45 6.15 13.25 6.25 13.25 6.35 13.25 6.35 13.15 6.4 13.05 6.45 13.0 6.55 12.9 6.65 12.8 6.7 12.7 6.8 12.6 6.8 12.5 6.8 12.4 6.9 12.3 6.95 12.15 7.0 11.95 7.0 11.75 7.0 11.55 7.0 11.5 7.0 11.4 7.0 11.3 7.0 11.2 7.0 11.1 7.0 11.0 6.95 10.8 6.95 10.75 6.9 10.65 6.75 10.45 6.7 10.25 6.6 10.15 6.5 10.05 6.3 9.9 6.1 9.8 6.0 9.7 5.9 9.7 5.7 9.6 5.6 9.6 5.6 9.6 5.4 9.6 5.1 9.5 4.8 9.5 4.45 9.45 4.25 9.45 4.15 9.45 3.95 9.45 3.55 9.45 3.25 9.45 2.85 9.45 2.75 9.45 2.95 9.3 3.2 9.15 3.5 8.95 4.0 8.8 4.3 8.75 4.85 8.6 5.35 8.5 5.75 8.3 5.75 8.3 6.4 8.05 6.5 8.05 6.8 7.9 6.9 7.8 7.0 7.7 7.1 7.6 7.2 7.5 7.25 7.3 7.25 7.3 7.4 7.15 7.4 7.15 7.45 7.05 7.45 6.95 7.5 6.75 7.5 6.65 7.5 6.55 7.5 6.5 7.5 6.4 7.5 6.2 7.5 6.2 7.5 6.0 7.45 5.9 7.45 5.8 7.4 5.65 7.35 5.55 7.25 5.45 7.2 5.25 7.0 5.05 6.9 4.9 6.7 4.7 6.5 4.5 6.5 4.5 6.4 4.4 6.2 4.3 6.0 4.15 5.9 4.15 5.7 3.95 5.65 3.75 5.65 3.55 5.55 3.4 5.55 3.2 5.5 3.0 5.45 2.8 5.45 2.65 5.4 2.45 5.4 2.45 5.3 2.25 5.25 2.05 5.25 1.9 5.15 1.7 5.05 1.5 5.05 1.5 5.0 1.3 4.9 1.15 4.8 0.95 4.8 0.95 4.7 0.85 4.7 0.75 4.7 0.65 4.65 0.55 4.6 0.5 4.5 0.4 4.5 0.4 4.4 0.3 4.4 0.2 4.4 0.2 4.3 0.1 4.25 0.0 4.25 0.0 4.15 -0.1 4.05 -0.2 4.0 -0.25 3.9 -0.35 3.9 -0.35 3.8 -0.45 3.7 -0.55 3.6 -0.65 3.5 -0.75 3.6 -0.85 3.75 -0.95 3.95 -1.05 4.1 -1.15 4.45 -1.3 4.75 -1.5 4.75 -1.5 4.75 -1.5 4.85 -1.6 4.85 -1.6 4.9 -1.6 4.9 -1.7 4.9 -1.7 5.0 -1.75 5.0 -1.85 5.05 -2.05 5.1 -2.05 5.2 -2.25 5.2 -2.45 5.25 -2.6 5.25 -2.8 5.25 -3.0 5.2 -3.2 5.15 -3.35 5.0 -3.55 5.0 -3.65 4.95 -3.75 4.75 -3.95 4.55 -4.1 4.45 -4.2 4.25 -4.3 4.05 -4.3 3.85 -4.4 3.65 -4.5 3.5 -4.5 3.5 -4.5 3.2 -4.5 2.9 -4.5 2.7 -4.5 2.5 -4.5 2.3 -4.5 2.1 -4.5 2.0 -4.5 2.0 -4.5 1.9 -4.45 1.75 -4.45 1.65 -4.45 1.5 -4.35 1.5 -4.35 1.4 -4.35 1.4 -4.35 1.35 -4.25 1.25 -4.25 1.15 -4.25 1.05 -4.15 0.85 -4.05 0.75 -4.05 0.6 -4.0 0.3 -3.9 0.3 -3.9 -0.1 -3.7 -0.2 -3.7 -0.4 -3.7 -0.6 -3.6 -0.9 -3.7 -1.25 -3.75 -2.35 -3.85 -2.5 -4.05 -2.55 -4.25 -2.75 -4.45 -2.85 -4.5 -2.95 -4.6 -2.95 -4.6 -3.15 -4.7 -3.25 -4.8 -3.25 -4.8 -3.35 -4.8 -3.55 -4.9 -3.65 -4.9 -3.8 -4.9 -4.0 -5.0 -4.0 -5.0 -4.2 -5.0 -4.25 -5.0 -4.25 -4.95 -4.25 -4.95 -4.6 -4.95 -4.75 -4.85 -4.85 -4.85 -5.0 -4.75 -5.1 -4.75 -5.2 -4.75 -5.3 -4.65 -5.45 -4.55 -5.55 -4.45 -5.6 -4.35 -5.6 -4.25 -5.7 -4.25 -5.75 -4.2 -5.75 -4.2 -5.75 -4.1 -5.85 -4.0 -5.95 -3.9 -5.95 -3.8 -6.05 -3.7 -6.1 -3.6 -6.1 -3.5 -6.2 -3.5 -6.2 -3.45 -6.3 -3.45 -6.3 -3.35 -6.4 -3.25 -6.45 -3.25 -6.45 -3.15 -6.55 -3.15 -6.6 -3.05 -6.6 -3.05 -6.7 -2.95 -6.7 -2.95 -6.75 -2.85 -6.75 -2.85 -6.75 -2.75 -6.85 -2.75 -6.85 -2.7 -6.95 -2.7 -7.0 -2.7 -7.0 -2.7 -7.0 -2.6 -7.0 -2.6 -7.1 -2.6 -7.1 -2.5 -7.2 -2.5 -7.25 -2.5 -7.25 -2.5 -7.35 -2.3 -7.45 -2.2 -7.55 -2.1 -7.6 -2.0 -7.6 -1.95 -7.75 -1.75 -7.75 -1.65 -7.8 -1.55 -7.85 -1.35 -7.95 -1.2 -7.95 -1.0 -7.95 -1.0 -8.0 -0.8 -8.05 -0.6 -8.1 -0.45 -8.1 -0.45 -8.2 -0.35 -8.25 -0.25 -8.3 -0.15 -8.3 -0.05 -8.3 0.05 -8.35 0.15 -8.45 0.25 -8.45 0.3 -8.5 0.4 -8.5 0.5 -8.55 0.7 -8.65 0.9 -8.7 0.9 -8.75 1.05 -8.75 1.05 -8.85 1.25 -8.95 1.45 -8.95 1.45 -9.0 1.65 -9.0 1.7 -9.05 1.8 -9.1 1.9 -9.1 2.0 -9.1 2.0 -9.2 2.2 -9.25 2.3 -9.25 2.4 -9.25 2.55 -9.25 2.55 -9.25 2.75 -9.25 2.75 -9.25 2.95 -9.25 3.15 -9.25 3.3 -9.25 3.5 -9.2 3.7 -9.2 3.9 -9.05 4.05 -8.95 4.25 -8.8 4.45 -8.6 4.65 -8.25 4.8 -8.25 4.8 -7.85 4.9 -7.5 5.0 -7.5 5.0 -6.95 5.0 -6.75 5.0 -6.75 5.0 -6.6 5.0 -6.4 4.95 -6.4 4.95 -6.35 4.95 -6.15 4.85 -5.95 4.8 -5.95 4.8 -5.75 4.95 -5.75 4.95 -5.75 5.05 -5.75 5.15 -5.75 5.3 -5.75 5.4 -5.75 5.6 -5.75 5.7 -5.75 5.7 -5.75 5.85 -5.75 6.05 -5.75 6.15 -5.75 6.25 -5.75 6.25 -5.75 6.45 -5.75 6.65 -5.75 6.7 -5.75 6.8 -5.7 6.9 -5.7 7.0 -5.75 7.1 -5.75 7.2 -5.75 7.3 -5.75 7.4 -5.75 7.5 -5.75 7.6 -5.75 7.75 -5.75 7.85 -5.75 7.95 -5.75 8.15 -5.75 8.15 -5.75 8.4 -5.75 8.5 -5.75 8.7 -5.75 8.9 -5.75 9.05 -5.75 9.15 -5.75 9.35 -5.75 9.45 -5.85 9.55 -6.05 9.55 -6.25 9.6 -6.45 9.6 -6.5 9.6 -7.25 9.75 -8.05 9.85 -9.0 10.0 -10.05 10.25 -10.95 10.5 -11.75 10.7 -12.35 10.9 -12.5 10.95 -12.75 11.05 -13.05 11.25 -13.35 11.4 -13.5 11.45 -13.65 11.55 -13.75 11.55 -13.75 11.65 -13.95 11.75 -14.0 11.75 -14.1 11.85 -14.1 11.95 -14.2 12.05 -14.3 12.15 -14.35 12.3 -14.45 12.5 -14.45 12.5 -14.45 12.6 -14.5 12.7" fill="#999999" fill-rule="evenodd" stroke="none">
      <animate attributeName="fill" dur="2s" repeatCount="indefinite" values="#999999;#99999a"/>
      <animate attributeName="fill-opacity" dur="2s" repeatCount="indefinite" values="1.0;0.12941177"/>
      <animate attributeName="d" dur="2s" repeatCount="indefinite" values="M0.25 5.8 L0.25 5.9 0.25 5.9 0.3 6.0 0.4 6.1 0.4 6.2 0.6 6.25 0.65 6.25 0.75 6.2 Q0.8 6.2 0.85 6.2 L1.05 6.05 1.05 6.05 1.05 6.05 1.05 6.05 1.05 6.05 1.05 6.05 1.15 6.05 1.25 6.05 1.25 6.05 1.25 6.05 1.25 6.05 1.15 5.9 1.15 5.9 1.15 5.9 1.15 5.9 1.15 5.9 1.05 5.8 0.95 5.7 0.85 5.7 0.75 5.7 0.55 5.6 0.45 5.6 0.25 5.8 0.25 5.8 M-14.5 12.7 L-14.5 12.7 -14.5 12.9 -14.5 13.05 -14.5 13.25 -14.45 13.45 -14.45 13.65 -14.3 13.8 -14.2 14.0 -14.05 14.2 -14.05 14.2 -13.85 14.4 -13.5 14.55 -13.1 14.65 -12.75 14.75 -11.95 14.7 -10.65 14.6 -10.1 14.6 -10.0 14.6 -9.9 14.6 -9.8 14.6 -9.7 14.6 -9.6 14.6 -9.5 14.6 -9.1 14.6 -8.8 14.6 -8.6 14.6 -8.4 14.55 -8.1 14.55 -8.0 14.55 -6.8 14.35 -5.95 14.15 -5.25 14.05 -5.15 14.05 -4.95 14.05 -4.55 13.95 -4.35 13.95 -4.15 13.85 -3.95 13.75 -3.75 13.75 -3.55 13.7 -3.35 13.6 -3.25 13.6 -3.05 13.55 -2.85 13.55 -2.75 13.55 -2.65 13.55 -2.55 13.55 -2.5 13.55 -2.4 13.6 -2.3 13.6 -2.2 13.6 -2.1 13.6 -2.0 13.6 -1.9 13.6 -1.8 13.6 -1.7 13.6 -1.65 13.6 -1.55 13.7 -1.55 13.7 -1.45 13.8 -1.35 13.9 -1.2 14.05 -1.1 14.15 -1.0 14.25 -0.85 14.35 -0.75 14.45 -0.45 14.65 -0.35 14.65 0.0 14.8 0.4 14.9 0.75 15.0 1.3 15.0 2.5 15.0 2.7 15.0 2.85 14.9 2.85 14.9 3.25 14.8 3.65 14.7 3.85 14.6 3.85 14.6 3.85 14.55 3.9 14.55 4.0 14.55 4.1 14.5 4.2 14.4 4.3 14.4 4.3 14.4 4.4 14.3 4.5 14.2 4.6 14.2 4.6 14.2 4.7 14.2 4.7 14.1 4.8 14.1 4.8 14.0 4.9 14.0 4.9 14.0 5.0 14.0 5.0 13.9 5.05 13.9 5.15 13.8 5.25 13.8 5.35 13.7 5.5 13.6 5.6 13.6 5.8 13.55 5.95 13.45 6.05 13.45 6.15 13.25 6.25 13.25 6.35 13.25 6.35 13.15 6.4 13.05 6.45 13.0 6.55 12.9 6.65 12.8 6.7 12.7 6.8 12.6 6.8 12.5 6.8 12.4 6.9 12.3 6.95 12.15 7.0 11.95 7.0 11.75 7.0 11.55 7.0 11.5 7.0 11.4 7.0 11.3 7.0 11.2 7.0 11.1 7.0 11.0 6.95 10.8 6.95 10.75 6.9 10.65 6.75 10.45 6.7 10.25 6.6 10.15 6.5 10.05 6.3 9.9 6.1 9.8 6.0 9.7 5.9 9.7 5.7 9.6 5.6 9.6 5.6 9.6 5.4 9.6 5.1 9.5 4.8 9.5 4.45 9.45 4.25 9.45 4.15 9.45 3.95 9.45 3.55 9.45 3.25 9.45 2.85 9.45 2.75 9.45 2.95 9.3 3.2 9.15 3.5 8.95 4.0 8.8 4.3 8.75 4.85 8.6 5.35 8.5 5.75 8.3 5.75 8.3 6.4 8.05 6.5 8.05 6.8 7.9 6.9 7.8 7.0 7.7 7.1 7.6 7.2 7.5 7.25 7.3 7.25 7.3 7.4 7.15 7.4 7.15 7.45 7.05 7.45 6.95 7.5 6.75 7.5 6.65 7.5 6.55 7.5 6.5 7.5 6.4 7.5 6.2 7.5 6.2 7.5 6.0 7.45 5.9 7.45 5.8 7.4 5.65 7.35 5.55 7.25 5.45 7.2 5.25 7.0 5.05 6.9 4.9 6.7 4.7 6.5 4.5 6.5 4.5 6.4 4.4 6.2 4.3 6.0 4.15 5.9 4.15 5.7 3.95 5.65 3.75 5.65 3.55 5.55 3.4 5.55 3.2 5.5 3.0 5.45 2.8 5.45 2.65 5.4 2.45 5.4 2.45 5.3 2.25 5.25 2.05 5.25 1.9 5.15 1.7 5.05 1.5 5.05 1.5 5.0 1.3 4.9 1.15 4.8 0.95 4.8 0.95 4.7 0.85 4.7 0.75 4.7 0.65 4.65 0.55 4.6 0.5 4.5 0.4 4.5 0.4 4.4 0.3 4.4 0.2 4.4 0.2 4.3 0.1 4.25 0.0 4.25 0.0 4.15 -0.1 4.05 -0.2 4.0 -0.25 3.9 -0.35 3.9 -0.35 3.8 -0.45 3.7 -0.55 3.6 -0.65 3.5 -0.75 3.6 -0.85 3.75 -0.95 3.95 -1.05 4.1 -1.15 4.45 -1.3 4.75 -1.5 4.75 -1.5 4.75 -1.5 4.85 -1.6 4.85 -1.6 4.9 -1.6 4.9 -1.7 4.9 -1.7 5.0 -1.75 5.0 -1.85 5.05 -2.05 5.1 -2.05 5.2 -2.25 5.2 -2.45 5.25 -2.6 5.25 -2.8 5.25 -3.0 5.2 -3.2 5.15 -3.35 5.0 -3.55 5.0 -3.65 4.95 -3.75 4.75 -3.95 4.55 -4.1 4.45 -4.2 4.25 -4.3 4.05 -4.3 3.85 -4.4 3.65 -4.5 3.5 -4.5 3.5 -4.5 3.2 -4.5 2.9 -4.5 2.7 -4.5 2.5 -4.5 2.3 -4.5 2.1 -4.5 2.0 -4.5 2.0 -4.5 1.9 -4.45 1.75 -4.45 1.65 -4.45 1.5 -4.35 1.5 -4.35 1.4 -4.35 1.4 -4.35 1.35 -4.25 1.25 -4.25 1.15 -4.25 1.05 -4.15 0.85 -4.05 0.75 -4.05 0.6 -4.0 0.3 -3.9 0.3 -3.9 -0.1 -3.7 -0.2 -3.7 -0.4 -3.7 -0.6 -3.6 -0.9 -3.7 -1.25 -3.75 -2.35 -3.85 -2.5 -4.05 -2.55 -4.25 -2.75 -4.45 -2.85 -4.5 -2.95 -4.6 -2.95 -4.6 -3.15 -4.7 -3.25 -4.8 -3.25 -4.8 -3.35 -4.8 -3.55 -4.9 -3.65 -4.9 -3.8 -4.9 -4.0 -5.0 -4.0 -5.0 -4.2 -5.0 -4.25 -5.0 -4.25 -4.95 -4.25 -4.95 -4.6 -4.95 -4.75 -4.85 -4.85 -4.85 -5.0 -4.75 -5.1 -4.75 -5.2 -4.75 -5.3 -4.65 -5.45 -4.55 -5.55 -4.45 -5.6 -4.35 -5.6 -4.25 -5.7 -4.25 -5.75 -4.2 -5.75 -4.2 -5.75 -4.1 -5.85 -4.0 -5.95 -3.9 -5.95 -3.8 -6.05 -3.7 -6.1 -3.6 -6.1 -3.5 -6.2 -3.5 -6.2 -3.45 -6.3 -3.45 -6.3 -3.35 -6.4 -3.25 -6.45 -3.25 -6.45 -3.15 -6.55 -3.15 -6.6 -3.05 -6.6 -3.05 -6.7 -2.95 -6.7 -2.95 -6.75 -2.85 -6.75 -2.85 -6.75 -2.75 -6.85 -2.75 -6.85 -2.7 -6.95 -2.7 -7.0 -2.7 -7.0 -2.7 -7.0 -2.6 -7.0 -2.6 -7.1 -2.6 -7.1 -2.5 -7.2 -2.5 -7.25 -2.5 -7.25 -2.5 -7.35 -2.3 -7.45 -2.2 -7.55 -2.1 -7.6 -2.0 -7.6 -1.95 -7.75 -1.75 -7.75 -1.65 -7.8 -1.55 -7.85 -1.35 -7.95 -1.2 -7.95 -1.0 -7.95 -1.0 -8.0 -0.8 -8.05 -0.6 -8.1 -0.45 -8.1 -0.45 -8.2 -0.35 -8.25 -0.25 -8.3 -0.15 -8.3 -0.05 -8.3 0.05 -8.35 0.15 -8.45 0.25 -8.45 0.3 -8.5 0.4 -8.5 0.5 -8.55 0.7 -8.65 0.9 -8.7 0.9 -8.75 1.05 -8.75 1.05 -8.85 1.25 -8.95 1.45 -8.95 1.45 -9.0 1.65 -9.0 1.7 -9.05 1.8 -9.1 1.9 -9.1 2.0 -9.1 2.0 -9.2 2.2 -9.25 2.3 -9.25 2.4 -9.25 2.55 -9.25 2.55 -9.25 2.75 -9.25 2.75 -9.25 2.95 -9.25 3.15 -9.25 3.3 -9.25 3.5 -9.2 3.7 -9.2 3.9 -9.05 4.05 -8.95 4.25 -8.8 4.45 -8.6 4.65 -8.25 4.8 -8.25 4.8 -7.85 4.9 -7.5 5.0 -7.5 5.0 -6.95 5.0 -6.75 5.0 -6.75 5.0 -6.6 5.0 -6.4 4.95 -6.4 4.95 -6.35 4.95 -6.15 4.85 -5.95 4.8 -5.95 4.8 -5.75 4.95 -5.75 4.95 -5.75 5.05 -5.75 5.15 -5.75 5.3 -5.75 5.4 -5.75 5.6 -5.75 5.7 -5.75 5.7 -5.75 5.85 -5.75 6.05 -5.75 6.15 -5.75 6.25 -5.75 6.25 -5.75 6.45 -5.75 6.65 -5.75 6.7 -5.75 6.8 -5.7 6.9 -5.7 7.0 -5.75 7.1 -5.75 7.2 -5.75 7.3 -5.75 7.4 -5.75 7.5 -5.75 7.6 -5.75 7.75 -5.75 7.85 -5.75 7.95 -5.75 8.15 -5.75 8.15 -5.75 8.4 -5.75 8.5 -5.75 8.7 -5.75 8.9 -5.75 9.05 -5.75 9.15 -5.75 9.35 -5.75 9.45 -5.85 9.55 -6.05 9.55 -6.25 9.6 -6.45 9.6 -6.5 9.6 -7.25 9.75 -8.05 9.85 -9.0 10.0 -10.05 10.25 -10.95 10.5 -11.75 10.7 -12.35 10.9 -12.5 10.95 -12.75 11.05 -13.05 11.25 -13.35 11.4 -13.5 11.45 -13.65 11.55 -13.75 11.55 -13.75 11.65 -13.95 11.75 -14.0 11.75 -14.1 11.85 -14.1 11.95 -14.2 12.05 -14.3 12.15 -14.35 12.3 -14.45 12.5 -14.45 12.5 -14.45 12.6 -14.5 12.7;M9.35 -21.05 L9.35 -21.05 9.4 -21.0 10.1 -20.4 10.5 -20.1 10.9 -19.8 11.7 -19.15 12.3 -18.65 12.7 -18.35 Q12.95 -18.2 13.25 -18.0 L13.45 -17.8 13.55 -17.6 13.7 -17.45 13.8 -17.45 13.95 -17.6 14.05 -17.8 14.25 -18.0 14.45 -18.2 14.65 -18.35 14.75 -18.5 14.6 -18.55 14.25 -18.7 13.9 -18.85 13.7 -19.05 13.55 -19.25 13.45 -19.45 13.3 -19.6 13.3 -19.8 13.25 -20.0 13.05 -20.1 12.2 -20.35 11.5 -20.55 9.7 -21.05 9.35 -21.05 M2.75 -23.5 L3.3 -21.7 3.55 -21.45 3.85 -21.15 4.15 -20.85 4.35 -20.65 4.55 -20.45 4.75 -20.25 4.95 -20.05 5.15 -19.95 5.15 -19.95 5.45 -19.65 6.05 -19.1 6.55 -18.7 7.05 -18.3 8.05 -17.5 9.7 -16.2 10.7 -15.45 10.8 -15.25 10.9 -15.05 10.95 -14.85 11.05 -14.7 11.15 -14.5 11.25 -14.3 10.75 -13.95 10.3 -13.65 10.2 -13.55 9.9 -13.35 9.55 -13.2 9.45 -13.1 7.4 -12.7 5.9 -12.4 4.65 -12.1 4.5 -12.05 4.25 -11.95 4.0 -11.75 3.8 -11.55 3.65 -11.35 3.5 -11.2 3.4 -11.0 3.3 -10.8 3.2 -10.6 3.15 -10.45 3.05 -10.25 3.0 -10.05 3.0 -9.85 3.0 -9.7 3.0 -9.5 3.0 -9.4 3.0 -9.3 3.0 -9.1 3.0 -8.95 3.0 -8.75 3.05 -8.55 3.05 -8.35 3.2 -8.2 3.3 -8.0 3.4 -7.9 3.45 -7.8 3.55 -7.7 3.65 -7.6 3.85 -7.45 4.05 -7.25 4.15 -7.25 4.4 -7.15 4.5 -7.05 4.7 -6.95 5.05 -6.7 5.15 -6.6 5.85 -6.3 6.5 -6.0 7.2 -5.75 8.0 -5.5 10.1 -4.95 10.4 -4.85 10.65 -4.75 10.75 -4.75 11.75 -4.75 12.55 -4.75 12.95 -4.75 13.0 -4.6 12.95 -4.45 12.9 -4.25 12.8 -4.15 12.8 -4.05 12.7 -3.85 12.65 -3.7 12.65 -3.7 12.55 -3.5 12.5 -3.3 12.5 -3.1 12.5 -3.0 12.5 -2.95 12.5 -2.75 12.55 -2.55 12.55 -2.35 12.7 -2.2 12.8 -2.1 12.8 -2.0 12.95 -1.8 13.15 -1.6 13.5 -1.45 13.7 -1.4 13.9 -1.35 14.25 -1.25 14.5 -1.25 14.85 -1.35 15.15 -1.4 15.25 -1.45 15.55 -1.65 15.65 -1.7 15.8 -1.8 16.0 -1.8 16.3 -1.7 16.4 -1.65 16.75 -1.55 16.95 -1.45 17.2 -1.35 17.4 -1.3 17.65 -1.25 17.75 -1.25 18.15 -1.25 18.45 -1.25 18.95 -1.25 19.25 -1.25 19.55 -1.3 19.65 -1.3 19.65 -1.3 19.85 -1.4 19.9 -1.4 20.0 -1.45 20.1 -1.45 20.4 -1.5 20.5 -1.5 20.55 -1.5 20.85 -1.6 21.05 -1.65 21.25 -1.7 21.25 -1.7 21.55 -1.85 21.75 -2.05 21.85 -2.15 21.95 -2.25 22.0 -2.45 22.1 -2.5 22.15 -2.6 22.3 -2.8 22.5 -3.0 22.7 -3.2 23.15 -3.3 23.4 -3.35 23.5 -3.45 23.75 -3.55 24.15 -3.75 24.5 -3.95 25.25 -3.95 25.55 -3.95 26.25 -4.0 26.95 -4.0 27.75 -4.0 28.75 -4.0 29.15 -4.05 30.15 -4.25 30.85 -4.4 31.7 -4.7 31.8 -4.7 32.95 -5.05 33.15 -5.15 33.8 -5.35 34.0 -5.45 34.35 -5.65 34.65 -5.8 34.95 -6.0 35.25 -6.2 35.25 -6.2 35.55 -6.4 35.6 -6.4 35.8 -6.55 35.8 -6.55 36.1 -6.85 36.2 -6.95 36.3 -7.05 36.4 -7.1 36.4 -7.1 36.6 -7.3 36.7 -7.3 36.9 -7.4 37.0 -7.5 37.0 -7.5 37.1 -7.6 37.15 -7.7 37.55 -7.85 37.85 -7.9 38.15 -7.9 38.25 -7.9 38.55 -7.9 38.9 -7.9 39.0 -7.9 39.15 -7.85 39.4 -7.8 39.75 -7.75 40.25 -7.75 40.55 -7.75 40.85 -7.75 41.15 -7.75 41.25 -7.75 41.55 -7.75 41.85 -7.75 42.15 -7.75 42.25 -7.75 42.5 -7.85 42.6 -7.85 42.8 -7.85 43.0 -7.95 43.1 -8.05 43.3 -8.15 43.5 -8.25 43.55 -8.3 43.65 -8.4 43.75 -8.5 43.9 -8.6 43.9 -8.7 44.0 -8.85 44.0 -8.85 44.05 -9.05 44.2 -9.15 44.2 -9.25 44.2 -9.35 44.2 -9.45 44.25 -9.6 44.25 -9.7 44.25 -9.8 44.25 -10.0 44.25 -10.0 44.2 -10.2 44.15 -10.35 44.1 -10.45 44.0 -10.55 44.0 -10.65 43.95 -10.75 43.75 -10.95 43.75 -10.95 43.55 -11.1 43.45 -11.2 43.25 -11.3 42.85 -11.4 42.5 -11.5 42.1 -11.5 41.25 -11.6 40.55 -11.6 40.45 -11.75 40.45 -11.75 40.4 -11.95 40.25 -12.1 40.2 -12.3 40.05 -12.5 40.05 -12.5 40.0 -12.7 40.15 -12.7 40.45 -12.8 40.55 -12.8 41.35 -12.9 41.65 -12.9 41.95 -13.0 42.25 -13.0 42.55 -13.1 42.85 -13.1 43.0 -13.1 43.3 -13.15 43.4 -13.15 43.7 -13.15 44.0 -13.25 44.3 -13.35 44.5 -13.45 44.95 -13.6 45.25 -13.7 45.6 -13.8 46.0 -13.95 46.2 -14.05 46.3 -14.1 46.5 -14.3 46.7 -14.5 46.75 -14.7 46.9 -14.85 46.95 -15.05 47.0 -15.25 47.0 -15.45 47.0 -15.6 47.0 -15.8 47.0 -16.0 47.0 -16.0 46.95 -16.2 46.9 -16.35 46.75 -16.55 46.75 -16.55 46.7 -16.75 46.5 -16.95 46.3 -17.1 46.0 -17.3 45.6 -17.4 45.5 -17.4 45.25 -17.5 44.55 -17.55 44.55 -17.55 43.8 -17.75 43.6 -17.75 43.2 -17.85 42.9 -17.9 42.4 -18.0 41.7 -18.05 39.8 -18.1 39.4 -18.1 39.0 -18.1 38.6 -18.1 38.4 -18.1 38.5 -18.2 38.5 -18.3 38.7 -18.5 38.8 -18.6 38.8 -18.7 38.95 -18.85 39.05 -19.05 39.05 -19.05 39.25 -19.25 39.45 -19.35 39.45 -19.45 39.65 -19.6 39.75 -19.6 39.75 -19.7 39.75 -19.8 39.95 -20.0 40.05 -20.2 40.2 -20.35 40.3 -20.55 40.4 -20.65 40.45 -20.75 40.5 -20.95 40.65 -21.1 40.7 -21.3 40.75 -21.4 40.75 -21.5 40.8 -21.7 40.9 -21.85 40.9 -21.85 40.9 -22.05 40.95 -22.25 41.05 -22.45 41.15 -22.6 41.2 -22.8 41.25 -22.9 41.25 -23.0 41.3 -23.2 41.4 -23.35 41.45 -23.45 41.45 -23.55 41.5 -23.75 41.5 -23.95 41.5 -24.1 41.5 -24.3 41.5 -24.5 41.5 -24.5 41.5 -24.7 41.45 -24.85 41.4 -25.05 41.4 -25.15 41.3 -25.25 41.2 -25.45 41.05 -25.6 40.95 -25.8 40.75 -26.0 40.65 -26.1 40.55 -26.2 40.45 -26.35 40.3 -26.55 40.2 -26.75 40.05 -26.95 39.9 -27.05 39.8 -27.1 39.5 -27.3 39.1 -27.4 38.9 -27.5 38.75 -27.5 38.55 -27.5 38.0 -27.6 37.9 -27.6 37.7 -27.7 37.3 -27.8 36.85 -27.95 36.6 -28.0 36.5 -28.0 36.2 -28.0 35.8 -28.0 35.5 -28.0 35.5 -27.95 35.15 -27.95 35.05 -27.85 34.9 -27.85 34.75 -27.75 34.65 -27.75 34.45 -27.65 34.25 -27.55 34.15 -27.45 33.9 -27.35 33.8 -27.3 33.6 -27.2 33.3 -27.0 33.2 -26.9 32.8 -26.8 32.7 -26.8 32.4 -26.6 32.1 -26.45 32.0 -26.45 31.8 -26.25 31.75 -26.25 31.65 -26.15 31.55 -26.05 31.45 -25.95 31.45 -25.85 31.3 -25.7 31.2 -25.5 31.1 -25.4 31.0 -25.3 31.0 -25.3 30.9 -25.1 30.9 -25.1 30.7 -24.95 30.7 -24.95 30.5 -24.75 30.3 -24.55 29.95 -24.25 29.6 -24.0 29.3 -23.8 29.1 -23.7 28.85 -23.5 28.45 -23.25 27.95 -22.85 27.9 -22.8 27.5 -22.5 27.15 -22.1 27.15 -22.1 26.75 -21.75 26.45 -21.7 26.35 -21.7 26.25 -21.75 25.95 -21.85 25.85 -21.95 25.7 -22.05 25.35 -22.25 24.95 -22.45 24.95 -22.45 24.65 -22.6 24.65 -22.6 24.45 -22.8 24.25 -23.0 24.05 -23.1 23.95 -23.2 23.65 -23.35 23.45 -23.55 23.45 -23.55 23.25 -23.75 23.1 -23.85 23.0 -23.95 22.8 -24.1 22.8 -24.1 22.5 -24.3 22.2 -24.4 22.1 -24.4 21.9 -24.5 21.75 -24.5 21.65 -24.5 21.25 -24.5 21.1 -24.45 20.9 -24.45 20.8 -24.35 20.65 -24.35 20.5 -24.3 20.3 -24.2 20.25 -24.2 20.15 -24.1 20.0 -24.0 20.0 -24.0 19.75 -23.8 19.6 -23.7 19.4 -23.6 19.2 -23.45 19.1 -23.25 19.05 -23.25 18.95 -23.05 18.85 -22.95 18.8 -22.85 18.7 -22.7 18.5 -22.5 18.15 -22.45 18.15 -22.45 16.7 -22.75 15.2 -23.2 13.7 -23.6 12.0 -24.0 10.45 -24.35 9.1 -24.6 8.3 -24.7 7.9 -24.75 7.2 -24.8 6.3 -24.9 5.4 -25.0 5.0 -25.0 4.5 -25.0 4.3 -24.9 4.15 -24.9 3.75 -24.8 3.65 -24.7 3.4 -24.6 3.3 -24.55 3.2 -24.45 3.05 -24.25 2.95 -24.05 2.8 -23.85 2.8 -23.8 2.8 -23.7 2.75 -23.5"/>
    </path>
    <path d="M-14.5 12.7 L-14.45 12.6 -14.45 12.5 -14.45 12.5 -14.35 12.3 -14.3 12.15 -14.2 12.05 -14.1 11.95 -14.1 11.85 -14.0 11.75 -13.95 11.75 -13.75 11.65 -13.75 11.55 -13.65 11.55 -13.5 11.45 -13.35 11.4 -13.05 11.25 -12.75 11.05 -12.5 10.95 -12.35 10.9 -11.75 10.7 -10.95 10.5 -10.05 10.25 -9.0 10.0 -8.05 9.85 -7.25 9.75 -6.5 9.6 -6.45 9.6 -6.25 9.6 -6.05 9.55 -5.85 9.55 -5.75 9.45 -5.75 9.35 -5.75 9.15 -5.75 9.05 -5.75 8.9 -5.75 8.7 -5.75 8.5 -5.75 8.4 -5.75 8.15 -5.75 8.15 -5.75 7.95 -5.75 7.85 -5.75 7.75 -5.75 7.6 -5.75 7.5 -5.75 7.4 -5.75 7.3 -5.75 7.2 -5.75 7.1 -5.7 7.0 -5.7 6.9 -5.75 6.8 -5.75 6.7 -5.75 6.65 -5.75 6.45 -5.75 6.25 -5.75 6.25 -5.75 6.15 -5.75 6.05 -5.75 5.85 -5.75 5.7 -5.75 5.7 -5.75 5.6 -5.75 5.4 -5.75 5.3 -5.75 5.15 -5.75 5.05 -5.75 4.95 -5.75 4.95 -5.95 4.8 -5.95 4.8 -6.15 4.85 -6.35 4.95 -6.4 4.95 -6.4 4.95 -6.6 5.0 -6.75 5.0 -6.75 5.0 -6.95 5.0 -7.5 5.0 -7.5 5.0 -7.85 4.9 -8.25 4.8 -8.25 4.8 -8.6 4.65 -8.8 4.45 -8.95 4.25 -9.05 4.05 -9.2 3.9 -9.2 3.7 -9.25 3.5 -9.25 3.3 -9.25 3.15 -9.25 2.95 -9.25 2.75 -9.25 2.75 -9.25 2.55 -9.25 2.55 -9.25 2.4 -9.25 2.3 -9.2 2.2 -9.1 2.0 -9.1 2.0 -9.1 1.9 -9.05 1.8 -9.0 1.7 -9.0 1.65 -8.95 1.45 -8.95 1.45 -8.85 1.25 -8.75 1.05 -8.75 1.05 -8.7 0.9 -8.65 0.9 -8.55 0.7 -8.5 0.5 -8.5 0.4 -8.45 0.3 -8.45 0.25 -8.35 0.15 -8.3 0.05 -8.3 -0.05 -8.3 -0.15 -8.25 -0.25 -8.2 -0.35 -8.1 -0.45 -8.1 -0.45 -8.05 -0.6 -8.0 -0.8 -7.95 -1.0 -7.95 -1.0 -7.95 -1.2 -7.85 -1.35 -7.8 -1.55 -7.75 -1.65 -7.75 -1.75 -7.6 -1.95 -7.6 -2.0 -7.55 -2.1 -7.45 -2.2 -7.35 -2.3 -7.25 -2.5 -7.25 -2.5 -7.2 -2.5 -7.1 -2.5 -7.1 -2.6 -7.0 -2.6 -7.0 -2.6 -7.0 -2.7 -7.0 -2.7 -6.95 -2.7 -6.85 -2.7 -6.85 -2.75 -6.75 -2.75 -6.75 -2.85 -6.75 -2.85 -6.7 -2.95 -6.7 -2.95 -6.6 -3.05 -6.6 -3.05 -6.55 -3.15 -6.45 -3.15 -6.45 -3.25 -6.4 -3.25 -6.3 -3.35 -6.3 -3.45 -6.2 -3.45 -6.2 -3.5 -6.1 -3.5 -6.1 -3.6 -6.05 -3.7 -5.95 -3.8 -5.95 -3.9 -5.85 -4.0 -5.75 -4.1 -5.75 -4.2 -5.75 -4.2 -5.7 -4.25 -5.6 -4.25 -5.6 -4.35 -5.55 -4.45 -5.45 -4.55 -5.3 -4.65 -5.2 -4.75 -5.1 -4.75 -5.0 -4.75 -4.85 -4.85 -4.75 -4.85 -4.6 -4.95 -4.25 -4.95 -4.25 -4.95 -4.25 -5.0 -4.2 -5.0 -4.0 -5.0 -4.0 -5.0 -3.8 -4.9 -3.65 -4.9 -3.55 -4.9 -3.35 -4.8 -3.25 -4.8 -3.25 -4.8 -3.15 -4.7 -2.95 -4.6 -2.95 -4.6 -2.85 -4.5 -2.75 -4.45 -2.55 -4.25 -2.5 -4.05 -2.35 -3.85 -1.25 -3.75 -0.9 -3.7 -0.6 -3.6 -0.4 -3.7 -0.2 -3.7 -0.1 -3.7 0.3 -3.9 0.3 -3.9 0.6 -4.0 0.75 -4.05 0.85 -4.05 1.05 -4.15 1.15 -4.25 1.25 -4.25 1.35 -4.25 1.4 -4.35 1.4 -4.35 1.5 -4.35 1.5 -4.35 1.65 -4.45 1.75 -4.45 1.9 -4.45 2.0 -4.5 2.0 -4.5 2.1 -4.5 2.3 -4.5 2.5 -4.5 2.7 -4.5 2.9 -4.5 3.2 -4.5 3.5 -4.5 3.5 -4.5 3.65 -4.5 3.85 -4.4 4.05 -4.3 4.25 -4.3 4.45 -4.2 4.55 -4.1 4.75 -3.95 4.95 -3.75 5.0 -3.65 5.0 -3.55 5.15 -3.35 5.2 -3.2 5.25 -3.0 5.25 -2.8 5.25 -2.6 5.2 -2.45 5.2 -2.25 5.1 -2.05 5.05 -2.05 5.0 -1.85 5.0 -1.75 4.9 -1.7 4.9 -1.7 4.9 -1.6 4.85 -1.6 4.85 -1.6 4.75 -1.5 4.75 -1.5 4.75 -1.5 4.45 -1.3 4.1 -1.15 3.95 -1.05 3.75 -0.95 3.6 -0.85 3.5 -0.75 3.6 -0.65 3.7 -0.55 3.8 -0.45 3.9 -0.35 3.9 -0.35 4.0 -0.25 4.05 -0.2 4.15 -0.1 4.25 0.0 4.25 0.0 4.3 0.1 4.4 0.2 4.4 0.2 4.4 0.3 4.5 0.4 4.5 0.4 4.6 0.5 4.65 0.55 4.7 0.65 4.7 0.75 4.7 0.85 4.8 0.95 4.8 0.95 4.9 1.15 5.0 1.3 5.05 1.5 5.05 1.5 5.15 1.7 5.25 1.9 5.25 2.05 5.3 2.25 5.4 2.45 5.4 2.45 5.45 2.65 5.45 2.8 5.5 3.0 5.55 3.2 5.55 3.4 5.65 3.55 5.65 3.75 5.7 3.95 5.9 4.15 6.0 4.15 6.2 4.3 6.4 4.4 6.5 4.5 6.5 4.5 6.7 4.7 6.9 4.9 7.0 5.05 7.2 5.25 7.25 5.45 7.35 5.55 7.4 5.65 7.45 5.8 7.45 5.9 7.5 6.0 7.5 6.2 7.5 6.2 7.5 6.4 7.5 6.5 7.5 6.55 7.5 6.65 7.5 6.75 7.45 6.95 7.45 7.05 7.4 7.15 7.4 7.15 7.25 7.3 7.25 7.3 7.2 7.5 7.1 7.6 7.0 7.7 6.9 7.8 6.8 7.9 6.5 8.05 6.4 8.05 5.75 8.3 5.75 8.3 5.35 8.5 4.85 8.6 4.3 8.75 4.0 8.8 3.5 8.95 3.2 9.15 2.95 9.3 2.75 9.45 2.85 9.45 3.25 9.45 3.55 9.45 3.95 9.45 4.15 9.45 4.25 9.45 4.45 9.45 4.8 9.5 5.1 9.5 5.4 9.6 5.6 9.6 5.6 9.6 5.7 9.6 5.9 9.7 6.0 9.7 6.1 9.8 6.3 9.9 6.5 10.05 6.6 10.15 6.7 10.25 6.75 10.45 6.9 10.65 6.95 10.75 6.95 10.8 7.0 11.0 7.0 11.1 7.0 11.2 7.0 11.3 7.0 11.4 7.0 11.5 7.0 11.55 7.0 11.75 7.0 11.95 6.95 12.15 6.9 12.3 6.8 12.4 6.8 12.5 6.8 12.6 6.7 12.7 6.65 12.8 6.55 12.9 6.45 13.0 6.4 13.05 6.35 13.15 6.35 13.25 6.25 13.25 6.15 13.25 6.05 13.45 5.95 13.45 5.8 13.55 5.6 13.6 5.5 13.6 5.35 13.7 5.25 13.8 5.15 13.8 5.05 13.9 5.0 13.9 5.0 14.0 4.9 14.0 4.9 14.0 4.8 14.0 4.8 14.1 4.7 14.1 4.7 14.2 4.6 14.2 4.6 14.2 4.5 14.2 4.4 14.3 4.3 14.4 4.3 14.4 4.2 14.4 4.1 14.5 4.0 14.55 3.9 14.55 3.85 14.55 3.85 14.6 3.85 14.6 3.65 14.7 3.25 14.8 2.85 14.9 2.85 14.9 2.7 15.0 2.5 15.0 1.3 15.0 0.75 15.0 0.4 14.9 0.0 14.8 -0.35 14.65 -0.45 14.65 -0.75 14.45 -0.85 14.35 -1.0 14.25 -1.1 14.15 -1.2 14.05 -1.35 13.9 -1.45 13.8 -1.55 13.7 -1.55 13.7 -1.65 13.6 -1.7 13.6 -1.8 13.6 -1.9 13.6 -2.0 13.6 -2.1 13.6 -2.2 13.6 -2.3 13.6 -2.4 13.6 -2.5 13.55 -2.55 13.55 -2.65 13.55 -2.75 13.55 -2.85 13.55 -3.05 13.55 -3.25 13.6 -3.35 13.6 -3.55 13.7 -3.75 13.75 -3.95 13.75 -4.15 13.85 -4.35 13.95 -4.55 13.95 -4.95 14.05 -5.15 14.05 -5.25 14.05 -5.95 14.15 -6.8 14.35 -8.0 14.55 -8.1 14.55 -8.4 14.55 -8.6 14.6 -8.8 14.6 -9.1 14.6 -9.5 14.6 -9.6 14.6 -9.7 14.6 -9.8 14.6 -9.9 14.6 -10.0 14.6 -10.1 14.6 -10.65 14.6 -11.95 14.7 -12.75 14.75 -13.1 14.65 -13.5 14.55 -13.85 14.4 -14.05 14.2 -14.05 14.2 -14.2 14.0 -14.3 13.8 -14.45 13.65 -14.45 13.45 -14.5 13.25 -14.5 13.05 -14.5 12.9 -14.5 12.7 -14.5 12.7 M0.25 5.8 L0.25 5.8 0.45 5.6 0.55 5.6 0.75 5.7 0.85 5.7 0.95 5.7 1.05 5.8 1.15 5.9 1.15 5.9 1.15 5.9 1.15 5.9 1.15 5.9 1.25 6.05 1.25 6.05 1.25 6.05 1.25 6.05 1.15 6.05 1.05 6.05 1.05 6.05 1.05 6.05 1.05 6.05 1.05 6.05 1.05 6.05 0.85 6.2 Q0.8 6.2 0.75 6.2 L0.65 6.25 0.6 6.25 0.4 6.2 0.4 6.1 0.3 6.0 0.25 5.9 0.25 5.9 0.25 5.8 0.4 5.65 0.65 5.7 0.75 5.7 0.95 5.7 1.05 5.8 1.15 5.9 1.15 5.9 1.15 5.9 1.15 5.9 1.15 5.9 1.25 6.0 1.25 6.05 1.25 6.05 1.25 6.05 1.25 6.05 1.25 6.05 1.25 6.05 1.25 6.05 1.25 6.05 1.25 6.05 1.15 6.1 0.85 6.2 0.75 6.2 0.75 6.2 0.75 6.2 0.65 6.25 0.65 6.25 0.65 6.25 0.65 6.25 0.65 6.25 0.65 6.25 0.65 6.25 0.4 6.2 0.4 6.2 0.4 6.2 0.4 6.2 0.3 6.0 0.3 6.0 0.3 6.0 0.3 6.0 0.25 5.8 0.25 5.8 Q0.3 5.75 0.4 5.65 L0.75 5.7 Q0.7 5.95 0.65 6.25 L0.4 6.2 0.25 5.8 0.3 5.75 0.45 5.6 0.45 5.6 0.55 5.6 0.65 5.6 0.75 5.7 0.75 5.7 0.85 5.7 0.95 5.8 1.05 5.8 1.15 5.9 1.15 5.9 1.15 5.9 1.25 6.0 1.25 6.05 1.25 6.05 1.25 6.05 1.25 6.05 1.25 6.05 1.25 6.05 1.25 6.05 1.25 6.05 1.25 6.05 1.25 6.05 1.25 6.05 1.25 6.05 0.85 6.2 0.85 6.2 0.85 6.2 0.85 6.2 0.65 6.25 0.65 6.25 0.6 6.25 0.5 6.25 0.4 6.2 0.4 6.2 0.4 6.2 0.4 6.1 0.3 6.0 0.3 6.0 0.3 6.0 0.3 6.0 0.25 5.8 0.25 5.8 0.4 5.65 1.25 6.05 0.65 6.25 0.4 6.2 0.3 6.0 0.3 6.0 0.25 5.8 Z" fill="none" stroke="#000000" stroke-linecap="round" stroke-linejoin="round" stroke-opacity="0.0" stroke-width="0.0">
      <animate attributeName="stroke" dur="2s" repeatCount="indefinite" values="#000000;#000001"/>
      <animate attributeName="stroke-width" dur="2s" repeatCount="indefinite" values="0.0;0.0"/>
      <animate attributeName="fill-opacity" dur="2s" repeatCount="indefinite" values="0.0;0.0"/>
      <animate attributeName="d" dur="2s" repeatCount="indefinite" values="M-14.5 12.7 L-14.45 12.6 -14.45 12.5 -14.45 12.5 -14.35 12.3 -14.3 12.15 -14.2 12.05 -14.1 11.95 -14.1 11.85 -14.0 11.75 -13.95 11.75 -13.75 11.65 -13.75 11.55 -13.65 11.55 -13.5 11.45 -13.35 11.4 -13.05 11.25 -12.75 11.05 -12.5 10.95 -12.35 10.9 -11.75 10.7 -10.95 10.5 -10.05 10.25 -9.0 10.0 -8.05 9.85 -7.25 9.75 -6.5 9.6 -6.45 9.6 -6.25 9.6 -6.05 9.55 -5.85 9.55 -5.75 9.45 -5.75 9.35 -5.75 9.15 -5.75 9.05 -5.75 8.9 -5.75 8.7 -5.75 8.5 -5.75 8.4 -5.75 8.15 -5.75 8.15 -5.75 7.95 -5.75 7.85 -5.75 7.75 -5.75 7.6 -5.75 7.5 -5.75 7.4 -5.75 7.3 -5.75 7.2 -5.75 7.1 -5.7 7.0 -5.7 6.9 -5.75 6.8 -5.75 6.7 -5.75 6.65 -5.75 6.45 -5.75 6.25 -5.75 6.25 -5.75 6.15 -5.75 6.05 -5.75 5.85 -5.75 5.7 -5.75 5.7 -5.75 5.6 -5.75 5.4 -5.75 5.3 -5.75 5.15 -5.75 5.05 -5.75 4.95 -5.75 4.95 -5.95 4.8 -5.95 4.8 -6.15 4.85 -6.35 4.95 -6.4 4.95 -6.4 4.95 -6.6 5.0 -6.75 5.0 -6.75 5.0 -6.95 5.0 -7.5 5.0 -7.5 5.0 -7.85 4.9 -8.25 4.8 -8.25 4.8 -8.6 4.65 -8.8 4.45 -8.95 4.25 -9.05 4.05 -9.2 3.9 -9.2 3.7 -9.25 3.5 -9.25 3.3 -9.25 3.15 -9.25 2.95 -9.25 2.75 -9.25 2.75 -9.25 2.55 -9.25 2.55 -9.25 2.4 -9.25 2.3 -9.2 2.2 -9.1 2.0 -9.1 2.0 -9.1 1.9 -9.05 1.8 -9.0 1.7 -9.0 1.65 -8.95 1.45 -8.95 1.45 -8.85 1.25 -8.75 1.05 -8.75 1.05 -8.7 0.9 -8.65 0.9 -8.55 0.7 -8.5 0.5 -8.5 0.4 -8.45 0.3 -8.45 0.25 -8.35 0.15 -8.3 0.05 -8.3 -0.05 -8.3 -0.15 -8.25 -0.25 -8.2 -0.35 -8.1 -0.45 -8.1 -0.45 -8.05 -0.6 -8.0 -0.8 -7.95 -1.0 -7.95 -1.0 -7.95 -1.2 -7.85 -1.35 -7.8 -1.55 -7.75 -1.65 -7.75 -1.75 -7.6 -1.95 -7.6 -2.0 -7.55 -2.1 -7.45 -2.2 -7.35 -2.3 -7.25 -2.5 -7.25 -2.5 -7.2 -2.5 -7.1 -2.5 -7.1 -2.6 -7.0 -2.6 -7.0 -2.6 -7.0 -2.7 -7.0 -2.7 -6.95 -2.7 -6.85 -2.7 -6.85 -2.75 -6.75 -2.75 -6.75 -2.85 -6.75 -2.85 -6.7 -2.95 -6.7 -2.95 -6.6 -3.05 -6.6 -3.05 -6.55 -3.15 -6.45 -3.15 -6.45 -3.25 -6.4 -3.25 -6.3 -3.35 -6.3 -3.45 -6.2 -3.45 -6.2 -3.5 -6.1 -3.5 -6.1 -3.6 -6.05 -3.7 -5.95 -3.8 -5.95 -3.9 -5.85 -4.0 -5.75 -4.1 -5.75 -4.2 -5.75 -4.2 -5.7 -4.25 -5.6 -4.25 -5.6 -4.35 -5.55 -4.45 -5.45 -4.55 -5.3 -4.65 -5.2 -4.75 -5.1 -4.75 -5.0 -4.75 -4.85 -4.85 -4.75 -4.85 -4.6 -4.95 -4.25 -4.95 -4.25 -4.95 -4.25 -5.0 -4.2 -5.0 -4.0 -5.0 -4.0 -5.0 -3.8 -4.9 -3.65 -4.9 -3.55 -4.9 -3.35 -4.8 -3.25 -4.8 -3.25 -4.8 -3.15 -4.7 -2.95 -4.6 -2.95 -4.6 -2.85 -4.5 -2.75 -4.45 -2.55 -4.25 -2.5 -4.05 -2.35 -3.85 -1.25 -3.75 -0.9 -3.7 -0.6 -3.6 -0.4 -3.7 -0.2 -3.7 -0.1 -3.7 0.3 -3.9 0.3 -3.9 0.6 -4.0 0.75 -4.05 0.85 -4.05 1.05 -4.15 1.15 -4.25 1.25 -4.25 1.35 -4.25 1.4 -4.35 1.4 -4.35 1.5 -4.35 1.5 -4.35 1.65 -4.45 1.75 -4.45 1.9 -4.45 2.0 -4.5 2.0 -4.5 2.1 -4.5 2.3 -4.5 2.5 -4.5 2.7 -4.5 2.9 -4.5 3.2 -4.5 3.5 -4.5 3.5 -4.5 3.65 -4.5 3.85 -4.4 4.05 -4.3 4.25 -4.3 4.45 -4.2 4.55 -4.1 4.75 -3.95 4.95 -3.75 5.0 -3.65 5.0 -3.55 5.15 -3.35 5.2 -3.2 5.25 -3.0 5.25 -2.8 5.25 -2.6 5.2 -2.45 5.2 -2.25 5.1 -2.05 5.05 -2.05 5.0 -1.85 5.0 -1.75 4.9 -1.7 4.9 -1.7 4.9 -1.6 4.85 -1.6 4.85 -1.6 4.75 -1.5 4.75 -1.5 4.75 -1.5 4.45 -1.3 4.1 -1.15 3.95 -1.05 3.75 -0.95 3.6 -0.85 3.5 -0.75 3.6 -0.65 3.7 -0.55 3.8 -0.45 3.9 -0.35 3.9 -0.35 4.0 -0.25 4.05 -0.2 4.15 -0.1 4.25 0.0 4.25 0.0 4.3 0.1 4.4 0.2 4.4 0.2 4.4 0.3 4.5 0.4 4.5 0.4 4.6 0.5 4.65 0.55 4.7 0.65 4.7 0.75 4.7 0.85 4.8 0.95 4.8 0.95 4.9 1.15 5.0 1.3 5.05 1.5 5.05 1.5 5.15 1.7 5.25 1.9 5.25 2.05 5.3 2.25 5.4 2.45 5.4 2.45 5.45 2.65 5.45 2.8 5.5 3.0 5.55 3.2 5.55 3.4 5.65 3.55 5.65 3.75 5.7 3.95 5.9 4.15 6.0 4.15 6.2 4.3 6.4 4.4 6.5 4.5 6.5 4.5 6.7 4.7 6.9 4.9 7.0 5.05 7.2 5.25 7.25 5.45 7.35 5.55 7.4 5.65 7.45 5.8 7.45 5.9 7.5 6.0 7.5 6.2 7.5 6.2 7.5 6.4 7.5 6.5 7.5 6.55 7.5 6.65 7.5 6.75 7.45 6.95 7.45 7.05 7.4 7.15 7.4 7.15 7.25 7.3 7.25 7.3 7.2 7.5 7.1 7.6 7.0 7.7 6.9 7.8 6.8 7.9 6.5 8.05 6.4 8.05 5.75 8.3 5.75 8.3 5.35 8.5 4.85 8.6 4.3 8.75 4.0 8.8 3.5 8.95 3.2 9.15 2.95 9.3 2.75 9.45 2.85 9.45 3.25 9.45 3.55 9.45 3.95 9.45 4.15 9.45 4.25 9.45 4.45 9.45 4.8 9.5 5.1 9.5 5.4 9.6 5.6 9.6 5.6 9.6 5.7 9.6 5.9 9.7 6.0 9.7 6.1 9.8 6.3 9.9 6.5 10.05 6.6 10.15 6.7 10.25 6.75 10.45 6.9 10.65 6.95 10.75 6.95 10.8 7.0 11.0 7.0 11.1 7.0 11.2 7.0 11.3 7.0 11.4 7.0 11.5 7.0 11.55 7.0 11.75 7.0 11.95 6.95 12.15 6.9 12.3 6.8 12.4 6.8 12.5 6.8 12.6 6.7 12.7 6.65 12.8 6.55 12.9 6.45 13.0 6.4 13.05 6.35 13.15 6.35 13.25 6.25 13.25 6.15 13.25 6.05 13.45 5.95 13.45 5.8 13.55 5.6 13.6 5.5 13.6 5.35 13.7 5.25 13.8 5.15 13.8 5.05 13.9 5.0 13.9 5.0 14.0 4.9 14.0 4.9 14.0 4.8 14.0 4.8 14.1 4.7 14.1 4.7 14.2 4.6 14.2 4.6 14.2 4.5 14.2 4.4 14.3 4.3 14.4 4.3 14.4 4.2 14.4 4.1 14.5 4.0 14.55 3.9 14.55 3.85 14.55 3.85 14.6 3.85 14.6 3.65 14.7 3.25 14.8 2.85 14.9 2.85 14.9 2.7 15.0 2.5 15.0 1.3 15.0 0.75 15.0 0.4 14.9 0.0 14.8 -0.35 14.65 -0.45 14.65 -0.75 14.45 -0.85 14.35 -1.0 14.25 -1.1 14.15 -1.2 14.05 -1.35 13.9 -1.45 13.8 -1.55 13.7 -1.55 13.7 -1.65 13.6 -1.7 13.6 -1.8 13.6 -1.9 13.6 -2.0 13.6 -2.1 13.6 -2.2 13.6 -2.3 13.6 -2.4 13.6 -2.5 13.55 -2.55 13.55 -2.65 13.55 -2.75 13.55 -2.85 13.55 -3.05 13.55 -3.25 13.6 -3.35 13.6 -3.55 13.7 -3.75 13.75 -3.95 13.75 -4.15 13.85 -4.35 13.95 -4.55 13.95 -4.95 14.05 -5.15 14.05 -5.25 14.05 -5.95 14.15 -6.8 14.35 -8.0 14.55 -8.1 14.55 -8.4 14.55 -8.6 14.6 -8.8 14.6 -9.1 14.6 -9.5 14.6 -9.6 14.6 -9.7 14.6 -9.8 14.6 -9.9 14.6 -10.0 14.6 -10.1 14.6 -10.65 14.6 -11.95 14.7 -12.75 14.75 -13.1 14.65 -13.5 14.55 -13.85 14.4 -14.05 14.2 -14.05 14.2 -14.2 14.0 -14.3 13.8 -14.45 13.65 -14.45 13.45 -14.5 13.25 -14.5 13.05 -14.5 12.9 -14.5 12.7 -14.5 12.7 M0.25 5.8 L0.25 5.8 0.45 5.6 0.55 5.6 0.75 5.7 0.85 5.7 0.95 5.7 1.05 5.8 1.15 5.9 1.15 5.9 1.15 5.9 1.15 5.9 1.15 5.9 1.25 6.05 1.25 6.05 1.25 6.05 1.25 6.05 1.15 6.05 1.05 6.05 1.05 6.05 1.05 6.05 1.05 6.05 1.05 6.05 1.05 6.05 0.85 6.2 Q0.8 6.2 0.75 6.2 L0.65 6.25 0.6 6.25 0.4 6.2 0.4 6.1 0.3 6.0 0.25 5.9 0.25 5.9 0.25 5.8 0.4 5.65 0.65 5.7 0.75 5.7 0.95 5.7 1.05 5.8 1.15 5.9 1.15 5.9 1.15 5.9 1.15 5.9 1.15 5.9 1.25 6.0 1.25 6.05 1.25 6.05 1.25 6.05 1.25 6.05 1.25 6.05 1.25 6.05 1.25 6.05 1.25 6.05 1.25 6.05 1.15 6.1 0.85 6.2 0.75 6.2 0.75 6.2 0.75 6.2 0.65 6.25 0.65 6.25 0.65 6.25 0.65 6.25 0.65 6.25 0.65 6.25 0.65 6.25 0.4 6.2 0.4 6.2 0.4 6.2 0.4 6.2 0.3 6.0 0.3 6.0 0.3 6.0 0.3 6.0 0.25 5.8 0.25 5.8 Q0.3 5.75 0.4 5.65 L0.75 5.7 Q0.7 5.95 0.65 6.25 L0.4 6.2 0.25 5.8 0.3 5.75 0.45 5.6 0.45 5.6 0.55 5.6 0.65 5.6 0.75 5.7 0.75 5.7 0.85 5.7 0.95 5.8 1.05 5.8 1.15 5.9 1.15 5.9 1.15 5.9 1.25 6.0 1.25 6.05 1.25 6.05 1.25 6.05 1.25 6.05 1.25 6.05 1.25 6.05 1.25 6.05 1.25 6.05 1.25 6.05 1.25 6.05 1.25 6.05 1.25 6.05 0.85 6.2 0.85 6.2 0.85 6.2 0.85 6.2 0.65 6.25 0.65 6.25 0.6 6.25 0.5 6.25 0.4 6.2 0.4 6.2 0.4 6.2 0.4 6.1 0.3 6.0 0.3 6.0 0.3 6.0 0.3 6.0 0.25 5.8 0.25 5.8 0.4 5.65 1.25 6.05 0.65 6.25 0.4 6.2 0.3 6.0 0.3 6.0 0.25 5.8 Z;M2.75 -23.5 L2.8 -23.7 2.8 -23.8 2.8 -23.85 2.95 -24.05 3.05 -24.25 3.2 -24.45 3.3 -24.55 3.4 -24.6 3.65 -24.7 3.75 -24.8 4.15 -24.9 4.3 -24.9 4.5 -25.0 5.0 -25.0 5.4 -25.0 6.3 -24.9 7.2 -24.8 7.9 -24.75 8.3 -24.7 9.1 -24.6 10.45 -24.35 12.0 -24.0 13.7 -23.6 15.2 -23.2 16.7 -22.75 18.15 -22.45 18.15 -22.45 18.5 -22.5 18.7 -22.7 18.8 -22.85 18.85 -22.95 18.95 -23.05 19.05 -23.25 19.1 -23.25 19.2 -23.45 19.4 -23.6 19.6 -23.7 19.75 -23.8 20.0 -24.0 20.0 -24.0 20.15 -24.1 20.25 -24.2 20.3 -24.2 20.5 -24.3 20.65 -24.35 20.8 -24.35 20.9 -24.45 21.1 -24.45 21.25 -24.5 21.65 -24.5 21.75 -24.5 21.9 -24.5 22.1 -24.4 22.2 -24.4 22.5 -24.3 22.8 -24.1 22.8 -24.1 23.0 -23.95 23.1 -23.85 23.25 -23.75 23.45 -23.55 23.45 -23.55 23.65 -23.35 23.95 -23.2 24.05 -23.1 24.25 -23.0 24.45 -22.8 24.65 -22.6 24.65 -22.6 24.95 -22.45 24.95 -22.45 25.35 -22.25 25.7 -22.05 25.85 -21.95 25.95 -21.85 26.25 -21.75 26.35 -21.7 26.45 -21.7 26.75 -21.75 27.15 -22.1 27.15 -22.1 27.5 -22.5 27.9 -22.8 27.95 -22.85 28.45 -23.25 28.85 -23.5 29.1 -23.7 29.3 -23.8 29.6 -24.0 29.95 -24.25 30.3 -24.55 30.5 -24.75 30.7 -24.95 30.7 -24.95 30.9 -25.1 30.9 -25.1 31.0 -25.3 31.0 -25.3 31.1 -25.4 31.2 -25.5 31.3 -25.7 31.45 -25.85 31.45 -25.95 31.55 -26.05 31.65 -26.15 31.75 -26.25 31.8 -26.25 32.0 -26.45 32.1 -26.45 32.4 -26.6 32.7 -26.8 32.8 -26.8 33.2 -26.9 33.3 -27.0 33.6 -27.2 33.8 -27.3 33.9 -27.35 34.15 -27.45 34.25 -27.55 34.45 -27.65 34.65 -27.75 34.75 -27.75 34.9 -27.85 35.05 -27.85 35.15 -27.95 35.5 -27.95 35.5 -28.0 35.8 -28.0 36.2 -28.0 36.5 -28.0 36.6 -28.0 36.85 -27.95 37.3 -27.8 37.7 -27.7 37.9 -27.6 38.0 -27.6 38.55 -27.5 38.75 -27.5 38.9 -27.5 39.1 -27.4 39.5 -27.3 39.8 -27.1 39.9 -27.05 40.05 -26.95 40.2 -26.75 40.3 -26.55 40.45 -26.35 40.55 -26.2 40.65 -26.1 40.75 -26.0 40.95 -25.8 41.05 -25.6 41.2 -25.45 41.3 -25.25 41.4 -25.15 41.4 -25.05 41.45 -24.85 41.5 -24.7 41.5 -24.5 41.5 -24.5 41.5 -24.3 41.5 -24.1 41.5 -23.95 41.5 -23.75 41.45 -23.55 41.45 -23.45 41.4 -23.35 41.3 -23.2 41.25 -23.0 41.25 -22.9 41.2 -22.8 41.15 -22.6 41.05 -22.45 40.95 -22.25 40.9 -22.05 40.9 -21.85 40.9 -21.85 40.8 -21.7 40.75 -21.5 40.75 -21.4 40.7 -21.3 40.65 -21.1 40.5 -20.95 40.45 -20.75 40.4 -20.65 40.3 -20.55 40.2 -20.35 40.05 -20.2 39.95 -20.0 39.75 -19.8 39.75 -19.7 39.75 -19.6 39.65 -19.6 39.45 -19.45 39.45 -19.35 39.25 -19.25 39.05 -19.05 39.05 -19.05 38.95 -18.85 38.8 -18.7 38.8 -18.6 38.7 -18.5 38.5 -18.3 38.5 -18.2 38.4 -18.1 38.6 -18.1 39.0 -18.1 39.4 -18.1 39.8 -18.1 41.7 -18.05 42.4 -18.0 42.9 -17.9 43.2 -17.85 43.6 -17.75 43.8 -17.75 44.55 -17.55 44.55 -17.55 45.25 -17.5 45.5 -17.4 45.6 -17.4 46.0 -17.3 46.3 -17.1 46.5 -16.95 46.7 -16.75 46.75 -16.55 46.75 -16.55 46.9 -16.35 46.95 -16.2 47.0 -16.0 47.0 -16.0 47.0 -15.8 47.0 -15.6 47.0 -15.45 47.0 -15.25 46.95 -15.05 46.9 -14.85 46.75 -14.7 46.7 -14.5 46.5 -14.3 46.3 -14.1 46.2 -14.05 46.0 -13.95 45.6 -13.8 45.25 -13.7 44.95 -13.6 44.5 -13.45 44.3 -13.35 44.0 -13.25 43.7 -13.15 43.4 -13.15 43.3 -13.15 43.0 -13.1 42.85 -13.1 42.55 -13.1 42.25 -13.0 41.95 -13.0 41.65 -12.9 41.35 -12.9 40.55 -12.8 40.45 -12.8 40.15 -12.7 40.0 -12.7 40.05 -12.5 40.05 -12.5 40.2 -12.3 40.25 -12.1 40.4 -11.95 40.45 -11.75 40.45 -11.75 40.55 -11.6 41.25 -11.6 42.1 -11.5 42.5 -11.5 42.85 -11.4 43.25 -11.3 43.45 -11.2 43.55 -11.1 43.75 -10.95 43.75 -10.95 43.95 -10.75 44.0 -10.65 44.0 -10.55 44.1 -10.45 44.15 -10.35 44.2 -10.2 44.25 -10.0 44.25 -10.0 44.25 -9.8 44.25 -9.7 44.25 -9.6 44.2 -9.45 44.2 -9.35 44.2 -9.25 44.2 -9.15 44.05 -9.05 44.0 -8.85 44.0 -8.85 43.9 -8.7 43.9 -8.6 43.75 -8.5 43.65 -8.4 43.55 -8.3 43.5 -8.25 43.3 -8.15 43.1 -8.05 43.0 -7.95 42.8 -7.85 42.6 -7.85 42.5 -7.85 42.25 -7.75 42.15 -7.75 41.85 -7.75 41.55 -7.75 41.25 -7.75 41.15 -7.75 40.85 -7.75 40.55 -7.75 40.25 -7.75 39.75 -7.75 39.4 -7.8 39.15 -7.85 39.0 -7.9 38.9 -7.9 38.55 -7.9 38.25 -7.9 38.15 -7.9 37.85 -7.9 37.55 -7.85 37.15 -7.7 37.1 -7.6 37.0 -7.5 37.0 -7.5 36.9 -7.4 36.7 -7.3 36.6 -7.3 36.4 -7.1 36.4 -7.1 36.3 -7.05 36.2 -6.95 36.1 -6.85 35.8 -6.55 35.8 -6.55 35.6 -6.4 35.55 -6.4 35.25 -6.2 35.25 -6.2 34.95 -6.0 34.65 -5.8 34.35 -5.65 34.0 -5.45 33.8 -5.35 33.15 -5.15 32.95 -5.05 31.8 -4.7 31.7 -4.7 30.85 -4.4 30.15 -4.25 29.15 -4.05 28.75 -4.0 27.75 -4.0 26.95 -4.0 26.25 -4.0 25.55 -3.95 25.25 -3.95 24.5 -3.95 24.15 -3.75 23.75 -3.55 23.5 -3.45 23.4 -3.35 23.15 -3.3 22.7 -3.2 22.5 -3.0 22.3 -2.8 22.15 -2.6 22.1 -2.5 22.0 -2.45 21.95 -2.25 21.85 -2.15 21.75 -2.05 21.55 -1.85 21.25 -1.7 21.25 -1.7 21.05 -1.65 20.85 -1.6 20.55 -1.5 20.5 -1.5 20.4 -1.5 20.1 -1.45 20.0 -1.45 19.9 -1.4 19.85 -1.4 19.65 -1.3 19.65 -1.3 19.55 -1.3 19.25 -1.25 18.95 -1.25 18.45 -1.25 18.15 -1.25 17.75 -1.25 17.65 -1.25 17.4 -1.3 17.2 -1.35 16.95 -1.45 16.75 -1.55 16.4 -1.65 16.3 -1.7 16.0 -1.8 15.8 -1.8 15.65 -1.7 15.55 -1.65 15.25 -1.45 15.15 -1.4 14.85 -1.35 14.5 -1.25 14.25 -1.25 13.9 -1.35 13.7 -1.4 13.5 -1.45 13.15 -1.6 12.95 -1.8 12.8 -2.0 12.8 -2.1 12.7 -2.2 12.55 -2.35 12.55 -2.55 12.5 -2.75 12.5 -2.95 12.5 -3.0 12.5 -3.1 12.5 -3.3 12.55 -3.5 12.65 -3.7 12.65 -3.7 12.7 -3.85 12.8 -4.05 12.8 -4.15 12.9 -4.25 12.95 -4.45 13.0 -4.6 12.95 -4.75 12.55 -4.75 11.75 -4.75 10.75 -4.75 10.65 -4.75 10.4 -4.85 10.1 -4.95 8.0 -5.5 7.2 -5.75 6.5 -6.0 5.85 -6.3 5.15 -6.6 5.05 -6.7 4.7 -6.95 4.5 -7.05 4.4 -7.15 4.15 -7.25 4.05 -7.25 3.85 -7.45 3.65 -7.6 3.55 -7.7 3.45 -7.8 3.4 -7.9 3.3 -8.0 3.2 -8.2 3.05 -8.35 3.05 -8.55 3.0 -8.75 3.0 -8.95 3.0 -9.1 3.0 -9.3 3.0 -9.4 3.0 -9.5 3.0 -9.7 3.0 -9.85 3.0 -10.05 3.05 -10.25 3.15 -10.45 3.2 -10.6 3.3 -10.8 3.4 -11.0 3.5 -11.2 3.65 -11.35 3.8 -11.55 4.0 -11.75 4.25 -11.95 4.5 -12.05 4.65 -12.1 5.9 -12.4 7.4 -12.7 9.45 -13.1 9.55 -13.2 9.9 -13.35 10.2 -13.55 10.3 -13.65 10.75 -13.95 11.25 -14.3 11.15 -14.5 11.05 -14.7 10.95 -14.85 10.9 -15.05 10.8 -15.25 10.7 -15.45 9.7 -16.2 8.05 -17.5 7.05 -18.3 6.55 -18.7 6.05 -19.1 5.45 -19.65 5.15 -19.95 5.15 -19.95 4.95 -20.05 4.75 -20.25 4.55 -20.45 4.35 -20.65 4.15 -20.85 3.85 -21.15 3.55 -21.45 3.3 -21.7 2.75 -23.5 M9.35 -21.05 L9.7 -21.05 11.5 -20.55 12.2 -20.35 13.05 -20.1 13.25 -20.0 13.3 -19.8 13.3 -19.6 13.45 -19.45 13.55 -19.25 13.7 -19.05 13.9 -18.85 14.25 -18.7 14.6 -18.55 14.75 -18.5 14.65 -18.35 14.45 -18.2 14.25 -18.0 14.05 -17.8 13.95 -17.6 13.8 -17.45 13.7 -17.45 13.55 -17.6 13.45 -17.8 13.25 -18.0 Q12.95 -18.2 12.7 -18.35 L12.3 -18.65 11.7 -19.15 10.9 -19.8 10.5 -20.1 10.1 -20.4 9.4 -21.0 9.35 -21.05 9.35 -21.05 17.8 -10.45 20.75 -10.75 21.45 -10.85 21.75 -11.05 21.75 -11.25 21.75 -11.45 21.75 -11.6 21.75 -11.8 21.8 -12.0 21.9 -12.2 21.95 -12.35 22.05 -12.55 22.05 -12.75 22.15 -12.95 22.15 -13.1 22.2 -13.3 22.2 -13.5 22.15 -13.7 22.15 -13.85 21.75 -13.95 20.75 -13.8 20.4 -13.7 19.6 -13.55 19.2 -13.45 19.25 -13.3 19.4 -13.1 19.45 -12.95 19.5 -12.75 19.5 -12.55 19.5 -12.35 19.45 -12.2 19.45 -12.0 19.3 -11.8 19.25 -11.6 19.15 -11.45 19.0 -11.25 18.8 -11.15 18.7 -11.05 18.5 -10.95 18.35 -10.9 17.85 -10.8 15.7 -10.6 Q25.8 -14.3 26.25 -14.35 L28.0 -14.7 Q27.65 -14.4 27.15 -14.25 L26.05 -13.95 25.7 -14.0 32.25 -21.6 33.45 -22.7 33.9 -23.25 34.0 -23.45 34.25 -23.6 34.7 -23.8 34.9 -23.9 35.1 -24.0 35.45 -24.2 35.7 -24.35 36.65 -24.35 37.1 -24.2 37.2 -24.2 37.75 -24.0 37.8 -23.8 37.7 -23.6 37.65 -23.45 37.55 -23.25 37.5 -23.05 37.45 -22.85 37.4 -22.7 37.3 -22.5 37.25 -22.3 37.15 -22.1 36.95 -21.95 36.75 -21.75 36.55 -21.55 36.4 -21.35 36.25 -21.2 36.15 -21.0 36.0 -20.8 35.9 -20.6 35.5 -20.25 35.1 -19.9 34.9 -19.7 34.85 -19.7 34.55 -19.5 33.9 -19.1 33.6 -19.1 33.15 -19.1 33.0 -19.3 32.95 -19.5 32.9 -19.7 31.7 -21.2 34.6 -15.6 35.45 -15.8 34.95 -15.55 34.65 -15.55 34.5 -15.55 34.4 -15.55 34.4 -15.55 Z"/>
    </path>
  </g>
</svg>
