<?xml version="1.0" encoding="UTF-8" standalone="no"?>
<svg xmlns:ffdec="https://www.free-decompiler.com/flash" xmlns:xlink="http://www.w3.org/1999/xlink" ffdec:objectType="morphshape" height="45.45px" width="45.45px" xmlns="http://www.w3.org/2000/svg">
  <g transform="matrix(1.0, 0.0, 0.0, 1.0, 24.75, 24.0)">
    <path d="M-10.0 14.3 L-9.8 14.2 -9.7 14.05 -9.6 13.95 Q-9.45 13.8 -9.55 13.25 L-10.0 14.3 M-12.75 -6.35 L-12.75 -5.5 Q-12.75 -4.55 -12.75 -3.6 L-12.75 -3.4 -12.75 -2.5 -12.75 -2.5 -12.75 -2.0 -12.75 -1.6 -12.75 -1.5 -12.75 -1.3 -12.75 -1.2 -12.75 -0.2 -12.75 4.8 -12.75 4.9 -11.9 6.3 -11.85 6.35 -11.85 6.4 -11.8 6.55 -10.9 7.7 -9.85 8.4 -9.85 8.4 -9.75 8.4 -9.55 8.45 -9.45 8.45 -9.35 8.45 -9.15 8.6 -8.95 8.7 -8.85 8.8 -8.75 8.8 -8.5 9.0 -8.2 9.15 -7.9 9.25 -7.75 9.35 -7.75 9.35 -6.25 10.0 -6.15 10.1 -5.2 10.95 -4.3 11.4 -3.95 11.5 -3.35 11.7 -3.25 11.8 -2.55 12.15 -2.45 12.15 -1.0 12.5 -0.7 12.5 0.5 12.25 1.15 11.9 3.1 11.3 3.75 11.0 3.75 11.0 4.05 10.8 4.05 10.8 4.85 10.15 5.45 9.55 5.75 9.55 7.5 9.05 8.45 8.55 9.35 7.65 9.5 7.15 9.6 7.05 10.2 6.55 10.25 6.55 10.5 6.6 10.5 6.25 10.45 6.15 10.55 5.95 10.65 5.75 10.65 4.95 10.75 3.95 Q10.8 2.95 10.85 1.95 L10.85 1.15 10.85 -0.45 10.7 -4.9 10.7 -4.95 10.7 -5.1 10.7 -5.2 10.75 -5.3 10.75 -5.5 10.75 -5.7 10.7 -5.9 10.7 -6.05 10.65 -6.25 10.55 -6.45 10.45 -6.65 10.35 -6.8 10.25 -7.0 8.65 -8.15 7.75 -8.65 6.5 -9.25 6.3 -9.45 6.3 -9.45 6.3 -9.45 6.3 -9.45 6.1 -9.55 5.85 -9.75 5.2 -10.1 5.1 -10.2 Q4.45 -10.8 3.8 -11.4 3.3 -11.85 2.75 -12.25 L2.25 -12.6 1.05 -13.25 -0.3 -13.5 -0.55 -13.5 -0.75 -13.45 -1.8 -13.25 -2.05 -13.15 -2.85 -12.65 -3.0 -12.55 -4.2 -12.25 -4.7 -12.15 -4.8 -12.15 Q-5.65 -12.0 -6.3 -11.45 L-6.6 -11.2 -8.3 -10.4 -10.6 -8.65 Q-10.65 -8.55 -12.35 -7.3 L-12.75 -6.35 M-24.75 -0.2 L-24.7 0.0 -24.6 0.2 -21.85 0.8 -21.95 1.0 -22.0 1.2 -22.0 1.55 -21.95 1.75 -21.85 1.95 -21.65 2.1 -21.3 2.25 Q-17.55 3.1 -14.15 4.25 L-14.0 4.4 -13.5 4.5 -13.4 4.5 -12.95 4.65 -13.25 4.8 -13.5 5.0 -14.15 5.25 Q-16.1 6.05 -17.95 7.15 L-18.1 7.3 -18.3 7.5 -18.45 7.7 -18.5 8.05 -18.45 8.25 -18.35 8.45 Q-17.0 9.3 -15.3 8.65 L-15.2 8.5 -15.0 8.3 -14.75 8.15 -13.8 8.2 -13.9 8.4 -14.05 8.7 -14.2 8.75 -14.35 8.95 -14.55 9.15 -14.7 9.3 -14.75 9.5 -14.75 9.7 -14.75 9.85 -14.7 10.05 -14.65 10.1 -14.75 10.25 -14.75 10.45 -14.8 11.75 -14.6 12.7 -14.0 12.95 -13.75 13.0 -13.35 12.9 -12.55 12.15 -11.85 11.45 -12.4 12.75 -12.75 13.7 -12.75 14.05 -12.7 14.8 -12.6 15.2 -12.4 15.35 -12.0 15.5 -11.7 15.45 -11.55 15.4 -11.5 15.45 -11.5 16.0 -11.5 16.4 -11.5 16.55 -11.6 16.75 -11.7 16.95 -11.75 17.15 -11.75 17.5 -11.7 18.05 -11.6 18.45 -11.4 18.6 -11.0 18.75 -10.7 18.7 -10.55 18.65 -10.45 18.5 Q-10.3 18.2 -10.2 17.95 -10.1 17.75 -10.0 17.55 L-9.5 17.5 -9.1 17.4 -8.9 17.2 -8.5 16.8 -8.3 16.65 -7.65 16.3 Q-5.15 15.2 -3.3 13.25 L-3.2 13.4 -2.9 13.75 Q-2.8 13.85 -2.75 13.95 L-2.75 14.3 -2.75 14.7 -2.7 14.9 -2.1 15.85 -1.7 16.4 -0.75 16.45 -0.3 16.4 -0.2 16.25 0.3 15.3 0.5 14.75 0.95 15.6 1.55 16.4 2.5 16.45 2.95 16.4 3.05 16.65 3.35 17.2 3.5 17.55 Q3.5 17.65 3.5 17.75 L3.5 17.95 3.5 18.15 3.6 18.3 3.7 18.5 3.9 18.7 4.1 18.85 4.5 19.0 4.8 18.95 4.95 18.9 5.05 18.75 5.25 18.55 5.9 17.3 6.25 16.15 6.25 15.75 6.25 15.35 6.3 15.3 6.5 15.2 6.5 15.45 6.55 15.65 7.15 16.6 7.55 17.15 8.0 17.25 Q8.15 17.2 8.3 17.2 L8.45 17.15 8.65 16.8 8.75 16.6 8.75 16.45 8.75 16.25 8.75 14.4 8.75 13.0 8.8 13.0 9.0 13.15 Q9.8 13.9 10.3 14.95 L12.05 17.9 12.5 18.0 12.8 17.95 12.95 17.9 13.15 17.55 13.25 17.35 13.25 17.2 13.25 16.65 13.25 16.25 13.25 16.05 13.15 15.7 13.05 15.5 13.0 15.3 13.0 15.15 13.0 14.95 13.0 14.75 13.0 14.55 12.95 14.4 12.65 13.45 12.5 12.7 13.15 13.1 Q14.15 14.1 15.5 14.5 L15.85 14.35 16.05 14.2 16.2 14.0 16.25 13.8 16.25 13.65 15.75 12.45 15.3 11.75 15.15 11.55 14.95 11.35 14.8 11.2 14.3 10.1 13.7 9.3 Q13.65 9.2 13.65 9.15 L13.6 8.95 13.55 8.75 13.45 8.55 13.05 7.6 12.75 7.05 14.4 6.65 14.6 6.45 14.8 6.25 14.9 6.05 15.0 5.85 15.0 5.7 15.0 5.5 15.0 5.3 15.0 5.15 16.7 4.9 16.8 4.75 16.9 4.55 17.0 4.4 17.0 4.2 16.95 4.0 16.8 3.8 Q16.3 3.4 15.65 3.3 L18.95 2.65 19.05 2.5 19.15 2.3 19.25 2.15 19.25 1.95 19.2 1.75 19.05 1.55 18.55 1.25 16.7 0.6 16.8 0.55 16.85 0.55 19.8 0.35 20.65 -0.1 20.7 -0.3 20.7 -0.5 20.7 -0.7 20.3 -1.25 19.9 -1.6 19.0 -1.85 18.95 -1.85 Q16.95 -3.0 14.75 -3.85 16.7 -3.85 18.3 -4.75 L18.4 -4.95 Q18.45 -5.05 18.5 -5.1 L18.5 -5.3 18.45 -5.5 18.3 -5.7 18.1 -5.85 16.2 -6.3 15.95 -6.45 15.7 -6.6 Q14.05 -6.65 13.0 -7.1 L13.0 -7.5 12.95 -7.7 12.9 -7.85 12.8 -8.05 12.7 -8.25 12.5 -8.45 12.45 -8.5 12.55 -8.7 13.05 -9.25 13.15 -9.45 13.25 -9.65 13.3 -9.8 13.55 -10.0 13.65 -10.2 13.7 -10.55 13.7 -10.75 13.55 -10.95 Q12.25 -11.6 11.15 -11.55 L11.8 -12.3 12.05 -12.7 12.35 -12.9 12.65 -13.05 12.75 -13.25 Q12.85 -13.35 12.9 -13.45 L13.0 -13.6 13.75 -14.15 14.45 -14.95 14.8 -15.05 14.95 -15.1 15.05 -15.25 15.15 -15.45 15.25 -15.6 15.25 -15.8 15.2 -16.0 15.05 -16.2 14.85 -16.35 14.5 -16.5 14.0 -16.5 Q13.85 -16.45 13.7 -16.45 L13.5 -16.3 Q11.75 -15.25 9.9 -14.75 L10.0 -14.95 10.3 -15.5 10.45 -15.85 10.65 -16.05 10.8 -16.25 11.0 -16.65 11.1 -16.8 11.2 -17.0 11.5 -17.2 11.9 -17.55 12.05 -17.75 12.15 -17.95 Q12.2 -18.05 12.25 -18.1 12.25 -18.2 12.25 -18.3 L12.2 -18.5 12.05 -18.7 11.5 -18.95 Q11.35 -19.0 11.25 -19.0 L10.85 -18.85 10.65 -18.7 10.0 -18.2 6.55 -15.95 5.75 -16.1 Q5.8 -16.6 5.8 -17.05 L5.55 -18.2 5.35 -18.35 5.0 -18.5 4.7 -18.4 4.55 -18.35 4.2 -18.1 3.8 -17.85 3.0 -17.15 2.25 -16.55 2.25 -16.75 2.3 -18.05 2.05 -19.2 1.85 -19.35 1.5 -19.5 1.2 -19.4 1.05 -19.35 0.95 -19.25 0.4 -18.25 0.0 -17.85 0.05 -20.85 Q0.15 -22.35 -0.2 -23.7 L-0.4 -23.85 -0.75 -24.0 -0.75 -23.95 -1.35 -23.65 -1.5 -23.5 -1.5 -23.3 -1.5 -22.2 -1.5 -21.45 -1.7 -20.85 -1.8 -20.5 Q-1.85 -20.4 -1.85 -20.3 L-2.15 -20.1 -2.35 -19.95 -2.5 -19.75 -2.5 -19.55 -2.45 -17.85 -2.55 -16.6 -2.6 -16.7 -2.75 -16.8 -2.95 -17.7 -3.15 -17.85 -3.5 -18.0 -3.5 -17.95 -3.8 -17.9 -3.95 -17.85 -4.05 -17.75 -4.1 -17.6 -4.25 -17.55 -4.45 -17.35 -4.5 -17.0 -4.5 -16.65 -4.45 -16.45 -4.3 -16.25 -4.25 -16.2 -4.25 -15.85 Q-4.2 -15.25 -4.3 -14.7 L-4.5 -14.85 -4.95 -15.55 -5.1 -15.95 -5.35 -16.1 -5.75 -16.25 -6.05 -16.15 -6.2 -16.1 -6.3 -16.0 -6.4 -15.8 -6.45 -13.55 -6.4 -13.1 -7.15 -12.75 -7.55 -13.65 -8.5 -15.55 -8.5 -15.75 -8.5 -15.95 -8.5 -16.1 -8.6 -16.3 -8.7 -16.5 -8.85 -16.7 -9.1 -16.85 -9.5 -17.0 -10.1 -16.65 -10.25 -16.5 -10.25 -16.3 -10.2 -14.25 -10.3 -12.7 -10.65 -13.0 -10.75 -13.2 -10.75 -13.35 -10.85 -13.55 Q-10.9 -13.65 -10.95 -13.75 L-11.5 -14.3 -12.1 -14.85 -12.5 -15.0 -12.8 -14.9 -12.95 -14.85 -13.05 -14.75 -13.2 -14.35 -13.2 -13.65 -13.05 -13.25 -13.0 -12.7 -13.0 -12.3 -13.05 -12.2 -13.15 -12.25 -13.65 -13.0 -14.0 -13.35 -14.0 -13.55 -14.05 -13.75 -14.2 -13.95 -14.4 -14.1 -14.75 -14.25 -15.05 -14.15 -15.25 -14.05 -15.45 -13.85 -15.5 -13.5 -15.5 -13.15 -15.45 -12.95 -15.3 -12.55 -15.25 -12.35 -15.25 -12.2 -14.3 -10.55 -13.6 -8.8 -13.35 -8.4 -13.1 -8.1 -13.05 -7.95 -20.3 -7.85 -20.55 -7.75 -20.7 -7.35 -20.7 -7.0 -20.6 -6.8 Q-18.95 -6.15 -17.05 -6.2 -15.5 -5.5 -13.75 -5.35 L-13.8 -5.35 -13.95 -5.2 -13.95 -5.0 -14.0 -4.45 -14.0 -4.25 -18.0 -3.0 -18.0 -2.6 -17.95 -2.25 -17.85 -2.05 Q-17.05 -1.6 -16.0 -1.5 L-16.25 -1.35 -24.2 -1.1 -24.35 -0.95 Q-24.45 -0.85 -24.55 -0.75 L-24.7 -0.55 -24.75 -0.2" fill="#ffffff" fill-rule="evenodd" stroke="none">
      <animate attributeName="fill" dur="2s" repeatCount="indefinite" values="#ffffff;#ffffff"/>
      <animate attributeName="fill-opacity" dur="2s" repeatCount="indefinite" values="1.0;1.0"/>
      <animate attributeName="d" dur="2s" repeatCount="indefinite" values="M-10.0 14.3 L-9.8 14.2 -9.7 14.05 -9.6 13.95 Q-9.45 13.8 -9.55 13.25 L-10.0 14.3 M-12.75 -6.35 L-12.75 -5.5 Q-12.75 -4.55 -12.75 -3.6 L-12.75 -3.4 -12.75 -2.5 -12.75 -2.5 -12.75 -2.0 -12.75 -1.6 -12.75 -1.5 -12.75 -1.3 -12.75 -1.2 -12.75 -0.2 -12.75 4.8 -12.75 4.9 -11.9 6.3 -11.85 6.35 -11.85 6.4 -11.8 6.55 -10.9 7.7 -9.85 8.4 -9.85 8.4 -9.75 8.4 -9.55 8.45 -9.45 8.45 -9.35 8.45 -9.15 8.6 -8.95 8.7 -8.85 8.8 -8.75 8.8 -8.5 9.0 -8.2 9.15 -7.9 9.25 -7.75 9.35 -7.75 9.35 -6.25 10.0 -6.15 10.1 -5.2 10.95 -4.3 11.4 -3.95 11.5 -3.35 11.7 -3.25 11.8 -2.55 12.15 -2.45 12.15 -1.0 12.5 -0.7 12.5 0.5 12.25 1.15 11.9 3.1 11.3 3.75 11.0 3.75 11.0 4.05 10.8 4.05 10.8 4.85 10.15 5.45 9.55 5.75 9.55 7.5 9.05 8.45 8.55 9.35 7.65 9.5 7.15 9.6 7.05 10.2 6.55 10.25 6.55 10.5 6.6 10.5 6.25 10.45 6.15 10.55 5.95 10.65 5.75 10.65 4.95 10.75 3.95 Q10.8 2.95 10.85 1.95 L10.85 1.15 10.85 -0.45 10.7 -4.9 10.7 -4.95 10.7 -5.1 10.7 -5.2 10.75 -5.3 10.75 -5.5 10.75 -5.7 10.7 -5.9 10.7 -6.05 10.65 -6.25 10.55 -6.45 10.45 -6.65 10.35 -6.8 10.25 -7.0 8.65 -8.15 7.75 -8.65 6.5 -9.25 6.3 -9.45 6.3 -9.45 6.3 -9.45 6.3 -9.45 6.1 -9.55 5.85 -9.75 5.2 -10.1 5.1 -10.2 Q4.45 -10.8 3.8 -11.4 3.3 -11.85 2.75 -12.25 L2.25 -12.6 1.05 -13.25 -0.3 -13.5 -0.55 -13.5 -0.75 -13.45 -1.8 -13.25 -2.05 -13.15 -2.85 -12.65 -3.0 -12.55 -4.2 -12.25 -4.7 -12.15 -4.8 -12.15 Q-5.65 -12.0 -6.3 -11.45 L-6.6 -11.2 -8.3 -10.4 -10.6 -8.65 Q-10.65 -8.55 -12.35 -7.3 L-12.75 -6.35 M-24.75 -0.2 L-24.7 0.0 -24.6 0.2 -21.85 0.8 -21.95 1.0 -22.0 1.2 -22.0 1.55 -21.95 1.75 -21.85 1.95 -21.65 2.1 -21.3 2.25 Q-17.55 3.1 -14.15 4.25 L-14.0 4.4 -13.5 4.5 -13.4 4.5 -12.95 4.65 -13.25 4.8 -13.5 5.0 -14.15 5.25 Q-16.1 6.05 -17.95 7.15 L-18.1 7.3 -18.3 7.5 -18.45 7.7 -18.5 8.05 -18.45 8.25 -18.35 8.45 Q-17.0 9.3 -15.3 8.65 L-15.2 8.5 -15.0 8.3 -14.75 8.15 -13.8 8.2 -13.9 8.4 -14.05 8.7 -14.2 8.75 -14.35 8.95 -14.55 9.15 -14.7 9.3 -14.75 9.5 -14.75 9.7 -14.75 9.85 -14.7 10.05 -14.65 10.1 -14.75 10.25 -14.75 10.45 -14.8 11.75 -14.6 12.7 -14.0 12.95 -13.75 13.0 -13.35 12.9 -12.55 12.15 -11.85 11.45 -12.4 12.75 -12.75 13.7 -12.75 14.05 -12.7 14.8 -12.6 15.2 -12.4 15.35 -12.0 15.5 -11.7 15.45 -11.55 15.4 -11.5 15.45 -11.5 16.0 -11.5 16.4 -11.5 16.55 -11.6 16.75 -11.7 16.95 -11.75 17.15 -11.75 17.5 -11.7 18.05 -11.6 18.45 -11.4 18.6 -11.0 18.75 -10.7 18.7 -10.55 18.65 -10.45 18.5 Q-10.3 18.2 -10.2 17.95 -10.1 17.75 -10.0 17.55 L-9.5 17.5 -9.1 17.4 -8.9 17.2 -8.5 16.8 -8.3 16.65 -7.65 16.3 Q-5.15 15.2 -3.3 13.25 L-3.2 13.4 -2.9 13.75 Q-2.8 13.85 -2.75 13.95 L-2.75 14.3 -2.75 14.7 -2.7 14.9 -2.1 15.85 -1.7 16.4 -0.75 16.45 -0.3 16.4 -0.2 16.25 0.3 15.3 0.5 14.75 0.95 15.6 1.55 16.4 2.5 16.45 2.95 16.4 3.05 16.65 3.35 17.2 3.5 17.55 Q3.5 17.65 3.5 17.75 L3.5 17.95 3.5 18.15 3.6 18.3 3.7 18.5 3.9 18.7 4.1 18.85 4.5 19.0 4.8 18.95 4.95 18.9 5.05 18.75 5.25 18.55 5.9 17.3 6.25 16.15 6.25 15.75 6.25 15.35 6.3 15.3 6.5 15.2 6.5 15.45 6.55 15.65 7.15 16.6 7.55 17.15 8.0 17.25 Q8.15 17.2 8.3 17.2 L8.45 17.15 8.65 16.8 8.75 16.6 8.75 16.45 8.75 16.25 8.75 14.4 8.75 13.0 8.8 13.0 9.0 13.15 Q9.8 13.9 10.3 14.95 L12.05 17.9 12.5 18.0 12.8 17.95 12.95 17.9 13.15 17.55 13.25 17.35 13.25 17.2 13.25 16.65 13.25 16.25 13.25 16.05 13.15 15.7 13.05 15.5 13.0 15.3 13.0 15.15 13.0 14.95 13.0 14.75 13.0 14.55 12.95 14.4 12.65 13.45 12.5 12.7 13.15 13.1 Q14.15 14.1 15.5 14.5 L15.85 14.35 16.05 14.2 16.2 14.0 16.25 13.8 16.25 13.65 15.75 12.45 15.3 11.75 15.15 11.55 14.95 11.35 14.8 11.2 14.3 10.1 13.7 9.3 Q13.65 9.2 13.65 9.15 L13.6 8.95 13.55 8.75 13.45 8.55 13.05 7.6 12.75 7.05 14.4 6.65 14.6 6.45 14.8 6.25 14.9 6.05 15.0 5.85 15.0 5.7 15.0 5.5 15.0 5.3 15.0 5.15 16.7 4.9 16.8 4.75 16.9 4.55 17.0 4.4 17.0 4.2 16.95 4.0 16.8 3.8 Q16.3 3.4 15.65 3.3 L18.95 2.65 19.05 2.5 19.15 2.3 19.25 2.15 19.25 1.95 19.2 1.75 19.05 1.55 18.55 1.25 16.7 0.6 16.8 0.55 16.85 0.55 19.8 0.35 20.65 -0.1 20.7 -0.3 20.7 -0.5 20.7 -0.7 20.3 -1.25 19.9 -1.6 19.0 -1.85 18.95 -1.85 Q16.95 -3.0 14.75 -3.85 16.7 -3.85 18.3 -4.75 L18.4 -4.95 Q18.45 -5.05 18.5 -5.1 L18.5 -5.3 18.45 -5.5 18.3 -5.7 18.1 -5.85 16.2 -6.3 15.95 -6.45 15.7 -6.6 Q14.05 -6.65 13.0 -7.1 L13.0 -7.5 12.95 -7.7 12.9 -7.85 12.8 -8.05 12.7 -8.25 12.5 -8.45 12.45 -8.5 12.55 -8.7 13.05 -9.25 13.15 -9.45 13.25 -9.65 13.3 -9.8 13.55 -10.0 13.65 -10.2 13.7 -10.55 13.7 -10.75 13.55 -10.95 Q12.25 -11.6 11.15 -11.55 L11.8 -12.3 12.05 -12.7 12.35 -12.9 12.65 -13.05 12.75 -13.25 Q12.85 -13.35 12.9 -13.45 L13.0 -13.6 13.75 -14.15 14.45 -14.95 14.8 -15.05 14.95 -15.1 15.05 -15.25 15.15 -15.45 15.25 -15.6 15.25 -15.8 15.2 -16.0 15.05 -16.2 14.85 -16.35 14.5 -16.5 14.0 -16.5 Q13.85 -16.45 13.7 -16.45 L13.5 -16.3 Q11.75 -15.25 9.9 -14.75 L10.0 -14.95 10.3 -15.5 10.45 -15.85 10.65 -16.05 10.8 -16.25 11.0 -16.65 11.1 -16.8 11.2 -17.0 11.5 -17.2 11.9 -17.55 12.05 -17.75 12.15 -17.95 Q12.2 -18.05 12.25 -18.1 12.25 -18.2 12.25 -18.3 L12.2 -18.5 12.05 -18.7 11.5 -18.95 Q11.35 -19.0 11.25 -19.0 L10.85 -18.85 10.65 -18.7 10.0 -18.2 6.55 -15.95 5.75 -16.1 Q5.8 -16.6 5.8 -17.05 L5.55 -18.2 5.35 -18.35 5.0 -18.5 4.7 -18.4 4.55 -18.35 4.2 -18.1 3.8 -17.85 3.0 -17.15 2.25 -16.55 2.25 -16.75 2.3 -18.05 2.05 -19.2 1.85 -19.35 1.5 -19.5 1.2 -19.4 1.05 -19.35 0.95 -19.25 0.4 -18.25 0.0 -17.85 0.05 -20.85 Q0.15 -22.35 -0.2 -23.7 L-0.4 -23.85 -0.75 -24.0 -0.75 -23.95 -1.35 -23.65 -1.5 -23.5 -1.5 -23.3 -1.5 -22.2 -1.5 -21.45 -1.7 -20.85 -1.8 -20.5 Q-1.85 -20.4 -1.85 -20.3 L-2.15 -20.1 -2.35 -19.95 -2.5 -19.75 -2.5 -19.55 -2.45 -17.85 -2.55 -16.6 -2.6 -16.7 -2.75 -16.8 -2.95 -17.7 -3.15 -17.85 -3.5 -18.0 -3.5 -17.95 -3.8 -17.9 -3.95 -17.85 -4.05 -17.75 -4.1 -17.6 -4.25 -17.55 -4.45 -17.35 -4.5 -17.0 -4.5 -16.65 -4.45 -16.45 -4.3 -16.25 -4.25 -16.2 -4.25 -15.85 Q-4.2 -15.25 -4.3 -14.7 L-4.5 -14.85 -4.95 -15.55 -5.1 -15.95 -5.35 -16.1 -5.75 -16.25 -6.05 -16.15 -6.2 -16.1 -6.3 -16.0 -6.4 -15.8 -6.45 -13.55 -6.4 -13.1 -7.15 -12.75 -7.55 -13.65 -8.5 -15.55 -8.5 -15.75 -8.5 -15.95 -8.5 -16.1 -8.6 -16.3 -8.7 -16.5 -8.85 -16.7 -9.1 -16.85 -9.5 -17.0 -10.1 -16.65 -10.25 -16.5 -10.25 -16.3 -10.2 -14.25 -10.3 -12.7 -10.65 -13.0 -10.75 -13.2 -10.75 -13.35 -10.85 -13.55 Q-10.9 -13.65 -10.95 -13.75 L-11.5 -14.3 -12.1 -14.85 -12.5 -15.0 -12.8 -14.9 -12.95 -14.85 -13.05 -14.75 -13.2 -14.35 -13.2 -13.65 -13.05 -13.25 -13.0 -12.7 -13.0 -12.3 -13.05 -12.2 -13.15 -12.25 -13.65 -13.0 -14.0 -13.35 -14.0 -13.55 -14.05 -13.75 -14.2 -13.95 -14.4 -14.1 -14.75 -14.25 -15.05 -14.15 -15.25 -14.05 -15.45 -13.85 -15.5 -13.5 -15.5 -13.15 -15.45 -12.95 -15.3 -12.55 -15.25 -12.35 -15.25 -12.2 -14.3 -10.55 -13.6 -8.8 -13.35 -8.4 -13.1 -8.1 -13.05 -7.95 -20.3 -7.85 -20.55 -7.75 -20.7 -7.35 -20.7 -7.0 -20.6 -6.8 Q-18.95 -6.15 -17.05 -6.2 -15.5 -5.5 -13.75 -5.35 L-13.8 -5.35 -13.95 -5.2 -13.95 -5.0 -14.0 -4.45 -14.0 -4.25 -18.0 -3.0 -18.0 -2.6 -17.95 -2.25 -17.85 -2.05 Q-17.05 -1.6 -16.0 -1.5 L-16.25 -1.35 -24.2 -1.1 -24.35 -0.95 Q-24.45 -0.85 -24.55 -0.75 L-24.7 -0.55 -24.75 -0.2;M-9.35 15.8 L-9.35 15.8 -9.15 15.35 -8.4 14.6 Q-7.95 14.05 -6.65 13.8 L-9.35 15.8 M-13.3 3.35 L-13.3 3.35 Q-13.25 4.3 -12.65 5.0 L-12.6 5.1 -12.45 5.9 -12.45 5.95 -12.65 6.1 -12.35 6.3 -12.25 6.3 -12.1 6.5 -12.0 6.65 -11.1 7.25 -6.7 9.95 -6.5 10.05 -4.9 10.9 -4.9 10.9 -4.8 10.9 -4.7 11.0 -3.5 11.6 -2.8 12.0 -2.75 12.05 -2.65 12.1 -2.45 12.25 -2.3 12.35 -2.1 12.45 -2.1 12.45 -1.95 12.5 -1.8 12.6 -1.6 12.65 -1.35 12.7 -1.15 12.7 -0.95 12.65 -0.75 12.7 -0.65 12.7 0.95 12.0 1.05 11.9 2.1 11.2 3.05 10.6 3.35 10.5 3.85 10.25 3.85 10.25 4.45 9.85 4.55 9.85 6.1 9.35 6.4 9.25 7.55 8.85 8.4 8.4 9.7 7.35 10.25 6.6 10.3 6.55 10.4 6.4 10.35 6.4 10.65 5.4 10.7 4.5 10.65 4.0 11.2 2.25 11.4 1.3 11.3 0.2 11.4 -0.2 11.4 -0.4 11.5 -1.2 11.5 -1.3 11.5 -1.6 11.5 -1.9 11.5 -2.0 11.5 -2.3 11.5 -2.6 11.4 -3.55 10.95 -4.7 Q11.35 -5.75 10.8 -6.75 L10.2 -7.55 8.8 -8.35 5.05 -10.45 5.05 -10.45 4.95 -10.55 4.85 -10.65 4.85 -10.65 4.85 -10.65 4.65 -10.75 4.45 -10.85 4.25 -11.05 4.05 -11.15 3.85 -11.25 3.65 -11.4 3.45 -11.5 3.25 -11.6 1.35 -12.7 0.45 -13.2 -0.85 -13.2 -1.1 -13.15 -1.2 -13.15 -1.25 -13.1 -1.3 -13.15 -1.45 -13.15 -1.85 -13.15 -2.6 -13.05 -2.9 -13.0 Q-3.8 -12.75 -4.3 -12.0 -4.9 -11.7 -5.45 -11.4 L-5.9 -11.05 -7.2 -10.1 -8.6 -9.65 -9.0 -9.4 -9.1 -9.3 -9.95 -8.65 -10.15 -8.45 -10.95 -7.85 -11.05 -7.75 -12.05 -6.8 -12.2 -6.55 -12.2 -6.45 Q-12.65 -5.7 -12.55 -4.65 L-12.65 -4.25 -13.05 -2.65 -12.65 0.25 Q-13.0 1.3 -13.3 2.35 L-13.3 3.35 M-23.65 2.45 L-23.65 2.55 -23.45 2.95 -23.35 3.1 -23.2 3.15 -22.7 3.45 -22.35 3.65 -22.2 3.75 -21.85 3.85 -21.6 3.85 -21.45 3.9 Q-21.35 3.95 -21.3 4.0 L-21.15 4.1 -20.95 4.2 -20.8 4.3 -20.6 4.3 -19.65 4.55 -18.95 4.8 -19.6 5.15 Q-20.95 5.5 -22.0 6.45 L-22.05 6.9 -22.0 7.1 -21.9 7.35 -21.75 7.45 -21.6 7.55 -20.35 7.75 Q-19.95 7.7 -19.55 7.7 L-19.25 7.65 -19.0 7.6 -18.8 7.5 -17.6 7.65 -16.6 7.5 -16.4 7.55 -16.25 7.65 -16.05 7.7 -15.8 7.7 -14.8 7.8 -14.15 7.85 -14.65 9.45 -14.6 9.75 -14.5 10.0 -14.4 10.2 -14.25 10.4 -14.15 10.45 -13.95 10.55 -13.8 10.65 -13.65 10.75 -14.3 12.3 -14.2 12.5 -14.1 12.7 -14.0 12.8 -13.85 12.9 -13.6 13.0 -13.4 12.95 -12.35 12.2 -13.45 15.4 -13.35 15.55 -13.25 15.75 -13.15 15.9 -13.0 16.0 -12.8 16.1 -12.55 16.05 -12.05 15.75 -10.55 14.45 -10.6 14.6 -10.6 14.65 -11.9 17.3 -11.9 18.25 -11.8 18.4 -11.6 18.5 -11.45 18.6 -10.75 18.55 -10.25 18.35 -9.6 17.7 -9.55 17.65 Q-7.55 16.5 -5.7 15.0 -6.7 16.7 -6.75 18.55 L-6.6 18.75 -6.55 18.85 -6.35 18.95 -6.15 19.05 -5.9 19.0 -5.7 18.95 Q-5.0 18.2 -4.35 17.5 L-4.05 17.35 -3.85 17.2 Q-2.95 15.8 -2.05 15.1 L-1.7 15.3 -1.5 15.35 -1.35 15.4 -1.15 15.45 -0.9 15.45 -0.65 15.4 -0.55 15.35 -0.4 15.5 -0.2 16.25 -0.05 16.45 0.05 16.6 0.15 16.7 0.2 17.05 0.35 17.2 0.6 17.45 0.75 17.55 1.05 17.55 Q2.25 16.7 2.75 15.75 L3.05 16.65 3.3 17.1 3.3 17.45 3.3 17.8 3.4 18.0 3.5 18.2 3.6 18.35 3.7 19.3 4.05 20.3 3.95 20.65 3.95 20.8 4.0 21.0 4.15 21.15 4.2 21.3 4.4 21.4 4.55 21.45 4.85 21.45 5.05 21.35 5.35 21.1 5.6 20.65 5.7 20.4 5.65 20.15 Q5.65 18.15 6.1 16.25 L6.25 16.45 6.55 16.95 6.85 17.3 6.9 17.55 6.95 17.8 7.2 18.2 7.3 18.3 7.4 18.5 7.45 18.85 Q7.5 19.15 7.55 19.4 L7.65 19.65 7.8 19.8 7.9 19.95 8.05 20.05 8.2 20.1 8.5 20.1 8.95 19.75 9.15 19.55 9.2 19.15 9.2 18.85 9.05 18.05 8.85 13.95 9.4 13.35 10.15 13.85 11.3 14.2 11.55 14.15 11.8 13.9 11.9 13.55 11.95 13.45 11.9 13.0 11.85 12.55 Q11.75 12.0 11.65 11.5 L11.55 10.55 11.7 10.65 12.8 11.35 13.95 11.7 14.15 11.6 14.45 11.35 14.5 11.05 14.55 10.9 14.5 10.75 13.9 9.8 13.75 9.25 16.35 10.8 Q17.6 11.65 18.9 12.0 L19.15 11.9 19.5 11.65 19.45 11.65 19.5 11.0 19.4 10.75 19.25 10.65 18.3 10.1 17.65 9.75 17.2 9.3 16.95 9.0 16.85 8.85 16.8 8.5 16.8 8.25 16.65 8.05 16.5 7.95 15.0 7.15 14.0 6.4 14.05 6.4 14.25 6.3 15.15 6.6 15.35 6.5 Q15.5 6.35 15.65 6.25 L15.6 6.25 15.7 5.95 15.75 5.85 15.7 5.7 15.6 5.55 15.65 5.4 15.6 5.15 15.25 4.9 14.95 4.75 14.8 4.7 14.5 4.75 14.5 4.7 14.2 4.55 13.2 3.95 13.4 3.85 14.25 3.8 14.65 3.9 14.95 3.7 15.25 3.45 15.35 3.15 Q15.35 3.05 15.35 3.0 15.3 2.9 15.3 2.85 L15.2 2.65 Q14.35 2.0 13.3 1.5 L12.85 1.3 12.95 0.5 13.9 0.6 16.0 0.75 16.2 0.85 16.35 0.95 16.5 1.0 Q16.6 1.0 16.7 1.0 L16.95 1.0 17.2 1.0 17.45 0.85 17.75 0.55 17.75 -0.1 17.75 -0.35 17.55 -0.45 15.75 -1.4 14.45 -2.25 14.9 -2.4 15.15 -2.4 15.25 -2.3 15.5 -2.3 15.7 -2.3 16.45 -2.5 17.2 -2.75 17.55 -3.05 Q17.6 -3.2 17.6 -3.35 L17.65 -3.45 17.6 -3.6 17.35 -3.95 16.7 -4.3 16.3 -4.35 Q16.05 -4.4 15.8 -4.6 L15.45 -4.8 15.4 -4.9 15.5 -4.95 16.4 -5.0 16.85 -5.1 17.05 -5.0 17.25 -4.95 17.5 -5.0 17.7 -5.1 18.05 -5.3 18.1 -5.65 18.1 -5.85 18.05 -6.15 17.75 -6.35 Q17.55 -6.45 17.45 -6.5 L17.25 -6.6 Q17.0 -6.65 16.8 -6.65 L16.65 -6.7 16.5 -6.8 14.6 -6.8 12.7 -7.1 12.25 -7.05 11.85 -7.0 11.75 -7.0 15.25 -13.35 15.3 -13.6 15.0 -13.95 14.7 -14.15 14.5 -14.15 Q13.15 -13.0 12.2 -11.35 10.8 -10.35 9.85 -8.9 L9.85 -8.95 9.8 -9.2 9.65 -9.3 Q9.35 -9.45 9.15 -9.55 L9.0 -9.65 9.9 -13.8 9.55 -14.0 9.25 -14.1 9.05 -14.1 Q8.25 -13.65 7.6 -12.8 L7.6 -13.05 11.35 -20.1 11.3 -20.3 11.25 -20.55 11.15 -20.8 10.85 -21.05 10.65 -21.1 10.45 -21.1 8.55 -19.0 8.45 -19.2 8.25 -19.35 7.95 -19.5 7.8 -19.55 7.55 -19.55 7.35 -19.5 7.0 -19.25 1.7 -14.05 1.5 -14.0 1.15 -13.65 1.1 -13.55 Q0.9 -13.35 0.75 -13.2 L0.8 -13.55 0.7 -13.9 0.85 -14.55 1.1 -18.8 1.05 -19.05 0.95 -19.3 0.9 -19.55 0.6 -19.7 0.4 -19.8 0.2 -19.8 Q-1.25 -19.05 -1.55 -17.25 L-1.45 -17.1 -1.4 -16.85 -1.35 -16.5 -1.9 -15.75 -2.0 -15.95 -2.2 -16.2 -2.2 -16.35 -2.25 -16.6 -2.3 -16.85 -2.4 -17.1 -2.55 -17.2 -2.7 -17.3 -2.85 -17.35 -3.05 -17.45 -3.1 -17.45 -3.2 -17.55 -3.35 -17.65 -4.5 -18.35 -5.4 -18.7 -5.9 -18.25 -6.05 -18.1 -6.15 -17.7 -5.9 -16.6 -5.65 -15.65 Q-6.1 -16.25 -6.55 -16.8 L-7.15 -17.6 -7.45 -17.75 -8.15 -18.1 -8.55 -18.2 -8.8 -18.1 -9.1 -17.85 -9.25 -17.55 -9.25 -17.4 -9.35 -17.35 -9.8 -17.65 -10.15 -17.85 -10.3 -17.9 -10.4 -18.1 -10.55 -18.3 -10.65 -18.45 -10.95 -18.65 -11.5 -18.85 -11.9 -18.95 -12.1 -18.85 -12.45 -18.6 -12.55 -18.3 -12.55 -18.15 -12.45 -18.0 -12.15 -17.5 -11.9 -17.1 -12.1 -16.7 -12.2 -16.3 -12.15 -16.0 -12.0 -15.45 -11.95 -15.2 -11.95 -14.5 Q-12.25 -11.75 -11.5 -9.15 L-11.7 -9.15 -12.15 -9.05 -12.4 -9.05 -12.7 -9.25 -13.05 -9.45 -13.25 -9.5 -14.4 -9.4 -15.05 -9.35 -15.55 -8.55 -15.75 -8.15 -15.65 -7.95 -15.1 -7.1 -14.7 -6.6 -15.65 -6.7 -16.65 -6.55 -17.2 -5.75 -17.35 -5.35 -17.6 -5.35 -18.25 -5.4 -18.65 -5.4 -18.8 -5.5 -19.0 -5.6 -19.15 -5.7 -19.35 -5.75 -19.55 -5.75 -19.85 -5.65 -20.05 -5.55 -20.4 -5.3 -20.5 -5.0 -20.5 -4.85 -20.45 -4.7 -20.35 -4.4 -19.65 -3.25 -18.8 -2.35 -18.45 -2.15 -18.1 -1.95 -18.1 -1.9 -18.1 -1.65 -18.35 -1.75 Q-18.45 -1.8 -18.5 -1.85 -19.1 -1.8 -19.65 -1.8 L-20.3 -1.7 -20.65 -1.35 -20.75 -1.1 -20.75 -0.95 -20.55 -0.6 -20.45 -0.4 -20.3 -0.3 -20.1 -0.2 -18.5 0.7 Q-17.9 1.05 -17.3 1.4 L-17.35 1.4 -17.6 1.55 -19.8 1.75 Q-21.5 1.6 -23.2 1.8 L-23.55 2.15 -23.65 2.45"/>
    </path>
    <path d="M-24.75 -0.2 L-24.7 -0.55 -24.55 -0.75 Q-24.45 -0.85 -24.35 -0.95 L-24.2 -1.1 -16.25 -1.35 -16.0 -1.5 Q-17.05 -1.6 -17.85 -2.05 L-17.95 -2.25 -18.0 -2.6 -18.0 -3.0 -14.0 -4.25 -14.0 -4.45 -13.95 -5.0 -13.95 -5.2 -13.8 -5.35 -13.75 -5.35 Q-15.5 -5.5 -17.05 -6.2 -18.95 -6.15 -20.6 -6.8 L-20.7 -7.0 -20.7 -7.35 -20.55 -7.75 -20.3 -7.85 -13.05 -7.95 -13.1 -8.1 -13.35 -8.4 -13.6 -8.8 -14.3 -10.55 -15.25 -12.2 -15.25 -12.35 -15.3 -12.55 -15.45 -12.95 -15.5 -13.15 -15.5 -13.5 -15.45 -13.85 -15.25 -14.05 -15.05 -14.15 -14.75 -14.25 -14.4 -14.1 -14.2 -13.95 -14.05 -13.75 -14.0 -13.55 -14.0 -13.35 -13.65 -13.0 -13.15 -12.25 -13.05 -12.2 -13.0 -12.3 -13.0 -12.7 -13.05 -13.25 -13.2 -13.65 -13.2 -14.35 -13.05 -14.75 -12.95 -14.85 -12.8 -14.9 -12.5 -15.0 -12.1 -14.85 -11.5 -14.3 -10.95 -13.75 Q-10.9 -13.65 -10.85 -13.55 L-10.75 -13.35 -10.75 -13.2 -10.65 -13.0 -10.3 -12.7 -10.2 -14.25 -10.25 -16.3 -10.25 -16.5 -10.1 -16.65 -9.5 -17.0 -9.1 -16.85 -8.85 -16.7 -8.7 -16.5 -8.6 -16.3 -8.5 -16.1 -8.5 -15.95 -8.5 -15.75 -8.5 -15.55 -7.55 -13.65 -7.15 -12.75 -6.4 -13.1 -6.45 -13.55 -6.4 -15.8 -6.3 -16.0 -6.2 -16.1 -6.05 -16.15 -5.75 -16.25 -5.35 -16.1 -5.1 -15.95 -4.95 -15.55 -4.5 -14.85 -4.3 -14.7 Q-4.2 -15.25 -4.25 -15.85 L-4.25 -16.2 -4.3 -16.25 -4.45 -16.45 -4.5 -16.65 -4.5 -17.0 -4.45 -17.35 -4.25 -17.55 -4.1 -17.6 -4.05 -17.75 -3.95 -17.85 -3.8 -17.9 -3.5 -17.95 -3.5 -18.0 -3.15 -17.85 -2.95 -17.7 -2.75 -16.8 -2.6 -16.7 -2.55 -16.6 -2.45 -17.85 -2.5 -19.55 -2.5 -19.75 -2.35 -19.95 -2.15 -20.1 -1.85 -20.3 Q-1.85 -20.4 -1.8 -20.5 L-1.7 -20.85 -1.5 -21.45 -1.5 -22.2 -1.5 -23.3 -1.5 -23.5 -1.35 -23.65 -0.75 -23.95 -0.75 -24.0 -0.4 -23.85 -0.2 -23.7 Q0.15 -22.35 0.05 -20.85 L0.0 -17.85 0.4 -18.25 0.95 -19.25 1.05 -19.35 1.2 -19.4 1.5 -19.5 1.85 -19.35 2.05 -19.2 2.3 -18.05 2.25 -16.75 2.25 -16.55 3.0 -17.15 3.8 -17.85 4.2 -18.1 4.55 -18.35 4.7 -18.4 5.0 -18.5 5.35 -18.35 5.55 -18.2 5.8 -17.05 Q5.8 -16.6 5.75 -16.1 L6.55 -15.95 10.0 -18.2 10.65 -18.7 10.85 -18.85 11.25 -19.0 Q11.35 -19.0 11.5 -18.95 L12.05 -18.7 12.2 -18.5 12.25 -18.3 Q12.25 -18.2 12.25 -18.1 12.2 -18.05 12.15 -17.95 L12.05 -17.75 11.9 -17.55 11.5 -17.2 11.2 -17.0 11.1 -16.8 11.0 -16.65 10.8 -16.25 10.65 -16.05 10.45 -15.85 10.3 -15.5 10.0 -14.95 9.9 -14.75 Q11.75 -15.25 13.5 -16.3 L13.7 -16.45 Q13.85 -16.45 14.0 -16.5 L14.5 -16.5 14.85 -16.35 15.05 -16.2 15.2 -16.0 15.25 -15.8 15.25 -15.6 15.15 -15.45 15.05 -15.25 14.95 -15.1 14.8 -15.05 14.45 -14.95 13.75 -14.15 13.0 -13.6 12.9 -13.45 Q12.85 -13.35 12.75 -13.25 L12.65 -13.05 12.35 -12.9 12.05 -12.7 11.8 -12.3 11.15 -11.55 Q12.25 -11.6 13.55 -10.95 L13.7 -10.75 13.7 -10.55 13.65 -10.2 13.55 -10.0 13.3 -9.8 13.25 -9.65 13.15 -9.45 13.05 -9.25 12.55 -8.7 12.45 -8.5 12.5 -8.45 12.7 -8.25 12.8 -8.05 12.9 -7.85 12.95 -7.7 13.0 -7.5 13.0 -7.1 Q14.05 -6.65 15.7 -6.6 L15.95 -6.45 16.2 -6.3 18.1 -5.85 18.3 -5.7 18.45 -5.5 18.5 -5.3 18.5 -5.1 Q18.45 -5.05 18.4 -4.95 L18.3 -4.75 Q16.7 -3.85 14.75 -3.85 16.95 -3.0 18.95 -1.85 L19.0 -1.85 19.9 -1.6 20.3 -1.25 20.7 -0.7 20.7 -0.5 20.7 -0.3 20.65 -0.1 19.8 0.35 16.85 0.55 16.8 0.55 16.7 0.6 18.55 1.25 19.05 1.55 19.2 1.75 19.25 1.95 19.25 2.15 19.15 2.3 19.05 2.5 18.95 2.65 15.65 3.3 Q16.3 3.4 16.8 3.8 L16.95 4.0 17.0 4.2 17.0 4.4 16.9 4.55 16.8 4.75 16.7 4.9 15.0 5.15 15.0 5.3 15.0 5.5 15.0 5.7 15.0 5.85 14.9 6.05 14.8 6.25 14.6 6.45 14.4 6.65 12.75 7.05 13.05 7.6 13.45 8.55 13.55 8.75 13.6 8.95 13.65 9.15 Q13.65 9.2 13.7 9.3 L14.3 10.1 14.8 11.2 14.95 11.35 15.15 11.55 15.3 11.75 15.75 12.45 16.25 13.65 16.25 13.8 16.2 14.0 16.05 14.2 15.85 14.35 15.5 14.5 Q14.15 14.1 13.15 13.1 L12.5 12.7 12.65 13.45 12.95 14.4 13.0 14.55 13.0 14.75 13.0 14.95 13.0 15.15 13.0 15.3 13.05 15.5 13.15 15.7 13.25 16.05 13.25 16.25 13.25 16.65 13.25 17.2 13.25 17.35 13.15 17.55 12.95 17.9 12.8 17.95 12.5 18.0 12.05 17.9 10.3 14.95 Q9.8 13.9 9.0 13.15 L8.8 13.0 8.75 13.0 8.75 14.4 8.75 16.25 8.75 16.45 8.75 16.6 8.65 16.8 8.45 17.15 8.3 17.2 Q8.15 17.2 8.0 17.25 L7.55 17.15 7.15 16.6 6.55 15.65 6.5 15.45 6.5 15.2 6.3 15.3 6.25 15.35 6.25 15.75 6.25 16.15 5.9 17.3 5.25 18.55 5.05 18.75 4.95 18.9 4.8 18.95 4.5 19.0 4.1 18.85 3.9 18.7 3.7 18.5 3.6 18.3 3.5 18.15 3.5 17.95 3.5 17.75 Q3.5 17.65 3.5 17.55 L3.35 17.2 3.05 16.65 2.95 16.4 2.5 16.45 1.55 16.4 0.95 15.6 0.5 14.75 0.3 15.3 -0.2 16.25 -0.3 16.4 -0.75 16.45 -1.7 16.4 -2.1 15.85 -2.7 14.9 -2.75 14.7 -2.75 14.3 -2.75 13.95 Q-2.8 13.85 -2.9 13.75 L-3.2 13.4 -3.3 13.25 Q-5.15 15.2 -7.65 16.3 L-8.3 16.65 -8.5 16.8 -8.9 17.2 -9.1 17.4 -9.5 17.5 -10.0 17.55 Q-10.1 17.75 -10.2 17.95 -10.3 18.2 -10.45 18.5 L-10.55 18.65 -10.7 18.7 -11.0 18.75 -11.4 18.6 -11.6 18.45 -11.7 18.05 -11.75 17.5 -11.75 17.15 -11.7 16.95 -11.6 16.75 -11.5 16.55 -11.5 16.4 -11.5 16.0 -11.5 15.45 -11.55 15.4 -11.7 15.45 -12.0 15.5 -12.4 15.35 -12.6 15.2 -12.7 14.8 -12.75 14.05 -12.75 13.7 -12.4 12.75 -11.85 11.45 -12.55 12.15 -13.35 12.9 -13.75 13.0 -14.0 12.95 -14.6 12.7 -14.8 11.75 -14.75 10.45 -14.75 10.25 -14.65 10.1 -14.7 10.05 -14.75 9.85 -14.75 9.7 -14.75 9.5 -14.7 9.3 -14.55 9.15 -14.35 8.95 -14.2 8.75 -14.05 8.7 -13.9 8.4 -13.8 8.2 -14.75 8.15 -15.0 8.3 -15.2 8.5 -15.3 8.65 Q-17.0 9.3 -18.35 8.45 L-18.45 8.25 -18.5 8.05 -18.45 7.7 -18.3 7.5 -18.1 7.3 -17.95 7.15 Q-16.1 6.05 -14.15 5.25 L-13.5 5.0 -13.25 4.8 -12.95 4.65 -13.4 4.5 -13.5 4.5 -14.0 4.4 -14.15 4.25 Q-17.55 3.1 -21.3 2.25 L-21.65 2.1 -21.85 1.95 -21.95 1.75 -22.0 1.55 -22.0 1.2 -21.95 1.0 -21.85 0.8 -24.6 0.2 -24.7 0.0 -24.75 -0.2 M-12.75 -6.35 L-12.35 -7.3 Q-10.65 -8.55 -10.6 -8.65 L-8.3 -10.4 -6.6 -11.2 -6.3 -11.45 Q-5.65 -12.0 -4.8 -12.15 L-4.7 -12.15 -4.2 -12.25 -3.0 -12.55 -2.85 -12.65 -2.05 -13.15 -1.8 -13.25 -0.75 -13.45 -0.55 -13.5 -0.3 -13.5 1.05 -13.25 2.25 -12.6 2.75 -12.25 Q3.3 -11.85 3.8 -11.4 4.45 -10.8 5.1 -10.2 L5.2 -10.1 5.85 -9.75 6.1 -9.55 6.3 -9.45 6.3 -9.45 6.3 -9.45 6.3 -9.45 6.5 -9.25 7.75 -8.65 8.65 -8.15 10.25 -7.0 10.35 -6.8 10.45 -6.65 10.55 -6.45 10.65 -6.25 10.7 -6.05 10.7 -5.9 10.75 -5.7 10.75 -5.5 10.75 -5.3 10.7 -5.2 10.7 -5.1 10.7 -4.95 10.7 -4.9 10.85 -0.45 10.85 1.15 10.85 1.95 Q10.8 2.95 10.75 3.95 L10.65 4.95 10.65 5.75 10.55 5.95 10.45 6.15 10.5 6.25 10.5 6.6 10.25 6.55 10.2 6.55 9.6 7.05 9.5 7.15 9.35 7.65 8.45 8.55 7.5 9.05 5.75 9.55 5.45 9.55 4.85 10.15 4.05 10.8 4.05 10.8 3.75 11.0 3.75 11.0 3.1 11.3 1.15 11.9 0.5 12.25 -0.7 12.5 -1.0 12.5 -2.45 12.15 -2.55 12.15 -3.25 11.8 -3.35 11.7 -3.95 11.5 -4.3 11.4 -5.2 10.95 -6.15 10.1 -6.25 10.0 -7.75 9.35 -7.75 9.35 -7.9 9.25 -8.2 9.15 -8.5 9.0 -8.75 8.8 -8.85 8.8 -8.95 8.7 -9.15 8.6 -9.35 8.45 -9.45 8.45 -9.55 8.45 -9.75 8.4 -9.85 8.4 -9.85 8.4 -10.9 7.7 -11.8 6.55 -11.85 6.4 -11.85 6.35 -11.9 6.3 -12.75 4.9 -12.75 4.8 -12.75 -0.2 -12.75 -1.2 -12.75 -1.3 -12.75 -1.5 -12.75 -1.6 -12.75 -2.0 -12.75 -2.5 -12.75 -2.5 -12.75 -3.4 -12.75 -3.6 Q-12.75 -4.55 -12.75 -5.5 L-12.75 -6.35 M-10.0 14.3 L-9.55 13.25 Q-9.45 13.8 -9.6 13.95 L-9.7 14.05 -9.8 14.2 -10.0 14.3 M13.85 -2.6 L14.3 -2.0 Q15.5 -1.55 16.7 -1.1 L13.85 -2.6 Z" fill="none" stroke="#000000" stroke-linecap="round" stroke-linejoin="round" stroke-opacity="0.0" stroke-width="0.0">
      <animate attributeName="stroke" dur="2s" repeatCount="indefinite" values="#000000;#000001"/>
      <animate attributeName="stroke-width" dur="2s" repeatCount="indefinite" values="0.0;0.0"/>
      <animate attributeName="fill-opacity" dur="2s" repeatCount="indefinite" values="0.0;0.0"/>
      <animate attributeName="d" dur="2s" repeatCount="indefinite" values="M-24.75 -0.2 L-24.7 -0.55 -24.55 -0.75 Q-24.45 -0.85 -24.35 -0.95 L-24.2 -1.1 -16.25 -1.35 -16.0 -1.5 Q-17.05 -1.6 -17.85 -2.05 L-17.95 -2.25 -18.0 -2.6 -18.0 -3.0 -14.0 -4.25 -14.0 -4.45 -13.95 -5.0 -13.95 -5.2 -13.8 -5.35 -13.75 -5.35 Q-15.5 -5.5 -17.05 -6.2 -18.95 -6.15 -20.6 -6.8 L-20.7 -7.0 -20.7 -7.35 -20.55 -7.75 -20.3 -7.85 -13.05 -7.95 -13.1 -8.1 -13.35 -8.4 -13.6 -8.8 -14.3 -10.55 -15.25 -12.2 -15.25 -12.35 -15.3 -12.55 -15.45 -12.95 -15.5 -13.15 -15.5 -13.5 -15.45 -13.85 -15.25 -14.05 -15.05 -14.15 -14.75 -14.25 -14.4 -14.1 -14.2 -13.95 -14.05 -13.75 -14.0 -13.55 -14.0 -13.35 -13.65 -13.0 -13.15 -12.25 -13.05 -12.2 -13.0 -12.3 -13.0 -12.7 -13.05 -13.25 -13.2 -13.65 -13.2 -14.35 -13.05 -14.75 -12.95 -14.85 -12.8 -14.9 -12.5 -15.0 -12.1 -14.85 -11.5 -14.3 -10.95 -13.75 Q-10.9 -13.65 -10.85 -13.55 L-10.75 -13.35 -10.75 -13.2 -10.65 -13.0 -10.3 -12.7 -10.2 -14.25 -10.25 -16.3 -10.25 -16.5 -10.1 -16.65 -9.5 -17.0 -9.1 -16.85 -8.85 -16.7 -8.7 -16.5 -8.6 -16.3 -8.5 -16.1 -8.5 -15.95 -8.5 -15.75 -8.5 -15.55 -7.55 -13.65 -7.15 -12.75 -6.4 -13.1 -6.45 -13.55 -6.4 -15.8 -6.3 -16.0 -6.2 -16.1 -6.05 -16.15 -5.75 -16.25 -5.35 -16.1 -5.1 -15.95 -4.95 -15.55 -4.5 -14.85 -4.3 -14.7 Q-4.2 -15.25 -4.25 -15.85 L-4.25 -16.2 -4.3 -16.25 -4.45 -16.45 -4.5 -16.65 -4.5 -17.0 -4.45 -17.35 -4.25 -17.55 -4.1 -17.6 -4.05 -17.75 -3.95 -17.85 -3.8 -17.9 -3.5 -17.95 -3.5 -18.0 -3.15 -17.85 -2.95 -17.7 -2.75 -16.8 -2.6 -16.7 -2.55 -16.6 -2.45 -17.85 -2.5 -19.55 -2.5 -19.75 -2.35 -19.95 -2.15 -20.1 -1.85 -20.3 Q-1.85 -20.4 -1.8 -20.5 L-1.7 -20.85 -1.5 -21.45 -1.5 -22.2 -1.5 -23.3 -1.5 -23.5 -1.35 -23.65 -0.75 -23.95 -0.75 -24.0 -0.4 -23.85 -0.2 -23.7 Q0.15 -22.35 0.05 -20.85 L0.0 -17.85 0.4 -18.25 0.95 -19.25 1.05 -19.35 1.2 -19.4 1.5 -19.5 1.85 -19.35 2.05 -19.2 2.3 -18.05 2.25 -16.75 2.25 -16.55 3.0 -17.15 3.8 -17.85 4.2 -18.1 4.55 -18.35 4.7 -18.4 5.0 -18.5 5.35 -18.35 5.55 -18.2 5.8 -17.05 Q5.8 -16.6 5.75 -16.1 L6.55 -15.95 10.0 -18.2 10.65 -18.7 10.85 -18.85 11.25 -19.0 Q11.35 -19.0 11.5 -18.95 L12.05 -18.7 12.2 -18.5 12.25 -18.3 Q12.25 -18.2 12.25 -18.1 12.2 -18.05 12.15 -17.95 L12.05 -17.75 11.9 -17.55 11.5 -17.2 11.2 -17.0 11.1 -16.8 11.0 -16.65 10.8 -16.25 10.65 -16.05 10.45 -15.85 10.3 -15.5 10.0 -14.95 9.9 -14.75 Q11.75 -15.25 13.5 -16.3 L13.7 -16.45 Q13.85 -16.45 14.0 -16.5 L14.5 -16.5 14.85 -16.35 15.05 -16.2 15.2 -16.0 15.25 -15.8 15.25 -15.6 15.15 -15.45 15.05 -15.25 14.95 -15.1 14.8 -15.05 14.45 -14.95 13.75 -14.15 13.0 -13.6 12.9 -13.45 Q12.85 -13.35 12.75 -13.25 L12.65 -13.05 12.35 -12.9 12.05 -12.7 11.8 -12.3 11.15 -11.55 Q12.25 -11.6 13.55 -10.95 L13.7 -10.75 13.7 -10.55 13.65 -10.2 13.55 -10.0 13.3 -9.8 13.25 -9.65 13.15 -9.45 13.05 -9.25 12.55 -8.7 12.45 -8.5 12.5 -8.45 12.7 -8.25 12.8 -8.05 12.9 -7.85 12.95 -7.7 13.0 -7.5 13.0 -7.1 Q14.05 -6.65 15.7 -6.6 L15.95 -6.45 16.2 -6.3 18.1 -5.85 18.3 -5.7 18.45 -5.5 18.5 -5.3 18.5 -5.1 Q18.45 -5.05 18.4 -4.95 L18.3 -4.75 Q16.7 -3.85 14.75 -3.85 16.95 -3.0 18.95 -1.85 L19.0 -1.85 19.9 -1.6 20.3 -1.25 20.7 -0.7 20.7 -0.5 20.7 -0.3 20.65 -0.1 19.8 0.35 16.85 0.55 16.8 0.55 16.7 0.6 18.55 1.25 19.05 1.55 19.2 1.75 19.25 1.95 19.25 2.15 19.15 2.3 19.05 2.5 18.95 2.65 15.65 3.3 Q16.3 3.4 16.8 3.8 L16.95 4.0 17.0 4.2 17.0 4.4 16.9 4.55 16.8 4.75 16.7 4.9 15.0 5.15 15.0 5.3 15.0 5.5 15.0 5.7 15.0 5.85 14.9 6.05 14.8 6.25 14.6 6.45 14.4 6.65 12.75 7.05 13.05 7.6 13.45 8.55 13.55 8.75 13.6 8.95 13.65 9.15 Q13.65 9.2 13.7 9.3 L14.3 10.1 14.8 11.2 14.95 11.35 15.15 11.55 15.3 11.75 15.75 12.45 16.25 13.65 16.25 13.8 16.2 14.0 16.05 14.2 15.85 14.35 15.5 14.5 Q14.15 14.1 13.15 13.1 L12.5 12.7 12.65 13.45 12.95 14.4 13.0 14.55 13.0 14.75 13.0 14.95 13.0 15.15 13.0 15.3 13.05 15.5 13.15 15.7 13.25 16.05 13.25 16.25 13.25 16.65 13.25 17.2 13.25 17.35 13.15 17.55 12.95 17.9 12.8 17.95 12.5 18.0 12.05 17.9 10.3 14.95 Q9.8 13.9 9.0 13.15 L8.8 13.0 8.75 13.0 8.75 14.4 8.75 16.25 8.75 16.45 8.75 16.6 8.65 16.8 8.45 17.15 8.3 17.2 Q8.15 17.2 8.0 17.25 L7.55 17.15 7.15 16.6 6.55 15.65 6.5 15.45 6.5 15.2 6.3 15.3 6.25 15.35 6.25 15.75 6.25 16.15 5.9 17.3 5.25 18.55 5.05 18.75 4.95 18.9 4.8 18.95 4.5 19.0 4.1 18.85 3.9 18.7 3.7 18.5 3.6 18.3 3.5 18.15 3.5 17.95 3.5 17.75 Q3.5 17.65 3.5 17.55 L3.35 17.2 3.05 16.65 2.95 16.4 2.5 16.45 1.55 16.4 0.95 15.6 0.5 14.75 0.3 15.3 -0.2 16.25 -0.3 16.4 -0.75 16.45 -1.7 16.4 -2.1 15.85 -2.7 14.9 -2.75 14.7 -2.75 14.3 -2.75 13.95 Q-2.8 13.85 -2.9 13.75 L-3.2 13.4 -3.3 13.25 Q-5.15 15.2 -7.65 16.3 L-8.3 16.65 -8.5 16.8 -8.9 17.2 -9.1 17.4 -9.5 17.5 -10.0 17.55 Q-10.1 17.75 -10.2 17.95 -10.3 18.2 -10.45 18.5 L-10.55 18.65 -10.7 18.7 -11.0 18.75 -11.4 18.6 -11.6 18.45 -11.7 18.05 -11.75 17.5 -11.75 17.15 -11.7 16.95 -11.6 16.75 -11.5 16.55 -11.5 16.4 -11.5 16.0 -11.5 15.45 -11.55 15.4 -11.7 15.45 -12.0 15.5 -12.4 15.35 -12.6 15.2 -12.7 14.8 -12.75 14.05 -12.75 13.7 -12.4 12.75 -11.85 11.45 -12.55 12.15 -13.35 12.9 -13.75 13.0 -14.0 12.95 -14.6 12.7 -14.8 11.75 -14.75 10.45 -14.75 10.25 -14.65 10.1 -14.7 10.05 -14.75 9.85 -14.75 9.7 -14.75 9.5 -14.7 9.3 -14.55 9.15 -14.35 8.95 -14.2 8.75 -14.05 8.7 -13.9 8.4 -13.8 8.2 -14.75 8.15 -15.0 8.3 -15.2 8.5 -15.3 8.65 Q-17.0 9.3 -18.35 8.45 L-18.45 8.25 -18.5 8.05 -18.45 7.7 -18.3 7.5 -18.1 7.3 -17.95 7.15 Q-16.1 6.05 -14.15 5.25 L-13.5 5.0 -13.25 4.8 -12.95 4.65 -13.4 4.5 -13.5 4.5 -14.0 4.4 -14.15 4.25 Q-17.55 3.1 -21.3 2.25 L-21.65 2.1 -21.85 1.95 -21.95 1.75 -22.0 1.55 -22.0 1.2 -21.95 1.0 -21.85 0.8 -24.6 0.2 -24.7 0.0 -24.75 -0.2 M-12.75 -6.35 L-12.35 -7.3 Q-10.65 -8.55 -10.6 -8.65 L-8.3 -10.4 -6.6 -11.2 -6.3 -11.45 Q-5.65 -12.0 -4.8 -12.15 L-4.7 -12.15 -4.2 -12.25 -3.0 -12.55 -2.85 -12.65 -2.05 -13.15 -1.8 -13.25 -0.75 -13.45 -0.55 -13.5 -0.3 -13.5 1.05 -13.25 2.25 -12.6 2.75 -12.25 Q3.3 -11.85 3.8 -11.4 4.45 -10.8 5.1 -10.2 L5.2 -10.1 5.85 -9.75 6.1 -9.55 6.3 -9.45 6.3 -9.45 6.3 -9.45 6.3 -9.45 6.5 -9.25 7.75 -8.65 8.65 -8.15 10.25 -7.0 10.35 -6.8 10.45 -6.65 10.55 -6.45 10.65 -6.25 10.7 -6.05 10.7 -5.9 10.75 -5.7 10.75 -5.5 10.75 -5.3 10.7 -5.2 10.7 -5.1 10.7 -4.95 10.7 -4.9 10.85 -0.45 10.85 1.15 10.85 1.95 Q10.8 2.95 10.75 3.95 L10.65 4.95 10.65 5.75 10.55 5.95 10.45 6.15 10.5 6.25 10.5 6.6 10.25 6.55 10.2 6.55 9.6 7.05 9.5 7.15 9.35 7.65 8.45 8.55 7.5 9.05 5.75 9.55 5.45 9.55 4.85 10.15 4.05 10.8 4.05 10.8 3.75 11.0 3.75 11.0 3.1 11.3 1.15 11.9 0.5 12.25 -0.7 12.5 -1.0 12.5 -2.45 12.15 -2.55 12.15 -3.25 11.8 -3.35 11.7 -3.95 11.5 -4.3 11.4 -5.2 10.95 -6.15 10.1 -6.25 10.0 -7.75 9.35 -7.75 9.35 -7.9 9.25 -8.2 9.15 -8.5 9.0 -8.75 8.8 -8.85 8.8 -8.95 8.7 -9.15 8.6 -9.35 8.45 -9.45 8.45 -9.55 8.45 -9.75 8.4 -9.85 8.4 -9.85 8.4 -10.9 7.7 -11.8 6.55 -11.85 6.4 -11.85 6.35 -11.9 6.3 -12.75 4.9 -12.75 4.8 -12.75 -0.2 -12.75 -1.2 -12.75 -1.3 -12.75 -1.5 -12.75 -1.6 -12.75 -2.0 -12.75 -2.5 -12.75 -2.5 -12.75 -3.4 -12.75 -3.6 Q-12.75 -4.55 -12.75 -5.5 L-12.75 -6.35 M-10.0 14.3 L-9.55 13.25 Q-9.45 13.8 -9.6 13.95 L-9.7 14.05 -9.8 14.2 -10.0 14.3 M13.85 -2.6 L14.3 -2.0 Q15.5 -1.55 16.7 -1.1 L13.85 -2.6 Z;M-23.65 2.45 L-23.55 2.15 -23.2 1.8 Q-21.5 1.6 -19.8 1.75 L-17.6 1.55 -17.35 1.4 -17.3 1.4 Q-17.9 1.05 -18.5 0.7 L-20.1 -0.2 -20.3 -0.3 -20.45 -0.4 -20.55 -0.6 -20.75 -0.95 -20.75 -1.1 -20.65 -1.35 -20.3 -1.7 -19.65 -1.8 Q-19.1 -1.8 -18.5 -1.85 -18.45 -1.8 -18.35 -1.75 L-18.1 -1.65 -18.1 -1.9 -18.1 -1.95 -18.45 -2.15 -18.8 -2.35 -19.65 -3.25 -20.35 -4.4 -20.45 -4.7 -20.5 -4.85 -20.5 -5.0 -20.4 -5.3 -20.05 -5.55 -19.85 -5.65 -19.55 -5.75 -19.35 -5.75 -19.15 -5.7 -19.0 -5.6 -18.8 -5.5 -18.65 -5.4 -18.25 -5.4 -17.6 -5.35 -17.35 -5.35 -17.2 -5.75 -16.65 -6.55 -15.65 -6.7 -14.7 -6.6 -15.1 -7.1 -15.65 -7.95 -15.75 -8.15 -15.55 -8.55 -15.05 -9.35 -14.4 -9.4 -13.25 -9.5 -13.05 -9.45 -12.7 -9.25 -12.4 -9.05 -12.15 -9.05 -11.7 -9.15 -11.5 -9.15 Q-12.25 -11.75 -11.95 -14.5 L-11.95 -15.2 -12.0 -15.45 -12.15 -16.0 -12.2 -16.3 -12.1 -16.7 -11.9 -17.1 -12.15 -17.5 -12.45 -18.0 -12.55 -18.15 -12.55 -18.3 -12.45 -18.6 -12.1 -18.85 -11.9 -18.95 -11.5 -18.85 -10.95 -18.65 -10.65 -18.45 -10.55 -18.3 -10.4 -18.1 -10.3 -17.9 -10.15 -17.85 -9.8 -17.65 -9.35 -17.35 -9.25 -17.4 -9.25 -17.55 -9.1 -17.85 -8.8 -18.1 -8.55 -18.2 -8.15 -18.1 -7.45 -17.75 -7.15 -17.6 -6.55 -16.8 Q-6.1 -16.25 -5.65 -15.65 L-5.9 -16.6 -6.15 -17.7 -6.05 -18.1 -5.9 -18.25 -5.4 -18.7 -4.5 -18.35 -3.35 -17.65 -3.2 -17.55 -3.1 -17.45 -3.05 -17.45 -2.85 -17.35 -2.7 -17.3 -2.55 -17.2 -2.4 -17.1 -2.3 -16.85 -2.25 -16.6 -2.2 -16.35 -2.2 -16.2 -2.0 -15.95 -1.9 -15.75 -1.35 -16.5 -1.4 -16.85 -1.45 -17.1 -1.55 -17.25 Q-1.25 -19.05 0.2 -19.8 L0.4 -19.8 0.6 -19.7 0.9 -19.55 0.95 -19.3 1.05 -19.05 1.1 -18.8 0.85 -14.55 0.7 -13.9 0.8 -13.55 0.75 -13.2 Q0.9 -13.35 1.1 -13.55 L1.15 -13.65 1.5 -14.0 1.7 -14.05 7.0 -19.25 7.35 -19.5 7.55 -19.55 7.8 -19.55 7.95 -19.5 8.25 -19.35 8.45 -19.2 8.55 -19.0 10.45 -21.1 10.65 -21.1 10.85 -21.05 11.15 -20.8 11.25 -20.55 11.3 -20.3 11.35 -20.1 7.6 -13.05 7.6 -12.8 Q8.25 -13.65 9.05 -14.1 L9.25 -14.1 9.55 -14.0 9.9 -13.8 9.0 -9.65 9.15 -9.55 Q9.35 -9.45 9.65 -9.3 L9.8 -9.2 9.85 -8.95 9.85 -8.9 Q10.8 -10.35 12.2 -11.35 13.15 -13.0 14.5 -14.15 L14.7 -14.15 15.0 -13.95 15.3 -13.6 15.25 -13.35 11.75 -7.0 11.85 -7.0 12.25 -7.05 12.7 -7.1 14.6 -6.8 16.5 -6.8 16.65 -6.7 16.8 -6.65 Q17.0 -6.65 17.25 -6.6 L17.45 -6.5 Q17.55 -6.45 17.75 -6.35 L18.05 -6.15 18.1 -5.85 18.1 -5.65 18.05 -5.3 17.7 -5.1 17.5 -5.0 17.25 -4.95 17.05 -5.0 16.85 -5.1 16.4 -5.0 15.5 -4.95 15.4 -4.9 15.45 -4.8 15.8 -4.6 Q16.05 -4.4 16.3 -4.35 L16.7 -4.3 17.35 -3.95 17.6 -3.6 17.65 -3.45 17.6 -3.35 Q17.6 -3.2 17.55 -3.05 L17.2 -2.75 16.45 -2.5 15.7 -2.3 15.5 -2.3 15.25 -2.3 15.15 -2.4 14.9 -2.4 14.45 -2.25 15.75 -1.4 17.55 -0.45 17.75 -0.35 17.75 -0.1 17.75 0.55 17.45 0.85 17.2 1.0 16.95 1.0 16.7 1.0 Q16.6 1.0 16.5 1.0 L16.35 0.95 16.2 0.85 16.0 0.75 13.9 0.6 12.95 0.5 12.85 1.3 13.3 1.5 Q14.35 2.0 15.2 2.65 L15.3 2.85 Q15.3 2.9 15.35 3.0 15.35 3.05 15.35 3.15 L15.25 3.45 14.95 3.7 14.65 3.9 14.25 3.8 13.4 3.85 13.2 3.95 14.2 4.55 14.5 4.7 14.5 4.75 14.8 4.7 14.95 4.75 15.25 4.9 15.6 5.15 15.65 5.4 15.6 5.55 15.7 5.7 15.75 5.85 15.7 5.95 15.6 6.25 15.65 6.25 Q15.5 6.35 15.35 6.5 L15.15 6.6 14.25 6.3 14.05 6.4 14.0 6.4 15.0 7.15 16.5 7.95 16.65 8.05 16.8 8.25 16.8 8.5 16.85 8.85 16.95 9.0 17.2 9.3 17.65 9.75 18.3 10.1 19.25 10.65 19.4 10.75 19.5 11.0 19.45 11.65 19.5 11.65 19.15 11.9 18.9 12.0 Q17.6 11.65 16.35 10.8 L13.75 9.25 13.9 9.8 14.5 10.75 14.55 10.9 14.5 11.05 14.45 11.35 14.15 11.6 13.95 11.7 12.8 11.35 11.7 10.65 11.55 10.55 11.65 11.5 Q11.75 12.0 11.85 12.55 L11.9 13.0 11.95 13.45 11.9 13.55 11.8 13.9 11.55 14.15 11.3 14.2 10.15 13.85 9.4 13.35 8.85 13.95 9.05 18.05 9.2 18.85 9.2 19.15 9.15 19.55 8.95 19.75 8.5 20.1 8.2 20.1 8.05 20.05 7.9 19.95 7.8 19.8 7.65 19.65 7.55 19.4 Q7.5 19.15 7.45 18.85 L7.4 18.5 7.3 18.3 7.2 18.2 6.95 17.8 6.9 17.55 6.85 17.3 6.55 16.95 6.25 16.45 6.1 16.25 Q5.65 18.15 5.65 20.15 L5.7 20.4 5.6 20.65 5.35 21.1 5.05 21.35 4.85 21.45 4.55 21.45 4.4 21.4 4.2 21.3 4.15 21.15 4.0 21.0 3.95 20.8 3.95 20.65 4.05 20.3 3.7 19.3 3.6 18.35 3.5 18.2 3.4 18.0 3.3 17.8 3.3 17.45 3.3 17.1 3.05 16.65 2.75 15.75 Q2.25 16.7 1.05 17.55 L0.75 17.55 0.6 17.45 0.35 17.2 0.2 17.05 0.15 16.7 0.05 16.6 -0.05 16.45 -0.2 16.25 -0.4 15.5 -0.55 15.35 -0.65 15.4 -0.9 15.45 -1.15 15.45 -1.35 15.4 -1.5 15.35 -1.7 15.3 -2.05 15.1 Q-2.95 15.8 -3.85 17.2 L-4.05 17.35 -4.35 17.5 Q-5.0 18.2 -5.7 18.95 L-5.9 19.0 -6.15 19.05 -6.35 18.95 -6.55 18.85 -6.6 18.75 -6.75 18.55 Q-6.7 16.7 -5.7 15.0 -7.55 16.5 -9.55 17.65 L-9.6 17.7 -10.25 18.35 -10.75 18.55 -11.45 18.6 -11.6 18.5 -11.8 18.4 -11.9 18.25 -11.9 17.3 -10.6 14.65 -10.6 14.6 -10.55 14.45 -12.05 15.75 -12.55 16.05 -12.8 16.1 -13.0 16.0 -13.15 15.9 -13.25 15.75 -13.35 15.55 -13.45 15.4 -12.35 12.2 -13.4 12.95 -13.6 13.0 -13.85 12.9 -14.0 12.8 -14.1 12.7 -14.2 12.5 -14.3 12.3 -13.65 10.75 -13.8 10.65 -13.95 10.55 -14.15 10.45 -14.25 10.4 -14.4 10.2 -14.5 10.0 -14.6 9.75 -14.65 9.45 -14.15 7.85 -14.8 7.8 -15.8 7.7 -16.05 7.7 -16.25 7.65 -16.4 7.55 -16.6 7.5 -17.6 7.65 -18.8 7.5 -19.0 7.6 -19.25 7.65 -19.55 7.7 Q-19.95 7.7 -20.35 7.75 L-21.6 7.55 -21.75 7.45 -21.9 7.35 -22.0 7.1 -22.05 6.9 -22.0 6.45 Q-20.95 5.5 -19.6 5.15 L-18.95 4.8 -19.65 4.55 -20.6 4.3 -20.8 4.3 -20.95 4.2 -21.15 4.1 -21.3 4.0 Q-21.35 3.95 -21.45 3.9 L-21.6 3.85 -21.85 3.85 -22.2 3.75 -22.35 3.65 -22.7 3.45 -23.2 3.15 -23.35 3.1 -23.45 2.95 -23.65 2.55 -23.65 2.45 M-13.3 3.35 L-13.3 2.35 Q-13.0 1.3 -12.65 0.25 L-13.05 -2.65 -12.65 -4.25 -12.55 -4.65 Q-12.65 -5.7 -12.2 -6.45 L-12.2 -6.55 -12.05 -6.8 -11.05 -7.75 -10.95 -7.85 -10.15 -8.45 -9.95 -8.65 -9.1 -9.3 -9.0 -9.4 -8.6 -9.65 -7.2 -10.1 -5.9 -11.05 -5.45 -11.4 Q-4.9 -11.7 -4.3 -12.0 -3.8 -12.75 -2.9 -13.0 L-2.6 -13.05 -1.85 -13.15 -1.45 -13.15 -1.3 -13.15 -1.25 -13.1 -1.2 -13.15 -1.1 -13.15 -0.85 -13.2 0.45 -13.2 1.35 -12.7 3.25 -11.6 3.45 -11.5 3.65 -11.4 3.85 -11.25 4.05 -11.15 4.25 -11.05 4.45 -10.85 4.65 -10.75 4.85 -10.65 4.85 -10.65 4.85 -10.65 4.95 -10.55 5.05 -10.45 5.05 -10.45 8.8 -8.35 10.2 -7.55 10.8 -6.75 Q11.35 -5.75 10.95 -4.7 L11.4 -3.55 11.5 -2.6 11.5 -2.3 11.5 -2.0 11.5 -1.9 11.5 -1.6 11.5 -1.3 11.5 -1.2 11.4 -0.4 11.4 -0.2 11.3 0.2 11.4 1.3 11.2 2.25 10.65 4.0 10.7 4.5 10.65 5.4 10.35 6.4 10.4 6.4 10.3 6.55 10.25 6.6 9.7 7.35 8.4 8.4 7.55 8.85 6.4 9.25 6.1 9.35 4.55 9.85 4.45 9.85 3.85 10.25 3.85 10.25 3.35 10.5 3.05 10.6 2.1 11.2 1.05 11.9 0.95 12.0 -0.65 12.7 -0.75 12.7 -0.95 12.65 -1.15 12.7 -1.35 12.7 -1.6 12.65 -1.8 12.6 -1.95 12.5 -2.1 12.45 -2.1 12.45 -2.3 12.35 -2.45 12.25 -2.65 12.1 -2.75 12.05 -2.8 12.0 -3.5 11.6 -4.7 11.0 -4.8 10.9 -4.9 10.9 -4.9 10.9 -6.5 10.05 -6.7 9.95 -11.1 7.25 -12.0 6.65 -12.1 6.5 -12.25 6.3 -12.35 6.3 -12.65 6.1 -12.45 5.95 -12.45 5.9 -12.6 5.1 -12.65 5.0 Q-13.25 4.3 -13.3 3.35 L-13.3 3.35 M-9.35 15.8 L-6.65 13.8 Q-7.95 14.05 -8.4 14.6 L-9.15 15.35 -9.35 15.8 -9.35 15.8 M-9.35 15.8 L-6.35 13.6 Q-7.85 13.95 -8.4 14.6 L-9.35 15.8 Z"/>
    </path>
  </g>
</svg>
